tick,type,time,meta,track,program,channel,pitch,tempo,note,velocity
0,copyright,0,1,0,,,,,,
0,program_change,0,0,0,6,0,,,,
0,pitchwheel,0,0,0,,0,0,,,
0,program_change,0,0,0,6,1,,,,
0,pitchwheel,0,0,0,,1,-590,,,
0,program_change,0,0,0,6,2,,,,
0,pitchwheel,0,0,0,,2,-272,,,
0,program_change,0,0,0,6,3,,,,
0,pitchwheel,0,0,0,,3,-353,,,
0,program_change,0,0,0,6,4,,,,
0,pitchwheel,0,0,0,,4,-560,,,
0,program_change,0,0,0,6,5,,,,
0,pitchwheel,0,0,0,,5,-80,,,
0,program_change,0,0,0,6,6,,,,
0,pitchwheel,0,0,0,,6,-625,,,
0,program_change,0,0,0,6,7,,,,
0,pitchwheel,0,0,0,,7,-130,,,
0,program_change,0,0,0,6,8,,,,
0,pitchwheel,0,0,0,,8,-512,,,
0,program_change,0,0,0,6,10,,,,
0,pitchwheel,0,0,0,,10,-464,,,
0,program_change,0,0,0,6,11,,,,
0,pitchwheel,0,0,0,,11,-208,,,
0,program_change,0,0,0,6,12,,,,
0,pitchwheel,0,0,0,,12,-553,,,
0,set_tempo,0,1,0,,,,500000,,
110,note_on,110,0,0,,2,,,74,127
172,note_off,62,0,0,,2,,,74,127
173,note_on,1,0,0,,0,,,72,127
236,note_on,63,0,0,,2,,,74,127
237,note_off,1,0,0,,0,,,72,127
298,note_off,61,0,0,,2,,,74,127
299,note_on,1,0,0,,0,,,72,127
362,note_on,63,0,0,,2,,,74,127
363,note_off,1,0,0,,0,,,72,127
424,note_off,61,0,0,,2,,,74,127
425,note_on,1,0,0,,0,,,72,127
488,note_on,63,0,0,,2,,,74,127
489,note_off,1,0,0,,0,,,72,127
548,note_off,59,0,0,,2,,,74,127
549,note_on,1,0,0,,0,,,72,127
611,note_off,62,0,0,,0,,,72,127
612,note_on,1,0,0,,2,,,74,127
675,note_on,63,0,0,,0,,,72,127
676,note_off,1,0,0,,2,,,74,127
737,note_off,61,0,0,,0,,,72,127
738,note_on,1,0,0,,12,,,71,127
801,note_on,63,0,0,,10,,,69,127
802,note_off,1,0,0,,12,,,71,127
863,note_off,61,0,0,,10,,,69,127
864,note_on,1,0,0,,7,,,67,127
927,note_on,63,0,0,,5,,,65,127
928,note_off,1,0,0,,7,,,67,127
987,note_off,59,0,0,,5,,,65,127
988,note_on,1,0,0,,4,,,64,127
1206,note_off,218,0,0,,4,,,64,127
1207,note_on,1,0,0,,4,,,76,127
1425,note_off,218,0,0,,4,,,76,127
1426,note_on,1,0,0,,2,,,74,127
1644,note_off,218,0,0,,2,,,74,127
1645,note_on,1,0,0,,7,,,67,127
1863,note_off,218,0,0,,7,,,67,127
1864,note_on,1,0,0,,2,,,62,127
1864,note_on,0,0,0,,0,,,72,127
1926,note_off,62,0,0,,2,,,62,127
1927,note_on,1,0,0,,0,,,60,127
1990,note_on,63,0,0,,2,,,62,127
1991,note_off,1,0,0,,0,,,60,127
2052,note_off,61,0,0,,2,,,62,127
2053,note_on,1,0,0,,0,,,60,127
2116,note_on,63,0,0,,2,,,62,127
2117,note_off,1,0,0,,0,,,60,127
2178,note_off,61,0,0,,2,,,62,127
2179,note_on,1,0,0,,0,,,60,127
2242,note_on,63,0,0,,2,,,62,127
2243,note_off,1,0,0,,0,,,60,127
2302,note_off,59,0,0,,2,,,62,127
2302,note_off,0,0,0,,0,,,72,127
2303,note_on,1,0,0,,0,,,60,127
2303,note_on,0,0,0,,7,,,79,127
2365,note_off,62,0,0,,0,,,60,127
2366,note_on,1,0,0,,2,,,62,127
2429,note_on,63,0,0,,0,,,60,127
2430,note_off,1,0,0,,2,,,62,127
2491,note_off,61,0,0,,0,,,60,127
2492,note_on,1,0,0,,12,,,59,127
2555,note_on,63,0,0,,10,,,57,127
2556,note_off,1,0,0,,12,,,59,127
2617,note_off,61,0,0,,10,,,57,127
2618,note_on,1,0,0,,7,,,55,127
2681,note_on,63,0,0,,5,,,53,127
2682,note_off,1,0,0,,7,,,55,127
2741,note_off,59,0,0,,5,,,53,127
2742,note_on,1,0,0,,4,,,52,127
2960,note_off,218,0,0,,4,,,52,127
2961,note_on,1,0,0,,4,,,64,127
3179,note_off,218,0,0,,4,,,64,127
3179,note_off,0,0,0,,7,,,79,127
3180,note_on,1,0,0,,2,,,62,127
3180,note_on,0,0,0,,5,,,77,127
3398,note_off,218,0,0,,2,,,62,127
3399,note_on,1,0,0,,7,,,55,127
3557,note_off,158,0,0,,5,,,77,127
3618,note_off,61,0,0,,7,,,55,127
3619,note_on,1,0,0,,0,,,60,127
3619,note_on,0,0,0,,4,,,76,127
3728,note_off,109,0,0,,4,,,76,127
3729,note_on,1,0,0,,0,,,84,127
3838,note_off,109,0,0,,0,,,84,127
3839,note_on,1,0,0,,12,,,83,127
3948,note_off,109,0,0,,12,,,83,127
3949,note_on,1,0,0,,0,,,84,127
4058,note_off,109,0,0,,0,,,84,127
4058,note_off,0,0,0,,0,,,60,127
4059,note_on,1,0,0,,0,,,48,127
4059,note_on,0,0,0,,7,,,79,127
4168,note_off,109,0,0,,7,,,79,127
4169,note_on,1,0,0,,7,,,79,127
4278,note_off,109,0,0,,7,,,79,127
4279,note_on,1,0,0,,5,,,77,127
4388,note_off,109,0,0,,5,,,77,127
4389,note_on,1,0,0,,7,,,79,127
4498,note_off,109,0,0,,7,,,79,127
4498,note_off,0,0,0,,0,,,48,127
4499,note_on,1,0,0,,0,,,48,127
4499,note_on,0,0,0,,4,,,76,127
4608,note_off,109,0,0,,4,,,76,127
4609,note_on,1,0,0,,4,,,76,127
4718,note_off,109,0,0,,4,,,76,127
4719,note_on,1,0,0,,2,,,74,127
4828,note_off,109,0,0,,2,,,74,127
4829,note_on,1,0,0,,4,,,76,127
4938,note_off,109,0,0,,4,,,76,127
4939,note_on,1,0,0,,0,,,72,127
5048,note_off,109,0,0,,0,,,72,127
5049,note_on,1,0,0,,0,,,72,127
5158,note_off,109,0,0,,0,,,72,127
5158,note_off,0,0,0,,0,,,48,127
5159,note_on,1,0,0,,12,,,71,127
5268,note_off,109,0,0,,12,,,71,127
5269,note_on,1,0,0,,0,,,72,127
5378,note_off,109,0,0,,0,,,72,127
5379,note_on,1,0,0,,7,,,67,127
5489,note_on,110,0,0,,0,,,60,127
5598,note_off,109,0,0,,0,,,60,127
5599,note_on,1,0,0,,12,,,59,127
5708,note_off,109,0,0,,12,,,59,127
5709,note_on,1,0,0,,0,,,60,127
5818,note_off,109,0,0,,0,,,60,127
5818,note_off,0,0,0,,7,,,67,127
5819,note_on,1,0,0,,7,,,55,127
5819,note_on,0,0,0,,7,,,79,127
5928,note_off,109,0,0,,7,,,55,127
5929,note_on,1,0,0,,7,,,55,127
6038,note_off,109,0,0,,7,,,55,127
6039,note_on,1,0,0,,5,,,53,127
6148,note_off,109,0,0,,5,,,53,127
6149,note_on,1,0,0,,7,,,55,127
6258,note_off,109,0,0,,7,,,55,127
6258,note_off,0,0,0,,7,,,79,127
6259,note_on,1,0,0,,0,,,48,127
6259,note_on,0,0,0,,4,,,76,127
6368,note_off,109,0,0,,0,,,48,127
6369,note_on,1,0,0,,0,,,48,127
6478,note_off,109,0,0,,0,,,48,127
6479,note_on,1,0,0,,12,,,47,127
6588,note_off,109,0,0,,12,,,47,127
6589,note_on,1,0,0,,0,,,48,127
6698,note_off,109,0,0,,0,,,48,127
6698,note_off,0,0,0,,4,,,76,127
6699,note_on,1,0,0,,7,,,43,127
6699,note_on,0,0,0,,4,,,76,127
6771,note_off,72,0,0,,4,,,76,127
6772,note_on,1,0,0,,2,,,74,127
6807,note_off,35,0,0,,7,,,43,127
6808,note_on,1,0,0,,7,,,43,127
6843,note_off,35,0,0,,2,,,74,127
6844,note_on,1,0,0,,4,,,76,127
6916,note_off,72,0,0,,4,,,76,127
6916,note_off,0,0,0,,7,,,43,127
6917,note_on,1,0,0,,5,,,41,127
6917,note_on,0,0,0,,2,,,74,127
6989,note_off,72,0,0,,2,,,74,127
6990,note_on,1,0,0,,0,,,72,127
7025,note_off,35,0,0,,5,,,41,127
7026,note_on,1,0,0,,7,,,43,127
7061,note_off,35,0,0,,0,,,72,127
7062,note_on,1,0,0,,2,,,74,127
7134,note_off,72,0,0,,2,,,74,127
7134,note_off,0,0,0,,7,,,43,127
7135,note_on,1,0,0,,0,,,36,127
7135,note_on,0,0,0,,0,,,72,127
7372,note_off,237,0,0,,0,,,72,127
7382,note_on,10,0,0,,7,,,67,127
7569,note_off,187,0,0,,0,,,36,127
7600,note_off,31,0,0,,7,,,67,127
7601,note_on,1,0,0,,0,,,72,127
7819,note_off,218,0,0,,0,,,72,127
7820,note_on,1,0,0,,7,,,79,127
7820,note_on,0,0,0,,0,,,60,127
8038,note_off,218,0,0,,0,,,60,127
8038,note_off,0,0,0,,7,,,79,127
8039,note_on,1,0,0,,5,,,77,127
8039,note_on,0,0,0,,7,,,79,127
8039,note_on,0,0,0,,2,,,62,127
8039,note_on,0,0,0,,7,,,55,127
8257,note_off,218,0,0,,2,,,62,127
8257,note_off,0,0,0,,7,,,79,127
8257,note_off,0,0,0,,5,,,77,127
8258,note_on,1,0,0,,4,,,76,127
8258,note_on,0,0,0,,4,,,64,127
8367,note_off,109,0,0,,4,,,76,127
8368,note_on,1,0,0,,2,,,74,127
8477,note_off,109,0,0,,2,,,74,127
8477,note_off,0,0,0,,4,,,64,127
8478,note_on,1,0,0,,0,,,72,127
8478,note_on,0,0,0,,5,,,65,127
8696,note_off,218,0,0,,0,,,72,127
8697,note_on,1,0,0,,12,,,71,127
8915,note_off,218,0,0,,12,,,71,127
8915,note_off,0,0,0,,5,,,65,127
8915,note_off,0,0,0,,7,,,55,127
8916,note_on,1,0,0,,0,,,72,127
8916,note_on,0,0,0,,7,,,55,127
8916,note_on,0,0,0,,4,,,64,127
9134,note_off,218,0,0,,0,,,72,127
9135,note_on,1,0,0,,7,,,67,127
9350,note_off,215,0,0,,4,,,64,127
9350,note_off,0,0,0,,7,,,55,127
9353,note_off,3,0,0,,7,,,67,127
9354,note_on,1,0,0,,0,,,72,127
9572,note_off,218,0,0,,0,,,72,127
9573,note_on,1,0,0,,7,,,79,127
9573,note_on,0,0,0,,0,,,60,127
9791,note_off,218,0,0,,0,,,60,127
9791,note_off,0,0,0,,7,,,79,127
9792,note_on,1,0,0,,5,,,77,127
9792,note_on,0,0,0,,7,,,79,127
9792,note_on,0,0,0,,2,,,62,127
9792,note_on,0,0,0,,7,,,55,127
10010,note_off,218,0,0,,2,,,62,127
10010,note_off,0,0,0,,7,,,79,127
10010,note_off,0,0,0,,5,,,77,127
10011,note_on,1,0,0,,4,,,76,127
10011,note_on,0,0,0,,4,,,64,127
10120,note_off,109,0,0,,4,,,76,127
10121,note_on,1,0,0,,2,,,74,127
10230,note_off,109,0,0,,2,,,74,127
10230,note_off,0,0,0,,4,,,64,127
10231,note_on,1,0,0,,0,,,72,127
10231,note_on,0,0,0,,5,,,65,127
10449,note_off,218,0,0,,0,,,72,127
10450,note_on,1,0,0,,12,,,71,127
10668,note_off,218,0,0,,12,,,71,127
10668,note_off,0,0,0,,5,,,65,127
10668,note_off,0,0,0,,7,,,55,127
10669,note_on,1,0,0,,0,,,72,127
10669,note_on,0,0,0,,4,,,64,127
10887,note_off,218,0,0,,4,,,64,127
10888,note_on,1,0,0,,7,,,55,127
11106,note_off,218,0,0,,0,,,72,127
11107,note_on,1,0,0,,0,,,72,127
11107,note_on,0,0,0,,4,,,64,127
11325,note_off,218,0,0,,4,,,64,127
11326,note_on,1,0,0,,7,,,67,127
11544,note_off,218,0,0,,7,,,67,127
11544,note_off,0,0,0,,0,,,72,127
11545,note_on,1,0,0,,2,,,74,127
11545,note_on,0,0,0,,5,,,65,127
11545,note_on,0,0,0,,7,,,67,127
11763,note_off,218,0,0,,7,,,67,127
11763,note_off,0,0,0,,5,,,65,127
11763,note_off,0,0,0,,2,,,74,127
11764,note_on,1,0,0,,4,,,76,127
11764,note_on,0,0,0,,4,,,64,127
11873,note_off,109,0,0,,4,,,64,127
11874,note_on,1,0,0,,2,,,62,127
11983,note_off,109,0,0,,2,,,62,127
11983,note_off,0,0,0,,4,,,76,127
11984,note_on,1,0,0,,5,,,77,127
11984,note_on,0,0,0,,0,,,60,127
12202,note_off,218,0,0,,0,,,60,127
12203,note_on,1,0,0,,12,,,59,127
12421,note_off,218,0,0,,12,,,59,127
12421,note_off,0,0,0,,5,,,77,127
12422,note_on,1,0,0,,4,,,76,127
12422,note_on,0,0,0,,0,,,60,127
12635,note_off,213,0,0,,7,,,55,127
12641,note_off,6,0,0,,0,,,60,127
12642,note_on,1,0,0,,7,,,55,127
12861,note_on,219,0,0,,0,,,60,127
13079,note_off,218,0,0,,0,,,60,127
13079,note_off,0,0,0,,4,,,76,127
13080,note_on,1,0,0,,0,,,72,127
13080,note_on,0,0,0,,7,,,67,127
13298,note_off,218,0,0,,7,,,67,127
13298,note_off,0,0,0,,0,,,72,127
13299,note_on,1,0,0,,2,,,74,127
13299,note_on,0,0,0,,7,,,67,127
13299,note_on,0,0,0,,5,,,65,127
13517,note_off,218,0,0,,5,,,65,127
13517,note_off,0,0,0,,7,,,67,127
13517,note_off,0,0,0,,2,,,74,127
13518,note_on,1,0,0,,4,,,76,127
13518,note_on,0,0,0,,4,,,64,127
13627,note_off,109,0,0,,4,,,64,127
13628,note_on,1,0,0,,2,,,62,127
13737,note_off,109,0,0,,2,,,62,127
13737,note_off,0,0,0,,4,,,76,127
13738,note_on,1,0,0,,5,,,77,127
13738,note_on,0,0,0,,0,,,60,127
13956,note_off,218,0,0,,0,,,60,127
13957,note_on,1,0,0,,12,,,59,127
14172,note_off,215,0,0,,7,,,55,127
14175,note_off,3,0,0,,12,,,59,127
14175,note_off,0,0,0,,5,,,77,127
14176,note_on,1,0,0,,4,,,76,127
14176,note_on,0,0,0,,0,,,60,127
14394,note_off,218,0,0,,4,,,76,127
14413,note_on,19,0,0,,4,,,76,127
14631,note_off,218,0,0,,4,,,76,127
14632,note_on,1,0,0,,10,,,69,127
14632,note_on,0,0,0,,4,,,76,127
14850,note_off,218,0,0,,4,,,76,127
14851,note_on,1,0,0,,4,,,76,127
15051,note_off,200,0,0,,0,,,60,127
15069,note_off,18,0,0,,4,,,76,127
15070,note_on,1,0,0,,2,,,62,127
15070,note_on,0,0,0,,5,,,77,127
15288,note_off,218,0,0,,5,,,77,127
15289,note_on,1,0,0,,10,,,81,127
15504,note_off,215,0,0,,2,,,62,127
15507,note_off,3,0,0,,10,,,81,127
15507,note_off,0,0,0,,10,,,69,127
15508,note_on,1,0,0,,7,,,79,127
15726,note_off,218,0,0,,7,,,79,127
15727,note_on,1,0,0,,10,,,69,127
15727,note_on,0,0,0,,5,,,77,127
15946,note_on,219,0,0,,4,,,64,127
16161,note_off,215,0,0,,5,,,77,127
16166,note_on,5,0,0,,4,,,76,127
16275,note_off,109,0,0,,4,,,76,127
16276,note_on,1,0,0,,2,,,74,127
16385,note_off,109,0,0,,2,,,74,127
16385,note_off,0,0,0,,10,,,69,127
16386,note_on,1,0,0,,8,,,68,127
16386,note_on,0,0,0,,0,,,72,127
16604,note_off,218,0,0,,0,,,72,127
16605,note_on,1,0,0,,12,,,71,127
16823,note_off,218,0,0,,12,,,71,127
16823,note_off,0,0,0,,8,,,68,127
16823,note_off,0,0,0,,4,,,64,127
16824,note_on,1,0,0,,10,,,69,127
16824,note_on,0,0,0,,0,,,72,127
17042,note_off,218,0,0,,0,,,72,127
17043,note_on,1,0,0,,10,,,57,127
17043,note_on,0,0,0,,4,,,76,127
17261,note_off,218,0,0,,4,,,76,127
17262,note_on,1,0,0,,4,,,76,127
17480,note_off,218,0,0,,4,,,76,127
17480,note_off,0,0,0,,10,,,57,127
17481,note_on,1,0,0,,12,,,59,127
17481,note_on,0,0,0,,4,,,76,127
17699,note_off,218,0,0,,4,,,76,127
17699,note_off,0,0,0,,12,,,59,127
17700,note_on,1,0,0,,0,,,60,127
17700,note_on,0,0,0,,4,,,76,127
17917,note_off,217,0,0,,10,,,69,127
17918,note_off,1,0,0,,4,,,76,127
17919,note_on,1,0,0,,6,,,66,127
17919,note_on,0,0,0,,3,,,75,127
18134,note_off,215,0,0,,0,,,60,127
18137,note_off,3,0,0,,3,,,75,127
18137,note_off,0,0,0,,6,,,66,127
18138,note_on,1,0,0,,12,,,59,127
18138,note_on,0,0,0,,7,,,67,127
18138,note_on,0,0,0,,4,,,76,127
18356,note_off,218,0,0,,4,,,76,127
18356,note_off,0,0,0,,7,,,67,127
18357,note_on,1,0,0,,10,,,69,127
18357,note_on,0,0,0,,6,,,78,127
18572,note_off,215,0,0,,12,,,59,127
18575,note_off,3,0,0,,6,,,78,127
18575,note_off,0,0,0,,10,,,69,127
18576,note_on,1,0,0,,12,,,59,127
18576,note_on,0,0,0,,7,,,67,127
18576,note_on,0,0,0,,4,,,64,127
18576,note_on,0,0,0,,7,,,79,127
18794,note_off,218,0,0,,7,,,79,127
18795,note_on,1,0,0,,10,,,81,127
18904,note_off,109,0,0,,10,,,81,127
18905,note_on,1,0,0,,12,,,83,127
19014,note_off,109,0,0,,12,,,83,127
19014,note_off,0,0,0,,4,,,64,127
19014,note_off,0,0,0,,7,,,67,127
19015,note_on,1,0,0,,6,,,66,127
19015,note_on,0,0,0,,3,,,63,127
19015,note_on,0,0,0,,4,,,76,127
19233,note_off,218,0,0,,4,,,76,127
19234,note_on,1,0,0,,3,,,75,127
19452,note_off,218,0,0,,3,,,75,127
19452,note_off,0,0,0,,3,,,63,127
19452,note_off,0,0,0,,6,,,66,127
19452,note_off,0,0,0,,12,,,59,127
19453,note_on,1,0,0,,4,,,52,127
19453,note_on,0,0,0,,4,,,64,127
19453,note_on,0,0,0,,4,,,76,127
19671,note_off,218,0,0,,4,,,76,127
19671,note_off,0,0,0,,4,,,64,127
19671,note_off,0,0,0,,4,,,52,127
19681,note_on,10,0,0,,7,,,67,127
19681,note_on,0,0,0,,7,,,79,127
19899,note_off,218,0,0,,7,,,79,127
19899,note_off,0,0,0,,7,,,67,127
19900,note_on,1,0,0,,4,,,64,127
19900,note_on,0,0,0,,7,,,79,127
20118,note_off,218,0,0,,7,,,79,127
20118,note_off,0,0,0,,4,,,64,127
20119,note_on,1,0,0,,1,,,61,127
20119,note_on,0,0,0,,7,,,79,127
20337,note_off,218,0,0,,7,,,79,127
20337,note_off,0,0,0,,1,,,61,127
20338,note_on,1,0,0,,11,,,58,127
20338,note_on,0,0,0,,7,,,79,127
20556,note_off,218,0,0,,7,,,79,127
20557,note_on,1,0,0,,11,,,82,127
20775,note_off,218,0,0,,11,,,82,127
20776,note_on,1,0,0,,7,,,79,127
20886,note_off,110,0,0,,11,,,58,127
20996,note_on,110,0,0,,4,,,64,127
20996,note_on,0,0,0,,7,,,67,127
21214,note_off,218,0,0,,7,,,67,127
21214,note_off,0,0,0,,4,,,64,127
21215,note_on,1,0,0,,10,,,57,127
21215,note_on,0,0,0,,5,,,65,127
21215,note_on,0,0,0,,2,,,62,127
21433,note_off,218,0,0,,7,,,79,127
21434,note_on,1,0,0,,5,,,77,127
21543,note_off,109,0,0,,5,,,77,127
21544,note_on,1,0,0,,4,,,76,127
21653,note_off,109,0,0,,4,,,76,127
21653,note_off,0,0,0,,2,,,62,127
21653,note_off,0,0,0,,5,,,65,127
21654,note_on,1,0,0,,4,,,64,127
21654,note_on,0,0,0,,7,,,67,127
21654,note_on,0,0,0,,2,,,74,127
21872,note_off,218,0,0,,2,,,74,127
21873,note_on,1,0,0,,1,,,73,127
22091,note_off,218,0,0,,7,,,67,127
22091,note_off,0,0,0,,4,,,64,127
22101,note_off,10,0,0,,10,,,57,127
22101,note_on,0,0,0,,2,,,50,127
22101,note_on,0,0,0,,2,,,62,127
22101,note_on,0,0,0,,2,,,74,127
22106,note_off,5,0,0,,1,,,73,127
22210,note_off,104,0,0,,2,,,74,127
22211,note_on,1,0,0,,4,,,76,127
22320,note_off,109,0,0,,4,,,76,127
22321,note_on,1,0,0,,6,,,78,127
22430,note_off,109,0,0,,6,,,78,127
22431,note_on,1,0,0,,7,,,79,127
22540,note_off,109,0,0,,7,,,79,127
22541,note_on,1,0,0,,10,,,81,127
22650,note_off,109,0,0,,10,,,81,127
22651,note_on,1,0,0,,1,,,73,127
22760,note_off,109,0,0,,1,,,73,127
22761,note_on,1,0,0,,7,,,79,127
22870,note_off,109,0,0,,7,,,79,127
22871,note_on,1,0,0,,12,,,71,127
22980,note_off,109,0,0,,12,,,71,127
22980,note_off,0,0,0,,2,,,62,127
22980,note_off,0,0,0,,2,,,50,127
22981,note_on,1,0,0,,2,,,38,127
22981,note_on,0,0,0,,6,,,78,127
23090,note_off,109,0,0,,6,,,78,127
23091,note_on,1,0,0,,10,,,69,127
23200,note_off,109,0,0,,10,,,69,127
23201,note_on,1,0,0,,4,,,76,127
23310,note_off,109,0,0,,4,,,76,127
23311,note_on,1,0,0,,7,,,67,127
23420,note_off,109,0,0,,7,,,67,127
23421,note_on,1,0,0,,2,,,74,127
23530,note_off,109,0,0,,2,,,74,127
23531,note_on,1,0,0,,6,,,66,127
23640,note_off,109,0,0,,6,,,66,127
23641,note_on,1,0,0,,1,,,73,127
23750,note_off,109,0,0,,1,,,73,127
23751,note_on,1,0,0,,4,,,64,127
23860,note_off,109,0,0,,4,,,64,127
23860,note_off,0,0,0,,2,,,38,127
23861,note_on,1,0,0,,2,,,62,127
23861,note_on,0,0,0,,2,,,74,127
23970,note_off,109,0,0,,2,,,62,127
23971,note_on,1,0,0,,4,,,64,127
24080,note_off,109,0,0,,4,,,64,127
24081,note_on,1,0,0,,6,,,66,127
24190,note_off,109,0,0,,6,,,66,127
24191,note_on,1,0,0,,7,,,67,127
24300,note_off,109,0,0,,7,,,67,127
24301,note_on,1,0,0,,10,,,69,127
24410,note_off,109,0,0,,10,,,69,127
24411,note_on,1,0,0,,1,,,61,127
24520,note_off,109,0,0,,1,,,61,127
24521,note_on,1,0,0,,7,,,67,127
24630,note_off,109,0,0,,7,,,67,127
24631,note_on,1,0,0,,12,,,59,127
24740,note_off,109,0,0,,12,,,59,127
24741,note_on,1,0,0,,6,,,66,127
24850,note_off,109,0,0,,6,,,66,127
24851,note_on,1,0,0,,10,,,57,127
24960,note_off,109,0,0,,10,,,57,127
24961,note_on,1,0,0,,4,,,64,127
25070,note_off,109,0,0,,4,,,64,127
25071,note_on,1,0,0,,7,,,55,127
25180,note_off,109,0,0,,7,,,55,127
25181,note_on,1,0,0,,2,,,62,127
25290,note_off,109,0,0,,2,,,62,127
25291,note_on,1,0,0,,6,,,54,127
25400,note_off,109,0,0,,6,,,54,127
25401,note_on,1,0,0,,1,,,61,127
25510,note_off,109,0,0,,1,,,61,127
25511,note_on,1,0,0,,4,,,52,127
25620,note_off,109,0,0,,4,,,52,127
25620,note_off,0,0,0,,2,,,74,127
25639,note_on,19,0,0,,2,,,62,127
25639,note_on,0,0,0,,7,,,67,127
25639,note_on,0,0,0,,2,,,38,127
25693,note_off,54,0,0,,7,,,67,127
25694,note_on,1,0,0,,6,,,66,127
25748,note_off,54,0,0,,6,,,66,127
25749,note_on,1,0,0,,7,,,67,127
25803,note_off,54,0,0,,7,,,67,127
25804,note_on,1,0,0,,6,,,66,127
25858,note_off,54,0,0,,6,,,66,127
25859,note_on,1,0,0,,7,,,67,127
25913,note_off,54,0,0,,7,,,67,127
25914,note_on,1,0,0,,6,,,66,127
25968,note_off,54,0,0,,6,,,66,127
25969,note_on,1,0,0,,4,,,64,127
26023,note_off,54,0,0,,4,,,64,127
26024,note_on,1,0,0,,6,,,66,127
26078,note_off,54,0,0,,6,,,66,127
26078,note_off,0,0,0,,2,,,38,127
26079,note_on,1,0,0,,10,,,69,127
26079,note_on,0,0,0,,2,,,38,127
26133,note_off,54,0,0,,10,,,69,127
26134,note_on,1,0,0,,7,,,67,127
26188,note_off,54,0,0,,7,,,67,127
26189,note_on,1,0,0,,10,,,69,127
26243,note_off,54,0,0,,10,,,69,127
26244,note_on,1,0,0,,7,,,67,127
26298,note_off,54,0,0,,7,,,67,127
26299,note_on,1,0,0,,10,,,69,127
26353,note_off,54,0,0,,10,,,69,127
26354,note_on,1,0,0,,7,,,67,127
26408,note_off,54,0,0,,7,,,67,127
26409,note_on,1,0,0,,6,,,66,127
26463,note_off,54,0,0,,6,,,66,127
26464,note_on,1,0,0,,7,,,67,127
26518,note_off,54,0,0,,7,,,67,127
26518,note_off,0,0,0,,2,,,38,127
26519,note_on,1,0,0,,12,,,71,127
26519,note_on,0,0,0,,2,,,38,127
26573,note_off,54,0,0,,12,,,71,127
26574,note_on,1,0,0,,10,,,69,127
26628,note_off,54,0,0,,10,,,69,127
26629,note_on,1,0,0,,12,,,71,127
26683,note_off,54,0,0,,12,,,71,127
26684,note_on,1,0,0,,10,,,69,127
26738,note_off,54,0,0,,10,,,69,127
26739,note_on,1,0,0,,12,,,71,127
26793,note_off,54,0,0,,12,,,71,127
26794,note_on,1,0,0,,10,,,69,127
26848,note_off,54,0,0,,10,,,69,127
26849,note_on,1,0,0,,7,,,67,127
26903,note_off,54,0,0,,7,,,67,127
26904,note_on,1,0,0,,10,,,69,127
26958,note_off,54,0,0,,10,,,69,127
26958,note_off,0,0,0,,2,,,38,127
26959,note_on,1,0,0,,0,,,72,127
26959,note_on,0,0,0,,2,,,38,127
27013,note_off,54,0,0,,0,,,72,127
27014,note_on,1,0,0,,12,,,71,127
27068,note_off,54,0,0,,12,,,71,127
27069,note_on,1,0,0,,0,,,72,127
27123,note_off,54,0,0,,0,,,72,127
27124,note_on,1,0,0,,12,,,71,127
27178,note_off,54,0,0,,12,,,71,127
27179,note_on,1,0,0,,0,,,72,127
27233,note_off,54,0,0,,0,,,72,127
27234,note_on,1,0,0,,12,,,71,127
27288,note_off,54,0,0,,12,,,71,127
27289,note_on,1,0,0,,10,,,69,127
27343,note_off,54,0,0,,10,,,69,127
27344,note_on,1,0,0,,12,,,71,127
27398,note_off,54,0,0,,12,,,71,127
27398,note_off,0,0,0,,2,,,38,127
27399,note_on,1,0,0,,2,,,74,127
27399,note_on,0,0,0,,2,,,38,127
27453,note_off,54,0,0,,2,,,74,127
27454,note_on,1,0,0,,0,,,72,127
27508,note_off,54,0,0,,0,,,72,127
27509,note_on,1,0,0,,2,,,74,127
27563,note_off,54,0,0,,2,,,74,127
27564,note_on,1,0,0,,0,,,72,127
27618,note_off,54,0,0,,0,,,72,127
27619,note_on,1,0,0,,2,,,74,127
27673,note_off,54,0,0,,2,,,74,127
27674,note_on,1,0,0,,0,,,72,127
27728,note_off,54,0,0,,0,,,72,127
27729,note_on,1,0,0,,12,,,71,127
27783,note_off,54,0,0,,12,,,71,127
27784,note_on,1,0,0,,0,,,72,127
27838,note_off,54,0,0,,0,,,72,127
27838,note_off,0,0,0,,2,,,38,127
27839,note_on,1,0,0,,2,,,74,127
27839,note_on,0,0,0,,2,,,38,127
27893,note_off,54,0,0,,2,,,74,127
27894,note_on,1,0,0,,1,,,73,127
27948,note_off,54,0,0,,1,,,73,127
27949,note_on,1,0,0,,2,,,74,127
28003,note_off,54,0,0,,2,,,74,127
28004,note_on,1,0,0,,1,,,73,127
28058,note_off,54,0,0,,1,,,73,127
28059,note_on,1,0,0,,2,,,74,127
28113,note_off,54,0,0,,2,,,74,127
28114,note_on,1,0,0,,1,,,73,127
28168,note_off,54,0,0,,1,,,73,127
28169,note_on,1,0,0,,12,,,71,127
28223,note_off,54,0,0,,12,,,71,127
28224,note_on,1,0,0,,1,,,73,127
28272,note_off,48,0,0,,2,,,62,127
28278,note_off,6,0,0,,1,,,73,127
28278,note_off,0,0,0,,2,,,38,127
28279,note_on,1,0,0,,2,,,62,127
28279,note_on,0,0,0,,2,,,74,127
28279,note_on,0,0,0,,7,,,55,127
28279,note_on,0,0,0,,2,,,50,127
28333,note_off,54,0,0,,7,,,55,127
28334,note_on,1,0,0,,6,,,54,127
28388,note_off,54,0,0,,6,,,54,127
28389,note_on,1,0,0,,7,,,55,127
28443,note_off,54,0,0,,7,,,55,127
28444,note_on,1,0,0,,6,,,54,127
28498,note_off,54,0,0,,6,,,54,127
28499,note_on,1,0,0,,7,,,55,127
28553,note_off,54,0,0,,7,,,55,127
28554,note_on,1,0,0,,6,,,54,127
28608,note_off,54,0,0,,6,,,54,127
28609,note_on,1,0,0,,4,,,52,127
28663,note_off,54,0,0,,4,,,52,127
28664,note_on,1,0,0,,6,,,54,127
28718,note_off,54,0,0,,6,,,54,127
28718,note_off,0,0,0,,2,,,74,127
28718,note_off,0,0,0,,2,,,62,127
28719,note_on,1,0,0,,0,,,72,127
28719,note_on,0,0,0,,10,,,57,127
28773,note_off,54,0,0,,10,,,57,127
28773,note_off,0,0,0,,0,,,72,127
28774,note_on,1,0,0,,12,,,71,127
28774,note_on,0,0,0,,7,,,55,127
28828,note_off,54,0,0,,7,,,55,127
28828,note_off,0,0,0,,12,,,71,127
28829,note_on,1,0,0,,0,,,72,127
28829,note_on,0,0,0,,10,,,57,127
28883,note_off,54,0,0,,10,,,57,127
28883,note_off,0,0,0,,0,,,72,127
28884,note_on,1,0,0,,12,,,71,127
28884,note_on,0,0,0,,7,,,55,127
28938,note_off,54,0,0,,7,,,55,127
28938,note_off,0,0,0,,12,,,71,127
28939,note_on,1,0,0,,0,,,72,127
28939,note_on,0,0,0,,10,,,57,127
28993,note_off,54,0,0,,10,,,57,127
28993,note_off,0,0,0,,0,,,72,127
28994,note_on,1,0,0,,12,,,71,127
28994,note_on,0,0,0,,7,,,55,127
29048,note_off,54,0,0,,7,,,55,127
29048,note_off,0,0,0,,12,,,71,127
29049,note_on,1,0,0,,10,,,69,127
29049,note_on,0,0,0,,6,,,54,127
29103,note_off,54,0,0,,6,,,54,127
29103,note_off,0,0,0,,10,,,69,127
29104,note_on,1,0,0,,12,,,71,127
29104,note_on,0,0,0,,7,,,55,127
29158,note_off,54,0,0,,7,,,55,127
29158,note_off,0,0,0,,12,,,71,127
29159,note_on,1,0,0,,2,,,74,127
29159,note_on,0,0,0,,12,,,59,127
29213,note_off,54,0,0,,12,,,59,127
29213,note_off,0,0,0,,2,,,74,127
29214,note_on,1,0,0,,0,,,72,127
29214,note_on,0,0,0,,10,,,57,127
29268,note_off,54,0,0,,10,,,57,127
29268,note_off,0,0,0,,0,,,72,127
29269,note_on,1,0,0,,2,,,74,127
29269,note_on,0,0,0,,12,,,59,127
29323,note_off,54,0,0,,12,,,59,127
29323,note_off,0,0,0,,2,,,74,127
29324,note_on,1,0,0,,0,,,72,127
29324,note_on,0,0,0,,10,,,57,127
29378,note_off,54,0,0,,10,,,57,127
29378,note_off,0,0,0,,0,,,72,127
29379,note_on,1,0,0,,2,,,74,127
29379,note_on,0,0,0,,12,,,59,127
29433,note_off,54,0,0,,12,,,59,127
29433,note_off,0,0,0,,2,,,74,127
29434,note_on,1,0,0,,0,,,72,127
29434,note_on,0,0,0,,10,,,57,127
29488,note_off,54,0,0,,10,,,57,127
29488,note_off,0,0,0,,0,,,72,127
29489,note_on,1,0,0,,12,,,71,127
29489,note_on,0,0,0,,8,,,56,127
29543,note_off,54,0,0,,8,,,56,127
29543,note_off,0,0,0,,12,,,71,127
29544,note_on,1,0,0,,0,,,72,127
29544,note_on,0,0,0,,10,,,57,127
29598,note_off,54,0,0,,10,,,57,127
29598,note_off,0,0,0,,0,,,72,127
29599,note_on,1,0,0,,4,,,76,127
29599,note_on,0,0,0,,0,,,60,127
29653,note_off,54,0,0,,0,,,60,127
29653,note_off,0,0,0,,4,,,76,127
29654,note_on,1,0,0,,2,,,74,127
29654,note_on,0,0,0,,12,,,59,127
29708,note_off,54,0,0,,12,,,59,127
29708,note_off,0,0,0,,2,,,74,127
29709,note_on,1,0,0,,4,,,76,127
29709,note_on,0,0,0,,0,,,60,127
29763,note_off,54,0,0,,0,,,60,127
29763,note_off,0,0,0,,4,,,76,127
29764,note_on,1,0,0,,2,,,74,127
29764,note_on,0,0,0,,12,,,59,127
29818,note_off,54,0,0,,12,,,59,127
29818,note_off,0,0,0,,2,,,74,127
29819,note_on,1,0,0,,4,,,76,127
29819,note_on,0,0,0,,0,,,60,127
29873,note_off,54,0,0,,0,,,60,127
29873,note_off,0,0,0,,4,,,76,127
29874,note_on,1,0,0,,2,,,74,127
29874,note_on,0,0,0,,12,,,59,127
29928,note_off,54,0,0,,12,,,59,127
29928,note_off,0,0,0,,2,,,74,127
29929,note_on,1,0,0,,0,,,72,127
29929,note_on,0,0,0,,10,,,57,127
29983,note_off,54,0,0,,10,,,57,127
29983,note_off,0,0,0,,0,,,72,127
29984,note_on,1,0,0,,2,,,74,127
29984,note_on,0,0,0,,12,,,59,127
30038,note_off,54,0,0,,12,,,59,127
30038,note_off,0,0,0,,2,,,74,127
30039,note_on,1,0,0,,6,,,78,127
30039,note_on,0,0,0,,0,,,60,127
30093,note_off,54,0,0,,6,,,78,127
30094,note_on,1,0,0,,4,,,76,127
30148,note_off,54,0,0,,4,,,76,127
30149,note_on,1,0,0,,6,,,78,127
30203,note_off,54,0,0,,6,,,78,127
30204,note_on,1,0,0,,4,,,76,127
30258,note_off,54,0,0,,4,,,76,127
30259,note_on,1,0,0,,6,,,78,127
30313,note_off,54,0,0,,6,,,78,127
30314,note_on,1,0,0,,4,,,76,127
30368,note_off,54,0,0,,4,,,76,127
30369,note_on,1,0,0,,3,,,75,127
30423,note_off,54,0,0,,3,,,75,127
30424,note_on,1,0,0,,4,,,76,127
30478,note_off,54,0,0,,4,,,76,127
30478,note_off,0,0,0,,0,,,60,127
30479,note_on,1,0,0,,10,,,69,127
30479,note_on,0,0,0,,1,,,61,127
30533,note_off,54,0,0,,10,,,69,127
30534,note_on,1,0,0,,7,,,67,127
30588,note_off,54,0,0,,7,,,67,127
30589,note_on,1,0,0,,10,,,69,127
30643,note_off,54,0,0,,10,,,69,127
30644,note_on,1,0,0,,7,,,67,127
30698,note_off,54,0,0,,7,,,67,127
30699,note_on,1,0,0,,10,,,69,127
30753,note_off,54,0,0,,10,,,69,127
30754,note_on,1,0,0,,7,,,67,127
30808,note_off,54,0,0,,7,,,67,127
30809,note_on,1,0,0,,6,,,66,127
30863,note_off,54,0,0,,6,,,66,127
30864,note_on,1,0,0,,7,,,67,127
30912,note_off,48,0,0,,2,,,50,127
30918,note_off,6,0,0,,7,,,67,127
30918,note_off,0,0,0,,1,,,61,127
30919,note_on,1,0,0,,6,,,66,127
30919,note_on,0,0,0,,2,,,62,127
30919,note_on,0,0,0,,2,,,50,127
31028,note_off,109,0,0,,2,,,50,127
31028,note_off,0,0,0,,2,,,62,127
31028,note_off,0,0,0,,6,,,66,127
31029,note_on,1,0,0,,6,,,66,127
31139,note_on,110,0,0,,10,,,69,127
31246,note_off,107,0,0,,6,,,66,127
31247,note_off,1,0,0,,10,,,69,127
31248,note_on,1,0,0,,6,,,66,127
31357,note_off,109,0,0,,6,,,66,127
31358,note_on,1,0,0,,2,,,62,127
31468,note_on,110,0,0,,10,,,57,127
31523,note_off,55,0,0,,2,,,62,127
31577,note_off,54,0,0,,10,,,57,127
31578,note_on,1,0,0,,6,,,54,127
31687,note_off,109,0,0,,6,,,54,127
31688,note_on,1,0,0,,2,,,50,127
31798,note_on,110,0,0,,2,,,38,127
31905,note_off,107,0,0,,2,,,50,127
32035,note_on,130,0,0,,10,,,81,127
32235,note_off,200,0,0,,2,,,38,127
32253,note_off,18,0,0,,10,,,81,127
32254,note_on,1,0,0,,6,,,42,127
32254,note_on,0,0,0,,2,,,74,127
32326,note_off,72,0,0,,2,,,74,127
32327,note_on,1,0,0,,0,,,72,127
32399,note_off,72,0,0,,0,,,72,127
32400,note_on,1,0,0,,2,,,74,127
32472,note_off,72,0,0,,2,,,74,127
32473,note_on,1,0,0,,0,,,72,127
32545,note_off,72,0,0,,0,,,72,127
32546,note_on,1,0,0,,12,,,71,127
32618,note_off,72,0,0,,12,,,71,127
32619,note_on,1,0,0,,0,,,72,127
32691,note_off,72,0,0,,0,,,72,127
32691,note_off,0,0,0,,6,,,42,127
32692,note_on,1,0,0,,7,,,43,127
32692,note_on,0,0,0,,12,,,71,127
32764,note_off,72,0,0,,12,,,71,127
32765,note_on,1,0,0,,0,,,72,127
32837,note_off,72,0,0,,0,,,72,127
32838,note_on,1,0,0,,2,,,74,127
32910,note_off,72,0,0,,2,,,74,127
32910,note_off,0,0,0,,7,,,43,127
32911,note_on,1,0,0,,0,,,48,127
32911,note_on,0,0,0,,0,,,72,127
32983,note_off,72,0,0,,0,,,72,127
32984,note_on,1,0,0,,12,,,71,127
33056,note_off,72,0,0,,12,,,71,127
33057,note_on,1,0,0,,10,,,69,127
33129,note_off,72,0,0,,10,,,69,127
33129,note_off,0,0,0,,0,,,48,127
33130,note_on,1,0,0,,2,,,50,127
33130,note_on,0,0,0,,12,,,71,127
33130,note_on,0,0,0,,7,,,67,127
33348,note_off,218,0,0,,7,,,67,127
33348,note_off,0,0,0,,12,,,71,127
33348,note_off,0,0,0,,2,,,50,127
33349,note_on,1,0,0,,2,,,38,127
33349,note_on,0,0,0,,6,,,66,127
33349,note_on,0,0,0,,12,,,71,127
33403,note_off,54,0,0,,12,,,71,127
33404,note_on,1,0,0,,10,,,69,127
33458,note_off,54,0,0,,10,,,69,127
33459,note_on,1,0,0,,12,,,71,127
33513,note_off,54,0,0,,12,,,71,127
33514,note_off,1,0,0,,6,,,66,127
33514,note_on,0,0,0,,10,,,69,127
33568,note_off,54,0,0,,10,,,69,127
33568,note_off,0,0,0,,2,,,38,127
33569,note_on,1,0,0,,7,,,43,127
33569,note_on,0,0,0,,7,,,67,127
33678,note_off,109,0,0,,7,,,67,127
33679,note_on,1,0,0,,7,,,79,127
33788,note_off,109,0,0,,7,,,79,127
33789,note_on,1,0,0,,2,,,74,127
33898,note_off,109,0,0,,2,,,74,127
33899,note_on,1,0,0,,12,,,71,127
34008,note_off,109,0,0,,12,,,71,127
34009,note_on,1,0,0,,7,,,67,127
34118,note_off,109,0,0,,7,,,67,127
34119,note_on,1,0,0,,2,,,62,127
34228,note_off,109,0,0,,2,,,62,127
34229,note_on,1,0,0,,12,,,59,127
34336,note_off,107,0,0,,7,,,43,127
34337,note_off,1,0,0,,12,,,59,127
34338,note_on,1,0,0,,7,,,55,127
34447,note_off,109,0,0,,7,,,55,127
34466,note_on,19,0,0,,2,,,38,127
34466,note_on,0,0,0,,7,,,67,127
34466,note_on,0,0,0,,2,,,62,127
34520,note_off,54,0,0,,7,,,67,127
34521,note_on,1,0,0,,6,,,66,127
34575,note_off,54,0,0,,6,,,66,127
34576,note_on,1,0,0,,7,,,67,127
34630,note_off,54,0,0,,7,,,67,127
34631,note_on,1,0,0,,6,,,66,127
34685,note_off,54,0,0,,6,,,66,127
34686,note_on,1,0,0,,7,,,67,127
34740,note_off,54,0,0,,7,,,67,127
34741,note_on,1,0,0,,6,,,66,127
34795,note_off,54,0,0,,6,,,66,127
34796,note_on,1,0,0,,4,,,64,127
34850,note_off,54,0,0,,4,,,64,127
34851,note_on,1,0,0,,6,,,66,127
34905,note_off,54,0,0,,6,,,66,127
34905,note_off,0,0,0,,2,,,38,127
34906,note_on,1,0,0,,2,,,38,127
34906,note_on,0,0,0,,10,,,69,127
34960,note_off,54,0,0,,10,,,69,127
34961,note_on,1,0,0,,7,,,67,127
35015,note_off,54,0,0,,7,,,67,127
35016,note_on,1,0,0,,10,,,69,127
35070,note_off,54,0,0,,10,,,69,127
35071,note_on,1,0,0,,7,,,67,127
35125,note_off,54,0,0,,7,,,67,127
35126,note_on,1,0,0,,10,,,69,127
35180,note_off,54,0,0,,10,,,69,127
35181,note_on,1,0,0,,7,,,67,127
35235,note_off,54,0,0,,7,,,67,127
35236,note_on,1,0,0,,6,,,66,127
35290,note_off,54,0,0,,6,,,66,127
35291,note_on,1,0,0,,7,,,67,127
35345,note_off,54,0,0,,7,,,67,127
35345,note_off,0,0,0,,2,,,38,127
35346,note_on,1,0,0,,2,,,38,127
35346,note_on,0,0,0,,12,,,71,127
35400,note_off,54,0,0,,12,,,71,127
35401,note_on,1,0,0,,10,,,69,127
35455,note_off,54,0,0,,10,,,69,127
35456,note_on,1,0,0,,12,,,71,127
35510,note_off,54,0,0,,12,,,71,127
35511,note_on,1,0,0,,10,,,69,127
35565,note_off,54,0,0,,10,,,69,127
35566,note_on,1,0,0,,12,,,71,127
35620,note_off,54,0,0,,12,,,71,127
35621,note_on,1,0,0,,10,,,69,127
35675,note_off,54,0,0,,10,,,69,127
35676,note_on,1,0,0,,8,,,68,127
35730,note_off,54,0,0,,8,,,68,127
35731,note_on,1,0,0,,10,,,69,127
35785,note_off,54,0,0,,10,,,69,127
35785,note_off,0,0,0,,2,,,38,127
35786,note_on,1,0,0,,2,,,38,127
35786,note_on,0,0,0,,0,,,72,127
35840,note_off,54,0,0,,0,,,72,127
35841,note_on,1,0,0,,12,,,71,127
35895,note_off,54,0,0,,12,,,71,127
35896,note_on,1,0,0,,0,,,72,127
35950,note_off,54,0,0,,0,,,72,127
35951,note_on,1,0,0,,12,,,71,127
36005,note_off,54,0,0,,12,,,71,127
36006,note_on,1,0,0,,0,,,72,127
36060,note_off,54,0,0,,0,,,72,127
36061,note_on,1,0,0,,12,,,71,127
36115,note_off,54,0,0,,12,,,71,127
36116,note_on,1,0,0,,10,,,69,127
36170,note_off,54,0,0,,10,,,69,127
36171,note_on,1,0,0,,12,,,71,127
36225,note_off,54,0,0,,12,,,71,127
36225,note_off,0,0,0,,2,,,38,127
36226,note_on,1,0,0,,2,,,38,127
36226,note_on,0,0,0,,2,,,74,127
36280,note_off,54,0,0,,2,,,74,127
36281,note_on,1,0,0,,0,,,72,127
36335,note_off,54,0,0,,0,,,72,127
36336,note_on,1,0,0,,2,,,74,127
36390,note_off,54,0,0,,2,,,74,127
36391,note_on,1,0,0,,0,,,72,127
36445,note_off,54,0,0,,0,,,72,127
36446,note_on,1,0,0,,2,,,74,127
36500,note_off,54,0,0,,2,,,74,127
36501,note_on,1,0,0,,0,,,72,127
36555,note_off,54,0,0,,0,,,72,127
36556,note_on,1,0,0,,12,,,71,127
36610,note_off,54,0,0,,12,,,71,127
36611,note_on,1,0,0,,0,,,72,127
36665,note_off,54,0,0,,0,,,72,127
36665,note_off,0,0,0,,2,,,38,127
36666,note_on,1,0,0,,2,,,38,127
36666,note_on,0,0,0,,2,,,74,127
36720,note_off,54,0,0,,2,,,74,127
36721,note_on,1,0,0,,1,,,73,127
36775,note_off,54,0,0,,1,,,73,127
36776,note_on,1,0,0,,2,,,74,127
36830,note_off,54,0,0,,2,,,74,127
36831,note_on,1,0,0,,1,,,73,127
36885,note_off,54,0,0,,1,,,73,127
36886,note_on,1,0,0,,2,,,74,127
36940,note_off,54,0,0,,2,,,74,127
36941,note_on,1,0,0,,1,,,73,127
36995,note_off,54,0,0,,1,,,73,127
36996,note_on,1,0,0,,12,,,71,127
37050,note_off,54,0,0,,12,,,71,127
37051,note_on,1,0,0,,1,,,73,127
37099,note_off,48,0,0,,2,,,62,127
37105,note_off,6,0,0,,1,,,73,127
37105,note_off,0,0,0,,2,,,38,127
37106,note_on,1,0,0,,2,,,50,127
37106,note_on,0,0,0,,7,,,55,127
37106,note_on,0,0,0,,2,,,74,127
37106,note_on,0,0,0,,2,,,62,127
37160,note_off,54,0,0,,7,,,55,127
37161,note_on,1,0,0,,6,,,54,127
37215,note_off,54,0,0,,6,,,54,127
37216,note_on,1,0,0,,7,,,55,127
37270,note_off,54,0,0,,7,,,55,127
37271,note_on,1,0,0,,6,,,54,127
37325,note_off,54,0,0,,6,,,54,127
37326,note_on,1,0,0,,7,,,55,127
37380,note_off,54,0,0,,7,,,55,127
37381,note_on,1,0,0,,6,,,54,127
37435,note_off,54,0,0,,6,,,54,127
37436,note_on,1,0,0,,4,,,52,127
37490,note_off,54,0,0,,4,,,52,127
37491,note_on,1,0,0,,6,,,54,127
37545,note_off,54,0,0,,6,,,54,127
37545,note_off,0,0,0,,2,,,62,127
37545,note_off,0,0,0,,2,,,74,127
37546,note_on,1,0,0,,10,,,57,127
37546,note_on,0,0,0,,0,,,72,127
37600,note_off,54,0,0,,0,,,72,127
37600,note_off,0,0,0,,10,,,57,127
37601,note_on,1,0,0,,7,,,55,127
37601,note_on,0,0,0,,12,,,71,127
37655,note_off,54,0,0,,12,,,71,127
37655,note_off,0,0,0,,7,,,55,127
37656,note_on,1,0,0,,10,,,57,127
37656,note_on,0,0,0,,0,,,72,127
37710,note_off,54,0,0,,0,,,72,127
37710,note_off,0,0,0,,10,,,57,127
37711,note_on,1,0,0,,7,,,55,127
37711,note_on,0,0,0,,12,,,71,127
37765,note_off,54,0,0,,12,,,71,127
37765,note_off,0,0,0,,7,,,55,127
37766,note_on,1,0,0,,10,,,57,127
37766,note_on,0,0,0,,0,,,72,127
37820,note_off,54,0,0,,0,,,72,127
37820,note_off,0,0,0,,10,,,57,127
37821,note_on,1,0,0,,7,,,55,127
37821,note_on,0,0,0,,12,,,71,127
37875,note_off,54,0,0,,12,,,71,127
37875,note_off,0,0,0,,7,,,55,127
37876,note_on,1,0,0,,6,,,54,127
37876,note_on,0,0,0,,10,,,69,127
37930,note_off,54,0,0,,10,,,69,127
37930,note_off,0,0,0,,6,,,54,127
37931,note_on,1,0,0,,7,,,55,127
37931,note_on,0,0,0,,12,,,71,127
37985,note_off,54,0,0,,12,,,71,127
37985,note_off,0,0,0,,7,,,55,127
37986,note_on,1,0,0,,12,,,59,127
37986,note_on,0,0,0,,2,,,74,127
38040,note_off,54,0,0,,2,,,74,127
38040,note_off,0,0,0,,12,,,59,127
38041,note_on,1,0,0,,10,,,57,127
38041,note_on,0,0,0,,0,,,72,127
38095,note_off,54,0,0,,0,,,72,127
38095,note_off,0,0,0,,10,,,57,127
38096,note_on,1,0,0,,12,,,59,127
38096,note_on,0,0,0,,2,,,74,127
38150,note_off,54,0,0,,2,,,74,127
38150,note_off,0,0,0,,12,,,59,127
38151,note_on,1,0,0,,10,,,57,127
38151,note_on,0,0,0,,0,,,72,127
38205,note_off,54,0,0,,0,,,72,127
38205,note_off,0,0,0,,10,,,57,127
38206,note_on,1,0,0,,12,,,59,127
38206,note_on,0,0,0,,2,,,74,127
38260,note_off,54,0,0,,2,,,74,127
38260,note_off,0,0,0,,12,,,59,127
38261,note_on,1,0,0,,10,,,57,127
38261,note_on,0,0,0,,0,,,72,127
38315,note_off,54,0,0,,0,,,72,127
38315,note_off,0,0,0,,10,,,57,127
38316,note_on,1,0,0,,7,,,55,127
38316,note_on,0,0,0,,12,,,71,127
38370,note_off,54,0,0,,12,,,71,127
38370,note_off,0,0,0,,7,,,55,127
38371,note_on,1,0,0,,10,,,57,127
38371,note_on,0,0,0,,0,,,72,127
38425,note_off,54,0,0,,0,,,72,127
38425,note_off,0,0,0,,10,,,57,127
38426,note_on,1,0,0,,0,,,60,127
38426,note_on,0,0,0,,4,,,76,127
38480,note_off,54,0,0,,4,,,76,127
38480,note_off,0,0,0,,0,,,60,127
38481,note_on,1,0,0,,12,,,59,127
38481,note_on,0,0,0,,2,,,74,127
38535,note_off,54,0,0,,2,,,74,127
38535,note_off,0,0,0,,12,,,59,127
38536,note_on,1,0,0,,0,,,60,127
38536,note_on,0,0,0,,4,,,76,127
38590,note_off,54,0,0,,4,,,76,127
38590,note_off,0,0,0,,0,,,60,127
38591,note_on,1,0,0,,12,,,59,127
38591,note_on,0,0,0,,2,,,74,127
38645,note_off,54,0,0,,2,,,74,127
38645,note_off,0,0,0,,12,,,59,127
38646,note_on,1,0,0,,0,,,60,127
38646,note_on,0,0,0,,4,,,76,127
38700,note_off,54,0,0,,4,,,76,127
38700,note_off,0,0,0,,0,,,60,127
38701,note_on,1,0,0,,12,,,59,127
38701,note_on,0,0,0,,2,,,74,127
38755,note_off,54,0,0,,2,,,74,127
38755,note_off,0,0,0,,12,,,59,127
38756,note_on,1,0,0,,10,,,57,127
38756,note_on,0,0,0,,1,,,73,127
38810,note_off,54,0,0,,1,,,73,127
38810,note_off,0,0,0,,10,,,57,127
38811,note_on,1,0,0,,12,,,59,127
38811,note_on,0,0,0,,2,,,74,127
38865,note_off,54,0,0,,2,,,74,127
38865,note_off,0,0,0,,12,,,59,127
38866,note_on,1,0,0,,0,,,60,127
38866,note_on,0,0,0,,6,,,78,127
38920,note_off,54,0,0,,6,,,78,127
38921,note_on,1,0,0,,4,,,76,127
38975,note_off,54,0,0,,4,,,76,127
38976,note_on,1,0,0,,6,,,78,127
39030,note_off,54,0,0,,6,,,78,127
39031,note_on,1,0,0,,4,,,76,127
39085,note_off,54,0,0,,4,,,76,127
39086,note_on,1,0,0,,6,,,78,127
39140,note_off,54,0,0,,6,,,78,127
39141,note_on,1,0,0,,4,,,76,127
39195,note_off,54,0,0,,4,,,76,127
39196,note_on,1,0,0,,3,,,75,127
39250,note_off,54,0,0,,3,,,75,127
39251,note_on,1,0,0,,4,,,76,127
39305,note_off,54,0,0,,4,,,76,127
39305,note_off,0,0,0,,0,,,60,127
39306,note_on,1,0,0,,1,,,61,127
39306,note_on,0,0,0,,10,,,69,127
39360,note_off,54,0,0,,10,,,69,127
39361,note_on,1,0,0,,7,,,67,127
39415,note_off,54,0,0,,7,,,67,127
39416,note_on,1,0,0,,10,,,69,127
39470,note_off,54,0,0,,10,,,69,127
39471,note_on,1,0,0,,7,,,67,127
39525,note_off,54,0,0,,7,,,67,127
39526,note_on,1,0,0,,10,,,69,127
39580,note_off,54,0,0,,10,,,69,127
39581,note_on,1,0,0,,7,,,67,127
39635,note_off,54,0,0,,7,,,67,127
39636,note_on,1,0,0,,6,,,66,127
39690,note_off,54,0,0,,6,,,66,127
39691,note_on,1,0,0,,7,,,67,127
39739,note_off,48,0,0,,2,,,50,127
39745,note_off,6,0,0,,7,,,67,127
39745,note_off,0,0,0,,1,,,61,127
39746,note_on,1,0,0,,2,,,50,127
39746,note_on,0,0,0,,2,,,62,127
39746,note_on,0,0,0,,6,,,66,127
39855,note_off,109,0,0,,6,,,66,127
39855,note_off,0,0,0,,2,,,62,127
39855,note_off,0,0,0,,2,,,50,127
39856,note_on,1,0,0,,6,,,66,127
39966,note_on,110,0,0,,10,,,69,127
40073,note_off,107,0,0,,6,,,66,127
40074,note_off,1,0,0,,10,,,69,127
40075,note_on,1,0,0,,6,,,66,127
40184,note_off,109,0,0,,6,,,66,127
40185,note_on,1,0,0,,2,,,62,127
40295,note_on,110,0,0,,10,,,57,127
40350,note_off,55,0,0,,2,,,62,127
40404,note_off,54,0,0,,10,,,57,127
40405,note_on,1,0,0,,6,,,54,127
40514,note_off,109,0,0,,6,,,54,127
40515,note_on,1,0,0,,2,,,50,127
40625,note_on,110,0,0,,2,,,38,127
40835,note_off,210,0,0,,2,,,50,127
40869,note_on,34,0,0,,10,,,81,127
41083,note_off,214,0,0,,2,,,38,127
41100,note_off,17,0,0,,10,,,81,127
41100,note_on,0,0,0,,6,,,42,127
41100,note_on,0,0,0,,2,,,74,127
41172,note_off,72,0,0,,2,,,74,127
41173,note_on,1,0,0,,0,,,72,127
41245,note_off,72,0,0,,0,,,72,127
41246,note_on,1,0,0,,2,,,74,127
41318,note_off,72,0,0,,2,,,74,127
41319,note_on,1,0,0,,0,,,72,127
41391,note_off,72,0,0,,0,,,72,127
41392,note_on,1,0,0,,12,,,71,127
41464,note_off,72,0,0,,12,,,71,127
41465,note_on,1,0,0,,10,,,69,127
41537,note_off,72,0,0,,10,,,69,127
41537,note_off,0,0,0,,6,,,42,127
41538,note_on,1,0,0,,7,,,43,127
41538,note_on,0,0,0,,12,,,71,127
41610,note_off,72,0,0,,12,,,71,127
41611,note_on,1,0,0,,0,,,72,127
41683,note_off,72,0,0,,0,,,72,127
41684,note_on,1,0,0,,2,,,74,127
41756,note_off,72,0,0,,2,,,74,127
41756,note_off,0,0,0,,7,,,43,127
41757,note_on,1,0,0,,0,,,48,127
41757,note_on,0,0,0,,0,,,72,127
41829,note_off,72,0,0,,0,,,72,127
41830,note_on,1,0,0,,12,,,71,127
41902,note_off,72,0,0,,12,,,71,127
41903,note_on,1,0,0,,10,,,69,127
41975,note_off,72,0,0,,10,,,69,127
41975,note_off,0,0,0,,0,,,48,127
41976,note_on,1,0,0,,2,,,50,127
41976,note_on,0,0,0,,7,,,67,127
41976,note_on,0,0,0,,12,,,71,127
42194,note_off,218,0,0,,12,,,71,127
42194,note_off,0,0,0,,7,,,67,127
42194,note_off,0,0,0,,2,,,50,127
42195,note_on,1,0,0,,2,,,38,127
42195,note_on,0,0,0,,6,,,66,127
42195,note_on,0,0,0,,12,,,71,127
42249,note_off,54,0,0,,12,,,71,127
42250,note_on,1,0,0,,10,,,69,127
42304,note_off,54,0,0,,10,,,69,127
42305,note_on,1,0,0,,12,,,71,127
42359,note_off,54,0,0,,12,,,71,127
42360,note_off,1,0,0,,6,,,66,127
42360,note_on,0,0,0,,10,,,69,127
42414,note_off,54,0,0,,10,,,69,127
42414,note_off,0,0,0,,2,,,38,127
42415,note_on,1,0,0,,7,,,43,127
42415,note_on,0,0,0,,7,,,67,127
42580,note_off,165,0,0,,7,,,67,127
42644,note_on,64,0,0,,2,,,74,127
42716,note_off,72,0,0,,2,,,74,127
42717,note_on,1,0,0,,12,,,71,127
42789,note_off,72,0,0,,12,,,71,127
42790,note_on,1,0,0,,2,,,74,127
42853,note_off,63,0,0,,7,,,43,127
42862,note_off,9,0,0,,2,,,74,127
42863,note_on,1,0,0,,2,,,38,127
42863,note_on,0,0,0,,2,,,50,127
42863,note_on,0,0,0,,0,,,72,127
43081,note_off,218,0,0,,0,,,72,127
43082,note_on,1,0,0,,10,,,69,127
43154,note_off,72,0,0,,10,,,69,127
43155,note_on,1,0,0,,6,,,66,127
43227,note_off,72,0,0,,6,,,66,127
43228,note_on,1,0,0,,10,,,69,127
43300,note_off,72,0,0,,10,,,69,127
43300,note_off,0,0,0,,2,,,50,127
43300,note_off,0,0,0,,2,,,38,127
43301,note_on,1,0,0,,7,,,43,127
43301,note_on,0,0,0,,7,,,67,127
43519,note_off,218,0,0,,7,,,67,127
43520,note_on,1,0,0,,2,,,86,127
43592,note_off,72,0,0,,2,,,86,127
43593,note_on,1,0,0,,12,,,83,127
43665,note_off,72,0,0,,12,,,83,127
43666,note_on,1,0,0,,2,,,86,127
43738,note_off,72,0,0,,2,,,86,127
43738,note_off,0,0,0,,7,,,43,127
43739,note_on,1,0,0,,2,,,50,127
43739,note_on,0,0,0,,2,,,38,127
43739,note_on,0,0,0,,0,,,84,127
43957,note_off,218,0,0,,0,,,84,127
43958,note_on,1,0,0,,10,,,81,127
44030,note_off,72,0,0,,10,,,81,127
44031,note_on,1,0,0,,6,,,78,127
44103,note_off,72,0,0,,6,,,78,127
44104,note_on,1,0,0,,10,,,81,127
44176,note_off,72,0,0,,10,,,81,127
44176,note_off,0,0,0,,2,,,38,127
44176,note_off,0,0,0,,2,,,50,127
44177,note_on,1,0,0,,7,,,43,127
44177,note_on,0,0,0,,2,,,74,127
44249,note_off,72,0,0,,2,,,74,127
44250,note_on,1,0,0,,7,,,79,127
44322,note_off,72,0,0,,7,,,79,127
44323,note_on,1,0,0,,6,,,78,127
44395,note_off,72,0,0,,6,,,78,127
44395,note_off,0,0,0,,7,,,43,127
44396,note_on,1,0,0,,0,,,48,127
44396,note_on,0,0,0,,4,,,76,127
44468,note_off,72,0,0,,4,,,76,127
44469,note_on,1,0,0,,2,,,74,127
44541,note_off,72,0,0,,2,,,74,127
44542,note_on,1,0,0,,0,,,72,127
44614,note_off,72,0,0,,0,,,72,127
44614,note_off,0,0,0,,0,,,48,127
44615,note_on,1,0,0,,2,,,50,127
44615,note_on,0,0,0,,12,,,71,127
44833,note_off,218,0,0,,12,,,71,127
44833,note_off,0,0,0,,2,,,50,127
44834,note_on,1,0,0,,2,,,38,127
44834,note_on,0,0,0,,12,,,71,127
44888,note_off,54,0,0,,12,,,71,127
44889,note_on,1,0,0,,10,,,69,127
44943,note_off,54,0,0,,10,,,69,127
44944,note_on,1,0,0,,7,,,67,127
44998,note_off,54,0,0,,7,,,67,127
44999,note_on,1,0,0,,10,,,69,127
45053,note_off,54,0,0,,10,,,69,127
45053,note_off,0,0,0,,2,,,38,127
45054,note_on,1,0,0,,7,,,43,127
45054,note_on,0,0,0,,7,,,67,127
45272,note_off,218,0,0,,7,,,67,127
45282,note_on,10,0,0,,2,,,74,127
45354,note_off,72,0,0,,2,,,74,127
45355,note_on,1,0,0,,12,,,71,127
45427,note_off,72,0,0,,12,,,71,127
45428,note_on,1,0,0,,2,,,74,127
45491,note_off,63,0,0,,7,,,43,127
45500,note_off,9,0,0,,2,,,74,127
45501,note_on,1,0,0,,2,,,50,127
45501,note_on,0,0,0,,2,,,38,127
45501,note_on,0,0,0,,0,,,72,127
45666,note_off,165,0,0,,0,,,72,127
45721,note_on,55,0,0,,10,,,69,127
45793,note_off,72,0,0,,10,,,69,127
45794,note_on,1,0,0,,6,,,66,127
45866,note_off,72,0,0,,6,,,66,127
45867,note_on,1,0,0,,10,,,69,127
45939,note_off,72,0,0,,10,,,69,127
45939,note_off,0,0,0,,2,,,38,127
45939,note_off,0,0,0,,2,,,50,127
45940,note_on,1,0,0,,7,,,43,127
45940,note_on,0,0,0,,7,,,67,127
46105,note_off,165,0,0,,7,,,67,127
46160,note_on,55,0,0,,2,,,86,127
46232,note_off,72,0,0,,2,,,86,127
46233,note_on,1,0,0,,12,,,83,127
46305,note_off,72,0,0,,12,,,83,127
46306,note_on,1,0,0,,2,,,86,127
46378,note_off,72,0,0,,2,,,86,127
46378,note_off,0,0,0,,7,,,43,127
46379,note_on,1,0,0,,2,,,38,127
46379,note_on,0,0,0,,2,,,50,127
46379,note_on,0,0,0,,0,,,84,127
46544,note_off,165,0,0,,0,,,84,127
46599,note_on,55,0,0,,10,,,81,127
46671,note_off,72,0,0,,10,,,81,127
46672,note_on,1,0,0,,6,,,78,127
46744,note_off,72,0,0,,6,,,78,127
46745,note_on,1,0,0,,10,,,81,127
46817,note_off,72,0,0,,10,,,81,127
46817,note_off,0,0,0,,2,,,50,127
46817,note_off,0,0,0,,2,,,38,127
46818,note_on,1,0,0,,7,,,43,127
46818,note_on,0,0,0,,2,,,74,127
46890,note_off,72,0,0,,2,,,74,127
46891,note_on,1,0,0,,7,,,79,127
46963,note_off,72,0,0,,7,,,79,127
46964,note_on,1,0,0,,6,,,78,127
47036,note_off,72,0,0,,6,,,78,127
47036,note_off,0,0,0,,7,,,43,127
47037,note_on,1,0,0,,0,,,48,127
47037,note_on,0,0,0,,4,,,76,127
47109,note_off,72,0,0,,4,,,76,127
47110,note_on,1,0,0,,2,,,74,127
47182,note_off,72,0,0,,2,,,74,127
47183,note_on,1,0,0,,0,,,72,127
47255,note_off,72,0,0,,0,,,72,127
47255,note_off,0,0,0,,0,,,48,127
47256,note_on,1,0,0,,2,,,50,127
47256,note_on,0,0,0,,12,,,71,127
47474,note_off,218,0,0,,12,,,71,127
47474,note_off,0,0,0,,2,,,50,127
47475,note_on,1,0,0,,2,,,38,127
47475,note_on,0,0,0,,12,,,71,127
47529,note_off,54,0,0,,12,,,71,127
47530,note_on,1,0,0,,10,,,69,127
47584,note_off,54,0,0,,10,,,69,127
47585,note_on,1,0,0,,7,,,67,127
47639,note_off,54,0,0,,7,,,67,127
47640,note_on,1,0,0,,10,,,69,127
47694,note_off,54,0,0,,10,,,69,127
47694,note_off,0,0,0,,2,,,38,127
47695,note_on,1,0,0,,7,,,43,127
47695,note_on,0,0,0,,7,,,67,127
48010,note_on,315,0,0,,7,,,31,127
48025,note_off,15,0,0,,7,,,67,127
48819,note_off,794,0,0,,7,,,31,127
48882,note_off,63,0,0,,7,,,43,127
48901,note_on,19,0,0,,7,,,67,127
48901,note_on,0,0,0,,7,,,43,127
49010,note_off,109,0,0,,7,,,67,127
49011,note_on,1,0,0,,7,,,79,127
49120,note_off,109,0,0,,7,,,79,127
49121,note_on,1,0,0,,6,,,78,127
49230,note_off,109,0,0,,6,,,78,127
49231,note_on,1,0,0,,7,,,79,127
49340,note_off,109,0,0,,7,,,79,127
49341,note_on,1,0,0,,2,,,74,127
49450,note_off,109,0,0,,2,,,74,127
49451,note_on,1,0,0,,2,,,74,127
49560,note_off,109,0,0,,2,,,74,127
49561,note_on,1,0,0,,0,,,72,127
49670,note_off,109,0,0,,0,,,72,127
49671,note_on,1,0,0,,2,,,74,127
49780,note_off,109,0,0,,2,,,74,127
49780,note_off,0,0,0,,7,,,43,127
49781,note_on,1,0,0,,11,,,70,127
49781,note_on,0,0,0,,7,,,43,127
49890,note_off,109,0,0,,11,,,70,127
49891,note_on,1,0,0,,11,,,70,127
50000,note_off,109,0,0,,11,,,70,127
50001,note_on,1,0,0,,10,,,69,127
50110,note_off,109,0,0,,10,,,69,127
50111,note_on,1,0,0,,11,,,70,127
50220,note_off,109,0,0,,11,,,70,127
50221,note_on,1,0,0,,7,,,67,127
50330,note_off,109,0,0,,7,,,67,127
50331,note_on,1,0,0,,7,,,67,127
50440,note_off,109,0,0,,7,,,67,127
50441,note_on,1,0,0,,6,,,66,127
50550,note_off,109,0,0,,6,,,66,127
50551,note_on,1,0,0,,7,,,67,127
50660,note_off,109,0,0,,7,,,67,127
50661,note_on,1,0,0,,2,,,62,127
50770,note_off,109,0,0,,7,,,43,127
50771,note_on,1,0,0,,7,,,55,127
50880,note_off,109,0,0,,7,,,55,127
50881,note_on,1,0,0,,6,,,54,127
50990,note_off,109,0,0,,6,,,54,127
50991,note_on,1,0,0,,7,,,55,127
51100,note_off,109,0,0,,7,,,55,127
51101,note_on,1,0,0,,2,,,50,127
51210,note_off,109,0,0,,2,,,50,127
51211,note_on,1,0,0,,2,,,50,127
51320,note_off,109,0,0,,2,,,50,127
51321,note_on,1,0,0,,0,,,48,127
51430,note_off,109,0,0,,0,,,48,127
51431,note_on,1,0,0,,2,,,50,127
51540,note_off,109,0,0,,2,,,50,127
51541,note_on,1,0,0,,11,,,46,127
51650,note_off,109,0,0,,11,,,46,127
51651,note_on,1,0,0,,11,,,46,127
51760,note_off,109,0,0,,11,,,46,127
51761,note_on,1,0,0,,10,,,45,127
51870,note_off,109,0,0,,10,,,45,127
51871,note_on,1,0,0,,11,,,46,127
51980,note_off,109,0,0,,11,,,46,127
51981,note_on,1,0,0,,7,,,43,127
52090,note_off,109,0,0,,7,,,43,127
52091,note_on,1,0,0,,7,,,43,127
52200,note_off,109,0,0,,7,,,43,127
52201,note_on,1,0,0,,5,,,41,127
52310,note_off,109,0,0,,5,,,41,127
52311,note_on,1,0,0,,7,,,43,127
52414,note_off,103,0,0,,2,,,62,127
52420,note_off,6,0,0,,7,,,43,127
52421,note_on,1,0,0,,3,,,39,127
52549,note_on,128,0,0,,7,,,79,127
52658,note_off,109,0,0,,7,,,79,127
52659,note_on,1,0,0,,5,,,77,127
52768,note_off,109,0,0,,5,,,77,127
52769,note_on,1,0,0,,7,,,79,127
52878,note_off,109,0,0,,7,,,79,127
52879,note_on,1,0,0,,3,,,75,127
52988,note_off,109,0,0,,3,,,75,127
52989,note_on,1,0,0,,3,,,75,127
53098,note_off,109,0,0,,3,,,75,127
53099,note_on,1,0,0,,2,,,74,127
53208,note_off,109,0,0,,2,,,74,127
53209,note_on,1,0,0,,3,,,75,127
53299,note_off,90,0,0,,3,,,39,127
53317,note_off,18,0,0,,3,,,75,127
53318,note_on,1,0,0,,3,,,39,127
53318,note_on,0,0,0,,11,,,70,127
53427,note_off,109,0,0,,11,,,70,127
53428,note_on,1,0,0,,11,,,70,127
53537,note_off,109,0,0,,11,,,70,127
53538,note_on,1,0,0,,8,,,68,127
53647,note_off,109,0,0,,8,,,68,127
53648,note_on,1,0,0,,11,,,70,127
53757,note_off,109,0,0,,11,,,70,127
53758,note_on,1,0,0,,7,,,67,127
53867,note_off,109,0,0,,7,,,67,127
53868,note_on,1,0,0,,7,,,67,127
53977,note_off,109,0,0,,7,,,67,127
53978,note_on,1,0,0,,5,,,65,127
54087,note_off,109,0,0,,5,,,65,127
54088,note_on,1,0,0,,7,,,67,127
54197,note_off,109,0,0,,7,,,67,127
54197,note_off,0,0,0,,3,,,39,127
54198,note_on,1,0,0,,3,,,39,127
54198,note_on,0,0,0,,3,,,63,127
54307,note_off,109,0,0,,3,,,63,127
54308,note_on,1,0,0,,7,,,67,127
54417,note_off,109,0,0,,7,,,67,127
54418,note_on,1,0,0,,3,,,63,127
54527,note_off,109,0,0,,3,,,63,127
54528,note_on,1,0,0,,11,,,58,127
54637,note_off,109,0,0,,11,,,58,127
54638,note_on,1,0,0,,7,,,55,127
54747,note_off,109,0,0,,7,,,55,127
54748,note_on,1,0,0,,3,,,51,127
54857,note_off,109,0,0,,3,,,51,127
54858,note_on,1,0,0,,11,,,46,127
54967,note_off,109,0,0,,11,,,46,127
54968,note_on,1,0,0,,7,,,43,127
55077,note_off,109,0,0,,7,,,43,127
55077,note_off,0,0,0,,3,,,39,127
55078,note_on,1,0,0,,3,,,39,127
55955,note_off,877,0,0,,3,,,39,127
56176,note_on,221,0,0,,3,,,75,127
56395,note_on,219,0,0,,3,,,63,127
56610,note_off,215,0,0,,3,,,75,127
56613,note_off,3,0,0,,3,,,63,127
56614,note_on,1,0,0,,8,,,56,127
56614,note_on,0,0,0,,3,,,75,127
56832,note_off,218,0,0,,3,,,75,127
56832,note_off,0,0,0,,8,,,56,127
56833,note_on,1,0,0,,11,,,58,127
56833,note_on,0,0,0,,3,,,51,127
56833,note_on,0,0,0,,1,,,73,127
56833,note_on,0,0,0,,3,,,75,127
57051,note_off,218,0,0,,3,,,75,127
57051,note_off,0,0,0,,1,,,73,127
57051,note_off,0,0,0,,11,,,58,127
57052,note_on,1,0,0,,0,,,60,127
57052,note_on,0,0,0,,0,,,72,127
57161,note_off,109,0,0,,0,,,72,127
57162,note_on,1,0,0,,11,,,70,127
57271,note_off,109,0,0,,11,,,70,127
57271,note_off,0,0,0,,0,,,60,127
57272,note_on,1,0,0,,1,,,61,127
57272,note_on,0,0,0,,8,,,68,127
57490,note_off,218,0,0,,8,,,68,127
57491,note_on,1,0,0,,8,,,68,127
57545,note_off,54,0,0,,8,,,68,127
57546,note_on,1,0,0,,7,,,67,127
57600,note_off,54,0,0,,7,,,67,127
57601,note_on,1,0,0,,5,,,65,127
57655,note_off,54,0,0,,5,,,65,127
57656,note_on,1,0,0,,7,,,67,127
57710,note_off,54,0,0,,7,,,67,127
57710,note_off,0,0,0,,1,,,61,127
57710,note_off,0,0,0,,3,,,51,127
57711,note_on,1,0,0,,3,,,51,127
57711,note_on,0,0,0,,0,,,60,127
57711,note_on,0,0,0,,8,,,68,127
57929,note_off,218,0,0,,8,,,68,127
57930,note_on,1,0,0,,3,,,63,127
58145,note_off,215,0,0,,0,,,60,127
58145,note_off,0,0,0,,3,,,51,127
58148,note_off,3,0,0,,3,,,63,127
58149,note_on,1,0,0,,8,,,68,127
58367,note_off,218,0,0,,8,,,68,127
58368,note_on,1,0,0,,8,,,56,127
58368,note_on,0,0,0,,3,,,75,127
58586,note_off,218,0,0,,3,,,75,127
58586,note_off,0,0,0,,8,,,56,127
58587,note_on,1,0,0,,11,,,58,127
58587,note_on,0,0,0,,3,,,51,127
58587,note_on,0,0,0,,3,,,75,127
58587,note_on,0,0,0,,1,,,73,127
58805,note_off,218,0,0,,1,,,73,127
58805,note_off,0,0,0,,3,,,75,127
58805,note_off,0,0,0,,11,,,58,127
58806,note_on,1,0,0,,0,,,60,127
58806,note_on,0,0,0,,0,,,72,127
58915,note_off,109,0,0,,0,,,72,127
58916,note_on,1,0,0,,11,,,70,127
59025,note_off,109,0,0,,11,,,70,127
59025,note_off,0,0,0,,0,,,60,127
59026,note_on,1,0,0,,1,,,61,127
59026,note_on,0,0,0,,8,,,68,127
59244,note_off,218,0,0,,8,,,68,127
59245,note_on,1,0,0,,8,,,68,127
59299,note_off,54,0,0,,8,,,68,127
59300,note_on,1,0,0,,7,,,67,127
59354,note_off,54,0,0,,7,,,67,127
59355,note_on,1,0,0,,5,,,65,127
59409,note_off,54,0,0,,5,,,65,127
59410,note_on,1,0,0,,7,,,67,127
59464,note_off,54,0,0,,7,,,67,127
59464,note_off,0,0,0,,1,,,61,127
59464,note_off,0,0,0,,3,,,51,127
59465,note_on,1,0,0,,8,,,56,127
59465,note_on,0,0,0,,0,,,60,127
59465,note_on,0,0,0,,8,,,68,127
59638,note_off,173,0,0,,8,,,68,127
59703,note_on,65,0,0,,6,,,78,127
59900,note_off,197,0,0,,0,,,60,127
59900,note_off,0,0,0,,8,,,56,127
59922,note_off,22,0,0,,6,,,78,127
59923,note_on,1,0,0,,5,,,77,127
60141,note_off,218,0,0,,5,,,77,127
60142,note_on,1,0,0,,3,,,75,127
60142,note_on,0,0,0,,11,,,58,127
60142,note_on,0,0,0,,6,,,54,127
60360,note_off,218,0,0,,6,,,54,127
60360,note_off,0,0,0,,11,,,58,127
60361,note_on,1,0,0,,0,,,60,127
60361,note_on,0,0,0,,5,,,53,127
60579,note_off,218,0,0,,0,,,60,127
60579,note_off,0,0,0,,3,,,75,127
60580,note_on,1,0,0,,1,,,73,127
60580,note_on,0,0,0,,1,,,61,127
60689,note_off,109,0,0,,1,,,73,127
60690,note_on,1,0,0,,0,,,72,127
60799,note_off,109,0,0,,0,,,72,127
60799,note_off,0,0,0,,1,,,61,127
60800,note_on,1,0,0,,11,,,70,127
60800,note_on,0,0,0,,3,,,63,127
61018,note_off,218,0,0,,11,,,70,127
61019,note_on,1,0,0,,11,,,70,127
61073,note_off,54,0,0,,11,,,70,127
61074,note_on,1,0,0,,10,,,69,127
61128,note_off,54,0,0,,10,,,69,127
61129,note_on,1,0,0,,7,,,67,127
61183,note_off,54,0,0,,7,,,67,127
61184,note_on,1,0,0,,10,,,69,127
61238,note_off,54,0,0,,10,,,69,127
61238,note_off,0,0,0,,3,,,63,127
61238,note_off,0,0,0,,5,,,53,127
61239,note_on,1,0,0,,11,,,70,127
61239,note_on,0,0,0,,5,,,53,127
61239,note_on,0,0,0,,1,,,61,127
61457,note_off,218,0,0,,11,,,70,127
61458,note_on,1,0,0,,5,,,65,127
61673,note_off,215,0,0,,1,,,61,127
61673,note_off,0,0,0,,5,,,53,127
61676,note_off,3,0,0,,5,,,65,127
61677,note_on,1,0,0,,11,,,70,127
61895,note_off,218,0,0,,11,,,70,127
61896,note_on,1,0,0,,5,,,77,127
61896,note_on,0,0,0,,11,,,58,127
62114,note_off,218,0,0,,11,,,58,127
62114,note_off,0,0,0,,5,,,77,127
62115,note_on,1,0,0,,3,,,75,127
62115,note_on,0,0,0,,5,,,77,127
62115,note_on,0,0,0,,5,,,53,127
62115,note_on,0,0,0,,0,,,60,127
62333,note_off,218,0,0,,0,,,60,127
62333,note_off,0,0,0,,5,,,77,127
62333,note_off,0,0,0,,3,,,75,127
62334,note_on,1,0,0,,1,,,73,127
62334,note_on,0,0,0,,1,,,61,127
62443,note_off,109,0,0,,1,,,73,127
62444,note_on,1,0,0,,0,,,72,127
62551,note_off,107,0,0,,1,,,61,127
62552,note_off,1,0,0,,0,,,72,127
62552,note_on,0,0,0,,3,,,63,127
62553,note_on,1,0,0,,11,,,70,127
62771,note_off,218,0,0,,11,,,70,127
62772,note_on,1,0,0,,11,,,70,127
62826,note_off,54,0,0,,11,,,70,127
62827,note_on,1,0,0,,10,,,69,127
62881,note_off,54,0,0,,10,,,69,127
62882,note_on,1,0,0,,7,,,67,127
62936,note_off,54,0,0,,7,,,67,127
62937,note_on,1,0,0,,10,,,69,127
62991,note_off,54,0,0,,10,,,69,127
62991,note_off,0,0,0,,3,,,63,127
62991,note_off,0,0,0,,5,,,53,127
62992,note_on,1,0,0,,11,,,70,127
62992,note_on,0,0,0,,5,,,53,127
62992,note_on,0,0,0,,1,,,61,127
63210,note_off,218,0,0,,11,,,70,127
63220,note_on,10,0,0,,5,,,65,127
63426,note_off,206,0,0,,1,,,61,127
63426,note_off,0,0,0,,5,,,53,127
63439,note_off,13,0,0,,5,,,65,127
63440,note_on,1,0,0,,11,,,70,127
63658,note_off,218,0,0,,11,,,70,127
63659,note_on,1,0,0,,5,,,77,127
63659,note_on,0,0,0,,11,,,58,127
63877,note_off,218,0,0,,11,,,58,127
63877,note_off,0,0,0,,5,,,77,127
63878,note_on,1,0,0,,3,,,75,127
63878,note_on,0,0,0,,5,,,77,127
63878,note_on,0,0,0,,5,,,53,127
63878,note_on,0,0,0,,0,,,60,127
64096,note_off,218,0,0,,0,,,60,127
64096,note_off,0,0,0,,5,,,77,127
64096,note_off,0,0,0,,3,,,75,127
64097,note_on,1,0,0,,1,,,73,127
64097,note_on,0,0,0,,1,,,61,127
64206,note_off,109,0,0,,1,,,73,127
64207,note_on,1,0,0,,0,,,72,127
64316,note_off,109,0,0,,0,,,72,127
64316,note_off,0,0,0,,1,,,61,127
64317,note_on,1,0,0,,11,,,70,127
64317,note_on,0,0,0,,3,,,63,127
64535,note_off,218,0,0,,11,,,70,127
64536,note_on,1,0,0,,11,,,70,127
64590,note_off,54,0,0,,11,,,70,127
64591,note_on,1,0,0,,10,,,69,127
64645,note_off,54,0,0,,10,,,69,127
64646,note_on,1,0,0,,7,,,67,127
64700,note_off,54,0,0,,7,,,67,127
64701,note_on,1,0,0,,10,,,69,127
64755,note_off,54,0,0,,10,,,69,127
64755,note_off,0,0,0,,3,,,63,127
64755,note_off,0,0,0,,5,,,53,127
64756,note_on,1,0,0,,11,,,70,127
64756,note_on,0,0,0,,11,,,58,127
64756,note_on,0,0,0,,1,,,61,127
65194,note_off,438,0,0,,11,,,58,127
65213,note_off,19,0,0,,1,,,61,127
65231,note_on,18,0,0,,11,,,82,127
65231,note_on,0,0,0,,11,,,46,127
65270,note_off,39,0,0,,11,,,70,127
65340,note_off,70,0,0,,11,,,82,127
65341,note_on,1,0,0,,1,,,73,127
65450,note_off,109,0,0,,1,,,73,127
65451,note_on,1,0,0,,8,,,80,127
65560,note_off,109,0,0,,8,,,80,127
65561,note_on,1,0,0,,0,,,72,127
65670,note_off,109,0,0,,0,,,72,127
65670,note_off,0,0,0,,11,,,46,127
65671,note_on,1,0,0,,7,,,79,127
65671,note_on,0,0,0,,11,,,46,127
65780,note_off,109,0,0,,7,,,79,127
65781,note_on,1,0,0,,11,,,70,127
65890,note_off,109,0,0,,11,,,70,127
65891,note_on,1,0,0,,5,,,77,127
66000,note_off,109,0,0,,5,,,77,127
66001,note_on,1,0,0,,8,,,68,127
66110,note_off,109,0,0,,8,,,68,127
66110,note_off,0,0,0,,11,,,46,127
66111,note_on,1,0,0,,4,,,76,127
66111,note_on,0,0,0,,11,,,46,127
66215,note_off,104,0,0,,4,,,76,127
66216,note_on,1,0,0,,7,,,67,127
66329,note_off,113,0,0,,7,,,67,127
66330,note_on,1,0,0,,1,,,73,127
66439,note_off,109,0,0,,1,,,73,127
66440,note_on,1,0,0,,5,,,65,127
66549,note_off,109,0,0,,5,,,65,127
66549,note_off,0,0,0,,11,,,46,127
66550,note_on,1,0,0,,4,,,64,127
66550,note_on,0,0,0,,0,,,72,127
66550,note_on,0,0,0,,0,,,48,127
66988,note_off,438,0,0,,4,,,64,127
67002,note_off,14,0,0,,0,,,48,127
67008,note_on,6,0,0,,0,,,48,127
67008,note_on,0,0,0,,0,,,84,127
67023,note_off,15,0,0,,0,,,72,127
67117,note_off,94,0,0,,0,,,84,127
67118,note_on,1,0,0,,4,,,76,127
67227,note_off,109,0,0,,4,,,76,127
67228,note_on,1,0,0,,11,,,82,127
67337,note_off,109,0,0,,11,,,82,127
67338,note_on,1,0,0,,1,,,73,127
67447,note_off,109,0,0,,1,,,73,127
67447,note_off,0,0,0,,0,,,48,127
67448,note_on,1,0,0,,0,,,48,127
67448,note_on,0,0,0,,8,,,80,127
67557,note_off,109,0,0,,8,,,80,127
67558,note_on,1,0,0,,0,,,72,127
67667,note_off,109,0,0,,0,,,72,127
67668,note_on,1,0,0,,7,,,79,127
67777,note_off,109,0,0,,7,,,79,127
67778,note_on,1,0,0,,11,,,70,127
67887,note_off,109,0,0,,11,,,70,127
67887,note_off,0,0,0,,0,,,48,127
67888,note_on,1,0,0,,0,,,48,127
67888,note_on,0,0,0,,5,,,77,127
67997,note_off,109,0,0,,5,,,77,127
67998,note_on,1,0,0,,8,,,68,127
68107,note_off,109,0,0,,8,,,68,127
68108,note_on,1,0,0,,3,,,75,127
68217,note_off,109,0,0,,3,,,75,127
68218,note_on,1,0,0,,7,,,67,127
68327,note_off,109,0,0,,7,,,67,127
68327,note_off,0,0,0,,0,,,48,127
68328,note_on,1,0,0,,8,,,56,127
68328,note_on,0,0,0,,2,,,74,127
68437,note_off,109,0,0,,8,,,56,127
68438,note_on,1,0,0,,5,,,65,127
68547,note_off,109,0,0,,5,,,65,127
68547,note_off,0,0,0,,2,,,74,127
68548,note_on,1,0,0,,7,,,55,127
68548,note_on,0,0,0,,0,,,72,127
68657,note_off,109,0,0,,7,,,55,127
68658,note_on,1,0,0,,3,,,63,127
68767,note_off,109,0,0,,3,,,63,127
68767,note_off,0,0,0,,0,,,72,127
68768,note_on,1,0,0,,5,,,53,127
68768,note_on,0,0,0,,12,,,71,127
68877,note_off,109,0,0,,5,,,53,127
68878,note_on,1,0,0,,2,,,62,127
68987,note_off,109,0,0,,2,,,62,127
68987,note_off,0,0,0,,12,,,71,127
68988,note_on,1,0,0,,3,,,51,127
68988,note_on,0,0,0,,0,,,72,127
69097,note_off,109,0,0,,3,,,51,127
69098,note_on,1,0,0,,0,,,60,127
69207,note_off,109,0,0,,0,,,60,127
69207,note_off,0,0,0,,0,,,72,127
69208,note_on,1,0,0,,2,,,50,127
69208,note_on,0,0,0,,2,,,74,127
69317,note_off,109,0,0,,2,,,50,127
69318,note_on,1,0,0,,11,,,58,127
69427,note_off,109,0,0,,11,,,58,127
69427,note_off,0,0,0,,2,,,74,127
69428,note_on,1,0,0,,0,,,48,127
69428,note_on,0,0,0,,3,,,75,127
69537,note_off,109,0,0,,0,,,48,127
69538,note_on,1,0,0,,8,,,56,127
69647,note_off,109,0,0,,8,,,56,127
69647,note_off,0,0,0,,3,,,75,127
69648,note_on,1,0,0,,11,,,46,127
69648,note_on,0,0,0,,2,,,74,127
69757,note_off,109,0,0,,11,,,46,127
69758,note_on,1,0,0,,7,,,55,127
69867,note_off,109,0,0,,7,,,55,127
69867,note_off,0,0,0,,2,,,74,127
69868,note_on,1,0,0,,8,,,44,127
69868,note_on,0,0,0,,0,,,72,127
69977,note_off,109,0,0,,8,,,44,127
69978,note_on,1,0,0,,5,,,53,127
70087,note_off,109,0,0,,5,,,53,127
70087,note_off,0,0,0,,0,,,72,127
70088,note_on,1,0,0,,7,,,55,127
70088,note_on,0,0,0,,7,,,43,127
70088,note_on,0,0,0,,2,,,74,127
70197,note_off,109,0,0,,2,,,74,127
70198,note_on,1,0,0,,7,,,79,127
70307,note_off,109,0,0,,7,,,79,127
70308,note_on,1,0,0,,2,,,74,127
70417,note_off,109,0,0,,2,,,74,127
70418,note_on,1,0,0,,12,,,71,127
70527,note_off,109,0,0,,12,,,71,127
70528,note_on,1,0,0,,7,,,67,127
70637,note_off,109,0,0,,7,,,67,127
70638,note_on,1,0,0,,2,,,62,127
70747,note_off,109,0,0,,2,,,62,127
70747,note_off,0,0,0,,7,,,55,127
70748,note_on,1,0,0,,12,,,59,127
70857,note_off,109,0,0,,12,,,59,127
70858,note_on,1,0,0,,7,,,55,127
70967,note_off,109,0,0,,7,,,55,127
70967,note_off,0,0,0,,7,,,43,127
70986,note_on,19,0,0,,0,,,72,127
70986,note_on,0,0,0,,7,,,67,127
70986,note_on,0,0,0,,7,,,43,127
71040,note_off,54,0,0,,0,,,72,127
71041,note_on,1,0,0,,12,,,71,127
71095,note_off,54,0,0,,12,,,71,127
71096,note_on,1,0,0,,0,,,72,127
71150,note_off,54,0,0,,0,,,72,127
71151,note_on,1,0,0,,12,,,71,127
71205,note_off,54,0,0,,12,,,71,127
71206,note_on,1,0,0,,0,,,72,127
71260,note_off,54,0,0,,0,,,72,127
71261,note_on,1,0,0,,12,,,71,127
71315,note_off,54,0,0,,12,,,71,127
71316,note_on,1,0,0,,10,,,69,127
71370,note_off,54,0,0,,10,,,69,127
71371,note_on,1,0,0,,12,,,71,127
71425,note_off,54,0,0,,12,,,71,127
71425,note_off,0,0,0,,7,,,43,127
71426,note_on,1,0,0,,2,,,74,127
71426,note_on,0,0,0,,7,,,43,127
71480,note_off,54,0,0,,2,,,74,127
71481,note_on,1,0,0,,0,,,72,127
71535,note_off,54,0,0,,0,,,72,127
71536,note_on,1,0,0,,2,,,74,127
71590,note_off,54,0,0,,2,,,74,127
71591,note_on,1,0,0,,0,,,72,127
71645,note_off,54,0,0,,0,,,72,127
71646,note_on,1,0,0,,2,,,74,127
71700,note_off,54,0,0,,2,,,74,127
71701,note_on,1,0,0,,0,,,72,127
71755,note_off,54,0,0,,0,,,72,127
71756,note_on,1,0,0,,12,,,71,127
71810,note_off,54,0,0,,12,,,71,127
71811,note_on,1,0,0,,0,,,72,127
71865,note_off,54,0,0,,0,,,72,127
71865,note_off,0,0,0,,7,,,43,127
71866,note_on,1,0,0,,4,,,76,127
71866,note_on,0,0,0,,7,,,43,127
71920,note_off,54,0,0,,4,,,76,127
71921,note_on,1,0,0,,2,,,74,127
71975,note_off,54,0,0,,2,,,74,127
71976,note_on,1,0,0,,4,,,76,127
72030,note_off,54,0,0,,4,,,76,127
72031,note_on,1,0,0,,2,,,74,127
72085,note_off,54,0,0,,2,,,74,127
72086,note_on,1,0,0,,4,,,76,127
72140,note_off,54,0,0,,4,,,76,127
72141,note_on,1,0,0,,2,,,74,127
72195,note_off,54,0,0,,2,,,74,127
72196,note_on,1,0,0,,0,,,72,127
72250,note_off,54,0,0,,0,,,72,127
72251,note_on,1,0,0,,2,,,74,127
72305,note_off,54,0,0,,2,,,74,127
72305,note_off,0,0,0,,7,,,43,127
72306,note_on,1,0,0,,5,,,77,127
72306,note_on,0,0,0,,7,,,43,127
72360,note_off,54,0,0,,5,,,77,127
72361,note_on,1,0,0,,4,,,76,127
72415,note_off,54,0,0,,4,,,76,127
72416,note_on,1,0,0,,5,,,77,127
72470,note_off,54,0,0,,5,,,77,127
72471,note_on,1,0,0,,4,,,76,127
72525,note_off,54,0,0,,4,,,76,127
72526,note_on,1,0,0,,5,,,77,127
72580,note_off,54,0,0,,5,,,77,127
72581,note_on,1,0,0,,4,,,76,127
72635,note_off,54,0,0,,4,,,76,127
72636,note_on,1,0,0,,2,,,74,127
72690,note_off,54,0,0,,2,,,74,127
72691,note_on,1,0,0,,4,,,76,127
72745,note_off,54,0,0,,4,,,76,127
72745,note_off,0,0,0,,7,,,43,127
72746,note_on,1,0,0,,7,,,79,127
72746,note_on,0,0,0,,7,,,43,127
72800,note_off,54,0,0,,7,,,79,127
72801,note_on,1,0,0,,5,,,77,127
72855,note_off,54,0,0,,5,,,77,127
72856,note_on,1,0,0,,7,,,79,127
72910,note_off,54,0,0,,7,,,79,127
72911,note_on,1,0,0,,5,,,77,127
72965,note_off,54,0,0,,5,,,77,127
72966,note_on,1,0,0,,7,,,79,127
73020,note_off,54,0,0,,7,,,79,127
73021,note_on,1,0,0,,5,,,77,127
73075,note_off,54,0,0,,5,,,77,127
73076,note_on,1,0,0,,4,,,76,127
73130,note_off,54,0,0,,4,,,76,127
73131,note_on,1,0,0,,5,,,77,127
73185,note_off,54,0,0,,5,,,77,127
73185,note_off,0,0,0,,7,,,43,127
73186,note_on,1,0,0,,7,,,79,127
73186,note_on,0,0,0,,7,,,43,127
73240,note_off,54,0,0,,7,,,79,127
73241,note_on,1,0,0,,6,,,78,127
73295,note_off,54,0,0,,6,,,78,127
73296,note_on,1,0,0,,7,,,79,127
73350,note_off,54,0,0,,7,,,79,127
73351,note_on,1,0,0,,6,,,78,127
73405,note_off,54,0,0,,6,,,78,127
73406,note_on,1,0,0,,7,,,79,127
73460,note_off,54,0,0,,7,,,79,127
73461,note_on,1,0,0,,6,,,78,127
73515,note_off,54,0,0,,6,,,78,127
73516,note_on,1,0,0,,4,,,76,127
73570,note_off,54,0,0,,4,,,76,127
73571,note_on,1,0,0,,6,,,78,127
73619,note_off,48,0,0,,7,,,67,127
73625,note_off,6,0,0,,6,,,78,127
73625,note_off,0,0,0,,7,,,43,127
73626,note_on,1,0,0,,7,,,67,127
73626,note_on,0,0,0,,7,,,79,127
73626,note_on,0,0,0,,7,,,55,127
73626,note_on,0,0,0,,0,,,60,127
73680,note_off,54,0,0,,0,,,60,127
73681,note_on,1,0,0,,12,,,59,127
73735,note_off,54,0,0,,12,,,59,127
73736,note_on,1,0,0,,0,,,60,127
73790,note_off,54,0,0,,0,,,60,127
73791,note_on,1,0,0,,12,,,59,127
73845,note_off,54,0,0,,12,,,59,127
73846,note_on,1,0,0,,0,,,60,127
73900,note_off,54,0,0,,0,,,60,127
73901,note_on,1,0,0,,12,,,59,127
73955,note_off,54,0,0,,12,,,59,127
73956,note_on,1,0,0,,10,,,57,127
74010,note_off,54,0,0,,10,,,57,127
74011,note_on,1,0,0,,12,,,59,127
74065,note_off,54,0,0,,12,,,59,127
74065,note_off,0,0,0,,7,,,79,127
74065,note_off,0,0,0,,7,,,67,127
74066,note_on,1,0,0,,5,,,77,127
74066,note_on,0,0,0,,2,,,62,127
74120,note_off,54,0,0,,2,,,62,127
74120,note_off,0,0,0,,5,,,77,127
74121,note_on,1,0,0,,4,,,76,127
74121,note_on,0,0,0,,0,,,60,127
74175,note_off,54,0,0,,0,,,60,127
74175,note_off,0,0,0,,4,,,76,127
74176,note_on,1,0,0,,5,,,77,127
74176,note_on,0,0,0,,2,,,62,127
74230,note_off,54,0,0,,2,,,62,127
74230,note_off,0,0,0,,5,,,77,127
74231,note_on,1,0,0,,4,,,76,127
74231,note_on,0,0,0,,0,,,60,127
74285,note_off,54,0,0,,0,,,60,127
74285,note_off,0,0,0,,4,,,76,127
74286,note_on,1,0,0,,5,,,77,127
74286,note_on,0,0,0,,2,,,62,127
74340,note_off,54,0,0,,2,,,62,127
74340,note_off,0,0,0,,5,,,77,127
74341,note_on,1,0,0,,4,,,76,127
74341,note_on,0,0,0,,0,,,60,127
74395,note_off,54,0,0,,0,,,60,127
74395,note_off,0,0,0,,4,,,76,127
74396,note_on,1,0,0,,2,,,74,127
74396,note_on,0,0,0,,12,,,59,127
74450,note_off,54,0,0,,12,,,59,127
74450,note_off,0,0,0,,2,,,74,127
74451,note_on,1,0,0,,4,,,76,127
74451,note_on,0,0,0,,0,,,60,127
74505,note_off,54,0,0,,0,,,60,127
74505,note_off,0,0,0,,4,,,76,127
74506,note_on,1,0,0,,7,,,79,127
74506,note_on,0,0,0,,4,,,64,127
74560,note_off,54,0,0,,4,,,64,127
74560,note_off,0,0,0,,7,,,79,127
74561,note_on,1,0,0,,5,,,77,127
74561,note_on,0,0,0,,2,,,62,127
74615,note_off,54,0,0,,2,,,62,127
74615,note_off,0,0,0,,5,,,77,127
74616,note_on,1,0,0,,7,,,79,127
74616,note_on,0,0,0,,4,,,64,127
74670,note_off,54,0,0,,4,,,64,127
74670,note_off,0,0,0,,7,,,79,127
74671,note_on,1,0,0,,5,,,77,127
74671,note_on,0,0,0,,2,,,62,127
74725,note_off,54,0,0,,2,,,62,127
74725,note_off,0,0,0,,5,,,77,127
74726,note_on,1,0,0,,7,,,79,127
74726,note_on,0,0,0,,4,,,64,127
74780,note_off,54,0,0,,4,,,64,127
74780,note_off,0,0,0,,7,,,79,127
74781,note_on,1,0,0,,5,,,77,127
74781,note_on,0,0,0,,2,,,62,127
74835,note_off,54,0,0,,2,,,62,127
74835,note_off,0,0,0,,5,,,77,127
74836,note_on,1,0,0,,4,,,76,127
74836,note_on,0,0,0,,0,,,60,127
74890,note_off,54,0,0,,0,,,60,127
74890,note_off,0,0,0,,4,,,76,127
74891,note_on,1,0,0,,5,,,77,127
74891,note_on,0,0,0,,2,,,62,127
74945,note_off,54,0,0,,2,,,62,127
74945,note_off,0,0,0,,5,,,77,127
74946,note_on,1,0,0,,10,,,81,127
74946,note_on,0,0,0,,5,,,65,127
75000,note_off,54,0,0,,5,,,65,127
75000,note_off,0,0,0,,10,,,81,127
75001,note_on,1,0,0,,7,,,79,127
75001,note_on,0,0,0,,4,,,64,127
75055,note_off,54,0,0,,4,,,64,127
75055,note_off,0,0,0,,7,,,79,127
75056,note_on,1,0,0,,10,,,81,127
75056,note_on,0,0,0,,5,,,65,127
75110,note_off,54,0,0,,5,,,65,127
75110,note_off,0,0,0,,10,,,81,127
75111,note_on,1,0,0,,7,,,79,127
75111,note_on,0,0,0,,4,,,64,127
75165,note_off,54,0,0,,4,,,64,127
75165,note_off,0,0,0,,7,,,79,127
75166,note_on,1,0,0,,10,,,81,127
75166,note_on,0,0,0,,5,,,65,127
75220,note_off,54,0,0,,5,,,65,127
75220,note_off,0,0,0,,10,,,81,127
75221,note_on,1,0,0,,7,,,79,127
75221,note_on,0,0,0,,4,,,64,127
75275,note_off,54,0,0,,4,,,64,127
75275,note_off,0,0,0,,7,,,79,127
75276,note_on,1,0,0,,6,,,78,127
75276,note_on,0,0,0,,2,,,62,127
75330,note_off,54,0,0,,2,,,62,127
75330,note_off,0,0,0,,6,,,78,127
75331,note_on,1,0,0,,7,,,79,127
75331,note_on,0,0,0,,4,,,64,127
75385,note_off,54,0,0,,4,,,64,127
75385,note_off,0,0,0,,7,,,79,127
75386,note_on,1,0,0,,12,,,83,127
75386,note_on,0,0,0,,5,,,65,127
75440,note_off,54,0,0,,12,,,83,127
75441,note_on,1,0,0,,10,,,81,127
75495,note_off,54,0,0,,10,,,81,127
75496,note_on,1,0,0,,12,,,83,127
75550,note_off,54,0,0,,12,,,83,127
75551,note_on,1,0,0,,10,,,81,127
75605,note_off,54,0,0,,10,,,81,127
75606,note_on,1,0,0,,12,,,83,127
75660,note_off,54,0,0,,12,,,83,127
75661,note_on,1,0,0,,10,,,81,127
75715,note_off,54,0,0,,10,,,81,127
75716,note_on,1,0,0,,8,,,80,127
75770,note_off,54,0,0,,8,,,80,127
75771,note_on,1,0,0,,10,,,81,127
75825,note_off,54,0,0,,10,,,81,127
75825,note_off,0,0,0,,5,,,65,127
75826,note_on,1,0,0,,2,,,74,127
75826,note_on,0,0,0,,6,,,66,127
75880,note_off,54,0,0,,2,,,74,127
75881,note_on,1,0,0,,0,,,72,127
75935,note_off,54,0,0,,0,,,72,127
75936,note_on,1,0,0,,2,,,74,127
75990,note_off,54,0,0,,2,,,74,127
75991,note_on,1,0,0,,0,,,72,127
76045,note_off,54,0,0,,0,,,72,127
76046,note_on,1,0,0,,2,,,74,127
76100,note_off,54,0,0,,2,,,74,127
76101,note_on,1,0,0,,0,,,72,127
76155,note_off,54,0,0,,0,,,72,127
76156,note_on,1,0,0,,12,,,71,127
76210,note_off,54,0,0,,12,,,71,127
76211,note_on,1,0,0,,0,,,72,127
76259,note_off,48,0,0,,7,,,55,127
76265,note_off,6,0,0,,0,,,72,127
76265,note_off,0,0,0,,6,,,66,127
76266,note_on,1,0,0,,12,,,71,127
76266,note_on,0,0,0,,7,,,67,127
76375,note_off,109,0,0,,7,,,67,127
76376,note_on,1,0,0,,2,,,62,127
76485,note_off,109,0,0,,2,,,62,127
76486,note_on,1,0,0,,12,,,59,127
76595,note_off,109,0,0,,12,,,59,127
76596,note_on,1,0,0,,7,,,55,127
76705,note_off,109,0,0,,7,,,55,127
76706,note_on,1,0,0,,2,,,50,127
76815,note_off,109,0,0,,2,,,50,127
76816,note_on,1,0,0,,12,,,47,127
76925,note_off,109,0,0,,12,,,47,127
76926,note_on,1,0,0,,7,,,43,127
77035,note_off,109,0,0,,7,,,43,127
77036,note_on,1,0,0,,2,,,38,127
77145,note_off,109,0,0,,2,,,38,127
77145,note_off,0,0,0,,12,,,71,127
77146,note_on,1,0,0,,7,,,31,127
77384,note_on,238,0,0,,2,,,86,127
77602,note_off,218,0,0,,2,,,86,127
77603,note_on,1,0,0,,7,,,79,127
77675,note_off,72,0,0,,7,,,79,127
77676,note_on,1,0,0,,5,,,77,127
77694,note_off,18,0,0,,7,,,31,127
77748,note_off,54,0,0,,5,,,77,127
77749,note_on,1,0,0,,7,,,79,127
77821,note_off,72,0,0,,7,,,79,127
77822,note_on,1,0,0,,12,,,47,127
77822,note_on,0,0,0,,5,,,77,127
77894,note_off,72,0,0,,5,,,77,127
77895,note_on,1,0,0,,4,,,76,127
77967,note_off,72,0,0,,4,,,76,127
77968,note_on,1,0,0,,2,,,74,127
78040,note_off,72,0,0,,2,,,74,127
78040,note_off,0,0,0,,12,,,47,127
78041,note_on,1,0,0,,0,,,36,127
78041,note_on,0,0,0,,0,,,48,127
78041,note_on,0,0,0,,4,,,76,127
78113,note_off,72,0,0,,4,,,76,127
78114,note_on,1,0,0,,5,,,77,127
78186,note_off,72,0,0,,5,,,77,127
78187,note_on,1,0,0,,7,,,79,127
78259,note_off,72,0,0,,7,,,79,127
78259,note_off,0,0,0,,0,,,48,127
78259,note_off,0,0,0,,0,,,36,127
78260,note_on,1,0,0,,5,,,41,127
78260,note_on,0,0,0,,5,,,77,127
78332,note_off,72,0,0,,5,,,77,127
78333,note_on,1,0,0,,4,,,76,127
78405,note_off,72,0,0,,4,,,76,127
78406,note_on,1,0,0,,2,,,74,127
78478,note_off,72,0,0,,2,,,74,127
78478,note_off,0,0,0,,5,,,41,127
78479,note_on,1,0,0,,7,,,43,127
78479,note_on,0,0,0,,4,,,76,127
78479,note_on,0,0,0,,0,,,72,127
78697,note_off,218,0,0,,0,,,72,127
78697,note_off,0,0,0,,4,,,76,127
78697,note_off,0,0,0,,7,,,43,127
78698,note_on,1,0,0,,7,,,43,127
78698,note_on,0,0,0,,4,,,76,127
78698,note_on,0,0,0,,12,,,71,127
78752,note_off,54,0,0,,4,,,76,127
78753,note_on,1,0,0,,2,,,74,127
78807,note_off,54,0,0,,2,,,74,127
78808,note_on,1,0,0,,4,,,76,127
78862,note_off,54,0,0,,4,,,76,127
78863,note_off,1,0,0,,12,,,71,127
78863,note_on,0,0,0,,2,,,74,127
78917,note_off,54,0,0,,2,,,74,127
78917,note_off,0,0,0,,7,,,43,127
78918,note_on,1,0,0,,0,,,36,127
78918,note_on,0,0,0,,0,,,72,127
79027,note_off,109,0,0,,0,,,72,127
79028,note_on,1,0,0,,0,,,84,127
79137,note_off,109,0,0,,0,,,84,127
79138,note_on,1,0,0,,7,,,79,127
79247,note_off,109,0,0,,7,,,79,127
79248,note_on,1,0,0,,4,,,76,127
79357,note_off,109,0,0,,4,,,76,127
79358,note_on,1,0,0,,0,,,72,127
79467,note_off,109,0,0,,0,,,72,127
79468,note_on,1,0,0,,7,,,67,127
79577,note_off,109,0,0,,7,,,67,127
79578,note_on,1,0,0,,4,,,64,127
79687,note_off,109,0,0,,4,,,64,127
79688,note_on,1,0,0,,0,,,60,127
79797,note_off,109,0,0,,0,,,60,127
79797,note_off,0,0,0,,0,,,36,127
79826,note_on,29,0,0,,0,,,72,127
79826,note_on,0,0,0,,7,,,67,127
79826,note_on,0,0,0,,7,,,43,127
79880,note_off,54,0,0,,0,,,72,127
79881,note_on,1,0,0,,12,,,71,127
79935,note_off,54,0,0,,12,,,71,127
79936,note_on,1,0,0,,0,,,72,127
79990,note_off,54,0,0,,0,,,72,127
79991,note_on,1,0,0,,12,,,71,127
80045,note_off,54,0,0,,12,,,71,127
80046,note_on,1,0,0,,0,,,72,127
80100,note_off,54,0,0,,0,,,72,127
80101,note_on,1,0,0,,12,,,71,127
80155,note_off,54,0,0,,12,,,71,127
80156,note_on,1,0,0,,10,,,69,127
80210,note_off,54,0,0,,10,,,69,127
80211,note_on,1,0,0,,12,,,71,127
80265,note_off,54,0,0,,12,,,71,127
80265,note_off,0,0,0,,7,,,43,127
80266,note_on,1,0,0,,2,,,74,127
80266,note_on,0,0,0,,7,,,43,127
80320,note_off,54,0,0,,2,,,74,127
80321,note_on,1,0,0,,0,,,72,127
80375,note_off,54,0,0,,0,,,72,127
80376,note_on,1,0,0,,2,,,74,127
80430,note_off,54,0,0,,2,,,74,127
80431,note_on,1,0,0,,0,,,72,127
80485,note_off,54,0,0,,0,,,72,127
80486,note_on,1,0,0,,2,,,74,127
80540,note_off,54,0,0,,2,,,74,127
80541,note_on,1,0,0,,0,,,72,127
80595,note_off,54,0,0,,0,,,72,127
80596,note_on,1,0,0,,12,,,71,127
80650,note_off,54,0,0,,12,,,71,127
80651,note_on,1,0,0,,0,,,72,127
80705,note_off,54,0,0,,0,,,72,127
80705,note_off,0,0,0,,7,,,43,127
80706,note_on,1,0,0,,4,,,76,127
80706,note_on,0,0,0,,7,,,43,127
80760,note_off,54,0,0,,4,,,76,127
80761,note_on,1,0,0,,2,,,74,127
80815,note_off,54,0,0,,2,,,74,127
80816,note_on,1,0,0,,4,,,76,127
80870,note_off,54,0,0,,4,,,76,127
80871,note_on,1,0,0,,2,,,74,127
80925,note_off,54,0,0,,2,,,74,127
80926,note_on,1,0,0,,4,,,76,127
80980,note_off,54,0,0,,4,,,76,127
80981,note_on,1,0,0,,2,,,74,127
81035,note_off,54,0,0,,2,,,74,127
81036,note_on,1,0,0,,1,,,73,127
81090,note_off,54,0,0,,1,,,73,127
81091,note_on,1,0,0,,2,,,74,127
81145,note_off,54,0,0,,2,,,74,127
81145,note_off,0,0,0,,7,,,43,127
81146,note_on,1,0,0,,5,,,77,127
81146,note_on,0,0,0,,7,,,43,127
81200,note_off,54,0,0,,5,,,77,127
81201,note_on,1,0,0,,4,,,76,127
81255,note_off,54,0,0,,4,,,76,127
81256,note_on,1,0,0,,5,,,77,127
81310,note_off,54,0,0,,5,,,77,127
81311,note_on,1,0,0,,4,,,76,127
81365,note_off,54,0,0,,4,,,76,127
81366,note_on,1,0,0,,5,,,77,127
81420,note_off,54,0,0,,5,,,77,127
81421,note_on,1,0,0,,4,,,76,127
81475,note_off,54,0,0,,4,,,76,127
81476,note_on,1,0,0,,2,,,74,127
81530,note_off,54,0,0,,2,,,74,127
81531,note_on,1,0,0,,4,,,76,127
81585,note_off,54,0,0,,4,,,76,127
81585,note_off,0,0,0,,7,,,43,127
81586,note_on,1,0,0,,7,,,79,127
81586,note_on,0,0,0,,7,,,43,127
81640,note_off,54,0,0,,7,,,79,127
81641,note_on,1,0,0,,5,,,77,127
81695,note_off,54,0,0,,5,,,77,127
81696,note_on,1,0,0,,7,,,79,127
81750,note_off,54,0,0,,7,,,79,127
81751,note_on,1,0,0,,5,,,77,127
81805,note_off,54,0,0,,5,,,77,127
81806,note_on,1,0,0,,7,,,79,127
81860,note_off,54,0,0,,7,,,79,127
81861,note_on,1,0,0,,5,,,77,127
81915,note_off,54,0,0,,5,,,77,127
81916,note_on,1,0,0,,4,,,76,127
81970,note_off,54,0,0,,4,,,76,127
81971,note_on,1,0,0,,5,,,77,127
82025,note_off,54,0,0,,5,,,77,127
82025,note_off,0,0,0,,7,,,43,127
82026,note_on,1,0,0,,7,,,79,127
82026,note_on,0,0,0,,7,,,43,127
82080,note_off,54,0,0,,7,,,79,127
82081,note_on,1,0,0,,6,,,78,127
82135,note_off,54,0,0,,6,,,78,127
82136,note_on,1,0,0,,7,,,79,127
82190,note_off,54,0,0,,7,,,79,127
82191,note_on,1,0,0,,6,,,78,127
82245,note_off,54,0,0,,6,,,78,127
82246,note_on,1,0,0,,7,,,79,127
82300,note_off,54,0,0,,7,,,79,127
82301,note_on,1,0,0,,6,,,78,127
82355,note_off,54,0,0,,6,,,78,127
82356,note_on,1,0,0,,4,,,76,127
82410,note_off,54,0,0,,4,,,76,127
82411,note_on,1,0,0,,6,,,78,127
82459,note_off,48,0,0,,7,,,67,127
82465,note_off,6,0,0,,6,,,78,127
82465,note_off,0,0,0,,7,,,43,127
82466,note_on,1,0,0,,7,,,79,127
82466,note_on,0,0,0,,7,,,67,127
82466,note_on,0,0,0,,0,,,60,127
82466,note_on,0,0,0,,7,,,55,127
82520,note_off,54,0,0,,0,,,60,127
82521,note_on,1,0,0,,12,,,59,127
82575,note_off,54,0,0,,12,,,59,127
82576,note_on,1,0,0,,0,,,60,127
82630,note_off,54,0,0,,0,,,60,127
82631,note_on,1,0,0,,12,,,59,127
82685,note_off,54,0,0,,12,,,59,127
82686,note_on,1,0,0,,0,,,60,127
82740,note_off,54,0,0,,0,,,60,127
82741,note_on,1,0,0,,12,,,59,127
82795,note_off,54,0,0,,12,,,59,127
82796,note_on,1,0,0,,10,,,57,127
82850,note_off,54,0,0,,10,,,57,127
82851,note_on,1,0,0,,12,,,59,127
82905,note_off,54,0,0,,12,,,59,127
82905,note_off,0,0,0,,7,,,67,127
82905,note_off,0,0,0,,7,,,79,127
82906,note_on,1,0,0,,5,,,77,127
82906,note_on,0,0,0,,2,,,62,127
82960,note_off,54,0,0,,2,,,62,127
82960,note_off,0,0,0,,5,,,77,127
82961,note_on,1,0,0,,4,,,76,127
82961,note_on,0,0,0,,0,,,60,127
83015,note_off,54,0,0,,0,,,60,127
83015,note_off,0,0,0,,4,,,76,127
83016,note_on,1,0,0,,5,,,77,127
83016,note_on,0,0,0,,2,,,62,127
83070,note_off,54,0,0,,2,,,62,127
83070,note_off,0,0,0,,5,,,77,127
83071,note_on,1,0,0,,4,,,76,127
83071,note_on,0,0,0,,0,,,60,127
83125,note_off,54,0,0,,0,,,60,127
83125,note_off,0,0,0,,4,,,76,127
83126,note_on,1,0,0,,5,,,77,127
83126,note_on,0,0,0,,2,,,62,127
83180,note_off,54,0,0,,2,,,62,127
83180,note_off,0,0,0,,5,,,77,127
83181,note_on,1,0,0,,4,,,76,127
83181,note_on,0,0,0,,0,,,60,127
83235,note_off,54,0,0,,0,,,60,127
83235,note_off,0,0,0,,4,,,76,127
83236,note_on,1,0,0,,2,,,74,127
83236,note_on,0,0,0,,12,,,59,127
83290,note_off,54,0,0,,12,,,59,127
83290,note_off,0,0,0,,2,,,74,127
83291,note_on,1,0,0,,4,,,76,127
83291,note_on,0,0,0,,0,,,60,127
83345,note_off,54,0,0,,0,,,60,127
83345,note_off,0,0,0,,4,,,76,127
83346,note_on,1,0,0,,7,,,79,127
83346,note_on,0,0,0,,4,,,64,127
83400,note_off,54,0,0,,4,,,64,127
83400,note_off,0,0,0,,7,,,79,127
83401,note_on,1,0,0,,5,,,77,127
83401,note_on,0,0,0,,2,,,62,127
83455,note_off,54,0,0,,2,,,62,127
83455,note_off,0,0,0,,5,,,77,127
83456,note_on,1,0,0,,7,,,79,127
83456,note_on,0,0,0,,4,,,64,127
83510,note_off,54,0,0,,4,,,64,127
83510,note_off,0,0,0,,7,,,79,127
83511,note_on,1,0,0,,5,,,77,127
83511,note_on,0,0,0,,2,,,62,127
83565,note_off,54,0,0,,2,,,62,127
83565,note_off,0,0,0,,5,,,77,127
83566,note_on,1,0,0,,7,,,79,127
83566,note_on,0,0,0,,4,,,64,127
83620,note_off,54,0,0,,4,,,64,127
83620,note_off,0,0,0,,7,,,79,127
83621,note_on,1,0,0,,5,,,77,127
83621,note_on,0,0,0,,2,,,62,127
83675,note_off,54,0,0,,2,,,62,127
83675,note_off,0,0,0,,5,,,77,127
83676,note_on,1,0,0,,4,,,76,127
83676,note_on,0,0,0,,1,,,61,127
83730,note_off,54,0,0,,1,,,61,127
83730,note_off,0,0,0,,4,,,76,127
83731,note_on,1,0,0,,5,,,77,127
83731,note_on,0,0,0,,2,,,62,127
83785,note_off,54,0,0,,2,,,62,127
83785,note_off,0,0,0,,5,,,77,127
83786,note_on,1,0,0,,10,,,81,127
83786,note_on,0,0,0,,5,,,65,127
83840,note_off,54,0,0,,5,,,65,127
83840,note_off,0,0,0,,10,,,81,127
83841,note_on,1,0,0,,7,,,79,127
83841,note_on,0,0,0,,4,,,64,127
83895,note_off,54,0,0,,4,,,64,127
83895,note_off,0,0,0,,7,,,79,127
83896,note_on,1,0,0,,10,,,81,127
83896,note_on,0,0,0,,5,,,65,127
83950,note_off,54,0,0,,5,,,65,127
83950,note_off,0,0,0,,10,,,81,127
83951,note_on,1,0,0,,7,,,79,127
83951,note_on,0,0,0,,4,,,64,127
84005,note_off,54,0,0,,4,,,64,127
84005,note_off,0,0,0,,7,,,79,127
84006,note_on,1,0,0,,10,,,81,127
84006,note_on,0,0,0,,5,,,65,127
84060,note_off,54,0,0,,5,,,65,127
84060,note_off,0,0,0,,10,,,81,127
84061,note_on,1,0,0,,7,,,79,127
84061,note_on,0,0,0,,4,,,64,127
84115,note_off,54,0,0,,4,,,64,127
84115,note_off,0,0,0,,7,,,79,127
84116,note_on,1,0,0,,6,,,78,127
84116,note_on,0,0,0,,2,,,62,127
84170,note_off,54,0,0,,2,,,62,127
84170,note_off,0,0,0,,6,,,78,127
84171,note_on,1,0,0,,7,,,79,127
84171,note_on,0,0,0,,4,,,64,127
84225,note_off,54,0,0,,4,,,64,127
84225,note_off,0,0,0,,7,,,79,127
84226,note_on,1,0,0,,12,,,83,127
84226,note_on,0,0,0,,5,,,65,127
84280,note_off,54,0,0,,12,,,83,127
84281,note_on,1,0,0,,10,,,81,127
84335,note_off,54,0,0,,10,,,81,127
84336,note_on,1,0,0,,12,,,83,127
84390,note_off,54,0,0,,12,,,83,127
84391,note_on,1,0,0,,10,,,81,127
84445,note_off,54,0,0,,10,,,81,127
84446,note_on,1,0,0,,12,,,83,127
84500,note_off,54,0,0,,12,,,83,127
84501,note_on,1,0,0,,10,,,81,127
84555,note_off,54,0,0,,10,,,81,127
84556,note_on,1,0,0,,8,,,80,127
84610,note_off,54,0,0,,8,,,80,127
84611,note_on,1,0,0,,10,,,81,127
84665,note_off,54,0,0,,10,,,81,127
84665,note_off,0,0,0,,5,,,65,127
84666,note_on,1,0,0,,2,,,74,127
84666,note_on,0,0,0,,6,,,66,127
84720,note_off,54,0,0,,2,,,74,127
84721,note_on,1,0,0,,0,,,72,127
84775,note_off,54,0,0,,0,,,72,127
84776,note_on,1,0,0,,2,,,74,127
84830,note_off,54,0,0,,2,,,74,127
84831,note_on,1,0,0,,0,,,72,127
84885,note_off,54,0,0,,0,,,72,127
84886,note_on,1,0,0,,2,,,74,127
84940,note_off,54,0,0,,2,,,74,127
84941,note_on,1,0,0,,0,,,72,127
84995,note_off,54,0,0,,0,,,72,127
84996,note_on,1,0,0,,12,,,71,127
85050,note_off,54,0,0,,12,,,71,127
85051,note_on,1,0,0,,0,,,72,127
85099,note_off,48,0,0,,7,,,55,127
85105,note_off,6,0,0,,0,,,72,127
85105,note_off,0,0,0,,6,,,66,127
85106,note_on,1,0,0,,12,,,71,127
85106,note_on,0,0,0,,7,,,67,127
85215,note_off,109,0,0,,7,,,67,127
85216,note_on,1,0,0,,2,,,62,127
85325,note_off,109,0,0,,2,,,62,127
85326,note_on,1,0,0,,12,,,59,127
85435,note_off,109,0,0,,12,,,59,127
85436,note_on,1,0,0,,7,,,55,127
85545,note_off,109,0,0,,7,,,55,127
85546,note_on,1,0,0,,2,,,50,127
85655,note_off,109,0,0,,2,,,50,127
85656,note_on,1,0,0,,12,,,47,127
85765,note_off,109,0,0,,12,,,47,127
85766,note_on,1,0,0,,7,,,43,127
85875,note_off,109,0,0,,7,,,43,127
85876,note_on,1,0,0,,2,,,38,127
85985,note_off,109,0,0,,2,,,38,127
85986,note_on,1,0,0,,7,,,31,127
86204,note_off,218,0,0,,12,,,71,127
86242,note_on,38,0,0,,2,,,86,127
86460,note_off,218,0,0,,2,,,86,127
86461,note_on,1,0,0,,7,,,79,127
86533,note_off,72,0,0,,7,,,79,127
86534,note_off,1,0,0,,7,,,31,127
86534,note_on,0,0,0,,5,,,77,127
86606,note_off,72,0,0,,5,,,77,127
86607,note_on,1,0,0,,7,,,79,127
86679,note_off,72,0,0,,7,,,79,127
86680,note_on,1,0,0,,5,,,77,127
86680,note_on,0,0,0,,12,,,35,127
86680,note_on,0,0,0,,12,,,47,127
86752,note_off,72,0,0,,5,,,77,127
86753,note_on,1,0,0,,4,,,76,127
86825,note_off,72,0,0,,4,,,76,127
86826,note_on,1,0,0,,2,,,74,127
86898,note_off,72,0,0,,2,,,74,127
86898,note_off,0,0,0,,12,,,47,127
86898,note_off,0,0,0,,12,,,35,127
86899,note_on,1,0,0,,4,,,76,127
86899,note_on,0,0,0,,0,,,36,127
86899,note_on,0,0,0,,0,,,48,127
86971,note_off,72,0,0,,4,,,76,127
86972,note_on,1,0,0,,5,,,77,127
87044,note_off,72,0,0,,5,,,77,127
87045,note_on,1,0,0,,7,,,79,127
87117,note_off,72,0,0,,7,,,79,127
87117,note_off,0,0,0,,0,,,48,127
87117,note_off,0,0,0,,0,,,36,127
87118,note_on,1,0,0,,5,,,77,127
87118,note_on,0,0,0,,5,,,53,127
87190,note_off,72,0,0,,5,,,77,127
87191,note_on,1,0,0,,4,,,76,127
87263,note_off,72,0,0,,4,,,76,127
87264,note_on,1,0,0,,2,,,74,127
87336,note_off,72,0,0,,2,,,74,127
87336,note_off,0,0,0,,5,,,53,127
87337,note_on,1,0,0,,4,,,76,127
87337,note_on,0,0,0,,0,,,72,127
87337,note_on,0,0,0,,7,,,55,127
87555,note_off,218,0,0,,7,,,55,127
87555,note_off,0,0,0,,0,,,72,127
87555,note_off,0,0,0,,4,,,76,127
87556,note_on,1,0,0,,12,,,71,127
87556,note_on,0,0,0,,4,,,76,127
87556,note_on,0,0,0,,7,,,43,127
87610,note_off,54,0,0,,4,,,76,127
87611,note_on,1,0,0,,2,,,74,127
87665,note_off,54,0,0,,2,,,74,127
87666,note_on,1,0,0,,4,,,76,127
87720,note_off,54,0,0,,4,,,76,127
87721,note_off,1,0,0,,12,,,71,127
87721,note_on,0,0,0,,2,,,74,127
87775,note_off,54,0,0,,2,,,74,127
87775,note_off,0,0,0,,7,,,43,127
87776,note_on,1,0,0,,0,,,72,127
87776,note_on,0,0,0,,0,,,48,127
87994,note_off,218,0,0,,0,,,72,127
88013,note_on,19,0,0,,7,,,91,127
88085,note_off,72,0,0,,7,,,91,127
88086,note_on,1,0,0,,4,,,88,127
88158,note_off,72,0,0,,4,,,88,127
88159,note_on,1,0,0,,7,,,91,127
88213,note_off,54,0,0,,0,,,48,127
88231,note_off,18,0,0,,7,,,91,127
88232,note_on,1,0,0,,7,,,55,127
88232,note_on,0,0,0,,7,,,43,127
88232,note_on,0,0,0,,5,,,89,127
88450,note_off,218,0,0,,5,,,89,127
88451,note_on,1,0,0,,2,,,86,127
88523,note_off,72,0,0,,2,,,86,127
88524,note_on,1,0,0,,12,,,83,127
88596,note_off,72,0,0,,12,,,83,127
88597,note_on,1,0,0,,2,,,86,127
88669,note_off,72,0,0,,2,,,86,127
88669,note_off,0,0,0,,7,,,43,127
88669,note_off,0,0,0,,7,,,55,127
88670,note_on,1,0,0,,0,,,48,127
88670,note_on,0,0,0,,0,,,84,127
88888,note_off,218,0,0,,0,,,84,127
88889,note_on,1,0,0,,7,,,79,127
88961,note_off,72,0,0,,7,,,79,127
88962,note_on,1,0,0,,4,,,76,127
89034,note_off,72,0,0,,4,,,76,127
89035,note_on,1,0,0,,7,,,79,127
89107,note_off,72,0,0,,7,,,79,127
89107,note_off,0,0,0,,0,,,48,127
89108,note_on,1,0,0,,7,,,43,127
89108,note_on,0,0,0,,7,,,55,127
89108,note_on,0,0,0,,5,,,77,127
89326,note_off,218,0,0,,5,,,77,127
89327,note_on,1,0,0,,2,,,74,127
89399,note_off,72,0,0,,2,,,74,127
89400,note_on,1,0,0,,12,,,71,127
89472,note_off,72,0,0,,12,,,71,127
89473,note_on,1,0,0,,2,,,74,127
89545,note_off,72,0,0,,2,,,74,127
89545,note_off,0,0,0,,7,,,55,127
89545,note_off,0,0,0,,7,,,43,127
89546,note_on,1,0,0,,0,,,48,127
89546,note_on,0,0,0,,0,,,72,127
89764,note_off,218,0,0,,0,,,72,127
89765,note_on,1,0,0,,7,,,67,127
89837,note_off,72,0,0,,7,,,67,127
89838,note_on,1,0,0,,4,,,64,127
89910,note_off,72,0,0,,4,,,64,127
89911,note_on,1,0,0,,7,,,67,127
89983,note_off,72,0,0,,7,,,67,127
89983,note_off,0,0,0,,0,,,48,127
89984,note_on,1,0,0,,7,,,43,127
89984,note_on,0,0,0,,7,,,55,127
89984,note_on,0,0,0,,5,,,65,127
90202,note_off,218,0,0,,5,,,65,127
90203,note_on,1,0,0,,2,,,62,127
90275,note_off,72,0,0,,2,,,62,127
90276,note_on,1,0,0,,12,,,59,127
90348,note_off,72,0,0,,12,,,59,127
90349,note_on,1,0,0,,2,,,62,127
90421,note_off,72,0,0,,2,,,62,127
90421,note_off,0,0,0,,7,,,55,127
90421,note_off,0,0,0,,7,,,43,127
90422,note_on,1,0,0,,0,,,48,127
90422,note_on,0,0,0,,0,,,60,127
90476,note_off,54,0,0,,0,,,60,127
90477,note_on,1,0,0,,2,,,62,127
90531,note_off,54,0,0,,2,,,62,127
90532,note_on,1,0,0,,4,,,64,127
90586,note_off,54,0,0,,4,,,64,127
90587,note_on,1,0,0,,5,,,65,127
90641,note_off,54,0,0,,5,,,65,127
90641,note_off,0,0,0,,0,,,48,127
90642,note_on,1,0,0,,5,,,53,127
90642,note_on,0,0,0,,7,,,67,127
90696,note_off,54,0,0,,7,,,67,127
90697,note_on,1,0,0,,10,,,69,127
90751,note_off,54,0,0,,10,,,69,127
90752,note_on,1,0,0,,12,,,71,127
90806,note_off,54,0,0,,12,,,71,127
90807,note_on,1,0,0,,0,,,72,127
90861,note_off,54,0,0,,0,,,72,127
90861,note_off,0,0,0,,5,,,53,127
90862,note_on,1,0,0,,7,,,55,127
90862,note_on,0,0,0,,4,,,76,127
90916,note_off,54,0,0,,4,,,76,127
90917,note_on,1,0,0,,2,,,74,127
90971,note_off,54,0,0,,2,,,74,127
90972,note_on,1,0,0,,4,,,76,127
91026,note_off,54,0,0,,4,,,76,127
91027,note_on,1,0,0,,2,,,74,127
91081,note_off,54,0,0,,2,,,74,127
91081,note_off,0,0,0,,7,,,55,127
91082,note_on,1,0,0,,7,,,43,127
91082,note_on,0,0,0,,4,,,76,127
91136,note_off,54,0,0,,4,,,76,127
91137,note_on,1,0,0,,2,,,74,127
91191,note_off,54,0,0,,2,,,74,127
91192,note_on,1,0,0,,0,,,72,127
91246,note_off,54,0,0,,0,,,72,127
91247,note_on,1,0,0,,2,,,74,127
91301,note_off,54,0,0,,2,,,74,127
91301,note_off,0,0,0,,7,,,43,127
91302,note_on,1,0,0,,0,,,48,127
91302,note_on,0,0,0,,0,,,72,127
91508,note_off,206,0,0,,0,,,72,127
91540,note_on,32,0,0,,7,,,91,127
91612,note_off,72,0,0,,7,,,91,127
91613,note_on,1,0,0,,4,,,88,127
91685,note_off,72,0,0,,4,,,88,127
91686,note_on,1,0,0,,7,,,91,127
91755,note_off,69,0,0,,0,,,48,127
91758,note_off,3,0,0,,7,,,91,127
91759,note_on,1,0,0,,5,,,89,127
91759,note_on,0,0,0,,7,,,43,127
91759,note_on,0,0,0,,7,,,55,127
91977,note_off,218,0,0,,5,,,89,127
91978,note_on,1,0,0,,2,,,86,127
92050,note_off,72,0,0,,2,,,86,127
92051,note_on,1,0,0,,12,,,83,127
92123,note_off,72,0,0,,12,,,83,127
92124,note_on,1,0,0,,2,,,86,127
92196,note_off,72,0,0,,2,,,86,127
92196,note_off,0,0,0,,7,,,55,127
92196,note_off,0,0,0,,7,,,43,127
92197,note_on,1,0,0,,0,,,84,127
92197,note_on,0,0,0,,0,,,48,127
92415,note_off,218,0,0,,0,,,84,127
92416,note_on,1,0,0,,7,,,79,127
92488,note_off,72,0,0,,7,,,79,127
92489,note_on,1,0,0,,4,,,76,127
92561,note_off,72,0,0,,4,,,76,127
92562,note_on,1,0,0,,7,,,79,127
92634,note_off,72,0,0,,7,,,79,127
92634,note_off,0,0,0,,0,,,48,127
92635,note_on,1,0,0,,5,,,77,127
92635,note_on,0,0,0,,7,,,55,127
92635,note_on,0,0,0,,7,,,43,127
92853,note_off,218,0,0,,5,,,77,127
92854,note_on,1,0,0,,2,,,74,127
92926,note_off,72,0,0,,2,,,74,127
92927,note_on,1,0,0,,12,,,71,127
92999,note_off,72,0,0,,12,,,71,127
93000,note_on,1,0,0,,2,,,74,127
93072,note_off,72,0,0,,2,,,74,127
93072,note_off,0,0,0,,7,,,43,127
93072,note_off,0,0,0,,7,,,55,127
93073,note_on,1,0,0,,0,,,72,127
93073,note_on,0,0,0,,0,,,48,127
93291,note_off,218,0,0,,0,,,72,127
93292,note_on,1,0,0,,7,,,67,127
93364,note_off,72,0,0,,7,,,67,127
93365,note_on,1,0,0,,4,,,64,127
93437,note_off,72,0,0,,4,,,64,127
93438,note_on,1,0,0,,7,,,67,127
93510,note_off,72,0,0,,7,,,67,127
93510,note_off,0,0,0,,0,,,48,127
93511,note_on,1,0,0,,5,,,65,127
93511,note_on,0,0,0,,7,,,55,127
93511,note_on,0,0,0,,7,,,43,127
93729,note_off,218,0,0,,5,,,65,127
93730,note_on,1,0,0,,2,,,62,127
93802,note_off,72,0,0,,2,,,62,127
93803,note_on,1,0,0,,12,,,59,127
93875,note_off,72,0,0,,12,,,59,127
93894,note_on,19,0,0,,2,,,62,127
93948,note_off,54,0,0,,7,,,43,127
93948,note_off,0,0,0,,7,,,55,127
93966,note_off,18,0,0,,2,,,62,127
93967,note_on,1,0,0,,0,,,48,127
93967,note_on,0,0,0,,0,,,60,127
94021,note_off,54,0,0,,0,,,60,127
94022,note_on,1,0,0,,2,,,62,127
94076,note_off,54,0,0,,2,,,62,127
94077,note_on,1,0,0,,4,,,64,127
94131,note_off,54,0,0,,4,,,64,127
94132,note_on,1,0,0,,5,,,65,127
94186,note_off,54,0,0,,5,,,65,127
94186,note_off,0,0,0,,0,,,48,127
94187,note_on,1,0,0,,5,,,53,127
94187,note_on,0,0,0,,7,,,67,127
94241,note_off,54,0,0,,7,,,67,127
94242,note_on,1,0,0,,10,,,69,127
94296,note_off,54,0,0,,10,,,69,127
94297,note_on,1,0,0,,12,,,71,127
94351,note_off,54,0,0,,12,,,71,127
94352,note_on,1,0,0,,0,,,72,127
94406,note_off,54,0,0,,0,,,72,127
94406,note_off,0,0,0,,5,,,53,127
94407,note_on,1,0,0,,7,,,55,127
94407,note_on,0,0,0,,4,,,76,127
94461,note_off,54,0,0,,4,,,76,127
94462,note_on,1,0,0,,2,,,74,127
94516,note_off,54,0,0,,2,,,74,127
94517,note_on,1,0,0,,4,,,76,127
94571,note_off,54,0,0,,4,,,76,127
94572,note_on,1,0,0,,2,,,74,127
94626,note_off,54,0,0,,2,,,74,127
94626,note_off,0,0,0,,7,,,55,127
94627,note_on,1,0,0,,7,,,43,127
94627,note_on,0,0,0,,4,,,76,127
94681,note_off,54,0,0,,4,,,76,127
94682,note_on,1,0,0,,2,,,74,127
94736,note_off,54,0,0,,2,,,74,127
94737,note_on,1,0,0,,0,,,72,127
94791,note_off,54,0,0,,0,,,72,127
94800,note_on,9,0,0,,2,,,74,127
94846,note_off,46,0,0,,7,,,43,127
94854,note_off,8,0,0,,2,,,74,127
94865,note_on,11,0,0,,0,,,72,127
94865,note_on,0,0,0,,0,,,48,127
94919,note_off,54,0,0,,0,,,72,127
94920,note_on,1,0,0,,2,,,74,127
94974,note_off,54,0,0,,2,,,74,127
94975,note_on,1,0,0,,4,,,76,127
95029,note_off,54,0,0,,4,,,76,127
95030,note_on,1,0,0,,5,,,77,127
95084,note_off,54,0,0,,5,,,77,127
95084,note_off,0,0,0,,0,,,48,127
95085,note_on,1,0,0,,7,,,79,127
95085,note_on,0,0,0,,5,,,53,127
95139,note_off,54,0,0,,7,,,79,127
95140,note_on,1,0,0,,10,,,81,127
95194,note_off,54,0,0,,10,,,81,127
95195,note_on,1,0,0,,12,,,83,127
95249,note_off,54,0,0,,12,,,83,127
95250,note_on,1,0,0,,0,,,84,127
95304,note_off,54,0,0,,0,,,84,127
95304,note_off,0,0,0,,5,,,53,127
95305,note_on,1,0,0,,4,,,88,127
95305,note_on,0,0,0,,7,,,55,127
95359,note_off,54,0,0,,4,,,88,127
95360,note_on,1,0,0,,2,,,86,127
95414,note_off,54,0,0,,2,,,86,127
95415,note_on,1,0,0,,4,,,88,127
95469,note_off,54,0,0,,4,,,88,127
95470,note_on,1,0,0,,2,,,86,127
95524,note_off,54,0,0,,2,,,86,127
95524,note_off,0,0,0,,7,,,55,127
95525,note_on,1,0,0,,4,,,88,127
95525,note_on,0,0,0,,7,,,43,127
95579,note_off,54,0,0,,4,,,88,127
95580,note_on,1,0,0,,2,,,86,127
95634,note_off,54,0,0,,2,,,86,127
95635,note_on,1,0,0,,0,,,84,127
95689,note_off,54,0,0,,0,,,84,127
95690,note_on,1,0,0,,2,,,86,127
95744,note_off,54,0,0,,2,,,86,127
95744,note_off,0,0,0,,7,,,43,127
95773,note_on,29,0,0,,0,,,84,127
95773,note_on,0,0,0,,0,,,36,127
97373,note_off,1600,0,0,,0,,,36,127
97373,note_off,0,0,0,,0,,,84,127
102912,end_of_track,5539,1,0,,,,,,
