tick,type,time,meta,track,program,channel,pitch,tempo,note,velocity
0,copyright,0,1,0,,,,,,
0,program_change,0,0,0,6,0,,,,
0,pitchwheel,0,0,0,,0,0,,,
0,program_change,0,0,0,6,1,,,,
0,pitchwheel,0,0,0,,1,-590,,,
0,program_change,0,0,0,6,2,,,,
0,pitchwheel,0,0,0,,2,-272,,,
0,program_change,0,0,0,6,3,,,,
0,pitchwheel,0,0,0,,3,-353,,,
0,program_change,0,0,0,6,4,,,,
0,pitchwheel,0,0,0,,4,-560,,,
0,program_change,0,0,0,6,5,,,,
0,pitchwheel,0,0,0,,5,-80,,,
0,program_change,0,0,0,6,6,,,,
0,pitchwheel,0,0,0,,6,-625,,,
0,program_change,0,0,0,6,7,,,,
0,pitchwheel,0,0,0,,7,-130,,,
0,program_change,0,0,0,6,8,,,,
0,pitchwheel,0,0,0,,8,-512,,,
0,program_change,0,0,0,6,10,,,,
0,pitchwheel,0,0,0,,10,-464,,,
0,program_change,0,0,0,6,11,,,,
0,pitchwheel,0,0,0,,11,-208,,,
0,program_change,0,0,0,6,12,,,,
0,pitchwheel,0,0,0,,12,-553,,,
0,set_tempo,0,1,0,,,,500000,,
256,note_on,256,0,0,,2,,,74,127
383,note_off,127,0,0,,2,,,74,127
384,note_on,1,0,0,,11,,,70,127
511,note_off,127,0,0,,11,,,70,127
512,note_on,1,0,0,,5,,,77,127
767,note_off,255,0,0,,5,,,77,127
768,note_on,1,0,0,,2,,,74,127
1023,note_off,255,0,0,,2,,,74,127
1024,note_on,1,0,0,,11,,,70,127
1279,note_off,255,0,0,,11,,,70,127
1280,note_on,1,0,0,,5,,,65,127
1535,note_off,255,0,0,,5,,,65,127
1536,note_on,1,0,0,,11,,,70,127
1791,note_off,255,0,0,,11,,,70,127
1792,note_on,1,0,0,,2,,,74,127
1855,note_off,63,0,0,,2,,,74,127
1856,note_on,1,0,0,,0,,,72,127
1919,note_off,63,0,0,,0,,,72,127
1920,note_on,1,0,0,,11,,,70,127
1983,note_off,63,0,0,,11,,,70,127
1984,note_on,1,0,0,,0,,,72,127
2047,note_off,63,0,0,,0,,,72,127
2048,note_on,1,0,0,,3,,,75,127
2301,note_off,253,0,0,,3,,,75,127
2304,note_on,3,0,0,,2,,,74,127
2304,note_on,0,0,0,,2,,,62,127
2431,note_off,127,0,0,,2,,,62,127
2432,note_on,1,0,0,,11,,,58,127
2559,note_off,127,0,0,,11,,,58,127
2559,note_off,0,0,0,,2,,,74,127
2560,note_on,1,0,0,,5,,,65,127
2815,note_off,255,0,0,,5,,,65,127
2816,note_on,1,0,0,,5,,,77,127
2816,note_on,0,0,0,,2,,,62,127
3071,note_off,255,0,0,,2,,,62,127
3071,note_off,0,0,0,,5,,,77,127
3072,note_on,1,0,0,,11,,,82,127
3072,note_on,0,0,0,,11,,,58,127
3327,note_off,255,0,0,,11,,,58,127
3328,note_on,1,0,0,,5,,,53,127
3583,note_off,255,0,0,,5,,,53,127
3584,note_on,1,0,0,,11,,,58,127
3839,note_off,255,0,0,,11,,,58,127
3839,note_off,0,0,0,,11,,,82,127
3840,note_on,1,0,0,,10,,,81,127
3840,note_on,0,0,0,,0,,,60,127
3967,note_off,127,0,0,,10,,,81,127
3968,note_on,1,0,0,,7,,,79,127
4095,note_off,127,0,0,,7,,,79,127
4095,note_off,0,0,0,,0,,,60,127
4096,note_on,1,0,0,,7,,,79,127
4096,note_on,0,0,0,,2,,,62,127
4223,note_off,127,0,0,,7,,,79,127
4224,note_on,1,0,0,,5,,,77,127
4351,note_off,127,0,0,,5,,,77,127
4351,note_off,0,0,0,,2,,,62,127
4352,note_on,1,0,0,,3,,,75,127
4352,note_on,0,0,0,,3,,,63,127
4479,note_off,127,0,0,,3,,,75,127
4480,note_on,1,0,0,,2,,,74,127
4607,note_off,127,0,0,,2,,,74,127
4607,note_off,0,0,0,,3,,,63,127
4608,note_on,1,0,0,,2,,,74,127
4608,note_on,0,0,0,,5,,,65,127
4692,note_off,84,0,0,,2,,,74,127
4693,note_on,1,0,0,,0,,,72,127
4777,note_off,84,0,0,,0,,,72,127
4778,note_on,1,0,0,,2,,,74,127
4862,note_off,84,0,0,,2,,,74,127
4862,note_off,0,0,0,,5,,,65,127
4863,note_on,1,0,0,,0,,,72,127
4863,note_on,0,0,0,,5,,,53,127
4947,note_off,84,0,0,,0,,,72,127
4948,note_on,1,0,0,,2,,,74,127
5032,note_off,84,0,0,,2,,,74,127
5033,note_on,1,0,0,,3,,,75,127
5117,note_off,84,0,0,,3,,,75,127
5117,note_off,0,0,0,,5,,,53,127
5118,note_on,1,0,0,,2,,,74,127
5118,note_on,0,0,0,,11,,,58,127
5202,note_off,84,0,0,,2,,,74,127
5203,note_on,1,0,0,,0,,,72,127
5287,note_off,84,0,0,,0,,,72,127
5288,note_on,1,0,0,,11,,,70,127
5372,note_off,84,0,0,,11,,,70,127
5373,note_on,1,0,0,,11,,,70,127
5628,note_off,255,0,0,,11,,,58,127
5629,note_on,1,0,0,,11,,,46,127
5757,note_off,128,0,0,,11,,,70,127
5885,note_on,128,0,0,,5,,,65,127
6140,note_off,255,0,0,,5,,,65,127
6140,note_off,0,0,0,,11,,,46,127
6141,note_on,1,0,0,,7,,,67,127
6141,note_on,0,0,0,,11,,,58,127
6397,note_on,256,0,0,,11,,,70,127
6652,note_off,255,0,0,,11,,,70,127
6652,note_off,0,0,0,,11,,,58,127
6653,note_on,1,0,0,,3,,,75,127
6653,note_on,0,0,0,,11,,,46,127
6908,note_off,255,0,0,,3,,,75,127
6908,note_off,0,0,0,,7,,,67,127
6909,note_on,1,0,0,,7,,,79,127
7164,note_off,255,0,0,,7,,,79,127
7164,note_off,0,0,0,,11,,,46,127
7165,note_on,1,0,0,,5,,,77,127
7165,note_on,0,0,0,,11,,,70,127
7165,note_on,0,0,0,,11,,,58,127
7249,note_off,84,0,0,,5,,,77,127
7250,note_on,1,0,0,,3,,,75,127
7334,note_off,84,0,0,,3,,,75,127
7335,note_on,1,0,0,,2,,,74,127
7419,note_off,84,0,0,,2,,,74,127
7420,note_on,1,0,0,,2,,,74,127
7676,note_on,256,0,0,,11,,,46,127
7931,note_off,255,0,0,,11,,,46,127
7931,note_off,0,0,0,,2,,,74,127
7931,note_off,0,0,0,,11,,,70,127
7932,note_on,1,0,0,,5,,,65,127
7932,note_on,0,0,0,,5,,,77,127
7932,note_on,0,0,0,,2,,,50,127
8187,note_off,255,0,0,,2,,,50,127
8187,note_off,0,0,0,,5,,,65,127
8187,note_off,0,0,0,,11,,,58,127
8188,note_on,1,0,0,,7,,,67,127
8188,note_on,0,0,0,,11,,,46,127
8188,note_on,0,0,0,,3,,,51,127
8443,note_off,255,0,0,,3,,,51,127
8443,note_off,0,0,0,,7,,,67,127
8444,note_on,1,0,0,,10,,,69,127
8444,note_on,0,0,0,,5,,,53,127
8699,note_off,255,0,0,,5,,,53,127
8699,note_off,0,0,0,,10,,,69,127
8699,note_off,0,0,0,,5,,,77,127
8700,note_on,1,0,0,,11,,,70,127
8700,note_on,0,0,0,,3,,,75,127
8700,note_on,0,0,0,,7,,,55,127
8955,note_off,255,0,0,,7,,,55,127
8955,note_off,0,0,0,,11,,,70,127
8956,note_on,1,0,0,,0,,,72,127
8956,note_on,0,0,0,,10,,,57,127
9207,note_off,251,0,0,,3,,,75,127
9211,note_off,4,0,0,,10,,,57,127
9211,note_off,0,0,0,,0,,,72,127
9211,note_off,0,0,0,,11,,,46,127
9212,note_on,1,0,0,,2,,,74,127
9212,note_on,0,0,0,,11,,,58,127
9275,note_off,63,0,0,,2,,,74,127
9276,note_on,1,0,0,,0,,,72,127
9339,note_off,63,0,0,,0,,,72,127
9340,note_on,1,0,0,,11,,,70,127
9403,note_off,63,0,0,,11,,,70,127
9404,note_on,1,0,0,,10,,,69,127
9467,note_off,63,0,0,,10,,,69,127
9468,note_on,1,0,0,,11,,,70,127
9723,note_off,255,0,0,,11,,,58,127
9724,note_on,1,0,0,,11,,,46,127
9979,note_off,255,0,0,,11,,,70,127
9980,note_on,1,0,0,,11,,,82,127
9980,note_on,0,0,0,,2,,,50,127
10231,note_off,251,0,0,,11,,,46,127
10235,note_off,4,0,0,,2,,,50,127
10235,note_off,0,0,0,,11,,,82,127
10236,note_on,1,0,0,,7,,,79,127
10236,note_on,0,0,0,,3,,,51,127
10491,note_off,255,0,0,,3,,,51,127
10491,note_off,0,0,0,,7,,,79,127
10492,note_on,1,0,0,,3,,,75,127
10492,note_on,0,0,0,,10,,,57,127
10747,note_off,255,0,0,,10,,,57,127
10747,note_off,0,0,0,,3,,,75,127
10748,note_on,1,0,0,,0,,,72,127
10748,note_on,0,0,0,,0,,,60,127
11003,note_off,255,0,0,,0,,,60,127
11003,note_off,0,0,0,,0,,,72,127
11004,note_on,1,0,0,,10,,,69,127
11004,note_on,0,0,0,,3,,,63,127
11259,note_off,255,0,0,,3,,,63,127
11259,note_off,0,0,0,,10,,,69,127
11260,note_on,1,0,0,,11,,,70,127
11260,note_on,0,0,0,,2,,,62,127
11344,note_off,84,0,0,,2,,,62,127
11345,note_on,1,0,0,,0,,,60,127
11429,note_off,84,0,0,,0,,,60,127
11430,note_on,1,0,0,,11,,,58,127
11514,note_off,84,0,0,,11,,,58,127
11514,note_off,0,0,0,,11,,,70,127
11515,note_on,1,0,0,,2,,,74,127
11515,note_on,0,0,0,,11,,,58,127
11770,note_off,255,0,0,,2,,,74,127
11771,note_on,1,0,0,,5,,,77,127
12026,note_off,255,0,0,,5,,,77,127
12026,note_off,0,0,0,,11,,,58,127
12027,note_on,1,0,0,,11,,,82,127
12027,note_on,0,0,0,,2,,,50,127
12282,note_off,255,0,0,,2,,,50,127
12282,note_off,0,0,0,,11,,,82,127
12283,note_on,1,0,0,,7,,,79,127
12283,note_on,0,0,0,,3,,,51,127
12538,note_off,255,0,0,,3,,,51,127
12538,note_off,0,0,0,,7,,,79,127
12539,note_on,1,0,0,,3,,,75,127
12539,note_on,0,0,0,,10,,,57,127
12794,note_off,255,0,0,,10,,,57,127
12794,note_off,0,0,0,,3,,,75,127
12795,note_on,1,0,0,,0,,,72,127
12795,note_on,0,0,0,,0,,,60,127
13050,note_off,255,0,0,,0,,,60,127
13050,note_off,0,0,0,,0,,,72,127
13051,note_on,1,0,0,,10,,,69,127
13051,note_on,0,0,0,,3,,,63,127
13306,note_off,255,0,0,,3,,,63,127
13306,note_off,0,0,0,,10,,,69,127
13307,note_on,1,0,0,,10,,,69,127
13307,note_on,0,0,0,,2,,,62,127
13391,note_off,84,0,0,,2,,,62,127
13392,note_on,1,0,0,,0,,,60,127
13476,note_off,84,0,0,,0,,,60,127
13477,note_on,1,0,0,,11,,,58,127
13561,note_off,84,0,0,,11,,,58,127
13561,note_off,0,0,0,,10,,,69,127
13562,note_on,1,0,0,,11,,,70,127
13562,note_on,0,0,0,,11,,,58,127
13817,note_off,255,0,0,,11,,,58,127
13818,note_on,1,0,0,,11,,,46,127
13946,note_off,128,0,0,,11,,,70,127
14074,note_on,128,0,0,,2,,,74,127
14329,note_off,255,0,0,,2,,,74,127
14329,note_off,0,0,0,,11,,,46,127
14330,note_on,1,0,0,,5,,,77,127
14330,note_on,0,0,0,,11,,,58,127
14586,note_on,256,0,0,,8,,,68,127
14841,note_off,255,0,0,,8,,,68,127
14841,note_off,0,0,0,,11,,,58,127
14842,note_on,1,0,0,,7,,,67,127
14842,note_on,0,0,0,,12,,,59,127
15097,note_off,255,0,0,,5,,,77,127
15098,note_on,1,0,0,,5,,,77,127
15353,note_off,255,0,0,,5,,,77,127
15353,note_off,0,0,0,,12,,,59,127
15354,note_on,1,0,0,,3,,,75,127
15354,note_on,0,0,0,,0,,,60,127
15438,note_off,84,0,0,,3,,,75,127
15439,note_on,1,0,0,,2,,,74,127
15523,note_off,84,0,0,,2,,,74,127
15524,note_on,1,0,0,,0,,,72,127
15608,note_off,84,0,0,,0,,,72,127
15609,note_on,1,0,0,,0,,,72,127
15864,note_off,255,0,0,,0,,,60,127
15864,note_off,0,0,0,,7,,,67,127
15865,note_on,1,0,0,,0,,,48,127
16120,note_off,255,0,0,,0,,,72,127
16121,note_on,1,0,0,,3,,,75,127
16376,note_off,255,0,0,,3,,,75,127
16376,note_off,0,0,0,,0,,,48,127
16377,note_on,1,0,0,,7,,,79,127
16377,note_on,0,0,0,,0,,,60,127
16633,note_on,256,0,0,,11,,,70,127
16888,note_off,255,0,0,,11,,,70,127
16888,note_off,0,0,0,,0,,,60,127
16889,note_on,1,0,0,,10,,,69,127
16889,note_on,0,0,0,,1,,,61,127
17144,note_off,255,0,0,,7,,,79,127
17145,note_on,1,0,0,,7,,,79,127
17400,note_off,255,0,0,,7,,,79,127
17400,note_off,0,0,0,,1,,,61,127
17401,note_on,1,0,0,,6,,,78,127
17401,note_on,0,0,0,,2,,,62,127
17485,note_off,84,0,0,,6,,,78,127
17486,note_on,1,0,0,,4,,,76,127
17570,note_off,84,0,0,,4,,,76,127
17571,note_on,1,0,0,,2,,,74,127
17655,note_off,84,0,0,,2,,,74,127
17656,note_on,1,0,0,,2,,,74,127
17911,note_off,255,0,0,,2,,,62,127
17911,note_off,0,0,0,,10,,,69,127
17912,note_on,1,0,0,,2,,,50,127
18167,note_off,255,0,0,,2,,,74,127
18168,note_on,1,0,0,,10,,,69,127
18168,note_on,0,0,0,,6,,,54,127
18419,note_off,251,0,0,,2,,,50,127
18423,note_off,4,0,0,,6,,,54,127
18423,note_off,0,0,0,,10,,,69,127
18424,note_on,1,0,0,,11,,,70,127
18424,note_on,0,0,0,,2,,,50,127
18424,note_on,0,0,0,,7,,,55,127
18679,note_off,255,0,0,,7,,,55,127
18679,note_off,0,0,0,,11,,,70,127
18680,note_on,1,0,0,,0,,,72,127
18680,note_on,0,0,0,,10,,,57,127
18935,note_off,255,0,0,,10,,,57,127
18935,note_off,0,0,0,,0,,,72,127
18936,note_on,1,0,0,,2,,,74,127
18936,note_on,0,0,0,,11,,,58,127
19191,note_off,255,0,0,,11,,,58,127
19191,note_off,0,0,0,,2,,,74,127
19192,note_on,1,0,0,,7,,,79,127
19192,note_on,0,0,0,,0,,,60,127
19447,note_off,255,0,0,,0,,,60,127
19447,note_off,0,0,0,,7,,,79,127
19447,note_off,0,0,0,,2,,,50,127
19448,note_on,1,0,0,,6,,,78,127
19448,note_on,0,0,0,,2,,,62,127
19448,note_on,0,0,0,,2,,,50,127
19532,note_off,84,0,0,,6,,,78,127
19533,note_on,1,0,0,,7,,,79,127
19617,note_off,84,0,0,,7,,,79,127
19618,note_on,1,0,0,,10,,,81,127
19702,note_off,84,0,0,,10,,,81,127
19703,note_on,1,0,0,,10,,,81,127
19958,note_off,255,0,0,,2,,,50,127
19958,note_off,0,0,0,,2,,,62,127
19959,note_on,1,0,0,,2,,,50,127
20214,note_off,255,0,0,,10,,,81,127
20215,note_on,1,0,0,,10,,,69,127
20215,note_on,0,0,0,,6,,,54,127
20466,note_off,251,0,0,,2,,,50,127
20470,note_off,4,0,0,,6,,,54,127
20470,note_off,0,0,0,,10,,,69,127
20471,note_on,1,0,0,,11,,,70,127
20471,note_on,0,0,0,,2,,,50,127
20471,note_on,0,0,0,,7,,,55,127
20726,note_off,255,0,0,,7,,,55,127
20726,note_off,0,0,0,,11,,,70,127
20727,note_on,1,0,0,,0,,,72,127
20727,note_on,0,0,0,,10,,,57,127
20982,note_off,255,0,0,,10,,,57,127
20982,note_off,0,0,0,,0,,,72,127
20983,note_on,1,0,0,,2,,,74,127
20983,note_on,0,0,0,,11,,,58,127
21111,note_off,128,0,0,,2,,,50,127
21238,note_off,127,0,0,,11,,,58,127
21238,note_off,0,0,0,,2,,,74,127
21239,note_on,1,0,0,,11,,,82,127
21239,note_on,0,0,0,,3,,,51,127
21239,note_on,0,0,0,,0,,,60,127
21494,note_off,255,0,0,,0,,,60,127
21494,note_off,0,0,0,,3,,,51,127
21494,note_off,0,0,0,,11,,,82,127
21495,note_on,1,0,0,,10,,,81,127
21495,note_on,0,0,0,,0,,,60,127
21495,note_on,0,0,0,,5,,,53,127
21579,note_off,84,0,0,,10,,,81,127
21580,note_on,1,0,0,,11,,,82,127
21664,note_off,84,0,0,,11,,,82,127
21665,note_on,1,0,0,,0,,,84,127
21749,note_off,84,0,0,,0,,,84,127
21750,note_on,1,0,0,,0,,,84,127
22005,note_off,255,0,0,,0,,,60,127
22006,note_on,1,0,0,,5,,,65,127
22261,note_off,255,0,0,,0,,,84,127
22262,note_on,1,0,0,,0,,,72,127
22513,note_off,251,0,0,,5,,,65,127
22517,note_off,4,0,0,,0,,,72,127
22517,note_off,0,0,0,,5,,,53,127
22518,note_on,1,0,0,,0,,,84,127
22774,note_on,256,0,0,,0,,,72,127
22774,note_on,0,0,0,,5,,,65,127
22774,note_on,0,0,0,,10,,,57,127
23029,note_off,255,0,0,,10,,,57,127
23029,note_off,0,0,0,,5,,,65,127
23030,note_on,1,0,0,,6,,,66,127
23030,note_on,0,0,0,,11,,,58,127
23051,note_off,21,0,0,,0,,,84,127
23284,note_off,233,0,0,,6,,,66,127
23284,note_off,0,0,0,,0,,,72,127
23285,note_on,1,0,0,,0,,,72,127
23285,note_on,0,0,0,,3,,,63,127
23536,note_off,251,0,0,,11,,,58,127
23540,note_off,4,0,0,,3,,,63,127
23540,note_off,0,0,0,,0,,,72,127
23541,note_on,1,0,0,,0,,,84,127
23541,note_on,0,0,0,,5,,,65,127
23541,note_on,0,0,0,,10,,,57,127
23796,note_off,255,0,0,,5,,,65,127
23797,note_on,1,0,0,,0,,,72,127
23797,note_on,0,0,0,,5,,,65,127
24048,note_off,251,0,0,,10,,,57,127
24052,note_off,4,0,0,,5,,,65,127
24053,note_on,1,0,0,,11,,,58,127
24053,note_on,0,0,0,,6,,,66,127
24141,note_off,88,0,0,,0,,,84,127
24308,note_off,167,0,0,,6,,,66,127
24308,note_off,0,0,0,,0,,,72,127
24309,note_on,1,0,0,,0,,,72,127
24309,note_on,0,0,0,,3,,,63,127
24560,note_off,251,0,0,,11,,,58,127
24564,note_off,4,0,0,,3,,,63,127
24564,note_off,0,0,0,,0,,,72,127
24565,note_on,1,0,0,,0,,,84,127
24565,note_on,0,0,0,,3,,,63,127
24565,note_on,0,0,0,,10,,,57,127
24820,note_off,255,0,0,,3,,,63,127
24821,note_on,1,0,0,,0,,,72,127
24821,note_on,0,0,0,,3,,,63,127
25072,note_off,251,0,0,,10,,,57,127
25076,note_off,4,0,0,,3,,,63,127
25077,note_on,1,0,0,,8,,,56,127
25077,note_on,0,0,0,,5,,,65,127
25232,note_off,155,0,0,,0,,,84,127
25332,note_off,100,0,0,,5,,,65,127
25332,note_off,0,0,0,,0,,,72,127
25333,note_on,1,0,0,,0,,,72,127
25333,note_on,0,0,0,,2,,,62,127
25584,note_off,251,0,0,,8,,,56,127
25588,note_off,4,0,0,,2,,,62,127
25588,note_off,0,0,0,,0,,,72,127
25589,note_on,1,0,0,,0,,,84,127
25589,note_on,0,0,0,,7,,,55,127
25589,note_on,0,0,0,,3,,,63,127
25844,note_off,255,0,0,,3,,,63,127
25845,note_on,1,0,0,,0,,,72,127
25845,note_on,0,0,0,,3,,,63,127
26096,note_off,251,0,0,,7,,,55,127
26100,note_off,4,0,0,,3,,,63,127
26101,note_on,1,0,0,,5,,,65,127
26101,note_on,0,0,0,,8,,,56,127
26322,note_off,221,0,0,,0,,,84,127
26355,note_off,33,0,0,,5,,,65,127
26355,note_off,0,0,0,,0,,,72,127
26356,note_on,1,0,0,,0,,,72,127
26356,note_on,0,0,0,,2,,,62,127
26607,note_off,251,0,0,,8,,,56,127
26611,note_off,4,0,0,,2,,,62,127
26611,note_off,0,0,0,,0,,,72,127
26612,note_on,1,0,0,,0,,,84,127
26612,note_on,0,0,0,,3,,,63,127
26612,note_on,0,0,0,,7,,,55,127
26867,note_off,255,0,0,,3,,,63,127
26868,note_on,1,0,0,,0,,,72,127
26868,note_on,0,0,0,,0,,,60,127
27119,note_off,251,0,0,,7,,,55,127
27123,note_off,4,0,0,,0,,,60,127
27124,note_on,1,0,0,,1,,,61,127
27124,note_on,0,0,0,,5,,,53,127
27379,note_off,255,0,0,,1,,,61,127
27379,note_off,0,0,0,,0,,,72,127
27380,note_on,1,0,0,,0,,,72,127
27380,note_on,0,0,0,,11,,,58,127
27412,note_off,32,0,0,,0,,,84,127
27631,note_off,219,0,0,,5,,,53,127
27635,note_off,4,0,0,,11,,,58,127
27635,note_off,0,0,0,,0,,,72,127
27636,note_on,1,0,0,,0,,,84,127
27636,note_on,0,0,0,,4,,,52,127
27636,note_on,0,0,0,,0,,,60,127
27891,note_off,255,0,0,,0,,,60,127
27892,note_on,1,0,0,,0,,,72,127
27892,note_on,0,0,0,,0,,,60,127
28143,note_off,251,0,0,,4,,,52,127
28143,note_off,0,0,0,,0,,,84,127
28147,note_off,4,0,0,,0,,,60,127
28147,note_off,0,0,0,,0,,,72,127
28148,note_on,1,0,0,,0,,,84,127
28148,note_on,0,0,0,,1,,,61,127
28148,note_on,0,0,0,,5,,,53,127
28403,note_off,255,0,0,,1,,,61,127
28404,note_on,1,0,0,,0,,,72,127
28404,note_on,0,0,0,,11,,,58,127
28655,note_off,251,0,0,,5,,,53,127
28655,note_off,0,0,0,,0,,,84,127
28659,note_off,4,0,0,,11,,,58,127
28659,note_off,0,0,0,,0,,,72,127
28660,note_on,1,0,0,,0,,,84,127
28660,note_on,0,0,0,,0,,,60,127
28660,note_on,0,0,0,,4,,,52,127
28915,note_off,255,0,0,,0,,,60,127
28916,note_on,1,0,0,,0,,,72,127
28916,note_on,0,0,0,,7,,,55,127
29167,note_off,251,0,0,,0,,,84,127
29171,note_off,4,0,0,,7,,,55,127
29171,note_off,0,0,0,,0,,,72,127
29172,note_on,1,0,0,,0,,,84,127
29172,note_on,0,0,0,,0,,,60,127
29425,note_off,253,0,0,,0,,,84,127
29426,note_off,1,0,0,,4,,,52,127
29427,note_on,1,0,0,,0,,,72,127
29427,note_on,0,0,0,,0,,,48,127
29682,note_off,255,0,0,,0,,,48,127
29682,note_off,0,0,0,,0,,,72,127
29683,note_on,1,0,0,,0,,,84,127
29683,note_on,0,0,0,,1,,,49,127
29938,note_off,255,0,0,,0,,,84,127
29938,note_off,0,0,0,,0,,,60,127
29939,note_on,1,0,0,,11,,,82,127
29939,note_on,0,0,0,,5,,,53,127
30066,note_off,127,0,0,,11,,,82,127
30067,note_on,1,0,0,,8,,,80,127
30194,note_off,127,0,0,,8,,,80,127
30194,note_off,0,0,0,,5,,,53,127
30195,note_on,1,0,0,,7,,,79,127
30195,note_on,0,0,0,,11,,,58,127
30450,note_off,255,0,0,,11,,,58,127
30450,note_off,0,0,0,,7,,,79,127
30451,note_on,1,0,0,,5,,,77,127
30451,note_on,0,0,0,,12,,,59,127
30706,note_off,255,0,0,,12,,,59,127
30706,note_off,0,0,0,,5,,,77,127
30706,note_off,0,0,0,,1,,,49,127
30707,note_on,1,0,0,,5,,,77,127
30707,note_on,0,0,0,,0,,,60,127
30707,note_on,0,0,0,,0,,,48,127
30804,note_on,97,0,0,,4,,,76,127
30812,note_off,8,0,0,,5,,,77,127
30873,note_on,61,0,0,,5,,,77,127
30876,note_off,3,0,0,,4,,,76,127
30943,note_on,67,0,0,,4,,,76,127
30946,note_off,3,0,0,,5,,,77,127
31013,note_on,67,0,0,,5,,,77,127
31016,note_off,3,0,0,,4,,,76,127
31083,note_on,67,0,0,,4,,,76,127
31086,note_off,3,0,0,,5,,,77,127
31153,note_on,67,0,0,,2,,,74,127
31156,note_off,3,0,0,,4,,,76,127
31220,note_off,64,0,0,,0,,,48,127
31220,note_off,0,0,0,,0,,,60,127
31221,note_on,1,0,0,,0,,,72,127
31221,note_on,0,0,0,,0,,,48,127
31224,note_off,3,0,0,,2,,,74,127
31732,note_off,508,0,0,,0,,,48,127
31732,note_off,0,0,0,,0,,,72,127
31733,note_on,1,0,0,,4,,,64,127
31733,note_on,0,0,0,,0,,,60,127
31817,note_off,84,0,0,,0,,,60,127
31817,note_off,0,0,0,,4,,,64,127
31818,note_on,1,0,0,,5,,,65,127
31818,note_on,0,0,0,,2,,,62,127
31902,note_off,84,0,0,,2,,,62,127
31902,note_off,0,0,0,,5,,,65,127
31903,note_on,1,0,0,,7,,,67,127
31903,note_on,0,0,0,,4,,,64,127
31987,note_off,84,0,0,,4,,,64,127
31987,note_off,0,0,0,,7,,,67,127
31988,note_on,1,0,0,,10,,,69,127
31988,note_on,0,0,0,,5,,,65,127
32072,note_off,84,0,0,,5,,,65,127
32072,note_off,0,0,0,,10,,,69,127
32073,note_on,1,0,0,,11,,,70,127
32073,note_on,0,0,0,,7,,,67,127
32157,note_off,84,0,0,,7,,,67,127
32157,note_off,0,0,0,,11,,,70,127
32158,note_on,1,0,0,,0,,,72,127
32158,note_on,0,0,0,,10,,,69,127
32242,note_off,84,0,0,,10,,,69,127
32242,note_off,0,0,0,,0,,,72,127
32243,note_on,1,0,0,,2,,,74,127
32243,note_on,0,0,0,,11,,,70,127
32370,note_off,127,0,0,,2,,,74,127
32371,note_on,1,0,0,,4,,,76,127
32498,note_off,127,0,0,,4,,,76,127
32498,note_off,0,0,0,,11,,,70,127
32499,note_on,1,0,0,,5,,,77,127
32499,note_on,0,0,0,,10,,,69,127
32583,note_off,84,0,0,,5,,,77,127
32584,note_on,1,0,0,,7,,,79,127
32668,note_off,84,0,0,,7,,,79,127
32669,note_on,1,0,0,,10,,,81,127
32753,note_off,84,0,0,,10,,,81,127
32753,note_off,0,0,0,,10,,,69,127
32754,note_on,1,0,0,,0,,,84,127
32754,note_on,0,0,0,,7,,,67,127
32826,note_off,72,0,0,,0,,,84,127
32827,note_on,1,0,0,,11,,,82,127
32899,note_off,72,0,0,,11,,,82,127
32900,note_on,1,0,0,,0,,,84,127
32972,note_off,72,0,0,,0,,,84,127
32973,note_on,1,0,0,,11,,,82,127
33008,note_off,35,0,0,,7,,,67,127
33009,note_on,1,0,0,,5,,,65,127
33045,note_off,36,0,0,,11,,,82,127
33046,note_on,1,0,0,,0,,,84,127
33117,note_off,71,0,0,,0,,,84,127
33118,note_on,1,0,0,,11,,,82,127
33191,note_off,73,0,0,,11,,,82,127
33192,note_on,1,0,0,,10,,,81,127
33263,note_off,71,0,0,,10,,,81,127
33263,note_off,0,0,0,,5,,,65,127
33264,note_on,1,0,0,,11,,,82,127
33264,note_on,0,0,0,,4,,,64,127
33519,note_off,255,0,0,,4,,,64,127
33520,note_on,1,0,0,,2,,,62,127
33775,note_off,255,0,0,,2,,,62,127
33775,note_off,0,0,0,,11,,,82,127
33776,note_on,1,0,0,,4,,,64,127
33776,note_on,0,0,0,,0,,,60,127
33860,note_off,84,0,0,,0,,,60,127
33860,note_off,0,0,0,,4,,,64,127
33861,note_on,1,0,0,,5,,,65,127
33861,note_on,0,0,0,,2,,,62,127
33945,note_off,84,0,0,,2,,,62,127
33945,note_off,0,0,0,,5,,,65,127
33946,note_on,1,0,0,,7,,,67,127
33946,note_on,0,0,0,,4,,,64,127
34030,note_off,84,0,0,,4,,,64,127
34030,note_off,0,0,0,,7,,,67,127
34031,note_on,1,0,0,,10,,,69,127
34031,note_on,0,0,0,,5,,,65,127
34115,note_off,84,0,0,,5,,,65,127
34115,note_off,0,0,0,,10,,,69,127
34116,note_on,1,0,0,,11,,,70,127
34116,note_on,0,0,0,,7,,,67,127
34200,note_off,84,0,0,,7,,,67,127
34200,note_off,0,0,0,,11,,,70,127
34201,note_on,1,0,0,,0,,,72,127
34201,note_on,0,0,0,,10,,,69,127
34285,note_off,84,0,0,,10,,,69,127
34285,note_off,0,0,0,,0,,,72,127
34286,note_on,1,0,0,,2,,,74,127
34286,note_on,0,0,0,,11,,,70,127
34413,note_off,127,0,0,,2,,,74,127
34414,note_on,1,0,0,,4,,,76,127
34541,note_off,127,0,0,,4,,,76,127
34541,note_off,0,0,0,,11,,,70,127
34542,note_on,1,0,0,,5,,,77,127
34542,note_on,0,0,0,,10,,,69,127
34626,note_off,84,0,0,,5,,,77,127
34627,note_on,1,0,0,,7,,,79,127
34711,note_off,84,0,0,,7,,,79,127
34712,note_on,1,0,0,,10,,,81,127
34796,note_off,84,0,0,,10,,,81,127
34796,note_off,0,0,0,,10,,,69,127
34797,note_on,1,0,0,,0,,,84,127
34797,note_on,0,0,0,,7,,,67,127
34869,note_off,72,0,0,,0,,,84,127
34870,note_on,1,0,0,,11,,,82,127
34942,note_off,72,0,0,,11,,,82,127
34943,note_on,1,0,0,,0,,,84,127
35015,note_off,72,0,0,,0,,,84,127
35016,note_on,1,0,0,,11,,,82,127
35051,note_off,35,0,0,,7,,,67,127
35052,note_on,1,0,0,,5,,,65,127
35088,note_off,36,0,0,,11,,,82,127
35089,note_on,1,0,0,,0,,,84,127
35161,note_off,72,0,0,,0,,,84,127
35162,note_on,1,0,0,,11,,,82,127
35234,note_off,72,0,0,,11,,,82,127
35235,note_on,1,0,0,,10,,,81,127
35306,note_off,71,0,0,,10,,,81,127
35306,note_off,0,0,0,,5,,,65,127
35307,note_on,1,0,0,,11,,,82,127
35307,note_on,0,0,0,,4,,,64,127
35562,note_off,255,0,0,,4,,,64,127
35563,note_on,1,0,0,,2,,,62,127
35818,note_off,255,0,0,,2,,,62,127
35819,note_on,1,0,0,,0,,,60,127
35903,note_off,84,0,0,,11,,,82,127
35904,note_on,1,0,0,,0,,,84,127
35988,note_off,84,0,0,,0,,,84,127
35989,note_on,1,0,0,,11,,,82,127
36073,note_off,84,0,0,,11,,,82,127
36074,note_on,1,0,0,,10,,,81,127
36158,note_off,84,0,0,,10,,,81,127
36159,note_on,1,0,0,,7,,,79,127
36243,note_off,84,0,0,,7,,,79,127
36244,note_on,1,0,0,,5,,,77,127
36328,note_off,84,0,0,,5,,,77,127
36329,note_on,1,0,0,,4,,,76,127
36413,note_off,84,0,0,,4,,,76,127
36414,note_on,1,0,0,,2,,,74,127
36498,note_off,84,0,0,,2,,,74,127
36499,note_on,1,0,0,,0,,,72,127
36583,note_off,84,0,0,,0,,,72,127
36584,note_on,1,0,0,,11,,,70,127
36668,note_off,84,0,0,,11,,,70,127
36669,note_on,1,0,0,,10,,,69,127
36750,note_off,81,0,0,,0,,,60,127
36753,note_off,3,0,0,,10,,,69,127
36754,note_on,1,0,0,,7,,,67,127
36838,note_off,84,0,0,,7,,,67,127
36839,note_on,1,0,0,,5,,,65,127
37095,note_on,256,0,0,,10,,,57,127
37222,note_off,127,0,0,,5,,,65,127
37223,note_on,1,0,0,,7,,,67,127
37350,note_off,127,0,0,,7,,,67,127
37350,note_off,0,0,0,,10,,,57,127
37351,note_on,1,0,0,,10,,,69,127
37351,note_on,0,0,0,,11,,,58,127
37435,note_off,84,0,0,,10,,,69,127
37436,note_on,1,0,0,,7,,,67,127
37520,note_off,84,0,0,,7,,,67,127
37521,note_on,1,0,0,,10,,,69,127
37605,note_off,84,0,0,,10,,,69,127
37605,note_off,0,0,0,,11,,,58,127
37606,note_on,1,0,0,,7,,,67,127
37606,note_on,0,0,0,,0,,,60,127
37690,note_off,84,0,0,,7,,,67,127
37691,note_on,1,0,0,,10,,,69,127
37775,note_off,84,0,0,,10,,,69,127
37776,note_on,1,0,0,,7,,,67,127
37860,note_off,84,0,0,,7,,,67,127
37860,note_off,0,0,0,,0,,,60,127
37861,note_on,1,0,0,,5,,,65,127
37861,note_on,0,0,0,,5,,,53,127
37945,note_off,84,0,0,,5,,,53,127
37946,note_on,1,0,0,,0,,,60,127
38030,note_off,84,0,0,,0,,,60,127
38031,note_on,1,0,0,,11,,,58,127
38115,note_off,84,0,0,,11,,,58,127
38116,note_on,1,0,0,,10,,,57,127
38200,note_off,84,0,0,,10,,,57,127
38201,note_on,1,0,0,,7,,,55,127
38285,note_off,84,0,0,,7,,,55,127
38286,note_on,1,0,0,,5,,,53,127
38353,note_off,67,0,0,,5,,,65,127
38370,note_off,17,0,0,,5,,,53,127
38371,note_on,1,0,0,,4,,,52,127
38455,note_off,84,0,0,,4,,,52,127
38456,note_on,1,0,0,,2,,,50,127
38540,note_off,84,0,0,,2,,,50,127
38541,note_on,1,0,0,,0,,,48,127
38625,note_off,84,0,0,,0,,,48,127
38626,note_on,1,0,0,,11,,,46,127
38710,note_off,84,0,0,,11,,,46,127
38711,note_on,1,0,0,,10,,,45,127
38795,note_off,84,0,0,,10,,,45,127
38796,note_on,1,0,0,,7,,,43,127
38880,note_off,84,0,0,,7,,,43,127
38881,note_on,1,0,0,,5,,,41,127
39137,note_on,256,0,0,,5,,,65,127
39137,note_on,0,0,0,,5,,,77,127
39392,note_off,255,0,0,,5,,,77,127
39393,note_on,1,0,0,,3,,,75,127
39521,note_off,128,0,0,,5,,,41,127
39648,note_off,127,0,0,,3,,,75,127
39649,note_on,1,0,0,,0,,,72,127
39649,note_on,0,0,0,,10,,,45,127
39904,note_off,255,0,0,,10,,,45,127
39904,note_off,0,0,0,,0,,,72,127
39904,note_off,0,0,0,,5,,,65,127
39905,note_on,1,0,0,,1,,,73,127
39905,note_on,0,0,0,,11,,,46,127
40160,note_off,255,0,0,,1,,,73,127
40161,note_on,1,0,0,,11,,,82,127
40161,note_on,0,0,0,,2,,,74,127
40416,note_off,255,0,0,,2,,,74,127
40416,note_off,0,0,0,,11,,,82,127
40416,note_off,0,0,0,,11,,,46,127
40417,note_on,1,0,0,,0,,,72,127
40417,note_on,0,0,0,,10,,,81,127
40417,note_on,0,0,0,,11,,,34,127
40672,note_off,255,0,0,,10,,,81,127
40672,note_off,0,0,0,,0,,,72,127
40673,note_on,1,0,0,,11,,,70,127
40673,note_on,0,0,0,,7,,,79,127
40928,note_off,255,0,0,,7,,,79,127
40928,note_off,0,0,0,,11,,,70,127
40928,note_off,0,0,0,,11,,,34,127
40929,note_on,1,0,0,,5,,,77,127
40929,note_on,0,0,0,,10,,,69,127
40929,note_on,0,0,0,,0,,,48,127
41184,note_off,255,0,0,,10,,,69,127
41184,note_off,0,0,0,,5,,,77,127
41185,note_on,1,0,0,,7,,,79,127
41248,note_off,63,0,0,,7,,,79,127
41249,note_on,1,0,0,,5,,,77,127
41312,note_off,63,0,0,,5,,,77,127
41313,note_on,1,0,0,,4,,,76,127
41376,note_off,63,0,0,,4,,,76,127
41377,note_on,1,0,0,,5,,,77,127
41440,note_off,63,0,0,,5,,,77,127
41440,note_off,0,0,0,,0,,,48,127
41441,note_on,1,0,0,,10,,,81,127
41441,note_on,0,0,0,,0,,,36,127
41504,note_off,63,0,0,,10,,,81,127
41505,note_on,1,0,0,,7,,,79,127
41568,note_off,63,0,0,,7,,,79,127
41569,note_on,1,0,0,,10,,,81,127
41632,note_off,63,0,0,,10,,,81,127
41633,note_on,1,0,0,,7,,,79,127
41696,note_off,63,0,0,,7,,,79,127
41697,note_on,1,0,0,,10,,,81,127
41760,note_off,63,0,0,,10,,,81,127
41761,note_on,1,0,0,,7,,,79,127
41824,note_off,63,0,0,,7,,,79,127
41825,note_on,1,0,0,,5,,,77,127
41952,note_off,127,0,0,,5,,,77,127
41952,note_off,0,0,0,,0,,,36,127
41953,note_on,1,0,0,,5,,,77,127
41953,note_on,0,0,0,,5,,,41,127
42037,note_off,84,0,0,,5,,,41,127
42038,note_on,1,0,0,,0,,,60,127
42122,note_off,84,0,0,,0,,,60,127
42123,note_on,1,0,0,,11,,,58,127
42207,note_off,84,0,0,,11,,,58,127
42208,note_on,1,0,0,,10,,,57,127
42292,note_off,84,0,0,,10,,,57,127
42293,note_on,1,0,0,,7,,,55,127
42377,note_off,84,0,0,,7,,,55,127
42378,note_on,1,0,0,,5,,,53,127
42445,note_off,67,0,0,,5,,,77,127
42462,note_off,17,0,0,,5,,,53,127
42463,note_on,1,0,0,,4,,,52,127
42547,note_off,84,0,0,,4,,,52,127
42548,note_on,1,0,0,,2,,,50,127
42632,note_off,84,0,0,,2,,,50,127
42633,note_on,1,0,0,,0,,,48,127
42717,note_off,84,0,0,,0,,,48,127
42718,note_on,1,0,0,,11,,,46,127
42802,note_off,84,0,0,,11,,,46,127
42803,note_on,1,0,0,,10,,,45,127
42887,note_off,84,0,0,,10,,,45,127
42888,note_on,1,0,0,,7,,,43,127
42972,note_off,84,0,0,,7,,,43,127
42973,note_on,1,0,0,,5,,,41,127
43229,note_on,256,0,0,,5,,,77,127
43229,note_on,0,0,0,,5,,,65,127
43484,note_off,255,0,0,,5,,,77,127
43485,note_on,1,0,0,,3,,,75,127
43693,note_off,208,0,0,,5,,,41,127
43740,note_off,47,0,0,,3,,,75,127
43741,note_on,1,0,0,,0,,,72,127
43741,note_on,0,0,0,,10,,,45,127
43996,note_off,255,0,0,,10,,,45,127
43996,note_off,0,0,0,,0,,,72,127
43996,note_off,0,0,0,,5,,,65,127
43997,note_on,1,0,0,,1,,,73,127
43997,note_on,0,0,0,,11,,,46,127
44252,note_off,255,0,0,,1,,,73,127
44253,note_on,1,0,0,,11,,,82,127
44253,note_on,0,0,0,,2,,,74,127
44508,note_off,255,0,0,,2,,,74,127
44508,note_off,0,0,0,,11,,,82,127
44508,note_off,0,0,0,,11,,,46,127
44509,note_on,1,0,0,,0,,,72,127
44509,note_on,0,0,0,,10,,,81,127
44509,note_on,0,0,0,,11,,,34,127
44764,note_off,255,0,0,,10,,,81,127
44764,note_off,0,0,0,,0,,,72,127
44765,note_on,1,0,0,,7,,,79,127
44765,note_on,0,0,0,,11,,,70,127
45020,note_off,255,0,0,,11,,,70,127
45020,note_off,0,0,0,,7,,,79,127
45020,note_off,0,0,0,,11,,,34,127
45021,note_on,1,0,0,,10,,,69,127
45021,note_on,0,0,0,,5,,,77,127
45021,note_on,0,0,0,,0,,,48,127
45276,note_off,255,0,0,,5,,,77,127
45277,note_on,1,0,0,,7,,,79,127
45340,note_off,63,0,0,,7,,,79,127
45341,note_on,1,0,0,,5,,,77,127
45404,note_off,63,0,0,,5,,,77,127
45405,note_on,1,0,0,,4,,,76,127
45468,note_off,63,0,0,,4,,,76,127
45469,note_on,1,0,0,,5,,,77,127
45528,note_off,59,0,0,,10,,,69,127
45532,note_off,4,0,0,,5,,,77,127
45532,note_off,0,0,0,,0,,,48,127
45533,note_on,1,0,0,,10,,,81,127
45533,note_on,0,0,0,,0,,,36,127
45596,note_off,63,0,0,,10,,,81,127
45597,note_on,1,0,0,,7,,,79,127
45660,note_off,63,0,0,,7,,,79,127
45661,note_on,1,0,0,,10,,,81,127
45724,note_off,63,0,0,,10,,,81,127
45725,note_on,1,0,0,,7,,,79,127
45788,note_off,63,0,0,,7,,,79,127
45789,note_on,1,0,0,,10,,,81,127
45852,note_off,63,0,0,,10,,,81,127
45853,note_on,1,0,0,,7,,,79,127
45916,note_off,63,0,0,,7,,,79,127
45917,note_on,1,0,0,,5,,,77,127
46044,note_off,127,0,0,,5,,,77,127
46044,note_off,0,0,0,,0,,,36,127
46045,note_on,1,0,0,,5,,,77,127
46045,note_on,0,0,0,,5,,,41,127
46129,note_off,84,0,0,,5,,,77,127
46130,note_on,1,0,0,,10,,,81,127
46214,note_off,84,0,0,,10,,,81,127
46215,note_on,1,0,0,,7,,,79,127
46299,note_off,84,0,0,,7,,,79,127
46300,note_on,1,0,0,,5,,,77,127
46384,note_off,84,0,0,,5,,,77,127
46385,note_on,1,0,0,,4,,,76,127
46417,note_off,32,0,0,,5,,,41,127
46469,note_off,52,0,0,,4,,,76,127
46470,note_on,1,0,0,,5,,,77,127
46554,note_off,84,0,0,,5,,,77,127
46555,note_on,1,0,0,,7,,,79,127
46810,note_off,255,0,0,,7,,,79,127
46811,note_on,1,0,0,,0,,,72,127
46811,note_on,0,0,0,,0,,,60,127
46811,note_on,0,0,0,,0,,,48,127
47066,note_off,255,0,0,,0,,,48,127
47066,note_off,0,0,0,,0,,,60,127
47066,note_off,0,0,0,,0,,,72,127
47067,note_on,1,0,0,,5,,,77,127
47067,note_on,0,0,0,,10,,,57,127
47067,note_on,0,0,0,,10,,,45,127
47151,note_off,84,0,0,,5,,,77,127
47152,note_on,1,0,0,,10,,,81,127
47236,note_off,84,0,0,,10,,,81,127
47237,note_on,1,0,0,,7,,,79,127
47321,note_off,84,0,0,,7,,,79,127
47321,note_off,0,0,0,,10,,,45,127
47321,note_off,0,0,0,,10,,,57,127
47322,note_on,1,0,0,,5,,,77,127
47322,note_on,0,0,0,,5,,,53,127
47322,note_on,0,0,0,,5,,,41,127
47406,note_off,84,0,0,,5,,,77,127
47407,note_on,1,0,0,,4,,,76,127
47491,note_off,84,0,0,,4,,,76,127
47492,note_on,1,0,0,,5,,,77,127
47575,note_off,83,0,0,,5,,,41,127
47575,note_off,0,0,0,,5,,,53,127
47576,note_off,1,0,0,,5,,,77,127
47577,note_on,1,0,0,,7,,,79,127
47832,note_off,255,0,0,,7,,,79,127
47833,note_on,1,0,0,,0,,,72,127
47833,note_on,0,0,0,,0,,,60,127
47833,note_on,0,0,0,,0,,,48,127
48088,note_off,255,0,0,,0,,,48,127
48088,note_off,0,0,0,,0,,,60,127
48088,note_off,0,0,0,,0,,,72,127
48089,note_on,1,0,0,,5,,,77,127
48089,note_on,0,0,0,,10,,,57,127
48089,note_on,0,0,0,,10,,,45,127
48173,note_off,84,0,0,,5,,,77,127
48174,note_on,1,0,0,,10,,,81,127
48258,note_off,84,0,0,,10,,,81,127
48259,note_on,1,0,0,,7,,,79,127
48343,note_off,84,0,0,,7,,,79,127
48343,note_off,0,0,0,,10,,,45,127
48343,note_off,0,0,0,,10,,,57,127
48344,note_on,1,0,0,,5,,,77,127
48344,note_on,0,0,0,,5,,,41,127
48344,note_on,0,0,0,,5,,,53,127
48428,note_off,84,0,0,,5,,,77,127
48429,note_on,1,0,0,,4,,,76,127
48513,note_off,84,0,0,,4,,,76,127
48514,note_on,1,0,0,,5,,,77,127
48597,note_off,83,0,0,,5,,,53,127
48597,note_off,0,0,0,,5,,,41,127
48598,note_off,1,0,0,,5,,,77,127
48599,note_on,1,0,0,,7,,,79,127
48854,note_off,255,0,0,,7,,,79,127
48855,note_on,1,0,0,,0,,,72,127
48855,note_on,0,0,0,,0,,,48,127
48855,note_on,0,0,0,,0,,,60,127
49110,note_off,255,0,0,,0,,,60,127
49110,note_off,0,0,0,,0,,,48,127
49110,note_off,0,0,0,,0,,,72,127
49111,note_on,1,0,0,,5,,,77,127
49111,note_on,0,0,0,,10,,,57,127
49111,note_on,0,0,0,,10,,,45,127
49195,note_off,84,0,0,,5,,,77,127
49196,note_on,1,0,0,,10,,,81,127
49280,note_off,84,0,0,,10,,,81,127
49281,note_on,1,0,0,,7,,,79,127
49365,note_off,84,0,0,,7,,,79,127
49365,note_off,0,0,0,,10,,,45,127
49365,note_off,0,0,0,,10,,,57,127
49366,note_on,1,0,0,,5,,,77,127
49366,note_on,0,0,0,,5,,,53,127
49366,note_on,0,0,0,,5,,,41,127
49450,note_off,84,0,0,,5,,,77,127
49451,note_on,1,0,0,,4,,,76,127
49535,note_off,84,0,0,,4,,,76,127
49536,note_on,1,0,0,,5,,,77,127
49620,note_off,84,0,0,,5,,,77,127
49620,note_off,0,0,0,,5,,,41,127
49620,note_off,0,0,0,,5,,,53,127
49621,note_on,1,0,0,,7,,,79,127
49621,note_on,0,0,0,,11,,,34,127
49621,note_on,0,0,0,,11,,,46,127
49876,note_off,255,0,0,,11,,,46,127
49876,note_off,0,0,0,,11,,,34,127
49876,note_off,0,0,0,,7,,,79,127
49877,note_on,1,0,0,,0,,,84,127
49877,note_on,0,0,0,,0,,,36,127
49877,note_on,0,0,0,,0,,,48,127
50132,note_off,255,0,0,,0,,,48,127
50132,note_off,0,0,0,,0,,,36,127
50132,note_off,0,0,0,,0,,,84,127
50133,note_on,1,0,0,,7,,,79,127
50133,note_on,0,0,0,,5,,,53,127
50133,note_on,0,0,0,,5,,,41,127
50174,note_off,41,0,0,,7,,,79,127
50175,note_on,1,0,0,,5,,,77,127
50216,note_off,41,0,0,,5,,,77,127
50217,note_on,1,0,0,,7,,,79,127
50258,note_off,41,0,0,,7,,,79,127
50259,note_on,1,0,0,,5,,,77,127
50899,note_off,640,0,0,,5,,,77,127
51154,note_off,255,0,0,,5,,,41,127
51154,note_off,0,0,0,,5,,,53,127
51155,note_on,1,0,0,,5,,,65,127
51155,note_on,0,0,0,,5,,,53,127
51410,note_off,255,0,0,,5,,,65,127
51411,note_on,1,0,0,,10,,,69,127
51666,note_off,255,0,0,,10,,,69,127
51667,note_on,1,0,0,,0,,,72,127
51922,note_off,255,0,0,,0,,,72,127
51923,note_on,1,0,0,,3,,,75,127
52178,note_off,255,0,0,,3,,,75,127
52178,note_off,0,0,0,,5,,,53,127
52179,note_on,1,0,0,,2,,,74,127
52179,note_on,0,0,0,,5,,,53,127
52263,note_off,84,0,0,,2,,,74,127
52264,note_on,1,0,0,,0,,,72,127
52348,note_off,84,0,0,,0,,,72,127
52349,note_on,1,0,0,,12,,,71,127
52433,note_off,84,0,0,,12,,,71,127
52434,note_on,1,0,0,,12,,,71,127
52434,note_on,0,0,0,,12,,,59,127
52689,note_off,255,0,0,,12,,,59,127
52690,note_on,1,0,0,,2,,,62,127
52941,note_off,251,0,0,,12,,,71,127
52945,note_off,4,0,0,,2,,,62,127
52946,note_on,1,0,0,,5,,,65,127
53201,note_off,255,0,0,,5,,,65,127
53201,note_off,0,0,0,,5,,,53,127
53202,note_on,1,0,0,,7,,,67,127
53202,note_on,0,0,0,,5,,,65,127
53202,note_on,0,0,0,,2,,,62,127
53202,note_on,0,0,0,,7,,,55,127
53457,note_off,255,0,0,,7,,,67,127
53458,note_on,1,0,0,,12,,,71,127
53713,note_off,255,0,0,,12,,,71,127
53714,note_on,1,0,0,,2,,,74,127
53969,note_off,255,0,0,,2,,,74,127
53970,note_on,1,0,0,,5,,,77,127
54225,note_off,255,0,0,,5,,,77,127
54225,note_off,0,0,0,,7,,,55,127
54225,note_off,0,0,0,,2,,,62,127
54225,note_off,0,0,0,,5,,,65,127
54226,note_on,1,0,0,,4,,,76,127
54226,note_on,0,0,0,,7,,,55,127
54310,note_off,84,0,0,,4,,,76,127
54311,note_on,1,0,0,,2,,,74,127
54395,note_off,84,0,0,,2,,,74,127
54396,note_on,1,0,0,,1,,,73,127
54480,note_off,84,0,0,,1,,,73,127
54481,note_on,1,0,0,,1,,,73,127
54481,note_on,0,0,0,,1,,,61,127
54736,note_off,255,0,0,,1,,,61,127
54737,note_on,1,0,0,,4,,,64,127
54974,note_off,237,0,0,,1,,,73,127
54991,note_off,17,0,0,,4,,,64,127
54992,note_on,1,0,0,,7,,,67,127
55247,note_off,255,0,0,,7,,,67,127
55247,note_off,0,0,0,,7,,,55,127
55248,note_on,1,0,0,,10,,,69,127
55248,note_on,0,0,0,,7,,,67,127
55248,note_on,0,0,0,,4,,,64,127
55248,note_on,0,0,0,,10,,,57,127
55503,note_off,255,0,0,,10,,,69,127
55504,note_on,1,0,0,,1,,,73,127
55759,note_off,255,0,0,,1,,,73,127
55760,note_on,1,0,0,,4,,,76,127
56015,note_off,255,0,0,,4,,,76,127
56016,note_on,1,0,0,,7,,,79,127
56271,note_off,255,0,0,,7,,,79,127
56271,note_off,0,0,0,,10,,,57,127
56271,note_off,0,0,0,,4,,,64,127
56271,note_off,0,0,0,,7,,,67,127
56272,note_on,1,0,0,,5,,,77,127
56272,note_on,0,0,0,,10,,,57,127
56356,note_off,84,0,0,,5,,,77,127
56357,note_on,1,0,0,,4,,,76,127
56441,note_off,84,0,0,,4,,,76,127
56442,note_on,1,0,0,,2,,,74,127
56526,note_off,84,0,0,,2,,,74,127
56527,note_on,1,0,0,,2,,,74,127
56527,note_on,0,0,0,,2,,,62,127
56782,note_off,255,0,0,,2,,,62,127
56783,note_on,1,0,0,,5,,,65,127
57038,note_off,255,0,0,,5,,,65,127
57039,note_on,1,0,0,,10,,,69,127
57087,note_off,48,0,0,,2,,,74,127
57294,note_off,207,0,0,,10,,,69,127
57294,note_off,0,0,0,,10,,,57,127
57295,note_on,1,0,0,,2,,,74,127
57295,note_on,0,0,0,,8,,,68,127
57295,note_on,0,0,0,,2,,,62,127
57295,note_on,0,0,0,,4,,,64,127
57295,note_on,0,0,0,,12,,,59,127
57550,note_off,255,0,0,,2,,,74,127
57551,note_on,1,0,0,,8,,,80,127
57806,note_off,255,0,0,,8,,,80,127
57807,note_on,1,0,0,,12,,,83,127
58062,note_off,255,0,0,,12,,,83,127
58063,note_on,1,0,0,,2,,,86,127
58318,note_off,255,0,0,,2,,,86,127
58318,note_off,0,0,0,,12,,,59,127
58318,note_off,0,0,0,,4,,,64,127
58318,note_off,0,0,0,,2,,,62,127
58318,note_off,0,0,0,,8,,,68,127
58319,note_on,1,0,0,,0,,,84,127
58319,note_on,0,0,0,,0,,,60,127
58403,note_off,84,0,0,,0,,,84,127
58404,note_on,1,0,0,,12,,,83,127
58488,note_off,84,0,0,,12,,,83,127
58489,note_on,1,0,0,,10,,,81,127
58573,note_off,84,0,0,,10,,,81,127
58574,note_on,1,0,0,,10,,,81,127
58574,note_on,0,0,0,,4,,,64,127
58829,note_off,255,0,0,,4,,,64,127
58830,note_on,1,0,0,,10,,,69,127
59085,note_off,255,0,0,,10,,,69,127
59086,note_on,1,0,0,,0,,,72,127
59341,note_off,255,0,0,,0,,,72,127
59341,note_off,0,0,0,,10,,,81,127
59341,note_off,0,0,0,,0,,,60,127
59342,note_on,1,0,0,,0,,,84,127
59342,note_on,0,0,0,,2,,,62,127
59426,note_off,84,0,0,,0,,,84,127
59427,note_on,1,0,0,,12,,,83,127
59511,note_off,84,0,0,,12,,,83,127
59512,note_on,1,0,0,,10,,,81,127
59596,note_off,84,0,0,,10,,,81,127
59597,note_on,1,0,0,,10,,,81,127
59597,note_on,0,0,0,,6,,,66,127
59852,note_off,255,0,0,,6,,,66,127
59853,note_on,1,0,0,,10,,,69,127
60108,note_off,255,0,0,,10,,,69,127
60109,note_on,1,0,0,,0,,,72,127
60364,note_off,255,0,0,,0,,,72,127
60364,note_off,0,0,0,,10,,,81,127
60364,note_off,0,0,0,,2,,,62,127
60365,note_on,1,0,0,,0,,,84,127
60365,note_on,0,0,0,,3,,,63,127
60449,note_off,84,0,0,,0,,,84,127
60450,note_on,1,0,0,,11,,,82,127
60534,note_off,84,0,0,,11,,,82,127
60535,note_on,1,0,0,,10,,,81,127
60619,note_off,84,0,0,,10,,,81,127
60620,note_on,1,0,0,,10,,,81,127
60620,note_on,0,0,0,,7,,,67,127
60875,note_off,255,0,0,,7,,,67,127
60876,note_on,1,0,0,,10,,,69,127
61131,note_off,255,0,0,,10,,,69,127
61132,note_on,1,0,0,,0,,,72,127
61387,note_off,255,0,0,,0,,,72,127
61387,note_off,0,0,0,,10,,,81,127
61387,note_off,0,0,0,,3,,,63,127
61388,note_on,1,0,0,,0,,,84,127
61388,note_on,0,0,0,,5,,,65,127
61472,note_off,84,0,0,,0,,,84,127
61473,note_on,1,0,0,,11,,,82,127
61557,note_off,84,0,0,,11,,,82,127
61558,note_on,1,0,0,,10,,,81,127
61642,note_off,84,0,0,,10,,,81,127
61643,note_on,1,0,0,,10,,,81,127
61643,note_on,0,0,0,,10,,,69,127
61898,note_off,255,0,0,,10,,,69,127
61899,note_on,1,0,0,,0,,,72,127
62154,note_off,255,0,0,,0,,,72,127
62155,note_on,1,0,0,,3,,,75,127
62410,note_off,255,0,0,,3,,,75,127
62410,note_off,0,0,0,,10,,,81,127
62410,note_off,0,0,0,,5,,,65,127
62411,note_on,1,0,0,,11,,,82,127
62411,note_on,0,0,0,,1,,,73,127
62666,note_off,255,0,0,,1,,,73,127
62666,note_off,0,0,0,,11,,,82,127
62667,note_on,1,0,0,,1,,,85,127
62667,note_on,0,0,0,,0,,,72,127
62730,note_off,63,0,0,,1,,,85,127
62731,note_on,1,0,0,,0,,,84,127
62794,note_off,63,0,0,,0,,,84,127
62795,note_on,1,0,0,,11,,,82,127
62858,note_off,63,0,0,,11,,,82,127
62859,note_on,1,0,0,,0,,,84,127
62922,note_off,63,0,0,,0,,,84,127
62922,note_off,0,0,0,,0,,,72,127
62923,note_on,1,0,0,,1,,,85,127
62923,note_on,0,0,0,,11,,,70,127
63178,note_off,255,0,0,,11,,,70,127
63178,note_off,0,0,0,,1,,,85,127
63179,note_on,1,0,0,,0,,,84,127
63179,note_on,0,0,0,,8,,,68,127
63434,note_off,255,0,0,,8,,,68,127
63434,note_off,0,0,0,,0,,,84,127
63435,note_on,1,0,0,,11,,,82,127
63435,note_on,0,0,0,,7,,,67,127
63690,note_off,255,0,0,,7,,,67,127
63690,note_off,0,0,0,,11,,,82,127
63691,note_on,1,0,0,,8,,,80,127
63691,note_on,0,0,0,,5,,,65,127
63946,note_off,255,0,0,,5,,,65,127
63946,note_off,0,0,0,,8,,,80,127
63947,note_on,1,0,0,,8,,,80,127
63947,note_on,0,0,0,,3,,,63,127
64010,note_off,63,0,0,,8,,,80,127
64011,note_on,1,0,0,,7,,,79,127
64074,note_off,63,0,0,,7,,,79,127
64075,note_on,1,0,0,,8,,,80,127
64138,note_off,63,0,0,,8,,,80,127
64139,note_on,1,0,0,,7,,,79,127
64202,note_off,63,0,0,,7,,,79,127
64202,note_off,0,0,0,,3,,,63,127
64203,note_on,1,0,0,,8,,,80,127
64203,note_on,0,0,0,,1,,,61,127
64266,note_off,63,0,0,,8,,,80,127
64267,note_on,1,0,0,,7,,,79,127
64330,note_off,63,0,0,,7,,,79,127
64331,note_on,1,0,0,,5,,,77,127
64394,note_off,63,0,0,,5,,,77,127
64395,note_on,1,0,0,,7,,,79,127
64458,note_off,63,0,0,,7,,,79,127
64458,note_off,0,0,0,,1,,,61,127
64459,note_on,1,0,0,,8,,,80,127
64459,note_on,0,0,0,,0,,,60,127
64714,note_off,255,0,0,,0,,,60,127
64714,note_off,0,0,0,,8,,,80,127
64715,note_on,1,0,0,,0,,,84,127
64715,note_on,0,0,0,,11,,,58,127
64778,note_off,63,0,0,,0,,,84,127
64779,note_on,1,0,0,,11,,,82,127
64842,note_off,63,0,0,,11,,,82,127
64843,note_on,1,0,0,,8,,,80,127
64906,note_off,63,0,0,,8,,,80,127
64907,note_on,1,0,0,,11,,,82,127
64970,note_off,63,0,0,,11,,,82,127
64970,note_off,0,0,0,,11,,,58,127
64971,note_on,1,0,0,,0,,,84,127
64971,note_on,0,0,0,,8,,,56,127
65226,note_off,255,0,0,,8,,,56,127
65226,note_off,0,0,0,,0,,,84,127
65227,note_on,1,0,0,,11,,,82,127
65227,note_on,0,0,0,,7,,,55,127
65482,note_off,255,0,0,,7,,,55,127
65482,note_off,0,0,0,,11,,,82,127
65483,note_on,1,0,0,,8,,,80,127
65483,note_on,0,0,0,,5,,,53,127
65738,note_off,255,0,0,,5,,,53,127
65738,note_off,0,0,0,,8,,,80,127
65739,note_on,1,0,0,,7,,,79,127
65739,note_on,0,0,0,,3,,,51,127
65994,note_off,255,0,0,,3,,,51,127
65994,note_off,0,0,0,,7,,,79,127
65995,note_on,1,0,0,,5,,,77,127
65995,note_on,0,0,0,,8,,,44,127
66250,note_off,255,0,0,,8,,,44,127
66250,note_off,0,0,0,,5,,,77,127
66251,note_on,1,0,0,,3,,,75,127
66251,note_on,0,0,0,,0,,,48,127
66506,note_off,255,0,0,,0,,,48,127
66506,note_off,0,0,0,,3,,,75,127
66507,note_on,1,0,0,,3,,,75,127
66507,note_on,0,0,0,,11,,,46,127
66570,note_off,63,0,0,,3,,,75,127
66571,note_on,1,0,0,,2,,,74,127
66634,note_off,63,0,0,,2,,,74,127
66635,note_on,1,0,0,,3,,,75,127
66698,note_off,63,0,0,,3,,,75,127
66699,note_on,1,0,0,,2,,,74,127
66762,note_off,63,0,0,,2,,,74,127
66763,note_on,1,0,0,,3,,,75,127
66826,note_off,63,0,0,,3,,,75,127
66827,note_on,1,0,0,,2,,,74,127
66890,note_off,63,0,0,,2,,,74,127
66891,note_on,1,0,0,,0,,,72,127
67018,note_off,127,0,0,,0,,,72,127
67018,note_off,0,0,0,,11,,,46,127
67019,note_on,1,0,0,,11,,,70,127
67019,note_on,0,0,0,,11,,,46,127
67659,note_off,640,0,0,,11,,,70,127
67886,note_off,227,0,0,,11,,,46,127
68299,note_on,413,0,0,,5,,,65,127
68554,note_off,255,0,0,,5,,,65,127
68555,note_on,1,0,0,,5,,,77,127
68810,note_off,255,0,0,,5,,,77,127
68811,note_on,1,0,0,,5,,,65,127
68811,note_on,0,0,0,,11,,,58,127
68811,note_on,0,0,0,,2,,,50,127
69066,note_off,255,0,0,,2,,,50,127
69066,note_off,0,0,0,,11,,,58,127
69067,note_on,1,0,0,,3,,,51,127
69067,note_on,0,0,0,,12,,,59,127
69322,note_off,255,0,0,,12,,,59,127
69322,note_off,0,0,0,,5,,,65,127
69323,note_on,1,0,0,,5,,,65,127
69323,note_on,0,0,0,,8,,,56,127
69574,note_off,251,0,0,,3,,,51,127
69578,note_off,4,0,0,,8,,,56,127
69578,note_off,0,0,0,,5,,,65,127
69579,note_on,1,0,0,,5,,,77,127
69579,note_on,0,0,0,,2,,,50,127
69579,note_on,0,0,0,,11,,,58,127
69834,note_off,255,0,0,,11,,,58,127
69835,note_on,1,0,0,,5,,,65,127
69835,note_on,0,0,0,,11,,,58,127
69912,note_off,77,0,0,,5,,,77,127
70085,note_off,173,0,0,,2,,,50,127
70089,note_off,4,0,0,,11,,,58,127
70090,note_on,1,0,0,,3,,,51,127
70090,note_on,0,0,0,,12,,,59,127
70345,note_off,255,0,0,,12,,,59,127
70345,note_off,0,0,0,,5,,,65,127
70346,note_on,1,0,0,,5,,,65,127
70346,note_on,0,0,0,,8,,,56,127
70597,note_off,251,0,0,,3,,,51,127
70601,note_off,4,0,0,,8,,,56,127
70601,note_off,0,0,0,,5,,,65,127
70602,note_on,1,0,0,,5,,,77,127
70602,note_on,0,0,0,,11,,,58,127
70602,note_on,0,0,0,,2,,,50,127
70857,note_off,255,0,0,,11,,,58,127
70858,note_on,1,0,0,,5,,,65,127
70858,note_on,0,0,0,,10,,,57,127
71109,note_off,251,0,0,,2,,,50,127
71109,note_off,0,0,0,,5,,,77,127
71113,note_off,4,0,0,,10,,,57,127
71114,note_on,1,0,0,,11,,,58,127
71114,note_on,0,0,0,,1,,,49,127
71369,note_off,255,0,0,,11,,,58,127
71369,note_off,0,0,0,,5,,,65,127
71370,note_on,1,0,0,,5,,,65,127
71370,note_on,0,0,0,,7,,,55,127
71621,note_off,251,0,0,,1,,,49,127
71625,note_off,4,0,0,,7,,,55,127
71625,note_off,0,0,0,,5,,,65,127
71626,note_on,1,0,0,,5,,,77,127
71626,note_on,0,0,0,,0,,,48,127
71626,note_on,0,0,0,,8,,,56,127
71881,note_off,255,0,0,,8,,,56,127
71882,note_on,1,0,0,,5,,,65,127
71882,note_on,0,0,0,,8,,,56,127
72133,note_off,251,0,0,,0,,,48,127
72137,note_off,4,0,0,,8,,,56,127
72138,note_on,1,0,0,,1,,,49,127
72138,note_on,0,0,0,,11,,,58,127
72393,note_off,255,0,0,,11,,,58,127
72393,note_off,0,0,0,,5,,,65,127
72393,note_off,0,0,0,,5,,,77,127
72394,note_on,1,0,0,,5,,,65,127
72394,note_on,0,0,0,,7,,,55,127
72645,note_off,251,0,0,,1,,,49,127
72649,note_off,4,0,0,,7,,,55,127
72649,note_off,0,0,0,,5,,,65,127
72650,note_on,1,0,0,,5,,,77,127
72650,note_on,0,0,0,,8,,,56,127
72650,note_on,0,0,0,,0,,,48,127
72905,note_off,255,0,0,,8,,,56,127
72906,note_on,1,0,0,,5,,,65,127
72906,note_on,0,0,0,,5,,,53,127
73157,note_off,251,0,0,,0,,,48,127
73157,note_off,0,0,0,,5,,,77,127
73161,note_off,4,0,0,,5,,,53,127
73161,note_off,0,0,0,,5,,,65,127
73162,note_on,1,0,0,,5,,,77,127
73162,note_on,0,0,0,,6,,,54,127
73162,note_on,0,0,0,,11,,,46,127
73417,note_off,255,0,0,,6,,,54,127
73418,note_on,1,0,0,,5,,,65,127
73418,note_on,0,0,0,,3,,,51,127
73669,note_off,251,0,0,,11,,,46,127
73669,note_off,0,0,0,,5,,,77,127
73673,note_off,4,0,0,,3,,,51,127
73673,note_off,0,0,0,,5,,,65,127
73674,note_on,1,0,0,,5,,,77,127
73674,note_on,0,0,0,,10,,,45,127
73674,note_on,0,0,0,,5,,,53,127
73929,note_off,255,0,0,,5,,,53,127
73930,note_on,1,0,0,,5,,,65,127
73930,note_on,0,0,0,,5,,,53,127
74181,note_off,251,0,0,,10,,,45,127
74181,note_off,0,0,0,,5,,,77,127
74185,note_off,4,0,0,,5,,,53,127
74185,note_off,0,0,0,,5,,,65,127
74186,note_on,1,0,0,,5,,,77,127
74186,note_on,0,0,0,,11,,,46,127
74186,note_on,0,0,0,,6,,,54,127
74441,note_off,255,0,0,,6,,,54,127
74442,note_on,1,0,0,,5,,,65,127
74442,note_on,0,0,0,,3,,,51,127
74693,note_off,251,0,0,,11,,,46,127
74693,note_off,0,0,0,,5,,,77,127
74697,note_off,4,0,0,,3,,,51,127
74697,note_off,0,0,0,,5,,,65,127
74698,note_on,1,0,0,,5,,,77,127
74698,note_on,0,0,0,,5,,,53,127
74698,note_on,0,0,0,,10,,,45,127
74953,note_off,255,0,0,,5,,,53,127
74953,note_off,0,0,0,,5,,,77,127
74954,note_on,1,0,0,,5,,,65,127
74954,note_on,0,0,0,,0,,,48,127
75209,note_off,255,0,0,,0,,,48,127
75209,note_off,0,0,0,,5,,,65,127
75210,note_on,1,0,0,,5,,,77,127
75210,note_on,0,0,0,,5,,,53,127
75465,note_off,255,0,0,,5,,,77,127
75465,note_off,0,0,0,,10,,,45,127
75466,note_on,1,0,0,,5,,,65,127
75466,note_on,0,0,0,,5,,,41,127
75721,note_off,255,0,0,,5,,,41,127
75721,note_off,0,0,0,,5,,,65,127
75722,note_on,1,0,0,,5,,,77,127
75722,note_on,0,0,0,,6,,,42,127
75977,note_off,255,0,0,,5,,,77,127
75977,note_off,0,0,0,,5,,,53,127
75978,note_on,1,0,0,,3,,,75,127
75978,note_on,0,0,0,,11,,,46,127
76105,note_off,127,0,0,,3,,,75,127
76106,note_on,1,0,0,,1,,,73,127
76233,note_off,127,0,0,,1,,,73,127
76233,note_off,0,0,0,,11,,,46,127
76234,note_on,1,0,0,,0,,,72,127
76234,note_on,0,0,0,,3,,,51,127
76489,note_off,255,0,0,,3,,,51,127
76489,note_off,0,0,0,,0,,,72,127
76490,note_on,1,0,0,,11,,,70,127
76490,note_on,0,0,0,,4,,,52,127
76745,note_off,255,0,0,,4,,,52,127
76745,note_off,0,0,0,,11,,,70,127
76745,note_off,0,0,0,,6,,,42,127
76746,note_on,1,0,0,,11,,,70,127
76746,note_on,0,0,0,,5,,,53,127
76746,note_on,0,0,0,,5,,,41,127
76809,note_off,63,0,0,,11,,,70,127
76810,note_on,1,0,0,,10,,,69,127
76873,note_off,63,0,0,,10,,,69,127
76874,note_on,1,0,0,,11,,,70,127
76937,note_off,63,0,0,,11,,,70,127
76938,note_on,1,0,0,,10,,,69,127
77001,note_off,63,0,0,,10,,,69,127
77002,note_on,1,0,0,,11,,,70,127
77065,note_off,63,0,0,,11,,,70,127
77066,note_on,1,0,0,,10,,,69,127
77129,note_off,63,0,0,,10,,,69,127
77130,note_on,1,0,0,,7,,,67,127
77257,note_off,127,0,0,,7,,,67,127
77257,note_off,0,0,0,,5,,,41,127
77257,note_off,0,0,0,,5,,,53,127
77258,note_on,1,0,0,,5,,,65,127
77258,note_on,0,0,0,,5,,,41,127
77471,note_off,213,0,0,,5,,,65,127
77768,note_off,297,0,0,,5,,,41,127
77769,note_on,1,0,0,,10,,,57,127
77769,note_on,0,0,0,,5,,,53,127
77853,note_off,84,0,0,,5,,,53,127
77853,note_off,0,0,0,,10,,,57,127
77854,note_on,1,0,0,,11,,,58,127
77854,note_on,0,0,0,,7,,,55,127
77938,note_off,84,0,0,,7,,,55,127
77938,note_off,0,0,0,,11,,,58,127
77939,note_on,1,0,0,,0,,,60,127
77939,note_on,0,0,0,,10,,,57,127
78023,note_off,84,0,0,,10,,,57,127
78023,note_off,0,0,0,,0,,,60,127
78024,note_on,1,0,0,,2,,,62,127
78024,note_on,0,0,0,,11,,,58,127
78108,note_off,84,0,0,,11,,,58,127
78108,note_off,0,0,0,,2,,,62,127
78109,note_on,1,0,0,,3,,,63,127
78109,note_on,0,0,0,,0,,,60,127
78193,note_off,84,0,0,,0,,,60,127
78193,note_off,0,0,0,,3,,,63,127
78194,note_on,1,0,0,,5,,,65,127
78194,note_on,0,0,0,,2,,,62,127
78278,note_off,84,0,0,,2,,,62,127
78278,note_off,0,0,0,,5,,,65,127
78279,note_on,1,0,0,,7,,,67,127
78279,note_on,0,0,0,,3,,,63,127
78406,note_off,127,0,0,,7,,,67,127
78407,note_on,1,0,0,,10,,,69,127
78534,note_off,127,0,0,,10,,,69,127
78534,note_off,0,0,0,,3,,,63,127
78535,note_on,1,0,0,,11,,,70,127
78535,note_on,0,0,0,,2,,,62,127
78619,note_off,84,0,0,,11,,,70,127
78620,note_on,1,0,0,,0,,,72,127
78704,note_off,84,0,0,,0,,,72,127
78705,note_on,1,0,0,,2,,,74,127
78789,note_off,84,0,0,,2,,,74,127
78789,note_off,0,0,0,,2,,,62,127
78790,note_on,1,0,0,,5,,,77,127
78790,note_on,0,0,0,,0,,,60,127
78853,note_off,63,0,0,,5,,,77,127
78854,note_on,1,0,0,,3,,,75,127
78917,note_off,63,0,0,,3,,,75,127
78918,note_on,1,0,0,,5,,,77,127
78981,note_off,63,0,0,,5,,,77,127
78982,note_on,1,0,0,,3,,,75,127
79045,note_off,63,0,0,,3,,,75,127
79045,note_off,0,0,0,,0,,,60,127
79046,note_on,1,0,0,,5,,,77,127
79046,note_on,0,0,0,,11,,,58,127
79109,note_off,63,0,0,,5,,,77,127
79110,note_on,1,0,0,,3,,,75,127
79173,note_off,63,0,0,,3,,,75,127
79174,note_on,1,0,0,,2,,,74,127
79301,note_off,127,0,0,,2,,,74,127
79301,note_off,0,0,0,,11,,,58,127
79302,note_on,1,0,0,,3,,,75,127
79302,note_on,0,0,0,,10,,,57,127
79557,note_off,255,0,0,,10,,,57,127
79558,note_on,1,0,0,,7,,,55,127
79755,note_off,197,0,0,,3,,,75,127
79812,note_off,57,0,0,,7,,,55,127
79813,note_on,1,0,0,,10,,,57,127
79813,note_on,0,0,0,,5,,,53,127
79897,note_off,84,0,0,,5,,,53,127
79897,note_off,0,0,0,,10,,,57,127
79898,note_on,1,0,0,,11,,,58,127
79898,note_on,0,0,0,,7,,,55,127
79982,note_off,84,0,0,,7,,,55,127
79982,note_off,0,0,0,,11,,,58,127
79983,note_on,1,0,0,,0,,,60,127
79983,note_on,0,0,0,,10,,,57,127
80067,note_off,84,0,0,,10,,,57,127
80067,note_off,0,0,0,,0,,,60,127
80068,note_on,1,0,0,,2,,,62,127
80068,note_on,0,0,0,,11,,,58,127
80152,note_off,84,0,0,,11,,,58,127
80152,note_off,0,0,0,,2,,,62,127
80153,note_on,1,0,0,,3,,,63,127
80153,note_on,0,0,0,,0,,,60,127
80237,note_off,84,0,0,,0,,,60,127
80237,note_off,0,0,0,,3,,,63,127
80238,note_on,1,0,0,,5,,,65,127
80238,note_on,0,0,0,,2,,,62,127
80322,note_off,84,0,0,,2,,,62,127
80322,note_off,0,0,0,,5,,,65,127
80323,note_on,1,0,0,,7,,,67,127
80323,note_on,0,0,0,,3,,,63,127
80450,note_off,127,0,0,,7,,,67,127
80451,note_on,1,0,0,,10,,,69,127
80578,note_off,127,0,0,,10,,,69,127
80578,note_off,0,0,0,,3,,,63,127
80579,note_on,1,0,0,,11,,,70,127
80579,note_on,0,0,0,,2,,,62,127
80663,note_off,84,0,0,,11,,,70,127
80664,note_on,1,0,0,,0,,,72,127
80748,note_off,84,0,0,,0,,,72,127
80749,note_on,1,0,0,,2,,,74,127
80833,note_off,84,0,0,,2,,,74,127
80833,note_off,0,0,0,,2,,,62,127
80834,note_on,1,0,0,,5,,,77,127
80834,note_on,0,0,0,,0,,,60,127
80897,note_off,63,0,0,,5,,,77,127
80898,note_on,1,0,0,,3,,,75,127
80961,note_off,63,0,0,,3,,,75,127
80962,note_on,1,0,0,,5,,,77,127
81025,note_off,63,0,0,,5,,,77,127
81026,note_on,1,0,0,,3,,,75,127
81089,note_off,63,0,0,,3,,,75,127
81089,note_off,0,0,0,,0,,,60,127
81090,note_on,1,0,0,,5,,,77,127
81090,note_on,0,0,0,,11,,,58,127
81153,note_off,63,0,0,,5,,,77,127
81154,note_on,1,0,0,,3,,,75,127
81217,note_off,63,0,0,,3,,,75,127
81218,note_on,1,0,0,,2,,,74,127
81345,note_off,127,0,0,,2,,,74,127
81345,note_off,0,0,0,,11,,,58,127
81346,note_on,1,0,0,,3,,,75,127
81346,note_on,0,0,0,,10,,,57,127
81601,note_off,255,0,0,,10,,,57,127
81602,note_on,1,0,0,,7,,,55,127
81857,note_off,255,0,0,,7,,,55,127
81858,note_on,1,0,0,,5,,,53,127
81942,note_off,84,0,0,,3,,,75,127
81943,note_on,1,0,0,,5,,,77,127
82027,note_off,84,0,0,,5,,,77,127
82028,note_on,1,0,0,,3,,,75,127
82112,note_off,84,0,0,,3,,,75,127
82113,note_on,1,0,0,,2,,,74,127
82197,note_off,84,0,0,,2,,,74,127
82198,note_on,1,0,0,,0,,,72,127
82282,note_off,84,0,0,,0,,,72,127
82283,note_on,1,0,0,,11,,,70,127
82367,note_off,84,0,0,,11,,,70,127
82368,note_on,1,0,0,,10,,,69,127
82452,note_off,84,0,0,,10,,,69,127
82453,note_on,1,0,0,,7,,,67,127
82537,note_off,84,0,0,,7,,,67,127
82538,note_on,1,0,0,,5,,,65,127
82622,note_off,84,0,0,,5,,,65,127
82623,note_on,1,0,0,,3,,,63,127
82707,note_off,84,0,0,,3,,,63,127
82708,note_on,1,0,0,,2,,,62,127
82748,note_off,40,0,0,,5,,,53,127
82792,note_off,44,0,0,,2,,,62,127
82793,note_on,1,0,0,,0,,,60,127
82877,note_off,84,0,0,,0,,,60,127
82878,note_on,1,0,0,,11,,,70,127
83133,note_off,255,0,0,,11,,,70,127
83134,note_on,1,0,0,,0,,,72,127
83134,note_on,0,0,0,,2,,,50,127
83389,note_off,255,0,0,,2,,,50,127
83389,note_off,0,0,0,,0,,,72,127
83390,note_on,1,0,0,,2,,,74,127
83390,note_on,0,0,0,,3,,,51,127
83474,note_off,84,0,0,,2,,,74,127
83475,note_on,1,0,0,,0,,,72,127
83559,note_off,84,0,0,,0,,,72,127
83560,note_on,1,0,0,,2,,,74,127
83644,note_off,84,0,0,,2,,,74,127
83644,note_off,0,0,0,,3,,,51,127
83645,note_on,1,0,0,,0,,,72,127
83645,note_on,0,0,0,,5,,,53,127
83772,note_off,127,0,0,,0,,,72,127
83773,note_on,1,0,0,,11,,,70,127
83900,note_off,127,0,0,,11,,,70,127
83900,note_off,0,0,0,,5,,,53,127
83901,note_on,1,0,0,,11,,,70,127
83901,note_on,0,0,0,,11,,,46,127
83985,note_off,84,0,0,,11,,,46,127
83986,note_on,1,0,0,,5,,,65,127
84070,note_off,84,0,0,,5,,,65,127
84071,note_on,1,0,0,,3,,,63,127
84155,note_off,84,0,0,,3,,,63,127
84156,note_on,1,0,0,,2,,,62,127
84240,note_off,84,0,0,,2,,,62,127
84241,note_on,1,0,0,,0,,,60,127
84325,note_off,84,0,0,,0,,,60,127
84326,note_on,1,0,0,,11,,,58,127
84406,note_off,80,0,0,,11,,,70,127
84410,note_off,4,0,0,,11,,,58,127
84411,note_on,1,0,0,,10,,,57,127
84495,note_off,84,0,0,,10,,,57,127
84496,note_on,1,0,0,,7,,,55,127
84580,note_off,84,0,0,,7,,,55,127
84581,note_on,1,0,0,,5,,,53,127
84665,note_off,84,0,0,,5,,,53,127
84666,note_on,1,0,0,,3,,,51,127
84750,note_off,84,0,0,,3,,,51,127
84751,note_on,1,0,0,,2,,,50,127
84835,note_off,84,0,0,,2,,,50,127
84836,note_on,1,0,0,,0,,,48,127
84920,note_off,84,0,0,,0,,,48,127
84921,note_on,1,0,0,,11,,,46,127
85177,note_on,256,0,0,,11,,,70,127
85177,note_on,0,0,0,,11,,,82,127
85432,note_off,255,0,0,,11,,,82,127
85433,note_on,1,0,0,,8,,,80,127
85641,note_off,208,0,0,,11,,,46,127
85688,note_off,47,0,0,,8,,,80,127
85689,note_on,1,0,0,,5,,,77,127
85689,note_on,0,0,0,,2,,,50,127
85944,note_off,255,0,0,,2,,,50,127
85944,note_off,0,0,0,,5,,,77,127
85944,note_off,0,0,0,,11,,,70,127
85945,note_on,1,0,0,,6,,,78,127
85945,note_on,0,0,0,,3,,,51,127
86200,note_off,255,0,0,,6,,,78,127
86201,note_on,1,0,0,,3,,,87,127
86201,note_on,0,0,0,,7,,,79,127
86456,note_off,255,0,0,,7,,,79,127
86456,note_off,0,0,0,,3,,,87,127
86456,note_off,0,0,0,,3,,,51,127
86457,note_on,1,0,0,,2,,,86,127
86457,note_on,0,0,0,,5,,,77,127
86457,note_on,0,0,0,,3,,,39,127
86712,note_off,255,0,0,,5,,,77,127
86712,note_off,0,0,0,,2,,,86,127
86713,note_on,1,0,0,,3,,,75,127
86713,note_on,0,0,0,,0,,,84,127
86968,note_off,255,0,0,,0,,,84,127
86968,note_off,0,0,0,,3,,,75,127
86968,note_off,0,0,0,,3,,,39,127
86969,note_on,1,0,0,,11,,,82,127
86969,note_on,0,0,0,,2,,,74,127
86969,note_on,0,0,0,,5,,,53,127
87224,note_off,255,0,0,,2,,,74,127
87224,note_off,0,0,0,,11,,,82,127
87225,note_on,1,0,0,,0,,,84,127
87288,note_off,63,0,0,,0,,,84,127
87289,note_on,1,0,0,,11,,,82,127
87352,note_off,63,0,0,,11,,,82,127
87353,note_on,1,0,0,,10,,,81,127
87416,note_off,63,0,0,,10,,,81,127
87417,note_on,1,0,0,,11,,,82,127
87480,note_off,63,0,0,,11,,,82,127
87480,note_off,0,0,0,,5,,,53,127
87481,note_on,1,0,0,,2,,,86,127
87481,note_on,0,0,0,,5,,,41,127
87544,note_off,63,0,0,,2,,,86,127
87545,note_on,1,0,0,,0,,,84,127
87608,note_off,63,0,0,,0,,,84,127
87609,note_on,1,0,0,,2,,,86,127
87672,note_off,63,0,0,,2,,,86,127
87673,note_on,1,0,0,,0,,,84,127
87736,note_off,63,0,0,,0,,,84,127
87737,note_on,1,0,0,,2,,,86,127
87800,note_off,63,0,0,,2,,,86,127
87801,note_on,1,0,0,,0,,,84,127
87864,note_off,63,0,0,,0,,,84,127
87865,note_on,1,0,0,,11,,,82,127
87992,note_off,127,0,0,,11,,,82,127
87992,note_off,0,0,0,,5,,,41,127
87993,note_on,1,0,0,,11,,,82,127
87993,note_on,0,0,0,,11,,,46,127
88077,note_off,84,0,0,,11,,,46,127
88078,note_on,1,0,0,,5,,,65,127
88162,note_off,84,0,0,,5,,,65,127
88163,note_on,1,0,0,,3,,,63,127
88247,note_off,84,0,0,,3,,,63,127
88248,note_on,1,0,0,,2,,,62,127
88332,note_off,84,0,0,,2,,,62,127
88333,note_on,1,0,0,,0,,,60,127
88417,note_off,84,0,0,,0,,,60,127
88418,note_on,1,0,0,,11,,,58,127
88498,note_off,80,0,0,,11,,,82,127
88502,note_off,4,0,0,,11,,,58,127
88503,note_on,1,0,0,,10,,,57,127
88587,note_off,84,0,0,,10,,,57,127
88588,note_on,1,0,0,,7,,,55,127
88672,note_off,84,0,0,,7,,,55,127
88673,note_on,1,0,0,,5,,,53,127
88757,note_off,84,0,0,,5,,,53,127
88758,note_on,1,0,0,,3,,,51,127
88842,note_off,84,0,0,,3,,,51,127
88843,note_on,1,0,0,,2,,,50,127
88927,note_off,84,0,0,,2,,,50,127
88928,note_on,1,0,0,,0,,,48,127
89012,note_off,84,0,0,,0,,,48,127
89013,note_on,1,0,0,,11,,,46,127
89269,note_on,256,0,0,,11,,,70,127
89269,note_on,0,0,0,,11,,,82,127
89520,note_off,251,0,0,,11,,,46,127
89524,note_off,4,0,0,,11,,,82,127
89525,note_on,1,0,0,,8,,,80,127
89780,note_off,255,0,0,,8,,,80,127
89781,note_on,1,0,0,,5,,,77,127
89781,note_on,0,0,0,,2,,,50,127
90036,note_off,255,0,0,,2,,,50,127
90036,note_off,0,0,0,,5,,,77,127
90036,note_off,0,0,0,,11,,,70,127
90037,note_on,1,0,0,,6,,,78,127
90037,note_on,0,0,0,,3,,,51,127
90292,note_off,255,0,0,,6,,,78,127
90293,note_on,1,0,0,,7,,,79,127
90548,note_off,255,0,0,,7,,,79,127
90548,note_off,0,0,0,,3,,,51,127
90549,note_on,1,0,0,,5,,,77,127
90549,note_on,0,0,0,,3,,,39,127
90633,note_off,84,0,0,,5,,,77,127
90634,note_on,1,0,0,,3,,,75,127
90803,note_off,169,0,0,,3,,,75,127
90804,note_on,1,0,0,,2,,,74,127
90888,note_off,84,0,0,,2,,,74,127
90889,note_on,1,0,0,,0,,,72,127
91058,note_off,169,0,0,,0,,,72,127
91058,note_off,0,0,0,,3,,,39,127
91059,note_on,1,0,0,,11,,,70,127
91059,note_on,0,0,0,,5,,,53,127
91314,note_off,255,0,0,,11,,,70,127
91315,note_on,1,0,0,,0,,,72,127
91366,note_off,51,0,0,,0,,,72,127
91367,note_on,1,0,0,,11,,,70,127
91419,note_on,52,0,0,,10,,,69,127
91420,note_off,1,0,0,,11,,,70,127
91469,note_off,49,0,0,,10,,,69,127
91470,note_on,1,0,0,,11,,,70,127
91522,note_on,52,0,0,,0,,,72,127
91523,note_off,1,0,0,,11,,,70,127
91568,note_off,45,0,0,,0,,,72,127
91568,note_off,0,0,0,,5,,,53,127
91569,note_on,1,0,0,,2,,,74,127
91569,note_on,0,0,0,,5,,,41,127
91632,note_off,63,0,0,,2,,,74,127
91633,note_on,1,0,0,,0,,,72,127
91696,note_off,63,0,0,,0,,,72,127
91697,note_on,1,0,0,,2,,,74,127
91760,note_off,63,0,0,,2,,,74,127
91761,note_on,1,0,0,,0,,,72,127
91824,note_off,63,0,0,,0,,,72,127
91825,note_on,1,0,0,,2,,,74,127
91888,note_off,63,0,0,,2,,,74,127
91889,note_on,1,0,0,,0,,,72,127
91952,note_off,63,0,0,,0,,,72,127
91953,note_on,1,0,0,,2,,,74,127
92016,note_off,63,0,0,,2,,,74,127
92017,note_on,1,0,0,,0,,,72,127
92080,note_off,63,0,0,,0,,,72,127
92080,note_off,0,0,0,,5,,,41,127
92081,note_on,1,0,0,,11,,,70,127
92081,note_on,0,0,0,,11,,,46,127
92165,note_off,84,0,0,,11,,,70,127
92166,note_on,1,0,0,,2,,,74,127
92250,note_off,84,0,0,,2,,,74,127
92251,note_on,1,0,0,,0,,,72,127
92335,note_off,84,0,0,,0,,,72,127
92336,note_on,1,0,0,,11,,,70,127
92420,note_off,84,0,0,,11,,,70,127
92421,note_on,1,0,0,,10,,,69,127
92505,note_off,84,0,0,,10,,,69,127
92506,note_on,1,0,0,,11,,,70,127
92586,note_off,80,0,0,,11,,,46,127
92590,note_off,4,0,0,,11,,,70,127
92591,note_on,1,0,0,,0,,,72,127
92846,note_off,255,0,0,,0,,,72,127
92847,note_on,1,0,0,,5,,,65,127
92847,note_on,0,0,0,,5,,,53,127
92847,note_on,0,0,0,,5,,,41,127
93102,note_off,255,0,0,,5,,,41,127
93102,note_off,0,0,0,,5,,,53,127
93102,note_off,0,0,0,,5,,,65,127
93103,note_on,1,0,0,,11,,,70,127
93103,note_on,0,0,0,,2,,,38,127
93103,note_on,0,0,0,,2,,,50,127
93187,note_off,84,0,0,,11,,,70,127
93188,note_on,1,0,0,,2,,,74,127
93272,note_off,84,0,0,,2,,,74,127
93273,note_on,1,0,0,,0,,,72,127
93357,note_off,84,0,0,,0,,,72,127
93357,note_off,0,0,0,,2,,,50,127
93357,note_off,0,0,0,,2,,,38,127
93358,note_on,1,0,0,,11,,,70,127
93358,note_on,0,0,0,,11,,,34,127
93358,note_on,0,0,0,,11,,,46,127
93442,note_off,84,0,0,,11,,,70,127
93443,note_on,1,0,0,,10,,,69,127
93527,note_off,84,0,0,,10,,,69,127
93528,note_on,1,0,0,,11,,,70,127
93611,note_off,83,0,0,,11,,,46,127
93611,note_off,0,0,0,,11,,,34,127
93612,note_off,1,0,0,,11,,,70,127
93613,note_on,1,0,0,,0,,,72,127
93868,note_off,255,0,0,,0,,,72,127
93869,note_on,1,0,0,,5,,,65,127
93869,note_on,0,0,0,,5,,,53,127
93869,note_on,0,0,0,,5,,,41,127
94124,note_off,255,0,0,,5,,,41,127
94124,note_off,0,0,0,,5,,,53,127
94124,note_off,0,0,0,,5,,,65,127
94125,note_on,1,0,0,,11,,,70,127
94125,note_on,0,0,0,,2,,,50,127
94125,note_on,0,0,0,,2,,,38,127
94209,note_off,84,0,0,,11,,,70,127
94210,note_on,1,0,0,,2,,,74,127
94294,note_off,84,0,0,,2,,,74,127
94295,note_on,1,0,0,,0,,,72,127
94379,note_off,84,0,0,,0,,,72,127
94379,note_off,0,0,0,,2,,,38,127
94379,note_off,0,0,0,,2,,,50,127
94380,note_on,1,0,0,,11,,,70,127
94380,note_on,0,0,0,,11,,,34,127
94380,note_on,0,0,0,,11,,,46,127
94464,note_off,84,0,0,,11,,,70,127
94465,note_on,1,0,0,,10,,,69,127
94549,note_off,84,0,0,,10,,,69,127
94550,note_on,1,0,0,,11,,,70,127
94633,note_off,83,0,0,,11,,,46,127
94633,note_off,0,0,0,,11,,,34,127
94634,note_off,1,0,0,,11,,,70,127
94635,note_on,1,0,0,,0,,,72,127
94890,note_off,255,0,0,,0,,,72,127
94891,note_on,1,0,0,,5,,,65,127
94891,note_on,0,0,0,,5,,,53,127
94891,note_on,0,0,0,,5,,,41,127
95146,note_off,255,0,0,,5,,,41,127
95146,note_off,0,0,0,,5,,,53,127
95146,note_off,0,0,0,,5,,,65,127
95147,note_on,1,0,0,,11,,,70,127
95147,note_on,0,0,0,,2,,,38,127
95147,note_on,0,0,0,,2,,,50,127
95231,note_off,84,0,0,,11,,,70,127
95232,note_on,1,0,0,,2,,,74,127
95316,note_off,84,0,0,,2,,,74,127
95317,note_on,1,0,0,,0,,,72,127
95401,note_off,84,0,0,,0,,,72,127
95401,note_off,0,0,0,,2,,,50,127
95401,note_off,0,0,0,,2,,,38,127
95402,note_on,1,0,0,,11,,,70,127
95402,note_on,0,0,0,,11,,,34,127
95402,note_on,0,0,0,,11,,,46,127
95486,note_off,84,0,0,,11,,,70,127
95487,note_on,1,0,0,,10,,,69,127
95571,note_off,84,0,0,,10,,,69,127
95572,note_on,1,0,0,,11,,,70,127
95656,note_off,84,0,0,,11,,,70,127
95656,note_off,0,0,0,,11,,,46,127
95656,note_off,0,0,0,,11,,,34,127
95657,note_on,1,0,0,,0,,,72,127
95657,note_on,0,0,0,,3,,,51,127
95657,note_on,0,0,0,,3,,,39,127
95912,note_off,255,0,0,,3,,,39,127
95912,note_off,0,0,0,,3,,,51,127
95912,note_off,0,0,0,,0,,,72,127
95913,note_on,1,0,0,,5,,,77,127
95913,note_on,0,0,0,,5,,,53,127
95913,note_on,0,0,0,,5,,,41,127
96168,note_off,255,0,0,,5,,,41,127
96168,note_off,0,0,0,,5,,,53,127
96168,note_off,0,0,0,,5,,,77,127
96169,note_on,1,0,0,,0,,,72,127
96169,note_on,0,0,0,,11,,,34,127
96169,note_on,0,0,0,,11,,,46,127
96210,note_off,41,0,0,,0,,,72,127
96211,note_on,1,0,0,,11,,,70,127
96252,note_off,41,0,0,,11,,,70,127
96253,note_on,1,0,0,,0,,,72,127
96294,note_off,41,0,0,,0,,,72,127
96295,note_on,1,0,0,,11,,,70,127
98215,note_off,1920,0,0,,11,,,70,127
98215,note_off,0,0,0,,11,,,46,127
98215,note_off,0,0,0,,11,,,34,127
99840,end_of_track,1625,1,0,,,,,,
