tick,type,time,meta,track,program,channel,pitch,tempo,note,velocity
0,copyright,0,1,0,,,,,,
0,program_change,0,0,0,6,0,,,,
0,pitchwheel,0,0,0,,0,0,,,
0,program_change,0,0,0,6,1,,,,
0,pitchwheel,0,0,0,,1,-590,,,
0,program_change,0,0,0,6,2,,,,
0,pitchwheel,0,0,0,,2,-272,,,
0,program_change,0,0,0,6,3,,,,
0,pitchwheel,0,0,0,,3,-353,,,
0,program_change,0,0,0,6,4,,,,
0,pitchwheel,0,0,0,,4,-560,,,
0,program_change,0,0,0,6,5,,,,
0,pitchwheel,0,0,0,,5,-80,,,
0,program_change,0,0,0,6,6,,,,
0,pitchwheel,0,0,0,,6,-625,,,
0,program_change,0,0,0,6,7,,,,
0,pitchwheel,0,0,0,,7,-130,,,
0,program_change,0,0,0,6,8,,,,
0,pitchwheel,0,0,0,,8,-512,,,
0,program_change,0,0,0,6,10,,,,
0,pitchwheel,0,0,0,,10,-464,,,
0,program_change,0,0,0,6,11,,,,
0,pitchwheel,0,0,0,,11,-208,,,
0,program_change,0,0,0,6,12,,,,
0,pitchwheel,0,0,0,,12,-553,,,
0,set_tempo,0,1,0,,,,500000,,
165,note_on,165,0,0,,2,,,74,127
489,note_off,324,0,0,,2,,,74,127
494,note_on,5,0,0,,2,,,74,127
653,note_off,159,0,0,,2,,,74,127
658,note_on,5,0,0,,2,,,74,127
817,note_off,159,0,0,,2,,,74,127
822,note_on,5,0,0,,2,,,74,127
981,note_off,159,0,0,,2,,,74,127
986,note_on,5,0,0,,3,,,75,127
1145,note_off,159,0,0,,3,,,75,127
1150,note_on,5,0,0,,5,,,77,127
1474,note_off,324,0,0,,5,,,77,127
1479,note_on,5,0,0,,5,,,77,127
1638,note_off,159,0,0,,5,,,77,127
1643,note_on,5,0,0,,5,,,77,127
1802,note_off,159,0,0,,5,,,77,127
1807,note_on,5,0,0,,7,,,79,127
1966,note_off,159,0,0,,7,,,79,127
1971,note_on,5,0,0,,10,,,81,127
2130,note_off,159,0,0,,10,,,81,127
2135,note_on,5,0,0,,11,,,82,127
2294,note_off,159,0,0,,11,,,82,127
2299,note_on,5,0,0,,5,,,77,127
2458,note_off,159,0,0,,5,,,77,127
2463,note_on,5,0,0,,2,,,74,127
2622,note_off,159,0,0,,2,,,74,127
2627,note_on,5,0,0,,11,,,70,127
2786,note_off,159,0,0,,11,,,70,127
2791,note_on,5,0,0,,0,,,72,127
2942,note_off,151,0,0,,0,,,72,127
2956,note_on,14,0,0,,5,,,65,127
3107,note_off,151,0,0,,5,,,65,127
3121,note_on,14,0,0,,11,,,82,127
3280,note_off,159,0,0,,11,,,82,127
3285,note_on,5,0,0,,5,,,77,127
3444,note_off,159,0,0,,5,,,77,127
3449,note_on,5,0,0,,2,,,74,127
3608,note_off,159,0,0,,2,,,74,127
3613,note_on,5,0,0,,11,,,70,127
3772,note_off,159,0,0,,11,,,70,127
3777,note_on,5,0,0,,0,,,72,127
3916,note_off,139,0,0,,0,,,72,127
3942,note_on,26,0,0,,5,,,65,127
4084,note_off,142,0,0,,5,,,65,127
4106,note_on,22,0,0,,11,,,82,127
4265,note_off,159,0,0,,11,,,82,127
4270,note_on,5,0,0,,5,,,77,127
4429,note_off,159,0,0,,5,,,77,127
4434,note_on,5,0,0,,2,,,74,127
4593,note_off,159,0,0,,2,,,74,127
4598,note_on,5,0,0,,11,,,70,127
4757,note_off,159,0,0,,11,,,70,127
4762,note_on,5,0,0,,0,,,72,127
4887,note_off,125,0,0,,0,,,72,127
4926,note_on,39,0,0,,5,,,65,127
5058,note_off,132,0,0,,5,,,65,127
5091,note_on,33,0,0,,2,,,62,127
5091,note_on,0,0,0,,2,,,74,127
5091,note_on,0,0,0,,11,,,70,127
5415,note_off,324,0,0,,2,,,62,127
5420,note_on,5,0,0,,2,,,62,127
5579,note_off,159,0,0,,2,,,62,127
5584,note_on,5,0,0,,2,,,62,127
5743,note_off,159,0,0,,2,,,62,127
5748,note_on,5,0,0,,2,,,62,127
5907,note_off,159,0,0,,2,,,62,127
5912,note_on,5,0,0,,3,,,63,127
6071,note_off,159,0,0,,3,,,63,127
6071,note_off,0,0,0,,11,,,70,127
6071,note_off,0,0,0,,2,,,74,127
6076,note_on,5,0,0,,5,,,65,127
6076,note_on,0,0,0,,0,,,72,127
6076,note_on,0,0,0,,10,,,69,127
6400,note_off,324,0,0,,10,,,69,127
6400,note_off,0,0,0,,0,,,72,127
6400,note_off,0,0,0,,5,,,65,127
6405,note_on,5,0,0,,5,,,65,127
6405,note_on,0,0,0,,5,,,77,127
6564,note_off,159,0,0,,5,,,65,127
6569,note_on,5,0,0,,5,,,65,127
6728,note_off,159,0,0,,5,,,65,127
6728,note_off,0,0,0,,5,,,77,127
6733,note_on,5,0,0,,7,,,67,127
6733,note_on,0,0,0,,3,,,75,127
6892,note_off,159,0,0,,7,,,67,127
6897,note_on,5,0,0,,10,,,69,127
7056,note_off,159,0,0,,10,,,69,127
7056,note_off,0,0,0,,3,,,75,127
7061,note_on,5,0,0,,11,,,70,127
7061,note_on,0,0,0,,2,,,74,127
7220,note_off,159,0,0,,11,,,70,127
7225,note_on,5,0,0,,5,,,65,127
7384,note_off,159,0,0,,5,,,65,127
7389,note_on,5,0,0,,2,,,62,127
7548,note_off,159,0,0,,2,,,62,127
7553,note_off,5,0,0,,2,,,74,127
7553,note_on,0,0,0,,11,,,58,127
7712,note_off,159,0,0,,11,,,58,127
7717,note_on,5,0,0,,0,,,60,127
7717,note_on,0,0,0,,5,,,77,127
7786,note_off,69,0,0,,5,,,77,127
7800,note_on,14,0,0,,3,,,75,127
7869,note_off,69,0,0,,3,,,75,127
7872,note_off,3,0,0,,0,,,60,127
7882,note_on,10,0,0,,5,,,53,127
7882,note_on,0,0,0,,5,,,77,127
7951,note_off,69,0,0,,5,,,77,127
7965,note_on,14,0,0,,3,,,75,127
8034,note_off,69,0,0,,3,,,75,127
8037,note_off,3,0,0,,5,,,53,127
8047,note_on,10,0,0,,11,,,70,127
8047,note_on,0,0,0,,2,,,74,127
8206,note_off,159,0,0,,11,,,70,127
8211,note_on,5,0,0,,5,,,65,127
8370,note_off,159,0,0,,5,,,65,127
8375,note_on,5,0,0,,2,,,62,127
8534,note_off,159,0,0,,2,,,62,127
8539,note_on,5,0,0,,11,,,58,127
8594,note_off,55,0,0,,2,,,74,127
8699,note_off,105,0,0,,11,,,58,127
8704,note_on,5,0,0,,0,,,60,127
8704,note_on,0,0,0,,5,,,77,127
8773,note_off,69,0,0,,5,,,77,127
8787,note_on,14,0,0,,3,,,75,127
8856,note_off,69,0,0,,3,,,75,127
8856,note_off,0,0,0,,0,,,60,127
8870,note_on,14,0,0,,5,,,53,127
8870,note_on,0,0,0,,5,,,77,127
8939,note_off,69,0,0,,5,,,77,127
8953,note_on,14,0,0,,3,,,75,127
9022,note_off,69,0,0,,3,,,75,127
9022,note_off,0,0,0,,5,,,53,127
9036,note_on,14,0,0,,11,,,70,127
9036,note_on,0,0,0,,2,,,74,127
9195,note_off,159,0,0,,11,,,70,127
9200,note_on,5,0,0,,5,,,65,127
9359,note_off,159,0,0,,5,,,65,127
9364,note_on,5,0,0,,2,,,62,127
9523,note_off,159,0,0,,2,,,62,127
9528,note_on,5,0,0,,11,,,58,127
9634,note_off,106,0,0,,2,,,74,127
9687,note_off,53,0,0,,11,,,58,127
9692,note_on,5,0,0,,0,,,60,127
9692,note_on,0,0,0,,5,,,77,127
9761,note_off,69,0,0,,5,,,77,127
9775,note_on,14,0,0,,3,,,75,127
9837,note_off,62,0,0,,0,,,60,127
9844,note_off,7,0,0,,3,,,75,127
9858,note_on,14,0,0,,5,,,53,127
9858,note_on,0,0,0,,5,,,77,127
9927,note_off,69,0,0,,5,,,77,127
9941,note_on,14,0,0,,3,,,75,127
10003,note_off,62,0,0,,5,,,53,127
10010,note_off,7,0,0,,3,,,75,127
10024,note_on,14,0,0,,11,,,58,127
10024,note_on,0,0,0,,2,,,74,127
10183,note_off,159,0,0,,2,,,74,127
10188,note_on,5,0,0,,5,,,77,127
10347,note_off,159,0,0,,5,,,77,127
10352,note_on,5,0,0,,2,,,74,127
10511,note_off,159,0,0,,2,,,74,127
10516,note_on,5,0,0,,11,,,70,127
10660,note_off,144,0,0,,11,,,58,127
10675,note_off,15,0,0,,11,,,70,127
10680,note_on,5,0,0,,2,,,50,127
10680,note_on,0,0,0,,5,,,65,127
10839,note_off,159,0,0,,5,,,65,127
10844,note_on,5,0,0,,10,,,69,127
11003,note_off,159,0,0,,10,,,69,127
11003,note_off,0,0,0,,2,,,50,127
11008,note_on,5,0,0,,3,,,51,127
11008,note_on,0,0,0,,7,,,67,127
11167,note_off,159,0,0,,7,,,67,127
11172,note_on,5,0,0,,7,,,79,127
11331,note_off,159,0,0,,7,,,79,127
11336,note_on,5,0,0,,3,,,75,127
11495,note_off,159,0,0,,3,,,75,127
11500,note_on,5,0,0,,0,,,72,127
11644,note_off,144,0,0,,3,,,51,127
11659,note_off,15,0,0,,0,,,72,127
11664,note_on,5,0,0,,5,,,53,127
11664,note_on,0,0,0,,10,,,69,127
11823,note_off,159,0,0,,10,,,69,127
11828,note_on,5,0,0,,3,,,75,127
11987,note_off,159,0,0,,3,,,75,127
11987,note_off,0,0,0,,5,,,53,127
11992,note_on,5,0,0,,11,,,58,127
11992,note_on,0,0,0,,2,,,74,127
12151,note_off,159,0,0,,2,,,74,127
12156,note_on,5,0,0,,5,,,77,127
12315,note_off,159,0,0,,5,,,77,127
12320,note_on,5,0,0,,2,,,74,127
12479,note_off,159,0,0,,2,,,74,127
12484,note_on,5,0,0,,11,,,70,127
12628,note_off,144,0,0,,11,,,58,127
12643,note_off,15,0,0,,11,,,70,127
12648,note_on,5,0,0,,2,,,50,127
12648,note_on,0,0,0,,5,,,65,127
12807,note_off,159,0,0,,5,,,65,127
12812,note_on,5,0,0,,10,,,69,127
12971,note_off,159,0,0,,10,,,69,127
12971,note_off,0,0,0,,2,,,50,127
12976,note_on,5,0,0,,3,,,51,127
12976,note_on,0,0,0,,7,,,67,127
13135,note_off,159,0,0,,7,,,67,127
13140,note_on,5,0,0,,7,,,79,127
13299,note_off,159,0,0,,7,,,79,127
13304,note_on,5,0,0,,3,,,75,127
13463,note_off,159,0,0,,3,,,75,127
13468,note_on,5,0,0,,0,,,72,127
13617,note_off,149,0,0,,3,,,51,127
13627,note_off,10,0,0,,0,,,72,127
13632,note_on,5,0,0,,5,,,53,127
13632,note_on,0,0,0,,10,,,69,127
13791,note_off,159,0,0,,10,,,69,127
13796,note_on,5,0,0,,3,,,75,127
13955,note_off,159,0,0,,3,,,75,127
13955,note_off,0,0,0,,5,,,53,127
13960,note_on,5,0,0,,11,,,58,127
13960,note_on,0,0,0,,2,,,74,127
13960,note_on,0,0,0,,11,,,70,127
14119,note_off,159,0,0,,11,,,58,127
14124,note_on,5,0,0,,5,,,65,127
14283,note_off,159,0,0,,5,,,65,127
14288,note_on,5,0,0,,2,,,62,127
14447,note_off,159,0,0,,2,,,62,127
14452,note_on,5,0,0,,11,,,58,127
14611,note_off,159,0,0,,11,,,58,127
14611,note_off,0,0,0,,11,,,70,127
14611,note_off,0,0,0,,2,,,74,127
14616,note_on,5,0,0,,2,,,50,127
14616,note_on,0,0,0,,2,,,74,127
14616,note_on,0,0,0,,7,,,79,127
14685,note_off,69,0,0,,7,,,79,127
14699,note_on,14,0,0,,5,,,77,127
14768,note_off,69,0,0,,5,,,77,127
14777,note_off,9,0,0,,2,,,50,127
14782,note_on,5,0,0,,11,,,58,127
14782,note_on,0,0,0,,7,,,79,127
14851,note_off,69,0,0,,7,,,79,127
14865,note_on,14,0,0,,5,,,77,127
14875,note_off,10,0,0,,2,,,74,127
14933,note_off,58,0,0,,5,,,77,127
14942,note_off,9,0,0,,11,,,58,127
14947,note_on,5,0,0,,3,,,51,127
14947,note_on,0,0,0,,0,,,72,127
14947,note_on,0,0,0,,3,,,75,127
15106,note_off,159,0,0,,3,,,51,127
15111,note_on,5,0,0,,3,,,63,127
15270,note_off,159,0,0,,3,,,63,127
15275,note_on,5,0,0,,0,,,60,127
15434,note_off,159,0,0,,0,,,60,127
15439,note_on,5,0,0,,10,,,57,127
15528,note_off,89,0,0,,3,,,75,127
15598,note_off,70,0,0,,10,,,57,127
15598,note_off,0,0,0,,0,,,72,127
15603,note_on,5,0,0,,5,,,53,127
15603,note_on,0,0,0,,0,,,72,127
15603,note_on,0,0,0,,5,,,77,127
15672,note_off,69,0,0,,5,,,77,127
15686,note_on,14,0,0,,3,,,75,127
15755,note_off,69,0,0,,3,,,75,127
15764,note_off,9,0,0,,5,,,53,127
15769,note_on,5,0,0,,10,,,57,127
15769,note_on,0,0,0,,5,,,77,127
15838,note_off,69,0,0,,5,,,77,127
15852,note_on,14,0,0,,3,,,75,127
15862,note_off,10,0,0,,0,,,72,127
15920,note_off,58,0,0,,3,,,75,127
15929,note_off,9,0,0,,10,,,57,127
15934,note_on,5,0,0,,11,,,58,127
15934,note_on,0,0,0,,11,,,70,127
15934,note_on,0,0,0,,2,,,74,127
16093,note_off,159,0,0,,11,,,58,127
16098,note_on,5,0,0,,5,,,65,127
16257,note_off,159,0,0,,5,,,65,127
16262,note_on,5,0,0,,2,,,62,127
16421,note_off,159,0,0,,2,,,62,127
16426,note_on,5,0,0,,11,,,58,127
16481,note_off,55,0,0,,2,,,74,127
16586,note_off,105,0,0,,11,,,58,127
16586,note_off,0,0,0,,11,,,70,127
16591,note_on,5,0,0,,2,,,50,127
16591,note_on,0,0,0,,7,,,79,127
16591,note_on,0,0,0,,2,,,74,127
16660,note_off,69,0,0,,7,,,79,127
16674,note_on,14,0,0,,5,,,77,127
16743,note_off,69,0,0,,5,,,77,127
16752,note_off,9,0,0,,2,,,50,127
16757,note_on,5,0,0,,11,,,58,127
16757,note_on,0,0,0,,7,,,79,127
16826,note_off,69,0,0,,7,,,79,127
16840,note_on,14,0,0,,5,,,77,127
16850,note_off,10,0,0,,2,,,74,127
16908,note_off,58,0,0,,5,,,77,127
16917,note_off,9,0,0,,11,,,58,127
16922,note_on,5,0,0,,3,,,51,127
16922,note_on,0,0,0,,3,,,75,127
16922,note_on,0,0,0,,0,,,72,127
17081,note_off,159,0,0,,3,,,51,127
17086,note_on,5,0,0,,3,,,63,127
17245,note_off,159,0,0,,3,,,63,127
17250,note_on,5,0,0,,0,,,60,127
17409,note_off,159,0,0,,0,,,60,127
17414,note_on,5,0,0,,10,,,57,127
17503,note_off,89,0,0,,0,,,72,127
17503,note_off,0,0,0,,3,,,75,127
17573,note_off,70,0,0,,10,,,57,127
17578,note_on,5,0,0,,5,,,53,127
17578,note_on,0,0,0,,0,,,72,127
17578,note_on,0,0,0,,5,,,77,127
17647,note_off,69,0,0,,5,,,77,127
17661,note_on,14,0,0,,3,,,75,127
17730,note_off,69,0,0,,3,,,75,127
17739,note_off,9,0,0,,5,,,53,127
17744,note_on,5,0,0,,10,,,57,127
17744,note_on,0,0,0,,5,,,77,127
17813,note_off,69,0,0,,5,,,77,127
17827,note_on,14,0,0,,3,,,75,127
17837,note_off,10,0,0,,0,,,72,127
17895,note_off,58,0,0,,3,,,75,127
17904,note_off,9,0,0,,10,,,57,127
17909,note_on,5,0,0,,11,,,58,127
17909,note_on,0,0,0,,2,,,74,127
18074,note_on,165,0,0,,2,,,86,127
18233,note_off,159,0,0,,2,,,86,127
18235,note_off,2,0,0,,2,,,74,127
18238,note_on,3,0,0,,2,,,74,127
18397,note_off,159,0,0,,11,,,58,127
18402,note_on,5,0,0,,11,,,70,127
18561,note_off,159,0,0,,11,,,70,127
18566,note_on,5,0,0,,11,,,58,127
18725,note_off,159,0,0,,11,,,58,127
18730,note_on,5,0,0,,11,,,46,127
18888,note_off,158,0,0,,2,,,74,127
18890,note_off,2,0,0,,11,,,46,127
18895,note_on,5,0,0,,10,,,45,127
19060,note_on,165,0,0,,0,,,84,127
19219,note_off,159,0,0,,0,,,84,127
19224,note_on,5,0,0,,0,,,72,127
19383,note_off,159,0,0,,10,,,45,127
19388,note_on,5,0,0,,10,,,69,127
19547,note_off,159,0,0,,10,,,69,127
19552,note_on,5,0,0,,10,,,57,127
19711,note_off,159,0,0,,10,,,57,127
19716,note_on,5,0,0,,10,,,45,127
19874,note_off,158,0,0,,0,,,72,127
19876,note_off,2,0,0,,10,,,45,127
19881,note_on,5,0,0,,7,,,43,127
20046,note_on,165,0,0,,11,,,82,127
20205,note_off,159,0,0,,11,,,82,127
20210,note_on,5,0,0,,11,,,70,127
20369,note_off,159,0,0,,7,,,43,127
20374,note_on,5,0,0,,7,,,67,127
20533,note_off,159,0,0,,7,,,67,127
20538,note_on,5,0,0,,7,,,55,127
20697,note_off,159,0,0,,7,,,55,127
20702,note_on,5,0,0,,7,,,43,127
20860,note_off,158,0,0,,11,,,70,127
20862,note_off,2,0,0,,7,,,43,127
20867,note_on,5,0,0,,5,,,41,127
21032,note_on,165,0,0,,10,,,81,127
21191,note_off,159,0,0,,10,,,81,127
21196,note_on,5,0,0,,10,,,69,127
21355,note_off,159,0,0,,5,,,41,127
21360,note_on,5,0,0,,5,,,65,127
21519,note_off,159,0,0,,5,,,65,127
21524,note_on,5,0,0,,5,,,53,127
21683,note_off,159,0,0,,5,,,53,127
21688,note_on,5,0,0,,5,,,41,127
21846,note_off,158,0,0,,10,,,69,127
21848,note_off,2,0,0,,5,,,41,127
21853,note_on,5,0,0,,11,,,46,127
22018,note_on,165,0,0,,2,,,74,127
22183,note_on,165,0,0,,11,,,82,127
22342,note_off,159,0,0,,11,,,82,127
22344,note_off,2,0,0,,2,,,74,127
22347,note_on,3,0,0,,10,,,81,127
22347,note_on,0,0,0,,0,,,72,127
22506,note_off,159,0,0,,0,,,72,127
22506,note_off,0,0,0,,10,,,81,127
22511,note_on,5,0,0,,7,,,79,127
22511,note_on,0,0,0,,11,,,70,127
22670,note_off,159,0,0,,11,,,70,127
22670,note_off,0,0,0,,7,,,79,127
22675,note_on,5,0,0,,5,,,77,127
22675,note_on,0,0,0,,10,,,69,127
22834,note_off,159,0,0,,10,,,69,127
22834,note_off,0,0,0,,5,,,77,127
22834,note_off,0,0,0,,11,,,46,127
22839,note_on,5,0,0,,0,,,48,127
22839,note_on,0,0,0,,4,,,76,127
22839,note_on,0,0,0,,7,,,67,127
22998,note_off,159,0,0,,7,,,67,127
22998,note_off,0,0,0,,4,,,76,127
23003,note_on,5,0,0,,5,,,65,127
23003,note_on,0,0,0,,2,,,74,127
23162,note_off,159,0,0,,2,,,74,127
23162,note_off,0,0,0,,5,,,65,127
23167,note_on,5,0,0,,4,,,64,127
23167,note_on,0,0,0,,0,,,72,127
23326,note_off,159,0,0,,0,,,72,127
23326,note_off,0,0,0,,4,,,64,127
23331,note_on,5,0,0,,2,,,62,127
23331,note_on,0,0,0,,11,,,70,127
23490,note_off,159,0,0,,11,,,70,127
23490,note_off,0,0,0,,2,,,62,127
23495,note_on,5,0,0,,10,,,69,127
23495,note_on,0,0,0,,0,,,60,127
23654,note_off,159,0,0,,0,,,60,127
23654,note_off,0,0,0,,10,,,69,127
23659,note_on,5,0,0,,7,,,67,127
23659,note_on,0,0,0,,11,,,58,127
23818,note_off,159,0,0,,11,,,58,127
23818,note_off,0,0,0,,7,,,67,127
23818,note_off,0,0,0,,0,,,48,127
23823,note_on,5,0,0,,2,,,50,127
23823,note_on,0,0,0,,5,,,65,127
23823,note_on,0,0,0,,10,,,57,127
23982,note_off,159,0,0,,10,,,57,127
23982,note_off,0,0,0,,5,,,65,127
23987,note_on,5,0,0,,7,,,55,127
23987,note_on,0,0,0,,4,,,64,127
24146,note_off,159,0,0,,4,,,64,127
24146,note_off,0,0,0,,7,,,55,127
24151,note_on,5,0,0,,10,,,57,127
24151,note_on,0,0,0,,5,,,65,127
24310,note_off,159,0,0,,5,,,65,127
24310,note_off,0,0,0,,10,,,57,127
24315,note_on,5,0,0,,7,,,67,127
24315,note_on,0,0,0,,12,,,59,127
24474,note_off,159,0,0,,12,,,59,127
24474,note_off,0,0,0,,7,,,67,127
24479,note_on,5,0,0,,0,,,60,127
24479,note_on,0,0,0,,10,,,69,127
24638,note_off,159,0,0,,10,,,69,127
24638,note_off,0,0,0,,0,,,60,127
24643,note_on,5,0,0,,12,,,71,127
24643,note_on,0,0,0,,2,,,62,127
24746,note_off,103,0,0,,2,,,50,127
24803,note_off,57,0,0,,2,,,62,127
24803,note_off,0,0,0,,12,,,71,127
24808,note_on,5,0,0,,4,,,64,127
24808,note_on,0,0,0,,0,,,72,127
24890,note_on,82,0,0,,0,,,36,127
24959,note_off,69,0,0,,0,,,36,127
24973,note_on,14,0,0,,4,,,40,127
25042,note_off,69,0,0,,4,,,40,127
25056,note_on,14,0,0,,7,,,43,127
25125,note_off,69,0,0,,7,,,43,127
25139,note_on,14,0,0,,0,,,48,127
25208,note_off,69,0,0,,0,,,48,127
25222,note_on,14,0,0,,4,,,52,127
25291,note_off,69,0,0,,4,,,52,127
25305,note_on,14,0,0,,7,,,55,127
25374,note_off,69,0,0,,7,,,55,127
25388,note_on,14,0,0,,0,,,60,127
25457,note_off,69,0,0,,0,,,60,127
25466,note_off,9,0,0,,0,,,72,127
25466,note_off,0,0,0,,4,,,64,127
25471,note_on,5,0,0,,4,,,64,127
25540,note_off,69,0,0,,4,,,64,127
25554,note_on,14,0,0,,7,,,67,127
25623,note_off,69,0,0,,7,,,67,127
25637,note_on,14,0,0,,0,,,72,127
25706,note_off,69,0,0,,0,,,72,127
25720,note_on,14,0,0,,4,,,76,127
25789,note_off,69,0,0,,4,,,76,127
25803,note_on,14,0,0,,4,,,52,127
25803,note_on,0,0,0,,0,,,60,127
25803,note_on,0,0,0,,7,,,79,127
25962,note_off,159,0,0,,7,,,79,127
25967,note_on,5,0,0,,7,,,67,127
26126,note_off,159,0,0,,7,,,67,127
26126,note_off,0,0,0,,4,,,52,127
26131,note_on,5,0,0,,5,,,53,127
26131,note_on,0,0,0,,10,,,81,127
26290,note_off,159,0,0,,10,,,81,127
26295,note_on,5,0,0,,10,,,69,127
26454,note_off,159,0,0,,10,,,69,127
26454,note_off,0,0,0,,5,,,53,127
26459,note_on,5,0,0,,2,,,50,127
26459,note_on,0,0,0,,12,,,71,127
26618,note_off,159,0,0,,12,,,71,127
26623,note_on,5,0,0,,12,,,83,127
26767,note_off,144,0,0,,2,,,50,127
26782,note_off,15,0,0,,12,,,83,127
26785,note_off,3,0,0,,0,,,60,127
26787,note_on,2,0,0,,0,,,84,127
26787,note_on,0,0,0,,0,,,72,127
26869,note_on,82,0,0,,0,,,36,127
26938,note_off,69,0,0,,0,,,36,127
26952,note_on,14,0,0,,4,,,40,127
27021,note_off,69,0,0,,4,,,40,127
27035,note_on,14,0,0,,7,,,43,127
27104,note_off,69,0,0,,7,,,43,127
27118,note_on,14,0,0,,0,,,48,127
27187,note_off,69,0,0,,0,,,48,127
27201,note_on,14,0,0,,4,,,52,127
27270,note_off,69,0,0,,4,,,52,127
27284,note_on,14,0,0,,7,,,55,127
27353,note_off,69,0,0,,7,,,55,127
27367,note_on,14,0,0,,0,,,60,127
27436,note_off,69,0,0,,0,,,60,127
27445,note_off,9,0,0,,0,,,72,127
27445,note_off,0,0,0,,0,,,84,127
27450,note_on,5,0,0,,4,,,64,127
27519,note_off,69,0,0,,4,,,64,127
27533,note_on,14,0,0,,7,,,67,127
27602,note_off,69,0,0,,7,,,67,127
27616,note_on,14,0,0,,0,,,72,127
27685,note_off,69,0,0,,0,,,72,127
27699,note_on,14,0,0,,4,,,76,127
27768,note_off,69,0,0,,4,,,76,127
27782,note_on,14,0,0,,0,,,60,127
27782,note_on,0,0,0,,4,,,52,127
27782,note_on,0,0,0,,7,,,79,127
27941,note_off,159,0,0,,7,,,79,127
27946,note_on,5,0,0,,7,,,67,127
28105,note_off,159,0,0,,7,,,67,127
28105,note_off,0,0,0,,4,,,52,127
28110,note_on,5,0,0,,5,,,53,127
28110,note_on,0,0,0,,10,,,81,127
28269,note_off,159,0,0,,10,,,81,127
28274,note_on,5,0,0,,10,,,69,127
28433,note_off,159,0,0,,10,,,69,127
28433,note_off,0,0,0,,5,,,53,127
28438,note_on,5,0,0,,2,,,50,127
28438,note_on,0,0,0,,12,,,71,127
28597,note_off,159,0,0,,12,,,71,127
28602,note_on,5,0,0,,12,,,83,127
28761,note_off,159,0,0,,12,,,83,127
28761,note_off,0,0,0,,2,,,50,127
28764,note_off,3,0,0,,0,,,60,127
28766,note_on,2,0,0,,0,,,48,127
28766,note_on,0,0,0,,0,,,60,127
28766,note_on,0,0,0,,0,,,84,127
28925,note_off,159,0,0,,0,,,84,127
28930,note_on,5,0,0,,0,,,72,127
28999,note_off,69,0,0,,0,,,72,127
29013,note_on,14,0,0,,2,,,74,127
29082,note_off,69,0,0,,2,,,74,127
29091,note_off,9,0,0,,0,,,48,127
29096,note_on,5,0,0,,11,,,58,127
29096,note_on,0,0,0,,5,,,77,127
29165,note_off,69,0,0,,5,,,77,127
29179,note_on,14,0,0,,4,,,76,127
29248,note_off,69,0,0,,4,,,76,127
29262,note_on,14,0,0,,2,,,74,127
29331,note_off,69,0,0,,2,,,74,127
29345,note_on,14,0,0,,4,,,76,127
29414,note_off,69,0,0,,4,,,76,127
29421,note_off,7,0,0,,0,,,60,127
29423,note_off,2,0,0,,11,,,58,127
29428,note_on,5,0,0,,10,,,57,127
29428,note_on,0,0,0,,0,,,60,127
29428,note_on,0,0,0,,7,,,79,127
29497,note_off,69,0,0,,7,,,79,127
29511,note_on,14,0,0,,5,,,77,127
29580,note_off,69,0,0,,5,,,77,127
29594,note_on,14,0,0,,4,,,76,127
29663,note_off,69,0,0,,4,,,76,127
29677,note_on,14,0,0,,5,,,77,127
29746,note_off,69,0,0,,5,,,77,127
29755,note_off,9,0,0,,0,,,60,127
29755,note_off,0,0,0,,10,,,57,127
29760,note_on,5,0,0,,11,,,58,127
29760,note_on,0,0,0,,7,,,55,127
29760,note_on,0,0,0,,0,,,60,127
29760,note_on,0,0,0,,10,,,81,127
29829,note_off,69,0,0,,10,,,81,127
29843,note_on,14,0,0,,7,,,79,127
29912,note_off,69,0,0,,7,,,79,127
29926,note_on,14,0,0,,5,,,77,127
29995,note_off,69,0,0,,5,,,77,127
30009,note_on,14,0,0,,7,,,79,127
30078,note_off,69,0,0,,7,,,79,127
30087,note_off,9,0,0,,7,,,55,127
30087,note_off,0,0,0,,11,,,58,127
30092,note_on,5,0,0,,10,,,57,127
30092,note_on,0,0,0,,5,,,53,127
30092,note_on,0,0,0,,11,,,82,127
30161,note_off,69,0,0,,11,,,82,127
30175,note_on,14,0,0,,10,,,81,127
30244,note_off,69,0,0,,10,,,81,127
30258,note_on,14,0,0,,7,,,79,127
30327,note_off,69,0,0,,7,,,79,127
30341,note_on,14,0,0,,10,,,81,127
30410,note_off,69,0,0,,10,,,81,127
30419,note_off,9,0,0,,5,,,53,127
30419,note_off,0,0,0,,10,,,57,127
30424,note_on,5,0,0,,4,,,52,127
30424,note_on,0,0,0,,7,,,55,127
30424,note_on,0,0,0,,7,,,79,127
30424,note_on,0,0,0,,11,,,82,127
30575,note_off,151,0,0,,11,,,82,127
30575,note_off,0,0,0,,7,,,79,127
30584,note_off,9,0,0,,7,,,55,127
30584,note_off,0,0,0,,4,,,52,127
30589,note_on,5,0,0,,5,,,53,127
30589,note_on,0,0,0,,10,,,57,127
30589,note_on,0,0,0,,5,,,77,127
30589,note_on,0,0,0,,10,,,81,127
30740,note_off,151,0,0,,10,,,81,127
30740,note_off,0,0,0,,5,,,77,127
30749,note_off,9,0,0,,10,,,57,127
30749,note_off,0,0,0,,5,,,53,127
30752,note_off,3,0,0,,0,,,60,127
30754,note_on,2,0,0,,4,,,76,127
30754,note_on,0,0,0,,7,,,79,127
30836,note_on,82,0,0,,0,,,36,127
30905,note_off,69,0,0,,0,,,36,127
30919,note_on,14,0,0,,4,,,40,127
30988,note_off,69,0,0,,4,,,40,127
31002,note_on,14,0,0,,7,,,43,127
31071,note_off,69,0,0,,7,,,43,127
31085,note_on,14,0,0,,0,,,48,127
31154,note_off,69,0,0,,0,,,48,127
31168,note_on,14,0,0,,4,,,52,127
31237,note_off,69,0,0,,4,,,52,127
31251,note_on,14,0,0,,7,,,55,127
31320,note_off,69,0,0,,7,,,55,127
31334,note_on,14,0,0,,0,,,60,127
31403,note_off,69,0,0,,0,,,60,127
31412,note_off,9,0,0,,7,,,79,127
31412,note_off,0,0,0,,4,,,76,127
31417,note_on,5,0,0,,4,,,64,127
31486,note_off,69,0,0,,4,,,64,127
31500,note_on,14,0,0,,7,,,67,127
31569,note_off,69,0,0,,7,,,67,127
31583,note_on,14,0,0,,0,,,72,127
31652,note_off,69,0,0,,0,,,72,127
31666,note_on,14,0,0,,4,,,76,127
31735,note_off,69,0,0,,4,,,76,127
31749,note_on,14,0,0,,4,,,52,127
31749,note_on,0,0,0,,0,,,60,127
31749,note_on,0,0,0,,7,,,79,127
31908,note_off,159,0,0,,7,,,79,127
31913,note_on,5,0,0,,7,,,67,127
32072,note_off,159,0,0,,7,,,67,127
32072,note_off,0,0,0,,4,,,52,127
32077,note_on,5,0,0,,5,,,53,127
32077,note_on,0,0,0,,10,,,81,127
32236,note_off,159,0,0,,10,,,81,127
32241,note_on,5,0,0,,10,,,69,127
32400,note_off,159,0,0,,10,,,69,127
32400,note_off,0,0,0,,5,,,53,127
32405,note_on,5,0,0,,2,,,50,127
32405,note_on,0,0,0,,12,,,71,127
32564,note_off,159,0,0,,12,,,71,127
32569,note_on,5,0,0,,12,,,83,127
32728,note_off,159,0,0,,12,,,83,127
32728,note_off,0,0,0,,2,,,50,127
32731,note_off,3,0,0,,0,,,60,127
32733,note_on,2,0,0,,0,,,60,127
32733,note_on,0,0,0,,0,,,48,127
32733,note_on,0,0,0,,0,,,84,127
32892,note_off,159,0,0,,0,,,84,127
32897,note_on,5,0,0,,0,,,72,127
32966,note_off,69,0,0,,0,,,72,127
32980,note_on,14,0,0,,2,,,74,127
33049,note_off,69,0,0,,2,,,74,127
33058,note_off,9,0,0,,0,,,48,127
33063,note_on,5,0,0,,11,,,58,127
33063,note_on,0,0,0,,5,,,77,127
33132,note_off,69,0,0,,5,,,77,127
33146,note_on,14,0,0,,4,,,76,127
33215,note_off,69,0,0,,4,,,76,127
33229,note_on,14,0,0,,2,,,74,127
33298,note_off,69,0,0,,2,,,74,127
33312,note_on,14,0,0,,4,,,76,127
33381,note_off,69,0,0,,4,,,76,127
33390,note_off,9,0,0,,11,,,58,127
33395,note_on,5,0,0,,10,,,57,127
33395,note_on,0,0,0,,7,,,79,127
33464,note_off,69,0,0,,7,,,79,127
33478,note_on,14,0,0,,5,,,77,127
33547,note_off,69,0,0,,5,,,77,127
33561,note_on,14,0,0,,4,,,76,127
33630,note_off,69,0,0,,4,,,76,127
33644,note_on,14,0,0,,5,,,77,127
33713,note_off,69,0,0,,5,,,77,127
33722,note_off,9,0,0,,10,,,57,127
33725,note_off,3,0,0,,0,,,60,127
33727,note_on,2,0,0,,11,,,58,127
33727,note_on,0,0,0,,7,,,79,127
33886,note_off,159,0,0,,7,,,79,127
33891,note_on,5,0,0,,7,,,79,127
33939,note_off,48,0,0,,7,,,79,127
33946,note_on,7,0,0,,10,,,81,127
33987,note_off,41,0,0,,10,,,81,127
34001,note_on,14,0,0,,11,,,82,127
34042,note_off,41,0,0,,11,,,82,127
34051,note_off,9,0,0,,11,,,58,127
34056,note_on,5,0,0,,0,,,60,127
34056,note_on,0,0,0,,10,,,81,127
34215,note_off,159,0,0,,10,,,81,127
34220,note_on,5,0,0,,7,,,79,127
34379,note_off,159,0,0,,7,,,79,127
34379,note_off,0,0,0,,0,,,60,127
34384,note_on,5,0,0,,0,,,48,127
34384,note_on,0,0,0,,5,,,77,127
34543,note_off,159,0,0,,5,,,77,127
34548,note_on,5,0,0,,4,,,76,127
34707,note_off,159,0,0,,4,,,76,127
34707,note_off,0,0,0,,0,,,48,127
34712,note_on,5,0,0,,5,,,53,127
34877,note_on,165,0,0,,5,,,77,127
35036,note_off,159,0,0,,5,,,77,127
35038,note_off,2,0,0,,5,,,53,127
35041,note_on,3,0,0,,5,,,77,127
35206,note_on,165,0,0,,5,,,65,127
35365,note_off,159,0,0,,5,,,65,127
35367,note_off,2,0,0,,5,,,77,127
35370,note_on,3,0,0,,5,,,65,127
35535,note_on,165,0,0,,10,,,81,127
35694,note_off,159,0,0,,10,,,81,127
35696,note_off,2,0,0,,5,,,65,127
35699,note_on,3,0,0,,10,,,81,127
35864,note_on,165,0,0,,10,,,69,127
36023,note_off,159,0,0,,10,,,69,127
36025,note_off,2,0,0,,10,,,81,127
36028,note_on,3,0,0,,10,,,69,127
36193,note_on,165,0,0,,0,,,84,127
36352,note_off,159,0,0,,0,,,84,127
36354,note_off,2,0,0,,10,,,69,127
36357,note_on,3,0,0,,0,,,84,127
36522,note_on,165,0,0,,0,,,72,127
36681,note_off,159,0,0,,0,,,72,127
36686,note_on,5,0,0,,0,,,72,127
36845,note_off,159,0,0,,0,,,84,127
36850,note_on,5,0,0,,2,,,86,127
37009,note_off,159,0,0,,2,,,86,127
37014,note_on,5,0,0,,0,,,84,127
37173,note_off,159,0,0,,0,,,84,127
37173,note_off,0,0,0,,0,,,72,127
37178,note_on,5,0,0,,2,,,74,127
37178,note_on,0,0,0,,11,,,82,127
37337,note_off,159,0,0,,11,,,82,127
37337,note_off,0,0,0,,2,,,74,127
37342,note_on,5,0,0,,0,,,72,127
37342,note_on,0,0,0,,10,,,81,127
37501,note_off,159,0,0,,10,,,81,127
37501,note_off,0,0,0,,0,,,72,127
37506,note_on,5,0,0,,11,,,70,127
37506,note_on,0,0,0,,7,,,79,127
37665,note_off,159,0,0,,7,,,79,127
37665,note_off,0,0,0,,11,,,70,127
37670,note_on,5,0,0,,10,,,69,127
37670,note_on,0,0,0,,0,,,84,127
37739,note_off,69,0,0,,0,,,84,127
37753,note_on,14,0,0,,11,,,82,127
37822,note_off,69,0,0,,11,,,82,127
37831,note_off,9,0,0,,10,,,69,127
37836,note_on,5,0,0,,7,,,67,127
37836,note_on,0,0,0,,10,,,81,127
37905,note_off,69,0,0,,10,,,81,127
37919,note_on,14,0,0,,7,,,79,127
37988,note_off,69,0,0,,7,,,79,127
37997,note_off,9,0,0,,7,,,67,127
38002,note_on,5,0,0,,5,,,65,127
38002,note_on,0,0,0,,5,,,77,127
38071,note_off,69,0,0,,5,,,77,127
38085,note_on,14,0,0,,4,,,76,127
38154,note_off,69,0,0,,4,,,76,127
38163,note_off,9,0,0,,5,,,65,127
38168,note_on,5,0,0,,4,,,64,127
38168,note_on,0,0,0,,2,,,74,127
38237,note_off,69,0,0,,2,,,74,127
38251,note_on,14,0,0,,0,,,72,127
38320,note_off,69,0,0,,0,,,72,127
38329,note_off,9,0,0,,4,,,64,127
38334,note_on,5,0,0,,2,,,62,127
38334,note_on,0,0,0,,11,,,70,127
38403,note_off,69,0,0,,11,,,70,127
38417,note_on,14,0,0,,10,,,69,127
38486,note_off,69,0,0,,10,,,69,127
38495,note_off,9,0,0,,2,,,62,127
38500,note_on,5,0,0,,0,,,60,127
38500,note_on,0,0,0,,7,,,67,127
38569,note_off,69,0,0,,7,,,67,127
38583,note_on,14,0,0,,5,,,65,127
38652,note_off,69,0,0,,5,,,65,127
38661,note_off,9,0,0,,0,,,60,127
38666,note_on,5,0,0,,11,,,58,127
38666,note_on,0,0,0,,2,,,74,127
38825,note_off,159,0,0,,2,,,74,127
38830,note_on,5,0,0,,11,,,70,127
38989,note_off,159,0,0,,11,,,70,127
38989,note_off,0,0,0,,11,,,58,127
38994,note_on,5,0,0,,0,,,60,127
38994,note_on,0,0,0,,10,,,69,127
39153,note_off,159,0,0,,10,,,69,127
39158,note_on,5,0,0,,7,,,67,127
39317,note_off,159,0,0,,7,,,67,127
39317,note_off,0,0,0,,0,,,60,127
39322,note_on,5,0,0,,0,,,48,127
39322,note_on,0,0,0,,5,,,65,127
39481,note_off,159,0,0,,5,,,65,127
39486,note_on,5,0,0,,4,,,64,127
39645,note_off,159,0,0,,4,,,64,127
39645,note_off,0,0,0,,0,,,48,127
39650,note_on,5,0,0,,5,,,53,127
39650,note_on,0,0,0,,5,,,65,127
39815,note_on,165,0,0,,5,,,77,127
39974,note_off,159,0,0,,5,,,77,127
39976,note_off,2,0,0,,5,,,65,127
39976,note_off,0,0,0,,5,,,53,127
39979,note_on,3,0,0,,5,,,77,127
40144,note_on,165,0,0,,5,,,65,127
40303,note_off,159,0,0,,5,,,65,127
40305,note_off,2,0,0,,5,,,77,127
40308,note_on,3,0,0,,5,,,65,127
40473,note_on,165,0,0,,10,,,81,127
40632,note_off,159,0,0,,10,,,81,127
40634,note_off,2,0,0,,5,,,65,127
40637,note_on,3,0,0,,10,,,81,127
40802,note_on,165,0,0,,10,,,69,127
40961,note_off,159,0,0,,10,,,69,127
40963,note_off,2,0,0,,10,,,81,127
40966,note_on,3,0,0,,10,,,69,127
41131,note_on,165,0,0,,0,,,84,127
41290,note_off,159,0,0,,0,,,84,127
41292,note_off,2,0,0,,10,,,69,127
41295,note_on,3,0,0,,0,,,84,127
41460,note_on,165,0,0,,0,,,72,127
41619,note_off,159,0,0,,0,,,72,127
41624,note_on,5,0,0,,0,,,72,127
41783,note_off,159,0,0,,0,,,84,127
41788,note_on,5,0,0,,2,,,86,127
41947,note_off,159,0,0,,2,,,86,127
41952,note_on,5,0,0,,0,,,84,127
42069,note_off,117,0,0,,0,,,72,127
42112,note_off,43,0,0,,0,,,84,127
42117,note_on,5,0,0,,2,,,74,127
42117,note_on,0,0,0,,11,,,82,127
42276,note_off,159,0,0,,11,,,82,127
42276,note_off,0,0,0,,2,,,74,127
42281,note_on,5,0,0,,0,,,72,127
42281,note_on,0,0,0,,10,,,81,127
42440,note_off,159,0,0,,10,,,81,127
42440,note_off,0,0,0,,0,,,72,127
42445,note_on,5,0,0,,11,,,70,127
42445,note_on,0,0,0,,7,,,79,127
42604,note_off,159,0,0,,7,,,79,127
42604,note_off,0,0,0,,11,,,70,127
42609,note_on,5,0,0,,10,,,69,127
42609,note_on,0,0,0,,0,,,84,127
42678,note_off,69,0,0,,0,,,84,127
42692,note_on,14,0,0,,11,,,82,127
42761,note_off,69,0,0,,11,,,82,127
42770,note_off,9,0,0,,10,,,69,127
42775,note_on,5,0,0,,7,,,67,127
42775,note_on,0,0,0,,10,,,81,127
42844,note_off,69,0,0,,10,,,81,127
42858,note_on,14,0,0,,7,,,79,127
42927,note_off,69,0,0,,7,,,79,127
42936,note_off,9,0,0,,7,,,67,127
42941,note_on,5,0,0,,5,,,65,127
42941,note_on,0,0,0,,5,,,77,127
43010,note_off,69,0,0,,5,,,77,127
43024,note_on,14,0,0,,4,,,76,127
43093,note_off,69,0,0,,4,,,76,127
43102,note_off,9,0,0,,5,,,65,127
43107,note_on,5,0,0,,4,,,64,127
43107,note_on,0,0,0,,2,,,74,127
43176,note_off,69,0,0,,2,,,74,127
43190,note_on,14,0,0,,0,,,72,127
43259,note_off,69,0,0,,0,,,72,127
43268,note_off,9,0,0,,4,,,64,127
43273,note_on,5,0,0,,2,,,62,127
43273,note_on,0,0,0,,11,,,70,127
43342,note_off,69,0,0,,11,,,70,127
43356,note_on,14,0,0,,10,,,69,127
43425,note_off,69,0,0,,10,,,69,127
43434,note_off,9,0,0,,2,,,62,127
43439,note_on,5,0,0,,0,,,60,127
43439,note_on,0,0,0,,7,,,67,127
43508,note_off,69,0,0,,7,,,67,127
43522,note_on,14,0,0,,5,,,65,127
43591,note_off,69,0,0,,5,,,65,127
43600,note_off,9,0,0,,0,,,60,127
43605,note_on,5,0,0,,11,,,58,127
43605,note_on,0,0,0,,2,,,74,127
43764,note_off,159,0,0,,2,,,74,127
43769,note_on,5,0,0,,11,,,70,127
43928,note_off,159,0,0,,11,,,70,127
43928,note_off,0,0,0,,11,,,58,127
43933,note_on,5,0,0,,0,,,60,127
43933,note_on,0,0,0,,10,,,69,127
44092,note_off,159,0,0,,10,,,69,127
44097,note_on,5,0,0,,7,,,67,127
44256,note_off,159,0,0,,7,,,67,127
44256,note_off,0,0,0,,0,,,60,127
44261,note_on,5,0,0,,0,,,48,127
44261,note_on,0,0,0,,5,,,65,127
44420,note_off,159,0,0,,5,,,65,127
44425,note_on,5,0,0,,4,,,64,127
44579,note_off,154,0,0,,4,,,64,127
44584,note_off,5,0,0,,0,,,48,127
44589,note_on,5,0,0,,5,,,53,127
44671,note_on,82,0,0,,5,,,65,127
44740,note_off,69,0,0,,5,,,65,127
44754,note_on,14,0,0,,10,,,69,127
44823,note_off,69,0,0,,10,,,69,127
44837,note_on,14,0,0,,5,,,65,127
44906,note_off,69,0,0,,5,,,65,127
44920,note_on,14,0,0,,0,,,72,127
44997,note_off,77,0,0,,5,,,53,127
45002,note_on,5,0,0,,5,,,53,127
45071,note_off,69,0,0,,5,,,53,127
45085,note_on,14,0,0,,10,,,57,127
45154,note_off,69,0,0,,10,,,57,127
45168,note_on,14,0,0,,5,,,53,127
45237,note_off,69,0,0,,5,,,53,127
45251,note_on,14,0,0,,0,,,60,127
45328,note_off,77,0,0,,0,,,72,127
45333,note_on,5,0,0,,0,,,72,127
45402,note_off,69,0,0,,0,,,72,127
45411,note_off,9,0,0,,0,,,60,127
45416,note_on,5,0,0,,0,,,36,127
45416,note_on,0,0,0,,4,,,76,127
45485,note_off,69,0,0,,4,,,76,127
45499,note_on,14,0,0,,0,,,72,127
45568,note_off,69,0,0,,0,,,72,127
45577,note_off,9,0,0,,0,,,36,127
45582,note_on,5,0,0,,5,,,41,127
45582,note_on,0,0,0,,5,,,77,127
45651,note_off,69,0,0,,5,,,77,127
45665,note_on,14,0,0,,5,,,65,127
45734,note_off,69,0,0,,5,,,65,127
45748,note_on,14,0,0,,10,,,69,127
45817,note_off,69,0,0,,10,,,69,127
45831,note_on,14,0,0,,5,,,65,127
45900,note_off,69,0,0,,5,,,65,127
45910,note_off,10,0,0,,5,,,41,127
45913,note_on,3,0,0,,0,,,72,127
45995,note_on,82,0,0,,5,,,53,127
46064,note_off,69,0,0,,5,,,53,127
46078,note_on,14,0,0,,10,,,57,127
46147,note_off,69,0,0,,10,,,57,127
46161,note_on,14,0,0,,5,,,53,127
46230,note_off,69,0,0,,5,,,53,127
46244,note_on,14,0,0,,0,,,60,127
46321,note_off,77,0,0,,0,,,72,127
46326,note_on,5,0,0,,0,,,72,127
46395,note_off,69,0,0,,0,,,72,127
46404,note_off,9,0,0,,0,,,60,127
46409,note_on,5,0,0,,0,,,36,127
46409,note_on,0,0,0,,4,,,76,127
46478,note_off,69,0,0,,4,,,76,127
46492,note_on,14,0,0,,0,,,72,127
46561,note_off,69,0,0,,0,,,72,127
46570,note_off,9,0,0,,0,,,36,127
46575,note_on,5,0,0,,5,,,41,127
46575,note_on,0,0,0,,5,,,77,127
46644,note_off,69,0,0,,5,,,77,127
46658,note_on,14,0,0,,5,,,65,127
46727,note_off,69,0,0,,5,,,65,127
46741,note_on,14,0,0,,10,,,69,127
46810,note_off,69,0,0,,10,,,69,127
46824,note_on,14,0,0,,5,,,65,127
46893,note_off,69,0,0,,5,,,65,127
46903,note_off,10,0,0,,5,,,41,127
46906,note_on,3,0,0,,0,,,72,127
46988,note_on,82,0,0,,5,,,53,127
47057,note_off,69,0,0,,5,,,53,127
47071,note_on,14,0,0,,10,,,57,127
47140,note_off,69,0,0,,10,,,57,127
47154,note_on,14,0,0,,5,,,53,127
47223,note_off,69,0,0,,5,,,53,127
47237,note_on,14,0,0,,0,,,60,127
47314,note_off,77,0,0,,0,,,72,127
47319,note_on,5,0,0,,0,,,72,127
47388,note_off,69,0,0,,0,,,72,127
47397,note_off,9,0,0,,0,,,60,127
47402,note_on,5,0,0,,0,,,36,127
47402,note_on,0,0,0,,4,,,76,127
47471,note_off,69,0,0,,4,,,76,127
47485,note_on,14,0,0,,0,,,72,127
47554,note_off,69,0,0,,0,,,72,127
47563,note_off,9,0,0,,0,,,36,127
47568,note_on,5,0,0,,5,,,41,127
47568,note_on,0,0,0,,5,,,77,127
47637,note_off,69,0,0,,5,,,77,127
47651,note_on,14,0,0,,4,,,76,127
47720,note_off,69,0,0,,4,,,76,127
47734,note_on,14,0,0,,2,,,74,127
47803,note_off,69,0,0,,2,,,74,127
47817,note_on,14,0,0,,0,,,72,127
47886,note_off,69,0,0,,0,,,72,127
47895,note_off,9,0,0,,5,,,41,127
47900,note_on,5,0,0,,11,,,46,127
47900,note_on,0,0,0,,11,,,70,127
47969,note_off,69,0,0,,11,,,70,127
47983,note_on,14,0,0,,10,,,69,127
48052,note_off,69,0,0,,10,,,69,127
48066,note_on,14,0,0,,7,,,67,127
48135,note_off,69,0,0,,7,,,67,127
48149,note_on,14,0,0,,5,,,65,127
48218,note_off,69,0,0,,5,,,65,127
48227,note_off,9,0,0,,11,,,46,127
48232,note_on,5,0,0,,0,,,48,127
48232,note_on,0,0,0,,10,,,69,127
48301,note_off,69,0,0,,10,,,69,127
48315,note_on,14,0,0,,7,,,67,127
48384,note_off,69,0,0,,7,,,67,127
48398,note_on,14,0,0,,10,,,69,127
48467,note_off,69,0,0,,10,,,69,127
48481,note_on,14,0,0,,7,,,67,127
48550,note_off,69,0,0,,7,,,67,127
48559,note_off,9,0,0,,0,,,48,127
48564,note_on,5,0,0,,5,,,41,127
48564,note_on,0,0,0,,5,,,65,127
48633,note_off,69,0,0,,5,,,65,127
48647,note_on,14,0,0,,4,,,64,127
48716,note_off,69,0,0,,4,,,64,127
48730,note_on,14,0,0,,2,,,62,127
48799,note_off,69,0,0,,2,,,62,127
48813,note_on,14,0,0,,0,,,60,127
48882,note_off,69,0,0,,0,,,60,127
48891,note_off,9,0,0,,5,,,41,127
48896,note_on,5,0,0,,11,,,46,127
48896,note_on,0,0,0,,11,,,58,127
48965,note_off,69,0,0,,11,,,58,127
48979,note_on,14,0,0,,10,,,57,127
49048,note_off,69,0,0,,10,,,57,127
49062,note_on,14,0,0,,7,,,55,127
49131,note_off,69,0,0,,7,,,55,127
49145,note_on,14,0,0,,5,,,53,127
49214,note_off,69,0,0,,5,,,53,127
49223,note_off,9,0,0,,11,,,46,127
49228,note_on,5,0,0,,0,,,48,127
49228,note_on,0,0,0,,10,,,57,127
49297,note_off,69,0,0,,10,,,57,127
49311,note_on,14,0,0,,7,,,55,127
49380,note_off,69,0,0,,7,,,55,127
49394,note_on,14,0,0,,5,,,53,127
49463,note_off,69,0,0,,5,,,53,127
49477,note_on,14,0,0,,7,,,55,127
49546,note_off,69,0,0,,7,,,55,127
49555,note_off,9,0,0,,0,,,48,127
49560,note_on,5,0,0,,5,,,41,127
49560,note_on,0,0,0,,5,,,53,127
50211,note_off,651,0,0,,5,,,53,127
50542,note_off,331,0,0,,5,,,41,127
50547,note_on,5,0,0,,5,,,41,127
50547,note_on,0,0,0,,5,,,53,127
50629,note_on,82,0,0,,5,,,65,127
50698,note_off,69,0,0,,5,,,65,127
50712,note_on,14,0,0,,10,,,69,127
50781,note_off,69,0,0,,10,,,69,127
50795,note_on,14,0,0,,5,,,65,127
50864,note_off,69,0,0,,5,,,65,127
50874,note_off,10,0,0,,5,,,53,127
50874,note_off,0,0,0,,5,,,41,127
50877,note_on,3,0,0,,0,,,72,127
50959,note_on,82,0,0,,5,,,53,127
51028,note_off,69,0,0,,5,,,53,127
51042,note_on,14,0,0,,10,,,57,127
51111,note_off,69,0,0,,10,,,57,127
51125,note_on,14,0,0,,5,,,53,127
51194,note_off,69,0,0,,5,,,53,127
51208,note_on,14,0,0,,0,,,60,127
51277,note_off,69,0,0,,0,,,60,127
51291,note_on,14,0,0,,0,,,48,127
51360,note_off,69,0,0,,0,,,48,127
51374,note_on,14,0,0,,3,,,51,127
51443,note_off,69,0,0,,3,,,51,127
51457,note_on,14,0,0,,0,,,48,127
51526,note_off,69,0,0,,0,,,48,127
51533,note_off,7,0,0,,0,,,72,127
51540,note_on,7,0,0,,2,,,38,127
51622,note_on,82,0,0,,2,,,62,127
51691,note_off,69,0,0,,2,,,62,127
51705,note_on,14,0,0,,6,,,66,127
51774,note_off,69,0,0,,6,,,66,127
51788,note_on,14,0,0,,2,,,62,127
51857,note_off,69,0,0,,2,,,62,127
51871,note_on,14,0,0,,10,,,69,127
51940,note_off,69,0,0,,10,,,69,127
51954,note_on,14,0,0,,6,,,66,127
52023,note_off,69,0,0,,6,,,66,127
52037,note_on,14,0,0,,0,,,72,127
52106,note_off,69,0,0,,0,,,72,127
52120,note_on,14,0,0,,10,,,69,127
52189,note_off,69,0,0,,10,,,69,127
52203,note_on,14,0,0,,6,,,78,127
52272,note_off,69,0,0,,6,,,78,127
52286,note_on,14,0,0,,2,,,74,127
52355,note_off,69,0,0,,2,,,74,127
52369,note_on,14,0,0,,10,,,81,127
52438,note_off,69,0,0,,10,,,81,127
52452,note_on,14,0,0,,6,,,78,127
52521,note_off,69,0,0,,6,,,78,127
52533,note_off,12,0,0,,2,,,38,127
52535,note_on,2,0,0,,7,,,43,127
52535,note_on,0,0,0,,7,,,79,127
52604,note_off,69,0,0,,7,,,79,127
52618,note_on,14,0,0,,7,,,67,127
52687,note_off,69,0,0,,7,,,67,127
52701,note_on,14,0,0,,11,,,70,127
52770,note_off,69,0,0,,11,,,70,127
52784,note_on,14,0,0,,7,,,67,127
52853,note_off,69,0,0,,7,,,67,127
52863,note_off,10,0,0,,7,,,43,127
52866,note_on,3,0,0,,2,,,74,127
52948,note_on,82,0,0,,7,,,55,127
53017,note_off,69,0,0,,7,,,55,127
53031,note_on,14,0,0,,11,,,58,127
53100,note_off,69,0,0,,11,,,58,127
53114,note_on,14,0,0,,7,,,55,127
53183,note_off,69,0,0,,7,,,55,127
53197,note_on,14,0,0,,2,,,62,127
53266,note_off,69,0,0,,2,,,62,127
53280,note_on,14,0,0,,2,,,50,127
53349,note_off,69,0,0,,2,,,50,127
53363,note_on,14,0,0,,5,,,53,127
53432,note_off,69,0,0,,5,,,53,127
53446,note_on,14,0,0,,2,,,50,127
53515,note_off,69,0,0,,2,,,50,127
53522,note_off,7,0,0,,2,,,74,127
53529,note_on,7,0,0,,4,,,40,127
53611,note_on,82,0,0,,4,,,64,127
53680,note_off,69,0,0,,4,,,64,127
53694,note_on,14,0,0,,8,,,68,127
53763,note_off,69,0,0,,8,,,68,127
53777,note_on,14,0,0,,4,,,64,127
53846,note_off,69,0,0,,4,,,64,127
53860,note_on,14,0,0,,12,,,71,127
53929,note_off,69,0,0,,12,,,71,127
53943,note_on,14,0,0,,8,,,68,127
54012,note_off,69,0,0,,8,,,68,127
54026,note_on,14,0,0,,2,,,74,127
54095,note_off,69,0,0,,2,,,74,127
54109,note_on,14,0,0,,12,,,71,127
54178,note_off,69,0,0,,12,,,71,127
54192,note_on,14,0,0,,8,,,80,127
54261,note_off,69,0,0,,8,,,80,127
54275,note_on,14,0,0,,4,,,76,127
54344,note_off,69,0,0,,4,,,76,127
54358,note_on,14,0,0,,12,,,83,127
54427,note_off,69,0,0,,12,,,83,127
54441,note_on,14,0,0,,8,,,80,127
54510,note_off,69,0,0,,8,,,80,127
54519,note_off,9,0,0,,4,,,40,127
54524,note_on,5,0,0,,10,,,45,127
54524,note_on,0,0,0,,10,,,81,127
54593,note_off,69,0,0,,10,,,81,127
54607,note_on,14,0,0,,10,,,69,127
54676,note_off,69,0,0,,10,,,69,127
54690,note_on,14,0,0,,1,,,73,127
54759,note_off,69,0,0,,1,,,73,127
54773,note_on,14,0,0,,10,,,69,127
54842,note_off,69,0,0,,10,,,69,127
54852,note_off,10,0,0,,10,,,45,127
54855,note_on,3,0,0,,10,,,81,127
54924,note_off,69,0,0,,10,,,81,127
54938,note_on,14,0,0,,10,,,69,127
54938,note_on,0,0,0,,10,,,81,127
55007,note_off,69,0,0,,10,,,69,127
55021,note_on,14,0,0,,1,,,73,127
55090,note_off,69,0,0,,1,,,73,127
55104,note_on,14,0,0,,10,,,69,127
55173,note_off,69,0,0,,10,,,69,127
55182,note_off,9,0,0,,10,,,81,127
55187,note_on,5,0,0,,2,,,74,127
55187,note_on,0,0,0,,5,,,77,127
55256,note_off,69,0,0,,2,,,74,127
55270,note_on,14,0,0,,2,,,62,127
55339,note_off,69,0,0,,2,,,62,127
55353,note_on,14,0,0,,5,,,65,127
55422,note_off,69,0,0,,5,,,65,127
55436,note_on,14,0,0,,2,,,62,127
55505,note_off,69,0,0,,2,,,62,127
55514,note_off,9,0,0,,5,,,77,127
55519,note_on,5,0,0,,10,,,69,127
55519,note_on,0,0,0,,4,,,76,127
55588,note_off,69,0,0,,10,,,69,127
55602,note_on,14,0,0,,10,,,57,127
55671,note_off,69,0,0,,10,,,57,127
55685,note_on,14,0,0,,1,,,61,127
55754,note_off,69,0,0,,1,,,61,127
55768,note_on,14,0,0,,10,,,57,127
55837,note_off,69,0,0,,10,,,57,127
55846,note_off,9,0,0,,4,,,76,127
55851,note_on,5,0,0,,2,,,62,127
55851,note_on,0,0,0,,5,,,77,127
55920,note_off,69,0,0,,2,,,62,127
55934,note_on,14,0,0,,2,,,50,127
56003,note_off,69,0,0,,2,,,50,127
56017,note_on,14,0,0,,5,,,53,127
56086,note_off,69,0,0,,5,,,53,127
56100,note_on,14,0,0,,2,,,50,127
56169,note_off,69,0,0,,2,,,50,127
56178,note_off,9,0,0,,5,,,77,127
56183,note_on,5,0,0,,10,,,57,127
56183,note_on,0,0,0,,4,,,76,127
56252,note_off,69,0,0,,10,,,57,127
56266,note_on,14,0,0,,10,,,45,127
56335,note_off,69,0,0,,10,,,45,127
56349,note_on,14,0,0,,1,,,49,127
56418,note_off,69,0,0,,1,,,49,127
56432,note_on,14,0,0,,10,,,45,127
56501,note_off,69,0,0,,10,,,45,127
56515,note_on,14,0,0,,2,,,38,127
56674,note_off,159,0,0,,4,,,76,127
56679,note_on,5,0,0,,2,,,74,127
56838,note_off,159,0,0,,2,,,38,127
56843,note_on,5,0,0,,2,,,62,127
56843,note_on,0,0,0,,10,,,81,127
57004,note_off,161,0,0,,2,,,74,127
57007,note_on,3,0,0,,0,,,72,127
57166,note_off,159,0,0,,0,,,72,127
57166,note_off,0,0,0,,2,,,62,127
57171,note_on,5,0,0,,2,,,62,127
57171,note_on,0,0,0,,11,,,70,127
57330,note_off,159,0,0,,11,,,70,127
57335,note_on,5,0,0,,10,,,69,127
57494,note_off,159,0,0,,10,,,69,127
57494,note_off,0,0,0,,2,,,62,127
57499,note_on,5,0,0,,2,,,62,127
57499,note_on,0,0,0,,7,,,67,127
57499,note_on,0,0,0,,11,,,70,127
57664,note_off,165,0,0,,10,,,81,127
57664,note_on,0,0,0,,11,,,82,127
57823,note_off,159,0,0,,11,,,82,127
57823,note_off,0,0,0,,7,,,67,127
57823,note_off,0,0,0,,2,,,62,127
57828,note_on,5,0,0,,7,,,67,127
57828,note_on,0,0,0,,2,,,62,127
57828,note_on,0,0,0,,6,,,78,127
57987,note_off,159,0,0,,6,,,78,127
57992,note_on,5,0,0,,10,,,81,127
58151,note_off,159,0,0,,10,,,81,127
58151,note_off,0,0,0,,2,,,62,127
58151,note_off,0,0,0,,7,,,67,127
58156,note_on,5,0,0,,7,,,67,127
58156,note_on,0,0,0,,2,,,62,127
58156,note_on,0,0,0,,7,,,79,127
58321,note_off,165,0,0,,11,,,70,127
58321,note_on,0,0,0,,11,,,70,127
58480,note_off,159,0,0,,11,,,70,127
58480,note_off,0,0,0,,2,,,62,127
58480,note_off,0,0,0,,7,,,67,127
58485,note_on,5,0,0,,5,,,65,127
58485,note_on,0,0,0,,2,,,62,127
58485,note_on,0,0,0,,10,,,69,127
58648,note_off,163,0,0,,7,,,79,127
58650,note_on,2,0,0,,10,,,81,127
58809,note_off,159,0,0,,10,,,81,127
58809,note_off,0,0,0,,2,,,62,127
58809,note_off,0,0,0,,5,,,65,127
58814,note_on,5,0,0,,5,,,65,127
58814,note_on,0,0,0,,2,,,62,127
58814,note_on,0,0,0,,4,,,76,127
58973,note_off,159,0,0,,4,,,76,127
58978,note_on,5,0,0,,7,,,79,127
59137,note_off,159,0,0,,7,,,79,127
59137,note_off,0,0,0,,2,,,62,127
59137,note_off,0,0,0,,5,,,65,127
59142,note_on,5,0,0,,5,,,65,127
59142,note_on,0,0,0,,2,,,62,127
59142,note_on,0,0,0,,5,,,77,127
59307,note_off,165,0,0,,10,,,69,127
59307,note_on,0,0,0,,10,,,69,127
59466,note_off,159,0,0,,10,,,69,127
59466,note_off,0,0,0,,2,,,62,127
59466,note_off,0,0,0,,5,,,65,127
59471,note_on,5,0,0,,2,,,62,127
59471,note_on,0,0,0,,4,,,64,127
59471,note_on,0,0,0,,7,,,67,127
59632,note_off,161,0,0,,5,,,77,127
59635,note_on,3,0,0,,7,,,79,127
59794,note_off,159,0,0,,7,,,79,127
59794,note_off,0,0,0,,4,,,64,127
59794,note_off,0,0,0,,2,,,62,127
59799,note_on,5,0,0,,2,,,62,127
59799,note_on,0,0,0,,4,,,64,127
59799,note_on,0,0,0,,2,,,74,127
59958,note_off,159,0,0,,2,,,74,127
59963,note_on,5,0,0,,5,,,77,127
60122,note_off,159,0,0,,5,,,77,127
60122,note_off,0,0,0,,4,,,64,127
60122,note_off,0,0,0,,2,,,62,127
60127,note_on,5,0,0,,4,,,64,127
60127,note_on,0,0,0,,1,,,61,127
60127,note_on,0,0,0,,4,,,76,127
60292,note_off,165,0,0,,7,,,67,127
60292,note_on,0,0,0,,7,,,67,127
60451,note_off,159,0,0,,7,,,67,127
60451,note_off,0,0,0,,1,,,61,127
60451,note_off,0,0,0,,4,,,64,127
60456,note_on,5,0,0,,2,,,62,127
60456,note_on,0,0,0,,5,,,65,127
60607,note_off,151,0,0,,4,,,76,127
60621,note_on,14,0,0,,10,,,69,127
60780,note_off,159,0,0,,10,,,69,127
60780,note_off,0,0,0,,2,,,62,127
60782,note_off,2,0,0,,5,,,65,127
60785,note_on,3,0,0,,2,,,62,127
60785,note_on,0,0,0,,5,,,77,127
60950,note_on,165,0,0,,4,,,76,127
61109,note_off,159,0,0,,4,,,76,127
61109,note_off,0,0,0,,2,,,62,127
61114,note_on,5,0,0,,2,,,62,127
61114,note_on,0,0,0,,2,,,74,127
61273,note_off,159,0,0,,2,,,74,127
61278,note_on,5,0,0,,0,,,72,127
61437,note_off,159,0,0,,0,,,72,127
61437,note_off,0,0,0,,2,,,62,127
61442,note_on,5,0,0,,2,,,62,127
61442,note_on,0,0,0,,12,,,71,127
61601,note_off,159,0,0,,12,,,71,127
61606,note_on,5,0,0,,10,,,69,127
61765,note_off,159,0,0,,10,,,69,127
61765,note_off,0,0,0,,2,,,62,127
61770,note_on,5,0,0,,4,,,64,127
61770,note_on,0,0,0,,8,,,68,127
61931,note_off,161,0,0,,5,,,77,127
61934,note_on,3,0,0,,4,,,76,127
62093,note_off,159,0,0,,4,,,76,127
62093,note_off,0,0,0,,4,,,64,127
62098,note_on,5,0,0,,4,,,64,127
62098,note_on,0,0,0,,2,,,74,127
62249,note_off,151,0,0,,8,,,68,127
62263,note_on,14,0,0,,8,,,68,127
62422,note_off,159,0,0,,8,,,68,127
62422,note_off,0,0,0,,4,,,64,127
62424,note_off,2,0,0,,2,,,74,127
62427,note_on,3,0,0,,5,,,65,127
62427,note_on,0,0,0,,2,,,74,127
62427,note_on,0,0,0,,10,,,69,127
62586,note_off,159,0,0,,10,,,69,127
62591,note_on,5,0,0,,8,,,68,127
62750,note_off,159,0,0,,8,,,68,127
62750,note_off,0,0,0,,5,,,65,127
62752,note_off,2,0,0,,2,,,74,127
62755,note_on,3,0,0,,5,,,65,127
62755,note_on,0,0,0,,2,,,74,127
62755,note_on,0,0,0,,10,,,69,127
62914,note_off,159,0,0,,10,,,69,127
62919,note_on,5,0,0,,8,,,68,127
63078,note_off,159,0,0,,8,,,68,127
63078,note_off,0,0,0,,5,,,65,127
63080,note_off,2,0,0,,2,,,74,127
63083,note_on,3,0,0,,5,,,65,127
63083,note_on,0,0,0,,2,,,74,127
63083,note_on,0,0,0,,10,,,69,127
63242,note_off,159,0,0,,10,,,69,127
63247,note_on,5,0,0,,8,,,68,127
63406,note_off,159,0,0,,8,,,68,127
63406,note_off,0,0,0,,5,,,65,127
63408,note_off,2,0,0,,2,,,74,127
63411,note_on,3,0,0,,5,,,65,127
63411,note_on,0,0,0,,2,,,74,127
63411,note_on,0,0,0,,10,,,69,127
63570,note_off,159,0,0,,10,,,69,127
63575,note_on,5,0,0,,8,,,68,127
63734,note_off,159,0,0,,8,,,68,127
63734,note_off,0,0,0,,5,,,65,127
63736,note_off,2,0,0,,2,,,74,127
63739,note_on,3,0,0,,5,,,65,127
63739,note_on,0,0,0,,10,,,69,127
63739,note_on,0,0,0,,2,,,74,127
63898,note_off,159,0,0,,10,,,69,127
63903,note_on,5,0,0,,8,,,68,127
64062,note_off,159,0,0,,8,,,68,127
64062,note_off,0,0,0,,5,,,65,127
64064,note_off,2,0,0,,2,,,74,127
64067,note_on,3,0,0,,5,,,65,127
64067,note_on,0,0,0,,2,,,74,127
64067,note_on,0,0,0,,10,,,69,127
64226,note_off,159,0,0,,10,,,69,127
64226,note_off,0,0,0,,2,,,74,127
64231,note_on,5,0,0,,3,,,75,127
64231,note_on,0,0,0,,0,,,72,127
64390,note_off,159,0,0,,0,,,72,127
64390,note_off,0,0,0,,3,,,75,127
64390,note_off,0,0,0,,5,,,65,127
64395,note_on,5,0,0,,7,,,55,127
64395,note_on,0,0,0,,5,,,65,127
64395,note_on,0,0,0,,12,,,71,127
64395,note_on,0,0,0,,2,,,74,127
64554,note_off,159,0,0,,2,,,74,127
64554,note_off,0,0,0,,12,,,71,127
64559,note_on,5,0,0,,0,,,72,127
64559,note_on,0,0,0,,3,,,75,127
64718,note_off,159,0,0,,3,,,75,127
64718,note_off,0,0,0,,0,,,72,127
64718,note_off,0,0,0,,5,,,65,127
64718,note_off,0,0,0,,7,,,55,127
64723,note_on,5,0,0,,7,,,55,127
64723,note_on,0,0,0,,5,,,65,127
64723,note_on,0,0,0,,12,,,71,127
64723,note_on,0,0,0,,2,,,74,127
64882,note_off,159,0,0,,2,,,74,127
64882,note_off,0,0,0,,12,,,71,127
64887,note_on,5,0,0,,0,,,72,127
64887,note_on,0,0,0,,3,,,75,127
65046,note_off,159,0,0,,3,,,75,127
65046,note_off,0,0,0,,0,,,72,127
65046,note_off,0,0,0,,5,,,65,127
65046,note_off,0,0,0,,7,,,55,127
65051,note_on,5,0,0,,7,,,55,127
65051,note_on,0,0,0,,5,,,65,127
65051,note_on,0,0,0,,12,,,71,127
65051,note_on,0,0,0,,2,,,74,127
65210,note_off,159,0,0,,2,,,74,127
65210,note_off,0,0,0,,12,,,71,127
65215,note_on,5,0,0,,3,,,75,127
65215,note_on,0,0,0,,0,,,72,127
65374,note_off,159,0,0,,0,,,72,127
65374,note_off,0,0,0,,3,,,75,127
65374,note_off,0,0,0,,5,,,65,127
65374,note_off,0,0,0,,7,,,55,127
65379,note_on,5,0,0,,5,,,65,127
65379,note_on,0,0,0,,8,,,56,127
65379,note_on,0,0,0,,12,,,71,127
65379,note_on,0,0,0,,2,,,74,127
65538,note_off,159,0,0,,2,,,74,127
65538,note_off,0,0,0,,12,,,71,127
65543,note_on,5,0,0,,3,,,75,127
65543,note_on,0,0,0,,0,,,72,127
65702,note_off,159,0,0,,0,,,72,127
65702,note_off,0,0,0,,3,,,75,127
65702,note_off,0,0,0,,8,,,56,127
65702,note_off,0,0,0,,5,,,65,127
65707,note_on,5,0,0,,5,,,65,127
65707,note_on,0,0,0,,8,,,56,127
65707,note_on,0,0,0,,12,,,71,127
65707,note_on,0,0,0,,2,,,74,127
65866,note_off,159,0,0,,2,,,74,127
65866,note_off,0,0,0,,12,,,71,127
65871,note_on,5,0,0,,0,,,72,127
65871,note_on,0,0,0,,3,,,75,127
66030,note_off,159,0,0,,3,,,75,127
66030,note_off,0,0,0,,0,,,72,127
66030,note_off,0,0,0,,8,,,56,127
66030,note_off,0,0,0,,5,,,65,127
66035,note_on,5,0,0,,5,,,65,127
66035,note_on,0,0,0,,8,,,56,127
66035,note_on,0,0,0,,2,,,74,127
66035,note_on,0,0,0,,12,,,71,127
66194,note_off,159,0,0,,12,,,71,127
66194,note_off,0,0,0,,2,,,74,127
66199,note_on,5,0,0,,0,,,72,127
66199,note_on,0,0,0,,3,,,75,127
66358,note_off,159,0,0,,3,,,75,127
66358,note_off,0,0,0,,0,,,72,127
66358,note_off,0,0,0,,8,,,56,127
66358,note_off,0,0,0,,5,,,65,127
66363,note_on,5,0,0,,5,,,65,127
66363,note_on,0,0,0,,11,,,58,127
66363,note_on,0,0,0,,2,,,74,127
66363,note_on,0,0,0,,8,,,68,127
66522,note_off,159,0,0,,2,,,74,127
66527,note_on,5,0,0,,3,,,75,127
66686,note_off,159,0,0,,3,,,75,127
66686,note_off,0,0,0,,11,,,58,127
66686,note_off,0,0,0,,5,,,65,127
66688,note_off,2,0,0,,8,,,68,127
66691,note_on,3,0,0,,11,,,58,127
66691,note_on,0,0,0,,5,,,65,127
66691,note_on,0,0,0,,2,,,74,127
66691,note_on,0,0,0,,8,,,68,127
66850,note_off,159,0,0,,2,,,74,127
66855,note_on,5,0,0,,3,,,75,127
67014,note_off,159,0,0,,3,,,75,127
67014,note_off,0,0,0,,5,,,65,127
67014,note_off,0,0,0,,11,,,58,127
67016,note_off,2,0,0,,8,,,68,127
67019,note_on,3,0,0,,5,,,65,127
67019,note_on,0,0,0,,11,,,58,127
67019,note_on,0,0,0,,8,,,68,127
67019,note_on,0,0,0,,2,,,74,127
67178,note_off,159,0,0,,2,,,74,127
67183,note_on,5,0,0,,3,,,75,127
67342,note_off,159,0,0,,3,,,75,127
67342,note_off,0,0,0,,11,,,58,127
67342,note_off,0,0,0,,5,,,65,127
67344,note_off,2,0,0,,8,,,68,127
67347,note_on,3,0,0,,11,,,46,127
67347,note_on,0,0,0,,11,,,58,127
67347,note_on,0,0,0,,2,,,74,127
67347,note_on,0,0,0,,8,,,68,127
67506,note_off,159,0,0,,2,,,74,127
67511,note_on,5,0,0,,3,,,75,127
67670,note_off,159,0,0,,3,,,75,127
67670,note_off,0,0,0,,11,,,46,127
67675,note_on,5,0,0,,11,,,46,127
67675,note_on,0,0,0,,5,,,77,127
67826,note_off,151,0,0,,8,,,68,127
67835,note_off,9,0,0,,5,,,77,127
67840,note_on,5,0,0,,7,,,79,127
67840,note_on,0,0,0,,11,,,70,127
67999,note_off,159,0,0,,11,,,70,127
67999,note_off,0,0,0,,7,,,79,127
67999,note_off,0,0,0,,11,,,46,127
68004,note_on,5,0,0,,11,,,46,127
68004,note_on,0,0,0,,0,,,72,127
68004,note_on,0,0,0,,8,,,80,127
68163,note_off,159,0,0,,8,,,80,127
68163,note_off,0,0,0,,0,,,72,127
68168,note_on,5,0,0,,5,,,77,127
68168,note_on,0,0,0,,2,,,74,127
68327,note_off,159,0,0,,2,,,74,127
68327,note_off,0,0,0,,5,,,77,127
68327,note_off,0,0,0,,11,,,46,127
68330,note_off,3,0,0,,11,,,58,127
68332,note_on,2,0,0,,3,,,39,127
68332,note_on,0,0,0,,7,,,79,127
68332,note_on,0,0,0,,3,,,75,127
68491,note_off,159,0,0,,3,,,75,127
68491,note_off,0,0,0,,7,,,79,127
68496,note_on,5,0,0,,2,,,74,127
68496,note_on,0,0,0,,5,,,77,127
68655,note_off,159,0,0,,5,,,77,127
68655,note_off,0,0,0,,2,,,74,127
68655,note_off,0,0,0,,3,,,39,127
68660,note_on,5,0,0,,3,,,51,127
68660,note_on,0,0,0,,3,,,75,127
68660,note_on,0,0,0,,0,,,72,127
68819,note_off,159,0,0,,0,,,72,127
68819,note_off,0,0,0,,3,,,75,127
68824,note_on,5,0,0,,11,,,70,127
68824,note_on,0,0,0,,2,,,74,127
68983,note_off,159,0,0,,2,,,74,127
68983,note_off,0,0,0,,11,,,70,127
68983,note_off,0,0,0,,3,,,51,127
68988,note_on,5,0,0,,3,,,39,127
68988,note_on,0,0,0,,10,,,69,127
68988,note_on,0,0,0,,0,,,72,127
69147,note_off,159,0,0,,0,,,72,127
69147,note_off,0,0,0,,10,,,69,127
69152,note_on,5,0,0,,11,,,70,127
69152,note_on,0,0,0,,7,,,67,127
69311,note_off,159,0,0,,7,,,67,127
69311,note_off,0,0,0,,11,,,70,127
69311,note_off,0,0,0,,3,,,39,127
69316,note_on,5,0,0,,5,,,41,127
69316,note_on,0,0,0,,10,,,69,127
69316,note_on,0,0,0,,5,,,65,127
69640,note_off,324,0,0,,10,,,69,127
69640,note_off,0,0,0,,5,,,41,127
69645,note_on,5,0,0,,5,,,53,127
69645,note_on,0,0,0,,0,,,72,127
69714,note_off,69,0,0,,0,,,72,127
69728,note_on,14,0,0,,11,,,70,127
69797,note_off,69,0,0,,11,,,70,127
69811,note_on,14,0,0,,0,,,72,127
69880,note_off,69,0,0,,0,,,72,127
69894,note_on,14,0,0,,11,,,70,127
69963,note_off,69,0,0,,11,,,70,127
69970,note_off,7,0,0,,5,,,65,127
69972,note_off,2,0,0,,5,,,53,127
69977,note_on,5,0,0,,2,,,50,127
69977,note_on,0,0,0,,0,,,72,127
70046,note_off,69,0,0,,0,,,72,127
70060,note_on,14,0,0,,11,,,70,127
70129,note_off,69,0,0,,11,,,70,127
70143,note_on,14,0,0,,10,,,69,127
70212,note_off,69,0,0,,10,,,69,127
70226,note_on,14,0,0,,11,,,70,127
70295,note_off,69,0,0,,11,,,70,127
70305,note_off,10,0,0,,2,,,50,127
70308,note_on,3,0,0,,0,,,72,127
70390,note_on,82,0,0,,5,,,41,127
70459,note_off,69,0,0,,5,,,41,127
70473,note_on,14,0,0,,10,,,45,127
70542,note_off,69,0,0,,10,,,45,127
70556,note_on,14,0,0,,0,,,48,127
70625,note_off,69,0,0,,0,,,48,127
70639,note_on,14,0,0,,5,,,53,127
70708,note_off,69,0,0,,5,,,53,127
70722,note_on,14,0,0,,10,,,57,127
70791,note_off,69,0,0,,10,,,57,127
70805,note_on,14,0,0,,0,,,60,127
70874,note_off,69,0,0,,0,,,60,127
70888,note_on,14,0,0,,5,,,65,127
70957,note_off,69,0,0,,5,,,65,127
70966,note_off,9,0,0,,0,,,72,127
70971,note_on,5,0,0,,10,,,69,127
71040,note_off,69,0,0,,10,,,69,127
71054,note_on,14,0,0,,0,,,72,127
71123,note_off,69,0,0,,0,,,72,127
71137,note_on,14,0,0,,5,,,77,127
71206,note_off,69,0,0,,5,,,77,127
71220,note_on,14,0,0,,10,,,81,127
71289,note_off,69,0,0,,10,,,81,127
71303,note_on,14,0,0,,5,,,65,127
71303,note_on,0,0,0,,10,,,57,127
71303,note_on,0,0,0,,0,,,84,127
71462,note_off,159,0,0,,0,,,84,127
71467,note_on,5,0,0,,0,,,72,127
71626,note_off,159,0,0,,0,,,72,127
71626,note_off,0,0,0,,10,,,57,127
71631,note_on,5,0,0,,11,,,58,127
71631,note_on,0,0,0,,2,,,86,127
71790,note_off,159,0,0,,2,,,86,127
71795,note_on,5,0,0,,2,,,74,127
71954,note_off,159,0,0,,2,,,74,127
71954,note_off,0,0,0,,11,,,58,127
71959,note_on,5,0,0,,7,,,55,127
71959,note_on,0,0,0,,4,,,76,127
72118,note_off,159,0,0,,4,,,76,127
72123,note_on,5,0,0,,4,,,88,127
72282,note_off,159,0,0,,4,,,88,127
72284,note_off,2,0,0,,7,,,55,127
72286,note_off,2,0,0,,5,,,65,127
72288,note_on,2,0,0,,5,,,89,127
72288,note_on,0,0,0,,5,,,77,127
72370,note_on,82,0,0,,5,,,41,127
72439,note_off,69,0,0,,5,,,41,127
72453,note_on,14,0,0,,10,,,45,127
72522,note_off,69,0,0,,10,,,45,127
72536,note_on,14,0,0,,0,,,48,127
72605,note_off,69,0,0,,0,,,48,127
72619,note_on,14,0,0,,5,,,53,127
72688,note_off,69,0,0,,5,,,53,127
72702,note_on,14,0,0,,10,,,57,127
72771,note_off,69,0,0,,10,,,57,127
72785,note_on,14,0,0,,0,,,60,127
72854,note_off,69,0,0,,0,,,60,127
72868,note_on,14,0,0,,5,,,65,127
72937,note_off,69,0,0,,5,,,65,127
72946,note_off,9,0,0,,5,,,77,127
72946,note_off,0,0,0,,5,,,89,127
72951,note_on,5,0,0,,10,,,69,127
73020,note_off,69,0,0,,10,,,69,127
73034,note_on,14,0,0,,0,,,72,127
73103,note_off,69,0,0,,0,,,72,127
73117,note_on,14,0,0,,5,,,77,127
73186,note_off,69,0,0,,5,,,77,127
73200,note_on,14,0,0,,10,,,81,127
73269,note_off,69,0,0,,10,,,81,127
73283,note_on,14,0,0,,5,,,65,127
73283,note_on,0,0,0,,10,,,57,127
73283,note_on,0,0,0,,0,,,84,127
73442,note_off,159,0,0,,0,,,84,127
73447,note_on,5,0,0,,0,,,72,127
73606,note_off,159,0,0,,0,,,72,127
73606,note_off,0,0,0,,10,,,57,127
73611,note_on,5,0,0,,11,,,58,127
73611,note_on,0,0,0,,2,,,86,127
73770,note_off,159,0,0,,2,,,86,127
73775,note_on,5,0,0,,2,,,74,127
73934,note_off,159,0,0,,2,,,74,127
73934,note_off,0,0,0,,11,,,58,127
73939,note_on,5,0,0,,7,,,55,127
73939,note_on,0,0,0,,4,,,76,127
74098,note_off,159,0,0,,4,,,76,127
74103,note_on,5,0,0,,4,,,88,127
74262,note_off,159,0,0,,4,,,88,127
74262,note_off,0,0,0,,7,,,55,127
74265,note_off,3,0,0,,5,,,65,127
74267,note_on,2,0,0,,5,,,53,127
74267,note_on,0,0,0,,5,,,65,127
74267,note_on,0,0,0,,5,,,89,127
74426,note_off,159,0,0,,5,,,89,127
74431,note_on,5,0,0,,5,,,77,127
74500,note_off,69,0,0,,5,,,77,127
74514,note_on,14,0,0,,7,,,79,127
74583,note_off,69,0,0,,7,,,79,127
74592,note_off,9,0,0,,5,,,53,127
74597,note_on,5,0,0,,3,,,63,127
74597,note_on,0,0,0,,11,,,82,127
74666,note_off,69,0,0,,11,,,82,127
74680,note_on,14,0,0,,10,,,81,127
74749,note_off,69,0,0,,10,,,81,127
74763,note_on,14,0,0,,7,,,79,127
74832,note_off,69,0,0,,7,,,79,127
74846,note_on,14,0,0,,10,,,81,127
74915,note_off,69,0,0,,10,,,81,127
74924,note_off,9,0,0,,3,,,63,127
74929,note_on,5,0,0,,2,,,62,127
74929,note_on,0,0,0,,0,,,84,127
74998,note_off,69,0,0,,0,,,84,127
75012,note_on,14,0,0,,11,,,82,127
75081,note_off,69,0,0,,11,,,82,127
75095,note_on,14,0,0,,10,,,81,127
75164,note_off,69,0,0,,10,,,81,127
75178,note_on,14,0,0,,11,,,82,127
75247,note_off,69,0,0,,11,,,82,127
75256,note_off,9,0,0,,2,,,62,127
75259,note_off,3,0,0,,5,,,65,127
75261,note_on,2,0,0,,5,,,65,127
75261,note_on,0,0,0,,3,,,63,127
75261,note_on,0,0,0,,0,,,60,127
75261,note_on,0,0,0,,2,,,86,127
75330,note_off,69,0,0,,2,,,86,127
75344,note_on,14,0,0,,0,,,84,127
75413,note_off,69,0,0,,0,,,84,127
75427,note_on,14,0,0,,11,,,82,127
75496,note_off,69,0,0,,11,,,82,127
75510,note_on,14,0,0,,0,,,84,127
75579,note_off,69,0,0,,0,,,84,127
75588,note_off,9,0,0,,0,,,60,127
75588,note_off,0,0,0,,3,,,63,127
75593,note_on,5,0,0,,11,,,58,127
75593,note_on,0,0,0,,2,,,62,127
75593,note_on,0,0,0,,3,,,87,127
75662,note_off,69,0,0,,3,,,87,127
75676,note_on,14,0,0,,2,,,86,127
75745,note_off,69,0,0,,2,,,86,127
75759,note_on,14,0,0,,0,,,84,127
75828,note_off,69,0,0,,0,,,84,127
75842,note_on,14,0,0,,2,,,86,127
75911,note_off,69,0,0,,2,,,86,127
75920,note_off,9,0,0,,2,,,62,127
75920,note_off,0,0,0,,11,,,58,127
75925,note_on,5,0,0,,10,,,57,127
75925,note_on,0,0,0,,0,,,60,127
75925,note_on,0,0,0,,3,,,87,127
75925,note_on,0,0,0,,0,,,84,127
76076,note_off,151,0,0,,0,,,84,127
76076,note_off,0,0,0,,3,,,87,127
76085,note_off,9,0,0,,0,,,60,127
76085,note_off,0,0,0,,10,,,57,127
76090,note_on,5,0,0,,11,,,58,127
76090,note_on,0,0,0,,2,,,62,127
76090,note_on,0,0,0,,2,,,86,127
76090,note_on,0,0,0,,11,,,82,127
76241,note_off,151,0,0,,11,,,82,127
76241,note_off,0,0,0,,2,,,86,127
76244,note_off,3,0,0,,2,,,62,127
76244,note_off,0,0,0,,11,,,58,127
76253,note_off,9,0,0,,5,,,65,127
76255,note_on,2,0,0,,0,,,84,127
76255,note_on,0,0,0,,10,,,81,127
76337,note_on,82,0,0,,5,,,41,127
76406,note_off,69,0,0,,5,,,41,127
76420,note_on,14,0,0,,10,,,45,127
76489,note_off,69,0,0,,10,,,45,127
76503,note_on,14,0,0,,0,,,48,127
76572,note_off,69,0,0,,0,,,48,127
76586,note_on,14,0,0,,5,,,53,127
76655,note_off,69,0,0,,5,,,53,127
76669,note_on,14,0,0,,10,,,57,127
76738,note_off,69,0,0,,10,,,57,127
76752,note_on,14,0,0,,0,,,60,127
76821,note_off,69,0,0,,0,,,60,127
76835,note_on,14,0,0,,5,,,65,127
76904,note_off,69,0,0,,5,,,65,127
76913,note_off,9,0,0,,10,,,81,127
76913,note_off,0,0,0,,0,,,84,127
76918,note_on,5,0,0,,10,,,69,127
76987,note_off,69,0,0,,10,,,69,127
77001,note_on,14,0,0,,0,,,72,127
77070,note_off,69,0,0,,0,,,72,127
77084,note_on,14,0,0,,5,,,77,127
77153,note_off,69,0,0,,5,,,77,127
77167,note_on,14,0,0,,10,,,81,127
77236,note_off,69,0,0,,10,,,81,127
77250,note_on,14,0,0,,5,,,65,127
77250,note_on,0,0,0,,10,,,57,127
77250,note_on,0,0,0,,0,,,84,127
77409,note_off,159,0,0,,0,,,84,127
77414,note_on,5,0,0,,0,,,72,127
77573,note_off,159,0,0,,0,,,72,127
77573,note_off,0,0,0,,10,,,57,127
77578,note_on,5,0,0,,11,,,58,127
77578,note_on,0,0,0,,2,,,86,127
77737,note_off,159,0,0,,2,,,86,127
77742,note_on,5,0,0,,2,,,74,127
77901,note_off,159,0,0,,2,,,74,127
77901,note_off,0,0,0,,11,,,58,127
77906,note_on,5,0,0,,7,,,55,127
77906,note_on,0,0,0,,4,,,76,127
78065,note_off,159,0,0,,4,,,76,127
78070,note_on,5,0,0,,4,,,88,127
78229,note_off,159,0,0,,4,,,88,127
78229,note_off,0,0,0,,7,,,55,127
78232,note_off,3,0,0,,5,,,65,127
78234,note_on,2,0,0,,5,,,53,127
78234,note_on,0,0,0,,5,,,65,127
78234,note_on,0,0,0,,5,,,89,127
78393,note_off,159,0,0,,5,,,89,127
78398,note_on,5,0,0,,5,,,77,127
78467,note_off,69,0,0,,5,,,77,127
78481,note_on,14,0,0,,7,,,79,127
78550,note_off,69,0,0,,7,,,79,127
78559,note_off,9,0,0,,5,,,53,127
78564,note_on,5,0,0,,3,,,63,127
78564,note_on,0,0,0,,11,,,82,127
78633,note_off,69,0,0,,11,,,82,127
78647,note_on,14,0,0,,10,,,81,127
78716,note_off,69,0,0,,10,,,81,127
78730,note_on,14,0,0,,7,,,79,127
78799,note_off,69,0,0,,7,,,79,127
78813,note_on,14,0,0,,10,,,81,127
78882,note_off,69,0,0,,10,,,81,127
78891,note_off,9,0,0,,3,,,63,127
78896,note_on,5,0,0,,2,,,62,127
78896,note_on,0,0,0,,0,,,84,127
78965,note_off,69,0,0,,0,,,84,127
78979,note_on,14,0,0,,11,,,82,127
79048,note_off,69,0,0,,11,,,82,127
79062,note_on,14,0,0,,10,,,81,127
79131,note_off,69,0,0,,10,,,81,127
79145,note_on,14,0,0,,11,,,82,127
79214,note_off,69,0,0,,11,,,82,127
79223,note_off,9,0,0,,2,,,62,127
79226,note_off,3,0,0,,5,,,65,127
79228,note_on,2,0,0,,3,,,63,127
79228,note_on,0,0,0,,0,,,84,127
79387,note_off,159,0,0,,0,,,84,127
79392,note_on,5,0,0,,0,,,84,127
79433,note_off,41,0,0,,0,,,84,127
79447,note_on,14,0,0,,2,,,86,127
79488,note_off,41,0,0,,2,,,86,127
79502,note_on,14,0,0,,3,,,87,127
79543,note_off,41,0,0,,3,,,87,127
79552,note_off,9,0,0,,3,,,63,127
79557,note_on,5,0,0,,5,,,65,127
79557,note_on,0,0,0,,2,,,86,127
79716,note_off,159,0,0,,2,,,86,127
79721,note_on,5,0,0,,0,,,84,127
79880,note_off,159,0,0,,0,,,84,127
79880,note_off,0,0,0,,5,,,65,127
79885,note_on,5,0,0,,5,,,53,127
79885,note_on,0,0,0,,11,,,82,127
80044,note_off,159,0,0,,11,,,82,127
80049,note_on,5,0,0,,10,,,81,127
80203,note_off,154,0,0,,10,,,81,127
80208,note_off,5,0,0,,5,,,53,127
80213,note_on,5,0,0,,11,,,58,127
80378,note_on,165,0,0,,11,,,82,127
80537,note_off,159,0,0,,11,,,82,127
80542,note_on,5,0,0,,11,,,82,127
80701,note_off,159,0,0,,11,,,58,127
80706,note_on,5,0,0,,11,,,70,127
80865,note_off,159,0,0,,11,,,70,127
80867,note_off,2,0,0,,11,,,82,127
80870,note_on,3,0,0,,11,,,70,127
81035,note_on,165,0,0,,2,,,86,127
81194,note_off,159,0,0,,2,,,86,127
81196,note_off,2,0,0,,11,,,70,127
81199,note_on,3,0,0,,2,,,86,127
81364,note_on,165,0,0,,2,,,74,127
81523,note_off,159,0,0,,2,,,74,127
81525,note_off,2,0,0,,2,,,86,127
81528,note_on,3,0,0,,2,,,74,127
81693,note_on,165,0,0,,5,,,89,127
81852,note_off,159,0,0,,5,,,89,127
81854,note_off,2,0,0,,2,,,74,127
81857,note_on,3,0,0,,5,,,89,127
82022,note_on,165,0,0,,5,,,77,127
82181,note_off,159,0,0,,5,,,77,127
82186,note_on,5,0,0,,5,,,77,127
82345,note_off,159,0,0,,5,,,89,127
82350,note_on,5,0,0,,7,,,91,127
82509,note_off,159,0,0,,7,,,91,127
82514,note_on,5,0,0,,5,,,89,127
82613,note_off,99,0,0,,5,,,77,127
82673,note_off,60,0,0,,5,,,89,127
82678,note_on,5,0,0,,7,,,79,127
82678,note_on,0,0,0,,3,,,87,127
82837,note_off,159,0,0,,3,,,87,127
82837,note_off,0,0,0,,7,,,79,127
82842,note_on,5,0,0,,5,,,77,127
82842,note_on,0,0,0,,2,,,86,127
83001,note_off,159,0,0,,2,,,86,127
83001,note_off,0,0,0,,5,,,77,127
83006,note_on,5,0,0,,3,,,75,127
83006,note_on,0,0,0,,0,,,84,127
83165,note_off,159,0,0,,0,,,84,127
83165,note_off,0,0,0,,3,,,75,127
83170,note_on,5,0,0,,2,,,74,127
83170,note_on,0,0,0,,5,,,89,127
83239,note_off,69,0,0,,5,,,89,127
83253,note_on,14,0,0,,3,,,87,127
83322,note_off,69,0,0,,3,,,87,127
83331,note_off,9,0,0,,2,,,74,127
83336,note_on,5,0,0,,0,,,72,127
83336,note_on,0,0,0,,2,,,86,127
83405,note_off,69,0,0,,2,,,86,127
83419,note_on,14,0,0,,0,,,84,127
83488,note_off,69,0,0,,0,,,84,127
83497,note_off,9,0,0,,0,,,72,127
83502,note_on,5,0,0,,11,,,70,127
83502,note_on,0,0,0,,11,,,82,127
83571,note_off,69,0,0,,11,,,82,127
83585,note_on,14,0,0,,10,,,81,127
83654,note_off,69,0,0,,10,,,81,127
83663,note_off,9,0,0,,11,,,70,127
83668,note_on,5,0,0,,10,,,69,127
83668,note_on,0,0,0,,7,,,79,127
83737,note_off,69,0,0,,7,,,79,127
83751,note_on,14,0,0,,5,,,77,127
83820,note_off,69,0,0,,5,,,77,127
83829,note_off,9,0,0,,10,,,69,127
83834,note_on,5,0,0,,7,,,67,127
83834,note_on,0,0,0,,3,,,75,127
83903,note_off,69,0,0,,3,,,75,127
83917,note_on,14,0,0,,2,,,74,127
83986,note_off,69,0,0,,2,,,74,127
83995,note_off,9,0,0,,7,,,67,127
84000,note_on,5,0,0,,5,,,65,127
84000,note_on,0,0,0,,0,,,72,127
84069,note_off,69,0,0,,0,,,72,127
84083,note_on,14,0,0,,11,,,70,127
84152,note_off,69,0,0,,11,,,70,127
84161,note_off,9,0,0,,5,,,65,127
84166,note_on,5,0,0,,3,,,63,127
84166,note_on,0,0,0,,7,,,79,127
84325,note_off,159,0,0,,7,,,79,127
84330,note_on,5,0,0,,3,,,75,127
84489,note_off,159,0,0,,3,,,75,127
84489,note_off,0,0,0,,3,,,63,127
84494,note_on,5,0,0,,5,,,65,127
84494,note_on,0,0,0,,2,,,74,127
84653,note_off,159,0,0,,2,,,74,127
84658,note_on,5,0,0,,0,,,72,127
84817,note_off,159,0,0,,0,,,72,127
84817,note_off,0,0,0,,5,,,65,127
84822,note_on,5,0,0,,5,,,53,127
84822,note_on,0,0,0,,11,,,70,127
84981,note_off,159,0,0,,11,,,70,127
84986,note_on,5,0,0,,10,,,69,127
85140,note_off,154,0,0,,10,,,69,127
85145,note_off,5,0,0,,5,,,53,127
85150,note_on,5,0,0,,11,,,58,127
85315,note_on,165,0,0,,11,,,70,127
85474,note_off,159,0,0,,11,,,70,127
85476,note_off,2,0,0,,11,,,58,127
85479,note_on,3,0,0,,11,,,70,127
85644,note_on,165,0,0,,11,,,58,127
85803,note_off,159,0,0,,11,,,58,127
85805,note_off,2,0,0,,11,,,70,127
85808,note_on,3,0,0,,11,,,58,127
85973,note_on,165,0,0,,2,,,74,127
86132,note_off,159,0,0,,2,,,74,127
86134,note_off,2,0,0,,11,,,58,127
86137,note_on,3,0,0,,2,,,74,127
86302,note_on,165,0,0,,2,,,62,127
86461,note_off,159,0,0,,2,,,62,127
86463,note_off,2,0,0,,2,,,74,127
86466,note_on,3,0,0,,2,,,62,127
86631,note_on,165,0,0,,5,,,77,127
86790,note_off,159,0,0,,5,,,77,127
86792,note_off,2,0,0,,2,,,62,127
86795,note_on,3,0,0,,5,,,77,127
86960,note_on,165,0,0,,5,,,65,127
87119,note_off,159,0,0,,5,,,65,127
87124,note_on,5,0,0,,5,,,65,127
87283,note_off,159,0,0,,5,,,77,127
87288,note_on,5,0,0,,7,,,79,127
87447,note_off,159,0,0,,7,,,79,127
87452,note_on,5,0,0,,5,,,77,127
87586,note_off,134,0,0,,5,,,65,127
87612,note_off,26,0,0,,5,,,77,127
87617,note_on,5,0,0,,7,,,67,127
87617,note_on,0,0,0,,3,,,75,127
87776,note_off,159,0,0,,3,,,75,127
87776,note_off,0,0,0,,7,,,67,127
87781,note_on,5,0,0,,5,,,65,127
87781,note_on,0,0,0,,2,,,74,127
87940,note_off,159,0,0,,2,,,74,127
87940,note_off,0,0,0,,5,,,65,127
87945,note_on,5,0,0,,3,,,63,127
87945,note_on,0,0,0,,0,,,72,127
88104,note_off,159,0,0,,0,,,72,127
88104,note_off,0,0,0,,3,,,63,127
88109,note_on,5,0,0,,2,,,62,127
88109,note_on,0,0,0,,5,,,77,127
88178,note_off,69,0,0,,5,,,77,127
88192,note_on,14,0,0,,3,,,75,127
88261,note_off,69,0,0,,3,,,75,127
88270,note_off,9,0,0,,2,,,62,127
88275,note_on,5,0,0,,0,,,60,127
88275,note_on,0,0,0,,2,,,74,127
88344,note_off,69,0,0,,2,,,74,127
88358,note_on,14,0,0,,0,,,72,127
88427,note_off,69,0,0,,0,,,72,127
88436,note_off,9,0,0,,0,,,60,127
88441,note_on,5,0,0,,11,,,58,127
88441,note_on,0,0,0,,11,,,70,127
88510,note_off,69,0,0,,11,,,70,127
88524,note_on,14,0,0,,10,,,69,127
88593,note_off,69,0,0,,10,,,69,127
88602,note_off,9,0,0,,11,,,58,127
88607,note_on,5,0,0,,10,,,57,127
88607,note_on,0,0,0,,7,,,67,127
88676,note_off,69,0,0,,7,,,67,127
88690,note_on,14,0,0,,5,,,65,127
88759,note_off,69,0,0,,5,,,65,127
88768,note_off,9,0,0,,10,,,57,127
88773,note_on,5,0,0,,7,,,55,127
88773,note_on,0,0,0,,3,,,63,127
88842,note_off,69,0,0,,3,,,63,127
88856,note_on,14,0,0,,2,,,62,127
88925,note_off,69,0,0,,2,,,62,127
88934,note_off,9,0,0,,7,,,55,127
88939,note_on,5,0,0,,5,,,53,127
88939,note_on,0,0,0,,0,,,60,127
89008,note_off,69,0,0,,0,,,60,127
89022,note_on,14,0,0,,11,,,58,127
89091,note_off,69,0,0,,11,,,58,127
89100,note_off,9,0,0,,5,,,53,127
89105,note_on,5,0,0,,3,,,51,127
89105,note_on,0,0,0,,7,,,67,127
89264,note_off,159,0,0,,7,,,67,127
89269,note_on,5,0,0,,3,,,63,127
89428,note_off,159,0,0,,3,,,63,127
89428,note_off,0,0,0,,3,,,51,127
89433,note_on,5,0,0,,5,,,53,127
89433,note_on,0,0,0,,2,,,62,127
89592,note_off,159,0,0,,2,,,62,127
89597,note_on,5,0,0,,0,,,60,127
89756,note_off,159,0,0,,0,,,60,127
89756,note_off,0,0,0,,5,,,53,127
89761,note_on,5,0,0,,5,,,41,127
89761,note_on,0,0,0,,11,,,58,127
89920,note_off,159,0,0,,11,,,58,127
89925,note_on,5,0,0,,10,,,57,127
90084,note_off,159,0,0,,10,,,57,127
90084,note_off,0,0,0,,5,,,41,127
90089,note_on,5,0,0,,11,,,46,127
90089,note_on,0,0,0,,11,,,58,127
90158,note_off,69,0,0,,11,,,58,127
90172,note_on,14,0,0,,11,,,70,127
90241,note_off,69,0,0,,11,,,70,127
90255,note_on,14,0,0,,2,,,74,127
90324,note_off,69,0,0,,2,,,74,127
90338,note_on,14,0,0,,11,,,70,127
90407,note_off,69,0,0,,11,,,70,127
90417,note_off,10,0,0,,11,,,46,127
90420,note_on,3,0,0,,5,,,77,127
90502,note_on,82,0,0,,11,,,58,127
90571,note_off,69,0,0,,11,,,58,127
90585,note_on,14,0,0,,2,,,62,127
90654,note_off,69,0,0,,2,,,62,127
90668,note_on,14,0,0,,11,,,58,127
90737,note_off,69,0,0,,11,,,58,127
90751,note_on,14,0,0,,5,,,65,127
90828,note_off,77,0,0,,5,,,77,127
90833,note_on,5,0,0,,5,,,77,127
90902,note_off,69,0,0,,5,,,77,127
90911,note_off,9,0,0,,5,,,65,127
90916,note_on,5,0,0,,5,,,41,127
90916,note_on,0,0,0,,10,,,81,127
90985,note_off,69,0,0,,10,,,81,127
90999,note_on,14,0,0,,5,,,77,127
91068,note_off,69,0,0,,5,,,77,127
91077,note_off,9,0,0,,5,,,41,127
91082,note_on,5,0,0,,11,,,46,127
91082,note_on,0,0,0,,11,,,82,127
91151,note_off,69,0,0,,11,,,82,127
91165,note_on,14,0,0,,11,,,70,127
91234,note_off,69,0,0,,11,,,70,127
91248,note_on,14,0,0,,2,,,74,127
91317,note_off,69,0,0,,2,,,74,127
91331,note_on,14,0,0,,11,,,70,127
91400,note_off,69,0,0,,11,,,70,127
91410,note_off,10,0,0,,11,,,46,127
91413,note_on,3,0,0,,5,,,77,127
91495,note_on,82,0,0,,11,,,58,127
91564,note_off,69,0,0,,11,,,58,127
91578,note_on,14,0,0,,2,,,62,127
91647,note_off,69,0,0,,2,,,62,127
91661,note_on,14,0,0,,11,,,58,127
91730,note_off,69,0,0,,11,,,58,127
91744,note_on,14,0,0,,5,,,65,127
91821,note_off,77,0,0,,5,,,77,127
91826,note_on,5,0,0,,5,,,77,127
91895,note_off,69,0,0,,5,,,77,127
91904,note_off,9,0,0,,5,,,65,127
91909,note_on,5,0,0,,5,,,41,127
91909,note_on,0,0,0,,10,,,81,127
91978,note_off,69,0,0,,10,,,81,127
91992,note_on,14,0,0,,5,,,77,127
92061,note_off,69,0,0,,5,,,77,127
92070,note_off,9,0,0,,5,,,41,127
92075,note_on,5,0,0,,11,,,46,127
92075,note_on,0,0,0,,11,,,82,127
92144,note_off,69,0,0,,11,,,82,127
92158,note_on,14,0,0,,11,,,70,127
92227,note_off,69,0,0,,11,,,70,127
92241,note_on,14,0,0,,2,,,74,127
92310,note_off,69,0,0,,2,,,74,127
92325,note_on,15,0,0,,11,,,70,127
92394,note_off,69,0,0,,11,,,70,127
92403,note_off,9,0,0,,11,,,46,127
92408,note_on,5,0,0,,5,,,77,127
92492,note_on,84,0,0,,11,,,58,127
92561,note_off,69,0,0,,11,,,58,127
92575,note_on,14,0,0,,2,,,62,127
92644,note_off,69,0,0,,2,,,62,127
92659,note_on,15,0,0,,11,,,58,127
92728,note_off,69,0,0,,11,,,58,127
92742,note_on,14,0,0,,5,,,65,127
92819,note_off,77,0,0,,5,,,77,127
92826,note_on,7,0,0,,5,,,77,127
92895,note_off,69,0,0,,5,,,77,127
92902,note_off,7,0,0,,5,,,65,127
92909,note_on,7,0,0,,10,,,81,127
92909,note_on,0,0,0,,5,,,41,127
92978,note_off,69,0,0,,10,,,81,127
92993,note_on,15,0,0,,5,,,77,127
93062,note_off,69,0,0,,5,,,77,127
93069,note_off,7,0,0,,5,,,41,127
93076,note_on,7,0,0,,11,,,82,127
93076,note_on,0,0,0,,11,,,46,127
93145,note_off,69,0,0,,11,,,82,127
93160,note_on,15,0,0,,10,,,81,127
93229,note_off,69,0,0,,10,,,81,127
93243,note_on,14,0,0,,7,,,79,127
93312,note_off,69,0,0,,7,,,79,127
93327,note_on,15,0,0,,5,,,77,127
93396,note_off,69,0,0,,5,,,77,127
93403,note_off,7,0,0,,11,,,46,127
93410,note_on,7,0,0,,3,,,75,127
93410,note_on,0,0,0,,3,,,51,127
93479,note_off,69,0,0,,3,,,75,127
93494,note_on,15,0,0,,2,,,74,127
93563,note_off,69,0,0,,2,,,74,127
93577,note_on,14,0,0,,0,,,72,127
93646,note_off,69,0,0,,0,,,72,127
93661,note_on,15,0,0,,11,,,70,127
93730,note_off,69,0,0,,11,,,70,127
93737,note_off,7,0,0,,3,,,51,127
93744,note_on,7,0,0,,2,,,74,127
93744,note_on,0,0,0,,5,,,41,127
93813,note_off,69,0,0,,2,,,74,127
93828,note_on,15,0,0,,0,,,72,127
93897,note_off,69,0,0,,0,,,72,127
93911,note_on,14,0,0,,11,,,70,127
93980,note_off,69,0,0,,11,,,70,127
93994,note_on,14,0,0,,0,,,72,127
94063,note_off,69,0,0,,0,,,72,127
94072,note_off,9,0,0,,5,,,41,127
94079,note_on,7,0,0,,11,,,46,127
94079,note_on,0,0,0,,11,,,70,127
94148,note_off,69,0,0,,11,,,70,127
94163,note_on,15,0,0,,10,,,69,127
94232,note_off,69,0,0,,10,,,69,127
94249,note_on,17,0,0,,7,,,67,127
94318,note_off,69,0,0,,7,,,67,127
94333,note_on,15,0,0,,5,,,65,127
94402,note_off,69,0,0,,5,,,65,127
94407,note_off,5,0,0,,11,,,46,127
94419,note_on,12,0,0,,3,,,51,127
94419,note_on,0,0,0,,3,,,63,127
94488,note_off,69,0,0,,3,,,63,127
94503,note_on,15,0,0,,2,,,62,127
94572,note_off,69,0,0,,2,,,62,127
94589,note_on,17,0,0,,0,,,60,127
94658,note_off,69,0,0,,0,,,60,127
94672,note_on,14,0,0,,11,,,58,127
94741,note_off,69,0,0,,11,,,58,127
94748,note_off,7,0,0,,3,,,51,127
94758,note_on,10,0,0,,5,,,41,127
94758,note_on,0,0,0,,2,,,62,127
94827,note_off,69,0,0,,2,,,62,127
94842,note_on,15,0,0,,0,,,60,127
94911,note_off,69,0,0,,0,,,60,127
94928,note_on,17,0,0,,11,,,58,127
94997,note_off,69,0,0,,11,,,58,127
95012,note_on,15,0,0,,0,,,60,127
95081,note_off,69,0,0,,0,,,60,127
95086,note_off,5,0,0,,5,,,41,127
95117,note_on,31,0,0,,11,,,34,127
95117,note_on,0,0,0,,11,,,58,127
97025,note_off,1908,0,0,,11,,,58,127
97025,note_off,0,0,0,,11,,,34,127
102912,end_of_track,5887,1,0,,,,,,
