tick,type,time,meta,track,program,channel,pitch,tempo,note,velocity
0,copyright,0,1,0,,,,,,
0,program_change,0,0,0,6,0,,,,
0,pitchwheel,0,0,0,,0,0,,,
0,program_change,0,0,0,6,1,,,,
0,pitchwheel,0,0,0,,1,-590,,,
0,program_change,0,0,0,6,2,,,,
0,pitchwheel,0,0,0,,2,-272,,,
0,program_change,0,0,0,6,3,,,,
0,pitchwheel,0,0,0,,3,-353,,,
0,program_change,0,0,0,6,4,,,,
0,pitchwheel,0,0,0,,4,-560,,,
0,program_change,0,0,0,6,5,,,,
0,pitchwheel,0,0,0,,5,-80,,,
0,program_change,0,0,0,6,6,,,,
0,pitchwheel,0,0,0,,6,-625,,,
0,program_change,0,0,0,6,7,,,,
0,pitchwheel,0,0,0,,7,-130,,,
0,program_change,0,0,0,6,8,,,,
0,pitchwheel,0,0,0,,8,-512,,,
0,program_change,0,0,0,6,10,,,,
0,pitchwheel,0,0,0,,10,-464,,,
0,program_change,0,0,0,6,11,,,,
0,pitchwheel,0,0,0,,11,-208,,,
0,program_change,0,0,0,6,12,,,,
0,pitchwheel,0,0,0,,12,-553,,,
0,set_tempo,0,1,0,,,,500000,,
136,note_on,136,0,0,,2,,,38,127
432,note_on,296,0,0,,2,,,50,127
435,note_off,3,0,0,,2,,,38,127
709,note_off,274,0,0,,2,,,50,127
719,note_on,10,0,0,,7,,,55,127
789,note_off,70,0,0,,7,,,55,127
791,note_on,2,0,0,,5,,,53,127
861,note_off,70,0,0,,5,,,53,127
863,note_on,2,0,0,,7,,,55,127
933,note_off,70,0,0,,7,,,55,127
935,note_on,2,0,0,,5,,,53,127
1005,note_off,70,0,0,,5,,,53,127
1007,note_on,2,0,0,,4,,,52,127
1149,note_off,142,0,0,,4,,,52,127
1151,note_on,2,0,0,,2,,,50,127
1293,note_off,142,0,0,,2,,,50,127
1295,note_on,2,0,0,,0,,,60,127
1365,note_off,70,0,0,,0,,,60,127
1367,note_on,2,0,0,,11,,,58,127
1437,note_off,70,0,0,,11,,,58,127
1439,note_on,2,0,0,,0,,,60,127
1509,note_off,70,0,0,,0,,,60,127
1511,note_on,2,0,0,,11,,,58,127
1581,note_off,70,0,0,,11,,,58,127
1583,note_on,2,0,0,,10,,,57,127
1725,note_off,142,0,0,,10,,,57,127
1727,note_on,2,0,0,,11,,,58,127
1869,note_off,142,0,0,,11,,,58,127
1871,note_on,2,0,0,,4,,,64,127
2013,note_off,142,0,0,,4,,,64,127
2015,note_on,2,0,0,,2,,,62,127
2157,note_off,142,0,0,,2,,,62,127
2159,note_on,2,0,0,,0,,,60,127
2301,note_off,142,0,0,,0,,,60,127
2303,note_on,2,0,0,,11,,,58,127
2445,note_off,142,0,0,,11,,,58,127
2447,note_on,2,0,0,,10,,,57,127
2735,note_on,288,0,0,,10,,,69,127
3021,note_off,286,0,0,,10,,,69,127
3021,note_off,0,0,0,,10,,,57,127
3023,note_on,2,0,0,,10,,,57,127
3023,note_on,0,0,0,,2,,,74,127
3093,note_off,70,0,0,,2,,,74,127
3095,note_on,2,0,0,,1,,,73,127
3165,note_off,70,0,0,,1,,,73,127
3167,note_on,2,0,0,,2,,,74,127
3237,note_off,70,0,0,,2,,,74,127
3239,note_on,2,0,0,,1,,,73,127
3309,note_off,70,0,0,,1,,,73,127
3311,note_on,2,0,0,,12,,,71,127
3453,note_off,142,0,0,,12,,,71,127
3455,note_on,2,0,0,,10,,,69,127
3597,note_off,142,0,0,,10,,,69,127
3597,note_off,0,0,0,,10,,,57,127
3599,note_on,2,0,0,,7,,,55,127
3599,note_on,0,0,0,,5,,,77,127
3669,note_off,70,0,0,,5,,,77,127
3671,note_on,2,0,0,,4,,,76,127
3741,note_off,70,0,0,,4,,,76,127
3743,note_on,2,0,0,,5,,,77,127
3813,note_off,70,0,0,,5,,,77,127
3815,note_on,2,0,0,,4,,,76,127
3885,note_off,70,0,0,,4,,,76,127
3887,note_on,2,0,0,,2,,,74,127
4029,note_off,142,0,0,,2,,,74,127
4031,note_on,2,0,0,,4,,,76,127
4173,note_off,142,0,0,,4,,,76,127
4173,note_off,0,0,0,,7,,,55,127
4175,note_on,2,0,0,,10,,,57,127
4175,note_on,0,0,0,,10,,,81,127
4317,note_off,142,0,0,,10,,,81,127
4319,note_on,2,0,0,,7,,,79,127
4461,note_off,142,0,0,,7,,,79,127
4463,note_on,2,0,0,,5,,,77,127
4605,note_off,142,0,0,,5,,,77,127
4607,note_on,2,0,0,,4,,,76,127
4749,note_off,142,0,0,,4,,,76,127
4749,note_off,0,0,0,,10,,,57,127
4751,note_on,2,0,0,,2,,,50,127
4751,note_on,0,0,0,,2,,,74,127
5037,note_off,286,0,0,,2,,,50,127
5039,note_on,2,0,0,,5,,,65,127
5181,note_off,142,0,0,,5,,,65,127
5183,note_off,2,0,0,,2,,,74,127
5183,note_on,0,0,0,,7,,,67,127
5325,note_off,142,0,0,,7,,,67,127
5327,note_on,2,0,0,,5,,,65,127
5469,note_off,142,0,0,,5,,,65,127
5471,note_on,2,0,0,,2,,,62,127
5613,note_off,142,0,0,,2,,,62,127
5615,note_on,2,0,0,,5,,,65,127
5615,note_on,0,0,0,,10,,,69,127
5757,note_off,142,0,0,,5,,,65,127
5759,note_on,2,0,0,,7,,,67,127
5901,note_off,142,0,0,,7,,,67,127
5901,note_off,0,0,0,,10,,,69,127
5903,note_on,2,0,0,,5,,,65,127
5903,note_on,0,0,0,,4,,,76,127
5973,note_off,70,0,0,,4,,,76,127
5975,note_on,2,0,0,,2,,,74,127
6045,note_off,70,0,0,,2,,,74,127
6045,note_off,0,0,0,,5,,,65,127
6047,note_on,2,0,0,,2,,,62,127
6047,note_on,0,0,0,,4,,,76,127
6117,note_off,70,0,0,,4,,,76,127
6119,note_on,2,0,0,,2,,,74,127
6189,note_off,70,0,0,,2,,,74,127
6189,note_off,0,0,0,,2,,,62,127
6191,note_on,2,0,0,,5,,,65,127
6191,note_on,0,0,0,,10,,,69,127
6333,note_off,142,0,0,,5,,,65,127
6335,note_on,2,0,0,,7,,,67,127
6473,note_off,138,0,0,,10,,,69,127
6477,note_off,4,0,0,,7,,,67,127
6479,note_on,2,0,0,,5,,,65,127
6479,note_on,0,0,0,,2,,,74,127
6621,note_off,142,0,0,,5,,,65,127
6623,note_on,2,0,0,,4,,,64,127
6765,note_off,142,0,0,,4,,,64,127
6765,note_off,0,0,0,,2,,,74,127
6767,note_on,2,0,0,,2,,,62,127
6767,note_on,0,0,0,,4,,,76,127
6909,note_off,142,0,0,,2,,,62,127
6911,note_on,2,0,0,,1,,,61,127
7053,note_off,142,0,0,,1,,,61,127
7053,note_off,0,0,0,,4,,,76,127
7055,note_on,2,0,0,,2,,,62,127
7055,note_on,0,0,0,,5,,,77,127
7295,note_off,240,0,0,,5,,,77,127
7343,note_on,48,0,0,,5,,,77,127
7389,note_off,46,0,0,,5,,,77,127
7391,note_on,2,0,0,,4,,,76,127
7437,note_off,46,0,0,,4,,,76,127
7439,note_on,2,0,0,,5,,,77,127
7485,note_off,46,0,0,,5,,,77,127
7487,note_on,2,0,0,,7,,,79,127
7629,note_off,142,0,0,,7,,,79,127
7629,note_off,0,0,0,,2,,,62,127
7631,note_on,2,0,0,,2,,,62,127
7631,note_on,0,0,0,,11,,,58,127
7631,note_on,0,0,0,,5,,,77,127
7773,note_off,142,0,0,,5,,,77,127
7775,note_on,2,0,0,,2,,,74,127
7917,note_off,142,0,0,,2,,,74,127
7919,note_on,2,0,0,,5,,,77,127
7965,note_off,46,0,0,,5,,,77,127
7967,note_on,2,0,0,,4,,,76,127
8013,note_off,46,0,0,,4,,,76,127
8015,note_on,2,0,0,,5,,,77,127
8061,note_off,46,0,0,,5,,,77,127
8063,note_on,2,0,0,,7,,,79,127
8205,note_off,142,0,0,,7,,,79,127
8205,note_off,0,0,0,,11,,,58,127
8205,note_off,0,0,0,,2,,,62,127
8207,note_on,2,0,0,,11,,,58,127
8207,note_on,0,0,0,,7,,,55,127
8207,note_on,0,0,0,,2,,,62,127
8207,note_on,0,0,0,,5,,,77,127
8349,note_off,142,0,0,,5,,,77,127
8351,note_on,2,0,0,,2,,,74,127
8493,note_off,142,0,0,,2,,,74,127
8495,note_on,2,0,0,,5,,,77,127
8541,note_off,46,0,0,,5,,,77,127
8543,note_on,2,0,0,,4,,,76,127
8589,note_off,46,0,0,,4,,,76,127
8591,note_on,2,0,0,,5,,,77,127
8637,note_off,46,0,0,,5,,,77,127
8639,note_on,2,0,0,,7,,,79,127
8781,note_off,142,0,0,,7,,,79,127
8781,note_off,0,0,0,,2,,,62,127
8781,note_off,0,0,0,,7,,,55,127
8781,note_off,0,0,0,,11,,,58,127
8783,note_on,2,0,0,,10,,,45,127
8783,note_on,0,0,0,,10,,,57,127
8783,note_on,0,0,0,,5,,,77,127
8925,note_off,142,0,0,,5,,,77,127
8927,note_on,2,0,0,,4,,,76,127
9069,note_off,142,0,0,,4,,,76,127
9071,note_on,2,0,0,,2,,,74,127
9117,note_off,46,0,0,,2,,,74,127
9119,note_on,2,0,0,,1,,,73,127
9165,note_off,46,0,0,,1,,,73,127
9167,note_on,2,0,0,,2,,,74,127
9213,note_off,46,0,0,,2,,,74,127
9215,note_on,2,0,0,,1,,,73,127
9357,note_off,142,0,0,,1,,,73,127
9357,note_off,0,0,0,,10,,,57,127
9357,note_off,0,0,0,,10,,,45,127
9359,note_on,2,0,0,,2,,,38,127
9359,note_on,0,0,0,,2,,,50,127
9359,note_on,0,0,0,,2,,,74,127
9645,note_off,286,0,0,,2,,,74,127
9647,note_on,2,0,0,,10,,,81,127
9693,note_off,46,0,0,,10,,,81,127
9695,note_on,2,0,0,,7,,,79,127
9741,note_off,46,0,0,,7,,,79,127
9743,note_on,2,0,0,,10,,,81,127
9789,note_off,46,0,0,,10,,,81,127
9791,note_on,2,0,0,,11,,,82,127
9929,note_off,138,0,0,,2,,,50,127
9929,note_off,0,0,0,,2,,,38,127
9933,note_off,4,0,0,,11,,,82,127
9935,note_on,2,0,0,,10,,,81,127
10079,note_on,144,0,0,,5,,,77,127
10221,note_off,142,0,0,,5,,,77,127
10223,note_on,2,0,0,,5,,,65,127
10223,note_on,0,0,0,,2,,,74,127
10365,note_off,142,0,0,,2,,,74,127
10367,note_on,2,0,0,,10,,,69,127
10508,note_off,141,0,0,,5,,,65,127
10510,note_off,2,0,0,,10,,,69,127
10512,note_on,2,0,0,,7,,,67,127
10512,note_on,0,0,0,,11,,,70,127
10798,note_off,286,0,0,,11,,,70,127
10798,note_off,0,0,0,,7,,,67,127
10798,note_off,0,0,0,,10,,,81,127
10800,note_on,2,0,0,,4,,,64,127
10800,note_on,0,0,0,,7,,,79,127
10846,note_off,46,0,0,,7,,,79,127
10848,note_on,2,0,0,,5,,,77,127
10894,note_off,46,0,0,,5,,,77,127
10896,note_on,2,0,0,,7,,,79,127
10942,note_off,46,0,0,,7,,,79,127
10944,note_on,2,0,0,,10,,,81,127
11086,note_off,142,0,0,,10,,,81,127
11088,note_on,2,0,0,,7,,,79,127
11232,note_on,144,0,0,,4,,,76,127
11374,note_off,142,0,0,,4,,,76,127
11374,note_off,0,0,0,,4,,,64,127
11376,note_on,2,0,0,,2,,,62,127
11376,note_on,0,0,0,,11,,,70,127
11518,note_off,142,0,0,,11,,,70,127
11520,note_on,2,0,0,,7,,,67,127
11662,note_off,142,0,0,,7,,,67,127
11662,note_off,0,0,0,,2,,,62,127
11664,note_on,2,0,0,,1,,,61,127
11664,note_on,0,0,0,,10,,,69,127
11808,note_off,144,0,0,,7,,,79,127
11950,note_off,142,0,0,,10,,,69,127
11950,note_off,0,0,0,,1,,,61,127
11952,note_on,2,0,0,,2,,,62,127
11952,note_on,0,0,0,,5,,,77,127
11998,note_off,46,0,0,,5,,,77,127
12000,note_on,2,0,0,,4,,,76,127
12046,note_off,46,0,0,,4,,,76,127
12048,note_on,2,0,0,,5,,,77,127
12094,note_off,46,0,0,,5,,,77,127
12096,note_on,2,0,0,,7,,,79,127
12238,note_off,142,0,0,,7,,,79,127
12240,note_on,2,0,0,,5,,,77,127
12384,note_on,144,0,0,,2,,,74,127
12526,note_off,142,0,0,,2,,,74,127
12526,note_off,0,0,0,,2,,,62,127
12528,note_on,2,0,0,,2,,,62,127
12528,note_on,0,0,0,,10,,,69,127
12670,note_off,142,0,0,,10,,,69,127
12672,note_on,2,0,0,,5,,,65,127
12814,note_off,142,0,0,,5,,,65,127
12814,note_off,0,0,0,,2,,,62,127
12816,note_on,2,0,0,,7,,,55,127
12816,note_on,0,0,0,,2,,,62,127
12816,note_on,0,0,0,,7,,,67,127
12960,note_off,144,0,0,,5,,,77,127
12960,note_on,0,0,0,,4,,,76,127
13102,note_off,142,0,0,,4,,,76,127
13104,note_on,2,0,0,,5,,,77,127
13246,note_off,142,0,0,,5,,,77,127
13248,note_on,2,0,0,,7,,,79,127
13386,note_off,138,0,0,,7,,,67,127
13390,note_off,4,0,0,,7,,,79,127
13390,note_off,0,0,0,,2,,,62,127
13390,note_off,0,0,0,,7,,,55,127
13392,note_on,2,0,0,,10,,,57,127
13392,note_on,0,0,0,,2,,,62,127
13392,note_on,0,0,0,,5,,,65,127
13392,note_on,0,0,0,,5,,,77,127
13534,note_off,142,0,0,,5,,,77,127
13536,note_on,2,0,0,,4,,,76,127
13678,note_off,142,0,0,,4,,,76,127
13678,note_off,0,0,0,,5,,,65,127
13678,note_off,0,0,0,,2,,,62,127
13680,note_on,2,0,0,,4,,,64,127
13680,note_on,0,0,0,,2,,,74,127
13822,note_off,142,0,0,,2,,,74,127
13824,note_on,2,0,0,,1,,,73,127
13962,note_off,138,0,0,,10,,,57,127
13966,note_off,4,0,0,,1,,,73,127
13966,note_off,0,0,0,,4,,,64,127
13968,note_on,2,0,0,,2,,,62,127
13968,note_on,0,0,0,,2,,,50,127
13968,note_on,0,0,0,,2,,,74,127
14254,note_off,286,0,0,,2,,,50,127
14254,note_off,0,0,0,,2,,,62,127
14256,note_on,2,0,0,,5,,,65,127
14398,note_off,142,0,0,,5,,,65,127
14400,note_on,2,0,0,,7,,,67,127
14538,note_off,138,0,0,,2,,,74,127
14542,note_off,4,0,0,,7,,,67,127
14544,note_on,2,0,0,,5,,,65,127
14686,note_off,142,0,0,,5,,,65,127
14688,note_on,2,0,0,,2,,,62,127
14830,note_off,142,0,0,,2,,,62,127
14832,note_on,2,0,0,,10,,,57,127
14832,note_on,0,0,0,,10,,,69,127
14832,note_on,0,0,0,,10,,,81,127
14974,note_off,142,0,0,,10,,,57,127
14976,note_on,2,0,0,,5,,,53,127
15118,note_off,142,0,0,,5,,,53,127
15118,note_off,0,0,0,,10,,,69,127
15120,note_on,2,0,0,,7,,,55,127
15120,note_on,0,0,0,,11,,,70,127
15402,note_off,282,0,0,,10,,,81,127
15406,note_off,4,0,0,,7,,,55,127
15408,note_on,2,0,0,,4,,,64,127
15408,note_on,0,0,0,,7,,,79,127
15550,note_off,142,0,0,,4,,,64,127
15552,note_on,2,0,0,,5,,,65,127
15694,note_off,142,0,0,,5,,,65,127
15696,note_on,2,0,0,,4,,,64,127
15838,note_off,142,0,0,,4,,,64,127
15840,note_on,2,0,0,,11,,,58,127
15982,note_off,142,0,0,,11,,,58,127
15982,note_off,0,0,0,,7,,,79,127
15982,note_off,0,0,0,,11,,,70,127
15984,note_on,2,0,0,,7,,,55,127
15984,note_on,0,0,0,,7,,,67,127
15984,note_on,0,0,0,,7,,,79,127
16126,note_off,142,0,0,,7,,,55,127
16128,note_on,2,0,0,,4,,,52,127
16270,note_off,142,0,0,,4,,,52,127
16270,note_off,0,0,0,,7,,,67,127
16272,note_on,2,0,0,,5,,,53,127
16272,note_on,0,0,0,,10,,,69,127
16554,note_off,282,0,0,,7,,,79,127
16558,note_off,4,0,0,,5,,,53,127
16560,note_on,2,0,0,,2,,,62,127
16560,note_on,0,0,0,,5,,,77,127
16702,note_off,142,0,0,,2,,,62,127
16704,note_on,2,0,0,,4,,,64,127
16846,note_off,142,0,0,,4,,,64,127
16848,note_on,2,0,0,,2,,,62,127
16990,note_off,142,0,0,,2,,,62,127
16992,note_on,2,0,0,,10,,,57,127
17134,note_off,142,0,0,,10,,,57,127
17134,note_off,0,0,0,,5,,,77,127
17134,note_off,0,0,0,,10,,,69,127
17136,note_on,2,0,0,,5,,,53,127
17136,note_on,0,0,0,,5,,,77,127
17136,note_on,0,0,0,,10,,,69,127
17278,note_off,142,0,0,,5,,,53,127
17280,note_on,2,0,0,,2,,,50,127
17422,note_off,142,0,0,,2,,,50,127
17422,note_off,0,0,0,,10,,,69,127
17422,note_off,0,0,0,,5,,,77,127
17424,note_on,2,0,0,,7,,,55,127
17424,note_on,0,0,0,,4,,,76,127
17424,note_on,0,0,0,,10,,,69,127
17424,note_on,0,0,0,,2,,,74,127
17710,note_off,286,0,0,,7,,,55,127
17712,note_on,2,0,0,,10,,,57,127
17854,note_off,142,0,0,,10,,,57,127
17856,note_on,2,0,0,,11,,,58,127
17998,note_off,142,0,0,,11,,,58,127
17998,note_off,0,0,0,,2,,,74,127
17998,note_off,0,0,0,,10,,,69,127
17998,note_off,0,0,0,,4,,,76,127
18000,note_on,2,0,0,,10,,,57,127
18000,note_on,0,0,0,,2,,,74,127
18000,note_on,0,0,0,,10,,,69,127
18000,note_on,0,0,0,,4,,,76,127
18142,note_off,142,0,0,,10,,,57,127
18144,note_on,2,0,0,,7,,,55,127
18286,note_off,142,0,0,,7,,,55,127
18286,note_off,0,0,0,,2,,,74,127
18288,note_on,2,0,0,,5,,,53,127
18288,note_on,0,0,0,,1,,,73,127
18430,note_off,142,0,0,,5,,,53,127
18432,note_on,2,0,0,,4,,,52,127
18570,note_off,138,0,0,,4,,,76,127
18570,note_off,0,0,0,,10,,,69,127
18574,note_off,4,0,0,,4,,,52,127
18574,note_off,0,0,0,,1,,,73,127
18576,note_on,2,0,0,,2,,,50,127
18576,note_on,0,0,0,,2,,,74,127
18816,note_off,240,0,0,,2,,,74,127
18862,note_off,46,0,0,,2,,,50,127
18864,note_on,2,0,0,,2,,,50,127
18864,note_on,0,0,0,,2,,,38,127
18864,note_on,0,0,0,,2,,,62,127
18864,note_on,0,0,0,,6,,,66,127
18910,note_off,46,0,0,,6,,,66,127
18912,note_on,2,0,0,,4,,,64,127
18958,note_off,46,0,0,,4,,,64,127
18960,note_on,2,0,0,,6,,,66,127
19006,note_off,46,0,0,,6,,,66,127
19008,note_on,2,0,0,,7,,,67,127
19149,note_off,141,0,0,,2,,,62,127
19151,note_off,2,0,0,,7,,,67,127
19151,note_off,0,0,0,,2,,,38,127
19151,note_off,0,0,0,,2,,,50,127
19153,note_on,2,0,0,,2,,,38,127
19153,note_on,0,0,0,,2,,,50,127
19153,note_on,0,0,0,,6,,,66,127
19295,note_off,142,0,0,,6,,,66,127
19297,note_on,2,0,0,,2,,,62,127
19439,note_off,142,0,0,,2,,,62,127
19439,note_off,0,0,0,,2,,,50,127
19439,note_off,0,0,0,,2,,,38,127
19441,note_on,2,0,0,,2,,,50,127
19441,note_on,0,0,0,,2,,,38,127
19441,note_on,0,0,0,,2,,,62,127
19441,note_on,0,0,0,,6,,,66,127
19487,note_off,46,0,0,,6,,,66,127
19489,note_on,2,0,0,,4,,,64,127
19535,note_off,46,0,0,,4,,,64,127
19537,note_on,2,0,0,,6,,,66,127
19583,note_off,46,0,0,,6,,,66,127
19585,note_on,2,0,0,,7,,,67,127
19726,note_off,141,0,0,,2,,,62,127
19728,note_off,2,0,0,,7,,,67,127
19728,note_off,0,0,0,,2,,,38,127
19728,note_off,0,0,0,,2,,,50,127
19730,note_on,2,0,0,,2,,,50,127
19730,note_on,0,0,0,,2,,,38,127
19730,note_on,0,0,0,,6,,,66,127
20016,note_off,286,0,0,,6,,,66,127
20016,note_off,0,0,0,,2,,,38,127
20016,note_off,0,0,0,,2,,,50,127
20018,note_on,2,0,0,,2,,,38,127
20018,note_on,0,0,0,,2,,,50,127
20018,note_on,0,0,0,,10,,,69,127
20018,note_on,0,0,0,,6,,,66,127
20064,note_off,46,0,0,,10,,,69,127
20066,note_on,2,0,0,,7,,,67,127
20112,note_off,46,0,0,,7,,,67,127
20114,note_on,2,0,0,,10,,,69,127
20160,note_off,46,0,0,,10,,,69,127
20162,note_on,2,0,0,,12,,,71,127
20303,note_off,141,0,0,,6,,,66,127
20305,note_off,2,0,0,,12,,,71,127
20305,note_off,0,0,0,,2,,,50,127
20305,note_off,0,0,0,,2,,,38,127
20307,note_on,2,0,0,,2,,,38,127
20307,note_on,0,0,0,,2,,,50,127
20307,note_on,0,0,0,,10,,,69,127
20449,note_off,142,0,0,,10,,,69,127
20451,note_on,2,0,0,,6,,,66,127
20593,note_off,142,0,0,,6,,,66,127
20593,note_off,0,0,0,,2,,,50,127
20593,note_off,0,0,0,,2,,,38,127
20595,note_on,2,0,0,,2,,,38,127
20595,note_on,0,0,0,,2,,,50,127
20595,note_on,0,0,0,,10,,,69,127
20595,note_on,0,0,0,,6,,,66,127
20641,note_off,46,0,0,,10,,,69,127
20643,note_on,2,0,0,,7,,,67,127
20689,note_off,46,0,0,,7,,,67,127
20691,note_on,2,0,0,,10,,,69,127
20737,note_off,46,0,0,,10,,,69,127
20739,note_on,2,0,0,,12,,,71,127
20880,note_off,141,0,0,,6,,,66,127
20882,note_off,2,0,0,,12,,,71,127
20882,note_off,0,0,0,,2,,,50,127
20882,note_off,0,0,0,,2,,,38,127
20884,note_on,2,0,0,,2,,,38,127
20884,note_on,0,0,0,,2,,,50,127
20884,note_on,0,0,0,,10,,,69,127
20884,note_on,0,0,0,,6,,,66,127
21170,note_off,286,0,0,,6,,,66,127
21170,note_off,0,0,0,,10,,,69,127
21170,note_off,0,0,0,,2,,,50,127
21170,note_off,0,0,0,,2,,,38,127
21172,note_on,2,0,0,,2,,,50,127
21172,note_on,0,0,0,,2,,,38,127
21172,note_on,0,0,0,,2,,,74,127
21172,note_on,0,0,0,,6,,,66,127
21218,note_off,46,0,0,,2,,,74,127
21220,note_on,2,0,0,,1,,,73,127
21266,note_off,46,0,0,,1,,,73,127
21268,note_on,2,0,0,,2,,,74,127
21314,note_off,46,0,0,,2,,,74,127
21316,note_on,2,0,0,,4,,,76,127
21457,note_off,141,0,0,,6,,,66,127
21459,note_off,2,0,0,,4,,,76,127
21459,note_off,0,0,0,,2,,,38,127
21459,note_off,0,0,0,,2,,,50,127
21461,note_on,2,0,0,,2,,,38,127
21461,note_on,0,0,0,,2,,,50,127
21461,note_on,0,0,0,,2,,,74,127
21603,note_off,142,0,0,,2,,,74,127
21605,note_on,2,0,0,,10,,,69,127
21747,note_off,142,0,0,,10,,,69,127
21747,note_off,0,0,0,,2,,,50,127
21747,note_off,0,0,0,,2,,,38,127
21749,note_on,2,0,0,,2,,,38,127
21749,note_on,0,0,0,,2,,,50,127
21749,note_on,0,0,0,,2,,,74,127
21749,note_on,0,0,0,,6,,,78,127
21795,note_off,46,0,0,,6,,,78,127
21797,note_on,2,0,0,,4,,,76,127
21843,note_off,46,0,0,,4,,,76,127
21845,note_on,2,0,0,,6,,,78,127
21891,note_off,46,0,0,,6,,,78,127
21893,note_on,2,0,0,,7,,,79,127
22034,note_off,141,0,0,,2,,,74,127
22036,note_off,2,0,0,,7,,,79,127
22036,note_off,0,0,0,,2,,,50,127
22036,note_off,0,0,0,,2,,,38,127
22038,note_on,2,0,0,,2,,,38,127
22038,note_on,0,0,0,,2,,,50,127
22038,note_on,0,0,0,,2,,,74,127
22038,note_on,0,0,0,,6,,,78,127
22180,note_off,142,0,0,,6,,,78,127
22180,note_off,0,0,0,,2,,,74,127
22182,note_on,2,0,0,,4,,,76,127
22182,note_on,0,0,0,,7,,,79,127
22324,note_off,142,0,0,,7,,,79,127
22324,note_off,0,0,0,,4,,,76,127
22326,note_on,2,0,0,,6,,,78,127
22326,note_on,0,0,0,,10,,,81,127
22468,note_off,142,0,0,,10,,,81,127
22468,note_off,0,0,0,,6,,,78,127
22470,note_on,2,0,0,,12,,,83,127
22470,note_on,0,0,0,,7,,,79,127
22593,note_off,123,0,0,,2,,,50,127
22593,note_off,0,0,0,,2,,,38,127
22613,note_off,20,0,0,,7,,,79,127
22613,note_off,0,0,0,,12,,,83,127
22615,note_on,2,0,0,,6,,,42,127
22615,note_on,0,0,0,,6,,,54,127
22615,note_on,0,0,0,,10,,,81,127
22615,note_on,0,0,0,,6,,,78,127
22757,note_off,142,0,0,,6,,,78,127
22757,note_off,0,0,0,,10,,,81,127
22759,note_on,2,0,0,,2,,,74,127
22759,note_on,0,0,0,,6,,,78,127
22901,note_off,142,0,0,,6,,,78,127
22901,note_off,0,0,0,,2,,,74,127
22901,note_off,0,0,0,,6,,,54,127
22901,note_off,0,0,0,,6,,,42,127
22903,note_on,2,0,0,,7,,,55,127
22903,note_on,0,0,0,,7,,,43,127
22903,note_on,0,0,0,,7,,,79,127
22903,note_on,0,0,0,,4,,,76,127
23045,note_off,142,0,0,,4,,,76,127
23045,note_off,0,0,0,,7,,,79,127
23047,note_on,2,0,0,,6,,,78,127
23047,note_on,0,0,0,,2,,,74,127
23189,note_off,142,0,0,,2,,,74,127
23189,note_off,0,0,0,,6,,,78,127
23189,note_off,0,0,0,,7,,,43,127
23189,note_off,0,0,0,,7,,,55,127
23191,note_on,2,0,0,,10,,,45,127
23191,note_on,0,0,0,,10,,,57,127
23191,note_on,0,0,0,,6,,,78,127
23191,note_on,0,0,0,,10,,,69,127
23261,note_off,70,0,0,,6,,,78,127
23263,note_on,2,0,0,,4,,,76,127
23333,note_off,70,0,0,,4,,,76,127
23335,note_on,2,0,0,,6,,,78,127
23405,note_off,70,0,0,,6,,,78,127
23407,note_on,2,0,0,,4,,,76,127
23476,note_off,69,0,0,,10,,,69,127
23478,note_off,2,0,0,,4,,,76,127
23478,note_off,0,0,0,,10,,,57,127
23478,note_off,0,0,0,,10,,,45,127
23480,note_on,2,0,0,,10,,,57,127
23480,note_on,0,0,0,,10,,,69,127
23480,note_on,0,0,0,,1,,,61,127
23622,note_off,142,0,0,,1,,,61,127
23622,note_off,0,0,0,,10,,,57,127
23624,note_on,2,0,0,,12,,,59,127
23624,note_on,0,0,0,,2,,,62,127
23765,note_off,141,0,0,,10,,,69,127
23767,note_off,2,0,0,,2,,,62,127
23767,note_off,0,0,0,,12,,,59,127
23769,note_on,2,0,0,,12,,,59,127
23769,note_on,0,0,0,,2,,,62,127
23769,note_on,0,0,0,,10,,,69,127
23839,note_off,70,0,0,,2,,,62,127
23839,note_off,0,0,0,,12,,,59,127
23841,note_on,2,0,0,,10,,,57,127
23841,note_on,0,0,0,,1,,,61,127
23911,note_off,70,0,0,,1,,,61,127
23911,note_off,0,0,0,,10,,,57,127
23913,note_on,2,0,0,,4,,,52,127
23913,note_on,0,0,0,,2,,,62,127
23983,note_off,70,0,0,,2,,,62,127
23985,note_on,2,0,0,,1,,,61,127
24054,note_off,69,0,0,,10,,,69,127
24056,note_off,2,0,0,,1,,,61,127
24056,note_off,0,0,0,,4,,,52,127
24058,note_on,2,0,0,,10,,,57,127
24058,note_on,0,0,0,,1,,,61,127
24058,note_on,0,0,0,,10,,,69,127
24200,note_off,142,0,0,,1,,,61,127
24200,note_off,0,0,0,,10,,,57,127
24202,note_on,2,0,0,,12,,,59,127
24202,note_on,0,0,0,,2,,,62,127
24343,note_off,141,0,0,,10,,,69,127
24345,note_off,2,0,0,,2,,,62,127
24345,note_off,0,0,0,,12,,,59,127
24347,note_on,2,0,0,,12,,,59,127
24347,note_on,0,0,0,,10,,,69,127
24347,note_on,0,0,0,,2,,,62,127
24417,note_off,70,0,0,,2,,,62,127
24417,note_off,0,0,0,,12,,,59,127
24419,note_on,2,0,0,,10,,,57,127
24419,note_on,0,0,0,,1,,,61,127
24489,note_off,70,0,0,,1,,,61,127
24489,note_off,0,0,0,,10,,,57,127
24491,note_on,2,0,0,,4,,,52,127
24491,note_on,0,0,0,,2,,,62,127
24561,note_off,70,0,0,,2,,,62,127
24563,note_on,2,0,0,,1,,,61,127
24632,note_off,69,0,0,,10,,,69,127
24634,note_off,2,0,0,,1,,,61,127
24634,note_off,0,0,0,,4,,,52,127
24636,note_on,2,0,0,,1,,,61,127
24636,note_on,0,0,0,,4,,,64,127
24636,note_on,0,0,0,,10,,,69,127
24778,note_off,142,0,0,,4,,,64,127
24778,note_off,0,0,0,,1,,,61,127
24780,note_on,2,0,0,,2,,,62,127
24780,note_on,0,0,0,,6,,,66,127
24921,note_off,141,0,0,,10,,,69,127
24923,note_off,2,0,0,,6,,,66,127
24923,note_off,0,0,0,,2,,,62,127
24925,note_on,2,0,0,,2,,,62,127
24925,note_on,0,0,0,,10,,,69,127
24925,note_on,0,0,0,,6,,,66,127
24995,note_off,70,0,0,,6,,,66,127
24995,note_off,0,0,0,,2,,,62,127
24997,note_on,2,0,0,,1,,,61,127
24997,note_on,0,0,0,,4,,,64,127
25067,note_off,70,0,0,,4,,,64,127
25067,note_off,0,0,0,,1,,,61,127
25069,note_on,2,0,0,,10,,,57,127
25069,note_on,0,0,0,,6,,,66,127
25139,note_off,70,0,0,,6,,,66,127
25141,note_on,2,0,0,,4,,,64,127
25210,note_off,69,0,0,,10,,,69,127
25212,note_off,2,0,0,,4,,,64,127
25212,note_off,0,0,0,,10,,,57,127
25214,note_on,2,0,0,,1,,,61,127
25214,note_on,0,0,0,,4,,,64,127
25214,note_on,0,0,0,,10,,,69,127
25356,note_off,142,0,0,,4,,,64,127
25356,note_off,0,0,0,,1,,,61,127
25358,note_on,2,0,0,,2,,,62,127
25358,note_on,0,0,0,,6,,,66,127
25499,note_off,141,0,0,,10,,,69,127
25501,note_off,2,0,0,,6,,,66,127
25501,note_off,0,0,0,,2,,,62,127
25503,note_on,2,0,0,,2,,,62,127
25503,note_on,0,0,0,,6,,,66,127
25503,note_on,0,0,0,,10,,,69,127
25573,note_off,70,0,0,,6,,,66,127
25573,note_off,0,0,0,,2,,,62,127
25575,note_on,2,0,0,,1,,,61,127
25575,note_on,0,0,0,,4,,,64,127
25645,note_off,70,0,0,,4,,,64,127
25645,note_off,0,0,0,,1,,,61,127
25647,note_on,2,0,0,,2,,,62,127
25647,note_on,0,0,0,,6,,,66,127
25717,note_off,70,0,0,,6,,,66,127
25717,note_off,0,0,0,,2,,,62,127
25719,note_on,2,0,0,,1,,,61,127
25719,note_on,0,0,0,,4,,,64,127
25788,note_off,69,0,0,,10,,,69,127
25790,note_off,2,0,0,,4,,,64,127
25790,note_off,0,0,0,,1,,,61,127
25792,note_on,2,0,0,,1,,,61,127
25792,note_on,0,0,0,,10,,,69,127
25934,note_off,142,0,0,,1,,,61,127
25936,note_on,2,0,0,,2,,,62,127
26078,note_off,142,0,0,,2,,,62,127
26080,note_on,2,0,0,,4,,,64,127
26080,note_on,0,0,0,,12,,,71,127
26218,note_off,138,0,0,,10,,,69,127
26222,note_off,4,0,0,,4,,,64,127
26224,note_on,2,0,0,,2,,,62,127
26224,note_on,0,0,0,,8,,,68,127
26365,note_off,141,0,0,,12,,,71,127
26367,note_off,2,0,0,,8,,,68,127
26367,note_off,0,0,0,,2,,,62,127
26369,note_on,2,0,0,,1,,,61,127
26369,note_on,0,0,0,,10,,,69,127
26511,note_off,142,0,0,,10,,,69,127
26511,note_off,0,0,0,,1,,,61,127
26513,note_on,2,0,0,,12,,,59,127
26513,note_on,0,0,0,,12,,,71,127
26655,note_off,142,0,0,,12,,,71,127
26655,note_off,0,0,0,,12,,,59,127
26657,note_on,2,0,0,,10,,,57,127
26657,note_on,0,0,0,,1,,,73,127
26799,note_off,142,0,0,,1,,,73,127
26799,note_off,0,0,0,,10,,,57,127
26801,note_on,2,0,0,,8,,,56,127
26801,note_on,0,0,0,,10,,,69,127
26801,note_on,0,0,0,,1,,,73,127
26943,note_off,142,0,0,,1,,,73,127
26943,note_off,0,0,0,,10,,,69,127
26943,note_off,0,0,0,,8,,,56,127
26945,note_on,2,0,0,,6,,,54,127
26945,note_on,0,0,0,,2,,,74,127
26945,note_on,0,0,0,,12,,,71,127
27087,note_off,142,0,0,,12,,,71,127
27087,note_off,0,0,0,,2,,,74,127
27087,note_off,0,0,0,,6,,,54,127
27089,note_on,2,0,0,,4,,,52,127
27089,note_on,0,0,0,,4,,,76,127
27089,note_on,0,0,0,,1,,,73,127
27231,note_off,142,0,0,,1,,,73,127
27231,note_off,0,0,0,,4,,,76,127
27231,note_off,0,0,0,,4,,,52,127
27233,note_on,2,0,0,,2,,,50,127
27233,note_on,0,0,0,,6,,,78,127
27233,note_on,0,0,0,,2,,,74,127
27375,note_off,142,0,0,,2,,,74,127
27375,note_off,0,0,0,,6,,,78,127
27377,note_on,2,0,0,,1,,,73,127
27377,note_on,0,0,0,,4,,,76,127
27519,note_off,142,0,0,,4,,,76,127
27519,note_off,0,0,0,,1,,,73,127
27519,note_off,0,0,0,,2,,,50,127
27521,note_on,2,0,0,,2,,,38,127
27521,note_on,0,0,0,,12,,,71,127
27521,note_on,0,0,0,,2,,,74,127
27663,note_off,142,0,0,,2,,,74,127
27663,note_off,0,0,0,,12,,,71,127
27665,note_on,2,0,0,,1,,,73,127
27665,note_on,0,0,0,,10,,,69,127
27807,note_off,142,0,0,,10,,,69,127
27807,note_off,0,0,0,,1,,,73,127
27807,note_off,0,0,0,,2,,,38,127
27809,note_on,2,0,0,,4,,,40,127
27809,note_on,0,0,0,,4,,,52,127
27809,note_on,0,0,0,,8,,,68,127
27809,note_on,0,0,0,,1,,,73,127
27875,note_on,66,0,0,,12,,,71,127
27879,note_off,4,0,0,,1,,,73,127
27941,note_on,62,0,0,,1,,,73,127
27945,note_off,4,0,0,,12,,,71,127
28007,note_on,62,0,0,,12,,,71,127
28011,note_off,4,0,0,,1,,,73,127
28077,note_off,66,0,0,,12,,,71,127
28093,note_off,16,0,0,,8,,,68,127
28096,note_on,3,0,0,,4,,,76,127
28142,note_off,46,0,0,,4,,,76,127
28144,note_on,2,0,0,,2,,,74,127
28190,note_off,46,0,0,,2,,,74,127
28192,note_on,2,0,0,,4,,,76,127
28238,note_off,46,0,0,,4,,,76,127
28240,note_on,2,0,0,,6,,,78,127
28382,note_off,142,0,0,,6,,,78,127
28382,note_off,0,0,0,,4,,,52,127
28382,note_off,0,0,0,,4,,,40,127
28384,note_on,2,0,0,,10,,,57,127
28384,note_on,0,0,0,,4,,,76,127
28526,note_off,142,0,0,,4,,,76,127
28528,note_on,2,0,0,,1,,,73,127
28670,note_off,142,0,0,,1,,,73,127
28672,note_on,2,0,0,,4,,,64,127
28672,note_on,0,0,0,,4,,,76,127
28718,note_off,46,0,0,,4,,,76,127
28720,note_on,2,0,0,,2,,,74,127
28766,note_off,46,0,0,,2,,,74,127
28768,note_on,2,0,0,,4,,,76,127
28814,note_off,46,0,0,,4,,,76,127
28816,note_on,2,0,0,,6,,,78,127
28954,note_off,138,0,0,,10,,,57,127
28958,note_off,4,0,0,,6,,,78,127
28960,note_on,2,0,0,,8,,,56,127
28960,note_on,0,0,0,,4,,,76,127
29102,note_off,142,0,0,,4,,,76,127
29104,note_on,2,0,0,,12,,,71,127
29242,note_off,138,0,0,,4,,,64,127
29246,note_off,4,0,0,,12,,,71,127
29248,note_on,2,0,0,,4,,,64,127
29248,note_on,0,0,0,,4,,,76,127
29294,note_off,46,0,0,,4,,,76,127
29296,note_on,2,0,0,,2,,,74,127
29342,note_off,46,0,0,,2,,,74,127
29344,note_on,2,0,0,,4,,,76,127
29390,note_off,46,0,0,,4,,,76,127
29392,note_on,2,0,0,,6,,,78,127
29530,note_off,138,0,0,,8,,,56,127
29534,note_off,4,0,0,,6,,,78,127
29536,note_on,2,0,0,,6,,,54,127
29536,note_on,0,0,0,,4,,,76,127
29678,note_off,142,0,0,,4,,,76,127
29680,note_on,2,0,0,,10,,,69,127
29818,note_off,138,0,0,,4,,,64,127
29822,note_off,4,0,0,,10,,,69,127
29824,note_on,2,0,0,,2,,,62,127
29824,note_on,0,0,0,,4,,,76,127
29870,note_off,46,0,0,,4,,,76,127
29872,note_on,2,0,0,,2,,,74,127
29918,note_off,46,0,0,,2,,,74,127
29920,note_on,2,0,0,,4,,,76,127
29966,note_off,46,0,0,,4,,,76,127
29968,note_on,2,0,0,,6,,,78,127
30106,note_off,138,0,0,,6,,,54,127
30110,note_off,4,0,0,,6,,,78,127
30112,note_on,2,0,0,,4,,,52,127
30112,note_on,0,0,0,,4,,,76,127
30254,note_off,142,0,0,,4,,,76,127
30256,note_on,2,0,0,,8,,,68,127
30394,note_off,138,0,0,,2,,,62,127
30398,note_off,4,0,0,,8,,,68,127
30400,note_on,2,0,0,,1,,,61,127
30400,note_on,0,0,0,,4,,,76,127
30446,note_off,46,0,0,,4,,,76,127
30448,note_on,2,0,0,,2,,,74,127
30494,note_off,46,0,0,,2,,,74,127
30496,note_on,2,0,0,,4,,,76,127
30542,note_off,46,0,0,,4,,,76,127
30544,note_on,2,0,0,,6,,,78,127
30682,note_off,138,0,0,,4,,,52,127
30686,note_off,4,0,0,,6,,,78,127
30688,note_on,2,0,0,,2,,,50,127
30688,note_on,0,0,0,,4,,,76,127
30830,note_off,142,0,0,,4,,,76,127
30832,note_on,2,0,0,,6,,,66,127
30970,note_off,138,0,0,,1,,,61,127
30974,note_off,4,0,0,,6,,,66,127
30976,note_on,2,0,0,,12,,,59,127
30976,note_on,0,0,0,,4,,,76,127
31022,note_off,46,0,0,,4,,,76,127
31024,note_on,2,0,0,,2,,,74,127
31070,note_off,46,0,0,,2,,,74,127
31072,note_on,2,0,0,,4,,,76,127
31118,note_off,46,0,0,,4,,,76,127
31120,note_on,2,0,0,,6,,,78,127
31258,note_off,138,0,0,,2,,,50,127
31262,note_off,4,0,0,,6,,,78,127
31264,note_on,2,0,0,,1,,,49,127
31264,note_on,0,0,0,,4,,,76,127
31406,note_off,142,0,0,,4,,,76,127
31408,note_on,2,0,0,,4,,,64,127
31546,note_off,138,0,0,,12,,,59,127
31550,note_off,4,0,0,,4,,,64,127
31550,note_off,0,0,0,,1,,,49,127
31552,note_on,2,0,0,,2,,,50,127
31552,note_on,0,0,0,,2,,,74,127
31552,note_on,0,0,0,,6,,,78,127
31694,note_off,142,0,0,,6,,,78,127
31694,note_off,0,0,0,,2,,,74,127
31696,note_on,2,0,0,,1,,,73,127
31696,note_on,0,0,0,,4,,,76,127
31838,note_off,142,0,0,,4,,,76,127
31838,note_off,0,0,0,,1,,,73,127
31840,note_on,2,0,0,,12,,,71,127
31840,note_on,0,0,0,,2,,,74,127
31982,note_off,142,0,0,,2,,,74,127
31982,note_off,0,0,0,,12,,,71,127
31984,note_on,2,0,0,,10,,,69,127
31984,note_on,0,0,0,,1,,,73,127
32114,note_off,130,0,0,,2,,,50,127
32126,note_off,12,0,0,,1,,,73,127
32126,note_off,0,0,0,,10,,,69,127
32128,note_on,2,0,0,,2,,,50,127
32128,note_on,0,0,0,,2,,,38,127
32128,note_on,0,0,0,,8,,,68,127
32128,note_on,0,0,0,,12,,,71,127
32270,note_off,142,0,0,,12,,,71,127
32270,note_off,0,0,0,,8,,,68,127
32272,note_on,2,0,0,,10,,,69,127
32272,note_on,0,0,0,,1,,,73,127
32414,note_off,142,0,0,,1,,,73,127
32414,note_off,0,0,0,,10,,,69,127
32414,note_off,0,0,0,,2,,,38,127
32414,note_off,0,0,0,,2,,,50,127
32416,note_on,2,0,0,,4,,,40,127
32416,note_on,0,0,0,,4,,,52,127
32416,note_on,0,0,0,,12,,,71,127
32416,note_on,0,0,0,,8,,,68,127
32702,note_off,286,0,0,,8,,,68,127
32702,note_off,0,0,0,,12,,,71,127
32702,note_off,0,0,0,,4,,,52,127
32702,note_off,0,0,0,,4,,,40,127
32704,note_on,2,0,0,,4,,,64,127
32704,note_on,0,0,0,,12,,,71,127
32704,note_on,0,0,0,,8,,,68,127
32846,note_off,142,0,0,,4,,,64,127
32848,note_on,2,0,0,,6,,,66,127
32990,note_off,142,0,0,,6,,,66,127
32992,note_on,2,0,0,,4,,,64,127
33124,note_off,132,0,0,,4,,,64,127
33136,note_on,12,0,0,,1,,,61,127
33268,note_off,132,0,0,,1,,,61,127
33278,note_off,10,0,0,,8,,,68,127
33278,note_off,0,0,0,,12,,,71,127
33280,note_on,2,0,0,,4,,,64,127
33280,note_on,0,0,0,,1,,,73,127
33280,note_on,0,0,0,,10,,,69,127
33422,note_off,142,0,0,,4,,,64,127
33424,note_on,2,0,0,,6,,,66,127
33566,note_off,142,0,0,,6,,,66,127
33568,note_on,2,0,0,,4,,,64,127
33700,note_off,132,0,0,,4,,,64,127
33712,note_on,12,0,0,,12,,,59,127
33844,note_off,132,0,0,,12,,,59,127
33854,note_off,10,0,0,,10,,,69,127
33854,note_off,0,0,0,,1,,,73,127
33856,note_on,2,0,0,,4,,,64,127
33856,note_on,0,0,0,,12,,,71,127
33856,note_on,0,0,0,,2,,,74,127
33998,note_off,142,0,0,,4,,,64,127
34000,note_on,2,0,0,,6,,,66,127
34142,note_off,142,0,0,,6,,,66,127
34144,note_on,2,0,0,,4,,,64,127
34276,note_off,132,0,0,,4,,,64,127
34288,note_on,12,0,0,,10,,,57,127
34420,note_off,132,0,0,,10,,,57,127
34430,note_off,10,0,0,,2,,,74,127
34430,note_off,0,0,0,,12,,,71,127
34432,note_on,2,0,0,,4,,,64,127
34432,note_on,0,0,0,,1,,,73,127
34432,note_on,0,0,0,,4,,,76,127
34574,note_off,142,0,0,,4,,,64,127
34576,note_on,2,0,0,,6,,,66,127
34718,note_off,142,0,0,,6,,,66,127
34720,note_on,2,0,0,,4,,,64,127
34852,note_off,132,0,0,,4,,,64,127
34864,note_on,12,0,0,,8,,,56,127
34996,note_off,132,0,0,,8,,,56,127
35006,note_off,10,0,0,,4,,,76,127
35006,note_off,0,0,0,,1,,,73,127
35008,note_on,2,0,0,,4,,,64,127
35008,note_on,0,0,0,,6,,,78,127
35008,note_on,0,0,0,,2,,,74,127
35150,note_off,142,0,0,,4,,,64,127
35152,note_on,2,0,0,,6,,,66,127
35294,note_off,142,0,0,,6,,,66,127
35296,note_on,2,0,0,,4,,,64,127
35428,note_off,132,0,0,,4,,,64,127
35440,note_on,12,0,0,,6,,,54,127
35572,note_off,132,0,0,,6,,,54,127
35582,note_off,10,0,0,,2,,,74,127
35582,note_off,0,0,0,,6,,,78,127
35584,note_on,2,0,0,,4,,,64,127
35584,note_on,0,0,0,,12,,,71,127
35584,note_on,0,0,0,,8,,,80,127
35726,note_off,142,0,0,,4,,,64,127
35728,note_on,2,0,0,,6,,,66,127
35870,note_off,142,0,0,,6,,,66,127
35872,note_on,2,0,0,,4,,,64,127
36016,note_on,144,0,0,,4,,,52,127
36088,note_off,72,0,0,,4,,,64,127
36158,note_off,70,0,0,,4,,,52,127
36160,note_on,2,0,0,,4,,,64,127
36302,note_off,142,0,0,,4,,,64,127
36304,note_on,2,0,0,,6,,,66,127
36446,note_off,142,0,0,,6,,,66,127
36446,note_off,0,0,0,,12,,,71,127
36448,note_on,2,0,0,,4,,,64,127
36590,note_off,142,0,0,,4,,,64,127
36590,note_off,0,0,0,,8,,,80,127
36592,note_on,2,0,0,,2,,,62,127
36592,note_on,0,0,0,,12,,,83,127
36734,note_off,142,0,0,,12,,,83,127
36734,note_off,0,0,0,,2,,,62,127
36736,note_on,2,0,0,,1,,,61,127
36736,note_on,0,0,0,,10,,,81,127
36878,note_off,142,0,0,,10,,,81,127
36878,note_off,0,0,0,,1,,,61,127
36880,note_on,2,0,0,,12,,,59,127
36880,note_on,0,0,0,,8,,,80,127
37022,note_off,142,0,0,,8,,,80,127
37022,note_off,0,0,0,,12,,,59,127
37024,note_on,2,0,0,,1,,,61,127
37024,note_on,0,0,0,,10,,,81,127
37166,note_off,142,0,0,,10,,,81,127
37168,note_on,2,0,0,,4,,,76,127
37310,note_off,142,0,0,,4,,,76,127
37310,note_off,0,0,0,,1,,,61,127
37312,note_on,2,0,0,,2,,,62,127
37312,note_on,0,0,0,,6,,,78,127
37454,note_off,142,0,0,,6,,,78,127
37456,note_on,2,0,0,,2,,,74,127
37598,note_off,142,0,0,,2,,,74,127
37598,note_off,0,0,0,,2,,,62,127
37600,note_on,2,0,0,,4,,,64,127
37600,note_on,0,0,0,,2,,,74,127
37600,note_on,0,0,0,,1,,,73,127
37742,note_off,142,0,0,,1,,,73,127
37742,note_off,0,0,0,,2,,,74,127
37744,note_on,2,0,0,,12,,,71,127
37886,note_off,142,0,0,,12,,,71,127
37886,note_off,0,0,0,,4,,,64,127
37888,note_on,2,0,0,,4,,,52,127
37888,note_on,0,0,0,,10,,,69,127
38030,note_off,142,0,0,,10,,,69,127
38032,note_on,2,0,0,,8,,,68,127
38174,note_off,142,0,0,,8,,,68,127
38174,note_off,0,0,0,,4,,,52,127
38176,note_on,2,0,0,,10,,,57,127
38176,note_on,0,0,0,,10,,,69,127
38462,note_off,286,0,0,,10,,,69,127
38462,note_off,0,0,0,,10,,,57,127
38464,note_on,2,0,0,,10,,,57,127
38464,note_on,0,0,0,,10,,,45,127
38464,note_on,0,0,0,,10,,,81,127
38464,note_on,0,0,0,,1,,,73,127
38606,note_off,142,0,0,,10,,,81,127
38608,note_on,2,0,0,,12,,,83,127
38750,note_off,142,0,0,,12,,,83,127
38750,note_off,0,0,0,,10,,,45,127
38750,note_off,0,0,0,,10,,,57,127
38752,note_on,2,0,0,,1,,,49,127
38752,note_on,0,0,0,,1,,,37,127
38752,note_on,0,0,0,,10,,,81,127
38894,note_off,142,0,0,,10,,,81,127
38896,note_on,2,0,0,,4,,,76,127
39034,note_off,138,0,0,,1,,,73,127
39038,note_off,4,0,0,,4,,,76,127
39038,note_off,0,0,0,,1,,,37,127
39038,note_off,0,0,0,,1,,,49,127
39040,note_on,2,0,0,,1,,,37,127
39040,note_on,0,0,0,,1,,,49,127
39040,note_on,0,0,0,,10,,,69,127
39040,note_on,0,0,0,,6,,,78,127
39182,note_off,142,0,0,,6,,,78,127
39184,note_on,2,0,0,,8,,,80,127
39326,note_off,142,0,0,,8,,,80,127
39326,note_off,0,0,0,,1,,,49,127
39326,note_off,0,0,0,,1,,,37,127
39328,note_on,2,0,0,,2,,,38,127
39328,note_on,0,0,0,,2,,,50,127
39328,note_on,0,0,0,,6,,,78,127
39460,note_off,132,0,0,,10,,,69,127
39470,note_off,10,0,0,,6,,,78,127
39472,note_on,2,0,0,,12,,,71,127
39472,note_on,0,0,0,,2,,,74,127
39614,note_off,142,0,0,,2,,,74,127
39614,note_off,0,0,0,,12,,,71,127
39614,note_off,0,0,0,,2,,,50,127
39614,note_off,0,0,0,,2,,,38,127
39616,note_on,2,0,0,,2,,,50,127
39616,note_on,0,0,0,,2,,,38,127
39616,note_on,0,0,0,,4,,,76,127
39616,note_on,0,0,0,,1,,,73,127
39758,note_off,142,0,0,,1,,,73,127
39758,note_off,0,0,0,,4,,,76,127
39760,note_on,2,0,0,,6,,,78,127
39760,note_on,0,0,0,,2,,,74,127
39902,note_off,142,0,0,,2,,,74,127
39902,note_off,0,0,0,,6,,,78,127
39902,note_off,0,0,0,,2,,,38,127
39902,note_off,0,0,0,,2,,,50,127
39904,note_on,2,0,0,,4,,,40,127
39904,note_on,0,0,0,,4,,,52,127
39904,note_on,0,0,0,,1,,,73,127
39904,note_on,0,0,0,,4,,,76,127
40046,note_off,142,0,0,,4,,,76,127
40046,note_off,0,0,0,,1,,,73,127
40048,note_on,2,0,0,,2,,,74,127
40048,note_on,0,0,0,,12,,,71,127
40190,note_off,142,0,0,,12,,,71,127
40190,note_off,0,0,0,,2,,,74,127
40190,note_off,0,0,0,,4,,,52,127
40190,note_off,0,0,0,,4,,,40,127
40192,note_on,2,0,0,,4,,,40,127
40192,note_on,0,0,0,,4,,,52,127
40192,note_on,0,0,0,,1,,,73,127
40192,note_on,0,0,0,,10,,,69,127
40334,note_off,142,0,0,,10,,,69,127
40334,note_off,0,0,0,,1,,,73,127
40336,note_on,2,0,0,,8,,,68,127
40336,note_on,0,0,0,,12,,,71,127
40478,note_off,142,0,0,,12,,,71,127
40478,note_off,0,0,0,,8,,,68,127
40478,note_off,0,0,0,,4,,,52,127
40478,note_off,0,0,0,,4,,,40,127
40480,note_on,2,0,0,,10,,,57,127
40480,note_on,0,0,0,,10,,,45,127
40480,note_on,0,0,0,,10,,,69,127
40766,note_off,286,0,0,,10,,,69,127
40766,note_off,0,0,0,,10,,,45,127
40766,note_off,0,0,0,,10,,,57,127
40768,note_on,2,0,0,,10,,,45,127
40768,note_on,0,0,0,,10,,,57,127
40768,note_on,0,0,0,,1,,,61,127
40768,note_on,0,0,0,,10,,,69,127
40910,note_off,142,0,0,,10,,,69,127
40912,note_on,2,0,0,,12,,,71,127
41054,note_off,142,0,0,,12,,,71,127
41054,note_off,0,0,0,,10,,,57,127
41054,note_off,0,0,0,,10,,,45,127
41056,note_on,2,0,0,,1,,,49,127
41056,note_on,0,0,0,,1,,,37,127
41056,note_on,0,0,0,,10,,,69,127
41198,note_off,142,0,0,,10,,,69,127
41200,note_on,2,0,0,,4,,,64,127
41338,note_off,138,0,0,,1,,,61,127
41342,note_off,4,0,0,,4,,,64,127
41342,note_off,0,0,0,,1,,,37,127
41342,note_off,0,0,0,,1,,,49,127
41344,note_on,2,0,0,,1,,,49,127
41344,note_on,0,0,0,,1,,,37,127
41344,note_on,0,0,0,,10,,,57,127
41344,note_on,0,0,0,,6,,,66,127
41486,note_off,142,0,0,,6,,,66,127
41488,note_on,2,0,0,,8,,,68,127
41630,note_off,142,0,0,,8,,,68,127
41630,note_off,0,0,0,,1,,,37,127
41630,note_off,0,0,0,,1,,,49,127
41632,note_on,2,0,0,,2,,,50,127
41632,note_on,0,0,0,,2,,,38,127
41632,note_on,0,0,0,,6,,,66,127
41764,note_off,132,0,0,,10,,,57,127
41774,note_off,10,0,0,,6,,,66,127
41776,note_on,2,0,0,,2,,,62,127
41776,note_on,0,0,0,,12,,,59,127
41918,note_off,142,0,0,,12,,,59,127
41918,note_off,0,0,0,,2,,,62,127
41918,note_off,0,0,0,,2,,,38,127
41918,note_off,0,0,0,,2,,,50,127
41920,note_on,2,0,0,,2,,,50,127
41920,note_on,0,0,0,,2,,,38,127
41920,note_on,0,0,0,,1,,,61,127
41920,note_on,0,0,0,,4,,,64,127
42062,note_off,142,0,0,,4,,,64,127
42062,note_off,0,0,0,,1,,,61,127
42064,note_on,2,0,0,,6,,,66,127
42064,note_on,0,0,0,,2,,,62,127
42206,note_off,142,0,0,,2,,,62,127
42206,note_off,0,0,0,,6,,,66,127
42206,note_off,0,0,0,,2,,,38,127
42206,note_off,0,0,0,,2,,,50,127
42208,note_on,2,0,0,,4,,,52,127
42208,note_on,0,0,0,,4,,,40,127
42208,note_on,0,0,0,,4,,,64,127
42208,note_on,0,0,0,,1,,,61,127
42350,note_off,142,0,0,,1,,,61,127
42350,note_off,0,0,0,,4,,,64,127
42352,note_on,2,0,0,,2,,,62,127
42352,note_on,0,0,0,,12,,,59,127
42494,note_off,142,0,0,,12,,,59,127
42494,note_off,0,0,0,,2,,,62,127
42494,note_off,0,0,0,,4,,,40,127
42494,note_off,0,0,0,,4,,,52,127
42496,note_on,2,0,0,,4,,,52,127
42496,note_on,0,0,0,,4,,,40,127
42496,note_on,0,0,0,,1,,,61,127
42496,note_on,0,0,0,,10,,,57,127
42638,note_off,142,0,0,,10,,,57,127
42638,note_off,0,0,0,,1,,,61,127
42640,note_on,2,0,0,,12,,,59,127
42640,note_on,0,0,0,,8,,,56,127
42782,note_off,142,0,0,,8,,,56,127
42782,note_off,0,0,0,,12,,,59,127
42782,note_off,0,0,0,,4,,,40,127
42782,note_off,0,0,0,,4,,,52,127
42784,note_on,2,0,0,,10,,,45,127
42784,note_on,0,0,0,,12,,,59,127
42830,note_off,46,0,0,,12,,,59,127
42832,note_on,2,0,0,,10,,,57,127
42878,note_off,46,0,0,,10,,,57,127
42880,note_on,2,0,0,,12,,,59,127
42926,note_off,46,0,0,,12,,,59,127
42928,note_on,2,0,0,,10,,,57,127
43070,note_off,142,0,0,,10,,,57,127
43070,note_off,0,0,0,,10,,,45,127
43072,note_on,2,0,0,,10,,,57,127
43072,note_on,0,0,0,,4,,,76,127
43072,note_on,0,0,0,,10,,,69,127
43214,note_off,142,0,0,,10,,,69,127
43216,note_on,2,0,0,,11,,,70,127
43357,note_off,141,0,0,,4,,,76,127
43359,note_off,2,0,0,,11,,,70,127
43359,note_off,0,0,0,,10,,,57,127
43361,note_on,2,0,0,,10,,,57,127
43361,note_on,0,0,0,,10,,,69,127
43361,note_on,0,0,0,,4,,,76,127
43503,note_off,142,0,0,,10,,,69,127
43505,note_on,2,0,0,,4,,,64,127
43646,note_off,141,0,0,,4,,,76,127
43648,note_off,2,0,0,,4,,,64,127
43648,note_off,0,0,0,,10,,,57,127
43650,note_on,2,0,0,,10,,,57,127
43650,note_on,0,0,0,,4,,,76,127
43650,note_on,0,0,0,,5,,,65,127
43792,note_off,142,0,0,,5,,,65,127
43794,note_on,2,0,0,,7,,,67,127
43935,note_off,141,0,0,,4,,,76,127
43937,note_off,2,0,0,,7,,,67,127
43937,note_off,0,0,0,,10,,,57,127
43939,note_on,2,0,0,,10,,,57,127
43939,note_on,0,0,0,,4,,,76,127
43939,note_on,0,0,0,,5,,,65,127
44225,note_off,286,0,0,,5,,,65,127
44225,note_off,0,0,0,,4,,,76,127
44225,note_off,0,0,0,,10,,,57,127
44227,note_on,2,0,0,,10,,,57,127
44227,note_on,0,0,0,,2,,,74,127
44227,note_on,0,0,0,,5,,,65,127
44369,note_off,142,0,0,,5,,,65,127
44371,note_on,2,0,0,,7,,,67,127
44512,note_off,141,0,0,,2,,,74,127
44514,note_off,2,0,0,,7,,,67,127
44514,note_off,0,0,0,,10,,,57,127
44516,note_on,2,0,0,,10,,,57,127
44516,note_on,0,0,0,,2,,,74,127
44516,note_on,0,0,0,,5,,,65,127
44658,note_off,142,0,0,,5,,,65,127
44660,note_on,2,0,0,,2,,,62,127
44801,note_off,141,0,0,,2,,,74,127
44803,note_off,2,0,0,,2,,,62,127
44803,note_off,0,0,0,,10,,,57,127
44805,note_on,2,0,0,,10,,,57,127
44805,note_on,0,0,0,,2,,,74,127
44805,note_on,0,0,0,,4,,,64,127
44947,note_off,142,0,0,,4,,,64,127
44949,note_on,2,0,0,,5,,,65,127
45090,note_off,141,0,0,,2,,,74,127
45092,note_off,2,0,0,,5,,,65,127
45092,note_off,0,0,0,,10,,,57,127
45094,note_on,2,0,0,,10,,,57,127
45094,note_on,0,0,0,,2,,,74,127
45094,note_on,0,0,0,,4,,,64,127
45380,note_off,286,0,0,,4,,,64,127
45380,note_off,0,0,0,,2,,,74,127
45380,note_off,0,0,0,,10,,,57,127
45382,note_on,2,0,0,,0,,,60,127
45382,note_on,0,0,0,,10,,,69,127
45382,note_on,0,0,0,,0,,,72,127
45524,note_off,142,0,0,,0,,,60,127
45526,note_on,2,0,0,,11,,,58,127
45668,note_off,142,0,0,,11,,,58,127
45668,note_off,0,0,0,,0,,,72,127
45668,note_off,0,0,0,,10,,,69,127
45670,note_on,2,0,0,,0,,,60,127
45670,note_on,0,0,0,,10,,,69,127
45670,note_on,0,0,0,,0,,,72,127
45812,note_off,142,0,0,,0,,,60,127
45814,note_on,2,0,0,,10,,,57,127
45956,note_off,142,0,0,,10,,,57,127
45956,note_off,0,0,0,,0,,,72,127
45956,note_off,0,0,0,,10,,,69,127
45958,note_on,2,0,0,,11,,,58,127
45958,note_on,0,0,0,,10,,,69,127
45958,note_on,0,0,0,,0,,,72,127
46100,note_off,142,0,0,,11,,,58,127
46102,note_on,2,0,0,,0,,,60,127
46244,note_off,142,0,0,,0,,,60,127
46244,note_off,0,0,0,,0,,,72,127
46244,note_off,0,0,0,,10,,,69,127
46246,note_on,2,0,0,,11,,,58,127
46246,note_on,0,0,0,,10,,,69,127
46246,note_on,0,0,0,,2,,,74,127
46532,note_off,286,0,0,,2,,,74,127
46532,note_off,0,0,0,,10,,,69,127
46532,note_off,0,0,0,,11,,,58,127
46534,note_on,2,0,0,,11,,,58,127
46534,note_on,0,0,0,,7,,,67,127
46534,note_on,0,0,0,,2,,,74,127
46676,note_off,142,0,0,,2,,,74,127
46676,note_off,0,0,0,,11,,,58,127
46678,note_on,2,0,0,,10,,,57,127
46678,note_on,0,0,0,,1,,,73,127
46819,note_off,141,0,0,,7,,,67,127
46821,note_off,2,0,0,,1,,,73,127
46821,note_off,0,0,0,,10,,,57,127
46823,note_on,2,0,0,,11,,,58,127
46823,note_on,0,0,0,,2,,,74,127
46823,note_on,0,0,0,,7,,,67,127
46965,note_off,142,0,0,,2,,,74,127
46965,note_off,0,0,0,,11,,,58,127
46967,note_on,2,0,0,,7,,,55,127
46967,note_on,0,0,0,,4,,,76,127
47109,note_off,142,0,0,,4,,,76,127
47109,note_off,0,0,0,,7,,,55,127
47111,note_on,2,0,0,,10,,,57,127
47111,note_on,0,0,0,,5,,,77,127
47253,note_off,142,0,0,,5,,,77,127
47253,note_off,0,0,0,,10,,,57,127
47255,note_on,2,0,0,,11,,,58,127
47255,note_on,0,0,0,,7,,,79,127
47393,note_off,138,0,0,,7,,,67,127
47397,note_off,4,0,0,,7,,,79,127
47397,note_off,0,0,0,,11,,,58,127
47399,note_on,2,0,0,,10,,,57,127
47399,note_on,0,0,0,,1,,,73,127
47399,note_on,0,0,0,,10,,,69,127
47615,note_off,216,0,0,,1,,,73,127
47687,note_on,72,0,0,,10,,,81,127
47829,note_off,142,0,0,,10,,,81,127
47831,note_on,2,0,0,,11,,,82,127
47969,note_off,138,0,0,,10,,,69,127
47973,note_off,4,0,0,,11,,,82,127
47973,note_off,0,0,0,,10,,,57,127
47975,note_on,2,0,0,,10,,,45,127
47975,note_on,0,0,0,,10,,,57,127
47975,note_on,0,0,0,,10,,,81,127
48117,note_off,142,0,0,,10,,,81,127
48119,note_on,2,0,0,,4,,,76,127
48261,note_off,142,0,0,,4,,,76,127
48263,note_on,2,0,0,,5,,,77,127
48405,note_off,142,0,0,,5,,,77,127
48407,note_on,2,0,0,,7,,,79,127
48549,note_off,142,0,0,,7,,,79,127
48549,note_off,0,0,0,,10,,,57,127
48549,note_off,0,0,0,,10,,,45,127
48551,note_on,2,0,0,,2,,,50,127
48551,note_on,0,0,0,,10,,,57,127
48551,note_on,0,0,0,,5,,,77,127
48805,note_off,254,0,0,,5,,,77,127
48839,note_on,34,0,0,,10,,,81,127
48981,note_off,142,0,0,,10,,,81,127
48983,note_on,2,0,0,,11,,,82,127
49125,note_off,142,0,0,,11,,,82,127
49125,note_off,0,0,0,,10,,,57,127
49125,note_off,0,0,0,,2,,,50,127
49127,note_on,2,0,0,,5,,,65,127
49127,note_on,0,0,0,,2,,,62,127
49127,note_on,0,0,0,,10,,,81,127
49269,note_off,142,0,0,,10,,,81,127
49271,note_on,2,0,0,,5,,,77,127
49413,note_off,142,0,0,,5,,,77,127
49415,note_on,2,0,0,,10,,,81,127
49557,note_off,142,0,0,,10,,,81,127
49559,note_on,2,0,0,,12,,,83,127
49701,note_off,142,0,0,,12,,,83,127
49701,note_off,0,0,0,,2,,,62,127
49701,note_off,0,0,0,,5,,,65,127
49703,note_on,2,0,0,,0,,,60,127
49703,note_on,0,0,0,,4,,,64,127
49703,note_on,0,0,0,,10,,,81,127
49845,note_off,142,0,0,,10,,,81,127
49847,note_on,2,0,0,,4,,,76,127
49989,note_off,142,0,0,,4,,,76,127
49991,note_on,2,0,0,,10,,,81,127
50133,note_off,142,0,0,,10,,,81,127
50135,note_on,2,0,0,,12,,,83,127
50277,note_off,142,0,0,,12,,,83,127
50277,note_off,0,0,0,,4,,,64,127
50277,note_off,0,0,0,,0,,,60,127
50279,note_on,2,0,0,,12,,,59,127
50279,note_on,0,0,0,,3,,,63,127
50279,note_on,0,0,0,,6,,,66,127
50279,note_on,0,0,0,,10,,,81,127
50421,note_off,142,0,0,,10,,,81,127
50423,note_on,2,0,0,,7,,,79,127
50565,note_off,142,0,0,,7,,,79,127
50567,note_on,2,0,0,,7,,,79,127
50709,note_off,142,0,0,,7,,,79,127
50711,note_on,2,0,0,,6,,,78,127
50853,note_off,142,0,0,,6,,,78,127
50853,note_off,0,0,0,,6,,,66,127
50853,note_off,0,0,0,,3,,,63,127
50853,note_off,0,0,0,,12,,,59,127
50855,note_on,2,0,0,,4,,,64,127
50855,note_on,0,0,0,,4,,,52,127
50855,note_on,0,0,0,,7,,,79,127
50997,note_off,142,0,0,,7,,,79,127
50999,note_on,2,0,0,,4,,,76,127
51141,note_off,142,0,0,,4,,,76,127
51143,note_on,2,0,0,,7,,,79,127
51285,note_off,142,0,0,,7,,,79,127
51287,note_on,2,0,0,,10,,,81,127
51429,note_off,142,0,0,,10,,,81,127
51429,note_off,0,0,0,,4,,,52,127
51429,note_off,0,0,0,,4,,,64,127
51431,note_on,2,0,0,,4,,,64,127
51431,note_on,0,0,0,,0,,,60,127
51431,note_on,0,0,0,,7,,,79,127
51573,note_off,142,0,0,,7,,,79,127
51575,note_on,2,0,0,,4,,,76,127
51717,note_off,142,0,0,,4,,,76,127
51719,note_on,2,0,0,,7,,,79,127
51861,note_off,142,0,0,,7,,,79,127
51863,note_on,2,0,0,,10,,,81,127
52005,note_off,142,0,0,,10,,,81,127
52005,note_off,0,0,0,,0,,,60,127
52005,note_off,0,0,0,,4,,,64,127
52007,note_on,2,0,0,,2,,,62,127
52007,note_on,0,0,0,,12,,,59,127
52007,note_on,0,0,0,,7,,,79,127
52149,note_off,142,0,0,,7,,,79,127
52151,note_on,2,0,0,,2,,,74,127
52293,note_off,142,0,0,,2,,,74,127
52295,note_on,2,0,0,,7,,,79,127
52437,note_off,142,0,0,,7,,,79,127
52439,note_on,2,0,0,,10,,,81,127
52581,note_off,142,0,0,,10,,,81,127
52581,note_off,0,0,0,,12,,,59,127
52581,note_off,0,0,0,,2,,,62,127
52583,note_on,2,0,0,,10,,,57,127
52583,note_on,0,0,0,,0,,,60,127
52583,note_on,0,0,0,,7,,,79,127
52725,note_off,142,0,0,,7,,,79,127
52727,note_on,2,0,0,,0,,,72,127
52869,note_off,142,0,0,,0,,,72,127
52871,note_on,2,0,0,,7,,,79,127
53013,note_off,142,0,0,,7,,,79,127
53015,note_on,2,0,0,,10,,,81,127
53157,note_off,142,0,0,,10,,,81,127
53157,note_off,0,0,0,,0,,,60,127
53157,note_off,0,0,0,,10,,,57,127
53159,note_on,2,0,0,,12,,,59,127
53159,note_on,0,0,0,,7,,,55,127
53159,note_on,0,0,0,,7,,,79,127
53301,note_off,142,0,0,,7,,,79,127
53303,note_on,2,0,0,,12,,,71,127
53445,note_off,142,0,0,,12,,,71,127
53447,note_on,2,0,0,,2,,,74,127
53589,note_off,142,0,0,,2,,,74,127
53591,note_on,2,0,0,,4,,,76,127
53733,note_off,142,0,0,,4,,,76,127
53733,note_off,0,0,0,,7,,,55,127
53733,note_off,0,0,0,,12,,,59,127
53735,note_on,2,0,0,,2,,,62,127
53735,note_on,0,0,0,,12,,,59,127
53735,note_on,0,0,0,,7,,,55,127
53735,note_on,0,0,0,,2,,,74,127
53877,note_off,142,0,0,,2,,,74,127
53879,note_on,2,0,0,,12,,,71,127
54021,note_off,142,0,0,,12,,,71,127
54023,note_on,2,0,0,,2,,,74,127
54165,note_off,142,0,0,,2,,,74,127
54167,note_on,2,0,0,,4,,,76,127
54309,note_off,142,0,0,,4,,,76,127
54309,note_off,0,0,0,,7,,,55,127
54309,note_off,0,0,0,,12,,,59,127
54309,note_off,0,0,0,,2,,,62,127
54311,note_on,2,0,0,,6,,,54,127
54311,note_on,0,0,0,,2,,,62,127
54311,note_on,0,0,0,,12,,,59,127
54311,note_on,0,0,0,,2,,,74,127
54453,note_off,142,0,0,,2,,,74,127
54455,note_on,2,0,0,,12,,,71,127
54597,note_off,142,0,0,,12,,,71,127
54599,note_on,2,0,0,,2,,,74,127
54741,note_off,142,0,0,,2,,,74,127
54743,note_on,2,0,0,,4,,,76,127
54885,note_off,142,0,0,,4,,,76,127
54885,note_off,0,0,0,,12,,,59,127
54885,note_off,0,0,0,,2,,,62,127
54885,note_off,0,0,0,,6,,,54,127
54887,note_on,2,0,0,,4,,,52,127
54887,note_on,0,0,0,,11,,,58,127
54887,note_on,0,0,0,,12,,,59,127
54887,note_on,0,0,0,,1,,,61,127
54887,note_on,0,0,0,,2,,,74,127
55029,note_off,142,0,0,,2,,,74,127
55031,note_on,2,0,0,,12,,,71,127
55173,note_off,142,0,0,,12,,,71,127
55175,note_on,2,0,0,,2,,,74,127
55317,note_off,142,0,0,,2,,,74,127
55319,note_on,2,0,0,,4,,,76,127
55461,note_off,142,0,0,,4,,,76,127
55461,note_off,0,0,0,,1,,,61,127
55461,note_off,0,0,0,,12,,,59,127
55461,note_off,0,0,0,,11,,,58,127
55461,note_off,0,0,0,,4,,,52,127
55463,note_on,2,0,0,,2,,,50,127
55463,note_on,0,0,0,,6,,,54,127
55463,note_on,0,0,0,,12,,,59,127
55463,note_on,0,0,0,,2,,,74,127
55605,note_off,142,0,0,,2,,,74,127
55607,note_on,2,0,0,,12,,,71,127
55749,note_off,142,0,0,,12,,,71,127
55751,note_on,2,0,0,,2,,,74,127
55893,note_off,142,0,0,,2,,,74,127
55895,note_on,2,0,0,,4,,,76,127
56037,note_off,142,0,0,,4,,,76,127
56037,note_off,0,0,0,,12,,,59,127
56037,note_off,0,0,0,,6,,,54,127
56037,note_off,0,0,0,,2,,,50,127
56039,note_on,2,0,0,,2,,,50,127
56039,note_on,0,0,0,,6,,,54,127
56039,note_on,0,0,0,,12,,,59,127
56039,note_on,0,0,0,,2,,,74,127
56181,note_off,142,0,0,,2,,,74,127
56183,note_on,2,0,0,,12,,,71,127
56325,note_off,142,0,0,,12,,,71,127
56327,note_on,2,0,0,,2,,,74,127
56469,note_off,142,0,0,,2,,,74,127
56471,note_on,2,0,0,,4,,,76,127
56613,note_off,142,0,0,,4,,,76,127
56613,note_off,0,0,0,,12,,,59,127
56613,note_off,0,0,0,,6,,,54,127
56613,note_off,0,0,0,,2,,,50,127
56615,note_on,2,0,0,,4,,,52,127
56615,note_on,0,0,0,,12,,,59,127
56615,note_on,0,0,0,,8,,,56,127
56615,note_on,0,0,0,,2,,,74,127
56757,note_off,142,0,0,,2,,,74,127
56759,note_on,2,0,0,,12,,,71,127
56901,note_off,142,0,0,,12,,,71,127
56903,note_on,2,0,0,,2,,,74,127
57045,note_off,142,0,0,,2,,,74,127
57047,note_on,2,0,0,,4,,,76,127
57189,note_off,142,0,0,,4,,,76,127
57189,note_off,0,0,0,,8,,,56,127
57189,note_off,0,0,0,,12,,,59,127
57189,note_off,0,0,0,,4,,,52,127
57191,note_on,2,0,0,,10,,,57,127
57191,note_on,0,0,0,,5,,,53,127
57191,note_on,0,0,0,,12,,,59,127
57191,note_on,0,0,0,,2,,,74,127
57333,note_off,142,0,0,,2,,,74,127
57335,note_on,2,0,0,,12,,,71,127
57477,note_off,142,0,0,,12,,,71,127
57479,note_on,2,0,0,,2,,,74,127
57621,note_off,142,0,0,,2,,,74,127
57623,note_on,2,0,0,,4,,,76,127
57765,note_off,142,0,0,,4,,,76,127
57765,note_off,0,0,0,,12,,,59,127
57765,note_off,0,0,0,,5,,,53,127
57765,note_off,0,0,0,,10,,,57,127
57767,note_on,2,0,0,,4,,,52,127
57767,note_on,0,0,0,,12,,,59,127
57767,note_on,0,0,0,,8,,,56,127
57767,note_on,0,0,0,,2,,,74,127
57909,note_off,142,0,0,,2,,,74,127
57911,note_on,2,0,0,,12,,,71,127
58053,note_off,142,0,0,,12,,,71,127
58055,note_on,2,0,0,,2,,,74,127
58197,note_off,142,0,0,,2,,,74,127
58199,note_on,2,0,0,,4,,,76,127
58341,note_off,142,0,0,,4,,,76,127
58341,note_off,0,0,0,,8,,,56,127
58341,note_off,0,0,0,,12,,,59,127
58341,note_off,0,0,0,,4,,,52,127
58343,note_on,2,0,0,,8,,,56,127
58343,note_on,0,0,0,,12,,,59,127
58343,note_on,0,0,0,,4,,,52,127
58343,note_on,0,0,0,,2,,,74,127
58485,note_off,142,0,0,,2,,,74,127
58487,note_on,2,0,0,,0,,,72,127
58629,note_off,142,0,0,,0,,,72,127
58631,note_on,2,0,0,,0,,,72,127
58773,note_off,142,0,0,,0,,,72,127
58775,note_on,2,0,0,,12,,,71,127
58917,note_off,142,0,0,,12,,,71,127
58917,note_off,0,0,0,,4,,,52,127
58917,note_off,0,0,0,,12,,,59,127
58917,note_off,0,0,0,,8,,,56,127
58919,note_on,2,0,0,,10,,,45,127
58919,note_on,0,0,0,,4,,,52,127
58919,note_on,0,0,0,,10,,,57,127
58919,note_on,0,0,0,,0,,,72,127
59061,note_off,142,0,0,,0,,,72,127
59063,note_on,2,0,0,,10,,,69,127
59205,note_off,142,0,0,,10,,,69,127
59207,note_on,2,0,0,,0,,,72,127
59349,note_off,142,0,0,,0,,,72,127
59351,note_on,2,0,0,,2,,,74,127
59493,note_off,142,0,0,,2,,,74,127
59493,note_off,0,0,0,,10,,,57,127
59493,note_off,0,0,0,,4,,,52,127
59493,note_off,0,0,0,,10,,,45,127
59495,note_on,2,0,0,,4,,,52,127
59495,note_on,0,0,0,,0,,,48,127
59495,note_on,0,0,0,,10,,,57,127
59495,note_on,0,0,0,,0,,,72,127
59637,note_off,142,0,0,,0,,,72,127
59639,note_on,2,0,0,,10,,,69,127
59781,note_off,142,0,0,,10,,,69,127
59783,note_on,2,0,0,,0,,,72,127
59925,note_off,142,0,0,,0,,,72,127
59927,note_on,2,0,0,,2,,,74,127
60069,note_off,142,0,0,,2,,,74,127
60069,note_off,0,0,0,,10,,,57,127
60069,note_off,0,0,0,,0,,,48,127
60069,note_off,0,0,0,,4,,,52,127
60071,note_on,2,0,0,,6,,,54,127
60071,note_on,0,0,0,,2,,,50,127
60071,note_on,0,0,0,,10,,,57,127
60071,note_on,0,0,0,,0,,,72,127
60213,note_off,142,0,0,,0,,,72,127
60215,note_on,2,0,0,,10,,,69,127
60357,note_off,142,0,0,,10,,,69,127
60359,note_on,2,0,0,,0,,,72,127
60501,note_off,142,0,0,,0,,,72,127
60503,note_on,2,0,0,,2,,,74,127
60645,note_off,142,0,0,,2,,,74,127
60645,note_off,0,0,0,,10,,,57,127
60645,note_off,0,0,0,,2,,,50,127
60645,note_off,0,0,0,,6,,,54,127
60647,note_on,2,0,0,,6,,,54,127
60647,note_on,0,0,0,,10,,,57,127
60647,note_on,0,0,0,,2,,,50,127
60647,note_on,0,0,0,,0,,,72,127
60789,note_off,142,0,0,,0,,,72,127
60791,note_on,2,0,0,,12,,,71,127
60933,note_off,142,0,0,,12,,,71,127
60935,note_on,2,0,0,,12,,,71,127
61077,note_off,142,0,0,,12,,,71,127
61079,note_on,2,0,0,,10,,,69,127
61221,note_off,142,0,0,,10,,,69,127
61221,note_off,0,0,0,,2,,,50,127
61221,note_off,0,0,0,,10,,,57,127
61221,note_off,0,0,0,,6,,,54,127
61223,note_on,2,0,0,,7,,,43,127
61223,note_on,0,0,0,,7,,,55,127
61223,note_on,0,0,0,,12,,,71,127
61483,note_off,260,0,0,,12,,,71,127
61510,note_off,27,0,0,,7,,,55,127
61510,note_off,0,0,0,,7,,,43,127
61512,note_on,2,0,0,,7,,,55,127
61512,note_on,0,0,0,,7,,,67,127
61512,note_on,0,0,0,,12,,,71,127
61654,note_off,142,0,0,,7,,,67,127
61656,note_on,2,0,0,,6,,,66,127
61798,note_off,142,0,0,,6,,,66,127
61798,note_off,0,0,0,,12,,,71,127
61800,note_on,2,0,0,,4,,,64,127
61800,note_on,0,0,0,,1,,,73,127
61942,note_off,142,0,0,,1,,,73,127
61942,note_off,0,0,0,,4,,,64,127
61944,note_on,2,0,0,,2,,,62,127
61944,note_on,0,0,0,,2,,,74,127
62086,note_off,142,0,0,,2,,,74,127
62086,note_off,0,0,0,,2,,,62,127
62088,note_on,2,0,0,,1,,,61,127
62088,note_on,0,0,0,,4,,,76,127
62230,note_off,142,0,0,,4,,,76,127
62230,note_off,0,0,0,,1,,,61,127
62232,note_on,2,0,0,,12,,,59,127
62232,note_on,0,0,0,,6,,,78,127
62374,note_off,142,0,0,,6,,,78,127
62374,note_off,0,0,0,,12,,,59,127
62374,note_off,0,0,0,,7,,,55,127
62376,note_on,2,0,0,,10,,,57,127
62376,note_on,0,0,0,,7,,,79,127
62518,note_off,142,0,0,,7,,,79,127
62518,note_off,0,0,0,,10,,,57,127
62520,note_on,2,0,0,,7,,,55,127
62520,note_on,0,0,0,,4,,,76,127
62662,note_off,142,0,0,,4,,,76,127
62662,note_off,0,0,0,,7,,,55,127
62664,note_on,2,0,0,,6,,,54,127
62664,note_on,0,0,0,,10,,,81,127
62806,note_off,142,0,0,,10,,,81,127
62806,note_off,0,0,0,,6,,,54,127
62808,note_on,2,0,0,,4,,,52,127
62808,note_on,0,0,0,,7,,,79,127
62950,note_off,142,0,0,,7,,,79,127
62950,note_off,0,0,0,,4,,,52,127
62952,note_on,2,0,0,,2,,,50,127
62952,note_on,0,0,0,,7,,,79,127
63094,note_off,142,0,0,,7,,,79,127
63096,note_on,2,0,0,,6,,,78,127
63238,note_off,142,0,0,,6,,,78,127
63238,note_off,0,0,0,,2,,,50,127
63240,note_on,2,0,0,,2,,,38,127
63240,note_on,0,0,0,,4,,,76,127
63382,note_off,142,0,0,,4,,,76,127
63384,note_on,2,0,0,,2,,,74,127
63526,note_off,142,0,0,,2,,,74,127
63526,note_off,0,0,0,,2,,,38,127
63528,note_on,2,0,0,,10,,,45,127
63528,note_on,0,0,0,,4,,,76,127
63744,note_off,216,0,0,,4,,,76,127
63816,note_on,72,0,0,,10,,,81,127
63862,note_off,46,0,0,,10,,,81,127
63864,note_on,2,0,0,,8,,,80,127
63910,note_off,46,0,0,,8,,,80,127
63912,note_on,2,0,0,,10,,,81,127
63958,note_off,46,0,0,,10,,,81,127
63960,note_on,2,0,0,,12,,,83,127
64102,note_off,142,0,0,,12,,,83,127
64102,note_off,0,0,0,,10,,,45,127
64104,note_on,2,0,0,,2,,,62,127
64104,note_on,0,0,0,,10,,,81,127
64246,note_off,142,0,0,,10,,,81,127
64248,note_on,2,0,0,,6,,,78,127
64390,note_off,142,0,0,,6,,,78,127
64392,note_on,2,0,0,,10,,,69,127
64392,note_on,0,0,0,,10,,,81,127
64438,note_off,46,0,0,,10,,,81,127
64440,note_on,2,0,0,,8,,,80,127
64486,note_off,46,0,0,,8,,,80,127
64488,note_on,2,0,0,,10,,,81,127
64534,note_off,46,0,0,,10,,,81,127
64536,note_on,2,0,0,,12,,,83,127
64674,note_off,138,0,0,,2,,,62,127
64678,note_off,4,0,0,,12,,,83,127
64680,note_on,2,0,0,,1,,,61,127
64680,note_on,0,0,0,,10,,,81,127
64822,note_off,142,0,0,,10,,,81,127
64824,note_on,2,0,0,,4,,,76,127
64962,note_off,138,0,0,,10,,,69,127
64966,note_off,4,0,0,,4,,,76,127
64968,note_on,2,0,0,,10,,,69,127
64968,note_on,0,0,0,,10,,,81,127
65014,note_off,46,0,0,,10,,,81,127
65016,note_on,2,0,0,,8,,,80,127
65062,note_off,46,0,0,,8,,,80,127
65064,note_on,2,0,0,,10,,,81,127
65110,note_off,46,0,0,,10,,,81,127
65112,note_on,2,0,0,,12,,,83,127
65250,note_off,138,0,0,,1,,,61,127
65254,note_off,4,0,0,,12,,,83,127
65256,note_on,2,0,0,,12,,,59,127
65256,note_on,0,0,0,,10,,,81,127
65398,note_off,142,0,0,,10,,,81,127
65400,note_on,2,0,0,,2,,,74,127
65538,note_off,138,0,0,,10,,,69,127
65542,note_off,4,0,0,,2,,,74,127
65544,note_on,2,0,0,,7,,,67,127
65544,note_on,0,0,0,,10,,,81,127
65590,note_off,46,0,0,,10,,,81,127
65592,note_on,2,0,0,,8,,,80,127
65638,note_off,46,0,0,,8,,,80,127
65640,note_on,2,0,0,,10,,,81,127
65686,note_off,46,0,0,,10,,,81,127
65688,note_on,2,0,0,,12,,,83,127
65826,note_off,138,0,0,,12,,,59,127
65830,note_off,4,0,0,,12,,,83,127
65832,note_on,2,0,0,,10,,,57,127
65832,note_on,0,0,0,,10,,,81,127
65974,note_off,142,0,0,,10,,,81,127
65976,note_on,2,0,0,,1,,,73,127
66114,note_off,138,0,0,,7,,,67,127
66118,note_off,4,0,0,,1,,,73,127
66120,note_on,2,0,0,,6,,,66,127
66120,note_on,0,0,0,,10,,,81,127
66166,note_off,46,0,0,,10,,,81,127
66168,note_on,2,0,0,,8,,,80,127
66214,note_off,46,0,0,,8,,,80,127
66216,note_on,2,0,0,,10,,,81,127
66262,note_off,46,0,0,,10,,,81,127
66264,note_on,2,0,0,,12,,,83,127
66402,note_off,138,0,0,,10,,,57,127
66406,note_off,4,0,0,,12,,,83,127
66408,note_on,2,0,0,,7,,,55,127
66408,note_on,0,0,0,,10,,,81,127
66550,note_off,142,0,0,,10,,,81,127
66552,note_on,2,0,0,,12,,,71,127
66690,note_off,138,0,0,,6,,,66,127
66694,note_off,4,0,0,,12,,,71,127
66696,note_on,2,0,0,,4,,,64,127
66696,note_on,0,0,0,,10,,,81,127
66742,note_off,46,0,0,,10,,,81,127
66744,note_on,2,0,0,,7,,,79,127
66790,note_off,46,0,0,,7,,,79,127
66792,note_on,2,0,0,,10,,,81,127
66838,note_off,46,0,0,,10,,,81,127
66840,note_on,2,0,0,,12,,,83,127
66978,note_off,138,0,0,,7,,,55,127
66982,note_off,4,0,0,,12,,,83,127
66984,note_on,2,0,0,,6,,,54,127
66984,note_on,0,0,0,,10,,,81,127
67126,note_off,142,0,0,,10,,,81,127
67128,note_on,2,0,0,,10,,,69,127
67266,note_off,138,0,0,,4,,,64,127
67270,note_off,4,0,0,,10,,,69,127
67270,note_off,0,0,0,,6,,,54,127
67272,note_on,2,0,0,,7,,,55,127
67272,note_on,0,0,0,,7,,,79,127
67272,note_on,0,0,0,,12,,,83,127
67414,note_off,142,0,0,,12,,,83,127
67414,note_off,0,0,0,,7,,,79,127
67416,note_on,2,0,0,,10,,,81,127
67416,note_on,0,0,0,,6,,,78,127
67558,note_off,142,0,0,,6,,,78,127
67558,note_off,0,0,0,,10,,,81,127
67560,note_on,2,0,0,,7,,,79,127
67560,note_on,0,0,0,,4,,,76,127
67702,note_off,142,0,0,,4,,,76,127
67702,note_off,0,0,0,,7,,,79,127
67704,note_on,2,0,0,,6,,,78,127
67704,note_on,0,0,0,,2,,,74,127
67846,note_off,142,0,0,,2,,,74,127
67846,note_off,0,0,0,,6,,,78,127
67846,note_off,0,0,0,,7,,,55,127
67848,note_on,2,0,0,,7,,,43,127
67848,note_on,0,0,0,,7,,,55,127
67848,note_on,0,0,0,,1,,,73,127
67848,note_on,0,0,0,,4,,,76,127
67990,note_off,142,0,0,,4,,,76,127
67990,note_off,0,0,0,,1,,,73,127
67992,note_on,2,0,0,,6,,,78,127
67992,note_on,0,0,0,,2,,,74,127
68134,note_off,142,0,0,,2,,,74,127
68134,note_off,0,0,0,,6,,,78,127
68134,note_off,0,0,0,,7,,,55,127
68134,note_off,0,0,0,,7,,,43,127
68136,note_on,2,0,0,,10,,,45,127
68136,note_on,0,0,0,,10,,,57,127
68136,note_on,0,0,0,,1,,,73,127
68136,note_on,0,0,0,,4,,,76,127
68376,note_off,240,0,0,,4,,,76,127
68376,note_off,0,0,0,,1,,,73,127
68422,note_off,46,0,0,,10,,,57,127
68422,note_off,0,0,0,,10,,,45,127
68424,note_on,2,0,0,,10,,,69,127
68424,note_on,0,0,0,,4,,,76,127
68424,note_on,0,0,0,,1,,,73,127
68566,note_off,142,0,0,,10,,,69,127
68568,note_on,2,0,0,,12,,,71,127
68710,note_off,142,0,0,,12,,,71,127
68712,note_on,2,0,0,,10,,,69,127
68854,note_off,142,0,0,,10,,,69,127
68856,note_on,2,0,0,,6,,,66,127
68998,note_off,142,0,0,,6,,,66,127
68998,note_off,0,0,0,,1,,,73,127
68998,note_off,0,0,0,,4,,,76,127
69000,note_on,2,0,0,,10,,,69,127
69000,note_on,0,0,0,,2,,,74,127
69000,note_on,0,0,0,,6,,,78,127
69142,note_off,142,0,0,,10,,,69,127
69144,note_on,2,0,0,,12,,,71,127
69286,note_off,142,0,0,,12,,,71,127
69288,note_on,2,0,0,,10,,,69,127
69430,note_off,142,0,0,,10,,,69,127
69432,note_on,2,0,0,,4,,,64,127
69574,note_off,142,0,0,,4,,,64,127
69574,note_off,0,0,0,,6,,,78,127
69574,note_off,0,0,0,,2,,,74,127
69576,note_on,2,0,0,,10,,,69,127
69576,note_on,0,0,0,,4,,,76,127
69576,note_on,0,0,0,,7,,,79,127
69718,note_off,142,0,0,,10,,,69,127
69720,note_on,2,0,0,,12,,,71,127
69862,note_off,142,0,0,,12,,,71,127
69864,note_on,2,0,0,,10,,,69,127
70006,note_off,142,0,0,,10,,,69,127
70008,note_on,2,0,0,,2,,,62,127
70150,note_off,142,0,0,,2,,,62,127
70150,note_off,0,0,0,,7,,,79,127
70150,note_off,0,0,0,,4,,,76,127
70152,note_on,2,0,0,,10,,,69,127
70152,note_on,0,0,0,,10,,,81,127
70152,note_on,0,0,0,,6,,,78,127
70294,note_off,142,0,0,,10,,,69,127
70296,note_on,2,0,0,,12,,,71,127
70438,note_off,142,0,0,,12,,,71,127
70440,note_on,2,0,0,,10,,,69,127
70582,note_off,142,0,0,,10,,,69,127
70584,note_on,2,0,0,,1,,,61,127
70726,note_off,142,0,0,,1,,,61,127
70726,note_off,0,0,0,,6,,,78,127
70726,note_off,0,0,0,,10,,,81,127
70728,note_on,2,0,0,,10,,,69,127
70728,note_on,0,0,0,,7,,,79,127
70728,note_on,0,0,0,,12,,,83,127
70870,note_off,142,0,0,,10,,,69,127
70872,note_on,2,0,0,,12,,,71,127
71014,note_off,142,0,0,,12,,,71,127
71016,note_on,2,0,0,,10,,,69,127
71158,note_off,142,0,0,,10,,,69,127
71160,note_on,2,0,0,,12,,,59,127
71302,note_off,142,0,0,,12,,,59,127
71302,note_off,0,0,0,,12,,,83,127
71302,note_off,0,0,0,,7,,,79,127
71304,note_on,2,0,0,,10,,,69,127
71304,note_on,0,0,0,,1,,,85,127
71304,note_on,0,0,0,,4,,,76,127
71446,note_off,142,0,0,,10,,,69,127
71448,note_on,2,0,0,,12,,,71,127
71590,note_off,142,0,0,,12,,,71,127
71592,note_on,2,0,0,,10,,,69,127
71734,note_off,142,0,0,,10,,,69,127
71736,note_on,2,0,0,,10,,,57,127
71878,note_off,142,0,0,,10,,,57,127
71880,note_on,2,0,0,,10,,,69,127
72022,note_off,142,0,0,,10,,,69,127
72024,note_on,2,0,0,,12,,,71,127
72166,note_off,142,0,0,,12,,,71,127
72166,note_off,0,0,0,,4,,,76,127
72166,note_off,0,0,0,,1,,,85,127
72168,note_on,2,0,0,,10,,,69,127
72168,note_on,0,0,0,,4,,,76,127
72310,note_off,142,0,0,,10,,,69,127
72312,note_on,2,0,0,,7,,,67,127
72312,note_on,0,0,0,,4,,,88,127
72454,note_off,142,0,0,,4,,,88,127
72454,note_off,0,0,0,,7,,,67,127
72456,note_on,2,0,0,,6,,,66,127
72456,note_on,0,0,0,,2,,,86,127
72588,note_off,132,0,0,,4,,,76,127
72598,note_off,10,0,0,,2,,,86,127
72598,note_off,0,0,0,,6,,,66,127
72600,note_on,2,0,0,,4,,,64,127
72600,note_on,0,0,0,,1,,,85,127
72742,note_off,142,0,0,,1,,,85,127
72742,note_off,0,0,0,,4,,,64,127
72744,note_on,2,0,0,,6,,,66,127
72744,note_on,0,0,0,,2,,,74,127
72744,note_on,0,0,0,,2,,,86,127
72886,note_off,142,0,0,,2,,,86,127
72888,note_on,2,0,0,,10,,,81,127
73029,note_off,141,0,0,,2,,,74,127
73031,note_off,2,0,0,,10,,,81,127
73031,note_off,0,0,0,,6,,,66,127
73033,note_on,2,0,0,,7,,,67,127
73033,note_on,0,0,0,,12,,,83,127
73175,note_off,142,0,0,,12,,,83,127
73177,note_on,2,0,0,,7,,,79,127
73319,note_off,142,0,0,,7,,,79,127
73319,note_off,0,0,0,,7,,,67,127
73321,note_on,2,0,0,,10,,,69,127
73321,note_on,0,0,0,,6,,,78,127
73321,note_on,0,0,0,,7,,,79,127
73463,note_off,142,0,0,,7,,,79,127
73463,note_off,0,0,0,,6,,,78,127
73465,note_on,2,0,0,,4,,,76,127
73607,note_off,142,0,0,,4,,,76,127
73607,note_off,0,0,0,,10,,,69,127
73609,note_on,2,0,0,,10,,,57,127
73609,note_on,0,0,0,,2,,,74,127
73751,note_off,142,0,0,,2,,,74,127
73753,note_on,2,0,0,,1,,,73,127
73895,note_off,142,0,0,,1,,,73,127
73895,note_off,0,0,0,,10,,,57,127
73897,note_on,2,0,0,,2,,,62,127
73897,note_on,0,0,0,,2,,,74,127
74113,note_off,216,0,0,,2,,,74,127
74183,note_off,70,0,0,,2,,,62,127
74185,note_on,2,0,0,,2,,,62,127
74185,note_on,0,0,0,,6,,,78,127
74185,note_on,0,0,0,,6,,,66,127
74231,note_off,46,0,0,,6,,,78,127
74233,note_on,2,0,0,,4,,,76,127
74279,note_off,46,0,0,,4,,,76,127
74281,note_on,2,0,0,,6,,,78,127
74327,note_off,46,0,0,,6,,,78,127
74327,note_off,0,0,0,,2,,,62,127
74329,note_on,2,0,0,,4,,,64,127
74329,note_on,0,0,0,,7,,,79,127
74471,note_off,142,0,0,,7,,,79,127
74471,note_off,0,0,0,,4,,,64,127
74473,note_on,2,0,0,,2,,,62,127
74473,note_on,0,0,0,,6,,,78,127
74615,note_off,142,0,0,,6,,,78,127
74615,note_off,0,0,0,,2,,,62,127
74617,note_on,2,0,0,,12,,,59,127
74617,note_on,0,0,0,,2,,,74,127
74755,note_off,138,0,0,,6,,,66,127
74759,note_off,4,0,0,,2,,,74,127
74761,note_on,2,0,0,,2,,,62,127
74761,note_on,0,0,0,,6,,,78,127
74761,note_on,0,0,0,,6,,,66,127
74807,note_off,46,0,0,,6,,,78,127
74809,note_on,2,0,0,,4,,,76,127
74855,note_off,46,0,0,,4,,,76,127
74857,note_on,2,0,0,,6,,,78,127
74903,note_off,46,0,0,,6,,,78,127
74903,note_off,0,0,0,,2,,,62,127
74905,note_on,2,0,0,,4,,,64,127
74905,note_on,0,0,0,,7,,,79,127
75047,note_off,142,0,0,,7,,,79,127
75047,note_off,0,0,0,,4,,,64,127
75049,note_on,2,0,0,,2,,,62,127
75049,note_on,0,0,0,,6,,,78,127
75187,note_off,138,0,0,,12,,,59,127
75191,note_off,4,0,0,,6,,,78,127
75191,note_off,0,0,0,,2,,,62,127
75193,note_on,2,0,0,,10,,,57,127
75193,note_on,0,0,0,,2,,,74,127
75331,note_off,138,0,0,,6,,,66,127
75335,note_off,4,0,0,,2,,,74,127
75337,note_on,2,0,0,,2,,,62,127
75337,note_on,0,0,0,,6,,,66,127
75337,note_on,0,0,0,,6,,,78,127
75383,note_off,46,0,0,,6,,,78,127
75385,note_on,2,0,0,,4,,,76,127
75431,note_off,46,0,0,,4,,,76,127
75433,note_on,2,0,0,,6,,,78,127
75479,note_off,46,0,0,,6,,,78,127
75479,note_off,0,0,0,,2,,,62,127
75481,note_on,2,0,0,,4,,,64,127
75481,note_on,0,0,0,,7,,,79,127
75623,note_off,142,0,0,,7,,,79,127
75623,note_off,0,0,0,,4,,,64,127
75625,note_on,2,0,0,,2,,,62,127
75625,note_on,0,0,0,,6,,,78,127
75763,note_off,138,0,0,,10,,,57,127
75767,note_off,4,0,0,,6,,,78,127
75767,note_off,0,0,0,,2,,,62,127
75769,note_on,2,0,0,,7,,,55,127
75769,note_on,0,0,0,,2,,,74,127
75907,note_off,138,0,0,,6,,,66,127
75911,note_off,4,0,0,,2,,,74,127
75913,note_on,2,0,0,,2,,,62,127
75913,note_on,0,0,0,,6,,,78,127
75913,note_on,0,0,0,,6,,,66,127
76055,note_off,142,0,0,,6,,,78,127
76055,note_off,0,0,0,,2,,,62,127
76057,note_on,2,0,0,,4,,,64,127
76057,note_on,0,0,0,,7,,,79,127
76189,note_off,132,0,0,,7,,,55,127
76199,note_off,10,0,0,,7,,,79,127
76199,note_off,0,0,0,,4,,,64,127
76201,note_on,2,0,0,,6,,,54,127
76201,note_on,0,0,0,,2,,,62,127
76201,note_on,0,0,0,,6,,,78,127
76343,note_off,142,0,0,,6,,,78,127
76343,note_off,0,0,0,,2,,,62,127
76345,note_on,2,0,0,,4,,,64,127
76345,note_on,0,0,0,,7,,,79,127
76483,note_off,138,0,0,,6,,,66,127
76487,note_off,4,0,0,,7,,,79,127
76487,note_off,0,0,0,,4,,,64,127
76489,note_on,2,0,0,,6,,,66,127
76489,note_on,0,0,0,,10,,,81,127
76631,note_off,142,0,0,,10,,,81,127
76631,note_off,0,0,0,,6,,,66,127
76633,note_on,2,0,0,,4,,,64,127
76633,note_on,0,0,0,,7,,,79,127
76775,note_off,142,0,0,,7,,,79,127
76775,note_off,0,0,0,,4,,,64,127
76777,note_on,2,0,0,,2,,,62,127
76777,note_on,0,0,0,,6,,,78,127
76919,note_off,142,0,0,,6,,,78,127
76919,note_off,0,0,0,,2,,,62,127
76921,note_off,2,0,0,,6,,,54,127
76921,note_on,0,0,0,,1,,,61,127
76921,note_on,0,0,0,,4,,,76,127
77063,note_off,142,0,0,,4,,,76,127
77063,note_off,0,0,0,,1,,,61,127
77065,note_on,2,0,0,,12,,,59,127
77065,note_on,0,0,0,,6,,,54,127
77065,note_on,0,0,0,,2,,,74,127
77207,note_off,142,0,0,,2,,,74,127
77207,note_off,0,0,0,,12,,,59,127
77209,note_on,2,0,0,,10,,,57,127
77209,note_on,0,0,0,,1,,,73,127
77350,note_off,141,0,0,,6,,,54,127
77352,note_off,2,0,0,,1,,,73,127
77352,note_off,0,0,0,,10,,,57,127
77354,note_on,2,0,0,,7,,,55,127
77354,note_on,0,0,0,,12,,,71,127
77496,note_off,142,0,0,,12,,,71,127
77498,note_on,2,0,0,,4,,,76,127
77498,note_on,0,0,0,,7,,,79,127
77640,note_off,142,0,0,,7,,,79,127
77640,note_off,0,0,0,,4,,,76,127
77640,note_off,0,0,0,,7,,,55,127
77642,note_on,2,0,0,,7,,,55,127
77642,note_on,0,0,0,,7,,,43,127
77642,note_on,0,0,0,,6,,,78,127
77642,note_on,0,0,0,,10,,,81,127
77784,note_off,142,0,0,,10,,,81,127
77784,note_off,0,0,0,,6,,,78,127
77786,note_on,2,0,0,,7,,,79,127
77786,note_on,0,0,0,,12,,,83,127
77928,note_off,142,0,0,,12,,,83,127
77928,note_off,0,0,0,,7,,,79,127
77928,note_off,0,0,0,,7,,,43,127
77928,note_off,0,0,0,,7,,,55,127
77930,note_on,2,0,0,,10,,,45,127
77930,note_on,0,0,0,,10,,,57,127
77930,note_on,0,0,0,,10,,,81,127
77930,note_on,0,0,0,,6,,,78,127
78072,note_off,142,0,0,,6,,,78,127
78072,note_off,0,0,0,,10,,,81,127
78074,note_on,2,0,0,,4,,,76,127
78074,note_on,0,0,0,,7,,,79,127
78216,note_off,142,0,0,,7,,,79,127
78216,note_off,0,0,0,,4,,,76,127
78216,note_off,0,0,0,,10,,,57,127
78216,note_off,0,0,0,,10,,,45,127
78218,note_on,2,0,0,,10,,,57,127
78218,note_on,0,0,0,,10,,,45,127
78218,note_on,0,0,0,,2,,,74,127
78218,note_on,0,0,0,,6,,,78,127
78360,note_off,142,0,0,,6,,,78,127
78360,note_off,0,0,0,,2,,,74,127
78362,note_on,2,0,0,,4,,,76,127
78362,note_on,0,0,0,,1,,,73,127
78504,note_off,142,0,0,,1,,,73,127
78504,note_off,0,0,0,,4,,,76,127
78504,note_off,0,0,0,,10,,,45,127
78504,note_off,0,0,0,,10,,,57,127
78506,note_on,2,0,0,,2,,,50,127
78506,note_on,0,0,0,,2,,,38,127
78506,note_on,0,0,0,,2,,,74,127
78792,note_off,286,0,0,,2,,,74,127
78792,note_off,0,0,0,,2,,,38,127
78792,note_off,0,0,0,,2,,,50,127
78794,note_on,2,0,0,,2,,,62,127
78794,note_on,0,0,0,,6,,,66,127
78794,note_on,0,0,0,,6,,,78,127
78840,note_off,46,0,0,,6,,,78,127
78842,note_on,2,0,0,,4,,,76,127
78888,note_off,46,0,0,,4,,,76,127
78890,note_on,2,0,0,,6,,,78,127
78936,note_off,46,0,0,,6,,,78,127
78938,note_on,2,0,0,,4,,,64,127
78938,note_on,0,0,0,,7,,,79,127
79079,note_off,141,0,0,,2,,,62,127
79081,note_off,2,0,0,,7,,,79,127
79081,note_off,0,0,0,,4,,,64,127
79083,note_on,2,0,0,,2,,,62,127
79083,note_on,0,0,0,,6,,,78,127
79225,note_off,142,0,0,,6,,,78,127
79227,note_on,2,0,0,,12,,,59,127
79227,note_on,0,0,0,,2,,,74,127
79365,note_off,138,0,0,,6,,,66,127
79368,note_off,3,0,0,,2,,,62,127
79370,note_off,2,0,0,,2,,,74,127
79370,note_off,0,0,0,,12,,,59,127
79372,note_on,2,0,0,,2,,,62,127
79372,note_on,0,0,0,,6,,,66,127
79372,note_on,0,0,0,,6,,,78,127
79418,note_off,46,0,0,,6,,,78,127
79420,note_on,2,0,0,,4,,,76,127
79466,note_off,46,0,0,,4,,,76,127
79468,note_on,2,0,0,,6,,,78,127
79514,note_off,46,0,0,,6,,,78,127
79516,note_on,2,0,0,,4,,,64,127
79516,note_on,0,0,0,,7,,,79,127
79657,note_off,141,0,0,,2,,,62,127
79659,note_off,2,0,0,,7,,,79,127
79659,note_off,0,0,0,,4,,,64,127
79661,note_on,2,0,0,,2,,,62,127
79661,note_on,0,0,0,,6,,,78,127
79803,note_off,142,0,0,,6,,,78,127
79805,note_on,2,0,0,,10,,,57,127
79805,note_on,0,0,0,,2,,,74,127
79943,note_off,138,0,0,,6,,,66,127
79946,note_off,3,0,0,,2,,,62,127
79948,note_off,2,0,0,,2,,,74,127
79948,note_off,0,0,0,,10,,,57,127
79950,note_on,2,0,0,,2,,,62,127
79950,note_on,0,0,0,,6,,,66,127
79950,note_on,0,0,0,,6,,,78,127
79996,note_off,46,0,0,,6,,,78,127
79998,note_on,2,0,0,,4,,,76,127
80044,note_off,46,0,0,,4,,,76,127
80046,note_on,2,0,0,,6,,,78,127
80092,note_off,46,0,0,,6,,,78,127
80094,note_on,2,0,0,,4,,,64,127
80094,note_on,0,0,0,,7,,,79,127
80235,note_off,141,0,0,,2,,,62,127
80237,note_off,2,0,0,,7,,,79,127
80237,note_off,0,0,0,,4,,,64,127
80239,note_on,2,0,0,,2,,,62,127
80239,note_on,0,0,0,,6,,,78,127
80381,note_off,142,0,0,,6,,,78,127
80383,note_on,2,0,0,,7,,,55,127
80383,note_on,0,0,0,,2,,,74,127
80521,note_off,138,0,0,,6,,,66,127
80524,note_off,3,0,0,,2,,,62,127
80526,note_off,2,0,0,,2,,,74,127
80526,note_off,0,0,0,,7,,,55,127
80528,note_on,2,0,0,,2,,,62,127
80528,note_on,0,0,0,,6,,,78,127
80528,note_on,0,0,0,,6,,,66,127
80670,note_off,142,0,0,,6,,,78,127
80672,note_on,2,0,0,,4,,,64,127
80672,note_on,0,0,0,,7,,,79,127
80813,note_off,141,0,0,,6,,,66,127
80813,note_off,0,0,0,,2,,,62,127
80815,note_off,2,0,0,,7,,,79,127
80815,note_off,0,0,0,,4,,,64,127
80817,note_on,2,0,0,,6,,,54,127
80817,note_on,0,0,0,,2,,,62,127
80817,note_on,0,0,0,,6,,,78,127
80959,note_off,142,0,0,,6,,,78,127
80959,note_off,0,0,0,,2,,,62,127
80961,note_on,2,0,0,,4,,,64,127
80961,note_on,0,0,0,,7,,,79,127
81103,note_off,142,0,0,,7,,,79,127
81103,note_off,0,0,0,,4,,,64,127
81105,note_on,2,0,0,,6,,,66,127
81105,note_on,0,0,0,,10,,,81,127
81247,note_off,142,0,0,,10,,,81,127
81247,note_off,0,0,0,,6,,,66,127
81249,note_on,2,0,0,,4,,,64,127
81249,note_on,0,0,0,,7,,,79,127
81391,note_off,142,0,0,,7,,,79,127
81391,note_off,0,0,0,,4,,,64,127
81393,note_on,2,0,0,,2,,,62,127
81393,note_on,0,0,0,,6,,,78,127
81535,note_off,142,0,0,,6,,,78,127
81535,note_off,0,0,0,,2,,,62,127
81537,note_on,2,0,0,,1,,,61,127
81537,note_on,0,0,0,,4,,,76,127
81597,note_off,60,0,0,,6,,,54,127
81679,note_off,82,0,0,,4,,,76,127
81679,note_off,0,0,0,,1,,,61,127
81681,note_on,2,0,0,,12,,,59,127
81681,note_on,0,0,0,,6,,,54,127
81681,note_on,0,0,0,,2,,,74,127
81823,note_off,142,0,0,,2,,,74,127
81823,note_off,0,0,0,,12,,,59,127
81825,note_on,2,0,0,,10,,,57,127
81825,note_on,0,0,0,,1,,,73,127
81966,note_off,141,0,0,,6,,,54,127
81968,note_off,2,0,0,,1,,,73,127
81968,note_off,0,0,0,,10,,,57,127
81970,note_on,2,0,0,,7,,,55,127
81970,note_on,0,0,0,,12,,,71,127
82112,note_off,142,0,0,,12,,,71,127
82114,note_on,2,0,0,,4,,,76,127
82114,note_on,0,0,0,,7,,,79,127
82256,note_off,142,0,0,,7,,,79,127
82256,note_off,0,0,0,,4,,,76,127
82256,note_off,0,0,0,,7,,,55,127
82258,note_on,2,0,0,,7,,,55,127
82258,note_on,0,0,0,,7,,,43,127
82258,note_on,0,0,0,,10,,,81,127
82258,note_on,0,0,0,,6,,,78,127
82400,note_off,142,0,0,,6,,,78,127
82400,note_off,0,0,0,,10,,,81,127
82402,note_on,2,0,0,,7,,,79,127
82402,note_on,0,0,0,,12,,,83,127
82544,note_off,142,0,0,,12,,,83,127
82544,note_off,0,0,0,,7,,,79,127
82544,note_off,0,0,0,,7,,,43,127
82544,note_off,0,0,0,,7,,,55,127
82546,note_on,2,0,0,,10,,,45,127
82546,note_on,0,0,0,,10,,,57,127
82546,note_on,0,0,0,,10,,,81,127
82546,note_on,0,0,0,,6,,,78,127
82688,note_off,142,0,0,,6,,,78,127
82688,note_off,0,0,0,,10,,,81,127
82690,note_on,2,0,0,,7,,,79,127
82690,note_on,0,0,0,,4,,,76,127
82832,note_off,142,0,0,,4,,,76,127
82832,note_off,0,0,0,,7,,,79,127
82832,note_off,0,0,0,,10,,,57,127
82832,note_off,0,0,0,,10,,,45,127
82834,note_on,2,0,0,,10,,,57,127
82834,note_on,0,0,0,,10,,,45,127
82834,note_on,0,0,0,,2,,,74,127
82834,note_on,0,0,0,,6,,,78,127
82976,note_off,142,0,0,,6,,,78,127
82976,note_off,0,0,0,,2,,,74,127
82978,note_on,2,0,0,,4,,,76,127
82978,note_on,0,0,0,,1,,,73,127
83120,note_off,142,0,0,,1,,,73,127
83120,note_off,0,0,0,,4,,,76,127
83120,note_off,0,0,0,,10,,,45,127
83120,note_off,0,0,0,,10,,,57,127
83122,note_on,2,0,0,,2,,,50,127
83122,note_on,0,0,0,,2,,,38,127
83122,note_on,0,0,0,,2,,,74,127
83362,note_off,240,0,0,,2,,,74,127
83408,note_off,46,0,0,,2,,,38,127
83408,note_off,0,0,0,,2,,,50,127
83410,note_on,2,0,0,,2,,,38,127
83410,note_on,0,0,0,,2,,,50,127
83410,note_on,0,0,0,,6,,,78,127
83410,note_on,0,0,0,,2,,,86,127
83552,note_off,142,0,0,,2,,,86,127
83554,note_on,2,0,0,,4,,,88,127
83696,note_off,142,0,0,,4,,,88,127
83696,note_off,0,0,0,,2,,,50,127
83696,note_off,0,0,0,,2,,,38,127
83698,note_on,2,0,0,,6,,,42,127
83698,note_on,0,0,0,,6,,,54,127
83698,note_on,0,0,0,,2,,,86,127
83840,note_off,142,0,0,,2,,,86,127
83842,note_on,2,0,0,,10,,,81,127
83980,note_off,138,0,0,,6,,,78,127
83984,note_off,4,0,0,,10,,,81,127
83984,note_off,0,0,0,,6,,,54,127
83984,note_off,0,0,0,,6,,,42,127
83986,note_on,2,0,0,,6,,,42,127
83986,note_on,0,0,0,,6,,,54,127
83986,note_on,0,0,0,,2,,,74,127
83986,note_on,0,0,0,,12,,,83,127
84128,note_off,142,0,0,,12,,,83,127
84130,note_on,2,0,0,,1,,,85,127
84272,note_off,142,0,0,,1,,,85,127
84272,note_off,0,0,0,,6,,,54,127
84272,note_off,0,0,0,,6,,,42,127
84274,note_on,2,0,0,,7,,,43,127
84274,note_on,0,0,0,,7,,,55,127
84274,note_on,0,0,0,,12,,,83,127
84406,note_off,132,0,0,,2,,,74,127
84416,note_off,10,0,0,,12,,,83,127
84418,note_on,2,0,0,,7,,,79,127
84418,note_on,0,0,0,,4,,,76,127
84560,note_off,142,0,0,,4,,,76,127
84560,note_off,0,0,0,,7,,,79,127
84560,note_off,0,0,0,,7,,,55,127
84560,note_off,0,0,0,,7,,,43,127
84562,note_on,2,0,0,,7,,,43,127
84562,note_on,0,0,0,,7,,,55,127
84562,note_on,0,0,0,,10,,,81,127
84562,note_on,0,0,0,,6,,,78,127
84704,note_off,142,0,0,,6,,,78,127
84704,note_off,0,0,0,,10,,,81,127
84706,note_on,2,0,0,,7,,,79,127
84706,note_on,0,0,0,,12,,,83,127
84848,note_off,142,0,0,,12,,,83,127
84848,note_off,0,0,0,,7,,,79,127
84848,note_off,0,0,0,,7,,,55,127
84848,note_off,0,0,0,,7,,,43,127
84850,note_on,2,0,0,,10,,,45,127
84850,note_on,0,0,0,,10,,,57,127
84850,note_on,0,0,0,,6,,,78,127
84850,note_on,0,0,0,,10,,,81,127
84992,note_off,142,0,0,,10,,,81,127
84992,note_off,0,0,0,,6,,,78,127
84994,note_on,2,0,0,,4,,,76,127
84994,note_on,0,0,0,,7,,,79,127
85136,note_off,142,0,0,,7,,,79,127
85136,note_off,0,0,0,,4,,,76,127
85136,note_off,0,0,0,,10,,,57,127
85136,note_off,0,0,0,,10,,,45,127
85138,note_on,2,0,0,,10,,,45,127
85138,note_on,0,0,0,,10,,,57,127
85138,note_on,0,0,0,,2,,,74,127
85138,note_on,0,0,0,,6,,,78,127
85280,note_off,142,0,0,,6,,,78,127
85280,note_off,0,0,0,,2,,,74,127
85282,note_on,2,0,0,,4,,,76,127
85282,note_on,0,0,0,,1,,,73,127
85424,note_off,142,0,0,,1,,,73,127
85424,note_off,0,0,0,,4,,,76,127
85424,note_off,0,0,0,,10,,,57,127
85424,note_off,0,0,0,,10,,,45,127
85426,note_on,2,0,0,,2,,,50,127
85426,note_on,0,0,0,,2,,,38,127
85426,note_on,0,0,0,,2,,,74,127
85712,note_off,286,0,0,,2,,,74,127
85712,note_off,0,0,0,,2,,,38,127
85712,note_off,0,0,0,,2,,,50,127
85714,note_on,2,0,0,,2,,,74,127
85714,note_on,0,0,0,,6,,,66,127
85714,note_on,0,0,0,,2,,,38,127
85714,note_on,0,0,0,,2,,,50,127
85856,note_off,142,0,0,,2,,,74,127
85860,note_on,4,0,0,,4,,,76,127
86001,note_off,141,0,0,,2,,,50,127
86001,note_off,0,0,0,,2,,,38,127
86003,note_off,2,0,0,,4,,,76,127
86007,note_on,4,0,0,,2,,,74,127
86007,note_on,0,0,0,,6,,,54,127
86007,note_on,0,0,0,,6,,,42,127
86149,note_off,142,0,0,,2,,,74,127
86153,note_on,4,0,0,,10,,,69,127
86287,note_off,134,0,0,,6,,,66,127
86295,note_off,8,0,0,,6,,,42,127
86295,note_off,0,0,0,,6,,,54,127
86297,note_off,2,0,0,,10,,,69,127
86301,note_on,4,0,0,,12,,,71,127
86301,note_on,0,0,0,,2,,,62,127
86301,note_on,0,0,0,,6,,,54,127
86301,note_on,0,0,0,,6,,,42,127
86443,note_off,142,0,0,,12,,,71,127
86446,note_on,3,0,0,,1,,,73,127
86588,note_off,142,0,0,,1,,,73,127
86588,note_off,0,0,0,,6,,,42,127
86588,note_off,0,0,0,,6,,,54,127
86592,note_on,4,0,0,,12,,,71,127
86592,note_on,0,0,0,,7,,,55,127
86592,note_on,0,0,0,,7,,,43,127
86722,note_off,130,0,0,,2,,,62,127
86734,note_off,12,0,0,,12,,,71,127
86738,note_on,4,0,0,,7,,,67,127
86738,note_on,0,0,0,,4,,,64,127
86879,note_off,141,0,0,,7,,,43,127
86879,note_off,0,0,0,,7,,,55,127
86881,note_off,2,0,0,,4,,,64,127
86881,note_off,0,0,0,,7,,,67,127
86885,note_on,4,0,0,,10,,,69,127
86885,note_on,0,0,0,,6,,,66,127
86885,note_on,0,0,0,,7,,,43,127
86885,note_on,0,0,0,,7,,,55,127
87027,note_off,142,0,0,,6,,,66,127
87027,note_off,0,0,0,,10,,,69,127
87031,note_on,4,0,0,,12,,,71,127
87031,note_on,0,0,0,,7,,,67,127
87172,note_off,141,0,0,,7,,,55,127
87172,note_off,0,0,0,,7,,,43,127
87174,note_off,2,0,0,,7,,,67,127
87174,note_off,0,0,0,,12,,,71,127
87178,note_on,4,0,0,,10,,,69,127
87178,note_on,0,0,0,,6,,,66,127
87178,note_on,0,0,0,,10,,,45,127
87178,note_on,0,0,0,,10,,,57,127
87320,note_off,142,0,0,,6,,,66,127
87320,note_off,0,0,0,,10,,,69,127
87324,note_on,4,0,0,,4,,,64,127
87324,note_on,0,0,0,,7,,,67,127
87465,note_off,141,0,0,,10,,,57,127
87465,note_off,0,0,0,,10,,,45,127
87467,note_off,2,0,0,,7,,,67,127
87467,note_off,0,0,0,,4,,,64,127
87471,note_on,4,0,0,,2,,,62,127
87471,note_on,0,0,0,,6,,,66,127
87471,note_on,0,0,0,,10,,,45,127
87471,note_on,0,0,0,,10,,,57,127
87613,note_off,142,0,0,,6,,,66,127
87613,note_off,0,0,0,,2,,,62,127
87617,note_on,4,0,0,,1,,,61,127
87617,note_on,0,0,0,,4,,,64,127
87758,note_off,141,0,0,,10,,,57,127
87758,note_off,0,0,0,,10,,,45,127
87760,note_off,2,0,0,,4,,,64,127
87760,note_off,0,0,0,,1,,,61,127
87764,note_on,4,0,0,,4,,,64,127
87764,note_on,0,0,0,,2,,,38,127
87764,note_on,0,0,0,,2,,,50,127
87810,note_off,46,0,0,,4,,,64,127
87812,note_on,2,0,0,,2,,,62,127
87858,note_off,46,0,0,,2,,,62,127
87861,note_on,3,0,0,,4,,,64,127
87907,note_off,46,0,0,,4,,,64,127
87910,note_on,3,0,0,,2,,,62,127
89882,note_off,1972,0,0,,2,,,62,127
89882,note_off,0,0,0,,2,,,50,127
89882,note_off,0,0,0,,2,,,38,127
90624,end_of_track,742,1,0,,,,,,
