tick,type,time,meta,track,program,channel,pitch,tempo,note,velocity
0,copyright,0,1,0,,,,,,
0,program_change,0,0,0,6,0,,,,
0,pitchwheel,0,0,0,,0,0,,,
0,program_change,0,0,0,6,1,,,,
0,pitchwheel,0,0,0,,1,-590,,,
0,program_change,0,0,0,6,2,,,,
0,pitchwheel,0,0,0,,2,-272,,,
0,program_change,0,0,0,6,3,,,,
0,pitchwheel,0,0,0,,3,-353,,,
0,program_change,0,0,0,6,4,,,,
0,pitchwheel,0,0,0,,4,-560,,,
0,program_change,0,0,0,6,5,,,,
0,pitchwheel,0,0,0,,5,-80,,,
0,program_change,0,0,0,6,6,,,,
0,pitchwheel,0,0,0,,6,-625,,,
0,program_change,0,0,0,6,7,,,,
0,pitchwheel,0,0,0,,7,-130,,,
0,program_change,0,0,0,6,8,,,,
0,pitchwheel,0,0,0,,8,-512,,,
0,program_change,0,0,0,6,10,,,,
0,pitchwheel,0,0,0,,10,-464,,,
0,program_change,0,0,0,6,11,,,,
0,pitchwheel,0,0,0,,11,-208,,,
0,program_change,0,0,0,6,12,,,,
0,pitchwheel,0,0,0,,12,-553,,,
0,set_tempo,0,1,0,,,,500000,,
140,note_on,140,0,0,,0,,,72,127
700,note_off,560,0,0,,0,,,72,127
701,note_on,1,0,0,,10,,,69,127
1261,note_off,560,0,0,,10,,,69,127
1262,note_on,1,0,0,,5,,,65,127
1540,note_off,278,0,0,,5,,,65,127
1543,note_on,3,0,0,,2,,,62,127
1823,note_off,280,0,0,,2,,,62,127
1824,note_on,1,0,0,,11,,,58,127
2104,note_off,280,0,0,,11,,,58,127
2105,note_on,1,0,0,,7,,,55,127
2385,note_off,280,0,0,,7,,,55,127
2386,note_on,1,0,0,,4,,,52,127
2666,note_off,280,0,0,,4,,,52,127
2667,note_on,1,0,0,,0,,,48,127
2947,note_off,280,0,0,,0,,,48,127
2948,note_on,1,0,0,,0,,,60,127
2948,note_on,0,0,0,,5,,,77,127
3017,note_off,69,0,0,,5,,,77,127
3017,note_off,0,0,0,,0,,,60,127
3018,note_on,1,0,0,,4,,,76,127
3018,note_on,0,0,0,,11,,,58,127
3087,note_off,69,0,0,,11,,,58,127
3087,note_off,0,0,0,,4,,,76,127
3088,note_on,1,0,0,,5,,,77,127
3088,note_on,0,0,0,,0,,,60,127
3157,note_off,69,0,0,,0,,,60,127
3157,note_off,0,0,0,,5,,,77,127
3158,note_on,1,0,0,,4,,,76,127
3158,note_on,0,0,0,,11,,,58,127
3227,note_off,69,0,0,,11,,,58,127
3227,note_off,0,0,0,,4,,,76,127
3228,note_on,1,0,0,,5,,,77,127
3228,note_on,0,0,0,,0,,,60,127
3297,note_off,69,0,0,,0,,,60,127
3297,note_off,0,0,0,,5,,,77,127
3298,note_on,1,0,0,,4,,,76,127
3298,note_on,0,0,0,,11,,,58,127
3367,note_off,69,0,0,,11,,,58,127
3367,note_off,0,0,0,,4,,,76,127
3368,note_on,1,0,0,,2,,,74,127
3368,note_on,0,0,0,,0,,,60,127
3437,note_off,69,0,0,,0,,,60,127
3437,note_off,0,0,0,,2,,,74,127
3438,note_on,1,0,0,,4,,,76,127
3438,note_on,0,0,0,,11,,,58,127
3507,note_off,69,0,0,,11,,,58,127
3507,note_off,0,0,0,,4,,,76,127
3508,note_on,1,0,0,,10,,,57,127
3508,note_on,0,0,0,,5,,,77,127
3788,note_off,280,0,0,,5,,,77,127
3789,note_on,1,0,0,,5,,,65,127
3789,note_on,0,0,0,,0,,,72,127
4064,note_off,275,0,0,,10,,,57,127
4070,note_on,6,0,0,,11,,,58,127
4279,note_off,209,0,0,,0,,,72,127
4345,note_off,66,0,0,,5,,,65,127
4351,note_on,6,0,0,,11,,,70,127
4351,note_on,0,0,0,,2,,,74,127
4626,note_off,275,0,0,,11,,,58,127
4630,note_off,4,0,0,,2,,,74,127
4631,note_on,1,0,0,,0,,,60,127
4631,note_on,0,0,0,,2,,,74,127
4906,note_off,275,0,0,,11,,,70,127
4910,note_off,4,0,0,,2,,,74,127
4911,note_on,1,0,0,,10,,,69,127
4911,note_on,0,0,0,,0,,,72,127
5191,note_off,280,0,0,,0,,,72,127
5191,note_off,0,0,0,,10,,,69,127
5192,note_on,1,0,0,,7,,,67,127
5192,note_on,0,0,0,,0,,,72,127
5284,note_off,92,0,0,,0,,,72,127
5285,note_on,1,0,0,,11,,,70,127
5377,note_off,92,0,0,,11,,,70,127
5378,note_on,1,0,0,,0,,,72,127
5470,note_off,92,0,0,,0,,,72,127
5470,note_off,0,0,0,,7,,,67,127
5471,note_on,1,0,0,,4,,,64,127
5471,note_on,0,0,0,,11,,,70,127
5563,note_off,92,0,0,,11,,,70,127
5564,note_on,1,0,0,,10,,,69,127
5656,note_off,92,0,0,,10,,,69,127
5657,note_on,1,0,0,,11,,,70,127
5749,note_off,92,0,0,,11,,,70,127
5749,note_off,0,0,0,,4,,,64,127
5749,note_off,0,0,0,,0,,,60,127
5750,note_on,1,0,0,,5,,,65,127
5750,note_on,0,0,0,,10,,,69,127
6028,note_off,278,0,0,,5,,,65,127
6029,note_off,1,0,0,,10,,,69,127
6030,note_on,1,0,0,,5,,,53,127
6030,note_on,0,0,0,,5,,,65,127
6310,note_off,280,0,0,,5,,,65,127
6310,note_off,0,0,0,,5,,,53,127
6311,note_on,1,0,0,,11,,,58,127
6311,note_on,0,0,0,,4,,,76,127
6591,note_off,280,0,0,,4,,,76,127
6592,note_on,1,0,0,,11,,,70,127
6592,note_on,0,0,0,,2,,,74,127
6867,note_off,275,0,0,,11,,,58,127
6871,note_off,4,0,0,,2,,,74,127
6872,note_on,1,0,0,,0,,,60,127
6872,note_on,0,0,0,,2,,,74,127
7147,note_off,275,0,0,,11,,,70,127
7151,note_off,4,0,0,,2,,,74,127
7152,note_on,1,0,0,,10,,,69,127
7152,note_on,0,0,0,,0,,,72,127
7432,note_off,280,0,0,,10,,,69,127
7433,note_on,1,0,0,,7,,,67,127
7518,note_off,85,0,0,,0,,,72,127
7527,note_on,9,0,0,,11,,,70,127
7619,note_off,92,0,0,,11,,,70,127
7620,note_on,1,0,0,,0,,,72,127
7712,note_off,92,0,0,,0,,,72,127
7712,note_off,0,0,0,,7,,,67,127
7713,note_on,1,0,0,,4,,,64,127
7713,note_on,0,0,0,,11,,,70,127
7805,note_off,92,0,0,,11,,,70,127
7806,note_on,1,0,0,,10,,,69,127
7898,note_off,92,0,0,,10,,,69,127
7899,note_on,1,0,0,,11,,,70,127
7991,note_off,92,0,0,,11,,,70,127
7991,note_off,0,0,0,,4,,,64,127
7991,note_off,0,0,0,,0,,,60,127
7992,note_on,1,0,0,,5,,,53,127
7992,note_on,0,0,0,,5,,,65,127
7992,note_on,0,0,0,,10,,,69,127
8270,note_off,278,0,0,,5,,,65,127
8270,note_off,0,0,0,,5,,,53,127
8271,note_off,1,0,0,,10,,,69,127
8272,note_on,1,0,0,,0,,,84,127
8341,note_off,69,0,0,,0,,,84,127
8342,note_on,1,0,0,,11,,,82,127
8411,note_off,69,0,0,,11,,,82,127
8412,note_on,1,0,0,,10,,,81,127
8481,note_off,69,0,0,,10,,,81,127
8482,note_on,1,0,0,,7,,,79,127
8551,note_off,69,0,0,,7,,,79,127
8552,note_on,1,0,0,,5,,,77,127
8832,note_off,280,0,0,,5,,,77,127
8833,note_on,1,0,0,,0,,,72,127
8833,note_on,0,0,0,,4,,,76,127
8902,note_off,69,0,0,,0,,,72,127
8903,note_on,1,0,0,,11,,,70,127
8972,note_off,69,0,0,,11,,,70,127
8973,note_on,1,0,0,,10,,,69,127
9042,note_off,69,0,0,,10,,,69,127
9043,note_on,1,0,0,,7,,,67,127
9112,note_off,69,0,0,,7,,,67,127
9112,note_off,0,0,0,,4,,,76,127
9113,note_on,1,0,0,,5,,,65,127
9113,note_on,0,0,0,,5,,,77,127
9253,note_on,140,0,0,,0,,,72,127
9288,note_off,35,0,0,,5,,,77,127
9392,note_off,104,0,0,,0,,,72,127
9392,note_off,0,0,0,,5,,,65,127
9393,note_on,1,0,0,,0,,,60,127
9393,note_on,0,0,0,,7,,,79,127
9533,note_on,140,0,0,,0,,,72,127
9568,note_off,35,0,0,,7,,,79,127
9672,note_off,104,0,0,,0,,,72,127
9672,note_off,0,0,0,,0,,,60,127
9673,note_on,1,0,0,,5,,,53,127
9673,note_on,0,0,0,,10,,,81,127
9813,note_on,140,0,0,,0,,,72,127
9848,note_off,35,0,0,,10,,,81,127
9952,note_off,104,0,0,,0,,,72,127
9952,note_off,0,0,0,,5,,,53,127
9953,note_on,1,0,0,,0,,,48,127
9953,note_on,0,0,0,,11,,,82,127
10092,note_off,139,0,0,,11,,,82,127
10093,note_on,1,0,0,,0,,,72,127
10232,note_off,139,0,0,,0,,,72,127
10232,note_off,0,0,0,,0,,,48,127
10233,note_on,1,0,0,,5,,,41,127
10233,note_on,0,0,0,,10,,,81,127
10511,note_off,278,0,0,,5,,,41,127
10512,note_off,1,0,0,,10,,,81,127
10513,note_on,1,0,0,,10,,,81,127
10582,note_off,69,0,0,,10,,,81,127
10583,note_on,1,0,0,,7,,,79,127
10652,note_off,69,0,0,,7,,,79,127
10653,note_on,1,0,0,,5,,,77,127
10722,note_off,69,0,0,,5,,,77,127
10723,note_on,1,0,0,,4,,,76,127
10792,note_off,69,0,0,,4,,,76,127
10793,note_on,1,0,0,,2,,,74,127
11073,note_off,280,0,0,,2,,,74,127
11074,note_on,1,0,0,,10,,,69,127
11074,note_on,0,0,0,,1,,,73,127
11143,note_off,69,0,0,,10,,,69,127
11144,note_on,1,0,0,,7,,,67,127
11213,note_off,69,0,0,,7,,,67,127
11214,note_on,1,0,0,,5,,,65,127
11283,note_off,69,0,0,,5,,,65,127
11284,note_on,1,0,0,,4,,,64,127
11353,note_off,69,0,0,,4,,,64,127
11353,note_off,0,0,0,,1,,,73,127
11354,note_on,1,0,0,,2,,,62,127
11354,note_on,0,0,0,,2,,,74,127
11494,note_on,140,0,0,,10,,,69,127
11529,note_off,35,0,0,,2,,,74,127
11633,note_off,104,0,0,,10,,,69,127
11633,note_off,0,0,0,,2,,,62,127
11634,note_on,1,0,0,,10,,,57,127
11634,note_on,0,0,0,,4,,,76,127
11774,note_on,140,0,0,,10,,,69,127
11809,note_off,35,0,0,,4,,,76,127
11913,note_off,104,0,0,,10,,,69,127
11913,note_off,0,0,0,,10,,,57,127
11914,note_on,1,0,0,,2,,,50,127
11914,note_on,0,0,0,,5,,,77,127
12054,note_on,140,0,0,,10,,,69,127
12089,note_off,35,0,0,,5,,,77,127
12193,note_off,104,0,0,,10,,,69,127
12193,note_off,0,0,0,,2,,,50,127
12194,note_on,1,0,0,,10,,,45,127
12194,note_on,0,0,0,,7,,,79,127
12333,note_off,139,0,0,,7,,,79,127
12334,note_on,1,0,0,,10,,,69,127
12473,note_off,139,0,0,,10,,,69,127
12473,note_off,0,0,0,,10,,,45,127
12474,note_on,1,0,0,,2,,,38,127
12474,note_on,0,0,0,,5,,,77,127
12752,note_off,278,0,0,,2,,,38,127
12753,note_off,1,0,0,,5,,,77,127
12754,note_on,1,0,0,,5,,,77,127
12893,note_off,139,0,0,,5,,,77,127
12894,note_on,1,0,0,,7,,,79,127
13033,note_off,139,0,0,,7,,,79,127
13034,note_on,1,0,0,,5,,,77,127
13173,note_off,139,0,0,,5,,,77,127
13174,note_on,1,0,0,,4,,,76,127
13313,note_off,139,0,0,,4,,,76,127
13314,note_on,1,0,0,,7,,,67,127
13314,note_on,0,0,0,,2,,,74,127
13453,note_off,139,0,0,,2,,,74,127
13453,note_off,0,0,0,,7,,,67,127
13454,note_on,1,0,0,,10,,,69,127
13454,note_on,0,0,0,,0,,,72,127
13593,note_off,139,0,0,,0,,,72,127
13593,note_off,0,0,0,,10,,,69,127
13594,note_on,1,0,0,,7,,,67,127
13594,note_on,0,0,0,,11,,,70,127
13733,note_off,139,0,0,,7,,,67,127
13734,note_on,1,0,0,,5,,,65,127
13842,note_off,108,0,0,,11,,,70,127
13873,note_off,31,0,0,,5,,,65,127
13874,note_on,1,0,0,,4,,,64,127
13874,note_on,0,0,0,,4,,,76,127
14013,note_off,139,0,0,,4,,,76,127
14013,note_off,0,0,0,,4,,,64,127
14014,note_on,1,0,0,,2,,,62,127
14014,note_on,0,0,0,,5,,,77,127
14153,note_off,139,0,0,,5,,,77,127
14153,note_off,0,0,0,,2,,,62,127
14154,note_on,1,0,0,,0,,,60,127
14154,note_on,0,0,0,,4,,,76,127
14293,note_off,139,0,0,,4,,,76,127
14294,note_on,1,0,0,,2,,,74,127
14433,note_off,139,0,0,,2,,,74,127
14433,note_off,0,0,0,,0,,,60,127
14434,note_on,1,0,0,,5,,,65,127
14434,note_on,0,0,0,,0,,,72,127
14573,note_off,139,0,0,,0,,,72,127
14573,note_off,0,0,0,,5,,,65,127
14574,note_on,1,0,0,,7,,,67,127
14574,note_on,0,0,0,,11,,,70,127
14713,note_off,139,0,0,,11,,,70,127
14713,note_off,0,0,0,,7,,,67,127
14714,note_on,1,0,0,,5,,,65,127
14714,note_on,0,0,0,,10,,,69,127
14853,note_off,139,0,0,,5,,,65,127
14854,note_on,1,0,0,,4,,,64,127
14977,note_off,123,0,0,,10,,,69,127
14993,note_off,16,0,0,,4,,,64,127
14994,note_on,1,0,0,,2,,,62,127
14994,note_on,0,0,0,,2,,,74,127
15133,note_off,139,0,0,,2,,,74,127
15133,note_off,0,0,0,,2,,,62,127
15134,note_on,1,0,0,,0,,,60,127
15134,note_on,0,0,0,,4,,,76,127
15273,note_off,139,0,0,,4,,,76,127
15273,note_off,0,0,0,,0,,,60,127
15274,note_on,1,0,0,,11,,,58,127
15274,note_on,0,0,0,,2,,,74,127
15413,note_off,139,0,0,,2,,,74,127
15414,note_on,1,0,0,,0,,,72,127
15553,note_off,139,0,0,,0,,,72,127
15554,note_on,1,0,0,,11,,,70,127
15693,note_off,139,0,0,,11,,,70,127
15694,note_on,1,0,0,,10,,,69,127
15833,note_off,139,0,0,,10,,,69,127
15833,note_off,0,0,0,,11,,,58,127
15834,note_on,1,0,0,,11,,,58,127
15834,note_on,0,0,0,,7,,,67,127
15966,note_off,132,0,0,,7,,,67,127
15973,note_off,7,0,0,,11,,,58,127
15974,note_on,1,0,0,,7,,,67,127
16113,note_off,139,0,0,,7,,,67,127
16114,note_on,1,0,0,,10,,,57,127
16114,note_on,0,0,0,,10,,,69,127
16253,note_off,139,0,0,,10,,,57,127
16254,note_on,1,0,0,,5,,,65,127
16393,note_off,139,0,0,,5,,,65,127
16393,note_off,0,0,0,,10,,,69,127
16394,note_on,1,0,0,,7,,,55,127
16394,note_on,0,0,0,,11,,,70,127
16533,note_off,139,0,0,,7,,,55,127
16534,note_on,1,0,0,,4,,,64,127
16673,note_off,139,0,0,,4,,,64,127
16673,note_off,0,0,0,,11,,,70,127
16674,note_on,1,0,0,,5,,,53,127
16674,note_on,0,0,0,,10,,,69,127
16813,note_off,139,0,0,,5,,,53,127
16814,note_on,1,0,0,,5,,,65,127
16953,note_off,139,0,0,,5,,,65,127
16953,note_off,0,0,0,,10,,,69,127
16954,note_on,1,0,0,,11,,,58,127
16954,note_on,0,0,0,,2,,,74,127
17093,note_off,139,0,0,,11,,,58,127
17094,note_on,1,0,0,,4,,,64,127
17233,note_off,139,0,0,,4,,,64,127
17233,note_off,0,0,0,,2,,,74,127
17234,note_on,1,0,0,,10,,,57,127
17234,note_on,0,0,0,,0,,,72,127
17373,note_off,139,0,0,,10,,,57,127
17374,note_on,1,0,0,,5,,,65,127
17513,note_off,139,0,0,,5,,,65,127
17513,note_off,0,0,0,,0,,,72,127
17514,note_on,1,0,0,,7,,,55,127
17514,note_on,0,0,0,,11,,,70,127
17653,note_off,139,0,0,,7,,,55,127
17654,note_on,1,0,0,,4,,,64,127
17793,note_off,139,0,0,,4,,,64,127
17793,note_off,0,0,0,,11,,,70,127
17794,note_on,1,0,0,,5,,,53,127
17794,note_on,0,0,0,,10,,,69,127
17933,note_off,139,0,0,,5,,,53,127
17934,note_on,1,0,0,,5,,,65,127
18073,note_off,139,0,0,,5,,,65,127
18073,note_off,0,0,0,,10,,,69,127
18074,note_on,1,0,0,,0,,,60,127
18074,note_on,0,0,0,,0,,,48,127
18074,note_on,0,0,0,,7,,,67,127
18206,note_off,132,0,0,,7,,,67,127
18215,note_on,9,0,0,,0,,,72,127
18354,note_off,139,0,0,,0,,,48,127
18355,note_on,1,0,0,,5,,,53,127
18355,note_on,0,0,0,,10,,,57,127
18495,note_on,140,0,0,,10,,,69,127
18495,note_on,0,0,0,,5,,,65,127
18634,note_off,139,0,0,,5,,,65,127
18634,note_off,0,0,0,,10,,,69,127
18634,note_off,0,0,0,,10,,,57,127
18634,note_off,0,0,0,,5,,,53,127
18635,note_on,1,0,0,,4,,,52,127
18635,note_on,0,0,0,,7,,,55,127
18635,note_on,0,0,0,,7,,,67,127
18635,note_on,0,0,0,,4,,,64,127
18704,note_off,69,0,0,,4,,,64,127
18704,note_off,0,0,0,,7,,,67,127
18705,note_on,1,0,0,,5,,,65,127
18705,note_on,0,0,0,,10,,,69,127
18711,note_off,6,0,0,,0,,,72,127
18774,note_off,63,0,0,,10,,,69,127
18774,note_off,0,0,0,,5,,,65,127
18775,note_on,1,0,0,,11,,,70,127
18775,note_on,0,0,0,,7,,,67,127
18914,note_off,139,0,0,,7,,,55,127
18914,note_off,0,0,0,,4,,,52,127
18915,note_on,1,0,0,,5,,,53,127
18915,note_on,0,0,0,,10,,,57,127
19054,note_off,139,0,0,,7,,,67,127
19054,note_off,0,0,0,,11,,,70,127
19055,note_on,1,0,0,,10,,,69,127
19055,note_on,0,0,0,,5,,,65,127
19194,note_off,139,0,0,,5,,,65,127
19194,note_off,0,0,0,,10,,,69,127
19194,note_off,0,0,0,,10,,,57,127
19194,note_off,0,0,0,,5,,,53,127
19194,note_off,0,0,0,,0,,,60,127
19195,note_on,1,0,0,,0,,,48,127
19195,note_on,0,0,0,,7,,,55,127
19195,note_on,0,0,0,,0,,,60,127
19195,note_on,0,0,0,,7,,,67,127
19195,note_on,0,0,0,,4,,,64,127
19334,note_off,139,0,0,,4,,,64,127
19334,note_off,0,0,0,,7,,,67,127
19335,note_on,1,0,0,,0,,,72,127
19474,note_off,139,0,0,,7,,,55,127
19474,note_off,0,0,0,,0,,,48,127
19475,note_on,1,0,0,,10,,,57,127
19475,note_on,0,0,0,,5,,,53,127
19615,note_on,140,0,0,,5,,,65,127
19615,note_on,0,0,0,,10,,,69,127
19754,note_off,139,0,0,,10,,,69,127
19754,note_off,0,0,0,,5,,,65,127
19754,note_off,0,0,0,,5,,,53,127
19754,note_off,0,0,0,,10,,,57,127
19755,note_on,1,0,0,,7,,,55,127
19755,note_on,0,0,0,,4,,,52,127
19755,note_on,0,0,0,,7,,,67,127
19755,note_on,0,0,0,,4,,,64,127
19824,note_off,69,0,0,,4,,,64,127
19824,note_off,0,0,0,,7,,,67,127
19825,note_on,1,0,0,,5,,,65,127
19825,note_on,0,0,0,,10,,,69,127
19831,note_off,6,0,0,,0,,,72,127
19894,note_off,63,0,0,,10,,,69,127
19894,note_off,0,0,0,,5,,,65,127
19895,note_on,1,0,0,,11,,,70,127
19895,note_on,0,0,0,,7,,,67,127
20034,note_off,139,0,0,,4,,,52,127
20034,note_off,0,0,0,,7,,,55,127
20035,note_on,1,0,0,,10,,,57,127
20035,note_on,0,0,0,,5,,,53,127
20174,note_off,139,0,0,,7,,,67,127
20174,note_off,0,0,0,,11,,,70,127
20175,note_on,1,0,0,,10,,,69,127
20175,note_on,0,0,0,,5,,,65,127
20314,note_off,139,0,0,,5,,,65,127
20314,note_off,0,0,0,,10,,,69,127
20314,note_off,0,0,0,,5,,,53,127
20314,note_off,0,0,0,,10,,,57,127
20314,note_off,0,0,0,,0,,,60,127
20315,note_on,1,0,0,,0,,,48,127
20315,note_on,0,0,0,,0,,,60,127
20315,note_on,0,0,0,,7,,,55,127
20315,note_on,0,0,0,,7,,,67,127
20315,note_on,0,0,0,,4,,,64,127
20454,note_off,139,0,0,,4,,,64,127
20454,note_off,0,0,0,,7,,,67,127
20455,note_on,1,0,0,,0,,,72,127
20593,note_off,138,0,0,,7,,,55,127
20593,note_off,0,0,0,,0,,,60,127
20593,note_off,0,0,0,,0,,,48,127
20594,note_off,1,0,0,,0,,,72,127
20595,note_on,1,0,0,,12,,,71,127
20734,note_off,139,0,0,,12,,,71,127
20735,note_on,1,0,0,,0,,,60,127
20735,note_on,0,0,0,,0,,,72,127
20874,note_off,139,0,0,,0,,,72,127
20874,note_off,0,0,0,,0,,,60,127
20875,note_on,1,0,0,,12,,,59,127
20875,note_on,0,0,0,,2,,,74,127
21014,note_off,139,0,0,,2,,,74,127
21014,note_off,0,0,0,,12,,,59,127
21015,note_on,1,0,0,,0,,,60,127
21015,note_on,0,0,0,,4,,,76,127
21154,note_off,139,0,0,,4,,,76,127
21154,note_off,0,0,0,,0,,,60,127
21155,note_on,1,0,0,,2,,,62,127
21155,note_on,0,0,0,,5,,,77,127
21294,note_off,139,0,0,,5,,,77,127
21294,note_off,0,0,0,,2,,,62,127
21295,note_on,1,0,0,,4,,,64,127
21295,note_on,0,0,0,,7,,,79,127
21434,note_off,139,0,0,,7,,,79,127
21434,note_off,0,0,0,,4,,,64,127
21435,note_on,1,0,0,,5,,,65,127
21435,note_on,0,0,0,,10,,,81,127
21574,note_off,139,0,0,,10,,,81,127
21574,note_off,0,0,0,,5,,,65,127
21575,note_on,1,0,0,,7,,,67,127
21575,note_on,0,0,0,,12,,,83,127
21714,note_off,139,0,0,,12,,,83,127
21714,note_off,0,0,0,,7,,,67,127
21715,note_on,1,0,0,,10,,,69,127
21715,note_on,0,0,0,,0,,,84,127
21839,note_off,124,0,0,,0,,,84,127
21854,note_off,15,0,0,,10,,,69,127
21855,note_on,1,0,0,,12,,,71,127
21855,note_on,0,0,0,,5,,,77,127
21994,note_off,139,0,0,,12,,,71,127
21995,note_on,1,0,0,,0,,,72,127
22134,note_off,139,0,0,,5,,,77,127
22135,note_on,1,0,0,,4,,,76,127
22274,note_off,139,0,0,,4,,,76,127
22274,note_off,0,0,0,,0,,,72,127
22275,note_on,1,0,0,,10,,,69,127
22275,note_on,0,0,0,,2,,,74,127
22414,note_off,139,0,0,,2,,,74,127
22415,note_on,1,0,0,,0,,,72,127
22554,note_off,139,0,0,,0,,,72,127
22554,note_off,0,0,0,,10,,,69,127
22555,note_on,1,0,0,,7,,,67,127
22555,note_on,0,0,0,,2,,,74,127
22694,note_off,139,0,0,,2,,,74,127
22695,note_on,1,0,0,,0,,,72,127
22833,note_off,138,0,0,,7,,,67,127
22834,note_off,1,0,0,,0,,,72,127
22835,note_on,1,0,0,,12,,,71,127
22974,note_off,139,0,0,,12,,,71,127
22975,note_on,1,0,0,,0,,,60,127
22975,note_on,0,0,0,,0,,,72,127
23114,note_off,139,0,0,,0,,,72,127
23114,note_off,0,0,0,,0,,,60,127
23115,note_on,1,0,0,,12,,,59,127
23115,note_on,0,0,0,,2,,,74,127
23254,note_off,139,0,0,,2,,,74,127
23254,note_off,0,0,0,,12,,,59,127
23255,note_on,1,0,0,,0,,,60,127
23255,note_on,0,0,0,,4,,,76,127
23394,note_off,139,0,0,,4,,,76,127
23394,note_off,0,0,0,,0,,,60,127
23395,note_on,1,0,0,,2,,,62,127
23395,note_on,0,0,0,,5,,,77,127
23534,note_off,139,0,0,,5,,,77,127
23534,note_off,0,0,0,,2,,,62,127
23535,note_on,1,0,0,,4,,,64,127
23535,note_on,0,0,0,,7,,,79,127
23674,note_off,139,0,0,,7,,,79,127
23674,note_off,0,0,0,,4,,,64,127
23675,note_on,1,0,0,,5,,,65,127
23675,note_on,0,0,0,,10,,,81,127
23814,note_off,139,0,0,,10,,,81,127
23814,note_off,0,0,0,,5,,,65,127
23815,note_on,1,0,0,,7,,,67,127
23815,note_on,0,0,0,,12,,,83,127
23954,note_off,139,0,0,,12,,,83,127
23954,note_off,0,0,0,,7,,,67,127
23955,note_on,1,0,0,,10,,,69,127
23955,note_on,0,0,0,,0,,,84,127
24074,note_off,119,0,0,,0,,,84,127
24094,note_off,20,0,0,,10,,,69,127
24095,note_on,1,0,0,,12,,,71,127
24095,note_on,0,0,0,,5,,,77,127
24234,note_off,139,0,0,,12,,,71,127
24235,note_on,1,0,0,,0,,,72,127
24374,note_off,139,0,0,,5,,,77,127
24375,note_on,1,0,0,,4,,,76,127
24514,note_off,139,0,0,,4,,,76,127
24514,note_off,0,0,0,,0,,,72,127
24515,note_on,1,0,0,,10,,,69,127
24515,note_on,0,0,0,,2,,,74,127
24654,note_off,139,0,0,,2,,,74,127
24655,note_on,1,0,0,,0,,,72,127
24794,note_off,139,0,0,,0,,,72,127
24794,note_off,0,0,0,,10,,,69,127
24795,note_on,1,0,0,,7,,,67,127
24795,note_on,0,0,0,,2,,,74,127
24934,note_off,139,0,0,,7,,,67,127
24935,note_on,1,0,0,,2,,,62,127
25073,note_off,138,0,0,,2,,,74,127
25074,note_off,1,0,0,,2,,,62,127
25075,note_on,1,0,0,,12,,,59,127
25214,note_off,139,0,0,,12,,,59,127
25215,note_on,1,0,0,,7,,,55,127
25354,note_off,139,0,0,,7,,,55,127
25355,note_on,1,0,0,,2,,,62,127
25495,note_on,140,0,0,,7,,,67,127
25564,note_off,69,0,0,,7,,,67,127
25565,note_on,1,0,0,,5,,,65,127
25634,note_off,69,0,0,,5,,,65,127
25634,note_off,0,0,0,,2,,,62,127
25635,note_on,1,0,0,,0,,,60,127
25635,note_on,0,0,0,,7,,,67,127
25704,note_off,69,0,0,,7,,,67,127
25705,note_on,1,0,0,,5,,,65,127
25774,note_off,69,0,0,,5,,,65,127
25774,note_off,0,0,0,,0,,,60,127
25775,note_on,1,0,0,,12,,,59,127
25775,note_on,0,0,0,,4,,,64,127
25844,note_off,69,0,0,,4,,,64,127
25845,note_on,1,0,0,,2,,,62,127
25914,note_off,69,0,0,,2,,,62,127
25914,note_off,0,0,0,,12,,,59,127
25915,note_on,1,0,0,,0,,,60,127
25915,note_on,0,0,0,,4,,,64,127
26054,note_off,139,0,0,,0,,,60,127
26055,note_on,1,0,0,,7,,,67,127
26193,note_off,138,0,0,,4,,,64,127
26194,note_off,1,0,0,,7,,,67,127
26195,note_on,1,0,0,,4,,,64,127
26334,note_off,139,0,0,,4,,,64,127
26335,note_on,1,0,0,,0,,,60,127
26474,note_off,139,0,0,,0,,,60,127
26475,note_on,1,0,0,,7,,,67,127
26615,note_on,140,0,0,,0,,,72,127
26684,note_off,69,0,0,,0,,,72,127
26685,note_on,1,0,0,,11,,,70,127
26754,note_off,69,0,0,,11,,,70,127
26754,note_off,0,0,0,,7,,,67,127
26755,note_on,1,0,0,,5,,,65,127
26755,note_on,0,0,0,,0,,,72,127
26824,note_off,69,0,0,,0,,,72,127
26825,note_on,1,0,0,,11,,,70,127
26894,note_off,69,0,0,,11,,,70,127
26894,note_off,0,0,0,,5,,,65,127
26895,note_on,1,0,0,,4,,,64,127
26895,note_on,0,0,0,,10,,,69,127
26964,note_off,69,0,0,,10,,,69,127
26965,note_on,1,0,0,,7,,,67,127
27034,note_off,69,0,0,,7,,,67,127
27034,note_off,0,0,0,,4,,,64,127
27035,note_on,1,0,0,,5,,,65,127
27035,note_on,0,0,0,,10,,,69,127
27174,note_off,139,0,0,,5,,,65,127
27175,note_on,1,0,0,,0,,,72,127
27313,note_off,138,0,0,,10,,,69,127
27314,note_off,1,0,0,,0,,,72,127
27315,note_on,1,0,0,,10,,,69,127
27454,note_off,139,0,0,,10,,,69,127
27455,note_on,1,0,0,,5,,,65,127
27594,note_off,139,0,0,,5,,,65,127
27595,note_on,1,0,0,,10,,,69,127
27735,note_on,140,0,0,,2,,,74,127
27804,note_off,69,0,0,,2,,,74,127
27805,note_on,1,0,0,,0,,,72,127
27874,note_off,69,0,0,,0,,,72,127
27874,note_off,0,0,0,,10,,,69,127
27875,note_on,1,0,0,,7,,,67,127
27875,note_on,0,0,0,,2,,,74,127
27944,note_off,69,0,0,,2,,,74,127
27945,note_on,1,0,0,,0,,,72,127
28014,note_off,69,0,0,,0,,,72,127
28014,note_off,0,0,0,,7,,,67,127
28015,note_on,1,0,0,,6,,,66,127
28015,note_on,0,0,0,,12,,,71,127
28084,note_off,69,0,0,,12,,,71,127
28085,note_on,1,0,0,,10,,,69,127
28154,note_off,69,0,0,,10,,,69,127
28154,note_off,0,0,0,,6,,,66,127
28155,note_on,1,0,0,,7,,,67,127
28155,note_on,0,0,0,,12,,,71,127
28294,note_off,139,0,0,,7,,,67,127
28295,note_on,1,0,0,,2,,,74,127
28433,note_off,138,0,0,,12,,,71,127
28434,note_off,1,0,0,,2,,,74,127
28435,note_on,1,0,0,,12,,,71,127
28574,note_off,139,0,0,,12,,,71,127
28575,note_on,1,0,0,,7,,,67,127
28714,note_off,139,0,0,,7,,,67,127
28715,note_on,1,0,0,,2,,,74,127
28855,note_on,140,0,0,,7,,,79,127
28924,note_off,69,0,0,,7,,,79,127
28925,note_on,1,0,0,,5,,,77,127
28994,note_off,69,0,0,,5,,,77,127
28994,note_off,0,0,0,,2,,,74,127
28995,note_on,1,0,0,,0,,,72,127
28995,note_on,0,0,0,,7,,,79,127
29064,note_off,69,0,0,,7,,,79,127
29065,note_on,1,0,0,,5,,,77,127
29134,note_off,69,0,0,,5,,,77,127
29134,note_off,0,0,0,,0,,,72,127
29135,note_on,1,0,0,,12,,,71,127
29135,note_on,0,0,0,,4,,,76,127
29204,note_off,69,0,0,,4,,,76,127
29205,note_on,1,0,0,,2,,,74,127
29274,note_off,69,0,0,,2,,,74,127
29274,note_off,0,0,0,,12,,,71,127
29275,note_on,1,0,0,,0,,,72,127
29275,note_on,0,0,0,,4,,,76,127
29414,note_off,139,0,0,,0,,,72,127
29415,note_on,1,0,0,,7,,,79,127
29553,note_off,138,0,0,,4,,,76,127
29554,note_off,1,0,0,,7,,,79,127
29555,note_on,1,0,0,,4,,,76,127
29694,note_off,139,0,0,,4,,,76,127
29695,note_on,1,0,0,,0,,,72,127
29827,note_off,132,0,0,,0,,,72,127
29836,note_on,9,0,0,,0,,,84,127
29976,note_on,140,0,0,,7,,,67,127
30115,note_off,139,0,0,,7,,,67,127
30116,note_on,1,0,0,,4,,,64,127
30255,note_off,139,0,0,,4,,,64,127
30256,note_on,1,0,0,,0,,,60,127
30395,note_off,139,0,0,,0,,,60,127
30396,note_on,1,0,0,,5,,,41,127
30396,note_on,0,0,0,,5,,,53,127
30535,note_off,139,0,0,,0,,,84,127
30536,note_on,1,0,0,,10,,,81,127
30675,note_off,139,0,0,,10,,,81,127
30676,note_on,1,0,0,,5,,,77,127
30815,note_off,139,0,0,,5,,,77,127
30816,note_on,1,0,0,,2,,,74,127
30955,note_off,139,0,0,,2,,,74,127
30955,note_off,0,0,0,,5,,,53,127
30955,note_off,0,0,0,,5,,,41,127
30956,note_on,1,0,0,,7,,,55,127
30956,note_on,0,0,0,,7,,,43,127
30956,note_on,0,0,0,,0,,,72,127
31095,note_off,139,0,0,,0,,,72,127
31096,note_on,1,0,0,,0,,,72,127
31376,note_off,280,0,0,,0,,,72,127
31377,note_on,1,0,0,,12,,,71,127
31516,note_off,139,0,0,,12,,,71,127
31516,note_off,0,0,0,,7,,,43,127
31516,note_off,0,0,0,,7,,,55,127
31517,note_on,1,0,0,,10,,,45,127
31517,note_on,0,0,0,,10,,,57,127
31517,note_on,0,0,0,,0,,,72,127
31656,note_off,139,0,0,,0,,,72,127
31657,note_on,1,0,0,,0,,,84,127
31796,note_off,139,0,0,,0,,,84,127
31797,note_on,1,0,0,,10,,,81,127
31936,note_off,139,0,0,,10,,,81,127
31937,note_on,1,0,0,,6,,,78,127
32076,note_off,139,0,0,,6,,,78,127
32077,note_on,1,0,0,,0,,,72,127
32216,note_off,139,0,0,,0,,,72,127
32217,note_on,1,0,0,,10,,,69,127
32356,note_off,139,0,0,,10,,,69,127
32357,note_on,1,0,0,,6,,,66,127
32496,note_off,139,0,0,,6,,,66,127
32497,note_on,1,0,0,,0,,,60,127
32509,note_off,12,0,0,,10,,,57,127
32509,note_off,0,0,0,,10,,,45,127
32636,note_off,127,0,0,,0,,,60,127
32637,note_on,1,0,0,,7,,,43,127
32637,note_on,0,0,0,,12,,,59,127
32776,note_off,139,0,0,,12,,,59,127
32777,note_on,1,0,0,,2,,,62,127
32916,note_off,139,0,0,,2,,,62,127
32917,note_on,1,0,0,,12,,,59,127
33056,note_off,139,0,0,,12,,,59,127
33057,note_on,1,0,0,,7,,,55,127
33189,note_off,132,0,0,,7,,,55,127
33196,note_off,7,0,0,,7,,,43,127
33197,note_on,1,0,0,,2,,,62,127
33337,note_on,140,0,0,,7,,,67,127
33406,note_off,69,0,0,,7,,,67,127
33407,note_on,1,0,0,,5,,,65,127
33476,note_off,69,0,0,,5,,,65,127
33476,note_off,0,0,0,,2,,,62,127
33477,note_on,1,0,0,,0,,,60,127
33477,note_on,0,0,0,,7,,,67,127
33546,note_off,69,0,0,,7,,,67,127
33547,note_on,1,0,0,,5,,,65,127
33616,note_off,69,0,0,,5,,,65,127
33616,note_off,0,0,0,,0,,,60,127
33617,note_on,1,0,0,,12,,,59,127
33617,note_on,0,0,0,,4,,,64,127
33686,note_off,69,0,0,,4,,,64,127
33687,note_on,1,0,0,,2,,,62,127
33756,note_off,69,0,0,,2,,,62,127
33756,note_off,0,0,0,,12,,,59,127
33757,note_on,1,0,0,,0,,,60,127
33757,note_on,0,0,0,,4,,,64,127
33896,note_off,139,0,0,,0,,,60,127
33897,note_on,1,0,0,,7,,,67,127
34035,note_off,138,0,0,,4,,,64,127
34036,note_off,1,0,0,,7,,,67,127
34037,note_on,1,0,0,,4,,,64,127
34176,note_off,139,0,0,,4,,,64,127
34177,note_on,1,0,0,,0,,,60,127
34316,note_off,139,0,0,,0,,,60,127
34317,note_on,1,0,0,,7,,,67,127
34457,note_on,140,0,0,,0,,,72,127
34526,note_off,69,0,0,,0,,,72,127
34527,note_on,1,0,0,,11,,,70,127
34596,note_off,69,0,0,,11,,,70,127
34596,note_off,0,0,0,,7,,,67,127
34597,note_on,1,0,0,,5,,,65,127
34597,note_on,0,0,0,,0,,,72,127
34666,note_off,69,0,0,,0,,,72,127
34667,note_on,1,0,0,,11,,,70,127
34736,note_off,69,0,0,,11,,,70,127
34736,note_off,0,0,0,,5,,,65,127
34737,note_on,1,0,0,,4,,,64,127
34737,note_on,0,0,0,,10,,,69,127
34806,note_off,69,0,0,,10,,,69,127
34807,note_on,1,0,0,,7,,,67,127
34876,note_off,69,0,0,,7,,,67,127
34876,note_off,0,0,0,,4,,,64,127
34877,note_on,1,0,0,,5,,,65,127
34877,note_on,0,0,0,,10,,,69,127
35016,note_off,139,0,0,,5,,,65,127
35017,note_on,1,0,0,,0,,,72,127
35155,note_off,138,0,0,,10,,,69,127
35156,note_off,1,0,0,,0,,,72,127
35157,note_on,1,0,0,,10,,,69,127
35296,note_off,139,0,0,,10,,,69,127
35297,note_on,1,0,0,,5,,,65,127
35436,note_off,139,0,0,,5,,,65,127
35437,note_on,1,0,0,,10,,,69,127
35577,note_on,140,0,0,,2,,,74,127
35646,note_off,69,0,0,,2,,,74,127
35647,note_on,1,0,0,,0,,,72,127
35716,note_off,69,0,0,,0,,,72,127
35716,note_off,0,0,0,,10,,,69,127
35717,note_on,1,0,0,,7,,,67,127
35717,note_on,0,0,0,,2,,,74,127
35786,note_off,69,0,0,,2,,,74,127
35787,note_on,1,0,0,,0,,,72,127
35856,note_off,69,0,0,,0,,,72,127
35856,note_off,0,0,0,,7,,,67,127
35857,note_on,1,0,0,,6,,,66,127
35857,note_on,0,0,0,,12,,,71,127
35926,note_off,69,0,0,,12,,,71,127
35927,note_on,1,0,0,,10,,,69,127
35996,note_off,69,0,0,,10,,,69,127
35996,note_off,0,0,0,,6,,,66,127
35997,note_on,1,0,0,,7,,,67,127
35997,note_on,0,0,0,,12,,,71,127
36136,note_off,139,0,0,,7,,,67,127
36137,note_on,1,0,0,,2,,,74,127
36275,note_off,138,0,0,,12,,,71,127
36276,note_off,1,0,0,,2,,,74,127
36277,note_on,1,0,0,,12,,,71,127
36416,note_off,139,0,0,,12,,,71,127
36417,note_on,1,0,0,,7,,,67,127
36556,note_off,139,0,0,,7,,,67,127
36557,note_on,1,0,0,,2,,,74,127
36697,note_on,140,0,0,,7,,,79,127
36766,note_off,69,0,0,,7,,,79,127
36767,note_on,1,0,0,,5,,,77,127
36836,note_off,69,0,0,,5,,,77,127
36836,note_off,0,0,0,,2,,,74,127
36837,note_on,1,0,0,,0,,,72,127
36837,note_on,0,0,0,,7,,,79,127
36906,note_off,69,0,0,,7,,,79,127
36907,note_on,1,0,0,,5,,,77,127
36976,note_off,69,0,0,,5,,,77,127
36976,note_off,0,0,0,,0,,,72,127
36977,note_on,1,0,0,,12,,,71,127
36977,note_on,0,0,0,,4,,,76,127
37046,note_off,69,0,0,,4,,,76,127
37047,note_on,1,0,0,,2,,,74,127
37116,note_off,69,0,0,,2,,,74,127
37116,note_off,0,0,0,,12,,,71,127
37117,note_on,1,0,0,,0,,,72,127
37117,note_on,0,0,0,,4,,,76,127
37256,note_off,139,0,0,,0,,,72,127
37257,note_on,1,0,0,,7,,,79,127
37395,note_off,138,0,0,,4,,,76,127
37396,note_off,1,0,0,,7,,,79,127
37397,note_on,1,0,0,,4,,,76,127
37536,note_off,139,0,0,,4,,,76,127
37537,note_on,1,0,0,,0,,,72,127
37669,note_off,132,0,0,,0,,,72,127
37678,note_on,9,0,0,,0,,,84,127
37818,note_on,140,0,0,,7,,,67,127
37957,note_off,139,0,0,,7,,,67,127
37958,note_on,1,0,0,,4,,,64,127
38097,note_off,139,0,0,,4,,,64,127
38098,note_on,1,0,0,,0,,,60,127
38237,note_off,139,0,0,,0,,,60,127
38238,note_on,1,0,0,,5,,,41,127
38238,note_on,0,0,0,,5,,,53,127
38377,note_off,139,0,0,,0,,,84,127
38378,note_on,1,0,0,,10,,,81,127
38517,note_off,139,0,0,,10,,,81,127
38518,note_on,1,0,0,,5,,,77,127
38657,note_off,139,0,0,,5,,,77,127
38658,note_on,1,0,0,,2,,,74,127
38797,note_off,139,0,0,,5,,,53,127
38797,note_off,0,0,0,,5,,,41,127
38798,note_on,1,0,0,,7,,,43,127
38798,note_on,0,0,0,,7,,,55,127
38937,note_off,139,0,0,,2,,,74,127
38938,note_on,1,0,0,,0,,,72,127
39077,note_off,139,0,0,,0,,,72,127
39078,note_on,1,0,0,,0,,,72,127
39217,note_off,139,0,0,,0,,,72,127
39218,note_on,1,0,0,,12,,,71,127
39357,note_off,139,0,0,,12,,,71,127
39357,note_off,0,0,0,,7,,,55,127
39357,note_off,0,0,0,,7,,,43,127
39358,note_on,1,0,0,,0,,,48,127
39358,note_on,0,0,0,,0,,,60,127
39358,note_on,0,0,0,,0,,,72,127
39569,note_off,211,0,0,,0,,,72,127
39638,note_off,69,0,0,,0,,,60,127
39638,note_off,0,0,0,,0,,,48,127
39639,note_on,1,0,0,,0,,,60,127
39639,note_on,0,0,0,,4,,,52,127
39639,note_on,0,0,0,,7,,,79,127
39731,note_off,92,0,0,,7,,,79,127
39732,note_on,1,0,0,,5,,,77,127
39824,note_off,92,0,0,,5,,,77,127
39825,note_on,1,0,0,,4,,,76,127
39917,note_off,92,0,0,,4,,,76,127
39917,note_off,0,0,0,,4,,,52,127
39918,note_on,1,0,0,,5,,,53,127
39918,note_on,0,0,0,,2,,,74,127
40010,note_off,92,0,0,,2,,,74,127
40011,note_on,1,0,0,,0,,,72,127
40103,note_off,92,0,0,,0,,,72,127
40104,note_on,1,0,0,,12,,,71,127
40192,note_off,88,0,0,,0,,,60,127
40196,note_off,4,0,0,,12,,,71,127
40196,note_off,0,0,0,,5,,,53,127
40197,note_on,1,0,0,,7,,,55,127
40197,note_on,0,0,0,,12,,,59,127
40197,note_on,0,0,0,,2,,,62,127
40477,note_off,280,0,0,,2,,,62,127
40477,note_off,0,0,0,,12,,,59,127
40477,note_off,0,0,0,,7,,,55,127
40478,note_on,1,0,0,,0,,,60,127
40478,note_on,0,0,0,,4,,,64,127
40758,note_off,280,0,0,,4,,,64,127
40758,note_off,0,0,0,,0,,,60,127
40759,note_on,1,0,0,,0,,,60,127
40759,note_on,0,0,0,,4,,,52,127
40759,note_on,0,0,0,,7,,,79,127
40851,note_off,92,0,0,,7,,,79,127
40852,note_on,1,0,0,,5,,,77,127
40944,note_off,92,0,0,,5,,,77,127
40945,note_on,1,0,0,,4,,,76,127
41037,note_off,92,0,0,,4,,,76,127
41037,note_off,0,0,0,,4,,,52,127
41038,note_on,1,0,0,,5,,,53,127
41038,note_on,0,0,0,,2,,,74,127
41130,note_off,92,0,0,,2,,,74,127
41131,note_on,1,0,0,,0,,,72,127
41223,note_off,92,0,0,,0,,,72,127
41224,note_on,1,0,0,,12,,,71,127
41312,note_off,88,0,0,,0,,,60,127
41316,note_off,4,0,0,,12,,,71,127
41316,note_off,0,0,0,,5,,,53,127
41317,note_on,1,0,0,,2,,,62,127
41317,note_on,0,0,0,,12,,,59,127
41317,note_on,0,0,0,,7,,,55,127
41597,note_off,280,0,0,,7,,,55,127
41597,note_off,0,0,0,,12,,,59,127
41597,note_off,0,0,0,,2,,,62,127
41598,note_on,1,0,0,,0,,,60,127
41598,note_on,0,0,0,,4,,,64,127
41878,note_off,280,0,0,,4,,,64,127
41878,note_off,0,0,0,,0,,,60,127
41879,note_on,1,0,0,,4,,,52,127
41879,note_on,0,0,0,,7,,,79,127
42159,note_off,280,0,0,,7,,,79,127
42159,note_off,0,0,0,,4,,,52,127
42160,note_on,1,0,0,,5,,,53,127
42160,note_on,0,0,0,,10,,,81,127
42229,note_off,69,0,0,,10,,,81,127
42230,note_on,1,0,0,,12,,,83,127
42299,note_off,69,0,0,,12,,,83,127
42300,note_on,1,0,0,,0,,,84,127
42439,note_off,139,0,0,,0,,,84,127
42439,note_off,0,0,0,,5,,,53,127
42440,note_on,1,0,0,,2,,,50,127
42440,note_on,0,0,0,,12,,,83,127
42579,note_off,139,0,0,,12,,,83,127
42580,note_on,1,0,0,,10,,,81,127
42719,note_off,139,0,0,,10,,,81,127
42719,note_off,0,0,0,,2,,,50,127
42720,note_on,1,0,0,,4,,,52,127
42720,note_on,0,0,0,,10,,,81,127
42789,note_off,69,0,0,,10,,,81,127
42790,note_on,1,0,0,,7,,,79,127
42859,note_off,69,0,0,,7,,,79,127
42860,note_on,1,0,0,,5,,,77,127
42929,note_off,69,0,0,,5,,,77,127
42930,note_on,1,0,0,,7,,,79,127
42999,note_off,69,0,0,,7,,,79,127
42999,note_off,0,0,0,,4,,,52,127
43000,note_on,1,0,0,,5,,,53,127
43000,note_on,0,0,0,,10,,,81,127
43139,note_off,139,0,0,,10,,,81,127
43140,note_on,1,0,0,,5,,,77,127
43279,note_off,139,0,0,,5,,,77,127
43279,note_off,0,0,0,,5,,,53,127
43280,note_on,1,0,0,,7,,,55,127
43280,note_on,0,0,0,,4,,,76,127
43349,note_off,69,0,0,,4,,,76,127
43350,note_on,1,0,0,,2,,,74,127
43419,note_off,69,0,0,,2,,,74,127
43420,note_on,1,0,0,,0,,,72,127
43559,note_off,139,0,0,,0,,,72,127
43559,note_off,0,0,0,,7,,,55,127
43560,note_on,1,0,0,,7,,,43,127
43560,note_on,0,0,0,,2,,,74,127
43699,note_off,139,0,0,,2,,,74,127
43700,note_on,1,0,0,,12,,,71,127
43839,note_off,139,0,0,,12,,,71,127
43839,note_off,0,0,0,,7,,,43,127
43840,note_on,1,0,0,,0,,,48,127
43840,note_on,0,0,0,,0,,,72,127
44120,note_off,280,0,0,,0,,,72,127
44120,note_off,0,0,0,,0,,,48,127
44121,note_on,1,0,0,,4,,,52,127
44121,note_on,0,0,0,,0,,,60,127
44121,note_on,0,0,0,,7,,,79,127
44213,note_off,92,0,0,,7,,,79,127
44214,note_on,1,0,0,,5,,,77,127
44306,note_off,92,0,0,,5,,,77,127
44307,note_on,1,0,0,,4,,,76,127
44399,note_off,92,0,0,,4,,,76,127
44399,note_off,0,0,0,,4,,,52,127
44400,note_on,1,0,0,,5,,,53,127
44400,note_on,0,0,0,,2,,,74,127
44492,note_off,92,0,0,,2,,,74,127
44493,note_on,1,0,0,,0,,,72,127
44585,note_off,92,0,0,,0,,,72,127
44586,note_on,1,0,0,,12,,,71,127
44674,note_off,88,0,0,,0,,,60,127
44678,note_off,4,0,0,,5,,,53,127
44679,note_on,1,0,0,,2,,,62,127
44679,note_on,0,0,0,,12,,,59,127
44679,note_on,0,0,0,,7,,,55,127
44717,note_off,38,0,0,,12,,,71,127
44958,note_off,241,0,0,,7,,,55,127
44958,note_off,0,0,0,,12,,,59,127
44958,note_off,0,0,0,,2,,,62,127
44959,note_on,1,0,0,,4,,,64,127
44959,note_on,0,0,0,,0,,,60,127
45239,note_off,280,0,0,,0,,,60,127
45239,note_off,0,0,0,,4,,,64,127
45240,note_on,1,0,0,,0,,,60,127
45240,note_on,0,0,0,,4,,,52,127
45240,note_on,0,0,0,,7,,,79,127
45332,note_off,92,0,0,,7,,,79,127
45333,note_on,1,0,0,,5,,,77,127
45425,note_off,92,0,0,,5,,,77,127
45426,note_on,1,0,0,,4,,,76,127
45518,note_off,92,0,0,,4,,,76,127
45518,note_off,0,0,0,,4,,,52,127
45519,note_on,1,0,0,,5,,,53,127
45519,note_on,0,0,0,,2,,,74,127
45611,note_off,92,0,0,,2,,,74,127
45612,note_on,1,0,0,,0,,,72,127
45704,note_off,92,0,0,,0,,,72,127
45705,note_on,1,0,0,,12,,,71,127
45793,note_off,88,0,0,,0,,,60,127
45797,note_off,4,0,0,,5,,,53,127
45798,note_on,1,0,0,,7,,,55,127
45798,note_on,0,0,0,,2,,,62,127
45798,note_on,0,0,0,,12,,,59,127
45836,note_off,38,0,0,,12,,,71,127
46077,note_off,241,0,0,,12,,,59,127
46077,note_off,0,0,0,,2,,,62,127
46077,note_off,0,0,0,,7,,,55,127
46078,note_on,1,0,0,,0,,,60,127
46078,note_on,0,0,0,,4,,,64,127
46358,note_off,280,0,0,,4,,,64,127
46358,note_off,0,0,0,,0,,,60,127
46359,note_on,1,0,0,,4,,,52,127
46359,note_on,0,0,0,,7,,,79,127
46639,note_off,280,0,0,,7,,,79,127
46639,note_off,0,0,0,,4,,,52,127
46640,note_on,1,0,0,,5,,,53,127
46640,note_on,0,0,0,,10,,,81,127
46732,note_off,92,0,0,,10,,,81,127
46733,note_on,1,0,0,,12,,,83,127
46825,note_off,92,0,0,,12,,,83,127
46826,note_on,1,0,0,,0,,,84,127
46918,note_off,92,0,0,,0,,,84,127
46918,note_off,0,0,0,,5,,,53,127
46919,note_on,1,0,0,,2,,,50,127
46919,note_on,0,0,0,,12,,,83,127
47058,note_off,139,0,0,,12,,,83,127
47059,note_on,1,0,0,,10,,,81,127
47198,note_off,139,0,0,,10,,,81,127
47198,note_off,0,0,0,,2,,,50,127
47199,note_on,1,0,0,,4,,,52,127
47199,note_on,0,0,0,,10,,,81,127
47268,note_off,69,0,0,,10,,,81,127
47269,note_on,1,0,0,,7,,,79,127
47338,note_off,69,0,0,,7,,,79,127
47339,note_on,1,0,0,,5,,,77,127
47408,note_off,69,0,0,,5,,,77,127
47409,note_on,1,0,0,,7,,,79,127
47478,note_off,69,0,0,,7,,,79,127
47478,note_off,0,0,0,,4,,,52,127
47479,note_on,1,0,0,,5,,,53,127
47479,note_on,0,0,0,,10,,,81,127
47618,note_off,139,0,0,,10,,,81,127
47619,note_on,1,0,0,,5,,,77,127
47758,note_off,139,0,0,,5,,,77,127
47758,note_off,0,0,0,,5,,,53,127
47759,note_on,1,0,0,,7,,,55,127
47759,note_on,0,0,0,,4,,,76,127
47828,note_off,69,0,0,,4,,,76,127
47829,note_on,1,0,0,,2,,,74,127
47898,note_off,69,0,0,,2,,,74,127
47899,note_on,1,0,0,,0,,,72,127
48038,note_off,139,0,0,,0,,,72,127
48038,note_off,0,0,0,,7,,,55,127
48039,note_on,1,0,0,,7,,,43,127
48039,note_on,0,0,0,,2,,,74,127
48178,note_off,139,0,0,,2,,,74,127
48179,note_on,1,0,0,,12,,,71,127
48318,note_off,139,0,0,,12,,,71,127
48318,note_off,0,0,0,,7,,,43,127
48319,note_on,1,0,0,,0,,,48,127
48319,note_on,0,0,0,,0,,,72,127
48458,note_off,139,0,0,,0,,,72,127
48459,note_on,1,0,0,,7,,,67,127
48598,note_off,139,0,0,,7,,,67,127
48598,note_off,0,0,0,,0,,,48,127
48599,note_on,1,0,0,,5,,,53,127
48599,note_on,0,0,0,,10,,,69,127
48738,note_off,139,0,0,,10,,,69,127
48739,note_on,1,0,0,,5,,,65,127
48878,note_off,139,0,0,,5,,,65,127
48878,note_off,0,0,0,,5,,,53,127
48879,note_on,1,0,0,,7,,,55,127
48879,note_on,0,0,0,,4,,,64,127
48948,note_off,69,0,0,,4,,,64,127
48949,note_on,1,0,0,,2,,,62,127
49018,note_off,69,0,0,,2,,,62,127
49019,note_on,1,0,0,,0,,,60,127
49158,note_off,139,0,0,,0,,,60,127
49158,note_off,0,0,0,,7,,,55,127
49159,note_on,1,0,0,,7,,,43,127
49159,note_on,0,0,0,,2,,,62,127
49298,note_off,139,0,0,,2,,,62,127
49299,note_on,1,0,0,,12,,,59,127
49438,note_off,139,0,0,,12,,,59,127
49438,note_off,0,0,0,,7,,,43,127
49439,note_on,1,0,0,,0,,,36,127
49439,note_on,0,0,0,,12,,,59,127
49719,note_off,280,0,0,,12,,,59,127
49720,note_on,1,0,0,,0,,,60,127
50276,note_off,556,0,0,,0,,,60,127
50561,note_off,285,0,0,,0,,,36,127
50562,note_on,1,0,0,,0,,,60,127
50701,note_off,139,0,0,,0,,,60,127
50702,note_on,1,0,0,,7,,,67,127
50841,note_off,139,0,0,,7,,,67,127
50842,note_on,1,0,0,,3,,,63,127
50981,note_off,139,0,0,,3,,,63,127
50982,note_on,1,0,0,,0,,,60,127
51121,note_off,139,0,0,,0,,,60,127
51122,note_on,1,0,0,,7,,,67,127
51262,note_on,140,0,0,,5,,,77,127
51331,note_off,69,0,0,,5,,,77,127
51332,note_on,1,0,0,,3,,,75,127
51401,note_off,69,0,0,,3,,,75,127
51401,note_off,0,0,0,,7,,,67,127
51402,note_on,1,0,0,,10,,,69,127
51402,note_on,0,0,0,,5,,,77,127
51471,note_off,69,0,0,,5,,,77,127
51472,note_on,1,0,0,,3,,,75,127
51541,note_off,69,0,0,,3,,,75,127
51542,note_on,1,0,0,,2,,,74,127
51611,note_off,69,0,0,,2,,,74,127
51612,note_on,1,0,0,,0,,,72,127
51681,note_off,69,0,0,,0,,,72,127
51681,note_off,0,0,0,,10,,,69,127
51682,note_on,1,0,0,,11,,,70,127
51682,note_on,0,0,0,,2,,,74,127
51821,note_off,139,0,0,,11,,,70,127
51822,note_on,1,0,0,,5,,,65,127
51960,note_off,138,0,0,,2,,,74,127
51961,note_off,1,0,0,,5,,,65,127
51962,note_on,1,0,0,,2,,,62,127
52101,note_off,139,0,0,,2,,,62,127
52102,note_on,1,0,0,,11,,,58,127
52241,note_off,139,0,0,,11,,,58,127
52242,note_on,1,0,0,,2,,,62,127
52382,note_on,140,0,0,,0,,,72,127
52451,note_off,69,0,0,,0,,,72,127
52452,note_on,1,0,0,,11,,,70,127
52521,note_off,69,0,0,,11,,,70,127
52521,note_off,0,0,0,,2,,,62,127
52522,note_on,1,0,0,,4,,,64,127
52522,note_on,0,0,0,,0,,,72,127
52591,note_off,69,0,0,,0,,,72,127
52592,note_on,1,0,0,,11,,,70,127
52661,note_off,69,0,0,,11,,,70,127
52662,note_on,1,0,0,,8,,,68,127
52731,note_off,69,0,0,,8,,,68,127
52732,note_on,1,0,0,,7,,,67,127
52801,note_off,69,0,0,,7,,,67,127
52801,note_off,0,0,0,,4,,,64,127
52802,note_on,1,0,0,,5,,,65,127
52802,note_on,0,0,0,,8,,,68,127
52941,note_off,139,0,0,,5,,,65,127
52942,note_on,1,0,0,,0,,,60,127
53080,note_off,138,0,0,,8,,,68,127
53081,note_off,1,0,0,,0,,,60,127
53082,note_on,1,0,0,,8,,,56,127
53221,note_off,139,0,0,,8,,,56,127
53222,note_on,1,0,0,,5,,,53,127
53361,note_off,139,0,0,,5,,,53,127
53362,note_on,1,0,0,,0,,,60,127
53502,note_on,140,0,0,,11,,,70,127
53571,note_off,69,0,0,,11,,,70,127
53572,note_on,1,0,0,,8,,,68,127
53641,note_off,69,0,0,,8,,,68,127
53641,note_off,0,0,0,,0,,,60,127
53642,note_on,1,0,0,,2,,,62,127
53642,note_on,0,0,0,,11,,,70,127
53711,note_off,69,0,0,,11,,,70,127
53712,note_on,1,0,0,,8,,,68,127
53781,note_off,69,0,0,,8,,,68,127
53782,note_on,1,0,0,,7,,,67,127
53851,note_off,69,0,0,,7,,,67,127
53852,note_on,1,0,0,,5,,,65,127
53921,note_off,69,0,0,,5,,,65,127
53921,note_off,0,0,0,,2,,,62,127
53922,note_on,1,0,0,,3,,,63,127
53922,note_on,0,0,0,,7,,,67,127
54061,note_off,139,0,0,,3,,,63,127
54062,note_on,1,0,0,,0,,,60,127
54201,note_off,139,0,0,,0,,,60,127
54201,note_off,0,0,0,,7,,,67,127
54202,note_on,1,0,0,,1,,,61,127
54202,note_on,0,0,0,,5,,,65,127
54341,note_off,139,0,0,,1,,,61,127
54342,note_on,1,0,0,,11,,,58,127
54481,note_off,139,0,0,,11,,,58,127
54481,note_off,0,0,0,,5,,,65,127
54482,note_on,1,0,0,,0,,,60,127
54482,note_on,0,0,0,,4,,,64,127
54621,note_off,139,0,0,,0,,,60,127
54622,note_on,1,0,0,,0,,,60,127
54761,note_off,139,0,0,,0,,,60,127
54761,note_off,0,0,0,,4,,,64,127
54762,note_on,1,0,0,,1,,,61,127
54762,note_on,0,0,0,,5,,,65,127
54901,note_off,139,0,0,,1,,,61,127
54902,note_on,1,0,0,,11,,,58,127
55041,note_off,139,0,0,,11,,,58,127
55041,note_off,0,0,0,,5,,,65,127
55042,note_on,1,0,0,,0,,,60,127
55042,note_on,0,0,0,,4,,,64,127
55181,note_off,139,0,0,,0,,,60,127
55182,note_on,1,0,0,,0,,,60,127
55321,note_off,139,0,0,,0,,,60,127
55321,note_off,0,0,0,,4,,,64,127
55322,note_on,1,0,0,,1,,,61,127
55322,note_on,0,0,0,,5,,,65,127
55461,note_off,139,0,0,,1,,,61,127
55462,note_on,1,0,0,,11,,,58,127
55601,note_off,139,0,0,,11,,,58,127
55601,note_off,0,0,0,,5,,,65,127
55602,note_on,1,0,0,,0,,,60,127
55602,note_on,0,0,0,,4,,,64,127
55741,note_off,139,0,0,,0,,,60,127
55742,note_on,1,0,0,,0,,,60,127
55881,note_off,139,0,0,,0,,,60,127
55881,note_off,0,0,0,,4,,,64,127
55882,note_on,1,0,0,,1,,,61,127
55882,note_on,0,0,0,,5,,,65,127
56021,note_off,139,0,0,,1,,,61,127
56022,note_on,1,0,0,,11,,,58,127
56161,note_off,139,0,0,,11,,,58,127
56161,note_off,0,0,0,,5,,,65,127
56162,note_on,1,0,0,,0,,,60,127
56162,note_on,0,0,0,,4,,,64,127
56301,note_off,139,0,0,,0,,,60,127
56302,note_on,1,0,0,,11,,,58,127
56441,note_off,139,0,0,,11,,,58,127
56441,note_off,0,0,0,,4,,,64,127
56442,note_on,1,0,0,,12,,,59,127
56442,note_on,0,0,0,,3,,,63,127
56581,note_off,139,0,0,,12,,,59,127
56582,note_on,1,0,0,,8,,,56,127
56721,note_off,139,0,0,,8,,,56,127
56721,note_off,0,0,0,,3,,,63,127
56722,note_on,1,0,0,,11,,,58,127
56722,note_on,0,0,0,,2,,,62,127
56861,note_off,139,0,0,,11,,,58,127
56862,note_on,1,0,0,,11,,,58,127
57001,note_off,139,0,0,,11,,,58,127
57001,note_off,0,0,0,,2,,,62,127
57002,note_on,1,0,0,,12,,,59,127
57002,note_on,0,0,0,,3,,,63,127
57141,note_off,139,0,0,,12,,,59,127
57142,note_on,1,0,0,,8,,,56,127
57281,note_off,139,0,0,,8,,,56,127
57281,note_off,0,0,0,,3,,,63,127
57282,note_on,1,0,0,,11,,,58,127
57282,note_on,0,0,0,,2,,,62,127
57421,note_off,139,0,0,,11,,,58,127
57422,note_on,1,0,0,,11,,,58,127
57561,note_off,139,0,0,,11,,,58,127
57561,note_off,0,0,0,,2,,,62,127
57562,note_on,1,0,0,,12,,,59,127
57562,note_on,0,0,0,,3,,,63,127
57701,note_off,139,0,0,,12,,,59,127
57702,note_on,1,0,0,,8,,,56,127
57841,note_off,139,0,0,,8,,,56,127
57841,note_off,0,0,0,,3,,,63,127
57842,note_on,1,0,0,,11,,,58,127
57842,note_on,0,0,0,,2,,,62,127
57981,note_off,139,0,0,,11,,,58,127
57982,note_on,1,0,0,,11,,,58,127
58121,note_off,139,0,0,,11,,,58,127
58121,note_off,0,0,0,,2,,,62,127
58122,note_on,1,0,0,,12,,,59,127
58122,note_on,0,0,0,,3,,,63,127
58261,note_off,139,0,0,,12,,,59,127
58262,note_on,1,0,0,,8,,,56,127
58401,note_off,139,0,0,,8,,,56,127
58401,note_off,0,0,0,,3,,,63,127
58402,note_on,1,0,0,,11,,,58,127
58402,note_on,0,0,0,,2,,,62,127
58541,note_off,139,0,0,,11,,,58,127
58542,note_on,1,0,0,,8,,,56,127
58681,note_off,139,0,0,,8,,,56,127
58681,note_off,0,0,0,,2,,,62,127
58682,note_on,1,0,0,,10,,,57,127
58682,note_on,0,0,0,,1,,,61,127
58821,note_off,139,0,0,,10,,,57,127
58822,note_on,1,0,0,,6,,,54,127
58961,note_off,139,0,0,,6,,,54,127
58961,note_off,0,0,0,,1,,,61,127
58962,note_on,1,0,0,,8,,,56,127
58962,note_on,0,0,0,,0,,,60,127
59101,note_off,139,0,0,,8,,,56,127
59102,note_on,1,0,0,,8,,,56,127
59241,note_off,139,0,0,,8,,,56,127
59241,note_off,0,0,0,,0,,,60,127
59242,note_on,1,0,0,,10,,,57,127
59242,note_on,0,0,0,,1,,,61,127
59381,note_off,139,0,0,,10,,,57,127
59382,note_on,1,0,0,,6,,,54,127
59521,note_off,139,0,0,,6,,,54,127
59521,note_off,0,0,0,,1,,,61,127
59522,note_on,1,0,0,,8,,,56,127
59522,note_on,0,0,0,,0,,,60,127
59661,note_off,139,0,0,,8,,,56,127
59662,note_on,1,0,0,,8,,,56,127
59801,note_off,139,0,0,,8,,,56,127
59801,note_off,0,0,0,,0,,,60,127
59802,note_on,1,0,0,,10,,,57,127
59802,note_on,0,0,0,,1,,,61,127
59941,note_off,139,0,0,,10,,,57,127
59942,note_on,1,0,0,,6,,,54,127
60081,note_off,139,0,0,,6,,,54,127
60081,note_off,0,0,0,,1,,,61,127
60082,note_on,1,0,0,,8,,,56,127
60082,note_on,0,0,0,,0,,,60,127
60221,note_off,139,0,0,,8,,,56,127
60222,note_on,1,0,0,,8,,,56,127
60361,note_off,139,0,0,,8,,,56,127
60361,note_off,0,0,0,,0,,,60,127
60362,note_on,1,0,0,,10,,,57,127
60362,note_on,0,0,0,,1,,,61,127
60501,note_off,139,0,0,,10,,,57,127
60502,note_on,1,0,0,,6,,,54,127
60641,note_off,139,0,0,,6,,,54,127
60641,note_off,0,0,0,,1,,,61,127
60642,note_on,1,0,0,,8,,,56,127
60642,note_on,0,0,0,,0,,,60,127
60781,note_off,139,0,0,,8,,,56,127
60782,note_on,1,0,0,,11,,,58,127
60920,note_off,138,0,0,,0,,,60,127
60921,note_off,1,0,0,,11,,,58,127
60922,note_on,1,0,0,,0,,,60,127
61061,note_off,139,0,0,,0,,,60,127
61062,note_on,1,0,0,,1,,,61,127
61201,note_off,139,0,0,,1,,,61,127
61202,note_on,1,0,0,,3,,,63,127
61342,note_on,140,0,0,,6,,,66,127
61481,note_off,139,0,0,,6,,,66,127
61481,note_off,0,0,0,,3,,,63,127
61482,note_on,1,0,0,,0,,,60,127
61482,note_on,0,0,0,,5,,,65,127
61621,note_off,139,0,0,,5,,,65,127
61622,note_on,1,0,0,,3,,,63,127
61761,note_off,139,0,0,,3,,,63,127
61761,note_off,0,0,0,,0,,,60,127
61762,note_on,1,0,0,,1,,,61,127
61762,note_on,0,0,0,,5,,,65,127
61901,note_off,139,0,0,,5,,,65,127
61902,note_on,1,0,0,,7,,,67,127
62041,note_off,139,0,0,,7,,,67,127
62041,note_off,0,0,0,,1,,,61,127
62042,note_on,1,0,0,,1,,,61,127
62042,note_on,0,0,0,,10,,,69,127
62181,note_off,139,0,0,,10,,,69,127
62182,note_on,1,0,0,,11,,,70,127
62321,note_off,139,0,0,,11,,,70,127
62321,note_off,0,0,0,,1,,,61,127
62322,note_on,1,0,0,,3,,,63,127
62322,note_on,0,0,0,,0,,,60,127
62322,note_on,0,0,0,,1,,,73,127
62391,note_off,69,0,0,,1,,,73,127
62392,note_on,1,0,0,,0,,,72,127
62461,note_off,69,0,0,,0,,,72,127
62462,note_on,1,0,0,,1,,,73,127
62531,note_off,69,0,0,,1,,,73,127
62532,note_on,1,0,0,,3,,,75,127
62601,note_off,69,0,0,,3,,,75,127
62601,note_off,0,0,0,,0,,,60,127
62602,note_on,1,0,0,,10,,,57,127
62602,note_on,0,0,0,,1,,,73,127
62741,note_off,139,0,0,,1,,,73,127
62742,note_on,1,0,0,,0,,,72,127
62877,note_off,135,0,0,,3,,,63,127
62881,note_off,4,0,0,,0,,,72,127
62881,note_off,0,0,0,,10,,,57,127
62882,note_on,1,0,0,,1,,,61,127
62882,note_on,0,0,0,,11,,,58,127
62882,note_on,0,0,0,,1,,,73,127
63021,note_off,139,0,0,,1,,,73,127
63022,note_on,1,0,0,,4,,,64,127
63161,note_off,139,0,0,,4,,,64,127
63161,note_off,0,0,0,,11,,,58,127
63161,note_off,0,0,0,,1,,,61,127
63162,note_on,1,0,0,,8,,,56,127
63162,note_on,0,0,0,,0,,,60,127
63162,note_on,0,0,0,,5,,,65,127
63301,note_off,139,0,0,,5,,,65,127
63302,note_on,1,0,0,,0,,,72,127
63441,note_off,139,0,0,,0,,,72,127
63441,note_off,0,0,0,,0,,,60,127
63441,note_off,0,0,0,,8,,,56,127
63442,note_on,1,0,0,,1,,,49,127
63442,note_on,0,0,0,,11,,,70,127
63581,note_off,139,0,0,,11,,,70,127
63582,note_on,1,0,0,,8,,,68,127
63721,note_off,139,0,0,,8,,,68,127
63722,note_on,1,0,0,,11,,,58,127
63722,note_on,0,0,0,,7,,,67,127
63861,note_off,139,0,0,,7,,,67,127
63862,note_on,1,0,0,,5,,,65,127
63997,note_off,135,0,0,,1,,,49,127
64001,note_off,4,0,0,,5,,,65,127
64001,note_off,0,0,0,,11,,,58,127
64002,note_on,1,0,0,,0,,,48,127
64002,note_on,0,0,0,,0,,,60,127
64002,note_on,0,0,0,,4,,,64,127
64141,note_off,139,0,0,,4,,,64,127
64142,note_on,1,0,0,,0,,,72,127
64280,note_off,138,0,0,,0,,,48,127
64281,note_off,1,0,0,,0,,,72,127
64282,note_on,1,0,0,,11,,,70,127
64421,note_off,139,0,0,,11,,,70,127
64421,note_off,0,0,0,,0,,,60,127
64422,note_on,1,0,0,,0,,,60,127
64422,note_on,0,0,0,,0,,,72,127
64561,note_off,139,0,0,,0,,,72,127
64561,note_off,0,0,0,,0,,,60,127
64562,note_on,1,0,0,,11,,,58,127
64562,note_on,0,0,0,,1,,,73,127
64701,note_off,139,0,0,,1,,,73,127
64701,note_off,0,0,0,,11,,,58,127
64702,note_on,1,0,0,,0,,,60,127
64702,note_on,0,0,0,,4,,,76,127
64841,note_off,139,0,0,,4,,,76,127
64841,note_off,0,0,0,,0,,,60,127
64842,note_on,1,0,0,,1,,,61,127
64842,note_on,0,0,0,,5,,,77,127
64981,note_off,139,0,0,,5,,,77,127
64981,note_off,0,0,0,,1,,,61,127
64982,note_on,1,0,0,,4,,,64,127
64982,note_on,0,0,0,,7,,,79,127
65121,note_off,139,0,0,,7,,,79,127
65121,note_off,0,0,0,,4,,,64,127
65122,note_on,1,0,0,,5,,,65,127
65122,note_on,0,0,0,,8,,,80,127
65261,note_off,139,0,0,,8,,,80,127
65261,note_off,0,0,0,,5,,,65,127
65262,note_on,1,0,0,,7,,,67,127
65262,note_on,0,0,0,,11,,,82,127
65401,note_off,139,0,0,,11,,,82,127
65401,note_off,0,0,0,,7,,,67,127
65402,note_on,1,0,0,,8,,,68,127
65402,note_on,0,0,0,,0,,,84,127
65541,note_off,139,0,0,,0,,,84,127
65541,note_off,0,0,0,,8,,,68,127
65542,note_on,1,0,0,,11,,,70,127
65542,note_on,0,0,0,,5,,,77,127
65681,note_off,139,0,0,,11,,,70,127
65682,note_on,1,0,0,,0,,,72,127
65820,note_off,138,0,0,,5,,,77,127
65823,note_on,3,0,0,,4,,,76,127
65955,note_off,132,0,0,,4,,,76,127
65962,note_off,7,0,0,,0,,,72,127
65963,note_on,1,0,0,,1,,,73,127
65963,note_on,0,0,0,,7,,,79,127
66032,note_off,69,0,0,,7,,,79,127
66033,note_on,1,0,0,,5,,,77,127
66102,note_off,69,0,0,,5,,,77,127
66103,note_on,1,0,0,,4,,,76,127
66172,note_off,69,0,0,,4,,,76,127
66173,note_on,1,0,0,,5,,,77,127
66242,note_off,69,0,0,,5,,,77,127
66242,note_off,0,0,0,,1,,,73,127
66243,note_on,1,0,0,,0,,,72,127
66243,note_on,0,0,0,,7,,,79,127
66375,note_off,132,0,0,,0,,,72,127
66382,note_off,7,0,0,,7,,,79,127
66383,note_on,1,0,0,,0,,,72,127
66522,note_off,139,0,0,,0,,,72,127
66523,note_on,1,0,0,,11,,,70,127
66662,note_off,139,0,0,,11,,,70,127
66663,note_on,1,0,0,,0,,,60,127
66663,note_on,0,0,0,,0,,,72,127
66802,note_off,139,0,0,,0,,,72,127
66802,note_off,0,0,0,,0,,,60,127
66803,note_on,1,0,0,,11,,,58,127
66803,note_on,0,0,0,,1,,,73,127
66942,note_off,139,0,0,,1,,,73,127
66942,note_off,0,0,0,,11,,,58,127
66943,note_on,1,0,0,,0,,,60,127
66943,note_on,0,0,0,,4,,,76,127
67082,note_off,139,0,0,,4,,,76,127
67082,note_off,0,0,0,,0,,,60,127
67083,note_on,1,0,0,,1,,,61,127
67083,note_on,0,0,0,,5,,,77,127
67222,note_off,139,0,0,,5,,,77,127
67222,note_off,0,0,0,,1,,,61,127
67223,note_on,1,0,0,,4,,,64,127
67223,note_on,0,0,0,,7,,,79,127
67362,note_off,139,0,0,,7,,,79,127
67362,note_off,0,0,0,,4,,,64,127
67363,note_on,1,0,0,,5,,,65,127
67363,note_on,0,0,0,,8,,,80,127
67502,note_off,139,0,0,,8,,,80,127
67502,note_off,0,0,0,,5,,,65,127
67503,note_on,1,0,0,,7,,,67,127
67503,note_on,0,0,0,,11,,,82,127
67642,note_off,139,0,0,,11,,,82,127
67642,note_off,0,0,0,,7,,,67,127
67643,note_on,1,0,0,,8,,,68,127
67643,note_on,0,0,0,,0,,,84,127
67782,note_off,139,0,0,,0,,,84,127
67782,note_off,0,0,0,,8,,,68,127
67783,note_on,1,0,0,,11,,,70,127
67783,note_on,0,0,0,,5,,,77,127
67922,note_off,139,0,0,,11,,,70,127
67923,note_on,1,0,0,,0,,,72,127
68062,note_off,139,0,0,,5,,,77,127
68063,note_on,1,0,0,,4,,,76,127
68202,note_off,139,0,0,,4,,,76,127
68202,note_off,0,0,0,,0,,,72,127
68203,note_on,1,0,0,,1,,,73,127
68203,note_on,0,0,0,,7,,,79,127
68272,note_off,69,0,0,,7,,,79,127
68273,note_on,1,0,0,,5,,,77,127
68342,note_off,69,0,0,,5,,,77,127
68343,note_on,1,0,0,,4,,,76,127
68412,note_off,69,0,0,,4,,,76,127
68413,note_on,1,0,0,,5,,,77,127
68482,note_off,69,0,0,,5,,,77,127
68482,note_off,0,0,0,,1,,,73,127
68483,note_on,1,0,0,,0,,,72,127
68483,note_on,0,0,0,,7,,,79,127
68622,note_off,139,0,0,,0,,,72,127
68623,note_on,1,0,0,,7,,,67,127
68761,note_off,138,0,0,,7,,,79,127
68762,note_off,1,0,0,,7,,,67,127
68763,note_on,1,0,0,,4,,,64,127
68902,note_off,139,0,0,,4,,,64,127
68903,note_on,1,0,0,,0,,,60,127
69042,note_off,139,0,0,,0,,,60,127
69043,note_on,1,0,0,,7,,,67,127
69183,note_on,140,0,0,,0,,,72,127
69252,note_off,69,0,0,,0,,,72,127
69253,note_on,1,0,0,,11,,,70,127
69322,note_off,69,0,0,,11,,,70,127
69322,note_off,0,0,0,,7,,,67,127
69323,note_on,1,0,0,,5,,,65,127
69323,note_on,0,0,0,,0,,,72,127
69392,note_off,69,0,0,,0,,,72,127
69393,note_on,1,0,0,,11,,,70,127
69462,note_off,69,0,0,,11,,,70,127
69462,note_off,0,0,0,,5,,,65,127
69463,note_on,1,0,0,,4,,,64,127
69463,note_on,0,0,0,,10,,,69,127
69532,note_off,69,0,0,,10,,,69,127
69533,note_on,1,0,0,,7,,,67,127
69602,note_off,69,0,0,,7,,,67,127
69602,note_off,0,0,0,,4,,,64,127
69603,note_on,1,0,0,,5,,,65,127
69603,note_on,0,0,0,,10,,,69,127
69742,note_off,139,0,0,,5,,,65,127
69743,note_on,1,0,0,,0,,,72,127
69881,note_off,138,0,0,,10,,,69,127
69882,note_off,1,0,0,,0,,,72,127
69883,note_on,1,0,0,,10,,,69,127
70022,note_off,139,0,0,,10,,,69,127
70023,note_on,1,0,0,,5,,,65,127
70162,note_off,139,0,0,,5,,,65,127
70163,note_on,1,0,0,,0,,,72,127
70303,note_on,140,0,0,,5,,,77,127
70372,note_off,69,0,0,,5,,,77,127
70373,note_on,1,0,0,,3,,,75,127
70442,note_off,69,0,0,,3,,,75,127
70442,note_off,0,0,0,,0,,,72,127
70443,note_on,1,0,0,,11,,,70,127
70443,note_on,0,0,0,,5,,,77,127
70512,note_off,69,0,0,,5,,,77,127
70513,note_on,1,0,0,,3,,,75,127
70582,note_off,69,0,0,,3,,,75,127
70582,note_off,0,0,0,,11,,,70,127
70583,note_on,1,0,0,,10,,,69,127
70583,note_on,0,0,0,,2,,,74,127
70652,note_off,69,0,0,,2,,,74,127
70653,note_on,1,0,0,,0,,,72,127
70722,note_off,69,0,0,,0,,,72,127
70722,note_off,0,0,0,,10,,,69,127
70723,note_on,1,0,0,,11,,,70,127
70723,note_on,0,0,0,,2,,,74,127
70855,note_off,132,0,0,,2,,,74,127
70862,note_off,7,0,0,,11,,,70,127
70863,note_on,1,0,0,,2,,,74,127
71002,note_off,139,0,0,,2,,,74,127
71003,note_on,1,0,0,,11,,,70,127
71142,note_off,139,0,0,,11,,,70,127
71143,note_on,1,0,0,,7,,,67,127
71282,note_off,139,0,0,,7,,,67,127
71283,note_on,1,0,0,,2,,,74,127
71423,note_on,140,0,0,,7,,,79,127
71492,note_off,69,0,0,,7,,,79,127
71493,note_on,1,0,0,,5,,,77,127
71562,note_off,69,0,0,,5,,,77,127
71562,note_off,0,0,0,,2,,,74,127
71563,note_on,1,0,0,,0,,,72,127
71563,note_on,0,0,0,,7,,,79,127
71632,note_off,69,0,0,,7,,,79,127
71633,note_on,1,0,0,,5,,,77,127
71702,note_off,69,0,0,,5,,,77,127
71702,note_off,0,0,0,,0,,,72,127
71703,note_on,1,0,0,,12,,,71,127
71703,note_on,0,0,0,,4,,,76,127
71772,note_off,69,0,0,,4,,,76,127
71773,note_on,1,0,0,,2,,,74,127
71842,note_off,69,0,0,,2,,,74,127
71842,note_off,0,0,0,,12,,,71,127
71843,note_on,1,0,0,,0,,,72,127
71843,note_on,0,0,0,,4,,,76,127
71982,note_off,139,0,0,,0,,,72,127
71983,note_on,1,0,0,,7,,,79,127
72121,note_off,138,0,0,,4,,,76,127
72122,note_off,1,0,0,,7,,,79,127
72123,note_on,1,0,0,,4,,,76,127
72262,note_off,139,0,0,,4,,,76,127
72263,note_on,1,0,0,,0,,,72,127
72402,note_off,139,0,0,,0,,,72,127
72403,note_on,1,0,0,,7,,,79,127
72543,note_on,140,0,0,,0,,,84,127
72612,note_off,69,0,0,,0,,,84,127
72613,note_on,1,0,0,,11,,,82,127
72682,note_off,69,0,0,,11,,,82,127
72682,note_off,0,0,0,,7,,,79,127
72683,note_on,1,0,0,,5,,,77,127
72683,note_on,0,0,0,,0,,,84,127
72752,note_off,69,0,0,,0,,,84,127
72753,note_on,1,0,0,,11,,,82,127
72822,note_off,69,0,0,,11,,,82,127
72822,note_off,0,0,0,,5,,,77,127
72823,note_on,1,0,0,,4,,,76,127
72823,note_on,0,0,0,,10,,,81,127
72892,note_off,69,0,0,,10,,,81,127
72893,note_on,1,0,0,,7,,,79,127
72962,note_off,69,0,0,,7,,,79,127
72962,note_off,0,0,0,,4,,,76,127
72963,note_on,1,0,0,,5,,,77,127
72963,note_on,0,0,0,,10,,,81,127
73102,note_off,139,0,0,,5,,,77,127
73103,note_on,1,0,0,,0,,,84,127
73241,note_off,138,0,0,,10,,,81,127
73242,note_off,1,0,0,,0,,,84,127
73243,note_on,1,0,0,,10,,,81,127
73382,note_off,139,0,0,,10,,,81,127
73383,note_on,1,0,0,,5,,,77,127
73499,note_off,116,0,0,,5,,,77,127
73524,note_on,25,0,0,,5,,,89,127
73664,note_on,140,0,0,,0,,,72,127
73803,note_off,139,0,0,,0,,,72,127
73804,note_on,1,0,0,,10,,,69,127
73943,note_off,139,0,0,,10,,,69,127
73944,note_on,1,0,0,,5,,,65,127
74083,note_off,139,0,0,,5,,,65,127
74084,note_on,1,0,0,,11,,,46,127
74084,note_on,0,0,0,,11,,,58,127
74223,note_off,139,0,0,,5,,,89,127
74224,note_on,1,0,0,,2,,,86,127
74363,note_off,139,0,0,,2,,,86,127
74364,note_on,1,0,0,,11,,,82,127
74503,note_off,139,0,0,,11,,,82,127
74504,note_on,1,0,0,,7,,,79,127
74643,note_off,139,0,0,,11,,,58,127
74643,note_off,0,0,0,,11,,,46,127
74644,note_on,1,0,0,,0,,,48,127
74644,note_on,0,0,0,,0,,,60,127
74783,note_off,139,0,0,,7,,,79,127
74784,note_on,1,0,0,,5,,,77,127
74923,note_off,139,0,0,,5,,,77,127
74924,note_on,1,0,0,,5,,,77,127
75063,note_off,139,0,0,,5,,,77,127
75064,note_on,1,0,0,,4,,,76,127
75203,note_off,139,0,0,,4,,,76,127
75203,note_off,0,0,0,,0,,,60,127
75203,note_off,0,0,0,,0,,,48,127
75204,note_on,1,0,0,,2,,,50,127
75204,note_on,0,0,0,,5,,,77,127
75344,note_on,140,0,0,,5,,,89,127
75452,note_off,108,0,0,,5,,,77,127
75483,note_off,31,0,0,,5,,,89,127
75484,note_on,1,0,0,,2,,,86,127
75623,note_off,139,0,0,,2,,,86,127
75624,note_on,1,0,0,,12,,,83,127
75763,note_off,139,0,0,,12,,,83,127
75764,note_on,1,0,0,,5,,,77,127
75903,note_off,139,0,0,,5,,,77,127
75904,note_on,1,0,0,,2,,,74,127
76043,note_off,139,0,0,,2,,,74,127
76043,note_off,0,0,0,,2,,,50,127
76044,note_on,1,0,0,,12,,,71,127
76183,note_off,139,0,0,,12,,,71,127
76184,note_on,1,0,0,,5,,,65,127
76323,note_off,139,0,0,,5,,,65,127
76324,note_on,1,0,0,,0,,,48,127
76324,note_on,0,0,0,,4,,,64,127
76463,note_off,139,0,0,,4,,,64,127
76464,note_on,1,0,0,,7,,,67,127
76603,note_off,139,0,0,,7,,,67,127
76604,note_on,1,0,0,,4,,,64,127
76743,note_off,139,0,0,,4,,,64,127
76744,note_on,1,0,0,,0,,,60,127
76876,note_off,132,0,0,,0,,,60,127
76883,note_off,7,0,0,,0,,,48,127
76884,note_on,1,0,0,,7,,,67,127
77024,note_on,140,0,0,,0,,,72,127
77093,note_off,69,0,0,,0,,,72,127
77094,note_on,1,0,0,,11,,,70,127
77163,note_off,69,0,0,,11,,,70,127
77163,note_off,0,0,0,,7,,,67,127
77164,note_on,1,0,0,,5,,,65,127
77164,note_on,0,0,0,,0,,,72,127
77233,note_off,69,0,0,,0,,,72,127
77234,note_on,1,0,0,,11,,,70,127
77303,note_off,69,0,0,,11,,,70,127
77303,note_off,0,0,0,,5,,,65,127
77304,note_on,1,0,0,,4,,,64,127
77304,note_on,0,0,0,,10,,,69,127
77373,note_off,69,0,0,,10,,,69,127
77374,note_on,1,0,0,,7,,,67,127
77443,note_off,69,0,0,,7,,,67,127
77443,note_off,0,0,0,,4,,,64,127
77444,note_on,1,0,0,,5,,,65,127
77444,note_on,0,0,0,,10,,,69,127
77583,note_off,139,0,0,,5,,,65,127
77584,note_on,1,0,0,,0,,,72,127
77722,note_off,138,0,0,,10,,,69,127
77723,note_off,1,0,0,,0,,,72,127
77724,note_on,1,0,0,,10,,,69,127
77863,note_off,139,0,0,,10,,,69,127
77864,note_on,1,0,0,,5,,,65,127
78003,note_off,139,0,0,,5,,,65,127
78004,note_on,1,0,0,,0,,,72,127
78144,note_on,140,0,0,,5,,,77,127
78213,note_off,69,0,0,,5,,,77,127
78214,note_on,1,0,0,,3,,,75,127
78283,note_off,69,0,0,,3,,,75,127
78283,note_off,0,0,0,,0,,,72,127
78284,note_on,1,0,0,,11,,,70,127
78284,note_on,0,0,0,,5,,,77,127
78353,note_off,69,0,0,,5,,,77,127
78354,note_on,1,0,0,,3,,,75,127
78423,note_off,69,0,0,,3,,,75,127
78423,note_off,0,0,0,,11,,,70,127
78424,note_on,1,0,0,,10,,,69,127
78424,note_on,0,0,0,,2,,,74,127
78493,note_off,69,0,0,,2,,,74,127
78494,note_on,1,0,0,,0,,,72,127
78563,note_off,69,0,0,,0,,,72,127
78563,note_off,0,0,0,,10,,,69,127
78564,note_on,1,0,0,,11,,,70,127
78564,note_on,0,0,0,,2,,,74,127
78696,note_off,132,0,0,,2,,,74,127
78703,note_off,7,0,0,,11,,,70,127
78704,note_on,1,0,0,,2,,,74,127
78843,note_off,139,0,0,,2,,,74,127
78844,note_on,1,0,0,,11,,,70,127
78983,note_off,139,0,0,,11,,,70,127
78984,note_on,1,0,0,,7,,,67,127
79123,note_off,139,0,0,,7,,,67,127
79124,note_on,1,0,0,,2,,,74,127
79264,note_on,140,0,0,,7,,,79,127
79333,note_off,69,0,0,,7,,,79,127
79334,note_on,1,0,0,,5,,,77,127
79403,note_off,69,0,0,,5,,,77,127
79403,note_off,0,0,0,,2,,,74,127
79404,note_on,1,0,0,,0,,,72,127
79404,note_on,0,0,0,,7,,,79,127
79473,note_off,69,0,0,,7,,,79,127
79474,note_on,1,0,0,,5,,,77,127
79543,note_off,69,0,0,,5,,,77,127
79543,note_off,0,0,0,,0,,,72,127
79544,note_on,1,0,0,,12,,,71,127
79544,note_on,0,0,0,,4,,,76,127
79613,note_off,69,0,0,,4,,,76,127
79614,note_on,1,0,0,,2,,,74,127
79683,note_off,69,0,0,,2,,,74,127
79683,note_off,0,0,0,,12,,,71,127
79684,note_on,1,0,0,,0,,,72,127
79684,note_on,0,0,0,,4,,,76,127
79823,note_off,139,0,0,,0,,,72,127
79824,note_on,1,0,0,,7,,,79,127
79962,note_off,138,0,0,,4,,,76,127
79963,note_off,1,0,0,,7,,,79,127
79964,note_on,1,0,0,,4,,,76,127
80103,note_off,139,0,0,,4,,,76,127
80104,note_on,1,0,0,,0,,,72,127
80243,note_off,139,0,0,,0,,,72,127
80244,note_on,1,0,0,,7,,,79,127
80384,note_on,140,0,0,,0,,,84,127
80453,note_off,69,0,0,,0,,,84,127
80454,note_on,1,0,0,,11,,,82,127
80523,note_off,69,0,0,,11,,,82,127
80523,note_off,0,0,0,,7,,,79,127
80524,note_on,1,0,0,,5,,,77,127
80524,note_on,0,0,0,,0,,,84,127
80593,note_off,69,0,0,,0,,,84,127
80594,note_on,1,0,0,,11,,,82,127
80663,note_off,69,0,0,,11,,,82,127
80663,note_off,0,0,0,,5,,,77,127
80664,note_on,1,0,0,,4,,,76,127
80664,note_on,0,0,0,,10,,,81,127
80733,note_off,69,0,0,,10,,,81,127
80734,note_on,1,0,0,,7,,,79,127
80803,note_off,69,0,0,,7,,,79,127
80803,note_off,0,0,0,,4,,,76,127
80804,note_on,1,0,0,,5,,,77,127
80804,note_on,0,0,0,,10,,,81,127
80943,note_off,139,0,0,,5,,,77,127
80944,note_on,1,0,0,,0,,,84,127
81082,note_off,138,0,0,,10,,,81,127
81083,note_off,1,0,0,,0,,,84,127
81084,note_on,1,0,0,,10,,,81,127
81223,note_off,139,0,0,,10,,,81,127
81224,note_on,1,0,0,,5,,,77,127
81364,note_on,140,0,0,,5,,,89,127
81503,note_off,139,0,0,,5,,,77,127
81504,note_on,1,0,0,,0,,,72,127
81643,note_off,139,0,0,,0,,,72,127
81644,note_on,1,0,0,,10,,,69,127
81783,note_off,139,0,0,,10,,,69,127
81784,note_on,1,0,0,,5,,,65,127
81923,note_off,139,0,0,,5,,,65,127
81924,note_on,1,0,0,,11,,,46,127
81924,note_on,0,0,0,,11,,,58,127
82063,note_off,139,0,0,,5,,,89,127
82064,note_on,1,0,0,,2,,,86,127
82203,note_off,139,0,0,,2,,,86,127
82204,note_on,1,0,0,,11,,,82,127
82343,note_off,139,0,0,,11,,,82,127
82344,note_on,1,0,0,,7,,,79,127
82483,note_off,139,0,0,,11,,,58,127
82483,note_off,0,0,0,,11,,,46,127
82484,note_on,1,0,0,,0,,,48,127
82484,note_on,0,0,0,,0,,,60,127
82623,note_off,139,0,0,,7,,,79,127
82624,note_on,1,0,0,,5,,,77,127
82763,note_off,139,0,0,,5,,,77,127
82764,note_on,1,0,0,,5,,,77,127
82903,note_off,139,0,0,,5,,,77,127
82904,note_on,1,0,0,,4,,,76,127
83043,note_off,139,0,0,,4,,,76,127
83043,note_off,0,0,0,,0,,,60,127
83043,note_off,0,0,0,,0,,,48,127
83044,note_on,1,0,0,,5,,,53,127
83044,note_on,0,0,0,,5,,,77,127
83324,note_off,280,0,0,,5,,,77,127
83324,note_off,0,0,0,,5,,,53,127
83325,note_on,1,0,0,,5,,,65,127
83325,note_on,0,0,0,,10,,,57,127
83325,note_on,0,0,0,,0,,,84,127
83417,note_off,92,0,0,,0,,,84,127
83418,note_on,1,0,0,,11,,,82,127
83510,note_off,92,0,0,,11,,,82,127
83511,note_on,1,0,0,,10,,,81,127
83603,note_off,92,0,0,,10,,,81,127
83603,note_off,0,0,0,,10,,,57,127
83604,note_on,1,0,0,,11,,,58,127
83604,note_on,0,0,0,,7,,,79,127
83696,note_off,92,0,0,,7,,,79,127
83697,note_on,1,0,0,,5,,,77,127
83789,note_off,92,0,0,,5,,,77,127
83790,note_on,1,0,0,,4,,,76,127
83878,note_off,88,0,0,,5,,,65,127
83882,note_off,4,0,0,,4,,,76,127
83882,note_off,0,0,0,,11,,,58,127
83883,note_on,1,0,0,,0,,,60,127
83883,note_on,0,0,0,,7,,,67,127
83883,note_on,0,0,0,,4,,,64,127
84163,note_off,280,0,0,,4,,,64,127
84163,note_off,0,0,0,,7,,,67,127
84163,note_off,0,0,0,,0,,,60,127
84164,note_on,1,0,0,,10,,,69,127
84164,note_on,0,0,0,,5,,,65,127
84444,note_off,280,0,0,,5,,,65,127
84444,note_off,0,0,0,,10,,,69,127
84445,note_on,1,0,0,,10,,,57,127
84445,note_on,0,0,0,,5,,,65,127
84445,note_on,0,0,0,,0,,,84,127
84537,note_off,92,0,0,,0,,,84,127
84538,note_on,1,0,0,,11,,,82,127
84630,note_off,92,0,0,,11,,,82,127
84631,note_on,1,0,0,,10,,,81,127
84723,note_off,92,0,0,,10,,,81,127
84723,note_off,0,0,0,,10,,,57,127
84724,note_on,1,0,0,,11,,,58,127
84724,note_on,0,0,0,,7,,,79,127
84816,note_off,92,0,0,,7,,,79,127
84817,note_on,1,0,0,,5,,,77,127
84909,note_off,92,0,0,,5,,,77,127
84910,note_on,1,0,0,,4,,,76,127
84998,note_off,88,0,0,,5,,,65,127
85002,note_off,4,0,0,,4,,,76,127
85002,note_off,0,0,0,,11,,,58,127
85003,note_on,1,0,0,,7,,,67,127
85003,note_on,0,0,0,,4,,,64,127
85003,note_on,0,0,0,,0,,,60,127
85283,note_off,280,0,0,,0,,,60,127
85283,note_off,0,0,0,,4,,,64,127
85283,note_off,0,0,0,,7,,,67,127
85284,note_on,1,0,0,,10,,,69,127
85284,note_on,0,0,0,,5,,,65,127
85564,note_off,280,0,0,,5,,,65,127
85564,note_off,0,0,0,,10,,,69,127
85565,note_on,1,0,0,,10,,,57,127
85565,note_on,0,0,0,,0,,,84,127
85845,note_off,280,0,0,,0,,,84,127
85845,note_off,0,0,0,,10,,,57,127
85846,note_on,1,0,0,,11,,,58,127
85846,note_on,0,0,0,,2,,,86,127
85915,note_off,69,0,0,,2,,,86,127
85916,note_on,1,0,0,,4,,,88,127
85985,note_off,69,0,0,,4,,,88,127
85986,note_on,1,0,0,,5,,,89,127
86125,note_off,139,0,0,,5,,,89,127
86125,note_off,0,0,0,,11,,,58,127
86126,note_on,1,0,0,,7,,,55,127
86126,note_on,0,0,0,,4,,,88,127
86265,note_off,139,0,0,,4,,,88,127
86266,note_on,1,0,0,,2,,,86,127
86405,note_off,139,0,0,,2,,,86,127
86405,note_off,0,0,0,,7,,,55,127
86406,note_on,1,0,0,,10,,,57,127
86406,note_on,0,0,0,,2,,,86,127
86475,note_off,69,0,0,,2,,,86,127
86476,note_on,1,0,0,,0,,,84,127
86545,note_off,69,0,0,,0,,,84,127
86546,note_on,1,0,0,,11,,,82,127
86615,note_off,69,0,0,,11,,,82,127
86616,note_on,1,0,0,,0,,,84,127
86685,note_off,69,0,0,,0,,,84,127
86685,note_off,0,0,0,,10,,,57,127
86686,note_on,1,0,0,,11,,,58,127
86686,note_on,0,0,0,,2,,,86,127
86825,note_off,139,0,0,,2,,,86,127
86826,note_on,1,0,0,,11,,,82,127
86965,note_off,139,0,0,,11,,,82,127
86965,note_off,0,0,0,,11,,,58,127
86966,note_on,1,0,0,,0,,,60,127
86966,note_on,0,0,0,,10,,,81,127
87035,note_off,69,0,0,,10,,,81,127
87036,note_on,1,0,0,,7,,,79,127
87105,note_off,69,0,0,,7,,,79,127
87106,note_on,1,0,0,,5,,,77,127
87245,note_off,139,0,0,,5,,,77,127
87245,note_off,0,0,0,,0,,,60,127
87246,note_on,1,0,0,,0,,,48,127
87246,note_on,0,0,0,,7,,,79,127
87385,note_off,139,0,0,,7,,,79,127
87386,note_on,1,0,0,,4,,,76,127
87525,note_off,139,0,0,,4,,,76,127
87525,note_off,0,0,0,,0,,,48,127
87526,note_on,1,0,0,,5,,,53,127
87526,note_on,0,0,0,,5,,,77,127
87806,note_off,280,0,0,,5,,,77,127
87806,note_off,0,0,0,,5,,,53,127
87807,note_on,1,0,0,,10,,,45,127
87807,note_on,0,0,0,,5,,,53,127
87807,note_on,0,0,0,,0,,,72,127
87899,note_off,92,0,0,,0,,,72,127
87900,note_on,1,0,0,,11,,,70,127
87992,note_off,92,0,0,,11,,,70,127
87993,note_on,1,0,0,,10,,,69,127
88085,note_off,92,0,0,,10,,,69,127
88085,note_off,0,0,0,,10,,,45,127
88086,note_on,1,0,0,,11,,,46,127
88086,note_on,0,0,0,,7,,,67,127
88178,note_off,92,0,0,,7,,,67,127
88179,note_on,1,0,0,,5,,,65,127
88271,note_off,92,0,0,,5,,,65,127
88272,note_on,1,0,0,,4,,,64,127
88360,note_off,88,0,0,,5,,,53,127
88364,note_off,4,0,0,,4,,,64,127
88364,note_off,0,0,0,,11,,,46,127
88365,note_on,1,0,0,,4,,,52,127
88365,note_on,0,0,0,,0,,,48,127
88365,note_on,0,0,0,,7,,,55,127
88645,note_off,280,0,0,,7,,,55,127
88645,note_off,0,0,0,,0,,,48,127
88645,note_off,0,0,0,,4,,,52,127
88646,note_on,1,0,0,,10,,,57,127
88646,note_on,0,0,0,,5,,,53,127
88926,note_off,280,0,0,,5,,,53,127
88926,note_off,0,0,0,,10,,,57,127
88927,note_on,1,0,0,,5,,,53,127
88927,note_on,0,0,0,,10,,,45,127
88927,note_on,0,0,0,,0,,,72,127
89019,note_off,92,0,0,,0,,,72,127
89020,note_on,1,0,0,,11,,,70,127
89112,note_off,92,0,0,,11,,,70,127
89113,note_on,1,0,0,,10,,,69,127
89205,note_off,92,0,0,,10,,,69,127
89205,note_off,0,0,0,,10,,,45,127
89206,note_on,1,0,0,,11,,,46,127
89206,note_on,0,0,0,,7,,,67,127
89298,note_off,92,0,0,,7,,,67,127
89299,note_on,1,0,0,,5,,,65,127
89391,note_off,92,0,0,,5,,,65,127
89392,note_on,1,0,0,,4,,,64,127
89480,note_off,88,0,0,,5,,,53,127
89484,note_off,4,0,0,,4,,,64,127
89484,note_off,0,0,0,,11,,,46,127
89485,note_on,1,0,0,,0,,,48,127
89485,note_on,0,0,0,,4,,,52,127
89485,note_on,0,0,0,,7,,,55,127
89765,note_off,280,0,0,,7,,,55,127
89765,note_off,0,0,0,,4,,,52,127
89765,note_off,0,0,0,,0,,,48,127
89766,note_on,1,0,0,,10,,,57,127
89766,note_on,0,0,0,,5,,,53,127
90046,note_off,280,0,0,,5,,,53,127
90046,note_off,0,0,0,,10,,,57,127
90047,note_on,1,0,0,,10,,,57,127
90047,note_on,0,0,0,,0,,,72,127
90327,note_off,280,0,0,,0,,,72,127
90327,note_off,0,0,0,,10,,,57,127
90328,note_on,1,0,0,,11,,,58,127
90328,note_on,0,0,0,,2,,,74,127
90397,note_off,69,0,0,,2,,,74,127
90398,note_on,1,0,0,,4,,,76,127
90467,note_off,69,0,0,,4,,,76,127
90468,note_on,1,0,0,,5,,,77,127
90607,note_off,139,0,0,,5,,,77,127
90607,note_off,0,0,0,,11,,,58,127
90608,note_on,1,0,0,,7,,,55,127
90608,note_on,0,0,0,,4,,,76,127
90747,note_off,139,0,0,,4,,,76,127
90748,note_on,1,0,0,,2,,,74,127
90887,note_off,139,0,0,,2,,,74,127
90887,note_off,0,0,0,,7,,,55,127
90888,note_on,1,0,0,,10,,,57,127
90888,note_on,0,0,0,,2,,,74,127
90957,note_off,69,0,0,,2,,,74,127
90958,note_on,1,0,0,,0,,,72,127
91027,note_off,69,0,0,,0,,,72,127
91028,note_on,1,0,0,,11,,,70,127
91097,note_off,69,0,0,,11,,,70,127
91098,note_on,1,0,0,,0,,,72,127
91167,note_off,69,0,0,,0,,,72,127
91167,note_off,0,0,0,,10,,,57,127
91168,note_on,1,0,0,,11,,,58,127
91168,note_on,0,0,0,,2,,,74,127
91307,note_off,139,0,0,,2,,,74,127
91308,note_on,1,0,0,,11,,,70,127
91447,note_off,139,0,0,,11,,,70,127
91447,note_off,0,0,0,,11,,,58,127
91448,note_on,1,0,0,,0,,,60,127
91448,note_on,0,0,0,,10,,,69,127
91517,note_off,69,0,0,,10,,,69,127
91518,note_on,1,0,0,,7,,,67,127
91587,note_off,69,0,0,,7,,,67,127
91588,note_on,1,0,0,,5,,,65,127
91727,note_off,139,0,0,,5,,,65,127
91727,note_off,0,0,0,,0,,,60,127
91728,note_on,1,0,0,,0,,,48,127
91728,note_on,0,0,0,,7,,,67,127
91867,note_off,139,0,0,,7,,,67,127
91868,note_on,1,0,0,,4,,,64,127
92007,note_off,139,0,0,,4,,,64,127
92007,note_off,0,0,0,,0,,,48,127
92008,note_on,1,0,0,,5,,,53,127
92008,note_on,0,0,0,,5,,,65,127
92147,note_off,139,0,0,,5,,,65,127
92148,note_on,1,0,0,,0,,,60,127
92287,note_off,139,0,0,,0,,,60,127
92287,note_off,0,0,0,,5,,,53,127
92288,note_on,1,0,0,,11,,,46,127
92288,note_on,0,0,0,,2,,,62,127
92427,note_off,139,0,0,,2,,,62,127
92428,note_on,1,0,0,,11,,,58,127
92567,note_off,139,0,0,,11,,,58,127
92567,note_off,0,0,0,,11,,,46,127
92568,note_on,1,0,0,,0,,,48,127
92568,note_on,0,0,0,,10,,,57,127
92707,note_off,139,0,0,,10,,,57,127
92708,note_on,1,0,0,,5,,,65,127
92847,note_off,139,0,0,,5,,,65,127
92847,note_off,0,0,0,,0,,,48,127
92848,note_on,1,0,0,,0,,,36,127
92848,note_on,0,0,0,,7,,,55,127
92987,note_off,139,0,0,,7,,,55,127
92988,note_on,1,0,0,,4,,,64,127
93127,note_off,139,0,0,,4,,,64,127
93127,note_off,0,0,0,,0,,,36,127
93128,note_on,1,0,0,,5,,,41,127
93128,note_on,0,0,0,,4,,,64,127
93549,note_off,421,0,0,,4,,,64,127
93549,note_on,0,0,0,,5,,,65,127
95094,note_off,1545,0,0,,5,,,65,127
95094,note_off,0,0,0,,5,,,41,127
96768,end_of_track,1674,1,0,,,,,,
