tick,type,time,meta,track,program,channel,pitch,tempo,note,velocity
0,copyright,0,1,0,,,,,,
0,program_change,0,0,0,6,0,,,,
0,pitchwheel,0,0,0,,0,0,,,
0,program_change,0,0,0,6,1,,,,
0,pitchwheel,0,0,0,,1,-590,,,
0,program_change,0,0,0,6,2,,,,
0,pitchwheel,0,0,0,,2,-272,,,
0,program_change,0,0,0,6,3,,,,
0,pitchwheel,0,0,0,,3,-353,,,
0,program_change,0,0,0,6,4,,,,
0,pitchwheel,0,0,0,,4,-560,,,
0,program_change,0,0,0,6,5,,,,
0,pitchwheel,0,0,0,,5,-80,,,
0,program_change,0,0,0,6,6,,,,
0,pitchwheel,0,0,0,,6,-625,,,
0,program_change,0,0,0,6,7,,,,
0,pitchwheel,0,0,0,,7,-130,,,
0,program_change,0,0,0,6,8,,,,
0,pitchwheel,0,0,0,,8,-512,,,
0,program_change,0,0,0,6,10,,,,
0,pitchwheel,0,0,0,,10,-464,,,
0,program_change,0,0,0,6,11,,,,
0,pitchwheel,0,0,0,,11,-208,,,
0,program_change,0,0,0,6,12,,,,
0,pitchwheel,0,0,0,,12,-553,,,
0,set_tempo,0,1,0,,,,500000,,
77,note_on,77,0,0,,0,,,84,127
228,note_off,151,0,0,,0,,,84,127
230,note_on,2,0,0,,0,,,84,127
381,note_off,151,0,0,,0,,,84,127
383,note_on,2,0,0,,11,,,82,127
534,note_off,151,0,0,,11,,,82,127
536,note_on,2,0,0,,8,,,80,127
687,note_off,151,0,0,,8,,,80,127
689,note_on,2,0,0,,8,,,80,127
840,note_off,151,0,0,,8,,,80,127
842,note_on,2,0,0,,7,,,79,127
993,note_off,151,0,0,,7,,,79,127
995,note_on,2,0,0,,5,,,77,127
1146,note_off,151,0,0,,5,,,77,127
1148,note_on,2,0,0,,5,,,77,127
1299,note_off,151,0,0,,5,,,77,127
1301,note_on,2,0,0,,3,,,75,127
1452,note_off,151,0,0,,3,,,75,127
1454,note_on,2,0,0,,5,,,77,127
1454,note_on,0,0,0,,1,,,73,127
1605,note_off,151,0,0,,1,,,73,127
1607,note_on,2,0,0,,1,,,73,127
1758,note_off,151,0,0,,1,,,73,127
1760,note_on,2,0,0,,0,,,72,127
1911,note_off,151,0,0,,0,,,72,127
1913,note_on,2,0,0,,11,,,70,127
2064,note_off,151,0,0,,11,,,70,127
2066,note_on,2,0,0,,11,,,70,127
2217,note_off,151,0,0,,11,,,70,127
2219,note_on,2,0,0,,8,,,68,127
2370,note_off,151,0,0,,8,,,68,127
2371,note_off,1,0,0,,5,,,77,127
2373,note_on,2,0,0,,7,,,67,127
2373,note_on,0,0,0,,4,,,76,127
2524,note_off,151,0,0,,4,,,76,127
2526,note_on,2,0,0,,5,,,77,127
2677,note_off,151,0,0,,5,,,77,127
2679,note_on,2,0,0,,4,,,76,127
2830,note_off,151,0,0,,4,,,76,127
2832,note_off,2,0,0,,7,,,67,127
2833,note_on,1,0,0,,5,,,65,127
2833,note_on,0,0,0,,5,,,77,127
2984,note_off,151,0,0,,5,,,65,127
2986,note_on,2,0,0,,5,,,65,127
3137,note_off,151,0,0,,5,,,65,127
3139,note_on,2,0,0,,3,,,63,127
3290,note_off,151,0,0,,3,,,63,127
3292,note_on,2,0,0,,1,,,61,127
3443,note_off,151,0,0,,1,,,61,127
3445,note_on,2,0,0,,1,,,61,127
3596,note_off,151,0,0,,1,,,61,127
3596,note_off,0,0,0,,5,,,77,127
3598,note_on,2,0,0,,0,,,60,127
3598,note_on,0,0,0,,3,,,75,127
3749,note_off,151,0,0,,3,,,75,127
3749,note_off,0,0,0,,0,,,60,127
3751,note_on,2,0,0,,11,,,58,127
3751,note_on,0,0,0,,1,,,73,127
3902,note_off,151,0,0,,11,,,58,127
3904,note_on,2,0,0,,11,,,58,127
4055,note_off,151,0,0,,11,,,58,127
4055,note_off,0,0,0,,1,,,73,127
4057,note_on,2,0,0,,8,,,56,127
4057,note_on,0,0,0,,0,,,72,127
4208,note_off,151,0,0,,0,,,72,127
4208,note_off,0,0,0,,8,,,56,127
4210,note_on,2,0,0,,7,,,55,127
4210,note_on,0,0,0,,11,,,70,127
4361,note_off,151,0,0,,11,,,70,127
4361,note_off,0,0,0,,7,,,55,127
4363,note_on,2,0,0,,5,,,53,127
4363,note_on,0,0,0,,8,,,68,127
4514,note_off,151,0,0,,8,,,68,127
4514,note_off,0,0,0,,5,,,53,127
4516,note_on,2,0,0,,4,,,52,127
4516,note_on,0,0,0,,7,,,67,127
4667,note_off,151,0,0,,7,,,67,127
4667,note_off,0,0,0,,4,,,52,127
4669,note_on,2,0,0,,5,,,53,127
4669,note_on,0,0,0,,8,,,68,127
4820,note_off,151,0,0,,8,,,68,127
4822,note_on,2,0,0,,11,,,70,127
4973,note_off,151,0,0,,11,,,70,127
4973,note_off,0,0,0,,5,,,53,127
4975,note_on,2,0,0,,3,,,51,127
4975,note_on,0,0,0,,0,,,72,127
5126,note_off,151,0,0,,0,,,72,127
5126,note_off,0,0,0,,3,,,51,127
5128,note_on,2,0,0,,1,,,49,127
5128,note_on,0,0,0,,7,,,67,127
5166,note_on,38,0,0,,5,,,65,127
5176,note_off,10,0,0,,7,,,67,127
5205,note_on,29,0,0,,7,,,67,127
5215,note_off,10,0,0,,5,,,65,127
5244,note_on,29,0,0,,5,,,65,127
5254,note_off,10,0,0,,7,,,67,127
5283,note_on,29,0,0,,4,,,64,127
5293,note_off,10,0,0,,5,,,65,127
5435,note_off,142,0,0,,4,,,64,127
5435,note_off,0,0,0,,1,,,49,127
5437,note_on,2,0,0,,11,,,58,127
5437,note_on,0,0,0,,5,,,65,127
5588,note_off,151,0,0,,5,,,65,127
5588,note_off,0,0,0,,11,,,58,127
5590,note_on,2,0,0,,0,,,48,127
5590,note_on,0,0,0,,7,,,67,127
5744,note_on,154,0,0,,7,,,55,127
5894,note_off,150,0,0,,7,,,67,127
5895,note_off,1,0,0,,7,,,55,127
5897,note_on,2,0,0,,0,,,60,127
6048,note_off,151,0,0,,0,,,60,127
6050,note_off,2,0,0,,0,,,48,127
6051,note_on,1,0,0,,1,,,49,127
6051,note_on,0,0,0,,7,,,79,127
6089,note_on,38,0,0,,5,,,77,127
6099,note_off,10,0,0,,7,,,79,127
6128,note_on,29,0,0,,7,,,79,127
6138,note_off,10,0,0,,5,,,77,127
6167,note_on,29,0,0,,5,,,77,127
6177,note_off,10,0,0,,7,,,79,127
6206,note_on,29,0,0,,5,,,53,127
6206,note_on,0,0,0,,4,,,76,127
6216,note_off,10,0,0,,5,,,77,127
6358,note_off,142,0,0,,4,,,76,127
6358,note_off,0,0,0,,5,,,53,127
6360,note_on,2,0,0,,11,,,58,127
6360,note_on,0,0,0,,5,,,77,127
6511,note_off,151,0,0,,5,,,77,127
6511,note_off,0,0,0,,11,,,58,127
6513,note_off,2,0,0,,1,,,49,127
6514,note_on,1,0,0,,0,,,48,127
6514,note_on,0,0,0,,7,,,79,127
6668,note_on,154,0,0,,7,,,55,127
6819,note_off,151,0,0,,7,,,55,127
6819,note_off,0,0,0,,7,,,79,127
6821,note_on,2,0,0,,0,,,60,127
6821,note_on,0,0,0,,0,,,84,127
6972,note_off,151,0,0,,0,,,84,127
6972,note_off,0,0,0,,0,,,60,127
6974,note_off,2,0,0,,0,,,48,127
6975,note_on,1,0,0,,1,,,49,127
6975,note_on,0,0,0,,7,,,79,127
7013,note_on,38,0,0,,5,,,77,127
7023,note_off,10,0,0,,7,,,79,127
7052,note_on,29,0,0,,7,,,79,127
7062,note_off,10,0,0,,5,,,77,127
7091,note_on,29,0,0,,5,,,77,127
7101,note_off,10,0,0,,7,,,79,127
7130,note_on,29,0,0,,5,,,53,127
7130,note_on,0,0,0,,4,,,76,127
7140,note_off,10,0,0,,5,,,77,127
7282,note_off,142,0,0,,4,,,76,127
7282,note_off,0,0,0,,5,,,53,127
7284,note_on,2,0,0,,11,,,58,127
7284,note_on,0,0,0,,5,,,77,127
7435,note_off,151,0,0,,5,,,77,127
7435,note_off,0,0,0,,11,,,58,127
7437,note_off,2,0,0,,1,,,49,127
7438,note_on,1,0,0,,0,,,48,127
7438,note_on,0,0,0,,7,,,79,127
7592,note_on,154,0,0,,7,,,55,127
7743,note_off,151,0,0,,7,,,55,127
7743,note_off,0,0,0,,7,,,79,127
7745,note_on,2,0,0,,0,,,60,127
7745,note_on,0,0,0,,0,,,84,127
7896,note_off,151,0,0,,0,,,84,127
7896,note_off,0,0,0,,0,,,60,127
7898,note_off,2,0,0,,0,,,48,127
7899,note_on,1,0,0,,1,,,49,127
7899,note_on,0,0,0,,7,,,79,127
7937,note_on,38,0,0,,5,,,77,127
7947,note_off,10,0,0,,7,,,79,127
7976,note_on,29,0,0,,7,,,79,127
7986,note_off,10,0,0,,5,,,77,127
8015,note_on,29,0,0,,5,,,77,127
8025,note_off,10,0,0,,7,,,79,127
8054,note_on,29,0,0,,5,,,53,127
8054,note_on,0,0,0,,4,,,76,127
8064,note_off,10,0,0,,5,,,77,127
8206,note_off,142,0,0,,4,,,76,127
8206,note_off,0,0,0,,5,,,53,127
8208,note_on,2,0,0,,11,,,58,127
8208,note_on,0,0,0,,5,,,77,127
8359,note_off,151,0,0,,5,,,77,127
8359,note_off,0,0,0,,11,,,58,127
8361,note_off,2,0,0,,1,,,49,127
8362,note_on,1,0,0,,0,,,48,127
8362,note_on,0,0,0,,8,,,80,127
8667,note_off,305,0,0,,8,,,80,127
8669,note_on,2,0,0,,7,,,79,127
8820,note_off,151,0,0,,7,,,79,127
8822,note_off,2,0,0,,0,,,48,127
8823,note_on,1,0,0,,7,,,67,127
8974,note_off,151,0,0,,7,,,67,127
8976,note_on,2,0,0,,7,,,67,127
9127,note_off,151,0,0,,7,,,67,127
9129,note_on,2,0,0,,0,,,60,127
9129,note_on,0,0,0,,7,,,67,127
9280,note_off,151,0,0,,7,,,67,127
9280,note_off,0,0,0,,0,,,60,127
9282,note_on,2,0,0,,5,,,65,127
9282,note_on,0,0,0,,8,,,68,127
9433,note_off,151,0,0,,8,,,68,127
9435,note_on,2,0,0,,8,,,68,127
9586,note_off,151,0,0,,8,,,68,127
9586,note_off,0,0,0,,5,,,65,127
9588,note_on,2,0,0,,3,,,63,127
9588,note_on,0,0,0,,10,,,69,127
9739,note_off,151,0,0,,10,,,69,127
9739,note_off,0,0,0,,3,,,63,127
9741,note_on,2,0,0,,1,,,61,127
9741,note_on,0,0,0,,11,,,70,127
9892,note_off,151,0,0,,11,,,70,127
9894,note_on,2,0,0,,11,,,70,127
10045,note_off,151,0,0,,11,,,70,127
10045,note_off,0,0,0,,1,,,61,127
10047,note_on,2,0,0,,0,,,60,127
10047,note_on,0,0,0,,0,,,72,127
10198,note_off,151,0,0,,0,,,72,127
10198,note_off,0,0,0,,0,,,60,127
10200,note_on,2,0,0,,11,,,58,127
10200,note_on,0,0,0,,1,,,73,127
10351,note_off,151,0,0,,1,,,73,127
10353,note_on,2,0,0,,1,,,73,127
10504,note_off,151,0,0,,1,,,73,127
10504,note_off,0,0,0,,11,,,58,127
10506,note_on,2,0,0,,8,,,56,127
10506,note_on,0,0,0,,2,,,74,127
10657,note_off,151,0,0,,2,,,74,127
10657,note_off,0,0,0,,8,,,56,127
10659,note_on,2,0,0,,7,,,55,127
10659,note_on,0,0,0,,3,,,75,127
10810,note_off,151,0,0,,3,,,75,127
10812,note_on,2,0,0,,3,,,75,127
10963,note_off,151,0,0,,3,,,75,127
10963,note_off,0,0,0,,7,,,55,127
10965,note_on,2,0,0,,5,,,53,127
10965,note_on,0,0,0,,5,,,77,127
11116,note_off,151,0,0,,5,,,77,127
11116,note_off,0,0,0,,5,,,53,127
11118,note_on,2,0,0,,3,,,51,127
11118,note_on,0,0,0,,3,,,75,127
11118,note_on,0,0,0,,7,,,79,127
11269,note_off,151,0,0,,7,,,79,127
11269,note_off,0,0,0,,3,,,75,127
11271,note_on,2,0,0,,5,,,77,127
11271,note_on,0,0,0,,8,,,80,127
11422,note_off,151,0,0,,8,,,80,127
11422,note_off,0,0,0,,5,,,77,127
11422,note_off,0,0,0,,3,,,51,127
11424,note_on,2,0,0,,7,,,55,127
11424,note_on,0,0,0,,11,,,82,127
11424,note_on,0,0,0,,7,,,79,127
11575,note_off,151,0,0,,7,,,79,127
11575,note_off,0,0,0,,11,,,82,127
11575,note_off,0,0,0,,7,,,55,127
11577,note_on,2,0,0,,8,,,56,127
11577,note_on,0,0,0,,5,,,77,127
11577,note_on,0,0,0,,8,,,80,127
11728,note_off,151,0,0,,8,,,80,127
11728,note_off,0,0,0,,5,,,77,127
11728,note_off,0,0,0,,8,,,56,127
11730,note_on,2,0,0,,11,,,58,127
11730,note_on,0,0,0,,3,,,75,127
11730,note_on,0,0,0,,7,,,79,127
11881,note_off,151,0,0,,7,,,79,127
11881,note_off,0,0,0,,3,,,75,127
11881,note_off,0,0,0,,11,,,58,127
11883,note_on,2,0,0,,11,,,46,127
11883,note_on,0,0,0,,2,,,74,127
11883,note_on,0,0,0,,5,,,77,127
12034,note_off,151,0,0,,5,,,77,127
12034,note_off,0,0,0,,2,,,74,127
12034,note_off,0,0,0,,11,,,46,127
12036,note_on,2,0,0,,3,,,51,127
12036,note_on,0,0,0,,3,,,75,127
12036,note_on,0,0,0,,7,,,79,127
12420,note_off,384,0,0,,7,,,79,127
12420,note_off,0,0,0,,3,,,75,127
12496,note_off,76,0,0,,3,,,51,127
12497,note_on,1,0,0,,7,,,67,127
12648,note_off,151,0,0,,7,,,67,127
12650,note_on,2,0,0,,7,,,67,127
12801,note_off,151,0,0,,7,,,67,127
12803,note_on,2,0,0,,3,,,63,127
12803,note_on,0,0,0,,7,,,67,127
12954,note_off,151,0,0,,7,,,67,127
12954,note_off,0,0,0,,3,,,63,127
12956,note_on,2,0,0,,5,,,65,127
12956,note_on,0,0,0,,8,,,68,127
13107,note_off,151,0,0,,8,,,68,127
13109,note_on,2,0,0,,8,,,68,127
13260,note_off,151,0,0,,8,,,68,127
13260,note_off,0,0,0,,5,,,65,127
13262,note_on,2,0,0,,3,,,63,127
13262,note_on,0,0,0,,10,,,69,127
13413,note_off,151,0,0,,10,,,69,127
13413,note_off,0,0,0,,3,,,63,127
13415,note_on,2,0,0,,2,,,62,127
13415,note_on,0,0,0,,12,,,71,127
13566,note_off,151,0,0,,12,,,71,127
13568,note_on,2,0,0,,12,,,71,127
13719,note_off,151,0,0,,12,,,71,127
13719,note_off,0,0,0,,2,,,62,127
13721,note_on,2,0,0,,0,,,60,127
13721,note_on,0,0,0,,0,,,72,127
13872,note_off,151,0,0,,0,,,72,127
13872,note_off,0,0,0,,0,,,60,127
13874,note_on,2,0,0,,12,,,59,127
13874,note_on,0,0,0,,2,,,74,127
14025,note_off,151,0,0,,2,,,74,127
14027,note_on,2,0,0,,2,,,74,127
14178,note_off,151,0,0,,2,,,74,127
14178,note_off,0,0,0,,12,,,59,127
14180,note_on,2,0,0,,10,,,57,127
14180,note_on,0,0,0,,3,,,75,127
14331,note_off,151,0,0,,3,,,75,127
14331,note_off,0,0,0,,10,,,57,127
14333,note_on,2,0,0,,7,,,55,127
14333,note_on,0,0,0,,5,,,77,127
14484,note_off,151,0,0,,5,,,77,127
14486,note_on,2,0,0,,7,,,79,127
14637,note_off,151,0,0,,7,,,79,127
14637,note_off,0,0,0,,7,,,55,127
14639,note_on,2,0,0,,12,,,59,127
14639,note_on,0,0,0,,2,,,74,127
14790,note_off,151,0,0,,2,,,74,127
14790,note_off,0,0,0,,12,,,59,127
14792,note_on,2,0,0,,0,,,60,127
14792,note_on,0,0,0,,3,,,75,127
14943,note_off,151,0,0,,3,,,75,127
14945,note_on,2,0,0,,5,,,77,127
15096,note_off,151,0,0,,5,,,77,127
15096,note_off,0,0,0,,0,,,60,127
15098,note_on,2,0,0,,0,,,48,127
15098,note_on,0,0,0,,7,,,79,127
15249,note_off,151,0,0,,7,,,79,127
15249,note_off,0,0,0,,0,,,48,127
15251,note_on,2,0,0,,8,,,44,127
15251,note_on,0,0,0,,2,,,74,127
15289,note_on,38,0,0,,0,,,72,127
15299,note_off,10,0,0,,2,,,74,127
15328,note_on,29,0,0,,2,,,74,127
15338,note_off,10,0,0,,0,,,72,127
15367,note_on,29,0,0,,0,,,72,127
15377,note_off,10,0,0,,2,,,74,127
15406,note_on,29,0,0,,12,,,71,127
15416,note_off,10,0,0,,0,,,72,127
15558,note_off,142,0,0,,12,,,71,127
15558,note_off,0,0,0,,8,,,44,127
15560,note_on,2,0,0,,5,,,53,127
15560,note_on,0,0,0,,0,,,72,127
15711,note_off,151,0,0,,0,,,72,127
15711,note_off,0,0,0,,5,,,53,127
15713,note_on,2,0,0,,7,,,43,127
15713,note_on,0,0,0,,2,,,74,127
15867,note_on,154,0,0,,7,,,67,127
16018,note_off,151,0,0,,7,,,67,127
16018,note_off,0,0,0,,7,,,43,127
16020,note_on,2,0,0,,7,,,55,127
16020,note_on,0,0,0,,7,,,67,127
16171,note_off,151,0,0,,7,,,67,127
16171,note_off,0,0,0,,7,,,55,127
16173,note_off,2,0,0,,2,,,74,127
16174,note_on,1,0,0,,5,,,53,127
16174,note_on,0,0,0,,0,,,72,127
16174,note_on,0,0,0,,11,,,70,127
16212,note_on,38,0,0,,8,,,68,127
16222,note_off,10,0,0,,11,,,70,127
16251,note_on,29,0,0,,11,,,70,127
16261,note_off,10,0,0,,8,,,68,127
16290,note_on,29,0,0,,8,,,68,127
16300,note_off,10,0,0,,11,,,70,127
16329,note_on,29,0,0,,7,,,67,127
16339,note_off,10,0,0,,8,,,68,127
16481,note_off,142,0,0,,7,,,67,127
16481,note_off,0,0,0,,5,,,53,127
16483,note_on,2,0,0,,0,,,60,127
16483,note_on,0,0,0,,8,,,68,127
16634,note_off,151,0,0,,8,,,68,127
16634,note_off,0,0,0,,0,,,60,127
16636,note_off,2,0,0,,0,,,72,127
16637,note_on,1,0,0,,7,,,55,127
16637,note_on,0,0,0,,7,,,67,127
16637,note_on,0,0,0,,12,,,71,127
16788,note_off,151,0,0,,7,,,55,127
16790,note_on,2,0,0,,2,,,62,127
16941,note_off,151,0,0,,2,,,62,127
16943,note_on,2,0,0,,5,,,65,127
17094,note_off,151,0,0,,5,,,65,127
17094,note_off,0,0,0,,12,,,71,127
17096,note_on,2,0,0,,3,,,63,127
17096,note_on,0,0,0,,0,,,72,127
17247,note_off,151,0,0,,3,,,63,127
17249,note_on,2,0,0,,2,,,62,127
17400,note_off,151,0,0,,2,,,62,127
17402,note_on,2,0,0,,0,,,60,127
17553,note_off,151,0,0,,0,,,60,127
17553,note_off,0,0,0,,0,,,72,127
17554,note_off,1,0,0,,7,,,67,127
17556,note_on,2,0,0,,12,,,59,127
17556,note_on,0,0,0,,2,,,62,127
17556,note_on,0,0,0,,2,,,74,127
17556,note_on,0,0,0,,7,,,67,127
17607,note_on,51,0,0,,0,,,72,127
17610,note_off,3,0,0,,2,,,74,127
17658,note_on,48,0,0,,2,,,74,127
17661,note_off,3,0,0,,0,,,72,127
17709,note_on,48,0,0,,3,,,75,127
17712,note_off,3,0,0,,2,,,74,127
17860,note_off,148,0,0,,3,,,75,127
17860,note_off,0,0,0,,12,,,59,127
17862,note_on,2,0,0,,7,,,55,127
17862,note_on,0,0,0,,5,,,77,127
18013,note_off,151,0,0,,5,,,77,127
18013,note_off,0,0,0,,7,,,55,127
18015,note_off,2,0,0,,2,,,62,127
18016,note_on,1,0,0,,0,,,60,127
18016,note_on,0,0,0,,3,,,63,127
18016,note_on,0,0,0,,5,,,77,127
18016,note_on,0,0,0,,3,,,75,127
18167,note_off,151,0,0,,3,,,75,127
18167,note_off,0,0,0,,5,,,77,127
18169,note_on,2,0,0,,2,,,74,127
18320,note_off,151,0,0,,2,,,74,127
18320,note_off,0,0,0,,0,,,60,127
18322,note_on,2,0,0,,5,,,53,127
18322,note_on,0,0,0,,0,,,72,127
18322,note_on,0,0,0,,3,,,75,127
18473,note_off,151,0,0,,3,,,75,127
18473,note_off,0,0,0,,0,,,72,127
18473,note_off,0,0,0,,5,,,53,127
18474,note_off,1,0,0,,7,,,67,127
18475,note_off,1,0,0,,3,,,63,127
18476,note_on,1,0,0,,7,,,55,127
18476,note_on,0,0,0,,2,,,74,127
18476,note_on,0,0,0,,12,,,71,127
18476,note_on,0,0,0,,7,,,67,127
18627,note_off,151,0,0,,7,,,67,127
18627,note_off,0,0,0,,12,,,71,127
18629,note_on,2,0,0,,7,,,67,127
18780,note_off,151,0,0,,7,,,67,127
18782,note_on,2,0,0,,7,,,67,127
18933,note_off,151,0,0,,7,,,67,127
18933,note_off,0,0,0,,7,,,55,127
18935,note_off,2,0,0,,2,,,74,127
18936,note_on,1,0,0,,5,,,53,127
18936,note_on,0,0,0,,0,,,72,127
18936,note_on,0,0,0,,11,,,70,127
18974,note_on,38,0,0,,8,,,68,127
18984,note_off,10,0,0,,11,,,70,127
19013,note_on,29,0,0,,11,,,70,127
19023,note_off,10,0,0,,8,,,68,127
19052,note_on,29,0,0,,8,,,68,127
19062,note_off,10,0,0,,11,,,70,127
19091,note_on,29,0,0,,7,,,67,127
19101,note_off,10,0,0,,8,,,68,127
19243,note_off,142,0,0,,7,,,67,127
19243,note_off,0,0,0,,5,,,53,127
19245,note_on,2,0,0,,0,,,60,127
19245,note_on,0,0,0,,8,,,68,127
19396,note_off,151,0,0,,8,,,68,127
19396,note_off,0,0,0,,0,,,60,127
19398,note_off,2,0,0,,0,,,72,127
19399,note_on,1,0,0,,7,,,55,127
19399,note_on,0,0,0,,12,,,71,127
19399,note_on,0,0,0,,7,,,67,127
19550,note_off,151,0,0,,7,,,55,127
19552,note_on,2,0,0,,2,,,62,127
19703,note_off,151,0,0,,2,,,62,127
19705,note_on,2,0,0,,5,,,65,127
19856,note_off,151,0,0,,5,,,65,127
19856,note_off,0,0,0,,12,,,71,127
19858,note_on,2,0,0,,3,,,63,127
19858,note_on,0,0,0,,0,,,72,127
20009,note_off,151,0,0,,3,,,63,127
20011,note_on,2,0,0,,2,,,62,127
20162,note_off,151,0,0,,2,,,62,127
20164,note_on,2,0,0,,0,,,60,127
20315,note_off,151,0,0,,0,,,60,127
20315,note_off,0,0,0,,0,,,72,127
20316,note_off,1,0,0,,7,,,67,127
20318,note_on,2,0,0,,12,,,59,127
20318,note_on,0,0,0,,2,,,62,127
20318,note_on,0,0,0,,7,,,67,127
20318,note_on,0,0,0,,2,,,74,127
20369,note_on,51,0,0,,0,,,72,127
20372,note_off,3,0,0,,2,,,74,127
20420,note_on,48,0,0,,2,,,74,127
20423,note_off,3,0,0,,0,,,72,127
20471,note_on,48,0,0,,3,,,75,127
20474,note_off,3,0,0,,2,,,74,127
20622,note_off,148,0,0,,3,,,75,127
20622,note_off,0,0,0,,12,,,59,127
20624,note_on,2,0,0,,7,,,55,127
20624,note_on,0,0,0,,5,,,77,127
20775,note_off,151,0,0,,5,,,77,127
20775,note_off,0,0,0,,7,,,55,127
20777,note_off,2,0,0,,2,,,62,127
20778,note_on,1,0,0,,0,,,60,127
20778,note_on,0,0,0,,3,,,63,127
20778,note_on,0,0,0,,5,,,77,127
20778,note_on,0,0,0,,3,,,75,127
20929,note_off,151,0,0,,3,,,75,127
20929,note_off,0,0,0,,5,,,77,127
20931,note_on,2,0,0,,2,,,74,127
21082,note_off,151,0,0,,2,,,74,127
21082,note_off,0,0,0,,0,,,60,127
21084,note_on,2,0,0,,5,,,53,127
21084,note_on,0,0,0,,0,,,72,127
21084,note_on,0,0,0,,3,,,75,127
21235,note_off,151,0,0,,3,,,75,127
21235,note_off,0,0,0,,0,,,72,127
21235,note_off,0,0,0,,5,,,53,127
21236,note_off,1,0,0,,7,,,67,127
21237,note_off,1,0,0,,3,,,63,127
21238,note_on,1,0,0,,7,,,55,127
21238,note_on,0,0,0,,2,,,74,127
21238,note_on,0,0,0,,12,,,71,127
21238,note_on,0,0,0,,7,,,67,127
21389,note_off,151,0,0,,7,,,67,127
21389,note_off,0,0,0,,12,,,71,127
21390,note_off,1,0,0,,2,,,74,127
21392,note_on,2,0,0,,7,,,67,127
21543,note_off,151,0,0,,7,,,67,127
21545,note_on,2,0,0,,7,,,67,127
21696,note_off,151,0,0,,7,,,67,127
21696,note_off,0,0,0,,7,,,55,127
21698,note_on,2,0,0,,5,,,65,127
21698,note_on,0,0,0,,8,,,68,127
21849,note_off,151,0,0,,8,,,68,127
21851,note_on,2,0,0,,8,,,68,127
22002,note_off,151,0,0,,8,,,68,127
22002,note_off,0,0,0,,5,,,65,127
22004,note_on,2,0,0,,3,,,63,127
22004,note_on,0,0,0,,10,,,69,127
22155,note_off,151,0,0,,10,,,69,127
22155,note_off,0,0,0,,3,,,63,127
22157,note_on,2,0,0,,2,,,62,127
22157,note_on,0,0,0,,11,,,70,127
22308,note_off,151,0,0,,11,,,70,127
22310,note_on,2,0,0,,11,,,70,127
22461,note_off,151,0,0,,11,,,70,127
22461,note_off,0,0,0,,2,,,62,127
22463,note_on,2,0,0,,5,,,65,127
22463,note_on,0,0,0,,12,,,71,127
22614,note_off,151,0,0,,12,,,71,127
22614,note_off,0,0,0,,5,,,65,127
22616,note_on,2,0,0,,3,,,63,127
22616,note_on,0,0,0,,0,,,72,127
22767,note_off,151,0,0,,0,,,72,127
22769,note_on,2,0,0,,0,,,72,127
22920,note_off,151,0,0,,0,,,72,127
22920,note_off,0,0,0,,3,,,63,127
22922,note_on,2,0,0,,2,,,62,127
22922,note_on,0,0,0,,2,,,74,127
23073,note_off,151,0,0,,2,,,74,127
23073,note_off,0,0,0,,2,,,62,127
23075,note_on,2,0,0,,0,,,60,127
23075,note_on,0,0,0,,0,,,72,127
23075,note_on,0,0,0,,3,,,75,127
23226,note_off,151,0,0,,3,,,75,127
23226,note_off,0,0,0,,0,,,72,127
23228,note_on,2,0,0,,5,,,77,127
23228,note_on,0,0,0,,2,,,74,127
23379,note_off,151,0,0,,2,,,74,127
23379,note_off,0,0,0,,5,,,77,127
23379,note_off,0,0,0,,0,,,60,127
23381,note_on,2,0,0,,3,,,51,127
23381,note_on,0,0,0,,3,,,75,127
23381,note_on,0,0,0,,7,,,79,127
23532,note_off,151,0,0,,7,,,79,127
23532,note_off,0,0,0,,3,,,75,127
23532,note_off,0,0,0,,3,,,51,127
23534,note_on,2,0,0,,5,,,53,127
23534,note_on,0,0,0,,5,,,77,127
23534,note_on,0,0,0,,2,,,74,127
23685,note_off,151,0,0,,2,,,74,127
23685,note_off,0,0,0,,5,,,77,127
23687,note_on,2,0,0,,0,,,72,127
23687,note_on,0,0,0,,3,,,75,127
23838,note_off,151,0,0,,3,,,75,127
23838,note_off,0,0,0,,0,,,72,127
23838,note_off,0,0,0,,5,,,53,127
23840,note_on,2,0,0,,7,,,55,127
23840,note_on,0,0,0,,2,,,74,127
23840,note_on,0,0,0,,12,,,71,127
23991,note_off,151,0,0,,12,,,71,127
23991,note_off,0,0,0,,2,,,74,127
23991,note_off,0,0,0,,7,,,55,127
23993,note_on,2,0,0,,0,,,48,127
23993,note_on,0,0,0,,0,,,72,127
24147,note_on,154,0,0,,7,,,67,127
24298,note_off,151,0,0,,7,,,67,127
24300,note_on,2,0,0,,7,,,67,127
24451,note_off,151,0,0,,7,,,67,127
24451,note_off,0,0,0,,0,,,48,127
24453,note_off,2,0,0,,0,,,72,127
24454,note_on,1,0,0,,5,,,53,127
24454,note_on,0,0,0,,0,,,72,127
24454,note_on,0,0,0,,11,,,70,127
24492,note_on,38,0,0,,8,,,68,127
24502,note_off,10,0,0,,11,,,70,127
24531,note_on,29,0,0,,11,,,70,127
24541,note_off,10,0,0,,8,,,68,127
24570,note_on,29,0,0,,8,,,68,127
24580,note_off,10,0,0,,11,,,70,127
24609,note_on,29,0,0,,7,,,67,127
24619,note_off,10,0,0,,8,,,68,127
24761,note_off,142,0,0,,7,,,67,127
24763,note_on,2,0,0,,8,,,68,127
24914,note_off,151,0,0,,8,,,68,127
24914,note_off,0,0,0,,5,,,53,127
24916,note_off,2,0,0,,0,,,72,127
24917,note_on,1,0,0,,7,,,55,127
24917,note_on,0,0,0,,12,,,71,127
24917,note_on,0,0,0,,7,,,67,127
25068,note_off,151,0,0,,7,,,55,127
25070,note_on,2,0,0,,2,,,62,127
25221,note_off,151,0,0,,2,,,62,127
25223,note_on,2,0,0,,5,,,65,127
25374,note_off,151,0,0,,5,,,65,127
25374,note_off,0,0,0,,12,,,71,127
25376,note_on,2,0,0,,3,,,63,127
25376,note_on,0,0,0,,0,,,72,127
25527,note_off,151,0,0,,3,,,63,127
25529,note_on,2,0,0,,2,,,62,127
25680,note_off,151,0,0,,2,,,62,127
25682,note_on,2,0,0,,0,,,60,127
25833,note_off,151,0,0,,0,,,60,127
25833,note_off,0,0,0,,0,,,72,127
25834,note_off,1,0,0,,7,,,67,127
25836,note_on,2,0,0,,2,,,62,127
25836,note_on,0,0,0,,12,,,59,127
25836,note_on,0,0,0,,7,,,67,127
25836,note_on,0,0,0,,2,,,74,127
25887,note_on,51,0,0,,0,,,72,127
25890,note_off,3,0,0,,2,,,74,127
25938,note_on,48,0,0,,2,,,74,127
25941,note_off,3,0,0,,0,,,72,127
25989,note_on,48,0,0,,3,,,75,127
25992,note_off,3,0,0,,2,,,74,127
26140,note_off,148,0,0,,3,,,75,127
26140,note_off,0,0,0,,12,,,59,127
26142,note_on,2,0,0,,7,,,55,127
26142,note_on,0,0,0,,5,,,77,127
26293,note_off,151,0,0,,5,,,77,127
26293,note_off,0,0,0,,7,,,55,127
26295,note_off,2,0,0,,2,,,62,127
26296,note_on,1,0,0,,3,,,63,127
26296,note_on,0,0,0,,0,,,60,127
26296,note_on,0,0,0,,3,,,75,127
26296,note_on,0,0,0,,5,,,77,127
26447,note_off,151,0,0,,5,,,77,127
26447,note_off,0,0,0,,3,,,75,127
26449,note_on,2,0,0,,2,,,74,127
26600,note_off,151,0,0,,2,,,74,127
26600,note_off,0,0,0,,0,,,60,127
26602,note_on,2,0,0,,5,,,53,127
26602,note_on,0,0,0,,0,,,72,127
26602,note_on,0,0,0,,3,,,75,127
26753,note_off,151,0,0,,3,,,75,127
26753,note_off,0,0,0,,0,,,72,127
26753,note_off,0,0,0,,5,,,53,127
26754,note_off,1,0,0,,7,,,67,127
26755,note_off,1,0,0,,3,,,63,127
26756,note_on,1,0,0,,7,,,55,127
26756,note_on,0,0,0,,7,,,67,127
26756,note_on,0,0,0,,12,,,71,127
26756,note_on,0,0,0,,2,,,74,127
26907,note_off,151,0,0,,12,,,71,127
26907,note_off,0,0,0,,7,,,67,127
26909,note_on,2,0,0,,7,,,67,127
27060,note_off,151,0,0,,7,,,67,127
27062,note_on,2,0,0,,7,,,67,127
27213,note_off,151,0,0,,7,,,67,127
27213,note_off,0,0,0,,7,,,55,127
27215,note_off,2,0,0,,2,,,74,127
27216,note_on,1,0,0,,5,,,53,127
27216,note_on,0,0,0,,0,,,72,127
27216,note_on,0,0,0,,11,,,70,127
27250,note_off,34,0,0,,11,,,70,127
27255,note_on,5,0,0,,8,,,68,127
27293,note_on,38,0,0,,11,,,70,127
27303,note_off,10,0,0,,8,,,68,127
27332,note_on,29,0,0,,8,,,68,127
27342,note_off,10,0,0,,11,,,70,127
27371,note_on,29,0,0,,7,,,67,127
27381,note_off,10,0,0,,8,,,68,127
27523,note_off,142,0,0,,7,,,67,127
27523,note_off,0,0,0,,5,,,53,127
27525,note_on,2,0,0,,0,,,60,127
27525,note_on,0,0,0,,8,,,68,127
27676,note_off,151,0,0,,8,,,68,127
27676,note_off,0,0,0,,0,,,60,127
27678,note_off,2,0,0,,0,,,72,127
27679,note_on,1,0,0,,7,,,55,127
27679,note_on,0,0,0,,7,,,67,127
27679,note_on,0,0,0,,12,,,71,127
27830,note_off,151,0,0,,7,,,55,127
27832,note_on,2,0,0,,2,,,62,127
27983,note_off,151,0,0,,2,,,62,127
27985,note_on,2,0,0,,5,,,65,127
28136,note_off,151,0,0,,5,,,65,127
28136,note_off,0,0,0,,12,,,71,127
28138,note_on,2,0,0,,3,,,63,127
28138,note_on,0,0,0,,0,,,72,127
28289,note_off,151,0,0,,3,,,63,127
28291,note_on,2,0,0,,2,,,62,127
28442,note_off,151,0,0,,2,,,62,127
28444,note_on,2,0,0,,0,,,60,127
28595,note_off,151,0,0,,0,,,60,127
28595,note_off,0,0,0,,0,,,72,127
28596,note_off,1,0,0,,7,,,67,127
28598,note_on,2,0,0,,12,,,59,127
28598,note_on,0,0,0,,2,,,62,127
28598,note_on,0,0,0,,7,,,67,127
28598,note_on,0,0,0,,2,,,74,127
28649,note_on,51,0,0,,0,,,72,127
28652,note_off,3,0,0,,2,,,74,127
28700,note_on,48,0,0,,2,,,74,127
28703,note_off,3,0,0,,0,,,72,127
28751,note_on,48,0,0,,3,,,75,127
28754,note_off,3,0,0,,2,,,74,127
28902,note_off,148,0,0,,3,,,75,127
28902,note_off,0,0,0,,12,,,59,127
28904,note_on,2,0,0,,7,,,55,127
28904,note_on,0,0,0,,5,,,77,127
29055,note_off,151,0,0,,5,,,77,127
29055,note_off,0,0,0,,7,,,55,127
29057,note_off,2,0,0,,2,,,62,127
29058,note_on,1,0,0,,0,,,60,127
29058,note_on,0,0,0,,3,,,63,127
29058,note_on,0,0,0,,5,,,77,127
29058,note_on,0,0,0,,3,,,75,127
29209,note_off,151,0,0,,3,,,75,127
29209,note_off,0,0,0,,5,,,77,127
29211,note_on,2,0,0,,2,,,74,127
29362,note_off,151,0,0,,2,,,74,127
29362,note_off,0,0,0,,0,,,60,127
29364,note_on,2,0,0,,5,,,53,127
29364,note_on,0,0,0,,0,,,72,127
29364,note_on,0,0,0,,3,,,75,127
29515,note_off,151,0,0,,3,,,75,127
29515,note_off,0,0,0,,0,,,72,127
29515,note_off,0,0,0,,5,,,53,127
29516,note_off,1,0,0,,7,,,67,127
29517,note_off,1,0,0,,3,,,63,127
29518,note_on,1,0,0,,7,,,55,127
29518,note_on,0,0,0,,7,,,67,127
29518,note_on,0,0,0,,2,,,74,127
29518,note_on,0,0,0,,12,,,71,127
29669,note_off,151,0,0,,12,,,71,127
29669,note_off,0,0,0,,2,,,74,127
29669,note_off,0,0,0,,7,,,67,127
29671,note_on,2,0,0,,7,,,67,127
29822,note_off,151,0,0,,7,,,67,127
29824,note_on,2,0,0,,7,,,67,127
29975,note_off,151,0,0,,7,,,67,127
29975,note_off,0,0,0,,7,,,55,127
29977,note_on,2,0,0,,5,,,65,127
29977,note_on,0,0,0,,8,,,68,127
30128,note_off,151,0,0,,8,,,68,127
30130,note_on,2,0,0,,8,,,68,127
30281,note_off,151,0,0,,8,,,68,127
30281,note_off,0,0,0,,5,,,65,127
30283,note_on,2,0,0,,3,,,63,127
30283,note_on,0,0,0,,10,,,69,127
30434,note_off,151,0,0,,10,,,69,127
30434,note_off,0,0,0,,3,,,63,127
30436,note_on,2,0,0,,2,,,62,127
30436,note_on,0,0,0,,11,,,70,127
30587,note_off,151,0,0,,11,,,70,127
30589,note_on,2,0,0,,11,,,70,127
30740,note_off,151,0,0,,11,,,70,127
30740,note_off,0,0,0,,2,,,62,127
30742,note_on,2,0,0,,5,,,65,127
30742,note_on,0,0,0,,12,,,71,127
30893,note_off,151,0,0,,12,,,71,127
30893,note_off,0,0,0,,5,,,65,127
30895,note_on,2,0,0,,3,,,63,127
30895,note_on,0,0,0,,0,,,72,127
31046,note_off,151,0,0,,0,,,72,127
31048,note_on,2,0,0,,0,,,72,127
31199,note_off,151,0,0,,0,,,72,127
31199,note_off,0,0,0,,3,,,63,127
31201,note_on,2,0,0,,2,,,62,127
31201,note_on,0,0,0,,2,,,74,127
31352,note_off,151,0,0,,2,,,74,127
31352,note_off,0,0,0,,2,,,62,127
31354,note_on,2,0,0,,0,,,60,127
31354,note_on,0,0,0,,0,,,72,127
31354,note_on,0,0,0,,3,,,75,127
31505,note_off,151,0,0,,3,,,75,127
31505,note_off,0,0,0,,0,,,72,127
31507,note_on,2,0,0,,5,,,77,127
31507,note_on,0,0,0,,2,,,74,127
31658,note_off,151,0,0,,2,,,74,127
31658,note_off,0,0,0,,5,,,77,127
31658,note_off,0,0,0,,0,,,60,127
31660,note_on,2,0,0,,3,,,51,127
31660,note_on,0,0,0,,3,,,75,127
31660,note_on,0,0,0,,7,,,79,127
31811,note_off,151,0,0,,7,,,79,127
31811,note_off,0,0,0,,3,,,75,127
31811,note_off,0,0,0,,3,,,51,127
31813,note_on,2,0,0,,5,,,53,127
31813,note_on,0,0,0,,2,,,74,127
31813,note_on,0,0,0,,5,,,77,127
31964,note_off,151,0,0,,5,,,77,127
31964,note_off,0,0,0,,2,,,74,127
31966,note_on,2,0,0,,0,,,72,127
31966,note_on,0,0,0,,3,,,75,127
32117,note_off,151,0,0,,3,,,75,127
32117,note_off,0,0,0,,0,,,72,127
32117,note_off,0,0,0,,5,,,53,127
32119,note_on,2,0,0,,7,,,55,127
32119,note_on,0,0,0,,2,,,74,127
32119,note_on,0,0,0,,12,,,71,127
32270,note_off,151,0,0,,12,,,71,127
32270,note_off,0,0,0,,2,,,74,127
32270,note_off,0,0,0,,7,,,55,127
32272,note_on,2,0,0,,0,,,48,127
32272,note_on,0,0,0,,0,,,72,127
32387,note_off,115,0,0,,0,,,72,127
32425,note_on,38,0,0,,3,,,75,127
32425,note_on,0,0,0,,7,,,67,127
32576,note_off,151,0,0,,3,,,75,127
32578,note_on,2,0,0,,3,,,75,127
32728,note_off,150,0,0,,7,,,67,127
32729,note_off,1,0,0,,3,,,75,127
32729,note_off,0,0,0,,0,,,48,127
32731,note_on,2,0,0,,7,,,43,127
32731,note_on,0,0,0,,5,,,65,127
32731,note_on,0,0,0,,3,,,75,127
32882,note_off,151,0,0,,3,,,75,127
32884,note_on,2,0,0,,2,,,74,127
33035,note_off,151,0,0,,2,,,74,127
33037,note_on,2,0,0,,2,,,74,127
33188,note_off,151,0,0,,2,,,74,127
33188,note_off,0,0,0,,7,,,43,127
33190,note_off,2,0,0,,5,,,65,127
33191,note_on,1,0,0,,8,,,44,127
33191,note_on,0,0,0,,2,,,74,127
33191,note_on,0,0,0,,3,,,63,127
33342,note_off,151,0,0,,2,,,74,127
33344,note_on,2,0,0,,0,,,72,127
33495,note_off,151,0,0,,0,,,72,127
33497,note_on,2,0,0,,0,,,72,127
33648,note_off,151,0,0,,0,,,72,127
33648,note_off,0,0,0,,8,,,44,127
33650,note_off,2,0,0,,3,,,63,127
33651,note_on,1,0,0,,7,,,43,127
33651,note_on,0,0,0,,0,,,72,127
33651,note_on,0,0,0,,2,,,62,127
33802,note_off,151,0,0,,0,,,72,127
33804,note_on,2,0,0,,12,,,71,127
33955,note_off,151,0,0,,12,,,71,127
33957,note_on,2,0,0,,12,,,71,127
34108,note_off,151,0,0,,12,,,71,127
34108,note_off,0,0,0,,7,,,43,127
34110,note_off,2,0,0,,2,,,62,127
34111,note_on,1,0,0,,0,,,48,127
34111,note_on,0,0,0,,0,,,60,127
34111,note_on,0,0,0,,0,,,72,127
34262,note_off,151,0,0,,0,,,72,127
34262,note_off,0,0,0,,0,,,60,127
34264,note_on,2,0,0,,7,,,67,127
34264,note_on,0,0,0,,3,,,75,127
34415,note_off,151,0,0,,3,,,75,127
34417,note_on,2,0,0,,3,,,75,127
34567,note_off,150,0,0,,7,,,67,127
34568,note_off,1,0,0,,3,,,75,127
34568,note_off,0,0,0,,0,,,48,127
34570,note_on,2,0,0,,7,,,43,127
34570,note_on,0,0,0,,5,,,65,127
34570,note_on,0,0,0,,3,,,75,127
34721,note_off,151,0,0,,3,,,75,127
34723,note_on,2,0,0,,2,,,74,127
34874,note_off,151,0,0,,2,,,74,127
34876,note_on,2,0,0,,2,,,74,127
35027,note_off,151,0,0,,2,,,74,127
35027,note_off,0,0,0,,7,,,43,127
35029,note_off,2,0,0,,5,,,65,127
35030,note_on,1,0,0,,8,,,44,127
35030,note_on,0,0,0,,2,,,74,127
35030,note_on,0,0,0,,3,,,63,127
35181,note_off,151,0,0,,2,,,74,127
35183,note_on,2,0,0,,0,,,72,127
35334,note_off,151,0,0,,0,,,72,127
35336,note_on,2,0,0,,0,,,72,127
35487,note_off,151,0,0,,0,,,72,127
35487,note_off,0,0,0,,8,,,44,127
35489,note_off,2,0,0,,3,,,63,127
35490,note_on,1,0,0,,7,,,43,127
35490,note_on,0,0,0,,2,,,62,127
35490,note_on,0,0,0,,0,,,72,127
35641,note_off,151,0,0,,0,,,72,127
35643,note_on,2,0,0,,11,,,70,127
35793,note_off,150,0,0,,2,,,62,127
35794,note_off,1,0,0,,11,,,70,127
35796,note_on,2,0,0,,4,,,64,127
35796,note_on,0,0,0,,11,,,70,127
35947,note_off,151,0,0,,11,,,70,127
35947,note_off,0,0,0,,4,,,64,127
35947,note_off,0,0,0,,7,,,43,127
35949,note_on,2,0,0,,5,,,41,127
35949,note_on,0,0,0,,5,,,65,127
35949,note_on,0,0,0,,11,,,70,127
36100,note_off,151,0,0,,11,,,70,127
36102,note_on,2,0,0,,8,,,68,127
36252,note_off,150,0,0,,5,,,65,127
36253,note_off,1,0,0,,8,,,68,127
36255,note_on,2,0,0,,0,,,60,127
36255,note_on,0,0,0,,8,,,68,127
36406,note_off,151,0,0,,8,,,68,127
36406,note_off,0,0,0,,0,,,60,127
36406,note_off,0,0,0,,5,,,41,127
36408,note_on,2,0,0,,7,,,43,127
36408,note_on,0,0,0,,8,,,68,127
36408,note_on,0,0,0,,12,,,59,127
36559,note_off,151,0,0,,8,,,68,127
36561,note_on,2,0,0,,7,,,67,127
36711,note_off,150,0,0,,12,,,59,127
36712,note_off,1,0,0,,7,,,67,127
36712,note_off,0,0,0,,7,,,43,127
36714,note_on,2,0,0,,12,,,47,127
36714,note_on,0,0,0,,5,,,65,127
36714,note_on,0,0,0,,2,,,62,127
36865,note_off,151,0,0,,2,,,62,127
36865,note_off,0,0,0,,5,,,65,127
36865,note_off,0,0,0,,12,,,47,127
36867,note_on,2,0,0,,0,,,48,127
36867,note_on,0,0,0,,3,,,63,127
36867,note_on,0,0,0,,0,,,60,127
36867,note_on,0,0,0,,5,,,65,127
37018,note_off,151,0,0,,5,,,65,127
37018,note_off,0,0,0,,0,,,60,127
37018,note_off,0,0,0,,3,,,63,127
37020,note_on,2,0,0,,2,,,62,127
37020,note_on,0,0,0,,12,,,59,127
37171,note_off,151,0,0,,12,,,59,127
37171,note_off,0,0,0,,2,,,62,127
37171,note_off,0,0,0,,0,,,48,127
37173,note_on,2,0,0,,8,,,44,127
37173,note_on,0,0,0,,0,,,60,127
37173,note_on,0,0,0,,3,,,63,127
37324,note_off,151,0,0,,3,,,63,127
37324,note_off,0,0,0,,0,,,60,127
37324,note_off,0,0,0,,8,,,44,127
37326,note_on,2,0,0,,5,,,41,127
37326,note_on,0,0,0,,5,,,65,127
37326,note_on,0,0,0,,2,,,62,127
37477,note_off,151,0,0,,2,,,62,127
37477,note_off,0,0,0,,5,,,65,127
37479,note_on,2,0,0,,3,,,63,127
37479,note_on,0,0,0,,0,,,60,127
37630,note_off,151,0,0,,0,,,60,127
37630,note_off,0,0,0,,3,,,63,127
37630,note_off,0,0,0,,5,,,41,127
37632,note_on,2,0,0,,7,,,43,127
37632,note_on,0,0,0,,2,,,62,127
37632,note_on,0,0,0,,12,,,59,127
37783,note_off,151,0,0,,12,,,59,127
37783,note_off,0,0,0,,2,,,62,127
37783,note_off,0,0,0,,7,,,43,127
37785,note_on,2,0,0,,0,,,48,127
37785,note_on,0,0,0,,0,,,60,127
37900,note_off,115,0,0,,0,,,60,127
37938,note_on,38,0,0,,3,,,75,127
37938,note_on,0,0,0,,7,,,67,127
38089,note_off,151,0,0,,3,,,75,127
38091,note_on,2,0,0,,3,,,75,127
38241,note_off,150,0,0,,7,,,67,127
38242,note_off,1,0,0,,3,,,75,127
38242,note_off,0,0,0,,0,,,48,127
38244,note_on,2,0,0,,7,,,43,127
38244,note_on,0,0,0,,3,,,75,127
38244,note_on,0,0,0,,5,,,65,127
38395,note_off,151,0,0,,3,,,75,127
38397,note_on,2,0,0,,2,,,74,127
38547,note_off,150,0,0,,5,,,65,127
38548,note_off,1,0,0,,2,,,74,127
38550,note_on,2,0,0,,2,,,74,127
38701,note_off,151,0,0,,2,,,74,127
38701,note_off,0,0,0,,7,,,43,127
38703,note_on,2,0,0,,8,,,44,127
38703,note_on,0,0,0,,2,,,74,127
38703,note_on,0,0,0,,3,,,63,127
38854,note_off,151,0,0,,2,,,74,127
38856,note_on,2,0,0,,0,,,72,127
39006,note_off,150,0,0,,3,,,63,127
39007,note_off,1,0,0,,0,,,72,127
39009,note_on,2,0,0,,0,,,72,127
39160,note_off,151,0,0,,0,,,72,127
39160,note_off,0,0,0,,8,,,44,127
39162,note_on,2,0,0,,7,,,43,127
39162,note_on,0,0,0,,2,,,62,127
39162,note_on,0,0,0,,0,,,72,127
39313,note_off,151,0,0,,0,,,72,127
39315,note_on,2,0,0,,11,,,70,127
39465,note_off,150,0,0,,2,,,62,127
39466,note_off,1,0,0,,11,,,70,127
39468,note_on,2,0,0,,4,,,64,127
39468,note_on,0,0,0,,11,,,70,127
39619,note_off,151,0,0,,11,,,70,127
39619,note_off,0,0,0,,4,,,64,127
39619,note_off,0,0,0,,7,,,43,127
39621,note_on,2,0,0,,5,,,41,127
39621,note_on,0,0,0,,11,,,70,127
39621,note_on,0,0,0,,5,,,65,127
39772,note_off,151,0,0,,11,,,70,127
39774,note_on,2,0,0,,8,,,68,127
39924,note_off,150,0,0,,5,,,65,127
39925,note_off,1,0,0,,8,,,68,127
39927,note_on,2,0,0,,8,,,68,127
39927,note_on,0,0,0,,0,,,60,127
40078,note_off,151,0,0,,0,,,60,127
40078,note_off,0,0,0,,8,,,68,127
40078,note_off,0,0,0,,5,,,41,127
40080,note_on,2,0,0,,7,,,43,127
40080,note_on,0,0,0,,8,,,68,127
40080,note_on,0,0,0,,12,,,59,127
40231,note_off,151,0,0,,8,,,68,127
40233,note_on,2,0,0,,7,,,67,127
40383,note_off,150,0,0,,12,,,59,127
40384,note_off,1,0,0,,7,,,67,127
40384,note_off,0,0,0,,7,,,43,127
40386,note_on,2,0,0,,12,,,47,127
40386,note_on,0,0,0,,5,,,65,127
40386,note_on,0,0,0,,2,,,62,127
40537,note_off,151,0,0,,2,,,62,127
40537,note_off,0,0,0,,5,,,65,127
40537,note_off,0,0,0,,12,,,47,127
40539,note_on,2,0,0,,0,,,48,127
40539,note_on,0,0,0,,0,,,60,127
40539,note_on,0,0,0,,5,,,65,127
40539,note_on,0,0,0,,3,,,63,127
40690,note_off,151,0,0,,3,,,63,127
40690,note_off,0,0,0,,5,,,65,127
40690,note_off,0,0,0,,0,,,60,127
40692,note_on,2,0,0,,12,,,59,127
40692,note_on,0,0,0,,2,,,62,127
40843,note_off,151,0,0,,2,,,62,127
40843,note_off,0,0,0,,12,,,59,127
40843,note_off,0,0,0,,0,,,48,127
40845,note_on,2,0,0,,8,,,44,127
40845,note_on,0,0,0,,0,,,60,127
40845,note_on,0,0,0,,3,,,63,127
40996,note_off,151,0,0,,3,,,63,127
40996,note_off,0,0,0,,0,,,60,127
40996,note_off,0,0,0,,8,,,44,127
40998,note_on,2,0,0,,5,,,41,127
40998,note_on,0,0,0,,5,,,65,127
40998,note_on,0,0,0,,2,,,62,127
41149,note_off,151,0,0,,2,,,62,127
41149,note_off,0,0,0,,5,,,65,127
41151,note_on,2,0,0,,0,,,60,127
41151,note_on,0,0,0,,3,,,63,127
41302,note_off,151,0,0,,3,,,63,127
41302,note_off,0,0,0,,0,,,60,127
41302,note_off,0,0,0,,5,,,41,127
41304,note_on,2,0,0,,7,,,43,127
41304,note_on,0,0,0,,2,,,62,127
41304,note_on,0,0,0,,12,,,59,127
41455,note_off,151,0,0,,12,,,59,127
41455,note_off,0,0,0,,2,,,62,127
41455,note_off,0,0,0,,7,,,43,127
41457,note_on,2,0,0,,0,,,36,127
41457,note_on,0,0,0,,0,,,60,127
41608,note_off,151,0,0,,0,,,36,127
41610,note_on,2,0,0,,3,,,39,127
41761,note_off,151,0,0,,3,,,39,127
41763,note_on,2,0,0,,7,,,43,127
41914,note_off,151,0,0,,7,,,43,127
41916,note_on,2,0,0,,0,,,48,127
42067,note_off,151,0,0,,0,,,48,127
42069,note_on,2,0,0,,3,,,51,127
42220,note_off,151,0,0,,3,,,51,127
42222,note_on,2,0,0,,7,,,55,127
42373,note_off,151,0,0,,7,,,55,127
42374,note_off,1,0,0,,0,,,60,127
42376,note_on,2,0,0,,0,,,60,127
42530,note_on,154,0,0,,5,,,77,127
42681,note_off,151,0,0,,5,,,77,127
42681,note_off,0,0,0,,0,,,60,127
42683,note_on,2,0,0,,5,,,53,127
42683,note_on,0,0,0,,2,,,74,127
42834,note_off,151,0,0,,5,,,53,127
42836,note_on,2,0,0,,7,,,55,127
42987,note_off,151,0,0,,2,,,74,127
42989,note_on,2,0,0,,2,,,74,127
43027,note_on,38,0,0,,0,,,72,127
43037,note_off,10,0,0,,2,,,74,127
43066,note_on,29,0,0,,2,,,74,127
43076,note_off,10,0,0,,0,,,72,127
43105,note_on,29,0,0,,0,,,72,127
43115,note_off,10,0,0,,2,,,74,127
43141,note_off,26,0,0,,7,,,55,127
43143,note_on,2,0,0,,7,,,43,127
43143,note_on,0,0,0,,12,,,71,127
43153,note_off,10,0,0,,0,,,72,127
43295,note_off,142,0,0,,12,,,71,127
43295,note_off,0,0,0,,7,,,43,127
43297,note_on,2,0,0,,0,,,36,127
43297,note_on,0,0,0,,0,,,72,127
43448,note_off,151,0,0,,0,,,36,127
43450,note_on,2,0,0,,3,,,39,127
43601,note_off,151,0,0,,3,,,39,127
43603,note_on,2,0,0,,7,,,43,127
43754,note_off,151,0,0,,7,,,43,127
43756,note_on,2,0,0,,0,,,48,127
43907,note_off,151,0,0,,0,,,48,127
43909,note_on,2,0,0,,3,,,51,127
44060,note_off,151,0,0,,3,,,51,127
44062,note_on,2,0,0,,7,,,55,127
44213,note_off,151,0,0,,7,,,55,127
44214,note_off,1,0,0,,0,,,72,127
44216,note_on,2,0,0,,0,,,60,127
44370,note_on,154,0,0,,5,,,77,127
44521,note_off,151,0,0,,5,,,77,127
44521,note_off,0,0,0,,0,,,60,127
44523,note_on,2,0,0,,5,,,53,127
44523,note_on,0,0,0,,8,,,80,127
44674,note_off,151,0,0,,8,,,80,127
44674,note_off,0,0,0,,5,,,53,127
44676,note_on,2,0,0,,7,,,55,127
44676,note_on,0,0,0,,0,,,72,127
44827,note_off,151,0,0,,0,,,72,127
44829,note_on,2,0,0,,2,,,74,127
44867,note_on,38,0,0,,0,,,72,127
44877,note_off,10,0,0,,2,,,74,127
44906,note_on,29,0,0,,2,,,74,127
44916,note_off,10,0,0,,0,,,72,127
44945,note_on,29,0,0,,0,,,72,127
44955,note_off,10,0,0,,2,,,74,127
44981,note_off,26,0,0,,7,,,55,127
44983,note_on,2,0,0,,7,,,43,127
44983,note_on,0,0,0,,12,,,71,127
44993,note_off,10,0,0,,0,,,72,127
45135,note_off,142,0,0,,12,,,71,127
45135,note_off,0,0,0,,7,,,43,127
45137,note_on,2,0,0,,0,,,36,127
45137,note_on,0,0,0,,0,,,72,127
45288,note_off,151,0,0,,0,,,72,127
45290,note_on,2,0,0,,0,,,60,127
45441,note_off,151,0,0,,0,,,60,127
45443,note_on,2,0,0,,0,,,60,127
45594,note_off,151,0,0,,0,,,60,127
45594,note_off,0,0,0,,0,,,36,127
45596,note_on,2,0,0,,11,,,58,127
45596,note_on,0,0,0,,1,,,61,127
45747,note_off,151,0,0,,1,,,61,127
45749,note_on,2,0,0,,1,,,61,127
45900,note_off,151,0,0,,1,,,61,127
45900,note_off,0,0,0,,11,,,58,127
45902,note_on,2,0,0,,8,,,56,127
45902,note_on,0,0,0,,2,,,62,127
46053,note_off,151,0,0,,2,,,62,127
46053,note_off,0,0,0,,8,,,56,127
46055,note_on,2,0,0,,7,,,55,127
46055,note_on,0,0,0,,3,,,63,127
46206,note_off,151,0,0,,3,,,63,127
46208,note_on,2,0,0,,3,,,63,127
46359,note_off,151,0,0,,3,,,63,127
46359,note_off,0,0,0,,7,,,55,127
46361,note_on,2,0,0,,11,,,58,127
46361,note_on,0,0,0,,4,,,64,127
46512,note_off,151,0,0,,4,,,64,127
46512,note_off,0,0,0,,11,,,58,127
46514,note_on,2,0,0,,8,,,56,127
46514,note_on,0,0,0,,5,,,65,127
46665,note_off,151,0,0,,5,,,65,127
46667,note_on,2,0,0,,5,,,65,127
46818,note_off,151,0,0,,5,,,65,127
46818,note_off,0,0,0,,8,,,56,127
46820,note_on,2,0,0,,7,,,55,127
46820,note_on,0,0,0,,7,,,67,127
46971,note_off,151,0,0,,7,,,67,127
46971,note_off,0,0,0,,7,,,55,127
46973,note_on,2,0,0,,5,,,53,127
46973,note_on,0,0,0,,8,,,68,127
47124,note_off,151,0,0,,8,,,68,127
47126,note_on,2,0,0,,8,,,68,127
47277,note_off,151,0,0,,8,,,68,127
47277,note_off,0,0,0,,5,,,53,127
47279,note_on,2,0,0,,3,,,51,127
47279,note_on,0,0,0,,10,,,69,127
47430,note_off,151,0,0,,10,,,69,127
47430,note_off,0,0,0,,3,,,51,127
47432,note_on,2,0,0,,1,,,49,127
47432,note_on,0,0,0,,11,,,70,127
47583,note_off,151,0,0,,11,,,70,127
47585,note_on,2,0,0,,11,,,70,127
47736,note_off,151,0,0,,11,,,70,127
47736,note_off,0,0,0,,1,,,49,127
47738,note_on,2,0,0,,0,,,48,127
47738,note_on,0,0,0,,0,,,72,127
47889,note_off,151,0,0,,0,,,72,127
47889,note_off,0,0,0,,0,,,48,127
47891,note_on,2,0,0,,11,,,46,127
47891,note_on,0,0,0,,1,,,73,127
48042,note_off,151,0,0,,1,,,73,127
48044,note_on,2,0,0,,3,,,75,127
48195,note_off,151,0,0,,3,,,75,127
48195,note_off,0,0,0,,11,,,46,127
48197,note_on,2,0,0,,8,,,44,127
48197,note_on,0,0,0,,5,,,77,127
48348,note_off,151,0,0,,5,,,77,127
48348,note_off,0,0,0,,8,,,44,127
48350,note_on,2,0,0,,6,,,42,127
48350,note_on,0,0,0,,3,,,75,127
48350,note_on,0,0,0,,1,,,73,127
48501,note_off,151,0,0,,1,,,73,127
48501,note_off,0,0,0,,3,,,75,127
48503,note_on,2,0,0,,0,,,72,127
48654,note_off,151,0,0,,0,,,72,127
48654,note_off,0,0,0,,6,,,42,127
48656,note_on,2,0,0,,6,,,54,127
48656,note_on,0,0,0,,11,,,70,127
48807,note_off,151,0,0,,11,,,70,127
48807,note_off,0,0,0,,6,,,54,127
48809,note_on,2,0,0,,5,,,41,127
48809,note_on,0,0,0,,10,,,69,127
48963,note_on,154,0,0,,5,,,65,127
49114,note_off,151,0,0,,5,,,65,127
49114,note_off,0,0,0,,5,,,41,127
49116,note_on,2,0,0,,5,,,53,127
49116,note_on,0,0,0,,5,,,65,127
49267,note_off,151,0,0,,5,,,65,127
49267,note_off,0,0,0,,5,,,53,127
49269,note_off,2,0,0,,10,,,69,127
49270,note_on,1,0,0,,3,,,51,127
49270,note_on,0,0,0,,11,,,70,127
49270,note_on,0,0,0,,8,,,68,127
49308,note_on,38,0,0,,6,,,66,127
49318,note_off,10,0,0,,8,,,68,127
49347,note_on,29,0,0,,8,,,68,127
49357,note_off,10,0,0,,6,,,66,127
49386,note_on,29,0,0,,6,,,66,127
49396,note_off,10,0,0,,8,,,68,127
49425,note_on,29,0,0,,5,,,65,127
49435,note_off,10,0,0,,6,,,66,127
49577,note_off,142,0,0,,5,,,65,127
49577,note_off,0,0,0,,3,,,51,127
49579,note_on,2,0,0,,11,,,58,127
49579,note_on,0,0,0,,6,,,66,127
49730,note_off,151,0,0,,6,,,66,127
49730,note_off,0,0,0,,11,,,58,127
49732,note_off,2,0,0,,11,,,70,127
49733,note_on,1,0,0,,5,,,53,127
49733,note_on,0,0,0,,5,,,65,127
49733,note_on,0,0,0,,10,,,69,127
49884,note_off,151,0,0,,5,,,53,127
49886,note_on,2,0,0,,0,,,60,127
50037,note_off,151,0,0,,0,,,60,127
50039,note_on,2,0,0,,3,,,63,127
50190,note_off,151,0,0,,3,,,63,127
50190,note_off,0,0,0,,10,,,69,127
50192,note_on,2,0,0,,1,,,61,127
50192,note_on,0,0,0,,11,,,70,127
50343,note_off,151,0,0,,1,,,61,127
50345,note_on,2,0,0,,0,,,60,127
50496,note_off,151,0,0,,0,,,60,127
50498,note_on,2,0,0,,11,,,58,127
50649,note_off,151,0,0,,11,,,58,127
50649,note_off,0,0,0,,11,,,70,127
50650,note_off,1,0,0,,5,,,65,127
50652,note_on,2,0,0,,10,,,57,127
50652,note_on,0,0,0,,0,,,60,127
50652,note_on,0,0,0,,5,,,65,127
50652,note_on,0,0,0,,0,,,72,127
50703,note_on,51,0,0,,11,,,70,127
50706,note_off,3,0,0,,0,,,72,127
50754,note_on,48,0,0,,0,,,72,127
50757,note_off,3,0,0,,11,,,70,127
50805,note_on,48,0,0,,1,,,73,127
50808,note_off,3,0,0,,0,,,72,127
50956,note_off,148,0,0,,1,,,73,127
50956,note_off,0,0,0,,10,,,57,127
50958,note_on,2,0,0,,5,,,53,127
50958,note_on,0,0,0,,3,,,75,127
51109,note_off,151,0,0,,3,,,75,127
51109,note_off,0,0,0,,5,,,53,127
51111,note_off,2,0,0,,0,,,60,127
51112,note_on,1,0,0,,1,,,61,127
51112,note_on,0,0,0,,11,,,58,127
51112,note_on,0,0,0,,3,,,75,127
51112,note_on,0,0,0,,1,,,73,127
51263,note_off,151,0,0,,1,,,73,127
51263,note_off,0,0,0,,3,,,75,127
51265,note_on,2,0,0,,0,,,72,127
51416,note_off,151,0,0,,0,,,72,127
51416,note_off,0,0,0,,11,,,58,127
51418,note_on,2,0,0,,3,,,51,127
51418,note_on,0,0,0,,11,,,70,127
51418,note_on,0,0,0,,1,,,73,127
51569,note_off,151,0,0,,1,,,73,127
51569,note_off,0,0,0,,11,,,70,127
51569,note_off,0,0,0,,3,,,51,127
51570,note_off,1,0,0,,5,,,65,127
51571,note_off,1,0,0,,1,,,61,127
51572,note_on,1,0,0,,5,,,53,127
51572,note_on,0,0,0,,10,,,69,127
51572,note_on,0,0,0,,5,,,65,127
51572,note_on,0,0,0,,0,,,72,127
51723,note_off,151,0,0,,5,,,65,127
51723,note_off,0,0,0,,10,,,69,127
51725,note_on,2,0,0,,5,,,65,127
51876,note_off,151,0,0,,5,,,65,127
51878,note_on,2,0,0,,5,,,65,127
52029,note_off,151,0,0,,5,,,65,127
52029,note_off,0,0,0,,5,,,53,127
52031,note_off,2,0,0,,0,,,72,127
52032,note_on,1,0,0,,3,,,51,127
52032,note_on,0,0,0,,11,,,70,127
52032,note_on,0,0,0,,8,,,68,127
52070,note_on,38,0,0,,6,,,66,127
52080,note_off,10,0,0,,8,,,68,127
52109,note_on,29,0,0,,8,,,68,127
52119,note_off,10,0,0,,6,,,66,127
52148,note_on,29,0,0,,6,,,66,127
52158,note_off,10,0,0,,8,,,68,127
52187,note_on,29,0,0,,5,,,65,127
52197,note_off,10,0,0,,6,,,66,127
52339,note_off,142,0,0,,5,,,65,127
52339,note_off,0,0,0,,3,,,51,127
52341,note_on,2,0,0,,11,,,58,127
52341,note_on,0,0,0,,6,,,66,127
52492,note_off,151,0,0,,6,,,66,127
52492,note_off,0,0,0,,11,,,58,127
52494,note_off,2,0,0,,11,,,70,127
52495,note_on,1,0,0,,5,,,53,127
52495,note_on,0,0,0,,10,,,69,127
52495,note_on,0,0,0,,5,,,65,127
52646,note_off,151,0,0,,5,,,53,127
52648,note_on,2,0,0,,0,,,60,127
52799,note_off,151,0,0,,0,,,60,127
52801,note_on,2,0,0,,3,,,63,127
52952,note_off,151,0,0,,3,,,63,127
52952,note_off,0,0,0,,5,,,65,127
52952,note_off,0,0,0,,10,,,69,127
52954,note_on,2,0,0,,1,,,61,127
52954,note_on,0,0,0,,11,,,70,127
52954,note_on,0,0,0,,5,,,65,127
53105,note_off,151,0,0,,1,,,61,127
53107,note_on,2,0,0,,0,,,60,127
53258,note_off,151,0,0,,0,,,60,127
53260,note_on,2,0,0,,11,,,58,127
53411,note_off,151,0,0,,11,,,58,127
53411,note_off,0,0,0,,5,,,65,127
53411,note_off,0,0,0,,11,,,70,127
53413,note_on,2,0,0,,10,,,57,127
53413,note_on,0,0,0,,0,,,60,127
53413,note_on,0,0,0,,0,,,72,127
53413,note_on,0,0,0,,5,,,65,127
53464,note_on,51,0,0,,11,,,70,127
53467,note_off,3,0,0,,0,,,72,127
53515,note_on,48,0,0,,0,,,72,127
53518,note_off,3,0,0,,11,,,70,127
53566,note_on,48,0,0,,1,,,73,127
53569,note_off,3,0,0,,0,,,72,127
53717,note_off,148,0,0,,1,,,73,127
53717,note_off,0,0,0,,10,,,57,127
53719,note_on,2,0,0,,5,,,53,127
53719,note_on,0,0,0,,3,,,75,127
53870,note_off,151,0,0,,3,,,75,127
53870,note_off,0,0,0,,5,,,53,127
53872,note_off,2,0,0,,0,,,60,127
53873,note_on,1,0,0,,1,,,61,127
53873,note_on,0,0,0,,11,,,58,127
53873,note_on,0,0,0,,1,,,73,127
53873,note_on,0,0,0,,3,,,75,127
54024,note_off,151,0,0,,3,,,75,127
54024,note_off,0,0,0,,1,,,73,127
54026,note_on,2,0,0,,0,,,72,127
54177,note_off,151,0,0,,0,,,72,127
54177,note_off,0,0,0,,11,,,58,127
54179,note_on,2,0,0,,3,,,51,127
54179,note_on,0,0,0,,11,,,70,127
54179,note_on,0,0,0,,1,,,73,127
54330,note_off,151,0,0,,1,,,73,127
54330,note_off,0,0,0,,11,,,70,127
54330,note_off,0,0,0,,3,,,51,127
54331,note_off,1,0,0,,5,,,65,127
54332,note_off,1,0,0,,1,,,61,127
54333,note_on,1,0,0,,5,,,53,127
54333,note_on,0,0,0,,5,,,65,127
54333,note_on,0,0,0,,0,,,72,127
54333,note_on,0,0,0,,10,,,69,127
54484,note_off,151,0,0,,10,,,69,127
54484,note_off,0,0,0,,0,,,72,127
54484,note_off,0,0,0,,5,,,65,127
54486,note_on,2,0,0,,5,,,65,127
54637,note_off,151,0,0,,5,,,65,127
54639,note_on,2,0,0,,5,,,65,127
54790,note_off,151,0,0,,5,,,65,127
54790,note_off,0,0,0,,5,,,53,127
54792,note_on,2,0,0,,3,,,63,127
54792,note_on,0,0,0,,6,,,66,127
54943,note_off,151,0,0,,6,,,66,127
54945,note_on,2,0,0,,6,,,66,127
55096,note_off,151,0,0,,6,,,66,127
55096,note_off,0,0,0,,3,,,63,127
55098,note_on,2,0,0,,1,,,61,127
55098,note_on,0,0,0,,7,,,67,127
55249,note_off,151,0,0,,7,,,67,127
55249,note_off,0,0,0,,1,,,61,127
55251,note_on,2,0,0,,0,,,60,127
55251,note_on,0,0,0,,8,,,68,127
55402,note_off,151,0,0,,8,,,68,127
55404,note_on,2,0,0,,8,,,68,127
55555,note_off,151,0,0,,8,,,68,127
55555,note_off,0,0,0,,0,,,60,127
55557,note_on,2,0,0,,3,,,63,127
55557,note_on,0,0,0,,10,,,69,127
55708,note_off,151,0,0,,10,,,69,127
55708,note_off,0,0,0,,3,,,63,127
55710,note_on,2,0,0,,1,,,61,127
55710,note_on,0,0,0,,11,,,70,127
55861,note_off,151,0,0,,11,,,70,127
55863,note_on,2,0,0,,11,,,70,127
56014,note_off,151,0,0,,11,,,70,127
56014,note_off,0,0,0,,1,,,61,127
56016,note_on,2,0,0,,0,,,60,127
56016,note_on,0,0,0,,0,,,72,127
56167,note_off,151,0,0,,0,,,72,127
56167,note_off,0,0,0,,0,,,60,127
56169,note_on,2,0,0,,11,,,58,127
56169,note_on,0,0,0,,1,,,73,127
56320,note_off,151,0,0,,1,,,73,127
56322,note_on,2,0,0,,1,,,73,127
56473,note_off,151,0,0,,1,,,73,127
56473,note_off,0,0,0,,11,,,58,127
56475,note_on,2,0,0,,8,,,56,127
56475,note_on,0,0,0,,2,,,74,127
56626,note_off,151,0,0,,2,,,74,127
56626,note_off,0,0,0,,8,,,56,127
56628,note_on,2,0,0,,7,,,55,127
56628,note_on,0,0,0,,4,,,76,127
56779,note_off,151,0,0,,4,,,76,127
56781,note_on,2,0,0,,4,,,76,127
56932,note_off,151,0,0,,4,,,76,127
56932,note_off,0,0,0,,7,,,55,127
56934,note_on,2,0,0,,5,,,53,127
56934,note_on,0,0,0,,5,,,77,127
57085,note_off,151,0,0,,5,,,77,127
57085,note_off,0,0,0,,5,,,53,127
57087,note_on,2,0,0,,4,,,52,127
57087,note_on,0,0,0,,7,,,79,127
57238,note_off,151,0,0,,7,,,79,127
57240,note_on,2,0,0,,8,,,80,127
57391,note_off,151,0,0,,8,,,80,127
57391,note_off,0,0,0,,4,,,52,127
57393,note_on,2,0,0,,0,,,48,127
57393,note_on,0,0,0,,11,,,82,127
57544,note_off,151,0,0,,11,,,82,127
57544,note_off,0,0,0,,0,,,48,127
57546,note_on,2,0,0,,5,,,53,127
57546,note_on,0,0,0,,8,,,80,127
57697,note_off,151,0,0,,8,,,80,127
57699,note_on,2,0,0,,7,,,79,127
57850,note_off,151,0,0,,7,,,79,127
57850,note_off,0,0,0,,5,,,53,127
57852,note_on,2,0,0,,1,,,49,127
57852,note_on,0,0,0,,5,,,77,127
58003,note_off,151,0,0,,5,,,77,127
58003,note_off,0,0,0,,1,,,49,127
58005,note_on,2,0,0,,0,,,48,127
58005,note_on,0,0,0,,4,,,76,127
58005,note_on,0,0,0,,7,,,79,127
58156,note_off,151,0,0,,4,,,76,127
58158,note_on,2,0,0,,0,,,72,127
58309,note_off,151,0,0,,0,,,72,127
58309,note_off,0,0,0,,0,,,48,127
58311,note_on,2,0,0,,0,,,60,127
58311,note_on,0,0,0,,0,,,72,127
58462,note_off,151,0,0,,0,,,72,127
58462,note_off,0,0,0,,0,,,60,127
58464,note_off,2,0,0,,7,,,79,127
58465,note_on,1,0,0,,11,,,58,127
58465,note_on,0,0,0,,5,,,77,127
58465,note_on,0,0,0,,3,,,75,127
58503,note_on,38,0,0,,1,,,73,127
58513,note_off,10,0,0,,3,,,75,127
58542,note_on,29,0,0,,3,,,75,127
58552,note_off,10,0,0,,1,,,73,127
58581,note_on,29,0,0,,1,,,73,127
58591,note_off,10,0,0,,3,,,75,127
58620,note_on,29,0,0,,0,,,72,127
58630,note_off,10,0,0,,1,,,73,127
58772,note_off,142,0,0,,0,,,72,127
58772,note_off,0,0,0,,11,,,58,127
58774,note_on,2,0,0,,5,,,65,127
58774,note_on,0,0,0,,1,,,73,127
58925,note_off,151,0,0,,1,,,73,127
58925,note_off,0,0,0,,5,,,65,127
58927,note_off,2,0,0,,5,,,77,127
58928,note_on,1,0,0,,0,,,60,127
58928,note_on,0,0,0,,4,,,76,127
58928,note_on,0,0,0,,0,,,72,127
59079,note_off,151,0,0,,0,,,60,127
59081,note_on,2,0,0,,7,,,67,127
59232,note_off,151,0,0,,7,,,67,127
59234,note_on,2,0,0,,11,,,70,127
59385,note_off,151,0,0,,11,,,70,127
59385,note_off,0,0,0,,4,,,76,127
59387,note_on,2,0,0,,8,,,68,127
59387,note_on,0,0,0,,5,,,77,127
59538,note_off,151,0,0,,8,,,68,127
59540,note_on,2,0,0,,7,,,67,127
59691,note_off,151,0,0,,7,,,67,127
59693,note_on,2,0,0,,5,,,65,127
59844,note_off,151,0,0,,5,,,65,127
59844,note_off,0,0,0,,5,,,77,127
59845,note_off,1,0,0,,0,,,72,127
59847,note_on,2,0,0,,4,,,64,127
59847,note_on,0,0,0,,7,,,67,127
59847,note_on,0,0,0,,0,,,72,127
59847,note_on,0,0,0,,7,,,79,127
59898,note_on,51,0,0,,5,,,77,127
59901,note_off,3,0,0,,7,,,79,127
59949,note_on,48,0,0,,7,,,79,127
59952,note_off,3,0,0,,5,,,77,127
60000,note_on,48,0,0,,8,,,80,127
60003,note_off,3,0,0,,7,,,79,127
60151,note_off,148,0,0,,8,,,80,127
60151,note_off,0,0,0,,4,,,64,127
60153,note_on,2,0,0,,0,,,60,127
60153,note_on,0,0,0,,11,,,82,127
60304,note_off,151,0,0,,11,,,82,127
60304,note_off,0,0,0,,0,,,60,127
60306,note_off,2,0,0,,7,,,67,127
60307,note_on,1,0,0,,5,,,65,127
60307,note_on,0,0,0,,8,,,68,127
60307,note_on,0,0,0,,11,,,82,127
60307,note_on,0,0,0,,8,,,80,127
60458,note_off,151,0,0,,8,,,80,127
60458,note_off,0,0,0,,11,,,82,127
60460,note_on,2,0,0,,7,,,79,127
60611,note_off,151,0,0,,7,,,79,127
60611,note_off,0,0,0,,5,,,65,127
60613,note_on,2,0,0,,11,,,58,127
60613,note_on,0,0,0,,8,,,80,127
60613,note_on,0,0,0,,5,,,77,127
60764,note_off,151,0,0,,5,,,77,127
60764,note_off,0,0,0,,8,,,80,127
60764,note_off,0,0,0,,11,,,58,127
60765,note_off,1,0,0,,0,,,72,127
60766,note_off,1,0,0,,8,,,68,127
60767,note_on,1,0,0,,0,,,60,127
60767,note_on,0,0,0,,4,,,76,127
60767,note_on,0,0,0,,0,,,72,127
60767,note_on,0,0,0,,7,,,79,127
60918,note_off,151,0,0,,0,,,72,127
60918,note_off,0,0,0,,4,,,76,127
60920,note_on,2,0,0,,0,,,72,127
61071,note_off,151,0,0,,0,,,72,127
61073,note_on,2,0,0,,0,,,72,127
61224,note_off,151,0,0,,0,,,72,127
61224,note_off,0,0,0,,0,,,60,127
61226,note_off,2,0,0,,7,,,79,127
61227,note_on,1,0,0,,11,,,58,127
61227,note_on,0,0,0,,5,,,77,127
61227,note_on,0,0,0,,3,,,75,127
61265,note_on,38,0,0,,1,,,73,127
61275,note_off,10,0,0,,3,,,75,127
61304,note_on,29,0,0,,3,,,75,127
61314,note_off,10,0,0,,1,,,73,127
61343,note_on,29,0,0,,1,,,73,127
61353,note_off,10,0,0,,3,,,75,127
61382,note_on,29,0,0,,0,,,72,127
61392,note_off,10,0,0,,1,,,73,127
61534,note_off,142,0,0,,0,,,72,127
61534,note_off,0,0,0,,11,,,58,127
61536,note_on,2,0,0,,5,,,65,127
61536,note_on,0,0,0,,1,,,73,127
61687,note_off,151,0,0,,1,,,73,127
61687,note_off,0,0,0,,5,,,65,127
61689,note_off,2,0,0,,5,,,77,127
61690,note_on,1,0,0,,0,,,60,127
61690,note_on,0,0,0,,4,,,76,127
61690,note_on,0,0,0,,0,,,72,127
61841,note_off,151,0,0,,0,,,60,127
61843,note_on,2,0,0,,7,,,67,127
61994,note_off,151,0,0,,7,,,67,127
61996,note_on,2,0,0,,11,,,70,127
62147,note_off,151,0,0,,11,,,70,127
62147,note_off,0,0,0,,4,,,76,127
62149,note_on,2,0,0,,8,,,68,127
62149,note_on,0,0,0,,5,,,77,127
62300,note_off,151,0,0,,8,,,68,127
62302,note_on,2,0,0,,7,,,67,127
62453,note_off,151,0,0,,7,,,67,127
62455,note_on,2,0,0,,5,,,65,127
62606,note_off,151,0,0,,5,,,65,127
62606,note_off,0,0,0,,5,,,77,127
62607,note_off,1,0,0,,0,,,72,127
62609,note_on,2,0,0,,4,,,64,127
62609,note_on,0,0,0,,7,,,67,127
62609,note_on,0,0,0,,0,,,72,127
62609,note_on,0,0,0,,7,,,79,127
62660,note_on,51,0,0,,5,,,77,127
62663,note_off,3,0,0,,7,,,79,127
62711,note_on,48,0,0,,7,,,79,127
62714,note_off,3,0,0,,5,,,77,127
62762,note_on,48,0,0,,8,,,80,127
62765,note_off,3,0,0,,7,,,79,127
62913,note_off,148,0,0,,8,,,80,127
62913,note_off,0,0,0,,4,,,64,127
62915,note_on,2,0,0,,0,,,60,127
62915,note_on,0,0,0,,11,,,82,127
63066,note_off,151,0,0,,11,,,82,127
63066,note_off,0,0,0,,0,,,60,127
63068,note_off,2,0,0,,7,,,67,127
63069,note_on,1,0,0,,8,,,68,127
63069,note_on,0,0,0,,5,,,65,127
63069,note_on,0,0,0,,11,,,82,127
63069,note_on,0,0,0,,8,,,80,127
63220,note_off,151,0,0,,8,,,80,127
63220,note_off,0,0,0,,11,,,82,127
63222,note_on,2,0,0,,7,,,79,127
63373,note_off,151,0,0,,7,,,79,127
63373,note_off,0,0,0,,5,,,65,127
63375,note_on,2,0,0,,11,,,58,127
63375,note_on,0,0,0,,5,,,77,127
63375,note_on,0,0,0,,8,,,80,127
63526,note_off,151,0,0,,8,,,80,127
63526,note_off,0,0,0,,5,,,77,127
63526,note_off,0,0,0,,11,,,58,127
63527,note_off,1,0,0,,0,,,72,127
63528,note_off,1,0,0,,8,,,68,127
63529,note_on,1,0,0,,0,,,60,127
63529,note_on,0,0,0,,0,,,72,127
63529,note_on,0,0,0,,4,,,76,127
63529,note_on,0,0,0,,7,,,79,127
63680,note_off,151,0,0,,7,,,79,127
63680,note_off,0,0,0,,4,,,76,127
63680,note_off,0,0,0,,0,,,72,127
63682,note_on,2,0,0,,0,,,72,127
63832,note_off,150,0,0,,0,,,60,127
63833,note_off,1,0,0,,0,,,72,127
63835,note_on,2,0,0,,0,,,72,127
63986,note_off,151,0,0,,0,,,72,127
63988,note_on,2,0,0,,11,,,70,127
63988,note_on,0,0,0,,1,,,73,127
64139,note_off,151,0,0,,1,,,73,127
64141,note_on,2,0,0,,1,,,73,127
64292,note_off,151,0,0,,1,,,73,127
64292,note_off,0,0,0,,11,,,70,127
64294,note_on,2,0,0,,8,,,68,127
64294,note_on,0,0,0,,2,,,74,127
64445,note_off,151,0,0,,2,,,74,127
64445,note_off,0,0,0,,8,,,68,127
64447,note_on,2,0,0,,7,,,67,127
64447,note_on,0,0,0,,3,,,75,127
64598,note_off,151,0,0,,3,,,75,127
64600,note_on,2,0,0,,3,,,75,127
64751,note_off,151,0,0,,3,,,75,127
64751,note_off,0,0,0,,7,,,67,127
64753,note_on,2,0,0,,11,,,70,127
64753,note_on,0,0,0,,4,,,76,127
64904,note_off,151,0,0,,4,,,76,127
64904,note_off,0,0,0,,11,,,70,127
64906,note_on,2,0,0,,8,,,68,127
64906,note_on,0,0,0,,5,,,77,127
65057,note_off,151,0,0,,5,,,77,127
65059,note_on,2,0,0,,5,,,77,127
65210,note_off,151,0,0,,5,,,77,127
65210,note_off,0,0,0,,8,,,68,127
65212,note_on,2,0,0,,7,,,67,127
65212,note_on,0,0,0,,7,,,79,127
65363,note_off,151,0,0,,7,,,79,127
65363,note_off,0,0,0,,7,,,67,127
65365,note_on,2,0,0,,5,,,65,127
65365,note_on,0,0,0,,5,,,77,127
65365,note_on,0,0,0,,8,,,80,127
65516,note_off,151,0,0,,8,,,80,127
65516,note_off,0,0,0,,5,,,77,127
65518,note_on,2,0,0,,11,,,82,127
65518,note_on,0,0,0,,7,,,79,127
65669,note_off,151,0,0,,7,,,79,127
65669,note_off,0,0,0,,11,,,82,127
65669,note_off,0,0,0,,5,,,65,127
65671,note_on,2,0,0,,8,,,56,127
65671,note_on,0,0,0,,8,,,80,127
65671,note_on,0,0,0,,0,,,84,127
65822,note_off,151,0,0,,0,,,84,127
65822,note_off,0,0,0,,8,,,80,127
65822,note_off,0,0,0,,8,,,56,127
65824,note_on,2,0,0,,11,,,58,127
65824,note_on,0,0,0,,7,,,79,127
65824,note_on,0,0,0,,11,,,82,127
65975,note_off,151,0,0,,11,,,82,127
65975,note_off,0,0,0,,7,,,79,127
65977,note_on,2,0,0,,5,,,77,127
65977,note_on,0,0,0,,8,,,80,127
66128,note_off,151,0,0,,8,,,80,127
66128,note_off,0,0,0,,5,,,77,127
66128,note_off,0,0,0,,11,,,58,127
66130,note_on,2,0,0,,0,,,60,127
66130,note_on,0,0,0,,7,,,79,127
66130,note_on,0,0,0,,4,,,76,127
66281,note_off,151,0,0,,4,,,76,127
66281,note_off,0,0,0,,7,,,79,127
66281,note_off,0,0,0,,0,,,60,127
66283,note_on,2,0,0,,5,,,53,127
66283,note_on,0,0,0,,5,,,77,127
66437,note_on,154,0,0,,0,,,72,127
66588,note_off,151,0,0,,0,,,72,127
66588,note_off,0,0,0,,5,,,53,127
66590,note_on,2,0,0,,0,,,60,127
66590,note_on,0,0,0,,0,,,72,127
66741,note_off,151,0,0,,0,,,72,127
66741,note_off,0,0,0,,0,,,60,127
66743,note_off,2,0,0,,5,,,77,127
66744,note_on,1,0,0,,11,,,58,127
66744,note_on,0,0,0,,5,,,77,127
66744,note_on,0,0,0,,3,,,75,127
66782,note_on,38,0,0,,1,,,73,127
66792,note_off,10,0,0,,3,,,75,127
66821,note_on,29,0,0,,3,,,75,127
66831,note_off,10,0,0,,1,,,73,127
66860,note_on,29,0,0,,1,,,73,127
66870,note_off,10,0,0,,3,,,75,127
66899,note_on,29,0,0,,0,,,72,127
66909,note_off,10,0,0,,1,,,73,127
67051,note_off,142,0,0,,0,,,72,127
67051,note_off,0,0,0,,11,,,58,127
67053,note_on,2,0,0,,5,,,65,127
67053,note_on,0,0,0,,1,,,73,127
67204,note_off,151,0,0,,1,,,73,127
67204,note_off,0,0,0,,5,,,65,127
67206,note_off,2,0,0,,5,,,77,127
67207,note_on,1,0,0,,0,,,60,127
67207,note_on,0,0,0,,4,,,76,127
67207,note_on,0,0,0,,0,,,72,127
67358,note_off,151,0,0,,0,,,60,127
67360,note_on,2,0,0,,7,,,67,127
67511,note_off,151,0,0,,7,,,67,127
67513,note_on,2,0,0,,11,,,70,127
67664,note_off,151,0,0,,11,,,70,127
67664,note_off,0,0,0,,4,,,76,127
67666,note_on,2,0,0,,8,,,68,127
67666,note_on,0,0,0,,5,,,77,127
67817,note_off,151,0,0,,8,,,68,127
67819,note_on,2,0,0,,7,,,67,127
67970,note_off,151,0,0,,7,,,67,127
67972,note_on,2,0,0,,5,,,65,127
68123,note_off,151,0,0,,5,,,65,127
68123,note_off,0,0,0,,5,,,77,127
68124,note_off,1,0,0,,0,,,72,127
68126,note_on,2,0,0,,4,,,64,127
68126,note_on,0,0,0,,7,,,67,127
68126,note_on,0,0,0,,0,,,72,127
68126,note_on,0,0,0,,7,,,79,127
68177,note_on,51,0,0,,5,,,77,127
68180,note_off,3,0,0,,7,,,79,127
68228,note_on,48,0,0,,7,,,79,127
68231,note_off,3,0,0,,5,,,77,127
68279,note_on,48,0,0,,8,,,80,127
68282,note_off,3,0,0,,7,,,79,127
68430,note_off,148,0,0,,8,,,80,127
68430,note_off,0,0,0,,4,,,64,127
68432,note_on,2,0,0,,0,,,60,127
68432,note_on,0,0,0,,11,,,82,127
68583,note_off,151,0,0,,11,,,82,127
68583,note_off,0,0,0,,0,,,60,127
68585,note_off,2,0,0,,7,,,67,127
68586,note_on,1,0,0,,5,,,65,127
68586,note_on,0,0,0,,8,,,68,127
68586,note_on,0,0,0,,8,,,80,127
68586,note_on,0,0,0,,11,,,82,127
68737,note_off,151,0,0,,11,,,82,127
68737,note_off,0,0,0,,8,,,80,127
68739,note_on,2,0,0,,7,,,79,127
68890,note_off,151,0,0,,7,,,79,127
68890,note_off,0,0,0,,5,,,65,127
68892,note_on,2,0,0,,11,,,58,127
68892,note_on,0,0,0,,5,,,77,127
68892,note_on,0,0,0,,8,,,80,127
69043,note_off,151,0,0,,8,,,80,127
69043,note_off,0,0,0,,5,,,77,127
69043,note_off,0,0,0,,11,,,58,127
69044,note_off,1,0,0,,0,,,72,127
69045,note_off,1,0,0,,8,,,68,127
69046,note_on,1,0,0,,0,,,60,127
69046,note_on,0,0,0,,0,,,72,127
69046,note_on,0,0,0,,7,,,79,127
69046,note_on,0,0,0,,4,,,76,127
69197,note_off,151,0,0,,4,,,76,127
69197,note_off,0,0,0,,0,,,72,127
69199,note_on,2,0,0,,0,,,72,127
69350,note_off,151,0,0,,0,,,72,127
69352,note_on,2,0,0,,0,,,72,127
69503,note_off,151,0,0,,0,,,72,127
69503,note_off,0,0,0,,0,,,60,127
69505,note_off,2,0,0,,7,,,79,127
69506,note_on,1,0,0,,11,,,58,127
69506,note_on,0,0,0,,5,,,77,127
69506,note_on,0,0,0,,3,,,75,127
69544,note_on,38,0,0,,1,,,73,127
69554,note_off,10,0,0,,3,,,75,127
69583,note_on,29,0,0,,3,,,75,127
69593,note_off,10,0,0,,1,,,73,127
69622,note_on,29,0,0,,1,,,73,127
69632,note_off,10,0,0,,3,,,75,127
69661,note_on,29,0,0,,0,,,72,127
69671,note_off,10,0,0,,1,,,73,127
69813,note_off,142,0,0,,0,,,72,127
69813,note_off,0,0,0,,11,,,58,127
69815,note_on,2,0,0,,5,,,65,127
69815,note_on,0,0,0,,1,,,73,127
69966,note_off,151,0,0,,1,,,73,127
69966,note_off,0,0,0,,5,,,65,127
69968,note_off,2,0,0,,5,,,77,127
69969,note_on,1,0,0,,0,,,60,127
69969,note_on,0,0,0,,0,,,72,127
69969,note_on,0,0,0,,4,,,76,127
70120,note_off,151,0,0,,0,,,60,127
70122,note_on,2,0,0,,7,,,67,127
70273,note_off,151,0,0,,7,,,67,127
70275,note_on,2,0,0,,11,,,70,127
70426,note_off,151,0,0,,11,,,70,127
70426,note_off,0,0,0,,4,,,76,127
70428,note_on,2,0,0,,8,,,68,127
70428,note_on,0,0,0,,5,,,77,127
70579,note_off,151,0,0,,8,,,68,127
70581,note_on,2,0,0,,7,,,67,127
70732,note_off,151,0,0,,7,,,67,127
70734,note_on,2,0,0,,5,,,65,127
70811,note_off,77,0,0,,5,,,77,127
70885,note_off,74,0,0,,5,,,65,127
70886,note_off,1,0,0,,0,,,72,127
70888,note_on,2,0,0,,4,,,64,127
70888,note_on,0,0,0,,7,,,67,127
70888,note_on,0,0,0,,0,,,72,127
70888,note_on,0,0,0,,7,,,79,127
70939,note_on,51,0,0,,5,,,77,127
70942,note_off,3,0,0,,7,,,79,127
70990,note_on,48,0,0,,7,,,79,127
70993,note_off,3,0,0,,5,,,77,127
71041,note_on,48,0,0,,8,,,80,127
71044,note_off,3,0,0,,7,,,79,127
71192,note_off,148,0,0,,8,,,80,127
71192,note_off,0,0,0,,4,,,64,127
71194,note_on,2,0,0,,0,,,60,127
71194,note_on,0,0,0,,11,,,82,127
71345,note_off,151,0,0,,11,,,82,127
71345,note_off,0,0,0,,0,,,60,127
71347,note_off,2,0,0,,7,,,67,127
71348,note_on,1,0,0,,8,,,68,127
71348,note_on,0,0,0,,5,,,65,127
71348,note_on,0,0,0,,11,,,82,127
71348,note_on,0,0,0,,8,,,80,127
71499,note_off,151,0,0,,8,,,80,127
71499,note_off,0,0,0,,11,,,82,127
71501,note_on,2,0,0,,7,,,79,127
71652,note_off,151,0,0,,7,,,79,127
71652,note_off,0,0,0,,5,,,65,127
71654,note_on,2,0,0,,11,,,58,127
71654,note_on,0,0,0,,5,,,77,127
71654,note_on,0,0,0,,8,,,80,127
71805,note_off,151,0,0,,8,,,80,127
71805,note_off,0,0,0,,5,,,77,127
71805,note_off,0,0,0,,11,,,58,127
71806,note_off,1,0,0,,0,,,72,127
71807,note_off,1,0,0,,8,,,68,127
71808,note_on,1,0,0,,0,,,60,127
71808,note_on,0,0,0,,0,,,72,127
71808,note_on,0,0,0,,4,,,76,127
71808,note_on,0,0,0,,7,,,79,127
71959,note_off,151,0,0,,7,,,79,127
71959,note_off,0,0,0,,4,,,76,127
71959,note_off,0,0,0,,0,,,72,127
71961,note_on,2,0,0,,0,,,72,127
72112,note_off,151,0,0,,0,,,72,127
72114,note_on,2,0,0,,0,,,72,127
72265,note_off,151,0,0,,0,,,72,127
72265,note_off,0,0,0,,0,,,60,127
72267,note_on,2,0,0,,11,,,70,127
72267,note_on,0,0,0,,1,,,73,127
72418,note_off,151,0,0,,1,,,73,127
72420,note_on,2,0,0,,1,,,73,127
72571,note_off,151,0,0,,1,,,73,127
72571,note_off,0,0,0,,11,,,70,127
72573,note_on,2,0,0,,8,,,68,127
72573,note_on,0,0,0,,2,,,74,127
72724,note_off,151,0,0,,2,,,74,127
72724,note_off,0,0,0,,8,,,68,127
72726,note_on,2,0,0,,7,,,67,127
72726,note_on,0,0,0,,3,,,75,127
72877,note_off,151,0,0,,3,,,75,127
72879,note_on,2,0,0,,3,,,75,127
73030,note_off,151,0,0,,3,,,75,127
73030,note_off,0,0,0,,7,,,67,127
73032,note_on,2,0,0,,11,,,70,127
73032,note_on,0,0,0,,4,,,76,127
73183,note_off,151,0,0,,4,,,76,127
73183,note_off,0,0,0,,11,,,70,127
73185,note_on,2,0,0,,8,,,68,127
73185,note_on,0,0,0,,5,,,77,127
73336,note_off,151,0,0,,5,,,77,127
73338,note_on,2,0,0,,5,,,77,127
73489,note_off,151,0,0,,5,,,77,127
73489,note_off,0,0,0,,8,,,68,127
73491,note_on,2,0,0,,7,,,67,127
73491,note_on,0,0,0,,7,,,79,127
73642,note_off,151,0,0,,7,,,79,127
73642,note_off,0,0,0,,7,,,67,127
73644,note_on,2,0,0,,5,,,65,127
73644,note_on,0,0,0,,5,,,77,127
73644,note_on,0,0,0,,8,,,80,127
73795,note_off,151,0,0,,8,,,80,127
73795,note_off,0,0,0,,5,,,77,127
73797,note_on,2,0,0,,7,,,79,127
73797,note_on,0,0,0,,11,,,82,127
73948,note_off,151,0,0,,11,,,82,127
73948,note_off,0,0,0,,7,,,79,127
73948,note_off,0,0,0,,5,,,65,127
73950,note_on,2,0,0,,8,,,56,127
73950,note_on,0,0,0,,0,,,84,127
73950,note_on,0,0,0,,8,,,80,127
74101,note_off,151,0,0,,8,,,80,127
74101,note_off,0,0,0,,0,,,84,127
74101,note_off,0,0,0,,8,,,56,127
74103,note_on,2,0,0,,11,,,58,127
74103,note_on,0,0,0,,11,,,82,127
74103,note_on,0,0,0,,7,,,79,127
74254,note_off,151,0,0,,7,,,79,127
74254,note_off,0,0,0,,11,,,82,127
74256,note_on,2,0,0,,5,,,77,127
74256,note_on,0,0,0,,8,,,80,127
74407,note_off,151,0,0,,8,,,80,127
74407,note_off,0,0,0,,5,,,77,127
74407,note_off,0,0,0,,11,,,58,127
74409,note_on,2,0,0,,0,,,60,127
74409,note_on,0,0,0,,7,,,79,127
74409,note_on,0,0,0,,4,,,76,127
74560,note_off,151,0,0,,4,,,76,127
74560,note_off,0,0,0,,7,,,79,127
74560,note_off,0,0,0,,0,,,60,127
74562,note_on,2,0,0,,5,,,53,127
74562,note_on,0,0,0,,5,,,77,127
74713,note_off,151,0,0,,5,,,77,127
74715,note_on,2,0,0,,8,,,80,127
74715,note_on,0,0,0,,0,,,72,127
74866,note_off,151,0,0,,8,,,80,127
74868,note_on,2,0,0,,8,,,80,127
75018,note_off,150,0,0,,0,,,72,127
75019,note_off,1,0,0,,8,,,80,127
75019,note_off,0,0,0,,5,,,53,127
75021,note_on,2,0,0,,0,,,48,127
75021,note_on,0,0,0,,8,,,80,127
75021,note_on,0,0,0,,11,,,70,127
75172,note_off,151,0,0,,8,,,80,127
75174,note_on,2,0,0,,7,,,79,127
75325,note_off,151,0,0,,7,,,79,127
75327,note_on,2,0,0,,7,,,79,127
75478,note_off,151,0,0,,7,,,79,127
75478,note_off,0,0,0,,0,,,48,127
75480,note_off,2,0,0,,11,,,70,127
75481,note_on,1,0,0,,1,,,49,127
75481,note_on,0,0,0,,7,,,79,127
75481,note_on,0,0,0,,8,,,68,127
75632,note_off,151,0,0,,7,,,79,127
75634,note_on,2,0,0,,5,,,77,127
75785,note_off,151,0,0,,5,,,77,127
75787,note_on,2,0,0,,5,,,77,127
75938,note_off,151,0,0,,5,,,77,127
75938,note_off,0,0,0,,1,,,49,127
75940,note_off,2,0,0,,8,,,68,127
75941,note_on,1,0,0,,0,,,48,127
75941,note_on,0,0,0,,5,,,77,127
75941,note_on,0,0,0,,7,,,67,127
76092,note_off,151,0,0,,5,,,77,127
76094,note_on,2,0,0,,4,,,76,127
76245,note_off,151,0,0,,4,,,76,127
76247,note_on,2,0,0,,4,,,76,127
76398,note_off,151,0,0,,4,,,76,127
76398,note_off,0,0,0,,0,,,48,127
76400,note_off,2,0,0,,7,,,67,127
76401,note_on,1,0,0,,5,,,53,127
76401,note_on,0,0,0,,5,,,65,127
76401,note_on,0,0,0,,5,,,77,127
76552,note_off,151,0,0,,5,,,77,127
76552,note_off,0,0,0,,5,,,65,127
76554,note_on,2,0,0,,8,,,80,127
76554,note_on,0,0,0,,0,,,72,127
76705,note_off,151,0,0,,8,,,80,127
76707,note_on,2,0,0,,8,,,80,127
76857,note_off,150,0,0,,0,,,72,127
76858,note_off,1,0,0,,8,,,80,127
76858,note_off,0,0,0,,5,,,53,127
76860,note_on,2,0,0,,0,,,48,127
76860,note_on,0,0,0,,11,,,70,127
76860,note_on,0,0,0,,8,,,80,127
77011,note_off,151,0,0,,8,,,80,127
77013,note_on,2,0,0,,7,,,79,127
77163,note_off,150,0,0,,11,,,70,127
77164,note_off,1,0,0,,7,,,79,127
77166,note_on,2,0,0,,7,,,79,127
77317,note_off,151,0,0,,7,,,79,127
77317,note_off,0,0,0,,0,,,48,127
77319,note_on,2,0,0,,1,,,49,127
77319,note_on,0,0,0,,8,,,68,127
77319,note_on,0,0,0,,7,,,79,127
77470,note_off,151,0,0,,7,,,79,127
77472,note_on,2,0,0,,5,,,77,127
77622,note_off,150,0,0,,8,,,68,127
77623,note_off,1,0,0,,5,,,77,127
77625,note_on,2,0,0,,5,,,77,127
77776,note_off,151,0,0,,5,,,77,127
77776,note_off,0,0,0,,1,,,49,127
77778,note_on,2,0,0,,0,,,48,127
77778,note_on,0,0,0,,5,,,77,127
77778,note_on,0,0,0,,7,,,67,127
77929,note_off,151,0,0,,5,,,77,127
77931,note_on,2,0,0,,3,,,75,127
78081,note_off,150,0,0,,7,,,67,127
78082,note_off,1,0,0,,3,,,75,127
78084,note_on,2,0,0,,10,,,69,127
78084,note_on,0,0,0,,3,,,75,127
78235,note_off,151,0,0,,3,,,75,127
78235,note_off,0,0,0,,10,,,69,127
78235,note_off,0,0,0,,0,,,48,127
78237,note_on,2,0,0,,11,,,46,127
78237,note_on,0,0,0,,3,,,75,127
78237,note_on,0,0,0,,11,,,70,127
78388,note_off,151,0,0,,3,,,75,127
78390,note_on,2,0,0,,1,,,73,127
78540,note_off,150,0,0,,11,,,70,127
78541,note_off,1,0,0,,1,,,73,127
78543,note_on,2,0,0,,5,,,65,127
78543,note_on,0,0,0,,1,,,73,127
78694,note_off,151,0,0,,1,,,73,127
78694,note_off,0,0,0,,5,,,65,127
78694,note_off,0,0,0,,11,,,46,127
78696,note_on,2,0,0,,0,,,48,127
78696,note_on,0,0,0,,4,,,64,127
78696,note_on,0,0,0,,1,,,73,127
78847,note_off,151,0,0,,1,,,73,127
78849,note_on,2,0,0,,0,,,72,127
78999,note_off,150,0,0,,4,,,64,127
79000,note_off,1,0,0,,0,,,72,127
79000,note_off,0,0,0,,0,,,48,127
79002,note_on,2,0,0,,4,,,52,127
79002,note_on,0,0,0,,11,,,70,127
79002,note_on,0,0,0,,7,,,67,127
79153,note_off,151,0,0,,7,,,67,127
79153,note_off,0,0,0,,11,,,70,127
79153,note_off,0,0,0,,4,,,52,127
79155,note_on,2,0,0,,5,,,53,127
79155,note_on,0,0,0,,5,,,65,127
79155,note_on,0,0,0,,11,,,70,127
79155,note_on,0,0,0,,8,,,68,127
79306,note_off,151,0,0,,8,,,68,127
79306,note_off,0,0,0,,11,,,70,127
79306,note_off,0,0,0,,5,,,65,127
79308,note_on,2,0,0,,4,,,64,127
79308,note_on,0,0,0,,7,,,67,127
79459,note_off,151,0,0,,7,,,67,127
79459,note_off,0,0,0,,4,,,64,127
79459,note_off,0,0,0,,5,,,53,127
79461,note_on,2,0,0,,1,,,49,127
79461,note_on,0,0,0,,5,,,65,127
79461,note_on,0,0,0,,8,,,68,127
79612,note_off,151,0,0,,8,,,68,127
79612,note_off,0,0,0,,5,,,65,127
79612,note_off,0,0,0,,1,,,49,127
79614,note_on,2,0,0,,11,,,46,127
79614,note_on,0,0,0,,11,,,70,127
79614,note_on,0,0,0,,7,,,67,127
79765,note_off,151,0,0,,7,,,67,127
79765,note_off,0,0,0,,11,,,70,127
79767,note_on,2,0,0,,5,,,65,127
79767,note_on,0,0,0,,8,,,68,127
79918,note_off,151,0,0,,8,,,68,127
79918,note_off,0,0,0,,5,,,65,127
79918,note_off,0,0,0,,11,,,46,127
79920,note_on,2,0,0,,0,,,48,127
79920,note_on,0,0,0,,7,,,67,127
79920,note_on,0,0,0,,4,,,64,127
80071,note_off,151,0,0,,4,,,64,127
80071,note_off,0,0,0,,7,,,67,127
80071,note_off,0,0,0,,0,,,48,127
80073,note_on,2,0,0,,5,,,41,127
80073,note_on,0,0,0,,5,,,53,127
80073,note_on,0,0,0,,5,,,65,127
80201,note_off,128,0,0,,5,,,65,127
80227,note_on,26,0,0,,0,,,72,127
80227,note_on,0,0,0,,8,,,80,127
80378,note_off,151,0,0,,8,,,80,127
80379,note_off,1,0,0,,0,,,72,127
80381,note_on,2,0,0,,8,,,80,127
80532,note_off,151,0,0,,8,,,80,127
80532,note_off,0,0,0,,5,,,53,127
80532,note_off,0,0,0,,5,,,41,127
80534,note_on,2,0,0,,0,,,48,127
80534,note_on,0,0,0,,8,,,80,127
80534,note_on,0,0,0,,11,,,70,127
80685,note_off,151,0,0,,8,,,80,127
80687,note_on,2,0,0,,7,,,79,127
80764,note_off,77,0,0,,11,,,70,127
80838,note_off,74,0,0,,7,,,79,127
80840,note_on,2,0,0,,7,,,79,127
80991,note_off,151,0,0,,7,,,79,127
80991,note_off,0,0,0,,0,,,48,127
80993,note_on,2,0,0,,1,,,49,127
80993,note_on,0,0,0,,7,,,79,127
80993,note_on,0,0,0,,8,,,68,127
81144,note_off,151,0,0,,7,,,79,127
81146,note_on,2,0,0,,5,,,77,127
81223,note_off,77,0,0,,8,,,68,127
81297,note_off,74,0,0,,5,,,77,127
81299,note_on,2,0,0,,5,,,77,127
81450,note_off,151,0,0,,5,,,77,127
81450,note_off,0,0,0,,1,,,49,127
81452,note_on,2,0,0,,0,,,48,127
81452,note_on,0,0,0,,7,,,67,127
81452,note_on,0,0,0,,5,,,77,127
81603,note_off,151,0,0,,5,,,77,127
81603,note_off,0,0,0,,7,,,67,127
81605,note_on,2,0,0,,3,,,75,127
81756,note_off,151,0,0,,3,,,75,127
81758,note_on,2,0,0,,10,,,69,127
81758,note_on,0,0,0,,3,,,75,127
81909,note_off,151,0,0,,3,,,75,127
81909,note_off,0,0,0,,10,,,69,127
81909,note_off,0,0,0,,0,,,48,127
81911,note_on,2,0,0,,11,,,46,127
81911,note_on,0,0,0,,3,,,75,127
81911,note_on,0,0,0,,11,,,70,127
82062,note_off,151,0,0,,11,,,70,127
82062,note_off,0,0,0,,3,,,75,127
82064,note_on,2,0,0,,1,,,73,127
82215,note_off,151,0,0,,1,,,73,127
82217,note_on,2,0,0,,5,,,65,127
82217,note_on,0,0,0,,1,,,73,127
82368,note_off,151,0,0,,1,,,73,127
82368,note_off,0,0,0,,5,,,65,127
82368,note_off,0,0,0,,11,,,46,127
82370,note_on,2,0,0,,0,,,48,127
82370,note_on,0,0,0,,1,,,73,127
82370,note_on,0,0,0,,4,,,64,127
82521,note_off,151,0,0,,4,,,64,127
82521,note_off,0,0,0,,1,,,73,127
82523,note_on,2,0,0,,0,,,72,127
82674,note_off,151,0,0,,0,,,72,127
82674,note_off,0,0,0,,0,,,48,127
82676,note_on,2,0,0,,4,,,52,127
82676,note_on,0,0,0,,7,,,67,127
82676,note_on,0,0,0,,11,,,70,127
82827,note_off,151,0,0,,11,,,70,127
82827,note_off,0,0,0,,7,,,67,127
82827,note_off,0,0,0,,4,,,52,127
82829,note_on,2,0,0,,5,,,53,127
82829,note_on,0,0,0,,8,,,68,127
82829,note_on,0,0,0,,5,,,65,127
82829,note_on,0,0,0,,11,,,70,127
82980,note_off,151,0,0,,11,,,70,127
82980,note_off,0,0,0,,5,,,65,127
82980,note_off,0,0,0,,8,,,68,127
82982,note_on,2,0,0,,7,,,67,127
82982,note_on,0,0,0,,4,,,64,127
83133,note_off,151,0,0,,4,,,64,127
83133,note_off,0,0,0,,7,,,67,127
83133,note_off,0,0,0,,5,,,53,127
83135,note_on,2,0,0,,1,,,49,127
83135,note_on,0,0,0,,5,,,65,127
83135,note_on,0,0,0,,8,,,68,127
83286,note_off,151,0,0,,8,,,68,127
83286,note_off,0,0,0,,5,,,65,127
83286,note_off,0,0,0,,1,,,49,127
83288,note_on,2,0,0,,11,,,46,127
83288,note_on,0,0,0,,11,,,70,127
83288,note_on,0,0,0,,7,,,67,127
83439,note_off,151,0,0,,7,,,67,127
83439,note_off,0,0,0,,11,,,70,127
83441,note_on,2,0,0,,8,,,68,127
83441,note_on,0,0,0,,5,,,65,127
83592,note_off,151,0,0,,5,,,65,127
83592,note_off,0,0,0,,8,,,68,127
83592,note_off,0,0,0,,11,,,46,127
83594,note_on,2,0,0,,0,,,48,127
83594,note_on,0,0,0,,4,,,64,127
83594,note_on,0,0,0,,7,,,67,127
83745,note_off,151,0,0,,7,,,67,127
83745,note_off,0,0,0,,4,,,64,127
83745,note_off,0,0,0,,0,,,48,127
83747,note_on,2,0,0,,5,,,41,127
83747,note_on,0,0,0,,5,,,65,127
83898,note_off,151,0,0,,5,,,41,127
83900,note_on,2,0,0,,8,,,44,127
84051,note_off,151,0,0,,8,,,44,127
84053,note_on,2,0,0,,0,,,48,127
84204,note_off,151,0,0,,0,,,48,127
84206,note_on,2,0,0,,5,,,53,127
84357,note_off,151,0,0,,5,,,53,127
84359,note_on,2,0,0,,8,,,56,127
84510,note_off,151,0,0,,8,,,56,127
84512,note_on,2,0,0,,0,,,60,127
84658,note_off,146,0,0,,5,,,65,127
84664,note_off,6,0,0,,0,,,60,127
84666,note_on,2,0,0,,5,,,65,127
84820,note_on,154,0,0,,11,,,82,127
84971,note_off,151,0,0,,11,,,82,127
84971,note_off,0,0,0,,5,,,65,127
84973,note_on,2,0,0,,11,,,58,127
84973,note_on,0,0,0,,7,,,79,127
85124,note_off,151,0,0,,11,,,58,127
85126,note_on,2,0,0,,0,,,60,127
85277,note_off,151,0,0,,7,,,79,127
85279,note_on,2,0,0,,7,,,79,127
85317,note_on,38,0,0,,5,,,77,127
85327,note_off,10,0,0,,7,,,79,127
85356,note_on,29,0,0,,7,,,79,127
85366,note_off,10,0,0,,5,,,77,127
85395,note_on,29,0,0,,5,,,77,127
85405,note_off,10,0,0,,7,,,79,127
85431,note_off,26,0,0,,0,,,60,127
85433,note_on,2,0,0,,0,,,48,127
85433,note_on,0,0,0,,4,,,76,127
85443,note_off,10,0,0,,5,,,77,127
85585,note_off,142,0,0,,4,,,76,127
85585,note_off,0,0,0,,0,,,48,127
85587,note_on,2,0,0,,5,,,77,127
85587,note_on,0,0,0,,5,,,41,127
85739,note_off,152,0,0,,5,,,41,127
85742,note_on,3,0,0,,8,,,44,127
85894,note_off,152,0,0,,8,,,44,127
85896,note_on,2,0,0,,0,,,48,127
86048,note_off,152,0,0,,0,,,48,127
86051,note_on,3,0,0,,5,,,53,127
86203,note_off,152,0,0,,5,,,53,127
86206,note_on,3,0,0,,8,,,56,127
86358,note_off,152,0,0,,8,,,56,127
86361,note_on,3,0,0,,0,,,60,127
86513,note_off,152,0,0,,0,,,60,127
86515,note_off,2,0,0,,5,,,77,127
86517,note_on,2,0,0,,5,,,65,127
86672,note_on,155,0,0,,0,,,84,127
86824,note_off,152,0,0,,0,,,84,127
86824,note_off,0,0,0,,5,,,65,127
86827,note_on,3,0,0,,1,,,85,127
86827,note_on,0,0,0,,11,,,58,127
86979,note_off,152,0,0,,11,,,58,127
86979,note_off,0,0,0,,1,,,85,127
86982,note_on,3,0,0,,5,,,77,127
86982,note_on,0,0,0,,0,,,60,127
87148,note_off,166,0,0,,5,,,77,127
87157,note_on,9,0,0,,5,,,77,127
87215,note_on,58,0,0,,4,,,76,127
87216,note_off,1,0,0,,5,,,77,127
87274,note_off,58,0,0,,4,,,76,127
87274,note_on,0,0,0,,5,,,77,127
87320,note_off,46,0,0,,0,,,60,127
87334,note_off,14,0,0,,5,,,77,127
87334,note_on,0,0,0,,4,,,76,127
87334,note_on,0,0,0,,0,,,48,127
87392,note_on,58,0,0,,2,,,74,127
87394,note_off,2,0,0,,4,,,76,127
87451,note_on,57,0,0,,4,,,76,127
87452,note_off,1,0,0,,2,,,74,127
87498,note_off,46,0,0,,4,,,76,127
87501,note_off,3,0,0,,0,,,48,127
87510,note_on,9,0,0,,4,,,76,127
87510,note_on,0,0,0,,5,,,41,127
88428,note_off,918,0,0,,4,,,76,127
88428,note_on,0,0,0,,5,,,77,127
89887,note_off,1459,0,0,,5,,,41,127
89964,note_off,77,0,0,,5,,,77,127
95232,end_of_track,5268,1,0,,,,,,
