tick,type,time,meta,track,frame_rate,hours,minutes,seconds,frames,sub_frames,numerator,denominator,clocks_per_click,notated_32nd_notes_per_beat,key,tempo,port,program,channel,control,value,note,velocity
0,track_name,0,1,0,,,,,,,,,,,,,,,,,,,
0,midi_port,0,1,2,,,,,,,,,,,,,0,,,,,,
0,control_change,0,0,1,,,,,,,,,,,,,,,0,7,127,,
0,control_change,0,0,1,,,,,,,,,,,,,,,0,121,0,,
0,control_change,0,0,1,,,,,,,,,,,,,,,0,7,127,,
0,program_change,0,0,1,,,,,,,,,,,,,,0,0,,,,
0,program_change,0,0,1,,,,,,,,,,,,,,0,0,,,,
0,end_of_track,0,1,2,,,,,,,,,,,,,,,,,,,
0,end_of_track,0,1,0,,,,,,,,,,,,,,,,,,,
0,midi_port,0,1,1,,,,,,,,,,,,,0,,,,,,
0,smpte_offset,0,1,0,25,32,0,3,0,0,,,,,,,,,,,,,
0,text,0,1,0,,,,,,,,,,,,,,,,,,,
0,key_signature,0,1,0,,,,,,,,,,,C,,,,,,,,
0,set_tempo,0,1,0,,,,,,,,,,,,571429,,,,,,,
0,time_signature,0,1,0,,,,,,,3,8,12,8,,,,,,,,,
96,note_on,96,0,1,,,,,,,,,,,,,,,0,,,72,127
96,note_on,0,0,1,,,,,,,,,,,,,,,0,,,76,127
192,note_on,96,0,1,,,,,,,,,,,,,,,0,,,76,0
192,note_on,0,0,1,,,,,,,,,,,,,,,0,,,72,0
288,note_on,96,0,1,,,,,,,,,,,,,,,0,,,71,127
288,note_on,0,0,1,,,,,,,,,,,,,,,0,,,74,127
384,note_on,96,0,1,,,,,,,,,,,,,,,0,,,74,0
384,note_on,0,0,1,,,,,,,,,,,,,,,0,,,71,0
480,note_on,96,0,1,,,,,,,,,,,,,,,0,,,72,127
480,note_on,0,0,1,,,,,,,,,,,,,,,0,,,76,127
576,note_on,96,0,1,,,,,,,,,,,,,,,0,,,76,0
576,note_on,0,0,1,,,,,,,,,,,,,,,0,,,72,0
672,note_on,96,0,1,,,,,,,,,,,,,,,0,,,72,127
672,note_on,0,0,1,,,,,,,,,,,,,,,0,,,76,127
720,note_on,48,0,1,,,,,,,,,,,,,,,0,,,74,127
720,note_on,0,0,1,,,,,,,,,,,,,,,0,,,71,127
724,note_on,4,0,1,,,,,,,,,,,,,,,0,,,76,0
724,note_on,0,0,1,,,,,,,,,,,,,,,0,,,72,0
768,note_on,44,0,1,,,,,,,,,,,,,,,0,,,76,127
768,note_on,0,0,1,,,,,,,,,,,,,,,0,,,72,127
772,note_on,4,0,1,,,,,,,,,,,,,,,0,,,74,0
772,note_on,0,0,1,,,,,,,,,,,,,,,0,,,71,0
816,note_on,44,0,1,,,,,,,,,,,,,,,0,,,71,127
816,note_on,0,0,1,,,,,,,,,,,,,,,0,,,74,127
820,note_on,4,0,1,,,,,,,,,,,,,,,0,,,76,0
820,note_on,0,0,1,,,,,,,,,,,,,,,0,,,72,0
1056,note_on,236,0,1,,,,,,,,,,,,,,,0,,,71,0
1056,note_on,0,0,1,,,,,,,,,,,,,,,0,,,74,0
1296,note_on,0,0,1,,,,,,,,,,,,,,,0,,,60,127
1296,note_on,240,0,1,,,,,,,,,,,,,,,0,,,64,127
1392,note_on,0,0,1,,,,,,,,,,,,,,,0,,,64,0
1392,note_on,96,0,1,,,,,,,,,,,,,,,0,,,60,0
1488,note_on,96,0,1,,,,,,,,,,,,,,,0,,,59,127
1488,note_on,0,0,1,,,,,,,,,,,,,,,0,,,62,127
1584,note_on,96,0,1,,,,,,,,,,,,,,,0,,,62,0
1584,note_on,0,0,1,,,,,,,,,,,,,,,0,,,59,0
1680,note_on,96,0,1,,,,,,,,,,,,,,,0,,,64,127
1680,note_on,0,0,1,,,,,,,,,,,,,,,0,,,60,127
1776,note_on,96,0,1,,,,,,,,,,,,,,,0,,,60,0
1776,note_on,0,0,1,,,,,,,,,,,,,,,0,,,64,0
1872,note_on,96,0,1,,,,,,,,,,,,,,,0,,,64,127
1872,note_on,0,0,1,,,,,,,,,,,,,,,0,,,60,127
1920,note_on,48,0,1,,,,,,,,,,,,,,,0,,,59,127
1920,note_on,0,0,1,,,,,,,,,,,,,,,0,,,62,127
1924,note_on,0,0,1,,,,,,,,,,,,,,,0,,,64,0
1924,note_on,4,0,1,,,,,,,,,,,,,,,0,,,60,0
1968,note_on,0,0,1,,,,,,,,,,,,,,,0,,,60,127
1968,note_on,44,0,1,,,,,,,,,,,,,,,0,,,64,127
1972,note_on,4,0,1,,,,,,,,,,,,,,,0,,,59,0
1972,note_on,0,0,1,,,,,,,,,,,,,,,0,,,62,0
2016,note_on,44,0,1,,,,,,,,,,,,,,,0,,,59,127
2016,note_on,0,0,1,,,,,,,,,,,,,,,0,,,62,127
2020,note_on,4,0,1,,,,,,,,,,,,,,,0,,,64,0
2020,note_on,0,0,1,,,,,,,,,,,,,,,0,,,60,0
2256,note_on,236,0,1,,,,,,,,,,,,,,,0,,,59,0
2256,note_on,0,0,1,,,,,,,,,,,,,,,0,,,62,0
2496,note_on,240,0,1,,,,,,,,,,,,,,,0,,,60,127
2496,note_on,0,0,1,,,,,,,,,,,,,,,0,,,52,127
2664,note_on,168,0,1,,,,,,,,,,,,,,,0,,,52,0
2664,note_on,0,0,1,,,,,,,,,,,,,,,0,,,60,0
2688,note_on,24,0,1,,,,,,,,,,,,,,,0,,,53,127
2688,note_on,0,0,1,,,,,,,,,,,,,,,0,,,62,127
2856,note_on,168,0,1,,,,,,,,,,,,,,,0,,,62,0
2856,note_on,0,0,1,,,,,,,,,,,,,,,0,,,53,0
2880,note_on,24,0,1,,,,,,,,,,,,,,,0,,,55,127
2880,note_on,0,0,1,,,,,,,,,,,,,,,0,,,64,127
3048,note_on,0,0,1,,,,,,,,,,,,,,,0,,,55,0
3048,note_on,168,0,1,,,,,,,,,,,,,,,0,,,64,0
3072,note_on,24,0,1,,,,,,,,,,,,,,,0,,,65,127
3072,note_on,0,0,1,,,,,,,,,,,,,,,0,,,57,127
3264,note_on,192,0,1,,,,,,,,,,,,,,,0,,,57,0
3264,note_on,0,0,1,,,,,,,,,,,,,,,0,,,59,127
3264,note_on,0,0,1,,,,,,,,,,,,,,,0,,,86,127
3456,note_on,192,0,1,,,,,,,,,,,,,,,0,,,86,0
3456,note_on,0,0,1,,,,,,,,,,,,,,,0,,,59,0
3456,note_on,0,0,1,,,,,,,,,,,,,,,0,,,65,0
3456,note_on,0,0,1,,,,,,,,,,,,,,,0,,,84,127
3456,note_on,0,0,1,,,,,,,,,,,,,,,0,,,64,127
3456,note_on,0,0,1,,,,,,,,,,,,,,,0,,,60,127
3600,note_on,144,0,1,,,,,,,,,,,,,,,0,,,60,0
3600,note_on,0,0,1,,,,,,,,,,,,,,,0,,,64,0
3648,note_on,0,0,1,,,,,,,,,,,,,,,0,,,60,127
3648,note_on,48,0,1,,,,,,,,,,,,,,,0,,,84,0
3648,note_on,0,0,1,,,,,,,,,,,,,,,0,,,52,127
3816,note_on,168,0,1,,,,,,,,,,,,,,,0,,,60,0
3816,note_on,0,0,1,,,,,,,,,,,,,,,0,,,52,0
3840,note_on,0,0,1,,,,,,,,,,,,,,,0,,,53,127
3840,note_on,24,0,1,,,,,,,,,,,,,,,0,,,62,127
4008,note_on,0,0,1,,,,,,,,,,,,,,,0,,,62,0
4008,note_on,168,0,1,,,,,,,,,,,,,,,0,,,53,0
4032,note_on,24,0,1,,,,,,,,,,,,,,,0,,,64,127
4032,note_on,0,0,1,,,,,,,,,,,,,,,0,,,55,127
4200,note_on,0,0,1,,,,,,,,,,,,,,,0,,,64,0
4200,note_on,168,0,1,,,,,,,,,,,,,,,0,,,55,0
4224,note_on,24,0,1,,,,,,,,,,,,,,,0,,,57,127
4224,note_on,0,0,1,,,,,,,,,,,,,,,0,,,65,127
4416,note_on,192,0,1,,,,,,,,,,,,,,,0,,,57,0
4416,note_on,0,0,1,,,,,,,,,,,,,,,0,,,59,127
4416,note_on,0,0,1,,,,,,,,,,,,,,,0,,,86,127
4608,note_on,192,0,1,,,,,,,,,,,,,,,0,,,86,0
4608,note_on,0,0,1,,,,,,,,,,,,,,,0,,,59,0
4608,note_on,0,0,1,,,,,,,,,,,,,,,0,,,65,0
4608,note_on,0,0,1,,,,,,,,,,,,,,,0,,,84,127
4608,note_on,0,0,1,,,,,,,,,,,,,,,0,,,60,127
4608,note_on,0,0,1,,,,,,,,,,,,,,,0,,,64,127
4752,note_on,0,0,1,,,,,,,,,,,,,,,0,,,60,0
4752,note_on,144,0,1,,,,,,,,,,,,,,,0,,,64,0
4800,note_on,0,0,1,,,,,,,,,,,,,,,0,,,67,127
4800,note_on,0,0,1,,,,,,,,,,,,,,,0,,,65,127
4800,note_on,48,0,1,,,,,,,,,,,,,,,0,,,84,0
4890,note_on,90,0,1,,,,,,,,,,,,,,,0,,,65,0
4890,note_on,0,0,1,,,,,,,,,,,,,,,0,,,67,0
4896,note_on,6,0,1,,,,,,,,,,,,,,,0,,,64,127
4896,note_on,0,0,1,,,,,,,,,,,,,,,0,,,69,127
4986,note_on,90,0,1,,,,,,,,,,,,,,,0,,,69,0
4986,note_on,0,0,1,,,,,,,,,,,,,,,0,,,64,0
4992,note_on,6,0,1,,,,,,,,,,,,,,,0,,,71,127
4992,note_on,0,0,1,,,,,,,,,,,,,,,0,,,62,127
5082,note_on,90,0,1,,,,,,,,,,,,,,,0,,,62,0
5082,note_on,0,0,1,,,,,,,,,,,,,,,0,,,71,0
5088,note_on,6,0,1,,,,,,,,,,,,,,,0,,,60,127
5088,note_on,0,0,1,,,,,,,,,,,,,,,0,,,72,127
5178,note_on,90,0,1,,,,,,,,,,,,,,,0,,,72,0
5178,note_on,0,0,1,,,,,,,,,,,,,,,0,,,60,0
5184,note_on,0,0,1,,,,,,,,,,,,,,,0,,,74,127
5184,note_on,6,0,1,,,,,,,,,,,,,,,0,,,59,127
5274,note_on,0,0,1,,,,,,,,,,,,,,,0,,,59,0
5274,note_on,90,0,1,,,,,,,,,,,,,,,0,,,74,0
5280,note_on,6,0,1,,,,,,,,,,,,,,,0,,,76,127
5280,note_on,0,0,1,,,,,,,,,,,,,,,0,,,57,127
5370,note_on,90,0,1,,,,,,,,,,,,,,,0,,,57,0
5370,note_on,0,0,1,,,,,,,,,,,,,,,0,,,76,0
5376,note_on,6,0,1,,,,,,,,,,,,,,,0,,,79,127
5376,note_on,0,0,1,,,,,,,,,,,,,,,0,,,77,127
5376,note_on,0,0,1,,,,,,,,,,,,,,,0,,,55,127
5472,note_on,96,0,1,,,,,,,,,,,,,,,0,,,79,0
5472,note_on,0,0,1,,,,,,,,,,,,,,,0,,,43,127
5568,note_on,96,0,1,,,,,,,,,,,,,,,0,,,43,0
5568,note_on,0,0,1,,,,,,,,,,,,,,,0,,,47,127
5664,note_on,96,0,1,,,,,,,,,,,,,,,0,,,47,0
5664,note_on,0,0,1,,,,,,,,,,,,,,,0,,,50,127
5760,note_on,0,0,1,,,,,,,,,,,,,,,0,,,48,127
5760,note_on,0,0,1,,,,,,,,,,,,,,,0,,,76,127
5760,note_on,96,0,1,,,,,,,,,,,,,,,0,,,50,0
5760,note_on,0,0,1,,,,,,,,,,,,,,,0,,,55,0
5760,note_on,0,0,1,,,,,,,,,,,,,,,0,,,77,0
5904,note_on,144,0,1,,,,,,,,,,,,,,,0,,,48,0
5940,note_on,36,0,1,,,,,,,,,,,,,,,0,,,76,0
5952,note_on,12,0,1,,,,,,,,,,,,,,,0,,,67,127
5952,note_on,0,0,1,,,,,,,,,,,,,,,0,,,65,127
6042,note_on,90,0,1,,,,,,,,,,,,,,,0,,,65,0
6042,note_on,0,0,1,,,,,,,,,,,,,,,0,,,67,0
6048,note_on,6,0,1,,,,,,,,,,,,,,,0,,,69,127
6048,note_on,0,0,1,,,,,,,,,,,,,,,0,,,64,127
6138,note_on,90,0,1,,,,,,,,,,,,,,,0,,,64,0
6138,note_on,0,0,1,,,,,,,,,,,,,,,0,,,69,0
6144,note_on,6,0,1,,,,,,,,,,,,,,,0,,,71,127
6144,note_on,0,0,1,,,,,,,,,,,,,,,0,,,62,127
6234,note_on,90,0,1,,,,,,,,,,,,,,,0,,,62,0
6234,note_on,0,0,1,,,,,,,,,,,,,,,0,,,71,0
6240,note_on,0,0,1,,,,,,,,,,,,,,,0,,,60,127
6240,note_on,6,0,1,,,,,,,,,,,,,,,0,,,72,127
6330,note_on,90,0,1,,,,,,,,,,,,,,,0,,,60,0
6330,note_on,0,0,1,,,,,,,,,,,,,,,0,,,72,0
6336,note_on,0,0,1,,,,,,,,,,,,,,,0,,,74,127
6336,note_on,6,0,1,,,,,,,,,,,,,,,0,,,59,127
6426,note_on,90,0,1,,,,,,,,,,,,,,,0,,,74,0
6426,note_on,0,0,1,,,,,,,,,,,,,,,0,,,59,0
6432,note_on,0,0,1,,,,,,,,,,,,,,,0,,,76,127
6432,note_on,6,0,1,,,,,,,,,,,,,,,0,,,57,127
6522,note_on,0,0,1,,,,,,,,,,,,,,,0,,,57,0
6522,note_on,90,0,1,,,,,,,,,,,,,,,0,,,76,0
6528,note_on,6,0,1,,,,,,,,,,,,,,,0,,,55,127
6528,note_on,0,0,1,,,,,,,,,,,,,,,0,,,79,127
6528,note_on,0,0,1,,,,,,,,,,,,,,,0,,,77,127
6624,note_on,96,0,1,,,,,,,,,,,,,,,0,,,79,0
6624,note_on,0,0,1,,,,,,,,,,,,,,,0,,,43,127
6720,note_on,96,0,1,,,,,,,,,,,,,,,0,,,43,0
6720,note_on,0,0,1,,,,,,,,,,,,,,,0,,,47,127
6816,note_on,96,0,1,,,,,,,,,,,,,,,0,,,47,0
6816,note_on,0,0,1,,,,,,,,,,,,,,,0,,,50,127
6912,note_on,96,0,1,,,,,,,,,,,,,,,0,,,50,0
6912,note_on,0,0,1,,,,,,,,,,,,,,,0,,,77,0
6912,note_on,0,0,1,,,,,,,,,,,,,,,0,,,55,0
6912,note_on,0,0,1,,,,,,,,,,,,,,,0,,,48,127
6912,note_on,0,0,1,,,,,,,,,,,,,,,0,,,76,127
7056,note_on,144,0,1,,,,,,,,,,,,,,,0,,,48,0
7092,note_on,36,0,1,,,,,,,,,,,,,,,0,,,76,0
7104,note_on,0,0,1,,,,,,,,,,,,,,,0,,,62,127
7104,note_on,12,0,1,,,,,,,,,,,,,,,0,,,64,127
7196,note_on,92,0,1,,,,,,,,,,,,,,,0,,,62,0
7196,note_on,0,0,1,,,,,,,,,,,,,,,0,,,64,0
7200,note_on,4,0,1,,,,,,,,,,,,,,,0,,,66,127
7200,note_on,0,0,1,,,,,,,,,,,,,,,0,,,60,127
7292,note_on,92,0,1,,,,,,,,,,,,,,,0,,,60,0
7292,note_on,0,0,1,,,,,,,,,,,,,,,0,,,66,0
7296,note_on,4,0,1,,,,,,,,,,,,,,,0,,,68,127
7296,note_on,0,0,1,,,,,,,,,,,,,,,0,,,59,127
7388,note_on,92,0,1,,,,,,,,,,,,,,,0,,,59,0
7388,note_on,0,0,1,,,,,,,,,,,,,,,0,,,68,0
7392,note_on,4,0,1,,,,,,,,,,,,,,,0,,,69,127
7392,note_on,0,0,1,,,,,,,,,,,,,,,0,,,57,127
7484,note_on,92,0,1,,,,,,,,,,,,,,,0,,,57,0
7484,note_on,0,0,1,,,,,,,,,,,,,,,0,,,69,0
7488,note_on,4,0,1,,,,,,,,,,,,,,,0,,,71,127
7488,note_on,0,0,1,,,,,,,,,,,,,,,0,,,56,127
7580,note_on,0,0,1,,,,,,,,,,,,,,,0,,,71,0
7580,note_on,92,0,1,,,,,,,,,,,,,,,0,,,56,0
7584,note_on,0,0,1,,,,,,,,,,,,,,,0,,,54,127
7584,note_on,4,0,1,,,,,,,,,,,,,,,0,,,72,127
7676,note_on,92,0,1,,,,,,,,,,,,,,,0,,,54,0
7676,note_on,0,0,1,,,,,,,,,,,,,,,0,,,72,0
7680,note_on,4,0,1,,,,,,,,,,,,,,,0,,,76,127
7680,note_on,0,0,1,,,,,,,,,,,,,,,0,,,74,127
7680,note_on,0,0,1,,,,,,,,,,,,,,,0,,,52,127
7776,note_on,96,0,1,,,,,,,,,,,,,,,0,,,76,0
7776,note_on,0,0,1,,,,,,,,,,,,,,,0,,,40,127
7872,note_on,96,0,1,,,,,,,,,,,,,,,0,,,40,0
7872,note_on,0,0,1,,,,,,,,,,,,,,,0,,,44,127
7968,note_on,96,0,1,,,,,,,,,,,,,,,0,,,44,0
7968,note_on,0,0,1,,,,,,,,,,,,,,,0,,,47,127
8064,note_on,0,0,1,,,,,,,,,,,,,,,0,,,72,127
8064,note_on,0,0,1,,,,,,,,,,,,,,,0,,,45,127
8064,note_on,0,0,1,,,,,,,,,,,,,,,0,,,52,0
8064,note_on,96,0,1,,,,,,,,,,,,,,,0,,,47,0
8064,note_on,0,0,1,,,,,,,,,,,,,,,0,,,74,0
8208,note_on,144,0,1,,,,,,,,,,,,,,,0,,,45,0
8244,note_on,36,0,1,,,,,,,,,,,,,,,0,,,72,0
8256,note_on,0,0,1,,,,,,,,,,,,,,,0,,,62,127
8256,note_on,12,0,1,,,,,,,,,,,,,,,0,,,64,127
8348,note_on,92,0,1,,,,,,,,,,,,,,,0,,,62,0
8348,note_on,0,0,1,,,,,,,,,,,,,,,0,,,64,0
8352,note_on,4,0,1,,,,,,,,,,,,,,,0,,,66,127
8352,note_on,0,0,1,,,,,,,,,,,,,,,0,,,60,127
8444,note_on,0,0,1,,,,,,,,,,,,,,,0,,,66,0
8444,note_on,92,0,1,,,,,,,,,,,,,,,0,,,60,0
8448,note_on,4,0,1,,,,,,,,,,,,,,,0,,,59,127
8448,note_on,0,0,1,,,,,,,,,,,,,,,0,,,68,127
8540,note_on,92,0,1,,,,,,,,,,,,,,,0,,,68,0
8540,note_on,0,0,1,,,,,,,,,,,,,,,0,,,59,0
8544,note_on,4,0,1,,,,,,,,,,,,,,,0,,,57,127
8544,note_on,0,0,1,,,,,,,,,,,,,,,0,,,69,127
8636,note_on,0,0,1,,,,,,,,,,,,,,,0,,,57,0
8636,note_on,92,0,1,,,,,,,,,,,,,,,0,,,69,0
8640,note_on,4,0,1,,,,,,,,,,,,,,,0,,,56,127
8640,note_on,0,0,1,,,,,,,,,,,,,,,0,,,71,127
8732,note_on,92,0,1,,,,,,,,,,,,,,,0,,,71,0
8732,note_on,0,0,1,,,,,,,,,,,,,,,0,,,56,0
8736,note_on,4,0,1,,,,,,,,,,,,,,,0,,,54,127
8736,note_on,0,0,1,,,,,,,,,,,,,,,0,,,72,127
8828,note_on,0,0,1,,,,,,,,,,,,,,,0,,,54,0
8828,note_on,92,0,1,,,,,,,,,,,,,,,0,,,72,0
8832,note_on,4,0,1,,,,,,,,,,,,,,,0,,,52,127
8832,note_on,0,0,1,,,,,,,,,,,,,,,0,,,76,127
8832,note_on,0,0,1,,,,,,,,,,,,,,,0,,,74,127
8928,note_on,96,0,1,,,,,,,,,,,,,,,0,,,76,0
8928,note_on,0,0,1,,,,,,,,,,,,,,,0,,,40,127
9024,note_on,96,0,1,,,,,,,,,,,,,,,0,,,40,0
9024,note_on,0,0,1,,,,,,,,,,,,,,,0,,,44,127
9120,note_on,96,0,1,,,,,,,,,,,,,,,0,,,44,0
9120,note_on,0,0,1,,,,,,,,,,,,,,,0,,,47,127
9216,note_on,0,0,1,,,,,,,,,,,,,,,0,,,45,127
9216,note_on,0,0,1,,,,,,,,,,,,,,,0,,,72,127
9216,note_on,0,0,1,,,,,,,,,,,,,,,0,,,74,0
9216,note_on,96,0,1,,,,,,,,,,,,,,,0,,,47,0
9216,note_on,0,0,1,,,,,,,,,,,,,,,0,,,52,0
9360,note_on,144,0,1,,,,,,,,,,,,,,,0,,,45,0
9406,note_on,46,0,1,,,,,,,,,,,,,,,0,,,72,0
9408,note_on,2,0,1,,,,,,,,,,,,,,,0,,,84,127
9408,note_on,0,0,1,,,,,,,,,,,,,,,0,,,81,127
9504,note_on,96,0,1,,,,,,,,,,,,,,,0,,,84,0
9504,note_on,0,0,1,,,,,,,,,,,,,,,0,,,86,127
9600,note_on,96,0,1,,,,,,,,,,,,,,,0,,,86,0
9600,note_on,0,0,1,,,,,,,,,,,,,,,0,,,81,0
9600,note_on,0,0,1,,,,,,,,,,,,,,,0,,,79,127
9600,note_on,0,0,1,,,,,,,,,,,,,,,0,,,88,127
9696,note_on,96,0,1,,,,,,,,,,,,,,,0,,,88,0
9696,note_on,0,0,1,,,,,,,,,,,,,,,0,,,83,127
9792,note_on,96,0,1,,,,,,,,,,,,,,,0,,,83,0
9792,note_on,0,0,1,,,,,,,,,,,,,,,0,,,79,0
9792,note_on,0,0,1,,,,,,,,,,,,,,,0,,,78,127
9792,note_on,0,0,1,,,,,,,,,,,,,,,0,,,81,127
9888,note_on,0,0,1,,,,,,,,,,,,,,,0,,,83,127
9888,note_on,96,0,1,,,,,,,,,,,,,,,0,,,81,0
9984,note_on,0,0,1,,,,,,,,,,,,,,,0,,,78,0
9984,note_on,96,0,1,,,,,,,,,,,,,,,0,,,83,0
9984,note_on,0,0,1,,,,,,,,,,,,,,,0,,,76,127
9984,note_on,0,0,1,,,,,,,,,,,,,,,0,,,84,127
10080,note_on,96,0,1,,,,,,,,,,,,,,,0,,,84,0
10080,note_on,0,0,1,,,,,,,,,,,,,,,0,,,79,127
10176,note_on,0,0,1,,,,,,,,,,,,,,,0,,,76,0
10176,note_on,0,0,1,,,,,,,,,,,,,,,0,,,78,127
10176,note_on,0,0,1,,,,,,,,,,,,,,,0,,,75,127
10176,note_on,96,0,1,,,,,,,,,,,,,,,0,,,79,0
10272,note_on,96,0,1,,,,,,,,,,,,,,,0,,,78,0
10272,note_on,0,0,1,,,,,,,,,,,,,,,0,,,79,127
10368,note_on,0,0,1,,,,,,,,,,,,,,,0,,,75,0
10368,note_on,0,0,1,,,,,,,,,,,,,,,0,,,72,127
10368,note_on,0,0,1,,,,,,,,,,,,,,,0,,,81,127
10368,note_on,96,0,1,,,,,,,,,,,,,,,0,,,79,0
10464,note_on,96,0,1,,,,,,,,,,,,,,,0,,,81,0
10464,note_on,0,0,1,,,,,,,,,,,,,,,0,,,76,127
10560,note_on,0,0,1,,,,,,,,,,,,,,,0,,,71,127
10560,note_on,0,0,1,,,,,,,,,,,,,,,0,,,75,127
10560,note_on,96,0,1,,,,,,,,,,,,,,,0,,,76,0
10560,note_on,0,0,1,,,,,,,,,,,,,,,0,,,72,0
10656,note_on,96,0,1,,,,,,,,,,,,,,,0,,,75,0
10656,note_on,0,0,1,,,,,,,,,,,,,,,0,,,76,127
10752,note_on,96,0,1,,,,,,,,,,,,,,,0,,,76,0
10752,note_on,0,0,1,,,,,,,,,,,,,,,0,,,71,0
10752,note_on,0,0,1,,,,,,,,,,,,,,,0,,,69,127
10752,note_on,0,0,1,,,,,,,,,,,,,,,0,,,78,127
10848,note_on,96,0,1,,,,,,,,,,,,,,,0,,,78,0
10848,note_on,0,0,1,,,,,,,,,,,,,,,0,,,72,127
10944,note_on,96,0,1,,,,,,,,,,,,,,,0,,,72,0
10944,note_on,0,0,1,,,,,,,,,,,,,,,0,,,69,0
10944,note_on,0,0,1,,,,,,,,,,,,,,,0,,,71,127
10944,note_on,0,0,1,,,,,,,,,,,,,,,0,,,68,127
11040,note_on,96,0,1,,,,,,,,,,,,,,,0,,,71,0
11040,note_on,0,0,1,,,,,,,,,,,,,,,0,,,72,127
11136,note_on,0,0,1,,,,,,,,,,,,,,,0,,,65,127
11136,note_on,0,0,1,,,,,,,,,,,,,,,0,,,68,0
11136,note_on,96,0,1,,,,,,,,,,,,,,,0,,,72,0
11136,note_on,0,0,1,,,,,,,,,,,,,,,0,,,74,127
11232,note_on,96,0,1,,,,,,,,,,,,,,,0,,,74,0
11232,note_on,0,0,1,,,,,,,,,,,,,,,0,,,69,127
11328,note_on,96,0,1,,,,,,,,,,,,,,,0,,,69,0
11328,note_on,0,0,1,,,,,,,,,,,,,,,0,,,65,0
11328,note_on,0,0,1,,,,,,,,,,,,,,,0,,,68,127
11328,note_on,0,0,1,,,,,,,,,,,,,,,0,,,64,127
11424,note_on,96,0,1,,,,,,,,,,,,,,,0,,,68,0
11424,note_on,0,0,1,,,,,,,,,,,,,,,0,,,69,127
11520,note_on,96,0,1,,,,,,,,,,,,,,,0,,,69,0
11520,note_on,0,0,1,,,,,,,,,,,,,,,0,,,64,0
11520,note_on,0,0,1,,,,,,,,,,,,,,,0,,,62,127
11520,note_on,0,0,1,,,,,,,,,,,,,,,0,,,71,127
11616,note_on,96,0,1,,,,,,,,,,,,,,,0,,,71,0
11616,note_on,0,0,1,,,,,,,,,,,,,,,0,,,65,127
11712,note_on,96,0,1,,,,,,,,,,,,,,,0,,,65,0
11712,note_on,0,0,1,,,,,,,,,,,,,,,0,,,62,0
11712,note_on,0,0,1,,,,,,,,,,,,,,,0,,,64,127
11712,note_on,0,0,1,,,,,,,,,,,,,,,0,,,61,127
11808,note_on,96,0,1,,,,,,,,,,,,,,,0,,,64,0
11808,note_on,0,0,1,,,,,,,,,,,,,,,0,,,65,127
11904,note_on,0,0,1,,,,,,,,,,,,,,,0,,,67,127
11904,note_on,96,0,1,,,,,,,,,,,,,,,0,,,65,0
11904,note_on,0,0,1,,,,,,,,,,,,,,,0,,,61,0
11904,note_on,0,0,1,,,,,,,,,,,,,,,0,,,58,127
12000,note_on,96,0,1,,,,,,,,,,,,,,,0,,,67,0
12000,note_on,0,0,1,,,,,,,,,,,,,,,0,,,62,127
12096,note_on,0,0,1,,,,,,,,,,,,,,,0,,,57,127
12096,note_on,0,0,1,,,,,,,,,,,,,,,0,,,58,0
12096,note_on,0,0,1,,,,,,,,,,,,,,,0,,,76,127
12096,note_on,96,0,1,,,,,,,,,,,,,,,0,,,62,0
12192,note_on,96,0,1,,,,,,,,,,,,,,,0,,,76,0
12192,note_on,0,0,1,,,,,,,,,,,,,,,0,,,77,127
12288,note_on,96,0,1,,,,,,,,,,,,,,,0,,,77,0
12288,note_on,0,0,1,,,,,,,,,,,,,,,0,,,57,0
12288,note_on,0,0,1,,,,,,,,,,,,,,,0,,,79,127
12288,note_on,0,0,1,,,,,,,,,,,,,,,0,,,70,127
12384,note_on,96,0,1,,,,,,,,,,,,,,,0,,,79,0
12384,note_on,0,0,1,,,,,,,,,,,,,,,0,,,74,127
12480,note_on,96,0,1,,,,,,,,,,,,,,,0,,,74,0
12480,note_on,0,0,1,,,,,,,,,,,,,,,0,,,70,0
12480,note_on,0,0,1,,,,,,,,,,,,,,,0,,,69,127
12480,note_on,0,0,1,,,,,,,,,,,,,,,0,,,73,127
12576,note_on,0,0,1,,,,,,,,,,,,,,,0,,,74,127
12576,note_on,96,0,1,,,,,,,,,,,,,,,0,,,73,0
12672,note_on,0,0,1,,,,,,,,,,,,,,,0,,,69,0
12672,note_on,96,0,1,,,,,,,,,,,,,,,0,,,74,0
12672,note_on,0,0,1,,,,,,,,,,,,,,,0,,,76,127
12672,note_on,0,0,1,,,,,,,,,,,,,,,0,,,67,127
12768,note_on,96,0,1,,,,,,,,,,,,,,,0,,,76,0
12768,note_on,0,0,1,,,,,,,,,,,,,,,0,,,70,127
12864,note_on,0,0,1,,,,,,,,,,,,,,,0,,,67,0
12864,note_on,0,0,1,,,,,,,,,,,,,,,0,,,69,127
12864,note_on,0,0,1,,,,,,,,,,,,,,,0,,,65,127
12864,note_on,96,0,1,,,,,,,,,,,,,,,0,,,70,0
12960,note_on,96,0,1,,,,,,,,,,,,,,,0,,,69,0
12960,note_on,0,0,1,,,,,,,,,,,,,,,0,,,70,127
13056,note_on,0,0,1,,,,,,,,,,,,,,,0,,,65,0
13056,note_on,0,0,1,,,,,,,,,,,,,,,0,,,72,127
13056,note_on,0,0,1,,,,,,,,,,,,,,,0,,,63,127
13056,note_on,96,0,1,,,,,,,,,,,,,,,0,,,70,0
13152,note_on,96,0,1,,,,,,,,,,,,,,,0,,,72,0
13152,note_on,0,0,1,,,,,,,,,,,,,,,0,,,67,127
13248,note_on,0,0,1,,,,,,,,,,,,,,,0,,,62,127
13248,note_on,0,0,1,,,,,,,,,,,,,,,0,,,66,127
13248,note_on,0,0,1,,,,,,,,,,,,,,,0,,,63,0
13248,note_on,96,0,1,,,,,,,,,,,,,,,0,,,67,0
13344,note_on,96,0,1,,,,,,,,,,,,,,,0,,,66,0
13344,note_on,0,0,1,,,,,,,,,,,,,,,0,,,67,127
13440,note_on,96,0,1,,,,,,,,,,,,,,,0,,,67,0
13440,note_on,0,0,1,,,,,,,,,,,,,,,0,,,62,0
13440,note_on,0,0,1,,,,,,,,,,,,,,,0,,,69,127
13440,note_on,0,0,1,,,,,,,,,,,,,,,0,,,60,127
13536,note_on,96,0,1,,,,,,,,,,,,,,,0,,,69,0
13536,note_on,0,0,1,,,,,,,,,,,,,,,0,,,63,127
13632,note_on,96,0,1,,,,,,,,,,,,,,,0,,,63,0
13632,note_on,0,0,1,,,,,,,,,,,,,,,0,,,60,0
13632,note_on,0,0,1,,,,,,,,,,,,,,,0,,,58,127
13632,note_on,0,0,1,,,,,,,,,,,,,,,0,,,62,127
13728,note_on,96,0,1,,,,,,,,,,,,,,,0,,,67,127
13824,note_on,0,0,1,,,,,,,,,,,,,,,0,,,57,127
13824,note_on,0,0,1,,,,,,,,,,,,,,,0,,,62,0
13824,note_on,0,0,1,,,,,,,,,,,,,,,0,,,58,0
13824,note_on,0,0,1,,,,,,,,,,,,,,,0,,,60,127
13824,note_on,96,0,1,,,,,,,,,,,,,,,0,,,67,0
13920,note_on,96,0,1,,,,,,,,,,,,,,,0,,,66,127
14016,note_on,0,0,1,,,,,,,,,,,,,,,0,,,55,127
14016,note_on,96,0,1,,,,,,,,,,,,,,,0,,,66,0
14016,note_on,0,0,1,,,,,,,,,,,,,,,0,,,60,0
14016,note_on,0,0,1,,,,,,,,,,,,,,,0,,,57,0
14016,note_on,0,0,1,,,,,,,,,,,,,,,0,,,58,127
14112,note_on,96,0,1,,,,,,,,,,,,,,,0,,,58,0
14112,note_on,0,0,1,,,,,,,,,,,,,,,0,,,60,127
14208,note_on,96,0,1,,,,,,,,,,,,,,,0,,,60,0
14208,note_on,0,0,1,,,,,,,,,,,,,,,0,,,55,0
14208,note_on,0,0,1,,,,,,,,,,,,,,,0,,,62,127
14208,note_on,0,0,1,,,,,,,,,,,,,,,0,,,53,127
14304,note_on,96,0,1,,,,,,,,,,,,,,,0,,,62,0
14304,note_on,0,0,1,,,,,,,,,,,,,,,0,,,57,127
14400,note_on,96,0,1,,,,,,,,,,,,,,,0,,,57,0
14400,note_on,0,0,1,,,,,,,,,,,,,,,0,,,53,0
14400,note_on,0,0,1,,,,,,,,,,,,,,,0,,,51,127
14400,note_on,0,0,1,,,,,,,,,,,,,,,0,,,55,127
14496,note_on,96,0,1,,,,,,,,,,,,,,,0,,,67,127
14592,note_on,0,0,1,,,,,,,,,,,,,,,0,,,50,127
14592,note_on,0,0,1,,,,,,,,,,,,,,,0,,,51,0
14592,note_on,96,0,1,,,,,,,,,,,,,,,0,,,55,0
14688,note_on,96,0,1,,,,,,,,,,,,,,,0,,,67,0
14688,note_on,0,0,1,,,,,,,,,,,,,,,0,,,69,127
14784,note_on,96,0,1,,,,,,,,,,,,,,,0,,,69,0
14784,note_on,0,0,1,,,,,,,,,,,,,,,0,,,66,127
14880,note_on,96,0,1,,,,,,,,,,,,,,,0,,,66,0
14880,note_on,0,0,1,,,,,,,,,,,,,,,0,,,62,127
14976,note_on,96,0,1,,,,,,,,,,,,,,,0,,,62,0
14976,note_on,0,0,1,,,,,,,,,,,,,,,0,,,61,127
15072,note_on,96,0,1,,,,,,,,,,,,,,,0,,,67,127
15120,note_on,48,0,1,,,,,,,,,,,,,,,0,,,61,0
15168,note_on,48,0,1,,,,,,,,,,,,,,,0,,,50,0
15168,note_on,0,0,1,,,,,,,,,,,,,,,0,,,38,127
15264,note_on,96,0,1,,,,,,,,,,,,,,,0,,,67,0
15264,note_on,0,0,1,,,,,,,,,,,,,,,0,,,69,127
15360,note_on,0,0,1,,,,,,,,,,,,,,,0,,,66,127
15360,note_on,96,0,1,,,,,,,,,,,,,,,0,,,69,0
15456,note_on,96,0,1,,,,,,,,,,,,,,,0,,,66,0
15456,note_on,0,0,1,,,,,,,,,,,,,,,0,,,62,127
15552,note_on,0,0,1,,,,,,,,,,,,,,,0,,,73,127
15552,note_on,96,0,1,,,,,,,,,,,,,,,0,,,62,0
15648,note_on,96,0,1,,,,,,,,,,,,,,,0,,,79,127
15672,note_on,24,0,1,,,,,,,,,,,,,,,0,,,73,0
15744,note_on,72,0,1,,,,,,,,,,,,,,,0,,,38,0
15744,note_on,0,0,1,,,,,,,,,,,,,,,0,,,38,127
15936,note_on,192,0,1,,,,,,,,,,,,,,,0,,,79,0
15936,note_on,0,0,1,,,,,,,,,,,,,,,0,,,78,127
16032,note_on,96,0,1,,,,,,,,,,,,,,,0,,,78,0
16032,note_on,0,0,1,,,,,,,,,,,,,,,0,,,76,127
16128,note_on,96,0,1,,,,,,,,,,,,,,,0,,,76,0
16128,note_on,0,0,1,,,,,,,,,,,,,,,0,,,74,127
16272,note_on,144,0,1,,,,,,,,,,,,,,,0,,,74,0
16272,note_on,0,0,1,,,,,,,,,,,,,,,0,,,38,0
16320,note_on,48,0,1,,,,,,,,,,,,,,,0,,,66,127
16320,note_on,0,0,1,,,,,,,,,,,,,,,0,,,62,127
16416,note_on,0,0,1,,,,,,,,,,,,,,,0,,,60,127
16416,note_on,96,0,1,,,,,,,,,,,,,,,0,,,62,0
16416,note_on,0,0,1,,,,,,,,,,,,,,,0,,,66,0
16416,note_on,0,0,1,,,,,,,,,,,,,,,0,,,67,127
16512,note_on,0,0,1,,,,,,,,,,,,,,,0,,,59,127
16512,note_on,0,0,1,,,,,,,,,,,,,,,0,,,69,127
16512,note_on,96,0,1,,,,,,,,,,,,,,,0,,,60,0
16512,note_on,0,0,1,,,,,,,,,,,,,,,0,,,67,0
16608,note_on,96,0,1,,,,,,,,,,,,,,,0,,,69,0
16608,note_on,0,0,1,,,,,,,,,,,,,,,0,,,59,0
16608,note_on,0,0,1,,,,,,,,,,,,,,,0,,,57,127
16608,note_on,0,0,1,,,,,,,,,,,,,,,0,,,71,127
16704,note_on,0,0,1,,,,,,,,,,,,,,,0,,,57,0
16704,note_on,0,0,1,,,,,,,,,,,,,,,0,,,55,127
16704,note_on,0,0,1,,,,,,,,,,,,,,,0,,,72,127
16704,note_on,96,0,1,,,,,,,,,,,,,,,0,,,71,0
16800,note_on,96,0,1,,,,,,,,,,,,,,,0,,,72,0
16800,note_on,0,0,1,,,,,,,,,,,,,,,0,,,55,0
16800,note_on,0,0,1,,,,,,,,,,,,,,,0,,,54,127
16800,note_on,0,0,1,,,,,,,,,,,,,,,0,,,74,127
16896,note_on,0,0,1,,,,,,,,,,,,,,,0,,,71,127
16896,note_on,96,0,1,,,,,,,,,,,,,,,0,,,74,0
16896,note_on,0,0,1,,,,,,,,,,,,,,,0,,,55,127
16896,note_on,0,0,1,,,,,,,,,,,,,,,0,,,54,0
16992,note_on,0,0,1,,,,,,,,,,,,,,,0,,,72,127
16992,note_on,0,0,1,,,,,,,,,,,,,,,0,,,55,0
16992,note_on,96,0,1,,,,,,,,,,,,,,,0,,,71,0
16992,note_on,0,0,1,,,,,,,,,,,,,,,0,,,54,127
17088,note_on,96,0,1,,,,,,,,,,,,,,,0,,,54,0
17088,note_on,0,0,1,,,,,,,,,,,,,,,0,,,72,0
17088,note_on,0,0,1,,,,,,,,,,,,,,,0,,,74,127
17088,note_on,0,0,1,,,,,,,,,,,,,,,0,,,52,127
17184,note_on,96,0,1,,,,,,,,,,,,,,,0,,,52,0
17184,note_on,0,0,1,,,,,,,,,,,,,,,0,,,74,0
17184,note_on,0,0,1,,,,,,,,,,,,,,,0,,,76,127
17184,note_on,0,0,1,,,,,,,,,,,,,,,0,,,50,127
17280,note_on,96,0,1,,,,,,,,,,,,,,,0,,,50,0
17280,note_on,0,0,1,,,,,,,,,,,,,,,0,,,76,0
17280,note_on,0,0,1,,,,,,,,,,,,,,,0,,,78,127
17280,note_on,0,0,1,,,,,,,,,,,,,,,0,,,48,127
17376,note_on,96,0,1,,,,,,,,,,,,,,,0,,,48,0
17376,note_on,0,0,1,,,,,,,,,,,,,,,0,,,78,0
17376,note_on,0,0,1,,,,,,,,,,,,,,,0,,,79,127
17376,note_on,0,0,1,,,,,,,,,,,,,,,0,,,47,127
17448,note_on,72,0,1,,,,,,,,,,,,,,,0,,,47,0
17471,note_on,23,0,1,,,,,,,,,,,,,,,0,,,79,0
17472,note_on,0,0,1,,,,,,,,,,,,,,,0,,,62,127
17472,note_on,1,0,1,,,,,,,,,,,,,,,0,,,66,127
17568,note_on,96,0,1,,,,,,,,,,,,,,,0,,,62,0
17568,note_on,0,0,1,,,,,,,,,,,,,,,0,,,66,0
17568,note_on,0,0,1,,,,,,,,,,,,,,,0,,,67,127
17568,note_on,0,0,1,,,,,,,,,,,,,,,0,,,60,127
17664,note_on,96,0,1,,,,,,,,,,,,,,,0,,,60,0
17664,note_on,0,0,1,,,,,,,,,,,,,,,0,,,67,0
17664,note_on,0,0,1,,,,,,,,,,,,,,,0,,,59,127
17664,note_on,0,0,1,,,,,,,,,,,,,,,0,,,69,127
17760,note_on,96,0,1,,,,,,,,,,,,,,,0,,,69,0
17760,note_on,0,0,1,,,,,,,,,,,,,,,0,,,59,0
17760,note_on,0,0,1,,,,,,,,,,,,,,,0,,,57,127
17760,note_on,0,0,1,,,,,,,,,,,,,,,0,,,71,127
17856,note_on,0,0,1,,,,,,,,,,,,,,,0,,,72,127
17856,note_on,0,0,1,,,,,,,,,,,,,,,0,,,57,0
17856,note_on,0,0,1,,,,,,,,,,,,,,,0,,,55,127
17856,note_on,96,0,1,,,,,,,,,,,,,,,0,,,71,0
17952,note_on,0,0,1,,,,,,,,,,,,,,,0,,,74,127
17952,note_on,0,0,1,,,,,,,,,,,,,,,0,,,55,0
17952,note_on,0,0,1,,,,,,,,,,,,,,,0,,,54,127
17952,note_on,96,0,1,,,,,,,,,,,,,,,0,,,72,0
18048,note_on,96,0,1,,,,,,,,,,,,,,,0,,,74,0
18048,note_on,0,0,1,,,,,,,,,,,,,,,0,,,54,0
18048,note_on,0,0,1,,,,,,,,,,,,,,,0,,,55,127
18048,note_on,0,0,1,,,,,,,,,,,,,,,0,,,71,127
18144,note_on,96,0,1,,,,,,,,,,,,,,,0,,,71,0
18144,note_on,0,0,1,,,,,,,,,,,,,,,0,,,55,0
18144,note_on,0,0,1,,,,,,,,,,,,,,,0,,,54,127
18144,note_on,0,0,1,,,,,,,,,,,,,,,0,,,72,127
18240,note_on,96,0,1,,,,,,,,,,,,,,,0,,,72,0
18240,note_on,0,0,1,,,,,,,,,,,,,,,0,,,54,0
18240,note_on,0,0,1,,,,,,,,,,,,,,,0,,,52,127
18240,note_on,0,0,1,,,,,,,,,,,,,,,0,,,74,127
18336,note_on,0,0,1,,,,,,,,,,,,,,,0,,,76,127
18336,note_on,0,0,1,,,,,,,,,,,,,,,0,,,50,127
18336,note_on,96,0,1,,,,,,,,,,,,,,,0,,,74,0
18336,note_on,0,0,1,,,,,,,,,,,,,,,0,,,52,0
18432,note_on,0,0,1,,,,,,,,,,,,,,,0,,,78,127
18432,note_on,96,0,1,,,,,,,,,,,,,,,0,,,76,0
18432,note_on,0,0,1,,,,,,,,,,,,,,,0,,,50,0
18432,note_on,0,0,1,,,,,,,,,,,,,,,0,,,48,127
18528,note_on,96,0,1,,,,,,,,,,,,,,,0,,,78,0
18528,note_on,0,0,1,,,,,,,,,,,,,,,0,,,48,0
18528,note_on,0,0,1,,,,,,,,,,,,,,,0,,,47,127
18528,note_on,0,0,1,,,,,,,,,,,,,,,0,,,79,127
18624,note_on,0,0,1,,,,,,,,,,,,,,,0,,,47,0
18624,note_on,0,0,1,,,,,,,,,,,,,,,0,,,76,127
18624,note_on,0,0,1,,,,,,,,,,,,,,,0,,,48,127
18624,note_on,96,0,1,,,,,,,,,,,,,,,0,,,79,0
18720,note_on,96,0,1,,,,,,,,,,,,,,,0,,,48,0
18720,note_on,0,0,1,,,,,,,,,,,,,,,0,,,76,0
18720,note_on,0,0,1,,,,,,,,,,,,,,,0,,,78,127
18720,note_on,0,0,1,,,,,,,,,,,,,,,0,,,47,127
18816,note_on,0,0,1,,,,,,,,,,,,,,,0,,,45,127
18816,note_on,0,0,1,,,,,,,,,,,,,,,0,,,78,0
18816,note_on,96,0,1,,,,,,,,,,,,,,,0,,,47,0
18816,note_on,0,0,1,,,,,,,,,,,,,,,0,,,79,127
18912,note_on,0,0,1,,,,,,,,,,,,,,,0,,,43,127
18912,note_on,96,0,1,,,,,,,,,,,,,,,0,,,45,0
18912,note_on,0,0,1,,,,,,,,,,,,,,,0,,,79,0
18912,note_on,0,0,1,,,,,,,,,,,,,,,0,,,81,127
19008,note_on,0,0,1,,,,,,,,,,,,,,,0,,,42,127
19008,note_on,96,0,1,,,,,,,,,,,,,,,0,,,43,0
19008,note_on,0,0,1,,,,,,,,,,,,,,,0,,,83,127
19008,note_on,0,0,1,,,,,,,,,,,,,,,0,,,81,0
19104,note_on,96,0,1,,,,,,,,,,,,,,,0,,,42,0
19104,note_on,0,0,1,,,,,,,,,,,,,,,0,,,83,0
19104,note_on,0,0,1,,,,,,,,,,,,,,,0,,,84,127
19104,note_on,0,0,1,,,,,,,,,,,,,,,0,,,40,127
19200,note_on,96,0,1,,,,,,,,,,,,,,,0,,,40,0
19200,note_on,0,0,1,,,,,,,,,,,,,,,0,,,84,0
19200,note_on,0,0,1,,,,,,,,,,,,,,,0,,,74,127
19200,note_on,0,0,1,,,,,,,,,,,,,,,0,,,38,127
19296,note_on,96,0,1,,,,,,,,,,,,,,,0,,,84,127
19392,note_on,96,0,1,,,,,,,,,,,,,,,0,,,84,0
19392,note_on,0,0,1,,,,,,,,,,,,,,,0,,,83,127
19488,note_on,0,0,1,,,,,,,,,,,,,,,0,,,81,127
19488,note_on,96,0,1,,,,,,,,,,,,,,,0,,,83,0
19583,note_on,95,0,1,,,,,,,,,,,,,,,0,,,74,0
19584,note_on,0,0,1,,,,,,,,,,,,,,,0,,,38,0
19584,note_on,0,0,1,,,,,,,,,,,,,,,0,,,43,127
19584,note_on,0,0,1,,,,,,,,,,,,,,,0,,,83,127
19584,note_on,1,0,1,,,,,,,,,,,,,,,0,,,81,0
19680,note_on,96,0,1,,,,,,,,,,,,,,,0,,,79,127
19776,note_on,96,0,1,,,,,,,,,,,,,,,0,,,79,0
19776,note_on,0,0,1,,,,,,,,,,,,,,,0,,,43,0
19776,note_on,0,0,1,,,,,,,,,,,,,,,0,,,48,127
19776,note_on,0,0,1,,,,,,,,,,,,,,,0,,,72,127
19776,note_on,0,0,1,,,,,,,,,,,,,,,0,,,76,127
19824,note_on,48,0,1,,,,,,,,,,,,,,,0,,,83,0
19872,note_on,48,0,1,,,,,,,,,,,,,,,0,,,81,127
19920,note_on,48,0,1,,,,,,,,,,,,,,,0,,,76,0
19920,note_on,0,0,1,,,,,,,,,,,,,,,0,,,72,0
19968,note_on,0,0,1,,,,,,,,,,,,,,,0,,,50,127
19968,note_on,0,0,1,,,,,,,,,,,,,,,0,,,71,127
19968,note_on,48,0,1,,,,,,,,,,,,,,,0,,,48,0
19968,note_on,0,0,1,,,,,,,,,,,,,,,0,,,74,127
20016,note_on,48,0,1,,,,,,,,,,,,,,,0,,,81,0
20064,note_on,48,0,1,,,,,,,,,,,,,,,0,,,79,127
20112,note_on,0,0,1,,,,,,,,,,,,,,,0,,,74,0
20112,note_on,48,0,1,,,,,,,,,,,,,,,0,,,71,0
20160,note_on,48,0,1,,,,,,,,,,,,,,,0,,,50,0
20160,note_on,0,0,1,,,,,,,,,,,,,,,0,,,69,127
20160,note_on,0,0,1,,,,,,,,,,,,,,,0,,,38,127
20160,note_on,0,0,1,,,,,,,,,,,,,,,0,,,72,127
20208,note_on,48,0,1,,,,,,,,,,,,,,,0,,,79,0
20256,note_on,48,0,1,,,,,,,,,,,,,,,0,,,78,127
20304,note_on,48,0,1,,,,,,,,,,,,,,,0,,,69,0
20304,note_on,0,0,1,,,,,,,,,,,,,,,0,,,72,0
20352,note_on,48,0,1,,,,,,,,,,,,,,,0,,,38,0
20352,note_on,0,0,1,,,,,,,,,,,,,,,0,,,78,0
20352,note_on,0,0,1,,,,,,,,,,,,,,,0,,,79,127
20352,note_on,0,0,1,,,,,,,,,,,,,,,0,,,43,127
20448,note_on,96,0,1,,,,,,,,,,,,,,,0,,,74,127
20544,note_on,0,0,1,,,,,,,,,,,,,,,0,,,71,127
20544,note_on,96,0,1,,,,,,,,,,,,,,,0,,,74,0
20544,note_on,0,0,1,,,,,,,,,,,,,,,0,,,79,0
20640,note_on,96,0,1,,,,,,,,,,,,,,,0,,,71,0
20640,note_on,0,0,1,,,,,,,,,,,,,,,0,,,74,127
20736,note_on,96,0,1,,,,,,,,,,,,,,,0,,,74,0
20736,note_on,0,0,1,,,,,,,,,,,,,,,0,,,67,127
20832,note_on,96,0,1,,,,,,,,,,,,,,,0,,,67,0
20832,note_on,0,0,1,,,,,,,,,,,,,,,0,,,76,127
20837,note_on,5,0,1,,,,,,,,,,,,,,,0,,,43,0
20928,note_on,91,0,1,,,,,,,,,,,,,,,0,,,76,0
20928,note_on,0,0,1,,,,,,,,,,,,,,,0,,,66,127
20928,note_on,0,0,1,,,,,,,,,,,,,,,0,,,62,127
21024,note_on,96,0,1,,,,,,,,,,,,,,,0,,,62,0
21024,note_on,0,0,1,,,,,,,,,,,,,,,0,,,66,0
21024,note_on,0,0,1,,,,,,,,,,,,,,,0,,,67,127
21024,note_on,0,0,1,,,,,,,,,,,,,,,0,,,60,127
21120,note_on,96,0,1,,,,,,,,,,,,,,,0,,,60,0
21120,note_on,0,0,1,,,,,,,,,,,,,,,0,,,67,0
21120,note_on,0,0,1,,,,,,,,,,,,,,,0,,,59,127
21120,note_on,0,0,1,,,,,,,,,,,,,,,0,,,69,127
21216,note_on,0,0,1,,,,,,,,,,,,,,,0,,,71,127
21216,note_on,0,0,1,,,,,,,,,,,,,,,0,,,59,0
21216,note_on,96,0,1,,,,,,,,,,,,,,,0,,,69,0
21216,note_on,0,0,1,,,,,,,,,,,,,,,0,,,57,127
21312,note_on,0,0,1,,,,,,,,,,,,,,,0,,,55,127
21312,note_on,96,0,1,,,,,,,,,,,,,,,0,,,71,0
21312,note_on,0,0,1,,,,,,,,,,,,,,,0,,,57,0
21312,note_on,0,0,1,,,,,,,,,,,,,,,0,,,72,127
21408,note_on,96,0,1,,,,,,,,,,,,,,,0,,,72,0
21408,note_on,0,0,1,,,,,,,,,,,,,,,0,,,55,0
21408,note_on,0,0,1,,,,,,,,,,,,,,,0,,,54,127
21408,note_on,0,0,1,,,,,,,,,,,,,,,0,,,74,127
21504,note_on,0,0,1,,,,,,,,,,,,,,,0,,,71,127
21504,note_on,96,0,1,,,,,,,,,,,,,,,0,,,74,0
21504,note_on,0,0,1,,,,,,,,,,,,,,,0,,,54,0
21504,note_on,0,0,1,,,,,,,,,,,,,,,0,,,55,127
21600,note_on,96,0,1,,,,,,,,,,,,,,,0,,,71,0
21600,note_on,0,0,1,,,,,,,,,,,,,,,0,,,55,0
21600,note_on,0,0,1,,,,,,,,,,,,,,,0,,,54,127
21600,note_on,0,0,1,,,,,,,,,,,,,,,0,,,72,127
21696,note_on,96,0,1,,,,,,,,,,,,,,,0,,,72,0
21696,note_on,0,0,1,,,,,,,,,,,,,,,0,,,54,0
21696,note_on,0,0,1,,,,,,,,,,,,,,,0,,,52,127
21696,note_on,0,0,1,,,,,,,,,,,,,,,0,,,74,127
21792,note_on,96,0,1,,,,,,,,,,,,,,,0,,,74,0
21792,note_on,0,0,1,,,,,,,,,,,,,,,0,,,52,0
21792,note_on,0,0,1,,,,,,,,,,,,,,,0,,,50,127
21792,note_on,0,0,1,,,,,,,,,,,,,,,0,,,76,127
21888,note_on,0,0,1,,,,,,,,,,,,,,,0,,,78,127
21888,note_on,0,0,1,,,,,,,,,,,,,,,0,,,48,127
21888,note_on,0,0,1,,,,,,,,,,,,,,,0,,,50,0
21888,note_on,96,0,1,,,,,,,,,,,,,,,0,,,76,0
21984,note_on,96,0,1,,,,,,,,,,,,,,,0,,,78,0
21984,note_on,0,0,1,,,,,,,,,,,,,,,0,,,48,0
21984,note_on,0,0,1,,,,,,,,,,,,,,,0,,,47,127
21984,note_on,0,0,1,,,,,,,,,,,,,,,0,,,79,127
22056,note_on,72,0,1,,,,,,,,,,,,,,,0,,,47,0
22079,note_on,23,0,1,,,,,,,,,,,,,,,0,,,79,0
22080,note_on,1,0,1,,,,,,,,,,,,,,,0,,,66,127
22080,note_on,0,0,1,,,,,,,,,,,,,,,0,,,62,127
22176,note_on,96,0,1,,,,,,,,,,,,,,,0,,,62,0
22176,note_on,0,0,1,,,,,,,,,,,,,,,0,,,66,0
22176,note_on,0,0,1,,,,,,,,,,,,,,,0,,,67,127
22176,note_on,0,0,1,,,,,,,,,,,,,,,0,,,60,127
22272,note_on,0,0,1,,,,,,,,,,,,,,,0,,,69,127
22272,note_on,0,0,1,,,,,,,,,,,,,,,0,,,67,0
22272,note_on,96,0,1,,,,,,,,,,,,,,,0,,,60,0
22272,note_on,0,0,1,,,,,,,,,,,,,,,0,,,59,127
22368,note_on,0,0,1,,,,,,,,,,,,,,,0,,,71,127
22368,note_on,96,0,1,,,,,,,,,,,,,,,0,,,69,0
22368,note_on,0,0,1,,,,,,,,,,,,,,,0,,,57,127
22368,note_on,0,0,1,,,,,,,,,,,,,,,0,,,59,0
22464,note_on,96,0,1,,,,,,,,,,,,,,,0,,,71,0
22464,note_on,0,0,1,,,,,,,,,,,,,,,0,,,57,0
22464,note_on,0,0,1,,,,,,,,,,,,,,,0,,,55,127
22464,note_on,0,0,1,,,,,,,,,,,,,,,0,,,72,127
22560,note_on,96,0,1,,,,,,,,,,,,,,,0,,,72,0
22560,note_on,0,0,1,,,,,,,,,,,,,,,0,,,55,0
22560,note_on,0,0,1,,,,,,,,,,,,,,,0,,,54,127
22560,note_on,0,0,1,,,,,,,,,,,,,,,0,,,74,127
22656,note_on,96,0,1,,,,,,,,,,,,,,,0,,,74,0
22656,note_on,0,0,1,,,,,,,,,,,,,,,0,,,54,0
22656,note_on,0,0,1,,,,,,,,,,,,,,,0,,,55,127
22656,note_on,0,0,1,,,,,,,,,,,,,,,0,,,71,127
22752,note_on,0,0,1,,,,,,,,,,,,,,,0,,,72,127
22752,note_on,0,0,1,,,,,,,,,,,,,,,0,,,54,127
22752,note_on,96,0,1,,,,,,,,,,,,,,,0,,,71,0
22752,note_on,0,0,1,,,,,,,,,,,,,,,0,,,55,0
22848,note_on,0,0,1,,,,,,,,,,,,,,,0,,,74,127
22848,note_on,96,0,1,,,,,,,,,,,,,,,0,,,72,0
22848,note_on,0,0,1,,,,,,,,,,,,,,,0,,,54,0
22848,note_on,0,0,1,,,,,,,,,,,,,,,0,,,52,127
22944,note_on,96,0,1,,,,,,,,,,,,,,,0,,,74,0
22944,note_on,0,0,1,,,,,,,,,,,,,,,0,,,52,0
22944,note_on,0,0,1,,,,,,,,,,,,,,,0,,,50,127
22944,note_on,0,0,1,,,,,,,,,,,,,,,0,,,76,127
23040,note_on,0,0,1,,,,,,,,,,,,,,,0,,,50,0
23040,note_on,0,0,1,,,,,,,,,,,,,,,0,,,48,127
23040,note_on,0,0,1,,,,,,,,,,,,,,,0,,,78,127
23040,note_on,96,0,1,,,,,,,,,,,,,,,0,,,76,0
23136,note_on,96,0,1,,,,,,,,,,,,,,,0,,,78,0
23136,note_on,0,0,1,,,,,,,,,,,,,,,0,,,48,0
23136,note_on,0,0,1,,,,,,,,,,,,,,,0,,,47,127
23136,note_on,0,0,1,,,,,,,,,,,,,,,0,,,79,127
23232,note_on,0,0,1,,,,,,,,,,,,,,,0,,,76,127
23232,note_on,96,0,1,,,,,,,,,,,,,,,0,,,79,0
23232,note_on,0,0,1,,,,,,,,,,,,,,,0,,,47,0
23232,note_on,0,0,1,,,,,,,,,,,,,,,0,,,48,127
23328,note_on,0,0,1,,,,,,,,,,,,,,,0,,,47,127
23328,note_on,0,0,1,,,,,,,,,,,,,,,0,,,48,0
23328,note_on,96,0,1,,,,,,,,,,,,,,,0,,,76,0
23328,note_on,0,0,1,,,,,,,,,,,,,,,0,,,78,127
23424,note_on,0,0,1,,,,,,,,,,,,,,,0,,,47,0
23424,note_on,0,0,1,,,,,,,,,,,,,,,0,,,45,127
23424,note_on,0,0,1,,,,,,,,,,,,,,,0,,,79,127
23424,note_on,96,0,1,,,,,,,,,,,,,,,0,,,78,0
23520,note_on,96,0,1,,,,,,,,,,,,,,,0,,,79,0
23520,note_on,0,0,1,,,,,,,,,,,,,,,0,,,45,0
23520,note_on,0,0,1,,,,,,,,,,,,,,,0,,,43,127
23520,note_on,0,0,1,,,,,,,,,,,,,,,0,,,81,127
23616,note_on,96,0,1,,,,,,,,,,,,,,,0,,,81,0
23616,note_on,0,0,1,,,,,,,,,,,,,,,0,,,43,0
23616,note_on,0,0,1,,,,,,,,,,,,,,,0,,,42,127
23616,note_on,0,0,1,,,,,,,,,,,,,,,0,,,83,127
23712,note_on,0,0,1,,,,,,,,,,,,,,,0,,,84,127
23712,note_on,0,0,1,,,,,,,,,,,,,,,0,,,42,0
23712,note_on,96,0,1,,,,,,,,,,,,,,,0,,,83,0
23712,note_on,0,0,1,,,,,,,,,,,,,,,0,,,40,127
23808,note_on,0,0,1,,,,,,,,,,,,,,,0,,,40,0
23808,note_on,96,0,1,,,,,,,,,,,,,,,0,,,84,0
23808,note_on,0,0,1,,,,,,,,,,,,,,,0,,,38,127
23808,note_on,0,0,1,,,,,,,,,,,,,,,0,,,74,127
23904,note_on,96,0,1,,,,,,,,,,,,,,,0,,,84,127
24000,note_on,96,0,1,,,,,,,,,,,,,,,0,,,84,0
24000,note_on,0,0,1,,,,,,,,,,,,,,,0,,,83,127
24096,note_on,0,0,1,,,,,,,,,,,,,,,0,,,81,127
24096,note_on,96,0,1,,,,,,,,,,,,,,,0,,,83,0
24192,note_on,0,0,1,,,,,,,,,,,,,,,0,,,38,0
24192,note_on,0,0,1,,,,,,,,,,,,,,,0,,,43,127
24192,note_on,0,0,1,,,,,,,,,,,,,,,0,,,83,127
24192,note_on,96,0,1,,,,,,,,,,,,,,,0,,,81,0
24288,note_on,96,0,1,,,,,,,,,,,,,,,0,,,79,127
24383,note_on,95,0,1,,,,,,,,,,,,,,,0,,,74,0
24384,note_on,0,0,1,,,,,,,,,,,,,,,0,,,72,127
24384,note_on,0,0,1,,,,,,,,,,,,,,,0,,,76,127
24384,note_on,0,0,1,,,,,,,,,,,,,,,0,,,79,0
24384,note_on,1,0,1,,,,,,,,,,,,,,,0,,,43,0
24384,note_on,0,0,1,,,,,,,,,,,,,,,0,,,48,127
24432,note_on,48,0,1,,,,,,,,,,,,,,,0,,,83,0
24480,note_on,48,0,1,,,,,,,,,,,,,,,0,,,81,127
24528,note_on,0,0,1,,,,,,,,,,,,,,,0,,,76,0
24528,note_on,48,0,1,,,,,,,,,,,,,,,0,,,72,0
24576,note_on,0,0,1,,,,,,,,,,,,,,,0,,,74,127
24576,note_on,0,0,1,,,,,,,,,,,,,,,0,,,71,127
24576,note_on,48,0,1,,,,,,,,,,,,,,,0,,,48,0
24576,note_on,0,0,1,,,,,,,,,,,,,,,0,,,50,127
24624,note_on,48,0,1,,,,,,,,,,,,,,,0,,,81,0
24672,note_on,48,0,1,,,,,,,,,,,,,,,0,,,79,127
24720,note_on,48,0,1,,,,,,,,,,,,,,,0,,,71,0
24720,note_on,0,0,1,,,,,,,,,,,,,,,0,,,74,0
24768,note_on,48,0,1,,,,,,,,,,,,,,,0,,,50,0
24768,note_on,0,0,1,,,,,,,,,,,,,,,0,,,38,127
24768,note_on,0,0,1,,,,,,,,,,,,,,,0,,,72,127
24768,note_on,0,0,1,,,,,,,,,,,,,,,0,,,69,127
24816,note_on,48,0,1,,,,,,,,,,,,,,,0,,,79,0
24864,note_on,48,0,1,,,,,,,,,,,,,,,0,,,78,127
24912,note_on,48,0,1,,,,,,,,,,,,,,,0,,,69,0
24912,note_on,0,0,1,,,,,,,,,,,,,,,0,,,72,0
24960,note_on,0,0,1,,,,,,,,,,,,,,,0,,,78,0
24960,note_on,0,0,1,,,,,,,,,,,,,,,0,,,79,127
24960,note_on,48,0,1,,,,,,,,,,,,,,,0,,,38,0
24960,note_on,0,0,1,,,,,,,,,,,,,,,0,,,71,127
24960,note_on,0,0,1,,,,,,,,,,,,,,,0,,,43,127
25056,note_on,96,0,1,,,,,,,,,,,,,,,0,,,43,0
25056,note_on,0,0,1,,,,,,,,,,,,,,,0,,,66,127
25152,note_on,96,0,1,,,,,,,,,,,,,,,0,,,66,0
25152,note_on,0,0,1,,,,,,,,,,,,,,,0,,,79,0
25152,note_on,0,0,1,,,,,,,,,,,,,,,0,,,67,127
25152,note_on,0,0,1,,,,,,,,,,,,,,,0,,,71,0
25248,note_on,96,0,1,,,,,,,,,,,,,,,0,,,67,0
25248,note_on,0,0,1,,,,,,,,,,,,,,,0,,,62,127
25344,note_on,96,0,1,,,,,,,,,,,,,,,0,,,62,0
25344,note_on,0,0,1,,,,,,,,,,,,,,,0,,,64,127
25440,note_on,96,0,1,,,,,,,,,,,,,,,0,,,64,0
25440,note_on,0,0,1,,,,,,,,,,,,,,,0,,,59,127
25536,note_on,0,0,1,,,,,,,,,,,,,,,0,,,60,127
25536,note_on,96,0,1,,,,,,,,,,,,,,,0,,,59,0
25632,note_on,96,0,1,,,,,,,,,,,,,,,0,,,60,0
25632,note_on,0,0,1,,,,,,,,,,,,,,,0,,,64,127
25728,note_on,0,0,1,,,,,,,,,,,,,,,0,,,79,127
25728,note_on,96,0,1,,,,,,,,,,,,,,,0,,,64,0
25728,note_on,0,0,1,,,,,,,,,,,,,,,0,,,62,127
25728,note_on,0,0,1,,,,,,,,,,,,,,,0,,,81,127
25824,note_on,96,0,1,,,,,,,,,,,,,,,0,,,62,0
25824,note_on,0,0,1,,,,,,,,,,,,,,,0,,,60,127
25920,note_on,0,0,1,,,,,,,,,,,,,,,0,,,79,0
25920,note_on,0,0,1,,,,,,,,,,,,,,,0,,,84,127
25920,note_on,0,0,1,,,,,,,,,,,,,,,0,,,78,127
25920,note_on,0,0,1,,,,,,,,,,,,,,,0,,,59,127
25920,note_on,96,0,1,,,,,,,,,,,,,,,0,,,60,0
25920,note_on,0,0,1,,,,,,,,,,,,,,,0,,,81,0
26016,note_on,96,0,1,,,,,,,,,,,,,,,0,,,59,0
26016,note_on,0,0,1,,,,,,,,,,,,,,,0,,,57,127
26112,note_on,96,0,1,,,,,,,,,,,,,,,0,,,57,0
26112,note_on,0,0,1,,,,,,,,,,,,,,,0,,,78,0
26112,note_on,0,0,1,,,,,,,,,,,,,,,0,,,84,0
26112,note_on,0,0,1,,,,,,,,,,,,,,,0,,,79,127
26112,note_on,0,0,1,,,,,,,,,,,,,,,0,,,83,127
26112,note_on,0,0,1,,,,,,,,,,,,,,,0,,,55,127
26208,note_on,0,0,1,,,,,,,,,,,,,,,0,,,66,127
26208,note_on,96,0,1,,,,,,,,,,,,,,,0,,,55,0
26304,note_on,96,0,1,,,,,,,,,,,,,,,0,,,66,0
26304,note_on,0,0,1,,,,,,,,,,,,,,,0,,,67,127
26400,note_on,96,0,1,,,,,,,,,,,,,,,0,,,67,0
26400,note_on,0,0,1,,,,,,,,,,,,,,,0,,,62,127
26496,note_on,96,0,1,,,,,,,,,,,,,,,0,,,62,0
26496,note_on,0,0,1,,,,,,,,,,,,,,,0,,,83,0
26496,note_on,0,0,1,,,,,,,,,,,,,,,0,,,79,0
26496,note_on,0,0,1,,,,,,,,,,,,,,,0,,,64,127
26592,note_on,96,0,1,,,,,,,,,,,,,,,0,,,64,0
26592,note_on,0,0,1,,,,,,,,,,,,,,,0,,,59,127
26688,note_on,0,0,1,,,,,,,,,,,,,,,0,,,60,127
26688,note_on,96,0,1,,,,,,,,,,,,,,,0,,,59,0
26784,note_on,96,0,1,,,,,,,,,,,,,,,0,,,60,0
26784,note_on,0,0,1,,,,,,,,,,,,,,,0,,,64,127
26880,note_on,96,0,1,,,,,,,,,,,,,,,0,,,64,0
26880,note_on,0,0,1,,,,,,,,,,,,,,,0,,,62,127
26880,note_on,0,0,1,,,,,,,,,,,,,,,0,,,81,127
26880,note_on,0,0,1,,,,,,,,,,,,,,,0,,,79,127
26976,note_on,0,0,1,,,,,,,,,,,,,,,0,,,60,127
26976,note_on,96,0,1,,,,,,,,,,,,,,,0,,,62,0
27072,note_on,0,0,1,,,,,,,,,,,,,,,0,,,79,0
27072,note_on,0,0,1,,,,,,,,,,,,,,,0,,,81,0
27072,note_on,0,0,1,,,,,,,,,,,,,,,0,,,78,127
27072,note_on,0,0,1,,,,,,,,,,,,,,,0,,,84,127
27072,note_on,0,0,1,,,,,,,,,,,,,,,0,,,59,127
27072,note_on,96,0,1,,,,,,,,,,,,,,,0,,,60,0
27168,note_on,96,0,1,,,,,,,,,,,,,,,0,,,59,0
27168,note_on,0,0,1,,,,,,,,,,,,,,,0,,,57,127
27264,note_on,0,0,1,,,,,,,,,,,,,,,0,,,55,127
27264,note_on,0,0,1,,,,,,,,,,,,,,,0,,,83,127
27264,note_on,0,0,1,,,,,,,,,,,,,,,0,,,79,127
27264,note_on,0,0,1,,,,,,,,,,,,,,,0,,,84,0
27264,note_on,96,0,1,,,,,,,,,,,,,,,0,,,57,0
27264,note_on,0,0,1,,,,,,,,,,,,,,,0,,,78,0
27360,note_on,96,0,1,,,,,,,,,,,,,,,0,,,55,0
27360,note_on,0,0,1,,,,,,,,,,,,,,,0,,,66,127
27456,note_on,96,0,1,,,,,,,,,,,,,,,0,,,66,0
27456,note_on,0,0,1,,,,,,,,,,,,,,,0,,,67,127
27552,note_on,96,0,1,,,,,,,,,,,,,,,0,,,67,0
27552,note_on,0,0,1,,,,,,,,,,,,,,,0,,,62,127
27648,note_on,0,0,1,,,,,,,,,,,,,,,0,,,64,127
27648,note_on,96,0,1,,,,,,,,,,,,,,,0,,,62,0
27648,note_on,0,0,1,,,,,,,,,,,,,,,0,,,83,0
27648,note_on,0,0,1,,,,,,,,,,,,,,,0,,,79,0
27744,note_on,96,0,1,,,,,,,,,,,,,,,0,,,64,0
27744,note_on,0,0,1,,,,,,,,,,,,,,,0,,,59,127
27840,note_on,96,0,1,,,,,,,,,,,,,,,0,,,59,0
27840,note_on,0,0,1,,,,,,,,,,,,,,,0,,,60,127
27936,note_on,96,0,1,,,,,,,,,,,,,,,0,,,60,0
27936,note_on,0,0,1,,,,,,,,,,,,,,,0,,,64,127
28032,note_on,96,0,1,,,,,,,,,,,,,,,0,,,64,0
28032,note_on,0,0,1,,,,,,,,,,,,,,,0,,,79,127
28032,note_on,0,0,1,,,,,,,,,,,,,,,0,,,81,127
28032,note_on,0,0,1,,,,,,,,,,,,,,,0,,,62,127
28128,note_on,96,0,1,,,,,,,,,,,,,,,0,,,62,0
28128,note_on,0,0,1,,,,,,,,,,,,,,,0,,,60,127
28224,note_on,0,0,1,,,,,,,,,,,,,,,0,,,59,127
28224,note_on,0,0,1,,,,,,,,,,,,,,,0,,,78,127
28224,note_on,0,0,1,,,,,,,,,,,,,,,0,,,79,0
28224,note_on,0,0,1,,,,,,,,,,,,,,,0,,,81,0
28224,note_on,0,0,1,,,,,,,,,,,,,,,0,,,84,127
28224,note_on,96,0,1,,,,,,,,,,,,,,,0,,,60,0
28316,note_on,92,0,1,,,,,,,,,,,,,,,0,,,59,0
28320,note_on,4,0,1,,,,,,,,,,,,,,,0,,,57,127
28416,note_on,0,0,1,,,,,,,,,,,,,,,0,,,55,127
28416,note_on,96,0,1,,,,,,,,,,,,,,,0,,,57,0
28416,note_on,0,0,1,,,,,,,,,,,,,,,0,,,84,0
28416,note_on,0,0,1,,,,,,,,,,,,,,,0,,,78,0
28416,note_on,0,0,1,,,,,,,,,,,,,,,0,,,83,127
28512,note_on,96,0,1,,,,,,,,,,,,,,,0,,,78,127
28560,note_on,48,0,1,,,,,,,,,,,,,,,0,,,83,0
28608,note_on,48,0,1,,,,,,,,,,,,,,,0,,,78,0
28608,note_on,0,0,1,,,,,,,,,,,,,,,0,,,55,0
28608,note_on,0,0,1,,,,,,,,,,,,,,,0,,,79,127
28608,note_on,0,0,1,,,,,,,,,,,,,,,0,,,59,127
28704,note_on,96,0,1,,,,,,,,,,,,,,,0,,,74,127
28728,note_on,24,0,1,,,,,,,,,,,,,,,0,,,79,0
28800,note_on,72,0,1,,,,,,,,,,,,,,,0,,,74,0
28800,note_on,0,0,1,,,,,,,,,,,,,,,0,,,59,0
28800,note_on,0,0,1,,,,,,,,,,,,,,,0,,,60,127
28800,note_on,0,0,1,,,,,,,,,,,,,,,0,,,76,127
28896,note_on,96,0,1,,,,,,,,,,,,,,,0,,,71,127
28920,note_on,24,0,1,,,,,,,,,,,,,,,0,,,76,0
28992,note_on,0,0,1,,,,,,,,,,,,,,,0,,,60,0
28992,note_on,0,0,1,,,,,,,,,,,,,,,0,,,72,127
28992,note_on,0,0,1,,,,,,,,,,,,,,,0,,,48,127
28992,note_on,72,0,1,,,,,,,,,,,,,,,0,,,71,0
29088,note_on,96,0,1,,,,,,,,,,,,,,,0,,,72,0
29088,note_on,0,0,1,,,,,,,,,,,,,,,0,,,76,127
29184,note_on,96,0,1,,,,,,,,,,,,,,,0,,,76,0
29184,note_on,0,0,1,,,,,,,,,,,,,,,0,,,48,0
29184,note_on,0,0,1,,,,,,,,,,,,,,,0,,,74,127
29184,note_on,0,0,1,,,,,,,,,,,,,,,0,,,50,127
29280,note_on,96,0,1,,,,,,,,,,,,,,,0,,,74,0
29280,note_on,0,0,1,,,,,,,,,,,,,,,0,,,72,127
29376,note_on,96,0,1,,,,,,,,,,,,,,,0,,,72,0
29376,note_on,0,0,1,,,,,,,,,,,,,,,0,,,71,127
29376,note_on,0,0,1,,,,,,,,,,,,,,,0,,,38,127
29472,note_on,96,0,1,,,,,,,,,,,,,,,0,,,71,0
29472,note_on,0,0,1,,,,,,,,,,,,,,,0,,,69,127
29568,note_on,0,0,1,,,,,,,,,,,,,,,0,,,38,0
29568,note_on,0,0,1,,,,,,,,,,,,,,,0,,,43,127
29568,note_on,96,0,1,,,,,,,,,,,,,,,0,,,69,0
29568,note_on,0,0,1,,,,,,,,,,,,,,,0,,,67,127
29568,note_on,0,0,1,,,,,,,,,,,,,,,0,,,50,0
29664,note_on,96,0,1,,,,,,,,,,,,,,,0,,,67,0
29664,note_on,0,0,1,,,,,,,,,,,,,,,0,,,66,127
29760,note_on,96,0,1,,,,,,,,,,,,,,,0,,,66,0
29760,note_on,0,0,1,,,,,,,,,,,,,,,0,,,43,0
29760,note_on,0,0,1,,,,,,,,,,,,,,,0,,,67,127
29760,note_on,0,0,1,,,,,,,,,,,,,,,0,,,47,127
29856,note_on,96,0,1,,,,,,,,,,,,,,,0,,,67,0
29856,note_on,0,0,1,,,,,,,,,,,,,,,0,,,62,127
29952,note_on,96,0,1,,,,,,,,,,,,,,,0,,,62,0
29952,note_on,0,0,1,,,,,,,,,,,,,,,0,,,47,0
29952,note_on,0,0,1,,,,,,,,,,,,,,,0,,,48,127
29952,note_on,0,0,1,,,,,,,,,,,,,,,0,,,64,127
30048,note_on,0,0,1,,,,,,,,,,,,,,,0,,,59,127
30048,note_on,96,0,1,,,,,,,,,,,,,,,0,,,64,0
30144,note_on,96,0,1,,,,,,,,,,,,,,,0,,,59,0
30144,note_on,0,0,1,,,,,,,,,,,,,,,0,,,48,0
30144,note_on,0,0,1,,,,,,,,,,,,,,,0,,,60,127
30144,note_on,0,0,1,,,,,,,,,,,,,,,0,,,36,127
30240,note_on,96,0,1,,,,,,,,,,,,,,,0,,,60,0
30240,note_on,0,0,1,,,,,,,,,,,,,,,0,,,64,127
30336,note_on,96,0,1,,,,,,,,,,,,,,,0,,,64,0
30336,note_on,0,0,1,,,,,,,,,,,,,,,0,,,36,0
30336,note_on,0,0,1,,,,,,,,,,,,,,,0,,,62,127
30336,note_on,0,0,1,,,,,,,,,,,,,,,0,,,38,127
30432,note_on,96,0,1,,,,,,,,,,,,,,,0,,,62,0
30432,note_on,0,0,1,,,,,,,,,,,,,,,0,,,60,127
30528,note_on,96,0,1,,,,,,,,,,,,,,,0,,,60,0
30528,note_on,0,0,1,,,,,,,,,,,,,,,0,,,59,127
30624,note_on,96,0,1,,,,,,,,,,,,,,,0,,,59,0
30624,note_on,0,0,1,,,,,,,,,,,,,,,0,,,57,127
30720,note_on,0,0,1,,,,,,,,,,,,,,,0,,,55,127
30720,note_on,0,0,1,,,,,,,,,,,,,,,0,,,31,127
30720,note_on,96,0,1,,,,,,,,,,,,,,,0,,,57,0
30722,note_on,2,0,1,,,,,,,,,,,,,,,0,,,38,0
31248,note_on,526,0,1,,,,,,,,,,,,,,,0,,,31,0
31295,note_on,47,0,1,,,,,,,,,,,,,,,0,,,55,0
31296,note_on,1,0,1,,,,,,,,,,,,,,,0,,,55,127
31392,note_on,96,0,1,,,,,,,,,,,,,,,0,,,62,127
31488,note_on,0,0,1,,,,,,,,,,,,,,,0,,,58,127
31488,note_on,0,0,1,,,,,,,,,,,,,,,0,,,74,127
31488,note_on,96,0,1,,,,,,,,,,,,,,,0,,,55,0
31584,note_on,96,0,1,,,,,,,,,,,,,,,0,,,62,0
31584,note_on,0,0,1,,,,,,,,,,,,,,,0,,,62,127
31680,note_on,96,0,1,,,,,,,,,,,,,,,0,,,74,0
31680,note_on,0,0,1,,,,,,,,,,,,,,,0,,,58,0
31680,note_on,0,0,1,,,,,,,,,,,,,,,0,,,55,127
31680,note_on,0,0,1,,,,,,,,,,,,,,,0,,,74,127
31776,note_on,96,0,1,,,,,,,,,,,,,,,0,,,62,0
31776,note_on,0,0,1,,,,,,,,,,,,,,,0,,,62,127
31872,note_on,96,0,1,,,,,,,,,,,,,,,0,,,55,0
31872,note_on,0,0,1,,,,,,,,,,,,,,,0,,,74,0
31872,note_on,0,0,1,,,,,,,,,,,,,,,0,,,74,127
31872,note_on,0,0,1,,,,,,,,,,,,,,,0,,,54,127
31968,note_on,0,0,1,,,,,,,,,,,,,,,0,,,62,127
31968,note_on,96,0,1,,,,,,,,,,,,,,,0,,,62,0
32064,note_on,0,0,1,,,,,,,,,,,,,,,0,,,72,127
32064,note_on,96,0,1,,,,,,,,,,,,,,,0,,,54,0
32064,note_on,0,0,1,,,,,,,,,,,,,,,0,,,57,127
32160,note_on,0,0,1,,,,,,,,,,,,,,,0,,,62,127
32160,note_on,96,0,1,,,,,,,,,,,,,,,0,,,62,0
32256,note_on,0,0,1,,,,,,,,,,,,,,,0,,,74,127
32256,note_on,0,0,1,,,,,,,,,,,,,,,0,,,54,127
32256,note_on,0,0,1,,,,,,,,,,,,,,,0,,,72,0
32256,note_on,0,0,1,,,,,,,,,,,,,,,0,,,57,0
32256,note_on,96,0,1,,,,,,,,,,,,,,,0,,,74,0
32256,note_on,0,0,1,,,,,,,,,,,,,,,0,,,72,127
32352,note_on,96,0,1,,,,,,,,,,,,,,,0,,,62,0
32352,note_on,0,0,1,,,,,,,,,,,,,,,0,,,62,127
32448,note_on,96,0,1,,,,,,,,,,,,,,,0,,,72,0
32448,note_on,0,0,1,,,,,,,,,,,,,,,0,,,54,0
32448,note_on,0,0,1,,,,,,,,,,,,,,,0,,,74,0
32448,note_on,0,0,1,,,,,,,,,,,,,,,0,,,72,127
32448,note_on,0,0,1,,,,,,,,,,,,,,,0,,,74,127
32448,note_on,0,0,1,,,,,,,,,,,,,,,0,,,55,127
32544,note_on,96,0,1,,,,,,,,,,,,,,,0,,,62,0
32544,note_on,0,0,1,,,,,,,,,,,,,,,0,,,62,127
32640,note_on,96,0,1,,,,,,,,,,,,,,,0,,,72,0
32640,note_on,0,0,1,,,,,,,,,,,,,,,0,,,55,0
32640,note_on,0,0,1,,,,,,,,,,,,,,,0,,,58,127
32640,note_on,0,0,1,,,,,,,,,,,,,,,0,,,70,127
32736,note_on,96,0,1,,,,,,,,,,,,,,,0,,,62,0
32736,note_on,0,0,1,,,,,,,,,,,,,,,0,,,62,127
32832,note_on,0,0,1,,,,,,,,,,,,,,,0,,,74,127
32832,note_on,0,0,1,,,,,,,,,,,,,,,0,,,55,127
32832,note_on,0,0,1,,,,,,,,,,,,,,,0,,,70,0
32832,note_on,0,0,1,,,,,,,,,,,,,,,0,,,58,0
32832,note_on,96,0,1,,,,,,,,,,,,,,,0,,,74,0
32832,note_on,0,0,1,,,,,,,,,,,,,,,0,,,70,127
32928,note_on,0,0,1,,,,,,,,,,,,,,,0,,,62,127
32928,note_on,96,0,1,,,,,,,,,,,,,,,0,,,62,0
33024,note_on,96,0,1,,,,,,,,,,,,,,,0,,,70,0
33024,note_on,0,0,1,,,,,,,,,,,,,,,0,,,55,0
33024,note_on,0,0,1,,,,,,,,,,,,,,,0,,,74,0
33024,note_on,0,0,1,,,,,,,,,,,,,,,0,,,74,127
33024,note_on,0,0,1,,,,,,,,,,,,,,,0,,,70,127
33024,note_on,0,0,1,,,,,,,,,,,,,,,0,,,50,127
33120,note_on,96,0,1,,,,,,,,,,,,,,,0,,,62,0
33120,note_on,0,0,1,,,,,,,,,,,,,,,0,,,62,127
33216,note_on,0,0,1,,,,,,,,,,,,,,,0,,,70,0
33216,note_on,0,0,1,,,,,,,,,,,,,,,0,,,57,127
33216,note_on,0,0,1,,,,,,,,,,,,,,,0,,,69,127
33216,note_on,96,0,1,,,,,,,,,,,,,,,0,,,50,0
33312,note_on,96,0,1,,,,,,,,,,,,,,,0,,,62,0
33312,note_on,0,0,1,,,,,,,,,,,,,,,0,,,62,127
33408,note_on,0,0,1,,,,,,,,,,,,,,,0,,,50,127
33408,note_on,0,0,1,,,,,,,,,,,,,,,0,,,74,127
33408,note_on,0,0,1,,,,,,,,,,,,,,,0,,,69,127
33408,note_on,0,0,1,,,,,,,,,,,,,,,0,,,69,0
33408,note_on,96,0,1,,,,,,,,,,,,,,,0,,,74,0
33408,note_on,0,0,1,,,,,,,,,,,,,,,0,,,57,0
33504,note_on,96,0,1,,,,,,,,,,,,,,,0,,,62,0
33504,note_on,0,0,1,,,,,,,,,,,,,,,0,,,62,127
33600,note_on,0,0,1,,,,,,,,,,,,,,,0,,,51,127
33600,note_on,0,0,1,,,,,,,,,,,,,,,0,,,69,127
33600,note_on,96,0,1,,,,,,,,,,,,,,,0,,,62,0
33600,note_on,0,0,1,,,,,,,,,,,,,,,0,,,69,0
33600,note_on,0,0,1,,,,,,,,,,,,,,,0,,,74,0
33600,note_on,0,0,1,,,,,,,,,,,,,,,0,,,50,0
33600,note_on,0,0,1,,,,,,,,,,,,,,,0,,,74,127
33696,note_on,96,0,1,,,,,,,,,,,,,,,0,,,55,127
33792,note_on,96,0,1,,,,,,,,,,,,,,,0,,,55,0
33792,note_on,0,0,1,,,,,,,,,,,,,,,0,,,74,0
33792,note_on,0,0,1,,,,,,,,,,,,,,,0,,,69,0
33792,note_on,0,0,1,,,,,,,,,,,,,,,0,,,51,0
33792,note_on,0,0,1,,,,,,,,,,,,,,,0,,,67,127
33792,note_on,0,0,1,,,,,,,,,,,,,,,0,,,72,127
33792,note_on,0,0,1,,,,,,,,,,,,,,,0,,,60,127
33888,note_on,96,0,1,,,,,,,,,,,,,,,0,,,55,127
33984,note_on,0,0,1,,,,,,,,,,,,,,,0,,,72,127
33984,note_on,0,0,1,,,,,,,,,,,,,,,0,,,67,127
33984,note_on,0,0,1,,,,,,,,,,,,,,,0,,,51,127
33984,note_on,0,0,1,,,,,,,,,,,,,,,0,,,72,0
33984,note_on,0,0,1,,,,,,,,,,,,,,,0,,,67,0
33984,note_on,0,0,1,,,,,,,,,,,,,,,0,,,60,0
33984,note_on,96,0,1,,,,,,,,,,,,,,,0,,,55,0
34080,note_on,96,0,1,,,,,,,,,,,,,,,0,,,60,127
34176,note_on,96,0,1,,,,,,,,,,,,,,,0,,,51,0
34176,note_on,0,0,1,,,,,,,,,,,,,,,0,,,67,0
34176,note_on,0,0,1,,,,,,,,,,,,,,,0,,,72,0
34176,note_on,0,0,1,,,,,,,,,,,,,,,0,,,67,127
34176,note_on,0,0,1,,,,,,,,,,,,,,,0,,,70,127
34176,note_on,0,0,1,,,,,,,,,,,,,,,0,,,50,127
34272,note_on,96,0,1,,,,,,,,,,,,,,,0,,,60,0
34272,note_on,0,0,1,,,,,,,,,,,,,,,0,,,62,127
34368,note_on,0,0,1,,,,,,,,,,,,,,,0,,,70,0
34368,note_on,0,0,1,,,,,,,,,,,,,,,0,,,69,127
34368,note_on,0,0,1,,,,,,,,,,,,,,,0,,,57,127
34368,note_on,96,0,1,,,,,,,,,,,,,,,0,,,50,0
34464,note_on,96,0,1,,,,,,,,,,,,,,,0,,,62,0
34464,note_on,0,0,1,,,,,,,,,,,,,,,0,,,62,127
34560,note_on,0,0,1,,,,,,,,,,,,,,,0,,,69,127
34560,note_on,0,0,1,,,,,,,,,,,,,,,0,,,50,127
34560,note_on,0,0,1,,,,,,,,,,,,,,,0,,,69,0
34560,note_on,96,0,1,,,,,,,,,,,,,,,0,,,67,0
34560,note_on,0,0,1,,,,,,,,,,,,,,,0,,,66,127
34656,note_on,96,0,1,,,,,,,,,,,,,,,0,,,62,0
34656,note_on,0,0,1,,,,,,,,,,,,,,,0,,,62,127
34752,note_on,96,0,1,,,,,,,,,,,,,,,0,,,69,0
34752,note_on,0,0,1,,,,,,,,,,,,,,,0,,,66,0
34752,note_on,0,0,1,,,,,,,,,,,,,,,0,,,67,127
34752,note_on,0,0,1,,,,,,,,,,,,,,,0,,,70,127
34752,note_on,0,0,1,,,,,,,,,,,,,,,0,,,55,127
34755,note_on,3,0,1,,,,,,,,,,,,,,,0,,,57,0
34763,note_on,8,0,1,,,,,,,,,,,,,,,0,,,50,0
34848,note_on,85,0,1,,,,,,,,,,,,,,,0,,,62,0
34848,note_on,0,0,1,,,,,,,,,,,,,,,0,,,62,127
34944,note_on,0,0,1,,,,,,,,,,,,,,,0,,,55,0
34944,note_on,0,0,1,,,,,,,,,,,,,,,0,,,70,0
34944,note_on,0,0,1,,,,,,,,,,,,,,,0,,,58,127
34944,note_on,0,0,1,,,,,,,,,,,,,,,0,,,74,127
34944,note_on,96,0,1,,,,,,,,,,,,,,,0,,,67,0
35040,note_on,96,0,1,,,,,,,,,,,,,,,0,,,62,0
35040,note_on,0,0,1,,,,,,,,,,,,,,,0,,,62,127
35136,note_on,0,0,1,,,,,,,,,,,,,,,0,,,74,127
35136,note_on,96,0,1,,,,,,,,,,,,,,,0,,,74,0
35136,note_on,0,0,1,,,,,,,,,,,,,,,0,,,58,0
35136,note_on,0,0,1,,,,,,,,,,,,,,,0,,,55,127
35232,note_on,96,0,1,,,,,,,,,,,,,,,0,,,62,0
35232,note_on,0,0,1,,,,,,,,,,,,,,,0,,,62,127
35328,note_on,96,0,1,,,,,,,,,,,,,,,0,,,74,0
35328,note_on,0,0,1,,,,,,,,,,,,,,,0,,,55,0
35328,note_on,0,0,1,,,,,,,,,,,,,,,0,,,54,127
35328,note_on,0,0,1,,,,,,,,,,,,,,,0,,,74,127
35424,note_on,96,0,1,,,,,,,,,,,,,,,0,,,62,0
35424,note_on,0,0,1,,,,,,,,,,,,,,,0,,,62,127
35520,note_on,96,0,1,,,,,,,,,,,,,,,0,,,54,0
35520,note_on,0,0,1,,,,,,,,,,,,,,,0,,,57,127
35520,note_on,0,0,1,,,,,,,,,,,,,,,0,,,72,127
35616,note_on,96,0,1,,,,,,,,,,,,,,,0,,,62,0
35616,note_on,0,0,1,,,,,,,,,,,,,,,0,,,62,127
35712,note_on,0,0,1,,,,,,,,,,,,,,,0,,,74,127
35712,note_on,0,0,1,,,,,,,,,,,,,,,0,,,72,127
35712,note_on,0,0,1,,,,,,,,,,,,,,,0,,,57,0
35712,note_on,0,0,1,,,,,,,,,,,,,,,0,,,72,0
35712,note_on,96,0,1,,,,,,,,,,,,,,,0,,,74,0
35712,note_on,0,0,1,,,,,,,,,,,,,,,0,,,54,127
35808,note_on,96,0,1,,,,,,,,,,,,,,,0,,,62,0
35808,note_on,0,0,1,,,,,,,,,,,,,,,0,,,62,127
35904,note_on,96,0,1,,,,,,,,,,,,,,,0,,,54,0
35904,note_on,0,0,1,,,,,,,,,,,,,,,0,,,72,0
35904,note_on,0,0,1,,,,,,,,,,,,,,,0,,,74,0
35904,note_on,0,0,1,,,,,,,,,,,,,,,0,,,55,127
35904,note_on,0,0,1,,,,,,,,,,,,,,,0,,,74,127
35904,note_on,0,0,1,,,,,,,,,,,,,,,0,,,72,127
36000,note_on,96,0,1,,,,,,,,,,,,,,,0,,,62,0
36000,note_on,0,0,1,,,,,,,,,,,,,,,0,,,62,127
36096,note_on,0,0,1,,,,,,,,,,,,,,,0,,,72,0
36096,note_on,0,0,1,,,,,,,,,,,,,,,0,,,58,127
36096,note_on,0,0,1,,,,,,,,,,,,,,,0,,,70,127
36096,note_on,96,0,1,,,,,,,,,,,,,,,0,,,55,0
36192,note_on,96,0,1,,,,,,,,,,,,,,,0,,,62,0
36192,note_on,0,0,1,,,,,,,,,,,,,,,0,,,62,127
36288,note_on,0,0,1,,,,,,,,,,,,,,,0,,,70,127
36288,note_on,0,0,1,,,,,,,,,,,,,,,0,,,74,127
36288,note_on,96,0,1,,,,,,,,,,,,,,,0,,,74,0
36288,note_on,0,0,1,,,,,,,,,,,,,,,0,,,58,0
36288,note_on,0,0,1,,,,,,,,,,,,,,,0,,,70,0
36288,note_on,0,0,1,,,,,,,,,,,,,,,0,,,55,127
36384,note_on,96,0,1,,,,,,,,,,,,,,,0,,,62,0
36384,note_on,0,0,1,,,,,,,,,,,,,,,0,,,62,127
36480,note_on,96,0,1,,,,,,,,,,,,,,,0,,,55,0
36480,note_on,0,0,1,,,,,,,,,,,,,,,0,,,70,0
36480,note_on,0,0,1,,,,,,,,,,,,,,,0,,,74,0
36480,note_on,0,0,1,,,,,,,,,,,,,,,0,,,70,127
36480,note_on,0,0,1,,,,,,,,,,,,,,,0,,,74,127
36480,note_on,0,0,1,,,,,,,,,,,,,,,0,,,50,127
36576,note_on,0,0,1,,,,,,,,,,,,,,,0,,,62,127
36576,note_on,96,0,1,,,,,,,,,,,,,,,0,,,62,0
36672,note_on,0,0,1,,,,,,,,,,,,,,,0,,,50,0
36672,note_on,0,0,1,,,,,,,,,,,,,,,0,,,74,0
36672,note_on,0,0,1,,,,,,,,,,,,,,,0,,,68,127
36672,note_on,0,0,1,,,,,,,,,,,,,,,0,,,77,127
36672,note_on,0,0,1,,,,,,,,,,,,,,,0,,,58,127
36672,note_on,96,0,1,,,,,,,,,,,,,,,0,,,70,0
36768,note_on,96,0,1,,,,,,,,,,,,,,,0,,,62,0
36768,note_on,0,0,1,,,,,,,,,,,,,,,0,,,62,127
36864,note_on,0,0,1,,,,,,,,,,,,,,,0,,,50,127
36864,note_on,0,0,1,,,,,,,,,,,,,,,0,,,77,127
36864,note_on,96,0,1,,,,,,,,,,,,,,,0,,,68,0
36864,note_on,0,0,1,,,,,,,,,,,,,,,0,,,77,0
36864,note_on,0,0,1,,,,,,,,,,,,,,,0,,,58,0
36864,note_on,0,0,1,,,,,,,,,,,,,,,0,,,68,127
36960,note_on,96,0,1,,,,,,,,,,,,,,,0,,,62,0
36960,note_on,0,0,1,,,,,,,,,,,,,,,0,,,62,127
37056,note_on,96,0,1,,,,,,,,,,,,,,,0,,,62,0
37056,note_on,0,0,1,,,,,,,,,,,,,,,0,,,50,0
37056,note_on,0,0,1,,,,,,,,,,,,,,,0,,,77,0
37056,note_on,0,0,1,,,,,,,,,,,,,,,0,,,68,0
37056,note_on,0,0,1,,,,,,,,,,,,,,,0,,,68,127
37056,note_on,0,0,1,,,,,,,,,,,,,,,0,,,77,127
37056,note_on,0,0,1,,,,,,,,,,,,,,,0,,,51,127
37152,note_on,96,0,1,,,,,,,,,,,,,,,0,,,63,127
37248,note_on,0,0,1,,,,,,,,,,,,,,,0,,,55,127
37248,note_on,0,0,1,,,,,,,,,,,,,,,0,,,75,127
37248,note_on,96,0,1,,,,,,,,,,,,,,,0,,,51,0
37248,note_on,0,0,1,,,,,,,,,,,,,,,0,,,77,0
37248,note_on,0,0,1,,,,,,,,,,,,,,,0,,,68,0
37248,note_on,0,0,1,,,,,,,,,,,,,,,0,,,67,127
37344,note_on,96,0,1,,,,,,,,,,,,,,,0,,,63,0
37344,note_on,0,0,1,,,,,,,,,,,,,,,0,,,63,127
37440,note_on,0,0,1,,,,,,,,,,,,,,,0,,,51,127
37440,note_on,0,0,1,,,,,,,,,,,,,,,0,,,67,127
37440,note_on,96,0,1,,,,,,,,,,,,,,,0,,,67,0
37440,note_on,0,0,1,,,,,,,,,,,,,,,0,,,75,0
37440,note_on,0,0,1,,,,,,,,,,,,,,,0,,,55,0
37440,note_on,0,0,1,,,,,,,,,,,,,,,0,,,75,127
37536,note_on,96,0,1,,,,,,,,,,,,,,,0,,,63,0
37536,note_on,0,0,1,,,,,,,,,,,,,,,0,,,63,127
37632,note_on,96,0,1,,,,,,,,,,,,,,,0,,,63,0
37632,note_on,0,0,1,,,,,,,,,,,,,,,0,,,51,0
37632,note_on,0,0,1,,,,,,,,,,,,,,,0,,,67,0
37632,note_on,0,0,1,,,,,,,,,,,,,,,0,,,75,0
37632,note_on,0,0,1,,,,,,,,,,,,,,,0,,,75,127
37632,note_on,0,0,1,,,,,,,,,,,,,,,0,,,67,127
37632,note_on,0,0,1,,,,,,,,,,,,,,,0,,,46,127
37728,note_on,96,0,1,,,,,,,,,,,,,,,0,,,58,127
37824,note_on,0,0,1,,,,,,,,,,,,,,,0,,,53,127
37824,note_on,0,0,1,,,,,,,,,,,,,,,0,,,74,127
37824,note_on,96,0,1,,,,,,,,,,,,,,,0,,,58,0
37824,note_on,0,0,1,,,,,,,,,,,,,,,0,,,46,0
37824,note_on,0,0,1,,,,,,,,,,,,,,,0,,,75,0
37824,note_on,0,0,1,,,,,,,,,,,,,,,0,,,65,127
37824,note_on,0,0,1,,,,,,,,,,,,,,,0,,,67,0
37920,note_on,96,0,1,,,,,,,,,,,,,,,0,,,58,127
38016,note_on,96,0,1,,,,,,,,,,,,,,,0,,,58,0
38016,note_on,0,0,1,,,,,,,,,,,,,,,0,,,65,0
38016,note_on,0,0,1,,,,,,,,,,,,,,,0,,,74,0
38016,note_on,0,0,1,,,,,,,,,,,,,,,0,,,53,0
38016,note_on,0,0,1,,,,,,,,,,,,,,,0,,,65,127
38016,note_on,0,0,1,,,,,,,,,,,,,,,0,,,74,127
38016,note_on,0,0,1,,,,,,,,,,,,,,,0,,,46,127
38112,note_on,96,0,1,,,,,,,,,,,,,,,0,,,58,127
38208,note_on,0,0,1,,,,,,,,,,,,,,,0,,,48,127
38208,note_on,0,0,1,,,,,,,,,,,,,,,0,,,65,127
38208,note_on,0,0,1,,,,,,,,,,,,,,,0,,,65,0
38208,note_on,0,0,1,,,,,,,,,,,,,,,0,,,74,0
38208,note_on,96,0,1,,,,,,,,,,,,,,,0,,,46,0
38208,note_on,0,0,1,,,,,,,,,,,,,,,0,,,74,127
38304,note_on,96,0,1,,,,,,,,,,,,,,,0,,,58,0
38304,note_on,0,0,1,,,,,,,,,,,,,,,0,,,60,127
38400,note_on,0,0,1,,,,,,,,,,,,,,,0,,,55,127
38400,note_on,0,0,1,,,,,,,,,,,,,,,0,,,72,127
38400,note_on,0,0,1,,,,,,,,,,,,,,,0,,,48,0
38400,note_on,0,0,1,,,,,,,,,,,,,,,0,,,65,0
38400,note_on,0,0,1,,,,,,,,,,,,,,,0,,,63,127
38400,note_on,96,0,1,,,,,,,,,,,,,,,0,,,74,0
38496,note_on,96,0,1,,,,,,,,,,,,,,,0,,,60,0
38496,note_on,0,0,1,,,,,,,,,,,,,,,0,,,60,127
38592,note_on,96,0,1,,,,,,,,,,,,,,,0,,,63,0
38592,note_on,0,0,1,,,,,,,,,,,,,,,0,,,55,0
38592,note_on,0,0,1,,,,,,,,,,,,,,,0,,,72,0
38592,note_on,0,0,1,,,,,,,,,,,,,,,0,,,72,127
38592,note_on,0,0,1,,,,,,,,,,,,,,,0,,,63,127
38592,note_on,0,0,1,,,,,,,,,,,,,,,0,,,48,127
38688,note_on,96,0,1,,,,,,,,,,,,,,,0,,,60,0
38688,note_on,0,0,1,,,,,,,,,,,,,,,0,,,60,127
38784,note_on,0,0,1,,,,,,,,,,,,,,,0,,,72,127
38784,note_on,0,0,1,,,,,,,,,,,,,,,0,,,43,127
38784,note_on,0,0,1,,,,,,,,,,,,,,,0,,,72,0
38784,note_on,0,0,1,,,,,,,,,,,,,,,0,,,63,0
38784,note_on,96,0,1,,,,,,,,,,,,,,,0,,,60,0
38784,note_on,0,0,1,,,,,,,,,,,,,,,0,,,63,127
38784,note_on,0,0,1,,,,,,,,,,,,,,,0,,,48,0
38880,note_on,96,0,1,,,,,,,,,,,,,,,0,,,55,127
38976,note_on,96,0,1,,,,,,,,,,,,,,,0,,,43,0
38976,note_on,0,0,1,,,,,,,,,,,,,,,0,,,63,0
38976,note_on,0,0,1,,,,,,,,,,,,,,,0,,,72,0
38976,note_on,0,0,1,,,,,,,,,,,,,,,0,,,62,127
38976,note_on,0,0,1,,,,,,,,,,,,,,,0,,,71,127
38976,note_on,0,0,1,,,,,,,,,,,,,,,0,,,50,127
39072,note_on,0,0,1,,,,,,,,,,,,,,,0,,,55,127
39072,note_on,96,0,1,,,,,,,,,,,,,,,0,,,55,0
39168,note_on,96,0,1,,,,,,,,,,,,,,,0,,,62,0
39168,note_on,0,0,1,,,,,,,,,,,,,,,0,,,50,0
39168,note_on,0,0,1,,,,,,,,,,,,,,,0,,,71,0
39168,note_on,0,0,1,,,,,,,,,,,,,,,0,,,67,127
39168,note_on,0,0,1,,,,,,,,,,,,,,,0,,,62,127
39168,note_on,0,0,1,,,,,,,,,,,,,,,0,,,43,127
39264,note_on,0,0,1,,,,,,,,,,,,,,,0,,,55,127
39264,note_on,96,0,1,,,,,,,,,,,,,,,0,,,55,0
39360,note_on,0,0,1,,,,,,,,,,,,,,,0,,,43,0
39360,note_on,0,0,1,,,,,,,,,,,,,,,0,,,62,0
39360,note_on,0,0,1,,,,,,,,,,,,,,,0,,,62,127
39360,note_on,0,0,1,,,,,,,,,,,,,,,0,,,67,127
39360,note_on,0,0,1,,,,,,,,,,,,,,,0,,,44,127
39360,note_on,96,0,1,,,,,,,,,,,,,,,0,,,67,0
39456,note_on,96,0,1,,,,,,,,,,,,,,,0,,,55,0
39456,note_on,0,0,1,,,,,,,,,,,,,,,0,,,56,127
39552,note_on,0,0,1,,,,,,,,,,,,,,,0,,,48,127
39552,note_on,0,0,1,,,,,,,,,,,,,,,0,,,65,127
39552,note_on,0,0,1,,,,,,,,,,,,,,,0,,,44,0
39552,note_on,0,0,1,,,,,,,,,,,,,,,0,,,67,0
39552,note_on,96,0,1,,,,,,,,,,,,,,,0,,,62,0
39552,note_on,0,0,1,,,,,,,,,,,,,,,0,,,60,127
39648,note_on,96,0,1,,,,,,,,,,,,,,,0,,,56,0
39648,note_on,0,0,1,,,,,,,,,,,,,,,0,,,56,127
39744,note_on,0,0,1,,,,,,,,,,,,,,,0,,,44,127
39744,note_on,0,0,1,,,,,,,,,,,,,,,0,,,62,127
39744,note_on,0,0,1,,,,,,,,,,,,,,,0,,,65,0
39744,note_on,0,0,1,,,,,,,,,,,,,,,0,,,48,0
39744,note_on,96,0,1,,,,,,,,,,,,,,,0,,,60,0
39744,note_on,0,0,1,,,,,,,,,,,,,,,0,,,60,127
39840,note_on,96,0,1,,,,,,,,,,,,,,,0,,,56,0
39840,note_on,0,0,1,,,,,,,,,,,,,,,0,,,56,127
39935,note_on,95,0,1,,,,,,,,,,,,,,,0,,,56,0
39936,note_on,0,0,1,,,,,,,,,,,,,,,0,,,60,0
39936,note_on,1,0,1,,,,,,,,,,,,,,,0,,,44,0
39936,note_on,0,0,1,,,,,,,,,,,,,,,0,,,43,127
39936,note_on,0,0,1,,,,,,,,,,,,,,,0,,,62,0
39936,note_on,0,0,1,,,,,,,,,,,,,,,0,,,63,127
39936,note_on,0,0,1,,,,,,,,,,,,,,,0,,,60,127
40032,note_on,96,0,1,,,,,,,,,,,,,,,0,,,55,127
40128,note_on,0,0,1,,,,,,,,,,,,,,,0,,,63,0
40128,note_on,0,0,1,,,,,,,,,,,,,,,0,,,60,0
40128,note_on,0,0,1,,,,,,,,,,,,,,,0,,,50,127
40128,note_on,96,0,1,,,,,,,,,,,,,,,0,,,43,0
40128,note_on,0,0,1,,,,,,,,,,,,,,,0,,,62,127
40128,note_on,0,0,1,,,,,,,,,,,,,,,0,,,59,127
40224,note_on,96,0,1,,,,,,,,,,,,,,,0,,,55,0
40224,note_on,0,0,1,,,,,,,,,,,,,,,0,,,55,127
40320,note_on,0,0,1,,,,,,,,,,,,,,,0,,,50,0
40320,note_on,0,0,1,,,,,,,,,,,,,,,0,,,62,0
40320,note_on,0,0,1,,,,,,,,,,,,,,,0,,,67,127
40320,note_on,0,0,1,,,,,,,,,,,,,,,0,,,59,127
40320,note_on,0,0,1,,,,,,,,,,,,,,,0,,,43,127
40320,note_on,96,0,1,,,,,,,,,,,,,,,0,,,59,0
40416,note_on,96,0,1,,,,,,,,,,,,,,,0,,,55,0
40416,note_on,0,0,1,,,,,,,,,,,,,,,0,,,55,127
40511,note_on,95,0,1,,,,,,,,,,,,,,,0,,,55,0
40512,note_on,1,0,1,,,,,,,,,,,,,,,0,,,43,0
40512,note_on,0,0,1,,,,,,,,,,,,,,,0,,,59,0
40512,note_on,0,0,1,,,,,,,,,,,,,,,0,,,67,0
40512,note_on,0,0,1,,,,,,,,,,,,,,,0,,,60,127
40512,note_on,0,0,1,,,,,,,,,,,,,,,0,,,67,127
40512,note_on,0,0,1,,,,,,,,,,,,,,,0,,,44,127
40608,note_on,96,0,1,,,,,,,,,,,,,,,0,,,53,127
40704,note_on,0,0,1,,,,,,,,,,,,,,,0,,,67,0
40704,note_on,0,0,1,,,,,,,,,,,,,,,0,,,60,127
40704,note_on,0,0,1,,,,,,,,,,,,,,,0,,,65,127
40704,note_on,0,0,1,,,,,,,,,,,,,,,0,,,48,127
40704,note_on,96,0,1,,,,,,,,,,,,,,,0,,,44,0
40704,note_on,0,0,1,,,,,,,,,,,,,,,0,,,60,0
40800,note_on,96,0,1,,,,,,,,,,,,,,,0,,,53,0
40800,note_on,0,0,1,,,,,,,,,,,,,,,0,,,53,127
40896,note_on,96,0,1,,,,,,,,,,,,,,,0,,,60,0
40896,note_on,0,0,1,,,,,,,,,,,,,,,0,,,48,0
40896,note_on,0,0,1,,,,,,,,,,,,,,,0,,,65,0
40896,note_on,0,0,1,,,,,,,,,,,,,,,0,,,62,127
40896,note_on,0,0,1,,,,,,,,,,,,,,,0,,,72,127
40896,note_on,0,0,1,,,,,,,,,,,,,,,0,,,44,127
40992,note_on,96,0,1,,,,,,,,,,,,,,,0,,,53,0
40992,note_on,0,0,1,,,,,,,,,,,,,,,0,,,53,127
41087,note_on,95,0,1,,,,,,,,,,,,,,,0,,,53,0
41088,note_on,0,0,1,,,,,,,,,,,,,,,0,,,62,0
41088,note_on,1,0,1,,,,,,,,,,,,,,,0,,,44,0
41088,note_on,0,0,1,,,,,,,,,,,,,,,0,,,72,127
41088,note_on,0,0,1,,,,,,,,,,,,,,,0,,,72,0
41088,note_on,0,0,1,,,,,,,,,,,,,,,0,,,43,127
41088,note_on,0,0,1,,,,,,,,,,,,,,,0,,,63,127
41184,note_on,96,0,1,,,,,,,,,,,,,,,0,,,55,127
41280,note_on,96,0,1,,,,,,,,,,,,,,,0,,,72,0
41280,note_on,0,0,1,,,,,,,,,,,,,,,0,,,63,0
41280,note_on,0,0,1,,,,,,,,,,,,,,,0,,,43,0
41280,note_on,0,0,1,,,,,,,,,,,,,,,0,,,67,127
41280,note_on,0,0,1,,,,,,,,,,,,,,,0,,,71,127
41280,note_on,0,0,1,,,,,,,,,,,,,,,0,,,50,127
41376,note_on,96,0,1,,,,,,,,,,,,,,,0,,,71,0
41376,note_on,0,0,1,,,,,,,,,,,,,,,0,,,55,0
41376,note_on,0,0,1,,,,,,,,,,,,,,,0,,,72,127
41376,note_on,0,0,1,,,,,,,,,,,,,,,0,,,55,127
41472,note_on,0,0,1,,,,,,,,,,,,,,,0,,,74,127
41472,note_on,0,0,1,,,,,,,,,,,,,,,0,,,43,127
41472,note_on,0,0,1,,,,,,,,,,,,,,,0,,,50,0
41472,note_on,0,0,1,,,,,,,,,,,,,,,0,,,67,0
41472,note_on,0,0,1,,,,,,,,,,,,,,,0,,,65,127
41472,note_on,96,0,1,,,,,,,,,,,,,,,0,,,72,0
41568,note_on,0,0,1,,,,,,,,,,,,,,,0,,,55,127
41568,note_on,96,0,1,,,,,,,,,,,,,,,0,,,55,0
41663,note_on,95,0,1,,,,,,,,,,,,,,,0,,,55,0
41664,note_on,1,0,1,,,,,,,,,,,,,,,0,,,43,0
41664,note_on,0,0,1,,,,,,,,,,,,,,,0,,,65,0
41664,note_on,0,0,1,,,,,,,,,,,,,,,0,,,63,127
41664,note_on,0,0,1,,,,,,,,,,,,,,,0,,,44,127
41760,note_on,96,0,1,,,,,,,,,,,,,,,0,,,53,127
41856,note_on,96,0,1,,,,,,,,,,,,,,,0,,,44,0
41856,note_on,0,0,1,,,,,,,,,,,,,,,0,,,74,0
41856,note_on,0,0,1,,,,,,,,,,,,,,,0,,,63,0
41856,note_on,0,0,1,,,,,,,,,,,,,,,0,,,72,127
41856,note_on,0,0,1,,,,,,,,,,,,,,,0,,,63,127
41856,note_on,0,0,1,,,,,,,,,,,,,,,0,,,48,127
41952,note_on,0,0,1,,,,,,,,,,,,,,,0,,,53,127
41952,note_on,96,0,1,,,,,,,,,,,,,,,0,,,53,0
42048,note_on,0,0,1,,,,,,,,,,,,,,,0,,,48,0
42048,note_on,0,0,1,,,,,,,,,,,,,,,0,,,44,127
42048,note_on,96,0,1,,,,,,,,,,,,,,,0,,,72,0
42048,note_on,0,0,1,,,,,,,,,,,,,,,0,,,65,127
42048,note_on,0,0,1,,,,,,,,,,,,,,,0,,,72,127
42048,note_on,0,0,1,,,,,,,,,,,,,,,0,,,63,0
42144,note_on,96,0,1,,,,,,,,,,,,,,,0,,,53,0
42144,note_on,0,0,1,,,,,,,,,,,,,,,0,,,53,127
42239,note_on,95,0,1,,,,,,,,,,,,,,,0,,,53,0
42240,note_on,1,0,1,,,,,,,,,,,,,,,0,,,44,0
42240,note_on,0,0,1,,,,,,,,,,,,,,,0,,,65,0
42240,note_on,0,0,1,,,,,,,,,,,,,,,0,,,63,127
42240,note_on,0,0,1,,,,,,,,,,,,,,,0,,,43,127
42432,note_on,192,0,1,,,,,,,,,,,,,,,0,,,63,0
42432,note_on,0,0,1,,,,,,,,,,,,,,,0,,,72,0
42432,note_on,0,0,1,,,,,,,,,,,,,,,0,,,71,127
42432,note_on,0,0,1,,,,,,,,,,,,,,,0,,,62,127
42432,note_on,0,0,1,,,,,,,,,,,,,,,0,,,55,127
42528,note_on,96,0,1,,,,,,,,,,,,,,,0,,,71,0
42528,note_on,0,0,1,,,,,,,,,,,,,,,0,,,72,127
42624,note_on,96,0,1,,,,,,,,,,,,,,,0,,,72,0
42624,note_on,0,0,1,,,,,,,,,,,,,,,0,,,74,127
42720,note_on,0,0,1,,,,,,,,,,,,,,,0,,,55,0
42720,note_on,0,0,1,,,,,,,,,,,,,,,0,,,43,0
42720,note_on,96,0,1,,,,,,,,,,,,,,,0,,,74,0
42816,note_on,96,0,1,,,,,,,,,,,,,,,0,,,62,0
42816,note_on,0,0,1,,,,,,,,,,,,,,,0,,,60,127
42912,note_on,96,0,1,,,,,,,,,,,,,,,0,,,67,127
43008,note_on,96,0,1,,,,,,,,,,,,,,,0,,,67,0
43008,note_on,0,0,1,,,,,,,,,,,,,,,0,,,60,0
43008,note_on,0,0,1,,,,,,,,,,,,,,,0,,,63,127
43008,note_on,0,0,1,,,,,,,,,,,,,,,0,,,79,127
43104,note_on,96,0,1,,,,,,,,,,,,,,,0,,,67,127
43200,note_on,96,0,1,,,,,,,,,,,,,,,0,,,67,0
43200,note_on,0,0,1,,,,,,,,,,,,,,,0,,,79,0
43200,note_on,0,0,1,,,,,,,,,,,,,,,0,,,63,0
43200,note_on,0,0,1,,,,,,,,,,,,,,,0,,,79,127
43200,note_on,0,0,1,,,,,,,,,,,,,,,0,,,60,127
43296,note_on,96,0,1,,,,,,,,,,,,,,,0,,,67,127
43392,note_on,0,0,1,,,,,,,,,,,,,,,0,,,59,127
43392,note_on,96,0,1,,,,,,,,,,,,,,,0,,,60,0
43392,note_on,0,0,1,,,,,,,,,,,,,,,0,,,79,127
43392,note_on,0,0,1,,,,,,,,,,,,,,,0,,,79,0
43488,note_on,0,0,1,,,,,,,,,,,,,,,0,,,67,127
43488,note_on,96,0,1,,,,,,,,,,,,,,,0,,,67,0
43584,note_on,96,0,1,,,,,,,,,,,,,,,0,,,77,127
43584,note_on,0,0,1,,,,,,,,,,,,,,,0,,,62,127
43680,note_on,96,0,1,,,,,,,,,,,,,,,0,,,67,0
43680,note_on,0,0,1,,,,,,,,,,,,,,,0,,,67,127
43776,note_on,96,0,1,,,,,,,,,,,,,,,0,,,77,0
43776,note_on,0,0,1,,,,,,,,,,,,,,,0,,,62,0
43776,note_on,0,0,1,,,,,,,,,,,,,,,0,,,79,0
43776,note_on,0,0,1,,,,,,,,,,,,,,,0,,,59,0
43776,note_on,0,0,1,,,,,,,,,,,,,,,0,,,77,127
43776,note_on,0,0,1,,,,,,,,,,,,,,,0,,,79,127
43776,note_on,0,0,1,,,,,,,,,,,,,,,0,,,59,127
43872,note_on,96,0,1,,,,,,,,,,,,,,,0,,,67,0
43872,note_on,0,0,1,,,,,,,,,,,,,,,0,,,67,127
43968,note_on,0,0,1,,,,,,,,,,,,,,,0,,,60,127
43968,note_on,0,0,1,,,,,,,,,,,,,,,0,,,77,127
43968,note_on,0,0,1,,,,,,,,,,,,,,,0,,,59,0
43968,note_on,0,0,1,,,,,,,,,,,,,,,0,,,79,127
43968,note_on,0,0,1,,,,,,,,,,,,,,,0,,,79,0
43968,note_on,96,0,1,,,,,,,,,,,,,,,0,,,77,0
44064,note_on,0,0,1,,,,,,,,,,,,,,,0,,,67,127
44064,note_on,96,0,1,,,,,,,,,,,,,,,0,,,67,0
44160,note_on,96,0,1,,,,,,,,,,,,,,,0,,,77,0
44160,note_on,0,0,1,,,,,,,,,,,,,,,0,,,75,127
44160,note_on,0,0,1,,,,,,,,,,,,,,,0,,,63,127
44256,note_on,96,0,1,,,,,,,,,,,,,,,0,,,67,0
44256,note_on,0,0,1,,,,,,,,,,,,,,,0,,,67,127
44352,note_on,96,0,1,,,,,,,,,,,,,,,0,,,75,0
44352,note_on,0,0,1,,,,,,,,,,,,,,,0,,,63,0
44352,note_on,0,0,1,,,,,,,,,,,,,,,0,,,60,0
44352,note_on,0,0,1,,,,,,,,,,,,,,,0,,,79,0
44352,note_on,0,0,1,,,,,,,,,,,,,,,0,,,75,127
44352,note_on,0,0,1,,,,,,,,,,,,,,,0,,,79,127
44352,note_on,0,0,1,,,,,,,,,,,,,,,0,,,60,127
44448,note_on,96,0,1,,,,,,,,,,,,,,,0,,,67,0
44448,note_on,0,0,1,,,,,,,,,,,,,,,0,,,67,127
44544,note_on,0,0,1,,,,,,,,,,,,,,,0,,,60,0
44544,note_on,0,0,1,,,,,,,,,,,,,,,0,,,55,127
44544,note_on,96,0,1,,,,,,,,,,,,,,,0,,,75,0
44544,note_on,0,0,1,,,,,,,,,,,,,,,0,,,75,127
44544,note_on,0,0,1,,,,,,,,,,,,,,,0,,,79,127
44544,note_on,0,0,1,,,,,,,,,,,,,,,0,,,79,0
44640,note_on,0,0,1,,,,,,,,,,,,,,,0,,,67,127
44640,note_on,96,0,1,,,,,,,,,,,,,,,0,,,67,0
44736,note_on,96,0,1,,,,,,,,,,,,,,,0,,,75,0
44736,note_on,0,0,1,,,,,,,,,,,,,,,0,,,74,127
44736,note_on,0,0,1,,,,,,,,,,,,,,,0,,,62,127
44832,note_on,96,0,1,,,,,,,,,,,,,,,0,,,67,0
44832,note_on,0,0,1,,,,,,,,,,,,,,,0,,,67,127
44928,note_on,0,0,1,,,,,,,,,,,,,,,0,,,55,127
44928,note_on,0,0,1,,,,,,,,,,,,,,,0,,,79,127
44928,note_on,0,0,1,,,,,,,,,,,,,,,0,,,74,127
44928,note_on,0,0,1,,,,,,,,,,,,,,,0,,,79,0
44928,note_on,0,0,1,,,,,,,,,,,,,,,0,,,55,0
44928,note_on,0,0,1,,,,,,,,,,,,,,,0,,,62,0
44928,note_on,96,0,1,,,,,,,,,,,,,,,0,,,74,0
45024,note_on,96,0,1,,,,,,,,,,,,,,,0,,,67,0
45024,note_on,0,0,1,,,,,,,,,,,,,,,0,,,67,127
45119,note_on,95,0,1,,,,,,,,,,,,,,,0,,,67,0
45120,note_on,0,0,1,,,,,,,,,,,,,,,0,,,56,127
45120,note_on,0,0,1,,,,,,,,,,,,,,,0,,,79,127
45120,note_on,0,0,1,,,,,,,,,,,,,,,0,,,79,0
45120,note_on,0,0,1,,,,,,,,,,,,,,,0,,,74,0
45120,note_on,1,0,1,,,,,,,,,,,,,,,0,,,55,0
45120,note_on,0,0,1,,,,,,,,,,,,,,,0,,,74,127
45216,note_on,96,0,1,,,,,,,,,,,,,,,0,,,65,127
45312,note_on,96,0,1,,,,,,,,,,,,,,,0,,,79,0
45312,note_on,0,0,1,,,,,,,,,,,,,,,0,,,74,0
45312,note_on,0,0,1,,,,,,,,,,,,,,,0,,,72,127
45312,note_on,0,0,1,,,,,,,,,,,,,,,0,,,77,127
45312,note_on,0,0,1,,,,,,,,,,,,,,,0,,,60,127
45408,note_on,96,0,1,,,,,,,,,,,,,,,0,,,65,0
45408,note_on,0,0,1,,,,,,,,,,,,,,,0,,,65,127
45504,note_on,0,0,1,,,,,,,,,,,,,,,0,,,77,127
45504,note_on,0,0,1,,,,,,,,,,,,,,,0,,,72,127
45504,note_on,0,0,1,,,,,,,,,,,,,,,0,,,56,127
45504,note_on,0,0,1,,,,,,,,,,,,,,,0,,,56,0
45504,note_on,0,0,1,,,,,,,,,,,,,,,0,,,60,0
45504,note_on,96,0,1,,,,,,,,,,,,,,,0,,,77,0
45504,note_on,0,0,1,,,,,,,,,,,,,,,0,,,72,0
45600,note_on,96,0,1,,,,,,,,,,,,,,,0,,,65,0
45600,note_on,0,0,1,,,,,,,,,,,,,,,0,,,65,127
45695,note_on,95,0,1,,,,,,,,,,,,,,,0,,,65,0
45696,note_on,1,0,1,,,,,,,,,,,,,,,0,,,56,0
45696,note_on,0,0,1,,,,,,,,,,,,,,,0,,,77,0
45696,note_on,0,0,1,,,,,,,,,,,,,,,0,,,72,0
45696,note_on,0,0,1,,,,,,,,,,,,,,,0,,,75,127
45696,note_on,0,0,1,,,,,,,,,,,,,,,0,,,72,127
45696,note_on,0,0,1,,,,,,,,,,,,,,,0,,,55,127
45792,note_on,96,0,1,,,,,,,,,,,,,,,0,,,67,127
45888,note_on,96,0,1,,,,,,,,,,,,,,,0,,,75,0
45888,note_on,0,0,1,,,,,,,,,,,,,,,0,,,74,127
45888,note_on,0,0,1,,,,,,,,,,,,,,,0,,,62,127
45984,note_on,96,0,1,,,,,,,,,,,,,,,0,,,67,0
45984,note_on,0,0,1,,,,,,,,,,,,,,,0,,,67,127
46080,note_on,0,0,1,,,,,,,,,,,,,,,0,,,55,127
46080,note_on,0,0,1,,,,,,,,,,,,,,,0,,,71,127
46080,note_on,0,0,1,,,,,,,,,,,,,,,0,,,74,127
46080,note_on,0,0,1,,,,,,,,,,,,,,,0,,,62,0
46080,note_on,0,0,1,,,,,,,,,,,,,,,0,,,55,0
46080,note_on,0,0,1,,,,,,,,,,,,,,,0,,,72,0
46080,note_on,96,0,1,,,,,,,,,,,,,,,0,,,74,0
46176,note_on,0,0,1,,,,,,,,,,,,,,,0,,,67,127
46176,note_on,96,0,1,,,,,,,,,,,,,,,0,,,67,0
46272,note_on,96,0,1,,,,,,,,,,,,,,,0,,,71,0
46272,note_on,0,0,1,,,,,,,,,,,,,,,0,,,55,0
46272,note_on,0,0,1,,,,,,,,,,,,,,,0,,,74,0
46272,note_on,0,0,1,,,,,,,,,,,,,,,0,,,72,127
46272,note_on,0,0,1,,,,,,,,,,,,,,,0,,,60,127
46272,note_on,0,0,1,,,,,,,,,,,,,,,0,,,75,127
46368,note_on,96,0,1,,,,,,,,,,,,,,,0,,,67,0
46368,note_on,0,0,1,,,,,,,,,,,,,,,0,,,67,127
46464,note_on,96,0,1,,,,,,,,,,,,,,,0,,,72,0
46464,note_on,0,0,1,,,,,,,,,,,,,,,0,,,75,0
46464,note_on,0,0,1,,,,,,,,,,,,,,,0,,,79,127
46464,note_on,0,0,1,,,,,,,,,,,,,,,0,,,63,127
46560,note_on,0,0,1,,,,,,,,,,,,,,,0,,,67,127
46560,note_on,96,0,1,,,,,,,,,,,,,,,0,,,67,0
46656,note_on,96,0,1,,,,,,,,,,,,,,,0,,,60,0
46656,note_on,0,0,1,,,,,,,,,,,,,,,0,,,60,127
46656,note_on,0,0,1,,,,,,,,,,,,,,,0,,,63,0
46656,note_on,0,0,1,,,,,,,,,,,,,,,0,,,79,127
46656,note_on,0,0,1,,,,,,,,,,,,,,,0,,,79,0
46752,note_on,96,0,1,,,,,,,,,,,,,,,0,,,67,0
46752,note_on,0,0,1,,,,,,,,,,,,,,,0,,,67,127
46848,note_on,0,0,1,,,,,,,,,,,,,,,0,,,79,0
46848,note_on,0,0,1,,,,,,,,,,,,,,,0,,,79,127
46848,note_on,0,0,1,,,,,,,,,,,,,,,0,,,59,127
46848,note_on,96,0,1,,,,,,,,,,,,,,,0,,,60,0
46944,note_on,96,0,1,,,,,,,,,,,,,,,0,,,67,0
46944,note_on,0,0,1,,,,,,,,,,,,,,,0,,,67,127
47040,note_on,96,0,1,,,,,,,,,,,,,,,0,,,62,127
47040,note_on,0,0,1,,,,,,,,,,,,,,,0,,,77,127
47136,note_on,96,0,1,,,,,,,,,,,,,,,0,,,67,0
47136,note_on,0,0,1,,,,,,,,,,,,,,,0,,,67,127
47232,note_on,0,0,1,,,,,,,,,,,,,,,0,,,77,127
47232,note_on,0,0,1,,,,,,,,,,,,,,,0,,,59,127
47232,note_on,0,0,1,,,,,,,,,,,,,,,0,,,79,127
47232,note_on,0,0,1,,,,,,,,,,,,,,,0,,,79,0
47232,note_on,96,0,1,,,,,,,,,,,,,,,0,,,62,0
47232,note_on,0,0,1,,,,,,,,,,,,,,,0,,,59,0
47232,note_on,0,0,1,,,,,,,,,,,,,,,0,,,77,0
47328,note_on,0,0,1,,,,,,,,,,,,,,,0,,,67,127
47328,note_on,96,0,1,,,,,,,,,,,,,,,0,,,67,0
47424,note_on,0,0,1,,,,,,,,,,,,,,,0,,,79,0
47424,note_on,0,0,1,,,,,,,,,,,,,,,0,,,77,0
47424,note_on,0,0,1,,,,,,,,,,,,,,,0,,,60,127
47424,note_on,0,0,1,,,,,,,,,,,,,,,0,,,77,127
47424,note_on,0,0,1,,,,,,,,,,,,,,,0,,,79,127
47424,note_on,96,0,1,,,,,,,,,,,,,,,0,,,59,0
47520,note_on,0,0,1,,,,,,,,,,,,,,,0,,,67,127
47520,note_on,96,0,1,,,,,,,,,,,,,,,0,,,67,0
47616,note_on,96,0,1,,,,,,,,,,,,,,,0,,,77,0
47616,note_on,0,0,1,,,,,,,,,,,,,,,0,,,63,127
47616,note_on,0,0,1,,,,,,,,,,,,,,,0,,,75,127
47712,note_on,96,0,1,,,,,,,,,,,,,,,0,,,67,0
47712,note_on,0,0,1,,,,,,,,,,,,,,,0,,,67,127
47808,note_on,0,0,1,,,,,,,,,,,,,,,0,,,60,127
47808,note_on,0,0,1,,,,,,,,,,,,,,,0,,,75,127
47808,note_on,0,0,1,,,,,,,,,,,,,,,0,,,60,0
47808,note_on,0,0,1,,,,,,,,,,,,,,,0,,,79,0
47808,note_on,0,0,1,,,,,,,,,,,,,,,0,,,79,127
47808,note_on,0,0,1,,,,,,,,,,,,,,,0,,,75,0
47808,note_on,96,0,1,,,,,,,,,,,,,,,0,,,63,0
47904,note_on,0,0,1,,,,,,,,,,,,,,,0,,,67,127
47904,note_on,96,0,1,,,,,,,,,,,,,,,0,,,67,0
48000,note_on,96,0,1,,,,,,,,,,,,,,,0,,,79,0
48000,note_on,0,0,1,,,,,,,,,,,,,,,0,,,60,0
48000,note_on,0,0,1,,,,,,,,,,,,,,,0,,,75,0
48000,note_on,0,0,1,,,,,,,,,,,,,,,0,,,75,127
48000,note_on,0,0,1,,,,,,,,,,,,,,,0,,,79,127
48000,note_on,0,0,1,,,,,,,,,,,,,,,0,,,55,127
48096,note_on,96,0,1,,,,,,,,,,,,,,,0,,,67,0
48096,note_on,0,0,1,,,,,,,,,,,,,,,0,,,67,127
48192,note_on,96,0,1,,,,,,,,,,,,,,,0,,,75,0
48192,note_on,0,0,1,,,,,,,,,,,,,,,0,,,79,0
48192,note_on,0,0,1,,,,,,,,,,,,,,,0,,,73,127
48192,note_on,0,0,1,,,,,,,,,,,,,,,0,,,82,127
48192,note_on,0,0,1,,,,,,,,,,,,,,,0,,,63,127
48288,note_on,96,0,1,,,,,,,,,,,,,,,0,,,67,0
48288,note_on,0,0,1,,,,,,,,,,,,,,,0,,,67,127
48384,note_on,0,0,1,,,,,,,,,,,,,,,0,,,63,0
48384,note_on,0,0,1,,,,,,,,,,,,,,,0,,,55,0
48384,note_on,0,0,1,,,,,,,,,,,,,,,0,,,73,0
48384,note_on,0,0,1,,,,,,,,,,,,,,,0,,,73,127
48384,note_on,0,0,1,,,,,,,,,,,,,,,0,,,82,127
48384,note_on,0,0,1,,,,,,,,,,,,,,,0,,,55,127
48384,note_on,96,0,1,,,,,,,,,,,,,,,0,,,82,0
48480,note_on,96,0,1,,,,,,,,,,,,,,,0,,,67,0
48480,note_on,0,0,1,,,,,,,,,,,,,,,0,,,67,127
48576,note_on,96,0,1,,,,,,,,,,,,,,,0,,,73,0
48576,note_on,0,0,1,,,,,,,,,,,,,,,0,,,55,0
48576,note_on,0,0,1,,,,,,,,,,,,,,,0,,,82,0
48576,note_on,0,0,1,,,,,,,,,,,,,,,0,,,56,127
48576,note_on,0,0,1,,,,,,,,,,,,,,,0,,,73,127
48576,note_on,0,0,1,,,,,,,,,,,,,,,0,,,82,127
48672,note_on,0,0,1,,,,,,,,,,,,,,,0,,,63,127
48672,note_on,96,0,1,,,,,,,,,,,,,,,0,,,67,0
48768,note_on,0,0,1,,,,,,,,,,,,,,,0,,,73,0
48768,note_on,0,0,1,,,,,,,,,,,,,,,0,,,60,127
48768,note_on,96,0,1,,,,,,,,,,,,,,,0,,,82,0
48768,note_on,0,0,1,,,,,,,,,,,,,,,0,,,80,127
48768,note_on,0,0,1,,,,,,,,,,,,,,,0,,,72,127
48864,note_on,96,0,1,,,,,,,,,,,,,,,0,,,63,0
48864,note_on,0,0,1,,,,,,,,,,,,,,,0,,,63,127
48960,note_on,0,0,1,,,,,,,,,,,,,,,0,,,60,0
48960,note_on,0,0,1,,,,,,,,,,,,,,,0,,,56,0
48960,note_on,0,0,1,,,,,,,,,,,,,,,0,,,72,0
48960,note_on,0,0,1,,,,,,,,,,,,,,,0,,,80,127
48960,note_on,0,0,1,,,,,,,,,,,,,,,0,,,72,127
48960,note_on,0,0,1,,,,,,,,,,,,,,,0,,,56,127
48960,note_on,96,0,1,,,,,,,,,,,,,,,0,,,80,0
49056,note_on,96,0,1,,,,,,,,,,,,,,,0,,,63,0
49056,note_on,0,0,1,,,,,,,,,,,,,,,0,,,63,127
49152,note_on,0,0,1,,,,,,,,,,,,,,,0,,,51,127
49152,note_on,0,0,1,,,,,,,,,,,,,,,0,,,80,127
49152,note_on,0,0,1,,,,,,,,,,,,,,,0,,,56,0
49152,note_on,0,0,1,,,,,,,,,,,,,,,0,,,72,0
49152,note_on,96,0,1,,,,,,,,,,,,,,,0,,,80,0
49152,note_on,0,0,1,,,,,,,,,,,,,,,0,,,72,127
49248,note_on,96,0,1,,,,,,,,,,,,,,,0,,,63,0
49248,note_on,0,0,1,,,,,,,,,,,,,,,0,,,63,127
49344,note_on,0,0,1,,,,,,,,,,,,,,,0,,,70,127
49344,note_on,0,0,1,,,,,,,,,,,,,,,0,,,80,0
49344,note_on,0,0,1,,,,,,,,,,,,,,,0,,,79,127
49344,note_on,0,0,1,,,,,,,,,,,,,,,0,,,58,127
49344,note_on,96,0,1,,,,,,,,,,,,,,,0,,,72,0
49440,note_on,96,0,1,,,,,,,,,,,,,,,0,,,63,0
49440,note_on,0,0,1,,,,,,,,,,,,,,,0,,,63,127
49536,note_on,96,0,1,,,,,,,,,,,,,,,0,,,63,0
49536,note_on,0,0,1,,,,,,,,,,,,,,,0,,,70,0
49536,note_on,0,0,1,,,,,,,,,,,,,,,0,,,51,0
49536,note_on,0,0,1,,,,,,,,,,,,,,,0,,,79,0
49536,note_on,0,0,1,,,,,,,,,,,,,,,0,,,58,0
49536,note_on,0,0,1,,,,,,,,,,,,,,,0,,,79,127
49536,note_on,0,0,1,,,,,,,,,,,,,,,0,,,70,127
49536,note_on,0,0,1,,,,,,,,,,,,,,,0,,,52,127
49632,note_on,96,0,1,,,,,,,,,,,,,,,0,,,60,127
49728,note_on,0,0,1,,,,,,,,,,,,,,,0,,,79,127
49728,note_on,0,0,1,,,,,,,,,,,,,,,0,,,53,127
49728,note_on,0,0,1,,,,,,,,,,,,,,,0,,,70,127
49728,note_on,0,0,1,,,,,,,,,,,,,,,0,,,79,0
49728,note_on,96,0,1,,,,,,,,,,,,,,,0,,,52,0
49728,note_on,0,0,1,,,,,,,,,,,,,,,0,,,70,0
49824,note_on,96,0,1,,,,,,,,,,,,,,,0,,,60,0
49824,note_on,0,0,1,,,,,,,,,,,,,,,0,,,65,127
49920,note_on,96,0,1,,,,,,,,,,,,,,,0,,,70,0
49920,note_on,0,0,1,,,,,,,,,,,,,,,0,,,79,0
49920,note_on,0,0,1,,,,,,,,,,,,,,,0,,,68,127
49920,note_on,0,0,1,,,,,,,,,,,,,,,0,,,77,127
49920,note_on,0,0,1,,,,,,,,,,,,,,,0,,,60,127
50016,note_on,96,0,1,,,,,,,,,,,,,,,0,,,65,0
50016,note_on,0,0,1,,,,,,,,,,,,,,,0,,,65,127
50112,note_on,96,0,1,,,,,,,,,,,,,,,0,,,77,0
50112,note_on,0,0,1,,,,,,,,,,,,,,,0,,,60,0
50112,note_on,0,0,1,,,,,,,,,,,,,,,0,,,53,0
50112,note_on,0,0,1,,,,,,,,,,,,,,,0,,,68,0
50112,note_on,0,0,1,,,,,,,,,,,,,,,0,,,77,127
50112,note_on,0,0,1,,,,,,,,,,,,,,,0,,,68,127
50112,note_on,0,0,1,,,,,,,,,,,,,,,0,,,53,127
50208,note_on,0,0,1,,,,,,,,,,,,,,,0,,,65,127
50208,note_on,96,0,1,,,,,,,,,,,,,,,0,,,65,0
50304,note_on,0,0,1,,,,,,,,,,,,,,,0,,,53,0
50304,note_on,0,0,1,,,,,,,,,,,,,,,0,,,68,0
50304,note_on,0,0,1,,,,,,,,,,,,,,,0,,,68,127
50304,note_on,0,0,1,,,,,,,,,,,,,,,0,,,77,127
50304,note_on,0,0,1,,,,,,,,,,,,,,,0,,,48,127
50304,note_on,96,0,1,,,,,,,,,,,,,,,0,,,77,0
50400,note_on,96,0,1,,,,,,,,,,,,,,,0,,,65,0
50400,note_on,0,0,1,,,,,,,,,,,,,,,0,,,60,127
50496,note_on,0,0,1,,,,,,,,,,,,,,,0,,,55,127
50496,note_on,0,0,1,,,,,,,,,,,,,,,0,,,77,0
50496,note_on,0,0,1,,,,,,,,,,,,,,,0,,,67,127
50496,note_on,96,0,1,,,,,,,,,,,,,,,0,,,68,0
50496,note_on,0,0,1,,,,,,,,,,,,,,,0,,,76,127
50592,note_on,96,0,1,,,,,,,,,,,,,,,0,,,60,0
50592,note_on,0,0,1,,,,,,,,,,,,,,,0,,,60,127
50688,note_on,0,0,1,,,,,,,,,,,,,,,0,,,48,127
50688,note_on,0,0,1,,,,,,,,,,,,,,,0,,,72,127
50688,note_on,0,0,1,,,,,,,,,,,,,,,0,,,67,0
50688,note_on,0,0,1,,,,,,,,,,,,,,,0,,,48,0
50688,note_on,96,0,1,,,,,,,,,,,,,,,0,,,76,0
50688,note_on,0,0,1,,,,,,,,,,,,,,,0,,,64,127
50688,note_on,0,0,1,,,,,,,,,,,,,,,0,,,55,0
50784,note_on,0,0,1,,,,,,,,,,,,,,,0,,,60,127
50784,note_on,96,0,1,,,,,,,,,,,,,,,0,,,60,0
50880,note_on,96,0,1,,,,,,,,,,,,,,,0,,,64,0
50880,note_on,0,0,1,,,,,,,,,,,,,,,0,,,48,0
50880,note_on,0,0,1,,,,,,,,,,,,,,,0,,,65,127
50880,note_on,0,0,1,,,,,,,,,,,,,,,0,,,49,127
50976,note_on,96,0,1,,,,,,,,,,,,,,,0,,,60,0
50976,note_on,0,0,1,,,,,,,,,,,,,,,0,,,58,127
51072,note_on,96,0,1,,,,,,,,,,,,,,,0,,,72,0
51072,note_on,0,0,1,,,,,,,,,,,,,,,0,,,65,0
51072,note_on,0,0,1,,,,,,,,,,,,,,,0,,,70,127
51072,note_on,0,0,1,,,,,,,,,,,,,,,0,,,53,127
51168,note_on,96,0,1,,,,,,,,,,,,,,,0,,,58,0
51168,note_on,0,0,1,,,,,,,,,,,,,,,0,,,58,127
51264,note_on,0,0,1,,,,,,,,,,,,,,,0,,,49,127
51264,note_on,0,0,1,,,,,,,,,,,,,,,0,,,67,127
51264,note_on,0,0,1,,,,,,,,,,,,,,,0,,,53,0
51264,note_on,0,0,1,,,,,,,,,,,,,,,0,,,70,0
51264,note_on,0,0,1,,,,,,,,,,,,,,,0,,,77,127
51264,note_on,96,0,1,,,,,,,,,,,,,,,0,,,49,0
51360,note_on,0,0,1,,,,,,,,,,,,,,,0,,,58,127
51360,note_on,96,0,1,,,,,,,,,,,,,,,0,,,58,0
51455,note_on,95,0,1,,,,,,,,,,,,,,,0,,,58,0
51456,note_on,1,0,1,,,,,,,,,,,,,,,0,,,49,0
51456,note_on,0,0,1,,,,,,,,,,,,,,,0,,,67,0
51456,note_on,0,0,1,,,,,,,,,,,,,,,0,,,77,0
51456,note_on,0,0,1,,,,,,,,,,,,,,,0,,,77,127
51456,note_on,0,0,1,,,,,,,,,,,,,,,0,,,48,127
51456,note_on,0,0,1,,,,,,,,,,,,,,,0,,,68,127
51552,note_on,96,0,1,,,,,,,,,,,,,,,0,,,60,127
51648,note_on,96,0,1,,,,,,,,,,,,,,,0,,,68,0
51648,note_on,0,0,1,,,,,,,,,,,,,,,0,,,77,0
51648,note_on,0,0,1,,,,,,,,,,,,,,,0,,,76,127
51648,note_on,0,0,1,,,,,,,,,,,,,,,0,,,67,127
51648,note_on,0,0,1,,,,,,,,,,,,,,,0,,,55,127
51744,note_on,0,0,1,,,,,,,,,,,,,,,0,,,60,127
51744,note_on,0,0,1,,,,,,,,,,,,,,,0,,,60,0
51744,note_on,96,0,1,,,,,,,,,,,,,,,0,,,76,0
51744,note_on,0,0,1,,,,,,,,,,,,,,,0,,,77,127
51840,note_on,0,0,1,,,,,,,,,,,,,,,0,,,55,0
51840,note_on,0,0,1,,,,,,,,,,,,,,,0,,,67,0
51840,note_on,0,0,1,,,,,,,,,,,,,,,0,,,79,127
51840,note_on,0,0,1,,,,,,,,,,,,,,,0,,,72,127
51840,note_on,0,0,1,,,,,,,,,,,,,,,0,,,48,127
51840,note_on,96,0,1,,,,,,,,,,,,,,,0,,,77,0
51840,note_on,0,0,1,,,,,,,,,,,,,,,0,,,48,0
51936,note_on,96,0,1,,,,,,,,,,,,,,,0,,,60,0
51936,note_on,0,0,1,,,,,,,,,,,,,,,0,,,60,127
52031,note_on,95,0,1,,,,,,,,,,,,,,,0,,,60,0
52032,note_on,0,0,1,,,,,,,,,,,,,,,0,,,72,127
52032,note_on,0,0,1,,,,,,,,,,,,,,,0,,,49,127
52032,note_on,0,0,1,,,,,,,,,,,,,,,0,,,72,0
52032,note_on,1,0,1,,,,,,,,,,,,,,,0,,,48,0
52128,note_on,96,0,1,,,,,,,,,,,,,,,0,,,58,127
52224,note_on,96,0,1,,,,,,,,,,,,,,,0,,,72,0
52224,note_on,0,0,1,,,,,,,,,,,,,,,0,,,53,127
52224,note_on,0,0,1,,,,,,,,,,,,,,,0,,,70,127
52320,note_on,0,0,1,,,,,,,,,,,,,,,0,,,58,127
52320,note_on,96,0,1,,,,,,,,,,,,,,,0,,,58,0
52416,note_on,0,0,1,,,,,,,,,,,,,,,0,,,70,0
52416,note_on,0,0,1,,,,,,,,,,,,,,,0,,,79,0
52416,note_on,0,0,1,,,,,,,,,,,,,,,0,,,49,0
52416,note_on,0,0,1,,,,,,,,,,,,,,,0,,,77,127
52416,note_on,0,0,1,,,,,,,,,,,,,,,0,,,67,127
52416,note_on,0,0,1,,,,,,,,,,,,,,,0,,,49,127
52416,note_on,96,0,1,,,,,,,,,,,,,,,0,,,53,0
52512,note_on,96,0,1,,,,,,,,,,,,,,,0,,,58,0
52512,note_on,0,0,1,,,,,,,,,,,,,,,0,,,58,127
52607,note_on,95,0,1,,,,,,,,,,,,,,,0,,,58,0
52608,note_on,0,0,1,,,,,,,,,,,,,,,0,,,48,127
52608,note_on,0,0,1,,,,,,,,,,,,,,,0,,,68,127
52608,note_on,1,0,1,,,,,,,,,,,,,,,0,,,49,0
52608,note_on,0,0,1,,,,,,,,,,,,,,,0,,,77,0
52608,note_on,0,0,1,,,,,,,,,,,,,,,0,,,67,0
52608,note_on,0,0,1,,,,,,,,,,,,,,,0,,,77,127
52704,note_on,96,0,1,,,,,,,,,,,,,,,0,,,60,127
52800,note_on,0,0,1,,,,,,,,,,,,,,,0,,,55,127
52800,note_on,0,0,1,,,,,,,,,,,,,,,0,,,77,0
52800,note_on,0,0,1,,,,,,,,,,,,,,,0,,,72,127
52800,note_on,96,0,1,,,,,,,,,,,,,,,0,,,68,0
52800,note_on,0,0,1,,,,,,,,,,,,,,,0,,,76,127
52896,note_on,0,0,1,,,,,,,,,,,,,,,0,,,77,127
52896,note_on,96,0,1,,,,,,,,,,,,,,,0,,,76,0
52896,note_on,0,0,1,,,,,,,,,,,,,,,0,,,60,0
52896,note_on,0,0,1,,,,,,,,,,,,,,,0,,,60,127
52992,note_on,0,0,1,,,,,,,,,,,,,,,0,,,48,0
52992,note_on,0,0,1,,,,,,,,,,,,,,,0,,,55,0
52992,note_on,0,0,1,,,,,,,,,,,,,,,0,,,72,0
52992,note_on,0,0,1,,,,,,,,,,,,,,,0,,,79,127
52992,note_on,0,0,1,,,,,,,,,,,,,,,0,,,70,127
52992,note_on,96,0,1,,,,,,,,,,,,,,,0,,,77,0
52992,note_on,0,0,1,,,,,,,,,,,,,,,0,,,48,127
53088,note_on,96,0,1,,,,,,,,,,,,,,,0,,,60,0
53088,note_on,0,0,1,,,,,,,,,,,,,,,0,,,60,127
53184,note_on,96,0,1,,,,,,,,,,,,,,,0,,,48,0
53184,note_on,0,0,1,,,,,,,,,,,,,,,0,,,70,0
53184,note_on,0,0,1,,,,,,,,,,,,,,,0,,,68,127
53184,note_on,0,0,1,,,,,,,,,,,,,,,0,,,49,127
53280,note_on,0,0,1,,,,,,,,,,,,,,,0,,,58,127
53280,note_on,96,0,1,,,,,,,,,,,,,,,0,,,60,0
53376,note_on,0,0,1,,,,,,,,,,,,,,,0,,,68,0
53376,note_on,0,0,1,,,,,,,,,,,,,,,0,,,68,127
53376,note_on,0,0,1,,,,,,,,,,,,,,,0,,,77,127
53376,note_on,0,0,1,,,,,,,,,,,,,,,0,,,53,127
53376,note_on,96,0,1,,,,,,,,,,,,,,,0,,,79,0
53472,note_on,96,0,1,,,,,,,,,,,,,,,0,,,58,0
53472,note_on,0,0,1,,,,,,,,,,,,,,,0,,,58,127
53568,note_on,0,0,1,,,,,,,,,,,,,,,0,,,77,127
53568,note_on,0,0,1,,,,,,,,,,,,,,,0,,,49,127
53568,note_on,0,0,1,,,,,,,,,,,,,,,0,,,68,0
53568,note_on,0,0,1,,,,,,,,,,,,,,,0,,,49,0
53568,note_on,0,0,1,,,,,,,,,,,,,,,0,,,53,0
53568,note_on,96,0,1,,,,,,,,,,,,,,,0,,,77,0
53568,note_on,0,0,1,,,,,,,,,,,,,,,0,,,70,127
53664,note_on,96,0,1,,,,,,,,,,,,,,,0,,,58,0
53664,note_on,0,0,1,,,,,,,,,,,,,,,0,,,58,127
53760,note_on,0,0,1,,,,,,,,,,,,,,,0,,,77,127
53760,note_on,0,0,1,,,,,,,,,,,,,,,0,,,68,127
53760,note_on,0,0,1,,,,,,,,,,,,,,,0,,,36,127
53760,note_on,0,0,1,,,,,,,,,,,,,,,0,,,49,0
53760,note_on,0,0,1,,,,,,,,,,,,,,,0,,,77,0
53760,note_on,0,0,1,,,,,,,,,,,,,,,0,,,70,0
53760,note_on,96,0,1,,,,,,,,,,,,,,,0,,,58,0
53952,note_on,192,0,1,,,,,,,,,,,,,,,0,,,77,0
53952,note_on,0,0,1,,,,,,,,,,,,,,,0,,,68,0
53952,note_on,0,0,1,,,,,,,,,,,,,,,0,,,48,127
53952,note_on,0,0,1,,,,,,,,,,,,,,,0,,,67,127
53952,note_on,0,0,1,,,,,,,,,,,,,,,0,,,76,127
54048,note_on,96,0,1,,,,,,,,,,,,,,,0,,,76,0
54048,note_on,0,0,1,,,,,,,,,,,,,,,0,,,77,127
54144,note_on,0,0,1,,,,,,,,,,,,,,,0,,,67,0
54144,note_on,96,0,1,,,,,,,,,,,,,,,0,,,77,0
54144,note_on,0,0,1,,,,,,,,,,,,,,,0,,,79,127
54240,note_on,96,0,1,,,,,,,,,,,,,,,0,,,48,0
54240,note_on,0,0,1,,,,,,,,,,,,,,,0,,,36,0
54324,note_on,84,0,1,,,,,,,,,,,,,,,0,,,79,0
54336,note_on,12,0,1,,,,,,,,,,,,,,,0,,,82,127
54336,note_on,0,0,1,,,,,,,,,,,,,,,0,,,79,127
54432,note_on,96,0,1,,,,,,,,,,,,,,,0,,,82,0
54432,note_on,0,0,1,,,,,,,,,,,,,,,0,,,84,127
54528,note_on,0,0,1,,,,,,,,,,,,,,,0,,,85,127
54528,note_on,96,0,1,,,,,,,,,,,,,,,0,,,84,0
54528,note_on,0,0,1,,,,,,,,,,,,,,,0,,,77,127
54528,note_on,0,0,1,,,,,,,,,,,,,,,0,,,79,0
54624,note_on,96,0,1,,,,,,,,,,,,,,,0,,,80,127
54672,note_on,48,0,1,,,,,,,,,,,,,,,0,,,85,0
54720,note_on,48,0,1,,,,,,,,,,,,,,,0,,,80,0
54720,note_on,0,0,1,,,,,,,,,,,,,,,0,,,77,0
54720,note_on,0,0,1,,,,,,,,,,,,,,,0,,,76,127
54720,note_on,0,0,1,,,,,,,,,,,,,,,0,,,79,127
54816,note_on,96,0,1,,,,,,,,,,,,,,,0,,,79,0
54816,note_on,0,0,1,,,,,,,,,,,,,,,0,,,80,127
54912,note_on,0,0,1,,,,,,,,,,,,,,,0,,,82,127
54912,note_on,96,0,1,,,,,,,,,,,,,,,0,,,80,0
54912,note_on,0,0,1,,,,,,,,,,,,,,,0,,,76,0
54912,note_on,0,0,1,,,,,,,,,,,,,,,0,,,73,127
55008,note_on,96,0,1,,,,,,,,,,,,,,,0,,,77,127
55056,note_on,48,0,1,,,,,,,,,,,,,,,0,,,82,0
55104,note_on,0,0,1,,,,,,,,,,,,,,,0,,,76,127
55104,note_on,0,0,1,,,,,,,,,,,,,,,0,,,73,0
55104,note_on,48,0,1,,,,,,,,,,,,,,,0,,,77,0
55104,note_on,0,0,1,,,,,,,,,,,,,,,0,,,72,127
55200,note_on,96,0,1,,,,,,,,,,,,,,,0,,,76,0
55200,note_on,0,0,1,,,,,,,,,,,,,,,0,,,77,127
55296,note_on,0,0,1,,,,,,,,,,,,,,,0,,,72,0
55296,note_on,0,0,1,,,,,,,,,,,,,,,0,,,70,127
55296,note_on,0,0,1,,,,,,,,,,,,,,,0,,,79,127
55296,note_on,96,0,1,,,,,,,,,,,,,,,0,,,77,0
55392,note_on,96,0,1,,,,,,,,,,,,,,,0,,,73,127
55440,note_on,48,0,1,,,,,,,,,,,,,,,0,,,79,0
55488,note_on,0,0,1,,,,,,,,,,,,,,,0,,,72,127
55488,note_on,48,0,1,,,,,,,,,,,,,,,0,,,73,0
55488,note_on,0,0,1,,,,,,,,,,,,,,,0,,,70,0
55488,note_on,0,0,1,,,,,,,,,,,,,,,0,,,68,127
55584,note_on,96,0,1,,,,,,,,,,,,,,,0,,,72,0
55584,note_on,0,0,1,,,,,,,,,,,,,,,0,,,74,127
55680,note_on,96,0,1,,,,,,,,,,,,,,,0,,,74,0
55680,note_on,0,0,1,,,,,,,,,,,,,,,0,,,68,0
55680,note_on,0,0,1,,,,,,,,,,,,,,,0,,,67,127
55680,note_on,0,0,1,,,,,,,,,,,,,,,0,,,76,127
55776,note_on,96,0,1,,,,,,,,,,,,,,,0,,,70,127
55824,note_on,48,0,1,,,,,,,,,,,,,,,0,,,76,0
55872,note_on,0,0,1,,,,,,,,,,,,,,,0,,,68,127
55872,note_on,0,0,1,,,,,,,,,,,,,,,0,,,65,127
55872,note_on,0,0,1,,,,,,,,,,,,,,,0,,,67,0
55872,note_on,48,0,1,,,,,,,,,,,,,,,0,,,70,0
55968,note_on,96,0,1,,,,,,,,,,,,,,,0,,,68,0
55968,note_on,0,0,1,,,,,,,,,,,,,,,0,,,71,127
56064,note_on,96,0,1,,,,,,,,,,,,,,,0,,,71,0
56064,note_on,0,0,1,,,,,,,,,,,,,,,0,,,65,0
56064,note_on,0,0,1,,,,,,,,,,,,,,,0,,,67,127
56064,note_on,0,0,1,,,,,,,,,,,,,,,0,,,63,127
56160,note_on,96,0,1,,,,,,,,,,,,,,,0,,,72,127
56256,note_on,0,0,1,,,,,,,,,,,,,,,0,,,71,127
56256,note_on,0,0,1,,,,,,,,,,,,,,,0,,,62,127
56256,note_on,96,0,1,,,,,,,,,,,,,,,0,,,72,0
56256,note_on,0,0,1,,,,,,,,,,,,,,,0,,,63,0
56352,note_on,96,0,1,,,,,,,,,,,,,,,0,,,71,0
56352,note_on,0,0,1,,,,,,,,,,,,,,,0,,,72,127
56448,note_on,0,0,1,,,,,,,,,,,,,,,0,,,60,127
56448,note_on,0,0,1,,,,,,,,,,,,,,,0,,,62,0
56448,note_on,0,0,1,,,,,,,,,,,,,,,0,,,67,0
56448,note_on,0,0,1,,,,,,,,,,,,,,,0,,,74,127
56448,note_on,96,0,1,,,,,,,,,,,,,,,0,,,72,0
56544,note_on,96,0,1,,,,,,,,,,,,,,,0,,,74,0
56544,note_on,0,0,1,,,,,,,,,,,,,,,0,,,75,127
56640,note_on,96,0,1,,,,,,,,,,,,,,,0,,,75,0
56640,note_on,0,0,1,,,,,,,,,,,,,,,0,,,60,0
56640,note_on,0,0,1,,,,,,,,,,,,,,,0,,,65,127
56640,note_on,0,0,1,,,,,,,,,,,,,,,0,,,62,127
56736,note_on,96,0,1,,,,,,,,,,,,,,,0,,,77,127
56832,note_on,0,0,1,,,,,,,,,,,,,,,0,,,60,127
56832,note_on,96,0,1,,,,,,,,,,,,,,,0,,,77,0
56832,note_on,0,0,1,,,,,,,,,,,,,,,0,,,62,0
56832,note_on,0,0,1,,,,,,,,,,,,,,,0,,,75,127
56928,note_on,96,0,1,,,,,,,,,,,,,,,0,,,75,0
56928,note_on,0,0,1,,,,,,,,,,,,,,,0,,,74,127
57024,note_on,0,0,1,,,,,,,,,,,,,,,0,,,59,127
57024,note_on,0,0,1,,,,,,,,,,,,,,,0,,,79,127
57024,note_on,0,0,1,,,,,,,,,,,,,,,0,,,60,0
57024,note_on,96,0,1,,,,,,,,,,,,,,,0,,,74,0
57024,note_on,0,0,1,,,,,,,,,,,,,,,0,,,65,0
57120,note_on,96,0,1,,,,,,,,,,,,,,,0,,,79,0
57120,note_on,0,0,1,,,,,,,,,,,,,,,0,,,77,127
57216,note_on,96,0,1,,,,,,,,,,,,,,,0,,,77,0
57216,note_on,0,0,1,,,,,,,,,,,,,,,0,,,59,0
57216,note_on,0,0,1,,,,,,,,,,,,,,,0,,,48,127
57216,note_on,0,0,1,,,,,,,,,,,,,,,0,,,60,127
57216,note_on,0,0,1,,,,,,,,,,,,,,,0,,,75,127
57312,note_on,0,0,1,,,,,,,,,,,,,,,0,,,74,127
57312,note_on,96,0,1,,,,,,,,,,,,,,,0,,,75,0
57408,note_on,0,0,1,,,,,,,,,,,,,,,0,,,48,0
57408,note_on,0,0,1,,,,,,,,,,,,,,,0,,,50,127
57408,note_on,0,0,1,,,,,,,,,,,,,,,0,,,72,127
57408,note_on,96,0,1,,,,,,,,,,,,,,,0,,,74,0
57504,note_on,96,0,1,,,,,,,,,,,,,,,0,,,72,0
57504,note_on,0,0,1,,,,,,,,,,,,,,,0,,,70,127
57600,note_on,0,0,1,,,,,,,,,,,,,,,0,,,68,127
57600,note_on,96,0,1,,,,,,,,,,,,,,,0,,,70,0
57600,note_on,0,0,1,,,,,,,,,,,,,,,0,,,50,0
57600,note_on,0,0,1,,,,,,,,,,,,,,,0,,,51,127
57696,note_on,96,0,1,,,,,,,,,,,,,,,0,,,68,0
57696,note_on,0,0,1,,,,,,,,,,,,,,,0,,,67,127
57792,note_on,0,0,1,,,,,,,,,,,,,,,0,,,51,0
57792,note_on,0,0,1,,,,,,,,,,,,,,,0,,,72,127
57792,note_on,96,0,1,,,,,,,,,,,,,,,0,,,67,0
57792,note_on,0,0,1,,,,,,,,,,,,,,,0,,,53,127
57792,note_on,0,0,1,,,,,,,,,,,,,,,0,,,60,0
57792,note_on,0,0,1,,,,,,,,,,,,,,,0,,,68,127
57888,note_on,0,0,1,,,,,,,,,,,,,,,0,,,67,127
57888,note_on,96,0,1,,,,,,,,,,,,,,,0,,,68,0
57984,note_on,96,0,1,,,,,,,,,,,,,,,0,,,67,0
57984,note_on,0,0,1,,,,,,,,,,,,,,,0,,,53,0
57984,note_on,0,0,1,,,,,,,,,,,,,,,0,,,55,127
57984,note_on,0,0,1,,,,,,,,,,,,,,,0,,,65,127
58080,note_on,96,0,1,,,,,,,,,,,,,,,0,,,65,0
58080,note_on,0,0,1,,,,,,,,,,,,,,,0,,,63,127
58176,note_on,96,0,1,,,,,,,,,,,,,,,0,,,63,0
58176,note_on,0,0,1,,,,,,,,,,,,,,,0,,,55,0
58176,note_on,0,0,1,,,,,,,,,,,,,,,0,,,56,127
58176,note_on,0,0,1,,,,,,,,,,,,,,,0,,,62,127
58272,note_on,96,0,1,,,,,,,,,,,,,,,0,,,62,0
58272,note_on,0,0,1,,,,,,,,,,,,,,,0,,,60,127
58368,note_on,0,0,1,,,,,,,,,,,,,,,0,,,71,127
58368,note_on,0,0,1,,,,,,,,,,,,,,,0,,,67,127
58368,note_on,0,0,1,,,,,,,,,,,,,,,0,,,55,127
58368,note_on,0,0,1,,,,,,,,,,,,,,,0,,,72,0
58368,note_on,0,0,1,,,,,,,,,,,,,,,0,,,56,0
58368,note_on,96,0,1,,,,,,,,,,,,,,,0,,,60,0
58368,note_on,0,0,1,,,,,,,,,,,,,,,0,,,43,127
58464,note_on,96,0,1,,,,,,,,,,,,,,,0,,,67,0
58464,note_on,0,0,1,,,,,,,,,,,,,,,0,,,68,127
58560,note_on,96,0,1,,,,,,,,,,,,,,,0,,,68,0
58560,note_on,0,0,1,,,,,,,,,,,,,,,0,,,67,127
58656,note_on,96,0,1,,,,,,,,,,,,,,,0,,,67,0
58656,note_on,0,0,1,,,,,,,,,,,,,,,0,,,65,127
58752,note_on,96,0,1,,,,,,,,,,,,,,,0,,,65,0
58752,note_on,0,0,1,,,,,,,,,,,,,,,0,,,63,127
58848,note_on,96,0,1,,,,,,,,,,,,,,,0,,,63,0
58848,note_on,0,0,1,,,,,,,,,,,,,,,0,,,62,127
58944,note_on,0,0,1,,,,,,,,,,,,,,,0,,,60,127
58944,note_on,0,0,1,,,,,,,,,,,,,,,0,,,44,127
58944,note_on,0,0,1,,,,,,,,,,,,,,,0,,,72,127
58944,note_on,0,0,1,,,,,,,,,,,,,,,0,,,43,0
58944,note_on,0,0,1,,,,,,,,,,,,,,,0,,,55,0
58944,note_on,0,0,1,,,,,,,,,,,,,,,0,,,71,0
58944,note_on,96,0,1,,,,,,,,,,,,,,,0,,,62,0
58944,note_on,0,0,1,,,,,,,,,,,,,,,0,,,53,127
59040,note_on,96,0,1,,,,,,,,,,,,,,,0,,,60,0
59040,note_on,0,0,1,,,,,,,,,,,,,,,0,,,62,127
59136,note_on,0,0,1,,,,,,,,,,,,,,,0,,,63,127
59136,note_on,96,0,1,,,,,,,,,,,,,,,0,,,62,0
59232,note_on,96,0,1,,,,,,,,,,,,,,,0,,,63,0
59232,note_on,0,0,1,,,,,,,,,,,,,,,0,,,65,127
59328,note_on,96,0,1,,,,,,,,,,,,,,,0,,,65,0
59328,note_on,0,0,1,,,,,,,,,,,,,,,0,,,67,127
59424,note_on,96,0,1,,,,,,,,,,,,,,,0,,,67,0
59424,note_on,0,0,1,,,,,,,,,,,,,,,0,,,68,127
59520,note_on,0,0,1,,,,,,,,,,,,,,,0,,,67,127
59520,note_on,0,0,1,,,,,,,,,,,,,,,0,,,55,127
59520,note_on,0,0,1,,,,,,,,,,,,,,,0,,,71,127
59520,note_on,0,0,1,,,,,,,,,,,,,,,0,,,53,0
59520,note_on,0,0,1,,,,,,,,,,,,,,,0,,,44,0
59520,note_on,0,0,1,,,,,,,,,,,,,,,0,,,72,0
59520,note_on,96,0,1,,,,,,,,,,,,,,,0,,,68,0
59520,note_on,0,0,1,,,,,,,,,,,,,,,0,,,43,127
59616,note_on,96,0,1,,,,,,,,,,,,,,,0,,,67,0
59616,note_on,0,0,1,,,,,,,,,,,,,,,0,,,68,127
59712,note_on,96,0,1,,,,,,,,,,,,,,,0,,,68,0
59712,note_on,0,0,1,,,,,,,,,,,,,,,0,,,67,127
59808,note_on,0,0,1,,,,,,,,,,,,,,,0,,,65,127
59808,note_on,96,0,1,,,,,,,,,,,,,,,0,,,67,0
59904,note_on,96,0,1,,,,,,,,,,,,,,,0,,,65,0
59904,note_on,0,0,1,,,,,,,,,,,,,,,0,,,63,127
60000,note_on,0,0,1,,,,,,,,,,,,,,,0,,,62,127
60000,note_on,96,0,1,,,,,,,,,,,,,,,0,,,63,0
60096,note_on,96,0,1,,,,,,,,,,,,,,,0,,,62,0
60096,note_on,0,0,1,,,,,,,,,,,,,,,0,,,71,0
60096,note_on,0,0,1,,,,,,,,,,,,,,,0,,,55,0
60096,note_on,0,0,1,,,,,,,,,,,,,,,0,,,43,0
60096,note_on,0,0,1,,,,,,,,,,,,,,,0,,,53,127
60096,note_on,0,0,1,,,,,,,,,,,,,,,0,,,44,127
60096,note_on,0,0,1,,,,,,,,,,,,,,,0,,,60,127
60096,note_on,0,0,1,,,,,,,,,,,,,,,0,,,72,127
60192,note_on,96,0,1,,,,,,,,,,,,,,,0,,,60,0
60192,note_on,0,0,1,,,,,,,,,,,,,,,0,,,62,127
60288,note_on,0,0,1,,,,,,,,,,,,,,,0,,,63,127
60288,note_on,96,0,1,,,,,,,,,,,,,,,0,,,62,0
60384,note_on,96,0,1,,,,,,,,,,,,,,,0,,,63,0
60384,note_on,0,0,1,,,,,,,,,,,,,,,0,,,65,127
60480,note_on,96,0,1,,,,,,,,,,,,,,,0,,,65,0
60480,note_on,0,0,1,,,,,,,,,,,,,,,0,,,67,127
60576,note_on,0,0,1,,,,,,,,,,,,,,,0,,,66,127
60576,note_on,96,0,1,,,,,,,,,,,,,,,0,,,67,0
60672,note_on,96,0,1,,,,,,,,,,,,,,,0,,,66,0
60672,note_on,0,0,1,,,,,,,,,,,,,,,0,,,53,0
60672,note_on,0,0,1,,,,,,,,,,,,,,,0,,,44,0
60672,note_on,0,0,1,,,,,,,,,,,,,,,0,,,55,127
60672,note_on,0,0,1,,,,,,,,,,,,,,,0,,,43,127
60672,note_on,0,0,1,,,,,,,,,,,,,,,0,,,67,127
60864,note_on,192,0,1,,,,,,,,,,,,,,,0,,,72,0
60864,note_on,0,0,1,,,,,,,,,,,,,,,0,,,71,127
60960,note_on,96,0,1,,,,,,,,,,,,,,,0,,,71,0
60960,note_on,0,0,1,,,,,,,,,,,,,,,0,,,72,127
61056,note_on,96,0,1,,,,,,,,,,,,,,,0,,,72,0
61056,note_on,0,0,1,,,,,,,,,,,,,,,0,,,74,127
61132,note_on,76,0,1,,,,,,,,,,,,,,,0,,,43,0
61152,note_on,20,0,1,,,,,,,,,,,,,,,0,,,67,0
61152,note_on,0,0,1,,,,,,,,,,,,,,,0,,,55,0
61236,note_on,84,0,1,,,,,,,,,,,,,,,0,,,74,0
61248,note_on,12,0,1,,,,,,,,,,,,,,,0,,,67,127
61248,note_on,0,0,1,,,,,,,,,,,,,,,0,,,71,127
61344,note_on,96,0,1,,,,,,,,,,,,,,,0,,,71,0
61344,note_on,0,0,1,,,,,,,,,,,,,,,0,,,67,0
61344,note_on,0,0,1,,,,,,,,,,,,,,,0,,,72,127
61344,note_on,0,0,1,,,,,,,,,,,,,,,0,,,65,127
61440,note_on,96,0,1,,,,,,,,,,,,,,,0,,,65,0
61440,note_on,0,0,1,,,,,,,,,,,,,,,0,,,72,0
61440,note_on,0,0,1,,,,,,,,,,,,,,,0,,,64,127
61440,note_on,0,0,1,,,,,,,,,,,,,,,0,,,74,127
61536,note_on,96,0,1,,,,,,,,,,,,,,,0,,,74,0
61536,note_on,0,0,1,,,,,,,,,,,,,,,0,,,64,0
61536,note_on,0,0,1,,,,,,,,,,,,,,,0,,,76,127
61536,note_on,0,0,1,,,,,,,,,,,,,,,0,,,62,127
61632,note_on,0,0,1,,,,,,,,,,,,,,,0,,,60,127
61632,note_on,96,0,1,,,,,,,,,,,,,,,0,,,62,0
61632,note_on,0,0,1,,,,,,,,,,,,,,,0,,,76,0
61632,note_on,0,0,1,,,,,,,,,,,,,,,0,,,77,127
61728,note_on,0,0,1,,,,,,,,,,,,,,,0,,,79,127
61728,note_on,0,0,1,,,,,,,,,,,,,,,0,,,59,127
61728,note_on,0,0,1,,,,,,,,,,,,,,,0,,,77,0
61728,note_on,96,0,1,,,,,,,,,,,,,,,0,,,60,0
61824,note_on,96,0,1,,,,,,,,,,,,,,,0,,,59,0
61824,note_on,0,0,1,,,,,,,,,,,,,,,0,,,79,0
61824,note_on,0,0,1,,,,,,,,,,,,,,,0,,,76,127
61824,note_on,0,0,1,,,,,,,,,,,,,,,0,,,60,127
61920,note_on,96,0,1,,,,,,,,,,,,,,,0,,,60,0
61920,note_on,0,0,1,,,,,,,,,,,,,,,0,,,76,0
61920,note_on,0,0,1,,,,,,,,,,,,,,,0,,,77,127
61920,note_on,0,0,1,,,,,,,,,,,,,,,0,,,59,127
62016,note_on,96,0,1,,,,,,,,,,,,,,,0,,,59,0
62016,note_on,0,0,1,,,,,,,,,,,,,,,0,,,77,0
62016,note_on,0,0,1,,,,,,,,,,,,,,,0,,,79,127
62016,note_on,0,0,1,,,,,,,,,,,,,,,0,,,57,127
62112,note_on,0,0,1,,,,,,,,,,,,,,,0,,,55,127
62112,note_on,96,0,1,,,,,,,,,,,,,,,0,,,57,0
62112,note_on,0,0,1,,,,,,,,,,,,,,,0,,,79,0
62112,note_on,0,0,1,,,,,,,,,,,,,,,0,,,81,127
62208,note_on,0,0,1,,,,,,,,,,,,,,,0,,,83,127
62208,note_on,0,0,1,,,,,,,,,,,,,,,0,,,53,127
62208,note_on,96,0,1,,,,,,,,,,,,,,,0,,,55,0
62208,note_on,0,0,1,,,,,,,,,,,,,,,0,,,81,0
62304,note_on,96,0,1,,,,,,,,,,,,,,,0,,,53,0
62304,note_on,0,0,1,,,,,,,,,,,,,,,0,,,83,0
62304,note_on,0,0,1,,,,,,,,,,,,,,,0,,,84,127
62304,note_on,0,0,1,,,,,,,,,,,,,,,0,,,52,127
62376,note_on,72,0,1,,,,,,,,,,,,,,,0,,,52,0
62399,note_on,23,0,1,,,,,,,,,,,,,,,0,,,84,0
62400,note_on,1,0,1,,,,,,,,,,,,,,,0,,,67,127
62400,note_on,0,0,1,,,,,,,,,,,,,,,0,,,71,127
62496,note_on,96,0,1,,,,,,,,,,,,,,,0,,,71,0
62496,note_on,0,0,1,,,,,,,,,,,,,,,0,,,67,0
62496,note_on,0,0,1,,,,,,,,,,,,,,,0,,,65,127
62496,note_on,0,0,1,,,,,,,,,,,,,,,0,,,72,127
62592,note_on,0,0,1,,,,,,,,,,,,,,,0,,,74,127
62592,note_on,0,0,1,,,,,,,,,,,,,,,0,,,65,0
62592,note_on,0,0,1,,,,,,,,,,,,,,,0,,,64,127
62592,note_on,96,0,1,,,,,,,,,,,,,,,0,,,72,0
62688,note_on,0,0,1,,,,,,,,,,,,,,,0,,,62,127
62688,note_on,96,0,1,,,,,,,,,,,,,,,0,,,74,0
62688,note_on,0,0,1,,,,,,,,,,,,,,,0,,,64,0
62688,note_on,0,0,1,,,,,,,,,,,,,,,0,,,76,127
62784,note_on,0,0,1,,,,,,,,,,,,,,,0,,,62,0
62784,note_on,0,0,1,,,,,,,,,,,,,,,0,,,60,127
62784,note_on,0,0,1,,,,,,,,,,,,,,,0,,,77,127
62784,note_on,96,0,1,,,,,,,,,,,,,,,0,,,76,0
62880,note_on,96,0,1,,,,,,,,,,,,,,,0,,,77,0
62880,note_on,0,0,1,,,,,,,,,,,,,,,0,,,60,0
62880,note_on,0,0,1,,,,,,,,,,,,,,,0,,,59,127
62880,note_on,0,0,1,,,,,,,,,,,,,,,0,,,79,127
62976,note_on,0,0,1,,,,,,,,,,,,,,,0,,,76,127
62976,note_on,0,0,1,,,,,,,,,,,,,,,0,,,59,0
62976,note_on,0,0,1,,,,,,,,,,,,,,,0,,,60,127
62976,note_on,96,0,1,,,,,,,,,,,,,,,0,,,79,0
63072,note_on,96,0,1,,,,,,,,,,,,,,,0,,,76,0
63072,note_on,0,0,1,,,,,,,,,,,,,,,0,,,60,0
63072,note_on,0,0,1,,,,,,,,,,,,,,,0,,,59,127
63072,note_on,0,0,1,,,,,,,,,,,,,,,0,,,77,127
63168,note_on,0,0,1,,,,,,,,,,,,,,,0,,,79,127
63168,note_on,0,0,1,,,,,,,,,,,,,,,0,,,57,127
63168,note_on,96,0,1,,,,,,,,,,,,,,,0,,,77,0
63168,note_on,0,0,1,,,,,,,,,,,,,,,0,,,59,0
63264,note_on,96,0,1,,,,,,,,,,,,,,,0,,,79,0
63264,note_on,0,0,1,,,,,,,,,,,,,,,0,,,57,0
63264,note_on,0,0,1,,,,,,,,,,,,,,,0,,,55,127
63264,note_on,0,0,1,,,,,,,,,,,,,,,0,,,81,127
63360,note_on,96,0,1,,,,,,,,,,,,,,,0,,,81,0
63360,note_on,0,0,1,,,,,,,,,,,,,,,0,,,55,0
63360,note_on,0,0,1,,,,,,,,,,,,,,,0,,,53,127
63360,note_on,0,0,1,,,,,,,,,,,,,,,0,,,83,127
63456,note_on,0,0,1,,,,,,,,,,,,,,,0,,,84,127
63456,note_on,0,0,1,,,,,,,,,,,,,,,0,,,53,0
63456,note_on,96,0,1,,,,,,,,,,,,,,,0,,,83,0
63456,note_on,0,0,1,,,,,,,,,,,,,,,0,,,52,127
63552,note_on,96,0,1,,,,,,,,,,,,,,,0,,,84,0
63552,note_on,0,0,1,,,,,,,,,,,,,,,0,,,52,0
63552,note_on,0,0,1,,,,,,,,,,,,,,,0,,,81,127
63552,note_on,0,0,1,,,,,,,,,,,,,,,0,,,53,127
63648,note_on,0,0,1,,,,,,,,,,,,,,,0,,,52,127
63648,note_on,0,0,1,,,,,,,,,,,,,,,0,,,81,0
63648,note_on,96,0,1,,,,,,,,,,,,,,,0,,,53,0
63648,note_on,0,0,1,,,,,,,,,,,,,,,0,,,83,127
63744,note_on,0,0,1,,,,,,,,,,,,,,,0,,,50,127
63744,note_on,96,0,1,,,,,,,,,,,,,,,0,,,52,0
63744,note_on,0,0,1,,,,,,,,,,,,,,,0,,,84,127
63744,note_on,0,0,1,,,,,,,,,,,,,,,0,,,83,0
63840,note_on,96,0,1,,,,,,,,,,,,,,,0,,,50,0
63840,note_on,0,0,1,,,,,,,,,,,,,,,0,,,84,0
63840,note_on,0,0,1,,,,,,,,,,,,,,,0,,,48,127
63840,note_on,0,0,1,,,,,,,,,,,,,,,0,,,86,127
63936,note_on,96,0,1,,,,,,,,,,,,,,,0,,,86,0
63936,note_on,0,0,1,,,,,,,,,,,,,,,0,,,48,0
63936,note_on,0,0,1,,,,,,,,,,,,,,,0,,,88,127
63936,note_on,0,0,1,,,,,,,,,,,,,,,0,,,47,127
64032,note_on,96,0,1,,,,,,,,,,,,,,,0,,,47,0
64032,note_on,0,0,1,,,,,,,,,,,,,,,0,,,88,0
64032,note_on,0,0,1,,,,,,,,,,,,,,,0,,,89,127
64032,note_on,0,0,1,,,,,,,,,,,,,,,0,,,45,127
64128,note_on,0,0,1,,,,,,,,,,,,,,,0,,,43,127
64128,note_on,96,0,1,,,,,,,,,,,,,,,0,,,45,0
64128,note_on,0,0,1,,,,,,,,,,,,,,,0,,,79,127
64224,note_on,96,0,1,,,,,,,,,,,,,,,0,,,89,0
64224,note_on,0,0,1,,,,,,,,,,,,,,,0,,,89,127
64320,note_on,96,0,1,,,,,,,,,,,,,,,0,,,89,0
64320,note_on,0,0,1,,,,,,,,,,,,,,,0,,,88,127
64416,note_on,96,0,1,,,,,,,,,,,,,,,0,,,88,0
64416,note_on,0,0,1,,,,,,,,,,,,,,,0,,,86,127
64511,note_on,95,0,1,,,,,,,,,,,,,,,0,,,79,0
64512,note_on,1,0,1,,,,,,,,,,,,,,,0,,,86,0
64512,note_on,0,0,1,,,,,,,,,,,,,,,0,,,43,0
64512,note_on,0,0,1,,,,,,,,,,,,,,,0,,,88,127
64512,note_on,0,0,1,,,,,,,,,,,,,,,0,,,48,127
64608,note_on,96,0,1,,,,,,,,,,,,,,,0,,,88,0
64608,note_on,0,0,1,,,,,,,,,,,,,,,0,,,84,127
64704,note_on,96,0,1,,,,,,,,,,,,,,,0,,,84,0
64704,note_on,0,0,1,,,,,,,,,,,,,,,0,,,48,0
64704,note_on,0,0,1,,,,,,,,,,,,,,,0,,,77,127
64704,note_on,0,0,1,,,,,,,,,,,,,,,0,,,53,127
64800,note_on,96,0,1,,,,,,,,,,,,,,,0,,,86,127
64896,note_on,0,0,1,,,,,,,,,,,,,,,0,,,76,127
64896,note_on,96,0,1,,,,,,,,,,,,,,,0,,,53,0
64896,note_on,0,0,1,,,,,,,,,,,,,,,0,,,77,0
64896,note_on,0,0,1,,,,,,,,,,,,,,,0,,,55,127
64992,note_on,0,0,1,,,,,,,,,,,,,,,0,,,84,127
64992,note_on,96,0,1,,,,,,,,,,,,,,,0,,,86,0
65088,note_on,0,0,1,,,,,,,,,,,,,,,0,,,74,127
65088,note_on,0,0,1,,,,,,,,,,,,,,,0,,,43,127
65088,note_on,96,0,1,,,,,,,,,,,,,,,0,,,55,0
65088,note_on,0,0,1,,,,,,,,,,,,,,,0,,,76,0
65184,note_on,96,0,1,,,,,,,,,,,,,,,0,,,84,0
65184,note_on,0,0,1,,,,,,,,,,,,,,,0,,,83,127
65280,note_on,96,0,1,,,,,,,,,,,,,,,0,,,83,0
65280,note_on,0,0,1,,,,,,,,,,,,,,,0,,,74,0
65280,note_on,0,0,1,,,,,,,,,,,,,,,0,,,84,127
65280,note_on,0,0,1,,,,,,,,,,,,,,,0,,,36,127
65280,note_on,0,0,1,,,,,,,,,,,,,,,0,,,43,0
65376,note_on,96,0,1,,,,,,,,,,,,,,,0,,,79,127
65472,note_on,96,0,1,,,,,,,,,,,,,,,0,,,79,0
65472,note_on,0,0,1,,,,,,,,,,,,,,,0,,,76,127
65568,note_on,0,0,1,,,,,,,,,,,,,,,0,,,79,127
65568,note_on,96,0,1,,,,,,,,,,,,,,,0,,,76,0
65664,note_on,0,0,1,,,,,,,,,,,,,,,0,,,36,0
65664,note_on,0,0,1,,,,,,,,,,,,,,,0,,,72,127
65664,note_on,96,0,1,,,,,,,,,,,,,,,0,,,79,0
65760,note_on,96,0,1,,,,,,,,,,,,,,,0,,,72,0
65760,note_on,0,0,1,,,,,,,,,,,,,,,0,,,81,127
65808,note_on,48,0,1,,,,,,,,,,,,,,,0,,,84,0
65856,note_on,48,0,1,,,,,,,,,,,,,,,0,,,81,0
65856,note_on,0,0,1,,,,,,,,,,,,,,,0,,,67,127
65856,note_on,0,0,1,,,,,,,,,,,,,,,0,,,71,127
65952,note_on,0,0,1,,,,,,,,,,,,,,,0,,,72,127
65952,note_on,0,0,1,,,,,,,,,,,,,,,0,,,67,0
65952,note_on,96,0,1,,,,,,,,,,,,,,,0,,,71,0
65952,note_on,0,0,1,,,,,,,,,,,,,,,0,,,65,127
66048,note_on,96,0,1,,,,,,,,,,,,,,,0,,,72,0
66048,note_on,0,0,1,,,,,,,,,,,,,,,0,,,65,0
66048,note_on,0,0,1,,,,,,,,,,,,,,,0,,,64,127
66048,note_on,0,0,1,,,,,,,,,,,,,,,0,,,74,127
66144,note_on,0,0,1,,,,,,,,,,,,,,,0,,,76,127
66144,note_on,0,0,1,,,,,,,,,,,,,,,0,,,62,127
66144,note_on,0,0,1,,,,,,,,,,,,,,,0,,,64,0
66144,note_on,96,0,1,,,,,,,,,,,,,,,0,,,74,0
66240,note_on,0,0,1,,,,,,,,,,,,,,,0,,,77,127
66240,note_on,96,0,1,,,,,,,,,,,,,,,0,,,76,0
66240,note_on,0,0,1,,,,,,,,,,,,,,,0,,,62,0
66240,note_on,0,0,1,,,,,,,,,,,,,,,0,,,60,127
66336,note_on,96,0,1,,,,,,,,,,,,,,,0,,,77,0
66336,note_on,0,0,1,,,,,,,,,,,,,,,0,,,60,0
66336,note_on,0,0,1,,,,,,,,,,,,,,,0,,,59,127
66336,note_on,0,0,1,,,,,,,,,,,,,,,0,,,79,127
66432,note_on,0,0,1,,,,,,,,,,,,,,,0,,,59,0
66432,note_on,0,0,1,,,,,,,,,,,,,,,0,,,60,127
66432,note_on,0,0,1,,,,,,,,,,,,,,,0,,,76,127
66432,note_on,96,0,1,,,,,,,,,,,,,,,0,,,79,0
66528,note_on,96,0,1,,,,,,,,,,,,,,,0,,,76,0
66528,note_on,0,0,1,,,,,,,,,,,,,,,0,,,60,0
66528,note_on,0,0,1,,,,,,,,,,,,,,,0,,,59,127
66528,note_on,0,0,1,,,,,,,,,,,,,,,0,,,77,127
66624,note_on,0,0,1,,,,,,,,,,,,,,,0,,,79,127
66624,note_on,0,0,1,,,,,,,,,,,,,,,0,,,59,0
66624,note_on,0,0,1,,,,,,,,,,,,,,,0,,,57,127
66624,note_on,96,0,1,,,,,,,,,,,,,,,0,,,77,0
66720,note_on,96,0,1,,,,,,,,,,,,,,,0,,,79,0
66720,note_on,0,0,1,,,,,,,,,,,,,,,0,,,57,0
66720,note_on,0,0,1,,,,,,,,,,,,,,,0,,,55,127
66720,note_on,0,0,1,,,,,,,,,,,,,,,0,,,81,127
66816,note_on,96,0,1,,,,,,,,,,,,,,,0,,,81,0
66816,note_on,0,0,1,,,,,,,,,,,,,,,0,,,55,0
66816,note_on,0,0,1,,,,,,,,,,,,,,,0,,,53,127
66816,note_on,0,0,1,,,,,,,,,,,,,,,0,,,83,127
66912,note_on,0,0,1,,,,,,,,,,,,,,,0,,,84,127
66912,note_on,96,0,1,,,,,,,,,,,,,,,0,,,83,0
66912,note_on,0,0,1,,,,,,,,,,,,,,,0,,,53,0
66912,note_on,0,0,1,,,,,,,,,,,,,,,0,,,52,127
66984,note_on,72,0,1,,,,,,,,,,,,,,,0,,,52,0
67007,note_on,23,0,1,,,,,,,,,,,,,,,0,,,84,0
67008,note_on,1,0,1,,,,,,,,,,,,,,,0,,,67,127
67008,note_on,0,0,1,,,,,,,,,,,,,,,0,,,71,127
67104,note_on,0,0,1,,,,,,,,,,,,,,,0,,,72,127
67104,note_on,0,0,1,,,,,,,,,,,,,,,0,,,67,0
67104,note_on,96,0,1,,,,,,,,,,,,,,,0,,,71,0
67104,note_on,0,0,1,,,,,,,,,,,,,,,0,,,65,127
67200,note_on,0,0,1,,,,,,,,,,,,,,,0,,,74,127
67200,note_on,96,0,1,,,,,,,,,,,,,,,0,,,72,0
67200,note_on,0,0,1,,,,,,,,,,,,,,,0,,,64,127
67200,note_on,0,0,1,,,,,,,,,,,,,,,0,,,65,0
67296,note_on,0,0,1,,,,,,,,,,,,,,,0,,,76,127
67296,note_on,96,0,1,,,,,,,,,,,,,,,0,,,74,0
67296,note_on,0,0,1,,,,,,,,,,,,,,,0,,,62,127
67296,note_on,0,0,1,,,,,,,,,,,,,,,0,,,64,0
67392,note_on,0,0,1,,,,,,,,,,,,,,,0,,,77,127
67392,note_on,96,0,1,,,,,,,,,,,,,,,0,,,76,0
67392,note_on,0,0,1,,,,,,,,,,,,,,,0,,,62,0
67392,note_on,0,0,1,,,,,,,,,,,,,,,0,,,60,127
67488,note_on,96,0,1,,,,,,,,,,,,,,,0,,,77,0
67488,note_on,0,0,1,,,,,,,,,,,,,,,0,,,60,0
67488,note_on,0,0,1,,,,,,,,,,,,,,,0,,,59,127
67488,note_on,0,0,1,,,,,,,,,,,,,,,0,,,79,127
67584,note_on,96,0,1,,,,,,,,,,,,,,,0,,,79,0
67584,note_on,0,0,1,,,,,,,,,,,,,,,0,,,59,0
67584,note_on,0,0,1,,,,,,,,,,,,,,,0,,,60,127
67584,note_on,0,0,1,,,,,,,,,,,,,,,0,,,76,127
67680,note_on,96,0,1,,,,,,,,,,,,,,,0,,,76,0
67680,note_on,0,0,1,,,,,,,,,,,,,,,0,,,60,0
67680,note_on,0,0,1,,,,,,,,,,,,,,,0,,,59,127
67680,note_on,0,0,1,,,,,,,,,,,,,,,0,,,77,127
67776,note_on,0,0,1,,,,,,,,,,,,,,,0,,,79,127
67776,note_on,0,0,1,,,,,,,,,,,,,,,0,,,59,0
67776,note_on,0,0,1,,,,,,,,,,,,,,,0,,,57,127
67776,note_on,96,0,1,,,,,,,,,,,,,,,0,,,77,0
67872,note_on,0,0,1,,,,,,,,,,,,,,,0,,,57,0
67872,note_on,96,0,1,,,,,,,,,,,,,,,0,,,79,0
67872,note_on,0,0,1,,,,,,,,,,,,,,,0,,,55,127
67872,note_on,0,0,1,,,,,,,,,,,,,,,0,,,81,127
67968,note_on,96,0,1,,,,,,,,,,,,,,,0,,,81,0
67968,note_on,0,0,1,,,,,,,,,,,,,,,0,,,55,0
67968,note_on,0,0,1,,,,,,,,,,,,,,,0,,,53,127
67968,note_on,0,0,1,,,,,,,,,,,,,,,0,,,83,127
68064,note_on,0,0,1,,,,,,,,,,,,,,,0,,,84,127
68064,note_on,96,0,1,,,,,,,,,,,,,,,0,,,83,0
68064,note_on,0,0,1,,,,,,,,,,,,,,,0,,,53,0
68064,note_on,0,0,1,,,,,,,,,,,,,,,0,,,52,127
68160,note_on,96,0,1,,,,,,,,,,,,,,,0,,,84,0
68160,note_on,0,0,1,,,,,,,,,,,,,,,0,,,52,0
68160,note_on,0,0,1,,,,,,,,,,,,,,,0,,,53,127
68160,note_on,0,0,1,,,,,,,,,,,,,,,0,,,81,127
68256,note_on,0,0,1,,,,,,,,,,,,,,,0,,,52,127
68256,note_on,0,0,1,,,,,,,,,,,,,,,0,,,83,127
68256,note_on,96,0,1,,,,,,,,,,,,,,,0,,,81,0
68256,note_on,0,0,1,,,,,,,,,,,,,,,0,,,53,0
68352,note_on,0,0,1,,,,,,,,,,,,,,,0,,,50,127
68352,note_on,96,0,1,,,,,,,,,,,,,,,0,,,52,0
68352,note_on,0,0,1,,,,,,,,,,,,,,,0,,,84,127
68352,note_on,0,0,1,,,,,,,,,,,,,,,0,,,83,0
68448,note_on,96,0,1,,,,,,,,,,,,,,,0,,,50,0
68448,note_on,0,0,1,,,,,,,,,,,,,,,0,,,84,0
68448,note_on,0,0,1,,,,,,,,,,,,,,,0,,,48,127
68448,note_on,0,0,1,,,,,,,,,,,,,,,0,,,86,127
68544,note_on,96,0,1,,,,,,,,,,,,,,,0,,,86,0
68544,note_on,0,0,1,,,,,,,,,,,,,,,0,,,48,0
68544,note_on,0,0,1,,,,,,,,,,,,,,,0,,,47,127
68544,note_on,0,0,1,,,,,,,,,,,,,,,0,,,88,127
68640,note_on,96,0,1,,,,,,,,,,,,,,,0,,,88,0
68640,note_on,0,0,1,,,,,,,,,,,,,,,0,,,47,0
68640,note_on,0,0,1,,,,,,,,,,,,,,,0,,,45,127
68640,note_on,0,0,1,,,,,,,,,,,,,,,0,,,89,127
68736,note_on,0,0,1,,,,,,,,,,,,,,,0,,,43,127
68736,note_on,96,0,1,,,,,,,,,,,,,,,0,,,45,0
68736,note_on,0,0,1,,,,,,,,,,,,,,,0,,,79,127
68832,note_on,96,0,1,,,,,,,,,,,,,,,0,,,89,0
68832,note_on,0,0,1,,,,,,,,,,,,,,,0,,,89,127
68928,note_on,96,0,1,,,,,,,,,,,,,,,0,,,89,0
68928,note_on,0,0,1,,,,,,,,,,,,,,,0,,,88,127
69024,note_on,96,0,1,,,,,,,,,,,,,,,0,,,88,0
69024,note_on,0,0,1,,,,,,,,,,,,,,,0,,,86,127
69120,note_on,96,0,1,,,,,,,,,,,,,,,0,,,86,0
69120,note_on,0,0,1,,,,,,,,,,,,,,,0,,,43,0
69120,note_on,0,0,1,,,,,,,,,,,,,,,0,,,88,127
69120,note_on,0,0,1,,,,,,,,,,,,,,,0,,,48,127
69216,note_on,96,0,1,,,,,,,,,,,,,,,0,,,88,0
69216,note_on,0,0,1,,,,,,,,,,,,,,,0,,,84,127
69311,note_on,95,0,1,,,,,,,,,,,,,,,0,,,79,0
69312,note_on,1,0,1,,,,,,,,,,,,,,,0,,,48,0
69312,note_on,0,0,1,,,,,,,,,,,,,,,0,,,53,127
69312,note_on,0,0,1,,,,,,,,,,,,,,,0,,,77,127
69408,note_on,0,0,1,,,,,,,,,,,,,,,0,,,86,127
69408,note_on,96,0,1,,,,,,,,,,,,,,,0,,,84,0
69504,note_on,0,0,1,,,,,,,,,,,,,,,0,,,53,0
69504,note_on,96,0,1,,,,,,,,,,,,,,,0,,,77,0
69504,note_on,0,0,1,,,,,,,,,,,,,,,0,,,55,127
69504,note_on,0,0,1,,,,,,,,,,,,,,,0,,,76,127
69600,note_on,96,0,1,,,,,,,,,,,,,,,0,,,86,0
69600,note_on,0,0,1,,,,,,,,,,,,,,,0,,,84,127
69696,note_on,96,0,1,,,,,,,,,,,,,,,0,,,76,0
69696,note_on,0,0,1,,,,,,,,,,,,,,,0,,,55,0
69696,note_on,0,0,1,,,,,,,,,,,,,,,0,,,43,127
69696,note_on,0,0,1,,,,,,,,,,,,,,,0,,,74,127
69792,note_on,96,0,1,,,,,,,,,,,,,,,0,,,84,0
69792,note_on,0,0,1,,,,,,,,,,,,,,,0,,,83,127
69888,note_on,0,0,1,,,,,,,,,,,,,,,0,,,84,127
69888,note_on,0,0,1,,,,,,,,,,,,,,,0,,,76,127
69888,note_on,0,0,1,,,,,,,,,,,,,,,0,,,74,0
69888,note_on,0,0,1,,,,,,,,,,,,,,,0,,,43,0
69888,note_on,0,0,1,,,,,,,,,,,,,,,0,,,48,127
69888,note_on,96,0,1,,,,,,,,,,,,,,,0,,,83,0
69984,note_on,96,0,1,,,,,,,,,,,,,,,0,,,71,127
70080,note_on,96,0,1,,,,,,,,,,,,,,,0,,,71,0
70080,note_on,0,0,1,,,,,,,,,,,,,,,0,,,48,0
70080,note_on,0,0,1,,,,,,,,,,,,,,,0,,,72,127
70176,note_on,96,0,1,,,,,,,,,,,,,,,0,,,72,0
70176,note_on,0,0,1,,,,,,,,,,,,,,,0,,,67,127
70272,note_on,0,0,1,,,,,,,,,,,,,,,0,,,69,127
70272,note_on,96,0,1,,,,,,,,,,,,,,,0,,,67,0
70368,note_on,96,0,1,,,,,,,,,,,,,,,0,,,69,0
70368,note_on,0,0,1,,,,,,,,,,,,,,,0,,,64,127
70464,note_on,96,0,1,,,,,,,,,,,,,,,0,,,64,0
70464,note_on,0,0,1,,,,,,,,,,,,,,,0,,,84,0
70464,note_on,0,0,1,,,,,,,,,,,,,,,0,,,76,0
70464,note_on,0,0,1,,,,,,,,,,,,,,,0,,,65,127
70560,note_on,96,0,1,,,,,,,,,,,,,,,0,,,65,0
70560,note_on,0,0,1,,,,,,,,,,,,,,,0,,,69,127
70656,note_on,0,0,1,,,,,,,,,,,,,,,0,,,67,127
70656,note_on,96,0,1,,,,,,,,,,,,,,,0,,,69,0
70656,note_on,0,0,1,,,,,,,,,,,,,,,0,,,86,127
70656,note_on,0,0,1,,,,,,,,,,,,,,,0,,,84,127
70752,note_on,96,0,1,,,,,,,,,,,,,,,0,,,67,0
70752,note_on,0,0,1,,,,,,,,,,,,,,,0,,,65,127
70848,note_on,0,0,1,,,,,,,,,,,,,,,0,,,64,127
70848,note_on,0,0,1,,,,,,,,,,,,,,,0,,,89,127
70848,note_on,96,0,1,,,,,,,,,,,,,,,0,,,65,0
70848,note_on,0,0,1,,,,,,,,,,,,,,,0,,,86,0
70848,note_on,0,0,1,,,,,,,,,,,,,,,0,,,84,0
70848,note_on,0,0,1,,,,,,,,,,,,,,,0,,,83,127
70944,note_on,96,0,1,,,,,,,,,,,,,,,0,,,64,0
70944,note_on,0,0,1,,,,,,,,,,,,,,,0,,,62,127
71040,note_on,96,0,1,,,,,,,,,,,,,,,0,,,62,0
71040,note_on,0,0,1,,,,,,,,,,,,,,,0,,,89,0
71040,note_on,0,0,1,,,,,,,,,,,,,,,0,,,83,0
71040,note_on,0,0,1,,,,,,,,,,,,,,,0,,,60,127
71040,note_on,0,0,1,,,,,,,,,,,,,,,0,,,84,127
71040,note_on,0,0,1,,,,,,,,,,,,,,,0,,,88,127
71136,note_on,96,0,1,,,,,,,,,,,,,,,0,,,60,0
71136,note_on,0,0,1,,,,,,,,,,,,,,,0,,,71,127
71232,note_on,96,0,1,,,,,,,,,,,,,,,0,,,71,0
71232,note_on,0,0,1,,,,,,,,,,,,,,,0,,,72,127
71328,note_on,96,0,1,,,,,,,,,,,,,,,0,,,72,0
71328,note_on,0,0,1,,,,,,,,,,,,,,,0,,,67,127
71424,note_on,0,0,1,,,,,,,,,,,,,,,0,,,69,127
71424,note_on,0,0,1,,,,,,,,,,,,,,,0,,,84,0
71424,note_on,96,0,1,,,,,,,,,,,,,,,0,,,67,0
71424,note_on,0,0,1,,,,,,,,,,,,,,,0,,,88,0
71520,note_on,96,0,1,,,,,,,,,,,,,,,0,,,69,0
71520,note_on,0,0,1,,,,,,,,,,,,,,,0,,,64,127
71615,note_on,95,0,1,,,,,,,,,,,,,,,0,,,65,127
71616,note_on,1,0,1,,,,,,,,,,,,,,,0,,,64,0
71711,note_on,95,0,1,,,,,,,,,,,,,,,0,,,65,0
71712,note_on,1,0,1,,,,,,,,,,,,,,,0,,,69,127
71808,note_on,96,0,1,,,,,,,,,,,,,,,0,,,69,0
71808,note_on,0,0,1,,,,,,,,,,,,,,,0,,,84,127
71808,note_on,0,0,1,,,,,,,,,,,,,,,0,,,86,127
71808,note_on,0,0,1,,,,,,,,,,,,,,,0,,,67,127
71904,note_on,96,0,1,,,,,,,,,,,,,,,0,,,67,0
71904,note_on,0,0,1,,,,,,,,,,,,,,,0,,,65,127
72000,note_on,0,0,1,,,,,,,,,,,,,,,0,,,83,127
72000,note_on,0,0,1,,,,,,,,,,,,,,,0,,,89,127
72000,note_on,0,0,1,,,,,,,,,,,,,,,0,,,84,0
72000,note_on,0,0,1,,,,,,,,,,,,,,,0,,,86,0
72000,note_on,0,0,1,,,,,,,,,,,,,,,0,,,64,127
72000,note_on,96,0,1,,,,,,,,,,,,,,,0,,,65,0
72096,note_on,96,0,1,,,,,,,,,,,,,,,0,,,64,0
72096,note_on,0,0,1,,,,,,,,,,,,,,,0,,,62,127
72192,note_on,0,0,1,,,,,,,,,,,,,,,0,,,88,127
72192,note_on,0,0,1,,,,,,,,,,,,,,,0,,,84,127
72192,note_on,96,0,1,,,,,,,,,,,,,,,0,,,62,0
72192,note_on,0,0,1,,,,,,,,,,,,,,,0,,,89,0
72192,note_on,0,0,1,,,,,,,,,,,,,,,0,,,83,0
72192,note_on,0,0,1,,,,,,,,,,,,,,,0,,,60,127
72288,note_on,96,0,1,,,,,,,,,,,,,,,0,,,60,0
72288,note_on,0,0,1,,,,,,,,,,,,,,,0,,,71,127
72384,note_on,96,0,1,,,,,,,,,,,,,,,0,,,71,0
72384,note_on,0,0,1,,,,,,,,,,,,,,,0,,,72,127
72480,note_on,96,0,1,,,,,,,,,,,,,,,0,,,72,0
72480,note_on,0,0,1,,,,,,,,,,,,,,,0,,,67,127
72576,note_on,96,0,1,,,,,,,,,,,,,,,0,,,67,0
72576,note_on,0,0,1,,,,,,,,,,,,,,,0,,,84,0
72576,note_on,0,0,1,,,,,,,,,,,,,,,0,,,69,127
72576,note_on,0,0,1,,,,,,,,,,,,,,,0,,,88,0
72672,note_on,96,0,1,,,,,,,,,,,,,,,0,,,69,0
72672,note_on,0,0,1,,,,,,,,,,,,,,,0,,,64,127
72768,note_on,96,0,1,,,,,,,,,,,,,,,0,,,64,0
72768,note_on,0,0,1,,,,,,,,,,,,,,,0,,,65,127
72864,note_on,0,0,1,,,,,,,,,,,,,,,0,,,69,127
72864,note_on,96,0,1,,,,,,,,,,,,,,,0,,,65,0
72960,note_on,0,0,1,,,,,,,,,,,,,,,0,,,84,127
72960,note_on,0,0,1,,,,,,,,,,,,,,,0,,,86,127
72960,note_on,0,0,1,,,,,,,,,,,,,,,0,,,67,127
72960,note_on,96,0,1,,,,,,,,,,,,,,,0,,,69,0
73056,note_on,96,0,1,,,,,,,,,,,,,,,0,,,67,0
73056,note_on,0,0,1,,,,,,,,,,,,,,,0,,,65,127
73152,note_on,96,0,1,,,,,,,,,,,,,,,0,,,65,0
73152,note_on,0,0,1,,,,,,,,,,,,,,,0,,,86,0
73152,note_on,0,0,1,,,,,,,,,,,,,,,0,,,84,0
73152,note_on,0,0,1,,,,,,,,,,,,,,,0,,,64,127
73152,note_on,0,0,1,,,,,,,,,,,,,,,0,,,83,127
73152,note_on,0,0,1,,,,,,,,,,,,,,,0,,,89,127
73248,note_on,96,0,1,,,,,,,,,,,,,,,0,,,64,0
73248,note_on,0,0,1,,,,,,,,,,,,,,,0,,,62,127
73344,note_on,0,0,1,,,,,,,,,,,,,,,0,,,48,127
73344,note_on,0,0,1,,,,,,,,,,,,,,,0,,,88,127
73344,note_on,0,0,1,,,,,,,,,,,,,,,0,,,89,0
73344,note_on,96,0,1,,,,,,,,,,,,,,,0,,,62,0
73344,note_on,0,0,1,,,,,,,,,,,,,,,0,,,83,0
73440,note_on,96,0,1,,,,,,,,,,,,,,,0,,,83,127
73536,note_on,0,0,1,,,,,,,,,,,,,,,0,,,88,0
73536,note_on,0,0,1,,,,,,,,,,,,,,,0,,,48,0
73536,note_on,0,0,1,,,,,,,,,,,,,,,0,,,52,127
73536,note_on,0,0,1,,,,,,,,,,,,,,,0,,,84,127
73536,note_on,96,0,1,,,,,,,,,,,,,,,0,,,83,0
73632,note_on,96,0,1,,,,,,,,,,,,,,,0,,,79,127
73728,note_on,0,0,1,,,,,,,,,,,,,,,0,,,84,0
73728,note_on,0,0,1,,,,,,,,,,,,,,,0,,,52,0
73728,note_on,0,0,1,,,,,,,,,,,,,,,0,,,53,127
73728,note_on,0,0,1,,,,,,,,,,,,,,,0,,,81,127
73728,note_on,96,0,1,,,,,,,,,,,,,,,0,,,79,0
73824,note_on,96,0,1,,,,,,,,,,,,,,,0,,,81,0
73824,note_on,0,0,1,,,,,,,,,,,,,,,0,,,76,127
73920,note_on,0,0,1,,,,,,,,,,,,,,,0,,,53,127
73920,note_on,0,0,1,,,,,,,,,,,,,,,0,,,77,127
73920,note_on,0,0,1,,,,,,,,,,,,,,,0,,,53,0
73920,note_on,96,0,1,,,,,,,,,,,,,,,0,,,76,0
74016,note_on,96,0,1,,,,,,,,,,,,,,,0,,,77,0
74016,note_on,0,0,1,,,,,,,,,,,,,,,0,,,81,127
74112,note_on,96,0,1,,,,,,,,,,,,,,,0,,,81,0
74112,note_on,0,0,1,,,,,,,,,,,,,,,0,,,53,0
74112,note_on,0,0,1,,,,,,,,,,,,,,,0,,,79,127
74112,note_on,0,0,1,,,,,,,,,,,,,,,0,,,55,127
74208,note_on,96,0,1,,,,,,,,,,,,,,,0,,,79,0
74208,note_on,0,0,1,,,,,,,,,,,,,,,0,,,77,127
74304,note_on,0,0,1,,,,,,,,,,,,,,,0,,,43,127
74304,note_on,96,0,1,,,,,,,,,,,,,,,0,,,77,0
74304,note_on,0,0,1,,,,,,,,,,,,,,,0,,,55,0
74304,note_on,0,0,1,,,,,,,,,,,,,,,0,,,76,127
74400,note_on,96,0,1,,,,,,,,,,,,,,,0,,,76,0
74400,note_on,0,0,1,,,,,,,,,,,,,,,0,,,74,127
74496,note_on,0,0,1,,,,,,,,,,,,,,,0,,,72,127
74496,note_on,0,0,1,,,,,,,,,,,,,,,0,,,48,127
74496,note_on,96,0,1,,,,,,,,,,,,,,,0,,,74,0
74496,note_on,0,0,1,,,,,,,,,,,,,,,0,,,43,0
74592,note_on,96,0,1,,,,,,,,,,,,,,,0,,,72,0
74592,note_on,0,0,1,,,,,,,,,,,,,,,0,,,71,127
74688,note_on,0,0,1,,,,,,,,,,,,,,,0,,,48,0
74688,note_on,96,0,1,,,,,,,,,,,,,,,0,,,71,0
74688,note_on,0,0,1,,,,,,,,,,,,,,,0,,,52,127
74688,note_on,0,0,1,,,,,,,,,,,,,,,0,,,72,127
74784,note_on,96,0,1,,,,,,,,,,,,,,,0,,,67,127
74880,note_on,96,0,1,,,,,,,,,,,,,,,0,,,67,0
74880,note_on,0,0,1,,,,,,,,,,,,,,,0,,,72,0
74880,note_on,0,0,1,,,,,,,,,,,,,,,0,,,52,0
74880,note_on,0,0,1,,,,,,,,,,,,,,,0,,,53,127
74880,note_on,0,0,1,,,,,,,,,,,,,,,0,,,69,127
74976,note_on,96,0,1,,,,,,,,,,,,,,,0,,,69,0
74976,note_on,0,0,1,,,,,,,,,,,,,,,0,,,64,127
75072,note_on,96,0,1,,,,,,,,,,,,,,,0,,,64,0
75072,note_on,0,0,1,,,,,,,,,,,,,,,0,,,41,127
75072,note_on,0,0,1,,,,,,,,,,,,,,,0,,,65,127
75168,note_on,96,0,1,,,,,,,,,,,,,,,0,,,65,0
75168,note_on,0,0,1,,,,,,,,,,,,,,,0,,,69,127
75264,note_on,0,0,1,,,,,,,,,,,,,,,0,,,43,127
75264,note_on,0,0,1,,,,,,,,,,,,,,,0,,,67,127
75264,note_on,0,0,1,,,,,,,,,,,,,,,0,,,41,0
75264,note_on,96,0,1,,,,,,,,,,,,,,,0,,,69,0
75264,note_on,0,0,1,,,,,,,,,,,,,,,0,,,53,0
75360,note_on,96,0,1,,,,,,,,,,,,,,,0,,,67,0
75360,note_on,0,0,1,,,,,,,,,,,,,,,0,,,65,127
75456,note_on,96,0,1,,,,,,,,,,,,,,,0,,,65,0
75456,note_on,0,0,1,,,,,,,,,,,,,,,0,,,43,0
75456,note_on,0,0,1,,,,,,,,,,,,,,,0,,,43,127
75456,note_on,0,0,1,,,,,,,,,,,,,,,0,,,64,127
75552,note_on,96,0,1,,,,,,,,,,,,,,,0,,,64,0
75552,note_on,0,0,1,,,,,,,,,,,,,,,0,,,62,127
75648,note_on,96,0,1,,,,,,,,,,,,,,,0,,,62,0
75648,note_on,0,0,1,,,,,,,,,,,,,,,0,,,43,0
75648,note_on,0,0,1,,,,,,,,,,,,,,,0,,,60,127
75648,note_on,0,0,1,,,,,,,,,,,,,,,0,,,36,127
75744,note_on,96,0,1,,,,,,,,,,,,,,,0,,,60,0
75744,note_on,0,0,1,,,,,,,,,,,,,,,0,,,59,127
75840,note_on,0,0,1,,,,,,,,,,,,,,,0,,,40,127
75840,note_on,0,0,1,,,,,,,,,,,,,,,0,,,60,127
75840,note_on,96,0,1,,,,,,,,,,,,,,,0,,,59,0
75840,note_on,0,0,1,,,,,,,,,,,,,,,0,,,36,0
75936,note_on,96,0,1,,,,,,,,,,,,,,,0,,,60,0
75936,note_on,0,0,1,,,,,,,,,,,,,,,0,,,55,127
76032,note_on,0,0,1,,,,,,,,,,,,,,,0,,,40,0
76032,note_on,0,0,1,,,,,,,,,,,,,,,0,,,41,127
76032,note_on,0,0,1,,,,,,,,,,,,,,,0,,,57,127
76032,note_on,96,0,1,,,,,,,,,,,,,,,0,,,55,0
76128,note_on,96,0,1,,,,,,,,,,,,,,,0,,,57,0
76128,note_on,0,0,1,,,,,,,,,,,,,,,0,,,52,127
76224,note_on,96,0,1,,,,,,,,,,,,,,,0,,,52,0
76224,note_on,0,0,1,,,,,,,,,,,,,,,0,,,41,0
76224,note_on,0,0,1,,,,,,,,,,,,,,,0,,,41,127
76224,note_on,0,0,1,,,,,,,,,,,,,,,0,,,53,127
76320,note_on,96,0,1,,,,,,,,,,,,,,,0,,,53,0
76320,note_on,0,0,1,,,,,,,,,,,,,,,0,,,57,127
76416,note_on,0,0,1,,,,,,,,,,,,,,,0,,,55,127
76416,note_on,0,0,1,,,,,,,,,,,,,,,0,,,41,0
76416,note_on,0,0,1,,,,,,,,,,,,,,,0,,,43,127
76416,note_on,96,0,1,,,,,,,,,,,,,,,0,,,57,0
76512,note_on,0,0,1,,,,,,,,,,,,,,,0,,,53,127
76512,note_on,96,0,1,,,,,,,,,,,,,,,0,,,55,0
76608,note_on,0,0,1,,,,,,,,,,,,,,,0,,,43,0
76608,note_on,0,0,1,,,,,,,,,,,,,,,0,,,31,127
76608,note_on,0,0,1,,,,,,,,,,,,,,,0,,,52,127
76608,note_on,96,0,1,,,,,,,,,,,,,,,0,,,53,0
76704,note_on,96,0,1,,,,,,,,,,,,,,,0,,,52,0
76704,note_on,0,0,1,,,,,,,,,,,,,,,0,,,50,127
76800,note_on,0,0,1,,,,,,,,,,,,,,,0,,,31,0
76800,note_on,0,0,1,,,,,,,,,,,,,,,0,,,36,127
76800,note_on,0,0,1,,,,,,,,,,,,,,,0,,,48,127
76800,control_change,0,0,1,,,,,,,,,,,,,,,0,121,0,,
76800,note_on,96,0,1,,,,,,,,,,,,,,,0,,,50,0
77952,note_on,1152,0,1,,,,,,,,,,,,,,,0,,,48,0
77952,note_on,0,0,1,,,,,,,,,,,,,,,0,,,36,0
77952,end_of_track,0,1,1,,,,,,,,,,,,,,,,,,,
