tick,type,time,meta,track,frame_rate,hours,minutes,seconds,frames,sub_frames,numerator,denominator,clocks_per_click,notated_32nd_notes_per_beat,key,tempo,port,program,channel,control,value,note,velocity
0,track_name,0,1,0,,,,,,,,,,,,,,,,,,,
0,midi_port,0,1,2,,,,,,,,,,,,,0,,,,,,
0,control_change,0,0,1,,,,,,,,,,,,,,,0,7,100,,
0,control_change,0,0,1,,,,,,,,,,,,,,,0,121,0,,
0,control_change,0,0,1,,,,,,,,,,,,,,,0,7,127,,
0,program_change,0,0,1,,,,,,,,,,,,,,0,0,,,,
0,program_change,0,0,1,,,,,,,,,,,,,,0,0,,,,
0,end_of_track,0,1,2,,,,,,,,,,,,,,,,,,,
0,end_of_track,0,1,0,,,,,,,,,,,,,,,,,,,
0,text,0,1,0,,,,,,,,,,,,,,,,,,,
0,smpte_offset,0,1,0,25,32,0,3,0,0,,,,,,,,,,,,,
0,midi_port,0,1,1,,,,,,,,,,,,,0,,,,,,
0,key_signature,0,1,0,,,,,,,,,,,C,,,,,,,,
0,time_signature,0,1,0,,,,,,,3,8,12,8,,,,,,,,,
0,set_tempo,0,1,0,,,,,,,,,,,,666667,,,,,,,
32,note_on,32,0,1,,,,,,,,,,,,,,,0,,,51,127
224,note_on,192,0,1,,,,,,,,,,,,,,,0,,,82,127
415,note_on,191,0,1,,,,,,,,,,,,,,,0,,,82,0
415,note_on,0,0,1,,,,,,,,,,,,,,,0,,,51,0
416,note_on,0,0,1,,,,,,,,,,,,,,,0,,,75,127
416,note_on,1,0,1,,,,,,,,,,,,,,,0,,,67,127
607,note_on,0,0,1,,,,,,,,,,,,,,,0,,,67,0
607,note_on,191,0,1,,,,,,,,,,,,,,,0,,,75,0
608,note_on,1,0,1,,,,,,,,,,,,,,,0,,,68,127
608,note_on,0,0,1,,,,,,,,,,,,,,,0,,,75,127
799,note_on,0,0,1,,,,,,,,,,,,,,,0,,,68,0
799,note_on,191,0,1,,,,,,,,,,,,,,,0,,,75,0
800,note_on,0,0,1,,,,,,,,,,,,,,,0,,,74,127
800,note_on,1,0,1,,,,,,,,,,,,,,,0,,,70,127
895,note_on,95,0,1,,,,,,,,,,,,,,,0,,,74,0
895,note_on,0,0,1,,,,,,,,,,,,,,,0,,,70,0
896,note_on,1,0,1,,,,,,,,,,,,,,,0,,,68,127
896,note_on,0,0,1,,,,,,,,,,,,,,,0,,,72,127
991,note_on,95,0,1,,,,,,,,,,,,,,,0,,,72,0
991,note_on,0,0,1,,,,,,,,,,,,,,,0,,,68,0
992,note_on,1,0,1,,,,,,,,,,,,,,,0,,,67,127
992,note_on,0,0,1,,,,,,,,,,,,,,,0,,,70,127
1087,note_on,0,0,1,,,,,,,,,,,,,,,0,,,67,0
1087,note_on,95,0,1,,,,,,,,,,,,,,,0,,,70,0
1088,note_on,1,0,1,,,,,,,,,,,,,,,0,,,65,127
1088,note_on,0,0,1,,,,,,,,,,,,,,,0,,,68,127
1183,note_on,95,0,1,,,,,,,,,,,,,,,0,,,68,0
1183,note_on,0,0,1,,,,,,,,,,,,,,,0,,,65,0
1184,note_on,1,0,1,,,,,,,,,,,,,,,0,,,63,127
1184,note_on,0,0,1,,,,,,,,,,,,,,,0,,,67,127
1375,note_on,191,0,1,,,,,,,,,,,,,,,0,,,67,0
1375,note_on,0,0,1,,,,,,,,,,,,,,,0,,,63,0
1376,note_on,1,0,1,,,,,,,,,,,,,,,0,,,65,127
1376,note_on,0,0,1,,,,,,,,,,,,,,,0,,,68,127
1471,note_on,95,0,1,,,,,,,,,,,,,,,0,,,68,0
1472,note_on,1,0,1,,,,,,,,,,,,,,,0,,,67,127
1567,note_on,95,0,1,,,,,,,,,,,,,,,0,,,67,0
1567,note_on,0,0,1,,,,,,,,,,,,,,,0,,,65,0
1568,note_on,1,0,1,,,,,,,,,,,,,,,0,,,62,127
1568,note_on,0,0,1,,,,,,,,,,,,,,,0,,,68,127
1663,note_on,95,0,1,,,,,,,,,,,,,,,0,,,68,0
1664,note_on,1,0,1,,,,,,,,,,,,,,,0,,,70,127
1759,note_on,95,0,1,,,,,,,,,,,,,,,0,,,70,0
1759,note_on,0,0,1,,,,,,,,,,,,,,,0,,,62,0
1760,note_on,1,0,1,,,,,,,,,,,,,,,0,,,63,127
1760,note_on,0,0,1,,,,,,,,,,,,,,,0,,,67,127
1855,note_on,95,0,1,,,,,,,,,,,,,,,0,,,67,0
1856,note_on,1,0,1,,,,,,,,,,,,,,,0,,,65,127
1951,note_on,95,0,1,,,,,,,,,,,,,,,0,,,65,0
1951,note_on,0,0,1,,,,,,,,,,,,,,,0,,,63,0
1952,note_on,0,0,1,,,,,,,,,,,,,,,0,,,63,127
1952,note_on,1,0,1,,,,,,,,,,,,,,,0,,,51,127
2047,note_on,95,0,1,,,,,,,,,,,,,,,0,,,63,0
2048,note_on,1,0,1,,,,,,,,,,,,,,,0,,,62,127
2143,note_on,95,0,1,,,,,,,,,,,,,,,0,,,62,0
2144,note_on,1,0,1,,,,,,,,,,,,,,,0,,,39,127
2144,note_on,0,0,1,,,,,,,,,,,,,,,0,,,63,127
2332,note_on,188,0,1,,,,,,,,,,,,,,,0,,,51,0
2335,note_on,3,0,1,,,,,,,,,,,,,,,0,,,63,0
2335,note_on,0,0,1,,,,,,,,,,,,,,,0,,,39,0
2336,note_on,1,0,1,,,,,,,,,,,,,,,0,,,63,127
2528,note_on,192,0,1,,,,,,,,,,,,,,,0,,,82,127
2719,note_on,0,0,1,,,,,,,,,,,,,,,0,,,63,0
2719,note_on,191,0,1,,,,,,,,,,,,,,,0,,,82,0
2720,note_on,1,0,1,,,,,,,,,,,,,,,0,,,67,127
2720,note_on,0,0,1,,,,,,,,,,,,,,,0,,,75,127
2911,note_on,0,0,1,,,,,,,,,,,,,,,0,,,67,0
2911,note_on,191,0,1,,,,,,,,,,,,,,,0,,,75,0
2912,note_on,0,0,1,,,,,,,,,,,,,,,0,,,67,127
2912,note_on,1,0,1,,,,,,,,,,,,,,,0,,,63,127
3103,note_on,191,0,1,,,,,,,,,,,,,,,0,,,67,0
3103,note_on,0,0,1,,,,,,,,,,,,,,,0,,,63,0
3104,note_on,1,0,1,,,,,,,,,,,,,,,0,,,62,127
3104,note_on,0,0,1,,,,,,,,,,,,,,,0,,,65,127
3295,note_on,191,0,1,,,,,,,,,,,,,,,0,,,65,0
3295,note_on,0,0,1,,,,,,,,,,,,,,,0,,,62,0
3296,note_on,1,0,1,,,,,,,,,,,,,,,0,,,60,127
3296,note_on,0,0,1,,,,,,,,,,,,,,,0,,,63,127
3487,note_on,0,0,1,,,,,,,,,,,,,,,0,,,60,0
3487,note_on,191,0,1,,,,,,,,,,,,,,,0,,,63,0
3488,note_on,1,0,1,,,,,,,,,,,,,,,0,,,58,127
3488,note_on,0,0,1,,,,,,,,,,,,,,,0,,,70,127
3679,note_on,191,0,1,,,,,,,,,,,,,,,0,,,70,0
3680,note_on,1,0,1,,,,,,,,,,,,,,,0,,,70,127
3871,note_on,191,0,1,,,,,,,,,,,,,,,0,,,70,0
3872,note_on,1,0,1,,,,,,,,,,,,,,,0,,,70,127
4063,note_on,191,0,1,,,,,,,,,,,,,,,0,,,70,0
4063,note_on,0,0,1,,,,,,,,,,,,,,,0,,,58,0
4064,note_on,1,0,1,,,,,,,,,,,,,,,0,,,56,127
4064,note_on,0,0,1,,,,,,,,,,,,,,,0,,,70,127
4255,note_on,191,0,1,,,,,,,,,,,,,,,0,,,70,0
4256,note_on,1,0,1,,,,,,,,,,,,,,,0,,,70,127
4447,note_on,191,0,1,,,,,,,,,,,,,,,0,,,70,0
4448,note_on,1,0,1,,,,,,,,,,,,,,,0,,,70,127
4639,note_on,191,0,1,,,,,,,,,,,,,,,0,,,70,0
4639,note_on,0,0,1,,,,,,,,,,,,,,,0,,,56,0
4640,note_on,0,0,1,,,,,,,,,,,,,,,0,,,70,127
4640,note_on,1,0,1,,,,,,,,,,,,,,,0,,,54,127
4735,note_on,95,0,1,,,,,,,,,,,,,,,0,,,70,0
4736,note_on,1,0,1,,,,,,,,,,,,,,,0,,,71,127
4831,note_on,95,0,1,,,,,,,,,,,,,,,0,,,71,0
4832,note_on,1,0,1,,,,,,,,,,,,,,,0,,,73,127
4927,note_on,95,0,1,,,,,,,,,,,,,,,0,,,73,0
4928,note_on,1,0,1,,,,,,,,,,,,,,,0,,,71,127
5023,note_on,95,0,1,,,,,,,,,,,,,,,0,,,71,0
5024,note_on,1,0,1,,,,,,,,,,,,,,,0,,,70,127
5119,note_on,95,0,1,,,,,,,,,,,,,,,0,,,70,0
5120,note_on,1,0,1,,,,,,,,,,,,,,,0,,,68,127
5215,note_on,0,0,1,,,,,,,,,,,,,,,0,,,54,0
5215,note_on,95,0,1,,,,,,,,,,,,,,,0,,,68,0
5216,note_on,1,0,1,,,,,,,,,,,,,,,0,,,54,127
5216,note_on,0,0,1,,,,,,,,,,,,,,,0,,,66,127
5408,note_on,192,0,1,,,,,,,,,,,,,,,0,,,78,127
5503,note_on,95,0,1,,,,,,,,,,,,,,,0,,,78,0
5504,note_on,1,0,1,,,,,,,,,,,,,,,0,,,66,0
5504,note_on,0,0,1,,,,,,,,,,,,,,,0,,,73,127
5599,note_on,95,0,1,,,,,,,,,,,,,,,0,,,73,0
5600,note_on,1,0,1,,,,,,,,,,,,,,,0,,,70,127
5695,note_on,95,0,1,,,,,,,,,,,,,,,0,,,70,0
5696,note_on,1,0,1,,,,,,,,,,,,,,,0,,,66,127
5791,note_on,95,0,1,,,,,,,,,,,,,,,0,,,66,0
5791,note_on,0,0,1,,,,,,,,,,,,,,,0,,,54,0
5792,note_on,0,0,1,,,,,,,,,,,,,,,0,,,73,127
5792,note_on,1,0,1,,,,,,,,,,,,,,,0,,,54,127
5887,note_on,95,0,1,,,,,,,,,,,,,,,0,,,73,0
5888,note_on,1,0,1,,,,,,,,,,,,,,,0,,,70,127
5983,note_on,95,0,1,,,,,,,,,,,,,,,0,,,70,0
5984,note_on,1,0,1,,,,,,,,,,,,,,,0,,,66,127
6079,note_on,95,0,1,,,,,,,,,,,,,,,0,,,66,0
6080,note_on,1,0,1,,,,,,,,,,,,,,,0,,,61,127
6175,note_on,95,0,1,,,,,,,,,,,,,,,0,,,61,0
6175,note_on,0,0,1,,,,,,,,,,,,,,,0,,,54,0
6176,note_on,1,0,1,,,,,,,,,,,,,,,0,,,61,127
6176,note_on,0,0,1,,,,,,,,,,,,,,,0,,,58,127
6176,note_on,0,0,1,,,,,,,,,,,,,,,0,,,66,127
6271,note_on,95,0,1,,,,,,,,,,,,,,,0,,,66,0
6272,note_on,1,0,1,,,,,,,,,,,,,,,0,,,73,127
6367,note_on,0,0,1,,,,,,,,,,,,,,,0,,,58,0
6367,note_on,95,0,1,,,,,,,,,,,,,,,0,,,73,0
6367,note_on,0,0,1,,,,,,,,,,,,,,,0,,,61,0
6368,note_on,0,0,1,,,,,,,,,,,,,,,0,,,56,127
6368,note_on,0,0,1,,,,,,,,,,,,,,,0,,,65,127
6368,note_on,1,0,1,,,,,,,,,,,,,,,0,,,59,127
6559,note_on,191,0,1,,,,,,,,,,,,,,,0,,,65,0
6559,note_on,0,0,1,,,,,,,,,,,,,,,0,,,56,0
6559,note_on,0,0,1,,,,,,,,,,,,,,,0,,,59,0
6560,note_on,1,0,1,,,,,,,,,,,,,,,0,,,61,127
6560,note_on,0,0,1,,,,,,,,,,,,,,,0,,,58,127
6560,note_on,0,0,1,,,,,,,,,,,,,,,0,,,68,127
6607,note_on,47,0,1,,,,,,,,,,,,,,,0,,,68,0
6608,note_on,1,0,1,,,,,,,,,,,,,,,0,,,66,127
6655,note_on,47,0,1,,,,,,,,,,,,,,,0,,,66,0
6656,note_on,1,0,1,,,,,,,,,,,,,,,0,,,68,127
6703,note_on,47,0,1,,,,,,,,,,,,,,,0,,,68,0
6704,note_on,1,0,1,,,,,,,,,,,,,,,0,,,66,127
6751,note_on,0,0,1,,,,,,,,,,,,,,,0,,,58,0
6751,note_on,47,0,1,,,,,,,,,,,,,,,0,,,66,0
6752,note_on,1,0,1,,,,,,,,,,,,,,,0,,,54,127
6752,note_on,0,0,1,,,,,,,,,,,,,,,0,,,68,127
6799,note_on,47,0,1,,,,,,,,,,,,,,,0,,,68,0
6800,note_on,1,0,1,,,,,,,,,,,,,,,0,,,66,127
6847,note_on,47,0,1,,,,,,,,,,,,,,,0,,,66,0
6848,note_on,1,0,1,,,,,,,,,,,,,,,0,,,65,127
6895,note_on,47,0,1,,,,,,,,,,,,,,,0,,,65,0
6896,note_on,1,0,1,,,,,,,,,,,,,,,0,,,66,127
6943,note_on,0,0,1,,,,,,,,,,,,,,,0,,,54,0
6943,note_on,0,0,1,,,,,,,,,,,,,,,0,,,61,0
6943,note_on,47,0,1,,,,,,,,,,,,,,,0,,,66,0
6944,note_on,1,0,1,,,,,,,,,,,,,,,0,,,49,127
6944,note_on,0,0,1,,,,,,,,,,,,,,,0,,,68,127
7039,note_on,95,0,1,,,,,,,,,,,,,,,0,,,49,0
7040,note_on,1,0,1,,,,,,,,,,,,,,,0,,,61,127
7135,note_on,95,0,1,,,,,,,,,,,,,,,0,,,61,0
7136,note_on,1,0,1,,,,,,,,,,,,,,,0,,,59,127
7231,note_on,95,0,1,,,,,,,,,,,,,,,0,,,59,0
7232,note_on,1,0,1,,,,,,,,,,,,,,,0,,,58,127
7327,note_on,95,0,1,,,,,,,,,,,,,,,0,,,58,0
7328,note_on,1,0,1,,,,,,,,,,,,,,,0,,,56,127
7423,note_on,95,0,1,,,,,,,,,,,,,,,0,,,56,0
7424,note_on,1,0,1,,,,,,,,,,,,,,,0,,,55,127
7519,note_on,0,0,1,,,,,,,,,,,,,,,0,,,68,0
7519,note_on,95,0,1,,,,,,,,,,,,,,,0,,,55,0
7520,note_on,1,0,1,,,,,,,,,,,,,,,0,,,56,127
7712,note_on,192,0,1,,,,,,,,,,,,,,,0,,,80,127
7807,note_on,95,0,1,,,,,,,,,,,,,,,0,,,80,0
7808,note_on,1,0,1,,,,,,,,,,,,,,,0,,,75,127
7903,note_on,95,0,1,,,,,,,,,,,,,,,0,,,75,0
7904,note_on,1,0,1,,,,,,,,,,,,,,,0,,,71,127
7999,note_on,95,0,1,,,,,,,,,,,,,,,0,,,71,0
8000,note_on,1,0,1,,,,,,,,,,,,,,,0,,,68,127
8095,note_on,95,0,1,,,,,,,,,,,,,,,0,,,68,0
8095,note_on,0,0,1,,,,,,,,,,,,,,,0,,,56,0
8096,note_on,1,0,1,,,,,,,,,,,,,,,0,,,56,127
8096,note_on,0,0,1,,,,,,,,,,,,,,,0,,,75,127
8191,note_on,95,0,1,,,,,,,,,,,,,,,0,,,75,0
8192,note_on,1,0,1,,,,,,,,,,,,,,,0,,,71,127
8287,note_on,95,0,1,,,,,,,,,,,,,,,0,,,71,0
8288,note_on,1,0,1,,,,,,,,,,,,,,,0,,,68,127
8383,note_on,95,0,1,,,,,,,,,,,,,,,0,,,68,0
8384,note_on,1,0,1,,,,,,,,,,,,,,,0,,,63,127
8479,note_on,95,0,1,,,,,,,,,,,,,,,0,,,63,0
8479,note_on,0,0,1,,,,,,,,,,,,,,,0,,,56,0
8480,note_on,1,0,1,,,,,,,,,,,,,,,0,,,59,127
8480,note_on,0,0,1,,,,,,,,,,,,,,,0,,,63,127
8480,note_on,0,0,1,,,,,,,,,,,,,,,0,,,68,127
8575,note_on,95,0,1,,,,,,,,,,,,,,,0,,,68,0
8576,note_on,1,0,1,,,,,,,,,,,,,,,0,,,75,127
8671,note_on,0,0,1,,,,,,,,,,,,,,,0,,,63,0
8671,note_on,95,0,1,,,,,,,,,,,,,,,0,,,75,0
8671,note_on,0,0,1,,,,,,,,,,,,,,,0,,,59,0
8672,note_on,0,0,1,,,,,,,,,,,,,,,0,,,61,127
8672,note_on,0,0,1,,,,,,,,,,,,,,,0,,,67,127
8672,note_on,1,0,1,,,,,,,,,,,,,,,0,,,58,127
8863,note_on,191,0,1,,,,,,,,,,,,,,,0,,,67,0
8863,note_on,0,0,1,,,,,,,,,,,,,,,0,,,61,0
8863,note_on,0,0,1,,,,,,,,,,,,,,,0,,,58,0
8864,note_on,1,0,1,,,,,,,,,,,,,,,0,,,59,127
8864,note_on,0,0,1,,,,,,,,,,,,,,,0,,,63,127
8864,note_on,0,0,1,,,,,,,,,,,,,,,0,,,70,127
8911,note_on,47,0,1,,,,,,,,,,,,,,,0,,,70,0
8912,note_on,1,0,1,,,,,,,,,,,,,,,0,,,68,127
8959,note_on,47,0,1,,,,,,,,,,,,,,,0,,,68,0
8960,note_on,1,0,1,,,,,,,,,,,,,,,0,,,70,127
9007,note_on,47,0,1,,,,,,,,,,,,,,,0,,,70,0
9008,note_on,1,0,1,,,,,,,,,,,,,,,0,,,68,127
9055,note_on,47,0,1,,,,,,,,,,,,,,,0,,,68,0
9055,note_on,0,0,1,,,,,,,,,,,,,,,0,,,63,0
9055,note_on,0,0,1,,,,,,,,,,,,,,,0,,,59,0
9056,note_on,1,0,1,,,,,,,,,,,,,,,0,,,56,127
9056,note_on,0,0,1,,,,,,,,,,,,,,,0,,,70,127
9103,note_on,47,0,1,,,,,,,,,,,,,,,0,,,70,0
9104,note_on,1,0,1,,,,,,,,,,,,,,,0,,,68,127
9151,note_on,47,0,1,,,,,,,,,,,,,,,0,,,68,0
9152,note_on,1,0,1,,,,,,,,,,,,,,,0,,,67,127
9199,note_on,47,0,1,,,,,,,,,,,,,,,0,,,67,0
9200,note_on,1,0,1,,,,,,,,,,,,,,,0,,,68,127
9247,note_on,0,0,1,,,,,,,,,,,,,,,0,,,56,0
9247,note_on,47,0,1,,,,,,,,,,,,,,,0,,,68,0
9248,note_on,0,0,1,,,,,,,,,,,,,,,0,,,70,127
9248,note_on,1,0,1,,,,,,,,,,,,,,,0,,,51,127
9343,note_on,95,0,1,,,,,,,,,,,,,,,0,,,51,0
9344,note_on,1,0,1,,,,,,,,,,,,,,,0,,,63,127
9439,note_on,95,0,1,,,,,,,,,,,,,,,0,,,63,0
9440,note_on,1,0,1,,,,,,,,,,,,,,,0,,,61,127
9535,note_on,95,0,1,,,,,,,,,,,,,,,0,,,61,0
9536,note_on,1,0,1,,,,,,,,,,,,,,,0,,,60,127
9631,note_on,95,0,1,,,,,,,,,,,,,,,0,,,60,0
9632,note_on,1,0,1,,,,,,,,,,,,,,,0,,,58,127
9727,note_on,95,0,1,,,,,,,,,,,,,,,0,,,58,0
9728,note_on,1,0,1,,,,,,,,,,,,,,,0,,,57,127
9823,note_on,95,0,1,,,,,,,,,,,,,,,0,,,57,0
9823,note_on,0,0,1,,,,,,,,,,,,,,,0,,,70,0
9824,note_on,1,0,1,,,,,,,,,,,,,,,0,,,58,127
9920,note_on,96,0,1,,,,,,,,,,,,,,,0,,,82,127
10015,note_on,95,0,1,,,,,,,,,,,,,,,0,,,82,0
10016,note_on,1,0,1,,,,,,,,,,,,,,,0,,,77,127
10111,note_on,95,0,1,,,,,,,,,,,,,,,0,,,77,0
10112,note_on,1,0,1,,,,,,,,,,,,,,,0,,,73,127
10207,note_on,95,0,1,,,,,,,,,,,,,,,0,,,73,0
10207,note_on,0,0,1,,,,,,,,,,,,,,,0,,,58,0
10208,note_on,1,0,1,,,,,,,,,,,,,,,0,,,58,127
10208,note_on,0,0,1,,,,,,,,,,,,,,,0,,,70,127
10303,note_on,95,0,1,,,,,,,,,,,,,,,0,,,70,0
10304,note_on,1,0,1,,,,,,,,,,,,,,,0,,,77,127
10399,note_on,95,0,1,,,,,,,,,,,,,,,0,,,77,0
10399,note_on,0,0,1,,,,,,,,,,,,,,,0,,,58,0
10400,note_on,0,0,1,,,,,,,,,,,,,,,0,,,77,127
10400,note_on,0,0,1,,,,,,,,,,,,,,,0,,,65,127
10400,note_on,1,0,1,,,,,,,,,,,,,,,0,,,61,127
10495,note_on,95,0,1,,,,,,,,,,,,,,,0,,,77,0
10496,note_on,1,0,1,,,,,,,,,,,,,,,0,,,73,127
10591,note_on,95,0,1,,,,,,,,,,,,,,,0,,,73,0
10592,note_on,1,0,1,,,,,,,,,,,,,,,0,,,70,127
10687,note_on,95,0,1,,,,,,,,,,,,,,,0,,,70,0
10687,note_on,0,0,1,,,,,,,,,,,,,,,0,,,65,0
10688,note_on,1,0,1,,,,,,,,,,,,,,,0,,,65,127
10783,note_on,95,0,1,,,,,,,,,,,,,,,0,,,61,0
10784,note_on,1,0,1,,,,,,,,,,,,,,,0,,,61,127
10784,note_on,0,0,1,,,,,,,,,,,,,,,0,,,70,127
10879,note_on,95,0,1,,,,,,,,,,,,,,,0,,,70,0
10880,note_on,1,0,1,,,,,,,,,,,,,,,0,,,77,127
10975,note_on,0,0,1,,,,,,,,,,,,,,,0,,,65,0
10975,note_on,0,0,1,,,,,,,,,,,,,,,0,,,61,0
10975,note_on,95,0,1,,,,,,,,,,,,,,,0,,,77,0
10976,note_on,1,0,1,,,,,,,,,,,,,,,0,,,60,127
10976,note_on,0,0,1,,,,,,,,,,,,,,,0,,,69,127
11167,note_on,191,0,1,,,,,,,,,,,,,,,0,,,69,0
11167,note_on,0,0,1,,,,,,,,,,,,,,,0,,,60,0
11168,note_on,1,0,1,,,,,,,,,,,,,,,0,,,65,127
11168,note_on,0,0,1,,,,,,,,,,,,,,,0,,,61,127
11168,note_on,0,0,1,,,,,,,,,,,,,,,0,,,72,127
11215,note_on,47,0,1,,,,,,,,,,,,,,,0,,,72,0
11216,note_on,1,0,1,,,,,,,,,,,,,,,0,,,70,127
11263,note_on,47,0,1,,,,,,,,,,,,,,,0,,,70,0
11264,note_on,1,0,1,,,,,,,,,,,,,,,0,,,72,127
11311,note_on,47,0,1,,,,,,,,,,,,,,,0,,,72,0
11312,note_on,1,0,1,,,,,,,,,,,,,,,0,,,70,127
11359,note_on,0,0,1,,,,,,,,,,,,,,,0,,,65,0
11359,note_on,47,0,1,,,,,,,,,,,,,,,0,,,70,0
11359,note_on,0,0,1,,,,,,,,,,,,,,,0,,,61,0
11360,note_on,0,0,1,,,,,,,,,,,,,,,0,,,72,127
11360,note_on,1,0,1,,,,,,,,,,,,,,,0,,,58,127
11407,note_on,47,0,1,,,,,,,,,,,,,,,0,,,72,0
11408,note_on,1,0,1,,,,,,,,,,,,,,,0,,,70,127
11455,note_on,47,0,1,,,,,,,,,,,,,,,0,,,70,0
11456,note_on,1,0,1,,,,,,,,,,,,,,,0,,,69,127
11503,note_on,47,0,1,,,,,,,,,,,,,,,0,,,69,0
11504,note_on,1,0,1,,,,,,,,,,,,,,,0,,,70,127
11551,note_on,47,0,1,,,,,,,,,,,,,,,0,,,70,0
11551,note_on,0,0,1,,,,,,,,,,,,,,,0,,,58,0
11552,note_on,0,0,1,,,,,,,,,,,,,,,0,,,72,127
11552,note_on,1,0,1,,,,,,,,,,,,,,,0,,,41,127
11647,note_on,95,0,1,,,,,,,,,,,,,,,0,,,72,0
11648,note_on,1,0,1,,,,,,,,,,,,,,,0,,,77,127
11743,note_on,95,0,1,,,,,,,,,,,,,,,0,,,41,0
11744,note_on,1,0,1,,,,,,,,,,,,,,,0,,,65,127
11839,note_on,95,0,1,,,,,,,,,,,,,,,0,,,77,0
11840,note_on,1,0,1,,,,,,,,,,,,,,,0,,,72,127
11935,note_on,95,0,1,,,,,,,,,,,,,,,0,,,65,0
11936,note_on,1,0,1,,,,,,,,,,,,,,,0,,,69,127
12031,note_on,95,0,1,,,,,,,,,,,,,,,0,,,72,0
12032,note_on,1,0,1,,,,,,,,,,,,,,,0,,,75,127
12127,note_on,95,0,1,,,,,,,,,,,,,,,0,,,69,0
12128,note_on,1,0,1,,,,,,,,,,,,,,,0,,,70,127
12223,note_on,95,0,1,,,,,,,,,,,,,,,0,,,75,0
12224,note_on,1,0,1,,,,,,,,,,,,,,,0,,,73,127
12319,note_on,95,0,1,,,,,,,,,,,,,,,0,,,70,0
12320,note_on,1,0,1,,,,,,,,,,,,,,,0,,,66,127
12415,note_on,95,0,1,,,,,,,,,,,,,,,0,,,73,0
12416,note_on,1,0,1,,,,,,,,,,,,,,,0,,,72,127
12511,note_on,95,0,1,,,,,,,,,,,,,,,0,,,66,0
12512,note_on,1,0,1,,,,,,,,,,,,,,,0,,,63,127
12607,note_on,95,0,1,,,,,,,,,,,,,,,0,,,72,0
12608,note_on,1,0,1,,,,,,,,,,,,,,,0,,,70,127
12703,note_on,95,0,1,,,,,,,,,,,,,,,0,,,70,0
12703,note_on,0,0,1,,,,,,,,,,,,,,,0,,,63,0
12704,note_on,0,0,1,,,,,,,,,,,,,,,0,,,69,127
12704,note_on,1,0,1,,,,,,,,,,,,,,,0,,,41,127
12800,note_on,96,0,1,,,,,,,,,,,,,,,0,,,77,127
12895,note_on,95,0,1,,,,,,,,,,,,,,,0,,,69,0
12895,note_on,0,0,1,,,,,,,,,,,,,,,0,,,41,0
12896,note_on,1,0,1,,,,,,,,,,,,,,,0,,,65,127
12991,note_on,95,0,1,,,,,,,,,,,,,,,0,,,77,0
12992,note_on,1,0,1,,,,,,,,,,,,,,,0,,,72,127
13087,note_on,95,0,1,,,,,,,,,,,,,,,0,,,65,0
13088,note_on,1,0,1,,,,,,,,,,,,,,,0,,,69,127
13183,note_on,95,0,1,,,,,,,,,,,,,,,0,,,72,0
13184,note_on,1,0,1,,,,,,,,,,,,,,,0,,,75,127
13279,note_on,95,0,1,,,,,,,,,,,,,,,0,,,69,0
13280,note_on,1,0,1,,,,,,,,,,,,,,,0,,,70,127
13375,note_on,95,0,1,,,,,,,,,,,,,,,0,,,75,0
13376,note_on,1,0,1,,,,,,,,,,,,,,,0,,,73,127
13471,note_on,95,0,1,,,,,,,,,,,,,,,0,,,70,0
13472,note_on,1,0,1,,,,,,,,,,,,,,,0,,,66,127
13567,note_on,95,0,1,,,,,,,,,,,,,,,0,,,73,0
13568,note_on,1,0,1,,,,,,,,,,,,,,,0,,,72,127
13663,note_on,95,0,1,,,,,,,,,,,,,,,0,,,66,0
13664,note_on,1,0,1,,,,,,,,,,,,,,,0,,,63,127
13759,note_on,95,0,1,,,,,,,,,,,,,,,0,,,72,0
13760,note_on,1,0,1,,,,,,,,,,,,,,,0,,,70,127
13855,note_on,95,0,1,,,,,,,,,,,,,,,0,,,70,0
13855,note_on,0,0,1,,,,,,,,,,,,,,,0,,,63,0
13856,note_on,1,0,1,,,,,,,,,,,,,,,0,,,41,127
13856,note_on,0,0,1,,,,,,,,,,,,,,,0,,,69,127
13952,note_on,96,0,1,,,,,,,,,,,,,,,0,,,77,127
14047,note_on,95,0,1,,,,,,,,,,,,,,,0,,,69,0
14047,note_on,0,0,1,,,,,,,,,,,,,,,0,,,41,0
14048,note_on,1,0,1,,,,,,,,,,,,,,,0,,,65,127
14143,note_on,95,0,1,,,,,,,,,,,,,,,0,,,77,0
14144,note_on,1,0,1,,,,,,,,,,,,,,,0,,,72,127
14239,note_on,95,0,1,,,,,,,,,,,,,,,0,,,65,0
14240,note_on,1,0,1,,,,,,,,,,,,,,,0,,,69,127
14335,note_on,95,0,1,,,,,,,,,,,,,,,0,,,72,0
14336,note_on,1,0,1,,,,,,,,,,,,,,,0,,,75,127
14431,note_on,95,0,1,,,,,,,,,,,,,,,0,,,69,0
14432,note_on,1,0,1,,,,,,,,,,,,,,,0,,,70,127
14527,note_on,95,0,1,,,,,,,,,,,,,,,0,,,75,0
14528,note_on,1,0,1,,,,,,,,,,,,,,,0,,,73,127
14623,note_on,95,0,1,,,,,,,,,,,,,,,0,,,70,0
14624,note_on,1,0,1,,,,,,,,,,,,,,,0,,,66,127
14719,note_on,95,0,1,,,,,,,,,,,,,,,0,,,73,0
14720,note_on,1,0,1,,,,,,,,,,,,,,,0,,,72,127
14815,note_on,95,0,1,,,,,,,,,,,,,,,0,,,66,0
14816,note_on,1,0,1,,,,,,,,,,,,,,,0,,,63,127
14911,note_on,95,0,1,,,,,,,,,,,,,,,0,,,72,0
14912,note_on,1,0,1,,,,,,,,,,,,,,,0,,,70,127
15007,note_on,0,0,1,,,,,,,,,,,,,,,0,,,63,0
15007,note_on,95,0,1,,,,,,,,,,,,,,,0,,,70,0
15008,note_on,1,0,1,,,,,,,,,,,,,,,0,,,53,127
15008,note_on,0,0,1,,,,,,,,,,,,,,,0,,,69,127
15103,note_on,95,0,1,,,,,,,,,,,,,,,0,,,53,0
15104,note_on,1,0,1,,,,,,,,,,,,,,,0,,,65,127
15152,note_on,48,0,1,,,,,,,,,,,,,,,0,,,69,0
15199,note_on,47,0,1,,,,,,,,,,,,,,,0,,,65,0
15200,note_on,0,0,1,,,,,,,,,,,,,,,0,,,84,127
15200,note_on,1,0,1,,,,,,,,,,,,,,,0,,,69,127
15200,note_on,0,0,1,,,,,,,,,,,,,,,0,,,75,127
15295,note_on,95,0,1,,,,,,,,,,,,,,,0,,,69,0
15296,note_on,1,0,1,,,,,,,,,,,,,,,0,,,65,127
15391,note_on,95,0,1,,,,,,,,,,,,,,,0,,,65,0
15391,note_on,0,0,1,,,,,,,,,,,,,,,0,,,84,0
15391,note_on,0,0,1,,,,,,,,,,,,,,,0,,,75,0
15392,note_on,1,0,1,,,,,,,,,,,,,,,0,,,70,127
15392,note_on,0,0,1,,,,,,,,,,,,,,,0,,,74,127
15392,note_on,0,0,1,,,,,,,,,,,,,,,0,,,82,127
15487,note_on,95,0,1,,,,,,,,,,,,,,,0,,,70,0
15488,note_on,1,0,1,,,,,,,,,,,,,,,0,,,58,127
15583,note_on,0,0,1,,,,,,,,,,,,,,,0,,,82,0
15583,note_on,95,0,1,,,,,,,,,,,,,,,0,,,58,0
15583,note_on,0,0,1,,,,,,,,,,,,,,,0,,,74,0
15584,note_on,1,0,1,,,,,,,,,,,,,,,0,,,53,127
15679,note_on,95,0,1,,,,,,,,,,,,,,,0,,,53,0
15680,note_on,1,0,1,,,,,,,,,,,,,,,0,,,65,127
15775,note_on,95,0,1,,,,,,,,,,,,,,,0,,,65,0
15776,note_on,0,0,1,,,,,,,,,,,,,,,0,,,75,127
15776,note_on,0,0,1,,,,,,,,,,,,,,,0,,,84,127
15776,note_on,1,0,1,,,,,,,,,,,,,,,0,,,69,127
15871,note_on,95,0,1,,,,,,,,,,,,,,,0,,,69,0
15872,note_on,1,0,1,,,,,,,,,,,,,,,0,,,65,127
15967,note_on,95,0,1,,,,,,,,,,,,,,,0,,,65,0
15967,note_on,0,0,1,,,,,,,,,,,,,,,0,,,75,0
15967,note_on,0,0,1,,,,,,,,,,,,,,,0,,,84,0
15968,note_on,0,0,1,,,,,,,,,,,,,,,0,,,74,127
15968,note_on,1,0,1,,,,,,,,,,,,,,,0,,,70,127
15968,note_on,0,0,1,,,,,,,,,,,,,,,0,,,82,127
16063,note_on,95,0,1,,,,,,,,,,,,,,,0,,,70,0
16064,note_on,1,0,1,,,,,,,,,,,,,,,0,,,58,127
16159,note_on,95,0,1,,,,,,,,,,,,,,,0,,,58,0
16159,note_on,0,0,1,,,,,,,,,,,,,,,0,,,74,0
16159,note_on,0,0,1,,,,,,,,,,,,,,,0,,,82,0
16160,note_on,1,0,1,,,,,,,,,,,,,,,0,,,53,127
16255,note_on,95,0,1,,,,,,,,,,,,,,,0,,,53,0
16256,note_on,1,0,1,,,,,,,,,,,,,,,0,,,65,127
16351,note_on,95,0,1,,,,,,,,,,,,,,,0,,,65,0
16352,note_on,0,0,1,,,,,,,,,,,,,,,0,,,75,127
16352,note_on,1,0,1,,,,,,,,,,,,,,,0,,,69,127
16352,note_on,0,0,1,,,,,,,,,,,,,,,0,,,84,127
16447,note_on,95,0,1,,,,,,,,,,,,,,,0,,,69,0
16448,note_on,1,0,1,,,,,,,,,,,,,,,0,,,65,127
16543,note_on,0,0,1,,,,,,,,,,,,,,,0,,,84,0
16543,note_on,95,0,1,,,,,,,,,,,,,,,0,,,65,0
16543,note_on,0,0,1,,,,,,,,,,,,,,,0,,,75,0
16544,note_on,1,0,1,,,,,,,,,,,,,,,0,,,70,127
16544,note_on,0,0,1,,,,,,,,,,,,,,,0,,,74,127
16544,note_on,0,0,1,,,,,,,,,,,,,,,0,,,82,127
16639,note_on,95,0,1,,,,,,,,,,,,,,,0,,,70,0
16640,note_on,1,0,1,,,,,,,,,,,,,,,0,,,58,127
16735,note_on,95,0,1,,,,,,,,,,,,,,,0,,,58,0
16735,note_on,0,0,1,,,,,,,,,,,,,,,0,,,82,0
16735,note_on,0,0,1,,,,,,,,,,,,,,,0,,,74,0
16736,note_on,1,0,1,,,,,,,,,,,,,,,0,,,65,127
16736,note_on,0,0,1,,,,,,,,,,,,,,,0,,,81,127
16831,note_on,95,0,1,,,,,,,,,,,,,,,0,,,81,0
16832,note_on,1,0,1,,,,,,,,,,,,,,,0,,,79,127
16927,note_on,95,0,1,,,,,,,,,,,,,,,0,,,79,0
16928,note_on,1,0,1,,,,,,,,,,,,,,,0,,,77,127
17023,note_on,95,0,1,,,,,,,,,,,,,,,0,,,65,0
17024,note_on,1,0,1,,,,,,,,,,,,,,,0,,,63,127
17119,note_on,95,0,1,,,,,,,,,,,,,,,0,,,63,0
17120,note_on,1,0,1,,,,,,,,,,,,,,,0,,,62,127
17215,note_on,95,0,1,,,,,,,,,,,,,,,0,,,62,0
17215,note_on,0,0,1,,,,,,,,,,,,,,,0,,,77,0
17216,note_on,0,0,1,,,,,,,,,,,,,,,0,,,75,127
17216,note_on,1,0,1,,,,,,,,,,,,,,,0,,,60,127
17311,note_on,95,0,1,,,,,,,,,,,,,,,0,,,75,0
17311,note_on,0,0,1,,,,,,,,,,,,,,,0,,,60,0
17312,note_on,0,0,1,,,,,,,,,,,,,,,0,,,74,127
17312,note_on,1,0,1,,,,,,,,,,,,,,,0,,,46,127
17407,note_on,95,0,1,,,,,,,,,,,,,,,0,,,46,0
17408,note_on,1,0,1,,,,,,,,,,,,,,,0,,,58,127
17503,note_on,0,0,1,,,,,,,,,,,,,,,0,,,74,0
17503,note_on,95,0,1,,,,,,,,,,,,,,,0,,,58,0
17504,note_on,0,0,1,,,,,,,,,,,,,,,0,,,74,127
17504,note_on,0,0,1,,,,,,,,,,,,,,,0,,,77,127
17504,note_on,1,0,1,,,,,,,,,,,,,,,0,,,62,127
17599,note_on,95,0,1,,,,,,,,,,,,,,,0,,,62,0
17600,note_on,1,0,1,,,,,,,,,,,,,,,0,,,58,127
17695,note_on,95,0,1,,,,,,,,,,,,,,,0,,,58,0
17695,note_on,0,0,1,,,,,,,,,,,,,,,0,,,74,0
17695,note_on,0,0,1,,,,,,,,,,,,,,,0,,,77,0
17696,note_on,1,0,1,,,,,,,,,,,,,,,0,,,63,127
17696,note_on,0,0,1,,,,,,,,,,,,,,,0,,,75,127
17696,note_on,0,0,1,,,,,,,,,,,,,,,0,,,79,127
17791,note_on,95,0,1,,,,,,,,,,,,,,,0,,,63,0
17792,note_on,1,0,1,,,,,,,,,,,,,,,0,,,51,127
17887,note_on,95,0,1,,,,,,,,,,,,,,,0,,,51,0
17887,note_on,0,0,1,,,,,,,,,,,,,,,0,,,79,0
17887,note_on,0,0,1,,,,,,,,,,,,,,,0,,,75,0
17888,note_on,1,0,1,,,,,,,,,,,,,,,0,,,46,127
17983,note_on,95,0,1,,,,,,,,,,,,,,,0,,,46,0
17984,note_on,1,0,1,,,,,,,,,,,,,,,0,,,58,127
18079,note_on,95,0,1,,,,,,,,,,,,,,,0,,,58,0
18080,note_on,1,0,1,,,,,,,,,,,,,,,0,,,62,127
18080,note_on,0,0,1,,,,,,,,,,,,,,,0,,,77,127
18080,note_on,0,0,1,,,,,,,,,,,,,,,0,,,74,127
18175,note_on,95,0,1,,,,,,,,,,,,,,,0,,,62,0
18176,note_on,1,0,1,,,,,,,,,,,,,,,0,,,58,127
18271,note_on,95,0,1,,,,,,,,,,,,,,,0,,,58,0
18271,note_on,0,0,1,,,,,,,,,,,,,,,0,,,74,0
18271,note_on,0,0,1,,,,,,,,,,,,,,,0,,,77,0
18272,note_on,0,0,1,,,,,,,,,,,,,,,0,,,75,127
18272,note_on,1,0,1,,,,,,,,,,,,,,,0,,,63,127
18272,note_on,0,0,1,,,,,,,,,,,,,,,0,,,79,127
18367,note_on,95,0,1,,,,,,,,,,,,,,,0,,,63,0
18368,note_on,1,0,1,,,,,,,,,,,,,,,0,,,51,127
18463,note_on,0,0,1,,,,,,,,,,,,,,,0,,,79,0
18463,note_on,0,0,1,,,,,,,,,,,,,,,0,,,75,0
18463,note_on,95,0,1,,,,,,,,,,,,,,,0,,,51,0
18464,note_on,1,0,1,,,,,,,,,,,,,,,0,,,46,127
18559,note_on,95,0,1,,,,,,,,,,,,,,,0,,,46,0
18560,note_on,1,0,1,,,,,,,,,,,,,,,0,,,58,127
18655,note_on,95,0,1,,,,,,,,,,,,,,,0,,,58,0
18656,note_on,0,0,1,,,,,,,,,,,,,,,0,,,77,127
18656,note_on,1,0,1,,,,,,,,,,,,,,,0,,,62,127
18656,note_on,0,0,1,,,,,,,,,,,,,,,0,,,74,127
18751,note_on,95,0,1,,,,,,,,,,,,,,,0,,,62,0
18752,note_on,1,0,1,,,,,,,,,,,,,,,0,,,58,127
18847,note_on,95,0,1,,,,,,,,,,,,,,,0,,,58,0
18847,note_on,0,0,1,,,,,,,,,,,,,,,0,,,77,0
18847,note_on,0,0,1,,,,,,,,,,,,,,,0,,,74,0
18848,note_on,1,0,1,,,,,,,,,,,,,,,0,,,63,127
18848,note_on,0,0,1,,,,,,,,,,,,,,,0,,,79,127
18848,note_on,0,0,1,,,,,,,,,,,,,,,0,,,75,127
18943,note_on,95,0,1,,,,,,,,,,,,,,,0,,,63,0
18944,note_on,1,0,1,,,,,,,,,,,,,,,0,,,51,127
19039,note_on,0,0,1,,,,,,,,,,,,,,,0,,,79,0
19039,note_on,95,0,1,,,,,,,,,,,,,,,0,,,51,0
19039,note_on,0,0,1,,,,,,,,,,,,,,,0,,,75,0
19040,note_on,1,0,1,,,,,,,,,,,,,,,0,,,53,127
19040,note_on,0,0,1,,,,,,,,,,,,,,,0,,,81,127
19135,note_on,0,0,1,,,,,,,,,,,,,,,0,,,53,0
19135,note_on,95,0,1,,,,,,,,,,,,,,,0,,,81,0
19136,note_on,1,0,1,,,,,,,,,,,,,,,0,,,65,127
19136,note_on,0,0,1,,,,,,,,,,,,,,,0,,,84,127
19231,note_on,95,0,1,,,,,,,,,,,,,,,0,,,84,0
19232,note_on,1,0,1,,,,,,,,,,,,,,,0,,,77,127
19327,note_on,95,0,1,,,,,,,,,,,,,,,0,,,77,0
19327,note_on,0,0,1,,,,,,,,,,,,,,,0,,,65,0
19328,note_on,1,0,1,,,,,,,,,,,,,,,0,,,63,127
19328,note_on,0,0,1,,,,,,,,,,,,,,,0,,,81,127
19423,note_on,95,0,1,,,,,,,,,,,,,,,0,,,81,0
19424,note_on,1,0,1,,,,,,,,,,,,,,,0,,,82,127
19519,note_on,95,0,1,,,,,,,,,,,,,,,0,,,82,0
19519,note_on,0,0,1,,,,,,,,,,,,,,,0,,,63,0
19520,note_on,1,0,1,,,,,,,,,,,,,,,0,,,62,127
19520,note_on,0,0,1,,,,,,,,,,,,,,,0,,,77,127
19615,note_on,0,0,1,,,,,,,,,,,,,,,0,,,62,0
19615,note_on,95,0,1,,,,,,,,,,,,,,,0,,,77,0
19616,note_on,1,0,1,,,,,,,,,,,,,,,0,,,63,127
19616,note_on,0,0,1,,,,,,,,,,,,,,,0,,,79,127
19711,note_on,95,0,1,,,,,,,,,,,,,,,0,,,79,0
19712,note_on,1,0,1,,,,,,,,,,,,,,,0,,,75,127
19807,note_on,95,0,1,,,,,,,,,,,,,,,0,,,75,0
19807,note_on,0,0,1,,,,,,,,,,,,,,,0,,,63,0
19808,note_on,1,0,1,,,,,,,,,,,,,,,0,,,65,127
19808,note_on,0,0,1,,,,,,,,,,,,,,,0,,,74,127
19903,note_on,95,0,1,,,,,,,,,,,,,,,0,,,74,0
19904,note_on,1,0,1,,,,,,,,,,,,,,,0,,,72,127
19999,note_on,0,0,1,,,,,,,,,,,,,,,0,,,65,0
19999,note_on,95,0,1,,,,,,,,,,,,,,,0,,,72,0
20000,note_on,1,0,1,,,,,,,,,,,,,,,0,,,53,127
20000,note_on,0,0,1,,,,,,,,,,,,,,,0,,,70,127
20095,note_on,95,0,1,,,,,,,,,,,,,,,0,,,70,0
20096,note_on,1,0,1,,,,,,,,,,,,,,,0,,,69,127
20191,note_on,95,0,1,,,,,,,,,,,,,,,0,,,69,0
20191,note_on,0,0,1,,,,,,,,,,,,,,,0,,,53,0
20192,note_on,1,0,1,,,,,,,,,,,,,,,0,,,58,127
20192,note_on,0,0,1,,,,,,,,,,,,,,,0,,,70,127
20287,note_on,95,0,1,,,,,,,,,,,,,,,0,,,70,0
20288,note_on,1,0,1,,,,,,,,,,,,,,,0,,,74,127
20383,note_on,95,0,1,,,,,,,,,,,,,,,0,,,74,0
20384,note_on,1,0,1,,,,,,,,,,,,,,,0,,,65,127
20479,note_on,95,0,1,,,,,,,,,,,,,,,0,,,58,0
20480,note_on,1,0,1,,,,,,,,,,,,,,,0,,,62,127
20575,note_on,95,0,1,,,,,,,,,,,,,,,0,,,62,0
20576,note_on,1,0,1,,,,,,,,,,,,,,,0,,,60,127
20624,note_on,48,0,1,,,,,,,,,,,,,,,0,,,65,0
20624,note_on,0,0,1,,,,,,,,,,,,,,,0,,,63,127
20671,note_on,47,0,1,,,,,,,,,,,,,,,0,,,63,0
20671,note_on,0,0,1,,,,,,,,,,,,,,,0,,,60,0
20672,note_on,1,0,1,,,,,,,,,,,,,,,0,,,53,127
20672,note_on,0,0,1,,,,,,,,,,,,,,,0,,,62,127
20719,note_on,47,0,1,,,,,,,,,,,,,,,0,,,62,0
20720,note_on,1,0,1,,,,,,,,,,,,,,,0,,,63,127
20767,note_on,0,0,1,,,,,,,,,,,,,,,0,,,53,0
20767,note_on,47,0,1,,,,,,,,,,,,,,,0,,,63,0
20768,note_on,1,0,1,,,,,,,,,,,,,,,0,,,58,127
20768,note_on,0,0,1,,,,,,,,,,,,,,,0,,,62,127
20863,note_on,95,0,1,,,,,,,,,,,,,,,0,,,62,0
20864,note_on,1,0,1,,,,,,,,,,,,,,,0,,,77,127
20959,note_on,95,0,1,,,,,,,,,,,,,,,0,,,77,0
20960,note_on,1,0,1,,,,,,,,,,,,,,,0,,,65,127
21055,note_on,95,0,1,,,,,,,,,,,,,,,0,,,58,0
21056,note_on,1,0,1,,,,,,,,,,,,,,,0,,,62,127
21151,note_on,95,0,1,,,,,,,,,,,,,,,0,,,62,0
21152,note_on,1,0,1,,,,,,,,,,,,,,,0,,,60,127
21200,note_on,48,0,1,,,,,,,,,,,,,,,0,,,65,0
21200,note_on,0,0,1,,,,,,,,,,,,,,,0,,,63,127
21247,note_on,47,0,1,,,,,,,,,,,,,,,0,,,63,0
21247,note_on,0,0,1,,,,,,,,,,,,,,,0,,,60,0
21248,note_on,1,0,1,,,,,,,,,,,,,,,0,,,53,127
21248,note_on,0,0,1,,,,,,,,,,,,,,,0,,,62,127
21295,note_on,47,0,1,,,,,,,,,,,,,,,0,,,62,0
21296,note_on,1,0,1,,,,,,,,,,,,,,,0,,,63,127
21343,note_on,47,0,1,,,,,,,,,,,,,,,0,,,63,0
21343,note_on,0,0,1,,,,,,,,,,,,,,,0,,,53,0
21344,note_on,0,0,1,,,,,,,,,,,,,,,0,,,62,127
21344,note_on,1,0,1,,,,,,,,,,,,,,,0,,,58,127
21439,note_on,95,0,1,,,,,,,,,,,,,,,0,,,62,0
21440,note_on,1,0,1,,,,,,,,,,,,,,,0,,,82,127
21535,note_on,95,0,1,,,,,,,,,,,,,,,0,,,82,0
21536,note_on,1,0,1,,,,,,,,,,,,,,,0,,,65,127
21631,note_on,95,0,1,,,,,,,,,,,,,,,0,,,58,0
21632,note_on,1,0,1,,,,,,,,,,,,,,,0,,,62,127
21727,note_on,95,0,1,,,,,,,,,,,,,,,0,,,62,0
21728,note_on,1,0,1,,,,,,,,,,,,,,,0,,,60,127
21776,note_on,0,0,1,,,,,,,,,,,,,,,0,,,63,127
21776,note_on,48,0,1,,,,,,,,,,,,,,,0,,,65,0
21823,note_on,47,0,1,,,,,,,,,,,,,,,0,,,63,0
21823,note_on,0,0,1,,,,,,,,,,,,,,,0,,,60,0
21824,note_on,1,0,1,,,,,,,,,,,,,,,0,,,53,127
21824,note_on,0,0,1,,,,,,,,,,,,,,,0,,,62,127
21871,note_on,47,0,1,,,,,,,,,,,,,,,0,,,62,0
21872,note_on,1,0,1,,,,,,,,,,,,,,,0,,,63,127
21919,note_on,47,0,1,,,,,,,,,,,,,,,0,,,63,0
21919,note_on,0,0,1,,,,,,,,,,,,,,,0,,,53,0
21920,note_on,1,0,1,,,,,,,,,,,,,,,0,,,58,127
21920,note_on,0,0,1,,,,,,,,,,,,,,,0,,,62,127
22015,note_on,95,0,1,,,,,,,,,,,,,,,0,,,62,0
22016,note_on,1,0,1,,,,,,,,,,,,,,,0,,,77,127
22111,note_on,95,0,1,,,,,,,,,,,,,,,0,,,77,0
22112,note_on,1,0,1,,,,,,,,,,,,,,,0,,,74,127
22207,note_on,0,0,1,,,,,,,,,,,,,,,0,,,58,0
22207,note_on,95,0,1,,,,,,,,,,,,,,,0,,,74,0
22208,note_on,1,0,1,,,,,,,,,,,,,,,0,,,60,127
22208,note_on,0,0,1,,,,,,,,,,,,,,,0,,,69,127
22303,note_on,95,0,1,,,,,,,,,,,,,,,0,,,69,0
22303,note_on,0,0,1,,,,,,,,,,,,,,,0,,,60,0
22304,note_on,1,0,1,,,,,,,,,,,,,,,0,,,62,127
22304,note_on,0,0,1,,,,,,,,,,,,,,,0,,,70,127
22399,note_on,95,0,1,,,,,,,,,,,,,,,0,,,70,0
22400,note_on,1,0,1,,,,,,,,,,,,,,,0,,,82,127
22495,note_on,95,0,1,,,,,,,,,,,,,,,0,,,82,0
22495,note_on,0,0,1,,,,,,,,,,,,,,,0,,,62,0
22496,note_on,0,0,1,,,,,,,,,,,,,,,0,,,79,127
22496,note_on,1,0,1,,,,,,,,,,,,,,,0,,,63,127
22591,note_on,95,0,1,,,,,,,,,,,,,,,0,,,79,0
22592,note_on,1,0,1,,,,,,,,,,,,,,,0,,,75,127
22687,note_on,95,0,1,,,,,,,,,,,,,,,0,,,75,0
22687,note_on,0,0,1,,,,,,,,,,,,,,,0,,,63,0
22688,note_on,0,0,1,,,,,,,,,,,,,,,0,,,74,127
22688,note_on,1,0,1,,,,,,,,,,,,,,,0,,,65,127
22783,note_on,95,0,1,,,,,,,,,,,,,,,0,,,74,0
22784,note_on,1,0,1,,,,,,,,,,,,,,,0,,,72,127
22879,note_on,95,0,1,,,,,,,,,,,,,,,0,,,72,0
22879,note_on,0,0,1,,,,,,,,,,,,,,,0,,,65,0
22880,note_on,1,0,1,,,,,,,,,,,,,,,0,,,53,127
22880,note_on,0,0,1,,,,,,,,,,,,,,,0,,,70,127
22975,note_on,95,0,1,,,,,,,,,,,,,,,0,,,70,0
22976,note_on,1,0,1,,,,,,,,,,,,,,,0,,,69,127
23071,note_on,95,0,1,,,,,,,,,,,,,,,0,,,69,0
23071,note_on,0,0,1,,,,,,,,,,,,,,,0,,,53,0
23072,note_on,0,0,1,,,,,,,,,,,,,,,0,,,70,127
23072,note_on,1,0,1,,,,,,,,,,,,,,,0,,,58,127
23167,note_on,95,0,1,,,,,,,,,,,,,,,0,,,70,0
23168,note_on,1,0,1,,,,,,,,,,,,,,,0,,,74,127
23263,note_on,95,0,1,,,,,,,,,,,,,,,0,,,74,0
23264,note_on,1,0,1,,,,,,,,,,,,,,,0,,,65,127
23322,note_on,58,0,1,,,,,,,,,,,,,,,0,,,58,0
23360,note_on,38,0,1,,,,,,,,,,,,,,,0,,,62,127
23455,note_on,95,0,1,,,,,,,,,,,,,,,0,,,62,0
23456,note_on,1,0,1,,,,,,,,,,,,,,,0,,,60,127
23504,note_on,0,0,1,,,,,,,,,,,,,,,0,,,63,127
23504,note_on,48,0,1,,,,,,,,,,,,,,,0,,,65,0
23551,note_on,47,0,1,,,,,,,,,,,,,,,0,,,63,0
23551,note_on,0,0,1,,,,,,,,,,,,,,,0,,,60,0
23552,note_on,1,0,1,,,,,,,,,,,,,,,0,,,53,127
23552,note_on,0,0,1,,,,,,,,,,,,,,,0,,,62,127
23599,note_on,47,0,1,,,,,,,,,,,,,,,0,,,62,0
23600,note_on,1,0,1,,,,,,,,,,,,,,,0,,,63,127
23647,note_on,47,0,1,,,,,,,,,,,,,,,0,,,63,0
23647,note_on,0,0,1,,,,,,,,,,,,,,,0,,,53,0
23648,note_on,1,0,1,,,,,,,,,,,,,,,0,,,58,127
23648,note_on,0,0,1,,,,,,,,,,,,,,,0,,,62,127
23743,note_on,95,0,1,,,,,,,,,,,,,,,0,,,62,0
23744,note_on,1,0,1,,,,,,,,,,,,,,,0,,,77,127
23839,note_on,95,0,1,,,,,,,,,,,,,,,0,,,77,0
23840,note_on,1,0,1,,,,,,,,,,,,,,,0,,,65,127
23898,note_on,58,0,1,,,,,,,,,,,,,,,0,,,58,0
23936,note_on,38,0,1,,,,,,,,,,,,,,,0,,,62,127
24031,note_on,95,0,1,,,,,,,,,,,,,,,0,,,62,0
24032,note_on,1,0,1,,,,,,,,,,,,,,,0,,,60,127
24080,note_on,48,0,1,,,,,,,,,,,,,,,0,,,65,0
24080,note_on,0,0,1,,,,,,,,,,,,,,,0,,,63,127
24127,note_on,47,0,1,,,,,,,,,,,,,,,0,,,63,0
24127,note_on,0,0,1,,,,,,,,,,,,,,,0,,,60,0
24128,note_on,1,0,1,,,,,,,,,,,,,,,0,,,53,127
24128,note_on,0,0,1,,,,,,,,,,,,,,,0,,,62,127
24175,note_on,47,0,1,,,,,,,,,,,,,,,0,,,62,0
24176,note_on,1,0,1,,,,,,,,,,,,,,,0,,,63,127
24223,note_on,0,0,1,,,,,,,,,,,,,,,0,,,53,0
24223,note_on,47,0,1,,,,,,,,,,,,,,,0,,,63,0
24224,note_on,0,0,1,,,,,,,,,,,,,,,0,,,62,127
24224,note_on,1,0,1,,,,,,,,,,,,,,,0,,,58,127
24319,note_on,95,0,1,,,,,,,,,,,,,,,0,,,62,0
24320,note_on,1,0,1,,,,,,,,,,,,,,,0,,,82,127
24415,note_on,95,0,1,,,,,,,,,,,,,,,0,,,82,0
24416,note_on,1,0,1,,,,,,,,,,,,,,,0,,,65,127
24474,note_on,58,0,1,,,,,,,,,,,,,,,0,,,58,0
24512,note_on,38,0,1,,,,,,,,,,,,,,,0,,,62,127
24607,note_on,95,0,1,,,,,,,,,,,,,,,0,,,62,0
24608,note_on,1,0,1,,,,,,,,,,,,,,,0,,,60,127
24656,note_on,0,0,1,,,,,,,,,,,,,,,0,,,63,127
24656,note_on,48,0,1,,,,,,,,,,,,,,,0,,,65,0
24703,note_on,47,0,1,,,,,,,,,,,,,,,0,,,63,0
24703,note_on,0,0,1,,,,,,,,,,,,,,,0,,,60,0
24704,note_on,1,0,1,,,,,,,,,,,,,,,0,,,53,127
24704,note_on,0,0,1,,,,,,,,,,,,,,,0,,,62,127
24751,note_on,47,0,1,,,,,,,,,,,,,,,0,,,62,0
24752,note_on,1,0,1,,,,,,,,,,,,,,,0,,,63,127
24799,note_on,47,0,1,,,,,,,,,,,,,,,0,,,63,0
24799,note_on,0,0,1,,,,,,,,,,,,,,,0,,,53,0
24800,note_on,1,0,1,,,,,,,,,,,,,,,0,,,58,127
24800,note_on,0,0,1,,,,,,,,,,,,,,,0,,,62,127
24895,note_on,95,0,1,,,,,,,,,,,,,,,0,,,62,0
24896,note_on,1,0,1,,,,,,,,,,,,,,,0,,,77,127
24991,note_on,95,0,1,,,,,,,,,,,,,,,0,,,77,0
24992,note_on,1,0,1,,,,,,,,,,,,,,,0,,,74,127
25087,note_on,95,0,1,,,,,,,,,,,,,,,0,,,74,0
25087,note_on,0,0,1,,,,,,,,,,,,,,,0,,,58,0
25088,note_on,1,0,1,,,,,,,,,,,,,,,0,,,60,127
25088,note_on,0,0,1,,,,,,,,,,,,,,,0,,,69,127
25183,note_on,95,0,1,,,,,,,,,,,,,,,0,,,69,0
25183,note_on,0,0,1,,,,,,,,,,,,,,,0,,,60,0
25184,note_on,0,0,1,,,,,,,,,,,,,,,0,,,70,127
25184,note_on,1,0,1,,,,,,,,,,,,,,,0,,,62,127
25279,note_on,95,0,1,,,,,,,,,,,,,,,0,,,70,0
25280,note_on,1,0,1,,,,,,,,,,,,,,,0,,,82,127
25375,note_on,95,0,1,,,,,,,,,,,,,,,0,,,82,0
25375,note_on,0,0,1,,,,,,,,,,,,,,,0,,,62,0
25376,note_on,1,0,1,,,,,,,,,,,,,,,0,,,63,127
25376,note_on,0,0,1,,,,,,,,,,,,,,,0,,,79,127
25471,note_on,95,0,1,,,,,,,,,,,,,,,0,,,79,0
25472,note_on,1,0,1,,,,,,,,,,,,,,,0,,,75,127
25567,note_on,95,0,1,,,,,,,,,,,,,,,0,,,75,0
25567,note_on,0,0,1,,,,,,,,,,,,,,,0,,,63,0
25568,note_on,1,0,1,,,,,,,,,,,,,,,0,,,65,127
25568,note_on,0,0,1,,,,,,,,,,,,,,,0,,,74,127
25663,note_on,95,0,1,,,,,,,,,,,,,,,0,,,74,0
25664,note_on,1,0,1,,,,,,,,,,,,,,,0,,,72,127
25759,note_on,95,0,1,,,,,,,,,,,,,,,0,,,72,0
25760,note_on,0,0,1,,,,,,,,,,,,,,,0,,,70,127
25760,note_on,1,0,1,,,,,,,,,,,,,,,0,,,53,127
25855,note_on,95,0,1,,,,,,,,,,,,,,,0,,,70,0
25856,note_on,1,0,1,,,,,,,,,,,,,,,0,,,65,0
25856,note_on,0,0,1,,,,,,,,,,,,,,,0,,,69,127
25951,note_on,95,0,1,,,,,,,,,,,,,,,0,,,69,0
25951,note_on,0,0,1,,,,,,,,,,,,,,,0,,,53,0
25952,note_on,1,0,1,,,,,,,,,,,,,,,0,,,46,127
25952,note_on,0,0,1,,,,,,,,,,,,,,,0,,,70,127
26042,note_on,90,0,1,,,,,,,,,,,,,,,0,,,46,0
26048,note_on,6,0,1,,,,,,,,,,,,,,,0,,,46,127
26138,note_on,90,0,1,,,,,,,,,,,,,,,0,,,46,0
26144,note_on,6,0,1,,,,,,,,,,,,,,,0,,,46,127
26144,note_on,0,0,1,,,,,,,,,,,,,,,0,,,74,127
26144,note_on,0,0,1,,,,,,,,,,,,,,,0,,,82,127
26234,note_on,90,0,1,,,,,,,,,,,,,,,0,,,46,0
26240,note_on,6,0,1,,,,,,,,,,,,,,,0,,,46,127
26330,note_on,90,0,1,,,,,,,,,,,,,,,0,,,46,0
26335,note_on,5,0,1,,,,,,,,,,,,,,,0,,,82,0
26335,note_on,0,0,1,,,,,,,,,,,,,,,0,,,74,0
26336,note_on,1,0,1,,,,,,,,,,,,,,,0,,,46,127
26336,note_on,0,0,1,,,,,,,,,,,,,,,0,,,80,127
26336,note_on,0,0,1,,,,,,,,,,,,,,,0,,,77,127
26426,note_on,90,0,1,,,,,,,,,,,,,,,0,,,46,0
26432,note_on,6,0,1,,,,,,,,,,,,,,,0,,,46,127
26522,note_on,90,0,1,,,,,,,,,,,,,,,0,,,46,0
26527,note_on,5,0,1,,,,,,,,,,,,,,,0,,,77,0
26527,note_on,0,0,1,,,,,,,,,,,,,,,0,,,80,0
26528,note_on,0,0,1,,,,,,,,,,,,,,,0,,,75,127
26528,note_on,0,0,1,,,,,,,,,,,,,,,0,,,79,127
26528,note_on,1,0,1,,,,,,,,,,,,,,,0,,,46,127
26618,note_on,90,0,1,,,,,,,,,,,,,,,0,,,46,0
26624,note_on,6,0,1,,,,,,,,,,,,,,,0,,,46,127
26714,note_on,90,0,1,,,,,,,,,,,,,,,0,,,46,0
26719,note_on,5,0,1,,,,,,,,,,,,,,,0,,,79,0
26719,note_on,0,0,1,,,,,,,,,,,,,,,0,,,75,0
26719,note_on,0,0,1,,,,,,,,,,,,,,,0,,,70,0
26720,note_on,0,0,1,,,,,,,,,,,,,,,0,,,77,127
26720,note_on,1,0,1,,,,,,,,,,,,,,,0,,,46,127
26720,note_on,0,0,1,,,,,,,,,,,,,,,0,,,69,127
26810,note_on,90,0,1,,,,,,,,,,,,,,,0,,,46,0
26816,note_on,6,0,1,,,,,,,,,,,,,,,0,,,46,127
26906,note_on,90,0,1,,,,,,,,,,,,,,,0,,,46,0
26911,note_on,5,0,1,,,,,,,,,,,,,,,0,,,77,0
26911,note_on,0,0,1,,,,,,,,,,,,,,,0,,,69,0
26912,note_on,1,0,1,,,,,,,,,,,,,,,0,,,46,127
26912,note_on,0,0,1,,,,,,,,,,,,,,,0,,,75,127
26912,note_on,0,0,1,,,,,,,,,,,,,,,0,,,72,127
27002,note_on,90,0,1,,,,,,,,,,,,,,,0,,,46,0
27008,note_on,6,0,1,,,,,,,,,,,,,,,0,,,46,127
27098,note_on,90,0,1,,,,,,,,,,,,,,,0,,,46,0
27103,note_on,5,0,1,,,,,,,,,,,,,,,0,,,72,0
27103,note_on,0,0,1,,,,,,,,,,,,,,,0,,,75,0
27104,note_on,0,0,1,,,,,,,,,,,,,,,0,,,74,127
27104,note_on,0,0,1,,,,,,,,,,,,,,,0,,,70,127
27104,note_on,1,0,1,,,,,,,,,,,,,,,0,,,46,127
27194,note_on,90,0,1,,,,,,,,,,,,,,,0,,,46,0
27200,note_on,6,0,1,,,,,,,,,,,,,,,0,,,46,127
27290,note_on,90,0,1,,,,,,,,,,,,,,,0,,,46,0
27295,note_on,5,0,1,,,,,,,,,,,,,,,0,,,70,0
27295,note_on,0,0,1,,,,,,,,,,,,,,,0,,,74,0
27296,note_on,1,0,1,,,,,,,,,,,,,,,0,,,51,127
27296,note_on,0,0,1,,,,,,,,,,,,,,,0,,,63,127
27296,note_on,0,0,1,,,,,,,,,,,,,,,0,,,72,127
27386,note_on,90,0,1,,,,,,,,,,,,,,,0,,,51,0
27392,note_on,6,0,1,,,,,,,,,,,,,,,0,,,51,127
27482,note_on,90,0,1,,,,,,,,,,,,,,,0,,,51,0
27487,note_on,0,0,1,,,,,,,,,,,,,,,0,,,63,0
27487,note_on,5,0,1,,,,,,,,,,,,,,,0,,,72,0
27488,note_on,0,0,1,,,,,,,,,,,,,,,0,,,67,127
27488,note_on,1,0,1,,,,,,,,,,,,,,,0,,,51,127
27488,note_on,0,0,1,,,,,,,,,,,,,,,0,,,70,127
27578,note_on,90,0,1,,,,,,,,,,,,,,,0,,,51,0
27584,note_on,6,0,1,,,,,,,,,,,,,,,0,,,51,127
27674,note_on,90,0,1,,,,,,,,,,,,,,,0,,,51,0
27679,note_on,0,0,1,,,,,,,,,,,,,,,0,,,70,0
27679,note_on,5,0,1,,,,,,,,,,,,,,,0,,,67,0
27680,note_on,1,0,1,,,,,,,,,,,,,,,0,,,53,127
27680,note_on,0,0,1,,,,,,,,,,,,,,,0,,,69,127
27775,note_on,95,0,1,,,,,,,,,,,,,,,0,,,69,0
27776,note_on,1,0,1,,,,,,,,,,,,,,,0,,,67,127
27871,note_on,95,0,1,,,,,,,,,,,,,,,0,,,67,0
27872,note_on,1,0,1,,,,,,,,,,,,,,,0,,,65,127
27967,note_on,95,0,1,,,,,,,,,,,,,,,0,,,65,0
27967,note_on,0,0,1,,,,,,,,,,,,,,,0,,,53,0
27968,note_on,0,0,1,,,,,,,,,,,,,,,0,,,69,127
27968,note_on,1,0,1,,,,,,,,,,,,,,,0,,,51,127
28063,note_on,95,0,1,,,,,,,,,,,,,,,0,,,69,0
28063,note_on,0,0,1,,,,,,,,,,,,,,,0,,,51,0
28064,note_on,1,0,1,,,,,,,,,,,,,,,0,,,50,127
28064,note_on,0,0,1,,,,,,,,,,,,,,,0,,,70,127
28159,note_on,95,0,1,,,,,,,,,,,,,,,0,,,70,0
28160,note_on,1,0,1,,,,,,,,,,,,,,,0,,,77,127
28255,note_on,95,0,1,,,,,,,,,,,,,,,0,,,77,0
28255,note_on,0,0,1,,,,,,,,,,,,,,,0,,,50,0
28256,note_on,1,0,1,,,,,,,,,,,,,,,0,,,51,127
28256,note_on,0,0,1,,,,,,,,,,,,,,,0,,,79,127
28351,note_on,95,0,1,,,,,,,,,,,,,,,0,,,79,0
28352,note_on,1,0,1,,,,,,,,,,,,,,,0,,,75,127
28447,note_on,95,0,1,,,,,,,,,,,,,,,0,,,75,0
28447,note_on,0,0,1,,,,,,,,,,,,,,,0,,,51,0
28448,note_on,1,0,1,,,,,,,,,,,,,,,0,,,53,127
28448,note_on,0,0,1,,,,,,,,,,,,,,,0,,,74,127
28543,note_on,95,0,1,,,,,,,,,,,,,,,0,,,74,0
28544,note_on,1,0,1,,,,,,,,,,,,,,,0,,,72,127
28639,note_on,95,0,1,,,,,,,,,,,,,,,0,,,72,0
28639,note_on,0,0,1,,,,,,,,,,,,,,,0,,,53,0
28640,note_on,1,0,1,,,,,,,,,,,,,,,0,,,41,127
28640,note_on,0,0,1,,,,,,,,,,,,,,,0,,,70,127
28735,note_on,95,0,1,,,,,,,,,,,,,,,0,,,70,0
28736,note_on,1,0,1,,,,,,,,,,,,,,,0,,,69,127
28831,note_on,95,0,1,,,,,,,,,,,,,,,0,,,69,0
28831,note_on,0,0,1,,,,,,,,,,,,,,,0,,,41,0
28832,note_on,0,0,1,,,,,,,,,,,,,,,0,,,70,127
28832,note_on,1,0,1,,,,,,,,,,,,,,,0,,,46,127
28922,note_on,90,0,1,,,,,,,,,,,,,,,0,,,46,0
28928,note_on,6,0,1,,,,,,,,,,,,,,,0,,,46,127
29018,note_on,90,0,1,,,,,,,,,,,,,,,0,,,46,0
29024,note_on,6,0,1,,,,,,,,,,,,,,,0,,,46,127
29024,note_on,0,0,1,,,,,,,,,,,,,,,0,,,82,127
29024,note_on,0,0,1,,,,,,,,,,,,,,,0,,,74,127
29114,note_on,90,0,1,,,,,,,,,,,,,,,0,,,46,0
29120,note_on,6,0,1,,,,,,,,,,,,,,,0,,,46,127
29210,note_on,90,0,1,,,,,,,,,,,,,,,0,,,46,0
29215,note_on,5,0,1,,,,,,,,,,,,,,,0,,,74,0
29215,note_on,0,0,1,,,,,,,,,,,,,,,0,,,82,0
29216,note_on,0,0,1,,,,,,,,,,,,,,,0,,,80,127
29216,note_on,1,0,1,,,,,,,,,,,,,,,0,,,46,127
29216,note_on,0,0,1,,,,,,,,,,,,,,,0,,,77,127
29306,note_on,90,0,1,,,,,,,,,,,,,,,0,,,46,0
29312,note_on,6,0,1,,,,,,,,,,,,,,,0,,,46,127
29402,note_on,90,0,1,,,,,,,,,,,,,,,0,,,46,0
29407,note_on,0,0,1,,,,,,,,,,,,,,,0,,,80,0
29407,note_on,5,0,1,,,,,,,,,,,,,,,0,,,77,0
29408,note_on,1,0,1,,,,,,,,,,,,,,,0,,,46,127
29408,note_on,0,0,1,,,,,,,,,,,,,,,0,,,79,127
29408,note_on,0,0,1,,,,,,,,,,,,,,,0,,,75,127
29498,note_on,90,0,1,,,,,,,,,,,,,,,0,,,46,0
29504,note_on,6,0,1,,,,,,,,,,,,,,,0,,,46,127
29594,note_on,90,0,1,,,,,,,,,,,,,,,0,,,46,0
29599,note_on,0,0,1,,,,,,,,,,,,,,,0,,,70,0
29599,note_on,5,0,1,,,,,,,,,,,,,,,0,,,75,0
29599,note_on,0,0,1,,,,,,,,,,,,,,,0,,,79,0
29600,note_on,1,0,1,,,,,,,,,,,,,,,0,,,46,127
29600,note_on,0,0,1,,,,,,,,,,,,,,,0,,,77,127
29600,note_on,0,0,1,,,,,,,,,,,,,,,0,,,69,127
29690,note_on,90,0,1,,,,,,,,,,,,,,,0,,,46,0
29696,note_on,6,0,1,,,,,,,,,,,,,,,0,,,46,127
29786,note_on,90,0,1,,,,,,,,,,,,,,,0,,,46,0
29791,note_on,5,0,1,,,,,,,,,,,,,,,0,,,77,0
29791,note_on,0,0,1,,,,,,,,,,,,,,,0,,,69,0
29792,note_on,1,0,1,,,,,,,,,,,,,,,0,,,46,127
29792,note_on,0,0,1,,,,,,,,,,,,,,,0,,,75,127
29792,note_on,0,0,1,,,,,,,,,,,,,,,0,,,72,127
29882,note_on,90,0,1,,,,,,,,,,,,,,,0,,,46,0
29888,note_on,6,0,1,,,,,,,,,,,,,,,0,,,46,127
29978,note_on,90,0,1,,,,,,,,,,,,,,,0,,,46,0
29983,note_on,5,0,1,,,,,,,,,,,,,,,0,,,72,0
29983,note_on,0,0,1,,,,,,,,,,,,,,,0,,,75,0
29984,note_on,0,0,1,,,,,,,,,,,,,,,0,,,74,127
29984,note_on,0,0,1,,,,,,,,,,,,,,,0,,,70,127
29984,note_on,1,0,1,,,,,,,,,,,,,,,0,,,46,127
30074,note_on,90,0,1,,,,,,,,,,,,,,,0,,,46,0
30080,note_on,6,0,1,,,,,,,,,,,,,,,0,,,46,127
30170,note_on,90,0,1,,,,,,,,,,,,,,,0,,,46,0
30175,note_on,5,0,1,,,,,,,,,,,,,,,0,,,70,0
30175,note_on,0,0,1,,,,,,,,,,,,,,,0,,,74,0
30176,note_on,0,0,1,,,,,,,,,,,,,,,0,,,72,127
30176,note_on,1,0,1,,,,,,,,,,,,,,,0,,,51,127
30176,note_on,0,0,1,,,,,,,,,,,,,,,0,,,63,127
30266,note_on,90,0,1,,,,,,,,,,,,,,,0,,,51,0
30272,note_on,6,0,1,,,,,,,,,,,,,,,0,,,51,127
30362,note_on,90,0,1,,,,,,,,,,,,,,,0,,,51,0
30367,note_on,5,0,1,,,,,,,,,,,,,,,0,,,72,0
30367,note_on,0,0,1,,,,,,,,,,,,,,,0,,,63,0
30368,note_on,1,0,1,,,,,,,,,,,,,,,0,,,51,127
30368,note_on,0,0,1,,,,,,,,,,,,,,,0,,,70,127
30368,note_on,0,0,1,,,,,,,,,,,,,,,0,,,67,127
30458,note_on,90,0,1,,,,,,,,,,,,,,,0,,,51,0
30464,note_on,6,0,1,,,,,,,,,,,,,,,0,,,51,127
30554,note_on,90,0,1,,,,,,,,,,,,,,,0,,,51,0
30559,note_on,5,0,1,,,,,,,,,,,,,,,0,,,67,0
30559,note_on,0,0,1,,,,,,,,,,,,,,,0,,,70,0
30560,note_on,1,0,1,,,,,,,,,,,,,,,0,,,53,127
30560,note_on,0,0,1,,,,,,,,,,,,,,,0,,,69,127
30655,note_on,95,0,1,,,,,,,,,,,,,,,0,,,69,0
30656,note_on,1,0,1,,,,,,,,,,,,,,,0,,,67,127
30751,note_on,95,0,1,,,,,,,,,,,,,,,0,,,67,0
30752,note_on,1,0,1,,,,,,,,,,,,,,,0,,,65,127
30847,note_on,95,0,1,,,,,,,,,,,,,,,0,,,65,0
30847,note_on,0,0,1,,,,,,,,,,,,,,,0,,,53,0
30848,note_on,0,0,1,,,,,,,,,,,,,,,0,,,69,127
30848,note_on,1,0,1,,,,,,,,,,,,,,,0,,,51,127
30943,note_on,95,0,1,,,,,,,,,,,,,,,0,,,69,0
30943,note_on,0,0,1,,,,,,,,,,,,,,,0,,,51,0
30944,note_on,0,0,1,,,,,,,,,,,,,,,0,,,70,127
30944,note_on,1,0,1,,,,,,,,,,,,,,,0,,,50,127
31039,note_on,95,0,1,,,,,,,,,,,,,,,0,,,70,0
31040,note_on,1,0,1,,,,,,,,,,,,,,,0,,,77,127
31135,note_on,95,0,1,,,,,,,,,,,,,,,0,,,77,0
31135,note_on,0,0,1,,,,,,,,,,,,,,,0,,,50,0
31136,note_on,0,0,1,,,,,,,,,,,,,,,0,,,79,127
31136,note_on,1,0,1,,,,,,,,,,,,,,,0,,,51,127
31231,note_on,95,0,1,,,,,,,,,,,,,,,0,,,79,0
31232,note_on,1,0,1,,,,,,,,,,,,,,,0,,,75,127
31327,note_on,95,0,1,,,,,,,,,,,,,,,0,,,75,0
31327,note_on,0,0,1,,,,,,,,,,,,,,,0,,,51,0
31328,note_on,1,0,1,,,,,,,,,,,,,,,0,,,53,127
31328,note_on,0,0,1,,,,,,,,,,,,,,,0,,,74,127
31423,note_on,95,0,1,,,,,,,,,,,,,,,0,,,74,0
31424,note_on,1,0,1,,,,,,,,,,,,,,,0,,,72,127
31519,note_on,95,0,1,,,,,,,,,,,,,,,0,,,72,0
31519,note_on,0,0,1,,,,,,,,,,,,,,,0,,,53,0
31520,note_on,0,0,1,,,,,,,,,,,,,,,0,,,70,127
31520,note_on,1,0,1,,,,,,,,,,,,,,,0,,,41,127
31615,note_on,95,0,1,,,,,,,,,,,,,,,0,,,70,0
31616,note_on,1,0,1,,,,,,,,,,,,,,,0,,,69,127
31711,note_on,95,0,1,,,,,,,,,,,,,,,0,,,69,0
31711,note_on,0,0,1,,,,,,,,,,,,,,,0,,,41,0
31712,note_on,1,0,1,,,,,,,,,,,,,,,0,,,46,127
31712,note_on,0,0,1,,,,,,,,,,,,,,,0,,,82,127
31807,note_on,95,0,1,,,,,,,,,,,,,,,0,,,82,0
31808,note_on,1,0,1,,,,,,,,,,,,,,,0,,,77,127
31903,note_on,95,0,1,,,,,,,,,,,,,,,0,,,77,0
31904,note_on,1,0,1,,,,,,,,,,,,,,,0,,,74,127
31999,note_on,95,0,1,,,,,,,,,,,,,,,0,,,74,0
32000,note_on,1,0,1,,,,,,,,,,,,,,,0,,,70,127
32095,note_on,95,0,1,,,,,,,,,,,,,,,0,,,70,0
32096,note_on,1,0,1,,,,,,,,,,,,,,,0,,,65,127
32191,note_on,95,0,1,,,,,,,,,,,,,,,0,,,65,0
32192,note_on,1,0,1,,,,,,,,,,,,,,,0,,,62,127
32287,note_on,95,0,1,,,,,,,,,,,,,,,0,,,62,0
32287,note_on,0,0,1,,,,,,,,,,,,,,,0,,,46,0
32288,note_on,1,0,1,,,,,,,,,,,,,,,0,,,46,127
32288,note_on,0,0,1,,,,,,,,,,,,,,,0,,,58,127
32383,note_on,95,0,1,,,,,,,,,,,,,,,0,,,58,0
32384,note_on,1,0,1,,,,,,,,,,,,,,,0,,,53,127
32479,note_on,95,0,1,,,,,,,,,,,,,,,0,,,53,0
32480,note_on,1,0,1,,,,,,,,,,,,,,,0,,,58,127
32575,note_on,95,0,1,,,,,,,,,,,,,,,0,,,58,0
32576,note_on,1,0,1,,,,,,,,,,,,,,,0,,,62,127
32671,note_on,95,0,1,,,,,,,,,,,,,,,0,,,62,0
32672,note_on,1,0,1,,,,,,,,,,,,,,,0,,,65,127
32767,note_on,95,0,1,,,,,,,,,,,,,,,0,,,65,0
32768,note_on,1,0,1,,,,,,,,,,,,,,,0,,,70,127
32863,note_on,95,0,1,,,,,,,,,,,,,,,0,,,70,0
32863,note_on,0,0,1,,,,,,,,,,,,,,,0,,,46,0
32864,note_on,1,0,1,,,,,,,,,,,,,,,0,,,34,127
32864,note_on,0,0,1,,,,,,,,,,,,,,,0,,,72,127
32896,note_on,32,0,1,,,,,,,,,,,,,,,0,,,70,127
32911,note_on,15,0,1,,,,,,,,,,,,,,,0,,,72,0
32928,note_on,17,0,1,,,,,,,,,,,,,,,0,,,72,127
32943,note_on,15,0,1,,,,,,,,,,,,,,,0,,,70,0
32960,note_on,17,0,1,,,,,,,,,,,,,,,0,,,70,127
32975,note_on,15,0,1,,,,,,,,,,,,,,,0,,,72,0
33340,note_on,365,0,1,,,,,,,,,,,,,,,0,,,70,0
33439,note_on,99,0,1,,,,,,,,,,,,,,,0,,,34,0
33440,note_on,1,0,1,,,,,,,,,,,,,,,0,,,46,127
33535,note_on,95,0,1,,,,,,,,,,,,,,,0,,,46,0
33536,note_on,1,0,1,,,,,,,,,,,,,,,0,,,58,127
33631,note_on,95,0,1,,,,,,,,,,,,,,,0,,,58,0
33632,note_on,1,0,1,,,,,,,,,,,,,,,0,,,56,127
33632,note_on,0,0,1,,,,,,,,,,,,,,,0,,,65,127
33632,note_on,0,0,1,,,,,,,,,,,,,,,0,,,74,127
33727,note_on,95,0,1,,,,,,,,,,,,,,,0,,,56,0
33728,note_on,1,0,1,,,,,,,,,,,,,,,0,,,55,127
33823,note_on,0,0,1,,,,,,,,,,,,,,,0,,,65,0
33823,note_on,0,0,1,,,,,,,,,,,,,,,0,,,74,0
33823,note_on,95,0,1,,,,,,,,,,,,,,,0,,,55,0
33824,note_on,1,0,1,,,,,,,,,,,,,,,0,,,53,127
33824,note_on,0,0,1,,,,,,,,,,,,,,,0,,,75,127
33824,note_on,0,0,1,,,,,,,,,,,,,,,0,,,67,127
33919,note_on,95,0,1,,,,,,,,,,,,,,,0,,,53,0
33920,note_on,1,0,1,,,,,,,,,,,,,,,0,,,51,127
34015,note_on,95,0,1,,,,,,,,,,,,,,,0,,,51,0
34015,note_on,0,0,1,,,,,,,,,,,,,,,0,,,67,0
34015,note_on,0,0,1,,,,,,,,,,,,,,,0,,,75,0
34016,note_on,0,0,1,,,,,,,,,,,,,,,0,,,68,127
34016,note_on,1,0,1,,,,,,,,,,,,,,,0,,,50,127
34016,note_on,0,0,1,,,,,,,,,,,,,,,0,,,77,127
34111,note_on,95,0,1,,,,,,,,,,,,,,,0,,,50,0
34112,note_on,1,0,1,,,,,,,,,,,,,,,0,,,48,127
34207,note_on,0,0,1,,,,,,,,,,,,,,,0,,,77,0
34207,note_on,0,0,1,,,,,,,,,,,,,,,0,,,68,0
34207,note_on,95,0,1,,,,,,,,,,,,,,,0,,,48,0
34208,note_on,1,0,1,,,,,,,,,,,,,,,0,,,46,127
34208,note_on,0,0,1,,,,,,,,,,,,,,,0,,,79,127
34208,note_on,0,0,1,,,,,,,,,,,,,,,0,,,70,127
34303,note_on,95,0,1,,,,,,,,,,,,,,,0,,,46,0
34304,note_on,1,0,1,,,,,,,,,,,,,,,0,,,44,127
34399,note_on,0,0,1,,,,,,,,,,,,,,,0,,,79,0
34399,note_on,95,0,1,,,,,,,,,,,,,,,0,,,44,0
34399,note_on,0,0,1,,,,,,,,,,,,,,,0,,,70,0
34400,note_on,1,0,1,,,,,,,,,,,,,,,0,,,43,127
34400,note_on,0,0,1,,,,,,,,,,,,,,,0,,,74,127
34400,note_on,0,0,1,,,,,,,,,,,,,,,0,,,80,127
34495,note_on,95,0,1,,,,,,,,,,,,,,,0,,,43,0
34496,note_on,1,0,1,,,,,,,,,,,,,,,0,,,41,127
34591,note_on,95,0,1,,,,,,,,,,,,,,,0,,,41,0
34591,note_on,0,0,1,,,,,,,,,,,,,,,0,,,74,0
34591,note_on,0,0,1,,,,,,,,,,,,,,,0,,,80,0
34592,note_on,1,0,1,,,,,,,,,,,,,,,0,,,39,127
34592,note_on,0,0,1,,,,,,,,,,,,,,,0,,,75,127
34592,note_on,0,0,1,,,,,,,,,,,,,,,0,,,79,127
34687,note_on,95,0,1,,,,,,,,,,,,,,,0,,,39,0
34688,note_on,1,0,1,,,,,,,,,,,,,,,0,,,58,127
34783,note_on,95,0,1,,,,,,,,,,,,,,,0,,,58,0
34783,note_on,0,0,1,,,,,,,,,,,,,,,0,,,79,0
34783,note_on,0,0,1,,,,,,,,,,,,,,,0,,,75,0
34784,note_on,0,0,1,,,,,,,,,,,,,,,0,,,65,127
34784,note_on,1,0,1,,,,,,,,,,,,,,,0,,,56,127
34784,note_on,0,0,1,,,,,,,,,,,,,,,0,,,74,127
34879,note_on,95,0,1,,,,,,,,,,,,,,,0,,,56,0
34880,note_on,1,0,1,,,,,,,,,,,,,,,0,,,55,127
34975,note_on,0,0,1,,,,,,,,,,,,,,,0,,,65,0
34975,note_on,95,0,1,,,,,,,,,,,,,,,0,,,55,0
34975,note_on,0,0,1,,,,,,,,,,,,,,,0,,,74,0
34976,note_on,1,0,1,,,,,,,,,,,,,,,0,,,53,127
34976,note_on,0,0,1,,,,,,,,,,,,,,,0,,,75,127
34976,note_on,0,0,1,,,,,,,,,,,,,,,0,,,67,127
35071,note_on,95,0,1,,,,,,,,,,,,,,,0,,,53,0
35072,note_on,1,0,1,,,,,,,,,,,,,,,0,,,51,127
35167,note_on,95,0,1,,,,,,,,,,,,,,,0,,,51,0
35167,note_on,0,0,1,,,,,,,,,,,,,,,0,,,67,0
35167,note_on,0,0,1,,,,,,,,,,,,,,,0,,,75,0
35168,note_on,0,0,1,,,,,,,,,,,,,,,0,,,68,127
35168,note_on,0,0,1,,,,,,,,,,,,,,,0,,,77,127
35168,note_on,1,0,1,,,,,,,,,,,,,,,0,,,50,127
35263,note_on,95,0,1,,,,,,,,,,,,,,,0,,,50,0
35264,note_on,1,0,1,,,,,,,,,,,,,,,0,,,48,127
35359,note_on,95,0,1,,,,,,,,,,,,,,,0,,,48,0
35359,note_on,0,0,1,,,,,,,,,,,,,,,0,,,77,0
35359,note_on,0,0,1,,,,,,,,,,,,,,,0,,,68,0
35360,note_on,1,0,1,,,,,,,,,,,,,,,0,,,46,127
35360,note_on,0,0,1,,,,,,,,,,,,,,,0,,,79,127
35360,note_on,0,0,1,,,,,,,,,,,,,,,0,,,70,127
35455,note_on,95,0,1,,,,,,,,,,,,,,,0,,,46,0
35456,note_on,1,0,1,,,,,,,,,,,,,,,0,,,44,127
35551,note_on,0,0,1,,,,,,,,,,,,,,,0,,,70,0
35551,note_on,95,0,1,,,,,,,,,,,,,,,0,,,44,0
35551,note_on,0,0,1,,,,,,,,,,,,,,,0,,,79,0
35552,note_on,0,0,1,,,,,,,,,,,,,,,0,,,80,127
35552,note_on,0,0,1,,,,,,,,,,,,,,,0,,,74,127
35552,note_on,1,0,1,,,,,,,,,,,,,,,0,,,43,127
35647,note_on,95,0,1,,,,,,,,,,,,,,,0,,,43,0
35648,note_on,1,0,1,,,,,,,,,,,,,,,0,,,41,127
35743,note_on,95,0,1,,,,,,,,,,,,,,,0,,,41,0
35743,note_on,0,0,1,,,,,,,,,,,,,,,0,,,74,0
35743,note_on,0,0,1,,,,,,,,,,,,,,,0,,,80,0
35744,note_on,0,0,1,,,,,,,,,,,,,,,0,,,75,127
35744,note_on,1,0,1,,,,,,,,,,,,,,,0,,,39,127
35744,note_on,0,0,1,,,,,,,,,,,,,,,0,,,79,127
35839,note_on,0,0,1,,,,,,,,,,,,,,,0,,,79,0
35839,note_on,95,0,1,,,,,,,,,,,,,,,0,,,75,0
35840,note_on,1,0,1,,,,,,,,,,,,,,,0,,,77,127
35935,note_on,95,0,1,,,,,,,,,,,,,,,0,,,77,0
35936,note_on,1,0,1,,,,,,,,,,,,,,,0,,,75,127
36031,note_on,95,0,1,,,,,,,,,,,,,,,0,,,75,0
36032,note_on,1,0,1,,,,,,,,,,,,,,,0,,,74,127
36127,note_on,95,0,1,,,,,,,,,,,,,,,0,,,74,0
36128,note_on,1,0,1,,,,,,,,,,,,,,,0,,,72,127
36223,note_on,95,0,1,,,,,,,,,,,,,,,0,,,72,0
36224,note_on,1,0,1,,,,,,,,,,,,,,,0,,,70,127
36319,note_on,0,0,1,,,,,,,,,,,,,,,0,,,39,0
36319,note_on,95,0,1,,,,,,,,,,,,,,,0,,,70,0
36320,note_on,1,0,1,,,,,,,,,,,,,,,0,,,41,127
36320,note_on,0,0,1,,,,,,,,,,,,,,,0,,,68,127
36415,note_on,95,0,1,,,,,,,,,,,,,,,0,,,68,0
36416,note_on,1,0,1,,,,,,,,,,,,,,,0,,,67,127
36511,note_on,95,0,1,,,,,,,,,,,,,,,0,,,67,0
36512,note_on,1,0,1,,,,,,,,,,,,,,,0,,,65,127
36607,note_on,95,0,1,,,,,,,,,,,,,,,0,,,65,0
36608,note_on,1,0,1,,,,,,,,,,,,,,,0,,,63,127
36703,note_on,95,0,1,,,,,,,,,,,,,,,0,,,63,0
36704,note_on,1,0,1,,,,,,,,,,,,,,,0,,,62,127
36799,note_on,95,0,1,,,,,,,,,,,,,,,0,,,62,0
36800,note_on,1,0,1,,,,,,,,,,,,,,,0,,,60,127
36895,note_on,95,0,1,,,,,,,,,,,,,,,0,,,60,0
36895,note_on,0,0,1,,,,,,,,,,,,,,,0,,,41,0
36896,note_on,1,0,1,,,,,,,,,,,,,,,0,,,43,127
36896,note_on,0,0,1,,,,,,,,,,,,,,,0,,,59,127
36992,note_on,96,0,1,,,,,,,,,,,,,,,0,,,55,127
37016,note_on,24,0,1,,,,,,,,,,,,,,,0,,,43,0
37056,note_on,40,0,1,,,,,,,,,,,,,,,0,,,59,0
37087,note_on,31,0,1,,,,,,,,,,,,,,,0,,,55,0
37088,note_on,1,0,1,,,,,,,,,,,,,,,0,,,53,127
37088,note_on,0,0,1,,,,,,,,,,,,,,,0,,,71,127
37088,note_on,0,0,1,,,,,,,,,,,,,,,0,,,62,127
37183,note_on,95,0,1,,,,,,,,,,,,,,,0,,,53,0
37184,note_on,1,0,1,,,,,,,,,,,,,,,0,,,51,127
37279,note_on,0,0,1,,,,,,,,,,,,,,,0,,,62,0
37279,note_on,95,0,1,,,,,,,,,,,,,,,0,,,51,0
37279,note_on,0,0,1,,,,,,,,,,,,,,,0,,,71,0
37280,note_on,1,0,1,,,,,,,,,,,,,,,0,,,50,127
37280,note_on,0,0,1,,,,,,,,,,,,,,,0,,,63,127
37280,note_on,0,0,1,,,,,,,,,,,,,,,0,,,72,127
37375,note_on,95,0,1,,,,,,,,,,,,,,,0,,,50,0
37376,note_on,1,0,1,,,,,,,,,,,,,,,0,,,48,127
37471,note_on,95,0,1,,,,,,,,,,,,,,,0,,,48,0
37471,note_on,0,0,1,,,,,,,,,,,,,,,0,,,72,0
37471,note_on,0,0,1,,,,,,,,,,,,,,,0,,,63,0
37472,note_on,1,0,1,,,,,,,,,,,,,,,0,,,47,127
37472,note_on,0,0,1,,,,,,,,,,,,,,,0,,,74,127
37472,note_on,0,0,1,,,,,,,,,,,,,,,0,,,65,127
37567,note_on,95,0,1,,,,,,,,,,,,,,,0,,,47,0
37568,note_on,1,0,1,,,,,,,,,,,,,,,0,,,45,127
37663,note_on,0,0,1,,,,,,,,,,,,,,,0,,,74,0
37663,note_on,95,0,1,,,,,,,,,,,,,,,0,,,45,0
37663,note_on,0,0,1,,,,,,,,,,,,,,,0,,,65,0
37664,note_on,1,0,1,,,,,,,,,,,,,,,0,,,43,127
37664,note_on,0,0,1,,,,,,,,,,,,,,,0,,,67,127
37664,note_on,0,0,1,,,,,,,,,,,,,,,0,,,75,127
37759,note_on,95,0,1,,,,,,,,,,,,,,,0,,,43,0
37760,note_on,1,0,1,,,,,,,,,,,,,,,0,,,41,127
37855,note_on,95,0,1,,,,,,,,,,,,,,,0,,,41,0
37855,note_on,0,0,1,,,,,,,,,,,,,,,0,,,75,0
37855,note_on,0,0,1,,,,,,,,,,,,,,,0,,,67,0
37856,note_on,0,0,1,,,,,,,,,,,,,,,0,,,71,127
37856,note_on,1,0,1,,,,,,,,,,,,,,,0,,,39,127
37856,note_on,0,0,1,,,,,,,,,,,,,,,0,,,77,127
37951,note_on,95,0,1,,,,,,,,,,,,,,,0,,,39,0
37952,note_on,1,0,1,,,,,,,,,,,,,,,0,,,38,127
38047,note_on,0,0,1,,,,,,,,,,,,,,,0,,,77,0
38047,note_on,95,0,1,,,,,,,,,,,,,,,0,,,38,0
38047,note_on,0,0,1,,,,,,,,,,,,,,,0,,,71,0
38048,note_on,0,0,1,,,,,,,,,,,,,,,0,,,75,127
38048,note_on,1,0,1,,,,,,,,,,,,,,,0,,,36,127
38048,note_on,0,0,1,,,,,,,,,,,,,,,0,,,72,127
38143,note_on,95,0,1,,,,,,,,,,,,,,,0,,,36,0
38144,note_on,1,0,1,,,,,,,,,,,,,,,0,,,55,127
38239,note_on,95,0,1,,,,,,,,,,,,,,,0,,,55,0
38239,note_on,0,0,1,,,,,,,,,,,,,,,0,,,72,0
38239,note_on,0,0,1,,,,,,,,,,,,,,,0,,,75,0
38240,note_on,1,0,1,,,,,,,,,,,,,,,0,,,53,127
38240,note_on,0,0,1,,,,,,,,,,,,,,,0,,,71,127
38240,note_on,0,0,1,,,,,,,,,,,,,,,0,,,62,127
38335,note_on,95,0,1,,,,,,,,,,,,,,,0,,,53,0
38336,note_on,1,0,1,,,,,,,,,,,,,,,0,,,51,127
38431,note_on,95,0,1,,,,,,,,,,,,,,,0,,,51,0
38431,note_on,0,0,1,,,,,,,,,,,,,,,0,,,62,0
38431,note_on,0,0,1,,,,,,,,,,,,,,,0,,,71,0
38432,note_on,0,0,1,,,,,,,,,,,,,,,0,,,72,127
38432,note_on,1,0,1,,,,,,,,,,,,,,,0,,,50,127
38432,note_on,0,0,1,,,,,,,,,,,,,,,0,,,63,127
38527,note_on,95,0,1,,,,,,,,,,,,,,,0,,,50,0
38528,note_on,1,0,1,,,,,,,,,,,,,,,0,,,48,127
38623,note_on,95,0,1,,,,,,,,,,,,,,,0,,,48,0
38623,note_on,0,0,1,,,,,,,,,,,,,,,0,,,63,0
38623,note_on,0,0,1,,,,,,,,,,,,,,,0,,,72,0
38624,note_on,1,0,1,,,,,,,,,,,,,,,0,,,47,127
38624,note_on,0,0,1,,,,,,,,,,,,,,,0,,,65,127
38624,note_on,0,0,1,,,,,,,,,,,,,,,0,,,74,127
38719,note_on,95,0,1,,,,,,,,,,,,,,,0,,,47,0
38720,note_on,1,0,1,,,,,,,,,,,,,,,0,,,45,127
38815,note_on,0,0,1,,,,,,,,,,,,,,,0,,,74,0
38815,note_on,95,0,1,,,,,,,,,,,,,,,0,,,45,0
38815,note_on,0,0,1,,,,,,,,,,,,,,,0,,,65,0
38816,note_on,1,0,1,,,,,,,,,,,,,,,0,,,43,127
38816,note_on,0,0,1,,,,,,,,,,,,,,,0,,,75,127
38816,note_on,0,0,1,,,,,,,,,,,,,,,0,,,67,127
38911,note_on,95,0,1,,,,,,,,,,,,,,,0,,,43,0
38912,note_on,1,0,1,,,,,,,,,,,,,,,0,,,41,127
39007,note_on,95,0,1,,,,,,,,,,,,,,,0,,,41,0
39007,note_on,0,0,1,,,,,,,,,,,,,,,0,,,67,0
39007,note_on,0,0,1,,,,,,,,,,,,,,,0,,,75,0
39008,note_on,1,0,1,,,,,,,,,,,,,,,0,,,39,127
39008,note_on,0,0,1,,,,,,,,,,,,,,,0,,,77,127
39008,note_on,0,0,1,,,,,,,,,,,,,,,0,,,71,127
39103,note_on,95,0,1,,,,,,,,,,,,,,,0,,,39,0
39104,note_on,1,0,1,,,,,,,,,,,,,,,0,,,38,127
39199,note_on,0,0,1,,,,,,,,,,,,,,,0,,,77,0
39199,note_on,0,0,1,,,,,,,,,,,,,,,0,,,71,0
39199,note_on,95,0,1,,,,,,,,,,,,,,,0,,,38,0
39200,note_on,1,0,1,,,,,,,,,,,,,,,0,,,36,127
39200,note_on,0,0,1,,,,,,,,,,,,,,,0,,,72,127
39200,note_on,0,0,1,,,,,,,,,,,,,,,0,,,79,127
39200,note_on,0,0,1,,,,,,,,,,,,,,,0,,,75,127
39295,note_on,95,0,1,,,,,,,,,,,,,,,0,,,75,0
39295,note_on,0,0,1,,,,,,,,,,,,,,,0,,,79,0
39296,note_on,1,0,1,,,,,,,,,,,,,,,0,,,77,127
39391,note_on,95,0,1,,,,,,,,,,,,,,,0,,,77,0
39392,note_on,1,0,1,,,,,,,,,,,,,,,0,,,75,127
39487,note_on,95,0,1,,,,,,,,,,,,,,,0,,,75,0
39488,note_on,1,0,1,,,,,,,,,,,,,,,0,,,72,0
39488,note_on,0,0,1,,,,,,,,,,,,,,,0,,,74,127
39583,note_on,95,0,1,,,,,,,,,,,,,,,0,,,74,0
39584,note_on,1,0,1,,,,,,,,,,,,,,,0,,,72,127
39679,note_on,95,0,1,,,,,,,,,,,,,,,0,,,72,0
39680,note_on,1,0,1,,,,,,,,,,,,,,,0,,,70,127
39775,note_on,95,0,1,,,,,,,,,,,,,,,0,,,70,0
39775,note_on,0,0,1,,,,,,,,,,,,,,,0,,,36,0
39776,note_on,1,0,1,,,,,,,,,,,,,,,0,,,41,127
39776,note_on,0,0,1,,,,,,,,,,,,,,,0,,,68,127
39871,note_on,95,0,1,,,,,,,,,,,,,,,0,,,68,0
39872,note_on,1,0,1,,,,,,,,,,,,,,,0,,,67,127
39967,note_on,95,0,1,,,,,,,,,,,,,,,0,,,67,0
39968,note_on,1,0,1,,,,,,,,,,,,,,,0,,,65,127
40063,note_on,95,0,1,,,,,,,,,,,,,,,0,,,65,0
40064,note_on,1,0,1,,,,,,,,,,,,,,,0,,,63,127
40159,note_on,95,0,1,,,,,,,,,,,,,,,0,,,63,0
40160,note_on,1,0,1,,,,,,,,,,,,,,,0,,,62,127
40255,note_on,95,0,1,,,,,,,,,,,,,,,0,,,62,0
40256,note_on,1,0,1,,,,,,,,,,,,,,,0,,,60,127
40351,note_on,95,0,1,,,,,,,,,,,,,,,0,,,60,0
40351,note_on,0,0,1,,,,,,,,,,,,,,,0,,,41,0
40352,note_on,1,0,1,,,,,,,,,,,,,,,0,,,43,127
40352,note_on,0,0,1,,,,,,,,,,,,,,,0,,,59,127
40447,note_on,95,0,1,,,,,,,,,,,,,,,0,,,59,0
40448,note_on,1,0,1,,,,,,,,,,,,,,,0,,,79,127
40543,note_on,95,0,1,,,,,,,,,,,,,,,0,,,43,0
40544,note_on,1,0,1,,,,,,,,,,,,,,,0,,,67,127
40639,note_on,95,0,1,,,,,,,,,,,,,,,0,,,79,0
40640,note_on,1,0,1,,,,,,,,,,,,,,,0,,,74,127
40735,note_on,95,0,1,,,,,,,,,,,,,,,0,,,67,0
40736,note_on,1,0,1,,,,,,,,,,,,,,,0,,,71,127
40831,note_on,95,0,1,,,,,,,,,,,,,,,0,,,74,0
40832,note_on,1,0,1,,,,,,,,,,,,,,,0,,,77,127
40927,note_on,95,0,1,,,,,,,,,,,,,,,0,,,71,0
40928,note_on,1,0,1,,,,,,,,,,,,,,,0,,,72,127
41023,note_on,95,0,1,,,,,,,,,,,,,,,0,,,77,0
41024,note_on,1,0,1,,,,,,,,,,,,,,,0,,,75,127
41119,note_on,95,0,1,,,,,,,,,,,,,,,0,,,72,0
41120,note_on,1,0,1,,,,,,,,,,,,,,,0,,,68,127
41215,note_on,95,0,1,,,,,,,,,,,,,,,0,,,75,0
41216,note_on,1,0,1,,,,,,,,,,,,,,,0,,,74,127
41311,note_on,95,0,1,,,,,,,,,,,,,,,0,,,68,0
41312,note_on,1,0,1,,,,,,,,,,,,,,,0,,,65,127
41407,note_on,95,0,1,,,,,,,,,,,,,,,0,,,74,0
41408,note_on,1,0,1,,,,,,,,,,,,,,,0,,,72,127
41503,note_on,95,0,1,,,,,,,,,,,,,,,0,,,72,0
41503,note_on,0,0,1,,,,,,,,,,,,,,,0,,,65,0
41504,note_on,1,0,1,,,,,,,,,,,,,,,0,,,43,127
41504,note_on,0,0,1,,,,,,,,,,,,,,,0,,,71,127
41599,note_on,95,0,1,,,,,,,,,,,,,,,0,,,71,0
41600,note_on,1,0,1,,,,,,,,,,,,,,,0,,,79,127
41695,note_on,95,0,1,,,,,,,,,,,,,,,0,,,43,0
41696,note_on,1,0,1,,,,,,,,,,,,,,,0,,,67,127
41791,note_on,95,0,1,,,,,,,,,,,,,,,0,,,79,0
41792,note_on,1,0,1,,,,,,,,,,,,,,,0,,,74,127
41887,note_on,95,0,1,,,,,,,,,,,,,,,0,,,67,0
41888,note_on,1,0,1,,,,,,,,,,,,,,,0,,,71,127
41983,note_on,95,0,1,,,,,,,,,,,,,,,0,,,74,0
41984,note_on,1,0,1,,,,,,,,,,,,,,,0,,,77,127
42079,note_on,95,0,1,,,,,,,,,,,,,,,0,,,71,0
42080,note_on,1,0,1,,,,,,,,,,,,,,,0,,,72,127
42175,note_on,95,0,1,,,,,,,,,,,,,,,0,,,77,0
42176,note_on,1,0,1,,,,,,,,,,,,,,,0,,,75,127
42271,note_on,95,0,1,,,,,,,,,,,,,,,0,,,72,0
42272,note_on,1,0,1,,,,,,,,,,,,,,,0,,,68,127
42367,note_on,95,0,1,,,,,,,,,,,,,,,0,,,75,0
42368,note_on,1,0,1,,,,,,,,,,,,,,,0,,,74,127
42463,note_on,95,0,1,,,,,,,,,,,,,,,0,,,68,0
42464,note_on,1,0,1,,,,,,,,,,,,,,,0,,,65,127
42559,note_on,95,0,1,,,,,,,,,,,,,,,0,,,74,0
42560,note_on,1,0,1,,,,,,,,,,,,,,,0,,,72,127
42655,note_on,95,0,1,,,,,,,,,,,,,,,0,,,72,0
42655,note_on,0,0,1,,,,,,,,,,,,,,,0,,,65,0
42656,note_on,0,0,1,,,,,,,,,,,,,,,0,,,71,127
42656,note_on,1,0,1,,,,,,,,,,,,,,,0,,,55,127
42751,note_on,95,0,1,,,,,,,,,,,,,,,0,,,55,0
42752,note_on,1,0,1,,,,,,,,,,,,,,,0,,,67,127
42847,note_on,95,0,1,,,,,,,,,,,,,,,0,,,67,0
42847,note_on,0,0,1,,,,,,,,,,,,,,,0,,,71,0
42848,note_on,1,0,1,,,,,,,,,,,,,,,0,,,71,127
42848,note_on,0,0,1,,,,,,,,,,,,,,,0,,,77,127
42848,note_on,0,0,1,,,,,,,,,,,,,,,0,,,86,127
42943,note_on,95,0,1,,,,,,,,,,,,,,,0,,,71,0
42944,note_on,1,0,1,,,,,,,,,,,,,,,0,,,67,127
43039,note_on,0,0,1,,,,,,,,,,,,,,,0,,,77,0
43039,note_on,0,0,1,,,,,,,,,,,,,,,0,,,86,0
43039,note_on,95,0,1,,,,,,,,,,,,,,,0,,,67,0
43040,note_on,1,0,1,,,,,,,,,,,,,,,0,,,72,127
43040,note_on,0,0,1,,,,,,,,,,,,,,,0,,,75,127
43040,note_on,0,0,1,,,,,,,,,,,,,,,0,,,84,127
43135,note_on,95,0,1,,,,,,,,,,,,,,,0,,,72,0
43136,note_on,1,0,1,,,,,,,,,,,,,,,0,,,60,127
43231,note_on,95,0,1,,,,,,,,,,,,,,,0,,,60,0
43232,note_on,1,0,1,,,,,,,,,,,,,,,0,,,55,127
43327,note_on,95,0,1,,,,,,,,,,,,,,,0,,,55,0
43328,note_on,1,0,1,,,,,,,,,,,,,,,0,,,67,127
43423,note_on,95,0,1,,,,,,,,,,,,,,,0,,,67,0
43423,note_on,0,0,1,,,,,,,,,,,,,,,0,,,84,0
43423,note_on,0,0,1,,,,,,,,,,,,,,,0,,,75,0
43424,note_on,0,0,1,,,,,,,,,,,,,,,0,,,86,127
43424,note_on,0,0,1,,,,,,,,,,,,,,,0,,,77,127
43424,note_on,1,0,1,,,,,,,,,,,,,,,0,,,71,127
43519,note_on,95,0,1,,,,,,,,,,,,,,,0,,,71,0
43520,note_on,1,0,1,,,,,,,,,,,,,,,0,,,67,127
43615,note_on,95,0,1,,,,,,,,,,,,,,,0,,,67,0
43615,note_on,0,0,1,,,,,,,,,,,,,,,0,,,86,0
43615,note_on,0,0,1,,,,,,,,,,,,,,,0,,,77,0
43616,note_on,1,0,1,,,,,,,,,,,,,,,0,,,72,127
43616,note_on,0,0,1,,,,,,,,,,,,,,,0,,,84,127
43616,note_on,0,0,1,,,,,,,,,,,,,,,0,,,75,127
43711,note_on,95,0,1,,,,,,,,,,,,,,,0,,,72,0
43712,note_on,1,0,1,,,,,,,,,,,,,,,0,,,60,127
43807,note_on,95,0,1,,,,,,,,,,,,,,,0,,,60,0
43808,note_on,1,0,1,,,,,,,,,,,,,,,0,,,53,127
43903,note_on,95,0,1,,,,,,,,,,,,,,,0,,,53,0
43904,note_on,1,0,1,,,,,,,,,,,,,,,0,,,65,127
43999,note_on,95,0,1,,,,,,,,,,,,,,,0,,,65,0
43999,note_on,0,0,1,,,,,,,,,,,,,,,0,,,75,0
43999,note_on,0,0,1,,,,,,,,,,,,,,,0,,,84,0
44000,note_on,0,0,1,,,,,,,,,,,,,,,0,,,84,127
44000,note_on,0,0,1,,,,,,,,,,,,,,,0,,,75,127
44000,note_on,1,0,1,,,,,,,,,,,,,,,0,,,68,127
44095,note_on,95,0,1,,,,,,,,,,,,,,,0,,,68,0
44096,note_on,1,0,1,,,,,,,,,,,,,,,0,,,65,127
44191,note_on,95,0,1,,,,,,,,,,,,,,,0,,,65,0
44191,note_on,0,0,1,,,,,,,,,,,,,,,0,,,75,0
44191,note_on,0,0,1,,,,,,,,,,,,,,,0,,,84,0
44192,note_on,0,0,1,,,,,,,,,,,,,,,0,,,74,127
44192,note_on,1,0,1,,,,,,,,,,,,,,,0,,,70,127
44192,note_on,0,0,1,,,,,,,,,,,,,,,0,,,82,127
44287,note_on,95,0,1,,,,,,,,,,,,,,,0,,,70,0
44288,note_on,1,0,1,,,,,,,,,,,,,,,0,,,58,127
44383,note_on,95,0,1,,,,,,,,,,,,,,,0,,,58,0
44384,note_on,1,0,1,,,,,,,,,,,,,,,0,,,51,127
44479,note_on,95,0,1,,,,,,,,,,,,,,,0,,,51,0
44480,note_on,1,0,1,,,,,,,,,,,,,,,0,,,63,127
44575,note_on,95,0,1,,,,,,,,,,,,,,,0,,,63,0
44575,note_on,0,0,1,,,,,,,,,,,,,,,0,,,82,0
44575,note_on,0,0,1,,,,,,,,,,,,,,,0,,,74,0
44576,note_on,0,0,1,,,,,,,,,,,,,,,0,,,74,127
44576,note_on,1,0,1,,,,,,,,,,,,,,,0,,,67,127
44576,note_on,0,0,1,,,,,,,,,,,,,,,0,,,82,127
44671,note_on,95,0,1,,,,,,,,,,,,,,,0,,,67,0
44672,note_on,1,0,1,,,,,,,,,,,,,,,0,,,63,127
44767,note_on,0,0,1,,,,,,,,,,,,,,,0,,,74,0
44767,note_on,0,0,1,,,,,,,,,,,,,,,0,,,82,0
44767,note_on,95,0,1,,,,,,,,,,,,,,,0,,,63,0
44768,note_on,1,0,1,,,,,,,,,,,,,,,0,,,68,127
44768,note_on,0,0,1,,,,,,,,,,,,,,,0,,,80,127
44768,note_on,0,0,1,,,,,,,,,,,,,,,0,,,72,127
44863,note_on,95,0,1,,,,,,,,,,,,,,,0,,,68,0
44864,note_on,1,0,1,,,,,,,,,,,,,,,0,,,56,127
44959,note_on,95,0,1,,,,,,,,,,,,,,,0,,,56,0
44960,note_on,1,0,1,,,,,,,,,,,,,,,0,,,50,127
45055,note_on,95,0,1,,,,,,,,,,,,,,,0,,,50,0
45056,note_on,1,0,1,,,,,,,,,,,,,,,0,,,62,127
45151,note_on,0,0,1,,,,,,,,,,,,,,,0,,,80,0
45151,note_on,0,0,1,,,,,,,,,,,,,,,0,,,72,0
45151,note_on,95,0,1,,,,,,,,,,,,,,,0,,,62,0
45152,note_on,1,0,1,,,,,,,,,,,,,,,0,,,65,127
45152,note_on,0,0,1,,,,,,,,,,,,,,,0,,,80,127
45152,note_on,0,0,1,,,,,,,,,,,,,,,0,,,72,127
45247,note_on,95,0,1,,,,,,,,,,,,,,,0,,,65,0
45248,note_on,1,0,1,,,,,,,,,,,,,,,0,,,62,127
45343,note_on,95,0,1,,,,,,,,,,,,,,,0,,,62,0
45343,note_on,0,0,1,,,,,,,,,,,,,,,0,,,72,0
45343,note_on,0,0,1,,,,,,,,,,,,,,,0,,,80,0
45344,note_on,0,0,1,,,,,,,,,,,,,,,0,,,79,127
45344,note_on,1,0,1,,,,,,,,,,,,,,,0,,,67,127
45344,note_on,0,0,1,,,,,,,,,,,,,,,0,,,70,127
45439,note_on,95,0,1,,,,,,,,,,,,,,,0,,,67,0
45440,note_on,1,0,1,,,,,,,,,,,,,,,0,,,55,127
45535,note_on,95,0,1,,,,,,,,,,,,,,,0,,,55,0
45536,note_on,1,0,1,,,,,,,,,,,,,,,0,,,48,127
45631,note_on,95,0,1,,,,,,,,,,,,,,,0,,,48,0
45632,note_on,1,0,1,,,,,,,,,,,,,,,0,,,60,127
45727,note_on,95,0,1,,,,,,,,,,,,,,,0,,,60,0
45727,note_on,0,0,1,,,,,,,,,,,,,,,0,,,79,0
45727,note_on,0,0,1,,,,,,,,,,,,,,,0,,,70,0
45728,note_on,0,0,1,,,,,,,,,,,,,,,0,,,70,127
45728,note_on,1,0,1,,,,,,,,,,,,,,,0,,,63,127
45728,note_on,0,0,1,,,,,,,,,,,,,,,0,,,79,127
45823,note_on,95,0,1,,,,,,,,,,,,,,,0,,,63,0
45824,note_on,1,0,1,,,,,,,,,,,,,,,0,,,60,127
45919,note_on,0,0,1,,,,,,,,,,,,,,,0,,,70,0
45919,note_on,95,0,1,,,,,,,,,,,,,,,0,,,60,0
45919,note_on,0,0,1,,,,,,,,,,,,,,,0,,,79,0
45920,note_on,1,0,1,,,,,,,,,,,,,,,0,,,65,127
45920,note_on,0,0,1,,,,,,,,,,,,,,,0,,,68,127
45920,note_on,0,0,1,,,,,,,,,,,,,,,0,,,77,127
46015,note_on,95,0,1,,,,,,,,,,,,,,,0,,,65,0
46016,note_on,1,0,1,,,,,,,,,,,,,,,0,,,53,127
46111,note_on,95,0,1,,,,,,,,,,,,,,,0,,,53,0
46112,note_on,1,0,1,,,,,,,,,,,,,,,0,,,46,127
46207,note_on,95,0,1,,,,,,,,,,,,,,,0,,,46,0
46208,note_on,1,0,1,,,,,,,,,,,,,,,0,,,58,127
46303,note_on,0,0,1,,,,,,,,,,,,,,,0,,,68,0
46303,note_on,95,0,1,,,,,,,,,,,,,,,0,,,58,0
46303,note_on,0,0,1,,,,,,,,,,,,,,,0,,,77,0
46304,note_on,1,0,1,,,,,,,,,,,,,,,0,,,62,127
46304,note_on,0,0,1,,,,,,,,,,,,,,,0,,,77,127
46304,note_on,0,0,1,,,,,,,,,,,,,,,0,,,68,127
46399,note_on,95,0,1,,,,,,,,,,,,,,,0,,,62,0
46400,note_on,1,0,1,,,,,,,,,,,,,,,0,,,58,127
46495,note_on,95,0,1,,,,,,,,,,,,,,,0,,,58,0
46495,note_on,0,0,1,,,,,,,,,,,,,,,0,,,68,0
46495,note_on,0,0,1,,,,,,,,,,,,,,,0,,,77,0
46496,note_on,0,0,1,,,,,,,,,,,,,,,0,,,67,127
46496,note_on,1,0,1,,,,,,,,,,,,,,,0,,,63,127
46496,note_on,0,0,1,,,,,,,,,,,,,,,0,,,75,127
46591,note_on,95,0,1,,,,,,,,,,,,,,,0,,,63,0
46592,note_on,1,0,1,,,,,,,,,,,,,,,0,,,51,127
46687,note_on,95,0,1,,,,,,,,,,,,,,,0,,,51,0
46688,note_on,1,0,1,,,,,,,,,,,,,,,0,,,44,127
46783,note_on,95,0,1,,,,,,,,,,,,,,,0,,,75,0
46783,note_on,0,0,1,,,,,,,,,,,,,,,0,,,67,0
46784,note_on,1,0,1,,,,,,,,,,,,,,,0,,,74,127
46879,note_on,95,0,1,,,,,,,,,,,,,,,0,,,74,0
46880,note_on,1,0,1,,,,,,,,,,,,,,,0,,,72,127
46975,note_on,95,0,1,,,,,,,,,,,,,,,0,,,72,0
46976,note_on,1,0,1,,,,,,,,,,,,,,,0,,,70,127
47071,note_on,0,0,1,,,,,,,,,,,,,,,0,,,44,0
47071,note_on,95,0,1,,,,,,,,,,,,,,,0,,,70,0
47072,note_on,0,0,1,,,,,,,,,,,,,,,0,,,68,127
47072,note_on,1,0,1,,,,,,,,,,,,,,,0,,,56,127
47167,note_on,95,0,1,,,,,,,,,,,,,,,0,,,68,0
47168,note_on,1,0,1,,,,,,,,,,,,,,,0,,,67,127
47263,note_on,95,0,1,,,,,,,,,,,,,,,0,,,67,0
47263,note_on,0,0,1,,,,,,,,,,,,,,,0,,,56,0
47264,note_on,1,0,1,,,,,,,,,,,,,,,0,,,58,127
47264,note_on,0,0,1,,,,,,,,,,,,,,,0,,,65,127
47359,note_on,95,0,1,,,,,,,,,,,,,,,0,,,65,0
47360,note_on,1,0,1,,,,,,,,,,,,,,,0,,,82,127
47455,note_on,95,0,1,,,,,,,,,,,,,,,0,,,82,0
47456,note_on,1,0,1,,,,,,,,,,,,,,,0,,,70,127
47551,note_on,95,0,1,,,,,,,,,,,,,,,0,,,58,0
47552,note_on,1,0,1,,,,,,,,,,,,,,,0,,,65,127
47647,note_on,95,0,1,,,,,,,,,,,,,,,0,,,65,0
47648,note_on,1,0,1,,,,,,,,,,,,,,,0,,,62,127
47696,note_on,48,0,1,,,,,,,,,,,,,,,0,,,70,0
47696,note_on,0,0,1,,,,,,,,,,,,,,,0,,,68,127
47743,note_on,0,0,1,,,,,,,,,,,,,,,0,,,62,0
47743,note_on,47,0,1,,,,,,,,,,,,,,,0,,,68,0
47744,note_on,1,0,1,,,,,,,,,,,,,,,0,,,58,127
47744,note_on,0,0,1,,,,,,,,,,,,,,,0,,,67,127
47791,note_on,47,0,1,,,,,,,,,,,,,,,0,,,67,0
47792,note_on,1,0,1,,,,,,,,,,,,,,,0,,,68,127
47839,note_on,47,0,1,,,,,,,,,,,,,,,0,,,68,0
47839,note_on,0,0,1,,,,,,,,,,,,,,,0,,,58,0
47840,note_on,1,0,1,,,,,,,,,,,,,,,0,,,63,127
47840,note_on,0,0,1,,,,,,,,,,,,,,,0,,,67,127
47935,note_on,95,0,1,,,,,,,,,,,,,,,0,,,67,0
47936,note_on,1,0,1,,,,,,,,,,,,,,,0,,,87,127
48031,note_on,95,0,1,,,,,,,,,,,,,,,0,,,87,0
48032,note_on,1,0,1,,,,,,,,,,,,,,,0,,,70,127
48127,note_on,95,0,1,,,,,,,,,,,,,,,0,,,63,0
48128,note_on,1,0,1,,,,,,,,,,,,,,,0,,,67,127
48223,note_on,95,0,1,,,,,,,,,,,,,,,0,,,67,0
48224,note_on,1,0,1,,,,,,,,,,,,,,,0,,,65,127
48272,note_on,48,0,1,,,,,,,,,,,,,,,0,,,70,0
48272,note_on,0,0,1,,,,,,,,,,,,,,,0,,,68,127
48319,note_on,47,0,1,,,,,,,,,,,,,,,0,,,68,0
48319,note_on,0,0,1,,,,,,,,,,,,,,,0,,,65,0
48320,note_on,0,0,1,,,,,,,,,,,,,,,0,,,67,127
48320,note_on,1,0,1,,,,,,,,,,,,,,,0,,,58,127
48367,note_on,47,0,1,,,,,,,,,,,,,,,0,,,67,0
48368,note_on,1,0,1,,,,,,,,,,,,,,,0,,,68,127
48415,note_on,47,0,1,,,,,,,,,,,,,,,0,,,68,0
48415,note_on,0,0,1,,,,,,,,,,,,,,,0,,,58,0
48416,note_on,1,0,1,,,,,,,,,,,,,,,0,,,63,127
48416,note_on,0,0,1,,,,,,,,,,,,,,,0,,,67,127
48511,note_on,95,0,1,,,,,,,,,,,,,,,0,,,67,0
48512,note_on,1,0,1,,,,,,,,,,,,,,,0,,,87,127
48607,note_on,95,0,1,,,,,,,,,,,,,,,0,,,87,0
48608,note_on,1,0,1,,,,,,,,,,,,,,,0,,,70,127
48703,note_on,95,0,1,,,,,,,,,,,,,,,0,,,63,0
48704,note_on,1,0,1,,,,,,,,,,,,,,,0,,,67,127
48799,note_on,95,0,1,,,,,,,,,,,,,,,0,,,67,0
48800,note_on,1,0,1,,,,,,,,,,,,,,,0,,,65,127
48848,note_on,0,0,1,,,,,,,,,,,,,,,0,,,68,127
48848,note_on,48,0,1,,,,,,,,,,,,,,,0,,,70,0
48895,note_on,47,0,1,,,,,,,,,,,,,,,0,,,68,0
48895,note_on,0,0,1,,,,,,,,,,,,,,,0,,,65,0
48896,note_on,1,0,1,,,,,,,,,,,,,,,0,,,58,127
48896,note_on,0,0,1,,,,,,,,,,,,,,,0,,,67,127
48943,note_on,47,0,1,,,,,,,,,,,,,,,0,,,67,0
48944,note_on,1,0,1,,,,,,,,,,,,,,,0,,,68,127
48991,note_on,47,0,1,,,,,,,,,,,,,,,0,,,68,0
48991,note_on,0,0,1,,,,,,,,,,,,,,,0,,,58,0
48992,note_on,0,0,1,,,,,,,,,,,,,,,0,,,67,127
48992,note_on,1,0,1,,,,,,,,,,,,,,,0,,,51,127
49087,note_on,95,0,1,,,,,,,,,,,,,,,0,,,67,0
49088,note_on,1,0,1,,,,,,,,,,,,,,,0,,,82,127
49183,note_on,95,0,1,,,,,,,,,,,,,,,0,,,82,0
49184,note_on,1,0,1,,,,,,,,,,,,,,,0,,,79,127
49279,note_on,95,0,1,,,,,,,,,,,,,,,0,,,79,0
49279,note_on,0,0,1,,,,,,,,,,,,,,,0,,,51,0
49280,note_on,0,0,1,,,,,,,,,,,,,,,0,,,74,127
49280,note_on,1,0,1,,,,,,,,,,,,,,,0,,,53,127
49375,note_on,95,0,1,,,,,,,,,,,,,,,0,,,74,0
49375,note_on,0,0,1,,,,,,,,,,,,,,,0,,,53,0
49376,note_on,1,0,1,,,,,,,,,,,,,,,0,,,55,127
49376,note_on,0,0,1,,,,,,,,,,,,,,,0,,,75,127
49471,note_on,95,0,1,,,,,,,,,,,,,,,0,,,75,0
49472,note_on,1,0,1,,,,,,,,,,,,,,,0,,,79,127
49567,note_on,95,0,1,,,,,,,,,,,,,,,0,,,79,0
49567,note_on,0,0,1,,,,,,,,,,,,,,,0,,,55,0
49568,note_on,1,0,1,,,,,,,,,,,,,,,0,,,56,127
49568,note_on,0,0,1,,,,,,,,,,,,,,,0,,,77,127
49663,note_on,95,0,1,,,,,,,,,,,,,,,0,,,77,0
49664,note_on,1,0,1,,,,,,,,,,,,,,,0,,,80,127
49759,note_on,95,0,1,,,,,,,,,,,,,,,0,,,80,0
49759,note_on,0,0,1,,,,,,,,,,,,,,,0,,,56,0
49760,note_on,1,0,1,,,,,,,,,,,,,,,0,,,58,127
49760,note_on,0,0,1,,,,,,,,,,,,,,,0,,,79,127
49855,note_on,95,0,1,,,,,,,,,,,,,,,0,,,79,0
49856,note_on,1,0,1,,,,,,,,,,,,,,,0,,,77,127
49951,note_on,95,0,1,,,,,,,,,,,,,,,0,,,77,0
49951,note_on,0,0,1,,,,,,,,,,,,,,,0,,,58,0
49952,note_on,1,0,1,,,,,,,,,,,,,,,0,,,46,127
49952,note_on,0,0,1,,,,,,,,,,,,,,,0,,,75,127
50047,note_on,95,0,1,,,,,,,,,,,,,,,0,,,75,0
50048,note_on,1,0,1,,,,,,,,,,,,,,,0,,,74,127
50143,note_on,0,0,1,,,,,,,,,,,,,,,0,,,46,0
50143,note_on,95,0,1,,,,,,,,,,,,,,,0,,,74,0
50144,note_on,1,0,1,,,,,,,,,,,,,,,0,,,51,127
50144,note_on,0,0,1,,,,,,,,,,,,,,,0,,,75,127
50239,note_on,95,0,1,,,,,,,,,,,,,,,0,,,75,0
50240,note_on,1,0,1,,,,,,,,,,,,,,,0,,,82,127
50335,note_on,95,0,1,,,,,,,,,,,,,,,0,,,82,0
50336,note_on,1,0,1,,,,,,,,,,,,,,,0,,,70,127
50431,note_on,95,0,1,,,,,,,,,,,,,,,0,,,51,0
50432,note_on,1,0,1,,,,,,,,,,,,,,,0,,,67,127
50527,note_on,95,0,1,,,,,,,,,,,,,,,0,,,67,0
50528,note_on,1,0,1,,,,,,,,,,,,,,,0,,,65,127
50576,note_on,48,0,1,,,,,,,,,,,,,,,0,,,70,0
50576,note_on,0,0,1,,,,,,,,,,,,,,,0,,,68,127
50623,note_on,47,0,1,,,,,,,,,,,,,,,0,,,68,0
50623,note_on,0,0,1,,,,,,,,,,,,,,,0,,,65,0
50624,note_on,0,0,1,,,,,,,,,,,,,,,0,,,67,127
50624,note_on,1,0,1,,,,,,,,,,,,,,,0,,,58,127
50671,note_on,47,0,1,,,,,,,,,,,,,,,0,,,67,0
50672,note_on,1,0,1,,,,,,,,,,,,,,,0,,,68,127
50719,note_on,47,0,1,,,,,,,,,,,,,,,0,,,68,0
50719,note_on,0,0,1,,,,,,,,,,,,,,,0,,,58,0
50720,note_on,1,0,1,,,,,,,,,,,,,,,0,,,63,127
50720,note_on,0,0,1,,,,,,,,,,,,,,,0,,,67,127
50815,note_on,95,0,1,,,,,,,,,,,,,,,0,,,67,0
50816,note_on,1,0,1,,,,,,,,,,,,,,,0,,,87,127
50911,note_on,95,0,1,,,,,,,,,,,,,,,0,,,87,0
50912,note_on,1,0,1,,,,,,,,,,,,,,,0,,,70,127
51007,note_on,95,0,1,,,,,,,,,,,,,,,0,,,63,0
51008,note_on,1,0,1,,,,,,,,,,,,,,,0,,,67,127
51103,note_on,95,0,1,,,,,,,,,,,,,,,0,,,67,0
51104,note_on,1,0,1,,,,,,,,,,,,,,,0,,,65,127
51152,note_on,48,0,1,,,,,,,,,,,,,,,0,,,70,0
51152,note_on,0,0,1,,,,,,,,,,,,,,,0,,,68,127
51199,note_on,0,0,1,,,,,,,,,,,,,,,0,,,65,0
51199,note_on,47,0,1,,,,,,,,,,,,,,,0,,,68,0
51200,note_on,1,0,1,,,,,,,,,,,,,,,0,,,58,127
51200,note_on,0,0,1,,,,,,,,,,,,,,,0,,,67,127
51247,note_on,47,0,1,,,,,,,,,,,,,,,0,,,67,0
51248,note_on,1,0,1,,,,,,,,,,,,,,,0,,,68,127
51295,note_on,47,0,1,,,,,,,,,,,,,,,0,,,68,0
51295,note_on,0,0,1,,,,,,,,,,,,,,,0,,,58,0
51296,note_on,1,0,1,,,,,,,,,,,,,,,0,,,51,127
51296,note_on,0,0,1,,,,,,,,,,,,,,,0,,,67,127
51391,note_on,95,0,1,,,,,,,,,,,,,,,0,,,67,0
51392,note_on,1,0,1,,,,,,,,,,,,,,,0,,,82,127
51487,note_on,95,0,1,,,,,,,,,,,,,,,0,,,82,0
51488,note_on,1,0,1,,,,,,,,,,,,,,,0,,,79,127
51583,note_on,95,0,1,,,,,,,,,,,,,,,0,,,79,0
51583,note_on,0,0,1,,,,,,,,,,,,,,,0,,,51,0
51584,note_on,1,0,1,,,,,,,,,,,,,,,0,,,53,127
51584,note_on,0,0,1,,,,,,,,,,,,,,,0,,,74,127
51679,note_on,95,0,1,,,,,,,,,,,,,,,0,,,74,0
51679,note_on,0,0,1,,,,,,,,,,,,,,,0,,,53,0
51680,note_on,1,0,1,,,,,,,,,,,,,,,0,,,55,127
51680,note_on,0,0,1,,,,,,,,,,,,,,,0,,,75,127
51775,note_on,95,0,1,,,,,,,,,,,,,,,0,,,75,0
51776,note_on,1,0,1,,,,,,,,,,,,,,,0,,,79,127
51871,note_on,95,0,1,,,,,,,,,,,,,,,0,,,79,0
51871,note_on,0,0,1,,,,,,,,,,,,,,,0,,,55,0
51872,note_on,0,0,1,,,,,,,,,,,,,,,0,,,77,127
51872,note_on,1,0,1,,,,,,,,,,,,,,,0,,,56,127
51967,note_on,95,0,1,,,,,,,,,,,,,,,0,,,77,0
51968,note_on,1,0,1,,,,,,,,,,,,,,,0,,,80,127
52063,note_on,95,0,1,,,,,,,,,,,,,,,0,,,80,0
52063,note_on,0,0,1,,,,,,,,,,,,,,,0,,,56,0
52064,note_on,1,0,1,,,,,,,,,,,,,,,0,,,58,127
52064,note_on,0,0,1,,,,,,,,,,,,,,,0,,,79,127
52159,note_on,95,0,1,,,,,,,,,,,,,,,0,,,79,0
52160,note_on,1,0,1,,,,,,,,,,,,,,,0,,,77,127
52255,note_on,0,0,1,,,,,,,,,,,,,,,0,,,58,0
52255,note_on,95,0,1,,,,,,,,,,,,,,,0,,,77,0
52256,note_on,0,0,1,,,,,,,,,,,,,,,0,,,75,127
52256,note_on,1,0,1,,,,,,,,,,,,,,,0,,,46,127
52351,note_on,95,0,1,,,,,,,,,,,,,,,0,,,75,0
52352,note_on,1,0,1,,,,,,,,,,,,,,,0,,,74,127
52447,note_on,95,0,1,,,,,,,,,,,,,,,0,,,74,0
52447,note_on,0,0,1,,,,,,,,,,,,,,,0,,,46,0
52448,note_on,1,0,1,,,,,,,,,,,,,,,0,,,51,127
52448,note_on,0,0,1,,,,,,,,,,,,,,,0,,,75,127
52538,note_on,90,0,1,,,,,,,,,,,,,,,0,,,51,0
52544,note_on,6,0,1,,,,,,,,,,,,,,,0,,,51,127
52634,note_on,90,0,1,,,,,,,,,,,,,,,0,,,51,0
52640,note_on,0,0,1,,,,,,,,,,,,,,,0,,,87,127
52640,note_on,6,0,1,,,,,,,,,,,,,,,0,,,51,127
52640,note_on,0,0,1,,,,,,,,,,,,,,,0,,,79,127
52730,note_on,90,0,1,,,,,,,,,,,,,,,0,,,51,0
52736,note_on,6,0,1,,,,,,,,,,,,,,,0,,,51,127
52826,note_on,90,0,1,,,,,,,,,,,,,,,0,,,51,0
52831,note_on,0,0,1,,,,,,,,,,,,,,,0,,,79,0
52831,note_on,5,0,1,,,,,,,,,,,,,,,0,,,87,0
52832,note_on,1,0,1,,,,,,,,,,,,,,,0,,,51,127
52832,note_on,0,0,1,,,,,,,,,,,,,,,0,,,82,127
52832,note_on,0,0,1,,,,,,,,,,,,,,,0,,,85,127
52922,note_on,90,0,1,,,,,,,,,,,,,,,0,,,51,0
52928,note_on,6,0,1,,,,,,,,,,,,,,,0,,,51,127
53018,note_on,90,0,1,,,,,,,,,,,,,,,0,,,51,0
53023,note_on,5,0,1,,,,,,,,,,,,,,,0,,,85,0
53023,note_on,0,0,1,,,,,,,,,,,,,,,0,,,82,0
53024,note_on,1,0,1,,,,,,,,,,,,,,,0,,,51,127
53024,note_on,0,0,1,,,,,,,,,,,,,,,0,,,84,127
53024,note_on,0,0,1,,,,,,,,,,,,,,,0,,,80,127
53114,note_on,90,0,1,,,,,,,,,,,,,,,0,,,51,0
53120,note_on,6,0,1,,,,,,,,,,,,,,,0,,,51,127
53210,note_on,90,0,1,,,,,,,,,,,,,,,0,,,51,0
53215,note_on,0,0,1,,,,,,,,,,,,,,,0,,,75,0
53215,note_on,0,0,1,,,,,,,,,,,,,,,0,,,84,0
53215,note_on,5,0,1,,,,,,,,,,,,,,,0,,,80,0
53216,note_on,1,0,1,,,,,,,,,,,,,,,0,,,51,127
53216,note_on,0,0,1,,,,,,,,,,,,,,,0,,,74,127
53216,note_on,0,0,1,,,,,,,,,,,,,,,0,,,82,127
53306,note_on,90,0,1,,,,,,,,,,,,,,,0,,,51,0
53312,note_on,6,0,1,,,,,,,,,,,,,,,0,,,51,127
53402,note_on,90,0,1,,,,,,,,,,,,,,,0,,,51,0
53407,note_on,5,0,1,,,,,,,,,,,,,,,0,,,82,0
53407,note_on,0,0,1,,,,,,,,,,,,,,,0,,,74,0
53408,note_on,0,0,1,,,,,,,,,,,,,,,0,,,80,127
53408,note_on,1,0,1,,,,,,,,,,,,,,,0,,,51,127
53408,note_on,0,0,1,,,,,,,,,,,,,,,0,,,77,127
53498,note_on,90,0,1,,,,,,,,,,,,,,,0,,,51,0
53504,note_on,6,0,1,,,,,,,,,,,,,,,0,,,51,127
53594,note_on,90,0,1,,,,,,,,,,,,,,,0,,,51,0
53599,note_on,0,0,1,,,,,,,,,,,,,,,0,,,77,0
53599,note_on,5,0,1,,,,,,,,,,,,,,,0,,,80,0
53600,note_on,1,0,1,,,,,,,,,,,,,,,0,,,51,127
53600,note_on,0,0,1,,,,,,,,,,,,,,,0,,,79,127
53600,note_on,0,0,1,,,,,,,,,,,,,,,0,,,75,127
53690,note_on,90,0,1,,,,,,,,,,,,,,,0,,,51,0
53696,note_on,6,0,1,,,,,,,,,,,,,,,0,,,51,127
53786,note_on,90,0,1,,,,,,,,,,,,,,,0,,,51,0
53791,note_on,5,0,1,,,,,,,,,,,,,,,0,,,75,0
53791,note_on,0,0,1,,,,,,,,,,,,,,,0,,,79,0
53792,note_on,0,0,1,,,,,,,,,,,,,,,0,,,77,127
53792,note_on,0,0,1,,,,,,,,,,,,,,,0,,,68,127
53792,note_on,1,0,1,,,,,,,,,,,,,,,0,,,56,127
53882,note_on,90,0,1,,,,,,,,,,,,,,,0,,,56,0
53888,note_on,6,0,1,,,,,,,,,,,,,,,0,,,56,127
53978,note_on,90,0,1,,,,,,,,,,,,,,,0,,,56,0
53983,note_on,5,0,1,,,,,,,,,,,,,,,0,,,77,0
53983,note_on,0,0,1,,,,,,,,,,,,,,,0,,,68,0
53984,note_on,1,0,1,,,,,,,,,,,,,,,0,,,56,127
53984,note_on,0,0,1,,,,,,,,,,,,,,,0,,,75,127
53984,note_on,0,0,1,,,,,,,,,,,,,,,0,,,72,127
54074,note_on,90,0,1,,,,,,,,,,,,,,,0,,,56,0
54080,note_on,6,0,1,,,,,,,,,,,,,,,0,,,56,127
54170,note_on,90,0,1,,,,,,,,,,,,,,,0,,,56,0
54175,note_on,5,0,1,,,,,,,,,,,,,,,0,,,72,0
54175,note_on,0,0,1,,,,,,,,,,,,,,,0,,,75,0
54176,note_on,1,0,1,,,,,,,,,,,,,,,0,,,58,127
54176,note_on,0,0,1,,,,,,,,,,,,,,,0,,,74,127
54271,note_on,95,0,1,,,,,,,,,,,,,,,0,,,74,0
54272,note_on,1,0,1,,,,,,,,,,,,,,,0,,,72,127
54367,note_on,95,0,1,,,,,,,,,,,,,,,0,,,72,0
54368,note_on,1,0,1,,,,,,,,,,,,,,,0,,,70,127
54463,note_on,95,0,1,,,,,,,,,,,,,,,0,,,70,0
54463,note_on,0,0,1,,,,,,,,,,,,,,,0,,,58,0
54464,note_on,1,0,1,,,,,,,,,,,,,,,0,,,56,127
54464,note_on,0,0,1,,,,,,,,,,,,,,,0,,,74,127
54559,note_on,95,0,1,,,,,,,,,,,,,,,0,,,74,0
54559,note_on,0,0,1,,,,,,,,,,,,,,,0,,,56,0
54560,note_on,1,0,1,,,,,,,,,,,,,,,0,,,55,127
54560,note_on,0,0,1,,,,,,,,,,,,,,,0,,,75,127
54655,note_on,95,0,1,,,,,,,,,,,,,,,0,,,75,0
54656,note_on,1,0,1,,,,,,,,,,,,,,,0,,,79,127
54751,note_on,95,0,1,,,,,,,,,,,,,,,0,,,79,0
54751,note_on,0,0,1,,,,,,,,,,,,,,,0,,,55,0
54752,note_on,1,0,1,,,,,,,,,,,,,,,0,,,56,127
54752,note_on,0,0,1,,,,,,,,,,,,,,,0,,,77,127
54847,note_on,95,0,1,,,,,,,,,,,,,,,0,,,77,0
54848,note_on,1,0,1,,,,,,,,,,,,,,,0,,,80,127
54943,note_on,95,0,1,,,,,,,,,,,,,,,0,,,80,0
54943,note_on,0,0,1,,,,,,,,,,,,,,,0,,,56,0
54944,note_on,1,0,1,,,,,,,,,,,,,,,0,,,58,127
54944,note_on,0,0,1,,,,,,,,,,,,,,,0,,,79,127
55039,note_on,95,0,1,,,,,,,,,,,,,,,0,,,79,0
55040,note_on,1,0,1,,,,,,,,,,,,,,,0,,,77,127
55135,note_on,95,0,1,,,,,,,,,,,,,,,0,,,77,0
55135,note_on,0,0,1,,,,,,,,,,,,,,,0,,,58,0
55136,note_on,1,0,1,,,,,,,,,,,,,,,0,,,46,127
55136,note_on,0,0,1,,,,,,,,,,,,,,,0,,,75,127
55231,note_on,95,0,1,,,,,,,,,,,,,,,0,,,75,0
55232,note_on,1,0,1,,,,,,,,,,,,,,,0,,,74,127
55327,note_on,95,0,1,,,,,,,,,,,,,,,0,,,74,0
55327,note_on,0,0,1,,,,,,,,,,,,,,,0,,,46,0
55328,note_on,1,0,1,,,,,,,,,,,,,,,0,,,39,127
55328,note_on,0,0,1,,,,,,,,,,,,,,,0,,,75,127
55418,note_on,90,0,1,,,,,,,,,,,,,,,0,,,39,0
55424,note_on,6,0,1,,,,,,,,,,,,,,,0,,,39,127
55514,note_on,90,0,1,,,,,,,,,,,,,,,0,,,39,0
55519,note_on,5,0,1,,,,,,,,,,,,,,,0,,,75,0
55520,note_on,0,0,1,,,,,,,,,,,,,,,0,,,75,127
55520,note_on,0,0,1,,,,,,,,,,,,,,,0,,,67,127
55520,note_on,1,0,1,,,,,,,,,,,,,,,0,,,39,127
55610,note_on,90,0,1,,,,,,,,,,,,,,,0,,,39,0
55616,note_on,6,0,1,,,,,,,,,,,,,,,0,,,39,127
55706,note_on,90,0,1,,,,,,,,,,,,,,,0,,,39,0
55711,note_on,5,0,1,,,,,,,,,,,,,,,0,,,67,0
55711,note_on,0,0,1,,,,,,,,,,,,,,,0,,,75,0
55712,note_on,1,0,1,,,,,,,,,,,,,,,0,,,39,127
55712,note_on,0,0,1,,,,,,,,,,,,,,,0,,,73,127
55712,note_on,0,0,1,,,,,,,,,,,,,,,0,,,70,127
55802,note_on,90,0,1,,,,,,,,,,,,,,,0,,,39,0
55808,note_on,6,0,1,,,,,,,,,,,,,,,0,,,39,127
55898,note_on,90,0,1,,,,,,,,,,,,,,,0,,,39,0
55903,note_on,5,0,1,,,,,,,,,,,,,,,0,,,70,0
55903,note_on,0,0,1,,,,,,,,,,,,,,,0,,,73,0
55904,note_on,0,0,1,,,,,,,,,,,,,,,0,,,72,127
55904,note_on,1,0,1,,,,,,,,,,,,,,,0,,,39,127
55904,note_on,0,0,1,,,,,,,,,,,,,,,0,,,68,127
55994,note_on,90,0,1,,,,,,,,,,,,,,,0,,,39,0
56000,note_on,6,0,1,,,,,,,,,,,,,,,0,,,39,127
56090,note_on,90,0,1,,,,,,,,,,,,,,,0,,,39,0
56095,note_on,0,0,1,,,,,,,,,,,,,,,0,,,72,0
56095,note_on,5,0,1,,,,,,,,,,,,,,,0,,,68,0
56096,note_on,1,0,1,,,,,,,,,,,,,,,0,,,39,127
56096,note_on,0,0,1,,,,,,,,,,,,,,,0,,,62,127
56096,note_on,0,0,1,,,,,,,,,,,,,,,0,,,70,127
56186,note_on,90,0,1,,,,,,,,,,,,,,,0,,,39,0
56192,note_on,6,0,1,,,,,,,,,,,,,,,0,,,39,127
56282,note_on,90,0,1,,,,,,,,,,,,,,,0,,,39,0
56287,note_on,5,0,1,,,,,,,,,,,,,,,0,,,70,0
56287,note_on,0,0,1,,,,,,,,,,,,,,,0,,,62,0
56288,note_on,0,0,1,,,,,,,,,,,,,,,0,,,65,127
56288,note_on,0,0,1,,,,,,,,,,,,,,,0,,,68,127
56288,note_on,1,0,1,,,,,,,,,,,,,,,0,,,39,127
56378,note_on,90,0,1,,,,,,,,,,,,,,,0,,,39,0
56384,note_on,6,0,1,,,,,,,,,,,,,,,0,,,39,127
56474,note_on,90,0,1,,,,,,,,,,,,,,,0,,,39,0
56479,note_on,5,0,1,,,,,,,,,,,,,,,0,,,65,0
56479,note_on,0,0,1,,,,,,,,,,,,,,,0,,,68,0
56480,note_on,1,0,1,,,,,,,,,,,,,,,0,,,39,127
56480,note_on,0,0,1,,,,,,,,,,,,,,,0,,,67,127
56480,note_on,0,0,1,,,,,,,,,,,,,,,0,,,63,127
56570,note_on,90,0,1,,,,,,,,,,,,,,,0,,,39,0
56576,note_on,6,0,1,,,,,,,,,,,,,,,0,,,39,127
56666,note_on,90,0,1,,,,,,,,,,,,,,,0,,,39,0
56671,note_on,5,0,1,,,,,,,,,,,,,,,0,,,63,0
56671,note_on,0,0,1,,,,,,,,,,,,,,,0,,,67,0
56672,note_on,0,0,1,,,,,,,,,,,,,,,0,,,65,127
56672,note_on,1,0,1,,,,,,,,,,,,,,,0,,,44,127
56672,note_on,0,0,1,,,,,,,,,,,,,,,0,,,56,127
56762,note_on,90,0,1,,,,,,,,,,,,,,,0,,,44,0
56768,note_on,6,0,1,,,,,,,,,,,,,,,0,,,44,127
56858,note_on,90,0,1,,,,,,,,,,,,,,,0,,,44,0
56863,note_on,5,0,1,,,,,,,,,,,,,,,0,,,65,0
56863,note_on,0,0,1,,,,,,,,,,,,,,,0,,,56,0
56864,note_on,1,0,1,,,,,,,,,,,,,,,0,,,44,127
56864,note_on,0,0,1,,,,,,,,,,,,,,,0,,,63,127
56864,note_on,0,0,1,,,,,,,,,,,,,,,0,,,60,127
56954,note_on,90,0,1,,,,,,,,,,,,,,,0,,,44,0
56960,note_on,6,0,1,,,,,,,,,,,,,,,0,,,44,127
57050,note_on,90,0,1,,,,,,,,,,,,,,,0,,,44,0
57055,note_on,5,0,1,,,,,,,,,,,,,,,0,,,60,0
57055,note_on,0,0,1,,,,,,,,,,,,,,,0,,,63,0
57056,note_on,1,0,1,,,,,,,,,,,,,,,0,,,46,127
57056,note_on,0,0,1,,,,,,,,,,,,,,,0,,,62,127
57151,note_on,95,0,1,,,,,,,,,,,,,,,0,,,62,0
57152,note_on,1,0,1,,,,,,,,,,,,,,,0,,,60,127
57247,note_on,95,0,1,,,,,,,,,,,,,,,0,,,60,0
57248,note_on,1,0,1,,,,,,,,,,,,,,,0,,,58,127
57343,note_on,95,0,1,,,,,,,,,,,,,,,0,,,58,0
57343,note_on,0,0,1,,,,,,,,,,,,,,,0,,,46,0
57344,note_on,0,0,1,,,,,,,,,,,,,,,0,,,62,127
57344,note_on,1,0,1,,,,,,,,,,,,,,,0,,,44,127
57439,note_on,0,0,1,,,,,,,,,,,,,,,0,,,44,0
57439,note_on,95,0,1,,,,,,,,,,,,,,,0,,,62,0
57440,note_on,1,0,1,,,,,,,,,,,,,,,0,,,43,127
57440,note_on,0,0,1,,,,,,,,,,,,,,,0,,,63,127
57535,note_on,95,0,1,,,,,,,,,,,,,,,0,,,63,0
57536,note_on,1,0,1,,,,,,,,,,,,,,,0,,,67,127
57631,note_on,95,0,1,,,,,,,,,,,,,,,0,,,67,0
57631,note_on,0,0,1,,,,,,,,,,,,,,,0,,,43,0
57632,note_on,1,0,1,,,,,,,,,,,,,,,0,,,44,127
57632,note_on,0,0,1,,,,,,,,,,,,,,,0,,,65,127
57727,note_on,95,0,1,,,,,,,,,,,,,,,0,,,65,0
57728,note_on,1,0,1,,,,,,,,,,,,,,,0,,,68,127
57823,note_on,95,0,1,,,,,,,,,,,,,,,0,,,68,0
57823,note_on,0,0,1,,,,,,,,,,,,,,,0,,,44,0
57824,note_on,1,0,1,,,,,,,,,,,,,,,0,,,46,127
57824,note_on,0,0,1,,,,,,,,,,,,,,,0,,,67,127
57919,note_on,95,0,1,,,,,,,,,,,,,,,0,,,67,0
57920,note_on,1,0,1,,,,,,,,,,,,,,,0,,,65,127
58015,note_on,95,0,1,,,,,,,,,,,,,,,0,,,65,0
58015,note_on,0,0,1,,,,,,,,,,,,,,,0,,,46,0
58016,note_on,1,0,1,,,,,,,,,,,,,,,0,,,34,127
58016,note_on,0,0,1,,,,,,,,,,,,,,,0,,,63,127
58111,note_on,95,0,1,,,,,,,,,,,,,,,0,,,63,0
58112,note_on,1,0,1,,,,,,,,,,,,,,,0,,,62,127
58207,note_on,95,0,1,,,,,,,,,,,,,,,0,,,62,0
58207,note_on,0,0,1,,,,,,,,,,,,,,,0,,,34,0
58208,note_on,0,0,1,,,,,,,,,,,,,,,0,,,63,127
58208,note_on,1,0,1,,,,,,,,,,,,,,,0,,,39,127
58303,note_on,95,0,1,,,,,,,,,,,,,,,0,,,63,0
58304,note_on,1,0,1,,,,,,,,,,,,,,,0,,,67,127
58399,note_on,95,0,1,,,,,,,,,,,,,,,0,,,67,0
58400,note_on,1,0,1,,,,,,,,,,,,,,,0,,,70,127
58495,note_on,95,0,1,,,,,,,,,,,,,,,0,,,70,0
58496,note_on,1,0,1,,,,,,,,,,,,,,,0,,,75,127
58591,note_on,95,0,1,,,,,,,,,,,,,,,0,,,75,0
58592,note_on,1,0,1,,,,,,,,,,,,,,,0,,,79,127
58687,note_on,95,0,1,,,,,,,,,,,,,,,0,,,79,0
58688,note_on,1,0,1,,,,,,,,,,,,,,,0,,,82,127
58783,note_on,95,0,1,,,,,,,,,,,,,,,0,,,82,0
58783,note_on,0,0,1,,,,,,,,,,,,,,,0,,,39,0
58784,note_on,0,0,1,,,,,,,,,,,,,,,0,,,77,127
58784,note_on,1,0,1,,,,,,,,,,,,,,,0,,,39,127
58816,note_on,32,0,1,,,,,,,,,,,,,,,0,,,75,127
58832,note_on,16,0,1,,,,,,,,,,,,,,,0,,,77,0
58848,note_on,16,0,1,,,,,,,,,,,,,,,0,,,77,127
58864,note_on,16,0,1,,,,,,,,,,,,,,,0,,,75,0
58880,note_on,16,0,1,,,,,,,,,,,,,,,0,,,75,127
58880,control_change,0,0,1,,,,,,,,,,,,,,,0,121,0,,
58896,note_on,16,0,1,,,,,,,,,,,,,,,0,,,77,0
59936,note_on,1040,0,1,,,,,,,,,,,,,,,0,,,75,0
59936,note_on,0,0,1,,,,,,,,,,,,,,,0,,,39,0
59936,end_of_track,0,1,1,,,,,,,,,,,,,,,,,,,
