tick,type,time,meta,track,frame_rate,hours,minutes,seconds,frames,sub_frames,numerator,denominator,clocks_per_click,notated_32nd_notes_per_beat,key,tempo,port,program,channel,control,value,note,velocity
0,track_name,0,1,0,,,,,,,,,,,,,,,,,,,
0,midi_port,0,1,2,,,,,,,,,,,,,0,,,,,,
0,control_change,0,0,1,,,,,,,,,,,,,,,0,7,100,,
0,control_change,0,0,1,,,,,,,,,,,,,,,0,121,0,,
0,control_change,0,0,1,,,,,,,,,,,,,,,0,7,100,,
0,program_change,0,0,1,,,,,,,,,,,,,,0,0,,,,
0,program_change,0,0,1,,,,,,,,,,,,,,0,0,,,,
0,end_of_track,0,1,2,,,,,,,,,,,,,,,,,,,
0,end_of_track,0,1,0,,,,,,,,,,,,,,,,,,,
0,text,0,1,0,,,,,,,,,,,,,,,,,,,
0,smpte_offset,0,1,0,25,32,0,3,0,0,,,,,,,,,,,,,
0,midi_port,0,1,1,,,,,,,,,,,,,0,,,,,,
0,key_signature,0,1,0,,,,,,,,,,,C,,,,,,,,
0,set_tempo,0,1,0,,,,,,,,,,,,705882,,,,,,,
0,time_signature,0,1,0,,,,,,,2,4,24,8,,,,,,,,,
32,note_on,32,0,1,,,,,,,,,,,,,,,0,,,84,127
127,note_on,95,0,1,,,,,,,,,,,,,,,0,,,84,0
128,note_on,1,0,1,,,,,,,,,,,,,,,0,,,79,127
223,note_on,95,0,1,,,,,,,,,,,,,,,0,,,79,0
224,note_on,1,0,1,,,,,,,,,,,,,,,0,,,76,127
319,note_on,95,0,1,,,,,,,,,,,,,,,0,,,76,0
320,note_on,1,0,1,,,,,,,,,,,,,,,0,,,72,127
415,note_on,95,0,1,,,,,,,,,,,,,,,0,,,72,0
416,note_on,1,0,1,,,,,,,,,,,,,,,0,,,67,127
511,note_on,95,0,1,,,,,,,,,,,,,,,0,,,67,0
512,note_on,1,0,1,,,,,,,,,,,,,,,0,,,64,127
607,note_on,95,0,1,,,,,,,,,,,,,,,0,,,64,0
608,note_on,1,0,1,,,,,,,,,,,,,,,0,,,60,127
703,note_on,95,0,1,,,,,,,,,,,,,,,0,,,60,0
704,note_on,1,0,1,,,,,,,,,,,,,,,0,,,55,127
799,note_on,95,0,1,,,,,,,,,,,,,,,0,,,55,0
800,note_on,1,0,1,,,,,,,,,,,,,,,0,,,52,127
895,note_on,95,0,1,,,,,,,,,,,,,,,0,,,52,0
896,note_on,1,0,1,,,,,,,,,,,,,,,0,,,48,127
991,note_on,95,0,1,,,,,,,,,,,,,,,0,,,48,0
992,note_on,1,0,1,,,,,,,,,,,,,,,0,,,43,127
1087,note_on,95,0,1,,,,,,,,,,,,,,,0,,,43,0
1088,note_on,1,0,1,,,,,,,,,,,,,,,0,,,40,127
1183,note_on,95,0,1,,,,,,,,,,,,,,,0,,,40,0
1184,note_on,1,0,1,,,,,,,,,,,,,,,0,,,36,127
1376,note_on,192,0,1,,,,,,,,,,,,,,,0,,,79,127
1471,note_on,95,0,1,,,,,,,,,,,,,,,0,,,79,0
1472,note_on,1,0,1,,,,,,,,,,,,,,,0,,,67,127
1567,note_on,95,0,1,,,,,,,,,,,,,,,0,,,67,0
1567,note_on,0,0,1,,,,,,,,,,,,,,,0,,,36,0
1568,note_on,1,0,1,,,,,,,,,,,,,,,0,,,41,127
1568,note_on,0,0,1,,,,,,,,,,,,,,,0,,,69,127
1759,note_on,191,0,1,,,,,,,,,,,,,,,0,,,69,0
1760,note_on,1,0,1,,,,,,,,,,,,,,,0,,,81,127
1855,note_on,95,0,1,,,,,,,,,,,,,,,0,,,81,0
1856,note_on,1,0,1,,,,,,,,,,,,,,,0,,,69,127
1951,note_on,95,0,1,,,,,,,,,,,,,,,0,,,69,0
1951,note_on,0,0,1,,,,,,,,,,,,,,,0,,,41,0
1952,note_on,0,0,1,,,,,,,,,,,,,,,0,,,71,127
1952,note_on,1,0,1,,,,,,,,,,,,,,,0,,,43,127
2143,note_on,191,0,1,,,,,,,,,,,,,,,0,,,71,0
2144,note_on,1,0,1,,,,,,,,,,,,,,,0,,,83,127
2239,note_on,95,0,1,,,,,,,,,,,,,,,0,,,83,0
2240,note_on,1,0,1,,,,,,,,,,,,,,,0,,,71,127
2335,note_on,95,0,1,,,,,,,,,,,,,,,0,,,71,0
2335,note_on,0,0,1,,,,,,,,,,,,,,,0,,,43,0
2336,note_on,1,0,1,,,,,,,,,,,,,,,0,,,40,127
2336,note_on,0,0,1,,,,,,,,,,,,,,,0,,,84,127
2431,note_on,95,0,1,,,,,,,,,,,,,,,0,,,84,0
2432,note_on,1,0,1,,,,,,,,,,,,,,,0,,,79,127
2527,note_on,95,0,1,,,,,,,,,,,,,,,0,,,79,0
2528,note_on,1,0,1,,,,,,,,,,,,,,,0,,,76,127
2623,note_on,95,0,1,,,,,,,,,,,,,,,0,,,76,0
2624,note_on,1,0,1,,,,,,,,,,,,,,,0,,,72,127
2719,note_on,95,0,1,,,,,,,,,,,,,,,0,,,72,0
2720,note_on,1,0,1,,,,,,,,,,,,,,,0,,,84,127
2911,note_on,191,0,1,,,,,,,,,,,,,,,0,,,40,0
2912,note_on,1,0,1,,,,,,,,,,,,,,,0,,,52,127
3007,note_on,95,0,1,,,,,,,,,,,,,,,0,,,52,0
3008,note_on,1,0,1,,,,,,,,,,,,,,,0,,,40,127
3103,note_on,95,0,1,,,,,,,,,,,,,,,0,,,40,0
3104,note_on,1,0,1,,,,,,,,,,,,,,,0,,,41,127
3295,note_on,191,0,1,,,,,,,,,,,,,,,0,,,41,0
3295,note_on,0,0,1,,,,,,,,,,,,,,,0,,,84,0
3296,note_on,1,0,1,,,,,,,,,,,,,,,0,,,53,127
3296,note_on,0,0,1,,,,,,,,,,,,,,,0,,,81,127
3391,note_on,95,0,1,,,,,,,,,,,,,,,0,,,53,0
3392,note_on,1,0,1,,,,,,,,,,,,,,,0,,,41,127
3487,note_on,95,0,1,,,,,,,,,,,,,,,0,,,41,0
3488,note_on,1,0,1,,,,,,,,,,,,,,,0,,,43,127
3679,note_on,191,0,1,,,,,,,,,,,,,,,0,,,43,0
3679,note_on,0,0,1,,,,,,,,,,,,,,,0,,,81,0
3680,note_on,0,0,1,,,,,,,,,,,,,,,0,,,79,127
3680,note_on,1,0,1,,,,,,,,,,,,,,,0,,,55,127
3775,note_on,95,0,1,,,,,,,,,,,,,,,0,,,79,0
3775,note_on,0,0,1,,,,,,,,,,,,,,,0,,,55,0
3776,note_on,1,0,1,,,,,,,,,,,,,,,0,,,43,127
3776,note_on,0,0,1,,,,,,,,,,,,,,,0,,,71,127
3871,note_on,0,0,1,,,,,,,,,,,,,,,0,,,43,0
3871,note_on,95,0,1,,,,,,,,,,,,,,,0,,,71,0
3872,note_on,1,0,1,,,,,,,,,,,,,,,0,,,36,127
3872,note_on,0,0,1,,,,,,,,,,,,,,,0,,,72,127
4063,note_on,191,0,1,,,,,,,,,,,,,,,0,,,72,0
4064,note_on,1,0,1,,,,,,,,,,,,,,,0,,,72,127
4064,note_on,0,0,1,,,,,,,,,,,,,,,0,,,76,127
4159,note_on,95,0,1,,,,,,,,,,,,,,,0,,,76,0
4160,note_on,1,0,1,,,,,,,,,,,,,,,0,,,79,127
4255,note_on,95,0,1,,,,,,,,,,,,,,,0,,,79,0
4256,note_on,0,0,1,,,,,,,,,,,,,,,0,,,77,127
4256,note_on,1,0,1,,,,,,,,,,,,,,,0,,,72,0
4256,note_on,0,0,1,,,,,,,,,,,,,,,0,,,74,127
4447,note_on,0,0,1,,,,,,,,,,,,,,,0,,,77,0
4447,note_on,191,0,1,,,,,,,,,,,,,,,0,,,74,0
4448,note_on,1,0,1,,,,,,,,,,,,,,,0,,,76,127
4448,note_on,0,0,1,,,,,,,,,,,,,,,0,,,72,127
4639,note_on,191,0,1,,,,,,,,,,,,,,,0,,,72,0
4639,note_on,0,0,1,,,,,,,,,,,,,,,0,,,76,0
4639,note_on,0,0,1,,,,,,,,,,,,,,,0,,,36,0
4640,note_on,1,0,1,,,,,,,,,,,,,,,0,,,74,127
4640,note_on,0,0,1,,,,,,,,,,,,,,,0,,,67,127
4831,note_on,191,0,1,,,,,,,,,,,,,,,0,,,67,0
4831,note_on,0,0,1,,,,,,,,,,,,,,,0,,,74,0
4832,note_on,0,0,1,,,,,,,,,,,,,,,0,,,72,127
4832,note_on,1,0,1,,,,,,,,,,,,,,,0,,,43,127
4832,note_on,0,0,1,,,,,,,,,,,,,,,0,,,76,127
4927,note_on,95,0,1,,,,,,,,,,,,,,,0,,,72,0
4927,note_on,0,0,1,,,,,,,,,,,,,,,0,,,76,0
4928,note_on,0,0,1,,,,,,,,,,,,,,,0,,,77,127
4928,note_on,1,0,1,,,,,,,,,,,,,,,0,,,74,127
5023,note_on,95,0,1,,,,,,,,,,,,,,,0,,,77,0
5023,note_on,0,0,1,,,,,,,,,,,,,,,0,,,74,0
5023,note_on,0,0,1,,,,,,,,,,,,,,,0,,,43,0
5024,note_on,1,0,1,,,,,,,,,,,,,,,0,,,43,127
5024,note_on,0,0,1,,,,,,,,,,,,,,,0,,,72,127
5024,note_on,0,0,1,,,,,,,,,,,,,,,0,,,76,127
5215,note_on,191,0,1,,,,,,,,,,,,,,,0,,,76,0
5215,note_on,0,0,1,,,,,,,,,,,,,,,0,,,72,0
5215,note_on,0,0,1,,,,,,,,,,,,,,,0,,,43,0
5216,note_on,0,0,1,,,,,,,,,,,,,,,0,,,67,127
5216,note_on,1,0,1,,,,,,,,,,,,,,,0,,,43,127
5216,note_on,0,0,1,,,,,,,,,,,,,,,0,,,74,127
5407,note_on,191,0,1,,,,,,,,,,,,,,,0,,,67,0
5407,note_on,0,0,1,,,,,,,,,,,,,,,0,,,43,0
5407,note_on,0,0,1,,,,,,,,,,,,,,,0,,,74,0
5408,note_on,1,0,1,,,,,,,,,,,,,,,0,,,36,127
5408,note_on,0,0,1,,,,,,,,,,,,,,,0,,,72,127
5408,note_on,0,0,1,,,,,,,,,,,,,,,0,,,64,127
5599,note_on,191,0,1,,,,,,,,,,,,,,,0,,,64,0
5599,note_on,0,0,1,,,,,,,,,,,,,,,0,,,72,0
5600,note_on,1,0,1,,,,,,,,,,,,,,,0,,,72,127
5600,note_on,0,0,1,,,,,,,,,,,,,,,0,,,76,127
5695,note_on,95,0,1,,,,,,,,,,,,,,,0,,,76,0
5696,note_on,1,0,1,,,,,,,,,,,,,,,0,,,79,127
5791,note_on,95,0,1,,,,,,,,,,,,,,,0,,,79,0
5791,note_on,0,0,1,,,,,,,,,,,,,,,0,,,72,0
5792,note_on,1,0,1,,,,,,,,,,,,,,,0,,,74,127
5792,note_on,0,0,1,,,,,,,,,,,,,,,0,,,77,127
5983,note_on,0,0,1,,,,,,,,,,,,,,,0,,,74,0
5983,note_on,191,0,1,,,,,,,,,,,,,,,0,,,77,0
5984,note_on,1,0,1,,,,,,,,,,,,,,,0,,,76,127
5984,note_on,0,0,1,,,,,,,,,,,,,,,0,,,72,127
6175,note_on,191,0,1,,,,,,,,,,,,,,,0,,,72,0
6175,note_on,0,0,1,,,,,,,,,,,,,,,0,,,76,0
6175,note_on,0,0,1,,,,,,,,,,,,,,,0,,,36,0
6176,note_on,1,0,1,,,,,,,,,,,,,,,0,,,74,127
6176,note_on,0,0,1,,,,,,,,,,,,,,,0,,,67,127
6367,note_on,0,0,1,,,,,,,,,,,,,,,0,,,74,0
6367,note_on,191,0,1,,,,,,,,,,,,,,,0,,,67,0
6368,note_on,1,0,1,,,,,,,,,,,,,,,0,,,43,127
6368,note_on,0,0,1,,,,,,,,,,,,,,,0,,,76,127
6368,note_on,0,0,1,,,,,,,,,,,,,,,0,,,72,127
6463,note_on,95,0,1,,,,,,,,,,,,,,,0,,,72,0
6463,note_on,0,0,1,,,,,,,,,,,,,,,0,,,76,0
6464,note_on,1,0,1,,,,,,,,,,,,,,,0,,,77,127
6464,note_on,0,0,1,,,,,,,,,,,,,,,0,,,74,127
6559,note_on,0,0,1,,,,,,,,,,,,,,,0,,,43,0
6559,note_on,95,0,1,,,,,,,,,,,,,,,0,,,74,0
6559,note_on,0,0,1,,,,,,,,,,,,,,,0,,,77,0
6560,note_on,1,0,1,,,,,,,,,,,,,,,0,,,43,127
6560,note_on,0,0,1,,,,,,,,,,,,,,,0,,,72,127
6560,note_on,0,0,1,,,,,,,,,,,,,,,0,,,76,127
6751,note_on,191,0,1,,,,,,,,,,,,,,,0,,,72,0
6751,note_on,0,0,1,,,,,,,,,,,,,,,0,,,76,0
6751,note_on,0,0,1,,,,,,,,,,,,,,,0,,,43,0
6752,note_on,1,0,1,,,,,,,,,,,,,,,0,,,43,127
6752,note_on,0,0,1,,,,,,,,,,,,,,,0,,,67,127
6752,note_on,0,0,1,,,,,,,,,,,,,,,0,,,74,127
6943,note_on,191,0,1,,,,,,,,,,,,,,,0,,,74,0
6943,note_on,0,0,1,,,,,,,,,,,,,,,0,,,67,0
6943,note_on,0,0,1,,,,,,,,,,,,,,,0,,,43,0
6944,note_on,0,0,1,,,,,,,,,,,,,,,0,,,72,127
6944,note_on,1,0,1,,,,,,,,,,,,,,,0,,,36,127
6944,note_on,0,0,1,,,,,,,,,,,,,,,0,,,64,127
7135,note_on,191,0,1,,,,,,,,,,,,,,,0,,,64,0
7135,note_on,0,0,1,,,,,,,,,,,,,,,0,,,72,0
7136,note_on,1,0,1,,,,,,,,,,,,,,,0,,,84,127
7327,note_on,191,0,1,,,,,,,,,,,,,,,0,,,84,0
7327,note_on,0,0,1,,,,,,,,,,,,,,,0,,,36,0
7328,note_on,1,0,1,,,,,,,,,,,,,,,0,,,86,127
7375,note_on,47,0,1,,,,,,,,,,,,,,,0,,,86,0
7376,note_on,1,0,1,,,,,,,,,,,,,,,0,,,84,127
7423,note_on,47,0,1,,,,,,,,,,,,,,,0,,,84,0
7424,note_on,1,0,1,,,,,,,,,,,,,,,0,,,86,127
7471,note_on,47,0,1,,,,,,,,,,,,,,,0,,,86,0
7472,note_on,1,0,1,,,,,,,,,,,,,,,0,,,84,127
7519,note_on,47,0,1,,,,,,,,,,,,,,,0,,,84,0
7520,note_on,0,0,1,,,,,,,,,,,,,,,0,,,69,127
7520,note_on,1,0,1,,,,,,,,,,,,,,,0,,,72,127
7520,note_on,0,0,1,,,,,,,,,,,,,,,0,,,86,127
7567,note_on,47,0,1,,,,,,,,,,,,,,,0,,,86,0
7568,note_on,1,0,1,,,,,,,,,,,,,,,0,,,84,127
7615,note_on,47,0,1,,,,,,,,,,,,,,,0,,,84,0
7616,note_on,1,0,1,,,,,,,,,,,,,,,0,,,83,127
7663,note_on,47,0,1,,,,,,,,,,,,,,,0,,,83,0
7664,note_on,1,0,1,,,,,,,,,,,,,,,0,,,84,127
7711,note_on,47,0,1,,,,,,,,,,,,,,,0,,,84,0
7711,note_on,0,0,1,,,,,,,,,,,,,,,0,,,69,0
7711,note_on,0,0,1,,,,,,,,,,,,,,,0,,,72,0
7712,note_on,1,0,1,,,,,,,,,,,,,,,0,,,69,127
7712,note_on,0,0,1,,,,,,,,,,,,,,,0,,,66,127
7712,note_on,0,0,1,,,,,,,,,,,,,,,0,,,74,127
7903,note_on,0,0,1,,,,,,,,,,,,,,,0,,,69,0
7903,note_on,191,0,1,,,,,,,,,,,,,,,0,,,74,0
7903,note_on,0,0,1,,,,,,,,,,,,,,,0,,,66,0
7904,note_on,1,0,1,,,,,,,,,,,,,,,0,,,71,127
7904,note_on,0,0,1,,,,,,,,,,,,,,,0,,,67,127
7904,note_on,0,0,1,,,,,,,,,,,,,,,0,,,83,127
8095,note_on,191,0,1,,,,,,,,,,,,,,,0,,,83,0
8096,note_on,1,0,1,,,,,,,,,,,,,,,0,,,84,127
8143,note_on,47,0,1,,,,,,,,,,,,,,,0,,,84,0
8144,note_on,1,0,1,,,,,,,,,,,,,,,0,,,83,127
8191,note_on,47,0,1,,,,,,,,,,,,,,,0,,,83,0
8192,note_on,1,0,1,,,,,,,,,,,,,,,0,,,84,127
8239,note_on,47,0,1,,,,,,,,,,,,,,,0,,,84,0
8240,note_on,1,0,1,,,,,,,,,,,,,,,0,,,83,127
8287,note_on,47,0,1,,,,,,,,,,,,,,,0,,,83,0
8287,note_on,0,0,1,,,,,,,,,,,,,,,0,,,67,0
8287,note_on,0,0,1,,,,,,,,,,,,,,,0,,,71,0
8288,note_on,1,0,1,,,,,,,,,,,,,,,0,,,71,127
8288,note_on,0,0,1,,,,,,,,,,,,,,,0,,,67,127
8288,note_on,0,0,1,,,,,,,,,,,,,,,0,,,84,127
8335,note_on,47,0,1,,,,,,,,,,,,,,,0,,,84,0
8336,note_on,1,0,1,,,,,,,,,,,,,,,0,,,83,127
8383,note_on,47,0,1,,,,,,,,,,,,,,,0,,,83,0
8384,note_on,1,0,1,,,,,,,,,,,,,,,0,,,81,127
8431,note_on,47,0,1,,,,,,,,,,,,,,,0,,,81,0
8432,note_on,1,0,1,,,,,,,,,,,,,,,0,,,83,127
8479,note_on,47,0,1,,,,,,,,,,,,,,,0,,,83,0
8479,note_on,0,0,1,,,,,,,,,,,,,,,0,,,67,0
8479,note_on,0,0,1,,,,,,,,,,,,,,,0,,,71,0
8480,note_on,1,0,1,,,,,,,,,,,,,,,0,,,67,127
8480,note_on,0,0,1,,,,,,,,,,,,,,,0,,,64,127
8480,note_on,0,0,1,,,,,,,,,,,,,,,0,,,72,127
8671,note_on,191,0,1,,,,,,,,,,,,,,,0,,,72,0
8671,note_on,0,0,1,,,,,,,,,,,,,,,0,,,64,0
8671,note_on,0,0,1,,,,,,,,,,,,,,,0,,,67,0
8672,note_on,0,0,1,,,,,,,,,,,,,,,0,,,81,127
8672,note_on,1,0,1,,,,,,,,,,,,,,,0,,,69,127
8672,note_on,0,0,1,,,,,,,,,,,,,,,0,,,66,127
8863,note_on,191,0,1,,,,,,,,,,,,,,,0,,,81,0
8864,note_on,1,0,1,,,,,,,,,,,,,,,0,,,83,127
8911,note_on,47,0,1,,,,,,,,,,,,,,,0,,,83,0
8912,note_on,1,0,1,,,,,,,,,,,,,,,0,,,81,127
8959,note_on,47,0,1,,,,,,,,,,,,,,,0,,,81,0
8960,note_on,1,0,1,,,,,,,,,,,,,,,0,,,83,127
9007,note_on,47,0,1,,,,,,,,,,,,,,,0,,,83,0
9008,note_on,1,0,1,,,,,,,,,,,,,,,0,,,81,127
9055,note_on,47,0,1,,,,,,,,,,,,,,,0,,,81,0
9055,note_on,0,0,1,,,,,,,,,,,,,,,0,,,66,0
9055,note_on,0,0,1,,,,,,,,,,,,,,,0,,,69,0
9056,note_on,1,0,1,,,,,,,,,,,,,,,0,,,69,127
9056,note_on,0,0,1,,,,,,,,,,,,,,,0,,,66,127
9056,note_on,0,0,1,,,,,,,,,,,,,,,0,,,83,127
9103,note_on,47,0,1,,,,,,,,,,,,,,,0,,,83,0
9104,note_on,1,0,1,,,,,,,,,,,,,,,0,,,81,127
9151,note_on,47,0,1,,,,,,,,,,,,,,,0,,,81,0
9152,note_on,1,0,1,,,,,,,,,,,,,,,0,,,79,127
9199,note_on,47,0,1,,,,,,,,,,,,,,,0,,,79,0
9200,note_on,1,0,1,,,,,,,,,,,,,,,0,,,81,127
9247,note_on,47,0,1,,,,,,,,,,,,,,,0,,,81,0
9247,note_on,0,0,1,,,,,,,,,,,,,,,0,,,66,0
9247,note_on,0,0,1,,,,,,,,,,,,,,,0,,,69,0
9248,note_on,1,0,1,,,,,,,,,,,,,,,0,,,62,127
9248,note_on,0,0,1,,,,,,,,,,,,,,,0,,,66,127
9248,note_on,0,0,1,,,,,,,,,,,,,,,0,,,71,127
9439,note_on,191,0,1,,,,,,,,,,,,,,,0,,,71,0
9439,note_on,0,0,1,,,,,,,,,,,,,,,0,,,66,0
9439,note_on,0,0,1,,,,,,,,,,,,,,,0,,,62,0
9440,note_on,0,0,1,,,,,,,,,,,,,,,0,,,79,127
9440,note_on,1,0,1,,,,,,,,,,,,,,,0,,,64,127
9440,note_on,0,0,1,,,,,,,,,,,,,,,0,,,67,127
9631,note_on,191,0,1,,,,,,,,,,,,,,,0,,,79,0
9632,note_on,1,0,1,,,,,,,,,,,,,,,0,,,81,127
9679,note_on,47,0,1,,,,,,,,,,,,,,,0,,,81,0
9680,note_on,1,0,1,,,,,,,,,,,,,,,0,,,79,127
9727,note_on,47,0,1,,,,,,,,,,,,,,,0,,,79,0
9728,note_on,1,0,1,,,,,,,,,,,,,,,0,,,81,127
9775,note_on,47,0,1,,,,,,,,,,,,,,,0,,,81,0
9776,note_on,1,0,1,,,,,,,,,,,,,,,0,,,79,127
9823,note_on,0,0,1,,,,,,,,,,,,,,,0,,,64,0
9823,note_on,0,0,1,,,,,,,,,,,,,,,0,,,67,0
9823,note_on,47,0,1,,,,,,,,,,,,,,,0,,,79,0
9824,note_on,0,0,1,,,,,,,,,,,,,,,0,,,81,127
9824,note_on,1,0,1,,,,,,,,,,,,,,,0,,,67,127
9824,note_on,0,0,1,,,,,,,,,,,,,,,0,,,64,127
9871,note_on,47,0,1,,,,,,,,,,,,,,,0,,,81,0
9872,note_on,1,0,1,,,,,,,,,,,,,,,0,,,79,127
9919,note_on,47,0,1,,,,,,,,,,,,,,,0,,,79,0
9920,note_on,1,0,1,,,,,,,,,,,,,,,0,,,78,127
9967,note_on,47,0,1,,,,,,,,,,,,,,,0,,,78,0
9968,note_on,1,0,1,,,,,,,,,,,,,,,0,,,79,127
10015,note_on,47,0,1,,,,,,,,,,,,,,,0,,,79,0
10015,note_on,0,0,1,,,,,,,,,,,,,,,0,,,64,0
10015,note_on,0,0,1,,,,,,,,,,,,,,,0,,,67,0
10016,note_on,0,0,1,,,,,,,,,,,,,,,0,,,69,127
10016,note_on,0,0,1,,,,,,,,,,,,,,,0,,,64,127
10016,note_on,1,0,1,,,,,,,,,,,,,,,0,,,60,127
10111,note_on,95,0,1,,,,,,,,,,,,,,,0,,,69,0
10112,note_on,1,0,1,,,,,,,,,,,,,,,0,,,79,127
10207,note_on,95,0,1,,,,,,,,,,,,,,,0,,,79,0
10207,note_on,0,0,1,,,,,,,,,,,,,,,0,,,64,0
10207,note_on,0,0,1,,,,,,,,,,,,,,,0,,,60,0
10208,note_on,1,0,1,,,,,,,,,,,,,,,0,,,64,127
10208,note_on,0,0,1,,,,,,,,,,,,,,,0,,,60,127
10208,note_on,0,0,1,,,,,,,,,,,,,,,0,,,81,127
10303,note_on,95,0,1,,,,,,,,,,,,,,,0,,,81,0
10304,note_on,1,0,1,,,,,,,,,,,,,,,0,,,79,127
10399,note_on,0,0,1,,,,,,,,,,,,,,,0,,,64,0
10399,note_on,95,0,1,,,,,,,,,,,,,,,0,,,79,0
10399,note_on,0,0,1,,,,,,,,,,,,,,,0,,,60,0
10400,note_on,1,0,1,,,,,,,,,,,,,,,0,,,62,127
10400,note_on,0,0,1,,,,,,,,,,,,,,,0,,,66,127
10400,note_on,0,0,1,,,,,,,,,,,,,,,0,,,78,127
10495,note_on,95,0,1,,,,,,,,,,,,,,,0,,,78,0
10496,note_on,1,0,1,,,,,,,,,,,,,,,0,,,76,127
10591,note_on,95,0,1,,,,,,,,,,,,,,,0,,,76,0
10591,note_on,0,0,1,,,,,,,,,,,,,,,0,,,66,0
10591,note_on,0,0,1,,,,,,,,,,,,,,,0,,,62,0
10592,note_on,1,0,1,,,,,,,,,,,,,,,0,,,62,127
10592,note_on,0,0,1,,,,,,,,,,,,,,,0,,,66,127
10592,note_on,0,0,1,,,,,,,,,,,,,,,0,,,74,127
10687,note_on,95,0,1,,,,,,,,,,,,,,,0,,,74,0
10688,note_on,1,0,1,,,,,,,,,,,,,,,0,,,72,127
10783,note_on,0,0,1,,,,,,,,,,,,,,,0,,,62,0
10783,note_on,95,0,1,,,,,,,,,,,,,,,0,,,72,0
10783,note_on,0,0,1,,,,,,,,,,,,,,,0,,,66,0
10784,note_on,1,0,1,,,,,,,,,,,,,,,0,,,67,127
10784,note_on,0,0,1,,,,,,,,,,,,,,,0,,,72,127
10784,note_on,0,0,1,,,,,,,,,,,,,,,0,,,55,127
10808,note_on,24,0,1,,,,,,,,,,,,,,,0,,,71,127
10815,note_on,7,0,1,,,,,,,,,,,,,,,0,,,72,0
10832,note_on,17,0,1,,,,,,,,,,,,,,,0,,,72,127
10839,note_on,7,0,1,,,,,,,,,,,,,,,0,,,71,0
10856,note_on,17,0,1,,,,,,,,,,,,,,,0,,,71,127
10863,note_on,7,0,1,,,,,,,,,,,,,,,0,,,72,0
10975,note_on,112,0,1,,,,,,,,,,,,,,,0,,,67,0
10975,note_on,0,0,1,,,,,,,,,,,,,,,0,,,55,0
10975,note_on,0,0,1,,,,,,,,,,,,,,,0,,,71,0
10976,note_on,1,0,1,,,,,,,,,,,,,,,0,,,67,127
10976,note_on,0,0,1,,,,,,,,,,,,,,,0,,,71,127
11071,note_on,0,0,1,,,,,,,,,,,,,,,0,,,67,0
11071,note_on,95,0,1,,,,,,,,,,,,,,,0,,,71,0
11072,note_on,0,0,1,,,,,,,,,,,,,,,0,,,72,127
11072,note_on,1,0,1,,,,,,,,,,,,,,,0,,,69,127
11167,note_on,0,0,1,,,,,,,,,,,,,,,0,,,69,0
11167,note_on,95,0,1,,,,,,,,,,,,,,,0,,,72,0
11168,note_on,1,0,1,,,,,,,,,,,,,,,0,,,71,127
11168,note_on,0,0,1,,,,,,,,,,,,,,,0,,,74,127
11263,note_on,0,0,1,,,,,,,,,,,,,,,0,,,71,0
11263,note_on,95,0,1,,,,,,,,,,,,,,,0,,,74,0
11264,note_on,1,0,1,,,,,,,,,,,,,,,0,,,72,127
11264,note_on,0,0,1,,,,,,,,,,,,,,,0,,,76,127
11359,note_on,95,0,1,,,,,,,,,,,,,,,0,,,76,0
11359,note_on,0,0,1,,,,,,,,,,,,,,,0,,,72,0
11360,note_on,1,0,1,,,,,,,,,,,,,,,0,,,74,127
11360,note_on,0,0,1,,,,,,,,,,,,,,,0,,,78,127
11455,note_on,95,0,1,,,,,,,,,,,,,,,0,,,78,0
11455,note_on,0,0,1,,,,,,,,,,,,,,,0,,,74,0
11456,note_on,1,0,1,,,,,,,,,,,,,,,0,,,76,127
11456,note_on,0,0,1,,,,,,,,,,,,,,,0,,,79,127
11551,note_on,0,0,1,,,,,,,,,,,,,,,0,,,76,0
11551,note_on,95,0,1,,,,,,,,,,,,,,,0,,,79,0
11552,note_on,0,0,1,,,,,,,,,,,,,,,0,,,83,127
11552,note_on,1,0,1,,,,,,,,,,,,,,,0,,,74,127
11576,note_on,24,0,1,,,,,,,,,,,,,,,0,,,81,127
11583,note_on,7,0,1,,,,,,,,,,,,,,,0,,,83,0
11600,note_on,17,0,1,,,,,,,,,,,,,,,0,,,83,127
11607,note_on,7,0,1,,,,,,,,,,,,,,,0,,,81,0
11624,note_on,17,0,1,,,,,,,,,,,,,,,0,,,81,127
11631,note_on,7,0,1,,,,,,,,,,,,,,,0,,,83,0
11743,note_on,112,0,1,,,,,,,,,,,,,,,0,,,81,0
11743,note_on,0,0,1,,,,,,,,,,,,,,,0,,,74,0
11744,note_on,1,0,1,,,,,,,,,,,,,,,0,,,38,127
11744,note_on,0,0,1,,,,,,,,,,,,,,,0,,,81,127
11744,note_on,0,0,1,,,,,,,,,,,,,,,0,,,78,127
11839,note_on,95,0,1,,,,,,,,,,,,,,,0,,,81,0
11840,note_on,1,0,1,,,,,,,,,,,,,,,0,,,81,127
11935,note_on,95,0,1,,,,,,,,,,,,,,,0,,,81,0
11935,note_on,0,0,1,,,,,,,,,,,,,,,0,,,78,0
11935,note_on,0,0,1,,,,,,,,,,,,,,,0,,,38,0
11936,note_on,0,0,1,,,,,,,,,,,,,,,0,,,83,127
11936,note_on,0,0,1,,,,,,,,,,,,,,,0,,,78,127
11936,note_on,1,0,1,,,,,,,,,,,,,,,0,,,38,127
11960,note_on,24,0,1,,,,,,,,,,,,,,,0,,,81,127
11967,note_on,7,0,1,,,,,,,,,,,,,,,0,,,83,0
11984,note_on,17,0,1,,,,,,,,,,,,,,,0,,,83,127
11991,note_on,7,0,1,,,,,,,,,,,,,,,0,,,81,0
12008,note_on,17,0,1,,,,,,,,,,,,,,,0,,,81,127
12015,note_on,7,0,1,,,,,,,,,,,,,,,0,,,83,0
12127,note_on,112,0,1,,,,,,,,,,,,,,,0,,,38,0
12127,note_on,0,0,1,,,,,,,,,,,,,,,0,,,78,0
12127,note_on,0,0,1,,,,,,,,,,,,,,,0,,,81,0
12128,note_on,0,0,1,,,,,,,,,,,,,,,0,,,78,127
12128,note_on,0,0,1,,,,,,,,,,,,,,,0,,,81,127
12128,note_on,1,0,1,,,,,,,,,,,,,,,0,,,38,127
12223,note_on,95,0,1,,,,,,,,,,,,,,,0,,,81,0
12224,note_on,1,0,1,,,,,,,,,,,,,,,0,,,81,127
12319,note_on,95,0,1,,,,,,,,,,,,,,,0,,,81,0
12319,note_on,0,0,1,,,,,,,,,,,,,,,0,,,78,0
12319,note_on,0,0,1,,,,,,,,,,,,,,,0,,,38,0
12320,note_on,1,0,1,,,,,,,,,,,,,,,0,,,43,127
12320,note_on,0,0,1,,,,,,,,,,,,,,,0,,,79,127
12320,note_on,0,0,1,,,,,,,,,,,,,,,0,,,83,127
12511,note_on,191,0,1,,,,,,,,,,,,,,,0,,,83,0
12511,note_on,0,0,1,,,,,,,,,,,,,,,0,,,79,0
12511,note_on,0,0,1,,,,,,,,,,,,,,,0,,,43,0
12512,note_on,1,0,1,,,,,,,,,,,,,,,0,,,67,127
12512,note_on,0,0,1,,,,,,,,,,,,,,,0,,,71,127
12607,note_on,0,0,1,,,,,,,,,,,,,,,0,,,67,0
12607,note_on,95,0,1,,,,,,,,,,,,,,,0,,,71,0
12608,note_on,0,0,1,,,,,,,,,,,,,,,0,,,72,127
12608,note_on,1,0,1,,,,,,,,,,,,,,,0,,,69,127
12703,note_on,95,0,1,,,,,,,,,,,,,,,0,,,72,0
12703,note_on,0,0,1,,,,,,,,,,,,,,,0,,,69,0
12704,note_on,0,0,1,,,,,,,,,,,,,,,0,,,74,127
12704,note_on,1,0,1,,,,,,,,,,,,,,,0,,,71,127
12799,note_on,95,0,1,,,,,,,,,,,,,,,0,,,74,0
12799,note_on,0,0,1,,,,,,,,,,,,,,,0,,,71,0
12800,note_on,1,0,1,,,,,,,,,,,,,,,0,,,72,127
12800,note_on,0,0,1,,,,,,,,,,,,,,,0,,,76,127
12895,note_on,95,0,1,,,,,,,,,,,,,,,0,,,76,0
12895,note_on,0,0,1,,,,,,,,,,,,,,,0,,,72,0
12896,note_on,1,0,1,,,,,,,,,,,,,,,0,,,74,127
12896,note_on,0,0,1,,,,,,,,,,,,,,,0,,,78,127
12991,note_on,95,0,1,,,,,,,,,,,,,,,0,,,78,0
12991,note_on,0,0,1,,,,,,,,,,,,,,,0,,,74,0
12992,note_on,1,0,1,,,,,,,,,,,,,,,0,,,76,127
12992,note_on,0,0,1,,,,,,,,,,,,,,,0,,,79,127
13087,note_on,95,0,1,,,,,,,,,,,,,,,0,,,79,0
13087,note_on,0,0,1,,,,,,,,,,,,,,,0,,,76,0
13088,note_on,0,0,1,,,,,,,,,,,,,,,0,,,83,127
13088,note_on,1,0,1,,,,,,,,,,,,,,,0,,,74,127
13112,note_on,24,0,1,,,,,,,,,,,,,,,0,,,81,127
13119,note_on,7,0,1,,,,,,,,,,,,,,,0,,,83,0
13136,note_on,17,0,1,,,,,,,,,,,,,,,0,,,83,127
13143,note_on,7,0,1,,,,,,,,,,,,,,,0,,,81,0
13160,note_on,17,0,1,,,,,,,,,,,,,,,0,,,81,127
13167,note_on,7,0,1,,,,,,,,,,,,,,,0,,,83,0
13279,note_on,112,0,1,,,,,,,,,,,,,,,0,,,81,0
13279,note_on,0,0,1,,,,,,,,,,,,,,,0,,,74,0
13280,note_on,1,0,1,,,,,,,,,,,,,,,0,,,38,127
13280,note_on,0,0,1,,,,,,,,,,,,,,,0,,,81,127
13280,note_on,0,0,1,,,,,,,,,,,,,,,0,,,78,127
13375,note_on,95,0,1,,,,,,,,,,,,,,,0,,,81,0
13376,note_on,1,0,1,,,,,,,,,,,,,,,0,,,81,127
13471,note_on,0,0,1,,,,,,,,,,,,,,,0,,,38,0
13471,note_on,0,0,1,,,,,,,,,,,,,,,0,,,78,0
13471,note_on,95,0,1,,,,,,,,,,,,,,,0,,,81,0
13472,note_on,0,0,1,,,,,,,,,,,,,,,0,,,78,127
13472,note_on,0,0,1,,,,,,,,,,,,,,,0,,,83,127
13472,note_on,1,0,1,,,,,,,,,,,,,,,0,,,38,127
13496,note_on,24,0,1,,,,,,,,,,,,,,,0,,,81,127
13503,note_on,7,0,1,,,,,,,,,,,,,,,0,,,83,0
13520,note_on,17,0,1,,,,,,,,,,,,,,,0,,,83,127
13527,note_on,7,0,1,,,,,,,,,,,,,,,0,,,81,0
13544,note_on,17,0,1,,,,,,,,,,,,,,,0,,,81,127
13551,note_on,7,0,1,,,,,,,,,,,,,,,0,,,83,0
13663,note_on,112,0,1,,,,,,,,,,,,,,,0,,,38,0
13663,note_on,0,0,1,,,,,,,,,,,,,,,0,,,78,0
13663,note_on,0,0,1,,,,,,,,,,,,,,,0,,,81,0
13664,note_on,0,0,1,,,,,,,,,,,,,,,0,,,81,127
13664,note_on,1,0,1,,,,,,,,,,,,,,,0,,,38,127
13664,note_on,0,0,1,,,,,,,,,,,,,,,0,,,78,127
13759,note_on,95,0,1,,,,,,,,,,,,,,,0,,,81,0
13760,note_on,1,0,1,,,,,,,,,,,,,,,0,,,81,127
13855,note_on,95,0,1,,,,,,,,,,,,,,,0,,,81,0
13855,note_on,0,0,1,,,,,,,,,,,,,,,0,,,78,0
13855,note_on,0,0,1,,,,,,,,,,,,,,,0,,,38,0
13856,note_on,1,0,1,,,,,,,,,,,,,,,0,,,43,127
13856,note_on,0,0,1,,,,,,,,,,,,,,,0,,,83,127
13856,note_on,0,0,1,,,,,,,,,,,,,,,0,,,79,127
14047,note_on,191,0,1,,,,,,,,,,,,,,,0,,,79,0
14047,note_on,0,0,1,,,,,,,,,,,,,,,0,,,83,0
14048,note_on,1,0,1,,,,,,,,,,,,,,,0,,,86,127
14143,note_on,95,0,1,,,,,,,,,,,,,,,0,,,86,0
14144,note_on,1,0,1,,,,,,,,,,,,,,,0,,,83,127
14239,note_on,95,0,1,,,,,,,,,,,,,,,0,,,83,0
14240,note_on,1,0,1,,,,,,,,,,,,,,,0,,,83,127
14431,note_on,191,0,1,,,,,,,,,,,,,,,0,,,83,0
14431,note_on,0,0,1,,,,,,,,,,,,,,,0,,,43,0
14432,note_on,0,0,1,,,,,,,,,,,,,,,0,,,79,127
14432,note_on,1,0,1,,,,,,,,,,,,,,,0,,,59,127
14527,note_on,95,0,1,,,,,,,,,,,,,,,0,,,79,0
14528,note_on,1,0,1,,,,,,,,,,,,,,,0,,,76,127
14623,note_on,95,0,1,,,,,,,,,,,,,,,0,,,76,0
14623,note_on,0,0,1,,,,,,,,,,,,,,,0,,,59,0
14624,note_on,1,0,1,,,,,,,,,,,,,,,0,,,60,127
14624,note_on,0,0,1,,,,,,,,,,,,,,,0,,,76,127
14815,note_on,191,0,1,,,,,,,,,,,,,,,0,,,76,0
14815,note_on,0,0,1,,,,,,,,,,,,,,,0,,,60,0
14816,note_on,1,0,1,,,,,,,,,,,,,,,0,,,48,127
14816,note_on,0,0,1,,,,,,,,,,,,,,,0,,,72,127
14911,note_on,95,0,1,,,,,,,,,,,,,,,0,,,72,0
14912,note_on,1,0,1,,,,,,,,,,,,,,,0,,,69,127
15007,note_on,95,0,1,,,,,,,,,,,,,,,0,,,69,0
15007,note_on,0,0,1,,,,,,,,,,,,,,,0,,,48,0
15008,note_on,0,0,1,,,,,,,,,,,,,,,0,,,69,127
15008,note_on,1,0,1,,,,,,,,,,,,,,,0,,,50,127
15199,note_on,0,0,1,,,,,,,,,,,,,,,0,,,50,0
15199,note_on,191,0,1,,,,,,,,,,,,,,,0,,,69,0
15200,note_on,1,0,1,,,,,,,,,,,,,,,0,,,38,127
15200,note_on,0,0,1,,,,,,,,,,,,,,,0,,,67,127
15295,note_on,95,0,1,,,,,,,,,,,,,,,0,,,67,0
15296,note_on,1,0,1,,,,,,,,,,,,,,,0,,,66,127
15391,note_on,95,0,1,,,,,,,,,,,,,,,0,,,66,0
15391,note_on,0,0,1,,,,,,,,,,,,,,,0,,,38,0
15392,note_on,1,0,1,,,,,,,,,,,,,,,0,,,43,127
15392,note_on,0,0,1,,,,,,,,,,,,,,,0,,,67,127
15583,note_on,191,0,1,,,,,,,,,,,,,,,0,,,67,0
15583,note_on,0,0,1,,,,,,,,,,,,,,,0,,,43,0
15584,note_on,0,0,1,,,,,,,,,,,,,,,0,,,71,127
15584,note_on,1,0,1,,,,,,,,,,,,,,,0,,,67,127
15679,note_on,95,0,1,,,,,,,,,,,,,,,0,,,71,0
15679,note_on,0,0,1,,,,,,,,,,,,,,,0,,,67,0
15680,note_on,0,0,1,,,,,,,,,,,,,,,0,,,72,127
15680,note_on,1,0,1,,,,,,,,,,,,,,,0,,,69,127
15775,note_on,95,0,1,,,,,,,,,,,,,,,0,,,72,0
15775,note_on,0,0,1,,,,,,,,,,,,,,,0,,,69,0
15776,note_on,1,0,1,,,,,,,,,,,,,,,0,,,71,127
15776,note_on,0,0,1,,,,,,,,,,,,,,,0,,,74,127
15871,note_on,95,0,1,,,,,,,,,,,,,,,0,,,74,0
15871,note_on,0,0,1,,,,,,,,,,,,,,,0,,,71,0
15872,note_on,1,0,1,,,,,,,,,,,,,,,0,,,72,127
15872,note_on,0,0,1,,,,,,,,,,,,,,,0,,,76,127
15967,note_on,95,0,1,,,,,,,,,,,,,,,0,,,76,0
15967,note_on,0,0,1,,,,,,,,,,,,,,,0,,,72,0
15968,note_on,0,0,1,,,,,,,,,,,,,,,0,,,78,127
15968,note_on,1,0,1,,,,,,,,,,,,,,,0,,,74,127
16063,note_on,95,0,1,,,,,,,,,,,,,,,0,,,78,0
16063,note_on,0,0,1,,,,,,,,,,,,,,,0,,,74,0
16064,note_on,1,0,1,,,,,,,,,,,,,,,0,,,76,127
16064,note_on,0,0,1,,,,,,,,,,,,,,,0,,,79,127
16159,note_on,95,0,1,,,,,,,,,,,,,,,0,,,79,0
16159,note_on,0,0,1,,,,,,,,,,,,,,,0,,,76,0
16160,note_on,1,0,1,,,,,,,,,,,,,,,0,,,74,127
16160,note_on,0,0,1,,,,,,,,,,,,,,,0,,,83,127
16184,note_on,24,0,1,,,,,,,,,,,,,,,0,,,81,127
16191,note_on,7,0,1,,,,,,,,,,,,,,,0,,,83,0
16208,note_on,17,0,1,,,,,,,,,,,,,,,0,,,83,127
16215,note_on,7,0,1,,,,,,,,,,,,,,,0,,,81,0
16232,note_on,17,0,1,,,,,,,,,,,,,,,0,,,81,127
16239,note_on,7,0,1,,,,,,,,,,,,,,,0,,,83,0
16351,note_on,0,0,1,,,,,,,,,,,,,,,0,,,74,0
16351,note_on,112,0,1,,,,,,,,,,,,,,,0,,,81,0
16352,note_on,1,0,1,,,,,,,,,,,,,,,0,,,38,127
16352,note_on,0,0,1,,,,,,,,,,,,,,,0,,,81,127
16352,note_on,0,0,1,,,,,,,,,,,,,,,0,,,78,127
16447,note_on,95,0,1,,,,,,,,,,,,,,,0,,,81,0
16448,note_on,1,0,1,,,,,,,,,,,,,,,0,,,81,127
16543,note_on,0,0,1,,,,,,,,,,,,,,,0,,,78,0
16543,note_on,95,0,1,,,,,,,,,,,,,,,0,,,81,0
16543,note_on,0,0,1,,,,,,,,,,,,,,,0,,,38,0
16544,note_on,0,0,1,,,,,,,,,,,,,,,0,,,83,127
16544,note_on,1,0,1,,,,,,,,,,,,,,,0,,,38,127
16544,note_on,0,0,1,,,,,,,,,,,,,,,0,,,78,127
16568,note_on,24,0,1,,,,,,,,,,,,,,,0,,,81,127
16575,note_on,7,0,1,,,,,,,,,,,,,,,0,,,83,0
16592,note_on,17,0,1,,,,,,,,,,,,,,,0,,,83,127
16599,note_on,7,0,1,,,,,,,,,,,,,,,0,,,81,0
16616,note_on,17,0,1,,,,,,,,,,,,,,,0,,,81,127
16623,note_on,7,0,1,,,,,,,,,,,,,,,0,,,83,0
16735,note_on,112,0,1,,,,,,,,,,,,,,,0,,,38,0
16735,note_on,0,0,1,,,,,,,,,,,,,,,0,,,78,0
16735,note_on,0,0,1,,,,,,,,,,,,,,,0,,,81,0
16736,note_on,1,0,1,,,,,,,,,,,,,,,0,,,38,127
16736,note_on,0,0,1,,,,,,,,,,,,,,,0,,,78,127
16736,note_on,0,0,1,,,,,,,,,,,,,,,0,,,81,127
16831,note_on,95,0,1,,,,,,,,,,,,,,,0,,,81,0
16832,note_on,1,0,1,,,,,,,,,,,,,,,0,,,81,127
16927,note_on,0,0,1,,,,,,,,,,,,,,,0,,,78,0
16927,note_on,95,0,1,,,,,,,,,,,,,,,0,,,81,0
16927,note_on,0,0,1,,,,,,,,,,,,,,,0,,,38,0
16928,note_on,0,0,1,,,,,,,,,,,,,,,0,,,79,127
16928,note_on,0,0,1,,,,,,,,,,,,,,,0,,,83,127
16928,note_on,1,0,1,,,,,,,,,,,,,,,0,,,43,127
17119,note_on,191,0,1,,,,,,,,,,,,,,,0,,,83,0
17119,note_on,0,0,1,,,,,,,,,,,,,,,0,,,79,0
17119,note_on,0,0,1,,,,,,,,,,,,,,,0,,,43,0
17120,note_on,1,0,1,,,,,,,,,,,,,,,0,,,67,127
17120,note_on,0,0,1,,,,,,,,,,,,,,,0,,,71,127
17215,note_on,95,0,1,,,,,,,,,,,,,,,0,,,71,0
17215,note_on,0,0,1,,,,,,,,,,,,,,,0,,,67,0
17216,note_on,1,0,1,,,,,,,,,,,,,,,0,,,69,127
17216,note_on,0,0,1,,,,,,,,,,,,,,,0,,,72,127
17311,note_on,0,0,1,,,,,,,,,,,,,,,0,,,69,0
17311,note_on,95,0,1,,,,,,,,,,,,,,,0,,,72,0
17312,note_on,0,0,1,,,,,,,,,,,,,,,0,,,74,127
17312,note_on,1,0,1,,,,,,,,,,,,,,,0,,,71,127
17407,note_on,95,0,1,,,,,,,,,,,,,,,0,,,74,0
17407,note_on,0,0,1,,,,,,,,,,,,,,,0,,,71,0
17408,note_on,1,0,1,,,,,,,,,,,,,,,0,,,72,127
17408,note_on,0,0,1,,,,,,,,,,,,,,,0,,,76,127
17503,note_on,95,0,1,,,,,,,,,,,,,,,0,,,76,0
17503,note_on,0,0,1,,,,,,,,,,,,,,,0,,,72,0
17504,note_on,1,0,1,,,,,,,,,,,,,,,0,,,74,127
17504,note_on,0,0,1,,,,,,,,,,,,,,,0,,,78,127
17599,note_on,95,0,1,,,,,,,,,,,,,,,0,,,78,0
17599,note_on,0,0,1,,,,,,,,,,,,,,,0,,,74,0
17600,note_on,1,0,1,,,,,,,,,,,,,,,0,,,76,127
17600,note_on,0,0,1,,,,,,,,,,,,,,,0,,,79,127
17695,note_on,95,0,1,,,,,,,,,,,,,,,0,,,79,0
17695,note_on,0,0,1,,,,,,,,,,,,,,,0,,,76,0
17696,note_on,0,0,1,,,,,,,,,,,,,,,0,,,83,127
17696,note_on,1,0,1,,,,,,,,,,,,,,,0,,,74,127
17720,note_on,24,0,1,,,,,,,,,,,,,,,0,,,81,127
17727,note_on,7,0,1,,,,,,,,,,,,,,,0,,,83,0
17744,note_on,17,0,1,,,,,,,,,,,,,,,0,,,83,127
17751,note_on,7,0,1,,,,,,,,,,,,,,,0,,,81,0
17768,note_on,17,0,1,,,,,,,,,,,,,,,0,,,81,127
17775,note_on,7,0,1,,,,,,,,,,,,,,,0,,,83,0
17887,note_on,112,0,1,,,,,,,,,,,,,,,0,,,81,0
17887,note_on,0,0,1,,,,,,,,,,,,,,,0,,,74,0
17888,note_on,1,0,1,,,,,,,,,,,,,,,0,,,38,127
17888,note_on,0,0,1,,,,,,,,,,,,,,,0,,,81,127
17888,note_on,0,0,1,,,,,,,,,,,,,,,0,,,78,127
17983,note_on,95,0,1,,,,,,,,,,,,,,,0,,,81,0
17984,note_on,1,0,1,,,,,,,,,,,,,,,0,,,81,127
18079,note_on,0,0,1,,,,,,,,,,,,,,,0,,,38,0
18079,note_on,95,0,1,,,,,,,,,,,,,,,0,,,81,0
18079,note_on,0,0,1,,,,,,,,,,,,,,,0,,,78,0
18080,note_on,0,0,1,,,,,,,,,,,,,,,0,,,78,127
18080,note_on,0,0,1,,,,,,,,,,,,,,,0,,,83,127
18080,note_on,1,0,1,,,,,,,,,,,,,,,0,,,38,127
18104,note_on,24,0,1,,,,,,,,,,,,,,,0,,,81,127
18111,note_on,7,0,1,,,,,,,,,,,,,,,0,,,83,0
18128,note_on,17,0,1,,,,,,,,,,,,,,,0,,,83,127
18135,note_on,7,0,1,,,,,,,,,,,,,,,0,,,81,0
18152,note_on,17,0,1,,,,,,,,,,,,,,,0,,,81,127
18159,note_on,7,0,1,,,,,,,,,,,,,,,0,,,83,0
18271,note_on,112,0,1,,,,,,,,,,,,,,,0,,,38,0
18271,note_on,0,0,1,,,,,,,,,,,,,,,0,,,78,0
18271,note_on,0,0,1,,,,,,,,,,,,,,,0,,,81,0
18272,note_on,1,0,1,,,,,,,,,,,,,,,0,,,38,127
18272,note_on,0,0,1,,,,,,,,,,,,,,,0,,,78,127
18272,note_on,0,0,1,,,,,,,,,,,,,,,0,,,81,127
18367,note_on,95,0,1,,,,,,,,,,,,,,,0,,,81,0
18368,note_on,1,0,1,,,,,,,,,,,,,,,0,,,81,127
18463,note_on,0,0,1,,,,,,,,,,,,,,,0,,,38,0
18463,note_on,95,0,1,,,,,,,,,,,,,,,0,,,81,0
18463,note_on,0,0,1,,,,,,,,,,,,,,,0,,,78,0
18464,note_on,1,0,1,,,,,,,,,,,,,,,0,,,43,127
18464,note_on,0,0,1,,,,,,,,,,,,,,,0,,,83,127
18464,note_on,0,0,1,,,,,,,,,,,,,,,0,,,79,127
18655,note_on,191,0,1,,,,,,,,,,,,,,,0,,,79,0
18655,note_on,0,0,1,,,,,,,,,,,,,,,0,,,83,0
18656,note_on,1,0,1,,,,,,,,,,,,,,,0,,,86,127
18751,note_on,95,0,1,,,,,,,,,,,,,,,0,,,86,0
18752,note_on,1,0,1,,,,,,,,,,,,,,,0,,,83,127
18847,note_on,95,0,1,,,,,,,,,,,,,,,0,,,83,0
18848,note_on,1,0,1,,,,,,,,,,,,,,,0,,,83,127
19039,note_on,0,0,1,,,,,,,,,,,,,,,0,,,43,0
19039,note_on,191,0,1,,,,,,,,,,,,,,,0,,,83,0
19040,note_on,0,0,1,,,,,,,,,,,,,,,0,,,79,127
19040,note_on,1,0,1,,,,,,,,,,,,,,,0,,,59,127
19135,note_on,95,0,1,,,,,,,,,,,,,,,0,,,79,0
19136,note_on,1,0,1,,,,,,,,,,,,,,,0,,,76,127
19231,note_on,95,0,1,,,,,,,,,,,,,,,0,,,76,0
19231,note_on,0,0,1,,,,,,,,,,,,,,,0,,,59,0
19232,note_on,1,0,1,,,,,,,,,,,,,,,0,,,60,127
19232,note_on,0,0,1,,,,,,,,,,,,,,,0,,,76,127
19423,note_on,191,0,1,,,,,,,,,,,,,,,0,,,76,0
19423,note_on,0,0,1,,,,,,,,,,,,,,,0,,,60,0
19424,note_on,1,0,1,,,,,,,,,,,,,,,0,,,48,127
19424,note_on,0,0,1,,,,,,,,,,,,,,,0,,,72,127
19519,note_on,95,0,1,,,,,,,,,,,,,,,0,,,72,0
19520,note_on,1,0,1,,,,,,,,,,,,,,,0,,,69,127
19615,note_on,95,0,1,,,,,,,,,,,,,,,0,,,69,0
19615,note_on,0,0,1,,,,,,,,,,,,,,,0,,,48,0
19616,note_on,0,0,1,,,,,,,,,,,,,,,0,,,69,127
19616,note_on,1,0,1,,,,,,,,,,,,,,,0,,,50,127
19807,note_on,0,0,1,,,,,,,,,,,,,,,0,,,50,0
19807,note_on,191,0,1,,,,,,,,,,,,,,,0,,,69,0
19808,note_on,1,0,1,,,,,,,,,,,,,,,0,,,38,127
19808,note_on,0,0,1,,,,,,,,,,,,,,,0,,,67,127
19903,note_on,95,0,1,,,,,,,,,,,,,,,0,,,67,0
19904,note_on,1,0,1,,,,,,,,,,,,,,,0,,,66,127
19999,note_on,95,0,1,,,,,,,,,,,,,,,0,,,66,0
19999,note_on,0,0,1,,,,,,,,,,,,,,,0,,,38,0
20000,note_on,1,0,1,,,,,,,,,,,,,,,0,,,43,127
20000,note_on,0,0,1,,,,,,,,,,,,,,,0,,,67,127
20191,note_on,191,0,1,,,,,,,,,,,,,,,0,,,67,0
20192,note_on,1,0,1,,,,,,,,,,,,,,,0,,,79,127
20287,note_on,95,0,1,,,,,,,,,,,,,,,0,,,79,0
20288,note_on,1,0,1,,,,,,,,,,,,,,,0,,,74,127
20383,note_on,95,0,1,,,,,,,,,,,,,,,0,,,74,0
20383,note_on,0,0,1,,,,,,,,,,,,,,,0,,,43,0
20384,note_on,0,0,1,,,,,,,,,,,,,,,0,,,76,127
20384,note_on,0,0,1,,,,,,,,,,,,,,,0,,,71,127
20384,note_on,1,0,1,,,,,,,,,,,,,,,0,,,67,127
20408,note_on,24,0,1,,,,,,,,,,,,,,,0,,,74,127
20415,note_on,7,0,1,,,,,,,,,,,,,,,0,,,76,0
20432,note_on,17,0,1,,,,,,,,,,,,,,,0,,,76,127
20439,note_on,7,0,1,,,,,,,,,,,,,,,0,,,74,0
20456,note_on,17,0,1,,,,,,,,,,,,,,,0,,,74,127
20463,note_on,7,0,1,,,,,,,,,,,,,,,0,,,76,0
20575,note_on,112,0,1,,,,,,,,,,,,,,,0,,,74,0
20576,note_on,1,0,1,,,,,,,,,,,,,,,0,,,79,127
20671,note_on,95,0,1,,,,,,,,,,,,,,,0,,,79,0
20672,note_on,1,0,1,,,,,,,,,,,,,,,0,,,74,127
20767,note_on,95,0,1,,,,,,,,,,,,,,,0,,,74,0
20767,note_on,0,0,1,,,,,,,,,,,,,,,0,,,71,0
20767,note_on,0,0,1,,,,,,,,,,,,,,,0,,,67,0
20768,note_on,1,0,1,,,,,,,,,,,,,,,0,,,71,127
20768,note_on,0,0,1,,,,,,,,,,,,,,,0,,,67,127
20768,note_on,0,0,1,,,,,,,,,,,,,,,0,,,76,127
20792,note_on,24,0,1,,,,,,,,,,,,,,,0,,,74,127
20799,note_on,7,0,1,,,,,,,,,,,,,,,0,,,76,0
20816,note_on,17,0,1,,,,,,,,,,,,,,,0,,,76,127
20823,note_on,7,0,1,,,,,,,,,,,,,,,0,,,74,0
20840,note_on,17,0,1,,,,,,,,,,,,,,,0,,,74,127
20847,note_on,7,0,1,,,,,,,,,,,,,,,0,,,76,0
20959,note_on,112,0,1,,,,,,,,,,,,,,,0,,,74,0
20960,note_on,1,0,1,,,,,,,,,,,,,,,0,,,67,127
21055,note_on,95,0,1,,,,,,,,,,,,,,,0,,,67,0
21056,note_on,1,0,1,,,,,,,,,,,,,,,0,,,62,127
21151,note_on,95,0,1,,,,,,,,,,,,,,,0,,,62,0
21151,note_on,0,0,1,,,,,,,,,,,,,,,0,,,67,0
21151,note_on,0,0,1,,,,,,,,,,,,,,,0,,,71,0
21152,note_on,0,0,1,,,,,,,,,,,,,,,0,,,55,127
21152,note_on,1,0,1,,,,,,,,,,,,,,,0,,,59,127
21152,note_on,0,0,1,,,,,,,,,,,,,,,0,,,64,127
21176,note_on,24,0,1,,,,,,,,,,,,,,,0,,,62,127
21183,note_on,7,0,1,,,,,,,,,,,,,,,0,,,64,0
21200,note_on,17,0,1,,,,,,,,,,,,,,,0,,,64,127
21207,note_on,7,0,1,,,,,,,,,,,,,,,0,,,62,0
21224,note_on,17,0,1,,,,,,,,,,,,,,,0,,,62,127
21231,note_on,7,0,1,,,,,,,,,,,,,,,0,,,64,0
21343,note_on,112,0,1,,,,,,,,,,,,,,,0,,,62,0
21344,note_on,1,0,1,,,,,,,,,,,,,,,0,,,67,127
21439,note_on,95,0,1,,,,,,,,,,,,,,,0,,,67,0
21440,note_on,1,0,1,,,,,,,,,,,,,,,0,,,62,127
21535,note_on,95,0,1,,,,,,,,,,,,,,,0,,,62,0
21535,note_on,0,0,1,,,,,,,,,,,,,,,0,,,55,0
21535,note_on,0,0,1,,,,,,,,,,,,,,,0,,,59,0
21536,note_on,0,0,1,,,,,,,,,,,,,,,0,,,64,127
21536,note_on,1,0,1,,,,,,,,,,,,,,,0,,,59,127
21536,note_on,0,0,1,,,,,,,,,,,,,,,0,,,55,127
21560,note_on,24,0,1,,,,,,,,,,,,,,,0,,,62,127
21567,note_on,7,0,1,,,,,,,,,,,,,,,0,,,64,0
21584,note_on,17,0,1,,,,,,,,,,,,,,,0,,,64,127
21591,note_on,7,0,1,,,,,,,,,,,,,,,0,,,62,0
21608,note_on,17,0,1,,,,,,,,,,,,,,,0,,,62,127
21615,note_on,7,0,1,,,,,,,,,,,,,,,0,,,64,0
21727,note_on,112,0,1,,,,,,,,,,,,,,,0,,,62,0
21728,note_on,1,0,1,,,,,,,,,,,,,,,0,,,67,127
21823,note_on,95,0,1,,,,,,,,,,,,,,,0,,,67,0
21824,note_on,1,0,1,,,,,,,,,,,,,,,0,,,59,127
21919,note_on,95,0,1,,,,,,,,,,,,,,,0,,,59,0
21919,note_on,0,0,1,,,,,,,,,,,,,,,0,,,55,0
21919,note_on,0,0,1,,,,,,,,,,,,,,,0,,,59,0
21920,note_on,0,0,1,,,,,,,,,,,,,,,0,,,60,127
21920,note_on,1,0,1,,,,,,,,,,,,,,,0,,,43,127
21944,note_on,24,0,1,,,,,,,,,,,,,,,0,,,59,127
21951,note_on,7,0,1,,,,,,,,,,,,,,,0,,,60,0
21968,note_on,17,0,1,,,,,,,,,,,,,,,0,,,60,127
21975,note_on,7,0,1,,,,,,,,,,,,,,,0,,,59,0
21992,note_on,17,0,1,,,,,,,,,,,,,,,0,,,59,127
21999,note_on,7,0,1,,,,,,,,,,,,,,,0,,,60,0
22111,note_on,112,0,1,,,,,,,,,,,,,,,0,,,59,0
22112,note_on,1,0,1,,,,,,,,,,,,,,,0,,,67,127
22207,note_on,95,0,1,,,,,,,,,,,,,,,0,,,67,0
22208,note_on,1,0,1,,,,,,,,,,,,,,,0,,,59,127
22303,note_on,95,0,1,,,,,,,,,,,,,,,0,,,59,0
22303,note_on,0,0,1,,,,,,,,,,,,,,,0,,,43,0
22304,note_on,1,0,1,,,,,,,,,,,,,,,0,,,36,127
22304,note_on,0,0,1,,,,,,,,,,,,,,,0,,,64,127
22495,note_on,191,0,1,,,,,,,,,,,,,,,0,,,64,0
22496,note_on,1,0,1,,,,,,,,,,,,,,,0,,,60,127
22591,note_on,95,0,1,,,,,,,,,,,,,,,0,,,60,0
22592,note_on,1,0,1,,,,,,,,,,,,,,,0,,,57,127
22687,note_on,0,0,1,,,,,,,,,,,,,,,0,,,36,0
22687,note_on,95,0,1,,,,,,,,,,,,,,,0,,,57,0
22688,note_on,0,0,1,,,,,,,,,,,,,,,0,,,59,127
22688,note_on,0,0,1,,,,,,,,,,,,,,,0,,,55,127
22688,note_on,1,0,1,,,,,,,,,,,,,,,0,,,38,127
22879,note_on,191,0,1,,,,,,,,,,,,,,,0,,,55,0
22880,note_on,1,0,1,,,,,,,,,,,,,,,0,,,54,127
22910,note_on,30,0,1,,,,,,,,,,,,,,,0,,,59,0
22912,note_on,2,0,1,,,,,,,,,,,,,,,0,,,57,127
22943,note_on,31,0,1,,,,,,,,,,,,,,,0,,,57,0
22944,note_on,1,0,1,,,,,,,,,,,,,,,0,,,59,127
22975,note_on,31,0,1,,,,,,,,,,,,,,,0,,,59,0
22976,note_on,1,0,1,,,,,,,,,,,,,,,0,,,57,127
23071,note_on,0,0,1,,,,,,,,,,,,,,,0,,,38,0
23071,note_on,95,0,1,,,,,,,,,,,,,,,0,,,57,0
23071,note_on,0,0,1,,,,,,,,,,,,,,,0,,,54,0
23072,note_on,1,0,1,,,,,,,,,,,,,,,0,,,43,127
23072,note_on,0,0,1,,,,,,,,,,,,,,,0,,,55,127
23311,note_on,239,0,1,,,,,,,,,,,,,,,0,,,55,0
23312,note_on,1,0,1,,,,,,,,,,,,,,,0,,,57,127
23336,note_on,24,0,1,,,,,,,,,,,,,,,0,,,59,127
23360,note_on,24,0,1,,,,,,,,,,,,,,,0,,,60,127
23375,note_on,15,0,1,,,,,,,,,,,,,,,0,,,57,0
23384,note_on,9,0,1,,,,,,,,,,,,,,,0,,,62,127
23399,note_on,15,0,1,,,,,,,,,,,,,,,0,,,59,0
23408,note_on,9,0,1,,,,,,,,,,,,,,,0,,,64,127
23423,note_on,15,0,1,,,,,,,,,,,,,,,0,,,60,0
23432,note_on,9,0,1,,,,,,,,,,,,,,,0,,,66,127
23447,note_on,15,0,1,,,,,,,,,,,,,,,0,,,62,0
23456,note_on,9,0,1,,,,,,,,,,,,,,,0,,,67,127
23471,note_on,15,0,1,,,,,,,,,,,,,,,0,,,64,0
23495,note_on,24,0,1,,,,,,,,,,,,,,,0,,,66,0
23695,note_on,200,0,1,,,,,,,,,,,,,,,0,,,67,0
23696,note_on,1,0,1,,,,,,,,,,,,,,,0,,,69,127
23720,note_on,24,0,1,,,,,,,,,,,,,,,0,,,71,127
23744,note_on,24,0,1,,,,,,,,,,,,,,,0,,,72,127
23759,note_on,15,0,1,,,,,,,,,,,,,,,0,,,69,0
23768,note_on,9,0,1,,,,,,,,,,,,,,,0,,,74,127
23783,note_on,15,0,1,,,,,,,,,,,,,,,0,,,71,0
23792,note_on,9,0,1,,,,,,,,,,,,,,,0,,,76,127
23807,note_on,15,0,1,,,,,,,,,,,,,,,0,,,72,0
23816,note_on,9,0,1,,,,,,,,,,,,,,,0,,,78,127
23831,note_on,15,0,1,,,,,,,,,,,,,,,0,,,74,0
23840,note_on,9,0,1,,,,,,,,,,,,,,,0,,,79,127
23855,note_on,15,0,1,,,,,,,,,,,,,,,0,,,76,0
23879,note_on,24,0,1,,,,,,,,,,,,,,,0,,,78,0
24079,note_on,200,0,1,,,,,,,,,,,,,,,0,,,79,0
24080,note_on,1,0,1,,,,,,,,,,,,,,,0,,,81,127
24104,note_on,24,0,1,,,,,,,,,,,,,,,0,,,83,127
24128,note_on,24,0,1,,,,,,,,,,,,,,,0,,,84,127
24143,note_on,15,0,1,,,,,,,,,,,,,,,0,,,81,0
24152,note_on,9,0,1,,,,,,,,,,,,,,,0,,,86,127
24167,note_on,15,0,1,,,,,,,,,,,,,,,0,,,83,0
24176,note_on,9,0,1,,,,,,,,,,,,,,,0,,,88,127
24191,note_on,15,0,1,,,,,,,,,,,,,,,0,,,84,0
24200,note_on,9,0,1,,,,,,,,,,,,,,,0,,,90,127
24215,note_on,15,0,1,,,,,,,,,,,,,,,0,,,86,0
24224,note_on,9,0,1,,,,,,,,,,,,,,,0,,,91,127
24239,note_on,15,0,1,,,,,,,,,,,,,,,0,,,88,0
24263,note_on,24,0,1,,,,,,,,,,,,,,,0,,,90,0
24415,note_on,0,0,1,,,,,,,,,,,,,,,0,,,91,0
24415,note_on,152,0,1,,,,,,,,,,,,,,,0,,,43,0
24416,note_on,1,0,1,,,,,,,,,,,,,,,0,,,43,127
24416,note_on,0,0,1,,,,,,,,,,,,,,,0,,,79,127
24607,note_on,191,0,1,,,,,,,,,,,,,,,0,,,43,0
24608,note_on,1,0,1,,,,,,,,,,,,,,,0,,,36,127
24799,note_on,191,0,1,,,,,,,,,,,,,,,0,,,36,0
24799,note_on,0,0,1,,,,,,,,,,,,,,,0,,,79,0
24800,note_on,1,0,1,,,,,,,,,,,,,,,0,,,48,127
24800,note_on,0,0,1,,,,,,,,,,,,,,,0,,,60,127
24895,note_on,95,0,1,,,,,,,,,,,,,,,0,,,60,0
24896,note_on,1,0,1,,,,,,,,,,,,,,,0,,,57,127
24991,note_on,0,0,1,,,,,,,,,,,,,,,0,,,48,0
24991,note_on,95,0,1,,,,,,,,,,,,,,,0,,,57,0
24992,note_on,0,0,1,,,,,,,,,,,,,,,0,,,55,127
24992,note_on,0,0,1,,,,,,,,,,,,,,,0,,,59,127
24992,note_on,1,0,1,,,,,,,,,,,,,,,0,,,50,127
25183,note_on,191,0,1,,,,,,,,,,,,,,,0,,,55,0
25183,note_on,0,0,1,,,,,,,,,,,,,,,0,,,50,0
25184,note_on,1,0,1,,,,,,,,,,,,,,,0,,,38,127
25184,note_on,0,0,1,,,,,,,,,,,,,,,0,,,54,127
25214,note_on,30,0,1,,,,,,,,,,,,,,,0,,,59,0
25216,note_on,2,0,1,,,,,,,,,,,,,,,0,,,57,127
25248,note_on,32,0,1,,,,,,,,,,,,,,,0,,,59,127
25263,note_on,15,0,1,,,,,,,,,,,,,,,0,,,57,0
25280,note_on,17,0,1,,,,,,,,,,,,,,,0,,,57,127
25295,note_on,15,0,1,,,,,,,,,,,,,,,0,,,59,0
25375,note_on,0,0,1,,,,,,,,,,,,,,,0,,,54,0
25375,note_on,80,0,1,,,,,,,,,,,,,,,0,,,38,0
25376,note_on,1,0,1,,,,,,,,,,,,,,,0,,,57,0
25376,note_on,0,0,1,,,,,,,,,,,,,,,0,,,43,127
25376,note_on,0,0,1,,,,,,,,,,,,,,,0,,,55,127
25615,note_on,239,0,1,,,,,,,,,,,,,,,0,,,55,0
25616,note_on,1,0,1,,,,,,,,,,,,,,,0,,,57,127
25640,note_on,24,0,1,,,,,,,,,,,,,,,0,,,59,127
25664,note_on,24,0,1,,,,,,,,,,,,,,,0,,,60,127
25679,note_on,15,0,1,,,,,,,,,,,,,,,0,,,57,0
25688,note_on,9,0,1,,,,,,,,,,,,,,,0,,,62,127
25703,note_on,15,0,1,,,,,,,,,,,,,,,0,,,59,0
25712,note_on,9,0,1,,,,,,,,,,,,,,,0,,,64,127
25727,note_on,15,0,1,,,,,,,,,,,,,,,0,,,60,0
25736,note_on,9,0,1,,,,,,,,,,,,,,,0,,,66,127
25751,note_on,15,0,1,,,,,,,,,,,,,,,0,,,62,0
25760,note_on,9,0,1,,,,,,,,,,,,,,,0,,,67,127
25775,note_on,15,0,1,,,,,,,,,,,,,,,0,,,64,0
25799,note_on,24,0,1,,,,,,,,,,,,,,,0,,,66,0
25999,note_on,200,0,1,,,,,,,,,,,,,,,0,,,67,0
26000,note_on,1,0,1,,,,,,,,,,,,,,,0,,,69,127
26024,note_on,24,0,1,,,,,,,,,,,,,,,0,,,71,127
26048,note_on,24,0,1,,,,,,,,,,,,,,,0,,,72,127
26063,note_on,15,0,1,,,,,,,,,,,,,,,0,,,69,0
26072,note_on,9,0,1,,,,,,,,,,,,,,,0,,,74,127
26087,note_on,15,0,1,,,,,,,,,,,,,,,0,,,71,0
26096,note_on,9,0,1,,,,,,,,,,,,,,,0,,,76,127
26111,note_on,15,0,1,,,,,,,,,,,,,,,0,,,72,0
26120,note_on,9,0,1,,,,,,,,,,,,,,,0,,,78,127
26135,note_on,15,0,1,,,,,,,,,,,,,,,0,,,74,0
26144,note_on,9,0,1,,,,,,,,,,,,,,,0,,,79,127
26159,note_on,15,0,1,,,,,,,,,,,,,,,0,,,76,0
26183,note_on,24,0,1,,,,,,,,,,,,,,,0,,,78,0
26383,note_on,200,0,1,,,,,,,,,,,,,,,0,,,79,0
26384,note_on,1,0,1,,,,,,,,,,,,,,,0,,,81,127
26408,note_on,24,0,1,,,,,,,,,,,,,,,0,,,83,127
26432,note_on,24,0,1,,,,,,,,,,,,,,,0,,,84,127
26447,note_on,15,0,1,,,,,,,,,,,,,,,0,,,81,0
26456,note_on,9,0,1,,,,,,,,,,,,,,,0,,,86,127
26471,note_on,15,0,1,,,,,,,,,,,,,,,0,,,83,0
26480,note_on,9,0,1,,,,,,,,,,,,,,,0,,,88,127
26495,note_on,15,0,1,,,,,,,,,,,,,,,0,,,84,0
26504,note_on,9,0,1,,,,,,,,,,,,,,,0,,,90,127
26519,note_on,15,0,1,,,,,,,,,,,,,,,0,,,86,0
26528,note_on,9,0,1,,,,,,,,,,,,,,,0,,,91,127
26543,note_on,15,0,1,,,,,,,,,,,,,,,0,,,88,0
26567,note_on,24,0,1,,,,,,,,,,,,,,,0,,,90,0
26719,note_on,152,0,1,,,,,,,,,,,,,,,0,,,43,0
26719,note_on,0,0,1,,,,,,,,,,,,,,,0,,,91,0
26720,note_on,1,0,1,,,,,,,,,,,,,,,0,,,43,127
26720,note_on,0,0,1,,,,,,,,,,,,,,,0,,,79,127
26911,note_on,191,0,1,,,,,,,,,,,,,,,0,,,43,0
26912,note_on,1,0,1,,,,,,,,,,,,,,,0,,,36,127
27103,note_on,0,0,1,,,,,,,,,,,,,,,0,,,79,0
27103,note_on,191,0,1,,,,,,,,,,,,,,,0,,,36,0
27104,note_on,1,0,1,,,,,,,,,,,,,,,0,,,48,127
27104,note_on,0,0,1,,,,,,,,,,,,,,,0,,,60,127
27199,note_on,95,0,1,,,,,,,,,,,,,,,0,,,60,0
27200,note_on,1,0,1,,,,,,,,,,,,,,,0,,,57,127
27295,note_on,95,0,1,,,,,,,,,,,,,,,0,,,57,0
27295,note_on,0,0,1,,,,,,,,,,,,,,,0,,,48,0
27296,note_on,1,0,1,,,,,,,,,,,,,,,0,,,50,127
27296,note_on,0,0,1,,,,,,,,,,,,,,,0,,,55,127
27296,note_on,0,0,1,,,,,,,,,,,,,,,0,,,59,127
27487,note_on,0,0,1,,,,,,,,,,,,,,,0,,,50,0
27487,note_on,191,0,1,,,,,,,,,,,,,,,0,,,55,0
27488,note_on,1,0,1,,,,,,,,,,,,,,,0,,,38,127
27488,note_on,0,0,1,,,,,,,,,,,,,,,0,,,54,127
27518,note_on,30,0,1,,,,,,,,,,,,,,,0,,,59,0
27520,note_on,2,0,1,,,,,,,,,,,,,,,0,,,57,127
27551,note_on,31,0,1,,,,,,,,,,,,,,,0,,,57,0
27552,note_on,1,0,1,,,,,,,,,,,,,,,0,,,59,127
27583,note_on,31,0,1,,,,,,,,,,,,,,,0,,,59,0
27584,note_on,1,0,1,,,,,,,,,,,,,,,0,,,57,127
27615,note_on,31,0,1,,,,,,,,,,,,,,,0,,,57,0
27616,note_on,1,0,1,,,,,,,,,,,,,,,0,,,55,127
27647,note_on,31,0,1,,,,,,,,,,,,,,,0,,,55,0
27648,note_on,1,0,1,,,,,,,,,,,,,,,0,,,57,127
27679,note_on,31,0,1,,,,,,,,,,,,,,,0,,,57,0
27679,note_on,0,0,1,,,,,,,,,,,,,,,0,,,54,0
27679,note_on,0,0,1,,,,,,,,,,,,,,,0,,,38,0
27680,note_on,0,0,1,,,,,,,,,,,,,,,0,,,55,127
27680,note_on,1,0,1,,,,,,,,,,,,,,,0,,,43,127
27871,note_on,191,0,1,,,,,,,,,,,,,,,0,,,55,0
27872,note_on,1,0,1,,,,,,,,,,,,,,,0,,,67,127
27872,note_on,0,0,1,,,,,,,,,,,,,,,0,,,59,127
27967,note_on,95,0,1,,,,,,,,,,,,,,,0,,,59,0
27967,note_on,0,0,1,,,,,,,,,,,,,,,0,,,67,0
27968,note_on,1,0,1,,,,,,,,,,,,,,,0,,,59,127
27968,note_on,0,0,1,,,,,,,,,,,,,,,0,,,67,127
28063,note_on,95,0,1,,,,,,,,,,,,,,,0,,,67,0
28063,note_on,0,0,1,,,,,,,,,,,,,,,0,,,59,0
28063,note_on,0,0,1,,,,,,,,,,,,,,,0,,,43,0
28064,note_on,1,0,1,,,,,,,,,,,,,,,0,,,43,127
28064,note_on,0,0,1,,,,,,,,,,,,,,,0,,,67,127
28064,note_on,0,0,1,,,,,,,,,,,,,,,0,,,59,127
28255,note_on,191,0,1,,,,,,,,,,,,,,,0,,,59,0
28255,note_on,0,0,1,,,,,,,,,,,,,,,0,,,67,0
28256,note_on,0,0,1,,,,,,,,,,,,,,,0,,,62,127
28256,note_on,1,0,1,,,,,,,,,,,,,,,0,,,71,127
28351,note_on,0,0,1,,,,,,,,,,,,,,,0,,,71,0
28351,note_on,95,0,1,,,,,,,,,,,,,,,0,,,62,0
28352,note_on,1,0,1,,,,,,,,,,,,,,,0,,,62,127
28352,note_on,0,0,1,,,,,,,,,,,,,,,0,,,71,127
28447,note_on,95,0,1,,,,,,,,,,,,,,,0,,,71,0
28447,note_on,0,0,1,,,,,,,,,,,,,,,0,,,62,0
28447,note_on,0,0,1,,,,,,,,,,,,,,,0,,,43,0
28448,note_on,0,0,1,,,,,,,,,,,,,,,0,,,71,127
28448,note_on,0,0,1,,,,,,,,,,,,,,,0,,,62,127
28448,note_on,1,0,1,,,,,,,,,,,,,,,0,,,43,127
28639,note_on,191,0,1,,,,,,,,,,,,,,,0,,,62,0
28639,note_on,0,0,1,,,,,,,,,,,,,,,0,,,71,0
28640,note_on,1,0,1,,,,,,,,,,,,,,,0,,,74,127
28640,note_on,0,0,1,,,,,,,,,,,,,,,0,,,71,127
28735,note_on,95,0,1,,,,,,,,,,,,,,,0,,,71,0
28735,note_on,0,0,1,,,,,,,,,,,,,,,0,,,74,0
28736,note_on,1,0,1,,,,,,,,,,,,,,,0,,,71,127
28736,note_on,0,0,1,,,,,,,,,,,,,,,0,,,74,127
28831,note_on,0,0,1,,,,,,,,,,,,,,,0,,,43,0
28831,note_on,95,0,1,,,,,,,,,,,,,,,0,,,74,0
28831,note_on,0,0,1,,,,,,,,,,,,,,,0,,,71,0
28832,note_on,1,0,1,,,,,,,,,,,,,,,0,,,43,127
28832,note_on,0,0,1,,,,,,,,,,,,,,,0,,,74,127
28832,note_on,0,0,1,,,,,,,,,,,,,,,0,,,71,127
29023,note_on,191,0,1,,,,,,,,,,,,,,,0,,,71,0
29023,note_on,0,0,1,,,,,,,,,,,,,,,0,,,74,0
29024,note_on,1,0,1,,,,,,,,,,,,,,,0,,,71,127
29024,note_on,0,0,1,,,,,,,,,,,,,,,0,,,79,127
29119,note_on,95,0,1,,,,,,,,,,,,,,,0,,,79,0
29119,note_on,0,0,1,,,,,,,,,,,,,,,0,,,71,0
29120,note_on,1,0,1,,,,,,,,,,,,,,,0,,,79,127
29120,note_on,0,0,1,,,,,,,,,,,,,,,0,,,71,127
29215,note_on,0,0,1,,,,,,,,,,,,,,,0,,,43,0
29215,note_on,95,0,1,,,,,,,,,,,,,,,0,,,71,0
29215,note_on,0,0,1,,,,,,,,,,,,,,,0,,,79,0
29216,note_on,1,0,1,,,,,,,,,,,,,,,0,,,43,127
29216,note_on,0,0,1,,,,,,,,,,,,,,,0,,,81,127
29216,note_on,0,0,1,,,,,,,,,,,,,,,0,,,71,127
29240,note_on,24,0,1,,,,,,,,,,,,,,,0,,,79,127
29247,note_on,7,0,1,,,,,,,,,,,,,,,0,,,81,0
29264,note_on,17,0,1,,,,,,,,,,,,,,,0,,,81,127
29271,note_on,7,0,1,,,,,,,,,,,,,,,0,,,79,0
29288,note_on,17,0,1,,,,,,,,,,,,,,,0,,,79,127
29295,note_on,7,0,1,,,,,,,,,,,,,,,0,,,81,0
29928,note_on,633,0,1,,,,,,,,,,,,,,,0,,,79,0
29935,note_on,7,0,1,,,,,,,,,,,,,,,0,,,71,0
29983,note_on,48,0,1,,,,,,,,,,,,,,,0,,,43,0
29984,note_on,1,0,1,,,,,,,,,,,,,,,0,,,65,127
29984,note_on,0,0,1,,,,,,,,,,,,,,,0,,,55,127
30176,note_on,192,0,1,,,,,,,,,,,,,,,0,,,74,127
30271,note_on,95,0,1,,,,,,,,,,,,,,,0,,,74,0
30272,note_on,1,0,1,,,,,,,,,,,,,,,0,,,71,127
30367,note_on,0,0,1,,,,,,,,,,,,,,,0,,,55,0
30367,note_on,0,0,1,,,,,,,,,,,,,,,0,,,65,0
30367,note_on,95,0,1,,,,,,,,,,,,,,,0,,,71,0
30368,note_on,1,0,1,,,,,,,,,,,,,,,0,,,65,127
30368,note_on,0,0,1,,,,,,,,,,,,,,,0,,,55,127
30368,note_on,0,0,1,,,,,,,,,,,,,,,0,,,71,127
30559,note_on,191,0,1,,,,,,,,,,,,,,,0,,,71,0
30560,note_on,1,0,1,,,,,,,,,,,,,,,0,,,77,127
30655,note_on,95,0,1,,,,,,,,,,,,,,,0,,,77,0
30656,note_on,1,0,1,,,,,,,,,,,,,,,0,,,74,127
30751,note_on,95,0,1,,,,,,,,,,,,,,,0,,,74,0
30751,note_on,0,0,1,,,,,,,,,,,,,,,0,,,55,0
30751,note_on,0,0,1,,,,,,,,,,,,,,,0,,,65,0
30752,note_on,0,0,1,,,,,,,,,,,,,,,0,,,55,127
30752,note_on,1,0,1,,,,,,,,,,,,,,,0,,,65,127
30752,note_on,0,0,1,,,,,,,,,,,,,,,0,,,74,127
30943,note_on,191,0,1,,,,,,,,,,,,,,,0,,,74,0
30944,note_on,1,0,1,,,,,,,,,,,,,,,0,,,86,127
31039,note_on,95,0,1,,,,,,,,,,,,,,,0,,,86,0
31040,note_on,1,0,1,,,,,,,,,,,,,,,0,,,77,127
31135,note_on,0,0,1,,,,,,,,,,,,,,,0,,,65,0
31135,note_on,95,0,1,,,,,,,,,,,,,,,0,,,77,0
31135,note_on,0,0,1,,,,,,,,,,,,,,,0,,,55,0
31136,note_on,1,0,1,,,,,,,,,,,,,,,0,,,65,127
31136,note_on,0,0,1,,,,,,,,,,,,,,,0,,,55,127
31136,note_on,0,0,1,,,,,,,,,,,,,,,0,,,77,127
31327,note_on,191,0,1,,,,,,,,,,,,,,,0,,,77,0
31328,note_on,1,0,1,,,,,,,,,,,,,,,0,,,83,127
31423,note_on,95,0,1,,,,,,,,,,,,,,,0,,,83,0
31424,note_on,1,0,1,,,,,,,,,,,,,,,0,,,74,127
31519,note_on,95,0,1,,,,,,,,,,,,,,,0,,,74,0
31519,note_on,0,0,1,,,,,,,,,,,,,,,0,,,55,0
31519,note_on,0,0,1,,,,,,,,,,,,,,,0,,,65,0
31520,note_on,0,0,1,,,,,,,,,,,,,,,0,,,74,127
31520,note_on,0,0,1,,,,,,,,,,,,,,,0,,,55,127
31520,note_on,1,0,1,,,,,,,,,,,,,,,0,,,65,127
31711,note_on,191,0,1,,,,,,,,,,,,,,,0,,,74,0
31712,note_on,1,0,1,,,,,,,,,,,,,,,0,,,77,127
31807,note_on,95,0,1,,,,,,,,,,,,,,,0,,,77,0
31808,note_on,1,0,1,,,,,,,,,,,,,,,0,,,74,127
31903,note_on,95,0,1,,,,,,,,,,,,,,,0,,,74,0
31903,note_on,0,0,1,,,,,,,,,,,,,,,0,,,55,0
31903,note_on,0,0,1,,,,,,,,,,,,,,,0,,,65,0
31904,note_on,1,0,1,,,,,,,,,,,,,,,0,,,62,127
31904,note_on,0,0,1,,,,,,,,,,,,,,,0,,,64,127
31904,note_on,0,0,1,,,,,,,,,,,,,,,0,,,56,127
31904,note_on,0,0,1,,,,,,,,,,,,,,,0,,,74,127
32128,note_on,224,0,1,,,,,,,,,,,,,,,0,,,72,127
32142,note_on,14,0,1,,,,,,,,,,,,,,,0,,,74,0
32160,note_on,18,0,1,,,,,,,,,,,,,,,0,,,74,127
32175,note_on,15,0,1,,,,,,,,,,,,,,,0,,,72,0
32192,note_on,17,0,1,,,,,,,,,,,,,,,0,,,72,127
32207,note_on,15,0,1,,,,,,,,,,,,,,,0,,,74,0
32224,note_on,17,0,1,,,,,,,,,,,,,,,0,,,71,127
32239,note_on,15,0,1,,,,,,,,,,,,,,,0,,,72,0
32287,note_on,48,0,1,,,,,,,,,,,,,,,0,,,56,0
32287,note_on,0,0,1,,,,,,,,,,,,,,,0,,,62,0
32287,note_on,0,0,1,,,,,,,,,,,,,,,0,,,64,0
32287,note_on,0,0,1,,,,,,,,,,,,,,,0,,,71,0
32288,note_on,1,0,1,,,,,,,,,,,,,,,0,,,57,127
32288,note_on,0,0,1,,,,,,,,,,,,,,,0,,,60,127
32288,note_on,0,0,1,,,,,,,,,,,,,,,0,,,64,127
32288,note_on,0,0,1,,,,,,,,,,,,,,,0,,,72,127
32479,note_on,191,0,1,,,,,,,,,,,,,,,0,,,72,0
32480,note_on,1,0,1,,,,,,,,,,,,,,,0,,,81,127
32575,note_on,95,0,1,,,,,,,,,,,,,,,0,,,81,0
32576,note_on,1,0,1,,,,,,,,,,,,,,,0,,,72,127
32671,note_on,95,0,1,,,,,,,,,,,,,,,0,,,72,0
32671,note_on,0,0,1,,,,,,,,,,,,,,,0,,,57,0
32671,note_on,0,0,1,,,,,,,,,,,,,,,0,,,60,0
32671,note_on,0,0,1,,,,,,,,,,,,,,,0,,,64,0
32672,note_on,1,0,1,,,,,,,,,,,,,,,0,,,64,127
32672,note_on,0,0,1,,,,,,,,,,,,,,,0,,,60,127
32672,note_on,0,0,1,,,,,,,,,,,,,,,0,,,57,127
32672,note_on,0,0,1,,,,,,,,,,,,,,,0,,,74,127
32704,note_on,32,0,1,,,,,,,,,,,,,,,0,,,72,127
32719,note_on,15,0,1,,,,,,,,,,,,,,,0,,,74,0
32736,note_on,17,0,1,,,,,,,,,,,,,,,0,,,74,127
32751,note_on,15,0,1,,,,,,,,,,,,,,,0,,,72,0
32768,note_on,17,0,1,,,,,,,,,,,,,,,0,,,72,127
32783,note_on,15,0,1,,,,,,,,,,,,,,,0,,,74,0
32863,note_on,80,0,1,,,,,,,,,,,,,,,0,,,72,0
32864,note_on,1,0,1,,,,,,,,,,,,,,,0,,,81,127
32959,note_on,95,0,1,,,,,,,,,,,,,,,0,,,81,0
32960,note_on,1,0,1,,,,,,,,,,,,,,,0,,,72,127
33055,note_on,0,0,1,,,,,,,,,,,,,,,0,,,57,0
33055,note_on,95,0,1,,,,,,,,,,,,,,,0,,,72,0
33055,note_on,0,0,1,,,,,,,,,,,,,,,0,,,64,0
33055,note_on,0,0,1,,,,,,,,,,,,,,,0,,,60,0
33056,note_on,0,0,1,,,,,,,,,,,,,,,0,,,72,127
33056,note_on,1,0,1,,,,,,,,,,,,,,,0,,,58,127
33056,note_on,0,0,1,,,,,,,,,,,,,,,0,,,64,127
33056,note_on,0,0,1,,,,,,,,,,,,,,,0,,,55,127
33056,note_on,0,0,1,,,,,,,,,,,,,,,0,,,60,127
33088,note_on,32,0,1,,,,,,,,,,,,,,,0,,,70,127
33103,note_on,15,0,1,,,,,,,,,,,,,,,0,,,72,0
33120,note_on,17,0,1,,,,,,,,,,,,,,,0,,,72,127
33135,note_on,15,0,1,,,,,,,,,,,,,,,0,,,70,0
33152,note_on,17,0,1,,,,,,,,,,,,,,,0,,,70,127
33167,note_on,15,0,1,,,,,,,,,,,,,,,0,,,72,0
33247,note_on,80,0,1,,,,,,,,,,,,,,,0,,,70,0
33248,note_on,1,0,1,,,,,,,,,,,,,,,0,,,79,127
33343,note_on,95,0,1,,,,,,,,,,,,,,,0,,,79,0
33344,note_on,1,0,1,,,,,,,,,,,,,,,0,,,70,127
33439,note_on,95,0,1,,,,,,,,,,,,,,,0,,,70,0
33439,note_on,0,0,1,,,,,,,,,,,,,,,0,,,64,0
33439,note_on,0,0,1,,,,,,,,,,,,,,,0,,,58,0
33439,note_on,0,0,1,,,,,,,,,,,,,,,0,,,60,0
33439,note_on,0,0,1,,,,,,,,,,,,,,,0,,,55,0
33440,note_on,0,0,1,,,,,,,,,,,,,,,0,,,72,127
33440,note_on,0,0,1,,,,,,,,,,,,,,,0,,,64,127
33440,note_on,1,0,1,,,,,,,,,,,,,,,0,,,60,127
33440,note_on,0,0,1,,,,,,,,,,,,,,,0,,,58,127
33440,note_on,0,0,1,,,,,,,,,,,,,,,0,,,55,127
33472,note_on,32,0,1,,,,,,,,,,,,,,,0,,,70,127
33487,note_on,15,0,1,,,,,,,,,,,,,,,0,,,72,0
33504,note_on,17,0,1,,,,,,,,,,,,,,,0,,,72,127
33519,note_on,15,0,1,,,,,,,,,,,,,,,0,,,70,0
33536,note_on,17,0,1,,,,,,,,,,,,,,,0,,,70,127
33551,note_on,15,0,1,,,,,,,,,,,,,,,0,,,72,0
33631,note_on,80,0,1,,,,,,,,,,,,,,,0,,,70,0
33632,note_on,1,0,1,,,,,,,,,,,,,,,0,,,79,127
33727,note_on,95,0,1,,,,,,,,,,,,,,,0,,,79,0
33728,note_on,1,0,1,,,,,,,,,,,,,,,0,,,70,127
33823,note_on,0,0,1,,,,,,,,,,,,,,,0,,,55,0
33823,note_on,0,0,1,,,,,,,,,,,,,,,0,,,58,0
33823,note_on,0,0,1,,,,,,,,,,,,,,,0,,,60,0
33823,note_on,0,0,1,,,,,,,,,,,,,,,0,,,64,0
33823,note_on,95,0,1,,,,,,,,,,,,,,,0,,,70,0
33824,note_on,0,0,1,,,,,,,,,,,,,,,0,,,53,127
33824,note_on,0,0,1,,,,,,,,,,,,,,,0,,,70,127
33824,note_on,1,0,1,,,,,,,,,,,,,,,0,,,65,127
33855,note_on,31,0,1,,,,,,,,,,,,,,,0,,,70,0
33856,note_on,1,0,1,,,,,,,,,,,,,,,0,,,69,127
33887,note_on,31,0,1,,,,,,,,,,,,,,,0,,,69,0
33888,note_on,1,0,1,,,,,,,,,,,,,,,0,,,70,127
33919,note_on,31,0,1,,,,,,,,,,,,,,,0,,,70,0
33920,note_on,1,0,1,,,,,,,,,,,,,,,0,,,69,127
34015,note_on,95,0,1,,,,,,,,,,,,,,,0,,,69,0
34015,note_on,0,0,1,,,,,,,,,,,,,,,0,,,53,0
34015,note_on,0,0,1,,,,,,,,,,,,,,,0,,,65,0
34016,note_on,0,0,1,,,,,,,,,,,,,,,0,,,69,127
34016,note_on,1,0,1,,,,,,,,,,,,,,,0,,,65,127
34111,note_on,95,0,1,,,,,,,,,,,,,,,0,,,69,0
34111,note_on,0,0,1,,,,,,,,,,,,,,,0,,,65,0
34112,note_on,1,0,1,,,,,,,,,,,,,,,0,,,67,127
34112,note_on,0,0,1,,,,,,,,,,,,,,,0,,,70,127
34207,note_on,95,0,1,,,,,,,,,,,,,,,0,,,70,0
34207,note_on,0,0,1,,,,,,,,,,,,,,,0,,,67,0
34208,note_on,1,0,1,,,,,,,,,,,,,,,0,,,69,127
34208,note_on,0,0,1,,,,,,,,,,,,,,,0,,,72,127
34303,note_on,95,0,1,,,,,,,,,,,,,,,0,,,72,0
34303,note_on,0,0,1,,,,,,,,,,,,,,,0,,,69,0
34304,note_on,1,0,1,,,,,,,,,,,,,,,0,,,70,127
34304,note_on,0,0,1,,,,,,,,,,,,,,,0,,,74,127
34399,note_on,95,0,1,,,,,,,,,,,,,,,0,,,74,0
34399,note_on,0,0,1,,,,,,,,,,,,,,,0,,,70,0
34400,note_on,1,0,1,,,,,,,,,,,,,,,0,,,72,127
34400,note_on,0,0,1,,,,,,,,,,,,,,,0,,,76,127
34495,note_on,0,0,1,,,,,,,,,,,,,,,0,,,72,0
34495,note_on,95,0,1,,,,,,,,,,,,,,,0,,,76,0
34496,note_on,0,0,1,,,,,,,,,,,,,,,0,,,77,127
34496,note_on,1,0,1,,,,,,,,,,,,,,,0,,,74,127
34591,note_on,95,0,1,,,,,,,,,,,,,,,0,,,77,0
34591,note_on,0,0,1,,,,,,,,,,,,,,,0,,,74,0
34592,note_on,0,0,1,,,,,,,,,,,,,,,0,,,81,127
34592,note_on,1,0,1,,,,,,,,,,,,,,,0,,,72,127
34616,note_on,24,0,1,,,,,,,,,,,,,,,0,,,79,127
34623,note_on,7,0,1,,,,,,,,,,,,,,,0,,,81,0
34640,note_on,17,0,1,,,,,,,,,,,,,,,0,,,81,127
34647,note_on,7,0,1,,,,,,,,,,,,,,,0,,,79,0
34664,note_on,17,0,1,,,,,,,,,,,,,,,0,,,79,127
34671,note_on,7,0,1,,,,,,,,,,,,,,,0,,,81,0
34783,note_on,112,0,1,,,,,,,,,,,,,,,0,,,79,0
34783,note_on,0,0,1,,,,,,,,,,,,,,,0,,,72,0
34784,note_on,0,0,1,,,,,,,,,,,,,,,0,,,76,127
34784,note_on,1,0,1,,,,,,,,,,,,,,,0,,,48,127
34784,note_on,0,0,1,,,,,,,,,,,,,,,0,,,79,127
34879,note_on,95,0,1,,,,,,,,,,,,,,,0,,,79,0
34880,note_on,1,0,1,,,,,,,,,,,,,,,0,,,79,127
34975,note_on,95,0,1,,,,,,,,,,,,,,,0,,,79,0
34975,note_on,0,0,1,,,,,,,,,,,,,,,0,,,76,0
34975,note_on,0,0,1,,,,,,,,,,,,,,,0,,,48,0
34976,note_on,1,0,1,,,,,,,,,,,,,,,0,,,48,127
34976,note_on,0,0,1,,,,,,,,,,,,,,,0,,,81,127
34976,note_on,0,0,1,,,,,,,,,,,,,,,0,,,76,127
35000,note_on,24,0,1,,,,,,,,,,,,,,,0,,,79,127
35007,note_on,7,0,1,,,,,,,,,,,,,,,0,,,81,0
35024,note_on,17,0,1,,,,,,,,,,,,,,,0,,,81,127
35031,note_on,7,0,1,,,,,,,,,,,,,,,0,,,79,0
35048,note_on,17,0,1,,,,,,,,,,,,,,,0,,,79,127
35055,note_on,7,0,1,,,,,,,,,,,,,,,0,,,81,0
35167,note_on,0,0,1,,,,,,,,,,,,,,,0,,,79,0
35167,note_on,0,0,1,,,,,,,,,,,,,,,0,,,76,0
35167,note_on,112,0,1,,,,,,,,,,,,,,,0,,,48,0
35168,note_on,0,0,1,,,,,,,,,,,,,,,0,,,79,127
35168,note_on,0,0,1,,,,,,,,,,,,,,,0,,,76,127
35168,note_on,1,0,1,,,,,,,,,,,,,,,0,,,48,127
35263,note_on,95,0,1,,,,,,,,,,,,,,,0,,,79,0
35264,note_on,1,0,1,,,,,,,,,,,,,,,0,,,79,127
35359,note_on,95,0,1,,,,,,,,,,,,,,,0,,,79,0
35359,note_on,0,0,1,,,,,,,,,,,,,,,0,,,76,0
35359,note_on,0,0,1,,,,,,,,,,,,,,,0,,,48,0
35360,note_on,1,0,1,,,,,,,,,,,,,,,0,,,41,127
35360,note_on,0,0,1,,,,,,,,,,,,,,,0,,,77,127
35360,note_on,0,0,1,,,,,,,,,,,,,,,0,,,81,127
35551,note_on,0,0,1,,,,,,,,,,,,,,,0,,,41,0
35551,note_on,191,0,1,,,,,,,,,,,,,,,0,,,81,0
35551,note_on,0,0,1,,,,,,,,,,,,,,,0,,,77,0
35552,note_on,0,0,1,,,,,,,,,,,,,,,0,,,65,127
35552,note_on,1,0,1,,,,,,,,,,,,,,,0,,,62,127
35647,note_on,95,0,1,,,,,,,,,,,,,,,0,,,65,0
35647,note_on,0,0,1,,,,,,,,,,,,,,,0,,,62,0
35648,note_on,1,0,1,,,,,,,,,,,,,,,0,,,64,127
35648,note_on,0,0,1,,,,,,,,,,,,,,,0,,,67,127
35743,note_on,95,0,1,,,,,,,,,,,,,,,0,,,67,0
35743,note_on,0,0,1,,,,,,,,,,,,,,,0,,,64,0
35744,note_on,1,0,1,,,,,,,,,,,,,,,0,,,65,127
35744,note_on,0,0,1,,,,,,,,,,,,,,,0,,,69,127
35839,note_on,95,0,1,,,,,,,,,,,,,,,0,,,69,0
35839,note_on,0,0,1,,,,,,,,,,,,,,,0,,,65,0
35840,note_on,0,0,1,,,,,,,,,,,,,,,0,,,71,127
35840,note_on,1,0,1,,,,,,,,,,,,,,,0,,,67,127
35935,note_on,95,0,1,,,,,,,,,,,,,,,0,,,71,0
35935,note_on,0,0,1,,,,,,,,,,,,,,,0,,,67,0
35936,note_on,1,0,1,,,,,,,,,,,,,,,0,,,69,127
35936,note_on,0,0,1,,,,,,,,,,,,,,,0,,,73,127
36031,note_on,95,0,1,,,,,,,,,,,,,,,0,,,73,0
36031,note_on,0,0,1,,,,,,,,,,,,,,,0,,,69,0
36032,note_on,0,0,1,,,,,,,,,,,,,,,0,,,74,127
36032,note_on,1,0,1,,,,,,,,,,,,,,,0,,,71,127
36127,note_on,0,0,1,,,,,,,,,,,,,,,0,,,71,0
36127,note_on,95,0,1,,,,,,,,,,,,,,,0,,,74,0
36128,note_on,1,0,1,,,,,,,,,,,,,,,0,,,69,127
36128,note_on,0,0,1,,,,,,,,,,,,,,,0,,,77,127
36152,note_on,24,0,1,,,,,,,,,,,,,,,0,,,76,127
36159,note_on,7,0,1,,,,,,,,,,,,,,,0,,,77,0
36176,note_on,17,0,1,,,,,,,,,,,,,,,0,,,77,127
36183,note_on,7,0,1,,,,,,,,,,,,,,,0,,,76,0
36200,note_on,17,0,1,,,,,,,,,,,,,,,0,,,76,127
36207,note_on,7,0,1,,,,,,,,,,,,,,,0,,,77,0
36319,note_on,112,0,1,,,,,,,,,,,,,,,0,,,76,0
36319,note_on,0,0,1,,,,,,,,,,,,,,,0,,,69,0
36320,note_on,0,0,1,,,,,,,,,,,,,,,0,,,76,127
36320,note_on,1,0,1,,,,,,,,,,,,,,,0,,,45,127
36320,note_on,0,0,1,,,,,,,,,,,,,,,0,,,73,127
36415,note_on,95,0,1,,,,,,,,,,,,,,,0,,,76,0
36416,note_on,1,0,1,,,,,,,,,,,,,,,0,,,76,127
36511,note_on,95,0,1,,,,,,,,,,,,,,,0,,,76,0
36511,note_on,0,0,1,,,,,,,,,,,,,,,0,,,73,0
36511,note_on,0,0,1,,,,,,,,,,,,,,,0,,,45,0
36512,note_on,1,0,1,,,,,,,,,,,,,,,0,,,45,127
36512,note_on,0,0,1,,,,,,,,,,,,,,,0,,,77,127
36512,note_on,0,0,1,,,,,,,,,,,,,,,0,,,73,127
36536,note_on,24,0,1,,,,,,,,,,,,,,,0,,,76,127
36543,note_on,7,0,1,,,,,,,,,,,,,,,0,,,77,0
36560,note_on,17,0,1,,,,,,,,,,,,,,,0,,,77,127
36567,note_on,7,0,1,,,,,,,,,,,,,,,0,,,76,0
36584,note_on,17,0,1,,,,,,,,,,,,,,,0,,,76,127
36591,note_on,7,0,1,,,,,,,,,,,,,,,0,,,77,0
36703,note_on,0,0,1,,,,,,,,,,,,,,,0,,,73,0
36703,note_on,112,0,1,,,,,,,,,,,,,,,0,,,45,0
36703,note_on,0,0,1,,,,,,,,,,,,,,,0,,,76,0
36704,note_on,0,0,1,,,,,,,,,,,,,,,0,,,73,127
36704,note_on,0,0,1,,,,,,,,,,,,,,,0,,,76,127
36704,note_on,1,0,1,,,,,,,,,,,,,,,0,,,45,127
36799,note_on,95,0,1,,,,,,,,,,,,,,,0,,,76,0
36800,note_on,1,0,1,,,,,,,,,,,,,,,0,,,76,127
36895,note_on,95,0,1,,,,,,,,,,,,,,,0,,,76,0
36895,note_on,0,0,1,,,,,,,,,,,,,,,0,,,73,0
36895,note_on,0,0,1,,,,,,,,,,,,,,,0,,,45,0
36896,note_on,1,0,1,,,,,,,,,,,,,,,0,,,38,127
36896,note_on,0,0,1,,,,,,,,,,,,,,,0,,,77,127
36896,note_on,0,0,1,,,,,,,,,,,,,,,0,,,74,127
37087,note_on,0,0,1,,,,,,,,,,,,,,,0,,,77,0
37087,note_on,191,0,1,,,,,,,,,,,,,,,0,,,74,0
37087,note_on,0,0,1,,,,,,,,,,,,,,,0,,,38,0
37088,note_on,0,0,1,,,,,,,,,,,,,,,0,,,62,127
37088,note_on,1,0,1,,,,,,,,,,,,,,,0,,,58,127
37183,note_on,95,0,1,,,,,,,,,,,,,,,0,,,62,0
37183,note_on,0,0,1,,,,,,,,,,,,,,,0,,,58,0
37184,note_on,1,0,1,,,,,,,,,,,,,,,0,,,60,127
37184,note_on,0,0,1,,,,,,,,,,,,,,,0,,,63,127
37279,note_on,95,0,1,,,,,,,,,,,,,,,0,,,63,0
37279,note_on,0,0,1,,,,,,,,,,,,,,,0,,,60,0
37280,note_on,1,0,1,,,,,,,,,,,,,,,0,,,62,127
37280,note_on,0,0,1,,,,,,,,,,,,,,,0,,,65,127
37375,note_on,95,0,1,,,,,,,,,,,,,,,0,,,65,0
37375,note_on,0,0,1,,,,,,,,,,,,,,,0,,,62,0
37376,note_on,0,0,1,,,,,,,,,,,,,,,0,,,67,127
37376,note_on,1,0,1,,,,,,,,,,,,,,,0,,,63,127
37471,note_on,0,0,1,,,,,,,,,,,,,,,0,,,63,0
37471,note_on,95,0,1,,,,,,,,,,,,,,,0,,,67,0
37472,note_on,0,0,1,,,,,,,,,,,,,,,0,,,69,127
37472,note_on,1,0,1,,,,,,,,,,,,,,,0,,,65,127
37567,note_on,95,0,1,,,,,,,,,,,,,,,0,,,69,0
37567,note_on,0,0,1,,,,,,,,,,,,,,,0,,,65,0
37568,note_on,0,0,1,,,,,,,,,,,,,,,0,,,70,127
37568,note_on,1,0,1,,,,,,,,,,,,,,,0,,,67,127
37663,note_on,95,0,1,,,,,,,,,,,,,,,0,,,70,0
37663,note_on,0,0,1,,,,,,,,,,,,,,,0,,,67,0
37664,note_on,1,0,1,,,,,,,,,,,,,,,0,,,65,127
37664,note_on,0,0,1,,,,,,,,,,,,,,,0,,,74,127
37688,note_on,24,0,1,,,,,,,,,,,,,,,0,,,72,127
37695,note_on,7,0,1,,,,,,,,,,,,,,,0,,,74,0
37712,note_on,17,0,1,,,,,,,,,,,,,,,0,,,74,127
37719,note_on,7,0,1,,,,,,,,,,,,,,,0,,,72,0
37736,note_on,17,0,1,,,,,,,,,,,,,,,0,,,72,127
37743,note_on,7,0,1,,,,,,,,,,,,,,,0,,,74,0
37855,note_on,0,0,1,,,,,,,,,,,,,,,0,,,65,0
37855,note_on,112,0,1,,,,,,,,,,,,,,,0,,,72,0
37856,note_on,0,0,1,,,,,,,,,,,,,,,0,,,69,127
37856,note_on,0,0,1,,,,,,,,,,,,,,,0,,,72,127
37856,note_on,1,0,1,,,,,,,,,,,,,,,0,,,41,127
37951,note_on,95,0,1,,,,,,,,,,,,,,,0,,,72,0
37952,note_on,1,0,1,,,,,,,,,,,,,,,0,,,72,127
38047,note_on,95,0,1,,,,,,,,,,,,,,,0,,,72,0
38047,note_on,0,0,1,,,,,,,,,,,,,,,0,,,69,0
38047,note_on,0,0,1,,,,,,,,,,,,,,,0,,,41,0
38048,note_on,1,0,1,,,,,,,,,,,,,,,0,,,41,127
38048,note_on,0,0,1,,,,,,,,,,,,,,,0,,,74,127
38048,note_on,0,0,1,,,,,,,,,,,,,,,0,,,69,127
38072,note_on,24,0,1,,,,,,,,,,,,,,,0,,,72,127
38079,note_on,7,0,1,,,,,,,,,,,,,,,0,,,74,0
38096,note_on,17,0,1,,,,,,,,,,,,,,,0,,,74,127
38103,note_on,7,0,1,,,,,,,,,,,,,,,0,,,72,0
38120,note_on,17,0,1,,,,,,,,,,,,,,,0,,,72,127
38127,note_on,7,0,1,,,,,,,,,,,,,,,0,,,74,0
38239,note_on,0,0,1,,,,,,,,,,,,,,,0,,,72,0
38239,note_on,0,0,1,,,,,,,,,,,,,,,0,,,69,0
38239,note_on,112,0,1,,,,,,,,,,,,,,,0,,,41,0
38240,note_on,1,0,1,,,,,,,,,,,,,,,0,,,41,127
38240,note_on,0,0,1,,,,,,,,,,,,,,,0,,,69,127
38240,note_on,0,0,1,,,,,,,,,,,,,,,0,,,72,127
38335,note_on,95,0,1,,,,,,,,,,,,,,,0,,,72,0
38336,note_on,1,0,1,,,,,,,,,,,,,,,0,,,72,127
38431,note_on,95,0,1,,,,,,,,,,,,,,,0,,,72,0
38431,note_on,0,0,1,,,,,,,,,,,,,,,0,,,69,0
38431,note_on,0,0,1,,,,,,,,,,,,,,,0,,,41,0
38432,note_on,0,0,1,,,,,,,,,,,,,,,0,,,70,127
38432,note_on,1,0,1,,,,,,,,,,,,,,,0,,,46,127
38432,note_on,0,0,1,,,,,,,,,,,,,,,0,,,74,127
38623,note_on,191,0,1,,,,,,,,,,,,,,,0,,,70,0
38623,note_on,0,0,1,,,,,,,,,,,,,,,0,,,74,0
38624,note_on,1,0,1,,,,,,,,,,,,,,,0,,,82,127
38815,note_on,191,0,1,,,,,,,,,,,,,,,0,,,82,0
38816,note_on,1,0,1,,,,,,,,,,,,,,,0,,,84,127
38863,note_on,47,0,1,,,,,,,,,,,,,,,0,,,84,0
38864,note_on,1,0,1,,,,,,,,,,,,,,,0,,,82,127
38911,note_on,47,0,1,,,,,,,,,,,,,,,0,,,82,0
38912,note_on,1,0,1,,,,,,,,,,,,,,,0,,,84,127
38959,note_on,47,0,1,,,,,,,,,,,,,,,0,,,84,0
38960,note_on,1,0,1,,,,,,,,,,,,,,,0,,,82,127
39007,note_on,47,0,1,,,,,,,,,,,,,,,0,,,82,0
39007,note_on,0,0,1,,,,,,,,,,,,,,,0,,,46,0
39008,note_on,0,0,1,,,,,,,,,,,,,,,0,,,84,127
39008,note_on,1,0,1,,,,,,,,,,,,,,,0,,,67,127
39008,note_on,0,0,1,,,,,,,,,,,,,,,0,,,70,127
39055,note_on,47,0,1,,,,,,,,,,,,,,,0,,,84,0
39056,note_on,1,0,1,,,,,,,,,,,,,,,0,,,82,127
39103,note_on,47,0,1,,,,,,,,,,,,,,,0,,,82,0
39104,note_on,1,0,1,,,,,,,,,,,,,,,0,,,81,127
39151,note_on,47,0,1,,,,,,,,,,,,,,,0,,,81,0
39152,note_on,1,0,1,,,,,,,,,,,,,,,0,,,82,127
39199,note_on,0,0,1,,,,,,,,,,,,,,,0,,,70,0
39199,note_on,47,0,1,,,,,,,,,,,,,,,0,,,82,0
39199,note_on,0,0,1,,,,,,,,,,,,,,,0,,,67,0
39200,note_on,0,0,1,,,,,,,,,,,,,,,0,,,64,127
39200,note_on,1,0,1,,,,,,,,,,,,,,,0,,,67,127
39200,note_on,0,0,1,,,,,,,,,,,,,,,0,,,72,127
39391,note_on,0,0,1,,,,,,,,,,,,,,,0,,,64,0
39391,note_on,0,0,1,,,,,,,,,,,,,,,0,,,67,0
39391,note_on,191,0,1,,,,,,,,,,,,,,,0,,,72,0
39392,note_on,1,0,1,,,,,,,,,,,,,,,0,,,65,127
39392,note_on,0,0,1,,,,,,,,,,,,,,,0,,,69,127
39392,note_on,0,0,1,,,,,,,,,,,,,,,0,,,81,127
39583,note_on,191,0,1,,,,,,,,,,,,,,,0,,,81,0
39584,note_on,1,0,1,,,,,,,,,,,,,,,0,,,82,127
39631,note_on,47,0,1,,,,,,,,,,,,,,,0,,,82,0
39632,note_on,1,0,1,,,,,,,,,,,,,,,0,,,81,127
39679,note_on,47,0,1,,,,,,,,,,,,,,,0,,,81,0
39680,note_on,1,0,1,,,,,,,,,,,,,,,0,,,82,127
39727,note_on,47,0,1,,,,,,,,,,,,,,,0,,,82,0
39728,note_on,1,0,1,,,,,,,,,,,,,,,0,,,81,127
39775,note_on,0,0,1,,,,,,,,,,,,,,,0,,,69,0
39775,note_on,0,0,1,,,,,,,,,,,,,,,0,,,65,0
39775,note_on,47,0,1,,,,,,,,,,,,,,,0,,,81,0
39776,note_on,1,0,1,,,,,,,,,,,,,,,0,,,69,127
39776,note_on,0,0,1,,,,,,,,,,,,,,,0,,,65,127
39776,note_on,0,0,1,,,,,,,,,,,,,,,0,,,82,127
39823,note_on,47,0,1,,,,,,,,,,,,,,,0,,,82,0
39824,note_on,1,0,1,,,,,,,,,,,,,,,0,,,81,127
39871,note_on,47,0,1,,,,,,,,,,,,,,,0,,,81,0
39872,note_on,1,0,1,,,,,,,,,,,,,,,0,,,79,127
39919,note_on,47,0,1,,,,,,,,,,,,,,,0,,,79,0
39920,note_on,1,0,1,,,,,,,,,,,,,,,0,,,81,127
39967,note_on,0,0,1,,,,,,,,,,,,,,,0,,,69,0
39967,note_on,47,0,1,,,,,,,,,,,,,,,0,,,81,0
39967,note_on,0,0,1,,,,,,,,,,,,,,,0,,,65,0
39968,note_on,1,0,1,,,,,,,,,,,,,,,0,,,65,127
39968,note_on,0,0,1,,,,,,,,,,,,,,,0,,,62,127
39968,note_on,0,0,1,,,,,,,,,,,,,,,0,,,71,127
40159,note_on,191,0,1,,,,,,,,,,,,,,,0,,,71,0
40159,note_on,0,0,1,,,,,,,,,,,,,,,0,,,62,0
40159,note_on,0,0,1,,,,,,,,,,,,,,,0,,,65,0
40160,note_on,1,0,1,,,,,,,,,,,,,,,0,,,64,127
40160,note_on,0,0,1,,,,,,,,,,,,,,,0,,,67,127
40160,note_on,0,0,1,,,,,,,,,,,,,,,0,,,79,127
40351,note_on,191,0,1,,,,,,,,,,,,,,,0,,,79,0
40352,note_on,1,0,1,,,,,,,,,,,,,,,0,,,81,127
40399,note_on,47,0,1,,,,,,,,,,,,,,,0,,,81,0
40400,note_on,1,0,1,,,,,,,,,,,,,,,0,,,79,127
40447,note_on,47,0,1,,,,,,,,,,,,,,,0,,,79,0
40448,note_on,1,0,1,,,,,,,,,,,,,,,0,,,81,127
40495,note_on,47,0,1,,,,,,,,,,,,,,,0,,,81,0
40496,note_on,1,0,1,,,,,,,,,,,,,,,0,,,79,127
40543,note_on,47,0,1,,,,,,,,,,,,,,,0,,,79,0
40543,note_on,0,0,1,,,,,,,,,,,,,,,0,,,67,0
40543,note_on,0,0,1,,,,,,,,,,,,,,,0,,,64,0
40544,note_on,1,0,1,,,,,,,,,,,,,,,0,,,67,127
40544,note_on,0,0,1,,,,,,,,,,,,,,,0,,,64,127
40544,note_on,0,0,1,,,,,,,,,,,,,,,0,,,81,127
40591,note_on,47,0,1,,,,,,,,,,,,,,,0,,,81,0
40592,note_on,1,0,1,,,,,,,,,,,,,,,0,,,79,127
40639,note_on,47,0,1,,,,,,,,,,,,,,,0,,,79,0
40640,note_on,1,0,1,,,,,,,,,,,,,,,0,,,77,127
40687,note_on,47,0,1,,,,,,,,,,,,,,,0,,,77,0
40688,note_on,1,0,1,,,,,,,,,,,,,,,0,,,79,127
40735,note_on,0,0,1,,,,,,,,,,,,,,,0,,,67,0
40735,note_on,47,0,1,,,,,,,,,,,,,,,0,,,79,0
40735,note_on,0,0,1,,,,,,,,,,,,,,,0,,,64,0
40736,note_on,0,0,1,,,,,,,,,,,,,,,0,,,69,127
40736,note_on,0,0,1,,,,,,,,,,,,,,,0,,,60,127
40736,note_on,1,0,1,,,,,,,,,,,,,,,0,,,64,127
40927,note_on,0,0,1,,,,,,,,,,,,,,,0,,,64,0
40927,note_on,191,0,1,,,,,,,,,,,,,,,0,,,69,0
40927,note_on,0,0,1,,,,,,,,,,,,,,,0,,,60,0
40928,note_on,1,0,1,,,,,,,,,,,,,,,0,,,62,127
40928,note_on,0,0,1,,,,,,,,,,,,,,,0,,,65,127
40928,note_on,0,0,1,,,,,,,,,,,,,,,0,,,77,127
41119,note_on,191,0,1,,,,,,,,,,,,,,,0,,,77,0
41120,note_on,1,0,1,,,,,,,,,,,,,,,0,,,79,127
41167,note_on,47,0,1,,,,,,,,,,,,,,,0,,,79,0
41168,note_on,1,0,1,,,,,,,,,,,,,,,0,,,77,127
41215,note_on,47,0,1,,,,,,,,,,,,,,,0,,,77,0
41216,note_on,1,0,1,,,,,,,,,,,,,,,0,,,79,127
41263,note_on,47,0,1,,,,,,,,,,,,,,,0,,,79,0
41264,note_on,1,0,1,,,,,,,,,,,,,,,0,,,77,127
41311,note_on,0,0,1,,,,,,,,,,,,,,,0,,,62,0
41311,note_on,0,0,1,,,,,,,,,,,,,,,0,,,65,0
41311,note_on,47,0,1,,,,,,,,,,,,,,,0,,,77,0
41312,note_on,1,0,1,,,,,,,,,,,,,,,0,,,65,127
41312,note_on,0,0,1,,,,,,,,,,,,,,,0,,,62,127
41312,note_on,0,0,1,,,,,,,,,,,,,,,0,,,79,127
41359,note_on,47,0,1,,,,,,,,,,,,,,,0,,,79,0
41360,note_on,1,0,1,,,,,,,,,,,,,,,0,,,77,127
41407,note_on,47,0,1,,,,,,,,,,,,,,,0,,,77,0
41408,note_on,1,0,1,,,,,,,,,,,,,,,0,,,76,127
41455,note_on,47,0,1,,,,,,,,,,,,,,,0,,,76,0
41456,note_on,1,0,1,,,,,,,,,,,,,,,0,,,77,127
41503,note_on,0,0,1,,,,,,,,,,,,,,,0,,,62,0
41503,note_on,47,0,1,,,,,,,,,,,,,,,0,,,77,0
41503,note_on,0,0,1,,,,,,,,,,,,,,,0,,,65,0
41504,note_on,1,0,1,,,,,,,,,,,,,,,0,,,59,127
41504,note_on,0,0,1,,,,,,,,,,,,,,,0,,,62,127
41504,note_on,0,0,1,,,,,,,,,,,,,,,0,,,67,127
41695,note_on,191,0,1,,,,,,,,,,,,,,,0,,,67,0
41695,note_on,0,0,1,,,,,,,,,,,,,,,0,,,62,0
41695,note_on,0,0,1,,,,,,,,,,,,,,,0,,,59,0
41696,note_on,1,0,1,,,,,,,,,,,,,,,0,,,64,127
41696,note_on,0,0,1,,,,,,,,,,,,,,,0,,,60,127
41696,note_on,0,0,1,,,,,,,,,,,,,,,0,,,76,127
41887,note_on,191,0,1,,,,,,,,,,,,,,,0,,,76,0
41888,note_on,1,0,1,,,,,,,,,,,,,,,0,,,77,127
41935,note_on,47,0,1,,,,,,,,,,,,,,,0,,,77,0
41936,note_on,1,0,1,,,,,,,,,,,,,,,0,,,76,127
41983,note_on,47,0,1,,,,,,,,,,,,,,,0,,,76,0
41984,note_on,1,0,1,,,,,,,,,,,,,,,0,,,77,127
42031,note_on,47,0,1,,,,,,,,,,,,,,,0,,,77,0
42032,note_on,1,0,1,,,,,,,,,,,,,,,0,,,76,127
42079,note_on,0,0,1,,,,,,,,,,,,,,,0,,,60,0
42079,note_on,0,0,1,,,,,,,,,,,,,,,0,,,64,0
42079,note_on,47,0,1,,,,,,,,,,,,,,,0,,,76,0
42080,note_on,1,0,1,,,,,,,,,,,,,,,0,,,64,127
42080,note_on,0,0,1,,,,,,,,,,,,,,,0,,,60,127
42080,note_on,0,0,1,,,,,,,,,,,,,,,0,,,77,127
42127,note_on,47,0,1,,,,,,,,,,,,,,,0,,,77,0
42128,note_on,1,0,1,,,,,,,,,,,,,,,0,,,76,127
42175,note_on,47,0,1,,,,,,,,,,,,,,,0,,,76,0
42176,note_on,1,0,1,,,,,,,,,,,,,,,0,,,74,127
42223,note_on,47,0,1,,,,,,,,,,,,,,,0,,,74,0
42224,note_on,1,0,1,,,,,,,,,,,,,,,0,,,76,127
42271,note_on,0,0,1,,,,,,,,,,,,,,,0,,,64,0
42271,note_on,47,0,1,,,,,,,,,,,,,,,0,,,76,0
42271,note_on,0,0,1,,,,,,,,,,,,,,,0,,,60,0
42272,note_on,1,0,1,,,,,,,,,,,,,,,0,,,60,127
42272,note_on,0,0,1,,,,,,,,,,,,,,,0,,,62,127
42272,note_on,0,0,1,,,,,,,,,,,,,,,0,,,81,127
42272,note_on,0,0,1,,,,,,,,,,,,,,,0,,,54,127
42463,note_on,191,0,1,,,,,,,,,,,,,,,0,,,81,0
42464,note_on,1,0,1,,,,,,,,,,,,,,,0,,,74,127
42655,note_on,0,0,1,,,,,,,,,,,,,,,0,,,54,0
42655,note_on,191,0,1,,,,,,,,,,,,,,,0,,,74,0
42655,note_on,0,0,1,,,,,,,,,,,,,,,0,,,62,0
42655,note_on,0,0,1,,,,,,,,,,,,,,,0,,,60,0
42656,note_on,1,0,1,,,,,,,,,,,,,,,0,,,62,127
42656,note_on,0,0,1,,,,,,,,,,,,,,,0,,,60,127
42656,note_on,0,0,1,,,,,,,,,,,,,,,0,,,54,127
42656,note_on,0,0,1,,,,,,,,,,,,,,,0,,,76,127
42703,note_on,47,0,1,,,,,,,,,,,,,,,0,,,76,0
42704,note_on,1,0,1,,,,,,,,,,,,,,,0,,,74,127
42751,note_on,47,0,1,,,,,,,,,,,,,,,0,,,74,0
42752,note_on,1,0,1,,,,,,,,,,,,,,,0,,,76,127
42799,note_on,47,0,1,,,,,,,,,,,,,,,0,,,76,0
42800,note_on,1,0,1,,,,,,,,,,,,,,,0,,,74,127
42847,note_on,47,0,1,,,,,,,,,,,,,,,0,,,74,0
42848,note_on,1,0,1,,,,,,,,,,,,,,,0,,,76,127
42895,note_on,47,0,1,,,,,,,,,,,,,,,0,,,76,0
42896,note_on,1,0,1,,,,,,,,,,,,,,,0,,,74,127
42943,note_on,47,0,1,,,,,,,,,,,,,,,0,,,74,0
42944,note_on,1,0,1,,,,,,,,,,,,,,,0,,,72,127
42991,note_on,47,0,1,,,,,,,,,,,,,,,0,,,72,0
42992,note_on,1,0,1,,,,,,,,,,,,,,,0,,,74,127
43039,note_on,47,0,1,,,,,,,,,,,,,,,0,,,74,0
43039,note_on,0,0,1,,,,,,,,,,,,,,,0,,,54,0
43039,note_on,0,0,1,,,,,,,,,,,,,,,0,,,60,0
43039,note_on,0,0,1,,,,,,,,,,,,,,,0,,,62,0
43040,note_on,1,0,1,,,,,,,,,,,,,,,0,,,62,127
43040,note_on,0,0,1,,,,,,,,,,,,,,,0,,,54,127
43040,note_on,0,0,1,,,,,,,,,,,,,,,0,,,60,127
43040,note_on,0,0,1,,,,,,,,,,,,,,,0,,,81,127
43231,note_on,191,0,1,,,,,,,,,,,,,,,0,,,81,0
43232,note_on,1,0,1,,,,,,,,,,,,,,,0,,,72,127
43423,note_on,191,0,1,,,,,,,,,,,,,,,0,,,72,0
43423,note_on,0,0,1,,,,,,,,,,,,,,,0,,,60,0
43423,note_on,0,0,1,,,,,,,,,,,,,,,0,,,54,0
43423,note_on,0,0,1,,,,,,,,,,,,,,,0,,,62,0
43424,note_on,1,0,1,,,,,,,,,,,,,,,0,,,60,127
43424,note_on,0,0,1,,,,,,,,,,,,,,,0,,,62,127
43424,note_on,0,0,1,,,,,,,,,,,,,,,0,,,54,127
43424,note_on,0,0,1,,,,,,,,,,,,,,,0,,,74,127
43471,note_on,47,0,1,,,,,,,,,,,,,,,0,,,74,0
43472,note_on,1,0,1,,,,,,,,,,,,,,,0,,,72,127
43519,note_on,47,0,1,,,,,,,,,,,,,,,0,,,72,0
43520,note_on,1,0,1,,,,,,,,,,,,,,,0,,,74,127
43567,note_on,47,0,1,,,,,,,,,,,,,,,0,,,74,0
43568,note_on,1,0,1,,,,,,,,,,,,,,,0,,,72,127
43615,note_on,47,0,1,,,,,,,,,,,,,,,0,,,72,0
43616,note_on,1,0,1,,,,,,,,,,,,,,,0,,,74,127
43663,note_on,47,0,1,,,,,,,,,,,,,,,0,,,74,0
43664,note_on,1,0,1,,,,,,,,,,,,,,,0,,,72,127
43711,note_on,47,0,1,,,,,,,,,,,,,,,0,,,72,0
43712,note_on,1,0,1,,,,,,,,,,,,,,,0,,,71,127
43759,note_on,47,0,1,,,,,,,,,,,,,,,0,,,71,0
43760,note_on,1,0,1,,,,,,,,,,,,,,,0,,,72,127
43807,note_on,47,0,1,,,,,,,,,,,,,,,0,,,72,0
43807,note_on,0,0,1,,,,,,,,,,,,,,,0,,,54,0
43807,note_on,0,0,1,,,,,,,,,,,,,,,0,,,62,0
43807,note_on,0,0,1,,,,,,,,,,,,,,,0,,,60,0
43808,note_on,1,0,1,,,,,,,,,,,,,,,0,,,62,127
43808,note_on,0,0,1,,,,,,,,,,,,,,,0,,,55,127
43808,note_on,0,0,1,,,,,,,,,,,,,,,0,,,71,127
43999,note_on,0,0,1,,,,,,,,,,,,,,,0,,,62,0
43999,note_on,191,0,1,,,,,,,,,,,,,,,0,,,71,0
43999,note_on,0,0,1,,,,,,,,,,,,,,,0,,,55,0
44000,note_on,1,0,1,,,,,,,,,,,,,,,0,,,62,127
44000,note_on,0,0,1,,,,,,,,,,,,,,,0,,,71,127
44095,note_on,0,0,1,,,,,,,,,,,,,,,0,,,62,0
44095,note_on,95,0,1,,,,,,,,,,,,,,,0,,,71,0
44096,note_on,1,0,1,,,,,,,,,,,,,,,0,,,64,127
44096,note_on,0,0,1,,,,,,,,,,,,,,,0,,,72,127
44191,note_on,95,0,1,,,,,,,,,,,,,,,0,,,72,0
44191,note_on,0,0,1,,,,,,,,,,,,,,,0,,,64,0
44192,note_on,1,0,1,,,,,,,,,,,,,,,0,,,65,127
44192,note_on,0,0,1,,,,,,,,,,,,,,,0,,,74,127
44287,note_on,95,0,1,,,,,,,,,,,,,,,0,,,74,0
44287,note_on,0,0,1,,,,,,,,,,,,,,,0,,,65,0
44288,note_on,1,0,1,,,,,,,,,,,,,,,0,,,67,127
44288,note_on,0,0,1,,,,,,,,,,,,,,,0,,,76,127
44383,note_on,95,0,1,,,,,,,,,,,,,,,0,,,76,0
44383,note_on,0,0,1,,,,,,,,,,,,,,,0,,,67,0
44384,note_on,1,0,1,,,,,,,,,,,,,,,0,,,69,127
44384,note_on,0,0,1,,,,,,,,,,,,,,,0,,,77,127
44479,note_on,0,0,1,,,,,,,,,,,,,,,0,,,69,0
44479,note_on,95,0,1,,,,,,,,,,,,,,,0,,,77,0
44480,note_on,0,0,1,,,,,,,,,,,,,,,0,,,74,127
44480,note_on,1,0,1,,,,,,,,,,,,,,,0,,,71,127
44575,note_on,95,0,1,,,,,,,,,,,,,,,0,,,74,0
44575,note_on,0,0,1,,,,,,,,,,,,,,,0,,,71,0
44576,note_on,1,0,1,,,,,,,,,,,,,,,0,,,72,127
44576,note_on,0,0,1,,,,,,,,,,,,,,,0,,,76,127
44671,note_on,95,0,1,,,,,,,,,,,,,,,0,,,76,0
44671,note_on,0,0,1,,,,,,,,,,,,,,,0,,,72,0
44672,note_on,1,0,1,,,,,,,,,,,,,,,0,,,71,127
44672,note_on,0,0,1,,,,,,,,,,,,,,,0,,,74,127
44767,note_on,95,0,1,,,,,,,,,,,,,,,0,,,74,0
44767,note_on,0,0,1,,,,,,,,,,,,,,,0,,,71,0
44768,note_on,1,0,1,,,,,,,,,,,,,,,0,,,72,127
44768,note_on,0,0,1,,,,,,,,,,,,,,,0,,,76,127
44863,note_on,0,0,1,,,,,,,,,,,,,,,0,,,72,0
44863,note_on,95,0,1,,,,,,,,,,,,,,,0,,,76,0
44864,note_on,1,0,1,,,,,,,,,,,,,,,0,,,74,127
44864,note_on,0,0,1,,,,,,,,,,,,,,,0,,,77,127
44959,note_on,95,0,1,,,,,,,,,,,,,,,0,,,77,0
44959,note_on,0,0,1,,,,,,,,,,,,,,,0,,,74,0
44960,note_on,1,0,1,,,,,,,,,,,,,,,0,,,76,127
44960,note_on,0,0,1,,,,,,,,,,,,,,,0,,,79,127
45055,note_on,95,0,1,,,,,,,,,,,,,,,0,,,79,0
45055,note_on,0,0,1,,,,,,,,,,,,,,,0,,,76,0
45056,note_on,1,0,1,,,,,,,,,,,,,,,0,,,77,127
45056,note_on,0,0,1,,,,,,,,,,,,,,,0,,,81,127
45151,note_on,95,0,1,,,,,,,,,,,,,,,0,,,81,0
45151,note_on,0,0,1,,,,,,,,,,,,,,,0,,,77,0
45152,note_on,1,0,1,,,,,,,,,,,,,,,0,,,79,127
45152,note_on,0,0,1,,,,,,,,,,,,,,,0,,,83,127
45247,note_on,0,0,1,,,,,,,,,,,,,,,0,,,79,0
45247,note_on,95,0,1,,,,,,,,,,,,,,,0,,,83,0
45248,note_on,0,0,1,,,,,,,,,,,,,,,0,,,84,127
45248,note_on,1,0,1,,,,,,,,,,,,,,,0,,,81,127
45343,note_on,95,0,1,,,,,,,,,,,,,,,0,,,84,0
45343,note_on,0,0,1,,,,,,,,,,,,,,,0,,,81,0
45344,note_on,1,0,1,,,,,,,,,,,,,,,0,,,83,127
45344,note_on,0,0,1,,,,,,,,,,,,,,,0,,,88,127
45368,note_on,24,0,1,,,,,,,,,,,,,,,0,,,86,127
45375,note_on,7,0,1,,,,,,,,,,,,,,,0,,,88,0
45392,note_on,17,0,1,,,,,,,,,,,,,,,0,,,88,127
45399,note_on,7,0,1,,,,,,,,,,,,,,,0,,,86,0
45416,note_on,17,0,1,,,,,,,,,,,,,,,0,,,86,127
45423,note_on,7,0,1,,,,,,,,,,,,,,,0,,,88,0
45535,note_on,112,0,1,,,,,,,,,,,,,,,0,,,86,0
45535,note_on,0,0,1,,,,,,,,,,,,,,,0,,,83,0
45536,note_on,0,0,1,,,,,,,,,,,,,,,0,,,86,127
45536,note_on,1,0,1,,,,,,,,,,,,,,,0,,,55,127
45536,note_on,0,0,1,,,,,,,,,,,,,,,0,,,83,127
45631,note_on,95,0,1,,,,,,,,,,,,,,,0,,,86,0
45632,note_on,1,0,1,,,,,,,,,,,,,,,0,,,86,127
45727,note_on,0,0,1,,,,,,,,,,,,,,,0,,,55,0
45727,note_on,0,0,1,,,,,,,,,,,,,,,0,,,83,0
45727,note_on,95,0,1,,,,,,,,,,,,,,,0,,,86,0
45728,note_on,0,0,1,,,,,,,,,,,,,,,0,,,83,127
45728,note_on,1,0,1,,,,,,,,,,,,,,,0,,,55,127
45728,note_on,0,0,1,,,,,,,,,,,,,,,0,,,88,127
45752,note_on,24,0,1,,,,,,,,,,,,,,,0,,,86,127
45759,note_on,7,0,1,,,,,,,,,,,,,,,0,,,88,0
45776,note_on,17,0,1,,,,,,,,,,,,,,,0,,,88,127
45783,note_on,7,0,1,,,,,,,,,,,,,,,0,,,86,0
45800,note_on,17,0,1,,,,,,,,,,,,,,,0,,,86,127
45807,note_on,7,0,1,,,,,,,,,,,,,,,0,,,88,0
45919,note_on,112,0,1,,,,,,,,,,,,,,,0,,,55,0
45919,note_on,0,0,1,,,,,,,,,,,,,,,0,,,83,0
45919,note_on,0,0,1,,,,,,,,,,,,,,,0,,,86,0
45920,note_on,1,0,1,,,,,,,,,,,,,,,0,,,55,127
45920,note_on,0,0,1,,,,,,,,,,,,,,,0,,,83,127
45920,note_on,0,0,1,,,,,,,,,,,,,,,0,,,86,127
46015,note_on,95,0,1,,,,,,,,,,,,,,,0,,,86,0
46016,note_on,1,0,1,,,,,,,,,,,,,,,0,,,86,127
46111,note_on,95,0,1,,,,,,,,,,,,,,,0,,,86,0
46111,note_on,0,0,1,,,,,,,,,,,,,,,0,,,83,0
46111,note_on,0,0,1,,,,,,,,,,,,,,,0,,,55,0
46112,note_on,0,0,1,,,,,,,,,,,,,,,0,,,88,127
46112,note_on,0,0,1,,,,,,,,,,,,,,,0,,,84,127
46112,note_on,1,0,1,,,,,,,,,,,,,,,0,,,48,127
46303,note_on,191,0,1,,,,,,,,,,,,,,,0,,,84,0
46303,note_on,0,0,1,,,,,,,,,,,,,,,0,,,88,0
46303,note_on,0,0,1,,,,,,,,,,,,,,,0,,,48,0
46304,note_on,1,0,1,,,,,,,,,,,,,,,0,,,60,127
46304,note_on,0,0,1,,,,,,,,,,,,,,,0,,,64,127
46399,note_on,95,0,1,,,,,,,,,,,,,,,0,,,64,0
46399,note_on,0,0,1,,,,,,,,,,,,,,,0,,,60,0
46400,note_on,1,0,1,,,,,,,,,,,,,,,0,,,62,127
46400,note_on,0,0,1,,,,,,,,,,,,,,,0,,,65,127
46495,note_on,95,0,1,,,,,,,,,,,,,,,0,,,65,0
46495,note_on,0,0,1,,,,,,,,,,,,,,,0,,,62,0
46496,note_on,0,0,1,,,,,,,,,,,,,,,0,,,67,127
46496,note_on,1,0,1,,,,,,,,,,,,,,,0,,,64,127
46591,note_on,95,0,1,,,,,,,,,,,,,,,0,,,67,0
46591,note_on,0,0,1,,,,,,,,,,,,,,,0,,,64,0
46592,note_on,0,0,1,,,,,,,,,,,,,,,0,,,69,127
46592,note_on,1,0,1,,,,,,,,,,,,,,,0,,,65,127
46687,note_on,95,0,1,,,,,,,,,,,,,,,0,,,69,0
46687,note_on,0,0,1,,,,,,,,,,,,,,,0,,,65,0
46688,note_on,1,0,1,,,,,,,,,,,,,,,0,,,67,127
46688,note_on,0,0,1,,,,,,,,,,,,,,,0,,,71,127
46783,note_on,95,0,1,,,,,,,,,,,,,,,0,,,71,0
46783,note_on,0,0,1,,,,,,,,,,,,,,,0,,,67,0
46784,note_on,1,0,1,,,,,,,,,,,,,,,0,,,69,127
46784,note_on,0,0,1,,,,,,,,,,,,,,,0,,,72,127
46879,note_on,95,0,1,,,,,,,,,,,,,,,0,,,72,0
46879,note_on,0,0,1,,,,,,,,,,,,,,,0,,,69,0
46880,note_on,0,0,1,,,,,,,,,,,,,,,0,,,76,127
46880,note_on,1,0,1,,,,,,,,,,,,,,,0,,,71,127
46904,note_on,24,0,1,,,,,,,,,,,,,,,0,,,74,127
46911,note_on,7,0,1,,,,,,,,,,,,,,,0,,,76,0
46928,note_on,17,0,1,,,,,,,,,,,,,,,0,,,76,127
46935,note_on,7,0,1,,,,,,,,,,,,,,,0,,,74,0
46952,note_on,17,0,1,,,,,,,,,,,,,,,0,,,74,127
46959,note_on,7,0,1,,,,,,,,,,,,,,,0,,,76,0
47071,note_on,112,0,1,,,,,,,,,,,,,,,0,,,74,0
47071,note_on,0,0,1,,,,,,,,,,,,,,,0,,,71,0
47072,note_on,1,0,1,,,,,,,,,,,,,,,0,,,43,127
47072,note_on,0,0,1,,,,,,,,,,,,,,,0,,,74,127
47072,note_on,0,0,1,,,,,,,,,,,,,,,0,,,71,127
47167,note_on,95,0,1,,,,,,,,,,,,,,,0,,,74,0
47168,note_on,1,0,1,,,,,,,,,,,,,,,0,,,74,127
47263,note_on,0,0,1,,,,,,,,,,,,,,,0,,,71,0
47263,note_on,95,0,1,,,,,,,,,,,,,,,0,,,74,0
47263,note_on,0,0,1,,,,,,,,,,,,,,,0,,,43,0
47264,note_on,1,0,1,,,,,,,,,,,,,,,0,,,43,127
47264,note_on,0,0,1,,,,,,,,,,,,,,,0,,,76,127
47264,note_on,0,0,1,,,,,,,,,,,,,,,0,,,71,127
47288,note_on,24,0,1,,,,,,,,,,,,,,,0,,,74,127
47295,note_on,7,0,1,,,,,,,,,,,,,,,0,,,76,0
47312,note_on,17,0,1,,,,,,,,,,,,,,,0,,,76,127
47319,note_on,7,0,1,,,,,,,,,,,,,,,0,,,74,0
47336,note_on,17,0,1,,,,,,,,,,,,,,,0,,,74,127
47343,note_on,7,0,1,,,,,,,,,,,,,,,0,,,76,0
47455,note_on,112,0,1,,,,,,,,,,,,,,,0,,,43,0
47455,note_on,0,0,1,,,,,,,,,,,,,,,0,,,71,0
47455,note_on,0,0,1,,,,,,,,,,,,,,,0,,,74,0
47456,note_on,1,0,1,,,,,,,,,,,,,,,0,,,43,127
47456,note_on,0,0,1,,,,,,,,,,,,,,,0,,,74,127
47456,note_on,0,0,1,,,,,,,,,,,,,,,0,,,71,127
47551,note_on,95,0,1,,,,,,,,,,,,,,,0,,,74,0
47552,note_on,1,0,1,,,,,,,,,,,,,,,0,,,74,127
47647,note_on,0,0,1,,,,,,,,,,,,,,,0,,,71,0
47647,note_on,0,0,1,,,,,,,,,,,,,,,0,,,43,0
47647,note_on,95,0,1,,,,,,,,,,,,,,,0,,,74,0
47648,note_on,1,0,1,,,,,,,,,,,,,,,0,,,36,127
47648,note_on,0,0,1,,,,,,,,,,,,,,,0,,,76,127
47648,note_on,0,0,1,,,,,,,,,,,,,,,0,,,72,127
47839,note_on,191,0,1,,,,,,,,,,,,,,,0,,,72,0
47839,note_on,0,0,1,,,,,,,,,,,,,,,0,,,76,0
47840,note_on,1,0,1,,,,,,,,,,,,,,,0,,,84,127
47935,note_on,95,0,1,,,,,,,,,,,,,,,0,,,84,0
47936,note_on,1,0,1,,,,,,,,,,,,,,,0,,,79,127
48031,note_on,95,0,1,,,,,,,,,,,,,,,0,,,79,0
48031,note_on,0,0,1,,,,,,,,,,,,,,,0,,,36,0
48032,note_on,0,0,1,,,,,,,,,,,,,,,0,,,72,127
48032,note_on,1,0,1,,,,,,,,,,,,,,,0,,,76,127
48032,note_on,0,0,1,,,,,,,,,,,,,,,0,,,81,127
48056,note_on,24,0,1,,,,,,,,,,,,,,,0,,,79,127
48063,note_on,7,0,1,,,,,,,,,,,,,,,0,,,81,0
48080,note_on,17,0,1,,,,,,,,,,,,,,,0,,,81,127
48087,note_on,7,0,1,,,,,,,,,,,,,,,0,,,79,0
48104,note_on,17,0,1,,,,,,,,,,,,,,,0,,,79,127
48111,note_on,7,0,1,,,,,,,,,,,,,,,0,,,81,0
48223,note_on,112,0,1,,,,,,,,,,,,,,,0,,,79,0
48224,note_on,1,0,1,,,,,,,,,,,,,,,0,,,84,127
48319,note_on,95,0,1,,,,,,,,,,,,,,,0,,,84,0
48320,note_on,1,0,1,,,,,,,,,,,,,,,0,,,79,127
48415,note_on,95,0,1,,,,,,,,,,,,,,,0,,,79,0
48415,note_on,0,0,1,,,,,,,,,,,,,,,0,,,72,0
48415,note_on,0,0,1,,,,,,,,,,,,,,,0,,,76,0
48416,note_on,0,0,1,,,,,,,,,,,,,,,0,,,81,127
48416,note_on,1,0,1,,,,,,,,,,,,,,,0,,,76,127
48416,note_on,0,0,1,,,,,,,,,,,,,,,0,,,72,127
48440,note_on,24,0,1,,,,,,,,,,,,,,,0,,,79,127
48447,note_on,7,0,1,,,,,,,,,,,,,,,0,,,81,0
48464,note_on,17,0,1,,,,,,,,,,,,,,,0,,,81,127
48471,note_on,7,0,1,,,,,,,,,,,,,,,0,,,79,0
48488,note_on,17,0,1,,,,,,,,,,,,,,,0,,,79,127
48495,note_on,7,0,1,,,,,,,,,,,,,,,0,,,81,0
48607,note_on,112,0,1,,,,,,,,,,,,,,,0,,,79,0
48608,note_on,1,0,1,,,,,,,,,,,,,,,0,,,72,127
48703,note_on,95,0,1,,,,,,,,,,,,,,,0,,,72,0
48704,note_on,1,0,1,,,,,,,,,,,,,,,0,,,67,127
48799,note_on,95,0,1,,,,,,,,,,,,,,,0,,,67,0
48799,note_on,0,0,1,,,,,,,,,,,,,,,0,,,72,0
48799,note_on,0,0,1,,,,,,,,,,,,,,,0,,,76,0
48800,note_on,0,0,1,,,,,,,,,,,,,,,0,,,64,127
48800,note_on,1,0,1,,,,,,,,,,,,,,,0,,,60,127
48800,note_on,0,0,1,,,,,,,,,,,,,,,0,,,69,127
48824,note_on,24,0,1,,,,,,,,,,,,,,,0,,,67,127
48831,note_on,7,0,1,,,,,,,,,,,,,,,0,,,69,0
48848,note_on,17,0,1,,,,,,,,,,,,,,,0,,,69,127
48855,note_on,7,0,1,,,,,,,,,,,,,,,0,,,67,0
48872,note_on,17,0,1,,,,,,,,,,,,,,,0,,,67,127
48879,note_on,7,0,1,,,,,,,,,,,,,,,0,,,69,0
48991,note_on,112,0,1,,,,,,,,,,,,,,,0,,,67,0
48992,note_on,1,0,1,,,,,,,,,,,,,,,0,,,72,127
49087,note_on,95,0,1,,,,,,,,,,,,,,,0,,,72,0
49088,note_on,1,0,1,,,,,,,,,,,,,,,0,,,67,127
49183,note_on,95,0,1,,,,,,,,,,,,,,,0,,,67,0
49183,note_on,0,0,1,,,,,,,,,,,,,,,0,,,64,0
49183,note_on,0,0,1,,,,,,,,,,,,,,,0,,,60,0
49184,note_on,1,0,1,,,,,,,,,,,,,,,0,,,60,127
49184,note_on,0,0,1,,,,,,,,,,,,,,,0,,,64,127
49184,note_on,0,0,1,,,,,,,,,,,,,,,0,,,69,127
49208,note_on,24,0,1,,,,,,,,,,,,,,,0,,,67,127
49215,note_on,7,0,1,,,,,,,,,,,,,,,0,,,69,0
49232,note_on,17,0,1,,,,,,,,,,,,,,,0,,,69,127
49239,note_on,7,0,1,,,,,,,,,,,,,,,0,,,67,0
49256,note_on,17,0,1,,,,,,,,,,,,,,,0,,,67,127
49263,note_on,7,0,1,,,,,,,,,,,,,,,0,,,69,0
49375,note_on,112,0,1,,,,,,,,,,,,,,,0,,,67,0
49376,note_on,1,0,1,,,,,,,,,,,,,,,0,,,60,127
49471,note_on,95,0,1,,,,,,,,,,,,,,,0,,,60,0
49472,note_on,1,0,1,,,,,,,,,,,,,,,0,,,55,127
49567,note_on,95,0,1,,,,,,,,,,,,,,,0,,,55,0
49567,note_on,0,0,1,,,,,,,,,,,,,,,0,,,60,0
49567,note_on,0,0,1,,,,,,,,,,,,,,,0,,,64,0
49568,note_on,1,0,1,,,,,,,,,,,,,,,0,,,52,127
49568,note_on,0,0,1,,,,,,,,,,,,,,,0,,,48,127
49568,note_on,0,0,1,,,,,,,,,,,,,,,0,,,57,127
49592,note_on,24,0,1,,,,,,,,,,,,,,,0,,,55,127
49599,note_on,7,0,1,,,,,,,,,,,,,,,0,,,57,0
49616,note_on,17,0,1,,,,,,,,,,,,,,,0,,,57,127
49623,note_on,7,0,1,,,,,,,,,,,,,,,0,,,55,0
49640,note_on,17,0,1,,,,,,,,,,,,,,,0,,,55,127
49647,note_on,7,0,1,,,,,,,,,,,,,,,0,,,57,0
49759,note_on,112,0,1,,,,,,,,,,,,,,,0,,,55,0
49760,note_on,1,0,1,,,,,,,,,,,,,,,0,,,60,127
49855,note_on,95,0,1,,,,,,,,,,,,,,,0,,,60,0
49856,note_on,1,0,1,,,,,,,,,,,,,,,0,,,55,127
49951,note_on,95,0,1,,,,,,,,,,,,,,,0,,,55,0
49951,note_on,0,0,1,,,,,,,,,,,,,,,0,,,48,0
49951,note_on,0,0,1,,,,,,,,,,,,,,,0,,,52,0
49952,note_on,1,0,1,,,,,,,,,,,,,,,0,,,52,127
49952,note_on,0,0,1,,,,,,,,,,,,,,,0,,,48,127
49952,note_on,0,0,1,,,,,,,,,,,,,,,0,,,57,127
49976,note_on,24,0,1,,,,,,,,,,,,,,,0,,,55,127
49983,note_on,7,0,1,,,,,,,,,,,,,,,0,,,57,0
50000,note_on,17,0,1,,,,,,,,,,,,,,,0,,,57,127
50007,note_on,7,0,1,,,,,,,,,,,,,,,0,,,55,0
50024,note_on,17,0,1,,,,,,,,,,,,,,,0,,,55,127
50031,note_on,7,0,1,,,,,,,,,,,,,,,0,,,57,0
50143,note_on,0,0,1,,,,,,,,,,,,,,,0,,,48,0
50143,note_on,0,0,1,,,,,,,,,,,,,,,0,,,55,0
50143,note_on,112,0,1,,,,,,,,,,,,,,,0,,,52,0
50144,note_on,1,0,1,,,,,,,,,,,,,,,0,,,53,127
50144,note_on,0,0,1,,,,,,,,,,,,,,,0,,,65,127
50239,note_on,95,0,1,,,,,,,,,,,,,,,0,,,65,0
50240,note_on,1,0,1,,,,,,,,,,,,,,,0,,,62,127
50335,note_on,95,0,1,,,,,,,,,,,,,,,0,,,62,0
50335,note_on,0,0,1,,,,,,,,,,,,,,,0,,,53,0
50336,note_on,1,0,1,,,,,,,,,,,,,,,0,,,55,127
50336,note_on,0,0,1,,,,,,,,,,,,,,,0,,,60,127
50336,note_on,0,0,1,,,,,,,,,,,,,,,0,,,64,127
50527,note_on,0,0,1,,,,,,,,,,,,,,,0,,,55,0
50527,note_on,0,0,1,,,,,,,,,,,,,,,0,,,60,0
50527,note_on,191,0,1,,,,,,,,,,,,,,,0,,,64,0
50528,note_on,1,0,1,,,,,,,,,,,,,,,0,,,43,127
50528,note_on,0,0,1,,,,,,,,,,,,,,,0,,,59,127
50528,note_on,0,0,1,,,,,,,,,,,,,,,0,,,62,127
50719,note_on,191,0,1,,,,,,,,,,,,,,,0,,,59,0
50719,note_on,0,0,1,,,,,,,,,,,,,,,0,,,62,0
50719,note_on,0,0,1,,,,,,,,,,,,,,,0,,,43,0
50720,note_on,1,0,1,,,,,,,,,,,,,,,0,,,36,127
50720,note_on,0,0,1,,,,,,,,,,,,,,,0,,,60,127
50815,note_on,95,0,1,,,,,,,,,,,,,,,0,,,60,0
50816,note_on,1,0,1,,,,,,,,,,,,,,,0,,,62,127
50863,note_on,47,0,1,,,,,,,,,,,,,,,0,,,62,0
50864,note_on,1,0,1,,,,,,,,,,,,,,,0,,,64,127
50911,note_on,47,0,1,,,,,,,,,,,,,,,0,,,64,0
50912,note_on,1,0,1,,,,,,,,,,,,,,,0,,,65,127
50959,note_on,47,0,1,,,,,,,,,,,,,,,0,,,65,0
50960,note_on,1,0,1,,,,,,,,,,,,,,,0,,,67,127
51007,note_on,47,0,1,,,,,,,,,,,,,,,0,,,67,0
51008,note_on,1,0,1,,,,,,,,,,,,,,,0,,,69,127
51055,note_on,47,0,1,,,,,,,,,,,,,,,0,,,69,0
51056,note_on,1,0,1,,,,,,,,,,,,,,,0,,,71,127
51103,note_on,47,0,1,,,,,,,,,,,,,,,0,,,71,0
51104,note_on,1,0,1,,,,,,,,,,,,,,,0,,,72,127
51151,note_on,47,0,1,,,,,,,,,,,,,,,0,,,72,0
51152,note_on,1,0,1,,,,,,,,,,,,,,,0,,,74,127
51199,note_on,47,0,1,,,,,,,,,,,,,,,0,,,74,0
51200,note_on,1,0,1,,,,,,,,,,,,,,,0,,,76,127
51247,note_on,47,0,1,,,,,,,,,,,,,,,0,,,76,0
51248,note_on,1,0,1,,,,,,,,,,,,,,,0,,,77,127
51295,note_on,47,0,1,,,,,,,,,,,,,,,0,,,77,0
51296,note_on,1,0,1,,,,,,,,,,,,,,,0,,,79,127
51343,note_on,47,0,1,,,,,,,,,,,,,,,0,,,79,0
51344,note_on,1,0,1,,,,,,,,,,,,,,,0,,,81,127
51391,note_on,47,0,1,,,,,,,,,,,,,,,0,,,81,0
51392,note_on,1,0,1,,,,,,,,,,,,,,,0,,,83,127
51439,note_on,47,0,1,,,,,,,,,,,,,,,0,,,83,0
51440,note_on,1,0,1,,,,,,,,,,,,,,,0,,,84,127
51487,note_on,47,0,1,,,,,,,,,,,,,,,0,,,84,0
51488,note_on,1,0,1,,,,,,,,,,,,,,,0,,,82,127
51679,note_on,191,0,1,,,,,,,,,,,,,,,0,,,36,0
51680,note_on,1,0,1,,,,,,,,,,,,,,,0,,,48,127
51680,note_on,0,0,1,,,,,,,,,,,,,,,0,,,36,127
51871,note_on,191,0,1,,,,,,,,,,,,,,,0,,,36,0
51871,note_on,0,0,1,,,,,,,,,,,,,,,0,,,48,0
51872,note_on,1,0,1,,,,,,,,,,,,,,,0,,,50,127
51872,note_on,0,0,1,,,,,,,,,,,,,,,0,,,38,127
52063,note_on,191,0,1,,,,,,,,,,,,,,,0,,,38,0
52063,note_on,0,0,1,,,,,,,,,,,,,,,0,,,50,0
52064,note_on,1,0,1,,,,,,,,,,,,,,,0,,,40,127
52064,note_on,0,0,1,,,,,,,,,,,,,,,0,,,52,127
52255,note_on,0,0,1,,,,,,,,,,,,,,,0,,,40,0
52255,note_on,191,0,1,,,,,,,,,,,,,,,0,,,52,0
52256,note_on,0,0,1,,,,,,,,,,,,,,,0,,,53,127
52256,note_on,1,0,1,,,,,,,,,,,,,,,0,,,41,127
52447,note_on,191,0,1,,,,,,,,,,,,,,,0,,,82,0
52448,note_on,1,0,1,,,,,,,,,,,,,,,0,,,81,127
52543,note_on,95,0,1,,,,,,,,,,,,,,,0,,,81,0
52544,note_on,1,0,1,,,,,,,,,,,,,,,0,,,79,127
52639,note_on,95,0,1,,,,,,,,,,,,,,,0,,,79,0
52639,note_on,0,0,1,,,,,,,,,,,,,,,0,,,53,0
52639,note_on,0,0,1,,,,,,,,,,,,,,,0,,,41,0
52640,note_on,1,0,1,,,,,,,,,,,,,,,0,,,53,127
52640,note_on,0,0,1,,,,,,,,,,,,,,,0,,,41,127
52640,note_on,0,0,1,,,,,,,,,,,,,,,0,,,79,127
52735,note_on,95,0,1,,,,,,,,,,,,,,,0,,,79,0
52736,note_on,1,0,1,,,,,,,,,,,,,,,0,,,77,127
52831,note_on,95,0,1,,,,,,,,,,,,,,,0,,,77,0
52832,note_on,1,0,1,,,,,,,,,,,,,,,0,,,76,127
52927,note_on,95,0,1,,,,,,,,,,,,,,,0,,,76,0
52928,note_on,1,0,1,,,,,,,,,,,,,,,0,,,74,127
53023,note_on,0,0,1,,,,,,,,,,,,,,,0,,,41,0
53023,note_on,95,0,1,,,,,,,,,,,,,,,0,,,74,0
53023,note_on,0,0,1,,,,,,,,,,,,,,,0,,,53,0
53024,note_on,0,0,1,,,,,,,,,,,,,,,0,,,55,127
53024,note_on,1,0,1,,,,,,,,,,,,,,,0,,,43,127
53024,note_on,0,0,1,,,,,,,,,,,,,,,0,,,72,127
53247,note_on,223,0,1,,,,,,,,,,,,,,,0,,,72,0
53248,note_on,1,0,1,,,,,,,,,,,,,,,0,,,74,127
53279,note_on,31,0,1,,,,,,,,,,,,,,,0,,,74,0
53280,note_on,1,0,1,,,,,,,,,,,,,,,0,,,72,127
53311,note_on,31,0,1,,,,,,,,,,,,,,,0,,,72,0
53312,note_on,1,0,1,,,,,,,,,,,,,,,0,,,71,127
53343,note_on,31,0,1,,,,,,,,,,,,,,,0,,,71,0
53344,note_on,1,0,1,,,,,,,,,,,,,,,0,,,72,127
53375,note_on,31,0,1,,,,,,,,,,,,,,,0,,,72,0
53376,note_on,1,0,1,,,,,,,,,,,,,,,0,,,74,127
53407,note_on,31,0,1,,,,,,,,,,,,,,,0,,,74,0
53407,note_on,0,0,1,,,,,,,,,,,,,,,0,,,55,0
53407,note_on,0,0,1,,,,,,,,,,,,,,,0,,,43,0
53408,note_on,1,0,1,,,,,,,,,,,,,,,0,,,43,127
53408,note_on,0,0,1,,,,,,,,,,,,,,,0,,,76,127
53439,note_on,31,0,1,,,,,,,,,,,,,,,0,,,76,0
53440,note_on,1,0,1,,,,,,,,,,,,,,,0,,,74,127
53471,note_on,31,0,1,,,,,,,,,,,,,,,0,,,74,0
53472,note_on,1,0,1,,,,,,,,,,,,,,,0,,,76,127
53503,note_on,31,0,1,,,,,,,,,,,,,,,0,,,76,0
53504,note_on,1,0,1,,,,,,,,,,,,,,,0,,,74,127
53535,note_on,31,0,1,,,,,,,,,,,,,,,0,,,74,0
53536,note_on,1,0,1,,,,,,,,,,,,,,,0,,,76,127
53567,note_on,31,0,1,,,,,,,,,,,,,,,0,,,76,0
53568,note_on,1,0,1,,,,,,,,,,,,,,,0,,,74,127
53599,note_on,31,0,1,,,,,,,,,,,,,,,0,,,74,0
53600,note_on,1,0,1,,,,,,,,,,,,,,,0,,,76,127
53631,note_on,31,0,1,,,,,,,,,,,,,,,0,,,76,0
53632,note_on,1,0,1,,,,,,,,,,,,,,,0,,,74,127
53791,note_on,0,0,1,,,,,,,,,,,,,,,0,,,43,0
53791,note_on,159,0,1,,,,,,,,,,,,,,,0,,,74,0
53792,note_on,0,0,1,,,,,,,,,,,,,,,0,,,60,127
53792,note_on,1,0,1,,,,,,,,,,,,,,,0,,,36,127
53887,note_on,95,0,1,,,,,,,,,,,,,,,0,,,60,0
53888,note_on,1,0,1,,,,,,,,,,,,,,,0,,,62,127
53935,note_on,47,0,1,,,,,,,,,,,,,,,0,,,62,0
53936,note_on,1,0,1,,,,,,,,,,,,,,,0,,,64,127
53983,note_on,47,0,1,,,,,,,,,,,,,,,0,,,64,0
53984,note_on,1,0,1,,,,,,,,,,,,,,,0,,,65,127
54031,note_on,47,0,1,,,,,,,,,,,,,,,0,,,65,0
54032,note_on,1,0,1,,,,,,,,,,,,,,,0,,,67,127
54079,note_on,47,0,1,,,,,,,,,,,,,,,0,,,67,0
54080,note_on,1,0,1,,,,,,,,,,,,,,,0,,,69,127
54127,note_on,47,0,1,,,,,,,,,,,,,,,0,,,69,0
54128,note_on,1,0,1,,,,,,,,,,,,,,,0,,,71,127
54175,note_on,47,0,1,,,,,,,,,,,,,,,0,,,71,0
54176,note_on,1,0,1,,,,,,,,,,,,,,,0,,,72,127
54223,note_on,47,0,1,,,,,,,,,,,,,,,0,,,72,0
54224,note_on,1,0,1,,,,,,,,,,,,,,,0,,,74,127
54271,note_on,47,0,1,,,,,,,,,,,,,,,0,,,74,0
54272,note_on,1,0,1,,,,,,,,,,,,,,,0,,,76,127
54319,note_on,47,0,1,,,,,,,,,,,,,,,0,,,76,0
54320,note_on,1,0,1,,,,,,,,,,,,,,,0,,,77,127
54367,note_on,47,0,1,,,,,,,,,,,,,,,0,,,77,0
54368,note_on,1,0,1,,,,,,,,,,,,,,,0,,,79,127
54415,note_on,47,0,1,,,,,,,,,,,,,,,0,,,79,0
54416,note_on,1,0,1,,,,,,,,,,,,,,,0,,,81,127
54463,note_on,47,0,1,,,,,,,,,,,,,,,0,,,81,0
54464,note_on,1,0,1,,,,,,,,,,,,,,,0,,,83,127
54511,note_on,47,0,1,,,,,,,,,,,,,,,0,,,83,0
54512,note_on,1,0,1,,,,,,,,,,,,,,,0,,,84,127
54559,note_on,47,0,1,,,,,,,,,,,,,,,0,,,84,0
54560,note_on,1,0,1,,,,,,,,,,,,,,,0,,,82,127
54751,note_on,191,0,1,,,,,,,,,,,,,,,0,,,36,0
54752,note_on,1,0,1,,,,,,,,,,,,,,,0,,,48,127
54752,note_on,0,0,1,,,,,,,,,,,,,,,0,,,36,127
54943,note_on,191,0,1,,,,,,,,,,,,,,,0,,,36,0
54943,note_on,0,0,1,,,,,,,,,,,,,,,0,,,48,0
54944,note_on,1,0,1,,,,,,,,,,,,,,,0,,,38,127
54944,note_on,0,0,1,,,,,,,,,,,,,,,0,,,50,127
55135,note_on,191,0,1,,,,,,,,,,,,,,,0,,,50,0
55135,note_on,0,0,1,,,,,,,,,,,,,,,0,,,38,0
55136,note_on,1,0,1,,,,,,,,,,,,,,,0,,,40,127
55136,note_on,0,0,1,,,,,,,,,,,,,,,0,,,52,127
55327,note_on,191,0,1,,,,,,,,,,,,,,,0,,,52,0
55327,note_on,0,0,1,,,,,,,,,,,,,,,0,,,40,0
55328,note_on,1,0,1,,,,,,,,,,,,,,,0,,,53,127
55328,note_on,0,0,1,,,,,,,,,,,,,,,0,,,41,127
55519,note_on,191,0,1,,,,,,,,,,,,,,,0,,,82,0
55520,note_on,1,0,1,,,,,,,,,,,,,,,0,,,81,127
55615,note_on,95,0,1,,,,,,,,,,,,,,,0,,,81,0
55616,note_on,1,0,1,,,,,,,,,,,,,,,0,,,79,127
55711,note_on,0,0,1,,,,,,,,,,,,,,,0,,,53,0
55711,note_on,0,0,1,,,,,,,,,,,,,,,0,,,41,0
55711,note_on,95,0,1,,,,,,,,,,,,,,,0,,,79,0
55712,note_on,1,0,1,,,,,,,,,,,,,,,0,,,41,127
55712,note_on,0,0,1,,,,,,,,,,,,,,,0,,,53,127
55712,note_on,0,0,1,,,,,,,,,,,,,,,0,,,79,127
55807,note_on,95,0,1,,,,,,,,,,,,,,,0,,,79,0
55808,note_on,1,0,1,,,,,,,,,,,,,,,0,,,77,127
55903,note_on,95,0,1,,,,,,,,,,,,,,,0,,,77,0
55904,note_on,1,0,1,,,,,,,,,,,,,,,0,,,76,127
55999,note_on,95,0,1,,,,,,,,,,,,,,,0,,,76,0
56000,note_on,1,0,1,,,,,,,,,,,,,,,0,,,74,127
56095,note_on,0,0,1,,,,,,,,,,,,,,,0,,,41,0
56095,note_on,95,0,1,,,,,,,,,,,,,,,0,,,74,0
56095,note_on,0,0,1,,,,,,,,,,,,,,,0,,,53,0
56096,note_on,1,0,1,,,,,,,,,,,,,,,0,,,55,127
56096,note_on,0,0,1,,,,,,,,,,,,,,,0,,,72,127
56096,note_on,0,0,1,,,,,,,,,,,,,,,0,,,43,127
56319,note_on,223,0,1,,,,,,,,,,,,,,,0,,,72,0
56320,note_on,1,0,1,,,,,,,,,,,,,,,0,,,74,127
56351,note_on,31,0,1,,,,,,,,,,,,,,,0,,,74,0
56352,note_on,1,0,1,,,,,,,,,,,,,,,0,,,72,127
56383,note_on,31,0,1,,,,,,,,,,,,,,,0,,,72,0
56384,note_on,1,0,1,,,,,,,,,,,,,,,0,,,71,127
56415,note_on,31,0,1,,,,,,,,,,,,,,,0,,,71,0
56416,note_on,1,0,1,,,,,,,,,,,,,,,0,,,72,127
56447,note_on,31,0,1,,,,,,,,,,,,,,,0,,,72,0
56448,note_on,1,0,1,,,,,,,,,,,,,,,0,,,74,127
56479,note_on,0,0,1,,,,,,,,,,,,,,,0,,,55,0
56479,note_on,31,0,1,,,,,,,,,,,,,,,0,,,74,0
56479,note_on,0,0,1,,,,,,,,,,,,,,,0,,,43,0
56480,note_on,1,0,1,,,,,,,,,,,,,,,0,,,43,127
56480,note_on,0,0,1,,,,,,,,,,,,,,,0,,,76,127
56511,note_on,31,0,1,,,,,,,,,,,,,,,0,,,76,0
56512,note_on,1,0,1,,,,,,,,,,,,,,,0,,,74,127
56543,note_on,31,0,1,,,,,,,,,,,,,,,0,,,74,0
56544,note_on,1,0,1,,,,,,,,,,,,,,,0,,,76,127
56575,note_on,31,0,1,,,,,,,,,,,,,,,0,,,76,0
56576,note_on,1,0,1,,,,,,,,,,,,,,,0,,,74,127
56607,note_on,31,0,1,,,,,,,,,,,,,,,0,,,74,0
56608,note_on,1,0,1,,,,,,,,,,,,,,,0,,,76,127
56639,note_on,31,0,1,,,,,,,,,,,,,,,0,,,76,0
56640,note_on,1,0,1,,,,,,,,,,,,,,,0,,,74,127
56671,note_on,31,0,1,,,,,,,,,,,,,,,0,,,74,0
56672,note_on,1,0,1,,,,,,,,,,,,,,,0,,,76,127
56703,note_on,31,0,1,,,,,,,,,,,,,,,0,,,76,0
56704,note_on,1,0,1,,,,,,,,,,,,,,,0,,,74,127
56735,note_on,31,0,1,,,,,,,,,,,,,,,0,,,74,0
56736,note_on,1,0,1,,,,,,,,,,,,,,,0,,,72,127
56863,note_on,0,0,1,,,,,,,,,,,,,,,0,,,43,0
56863,note_on,127,0,1,,,,,,,,,,,,,,,0,,,72,0
56864,note_on,1,0,1,,,,,,,,,,,,,,,0,,,36,127
56864,note_on,0,0,1,,,,,,,,,,,,,,,0,,,72,127
57055,note_on,191,0,1,,,,,,,,,,,,,,,0,,,72,0
57056,note_on,1,0,1,,,,,,,,,,,,,,,0,,,72,127
57151,note_on,95,0,1,,,,,,,,,,,,,,,0,,,72,0
57152,note_on,1,0,1,,,,,,,,,,,,,,,0,,,72,127
57247,note_on,95,0,1,,,,,,,,,,,,,,,0,,,72,0
57247,note_on,0,0,1,,,,,,,,,,,,,,,0,,,36,0
57248,note_on,1,0,1,,,,,,,,,,,,,,,0,,,36,127
57248,note_on,0,0,1,,,,,,,,,,,,,,,0,,,74,127
57248,note_on,0,0,1,,,,,,,,,,,,,,,0,,,64,127
57272,note_on,24,0,1,,,,,,,,,,,,,,,0,,,72,127
57279,note_on,7,0,1,,,,,,,,,,,,,,,0,,,74,0
57296,note_on,17,0,1,,,,,,,,,,,,,,,0,,,74,127
57303,note_on,7,0,1,,,,,,,,,,,,,,,0,,,72,0
57320,note_on,17,0,1,,,,,,,,,,,,,,,0,,,72,127
57327,note_on,7,0,1,,,,,,,,,,,,,,,0,,,74,0
57439,note_on,112,0,1,,,,,,,,,,,,,,,0,,,72,0
57440,note_on,1,0,1,,,,,,,,,,,,,,,0,,,76,127
57535,note_on,95,0,1,,,,,,,,,,,,,,,0,,,76,0
57536,note_on,1,0,1,,,,,,,,,,,,,,,0,,,72,127
57631,note_on,95,0,1,,,,,,,,,,,,,,,0,,,72,0
57631,note_on,0,0,1,,,,,,,,,,,,,,,0,,,64,0
57631,note_on,0,0,1,,,,,,,,,,,,,,,0,,,36,0
57632,note_on,1,0,1,,,,,,,,,,,,,,,0,,,36,127
57632,note_on,0,0,1,,,,,,,,,,,,,,,0,,,74,127
57632,note_on,0,0,1,,,,,,,,,,,,,,,0,,,64,127
57656,note_on,24,0,1,,,,,,,,,,,,,,,0,,,72,127
57663,note_on,7,0,1,,,,,,,,,,,,,,,0,,,74,0
57680,note_on,17,0,1,,,,,,,,,,,,,,,0,,,74,127
57687,note_on,7,0,1,,,,,,,,,,,,,,,0,,,72,0
57704,note_on,17,0,1,,,,,,,,,,,,,,,0,,,72,127
57711,note_on,7,0,1,,,,,,,,,,,,,,,0,,,74,0
57823,note_on,112,0,1,,,,,,,,,,,,,,,0,,,72,0
57824,note_on,1,0,1,,,,,,,,,,,,,,,0,,,76,127
57919,note_on,95,0,1,,,,,,,,,,,,,,,0,,,76,0
57920,note_on,1,0,1,,,,,,,,,,,,,,,0,,,76,127
58015,note_on,0,0,1,,,,,,,,,,,,,,,0,,,64,0
58015,note_on,0,0,1,,,,,,,,,,,,,,,0,,,36,0
58015,note_on,95,0,1,,,,,,,,,,,,,,,0,,,76,0
58016,note_on,1,0,1,,,,,,,,,,,,,,,0,,,36,127
58016,note_on,0,0,1,,,,,,,,,,,,,,,0,,,77,127
58016,note_on,0,0,1,,,,,,,,,,,,,,,0,,,67,127
58040,note_on,24,0,1,,,,,,,,,,,,,,,0,,,76,127
58047,note_on,7,0,1,,,,,,,,,,,,,,,0,,,77,0
58064,note_on,17,0,1,,,,,,,,,,,,,,,0,,,77,127
58071,note_on,7,0,1,,,,,,,,,,,,,,,0,,,76,0
58088,note_on,17,0,1,,,,,,,,,,,,,,,0,,,76,127
58095,note_on,7,0,1,,,,,,,,,,,,,,,0,,,77,0
58207,note_on,112,0,1,,,,,,,,,,,,,,,0,,,76,0
58208,note_on,1,0,1,,,,,,,,,,,,,,,0,,,79,127
58303,note_on,95,0,1,,,,,,,,,,,,,,,0,,,79,0
58304,note_on,1,0,1,,,,,,,,,,,,,,,0,,,76,127
58399,note_on,95,0,1,,,,,,,,,,,,,,,0,,,76,0
58399,note_on,0,0,1,,,,,,,,,,,,,,,0,,,67,0
58399,note_on,0,0,1,,,,,,,,,,,,,,,0,,,36,0
58400,note_on,1,0,1,,,,,,,,,,,,,,,0,,,36,127
58400,note_on,0,0,1,,,,,,,,,,,,,,,0,,,77,127
58400,note_on,0,0,1,,,,,,,,,,,,,,,0,,,72,127
58424,note_on,24,0,1,,,,,,,,,,,,,,,0,,,76,127
58431,note_on,7,0,1,,,,,,,,,,,,,,,0,,,77,0
58448,note_on,17,0,1,,,,,,,,,,,,,,,0,,,77,127
58455,note_on,7,0,1,,,,,,,,,,,,,,,0,,,76,0
58472,note_on,17,0,1,,,,,,,,,,,,,,,0,,,76,127
58479,note_on,7,0,1,,,,,,,,,,,,,,,0,,,77,0
58591,note_on,112,0,1,,,,,,,,,,,,,,,0,,,76,0
58592,note_on,1,0,1,,,,,,,,,,,,,,,0,,,84,127
58687,note_on,95,0,1,,,,,,,,,,,,,,,0,,,84,0
58688,note_on,1,0,1,,,,,,,,,,,,,,,0,,,84,127
58783,note_on,95,0,1,,,,,,,,,,,,,,,0,,,84,0
58783,note_on,0,0,1,,,,,,,,,,,,,,,0,,,72,0
58783,note_on,0,0,1,,,,,,,,,,,,,,,0,,,36,0
58784,note_on,1,0,1,,,,,,,,,,,,,,,0,,,36,127
58784,note_on,0,0,1,,,,,,,,,,,,,,,0,,,86,127
58784,note_on,0,0,1,,,,,,,,,,,,,,,0,,,76,127
58808,note_on,24,0,1,,,,,,,,,,,,,,,0,,,84,127
58815,note_on,7,0,1,,,,,,,,,,,,,,,0,,,86,0
58832,note_on,17,0,1,,,,,,,,,,,,,,,0,,,86,127
58839,note_on,7,0,1,,,,,,,,,,,,,,,0,,,84,0
58856,note_on,17,0,1,,,,,,,,,,,,,,,0,,,84,127
58863,note_on,7,0,1,,,,,,,,,,,,,,,0,,,86,0
58975,note_on,112,0,1,,,,,,,,,,,,,,,0,,,84,0
58976,note_on,1,0,1,,,,,,,,,,,,,,,0,,,84,127
59071,note_on,95,0,1,,,,,,,,,,,,,,,0,,,84,0
59072,note_on,1,0,1,,,,,,,,,,,,,,,0,,,79,127
59167,note_on,0,0,1,,,,,,,,,,,,,,,0,,,76,0
59167,note_on,0,0,1,,,,,,,,,,,,,,,0,,,36,0
59167,note_on,95,0,1,,,,,,,,,,,,,,,0,,,79,0
59168,note_on,1,0,1,,,,,,,,,,,,,,,0,,,36,127
59168,note_on,0,0,1,,,,,,,,,,,,,,,0,,,86,127
59168,note_on,0,0,1,,,,,,,,,,,,,,,0,,,76,127
59192,note_on,24,0,1,,,,,,,,,,,,,,,0,,,84,127
59199,note_on,7,0,1,,,,,,,,,,,,,,,0,,,86,0
59216,note_on,17,0,1,,,,,,,,,,,,,,,0,,,86,127
59223,note_on,7,0,1,,,,,,,,,,,,,,,0,,,84,0
59240,note_on,17,0,1,,,,,,,,,,,,,,,0,,,84,127
59247,note_on,7,0,1,,,,,,,,,,,,,,,0,,,86,0
59359,note_on,112,0,1,,,,,,,,,,,,,,,0,,,84,0
59360,note_on,1,0,1,,,,,,,,,,,,,,,0,,,84,127
59455,note_on,95,0,1,,,,,,,,,,,,,,,0,,,84,0
59456,note_on,1,0,1,,,,,,,,,,,,,,,0,,,79,127
59551,note_on,0,0,1,,,,,,,,,,,,,,,0,,,36,0
59551,note_on,95,0,1,,,,,,,,,,,,,,,0,,,79,0
59551,note_on,0,0,1,,,,,,,,,,,,,,,0,,,76,0
59552,note_on,1,0,1,,,,,,,,,,,,,,,0,,,36,127
59552,note_on,0,0,1,,,,,,,,,,,,,,,0,,,86,127
59552,note_on,0,0,1,,,,,,,,,,,,,,,0,,,76,127
59576,note_on,24,0,1,,,,,,,,,,,,,,,0,,,84,127
59583,note_on,7,0,1,,,,,,,,,,,,,,,0,,,86,0
59600,note_on,17,0,1,,,,,,,,,,,,,,,0,,,86,127
59607,note_on,7,0,1,,,,,,,,,,,,,,,0,,,84,0
59624,note_on,17,0,1,,,,,,,,,,,,,,,0,,,84,127
59631,note_on,7,0,1,,,,,,,,,,,,,,,0,,,86,0
59743,note_on,112,0,1,,,,,,,,,,,,,,,0,,,84,0
59744,note_on,1,0,1,,,,,,,,,,,,,,,0,,,84,127
59839,note_on,95,0,1,,,,,,,,,,,,,,,0,,,84,0
59840,note_on,1,0,1,,,,,,,,,,,,,,,0,,,79,127
59935,note_on,95,0,1,,,,,,,,,,,,,,,0,,,79,0
59935,note_on,0,0,1,,,,,,,,,,,,,,,0,,,76,0
59935,note_on,0,0,1,,,,,,,,,,,,,,,0,,,36,0
59936,note_on,1,0,1,,,,,,,,,,,,,,,0,,,36,127
59936,note_on,0,0,1,,,,,,,,,,,,,,,0,,,76,127
59936,note_on,0,0,1,,,,,,,,,,,,,,,0,,,84,127
59936,control_change,0,0,1,,,,,,,,,,,,,,,0,121,0,,
61472,note_on,1536,0,1,,,,,,,,,,,,,,,0,,,84,0
61472,note_on,0,0,1,,,,,,,,,,,,,,,0,,,76,0
61472,note_on,0,0,1,,,,,,,,,,,,,,,0,,,36,0
61472,end_of_track,0,1,1,,,,,,,,,,,,,,,,,,,
