tick,type,time,meta,track,frame_rate,hours,minutes,seconds,frames,sub_frames,numerator,denominator,clocks_per_click,notated_32nd_notes_per_beat,key,tempo,port,program,channel,control,value,note,velocity
0,track_name,0,1,0,,,,,,,,,,,,,,,,,,,
0,midi_port,0,1,2,,,,,,,,,,,,,0,,,,,,
0,control_change,0,0,1,,,,,,,,,,,,,,,0,7,100,,
0,control_change,0,0,1,,,,,,,,,,,,,,,0,87,59,,
0,control_change,0,0,1,,,,,,,,,,,,,,,0,7,127,,
0,program_change,0,0,1,,,,,,,,,,,,,,0,0,,,,
0,program_change,0,0,1,,,,,,,,,,,,,,0,0,,,,
0,end_of_track,0,1,2,,,,,,,,,,,,,,,,,,,
0,end_of_track,0,1,0,,,,,,,,,,,,,,,,,,,
0,text,0,1,0,,,,,,,,,,,,,,,,,,,
0,smpte_offset,0,1,0,25,32,0,3,0,0,,,,,,,,,,,,,
0,midi_port,0,1,1,,,,,,,,,,,,,0,,,,,,
0,key_signature,0,1,0,,,,,,,,,,,C,,,,,,,,
0,set_tempo,0,1,0,,,,,,,,,,,,400000,,,,,,,
0,time_signature,0,1,0,,,,,,,6,8,12,8,,,,,,,,,
96,note_on,0,0,1,,,,,,,,,,,,,,,0,,,74,127
96,note_on,0,0,1,,,,,,,,,,,,,,,0,,,66,127
96,note_on,96,0,1,,,,,,,,,,,,,,,0,,,62,127
263,note_on,167,0,1,,,,,,,,,,,,,,,0,,,66,0
263,note_on,0,0,1,,,,,,,,,,,,,,,0,,,62,0
288,note_on,25,0,1,,,,,,,,,,,,,,,0,,,64,127
288,note_on,0,0,1,,,,,,,,,,,,,,,0,,,67,127
455,note_on,0,0,1,,,,,,,,,,,,,,,0,,,64,0
455,note_on,167,0,1,,,,,,,,,,,,,,,0,,,67,0
480,note_on,25,0,1,,,,,,,,,,,,,,,0,,,66,127
480,note_on,0,0,1,,,,,,,,,,,,,,,0,,,69,127
647,note_on,167,0,1,,,,,,,,,,,,,,,0,,,69,0
647,note_on,0,0,1,,,,,,,,,,,,,,,0,,,66,0
671,note_on,24,0,1,,,,,,,,,,,,,,,0,,,74,0
672,note_on,1,0,1,,,,,,,,,,,,,,,0,,,78,127
672,note_on,0,0,1,,,,,,,,,,,,,,,0,,,74,127
839,note_on,167,0,1,,,,,,,,,,,,,,,0,,,74,0
839,note_on,0,0,1,,,,,,,,,,,,,,,0,,,78,0
864,note_on,25,0,1,,,,,,,,,,,,,,,0,,,79,127
864,note_on,0,0,1,,,,,,,,,,,,,,,0,,,76,127
1031,note_on,167,0,1,,,,,,,,,,,,,,,0,,,76,0
1031,note_on,0,0,1,,,,,,,,,,,,,,,0,,,79,0
1056,note_on,25,0,1,,,,,,,,,,,,,,,0,,,78,127
1056,note_on,0,0,1,,,,,,,,,,,,,,,0,,,81,127
1223,note_on,167,0,1,,,,,,,,,,,,,,,0,,,81,0
1223,note_on,0,0,1,,,,,,,,,,,,,,,0,,,78,0
1248,note_on,0,0,1,,,,,,,,,,,,,,,0,,,66,127
1248,note_on,25,0,1,,,,,,,,,,,,,,,0,,,74,127
1248,note_on,0,0,1,,,,,,,,,,,,,,,0,,,62,127
1415,note_on,167,0,1,,,,,,,,,,,,,,,0,,,62,0
1415,note_on,0,0,1,,,,,,,,,,,,,,,0,,,66,0
1440,note_on,0,0,1,,,,,,,,,,,,,,,0,,,64,127
1440,note_on,25,0,1,,,,,,,,,,,,,,,0,,,67,127
1607,note_on,167,0,1,,,,,,,,,,,,,,,0,,,64,0
1607,note_on,0,0,1,,,,,,,,,,,,,,,0,,,67,0
1632,note_on,25,0,1,,,,,,,,,,,,,,,0,,,69,127
1632,note_on,0,0,1,,,,,,,,,,,,,,,0,,,66,127
1799,note_on,167,0,1,,,,,,,,,,,,,,,0,,,66,0
1799,note_on,0,0,1,,,,,,,,,,,,,,,0,,,69,0
1823,note_on,24,0,1,,,,,,,,,,,,,,,0,,,74,0
1824,note_on,1,0,1,,,,,,,,,,,,,,,0,,,78,127
1824,note_on,0,0,1,,,,,,,,,,,,,,,0,,,74,127
1991,note_on,167,0,1,,,,,,,,,,,,,,,0,,,74,0
1991,note_on,0,0,1,,,,,,,,,,,,,,,0,,,78,0
2016,note_on,25,0,1,,,,,,,,,,,,,,,0,,,79,127
2016,note_on,0,0,1,,,,,,,,,,,,,,,0,,,76,127
2183,note_on,0,0,1,,,,,,,,,,,,,,,0,,,79,0
2183,note_on,167,0,1,,,,,,,,,,,,,,,0,,,76,0
2208,note_on,25,0,1,,,,,,,,,,,,,,,0,,,81,127
2208,note_on,0,0,1,,,,,,,,,,,,,,,0,,,78,127
2375,note_on,0,0,1,,,,,,,,,,,,,,,0,,,81,0
2375,note_on,167,0,1,,,,,,,,,,,,,,,0,,,78,0
2400,note_on,25,0,1,,,,,,,,,,,,,,,0,,,67,127
2400,note_on,0,0,1,,,,,,,,,,,,,,,0,,,55,127
2400,note_on,0,0,1,,,,,,,,,,,,,,,0,,,71,127
2400,note_on,0,0,1,,,,,,,,,,,,,,,0,,,73,127
2495,note_on,95,0,1,,,,,,,,,,,,,,,0,,,73,0
2591,note_on,96,0,1,,,,,,,,,,,,,,,0,,,71,0
2591,note_on,0,0,1,,,,,,,,,,,,,,,0,,,67,0
2592,note_on,1,0,1,,,,,,,,,,,,,,,0,,,73,127
2592,note_on,0,0,1,,,,,,,,,,,,,,,0,,,66,127
2783,note_on,191,0,1,,,,,,,,,,,,,,,0,,,66,0
2783,note_on,0,0,1,,,,,,,,,,,,,,,0,,,73,0
2784,note_on,0,0,1,,,,,,,,,,,,,,,0,,,64,127
2784,note_on,1,0,1,,,,,,,,,,,,,,,0,,,74,127
2975,note_on,191,0,1,,,,,,,,,,,,,,,0,,,64,0
2975,note_on,0,0,1,,,,,,,,,,,,,,,0,,,74,0
2975,note_on,0,0,1,,,,,,,,,,,,,,,0,,,55,0
2976,note_on,0,0,1,,,,,,,,,,,,,,,0,,,57,127
2976,note_on,0,0,1,,,,,,,,,,,,,,,0,,,76,127
2976,note_on,0,0,1,,,,,,,,,,,,,,,0,,,67,127
2976,note_on,1,0,1,,,,,,,,,,,,,,,0,,,78,127
3071,note_on,95,0,1,,,,,,,,,,,,,,,0,,,78,0
3167,note_on,96,0,1,,,,,,,,,,,,,,,0,,,76,0
3167,note_on,0,0,1,,,,,,,,,,,,,,,0,,,67,0
3168,note_on,1,0,1,,,,,,,,,,,,,,,0,,,74,127
3168,note_on,0,0,1,,,,,,,,,,,,,,,0,,,66,127
3359,note_on,191,0,1,,,,,,,,,,,,,,,0,,,66,0
3359,note_on,0,0,1,,,,,,,,,,,,,,,0,,,74,0
3360,note_on,1,0,1,,,,,,,,,,,,,,,0,,,64,127
3360,note_on,0,0,1,,,,,,,,,,,,,,,0,,,73,127
3551,note_on,191,0,1,,,,,,,,,,,,,,,0,,,73,0
3551,note_on,0,0,1,,,,,,,,,,,,,,,0,,,64,0
3551,note_on,0,0,1,,,,,,,,,,,,,,,0,,,57,0
3552,note_on,1,0,1,,,,,,,,,,,,,,,0,,,74,127
3552,note_on,0,0,1,,,,,,,,,,,,,,,0,,,62,127
3743,note_on,191,0,1,,,,,,,,,,,,,,,0,,,74,0
3744,note_on,1,0,1,,,,,,,,,,,,,,,0,,,86,127
3935,note_on,191,0,1,,,,,,,,,,,,,,,0,,,86,0
3936,note_on,1,0,1,,,,,,,,,,,,,,,0,,,81,127
4127,note_on,191,0,1,,,,,,,,,,,,,,,0,,,81,0
4128,note_on,1,0,1,,,,,,,,,,,,,,,0,,,78,127
4319,note_on,191,0,1,,,,,,,,,,,,,,,0,,,78,0
4320,note_on,1,0,1,,,,,,,,,,,,,,,0,,,74,127
4511,note_on,191,0,1,,,,,,,,,,,,,,,0,,,74,0
4512,note_on,1,0,1,,,,,,,,,,,,,,,0,,,69,127
4703,note_on,191,0,1,,,,,,,,,,,,,,,0,,,69,0
4703,note_on,0,0,1,,,,,,,,,,,,,,,0,,,62,0
4704,note_on,1,0,1,,,,,,,,,,,,,,,0,,,74,127
4704,note_on,0,0,1,,,,,,,,,,,,,,,0,,,66,127
4704,note_on,0,0,1,,,,,,,,,,,,,,,0,,,62,127
4871,note_on,167,0,1,,,,,,,,,,,,,,,0,,,62,0
4871,note_on,0,0,1,,,,,,,,,,,,,,,0,,,66,0
4896,note_on,25,0,1,,,,,,,,,,,,,,,0,,,67,127
4896,note_on,0,0,1,,,,,,,,,,,,,,,0,,,64,127
5063,note_on,167,0,1,,,,,,,,,,,,,,,0,,,64,0
5063,note_on,0,0,1,,,,,,,,,,,,,,,0,,,67,0
5088,note_on,0,0,1,,,,,,,,,,,,,,,0,,,66,127
5088,note_on,25,0,1,,,,,,,,,,,,,,,0,,,69,127
5255,note_on,167,0,1,,,,,,,,,,,,,,,0,,,66,0
5255,note_on,0,0,1,,,,,,,,,,,,,,,0,,,69,0
5279,note_on,24,0,1,,,,,,,,,,,,,,,0,,,74,0
5280,note_on,0,0,1,,,,,,,,,,,,,,,0,,,74,127
5280,note_on,1,0,1,,,,,,,,,,,,,,,0,,,78,127
5447,note_on,167,0,1,,,,,,,,,,,,,,,0,,,74,0
5447,note_on,0,0,1,,,,,,,,,,,,,,,0,,,78,0
5472,note_on,25,0,1,,,,,,,,,,,,,,,0,,,79,127
5472,note_on,0,0,1,,,,,,,,,,,,,,,0,,,76,127
5639,note_on,167,0,1,,,,,,,,,,,,,,,0,,,76,0
5639,note_on,0,0,1,,,,,,,,,,,,,,,0,,,79,0
5664,note_on,25,0,1,,,,,,,,,,,,,,,0,,,81,127
5664,note_on,0,0,1,,,,,,,,,,,,,,,0,,,78,127
5831,note_on,167,0,1,,,,,,,,,,,,,,,0,,,78,0
5831,note_on,0,0,1,,,,,,,,,,,,,,,0,,,81,0
5856,note_on,25,0,1,,,,,,,,,,,,,,,0,,,74,127
5856,note_on,0,0,1,,,,,,,,,,,,,,,0,,,66,127
5856,note_on,0,0,1,,,,,,,,,,,,,,,0,,,62,127
6023,note_on,0,0,1,,,,,,,,,,,,,,,0,,,66,0
6023,note_on,167,0,1,,,,,,,,,,,,,,,0,,,62,0
6048,note_on,0,0,1,,,,,,,,,,,,,,,0,,,64,127
6048,note_on,25,0,1,,,,,,,,,,,,,,,0,,,67,127
6215,note_on,0,0,1,,,,,,,,,,,,,,,0,,,67,0
6215,note_on,167,0,1,,,,,,,,,,,,,,,0,,,64,0
6240,note_on,25,0,1,,,,,,,,,,,,,,,0,,,69,127
6240,note_on,0,0,1,,,,,,,,,,,,,,,0,,,66,127
6407,note_on,167,0,1,,,,,,,,,,,,,,,0,,,66,0
6407,note_on,0,0,1,,,,,,,,,,,,,,,0,,,69,0
6431,note_on,24,0,1,,,,,,,,,,,,,,,0,,,74,0
6432,note_on,0,0,1,,,,,,,,,,,,,,,0,,,74,127
6432,note_on,1,0,1,,,,,,,,,,,,,,,0,,,78,127
6599,note_on,167,0,1,,,,,,,,,,,,,,,0,,,74,0
6599,note_on,0,0,1,,,,,,,,,,,,,,,0,,,78,0
6624,note_on,25,0,1,,,,,,,,,,,,,,,0,,,79,127
6624,note_on,0,0,1,,,,,,,,,,,,,,,0,,,76,127
6791,note_on,167,0,1,,,,,,,,,,,,,,,0,,,76,0
6791,note_on,0,0,1,,,,,,,,,,,,,,,0,,,79,0
6816,note_on,25,0,1,,,,,,,,,,,,,,,0,,,81,127
6816,note_on,0,0,1,,,,,,,,,,,,,,,0,,,78,127
6983,note_on,0,0,1,,,,,,,,,,,,,,,0,,,81,0
6983,note_on,167,0,1,,,,,,,,,,,,,,,0,,,78,0
7008,note_on,0,0,1,,,,,,,,,,,,,,,0,,,71,127
7008,note_on,0,0,1,,,,,,,,,,,,,,,0,,,67,127
7008,note_on,0,0,1,,,,,,,,,,,,,,,0,,,55,127
7008,note_on,25,0,1,,,,,,,,,,,,,,,0,,,73,127
7103,note_on,95,0,1,,,,,,,,,,,,,,,0,,,73,0
7199,note_on,96,0,1,,,,,,,,,,,,,,,0,,,71,0
7199,note_on,0,0,1,,,,,,,,,,,,,,,0,,,67,0
7200,note_on,1,0,1,,,,,,,,,,,,,,,0,,,73,127
7200,note_on,0,0,1,,,,,,,,,,,,,,,0,,,66,127
7391,note_on,191,0,1,,,,,,,,,,,,,,,0,,,66,0
7391,note_on,0,0,1,,,,,,,,,,,,,,,0,,,73,0
7392,note_on,0,0,1,,,,,,,,,,,,,,,0,,,64,127
7392,note_on,1,0,1,,,,,,,,,,,,,,,0,,,74,127
7583,note_on,191,0,1,,,,,,,,,,,,,,,0,,,64,0
7583,note_on,0,0,1,,,,,,,,,,,,,,,0,,,74,0
7583,note_on,0,0,1,,,,,,,,,,,,,,,0,,,55,0
7584,note_on,0,0,1,,,,,,,,,,,,,,,0,,,57,127
7584,note_on,0,0,1,,,,,,,,,,,,,,,0,,,76,127
7584,note_on,1,0,1,,,,,,,,,,,,,,,0,,,78,127
7584,note_on,0,0,1,,,,,,,,,,,,,,,0,,,67,127
7679,note_on,95,0,1,,,,,,,,,,,,,,,0,,,78,0
7775,note_on,96,0,1,,,,,,,,,,,,,,,0,,,76,0
7775,note_on,0,0,1,,,,,,,,,,,,,,,0,,,67,0
7776,note_on,1,0,1,,,,,,,,,,,,,,,0,,,74,127
7776,note_on,0,0,1,,,,,,,,,,,,,,,0,,,66,127
7967,note_on,0,0,1,,,,,,,,,,,,,,,0,,,74,0
7967,note_on,191,0,1,,,,,,,,,,,,,,,0,,,66,0
7968,note_on,0,0,1,,,,,,,,,,,,,,,0,,,64,127
7968,note_on,1,0,1,,,,,,,,,,,,,,,0,,,73,127
8159,note_on,191,0,1,,,,,,,,,,,,,,,0,,,64,0
8159,note_on,0,0,1,,,,,,,,,,,,,,,0,,,73,0
8159,note_on,0,0,1,,,,,,,,,,,,,,,0,,,57,0
8160,note_on,1,0,1,,,,,,,,,,,,,,,0,,,74,127
8160,note_on,0,0,1,,,,,,,,,,,,,,,0,,,62,127
8351,note_on,191,0,1,,,,,,,,,,,,,,,0,,,74,0
8352,note_on,1,0,1,,,,,,,,,,,,,,,0,,,86,127
8543,note_on,191,0,1,,,,,,,,,,,,,,,0,,,86,0
8544,note_on,1,0,1,,,,,,,,,,,,,,,0,,,81,127
8735,note_on,191,0,1,,,,,,,,,,,,,,,0,,,81,0
8736,note_on,1,0,1,,,,,,,,,,,,,,,0,,,78,127
8927,note_on,191,0,1,,,,,,,,,,,,,,,0,,,78,0
8928,note_on,1,0,1,,,,,,,,,,,,,,,0,,,74,127
9119,note_on,191,0,1,,,,,,,,,,,,,,,0,,,74,0
9120,note_on,1,0,1,,,,,,,,,,,,,,,0,,,69,127
9311,note_on,0,0,1,,,,,,,,,,,,,,,0,,,62,0
9311,note_on,191,0,1,,,,,,,,,,,,,,,0,,,69,0
9312,note_on,0,0,1,,,,,,,,,,,,,,,0,,,74,127
9312,note_on,0,0,1,,,,,,,,,,,,,,,0,,,78,127
9312,note_on,1,0,1,,,,,,,,,,,,,,,0,,,62,127
9503,note_on,191,0,1,,,,,,,,,,,,,,,0,,,62,0
9504,note_on,1,0,1,,,,,,,,,,,,,,,0,,,64,127
9695,note_on,191,0,1,,,,,,,,,,,,,,,0,,,64,0
9695,note_on,0,0,1,,,,,,,,,,,,,,,0,,,78,0
9695,note_on,0,0,1,,,,,,,,,,,,,,,0,,,74,0
9696,note_on,1,0,1,,,,,,,,,,,,,,,0,,,76,127
9696,note_on,0,0,1,,,,,,,,,,,,,,,0,,,73,127
9696,note_on,0,0,1,,,,,,,,,,,,,,,0,,,66,127
9887,note_on,191,0,1,,,,,,,,,,,,,,,0,,,66,0
9887,note_on,0,0,1,,,,,,,,,,,,,,,0,,,73,0
9887,note_on,0,0,1,,,,,,,,,,,,,,,0,,,76,0
9888,note_on,0,0,1,,,,,,,,,,,,,,,0,,,67,127
9888,note_on,0,0,1,,,,,,,,,,,,,,,0,,,76,127
9888,note_on,1,0,1,,,,,,,,,,,,,,,0,,,74,127
9888,note_on,0,0,1,,,,,,,,,,,,,,,0,,,73,127
9888,note_on,0,0,1,,,,,,,,,,,,,,,0,,,71,127
9935,note_on,0,0,1,,,,,,,,,,,,,,,0,,,73,0
9935,note_on,47,0,1,,,,,,,,,,,,,,,0,,,76,0
10079,note_on,144,0,1,,,,,,,,,,,,,,,0,,,74,0
10079,note_on,0,0,1,,,,,,,,,,,,,,,0,,,71,0
10080,note_on,0,0,1,,,,,,,,,,,,,,,0,,,70,127
10080,note_on,1,0,1,,,,,,,,,,,,,,,0,,,73,127
10271,note_on,191,0,1,,,,,,,,,,,,,,,0,,,70,0
10271,note_on,0,0,1,,,,,,,,,,,,,,,0,,,73,0
10272,note_on,1,0,1,,,,,,,,,,,,,,,0,,,74,127
10272,note_on,0,0,1,,,,,,,,,,,,,,,0,,,71,127
10463,note_on,0,0,1,,,,,,,,,,,,,,,0,,,74,0
10463,note_on,0,0,1,,,,,,,,,,,,,,,0,,,67,0
10463,note_on,191,0,1,,,,,,,,,,,,,,,0,,,71,0
10464,note_on,1,0,1,,,,,,,,,,,,,,,0,,,76,127
10464,note_on,0,0,1,,,,,,,,,,,,,,,0,,,73,127
10464,note_on,0,0,1,,,,,,,,,,,,,,,0,,,61,127
10655,note_on,191,0,1,,,,,,,,,,,,,,,0,,,61,0
10656,note_on,1,0,1,,,,,,,,,,,,,,,0,,,62,127
10847,note_on,0,0,1,,,,,,,,,,,,,,,0,,,76,0
10847,note_on,0,0,1,,,,,,,,,,,,,,,0,,,73,0
10847,note_on,191,0,1,,,,,,,,,,,,,,,0,,,62,0
10848,note_on,1,0,1,,,,,,,,,,,,,,,0,,,64,127
10848,note_on,0,0,1,,,,,,,,,,,,,,,0,,,74,127
10848,note_on,0,0,1,,,,,,,,,,,,,,,0,,,71,127
11039,note_on,191,0,1,,,,,,,,,,,,,,,0,,,71,0
11039,note_on,0,0,1,,,,,,,,,,,,,,,0,,,74,0
11039,note_on,0,0,1,,,,,,,,,,,,,,,0,,,64,0
11040,note_on,1,0,1,,,,,,,,,,,,,,,0,,,66,127
11040,note_on,0,0,1,,,,,,,,,,,,,,,0,,,74,127
11040,note_on,0,0,1,,,,,,,,,,,,,,,0,,,71,127
11040,note_on,0,0,1,,,,,,,,,,,,,,,0,,,73,127
11040,note_on,0,0,1,,,,,,,,,,,,,,,0,,,70,127
11087,note_on,47,0,1,,,,,,,,,,,,,,,0,,,71,0
11087,note_on,0,0,1,,,,,,,,,,,,,,,0,,,74,0
11231,note_on,0,0,1,,,,,,,,,,,,,,,0,,,73,0
11231,note_on,144,0,1,,,,,,,,,,,,,,,0,,,70,0
11232,note_on,0,0,1,,,,,,,,,,,,,,,0,,,71,127
11232,note_on,1,0,1,,,,,,,,,,,,,,,0,,,68,127
11423,note_on,191,0,1,,,,,,,,,,,,,,,0,,,71,0
11423,note_on,0,0,1,,,,,,,,,,,,,,,0,,,68,0
11424,note_on,1,0,1,,,,,,,,,,,,,,,0,,,70,127
11424,note_on,0,0,1,,,,,,,,,,,,,,,0,,,73,127
11615,note_on,0,0,1,,,,,,,,,,,,,,,0,,,70,0
11615,note_on,0,0,1,,,,,,,,,,,,,,,0,,,66,0
11615,note_on,191,0,1,,,,,,,,,,,,,,,0,,,73,0
11616,note_on,1,0,1,,,,,,,,,,,,,,,0,,,78,127
11616,note_on,0,0,1,,,,,,,,,,,,,,,0,,,74,127
11616,note_on,0,0,1,,,,,,,,,,,,,,,0,,,62,127
11807,note_on,191,0,1,,,,,,,,,,,,,,,0,,,62,0
11808,note_on,1,0,1,,,,,,,,,,,,,,,0,,,64,127
11999,note_on,191,0,1,,,,,,,,,,,,,,,0,,,64,0
11999,note_on,0,0,1,,,,,,,,,,,,,,,0,,,74,0
11999,note_on,0,0,1,,,,,,,,,,,,,,,0,,,78,0
12000,note_on,1,0,1,,,,,,,,,,,,,,,0,,,76,127
12000,note_on,0,0,1,,,,,,,,,,,,,,,0,,,73,127
12000,note_on,0,0,1,,,,,,,,,,,,,,,0,,,66,127
12191,note_on,0,0,1,,,,,,,,,,,,,,,0,,,73,0
12191,note_on,191,0,1,,,,,,,,,,,,,,,0,,,66,0
12191,note_on,0,0,1,,,,,,,,,,,,,,,0,,,76,0
12192,note_on,0,0,1,,,,,,,,,,,,,,,0,,,67,127
12192,note_on,1,0,1,,,,,,,,,,,,,,,0,,,76,127
12192,note_on,0,0,1,,,,,,,,,,,,,,,0,,,73,127
12192,note_on,0,0,1,,,,,,,,,,,,,,,0,,,74,127
12192,note_on,0,0,1,,,,,,,,,,,,,,,0,,,71,127
12239,note_on,47,0,1,,,,,,,,,,,,,,,0,,,73,0
12239,note_on,0,0,1,,,,,,,,,,,,,,,0,,,76,0
12383,note_on,144,0,1,,,,,,,,,,,,,,,0,,,74,0
12383,note_on,0,0,1,,,,,,,,,,,,,,,0,,,71,0
12384,note_on,1,0,1,,,,,,,,,,,,,,,0,,,73,127
12384,note_on,0,0,1,,,,,,,,,,,,,,,0,,,70,127
12575,note_on,191,0,1,,,,,,,,,,,,,,,0,,,70,0
12575,note_on,0,0,1,,,,,,,,,,,,,,,0,,,73,0
12576,note_on,1,0,1,,,,,,,,,,,,,,,0,,,74,127
12576,note_on,0,0,1,,,,,,,,,,,,,,,0,,,71,127
12767,note_on,0,0,1,,,,,,,,,,,,,,,0,,,67,0
12767,note_on,191,0,1,,,,,,,,,,,,,,,0,,,71,0
12767,note_on,0,0,1,,,,,,,,,,,,,,,0,,,74,0
12768,note_on,1,0,1,,,,,,,,,,,,,,,0,,,76,127
12768,note_on,0,0,1,,,,,,,,,,,,,,,0,,,61,127
12768,note_on,0,0,1,,,,,,,,,,,,,,,0,,,73,127
12959,note_on,191,0,1,,,,,,,,,,,,,,,0,,,61,0
12960,note_on,1,0,1,,,,,,,,,,,,,,,0,,,62,127
13151,note_on,0,0,1,,,,,,,,,,,,,,,0,,,73,0
13151,note_on,0,0,1,,,,,,,,,,,,,,,0,,,76,0
13151,note_on,191,0,1,,,,,,,,,,,,,,,0,,,62,0
13152,note_on,1,0,1,,,,,,,,,,,,,,,0,,,74,127
13152,note_on,0,0,1,,,,,,,,,,,,,,,0,,,71,127
13152,note_on,0,0,1,,,,,,,,,,,,,,,0,,,64,127
13343,note_on,0,0,1,,,,,,,,,,,,,,,0,,,71,0
13343,note_on,0,0,1,,,,,,,,,,,,,,,0,,,74,0
13343,note_on,191,0,1,,,,,,,,,,,,,,,0,,,64,0
13344,note_on,1,0,1,,,,,,,,,,,,,,,0,,,74,127
13344,note_on,0,0,1,,,,,,,,,,,,,,,0,,,73,127
13344,note_on,0,0,1,,,,,,,,,,,,,,,0,,,71,127
13344,note_on,0,0,1,,,,,,,,,,,,,,,0,,,70,127
13344,note_on,0,0,1,,,,,,,,,,,,,,,0,,,66,127
13391,note_on,0,0,1,,,,,,,,,,,,,,,0,,,74,0
13391,note_on,47,0,1,,,,,,,,,,,,,,,0,,,71,0
13535,note_on,144,0,1,,,,,,,,,,,,,,,0,,,73,0
13535,note_on,0,0,1,,,,,,,,,,,,,,,0,,,70,0
13536,note_on,1,0,1,,,,,,,,,,,,,,,0,,,71,127
13536,note_on,0,0,1,,,,,,,,,,,,,,,0,,,68,127
13727,note_on,191,0,1,,,,,,,,,,,,,,,0,,,68,0
13727,note_on,0,0,1,,,,,,,,,,,,,,,0,,,71,0
13728,note_on,1,0,1,,,,,,,,,,,,,,,0,,,73,127
13728,note_on,0,0,1,,,,,,,,,,,,,,,0,,,70,127
13919,note_on,191,0,1,,,,,,,,,,,,,,,0,,,70,0
13919,note_on,0,0,1,,,,,,,,,,,,,,,0,,,66,0
13919,note_on,0,0,1,,,,,,,,,,,,,,,0,,,73,0
13920,note_on,1,0,1,,,,,,,,,,,,,,,0,,,74,127
13920,note_on,0,0,1,,,,,,,,,,,,,,,0,,,71,127
13920,note_on,0,0,1,,,,,,,,,,,,,,,0,,,59,127
14111,note_on,191,0,1,,,,,,,,,,,,,,,0,,,59,0
14112,note_on,1,0,1,,,,,,,,,,,,,,,0,,,61,127
14303,note_on,0,0,1,,,,,,,,,,,,,,,0,,,74,0
14303,note_on,191,0,1,,,,,,,,,,,,,,,0,,,61,0
14303,note_on,0,0,1,,,,,,,,,,,,,,,0,,,71,0
14304,note_on,1,0,1,,,,,,,,,,,,,,,0,,,73,127
14304,note_on,0,0,1,,,,,,,,,,,,,,,0,,,69,127
14304,note_on,0,0,1,,,,,,,,,,,,,,,0,,,62,127
14495,note_on,191,0,1,,,,,,,,,,,,,,,0,,,69,0
14495,note_on,0,0,1,,,,,,,,,,,,,,,0,,,73,0
14495,note_on,0,0,1,,,,,,,,,,,,,,,0,,,62,0
14496,note_on,0,0,1,,,,,,,,,,,,,,,0,,,71,127
14496,note_on,1,0,1,,,,,,,,,,,,,,,0,,,64,127
14496,note_on,0,0,1,,,,,,,,,,,,,,,0,,,68,127
14496,note_on,0,0,1,,,,,,,,,,,,,,,0,,,69,127
14496,note_on,0,0,1,,,,,,,,,,,,,,,0,,,73,127
14543,note_on,0,0,1,,,,,,,,,,,,,,,0,,,73,0
14543,note_on,47,0,1,,,,,,,,,,,,,,,0,,,69,0
14687,note_on,144,0,1,,,,,,,,,,,,,,,0,,,71,0
14687,note_on,0,0,1,,,,,,,,,,,,,,,0,,,68,0
14688,note_on,0,0,1,,,,,,,,,,,,,,,0,,,66,127
14688,note_on,1,0,1,,,,,,,,,,,,,,,0,,,69,127
14879,note_on,191,0,1,,,,,,,,,,,,,,,0,,,66,0
14879,note_on,0,0,1,,,,,,,,,,,,,,,0,,,69,0
14880,note_on,1,0,1,,,,,,,,,,,,,,,0,,,68,127
14880,note_on,0,0,1,,,,,,,,,,,,,,,0,,,71,127
15071,note_on,0,0,1,,,,,,,,,,,,,,,0,,,68,0
15071,note_on,0,0,1,,,,,,,,,,,,,,,0,,,64,0
15071,note_on,191,0,1,,,,,,,,,,,,,,,0,,,71,0
15072,note_on,1,0,1,,,,,,,,,,,,,,,0,,,76,127
15072,note_on,0,0,1,,,,,,,,,,,,,,,0,,,73,127
15072,note_on,0,0,1,,,,,,,,,,,,,,,0,,,61,127
15263,note_on,191,0,1,,,,,,,,,,,,,,,0,,,61,0
15264,note_on,1,0,1,,,,,,,,,,,,,,,0,,,62,127
15455,note_on,0,0,1,,,,,,,,,,,,,,,0,,,76,0
15455,note_on,0,0,1,,,,,,,,,,,,,,,0,,,73,0
15455,note_on,191,0,1,,,,,,,,,,,,,,,0,,,62,0
15456,note_on,1,0,1,,,,,,,,,,,,,,,0,,,71,127
15456,note_on,0,0,1,,,,,,,,,,,,,,,0,,,64,127
15456,note_on,0,0,1,,,,,,,,,,,,,,,0,,,74,127
15647,note_on,191,0,1,,,,,,,,,,,,,,,0,,,74,0
15647,note_on,0,0,1,,,,,,,,,,,,,,,0,,,64,0
15647,note_on,0,0,1,,,,,,,,,,,,,,,0,,,71,0
15648,note_on,1,0,1,,,,,,,,,,,,,,,0,,,66,127
15648,note_on,0,0,1,,,,,,,,,,,,,,,0,,,74,127
15648,note_on,0,0,1,,,,,,,,,,,,,,,0,,,69,127
15648,note_on,0,0,1,,,,,,,,,,,,,,,0,,,73,127
15648,note_on,0,0,1,,,,,,,,,,,,,,,0,,,71,127
15695,note_on,47,0,1,,,,,,,,,,,,,,,0,,,71,0
15695,note_on,0,0,1,,,,,,,,,,,,,,,0,,,74,0
15839,note_on,0,0,1,,,,,,,,,,,,,,,0,,,69,0
15839,note_on,144,0,1,,,,,,,,,,,,,,,0,,,73,0
15840,note_on,1,0,1,,,,,,,,,,,,,,,0,,,71,127
15840,note_on,0,0,1,,,,,,,,,,,,,,,0,,,68,127
16031,note_on,0,0,1,,,,,,,,,,,,,,,0,,,71,0
16031,note_on,191,0,1,,,,,,,,,,,,,,,0,,,68,0
16032,note_on,1,0,1,,,,,,,,,,,,,,,0,,,73,127
16032,note_on,0,0,1,,,,,,,,,,,,,,,0,,,69,127
16223,note_on,0,0,1,,,,,,,,,,,,,,,0,,,73,0
16223,note_on,0,0,1,,,,,,,,,,,,,,,0,,,66,0
16223,note_on,191,0,1,,,,,,,,,,,,,,,0,,,69,0
16224,note_on,1,0,1,,,,,,,,,,,,,,,0,,,71,127
16224,note_on,0,0,1,,,,,,,,,,,,,,,0,,,74,127
16224,note_on,0,0,1,,,,,,,,,,,,,,,0,,,59,127
16415,note_on,191,0,1,,,,,,,,,,,,,,,0,,,59,0
16416,note_on,1,0,1,,,,,,,,,,,,,,,0,,,61,127
16607,note_on,191,0,1,,,,,,,,,,,,,,,0,,,61,0
16607,note_on,0,0,1,,,,,,,,,,,,,,,0,,,74,0
16607,note_on,0,0,1,,,,,,,,,,,,,,,0,,,71,0
16608,note_on,1,0,1,,,,,,,,,,,,,,,0,,,69,127
16608,note_on,0,0,1,,,,,,,,,,,,,,,0,,,73,127
16608,note_on,0,0,1,,,,,,,,,,,,,,,0,,,62,127
16799,note_on,0,0,1,,,,,,,,,,,,,,,0,,,73,0
16799,note_on,191,0,1,,,,,,,,,,,,,,,0,,,62,0
16799,note_on,0,0,1,,,,,,,,,,,,,,,0,,,69,0
16800,note_on,0,0,1,,,,,,,,,,,,,,,0,,,73,127
16800,note_on,1,0,1,,,,,,,,,,,,,,,0,,,64,127
16800,note_on,0,0,1,,,,,,,,,,,,,,,0,,,71,127
16800,note_on,0,0,1,,,,,,,,,,,,,,,0,,,68,127
16800,note_on,0,0,1,,,,,,,,,,,,,,,0,,,69,127
16847,note_on,47,0,1,,,,,,,,,,,,,,,0,,,73,0
16847,note_on,0,0,1,,,,,,,,,,,,,,,0,,,69,0
16991,note_on,144,0,1,,,,,,,,,,,,,,,0,,,71,0
16991,note_on,0,0,1,,,,,,,,,,,,,,,0,,,68,0
16992,note_on,1,0,1,,,,,,,,,,,,,,,0,,,66,127
16992,note_on,0,0,1,,,,,,,,,,,,,,,0,,,69,127
17183,note_on,191,0,1,,,,,,,,,,,,,,,0,,,69,0
17183,note_on,0,0,1,,,,,,,,,,,,,,,0,,,66,0
17184,note_on,1,0,1,,,,,,,,,,,,,,,0,,,71,127
17184,note_on,0,0,1,,,,,,,,,,,,,,,0,,,68,127
17375,note_on,0,0,1,,,,,,,,,,,,,,,0,,,71,0
17375,note_on,191,0,1,,,,,,,,,,,,,,,0,,,68,0
17375,note_on,0,0,1,,,,,,,,,,,,,,,0,,,64,0
17376,note_on,0,0,1,,,,,,,,,,,,,,,0,,,73,127
17376,note_on,1,0,1,,,,,,,,,,,,,,,0,,,71,127
17376,note_on,0,0,1,,,,,,,,,,,,,,,0,,,69,127
17376,note_on,0,0,1,,,,,,,,,,,,,,,0,,,74,127
17376,note_on,0,0,1,,,,,,,,,,,,,,,0,,,57,127
17423,note_on,0,0,1,,,,,,,,,,,,,,,0,,,71,0
17423,note_on,47,0,1,,,,,,,,,,,,,,,0,,,74,0
17567,note_on,144,0,1,,,,,,,,,,,,,,,0,,,73,0
17567,note_on,0,0,1,,,,,,,,,,,,,,,0,,,69,0
17568,note_on,1,0,1,,,,,,,,,,,,,,,0,,,68,127
17568,note_on,0,0,1,,,,,,,,,,,,,,,0,,,71,127
17759,note_on,191,0,1,,,,,,,,,,,,,,,0,,,71,0
17759,note_on,0,0,1,,,,,,,,,,,,,,,0,,,68,0
17760,note_on,1,0,1,,,,,,,,,,,,,,,0,,,69,127
17760,note_on,0,0,1,,,,,,,,,,,,,,,0,,,73,127
17951,note_on,191,0,1,,,,,,,,,,,,,,,0,,,73,0
17951,note_on,0,0,1,,,,,,,,,,,,,,,0,,,69,0
17951,note_on,0,0,1,,,,,,,,,,,,,,,0,,,57,0
17952,note_on,1,0,1,,,,,,,,,,,,,,,0,,,71,127
17952,note_on,0,0,1,,,,,,,,,,,,,,,0,,,74,127
17952,note_on,0,0,1,,,,,,,,,,,,,,,0,,,56,127
18143,note_on,0,0,1,,,,,,,,,,,,,,,0,,,71,0
18143,note_on,191,0,1,,,,,,,,,,,,,,,0,,,74,0
18144,note_on,0,0,1,,,,,,,,,,,,,,,0,,,73,127
18144,note_on,1,0,1,,,,,,,,,,,,,,,0,,,69,127
18335,note_on,191,0,1,,,,,,,,,,,,,,,0,,,73,0
18335,note_on,0,0,1,,,,,,,,,,,,,,,0,,,69,0
18336,note_on,1,0,1,,,,,,,,,,,,,,,0,,,71,127
18336,note_on,0,0,1,,,,,,,,,,,,,,,0,,,74,127
18527,note_on,191,0,1,,,,,,,,,,,,,,,0,,,74,0
18527,note_on,0,0,1,,,,,,,,,,,,,,,0,,,71,0
18527,note_on,0,0,1,,,,,,,,,,,,,,,0,,,56,0
18528,note_on,0,0,1,,,,,,,,,,,,,,,0,,,73,127
18528,note_on,0,0,1,,,,,,,,,,,,,,,0,,,69,127
18528,note_on,1,0,1,,,,,,,,,,,,,,,0,,,57,127
18719,note_on,191,0,1,,,,,,,,,,,,,,,0,,,73,0
18720,note_on,1,0,1,,,,,,,,,,,,,,,0,,,74,127
18911,note_on,191,0,1,,,,,,,,,,,,,,,0,,,74,0
18912,note_on,1,0,1,,,,,,,,,,,,,,,0,,,76,127
19103,note_on,0,0,1,,,,,,,,,,,,,,,0,,,57,0
19103,note_on,191,0,1,,,,,,,,,,,,,,,0,,,76,0
19103,note_on,0,0,1,,,,,,,,,,,,,,,0,,,69,0
19104,note_on,1,0,1,,,,,,,,,,,,,,,0,,,74,127
19104,note_on,0,0,1,,,,,,,,,,,,,,,0,,,73,127
19104,note_on,0,0,1,,,,,,,,,,,,,,,0,,,45,127
19199,note_on,95,0,1,,,,,,,,,,,,,,,0,,,74,0
19295,note_on,96,0,1,,,,,,,,,,,,,,,0,,,73,0
19296,note_on,1,0,1,,,,,,,,,,,,,,,0,,,71,127
19487,note_on,191,0,1,,,,,,,,,,,,,,,0,,,71,0
19488,note_on,1,0,1,,,,,,,,,,,,,,,0,,,69,127
19679,note_on,191,0,1,,,,,,,,,,,,,,,0,,,69,0
19679,note_on,0,0,1,,,,,,,,,,,,,,,0,,,45,0
19680,note_on,1,0,1,,,,,,,,,,,,,,,0,,,68,127
19680,note_on,0,0,1,,,,,,,,,,,,,,,0,,,71,127
19752,note_on,72,0,1,,,,,,,,,,,,,,,0,,,52,127
19823,note_on,71,0,1,,,,,,,,,,,,,,,0,,,52,0
19824,note_on,1,0,1,,,,,,,,,,,,,,,0,,,54,127
19895,note_on,71,0,1,,,,,,,,,,,,,,,0,,,54,0
19896,note_on,1,0,1,,,,,,,,,,,,,,,0,,,56,127
19967,note_on,71,0,1,,,,,,,,,,,,,,,0,,,56,0
19968,note_on,1,0,1,,,,,,,,,,,,,,,0,,,57,127
20039,note_on,71,0,1,,,,,,,,,,,,,,,0,,,57,0
20040,note_on,1,0,1,,,,,,,,,,,,,,,0,,,59,127
20111,note_on,71,0,1,,,,,,,,,,,,,,,0,,,59,0
20112,note_on,1,0,1,,,,,,,,,,,,,,,0,,,61,127
20183,note_on,71,0,1,,,,,,,,,,,,,,,0,,,61,0
20184,note_on,1,0,1,,,,,,,,,,,,,,,0,,,62,127
20255,note_on,71,0,1,,,,,,,,,,,,,,,0,,,62,0
20256,note_on,1,0,1,,,,,,,,,,,,,,,0,,,64,127
20447,note_on,191,0,1,,,,,,,,,,,,,,,0,,,71,0
20447,note_on,0,0,1,,,,,,,,,,,,,,,0,,,68,0
20448,note_on,1,0,1,,,,,,,,,,,,,,,0,,,76,127
20639,note_on,191,0,1,,,,,,,,,,,,,,,0,,,76,0
20640,note_on,1,0,1,,,,,,,,,,,,,,,0,,,74,127
20831,note_on,191,0,1,,,,,,,,,,,,,,,0,,,74,0
20831,note_on,0,0,1,,,,,,,,,,,,,,,0,,,64,0
20832,note_on,0,0,1,,,,,,,,,,,,,,,0,,,74,127
20832,note_on,0,0,1,,,,,,,,,,,,,,,0,,,73,127
20832,note_on,0,0,1,,,,,,,,,,,,,,,0,,,71,127
20832,note_on,1,0,1,,,,,,,,,,,,,,,0,,,57,127
20832,note_on,0,0,1,,,,,,,,,,,,,,,0,,,69,127
20832,note_on,0,0,1,,,,,,,,,,,,,,,0,,,45,127
20879,note_on,0,0,1,,,,,,,,,,,,,,,0,,,71,0
20879,note_on,47,0,1,,,,,,,,,,,,,,,0,,,74,0
21023,note_on,144,0,1,,,,,,,,,,,,,,,0,,,69,0
21023,note_on,0,0,1,,,,,,,,,,,,,,,0,,,73,0
21024,note_on,0,0,1,,,,,,,,,,,,,,,0,,,71,127
21024,note_on,1,0,1,,,,,,,,,,,,,,,0,,,68,127
21215,note_on,0,0,1,,,,,,,,,,,,,,,0,,,68,0
21215,note_on,191,0,1,,,,,,,,,,,,,,,0,,,71,0
21216,note_on,1,0,1,,,,,,,,,,,,,,,0,,,69,127
21216,note_on,0,0,1,,,,,,,,,,,,,,,0,,,73,127
21407,note_on,191,0,1,,,,,,,,,,,,,,,0,,,73,0
21407,note_on,0,0,1,,,,,,,,,,,,,,,0,,,57,0
21407,note_on,0,0,1,,,,,,,,,,,,,,,0,,,45,0
21407,note_on,0,0,1,,,,,,,,,,,,,,,0,,,69,0
21408,note_on,1,0,1,,,,,,,,,,,,,,,0,,,50,127
21408,note_on,0,0,1,,,,,,,,,,,,,,,0,,,38,127
21408,note_on,0,0,1,,,,,,,,,,,,,,,0,,,74,127
21408,note_on,0,0,1,,,,,,,,,,,,,,,0,,,71,127
21599,note_on,191,0,1,,,,,,,,,,,,,,,0,,,71,0
21599,note_on,0,0,1,,,,,,,,,,,,,,,0,,,74,0
21600,note_on,1,0,1,,,,,,,,,,,,,,,0,,,69,127
21600,note_on,0,0,1,,,,,,,,,,,,,,,0,,,73,127
21791,note_on,0,0,1,,,,,,,,,,,,,,,0,,,69,0
21791,note_on,191,0,1,,,,,,,,,,,,,,,0,,,73,0
21791,note_on,0,0,1,,,,,,,,,,,,,,,0,,,38,0
21791,note_on,0,0,1,,,,,,,,,,,,,,,0,,,50,0
21792,note_on,0,0,1,,,,,,,,,,,,,,,0,,,68,127
21792,note_on,0,0,1,,,,,,,,,,,,,,,0,,,71,127
21792,note_on,1,0,1,,,,,,,,,,,,,,,0,,,40,127
21792,note_on,0,0,1,,,,,,,,,,,,,,,0,,,52,127
21983,note_on,191,0,1,,,,,,,,,,,,,,,0,,,71,0
21983,note_on,0,0,1,,,,,,,,,,,,,,,0,,,40,0
21983,note_on,0,0,1,,,,,,,,,,,,,,,0,,,52,0
21983,note_on,0,0,1,,,,,,,,,,,,,,,0,,,68,0
21984,note_on,1,0,1,,,,,,,,,,,,,,,0,,,57,127
21984,note_on,0,0,1,,,,,,,,,,,,,,,0,,,69,127
21984,note_on,0,0,1,,,,,,,,,,,,,,,0,,,45,127
22175,note_on,191,0,1,,,,,,,,,,,,,,,0,,,69,0
22176,note_on,1,0,1,,,,,,,,,,,,,,,0,,,72,127
22367,note_on,191,0,1,,,,,,,,,,,,,,,0,,,72,0
22367,note_on,0,0,1,,,,,,,,,,,,,,,0,,,45,0
22368,note_on,1,0,1,,,,,,,,,,,,,,,0,,,72,127
22559,note_on,0,0,1,,,,,,,,,,,,,,,0,,,57,0
22559,note_on,191,0,1,,,,,,,,,,,,,,,0,,,72,0
22560,note_on,0,0,1,,,,,,,,,,,,,,,0,,,72,127
22560,note_on,1,0,1,,,,,,,,,,,,,,,0,,,65,127
22560,note_on,0,0,1,,,,,,,,,,,,,,,0,,,62,127
22560,note_on,0,0,1,,,,,,,,,,,,,,,0,,,74,127
22560,note_on,0,0,1,,,,,,,,,,,,,,,0,,,57,127
22655,note_on,95,0,1,,,,,,,,,,,,,,,0,,,74,0
22751,note_on,96,0,1,,,,,,,,,,,,,,,0,,,72,0
22752,note_on,1,0,1,,,,,,,,,,,,,,,0,,,71,127
22943,note_on,191,0,1,,,,,,,,,,,,,,,0,,,71,0
22944,note_on,1,0,1,,,,,,,,,,,,,,,0,,,71,127
23135,note_on,191,0,1,,,,,,,,,,,,,,,0,,,71,0
23135,note_on,0,0,1,,,,,,,,,,,,,,,0,,,65,0
23135,note_on,0,0,1,,,,,,,,,,,,,,,0,,,57,0
23135,note_on,0,0,1,,,,,,,,,,,,,,,0,,,62,0
23136,note_on,0,0,1,,,,,,,,,,,,,,,0,,,71,127
23136,note_on,0,0,1,,,,,,,,,,,,,,,0,,,57,127
23136,note_on,0,0,1,,,,,,,,,,,,,,,0,,,72,127
23136,note_on,1,0,1,,,,,,,,,,,,,,,0,,,60,127
23136,note_on,0,0,1,,,,,,,,,,,,,,,0,,,64,127
23231,note_on,95,0,1,,,,,,,,,,,,,,,0,,,72,0
23327,note_on,96,0,1,,,,,,,,,,,,,,,0,,,71,0
23328,note_on,1,0,1,,,,,,,,,,,,,,,0,,,69,127
23519,note_on,191,0,1,,,,,,,,,,,,,,,0,,,69,0
23520,note_on,1,0,1,,,,,,,,,,,,,,,0,,,69,127
23711,note_on,191,0,1,,,,,,,,,,,,,,,0,,,69,0
23711,note_on,0,0,1,,,,,,,,,,,,,,,0,,,60,0
23711,note_on,0,0,1,,,,,,,,,,,,,,,0,,,64,0
23711,note_on,0,0,1,,,,,,,,,,,,,,,0,,,57,0
23712,note_on,1,0,1,,,,,,,,,,,,,,,0,,,71,127
23712,note_on,0,0,1,,,,,,,,,,,,,,,0,,,69,127
23712,note_on,0,0,1,,,,,,,,,,,,,,,0,,,59,127
23712,note_on,0,0,1,,,,,,,,,,,,,,,0,,,62,127
23712,note_on,0,0,1,,,,,,,,,,,,,,,0,,,57,127
23807,note_on,95,0,1,,,,,,,,,,,,,,,0,,,71,0
23903,note_on,96,0,1,,,,,,,,,,,,,,,0,,,69,0
23904,note_on,1,0,1,,,,,,,,,,,,,,,0,,,68,127
24095,note_on,191,0,1,,,,,,,,,,,,,,,0,,,68,0
24096,note_on,1,0,1,,,,,,,,,,,,,,,0,,,68,127
24287,note_on,191,0,1,,,,,,,,,,,,,,,0,,,68,0
24287,note_on,0,0,1,,,,,,,,,,,,,,,0,,,62,0
24287,note_on,0,0,1,,,,,,,,,,,,,,,0,,,59,0
24287,note_on,0,0,1,,,,,,,,,,,,,,,0,,,57,0
24288,note_on,1,0,1,,,,,,,,,,,,,,,0,,,60,127
24288,note_on,0,0,1,,,,,,,,,,,,,,,0,,,57,127
24288,note_on,0,0,1,,,,,,,,,,,,,,,0,,,69,127
24480,note_on,192,0,1,,,,,,,,,,,,,,,0,,,76,127
24671,note_on,191,0,1,,,,,,,,,,,,,,,0,,,76,0
24671,note_on,0,0,1,,,,,,,,,,,,,,,0,,,69,0
24672,note_on,1,0,1,,,,,,,,,,,,,,,0,,,76,127
24863,note_on,191,0,1,,,,,,,,,,,,,,,0,,,76,0
24863,note_on,0,0,1,,,,,,,,,,,,,,,0,,,57,0
24863,note_on,0,0,1,,,,,,,,,,,,,,,0,,,60,0
24864,note_on,1,0,1,,,,,,,,,,,,,,,0,,,77,127
24864,note_on,0,0,1,,,,,,,,,,,,,,,0,,,65,127
24864,note_on,0,0,1,,,,,,,,,,,,,,,0,,,76,127
24864,note_on,0,0,1,,,,,,,,,,,,,,,0,,,57,127
24864,note_on,0,0,1,,,,,,,,,,,,,,,0,,,69,127
24959,note_on,95,0,1,,,,,,,,,,,,,,,0,,,77,0
25055,note_on,96,0,1,,,,,,,,,,,,,,,0,,,76,0
25056,note_on,1,0,1,,,,,,,,,,,,,,,0,,,74,127
25247,note_on,191,0,1,,,,,,,,,,,,,,,0,,,74,0
25248,note_on,1,0,1,,,,,,,,,,,,,,,0,,,74,127
25439,note_on,191,0,1,,,,,,,,,,,,,,,0,,,74,0
25439,note_on,0,0,1,,,,,,,,,,,,,,,0,,,65,0
25439,note_on,0,0,1,,,,,,,,,,,,,,,0,,,57,0
25439,note_on,0,0,1,,,,,,,,,,,,,,,0,,,69,0
25440,note_on,1,0,1,,,,,,,,,,,,,,,0,,,74,127
25440,note_on,0,0,1,,,,,,,,,,,,,,,0,,,76,127
25440,note_on,0,0,1,,,,,,,,,,,,,,,0,,,64,127
25440,note_on,0,0,1,,,,,,,,,,,,,,,0,,,69,127
25440,note_on,0,0,1,,,,,,,,,,,,,,,0,,,57,127
25535,note_on,95,0,1,,,,,,,,,,,,,,,0,,,76,0
25631,note_on,96,0,1,,,,,,,,,,,,,,,0,,,74,0
25632,note_on,1,0,1,,,,,,,,,,,,,,,0,,,72,127
25823,note_on,191,0,1,,,,,,,,,,,,,,,0,,,72,0
25824,note_on,1,0,1,,,,,,,,,,,,,,,0,,,72,127
26015,note_on,0,0,1,,,,,,,,,,,,,,,0,,,57,0
26015,note_on,191,0,1,,,,,,,,,,,,,,,0,,,72,0
26015,note_on,0,0,1,,,,,,,,,,,,,,,0,,,69,0
26015,note_on,0,0,1,,,,,,,,,,,,,,,0,,,64,0
26016,note_on,0,0,1,,,,,,,,,,,,,,,0,,,62,127
26016,note_on,0,0,1,,,,,,,,,,,,,,,0,,,57,127
26016,note_on,0,0,1,,,,,,,,,,,,,,,0,,,74,127
26016,note_on,0,0,1,,,,,,,,,,,,,,,0,,,65,127
26016,note_on,1,0,1,,,,,,,,,,,,,,,0,,,72,127
26111,note_on,95,0,1,,,,,,,,,,,,,,,0,,,74,0
26207,note_on,96,0,1,,,,,,,,,,,,,,,0,,,72,0
26208,note_on,1,0,1,,,,,,,,,,,,,,,0,,,71,127
26399,note_on,191,0,1,,,,,,,,,,,,,,,0,,,71,0
26400,note_on,1,0,1,,,,,,,,,,,,,,,0,,,71,127
26591,note_on,191,0,1,,,,,,,,,,,,,,,0,,,71,0
26591,note_on,0,0,1,,,,,,,,,,,,,,,0,,,65,0
26591,note_on,0,0,1,,,,,,,,,,,,,,,0,,,62,0
26592,note_on,0,0,1,,,,,,,,,,,,,,,0,,,72,127
26592,note_on,0,0,1,,,,,,,,,,,,,,,0,,,57,127
26592,note_on,0,0,1,,,,,,,,,,,,,,,0,,,60,127
26592,note_on,0,0,1,,,,,,,,,,,,,,,0,,,64,127
26592,note_on,1,0,1,,,,,,,,,,,,,,,0,,,57,0
26592,note_on,0,0,1,,,,,,,,,,,,,,,0,,,71,127
26687,note_on,95,0,1,,,,,,,,,,,,,,,0,,,72,0
26783,note_on,96,0,1,,,,,,,,,,,,,,,0,,,71,0
26784,note_on,1,0,1,,,,,,,,,,,,,,,0,,,69,127
26975,note_on,191,0,1,,,,,,,,,,,,,,,0,,,69,0
26976,note_on,1,0,1,,,,,,,,,,,,,,,0,,,69,127
27167,note_on,191,0,1,,,,,,,,,,,,,,,0,,,69,0
27167,note_on,0,0,1,,,,,,,,,,,,,,,0,,,64,0
27167,note_on,0,0,1,,,,,,,,,,,,,,,0,,,60,0
27167,note_on,0,0,1,,,,,,,,,,,,,,,0,,,57,0
27168,note_on,1,0,1,,,,,,,,,,,,,,,0,,,59,127
27168,note_on,0,0,1,,,,,,,,,,,,,,,0,,,62,127
27168,note_on,0,0,1,,,,,,,,,,,,,,,0,,,69,127
27168,note_on,0,0,1,,,,,,,,,,,,,,,0,,,71,127
27263,note_on,95,0,1,,,,,,,,,,,,,,,0,,,71,0
27359,note_on,96,0,1,,,,,,,,,,,,,,,0,,,69,0
27360,note_on,1,0,1,,,,,,,,,,,,,,,0,,,67,127
27551,note_on,191,0,1,,,,,,,,,,,,,,,0,,,67,0
27552,note_on,1,0,1,,,,,,,,,,,,,,,0,,,67,127
27743,note_on,0,0,1,,,,,,,,,,,,,,,0,,,59,0
27743,note_on,191,0,1,,,,,,,,,,,,,,,0,,,67,0
27743,note_on,0,0,1,,,,,,,,,,,,,,,0,,,62,0
27744,note_on,0,0,1,,,,,,,,,,,,,,,0,,,57,127
27744,note_on,0,0,1,,,,,,,,,,,,,,,0,,,60,127
27744,note_on,1,0,1,,,,,,,,,,,,,,,0,,,69,127
27744,note_on,0,0,1,,,,,,,,,,,,,,,0,,,67,127
27839,note_on,95,0,1,,,,,,,,,,,,,,,0,,,69,0
27935,note_on,96,0,1,,,,,,,,,,,,,,,0,,,67,0
27936,note_on,1,0,1,,,,,,,,,,,,,,,0,,,65,127
28127,note_on,0,0,1,,,,,,,,,,,,,,,0,,,57,0
28127,note_on,191,0,1,,,,,,,,,,,,,,,0,,,65,0
28127,note_on,0,0,1,,,,,,,,,,,,,,,0,,,60,0
28128,note_on,0,0,1,,,,,,,,,,,,,,,0,,,64,127
28128,note_on,1,0,1,,,,,,,,,,,,,,,0,,,59,127
28128,note_on,0,0,1,,,,,,,,,,,,,,,0,,,55,127
28319,note_on,0,0,1,,,,,,,,,,,,,,,0,,,64,0
28319,note_on,0,0,1,,,,,,,,,,,,,,,0,,,59,0
28319,note_on,191,0,1,,,,,,,,,,,,,,,0,,,55,0
28320,note_on,1,0,1,,,,,,,,,,,,,,,0,,,64,127
28320,note_on,0,0,1,,,,,,,,,,,,,,,0,,,57,127
28320,note_on,0,0,1,,,,,,,,,,,,,,,0,,,62,127
28320,note_on,0,0,1,,,,,,,,,,,,,,,0,,,69,127
28320,note_on,0,0,1,,,,,,,,,,,,,,,0,,,53,127
28415,note_on,95,0,1,,,,,,,,,,,,,,,0,,,64,0
28511,note_on,96,0,1,,,,,,,,,,,,,,,0,,,62,0
28512,note_on,1,0,1,,,,,,,,,,,,,,,0,,,60,127
28703,note_on,191,0,1,,,,,,,,,,,,,,,0,,,60,0
28704,note_on,1,0,1,,,,,,,,,,,,,,,0,,,62,127
28895,note_on,0,0,1,,,,,,,,,,,,,,,0,,,53,0
28895,note_on,0,0,1,,,,,,,,,,,,,,,0,,,57,0
28895,note_on,0,0,1,,,,,,,,,,,,,,,0,,,69,0
28895,note_on,191,0,1,,,,,,,,,,,,,,,0,,,62,0
28896,note_on,0,0,1,,,,,,,,,,,,,,,0,,,52,127
28896,note_on,1,0,1,,,,,,,,,,,,,,,0,,,68,127
28896,note_on,0,0,1,,,,,,,,,,,,,,,0,,,64,127
29087,note_on,191,0,1,,,,,,,,,,,,,,,0,,,64,0
29087,note_on,0,0,1,,,,,,,,,,,,,,,0,,,68,0
29088,note_on,1,0,1,,,,,,,,,,,,,,,0,,,57,127
29183,note_on,95,0,1,,,,,,,,,,,,,,,0,,,57,0
29184,note_on,1,0,1,,,,,,,,,,,,,,,0,,,59,127
29279,note_on,95,0,1,,,,,,,,,,,,,,,0,,,59,0
29280,note_on,1,0,1,,,,,,,,,,,,,,,0,,,64,127
29471,note_on,191,0,1,,,,,,,,,,,,,,,0,,,64,0
29471,note_on,0,0,1,,,,,,,,,,,,,,,0,,,52,0
29472,note_on,1,0,1,,,,,,,,,,,,,,,0,,,53,127
29664,note_on,192,0,1,,,,,,,,,,,,,,,0,,,57,127
29759,note_on,95,0,1,,,,,,,,,,,,,,,0,,,57,0
29760,note_on,1,0,1,,,,,,,,,,,,,,,0,,,59,127
29855,note_on,95,0,1,,,,,,,,,,,,,,,0,,,59,0
29856,note_on,0,0,1,,,,,,,,,,,,,,,0,,,62,127
29856,note_on,1,0,1,,,,,,,,,,,,,,,0,,,71,127
30047,note_on,191,0,1,,,,,,,,,,,,,,,0,,,62,0
30047,note_on,0,0,1,,,,,,,,,,,,,,,0,,,53,0
30048,note_on,1,0,1,,,,,,,,,,,,,,,0,,,52,127
30239,note_on,191,0,1,,,,,,,,,,,,,,,0,,,71,0
30240,note_on,1,0,1,,,,,,,,,,,,,,,0,,,57,127
30335,note_on,95,0,1,,,,,,,,,,,,,,,0,,,57,0
30336,note_on,1,0,1,,,,,,,,,,,,,,,0,,,59,127
30431,note_on,95,0,1,,,,,,,,,,,,,,,0,,,59,0
30432,note_on,1,0,1,,,,,,,,,,,,,,,0,,,64,127
30623,note_on,191,0,1,,,,,,,,,,,,,,,0,,,64,0
30623,note_on,0,0,1,,,,,,,,,,,,,,,0,,,52,0
30624,note_on,1,0,1,,,,,,,,,,,,,,,0,,,53,127
30816,note_on,192,0,1,,,,,,,,,,,,,,,0,,,57,127
30911,note_on,95,0,1,,,,,,,,,,,,,,,0,,,57,0
30912,note_on,1,0,1,,,,,,,,,,,,,,,0,,,59,127
31007,note_on,95,0,1,,,,,,,,,,,,,,,0,,,59,0
31008,note_on,1,0,1,,,,,,,,,,,,,,,0,,,71,127
31008,note_on,0,0,1,,,,,,,,,,,,,,,0,,,62,127
31199,note_on,0,0,1,,,,,,,,,,,,,,,0,,,53,0
31199,note_on,191,0,1,,,,,,,,,,,,,,,0,,,62,0
31200,note_on,1,0,1,,,,,,,,,,,,,,,0,,,52,127
31391,note_on,191,0,1,,,,,,,,,,,,,,,0,,,71,0
31392,note_on,1,0,1,,,,,,,,,,,,,,,0,,,57,127
31487,note_on,95,0,1,,,,,,,,,,,,,,,0,,,57,0
31488,note_on,1,0,1,,,,,,,,,,,,,,,0,,,59,127
31583,note_on,95,0,1,,,,,,,,,,,,,,,0,,,59,0
31584,note_on,1,0,1,,,,,,,,,,,,,,,0,,,64,127
31775,note_on,191,0,1,,,,,,,,,,,,,,,0,,,64,0
31775,note_on,0,0,1,,,,,,,,,,,,,,,0,,,52,0
31776,note_on,1,0,1,,,,,,,,,,,,,,,0,,,53,127
31968,note_on,192,0,1,,,,,,,,,,,,,,,0,,,57,127
32063,note_on,95,0,1,,,,,,,,,,,,,,,0,,,57,0
32064,note_on,1,0,1,,,,,,,,,,,,,,,0,,,59,127
32159,note_on,95,0,1,,,,,,,,,,,,,,,0,,,59,0
32160,note_on,1,0,1,,,,,,,,,,,,,,,0,,,71,127
32160,note_on,0,0,1,,,,,,,,,,,,,,,0,,,62,127
32351,note_on,0,0,1,,,,,,,,,,,,,,,0,,,53,0
32351,note_on,191,0,1,,,,,,,,,,,,,,,0,,,62,0
32351,note_on,0,0,1,,,,,,,,,,,,,,,0,,,71,0
32352,note_on,1,0,1,,,,,,,,,,,,,,,0,,,52,127
32447,note_on,95,0,1,,,,,,,,,,,,,,,0,,,52,0
32448,note_on,1,0,1,,,,,,,,,,,,,,,0,,,57,127
32543,note_on,95,0,1,,,,,,,,,,,,,,,0,,,57,0
32544,note_on,1,0,1,,,,,,,,,,,,,,,0,,,59,127
32639,note_on,95,0,1,,,,,,,,,,,,,,,0,,,59,0
32640,note_on,1,0,1,,,,,,,,,,,,,,,0,,,64,127
32736,note_on,96,0,1,,,,,,,,,,,,,,,0,,,56,127
32736,note_on,0,0,1,,,,,,,,,,,,,,,0,,,84,127
32783,note_on,47,0,1,,,,,,,,,,,,,,,0,,,84,0
32784,note_on,1,0,1,,,,,,,,,,,,,,,0,,,83,127
32831,note_on,47,0,1,,,,,,,,,,,,,,,0,,,83,0
32832,note_on,1,0,1,,,,,,,,,,,,,,,0,,,84,127
32879,note_on,47,0,1,,,,,,,,,,,,,,,0,,,84,0
32880,note_on,1,0,1,,,,,,,,,,,,,,,0,,,83,127
32927,note_on,47,0,1,,,,,,,,,,,,,,,0,,,83,0
32927,note_on,0,0,1,,,,,,,,,,,,,,,0,,,56,0
32927,note_on,0,0,1,,,,,,,,,,,,,,,0,,,64,0
32928,note_on,1,0,1,,,,,,,,,,,,,,,0,,,57,127
32928,note_on,0,0,1,,,,,,,,,,,,,,,0,,,84,127
33119,note_on,191,0,1,,,,,,,,,,,,,,,0,,,84,0
33120,note_on,1,0,1,,,,,,,,,,,,,,,0,,,81,127
33311,note_on,191,0,1,,,,,,,,,,,,,,,0,,,81,0
33312,note_on,1,0,1,,,,,,,,,,,,,,,0,,,76,127
33503,note_on,191,0,1,,,,,,,,,,,,,,,0,,,57,0
33504,note_on,0,0,1,,,,,,,,,,,,,,,0,,,38,127
33504,note_on,0,0,1,,,,,,,,,,,,,,,0,,,77,127
33504,note_on,1,0,1,,,,,,,,,,,,,,,0,,,76,0
33504,note_on,0,0,1,,,,,,,,,,,,,,,0,,,50,127
33695,note_on,191,0,1,,,,,,,,,,,,,,,0,,,77,0
33696,note_on,1,0,1,,,,,,,,,,,,,,,0,,,74,127
33887,note_on,191,0,1,,,,,,,,,,,,,,,0,,,74,0
33888,note_on,1,0,1,,,,,,,,,,,,,,,0,,,71,127
34079,note_on,191,0,1,,,,,,,,,,,,,,,0,,,38,0
34079,note_on,0,0,1,,,,,,,,,,,,,,,0,,,50,0
34080,note_on,1,0,1,,,,,,,,,,,,,,,0,,,40,127
34080,note_on,0,0,1,,,,,,,,,,,,,,,0,,,52,127
34271,note_on,191,0,1,,,,,,,,,,,,,,,0,,,71,0
34272,note_on,1,0,1,,,,,,,,,,,,,,,0,,,69,127
34463,note_on,191,0,1,,,,,,,,,,,,,,,0,,,69,0
34464,note_on,1,0,1,,,,,,,,,,,,,,,0,,,68,127
34655,note_on,191,0,1,,,,,,,,,,,,,,,0,,,68,0
34655,note_on,0,0,1,,,,,,,,,,,,,,,0,,,52,0
34655,note_on,0,0,1,,,,,,,,,,,,,,,0,,,40,0
34656,note_on,0,0,1,,,,,,,,,,,,,,,0,,,53,127
34656,note_on,1,0,1,,,,,,,,,,,,,,,0,,,68,127
34847,note_on,191,0,1,,,,,,,,,,,,,,,0,,,68,0
34848,note_on,0,0,1,,,,,,,,,,,,,,,0,,,57,127
34848,note_on,1,0,1,,,,,,,,,,,,,,,0,,,69,127
34943,note_on,95,0,1,,,,,,,,,,,,,,,0,,,57,0
34944,note_on,1,0,1,,,,,,,,,,,,,,,0,,,59,127
35031,note_on,87,0,1,,,,,,,,,,,,,,,0,,,53,0
35039,note_on,8,0,1,,,,,,,,,,,,,,,0,,,59,0
35040,note_on,1,0,1,,,,,,,,,,,,,,,0,,,62,127
35135,note_on,95,0,1,,,,,,,,,,,,,,,0,,,69,0
35232,note_on,97,0,1,,,,,,,,,,,,,,,0,,,50,127
35424,note_on,192,0,1,,,,,,,,,,,,,,,0,,,57,127
35519,note_on,95,0,1,,,,,,,,,,,,,,,0,,,57,0
35520,note_on,1,0,1,,,,,,,,,,,,,,,0,,,59,127
35614,note_on,94,0,1,,,,,,,,,,,,,,,0,,,50,0
35615,note_on,0,0,1,,,,,,,,,,,,,,,0,,,62,0
35615,note_on,1,0,1,,,,,,,,,,,,,,,0,,,59,0
35616,note_on,0,0,1,,,,,,,,,,,,,,,0,,,62,127
35616,note_on,1,0,1,,,,,,,,,,,,,,,0,,,71,127
35808,note_on,192,0,1,,,,,,,,,,,,,,,0,,,52,127
35999,note_on,191,0,1,,,,,,,,,,,,,,,0,,,71,0
36000,note_on,1,0,1,,,,,,,,,,,,,,,0,,,57,127
36095,note_on,95,0,1,,,,,,,,,,,,,,,0,,,57,0
36096,note_on,1,0,1,,,,,,,,,,,,,,,0,,,59,127
36183,note_on,87,0,1,,,,,,,,,,,,,,,0,,,52,0
36191,note_on,8,0,1,,,,,,,,,,,,,,,0,,,59,0
36191,note_on,0,0,1,,,,,,,,,,,,,,,0,,,62,0
36192,note_on,1,0,1,,,,,,,,,,,,,,,0,,,64,127
36384,note_on,192,0,1,,,,,,,,,,,,,,,0,,,53,127
36576,note_on,192,0,1,,,,,,,,,,,,,,,0,,,57,127
36671,note_on,95,0,1,,,,,,,,,,,,,,,0,,,57,0
36672,note_on,1,0,1,,,,,,,,,,,,,,,0,,,59,127
36767,note_on,0,0,1,,,,,,,,,,,,,,,0,,,53,0
36767,note_on,95,0,1,,,,,,,,,,,,,,,0,,,59,0
36767,note_on,0,0,1,,,,,,,,,,,,,,,0,,,64,0
36768,note_on,1,0,1,,,,,,,,,,,,,,,0,,,71,127
36768,note_on,0,0,1,,,,,,,,,,,,,,,0,,,62,127
36960,note_on,192,0,1,,,,,,,,,,,,,,,0,,,52,127
37151,note_on,191,0,1,,,,,,,,,,,,,,,0,,,71,0
37152,note_on,1,0,1,,,,,,,,,,,,,,,0,,,57,127
37247,note_on,95,0,1,,,,,,,,,,,,,,,0,,,57,0
37248,note_on,1,0,1,,,,,,,,,,,,,,,0,,,59,127
37335,note_on,87,0,1,,,,,,,,,,,,,,,0,,,52,0
37343,note_on,0,0,1,,,,,,,,,,,,,,,0,,,62,0
37343,note_on,8,0,1,,,,,,,,,,,,,,,0,,,59,0
37344,note_on,1,0,1,,,,,,,,,,,,,,,0,,,64,127
37536,note_on,192,0,1,,,,,,,,,,,,,,,0,,,53,127
37728,note_on,192,0,1,,,,,,,,,,,,,,,0,,,57,127
37823,note_on,95,0,1,,,,,,,,,,,,,,,0,,,57,0
37824,note_on,1,0,1,,,,,,,,,,,,,,,0,,,59,127
37919,note_on,95,0,1,,,,,,,,,,,,,,,0,,,59,0
37919,note_on,0,0,1,,,,,,,,,,,,,,,0,,,53,0
37919,note_on,0,0,1,,,,,,,,,,,,,,,0,,,64,0
37920,note_on,1,0,1,,,,,,,,,,,,,,,0,,,71,127
37920,note_on,0,0,1,,,,,,,,,,,,,,,0,,,62,127
38111,note_on,191,0,1,,,,,,,,,,,,,,,0,,,71,0
38112,note_on,1,0,1,,,,,,,,,,,,,,,0,,,52,127
38207,note_on,95,0,1,,,,,,,,,,,,,,,0,,,52,0
38208,note_on,1,0,1,,,,,,,,,,,,,,,0,,,57,127
38303,note_on,95,0,1,,,,,,,,,,,,,,,0,,,57,0
38304,note_on,1,0,1,,,,,,,,,,,,,,,0,,,59,127
38399,note_on,0,0,1,,,,,,,,,,,,,,,0,,,62,0
38399,note_on,95,0,1,,,,,,,,,,,,,,,0,,,59,0
38400,note_on,1,0,1,,,,,,,,,,,,,,,0,,,64,127
38496,note_on,0,0,1,,,,,,,,,,,,,,,0,,,84,127
38496,note_on,96,0,1,,,,,,,,,,,,,,,0,,,56,127
38543,note_on,47,0,1,,,,,,,,,,,,,,,0,,,84,0
38544,note_on,1,0,1,,,,,,,,,,,,,,,0,,,83,127
38591,note_on,47,0,1,,,,,,,,,,,,,,,0,,,83,0
38592,note_on,1,0,1,,,,,,,,,,,,,,,0,,,84,127
38639,note_on,47,0,1,,,,,,,,,,,,,,,0,,,84,0
38640,note_on,1,0,1,,,,,,,,,,,,,,,0,,,83,127
38687,note_on,47,0,1,,,,,,,,,,,,,,,0,,,83,0
38687,note_on,0,0,1,,,,,,,,,,,,,,,0,,,56,0
38687,note_on,0,0,1,,,,,,,,,,,,,,,0,,,64,0
38688,note_on,1,0,1,,,,,,,,,,,,,,,0,,,84,127
38688,note_on,0,0,1,,,,,,,,,,,,,,,0,,,57,127
38879,note_on,191,0,1,,,,,,,,,,,,,,,0,,,84,0
38880,note_on,1,0,1,,,,,,,,,,,,,,,0,,,81,127
39071,note_on,191,0,1,,,,,,,,,,,,,,,0,,,81,0
39072,note_on,1,0,1,,,,,,,,,,,,,,,0,,,76,127
39263,note_on,191,0,1,,,,,,,,,,,,,,,0,,,57,0
39264,note_on,0,0,1,,,,,,,,,,,,,,,0,,,77,127
39264,note_on,1,0,1,,,,,,,,,,,,,,,0,,,76,0
39264,note_on,0,0,1,,,,,,,,,,,,,,,0,,,50,127
39264,note_on,0,0,1,,,,,,,,,,,,,,,0,,,38,127
39455,note_on,191,0,1,,,,,,,,,,,,,,,0,,,77,0
39456,note_on,1,0,1,,,,,,,,,,,,,,,0,,,74,127
39647,note_on,191,0,1,,,,,,,,,,,,,,,0,,,74,0
39648,note_on,1,0,1,,,,,,,,,,,,,,,0,,,71,127
39839,note_on,191,0,1,,,,,,,,,,,,,,,0,,,38,0
39839,note_on,0,0,1,,,,,,,,,,,,,,,0,,,50,0
39840,note_on,1,0,1,,,,,,,,,,,,,,,0,,,52,127
39840,note_on,0,0,1,,,,,,,,,,,,,,,0,,,40,127
40031,note_on,191,0,1,,,,,,,,,,,,,,,0,,,71,0
40032,note_on,1,0,1,,,,,,,,,,,,,,,0,,,69,127
40223,note_on,191,0,1,,,,,,,,,,,,,,,0,,,69,0
40224,note_on,1,0,1,,,,,,,,,,,,,,,0,,,68,127
40415,note_on,0,0,1,,,,,,,,,,,,,,,0,,,52,0
40415,note_on,191,0,1,,,,,,,,,,,,,,,0,,,68,0
40415,note_on,0,0,1,,,,,,,,,,,,,,,0,,,40,0
40416,note_on,1,0,1,,,,,,,,,,,,,,,0,,,81,127
40488,note_on,72,0,1,,,,,,,,,,,,,,,0,,,45,127
40559,note_on,71,0,1,,,,,,,,,,,,,,,0,,,45,0
40560,note_on,1,0,1,,,,,,,,,,,,,,,0,,,47,127
40631,note_on,71,0,1,,,,,,,,,,,,,,,0,,,47,0
40632,note_on,1,0,1,,,,,,,,,,,,,,,0,,,49,127
40703,note_on,71,0,1,,,,,,,,,,,,,,,0,,,49,0
40704,note_on,1,0,1,,,,,,,,,,,,,,,0,,,50,127
40775,note_on,71,0,1,,,,,,,,,,,,,,,0,,,50,0
40776,note_on,1,0,1,,,,,,,,,,,,,,,0,,,52,127
40847,note_on,71,0,1,,,,,,,,,,,,,,,0,,,52,0
40848,note_on,1,0,1,,,,,,,,,,,,,,,0,,,54,127
40919,note_on,71,0,1,,,,,,,,,,,,,,,0,,,54,0
40920,note_on,1,0,1,,,,,,,,,,,,,,,0,,,56,127
40991,note_on,71,0,1,,,,,,,,,,,,,,,0,,,56,0
40992,note_on,1,0,1,,,,,,,,,,,,,,,0,,,57,127
41063,note_on,71,0,1,,,,,,,,,,,,,,,0,,,81,0
41064,note_on,1,0,1,,,,,,,,,,,,,,,0,,,80,127
41135,note_on,71,0,1,,,,,,,,,,,,,,,0,,,80,0
41136,note_on,1,0,1,,,,,,,,,,,,,,,0,,,78,127
41207,note_on,71,0,1,,,,,,,,,,,,,,,0,,,78,0
41208,note_on,1,0,1,,,,,,,,,,,,,,,0,,,76,127
41279,note_on,71,0,1,,,,,,,,,,,,,,,0,,,76,0
41280,note_on,1,0,1,,,,,,,,,,,,,,,0,,,74,127
41351,note_on,71,0,1,,,,,,,,,,,,,,,0,,,74,0
41352,note_on,1,0,1,,,,,,,,,,,,,,,0,,,73,127
41423,note_on,71,0,1,,,,,,,,,,,,,,,0,,,73,0
41424,note_on,1,0,1,,,,,,,,,,,,,,,0,,,71,127
41495,note_on,71,0,1,,,,,,,,,,,,,,,0,,,71,0
41496,note_on,1,0,1,,,,,,,,,,,,,,,0,,,69,127
41567,note_on,71,0,1,,,,,,,,,,,,,,,0,,,69,0
41568,note_on,1,0,1,,,,,,,,,,,,,,,0,,,78,127
41639,note_on,71,0,1,,,,,,,,,,,,,,,0,,,57,0
41640,note_on,1,0,1,,,,,,,,,,,,,,,0,,,50,127
41711,note_on,71,0,1,,,,,,,,,,,,,,,0,,,50,0
41712,note_on,1,0,1,,,,,,,,,,,,,,,0,,,52,127
41783,note_on,71,0,1,,,,,,,,,,,,,,,0,,,52,0
41784,note_on,1,0,1,,,,,,,,,,,,,,,0,,,54,127
41855,note_on,71,0,1,,,,,,,,,,,,,,,0,,,54,0
41856,note_on,1,0,1,,,,,,,,,,,,,,,0,,,56,127
41927,note_on,71,0,1,,,,,,,,,,,,,,,0,,,56,0
41928,note_on,1,0,1,,,,,,,,,,,,,,,0,,,57,127
41999,note_on,71,0,1,,,,,,,,,,,,,,,0,,,57,0
42000,note_on,1,0,1,,,,,,,,,,,,,,,0,,,59,127
42071,note_on,71,0,1,,,,,,,,,,,,,,,0,,,59,0
42072,note_on,1,0,1,,,,,,,,,,,,,,,0,,,61,127
42143,note_on,71,0,1,,,,,,,,,,,,,,,0,,,61,0
42144,note_on,1,0,1,,,,,,,,,,,,,,,0,,,62,127
42215,note_on,71,0,1,,,,,,,,,,,,,,,0,,,78,0
42216,note_on,1,0,1,,,,,,,,,,,,,,,0,,,76,127
42287,note_on,71,0,1,,,,,,,,,,,,,,,0,,,76,0
42288,note_on,1,0,1,,,,,,,,,,,,,,,0,,,74,127
42359,note_on,71,0,1,,,,,,,,,,,,,,,0,,,74,0
42360,note_on,1,0,1,,,,,,,,,,,,,,,0,,,73,127
42431,note_on,71,0,1,,,,,,,,,,,,,,,0,,,73,0
42432,note_on,1,0,1,,,,,,,,,,,,,,,0,,,71,127
42503,note_on,71,0,1,,,,,,,,,,,,,,,0,,,71,0
42504,note_on,1,0,1,,,,,,,,,,,,,,,0,,,69,127
42575,note_on,71,0,1,,,,,,,,,,,,,,,0,,,69,0
42576,note_on,1,0,1,,,,,,,,,,,,,,,0,,,68,127
42647,note_on,71,0,1,,,,,,,,,,,,,,,0,,,68,0
42648,note_on,1,0,1,,,,,,,,,,,,,,,0,,,66,127
42719,note_on,0,0,1,,,,,,,,,,,,,,,0,,,62,0
42719,note_on,71,0,1,,,,,,,,,,,,,,,0,,,66,0
42720,note_on,1,0,1,,,,,,,,,,,,,,,0,,,64,127
42791,note_on,71,0,1,,,,,,,,,,,,,,,0,,,64,0
42792,note_on,1,0,1,,,,,,,,,,,,,,,0,,,76,127
42792,note_on,0,0,1,,,,,,,,,,,,,,,0,,,45,127
42863,note_on,71,0,1,,,,,,,,,,,,,,,0,,,45,0
42864,note_on,1,0,1,,,,,,,,,,,,,,,0,,,47,127
42935,note_on,71,0,1,,,,,,,,,,,,,,,0,,,47,0
42936,note_on,1,0,1,,,,,,,,,,,,,,,0,,,49,127
43007,note_on,71,0,1,,,,,,,,,,,,,,,0,,,49,0
43008,note_on,1,0,1,,,,,,,,,,,,,,,0,,,50,127
43079,note_on,71,0,1,,,,,,,,,,,,,,,0,,,50,0
43080,note_on,1,0,1,,,,,,,,,,,,,,,0,,,52,127
43151,note_on,71,0,1,,,,,,,,,,,,,,,0,,,52,0
43152,note_on,1,0,1,,,,,,,,,,,,,,,0,,,54,127
43223,note_on,71,0,1,,,,,,,,,,,,,,,0,,,54,0
43224,note_on,1,0,1,,,,,,,,,,,,,,,0,,,56,127
43295,note_on,71,0,1,,,,,,,,,,,,,,,0,,,56,0
43296,note_on,1,0,1,,,,,,,,,,,,,,,0,,,57,127
43367,note_on,71,0,1,,,,,,,,,,,,,,,0,,,76,0
43368,note_on,1,0,1,,,,,,,,,,,,,,,0,,,74,127
43439,note_on,71,0,1,,,,,,,,,,,,,,,0,,,74,0
43440,note_on,1,0,1,,,,,,,,,,,,,,,0,,,73,127
43511,note_on,71,0,1,,,,,,,,,,,,,,,0,,,73,0
43512,note_on,1,0,1,,,,,,,,,,,,,,,0,,,71,127
43583,note_on,71,0,1,,,,,,,,,,,,,,,0,,,71,0
43584,note_on,1,0,1,,,,,,,,,,,,,,,0,,,69,127
43655,note_on,71,0,1,,,,,,,,,,,,,,,0,,,69,0
43656,note_on,1,0,1,,,,,,,,,,,,,,,0,,,68,127
43727,note_on,71,0,1,,,,,,,,,,,,,,,0,,,68,0
43728,note_on,1,0,1,,,,,,,,,,,,,,,0,,,66,127
43799,note_on,71,0,1,,,,,,,,,,,,,,,0,,,66,0
43800,note_on,1,0,1,,,,,,,,,,,,,,,0,,,64,127
43871,note_on,0,0,1,,,,,,,,,,,,,,,0,,,57,0
43871,note_on,71,0,1,,,,,,,,,,,,,,,0,,,64,0
43872,note_on,1,0,1,,,,,,,,,,,,,,,0,,,50,127
43872,note_on,0,0,1,,,,,,,,,,,,,,,0,,,66,127
43872,note_on,0,0,1,,,,,,,,,,,,,,,0,,,38,127
43872,note_on,0,0,1,,,,,,,,,,,,,,,0,,,74,127
44063,note_on,191,0,1,,,,,,,,,,,,,,,0,,,74,0
44064,note_on,1,0,1,,,,,,,,,,,,,,,0,,,73,127
44255,note_on,191,0,1,,,,,,,,,,,,,,,0,,,73,0
44256,note_on,1,0,1,,,,,,,,,,,,,,,0,,,71,127
44447,note_on,0,0,1,,,,,,,,,,,,,,,0,,,66,0
44447,note_on,191,0,1,,,,,,,,,,,,,,,0,,,71,0
44447,note_on,0,0,1,,,,,,,,,,,,,,,0,,,50,0
44447,note_on,0,0,1,,,,,,,,,,,,,,,0,,,38,0
44448,note_on,0,0,1,,,,,,,,,,,,,,,0,,,69,127
44448,note_on,1,0,1,,,,,,,,,,,,,,,0,,,64,127
44448,note_on,0,0,1,,,,,,,,,,,,,,,0,,,40,127
44448,note_on,0,0,1,,,,,,,,,,,,,,,0,,,52,127
44639,note_on,191,0,1,,,,,,,,,,,,,,,0,,,69,0
44640,note_on,1,0,1,,,,,,,,,,,,,,,0,,,71,127
44831,note_on,191,0,1,,,,,,,,,,,,,,,0,,,71,0
44832,note_on,1,0,1,,,,,,,,,,,,,,,0,,,68,127
45023,note_on,191,0,1,,,,,,,,,,,,,,,0,,,68,0
45023,note_on,0,0,1,,,,,,,,,,,,,,,0,,,40,0
45023,note_on,0,0,1,,,,,,,,,,,,,,,0,,,52,0
45023,note_on,0,0,1,,,,,,,,,,,,,,,0,,,64,0
45024,note_on,1,0,1,,,,,,,,,,,,,,,0,,,81,127
45096,note_on,72,0,1,,,,,,,,,,,,,,,0,,,45,127
45167,note_on,71,0,1,,,,,,,,,,,,,,,0,,,45,0
45168,note_on,1,0,1,,,,,,,,,,,,,,,0,,,47,127
45239,note_on,71,0,1,,,,,,,,,,,,,,,0,,,47,0
45240,note_on,1,0,1,,,,,,,,,,,,,,,0,,,49,127
45311,note_on,71,0,1,,,,,,,,,,,,,,,0,,,49,0
45312,note_on,1,0,1,,,,,,,,,,,,,,,0,,,50,127
45383,note_on,71,0,1,,,,,,,,,,,,,,,0,,,50,0
45384,note_on,1,0,1,,,,,,,,,,,,,,,0,,,52,127
45455,note_on,71,0,1,,,,,,,,,,,,,,,0,,,52,0
45456,note_on,1,0,1,,,,,,,,,,,,,,,0,,,54,127
45527,note_on,71,0,1,,,,,,,,,,,,,,,0,,,54,0
45528,note_on,1,0,1,,,,,,,,,,,,,,,0,,,56,127
45599,note_on,71,0,1,,,,,,,,,,,,,,,0,,,56,0
45600,note_on,1,0,1,,,,,,,,,,,,,,,0,,,57,127
45671,note_on,71,0,1,,,,,,,,,,,,,,,0,,,81,0
45672,note_on,1,0,1,,,,,,,,,,,,,,,0,,,80,127
45743,note_on,71,0,1,,,,,,,,,,,,,,,0,,,80,0
45744,note_on,1,0,1,,,,,,,,,,,,,,,0,,,78,127
45815,note_on,71,0,1,,,,,,,,,,,,,,,0,,,78,0
45816,note_on,1,0,1,,,,,,,,,,,,,,,0,,,76,127
45887,note_on,71,0,1,,,,,,,,,,,,,,,0,,,76,0
45888,note_on,1,0,1,,,,,,,,,,,,,,,0,,,74,127
45959,note_on,71,0,1,,,,,,,,,,,,,,,0,,,74,0
45960,note_on,1,0,1,,,,,,,,,,,,,,,0,,,73,127
46031,note_on,71,0,1,,,,,,,,,,,,,,,0,,,73,0
46032,note_on,1,0,1,,,,,,,,,,,,,,,0,,,71,127
46103,note_on,71,0,1,,,,,,,,,,,,,,,0,,,71,0
46104,note_on,1,0,1,,,,,,,,,,,,,,,0,,,69,127
46175,note_on,71,0,1,,,,,,,,,,,,,,,0,,,69,0
46176,note_on,1,0,1,,,,,,,,,,,,,,,0,,,78,127
46247,note_on,71,0,1,,,,,,,,,,,,,,,0,,,57,0
46248,note_on,1,0,1,,,,,,,,,,,,,,,0,,,50,127
46319,note_on,71,0,1,,,,,,,,,,,,,,,0,,,50,0
46320,note_on,1,0,1,,,,,,,,,,,,,,,0,,,52,127
46391,note_on,71,0,1,,,,,,,,,,,,,,,0,,,52,0
46392,note_on,1,0,1,,,,,,,,,,,,,,,0,,,54,127
46463,note_on,71,0,1,,,,,,,,,,,,,,,0,,,54,0
46464,note_on,1,0,1,,,,,,,,,,,,,,,0,,,56,127
46535,note_on,71,0,1,,,,,,,,,,,,,,,0,,,56,0
46536,note_on,1,0,1,,,,,,,,,,,,,,,0,,,57,127
46607,note_on,71,0,1,,,,,,,,,,,,,,,0,,,57,0
46608,note_on,1,0,1,,,,,,,,,,,,,,,0,,,59,127
46679,note_on,71,0,1,,,,,,,,,,,,,,,0,,,59,0
46680,note_on,1,0,1,,,,,,,,,,,,,,,0,,,61,127
46751,note_on,71,0,1,,,,,,,,,,,,,,,0,,,61,0
46752,note_on,1,0,1,,,,,,,,,,,,,,,0,,,62,127
46823,note_on,71,0,1,,,,,,,,,,,,,,,0,,,78,0
46824,note_on,1,0,1,,,,,,,,,,,,,,,0,,,76,127
46895,note_on,71,0,1,,,,,,,,,,,,,,,0,,,76,0
46896,note_on,1,0,1,,,,,,,,,,,,,,,0,,,74,127
46967,note_on,71,0,1,,,,,,,,,,,,,,,0,,,74,0
46968,note_on,1,0,1,,,,,,,,,,,,,,,0,,,73,127
47039,note_on,71,0,1,,,,,,,,,,,,,,,0,,,73,0
47040,note_on,1,0,1,,,,,,,,,,,,,,,0,,,71,127
47111,note_on,71,0,1,,,,,,,,,,,,,,,0,,,71,0
47112,note_on,1,0,1,,,,,,,,,,,,,,,0,,,69,127
47183,note_on,71,0,1,,,,,,,,,,,,,,,0,,,69,0
47184,note_on,1,0,1,,,,,,,,,,,,,,,0,,,68,127
47255,note_on,71,0,1,,,,,,,,,,,,,,,0,,,68,0
47256,note_on,1,0,1,,,,,,,,,,,,,,,0,,,66,127
47327,note_on,0,0,1,,,,,,,,,,,,,,,0,,,62,0
47327,note_on,71,0,1,,,,,,,,,,,,,,,0,,,66,0
47328,note_on,1,0,1,,,,,,,,,,,,,,,0,,,64,127
47399,note_on,71,0,1,,,,,,,,,,,,,,,0,,,64,0
47400,note_on,0,0,1,,,,,,,,,,,,,,,0,,,76,127
47400,note_on,1,0,1,,,,,,,,,,,,,,,0,,,45,127
47471,note_on,71,0,1,,,,,,,,,,,,,,,0,,,45,0
47472,note_on,1,0,1,,,,,,,,,,,,,,,0,,,47,127
47543,note_on,71,0,1,,,,,,,,,,,,,,,0,,,47,0
47544,note_on,1,0,1,,,,,,,,,,,,,,,0,,,49,127
47615,note_on,71,0,1,,,,,,,,,,,,,,,0,,,49,0
47616,note_on,1,0,1,,,,,,,,,,,,,,,0,,,50,127
47687,note_on,71,0,1,,,,,,,,,,,,,,,0,,,50,0
47688,note_on,1,0,1,,,,,,,,,,,,,,,0,,,52,127
47759,note_on,71,0,1,,,,,,,,,,,,,,,0,,,52,0
47760,note_on,1,0,1,,,,,,,,,,,,,,,0,,,54,127
47831,note_on,71,0,1,,,,,,,,,,,,,,,0,,,54,0
47832,note_on,1,0,1,,,,,,,,,,,,,,,0,,,56,127
47903,note_on,71,0,1,,,,,,,,,,,,,,,0,,,56,0
47904,note_on,1,0,1,,,,,,,,,,,,,,,0,,,57,127
47975,note_on,71,0,1,,,,,,,,,,,,,,,0,,,76,0
47976,note_on,1,0,1,,,,,,,,,,,,,,,0,,,74,127
48047,note_on,71,0,1,,,,,,,,,,,,,,,0,,,74,0
48048,note_on,1,0,1,,,,,,,,,,,,,,,0,,,73,127
48119,note_on,71,0,1,,,,,,,,,,,,,,,0,,,73,0
48120,note_on,1,0,1,,,,,,,,,,,,,,,0,,,71,127
48191,note_on,71,0,1,,,,,,,,,,,,,,,0,,,71,0
48192,note_on,1,0,1,,,,,,,,,,,,,,,0,,,69,127
48263,note_on,71,0,1,,,,,,,,,,,,,,,0,,,69,0
48264,note_on,1,0,1,,,,,,,,,,,,,,,0,,,68,127
48335,note_on,71,0,1,,,,,,,,,,,,,,,0,,,68,0
48336,note_on,1,0,1,,,,,,,,,,,,,,,0,,,66,127
48407,note_on,71,0,1,,,,,,,,,,,,,,,0,,,66,0
48408,note_on,1,0,1,,,,,,,,,,,,,,,0,,,64,127
48479,note_on,0,0,1,,,,,,,,,,,,,,,0,,,57,0
48479,note_on,71,0,1,,,,,,,,,,,,,,,0,,,64,0
48480,note_on,1,0,1,,,,,,,,,,,,,,,0,,,74,127
48480,note_on,0,0,1,,,,,,,,,,,,,,,0,,,66,127
48480,note_on,0,0,1,,,,,,,,,,,,,,,0,,,50,127
48480,note_on,0,0,1,,,,,,,,,,,,,,,0,,,38,127
48671,note_on,191,0,1,,,,,,,,,,,,,,,0,,,74,0
48672,note_on,1,0,1,,,,,,,,,,,,,,,0,,,73,127
48863,note_on,191,0,1,,,,,,,,,,,,,,,0,,,73,0
48864,note_on,1,0,1,,,,,,,,,,,,,,,0,,,71,127
49055,note_on,0,0,1,,,,,,,,,,,,,,,0,,,38,0
49055,note_on,191,0,1,,,,,,,,,,,,,,,0,,,71,0
49055,note_on,0,0,1,,,,,,,,,,,,,,,0,,,66,0
49055,note_on,0,0,1,,,,,,,,,,,,,,,0,,,50,0
49056,note_on,1,0,1,,,,,,,,,,,,,,,0,,,69,127
49056,note_on,0,0,1,,,,,,,,,,,,,,,0,,,64,127
49056,note_on,0,0,1,,,,,,,,,,,,,,,0,,,52,127
49056,note_on,0,0,1,,,,,,,,,,,,,,,0,,,40,127
49247,note_on,191,0,1,,,,,,,,,,,,,,,0,,,69,0
49248,note_on,1,0,1,,,,,,,,,,,,,,,0,,,71,127
49439,note_on,191,0,1,,,,,,,,,,,,,,,0,,,71,0
49440,note_on,1,0,1,,,,,,,,,,,,,,,0,,,68,127
49631,note_on,191,0,1,,,,,,,,,,,,,,,0,,,68,0
49631,note_on,0,0,1,,,,,,,,,,,,,,,0,,,64,0
49631,note_on,0,0,1,,,,,,,,,,,,,,,0,,,52,0
49631,note_on,0,0,1,,,,,,,,,,,,,,,0,,,40,0
49632,note_on,1,0,1,,,,,,,,,,,,,,,0,,,69,127
49632,note_on,0,0,1,,,,,,,,,,,,,,,0,,,45,127
49823,note_on,191,0,1,,,,,,,,,,,,,,,0,,,69,0
49824,note_on,1,0,1,,,,,,,,,,,,,,,0,,,81,127
50015,note_on,191,0,1,,,,,,,,,,,,,,,0,,,81,0
50016,note_on,1,0,1,,,,,,,,,,,,,,,0,,,76,127
50207,note_on,191,0,1,,,,,,,,,,,,,,,0,,,76,0
50208,note_on,1,0,1,,,,,,,,,,,,,,,0,,,73,127
50399,note_on,191,0,1,,,,,,,,,,,,,,,0,,,73,0
50399,note_on,0,0,1,,,,,,,,,,,,,,,0,,,45,0
50400,note_on,1,0,1,,,,,,,,,,,,,,,0,,,69,127
50400,note_on,0,0,1,,,,,,,,,,,,,,,0,,,49,127
50591,note_on,191,0,1,,,,,,,,,,,,,,,0,,,49,0
50591,note_on,0,0,1,,,,,,,,,,,,,,,0,,,69,0
50592,note_on,1,0,1,,,,,,,,,,,,,,,0,,,64,127
50592,note_on,0,0,1,,,,,,,,,,,,,,,0,,,52,127
50783,note_on,191,0,1,,,,,,,,,,,,,,,0,,,52,0
50783,note_on,0,0,1,,,,,,,,,,,,,,,0,,,64,0
50784,note_on,1,0,1,,,,,,,,,,,,,,,0,,,61,127
50784,note_on,0,0,1,,,,,,,,,,,,,,,0,,,57,127
50975,note_on,191,0,1,,,,,,,,,,,,,,,0,,,61,0
50976,note_on,0,0,1,,,,,,,,,,,,,,,0,,,81,127
50976,note_on,1,0,1,,,,,,,,,,,,,,,0,,,45,127
51167,note_on,191,0,1,,,,,,,,,,,,,,,0,,,81,0
51167,note_on,0,0,1,,,,,,,,,,,,,,,0,,,57,0
51168,note_on,1,0,1,,,,,,,,,,,,,,,0,,,76,127
51359,note_on,191,0,1,,,,,,,,,,,,,,,0,,,76,0
51360,note_on,1,0,1,,,,,,,,,,,,,,,0,,,73,127
51551,note_on,0,0,1,,,,,,,,,,,,,,,0,,,45,0
51551,note_on,191,0,1,,,,,,,,,,,,,,,0,,,73,0
51552,note_on,0,0,1,,,,,,,,,,,,,,,0,,,49,127
51552,note_on,1,0,1,,,,,,,,,,,,,,,0,,,69,127
51743,note_on,191,0,1,,,,,,,,,,,,,,,0,,,49,0
51743,note_on,0,0,1,,,,,,,,,,,,,,,0,,,69,0
51744,note_on,0,0,1,,,,,,,,,,,,,,,0,,,52,127
51744,note_on,1,0,1,,,,,,,,,,,,,,,0,,,64,127
51935,note_on,191,0,1,,,,,,,,,,,,,,,0,,,64,0
51936,note_on,1,0,1,,,,,,,,,,,,,,,0,,,62,127
51936,note_on,0,0,1,,,,,,,,,,,,,,,0,,,59,127
51936,note_on,0,0,1,,,,,,,,,,,,,,,0,,,61,127
51936,note_on,0,0,1,,,,,,,,,,,,,,,0,,,57,127
51936,note_on,0,0,1,,,,,,,,,,,,,,,0,,,45,127
51945,note_on,9,0,1,,,,,,,,,,,,,,,0,,,52,0
51983,note_on,38,0,1,,,,,,,,,,,,,,,0,,,62,0
51983,note_on,0,0,1,,,,,,,,,,,,,,,0,,,59,0
52127,note_on,144,0,1,,,,,,,,,,,,,,,0,,,61,0
52127,note_on,0,0,1,,,,,,,,,,,,,,,0,,,57,0
52128,note_on,1,0,1,,,,,,,,,,,,,,,0,,,59,127
52128,note_on,0,0,1,,,,,,,,,,,,,,,0,,,56,127
52319,note_on,0,0,1,,,,,,,,,,,,,,,0,,,59,0
52319,note_on,191,0,1,,,,,,,,,,,,,,,0,,,56,0
52320,note_on,1,0,1,,,,,,,,,,,,,,,0,,,57,127
52320,note_on,0,0,1,,,,,,,,,,,,,,,0,,,61,127
52511,note_on,191,0,1,,,,,,,,,,,,,,,0,,,61,0
52511,note_on,0,0,1,,,,,,,,,,,,,,,0,,,57,0
52511,note_on,0,0,1,,,,,,,,,,,,,,,0,,,45,0
52512,note_on,1,0,1,,,,,,,,,,,,,,,0,,,62,127
52512,note_on,0,0,1,,,,,,,,,,,,,,,0,,,50,127
52512,note_on,0,0,1,,,,,,,,,,,,,,,0,,,38,127
52512,note_on,0,0,1,,,,,,,,,,,,,,,0,,,59,127
52703,note_on,191,0,1,,,,,,,,,,,,,,,0,,,59,0
52703,note_on,0,0,1,,,,,,,,,,,,,,,0,,,62,0
52704,note_on,1,0,1,,,,,,,,,,,,,,,0,,,57,127
52704,note_on,0,0,1,,,,,,,,,,,,,,,0,,,61,127
52895,note_on,0,0,1,,,,,,,,,,,,,,,0,,,57,0
52895,note_on,0,0,1,,,,,,,,,,,,,,,0,,,50,0
52895,note_on,0,0,1,,,,,,,,,,,,,,,0,,,38,0
52895,note_on,191,0,1,,,,,,,,,,,,,,,0,,,61,0
52896,note_on,0,0,1,,,,,,,,,,,,,,,0,,,59,127
52896,note_on,1,0,1,,,,,,,,,,,,,,,0,,,52,127
52896,note_on,0,0,1,,,,,,,,,,,,,,,0,,,40,127
52896,note_on,0,0,1,,,,,,,,,,,,,,,0,,,56,127
53087,note_on,191,0,1,,,,,,,,,,,,,,,0,,,59,0
53087,note_on,0,0,1,,,,,,,,,,,,,,,0,,,52,0
53087,note_on,0,0,1,,,,,,,,,,,,,,,0,,,40,0
53087,note_on,0,0,1,,,,,,,,,,,,,,,0,,,56,0
53088,note_on,1,0,1,,,,,,,,,,,,,,,0,,,45,127
53088,note_on,0,0,1,,,,,,,,,,,,,,,0,,,57,127
53279,note_on,191,0,1,,,,,,,,,,,,,,,0,,,57,0
53280,note_on,1,0,1,,,,,,,,,,,,,,,0,,,74,127
53471,note_on,191,0,1,,,,,,,,,,,,,,,0,,,74,0
53472,note_on,1,0,1,,,,,,,,,,,,,,,0,,,76,127
53663,note_on,191,0,1,,,,,,,,,,,,,,,0,,,76,0
53663,note_on,0,0,1,,,,,,,,,,,,,,,0,,,45,0
53664,note_on,0,0,1,,,,,,,,,,,,,,,0,,,38,127
53664,note_on,0,0,1,,,,,,,,,,,,,,,0,,,78,127
53664,note_on,1,0,1,,,,,,,,,,,,,,,0,,,50,127
53855,note_on,191,0,1,,,,,,,,,,,,,,,0,,,78,0
53856,note_on,1,0,1,,,,,,,,,,,,,,,0,,,73,127
54047,note_on,191,0,1,,,,,,,,,,,,,,,0,,,73,0
54048,note_on,1,0,1,,,,,,,,,,,,,,,0,,,74,127
54239,note_on,191,0,1,,,,,,,,,,,,,,,0,,,74,0
54239,note_on,0,0,1,,,,,,,,,,,,,,,0,,,38,0
54239,note_on,0,0,1,,,,,,,,,,,,,,,0,,,50,0
54240,note_on,1,0,1,,,,,,,,,,,,,,,0,,,49,127
54240,note_on,0,0,1,,,,,,,,,,,,,,,0,,,76,127
54240,note_on,0,0,1,,,,,,,,,,,,,,,0,,,37,127
54431,note_on,191,0,1,,,,,,,,,,,,,,,0,,,76,0
54432,note_on,1,0,1,,,,,,,,,,,,,,,0,,,69,127
54623,note_on,191,0,1,,,,,,,,,,,,,,,0,,,69,0
54623,note_on,0,0,1,,,,,,,,,,,,,,,0,,,37,0
54623,note_on,0,0,1,,,,,,,,,,,,,,,0,,,49,0
54624,note_on,0,0,1,,,,,,,,,,,,,,,0,,,73,127
54624,note_on,0,0,1,,,,,,,,,,,,,,,0,,,76,127
54624,note_on,1,0,1,,,,,,,,,,,,,,,0,,,50,127
54624,note_on,0,0,1,,,,,,,,,,,,,,,0,,,38,127
54815,note_on,0,0,1,,,,,,,,,,,,,,,0,,,76,0
54815,note_on,191,0,1,,,,,,,,,,,,,,,0,,,73,0
54815,note_on,0,0,1,,,,,,,,,,,,,,,0,,,38,0
54815,note_on,0,0,1,,,,,,,,,,,,,,,0,,,50,0
54816,note_on,0,0,1,,,,,,,,,,,,,,,0,,,40,127
54816,note_on,0,0,1,,,,,,,,,,,,,,,0,,,74,127
54816,note_on,1,0,1,,,,,,,,,,,,,,,0,,,76,127
54816,note_on,0,0,1,,,,,,,,,,,,,,,0,,,71,127
54816,note_on,0,0,1,,,,,,,,,,,,,,,0,,,52,127
54816,note_on,0,0,1,,,,,,,,,,,,,,,0,,,73,127
54863,note_on,47,0,1,,,,,,,,,,,,,,,0,,,73,0
54863,note_on,0,0,1,,,,,,,,,,,,,,,0,,,76,0
55007,note_on,144,0,1,,,,,,,,,,,,,,,0,,,74,0
55007,note_on,0,0,1,,,,,,,,,,,,,,,0,,,71,0
55008,note_on,1,0,1,,,,,,,,,,,,,,,0,,,69,127
55008,note_on,0,0,1,,,,,,,,,,,,,,,0,,,73,127
55199,note_on,191,0,1,,,,,,,,,,,,,,,0,,,73,0
55199,note_on,0,0,1,,,,,,,,,,,,,,,0,,,40,0
55199,note_on,0,0,1,,,,,,,,,,,,,,,0,,,52,0
55199,note_on,0,0,1,,,,,,,,,,,,,,,0,,,69,0
55200,note_on,0,0,1,,,,,,,,,,,,,,,0,,,68,127
55200,note_on,0,0,1,,,,,,,,,,,,,,,0,,,71,127
55200,note_on,1,0,1,,,,,,,,,,,,,,,0,,,40,127
55200,note_on,0,0,1,,,,,,,,,,,,,,,0,,,52,127
55391,note_on,191,0,1,,,,,,,,,,,,,,,0,,,68,0
55391,note_on,0,0,1,,,,,,,,,,,,,,,0,,,40,0
55391,note_on,0,0,1,,,,,,,,,,,,,,,0,,,52,0
55391,note_on,0,0,1,,,,,,,,,,,,,,,0,,,71,0
55392,note_on,1,0,1,,,,,,,,,,,,,,,0,,,69,127
55392,note_on,0,0,1,,,,,,,,,,,,,,,0,,,45,127
55583,note_on,191,0,1,,,,,,,,,,,,,,,0,,,69,0
55584,note_on,1,0,1,,,,,,,,,,,,,,,0,,,68,127
55775,note_on,191,0,1,,,,,,,,,,,,,,,0,,,68,0
55776,note_on,1,0,1,,,,,,,,,,,,,,,0,,,69,127
55967,note_on,191,0,1,,,,,,,,,,,,,,,0,,,69,0
55967,note_on,0,0,1,,,,,,,,,,,,,,,0,,,45,0
55968,note_on,1,0,1,,,,,,,,,,,,,,,0,,,50,127
55968,note_on,0,0,1,,,,,,,,,,,,,,,0,,,71,127
55968,note_on,0,0,1,,,,,,,,,,,,,,,0,,,38,127
56159,note_on,191,0,1,,,,,,,,,,,,,,,0,,,71,0
56160,note_on,1,0,1,,,,,,,,,,,,,,,0,,,66,127
56351,note_on,191,0,1,,,,,,,,,,,,,,,0,,,66,0
56352,note_on,1,0,1,,,,,,,,,,,,,,,0,,,68,127
56543,note_on,191,0,1,,,,,,,,,,,,,,,0,,,68,0
56543,note_on,0,0,1,,,,,,,,,,,,,,,0,,,50,0
56543,note_on,0,0,1,,,,,,,,,,,,,,,0,,,38,0
56544,note_on,1,0,1,,,,,,,,,,,,,,,0,,,69,127
56544,note_on,0,0,1,,,,,,,,,,,,,,,0,,,37,127
56544,note_on,0,0,1,,,,,,,,,,,,,,,0,,,49,127
56736,note_on,192,0,1,,,,,,,,,,,,,,,0,,,64,127
56927,note_on,191,0,1,,,,,,,,,,,,,,,0,,,64,0
56927,note_on,0,0,1,,,,,,,,,,,,,,,0,,,49,0
56927,note_on,0,0,1,,,,,,,,,,,,,,,0,,,37,0
56928,note_on,1,0,1,,,,,,,,,,,,,,,0,,,38,127
56928,note_on,0,0,1,,,,,,,,,,,,,,,0,,,50,127
56928,note_on,0,0,1,,,,,,,,,,,,,,,0,,,66,127
57119,note_on,191,0,1,,,,,,,,,,,,,,,0,,,66,0
57119,note_on,0,0,1,,,,,,,,,,,,,,,0,,,50,0
57119,note_on,0,0,1,,,,,,,,,,,,,,,0,,,38,0
57120,note_on,0,0,1,,,,,,,,,,,,,,,0,,,61,127
57120,note_on,1,0,1,,,,,,,,,,,,,,,0,,,52,127
57120,note_on,0,0,1,,,,,,,,,,,,,,,0,,,40,127
57311,note_on,191,0,1,,,,,,,,,,,,,,,0,,,61,0
57312,note_on,1,0,1,,,,,,,,,,,,,,,0,,,62,127
57503,note_on,0,0,1,,,,,,,,,,,,,,,0,,,52,0
57503,note_on,0,0,1,,,,,,,,,,,,,,,0,,,69,0
57503,note_on,191,0,1,,,,,,,,,,,,,,,0,,,62,0
57503,note_on,0,0,1,,,,,,,,,,,,,,,0,,,40,0
57504,note_on,1,0,1,,,,,,,,,,,,,,,0,,,50,127
57504,note_on,0,0,1,,,,,,,,,,,,,,,0,,,38,127
57504,note_on,0,0,1,,,,,,,,,,,,,,,0,,,59,127
57504,note_on,0,0,1,,,,,,,,,,,,,,,0,,,68,127
57695,note_on,191,0,1,,,,,,,,,,,,,,,0,,,68,0
57695,note_on,0,0,1,,,,,,,,,,,,,,,0,,,50,0
57695,note_on,0,0,1,,,,,,,,,,,,,,,0,,,38,0
57695,note_on,0,0,1,,,,,,,,,,,,,,,0,,,59,0
57696,note_on,1,0,1,,,,,,,,,,,,,,,0,,,69,127
57696,note_on,0,0,1,,,,,,,,,,,,,,,0,,,49,127
57696,note_on,0,0,1,,,,,,,,,,,,,,,0,,,37,127
57888,note_on,192,0,1,,,,,,,,,,,,,,,0,,,64,127
58079,note_on,0,0,1,,,,,,,,,,,,,,,0,,,49,0
58079,note_on,191,0,1,,,,,,,,,,,,,,,0,,,64,0
58079,note_on,0,0,1,,,,,,,,,,,,,,,0,,,37,0
58080,note_on,1,0,1,,,,,,,,,,,,,,,0,,,66,127
58080,note_on,0,0,1,,,,,,,,,,,,,,,0,,,38,127
58080,note_on,0,0,1,,,,,,,,,,,,,,,0,,,50,127
58271,note_on,191,0,1,,,,,,,,,,,,,,,0,,,38,0
58271,note_on,0,0,1,,,,,,,,,,,,,,,0,,,66,0
58271,note_on,0,0,1,,,,,,,,,,,,,,,0,,,50,0
58272,note_on,1,0,1,,,,,,,,,,,,,,,0,,,61,127
58272,note_on,0,0,1,,,,,,,,,,,,,,,0,,,52,127
58272,note_on,0,0,1,,,,,,,,,,,,,,,0,,,40,127
58463,note_on,191,0,1,,,,,,,,,,,,,,,0,,,61,0
58464,note_on,1,0,1,,,,,,,,,,,,,,,0,,,62,127
58655,note_on,0,0,1,,,,,,,,,,,,,,,0,,,40,0
58655,note_on,191,0,1,,,,,,,,,,,,,,,0,,,62,0
58655,note_on,0,0,1,,,,,,,,,,,,,,,0,,,52,0
58655,note_on,0,0,1,,,,,,,,,,,,,,,0,,,69,0
58656,note_on,0,0,1,,,,,,,,,,,,,,,0,,,38,127
58656,note_on,1,0,1,,,,,,,,,,,,,,,0,,,68,127
58656,note_on,0,0,1,,,,,,,,,,,,,,,0,,,50,127
58656,note_on,0,0,1,,,,,,,,,,,,,,,0,,,59,127
58847,note_on,191,0,1,,,,,,,,,,,,,,,0,,,38,0
58847,note_on,0,0,1,,,,,,,,,,,,,,,0,,,68,0
58847,note_on,0,0,1,,,,,,,,,,,,,,,0,,,59,0
58847,note_on,0,0,1,,,,,,,,,,,,,,,0,,,50,0
58848,note_on,1,0,1,,,,,,,,,,,,,,,0,,,69,127
58848,note_on,0,0,1,,,,,,,,,,,,,,,0,,,49,127
58848,note_on,0,0,1,,,,,,,,,,,,,,,0,,,37,127
59040,note_on,192,0,1,,,,,,,,,,,,,,,0,,,64,127
59231,note_on,191,0,1,,,,,,,,,,,,,,,0,,,64,0
59231,note_on,0,0,1,,,,,,,,,,,,,,,0,,,37,0
59231,note_on,0,0,1,,,,,,,,,,,,,,,0,,,49,0
59232,note_on,0,0,1,,,,,,,,,,,,,,,0,,,38,127
59232,note_on,1,0,1,,,,,,,,,,,,,,,0,,,66,127
59232,note_on,0,0,1,,,,,,,,,,,,,,,0,,,50,127
59423,note_on,191,0,1,,,,,,,,,,,,,,,0,,,38,0
59423,note_on,0,0,1,,,,,,,,,,,,,,,0,,,50,0
59423,note_on,0,0,1,,,,,,,,,,,,,,,0,,,66,0
59424,note_on,0,0,1,,,,,,,,,,,,,,,0,,,52,127
59424,note_on,0,0,1,,,,,,,,,,,,,,,0,,,40,127
59424,note_on,1,0,1,,,,,,,,,,,,,,,0,,,61,127
59615,note_on,191,0,1,,,,,,,,,,,,,,,0,,,61,0
59616,note_on,1,0,1,,,,,,,,,,,,,,,0,,,62,127
59807,note_on,0,0,1,,,,,,,,,,,,,,,0,,,69,0
59807,note_on,191,0,1,,,,,,,,,,,,,,,0,,,62,0
59808,note_on,1,0,1,,,,,,,,,,,,,,,0,,,68,127
59808,note_on,0,0,1,,,,,,,,,,,,,,,0,,,59,127
59999,note_on,191,0,1,,,,,,,,,,,,,,,0,,,59,0
59999,note_on,0,0,1,,,,,,,,,,,,,,,0,,,40,0
59999,note_on,0,0,1,,,,,,,,,,,,,,,0,,,52,0
59999,note_on,0,0,1,,,,,,,,,,,,,,,0,,,68,0
60000,note_on,0,0,1,,,,,,,,,,,,,,,0,,,69,127
60000,note_on,1,0,1,,,,,,,,,,,,,,,0,,,57,127
60000,note_on,0,0,1,,,,,,,,,,,,,,,0,,,45,127
61151,note_on,1151,0,1,,,,,,,,,,,,,,,0,,,69,0
61151,note_on,0,0,1,,,,,,,,,,,,,,,0,,,45,0
61151,note_on,0,0,1,,,,,,,,,,,,,,,0,,,57,0
61152,note_on,1,0,1,,,,,,,,,,,,,,,0,,,57,127
61344,note_on,192,0,1,,,,,,,,,,,,,,,0,,,69,127
61535,note_on,191,0,1,,,,,,,,,,,,,,,0,,,69,0
61536,note_on,1,0,1,,,,,,,,,,,,,,,0,,,69,127
61728,note_on,192,0,1,,,,,,,,,,,,,,,0,,,71,127
61919,note_on,191,0,1,,,,,,,,,,,,,,,0,,,69,0
61920,note_on,1,0,1,,,,,,,,,,,,,,,0,,,67,127
62111,note_on,191,0,1,,,,,,,,,,,,,,,0,,,67,0
62112,note_on,1,0,1,,,,,,,,,,,,,,,0,,,67,127
62303,note_on,191,0,1,,,,,,,,,,,,,,,0,,,71,0
62303,note_on,0,0,1,,,,,,,,,,,,,,,0,,,57,0
62304,note_on,1,0,1,,,,,,,,,,,,,,,0,,,57,127
62304,note_on,0,0,1,,,,,,,,,,,,,,,0,,,73,127
62495,note_on,191,0,1,,,,,,,,,,,,,,,0,,,73,0
62496,note_on,1,0,1,,,,,,,,,,,,,,,0,,,69,127
62687,note_on,0,0,1,,,,,,,,,,,,,,,0,,,67,0
62687,note_on,191,0,1,,,,,,,,,,,,,,,0,,,69,0
62688,note_on,0,0,1,,,,,,,,,,,,,,,0,,,66,127
62688,note_on,1,0,1,,,,,,,,,,,,,,,0,,,74,127
62879,note_on,191,0,1,,,,,,,,,,,,,,,0,,,66,0
62879,note_on,0,0,1,,,,,,,,,,,,,,,0,,,74,0
62880,note_on,1,0,1,,,,,,,,,,,,,,,0,,,64,127
62880,note_on,0,0,1,,,,,,,,,,,,,,,0,,,76,127
63071,note_on,191,0,1,,,,,,,,,,,,,,,0,,,76,0
63072,note_on,1,0,1,,,,,,,,,,,,,,,0,,,73,127
63263,note_on,191,0,1,,,,,,,,,,,,,,,0,,,73,0
63263,note_on,0,0,1,,,,,,,,,,,,,,,0,,,64,0
63264,note_on,1,0,1,,,,,,,,,,,,,,,0,,,62,127
63264,note_on,0,0,1,,,,,,,,,,,,,,,0,,,78,127
63455,note_on,191,0,1,,,,,,,,,,,,,,,0,,,78,0
63455,note_on,0,0,1,,,,,,,,,,,,,,,0,,,62,0
63455,note_on,0,0,1,,,,,,,,,,,,,,,0,,,57,0
63456,note_on,1,0,1,,,,,,,,,,,,,,,0,,,76,127
63456,note_on,0,0,1,,,,,,,,,,,,,,,0,,,57,127
63648,note_on,192,0,1,,,,,,,,,,,,,,,0,,,69,127
63839,note_on,0,0,1,,,,,,,,,,,,,,,0,,,76,0
63839,note_on,191,0,1,,,,,,,,,,,,,,,0,,,69,0
63840,note_on,1,0,1,,,,,,,,,,,,,,,0,,,69,127
64032,note_on,192,0,1,,,,,,,,,,,,,,,0,,,71,127
64223,note_on,191,0,1,,,,,,,,,,,,,,,0,,,69,0
64224,note_on,1,0,1,,,,,,,,,,,,,,,0,,,67,127
64415,note_on,191,0,1,,,,,,,,,,,,,,,0,,,67,0
64416,note_on,1,0,1,,,,,,,,,,,,,,,0,,,67,127
64607,note_on,191,0,1,,,,,,,,,,,,,,,0,,,71,0
64607,note_on,0,0,1,,,,,,,,,,,,,,,0,,,57,0
64608,note_on,1,0,1,,,,,,,,,,,,,,,0,,,73,127
64608,note_on,0,0,1,,,,,,,,,,,,,,,0,,,57,127
64799,note_on,191,0,1,,,,,,,,,,,,,,,0,,,73,0
64800,note_on,1,0,1,,,,,,,,,,,,,,,0,,,69,127
64991,note_on,191,0,1,,,,,,,,,,,,,,,0,,,69,0
64991,note_on,0,0,1,,,,,,,,,,,,,,,0,,,67,0
64992,note_on,1,0,1,,,,,,,,,,,,,,,0,,,74,127
64992,note_on,0,0,1,,,,,,,,,,,,,,,0,,,66,127
65183,note_on,191,0,1,,,,,,,,,,,,,,,0,,,66,0
65183,note_on,0,0,1,,,,,,,,,,,,,,,0,,,74,0
65184,note_on,1,0,1,,,,,,,,,,,,,,,0,,,76,127
65184,note_on,0,0,1,,,,,,,,,,,,,,,0,,,64,127
65375,note_on,191,0,1,,,,,,,,,,,,,,,0,,,76,0
65376,note_on,1,0,1,,,,,,,,,,,,,,,0,,,73,127
65567,note_on,0,0,1,,,,,,,,,,,,,,,0,,,64,0
65567,note_on,191,0,1,,,,,,,,,,,,,,,0,,,73,0
65568,note_on,1,0,1,,,,,,,,,,,,,,,0,,,78,127
65568,note_on,0,0,1,,,,,,,,,,,,,,,0,,,62,127
65759,note_on,191,0,1,,,,,,,,,,,,,,,0,,,62,0
65759,note_on,0,0,1,,,,,,,,,,,,,,,0,,,78,0
65759,note_on,0,0,1,,,,,,,,,,,,,,,0,,,57,0
65760,note_on,1,0,1,,,,,,,,,,,,,,,0,,,76,127
65760,note_on,0,0,1,,,,,,,,,,,,,,,0,,,57,127
65951,note_on,191,0,1,,,,,,,,,,,,,,,0,,,76,0
65952,note_on,1,0,1,,,,,,,,,,,,,,,0,,,75,127
66143,note_on,191,0,1,,,,,,,,,,,,,,,0,,,75,0
66144,note_on,1,0,1,,,,,,,,,,,,,,,0,,,75,127
66335,note_on,191,0,1,,,,,,,,,,,,,,,0,,,75,0
66335,note_on,0,0,1,,,,,,,,,,,,,,,0,,,57,0
66336,note_on,0,0,1,,,,,,,,,,,,,,,0,,,76,127
66336,note_on,1,0,1,,,,,,,,,,,,,,,0,,,69,127
66336,note_on,0,0,1,,,,,,,,,,,,,,,0,,,72,127
66527,note_on,191,0,1,,,,,,,,,,,,,,,0,,,76,0
66528,note_on,1,0,1,,,,,,,,,,,,,,,0,,,75,127
66719,note_on,191,0,1,,,,,,,,,,,,,,,0,,,75,0
66720,note_on,1,0,1,,,,,,,,,,,,,,,0,,,75,127
66911,note_on,191,0,1,,,,,,,,,,,,,,,0,,,75,0
66911,note_on,0,0,1,,,,,,,,,,,,,,,0,,,72,0
66911,note_on,0,0,1,,,,,,,,,,,,,,,0,,,69,0
66912,note_on,1,0,1,,,,,,,,,,,,,,,0,,,76,127
66912,note_on,0,0,1,,,,,,,,,,,,,,,0,,,67,127
66912,note_on,0,0,1,,,,,,,,,,,,,,,0,,,71,127
67103,note_on,191,0,1,,,,,,,,,,,,,,,0,,,76,0
67104,note_on,1,0,1,,,,,,,,,,,,,,,0,,,75,127
67295,note_on,191,0,1,,,,,,,,,,,,,,,0,,,75,0
67296,note_on,1,0,1,,,,,,,,,,,,,,,0,,,75,127
67487,note_on,191,0,1,,,,,,,,,,,,,,,0,,,75,0
67487,note_on,0,0,1,,,,,,,,,,,,,,,0,,,71,0
67487,note_on,0,0,1,,,,,,,,,,,,,,,0,,,67,0
67488,note_on,0,0,1,,,,,,,,,,,,,,,0,,,76,127
67488,note_on,1,0,1,,,,,,,,,,,,,,,0,,,72,127
67488,note_on,0,0,1,,,,,,,,,,,,,,,0,,,69,127
67679,note_on,191,0,1,,,,,,,,,,,,,,,0,,,76,0
67680,note_on,1,0,1,,,,,,,,,,,,,,,0,,,75,127
67871,note_on,191,0,1,,,,,,,,,,,,,,,0,,,75,0
67872,note_on,1,0,1,,,,,,,,,,,,,,,0,,,75,127
68063,note_on,191,0,1,,,,,,,,,,,,,,,0,,,75,0
68063,note_on,0,0,1,,,,,,,,,,,,,,,0,,,69,0
68063,note_on,0,0,1,,,,,,,,,,,,,,,0,,,72,0
68064,note_on,1,0,1,,,,,,,,,,,,,,,0,,,71,127
68064,note_on,0,0,1,,,,,,,,,,,,,,,0,,,76,127
68064,note_on,0,0,1,,,,,,,,,,,,,,,0,,,67,127
68255,note_on,191,0,1,,,,,,,,,,,,,,,0,,,76,0
68256,note_on,1,0,1,,,,,,,,,,,,,,,0,,,75,127
68447,note_on,191,0,1,,,,,,,,,,,,,,,0,,,75,0
68448,note_on,1,0,1,,,,,,,,,,,,,,,0,,,76,127
68639,note_on,191,0,1,,,,,,,,,,,,,,,0,,,76,0
68639,note_on,0,0,1,,,,,,,,,,,,,,,0,,,67,0
68639,note_on,0,0,1,,,,,,,,,,,,,,,0,,,71,0
68640,note_on,0,0,1,,,,,,,,,,,,,,,0,,,78,127
68640,note_on,1,0,1,,,,,,,,,,,,,,,0,,,69,127
68640,note_on,0,0,1,,,,,,,,,,,,,,,0,,,66,127
68831,note_on,191,0,1,,,,,,,,,,,,,,,0,,,78,0
68832,note_on,1,0,1,,,,,,,,,,,,,,,0,,,79,127
69023,note_on,191,0,1,,,,,,,,,,,,,,,0,,,79,0
69024,note_on,1,0,1,,,,,,,,,,,,,,,0,,,81,127
69215,note_on,191,0,1,,,,,,,,,,,,,,,0,,,81,0
69215,note_on,0,0,1,,,,,,,,,,,,,,,0,,,66,0
69215,note_on,0,0,1,,,,,,,,,,,,,,,0,,,69,0
69216,note_on,1,0,1,,,,,,,,,,,,,,,0,,,67,127
69216,note_on,0,0,1,,,,,,,,,,,,,,,0,,,79,127
69216,note_on,0,0,1,,,,,,,,,,,,,,,0,,,64,127
69407,note_on,191,0,1,,,,,,,,,,,,,,,0,,,79,0
69408,note_on,1,0,1,,,,,,,,,,,,,,,0,,,79,127
69599,note_on,191,0,1,,,,,,,,,,,,,,,0,,,79,0
69600,note_on,1,0,1,,,,,,,,,,,,,,,0,,,78,127
69791,note_on,191,0,1,,,,,,,,,,,,,,,0,,,78,0
69791,note_on,0,0,1,,,,,,,,,,,,,,,0,,,64,0
69791,note_on,0,0,1,,,,,,,,,,,,,,,0,,,67,0
69792,note_on,1,0,1,,,,,,,,,,,,,,,0,,,78,127
69792,note_on,0,0,1,,,,,,,,,,,,,,,0,,,76,127
69983,note_on,191,0,1,,,,,,,,,,,,,,,0,,,76,0
69983,note_on,0,0,1,,,,,,,,,,,,,,,0,,,78,0
69984,note_on,1,0,1,,,,,,,,,,,,,,,0,,,74,127
70175,note_on,191,0,1,,,,,,,,,,,,,,,0,,,74,0
70176,note_on,1,0,1,,,,,,,,,,,,,,,0,,,73,127
70367,note_on,191,0,1,,,,,,,,,,,,,,,0,,,73,0
70368,note_on,0,0,1,,,,,,,,,,,,,,,0,,,67,127
70368,note_on,0,0,1,,,,,,,,,,,,,,,0,,,64,127
70368,note_on,1,0,1,,,,,,,,,,,,,,,0,,,71,127
70559,note_on,191,0,1,,,,,,,,,,,,,,,0,,,71,0
70560,note_on,1,0,1,,,,,,,,,,,,,,,0,,,70,127
70751,note_on,191,0,1,,,,,,,,,,,,,,,0,,,70,0
70752,note_on,1,0,1,,,,,,,,,,,,,,,0,,,70,127
70943,note_on,191,0,1,,,,,,,,,,,,,,,0,,,70,0
70943,note_on,0,0,1,,,,,,,,,,,,,,,0,,,64,0
70943,note_on,0,0,1,,,,,,,,,,,,,,,0,,,67,0
70944,note_on,1,0,1,,,,,,,,,,,,,,,0,,,71,127
70944,note_on,0,0,1,,,,,,,,,,,,,,,0,,,64,127
70944,note_on,0,0,1,,,,,,,,,,,,,,,0,,,67,127
71135,note_on,191,0,1,,,,,,,,,,,,,,,0,,,71,0
71136,note_on,1,0,1,,,,,,,,,,,,,,,0,,,70,127
71327,note_on,191,0,1,,,,,,,,,,,,,,,0,,,70,0
71328,note_on,1,0,1,,,,,,,,,,,,,,,0,,,70,127
71519,note_on,0,0,1,,,,,,,,,,,,,,,0,,,67,0
71519,note_on,191,0,1,,,,,,,,,,,,,,,0,,,70,0
71519,note_on,0,0,1,,,,,,,,,,,,,,,0,,,64,0
71520,note_on,1,0,1,,,,,,,,,,,,,,,0,,,71,127
71520,note_on,0,0,1,,,,,,,,,,,,,,,0,,,66,127
71520,note_on,0,0,1,,,,,,,,,,,,,,,0,,,62,127
71711,note_on,191,0,1,,,,,,,,,,,,,,,0,,,71,0
71712,note_on,1,0,1,,,,,,,,,,,,,,,0,,,70,127
71903,note_on,191,0,1,,,,,,,,,,,,,,,0,,,70,0
71904,note_on,1,0,1,,,,,,,,,,,,,,,0,,,70,127
72095,note_on,191,0,1,,,,,,,,,,,,,,,0,,,70,0
72095,note_on,0,0,1,,,,,,,,,,,,,,,0,,,66,0
72095,note_on,0,0,1,,,,,,,,,,,,,,,0,,,62,0
72096,note_on,1,0,1,,,,,,,,,,,,,,,0,,,67,127
72096,note_on,0,0,1,,,,,,,,,,,,,,,0,,,71,127
72096,note_on,0,0,1,,,,,,,,,,,,,,,0,,,64,127
72287,note_on,191,0,1,,,,,,,,,,,,,,,0,,,71,0
72288,note_on,1,0,1,,,,,,,,,,,,,,,0,,,70,127
72479,note_on,191,0,1,,,,,,,,,,,,,,,0,,,70,0
72480,note_on,1,0,1,,,,,,,,,,,,,,,0,,,70,127
72671,note_on,0,0,1,,,,,,,,,,,,,,,0,,,67,0
72671,note_on,191,0,1,,,,,,,,,,,,,,,0,,,70,0
72671,note_on,0,0,1,,,,,,,,,,,,,,,0,,,64,0
72672,note_on,1,0,1,,,,,,,,,,,,,,,0,,,62,127
72672,note_on,0,0,1,,,,,,,,,,,,,,,0,,,66,127
72672,note_on,0,0,1,,,,,,,,,,,,,,,0,,,71,127
72863,note_on,191,0,1,,,,,,,,,,,,,,,0,,,71,0
72864,note_on,1,0,1,,,,,,,,,,,,,,,0,,,78,127
73055,note_on,191,0,1,,,,,,,,,,,,,,,0,,,78,0
73056,note_on,1,0,1,,,,,,,,,,,,,,,0,,,76,127
73247,note_on,191,0,1,,,,,,,,,,,,,,,0,,,76,0
73247,note_on,0,0,1,,,,,,,,,,,,,,,0,,,66,0
73247,note_on,0,0,1,,,,,,,,,,,,,,,0,,,62,0
73248,note_on,1,0,1,,,,,,,,,,,,,,,0,,,76,127
73248,note_on,0,0,1,,,,,,,,,,,,,,,0,,,74,127
73427,note_on,179,0,1,,,,,,,,,,,,,,,0,,,76,0
73439,note_on,12,0,1,,,,,,,,,,,,,,,0,,,74,0
73440,note_on,1,0,1,,,,,,,,,,,,,,,0,,,73,127
73631,note_on,191,0,1,,,,,,,,,,,,,,,0,,,73,0
73632,note_on,1,0,1,,,,,,,,,,,,,,,0,,,71,127
73823,note_on,191,0,1,,,,,,,,,,,,,,,0,,,71,0
73824,note_on,0,0,1,,,,,,,,,,,,,,,0,,,69,127
73824,note_on,1,0,1,,,,,,,,,,,,,,,0,,,62,127
73824,note_on,0,0,1,,,,,,,,,,,,,,,0,,,65,127
74015,note_on,191,0,1,,,,,,,,,,,,,,,0,,,69,0
74016,note_on,1,0,1,,,,,,,,,,,,,,,0,,,68,127
74207,note_on,191,0,1,,,,,,,,,,,,,,,0,,,68,0
74208,note_on,1,0,1,,,,,,,,,,,,,,,0,,,68,127
74399,note_on,0,0,1,,,,,,,,,,,,,,,0,,,65,0
74399,note_on,191,0,1,,,,,,,,,,,,,,,0,,,68,0
74399,note_on,0,0,1,,,,,,,,,,,,,,,0,,,62,0
74400,note_on,0,0,1,,,,,,,,,,,,,,,0,,,65,127
74400,note_on,0,0,1,,,,,,,,,,,,,,,0,,,69,127
74400,note_on,1,0,1,,,,,,,,,,,,,,,0,,,62,127
74591,note_on,191,0,1,,,,,,,,,,,,,,,0,,,69,0
74592,note_on,1,0,1,,,,,,,,,,,,,,,0,,,68,127
74783,note_on,191,0,1,,,,,,,,,,,,,,,0,,,68,0
74784,note_on,1,0,1,,,,,,,,,,,,,,,0,,,68,127
74975,note_on,191,0,1,,,,,,,,,,,,,,,0,,,68,0
74975,note_on,0,0,1,,,,,,,,,,,,,,,0,,,65,0
74975,note_on,0,0,1,,,,,,,,,,,,,,,0,,,62,0
74976,note_on,1,0,1,,,,,,,,,,,,,,,0,,,60,127
74976,note_on,0,0,1,,,,,,,,,,,,,,,0,,,64,127
74976,note_on,0,0,1,,,,,,,,,,,,,,,0,,,69,127
75167,note_on,191,0,1,,,,,,,,,,,,,,,0,,,69,0
75168,note_on,1,0,1,,,,,,,,,,,,,,,0,,,68,127
75359,note_on,191,0,1,,,,,,,,,,,,,,,0,,,68,0
75360,note_on,1,0,1,,,,,,,,,,,,,,,0,,,68,127
75551,note_on,191,0,1,,,,,,,,,,,,,,,0,,,68,0
75551,note_on,0,0,1,,,,,,,,,,,,,,,0,,,64,0
75551,note_on,0,0,1,,,,,,,,,,,,,,,0,,,60,0
75552,note_on,1,0,1,,,,,,,,,,,,,,,0,,,69,127
75552,note_on,0,0,1,,,,,,,,,,,,,,,0,,,62,127
75552,note_on,0,0,1,,,,,,,,,,,,,,,0,,,65,127
75743,note_on,191,0,1,,,,,,,,,,,,,,,0,,,69,0
75744,note_on,1,0,1,,,,,,,,,,,,,,,0,,,68,127
75935,note_on,191,0,1,,,,,,,,,,,,,,,0,,,68,0
75936,note_on,1,0,1,,,,,,,,,,,,,,,0,,,68,127
76127,note_on,191,0,1,,,,,,,,,,,,,,,0,,,68,0
76127,note_on,0,0,1,,,,,,,,,,,,,,,0,,,65,0
76127,note_on,0,0,1,,,,,,,,,,,,,,,0,,,62,0
76128,note_on,0,0,1,,,,,,,,,,,,,,,0,,,69,127
76128,note_on,1,0,1,,,,,,,,,,,,,,,0,,,60,127
76128,note_on,0,0,1,,,,,,,,,,,,,,,0,,,64,127
76319,note_on,191,0,1,,,,,,,,,,,,,,,0,,,69,0
76320,note_on,1,0,1,,,,,,,,,,,,,,,0,,,76,127
76511,note_on,191,0,1,,,,,,,,,,,,,,,0,,,76,0
76512,note_on,1,0,1,,,,,,,,,,,,,,,0,,,74,127
76703,note_on,0,0,1,,,,,,,,,,,,,,,0,,,60,0
76703,note_on,191,0,1,,,,,,,,,,,,,,,0,,,74,0
76703,note_on,0,0,1,,,,,,,,,,,,,,,0,,,64,0
76704,note_on,1,0,1,,,,,,,,,,,,,,,0,,,74,127
76704,note_on,0,0,1,,,,,,,,,,,,,,,0,,,72,127
76868,note_on,164,0,1,,,,,,,,,,,,,,,0,,,74,0
76895,note_on,27,0,1,,,,,,,,,,,,,,,0,,,72,0
76896,note_on,1,0,1,,,,,,,,,,,,,,,0,,,71,127
77087,note_on,191,0,1,,,,,,,,,,,,,,,0,,,71,0
77088,note_on,1,0,1,,,,,,,,,,,,,,,0,,,69,127
77279,note_on,191,0,1,,,,,,,,,,,,,,,0,,,69,0
77280,note_on,1,0,1,,,,,,,,,,,,,,,0,,,67,127
77280,note_on,0,0,1,,,,,,,,,,,,,,,0,,,64,127
77280,note_on,0,0,1,,,,,,,,,,,,,,,0,,,60,127
77471,note_on,191,0,1,,,,,,,,,,,,,,,0,,,67,0
77472,note_on,1,0,1,,,,,,,,,,,,,,,0,,,66,127
77663,note_on,191,0,1,,,,,,,,,,,,,,,0,,,66,0
77664,note_on,1,0,1,,,,,,,,,,,,,,,0,,,66,127
77855,note_on,191,0,1,,,,,,,,,,,,,,,0,,,66,0
77855,note_on,0,0,1,,,,,,,,,,,,,,,0,,,60,0
77855,note_on,0,0,1,,,,,,,,,,,,,,,0,,,64,0
77856,note_on,1,0,1,,,,,,,,,,,,,,,0,,,64,127
77856,note_on,0,0,1,,,,,,,,,,,,,,,0,,,60,127
77856,note_on,0,0,1,,,,,,,,,,,,,,,0,,,67,127
78047,note_on,191,0,1,,,,,,,,,,,,,,,0,,,67,0
78048,note_on,1,0,1,,,,,,,,,,,,,,,0,,,66,127
78239,note_on,191,0,1,,,,,,,,,,,,,,,0,,,66,0
78240,note_on,1,0,1,,,,,,,,,,,,,,,0,,,66,127
78431,note_on,191,0,1,,,,,,,,,,,,,,,0,,,66,0
78431,note_on,0,0,1,,,,,,,,,,,,,,,0,,,60,0
78431,note_on,0,0,1,,,,,,,,,,,,,,,0,,,64,0
78432,note_on,1,0,1,,,,,,,,,,,,,,,0,,,59,127
78432,note_on,0,0,1,,,,,,,,,,,,,,,0,,,62,127
78432,note_on,0,0,1,,,,,,,,,,,,,,,0,,,67,127
78623,note_on,191,0,1,,,,,,,,,,,,,,,0,,,67,0
78624,note_on,1,0,1,,,,,,,,,,,,,,,0,,,66,127
78815,note_on,191,0,1,,,,,,,,,,,,,,,0,,,66,0
78816,note_on,1,0,1,,,,,,,,,,,,,,,0,,,66,127
79007,note_on,0,0,1,,,,,,,,,,,,,,,0,,,59,0
79007,note_on,191,0,1,,,,,,,,,,,,,,,0,,,66,0
79007,note_on,0,0,1,,,,,,,,,,,,,,,0,,,62,0
79008,note_on,0,0,1,,,,,,,,,,,,,,,0,,,67,127
79008,note_on,0,0,1,,,,,,,,,,,,,,,0,,,64,127
79008,note_on,1,0,1,,,,,,,,,,,,,,,0,,,60,127
79199,note_on,191,0,1,,,,,,,,,,,,,,,0,,,67,0
79200,note_on,1,0,1,,,,,,,,,,,,,,,0,,,66,127
79391,note_on,191,0,1,,,,,,,,,,,,,,,0,,,66,0
79392,note_on,1,0,1,,,,,,,,,,,,,,,0,,,66,127
79583,note_on,0,0,1,,,,,,,,,,,,,,,0,,,64,0
79583,note_on,0,0,1,,,,,,,,,,,,,,,0,,,60,0
79583,note_on,191,0,1,,,,,,,,,,,,,,,0,,,66,0
79584,note_on,1,0,1,,,,,,,,,,,,,,,0,,,59,127
79584,note_on,0,0,1,,,,,,,,,,,,,,,0,,,62,127
79584,note_on,0,0,1,,,,,,,,,,,,,,,0,,,67,127
79775,note_on,191,0,1,,,,,,,,,,,,,,,0,,,67,0
79776,note_on,1,0,1,,,,,,,,,,,,,,,0,,,74,127
79967,note_on,191,0,1,,,,,,,,,,,,,,,0,,,74,0
79968,note_on,1,0,1,,,,,,,,,,,,,,,0,,,72,127
80159,note_on,191,0,1,,,,,,,,,,,,,,,0,,,72,0
80160,note_on,1,0,1,,,,,,,,,,,,,,,0,,,72,127
80160,note_on,0,0,1,,,,,,,,,,,,,,,0,,,71,127
80309,note_on,149,0,1,,,,,,,,,,,,,,,0,,,72,0
80351,note_on,42,0,1,,,,,,,,,,,,,,,0,,,71,0
80352,note_on,1,0,1,,,,,,,,,,,,,,,0,,,69,127
80543,note_on,191,0,1,,,,,,,,,,,,,,,0,,,69,0
80544,note_on,1,0,1,,,,,,,,,,,,,,,0,,,67,127
80735,note_on,191,0,1,,,,,,,,,,,,,,,0,,,67,0
80735,note_on,0,0,1,,,,,,,,,,,,,,,0,,,62,0
80735,note_on,0,0,1,,,,,,,,,,,,,,,0,,,59,0
80736,note_on,1,0,1,,,,,,,,,,,,,,,0,,,73,127
80736,note_on,0,0,1,,,,,,,,,,,,,,,0,,,57,127
80736,note_on,0,0,1,,,,,,,,,,,,,,,0,,,45,127
80927,note_on,191,0,1,,,,,,,,,,,,,,,0,,,73,0
80928,note_on,1,0,1,,,,,,,,,,,,,,,0,,,69,127
81119,note_on,191,0,1,,,,,,,,,,,,,,,0,,,69,0
81119,note_on,0,0,1,,,,,,,,,,,,,,,0,,,45,0
81119,note_on,0,0,1,,,,,,,,,,,,,,,0,,,57,0
81120,note_on,1,0,1,,,,,,,,,,,,,,,0,,,62,127
81120,note_on,0,0,1,,,,,,,,,,,,,,,0,,,74,127
81120,note_on,0,0,1,,,,,,,,,,,,,,,0,,,54,127
81311,note_on,0,0,1,,,,,,,,,,,,,,,0,,,74,0
81311,note_on,191,0,1,,,,,,,,,,,,,,,0,,,54,0
81311,note_on,0,0,1,,,,,,,,,,,,,,,0,,,62,0
81312,note_on,1,0,1,,,,,,,,,,,,,,,0,,,52,127
81312,note_on,0,0,1,,,,,,,,,,,,,,,0,,,61,127
81312,note_on,0,0,1,,,,,,,,,,,,,,,0,,,76,127
81503,note_on,191,0,1,,,,,,,,,,,,,,,0,,,76,0
81504,note_on,1,0,1,,,,,,,,,,,,,,,0,,,69,127
81695,note_on,0,0,1,,,,,,,,,,,,,,,0,,,61,0
81695,note_on,0,0,1,,,,,,,,,,,,,,,0,,,52,0
81695,note_on,191,0,1,,,,,,,,,,,,,,,0,,,69,0
81696,note_on,1,0,1,,,,,,,,,,,,,,,0,,,62,127
81696,note_on,0,0,1,,,,,,,,,,,,,,,0,,,50,127
81696,note_on,0,0,1,,,,,,,,,,,,,,,0,,,78,127
81887,note_on,0,0,1,,,,,,,,,,,,,,,0,,,50,0
81887,note_on,0,0,1,,,,,,,,,,,,,,,0,,,62,0
81887,note_on,191,0,1,,,,,,,,,,,,,,,0,,,78,0
81888,note_on,1,0,1,,,,,,,,,,,,,,,0,,,57,127
81888,note_on,0,0,1,,,,,,,,,,,,,,,0,,,76,127
81888,note_on,0,0,1,,,,,,,,,,,,,,,0,,,45,127
82079,note_on,191,0,1,,,,,,,,,,,,,,,0,,,76,0
82080,note_on,1,0,1,,,,,,,,,,,,,,,0,,,69,127
82271,note_on,0,0,1,,,,,,,,,,,,,,,0,,,57,0
82271,note_on,191,0,1,,,,,,,,,,,,,,,0,,,69,0
82271,note_on,0,0,1,,,,,,,,,,,,,,,0,,,45,0
82272,note_on,0,0,1,,,,,,,,,,,,,,,0,,,74,127
82272,note_on,1,0,1,,,,,,,,,,,,,,,0,,,54,127
82272,note_on,0,0,1,,,,,,,,,,,,,,,0,,,62,127
82463,note_on,191,0,1,,,,,,,,,,,,,,,0,,,74,0
82463,note_on,0,0,1,,,,,,,,,,,,,,,0,,,62,0
82463,note_on,0,0,1,,,,,,,,,,,,,,,0,,,54,0
82464,note_on,1,0,1,,,,,,,,,,,,,,,0,,,64,127
82464,note_on,0,0,1,,,,,,,,,,,,,,,0,,,52,127
82464,note_on,0,0,1,,,,,,,,,,,,,,,0,,,76,127
82655,note_on,191,0,1,,,,,,,,,,,,,,,0,,,76,0
82656,note_on,1,0,1,,,,,,,,,,,,,,,0,,,69,127
82847,note_on,191,0,1,,,,,,,,,,,,,,,0,,,69,0
82847,note_on,0,0,1,,,,,,,,,,,,,,,0,,,52,0
82847,note_on,0,0,1,,,,,,,,,,,,,,,0,,,64,0
82848,note_on,0,0,1,,,,,,,,,,,,,,,0,,,78,127
82848,note_on,1,0,1,,,,,,,,,,,,,,,0,,,62,127
82848,note_on,0,0,1,,,,,,,,,,,,,,,0,,,50,127
83039,note_on,191,0,1,,,,,,,,,,,,,,,0,,,78,0
83039,note_on,0,0,1,,,,,,,,,,,,,,,0,,,50,0
83039,note_on,0,0,1,,,,,,,,,,,,,,,0,,,62,0
83040,note_on,1,0,1,,,,,,,,,,,,,,,0,,,76,127
83112,note_on,72,0,1,,,,,,,,,,,,,,,0,,,45,127
83183,note_on,71,0,1,,,,,,,,,,,,,,,0,,,45,0
83184,note_on,1,0,1,,,,,,,,,,,,,,,0,,,47,127
83255,note_on,71,0,1,,,,,,,,,,,,,,,0,,,47,0
83256,note_on,1,0,1,,,,,,,,,,,,,,,0,,,49,127
83327,note_on,71,0,1,,,,,,,,,,,,,,,0,,,49,0
83328,note_on,1,0,1,,,,,,,,,,,,,,,0,,,50,127
83399,note_on,71,0,1,,,,,,,,,,,,,,,0,,,50,0
83400,note_on,1,0,1,,,,,,,,,,,,,,,0,,,52,127
83471,note_on,71,0,1,,,,,,,,,,,,,,,0,,,52,0
83472,note_on,1,0,1,,,,,,,,,,,,,,,0,,,54,127
83543,note_on,71,0,1,,,,,,,,,,,,,,,0,,,54,0
83544,note_on,1,0,1,,,,,,,,,,,,,,,0,,,56,127
83615,note_on,71,0,1,,,,,,,,,,,,,,,0,,,56,0
83616,note_on,1,0,1,,,,,,,,,,,,,,,0,,,57,127
83807,note_on,191,0,1,,,,,,,,,,,,,,,0,,,76,0
83808,note_on,1,0,1,,,,,,,,,,,,,,,0,,,81,127
83999,note_on,191,0,1,,,,,,,,,,,,,,,0,,,81,0
84000,note_on,1,0,1,,,,,,,,,,,,,,,0,,,79,127
84191,note_on,0,0,1,,,,,,,,,,,,,,,0,,,57,0
84191,note_on,191,0,1,,,,,,,,,,,,,,,0,,,79,0
84192,note_on,1,0,1,,,,,,,,,,,,,,,0,,,76,127
84192,note_on,0,0,1,,,,,,,,,,,,,,,0,,,79,127
84192,note_on,0,0,1,,,,,,,,,,,,,,,0,,,50,127
84192,note_on,0,0,1,,,,,,,,,,,,,,,0,,,74,127
84192,note_on,0,0,1,,,,,,,,,,,,,,,0,,,78,127
84192,note_on,0,0,1,,,,,,,,,,,,,,,0,,,38,127
84239,note_on,47,0,1,,,,,,,,,,,,,,,0,,,79,0
84239,note_on,0,0,1,,,,,,,,,,,,,,,0,,,76,0
84383,note_on,144,0,1,,,,,,,,,,,,,,,0,,,78,0
84383,note_on,0,0,1,,,,,,,,,,,,,,,0,,,74,0
84384,note_on,1,0,1,,,,,,,,,,,,,,,0,,,73,127
84384,note_on,0,0,1,,,,,,,,,,,,,,,0,,,76,127
84575,note_on,191,0,1,,,,,,,,,,,,,,,0,,,76,0
84575,note_on,0,0,1,,,,,,,,,,,,,,,0,,,73,0
84576,note_on,0,0,1,,,,,,,,,,,,,,,0,,,78,127
84576,note_on,1,0,1,,,,,,,,,,,,,,,0,,,74,127
84767,note_on,191,0,1,,,,,,,,,,,,,,,0,,,78,0
84767,note_on,0,0,1,,,,,,,,,,,,,,,0,,,50,0
84767,note_on,0,0,1,,,,,,,,,,,,,,,0,,,74,0
84767,note_on,0,0,1,,,,,,,,,,,,,,,0,,,38,0
84768,note_on,0,0,1,,,,,,,,,,,,,,,0,,,43,127
84768,note_on,1,0,1,,,,,,,,,,,,,,,0,,,79,127
84768,note_on,0,0,1,,,,,,,,,,,,,,,0,,,55,127
84768,note_on,0,0,1,,,,,,,,,,,,,,,0,,,76,127
84959,note_on,191,0,1,,,,,,,,,,,,,,,0,,,76,0
84959,note_on,0,0,1,,,,,,,,,,,,,,,0,,,79,0
84960,note_on,1,0,1,,,,,,,,,,,,,,,0,,,78,127
84960,note_on,0,0,1,,,,,,,,,,,,,,,0,,,74,127
85151,note_on,191,0,1,,,,,,,,,,,,,,,0,,,74,0
85151,note_on,0,0,1,,,,,,,,,,,,,,,0,,,55,0
85151,note_on,0,0,1,,,,,,,,,,,,,,,0,,,78,0
85151,note_on,0,0,1,,,,,,,,,,,,,,,0,,,43,0
85152,note_on,1,0,1,,,,,,,,,,,,,,,0,,,73,127
85152,note_on,0,0,1,,,,,,,,,,,,,,,0,,,45,127
85152,note_on,0,0,1,,,,,,,,,,,,,,,0,,,57,127
85152,note_on,0,0,1,,,,,,,,,,,,,,,0,,,76,127
85343,note_on,0,0,1,,,,,,,,,,,,,,,0,,,57,0
85343,note_on,0,0,1,,,,,,,,,,,,,,,0,,,45,0
85343,note_on,191,0,1,,,,,,,,,,,,,,,0,,,76,0
85343,note_on,0,0,1,,,,,,,,,,,,,,,0,,,73,0
85344,note_on,1,0,1,,,,,,,,,,,,,,,0,,,74,127
85344,note_on,0,0,1,,,,,,,,,,,,,,,0,,,50,127
85344,note_on,0,0,1,,,,,,,,,,,,,,,0,,,38,127
85535,note_on,191,0,1,,,,,,,,,,,,,,,0,,,74,0
85536,note_on,1,0,1,,,,,,,,,,,,,,,0,,,77,127
85727,note_on,191,0,1,,,,,,,,,,,,,,,0,,,77,0
85728,note_on,1,0,1,,,,,,,,,,,,,,,0,,,77,127
85919,note_on,191,0,1,,,,,,,,,,,,,,,0,,,77,0
85919,note_on,0,0,1,,,,,,,,,,,,,,,0,,,50,0
85919,note_on,0,0,1,,,,,,,,,,,,,,,0,,,38,0
85920,note_on,1,0,1,,,,,,,,,,,,,,,0,,,77,127
85920,note_on,0,0,1,,,,,,,,,,,,,,,0,,,70,127
85920,note_on,0,0,1,,,,,,,,,,,,,,,0,,,62,127
85920,note_on,0,0,1,,,,,,,,,,,,,,,0,,,67,127
85920,note_on,0,0,1,,,,,,,,,,,,,,,0,,,79,127
86015,note_on,95,0,1,,,,,,,,,,,,,,,0,,,79,0
86111,note_on,96,0,1,,,,,,,,,,,,,,,0,,,77,0
86112,note_on,1,0,1,,,,,,,,,,,,,,,0,,,76,127
86303,note_on,191,0,1,,,,,,,,,,,,,,,0,,,76,0
86304,note_on,1,0,1,,,,,,,,,,,,,,,0,,,76,127
86495,note_on,0,0,1,,,,,,,,,,,,,,,0,,,70,0
86495,note_on,191,0,1,,,,,,,,,,,,,,,0,,,76,0
86495,note_on,0,0,1,,,,,,,,,,,,,,,0,,,62,0
86495,note_on,0,0,1,,,,,,,,,,,,,,,0,,,67,0
86496,note_on,0,0,1,,,,,,,,,,,,,,,0,,,65,127
86496,note_on,1,0,1,,,,,,,,,,,,,,,0,,,77,127
86496,note_on,0,0,1,,,,,,,,,,,,,,,0,,,76,127
86496,note_on,0,0,1,,,,,,,,,,,,,,,0,,,62,127
86496,note_on,0,0,1,,,,,,,,,,,,,,,0,,,69,127
86591,note_on,95,0,1,,,,,,,,,,,,,,,0,,,77,0
86687,note_on,96,0,1,,,,,,,,,,,,,,,0,,,76,0
86688,note_on,1,0,1,,,,,,,,,,,,,,,0,,,74,127
86879,note_on,191,0,1,,,,,,,,,,,,,,,0,,,74,0
86880,note_on,1,0,1,,,,,,,,,,,,,,,0,,,74,127
87071,note_on,191,0,1,,,,,,,,,,,,,,,0,,,74,0
87071,note_on,0,0,1,,,,,,,,,,,,,,,0,,,69,0
87071,note_on,0,0,1,,,,,,,,,,,,,,,0,,,62,0
87071,note_on,0,0,1,,,,,,,,,,,,,,,0,,,65,0
87072,note_on,0,0,1,,,,,,,,,,,,,,,0,,,64,127
87072,note_on,0,0,1,,,,,,,,,,,,,,,0,,,67,127
87072,note_on,0,0,1,,,,,,,,,,,,,,,0,,,76,127
87072,note_on,1,0,1,,,,,,,,,,,,,,,0,,,74,127
87072,note_on,0,0,1,,,,,,,,,,,,,,,0,,,62,127
87167,note_on,95,0,1,,,,,,,,,,,,,,,0,,,76,0
87263,note_on,96,0,1,,,,,,,,,,,,,,,0,,,74,0
87264,note_on,1,0,1,,,,,,,,,,,,,,,0,,,73,127
87455,note_on,191,0,1,,,,,,,,,,,,,,,0,,,73,0
87456,note_on,1,0,1,,,,,,,,,,,,,,,0,,,73,127
87647,note_on,191,0,1,,,,,,,,,,,,,,,0,,,73,0
87647,note_on,0,0,1,,,,,,,,,,,,,,,0,,,64,0
87647,note_on,0,0,1,,,,,,,,,,,,,,,0,,,62,0
87647,note_on,0,0,1,,,,,,,,,,,,,,,0,,,67,0
87648,note_on,1,0,1,,,,,,,,,,,,,,,0,,,65,127
87648,note_on,0,0,1,,,,,,,,,,,,,,,0,,,62,127
87648,note_on,0,0,1,,,,,,,,,,,,,,,0,,,74,127
87839,note_on,191,0,1,,,,,,,,,,,,,,,0,,,74,0
87840,note_on,1,0,1,,,,,,,,,,,,,,,0,,,81,127
88031,note_on,191,0,1,,,,,,,,,,,,,,,0,,,81,0
88032,note_on,1,0,1,,,,,,,,,,,,,,,0,,,81,127
88223,note_on,0,0,1,,,,,,,,,,,,,,,0,,,62,0
88223,note_on,191,0,1,,,,,,,,,,,,,,,0,,,81,0
88223,note_on,0,0,1,,,,,,,,,,,,,,,0,,,65,0
88224,note_on,0,0,1,,,,,,,,,,,,,,,0,,,82,127
88224,note_on,1,0,1,,,,,,,,,,,,,,,0,,,70,127
88224,note_on,0,0,1,,,,,,,,,,,,,,,0,,,62,127
88224,note_on,0,0,1,,,,,,,,,,,,,,,0,,,74,127
88224,note_on,0,0,1,,,,,,,,,,,,,,,0,,,81,127
88319,note_on,95,0,1,,,,,,,,,,,,,,,0,,,82,0
88415,note_on,96,0,1,,,,,,,,,,,,,,,0,,,81,0
88416,note_on,1,0,1,,,,,,,,,,,,,,,0,,,79,127
88607,note_on,191,0,1,,,,,,,,,,,,,,,0,,,79,0
88608,note_on,1,0,1,,,,,,,,,,,,,,,0,,,79,127
88799,note_on,191,0,1,,,,,,,,,,,,,,,0,,,79,0
88799,note_on,0,0,1,,,,,,,,,,,,,,,0,,,70,0
88799,note_on,0,0,1,,,,,,,,,,,,,,,0,,,62,0
88799,note_on,0,0,1,,,,,,,,,,,,,,,0,,,74,0
88800,note_on,1,0,1,,,,,,,,,,,,,,,0,,,79,127
88800,note_on,0,0,1,,,,,,,,,,,,,,,0,,,81,127
88800,note_on,0,0,1,,,,,,,,,,,,,,,0,,,69,127
88800,note_on,0,0,1,,,,,,,,,,,,,,,0,,,74,127
88800,note_on,0,0,1,,,,,,,,,,,,,,,0,,,62,127
88895,note_on,95,0,1,,,,,,,,,,,,,,,0,,,81,0
88991,note_on,96,0,1,,,,,,,,,,,,,,,0,,,79,0
88992,note_on,1,0,1,,,,,,,,,,,,,,,0,,,77,127
89183,note_on,191,0,1,,,,,,,,,,,,,,,0,,,77,0
89184,note_on,1,0,1,,,,,,,,,,,,,,,0,,,77,127
89375,note_on,0,0,1,,,,,,,,,,,,,,,0,,,74,0
89375,note_on,0,0,1,,,,,,,,,,,,,,,0,,,69,0
89375,note_on,0,0,1,,,,,,,,,,,,,,,0,,,62,0
89375,note_on,191,0,1,,,,,,,,,,,,,,,0,,,77,0
89376,note_on,1,0,1,,,,,,,,,,,,,,,0,,,77,127
89376,note_on,0,0,1,,,,,,,,,,,,,,,0,,,79,127
89376,note_on,0,0,1,,,,,,,,,,,,,,,0,,,62,127
89376,note_on,0,0,1,,,,,,,,,,,,,,,0,,,67,127
89376,note_on,0,0,1,,,,,,,,,,,,,,,0,,,70,127
89471,note_on,95,0,1,,,,,,,,,,,,,,,0,,,79,0
89567,note_on,96,0,1,,,,,,,,,,,,,,,0,,,77,0
89568,note_on,1,0,1,,,,,,,,,,,,,,,0,,,76,127
89759,note_on,191,0,1,,,,,,,,,,,,,,,0,,,76,0
89760,note_on,1,0,1,,,,,,,,,,,,,,,0,,,76,127
89951,note_on,0,0,1,,,,,,,,,,,,,,,0,,,70,0
89951,note_on,0,0,1,,,,,,,,,,,,,,,0,,,62,0
89951,note_on,191,0,1,,,,,,,,,,,,,,,0,,,76,0
89951,note_on,0,0,1,,,,,,,,,,,,,,,0,,,67,0
89952,note_on,1,0,1,,,,,,,,,,,,,,,0,,,76,127
89952,note_on,0,0,1,,,,,,,,,,,,,,,0,,,62,127
89952,note_on,0,0,1,,,,,,,,,,,,,,,0,,,77,127
89952,note_on,0,0,1,,,,,,,,,,,,,,,0,,,65,127
89952,note_on,0,0,1,,,,,,,,,,,,,,,0,,,69,127
90047,note_on,95,0,1,,,,,,,,,,,,,,,0,,,77,0
90143,note_on,96,0,1,,,,,,,,,,,,,,,0,,,76,0
90144,note_on,1,0,1,,,,,,,,,,,,,,,0,,,74,127
90335,note_on,191,0,1,,,,,,,,,,,,,,,0,,,74,0
90336,note_on,1,0,1,,,,,,,,,,,,,,,0,,,74,127
90527,note_on,191,0,1,,,,,,,,,,,,,,,0,,,74,0
90527,note_on,0,0,1,,,,,,,,,,,,,,,0,,,69,0
90527,note_on,0,0,1,,,,,,,,,,,,,,,0,,,65,0
90527,note_on,0,0,1,,,,,,,,,,,,,,,0,,,62,0
90528,note_on,1,0,1,,,,,,,,,,,,,,,0,,,74,127
90528,note_on,0,0,1,,,,,,,,,,,,,,,0,,,76,127
90528,note_on,0,0,1,,,,,,,,,,,,,,,0,,,64,127
90528,note_on,0,0,1,,,,,,,,,,,,,,,0,,,67,127
90623,note_on,95,0,1,,,,,,,,,,,,,,,0,,,76,0
90719,note_on,96,0,1,,,,,,,,,,,,,,,0,,,74,0
90720,note_on,1,0,1,,,,,,,,,,,,,,,0,,,72,127
90911,note_on,191,0,1,,,,,,,,,,,,,,,0,,,72,0
90912,note_on,1,0,1,,,,,,,,,,,,,,,0,,,72,127
91103,note_on,191,0,1,,,,,,,,,,,,,,,0,,,72,0
91103,note_on,0,0,1,,,,,,,,,,,,,,,0,,,64,0
91103,note_on,0,0,1,,,,,,,,,,,,,,,0,,,67,0
91104,note_on,1,0,1,,,,,,,,,,,,,,,0,,,65,127
91104,note_on,0,0,1,,,,,,,,,,,,,,,0,,,62,127
91104,note_on,0,0,1,,,,,,,,,,,,,,,0,,,74,127
91104,note_on,0,0,1,,,,,,,,,,,,,,,0,,,72,127
91199,note_on,95,0,1,,,,,,,,,,,,,,,0,,,74,0
91295,note_on,96,0,1,,,,,,,,,,,,,,,0,,,72,0
91296,note_on,1,0,1,,,,,,,,,,,,,,,0,,,70,127
91487,note_on,191,0,1,,,,,,,,,,,,,,,0,,,70,0
91487,note_on,0,0,1,,,,,,,,,,,,,,,0,,,62,0
91487,note_on,0,0,1,,,,,,,,,,,,,,,0,,,65,0
91488,note_on,0,0,1,,,,,,,,,,,,,,,0,,,60,127
91488,note_on,0,0,1,,,,,,,,,,,,,,,0,,,69,127
91488,note_on,1,0,1,,,,,,,,,,,,,,,0,,,64,127
91679,note_on,191,0,1,,,,,,,,,,,,,,,0,,,60,0
91679,note_on,0,0,1,,,,,,,,,,,,,,,0,,,64,0
91679,note_on,0,0,1,,,,,,,,,,,,,,,0,,,69,0
91680,note_on,1,0,1,,,,,,,,,,,,,,,0,,,67,127
91680,note_on,0,0,1,,,,,,,,,,,,,,,0,,,74,127
91680,note_on,0,0,1,,,,,,,,,,,,,,,0,,,58,127
91680,note_on,0,0,1,,,,,,,,,,,,,,,0,,,69,127
91680,note_on,0,0,1,,,,,,,,,,,,,,,0,,,62,127
91775,note_on,95,0,1,,,,,,,,,,,,,,,0,,,69,0
91871,note_on,96,0,1,,,,,,,,,,,,,,,0,,,67,0
91872,note_on,1,0,1,,,,,,,,,,,,,,,0,,,65,127
92063,note_on,191,0,1,,,,,,,,,,,,,,,0,,,65,0
92064,note_on,1,0,1,,,,,,,,,,,,,,,0,,,67,127
92255,note_on,191,0,1,,,,,,,,,,,,,,,0,,,67,0
92255,note_on,0,0,1,,,,,,,,,,,,,,,0,,,74,0
92255,note_on,0,0,1,,,,,,,,,,,,,,,0,,,58,0
92255,note_on,0,0,1,,,,,,,,,,,,,,,0,,,62,0
92256,note_on,0,0,1,,,,,,,,,,,,,,,0,,,69,127
92256,note_on,1,0,1,,,,,,,,,,,,,,,0,,,57,127
92256,note_on,0,0,1,,,,,,,,,,,,,,,0,,,73,127
92448,note_on,192,0,1,,,,,,,,,,,,,,,0,,,62,127
92543,note_on,95,0,1,,,,,,,,,,,,,,,0,,,62,0
92544,note_on,1,0,1,,,,,,,,,,,,,,,0,,,64,127
92639,note_on,95,0,1,,,,,,,,,,,,,,,0,,,64,0
92639,note_on,0,0,1,,,,,,,,,,,,,,,0,,,73,0
92639,note_on,0,0,1,,,,,,,,,,,,,,,0,,,69,0
92640,note_on,1,0,1,,,,,,,,,,,,,,,0,,,69,127
92831,note_on,191,0,1,,,,,,,,,,,,,,,0,,,69,0
92831,note_on,0,0,1,,,,,,,,,,,,,,,0,,,57,0
92832,note_on,1,0,1,,,,,,,,,,,,,,,0,,,58,127
93024,note_on,192,0,1,,,,,,,,,,,,,,,0,,,62,127
93119,note_on,95,0,1,,,,,,,,,,,,,,,0,,,62,0
93120,note_on,1,0,1,,,,,,,,,,,,,,,0,,,64,127
93215,note_on,95,0,1,,,,,,,,,,,,,,,0,,,64,0
93216,note_on,1,0,1,,,,,,,,,,,,,,,0,,,76,127
93216,note_on,0,0,1,,,,,,,,,,,,,,,0,,,67,127
93407,note_on,191,0,1,,,,,,,,,,,,,,,0,,,67,0
93407,note_on,0,0,1,,,,,,,,,,,,,,,0,,,58,0
93408,note_on,1,0,1,,,,,,,,,,,,,,,0,,,57,127
93599,note_on,191,0,1,,,,,,,,,,,,,,,0,,,76,0
93600,note_on,1,0,1,,,,,,,,,,,,,,,0,,,62,127
93695,note_on,95,0,1,,,,,,,,,,,,,,,0,,,62,0
93696,note_on,1,0,1,,,,,,,,,,,,,,,0,,,64,127
93791,note_on,95,0,1,,,,,,,,,,,,,,,0,,,64,0
93792,note_on,1,0,1,,,,,,,,,,,,,,,0,,,69,127
93983,note_on,191,0,1,,,,,,,,,,,,,,,0,,,69,0
93983,note_on,0,0,1,,,,,,,,,,,,,,,0,,,57,0
93984,note_on,1,0,1,,,,,,,,,,,,,,,0,,,58,127
94176,note_on,192,0,1,,,,,,,,,,,,,,,0,,,62,127
94271,note_on,95,0,1,,,,,,,,,,,,,,,0,,,62,0
94272,note_on,1,0,1,,,,,,,,,,,,,,,0,,,64,127
94367,note_on,95,0,1,,,,,,,,,,,,,,,0,,,64,0
94368,note_on,0,0,1,,,,,,,,,,,,,,,0,,,67,127
94368,note_on,1,0,1,,,,,,,,,,,,,,,0,,,76,127
94559,note_on,191,0,1,,,,,,,,,,,,,,,0,,,67,0
94559,note_on,0,0,1,,,,,,,,,,,,,,,0,,,58,0
94560,note_on,1,0,1,,,,,,,,,,,,,,,0,,,57,127
94751,note_on,191,0,1,,,,,,,,,,,,,,,0,,,76,0
94752,note_on,1,0,1,,,,,,,,,,,,,,,0,,,62,127
94847,note_on,95,0,1,,,,,,,,,,,,,,,0,,,62,0
94848,note_on,1,0,1,,,,,,,,,,,,,,,0,,,64,127
94943,note_on,95,0,1,,,,,,,,,,,,,,,0,,,64,0
94944,note_on,1,0,1,,,,,,,,,,,,,,,0,,,69,127
95135,note_on,191,0,1,,,,,,,,,,,,,,,0,,,69,0
95135,note_on,0,0,1,,,,,,,,,,,,,,,0,,,57,0
95136,note_on,1,0,1,,,,,,,,,,,,,,,0,,,58,127
95328,note_on,192,0,1,,,,,,,,,,,,,,,0,,,62,127
95423,note_on,95,0,1,,,,,,,,,,,,,,,0,,,62,0
95424,note_on,1,0,1,,,,,,,,,,,,,,,0,,,64,127
95519,note_on,95,0,1,,,,,,,,,,,,,,,0,,,64,0
95520,note_on,0,0,1,,,,,,,,,,,,,,,0,,,67,127
95520,note_on,1,0,1,,,,,,,,,,,,,,,0,,,76,127
95711,note_on,191,0,1,,,,,,,,,,,,,,,0,,,67,0
95711,note_on,0,0,1,,,,,,,,,,,,,,,0,,,76,0
95711,note_on,0,0,1,,,,,,,,,,,,,,,0,,,58,0
95712,note_on,1,0,1,,,,,,,,,,,,,,,0,,,57,127
95807,note_on,95,0,1,,,,,,,,,,,,,,,0,,,57,0
95808,note_on,1,0,1,,,,,,,,,,,,,,,0,,,62,127
95903,note_on,95,0,1,,,,,,,,,,,,,,,0,,,62,0
95904,note_on,1,0,1,,,,,,,,,,,,,,,0,,,64,127
95999,note_on,95,0,1,,,,,,,,,,,,,,,0,,,64,0
96000,note_on,1,0,1,,,,,,,,,,,,,,,0,,,69,127
96095,note_on,95,0,1,,,,,,,,,,,,,,,0,,,69,0
96096,note_on,1,0,1,,,,,,,,,,,,,,,0,,,79,127
96096,note_on,0,0,1,,,,,,,,,,,,,,,0,,,61,127
96287,note_on,191,0,1,,,,,,,,,,,,,,,0,,,61,0
96287,note_on,0,0,1,,,,,,,,,,,,,,,0,,,79,0
96288,note_on,1,0,1,,,,,,,,,,,,,,,0,,,77,127
96288,note_on,0,0,1,,,,,,,,,,,,,,,0,,,62,127
96479,note_on,191,0,1,,,,,,,,,,,,,,,0,,,77,0
96480,note_on,1,0,1,,,,,,,,,,,,,,,0,,,74,127
96671,note_on,191,0,1,,,,,,,,,,,,,,,0,,,74,0
96672,note_on,1,0,1,,,,,,,,,,,,,,,0,,,81,127
96863,note_on,191,0,1,,,,,,,,,,,,,,,0,,,81,0
96863,note_on,0,0,1,,,,,,,,,,,,,,,0,,,62,0
96864,note_on,0,0,1,,,,,,,,,,,,,,,0,,,43,127
96864,note_on,0,0,1,,,,,,,,,,,,,,,0,,,82,127
96864,note_on,1,0,1,,,,,,,,,,,,,,,0,,,55,127
97055,note_on,191,0,1,,,,,,,,,,,,,,,0,,,82,0
97056,note_on,1,0,1,,,,,,,,,,,,,,,0,,,79,127
97247,note_on,191,0,1,,,,,,,,,,,,,,,0,,,79,0
97248,note_on,1,0,1,,,,,,,,,,,,,,,0,,,76,127
97439,note_on,191,0,1,,,,,,,,,,,,,,,0,,,43,0
97439,note_on,0,0,1,,,,,,,,,,,,,,,0,,,55,0
97440,note_on,1,0,1,,,,,,,,,,,,,,,0,,,57,127
97440,note_on,0,0,1,,,,,,,,,,,,,,,0,,,45,127
97631,note_on,191,0,1,,,,,,,,,,,,,,,0,,,76,0
97632,note_on,1,0,1,,,,,,,,,,,,,,,0,,,74,127
97823,note_on,191,0,1,,,,,,,,,,,,,,,0,,,74,0
97824,note_on,1,0,1,,,,,,,,,,,,,,,0,,,73,127
98015,note_on,0,0,1,,,,,,,,,,,,,,,0,,,45,0
98015,note_on,191,0,1,,,,,,,,,,,,,,,0,,,73,0
98015,note_on,0,0,1,,,,,,,,,,,,,,,0,,,57,0
98016,note_on,0,0,1,,,,,,,,,,,,,,,0,,,73,127
98016,note_on,1,0,1,,,,,,,,,,,,,,,0,,,58,127
98207,note_on,191,0,1,,,,,,,,,,,,,,,0,,,73,0
98207,note_on,0,0,1,,,,,,,,,,,,,,,0,,,58,0
98208,note_on,1,0,1,,,,,,,,,,,,,,,0,,,62,127
98208,note_on,0,0,1,,,,,,,,,,,,,,,0,,,74,127
98303,note_on,95,0,1,,,,,,,,,,,,,,,0,,,62,0
98304,note_on,1,0,1,,,,,,,,,,,,,,,0,,,64,127
98399,note_on,95,0,1,,,,,,,,,,,,,,,0,,,64,0
98399,note_on,0,0,1,,,,,,,,,,,,,,,0,,,74,0
98400,note_on,1,0,1,,,,,,,,,,,,,,,0,,,67,127
98592,note_on,192,0,1,,,,,,,,,,,,,,,0,,,55,127
98783,note_on,191,0,1,,,,,,,,,,,,,,,0,,,55,0
98784,note_on,1,0,1,,,,,,,,,,,,,,,0,,,62,127
98879,note_on,95,0,1,,,,,,,,,,,,,,,0,,,62,0
98880,note_on,1,0,1,,,,,,,,,,,,,,,0,,,64,127
98975,note_on,95,0,1,,,,,,,,,,,,,,,0,,,64,0
98975,note_on,0,0,1,,,,,,,,,,,,,,,0,,,67,0
98976,note_on,1,0,1,,,,,,,,,,,,,,,0,,,76,127
98976,note_on,0,0,1,,,,,,,,,,,,,,,0,,,67,127
99168,note_on,192,0,1,,,,,,,,,,,,,,,0,,,57,127
99263,note_on,95,0,1,,,,,,,,,,,,,,,0,,,76,0
99359,note_on,96,0,1,,,,,,,,,,,,,,,0,,,57,0
99360,note_on,1,0,1,,,,,,,,,,,,,,,0,,,62,127
99455,note_on,95,0,1,,,,,,,,,,,,,,,0,,,62,0
99456,note_on,1,0,1,,,,,,,,,,,,,,,0,,,64,127
99551,note_on,95,0,1,,,,,,,,,,,,,,,0,,,64,0
99551,note_on,0,0,1,,,,,,,,,,,,,,,0,,,67,0
99552,note_on,1,0,1,,,,,,,,,,,,,,,0,,,69,127
99744,note_on,192,0,1,,,,,,,,,,,,,,,0,,,58,127
99935,note_on,191,0,1,,,,,,,,,,,,,,,0,,,58,0
99936,note_on,1,0,1,,,,,,,,,,,,,,,0,,,62,127
100031,note_on,95,0,1,,,,,,,,,,,,,,,0,,,62,0
100032,note_on,1,0,1,,,,,,,,,,,,,,,0,,,64,127
100127,note_on,95,0,1,,,,,,,,,,,,,,,0,,,64,0
100127,note_on,0,0,1,,,,,,,,,,,,,,,0,,,69,0
100128,note_on,0,0,1,,,,,,,,,,,,,,,0,,,67,127
100128,note_on,1,0,1,,,,,,,,,,,,,,,0,,,76,127
100320,note_on,192,0,1,,,,,,,,,,,,,,,0,,,57,127
100415,note_on,95,0,1,,,,,,,,,,,,,,,0,,,76,0
100511,note_on,96,0,1,,,,,,,,,,,,,,,0,,,57,0
100512,note_on,1,0,1,,,,,,,,,,,,,,,0,,,62,127
100607,note_on,95,0,1,,,,,,,,,,,,,,,0,,,62,0
100608,note_on,1,0,1,,,,,,,,,,,,,,,0,,,64,127
100703,note_on,95,0,1,,,,,,,,,,,,,,,0,,,64,0
100703,note_on,0,0,1,,,,,,,,,,,,,,,0,,,67,0
100704,note_on,1,0,1,,,,,,,,,,,,,,,0,,,69,127
100896,note_on,192,0,1,,,,,,,,,,,,,,,0,,,58,127
101087,note_on,191,0,1,,,,,,,,,,,,,,,0,,,58,0
101088,note_on,1,0,1,,,,,,,,,,,,,,,0,,,62,127
101183,note_on,95,0,1,,,,,,,,,,,,,,,0,,,62,0
101184,note_on,1,0,1,,,,,,,,,,,,,,,0,,,64,127
101279,note_on,95,0,1,,,,,,,,,,,,,,,0,,,64,0
101279,note_on,0,0,1,,,,,,,,,,,,,,,0,,,69,0
101280,note_on,0,0,1,,,,,,,,,,,,,,,0,,,67,127
101280,note_on,1,0,1,,,,,,,,,,,,,,,0,,,76,127
101472,note_on,192,0,1,,,,,,,,,,,,,,,0,,,57,127
101519,note_on,47,0,1,,,,,,,,,,,,,,,0,,,76,0
101663,note_on,0,0,1,,,,,,,,,,,,,,,0,,,67,0
101663,note_on,144,0,1,,,,,,,,,,,,,,,0,,,57,0
101664,note_on,1,0,1,,,,,,,,,,,,,,,0,,,62,127
101759,note_on,95,0,1,,,,,,,,,,,,,,,0,,,62,0
101760,note_on,1,0,1,,,,,,,,,,,,,,,0,,,64,127
101855,note_on,95,0,1,,,,,,,,,,,,,,,0,,,64,0
101856,note_on,1,0,1,,,,,,,,,,,,,,,0,,,69,127
101856,note_on,0,0,1,,,,,,,,,,,,,,,0,,,85,127
102047,note_on,191,0,1,,,,,,,,,,,,,,,0,,,85,0
102047,note_on,0,0,1,,,,,,,,,,,,,,,0,,,69,0
102048,note_on,0,0,1,,,,,,,,,,,,,,,0,,,62,127
102048,note_on,1,0,1,,,,,,,,,,,,,,,0,,,86,127
102239,note_on,191,0,1,,,,,,,,,,,,,,,0,,,62,0
102239,note_on,0,0,1,,,,,,,,,,,,,,,0,,,86,0
102240,note_on,1,0,1,,,,,,,,,,,,,,,0,,,81,127
102431,note_on,191,0,1,,,,,,,,,,,,,,,0,,,81,0
102432,note_on,1,0,1,,,,,,,,,,,,,,,0,,,77,127
102623,note_on,191,0,1,,,,,,,,,,,,,,,0,,,77,0
102624,note_on,0,0,1,,,,,,,,,,,,,,,0,,,43,127
102624,note_on,1,0,1,,,,,,,,,,,,,,,0,,,82,127
102624,note_on,0,0,1,,,,,,,,,,,,,,,0,,,55,127
102815,note_on,191,0,1,,,,,,,,,,,,,,,0,,,82,0
102816,note_on,1,0,1,,,,,,,,,,,,,,,0,,,79,127
103007,note_on,191,0,1,,,,,,,,,,,,,,,0,,,79,0
103008,note_on,1,0,1,,,,,,,,,,,,,,,0,,,76,127
103199,note_on,191,0,1,,,,,,,,,,,,,,,0,,,55,0
103199,note_on,0,0,1,,,,,,,,,,,,,,,0,,,43,0
103200,note_on,1,0,1,,,,,,,,,,,,,,,0,,,45,127
103200,note_on,0,0,1,,,,,,,,,,,,,,,0,,,57,127
103391,note_on,191,0,1,,,,,,,,,,,,,,,0,,,76,0
103392,note_on,1,0,1,,,,,,,,,,,,,,,0,,,74,127
103583,note_on,191,0,1,,,,,,,,,,,,,,,0,,,74,0
103584,note_on,1,0,1,,,,,,,,,,,,,,,0,,,73,127
103775,note_on,191,0,1,,,,,,,,,,,,,,,0,,,73,0
103775,note_on,0,0,1,,,,,,,,,,,,,,,0,,,57,0
103775,note_on,0,0,1,,,,,,,,,,,,,,,0,,,45,0
103776,note_on,1,0,1,,,,,,,,,,,,,,,0,,,86,127
103848,note_on,72,0,1,,,,,,,,,,,,,,,0,,,50,127
103919,note_on,71,0,1,,,,,,,,,,,,,,,0,,,50,0
103920,note_on,1,0,1,,,,,,,,,,,,,,,0,,,52,127
103991,note_on,71,0,1,,,,,,,,,,,,,,,0,,,52,0
103992,note_on,1,0,1,,,,,,,,,,,,,,,0,,,54,127
104063,note_on,71,0,1,,,,,,,,,,,,,,,0,,,54,0
104064,note_on,1,0,1,,,,,,,,,,,,,,,0,,,55,127
104135,note_on,71,0,1,,,,,,,,,,,,,,,0,,,55,0
104136,note_on,1,0,1,,,,,,,,,,,,,,,0,,,57,127
104207,note_on,71,0,1,,,,,,,,,,,,,,,0,,,57,0
104208,note_on,1,0,1,,,,,,,,,,,,,,,0,,,59,127
104279,note_on,71,0,1,,,,,,,,,,,,,,,0,,,59,0
104280,note_on,1,0,1,,,,,,,,,,,,,,,0,,,61,127
104351,note_on,71,0,1,,,,,,,,,,,,,,,0,,,61,0
104352,note_on,1,0,1,,,,,,,,,,,,,,,0,,,62,127
104423,note_on,71,0,1,,,,,,,,,,,,,,,0,,,86,0
104424,note_on,1,0,1,,,,,,,,,,,,,,,0,,,85,127
104495,note_on,71,0,1,,,,,,,,,,,,,,,0,,,85,0
104496,note_on,1,0,1,,,,,,,,,,,,,,,0,,,83,127
104567,note_on,71,0,1,,,,,,,,,,,,,,,0,,,83,0
104568,note_on,1,0,1,,,,,,,,,,,,,,,0,,,81,127
104639,note_on,71,0,1,,,,,,,,,,,,,,,0,,,81,0
104640,note_on,1,0,1,,,,,,,,,,,,,,,0,,,79,127
104711,note_on,71,0,1,,,,,,,,,,,,,,,0,,,79,0
104712,note_on,1,0,1,,,,,,,,,,,,,,,0,,,78,127
104783,note_on,71,0,1,,,,,,,,,,,,,,,0,,,78,0
104784,note_on,1,0,1,,,,,,,,,,,,,,,0,,,76,127
104855,note_on,71,0,1,,,,,,,,,,,,,,,0,,,76,0
104856,note_on,1,0,1,,,,,,,,,,,,,,,0,,,74,127
104927,note_on,71,0,1,,,,,,,,,,,,,,,0,,,74,0
104928,note_on,1,0,1,,,,,,,,,,,,,,,0,,,83,127
104999,note_on,71,0,1,,,,,,,,,,,,,,,0,,,62,0
105000,note_on,1,0,1,,,,,,,,,,,,,,,0,,,55,127
105071,note_on,71,0,1,,,,,,,,,,,,,,,0,,,55,0
105072,note_on,1,0,1,,,,,,,,,,,,,,,0,,,57,127
105143,note_on,71,0,1,,,,,,,,,,,,,,,0,,,57,0
105144,note_on,1,0,1,,,,,,,,,,,,,,,0,,,59,127
105215,note_on,71,0,1,,,,,,,,,,,,,,,0,,,59,0
105216,note_on,1,0,1,,,,,,,,,,,,,,,0,,,61,127
105287,note_on,71,0,1,,,,,,,,,,,,,,,0,,,61,0
105288,note_on,1,0,1,,,,,,,,,,,,,,,0,,,62,127
105359,note_on,71,0,1,,,,,,,,,,,,,,,0,,,62,0
105360,note_on,1,0,1,,,,,,,,,,,,,,,0,,,64,127
105431,note_on,71,0,1,,,,,,,,,,,,,,,0,,,64,0
105432,note_on,1,0,1,,,,,,,,,,,,,,,0,,,66,127
105503,note_on,71,0,1,,,,,,,,,,,,,,,0,,,66,0
105504,note_on,1,0,1,,,,,,,,,,,,,,,0,,,67,127
105575,note_on,71,0,1,,,,,,,,,,,,,,,0,,,83,0
105576,note_on,1,0,1,,,,,,,,,,,,,,,0,,,81,127
105647,note_on,71,0,1,,,,,,,,,,,,,,,0,,,81,0
105648,note_on,1,0,1,,,,,,,,,,,,,,,0,,,79,127
105719,note_on,71,0,1,,,,,,,,,,,,,,,0,,,79,0
105720,note_on,1,0,1,,,,,,,,,,,,,,,0,,,78,127
105791,note_on,71,0,1,,,,,,,,,,,,,,,0,,,78,0
105792,note_on,1,0,1,,,,,,,,,,,,,,,0,,,76,127
105863,note_on,71,0,1,,,,,,,,,,,,,,,0,,,76,0
105864,note_on,1,0,1,,,,,,,,,,,,,,,0,,,74,127
105935,note_on,71,0,1,,,,,,,,,,,,,,,0,,,74,0
105936,note_on,1,0,1,,,,,,,,,,,,,,,0,,,73,127
106007,note_on,71,0,1,,,,,,,,,,,,,,,0,,,73,0
106008,note_on,1,0,1,,,,,,,,,,,,,,,0,,,71,127
106079,note_on,71,0,1,,,,,,,,,,,,,,,0,,,71,0
106079,note_on,0,0,1,,,,,,,,,,,,,,,0,,,67,0
106080,note_on,1,0,1,,,,,,,,,,,,,,,0,,,69,127
106151,note_on,71,0,1,,,,,,,,,,,,,,,0,,,69,0
106152,note_on,1,0,1,,,,,,,,,,,,,,,0,,,50,127
106152,note_on,0,0,1,,,,,,,,,,,,,,,0,,,81,127
106223,note_on,71,0,1,,,,,,,,,,,,,,,0,,,50,0
106224,note_on,1,0,1,,,,,,,,,,,,,,,0,,,52,127
106295,note_on,71,0,1,,,,,,,,,,,,,,,0,,,52,0
106296,note_on,1,0,1,,,,,,,,,,,,,,,0,,,54,127
106367,note_on,71,0,1,,,,,,,,,,,,,,,0,,,54,0
106368,note_on,1,0,1,,,,,,,,,,,,,,,0,,,55,127
106439,note_on,71,0,1,,,,,,,,,,,,,,,0,,,55,0
106440,note_on,1,0,1,,,,,,,,,,,,,,,0,,,57,127
106511,note_on,71,0,1,,,,,,,,,,,,,,,0,,,57,0
106512,note_on,1,0,1,,,,,,,,,,,,,,,0,,,59,127
106583,note_on,71,0,1,,,,,,,,,,,,,,,0,,,59,0
106584,note_on,1,0,1,,,,,,,,,,,,,,,0,,,61,127
106655,note_on,71,0,1,,,,,,,,,,,,,,,0,,,61,0
106656,note_on,1,0,1,,,,,,,,,,,,,,,0,,,62,127
106727,note_on,71,0,1,,,,,,,,,,,,,,,0,,,81,0
106728,note_on,1,0,1,,,,,,,,,,,,,,,0,,,79,127
106799,note_on,71,0,1,,,,,,,,,,,,,,,0,,,79,0
106800,note_on,1,0,1,,,,,,,,,,,,,,,0,,,78,127
106871,note_on,71,0,1,,,,,,,,,,,,,,,0,,,78,0
106872,note_on,1,0,1,,,,,,,,,,,,,,,0,,,76,127
106943,note_on,71,0,1,,,,,,,,,,,,,,,0,,,76,0
106944,note_on,1,0,1,,,,,,,,,,,,,,,0,,,74,127
107015,note_on,71,0,1,,,,,,,,,,,,,,,0,,,74,0
107016,note_on,1,0,1,,,,,,,,,,,,,,,0,,,73,127
107087,note_on,71,0,1,,,,,,,,,,,,,,,0,,,73,0
107088,note_on,1,0,1,,,,,,,,,,,,,,,0,,,71,127
107159,note_on,71,0,1,,,,,,,,,,,,,,,0,,,71,0
107160,note_on,1,0,1,,,,,,,,,,,,,,,0,,,69,127
107231,note_on,71,0,1,,,,,,,,,,,,,,,0,,,69,0
107231,note_on,0,0,1,,,,,,,,,,,,,,,0,,,62,0
107232,note_on,1,0,1,,,,,,,,,,,,,,,0,,,55,127
107232,note_on,0,0,1,,,,,,,,,,,,,,,0,,,43,127
107232,note_on,0,0,1,,,,,,,,,,,,,,,0,,,79,127
107232,note_on,0,0,1,,,,,,,,,,,,,,,0,,,71,127
107423,note_on,191,0,1,,,,,,,,,,,,,,,0,,,79,0
107424,note_on,1,0,1,,,,,,,,,,,,,,,0,,,78,127
107615,note_on,191,0,1,,,,,,,,,,,,,,,0,,,78,0
107616,note_on,1,0,1,,,,,,,,,,,,,,,0,,,76,127
107807,note_on,0,0,1,,,,,,,,,,,,,,,0,,,71,0
107807,note_on,0,0,1,,,,,,,,,,,,,,,0,,,43,0
107807,note_on,191,0,1,,,,,,,,,,,,,,,0,,,76,0
107807,note_on,0,0,1,,,,,,,,,,,,,,,0,,,55,0
107808,note_on,0,0,1,,,,,,,,,,,,,,,0,,,57,127
107808,note_on,1,0,1,,,,,,,,,,,,,,,0,,,69,127
107808,note_on,0,0,1,,,,,,,,,,,,,,,0,,,45,127
107808,note_on,0,0,1,,,,,,,,,,,,,,,0,,,74,127
107999,note_on,191,0,1,,,,,,,,,,,,,,,0,,,74,0
108000,note_on,1,0,1,,,,,,,,,,,,,,,0,,,76,127
108191,note_on,191,0,1,,,,,,,,,,,,,,,0,,,76,0
108192,note_on,1,0,1,,,,,,,,,,,,,,,0,,,73,127
108383,note_on,0,0,1,,,,,,,,,,,,,,,0,,,69,0
108383,note_on,0,0,1,,,,,,,,,,,,,,,0,,,45,0
108383,note_on,0,0,1,,,,,,,,,,,,,,,0,,,57,0
108383,note_on,191,0,1,,,,,,,,,,,,,,,0,,,73,0
108384,note_on,1,0,1,,,,,,,,,,,,,,,0,,,74,127
108456,note_on,72,0,1,,,,,,,,,,,,,,,0,,,38,127
108527,note_on,71,0,1,,,,,,,,,,,,,,,0,,,38,0
108528,note_on,1,0,1,,,,,,,,,,,,,,,0,,,40,127
108599,note_on,71,0,1,,,,,,,,,,,,,,,0,,,40,0
108600,note_on,1,0,1,,,,,,,,,,,,,,,0,,,42,127
108671,note_on,71,0,1,,,,,,,,,,,,,,,0,,,42,0
108672,note_on,1,0,1,,,,,,,,,,,,,,,0,,,43,127
108743,note_on,71,0,1,,,,,,,,,,,,,,,0,,,43,0
108744,note_on,1,0,1,,,,,,,,,,,,,,,0,,,45,127
108815,note_on,71,0,1,,,,,,,,,,,,,,,0,,,45,0
108816,note_on,1,0,1,,,,,,,,,,,,,,,0,,,47,127
108887,note_on,71,0,1,,,,,,,,,,,,,,,0,,,47,0
108888,note_on,1,0,1,,,,,,,,,,,,,,,0,,,49,127
108959,note_on,71,0,1,,,,,,,,,,,,,,,0,,,49,0
108960,note_on,1,0,1,,,,,,,,,,,,,,,0,,,50,127
109031,note_on,71,0,1,,,,,,,,,,,,,,,0,,,74,0
109032,note_on,1,0,1,,,,,,,,,,,,,,,0,,,73,127
109103,note_on,71,0,1,,,,,,,,,,,,,,,0,,,73,0
109104,note_on,1,0,1,,,,,,,,,,,,,,,0,,,71,127
109175,note_on,71,0,1,,,,,,,,,,,,,,,0,,,71,0
109176,note_on,1,0,1,,,,,,,,,,,,,,,0,,,69,127
109247,note_on,71,0,1,,,,,,,,,,,,,,,0,,,69,0
109248,note_on,1,0,1,,,,,,,,,,,,,,,0,,,67,127
109319,note_on,71,0,1,,,,,,,,,,,,,,,0,,,67,0
109320,note_on,1,0,1,,,,,,,,,,,,,,,0,,,66,127
109391,note_on,71,0,1,,,,,,,,,,,,,,,0,,,66,0
109392,note_on,1,0,1,,,,,,,,,,,,,,,0,,,64,127
109463,note_on,71,0,1,,,,,,,,,,,,,,,0,,,64,0
109464,note_on,1,0,1,,,,,,,,,,,,,,,0,,,62,127
109535,note_on,71,0,1,,,,,,,,,,,,,,,0,,,62,0
109536,note_on,1,0,1,,,,,,,,,,,,,,,0,,,71,127
109607,note_on,71,0,1,,,,,,,,,,,,,,,0,,,50,0
109608,note_on,1,0,1,,,,,,,,,,,,,,,0,,,43,127
109679,note_on,71,0,1,,,,,,,,,,,,,,,0,,,43,0
109680,note_on,1,0,1,,,,,,,,,,,,,,,0,,,45,127
109751,note_on,71,0,1,,,,,,,,,,,,,,,0,,,45,0
109752,note_on,1,0,1,,,,,,,,,,,,,,,0,,,47,127
109823,note_on,71,0,1,,,,,,,,,,,,,,,0,,,47,0
109824,note_on,1,0,1,,,,,,,,,,,,,,,0,,,49,127
109895,note_on,71,0,1,,,,,,,,,,,,,,,0,,,49,0
109896,note_on,1,0,1,,,,,,,,,,,,,,,0,,,50,127
109967,note_on,71,0,1,,,,,,,,,,,,,,,0,,,50,0
109968,note_on,1,0,1,,,,,,,,,,,,,,,0,,,52,127
110039,note_on,71,0,1,,,,,,,,,,,,,,,0,,,52,0
110040,note_on,1,0,1,,,,,,,,,,,,,,,0,,,54,127
110111,note_on,71,0,1,,,,,,,,,,,,,,,0,,,54,0
110112,note_on,1,0,1,,,,,,,,,,,,,,,0,,,55,127
110183,note_on,71,0,1,,,,,,,,,,,,,,,0,,,71,0
110184,note_on,1,0,1,,,,,,,,,,,,,,,0,,,69,127
110255,note_on,71,0,1,,,,,,,,,,,,,,,0,,,69,0
110256,note_on,1,0,1,,,,,,,,,,,,,,,0,,,67,127
110327,note_on,71,0,1,,,,,,,,,,,,,,,0,,,67,0
110328,note_on,1,0,1,,,,,,,,,,,,,,,0,,,66,127
110399,note_on,71,0,1,,,,,,,,,,,,,,,0,,,66,0
110400,note_on,1,0,1,,,,,,,,,,,,,,,0,,,64,127
110471,note_on,71,0,1,,,,,,,,,,,,,,,0,,,64,0
110472,note_on,1,0,1,,,,,,,,,,,,,,,0,,,62,127
110543,note_on,71,0,1,,,,,,,,,,,,,,,0,,,62,0
110544,note_on,1,0,1,,,,,,,,,,,,,,,0,,,61,127
110615,note_on,71,0,1,,,,,,,,,,,,,,,0,,,61,0
110616,note_on,1,0,1,,,,,,,,,,,,,,,0,,,59,127
110687,note_on,71,0,1,,,,,,,,,,,,,,,0,,,59,0
110687,note_on,0,0,1,,,,,,,,,,,,,,,0,,,55,0
110688,note_on,1,0,1,,,,,,,,,,,,,,,0,,,57,127
110759,note_on,71,0,1,,,,,,,,,,,,,,,0,,,57,0
110760,note_on,0,0,1,,,,,,,,,,,,,,,0,,,38,127
110760,note_on,1,0,1,,,,,,,,,,,,,,,0,,,69,127
110831,note_on,71,0,1,,,,,,,,,,,,,,,0,,,38,0
110832,note_on,1,0,1,,,,,,,,,,,,,,,0,,,40,127
110903,note_on,71,0,1,,,,,,,,,,,,,,,0,,,40,0
110904,note_on,1,0,1,,,,,,,,,,,,,,,0,,,42,127
110975,note_on,71,0,1,,,,,,,,,,,,,,,0,,,42,0
110976,note_on,1,0,1,,,,,,,,,,,,,,,0,,,43,127
111047,note_on,71,0,1,,,,,,,,,,,,,,,0,,,43,0
111048,note_on,1,0,1,,,,,,,,,,,,,,,0,,,45,127
111119,note_on,71,0,1,,,,,,,,,,,,,,,0,,,45,0
111120,note_on,1,0,1,,,,,,,,,,,,,,,0,,,47,127
111191,note_on,71,0,1,,,,,,,,,,,,,,,0,,,47,0
111192,note_on,1,0,1,,,,,,,,,,,,,,,0,,,49,127
111263,note_on,71,0,1,,,,,,,,,,,,,,,0,,,49,0
111264,note_on,1,0,1,,,,,,,,,,,,,,,0,,,50,127
111335,note_on,71,0,1,,,,,,,,,,,,,,,0,,,69,0
111336,note_on,1,0,1,,,,,,,,,,,,,,,0,,,67,127
111407,note_on,71,0,1,,,,,,,,,,,,,,,0,,,67,0
111408,note_on,1,0,1,,,,,,,,,,,,,,,0,,,66,127
111479,note_on,71,0,1,,,,,,,,,,,,,,,0,,,66,0
111480,note_on,1,0,1,,,,,,,,,,,,,,,0,,,64,127
111551,note_on,71,0,1,,,,,,,,,,,,,,,0,,,64,0
111552,note_on,1,0,1,,,,,,,,,,,,,,,0,,,62,127
111623,note_on,71,0,1,,,,,,,,,,,,,,,0,,,62,0
111624,note_on,1,0,1,,,,,,,,,,,,,,,0,,,61,127
111695,note_on,71,0,1,,,,,,,,,,,,,,,0,,,61,0
111696,note_on,1,0,1,,,,,,,,,,,,,,,0,,,59,127
111767,note_on,71,0,1,,,,,,,,,,,,,,,0,,,59,0
111768,note_on,1,0,1,,,,,,,,,,,,,,,0,,,57,127
111839,note_on,0,0,1,,,,,,,,,,,,,,,0,,,50,0
111839,note_on,71,0,1,,,,,,,,,,,,,,,0,,,57,0
111840,note_on,0,0,1,,,,,,,,,,,,,,,0,,,43,127
111840,note_on,1,0,1,,,,,,,,,,,,,,,0,,,67,127
111840,note_on,0,0,1,,,,,,,,,,,,,,,0,,,59,127
112031,note_on,191,0,1,,,,,,,,,,,,,,,0,,,67,0
112032,note_on,1,0,1,,,,,,,,,,,,,,,0,,,66,127
112223,note_on,191,0,1,,,,,,,,,,,,,,,0,,,66,0
112224,note_on,1,0,1,,,,,,,,,,,,,,,0,,,64,127
112415,note_on,0,0,1,,,,,,,,,,,,,,,0,,,43,0
112415,note_on,0,0,1,,,,,,,,,,,,,,,0,,,59,0
112415,note_on,191,0,1,,,,,,,,,,,,,,,0,,,64,0
112416,note_on,1,0,1,,,,,,,,,,,,,,,0,,,62,127
112416,note_on,0,0,1,,,,,,,,,,,,,,,0,,,57,127
112416,note_on,0,0,1,,,,,,,,,,,,,,,0,,,45,127
112607,note_on,191,0,1,,,,,,,,,,,,,,,0,,,62,0
112608,note_on,1,0,1,,,,,,,,,,,,,,,0,,,64,127
112799,note_on,191,0,1,,,,,,,,,,,,,,,0,,,64,0
112800,note_on,1,0,1,,,,,,,,,,,,,,,0,,,61,127
112991,note_on,191,0,1,,,,,,,,,,,,,,,0,,,61,0
112991,note_on,0,0,1,,,,,,,,,,,,,,,0,,,45,0
112991,note_on,0,0,1,,,,,,,,,,,,,,,0,,,57,0
112992,note_on,1,0,1,,,,,,,,,,,,,,,0,,,38,127
112992,note_on,0,0,1,,,,,,,,,,,,,,,0,,,62,127
113183,note_on,191,0,1,,,,,,,,,,,,,,,0,,,62,0
113184,note_on,1,0,1,,,,,,,,,,,,,,,0,,,86,127
113375,note_on,191,0,1,,,,,,,,,,,,,,,0,,,86,0
113376,note_on,1,0,1,,,,,,,,,,,,,,,0,,,81,127
113567,note_on,191,0,1,,,,,,,,,,,,,,,0,,,81,0
113568,note_on,1,0,1,,,,,,,,,,,,,,,0,,,78,127
113757,note_on,189,0,1,,,,,,,,,,,,,,,0,,,38,0
113759,note_on,2,0,1,,,,,,,,,,,,,,,0,,,78,0
113760,note_on,1,0,1,,,,,,,,,,,,,,,0,,,42,127
113760,note_on,0,0,1,,,,,,,,,,,,,,,0,,,74,127
113951,note_on,191,0,1,,,,,,,,,,,,,,,0,,,74,0
113951,note_on,0,0,1,,,,,,,,,,,,,,,0,,,42,0
113952,note_on,0,0,1,,,,,,,,,,,,,,,0,,,69,127
113952,note_on,1,0,1,,,,,,,,,,,,,,,0,,,45,127
114142,note_on,190,0,1,,,,,,,,,,,,,,,0,,,69,0
114143,note_on,1,0,1,,,,,,,,,,,,,,,0,,,45,0
114144,note_on,1,0,1,,,,,,,,,,,,,,,0,,,50,127
114144,note_on,0,0,1,,,,,,,,,,,,,,,0,,,66,127
114335,note_on,0,0,1,,,,,,,,,,,,,,,0,,,50,0
114335,note_on,191,0,1,,,,,,,,,,,,,,,0,,,66,0
114336,note_on,1,0,1,,,,,,,,,,,,,,,0,,,38,127
114336,note_on,0,0,1,,,,,,,,,,,,,,,0,,,86,127
114527,note_on,191,0,1,,,,,,,,,,,,,,,0,,,86,0
114528,note_on,1,0,1,,,,,,,,,,,,,,,0,,,81,127
114719,note_on,191,0,1,,,,,,,,,,,,,,,0,,,81,0
114720,note_on,1,0,1,,,,,,,,,,,,,,,0,,,78,127
114911,note_on,191,0,1,,,,,,,,,,,,,,,0,,,78,0
114911,note_on,0,0,1,,,,,,,,,,,,,,,0,,,38,0
114912,note_on,1,0,1,,,,,,,,,,,,,,,0,,,74,127
114912,note_on,0,0,1,,,,,,,,,,,,,,,0,,,42,127
115103,note_on,191,0,1,,,,,,,,,,,,,,,0,,,42,0
115103,note_on,0,0,1,,,,,,,,,,,,,,,0,,,74,0
115104,note_on,1,0,1,,,,,,,,,,,,,,,0,,,69,127
115104,note_on,0,0,1,,,,,,,,,,,,,,,0,,,45,127
115294,note_on,190,0,1,,,,,,,,,,,,,,,0,,,69,0
115295,note_on,1,0,1,,,,,,,,,,,,,,,0,,,45,0
115296,note_on,0,0,1,,,,,,,,,,,,,,,0,,,62,127
115296,note_on,0,0,1,,,,,,,,,,,,,,,0,,,67,127
115296,note_on,0,0,1,,,,,,,,,,,,,,,0,,,50,127
115296,note_on,1,0,1,,,,,,,,,,,,,,,0,,,64,127
115296,note_on,0,0,1,,,,,,,,,,,,,,,0,,,38,127
115296,note_on,0,0,1,,,,,,,,,,,,,,,0,,,66,127
115343,note_on,47,0,1,,,,,,,,,,,,,,,0,,,67,0
115343,note_on,0,0,1,,,,,,,,,,,,,,,0,,,64,0
115487,note_on,144,0,1,,,,,,,,,,,,,,,0,,,66,0
115487,note_on,0,0,1,,,,,,,,,,,,,,,0,,,62,0
115488,note_on,0,0,1,,,,,,,,,,,,,,,0,,,64,127
115488,note_on,1,0,1,,,,,,,,,,,,,,,0,,,61,127
115679,note_on,191,0,1,,,,,,,,,,,,,,,0,,,64,0
115679,note_on,0,0,1,,,,,,,,,,,,,,,0,,,61,0
115680,note_on,1,0,1,,,,,,,,,,,,,,,0,,,62,127
115680,note_on,0,0,1,,,,,,,,,,,,,,,0,,,66,127
115871,note_on,0,0,1,,,,,,,,,,,,,,,0,,,62,0
115871,note_on,0,0,1,,,,,,,,,,,,,,,0,,,38,0
115871,note_on,191,0,1,,,,,,,,,,,,,,,0,,,66,0
115871,note_on,0,0,1,,,,,,,,,,,,,,,0,,,50,0
115872,note_on,0,0,1,,,,,,,,,,,,,,,0,,,43,127
115872,note_on,1,0,1,,,,,,,,,,,,,,,0,,,67,127
115872,note_on,0,0,1,,,,,,,,,,,,,,,0,,,55,127
115872,note_on,0,0,1,,,,,,,,,,,,,,,0,,,64,127
116063,note_on,191,0,1,,,,,,,,,,,,,,,0,,,64,0
116063,note_on,0,0,1,,,,,,,,,,,,,,,0,,,67,0
116064,note_on,1,0,1,,,,,,,,,,,,,,,0,,,62,127
116064,note_on,0,0,1,,,,,,,,,,,,,,,0,,,66,127
116255,note_on,191,0,1,,,,,,,,,,,,,,,0,,,66,0
116255,note_on,0,0,1,,,,,,,,,,,,,,,0,,,43,0
116255,note_on,0,0,1,,,,,,,,,,,,,,,0,,,55,0
116255,note_on,0,0,1,,,,,,,,,,,,,,,0,,,62,0
116256,note_on,1,0,1,,,,,,,,,,,,,,,0,,,64,127
116256,note_on,0,0,1,,,,,,,,,,,,,,,0,,,57,127
116256,note_on,0,0,1,,,,,,,,,,,,,,,0,,,45,127
116256,note_on,0,0,1,,,,,,,,,,,,,,,0,,,61,127
116447,note_on,0,0,1,,,,,,,,,,,,,,,0,,,45,0
116447,note_on,0,0,1,,,,,,,,,,,,,,,0,,,57,0
116447,note_on,191,0,1,,,,,,,,,,,,,,,0,,,61,0
116447,note_on,0,0,1,,,,,,,,,,,,,,,0,,,64,0
116448,note_on,1,0,1,,,,,,,,,,,,,,,0,,,62,127
116448,note_on,0,0,1,,,,,,,,,,,,,,,0,,,38,127
116448,note_on,0,0,1,,,,,,,,,,,,,,,0,,,50,127
116639,note_on,191,0,1,,,,,,,,,,,,,,,0,,,62,0
116640,note_on,1,0,1,,,,,,,,,,,,,,,0,,,79,127
116831,note_on,191,0,1,,,,,,,,,,,,,,,0,,,79,0
116832,note_on,1,0,1,,,,,,,,,,,,,,,0,,,81,127
117023,note_on,191,0,1,,,,,,,,,,,,,,,0,,,81,0
117023,note_on,0,0,1,,,,,,,,,,,,,,,0,,,38,0
117023,note_on,0,0,1,,,,,,,,,,,,,,,0,,,50,0
117024,note_on,1,0,1,,,,,,,,,,,,,,,0,,,55,127
117024,note_on,0,0,1,,,,,,,,,,,,,,,0,,,43,127
117024,note_on,0,0,1,,,,,,,,,,,,,,,0,,,83,127
117215,note_on,191,0,1,,,,,,,,,,,,,,,0,,,83,0
117216,note_on,1,0,1,,,,,,,,,,,,,,,0,,,78,127
117407,note_on,191,0,1,,,,,,,,,,,,,,,0,,,78,0
117408,note_on,1,0,1,,,,,,,,,,,,,,,0,,,79,127
117599,note_on,0,0,1,,,,,,,,,,,,,,,0,,,43,0
117599,note_on,191,0,1,,,,,,,,,,,,,,,0,,,79,0
117599,note_on,0,0,1,,,,,,,,,,,,,,,0,,,55,0
117600,note_on,1,0,1,,,,,,,,,,,,,,,0,,,81,127
117600,note_on,0,0,1,,,,,,,,,,,,,,,0,,,54,127
117600,note_on,0,0,1,,,,,,,,,,,,,,,0,,,42,127
117791,note_on,191,0,1,,,,,,,,,,,,,,,0,,,81,0
117792,note_on,1,0,1,,,,,,,,,,,,,,,0,,,74,127
117983,note_on,0,0,1,,,,,,,,,,,,,,,0,,,54,0
117983,note_on,191,0,1,,,,,,,,,,,,,,,0,,,74,0
117983,note_on,0,0,1,,,,,,,,,,,,,,,0,,,42,0
117984,note_on,0,0,1,,,,,,,,,,,,,,,0,,,78,127
117984,note_on,0,0,1,,,,,,,,,,,,,,,0,,,55,127
117984,note_on,1,0,1,,,,,,,,,,,,,,,0,,,43,127
117984,note_on,0,0,1,,,,,,,,,,,,,,,0,,,81,127
118175,note_on,191,0,1,,,,,,,,,,,,,,,0,,,55,0
118175,note_on,0,0,1,,,,,,,,,,,,,,,0,,,43,0
118175,note_on,0,0,1,,,,,,,,,,,,,,,0,,,81,0
118175,note_on,0,0,1,,,,,,,,,,,,,,,0,,,78,0
118176,note_on,1,0,1,,,,,,,,,,,,,,,0,,,81,127
118176,note_on,0,0,1,,,,,,,,,,,,,,,0,,,78,127
118176,note_on,0,0,1,,,,,,,,,,,,,,,0,,,79,127
118176,note_on,0,0,1,,,,,,,,,,,,,,,0,,,45,127
118176,note_on,0,0,1,,,,,,,,,,,,,,,0,,,76,127
118176,note_on,0,0,1,,,,,,,,,,,,,,,0,,,57,127
118223,note_on,47,0,1,,,,,,,,,,,,,,,0,,,78,0
118223,note_on,0,0,1,,,,,,,,,,,,,,,0,,,81,0
118367,note_on,0,0,1,,,,,,,,,,,,,,,0,,,79,0
118367,note_on,144,0,1,,,,,,,,,,,,,,,0,,,76,0
118368,note_on,1,0,1,,,,,,,,,,,,,,,0,,,78,127
118368,note_on,0,0,1,,,,,,,,,,,,,,,0,,,74,127
118559,note_on,191,0,1,,,,,,,,,,,,,,,0,,,74,0
118559,note_on,0,0,1,,,,,,,,,,,,,,,0,,,78,0
118560,note_on,1,0,1,,,,,,,,,,,,,,,0,,,76,127
118560,note_on,0,0,1,,,,,,,,,,,,,,,0,,,73,127
118751,note_on,191,0,1,,,,,,,,,,,,,,,0,,,73,0
118751,note_on,0,0,1,,,,,,,,,,,,,,,0,,,45,0
118751,note_on,0,0,1,,,,,,,,,,,,,,,0,,,76,0
118751,note_on,0,0,1,,,,,,,,,,,,,,,0,,,57,0
118752,note_on,1,0,1,,,,,,,,,,,,,,,0,,,38,127
118752,note_on,0,0,1,,,,,,,,,,,,,,,0,,,50,127
118752,note_on,0,0,1,,,,,,,,,,,,,,,0,,,74,127
118943,note_on,191,0,1,,,,,,,,,,,,,,,0,,,74,0
118944,note_on,1,0,1,,,,,,,,,,,,,,,0,,,73,127
119135,note_on,191,0,1,,,,,,,,,,,,,,,0,,,73,0
119136,note_on,1,0,1,,,,,,,,,,,,,,,0,,,74,127
119327,note_on,191,0,1,,,,,,,,,,,,,,,0,,,74,0
119327,note_on,0,0,1,,,,,,,,,,,,,,,0,,,38,0
119327,note_on,0,0,1,,,,,,,,,,,,,,,0,,,50,0
119328,note_on,1,0,1,,,,,,,,,,,,,,,0,,,55,127
119328,note_on,0,0,1,,,,,,,,,,,,,,,0,,,76,127
119328,note_on,0,0,1,,,,,,,,,,,,,,,0,,,43,127
119519,note_on,191,0,1,,,,,,,,,,,,,,,0,,,76,0
119520,note_on,1,0,1,,,,,,,,,,,,,,,0,,,71,127
119711,note_on,191,0,1,,,,,,,,,,,,,,,0,,,71,0
119712,note_on,1,0,1,,,,,,,,,,,,,,,0,,,73,127
119903,note_on,191,0,1,,,,,,,,,,,,,,,0,,,73,0
119903,note_on,0,0,1,,,,,,,,,,,,,,,0,,,43,0
119903,note_on,0,0,1,,,,,,,,,,,,,,,0,,,55,0
119904,note_on,1,0,1,,,,,,,,,,,,,,,0,,,74,127
119904,note_on,0,0,1,,,,,,,,,,,,,,,0,,,42,127
119904,note_on,0,0,1,,,,,,,,,,,,,,,0,,,54,127
120096,note_on,192,0,1,,,,,,,,,,,,,,,0,,,69,127
120287,note_on,0,0,1,,,,,,,,,,,,,,,0,,,42,0
120287,note_on,0,0,1,,,,,,,,,,,,,,,0,,,54,0
120287,note_on,191,0,1,,,,,,,,,,,,,,,0,,,69,0
120288,note_on,1,0,1,,,,,,,,,,,,,,,0,,,71,127
120288,note_on,0,0,1,,,,,,,,,,,,,,,0,,,55,127
120288,note_on,0,0,1,,,,,,,,,,,,,,,0,,,43,127
120479,note_on,191,0,1,,,,,,,,,,,,,,,0,,,43,0
120479,note_on,0,0,1,,,,,,,,,,,,,,,0,,,55,0
120479,note_on,0,0,1,,,,,,,,,,,,,,,0,,,71,0
120480,note_on,1,0,1,,,,,,,,,,,,,,,0,,,45,127
120480,note_on,0,0,1,,,,,,,,,,,,,,,0,,,66,127
120480,note_on,0,0,1,,,,,,,,,,,,,,,0,,,57,127
120671,note_on,191,0,1,,,,,,,,,,,,,,,0,,,66,0
120672,note_on,1,0,1,,,,,,,,,,,,,,,0,,,67,127
120863,note_on,191,0,1,,,,,,,,,,,,,,,0,,,67,0
120863,note_on,0,0,1,,,,,,,,,,,,,,,0,,,57,0
120863,note_on,0,0,1,,,,,,,,,,,,,,,0,,,45,0
120863,note_on,0,0,1,,,,,,,,,,,,,,,0,,,74,0
120864,note_on,0,0,1,,,,,,,,,,,,,,,0,,,43,127
120864,note_on,1,0,1,,,,,,,,,,,,,,,0,,,73,127
120864,note_on,0,0,1,,,,,,,,,,,,,,,0,,,55,127
120864,note_on,0,0,1,,,,,,,,,,,,,,,0,,,64,127
121055,note_on,0,0,1,,,,,,,,,,,,,,,0,,,64,0
121055,note_on,0,0,1,,,,,,,,,,,,,,,0,,,73,0
121055,note_on,191,0,1,,,,,,,,,,,,,,,0,,,43,0
121055,note_on,0,0,1,,,,,,,,,,,,,,,0,,,55,0
121056,note_on,0,0,1,,,,,,,,,,,,,,,0,,,54,127
121056,note_on,1,0,1,,,,,,,,,,,,,,,0,,,74,127
121056,note_on,0,0,1,,,,,,,,,,,,,,,0,,,42,127
121248,note_on,192,0,1,,,,,,,,,,,,,,,0,,,69,127
121439,note_on,191,0,1,,,,,,,,,,,,,,,0,,,69,0
121439,note_on,0,0,1,,,,,,,,,,,,,,,0,,,42,0
121439,note_on,0,0,1,,,,,,,,,,,,,,,0,,,54,0
121440,note_on,1,0,1,,,,,,,,,,,,,,,0,,,71,127
121440,note_on,0,0,1,,,,,,,,,,,,,,,0,,,55,127
121440,note_on,0,0,1,,,,,,,,,,,,,,,0,,,43,127
121631,note_on,191,0,1,,,,,,,,,,,,,,,0,,,43,0
121631,note_on,0,0,1,,,,,,,,,,,,,,,0,,,55,0
121631,note_on,0,0,1,,,,,,,,,,,,,,,0,,,71,0
121632,note_on,1,0,1,,,,,,,,,,,,,,,0,,,66,127
121632,note_on,0,0,1,,,,,,,,,,,,,,,0,,,57,127
121632,note_on,0,0,1,,,,,,,,,,,,,,,0,,,45,127
121823,note_on,191,0,1,,,,,,,,,,,,,,,0,,,66,0
121824,note_on,1,0,1,,,,,,,,,,,,,,,0,,,67,127
122015,note_on,0,0,1,,,,,,,,,,,,,,,0,,,45,0
122015,note_on,191,0,1,,,,,,,,,,,,,,,0,,,67,0
122015,note_on,0,0,1,,,,,,,,,,,,,,,0,,,57,0
122015,note_on,0,0,1,,,,,,,,,,,,,,,0,,,74,0
122016,note_on,1,0,1,,,,,,,,,,,,,,,0,,,73,127
122016,note_on,0,0,1,,,,,,,,,,,,,,,0,,,64,127
122016,note_on,0,0,1,,,,,,,,,,,,,,,0,,,55,127
122016,note_on,0,0,1,,,,,,,,,,,,,,,0,,,43,127
122207,note_on,191,0,1,,,,,,,,,,,,,,,0,,,43,0
122207,note_on,0,0,1,,,,,,,,,,,,,,,0,,,64,0
122207,note_on,0,0,1,,,,,,,,,,,,,,,0,,,55,0
122207,note_on,0,0,1,,,,,,,,,,,,,,,0,,,73,0
122208,note_on,1,0,1,,,,,,,,,,,,,,,0,,,74,127
122208,note_on,0,0,1,,,,,,,,,,,,,,,0,,,54,127
122208,note_on,0,0,1,,,,,,,,,,,,,,,0,,,42,127
122400,note_on,192,0,1,,,,,,,,,,,,,,,0,,,69,127
122591,note_on,0,0,1,,,,,,,,,,,,,,,0,,,54,0
122591,note_on,0,0,1,,,,,,,,,,,,,,,0,,,42,0
122591,note_on,191,0,1,,,,,,,,,,,,,,,0,,,69,0
122592,note_on,1,0,1,,,,,,,,,,,,,,,0,,,71,127
122592,note_on,0,0,1,,,,,,,,,,,,,,,0,,,43,127
122592,note_on,0,0,1,,,,,,,,,,,,,,,0,,,55,127
122783,note_on,191,0,1,,,,,,,,,,,,,,,0,,,43,0
122783,note_on,0,0,1,,,,,,,,,,,,,,,0,,,55,0
122783,note_on,0,0,1,,,,,,,,,,,,,,,0,,,71,0
122784,note_on,1,0,1,,,,,,,,,,,,,,,0,,,66,127
122784,note_on,0,0,1,,,,,,,,,,,,,,,0,,,57,127
122784,note_on,0,0,1,,,,,,,,,,,,,,,0,,,45,127
122975,note_on,191,0,1,,,,,,,,,,,,,,,0,,,66,0
122976,note_on,1,0,1,,,,,,,,,,,,,,,0,,,67,127
123167,note_on,0,0,1,,,,,,,,,,,,,,,0,,,45,0
123167,note_on,0,0,1,,,,,,,,,,,,,,,0,,,57,0
123167,note_on,191,0,1,,,,,,,,,,,,,,,0,,,67,0
123168,note_on,1,0,1,,,,,,,,,,,,,,,0,,,57,127
123168,note_on,0,0,1,,,,,,,,,,,,,,,0,,,45,127
123168,note_on,0,0,1,,,,,,,,,,,,,,,0,,,64,127
123207,note_on,39,0,1,,,,,,,,,,,,,,,0,,,74,0
123216,note_on,9,0,1,,,,,,,,,,,,,,,0,,,73,127
123264,note_on,48,0,1,,,,,,,,,,,,,,,0,,,71,127
123279,note_on,15,0,1,,,,,,,,,,,,,,,0,,,73,0
123312,note_on,33,0,1,,,,,,,,,,,,,,,0,,,73,127
123327,note_on,15,0,1,,,,,,,,,,,,,,,0,,,71,0
123359,note_on,0,0,1,,,,,,,,,,,,,,,0,,,45,0
123359,note_on,0,0,1,,,,,,,,,,,,,,,0,,,73,0
123359,note_on,32,0,1,,,,,,,,,,,,,,,0,,,57,0
123359,note_on,0,0,1,,,,,,,,,,,,,,,0,,,64,0
123360,note_on,1,0,1,,,,,,,,,,,,,,,0,,,38,127
123360,note_on,0,0,1,,,,,,,,,,,,,,,0,,,50,127
123360,note_on,0,0,1,,,,,,,,,,,,,,,0,,,74,127
123360,control_change,0,0,1,,,,,,,,,,,,,,,0,121,0,,
123360,note_on,0,0,1,,,,,,,,,,,,,,,0,,,62,127
124511,note_on,1151,0,1,,,,,,,,,,,,,,,0,,,62,0
124511,note_on,0,0,1,,,,,,,,,,,,,,,0,,,38,0
124511,note_on,0,0,1,,,,,,,,,,,,,,,0,,,50,0
124511,note_on,0,0,1,,,,,,,,,,,,,,,0,,,74,0
124511,end_of_track,0,1,1,,,,,,,,,,,,,,,,,,,
