tick,type,time,meta,track,frame_rate,hours,minutes,seconds,frames,sub_frames,numerator,denominator,clocks_per_click,notated_32nd_notes_per_beat,key,tempo,port,program,channel,control,value,note,velocity
0,track_name,0,1,0,,,,,,,,,,,,,,,,,,,
0,midi_port,0,1,2,,,,,,,,,,,,,0,,,,,,
0,control_change,0,0,1,,,,,,,,,,,,,,,0,7,100,,
0,control_change,0,0,1,,,,,,,,,,,,,,,0,121,0,,
0,control_change,0,0,1,,,,,,,,,,,,,,,0,7,127,,
0,program_change,0,0,1,,,,,,,,,,,,,,0,0,,,,
0,program_change,0,0,1,,,,,,,,,,,,,,0,0,,,,
0,end_of_track,0,1,2,,,,,,,,,,,,,,,,,,,
0,end_of_track,0,1,0,,,,,,,,,,,,,,,,,,,
0,text,0,1,0,,,,,,,,,,,,,,,,,,,
0,smpte_offset,0,1,0,25,32,0,3,0,0,,,,,,,,,,,,,
0,midi_port,0,1,1,,,,,,,,,,,,,0,,,,,,
0,key_signature,0,1,0,,,,,,,,,,,C,,,,,,,,
0,set_tempo,0,1,0,,,,,,,,,,,,600000,,,,,,,
0,time_signature,0,1,0,,,,,,,3,4,24,8,,,,,,,,,
96,note_on,96,0,1,,,,,,,,,,,,,,,0,,,75,127
287,note_on,191,0,1,,,,,,,,,,,,,,,0,,,75,0
288,note_on,1,0,1,,,,,,,,,,,,,,,0,,,74,127
383,note_on,95,0,1,,,,,,,,,,,,,,,0,,,74,0
384,note_on,1,0,1,,,,,,,,,,,,,,,0,,,72,127
479,note_on,95,0,1,,,,,,,,,,,,,,,0,,,72,0
480,note_on,1,0,1,,,,,,,,,,,,,,,0,,,72,127
575,note_on,95,0,1,,,,,,,,,,,,,,,0,,,72,0
576,note_on,1,0,1,,,,,,,,,,,,,,,0,,,70,127
671,note_on,95,0,1,,,,,,,,,,,,,,,0,,,70,0
672,note_on,1,0,1,,,,,,,,,,,,,,,0,,,68,127
767,note_on,95,0,1,,,,,,,,,,,,,,,0,,,68,0
768,note_on,1,0,1,,,,,,,,,,,,,,,0,,,67,127
863,note_on,95,0,1,,,,,,,,,,,,,,,0,,,67,0
864,note_on,1,0,1,,,,,,,,,,,,,,,0,,,65,127
1055,note_on,191,0,1,,,,,,,,,,,,,,,0,,,65,0
1056,note_on,1,0,1,,,,,,,,,,,,,,,0,,,67,127
1151,note_on,95,0,1,,,,,,,,,,,,,,,0,,,67,0
1152,note_on,1,0,1,,,,,,,,,,,,,,,0,,,68,127
1247,note_on,95,0,1,,,,,,,,,,,,,,,0,,,68,0
1248,note_on,1,0,1,,,,,,,,,,,,,,,0,,,63,127
1248,note_on,0,0,1,,,,,,,,,,,,,,,0,,,68,127
1439,note_on,191,0,1,,,,,,,,,,,,,,,0,,,63,0
1440,note_on,1,0,1,,,,,,,,,,,,,,,0,,,62,127
1535,note_on,95,0,1,,,,,,,,,,,,,,,0,,,62,0
1536,note_on,1,0,1,,,,,,,,,,,,,,,0,,,60,127
1631,note_on,0,0,1,,,,,,,,,,,,,,,0,,,68,0
1631,note_on,95,0,1,,,,,,,,,,,,,,,0,,,60,0
1632,note_on,0,0,1,,,,,,,,,,,,,,,0,,,67,127
1632,note_on,1,0,1,,,,,,,,,,,,,,,0,,,60,127
1727,note_on,95,0,1,,,,,,,,,,,,,,,0,,,60,0
1728,note_on,1,0,1,,,,,,,,,,,,,,,0,,,58,127
1823,note_on,95,0,1,,,,,,,,,,,,,,,0,,,58,0
1824,note_on,1,0,1,,,,,,,,,,,,,,,0,,,56,127
1919,note_on,95,0,1,,,,,,,,,,,,,,,0,,,56,0
1920,note_on,1,0,1,,,,,,,,,,,,,,,0,,,55,127
2015,note_on,95,0,1,,,,,,,,,,,,,,,0,,,55,0
2015,note_on,0,0,1,,,,,,,,,,,,,,,0,,,67,0
2016,note_on,1,0,1,,,,,,,,,,,,,,,0,,,53,127
2016,note_on,0,0,1,,,,,,,,,,,,,,,0,,,70,127
2111,note_on,95,0,1,,,,,,,,,,,,,,,0,,,70,0
2112,note_on,1,0,1,,,,,,,,,,,,,,,0,,,68,127
2207,note_on,0,0,1,,,,,,,,,,,,,,,0,,,53,0
2207,note_on,95,0,1,,,,,,,,,,,,,,,0,,,68,0
2208,note_on,1,0,1,,,,,,,,,,,,,,,0,,,55,127
2208,note_on,0,0,1,,,,,,,,,,,,,,,0,,,67,127
2303,note_on,95,0,1,,,,,,,,,,,,,,,0,,,67,0
2303,note_on,0,0,1,,,,,,,,,,,,,,,0,,,55,0
2304,note_on,1,0,1,,,,,,,,,,,,,,,0,,,56,127
2304,note_on,0,0,1,,,,,,,,,,,,,,,0,,,68,127
2399,note_on,95,0,1,,,,,,,,,,,,,,,0,,,68,0
2399,note_on,0,0,1,,,,,,,,,,,,,,,0,,,56,0
2400,note_on,1,0,1,,,,,,,,,,,,,,,0,,,55,127
2400,note_on,0,0,1,,,,,,,,,,,,,,,0,,,82,127
2400,note_on,0,0,1,,,,,,,,,,,,,,,0,,,70,127
2591,note_on,191,0,1,,,,,,,,,,,,,,,0,,,70,0
2591,note_on,0,0,1,,,,,,,,,,,,,,,0,,,82,0
2592,note_on,1,0,1,,,,,,,,,,,,,,,0,,,80,127
2687,note_on,95,0,1,,,,,,,,,,,,,,,0,,,80,0
2688,note_on,1,0,1,,,,,,,,,,,,,,,0,,,79,127
2783,note_on,95,0,1,,,,,,,,,,,,,,,0,,,79,0
2783,note_on,0,0,1,,,,,,,,,,,,,,,0,,,55,0
2784,note_on,0,0,1,,,,,,,,,,,,,,,0,,,79,127
2784,note_on,1,0,1,,,,,,,,,,,,,,,0,,,56,127
2879,note_on,95,0,1,,,,,,,,,,,,,,,0,,,79,0
2880,note_on,1,0,1,,,,,,,,,,,,,,,0,,,77,127
2975,note_on,95,0,1,,,,,,,,,,,,,,,0,,,77,0
2976,note_on,1,0,1,,,,,,,,,,,,,,,0,,,75,127
3071,note_on,95,0,1,,,,,,,,,,,,,,,0,,,75,0
3072,note_on,1,0,1,,,,,,,,,,,,,,,0,,,74,127
3167,note_on,95,0,1,,,,,,,,,,,,,,,0,,,74,0
3167,note_on,0,0,1,,,,,,,,,,,,,,,0,,,56,0
3168,note_on,1,0,1,,,,,,,,,,,,,,,0,,,60,127
3168,note_on,0,0,1,,,,,,,,,,,,,,,0,,,72,127
3359,note_on,191,0,1,,,,,,,,,,,,,,,0,,,72,0
3360,note_on,1,0,1,,,,,,,,,,,,,,,0,,,74,127
3455,note_on,95,0,1,,,,,,,,,,,,,,,0,,,74,0
3456,note_on,1,0,1,,,,,,,,,,,,,,,0,,,75,127
3551,note_on,0,0,1,,,,,,,,,,,,,,,0,,,60,0
3551,note_on,95,0,1,,,,,,,,,,,,,,,0,,,75,0
3552,note_on,1,0,1,,,,,,,,,,,,,,,0,,,70,127
3552,note_on,0,0,1,,,,,,,,,,,,,,,0,,,75,127
3552,note_on,0,0,1,,,,,,,,,,,,,,,0,,,58,127
3743,note_on,191,0,1,,,,,,,,,,,,,,,0,,,58,0
3743,note_on,0,0,1,,,,,,,,,,,,,,,0,,,70,0
3744,note_on,1,0,1,,,,,,,,,,,,,,,0,,,68,127
3839,note_on,95,0,1,,,,,,,,,,,,,,,0,,,68,0
3840,note_on,1,0,1,,,,,,,,,,,,,,,0,,,67,127
3935,note_on,95,0,1,,,,,,,,,,,,,,,0,,,67,0
3935,note_on,0,0,1,,,,,,,,,,,,,,,0,,,75,0
3936,note_on,1,0,1,,,,,,,,,,,,,,,0,,,67,127
3936,note_on,0,0,1,,,,,,,,,,,,,,,0,,,74,127
4031,note_on,95,0,1,,,,,,,,,,,,,,,0,,,67,0
4032,note_on,1,0,1,,,,,,,,,,,,,,,0,,,65,127
4127,note_on,95,0,1,,,,,,,,,,,,,,,0,,,65,0
4128,note_on,1,0,1,,,,,,,,,,,,,,,0,,,63,127
4223,note_on,95,0,1,,,,,,,,,,,,,,,0,,,63,0
4224,note_on,1,0,1,,,,,,,,,,,,,,,0,,,62,127
4319,note_on,0,0,1,,,,,,,,,,,,,,,0,,,74,0
4319,note_on,95,0,1,,,,,,,,,,,,,,,0,,,62,0
4320,note_on,1,0,1,,,,,,,,,,,,,,,0,,,60,127
4320,note_on,0,0,1,,,,,,,,,,,,,,,0,,,77,127
4415,note_on,95,0,1,,,,,,,,,,,,,,,0,,,77,0
4416,note_on,1,0,1,,,,,,,,,,,,,,,0,,,75,127
4511,note_on,95,0,1,,,,,,,,,,,,,,,0,,,75,0
4511,note_on,0,0,1,,,,,,,,,,,,,,,0,,,60,0
4512,note_on,1,0,1,,,,,,,,,,,,,,,0,,,62,127
4512,note_on,0,0,1,,,,,,,,,,,,,,,0,,,74,127
4607,note_on,95,0,1,,,,,,,,,,,,,,,0,,,74,0
4607,note_on,0,0,1,,,,,,,,,,,,,,,0,,,62,0
4608,note_on,1,0,1,,,,,,,,,,,,,,,0,,,63,127
4608,note_on,0,0,1,,,,,,,,,,,,,,,0,,,75,127
4703,note_on,95,0,1,,,,,,,,,,,,,,,0,,,75,0
4703,note_on,0,0,1,,,,,,,,,,,,,,,0,,,63,0
4704,note_on,0,0,1,,,,,,,,,,,,,,,0,,,77,127
4704,note_on,1,0,1,,,,,,,,,,,,,,,0,,,62,127
4704,note_on,0,0,1,,,,,,,,,,,,,,,0,,,65,127
4896,note_on,192,0,1,,,,,,,,,,,,,,,0,,,70,127
4992,note_on,96,0,1,,,,,,,,,,,,,,,0,,,77,0
5087,note_on,0,0,1,,,,,,,,,,,,,,,0,,,65,0
5087,note_on,0,0,1,,,,,,,,,,,,,,,0,,,70,0
5087,note_on,95,0,1,,,,,,,,,,,,,,,0,,,62,0
5088,note_on,1,0,1,,,,,,,,,,,,,,,0,,,65,127
5088,note_on,0,0,1,,,,,,,,,,,,,,,0,,,62,127
5088,note_on,0,0,1,,,,,,,,,,,,,,,0,,,82,127
5183,note_on,95,0,1,,,,,,,,,,,,,,,0,,,82,0
5184,note_on,1,0,1,,,,,,,,,,,,,,,0,,,80,127
5279,note_on,95,0,1,,,,,,,,,,,,,,,0,,,80,0
5280,note_on,1,0,1,,,,,,,,,,,,,,,0,,,79,127
5375,note_on,95,0,1,,,,,,,,,,,,,,,0,,,79,0
5376,note_on,1,0,1,,,,,,,,,,,,,,,0,,,77,127
5471,note_on,95,0,1,,,,,,,,,,,,,,,0,,,77,0
5471,note_on,0,0,1,,,,,,,,,,,,,,,0,,,62,0
5471,note_on,0,0,1,,,,,,,,,,,,,,,0,,,65,0
5472,note_on,0,0,1,,,,,,,,,,,,,,,0,,,63,127
5472,note_on,0,0,1,,,,,,,,,,,,,,,0,,,77,127
5472,note_on,1,0,1,,,,,,,,,,,,,,,0,,,67,127
5567,note_on,95,0,1,,,,,,,,,,,,,,,0,,,77,0
5568,note_on,1,0,1,,,,,,,,,,,,,,,0,,,75,127
5663,note_on,95,0,1,,,,,,,,,,,,,,,0,,,75,0
5664,note_on,1,0,1,,,,,,,,,,,,,,,0,,,74,127
5759,note_on,95,0,1,,,,,,,,,,,,,,,0,,,74,0
5760,note_on,1,0,1,,,,,,,,,,,,,,,0,,,75,127
5855,note_on,95,0,1,,,,,,,,,,,,,,,0,,,75,0
5855,note_on,0,0,1,,,,,,,,,,,,,,,0,,,63,0
5855,note_on,0,0,1,,,,,,,,,,,,,,,0,,,67,0
5856,note_on,1,0,1,,,,,,,,,,,,,,,0,,,65,127
5856,note_on,0,0,1,,,,,,,,,,,,,,,0,,,62,127
5856,note_on,0,0,1,,,,,,,,,,,,,,,0,,,77,127
6048,note_on,192,0,1,,,,,,,,,,,,,,,0,,,70,127
6144,note_on,96,0,1,,,,,,,,,,,,,,,0,,,77,0
6239,note_on,0,0,1,,,,,,,,,,,,,,,0,,,70,0
6239,note_on,95,0,1,,,,,,,,,,,,,,,0,,,65,0
6239,note_on,0,0,1,,,,,,,,,,,,,,,0,,,62,0
6240,note_on,0,0,1,,,,,,,,,,,,,,,0,,,82,127
6240,note_on,1,0,1,,,,,,,,,,,,,,,0,,,65,127
6240,note_on,0,0,1,,,,,,,,,,,,,,,0,,,62,127
6335,note_on,95,0,1,,,,,,,,,,,,,,,0,,,82,0
6336,note_on,1,0,1,,,,,,,,,,,,,,,0,,,80,127
6431,note_on,95,0,1,,,,,,,,,,,,,,,0,,,80,0
6432,note_on,1,0,1,,,,,,,,,,,,,,,0,,,79,127
6527,note_on,95,0,1,,,,,,,,,,,,,,,0,,,79,0
6528,note_on,1,0,1,,,,,,,,,,,,,,,0,,,77,127
6623,note_on,95,0,1,,,,,,,,,,,,,,,0,,,77,0
6623,note_on,0,0,1,,,,,,,,,,,,,,,0,,,62,0
6623,note_on,0,0,1,,,,,,,,,,,,,,,0,,,65,0
6624,note_on,1,0,1,,,,,,,,,,,,,,,0,,,63,127
6624,note_on,0,0,1,,,,,,,,,,,,,,,0,,,67,127
6624,note_on,0,0,1,,,,,,,,,,,,,,,0,,,77,127
6719,note_on,95,0,1,,,,,,,,,,,,,,,0,,,77,0
6720,note_on,1,0,1,,,,,,,,,,,,,,,0,,,75,127
6815,note_on,95,0,1,,,,,,,,,,,,,,,0,,,75,0
6816,note_on,1,0,1,,,,,,,,,,,,,,,0,,,74,127
6911,note_on,95,0,1,,,,,,,,,,,,,,,0,,,74,0
6912,note_on,1,0,1,,,,,,,,,,,,,,,0,,,75,127
7007,note_on,0,0,1,,,,,,,,,,,,,,,0,,,67,0
7007,note_on,0,0,1,,,,,,,,,,,,,,,0,,,63,0
7007,note_on,95,0,1,,,,,,,,,,,,,,,0,,,75,0
7008,note_on,1,0,1,,,,,,,,,,,,,,,0,,,65,127
7008,note_on,0,0,1,,,,,,,,,,,,,,,0,,,77,127
7199,note_on,191,0,1,,,,,,,,,,,,,,,0,,,65,0
7200,note_on,1,0,1,,,,,,,,,,,,,,,0,,,58,127
7391,note_on,191,0,1,,,,,,,,,,,,,,,0,,,77,0
7392,note_on,1,0,1,,,,,,,,,,,,,,,0,,,68,127
7392,note_on,0,0,1,,,,,,,,,,,,,,,0,,,74,127
7392,note_on,0,0,1,,,,,,,,,,,,,,,0,,,77,127
7583,note_on,191,0,1,,,,,,,,,,,,,,,0,,,68,0
7584,note_on,1,0,1,,,,,,,,,,,,,,,0,,,67,127
7679,note_on,95,0,1,,,,,,,,,,,,,,,0,,,67,0
7680,note_on,1,0,1,,,,,,,,,,,,,,,0,,,65,127
7775,note_on,0,0,1,,,,,,,,,,,,,,,0,,,77,0
7775,note_on,95,0,1,,,,,,,,,,,,,,,0,,,65,0
7775,note_on,0,0,1,,,,,,,,,,,,,,,0,,,74,0
7776,note_on,1,0,1,,,,,,,,,,,,,,,0,,,65,127
7776,note_on,0,0,1,,,,,,,,,,,,,,,0,,,75,127
7776,note_on,0,0,1,,,,,,,,,,,,,,,0,,,79,127
7871,note_on,95,0,1,,,,,,,,,,,,,,,0,,,65,0
7872,note_on,1,0,1,,,,,,,,,,,,,,,0,,,63,127
7967,note_on,95,0,1,,,,,,,,,,,,,,,0,,,63,0
7968,note_on,1,0,1,,,,,,,,,,,,,,,0,,,62,127
8063,note_on,95,0,1,,,,,,,,,,,,,,,0,,,62,0
8064,note_on,1,0,1,,,,,,,,,,,,,,,0,,,63,127
8159,note_on,95,0,1,,,,,,,,,,,,,,,0,,,63,0
8159,note_on,0,0,1,,,,,,,,,,,,,,,0,,,79,0
8159,note_on,0,0,1,,,,,,,,,,,,,,,0,,,75,0
8160,note_on,1,0,1,,,,,,,,,,,,,,,0,,,65,127
8160,note_on,0,0,1,,,,,,,,,,,,,,,0,,,74,127
8160,note_on,0,0,1,,,,,,,,,,,,,,,0,,,77,127
8351,note_on,191,0,1,,,,,,,,,,,,,,,0,,,65,0
8351,note_on,0,0,1,,,,,,,,,,,,,,,0,,,58,0
8352,note_on,1,0,1,,,,,,,,,,,,,,,0,,,58,127
8543,note_on,0,0,1,,,,,,,,,,,,,,,0,,,77,0
8543,note_on,191,0,1,,,,,,,,,,,,,,,0,,,74,0
8544,note_on,1,0,1,,,,,,,,,,,,,,,0,,,68,127
8544,note_on,0,0,1,,,,,,,,,,,,,,,0,,,74,127
8544,note_on,0,0,1,,,,,,,,,,,,,,,0,,,77,127
8735,note_on,191,0,1,,,,,,,,,,,,,,,0,,,68,0
8736,note_on,1,0,1,,,,,,,,,,,,,,,0,,,67,127
8831,note_on,95,0,1,,,,,,,,,,,,,,,0,,,67,0
8832,note_on,1,0,1,,,,,,,,,,,,,,,0,,,65,127
8927,note_on,95,0,1,,,,,,,,,,,,,,,0,,,65,0
8927,note_on,0,0,1,,,,,,,,,,,,,,,0,,,77,0
8927,note_on,0,0,1,,,,,,,,,,,,,,,0,,,74,0
8928,note_on,1,0,1,,,,,,,,,,,,,,,0,,,65,127
8928,note_on,0,0,1,,,,,,,,,,,,,,,0,,,79,127
8928,note_on,0,0,1,,,,,,,,,,,,,,,0,,,75,127
9023,note_on,95,0,1,,,,,,,,,,,,,,,0,,,65,0
9024,note_on,1,0,1,,,,,,,,,,,,,,,0,,,63,127
9119,note_on,95,0,1,,,,,,,,,,,,,,,0,,,63,0
9120,note_on,1,0,1,,,,,,,,,,,,,,,0,,,62,127
9215,note_on,95,0,1,,,,,,,,,,,,,,,0,,,62,0
9216,note_on,1,0,1,,,,,,,,,,,,,,,0,,,63,127
9311,note_on,95,0,1,,,,,,,,,,,,,,,0,,,63,0
9311,note_on,0,0,1,,,,,,,,,,,,,,,0,,,75,0
9311,note_on,0,0,1,,,,,,,,,,,,,,,0,,,79,0
9312,note_on,1,0,1,,,,,,,,,,,,,,,0,,,65,127
9312,note_on,0,0,1,,,,,,,,,,,,,,,0,,,77,127
9503,note_on,191,0,1,,,,,,,,,,,,,,,0,,,58,0
9504,note_on,1,0,1,,,,,,,,,,,,,,,0,,,70,127
9600,note_on,96,0,1,,,,,,,,,,,,,,,0,,,77,0
9695,note_on,95,0,1,,,,,,,,,,,,,,,0,,,70,0
9695,note_on,0,0,1,,,,,,,,,,,,,,,0,,,65,0
9696,note_on,1,0,1,,,,,,,,,,,,,,,0,,,58,127
9696,note_on,0,0,1,,,,,,,,,,,,,,,0,,,65,127
9696,note_on,0,0,1,,,,,,,,,,,,,,,0,,,77,127
9887,note_on,191,0,1,,,,,,,,,,,,,,,0,,,77,0
9888,note_on,1,0,1,,,,,,,,,,,,,,,0,,,75,127
9983,note_on,95,0,1,,,,,,,,,,,,,,,0,,,75,0
9984,note_on,1,0,1,,,,,,,,,,,,,,,0,,,74,127
10079,note_on,0,0,1,,,,,,,,,,,,,,,0,,,65,0
10079,note_on,0,0,1,,,,,,,,,,,,,,,0,,,58,0
10079,note_on,95,0,1,,,,,,,,,,,,,,,0,,,74,0
10080,note_on,1,0,1,,,,,,,,,,,,,,,0,,,60,127
10080,note_on,0,0,1,,,,,,,,,,,,,,,0,,,56,127
10080,note_on,0,0,1,,,,,,,,,,,,,,,0,,,65,127
10080,note_on,0,0,1,,,,,,,,,,,,,,,0,,,74,127
10175,note_on,95,0,1,,,,,,,,,,,,,,,0,,,74,0
10176,note_on,1,0,1,,,,,,,,,,,,,,,0,,,72,127
10271,note_on,95,0,1,,,,,,,,,,,,,,,0,,,72,0
10272,note_on,1,0,1,,,,,,,,,,,,,,,0,,,71,127
10367,note_on,95,0,1,,,,,,,,,,,,,,,0,,,71,0
10368,note_on,1,0,1,,,,,,,,,,,,,,,0,,,72,127
10463,note_on,0,0,1,,,,,,,,,,,,,,,0,,,60,0
10463,note_on,95,0,1,,,,,,,,,,,,,,,0,,,72,0
10463,note_on,0,0,1,,,,,,,,,,,,,,,0,,,65,0
10463,note_on,0,0,1,,,,,,,,,,,,,,,0,,,56,0
10464,note_on,0,0,1,,,,,,,,,,,,,,,0,,,65,127
10464,note_on,0,0,1,,,,,,,,,,,,,,,0,,,74,127
10464,note_on,1,0,1,,,,,,,,,,,,,,,0,,,62,127
10464,note_on,0,0,1,,,,,,,,,,,,,,,0,,,55,127
10656,note_on,192,0,1,,,,,,,,,,,,,,,0,,,67,127
10752,note_on,96,0,1,,,,,,,,,,,,,,,0,,,74,0
10847,note_on,95,0,1,,,,,,,,,,,,,,,0,,,65,0
10847,note_on,0,0,1,,,,,,,,,,,,,,,0,,,62,0
10847,note_on,0,0,1,,,,,,,,,,,,,,,0,,,55,0
10847,note_on,0,0,1,,,,,,,,,,,,,,,0,,,67,0
10848,note_on,1,0,1,,,,,,,,,,,,,,,0,,,62,127
10848,note_on,0,0,1,,,,,,,,,,,,,,,0,,,55,127
10848,note_on,0,0,1,,,,,,,,,,,,,,,0,,,65,127
10848,note_on,0,0,1,,,,,,,,,,,,,,,0,,,79,127
10943,note_on,95,0,1,,,,,,,,,,,,,,,0,,,79,0
10944,note_on,1,0,1,,,,,,,,,,,,,,,0,,,77,127
11039,note_on,95,0,1,,,,,,,,,,,,,,,0,,,77,0
11040,note_on,1,0,1,,,,,,,,,,,,,,,0,,,75,127
11135,note_on,95,0,1,,,,,,,,,,,,,,,0,,,75,0
11136,note_on,1,0,1,,,,,,,,,,,,,,,0,,,74,127
11231,note_on,95,0,1,,,,,,,,,,,,,,,0,,,74,0
11231,note_on,0,0,1,,,,,,,,,,,,,,,0,,,65,0
11231,note_on,0,0,1,,,,,,,,,,,,,,,0,,,55,0
11231,note_on,0,0,1,,,,,,,,,,,,,,,0,,,62,0
11232,note_on,1,0,1,,,,,,,,,,,,,,,0,,,55,127
11232,note_on,0,0,1,,,,,,,,,,,,,,,0,,,60,127
11232,note_on,0,0,1,,,,,,,,,,,,,,,0,,,63,127
11232,note_on,0,0,1,,,,,,,,,,,,,,,0,,,74,127
11327,note_on,95,0,1,,,,,,,,,,,,,,,0,,,74,0
11328,note_on,1,0,1,,,,,,,,,,,,,,,0,,,72,127
11423,note_on,95,0,1,,,,,,,,,,,,,,,0,,,72,0
11424,note_on,1,0,1,,,,,,,,,,,,,,,0,,,71,127
11519,note_on,95,0,1,,,,,,,,,,,,,,,0,,,71,0
11520,note_on,1,0,1,,,,,,,,,,,,,,,0,,,72,127
11615,note_on,95,0,1,,,,,,,,,,,,,,,0,,,72,0
11615,note_on,0,0,1,,,,,,,,,,,,,,,0,,,63,0
11615,note_on,0,0,1,,,,,,,,,,,,,,,0,,,55,0
11615,note_on,0,0,1,,,,,,,,,,,,,,,0,,,60,0
11616,note_on,0,0,1,,,,,,,,,,,,,,,0,,,74,127
11616,note_on,1,0,1,,,,,,,,,,,,,,,0,,,55,127
11616,note_on,0,0,1,,,,,,,,,,,,,,,0,,,59,127
11616,note_on,0,0,1,,,,,,,,,,,,,,,0,,,62,127
11808,note_on,192,0,1,,,,,,,,,,,,,,,0,,,67,127
11904,note_on,96,0,1,,,,,,,,,,,,,,,0,,,74,0
11999,note_on,95,0,1,,,,,,,,,,,,,,,0,,,59,0
11999,note_on,0,0,1,,,,,,,,,,,,,,,0,,,55,0
11999,note_on,0,0,1,,,,,,,,,,,,,,,0,,,67,0
11999,note_on,0,0,1,,,,,,,,,,,,,,,0,,,62,0
12000,note_on,1,0,1,,,,,,,,,,,,,,,0,,,59,127
12000,note_on,0,0,1,,,,,,,,,,,,,,,0,,,55,127
12000,note_on,0,0,1,,,,,,,,,,,,,,,0,,,62,127
12000,note_on,0,0,1,,,,,,,,,,,,,,,0,,,79,127
12095,note_on,95,0,1,,,,,,,,,,,,,,,0,,,79,0
12096,note_on,1,0,1,,,,,,,,,,,,,,,0,,,77,127
12191,note_on,95,0,1,,,,,,,,,,,,,,,0,,,77,0
12192,note_on,1,0,1,,,,,,,,,,,,,,,0,,,75,127
12287,note_on,95,0,1,,,,,,,,,,,,,,,0,,,75,0
12288,note_on,1,0,1,,,,,,,,,,,,,,,0,,,74,127
12383,note_on,0,0,1,,,,,,,,,,,,,,,0,,,59,0
12383,note_on,0,0,1,,,,,,,,,,,,,,,0,,,62,0
12383,note_on,95,0,1,,,,,,,,,,,,,,,0,,,74,0
12383,note_on,0,0,1,,,,,,,,,,,,,,,0,,,55,0
12384,note_on,0,0,1,,,,,,,,,,,,,,,0,,,74,127
12384,note_on,1,0,1,,,,,,,,,,,,,,,0,,,60,127
12384,note_on,0,0,1,,,,,,,,,,,,,,,0,,,55,127
12384,note_on,0,0,1,,,,,,,,,,,,,,,0,,,63,127
12479,note_on,95,0,1,,,,,,,,,,,,,,,0,,,74,0
12480,note_on,1,0,1,,,,,,,,,,,,,,,0,,,72,127
12575,note_on,95,0,1,,,,,,,,,,,,,,,0,,,72,0
12576,note_on,1,0,1,,,,,,,,,,,,,,,0,,,71,127
12671,note_on,95,0,1,,,,,,,,,,,,,,,0,,,71,0
12672,note_on,1,0,1,,,,,,,,,,,,,,,0,,,72,127
12767,note_on,95,0,1,,,,,,,,,,,,,,,0,,,72,0
12767,note_on,0,0,1,,,,,,,,,,,,,,,0,,,63,0
12767,note_on,0,0,1,,,,,,,,,,,,,,,0,,,55,0
12767,note_on,0,0,1,,,,,,,,,,,,,,,0,,,60,0
12768,note_on,0,0,1,,,,,,,,,,,,,,,0,,,74,127
12768,note_on,0,0,1,,,,,,,,,,,,,,,0,,,62,127
12768,note_on,1,0,1,,,,,,,,,,,,,,,0,,,55,127
12959,note_on,191,0,1,,,,,,,,,,,,,,,0,,,62,0
12959,note_on,0,0,1,,,,,,,,,,,,,,,0,,,55,0
12960,note_on,1,0,1,,,,,,,,,,,,,,,0,,,55,127
13151,note_on,191,0,1,,,,,,,,,,,,,,,0,,,74,0
13152,note_on,1,0,1,,,,,,,,,,,,,,,0,,,65,127
13152,note_on,0,0,1,,,,,,,,,,,,,,,0,,,71,127
13152,note_on,0,0,1,,,,,,,,,,,,,,,0,,,74,127
13343,note_on,191,0,1,,,,,,,,,,,,,,,0,,,65,0
13344,note_on,1,0,1,,,,,,,,,,,,,,,0,,,63,127
13439,note_on,95,0,1,,,,,,,,,,,,,,,0,,,63,0
13440,note_on,1,0,1,,,,,,,,,,,,,,,0,,,62,127
13535,note_on,95,0,1,,,,,,,,,,,,,,,0,,,62,0
13535,note_on,0,0,1,,,,,,,,,,,,,,,0,,,74,0
13535,note_on,0,0,1,,,,,,,,,,,,,,,0,,,71,0
13536,note_on,0,0,1,,,,,,,,,,,,,,,0,,,72,127
13536,note_on,1,0,1,,,,,,,,,,,,,,,0,,,62,127
13536,note_on,0,0,1,,,,,,,,,,,,,,,0,,,75,127
13631,note_on,95,0,1,,,,,,,,,,,,,,,0,,,62,0
13632,note_on,1,0,1,,,,,,,,,,,,,,,0,,,60,127
13727,note_on,95,0,1,,,,,,,,,,,,,,,0,,,60,0
13728,note_on,1,0,1,,,,,,,,,,,,,,,0,,,59,127
13823,note_on,95,0,1,,,,,,,,,,,,,,,0,,,59,0
13824,note_on,1,0,1,,,,,,,,,,,,,,,0,,,60,127
13919,note_on,95,0,1,,,,,,,,,,,,,,,0,,,60,0
13919,note_on,0,0,1,,,,,,,,,,,,,,,0,,,72,0
13919,note_on,0,0,1,,,,,,,,,,,,,,,0,,,75,0
13920,note_on,1,0,1,,,,,,,,,,,,,,,0,,,62,127
13920,note_on,0,0,1,,,,,,,,,,,,,,,0,,,74,127
13920,note_on,0,0,1,,,,,,,,,,,,,,,0,,,71,127
14111,note_on,191,0,1,,,,,,,,,,,,,,,0,,,62,0
14111,note_on,0,0,1,,,,,,,,,,,,,,,0,,,55,0
14112,note_on,1,0,1,,,,,,,,,,,,,,,0,,,55,127
14303,note_on,191,0,1,,,,,,,,,,,,,,,0,,,74,0
14303,note_on,0,0,1,,,,,,,,,,,,,,,0,,,71,0
14304,note_on,0,0,1,,,,,,,,,,,,,,,0,,,71,127
14304,note_on,1,0,1,,,,,,,,,,,,,,,0,,,65,127
14304,note_on,0,0,1,,,,,,,,,,,,,,,0,,,74,127
14495,note_on,191,0,1,,,,,,,,,,,,,,,0,,,65,0
14496,note_on,1,0,1,,,,,,,,,,,,,,,0,,,63,127
14591,note_on,95,0,1,,,,,,,,,,,,,,,0,,,63,0
14592,note_on,1,0,1,,,,,,,,,,,,,,,0,,,62,127
14687,note_on,95,0,1,,,,,,,,,,,,,,,0,,,62,0
14687,note_on,0,0,1,,,,,,,,,,,,,,,0,,,74,0
14687,note_on,0,0,1,,,,,,,,,,,,,,,0,,,71,0
14688,note_on,1,0,1,,,,,,,,,,,,,,,0,,,62,127
14688,note_on,0,0,1,,,,,,,,,,,,,,,0,,,75,127
14688,note_on,0,0,1,,,,,,,,,,,,,,,0,,,72,127
14783,note_on,95,0,1,,,,,,,,,,,,,,,0,,,62,0
14784,note_on,1,0,1,,,,,,,,,,,,,,,0,,,60,127
14879,note_on,95,0,1,,,,,,,,,,,,,,,0,,,60,0
14880,note_on,1,0,1,,,,,,,,,,,,,,,0,,,59,127
14975,note_on,95,0,1,,,,,,,,,,,,,,,0,,,59,0
14976,note_on,1,0,1,,,,,,,,,,,,,,,0,,,60,127
15071,note_on,0,0,1,,,,,,,,,,,,,,,0,,,72,0
15071,note_on,95,0,1,,,,,,,,,,,,,,,0,,,60,0
15071,note_on,0,0,1,,,,,,,,,,,,,,,0,,,75,0
15072,note_on,0,0,1,,,,,,,,,,,,,,,0,,,74,127
15072,note_on,1,0,1,,,,,,,,,,,,,,,0,,,62,127
15263,note_on,191,0,1,,,,,,,,,,,,,,,0,,,55,0
15264,note_on,1,0,1,,,,,,,,,,,,,,,0,,,67,127
15360,note_on,96,0,1,,,,,,,,,,,,,,,0,,,74,0
15455,note_on,95,0,1,,,,,,,,,,,,,,,0,,,67,0
15455,note_on,0,0,1,,,,,,,,,,,,,,,0,,,62,0
15456,note_on,1,0,1,,,,,,,,,,,,,,,0,,,55,127
15456,note_on,0,0,1,,,,,,,,,,,,,,,0,,,62,127
15456,note_on,0,0,1,,,,,,,,,,,,,,,0,,,79,127
15551,note_on,95,0,1,,,,,,,,,,,,,,,0,,,79,0
15552,note_on,1,0,1,,,,,,,,,,,,,,,0,,,77,127
15647,note_on,95,0,1,,,,,,,,,,,,,,,0,,,77,0
15648,note_on,1,0,1,,,,,,,,,,,,,,,0,,,75,127
15743,note_on,95,0,1,,,,,,,,,,,,,,,0,,,75,0
15744,note_on,1,0,1,,,,,,,,,,,,,,,0,,,74,127
15839,note_on,95,0,1,,,,,,,,,,,,,,,0,,,74,0
15839,note_on,0,0,1,,,,,,,,,,,,,,,0,,,62,0
15839,note_on,0,0,1,,,,,,,,,,,,,,,0,,,55,0
15840,note_on,0,0,1,,,,,,,,,,,,,,,0,,,56,127
15840,note_on,0,0,1,,,,,,,,,,,,,,,0,,,74,127
15840,note_on,1,0,1,,,,,,,,,,,,,,,0,,,65,127
15935,note_on,95,0,1,,,,,,,,,,,,,,,0,,,74,0
15936,note_on,1,0,1,,,,,,,,,,,,,,,0,,,72,127
16031,note_on,95,0,1,,,,,,,,,,,,,,,0,,,72,0
16032,note_on,1,0,1,,,,,,,,,,,,,,,0,,,71,127
16127,note_on,95,0,1,,,,,,,,,,,,,,,0,,,71,0
16128,note_on,1,0,1,,,,,,,,,,,,,,,0,,,72,127
16223,note_on,95,0,1,,,,,,,,,,,,,,,0,,,72,0
16223,note_on,0,0,1,,,,,,,,,,,,,,,0,,,56,0
16223,note_on,0,0,1,,,,,,,,,,,,,,,0,,,65,0
16224,note_on,0,0,1,,,,,,,,,,,,,,,0,,,74,127
16224,note_on,1,0,1,,,,,,,,,,,,,,,0,,,55,127
16224,note_on,0,0,1,,,,,,,,,,,,,,,0,,,65,127
16416,note_on,192,0,1,,,,,,,,,,,,,,,0,,,67,127
16512,note_on,96,0,1,,,,,,,,,,,,,,,0,,,74,0
16607,note_on,95,0,1,,,,,,,,,,,,,,,0,,,55,0
16607,note_on,0,0,1,,,,,,,,,,,,,,,0,,,65,0
16607,note_on,0,0,1,,,,,,,,,,,,,,,0,,,67,0
16608,note_on,1,0,1,,,,,,,,,,,,,,,0,,,55,127
16608,note_on,0,0,1,,,,,,,,,,,,,,,0,,,65,127
16608,note_on,0,0,1,,,,,,,,,,,,,,,0,,,79,127
16703,note_on,95,0,1,,,,,,,,,,,,,,,0,,,79,0
16704,note_on,1,0,1,,,,,,,,,,,,,,,0,,,77,127
16799,note_on,95,0,1,,,,,,,,,,,,,,,0,,,77,0
16800,note_on,1,0,1,,,,,,,,,,,,,,,0,,,75,127
16895,note_on,95,0,1,,,,,,,,,,,,,,,0,,,75,0
16896,note_on,1,0,1,,,,,,,,,,,,,,,0,,,74,127
16991,note_on,0,0,1,,,,,,,,,,,,,,,0,,,65,0
16991,note_on,95,0,1,,,,,,,,,,,,,,,0,,,74,0
16991,note_on,0,0,1,,,,,,,,,,,,,,,0,,,55,0
16992,note_on,0,0,1,,,,,,,,,,,,,,,0,,,75,127
16992,note_on,1,0,1,,,,,,,,,,,,,,,0,,,65,127
16992,note_on,0,0,1,,,,,,,,,,,,,,,0,,,74,127
16992,note_on,0,0,1,,,,,,,,,,,,,,,0,,,56,127
17087,note_on,95,0,1,,,,,,,,,,,,,,,0,,,75,0
17087,note_on,0,0,1,,,,,,,,,,,,,,,0,,,74,0
17088,note_on,1,0,1,,,,,,,,,,,,,,,0,,,72,127
17183,note_on,95,0,1,,,,,,,,,,,,,,,0,,,72,0
17184,note_on,1,0,1,,,,,,,,,,,,,,,0,,,71,127
17279,note_on,95,0,1,,,,,,,,,,,,,,,0,,,71,0
17280,note_on,1,0,1,,,,,,,,,,,,,,,0,,,72,127
17375,note_on,95,0,1,,,,,,,,,,,,,,,0,,,72,0
17375,note_on,0,0,1,,,,,,,,,,,,,,,0,,,56,0
17375,note_on,0,0,1,,,,,,,,,,,,,,,0,,,65,0
17376,note_on,1,0,1,,,,,,,,,,,,,,,0,,,55,127
17808,note_on,432,0,1,,,,,,,,,,,,,,,0,,,59,127
17855,note_on,47,0,1,,,,,,,,,,,,,,,0,,,59,0
17856,note_on,1,0,1,,,,,,,,,,,,,,,0,,,57,127
17903,note_on,47,0,1,,,,,,,,,,,,,,,0,,,57,0
17904,note_on,1,0,1,,,,,,,,,,,,,,,0,,,60,127
17951,note_on,47,0,1,,,,,,,,,,,,,,,0,,,60,0
17952,note_on,1,0,1,,,,,,,,,,,,,,,0,,,59,127
17999,note_on,47,0,1,,,,,,,,,,,,,,,0,,,59,0
18000,note_on,1,0,1,,,,,,,,,,,,,,,0,,,62,127
18047,note_on,47,0,1,,,,,,,,,,,,,,,0,,,62,0
18048,note_on,1,0,1,,,,,,,,,,,,,,,0,,,60,127
18095,note_on,47,0,1,,,,,,,,,,,,,,,0,,,60,0
18096,note_on,1,0,1,,,,,,,,,,,,,,,0,,,63,127
18143,note_on,47,0,1,,,,,,,,,,,,,,,0,,,63,0
18144,note_on,1,0,1,,,,,,,,,,,,,,,0,,,62,127
18191,note_on,47,0,1,,,,,,,,,,,,,,,0,,,62,0
18192,note_on,1,0,1,,,,,,,,,,,,,,,0,,,65,127
18239,note_on,47,0,1,,,,,,,,,,,,,,,0,,,65,0
18240,note_on,1,0,1,,,,,,,,,,,,,,,0,,,63,127
18287,note_on,47,0,1,,,,,,,,,,,,,,,0,,,63,0
18288,note_on,1,0,1,,,,,,,,,,,,,,,0,,,67,127
18335,note_on,47,0,1,,,,,,,,,,,,,,,0,,,67,0
18336,note_on,1,0,1,,,,,,,,,,,,,,,0,,,65,127
18383,note_on,47,0,1,,,,,,,,,,,,,,,0,,,65,0
18384,note_on,1,0,1,,,,,,,,,,,,,,,0,,,68,127
18431,note_on,47,0,1,,,,,,,,,,,,,,,0,,,68,0
18432,note_on,1,0,1,,,,,,,,,,,,,,,0,,,67,127
18479,note_on,47,0,1,,,,,,,,,,,,,,,0,,,67,0
18480,note_on,1,0,1,,,,,,,,,,,,,,,0,,,71,127
18527,note_on,47,0,1,,,,,,,,,,,,,,,0,,,71,0
18528,note_on,1,0,1,,,,,,,,,,,,,,,0,,,69,127
18575,note_on,47,0,1,,,,,,,,,,,,,,,0,,,69,0
18576,note_on,1,0,1,,,,,,,,,,,,,,,0,,,72,127
18623,note_on,47,0,1,,,,,,,,,,,,,,,0,,,72,0
18624,note_on,1,0,1,,,,,,,,,,,,,,,0,,,71,127
18671,note_on,47,0,1,,,,,,,,,,,,,,,0,,,71,0
18672,note_on,1,0,1,,,,,,,,,,,,,,,0,,,74,127
18719,note_on,47,0,1,,,,,,,,,,,,,,,0,,,74,0
18720,note_on,1,0,1,,,,,,,,,,,,,,,0,,,72,127
18767,note_on,47,0,1,,,,,,,,,,,,,,,0,,,72,0
18768,note_on,1,0,1,,,,,,,,,,,,,,,0,,,75,127
18815,note_on,47,0,1,,,,,,,,,,,,,,,0,,,75,0
18816,note_on,1,0,1,,,,,,,,,,,,,,,0,,,74,127
18863,note_on,47,0,1,,,,,,,,,,,,,,,0,,,74,0
18864,note_on,1,0,1,,,,,,,,,,,,,,,0,,,77,127
18911,note_on,47,0,1,,,,,,,,,,,,,,,0,,,77,0
18912,note_on,1,0,1,,,,,,,,,,,,,,,0,,,75,127
18959,note_on,47,0,1,,,,,,,,,,,,,,,0,,,75,0
18960,note_on,1,0,1,,,,,,,,,,,,,,,0,,,79,127
19007,note_on,47,0,1,,,,,,,,,,,,,,,0,,,79,0
19008,note_on,1,0,1,,,,,,,,,,,,,,,0,,,79,127
19055,note_on,47,0,1,,,,,,,,,,,,,,,0,,,79,0
19056,note_on,1,0,1,,,,,,,,,,,,,,,0,,,78,127
19087,note_on,31,0,1,,,,,,,,,,,,,,,0,,,78,0
19088,note_on,1,0,1,,,,,,,,,,,,,,,0,,,79,127
19119,note_on,31,0,1,,,,,,,,,,,,,,,0,,,79,0
19120,note_on,1,0,1,,,,,,,,,,,,,,,0,,,78,127
19151,note_on,31,0,1,,,,,,,,,,,,,,,0,,,78,0
19152,note_on,1,0,1,,,,,,,,,,,,,,,0,,,79,127
19183,note_on,31,0,1,,,,,,,,,,,,,,,0,,,79,0
19184,note_on,1,0,1,,,,,,,,,,,,,,,0,,,78,127
19215,note_on,31,0,1,,,,,,,,,,,,,,,0,,,78,0
19216,note_on,1,0,1,,,,,,,,,,,,,,,0,,,79,127
19247,note_on,31,0,1,,,,,,,,,,,,,,,0,,,79,0
19248,note_on,1,0,1,,,,,,,,,,,,,,,0,,,78,127
19279,note_on,31,0,1,,,,,,,,,,,,,,,0,,,78,0
19280,note_on,1,0,1,,,,,,,,,,,,,,,0,,,79,127
19311,note_on,31,0,1,,,,,,,,,,,,,,,0,,,79,0
19312,note_on,1,0,1,,,,,,,,,,,,,,,0,,,78,127
19343,note_on,31,0,1,,,,,,,,,,,,,,,0,,,78,0
19344,note_on,1,0,1,,,,,,,,,,,,,,,0,,,79,127
19375,note_on,31,0,1,,,,,,,,,,,,,,,0,,,79,0
19376,note_on,1,0,1,,,,,,,,,,,,,,,0,,,78,127
19407,note_on,31,0,1,,,,,,,,,,,,,,,0,,,78,0
19408,note_on,1,0,1,,,,,,,,,,,,,,,0,,,79,127
19439,note_on,31,0,1,,,,,,,,,,,,,,,0,,,79,0
19440,note_on,1,0,1,,,,,,,,,,,,,,,0,,,78,127
19471,note_on,31,0,1,,,,,,,,,,,,,,,0,,,78,0
19472,note_on,1,0,1,,,,,,,,,,,,,,,0,,,79,127
19503,note_on,31,0,1,,,,,,,,,,,,,,,0,,,79,0
19504,note_on,1,0,1,,,,,,,,,,,,,,,0,,,78,127
19535,note_on,31,0,1,,,,,,,,,,,,,,,0,,,78,0
19536,note_on,1,0,1,,,,,,,,,,,,,,,0,,,76,127
19567,note_on,31,0,1,,,,,,,,,,,,,,,0,,,76,0
19568,note_on,1,0,1,,,,,,,,,,,,,,,0,,,78,127
19599,note_on,31,0,1,,,,,,,,,,,,,,,0,,,78,0
19600,note_on,1,0,1,,,,,,,,,,,,,,,0,,,79,127
19631,note_on,31,0,1,,,,,,,,,,,,,,,0,,,79,0
19632,note_on,1,0,1,,,,,,,,,,,,,,,0,,,81,127
19663,note_on,31,0,1,,,,,,,,,,,,,,,0,,,81,0
19664,note_on,1,0,1,,,,,,,,,,,,,,,0,,,79,127
20047,note_on,383,0,1,,,,,,,,,,,,,,,0,,,79,0
20048,note_on,1,0,1,,,,,,,,,,,,,,,0,,,74,127
20143,note_on,95,0,1,,,,,,,,,,,,,,,0,,,74,0
20144,note_on,1,0,1,,,,,,,,,,,,,,,0,,,75,127
20239,note_on,95,0,1,,,,,,,,,,,,,,,0,,,75,0
20240,note_on,1,0,1,,,,,,,,,,,,,,,0,,,71,127
20335,note_on,95,0,1,,,,,,,,,,,,,,,0,,,71,0
20336,note_on,1,0,1,,,,,,,,,,,,,,,0,,,72,127
20431,note_on,95,0,1,,,,,,,,,,,,,,,0,,,72,0
20432,note_on,1,0,1,,,,,,,,,,,,,,,0,,,66,127
20719,note_on,287,0,1,,,,,,,,,,,,,,,0,,,66,0
20720,note_on,1,0,1,,,,,,,,,,,,,,,0,,,69,127
20815,note_on,95,0,1,,,,,,,,,,,,,,,0,,,69,0
20816,note_on,1,0,1,,,,,,,,,,,,,,,0,,,67,127
21023,note_on,207,0,1,,,,,,,,,,,,,,,0,,,55,0
21200,note_on,177,0,1,,,,,,,,,,,,,,,0,,,43,127
21583,note_on,383,0,1,,,,,,,,,,,,,,,0,,,67,0
22352,note_on,769,0,1,,,,,,,,,,,,,,,0,,,43,0
22368,note_on,16,0,1,,,,,,,,,,,,,,,0,,,86,127
22463,note_on,95,0,1,,,,,,,,,,,,,,,0,,,86,0
22464,note_on,1,0,1,,,,,,,,,,,,,,,0,,,83,127
22559,note_on,95,0,1,,,,,,,,,,,,,,,0,,,83,0
22560,note_on,1,0,1,,,,,,,,,,,,,,,0,,,80,127
22655,note_on,95,0,1,,,,,,,,,,,,,,,0,,,80,0
22656,note_on,1,0,1,,,,,,,,,,,,,,,0,,,77,127
22751,note_on,95,0,1,,,,,,,,,,,,,,,0,,,77,0
22752,note_on,1,0,1,,,,,,,,,,,,,,,0,,,74,127
22847,note_on,95,0,1,,,,,,,,,,,,,,,0,,,74,0
22848,note_on,1,0,1,,,,,,,,,,,,,,,0,,,71,127
22943,note_on,95,0,1,,,,,,,,,,,,,,,0,,,71,0
22944,note_on,1,0,1,,,,,,,,,,,,,,,0,,,68,127
23039,note_on,95,0,1,,,,,,,,,,,,,,,0,,,68,0
23040,note_on,1,0,1,,,,,,,,,,,,,,,0,,,65,127
23135,note_on,95,0,1,,,,,,,,,,,,,,,0,,,65,0
23136,note_on,1,0,1,,,,,,,,,,,,,,,0,,,62,127
23231,note_on,95,0,1,,,,,,,,,,,,,,,0,,,62,0
23232,note_on,1,0,1,,,,,,,,,,,,,,,0,,,59,127
23327,note_on,95,0,1,,,,,,,,,,,,,,,0,,,59,0
23328,note_on,1,0,1,,,,,,,,,,,,,,,0,,,56,127
23423,note_on,95,0,1,,,,,,,,,,,,,,,0,,,56,0
23424,note_on,1,0,1,,,,,,,,,,,,,,,0,,,53,127
23519,note_on,95,0,1,,,,,,,,,,,,,,,0,,,53,0
23520,note_on,1,0,1,,,,,,,,,,,,,,,0,,,50,127
23615,note_on,95,0,1,,,,,,,,,,,,,,,0,,,50,0
23616,note_on,1,0,1,,,,,,,,,,,,,,,0,,,47,127
23711,note_on,95,0,1,,,,,,,,,,,,,,,0,,,47,0
23712,note_on,1,0,1,,,,,,,,,,,,,,,0,,,44,127
23807,note_on,95,0,1,,,,,,,,,,,,,,,0,,,44,0
23808,note_on,1,0,1,,,,,,,,,,,,,,,0,,,41,127
23903,note_on,95,0,1,,,,,,,,,,,,,,,0,,,41,0
23904,note_on,1,0,1,,,,,,,,,,,,,,,0,,,31,127
24287,note_on,383,0,1,,,,,,,,,,,,,,,0,,,31,0
24288,note_on,1,0,1,,,,,,,,,,,,,,,0,,,67,127
24288,note_on,0,0,1,,,,,,,,,,,,,,,0,,,31,127
24288,note_on,0,0,1,,,,,,,,,,,,,,,0,,,36,127
24288,note_on,0,0,1,,,,,,,,,,,,,,,0,,,77,127
24288,note_on,0,0,1,,,,,,,,,,,,,,,0,,,43,127
24288,note_on,0,0,1,,,,,,,,,,,,,,,0,,,71,127
24288,note_on,0,0,1,,,,,,,,,,,,,,,0,,,74,127
24288,note_on,0,0,1,,,,,,,,,,,,,,,0,,,38,127
24671,note_on,383,0,1,,,,,,,,,,,,,,,0,,,31,0
24671,note_on,0,0,1,,,,,,,,,,,,,,,0,,,67,0
24671,note_on,0,0,1,,,,,,,,,,,,,,,0,,,43,0
24671,note_on,0,0,1,,,,,,,,,,,,,,,0,,,77,0
24671,note_on,0,0,1,,,,,,,,,,,,,,,0,,,74,0
24671,note_on,0,0,1,,,,,,,,,,,,,,,0,,,71,0
24671,note_on,0,0,1,,,,,,,,,,,,,,,0,,,38,0
24671,note_on,0,0,1,,,,,,,,,,,,,,,0,,,36,0
24672,note_on,0,0,1,,,,,,,,,,,,,,,0,,,48,127
24672,note_on,0,0,1,,,,,,,,,,,,,,,0,,,36,127
24672,note_on,0,0,1,,,,,,,,,,,,,,,0,,,67,127
24672,note_on,0,0,1,,,,,,,,,,,,,,,0,,,75,127
24672,note_on,1,0,1,,,,,,,,,,,,,,,0,,,77,127
24863,note_on,191,0,1,,,,,,,,,,,,,,,0,,,75,0
24863,note_on,0,0,1,,,,,,,,,,,,,,,0,,,77,0
24864,note_on,1,0,1,,,,,,,,,,,,,,,0,,,74,127
24959,note_on,95,0,1,,,,,,,,,,,,,,,0,,,74,0
24960,note_on,1,0,1,,,,,,,,,,,,,,,0,,,72,127
25055,note_on,95,0,1,,,,,,,,,,,,,,,0,,,72,0
25055,note_on,0,0,1,,,,,,,,,,,,,,,0,,,67,0
25055,note_on,0,0,1,,,,,,,,,,,,,,,0,,,36,0
25055,note_on,0,0,1,,,,,,,,,,,,,,,0,,,48,0
25056,note_on,0,0,1,,,,,,,,,,,,,,,0,,,53,127
25056,note_on,0,0,1,,,,,,,,,,,,,,,0,,,41,127
25056,note_on,1,0,1,,,,,,,,,,,,,,,0,,,74,127
25056,note_on,0,0,1,,,,,,,,,,,,,,,0,,,65,127
25247,note_on,191,0,1,,,,,,,,,,,,,,,0,,,65,0
25247,note_on,0,0,1,,,,,,,,,,,,,,,0,,,74,0
25248,note_on,0,0,1,,,,,,,,,,,,,,,0,,,72,127
25248,note_on,1,0,1,,,,,,,,,,,,,,,0,,,63,127
25439,note_on,191,0,1,,,,,,,,,,,,,,,0,,,41,0
25439,note_on,0,0,1,,,,,,,,,,,,,,,0,,,53,0
25440,note_on,1,0,1,,,,,,,,,,,,,,,0,,,43,127
25440,note_on,0,0,1,,,,,,,,,,,,,,,0,,,55,127
25631,note_on,191,0,1,,,,,,,,,,,,,,,0,,,63,0
25631,note_on,0,0,1,,,,,,,,,,,,,,,0,,,72,0
25632,note_on,1,0,1,,,,,,,,,,,,,,,0,,,62,127
25632,note_on,0,0,1,,,,,,,,,,,,,,,0,,,71,127
25823,note_on,191,0,1,,,,,,,,,,,,,,,0,,,71,0
25823,note_on,0,0,1,,,,,,,,,,,,,,,0,,,55,0
25823,note_on,0,0,1,,,,,,,,,,,,,,,0,,,43,0
25823,note_on,0,0,1,,,,,,,,,,,,,,,0,,,62,0
25824,note_on,0,0,1,,,,,,,,,,,,,,,0,,,36,127
25824,note_on,0,0,1,,,,,,,,,,,,,,,0,,,48,127
25824,note_on,0,0,1,,,,,,,,,,,,,,,0,,,72,127
25824,note_on,1,0,1,,,,,,,,,,,,,,,0,,,63,127
26015,note_on,191,0,1,,,,,,,,,,,,,,,0,,,36,0
26015,note_on,0,0,1,,,,,,,,,,,,,,,0,,,63,0
26015,note_on,0,0,1,,,,,,,,,,,,,,,0,,,72,0
26015,note_on,0,0,1,,,,,,,,,,,,,,,0,,,48,0
26016,note_on,1,0,1,,,,,,,,,,,,,,,0,,,74,127
26016,note_on,0,0,1,,,,,,,,,,,,,,,0,,,62,127
26016,note_on,0,0,1,,,,,,,,,,,,,,,0,,,43,127
26016,note_on,0,0,1,,,,,,,,,,,,,,,0,,,55,127
26207,note_on,191,0,1,,,,,,,,,,,,,,,0,,,55,0
26207,note_on,0,0,1,,,,,,,,,,,,,,,0,,,74,0
26207,note_on,0,0,1,,,,,,,,,,,,,,,0,,,62,0
26207,note_on,0,0,1,,,,,,,,,,,,,,,0,,,43,0
26208,note_on,0,0,1,,,,,,,,,,,,,,,0,,,60,127
26208,note_on,1,0,1,,,,,,,,,,,,,,,0,,,75,127
26208,note_on,0,0,1,,,,,,,,,,,,,,,0,,,48,127
26208,note_on,0,0,1,,,,,,,,,,,,,,,0,,,63,127
26399,note_on,0,0,1,,,,,,,,,,,,,,,0,,,63,0
26399,note_on,191,0,1,,,,,,,,,,,,,,,0,,,60,0
26399,note_on,0,0,1,,,,,,,,,,,,,,,0,,,75,0
26399,note_on,0,0,1,,,,,,,,,,,,,,,0,,,48,0
26400,note_on,0,0,1,,,,,,,,,,,,,,,0,,,76,127
26400,note_on,0,0,1,,,,,,,,,,,,,,,0,,,58,127
26400,note_on,0,0,1,,,,,,,,,,,,,,,0,,,46,127
26400,note_on,1,0,1,,,,,,,,,,,,,,,0,,,64,127
26591,note_on,191,0,1,,,,,,,,,,,,,,,0,,,46,0
26591,note_on,0,0,1,,,,,,,,,,,,,,,0,,,64,0
26591,note_on,0,0,1,,,,,,,,,,,,,,,0,,,76,0
26591,note_on,0,0,1,,,,,,,,,,,,,,,0,,,58,0
26592,note_on,1,0,1,,,,,,,,,,,,,,,0,,,77,127
26592,note_on,0,0,1,,,,,,,,,,,,,,,0,,,65,127
26592,note_on,0,0,1,,,,,,,,,,,,,,,0,,,44,127
26592,note_on,0,0,1,,,,,,,,,,,,,,,0,,,56,127
26783,note_on,191,0,1,,,,,,,,,,,,,,,0,,,65,0
26783,note_on,0,0,1,,,,,,,,,,,,,,,0,,,77,0
26784,note_on,1,0,1,,,,,,,,,,,,,,,0,,,78,127
26784,note_on,0,0,1,,,,,,,,,,,,,,,0,,,66,127
26975,note_on,0,0,1,,,,,,,,,,,,,,,0,,,56,0
26975,note_on,0,0,1,,,,,,,,,,,,,,,0,,,44,0
26975,note_on,191,0,1,,,,,,,,,,,,,,,0,,,66,0
26976,note_on,1,0,1,,,,,,,,,,,,,,,0,,,55,127
26976,note_on,0,0,1,,,,,,,,,,,,,,,0,,,43,127
27167,note_on,191,0,1,,,,,,,,,,,,,,,0,,,78,0
27360,note_on,193,0,1,,,,,,,,,,,,,,,0,,,81,127
27407,note_on,47,0,1,,,,,,,,,,,,,,,0,,,81,0
27408,note_on,1,0,1,,,,,,,,,,,,,,,0,,,79,127
27455,note_on,47,0,1,,,,,,,,,,,,,,,0,,,79,0
27456,note_on,1,0,1,,,,,,,,,,,,,,,0,,,74,127
27503,note_on,47,0,1,,,,,,,,,,,,,,,0,,,74,0
27504,note_on,1,0,1,,,,,,,,,,,,,,,0,,,75,127
27551,note_on,47,0,1,,,,,,,,,,,,,,,0,,,75,0
27552,note_on,1,0,1,,,,,,,,,,,,,,,0,,,71,127
27599,note_on,47,0,1,,,,,,,,,,,,,,,0,,,71,0
27600,note_on,1,0,1,,,,,,,,,,,,,,,0,,,72,127
27647,note_on,47,0,1,,,,,,,,,,,,,,,0,,,72,0
27648,note_on,1,0,1,,,,,,,,,,,,,,,0,,,66,127
27695,note_on,47,0,1,,,,,,,,,,,,,,,0,,,66,0
27696,note_on,1,0,1,,,,,,,,,,,,,,,0,,,67,127
27743,note_on,47,0,1,,,,,,,,,,,,,,,0,,,67,0
27743,note_on,0,0,1,,,,,,,,,,,,,,,0,,,55,0
27744,note_on,1,0,1,,,,,,,,,,,,,,,0,,,62,127
27791,note_on,47,0,1,,,,,,,,,,,,,,,0,,,62,0
27792,note_on,1,0,1,,,,,,,,,,,,,,,0,,,63,127
27839,note_on,47,0,1,,,,,,,,,,,,,,,0,,,63,0
27840,note_on,1,0,1,,,,,,,,,,,,,,,0,,,59,127
27887,note_on,47,0,1,,,,,,,,,,,,,,,0,,,59,0
27888,note_on,1,0,1,,,,,,,,,,,,,,,0,,,60,127
27935,note_on,47,0,1,,,,,,,,,,,,,,,0,,,60,0
27936,note_on,1,0,1,,,,,,,,,,,,,,,0,,,54,127
27983,note_on,47,0,1,,,,,,,,,,,,,,,0,,,54,0
27984,note_on,1,0,1,,,,,,,,,,,,,,,0,,,55,127
28031,note_on,47,0,1,,,,,,,,,,,,,,,0,,,55,0
28032,note_on,1,0,1,,,,,,,,,,,,,,,0,,,50,127
28079,note_on,47,0,1,,,,,,,,,,,,,,,0,,,50,0
28080,note_on,1,0,1,,,,,,,,,,,,,,,0,,,51,127
28127,note_on,47,0,1,,,,,,,,,,,,,,,0,,,51,0
28127,note_on,0,0,1,,,,,,,,,,,,,,,0,,,43,0
28128,note_on,1,0,1,,,,,,,,,,,,,,,0,,,47,127
28175,note_on,47,0,1,,,,,,,,,,,,,,,0,,,47,0
28176,note_on,1,0,1,,,,,,,,,,,,,,,0,,,48,127
28223,note_on,47,0,1,,,,,,,,,,,,,,,0,,,48,0
28224,note_on,1,0,1,,,,,,,,,,,,,,,0,,,42,127
28511,note_on,287,0,1,,,,,,,,,,,,,,,0,,,42,0
28512,note_on,1,0,1,,,,,,,,,,,,,,,0,,,45,127
28607,note_on,95,0,1,,,,,,,,,,,,,,,0,,,45,0
28608,note_on,1,0,1,,,,,,,,,,,,,,,0,,,43,127
28992,note_on,384,0,1,,,,,,,,,,,,,,,0,,,31,127
29759,note_on,0,0,1,,,,,,,,,,,,,,,0,,,43,0
29759,note_on,767,0,1,,,,,,,,,,,,,,,0,,,31,0
30048,note_on,289,0,1,,,,,,,,,,,,,,,0,,,86,127
30143,note_on,95,0,1,,,,,,,,,,,,,,,0,,,86,0
30144,note_on,1,0,1,,,,,,,,,,,,,,,0,,,83,127
30239,note_on,95,0,1,,,,,,,,,,,,,,,0,,,83,0
30240,note_on,1,0,1,,,,,,,,,,,,,,,0,,,80,127
30335,note_on,95,0,1,,,,,,,,,,,,,,,0,,,80,0
30336,note_on,1,0,1,,,,,,,,,,,,,,,0,,,77,127
30431,note_on,95,0,1,,,,,,,,,,,,,,,0,,,77,0
30432,note_on,1,0,1,,,,,,,,,,,,,,,0,,,74,127
30527,note_on,95,0,1,,,,,,,,,,,,,,,0,,,74,0
30528,note_on,1,0,1,,,,,,,,,,,,,,,0,,,71,127
30623,note_on,95,0,1,,,,,,,,,,,,,,,0,,,71,0
30624,note_on,1,0,1,,,,,,,,,,,,,,,0,,,68,127
30719,note_on,95,0,1,,,,,,,,,,,,,,,0,,,68,0
30720,note_on,1,0,1,,,,,,,,,,,,,,,0,,,65,127
30815,note_on,95,0,1,,,,,,,,,,,,,,,0,,,65,0
30816,note_on,1,0,1,,,,,,,,,,,,,,,0,,,62,127
30911,note_on,95,0,1,,,,,,,,,,,,,,,0,,,62,0
30912,note_on,1,0,1,,,,,,,,,,,,,,,0,,,59,127
31007,note_on,95,0,1,,,,,,,,,,,,,,,0,,,59,0
31008,note_on,1,0,1,,,,,,,,,,,,,,,0,,,56,127
31103,note_on,95,0,1,,,,,,,,,,,,,,,0,,,56,0
31104,note_on,1,0,1,,,,,,,,,,,,,,,0,,,53,127
31199,note_on,95,0,1,,,,,,,,,,,,,,,0,,,53,0
31200,note_on,1,0,1,,,,,,,,,,,,,,,0,,,50,127
31295,note_on,95,0,1,,,,,,,,,,,,,,,0,,,50,0
31296,note_on,1,0,1,,,,,,,,,,,,,,,0,,,47,127
31391,note_on,95,0,1,,,,,,,,,,,,,,,0,,,47,0
31392,note_on,1,0,1,,,,,,,,,,,,,,,0,,,44,127
31487,note_on,95,0,1,,,,,,,,,,,,,,,0,,,44,0
31488,note_on,1,0,1,,,,,,,,,,,,,,,0,,,41,127
31583,note_on,95,0,1,,,,,,,,,,,,,,,0,,,41,0
31584,note_on,1,0,1,,,,,,,,,,,,,,,0,,,31,127
31967,note_on,383,0,1,,,,,,,,,,,,,,,0,,,31,0
31968,note_on,0,0,1,,,,,,,,,,,,,,,0,,,43,127
31968,note_on,0,0,1,,,,,,,,,,,,,,,0,,,38,127
31968,note_on,0,0,1,,,,,,,,,,,,,,,0,,,36,127
31968,note_on,0,0,1,,,,,,,,,,,,,,,0,,,74,127
31968,note_on,0,0,1,,,,,,,,,,,,,,,0,,,67,127
31968,note_on,0,0,1,,,,,,,,,,,,,,,0,,,31,127
31968,note_on,0,0,1,,,,,,,,,,,,,,,0,,,71,127
31968,note_on,1,0,1,,,,,,,,,,,,,,,0,,,77,127
32351,note_on,383,0,1,,,,,,,,,,,,,,,0,,,43,0
32351,note_on,0,0,1,,,,,,,,,,,,,,,0,,,77,0
32351,note_on,0,0,1,,,,,,,,,,,,,,,0,,,31,0
32351,note_on,0,0,1,,,,,,,,,,,,,,,0,,,71,0
32351,note_on,0,0,1,,,,,,,,,,,,,,,0,,,74,0
32351,note_on,0,0,1,,,,,,,,,,,,,,,0,,,67,0
32351,note_on,0,0,1,,,,,,,,,,,,,,,0,,,36,0
32351,note_on,0,0,1,,,,,,,,,,,,,,,0,,,38,0
32352,note_on,1,0,1,,,,,,,,,,,,,,,0,,,67,127
32352,note_on,0,0,1,,,,,,,,,,,,,,,0,,,77,127
32352,note_on,0,0,1,,,,,,,,,,,,,,,0,,,48,127
32352,note_on,0,0,1,,,,,,,,,,,,,,,0,,,36,127
32447,note_on,95,0,1,,,,,,,,,,,,,,,0,,,77,0
32448,note_on,1,0,1,,,,,,,,,,,,,,,0,,,75,127
32543,note_on,95,0,1,,,,,,,,,,,,,,,0,,,75,0
32544,note_on,1,0,1,,,,,,,,,,,,,,,0,,,74,127
32639,note_on,95,0,1,,,,,,,,,,,,,,,0,,,74,0
32640,note_on,1,0,1,,,,,,,,,,,,,,,0,,,72,127
32735,note_on,95,0,1,,,,,,,,,,,,,,,0,,,72,0
32735,note_on,0,0,1,,,,,,,,,,,,,,,0,,,36,0
32735,note_on,0,0,1,,,,,,,,,,,,,,,0,,,48,0
32735,note_on,0,0,1,,,,,,,,,,,,,,,0,,,67,0
32736,note_on,1,0,1,,,,,,,,,,,,,,,0,,,65,127
32736,note_on,0,0,1,,,,,,,,,,,,,,,0,,,74,127
32736,note_on,0,0,1,,,,,,,,,,,,,,,0,,,53,127
32736,note_on,0,0,1,,,,,,,,,,,,,,,0,,,41,127
32927,note_on,191,0,1,,,,,,,,,,,,,,,0,,,74,0
32927,note_on,0,0,1,,,,,,,,,,,,,,,0,,,65,0
32928,note_on,1,0,1,,,,,,,,,,,,,,,0,,,72,127
32928,note_on,0,0,1,,,,,,,,,,,,,,,0,,,63,127
33119,note_on,191,0,1,,,,,,,,,,,,,,,0,,,53,0
33119,note_on,0,0,1,,,,,,,,,,,,,,,0,,,41,0
33120,note_on,0,0,1,,,,,,,,,,,,,,,0,,,43,127
33120,note_on,1,0,1,,,,,,,,,,,,,,,0,,,55,127
33311,note_on,191,0,1,,,,,,,,,,,,,,,0,,,72,0
33311,note_on,0,0,1,,,,,,,,,,,,,,,0,,,63,0
33312,note_on,1,0,1,,,,,,,,,,,,,,,0,,,71,127
33312,note_on,0,0,1,,,,,,,,,,,,,,,0,,,62,127
33503,note_on,0,0,1,,,,,,,,,,,,,,,0,,,43,0
33503,note_on,0,0,1,,,,,,,,,,,,,,,0,,,55,0
33503,note_on,0,0,1,,,,,,,,,,,,,,,0,,,71,0
33503,note_on,191,0,1,,,,,,,,,,,,,,,0,,,62,0
33504,note_on,1,0,1,,,,,,,,,,,,,,,0,,,72,127
33504,note_on,0,0,1,,,,,,,,,,,,,,,0,,,63,127
33504,note_on,0,0,1,,,,,,,,,,,,,,,0,,,60,127
33504,note_on,0,0,1,,,,,,,,,,,,,,,0,,,48,127
33695,note_on,191,0,1,,,,,,,,,,,,,,,0,,,48,0
33695,note_on,0,0,1,,,,,,,,,,,,,,,0,,,72,0
33695,note_on,0,0,1,,,,,,,,,,,,,,,0,,,63,0
33695,note_on,0,0,1,,,,,,,,,,,,,,,0,,,60,0
33696,note_on,0,0,1,,,,,,,,,,,,,,,0,,,43,127
33696,note_on,1,0,1,,,,,,,,,,,,,,,0,,,62,127
33696,note_on,0,0,1,,,,,,,,,,,,,,,0,,,55,127
33696,note_on,0,0,1,,,,,,,,,,,,,,,0,,,74,127
33887,note_on,191,0,1,,,,,,,,,,,,,,,0,,,43,0
33887,note_on,0,0,1,,,,,,,,,,,,,,,0,,,62,0
33887,note_on,0,0,1,,,,,,,,,,,,,,,0,,,74,0
33887,note_on,0,0,1,,,,,,,,,,,,,,,0,,,55,0
33888,note_on,1,0,1,,,,,,,,,,,,,,,0,,,63,127
33888,note_on,0,0,1,,,,,,,,,,,,,,,0,,,75,127
33888,note_on,0,0,1,,,,,,,,,,,,,,,0,,,48,127
33888,note_on,0,0,1,,,,,,,,,,,,,,,0,,,60,127
34079,note_on,191,0,1,,,,,,,,,,,,,,,0,,,60,0
34079,note_on,0,0,1,,,,,,,,,,,,,,,0,,,63,0
34079,note_on,0,0,1,,,,,,,,,,,,,,,0,,,75,0
34079,note_on,0,0,1,,,,,,,,,,,,,,,0,,,48,0
34080,note_on,0,0,1,,,,,,,,,,,,,,,0,,,58,127
34080,note_on,1,0,1,,,,,,,,,,,,,,,0,,,64,127
34080,note_on,0,0,1,,,,,,,,,,,,,,,0,,,76,127
34080,note_on,0,0,1,,,,,,,,,,,,,,,0,,,46,127
34271,note_on,0,0,1,,,,,,,,,,,,,,,0,,,76,0
34271,note_on,0,0,1,,,,,,,,,,,,,,,0,,,46,0
34271,note_on,191,0,1,,,,,,,,,,,,,,,0,,,58,0
34271,note_on,0,0,1,,,,,,,,,,,,,,,0,,,64,0
34272,note_on,1,0,1,,,,,,,,,,,,,,,0,,,65,127
34272,note_on,0,0,1,,,,,,,,,,,,,,,0,,,77,127
34272,note_on,0,0,1,,,,,,,,,,,,,,,0,,,56,127
34272,note_on,0,0,1,,,,,,,,,,,,,,,0,,,44,127
34463,note_on,0,0,1,,,,,,,,,,,,,,,0,,,56,0
34463,note_on,0,0,1,,,,,,,,,,,,,,,0,,,77,0
34463,note_on,191,0,1,,,,,,,,,,,,,,,0,,,44,0
34463,note_on,0,0,1,,,,,,,,,,,,,,,0,,,65,0
34464,note_on,1,0,1,,,,,,,,,,,,,,,0,,,67,127
34464,note_on,0,0,1,,,,,,,,,,,,,,,0,,,79,127
34464,note_on,0,0,1,,,,,,,,,,,,,,,0,,,43,127
34464,note_on,0,0,1,,,,,,,,,,,,,,,0,,,55,127
34655,note_on,0,0,1,,,,,,,,,,,,,,,0,,,43,0
34655,note_on,0,0,1,,,,,,,,,,,,,,,0,,,67,0
34655,note_on,0,0,1,,,,,,,,,,,,,,,0,,,79,0
34655,note_on,191,0,1,,,,,,,,,,,,,,,0,,,55,0
34656,note_on,1,0,1,,,,,,,,,,,,,,,0,,,80,127
34656,note_on,0,0,1,,,,,,,,,,,,,,,0,,,68,127
34656,note_on,0,0,1,,,,,,,,,,,,,,,0,,,53,127
34656,note_on,0,0,1,,,,,,,,,,,,,,,0,,,41,127
34847,note_on,191,0,1,,,,,,,,,,,,,,,0,,,41,0
34847,note_on,0,0,1,,,,,,,,,,,,,,,0,,,80,0
34847,note_on,0,0,1,,,,,,,,,,,,,,,0,,,68,0
34847,note_on,0,0,1,,,,,,,,,,,,,,,0,,,53,0
34848,note_on,1,0,1,,,,,,,,,,,,,,,0,,,71,127
34848,note_on,0,0,1,,,,,,,,,,,,,,,0,,,83,127
34848,note_on,0,0,1,,,,,,,,,,,,,,,0,,,51,127
34848,note_on,0,0,1,,,,,,,,,,,,,,,0,,,39,127
35039,note_on,0,0,1,,,,,,,,,,,,,,,0,,,51,0
35039,note_on,191,0,1,,,,,,,,,,,,,,,0,,,39,0
35039,note_on,0,0,1,,,,,,,,,,,,,,,0,,,71,0
35039,note_on,0,0,1,,,,,,,,,,,,,,,0,,,83,0
35040,note_on,0,0,1,,,,,,,,,,,,,,,0,,,50,127
35040,note_on,1,0,1,,,,,,,,,,,,,,,0,,,84,127
35040,note_on,0,0,1,,,,,,,,,,,,,,,0,,,72,127
35040,note_on,0,0,1,,,,,,,,,,,,,,,0,,,38,127
35231,note_on,191,0,1,,,,,,,,,,,,,,,0,,,38,0
35231,note_on,0,0,1,,,,,,,,,,,,,,,0,,,84,0
35231,note_on,0,0,1,,,,,,,,,,,,,,,0,,,72,0
35231,note_on,0,0,1,,,,,,,,,,,,,,,0,,,50,0
35232,note_on,0,0,1,,,,,,,,,,,,,,,0,,,36,127
35232,note_on,1,0,1,,,,,,,,,,,,,,,0,,,74,127
35232,note_on,0,0,1,,,,,,,,,,,,,,,0,,,86,127
35232,note_on,0,0,1,,,,,,,,,,,,,,,0,,,48,127
35423,note_on,191,0,1,,,,,,,,,,,,,,,0,,,36,0
35423,note_on,0,0,1,,,,,,,,,,,,,,,0,,,74,0
35423,note_on,0,0,1,,,,,,,,,,,,,,,0,,,86,0
35423,note_on,0,0,1,,,,,,,,,,,,,,,0,,,48,0
35424,note_on,1,0,1,,,,,,,,,,,,,,,0,,,79,127
35424,note_on,0,0,1,,,,,,,,,,,,,,,0,,,67,127
35424,note_on,0,0,1,,,,,,,,,,,,,,,0,,,35,127
35424,note_on,0,0,1,,,,,,,,,,,,,,,0,,,47,127
35615,note_on,191,0,1,,,,,,,,,,,,,,,0,,,47,0
35615,note_on,0,0,1,,,,,,,,,,,,,,,0,,,35,0
35616,note_on,1,0,1,,,,,,,,,,,,,,,0,,,31,127
35616,note_on,0,0,1,,,,,,,,,,,,,,,0,,,43,127
35807,note_on,0,0,1,,,,,,,,,,,,,,,0,,,31,0
35807,note_on,191,0,1,,,,,,,,,,,,,,,0,,,43,0
35808,note_on,1,0,1,,,,,,,,,,,,,,,0,,,48,127
35808,note_on,0,0,1,,,,,,,,,,,,,,,0,,,36,127
35999,note_on,191,0,1,,,,,,,,,,,,,,,0,,,79,0
36000,note_on,1,0,1,,,,,,,,,,,,,,,0,,,77,127
36095,note_on,95,0,1,,,,,,,,,,,,,,,0,,,77,0
36096,note_on,1,0,1,,,,,,,,,,,,,,,0,,,75,127
36191,note_on,95,0,1,,,,,,,,,,,,,,,0,,,75,0
36191,note_on,0,0,1,,,,,,,,,,,,,,,0,,,67,0
36191,note_on,0,0,1,,,,,,,,,,,,,,,0,,,48,0
36191,note_on,0,0,1,,,,,,,,,,,,,,,0,,,36,0
36192,note_on,0,0,1,,,,,,,,,,,,,,,0,,,41,127
36192,note_on,0,0,1,,,,,,,,,,,,,,,0,,,74,127
36192,note_on,1,0,1,,,,,,,,,,,,,,,0,,,65,127
36192,note_on,0,0,1,,,,,,,,,,,,,,,0,,,53,127
36383,note_on,191,0,1,,,,,,,,,,,,,,,0,,,74,0
36383,note_on,0,0,1,,,,,,,,,,,,,,,0,,,65,0
36384,note_on,0,0,1,,,,,,,,,,,,,,,0,,,63,127
36384,note_on,1,0,1,,,,,,,,,,,,,,,0,,,72,127
36575,note_on,191,0,1,,,,,,,,,,,,,,,0,,,53,0
36575,note_on,0,0,1,,,,,,,,,,,,,,,0,,,41,0
36576,note_on,1,0,1,,,,,,,,,,,,,,,0,,,55,127
36576,note_on,0,0,1,,,,,,,,,,,,,,,0,,,43,127
36767,note_on,191,0,1,,,,,,,,,,,,,,,0,,,72,0
36767,note_on,0,0,1,,,,,,,,,,,,,,,0,,,63,0
36768,note_on,1,0,1,,,,,,,,,,,,,,,0,,,62,127
36768,note_on,0,0,1,,,,,,,,,,,,,,,0,,,71,127
36959,note_on,191,0,1,,,,,,,,,,,,,,,0,,,71,0
36959,note_on,0,0,1,,,,,,,,,,,,,,,0,,,43,0
36959,note_on,0,0,1,,,,,,,,,,,,,,,0,,,55,0
36959,note_on,0,0,1,,,,,,,,,,,,,,,0,,,62,0
36960,note_on,0,0,1,,,,,,,,,,,,,,,0,,,48,127
36960,note_on,0,0,1,,,,,,,,,,,,,,,0,,,60,127
36960,note_on,0,0,1,,,,,,,,,,,,,,,0,,,72,127
36960,note_on,1,0,1,,,,,,,,,,,,,,,0,,,63,127
37151,note_on,191,0,1,,,,,,,,,,,,,,,0,,,48,0
37151,note_on,0,0,1,,,,,,,,,,,,,,,0,,,63,0
37151,note_on,0,0,1,,,,,,,,,,,,,,,0,,,72,0
37151,note_on,0,0,1,,,,,,,,,,,,,,,0,,,60,0
37152,note_on,1,0,1,,,,,,,,,,,,,,,0,,,74,127
37152,note_on,0,0,1,,,,,,,,,,,,,,,0,,,62,127
37152,note_on,0,0,1,,,,,,,,,,,,,,,0,,,43,127
37152,note_on,0,0,1,,,,,,,,,,,,,,,0,,,55,127
37343,note_on,191,0,1,,,,,,,,,,,,,,,0,,,55,0
37343,note_on,0,0,1,,,,,,,,,,,,,,,0,,,74,0
37343,note_on,0,0,1,,,,,,,,,,,,,,,0,,,62,0
37343,note_on,0,0,1,,,,,,,,,,,,,,,0,,,43,0
37344,note_on,0,0,1,,,,,,,,,,,,,,,0,,,60,127
37344,note_on,0,0,1,,,,,,,,,,,,,,,0,,,63,127
37344,note_on,0,0,1,,,,,,,,,,,,,,,0,,,48,127
37344,note_on,1,0,1,,,,,,,,,,,,,,,0,,,75,127
37535,note_on,0,0,1,,,,,,,,,,,,,,,0,,,48,0
37535,note_on,0,0,1,,,,,,,,,,,,,,,0,,,75,0
37535,note_on,0,0,1,,,,,,,,,,,,,,,0,,,63,0
37535,note_on,191,0,1,,,,,,,,,,,,,,,0,,,60,0
37536,note_on,0,0,1,,,,,,,,,,,,,,,0,,,58,127
37536,note_on,1,0,1,,,,,,,,,,,,,,,0,,,64,127
37536,note_on,0,0,1,,,,,,,,,,,,,,,0,,,76,127
37536,note_on,0,0,1,,,,,,,,,,,,,,,0,,,46,127
37727,note_on,191,0,1,,,,,,,,,,,,,,,0,,,58,0
37727,note_on,0,0,1,,,,,,,,,,,,,,,0,,,64,0
37727,note_on,0,0,1,,,,,,,,,,,,,,,0,,,76,0
37727,note_on,0,0,1,,,,,,,,,,,,,,,0,,,46,0
37728,note_on,1,0,1,,,,,,,,,,,,,,,0,,,65,127
37728,note_on,0,0,1,,,,,,,,,,,,,,,0,,,77,127
37728,note_on,0,0,1,,,,,,,,,,,,,,,0,,,44,127
37728,note_on,0,0,1,,,,,,,,,,,,,,,0,,,56,127
37919,note_on,191,0,1,,,,,,,,,,,,,,,0,,,56,0
37919,note_on,0,0,1,,,,,,,,,,,,,,,0,,,65,0
37919,note_on,0,0,1,,,,,,,,,,,,,,,0,,,77,0
37919,note_on,0,0,1,,,,,,,,,,,,,,,0,,,44,0
37920,note_on,0,0,1,,,,,,,,,,,,,,,0,,,43,127
37920,note_on,1,0,1,,,,,,,,,,,,,,,0,,,79,127
37920,note_on,0,0,1,,,,,,,,,,,,,,,0,,,55,127
37920,note_on,0,0,1,,,,,,,,,,,,,,,0,,,67,127
38111,note_on,191,0,1,,,,,,,,,,,,,,,0,,,43,0
38111,note_on,0,0,1,,,,,,,,,,,,,,,0,,,79,0
38111,note_on,0,0,1,,,,,,,,,,,,,,,0,,,67,0
38111,note_on,0,0,1,,,,,,,,,,,,,,,0,,,55,0
38112,note_on,1,0,1,,,,,,,,,,,,,,,0,,,68,127
38112,note_on,0,0,1,,,,,,,,,,,,,,,0,,,80,127
38112,note_on,0,0,1,,,,,,,,,,,,,,,0,,,41,127
38112,note_on,0,0,1,,,,,,,,,,,,,,,0,,,53,127
38303,note_on,191,0,1,,,,,,,,,,,,,,,0,,,53,0
38303,note_on,0,0,1,,,,,,,,,,,,,,,0,,,68,0
38303,note_on,0,0,1,,,,,,,,,,,,,,,0,,,80,0
38303,note_on,0,0,1,,,,,,,,,,,,,,,0,,,41,0
38304,note_on,0,0,1,,,,,,,,,,,,,,,0,,,39,127
38304,note_on,0,0,1,,,,,,,,,,,,,,,0,,,51,127
38304,note_on,1,0,1,,,,,,,,,,,,,,,0,,,71,127
38304,note_on,0,0,1,,,,,,,,,,,,,,,0,,,83,127
38495,note_on,0,0,1,,,,,,,,,,,,,,,0,,,51,0
38495,note_on,191,0,1,,,,,,,,,,,,,,,0,,,39,0
38495,note_on,0,0,1,,,,,,,,,,,,,,,0,,,71,0
38495,note_on,0,0,1,,,,,,,,,,,,,,,0,,,83,0
38496,note_on,1,0,1,,,,,,,,,,,,,,,0,,,84,127
38496,note_on,0,0,1,,,,,,,,,,,,,,,0,,,72,127
38496,note_on,0,0,1,,,,,,,,,,,,,,,0,,,50,127
38496,note_on,0,0,1,,,,,,,,,,,,,,,0,,,38,127
38687,note_on,191,0,1,,,,,,,,,,,,,,,0,,,38,0
38687,note_on,0,0,1,,,,,,,,,,,,,,,0,,,84,0
38687,note_on,0,0,1,,,,,,,,,,,,,,,0,,,72,0
38687,note_on,0,0,1,,,,,,,,,,,,,,,0,,,50,0
38688,note_on,1,0,1,,,,,,,,,,,,,,,0,,,74,127
38688,note_on,0,0,1,,,,,,,,,,,,,,,0,,,86,127
38688,note_on,0,0,1,,,,,,,,,,,,,,,0,,,36,127
38688,note_on,0,0,1,,,,,,,,,,,,,,,0,,,48,127
38879,note_on,0,0,1,,,,,,,,,,,,,,,0,,,36,0
38879,note_on,0,0,1,,,,,,,,,,,,,,,0,,,86,0
38879,note_on,0,0,1,,,,,,,,,,,,,,,0,,,74,0
38879,note_on,191,0,1,,,,,,,,,,,,,,,0,,,48,0
38880,note_on,1,0,1,,,,,,,,,,,,,,,0,,,67,127
38880,note_on,0,0,1,,,,,,,,,,,,,,,0,,,79,127
38880,note_on,0,0,1,,,,,,,,,,,,,,,0,,,35,127
38880,note_on,0,0,1,,,,,,,,,,,,,,,0,,,47,127
39071,note_on,191,0,1,,,,,,,,,,,,,,,0,,,47,0
39071,note_on,0,0,1,,,,,,,,,,,,,,,0,,,35,0
39072,note_on,1,0,1,,,,,,,,,,,,,,,0,,,31,127
39072,note_on,0,0,1,,,,,,,,,,,,,,,0,,,43,127
39263,note_on,191,0,1,,,,,,,,,,,,,,,0,,,43,0
39263,note_on,0,0,1,,,,,,,,,,,,,,,0,,,31,0
39264,note_on,1,0,1,,,,,,,,,,,,,,,0,,,36,127
39264,note_on,0,0,1,,,,,,,,,,,,,,,0,,,48,127
39455,note_on,191,0,1,,,,,,,,,,,,,,,0,,,79,0
39456,note_on,1,0,1,,,,,,,,,,,,,,,0,,,77,127
39551,note_on,95,0,1,,,,,,,,,,,,,,,0,,,77,0
39552,note_on,1,0,1,,,,,,,,,,,,,,,0,,,75,127
39647,note_on,0,0,1,,,,,,,,,,,,,,,0,,,36,0
39647,note_on,95,0,1,,,,,,,,,,,,,,,0,,,75,0
39647,note_on,0,0,1,,,,,,,,,,,,,,,0,,,67,0
39647,note_on,0,0,1,,,,,,,,,,,,,,,0,,,48,0
39648,note_on,0,0,1,,,,,,,,,,,,,,,0,,,65,127
39648,note_on,1,0,1,,,,,,,,,,,,,,,0,,,74,127
39648,note_on,0,0,1,,,,,,,,,,,,,,,0,,,53,127
39648,note_on,0,0,1,,,,,,,,,,,,,,,0,,,41,127
39839,note_on,191,0,1,,,,,,,,,,,,,,,0,,,65,0
39839,note_on,0,0,1,,,,,,,,,,,,,,,0,,,74,0
39840,note_on,1,0,1,,,,,,,,,,,,,,,0,,,63,127
39840,note_on,0,0,1,,,,,,,,,,,,,,,0,,,72,127
40031,note_on,191,0,1,,,,,,,,,,,,,,,0,,,53,0
40031,note_on,0,0,1,,,,,,,,,,,,,,,0,,,41,0
40032,note_on,1,0,1,,,,,,,,,,,,,,,0,,,43,127
40032,note_on,0,0,1,,,,,,,,,,,,,,,0,,,55,127
40223,note_on,191,0,1,,,,,,,,,,,,,,,0,,,63,0
40223,note_on,0,0,1,,,,,,,,,,,,,,,0,,,72,0
40224,note_on,1,0,1,,,,,,,,,,,,,,,0,,,71,127
40224,note_on,0,0,1,,,,,,,,,,,,,,,0,,,62,127
40384,note_on,160,0,1,,,,,,,,,,,,,,,0,,,71,0
40394,note_on,10,0,1,,,,,,,,,,,,,,,0,,,62,0
40415,note_on,0,0,1,,,,,,,,,,,,,,,0,,,55,0
40415,note_on,21,0,1,,,,,,,,,,,,,,,0,,,43,0
40416,note_on,1,0,1,,,,,,,,,,,,,,,0,,,75,127
40416,note_on,0,0,1,,,,,,,,,,,,,,,0,,,72,127
40416,note_on,0,0,1,,,,,,,,,,,,,,,0,,,36,127
40416,note_on,0,0,1,,,,,,,,,,,,,,,0,,,48,127
40607,note_on,191,0,1,,,,,,,,,,,,,,,0,,,75,0
40608,note_on,1,0,1,,,,,,,,,,,,,,,0,,,74,127
40703,note_on,95,0,1,,,,,,,,,,,,,,,0,,,74,0
40704,note_on,1,0,1,,,,,,,,,,,,,,,0,,,75,127
40799,note_on,95,0,1,,,,,,,,,,,,,,,0,,,75,0
40799,note_on,0,0,1,,,,,,,,,,,,,,,0,,,72,0
40799,note_on,0,0,1,,,,,,,,,,,,,,,0,,,36,0
40799,note_on,0,0,1,,,,,,,,,,,,,,,0,,,48,0
40800,note_on,0,0,1,,,,,,,,,,,,,,,0,,,41,127
40800,note_on,0,0,1,,,,,,,,,,,,,,,0,,,53,127
40800,note_on,0,0,1,,,,,,,,,,,,,,,0,,,77,127
40800,note_on,1,0,1,,,,,,,,,,,,,,,0,,,74,127
40991,note_on,191,0,1,,,,,,,,,,,,,,,0,,,77,0
40992,note_on,1,0,1,,,,,,,,,,,,,,,0,,,79,127
41183,note_on,0,0,1,,,,,,,,,,,,,,,0,,,41,0
41183,note_on,0,0,1,,,,,,,,,,,,,,,0,,,53,0
41183,note_on,0,0,1,,,,,,,,,,,,,,,0,,,74,0
41183,note_on,191,0,1,,,,,,,,,,,,,,,0,,,79,0
41184,note_on,1,0,1,,,,,,,,,,,,,,,0,,,77,127
41184,note_on,0,0,1,,,,,,,,,,,,,,,0,,,72,127
41184,note_on,0,0,1,,,,,,,,,,,,,,,0,,,43,127
41184,note_on,0,0,1,,,,,,,,,,,,,,,0,,,55,127
41279,note_on,95,0,1,,,,,,,,,,,,,,,0,,,77,0
41280,note_on,1,0,1,,,,,,,,,,,,,,,0,,,75,127
41375,note_on,95,0,1,,,,,,,,,,,,,,,0,,,75,0
41375,note_on,0,0,1,,,,,,,,,,,,,,,0,,,72,0
41376,note_on,1,0,1,,,,,,,,,,,,,,,0,,,71,127
41376,note_on,0,0,1,,,,,,,,,,,,,,,0,,,74,127
41546,note_on,0,0,1,,,,,,,,,,,,,,,0,,,71,0
41546,note_on,170,0,1,,,,,,,,,,,,,,,0,,,74,0
41567,note_on,0,0,1,,,,,,,,,,,,,,,0,,,43,0
41567,note_on,21,0,1,,,,,,,,,,,,,,,0,,,55,0
41568,note_on,1,0,1,,,,,,,,,,,,,,,0,,,75,127
41568,note_on,0,0,1,,,,,,,,,,,,,,,0,,,72,127
41568,note_on,0,0,1,,,,,,,,,,,,,,,0,,,48,127
41568,note_on,0,0,1,,,,,,,,,,,,,,,0,,,36,127
41759,note_on,191,0,1,,,,,,,,,,,,,,,0,,,75,0
41760,note_on,1,0,1,,,,,,,,,,,,,,,0,,,74,127
41855,note_on,95,0,1,,,,,,,,,,,,,,,0,,,74,0
41856,note_on,1,0,1,,,,,,,,,,,,,,,0,,,75,127
41951,note_on,95,0,1,,,,,,,,,,,,,,,0,,,75,0
41951,note_on,0,0,1,,,,,,,,,,,,,,,0,,,72,0
41951,note_on,0,0,1,,,,,,,,,,,,,,,0,,,48,0
41951,note_on,0,0,1,,,,,,,,,,,,,,,0,,,36,0
41952,note_on,0,0,1,,,,,,,,,,,,,,,0,,,41,127
41952,note_on,0,0,1,,,,,,,,,,,,,,,0,,,74,127
41952,note_on,1,0,1,,,,,,,,,,,,,,,0,,,77,127
41952,note_on,0,0,1,,,,,,,,,,,,,,,0,,,53,127
42143,note_on,191,0,1,,,,,,,,,,,,,,,0,,,77,0
42144,note_on,1,0,1,,,,,,,,,,,,,,,0,,,79,127
42335,note_on,191,0,1,,,,,,,,,,,,,,,0,,,79,0
42335,note_on,0,0,1,,,,,,,,,,,,,,,0,,,41,0
42335,note_on,0,0,1,,,,,,,,,,,,,,,0,,,53,0
42335,note_on,0,0,1,,,,,,,,,,,,,,,0,,,74,0
42336,note_on,1,0,1,,,,,,,,,,,,,,,0,,,72,127
42336,note_on,0,0,1,,,,,,,,,,,,,,,0,,,77,127
42336,note_on,0,0,1,,,,,,,,,,,,,,,0,,,55,127
42336,note_on,0,0,1,,,,,,,,,,,,,,,0,,,43,127
42431,note_on,95,0,1,,,,,,,,,,,,,,,0,,,77,0
42432,note_on,1,0,1,,,,,,,,,,,,,,,0,,,75,127
42527,note_on,95,0,1,,,,,,,,,,,,,,,0,,,75,0
42527,note_on,0,0,1,,,,,,,,,,,,,,,0,,,72,0
42528,note_on,1,0,1,,,,,,,,,,,,,,,0,,,71,127
42528,note_on,0,0,1,,,,,,,,,,,,,,,0,,,74,127
42698,note_on,170,0,1,,,,,,,,,,,,,,,0,,,74,0
42698,note_on,0,0,1,,,,,,,,,,,,,,,0,,,71,0
42719,note_on,21,0,1,,,,,,,,,,,,,,,0,,,55,0
42719,note_on,0,0,1,,,,,,,,,,,,,,,0,,,43,0
42720,note_on,0,0,1,,,,,,,,,,,,,,,0,,,72,127
42720,note_on,0,0,1,,,,,,,,,,,,,,,0,,,48,127
42720,note_on,0,0,1,,,,,,,,,,,,,,,0,,,36,127
42720,note_on,1,0,1,,,,,,,,,,,,,,,0,,,75,127
42911,note_on,191,0,1,,,,,,,,,,,,,,,0,,,75,0
42912,note_on,1,0,1,,,,,,,,,,,,,,,0,,,74,127
43007,note_on,95,0,1,,,,,,,,,,,,,,,0,,,74,0
43008,note_on,1,0,1,,,,,,,,,,,,,,,0,,,75,127
43103,note_on,95,0,1,,,,,,,,,,,,,,,0,,,75,0
43103,note_on,0,0,1,,,,,,,,,,,,,,,0,,,72,0
43103,note_on,0,0,1,,,,,,,,,,,,,,,0,,,48,0
43103,note_on,0,0,1,,,,,,,,,,,,,,,0,,,36,0
43104,note_on,0,0,1,,,,,,,,,,,,,,,0,,,41,127
43104,note_on,0,0,1,,,,,,,,,,,,,,,0,,,53,127
43104,note_on,1,0,1,,,,,,,,,,,,,,,0,,,74,127
43104,note_on,0,0,1,,,,,,,,,,,,,,,0,,,77,127
43295,note_on,191,0,1,,,,,,,,,,,,,,,0,,,77,0
43296,note_on,1,0,1,,,,,,,,,,,,,,,0,,,79,127
43487,note_on,0,0,1,,,,,,,,,,,,,,,0,,,41,0
43487,note_on,0,0,1,,,,,,,,,,,,,,,0,,,53,0
43487,note_on,0,0,1,,,,,,,,,,,,,,,0,,,74,0
43487,note_on,191,0,1,,,,,,,,,,,,,,,0,,,79,0
43488,note_on,1,0,1,,,,,,,,,,,,,,,0,,,72,127
43488,note_on,0,0,1,,,,,,,,,,,,,,,0,,,77,127
43488,note_on,0,0,1,,,,,,,,,,,,,,,0,,,55,127
43488,note_on,0,0,1,,,,,,,,,,,,,,,0,,,43,127
43583,note_on,95,0,1,,,,,,,,,,,,,,,0,,,77,0
43584,note_on,1,0,1,,,,,,,,,,,,,,,0,,,75,127
43679,note_on,95,0,1,,,,,,,,,,,,,,,0,,,75,0
43679,note_on,0,0,1,,,,,,,,,,,,,,,0,,,72,0
43680,note_on,1,0,1,,,,,,,,,,,,,,,0,,,71,127
43680,note_on,0,0,1,,,,,,,,,,,,,,,0,,,74,127
43871,note_on,0,0,1,,,,,,,,,,,,,,,0,,,71,0
43871,note_on,0,0,1,,,,,,,,,,,,,,,0,,,55,0
43871,note_on,0,0,1,,,,,,,,,,,,,,,0,,,43,0
43871,note_on,191,0,1,,,,,,,,,,,,,,,0,,,74,0
43872,note_on,1,0,1,,,,,,,,,,,,,,,0,,,74,127
43872,note_on,0,0,1,,,,,,,,,,,,,,,0,,,71,127
43872,note_on,0,0,1,,,,,,,,,,,,,,,0,,,48,127
43872,note_on,0,0,1,,,,,,,,,,,,,,,0,,,36,127
44255,note_on,383,0,1,,,,,,,,,,,,,,,0,,,71,0
44255,note_on,0,0,1,,,,,,,,,,,,,,,0,,,74,0
44256,note_on,1,0,1,,,,,,,,,,,,,,,0,,,72,127
44831,note_on,575,0,1,,,,,,,,,,,,,,,0,,,72,0
45023,note_on,192,0,1,,,,,,,,,,,,,,,0,,,48,0
45023,note_on,0,0,1,,,,,,,,,,,,,,,0,,,36,0
45024,note_on,1,0,1,,,,,,,,,,,,,,,0,,,84,127
45119,note_on,95,0,1,,,,,,,,,,,,,,,0,,,84,0
45120,note_on,1,0,1,,,,,,,,,,,,,,,0,,,79,127
45215,note_on,95,0,1,,,,,,,,,,,,,,,0,,,79,0
45216,note_on,1,0,1,,,,,,,,,,,,,,,0,,,76,127
45311,note_on,95,0,1,,,,,,,,,,,,,,,0,,,76,0
45312,note_on,1,0,1,,,,,,,,,,,,,,,0,,,72,127
45407,note_on,95,0,1,,,,,,,,,,,,,,,0,,,72,0
45408,note_on,1,0,1,,,,,,,,,,,,,,,0,,,67,127
45503,note_on,95,0,1,,,,,,,,,,,,,,,0,,,67,0
45504,note_on,1,0,1,,,,,,,,,,,,,,,0,,,64,127
45599,note_on,95,0,1,,,,,,,,,,,,,,,0,,,64,0
45600,note_on,1,0,1,,,,,,,,,,,,,,,0,,,60,127
45695,note_on,95,0,1,,,,,,,,,,,,,,,0,,,60,0
45696,note_on,1,0,1,,,,,,,,,,,,,,,0,,,55,127
45791,note_on,95,0,1,,,,,,,,,,,,,,,0,,,55,0
45792,note_on,1,0,1,,,,,,,,,,,,,,,0,,,52,127
45887,note_on,95,0,1,,,,,,,,,,,,,,,0,,,52,0
45888,note_on,1,0,1,,,,,,,,,,,,,,,0,,,48,127
45983,note_on,95,0,1,,,,,,,,,,,,,,,0,,,48,0
45984,note_on,1,0,1,,,,,,,,,,,,,,,0,,,43,127
46079,note_on,95,0,1,,,,,,,,,,,,,,,0,,,43,0
46080,note_on,1,0,1,,,,,,,,,,,,,,,0,,,40,127
46175,note_on,95,0,1,,,,,,,,,,,,,,,0,,,40,0
46176,note_on,1,0,1,,,,,,,,,,,,,,,0,,,48,127
46176,note_on,0,0,1,,,,,,,,,,,,,,,0,,,36,127
46368,note_on,192,0,1,,,,,,,,,,,,,,,0,,,79,127
46559,note_on,191,0,1,,,,,,,,,,,,,,,0,,,79,0
46560,note_on,1,0,1,,,,,,,,,,,,,,,0,,,76,127
46560,note_on,0,0,1,,,,,,,,,,,,,,,0,,,72,127
46751,note_on,191,0,1,,,,,,,,,,,,,,,0,,,72,0
46751,note_on,0,0,1,,,,,,,,,,,,,,,0,,,76,0
46752,note_on,1,0,1,,,,,,,,,,,,,,,0,,,77,127
46752,note_on,0,0,1,,,,,,,,,,,,,,,0,,,73,127
46943,note_on,191,0,1,,,,,,,,,,,,,,,0,,,73,0
46943,note_on,0,0,1,,,,,,,,,,,,,,,0,,,77,0
46944,note_on,0,0,1,,,,,,,,,,,,,,,0,,,79,127
46944,note_on,1,0,1,,,,,,,,,,,,,,,0,,,72,127
47135,note_on,0,0,1,,,,,,,,,,,,,,,0,,,72,0
47135,note_on,191,0,1,,,,,,,,,,,,,,,0,,,79,0
47136,note_on,1,0,1,,,,,,,,,,,,,,,0,,,77,127
47136,note_on,0,0,1,,,,,,,,,,,,,,,0,,,80,127
47306,note_on,170,0,1,,,,,,,,,,,,,,,0,,,36,0
47306,note_on,0,0,1,,,,,,,,,,,,,,,0,,,48,0
47327,note_on,21,0,1,,,,,,,,,,,,,,,0,,,77,0
47327,note_on,0,0,1,,,,,,,,,,,,,,,0,,,80,0
47328,note_on,1,0,1,,,,,,,,,,,,,,,0,,,82,127
47328,note_on,0,0,1,,,,,,,,,,,,,,,0,,,79,127
47328,note_on,0,0,1,,,,,,,,,,,,,,,0,,,31,127
47328,note_on,0,0,1,,,,,,,,,,,,,,,0,,,43,127
47519,note_on,191,0,1,,,,,,,,,,,,,,,0,,,79,0
47519,note_on,0,0,1,,,,,,,,,,,,,,,0,,,82,0
47520,note_on,1,0,1,,,,,,,,,,,,,,,0,,,84,127
47520,note_on,0,0,1,,,,,,,,,,,,,,,0,,,80,127
47615,note_on,0,0,1,,,,,,,,,,,,,,,0,,,84,0
47615,note_on,95,0,1,,,,,,,,,,,,,,,0,,,80,0
47616,note_on,0,0,1,,,,,,,,,,,,,,,0,,,82,127
47616,note_on,1,0,1,,,,,,,,,,,,,,,0,,,85,127
47711,note_on,95,0,1,,,,,,,,,,,,,,,0,,,82,0
47711,note_on,0,0,1,,,,,,,,,,,,,,,0,,,43,0
47711,note_on,0,0,1,,,,,,,,,,,,,,,0,,,31,0
47711,note_on,0,0,1,,,,,,,,,,,,,,,0,,,85,0
47712,note_on,1,0,1,,,,,,,,,,,,,,,0,,,80,127
47712,note_on,0,0,1,,,,,,,,,,,,,,,0,,,84,127
47712,note_on,0,0,1,,,,,,,,,,,,,,,0,,,48,127
47903,note_on,191,0,1,,,,,,,,,,,,,,,0,,,84,0
47903,note_on,0,0,1,,,,,,,,,,,,,,,0,,,80,0
47904,note_on,1,0,1,,,,,,,,,,,,,,,0,,,82,127
47904,note_on,0,0,1,,,,,,,,,,,,,,,0,,,79,127
48095,note_on,0,0,1,,,,,,,,,,,,,,,0,,,48,0
48095,note_on,191,0,1,,,,,,,,,,,,,,,0,,,79,0
48095,note_on,0,0,1,,,,,,,,,,,,,,,0,,,82,0
48096,note_on,0,0,1,,,,,,,,,,,,,,,0,,,77,127
48096,note_on,0,0,1,,,,,,,,,,,,,,,0,,,36,127
48096,note_on,1,0,1,,,,,,,,,,,,,,,0,,,80,127
48287,note_on,191,0,1,,,,,,,,,,,,,,,0,,,77,0
48287,note_on,0,0,1,,,,,,,,,,,,,,,0,,,80,0
48288,note_on,1,0,1,,,,,,,,,,,,,,,0,,,76,127
48288,note_on,0,0,1,,,,,,,,,,,,,,,0,,,79,127
48479,note_on,191,0,1,,,,,,,,,,,,,,,0,,,79,0
48479,note_on,0,0,1,,,,,,,,,,,,,,,0,,,76,0
48479,note_on,0,0,1,,,,,,,,,,,,,,,0,,,36,0
48480,note_on,1,0,1,,,,,,,,,,,,,,,0,,,79,127
48480,note_on,0,0,1,,,,,,,,,,,,,,,0,,,53,127
48671,note_on,191,0,1,,,,,,,,,,,,,,,0,,,79,0
48672,note_on,1,0,1,,,,,,,,,,,,,,,0,,,77,127
48767,note_on,95,0,1,,,,,,,,,,,,,,,0,,,77,0
48768,note_on,1,0,1,,,,,,,,,,,,,,,0,,,76,127
48863,note_on,95,0,1,,,,,,,,,,,,,,,0,,,76,0
48864,note_on,1,0,1,,,,,,,,,,,,,,,0,,,76,127
48864,note_on,0,0,1,,,,,,,,,,,,,,,0,,,41,127
49055,note_on,191,0,1,,,,,,,,,,,,,,,0,,,76,0
49056,note_on,1,0,1,,,,,,,,,,,,,,,0,,,77,127
49247,note_on,191,0,1,,,,,,,,,,,,,,,0,,,53,0
49439,note_on,192,0,1,,,,,,,,,,,,,,,0,,,77,0
49631,note_on,192,0,1,,,,,,,,,,,,,,,0,,,41,0
49632,note_on,1,0,1,,,,,,,,,,,,,,,0,,,82,127
49632,note_on,0,0,1,,,,,,,,,,,,,,,0,,,34,127
49727,note_on,95,0,1,,,,,,,,,,,,,,,0,,,82,0
49728,note_on,1,0,1,,,,,,,,,,,,,,,0,,,77,127
49823,note_on,95,0,1,,,,,,,,,,,,,,,0,,,77,0
49824,note_on,1,0,1,,,,,,,,,,,,,,,0,,,74,127
49919,note_on,95,0,1,,,,,,,,,,,,,,,0,,,74,0
49920,note_on,1,0,1,,,,,,,,,,,,,,,0,,,70,127
50015,note_on,95,0,1,,,,,,,,,,,,,,,0,,,70,0
50016,note_on,1,0,1,,,,,,,,,,,,,,,0,,,65,127
50111,note_on,95,0,1,,,,,,,,,,,,,,,0,,,65,0
50112,note_on,1,0,1,,,,,,,,,,,,,,,0,,,62,127
50207,note_on,95,0,1,,,,,,,,,,,,,,,0,,,62,0
50208,note_on,1,0,1,,,,,,,,,,,,,,,0,,,58,127
50303,note_on,95,0,1,,,,,,,,,,,,,,,0,,,58,0
50304,note_on,1,0,1,,,,,,,,,,,,,,,0,,,53,127
50399,note_on,95,0,1,,,,,,,,,,,,,,,0,,,53,0
50400,note_on,1,0,1,,,,,,,,,,,,,,,0,,,50,127
50495,note_on,95,0,1,,,,,,,,,,,,,,,0,,,50,0
50495,note_on,0,0,1,,,,,,,,,,,,,,,0,,,34,0
50496,note_on,1,0,1,,,,,,,,,,,,,,,0,,,46,127
50591,note_on,95,0,1,,,,,,,,,,,,,,,0,,,46,0
50592,note_on,1,0,1,,,,,,,,,,,,,,,0,,,41,127
50687,note_on,95,0,1,,,,,,,,,,,,,,,0,,,41,0
50688,note_on,1,0,1,,,,,,,,,,,,,,,0,,,38,127
50783,note_on,95,0,1,,,,,,,,,,,,,,,0,,,38,0
50784,note_on,0,0,1,,,,,,,,,,,,,,,0,,,46,127
50784,note_on,1,0,1,,,,,,,,,,,,,,,0,,,34,127
50976,note_on,192,0,1,,,,,,,,,,,,,,,0,,,77,127
51167,note_on,191,0,1,,,,,,,,,,,,,,,0,,,77,0
51168,note_on,0,0,1,,,,,,,,,,,,,,,0,,,74,127
51168,note_on,1,0,1,,,,,,,,,,,,,,,0,,,70,127
51359,note_on,191,0,1,,,,,,,,,,,,,,,0,,,74,0
51359,note_on,0,0,1,,,,,,,,,,,,,,,0,,,70,0
51360,note_on,1,0,1,,,,,,,,,,,,,,,0,,,75,127
51360,note_on,0,0,1,,,,,,,,,,,,,,,0,,,72,127
51551,note_on,191,0,1,,,,,,,,,,,,,,,0,,,72,0
51551,note_on,0,0,1,,,,,,,,,,,,,,,0,,,75,0
51552,note_on,1,0,1,,,,,,,,,,,,,,,0,,,74,127
51552,note_on,0,0,1,,,,,,,,,,,,,,,0,,,77,127
51743,note_on,191,0,1,,,,,,,,,,,,,,,0,,,77,0
51743,note_on,0,0,1,,,,,,,,,,,,,,,0,,,74,0
51744,note_on,1,0,1,,,,,,,,,,,,,,,0,,,79,127
51744,note_on,0,0,1,,,,,,,,,,,,,,,0,,,75,127
51904,note_on,0,0,1,,,,,,,,,,,,,,,0,,,34,0
51904,note_on,160,0,1,,,,,,,,,,,,,,,0,,,46,0
51935,note_on,0,0,1,,,,,,,,,,,,,,,0,,,75,0
51935,note_on,31,0,1,,,,,,,,,,,,,,,0,,,79,0
51936,note_on,1,0,1,,,,,,,,,,,,,,,0,,,80,127
51936,note_on,0,0,1,,,,,,,,,,,,,,,0,,,77,127
51936,note_on,0,0,1,,,,,,,,,,,,,,,0,,,32,127
51936,note_on,0,0,1,,,,,,,,,,,,,,,0,,,44,127
52127,note_on,191,0,1,,,,,,,,,,,,,,,0,,,77,0
52127,note_on,0,0,1,,,,,,,,,,,,,,,0,,,80,0
52128,note_on,1,0,1,,,,,,,,,,,,,,,0,,,79,127
52128,note_on,0,0,1,,,,,,,,,,,,,,,0,,,82,127
52223,note_on,95,0,1,,,,,,,,,,,,,,,0,,,82,0
52223,note_on,0,0,1,,,,,,,,,,,,,,,0,,,79,0
52224,note_on,1,0,1,,,,,,,,,,,,,,,0,,,80,127
52224,note_on,0,0,1,,,,,,,,,,,,,,,0,,,84,127
52319,note_on,0,0,1,,,,,,,,,,,,,,,0,,,80,0
52319,note_on,0,0,1,,,,,,,,,,,,,,,0,,,44,0
52319,note_on,0,0,1,,,,,,,,,,,,,,,0,,,32,0
52319,note_on,95,0,1,,,,,,,,,,,,,,,0,,,84,0
52320,note_on,0,0,1,,,,,,,,,,,,,,,0,,,82,127
52320,note_on,0,0,1,,,,,,,,,,,,,,,0,,,46,127
52320,note_on,1,0,1,,,,,,,,,,,,,,,0,,,79,127
52511,note_on,191,0,1,,,,,,,,,,,,,,,0,,,82,0
52511,note_on,0,0,1,,,,,,,,,,,,,,,0,,,79,0
52512,note_on,1,0,1,,,,,,,,,,,,,,,0,,,80,127
52512,note_on,0,0,1,,,,,,,,,,,,,,,0,,,77,127
52703,note_on,0,0,1,,,,,,,,,,,,,,,0,,,46,0
52703,note_on,191,0,1,,,,,,,,,,,,,,,0,,,77,0
52703,note_on,0,0,1,,,,,,,,,,,,,,,0,,,80,0
52704,note_on,1,0,1,,,,,,,,,,,,,,,0,,,79,127
52704,note_on,0,0,1,,,,,,,,,,,,,,,0,,,75,127
52704,note_on,0,0,1,,,,,,,,,,,,,,,0,,,34,127
52895,note_on,191,0,1,,,,,,,,,,,,,,,0,,,75,0
52895,note_on,0,0,1,,,,,,,,,,,,,,,0,,,79,0
52896,note_on,1,0,1,,,,,,,,,,,,,,,0,,,74,127
52896,note_on,0,0,1,,,,,,,,,,,,,,,0,,,77,127
53087,note_on,191,0,1,,,,,,,,,,,,,,,0,,,77,0
53087,note_on,0,0,1,,,,,,,,,,,,,,,0,,,74,0
53087,note_on,0,0,1,,,,,,,,,,,,,,,0,,,34,0
53088,note_on,1,0,1,,,,,,,,,,,,,,,0,,,75,127
53088,note_on,0,0,1,,,,,,,,,,,,,,,0,,,39,127
53280,note_on,192,0,1,,,,,,,,,,,,,,,0,,,63,127
53471,note_on,0,0,1,,,,,,,,,,,,,,,0,,,75,0
53471,note_on,0,0,1,,,,,,,,,,,,,,,0,,,39,0
53471,note_on,191,0,1,,,,,,,,,,,,,,,0,,,63,0
53472,note_on,1,0,1,,,,,,,,,,,,,,,0,,,75,127
53472,note_on,0,0,1,,,,,,,,,,,,,,,0,,,55,127
53472,note_on,0,0,1,,,,,,,,,,,,,,,0,,,58,127
53472,note_on,0,0,1,,,,,,,,,,,,,,,0,,,51,127
53567,note_on,95,0,1,,,,,,,,,,,,,,,0,,,75,0
53568,note_on,1,0,1,,,,,,,,,,,,,,,0,,,73,127
53663,note_on,95,0,1,,,,,,,,,,,,,,,0,,,73,0
53664,note_on,1,0,1,,,,,,,,,,,,,,,0,,,72,127
53759,note_on,95,0,1,,,,,,,,,,,,,,,0,,,72,0
53760,note_on,1,0,1,,,,,,,,,,,,,,,0,,,70,127
53855,note_on,0,0,1,,,,,,,,,,,,,,,0,,,55,0
53855,note_on,0,0,1,,,,,,,,,,,,,,,0,,,58,0
53855,note_on,95,0,1,,,,,,,,,,,,,,,0,,,70,0
53855,note_on,0,0,1,,,,,,,,,,,,,,,0,,,51,0
53856,note_on,0,0,1,,,,,,,,,,,,,,,0,,,56,127
53856,note_on,1,0,1,,,,,,,,,,,,,,,0,,,70,127
53856,note_on,0,0,1,,,,,,,,,,,,,,,0,,,51,127
53856,note_on,0,0,1,,,,,,,,,,,,,,,0,,,60,127
53951,note_on,95,0,1,,,,,,,,,,,,,,,0,,,70,0
53952,note_on,1,0,1,,,,,,,,,,,,,,,0,,,68,127
54047,note_on,95,0,1,,,,,,,,,,,,,,,0,,,68,0
54048,note_on,1,0,1,,,,,,,,,,,,,,,0,,,67,127
54143,note_on,95,0,1,,,,,,,,,,,,,,,0,,,67,0
54144,note_on,1,0,1,,,,,,,,,,,,,,,0,,,68,127
54239,note_on,95,0,1,,,,,,,,,,,,,,,0,,,68,0
54239,note_on,0,0,1,,,,,,,,,,,,,,,0,,,56,0
54239,note_on,0,0,1,,,,,,,,,,,,,,,0,,,51,0
54239,note_on,0,0,1,,,,,,,,,,,,,,,0,,,60,0
54240,note_on,0,0,1,,,,,,,,,,,,,,,0,,,58,127
54240,note_on,0,0,1,,,,,,,,,,,,,,,0,,,51,127
54240,note_on,1,0,1,,,,,,,,,,,,,,,0,,,70,127
54240,note_on,0,0,1,,,,,,,,,,,,,,,0,,,55,127
54432,note_on,192,0,1,,,,,,,,,,,,,,,0,,,63,127
54528,note_on,96,0,1,,,,,,,,,,,,,,,0,,,70,0
54623,note_on,0,0,1,,,,,,,,,,,,,,,0,,,55,0
54623,note_on,0,0,1,,,,,,,,,,,,,,,0,,,63,0
54623,note_on,95,0,1,,,,,,,,,,,,,,,0,,,58,0
54623,note_on,0,0,1,,,,,,,,,,,,,,,0,,,51,0
54624,note_on,1,0,1,,,,,,,,,,,,,,,0,,,75,127
54624,note_on,0,0,1,,,,,,,,,,,,,,,0,,,51,127
54624,note_on,0,0,1,,,,,,,,,,,,,,,0,,,55,127
54624,note_on,0,0,1,,,,,,,,,,,,,,,0,,,58,127
54719,note_on,95,0,1,,,,,,,,,,,,,,,0,,,75,0
54720,note_on,1,0,1,,,,,,,,,,,,,,,0,,,73,127
54815,note_on,95,0,1,,,,,,,,,,,,,,,0,,,73,0
54816,note_on,1,0,1,,,,,,,,,,,,,,,0,,,72,127
54911,note_on,95,0,1,,,,,,,,,,,,,,,0,,,72,0
54912,note_on,1,0,1,,,,,,,,,,,,,,,0,,,70,127
55007,note_on,0,0,1,,,,,,,,,,,,,,,0,,,51,0
55007,note_on,95,0,1,,,,,,,,,,,,,,,0,,,70,0
55007,note_on,0,0,1,,,,,,,,,,,,,,,0,,,55,0
55007,note_on,0,0,1,,,,,,,,,,,,,,,0,,,58,0
55008,note_on,0,0,1,,,,,,,,,,,,,,,0,,,60,127
55008,note_on,1,0,1,,,,,,,,,,,,,,,0,,,70,127
55008,note_on,0,0,1,,,,,,,,,,,,,,,0,,,56,127
55008,note_on,0,0,1,,,,,,,,,,,,,,,0,,,51,127
55103,note_on,95,0,1,,,,,,,,,,,,,,,0,,,70,0
55104,note_on,1,0,1,,,,,,,,,,,,,,,0,,,68,127
55199,note_on,95,0,1,,,,,,,,,,,,,,,0,,,68,0
55200,note_on,1,0,1,,,,,,,,,,,,,,,0,,,67,127
55295,note_on,95,0,1,,,,,,,,,,,,,,,0,,,67,0
55296,note_on,1,0,1,,,,,,,,,,,,,,,0,,,68,127
55391,note_on,95,0,1,,,,,,,,,,,,,,,0,,,68,0
55391,note_on,0,0,1,,,,,,,,,,,,,,,0,,,51,0
55391,note_on,0,0,1,,,,,,,,,,,,,,,0,,,56,0
55391,note_on,0,0,1,,,,,,,,,,,,,,,0,,,60,0
55392,note_on,1,0,1,,,,,,,,,,,,,,,0,,,70,127
55392,note_on,0,0,1,,,,,,,,,,,,,,,0,,,58,127
55583,note_on,191,0,1,,,,,,,,,,,,,,,0,,,58,0
55584,note_on,1,0,1,,,,,,,,,,,,,,,0,,,51,127
55775,note_on,191,0,1,,,,,,,,,,,,,,,0,,,70,0
55776,note_on,0,0,1,,,,,,,,,,,,,,,0,,,70,127
55776,note_on,0,0,1,,,,,,,,,,,,,,,0,,,61,127
55776,note_on,1,0,1,,,,,,,,,,,,,,,0,,,67,127
55967,note_on,191,0,1,,,,,,,,,,,,,,,0,,,61,0
55968,note_on,1,0,1,,,,,,,,,,,,,,,0,,,60,127
56063,note_on,95,0,1,,,,,,,,,,,,,,,0,,,60,0
56064,note_on,1,0,1,,,,,,,,,,,,,,,0,,,58,127
56159,note_on,95,0,1,,,,,,,,,,,,,,,0,,,58,0
56159,note_on,0,0,1,,,,,,,,,,,,,,,0,,,70,0
56159,note_on,0,0,1,,,,,,,,,,,,,,,0,,,67,0
56160,note_on,1,0,1,,,,,,,,,,,,,,,0,,,68,127
56160,note_on,0,0,1,,,,,,,,,,,,,,,0,,,72,127
56160,note_on,0,0,1,,,,,,,,,,,,,,,0,,,58,127
56255,note_on,95,0,1,,,,,,,,,,,,,,,0,,,58,0
56256,note_on,1,0,1,,,,,,,,,,,,,,,0,,,56,127
56351,note_on,95,0,1,,,,,,,,,,,,,,,0,,,56,0
56352,note_on,1,0,1,,,,,,,,,,,,,,,0,,,55,127
56447,note_on,95,0,1,,,,,,,,,,,,,,,0,,,55,0
56448,note_on,1,0,1,,,,,,,,,,,,,,,0,,,56,127
56543,note_on,0,0,1,,,,,,,,,,,,,,,0,,,72,0
56543,note_on,0,0,1,,,,,,,,,,,,,,,0,,,68,0
56543,note_on,95,0,1,,,,,,,,,,,,,,,0,,,56,0
56544,note_on,1,0,1,,,,,,,,,,,,,,,0,,,70,127
56544,note_on,0,0,1,,,,,,,,,,,,,,,0,,,67,127
56544,note_on,0,0,1,,,,,,,,,,,,,,,0,,,58,127
56735,note_on,191,0,1,,,,,,,,,,,,,,,0,,,58,0
56735,note_on,0,0,1,,,,,,,,,,,,,,,0,,,51,0
56736,note_on,1,0,1,,,,,,,,,,,,,,,0,,,51,127
56927,note_on,191,0,1,,,,,,,,,,,,,,,0,,,67,0
56927,note_on,0,0,1,,,,,,,,,,,,,,,0,,,70,0
56928,note_on,1,0,1,,,,,,,,,,,,,,,0,,,70,127
56928,note_on,0,0,1,,,,,,,,,,,,,,,0,,,67,127
56928,note_on,0,0,1,,,,,,,,,,,,,,,0,,,61,127
57119,note_on,191,0,1,,,,,,,,,,,,,,,0,,,61,0
57120,note_on,1,0,1,,,,,,,,,,,,,,,0,,,60,127
57215,note_on,95,0,1,,,,,,,,,,,,,,,0,,,60,0
57216,note_on,1,0,1,,,,,,,,,,,,,,,0,,,58,127
57311,note_on,95,0,1,,,,,,,,,,,,,,,0,,,58,0
57311,note_on,0,0,1,,,,,,,,,,,,,,,0,,,67,0
57311,note_on,0,0,1,,,,,,,,,,,,,,,0,,,70,0
57312,note_on,1,0,1,,,,,,,,,,,,,,,0,,,72,127
57312,note_on,0,0,1,,,,,,,,,,,,,,,0,,,68,127
57312,note_on,0,0,1,,,,,,,,,,,,,,,0,,,58,127
57407,note_on,95,0,1,,,,,,,,,,,,,,,0,,,58,0
57408,note_on,1,0,1,,,,,,,,,,,,,,,0,,,56,127
57503,note_on,95,0,1,,,,,,,,,,,,,,,0,,,56,0
57504,note_on,1,0,1,,,,,,,,,,,,,,,0,,,55,127
57599,note_on,95,0,1,,,,,,,,,,,,,,,0,,,55,0
57600,note_on,1,0,1,,,,,,,,,,,,,,,0,,,56,127
57695,note_on,0,0,1,,,,,,,,,,,,,,,0,,,51,0
57695,note_on,0,0,1,,,,,,,,,,,,,,,0,,,68,0
57695,note_on,95,0,1,,,,,,,,,,,,,,,0,,,56,0
57695,note_on,0,0,1,,,,,,,,,,,,,,,0,,,72,0
57696,note_on,1,0,1,,,,,,,,,,,,,,,0,,,70,127
57696,note_on,0,0,1,,,,,,,,,,,,,,,0,,,58,127
57888,note_on,192,0,1,,,,,,,,,,,,,,,0,,,63,127
57984,note_on,96,0,1,,,,,,,,,,,,,,,0,,,70,0
58079,note_on,95,0,1,,,,,,,,,,,,,,,0,,,63,0
58080,note_on,1,0,1,,,,,,,,,,,,,,,0,,,77,127
58175,note_on,95,0,1,,,,,,,,,,,,,,,0,,,77,0
58176,note_on,1,0,1,,,,,,,,,,,,,,,0,,,75,127
58271,note_on,95,0,1,,,,,,,,,,,,,,,0,,,75,0
58272,note_on,1,0,1,,,,,,,,,,,,,,,0,,,73,127
58367,note_on,95,0,1,,,,,,,,,,,,,,,0,,,73,0
58368,note_on,1,0,1,,,,,,,,,,,,,,,0,,,72,127
58376,note_on,8,0,1,,,,,,,,,,,,,,,0,,,58,0
58463,note_on,87,0,1,,,,,,,,,,,,,,,0,,,72,0
58464,note_on,1,0,1,,,,,,,,,,,,,,,0,,,72,127
58464,note_on,0,0,1,,,,,,,,,,,,,,,0,,,54,127
58559,note_on,95,0,1,,,,,,,,,,,,,,,0,,,72,0
58560,note_on,1,0,1,,,,,,,,,,,,,,,0,,,70,127
58655,note_on,95,0,1,,,,,,,,,,,,,,,0,,,70,0
58656,note_on,1,0,1,,,,,,,,,,,,,,,0,,,69,127
58751,note_on,95,0,1,,,,,,,,,,,,,,,0,,,69,0
58752,note_on,1,0,1,,,,,,,,,,,,,,,0,,,70,127
58847,note_on,95,0,1,,,,,,,,,,,,,,,0,,,70,0
58847,note_on,0,0,1,,,,,,,,,,,,,,,0,,,54,0
58848,note_on,0,0,1,,,,,,,,,,,,,,,0,,,57,127
58848,note_on,1,0,1,,,,,,,,,,,,,,,0,,,72,127
58848,note_on,0,0,1,,,,,,,,,,,,,,,0,,,53,127
59040,note_on,192,0,1,,,,,,,,,,,,,,,0,,,65,127
59231,note_on,191,0,1,,,,,,,,,,,,,,,0,,,65,0
59231,note_on,0,0,1,,,,,,,,,,,,,,,0,,,72,0
59231,note_on,0,0,1,,,,,,,,,,,,,,,0,,,53,0
59231,note_on,0,0,1,,,,,,,,,,,,,,,0,,,57,0
59232,note_on,1,0,1,,,,,,,,,,,,,,,0,,,77,127
59232,note_on,0,0,1,,,,,,,,,,,,,,,0,,,53,127
59232,note_on,0,0,1,,,,,,,,,,,,,,,0,,,57,127
59232,note_on,0,0,1,,,,,,,,,,,,,,,0,,,60,127
59327,note_on,95,0,1,,,,,,,,,,,,,,,0,,,77,0
59328,note_on,1,0,1,,,,,,,,,,,,,,,0,,,75,127
59423,note_on,95,0,1,,,,,,,,,,,,,,,0,,,75,0
59424,note_on,1,0,1,,,,,,,,,,,,,,,0,,,73,127
59519,note_on,95,0,1,,,,,,,,,,,,,,,0,,,73,0
59520,note_on,1,0,1,,,,,,,,,,,,,,,0,,,72,127
59615,note_on,0,0,1,,,,,,,,,,,,,,,0,,,60,0
59615,note_on,95,0,1,,,,,,,,,,,,,,,0,,,72,0
59615,note_on,0,0,1,,,,,,,,,,,,,,,0,,,53,0
59615,note_on,0,0,1,,,,,,,,,,,,,,,0,,,57,0
59616,note_on,1,0,1,,,,,,,,,,,,,,,0,,,72,127
59616,note_on,0,0,1,,,,,,,,,,,,,,,0,,,61,127
59616,note_on,0,0,1,,,,,,,,,,,,,,,0,,,53,127
59616,note_on,0,0,1,,,,,,,,,,,,,,,0,,,58,127
59711,note_on,95,0,1,,,,,,,,,,,,,,,0,,,72,0
59712,note_on,1,0,1,,,,,,,,,,,,,,,0,,,70,127
59807,note_on,95,0,1,,,,,,,,,,,,,,,0,,,70,0
59808,note_on,1,0,1,,,,,,,,,,,,,,,0,,,69,127
59903,note_on,95,0,1,,,,,,,,,,,,,,,0,,,69,0
59904,note_on,1,0,1,,,,,,,,,,,,,,,0,,,70,127
59999,note_on,0,0,1,,,,,,,,,,,,,,,0,,,61,0
59999,note_on,0,0,1,,,,,,,,,,,,,,,0,,,58,0
59999,note_on,95,0,1,,,,,,,,,,,,,,,0,,,70,0
59999,note_on,0,0,1,,,,,,,,,,,,,,,0,,,53,0
60000,note_on,1,0,1,,,,,,,,,,,,,,,0,,,72,127
60000,note_on,0,0,1,,,,,,,,,,,,,,,0,,,53,127
60000,note_on,0,0,1,,,,,,,,,,,,,,,0,,,60,127
60191,note_on,191,0,1,,,,,,,,,,,,,,,0,,,60,0
60191,note_on,0,0,1,,,,,,,,,,,,,,,0,,,53,0
60192,note_on,1,0,1,,,,,,,,,,,,,,,0,,,53,127
60383,note_on,191,0,1,,,,,,,,,,,,,,,0,,,72,0
60384,note_on,0,0,1,,,,,,,,,,,,,,,0,,,72,127
60384,note_on,0,0,1,,,,,,,,,,,,,,,0,,,63,127
60384,note_on,1,0,1,,,,,,,,,,,,,,,0,,,69,127
60575,note_on,191,0,1,,,,,,,,,,,,,,,0,,,63,0
60576,note_on,1,0,1,,,,,,,,,,,,,,,0,,,61,127
60671,note_on,95,0,1,,,,,,,,,,,,,,,0,,,61,0
60672,note_on,1,0,1,,,,,,,,,,,,,,,0,,,60,127
60767,note_on,0,0,1,,,,,,,,,,,,,,,0,,,69,0
60767,note_on,95,0,1,,,,,,,,,,,,,,,0,,,60,0
60767,note_on,0,0,1,,,,,,,,,,,,,,,0,,,72,0
60768,note_on,1,0,1,,,,,,,,,,,,,,,0,,,73,127
60768,note_on,0,0,1,,,,,,,,,,,,,,,0,,,70,127
60768,note_on,0,0,1,,,,,,,,,,,,,,,0,,,60,127
60863,note_on,95,0,1,,,,,,,,,,,,,,,0,,,60,0
60864,note_on,1,0,1,,,,,,,,,,,,,,,0,,,58,127
60959,note_on,95,0,1,,,,,,,,,,,,,,,0,,,58,0
60960,note_on,1,0,1,,,,,,,,,,,,,,,0,,,57,127
61055,note_on,95,0,1,,,,,,,,,,,,,,,0,,,57,0
61056,note_on,1,0,1,,,,,,,,,,,,,,,0,,,58,127
61151,note_on,95,0,1,,,,,,,,,,,,,,,0,,,58,0
61151,note_on,0,0,1,,,,,,,,,,,,,,,0,,,70,0
61151,note_on,0,0,1,,,,,,,,,,,,,,,0,,,73,0
61152,note_on,1,0,1,,,,,,,,,,,,,,,0,,,72,127
61152,note_on,0,0,1,,,,,,,,,,,,,,,0,,,69,127
61152,note_on,0,0,1,,,,,,,,,,,,,,,0,,,60,127
61343,note_on,191,0,1,,,,,,,,,,,,,,,0,,,60,0
61343,note_on,0,0,1,,,,,,,,,,,,,,,0,,,53,0
61344,note_on,1,0,1,,,,,,,,,,,,,,,0,,,53,127
61535,note_on,191,0,1,,,,,,,,,,,,,,,0,,,69,0
61535,note_on,0,0,1,,,,,,,,,,,,,,,0,,,72,0
61536,note_on,0,0,1,,,,,,,,,,,,,,,0,,,63,127
61536,note_on,0,0,1,,,,,,,,,,,,,,,0,,,72,127
61536,note_on,1,0,1,,,,,,,,,,,,,,,0,,,69,127
61727,note_on,191,0,1,,,,,,,,,,,,,,,0,,,63,0
61728,note_on,1,0,1,,,,,,,,,,,,,,,0,,,61,127
61823,note_on,95,0,1,,,,,,,,,,,,,,,0,,,61,0
61824,note_on,1,0,1,,,,,,,,,,,,,,,0,,,60,127
61919,note_on,95,0,1,,,,,,,,,,,,,,,0,,,60,0
61919,note_on,0,0,1,,,,,,,,,,,,,,,0,,,72,0
61919,note_on,0,0,1,,,,,,,,,,,,,,,0,,,69,0
61920,note_on,1,0,1,,,,,,,,,,,,,,,0,,,70,127
61920,note_on,0,0,1,,,,,,,,,,,,,,,0,,,73,127
61920,note_on,0,0,1,,,,,,,,,,,,,,,0,,,60,127
62015,note_on,95,0,1,,,,,,,,,,,,,,,0,,,60,0
62016,note_on,1,0,1,,,,,,,,,,,,,,,0,,,58,127
62111,note_on,95,0,1,,,,,,,,,,,,,,,0,,,58,0
62112,note_on,1,0,1,,,,,,,,,,,,,,,0,,,57,127
62207,note_on,95,0,1,,,,,,,,,,,,,,,0,,,57,0
62208,note_on,1,0,1,,,,,,,,,,,,,,,0,,,58,127
62303,note_on,95,0,1,,,,,,,,,,,,,,,0,,,58,0
62303,note_on,0,0,1,,,,,,,,,,,,,,,0,,,73,0
62303,note_on,0,0,1,,,,,,,,,,,,,,,0,,,70,0
62304,note_on,1,0,1,,,,,,,,,,,,,,,0,,,72,127
62304,note_on,0,0,1,,,,,,,,,,,,,,,0,,,60,127
62495,note_on,191,0,1,,,,,,,,,,,,,,,0,,,53,0
62496,note_on,1,0,1,,,,,,,,,,,,,,,0,,,65,127
62687,note_on,191,0,1,,,,,,,,,,,,,,,0,,,65,0
62687,note_on,0,0,1,,,,,,,,,,,,,,,0,,,60,0
62687,note_on,0,0,1,,,,,,,,,,,,,,,0,,,72,0
62688,note_on,1,0,1,,,,,,,,,,,,,,,0,,,77,127
62688,note_on,0,0,1,,,,,,,,,,,,,,,0,,,60,127
62688,note_on,0,0,1,,,,,,,,,,,,,,,0,,,53,127
62688,note_on,0,0,1,,,,,,,,,,,,,,,0,,,57,127
62783,note_on,95,0,1,,,,,,,,,,,,,,,0,,,77,0
62784,note_on,1,0,1,,,,,,,,,,,,,,,0,,,75,127
62879,note_on,95,0,1,,,,,,,,,,,,,,,0,,,75,0
62880,note_on,1,0,1,,,,,,,,,,,,,,,0,,,73,127
62975,note_on,95,0,1,,,,,,,,,,,,,,,0,,,73,0
62976,note_on,1,0,1,,,,,,,,,,,,,,,0,,,72,127
63071,note_on,95,0,1,,,,,,,,,,,,,,,0,,,72,0
63071,note_on,0,0,1,,,,,,,,,,,,,,,0,,,57,0
63071,note_on,0,0,1,,,,,,,,,,,,,,,0,,,53,0
63071,note_on,0,0,1,,,,,,,,,,,,,,,0,,,60,0
63072,note_on,1,0,1,,,,,,,,,,,,,,,0,,,72,127
63072,note_on,0,0,1,,,,,,,,,,,,,,,0,,,58,127
63072,note_on,0,0,1,,,,,,,,,,,,,,,0,,,61,127
63072,note_on,0,0,1,,,,,,,,,,,,,,,0,,,53,127
63167,note_on,95,0,1,,,,,,,,,,,,,,,0,,,72,0
63168,note_on,1,0,1,,,,,,,,,,,,,,,0,,,70,127
63263,note_on,95,0,1,,,,,,,,,,,,,,,0,,,70,0
63264,note_on,1,0,1,,,,,,,,,,,,,,,0,,,69,127
63359,note_on,95,0,1,,,,,,,,,,,,,,,0,,,69,0
63360,note_on,1,0,1,,,,,,,,,,,,,,,0,,,70,127
63455,note_on,0,0,1,,,,,,,,,,,,,,,0,,,61,0
63455,note_on,95,0,1,,,,,,,,,,,,,,,0,,,70,0
63455,note_on,0,0,1,,,,,,,,,,,,,,,0,,,53,0
63455,note_on,0,0,1,,,,,,,,,,,,,,,0,,,58,0
63456,note_on,0,0,1,,,,,,,,,,,,,,,0,,,58,127
63456,note_on,1,0,1,,,,,,,,,,,,,,,0,,,79,127
63456,note_on,0,0,1,,,,,,,,,,,,,,,0,,,52,127
63456,note_on,0,0,1,,,,,,,,,,,,,,,0,,,60,127
63648,note_on,192,0,1,,,,,,,,,,,,,,,0,,,67,127
63839,note_on,0,0,1,,,,,,,,,,,,,,,0,,,79,0
63839,note_on,0,0,1,,,,,,,,,,,,,,,0,,,58,0
63839,note_on,0,0,1,,,,,,,,,,,,,,,0,,,52,0
63839,note_on,0,0,1,,,,,,,,,,,,,,,0,,,60,0
63839,note_on,191,0,1,,,,,,,,,,,,,,,0,,,67,0
63840,note_on,1,0,1,,,,,,,,,,,,,,,0,,,68,127
63840,note_on,0,0,1,,,,,,,,,,,,,,,0,,,53,127
64032,note_on,192,0,1,,,,,,,,,,,,,,,0,,,72,127
64223,note_on,191,0,1,,,,,,,,,,,,,,,0,,,72,0
64223,note_on,0,0,1,,,,,,,,,,,,,,,0,,,53,0
64224,note_on,1,0,1,,,,,,,,,,,,,,,0,,,73,127
64224,note_on,0,0,1,,,,,,,,,,,,,,,0,,,49,127
64415,note_on,191,0,1,,,,,,,,,,,,,,,0,,,68,0
64416,note_on,1,0,1,,,,,,,,,,,,,,,0,,,65,127
64607,note_on,0,0,1,,,,,,,,,,,,,,,0,,,49,0
64607,note_on,191,0,1,,,,,,,,,,,,,,,0,,,65,0
64608,note_on,1,0,1,,,,,,,,,,,,,,,0,,,67,127
64608,note_on,0,0,1,,,,,,,,,,,,,,,0,,,51,127
64799,note_on,191,0,1,,,,,,,,,,,,,,,0,,,67,0
64800,note_on,1,0,1,,,,,,,,,,,,,,,0,,,70,127
64991,note_on,191,0,1,,,,,,,,,,,,,,,0,,,70,0
64991,note_on,0,0,1,,,,,,,,,,,,,,,0,,,51,0
64992,note_on,1,0,1,,,,,,,,,,,,,,,0,,,68,127
64992,note_on,0,0,1,,,,,,,,,,,,,,,0,,,56,127
65183,note_on,191,0,1,,,,,,,,,,,,,,,0,,,73,0
65184,note_on,1,0,1,,,,,,,,,,,,,,,0,,,75,127
65375,note_on,191,0,1,,,,,,,,,,,,,,,0,,,75,0
65375,note_on,0,0,1,,,,,,,,,,,,,,,0,,,56,0
65376,note_on,1,0,1,,,,,,,,,,,,,,,0,,,74,127
65376,note_on,0,0,1,,,,,,,,,,,,,,,0,,,58,127
65376,note_on,0,0,1,,,,,,,,,,,,,,,0,,,46,127
65567,note_on,191,0,1,,,,,,,,,,,,,,,0,,,68,0
65568,note_on,1,0,1,,,,,,,,,,,,,,,0,,,65,127
65759,note_on,0,0,1,,,,,,,,,,,,,,,0,,,46,0
65759,note_on,191,0,1,,,,,,,,,,,,,,,0,,,65,0
65759,note_on,0,0,1,,,,,,,,,,,,,,,0,,,74,0
65759,note_on,0,0,1,,,,,,,,,,,,,,,0,,,58,0
65760,note_on,1,0,1,,,,,,,,,,,,,,,0,,,68,127
65760,note_on,0,0,1,,,,,,,,,,,,,,,0,,,51,127
65807,note_on,47,0,1,,,,,,,,,,,,,,,0,,,68,0
65808,note_on,1,0,1,,,,,,,,,,,,,,,0,,,67,127
65855,note_on,47,0,1,,,,,,,,,,,,,,,0,,,67,0
65856,note_on,1,0,1,,,,,,,,,,,,,,,0,,,68,127
65903,note_on,47,0,1,,,,,,,,,,,,,,,0,,,68,0
65904,note_on,1,0,1,,,,,,,,,,,,,,,0,,,67,127
65951,note_on,47,0,1,,,,,,,,,,,,,,,0,,,67,0
65952,note_on,1,0,1,,,,,,,,,,,,,,,0,,,75,127
66143,note_on,191,0,1,,,,,,,,,,,,,,,0,,,75,0
66143,note_on,0,0,1,,,,,,,,,,,,,,,0,,,51,0
66144,note_on,0,0,1,,,,,,,,,,,,,,,0,,,53,127
66144,note_on,1,0,1,,,,,,,,,,,,,,,0,,,70,127
66191,note_on,47,0,1,,,,,,,,,,,,,,,0,,,70,0
66192,note_on,1,0,1,,,,,,,,,,,,,,,0,,,68,127
66239,note_on,47,0,1,,,,,,,,,,,,,,,0,,,68,0
66240,note_on,1,0,1,,,,,,,,,,,,,,,0,,,70,127
66287,note_on,47,0,1,,,,,,,,,,,,,,,0,,,70,0
66288,note_on,1,0,1,,,,,,,,,,,,,,,0,,,68,127
66335,note_on,47,0,1,,,,,,,,,,,,,,,0,,,68,0
66336,note_on,1,0,1,,,,,,,,,,,,,,,0,,,77,127
66527,note_on,191,0,1,,,,,,,,,,,,,,,0,,,77,0
66527,note_on,0,0,1,,,,,,,,,,,,,,,0,,,53,0
66528,note_on,1,0,1,,,,,,,,,,,,,,,0,,,72,127
66528,note_on,0,0,1,,,,,,,,,,,,,,,0,,,55,127
66575,note_on,47,0,1,,,,,,,,,,,,,,,0,,,72,0
66576,note_on,1,0,1,,,,,,,,,,,,,,,0,,,70,127
66623,note_on,47,0,1,,,,,,,,,,,,,,,0,,,70,0
66624,note_on,1,0,1,,,,,,,,,,,,,,,0,,,72,127
66671,note_on,47,0,1,,,,,,,,,,,,,,,0,,,72,0
66672,note_on,1,0,1,,,,,,,,,,,,,,,0,,,70,127
66719,note_on,47,0,1,,,,,,,,,,,,,,,0,,,70,0
66720,note_on,1,0,1,,,,,,,,,,,,,,,0,,,79,127
66911,note_on,191,0,1,,,,,,,,,,,,,,,0,,,79,0
66911,note_on,0,0,1,,,,,,,,,,,,,,,0,,,55,0
66912,note_on,0,0,1,,,,,,,,,,,,,,,0,,,56,127
66912,note_on,1,0,1,,,,,,,,,,,,,,,0,,,72,127
67104,note_on,192,0,1,,,,,,,,,,,,,,,0,,,84,127
67295,note_on,191,0,1,,,,,,,,,,,,,,,0,,,56,0
67295,note_on,0,0,1,,,,,,,,,,,,,,,0,,,72,0
67296,note_on,1,0,1,,,,,,,,,,,,,,,0,,,58,127
67391,note_on,95,0,1,,,,,,,,,,,,,,,0,,,84,0
67392,note_on,1,0,1,,,,,,,,,,,,,,,0,,,82,127
67487,note_on,95,0,1,,,,,,,,,,,,,,,0,,,82,0
67488,note_on,1,0,1,,,,,,,,,,,,,,,0,,,80,127
67583,note_on,95,0,1,,,,,,,,,,,,,,,0,,,80,0
67584,note_on,1,0,1,,,,,,,,,,,,,,,0,,,79,127
67679,note_on,95,0,1,,,,,,,,,,,,,,,0,,,79,0
67679,note_on,0,0,1,,,,,,,,,,,,,,,0,,,58,0
67680,note_on,0,0,1,,,,,,,,,,,,,,,0,,,60,127
67680,note_on,1,0,1,,,,,,,,,,,,,,,0,,,77,127
67775,note_on,95,0,1,,,,,,,,,,,,,,,0,,,77,0
67776,note_on,1,0,1,,,,,,,,,,,,,,,0,,,75,127
67871,note_on,95,0,1,,,,,,,,,,,,,,,0,,,75,0
67872,note_on,1,0,1,,,,,,,,,,,,,,,0,,,74,127
67967,note_on,95,0,1,,,,,,,,,,,,,,,0,,,74,0
67968,note_on,1,0,1,,,,,,,,,,,,,,,0,,,75,127
68063,note_on,95,0,1,,,,,,,,,,,,,,,0,,,75,0
68063,note_on,0,0,1,,,,,,,,,,,,,,,0,,,60,0
68064,note_on,1,0,1,,,,,,,,,,,,,,,0,,,77,127
68064,note_on,0,0,1,,,,,,,,,,,,,,,0,,,58,127
68255,note_on,191,0,1,,,,,,,,,,,,,,,0,,,77,0
68256,note_on,1,0,1,,,,,,,,,,,,,,,0,,,75,127
68447,note_on,191,0,1,,,,,,,,,,,,,,,0,,,75,0
68447,note_on,0,0,1,,,,,,,,,,,,,,,0,,,58,0
68448,note_on,0,0,1,,,,,,,,,,,,,,,0,,,46,127
68448,note_on,1,0,1,,,,,,,,,,,,,,,0,,,75,127
68495,note_on,47,0,1,,,,,,,,,,,,,,,0,,,75,0
68496,note_on,1,0,1,,,,,,,,,,,,,,,0,,,74,127
68543,note_on,47,0,1,,,,,,,,,,,,,,,0,,,74,0
68544,note_on,1,0,1,,,,,,,,,,,,,,,0,,,75,127
68591,note_on,47,0,1,,,,,,,,,,,,,,,0,,,75,0
68592,note_on,1,0,1,,,,,,,,,,,,,,,0,,,74,127
68735,note_on,143,0,1,,,,,,,,,,,,,,,0,,,74,0
68736,note_on,1,0,1,,,,,,,,,,,,,,,0,,,72,127
68831,note_on,95,0,1,,,,,,,,,,,,,,,0,,,72,0
68832,note_on,1,0,1,,,,,,,,,,,,,,,0,,,70,127
69215,note_on,383,0,1,,,,,,,,,,,,,,,0,,,70,0
69215,note_on,0,0,1,,,,,,,,,,,,,,,0,,,46,0
69216,note_on,1,0,1,,,,,,,,,,,,,,,0,,,86,127
69311,note_on,95,0,1,,,,,,,,,,,,,,,0,,,86,0
69312,note_on,1,0,1,,,,,,,,,,,,,,,0,,,80,127
69407,note_on,95,0,1,,,,,,,,,,,,,,,0,,,80,0
69408,note_on,1,0,1,,,,,,,,,,,,,,,0,,,77,127
69503,note_on,95,0,1,,,,,,,,,,,,,,,0,,,77,0
69504,note_on,1,0,1,,,,,,,,,,,,,,,0,,,74,127
69599,note_on,95,0,1,,,,,,,,,,,,,,,0,,,74,0
69600,note_on,1,0,1,,,,,,,,,,,,,,,0,,,68,127
69695,note_on,95,0,1,,,,,,,,,,,,,,,0,,,68,0
69696,note_on,1,0,1,,,,,,,,,,,,,,,0,,,65,127
69791,note_on,95,0,1,,,,,,,,,,,,,,,0,,,65,0
69792,note_on,1,0,1,,,,,,,,,,,,,,,0,,,62,127
69887,note_on,95,0,1,,,,,,,,,,,,,,,0,,,62,0
69888,note_on,1,0,1,,,,,,,,,,,,,,,0,,,56,127
69983,note_on,95,0,1,,,,,,,,,,,,,,,0,,,56,0
69984,note_on,1,0,1,,,,,,,,,,,,,,,0,,,53,127
70079,note_on,95,0,1,,,,,,,,,,,,,,,0,,,53,0
70080,note_on,1,0,1,,,,,,,,,,,,,,,0,,,50,127
70175,note_on,95,0,1,,,,,,,,,,,,,,,0,,,50,0
70176,note_on,1,0,1,,,,,,,,,,,,,,,0,,,46,127
70271,note_on,95,0,1,,,,,,,,,,,,,,,0,,,46,0
70272,note_on,1,0,1,,,,,,,,,,,,,,,0,,,41,127
70367,note_on,95,0,1,,,,,,,,,,,,,,,0,,,41,0
70368,note_on,1,0,1,,,,,,,,,,,,,,,0,,,34,127
70751,note_on,383,0,1,,,,,,,,,,,,,,,0,,,34,0
70752,note_on,0,0,1,,,,,,,,,,,,,,,0,,,46,127
70752,note_on,1,0,1,,,,,,,,,,,,,,,0,,,77,127
70943,note_on,191,0,1,,,,,,,,,,,,,,,0,,,77,0
70944,note_on,1,0,1,,,,,,,,,,,,,,,0,,,70,127
71135,note_on,0,0,1,,,,,,,,,,,,,,,0,,,46,0
71135,note_on,191,0,1,,,,,,,,,,,,,,,0,,,70,0
71136,note_on,0,0,1,,,,,,,,,,,,,,,0,,,50,127
71136,note_on,1,0,1,,,,,,,,,,,,,,,0,,,84,127
71136,note_on,0,0,1,,,,,,,,,,,,,,,0,,,38,127
71327,note_on,191,0,1,,,,,,,,,,,,,,,0,,,84,0
71328,note_on,1,0,1,,,,,,,,,,,,,,,0,,,82,127
71423,note_on,95,0,1,,,,,,,,,,,,,,,0,,,82,0
71424,note_on,1,0,1,,,,,,,,,,,,,,,0,,,80,127
71519,note_on,0,0,1,,,,,,,,,,,,,,,0,,,50,0
71519,note_on,0,0,1,,,,,,,,,,,,,,,0,,,38,0
71519,note_on,95,0,1,,,,,,,,,,,,,,,0,,,80,0
71520,note_on,1,0,1,,,,,,,,,,,,,,,0,,,80,127
71520,note_on,0,0,1,,,,,,,,,,,,,,,0,,,39,127
71520,note_on,0,0,1,,,,,,,,,,,,,,,0,,,51,127
71615,note_on,95,0,1,,,,,,,,,,,,,,,0,,,80,0
71616,note_on,1,0,1,,,,,,,,,,,,,,,0,,,79,127
71711,note_on,95,0,1,,,,,,,,,,,,,,,0,,,79,0
71712,note_on,1,0,1,,,,,,,,,,,,,,,0,,,77,127
71807,note_on,95,0,1,,,,,,,,,,,,,,,0,,,77,0
71808,note_on,1,0,1,,,,,,,,,,,,,,,0,,,75,127
71903,note_on,0,0,1,,,,,,,,,,,,,,,0,,,39,0
71903,note_on,95,0,1,,,,,,,,,,,,,,,0,,,75,0
71903,note_on,0,0,1,,,,,,,,,,,,,,,0,,,51,0
71904,note_on,1,0,1,,,,,,,,,,,,,,,0,,,77,127
71904,note_on,0,0,1,,,,,,,,,,,,,,,0,,,44,127
71904,note_on,0,0,1,,,,,,,,,,,,,,,0,,,56,127
72096,note_on,192,0,1,,,,,,,,,,,,,,,0,,,72,127
72192,note_on,96,0,1,,,,,,,,,,,,,,,0,,,77,0
72287,note_on,95,0,1,,,,,,,,,,,,,,,0,,,44,0
72287,note_on,0,0,1,,,,,,,,,,,,,,,0,,,56,0
72287,note_on,0,0,1,,,,,,,,,,,,,,,0,,,72,0
72288,note_on,0,0,1,,,,,,,,,,,,,,,0,,,46,127
72288,note_on,0,0,1,,,,,,,,,,,,,,,0,,,58,127
72288,note_on,1,0,1,,,,,,,,,,,,,,,0,,,75,127
72335,note_on,47,0,1,,,,,,,,,,,,,,,0,,,75,0
72336,note_on,1,0,1,,,,,,,,,,,,,,,0,,,74,127
72383,note_on,47,0,1,,,,,,,,,,,,,,,0,,,74,0
72384,note_on,1,0,1,,,,,,,,,,,,,,,0,,,75,127
72431,note_on,47,0,1,,,,,,,,,,,,,,,0,,,75,0
72432,note_on,1,0,1,,,,,,,,,,,,,,,0,,,74,127
72479,note_on,47,0,1,,,,,,,,,,,,,,,0,,,74,0
72480,note_on,1,0,1,,,,,,,,,,,,,,,0,,,72,127
72527,note_on,47,0,1,,,,,,,,,,,,,,,0,,,72,0
72528,note_on,1,0,1,,,,,,,,,,,,,,,0,,,74,127
72575,note_on,47,0,1,,,,,,,,,,,,,,,0,,,74,0
72576,note_on,1,0,1,,,,,,,,,,,,,,,0,,,75,127
72623,note_on,47,0,1,,,,,,,,,,,,,,,0,,,75,0
72624,note_on,1,0,1,,,,,,,,,,,,,,,0,,,77,127
72671,note_on,47,0,1,,,,,,,,,,,,,,,0,,,77,0
72671,note_on,0,0,1,,,,,,,,,,,,,,,0,,,58,0
72671,note_on,0,0,1,,,,,,,,,,,,,,,0,,,46,0
72672,note_on,1,0,1,,,,,,,,,,,,,,,0,,,75,127
72672,note_on,0,0,1,,,,,,,,,,,,,,,0,,,48,127
72864,note_on,192,0,1,,,,,,,,,,,,,,,0,,,63,127
73144,note_on,280,0,1,,,,,,,,,,,,,,,0,,,48,0
73152,note_on,8,0,1,,,,,,,,,,,,,,,0,,,51,127
73199,note_on,47,0,1,,,,,,,,,,,,,,,0,,,51,0
73200,note_on,1,0,1,,,,,,,,,,,,,,,0,,,53,127
73247,note_on,47,0,1,,,,,,,,,,,,,,,0,,,53,0
73248,note_on,1,0,1,,,,,,,,,,,,,,,0,,,55,127
73295,note_on,47,0,1,,,,,,,,,,,,,,,0,,,55,0
73296,note_on,1,0,1,,,,,,,,,,,,,,,0,,,57,127
73343,note_on,47,0,1,,,,,,,,,,,,,,,0,,,57,0
73344,note_on,1,0,1,,,,,,,,,,,,,,,0,,,58,127
73391,note_on,47,0,1,,,,,,,,,,,,,,,0,,,58,0
73392,note_on,1,0,1,,,,,,,,,,,,,,,0,,,57,127
73439,note_on,47,0,1,,,,,,,,,,,,,,,0,,,63,0
73680,note_on,241,0,1,,,,,,,,,,,,,,,0,,,63,127
73727,note_on,47,0,1,,,,,,,,,,,,,,,0,,,63,0
73728,note_on,1,0,1,,,,,,,,,,,,,,,0,,,65,127
73775,note_on,47,0,1,,,,,,,,,,,,,,,0,,,65,0
73776,note_on,1,0,1,,,,,,,,,,,,,,,0,,,67,127
73823,note_on,47,0,1,,,,,,,,,,,,,,,0,,,67,0
73824,note_on,1,0,1,,,,,,,,,,,,,,,0,,,69,127
73871,note_on,47,0,1,,,,,,,,,,,,,,,0,,,69,0
73872,note_on,1,0,1,,,,,,,,,,,,,,,0,,,70,127
73919,note_on,47,0,1,,,,,,,,,,,,,,,0,,,70,0
73920,note_on,1,0,1,,,,,,,,,,,,,,,0,,,69,127
73929,note_on,9,0,1,,,,,,,,,,,,,,,0,,,57,0
74112,note_on,183,0,1,,,,,,,,,,,,,,,0,,,51,127
74207,note_on,95,0,1,,,,,,,,,,,,,,,0,,,51,0
74208,note_on,0,0,1,,,,,,,,,,,,,,,0,,,50,127
74208,note_on,1,0,1,,,,,,,,,,,,,,,0,,,75,0
74303,note_on,95,0,1,,,,,,,,,,,,,,,0,,,50,0
74303,note_on,0,0,1,,,,,,,,,,,,,,,0,,,69,0
74304,note_on,1,0,1,,,,,,,,,,,,,,,0,,,48,127
74399,note_on,95,0,1,,,,,,,,,,,,,,,0,,,48,0
74400,note_on,1,0,1,,,,,,,,,,,,,,,0,,,46,127
74496,note_on,96,0,1,,,,,,,,,,,,,,,0,,,50,127
74543,note_on,47,0,1,,,,,,,,,,,,,,,0,,,50,0
74544,note_on,1,0,1,,,,,,,,,,,,,,,0,,,51,127
74591,note_on,47,0,1,,,,,,,,,,,,,,,0,,,51,0
74592,note_on,1,0,1,,,,,,,,,,,,,,,0,,,53,127
74639,note_on,47,0,1,,,,,,,,,,,,,,,0,,,53,0
74640,note_on,1,0,1,,,,,,,,,,,,,,,0,,,55,127
74687,note_on,47,0,1,,,,,,,,,,,,,,,0,,,55,0
74688,note_on,1,0,1,,,,,,,,,,,,,,,0,,,57,127
74735,note_on,47,0,1,,,,,,,,,,,,,,,0,,,57,0
74736,note_on,1,0,1,,,,,,,,,,,,,,,0,,,58,127
74784,note_on,48,0,1,,,,,,,,,,,,,,,0,,,60,127
74831,note_on,47,0,1,,,,,,,,,,,,,,,0,,,60,0
74832,note_on,1,0,1,,,,,,,,,,,,,,,0,,,62,127
74879,note_on,47,0,1,,,,,,,,,,,,,,,0,,,62,0
74880,note_on,1,0,1,,,,,,,,,,,,,,,0,,,63,127
74927,note_on,47,0,1,,,,,,,,,,,,,,,0,,,63,0
74928,note_on,1,0,1,,,,,,,,,,,,,,,0,,,65,127
74975,note_on,47,0,1,,,,,,,,,,,,,,,0,,,65,0
74976,note_on,1,0,1,,,,,,,,,,,,,,,0,,,67,127
75023,note_on,47,0,1,,,,,,,,,,,,,,,0,,,67,0
75024,note_on,1,0,1,,,,,,,,,,,,,,,0,,,69,127
75071,note_on,47,0,1,,,,,,,,,,,,,,,0,,,69,0
75072,note_on,1,0,1,,,,,,,,,,,,,,,0,,,70,127
75263,note_on,191,0,1,,,,,,,,,,,,,,,0,,,70,0
75264,note_on,1,0,1,,,,,,,,,,,,,,,0,,,72,127
75359,note_on,95,0,1,,,,,,,,,,,,,,,0,,,72,0
75360,note_on,1,0,1,,,,,,,,,,,,,,,0,,,70,127
75408,note_on,48,0,1,,,,,,,,,,,,,,,0,,,74,127
75455,note_on,47,0,1,,,,,,,,,,,,,,,0,,,74,0
75456,note_on,1,0,1,,,,,,,,,,,,,,,0,,,72,127
75503,note_on,47,0,1,,,,,,,,,,,,,,,0,,,72,0
75504,note_on,1,0,1,,,,,,,,,,,,,,,0,,,75,127
75551,note_on,47,0,1,,,,,,,,,,,,,,,0,,,75,0
75552,note_on,1,0,1,,,,,,,,,,,,,,,0,,,74,127
75599,note_on,47,0,1,,,,,,,,,,,,,,,0,,,74,0
75600,note_on,1,0,1,,,,,,,,,,,,,,,0,,,77,127
75647,note_on,47,0,1,,,,,,,,,,,,,,,0,,,77,0
75648,note_on,1,0,1,,,,,,,,,,,,,,,0,,,76,127
75695,note_on,47,0,1,,,,,,,,,,,,,,,0,,,76,0
75696,note_on,1,0,1,,,,,,,,,,,,,,,0,,,79,127
75743,note_on,0,0,1,,,,,,,,,,,,,,,0,,,70,0
75743,note_on,47,0,1,,,,,,,,,,,,,,,0,,,79,0
75744,note_on,1,0,1,,,,,,,,,,,,,,,0,,,79,127
75791,note_on,47,0,1,,,,,,,,,,,,,,,0,,,79,0
75792,note_on,1,0,1,,,,,,,,,,,,,,,0,,,77,127
75839,note_on,47,0,1,,,,,,,,,,,,,,,0,,,77,0
75840,note_on,1,0,1,,,,,,,,,,,,,,,0,,,79,127
75887,note_on,47,0,1,,,,,,,,,,,,,,,0,,,79,0
75888,note_on,1,0,1,,,,,,,,,,,,,,,0,,,77,127
75935,note_on,47,0,1,,,,,,,,,,,,,,,0,,,77,0
75936,note_on,1,0,1,,,,,,,,,,,,,,,0,,,79,127
75983,note_on,47,0,1,,,,,,,,,,,,,,,0,,,79,0
75984,note_on,1,0,1,,,,,,,,,,,,,,,0,,,77,127
76031,note_on,47,0,1,,,,,,,,,,,,,,,0,,,77,0
76032,note_on,1,0,1,,,,,,,,,,,,,,,0,,,79,127
76079,note_on,47,0,1,,,,,,,,,,,,,,,0,,,79,0
76080,note_on,1,0,1,,,,,,,,,,,,,,,0,,,77,127
76272,note_on,192,0,1,,,,,,,,,,,,,,,0,,,58,0
76320,note_on,48,0,1,,,,,,,,,,,,,,,0,,,46,0
76655,note_on,335,0,1,,,,,,,,,,,,,,,0,,,77,0
76800,note_on,145,0,1,,,,,,,,,,,,,,,0,,,86,127
76895,note_on,95,0,1,,,,,,,,,,,,,,,0,,,86,0
76896,note_on,1,0,1,,,,,,,,,,,,,,,0,,,80,127
76991,note_on,95,0,1,,,,,,,,,,,,,,,0,,,80,0
76992,note_on,1,0,1,,,,,,,,,,,,,,,0,,,77,127
77087,note_on,95,0,1,,,,,,,,,,,,,,,0,,,77,0
77088,note_on,1,0,1,,,,,,,,,,,,,,,0,,,74,127
77183,note_on,95,0,1,,,,,,,,,,,,,,,0,,,74,0
77184,note_on,1,0,1,,,,,,,,,,,,,,,0,,,68,127
77279,note_on,95,0,1,,,,,,,,,,,,,,,0,,,68,0
77280,note_on,1,0,1,,,,,,,,,,,,,,,0,,,65,127
77375,note_on,95,0,1,,,,,,,,,,,,,,,0,,,65,0
77376,note_on,1,0,1,,,,,,,,,,,,,,,0,,,62,127
77471,note_on,95,0,1,,,,,,,,,,,,,,,0,,,62,0
77472,note_on,1,0,1,,,,,,,,,,,,,,,0,,,56,127
77567,note_on,95,0,1,,,,,,,,,,,,,,,0,,,56,0
77568,note_on,1,0,1,,,,,,,,,,,,,,,0,,,53,127
77663,note_on,95,0,1,,,,,,,,,,,,,,,0,,,53,0
77664,note_on,1,0,1,,,,,,,,,,,,,,,0,,,50,127
77759,note_on,95,0,1,,,,,,,,,,,,,,,0,,,50,0
77760,note_on,1,0,1,,,,,,,,,,,,,,,0,,,46,127
77855,note_on,95,0,1,,,,,,,,,,,,,,,0,,,46,0
77856,note_on,1,0,1,,,,,,,,,,,,,,,0,,,41,127
77951,note_on,95,0,1,,,,,,,,,,,,,,,0,,,41,0
77952,note_on,1,0,1,,,,,,,,,,,,,,,0,,,34,127
78335,note_on,383,0,1,,,,,,,,,,,,,,,0,,,34,0
78336,note_on,1,0,1,,,,,,,,,,,,,,,0,,,46,127
78336,note_on,0,0,1,,,,,,,,,,,,,,,0,,,77,127
78527,note_on,191,0,1,,,,,,,,,,,,,,,0,,,77,0
78528,note_on,1,0,1,,,,,,,,,,,,,,,0,,,70,127
78719,note_on,191,0,1,,,,,,,,,,,,,,,0,,,70,0
78719,note_on,0,0,1,,,,,,,,,,,,,,,0,,,46,0
78720,note_on,1,0,1,,,,,,,,,,,,,,,0,,,38,127
78720,note_on,0,0,1,,,,,,,,,,,,,,,0,,,50,127
78720,note_on,0,0,1,,,,,,,,,,,,,,,0,,,84,127
78911,note_on,191,0,1,,,,,,,,,,,,,,,0,,,84,0
78912,note_on,1,0,1,,,,,,,,,,,,,,,0,,,82,127
79007,note_on,95,0,1,,,,,,,,,,,,,,,0,,,82,0
79008,note_on,1,0,1,,,,,,,,,,,,,,,0,,,80,127
79103,note_on,0,0,1,,,,,,,,,,,,,,,0,,,50,0
79103,note_on,95,0,1,,,,,,,,,,,,,,,0,,,80,0
79103,note_on,0,0,1,,,,,,,,,,,,,,,0,,,38,0
79104,note_on,0,0,1,,,,,,,,,,,,,,,0,,,51,127
79104,note_on,0,0,1,,,,,,,,,,,,,,,0,,,80,127
79104,note_on,1,0,1,,,,,,,,,,,,,,,0,,,39,127
79199,note_on,95,0,1,,,,,,,,,,,,,,,0,,,80,0
79200,note_on,1,0,1,,,,,,,,,,,,,,,0,,,79,127
79295,note_on,95,0,1,,,,,,,,,,,,,,,0,,,79,0
79296,note_on,1,0,1,,,,,,,,,,,,,,,0,,,77,127
79391,note_on,95,0,1,,,,,,,,,,,,,,,0,,,77,0
79392,note_on,1,0,1,,,,,,,,,,,,,,,0,,,75,127
79487,note_on,95,0,1,,,,,,,,,,,,,,,0,,,75,0
79487,note_on,0,0,1,,,,,,,,,,,,,,,0,,,51,0
79487,note_on,0,0,1,,,,,,,,,,,,,,,0,,,39,0
79488,note_on,0,0,1,,,,,,,,,,,,,,,0,,,77,127
79488,note_on,1,0,1,,,,,,,,,,,,,,,0,,,44,127
79488,note_on,0,0,1,,,,,,,,,,,,,,,0,,,56,127
79679,note_on,191,0,1,,,,,,,,,,,,,,,0,,,77,0
79680,note_on,1,0,1,,,,,,,,,,,,,,,0,,,72,127
79871,note_on,191,0,1,,,,,,,,,,,,,,,0,,,72,0
79871,note_on,0,0,1,,,,,,,,,,,,,,,0,,,56,0
79871,note_on,0,0,1,,,,,,,,,,,,,,,0,,,44,0
79872,note_on,1,0,1,,,,,,,,,,,,,,,0,,,46,127
79872,note_on,0,0,1,,,,,,,,,,,,,,,0,,,58,127
79872,note_on,0,0,1,,,,,,,,,,,,,,,0,,,75,127
79967,note_on,95,0,1,,,,,,,,,,,,,,,0,,,75,0
79968,note_on,1,0,1,,,,,,,,,,,,,,,0,,,74,127
80063,note_on,95,0,1,,,,,,,,,,,,,,,0,,,74,0
80064,note_on,1,0,1,,,,,,,,,,,,,,,0,,,72,127
80159,note_on,95,0,1,,,,,,,,,,,,,,,0,,,72,0
80160,note_on,1,0,1,,,,,,,,,,,,,,,0,,,74,127
80255,note_on,0,0,1,,,,,,,,,,,,,,,0,,,46,0
80255,note_on,95,0,1,,,,,,,,,,,,,,,0,,,74,0
80255,note_on,0,0,1,,,,,,,,,,,,,,,0,,,58,0
80256,note_on,1,0,1,,,,,,,,,,,,,,,0,,,39,127
80256,note_on,0,0,1,,,,,,,,,,,,,,,0,,,51,127
80256,note_on,0,0,1,,,,,,,,,,,,,,,0,,,75,127
80447,note_on,191,0,1,,,,,,,,,,,,,,,0,,,75,0
80447,note_on,0,0,1,,,,,,,,,,,,,,,0,,,51,0
80447,note_on,0,0,1,,,,,,,,,,,,,,,0,,,39,0
80448,note_on,1,0,1,,,,,,,,,,,,,,,0,,,46,127
80448,note_on,0,0,1,,,,,,,,,,,,,,,0,,,58,127
80448,note_on,0,0,1,,,,,,,,,,,,,,,0,,,65,127
80448,note_on,0,0,1,,,,,,,,,,,,,,,0,,,77,127
80639,note_on,191,0,1,,,,,,,,,,,,,,,0,,,77,0
80639,note_on,0,0,1,,,,,,,,,,,,,,,0,,,46,0
80639,note_on,0,0,1,,,,,,,,,,,,,,,0,,,58,0
80639,note_on,0,0,1,,,,,,,,,,,,,,,0,,,65,0
80640,note_on,1,0,1,,,,,,,,,,,,,,,0,,,51,127
80640,note_on,0,0,1,,,,,,,,,,,,,,,0,,,63,127
80640,note_on,0,0,1,,,,,,,,,,,,,,,0,,,67,127
80640,note_on,0,0,1,,,,,,,,,,,,,,,0,,,79,127
80831,note_on,0,0,1,,,,,,,,,,,,,,,0,,,67,0
80831,note_on,0,0,1,,,,,,,,,,,,,,,0,,,63,0
80831,note_on,191,0,1,,,,,,,,,,,,,,,0,,,79,0
80831,note_on,0,0,1,,,,,,,,,,,,,,,0,,,51,0
80832,note_on,1,0,1,,,,,,,,,,,,,,,0,,,61,127
80832,note_on,0,0,1,,,,,,,,,,,,,,,0,,,49,127
80832,note_on,0,0,1,,,,,,,,,,,,,,,0,,,67,127
80832,note_on,0,0,1,,,,,,,,,,,,,,,0,,,79,127
81023,note_on,191,0,1,,,,,,,,,,,,,,,0,,,79,0
81023,note_on,0,0,1,,,,,,,,,,,,,,,0,,,61,0
81023,note_on,0,0,1,,,,,,,,,,,,,,,0,,,49,0
81023,note_on,0,0,1,,,,,,,,,,,,,,,0,,,67,0
81024,note_on,1,0,1,,,,,,,,,,,,,,,0,,,60,127
81024,note_on,0,0,1,,,,,,,,,,,,,,,0,,,48,127
81024,note_on,0,0,1,,,,,,,,,,,,,,,0,,,80,127
81024,note_on,0,0,1,,,,,,,,,,,,,,,0,,,68,127
81215,note_on,0,0,1,,,,,,,,,,,,,,,0,,,80,0
81215,note_on,191,0,1,,,,,,,,,,,,,,,0,,,68,0
81215,note_on,0,0,1,,,,,,,,,,,,,,,0,,,60,0
81215,note_on,0,0,1,,,,,,,,,,,,,,,0,,,48,0
81216,note_on,0,0,1,,,,,,,,,,,,,,,0,,,82,127
81216,note_on,1,0,1,,,,,,,,,,,,,,,0,,,46,127
81216,note_on,0,0,1,,,,,,,,,,,,,,,0,,,58,127
81216,note_on,0,0,1,,,,,,,,,,,,,,,0,,,70,127
81407,note_on,0,0,1,,,,,,,,,,,,,,,0,,,46,0
81407,note_on,0,0,1,,,,,,,,,,,,,,,0,,,58,0
81407,note_on,0,0,1,,,,,,,,,,,,,,,0,,,82,0
81407,note_on,191,0,1,,,,,,,,,,,,,,,0,,,70,0
81408,note_on,1,0,1,,,,,,,,,,,,,,,0,,,56,127
81408,note_on,0,0,1,,,,,,,,,,,,,,,0,,,44,127
81408,note_on,0,0,1,,,,,,,,,,,,,,,0,,,72,127
81408,note_on,0,0,1,,,,,,,,,,,,,,,0,,,84,127
81599,note_on,191,0,1,,,,,,,,,,,,,,,0,,,72,0
81599,note_on,0,0,1,,,,,,,,,,,,,,,0,,,56,0
81599,note_on,0,0,1,,,,,,,,,,,,,,,0,,,44,0
81599,note_on,0,0,1,,,,,,,,,,,,,,,0,,,84,0
81600,note_on,0,0,1,,,,,,,,,,,,,,,0,,,84,127
81600,note_on,0,0,1,,,,,,,,,,,,,,,0,,,72,127
81600,note_on,0,0,1,,,,,,,,,,,,,,,0,,,43,127
81600,note_on,1,0,1,,,,,,,,,,,,,,,0,,,55,127
81791,note_on,191,0,1,,,,,,,,,,,,,,,0,,,84,0
81791,note_on,0,0,1,,,,,,,,,,,,,,,0,,,55,0
81791,note_on,0,0,1,,,,,,,,,,,,,,,0,,,43,0
81791,note_on,0,0,1,,,,,,,,,,,,,,,0,,,72,0
81792,note_on,1,0,1,,,,,,,,,,,,,,,0,,,53,127
81792,note_on,0,0,1,,,,,,,,,,,,,,,0,,,41,127
81792,note_on,0,0,1,,,,,,,,,,,,,,,0,,,74,127
81792,note_on,0,0,1,,,,,,,,,,,,,,,0,,,86,127
81983,note_on,191,0,1,,,,,,,,,,,,,,,0,,,86,0
81983,note_on,0,0,1,,,,,,,,,,,,,,,0,,,53,0
81983,note_on,0,0,1,,,,,,,,,,,,,,,0,,,41,0
81983,note_on,0,0,1,,,,,,,,,,,,,,,0,,,74,0
81984,note_on,0,0,1,,,,,,,,,,,,,,,0,,,75,127
81984,note_on,0,0,1,,,,,,,,,,,,,,,0,,,87,127
81984,note_on,0,0,1,,,,,,,,,,,,,,,0,,,51,127
81984,note_on,1,0,1,,,,,,,,,,,,,,,0,,,39,127
82175,note_on,0,0,1,,,,,,,,,,,,,,,0,,,87,0
82175,note_on,191,0,1,,,,,,,,,,,,,,,0,,,75,0
82175,note_on,0,0,1,,,,,,,,,,,,,,,0,,,51,0
82175,note_on,0,0,1,,,,,,,,,,,,,,,0,,,39,0
82176,note_on,0,0,1,,,,,,,,,,,,,,,0,,,70,127
82176,note_on,1,0,1,,,,,,,,,,,,,,,0,,,50,127
82176,note_on,0,0,1,,,,,,,,,,,,,,,0,,,82,127
82176,note_on,0,0,1,,,,,,,,,,,,,,,0,,,38,127
82367,note_on,191,0,1,,,,,,,,,,,,,,,0,,,38,0
82367,note_on,0,0,1,,,,,,,,,,,,,,,0,,,50,0
82368,note_on,0,0,1,,,,,,,,,,,,,,,0,,,46,127
82368,note_on,1,0,1,,,,,,,,,,,,,,,0,,,34,127
82559,note_on,0,0,1,,,,,,,,,,,,,,,0,,,34,0
82559,note_on,191,0,1,,,,,,,,,,,,,,,0,,,46,0
82560,note_on,1,0,1,,,,,,,,,,,,,,,0,,,39,127
82560,note_on,0,0,1,,,,,,,,,,,,,,,0,,,51,127
82751,note_on,191,0,1,,,,,,,,,,,,,,,0,,,82,0
82752,note_on,1,0,1,,,,,,,,,,,,,,,0,,,80,127
82847,note_on,95,0,1,,,,,,,,,,,,,,,0,,,80,0
82848,note_on,1,0,1,,,,,,,,,,,,,,,0,,,79,127
82943,note_on,95,0,1,,,,,,,,,,,,,,,0,,,79,0
82943,note_on,0,0,1,,,,,,,,,,,,,,,0,,,70,0
82943,note_on,0,0,1,,,,,,,,,,,,,,,0,,,39,0
82943,note_on,0,0,1,,,,,,,,,,,,,,,0,,,51,0
82944,note_on,0,0,1,,,,,,,,,,,,,,,0,,,77,127
82944,note_on,1,0,1,,,,,,,,,,,,,,,0,,,44,127
82944,note_on,0,0,1,,,,,,,,,,,,,,,0,,,56,127
82944,note_on,0,0,1,,,,,,,,,,,,,,,0,,,68,127
83135,note_on,191,0,1,,,,,,,,,,,,,,,0,,,77,0
83135,note_on,0,0,1,,,,,,,,,,,,,,,0,,,68,0
83136,note_on,1,0,1,,,,,,,,,,,,,,,0,,,67,127
83136,note_on,0,0,1,,,,,,,,,,,,,,,0,,,75,127
83327,note_on,191,0,1,,,,,,,,,,,,,,,0,,,56,0
83327,note_on,0,0,1,,,,,,,,,,,,,,,0,,,44,0
83328,note_on,1,0,1,,,,,,,,,,,,,,,0,,,58,127
83328,note_on,0,0,1,,,,,,,,,,,,,,,0,,,46,127
83519,note_on,191,0,1,,,,,,,,,,,,,,,0,,,67,0
83519,note_on,0,0,1,,,,,,,,,,,,,,,0,,,75,0
83520,note_on,1,0,1,,,,,,,,,,,,,,,0,,,65,127
83520,note_on,0,0,1,,,,,,,,,,,,,,,0,,,74,127
83711,note_on,0,0,1,,,,,,,,,,,,,,,0,,,65,0
83711,note_on,0,0,1,,,,,,,,,,,,,,,0,,,46,0
83711,note_on,191,0,1,,,,,,,,,,,,,,,0,,,74,0
83711,note_on,0,0,1,,,,,,,,,,,,,,,0,,,58,0
83712,note_on,1,0,1,,,,,,,,,,,,,,,0,,,51,127
83712,note_on,0,0,1,,,,,,,,,,,,,,,0,,,63,127
83712,note_on,0,0,1,,,,,,,,,,,,,,,0,,,67,127
83712,note_on,0,0,1,,,,,,,,,,,,,,,0,,,75,127
83903,note_on,191,0,1,,,,,,,,,,,,,,,0,,,75,0
83903,note_on,0,0,1,,,,,,,,,,,,,,,0,,,51,0
83903,note_on,0,0,1,,,,,,,,,,,,,,,0,,,63,0
83903,note_on,0,0,1,,,,,,,,,,,,,,,0,,,67,0
83904,note_on,0,0,1,,,,,,,,,,,,,,,0,,,65,127
83904,note_on,1,0,1,,,,,,,,,,,,,,,0,,,58,127
83904,note_on,0,0,1,,,,,,,,,,,,,,,0,,,46,127
83904,note_on,0,0,1,,,,,,,,,,,,,,,0,,,77,127
84095,note_on,191,0,1,,,,,,,,,,,,,,,0,,,65,0
84095,note_on,0,0,1,,,,,,,,,,,,,,,0,,,58,0
84095,note_on,0,0,1,,,,,,,,,,,,,,,0,,,46,0
84095,note_on,0,0,1,,,,,,,,,,,,,,,0,,,77,0
84096,note_on,0,0,1,,,,,,,,,,,,,,,0,,,79,127
84096,note_on,1,0,1,,,,,,,,,,,,,,,0,,,51,127
84096,note_on,0,0,1,,,,,,,,,,,,,,,0,,,63,127
84096,note_on,0,0,1,,,,,,,,,,,,,,,0,,,67,127
84287,note_on,191,0,1,,,,,,,,,,,,,,,0,,,79,0
84287,note_on,0,0,1,,,,,,,,,,,,,,,0,,,51,0
84287,note_on,0,0,1,,,,,,,,,,,,,,,0,,,63,0
84287,note_on,0,0,1,,,,,,,,,,,,,,,0,,,67,0
84288,note_on,1,0,1,,,,,,,,,,,,,,,0,,,61,127
84288,note_on,0,0,1,,,,,,,,,,,,,,,0,,,49,127
84288,note_on,0,0,1,,,,,,,,,,,,,,,0,,,79,127
84288,note_on,0,0,1,,,,,,,,,,,,,,,0,,,67,127
84479,note_on,191,0,1,,,,,,,,,,,,,,,0,,,67,0
84479,note_on,0,0,1,,,,,,,,,,,,,,,0,,,61,0
84479,note_on,0,0,1,,,,,,,,,,,,,,,0,,,49,0
84479,note_on,0,0,1,,,,,,,,,,,,,,,0,,,79,0
84480,note_on,0,0,1,,,,,,,,,,,,,,,0,,,68,127
84480,note_on,0,0,1,,,,,,,,,,,,,,,0,,,80,127
84480,note_on,1,0,1,,,,,,,,,,,,,,,0,,,60,127
84480,note_on,0,0,1,,,,,,,,,,,,,,,0,,,48,127
84671,note_on,0,0,1,,,,,,,,,,,,,,,0,,,80,0
84671,note_on,191,0,1,,,,,,,,,,,,,,,0,,,68,0
84671,note_on,0,0,1,,,,,,,,,,,,,,,0,,,60,0
84671,note_on,0,0,1,,,,,,,,,,,,,,,0,,,48,0
84672,note_on,0,0,1,,,,,,,,,,,,,,,0,,,82,127
84672,note_on,1,0,1,,,,,,,,,,,,,,,0,,,46,127
84672,note_on,0,0,1,,,,,,,,,,,,,,,0,,,58,127
84672,note_on,0,0,1,,,,,,,,,,,,,,,0,,,70,127
84863,note_on,191,0,1,,,,,,,,,,,,,,,0,,,82,0
84863,note_on,0,0,1,,,,,,,,,,,,,,,0,,,46,0
84863,note_on,0,0,1,,,,,,,,,,,,,,,0,,,58,0
84863,note_on,0,0,1,,,,,,,,,,,,,,,0,,,70,0
84864,note_on,1,0,1,,,,,,,,,,,,,,,0,,,44,127
84864,note_on,0,0,1,,,,,,,,,,,,,,,0,,,56,127
84864,note_on,0,0,1,,,,,,,,,,,,,,,0,,,72,127
84864,note_on,0,0,1,,,,,,,,,,,,,,,0,,,84,127
85055,note_on,0,0,1,,,,,,,,,,,,,,,0,,,72,0
85055,note_on,0,0,1,,,,,,,,,,,,,,,0,,,44,0
85055,note_on,191,0,1,,,,,,,,,,,,,,,0,,,84,0
85055,note_on,0,0,1,,,,,,,,,,,,,,,0,,,56,0
85056,note_on,1,0,1,,,,,,,,,,,,,,,0,,,43,127
85056,note_on,0,0,1,,,,,,,,,,,,,,,0,,,84,127
85056,note_on,0,0,1,,,,,,,,,,,,,,,0,,,72,127
85056,note_on,0,0,1,,,,,,,,,,,,,,,0,,,55,127
85247,note_on,191,0,1,,,,,,,,,,,,,,,0,,,72,0
85247,note_on,0,0,1,,,,,,,,,,,,,,,0,,,43,0
85247,note_on,0,0,1,,,,,,,,,,,,,,,0,,,55,0
85247,note_on,0,0,1,,,,,,,,,,,,,,,0,,,84,0
85248,note_on,1,0,1,,,,,,,,,,,,,,,0,,,53,127
85248,note_on,0,0,1,,,,,,,,,,,,,,,0,,,41,127
85248,note_on,0,0,1,,,,,,,,,,,,,,,0,,,86,127
85248,note_on,0,0,1,,,,,,,,,,,,,,,0,,,74,127
85439,note_on,0,0,1,,,,,,,,,,,,,,,0,,,86,0
85439,note_on,0,0,1,,,,,,,,,,,,,,,0,,,41,0
85439,note_on,191,0,1,,,,,,,,,,,,,,,0,,,74,0
85439,note_on,0,0,1,,,,,,,,,,,,,,,0,,,53,0
85440,note_on,0,0,1,,,,,,,,,,,,,,,0,,,87,127
85440,note_on,1,0,1,,,,,,,,,,,,,,,0,,,39,127
85440,note_on,0,0,1,,,,,,,,,,,,,,,0,,,51,127
85440,note_on,0,0,1,,,,,,,,,,,,,,,0,,,75,127
85631,note_on,191,0,1,,,,,,,,,,,,,,,0,,,87,0
85631,note_on,0,0,1,,,,,,,,,,,,,,,0,,,39,0
85631,note_on,0,0,1,,,,,,,,,,,,,,,0,,,51,0
85631,note_on,0,0,1,,,,,,,,,,,,,,,0,,,75,0
85632,note_on,1,0,1,,,,,,,,,,,,,,,0,,,38,127
85632,note_on,0,0,1,,,,,,,,,,,,,,,0,,,50,127
85632,note_on,0,0,1,,,,,,,,,,,,,,,0,,,82,127
85632,note_on,0,0,1,,,,,,,,,,,,,,,0,,,70,127
85823,note_on,191,0,1,,,,,,,,,,,,,,,0,,,50,0
85823,note_on,0,0,1,,,,,,,,,,,,,,,0,,,38,0
85824,note_on,1,0,1,,,,,,,,,,,,,,,0,,,34,127
85824,note_on,0,0,1,,,,,,,,,,,,,,,0,,,46,127
86015,note_on,191,0,1,,,,,,,,,,,,,,,0,,,46,0
86015,note_on,0,0,1,,,,,,,,,,,,,,,0,,,34,0
86016,note_on,0,0,1,,,,,,,,,,,,,,,0,,,51,127
86016,note_on,1,0,1,,,,,,,,,,,,,,,0,,,39,127
86207,note_on,191,0,1,,,,,,,,,,,,,,,0,,,82,0
86208,note_on,1,0,1,,,,,,,,,,,,,,,0,,,80,127
86303,note_on,95,0,1,,,,,,,,,,,,,,,0,,,80,0
86304,note_on,1,0,1,,,,,,,,,,,,,,,0,,,79,127
86399,note_on,95,0,1,,,,,,,,,,,,,,,0,,,79,0
86399,note_on,0,0,1,,,,,,,,,,,,,,,0,,,70,0
86399,note_on,0,0,1,,,,,,,,,,,,,,,0,,,39,0
86399,note_on,0,0,1,,,,,,,,,,,,,,,0,,,51,0
86400,note_on,1,0,1,,,,,,,,,,,,,,,0,,,44,127
86400,note_on,0,0,1,,,,,,,,,,,,,,,0,,,56,127
86400,note_on,0,0,1,,,,,,,,,,,,,,,0,,,68,127
86400,note_on,0,0,1,,,,,,,,,,,,,,,0,,,77,127
86591,note_on,191,0,1,,,,,,,,,,,,,,,0,,,77,0
86591,note_on,0,0,1,,,,,,,,,,,,,,,0,,,68,0
86592,note_on,0,0,1,,,,,,,,,,,,,,,0,,,67,127
86592,note_on,1,0,1,,,,,,,,,,,,,,,0,,,75,127
86783,note_on,0,0,1,,,,,,,,,,,,,,,0,,,44,0
86783,note_on,191,0,1,,,,,,,,,,,,,,,0,,,56,0
86784,note_on,1,0,1,,,,,,,,,,,,,,,0,,,46,127
86784,note_on,0,0,1,,,,,,,,,,,,,,,0,,,58,127
86975,note_on,191,0,1,,,,,,,,,,,,,,,0,,,75,0
86975,note_on,0,0,1,,,,,,,,,,,,,,,0,,,67,0
86976,note_on,1,0,1,,,,,,,,,,,,,,,0,,,74,127
86976,note_on,0,0,1,,,,,,,,,,,,,,,0,,,65,127
87126,note_on,150,0,1,,,,,,,,,,,,,,,0,,,74,0
87136,note_on,10,0,1,,,,,,,,,,,,,,,0,,,65,0
87167,note_on,31,0,1,,,,,,,,,,,,,,,0,,,46,0
87167,note_on,0,0,1,,,,,,,,,,,,,,,0,,,58,0
87168,note_on,1,0,1,,,,,,,,,,,,,,,0,,,39,127
87168,note_on,0,0,1,,,,,,,,,,,,,,,0,,,51,127
87168,note_on,0,0,1,,,,,,,,,,,,,,,0,,,79,127
87168,note_on,0,0,1,,,,,,,,,,,,,,,0,,,75,127
87359,note_on,191,0,1,,,,,,,,,,,,,,,0,,,75,0
87359,note_on,0,0,1,,,,,,,,,,,,,,,0,,,79,0
87360,note_on,1,0,1,,,,,,,,,,,,,,,0,,,74,127
87360,note_on,0,0,1,,,,,,,,,,,,,,,0,,,77,127
87455,note_on,0,0,1,,,,,,,,,,,,,,,0,,,74,0
87455,note_on,95,0,1,,,,,,,,,,,,,,,0,,,77,0
87456,note_on,0,0,1,,,,,,,,,,,,,,,0,,,75,127
87456,note_on,1,0,1,,,,,,,,,,,,,,,0,,,79,127
87551,note_on,95,0,1,,,,,,,,,,,,,,,0,,,75,0
87551,note_on,0,0,1,,,,,,,,,,,,,,,0,,,39,0
87551,note_on,0,0,1,,,,,,,,,,,,,,,0,,,51,0
87551,note_on,0,0,1,,,,,,,,,,,,,,,0,,,79,0
87552,note_on,1,0,1,,,,,,,,,,,,,,,0,,,44,127
87552,note_on,0,0,1,,,,,,,,,,,,,,,0,,,56,127
87552,note_on,0,0,1,,,,,,,,,,,,,,,0,,,80,127
87552,note_on,0,0,1,,,,,,,,,,,,,,,0,,,77,127
87743,note_on,191,0,1,,,,,,,,,,,,,,,0,,,80,0
87744,note_on,1,0,1,,,,,,,,,,,,,,,0,,,82,127
87935,note_on,0,0,1,,,,,,,,,,,,,,,0,,,44,0
87935,note_on,0,0,1,,,,,,,,,,,,,,,0,,,77,0
87935,note_on,0,0,1,,,,,,,,,,,,,,,0,,,56,0
87935,note_on,191,0,1,,,,,,,,,,,,,,,0,,,82,0
87936,note_on,0,0,1,,,,,,,,,,,,,,,0,,,75,127
87936,note_on,0,0,1,,,,,,,,,,,,,,,0,,,58,127
87936,note_on,0,0,1,,,,,,,,,,,,,,,0,,,80,127
87936,note_on,1,0,1,,,,,,,,,,,,,,,0,,,46,127
88031,note_on,95,0,1,,,,,,,,,,,,,,,0,,,80,0
88032,note_on,1,0,1,,,,,,,,,,,,,,,0,,,79,127
88127,note_on,95,0,1,,,,,,,,,,,,,,,0,,,79,0
88127,note_on,0,0,1,,,,,,,,,,,,,,,0,,,75,0
88128,note_on,1,0,1,,,,,,,,,,,,,,,0,,,77,127
88128,note_on,0,0,1,,,,,,,,,,,,,,,0,,,74,127
88298,note_on,170,0,1,,,,,,,,,,,,,,,0,,,74,0
88298,note_on,0,0,1,,,,,,,,,,,,,,,0,,,77,0
88319,note_on,21,0,1,,,,,,,,,,,,,,,0,,,58,0
88319,note_on,0,0,1,,,,,,,,,,,,,,,0,,,46,0
88320,note_on,0,0,1,,,,,,,,,,,,,,,0,,,75,127
88320,note_on,0,0,1,,,,,,,,,,,,,,,0,,,51,127
88320,note_on,0,0,1,,,,,,,,,,,,,,,0,,,79,127
88320,note_on,1,0,1,,,,,,,,,,,,,,,0,,,39,127
88511,note_on,0,0,1,,,,,,,,,,,,,,,0,,,79,0
88511,note_on,191,0,1,,,,,,,,,,,,,,,0,,,75,0
88512,note_on,0,0,1,,,,,,,,,,,,,,,0,,,77,127
88512,note_on,1,0,1,,,,,,,,,,,,,,,0,,,74,127
88607,note_on,95,0,1,,,,,,,,,,,,,,,0,,,77,0
88607,note_on,0,0,1,,,,,,,,,,,,,,,0,,,74,0
88608,note_on,1,0,1,,,,,,,,,,,,,,,0,,,79,127
88608,note_on,0,0,1,,,,,,,,,,,,,,,0,,,75,127
88703,note_on,0,0,1,,,,,,,,,,,,,,,0,,,39,0
88703,note_on,0,0,1,,,,,,,,,,,,,,,0,,,51,0
88703,note_on,0,0,1,,,,,,,,,,,,,,,0,,,79,0
88703,note_on,95,0,1,,,,,,,,,,,,,,,0,,,75,0
88704,note_on,1,0,1,,,,,,,,,,,,,,,0,,,44,127
88704,note_on,0,0,1,,,,,,,,,,,,,,,0,,,56,127
88704,note_on,0,0,1,,,,,,,,,,,,,,,0,,,77,127
88704,note_on,0,0,1,,,,,,,,,,,,,,,0,,,80,127
88895,note_on,191,0,1,,,,,,,,,,,,,,,0,,,80,0
88896,note_on,1,0,1,,,,,,,,,,,,,,,0,,,82,127
89087,note_on,191,0,1,,,,,,,,,,,,,,,0,,,82,0
89087,note_on,0,0,1,,,,,,,,,,,,,,,0,,,77,0
89087,note_on,0,0,1,,,,,,,,,,,,,,,0,,,56,0
89087,note_on,0,0,1,,,,,,,,,,,,,,,0,,,44,0
89088,note_on,0,0,1,,,,,,,,,,,,,,,0,,,80,127
89088,note_on,1,0,1,,,,,,,,,,,,,,,0,,,46,127
89088,note_on,0,0,1,,,,,,,,,,,,,,,0,,,75,127
89088,note_on,0,0,1,,,,,,,,,,,,,,,0,,,58,127
89183,note_on,95,0,1,,,,,,,,,,,,,,,0,,,80,0
89184,note_on,1,0,1,,,,,,,,,,,,,,,0,,,79,127
89279,note_on,95,0,1,,,,,,,,,,,,,,,0,,,79,0
89279,note_on,0,0,1,,,,,,,,,,,,,,,0,,,75,0
89280,note_on,1,0,1,,,,,,,,,,,,,,,0,,,77,127
89280,note_on,0,0,1,,,,,,,,,,,,,,,0,,,74,127
89450,note_on,170,0,1,,,,,,,,,,,,,,,0,,,74,0
89450,note_on,0,0,1,,,,,,,,,,,,,,,0,,,77,0
89471,note_on,21,0,1,,,,,,,,,,,,,,,0,,,58,0
89471,note_on,0,0,1,,,,,,,,,,,,,,,0,,,46,0
89472,note_on,0,0,1,,,,,,,,,,,,,,,0,,,79,127
89472,note_on,1,0,1,,,,,,,,,,,,,,,0,,,39,127
89472,note_on,0,0,1,,,,,,,,,,,,,,,0,,,75,127
89472,note_on,0,0,1,,,,,,,,,,,,,,,0,,,51,127
89663,note_on,191,0,1,,,,,,,,,,,,,,,0,,,79,0
89663,note_on,0,0,1,,,,,,,,,,,,,,,0,,,75,0
89664,note_on,1,0,1,,,,,,,,,,,,,,,0,,,77,127
89664,note_on,0,0,1,,,,,,,,,,,,,,,0,,,74,127
89759,note_on,95,0,1,,,,,,,,,,,,,,,0,,,74,0
89759,note_on,0,0,1,,,,,,,,,,,,,,,0,,,77,0
89760,note_on,1,0,1,,,,,,,,,,,,,,,0,,,79,127
89760,note_on,0,0,1,,,,,,,,,,,,,,,0,,,75,127
89855,note_on,95,0,1,,,,,,,,,,,,,,,0,,,75,0
89855,note_on,0,0,1,,,,,,,,,,,,,,,0,,,39,0
89855,note_on,0,0,1,,,,,,,,,,,,,,,0,,,51,0
89855,note_on,0,0,1,,,,,,,,,,,,,,,0,,,79,0
89856,note_on,0,0,1,,,,,,,,,,,,,,,0,,,77,127
89856,note_on,1,0,1,,,,,,,,,,,,,,,0,,,44,127
89856,note_on,0,0,1,,,,,,,,,,,,,,,0,,,56,127
89856,note_on,0,0,1,,,,,,,,,,,,,,,0,,,80,127
90047,note_on,191,0,1,,,,,,,,,,,,,,,0,,,80,0
90048,note_on,1,0,1,,,,,,,,,,,,,,,0,,,82,127
90239,note_on,191,0,1,,,,,,,,,,,,,,,0,,,82,0
90239,note_on,0,0,1,,,,,,,,,,,,,,,0,,,77,0
90239,note_on,0,0,1,,,,,,,,,,,,,,,0,,,56,0
90239,note_on,0,0,1,,,,,,,,,,,,,,,0,,,44,0
90240,note_on,1,0,1,,,,,,,,,,,,,,,0,,,46,127
90240,note_on,0,0,1,,,,,,,,,,,,,,,0,,,58,127
90240,note_on,0,0,1,,,,,,,,,,,,,,,0,,,75,127
90240,note_on,0,0,1,,,,,,,,,,,,,,,0,,,80,127
90335,note_on,95,0,1,,,,,,,,,,,,,,,0,,,80,0
90336,note_on,1,0,1,,,,,,,,,,,,,,,0,,,79,127
90431,note_on,0,0,1,,,,,,,,,,,,,,,0,,,75,0
90431,note_on,95,0,1,,,,,,,,,,,,,,,0,,,79,0
90432,note_on,1,0,1,,,,,,,,,,,,,,,0,,,77,127
90432,note_on,0,0,1,,,,,,,,,,,,,,,0,,,74,127
90623,note_on,0,0,1,,,,,,,,,,,,,,,0,,,77,0
90623,note_on,0,0,1,,,,,,,,,,,,,,,0,,,46,0
90623,note_on,0,0,1,,,,,,,,,,,,,,,0,,,58,0
90623,note_on,191,0,1,,,,,,,,,,,,,,,0,,,74,0
90624,note_on,1,0,1,,,,,,,,,,,,,,,0,,,39,127
90624,note_on,0,0,1,,,,,,,,,,,,,,,0,,,51,127
90624,note_on,0,0,1,,,,,,,,,,,,,,,0,,,77,127
90624,note_on,0,0,1,,,,,,,,,,,,,,,0,,,74,127
91007,note_on,383,0,1,,,,,,,,,,,,,,,0,,,74,0
91007,note_on,0,0,1,,,,,,,,,,,,,,,0,,,77,0
91008,note_on,1,0,1,,,,,,,,,,,,,,,0,,,75,127
91008,control_change,0,0,1,,,,,,,,,,,,,,,0,121,0,,
92159,note_on,1151,0,1,,,,,,,,,,,,,,,0,,,75,0
92160,note_on,1,0,1,,,,,,,,,,,,,,,0,,,51,0
92160,note_on,0,0,1,,,,,,,,,,,,,,,0,,,39,0
92160,end_of_track,0,1,1,,,,,,,,,,,,,,,,,,,
