tick,type,time,meta,track,frame_rate,hours,minutes,seconds,frames,sub_frames,numerator,denominator,clocks_per_click,notated_32nd_notes_per_beat,key,tempo,port,program,channel,control,value,note,velocity
0,track_name,0,1,0,,,,,,,,,,,,,,,,,,,
0,midi_port,0,1,2,,,,,,,,,,,,,0,,,,,,
0,control_change,0,0,1,,,,,,,,,,,,,,,0,7,100,,
0,control_change,0,0,1,,,,,,,,,,,,,,,0,121,0,,
0,control_change,0,0,1,,,,,,,,,,,,,,,0,7,127,,
0,program_change,0,0,1,,,,,,,,,,,,,,0,0,,,,
0,program_change,0,0,1,,,,,,,,,,,,,,0,0,,,,
0,end_of_track,0,1,2,,,,,,,,,,,,,,,,,,,
0,end_of_track,0,1,0,,,,,,,,,,,,,,,,,,,
0,text,0,1,0,,,,,,,,,,,,,,,,,,,
0,smpte_offset,0,1,0,25,32,0,3,0,0,,,,,,,,,,,,,
0,midi_port,0,1,1,,,,,,,,,,,,,0,,,,,,
0,key_signature,0,1,0,,,,,,,,,,,C,,,,,,,,
0,time_signature,0,1,0,,,,,,,3,8,12,8,,,,,,,,,
0,set_tempo,0,1,0,,,,,,,,,,,,600000,,,,,,,
96,note_on,96,0,1,,,,,,,,,,,,,,,0,,,36,127
288,note_on,192,0,1,,,,,,,,,,,,,,,0,,,79,127
288,note_on,0,0,1,,,,,,,,,,,,,,,0,,,76,127
479,note_on,191,0,1,,,,,,,,,,,,,,,0,,,76,0
479,note_on,0,0,1,,,,,,,,,,,,,,,0,,,79,0
480,note_on,1,0,1,,,,,,,,,,,,,,,0,,,79,127
480,note_on,0,0,1,,,,,,,,,,,,,,,0,,,76,127
671,note_on,191,0,1,,,,,,,,,,,,,,,0,,,76,0
671,note_on,0,0,1,,,,,,,,,,,,,,,0,,,79,0
672,note_on,0,0,1,,,,,,,,,,,,,,,0,,,76,127
672,note_on,1,0,1,,,,,,,,,,,,,,,0,,,79,127
863,note_on,191,0,1,,,,,,,,,,,,,,,0,,,76,0
863,note_on,0,0,1,,,,,,,,,,,,,,,0,,,79,0
864,note_on,0,0,1,,,,,,,,,,,,,,,0,,,76,127
864,note_on,1,0,1,,,,,,,,,,,,,,,0,,,72,127
1055,note_on,191,0,1,,,,,,,,,,,,,,,0,,,76,0
1055,note_on,0,0,1,,,,,,,,,,,,,,,0,,,72,0
1056,note_on,1,0,1,,,,,,,,,,,,,,,0,,,79,127
1056,note_on,0,0,1,,,,,,,,,,,,,,,0,,,76,127
1247,note_on,191,0,1,,,,,,,,,,,,,,,0,,,76,0
1247,note_on,0,0,1,,,,,,,,,,,,,,,0,,,79,0
1248,note_on,1,0,1,,,,,,,,,,,,,,,0,,,36,0
1248,note_on,0,0,1,,,,,,,,,,,,,,,0,,,79,127
1248,note_on,0,0,1,,,,,,,,,,,,,,,0,,,76,127
1439,note_on,191,0,1,,,,,,,,,,,,,,,0,,,76,0
1439,note_on,0,0,1,,,,,,,,,,,,,,,0,,,79,0
1440,note_on,1,0,1,,,,,,,,,,,,,,,0,,,76,127
1440,note_on,0,0,1,,,,,,,,,,,,,,,0,,,72,127
1631,note_on,0,0,1,,,,,,,,,,,,,,,0,,,76,0
1631,note_on,191,0,1,,,,,,,,,,,,,,,0,,,72,0
1632,note_on,0,0,1,,,,,,,,,,,,,,,0,,,76,127
1632,note_on,1,0,1,,,,,,,,,,,,,,,0,,,79,127
1823,note_on,191,0,1,,,,,,,,,,,,,,,0,,,76,0
1823,note_on,0,0,1,,,,,,,,,,,,,,,0,,,79,0
1824,note_on,1,0,1,,,,,,,,,,,,,,,0,,,76,127
1824,note_on,0,0,1,,,,,,,,,,,,,,,0,,,79,127
2016,note_on,192,0,1,,,,,,,,,,,,,,,0,,,69,127
2016,note_on,0,0,1,,,,,,,,,,,,,,,0,,,81,127
2064,note_on,48,0,1,,,,,,,,,,,,,,,0,,,79,0
2064,note_on,0,0,1,,,,,,,,,,,,,,,0,,,76,0
2208,note_on,144,0,1,,,,,,,,,,,,,,,0,,,77,127
2208,note_on,0,0,1,,,,,,,,,,,,,,,0,,,74,127
2256,note_on,48,0,1,,,,,,,,,,,,,,,0,,,69,0
2256,note_on,0,0,1,,,,,,,,,,,,,,,0,,,81,0
2400,note_on,144,0,1,,,,,,,,,,,,,,,0,,,79,127
2400,note_on,0,0,1,,,,,,,,,,,,,,,0,,,67,127
2448,note_on,48,0,1,,,,,,,,,,,,,,,0,,,77,0
2448,note_on,0,0,1,,,,,,,,,,,,,,,0,,,74,0
2592,note_on,0,0,1,,,,,,,,,,,,,,,0,,,76,127
2592,note_on,144,0,1,,,,,,,,,,,,,,,0,,,72,127
2640,note_on,0,0,1,,,,,,,,,,,,,,,0,,,67,0
2640,note_on,48,0,1,,,,,,,,,,,,,,,0,,,79,0
2784,note_on,144,0,1,,,,,,,,,,,,,,,0,,,77,127
2784,note_on,0,0,1,,,,,,,,,,,,,,,0,,,65,127
2832,note_on,48,0,1,,,,,,,,,,,,,,,0,,,72,0
2832,note_on,0,0,1,,,,,,,,,,,,,,,0,,,76,0
2976,note_on,144,0,1,,,,,,,,,,,,,,,0,,,71,127
2976,note_on,0,0,1,,,,,,,,,,,,,,,0,,,74,127
3024,note_on,48,0,1,,,,,,,,,,,,,,,0,,,77,0
3024,note_on,0,0,1,,,,,,,,,,,,,,,0,,,65,0
3168,note_on,144,0,1,,,,,,,,,,,,,,,0,,,76,127
3168,note_on,0,0,1,,,,,,,,,,,,,,,0,,,64,127
3216,note_on,48,0,1,,,,,,,,,,,,,,,0,,,71,0
3216,note_on,0,0,1,,,,,,,,,,,,,,,0,,,74,0
3360,note_on,144,0,1,,,,,,,,,,,,,,,0,,,69,127
3360,note_on,0,0,1,,,,,,,,,,,,,,,0,,,72,127
3408,note_on,0,0,1,,,,,,,,,,,,,,,0,,,64,0
3408,note_on,48,0,1,,,,,,,,,,,,,,,0,,,76,0
3552,note_on,0,0,1,,,,,,,,,,,,,,,0,,,74,127
3552,note_on,144,0,1,,,,,,,,,,,,,,,0,,,65,127
3600,note_on,48,0,1,,,,,,,,,,,,,,,0,,,69,0
3600,note_on,0,0,1,,,,,,,,,,,,,,,0,,,72,0
3744,note_on,144,0,1,,,,,,,,,,,,,,,0,,,71,127
3744,note_on,0,0,1,,,,,,,,,,,,,,,0,,,67,127
3792,note_on,48,0,1,,,,,,,,,,,,,,,0,,,65,0
3792,note_on,0,0,1,,,,,,,,,,,,,,,0,,,74,0
3935,note_on,143,0,1,,,,,,,,,,,,,,,0,,,71,0
3935,note_on,0,0,1,,,,,,,,,,,,,,,0,,,67,0
3936,note_on,1,0,1,,,,,,,,,,,,,,,0,,,69,127
3936,note_on,0,0,1,,,,,,,,,,,,,,,0,,,72,127
4127,note_on,191,0,1,,,,,,,,,,,,,,,0,,,72,0
4127,note_on,0,0,1,,,,,,,,,,,,,,,0,,,69,0
4128,note_on,1,0,1,,,,,,,,,,,,,,,0,,,71,127
4128,note_on,0,0,1,,,,,,,,,,,,,,,0,,,67,127
4288,note_on,0,0,1,,,,,,,,,,,,,,,0,,,71,0
4288,note_on,160,0,1,,,,,,,,,,,,,,,0,,,67,0
4320,note_on,0,0,1,,,,,,,,,,,,,,,0,,,79,127
4320,note_on,32,0,1,,,,,,,,,,,,,,,0,,,67,127
4511,note_on,0,0,1,,,,,,,,,,,,,,,0,,,67,0
4511,note_on,191,0,1,,,,,,,,,,,,,,,0,,,79,0
4512,note_on,1,0,1,,,,,,,,,,,,,,,0,,,64,127
4512,note_on,0,0,1,,,,,,,,,,,,,,,0,,,79,127
4703,note_on,0,0,1,,,,,,,,,,,,,,,0,,,64,0
4703,note_on,191,0,1,,,,,,,,,,,,,,,0,,,79,0
4704,note_on,1,0,1,,,,,,,,,,,,,,,0,,,60,127
4704,note_on,0,0,1,,,,,,,,,,,,,,,0,,,79,127
4895,note_on,191,0,1,,,,,,,,,,,,,,,0,,,79,0
4895,note_on,0,0,1,,,,,,,,,,,,,,,0,,,60,0
4896,note_on,1,0,1,,,,,,,,,,,,,,,0,,,57,127
4896,note_on,0,0,1,,,,,,,,,,,,,,,0,,,81,127
4944,note_on,48,0,1,,,,,,,,,,,,,,,0,,,79,127
4958,note_on,14,0,1,,,,,,,,,,,,,,,0,,,81,0
4992,note_on,34,0,1,,,,,,,,,,,,,,,0,,,81,127
5006,note_on,14,0,1,,,,,,,,,,,,,,,0,,,79,0
5040,note_on,34,0,1,,,,,,,,,,,,,,,0,,,79,127
5054,note_on,14,0,1,,,,,,,,,,,,,,,0,,,81,0
5087,note_on,33,0,1,,,,,,,,,,,,,,,0,,,57,0
5088,note_on,0,0,1,,,,,,,,,,,,,,,0,,,81,127
5088,note_on,1,0,1,,,,,,,,,,,,,,,0,,,53,127
5102,note_on,14,0,1,,,,,,,,,,,,,,,0,,,79,0
5136,note_on,34,0,1,,,,,,,,,,,,,,,0,,,79,127
5150,note_on,14,0,1,,,,,,,,,,,,,,,0,,,81,0
5184,note_on,34,0,1,,,,,,,,,,,,,,,0,,,77,127
5198,note_on,14,0,1,,,,,,,,,,,,,,,0,,,79,0
5232,note_on,34,0,1,,,,,,,,,,,,,,,0,,,76,127
5246,note_on,14,0,1,,,,,,,,,,,,,,,0,,,77,0
5279,note_on,33,0,1,,,,,,,,,,,,,,,0,,,53,0
5280,note_on,1,0,1,,,,,,,,,,,,,,,0,,,50,127
5280,note_on,0,0,1,,,,,,,,,,,,,,,0,,,77,127
5294,note_on,14,0,1,,,,,,,,,,,,,,,0,,,76,0
5471,note_on,177,0,1,,,,,,,,,,,,,,,0,,,77,0
5471,note_on,0,0,1,,,,,,,,,,,,,,,0,,,50,0
5472,note_on,1,0,1,,,,,,,,,,,,,,,0,,,53,127
5472,note_on,0,0,1,,,,,,,,,,,,,,,0,,,77,127
5663,note_on,191,0,1,,,,,,,,,,,,,,,0,,,77,0
5663,note_on,0,0,1,,,,,,,,,,,,,,,0,,,53,0
5664,note_on,0,0,1,,,,,,,,,,,,,,,0,,,77,127
5664,note_on,1,0,1,,,,,,,,,,,,,,,0,,,50,127
5855,note_on,191,0,1,,,,,,,,,,,,,,,0,,,77,0
5855,note_on,0,0,1,,,,,,,,,,,,,,,0,,,50,0
5856,note_on,0,0,1,,,,,,,,,,,,,,,0,,,77,127
5856,note_on,1,0,1,,,,,,,,,,,,,,,0,,,47,127
6047,note_on,191,0,1,,,,,,,,,,,,,,,0,,,77,0
6047,note_on,0,0,1,,,,,,,,,,,,,,,0,,,47,0
6048,note_on,0,0,1,,,,,,,,,,,,,,,0,,,79,127
6048,note_on,1,0,1,,,,,,,,,,,,,,,0,,,43,127
6096,note_on,48,0,1,,,,,,,,,,,,,,,0,,,77,127
6110,note_on,14,0,1,,,,,,,,,,,,,,,0,,,79,0
6144,note_on,34,0,1,,,,,,,,,,,,,,,0,,,79,127
6158,note_on,14,0,1,,,,,,,,,,,,,,,0,,,77,0
6192,note_on,34,0,1,,,,,,,,,,,,,,,0,,,77,127
6206,note_on,14,0,1,,,,,,,,,,,,,,,0,,,79,0
6239,note_on,33,0,1,,,,,,,,,,,,,,,0,,,43,0
6240,note_on,1,0,1,,,,,,,,,,,,,,,0,,,40,127
6240,note_on,0,0,1,,,,,,,,,,,,,,,0,,,79,127
6254,note_on,14,0,1,,,,,,,,,,,,,,,0,,,77,0
6288,note_on,34,0,1,,,,,,,,,,,,,,,0,,,77,127
6302,note_on,14,0,1,,,,,,,,,,,,,,,0,,,79,0
6336,note_on,34,0,1,,,,,,,,,,,,,,,0,,,76,127
6350,note_on,14,0,1,,,,,,,,,,,,,,,0,,,77,0
6384,note_on,34,0,1,,,,,,,,,,,,,,,0,,,74,127
6398,note_on,14,0,1,,,,,,,,,,,,,,,0,,,76,0
6431,note_on,33,0,1,,,,,,,,,,,,,,,0,,,40,0
6432,note_on,1,0,1,,,,,,,,,,,,,,,0,,,36,127
6432,note_on,0,0,1,,,,,,,,,,,,,,,0,,,76,127
6446,note_on,14,0,1,,,,,,,,,,,,,,,0,,,74,0
6623,note_on,177,0,1,,,,,,,,,,,,,,,0,,,76,0
6624,note_on,1,0,1,,,,,,,,,,,,,,,0,,,84,127
6687,note_on,63,0,1,,,,,,,,,,,,,,,0,,,84,0
6688,note_on,1,0,1,,,,,,,,,,,,,,,0,,,83,127
6751,note_on,63,0,1,,,,,,,,,,,,,,,0,,,83,0
6752,note_on,1,0,1,,,,,,,,,,,,,,,0,,,81,127
6815,note_on,63,0,1,,,,,,,,,,,,,,,0,,,81,0
6815,note_on,0,0,1,,,,,,,,,,,,,,,0,,,36,0
6816,note_on,0,0,1,,,,,,,,,,,,,,,0,,,79,127
6816,note_on,1,0,1,,,,,,,,,,,,,,,0,,,64,127
6816,note_on,0,0,1,,,,,,,,,,,,,,,0,,,67,127
6816,note_on,0,0,1,,,,,,,,,,,,,,,0,,,60,127
7007,note_on,0,0,1,,,,,,,,,,,,,,,0,,,60,0
7007,note_on,0,0,1,,,,,,,,,,,,,,,0,,,64,0
7007,note_on,191,0,1,,,,,,,,,,,,,,,0,,,67,0
7008,note_on,0,0,1,,,,,,,,,,,,,,,0,,,62,127
7008,note_on,0,0,1,,,,,,,,,,,,,,,0,,,67,127
7008,note_on,1,0,1,,,,,,,,,,,,,,,0,,,55,127
7199,note_on,191,0,1,,,,,,,,,,,,,,,0,,,55,0
7199,note_on,0,0,1,,,,,,,,,,,,,,,0,,,79,0
7200,note_on,1,0,1,,,,,,,,,,,,,,,0,,,57,127
7200,note_on,0,0,1,,,,,,,,,,,,,,,0,,,79,127
7263,note_on,63,0,1,,,,,,,,,,,,,,,0,,,79,0
7264,note_on,1,0,1,,,,,,,,,,,,,,,0,,,77,127
7327,note_on,63,0,1,,,,,,,,,,,,,,,0,,,77,0
7328,note_on,1,0,1,,,,,,,,,,,,,,,0,,,76,127
7391,note_on,63,0,1,,,,,,,,,,,,,,,0,,,76,0
7391,note_on,0,0,1,,,,,,,,,,,,,,,0,,,57,0
7392,note_on,1,0,1,,,,,,,,,,,,,,,0,,,59,127
7392,note_on,0,0,1,,,,,,,,,,,,,,,0,,,74,127
7583,note_on,191,0,1,,,,,,,,,,,,,,,0,,,74,0
7583,note_on,0,0,1,,,,,,,,,,,,,,,0,,,62,0
7583,note_on,0,0,1,,,,,,,,,,,,,,,0,,,67,0
7583,note_on,0,0,1,,,,,,,,,,,,,,,0,,,59,0
7584,note_on,0,0,1,,,,,,,,,,,,,,,0,,,64,127
7584,note_on,0,0,1,,,,,,,,,,,,,,,0,,,67,127
7584,note_on,1,0,1,,,,,,,,,,,,,,,0,,,60,127
7775,note_on,191,0,1,,,,,,,,,,,,,,,0,,,64,0
7776,note_on,1,0,1,,,,,,,,,,,,,,,0,,,62,127
7776,note_on,0,0,1,,,,,,,,,,,,,,,0,,,84,127
7839,note_on,63,0,1,,,,,,,,,,,,,,,0,,,84,0
7840,note_on,1,0,1,,,,,,,,,,,,,,,0,,,83,127
7903,note_on,63,0,1,,,,,,,,,,,,,,,0,,,83,0
7904,note_on,1,0,1,,,,,,,,,,,,,,,0,,,81,127
7967,note_on,63,0,1,,,,,,,,,,,,,,,0,,,81,0
7967,note_on,0,0,1,,,,,,,,,,,,,,,0,,,62,0
7968,note_on,1,0,1,,,,,,,,,,,,,,,0,,,64,127
7968,note_on,0,0,1,,,,,,,,,,,,,,,0,,,79,127
8159,note_on,191,0,1,,,,,,,,,,,,,,,0,,,64,0
8159,note_on,0,0,1,,,,,,,,,,,,,,,0,,,60,0
8159,note_on,0,0,1,,,,,,,,,,,,,,,0,,,67,0
8160,note_on,0,0,1,,,,,,,,,,,,,,,0,,,67,127
8160,note_on,1,0,1,,,,,,,,,,,,,,,0,,,62,127
8160,note_on,0,0,1,,,,,,,,,,,,,,,0,,,55,127
8351,note_on,191,0,1,,,,,,,,,,,,,,,0,,,55,0
8351,note_on,0,0,1,,,,,,,,,,,,,,,0,,,79,0
8352,note_on,0,0,1,,,,,,,,,,,,,,,0,,,79,127
8352,note_on,1,0,1,,,,,,,,,,,,,,,0,,,57,127
8415,note_on,63,0,1,,,,,,,,,,,,,,,0,,,79,0
8416,note_on,1,0,1,,,,,,,,,,,,,,,0,,,77,127
8479,note_on,63,0,1,,,,,,,,,,,,,,,0,,,77,0
8480,note_on,1,0,1,,,,,,,,,,,,,,,0,,,76,127
8543,note_on,63,0,1,,,,,,,,,,,,,,,0,,,76,0
8543,note_on,0,0,1,,,,,,,,,,,,,,,0,,,57,0
8544,note_on,1,0,1,,,,,,,,,,,,,,,0,,,59,127
8544,note_on,0,0,1,,,,,,,,,,,,,,,0,,,74,127
8735,note_on,191,0,1,,,,,,,,,,,,,,,0,,,74,0
8735,note_on,0,0,1,,,,,,,,,,,,,,,0,,,67,0
8735,note_on,0,0,1,,,,,,,,,,,,,,,0,,,62,0
8735,note_on,0,0,1,,,,,,,,,,,,,,,0,,,59,0
8736,note_on,1,0,1,,,,,,,,,,,,,,,0,,,60,127
8736,note_on,0,0,1,,,,,,,,,,,,,,,0,,,67,127
8736,note_on,0,0,1,,,,,,,,,,,,,,,0,,,76,127
8927,note_on,0,0,1,,,,,,,,,,,,,,,0,,,67,0
8927,note_on,191,0,1,,,,,,,,,,,,,,,0,,,76,0
8927,note_on,0,0,1,,,,,,,,,,,,,,,0,,,60,0
8928,note_on,1,0,1,,,,,,,,,,,,,,,0,,,64,127
8928,note_on,0,0,1,,,,,,,,,,,,,,,0,,,76,127
8928,note_on,0,0,1,,,,,,,,,,,,,,,0,,,84,127
9119,note_on,191,0,1,,,,,,,,,,,,,,,0,,,84,0
9119,note_on,0,0,1,,,,,,,,,,,,,,,0,,,76,0
9119,note_on,0,0,1,,,,,,,,,,,,,,,0,,,64,0
9120,note_on,1,0,1,,,,,,,,,,,,,,,0,,,60,127
9120,note_on,0,0,1,,,,,,,,,,,,,,,0,,,72,127
9120,note_on,0,0,1,,,,,,,,,,,,,,,0,,,84,127
9311,note_on,191,0,1,,,,,,,,,,,,,,,0,,,84,0
9311,note_on,0,0,1,,,,,,,,,,,,,,,0,,,72,0
9311,note_on,0,0,1,,,,,,,,,,,,,,,0,,,60,0
9312,note_on,1,0,1,,,,,,,,,,,,,,,0,,,57,127
9312,note_on,0,0,1,,,,,,,,,,,,,,,0,,,69,127
9312,note_on,0,0,1,,,,,,,,,,,,,,,0,,,84,127
9503,note_on,0,0,1,,,,,,,,,,,,,,,0,,,57,0
9503,note_on,0,0,1,,,,,,,,,,,,,,,0,,,69,0
9503,note_on,191,0,1,,,,,,,,,,,,,,,0,,,84,0
9504,note_on,1,0,1,,,,,,,,,,,,,,,0,,,54,127
9504,note_on,0,0,1,,,,,,,,,,,,,,,0,,,86,127
9504,note_on,0,0,1,,,,,,,,,,,,,,,0,,,66,127
9552,note_on,48,0,1,,,,,,,,,,,,,,,0,,,84,127
9566,note_on,14,0,1,,,,,,,,,,,,,,,0,,,86,0
9600,note_on,34,0,1,,,,,,,,,,,,,,,0,,,86,127
9614,note_on,14,0,1,,,,,,,,,,,,,,,0,,,84,0
9648,note_on,34,0,1,,,,,,,,,,,,,,,0,,,84,127
9662,note_on,14,0,1,,,,,,,,,,,,,,,0,,,86,0
9695,note_on,33,0,1,,,,,,,,,,,,,,,0,,,54,0
9695,note_on,0,0,1,,,,,,,,,,,,,,,0,,,66,0
9696,note_on,1,0,1,,,,,,,,,,,,,,,0,,,50,127
9696,note_on,0,0,1,,,,,,,,,,,,,,,0,,,62,127
9696,note_on,0,0,1,,,,,,,,,,,,,,,0,,,86,127
9710,note_on,14,0,1,,,,,,,,,,,,,,,0,,,84,0
9744,note_on,34,0,1,,,,,,,,,,,,,,,0,,,84,127
9758,note_on,14,0,1,,,,,,,,,,,,,,,0,,,86,0
9792,note_on,34,0,1,,,,,,,,,,,,,,,0,,,83,127
9806,note_on,14,0,1,,,,,,,,,,,,,,,0,,,84,0
9840,note_on,34,0,1,,,,,,,,,,,,,,,0,,,84,127
9854,note_on,14,0,1,,,,,,,,,,,,,,,0,,,83,0
9887,note_on,33,0,1,,,,,,,,,,,,,,,0,,,50,0
9887,note_on,0,0,1,,,,,,,,,,,,,,,0,,,62,0
9888,note_on,0,0,1,,,,,,,,,,,,,,,0,,,59,127
9888,note_on,1,0,1,,,,,,,,,,,,,,,0,,,47,127
9888,note_on,0,0,1,,,,,,,,,,,,,,,0,,,86,127
9902,note_on,14,0,1,,,,,,,,,,,,,,,0,,,84,0
10079,note_on,177,0,1,,,,,,,,,,,,,,,0,,,47,0
10079,note_on,0,0,1,,,,,,,,,,,,,,,0,,,59,0
10079,note_on,0,0,1,,,,,,,,,,,,,,,0,,,86,0
10080,note_on,1,0,1,,,,,,,,,,,,,,,0,,,62,127
10080,note_on,0,0,1,,,,,,,,,,,,,,,0,,,74,127
10080,note_on,0,0,1,,,,,,,,,,,,,,,0,,,83,127
10271,note_on,191,0,1,,,,,,,,,,,,,,,0,,,83,0
10271,note_on,0,0,1,,,,,,,,,,,,,,,0,,,74,0
10271,note_on,0,0,1,,,,,,,,,,,,,,,0,,,62,0
10272,note_on,1,0,1,,,,,,,,,,,,,,,0,,,59,127
10272,note_on,0,0,1,,,,,,,,,,,,,,,0,,,71,127
10272,note_on,0,0,1,,,,,,,,,,,,,,,0,,,83,127
10463,note_on,0,0,1,,,,,,,,,,,,,,,0,,,59,0
10463,note_on,191,0,1,,,,,,,,,,,,,,,0,,,83,0
10463,note_on,0,0,1,,,,,,,,,,,,,,,0,,,71,0
10464,note_on,1,0,1,,,,,,,,,,,,,,,0,,,55,127
10464,note_on,0,0,1,,,,,,,,,,,,,,,0,,,83,127
10464,note_on,0,0,1,,,,,,,,,,,,,,,0,,,67,127
10655,note_on,191,0,1,,,,,,,,,,,,,,,0,,,83,0
10655,note_on,0,0,1,,,,,,,,,,,,,,,0,,,67,0
10655,note_on,0,0,1,,,,,,,,,,,,,,,0,,,55,0
10656,note_on,1,0,1,,,,,,,,,,,,,,,0,,,52,127
10656,note_on,0,0,1,,,,,,,,,,,,,,,0,,,64,127
10656,note_on,0,0,1,,,,,,,,,,,,,,,0,,,84,127
10704,note_on,48,0,1,,,,,,,,,,,,,,,0,,,83,127
10718,note_on,14,0,1,,,,,,,,,,,,,,,0,,,84,0
10752,note_on,34,0,1,,,,,,,,,,,,,,,0,,,84,127
10766,note_on,14,0,1,,,,,,,,,,,,,,,0,,,83,0
10800,note_on,34,0,1,,,,,,,,,,,,,,,0,,,83,127
10814,note_on,14,0,1,,,,,,,,,,,,,,,0,,,84,0
10847,note_on,33,0,1,,,,,,,,,,,,,,,0,,,52,0
10847,note_on,0,0,1,,,,,,,,,,,,,,,0,,,64,0
10848,note_on,0,0,1,,,,,,,,,,,,,,,0,,,60,127
10848,note_on,1,0,1,,,,,,,,,,,,,,,0,,,48,127
10848,note_on,0,0,1,,,,,,,,,,,,,,,0,,,84,127
10862,note_on,14,0,1,,,,,,,,,,,,,,,0,,,83,0
10896,note_on,34,0,1,,,,,,,,,,,,,,,0,,,83,127
10910,note_on,14,0,1,,,,,,,,,,,,,,,0,,,84,0
10944,note_on,34,0,1,,,,,,,,,,,,,,,0,,,81,127
10958,note_on,14,0,1,,,,,,,,,,,,,,,0,,,83,0
10992,note_on,34,0,1,,,,,,,,,,,,,,,0,,,83,127
11006,note_on,14,0,1,,,,,,,,,,,,,,,0,,,81,0
11039,note_on,33,0,1,,,,,,,,,,,,,,,0,,,48,0
11039,note_on,0,0,1,,,,,,,,,,,,,,,0,,,60,0
11040,note_on,1,0,1,,,,,,,,,,,,,,,0,,,45,127
11040,note_on,0,0,1,,,,,,,,,,,,,,,0,,,57,127
11040,note_on,0,0,1,,,,,,,,,,,,,,,0,,,84,127
11054,note_on,14,0,1,,,,,,,,,,,,,,,0,,,83,0
11231,note_on,177,0,1,,,,,,,,,,,,,,,0,,,45,0
11231,note_on,0,0,1,,,,,,,,,,,,,,,0,,,57,0
11231,note_on,0,0,1,,,,,,,,,,,,,,,0,,,84,0
11232,note_on,0,0,1,,,,,,,,,,,,,,,0,,,81,127
11232,note_on,1,0,1,,,,,,,,,,,,,,,0,,,60,127
11232,note_on,0,0,1,,,,,,,,,,,,,,,0,,,72,127
11423,note_on,191,0,1,,,,,,,,,,,,,,,0,,,81,0
11423,note_on,0,0,1,,,,,,,,,,,,,,,0,,,72,0
11423,note_on,0,0,1,,,,,,,,,,,,,,,0,,,60,0
11424,note_on,1,0,1,,,,,,,,,,,,,,,0,,,57,127
11424,note_on,0,0,1,,,,,,,,,,,,,,,0,,,81,127
11424,note_on,0,0,1,,,,,,,,,,,,,,,0,,,69,127
11615,note_on,191,0,1,,,,,,,,,,,,,,,0,,,81,0
11615,note_on,0,0,1,,,,,,,,,,,,,,,0,,,69,0
11615,note_on,0,0,1,,,,,,,,,,,,,,,0,,,57,0
11616,note_on,1,0,1,,,,,,,,,,,,,,,0,,,54,127
11616,note_on,0,0,1,,,,,,,,,,,,,,,0,,,81,127
11616,note_on,0,0,1,,,,,,,,,,,,,,,0,,,66,127
11807,note_on,191,0,1,,,,,,,,,,,,,,,0,,,81,0
11807,note_on,0,0,1,,,,,,,,,,,,,,,0,,,66,0
11807,note_on,0,0,1,,,,,,,,,,,,,,,0,,,54,0
11808,note_on,1,0,1,,,,,,,,,,,,,,,0,,,50,127
11808,note_on,0,0,1,,,,,,,,,,,,,,,0,,,62,127
11808,note_on,0,0,1,,,,,,,,,,,,,,,0,,,83,127
11856,note_on,48,0,1,,,,,,,,,,,,,,,0,,,81,127
11870,note_on,14,0,1,,,,,,,,,,,,,,,0,,,83,0
11904,note_on,34,0,1,,,,,,,,,,,,,,,0,,,83,127
11918,note_on,14,0,1,,,,,,,,,,,,,,,0,,,81,0
11952,note_on,34,0,1,,,,,,,,,,,,,,,0,,,81,127
11966,note_on,14,0,1,,,,,,,,,,,,,,,0,,,83,0
11999,note_on,33,0,1,,,,,,,,,,,,,,,0,,,50,0
11999,note_on,0,0,1,,,,,,,,,,,,,,,0,,,62,0
12000,note_on,0,0,1,,,,,,,,,,,,,,,0,,,83,127
12000,note_on,0,0,1,,,,,,,,,,,,,,,0,,,59,127
12000,note_on,1,0,1,,,,,,,,,,,,,,,0,,,47,127
12014,note_on,14,0,1,,,,,,,,,,,,,,,0,,,81,0
12048,note_on,34,0,1,,,,,,,,,,,,,,,0,,,81,127
12062,note_on,14,0,1,,,,,,,,,,,,,,,0,,,83,0
12096,note_on,34,0,1,,,,,,,,,,,,,,,0,,,79,127
12110,note_on,14,0,1,,,,,,,,,,,,,,,0,,,81,0
12144,note_on,34,0,1,,,,,,,,,,,,,,,0,,,81,127
12158,note_on,14,0,1,,,,,,,,,,,,,,,0,,,79,0
12191,note_on,33,0,1,,,,,,,,,,,,,,,0,,,47,0
12191,note_on,0,0,1,,,,,,,,,,,,,,,0,,,59,0
12192,note_on,1,0,1,,,,,,,,,,,,,,,0,,,43,127
12192,note_on,0,0,1,,,,,,,,,,,,,,,0,,,55,127
12192,note_on,0,0,1,,,,,,,,,,,,,,,0,,,83,127
12206,note_on,14,0,1,,,,,,,,,,,,,,,0,,,81,0
12383,note_on,177,0,1,,,,,,,,,,,,,,,0,,,83,0
12383,note_on,0,0,1,,,,,,,,,,,,,,,0,,,55,0
12384,note_on,0,0,1,,,,,,,,,,,,,,,0,,,79,127
12384,note_on,1,0,1,,,,,,,,,,,,,,,0,,,57,127
12447,note_on,63,0,1,,,,,,,,,,,,,,,0,,,79,0
12448,note_on,1,0,1,,,,,,,,,,,,,,,0,,,78,127
12511,note_on,63,0,1,,,,,,,,,,,,,,,0,,,78,0
12512,note_on,1,0,1,,,,,,,,,,,,,,,0,,,76,127
12575,note_on,63,0,1,,,,,,,,,,,,,,,0,,,76,0
12575,note_on,0,0,1,,,,,,,,,,,,,,,0,,,57,0
12576,note_on,0,0,1,,,,,,,,,,,,,,,0,,,74,127
12576,note_on,1,0,1,,,,,,,,,,,,,,,0,,,59,127
12767,note_on,191,0,1,,,,,,,,,,,,,,,0,,,59,0
12767,note_on,0,0,1,,,,,,,,,,,,,,,0,,,43,0
12768,note_on,1,0,1,,,,,,,,,,,,,,,0,,,50,127
12768,note_on,0,0,1,,,,,,,,,,,,,,,0,,,62,127
12768,note_on,0,0,1,,,,,,,,,,,,,,,0,,,57,127
12959,note_on,191,0,1,,,,,,,,,,,,,,,0,,,50,0
12959,note_on,0,0,1,,,,,,,,,,,,,,,0,,,74,0
12960,note_on,1,0,1,,,,,,,,,,,,,,,0,,,52,127
12960,note_on,0,0,1,,,,,,,,,,,,,,,0,,,74,127
13023,note_on,63,0,1,,,,,,,,,,,,,,,0,,,74,0
13024,note_on,1,0,1,,,,,,,,,,,,,,,0,,,72,127
13087,note_on,63,0,1,,,,,,,,,,,,,,,0,,,72,0
13088,note_on,1,0,1,,,,,,,,,,,,,,,0,,,71,127
13151,note_on,63,0,1,,,,,,,,,,,,,,,0,,,71,0
13151,note_on,0,0,1,,,,,,,,,,,,,,,0,,,52,0
13152,note_on,1,0,1,,,,,,,,,,,,,,,0,,,54,127
13152,note_on,0,0,1,,,,,,,,,,,,,,,0,,,69,127
13343,note_on,0,0,1,,,,,,,,,,,,,,,0,,,57,0
13343,note_on,0,0,1,,,,,,,,,,,,,,,0,,,62,0
13343,note_on,191,0,1,,,,,,,,,,,,,,,0,,,54,0
13344,note_on,1,0,1,,,,,,,,,,,,,,,0,,,69,0
13344,note_on,0,0,1,,,,,,,,,,,,,,,0,,,55,127
13344,note_on,0,0,1,,,,,,,,,,,,,,,0,,,59,127
13344,note_on,0,0,1,,,,,,,,,,,,,,,0,,,62,127
13535,note_on,191,0,1,,,,,,,,,,,,,,,0,,,59,0
13536,note_on,1,0,1,,,,,,,,,,,,,,,0,,,57,127
13536,note_on,0,0,1,,,,,,,,,,,,,,,0,,,79,127
13599,note_on,63,0,1,,,,,,,,,,,,,,,0,,,79,0
13600,note_on,1,0,1,,,,,,,,,,,,,,,0,,,78,127
13663,note_on,63,0,1,,,,,,,,,,,,,,,0,,,78,0
13664,note_on,1,0,1,,,,,,,,,,,,,,,0,,,76,127
13727,note_on,63,0,1,,,,,,,,,,,,,,,0,,,76,0
13727,note_on,0,0,1,,,,,,,,,,,,,,,0,,,57,0
13728,note_on,1,0,1,,,,,,,,,,,,,,,0,,,59,127
13728,note_on,0,0,1,,,,,,,,,,,,,,,0,,,74,127
13919,note_on,191,0,1,,,,,,,,,,,,,,,0,,,59,0
13919,note_on,0,0,1,,,,,,,,,,,,,,,0,,,55,0
13919,note_on,0,0,1,,,,,,,,,,,,,,,0,,,62,0
13920,note_on,0,0,1,,,,,,,,,,,,,,,0,,,57,127
13920,note_on,1,0,1,,,,,,,,,,,,,,,0,,,50,127
13920,note_on,0,0,1,,,,,,,,,,,,,,,0,,,62,127
14111,note_on,0,0,1,,,,,,,,,,,,,,,0,,,74,0
14111,note_on,191,0,1,,,,,,,,,,,,,,,0,,,50,0
14112,note_on,1,0,1,,,,,,,,,,,,,,,0,,,52,127
14112,note_on,0,0,1,,,,,,,,,,,,,,,0,,,74,127
14175,note_on,63,0,1,,,,,,,,,,,,,,,0,,,74,0
14176,note_on,1,0,1,,,,,,,,,,,,,,,0,,,72,127
14239,note_on,63,0,1,,,,,,,,,,,,,,,0,,,72,0
14240,note_on,1,0,1,,,,,,,,,,,,,,,0,,,71,127
14303,note_on,63,0,1,,,,,,,,,,,,,,,0,,,71,0
14303,note_on,0,0,1,,,,,,,,,,,,,,,0,,,52,0
14304,note_on,1,0,1,,,,,,,,,,,,,,,0,,,54,127
14304,note_on,0,0,1,,,,,,,,,,,,,,,0,,,69,127
14495,note_on,0,0,1,,,,,,,,,,,,,,,0,,,54,0
14495,note_on,0,0,1,,,,,,,,,,,,,,,0,,,57,0
14495,note_on,191,0,1,,,,,,,,,,,,,,,0,,,69,0
14495,note_on,0,0,1,,,,,,,,,,,,,,,0,,,62,0
14496,note_on,1,0,1,,,,,,,,,,,,,,,0,,,55,127
14496,note_on,0,0,1,,,,,,,,,,,,,,,0,,,59,127
14496,note_on,0,0,1,,,,,,,,,,,,,,,0,,,62,127
14687,note_on,191,0,1,,,,,,,,,,,,,,,0,,,59,0
14688,note_on,1,0,1,,,,,,,,,,,,,,,0,,,57,127
14688,note_on,0,0,1,,,,,,,,,,,,,,,0,,,79,127
14751,note_on,63,0,1,,,,,,,,,,,,,,,0,,,79,0
14752,note_on,1,0,1,,,,,,,,,,,,,,,0,,,78,127
14815,note_on,63,0,1,,,,,,,,,,,,,,,0,,,78,0
14816,note_on,1,0,1,,,,,,,,,,,,,,,0,,,76,127
14879,note_on,63,0,1,,,,,,,,,,,,,,,0,,,76,0
14879,note_on,0,0,1,,,,,,,,,,,,,,,0,,,57,0
14880,note_on,1,0,1,,,,,,,,,,,,,,,0,,,59,127
14880,note_on,0,0,1,,,,,,,,,,,,,,,0,,,74,127
15071,note_on,0,0,1,,,,,,,,,,,,,,,0,,,62,0
15071,note_on,0,0,1,,,,,,,,,,,,,,,0,,,55,0
15071,note_on,191,0,1,,,,,,,,,,,,,,,0,,,59,0
15072,note_on,1,0,1,,,,,,,,,,,,,,,0,,,48,127
15072,note_on,0,0,1,,,,,,,,,,,,,,,0,,,60,127
15263,note_on,0,0,1,,,,,,,,,,,,,,,0,,,74,0
15263,note_on,191,0,1,,,,,,,,,,,,,,,0,,,48,0
15264,note_on,1,0,1,,,,,,,,,,,,,,,0,,,50,127
15264,note_on,0,0,1,,,,,,,,,,,,,,,0,,,76,127
15327,note_on,63,0,1,,,,,,,,,,,,,,,0,,,76,0
15328,note_on,1,0,1,,,,,,,,,,,,,,,0,,,78,127
15391,note_on,63,0,1,,,,,,,,,,,,,,,0,,,78,0
15392,note_on,1,0,1,,,,,,,,,,,,,,,0,,,79,127
15455,note_on,63,0,1,,,,,,,,,,,,,,,0,,,79,0
15455,note_on,0,0,1,,,,,,,,,,,,,,,0,,,50,0
15456,note_on,1,0,1,,,,,,,,,,,,,,,0,,,52,127
15456,note_on,0,0,1,,,,,,,,,,,,,,,0,,,81,127
15519,note_on,63,0,1,,,,,,,,,,,,,,,0,,,81,0
15520,note_on,1,0,1,,,,,,,,,,,,,,,0,,,83,127
15583,note_on,63,0,1,,,,,,,,,,,,,,,0,,,83,0
15584,note_on,1,0,1,,,,,,,,,,,,,,,0,,,84,127
15647,note_on,0,0,1,,,,,,,,,,,,,,,0,,,60,0
15647,note_on,63,0,1,,,,,,,,,,,,,,,0,,,84,0
15647,note_on,0,0,1,,,,,,,,,,,,,,,0,,,52,0
15648,note_on,1,0,1,,,,,,,,,,,,,,,0,,,54,127
15648,note_on,0,0,1,,,,,,,,,,,,,,,0,,,74,127
15839,note_on,0,0,1,,,,,,,,,,,,,,,0,,,54,0
15839,note_on,191,0,1,,,,,,,,,,,,,,,0,,,74,0
15840,note_on,1,0,1,,,,,,,,,,,,,,,0,,,50,127
15840,note_on,0,0,1,,,,,,,,,,,,,,,0,,,84,127
16031,note_on,191,0,1,,,,,,,,,,,,,,,0,,,84,0
16031,note_on,0,0,1,,,,,,,,,,,,,,,0,,,50,0
16032,note_on,0,0,1,,,,,,,,,,,,,,,0,,,83,127
16032,note_on,1,0,1,,,,,,,,,,,,,,,0,,,55,127
16223,note_on,191,0,1,,,,,,,,,,,,,,,0,,,83,0
16223,note_on,0,0,1,,,,,,,,,,,,,,,0,,,55,0
16224,note_on,1,0,1,,,,,,,,,,,,,,,0,,,48,127
16224,note_on,0,0,1,,,,,,,,,,,,,,,0,,,72,127
16224,note_on,0,0,1,,,,,,,,,,,,,,,0,,,81,127
16415,note_on,0,0,1,,,,,,,,,,,,,,,0,,,48,0
16415,note_on,0,0,1,,,,,,,,,,,,,,,0,,,72,0
16415,note_on,191,0,1,,,,,,,,,,,,,,,0,,,81,0
16416,note_on,1,0,1,,,,,,,,,,,,,,,0,,,50,127
16416,note_on,0,0,1,,,,,,,,,,,,,,,0,,,71,127
16416,note_on,0,0,1,,,,,,,,,,,,,,,0,,,79,127
16607,note_on,191,0,1,,,,,,,,,,,,,,,0,,,71,0
16607,note_on,0,0,1,,,,,,,,,,,,,,,0,,,79,0
16608,note_on,1,0,1,,,,,,,,,,,,,,,0,,,38,127
16608,note_on,0,0,1,,,,,,,,,,,,,,,0,,,78,127
16608,note_on,0,0,1,,,,,,,,,,,,,,,0,,,69,127
16799,note_on,0,0,1,,,,,,,,,,,,,,,0,,,50,0
16799,note_on,0,0,1,,,,,,,,,,,,,,,0,,,38,0
16799,note_on,0,0,1,,,,,,,,,,,,,,,0,,,78,0
16799,note_on,191,0,1,,,,,,,,,,,,,,,0,,,69,0
16800,note_on,1,0,1,,,,,,,,,,,,,,,0,,,43,127
16800,note_on,0,0,1,,,,,,,,,,,,,,,0,,,79,127
16800,note_on,0,0,1,,,,,,,,,,,,,,,0,,,67,127
16991,note_on,191,0,1,,,,,,,,,,,,,,,0,,,67,0
16991,note_on,0,0,1,,,,,,,,,,,,,,,0,,,79,0
16992,note_on,1,0,1,,,,,,,,,,,,,,,0,,,74,127
17183,note_on,191,0,1,,,,,,,,,,,,,,,0,,,74,0
17184,note_on,1,0,1,,,,,,,,,,,,,,,0,,,74,127
17375,note_on,191,0,1,,,,,,,,,,,,,,,0,,,74,0
17375,note_on,0,0,1,,,,,,,,,,,,,,,0,,,43,0
17376,note_on,1,0,1,,,,,,,,,,,,,,,0,,,74,127
17568,note_on,0,0,1,,,,,,,,,,,,,,,0,,,70,127
17568,note_on,192,0,1,,,,,,,,,,,,,,,0,,,67,127
17759,note_on,0,0,1,,,,,,,,,,,,,,,0,,,67,0
17759,note_on,191,0,1,,,,,,,,,,,,,,,0,,,70,0
17759,note_on,0,0,1,,,,,,,,,,,,,,,0,,,74,0
17760,note_on,0,0,1,,,,,,,,,,,,,,,0,,,74,127
17760,note_on,1,0,1,,,,,,,,,,,,,,,0,,,67,127
17951,note_on,191,0,1,,,,,,,,,,,,,,,0,,,74,0
17951,note_on,0,0,1,,,,,,,,,,,,,,,0,,,67,0
17952,note_on,1,0,1,,,,,,,,,,,,,,,0,,,67,127
17952,note_on,0,0,1,,,,,,,,,,,,,,,0,,,74,127
18143,note_on,191,0,1,,,,,,,,,,,,,,,0,,,67,0
18144,note_on,1,0,1,,,,,,,,,,,,,,,0,,,67,127
18144,note_on,0,0,1,,,,,,,,,,,,,,,0,,,86,127
18335,note_on,191,0,1,,,,,,,,,,,,,,,0,,,86,0
18335,note_on,0,0,1,,,,,,,,,,,,,,,0,,,67,0
18336,note_on,1,0,1,,,,,,,,,,,,,,,0,,,67,127
18336,note_on,0,0,1,,,,,,,,,,,,,,,0,,,82,127
18527,note_on,0,0,1,,,,,,,,,,,,,,,0,,,67,0
18527,note_on,191,0,1,,,,,,,,,,,,,,,0,,,82,0
18528,note_on,1,0,1,,,,,,,,,,,,,,,0,,,67,127
18528,note_on,0,0,1,,,,,,,,,,,,,,,0,,,78,127
18719,note_on,0,0,1,,,,,,,,,,,,,,,0,,,67,0
18719,note_on,191,0,1,,,,,,,,,,,,,,,0,,,78,0
18720,note_on,1,0,1,,,,,,,,,,,,,,,0,,,63,127
18720,note_on,0,0,1,,,,,,,,,,,,,,,0,,,79,127
18911,note_on,191,0,1,,,,,,,,,,,,,,,0,,,63,0
18912,note_on,1,0,1,,,,,,,,,,,,,,,0,,,74,0
18912,note_on,0,0,1,,,,,,,,,,,,,,,0,,,60,127
18912,note_on,0,0,1,,,,,,,,,,,,,,,0,,,75,127
19103,note_on,191,0,1,,,,,,,,,,,,,,,0,,,75,0
19103,note_on,0,0,1,,,,,,,,,,,,,,,0,,,60,0
19104,note_on,0,0,1,,,,,,,,,,,,,,,0,,,73,127
19104,note_on,1,0,1,,,,,,,,,,,,,,,0,,,58,127
19295,note_on,191,0,1,,,,,,,,,,,,,,,0,,,73,0
19295,note_on,0,0,1,,,,,,,,,,,,,,,0,,,58,0
19296,note_on,1,0,1,,,,,,,,,,,,,,,0,,,55,127
19296,note_on,0,0,1,,,,,,,,,,,,,,,0,,,74,127
19487,note_on,191,0,1,,,,,,,,,,,,,,,0,,,74,0
19487,note_on,0,0,1,,,,,,,,,,,,,,,0,,,79,0
19488,note_on,1,0,1,,,,,,,,,,,,,,,0,,,74,127
19679,note_on,191,0,1,,,,,,,,,,,,,,,0,,,74,0
19680,note_on,1,0,1,,,,,,,,,,,,,,,0,,,74,127
19871,note_on,191,0,1,,,,,,,,,,,,,,,0,,,55,0
19872,note_on,1,0,1,,,,,,,,,,,,,,,0,,,67,127
19872,note_on,0,0,1,,,,,,,,,,,,,,,0,,,70,127
20063,note_on,191,0,1,,,,,,,,,,,,,,,0,,,70,0
20063,note_on,0,0,1,,,,,,,,,,,,,,,0,,,67,0
20063,note_on,0,0,1,,,,,,,,,,,,,,,0,,,74,0
20064,note_on,1,0,1,,,,,,,,,,,,,,,0,,,67,127
20064,note_on,0,0,1,,,,,,,,,,,,,,,0,,,74,127
20255,note_on,0,0,1,,,,,,,,,,,,,,,0,,,67,0
20255,note_on,191,0,1,,,,,,,,,,,,,,,0,,,74,0
20256,note_on,1,0,1,,,,,,,,,,,,,,,0,,,67,127
20256,note_on,0,0,1,,,,,,,,,,,,,,,0,,,74,127
20447,note_on,191,0,1,,,,,,,,,,,,,,,0,,,67,0
20448,note_on,1,0,1,,,,,,,,,,,,,,,0,,,67,127
20448,note_on,0,0,1,,,,,,,,,,,,,,,0,,,86,127
20639,note_on,191,0,1,,,,,,,,,,,,,,,0,,,86,0
20639,note_on,0,0,1,,,,,,,,,,,,,,,0,,,67,0
20640,note_on,0,0,1,,,,,,,,,,,,,,,0,,,82,127
20640,note_on,1,0,1,,,,,,,,,,,,,,,0,,,67,127
20831,note_on,191,0,1,,,,,,,,,,,,,,,0,,,82,0
20831,note_on,0,0,1,,,,,,,,,,,,,,,0,,,67,0
20832,note_on,1,0,1,,,,,,,,,,,,,,,0,,,67,127
20832,note_on,0,0,1,,,,,,,,,,,,,,,0,,,78,127
21023,note_on,0,0,1,,,,,,,,,,,,,,,0,,,67,0
21023,note_on,191,0,1,,,,,,,,,,,,,,,0,,,78,0
21024,note_on,1,0,1,,,,,,,,,,,,,,,0,,,63,127
21024,note_on,0,0,1,,,,,,,,,,,,,,,0,,,79,127
21215,note_on,191,0,1,,,,,,,,,,,,,,,0,,,63,0
21215,note_on,0,0,1,,,,,,,,,,,,,,,0,,,74,0
21216,note_on,1,0,1,,,,,,,,,,,,,,,0,,,60,127
21216,note_on,0,0,1,,,,,,,,,,,,,,,0,,,75,127
21407,note_on,191,0,1,,,,,,,,,,,,,,,0,,,75,0
21407,note_on,0,0,1,,,,,,,,,,,,,,,0,,,60,0
21408,note_on,1,0,1,,,,,,,,,,,,,,,0,,,58,127
21408,note_on,0,0,1,,,,,,,,,,,,,,,0,,,73,127
21599,note_on,191,0,1,,,,,,,,,,,,,,,0,,,73,0
21599,note_on,0,0,1,,,,,,,,,,,,,,,0,,,58,0
21600,note_on,1,0,1,,,,,,,,,,,,,,,0,,,55,127
21600,note_on,0,0,1,,,,,,,,,,,,,,,0,,,74,127
21791,note_on,0,0,1,,,,,,,,,,,,,,,0,,,55,0
21791,note_on,0,0,1,,,,,,,,,,,,,,,0,,,79,0
21791,note_on,191,0,1,,,,,,,,,,,,,,,0,,,74,0
21792,note_on,1,0,1,,,,,,,,,,,,,,,0,,,55,127
21792,note_on,0,0,1,,,,,,,,,,,,,,,0,,,82,127
21792,note_on,0,0,1,,,,,,,,,,,,,,,0,,,74,127
21983,note_on,191,0,1,,,,,,,,,,,,,,,0,,,74,0
21983,note_on,0,0,1,,,,,,,,,,,,,,,0,,,82,0
21983,note_on,0,0,1,,,,,,,,,,,,,,,0,,,55,0
21984,note_on,1,0,1,,,,,,,,,,,,,,,0,,,60,127
21984,note_on,0,0,1,,,,,,,,,,,,,,,0,,,48,127
21984,note_on,0,0,1,,,,,,,,,,,,,,,0,,,81,127
21984,note_on,0,0,1,,,,,,,,,,,,,,,0,,,72,127
22175,note_on,191,0,1,,,,,,,,,,,,,,,0,,,72,0
22175,note_on,0,0,1,,,,,,,,,,,,,,,0,,,60,0
22175,note_on,0,0,1,,,,,,,,,,,,,,,0,,,48,0
22175,note_on,0,0,1,,,,,,,,,,,,,,,0,,,81,0
22176,note_on,0,0,1,,,,,,,,,,,,,,,0,,,69,127
22176,note_on,1,0,1,,,,,,,,,,,,,,,0,,,62,127
22176,note_on,0,0,1,,,,,,,,,,,,,,,0,,,78,127
22176,note_on,0,0,1,,,,,,,,,,,,,,,0,,,50,127
22367,note_on,0,0,1,,,,,,,,,,,,,,,0,,,50,0
22367,note_on,0,0,1,,,,,,,,,,,,,,,0,,,78,0
22367,note_on,0,0,1,,,,,,,,,,,,,,,0,,,62,0
22367,note_on,191,0,1,,,,,,,,,,,,,,,0,,,69,0
22368,note_on,1,0,1,,,,,,,,,,,,,,,0,,,63,127
22368,note_on,0,0,1,,,,,,,,,,,,,,,0,,,51,127
22368,note_on,0,0,1,,,,,,,,,,,,,,,0,,,70,127
22368,note_on,0,0,1,,,,,,,,,,,,,,,0,,,79,127
22559,note_on,191,0,1,,,,,,,,,,,,,,,0,,,79,0
22559,note_on,0,0,1,,,,,,,,,,,,,,,0,,,63,0
22559,note_on,0,0,1,,,,,,,,,,,,,,,0,,,51,0
22559,note_on,0,0,1,,,,,,,,,,,,,,,0,,,70,0
22560,note_on,1,0,1,,,,,,,,,,,,,,,0,,,48,127
22560,note_on,0,0,1,,,,,,,,,,,,,,,0,,,60,127
22560,note_on,0,0,1,,,,,,,,,,,,,,,0,,,81,127
22560,note_on,0,0,1,,,,,,,,,,,,,,,0,,,72,127
22751,note_on,0,0,1,,,,,,,,,,,,,,,0,,,81,0
22751,note_on,191,0,1,,,,,,,,,,,,,,,0,,,72,0
22751,note_on,0,0,1,,,,,,,,,,,,,,,0,,,48,0
22751,note_on,0,0,1,,,,,,,,,,,,,,,0,,,60,0
22752,note_on,0,0,1,,,,,,,,,,,,,,,0,,,78,127
22752,note_on,0,0,1,,,,,,,,,,,,,,,0,,,69,127
22752,note_on,1,0,1,,,,,,,,,,,,,,,0,,,50,127
22752,note_on,0,0,1,,,,,,,,,,,,,,,0,,,62,127
22943,note_on,191,0,1,,,,,,,,,,,,,,,0,,,69,0
22943,note_on,0,0,1,,,,,,,,,,,,,,,0,,,50,0
22943,note_on,0,0,1,,,,,,,,,,,,,,,0,,,62,0
22943,note_on,0,0,1,,,,,,,,,,,,,,,0,,,78,0
22944,note_on,0,0,1,,,,,,,,,,,,,,,0,,,51,127
22944,note_on,0,0,1,,,,,,,,,,,,,,,0,,,70,127
22944,note_on,0,0,1,,,,,,,,,,,,,,,0,,,79,127
22944,note_on,1,0,1,,,,,,,,,,,,,,,0,,,63,127
23135,note_on,191,0,1,,,,,,,,,,,,,,,0,,,79,0
23135,note_on,0,0,1,,,,,,,,,,,,,,,0,,,63,0
23135,note_on,0,0,1,,,,,,,,,,,,,,,0,,,51,0
23135,note_on,0,0,1,,,,,,,,,,,,,,,0,,,70,0
23136,note_on,0,0,1,,,,,,,,,,,,,,,0,,,72,127
23136,note_on,0,0,1,,,,,,,,,,,,,,,0,,,48,127
23136,note_on,0,0,1,,,,,,,,,,,,,,,0,,,81,127
23136,note_on,1,0,1,,,,,,,,,,,,,,,0,,,60,127
23327,note_on,0,0,1,,,,,,,,,,,,,,,0,,,81,0
23327,note_on,0,0,1,,,,,,,,,,,,,,,0,,,60,0
23327,note_on,191,0,1,,,,,,,,,,,,,,,0,,,72,0
23327,note_on,0,0,1,,,,,,,,,,,,,,,0,,,48,0
23328,note_on,0,0,1,,,,,,,,,,,,,,,0,,,69,127
23328,note_on,1,0,1,,,,,,,,,,,,,,,0,,,50,127
23328,note_on,0,0,1,,,,,,,,,,,,,,,0,,,62,127
23328,note_on,0,0,1,,,,,,,,,,,,,,,0,,,78,127
23519,note_on,0,0,1,,,,,,,,,,,,,,,0,,,78,0
23519,note_on,191,0,1,,,,,,,,,,,,,,,0,,,69,0
23519,note_on,0,0,1,,,,,,,,,,,,,,,0,,,62,0
23519,note_on,0,0,1,,,,,,,,,,,,,,,0,,,50,0
23520,note_on,0,0,1,,,,,,,,,,,,,,,0,,,79,127
23520,note_on,1,0,1,,,,,,,,,,,,,,,0,,,63,127
23520,note_on,0,0,1,,,,,,,,,,,,,,,0,,,51,127
23520,note_on,0,0,1,,,,,,,,,,,,,,,0,,,70,127
23711,note_on,0,0,1,,,,,,,,,,,,,,,0,,,70,0
23711,note_on,191,0,1,,,,,,,,,,,,,,,0,,,79,0
23711,note_on,0,0,1,,,,,,,,,,,,,,,0,,,51,0
23711,note_on,0,0,1,,,,,,,,,,,,,,,0,,,63,0
23712,note_on,1,0,1,,,,,,,,,,,,,,,0,,,60,127
23712,note_on,0,0,1,,,,,,,,,,,,,,,0,,,48,127
23712,note_on,0,0,1,,,,,,,,,,,,,,,0,,,81,127
23712,note_on,0,0,1,,,,,,,,,,,,,,,0,,,72,127
23903,note_on,191,0,1,,,,,,,,,,,,,,,0,,,72,0
23903,note_on,0,0,1,,,,,,,,,,,,,,,0,,,60,0
23903,note_on,0,0,1,,,,,,,,,,,,,,,0,,,48,0
23903,note_on,0,0,1,,,,,,,,,,,,,,,0,,,81,0
23904,note_on,1,0,1,,,,,,,,,,,,,,,0,,,62,127
23904,note_on,0,0,1,,,,,,,,,,,,,,,0,,,50,127
23904,note_on,0,0,1,,,,,,,,,,,,,,,0,,,78,127
23904,note_on,0,0,1,,,,,,,,,,,,,,,0,,,69,127
24095,note_on,0,0,1,,,,,,,,,,,,,,,0,,,78,0
24095,note_on,191,0,1,,,,,,,,,,,,,,,0,,,69,0
24095,note_on,0,0,1,,,,,,,,,,,,,,,0,,,50,0
24095,note_on,0,0,1,,,,,,,,,,,,,,,0,,,62,0
24096,note_on,1,0,1,,,,,,,,,,,,,,,0,,,51,127
24096,note_on,0,0,1,,,,,,,,,,,,,,,0,,,63,127
24096,note_on,0,0,1,,,,,,,,,,,,,,,0,,,70,127
24096,note_on,0,0,1,,,,,,,,,,,,,,,0,,,79,127
24287,note_on,191,0,1,,,,,,,,,,,,,,,0,,,79,0
24287,note_on,0,0,1,,,,,,,,,,,,,,,0,,,51,0
24287,note_on,0,0,1,,,,,,,,,,,,,,,0,,,63,0
24287,note_on,0,0,1,,,,,,,,,,,,,,,0,,,70,0
24288,note_on,1,0,1,,,,,,,,,,,,,,,0,,,62,127
24288,note_on,0,0,1,,,,,,,,,,,,,,,0,,,50,127
24288,note_on,0,0,1,,,,,,,,,,,,,,,0,,,81,127
24479,note_on,191,0,1,,,,,,,,,,,,,,,0,,,81,0
24479,note_on,0,0,1,,,,,,,,,,,,,,,0,,,50,0
24480,note_on,0,0,1,,,,,,,,,,,,,,,0,,,74,127
24480,note_on,1,0,1,,,,,,,,,,,,,,,0,,,52,127
24543,note_on,63,0,1,,,,,,,,,,,,,,,0,,,74,0
24544,note_on,1,0,1,,,,,,,,,,,,,,,0,,,72,127
24607,note_on,63,0,1,,,,,,,,,,,,,,,0,,,72,0
24608,note_on,1,0,1,,,,,,,,,,,,,,,0,,,71,127
24671,note_on,63,0,1,,,,,,,,,,,,,,,0,,,71,0
24671,note_on,0,0,1,,,,,,,,,,,,,,,0,,,52,0
24672,note_on,0,0,1,,,,,,,,,,,,,,,0,,,69,127
24672,note_on,1,0,1,,,,,,,,,,,,,,,0,,,54,127
24863,note_on,191,0,1,,,,,,,,,,,,,,,0,,,69,0
24863,note_on,0,0,1,,,,,,,,,,,,,,,0,,,54,0
24863,note_on,0,0,1,,,,,,,,,,,,,,,0,,,62,0
24864,note_on,1,0,1,,,,,,,,,,,,,,,0,,,62,127
24864,note_on,0,0,1,,,,,,,,,,,,,,,0,,,59,127
24864,note_on,0,0,1,,,,,,,,,,,,,,,0,,,55,127
25055,note_on,191,0,1,,,,,,,,,,,,,,,0,,,59,0
25056,note_on,1,0,1,,,,,,,,,,,,,,,0,,,57,127
25056,note_on,0,0,1,,,,,,,,,,,,,,,0,,,79,127
25119,note_on,63,0,1,,,,,,,,,,,,,,,0,,,79,0
25120,note_on,1,0,1,,,,,,,,,,,,,,,0,,,78,127
25183,note_on,63,0,1,,,,,,,,,,,,,,,0,,,78,0
25184,note_on,1,0,1,,,,,,,,,,,,,,,0,,,76,127
25247,note_on,0,0,1,,,,,,,,,,,,,,,0,,,57,0
25247,note_on,63,0,1,,,,,,,,,,,,,,,0,,,76,0
25248,note_on,1,0,1,,,,,,,,,,,,,,,0,,,59,127
25248,note_on,0,0,1,,,,,,,,,,,,,,,0,,,74,127
25439,note_on,191,0,1,,,,,,,,,,,,,,,0,,,59,0
25439,note_on,0,0,1,,,,,,,,,,,,,,,0,,,62,0
25439,note_on,0,0,1,,,,,,,,,,,,,,,0,,,55,0
25440,note_on,1,0,1,,,,,,,,,,,,,,,0,,,62,127
25440,note_on,0,0,1,,,,,,,,,,,,,,,0,,,57,127
25440,note_on,0,0,1,,,,,,,,,,,,,,,0,,,50,127
25631,note_on,191,0,1,,,,,,,,,,,,,,,0,,,50,0
25631,note_on,0,0,1,,,,,,,,,,,,,,,0,,,74,0
25632,note_on,1,0,1,,,,,,,,,,,,,,,0,,,52,127
25632,note_on,0,0,1,,,,,,,,,,,,,,,0,,,74,127
25695,note_on,63,0,1,,,,,,,,,,,,,,,0,,,74,0
25696,note_on,1,0,1,,,,,,,,,,,,,,,0,,,72,127
25759,note_on,63,0,1,,,,,,,,,,,,,,,0,,,72,0
25760,note_on,1,0,1,,,,,,,,,,,,,,,0,,,71,127
25823,note_on,0,0,1,,,,,,,,,,,,,,,0,,,52,0
25823,note_on,63,0,1,,,,,,,,,,,,,,,0,,,71,0
25824,note_on,0,0,1,,,,,,,,,,,,,,,0,,,69,127
25824,note_on,1,0,1,,,,,,,,,,,,,,,0,,,54,127
26015,note_on,0,0,1,,,,,,,,,,,,,,,0,,,54,0
26015,note_on,191,0,1,,,,,,,,,,,,,,,0,,,69,0
26015,note_on,0,0,1,,,,,,,,,,,,,,,0,,,62,0
26015,note_on,0,0,1,,,,,,,,,,,,,,,0,,,57,0
26016,note_on,1,0,1,,,,,,,,,,,,,,,0,,,62,127
26016,note_on,0,0,1,,,,,,,,,,,,,,,0,,,59,127
26016,note_on,0,0,1,,,,,,,,,,,,,,,0,,,55,127
26207,note_on,191,0,1,,,,,,,,,,,,,,,0,,,59,0
26208,note_on,1,0,1,,,,,,,,,,,,,,,0,,,57,127
26208,note_on,0,0,1,,,,,,,,,,,,,,,0,,,79,127
26271,note_on,63,0,1,,,,,,,,,,,,,,,0,,,79,0
26272,note_on,1,0,1,,,,,,,,,,,,,,,0,,,78,127
26335,note_on,63,0,1,,,,,,,,,,,,,,,0,,,78,0
26336,note_on,1,0,1,,,,,,,,,,,,,,,0,,,76,127
26399,note_on,63,0,1,,,,,,,,,,,,,,,0,,,76,0
26399,note_on,0,0,1,,,,,,,,,,,,,,,0,,,57,0
26400,note_on,1,0,1,,,,,,,,,,,,,,,0,,,59,127
26400,note_on,0,0,1,,,,,,,,,,,,,,,0,,,74,127
26591,note_on,0,0,1,,,,,,,,,,,,,,,0,,,55,0
26591,note_on,0,0,1,,,,,,,,,,,,,,,0,,,62,0
26591,note_on,191,0,1,,,,,,,,,,,,,,,0,,,59,0
26592,note_on,1,0,1,,,,,,,,,,,,,,,0,,,60,127
26592,note_on,0,0,1,,,,,,,,,,,,,,,0,,,48,127
26655,note_on,63,0,1,,,,,,,,,,,,,,,0,,,74,0
26656,note_on,1,0,1,,,,,,,,,,,,,,,0,,,79,127
26719,note_on,63,0,1,,,,,,,,,,,,,,,0,,,79,0
26720,note_on,1,0,1,,,,,,,,,,,,,,,0,,,78,127
26783,note_on,63,0,1,,,,,,,,,,,,,,,0,,,78,0
26783,note_on,0,0,1,,,,,,,,,,,,,,,0,,,48,0
26784,note_on,1,0,1,,,,,,,,,,,,,,,0,,,50,127
26784,note_on,0,0,1,,,,,,,,,,,,,,,0,,,76,127
26847,note_on,63,0,1,,,,,,,,,,,,,,,0,,,76,0
26848,note_on,1,0,1,,,,,,,,,,,,,,,0,,,78,127
26911,note_on,63,0,1,,,,,,,,,,,,,,,0,,,78,0
26912,note_on,1,0,1,,,,,,,,,,,,,,,0,,,79,127
26975,note_on,63,0,1,,,,,,,,,,,,,,,0,,,79,0
26975,note_on,0,0,1,,,,,,,,,,,,,,,0,,,50,0
26976,note_on,0,0,1,,,,,,,,,,,,,,,0,,,81,127
26976,note_on,1,0,1,,,,,,,,,,,,,,,0,,,52,127
27039,note_on,63,0,1,,,,,,,,,,,,,,,0,,,81,0
27040,note_on,1,0,1,,,,,,,,,,,,,,,0,,,83,127
27103,note_on,63,0,1,,,,,,,,,,,,,,,0,,,83,0
27104,note_on,1,0,1,,,,,,,,,,,,,,,0,,,84,127
27167,note_on,63,0,1,,,,,,,,,,,,,,,0,,,84,0
27167,note_on,0,0,1,,,,,,,,,,,,,,,0,,,52,0
27167,note_on,0,0,1,,,,,,,,,,,,,,,0,,,60,0
27168,note_on,1,0,1,,,,,,,,,,,,,,,0,,,54,127
27168,note_on,0,0,1,,,,,,,,,,,,,,,0,,,74,127
27359,note_on,191,0,1,,,,,,,,,,,,,,,0,,,54,0
27360,note_on,1,0,1,,,,,,,,,,,,,,,0,,,50,127
27360,note_on,0,0,1,,,,,,,,,,,,,,,0,,,84,127
27551,note_on,191,0,1,,,,,,,,,,,,,,,0,,,84,0
27551,note_on,0,0,1,,,,,,,,,,,,,,,0,,,50,0
27552,note_on,1,0,1,,,,,,,,,,,,,,,0,,,55,127
27552,note_on,0,0,1,,,,,,,,,,,,,,,0,,,83,127
27743,note_on,0,0,1,,,,,,,,,,,,,,,0,,,74,0
27743,note_on,0,0,1,,,,,,,,,,,,,,,0,,,55,0
27743,note_on,191,0,1,,,,,,,,,,,,,,,0,,,83,0
27744,note_on,1,0,1,,,,,,,,,,,,,,,0,,,48,127
27744,note_on,0,0,1,,,,,,,,,,,,,,,0,,,81,127
27744,note_on,0,0,1,,,,,,,,,,,,,,,0,,,72,127
27935,note_on,191,0,1,,,,,,,,,,,,,,,0,,,72,0
27935,note_on,0,0,1,,,,,,,,,,,,,,,0,,,81,0
27935,note_on,0,0,1,,,,,,,,,,,,,,,0,,,48,0
27936,note_on,1,0,1,,,,,,,,,,,,,,,0,,,50,127
27936,note_on,0,0,1,,,,,,,,,,,,,,,0,,,79,127
27936,note_on,0,0,1,,,,,,,,,,,,,,,0,,,71,127
28127,note_on,191,0,1,,,,,,,,,,,,,,,0,,,71,0
28127,note_on,0,0,1,,,,,,,,,,,,,,,0,,,79,0
28128,note_on,1,0,1,,,,,,,,,,,,,,,0,,,38,127
28128,note_on,0,0,1,,,,,,,,,,,,,,,0,,,69,127
28128,note_on,0,0,1,,,,,,,,,,,,,,,0,,,78,127
28319,note_on,0,0,1,,,,,,,,,,,,,,,0,,,69,0
28319,note_on,0,0,1,,,,,,,,,,,,,,,0,,,38,0
28319,note_on,191,0,1,,,,,,,,,,,,,,,0,,,78,0
28319,note_on,0,0,1,,,,,,,,,,,,,,,0,,,50,0
28320,note_on,1,0,1,,,,,,,,,,,,,,,0,,,43,127
28448,note_on,128,0,1,,,,,,,,,,,,,,,0,,,78,127
28511,note_on,63,0,1,,,,,,,,,,,,,,,0,,,78,0
28512,note_on,1,0,1,,,,,,,,,,,,,,,0,,,79,127
28640,note_on,128,0,1,,,,,,,,,,,,,,,0,,,74,127
28703,note_on,0,0,1,,,,,,,,,,,,,,,0,,,43,0
28703,note_on,63,0,1,,,,,,,,,,,,,,,0,,,74,0
28704,note_on,0,0,1,,,,,,,,,,,,,,,0,,,76,127
28704,note_on,1,0,1,,,,,,,,,,,,,,,0,,,67,127
28831,note_on,127,0,1,,,,,,,,,,,,,,,0,,,76,0
28832,note_on,1,0,1,,,,,,,,,,,,,,,0,,,71,127
28895,note_on,0,0,1,,,,,,,,,,,,,,,0,,,67,0
28895,note_on,0,0,1,,,,,,,,,,,,,,,0,,,79,0
28895,note_on,63,0,1,,,,,,,,,,,,,,,0,,,71,0
28896,note_on,1,0,1,,,,,,,,,,,,,,,0,,,67,127
28896,note_on,0,0,1,,,,,,,,,,,,,,,0,,,72,127
29024,note_on,128,0,1,,,,,,,,,,,,,,,0,,,83,127
29087,note_on,0,0,1,,,,,,,,,,,,,,,0,,,67,0
29087,note_on,63,0,1,,,,,,,,,,,,,,,0,,,83,0
29088,note_on,1,0,1,,,,,,,,,,,,,,,0,,,67,127
29088,note_on,0,0,1,,,,,,,,,,,,,,,0,,,83,127
29120,note_on,32,0,1,,,,,,,,,,,,,,,0,,,81,127
29150,note_on,30,0,1,,,,,,,,,,,,,,,0,,,83,0
29152,note_on,2,0,1,,,,,,,,,,,,,,,0,,,83,127
29182,note_on,30,0,1,,,,,,,,,,,,,,,0,,,81,0
29184,note_on,2,0,1,,,,,,,,,,,,,,,0,,,81,127
29214,note_on,30,0,1,,,,,,,,,,,,,,,0,,,83,0
29279,note_on,65,0,1,,,,,,,,,,,,,,,0,,,72,0
29279,note_on,0,0,1,,,,,,,,,,,,,,,0,,,67,0
29280,note_on,1,0,1,,,,,,,,,,,,,,,0,,,66,127
29471,note_on,191,0,1,,,,,,,,,,,,,,,0,,,66,0
29472,note_on,1,0,1,,,,,,,,,,,,,,,0,,,55,127
29599,note_on,127,0,1,,,,,,,,,,,,,,,0,,,81,0
29600,note_on,1,0,1,,,,,,,,,,,,,,,0,,,78,127
29663,note_on,63,0,1,,,,,,,,,,,,,,,0,,,78,0
29664,note_on,1,0,1,,,,,,,,,,,,,,,0,,,79,127
29792,note_on,128,0,1,,,,,,,,,,,,,,,0,,,74,127
29855,note_on,63,0,1,,,,,,,,,,,,,,,0,,,74,0
29855,note_on,0,0,1,,,,,,,,,,,,,,,0,,,55,0
29856,note_on,1,0,1,,,,,,,,,,,,,,,0,,,67,127
29856,note_on,0,0,1,,,,,,,,,,,,,,,0,,,76,127
29983,note_on,127,0,1,,,,,,,,,,,,,,,0,,,76,0
29984,note_on,1,0,1,,,,,,,,,,,,,,,0,,,71,127
30047,note_on,0,0,1,,,,,,,,,,,,,,,0,,,67,0
30047,note_on,63,0,1,,,,,,,,,,,,,,,0,,,71,0
30047,note_on,0,0,1,,,,,,,,,,,,,,,0,,,79,0
30048,note_on,0,0,1,,,,,,,,,,,,,,,0,,,72,127
30048,note_on,1,0,1,,,,,,,,,,,,,,,0,,,67,127
30176,note_on,128,0,1,,,,,,,,,,,,,,,0,,,83,127
30239,note_on,0,0,1,,,,,,,,,,,,,,,0,,,67,0
30239,note_on,63,0,1,,,,,,,,,,,,,,,0,,,83,0
30240,note_on,1,0,1,,,,,,,,,,,,,,,0,,,67,127
30240,note_on,0,0,1,,,,,,,,,,,,,,,0,,,83,127
30272,note_on,32,0,1,,,,,,,,,,,,,,,0,,,81,127
30302,note_on,30,0,1,,,,,,,,,,,,,,,0,,,83,0
30304,note_on,2,0,1,,,,,,,,,,,,,,,0,,,83,127
30334,note_on,30,0,1,,,,,,,,,,,,,,,0,,,81,0
30336,note_on,2,0,1,,,,,,,,,,,,,,,0,,,81,127
30366,note_on,30,0,1,,,,,,,,,,,,,,,0,,,83,0
30431,note_on,65,0,1,,,,,,,,,,,,,,,0,,,72,0
30431,note_on,0,0,1,,,,,,,,,,,,,,,0,,,67,0
30432,note_on,1,0,1,,,,,,,,,,,,,,,0,,,66,127
30623,note_on,191,0,1,,,,,,,,,,,,,,,0,,,66,0
30624,note_on,0,0,1,,,,,,,,,,,,,,,0,,,55,127
30624,note_on,1,0,1,,,,,,,,,,,,,,,0,,,67,127
30751,note_on,127,0,1,,,,,,,,,,,,,,,0,,,81,0
30752,note_on,1,0,1,,,,,,,,,,,,,,,0,,,84,127
30815,note_on,63,0,1,,,,,,,,,,,,,,,0,,,84,0
30815,note_on,0,0,1,,,,,,,,,,,,,,,0,,,55,0
30816,note_on,1,0,1,,,,,,,,,,,,,,,0,,,57,127
30816,note_on,0,0,1,,,,,,,,,,,,,,,0,,,83,127
30943,note_on,127,0,1,,,,,,,,,,,,,,,0,,,83,0
30944,note_on,1,0,1,,,,,,,,,,,,,,,0,,,78,127
31007,note_on,63,0,1,,,,,,,,,,,,,,,0,,,78,0
31007,note_on,0,0,1,,,,,,,,,,,,,,,0,,,57,0
31008,note_on,1,0,1,,,,,,,,,,,,,,,0,,,59,127
31008,note_on,0,0,1,,,,,,,,,,,,,,,0,,,79,127
31135,note_on,127,0,1,,,,,,,,,,,,,,,0,,,79,0
31136,note_on,1,0,1,,,,,,,,,,,,,,,0,,,74,127
31199,note_on,0,0,1,,,,,,,,,,,,,,,0,,,67,0
31199,note_on,63,0,1,,,,,,,,,,,,,,,0,,,74,0
31199,note_on,0,0,1,,,,,,,,,,,,,,,0,,,59,0
31200,note_on,1,0,1,,,,,,,,,,,,,,,0,,,60,127
31200,note_on,0,0,1,,,,,,,,,,,,,,,0,,,48,127
31200,note_on,0,0,1,,,,,,,,,,,,,,,0,,,76,127
31327,note_on,127,0,1,,,,,,,,,,,,,,,0,,,76,0
31328,note_on,1,0,1,,,,,,,,,,,,,,,0,,,71,127
31391,note_on,0,0,1,,,,,,,,,,,,,,,0,,,48,0
31391,note_on,63,0,1,,,,,,,,,,,,,,,0,,,71,0
31392,note_on,1,0,1,,,,,,,,,,,,,,,0,,,50,127
31392,note_on,0,0,1,,,,,,,,,,,,,,,0,,,72,127
31519,note_on,127,0,1,,,,,,,,,,,,,,,0,,,72,0
31520,note_on,1,0,1,,,,,,,,,,,,,,,0,,,67,127
31583,note_on,63,0,1,,,,,,,,,,,,,,,0,,,67,0
31583,note_on,0,0,1,,,,,,,,,,,,,,,0,,,50,0
31584,note_on,1,0,1,,,,,,,,,,,,,,,0,,,52,127
31584,note_on,0,0,1,,,,,,,,,,,,,,,0,,,69,127
31711,note_on,127,0,1,,,,,,,,,,,,,,,0,,,69,0
31712,note_on,1,0,1,,,,,,,,,,,,,,,0,,,64,127
31775,note_on,63,0,1,,,,,,,,,,,,,,,0,,,64,0
31775,note_on,0,0,1,,,,,,,,,,,,,,,0,,,52,0
31775,note_on,0,0,1,,,,,,,,,,,,,,,0,,,60,0
31776,note_on,1,0,1,,,,,,,,,,,,,,,0,,,50,127
31776,note_on,0,0,1,,,,,,,,,,,,,,,0,,,66,127
31903,note_on,127,0,1,,,,,,,,,,,,,,,0,,,66,0
31904,note_on,1,0,1,,,,,,,,,,,,,,,0,,,69,127
31967,note_on,0,0,1,,,,,,,,,,,,,,,0,,,50,0
31967,note_on,63,0,1,,,,,,,,,,,,,,,0,,,69,0
31968,note_on,1,0,1,,,,,,,,,,,,,,,0,,,48,127
31968,note_on,0,0,1,,,,,,,,,,,,,,,0,,,62,127
32095,note_on,127,0,1,,,,,,,,,,,,,,,0,,,62,0
32096,note_on,1,0,1,,,,,,,,,,,,,,,0,,,66,127
32159,note_on,63,0,1,,,,,,,,,,,,,,,0,,,66,0
32159,note_on,0,0,1,,,,,,,,,,,,,,,0,,,48,0
32160,note_on,1,0,1,,,,,,,,,,,,,,,0,,,47,127
32160,note_on,0,0,1,,,,,,,,,,,,,,,0,,,67,127
32288,note_on,128,0,1,,,,,,,,,,,,,,,0,,,71,127
32351,note_on,63,0,1,,,,,,,,,,,,,,,0,,,71,0
32351,note_on,0,0,1,,,,,,,,,,,,,,,0,,,47,0
32352,note_on,1,0,1,,,,,,,,,,,,,,,0,,,48,127
32352,note_on,0,0,1,,,,,,,,,,,,,,,0,,,69,127
32479,note_on,127,0,1,,,,,,,,,,,,,,,0,,,69,0
32480,note_on,1,0,1,,,,,,,,,,,,,,,0,,,72,127
32543,note_on,0,0,1,,,,,,,,,,,,,,,0,,,48,0
32543,note_on,63,0,1,,,,,,,,,,,,,,,0,,,72,0
32544,note_on,1,0,1,,,,,,,,,,,,,,,0,,,50,127
32544,note_on,0,0,1,,,,,,,,,,,,,,,0,,,71,127
32735,note_on,0,0,1,,,,,,,,,,,,,,,0,,,67,0
32735,note_on,191,0,1,,,,,,,,,,,,,,,0,,,71,0
32736,note_on,1,0,1,,,,,,,,,,,,,,,0,,,38,127
32736,note_on,0,0,1,,,,,,,,,,,,,,,0,,,66,127
32736,note_on,0,0,1,,,,,,,,,,,,,,,0,,,71,127
32768,note_on,32,0,1,,,,,,,,,,,,,,,0,,,69,127
32798,note_on,30,0,1,,,,,,,,,,,,,,,0,,,71,0
32800,note_on,2,0,1,,,,,,,,,,,,,,,0,,,71,127
32830,note_on,30,0,1,,,,,,,,,,,,,,,0,,,69,0
32832,note_on,2,0,1,,,,,,,,,,,,,,,0,,,69,127
32862,note_on,30,0,1,,,,,,,,,,,,,,,0,,,71,0
32864,note_on,2,0,1,,,,,,,,,,,,,,,0,,,67,127
32894,note_on,30,0,1,,,,,,,,,,,,,,,0,,,69,0
32896,note_on,2,0,1,,,,,,,,,,,,,,,0,,,69,127
32926,note_on,30,0,1,,,,,,,,,,,,,,,0,,,67,0
32927,note_on,0,0,1,,,,,,,,,,,,,,,0,,,38,0
32927,note_on,1,0,1,,,,,,,,,,,,,,,0,,,66,0
32927,note_on,0,0,1,,,,,,,,,,,,,,,0,,,50,0
32928,note_on,1,0,1,,,,,,,,,,,,,,,0,,,43,127
32928,note_on,0,0,1,,,,,,,,,,,,,,,0,,,67,127
32958,note_on,30,0,1,,,,,,,,,,,,,,,0,,,69,0
33055,note_on,97,0,1,,,,,,,,,,,,,,,0,,,67,0
33056,note_on,1,0,1,,,,,,,,,,,,,,,0,,,71,127
33119,note_on,63,0,1,,,,,,,,,,,,,,,0,,,71,0
33119,note_on,0,0,1,,,,,,,,,,,,,,,0,,,43,0
33120,note_on,1,0,1,,,,,,,,,,,,,,,0,,,48,127
33120,note_on,0,0,1,,,,,,,,,,,,,,,0,,,36,127
33120,note_on,0,0,1,,,,,,,,,,,,,,,0,,,69,127
33311,note_on,191,0,1,,,,,,,,,,,,,,,0,,,69,0
33311,note_on,0,0,1,,,,,,,,,,,,,,,0,,,36,0
33311,note_on,0,0,1,,,,,,,,,,,,,,,0,,,48,0
33312,note_on,1,0,1,,,,,,,,,,,,,,,0,,,50,127
33312,note_on,0,0,1,,,,,,,,,,,,,,,0,,,38,127
33312,note_on,0,0,1,,,,,,,,,,,,,,,0,,,69,127
33312,note_on,0,0,1,,,,,,,,,,,,,,,0,,,67,127
33503,note_on,0,0,1,,,,,,,,,,,,,,,0,,,50,0
33503,note_on,191,0,1,,,,,,,,,,,,,,,0,,,38,0
33504,note_on,0,0,1,,,,,,,,,,,,,,,0,,,40,127
33504,note_on,1,0,1,,,,,,,,,,,,,,,0,,,52,127
33631,note_on,127,0,1,,,,,,,,,,,,,,,0,,,69,0
33631,note_on,0,0,1,,,,,,,,,,,,,,,0,,,67,0
33632,note_on,1,0,1,,,,,,,,,,,,,,,0,,,71,127
33695,note_on,63,0,1,,,,,,,,,,,,,,,0,,,71,0
33695,note_on,0,0,1,,,,,,,,,,,,,,,0,,,40,0
33695,note_on,0,0,1,,,,,,,,,,,,,,,0,,,52,0
33696,note_on,0,0,1,,,,,,,,,,,,,,,0,,,67,127
33696,note_on,1,0,1,,,,,,,,,,,,,,,0,,,48,127
33696,note_on,0,0,1,,,,,,,,,,,,,,,0,,,69,127
33696,note_on,0,0,1,,,,,,,,,,,,,,,0,,,36,127
33887,note_on,0,0,1,,,,,,,,,,,,,,,0,,,69,0
33887,note_on,191,0,1,,,,,,,,,,,,,,,0,,,67,0
33887,note_on,0,0,1,,,,,,,,,,,,,,,0,,,36,0
33887,note_on,0,0,1,,,,,,,,,,,,,,,0,,,48,0
33888,note_on,1,0,1,,,,,,,,,,,,,,,0,,,38,127
33888,note_on,0,0,1,,,,,,,,,,,,,,,0,,,50,127
33888,note_on,0,0,1,,,,,,,,,,,,,,,0,,,69,127
33888,note_on,0,0,1,,,,,,,,,,,,,,,0,,,67,127
34079,note_on,191,0,1,,,,,,,,,,,,,,,0,,,50,0
34079,note_on,0,0,1,,,,,,,,,,,,,,,0,,,38,0
34080,note_on,1,0,1,,,,,,,,,,,,,,,0,,,52,127
34080,note_on,0,0,1,,,,,,,,,,,,,,,0,,,40,127
34207,note_on,127,0,1,,,,,,,,,,,,,,,0,,,69,0
34207,note_on,0,0,1,,,,,,,,,,,,,,,0,,,67,0
34208,note_on,1,0,1,,,,,,,,,,,,,,,0,,,71,127
34271,note_on,0,0,1,,,,,,,,,,,,,,,0,,,40,0
34271,note_on,63,0,1,,,,,,,,,,,,,,,0,,,71,0
34271,note_on,0,0,1,,,,,,,,,,,,,,,0,,,52,0
34272,note_on,1,0,1,,,,,,,,,,,,,,,0,,,36,127
34272,note_on,0,0,1,,,,,,,,,,,,,,,0,,,48,127
34272,note_on,0,0,1,,,,,,,,,,,,,,,0,,,69,127
34272,note_on,0,0,1,,,,,,,,,,,,,,,0,,,67,127
34463,note_on,191,0,1,,,,,,,,,,,,,,,0,,,67,0
34463,note_on,0,0,1,,,,,,,,,,,,,,,0,,,36,0
34463,note_on,0,0,1,,,,,,,,,,,,,,,0,,,48,0
34463,note_on,0,0,1,,,,,,,,,,,,,,,0,,,69,0
34464,note_on,0,0,1,,,,,,,,,,,,,,,0,,,38,127
34464,note_on,0,0,1,,,,,,,,,,,,,,,0,,,69,127
34464,note_on,0,0,1,,,,,,,,,,,,,,,0,,,67,127
34464,note_on,1,0,1,,,,,,,,,,,,,,,0,,,50,127
34655,note_on,191,0,1,,,,,,,,,,,,,,,0,,,67,0
34655,note_on,0,0,1,,,,,,,,,,,,,,,0,,,50,0
34655,note_on,0,0,1,,,,,,,,,,,,,,,0,,,38,0
34655,note_on,0,0,1,,,,,,,,,,,,,,,0,,,69,0
34656,note_on,0,0,1,,,,,,,,,,,,,,,0,,,69,127
34656,note_on,0,0,1,,,,,,,,,,,,,,,0,,,67,127
34656,note_on,1,0,1,,,,,,,,,,,,,,,0,,,52,127
34719,note_on,63,0,1,,,,,,,,,,,,,,,0,,,69,0
34719,note_on,0,0,1,,,,,,,,,,,,,,,0,,,52,0
34720,note_on,0,0,1,,,,,,,,,,,,,,,0,,,71,127
34720,note_on,1,0,1,,,,,,,,,,,,,,,0,,,50,127
34783,note_on,63,0,1,,,,,,,,,,,,,,,0,,,71,0
34783,note_on,0,0,1,,,,,,,,,,,,,,,0,,,50,0
34784,note_on,0,0,1,,,,,,,,,,,,,,,0,,,72,127
34784,note_on,1,0,1,,,,,,,,,,,,,,,0,,,48,127
34847,note_on,63,0,1,,,,,,,,,,,,,,,0,,,72,0
34847,note_on,0,0,1,,,,,,,,,,,,,,,0,,,48,0
34848,note_on,1,0,1,,,,,,,,,,,,,,,0,,,50,127
34848,note_on,0,0,1,,,,,,,,,,,,,,,0,,,71,127
35039,note_on,0,0,1,,,,,,,,,,,,,,,0,,,67,0
35039,note_on,191,0,1,,,,,,,,,,,,,,,0,,,71,0
35040,note_on,1,0,1,,,,,,,,,,,,,,,0,,,38,127
35040,note_on,0,0,1,,,,,,,,,,,,,,,0,,,66,127
35040,note_on,0,0,1,,,,,,,,,,,,,,,0,,,71,127
35072,note_on,32,0,1,,,,,,,,,,,,,,,0,,,69,127
35102,note_on,30,0,1,,,,,,,,,,,,,,,0,,,71,0
35104,note_on,2,0,1,,,,,,,,,,,,,,,0,,,71,127
35134,note_on,30,0,1,,,,,,,,,,,,,,,0,,,69,0
35136,note_on,2,0,1,,,,,,,,,,,,,,,0,,,69,127
35166,note_on,30,0,1,,,,,,,,,,,,,,,0,,,71,0
35231,note_on,0,0,1,,,,,,,,,,,,,,,0,,,38,0
35231,note_on,0,0,1,,,,,,,,,,,,,,,0,,,69,0
35231,note_on,65,0,1,,,,,,,,,,,,,,,0,,,66,0
35231,note_on,0,0,1,,,,,,,,,,,,,,,0,,,50,0
35232,note_on,1,0,1,,,,,,,,,,,,,,,0,,,43,127
35232,note_on,0,0,1,,,,,,,,,,,,,,,0,,,79,127
35232,note_on,0,0,1,,,,,,,,,,,,,,,0,,,67,127
35423,note_on,0,0,1,,,,,,,,,,,,,,,0,,,79,0
35423,note_on,0,0,1,,,,,,,,,,,,,,,0,,,43,0
35423,note_on,191,0,1,,,,,,,,,,,,,,,0,,,67,0
35424,note_on,1,0,1,,,,,,,,,,,,,,,0,,,48,127
35424,note_on,0,0,1,,,,,,,,,,,,,,,0,,,36,127
35424,note_on,0,0,1,,,,,,,,,,,,,,,0,,,67,127
35424,note_on,0,0,1,,,,,,,,,,,,,,,0,,,69,127
35615,note_on,0,0,1,,,,,,,,,,,,,,,0,,,67,0
35615,note_on,0,0,1,,,,,,,,,,,,,,,0,,,36,0
35615,note_on,191,0,1,,,,,,,,,,,,,,,0,,,69,0
35615,note_on,0,0,1,,,,,,,,,,,,,,,0,,,48,0
35616,note_on,0,0,1,,,,,,,,,,,,,,,0,,,67,127
35616,note_on,1,0,1,,,,,,,,,,,,,,,0,,,50,127
35616,note_on,0,0,1,,,,,,,,,,,,,,,0,,,38,127
35616,note_on,0,0,1,,,,,,,,,,,,,,,0,,,69,127
35807,note_on,0,0,1,,,,,,,,,,,,,,,0,,,69,0
35807,note_on,191,0,1,,,,,,,,,,,,,,,0,,,67,0
35807,note_on,0,0,1,,,,,,,,,,,,,,,0,,,38,0
35807,note_on,0,0,1,,,,,,,,,,,,,,,0,,,50,0
35808,note_on,1,0,1,,,,,,,,,,,,,,,0,,,40,127
35808,note_on,0,0,1,,,,,,,,,,,,,,,0,,,52,127
35808,note_on,0,0,1,,,,,,,,,,,,,,,0,,,79,127
35999,note_on,191,0,1,,,,,,,,,,,,,,,0,,,79,0
35999,note_on,0,0,1,,,,,,,,,,,,,,,0,,,52,0
35999,note_on,0,0,1,,,,,,,,,,,,,,,0,,,40,0
36000,note_on,1,0,1,,,,,,,,,,,,,,,0,,,48,127
36000,note_on,0,0,1,,,,,,,,,,,,,,,0,,,36,127
36000,note_on,0,0,1,,,,,,,,,,,,,,,0,,,69,127
36000,note_on,0,0,1,,,,,,,,,,,,,,,0,,,67,127
36191,note_on,0,0,1,,,,,,,,,,,,,,,0,,,69,0
36191,note_on,0,0,1,,,,,,,,,,,,,,,0,,,36,0
36191,note_on,191,0,1,,,,,,,,,,,,,,,0,,,67,0
36191,note_on,0,0,1,,,,,,,,,,,,,,,0,,,48,0
36192,note_on,0,0,1,,,,,,,,,,,,,,,0,,,38,127
36192,note_on,0,0,1,,,,,,,,,,,,,,,0,,,67,127
36192,note_on,0,0,1,,,,,,,,,,,,,,,0,,,69,127
36192,note_on,1,0,1,,,,,,,,,,,,,,,0,,,50,127
36383,note_on,191,0,1,,,,,,,,,,,,,,,0,,,69,0
36383,note_on,0,0,1,,,,,,,,,,,,,,,0,,,50,0
36383,note_on,0,0,1,,,,,,,,,,,,,,,0,,,38,0
36383,note_on,0,0,1,,,,,,,,,,,,,,,0,,,67,0
36384,note_on,1,0,1,,,,,,,,,,,,,,,0,,,40,127
36384,note_on,0,0,1,,,,,,,,,,,,,,,0,,,52,127
36384,note_on,0,0,1,,,,,,,,,,,,,,,0,,,79,127
36575,note_on,191,0,1,,,,,,,,,,,,,,,0,,,79,0
36575,note_on,0,0,1,,,,,,,,,,,,,,,0,,,52,0
36575,note_on,0,0,1,,,,,,,,,,,,,,,0,,,40,0
36576,note_on,0,0,1,,,,,,,,,,,,,,,0,,,67,127
36576,note_on,0,0,1,,,,,,,,,,,,,,,0,,,48,127
36576,note_on,0,0,1,,,,,,,,,,,,,,,0,,,69,127
36576,note_on,1,0,1,,,,,,,,,,,,,,,0,,,36,127
36767,note_on,0,0,1,,,,,,,,,,,,,,,0,,,69,0
36767,note_on,0,0,1,,,,,,,,,,,,,,,0,,,36,0
36767,note_on,0,0,1,,,,,,,,,,,,,,,0,,,48,0
36767,note_on,191,0,1,,,,,,,,,,,,,,,0,,,67,0
36768,note_on,1,0,1,,,,,,,,,,,,,,,0,,,38,127
36768,note_on,0,0,1,,,,,,,,,,,,,,,0,,,50,127
36768,note_on,0,0,1,,,,,,,,,,,,,,,0,,,69,127
36768,note_on,0,0,1,,,,,,,,,,,,,,,0,,,67,127
36959,note_on,191,0,1,,,,,,,,,,,,,,,0,,,67,0
36959,note_on,0,0,1,,,,,,,,,,,,,,,0,,,38,0
36959,note_on,0,0,1,,,,,,,,,,,,,,,0,,,50,0
36959,note_on,0,0,1,,,,,,,,,,,,,,,0,,,69,0
36960,note_on,1,0,1,,,,,,,,,,,,,,,0,,,52,127
36960,note_on,0,0,1,,,,,,,,,,,,,,,0,,,69,127
36960,note_on,0,0,1,,,,,,,,,,,,,,,0,,,67,127
37023,note_on,63,0,1,,,,,,,,,,,,,,,0,,,69,0
37023,note_on,0,0,1,,,,,,,,,,,,,,,0,,,52,0
37024,note_on,0,0,1,,,,,,,,,,,,,,,0,,,71,127
37024,note_on,1,0,1,,,,,,,,,,,,,,,0,,,50,127
37087,note_on,0,0,1,,,,,,,,,,,,,,,0,,,50,0
37087,note_on,63,0,1,,,,,,,,,,,,,,,0,,,71,0
37088,note_on,1,0,1,,,,,,,,,,,,,,,0,,,48,127
37088,note_on,0,0,1,,,,,,,,,,,,,,,0,,,72,127
37151,note_on,0,0,1,,,,,,,,,,,,,,,0,,,48,0
37151,note_on,63,0,1,,,,,,,,,,,,,,,0,,,72,0
37152,note_on,1,0,1,,,,,,,,,,,,,,,0,,,50,127
37152,note_on,0,0,1,,,,,,,,,,,,,,,0,,,71,127
37343,note_on,191,0,1,,,,,,,,,,,,,,,0,,,71,0
37343,note_on,0,0,1,,,,,,,,,,,,,,,0,,,67,0
37344,note_on,0,0,1,,,,,,,,,,,,,,,0,,,66,127
37344,note_on,0,0,1,,,,,,,,,,,,,,,0,,,71,127
37344,note_on,1,0,1,,,,,,,,,,,,,,,0,,,38,127
37376,note_on,32,0,1,,,,,,,,,,,,,,,0,,,69,127
37406,note_on,30,0,1,,,,,,,,,,,,,,,0,,,71,0
37408,note_on,2,0,1,,,,,,,,,,,,,,,0,,,71,127
37438,note_on,30,0,1,,,,,,,,,,,,,,,0,,,69,0
37440,note_on,2,0,1,,,,,,,,,,,,,,,0,,,69,127
37470,note_on,30,0,1,,,,,,,,,,,,,,,0,,,71,0
37535,note_on,0,0,1,,,,,,,,,,,,,,,0,,,38,0
37535,note_on,65,0,1,,,,,,,,,,,,,,,0,,,66,0
37535,note_on,0,0,1,,,,,,,,,,,,,,,0,,,50,0
37535,note_on,0,0,1,,,,,,,,,,,,,,,0,,,69,0
37536,note_on,0,0,1,,,,,,,,,,,,,,,0,,,67,127
37536,note_on,1,0,1,,,,,,,,,,,,,,,0,,,43,127
37663,note_on,127,0,1,,,,,,,,,,,,,,,0,,,67,0
37664,note_on,1,0,1,,,,,,,,,,,,,,,0,,,78,127
37727,note_on,63,0,1,,,,,,,,,,,,,,,0,,,78,0
37728,note_on,1,0,1,,,,,,,,,,,,,,,0,,,79,127
37855,note_on,127,0,1,,,,,,,,,,,,,,,0,,,79,0
37856,note_on,1,0,1,,,,,,,,,,,,,,,0,,,74,127
37919,note_on,63,0,1,,,,,,,,,,,,,,,0,,,74,0
37919,note_on,0,0,1,,,,,,,,,,,,,,,0,,,43,0
37920,note_on,1,0,1,,,,,,,,,,,,,,,0,,,55,127
37920,note_on,0,0,1,,,,,,,,,,,,,,,0,,,76,127
38047,note_on,127,0,1,,,,,,,,,,,,,,,0,,,76,0
38048,note_on,1,0,1,,,,,,,,,,,,,,,0,,,71,127
38111,note_on,63,0,1,,,,,,,,,,,,,,,0,,,71,0
38112,note_on,1,0,1,,,,,,,,,,,,,,,0,,,57,127
38112,note_on,0,0,1,,,,,,,,,,,,,,,0,,,72,127
38239,note_on,127,0,1,,,,,,,,,,,,,,,0,,,72,0
38240,note_on,1,0,1,,,,,,,,,,,,,,,0,,,76,127
38303,note_on,63,0,1,,,,,,,,,,,,,,,0,,,76,0
38303,note_on,0,0,1,,,,,,,,,,,,,,,0,,,55,0
38304,note_on,0,0,1,,,,,,,,,,,,,,,0,,,74,127
38304,note_on,1,0,1,,,,,,,,,,,,,,,0,,,54,127
38431,note_on,127,0,1,,,,,,,,,,,,,,,0,,,74,0
38432,note_on,1,0,1,,,,,,,,,,,,,,,0,,,71,127
38495,note_on,63,0,1,,,,,,,,,,,,,,,0,,,71,0
38495,note_on,0,0,1,,,,,,,,,,,,,,,0,,,54,0
38496,note_on,1,0,1,,,,,,,,,,,,,,,0,,,50,127
38496,note_on,0,0,1,,,,,,,,,,,,,,,0,,,72,127
38623,note_on,127,0,1,,,,,,,,,,,,,,,0,,,72,0
38624,note_on,1,0,1,,,,,,,,,,,,,,,0,,,69,127
38687,note_on,63,0,1,,,,,,,,,,,,,,,0,,,69,0
38687,note_on,0,0,1,,,,,,,,,,,,,,,0,,,57,0
38687,note_on,0,0,1,,,,,,,,,,,,,,,0,,,50,0
38688,note_on,1,0,1,,,,,,,,,,,,,,,0,,,55,127
38688,note_on,0,0,1,,,,,,,,,,,,,,,0,,,43,127
38688,note_on,0,0,1,,,,,,,,,,,,,,,0,,,71,127
38815,note_on,127,0,1,,,,,,,,,,,,,,,0,,,71,0
38816,note_on,1,0,1,,,,,,,,,,,,,,,0,,,74,127
38879,note_on,63,0,1,,,,,,,,,,,,,,,0,,,43,0
38880,note_on,0,0,1,,,,,,,,,,,,,,,0,,,66,127
38880,note_on,1,0,1,,,,,,,,,,,,,,,0,,,45,127
39007,note_on,127,0,1,,,,,,,,,,,,,,,0,,,66,0
39008,note_on,1,0,1,,,,,,,,,,,,,,,0,,,69,127
39071,note_on,0,0,1,,,,,,,,,,,,,,,0,,,45,0
39071,note_on,63,0,1,,,,,,,,,,,,,,,0,,,69,0
39072,note_on,1,0,1,,,,,,,,,,,,,,,0,,,47,127
39072,note_on,0,0,1,,,,,,,,,,,,,,,0,,,67,127
39104,note_on,32,0,1,,,,,,,,,,,,,,,0,,,74,0
39200,note_on,96,0,1,,,,,,,,,,,,,,,0,,,71,127
39263,note_on,63,0,1,,,,,,,,,,,,,,,0,,,71,0
39263,note_on,0,0,1,,,,,,,,,,,,,,,0,,,55,0
39263,note_on,0,0,1,,,,,,,,,,,,,,,0,,,47,0
39264,note_on,1,0,1,,,,,,,,,,,,,,,0,,,48,127
39264,note_on,0,0,1,,,,,,,,,,,,,,,0,,,69,127
39360,note_on,96,0,1,,,,,,,,,,,,,,,0,,,67,0
39391,note_on,31,0,1,,,,,,,,,,,,,,,0,,,69,0
39392,note_on,1,0,1,,,,,,,,,,,,,,,0,,,72,127
39455,note_on,63,0,1,,,,,,,,,,,,,,,0,,,72,0
39455,note_on,0,0,1,,,,,,,,,,,,,,,0,,,48,0
39456,note_on,1,0,1,,,,,,,,,,,,,,,0,,,50,127
39456,note_on,0,0,1,,,,,,,,,,,,,,,0,,,71,127
39647,note_on,191,0,1,,,,,,,,,,,,,,,0,,,71,0
39648,note_on,0,0,1,,,,,,,,,,,,,,,0,,,71,127
39648,note_on,0,0,1,,,,,,,,,,,,,,,0,,,66,127
39648,note_on,1,0,1,,,,,,,,,,,,,,,0,,,38,127
39680,note_on,32,0,1,,,,,,,,,,,,,,,0,,,69,127
39710,note_on,30,0,1,,,,,,,,,,,,,,,0,,,71,0
39712,note_on,2,0,1,,,,,,,,,,,,,,,0,,,71,127
39742,note_on,30,0,1,,,,,,,,,,,,,,,0,,,69,0
39744,note_on,2,0,1,,,,,,,,,,,,,,,0,,,69,127
39774,note_on,30,0,1,,,,,,,,,,,,,,,0,,,71,0
39839,note_on,65,0,1,,,,,,,,,,,,,,,0,,,66,0
39839,note_on,0,0,1,,,,,,,,,,,,,,,0,,,38,0
39839,note_on,0,0,1,,,,,,,,,,,,,,,0,,,69,0
39839,note_on,0,0,1,,,,,,,,,,,,,,,0,,,50,0
39840,note_on,1,0,1,,,,,,,,,,,,,,,0,,,43,127
39840,note_on,0,0,1,,,,,,,,,,,,,,,0,,,67,127
40415,note_on,575,0,1,,,,,,,,,,,,,,,0,,,67,0
40415,note_on,0,0,1,,,,,,,,,,,,,,,0,,,43,0
40416,note_on,1,0,1,,,,,,,,,,,,,,,0,,,55,127
40608,note_on,192,0,1,,,,,,,,,,,,,,,0,,,67,127
40608,note_on,0,0,1,,,,,,,,,,,,,,,0,,,79,127
40799,note_on,191,0,1,,,,,,,,,,,,,,,0,,,67,0
40800,note_on,0,0,1,,,,,,,,,,,,,,,0,,,67,127
40800,note_on,1,0,1,,,,,,,,,,,,,,,0,,,65,127
40991,note_on,191,0,1,,,,,,,,,,,,,,,0,,,67,0
40991,note_on,0,0,1,,,,,,,,,,,,,,,0,,,65,0
40992,note_on,0,0,1,,,,,,,,,,,,,,,0,,,72,127
40992,note_on,1,0,1,,,,,,,,,,,,,,,0,,,64,127
41183,note_on,191,0,1,,,,,,,,,,,,,,,0,,,72,0
41183,note_on,0,0,1,,,,,,,,,,,,,,,0,,,64,0
41184,note_on,1,0,1,,,,,,,,,,,,,,,0,,,62,127
41184,note_on,0,0,1,,,,,,,,,,,,,,,0,,,74,127
41232,note_on,48,0,1,,,,,,,,,,,,,,,0,,,72,127
41246,note_on,14,0,1,,,,,,,,,,,,,,,0,,,74,0
41280,note_on,34,0,1,,,,,,,,,,,,,,,0,,,74,127
41294,note_on,14,0,1,,,,,,,,,,,,,,,0,,,72,0
41328,note_on,34,0,1,,,,,,,,,,,,,,,0,,,72,127
41342,note_on,14,0,1,,,,,,,,,,,,,,,0,,,74,0
41375,note_on,33,0,1,,,,,,,,,,,,,,,0,,,62,0
41376,note_on,1,0,1,,,,,,,,,,,,,,,0,,,60,127
41376,note_on,0,0,1,,,,,,,,,,,,,,,0,,,74,127
41390,note_on,14,0,1,,,,,,,,,,,,,,,0,,,72,0
41424,note_on,34,0,1,,,,,,,,,,,,,,,0,,,72,127
41438,note_on,14,0,1,,,,,,,,,,,,,,,0,,,74,0
41472,note_on,34,0,1,,,,,,,,,,,,,,,0,,,71,127
41486,note_on,14,0,1,,,,,,,,,,,,,,,0,,,72,0
41520,note_on,34,0,1,,,,,,,,,,,,,,,0,,,72,127
41534,note_on,14,0,1,,,,,,,,,,,,,,,0,,,71,0
41567,note_on,33,0,1,,,,,,,,,,,,,,,0,,,60,0
41567,note_on,0,0,1,,,,,,,,,,,,,,,0,,,55,0
41568,note_on,1,0,1,,,,,,,,,,,,,,,0,,,55,127
41568,note_on,0,0,1,,,,,,,,,,,,,,,0,,,74,127
41582,note_on,14,0,1,,,,,,,,,,,,,,,0,,,72,0
41759,note_on,0,0,1,,,,,,,,,,,,,,,0,,,74,0
41759,note_on,177,0,1,,,,,,,,,,,,,,,0,,,79,0
41760,note_on,1,0,1,,,,,,,,,,,,,,,0,,,67,127
41760,note_on,0,0,1,,,,,,,,,,,,,,,0,,,79,127
41951,note_on,191,0,1,,,,,,,,,,,,,,,0,,,67,0
41952,note_on,1,0,1,,,,,,,,,,,,,,,0,,,65,127
41952,note_on,0,0,1,,,,,,,,,,,,,,,0,,,71,127
42143,note_on,191,0,1,,,,,,,,,,,,,,,0,,,71,0
42143,note_on,0,0,1,,,,,,,,,,,,,,,0,,,65,0
42144,note_on,0,0,1,,,,,,,,,,,,,,,0,,,72,127
42144,note_on,1,0,1,,,,,,,,,,,,,,,0,,,64,127
42335,note_on,0,0,1,,,,,,,,,,,,,,,0,,,64,0
42335,note_on,191,0,1,,,,,,,,,,,,,,,0,,,72,0
42336,note_on,1,0,1,,,,,,,,,,,,,,,0,,,62,127
42336,note_on,0,0,1,,,,,,,,,,,,,,,0,,,74,127
42384,note_on,48,0,1,,,,,,,,,,,,,,,0,,,72,127
42398,note_on,14,0,1,,,,,,,,,,,,,,,0,,,74,0
42432,note_on,34,0,1,,,,,,,,,,,,,,,0,,,74,127
42446,note_on,14,0,1,,,,,,,,,,,,,,,0,,,72,0
42480,note_on,34,0,1,,,,,,,,,,,,,,,0,,,72,127
42494,note_on,14,0,1,,,,,,,,,,,,,,,0,,,74,0
42527,note_on,33,0,1,,,,,,,,,,,,,,,0,,,62,0
42528,note_on,1,0,1,,,,,,,,,,,,,,,0,,,60,127
42528,note_on,0,0,1,,,,,,,,,,,,,,,0,,,74,127
42542,note_on,14,0,1,,,,,,,,,,,,,,,0,,,72,0
42576,note_on,34,0,1,,,,,,,,,,,,,,,0,,,72,127
42590,note_on,14,0,1,,,,,,,,,,,,,,,0,,,74,0
42624,note_on,34,0,1,,,,,,,,,,,,,,,0,,,71,127
42638,note_on,14,0,1,,,,,,,,,,,,,,,0,,,72,0
42672,note_on,34,0,1,,,,,,,,,,,,,,,0,,,72,127
42686,note_on,14,0,1,,,,,,,,,,,,,,,0,,,71,0
42719,note_on,33,0,1,,,,,,,,,,,,,,,0,,,60,0
42719,note_on,0,0,1,,,,,,,,,,,,,,,0,,,55,0
42720,note_on,0,0,1,,,,,,,,,,,,,,,0,,,55,127
42720,note_on,0,0,1,,,,,,,,,,,,,,,0,,,74,127
42720,note_on,1,0,1,,,,,,,,,,,,,,,0,,,79,0
42734,note_on,14,0,1,,,,,,,,,,,,,,,0,,,72,0
42911,note_on,177,0,1,,,,,,,,,,,,,,,0,,,74,0
42911,note_on,0,0,1,,,,,,,,,,,,,,,0,,,55,0
42912,note_on,0,0,1,,,,,,,,,,,,,,,0,,,71,127
42912,note_on,0,0,1,,,,,,,,,,,,,,,0,,,76,127
42912,note_on,1,0,1,,,,,,,,,,,,,,,0,,,62,127
42960,note_on,48,0,1,,,,,,,,,,,,,,,0,,,74,127
42974,note_on,14,0,1,,,,,,,,,,,,,,,0,,,76,0
43008,note_on,34,0,1,,,,,,,,,,,,,,,0,,,76,127
43022,note_on,14,0,1,,,,,,,,,,,,,,,0,,,74,0
43056,note_on,34,0,1,,,,,,,,,,,,,,,0,,,74,127
43070,note_on,14,0,1,,,,,,,,,,,,,,,0,,,76,0
43103,note_on,33,0,1,,,,,,,,,,,,,,,0,,,71,0
43104,note_on,1,0,1,,,,,,,,,,,,,,,0,,,69,127
43104,note_on,0,0,1,,,,,,,,,,,,,,,0,,,76,127
43118,note_on,14,0,1,,,,,,,,,,,,,,,0,,,74,0
43152,note_on,34,0,1,,,,,,,,,,,,,,,0,,,74,127
43166,note_on,14,0,1,,,,,,,,,,,,,,,0,,,76,0
43295,note_on,0,0,1,,,,,,,,,,,,,,,0,,,69,0
43295,note_on,129,0,1,,,,,,,,,,,,,,,0,,,62,0
43296,note_on,1,0,1,,,,,,,,,,,,,,,0,,,64,127
43296,note_on,0,0,1,,,,,,,,,,,,,,,0,,,68,127
43487,note_on,0,0,1,,,,,,,,,,,,,,,0,,,64,0
43487,note_on,191,0,1,,,,,,,,,,,,,,,0,,,68,0
43487,note_on,0,0,1,,,,,,,,,,,,,,,0,,,74,0
43488,note_on,1,0,1,,,,,,,,,,,,,,,0,,,62,127
43488,note_on,0,0,1,,,,,,,,,,,,,,,0,,,71,127
43488,note_on,0,0,1,,,,,,,,,,,,,,,0,,,79,127
43583,note_on,95,0,1,,,,,,,,,,,,,,,0,,,79,0
43584,note_on,1,0,1,,,,,,,,,,,,,,,0,,,77,127
43679,note_on,95,0,1,,,,,,,,,,,,,,,0,,,71,0
43680,note_on,1,0,1,,,,,,,,,,,,,,,0,,,69,127
43775,note_on,95,0,1,,,,,,,,,,,,,,,0,,,77,0
43776,note_on,1,0,1,,,,,,,,,,,,,,,0,,,76,127
43871,note_on,0,0,1,,,,,,,,,,,,,,,0,,,69,0
43871,note_on,0,0,1,,,,,,,,,,,,,,,0,,,62,0
43871,note_on,95,0,1,,,,,,,,,,,,,,,0,,,76,0
43872,note_on,1,0,1,,,,,,,,,,,,,,,0,,,68,127
43872,note_on,0,0,1,,,,,,,,,,,,,,,0,,,64,127
43872,note_on,0,0,1,,,,,,,,,,,,,,,0,,,74,127
44063,note_on,0,0,1,,,,,,,,,,,,,,,0,,,64,0
44063,note_on,0,0,1,,,,,,,,,,,,,,,0,,,68,0
44063,note_on,191,0,1,,,,,,,,,,,,,,,0,,,74,0
44064,note_on,1,0,1,,,,,,,,,,,,,,,0,,,71,127
44064,note_on,0,0,1,,,,,,,,,,,,,,,0,,,62,127
44064,note_on,0,0,1,,,,,,,,,,,,,,,0,,,79,127
44159,note_on,95,0,1,,,,,,,,,,,,,,,0,,,79,0
44160,note_on,1,0,1,,,,,,,,,,,,,,,0,,,77,127
44255,note_on,95,0,1,,,,,,,,,,,,,,,0,,,71,0
44256,note_on,1,0,1,,,,,,,,,,,,,,,0,,,69,127
44351,note_on,95,0,1,,,,,,,,,,,,,,,0,,,77,0
44352,note_on,1,0,1,,,,,,,,,,,,,,,0,,,76,127
44447,note_on,0,0,1,,,,,,,,,,,,,,,0,,,69,0
44447,note_on,0,0,1,,,,,,,,,,,,,,,0,,,62,0
44447,note_on,95,0,1,,,,,,,,,,,,,,,0,,,76,0
44448,note_on,1,0,1,,,,,,,,,,,,,,,0,,,64,127
44448,note_on,0,0,1,,,,,,,,,,,,,,,0,,,68,127
44448,note_on,0,0,1,,,,,,,,,,,,,,,0,,,74,127
44639,note_on,0,0,1,,,,,,,,,,,,,,,0,,,68,0
44639,note_on,0,0,1,,,,,,,,,,,,,,,0,,,64,0
44639,note_on,191,0,1,,,,,,,,,,,,,,,0,,,74,0
44640,note_on,1,0,1,,,,,,,,,,,,,,,0,,,71,127
44640,note_on,0,0,1,,,,,,,,,,,,,,,0,,,62,127
44640,note_on,0,0,1,,,,,,,,,,,,,,,0,,,83,127
44831,note_on,191,0,1,,,,,,,,,,,,,,,0,,,71,0
44832,note_on,1,0,1,,,,,,,,,,,,,,,0,,,69,127
44959,note_on,127,0,1,,,,,,,,,,,,,,,0,,,83,0
44960,note_on,1,0,1,,,,,,,,,,,,,,,0,,,81,127
45023,note_on,63,0,1,,,,,,,,,,,,,,,0,,,81,0
45023,note_on,0,0,1,,,,,,,,,,,,,,,0,,,62,0
45023,note_on,0,0,1,,,,,,,,,,,,,,,0,,,69,0
45024,note_on,1,0,1,,,,,,,,,,,,,,,0,,,64,127
45024,note_on,0,0,1,,,,,,,,,,,,,,,0,,,68,127
45024,note_on,0,0,1,,,,,,,,,,,,,,,0,,,80,127
45151,note_on,127,0,1,,,,,,,,,,,,,,,0,,,80,0
45152,note_on,1,0,1,,,,,,,,,,,,,,,0,,,77,127
45215,note_on,63,0,1,,,,,,,,,,,,,,,0,,,77,0
45215,note_on,0,0,1,,,,,,,,,,,,,,,0,,,68,0
45215,note_on,0,0,1,,,,,,,,,,,,,,,0,,,64,0
45216,note_on,1,0,1,,,,,,,,,,,,,,,0,,,52,127
45216,note_on,0,0,1,,,,,,,,,,,,,,,0,,,76,127
45343,note_on,127,0,1,,,,,,,,,,,,,,,0,,,76,0
45344,note_on,1,0,1,,,,,,,,,,,,,,,0,,,74,127
45407,note_on,63,0,1,,,,,,,,,,,,,,,0,,,74,0
45407,note_on,0,0,1,,,,,,,,,,,,,,,0,,,52,0
45408,note_on,0,0,1,,,,,,,,,,,,,,,0,,,72,127
45408,note_on,1,0,1,,,,,,,,,,,,,,,0,,,56,127
45535,note_on,127,0,1,,,,,,,,,,,,,,,0,,,72,0
45536,note_on,1,0,1,,,,,,,,,,,,,,,0,,,71,127
45599,note_on,63,0,1,,,,,,,,,,,,,,,0,,,71,0
45599,note_on,0,0,1,,,,,,,,,,,,,,,0,,,56,0
45600,note_on,1,0,1,,,,,,,,,,,,,,,0,,,57,127
45600,note_on,0,0,1,,,,,,,,,,,,,,,0,,,72,127
45728,note_on,128,0,1,,,,,,,,,,,,,,,0,,,80,127
45791,note_on,63,0,1,,,,,,,,,,,,,,,0,,,80,0
45791,note_on,0,0,1,,,,,,,,,,,,,,,0,,,57,0
45792,note_on,0,0,1,,,,,,,,,,,,,,,0,,,64,127
45792,note_on,0,0,1,,,,,,,,,,,,,,,0,,,57,127
45792,note_on,0,0,1,,,,,,,,,,,,,,,0,,,81,127
45792,note_on,1,0,1,,,,,,,,,,,,,,,0,,,60,127
45919,note_on,127,0,1,,,,,,,,,,,,,,,0,,,81,0
45920,note_on,1,0,1,,,,,,,,,,,,,,,0,,,76,127
45983,note_on,0,0,1,,,,,,,,,,,,,,,0,,,60,0
45983,note_on,0,0,1,,,,,,,,,,,,,,,0,,,64,0
45983,note_on,63,0,1,,,,,,,,,,,,,,,0,,,76,0
45983,note_on,0,0,1,,,,,,,,,,,,,,,0,,,57,0
45983,note_on,0,0,1,,,,,,,,,,,,,,,0,,,72,0
45984,note_on,0,0,1,,,,,,,,,,,,,,,0,,,60,127
45984,note_on,0,0,1,,,,,,,,,,,,,,,0,,,57,127
45984,note_on,1,0,1,,,,,,,,,,,,,,,0,,,64,127
45984,note_on,0,0,1,,,,,,,,,,,,,,,0,,,77,127
46111,note_on,127,0,1,,,,,,,,,,,,,,,0,,,77,0
46112,note_on,1,0,1,,,,,,,,,,,,,,,0,,,72,127
46175,note_on,0,0,1,,,,,,,,,,,,,,,0,,,57,0
46175,note_on,0,0,1,,,,,,,,,,,,,,,0,,,64,0
46175,note_on,63,0,1,,,,,,,,,,,,,,,0,,,72,0
46175,note_on,0,0,1,,,,,,,,,,,,,,,0,,,60,0
46176,note_on,1,0,1,,,,,,,,,,,,,,,0,,,59,127
46176,note_on,0,0,1,,,,,,,,,,,,,,,0,,,57,127
46176,note_on,0,0,1,,,,,,,,,,,,,,,0,,,64,127
46176,note_on,0,0,1,,,,,,,,,,,,,,,0,,,74,127
46367,note_on,191,0,1,,,,,,,,,,,,,,,0,,,74,0
46367,note_on,0,0,1,,,,,,,,,,,,,,,0,,,57,0
46368,note_on,1,0,1,,,,,,,,,,,,,,,0,,,56,127
46368,note_on,0,0,1,,,,,,,,,,,,,,,0,,,84,127
46416,note_on,48,0,1,,,,,,,,,,,,,,,0,,,83,127
46430,note_on,14,0,1,,,,,,,,,,,,,,,0,,,84,0
46464,note_on,34,0,1,,,,,,,,,,,,,,,0,,,84,127
46478,note_on,14,0,1,,,,,,,,,,,,,,,0,,,83,0
46512,note_on,34,0,1,,,,,,,,,,,,,,,0,,,83,127
46526,note_on,14,0,1,,,,,,,,,,,,,,,0,,,84,0
46559,note_on,33,0,1,,,,,,,,,,,,,,,0,,,56,0
46560,note_on,1,0,1,,,,,,,,,,,,,,,0,,,52,127
46560,note_on,0,0,1,,,,,,,,,,,,,,,0,,,84,127
46574,note_on,14,0,1,,,,,,,,,,,,,,,0,,,83,0
46608,note_on,34,0,1,,,,,,,,,,,,,,,0,,,83,127
46622,note_on,14,0,1,,,,,,,,,,,,,,,0,,,84,0
46656,note_on,34,0,1,,,,,,,,,,,,,,,0,,,81,127
46670,note_on,14,0,1,,,,,,,,,,,,,,,0,,,83,0
46704,note_on,34,0,1,,,,,,,,,,,,,,,0,,,83,127
46718,note_on,14,0,1,,,,,,,,,,,,,,,0,,,81,0
46751,note_on,33,0,1,,,,,,,,,,,,,,,0,,,52,0
46751,note_on,0,0,1,,,,,,,,,,,,,,,0,,,59,0
46751,note_on,0,0,1,,,,,,,,,,,,,,,0,,,64,0
46752,note_on,0,0,1,,,,,,,,,,,,,,,0,,,84,127
46752,note_on,1,0,1,,,,,,,,,,,,,,,0,,,64,127
46752,note_on,0,0,1,,,,,,,,,,,,,,,0,,,57,127
46752,note_on,0,0,1,,,,,,,,,,,,,,,0,,,60,127
46766,note_on,14,0,1,,,,,,,,,,,,,,,0,,,83,0
46879,note_on,113,0,1,,,,,,,,,,,,,,,0,,,84,0
46880,note_on,1,0,1,,,,,,,,,,,,,,,0,,,80,127
46943,note_on,0,0,1,,,,,,,,,,,,,,,0,,,57,0
46943,note_on,0,0,1,,,,,,,,,,,,,,,0,,,64,0
46943,note_on,63,0,1,,,,,,,,,,,,,,,0,,,80,0
46943,note_on,0,0,1,,,,,,,,,,,,,,,0,,,60,0
46944,note_on,1,0,1,,,,,,,,,,,,,,,0,,,64,127
46944,note_on,0,0,1,,,,,,,,,,,,,,,0,,,57,127
46944,note_on,0,0,1,,,,,,,,,,,,,,,0,,,60,127
46944,note_on,0,0,1,,,,,,,,,,,,,,,0,,,81,127
47071,note_on,127,0,1,,,,,,,,,,,,,,,0,,,81,0
47072,note_on,1,0,1,,,,,,,,,,,,,,,0,,,76,127
47135,note_on,63,0,1,,,,,,,,,,,,,,,0,,,76,0
47135,note_on,0,0,1,,,,,,,,,,,,,,,0,,,60,0
47135,note_on,0,0,1,,,,,,,,,,,,,,,0,,,57,0
47135,note_on,0,0,1,,,,,,,,,,,,,,,0,,,64,0
47136,note_on,0,0,1,,,,,,,,,,,,,,,0,,,77,127
47136,note_on,1,0,1,,,,,,,,,,,,,,,0,,,64,127
47136,note_on,0,0,1,,,,,,,,,,,,,,,0,,,60,127
47136,note_on,0,0,1,,,,,,,,,,,,,,,0,,,57,127
47263,note_on,127,0,1,,,,,,,,,,,,,,,0,,,77,0
47264,note_on,1,0,1,,,,,,,,,,,,,,,0,,,72,127
47327,note_on,63,0,1,,,,,,,,,,,,,,,0,,,72,0
47327,note_on,0,0,1,,,,,,,,,,,,,,,0,,,60,0
47327,note_on,0,0,1,,,,,,,,,,,,,,,0,,,57,0
47327,note_on,0,0,1,,,,,,,,,,,,,,,0,,,64,0
47328,note_on,1,0,1,,,,,,,,,,,,,,,0,,,64,127
47328,note_on,0,0,1,,,,,,,,,,,,,,,0,,,57,127
47328,note_on,0,0,1,,,,,,,,,,,,,,,0,,,74,127
47328,note_on,0,0,1,,,,,,,,,,,,,,,0,,,59,127
47519,note_on,191,0,1,,,,,,,,,,,,,,,0,,,57,0
47520,note_on,1,0,1,,,,,,,,,,,,,,,0,,,56,127
47520,note_on,0,0,1,,,,,,,,,,,,,,,0,,,84,127
47568,note_on,48,0,1,,,,,,,,,,,,,,,0,,,83,127
47582,note_on,14,0,1,,,,,,,,,,,,,,,0,,,84,0
47616,note_on,34,0,1,,,,,,,,,,,,,,,0,,,84,127
47630,note_on,14,0,1,,,,,,,,,,,,,,,0,,,83,0
47664,note_on,34,0,1,,,,,,,,,,,,,,,0,,,83,127
47678,note_on,14,0,1,,,,,,,,,,,,,,,0,,,84,0
47711,note_on,33,0,1,,,,,,,,,,,,,,,0,,,56,0
47711,note_on,0,0,1,,,,,,,,,,,,,,,0,,,74,0
47712,note_on,1,0,1,,,,,,,,,,,,,,,0,,,52,127
47712,note_on,0,0,1,,,,,,,,,,,,,,,0,,,84,127
47726,note_on,14,0,1,,,,,,,,,,,,,,,0,,,83,0
47760,note_on,34,0,1,,,,,,,,,,,,,,,0,,,83,127
47774,note_on,14,0,1,,,,,,,,,,,,,,,0,,,84,0
47808,note_on,34,0,1,,,,,,,,,,,,,,,0,,,81,127
47822,note_on,14,0,1,,,,,,,,,,,,,,,0,,,83,0
47856,note_on,34,0,1,,,,,,,,,,,,,,,0,,,83,127
47870,note_on,14,0,1,,,,,,,,,,,,,,,0,,,81,0
47903,note_on,33,0,1,,,,,,,,,,,,,,,0,,,52,0
47903,note_on,0,0,1,,,,,,,,,,,,,,,0,,,59,0
47903,note_on,0,0,1,,,,,,,,,,,,,,,0,,,64,0
47904,note_on,1,0,1,,,,,,,,,,,,,,,0,,,57,127
47904,note_on,0,0,1,,,,,,,,,,,,,,,0,,,60,127
47904,note_on,0,0,1,,,,,,,,,,,,,,,0,,,84,127
47918,note_on,14,0,1,,,,,,,,,,,,,,,0,,,83,0
48031,note_on,113,0,1,,,,,,,,,,,,,,,0,,,84,0
48032,note_on,1,0,1,,,,,,,,,,,,,,,0,,,78,127
48095,note_on,63,0,1,,,,,,,,,,,,,,,0,,,78,0
48095,note_on,0,0,1,,,,,,,,,,,,,,,0,,,60,0
48095,note_on,0,0,1,,,,,,,,,,,,,,,0,,,57,0
48096,note_on,0,0,1,,,,,,,,,,,,,,,0,,,60,127
48096,note_on,1,0,1,,,,,,,,,,,,,,,0,,,57,127
48096,note_on,0,0,1,,,,,,,,,,,,,,,0,,,79,127
48223,note_on,127,0,1,,,,,,,,,,,,,,,0,,,79,0
48224,note_on,1,0,1,,,,,,,,,,,,,,,0,,,74,127
48287,note_on,0,0,1,,,,,,,,,,,,,,,0,,,60,0
48287,note_on,0,0,1,,,,,,,,,,,,,,,0,,,57,0
48287,note_on,63,0,1,,,,,,,,,,,,,,,0,,,74,0
48288,note_on,1,0,1,,,,,,,,,,,,,,,0,,,55,127
48288,note_on,0,0,1,,,,,,,,,,,,,,,0,,,60,127
48288,note_on,0,0,1,,,,,,,,,,,,,,,0,,,75,127
48415,note_on,127,0,1,,,,,,,,,,,,,,,0,,,75,0
48416,note_on,1,0,1,,,,,,,,,,,,,,,0,,,72,127
48479,note_on,63,0,1,,,,,,,,,,,,,,,0,,,72,0
48479,note_on,0,0,1,,,,,,,,,,,,,,,0,,,60,0
48479,note_on,0,0,1,,,,,,,,,,,,,,,0,,,55,0
48480,note_on,1,0,1,,,,,,,,,,,,,,,0,,,54,127
48480,note_on,0,0,1,,,,,,,,,,,,,,,0,,,60,127
48480,note_on,0,0,1,,,,,,,,,,,,,,,0,,,74,127
48671,note_on,191,0,1,,,,,,,,,,,,,,,0,,,54,0
48672,note_on,1,0,1,,,,,,,,,,,,,,,0,,,52,127
48672,note_on,0,0,1,,,,,,,,,,,,,,,0,,,82,127
48720,note_on,48,0,1,,,,,,,,,,,,,,,0,,,81,127
48734,note_on,14,0,1,,,,,,,,,,,,,,,0,,,82,0
48768,note_on,34,0,1,,,,,,,,,,,,,,,0,,,82,127
48782,note_on,14,0,1,,,,,,,,,,,,,,,0,,,81,0
48816,note_on,34,0,1,,,,,,,,,,,,,,,0,,,81,127
48830,note_on,14,0,1,,,,,,,,,,,,,,,0,,,82,0
48863,note_on,33,0,1,,,,,,,,,,,,,,,0,,,52,0
48863,note_on,0,0,1,,,,,,,,,,,,,,,0,,,74,0
48864,note_on,1,0,1,,,,,,,,,,,,,,,0,,,50,127
48864,note_on,0,0,1,,,,,,,,,,,,,,,0,,,82,127
48878,note_on,14,0,1,,,,,,,,,,,,,,,0,,,81,0
48912,note_on,34,0,1,,,,,,,,,,,,,,,0,,,81,127
48926,note_on,14,0,1,,,,,,,,,,,,,,,0,,,82,0
48960,note_on,34,0,1,,,,,,,,,,,,,,,0,,,79,127
48974,note_on,14,0,1,,,,,,,,,,,,,,,0,,,81,0
49008,note_on,34,0,1,,,,,,,,,,,,,,,0,,,81,127
49022,note_on,14,0,1,,,,,,,,,,,,,,,0,,,79,0
49055,note_on,0,0,1,,,,,,,,,,,,,,,0,,,50,0
49055,note_on,33,0,1,,,,,,,,,,,,,,,0,,,60,0
49056,note_on,0,0,1,,,,,,,,,,,,,,,0,,,55,127
49056,note_on,1,0,1,,,,,,,,,,,,,,,0,,,58,127
49056,note_on,0,0,1,,,,,,,,,,,,,,,0,,,82,127
49070,note_on,14,0,1,,,,,,,,,,,,,,,0,,,81,0
49183,note_on,113,0,1,,,,,,,,,,,,,,,0,,,82,0
49184,note_on,1,0,1,,,,,,,,,,,,,,,0,,,78,127
49247,note_on,63,0,1,,,,,,,,,,,,,,,0,,,78,0
49247,note_on,0,0,1,,,,,,,,,,,,,,,0,,,55,0
49247,note_on,0,0,1,,,,,,,,,,,,,,,0,,,58,0
49248,note_on,0,0,1,,,,,,,,,,,,,,,0,,,62,127
49248,note_on,0,0,1,,,,,,,,,,,,,,,0,,,58,127
49248,note_on,0,0,1,,,,,,,,,,,,,,,0,,,79,127
49248,note_on,1,0,1,,,,,,,,,,,,,,,0,,,55,127
49375,note_on,127,0,1,,,,,,,,,,,,,,,0,,,79,0
49376,note_on,1,0,1,,,,,,,,,,,,,,,0,,,74,127
49439,note_on,0,0,1,,,,,,,,,,,,,,,0,,,55,0
49439,note_on,0,0,1,,,,,,,,,,,,,,,0,,,62,0
49439,note_on,63,0,1,,,,,,,,,,,,,,,0,,,74,0
49439,note_on,0,0,1,,,,,,,,,,,,,,,0,,,58,0
49440,note_on,0,0,1,,,,,,,,,,,,,,,0,,,75,127
49440,note_on,1,0,1,,,,,,,,,,,,,,,0,,,62,127
49440,note_on,0,0,1,,,,,,,,,,,,,,,0,,,58,127
49440,note_on,0,0,1,,,,,,,,,,,,,,,0,,,55,127
49567,note_on,127,0,1,,,,,,,,,,,,,,,0,,,75,0
49568,note_on,1,0,1,,,,,,,,,,,,,,,0,,,70,127
49631,note_on,0,0,1,,,,,,,,,,,,,,,0,,,58,0
49631,note_on,63,0,1,,,,,,,,,,,,,,,0,,,70,0
49631,note_on,0,0,1,,,,,,,,,,,,,,,0,,,55,0
49631,note_on,0,0,1,,,,,,,,,,,,,,,0,,,62,0
49632,note_on,1,0,1,,,,,,,,,,,,,,,0,,,57,127
49632,note_on,0,0,1,,,,,,,,,,,,,,,0,,,62,127
49632,note_on,0,0,1,,,,,,,,,,,,,,,0,,,55,127
49632,note_on,0,0,1,,,,,,,,,,,,,,,0,,,72,127
49823,note_on,191,0,1,,,,,,,,,,,,,,,0,,,55,0
49824,note_on,0,0,1,,,,,,,,,,,,,,,0,,,82,127
49824,note_on,1,0,1,,,,,,,,,,,,,,,0,,,54,127
49872,note_on,48,0,1,,,,,,,,,,,,,,,0,,,81,127
49886,note_on,14,0,1,,,,,,,,,,,,,,,0,,,82,0
49920,note_on,34,0,1,,,,,,,,,,,,,,,0,,,82,127
49934,note_on,14,0,1,,,,,,,,,,,,,,,0,,,81,0
49968,note_on,34,0,1,,,,,,,,,,,,,,,0,,,81,127
49982,note_on,14,0,1,,,,,,,,,,,,,,,0,,,82,0
50015,note_on,0,0,1,,,,,,,,,,,,,,,0,,,72,0
50015,note_on,33,0,1,,,,,,,,,,,,,,,0,,,54,0
50016,note_on,1,0,1,,,,,,,,,,,,,,,0,,,50,127
50016,note_on,0,0,1,,,,,,,,,,,,,,,0,,,82,127
50030,note_on,14,0,1,,,,,,,,,,,,,,,0,,,81,0
50064,note_on,34,0,1,,,,,,,,,,,,,,,0,,,81,127
50078,note_on,14,0,1,,,,,,,,,,,,,,,0,,,82,0
50112,note_on,34,0,1,,,,,,,,,,,,,,,0,,,79,127
50126,note_on,14,0,1,,,,,,,,,,,,,,,0,,,81,0
50160,note_on,34,0,1,,,,,,,,,,,,,,,0,,,81,127
50174,note_on,14,0,1,,,,,,,,,,,,,,,0,,,79,0
50207,note_on,33,0,1,,,,,,,,,,,,,,,0,,,50,0
50207,note_on,0,0,1,,,,,,,,,,,,,,,0,,,62,0
50207,note_on,0,0,1,,,,,,,,,,,,,,,0,,,57,0
50208,note_on,1,0,1,,,,,,,,,,,,,,,0,,,55,127
50208,note_on,0,0,1,,,,,,,,,,,,,,,0,,,58,127
50208,note_on,0,0,1,,,,,,,,,,,,,,,0,,,82,127
50222,note_on,14,0,1,,,,,,,,,,,,,,,0,,,81,0
50335,note_on,113,0,1,,,,,,,,,,,,,,,0,,,82,0
50336,note_on,1,0,1,,,,,,,,,,,,,,,0,,,76,127
50399,note_on,63,0,1,,,,,,,,,,,,,,,0,,,76,0
50399,note_on,0,0,1,,,,,,,,,,,,,,,0,,,55,0
50399,note_on,0,0,1,,,,,,,,,,,,,,,0,,,58,0
50400,note_on,1,0,1,,,,,,,,,,,,,,,0,,,58,127
50400,note_on,0,0,1,,,,,,,,,,,,,,,0,,,55,127
50400,note_on,0,0,1,,,,,,,,,,,,,,,0,,,77,127
50527,note_on,127,0,1,,,,,,,,,,,,,,,0,,,77,0
50528,note_on,1,0,1,,,,,,,,,,,,,,,0,,,72,127
50591,note_on,63,0,1,,,,,,,,,,,,,,,0,,,72,0
50591,note_on,0,0,1,,,,,,,,,,,,,,,0,,,55,0
50591,note_on,0,0,1,,,,,,,,,,,,,,,0,,,58,0
50592,note_on,1,0,1,,,,,,,,,,,,,,,0,,,53,127
50592,note_on,0,0,1,,,,,,,,,,,,,,,0,,,58,127
50592,note_on,0,0,1,,,,,,,,,,,,,,,0,,,74,127
50719,note_on,127,0,1,,,,,,,,,,,,,,,0,,,74,0
50720,note_on,1,0,1,,,,,,,,,,,,,,,0,,,70,127
50783,note_on,0,0,1,,,,,,,,,,,,,,,0,,,53,0
50783,note_on,63,0,1,,,,,,,,,,,,,,,0,,,70,0
50783,note_on,0,0,1,,,,,,,,,,,,,,,0,,,58,0
50784,note_on,1,0,1,,,,,,,,,,,,,,,0,,,58,127
50784,note_on,0,0,1,,,,,,,,,,,,,,,0,,,52,127
50784,note_on,0,0,1,,,,,,,,,,,,,,,0,,,72,127
50975,note_on,191,0,1,,,,,,,,,,,,,,,0,,,52,0
50976,note_on,1,0,1,,,,,,,,,,,,,,,0,,,50,127
50976,note_on,0,0,1,,,,,,,,,,,,,,,0,,,81,127
51024,note_on,48,0,1,,,,,,,,,,,,,,,0,,,79,127
51038,note_on,14,0,1,,,,,,,,,,,,,,,0,,,81,0
51072,note_on,34,0,1,,,,,,,,,,,,,,,0,,,81,127
51086,note_on,14,0,1,,,,,,,,,,,,,,,0,,,79,0
51120,note_on,34,0,1,,,,,,,,,,,,,,,0,,,79,127
51134,note_on,14,0,1,,,,,,,,,,,,,,,0,,,81,0
51167,note_on,33,0,1,,,,,,,,,,,,,,,0,,,50,0
51167,note_on,0,0,1,,,,,,,,,,,,,,,0,,,72,0
51168,note_on,1,0,1,,,,,,,,,,,,,,,0,,,48,127
51168,note_on,0,0,1,,,,,,,,,,,,,,,0,,,81,127
51182,note_on,14,0,1,,,,,,,,,,,,,,,0,,,79,0
51216,note_on,34,0,1,,,,,,,,,,,,,,,0,,,79,127
51230,note_on,14,0,1,,,,,,,,,,,,,,,0,,,81,0
51264,note_on,34,0,1,,,,,,,,,,,,,,,0,,,77,127
51278,note_on,14,0,1,,,,,,,,,,,,,,,0,,,79,0
51312,note_on,34,0,1,,,,,,,,,,,,,,,0,,,79,127
51326,note_on,14,0,1,,,,,,,,,,,,,,,0,,,77,0
51359,note_on,33,0,1,,,,,,,,,,,,,,,0,,,58,0
51359,note_on,0,0,1,,,,,,,,,,,,,,,0,,,48,0
51360,note_on,0,0,1,,,,,,,,,,,,,,,0,,,53,127
51360,note_on,1,0,1,,,,,,,,,,,,,,,0,,,57,127
51360,note_on,0,0,1,,,,,,,,,,,,,,,0,,,81,127
51374,note_on,14,0,1,,,,,,,,,,,,,,,0,,,79,0
51487,note_on,113,0,1,,,,,,,,,,,,,,,0,,,81,0
51488,note_on,1,0,1,,,,,,,,,,,,,,,0,,,76,127
51551,note_on,0,0,1,,,,,,,,,,,,,,,0,,,53,0
51551,note_on,0,0,1,,,,,,,,,,,,,,,0,,,57,0
51551,note_on,63,0,1,,,,,,,,,,,,,,,0,,,76,0
51552,note_on,1,0,1,,,,,,,,,,,,,,,0,,,60,127
51552,note_on,0,0,1,,,,,,,,,,,,,,,0,,,53,127
51552,note_on,0,0,1,,,,,,,,,,,,,,,0,,,57,127
51552,note_on,0,0,1,,,,,,,,,,,,,,,0,,,77,127
51679,note_on,127,0,1,,,,,,,,,,,,,,,0,,,77,0
51680,note_on,1,0,1,,,,,,,,,,,,,,,0,,,72,127
51743,note_on,63,0,1,,,,,,,,,,,,,,,0,,,72,0
51743,note_on,0,0,1,,,,,,,,,,,,,,,0,,,57,0
51743,note_on,0,0,1,,,,,,,,,,,,,,,0,,,53,0
51743,note_on,0,0,1,,,,,,,,,,,,,,,0,,,60,0
51744,note_on,0,0,1,,,,,,,,,,,,,,,0,,,74,127
51744,note_on,0,0,1,,,,,,,,,,,,,,,0,,,60,127
51744,note_on,1,0,1,,,,,,,,,,,,,,,0,,,57,127
51744,note_on,0,0,1,,,,,,,,,,,,,,,0,,,53,127
51871,note_on,127,0,1,,,,,,,,,,,,,,,0,,,74,0
51872,note_on,1,0,1,,,,,,,,,,,,,,,0,,,69,127
51935,note_on,0,0,1,,,,,,,,,,,,,,,0,,,60,0
51935,note_on,0,0,1,,,,,,,,,,,,,,,0,,,57,0
51935,note_on,63,0,1,,,,,,,,,,,,,,,0,,,69,0
51935,note_on,0,0,1,,,,,,,,,,,,,,,0,,,53,0
51936,note_on,1,0,1,,,,,,,,,,,,,,,0,,,60,127
51936,note_on,0,0,1,,,,,,,,,,,,,,,0,,,55,127
51936,note_on,0,0,1,,,,,,,,,,,,,,,0,,,70,127
51936,note_on,0,0,1,,,,,,,,,,,,,,,0,,,53,127
52127,note_on,191,0,1,,,,,,,,,,,,,,,0,,,53,0
52128,note_on,1,0,1,,,,,,,,,,,,,,,0,,,52,127
52128,note_on,0,0,1,,,,,,,,,,,,,,,0,,,81,127
52176,note_on,48,0,1,,,,,,,,,,,,,,,0,,,79,127
52190,note_on,14,0,1,,,,,,,,,,,,,,,0,,,81,0
52224,note_on,34,0,1,,,,,,,,,,,,,,,0,,,81,127
52238,note_on,14,0,1,,,,,,,,,,,,,,,0,,,79,0
52272,note_on,34,0,1,,,,,,,,,,,,,,,0,,,79,127
52286,note_on,14,0,1,,,,,,,,,,,,,,,0,,,81,0
52319,note_on,0,0,1,,,,,,,,,,,,,,,0,,,70,0
52319,note_on,33,0,1,,,,,,,,,,,,,,,0,,,52,0
52320,note_on,0,0,1,,,,,,,,,,,,,,,0,,,81,127
52320,note_on,1,0,1,,,,,,,,,,,,,,,0,,,48,127
52334,note_on,14,0,1,,,,,,,,,,,,,,,0,,,79,0
52368,note_on,34,0,1,,,,,,,,,,,,,,,0,,,79,127
52382,note_on,14,0,1,,,,,,,,,,,,,,,0,,,81,0
52416,note_on,34,0,1,,,,,,,,,,,,,,,0,,,77,127
52430,note_on,14,0,1,,,,,,,,,,,,,,,0,,,79,0
52464,note_on,34,0,1,,,,,,,,,,,,,,,0,,,79,127
52478,note_on,14,0,1,,,,,,,,,,,,,,,0,,,77,0
52511,note_on,33,0,1,,,,,,,,,,,,,,,0,,,48,0
52511,note_on,0,0,1,,,,,,,,,,,,,,,0,,,60,0
52511,note_on,0,0,1,,,,,,,,,,,,,,,0,,,55,0
52512,note_on,1,0,1,,,,,,,,,,,,,,,0,,,53,127
52512,note_on,0,0,1,,,,,,,,,,,,,,,0,,,82,127
52526,note_on,14,0,1,,,,,,,,,,,,,,,0,,,79,0
52544,note_on,18,0,1,,,,,,,,,,,,,,,0,,,81,127
52574,note_on,30,0,1,,,,,,,,,,,,,,,0,,,82,0
52576,note_on,2,0,1,,,,,,,,,,,,,,,0,,,82,127
52606,note_on,30,0,1,,,,,,,,,,,,,,,0,,,81,0
52608,note_on,2,0,1,,,,,,,,,,,,,,,0,,,81,127
52638,note_on,30,0,1,,,,,,,,,,,,,,,0,,,82,0
52703,note_on,65,0,1,,,,,,,,,,,,,,,0,,,53,0
52704,note_on,1,0,1,,,,,,,,,,,,,,,0,,,65,127
52799,note_on,95,0,1,,,,,,,,,,,,,,,0,,,81,0
52800,note_on,1,0,1,,,,,,,,,,,,,,,0,,,84,127
52895,note_on,95,0,1,,,,,,,,,,,,,,,0,,,84,0
52895,note_on,0,0,1,,,,,,,,,,,,,,,0,,,65,0
52896,note_on,1,0,1,,,,,,,,,,,,,,,0,,,52,127
52896,note_on,0,0,1,,,,,,,,,,,,,,,0,,,81,127
52928,note_on,32,0,1,,,,,,,,,,,,,,,0,,,79,127
52958,note_on,30,0,1,,,,,,,,,,,,,,,0,,,81,0
52960,note_on,2,0,1,,,,,,,,,,,,,,,0,,,81,127
52990,note_on,30,0,1,,,,,,,,,,,,,,,0,,,79,0
52992,note_on,2,0,1,,,,,,,,,,,,,,,0,,,79,127
53022,note_on,30,0,1,,,,,,,,,,,,,,,0,,,81,0
53087,note_on,65,0,1,,,,,,,,,,,,,,,0,,,52,0
53088,note_on,1,0,1,,,,,,,,,,,,,,,0,,,64,127
53183,note_on,95,0,1,,,,,,,,,,,,,,,0,,,79,0
53184,note_on,1,0,1,,,,,,,,,,,,,,,0,,,84,127
53279,note_on,0,0,1,,,,,,,,,,,,,,,0,,,64,0
53279,note_on,95,0,1,,,,,,,,,,,,,,,0,,,84,0
53280,note_on,1,0,1,,,,,,,,,,,,,,,0,,,50,127
53280,note_on,0,0,1,,,,,,,,,,,,,,,0,,,79,127
53312,note_on,32,0,1,,,,,,,,,,,,,,,0,,,77,127
53342,note_on,30,0,1,,,,,,,,,,,,,,,0,,,79,0
53344,note_on,2,0,1,,,,,,,,,,,,,,,0,,,79,127
53374,note_on,30,0,1,,,,,,,,,,,,,,,0,,,77,0
53376,note_on,2,0,1,,,,,,,,,,,,,,,0,,,77,127
53406,note_on,30,0,1,,,,,,,,,,,,,,,0,,,79,0
53471,note_on,65,0,1,,,,,,,,,,,,,,,0,,,50,0
53472,note_on,1,0,1,,,,,,,,,,,,,,,0,,,62,127
53567,note_on,95,0,1,,,,,,,,,,,,,,,0,,,77,0
53568,note_on,1,0,1,,,,,,,,,,,,,,,0,,,84,127
53663,note_on,95,0,1,,,,,,,,,,,,,,,0,,,84,0
53663,note_on,0,0,1,,,,,,,,,,,,,,,0,,,62,0
53664,note_on,1,0,1,,,,,,,,,,,,,,,0,,,48,127
53664,note_on,0,0,1,,,,,,,,,,,,,,,0,,,77,127
53696,note_on,32,0,1,,,,,,,,,,,,,,,0,,,76,127
53726,note_on,30,0,1,,,,,,,,,,,,,,,0,,,77,0
53728,note_on,2,0,1,,,,,,,,,,,,,,,0,,,77,127
53758,note_on,30,0,1,,,,,,,,,,,,,,,0,,,76,0
53760,note_on,2,0,1,,,,,,,,,,,,,,,0,,,76,127
53790,note_on,30,0,1,,,,,,,,,,,,,,,0,,,77,0
53855,note_on,65,0,1,,,,,,,,,,,,,,,0,,,48,0
53856,note_on,1,0,1,,,,,,,,,,,,,,,0,,,60,127
53951,note_on,95,0,1,,,,,,,,,,,,,,,0,,,76,0
53952,note_on,1,0,1,,,,,,,,,,,,,,,0,,,84,127
54047,note_on,95,0,1,,,,,,,,,,,,,,,0,,,84,0
54047,note_on,0,0,1,,,,,,,,,,,,,,,0,,,60,0
54048,note_on,1,0,1,,,,,,,,,,,,,,,0,,,47,127
54048,note_on,0,0,1,,,,,,,,,,,,,,,0,,,76,127
54080,note_on,32,0,1,,,,,,,,,,,,,,,0,,,74,127
54110,note_on,30,0,1,,,,,,,,,,,,,,,0,,,76,0
54112,note_on,2,0,1,,,,,,,,,,,,,,,0,,,76,127
54142,note_on,30,0,1,,,,,,,,,,,,,,,0,,,74,0
54144,note_on,2,0,1,,,,,,,,,,,,,,,0,,,74,127
54174,note_on,30,0,1,,,,,,,,,,,,,,,0,,,76,0
54239,note_on,65,0,1,,,,,,,,,,,,,,,0,,,47,0
54240,note_on,1,0,1,,,,,,,,,,,,,,,0,,,59,127
54335,note_on,95,0,1,,,,,,,,,,,,,,,0,,,74,0
54336,note_on,1,0,1,,,,,,,,,,,,,,,0,,,84,127
54431,note_on,0,0,1,,,,,,,,,,,,,,,0,,,59,0
54431,note_on,95,0,1,,,,,,,,,,,,,,,0,,,84,0
54432,note_on,1,0,1,,,,,,,,,,,,,,,0,,,45,127
54432,note_on,0,0,1,,,,,,,,,,,,,,,0,,,74,127
54464,note_on,32,0,1,,,,,,,,,,,,,,,0,,,72,127
54494,note_on,30,0,1,,,,,,,,,,,,,,,0,,,74,0
54496,note_on,2,0,1,,,,,,,,,,,,,,,0,,,74,127
54526,note_on,30,0,1,,,,,,,,,,,,,,,0,,,72,0
54528,note_on,2,0,1,,,,,,,,,,,,,,,0,,,72,127
54558,note_on,30,0,1,,,,,,,,,,,,,,,0,,,74,0
54623,note_on,65,0,1,,,,,,,,,,,,,,,0,,,45,0
54624,note_on,1,0,1,,,,,,,,,,,,,,,0,,,57,127
54719,note_on,95,0,1,,,,,,,,,,,,,,,0,,,72,0
54720,note_on,1,0,1,,,,,,,,,,,,,,,0,,,84,127
54815,note_on,95,0,1,,,,,,,,,,,,,,,0,,,84,0
54815,note_on,0,0,1,,,,,,,,,,,,,,,0,,,57,0
54816,note_on,0,0,1,,,,,,,,,,,,,,,0,,,71,127
54816,note_on,0,0,1,,,,,,,,,,,,,,,0,,,43,127
54816,note_on,1,0,1,,,,,,,,,,,,,,,0,,,55,127
55007,note_on,191,0,1,,,,,,,,,,,,,,,0,,,71,0
55007,note_on,0,0,1,,,,,,,,,,,,,,,0,,,43,0
55007,note_on,0,0,1,,,,,,,,,,,,,,,0,,,55,0
55008,note_on,1,0,1,,,,,,,,,,,,,,,0,,,55,127
55008,note_on,0,0,1,,,,,,,,,,,,,,,0,,,79,127
55199,note_on,191,0,1,,,,,,,,,,,,,,,0,,,79,0
55199,note_on,0,0,1,,,,,,,,,,,,,,,0,,,55,0
55200,note_on,1,0,1,,,,,,,,,,,,,,,0,,,41,127
55200,note_on,0,0,1,,,,,,,,,,,,,,,0,,,81,127
55263,note_on,63,0,1,,,,,,,,,,,,,,,0,,,81,0
55264,note_on,1,0,1,,,,,,,,,,,,,,,0,,,79,127
55327,note_on,63,0,1,,,,,,,,,,,,,,,0,,,79,0
55328,note_on,1,0,1,,,,,,,,,,,,,,,0,,,77,127
55391,note_on,63,0,1,,,,,,,,,,,,,,,0,,,77,0
55391,note_on,0,0,1,,,,,,,,,,,,,,,0,,,41,0
55392,note_on,0,0,1,,,,,,,,,,,,,,,0,,,81,127
55392,note_on,1,0,1,,,,,,,,,,,,,,,0,,,53,127
55583,note_on,191,0,1,,,,,,,,,,,,,,,0,,,81,0
55583,note_on,0,0,1,,,,,,,,,,,,,,,0,,,53,0
55584,note_on,0,0,1,,,,,,,,,,,,,,,0,,,79,127
55584,note_on,1,0,1,,,,,,,,,,,,,,,0,,,40,127
55647,note_on,63,0,1,,,,,,,,,,,,,,,0,,,79,0
55648,note_on,1,0,1,,,,,,,,,,,,,,,0,,,77,127
55711,note_on,63,0,1,,,,,,,,,,,,,,,0,,,77,0
55712,note_on,1,0,1,,,,,,,,,,,,,,,0,,,76,127
55775,note_on,0,0,1,,,,,,,,,,,,,,,0,,,40,0
55775,note_on,63,0,1,,,,,,,,,,,,,,,0,,,76,0
55776,note_on,1,0,1,,,,,,,,,,,,,,,0,,,52,127
55776,note_on,0,0,1,,,,,,,,,,,,,,,0,,,79,127
55967,note_on,0,0,1,,,,,,,,,,,,,,,0,,,52,0
55967,note_on,191,0,1,,,,,,,,,,,,,,,0,,,79,0
55968,note_on,1,0,1,,,,,,,,,,,,,,,0,,,38,127
55968,note_on,0,0,1,,,,,,,,,,,,,,,0,,,77,127
56031,note_on,63,0,1,,,,,,,,,,,,,,,0,,,77,0
56032,note_on,1,0,1,,,,,,,,,,,,,,,0,,,76,127
56095,note_on,63,0,1,,,,,,,,,,,,,,,0,,,76,0
56096,note_on,1,0,1,,,,,,,,,,,,,,,0,,,74,127
56159,note_on,63,0,1,,,,,,,,,,,,,,,0,,,74,0
56159,note_on,0,0,1,,,,,,,,,,,,,,,0,,,38,0
56160,note_on,1,0,1,,,,,,,,,,,,,,,0,,,50,127
56160,note_on,0,0,1,,,,,,,,,,,,,,,0,,,77,127
56351,note_on,191,0,1,,,,,,,,,,,,,,,0,,,77,0
56351,note_on,0,0,1,,,,,,,,,,,,,,,0,,,50,0
56352,note_on,0,0,1,,,,,,,,,,,,,,,0,,,76,127
56352,note_on,1,0,1,,,,,,,,,,,,,,,0,,,36,127
56415,note_on,63,0,1,,,,,,,,,,,,,,,0,,,76,0
56416,note_on,1,0,1,,,,,,,,,,,,,,,0,,,74,127
56479,note_on,63,0,1,,,,,,,,,,,,,,,0,,,74,0
56480,note_on,1,0,1,,,,,,,,,,,,,,,0,,,72,127
56543,note_on,63,0,1,,,,,,,,,,,,,,,0,,,72,0
56543,note_on,0,0,1,,,,,,,,,,,,,,,0,,,36,0
56544,note_on,1,0,1,,,,,,,,,,,,,,,0,,,48,127
56544,note_on,0,0,1,,,,,,,,,,,,,,,0,,,76,127
56735,note_on,191,0,1,,,,,,,,,,,,,,,0,,,76,0
56735,note_on,0,0,1,,,,,,,,,,,,,,,0,,,48,0
56736,note_on,1,0,1,,,,,,,,,,,,,,,0,,,35,127
56736,note_on,0,0,1,,,,,,,,,,,,,,,0,,,74,127
56799,note_on,63,0,1,,,,,,,,,,,,,,,0,,,74,0
56800,note_on,1,0,1,,,,,,,,,,,,,,,0,,,72,127
56863,note_on,63,0,1,,,,,,,,,,,,,,,0,,,72,0
56864,note_on,1,0,1,,,,,,,,,,,,,,,0,,,71,127
56927,note_on,0,0,1,,,,,,,,,,,,,,,0,,,35,0
56927,note_on,63,0,1,,,,,,,,,,,,,,,0,,,71,0
56928,note_on,1,0,1,,,,,,,,,,,,,,,0,,,47,127
56928,note_on,0,0,1,,,,,,,,,,,,,,,0,,,74,127
57119,note_on,0,0,1,,,,,,,,,,,,,,,0,,,47,0
57119,note_on,191,0,1,,,,,,,,,,,,,,,0,,,74,0
57120,note_on,1,0,1,,,,,,,,,,,,,,,0,,,33,127
57120,note_on,0,0,1,,,,,,,,,,,,,,,0,,,72,127
57183,note_on,63,0,1,,,,,,,,,,,,,,,0,,,72,0
57184,note_on,1,0,1,,,,,,,,,,,,,,,0,,,71,127
57247,note_on,63,0,1,,,,,,,,,,,,,,,0,,,71,0
57248,note_on,1,0,1,,,,,,,,,,,,,,,0,,,69,127
57311,note_on,63,0,1,,,,,,,,,,,,,,,0,,,69,0
57311,note_on,0,0,1,,,,,,,,,,,,,,,0,,,33,0
57312,note_on,0,0,1,,,,,,,,,,,,,,,0,,,72,127
57312,note_on,1,0,1,,,,,,,,,,,,,,,0,,,45,127
57503,note_on,191,0,1,,,,,,,,,,,,,,,0,,,72,0
57503,note_on,0,0,1,,,,,,,,,,,,,,,0,,,45,0
57504,note_on,1,0,1,,,,,,,,,,,,,,,0,,,31,127
57504,note_on,0,0,1,,,,,,,,,,,,,,,0,,,71,127
57567,note_on,63,0,1,,,,,,,,,,,,,,,0,,,71,0
57568,note_on,1,0,1,,,,,,,,,,,,,,,0,,,69,127
57631,note_on,63,0,1,,,,,,,,,,,,,,,0,,,69,0
57632,note_on,1,0,1,,,,,,,,,,,,,,,0,,,67,127
57695,note_on,63,0,1,,,,,,,,,,,,,,,0,,,67,0
57695,note_on,0,0,1,,,,,,,,,,,,,,,0,,,31,0
57696,note_on,0,0,1,,,,,,,,,,,,,,,0,,,74,127
57696,note_on,1,0,1,,,,,,,,,,,,,,,0,,,43,127
57887,note_on,191,0,1,,,,,,,,,,,,,,,0,,,74,0
57887,note_on,0,0,1,,,,,,,,,,,,,,,0,,,43,0
57888,note_on,1,0,1,,,,,,,,,,,,,,,0,,,43,127
57888,note_on,0,0,1,,,,,,,,,,,,,,,0,,,71,127
58015,note_on,127,0,1,,,,,,,,,,,,,,,0,,,71,0
58016,note_on,1,0,1,,,,,,,,,,,,,,,0,,,74,127
58079,note_on,63,0,1,,,,,,,,,,,,,,,0,,,74,0
58079,note_on,0,0,1,,,,,,,,,,,,,,,0,,,43,0
58080,note_on,1,0,1,,,,,,,,,,,,,,,0,,,45,127
58080,note_on,0,0,1,,,,,,,,,,,,,,,0,,,72,127
58207,note_on,127,0,1,,,,,,,,,,,,,,,0,,,72,0
58208,note_on,1,0,1,,,,,,,,,,,,,,,0,,,76,127
58271,note_on,63,0,1,,,,,,,,,,,,,,,0,,,76,0
58271,note_on,0,0,1,,,,,,,,,,,,,,,0,,,45,0
58272,note_on,1,0,1,,,,,,,,,,,,,,,0,,,47,127
58272,note_on,0,0,1,,,,,,,,,,,,,,,0,,,74,127
58399,note_on,127,0,1,,,,,,,,,,,,,,,0,,,74,0
58400,note_on,1,0,1,,,,,,,,,,,,,,,0,,,77,127
58463,note_on,0,0,1,,,,,,,,,,,,,,,0,,,47,0
58463,note_on,63,0,1,,,,,,,,,,,,,,,0,,,77,0
58464,note_on,1,0,1,,,,,,,,,,,,,,,0,,,48,127
58464,note_on,0,0,1,,,,,,,,,,,,,,,0,,,76,127
58591,note_on,127,0,1,,,,,,,,,,,,,,,0,,,76,0
58592,note_on,1,0,1,,,,,,,,,,,,,,,0,,,79,127
58655,note_on,63,0,1,,,,,,,,,,,,,,,0,,,79,0
58655,note_on,0,0,1,,,,,,,,,,,,,,,0,,,48,0
58656,note_on,1,0,1,,,,,,,,,,,,,,,0,,,50,127
58656,note_on,0,0,1,,,,,,,,,,,,,,,0,,,77,127
58783,note_on,127,0,1,,,,,,,,,,,,,,,0,,,77,0
58784,note_on,1,0,1,,,,,,,,,,,,,,,0,,,81,127
58847,note_on,63,0,1,,,,,,,,,,,,,,,0,,,81,0
58847,note_on,0,0,1,,,,,,,,,,,,,,,0,,,50,0
58848,note_on,1,0,1,,,,,,,,,,,,,,,0,,,52,127
58848,note_on,0,0,1,,,,,,,,,,,,,,,0,,,79,127
58975,note_on,127,0,1,,,,,,,,,,,,,,,0,,,79,0
58976,note_on,1,0,1,,,,,,,,,,,,,,,0,,,83,127
59039,note_on,0,0,1,,,,,,,,,,,,,,,0,,,52,0
59039,note_on,63,0,1,,,,,,,,,,,,,,,0,,,83,0
59040,note_on,1,0,1,,,,,,,,,,,,,,,0,,,53,127
59040,note_on,0,0,1,,,,,,,,,,,,,,,0,,,81,127
59167,note_on,127,0,1,,,,,,,,,,,,,,,0,,,81,0
59168,note_on,1,0,1,,,,,,,,,,,,,,,0,,,79,127
59231,note_on,63,0,1,,,,,,,,,,,,,,,0,,,79,0
59231,note_on,0,0,1,,,,,,,,,,,,,,,0,,,53,0
59232,note_on,1,0,1,,,,,,,,,,,,,,,0,,,55,127
59232,note_on,0,0,1,,,,,,,,,,,,,,,0,,,77,127
59359,note_on,127,0,1,,,,,,,,,,,,,,,0,,,77,0
59360,note_on,1,0,1,,,,,,,,,,,,,,,0,,,76,127
59423,note_on,63,0,1,,,,,,,,,,,,,,,0,,,76,0
59423,note_on,0,0,1,,,,,,,,,,,,,,,0,,,55,0
59424,note_on,1,0,1,,,,,,,,,,,,,,,0,,,57,127
59424,note_on,0,0,1,,,,,,,,,,,,,,,0,,,74,127
59551,note_on,127,0,1,,,,,,,,,,,,,,,0,,,74,0
59552,note_on,1,0,1,,,,,,,,,,,,,,,0,,,72,127
59615,note_on,0,0,1,,,,,,,,,,,,,,,0,,,57,0
59615,note_on,63,0,1,,,,,,,,,,,,,,,0,,,72,0
59616,note_on,1,0,1,,,,,,,,,,,,,,,0,,,43,127
59616,note_on,0,0,1,,,,,,,,,,,,,,,0,,,76,127
59616,note_on,0,0,1,,,,,,,,,,,,,,,0,,,55,127
59648,note_on,32,0,1,,,,,,,,,,,,,,,0,,,74,127
59678,note_on,30,0,1,,,,,,,,,,,,,,,0,,,76,0
59680,note_on,2,0,1,,,,,,,,,,,,,,,0,,,76,127
59710,note_on,30,0,1,,,,,,,,,,,,,,,0,,,74,0
59712,note_on,2,0,1,,,,,,,,,,,,,,,0,,,74,127
59742,note_on,30,0,1,,,,,,,,,,,,,,,0,,,76,0
59744,note_on,2,0,1,,,,,,,,,,,,,,,0,,,76,127
59774,note_on,30,0,1,,,,,,,,,,,,,,,0,,,74,0
59776,note_on,2,0,1,,,,,,,,,,,,,,,0,,,74,127
59806,note_on,30,0,1,,,,,,,,,,,,,,,0,,,76,0
59807,note_on,1,0,1,,,,,,,,,,,,,,,0,,,43,0
59807,note_on,0,0,1,,,,,,,,,,,,,,,0,,,55,0
59808,note_on,1,0,1,,,,,,,,,,,,,,,0,,,55,127
59808,note_on,0,0,1,,,,,,,,,,,,,,,0,,,67,127
59808,note_on,0,0,1,,,,,,,,,,,,,,,0,,,76,127
59838,note_on,30,0,1,,,,,,,,,,,,,,,0,,,74,0
59840,note_on,2,0,1,,,,,,,,,,,,,,,0,,,74,127
59870,note_on,30,0,1,,,,,,,,,,,,,,,0,,,76,0
59872,note_on,2,0,1,,,,,,,,,,,,,,,0,,,76,127
59902,note_on,30,0,1,,,,,,,,,,,,,,,0,,,74,0
59904,note_on,2,0,1,,,,,,,,,,,,,,,0,,,74,127
59928,note_on,24,0,1,,,,,,,,,,,,,,,0,,,72,127
59934,note_on,6,0,1,,,,,,,,,,,,,,,0,,,76,0
59950,note_on,16,0,1,,,,,,,,,,,,,,,0,,,74,0
59952,note_on,2,0,1,,,,,,,,,,,,,,,0,,,74,127
59976,note_on,24,0,1,,,,,,,,,,,,,,,0,,,76,127
59990,note_on,14,0,1,,,,,,,,,,,,,,,0,,,72,0
59999,note_on,9,0,1,,,,,,,,,,,,,,,0,,,55,0
59999,note_on,0,0,1,,,,,,,,,,,,,,,0,,,67,0
60000,note_on,1,0,1,,,,,,,,,,,,,,,0,,,41,127
60000,note_on,0,0,1,,,,,,,,,,,,,,,0,,,53,127
60000,note_on,0,0,1,,,,,,,,,,,,,,,0,,,76,127
60014,note_on,14,0,1,,,,,,,,,,,,,,,0,,,74,0
60023,note_on,9,0,1,,,,,,,,,,,,,,,0,,,76,0
60032,note_on,9,0,1,,,,,,,,,,,,,,,0,,,74,127
60062,note_on,30,0,1,,,,,,,,,,,,,,,0,,,76,0
60064,note_on,2,0,1,,,,,,,,,,,,,,,0,,,76,127
60094,note_on,30,0,1,,,,,,,,,,,,,,,0,,,74,0
60096,note_on,2,0,1,,,,,,,,,,,,,,,0,,,74,127
60126,note_on,30,0,1,,,,,,,,,,,,,,,0,,,76,0
60128,note_on,2,0,1,,,,,,,,,,,,,,,0,,,76,127
60158,note_on,30,0,1,,,,,,,,,,,,,,,0,,,74,0
60160,note_on,2,0,1,,,,,,,,,,,,,,,0,,,74,127
60190,note_on,30,0,1,,,,,,,,,,,,,,,0,,,76,0
60191,note_on,0,0,1,,,,,,,,,,,,,,,0,,,41,0
60191,note_on,1,0,1,,,,,,,,,,,,,,,0,,,53,0
60192,note_on,0,0,1,,,,,,,,,,,,,,,0,,,76,127
60192,note_on,1,0,1,,,,,,,,,,,,,,,0,,,53,127
60192,note_on,0,0,1,,,,,,,,,,,,,,,0,,,65,127
60222,note_on,30,0,1,,,,,,,,,,,,,,,0,,,74,0
60224,note_on,2,0,1,,,,,,,,,,,,,,,0,,,74,127
60254,note_on,30,0,1,,,,,,,,,,,,,,,0,,,76,0
60256,note_on,2,0,1,,,,,,,,,,,,,,,0,,,76,127
60286,note_on,30,0,1,,,,,,,,,,,,,,,0,,,74,0
60288,note_on,2,0,1,,,,,,,,,,,,,,,0,,,74,127
60312,note_on,24,0,1,,,,,,,,,,,,,,,0,,,72,127
60318,note_on,6,0,1,,,,,,,,,,,,,,,0,,,76,0
60334,note_on,16,0,1,,,,,,,,,,,,,,,0,,,74,0
60336,note_on,2,0,1,,,,,,,,,,,,,,,0,,,74,127
60360,note_on,24,0,1,,,,,,,,,,,,,,,0,,,76,127
60374,note_on,14,0,1,,,,,,,,,,,,,,,0,,,72,0
60383,note_on,9,0,1,,,,,,,,,,,,,,,0,,,53,0
60383,note_on,0,0,1,,,,,,,,,,,,,,,0,,,65,0
60384,note_on,1,0,1,,,,,,,,,,,,,,,0,,,40,127
60384,note_on,0,0,1,,,,,,,,,,,,,,,0,,,52,127
60398,note_on,14,0,1,,,,,,,,,,,,,,,0,,,74,0
60416,note_on,18,0,1,,,,,,,,,,,,,,,0,,,74,127
60422,note_on,6,0,1,,,,,,,,,,,,,,,0,,,76,0
60448,note_on,26,0,1,,,,,,,,,,,,,,,0,,,76,127
60478,note_on,30,0,1,,,,,,,,,,,,,,,0,,,74,0
60480,note_on,2,0,1,,,,,,,,,,,,,,,0,,,74,127
60510,note_on,30,0,1,,,,,,,,,,,,,,,0,,,76,0
60512,note_on,2,0,1,,,,,,,,,,,,,,,0,,,76,127
60542,note_on,30,0,1,,,,,,,,,,,,,,,0,,,74,0
60544,note_on,2,0,1,,,,,,,,,,,,,,,0,,,74,127
60574,note_on,30,0,1,,,,,,,,,,,,,,,0,,,76,0
60575,note_on,1,0,1,,,,,,,,,,,,,,,0,,,52,0
60575,note_on,0,0,1,,,,,,,,,,,,,,,0,,,40,0
60576,note_on,1,0,1,,,,,,,,,,,,,,,0,,,52,127
60576,note_on,0,0,1,,,,,,,,,,,,,,,0,,,64,127
60576,note_on,0,0,1,,,,,,,,,,,,,,,0,,,76,127
60606,note_on,30,0,1,,,,,,,,,,,,,,,0,,,74,0
60608,note_on,2,0,1,,,,,,,,,,,,,,,0,,,74,127
60638,note_on,30,0,1,,,,,,,,,,,,,,,0,,,76,0
60640,note_on,2,0,1,,,,,,,,,,,,,,,0,,,76,127
60670,note_on,30,0,1,,,,,,,,,,,,,,,0,,,74,0
60672,note_on,2,0,1,,,,,,,,,,,,,,,0,,,74,127
60696,note_on,24,0,1,,,,,,,,,,,,,,,0,,,72,127
60702,note_on,6,0,1,,,,,,,,,,,,,,,0,,,76,0
60718,note_on,16,0,1,,,,,,,,,,,,,,,0,,,74,0
60720,note_on,2,0,1,,,,,,,,,,,,,,,0,,,74,127
60744,note_on,24,0,1,,,,,,,,,,,,,,,0,,,76,127
60758,note_on,14,0,1,,,,,,,,,,,,,,,0,,,72,0
60767,note_on,9,0,1,,,,,,,,,,,,,,,0,,,52,0
60767,note_on,0,0,1,,,,,,,,,,,,,,,0,,,64,0
60768,note_on,1,0,1,,,,,,,,,,,,,,,0,,,38,127
60768,note_on,0,0,1,,,,,,,,,,,,,,,0,,,50,127
60782,note_on,14,0,1,,,,,,,,,,,,,,,0,,,74,0
60800,note_on,18,0,1,,,,,,,,,,,,,,,0,,,74,127
60807,note_on,7,0,1,,,,,,,,,,,,,,,0,,,76,0
60832,note_on,25,0,1,,,,,,,,,,,,,,,0,,,76,127
60862,note_on,30,0,1,,,,,,,,,,,,,,,0,,,74,0
60864,note_on,2,0,1,,,,,,,,,,,,,,,0,,,74,127
60894,note_on,30,0,1,,,,,,,,,,,,,,,0,,,76,0
60896,note_on,2,0,1,,,,,,,,,,,,,,,0,,,76,127
60926,note_on,30,0,1,,,,,,,,,,,,,,,0,,,74,0
60928,note_on,2,0,1,,,,,,,,,,,,,,,0,,,74,127
60958,note_on,30,0,1,,,,,,,,,,,,,,,0,,,76,0
60959,note_on,1,0,1,,,,,,,,,,,,,,,0,,,50,0
60959,note_on,0,0,1,,,,,,,,,,,,,,,0,,,38,0
60960,note_on,0,0,1,,,,,,,,,,,,,,,0,,,62,127
60960,note_on,0,0,1,,,,,,,,,,,,,,,0,,,76,127
60960,note_on,1,0,1,,,,,,,,,,,,,,,0,,,50,127
60990,note_on,30,0,1,,,,,,,,,,,,,,,0,,,74,0
60992,note_on,2,0,1,,,,,,,,,,,,,,,0,,,74,127
61022,note_on,30,0,1,,,,,,,,,,,,,,,0,,,76,0
61024,note_on,2,0,1,,,,,,,,,,,,,,,0,,,76,127
61054,note_on,30,0,1,,,,,,,,,,,,,,,0,,,74,0
61056,note_on,2,0,1,,,,,,,,,,,,,,,0,,,74,127
61080,note_on,24,0,1,,,,,,,,,,,,,,,0,,,72,127
61086,note_on,6,0,1,,,,,,,,,,,,,,,0,,,76,0
61102,note_on,16,0,1,,,,,,,,,,,,,,,0,,,74,0
61104,note_on,2,0,1,,,,,,,,,,,,,,,0,,,74,127
61128,note_on,24,0,1,,,,,,,,,,,,,,,0,,,76,127
61142,note_on,14,0,1,,,,,,,,,,,,,,,0,,,72,0
61151,note_on,0,0,1,,,,,,,,,,,,,,,0,,,62,0
61151,note_on,9,0,1,,,,,,,,,,,,,,,0,,,50,0
61152,note_on,0,0,1,,,,,,,,,,,,,,,0,,,48,127
61152,note_on,1,0,1,,,,,,,,,,,,,,,0,,,36,127
61166,note_on,14,0,1,,,,,,,,,,,,,,,0,,,74,0
61184,note_on,18,0,1,,,,,,,,,,,,,,,0,,,74,127
61190,note_on,6,0,1,,,,,,,,,,,,,,,0,,,76,0
61216,note_on,26,0,1,,,,,,,,,,,,,,,0,,,76,127
61246,note_on,30,0,1,,,,,,,,,,,,,,,0,,,74,0
61248,note_on,2,0,1,,,,,,,,,,,,,,,0,,,74,127
61278,note_on,30,0,1,,,,,,,,,,,,,,,0,,,76,0
61280,note_on,2,0,1,,,,,,,,,,,,,,,0,,,76,127
61310,note_on,30,0,1,,,,,,,,,,,,,,,0,,,74,0
61312,note_on,2,0,1,,,,,,,,,,,,,,,0,,,74,127
61342,note_on,30,0,1,,,,,,,,,,,,,,,0,,,76,0
61343,note_on,0,0,1,,,,,,,,,,,,,,,0,,,36,0
61343,note_on,1,0,1,,,,,,,,,,,,,,,0,,,48,0
61344,note_on,1,0,1,,,,,,,,,,,,,,,0,,,48,127
61344,note_on,0,0,1,,,,,,,,,,,,,,,0,,,60,127
61344,note_on,0,0,1,,,,,,,,,,,,,,,0,,,76,127
61374,note_on,30,0,1,,,,,,,,,,,,,,,0,,,74,0
61376,note_on,2,0,1,,,,,,,,,,,,,,,0,,,74,127
61406,note_on,30,0,1,,,,,,,,,,,,,,,0,,,76,0
61408,note_on,2,0,1,,,,,,,,,,,,,,,0,,,76,127
61438,note_on,30,0,1,,,,,,,,,,,,,,,0,,,74,0
61440,note_on,2,0,1,,,,,,,,,,,,,,,0,,,74,127
61464,note_on,24,0,1,,,,,,,,,,,,,,,0,,,72,127
61470,note_on,6,0,1,,,,,,,,,,,,,,,0,,,76,0
61486,note_on,16,0,1,,,,,,,,,,,,,,,0,,,74,0
61488,note_on,2,0,1,,,,,,,,,,,,,,,0,,,74,127
61512,note_on,24,0,1,,,,,,,,,,,,,,,0,,,76,127
61526,note_on,14,0,1,,,,,,,,,,,,,,,0,,,72,0
61535,note_on,9,0,1,,,,,,,,,,,,,,,0,,,48,0
61535,note_on,0,0,1,,,,,,,,,,,,,,,0,,,60,0
61536,note_on,1,0,1,,,,,,,,,,,,,,,0,,,35,127
61536,note_on,0,0,1,,,,,,,,,,,,,,,0,,,47,127
61550,note_on,14,0,1,,,,,,,,,,,,,,,0,,,74,0
61568,note_on,18,0,1,,,,,,,,,,,,,,,0,,,74,127
61574,note_on,6,0,1,,,,,,,,,,,,,,,0,,,76,0
61600,note_on,26,0,1,,,,,,,,,,,,,,,0,,,76,127
61630,note_on,30,0,1,,,,,,,,,,,,,,,0,,,74,0
61632,note_on,2,0,1,,,,,,,,,,,,,,,0,,,74,127
61662,note_on,30,0,1,,,,,,,,,,,,,,,0,,,76,0
61664,note_on,2,0,1,,,,,,,,,,,,,,,0,,,76,127
61694,note_on,30,0,1,,,,,,,,,,,,,,,0,,,74,0
61696,note_on,2,0,1,,,,,,,,,,,,,,,0,,,74,127
61726,note_on,30,0,1,,,,,,,,,,,,,,,0,,,76,0
61727,note_on,1,0,1,,,,,,,,,,,,,,,0,,,47,0
61727,note_on,0,0,1,,,,,,,,,,,,,,,0,,,35,0
61728,note_on,1,0,1,,,,,,,,,,,,,,,0,,,47,127
61728,note_on,0,0,1,,,,,,,,,,,,,,,0,,,59,127
61728,note_on,0,0,1,,,,,,,,,,,,,,,0,,,76,127
61758,note_on,30,0,1,,,,,,,,,,,,,,,0,,,74,0
61760,note_on,2,0,1,,,,,,,,,,,,,,,0,,,74,127
61790,note_on,30,0,1,,,,,,,,,,,,,,,0,,,76,0
61792,note_on,2,0,1,,,,,,,,,,,,,,,0,,,76,127
61822,note_on,30,0,1,,,,,,,,,,,,,,,0,,,74,0
61824,note_on,2,0,1,,,,,,,,,,,,,,,0,,,74,127
61848,note_on,24,0,1,,,,,,,,,,,,,,,0,,,72,127
61854,note_on,6,0,1,,,,,,,,,,,,,,,0,,,76,0
61870,note_on,16,0,1,,,,,,,,,,,,,,,0,,,74,0
61872,note_on,2,0,1,,,,,,,,,,,,,,,0,,,74,127
61896,note_on,24,0,1,,,,,,,,,,,,,,,0,,,76,127
61910,note_on,14,0,1,,,,,,,,,,,,,,,0,,,72,0
61919,note_on,9,0,1,,,,,,,,,,,,,,,0,,,47,0
61919,note_on,0,0,1,,,,,,,,,,,,,,,0,,,59,0
61920,note_on,0,0,1,,,,,,,,,,,,,,,0,,,45,127
61920,note_on,1,0,1,,,,,,,,,,,,,,,0,,,33,127
61934,note_on,14,0,1,,,,,,,,,,,,,,,0,,,74,0
61952,note_on,18,0,1,,,,,,,,,,,,,,,0,,,74,127
61958,note_on,6,0,1,,,,,,,,,,,,,,,0,,,76,0
61984,note_on,26,0,1,,,,,,,,,,,,,,,0,,,76,127
62014,note_on,30,0,1,,,,,,,,,,,,,,,0,,,74,0
62016,note_on,2,0,1,,,,,,,,,,,,,,,0,,,74,127
62046,note_on,30,0,1,,,,,,,,,,,,,,,0,,,76,0
62048,note_on,2,0,1,,,,,,,,,,,,,,,0,,,76,127
62078,note_on,30,0,1,,,,,,,,,,,,,,,0,,,74,0
62080,note_on,2,0,1,,,,,,,,,,,,,,,0,,,74,127
62110,note_on,30,0,1,,,,,,,,,,,,,,,0,,,76,0
62111,note_on,0,0,1,,,,,,,,,,,,,,,0,,,33,0
62111,note_on,1,0,1,,,,,,,,,,,,,,,0,,,45,0
62112,note_on,0,0,1,,,,,,,,,,,,,,,0,,,57,127
62112,note_on,1,0,1,,,,,,,,,,,,,,,0,,,45,127
62112,note_on,0,0,1,,,,,,,,,,,,,,,0,,,76,127
62142,note_on,30,0,1,,,,,,,,,,,,,,,0,,,74,0
62144,note_on,2,0,1,,,,,,,,,,,,,,,0,,,74,127
62174,note_on,30,0,1,,,,,,,,,,,,,,,0,,,76,0
62176,note_on,2,0,1,,,,,,,,,,,,,,,0,,,76,127
62206,note_on,30,0,1,,,,,,,,,,,,,,,0,,,74,0
62208,note_on,2,0,1,,,,,,,,,,,,,,,0,,,74,127
62232,note_on,24,0,1,,,,,,,,,,,,,,,0,,,72,127
62238,note_on,6,0,1,,,,,,,,,,,,,,,0,,,76,0
62254,note_on,16,0,1,,,,,,,,,,,,,,,0,,,74,0
62256,note_on,2,0,1,,,,,,,,,,,,,,,0,,,74,127
62280,note_on,24,0,1,,,,,,,,,,,,,,,0,,,76,127
62294,note_on,14,0,1,,,,,,,,,,,,,,,0,,,72,0
62303,note_on,9,0,1,,,,,,,,,,,,,,,0,,,45,0
62303,note_on,0,0,1,,,,,,,,,,,,,,,0,,,57,0
62304,note_on,1,0,1,,,,,,,,,,,,,,,0,,,31,127
62304,note_on,0,0,1,,,,,,,,,,,,,,,0,,,43,127
62318,note_on,14,0,1,,,,,,,,,,,,,,,0,,,74,0
62336,note_on,18,0,1,,,,,,,,,,,,,,,0,,,74,127
62342,note_on,6,0,1,,,,,,,,,,,,,,,0,,,76,0
62368,note_on,26,0,1,,,,,,,,,,,,,,,0,,,76,127
62398,note_on,30,0,1,,,,,,,,,,,,,,,0,,,74,0
62400,note_on,2,0,1,,,,,,,,,,,,,,,0,,,74,127
62430,note_on,30,0,1,,,,,,,,,,,,,,,0,,,76,0
62432,note_on,2,0,1,,,,,,,,,,,,,,,0,,,76,127
62462,note_on,30,0,1,,,,,,,,,,,,,,,0,,,74,0
62464,note_on,2,0,1,,,,,,,,,,,,,,,0,,,74,127
62494,note_on,30,0,1,,,,,,,,,,,,,,,0,,,76,0
62495,note_on,1,0,1,,,,,,,,,,,,,,,0,,,43,0
62495,note_on,0,0,1,,,,,,,,,,,,,,,0,,,31,0
62496,note_on,1,0,1,,,,,,,,,,,,,,,0,,,55,127
62496,note_on,0,0,1,,,,,,,,,,,,,,,0,,,76,127
62526,note_on,30,0,1,,,,,,,,,,,,,,,0,,,74,0
62528,note_on,2,0,1,,,,,,,,,,,,,,,0,,,74,127
62558,note_on,30,0,1,,,,,,,,,,,,,,,0,,,76,0
62560,note_on,2,0,1,,,,,,,,,,,,,,,0,,,76,127
62590,note_on,30,0,1,,,,,,,,,,,,,,,0,,,74,0
62592,note_on,2,0,1,,,,,,,,,,,,,,,0,,,74,127
62616,note_on,24,0,1,,,,,,,,,,,,,,,0,,,72,127
62622,note_on,6,0,1,,,,,,,,,,,,,,,0,,,76,0
62638,note_on,16,0,1,,,,,,,,,,,,,,,0,,,74,0
62640,note_on,2,0,1,,,,,,,,,,,,,,,0,,,74,127
62664,note_on,24,0,1,,,,,,,,,,,,,,,0,,,76,127
62678,note_on,14,0,1,,,,,,,,,,,,,,,0,,,72,0
62687,note_on,9,0,1,,,,,,,,,,,,,,,0,,,55,0
62688,note_on,1,0,1,,,,,,,,,,,,,,,0,,,43,127
62688,note_on,0,0,1,,,,,,,,,,,,,,,0,,,71,127
62702,note_on,14,0,1,,,,,,,,,,,,,,,0,,,74,0
62726,note_on,24,0,1,,,,,,,,,,,,,,,0,,,76,0
62751,note_on,25,0,1,,,,,,,,,,,,,,,0,,,71,0
62752,note_on,1,0,1,,,,,,,,,,,,,,,0,,,72,127
62815,note_on,63,0,1,,,,,,,,,,,,,,,0,,,72,0
62816,note_on,1,0,1,,,,,,,,,,,,,,,0,,,74,127
62879,note_on,63,0,1,,,,,,,,,,,,,,,0,,,74,0
62879,note_on,0,0,1,,,,,,,,,,,,,,,0,,,43,0
62880,note_on,1,0,1,,,,,,,,,,,,,,,0,,,45,127
62880,note_on,0,0,1,,,,,,,,,,,,,,,0,,,72,127
62943,note_on,63,0,1,,,,,,,,,,,,,,,0,,,72,0
62944,note_on,1,0,1,,,,,,,,,,,,,,,0,,,74,127
63007,note_on,63,0,1,,,,,,,,,,,,,,,0,,,74,0
63008,note_on,1,0,1,,,,,,,,,,,,,,,0,,,76,127
63071,note_on,63,0,1,,,,,,,,,,,,,,,0,,,76,0
63071,note_on,0,0,1,,,,,,,,,,,,,,,0,,,45,0
63072,note_on,1,0,1,,,,,,,,,,,,,,,0,,,47,127
63072,note_on,0,0,1,,,,,,,,,,,,,,,0,,,74,127
63135,note_on,63,0,1,,,,,,,,,,,,,,,0,,,74,0
63136,note_on,1,0,1,,,,,,,,,,,,,,,0,,,76,127
63199,note_on,63,0,1,,,,,,,,,,,,,,,0,,,76,0
63200,note_on,1,0,1,,,,,,,,,,,,,,,0,,,77,127
63263,note_on,63,0,1,,,,,,,,,,,,,,,0,,,77,0
63263,note_on,0,0,1,,,,,,,,,,,,,,,0,,,47,0
63264,note_on,1,0,1,,,,,,,,,,,,,,,0,,,48,127
63264,note_on,0,0,1,,,,,,,,,,,,,,,0,,,76,127
63327,note_on,63,0,1,,,,,,,,,,,,,,,0,,,76,0
63328,note_on,1,0,1,,,,,,,,,,,,,,,0,,,77,127
63391,note_on,63,0,1,,,,,,,,,,,,,,,0,,,77,0
63392,note_on,1,0,1,,,,,,,,,,,,,,,0,,,79,127
63455,note_on,63,0,1,,,,,,,,,,,,,,,0,,,48,0
63456,note_on,1,0,1,,,,,,,,,,,,,,,0,,,50,127
63456,note_on,0,0,1,,,,,,,,,,,,,,,0,,,71,127
63519,note_on,63,0,1,,,,,,,,,,,,,,,0,,,71,0
63520,note_on,1,0,1,,,,,,,,,,,,,,,0,,,72,127
63583,note_on,63,0,1,,,,,,,,,,,,,,,0,,,72,0
63584,note_on,1,0,1,,,,,,,,,,,,,,,0,,,74,127
63647,note_on,63,0,1,,,,,,,,,,,,,,,0,,,74,0
63647,note_on,0,0,1,,,,,,,,,,,,,,,0,,,50,0
63648,note_on,0,0,1,,,,,,,,,,,,,,,0,,,72,127
63648,note_on,1,0,1,,,,,,,,,,,,,,,0,,,52,127
63712,note_on,64,0,1,,,,,,,,,,,,,,,0,,,74,127
63755,note_on,43,0,1,,,,,,,,,,,,,,,0,,,79,0
63775,note_on,20,0,1,,,,,,,,,,,,,,,0,,,74,0
63776,note_on,1,0,1,,,,,,,,,,,,,,,0,,,76,127
63839,note_on,63,0,1,,,,,,,,,,,,,,,0,,,76,0
63839,note_on,0,0,1,,,,,,,,,,,,,,,0,,,52,0
63840,note_on,1,0,1,,,,,,,,,,,,,,,0,,,53,127
63840,note_on,0,0,1,,,,,,,,,,,,,,,0,,,74,127
63903,note_on,63,0,1,,,,,,,,,,,,,,,0,,,74,0
63904,note_on,1,0,1,,,,,,,,,,,,,,,0,,,76,127
63967,note_on,63,0,1,,,,,,,,,,,,,,,0,,,76,0
63968,note_on,1,0,1,,,,,,,,,,,,,,,0,,,77,127
64031,note_on,63,0,1,,,,,,,,,,,,,,,0,,,77,0
64031,note_on,0,0,1,,,,,,,,,,,,,,,0,,,53,0
64032,note_on,1,0,1,,,,,,,,,,,,,,,0,,,55,127
64032,note_on,0,0,1,,,,,,,,,,,,,,,0,,,76,127
64223,note_on,0,0,1,,,,,,,,,,,,,,,0,,,72,0
64223,note_on,191,0,1,,,,,,,,,,,,,,,0,,,76,0
64224,note_on,1,0,1,,,,,,,,,,,,,,,0,,,43,127
64224,note_on,0,0,1,,,,,,,,,,,,,,,0,,,71,127
64224,note_on,0,0,1,,,,,,,,,,,,,,,0,,,74,127
64256,note_on,32,0,1,,,,,,,,,,,,,,,0,,,76,127
64286,note_on,30,0,1,,,,,,,,,,,,,,,0,,,74,0
64288,note_on,2,0,1,,,,,,,,,,,,,,,0,,,74,127
64318,note_on,30,0,1,,,,,,,,,,,,,,,0,,,76,0
64415,note_on,97,0,1,,,,,,,,,,,,,,,0,,,71,0
64415,note_on,0,0,1,,,,,,,,,,,,,,,0,,,55,0
64415,note_on,0,0,1,,,,,,,,,,,,,,,0,,,74,0
64415,note_on,0,0,1,,,,,,,,,,,,,,,0,,,43,0
64416,note_on,1,0,1,,,,,,,,,,,,,,,0,,,48,127
64544,note_on,128,0,1,,,,,,,,,,,,,,,0,,,83,127
64607,note_on,63,0,1,,,,,,,,,,,,,,,0,,,83,0
64608,note_on,1,0,1,,,,,,,,,,,,,,,0,,,84,127
64735,note_on,127,0,1,,,,,,,,,,,,,,,0,,,84,0
64736,note_on,1,0,1,,,,,,,,,,,,,,,0,,,79,127
64799,note_on,63,0,1,,,,,,,,,,,,,,,0,,,79,0
64799,note_on,0,0,1,,,,,,,,,,,,,,,0,,,48,0
64800,note_on,0,0,1,,,,,,,,,,,,,,,0,,,81,127
64800,note_on,1,0,1,,,,,,,,,,,,,,,0,,,72,127
64927,note_on,127,0,1,,,,,,,,,,,,,,,0,,,81,0
64928,note_on,1,0,1,,,,,,,,,,,,,,,0,,,76,127
64991,note_on,63,0,1,,,,,,,,,,,,,,,0,,,76,0
64991,note_on,0,0,1,,,,,,,,,,,,,,,0,,,72,0
64992,note_on,0,0,1,,,,,,,,,,,,,,,0,,,77,127
64992,note_on,1,0,1,,,,,,,,,,,,,,,0,,,72,127
65119,note_on,127,0,1,,,,,,,,,,,,,,,0,,,77,0
65120,note_on,1,0,1,,,,,,,,,,,,,,,0,,,88,127
65183,note_on,63,0,1,,,,,,,,,,,,,,,0,,,88,0
65183,note_on,0,0,1,,,,,,,,,,,,,,,0,,,72,0
65184,note_on,0,0,1,,,,,,,,,,,,,,,0,,,88,127
65184,note_on,1,0,1,,,,,,,,,,,,,,,0,,,72,127
65216,note_on,32,0,1,,,,,,,,,,,,,,,0,,,86,127
65246,note_on,30,0,1,,,,,,,,,,,,,,,0,,,88,0
65248,note_on,2,0,1,,,,,,,,,,,,,,,0,,,88,127
65278,note_on,30,0,1,,,,,,,,,,,,,,,0,,,86,0
65280,note_on,2,0,1,,,,,,,,,,,,,,,0,,,86,127
65310,note_on,30,0,1,,,,,,,,,,,,,,,0,,,88,0
65375,note_on,65,0,1,,,,,,,,,,,,,,,0,,,72,0
65376,note_on,1,0,1,,,,,,,,,,,,,,,0,,,71,127
65567,note_on,191,0,1,,,,,,,,,,,,,,,0,,,71,0
65568,note_on,1,0,1,,,,,,,,,,,,,,,0,,,60,127
65695,note_on,127,0,1,,,,,,,,,,,,,,,0,,,86,0
65696,note_on,1,0,1,,,,,,,,,,,,,,,0,,,83,127
65759,note_on,63,0,1,,,,,,,,,,,,,,,0,,,83,0
65759,note_on,0,0,1,,,,,,,,,,,,,,,0,,,60,0
65760,note_on,1,0,1,,,,,,,,,,,,,,,0,,,72,127
65760,note_on,0,0,1,,,,,,,,,,,,,,,0,,,84,127
65887,note_on,127,0,1,,,,,,,,,,,,,,,0,,,84,0
65888,note_on,1,0,1,,,,,,,,,,,,,,,0,,,79,127
65951,note_on,63,0,1,,,,,,,,,,,,,,,0,,,79,0
65951,note_on,0,0,1,,,,,,,,,,,,,,,0,,,72,0
65952,note_on,1,0,1,,,,,,,,,,,,,,,0,,,72,127
65952,note_on,0,0,1,,,,,,,,,,,,,,,0,,,81,127
66079,note_on,127,0,1,,,,,,,,,,,,,,,0,,,81,0
66080,note_on,1,0,1,,,,,,,,,,,,,,,0,,,76,127
66143,note_on,63,0,1,,,,,,,,,,,,,,,0,,,76,0
66143,note_on,0,0,1,,,,,,,,,,,,,,,0,,,72,0
66144,note_on,1,0,1,,,,,,,,,,,,,,,0,,,72,127
66144,note_on,0,0,1,,,,,,,,,,,,,,,0,,,77,127
66271,note_on,127,0,1,,,,,,,,,,,,,,,0,,,77,0
66272,note_on,1,0,1,,,,,,,,,,,,,,,0,,,88,127
66335,note_on,0,0,1,,,,,,,,,,,,,,,0,,,72,0
66335,note_on,63,0,1,,,,,,,,,,,,,,,0,,,88,0
66336,note_on,1,0,1,,,,,,,,,,,,,,,0,,,72,127
66336,note_on,0,0,1,,,,,,,,,,,,,,,0,,,88,127
66368,note_on,32,0,1,,,,,,,,,,,,,,,0,,,86,127
66398,note_on,30,0,1,,,,,,,,,,,,,,,0,,,88,0
66400,note_on,2,0,1,,,,,,,,,,,,,,,0,,,88,127
66430,note_on,30,0,1,,,,,,,,,,,,,,,0,,,86,0
66432,note_on,2,0,1,,,,,,,,,,,,,,,0,,,86,127
66462,note_on,30,0,1,,,,,,,,,,,,,,,0,,,88,0
66527,note_on,65,0,1,,,,,,,,,,,,,,,0,,,72,0
66528,note_on,1,0,1,,,,,,,,,,,,,,,0,,,71,127
66719,note_on,191,0,1,,,,,,,,,,,,,,,0,,,71,0
66720,note_on,1,0,1,,,,,,,,,,,,,,,0,,,72,127
66720,note_on,0,0,1,,,,,,,,,,,,,,,0,,,60,127
66847,note_on,127,0,1,,,,,,,,,,,,,,,0,,,86,0
66848,note_on,1,0,1,,,,,,,,,,,,,,,0,,,89,127
66911,note_on,63,0,1,,,,,,,,,,,,,,,0,,,89,0
66911,note_on,0,0,1,,,,,,,,,,,,,,,0,,,60,0
66912,note_on,1,0,1,,,,,,,,,,,,,,,0,,,62,127
66912,note_on,0,0,1,,,,,,,,,,,,,,,0,,,88,127
67039,note_on,127,0,1,,,,,,,,,,,,,,,0,,,88,0
67040,note_on,1,0,1,,,,,,,,,,,,,,,0,,,83,127
67103,note_on,63,0,1,,,,,,,,,,,,,,,0,,,83,0
67103,note_on,0,0,1,,,,,,,,,,,,,,,0,,,62,0
67104,note_on,0,0,1,,,,,,,,,,,,,,,0,,,84,127
67104,note_on,1,0,1,,,,,,,,,,,,,,,0,,,64,127
67231,note_on,127,0,1,,,,,,,,,,,,,,,0,,,84,0
67232,note_on,1,0,1,,,,,,,,,,,,,,,0,,,79,127
67295,note_on,63,0,1,,,,,,,,,,,,,,,0,,,79,0
67295,note_on,0,0,1,,,,,,,,,,,,,,,0,,,64,0
67295,note_on,0,0,1,,,,,,,,,,,,,,,0,,,72,0
67296,note_on,1,0,1,,,,,,,,,,,,,,,0,,,65,127
67296,note_on,0,0,1,,,,,,,,,,,,,,,0,,,53,127
67296,note_on,0,0,1,,,,,,,,,,,,,,,0,,,81,127
67423,note_on,127,0,1,,,,,,,,,,,,,,,0,,,81,0
67424,note_on,1,0,1,,,,,,,,,,,,,,,0,,,76,127
67487,note_on,63,0,1,,,,,,,,,,,,,,,0,,,76,0
67487,note_on,0,0,1,,,,,,,,,,,,,,,0,,,53,0
67488,note_on,1,0,1,,,,,,,,,,,,,,,0,,,55,127
67488,note_on,0,0,1,,,,,,,,,,,,,,,0,,,77,127
67615,note_on,127,0,1,,,,,,,,,,,,,,,0,,,77,0
67616,note_on,1,0,1,,,,,,,,,,,,,,,0,,,72,127
67679,note_on,0,0,1,,,,,,,,,,,,,,,0,,,55,0
67679,note_on,63,0,1,,,,,,,,,,,,,,,0,,,72,0
67680,note_on,0,0,1,,,,,,,,,,,,,,,0,,,74,127
67680,note_on,1,0,1,,,,,,,,,,,,,,,0,,,57,127
67807,note_on,127,0,1,,,,,,,,,,,,,,,0,,,74,0
67808,note_on,1,0,1,,,,,,,,,,,,,,,0,,,69,127
67871,note_on,0,0,1,,,,,,,,,,,,,,,0,,,57,0
67871,note_on,0,0,1,,,,,,,,,,,,,,,0,,,65,0
67871,note_on,63,0,1,,,,,,,,,,,,,,,0,,,69,0
67872,note_on,1,0,1,,,,,,,,,,,,,,,0,,,55,127
67872,note_on,0,0,1,,,,,,,,,,,,,,,0,,,71,127
67999,note_on,127,0,1,,,,,,,,,,,,,,,0,,,71,0
68000,note_on,1,0,1,,,,,,,,,,,,,,,0,,,74,127
68063,note_on,63,0,1,,,,,,,,,,,,,,,0,,,74,0
68063,note_on,0,0,1,,,,,,,,,,,,,,,0,,,55,0
68064,note_on,1,0,1,,,,,,,,,,,,,,,0,,,53,127
68064,note_on,0,0,1,,,,,,,,,,,,,,,0,,,67,127
68191,note_on,127,0,1,,,,,,,,,,,,,,,0,,,67,0
68192,note_on,1,0,1,,,,,,,,,,,,,,,0,,,71,127
68255,note_on,63,0,1,,,,,,,,,,,,,,,0,,,71,0
68255,note_on,0,0,1,,,,,,,,,,,,,,,0,,,53,0
68256,note_on,0,0,1,,,,,,,,,,,,,,,0,,,72,127
68256,note_on,1,0,1,,,,,,,,,,,,,,,0,,,52,127
68383,note_on,127,0,1,,,,,,,,,,,,,,,0,,,72,0
68384,note_on,1,0,1,,,,,,,,,,,,,,,0,,,76,127
68447,note_on,63,0,1,,,,,,,,,,,,,,,0,,,76,0
68447,note_on,0,0,1,,,,,,,,,,,,,,,0,,,52,0
68448,note_on,1,0,1,,,,,,,,,,,,,,,0,,,53,127
68448,note_on,0,0,1,,,,,,,,,,,,,,,0,,,74,127
68575,note_on,127,0,1,,,,,,,,,,,,,,,0,,,74,0
68576,note_on,1,0,1,,,,,,,,,,,,,,,0,,,77,127
68639,note_on,63,0,1,,,,,,,,,,,,,,,0,,,77,0
68639,note_on,0,0,1,,,,,,,,,,,,,,,0,,,53,0
68640,note_on,1,0,1,,,,,,,,,,,,,,,0,,,55,127
68640,note_on,0,0,1,,,,,,,,,,,,,,,0,,,76,127
68767,note_on,127,0,1,,,,,,,,,,,,,,,0,,,76,0
68768,note_on,1,0,1,,,,,,,,,,,,,,,0,,,74,127
68831,note_on,63,0,1,,,,,,,,,,,,,,,0,,,74,0
68832,note_on,0,0,1,,,,,,,,,,,,,,,0,,,72,127
68832,note_on,1,0,1,,,,,,,,,,,,,,,0,,,43,127
68959,note_on,127,0,1,,,,,,,,,,,,,,,0,,,72,0
68960,note_on,1,0,1,,,,,,,,,,,,,,,0,,,71,127
69023,note_on,63,0,1,,,,,,,,,,,,,,,0,,,71,0
69023,note_on,0,0,1,,,,,,,,,,,,,,,0,,,43,0
69023,note_on,0,0,1,,,,,,,,,,,,,,,0,,,55,0
69024,note_on,0,0,1,,,,,,,,,,,,,,,0,,,72,127
69024,note_on,1,0,1,,,,,,,,,,,,,,,0,,,48,127
69151,note_on,127,0,1,,,,,,,,,,,,,,,0,,,72,0
69152,note_on,1,0,1,,,,,,,,,,,,,,,0,,,76,127
69215,note_on,63,0,1,,,,,,,,,,,,,,,0,,,76,0
69215,note_on,0,0,1,,,,,,,,,,,,,,,0,,,48,0
69216,note_on,1,0,1,,,,,,,,,,,,,,,0,,,53,127
69216,note_on,0,0,1,,,,,,,,,,,,,,,0,,,72,127
69216,note_on,0,0,1,,,,,,,,,,,,,,,0,,,74,127
69407,note_on,0,0,1,,,,,,,,,,,,,,,0,,,72,0
69407,note_on,0,0,1,,,,,,,,,,,,,,,0,,,53,0
69407,note_on,191,0,1,,,,,,,,,,,,,,,0,,,74,0
69408,note_on,1,0,1,,,,,,,,,,,,,,,0,,,55,127
69408,note_on,0,0,1,,,,,,,,,,,,,,,0,,,74,127
69408,note_on,0,0,1,,,,,,,,,,,,,,,0,,,72,127
69599,note_on,191,0,1,,,,,,,,,,,,,,,0,,,55,0
69600,note_on,1,0,1,,,,,,,,,,,,,,,0,,,57,127
69727,note_on,0,0,1,,,,,,,,,,,,,,,0,,,74,0
69727,note_on,127,0,1,,,,,,,,,,,,,,,0,,,72,0
69728,note_on,1,0,1,,,,,,,,,,,,,,,0,,,76,127
69791,note_on,63,0,1,,,,,,,,,,,,,,,0,,,76,0
69791,note_on,0,0,1,,,,,,,,,,,,,,,0,,,57,0
69792,note_on,1,0,1,,,,,,,,,,,,,,,0,,,53,127
69792,note_on,0,0,1,,,,,,,,,,,,,,,0,,,74,127
69792,note_on,0,0,1,,,,,,,,,,,,,,,0,,,72,127
69983,note_on,191,0,1,,,,,,,,,,,,,,,0,,,72,0
69983,note_on,0,0,1,,,,,,,,,,,,,,,0,,,74,0
69983,note_on,0,0,1,,,,,,,,,,,,,,,0,,,53,0
69984,note_on,1,0,1,,,,,,,,,,,,,,,0,,,55,127
69984,note_on,0,0,1,,,,,,,,,,,,,,,0,,,74,127
69984,note_on,0,0,1,,,,,,,,,,,,,,,0,,,72,127
70175,note_on,191,0,1,,,,,,,,,,,,,,,0,,,55,0
70176,note_on,1,0,1,,,,,,,,,,,,,,,0,,,57,127
70303,note_on,0,0,1,,,,,,,,,,,,,,,0,,,74,0
70303,note_on,127,0,1,,,,,,,,,,,,,,,0,,,72,0
70304,note_on,1,0,1,,,,,,,,,,,,,,,0,,,76,127
70367,note_on,63,0,1,,,,,,,,,,,,,,,0,,,76,0
70367,note_on,0,0,1,,,,,,,,,,,,,,,0,,,57,0
70368,note_on,1,0,1,,,,,,,,,,,,,,,0,,,53,127
70368,note_on,0,0,1,,,,,,,,,,,,,,,0,,,74,127
70368,note_on,0,0,1,,,,,,,,,,,,,,,0,,,72,127
70559,note_on,0,0,1,,,,,,,,,,,,,,,0,,,74,0
70559,note_on,0,0,1,,,,,,,,,,,,,,,0,,,53,0
70559,note_on,191,0,1,,,,,,,,,,,,,,,0,,,72,0
70560,note_on,1,0,1,,,,,,,,,,,,,,,0,,,55,127
70560,note_on,0,0,1,,,,,,,,,,,,,,,0,,,72,127
70560,note_on,0,0,1,,,,,,,,,,,,,,,0,,,74,127
70751,note_on,0,0,1,,,,,,,,,,,,,,,0,,,72,0
70751,note_on,0,0,1,,,,,,,,,,,,,,,0,,,55,0
70751,note_on,191,0,1,,,,,,,,,,,,,,,0,,,74,0
70752,note_on,1,0,1,,,,,,,,,,,,,,,0,,,57,127
70752,note_on,0,0,1,,,,,,,,,,,,,,,0,,,74,127
70815,note_on,63,0,1,,,,,,,,,,,,,,,0,,,74,0
70815,note_on,0,0,1,,,,,,,,,,,,,,,0,,,57,0
70816,note_on,0,0,1,,,,,,,,,,,,,,,0,,,76,127
70816,note_on,1,0,1,,,,,,,,,,,,,,,0,,,55,127
70879,note_on,0,0,1,,,,,,,,,,,,,,,0,,,55,0
70879,note_on,63,0,1,,,,,,,,,,,,,,,0,,,76,0
70880,note_on,1,0,1,,,,,,,,,,,,,,,0,,,53,127
70880,note_on,0,0,1,,,,,,,,,,,,,,,0,,,77,127
70943,note_on,63,0,1,,,,,,,,,,,,,,,0,,,77,0
70943,note_on,0,0,1,,,,,,,,,,,,,,,0,,,53,0
70944,note_on,1,0,1,,,,,,,,,,,,,,,0,,,55,127
70944,note_on,0,0,1,,,,,,,,,,,,,,,0,,,76,127
71135,note_on,191,0,1,,,,,,,,,,,,,,,0,,,76,0
71136,note_on,0,0,1,,,,,,,,,,,,,,,0,,,71,127
71136,note_on,0,0,1,,,,,,,,,,,,,,,0,,,76,127
71136,note_on,1,0,1,,,,,,,,,,,,,,,0,,,43,127
71168,note_on,32,0,1,,,,,,,,,,,,,,,0,,,74,127
71198,note_on,30,0,1,,,,,,,,,,,,,,,0,,,76,0
71200,note_on,2,0,1,,,,,,,,,,,,,,,0,,,76,127
71230,note_on,30,0,1,,,,,,,,,,,,,,,0,,,74,0
71232,note_on,2,0,1,,,,,,,,,,,,,,,0,,,74,127
71262,note_on,30,0,1,,,,,,,,,,,,,,,0,,,76,0
71327,note_on,0,0,1,,,,,,,,,,,,,,,0,,,43,0
71327,note_on,65,0,1,,,,,,,,,,,,,,,0,,,71,0
71327,note_on,0,0,1,,,,,,,,,,,,,,,0,,,55,0
71327,note_on,0,0,1,,,,,,,,,,,,,,,0,,,74,0
71328,note_on,1,0,1,,,,,,,,,,,,,,,0,,,48,127
71328,note_on,0,0,1,,,,,,,,,,,,,,,0,,,84,127
71519,note_on,191,0,1,,,,,,,,,,,,,,,0,,,84,0
71519,note_on,0,0,1,,,,,,,,,,,,,,,0,,,48,0
71520,note_on,1,0,1,,,,,,,,,,,,,,,0,,,53,127
71520,note_on,0,0,1,,,,,,,,,,,,,,,0,,,72,127
71520,note_on,0,0,1,,,,,,,,,,,,,,,0,,,74,127
71711,note_on,191,0,1,,,,,,,,,,,,,,,0,,,72,0
71711,note_on,0,0,1,,,,,,,,,,,,,,,0,,,74,0
71711,note_on,0,0,1,,,,,,,,,,,,,,,0,,,53,0
71712,note_on,1,0,1,,,,,,,,,,,,,,,0,,,55,127
71712,note_on,0,0,1,,,,,,,,,,,,,,,0,,,72,127
71712,note_on,0,0,1,,,,,,,,,,,,,,,0,,,74,127
71903,note_on,191,0,1,,,,,,,,,,,,,,,0,,,74,0
71903,note_on,0,0,1,,,,,,,,,,,,,,,0,,,72,0
71903,note_on,0,0,1,,,,,,,,,,,,,,,0,,,55,0
71904,note_on,1,0,1,,,,,,,,,,,,,,,0,,,57,127
71904,note_on,0,0,1,,,,,,,,,,,,,,,0,,,84,127
72095,note_on,191,0,1,,,,,,,,,,,,,,,0,,,84,0
72095,note_on,0,0,1,,,,,,,,,,,,,,,0,,,57,0
72096,note_on,0,0,1,,,,,,,,,,,,,,,0,,,74,127
72096,note_on,1,0,1,,,,,,,,,,,,,,,0,,,53,127
72096,note_on,0,0,1,,,,,,,,,,,,,,,0,,,72,127
72287,note_on,191,0,1,,,,,,,,,,,,,,,0,,,74,0
72287,note_on,0,0,1,,,,,,,,,,,,,,,0,,,72,0
72287,note_on,0,0,1,,,,,,,,,,,,,,,0,,,53,0
72288,note_on,1,0,1,,,,,,,,,,,,,,,0,,,55,127
72288,note_on,0,0,1,,,,,,,,,,,,,,,0,,,74,127
72288,note_on,0,0,1,,,,,,,,,,,,,,,0,,,72,127
72479,note_on,191,0,1,,,,,,,,,,,,,,,0,,,72,0
72479,note_on,0,0,1,,,,,,,,,,,,,,,0,,,74,0
72479,note_on,0,0,1,,,,,,,,,,,,,,,0,,,55,0
72480,note_on,1,0,1,,,,,,,,,,,,,,,0,,,57,127
72480,note_on,0,0,1,,,,,,,,,,,,,,,0,,,84,127
72671,note_on,191,0,1,,,,,,,,,,,,,,,0,,,84,0
72671,note_on,0,0,1,,,,,,,,,,,,,,,0,,,57,0
72672,note_on,1,0,1,,,,,,,,,,,,,,,0,,,53,127
72672,note_on,0,0,1,,,,,,,,,,,,,,,0,,,72,127
72672,note_on,0,0,1,,,,,,,,,,,,,,,0,,,74,127
72863,note_on,0,0,1,,,,,,,,,,,,,,,0,,,53,0
72863,note_on,0,0,1,,,,,,,,,,,,,,,0,,,72,0
72863,note_on,191,0,1,,,,,,,,,,,,,,,0,,,74,0
72864,note_on,1,0,1,,,,,,,,,,,,,,,0,,,55,127
72864,note_on,0,0,1,,,,,,,,,,,,,,,0,,,72,127
72864,note_on,0,0,1,,,,,,,,,,,,,,,0,,,74,127
73055,note_on,191,0,1,,,,,,,,,,,,,,,0,,,72,0
73055,note_on,0,0,1,,,,,,,,,,,,,,,0,,,74,0
73055,note_on,0,0,1,,,,,,,,,,,,,,,0,,,55,0
73056,note_on,1,0,1,,,,,,,,,,,,,,,0,,,57,127
73056,note_on,0,0,1,,,,,,,,,,,,,,,0,,,74,127
73056,note_on,0,0,1,,,,,,,,,,,,,,,0,,,72,127
73119,note_on,63,0,1,,,,,,,,,,,,,,,0,,,74,0
73119,note_on,0,0,1,,,,,,,,,,,,,,,0,,,57,0
73120,note_on,1,0,1,,,,,,,,,,,,,,,0,,,55,127
73120,note_on,0,0,1,,,,,,,,,,,,,,,0,,,76,127
73183,note_on,63,0,1,,,,,,,,,,,,,,,0,,,76,0
73183,note_on,0,0,1,,,,,,,,,,,,,,,0,,,55,0
73184,note_on,1,0,1,,,,,,,,,,,,,,,0,,,53,127
73184,note_on,0,0,1,,,,,,,,,,,,,,,0,,,77,127
73247,note_on,0,0,1,,,,,,,,,,,,,,,0,,,53,0
73247,note_on,63,0,1,,,,,,,,,,,,,,,0,,,77,0
73248,note_on,1,0,1,,,,,,,,,,,,,,,0,,,55,127
73248,note_on,0,0,1,,,,,,,,,,,,,,,0,,,76,127
73439,note_on,191,0,1,,,,,,,,,,,,,,,0,,,76,0
73439,note_on,0,0,1,,,,,,,,,,,,,,,0,,,72,0
73440,note_on,1,0,1,,,,,,,,,,,,,,,0,,,43,127
73440,note_on,0,0,1,,,,,,,,,,,,,,,0,,,71,127
73440,note_on,0,0,1,,,,,,,,,,,,,,,0,,,76,127
73472,note_on,32,0,1,,,,,,,,,,,,,,,0,,,74,127
73502,note_on,30,0,1,,,,,,,,,,,,,,,0,,,76,0
73504,note_on,2,0,1,,,,,,,,,,,,,,,0,,,76,127
73534,note_on,30,0,1,,,,,,,,,,,,,,,0,,,74,0
73536,note_on,2,0,1,,,,,,,,,,,,,,,0,,,74,127
73566,note_on,30,0,1,,,,,,,,,,,,,,,0,,,76,0
73631,note_on,65,0,1,,,,,,,,,,,,,,,0,,,71,0
73631,note_on,0,0,1,,,,,,,,,,,,,,,0,,,55,0
73631,note_on,0,0,1,,,,,,,,,,,,,,,0,,,43,0
73631,note_on,0,0,1,,,,,,,,,,,,,,,0,,,74,0
73632,note_on,0,0,1,,,,,,,,,,,,,,,0,,,72,127
73632,note_on,1,0,1,,,,,,,,,,,,,,,0,,,48,127
73759,note_on,127,0,1,,,,,,,,,,,,,,,0,,,72,0
73760,note_on,1,0,1,,,,,,,,,,,,,,,0,,,83,127
73823,note_on,63,0,1,,,,,,,,,,,,,,,0,,,83,0
73824,note_on,1,0,1,,,,,,,,,,,,,,,0,,,84,127
73951,note_on,127,0,1,,,,,,,,,,,,,,,0,,,84,0
73952,note_on,1,0,1,,,,,,,,,,,,,,,0,,,79,127
74015,note_on,0,0,1,,,,,,,,,,,,,,,0,,,48,0
74015,note_on,63,0,1,,,,,,,,,,,,,,,0,,,79,0
74016,note_on,1,0,1,,,,,,,,,,,,,,,0,,,60,127
74016,note_on,0,0,1,,,,,,,,,,,,,,,0,,,81,127
74143,note_on,127,0,1,,,,,,,,,,,,,,,0,,,81,0
74144,note_on,1,0,1,,,,,,,,,,,,,,,0,,,76,127
74207,note_on,63,0,1,,,,,,,,,,,,,,,0,,,76,0
74208,note_on,1,0,1,,,,,,,,,,,,,,,0,,,62,127
74208,note_on,0,0,1,,,,,,,,,,,,,,,0,,,77,127
74335,note_on,127,0,1,,,,,,,,,,,,,,,0,,,77,0
74336,note_on,1,0,1,,,,,,,,,,,,,,,0,,,81,127
74399,note_on,63,0,1,,,,,,,,,,,,,,,0,,,81,0
74399,note_on,0,0,1,,,,,,,,,,,,,,,0,,,60,0
74400,note_on,1,0,1,,,,,,,,,,,,,,,0,,,59,127
74400,note_on,0,0,1,,,,,,,,,,,,,,,0,,,79,127
74527,note_on,127,0,1,,,,,,,,,,,,,,,0,,,79,0
74528,note_on,1,0,1,,,,,,,,,,,,,,,0,,,77,127
74591,note_on,0,0,1,,,,,,,,,,,,,,,0,,,59,0
74591,note_on,63,0,1,,,,,,,,,,,,,,,0,,,77,0
74592,note_on,1,0,1,,,,,,,,,,,,,,,0,,,55,127
74592,note_on,0,0,1,,,,,,,,,,,,,,,0,,,76,127
74719,note_on,127,0,1,,,,,,,,,,,,,,,0,,,76,0
74720,note_on,1,0,1,,,,,,,,,,,,,,,0,,,74,127
74783,note_on,63,0,1,,,,,,,,,,,,,,,0,,,74,0
74783,note_on,0,0,1,,,,,,,,,,,,,,,0,,,55,0
74783,note_on,0,0,1,,,,,,,,,,,,,,,0,,,62,0
74784,note_on,1,0,1,,,,,,,,,,,,,,,0,,,60,127
74784,note_on,0,0,1,,,,,,,,,,,,,,,0,,,48,127
74784,note_on,0,0,1,,,,,,,,,,,,,,,0,,,76,127
74911,note_on,127,0,1,,,,,,,,,,,,,,,0,,,76,0
74912,note_on,1,0,1,,,,,,,,,,,,,,,0,,,79,127
74975,note_on,63,0,1,,,,,,,,,,,,,,,0,,,79,0
74975,note_on,0,0,1,,,,,,,,,,,,,,,0,,,48,0
74976,note_on,1,0,1,,,,,,,,,,,,,,,0,,,50,127
74976,note_on,0,0,1,,,,,,,,,,,,,,,0,,,71,127
75103,note_on,127,0,1,,,,,,,,,,,,,,,0,,,71,0
75104,note_on,1,0,1,,,,,,,,,,,,,,,0,,,74,127
75167,note_on,63,0,1,,,,,,,,,,,,,,,0,,,74,0
75167,note_on,0,0,1,,,,,,,,,,,,,,,0,,,50,0
75168,note_on,0,0,1,,,,,,,,,,,,,,,0,,,72,127
75168,note_on,1,0,1,,,,,,,,,,,,,,,0,,,52,127
75295,note_on,127,0,1,,,,,,,,,,,,,,,0,,,72,0
75296,note_on,1,0,1,,,,,,,,,,,,,,,0,,,76,127
75359,note_on,63,0,1,,,,,,,,,,,,,,,0,,,76,0
75359,note_on,0,0,1,,,,,,,,,,,,,,,0,,,52,0
75359,note_on,0,0,1,,,,,,,,,,,,,,,0,,,60,0
75360,note_on,1,0,1,,,,,,,,,,,,,,,0,,,53,127
75360,note_on,0,0,1,,,,,,,,,,,,,,,0,,,74,127
75487,note_on,127,0,1,,,,,,,,,,,,,,,0,,,74,0
75488,note_on,1,0,1,,,,,,,,,,,,,,,0,,,77,127
75551,note_on,63,0,1,,,,,,,,,,,,,,,0,,,77,0
75551,note_on,0,0,1,,,,,,,,,,,,,,,0,,,53,0
75552,note_on,1,0,1,,,,,,,,,,,,,,,0,,,55,127
75552,note_on,0,0,1,,,,,,,,,,,,,,,0,,,76,127
75743,note_on,191,0,1,,,,,,,,,,,,,,,0,,,76,0
75744,note_on,0,0,1,,,,,,,,,,,,,,,0,,,71,127
75744,note_on,1,0,1,,,,,,,,,,,,,,,0,,,43,127
75744,note_on,0,0,1,,,,,,,,,,,,,,,0,,,76,127
75776,note_on,32,0,1,,,,,,,,,,,,,,,0,,,74,127
75806,note_on,30,0,1,,,,,,,,,,,,,,,0,,,76,0
75808,note_on,2,0,1,,,,,,,,,,,,,,,0,,,76,127
75838,note_on,30,0,1,,,,,,,,,,,,,,,0,,,74,0
75840,note_on,2,0,1,,,,,,,,,,,,,,,0,,,74,127
75870,note_on,30,0,1,,,,,,,,,,,,,,,0,,,76,0
75935,note_on,65,0,1,,,,,,,,,,,,,,,0,,,71,0
75935,note_on,0,0,1,,,,,,,,,,,,,,,0,,,55,0
75935,note_on,0,0,1,,,,,,,,,,,,,,,0,,,74,0
75935,note_on,0,0,1,,,,,,,,,,,,,,,0,,,43,0
75936,note_on,1,0,1,,,,,,,,,,,,,,,0,,,36,127
75936,note_on,0,0,1,,,,,,,,,,,,,,,0,,,72,127
75936,control_change,0,0,1,,,,,,,,,,,,,,,0,121,0,,
77088,note_on,1152,0,1,,,,,,,,,,,,,,,0,,,72,0
77088,note_on,0,0,1,,,,,,,,,,,,,,,0,,,36,0
77088,end_of_track,0,1,1,,,,,,,,,,,,,,,,,,,
