tick,type,time,meta,track,frame_rate,hours,minutes,seconds,frames,sub_frames,numerator,denominator,clocks_per_click,notated_32nd_notes_per_beat,key,tempo,port,program,channel,control,value,note,velocity
0,track_name,0,1,0,,,,,,,,,,,,,,,,,,,
0,midi_port,0,1,2,,,,,,,,,,,,,0,,,,,,
0,control_change,0,0,1,,,,,,,,,,,,,,,0,7,127,,
0,program_change,0,0,1,,,,,,,,,,,,,,0,0,,,,
0,midi_port,0,1,1,,,,,,,,,,,,,0,,,,,,
0,end_of_track,0,1,0,,,,,,,,,,,,,,,,,,,
0,end_of_track,0,1,2,,,,,,,,,,,,,,,,,,,
0,key_signature,0,1,0,,,,,,,,,,,C,,,,,,,,
0,text,0,1,0,,,,,,,,,,,,,,,,,,,
0,set_tempo,0,1,0,,,,,,,,,,,,600000,,,,,,,
0,smpte_offset,0,1,0,25,32,0,3,0,0,,,,,,,,,,,,,
0,time_signature,0,1,0,,,,,,,4,4,24,8,,,,,,,,,
32,note_on,0,0,1,,,,,,,,,,,,,,,0,,,64,127
32,control_change,32,0,1,,,,,,,,,,,,,,,0,121,0,,
32,program_change,0,0,1,,,,,,,,,,,,,,0,0,,,,
32,control_change,0,0,1,,,,,,,,,,,,,,,0,7,127,,
159,note_on,127,0,1,,,,,,,,,,,,,,,0,,,64,0
160,note_on,1,0,1,,,,,,,,,,,,,,,0,,,67,127
287,note_on,127,0,1,,,,,,,,,,,,,,,0,,,67,0
288,note_on,1,0,1,,,,,,,,,,,,,,,0,,,72,127
415,note_on,127,0,1,,,,,,,,,,,,,,,0,,,72,0
416,note_on,0,0,1,,,,,,,,,,,,,,,0,,,76,127
416,note_on,1,0,1,,,,,,,,,,,,,,,0,,,72,127
543,note_on,127,0,1,,,,,,,,,,,,,,,0,,,76,0
544,note_on,1,0,1,,,,,,,,,,,,,,,0,,,77,127
671,note_on,127,0,1,,,,,,,,,,,,,,,0,,,77,0
672,note_on,1,0,1,,,,,,,,,,,,,,,0,,,79,127
799,note_on,0,0,1,,,,,,,,,,,,,,,0,,,72,0
799,note_on,127,0,1,,,,,,,,,,,,,,,0,,,79,0
800,note_on,1,0,1,,,,,,,,,,,,,,,0,,,72,127
800,note_on,0,0,1,,,,,,,,,,,,,,,0,,,76,127
1183,note_on,383,0,1,,,,,,,,,,,,,,,0,,,76,0
1183,note_on,0,0,1,,,,,,,,,,,,,,,0,,,72,0
1184,note_on,1,0,1,,,,,,,,,,,,,,,0,,,67,127
1184,note_on,0,0,1,,,,,,,,,,,,,,,0,,,76,127
1232,note_on,48,0,1,,,,,,,,,,,,,,,0,,,74,127
1247,note_on,15,0,1,,,,,,,,,,,,,,,0,,,76,0
1280,note_on,33,0,1,,,,,,,,,,,,,,,0,,,76,127
1295,note_on,15,0,1,,,,,,,,,,,,,,,0,,,74,0
1328,note_on,33,0,1,,,,,,,,,,,,,,,0,,,74,127
1343,note_on,15,0,1,,,,,,,,,,,,,,,0,,,76,0
1567,note_on,224,0,1,,,,,,,,,,,,,,,0,,,67,0
1568,note_on,1,0,1,,,,,,,,,,,,,,,0,,,74,0
1568,note_on,0,0,1,,,,,,,,,,,,,,,0,,,64,127
1695,note_on,127,0,1,,,,,,,,,,,,,,,0,,,64,0
1696,note_on,1,0,1,,,,,,,,,,,,,,,0,,,67,127
1823,note_on,127,0,1,,,,,,,,,,,,,,,0,,,67,0
1824,note_on,1,0,1,,,,,,,,,,,,,,,0,,,72,127
1951,note_on,127,0,1,,,,,,,,,,,,,,,0,,,72,0
1952,note_on,0,0,1,,,,,,,,,,,,,,,0,,,76,127
1952,note_on,1,0,1,,,,,,,,,,,,,,,0,,,72,127
2079,note_on,127,0,1,,,,,,,,,,,,,,,0,,,76,0
2080,note_on,1,0,1,,,,,,,,,,,,,,,0,,,77,127
2207,note_on,127,0,1,,,,,,,,,,,,,,,0,,,77,0
2208,note_on,1,0,1,,,,,,,,,,,,,,,0,,,79,127
2335,note_on,0,0,1,,,,,,,,,,,,,,,0,,,72,0
2335,note_on,127,0,1,,,,,,,,,,,,,,,0,,,79,0
2336,note_on,1,0,1,,,,,,,,,,,,,,,0,,,72,127
2336,note_on,0,0,1,,,,,,,,,,,,,,,0,,,76,127
2719,note_on,383,0,1,,,,,,,,,,,,,,,0,,,76,0
2719,note_on,0,0,1,,,,,,,,,,,,,,,0,,,72,0
2720,note_on,1,0,1,,,,,,,,,,,,,,,0,,,67,127
2720,note_on,0,0,1,,,,,,,,,,,,,,,0,,,76,127
2768,note_on,48,0,1,,,,,,,,,,,,,,,0,,,74,127
2783,note_on,15,0,1,,,,,,,,,,,,,,,0,,,76,0
2816,note_on,33,0,1,,,,,,,,,,,,,,,0,,,76,127
2831,note_on,15,0,1,,,,,,,,,,,,,,,0,,,74,0
2864,note_on,33,0,1,,,,,,,,,,,,,,,0,,,74,127
2879,note_on,15,0,1,,,,,,,,,,,,,,,0,,,76,0
3103,note_on,224,0,1,,,,,,,,,,,,,,,0,,,67,0
3104,note_on,0,0,1,,,,,,,,,,,,,,,0,,,76,127
3104,note_on,1,0,1,,,,,,,,,,,,,,,0,,,74,0
3231,note_on,127,0,1,,,,,,,,,,,,,,,0,,,76,0
3232,note_on,1,0,1,,,,,,,,,,,,,,,0,,,74,127
3359,note_on,127,0,1,,,,,,,,,,,,,,,0,,,74,0
3360,note_on,1,0,1,,,,,,,,,,,,,,,0,,,72,127
3487,note_on,127,0,1,,,,,,,,,,,,,,,0,,,72,0
3488,note_on,1,0,1,,,,,,,,,,,,,,,0,,,64,127
3488,note_on,0,0,1,,,,,,,,,,,,,,,0,,,74,127
3536,note_on,48,0,1,,,,,,,,,,,,,,,0,,,72,127
3551,note_on,15,0,1,,,,,,,,,,,,,,,0,,,74,0
3584,note_on,33,0,1,,,,,,,,,,,,,,,0,,,74,127
3599,note_on,15,0,1,,,,,,,,,,,,,,,0,,,72,0
3632,note_on,33,0,1,,,,,,,,,,,,,,,0,,,72,127
3647,note_on,15,0,1,,,,,,,,,,,,,,,0,,,74,0
3871,note_on,224,0,1,,,,,,,,,,,,,,,0,,,64,0
3872,note_on,1,0,1,,,,,,,,,,,,,,,0,,,72,0
3872,note_on,0,0,1,,,,,,,,,,,,,,,0,,,65,127
3872,note_on,0,0,1,,,,,,,,,,,,,,,0,,,74,127
3999,note_on,127,0,1,,,,,,,,,,,,,,,0,,,74,0
4000,note_on,1,0,1,,,,,,,,,,,,,,,0,,,72,127
4127,note_on,127,0,1,,,,,,,,,,,,,,,0,,,72,0
4128,note_on,1,0,1,,,,,,,,,,,,,,,0,,,71,127
4255,note_on,127,0,1,,,,,,,,,,,,,,,0,,,71,0
4255,note_on,0,0,1,,,,,,,,,,,,,,,0,,,65,0
4256,note_on,0,0,1,,,,,,,,,,,,,,,0,,,72,127
4256,note_on,1,0,1,,,,,,,,,,,,,,,0,,,67,127
4304,note_on,48,0,1,,,,,,,,,,,,,,,0,,,71,127
4319,note_on,15,0,1,,,,,,,,,,,,,,,0,,,72,0
4352,note_on,33,0,1,,,,,,,,,,,,,,,0,,,72,127
4367,note_on,15,0,1,,,,,,,,,,,,,,,0,,,71,0
4400,note_on,33,0,1,,,,,,,,,,,,,,,0,,,71,127
4415,note_on,15,0,1,,,,,,,,,,,,,,,0,,,72,0
4639,note_on,224,0,1,,,,,,,,,,,,,,,0,,,67,0
4640,note_on,0,0,1,,,,,,,,,,,,,,,0,,,52,127
4640,note_on,0,0,1,,,,,,,,,,,,,,,0,,,72,127
4640,note_on,1,0,1,,,,,,,,,,,,,,,0,,,71,0
4767,note_on,127,0,1,,,,,,,,,,,,,,,0,,,52,0
4768,note_on,1,0,1,,,,,,,,,,,,,,,0,,,55,127
4895,note_on,127,0,1,,,,,,,,,,,,,,,0,,,55,0
4896,note_on,1,0,1,,,,,,,,,,,,,,,0,,,60,127
5023,note_on,127,0,1,,,,,,,,,,,,,,,0,,,60,0
5024,note_on,0,0,1,,,,,,,,,,,,,,,0,,,60,127
5024,note_on,1,0,1,,,,,,,,,,,,,,,0,,,64,127
5151,note_on,127,0,1,,,,,,,,,,,,,,,0,,,64,0
5152,note_on,1,0,1,,,,,,,,,,,,,,,0,,,67,127
5279,note_on,127,0,1,,,,,,,,,,,,,,,0,,,67,0
5280,note_on,1,0,1,,,,,,,,,,,,,,,0,,,72,0
5280,note_on,0,0,1,,,,,,,,,,,,,,,0,,,72,127
5407,note_on,127,0,1,,,,,,,,,,,,,,,0,,,60,0
5408,note_on,1,0,1,,,,,,,,,,,,,,,0,,,64,127
5408,note_on,0,0,1,,,,,,,,,,,,,,,0,,,60,127
5791,note_on,0,0,1,,,,,,,,,,,,,,,0,,,64,0
5791,note_on,383,0,1,,,,,,,,,,,,,,,0,,,60,0
5792,note_on,1,0,1,,,,,,,,,,,,,,,0,,,72,0
5792,note_on,0,0,1,,,,,,,,,,,,,,,0,,,55,127
5792,note_on,0,0,1,,,,,,,,,,,,,,,0,,,64,127
5792,note_on,0,0,1,,,,,,,,,,,,,,,0,,,79,127
5840,note_on,48,0,1,,,,,,,,,,,,,,,0,,,62,127
5855,note_on,15,0,1,,,,,,,,,,,,,,,0,,,64,0
5888,note_on,33,0,1,,,,,,,,,,,,,,,0,,,64,127
5903,note_on,15,0,1,,,,,,,,,,,,,,,0,,,62,0
5936,note_on,33,0,1,,,,,,,,,,,,,,,0,,,62,127
5951,note_on,15,0,1,,,,,,,,,,,,,,,0,,,64,0
6175,note_on,224,0,1,,,,,,,,,,,,,,,0,,,55,0
6175,note_on,0,0,1,,,,,,,,,,,,,,,0,,,79,0
6175,note_on,0,0,1,,,,,,,,,,,,,,,0,,,62,0
6176,note_on,0,0,1,,,,,,,,,,,,,,,0,,,81,127
6176,note_on,1,0,1,,,,,,,,,,,,,,,0,,,52,127
6224,note_on,48,0,1,,,,,,,,,,,,,,,0,,,79,127
6239,note_on,15,0,1,,,,,,,,,,,,,,,0,,,81,0
6272,note_on,33,0,1,,,,,,,,,,,,,,,0,,,81,127
6287,note_on,15,0,1,,,,,,,,,,,,,,,0,,,79,0
6303,note_on,16,0,1,,,,,,,,,,,,,,,0,,,52,0
6304,note_on,1,0,1,,,,,,,,,,,,,,,0,,,55,127
6320,note_on,16,0,1,,,,,,,,,,,,,,,0,,,79,127
6335,note_on,15,0,1,,,,,,,,,,,,,,,0,,,81,0
6368,note_on,33,0,1,,,,,,,,,,,,,,,0,,,81,127
6383,note_on,15,0,1,,,,,,,,,,,,,,,0,,,79,0
6416,note_on,33,0,1,,,,,,,,,,,,,,,0,,,79,127
6431,note_on,15,0,1,,,,,,,,,,,,,,,0,,,81,0
6431,note_on,0,0,1,,,,,,,,,,,,,,,0,,,55,0
6432,note_on,1,0,1,,,,,,,,,,,,,,,0,,,60,127
6464,note_on,32,0,1,,,,,,,,,,,,,,,0,,,81,127
6479,note_on,15,0,1,,,,,,,,,,,,,,,0,,,79,0
6512,note_on,33,0,1,,,,,,,,,,,,,,,0,,,79,127
6527,note_on,15,0,1,,,,,,,,,,,,,,,0,,,81,0
6559,note_on,32,0,1,,,,,,,,,,,,,,,0,,,60,0
6560,note_on,0,0,1,,,,,,,,,,,,,,,0,,,81,127
6560,note_on,1,0,1,,,,,,,,,,,,,,,0,,,60,127
6560,note_on,0,0,1,,,,,,,,,,,,,,,0,,,64,127
6575,note_on,15,0,1,,,,,,,,,,,,,,,0,,,79,0
6608,note_on,33,0,1,,,,,,,,,,,,,,,0,,,79,127
6623,note_on,15,0,1,,,,,,,,,,,,,,,0,,,81,0
6656,note_on,33,0,1,,,,,,,,,,,,,,,0,,,81,127
6671,note_on,15,0,1,,,,,,,,,,,,,,,0,,,79,0
6687,note_on,16,0,1,,,,,,,,,,,,,,,0,,,64,0
6688,note_on,1,0,1,,,,,,,,,,,,,,,0,,,67,127
6704,note_on,16,0,1,,,,,,,,,,,,,,,0,,,79,127
6719,note_on,15,0,1,,,,,,,,,,,,,,,0,,,81,0
6752,note_on,33,0,1,,,,,,,,,,,,,,,0,,,81,127
6767,note_on,15,0,1,,,,,,,,,,,,,,,0,,,79,0
6800,note_on,33,0,1,,,,,,,,,,,,,,,0,,,79,127
6815,note_on,15,0,1,,,,,,,,,,,,,,,0,,,81,0
6815,note_on,0,0,1,,,,,,,,,,,,,,,0,,,67,0
6816,note_on,1,0,1,,,,,,,,,,,,,,,0,,,72,127
6848,note_on,32,0,1,,,,,,,,,,,,,,,0,,,81,127
6863,note_on,15,0,1,,,,,,,,,,,,,,,0,,,79,0
6896,note_on,33,0,1,,,,,,,,,,,,,,,0,,,79,127
6911,note_on,15,0,1,,,,,,,,,,,,,,,0,,,81,0
6943,note_on,32,0,1,,,,,,,,,,,,,,,0,,,60,0
6943,note_on,0,0,1,,,,,,,,,,,,,,,0,,,72,0
6944,note_on,1,0,1,,,,,,,,,,,,,,,0,,,64,127
6944,note_on,0,0,1,,,,,,,,,,,,,,,0,,,60,127
7327,note_on,0,0,1,,,,,,,,,,,,,,,0,,,79,0
7327,note_on,383,0,1,,,,,,,,,,,,,,,0,,,60,0
7327,note_on,0,0,1,,,,,,,,,,,,,,,0,,,64,0
7328,note_on,1,0,1,,,,,,,,,,,,,,,0,,,55,127
7328,note_on,0,0,1,,,,,,,,,,,,,,,0,,,79,127
7328,note_on,0,0,1,,,,,,,,,,,,,,,0,,,64,127
7376,note_on,48,0,1,,,,,,,,,,,,,,,0,,,62,127
7391,note_on,15,0,1,,,,,,,,,,,,,,,0,,,64,0
7424,note_on,33,0,1,,,,,,,,,,,,,,,0,,,64,127
7439,note_on,15,0,1,,,,,,,,,,,,,,,0,,,62,0
7472,note_on,33,0,1,,,,,,,,,,,,,,,0,,,62,127
7487,note_on,15,0,1,,,,,,,,,,,,,,,0,,,64,0
7711,note_on,0,0,1,,,,,,,,,,,,,,,0,,,62,0
7711,note_on,224,0,1,,,,,,,,,,,,,,,0,,,55,0
7711,note_on,0,0,1,,,,,,,,,,,,,,,0,,,79,0
7712,note_on,1,0,1,,,,,,,,,,,,,,,0,,,60,127
7712,note_on,0,0,1,,,,,,,,,,,,,,,0,,,52,127
7712,note_on,0,0,1,,,,,,,,,,,,,,,0,,,84,127
7839,note_on,127,0,1,,,,,,,,,,,,,,,0,,,84,0
7840,note_on,1,0,1,,,,,,,,,,,,,,,0,,,79,127
7967,note_on,127,0,1,,,,,,,,,,,,,,,0,,,79,0
7968,note_on,1,0,1,,,,,,,,,,,,,,,0,,,76,127
8095,note_on,0,0,1,,,,,,,,,,,,,,,0,,,52,0
8095,note_on,127,0,1,,,,,,,,,,,,,,,0,,,76,0
8095,note_on,0,0,1,,,,,,,,,,,,,,,0,,,60,0
8096,note_on,0,0,1,,,,,,,,,,,,,,,0,,,72,127
8096,note_on,1,0,1,,,,,,,,,,,,,,,0,,,60,127
8096,note_on,0,0,1,,,,,,,,,,,,,,,0,,,64,127
8096,note_on,0,0,1,,,,,,,,,,,,,,,0,,,52,127
8223,note_on,127,0,1,,,,,,,,,,,,,,,0,,,72,0
8224,note_on,1,0,1,,,,,,,,,,,,,,,0,,,74,127
8351,note_on,127,0,1,,,,,,,,,,,,,,,0,,,74,0
8352,note_on,1,0,1,,,,,,,,,,,,,,,0,,,76,127
8479,note_on,0,0,1,,,,,,,,,,,,,,,0,,,52,0
8479,note_on,127,0,1,,,,,,,,,,,,,,,0,,,64,0
8480,note_on,1,0,1,,,,,,,,,,,,,,,0,,,53,127
8480,note_on,0,0,1,,,,,,,,,,,,,,,0,,,62,127
8528,note_on,48,0,1,,,,,,,,,,,,,,,0,,,74,127
8547,note_on,19,0,1,,,,,,,,,,,,,,,0,,,76,0
8576,note_on,29,0,1,,,,,,,,,,,,,,,0,,,60,0
8576,note_on,0,0,1,,,,,,,,,,,,,,,0,,,76,127
8591,note_on,15,0,1,,,,,,,,,,,,,,,0,,,74,0
8624,note_on,33,0,1,,,,,,,,,,,,,,,0,,,74,127
8639,note_on,15,0,1,,,,,,,,,,,,,,,0,,,76,0
8672,note_on,33,0,1,,,,,,,,,,,,,,,0,,,76,127
8687,note_on,15,0,1,,,,,,,,,,,,,,,0,,,74,0
8720,note_on,33,0,1,,,,,,,,,,,,,,,0,,,74,127
8735,note_on,15,0,1,,,,,,,,,,,,,,,0,,,76,0
8768,note_on,33,0,1,,,,,,,,,,,,,,,0,,,76,127
8783,note_on,15,0,1,,,,,,,,,,,,,,,0,,,74,0
8816,note_on,33,0,1,,,,,,,,,,,,,,,0,,,74,127
8831,note_on,15,0,1,,,,,,,,,,,,,,,0,,,76,0
8863,note_on,32,0,1,,,,,,,,,,,,,,,0,,,53,0
8864,note_on,0,0,1,,,,,,,,,,,,,,,0,,,76,127
8864,note_on,1,0,1,,,,,,,,,,,,,,,0,,,55,127
8864,note_on,0,0,1,,,,,,,,,,,,,,,0,,,59,127
8879,note_on,15,0,1,,,,,,,,,,,,,,,0,,,74,0
8912,note_on,33,0,1,,,,,,,,,,,,,,,0,,,74,127
8927,note_on,15,0,1,,,,,,,,,,,,,,,0,,,76,0
8960,note_on,33,0,1,,,,,,,,,,,,,,,0,,,76,127
8975,note_on,15,0,1,,,,,,,,,,,,,,,0,,,74,0
9008,note_on,33,0,1,,,,,,,,,,,,,,,0,,,74,127
9023,note_on,15,0,1,,,,,,,,,,,,,,,0,,,76,0
9056,note_on,33,0,1,,,,,,,,,,,,,,,0,,,76,127
9071,note_on,15,0,1,,,,,,,,,,,,,,,0,,,74,0
9104,note_on,33,0,1,,,,,,,,,,,,,,,0,,,74,127
9119,note_on,15,0,1,,,,,,,,,,,,,,,0,,,76,0
9152,note_on,33,0,1,,,,,,,,,,,,,,,0,,,72,127
9167,note_on,15,0,1,,,,,,,,,,,,,,,0,,,74,0
9200,note_on,33,0,1,,,,,,,,,,,,,,,0,,,74,127
9215,note_on,15,0,1,,,,,,,,,,,,,,,0,,,72,0
9247,note_on,32,0,1,,,,,,,,,,,,,,,0,,,59,0
9247,note_on,0,0,1,,,,,,,,,,,,,,,0,,,62,0
9247,note_on,0,0,1,,,,,,,,,,,,,,,0,,,55,0
9248,note_on,0,0,1,,,,,,,,,,,,,,,0,,,60,127
9248,note_on,1,0,1,,,,,,,,,,,,,,,0,,,48,127
9248,note_on,0,0,1,,,,,,,,,,,,,,,0,,,72,127
9263,note_on,15,0,1,,,,,,,,,,,,,,,0,,,74,0
9631,note_on,0,0,1,,,,,,,,,,,,,,,0,,,72,0
9631,note_on,368,0,1,,,,,,,,,,,,,,,0,,,48,0
9631,note_on,0,0,1,,,,,,,,,,,,,,,0,,,60,0
9632,note_on,0,0,1,,,,,,,,,,,,,,,0,,,79,127
9632,note_on,0,0,1,,,,,,,,,,,,,,,0,,,64,127
9632,note_on,1,0,1,,,,,,,,,,,,,,,0,,,60,127
9759,note_on,127,0,1,,,,,,,,,,,,,,,0,,,79,0
9760,note_on,1,0,1,,,,,,,,,,,,,,,0,,,76,127
9887,note_on,127,0,1,,,,,,,,,,,,,,,0,,,76,0
9888,note_on,1,0,1,,,,,,,,,,,,,,,0,,,67,127
10015,note_on,0,0,1,,,,,,,,,,,,,,,0,,,60,0
10015,note_on,127,0,1,,,,,,,,,,,,,,,0,,,67,0
10015,note_on,0,0,1,,,,,,,,,,,,,,,0,,,64,0
10016,note_on,0,0,1,,,,,,,,,,,,,,,0,,,65,127
10016,note_on,1,0,1,,,,,,,,,,,,,,,0,,,60,127
10399,note_on,383,0,1,,,,,,,,,,,,,,,0,,,65,0
10399,note_on,0,0,1,,,,,,,,,,,,,,,0,,,60,0
10400,note_on,1,0,1,,,,,,,,,,,,,,,0,,,65,127
10400,note_on,0,0,1,,,,,,,,,,,,,,,0,,,60,127
10400,note_on,0,0,1,,,,,,,,,,,,,,,0,,,71,127
10448,note_on,48,0,1,,,,,,,,,,,,,,,0,,,69,127
10463,note_on,15,0,1,,,,,,,,,,,,,,,0,,,71,0
10496,note_on,33,0,1,,,,,,,,,,,,,,,0,,,71,127
10511,note_on,15,0,1,,,,,,,,,,,,,,,0,,,69,0
10544,note_on,33,0,1,,,,,,,,,,,,,,,0,,,69,127
10559,note_on,15,0,1,,,,,,,,,,,,,,,0,,,71,0
10592,note_on,33,0,1,,,,,,,,,,,,,,,0,,,71,127
10607,note_on,15,0,1,,,,,,,,,,,,,,,0,,,69,0
10640,note_on,33,0,1,,,,,,,,,,,,,,,0,,,69,127
10655,note_on,15,0,1,,,,,,,,,,,,,,,0,,,71,0
10688,note_on,33,0,1,,,,,,,,,,,,,,,0,,,67,127
10703,note_on,15,0,1,,,,,,,,,,,,,,,0,,,69,0
10736,note_on,33,0,1,,,,,,,,,,,,,,,0,,,69,127
10751,note_on,15,0,1,,,,,,,,,,,,,,,0,,,67,0
10783,note_on,0,0,1,,,,,,,,,,,,,,,0,,,60,0
10783,note_on,32,0,1,,,,,,,,,,,,,,,0,,,65,0
10784,note_on,0,0,1,,,,,,,,,,,,,,,0,,,64,127
10784,note_on,0,0,1,,,,,,,,,,,,,,,0,,,67,127
10784,note_on,1,0,1,,,,,,,,,,,,,,,0,,,60,127
10799,note_on,15,0,1,,,,,,,,,,,,,,,0,,,69,0
11167,note_on,368,0,1,,,,,,,,,,,,,,,0,,,60,0
11167,note_on,0,0,1,,,,,,,,,,,,,,,0,,,64,0
11167,note_on,0,0,1,,,,,,,,,,,,,,,0,,,67,0
11168,note_on,0,0,1,,,,,,,,,,,,,,,0,,,76,127
11168,note_on,1,0,1,,,,,,,,,,,,,,,0,,,60,127
11168,note_on,0,0,1,,,,,,,,,,,,,,,0,,,64,127
11295,note_on,127,0,1,,,,,,,,,,,,,,,0,,,76,0
11296,note_on,1,0,1,,,,,,,,,,,,,,,0,,,72,127
11423,note_on,127,0,1,,,,,,,,,,,,,,,0,,,72,0
11424,note_on,1,0,1,,,,,,,,,,,,,,,0,,,64,127
11551,note_on,0,0,1,,,,,,,,,,,,,,,0,,,60,0
11551,note_on,127,0,1,,,,,,,,,,,,,,,0,,,64,0
11551,note_on,0,0,1,,,,,,,,,,,,,,,0,,,64,0
11552,note_on,0,0,1,,,,,,,,,,,,,,,0,,,62,127
11552,note_on,1,0,1,,,,,,,,,,,,,,,0,,,60,127
11552,note_on,0,0,1,,,,,,,,,,,,,,,0,,,55,127
11935,note_on,383,0,1,,,,,,,,,,,,,,,0,,,62,0
11935,note_on,0,0,1,,,,,,,,,,,,,,,0,,,55,0
11935,note_on,0,0,1,,,,,,,,,,,,,,,0,,,60,0
11936,note_on,1,0,1,,,,,,,,,,,,,,,0,,,62,127
11936,note_on,0,0,1,,,,,,,,,,,,,,,0,,,55,127
11936,note_on,0,0,1,,,,,,,,,,,,,,,0,,,67,127
11984,note_on,48,0,1,,,,,,,,,,,,,,,0,,,65,127
11999,note_on,15,0,1,,,,,,,,,,,,,,,0,,,67,0
12032,note_on,33,0,1,,,,,,,,,,,,,,,0,,,67,127
12047,note_on,15,0,1,,,,,,,,,,,,,,,0,,,65,0
12080,note_on,33,0,1,,,,,,,,,,,,,,,0,,,65,127
12095,note_on,15,0,1,,,,,,,,,,,,,,,0,,,67,0
12128,note_on,33,0,1,,,,,,,,,,,,,,,0,,,67,127
12143,note_on,15,0,1,,,,,,,,,,,,,,,0,,,65,0
12176,note_on,33,0,1,,,,,,,,,,,,,,,0,,,65,127
12191,note_on,15,0,1,,,,,,,,,,,,,,,0,,,67,0
12224,note_on,33,0,1,,,,,,,,,,,,,,,0,,,64,127
12239,note_on,15,0,1,,,,,,,,,,,,,,,0,,,65,0
12272,note_on,33,0,1,,,,,,,,,,,,,,,0,,,65,127
12287,note_on,15,0,1,,,,,,,,,,,,,,,0,,,64,0
12319,note_on,0,0,1,,,,,,,,,,,,,,,0,,,55,0
12319,note_on,32,0,1,,,,,,,,,,,,,,,0,,,62,0
12320,note_on,1,0,1,,,,,,,,,,,,,,,0,,,60,127
12320,note_on,0,0,1,,,,,,,,,,,,,,,0,,,64,127
12335,note_on,15,0,1,,,,,,,,,,,,,,,0,,,65,0
12703,note_on,368,0,1,,,,,,,,,,,,,,,0,,,64,0
12703,note_on,0,0,1,,,,,,,,,,,,,,,0,,,60,0
12704,note_on,0,0,1,,,,,,,,,,,,,,,0,,,79,127
12704,note_on,1,0,1,,,,,,,,,,,,,,,0,,,64,127
12704,note_on,0,0,1,,,,,,,,,,,,,,,0,,,60,127
12831,note_on,127,0,1,,,,,,,,,,,,,,,0,,,79,0
12832,note_on,1,0,1,,,,,,,,,,,,,,,0,,,76,127
12959,note_on,127,0,1,,,,,,,,,,,,,,,0,,,76,0
12960,note_on,1,0,1,,,,,,,,,,,,,,,0,,,67,127
13087,note_on,127,0,1,,,,,,,,,,,,,,,0,,,67,0
13087,note_on,0,0,1,,,,,,,,,,,,,,,0,,,60,0
13087,note_on,0,0,1,,,,,,,,,,,,,,,0,,,64,0
13088,note_on,0,0,1,,,,,,,,,,,,,,,0,,,60,127
13088,note_on,1,0,1,,,,,,,,,,,,,,,0,,,65,127
13471,note_on,383,0,1,,,,,,,,,,,,,,,0,,,60,0
13471,note_on,0,0,1,,,,,,,,,,,,,,,0,,,65,0
13472,note_on,0,0,1,,,,,,,,,,,,,,,0,,,71,127
13472,note_on,0,0,1,,,,,,,,,,,,,,,0,,,65,127
13472,note_on,1,0,1,,,,,,,,,,,,,,,0,,,60,127
13520,note_on,48,0,1,,,,,,,,,,,,,,,0,,,69,127
13535,note_on,15,0,1,,,,,,,,,,,,,,,0,,,71,0
13568,note_on,33,0,1,,,,,,,,,,,,,,,0,,,71,127
13583,note_on,15,0,1,,,,,,,,,,,,,,,0,,,69,0
13616,note_on,33,0,1,,,,,,,,,,,,,,,0,,,69,127
13631,note_on,15,0,1,,,,,,,,,,,,,,,0,,,71,0
13664,note_on,33,0,1,,,,,,,,,,,,,,,0,,,71,127
13679,note_on,15,0,1,,,,,,,,,,,,,,,0,,,69,0
13712,note_on,33,0,1,,,,,,,,,,,,,,,0,,,69,127
13727,note_on,15,0,1,,,,,,,,,,,,,,,0,,,71,0
13760,note_on,33,0,1,,,,,,,,,,,,,,,0,,,67,127
13775,note_on,15,0,1,,,,,,,,,,,,,,,0,,,69,0
13808,note_on,33,0,1,,,,,,,,,,,,,,,0,,,69,127
13823,note_on,15,0,1,,,,,,,,,,,,,,,0,,,67,0
13855,note_on,32,0,1,,,,,,,,,,,,,,,0,,,60,0
13855,note_on,0,0,1,,,,,,,,,,,,,,,0,,,65,0
13856,note_on,0,0,1,,,,,,,,,,,,,,,0,,,67,127
13856,note_on,1,0,1,,,,,,,,,,,,,,,0,,,64,127
13856,note_on,0,0,1,,,,,,,,,,,,,,,0,,,60,127
13871,note_on,15,0,1,,,,,,,,,,,,,,,0,,,69,0
14239,note_on,0,0,1,,,,,,,,,,,,,,,0,,,67,0
14239,note_on,368,0,1,,,,,,,,,,,,,,,0,,,64,0
14239,note_on,0,0,1,,,,,,,,,,,,,,,0,,,60,0
14240,note_on,1,0,1,,,,,,,,,,,,,,,0,,,60,127
14240,note_on,0,0,1,,,,,,,,,,,,,,,0,,,64,127
14240,note_on,0,0,1,,,,,,,,,,,,,,,0,,,76,127
14367,note_on,127,0,1,,,,,,,,,,,,,,,0,,,76,0
14368,note_on,1,0,1,,,,,,,,,,,,,,,0,,,72,127
14495,note_on,127,0,1,,,,,,,,,,,,,,,0,,,72,0
14496,note_on,1,0,1,,,,,,,,,,,,,,,0,,,64,127
14623,note_on,0,0,1,,,,,,,,,,,,,,,0,,,60,0
14623,note_on,127,0,1,,,,,,,,,,,,,,,0,,,64,0
14623,note_on,0,0,1,,,,,,,,,,,,,,,0,,,64,0
14624,note_on,1,0,1,,,,,,,,,,,,,,,0,,,55,127
14624,note_on,0,0,1,,,,,,,,,,,,,,,0,,,62,127
14624,note_on,0,0,1,,,,,,,,,,,,,,,0,,,60,127
15007,note_on,383,0,1,,,,,,,,,,,,,,,0,,,60,0
15007,note_on,0,0,1,,,,,,,,,,,,,,,0,,,62,0
15007,note_on,0,0,1,,,,,,,,,,,,,,,0,,,55,0
15008,note_on,0,0,1,,,,,,,,,,,,,,,0,,,67,127
15008,note_on,1,0,1,,,,,,,,,,,,,,,0,,,55,127
15008,note_on,0,0,1,,,,,,,,,,,,,,,0,,,62,127
15056,note_on,48,0,1,,,,,,,,,,,,,,,0,,,65,127
15071,note_on,15,0,1,,,,,,,,,,,,,,,0,,,67,0
15104,note_on,33,0,1,,,,,,,,,,,,,,,0,,,67,127
15119,note_on,15,0,1,,,,,,,,,,,,,,,0,,,65,0
15152,note_on,33,0,1,,,,,,,,,,,,,,,0,,,65,127
15167,note_on,15,0,1,,,,,,,,,,,,,,,0,,,67,0
15200,note_on,33,0,1,,,,,,,,,,,,,,,0,,,67,127
15215,note_on,15,0,1,,,,,,,,,,,,,,,0,,,65,0
15248,note_on,33,0,1,,,,,,,,,,,,,,,0,,,65,127
15263,note_on,15,0,1,,,,,,,,,,,,,,,0,,,67,0
15296,note_on,33,0,1,,,,,,,,,,,,,,,0,,,64,127
15311,note_on,15,0,1,,,,,,,,,,,,,,,0,,,65,0
15344,note_on,33,0,1,,,,,,,,,,,,,,,0,,,65,127
15359,note_on,15,0,1,,,,,,,,,,,,,,,0,,,64,0
15391,note_on,0,0,1,,,,,,,,,,,,,,,0,,,62,0
15391,note_on,32,0,1,,,,,,,,,,,,,,,0,,,55,0
15392,note_on,1,0,1,,,,,,,,,,,,,,,0,,,60,127
15392,note_on,0,0,1,,,,,,,,,,,,,,,0,,,64,127
15407,note_on,15,0,1,,,,,,,,,,,,,,,0,,,65,0
15775,note_on,368,0,1,,,,,,,,,,,,,,,0,,,64,0
15775,note_on,0,0,1,,,,,,,,,,,,,,,0,,,60,0
15776,note_on,0,0,1,,,,,,,,,,,,,,,0,,,72,127
15776,note_on,0,0,1,,,,,,,,,,,,,,,0,,,74,127
15776,note_on,1,0,1,,,,,,,,,,,,,,,0,,,60,127
15776,note_on,0,0,1,,,,,,,,,,,,,,,0,,,67,127
15839,note_on,63,0,1,,,,,,,,,,,,,,,0,,,72,0
15839,note_on,0,0,1,,,,,,,,,,,,,,,0,,,74,0
15840,note_on,1,0,1,,,,,,,,,,,,,,,0,,,71,127
15903,note_on,63,0,1,,,,,,,,,,,,,,,0,,,71,0
15904,note_on,1,0,1,,,,,,,,,,,,,,,0,,,72,127
15967,note_on,63,0,1,,,,,,,,,,,,,,,0,,,72,0
15968,note_on,1,0,1,,,,,,,,,,,,,,,0,,,74,127
16031,note_on,63,0,1,,,,,,,,,,,,,,,0,,,74,0
16032,note_on,1,0,1,,,,,,,,,,,,,,,0,,,76,127
16159,note_on,127,0,1,,,,,,,,,,,,,,,0,,,76,0
16159,note_on,0,0,1,,,,,,,,,,,,,,,0,,,67,0
16159,note_on,0,0,1,,,,,,,,,,,,,,,0,,,60,0
16160,note_on,1,0,1,,,,,,,,,,,,,,,0,,,59,127
16160,note_on,0,0,1,,,,,,,,,,,,,,,0,,,67,127
16160,note_on,0,0,1,,,,,,,,,,,,,,,0,,,74,127
16287,note_on,127,0,1,,,,,,,,,,,,,,,0,,,74,0
16288,note_on,1,0,1,,,,,,,,,,,,,,,0,,,81,127
16415,note_on,127,0,1,,,,,,,,,,,,,,,0,,,81,0
16416,note_on,1,0,1,,,,,,,,,,,,,,,0,,,79,127
16543,note_on,0,0,1,,,,,,,,,,,,,,,0,,,59,0
16543,note_on,127,0,1,,,,,,,,,,,,,,,0,,,79,0
16543,note_on,0,0,1,,,,,,,,,,,,,,,0,,,67,0
16544,note_on,1,0,1,,,,,,,,,,,,,,,0,,,59,127
16544,note_on,0,0,1,,,,,,,,,,,,,,,0,,,67,127
16544,note_on,0,0,1,,,,,,,,,,,,,,,0,,,81,127
16576,note_on,32,0,1,,,,,,,,,,,,,,,0,,,79,127
16607,note_on,31,0,1,,,,,,,,,,,,,,,0,,,81,0
16608,note_on,1,0,1,,,,,,,,,,,,,,,0,,,81,127
16639,note_on,31,0,1,,,,,,,,,,,,,,,0,,,79,0
16640,note_on,1,0,1,,,,,,,,,,,,,,,0,,,79,127
16671,note_on,31,0,1,,,,,,,,,,,,,,,0,,,81,0
16927,note_on,256,0,1,,,,,,,,,,,,,,,0,,,59,0
16927,note_on,0,0,1,,,,,,,,,,,,,,,0,,,67,0
16928,note_on,1,0,1,,,,,,,,,,,,,,,0,,,67,127
16928,note_on,0,0,1,,,,,,,,,,,,,,,0,,,57,127
17215,note_on,287,0,1,,,,,,,,,,,,,,,0,,,79,0
17311,note_on,96,0,1,,,,,,,,,,,,,,,0,,,57,0
17311,note_on,0,0,1,,,,,,,,,,,,,,,0,,,67,0
17312,note_on,1,0,1,,,,,,,,,,,,,,,0,,,57,127
17312,note_on,0,0,1,,,,,,,,,,,,,,,0,,,60,127
17312,note_on,0,0,1,,,,,,,,,,,,,,,0,,,71,127
17312,note_on,0,0,1,,,,,,,,,,,,,,,0,,,69,127
17375,note_on,63,0,1,,,,,,,,,,,,,,,0,,,69,0
17375,note_on,0,0,1,,,,,,,,,,,,,,,0,,,71,0
17376,note_on,1,0,1,,,,,,,,,,,,,,,0,,,67,127
17439,note_on,63,0,1,,,,,,,,,,,,,,,0,,,67,0
17440,note_on,1,0,1,,,,,,,,,,,,,,,0,,,69,127
17503,note_on,63,0,1,,,,,,,,,,,,,,,0,,,69,0
17504,note_on,1,0,1,,,,,,,,,,,,,,,0,,,71,127
17567,note_on,63,0,1,,,,,,,,,,,,,,,0,,,71,0
17568,note_on,1,0,1,,,,,,,,,,,,,,,0,,,72,127
17695,note_on,0,0,1,,,,,,,,,,,,,,,0,,,57,0
17695,note_on,0,0,1,,,,,,,,,,,,,,,0,,,60,0
17695,note_on,127,0,1,,,,,,,,,,,,,,,0,,,72,0
17696,note_on,1,0,1,,,,,,,,,,,,,,,0,,,62,127
17696,note_on,0,0,1,,,,,,,,,,,,,,,0,,,55,127
17696,note_on,0,0,1,,,,,,,,,,,,,,,0,,,71,127
17823,note_on,127,0,1,,,,,,,,,,,,,,,0,,,71,0
17824,note_on,1,0,1,,,,,,,,,,,,,,,0,,,81,127
17951,note_on,127,0,1,,,,,,,,,,,,,,,0,,,81,0
17952,note_on,1,0,1,,,,,,,,,,,,,,,0,,,79,127
18079,note_on,127,0,1,,,,,,,,,,,,,,,0,,,79,0
18079,note_on,0,0,1,,,,,,,,,,,,,,,0,,,55,0
18079,note_on,0,0,1,,,,,,,,,,,,,,,0,,,62,0
18080,note_on,0,0,1,,,,,,,,,,,,,,,0,,,62,127
18080,note_on,0,0,1,,,,,,,,,,,,,,,0,,,81,127
18080,note_on,1,0,1,,,,,,,,,,,,,,,0,,,55,127
18112,note_on,32,0,1,,,,,,,,,,,,,,,0,,,79,127
18143,note_on,31,0,1,,,,,,,,,,,,,,,0,,,81,0
18144,note_on,1,0,1,,,,,,,,,,,,,,,0,,,81,127
18175,note_on,31,0,1,,,,,,,,,,,,,,,0,,,79,0
18176,note_on,1,0,1,,,,,,,,,,,,,,,0,,,79,127
18207,note_on,31,0,1,,,,,,,,,,,,,,,0,,,81,0
18463,note_on,0,0,1,,,,,,,,,,,,,,,0,,,62,0
18463,note_on,256,0,1,,,,,,,,,,,,,,,0,,,55,0
18464,note_on,1,0,1,,,,,,,,,,,,,,,0,,,64,127
18464,note_on,0,0,1,,,,,,,,,,,,,,,0,,,60,127
18656,note_on,192,0,1,,,,,,,,,,,,,,,0,,,79,0
18847,note_on,191,0,1,,,,,,,,,,,,,,,0,,,60,0
18847,note_on,0,0,1,,,,,,,,,,,,,,,0,,,64,0
18848,note_on,0,0,1,,,,,,,,,,,,,,,0,,,74,127
18848,note_on,1,0,1,,,,,,,,,,,,,,,0,,,60,127
18848,note_on,0,0,1,,,,,,,,,,,,,,,0,,,67,127
18848,note_on,0,0,1,,,,,,,,,,,,,,,0,,,72,127
18911,note_on,0,0,1,,,,,,,,,,,,,,,0,,,74,0
18911,note_on,63,0,1,,,,,,,,,,,,,,,0,,,72,0
18912,note_on,1,0,1,,,,,,,,,,,,,,,0,,,71,127
18975,note_on,63,0,1,,,,,,,,,,,,,,,0,,,71,0
18976,note_on,1,0,1,,,,,,,,,,,,,,,0,,,72,127
19039,note_on,63,0,1,,,,,,,,,,,,,,,0,,,72,0
19040,note_on,1,0,1,,,,,,,,,,,,,,,0,,,74,127
19103,note_on,63,0,1,,,,,,,,,,,,,,,0,,,74,0
19104,note_on,1,0,1,,,,,,,,,,,,,,,0,,,76,127
19231,note_on,0,0,1,,,,,,,,,,,,,,,0,,,60,0
19231,note_on,0,0,1,,,,,,,,,,,,,,,0,,,67,0
19231,note_on,127,0,1,,,,,,,,,,,,,,,0,,,76,0
19232,note_on,1,0,1,,,,,,,,,,,,,,,0,,,67,127
19232,note_on,0,0,1,,,,,,,,,,,,,,,0,,,59,127
19232,note_on,0,0,1,,,,,,,,,,,,,,,0,,,74,127
19359,note_on,127,0,1,,,,,,,,,,,,,,,0,,,74,0
19360,note_on,1,0,1,,,,,,,,,,,,,,,0,,,81,127
19487,note_on,127,0,1,,,,,,,,,,,,,,,0,,,81,0
19488,note_on,1,0,1,,,,,,,,,,,,,,,0,,,79,127
19615,note_on,127,0,1,,,,,,,,,,,,,,,0,,,79,0
19615,note_on,0,0,1,,,,,,,,,,,,,,,0,,,59,0
19615,note_on,0,0,1,,,,,,,,,,,,,,,0,,,67,0
19616,note_on,0,0,1,,,,,,,,,,,,,,,0,,,67,127
19616,note_on,0,0,1,,,,,,,,,,,,,,,0,,,81,127
19616,note_on,1,0,1,,,,,,,,,,,,,,,0,,,59,127
19648,note_on,32,0,1,,,,,,,,,,,,,,,0,,,79,127
19679,note_on,31,0,1,,,,,,,,,,,,,,,0,,,81,0
19680,note_on,1,0,1,,,,,,,,,,,,,,,0,,,81,127
19711,note_on,31,0,1,,,,,,,,,,,,,,,0,,,79,0
19712,note_on,1,0,1,,,,,,,,,,,,,,,0,,,79,127
19743,note_on,31,0,1,,,,,,,,,,,,,,,0,,,81,0
19999,note_on,0,0,1,,,,,,,,,,,,,,,0,,,67,0
19999,note_on,256,0,1,,,,,,,,,,,,,,,0,,,59,0
20000,note_on,1,0,1,,,,,,,,,,,,,,,0,,,57,127
20000,note_on,0,0,1,,,,,,,,,,,,,,,0,,,67,127
20092,note_on,92,0,1,,,,,,,,,,,,,,,0,,,79,0
20383,note_on,291,0,1,,,,,,,,,,,,,,,0,,,67,0
20383,note_on,0,0,1,,,,,,,,,,,,,,,0,,,57,0
20384,note_on,0,0,1,,,,,,,,,,,,,,,0,,,69,127
20384,note_on,1,0,1,,,,,,,,,,,,,,,0,,,60,127
20384,note_on,0,0,1,,,,,,,,,,,,,,,0,,,71,127
20384,note_on,0,0,1,,,,,,,,,,,,,,,0,,,57,127
20447,note_on,0,0,1,,,,,,,,,,,,,,,0,,,71,0
20447,note_on,63,0,1,,,,,,,,,,,,,,,0,,,69,0
20448,note_on,1,0,1,,,,,,,,,,,,,,,0,,,67,127
20511,note_on,63,0,1,,,,,,,,,,,,,,,0,,,67,0
20512,note_on,1,0,1,,,,,,,,,,,,,,,0,,,69,127
20575,note_on,63,0,1,,,,,,,,,,,,,,,0,,,69,0
20576,note_on,1,0,1,,,,,,,,,,,,,,,0,,,71,127
20639,note_on,63,0,1,,,,,,,,,,,,,,,0,,,71,0
20640,note_on,1,0,1,,,,,,,,,,,,,,,0,,,72,127
20767,note_on,127,0,1,,,,,,,,,,,,,,,0,,,72,0
20767,note_on,0,0,1,,,,,,,,,,,,,,,0,,,57,0
20767,note_on,0,0,1,,,,,,,,,,,,,,,0,,,60,0
20768,note_on,0,0,1,,,,,,,,,,,,,,,0,,,71,127
20768,note_on,0,0,1,,,,,,,,,,,,,,,0,,,62,127
20768,note_on,1,0,1,,,,,,,,,,,,,,,0,,,55,127
20895,note_on,127,0,1,,,,,,,,,,,,,,,0,,,71,0
20896,note_on,1,0,1,,,,,,,,,,,,,,,0,,,81,127
21023,note_on,127,0,1,,,,,,,,,,,,,,,0,,,81,0
21024,note_on,1,0,1,,,,,,,,,,,,,,,0,,,79,127
21151,note_on,127,0,1,,,,,,,,,,,,,,,0,,,79,0
21151,note_on,0,0,1,,,,,,,,,,,,,,,0,,,62,0
21151,note_on,0,0,1,,,,,,,,,,,,,,,0,,,55,0
21152,note_on,0,0,1,,,,,,,,,,,,,,,0,,,62,127
21152,note_on,1,0,1,,,,,,,,,,,,,,,0,,,55,127
21152,note_on,0,0,1,,,,,,,,,,,,,,,0,,,81,127
21184,note_on,32,0,1,,,,,,,,,,,,,,,0,,,79,127
21215,note_on,31,0,1,,,,,,,,,,,,,,,0,,,81,0
21216,note_on,1,0,1,,,,,,,,,,,,,,,0,,,81,127
21247,note_on,31,0,1,,,,,,,,,,,,,,,0,,,79,0
21248,note_on,1,0,1,,,,,,,,,,,,,,,0,,,79,127
21279,note_on,31,0,1,,,,,,,,,,,,,,,0,,,81,0
21534,note_on,255,0,1,,,,,,,,,,,,,,,0,,,62,0
21535,note_on,1,0,1,,,,,,,,,,,,,,,0,,,79,0
21536,note_on,1,0,1,,,,,,,,,,,,,,,0,,,62,127
21663,note_on,127,0,1,,,,,,,,,,,,,,,0,,,62,0
21664,note_on,1,0,1,,,,,,,,,,,,,,,0,,,62,127
21791,note_on,127,0,1,,,,,,,,,,,,,,,0,,,62,0
21792,note_on,1,0,1,,,,,,,,,,,,,,,0,,,62,127
21919,note_on,127,0,1,,,,,,,,,,,,,,,0,,,62,0
21919,note_on,0,0,1,,,,,,,,,,,,,,,0,,,55,0
21920,note_on,1,0,1,,,,,,,,,,,,,,,0,,,54,127
21920,note_on,0,0,1,,,,,,,,,,,,,,,0,,,60,127
21920,note_on,0,0,1,,,,,,,,,,,,,,,0,,,62,127
22047,note_on,127,0,1,,,,,,,,,,,,,,,0,,,62,0
22048,note_on,1,0,1,,,,,,,,,,,,,,,0,,,62,127
22175,note_on,127,0,1,,,,,,,,,,,,,,,0,,,62,0
22176,note_on,1,0,1,,,,,,,,,,,,,,,0,,,62,127
22303,note_on,127,0,1,,,,,,,,,,,,,,,0,,,62,0
22303,note_on,0,0,1,,,,,,,,,,,,,,,0,,,54,0
22303,note_on,0,0,1,,,,,,,,,,,,,,,0,,,60,0
22304,note_on,1,0,1,,,,,,,,,,,,,,,0,,,60,127
22304,note_on,0,0,1,,,,,,,,,,,,,,,0,,,62,127
22304,note_on,0,0,1,,,,,,,,,,,,,,,0,,,55,127
22431,note_on,127,0,1,,,,,,,,,,,,,,,0,,,62,0
22432,note_on,1,0,1,,,,,,,,,,,,,,,0,,,62,127
22559,note_on,127,0,1,,,,,,,,,,,,,,,0,,,62,0
22560,note_on,1,0,1,,,,,,,,,,,,,,,0,,,62,127
22687,note_on,127,0,1,,,,,,,,,,,,,,,0,,,62,0
22687,note_on,0,0,1,,,,,,,,,,,,,,,0,,,55,0
22688,note_on,1,0,1,,,,,,,,,,,,,,,0,,,55,127
22688,note_on,0,0,1,,,,,,,,,,,,,,,0,,,62,127
22736,note_on,48,0,1,,,,,,,,,,,,,,,0,,,59,127
22744,note_on,8,0,1,,,,,,,,,,,,,,,0,,,60,0
22784,note_on,40,0,1,,,,,,,,,,,,,,,0,,,60,127
22799,note_on,15,0,1,,,,,,,,,,,,,,,0,,,59,0
22815,note_on,16,0,1,,,,,,,,,,,,,,,0,,,62,0
22816,note_on,1,0,1,,,,,,,,,,,,,,,0,,,62,127
22832,note_on,16,0,1,,,,,,,,,,,,,,,0,,,59,127
22847,note_on,15,0,1,,,,,,,,,,,,,,,0,,,60,0
22943,note_on,96,0,1,,,,,,,,,,,,,,,0,,,62,0
22944,note_on,1,0,1,,,,,,,,,,,,,,,0,,,62,127
23071,note_on,127,0,1,,,,,,,,,,,,,,,0,,,62,0
23072,note_on,1,0,1,,,,,,,,,,,,,,,0,,,62,127
23199,note_on,127,0,1,,,,,,,,,,,,,,,0,,,62,0
23200,note_on,1,0,1,,,,,,,,,,,,,,,0,,,62,127
23327,note_on,127,0,1,,,,,,,,,,,,,,,0,,,62,0
23328,note_on,1,0,1,,,,,,,,,,,,,,,0,,,62,127
23455,note_on,0,0,1,,,,,,,,,,,,,,,0,,,55,0
23455,note_on,127,0,1,,,,,,,,,,,,,,,0,,,62,0
23455,note_on,0,0,1,,,,,,,,,,,,,,,0,,,59,0
23456,note_on,0,0,1,,,,,,,,,,,,,,,0,,,60,127
23456,note_on,0,0,1,,,,,,,,,,,,,,,0,,,62,127
23456,note_on,1,0,1,,,,,,,,,,,,,,,0,,,54,127
23583,note_on,127,0,1,,,,,,,,,,,,,,,0,,,62,0
23584,note_on,1,0,1,,,,,,,,,,,,,,,0,,,62,127
23711,note_on,127,0,1,,,,,,,,,,,,,,,0,,,62,0
23712,note_on,1,0,1,,,,,,,,,,,,,,,0,,,62,127
23839,note_on,0,0,1,,,,,,,,,,,,,,,0,,,54,0
23839,note_on,127,0,1,,,,,,,,,,,,,,,0,,,62,0
23839,note_on,0,0,1,,,,,,,,,,,,,,,0,,,60,0
23840,note_on,1,0,1,,,,,,,,,,,,,,,0,,,60,127
23840,note_on,0,0,1,,,,,,,,,,,,,,,0,,,55,127
23840,note_on,0,0,1,,,,,,,,,,,,,,,0,,,62,127
23967,note_on,127,0,1,,,,,,,,,,,,,,,0,,,62,0
23968,note_on,1,0,1,,,,,,,,,,,,,,,0,,,62,127
24095,note_on,127,0,1,,,,,,,,,,,,,,,0,,,62,0
24096,note_on,1,0,1,,,,,,,,,,,,,,,0,,,62,127
24223,note_on,0,0,1,,,,,,,,,,,,,,,0,,,55,0
24223,note_on,127,0,1,,,,,,,,,,,,,,,0,,,62,0
24224,note_on,1,0,1,,,,,,,,,,,,,,,0,,,55,127
24224,note_on,0,0,1,,,,,,,,,,,,,,,0,,,62,127
24272,note_on,48,0,1,,,,,,,,,,,,,,,0,,,59,127
24280,note_on,8,0,1,,,,,,,,,,,,,,,0,,,60,0
24320,note_on,40,0,1,,,,,,,,,,,,,,,0,,,60,127
24335,note_on,15,0,1,,,,,,,,,,,,,,,0,,,59,0
24351,note_on,16,0,1,,,,,,,,,,,,,,,0,,,62,0
24352,note_on,1,0,1,,,,,,,,,,,,,,,0,,,62,127
24368,note_on,16,0,1,,,,,,,,,,,,,,,0,,,59,127
24383,note_on,15,0,1,,,,,,,,,,,,,,,0,,,60,0
24479,note_on,96,0,1,,,,,,,,,,,,,,,0,,,62,0
24480,note_on,1,0,1,,,,,,,,,,,,,,,0,,,62,127
24607,note_on,127,0,1,,,,,,,,,,,,,,,0,,,62,0
24607,note_on,0,0,1,,,,,,,,,,,,,,,0,,,55,0
24608,note_on,0,0,1,,,,,,,,,,,,,,,0,,,64,127
24608,note_on,1,0,1,,,,,,,,,,,,,,,0,,,48,127
24735,note_on,127,0,1,,,,,,,,,,,,,,,0,,,64,0
24736,note_on,1,0,1,,,,,,,,,,,,,,,0,,,66,127
24799,note_on,63,0,1,,,,,,,,,,,,,,,0,,,59,0
24863,note_on,64,0,1,,,,,,,,,,,,,,,0,,,66,0
24864,note_on,1,0,1,,,,,,,,,,,,,,,0,,,67,127
24991,note_on,127,0,1,,,,,,,,,,,,,,,0,,,67,0
24991,note_on,0,0,1,,,,,,,,,,,,,,,0,,,48,0
24992,note_on,0,0,1,,,,,,,,,,,,,,,0,,,60,127
24992,note_on,1,0,1,,,,,,,,,,,,,,,0,,,64,127
24992,note_on,0,0,1,,,,,,,,,,,,,,,0,,,69,127
25119,note_on,127,0,1,,,,,,,,,,,,,,,0,,,69,0
25120,note_on,1,0,1,,,,,,,,,,,,,,,0,,,71,127
25247,note_on,127,0,1,,,,,,,,,,,,,,,0,,,71,0
25248,note_on,1,0,1,,,,,,,,,,,,,,,0,,,72,127
25375,note_on,127,0,1,,,,,,,,,,,,,,,0,,,72,0
25375,note_on,0,0,1,,,,,,,,,,,,,,,0,,,64,0
25376,note_on,1,0,1,,,,,,,,,,,,,,,0,,,62,127
25376,note_on,0,0,1,,,,,,,,,,,,,,,0,,,74,127
25503,note_on,127,0,1,,,,,,,,,,,,,,,0,,,74,0
25504,note_on,1,0,1,,,,,,,,,,,,,,,0,,,76,127
25631,note_on,127,0,1,,,,,,,,,,,,,,,0,,,76,0
25632,note_on,1,0,1,,,,,,,,,,,,,,,0,,,78,127
25759,note_on,127,0,1,,,,,,,,,,,,,,,0,,,78,0
25759,note_on,0,0,1,,,,,,,,,,,,,,,0,,,62,0
25759,note_on,0,0,1,,,,,,,,,,,,,,,0,,,60,0
25760,note_on,1,0,1,,,,,,,,,,,,,,,0,,,62,127
25760,note_on,0,0,1,,,,,,,,,,,,,,,0,,,59,127
25760,note_on,0,0,1,,,,,,,,,,,,,,,0,,,79,127
25887,note_on,127,0,1,,,,,,,,,,,,,,,0,,,79,0
25888,note_on,1,0,1,,,,,,,,,,,,,,,0,,,81,127
26015,note_on,127,0,1,,,,,,,,,,,,,,,0,,,81,0
26016,note_on,1,0,1,,,,,,,,,,,,,,,0,,,83,127
26143,note_on,0,0,1,,,,,,,,,,,,,,,0,,,62,0
26143,note_on,0,0,1,,,,,,,,,,,,,,,0,,,59,0
26143,note_on,127,0,1,,,,,,,,,,,,,,,0,,,83,0
26144,note_on,0,0,1,,,,,,,,,,,,,,,0,,,84,127
26144,note_on,1,0,1,,,,,,,,,,,,,,,0,,,60,127
26144,note_on,0,0,1,,,,,,,,,,,,,,,0,,,57,127
26271,note_on,127,0,1,,,,,,,,,,,,,,,0,,,84,0
26272,note_on,1,0,1,,,,,,,,,,,,,,,0,,,72,127
26399,note_on,127,0,1,,,,,,,,,,,,,,,0,,,72,0
26400,note_on,1,0,1,,,,,,,,,,,,,,,0,,,72,127
26527,note_on,127,0,1,,,,,,,,,,,,,,,0,,,72,0
26527,note_on,0,0,1,,,,,,,,,,,,,,,0,,,57,0
26527,note_on,0,0,1,,,,,,,,,,,,,,,0,,,60,0
26528,note_on,0,0,1,,,,,,,,,,,,,,,0,,,55,127
26528,note_on,1,0,1,,,,,,,,,,,,,,,0,,,60,127
26528,note_on,0,0,1,,,,,,,,,,,,,,,0,,,72,127
26655,note_on,127,0,1,,,,,,,,,,,,,,,0,,,72,0
26656,note_on,1,0,1,,,,,,,,,,,,,,,0,,,72,127
26783,note_on,127,0,1,,,,,,,,,,,,,,,0,,,72,0
26784,note_on,1,0,1,,,,,,,,,,,,,,,0,,,72,127
26911,note_on,127,0,1,,,,,,,,,,,,,,,0,,,72,0
26911,note_on,0,0,1,,,,,,,,,,,,,,,0,,,55,0
26911,note_on,0,0,1,,,,,,,,,,,,,,,0,,,60,0
26912,note_on,0,0,1,,,,,,,,,,,,,,,0,,,54,127
26912,note_on,1,0,1,,,,,,,,,,,,,,,0,,,60,127
26912,note_on,0,0,1,,,,,,,,,,,,,,,0,,,72,127
27039,note_on,127,0,1,,,,,,,,,,,,,,,0,,,72,0
27040,note_on,1,0,1,,,,,,,,,,,,,,,0,,,72,127
27167,note_on,127,0,1,,,,,,,,,,,,,,,0,,,72,0
27168,note_on,1,0,1,,,,,,,,,,,,,,,0,,,72,127
27295,note_on,127,0,1,,,,,,,,,,,,,,,0,,,72,0
27295,note_on,0,0,1,,,,,,,,,,,,,,,0,,,54,0
27295,note_on,0,0,1,,,,,,,,,,,,,,,0,,,60,0
27296,note_on,1,0,1,,,,,,,,,,,,,,,0,,,55,127
27296,note_on,0,0,1,,,,,,,,,,,,,,,0,,,52,127
27296,note_on,0,0,1,,,,,,,,,,,,,,,0,,,72,127
27423,note_on,127,0,1,,,,,,,,,,,,,,,0,,,72,0
27424,note_on,1,0,1,,,,,,,,,,,,,,,0,,,72,127
27551,note_on,127,0,1,,,,,,,,,,,,,,,0,,,72,0
27552,note_on,1,0,1,,,,,,,,,,,,,,,0,,,73,127
27679,note_on,127,0,1,,,,,,,,,,,,,,,0,,,73,0
27679,note_on,0,0,1,,,,,,,,,,,,,,,0,,,52,0
27679,note_on,0,0,1,,,,,,,,,,,,,,,0,,,55,0
27680,note_on,0,0,1,,,,,,,,,,,,,,,0,,,74,127
27680,note_on,1,0,1,,,,,,,,,,,,,,,0,,,50,127
27680,note_on,0,0,1,,,,,,,,,,,,,,,0,,,57,127
27808,note_on,128,0,1,,,,,,,,,,,,,,,0,,,62,127
27935,note_on,127,0,1,,,,,,,,,,,,,,,0,,,62,0
27936,note_on,1,0,1,,,,,,,,,,,,,,,0,,,62,127
28063,note_on,0,0,1,,,,,,,,,,,,,,,0,,,74,0
28063,note_on,127,0,1,,,,,,,,,,,,,,,0,,,62,0
28063,note_on,0,0,1,,,,,,,,,,,,,,,0,,,50,0
28064,note_on,0,0,1,,,,,,,,,,,,,,,0,,,74,127
28064,note_on,0,0,1,,,,,,,,,,,,,,,0,,,62,127
28064,note_on,1,0,1,,,,,,,,,,,,,,,0,,,48,127
28191,note_on,127,0,1,,,,,,,,,,,,,,,0,,,62,0
28192,note_on,1,0,1,,,,,,,,,,,,,,,0,,,62,127
28319,note_on,127,0,1,,,,,,,,,,,,,,,0,,,62,0
28320,note_on,1,0,1,,,,,,,,,,,,,,,0,,,62,127
28447,note_on,0,0,1,,,,,,,,,,,,,,,0,,,57,0
28447,note_on,127,0,1,,,,,,,,,,,,,,,0,,,62,0
28447,note_on,0,0,1,,,,,,,,,,,,,,,0,,,48,0
28448,note_on,0,0,1,,,,,,,,,,,,,,,0,,,47,127
28448,note_on,0,0,1,,,,,,,,,,,,,,,0,,,62,127
28448,note_on,1,0,1,,,,,,,,,,,,,,,0,,,55,127
28575,note_on,127,0,1,,,,,,,,,,,,,,,0,,,62,0
28576,note_on,1,0,1,,,,,,,,,,,,,,,0,,,62,127
28703,note_on,127,0,1,,,,,,,,,,,,,,,0,,,62,0
28704,note_on,1,0,1,,,,,,,,,,,,,,,0,,,62,127
28831,note_on,0,0,1,,,,,,,,,,,,,,,0,,,47,0
28831,note_on,0,0,1,,,,,,,,,,,,,,,0,,,55,0
28831,note_on,127,0,1,,,,,,,,,,,,,,,0,,,62,0
28831,note_on,0,0,1,,,,,,,,,,,,,,,0,,,74,0
28832,note_on,0,0,1,,,,,,,,,,,,,,,0,,,62,127
28832,note_on,1,0,1,,,,,,,,,,,,,,,0,,,45,127
28832,note_on,0,0,1,,,,,,,,,,,,,,,0,,,54,127
28832,note_on,0,0,1,,,,,,,,,,,,,,,0,,,72,127
28959,note_on,127,0,1,,,,,,,,,,,,,,,0,,,62,0
28960,note_on,1,0,1,,,,,,,,,,,,,,,0,,,64,127
29087,note_on,127,0,1,,,,,,,,,,,,,,,0,,,64,0
29088,note_on,1,0,1,,,,,,,,,,,,,,,0,,,66,127
29215,note_on,127,0,1,,,,,,,,,,,,,,,0,,,66,0
29215,note_on,0,0,1,,,,,,,,,,,,,,,0,,,54,0
29215,note_on,0,0,1,,,,,,,,,,,,,,,0,,,72,0
29215,note_on,0,0,1,,,,,,,,,,,,,,,0,,,45,0
29216,note_on,1,0,1,,,,,,,,,,,,,,,0,,,55,127
29216,note_on,0,0,1,,,,,,,,,,,,,,,0,,,43,127
29216,note_on,0,0,1,,,,,,,,,,,,,,,0,,,72,127
29216,note_on,0,0,1,,,,,,,,,,,,,,,0,,,71,127
29279,note_on,63,0,1,,,,,,,,,,,,,,,0,,,71,0
29279,note_on,0,0,1,,,,,,,,,,,,,,,0,,,72,0
29280,note_on,1,0,1,,,,,,,,,,,,,,,0,,,69,127
29343,note_on,63,0,1,,,,,,,,,,,,,,,0,,,69,0
29344,note_on,1,0,1,,,,,,,,,,,,,,,0,,,71,127
29407,note_on,63,0,1,,,,,,,,,,,,,,,0,,,71,0
29408,note_on,1,0,1,,,,,,,,,,,,,,,0,,,72,127
29471,note_on,63,0,1,,,,,,,,,,,,,,,0,,,72,0
29472,note_on,1,0,1,,,,,,,,,,,,,,,0,,,74,127
29599,note_on,0,0,1,,,,,,,,,,,,,,,0,,,55,0
29599,note_on,127,0,1,,,,,,,,,,,,,,,0,,,74,0
29599,note_on,0,0,1,,,,,,,,,,,,,,,0,,,43,0
29600,note_on,0,0,1,,,,,,,,,,,,,,,0,,,78,127
29600,note_on,0,0,1,,,,,,,,,,,,,,,0,,,60,127
29600,note_on,1,0,1,,,,,,,,,,,,,,,0,,,48,127
29600,note_on,0,0,1,,,,,,,,,,,,,,,0,,,76,127
29663,note_on,63,0,1,,,,,,,,,,,,,,,0,,,76,0
29663,note_on,0,0,1,,,,,,,,,,,,,,,0,,,78,0
29664,note_on,1,0,1,,,,,,,,,,,,,,,0,,,74,127
29727,note_on,63,0,1,,,,,,,,,,,,,,,0,,,74,0
29728,note_on,1,0,1,,,,,,,,,,,,,,,0,,,76,127
29791,note_on,63,0,1,,,,,,,,,,,,,,,0,,,76,0
29792,note_on,1,0,1,,,,,,,,,,,,,,,0,,,78,127
29855,note_on,63,0,1,,,,,,,,,,,,,,,0,,,78,0
29856,note_on,1,0,1,,,,,,,,,,,,,,,0,,,79,127
29983,note_on,127,0,1,,,,,,,,,,,,,,,0,,,60,0
29983,note_on,0,0,1,,,,,,,,,,,,,,,0,,,48,0
29984,note_on,1,0,1,,,,,,,,,,,,,,,0,,,50,127
29984,note_on,0,0,1,,,,,,,,,,,,,,,0,,,59,127
30111,note_on,127,0,1,,,,,,,,,,,,,,,0,,,79,0
30112,note_on,1,0,1,,,,,,,,,,,,,,,0,,,71,127
30239,note_on,127,0,1,,,,,,,,,,,,,,,0,,,71,0
30240,note_on,1,0,1,,,,,,,,,,,,,,,0,,,74,127
30367,note_on,127,0,1,,,,,,,,,,,,,,,0,,,59,0
30367,note_on,0,0,1,,,,,,,,,,,,,,,0,,,50,0
30368,note_on,1,0,1,,,,,,,,,,,,,,,0,,,57,127
30368,note_on,0,0,1,,,,,,,,,,,,,,,0,,,50,127
30495,note_on,127,0,1,,,,,,,,,,,,,,,0,,,74,0
30496,note_on,1,0,1,,,,,,,,,,,,,,,0,,,69,127
30623,note_on,127,0,1,,,,,,,,,,,,,,,0,,,69,0
30624,note_on,1,0,1,,,,,,,,,,,,,,,0,,,66,127
30751,note_on,127,0,1,,,,,,,,,,,,,,,0,,,66,0
30751,note_on,0,0,1,,,,,,,,,,,,,,,0,,,50,0
30751,note_on,0,0,1,,,,,,,,,,,,,,,0,,,57,0
30752,note_on,0,0,1,,,,,,,,,,,,,,,0,,,55,127
30752,note_on,0,0,1,,,,,,,,,,,,,,,0,,,69,127
30752,note_on,0,0,1,,,,,,,,,,,,,,,0,,,67,127
30752,note_on,1,0,1,,,,,,,,,,,,,,,0,,,43,127
30815,note_on,63,0,1,,,,,,,,,,,,,,,0,,,67,0
30815,note_on,0,0,1,,,,,,,,,,,,,,,0,,,69,0
30816,note_on,1,0,1,,,,,,,,,,,,,,,0,,,66,127
30879,note_on,63,0,1,,,,,,,,,,,,,,,0,,,66,0
30880,note_on,1,0,1,,,,,,,,,,,,,,,0,,,67,127
30943,note_on,63,0,1,,,,,,,,,,,,,,,0,,,67,0
30944,note_on,1,0,1,,,,,,,,,,,,,,,0,,,69,127
31007,note_on,63,0,1,,,,,,,,,,,,,,,0,,,69,0
31008,note_on,1,0,1,,,,,,,,,,,,,,,0,,,71,127
31135,note_on,127,0,1,,,,,,,,,,,,,,,0,,,71,0
31136,note_on,1,0,1,,,,,,,,,,,,,,,0,,,72,127
31136,note_on,0,0,1,,,,,,,,,,,,,,,0,,,71,127
31199,note_on,0,0,1,,,,,,,,,,,,,,,0,,,72,0
31199,note_on,63,0,1,,,,,,,,,,,,,,,0,,,71,0
31200,note_on,1,0,1,,,,,,,,,,,,,,,0,,,69,127
31263,note_on,63,0,1,,,,,,,,,,,,,,,0,,,69,0
31264,note_on,1,0,1,,,,,,,,,,,,,,,0,,,71,127
31327,note_on,63,0,1,,,,,,,,,,,,,,,0,,,71,0
31328,note_on,1,0,1,,,,,,,,,,,,,,,0,,,72,127
31391,note_on,63,0,1,,,,,,,,,,,,,,,0,,,72,0
31392,note_on,1,0,1,,,,,,,,,,,,,,,0,,,74,127
31519,note_on,127,0,1,,,,,,,,,,,,,,,0,,,74,0
31519,note_on,0,0,1,,,,,,,,,,,,,,,0,,,55,0
31519,note_on,0,0,1,,,,,,,,,,,,,,,0,,,43,0
31520,note_on,1,0,1,,,,,,,,,,,,,,,0,,,55,127
31520,note_on,0,0,1,,,,,,,,,,,,,,,0,,,79,127
31583,note_on,63,0,1,,,,,,,,,,,,,,,0,,,55,0
31584,note_on,1,0,1,,,,,,,,,,,,,,,0,,,54,127
31647,note_on,63,0,1,,,,,,,,,,,,,,,0,,,54,0
31648,note_on,1,0,1,,,,,,,,,,,,,,,0,,,55,127
31711,note_on,63,0,1,,,,,,,,,,,,,,,0,,,55,0
31712,note_on,1,0,1,,,,,,,,,,,,,,,0,,,57,127
31775,note_on,63,0,1,,,,,,,,,,,,,,,0,,,57,0
31776,note_on,1,0,1,,,,,,,,,,,,,,,0,,,59,127
31903,note_on,127,0,1,,,,,,,,,,,,,,,0,,,59,0
31904,note_on,1,0,1,,,,,,,,,,,,,,,0,,,59,127
31967,note_on,63,0,1,,,,,,,,,,,,,,,0,,,59,0
31968,note_on,1,0,1,,,,,,,,,,,,,,,0,,,57,127
32031,note_on,63,0,1,,,,,,,,,,,,,,,0,,,57,0
32032,note_on,1,0,1,,,,,,,,,,,,,,,0,,,59,127
32095,note_on,63,0,1,,,,,,,,,,,,,,,0,,,59,0
32096,note_on,1,0,1,,,,,,,,,,,,,,,0,,,60,127
32159,note_on,63,0,1,,,,,,,,,,,,,,,0,,,60,0
32160,note_on,1,0,1,,,,,,,,,,,,,,,0,,,62,127
32287,note_on,127,0,1,,,,,,,,,,,,,,,0,,,62,0
32288,note_on,1,0,1,,,,,,,,,,,,,,,0,,,48,127
32288,note_on,0,0,1,,,,,,,,,,,,,,,0,,,36,127
32415,note_on,127,0,1,,,,,,,,,,,,,,,0,,,79,0
32416,note_on,1,0,1,,,,,,,,,,,,,,,0,,,76,127
32543,note_on,127,0,1,,,,,,,,,,,,,,,0,,,76,0
32544,note_on,1,0,1,,,,,,,,,,,,,,,0,,,72,127
32671,note_on,0,0,1,,,,,,,,,,,,,,,0,,,48,0
32671,note_on,127,0,1,,,,,,,,,,,,,,,0,,,36,0
32672,note_on,1,0,1,,,,,,,,,,,,,,,0,,,36,127
32672,note_on,0,0,1,,,,,,,,,,,,,,,0,,,48,127
32799,note_on,127,0,1,,,,,,,,,,,,,,,0,,,72,0
32800,note_on,1,0,1,,,,,,,,,,,,,,,0,,,64,127
32927,note_on,127,0,1,,,,,,,,,,,,,,,0,,,64,0
32928,note_on,1,0,1,,,,,,,,,,,,,,,0,,,69,127
33055,note_on,0,0,1,,,,,,,,,,,,,,,0,,,36,0
33055,note_on,0,0,1,,,,,,,,,,,,,,,0,,,48,0
33055,note_on,127,0,1,,,,,,,,,,,,,,,0,,,69,0
33056,note_on,1,0,1,,,,,,,,,,,,,,,0,,,50,127
33056,note_on,0,0,1,,,,,,,,,,,,,,,0,,,67,127
33056,note_on,0,0,1,,,,,,,,,,,,,,,0,,,38,127
33439,note_on,383,0,1,,,,,,,,,,,,,,,0,,,67,0
33439,note_on,0,0,1,,,,,,,,,,,,,,,0,,,38,0
33439,note_on,0,0,1,,,,,,,,,,,,,,,0,,,50,0
33440,note_on,0,0,1,,,,,,,,,,,,,,,0,,,71,127
33440,note_on,1,0,1,,,,,,,,,,,,,,,0,,,50,127
33440,note_on,0,0,1,,,,,,,,,,,,,,,0,,,38,127
33440,note_on,0,0,1,,,,,,,,,,,,,,,0,,,66,127
33488,note_on,48,0,1,,,,,,,,,,,,,,,0,,,69,127
33503,note_on,15,0,1,,,,,,,,,,,,,,,0,,,71,0
33536,note_on,33,0,1,,,,,,,,,,,,,,,0,,,71,127
33551,note_on,15,0,1,,,,,,,,,,,,,,,0,,,69,0
33584,note_on,33,0,1,,,,,,,,,,,,,,,0,,,69,127
33599,note_on,15,0,1,,,,,,,,,,,,,,,0,,,71,0
33632,note_on,33,0,1,,,,,,,,,,,,,,,0,,,71,127
33647,note_on,15,0,1,,,,,,,,,,,,,,,0,,,69,0
33680,note_on,33,0,1,,,,,,,,,,,,,,,0,,,69,127
33695,note_on,15,0,1,,,,,,,,,,,,,,,0,,,71,0
33728,note_on,33,0,1,,,,,,,,,,,,,,,0,,,67,127
33743,note_on,15,0,1,,,,,,,,,,,,,,,0,,,69,0
33776,note_on,33,0,1,,,,,,,,,,,,,,,0,,,69,127
33791,note_on,15,0,1,,,,,,,,,,,,,,,0,,,67,0
33823,note_on,0,0,1,,,,,,,,,,,,,,,0,,,50,0
33823,note_on,32,0,1,,,,,,,,,,,,,,,0,,,66,0
33823,note_on,0,0,1,,,,,,,,,,,,,,,0,,,38,0
33824,note_on,0,0,1,,,,,,,,,,,,,,,0,,,67,127
33824,note_on,1,0,1,,,,,,,,,,,,,,,0,,,43,127
33824,note_on,0,0,1,,,,,,,,,,,,,,,0,,,55,127
33824,note_on,0,0,1,,,,,,,,,,,,,,,0,,,69,127
33839,note_on,15,0,1,,,,,,,,,,,,,,,0,,,69,0
33887,note_on,48,0,1,,,,,,,,,,,,,,,0,,,69,0
33887,note_on,0,0,1,,,,,,,,,,,,,,,0,,,67,0
33888,note_on,1,0,1,,,,,,,,,,,,,,,0,,,66,127
33951,note_on,63,0,1,,,,,,,,,,,,,,,0,,,66,0
33952,note_on,1,0,1,,,,,,,,,,,,,,,0,,,67,127
34015,note_on,63,0,1,,,,,,,,,,,,,,,0,,,67,0
34016,note_on,1,0,1,,,,,,,,,,,,,,,0,,,69,127
34079,note_on,63,0,1,,,,,,,,,,,,,,,0,,,69,0
34080,note_on,1,0,1,,,,,,,,,,,,,,,0,,,71,127
34207,note_on,127,0,1,,,,,,,,,,,,,,,0,,,71,0
34208,note_on,1,0,1,,,,,,,,,,,,,,,0,,,72,127
34208,note_on,0,0,1,,,,,,,,,,,,,,,0,,,71,127
34271,note_on,63,0,1,,,,,,,,,,,,,,,0,,,71,0
34271,note_on,0,0,1,,,,,,,,,,,,,,,0,,,72,0
34272,note_on,1,0,1,,,,,,,,,,,,,,,0,,,69,127
34335,note_on,63,0,1,,,,,,,,,,,,,,,0,,,69,0
34336,note_on,1,0,1,,,,,,,,,,,,,,,0,,,71,127
34399,note_on,63,0,1,,,,,,,,,,,,,,,0,,,71,0
34400,note_on,1,0,1,,,,,,,,,,,,,,,0,,,72,127
34463,note_on,63,0,1,,,,,,,,,,,,,,,0,,,72,0
34464,note_on,1,0,1,,,,,,,,,,,,,,,0,,,74,127
34591,note_on,127,0,1,,,,,,,,,,,,,,,0,,,74,0
34591,note_on,0,0,1,,,,,,,,,,,,,,,0,,,55,0
34591,note_on,0,0,1,,,,,,,,,,,,,,,0,,,43,0
34592,note_on,1,0,1,,,,,,,,,,,,,,,0,,,55,127
34592,note_on,0,0,1,,,,,,,,,,,,,,,0,,,79,127
34655,note_on,63,0,1,,,,,,,,,,,,,,,0,,,55,0
34656,note_on,1,0,1,,,,,,,,,,,,,,,0,,,54,127
34719,note_on,63,0,1,,,,,,,,,,,,,,,0,,,54,0
34720,note_on,1,0,1,,,,,,,,,,,,,,,0,,,55,127
34783,note_on,63,0,1,,,,,,,,,,,,,,,0,,,55,0
34784,note_on,1,0,1,,,,,,,,,,,,,,,0,,,57,127
34847,note_on,63,0,1,,,,,,,,,,,,,,,0,,,57,0
34848,note_on,1,0,1,,,,,,,,,,,,,,,0,,,59,127
34975,note_on,127,0,1,,,,,,,,,,,,,,,0,,,59,0
34976,note_on,1,0,1,,,,,,,,,,,,,,,0,,,59,127
35039,note_on,63,0,1,,,,,,,,,,,,,,,0,,,59,0
35040,note_on,1,0,1,,,,,,,,,,,,,,,0,,,57,127
35103,note_on,63,0,1,,,,,,,,,,,,,,,0,,,57,0
35104,note_on,1,0,1,,,,,,,,,,,,,,,0,,,59,127
35167,note_on,63,0,1,,,,,,,,,,,,,,,0,,,59,0
35168,note_on,1,0,1,,,,,,,,,,,,,,,0,,,60,127
35231,note_on,63,0,1,,,,,,,,,,,,,,,0,,,60,0
35232,note_on,1,0,1,,,,,,,,,,,,,,,0,,,62,127
35359,note_on,127,0,1,,,,,,,,,,,,,,,0,,,62,0
35360,note_on,0,0,1,,,,,,,,,,,,,,,0,,,48,127
35360,note_on,1,0,1,,,,,,,,,,,,,,,0,,,36,127
35487,note_on,127,0,1,,,,,,,,,,,,,,,0,,,79,0
35488,note_on,1,0,1,,,,,,,,,,,,,,,0,,,67,127
35615,note_on,127,0,1,,,,,,,,,,,,,,,0,,,67,0
35616,note_on,1,0,1,,,,,,,,,,,,,,,0,,,76,127
35743,note_on,127,0,1,,,,,,,,,,,,,,,0,,,48,0
35743,note_on,0,0,1,,,,,,,,,,,,,,,0,,,36,0
35744,note_on,0,0,1,,,,,,,,,,,,,,,0,,,48,127
35744,note_on,1,0,1,,,,,,,,,,,,,,,0,,,36,127
35871,note_on,127,0,1,,,,,,,,,,,,,,,0,,,76,0
35872,note_on,1,0,1,,,,,,,,,,,,,,,0,,,64,127
35999,note_on,127,0,1,,,,,,,,,,,,,,,0,,,64,0
36000,note_on,1,0,1,,,,,,,,,,,,,,,0,,,69,127
36127,note_on,127,0,1,,,,,,,,,,,,,,,0,,,69,0
36127,note_on,0,0,1,,,,,,,,,,,,,,,0,,,48,0
36127,note_on,0,0,1,,,,,,,,,,,,,,,0,,,36,0
36128,note_on,0,0,1,,,,,,,,,,,,,,,0,,,50,127
36128,note_on,1,0,1,,,,,,,,,,,,,,,0,,,38,127
36128,note_on,0,0,1,,,,,,,,,,,,,,,0,,,67,127
36511,note_on,383,0,1,,,,,,,,,,,,,,,0,,,67,0
36511,note_on,0,0,1,,,,,,,,,,,,,,,0,,,38,0
36511,note_on,0,0,1,,,,,,,,,,,,,,,0,,,50,0
36512,note_on,0,0,1,,,,,,,,,,,,,,,0,,,71,127
36512,note_on,1,0,1,,,,,,,,,,,,,,,0,,,38,127
36512,note_on,0,0,1,,,,,,,,,,,,,,,0,,,50,127
36512,note_on,0,0,1,,,,,,,,,,,,,,,0,,,66,127
36560,note_on,48,0,1,,,,,,,,,,,,,,,0,,,69,127
36575,note_on,15,0,1,,,,,,,,,,,,,,,0,,,71,0
36608,note_on,33,0,1,,,,,,,,,,,,,,,0,,,71,127
36623,note_on,15,0,1,,,,,,,,,,,,,,,0,,,69,0
36656,note_on,33,0,1,,,,,,,,,,,,,,,0,,,69,127
36671,note_on,15,0,1,,,,,,,,,,,,,,,0,,,71,0
36704,note_on,33,0,1,,,,,,,,,,,,,,,0,,,71,127
36719,note_on,15,0,1,,,,,,,,,,,,,,,0,,,69,0
36752,note_on,33,0,1,,,,,,,,,,,,,,,0,,,69,127
36767,note_on,15,0,1,,,,,,,,,,,,,,,0,,,71,0
36800,note_on,33,0,1,,,,,,,,,,,,,,,0,,,67,127
36815,note_on,15,0,1,,,,,,,,,,,,,,,0,,,69,0
36848,note_on,33,0,1,,,,,,,,,,,,,,,0,,,69,127
36863,note_on,15,0,1,,,,,,,,,,,,,,,0,,,67,0
36895,note_on,0,0,1,,,,,,,,,,,,,,,0,,,38,0
36895,note_on,0,0,1,,,,,,,,,,,,,,,0,,,50,0
36895,note_on,32,0,1,,,,,,,,,,,,,,,0,,,66,0
36896,note_on,1,0,1,,,,,,,,,,,,,,,0,,,55,127
36896,note_on,0,0,1,,,,,,,,,,,,,,,0,,,43,127
36896,note_on,0,0,1,,,,,,,,,,,,,,,0,,,67,127
36911,note_on,15,0,1,,,,,,,,,,,,,,,0,,,69,0
37663,note_on,0,0,1,,,,,,,,,,,,,,,0,,,67,0
37663,note_on,752,0,1,,,,,,,,,,,,,,,0,,,55,0
37663,note_on,0,0,1,,,,,,,,,,,,,,,0,,,43,0
38048,note_on,385,0,1,,,,,,,,,,,,,,,0,,,67,127
38048,note_on,0,0,1,,,,,,,,,,,,,,,0,,,74,127
38175,note_on,127,0,1,,,,,,,,,,,,,,,0,,,74,0
38176,note_on,1,0,1,,,,,,,,,,,,,,,0,,,70,127
38303,note_on,127,0,1,,,,,,,,,,,,,,,0,,,70,0
38304,note_on,1,0,1,,,,,,,,,,,,,,,0,,,75,127
38431,note_on,127,0,1,,,,,,,,,,,,,,,0,,,75,0
38431,note_on,0,0,1,,,,,,,,,,,,,,,0,,,67,0
38432,note_on,0,0,1,,,,,,,,,,,,,,,0,,,74,127
38432,note_on,1,0,1,,,,,,,,,,,,,,,0,,,67,127
38687,note_on,255,0,1,,,,,,,,,,,,,,,0,,,74,0
38688,note_on,1,0,1,,,,,,,,,,,,,,,0,,,72,127
38815,note_on,127,0,1,,,,,,,,,,,,,,,0,,,67,0
38816,note_on,1,0,1,,,,,,,,,,,,,,,0,,,66,127
39199,note_on,383,0,1,,,,,,,,,,,,,,,0,,,66,0
39200,note_on,1,0,1,,,,,,,,,,,,,,,0,,,67,127
39455,note_on,255,0,1,,,,,,,,,,,,,,,0,,,72,0
39583,note_on,128,0,1,,,,,,,,,,,,,,,0,,,67,0
39584,note_on,0,0,1,,,,,,,,,,,,,,,0,,,74,127
39584,note_on,1,0,1,,,,,,,,,,,,,,,0,,,67,127
39711,note_on,127,0,1,,,,,,,,,,,,,,,0,,,74,0
39712,note_on,1,0,1,,,,,,,,,,,,,,,0,,,70,127
39839,note_on,127,0,1,,,,,,,,,,,,,,,0,,,70,0
39840,note_on,1,0,1,,,,,,,,,,,,,,,0,,,75,127
39967,note_on,127,0,1,,,,,,,,,,,,,,,0,,,75,0
39967,note_on,0,0,1,,,,,,,,,,,,,,,0,,,67,0
39968,note_on,0,0,1,,,,,,,,,,,,,,,0,,,74,127
39968,note_on,1,0,1,,,,,,,,,,,,,,,0,,,67,127
40223,note_on,255,0,1,,,,,,,,,,,,,,,0,,,74,0
40224,note_on,1,0,1,,,,,,,,,,,,,,,0,,,72,127
40351,note_on,127,0,1,,,,,,,,,,,,,,,0,,,67,0
40352,note_on,1,0,1,,,,,,,,,,,,,,,0,,,66,127
40735,note_on,383,0,1,,,,,,,,,,,,,,,0,,,66,0
40736,note_on,1,0,1,,,,,,,,,,,,,,,0,,,67,127
40991,note_on,255,0,1,,,,,,,,,,,,,,,0,,,72,0
41119,note_on,128,0,1,,,,,,,,,,,,,,,0,,,67,0
41120,note_on,1,0,1,,,,,,,,,,,,,,,0,,,63,127
41120,note_on,0,0,1,,,,,,,,,,,,,,,0,,,75,127
41247,note_on,127,0,1,,,,,,,,,,,,,,,0,,,75,0
41248,note_on,1,0,1,,,,,,,,,,,,,,,0,,,70,127
41375,note_on,127,0,1,,,,,,,,,,,,,,,0,,,70,0
41376,note_on,1,0,1,,,,,,,,,,,,,,,0,,,79,127
41503,note_on,0,0,1,,,,,,,,,,,,,,,0,,,63,0
41503,note_on,127,0,1,,,,,,,,,,,,,,,0,,,79,0
41504,note_on,1,0,1,,,,,,,,,,,,,,,0,,,63,127
41504,note_on,0,0,1,,,,,,,,,,,,,,,0,,,65,127
41504,note_on,0,0,1,,,,,,,,,,,,,,,0,,,79,127
41504,note_on,0,0,1,,,,,,,,,,,,,,,0,,,68,127
41759,note_on,255,0,1,,,,,,,,,,,,,,,0,,,79,0
41760,note_on,1,0,1,,,,,,,,,,,,,,,0,,,77,127
41887,note_on,127,0,1,,,,,,,,,,,,,,,0,,,63,0
41887,note_on,0,0,1,,,,,,,,,,,,,,,0,,,65,0
41888,note_on,1,0,1,,,,,,,,,,,,,,,0,,,62,127
41888,note_on,0,0,1,,,,,,,,,,,,,,,0,,,65,127
42271,note_on,0,0,1,,,,,,,,,,,,,,,0,,,62,0
42271,note_on,383,0,1,,,,,,,,,,,,,,,0,,,65,0
42271,note_on,0,0,1,,,,,,,,,,,,,,,0,,,68,0
42272,note_on,0,0,1,,,,,,,,,,,,,,,0,,,67,127
42272,note_on,1,0,1,,,,,,,,,,,,,,,0,,,63,127
42527,note_on,255,0,1,,,,,,,,,,,,,,,0,,,77,0
42655,note_on,128,0,1,,,,,,,,,,,,,,,0,,,67,0
42655,note_on,0,0,1,,,,,,,,,,,,,,,0,,,63,0
42656,note_on,1,0,1,,,,,,,,,,,,,,,0,,,67,127
42656,note_on,0,0,1,,,,,,,,,,,,,,,0,,,63,127
42656,note_on,0,0,1,,,,,,,,,,,,,,,0,,,75,127
42783,note_on,127,0,1,,,,,,,,,,,,,,,0,,,75,0
42784,note_on,1,0,1,,,,,,,,,,,,,,,0,,,70,127
42911,note_on,127,0,1,,,,,,,,,,,,,,,0,,,70,0
42912,note_on,1,0,1,,,,,,,,,,,,,,,0,,,79,127
43039,note_on,0,0,1,,,,,,,,,,,,,,,0,,,67,0
43039,note_on,127,0,1,,,,,,,,,,,,,,,0,,,79,0
43039,note_on,0,0,1,,,,,,,,,,,,,,,0,,,63,0
43040,note_on,0,0,1,,,,,,,,,,,,,,,0,,,68,127
43040,note_on,1,0,1,,,,,,,,,,,,,,,0,,,65,127
43040,note_on,0,0,1,,,,,,,,,,,,,,,0,,,63,127
43040,note_on,0,0,1,,,,,,,,,,,,,,,0,,,79,127
43295,note_on,255,0,1,,,,,,,,,,,,,,,0,,,79,0
43296,note_on,1,0,1,,,,,,,,,,,,,,,0,,,77,127
43423,note_on,127,0,1,,,,,,,,,,,,,,,0,,,65,0
43423,note_on,0,0,1,,,,,,,,,,,,,,,0,,,63,0
43424,note_on,1,0,1,,,,,,,,,,,,,,,0,,,62,127
43424,note_on,0,0,1,,,,,,,,,,,,,,,0,,,65,127
43807,note_on,0,0,1,,,,,,,,,,,,,,,0,,,62,0
43807,note_on,383,0,1,,,,,,,,,,,,,,,0,,,65,0
43807,note_on,0,0,1,,,,,,,,,,,,,,,0,,,77,0
43807,note_on,0,0,1,,,,,,,,,,,,,,,0,,,68,0
43808,note_on,1,0,1,,,,,,,,,,,,,,,0,,,65,127
43808,note_on,0,0,1,,,,,,,,,,,,,,,0,,,62,127
43808,note_on,0,0,1,,,,,,,,,,,,,,,0,,,68,127
43808,note_on,0,0,1,,,,,,,,,,,,,,,0,,,79,127
44063,note_on,255,0,1,,,,,,,,,,,,,,,0,,,79,0
44064,note_on,1,0,1,,,,,,,,,,,,,,,0,,,77,127
44191,note_on,127,0,1,,,,,,,,,,,,,,,0,,,62,0
44192,note_on,1,0,1,,,,,,,,,,,,,,,0,,,60,127
44575,note_on,0,0,1,,,,,,,,,,,,,,,0,,,68,0
44575,note_on,383,0,1,,,,,,,,,,,,,,,0,,,65,0
44575,note_on,0,0,1,,,,,,,,,,,,,,,0,,,77,0
44576,note_on,0,0,1,,,,,,,,,,,,,,,0,,,67,127
44576,note_on,0,0,1,,,,,,,,,,,,,,,0,,,79,127
44576,note_on,1,0,1,,,,,,,,,,,,,,,0,,,65,127
44831,note_on,255,0,1,,,,,,,,,,,,,,,0,,,79,0
44832,note_on,1,0,1,,,,,,,,,,,,,,,0,,,77,127
44959,note_on,127,0,1,,,,,,,,,,,,,,,0,,,60,0
44959,note_on,0,0,1,,,,,,,,,,,,,,,0,,,65,0
44960,note_on,1,0,1,,,,,,,,,,,,,,,0,,,59,127
45343,note_on,0,0,1,,,,,,,,,,,,,,,0,,,67,0
45343,note_on,383,0,1,,,,,,,,,,,,,,,0,,,59,0
45344,note_on,1,0,1,,,,,,,,,,,,,,,0,,,60,127
45597,note_on,253,0,1,,,,,,,,,,,,,,,0,,,77,0
45600,note_on,3,0,1,,,,,,,,,,,,,,,0,,,75,127
45727,note_on,127,0,1,,,,,,,,,,,,,,,0,,,75,0
45727,note_on,0,0,1,,,,,,,,,,,,,,,0,,,60,0
45728,note_on,1,0,1,,,,,,,,,,,,,,,0,,,65,127
45728,note_on,0,0,1,,,,,,,,,,,,,,,0,,,53,127
45728,note_on,0,0,1,,,,,,,,,,,,,,,0,,,74,127
45855,note_on,127,0,1,,,,,,,,,,,,,,,0,,,74,0
45856,note_on,1,0,1,,,,,,,,,,,,,,,0,,,77,127
45983,note_on,127,0,1,,,,,,,,,,,,,,,0,,,77,0
45984,note_on,1,0,1,,,,,,,,,,,,,,,0,,,72,127
46111,note_on,0,0,1,,,,,,,,,,,,,,,0,,,65,0
46111,note_on,127,0,1,,,,,,,,,,,,,,,0,,,72,0
46111,note_on,0,0,1,,,,,,,,,,,,,,,0,,,53,0
46112,note_on,0,0,1,,,,,,,,,,,,,,,0,,,71,127
46112,note_on,1,0,1,,,,,,,,,,,,,,,0,,,65,127
46112,note_on,0,0,1,,,,,,,,,,,,,,,0,,,55,127
46495,note_on,383,0,1,,,,,,,,,,,,,,,0,,,71,0
46495,note_on,0,0,1,,,,,,,,,,,,,,,0,,,55,0
46495,note_on,0,0,1,,,,,,,,,,,,,,,0,,,65,0
46496,note_on,1,0,1,,,,,,,,,,,,,,,0,,,56,127
46496,note_on,0,0,1,,,,,,,,,,,,,,,0,,,65,127
46496,note_on,0,0,1,,,,,,,,,,,,,,,0,,,74,127
46544,note_on,48,0,1,,,,,,,,,,,,,,,0,,,72,127
46559,note_on,15,0,1,,,,,,,,,,,,,,,0,,,74,0
46592,note_on,33,0,1,,,,,,,,,,,,,,,0,,,74,127
46607,note_on,15,0,1,,,,,,,,,,,,,,,0,,,72,0
46640,note_on,33,0,1,,,,,,,,,,,,,,,0,,,72,127
46655,note_on,15,0,1,,,,,,,,,,,,,,,0,,,74,0
46688,note_on,33,0,1,,,,,,,,,,,,,,,0,,,74,127
46703,note_on,15,0,1,,,,,,,,,,,,,,,0,,,72,0
46736,note_on,33,0,1,,,,,,,,,,,,,,,0,,,72,127
46751,note_on,15,0,1,,,,,,,,,,,,,,,0,,,74,0
46784,note_on,33,0,1,,,,,,,,,,,,,,,0,,,71,127
46799,note_on,15,0,1,,,,,,,,,,,,,,,0,,,72,0
46832,note_on,33,0,1,,,,,,,,,,,,,,,0,,,72,127
46847,note_on,15,0,1,,,,,,,,,,,,,,,0,,,71,0
46879,note_on,0,0,1,,,,,,,,,,,,,,,0,,,65,0
46879,note_on,32,0,1,,,,,,,,,,,,,,,0,,,56,0
46880,note_on,1,0,1,,,,,,,,,,,,,,,0,,,55,127
46880,note_on,0,0,1,,,,,,,,,,,,,,,0,,,65,127
46880,note_on,0,0,1,,,,,,,,,,,,,,,0,,,74,127
46895,note_on,15,0,1,,,,,,,,,,,,,,,0,,,72,0
47007,note_on,112,0,1,,,,,,,,,,,,,,,0,,,74,0
47008,note_on,1,0,1,,,,,,,,,,,,,,,0,,,67,127
47135,note_on,127,0,1,,,,,,,,,,,,,,,0,,,67,0
47136,note_on,1,0,1,,,,,,,,,,,,,,,0,,,67,127
47263,note_on,127,0,1,,,,,,,,,,,,,,,0,,,67,0
47263,note_on,0,0,1,,,,,,,,,,,,,,,0,,,65,0
47263,note_on,0,0,1,,,,,,,,,,,,,,,0,,,55,0
47264,note_on,1,0,1,,,,,,,,,,,,,,,0,,,59,127
47264,note_on,0,0,1,,,,,,,,,,,,,,,0,,,65,127
47264,note_on,0,0,1,,,,,,,,,,,,,,,0,,,67,127
47391,note_on,127,0,1,,,,,,,,,,,,,,,0,,,67,0
47392,note_on,1,0,1,,,,,,,,,,,,,,,0,,,67,127
47519,note_on,127,0,1,,,,,,,,,,,,,,,0,,,67,0
47520,note_on,1,0,1,,,,,,,,,,,,,,,0,,,67,127
47647,note_on,0,0,1,,,,,,,,,,,,,,,0,,,59,0
47647,note_on,127,0,1,,,,,,,,,,,,,,,0,,,67,0
47647,note_on,0,0,1,,,,,,,,,,,,,,,0,,,65,0
47648,note_on,0,0,1,,,,,,,,,,,,,,,0,,,67,127
47648,note_on,1,0,1,,,,,,,,,,,,,,,0,,,65,127
47648,note_on,0,0,1,,,,,,,,,,,,,,,0,,,60,127
47775,note_on,127,0,1,,,,,,,,,,,,,,,0,,,67,0
47776,note_on,1,0,1,,,,,,,,,,,,,,,0,,,67,127
47903,note_on,127,0,1,,,,,,,,,,,,,,,0,,,67,0
47904,note_on,1,0,1,,,,,,,,,,,,,,,0,,,67,127
48031,note_on,0,0,1,,,,,,,,,,,,,,,0,,,60,0
48031,note_on,127,0,1,,,,,,,,,,,,,,,0,,,67,0
48032,note_on,1,0,1,,,,,,,,,,,,,,,0,,,60,127
48032,note_on,0,0,1,,,,,,,,,,,,,,,0,,,67,127
48080,note_on,48,0,1,,,,,,,,,,,,,,,0,,,64,127
48088,note_on,8,0,1,,,,,,,,,,,,,,,0,,,65,0
48128,note_on,40,0,1,,,,,,,,,,,,,,,0,,,65,127
48143,note_on,15,0,1,,,,,,,,,,,,,,,0,,,64,0
48159,note_on,16,0,1,,,,,,,,,,,,,,,0,,,67,0
48160,note_on,1,0,1,,,,,,,,,,,,,,,0,,,67,127
48176,note_on,16,0,1,,,,,,,,,,,,,,,0,,,64,127
48191,note_on,15,0,1,,,,,,,,,,,,,,,0,,,65,0
48287,note_on,96,0,1,,,,,,,,,,,,,,,0,,,67,0
48288,note_on,1,0,1,,,,,,,,,,,,,,,0,,,67,127
48415,note_on,127,0,1,,,,,,,,,,,,,,,0,,,67,0
48416,note_on,1,0,1,,,,,,,,,,,,,,,0,,,67,127
48543,note_on,127,0,1,,,,,,,,,,,,,,,0,,,67,0
48544,note_on,1,0,1,,,,,,,,,,,,,,,0,,,67,127
48655,note_on,111,0,1,,,,,,,,,,,,,,,0,,,64,0
48671,note_on,16,0,1,,,,,,,,,,,,,,,0,,,67,0
48672,note_on,1,0,1,,,,,,,,,,,,,,,0,,,67,127
48799,note_on,0,0,1,,,,,,,,,,,,,,,0,,,60,0
48799,note_on,127,0,1,,,,,,,,,,,,,,,0,,,67,0
48800,note_on,1,0,1,,,,,,,,,,,,,,,0,,,65,127
48800,note_on,0,0,1,,,,,,,,,,,,,,,0,,,59,127
48800,note_on,0,0,1,,,,,,,,,,,,,,,0,,,67,127
48927,note_on,127,0,1,,,,,,,,,,,,,,,0,,,67,0
48928,note_on,1,0,1,,,,,,,,,,,,,,,0,,,67,127
49055,note_on,127,0,1,,,,,,,,,,,,,,,0,,,67,0
49056,note_on,1,0,1,,,,,,,,,,,,,,,0,,,67,127
49183,note_on,127,0,1,,,,,,,,,,,,,,,0,,,67,0
49183,note_on,0,0,1,,,,,,,,,,,,,,,0,,,59,0
49183,note_on,0,0,1,,,,,,,,,,,,,,,0,,,65,0
49184,note_on,0,0,1,,,,,,,,,,,,,,,0,,,65,127
49184,note_on,0,0,1,,,,,,,,,,,,,,,0,,,67,127
49184,note_on,1,0,1,,,,,,,,,,,,,,,0,,,60,127
49311,note_on,127,0,1,,,,,,,,,,,,,,,0,,,67,0
49312,note_on,1,0,1,,,,,,,,,,,,,,,0,,,67,127
49439,note_on,127,0,1,,,,,,,,,,,,,,,0,,,67,0
49440,note_on,1,0,1,,,,,,,,,,,,,,,0,,,67,127
49567,note_on,127,0,1,,,,,,,,,,,,,,,0,,,67,0
49567,note_on,0,0,1,,,,,,,,,,,,,,,0,,,60,0
49568,note_on,0,0,1,,,,,,,,,,,,,,,0,,,67,127
49568,note_on,1,0,1,,,,,,,,,,,,,,,0,,,60,127
49616,note_on,48,0,1,,,,,,,,,,,,,,,0,,,64,127
49624,note_on,8,0,1,,,,,,,,,,,,,,,0,,,65,0
49664,note_on,40,0,1,,,,,,,,,,,,,,,0,,,65,127
49679,note_on,15,0,1,,,,,,,,,,,,,,,0,,,64,0
49695,note_on,16,0,1,,,,,,,,,,,,,,,0,,,67,0
49696,note_on,1,0,1,,,,,,,,,,,,,,,0,,,67,127
49712,note_on,16,0,1,,,,,,,,,,,,,,,0,,,64,127
49727,note_on,15,0,1,,,,,,,,,,,,,,,0,,,65,0
49823,note_on,96,0,1,,,,,,,,,,,,,,,0,,,67,0
49824,note_on,1,0,1,,,,,,,,,,,,,,,0,,,68,127
49951,note_on,127,0,1,,,,,,,,,,,,,,,0,,,68,0
49951,note_on,0,0,1,,,,,,,,,,,,,,,0,,,60,0
49951,note_on,0,0,1,,,,,,,,,,,,,,,0,,,64,0
49952,note_on,0,0,1,,,,,,,,,,,,,,,0,,,71,127
49952,note_on,0,0,1,,,,,,,,,,,,,,,0,,,69,127
49952,note_on,1,0,1,,,,,,,,,,,,,,,0,,,65,127
49952,note_on,0,0,1,,,,,,,,,,,,,,,0,,,53,127
50015,note_on,63,0,1,,,,,,,,,,,,,,,0,,,71,0
50015,note_on,0,0,1,,,,,,,,,,,,,,,0,,,69,0
50016,note_on,1,0,1,,,,,,,,,,,,,,,0,,,67,127
50079,note_on,63,0,1,,,,,,,,,,,,,,,0,,,67,0
50080,note_on,1,0,1,,,,,,,,,,,,,,,0,,,69,127
50143,note_on,63,0,1,,,,,,,,,,,,,,,0,,,69,0
50144,note_on,1,0,1,,,,,,,,,,,,,,,0,,,71,127
50207,note_on,63,0,1,,,,,,,,,,,,,,,0,,,71,0
50208,note_on,1,0,1,,,,,,,,,,,,,,,0,,,72,127
50335,note_on,127,0,1,,,,,,,,,,,,,,,0,,,72,0
50336,note_on,1,0,1,,,,,,,,,,,,,,,0,,,74,127
50336,note_on,0,0,1,,,,,,,,,,,,,,,0,,,76,127
50399,note_on,63,0,1,,,,,,,,,,,,,,,0,,,76,0
50399,note_on,0,0,1,,,,,,,,,,,,,,,0,,,74,0
50400,note_on,1,0,1,,,,,,,,,,,,,,,0,,,72,127
50463,note_on,63,0,1,,,,,,,,,,,,,,,0,,,72,0
50464,note_on,1,0,1,,,,,,,,,,,,,,,0,,,74,127
50527,note_on,63,0,1,,,,,,,,,,,,,,,0,,,74,0
50528,note_on,1,0,1,,,,,,,,,,,,,,,0,,,76,127
50591,note_on,63,0,1,,,,,,,,,,,,,,,0,,,76,0
50592,note_on,1,0,1,,,,,,,,,,,,,,,0,,,77,127
50719,note_on,127,0,1,,,,,,,,,,,,,,,0,,,77,0
50719,note_on,0,0,1,,,,,,,,,,,,,,,0,,,53,0
50719,note_on,0,0,1,,,,,,,,,,,,,,,0,,,65,0
50720,note_on,1,0,1,,,,,,,,,,,,,,,0,,,65,127
50720,note_on,0,0,1,,,,,,,,,,,,,,,0,,,81,127
50783,note_on,63,0,1,,,,,,,,,,,,,,,0,,,65,0
50784,note_on,1,0,1,,,,,,,,,,,,,,,0,,,64,127
50847,note_on,63,0,1,,,,,,,,,,,,,,,0,,,64,0
50848,note_on,1,0,1,,,,,,,,,,,,,,,0,,,65,127
50911,note_on,63,0,1,,,,,,,,,,,,,,,0,,,65,0
50912,note_on,1,0,1,,,,,,,,,,,,,,,0,,,67,127
50975,note_on,63,0,1,,,,,,,,,,,,,,,0,,,67,0
50976,note_on,1,0,1,,,,,,,,,,,,,,,0,,,69,127
51103,note_on,127,0,1,,,,,,,,,,,,,,,0,,,69,0
51104,note_on,1,0,1,,,,,,,,,,,,,,,0,,,69,127
51167,note_on,63,0,1,,,,,,,,,,,,,,,0,,,69,0
51168,note_on,1,0,1,,,,,,,,,,,,,,,0,,,67,127
51231,note_on,63,0,1,,,,,,,,,,,,,,,0,,,67,0
51232,note_on,1,0,1,,,,,,,,,,,,,,,0,,,69,127
51295,note_on,63,0,1,,,,,,,,,,,,,,,0,,,69,0
51296,note_on,1,0,1,,,,,,,,,,,,,,,0,,,71,127
51359,note_on,63,0,1,,,,,,,,,,,,,,,0,,,71,0
51360,note_on,1,0,1,,,,,,,,,,,,,,,0,,,72,127
51487,note_on,127,0,1,,,,,,,,,,,,,,,0,,,72,0
51488,note_on,1,0,1,,,,,,,,,,,,,,,0,,,47,127
51615,note_on,127,0,1,,,,,,,,,,,,,,,0,,,81,0
51616,note_on,1,0,1,,,,,,,,,,,,,,,0,,,79,127
51743,note_on,127,0,1,,,,,,,,,,,,,,,0,,,79,0
51744,note_on,1,0,1,,,,,,,,,,,,,,,0,,,74,127
51871,note_on,127,0,1,,,,,,,,,,,,,,,0,,,47,0
51872,note_on,1,0,1,,,,,,,,,,,,,,,0,,,48,127
51999,note_on,127,0,1,,,,,,,,,,,,,,,0,,,74,0
52000,note_on,1,0,1,,,,,,,,,,,,,,,0,,,76,127
52127,note_on,127,0,1,,,,,,,,,,,,,,,0,,,76,0
52128,note_on,1,0,1,,,,,,,,,,,,,,,0,,,67,127
52255,note_on,127,0,1,,,,,,,,,,,,,,,0,,,48,0
52256,note_on,1,0,1,,,,,,,,,,,,,,,0,,,53,127
52256,note_on,0,0,1,,,,,,,,,,,,,,,0,,,41,127
52383,note_on,127,0,1,,,,,,,,,,,,,,,0,,,67,0
52384,note_on,1,0,1,,,,,,,,,,,,,,,0,,,69,127
52511,note_on,127,0,1,,,,,,,,,,,,,,,0,,,69,0
52512,note_on,1,0,1,,,,,,,,,,,,,,,0,,,74,127
52639,note_on,127,0,1,,,,,,,,,,,,,,,0,,,74,0
52639,note_on,0,0,1,,,,,,,,,,,,,,,0,,,41,0
52639,note_on,0,0,1,,,,,,,,,,,,,,,0,,,53,0
52640,note_on,0,0,1,,,,,,,,,,,,,,,0,,,72,127
52640,note_on,0,0,1,,,,,,,,,,,,,,,0,,,43,127
52640,note_on,1,0,1,,,,,,,,,,,,,,,0,,,55,127
52672,note_on,32,0,1,,,,,,,,,,,,,,,0,,,71,127
52703,note_on,31,0,1,,,,,,,,,,,,,,,0,,,72,0
52704,note_on,1,0,1,,,,,,,,,,,,,,,0,,,72,127
52735,note_on,31,0,1,,,,,,,,,,,,,,,0,,,71,0
52736,note_on,1,0,1,,,,,,,,,,,,,,,0,,,71,127
52767,note_on,31,0,1,,,,,,,,,,,,,,,0,,,72,0
53023,note_on,0,0,1,,,,,,,,,,,,,,,0,,,71,0
53023,note_on,256,0,1,,,,,,,,,,,,,,,0,,,55,0
53023,note_on,0,0,1,,,,,,,,,,,,,,,0,,,43,0
53024,note_on,0,0,1,,,,,,,,,,,,,,,0,,,74,127
53024,note_on,1,0,1,,,,,,,,,,,,,,,0,,,48,127
53024,note_on,0,0,1,,,,,,,,,,,,,,,0,,,72,127
53024,note_on,0,0,1,,,,,,,,,,,,,,,0,,,36,127
53087,note_on,63,0,1,,,,,,,,,,,,,,,0,,,74,0
53087,note_on,0,0,1,,,,,,,,,,,,,,,0,,,72,0
53088,note_on,1,0,1,,,,,,,,,,,,,,,0,,,71,127
53151,note_on,63,0,1,,,,,,,,,,,,,,,0,,,71,0
53152,note_on,1,0,1,,,,,,,,,,,,,,,0,,,72,127
53215,note_on,63,0,1,,,,,,,,,,,,,,,0,,,72,0
53216,note_on,1,0,1,,,,,,,,,,,,,,,0,,,74,127
53279,note_on,63,0,1,,,,,,,,,,,,,,,0,,,74,0
53280,note_on,1,0,1,,,,,,,,,,,,,,,0,,,76,127
53407,note_on,127,0,1,,,,,,,,,,,,,,,0,,,76,0
53408,note_on,0,0,1,,,,,,,,,,,,,,,0,,,77,127
53408,note_on,1,0,1,,,,,,,,,,,,,,,0,,,76,127
53471,note_on,0,0,1,,,,,,,,,,,,,,,0,,,76,0
53471,note_on,63,0,1,,,,,,,,,,,,,,,0,,,77,0
53472,note_on,1,0,1,,,,,,,,,,,,,,,0,,,74,127
53535,note_on,63,0,1,,,,,,,,,,,,,,,0,,,74,0
53536,note_on,1,0,1,,,,,,,,,,,,,,,0,,,76,127
53599,note_on,63,0,1,,,,,,,,,,,,,,,0,,,76,0
53600,note_on,1,0,1,,,,,,,,,,,,,,,0,,,77,127
53663,note_on,63,0,1,,,,,,,,,,,,,,,0,,,77,0
53664,note_on,1,0,1,,,,,,,,,,,,,,,0,,,79,127
53791,note_on,0,0,1,,,,,,,,,,,,,,,0,,,36,0
53791,note_on,127,0,1,,,,,,,,,,,,,,,0,,,79,0
53791,note_on,0,0,1,,,,,,,,,,,,,,,0,,,48,0
53792,note_on,0,0,1,,,,,,,,,,,,,,,0,,,72,127
53792,note_on,0,0,1,,,,,,,,,,,,,,,0,,,84,127
53792,note_on,1,0,1,,,,,,,,,,,,,,,0,,,60,127
53855,note_on,63,0,1,,,,,,,,,,,,,,,0,,,60,0
53856,note_on,1,0,1,,,,,,,,,,,,,,,0,,,59,127
53919,note_on,63,0,1,,,,,,,,,,,,,,,0,,,59,0
53920,note_on,1,0,1,,,,,,,,,,,,,,,0,,,60,127
53983,note_on,63,0,1,,,,,,,,,,,,,,,0,,,60,0
53984,note_on,1,0,1,,,,,,,,,,,,,,,0,,,62,127
54047,note_on,63,0,1,,,,,,,,,,,,,,,0,,,62,0
54048,note_on,1,0,1,,,,,,,,,,,,,,,0,,,64,127
54175,note_on,127,0,1,,,,,,,,,,,,,,,0,,,64,0
54176,note_on,1,0,1,,,,,,,,,,,,,,,0,,,64,127
54239,note_on,63,0,1,,,,,,,,,,,,,,,0,,,64,0
54240,note_on,1,0,1,,,,,,,,,,,,,,,0,,,62,127
54303,note_on,63,0,1,,,,,,,,,,,,,,,0,,,62,0
54304,note_on,1,0,1,,,,,,,,,,,,,,,0,,,64,127
54367,note_on,63,0,1,,,,,,,,,,,,,,,0,,,64,0
54368,note_on,1,0,1,,,,,,,,,,,,,,,0,,,65,127
54431,note_on,63,0,1,,,,,,,,,,,,,,,0,,,65,0
54432,note_on,1,0,1,,,,,,,,,,,,,,,0,,,67,127
54559,note_on,127,0,1,,,,,,,,,,,,,,,0,,,67,0
54560,note_on,0,0,1,,,,,,,,,,,,,,,0,,,53,127
54560,note_on,1,0,1,,,,,,,,,,,,,,,0,,,41,127
54687,note_on,127,0,1,,,,,,,,,,,,,,,0,,,84,0
54687,note_on,0,0,1,,,,,,,,,,,,,,,0,,,72,0
54688,note_on,1,0,1,,,,,,,,,,,,,,,0,,,81,127
54815,note_on,127,0,1,,,,,,,,,,,,,,,0,,,81,0
54816,note_on,1,0,1,,,,,,,,,,,,,,,0,,,77,127
54943,note_on,127,0,1,,,,,,,,,,,,,,,0,,,41,0
54943,note_on,0,0,1,,,,,,,,,,,,,,,0,,,53,0
54944,note_on,0,0,1,,,,,,,,,,,,,,,0,,,41,127
54944,note_on,1,0,1,,,,,,,,,,,,,,,0,,,53,127
55071,note_on,127,0,1,,,,,,,,,,,,,,,0,,,77,0
55072,note_on,1,0,1,,,,,,,,,,,,,,,0,,,74,127
55199,note_on,127,0,1,,,,,,,,,,,,,,,0,,,74,0
55200,note_on,1,0,1,,,,,,,,,,,,,,,0,,,72,127
55327,note_on,0,0,1,,,,,,,,,,,,,,,0,,,41,0
55327,note_on,127,0,1,,,,,,,,,,,,,,,0,,,72,0
55327,note_on,0,0,1,,,,,,,,,,,,,,,0,,,53,0
55328,note_on,0,0,1,,,,,,,,,,,,,,,0,,,43,127
55328,note_on,0,0,1,,,,,,,,,,,,,,,0,,,72,127
55328,note_on,1,0,1,,,,,,,,,,,,,,,0,,,55,127
55711,note_on,383,0,1,,,,,,,,,,,,,,,0,,,72,0
55711,note_on,0,0,1,,,,,,,,,,,,,,,0,,,43,0
55711,note_on,0,0,1,,,,,,,,,,,,,,,0,,,55,0
55712,note_on,0,0,1,,,,,,,,,,,,,,,0,,,71,127
55712,note_on,0,0,1,,,,,,,,,,,,,,,0,,,76,127
55712,note_on,0,0,1,,,,,,,,,,,,,,,0,,,43,127
55712,note_on,1,0,1,,,,,,,,,,,,,,,0,,,55,127
55760,note_on,48,0,1,,,,,,,,,,,,,,,0,,,74,127
55775,note_on,15,0,1,,,,,,,,,,,,,,,0,,,76,0
55808,note_on,33,0,1,,,,,,,,,,,,,,,0,,,76,127
55823,note_on,15,0,1,,,,,,,,,,,,,,,0,,,74,0
55856,note_on,33,0,1,,,,,,,,,,,,,,,0,,,74,127
55871,note_on,15,0,1,,,,,,,,,,,,,,,0,,,76,0
55904,note_on,33,0,1,,,,,,,,,,,,,,,0,,,76,127
55919,note_on,15,0,1,,,,,,,,,,,,,,,0,,,74,0
55952,note_on,33,0,1,,,,,,,,,,,,,,,0,,,74,127
55967,note_on,15,0,1,,,,,,,,,,,,,,,0,,,76,0
56000,note_on,33,0,1,,,,,,,,,,,,,,,0,,,72,127
56015,note_on,15,0,1,,,,,,,,,,,,,,,0,,,74,0
56048,note_on,33,0,1,,,,,,,,,,,,,,,0,,,74,127
56063,note_on,15,0,1,,,,,,,,,,,,,,,0,,,72,0
56095,note_on,32,0,1,,,,,,,,,,,,,,,0,,,71,0
56095,note_on,0,0,1,,,,,,,,,,,,,,,0,,,55,0
56095,note_on,0,0,1,,,,,,,,,,,,,,,0,,,43,0
56096,note_on,0,0,1,,,,,,,,,,,,,,,0,,,74,127
56096,note_on,0,0,1,,,,,,,,,,,,,,,0,,,36,127
56096,note_on,1,0,1,,,,,,,,,,,,,,,0,,,48,127
56096,note_on,0,0,1,,,,,,,,,,,,,,,0,,,72,127
56111,note_on,15,0,1,,,,,,,,,,,,,,,0,,,74,0
56159,note_on,0,0,1,,,,,,,,,,,,,,,0,,,74,0
56159,note_on,48,0,1,,,,,,,,,,,,,,,0,,,72,0
56160,note_on,1,0,1,,,,,,,,,,,,,,,0,,,71,127
56223,note_on,63,0,1,,,,,,,,,,,,,,,0,,,71,0
56224,note_on,1,0,1,,,,,,,,,,,,,,,0,,,72,127
56287,note_on,63,0,1,,,,,,,,,,,,,,,0,,,72,0
56288,note_on,1,0,1,,,,,,,,,,,,,,,0,,,74,127
56351,note_on,63,0,1,,,,,,,,,,,,,,,0,,,74,0
56352,note_on,1,0,1,,,,,,,,,,,,,,,0,,,76,127
56479,note_on,127,0,1,,,,,,,,,,,,,,,0,,,76,0
56480,note_on,1,0,1,,,,,,,,,,,,,,,0,,,76,127
56480,note_on,0,0,1,,,,,,,,,,,,,,,0,,,77,127
56543,note_on,0,0,1,,,,,,,,,,,,,,,0,,,76,0
56543,note_on,63,0,1,,,,,,,,,,,,,,,0,,,77,0
56544,note_on,1,0,1,,,,,,,,,,,,,,,0,,,74,127
56607,note_on,63,0,1,,,,,,,,,,,,,,,0,,,74,0
56608,note_on,1,0,1,,,,,,,,,,,,,,,0,,,76,127
56671,note_on,63,0,1,,,,,,,,,,,,,,,0,,,76,0
56672,note_on,1,0,1,,,,,,,,,,,,,,,0,,,77,127
56735,note_on,63,0,1,,,,,,,,,,,,,,,0,,,77,0
56736,note_on,1,0,1,,,,,,,,,,,,,,,0,,,79,127
56863,note_on,0,0,1,,,,,,,,,,,,,,,0,,,48,0
56863,note_on,127,0,1,,,,,,,,,,,,,,,0,,,79,0
56863,note_on,0,0,1,,,,,,,,,,,,,,,0,,,36,0
56864,note_on,1,0,1,,,,,,,,,,,,,,,0,,,60,127
56864,note_on,0,0,1,,,,,,,,,,,,,,,0,,,72,127
56864,note_on,0,0,1,,,,,,,,,,,,,,,0,,,84,127
56927,note_on,63,0,1,,,,,,,,,,,,,,,0,,,60,0
56928,note_on,1,0,1,,,,,,,,,,,,,,,0,,,59,127
56991,note_on,63,0,1,,,,,,,,,,,,,,,0,,,59,0
56992,note_on,1,0,1,,,,,,,,,,,,,,,0,,,60,127
57055,note_on,63,0,1,,,,,,,,,,,,,,,0,,,60,0
57056,note_on,1,0,1,,,,,,,,,,,,,,,0,,,62,127
57119,note_on,63,0,1,,,,,,,,,,,,,,,0,,,62,0
57120,note_on,1,0,1,,,,,,,,,,,,,,,0,,,64,127
57247,note_on,127,0,1,,,,,,,,,,,,,,,0,,,64,0
57248,note_on,1,0,1,,,,,,,,,,,,,,,0,,,64,127
57311,note_on,63,0,1,,,,,,,,,,,,,,,0,,,64,0
57312,note_on,1,0,1,,,,,,,,,,,,,,,0,,,62,127
57375,note_on,63,0,1,,,,,,,,,,,,,,,0,,,62,0
57376,note_on,1,0,1,,,,,,,,,,,,,,,0,,,64,127
57439,note_on,63,0,1,,,,,,,,,,,,,,,0,,,64,0
57440,note_on,1,0,1,,,,,,,,,,,,,,,0,,,65,127
57503,note_on,63,0,1,,,,,,,,,,,,,,,0,,,65,0
57504,note_on,1,0,1,,,,,,,,,,,,,,,0,,,67,127
57631,note_on,127,0,1,,,,,,,,,,,,,,,0,,,67,0
57632,note_on,0,0,1,,,,,,,,,,,,,,,0,,,53,127
57632,note_on,1,0,1,,,,,,,,,,,,,,,0,,,41,127
57759,note_on,0,0,1,,,,,,,,,,,,,,,0,,,72,0
57759,note_on,127,0,1,,,,,,,,,,,,,,,0,,,84,0
57760,note_on,1,0,1,,,,,,,,,,,,,,,0,,,74,127
57887,note_on,127,0,1,,,,,,,,,,,,,,,0,,,74,0
57888,note_on,1,0,1,,,,,,,,,,,,,,,0,,,81,127
58015,note_on,127,0,1,,,,,,,,,,,,,,,0,,,41,0
58015,note_on,0,0,1,,,,,,,,,,,,,,,0,,,53,0
58016,note_on,0,0,1,,,,,,,,,,,,,,,0,,,41,127
58016,note_on,1,0,1,,,,,,,,,,,,,,,0,,,53,127
58143,note_on,127,0,1,,,,,,,,,,,,,,,0,,,81,0
58144,note_on,1,0,1,,,,,,,,,,,,,,,0,,,84,127
58271,note_on,127,0,1,,,,,,,,,,,,,,,0,,,84,0
58272,note_on,1,0,1,,,,,,,,,,,,,,,0,,,72,127
58399,note_on,0,0,1,,,,,,,,,,,,,,,0,,,41,0
58399,note_on,127,0,1,,,,,,,,,,,,,,,0,,,72,0
58399,note_on,0,0,1,,,,,,,,,,,,,,,0,,,53,0
58400,note_on,0,0,1,,,,,,,,,,,,,,,0,,,43,127
58400,note_on,0,0,1,,,,,,,,,,,,,,,0,,,72,127
58400,note_on,1,0,1,,,,,,,,,,,,,,,0,,,55,127
58783,note_on,383,0,1,,,,,,,,,,,,,,,0,,,72,0
58783,note_on,0,0,1,,,,,,,,,,,,,,,0,,,43,0
58783,note_on,0,0,1,,,,,,,,,,,,,,,0,,,55,0
58784,note_on,0,0,1,,,,,,,,,,,,,,,0,,,71,127
58784,note_on,0,0,1,,,,,,,,,,,,,,,0,,,76,127
58784,note_on,1,0,1,,,,,,,,,,,,,,,0,,,55,127
58784,note_on,0,0,1,,,,,,,,,,,,,,,0,,,43,127
58832,note_on,48,0,1,,,,,,,,,,,,,,,0,,,74,127
58847,note_on,15,0,1,,,,,,,,,,,,,,,0,,,76,0
58880,note_on,33,0,1,,,,,,,,,,,,,,,0,,,76,127
58895,note_on,15,0,1,,,,,,,,,,,,,,,0,,,74,0
58928,note_on,33,0,1,,,,,,,,,,,,,,,0,,,74,127
58943,note_on,15,0,1,,,,,,,,,,,,,,,0,,,76,0
58976,note_on,33,0,1,,,,,,,,,,,,,,,0,,,76,127
58991,note_on,15,0,1,,,,,,,,,,,,,,,0,,,74,0
59024,note_on,33,0,1,,,,,,,,,,,,,,,0,,,74,127
59039,note_on,15,0,1,,,,,,,,,,,,,,,0,,,76,0
59072,note_on,33,0,1,,,,,,,,,,,,,,,0,,,72,127
59087,note_on,15,0,1,,,,,,,,,,,,,,,0,,,74,0
59120,note_on,33,0,1,,,,,,,,,,,,,,,0,,,74,127
59135,note_on,15,0,1,,,,,,,,,,,,,,,0,,,72,0
59167,note_on,32,0,1,,,,,,,,,,,,,,,0,,,71,0
59167,note_on,0,0,1,,,,,,,,,,,,,,,0,,,55,0
59167,note_on,0,0,1,,,,,,,,,,,,,,,0,,,43,0
59168,note_on,1,0,1,,,,,,,,,,,,,,,0,,,48,127
59168,note_on,0,0,1,,,,,,,,,,,,,,,0,,,36,127
59168,note_on,0,0,1,,,,,,,,,,,,,,,0,,,72,127
59183,note_on,15,0,1,,,,,,,,,,,,,,,0,,,74,0
59295,note_on,112,0,1,,,,,,,,,,,,,,,0,,,72,0
59296,note_on,1,0,1,,,,,,,,,,,,,,,0,,,79,127
59423,note_on,127,0,1,,,,,,,,,,,,,,,0,,,79,0
59424,note_on,1,0,1,,,,,,,,,,,,,,,0,,,77,127
59551,note_on,0,0,1,,,,,,,,,,,,,,,0,,,36,0
59551,note_on,127,0,1,,,,,,,,,,,,,,,0,,,77,0
59551,note_on,0,0,1,,,,,,,,,,,,,,,0,,,48,0
59552,note_on,0,0,1,,,,,,,,,,,,,,,0,,,69,127
59552,note_on,1,0,1,,,,,,,,,,,,,,,0,,,41,127
59679,note_on,127,0,1,,,,,,,,,,,,,,,0,,,69,0
59680,note_on,1,0,1,,,,,,,,,,,,,,,0,,,74,127
59807,note_on,127,0,1,,,,,,,,,,,,,,,0,,,74,0
59808,note_on,1,0,1,,,,,,,,,,,,,,,0,,,72,127
59935,note_on,127,0,1,,,,,,,,,,,,,,,0,,,72,0
59935,note_on,0,0,1,,,,,,,,,,,,,,,0,,,41,0
59936,note_on,0,0,1,,,,,,,,,,,,,,,0,,,60,127
59936,note_on,0,0,1,,,,,,,,,,,,,,,0,,,64,127
59936,note_on,1,0,1,,,,,,,,,,,,,,,0,,,43,127
60319,note_on,383,0,1,,,,,,,,,,,,,,,0,,,60,0
60319,note_on,0,0,1,,,,,,,,,,,,,,,0,,,43,0
60320,note_on,1,0,1,,,,,,,,,,,,,,,0,,,43,127
60320,note_on,0,0,1,,,,,,,,,,,,,,,0,,,59,127
60368,note_on,48,0,1,,,,,,,,,,,,,,,0,,,62,127
60376,note_on,8,0,1,,,,,,,,,,,,,,,0,,,64,0
60416,note_on,40,0,1,,,,,,,,,,,,,,,0,,,64,127
60431,note_on,15,0,1,,,,,,,,,,,,,,,0,,,62,0
60464,note_on,33,0,1,,,,,,,,,,,,,,,0,,,62,127
60479,note_on,15,0,1,,,,,,,,,,,,,,,0,,,64,0
60512,note_on,33,0,1,,,,,,,,,,,,,,,0,,,64,127
60527,note_on,15,0,1,,,,,,,,,,,,,,,0,,,62,0
60560,note_on,33,0,1,,,,,,,,,,,,,,,0,,,62,127
60575,note_on,15,0,1,,,,,,,,,,,,,,,0,,,64,0
60608,note_on,33,0,1,,,,,,,,,,,,,,,0,,,60,127
60623,note_on,15,0,1,,,,,,,,,,,,,,,0,,,62,0
60656,note_on,33,0,1,,,,,,,,,,,,,,,0,,,62,127
60671,note_on,15,0,1,,,,,,,,,,,,,,,0,,,60,0
60703,note_on,32,0,1,,,,,,,,,,,,,,,0,,,43,0
60703,note_on,0,0,1,,,,,,,,,,,,,,,0,,,59,0
60704,note_on,0,0,1,,,,,,,,,,,,,,,0,,,36,127
60704,note_on,0,0,1,,,,,,,,,,,,,,,0,,,60,127
60704,control_change,0,0,1,,,,,,,,,,,,,,,0,121,0,,
60704,note_on,1,0,1,,,,,,,,,,,,,,,0,,,62,0
62238,note_on,1534,0,1,,,,,,,,,,,,,,,0,,,60,0
62238,note_on,0,0,1,,,,,,,,,,,,,,,0,,,36,0
62238,end_of_track,0,1,1,,,,,,,,,,,,,,,,,,,
