tick,type,numerator,denominator,clocks_per_click,notated_32nd_notes_per_beat,time,meta,track,data,tempo,control,value,channel,program,key,note,velocity
0,time_signature,3,8,96,8,0,1,0,,,,,,,,,
0,track_name,,,,,0,1,2,,,,,,,,,
0,end_of_track,,,,,0,1,2,,,,,,,,,
0,track_name,,,,,0,1,3,,,,,,,,,
0,control_change,,,,,0,0,3,,,0,0,0,,,,
0,control_change,,,,,0,0,3,,,7,100,0,,,,
0,control_change,,,,,0,0,3,,,91,23,0,,,,
0,program_change,,,,,0,0,3,,,,,0,6,,,
0,key_signature,,,,,0,1,3,,,,,,,G,,
0,end_of_track,,,,,0,1,3,,,,,,,,,
0,track_name,,,,,0,1,4,,,,,,,,,
0,control_change,,,,,0,0,4,,,0,0,0,,,,
0,program_change,,,,,0,0,4,,,,,0,6,,,
0,control_change,,,,,0,0,4,,,7,100,0,,,,
0,control_change,,,,,0,0,4,,,91,23,0,,,,
0,key_signature,,,,,0,1,4,,,,,,,G,,
0,note_on,,,,,0,0,4,,,,,0,,,79,100
0,control_change,,,,,0,0,5,,,0,0,1,,,,
0,key_signature,,,,,0,1,5,,,,,,,G,,
0,control_change,,,,,0,0,5,,,91,23,1,,,,
0,control_change,,,,,0,0,5,,,7,100,1,,,,
0,program_change,,,,,0,0,5,,,,,1,6,,,
0,end_of_track,,,,,0,1,1,,,,,,,,,
0,track_name,,,,,0,1,1,,,,,,,,,
0,track_name,,,,,0,1,5,,,,,,,,,
0,sequencer_specific,,,,,0,1,0,"(0, 0, 65)",,,,,,,,
0,sequencer_specific,,,,,0,1,0,"(0, 0, 119, 14, 1)",,,,,,,,
0,set_tempo,,,,,0,1,0,,571428,,,,,,,
188,note_off,,,,,188,0,4,,,,,0,,,79,100
192,note_on,,,,,4,0,4,,,,,0,,,67,100
292,note_off,,,,,100,0,4,,,,,0,,,67,100
384,note_on,,,,,92,0,4,,,,,0,,,67,100
484,note_off,,,,,100,0,4,,,,,0,,,67,100
576,set_tempo,,,,,576,1,0,,571428,,,,,,,
576,note_on,,,,,576,0,5,,,,,1,,,55,100
576,note_on,,,,,92,0,4,,,,,0,,,67,100
620,note_off,,,,,44,0,4,,,,,0,,,67,100
624,note_on,,,,,4,0,4,,,,,0,,,69,100
668,note_off,,,,,44,0,4,,,,,0,,,69,100
672,note_on,,,,,4,0,4,,,,,0,,,67,100
716,note_off,,,,,44,0,4,,,,,0,,,67,100
720,note_on,,,,,4,0,4,,,,,0,,,69,100
764,note_off,,,,,44,0,4,,,,,0,,,69,100
764,note_off,,,,,188,0,5,,,,,1,,,55,100
768,note_on,,,,,4,0,4,,,,,0,,,67,100
768,note_on,,,,,4,0,5,,,,,1,,,43,100
812,note_off,,,,,44,0,4,,,,,0,,,67,100
816,note_on,,,,,4,0,4,,,,,0,,,69,100
860,note_off,,,,,44,0,4,,,,,0,,,69,100
864,note_on,,,,,4,0,4,,,,,0,,,67,100
868,note_off,,,,,100,0,5,,,,,1,,,43,100
908,note_off,,,,,44,0,4,,,,,0,,,67,100
912,note_on,,,,,4,0,4,,,,,0,,,69,100
956,note_off,,,,,44,0,4,,,,,0,,,69,100
960,note_on,,,,,92,0,5,,,,,1,,,43,100
960,note_on,,,,,4,0,4,,,,,0,,,67,100
1004,note_off,,,,,44,0,4,,,,,0,,,67,100
1008,note_on,,,,,4,0,4,,,,,0,,,69,100
1052,note_off,,,,,44,0,4,,,,,0,,,69,100
1056,note_on,,,,,4,0,4,,,,,0,,,67,100
1060,note_off,,,,,100,0,5,,,,,1,,,43,100
1120,note_off,,,,,64,0,4,,,,,0,,,67,100
1152,note_on,,,,,32,0,4,,,,,0,,,67,100
1152,note_on,,,,,92,0,5,,,,,1,,,43,100
1244,note_off,,,,,92,0,4,,,,,0,,,67,100
1248,note_on,,,,,4,0,4,,,,,0,,,62,100
1340,note_off,,,,,92,0,4,,,,,0,,,62,100
1344,note_on,,,,,4,0,4,,,,,0,,,71,100
1436,note_off,,,,,92,0,4,,,,,0,,,71,100
1440,note_on,,,,,4,0,4,,,,,0,,,67,100
1532,note_off,,,,,92,0,4,,,,,0,,,67,100
1536,note_off,,,,,384,0,5,,,,,1,,,43,100
1536,note_on,,,,,4,0,4,,,,,0,,,74,100
1628,note_off,,,,,92,0,4,,,,,0,,,74,100
1632,note_on,,,,,4,0,4,,,,,0,,,71,100
1724,note_off,,,,,92,0,4,,,,,0,,,71,100
1728,note_on,,,,,4,0,4,,,,,0,,,79,100
1728,note_on,,,,,192,0,5,,,,,1,,,55,100
1820,note_off,,,,,92,0,5,,,,,1,,,55,100
1824,note_on,,,,,4,0,5,,,,,1,,,50,100
1916,note_off,,,,,92,0,5,,,,,1,,,50,100
1920,note_on,,,,,4,0,5,,,,,1,,,59,100
2012,note_off,,,,,92,0,5,,,,,1,,,59,100
2016,note_on,,,,,4,0,5,,,,,1,,,55,100
2108,note_off,,,,,92,0,5,,,,,1,,,55,100
2112,note_on,,,,,4,0,5,,,,,1,,,62,100
2112,note_off,,,,,384,0,4,,,,,0,,,79,100
2204,note_off,,,,,92,0,5,,,,,1,,,62,100
2208,note_on,,,,,4,0,5,,,,,1,,,59,100
2300,note_off,,,,,92,0,5,,,,,1,,,59,100
2304,note_on,,,,,192,0,4,,,,,0,,,71,100
2304,note_on,,,,,4,0,5,,,,,1,,,67,100
2384,note_off,,,,,80,0,5,,,,,1,,,67,100
2384,note_off,,,,,80,0,4,,,,,0,,,71,100
2496,note_on,,,,,112,0,5,,,,,1,,,69,100
2496,note_on,,,,,112,0,4,,,,,0,,,72,100
2576,note_off,,,,,80,0,5,,,,,1,,,69,100
2576,note_off,,,,,80,0,4,,,,,0,,,72,100
2688,note_on,,,,,112,0,5,,,,,1,,,71,100
2688,note_on,,,,,112,0,4,,,,,0,,,74,100
2768,note_off,,,,,80,0,5,,,,,1,,,71,100
2768,note_off,,,,,80,0,4,,,,,0,,,74,100
2880,note_on,,,,,112,0,5,,,,,1,,,69,100
2880,note_on,,,,,112,0,4,,,,,0,,,74,100
2972,note_off,,,,,92,0,4,,,,,0,,,74,100
2976,note_on,,,,,4,0,4,,,,,0,,,72,100
3020,note_off,,,,,44,0,4,,,,,0,,,72,100
3024,note_on,,,,,4,0,4,,,,,0,,,74,100
3068,note_off,,,,,188,0,5,,,,,1,,,69,100
3068,note_off,,,,,44,0,4,,,,,0,,,74,100
3072,note_on,,,,,4,0,5,,,,,1,,,66,100
3072,note_on,,,,,4,0,4,,,,,0,,,72,100
3116,note_off,,,,,44,0,4,,,,,0,,,72,100
3120,note_on,,,,,4,0,4,,,,,0,,,74,100
3164,note_off,,,,,44,0,4,,,,,0,,,74,100
3168,note_on,,,,,4,0,4,,,,,0,,,72,100
3260,note_off,,,,,92,0,4,,,,,0,,,72,100
3260,note_off,,,,,188,0,5,,,,,1,,,66,100
3264,note_on,,,,,4,0,5,,,,,1,,,67,100
3264,note_on,,,,,4,0,4,,,,,0,,,71,100
3392,note_off,,,,,128,0,4,,,,,0,,,71,100
3392,note_off,,,,,128,0,5,,,,,1,,,67,100
3456,note_on,,,,,64,0,5,,,,,1,,,60,100
3456,note_on,,,,,64,0,4,,,,,0,,,72,100
3548,note_off,,,,,92,0,4,,,,,0,,,72,100
3552,note_on,,,,,4,0,4,,,,,0,,,81,100
3644,note_off,,,,,92,0,4,,,,,0,,,81,100
3644,note_off,,,,,188,0,5,,,,,1,,,60,100
3648,note_on,,,,,4,0,4,,,,,0,,,71,100
3648,note_on,,,,,4,0,5,,,,,1,,,62,100
3740,note_off,,,,,92,0,4,,,,,0,,,71,100
3744,note_on,,,,,4,0,4,,,,,0,,,79,100
3836,note_off,,,,,92,0,4,,,,,0,,,79,100
3836,note_off,,,,,188,0,5,,,,,1,,,62,100
3840,note_on,,,,,4,0,5,,,,,1,,,66,100
3840,note_on,,,,,4,0,4,,,,,0,,,69,100
3932,note_off,,,,,92,0,4,,,,,0,,,69,100
3936,note_on,,,,,4,0,4,,,,,0,,,78,100
4028,note_off,,,,,188,0,5,,,,,1,,,66,100
4028,note_off,,,,,92,0,4,,,,,0,,,78,100
4032,note_on,,,,,4,0,4,,,,,0,,,71,100
4032,note_on,,,,,4,0,5,,,,,1,,,67,100
4124,note_off,,,,,92,0,4,,,,,0,,,71,100
4128,note_on,,,,,4,0,4,,,,,0,,,79,100
4220,note_off,,,,,188,0,5,,,,,1,,,67,100
4220,note_off,,,,,92,0,4,,,,,0,,,79,100
4224,note_on,,,,,4,0,4,,,,,0,,,69,100
4224,note_on,,,,,4,0,5,,,,,1,,,62,100
4316,note_off,,,,,92,0,4,,,,,0,,,69,100
4320,note_on,,,,,4,0,4,,,,,0,,,78,100
4412,note_off,,,,,92,0,4,,,,,0,,,78,100
4412,note_off,,,,,188,0,5,,,,,1,,,62,100
4416,note_on,,,,,4,0,4,,,,,0,,,79,100
4416,note_on,,,,,4,0,5,,,,,1,,,55,100
4544,note_off,,,,,128,0,4,,,,,0,,,79,100
4544,note_off,,,,,128,0,5,,,,,1,,,55,100
4608,note_on,,,,,64,0,4,,,,,0,,,71,100
4608,note_on,,,,,64,0,5,,,,,1,,,67,100
4688,note_off,,,,,80,0,5,,,,,1,,,67,100
4688,note_off,,,,,80,0,4,,,,,0,,,71,100
4800,note_on,,,,,112,0,5,,,,,1,,,69,100
4800,note_on,,,,,112,0,4,,,,,0,,,72,100
4880,note_off,,,,,80,0,5,,,,,1,,,69,100
4880,note_off,,,,,80,0,4,,,,,0,,,72,100
4992,note_on,,,,,112,0,5,,,,,1,,,71,100
4992,note_on,,,,,112,0,4,,,,,0,,,74,100
5072,note_off,,,,,80,0,5,,,,,1,,,71,100
5072,note_off,,,,,80,0,4,,,,,0,,,74,100
5184,note_on,,,,,112,0,5,,,,,1,,,69,100
5184,note_on,,,,,112,0,4,,,,,0,,,74,100
5276,note_off,,,,,92,0,4,,,,,0,,,74,100
5280,note_on,,,,,4,0,4,,,,,0,,,72,100
5324,note_off,,,,,44,0,4,,,,,0,,,72,100
5328,note_on,,,,,4,0,4,,,,,0,,,74,100
5372,note_off,,,,,44,0,4,,,,,0,,,74,100
5372,note_off,,,,,188,0,5,,,,,1,,,69,100
5376,note_on,,,,,4,0,4,,,,,0,,,72,100
5376,note_on,,,,,4,0,5,,,,,1,,,66,100
5420,note_off,,,,,44,0,4,,,,,0,,,72,100
5424,note_on,,,,,4,0,4,,,,,0,,,74,100
5468,note_off,,,,,44,0,4,,,,,0,,,74,100
5472,note_on,,,,,4,0,4,,,,,0,,,72,100
5564,note_off,,,,,92,0,4,,,,,0,,,72,100
5564,note_off,,,,,188,0,5,,,,,1,,,66,100
5568,note_on,,,,,4,0,4,,,,,0,,,71,100
5568,note_on,,,,,4,0,5,,,,,1,,,67,100
5696,note_off,,,,,128,0,4,,,,,0,,,71,100
5696,note_off,,,,,128,0,5,,,,,1,,,67,100
5760,note_on,,,,,64,0,4,,,,,0,,,72,100
5760,set_tempo,,,,,5184,1,0,,571428,,,,,,,
5760,note_on,,,,,64,0,5,,,,,1,,,60,100
5852,note_off,,,,,92,0,4,,,,,0,,,72,100
5856,note_on,,,,,4,0,4,,,,,0,,,81,100
5874,set_tempo,,,,,114,1,0,,574162,,,,,,,
5948,note_off,,,,,188,0,5,,,,,1,,,60,100
5948,note_off,,,,,92,0,4,,,,,0,,,81,100
5952,note_on,,,,,4,0,5,,,,,1,,,62,100
5952,note_on,,,,,4,0,4,,,,,0,,,71,100
5990,set_tempo,,,,,116,1,0,,576923,,,,,,,
6044,note_off,,,,,92,0,4,,,,,0,,,71,100
6048,note_on,,,,,4,0,4,,,,,0,,,79,100
6104,set_tempo,,,,,114,1,0,,579710,,,,,,,
6140,note_off,,,,,188,0,5,,,,,1,,,62,100
6140,note_off,,,,,92,0,4,,,,,0,,,79,100
6144,note_on,,,,,4,0,5,,,,,1,,,50,100
6144,note_on,,,,,4,0,4,,,,,0,,,69,100
6220,set_tempo,,,,,116,1,0,,582524,,,,,,,
6236,note_off,,,,,92,0,4,,,,,0,,,69,100
6240,note_on,,,,,4,0,4,,,,,0,,,78,100
6332,note_off,,,,,92,0,4,,,,,0,,,78,100
6332,note_off,,,,,188,0,5,,,,,1,,,50,100
6336,note_on,,,,,4,0,4,,,,,0,,,71,100
6336,set_tempo,,,,,116,1,0,,585365,,,,,,,
6336,note_on,,,,,4,0,5,,,,,1,,,55,100
6428,note_off,,,,,92,0,4,,,,,0,,,71,100
6432,note_on,,,,,4,0,4,,,,,0,,,79,100
6450,set_tempo,,,,,114,1,0,,588235,,,,,,,
6524,note_off,,,,,92,0,4,,,,,0,,,79,100
6524,note_off,,,,,188,0,5,,,,,1,,,55,100
6528,note_on,,,,,4,0,4,,,,,0,,,69,100
6528,note_on,,,,,4,0,5,,,,,1,,,50,100
6566,set_tempo,,,,,116,1,0,,591133,,,,,,,
6620,note_off,,,,,92,0,4,,,,,0,,,69,100
6624,note_on,,,,,4,0,4,,,,,0,,,78,100
6680,set_tempo,,,,,114,1,0,,594059,,,,,,,
6716,note_off,,,,,188,0,5,,,,,1,,,50,100
6716,note_off,,,,,92,0,4,,,,,0,,,78,100
6720,note_on,,,,,4,0,4,,,,,0,,,79,100
6720,note_on,,,,,4,0,5,,,,,1,,,43,100
6796,set_tempo,,,,,116,1,0,,597014,,,,,,,
6848,note_off,,,,,128,0,4,,,,,0,,,79,100
6848,note_off,,,,,128,0,5,,,,,1,,,43,100
6912,note_on,,,,,64,0,4,,,,,0,,,79,100
6912,set_tempo,,,,,116,1,0,,571428,,,,,,,
6912,note_on,,,,,64,0,5,,,,,1,,,71,100
6992,note_off,,,,,80,0,4,,,,,0,,,79,100
7004,note_off,,,,,92,0,5,,,,,1,,,71,100
7008,note_on,,,,,4,0,5,,,,,1,,,74,100
7100,note_off,,,,,92,0,5,,,,,1,,,74,100
7104,note_on,,,,,4,0,5,,,,,1,,,69,100
7104,note_on,,,,,112,0,4,,,,,0,,,78,100
7184,note_off,,,,,80,0,4,,,,,0,,,78,100
7196,note_off,,,,,92,0,5,,,,,1,,,69,100
7200,note_on,,,,,4,0,5,,,,,1,,,74,100
7292,note_off,,,,,92,0,5,,,,,1,,,74,100
7296,note_on,,,,,112,0,4,,,,,0,,,76,100
7296,note_on,,,,,4,0,5,,,,,1,,,67,100
7376,note_off,,,,,80,0,4,,,,,0,,,76,100
7388,note_off,,,,,92,0,5,,,,,1,,,67,100
7392,note_on,,,,,4,0,5,,,,,1,,,73,100
7484,note_off,,,,,92,0,5,,,,,1,,,73,100
7488,note_on,,,,,4,0,5,,,,,1,,,66,100
7488,note_on,,,,,112,0,4,,,,,0,,,81,100
7580,note_off,,,,,92,0,4,,,,,0,,,81,100
7584,note_on,,,,,4,0,4,,,,,0,,,74,100
7616,note_off,,,,,128,0,5,,,,,1,,,66,100
7676,note_off,,,,,92,0,4,,,,,0,,,74,100
7680,note_on,,,,,4,0,4,,,,,0,,,76,100
7772,note_off,,,,,92,0,4,,,,,0,,,76,100
7776,note_on,,,,,4,0,4,,,,,0,,,73,100
7868,note_off,,,,,92,0,4,,,,,0,,,73,100
7872,note_on,,,,,4,0,4,,,,,0,,,74,100
7964,note_off,,,,,92,0,4,,,,,0,,,74,100
7968,note_on,,,,,4,0,4,,,,,0,,,69,100
8060,note_off,,,,,92,0,4,,,,,0,,,69,100
8064,note_on,,,,,4,0,4,,,,,0,,,79,100
8064,note_on,,,,,448,0,5,,,,,1,,,71,100
8144,note_off,,,,,80,0,4,,,,,0,,,79,100
8156,note_off,,,,,92,0,5,,,,,1,,,71,100
8160,note_on,,,,,4,0,5,,,,,1,,,74,100
8252,note_off,,,,,92,0,5,,,,,1,,,74,100
8256,note_on,,,,,4,0,5,,,,,1,,,69,100
8256,note_on,,,,,112,0,4,,,,,0,,,78,100
8336,note_off,,,,,80,0,4,,,,,0,,,78,100
8348,note_off,,,,,92,0,5,,,,,1,,,69,100
8352,note_on,,,,,4,0,5,,,,,1,,,74,100
8444,note_off,,,,,92,0,5,,,,,1,,,74,100
8448,note_on,,,,,4,0,5,,,,,1,,,67,100
8448,note_on,,,,,112,0,4,,,,,0,,,76,100
8528,note_off,,,,,80,0,4,,,,,0,,,76,100
8540,note_off,,,,,92,0,5,,,,,1,,,67,100
8544,note_on,,,,,4,0,5,,,,,1,,,73,100
8636,note_off,,,,,92,0,5,,,,,1,,,73,100
8640,note_on,,,,,112,0,4,,,,,0,,,81,100
8640,note_on,,,,,4,0,5,,,,,1,,,66,100
8732,note_off,,,,,92,0,4,,,,,0,,,81,100
8736,note_on,,,,,4,0,4,,,,,0,,,74,100
8768,note_off,,,,,128,0,5,,,,,1,,,66,100
8828,note_off,,,,,92,0,4,,,,,0,,,74,100
8832,note_on,,,,,4,0,4,,,,,0,,,76,100
8924,note_off,,,,,92,0,4,,,,,0,,,76,100
8928,note_on,,,,,4,0,4,,,,,0,,,73,100
9020,note_off,,,,,92,0,4,,,,,0,,,73,100
9024,note_on,,,,,4,0,4,,,,,0,,,74,100
9116,note_off,,,,,92,0,4,,,,,0,,,74,100
9120,note_on,,,,,4,0,4,,,,,0,,,69,100
9212,note_off,,,,,92,0,4,,,,,0,,,69,100
9216,note_on,,,,,448,0,5,,,,,1,,,66,100
9216,note_on,,,,,4,0,4,,,,,0,,,74,100
9296,note_off,,,,,80,0,4,,,,,0,,,74,100
9308,note_off,,,,,92,0,5,,,,,1,,,66,100
9312,note_on,,,,,4,0,5,,,,,1,,,69,100
9404,note_off,,,,,92,0,5,,,,,1,,,69,100
9408,note_on,,,,,112,0,4,,,,,0,,,73,100
9408,note_on,,,,,4,0,5,,,,,1,,,64,100
9488,note_off,,,,,80,0,4,,,,,0,,,73,100
9500,note_off,,,,,92,0,5,,,,,1,,,64,100
9504,note_on,,,,,4,0,5,,,,,1,,,69,100
9596,note_off,,,,,92,0,5,,,,,1,,,69,100
9600,note_on,,,,,112,0,4,,,,,0,,,71,100
9600,note_on,,,,,4,0,5,,,,,1,,,62,100
9680,note_off,,,,,80,0,4,,,,,0,,,71,100
9692,note_off,,,,,92,0,5,,,,,1,,,62,100
9696,note_on,,,,,4,0,5,,,,,1,,,68,100
9788,note_off,,,,,92,0,5,,,,,1,,,68,100
9792,note_on,,,,,4,0,5,,,,,1,,,61,100
9792,note_on,,,,,112,0,4,,,,,0,,,76,100
9884,note_off,,,,,92,0,4,,,,,0,,,76,100
9888,note_on,,,,,4,0,4,,,,,0,,,69,100
9920,note_off,,,,,128,0,5,,,,,1,,,61,100
9980,note_off,,,,,92,0,4,,,,,0,,,69,100
9984,note_on,,,,,4,0,4,,,,,0,,,71,100
10076,note_off,,,,,92,0,4,,,,,0,,,71,100
10080,note_on,,,,,4,0,4,,,,,0,,,68,100
10172,note_off,,,,,92,0,4,,,,,0,,,68,100
10176,note_on,,,,,4,0,4,,,,,0,,,69,100
10268,note_off,,,,,92,0,4,,,,,0,,,69,100
10272,note_on,,,,,4,0,4,,,,,0,,,64,100
10364,note_off,,,,,92,0,4,,,,,0,,,64,100
10368,note_on,,,,,4,0,4,,,,,0,,,74,100
10368,note_on,,,,,448,0,5,,,,,1,,,66,100
10448,note_off,,,,,80,0,4,,,,,0,,,74,100
10460,note_off,,,,,92,0,5,,,,,1,,,66,100
10464,note_on,,,,,4,0,5,,,,,1,,,69,100
10556,note_off,,,,,92,0,5,,,,,1,,,69,100
10560,note_on,,,,,4,0,5,,,,,1,,,64,100
10560,note_on,,,,,112,0,4,,,,,0,,,73,100
10640,note_off,,,,,80,0,4,,,,,0,,,73,100
10652,note_off,,,,,92,0,5,,,,,1,,,64,100
10656,note_on,,,,,4,0,5,,,,,1,,,69,100
10748,note_off,,,,,92,0,5,,,,,1,,,69,100
10752,note_on,,,,,4,0,5,,,,,1,,,62,100
10752,note_on,,,,,112,0,4,,,,,0,,,71,100
10832,note_off,,,,,80,0,4,,,,,0,,,71,100
10844,note_off,,,,,92,0,5,,,,,1,,,62,100
10848,note_on,,,,,4,0,5,,,,,1,,,68,100
10940,note_off,,,,,92,0,5,,,,,1,,,68,100
10944,note_on,,,,,4,0,5,,,,,1,,,61,100
10944,note_on,,,,,112,0,4,,,,,0,,,76,100
11036,note_off,,,,,92,0,4,,,,,0,,,76,100
11040,note_on,,,,,4,0,4,,,,,0,,,69,100
11072,note_off,,,,,128,0,5,,,,,1,,,61,100
11132,note_off,,,,,92,0,4,,,,,0,,,69,100
11136,note_on,,,,,4,0,4,,,,,0,,,71,100
11228,note_off,,,,,92,0,4,,,,,0,,,71,100
11232,note_on,,,,,4,0,4,,,,,0,,,68,100
11324,note_off,,,,,92,0,4,,,,,0,,,68,100
11328,note_on,,,,,4,0,4,,,,,0,,,69,100
11420,note_off,,,,,92,0,4,,,,,0,,,69,100
11424,note_on,,,,,4,0,4,,,,,0,,,64,100
11516,note_off,,,,,92,0,4,,,,,0,,,64,100
11520,note_on,,,,,448,0,5,,,,,1,,,59,100
11520,note_on,,,,,4,0,4,,,,,0,,,74,100
11600,note_off,,,,,80,0,4,,,,,0,,,74,100
11612,note_off,,,,,92,0,5,,,,,1,,,59,100
11616,note_on,,,,,4,0,5,,,,,1,,,67,100
11708,note_off,,,,,92,0,5,,,,,1,,,67,100
11712,note_on,,,,,112,0,4,,,,,0,,,81,100
11712,note_on,,,,,4,0,5,,,,,1,,,57,100
11792,note_off,,,,,80,0,4,,,,,0,,,81,100
11804,note_off,,,,,92,0,5,,,,,1,,,57,100
11808,note_on,,,,,4,0,5,,,,,1,,,66,100
11900,note_off,,,,,92,0,5,,,,,1,,,66,100
11904,note_on,,,,,4,0,5,,,,,1,,,55,100
11904,note_on,,,,,112,0,4,,,,,0,,,73,100
11984,note_off,,,,,80,0,4,,,,,0,,,73,100
11996,note_off,,,,,92,0,5,,,,,1,,,55,100
12000,note_on,,,,,4,0,5,,,,,1,,,64,100
12092,note_off,,,,,92,0,5,,,,,1,,,64,100
12096,note_on,,,,,112,0,4,,,,,0,,,74,100
12096,note_on,,,,,4,0,5,,,,,1,,,54,100
12188,note_off,,,,,92,0,4,,,,,0,,,74,100
12192,note_on,,,,,4,0,4,,,,,0,,,69,100
12224,note_off,,,,,128,0,5,,,,,1,,,54,100
12284,note_off,,,,,92,0,4,,,,,0,,,69,100
12288,note_on,,,,,4,0,4,,,,,0,,,66,100
12380,note_off,,,,,92,0,4,,,,,0,,,66,100
12384,note_on,,,,,4,0,4,,,,,0,,,62,100
12476,note_off,,,,,92,0,4,,,,,0,,,62,100
12480,note_on,,,,,4,0,4,,,,,0,,,66,100
12572,note_off,,,,,92,0,4,,,,,0,,,66,100
12576,note_on,,,,,4,0,4,,,,,0,,,69,100
12668,note_off,,,,,92,0,4,,,,,0,,,69,100
12672,note_on,,,,,448,0,5,,,,,1,,,59,100
12672,note_on,,,,,4,0,4,,,,,0,,,74,100
12752,note_off,,,,,80,0,4,,,,,0,,,74,100
12764,note_off,,,,,92,0,5,,,,,1,,,59,100
12768,note_on,,,,,4,0,5,,,,,1,,,67,100
12860,note_off,,,,,92,0,5,,,,,1,,,67,100
12864,note_on,,,,,4,0,5,,,,,1,,,57,100
12864,note_on,,,,,112,0,4,,,,,0,,,81,100
12944,note_off,,,,,80,0,4,,,,,0,,,81,100
12956,note_off,,,,,92,0,5,,,,,1,,,57,100
12960,note_on,,,,,4,0,5,,,,,1,,,66,100
13052,note_off,,,,,92,0,5,,,,,1,,,66,100
13056,note_on,,,,,112,0,4,,,,,0,,,73,100
13056,note_on,,,,,4,0,5,,,,,1,,,55,100
13136,note_off,,,,,80,0,4,,,,,0,,,73,100
13148,note_off,,,,,92,0,5,,,,,1,,,55,100
13152,note_on,,,,,4,0,5,,,,,1,,,64,100
13244,note_off,,,,,92,0,5,,,,,1,,,64,100
13248,note_on,,,,,112,0,4,,,,,0,,,74,100
13248,note_on,,,,,4,0,5,,,,,1,,,54,100
13340,note_off,,,,,92,0,4,,,,,0,,,74,100
13344,note_on,,,,,4,0,4,,,,,0,,,69,100
13376,note_off,,,,,128,0,5,,,,,1,,,54,100
13436,note_off,,,,,92,0,4,,,,,0,,,69,100
13440,note_on,,,,,4,0,4,,,,,0,,,66,100
13532,note_off,,,,,92,0,4,,,,,0,,,66,100
13536,note_on,,,,,4,0,4,,,,,0,,,62,100
13628,note_off,,,,,92,0,4,,,,,0,,,62,100
13632,note_on,,,,,4,0,4,,,,,0,,,66,100
13724,note_off,,,,,92,0,4,,,,,0,,,66,100
13728,note_on,,,,,4,0,4,,,,,0,,,69,100
13820,note_off,,,,,92,0,4,,,,,0,,,69,100
13824,note_on,,,,,4,0,4,,,,,0,,,74,100
13824,note_on,,,,,448,0,5,,,,,1,,,58,100
13904,note_off,,,,,80,0,4,,,,,0,,,74,100
13916,note_off,,,,,92,0,5,,,,,1,,,58,100
13920,note_on,,,,,4,0,5,,,,,1,,,67,100
14012,note_off,,,,,92,0,5,,,,,1,,,67,100
14016,note_on,,,,,4,0,5,,,,,1,,,57,100
14016,note_on,,,,,112,0,4,,,,,0,,,81,100
14096,note_off,,,,,80,0,4,,,,,0,,,81,100
14108,note_off,,,,,92,0,5,,,,,1,,,57,100
14112,note_on,,,,,4,0,5,,,,,1,,,65,100
14204,note_off,,,,,92,0,5,,,,,1,,,65,100
14208,note_on,,,,,4,0,5,,,,,1,,,55,100
14208,note_on,,,,,112,0,4,,,,,0,,,73,100
14288,note_off,,,,,80,0,4,,,,,0,,,73,100
14300,note_off,,,,,92,0,5,,,,,1,,,55,100
14304,note_on,,,,,4,0,5,,,,,1,,,64,100
14396,note_off,,,,,92,0,5,,,,,1,,,64,100
14400,note_on,,,,,112,0,4,,,,,0,,,74,100
14400,note_on,,,,,4,0,5,,,,,1,,,53,100
14492,note_off,,,,,92,0,4,,,,,0,,,74,100
14496,note_on,,,,,4,0,4,,,,,0,,,69,100
14528,note_off,,,,,128,0,5,,,,,1,,,53,100
14588,note_off,,,,,92,0,4,,,,,0,,,69,100
14592,note_on,,,,,4,0,4,,,,,0,,,65,100
14684,note_off,,,,,92,0,4,,,,,0,,,65,100
14688,note_on,,,,,4,0,4,,,,,0,,,62,100
14780,note_off,,,,,92,0,4,,,,,0,,,62,100
14784,note_on,,,,,4,0,4,,,,,0,,,65,100
14876,note_off,,,,,92,0,4,,,,,0,,,65,100
14880,note_on,,,,,4,0,4,,,,,0,,,69,100
14972,note_off,,,,,92,0,4,,,,,0,,,69,100
14976,note_on,,,,,4,0,4,,,,,0,,,74,100
14976,note_on,,,,,448,0,5,,,,,1,,,58,100
15056,note_off,,,,,80,0,4,,,,,0,,,74,100
15068,note_off,,,,,92,0,5,,,,,1,,,58,100
15072,note_on,,,,,4,0,5,,,,,1,,,67,100
15164,note_off,,,,,92,0,5,,,,,1,,,67,100
15168,note_on,,,,,4,0,5,,,,,1,,,57,100
15168,note_on,,,,,112,0,4,,,,,0,,,81,100
15248,note_off,,,,,80,0,4,,,,,0,,,81,100
15260,note_off,,,,,92,0,5,,,,,1,,,57,100
15264,note_on,,,,,4,0,5,,,,,1,,,65,100
15356,note_off,,,,,92,0,5,,,,,1,,,65,100
15360,note_on,,,,,112,0,4,,,,,0,,,73,100
15360,note_on,,,,,4,0,5,,,,,1,,,55,100
15440,note_off,,,,,80,0,4,,,,,0,,,73,100
15452,note_off,,,,,92,0,5,,,,,1,,,55,100
15456,note_on,,,,,4,0,5,,,,,1,,,64,100
15548,note_off,,,,,92,0,5,,,,,1,,,64,100
15552,note_on,,,,,112,0,4,,,,,0,,,74,100
15552,note_on,,,,,4,0,5,,,,,1,,,53,100
15644,note_off,,,,,92,0,4,,,,,0,,,74,100
15648,note_on,,,,,4,0,4,,,,,0,,,69,100
15680,note_off,,,,,128,0,5,,,,,1,,,53,100
15740,note_off,,,,,92,0,4,,,,,0,,,69,100
15744,note_on,,,,,4,0,4,,,,,0,,,65,100
15836,note_off,,,,,92,0,4,,,,,0,,,65,100
15840,note_on,,,,,4,0,4,,,,,0,,,62,100
15932,note_off,,,,,92,0,4,,,,,0,,,62,100
15936,note_on,,,,,4,0,4,,,,,0,,,65,100
16028,note_off,,,,,92,0,4,,,,,0,,,65,100
16032,note_on,,,,,4,0,4,,,,,0,,,69,100
16124,note_off,,,,,92,0,4,,,,,0,,,69,100
16128,note_on,,,,,448,0,5,,,,,1,,,59,100
16128,note_on,,,,,4,0,4,,,,,0,,,74,100
16208,note_off,,,,,80,0,4,,,,,0,,,74,100
16220,note_off,,,,,92,0,5,,,,,1,,,59,100
16224,note_on,,,,,4,0,5,,,,,1,,,67,100
16316,note_off,,,,,92,0,5,,,,,1,,,67,100
16320,note_on,,,,,112,0,4,,,,,0,,,73,100
16320,note_on,,,,,4,0,5,,,,,1,,,57,100
16400,note_off,,,,,80,0,4,,,,,0,,,73,100
16412,note_off,,,,,92,0,5,,,,,1,,,57,100
16416,note_on,,,,,4,0,5,,,,,1,,,66,100
16508,note_off,,,,,92,0,5,,,,,1,,,66,100
16512,note_on,,,,,112,0,4,,,,,0,,,71,100
16512,note_on,,,,,4,0,5,,,,,1,,,55,100
16592,note_off,,,,,80,0,4,,,,,0,,,71,100
16604,note_off,,,,,92,0,5,,,,,1,,,55,100
16608,note_on,,,,,4,0,5,,,,,1,,,64,100
16700,note_off,,,,,92,0,5,,,,,1,,,64,100
16704,note_on,,,,,112,0,4,,,,,0,,,69,100
16704,note_on,,,,,4,0,5,,,,,1,,,54,100
16784,note_off,,,,,80,0,4,,,,,0,,,69,100
16796,note_off,,,,,92,0,5,,,,,1,,,54,100
16800,note_on,,,,,4,0,5,,,,,1,,,62,100
16892,note_off,,,,,92,0,5,,,,,1,,,62,100
16896,note_on,,,,,4,0,5,,,,,1,,,52,100
16896,note_on,,,,,112,0,4,,,,,0,,,67,100
16976,note_off,,,,,80,0,4,,,,,0,,,67,100
16988,note_off,,,,,92,0,5,,,,,1,,,52,100
16992,note_on,,,,,4,0,5,,,,,1,,,61,100
17084,note_off,,,,,92,0,5,,,,,1,,,61,100
17088,note_on,,,,,4,0,5,,,,,1,,,50,100
17088,note_on,,,,,112,0,4,,,,,0,,,66,100
17168,note_off,,,,,80,0,4,,,,,0,,,66,100
17180,note_off,,,,,92,0,5,,,,,1,,,50,100
17184,note_on,,,,,4,0,5,,,,,1,,,62,100
17276,note_off,,,,,92,0,5,,,,,1,,,62,100
17280,note_on,,,,,4,0,5,,,,,1,,,55,100
17280,note_on,,,,,112,0,4,,,,,0,,,67,100
17372,note_off,,,,,92,0,4,,,,,0,,,67,100
17376,note_on,,,,,4,0,4,,,,,0,,,64,100
17468,note_off,,,,,92,0,4,,,,,0,,,64,100
17468,note_off,,,,,188,0,5,,,,,1,,,55,100
17472,note_on,,,,,4,0,5,,,,,1,,,57,100
17472,note_on,,,,,4,0,4,,,,,0,,,66,100
17552,note_off,,,,,80,0,5,,,,,1,,,57,100
17564,note_off,,,,,92,0,4,,,,,0,,,66,100
17568,note_on,,,,,4,0,4,,,,,0,,,62,100
17660,note_off,,,,,92,0,4,,,,,0,,,62,100
17664,note_on,,,,,4,0,4,,,,,0,,,64,100
17664,note_on,,,,,112,0,5,,,,,1,,,45,100
17744,note_off,,,,,80,0,5,,,,,1,,,45,100
17756,note_off,,,,,92,0,4,,,,,0,,,64,100
17760,note_on,,,,,4,0,4,,,,,0,,,61,100
17852,note_off,,,,,92,0,4,,,,,0,,,61,100
17856,note_on,,,,,4,0,4,,,,,0,,,62,100
17856,note_on,,,,,112,0,5,,,,,1,,,47,100
17936,note_off,,,,,80,0,4,,,,,0,,,62,100
17948,note_off,,,,,92,0,5,,,,,1,,,47,100
17952,note_on,,,,,4,0,5,,,,,1,,,55,100
18044,note_off,,,,,92,0,5,,,,,1,,,55,100
18048,note_on,,,,,4,0,5,,,,,1,,,45,100
18048,note_on,,,,,112,0,4,,,,,0,,,61,100
18128,note_off,,,,,80,0,4,,,,,0,,,61,100
18140,note_off,,,,,92,0,5,,,,,1,,,45,100
18144,note_on,,,,,4,0,5,,,,,1,,,54,100
18236,note_off,,,,,92,0,5,,,,,1,,,54,100
18240,note_on,,,,,4,0,5,,,,,1,,,43,100
18240,note_on,,,,,112,0,4,,,,,0,,,59,100
18320,note_off,,,,,80,0,4,,,,,0,,,59,100
18332,note_off,,,,,92,0,5,,,,,1,,,43,100
18336,note_on,,,,,4,0,5,,,,,1,,,52,100
18428,note_off,,,,,92,0,5,,,,,1,,,52,100
18432,note_on,,,,,4,0,5,,,,,1,,,42,100
18432,note_on,,,,,112,0,4,,,,,0,,,57,100
18524,note_off,,,,,92,0,5,,,,,1,,,42,100
18528,note_on,,,,,4,0,5,,,,,1,,,50,100
18620,note_off,,,,,188,0,4,,,,,0,,,57,100
18620,note_off,,,,,92,0,5,,,,,1,,,50,100
18624,note_on,,,,,4,0,5,,,,,1,,,40,100
18624,note_on,,,,,4,0,4,,,,,0,,,67,100
18704,note_off,,,,,80,0,4,,,,,0,,,67,100
18716,note_off,,,,,92,0,5,,,,,1,,,40,100
18720,note_on,,,,,4,0,5,,,,,1,,,49,100
18812,note_off,,,,,92,0,5,,,,,1,,,49,100
18816,note_on,,,,,4,0,5,,,,,1,,,38,100
18816,note_on,,,,,112,0,4,,,,,0,,,66,100
18896,note_off,,,,,80,0,4,,,,,0,,,66,100
18908,note_off,,,,,92,0,5,,,,,1,,,38,100
18912,note_on,,,,,4,0,5,,,,,1,,,50,100
19004,note_off,,,,,92,0,5,,,,,1,,,50,100
19008,note_on,,,,,4,0,5,,,,,1,,,43,100
19008,note_on,,,,,112,0,4,,,,,0,,,64,100
19088,note_off,,,,,80,0,4,,,,,0,,,64,100
19100,note_off,,,,,92,0,5,,,,,1,,,43,100
19104,note_on,,,,,4,0,5,,,,,1,,,52,100
19196,note_off,,,,,92,0,5,,,,,1,,,52,100
19200,note_on,,,,,112,0,4,,,,,0,,,62,100
19200,note_on,,,,,4,0,5,,,,,1,,,45,100
19292,note_off,,,,,92,0,5,,,,,1,,,45,100
19296,note_on,,,,,4,0,5,,,,,1,,,54,100
19388,note_off,,,,,92,0,5,,,,,1,,,54,100
19392,note_on,,,,,4,0,5,,,,,1,,,52,100
19484,note_off,,,,,284,0,4,,,,,0,,,62,100
19488,note_on,,,,,4,0,4,,,,,0,,,61,100
19492,note_off,,,,,100,0,5,,,,,1,,,52,100
19552,note_off,,,,,64,0,4,,,,,0,,,61,100
19584,note_on,,,,,32,0,4,,,,,0,,,62,100
19584,note_on,,,,,92,0,5,,,,,1,,,38,100
19676,note_off,,,,,92,0,4,,,,,0,,,62,100
19680,note_on,,,,,4,0,4,,,,,0,,,57,100
19772,note_off,,,,,92,0,4,,,,,0,,,57,100
19776,note_on,,,,,4,0,4,,,,,0,,,66,100
19868,note_off,,,,,92,0,4,,,,,0,,,66,100
19872,note_on,,,,,4,0,4,,,,,0,,,62,100
19964,note_off,,,,,92,0,4,,,,,0,,,62,100
19968,note_on,,,,,4,0,4,,,,,0,,,69,100
19968,note_off,,,,,384,0,5,,,,,1,,,38,100
20060,note_off,,,,,92,0,4,,,,,0,,,69,100
20064,note_on,,,,,4,0,4,,,,,0,,,66,100
20156,note_off,,,,,92,0,4,,,,,0,,,66,100
20160,note_on,,,,,4,0,4,,,,,0,,,74,100
20160,note_on,,,,,192,0,5,,,,,1,,,38,100
20252,note_off,,,,,92,0,4,,,,,0,,,74,100
20256,note_on,,,,,4,0,4,,,,,0,,,69,100
20348,note_off,,,,,92,0,4,,,,,0,,,69,100
20352,note_on,,,,,4,0,4,,,,,0,,,78,100
20444,note_off,,,,,92,0,4,,,,,0,,,78,100
20448,note_on,,,,,4,0,4,,,,,0,,,74,100
20540,note_off,,,,,92,0,4,,,,,0,,,74,100
20544,note_off,,,,,384,0,5,,,,,1,,,38,100
20544,note_on,,,,,4,0,4,,,,,0,,,81,100
20636,note_off,,,,,92,0,4,,,,,0,,,81,100
20640,note_on,,,,,4,0,4,,,,,0,,,69,100
20732,note_off,,,,,92,0,4,,,,,0,,,69,100
20736,note_on,,,,,192,0,5,,,,,1,,,38,100
20736,note_on,,,,,4,0,4,,,,,0,,,74,100
21120,note_off,,,,,384,0,4,,,,,0,,,74,100
21120,note_off,,,,,384,0,5,,,,,1,,,38,100
21312,note_on,,,,,192,0,4,,,,,0,,,79,100
21500,note_off,,,,,188,0,4,,,,,0,,,79,100
21504,note_on,,,,,4,0,4,,,,,0,,,67,100
21604,note_off,,,,,100,0,4,,,,,0,,,67,100
21696,note_on,,,,,92,0,4,,,,,0,,,67,100
21796,note_off,,,,,100,0,4,,,,,0,,,67,100
21888,note_on,,,,,92,0,4,,,,,0,,,67,100
21888,note_on,,,,,768,0,5,,,,,1,,,55,100
21932,note_off,,,,,44,0,4,,,,,0,,,67,100
21936,note_on,,,,,4,0,4,,,,,0,,,69,100
21980,note_off,,,,,44,0,4,,,,,0,,,69,100
21984,note_on,,,,,4,0,4,,,,,0,,,67,100
22028,note_off,,,,,44,0,4,,,,,0,,,67,100
22032,note_on,,,,,4,0,4,,,,,0,,,69,100
22076,note_off,,,,,44,0,4,,,,,0,,,69,100
22076,note_off,,,,,188,0,5,,,,,1,,,55,100
22080,note_on,,,,,4,0,5,,,,,1,,,43,100
22080,note_on,,,,,4,0,4,,,,,0,,,67,100
22124,note_off,,,,,44,0,4,,,,,0,,,67,100
22128,note_on,,,,,4,0,4,,,,,0,,,69,100
22172,note_off,,,,,44,0,4,,,,,0,,,69,100
22176,note_on,,,,,4,0,4,,,,,0,,,67,100
22180,note_off,,,,,100,0,5,,,,,1,,,43,100
22220,note_off,,,,,44,0,4,,,,,0,,,67,100
22224,note_on,,,,,4,0,4,,,,,0,,,69,100
22268,note_off,,,,,44,0,4,,,,,0,,,69,100
22272,note_on,,,,,4,0,4,,,,,0,,,67,100
22272,note_on,,,,,92,0,5,,,,,1,,,43,100
22316,note_off,,,,,44,0,4,,,,,0,,,67,100
22320,note_on,,,,,4,0,4,,,,,0,,,69,100
22364,note_off,,,,,44,0,4,,,,,0,,,69,100
22368,note_on,,,,,4,0,4,,,,,0,,,67,100
22372,note_off,,,,,100,0,5,,,,,1,,,43,100
22432,note_off,,,,,64,0,4,,,,,0,,,67,100
22464,note_on,,,,,92,0,5,,,,,1,,,43,100
22464,note_on,,,,,32,0,4,,,,,0,,,67,100
22556,note_off,,,,,92,0,4,,,,,0,,,67,100
22560,note_on,,,,,4,0,4,,,,,0,,,62,100
22652,note_off,,,,,92,0,4,,,,,0,,,62,100
22656,note_on,,,,,4,0,4,,,,,0,,,71,100
22748,note_off,,,,,92,0,4,,,,,0,,,71,100
22752,note_on,,,,,4,0,4,,,,,0,,,67,100
22844,note_off,,,,,92,0,4,,,,,0,,,67,100
22848,note_on,,,,,4,0,4,,,,,0,,,74,100
22848,note_off,,,,,384,0,5,,,,,1,,,43,100
22940,note_off,,,,,92,0,4,,,,,0,,,74,100
22944,note_on,,,,,4,0,4,,,,,0,,,71,100
23036,note_off,,,,,92,0,4,,,,,0,,,71,100
23040,note_on,,,,,4,0,4,,,,,0,,,79,100
23040,note_on,,,,,192,0,5,,,,,1,,,55,100
23132,note_off,,,,,92,0,5,,,,,1,,,55,100
23136,note_on,,,,,4,0,5,,,,,1,,,50,100
23228,note_off,,,,,92,0,5,,,,,1,,,50,100
23232,note_on,,,,,4,0,5,,,,,1,,,59,100
23324,note_off,,,,,92,0,5,,,,,1,,,59,100
23328,note_on,,,,,4,0,5,,,,,1,,,55,100
23420,note_off,,,,,92,0,5,,,,,1,,,55,100
23424,note_off,,,,,384,0,4,,,,,0,,,79,100
23424,note_on,,,,,4,0,5,,,,,1,,,62,100
23516,note_off,,,,,92,0,5,,,,,1,,,62,100
23520,note_on,,,,,4,0,5,,,,,1,,,59,100
23612,note_off,,,,,92,0,5,,,,,1,,,59,100
23616,note_on,,,,,4,0,5,,,,,1,,,67,100
23616,note_on,,,,,192,0,4,,,,,0,,,71,100
23696,note_off,,,,,80,0,4,,,,,0,,,71,100
23696,note_off,,,,,80,0,5,,,,,1,,,67,100
23808,note_on,,,,,112,0,5,,,,,1,,,69,100
23808,note_on,,,,,112,0,4,,,,,0,,,72,100
23888,note_off,,,,,80,0,5,,,,,1,,,69,100
23888,note_off,,,,,80,0,4,,,,,0,,,72,100
24000,note_on,,,,,112,0,5,,,,,1,,,71,100
24000,note_on,,,,,112,0,4,,,,,0,,,74,100
24080,note_off,,,,,80,0,4,,,,,0,,,74,100
24080,note_off,,,,,80,0,5,,,,,1,,,71,100
24192,note_on,,,,,112,0,5,,,,,1,,,69,100
24192,note_on,,,,,112,0,4,,,,,0,,,74,100
24284,note_off,,,,,92,0,4,,,,,0,,,74,100
24288,note_on,,,,,4,0,4,,,,,0,,,72,100
24332,note_off,,,,,44,0,4,,,,,0,,,72,100
24336,note_on,,,,,4,0,4,,,,,0,,,74,100
24380,note_off,,,,,188,0,5,,,,,1,,,69,100
24380,note_off,,,,,44,0,4,,,,,0,,,74,100
24384,note_on,,,,,4,0,5,,,,,1,,,66,100
24384,note_on,,,,,4,0,4,,,,,0,,,72,100
24428,note_off,,,,,44,0,4,,,,,0,,,72,100
24432,note_on,,,,,4,0,4,,,,,0,,,74,100
24476,note_off,,,,,44,0,4,,,,,0,,,74,100
24480,note_on,,,,,4,0,4,,,,,0,,,72,100
24572,note_off,,,,,92,0,4,,,,,0,,,72,100
24572,note_off,,,,,188,0,5,,,,,1,,,66,100
24576,note_on,,,,,4,0,5,,,,,1,,,67,100
24576,note_on,,,,,4,0,4,,,,,0,,,71,100
24704,note_off,,,,,128,0,5,,,,,1,,,67,100
24704,note_off,,,,,128,0,4,,,,,0,,,71,100
24768,note_on,,,,,64,0,4,,,,,0,,,72,100
24768,note_on,,,,,64,0,5,,,,,1,,,60,100
24860,note_off,,,,,92,0,4,,,,,0,,,72,100
24864,note_on,,,,,4,0,4,,,,,0,,,81,100
24956,note_off,,,,,92,0,4,,,,,0,,,81,100
24956,note_off,,,,,188,0,5,,,,,1,,,60,100
24960,note_on,,,,,4,0,4,,,,,0,,,71,100
24960,note_on,,,,,4,0,5,,,,,1,,,62,100
25052,note_off,,,,,92,0,4,,,,,0,,,71,100
25056,note_on,,,,,4,0,4,,,,,0,,,79,100
25148,note_off,,,,,188,0,5,,,,,1,,,62,100
25148,note_off,,,,,92,0,4,,,,,0,,,79,100
25152,note_on,,,,,4,0,5,,,,,1,,,66,100
25152,note_on,,,,,4,0,4,,,,,0,,,69,100
25244,note_off,,,,,92,0,4,,,,,0,,,69,100
25248,note_on,,,,,4,0,4,,,,,0,,,78,100
25340,note_off,,,,,92,0,4,,,,,0,,,78,100
25340,note_off,,,,,188,0,5,,,,,1,,,66,100
25344,note_on,,,,,4,0,4,,,,,0,,,71,100
25344,note_on,,,,,4,0,5,,,,,1,,,67,100
25436,note_off,,,,,92,0,4,,,,,0,,,71,100
25440,note_on,,,,,4,0,4,,,,,0,,,79,100
25532,note_off,,,,,92,0,4,,,,,0,,,79,100
25532,note_off,,,,,188,0,5,,,,,1,,,67,100
25536,note_on,,,,,4,0,4,,,,,0,,,69,100
25536,note_on,,,,,4,0,5,,,,,1,,,62,100
25628,note_off,,,,,92,0,4,,,,,0,,,69,100
25632,note_on,,,,,4,0,4,,,,,0,,,78,100
25724,note_off,,,,,92,0,4,,,,,0,,,78,100
25724,note_off,,,,,188,0,5,,,,,1,,,62,100
25728,note_on,,,,,4,0,4,,,,,0,,,79,100
25728,note_on,,,,,4,0,5,,,,,1,,,55,100
25856,note_off,,,,,128,0,4,,,,,0,,,79,100
25856,note_off,,,,,128,0,5,,,,,1,,,55,100
25920,note_on,,,,,64,0,5,,,,,1,,,67,100
25920,note_on,,,,,64,0,4,,,,,0,,,71,100
26000,note_off,,,,,80,0,4,,,,,0,,,71,100
26000,note_off,,,,,80,0,5,,,,,1,,,67,100
26112,note_on,,,,,112,0,5,,,,,1,,,69,100
26112,note_on,,,,,112,0,4,,,,,0,,,72,100
26192,note_off,,,,,80,0,5,,,,,1,,,69,100
26192,note_off,,,,,80,0,4,,,,,0,,,72,100
26304,note_on,,,,,112,0,5,,,,,1,,,71,100
26304,note_on,,,,,112,0,4,,,,,0,,,74,100
26384,note_off,,,,,80,0,4,,,,,0,,,74,100
26384,note_off,,,,,80,0,5,,,,,1,,,71,100
26496,note_on,,,,,112,0,5,,,,,1,,,69,100
26496,note_on,,,,,112,0,4,,,,,0,,,74,100
26588,note_off,,,,,92,0,4,,,,,0,,,74,100
26592,note_on,,,,,4,0,4,,,,,0,,,72,100
26636,note_off,,,,,44,0,4,,,,,0,,,72,100
26640,note_on,,,,,4,0,4,,,,,0,,,74,100
26684,note_off,,,,,188,0,5,,,,,1,,,69,100
26684,note_off,,,,,44,0,4,,,,,0,,,74,100
26688,note_on,,,,,4,0,5,,,,,1,,,66,100
26688,note_on,,,,,4,0,4,,,,,0,,,72,100
26732,note_off,,,,,44,0,4,,,,,0,,,72,100
26736,note_on,,,,,4,0,4,,,,,0,,,74,100
26780,note_off,,,,,44,0,4,,,,,0,,,74,100
26784,note_on,,,,,4,0,4,,,,,0,,,72,100
26876,note_off,,,,,92,0,4,,,,,0,,,72,100
26876,note_off,,,,,188,0,5,,,,,1,,,66,100
26880,note_on,,,,,4,0,5,,,,,1,,,67,100
26880,note_on,,,,,4,0,4,,,,,0,,,71,100
27008,note_off,,,,,128,0,5,,,,,1,,,67,100
27008,note_off,,,,,128,0,4,,,,,0,,,71,100
27072,set_tempo,,,,,20160,1,0,,571428,,,,,,,
27072,note_on,,,,,64,0,5,,,,,1,,,60,100
27072,note_on,,,,,64,0,4,,,,,0,,,72,100
27164,note_off,,,,,92,0,4,,,,,0,,,72,100
27168,note_on,,,,,4,0,4,,,,,0,,,81,100
27186,set_tempo,,,,,114,1,0,,574162,,,,,,,
27260,note_off,,,,,92,0,4,,,,,0,,,81,100
27260,note_off,,,,,188,0,5,,,,,1,,,60,100
27264,note_on,,,,,4,0,5,,,,,1,,,62,100
27264,note_on,,,,,4,0,4,,,,,0,,,71,100
27302,set_tempo,,,,,116,1,0,,576923,,,,,,,
27356,note_off,,,,,92,0,4,,,,,0,,,71,100
27360,note_on,,,,,4,0,4,,,,,0,,,79,100
27416,set_tempo,,,,,114,1,0,,579710,,,,,,,
27452,note_off,,,,,92,0,4,,,,,0,,,79,100
27452,note_off,,,,,188,0,5,,,,,1,,,62,100
27456,note_on,,,,,4,0,4,,,,,0,,,69,100
27456,note_on,,,,,4,0,5,,,,,1,,,50,100
27532,set_tempo,,,,,116,1,0,,582524,,,,,,,
27548,note_off,,,,,92,0,4,,,,,0,,,69,100
27552,note_on,,,,,4,0,4,,,,,0,,,78,100
27644,note_off,,,,,92,0,4,,,,,0,,,78,100
27644,note_off,,,,,188,0,5,,,,,1,,,50,100
27648,set_tempo,,,,,116,1,0,,585365,,,,,,,
27648,note_on,,,,,4,0,5,,,,,1,,,55,100
27648,note_on,,,,,4,0,4,,,,,0,,,71,100
27740,note_off,,,,,92,0,4,,,,,0,,,71,100
27744,note_on,,,,,4,0,4,,,,,0,,,79,100
27762,set_tempo,,,,,114,1,0,,588235,,,,,,,
27836,note_off,,,,,92,0,4,,,,,0,,,79,100
27836,note_off,,,,,188,0,5,,,,,1,,,55,100
27840,note_on,,,,,4,0,5,,,,,1,,,50,100
27840,note_on,,,,,4,0,4,,,,,0,,,69,100
27878,set_tempo,,,,,116,1,0,,591133,,,,,,,
27932,note_off,,,,,92,0,4,,,,,0,,,69,100
27936,note_on,,,,,4,0,4,,,,,0,,,78,100
27992,set_tempo,,,,,114,1,0,,594059,,,,,,,
28028,note_off,,,,,188,0,5,,,,,1,,,50,100
28028,note_off,,,,,92,0,4,,,,,0,,,78,100
28032,note_on,,,,,4,0,4,,,,,0,,,79,100
28032,note_on,,,,,4,0,5,,,,,1,,,43,100
28108,set_tempo,,,,,116,1,0,,597014,,,,,,,
28160,note_off,,,,,128,0,4,,,,,0,,,79,100
28160,note_off,,,,,128,0,5,,,,,1,,,43,100
28224,note_on,,,,,64,0,5,,,,,1,,,71,100
28224,set_tempo,,,,,116,1,0,,571428,,,,,,,
28224,note_on,,,,,64,0,4,,,,,0,,,79,100
28304,note_off,,,,,80,0,4,,,,,0,,,79,100
28316,note_off,,,,,92,0,5,,,,,1,,,71,100
28320,note_on,,,,,4,0,5,,,,,1,,,74,100
28412,note_off,,,,,92,0,5,,,,,1,,,74,100
28416,note_on,,,,,112,0,4,,,,,0,,,78,100
28416,note_on,,,,,4,0,5,,,,,1,,,69,100
28496,note_off,,,,,80,0,4,,,,,0,,,78,100
28508,note_off,,,,,92,0,5,,,,,1,,,69,100
28512,note_on,,,,,4,0,5,,,,,1,,,74,100
28604,note_off,,,,,92,0,5,,,,,1,,,74,100
28608,note_on,,,,,4,0,5,,,,,1,,,67,100
28608,note_on,,,,,112,0,4,,,,,0,,,76,100
28688,note_off,,,,,80,0,4,,,,,0,,,76,100
28700,note_off,,,,,92,0,5,,,,,1,,,67,100
28704,note_on,,,,,4,0,5,,,,,1,,,73,100
28796,note_off,,,,,92,0,5,,,,,1,,,73,100
28800,note_on,,,,,4,0,5,,,,,1,,,66,100
28800,note_on,,,,,112,0,4,,,,,0,,,81,100
28892,note_off,,,,,92,0,4,,,,,0,,,81,100
28896,note_on,,,,,4,0,4,,,,,0,,,74,100
28928,note_off,,,,,128,0,5,,,,,1,,,66,100
28988,note_off,,,,,92,0,4,,,,,0,,,74,100
28992,note_on,,,,,4,0,4,,,,,0,,,76,100
29084,note_off,,,,,92,0,4,,,,,0,,,76,100
29088,note_on,,,,,4,0,4,,,,,0,,,73,100
29180,note_off,,,,,92,0,4,,,,,0,,,73,100
29184,note_on,,,,,4,0,4,,,,,0,,,74,100
29276,note_off,,,,,92,0,4,,,,,0,,,74,100
29280,note_on,,,,,4,0,4,,,,,0,,,69,100
29372,note_off,,,,,92,0,4,,,,,0,,,69,100
29376,note_on,,,,,4,0,4,,,,,0,,,79,100
29376,note_on,,,,,448,0,5,,,,,1,,,71,100
29456,note_off,,,,,80,0,4,,,,,0,,,79,100
29468,note_off,,,,,92,0,5,,,,,1,,,71,100
29472,note_on,,,,,4,0,5,,,,,1,,,74,100
29564,note_off,,,,,92,0,5,,,,,1,,,74,100
29568,note_on,,,,,112,0,4,,,,,0,,,78,100
29568,note_on,,,,,4,0,5,,,,,1,,,69,100
29648,note_off,,,,,80,0,4,,,,,0,,,78,100
29660,note_off,,,,,92,0,5,,,,,1,,,69,100
29664,note_on,,,,,4,0,5,,,,,1,,,74,100
29756,note_off,,,,,92,0,5,,,,,1,,,74,100
29760,note_on,,,,,112,0,4,,,,,0,,,76,100
29760,note_on,,,,,4,0,5,,,,,1,,,67,100
29840,note_off,,,,,80,0,4,,,,,0,,,76,100
29852,note_off,,,,,92,0,5,,,,,1,,,67,100
29856,note_on,,,,,4,0,5,,,,,1,,,73,100
29948,note_off,,,,,92,0,5,,,,,1,,,73,100
29952,note_on,,,,,4,0,5,,,,,1,,,66,100
29952,note_on,,,,,112,0,4,,,,,0,,,81,100
30044,note_off,,,,,92,0,4,,,,,0,,,81,100
30048,note_on,,,,,4,0,4,,,,,0,,,74,100
30080,note_off,,,,,128,0,5,,,,,1,,,66,100
30140,note_off,,,,,92,0,4,,,,,0,,,74,100
30144,note_on,,,,,4,0,4,,,,,0,,,76,100
30236,note_off,,,,,92,0,4,,,,,0,,,76,100
30240,note_on,,,,,4,0,4,,,,,0,,,73,100
30332,note_off,,,,,92,0,4,,,,,0,,,73,100
30336,note_on,,,,,4,0,4,,,,,0,,,74,100
30428,note_off,,,,,92,0,4,,,,,0,,,74,100
30432,note_on,,,,,4,0,4,,,,,0,,,69,100
30524,note_off,,,,,92,0,4,,,,,0,,,69,100
30528,note_on,,,,,4,0,4,,,,,0,,,74,100
30528,note_on,,,,,448,0,5,,,,,1,,,66,100
30608,note_off,,,,,80,0,4,,,,,0,,,74,100
30620,note_off,,,,,92,0,5,,,,,1,,,66,100
30624,note_on,,,,,4,0,5,,,,,1,,,69,100
30716,note_off,,,,,92,0,5,,,,,1,,,69,100
30720,note_on,,,,,112,0,4,,,,,0,,,73,100
30720,note_on,,,,,4,0,5,,,,,1,,,64,100
30800,note_off,,,,,80,0,4,,,,,0,,,73,100
30812,note_off,,,,,92,0,5,,,,,1,,,64,100
30816,note_on,,,,,4,0,5,,,,,1,,,69,100
30908,note_off,,,,,92,0,5,,,,,1,,,69,100
30912,note_on,,,,,4,0,5,,,,,1,,,62,100
30912,note_on,,,,,112,0,4,,,,,0,,,71,100
30992,note_off,,,,,80,0,4,,,,,0,,,71,100
31004,note_off,,,,,92,0,5,,,,,1,,,62,100
31008,note_on,,,,,4,0,5,,,,,1,,,68,100
31100,note_off,,,,,92,0,5,,,,,1,,,68,100
31104,note_on,,,,,4,0,5,,,,,1,,,61,100
31104,note_on,,,,,112,0,4,,,,,0,,,76,100
31196,note_off,,,,,92,0,4,,,,,0,,,76,100
31200,note_on,,,,,4,0,4,,,,,0,,,69,100
31232,note_off,,,,,128,0,5,,,,,1,,,61,100
31292,note_off,,,,,92,0,4,,,,,0,,,69,100
31296,note_on,,,,,4,0,4,,,,,0,,,71,100
31388,note_off,,,,,92,0,4,,,,,0,,,71,100
31392,note_on,,,,,4,0,4,,,,,0,,,68,100
31484,note_off,,,,,92,0,4,,,,,0,,,68,100
31488,note_on,,,,,4,0,4,,,,,0,,,69,100
31580,note_off,,,,,92,0,4,,,,,0,,,69,100
31584,note_on,,,,,4,0,4,,,,,0,,,64,100
31676,note_off,,,,,92,0,4,,,,,0,,,64,100
31680,note_on,,,,,4,0,4,,,,,0,,,74,100
31680,note_on,,,,,448,0,5,,,,,1,,,66,100
31760,note_off,,,,,80,0,4,,,,,0,,,74,100
31772,note_off,,,,,92,0,5,,,,,1,,,66,100
31776,note_on,,,,,4,0,5,,,,,1,,,69,100
31868,note_off,,,,,92,0,5,,,,,1,,,69,100
31872,note_on,,,,,4,0,5,,,,,1,,,64,100
31872,note_on,,,,,112,0,4,,,,,0,,,73,100
31952,note_off,,,,,80,0,4,,,,,0,,,73,100
31964,note_off,,,,,92,0,5,,,,,1,,,64,100
31968,note_on,,,,,4,0,5,,,,,1,,,69,100
32060,note_off,,,,,92,0,5,,,,,1,,,69,100
32064,note_on,,,,,112,0,4,,,,,0,,,71,100
32064,note_on,,,,,4,0,5,,,,,1,,,62,100
32144,note_off,,,,,80,0,4,,,,,0,,,71,100
32156,note_off,,,,,92,0,5,,,,,1,,,62,100
32160,note_on,,,,,4,0,5,,,,,1,,,68,100
32252,note_off,,,,,92,0,5,,,,,1,,,68,100
32256,note_on,,,,,112,0,4,,,,,0,,,76,100
32256,note_on,,,,,4,0,5,,,,,1,,,61,100
32348,note_off,,,,,92,0,4,,,,,0,,,76,100
32352,note_on,,,,,4,0,4,,,,,0,,,69,100
32384,note_off,,,,,128,0,5,,,,,1,,,61,100
32444,note_off,,,,,92,0,4,,,,,0,,,69,100
32448,note_on,,,,,4,0,4,,,,,0,,,71,100
32540,note_off,,,,,92,0,4,,,,,0,,,71,100
32544,note_on,,,,,4,0,4,,,,,0,,,68,100
32636,note_off,,,,,92,0,4,,,,,0,,,68,100
32640,note_on,,,,,4,0,4,,,,,0,,,69,100
32732,note_off,,,,,92,0,4,,,,,0,,,69,100
32736,note_on,,,,,4,0,4,,,,,0,,,64,100
32828,note_off,,,,,92,0,4,,,,,0,,,64,100
32832,note_on,,,,,448,0,5,,,,,1,,,59,100
32832,note_on,,,,,4,0,4,,,,,0,,,74,100
32912,note_off,,,,,80,0,4,,,,,0,,,74,100
32924,note_off,,,,,92,0,5,,,,,1,,,59,100
32928,note_on,,,,,4,0,5,,,,,1,,,67,100
33020,note_off,,,,,92,0,5,,,,,1,,,67,100
33024,note_on,,,,,112,0,4,,,,,0,,,81,100
33024,note_on,,,,,4,0,5,,,,,1,,,57,100
33104,note_off,,,,,80,0,4,,,,,0,,,81,100
33116,note_off,,,,,92,0,5,,,,,1,,,57,100
33120,note_on,,,,,4,0,5,,,,,1,,,66,100
33212,note_off,,,,,92,0,5,,,,,1,,,66,100
33216,note_on,,,,,112,0,4,,,,,0,,,73,100
33216,note_on,,,,,4,0,5,,,,,1,,,55,100
33296,note_off,,,,,80,0,4,,,,,0,,,73,100
33308,note_off,,,,,92,0,5,,,,,1,,,55,100
33312,note_on,,,,,4,0,5,,,,,1,,,64,100
33404,note_off,,,,,92,0,5,,,,,1,,,64,100
33408,note_on,,,,,112,0,4,,,,,0,,,74,100
33408,note_on,,,,,4,0,5,,,,,1,,,54,100
33500,note_off,,,,,92,0,4,,,,,0,,,74,100
33504,note_on,,,,,4,0,4,,,,,0,,,69,100
33536,note_off,,,,,128,0,5,,,,,1,,,54,100
33596,note_off,,,,,92,0,4,,,,,0,,,69,100
33600,note_on,,,,,4,0,4,,,,,0,,,66,100
33692,note_off,,,,,92,0,4,,,,,0,,,66,100
33696,note_on,,,,,4,0,4,,,,,0,,,62,100
33788,note_off,,,,,92,0,4,,,,,0,,,62,100
33792,note_on,,,,,4,0,4,,,,,0,,,66,100
33884,note_off,,,,,92,0,4,,,,,0,,,66,100
33888,note_on,,,,,4,0,4,,,,,0,,,69,100
33980,note_off,,,,,92,0,4,,,,,0,,,69,100
33984,note_on,,,,,448,0,5,,,,,1,,,59,100
33984,note_on,,,,,4,0,4,,,,,0,,,74,100
34064,note_off,,,,,80,0,4,,,,,0,,,74,100
34076,note_off,,,,,92,0,5,,,,,1,,,59,100
34080,note_on,,,,,4,0,5,,,,,1,,,67,100
34172,note_off,,,,,92,0,5,,,,,1,,,67,100
34176,note_on,,,,,112,0,4,,,,,0,,,81,100
34176,note_on,,,,,4,0,5,,,,,1,,,57,100
34256,note_off,,,,,80,0,4,,,,,0,,,81,100
34268,note_off,,,,,92,0,5,,,,,1,,,57,100
34272,note_on,,,,,4,0,5,,,,,1,,,66,100
34364,note_off,,,,,92,0,5,,,,,1,,,66,100
34368,note_on,,,,,112,0,4,,,,,0,,,73,100
34368,note_on,,,,,4,0,5,,,,,1,,,55,100
34448,note_off,,,,,80,0,4,,,,,0,,,73,100
34460,note_off,,,,,92,0,5,,,,,1,,,55,100
34464,note_on,,,,,4,0,5,,,,,1,,,64,100
34556,note_off,,,,,92,0,5,,,,,1,,,64,100
34560,note_on,,,,,4,0,5,,,,,1,,,54,100
34560,note_on,,,,,112,0,4,,,,,0,,,74,100
34652,note_off,,,,,92,0,4,,,,,0,,,74,100
34656,note_on,,,,,4,0,4,,,,,0,,,69,100
34688,note_off,,,,,128,0,5,,,,,1,,,54,100
34748,note_off,,,,,92,0,4,,,,,0,,,69,100
34752,note_on,,,,,4,0,4,,,,,0,,,66,100
34844,note_off,,,,,92,0,4,,,,,0,,,66,100
34848,note_on,,,,,4,0,4,,,,,0,,,62,100
34940,note_off,,,,,92,0,4,,,,,0,,,62,100
34944,note_on,,,,,4,0,4,,,,,0,,,66,100
35036,note_off,,,,,92,0,4,,,,,0,,,66,100
35040,note_on,,,,,4,0,4,,,,,0,,,69,100
35132,note_off,,,,,92,0,4,,,,,0,,,69,100
35136,note_on,,,,,4,0,4,,,,,0,,,74,100
35136,note_on,,,,,448,0,5,,,,,1,,,58,100
35216,note_off,,,,,80,0,4,,,,,0,,,74,100
35228,note_off,,,,,92,0,5,,,,,1,,,58,100
35232,note_on,,,,,4,0,5,,,,,1,,,67,100
35324,note_off,,,,,92,0,5,,,,,1,,,67,100
35328,note_on,,,,,4,0,5,,,,,1,,,57,100
35328,note_on,,,,,112,0,4,,,,,0,,,81,100
35408,note_off,,,,,80,0,4,,,,,0,,,81,100
35420,note_off,,,,,92,0,5,,,,,1,,,57,100
35424,note_on,,,,,4,0,5,,,,,1,,,65,100
35516,note_off,,,,,92,0,5,,,,,1,,,65,100
35520,note_on,,,,,4,0,5,,,,,1,,,55,100
35520,note_on,,,,,112,0,4,,,,,0,,,73,100
35600,note_off,,,,,80,0,4,,,,,0,,,73,100
35612,note_off,,,,,92,0,5,,,,,1,,,55,100
35616,note_on,,,,,4,0,5,,,,,1,,,64,100
35708,note_off,,,,,92,0,5,,,,,1,,,64,100
35712,note_on,,,,,4,0,5,,,,,1,,,53,100
35712,note_on,,,,,112,0,4,,,,,0,,,74,100
35804,note_off,,,,,92,0,4,,,,,0,,,74,100
35808,note_on,,,,,4,0,4,,,,,0,,,69,100
35840,note_off,,,,,128,0,5,,,,,1,,,53,100
35900,note_off,,,,,92,0,4,,,,,0,,,69,100
35904,note_on,,,,,4,0,4,,,,,0,,,65,100
35996,note_off,,,,,92,0,4,,,,,0,,,65,100
36000,note_on,,,,,4,0,4,,,,,0,,,62,100
36092,note_off,,,,,92,0,4,,,,,0,,,62,100
36096,note_on,,,,,4,0,4,,,,,0,,,65,100
36188,note_off,,,,,92,0,4,,,,,0,,,65,100
36192,note_on,,,,,4,0,4,,,,,0,,,69,100
36284,note_off,,,,,92,0,4,,,,,0,,,69,100
36288,note_on,,,,,4,0,4,,,,,0,,,74,100
36288,note_on,,,,,448,0,5,,,,,1,,,58,100
36368,note_off,,,,,80,0,4,,,,,0,,,74,100
36380,note_off,,,,,92,0,5,,,,,1,,,58,100
36384,note_on,,,,,4,0,5,,,,,1,,,67,100
36476,note_off,,,,,92,0,5,,,,,1,,,67,100
36480,note_on,,,,,4,0,5,,,,,1,,,57,100
36480,note_on,,,,,112,0,4,,,,,0,,,81,100
36560,note_off,,,,,80,0,4,,,,,0,,,81,100
36572,note_off,,,,,92,0,5,,,,,1,,,57,100
36576,note_on,,,,,4,0,5,,,,,1,,,65,100
36668,note_off,,,,,92,0,5,,,,,1,,,65,100
36672,note_on,,,,,112,0,4,,,,,0,,,73,100
36672,note_on,,,,,4,0,5,,,,,1,,,55,100
36752,note_off,,,,,80,0,4,,,,,0,,,73,100
36764,note_off,,,,,92,0,5,,,,,1,,,55,100
36768,note_on,,,,,4,0,5,,,,,1,,,64,100
36860,note_off,,,,,92,0,5,,,,,1,,,64,100
36864,note_on,,,,,4,0,5,,,,,1,,,53,100
36864,note_on,,,,,112,0,4,,,,,0,,,74,100
36956,note_off,,,,,92,0,4,,,,,0,,,74,100
36960,note_on,,,,,4,0,4,,,,,0,,,69,100
36992,note_off,,,,,128,0,5,,,,,1,,,53,100
37052,note_off,,,,,92,0,4,,,,,0,,,69,100
37056,note_on,,,,,4,0,4,,,,,0,,,65,100
37148,note_off,,,,,92,0,4,,,,,0,,,65,100
37152,note_on,,,,,4,0,4,,,,,0,,,62,100
37244,note_off,,,,,92,0,4,,,,,0,,,62,100
37248,note_on,,,,,4,0,4,,,,,0,,,65,100
37340,note_off,,,,,92,0,4,,,,,0,,,65,100
37344,note_on,,,,,4,0,4,,,,,0,,,69,100
37436,note_off,,,,,92,0,4,,,,,0,,,69,100
37440,note_on,,,,,4,0,4,,,,,0,,,74,100
37440,note_on,,,,,448,0,5,,,,,1,,,59,100
37520,note_off,,,,,80,0,4,,,,,0,,,74,100
37532,note_off,,,,,92,0,5,,,,,1,,,59,100
37536,note_on,,,,,4,0,5,,,,,1,,,67,100
37628,note_off,,,,,92,0,5,,,,,1,,,67,100
37632,note_on,,,,,112,0,4,,,,,0,,,73,100
37632,note_on,,,,,4,0,5,,,,,1,,,57,100
37712,note_off,,,,,80,0,4,,,,,0,,,73,100
37724,note_off,,,,,92,0,5,,,,,1,,,57,100
37728,note_on,,,,,4,0,5,,,,,1,,,66,100
37820,note_off,,,,,92,0,5,,,,,1,,,66,100
37824,note_on,,,,,4,0,5,,,,,1,,,55,100
37824,note_on,,,,,112,0,4,,,,,0,,,71,100
37904,note_off,,,,,80,0,4,,,,,0,,,71,100
37916,note_off,,,,,92,0,5,,,,,1,,,55,100
37920,note_on,,,,,4,0,5,,,,,1,,,64,100
38012,note_off,,,,,92,0,5,,,,,1,,,64,100
38016,note_on,,,,,4,0,5,,,,,1,,,54,100
38016,note_on,,,,,112,0,4,,,,,0,,,69,100
38096,note_off,,,,,80,0,4,,,,,0,,,69,100
38108,note_off,,,,,92,0,5,,,,,1,,,54,100
38112,note_on,,,,,4,0,5,,,,,1,,,62,100
38204,note_off,,,,,92,0,5,,,,,1,,,62,100
38208,note_on,,,,,112,0,4,,,,,0,,,67,100
38208,note_on,,,,,4,0,5,,,,,1,,,52,100
38288,note_off,,,,,80,0,4,,,,,0,,,67,100
38300,note_off,,,,,92,0,5,,,,,1,,,52,100
38304,note_on,,,,,4,0,5,,,,,1,,,61,100
38396,note_off,,,,,92,0,5,,,,,1,,,61,100
38400,note_on,,,,,4,0,5,,,,,1,,,50,100
38400,note_on,,,,,112,0,4,,,,,0,,,66,100
38480,note_off,,,,,80,0,4,,,,,0,,,66,100
38492,note_off,,,,,92,0,5,,,,,1,,,50,100
38496,note_on,,,,,4,0,5,,,,,1,,,62,100
38588,note_off,,,,,92,0,5,,,,,1,,,62,100
38592,note_on,,,,,4,0,5,,,,,1,,,55,100
38592,note_on,,,,,112,0,4,,,,,0,,,67,100
38684,note_off,,,,,92,0,4,,,,,0,,,67,100
38688,note_on,,,,,4,0,4,,,,,0,,,64,100
38780,note_off,,,,,188,0,5,,,,,1,,,55,100
38780,note_off,,,,,92,0,4,,,,,0,,,64,100
38784,note_on,,,,,4,0,4,,,,,0,,,66,100
38784,note_on,,,,,4,0,5,,,,,1,,,57,100
38864,note_off,,,,,80,0,5,,,,,1,,,57,100
38876,note_off,,,,,92,0,4,,,,,0,,,66,100
38880,note_on,,,,,4,0,4,,,,,0,,,62,100
38972,note_off,,,,,92,0,4,,,,,0,,,62,100
38976,note_on,,,,,4,0,4,,,,,0,,,64,100
38976,note_on,,,,,112,0,5,,,,,1,,,45,100
39056,note_off,,,,,80,0,5,,,,,1,,,45,100
39068,note_off,,,,,92,0,4,,,,,0,,,64,100
39072,note_on,,,,,4,0,4,,,,,0,,,61,100
39164,note_off,,,,,92,0,4,,,,,0,,,61,100
39168,note_on,,,,,112,0,5,,,,,1,,,47,100
39168,note_on,,,,,4,0,4,,,,,0,,,62,100
39248,note_off,,,,,80,0,4,,,,,0,,,62,100
39260,note_off,,,,,92,0,5,,,,,1,,,47,100
39264,note_on,,,,,4,0,5,,,,,1,,,55,100
39356,note_off,,,,,92,0,5,,,,,1,,,55,100
39360,note_on,,,,,112,0,4,,,,,0,,,61,100
39360,note_on,,,,,4,0,5,,,,,1,,,45,100
39440,note_off,,,,,80,0,4,,,,,0,,,61,100
39452,note_off,,,,,92,0,5,,,,,1,,,45,100
39456,note_on,,,,,4,0,5,,,,,1,,,54,100
39548,note_off,,,,,92,0,5,,,,,1,,,54,100
39552,note_on,,,,,4,0,5,,,,,1,,,43,100
39552,note_on,,,,,112,0,4,,,,,0,,,59,100
39632,note_off,,,,,80,0,4,,,,,0,,,59,100
39644,note_off,,,,,92,0,5,,,,,1,,,43,100
39648,note_on,,,,,4,0,5,,,,,1,,,52,100
39740,note_off,,,,,92,0,5,,,,,1,,,52,100
39744,note_on,,,,,112,0,4,,,,,0,,,57,100
39744,note_on,,,,,4,0,5,,,,,1,,,42,100
39836,note_off,,,,,92,0,5,,,,,1,,,42,100
39840,note_on,,,,,4,0,5,,,,,1,,,50,100
39932,note_off,,,,,188,0,4,,,,,0,,,57,100
39932,note_off,,,,,92,0,5,,,,,1,,,50,100
39936,note_on,,,,,4,0,4,,,,,0,,,67,100
39936,note_on,,,,,4,0,5,,,,,1,,,40,100
40016,note_off,,,,,80,0,4,,,,,0,,,67,100
40028,note_off,,,,,92,0,5,,,,,1,,,40,100
40032,note_on,,,,,4,0,5,,,,,1,,,49,100
40124,note_off,,,,,92,0,5,,,,,1,,,49,100
40128,note_on,,,,,4,0,5,,,,,1,,,38,100
40128,note_on,,,,,112,0,4,,,,,0,,,66,100
40208,note_off,,,,,80,0,4,,,,,0,,,66,100
40220,note_off,,,,,92,0,5,,,,,1,,,38,100
40224,note_on,,,,,4,0,5,,,,,1,,,50,100
40316,note_off,,,,,92,0,5,,,,,1,,,50,100
40320,note_on,,,,,4,0,5,,,,,1,,,43,100
40320,note_on,,,,,112,0,4,,,,,0,,,64,100
40400,note_off,,,,,80,0,4,,,,,0,,,64,100
40412,note_off,,,,,92,0,5,,,,,1,,,43,100
40416,note_on,,,,,4,0,5,,,,,1,,,52,100
40508,note_off,,,,,92,0,5,,,,,1,,,52,100
40512,note_on,,,,,4,0,5,,,,,1,,,45,100
40512,note_on,,,,,112,0,4,,,,,0,,,62,100
40604,note_off,,,,,92,0,5,,,,,1,,,45,100
40608,note_on,,,,,4,0,5,,,,,1,,,54,100
40700,note_off,,,,,92,0,5,,,,,1,,,54,100
40704,note_on,,,,,4,0,5,,,,,1,,,52,100
40796,note_off,,,,,284,0,4,,,,,0,,,62,100
40800,note_on,,,,,4,0,4,,,,,0,,,61,100
40804,note_off,,,,,100,0,5,,,,,1,,,52,100
40864,note_off,,,,,64,0,4,,,,,0,,,61,100
40896,note_on,,,,,92,0,5,,,,,1,,,38,100
40896,note_on,,,,,32,0,4,,,,,0,,,62,100
40988,note_off,,,,,92,0,4,,,,,0,,,62,100
40992,note_on,,,,,4,0,4,,,,,0,,,57,100
41084,note_off,,,,,92,0,4,,,,,0,,,57,100
41088,note_on,,,,,4,0,4,,,,,0,,,66,100
41180,note_off,,,,,92,0,4,,,,,0,,,66,100
41184,note_on,,,,,4,0,4,,,,,0,,,62,100
41276,note_off,,,,,92,0,4,,,,,0,,,62,100
41280,note_on,,,,,4,0,4,,,,,0,,,69,100
41280,note_off,,,,,384,0,5,,,,,1,,,38,100
41372,note_off,,,,,92,0,4,,,,,0,,,69,100
41376,note_on,,,,,4,0,4,,,,,0,,,66,100
41468,note_off,,,,,92,0,4,,,,,0,,,66,100
41472,note_on,,,,,4,0,4,,,,,0,,,74,100
41472,note_on,,,,,192,0,5,,,,,1,,,38,100
41564,note_off,,,,,92,0,4,,,,,0,,,74,100
41568,note_on,,,,,4,0,4,,,,,0,,,69,100
41660,note_off,,,,,92,0,4,,,,,0,,,69,100
41664,note_on,,,,,4,0,4,,,,,0,,,78,100
41756,note_off,,,,,92,0,4,,,,,0,,,78,100
41760,note_on,,,,,4,0,4,,,,,0,,,74,100
41852,note_off,,,,,92,0,4,,,,,0,,,74,100
41856,note_on,,,,,4,0,4,,,,,0,,,81,100
41856,note_off,,,,,384,0,5,,,,,1,,,38,100
41948,note_off,,,,,92,0,4,,,,,0,,,81,100
41952,note_on,,,,,4,0,4,,,,,0,,,69,100
42044,note_off,,,,,92,0,4,,,,,0,,,69,100
42048,note_on,,,,,4,0,4,,,,,0,,,74,100
42048,note_on,,,,,192,0,5,,,,,1,,,38,100
42432,note_off,,,,,384,0,4,,,,,0,,,74,100
42432,note_off,,,,,384,0,5,,,,,1,,,38,100
42624,note_on,,,,,192,0,4,,,,,0,,,74,100
42812,note_off,,,,,188,0,4,,,,,0,,,74,100
42816,note_on,,,,,4,0,4,,,,,0,,,62,100
42916,note_off,,,,,100,0,4,,,,,0,,,62,100
43008,note_on,,,,,92,0,4,,,,,0,,,62,100
43108,note_off,,,,,100,0,4,,,,,0,,,62,100
43200,note_on,,,,,768,0,5,,,,,1,,,50,100
43200,note_on,,,,,92,0,4,,,,,0,,,62,100
43244,note_off,,,,,44,0,4,,,,,0,,,62,100
43248,note_on,,,,,4,0,4,,,,,0,,,64,100
43292,note_off,,,,,44,0,4,,,,,0,,,64,100
43296,note_on,,,,,4,0,4,,,,,0,,,62,100
43340,note_off,,,,,44,0,4,,,,,0,,,62,100
43344,note_on,,,,,4,0,4,,,,,0,,,64,100
43388,note_off,,,,,44,0,4,,,,,0,,,64,100
43388,note_off,,,,,188,0,5,,,,,1,,,50,100
43392,note_on,,,,,4,0,5,,,,,1,,,38,100
43392,note_on,,,,,4,0,4,,,,,0,,,62,100
43436,note_off,,,,,44,0,4,,,,,0,,,62,100
43440,note_on,,,,,4,0,4,,,,,0,,,64,100
43484,note_off,,,,,44,0,4,,,,,0,,,64,100
43488,note_on,,,,,4,0,4,,,,,0,,,62,100
43492,note_off,,,,,100,0,5,,,,,1,,,38,100
43532,note_off,,,,,44,0,4,,,,,0,,,62,100
43536,note_on,,,,,4,0,4,,,,,0,,,64,100
43580,note_off,,,,,44,0,4,,,,,0,,,64,100
43584,note_on,,,,,4,0,4,,,,,0,,,62,100
43584,note_on,,,,,92,0,5,,,,,1,,,38,100
43628,note_off,,,,,44,0,4,,,,,0,,,62,100
43632,note_on,,,,,4,0,4,,,,,0,,,64,100
43676,note_off,,,,,44,0,4,,,,,0,,,64,100
43680,note_on,,,,,4,0,4,,,,,0,,,62,100
43684,note_off,,,,,100,0,5,,,,,1,,,38,100
43744,note_off,,,,,64,0,4,,,,,0,,,62,100
43776,note_on,,,,,92,0,5,,,,,1,,,38,100
43776,note_on,,,,,32,0,4,,,,,0,,,62,100
43868,note_off,,,,,92,0,4,,,,,0,,,62,100
43872,note_on,,,,,4,0,4,,,,,0,,,57,100
43964,note_off,,,,,92,0,4,,,,,0,,,57,100
43968,note_on,,,,,4,0,4,,,,,0,,,66,100
44060,note_off,,,,,92,0,4,,,,,0,,,66,100
44064,note_on,,,,,4,0,4,,,,,0,,,62,100
44156,note_off,,,,,92,0,4,,,,,0,,,62,100
44160,note_off,,,,,384,0,5,,,,,1,,,38,100
44160,note_on,,,,,4,0,4,,,,,0,,,69,100
44252,note_off,,,,,92,0,4,,,,,0,,,69,100
44256,note_on,,,,,4,0,4,,,,,0,,,66,100
44348,note_off,,,,,92,0,4,,,,,0,,,66,100
44352,note_on,,,,,4,0,4,,,,,0,,,74,100
44352,note_on,,,,,192,0,5,,,,,1,,,50,100
44444,note_off,,,,,92,0,5,,,,,1,,,50,100
44448,note_on,,,,,4,0,5,,,,,1,,,45,100
44540,note_off,,,,,92,0,5,,,,,1,,,45,100
44544,note_on,,,,,4,0,5,,,,,1,,,54,100
44636,note_off,,,,,92,0,5,,,,,1,,,54,100
44640,note_on,,,,,4,0,5,,,,,1,,,50,100
44732,note_off,,,,,92,0,5,,,,,1,,,50,100
44736,note_off,,,,,384,0,4,,,,,0,,,74,100
44736,note_on,,,,,4,0,5,,,,,1,,,57,100
44828,note_off,,,,,92,0,5,,,,,1,,,57,100
44832,note_on,,,,,4,0,5,,,,,1,,,54,100
44924,note_off,,,,,92,0,5,,,,,1,,,54,100
44928,note_on,,,,,4,0,5,,,,,1,,,62,100
44928,note_on,,,,,192,0,4,,,,,0,,,66,100
45008,note_off,,,,,80,0,4,,,,,0,,,66,100
45008,note_off,,,,,80,0,5,,,,,1,,,62,100
45120,note_on,,,,,112,0,5,,,,,1,,,64,100
45120,note_on,,,,,112,0,4,,,,,0,,,67,100
45200,note_off,,,,,80,0,4,,,,,0,,,67,100
45200,note_off,,,,,80,0,5,,,,,1,,,64,100
45312,note_on,,,,,112,0,5,,,,,1,,,66,100
45312,note_on,,,,,112,0,4,,,,,0,,,69,100
45392,note_off,,,,,80,0,4,,,,,0,,,69,100
45392,note_off,,,,,80,0,5,,,,,1,,,66,100
45504,note_on,,,,,112,0,5,,,,,1,,,64,100
45504,note_on,,,,,112,0,4,,,,,0,,,69,100
45596,note_off,,,,,92,0,4,,,,,0,,,69,100
45600,note_on,,,,,4,0,4,,,,,0,,,67,100
45644,note_off,,,,,44,0,4,,,,,0,,,67,100
45648,note_on,,,,,4,0,4,,,,,0,,,69,100
45692,note_off,,,,,188,0,5,,,,,1,,,64,100
45692,note_off,,,,,44,0,4,,,,,0,,,69,100
45696,note_on,,,,,4,0,5,,,,,1,,,61,100
45696,note_on,,,,,4,0,4,,,,,0,,,67,100
45740,note_off,,,,,44,0,4,,,,,0,,,67,100
45744,note_on,,,,,4,0,4,,,,,0,,,69,100
45788,note_off,,,,,44,0,4,,,,,0,,,69,100
45792,note_on,,,,,4,0,4,,,,,0,,,67,100
45884,note_off,,,,,188,0,5,,,,,1,,,61,100
45884,note_off,,,,,92,0,4,,,,,0,,,67,100
45888,note_on,,,,,4,0,5,,,,,1,,,62,100
45888,note_on,,,,,4,0,4,,,,,0,,,66,100
46016,note_off,,,,,128,0,5,,,,,1,,,62,100
46016,note_off,,,,,128,0,4,,,,,0,,,66,100
46080,note_on,,,,,64,0,4,,,,,0,,,67,100
46080,note_on,,,,,64,0,5,,,,,1,,,55,100
46172,note_off,,,,,92,0,4,,,,,0,,,67,100
46176,note_on,,,,,4,0,4,,,,,0,,,76,100
46268,note_off,,,,,188,0,5,,,,,1,,,55,100
46268,note_off,,,,,92,0,4,,,,,0,,,76,100
46272,note_on,,,,,4,0,4,,,,,0,,,66,100
46272,note_on,,,,,4,0,5,,,,,1,,,57,100
46364,note_off,,,,,92,0,4,,,,,0,,,66,100
46368,note_on,,,,,4,0,4,,,,,0,,,74,100
46460,note_off,,,,,92,0,4,,,,,0,,,74,100
46460,note_off,,,,,188,0,5,,,,,1,,,57,100
46464,note_on,,,,,4,0,4,,,,,0,,,64,100
46464,note_on,,,,,4,0,5,,,,,1,,,61,100
46556,note_off,,,,,92,0,4,,,,,0,,,64,100
46560,note_on,,,,,4,0,4,,,,,0,,,73,100
46652,note_off,,,,,92,0,4,,,,,0,,,73,100
46652,note_off,,,,,188,0,5,,,,,1,,,61,100
46656,note_on,,,,,4,0,4,,,,,0,,,66,100
46656,note_on,,,,,4,0,5,,,,,1,,,62,100
46748,note_off,,,,,92,0,4,,,,,0,,,66,100
46752,note_on,,,,,4,0,4,,,,,0,,,74,100
46844,note_off,,,,,188,0,5,,,,,1,,,62,100
46844,note_off,,,,,92,0,4,,,,,0,,,74,100
46848,note_on,,,,,4,0,5,,,,,1,,,57,100
46848,note_on,,,,,4,0,4,,,,,0,,,64,100
46940,note_off,,,,,92,0,4,,,,,0,,,64,100
46944,note_on,,,,,4,0,4,,,,,0,,,73,100
47036,note_off,,,,,188,0,5,,,,,1,,,57,100
47036,note_off,,,,,92,0,4,,,,,0,,,73,100
47040,note_on,,,,,4,0,5,,,,,1,,,50,100
47040,note_on,,,,,4,0,4,,,,,0,,,74,100
47168,note_off,,,,,128,0,4,,,,,0,,,74,100
47168,note_off,,,,,128,0,5,,,,,1,,,50,100
47232,note_on,,,,,64,0,5,,,,,1,,,62,100
47232,note_on,,,,,64,0,4,,,,,0,,,66,100
47312,note_off,,,,,80,0,4,,,,,0,,,66,100
47312,note_off,,,,,80,0,5,,,,,1,,,62,100
47424,note_on,,,,,112,0,5,,,,,1,,,64,100
47424,note_on,,,,,112,0,4,,,,,0,,,67,100
47504,note_off,,,,,80,0,5,,,,,1,,,64,100
47504,note_off,,,,,80,0,4,,,,,0,,,67,100
47616,note_on,,,,,112,0,5,,,,,1,,,66,100
47616,note_on,,,,,112,0,4,,,,,0,,,69,100
47696,note_off,,,,,80,0,4,,,,,0,,,69,100
47696,note_off,,,,,80,0,5,,,,,1,,,66,100
47808,note_on,,,,,112,0,4,,,,,0,,,69,100
47808,note_on,,,,,112,0,5,,,,,1,,,64,100
47900,note_off,,,,,92,0,4,,,,,0,,,69,100
47904,note_on,,,,,4,0,4,,,,,0,,,67,100
47948,note_off,,,,,44,0,4,,,,,0,,,67,100
47952,note_on,,,,,4,0,4,,,,,0,,,69,100
47996,note_off,,,,,188,0,5,,,,,1,,,64,100
47996,note_off,,,,,44,0,4,,,,,0,,,69,100
48000,note_on,,,,,4,0,5,,,,,1,,,61,100
48000,note_on,,,,,4,0,4,,,,,0,,,67,100
48044,note_off,,,,,44,0,4,,,,,0,,,67,100
48048,note_on,,,,,4,0,4,,,,,0,,,69,100
48092,note_off,,,,,44,0,4,,,,,0,,,69,100
48096,note_on,,,,,4,0,4,,,,,0,,,67,100
48188,note_off,,,,,188,0,5,,,,,1,,,61,100
48188,note_off,,,,,92,0,4,,,,,0,,,67,100
48192,note_on,,,,,4,0,5,,,,,1,,,62,100
48192,note_on,,,,,4,0,4,,,,,0,,,66,100
48320,note_off,,,,,128,0,5,,,,,1,,,62,100
48320,note_off,,,,,128,0,4,,,,,0,,,66,100
48384,note_on,,,,,64,0,4,,,,,0,,,67,100
48384,note_on,,,,,64,0,5,,,,,1,,,55,100
48384,set_tempo,,,,,20160,1,0,,571428,,,,,,,
48476,note_off,,,,,92,0,4,,,,,0,,,67,100
48480,note_on,,,,,4,0,4,,,,,0,,,76,100
48498,set_tempo,,,,,114,1,0,,574162,,,,,,,
48572,note_off,,,,,92,0,4,,,,,0,,,76,100
48572,note_off,,,,,188,0,5,,,,,1,,,55,100
48576,note_on,,,,,4,0,4,,,,,0,,,66,100
48576,note_on,,,,,4,0,5,,,,,1,,,57,100
48614,set_tempo,,,,,116,1,0,,576923,,,,,,,
48668,note_off,,,,,92,0,4,,,,,0,,,66,100
48672,note_on,,,,,4,0,4,,,,,0,,,74,100
48728,set_tempo,,,,,114,1,0,,579710,,,,,,,
48764,note_off,,,,,188,0,5,,,,,1,,,57,100
48764,note_off,,,,,92,0,4,,,,,0,,,74,100
48768,note_on,,,,,4,0,4,,,,,0,,,64,100
48768,note_on,,,,,4,0,5,,,,,1,,,45,100
48844,set_tempo,,,,,116,1,0,,582524,,,,,,,
48860,note_off,,,,,92,0,4,,,,,0,,,64,100
48864,note_on,,,,,4,0,4,,,,,0,,,73,100
48956,note_off,,,,,188,0,5,,,,,1,,,45,100
48956,note_off,,,,,92,0,4,,,,,0,,,73,100
48960,note_on,,,,,4,0,4,,,,,0,,,66,100
48960,note_on,,,,,4,0,5,,,,,1,,,50,100
48960,set_tempo,,,,,116,1,0,,585365,,,,,,,
49052,note_off,,,,,92,0,4,,,,,0,,,66,100
49056,note_on,,,,,4,0,4,,,,,0,,,74,100
49074,set_tempo,,,,,114,1,0,,588235,,,,,,,
49148,note_off,,,,,188,0,5,,,,,1,,,50,100
49148,note_off,,,,,92,0,4,,,,,0,,,74,100
49152,note_on,,,,,4,0,4,,,,,0,,,64,100
49152,note_on,,,,,4,0,5,,,,,1,,,45,100
49190,set_tempo,,,,,116,1,0,,591133,,,,,,,
49244,note_off,,,,,92,0,4,,,,,0,,,64,100
49248,note_on,,,,,4,0,4,,,,,0,,,73,100
49304,set_tempo,,,,,114,1,0,,594059,,,,,,,
49340,note_off,,,,,92,0,4,,,,,0,,,73,100
49340,note_off,,,,,188,0,5,,,,,1,,,45,100
49344,note_on,,,,,4,0,5,,,,,1,,,38,100
49344,note_on,,,,,4,0,4,,,,,0,,,74,100
49420,set_tempo,,,,,116,1,0,,597014,,,,,,,
49472,note_off,,,,,128,0,4,,,,,0,,,74,100
49472,note_off,,,,,128,0,5,,,,,1,,,38,100
49536,note_on,,,,,64,0,5,,,,,1,,,65,100
49536,note_on,,,,,64,0,4,,,,,0,,,74,100
49536,set_tempo,,,,,116,1,0,,571428,,,,,,,
49616,note_off,,,,,80,0,4,,,,,0,,,74,100
49628,note_off,,,,,92,0,5,,,,,1,,,65,100
49632,note_on,,,,,4,0,5,,,,,1,,,69,100
49724,note_off,,,,,92,0,5,,,,,1,,,69,100
49728,note_on,,,,,4,0,5,,,,,1,,,64,100
49728,note_on,,,,,112,0,4,,,,,0,,,72,100
49808,note_off,,,,,80,0,4,,,,,0,,,72,100
49820,note_off,,,,,92,0,5,,,,,1,,,64,100
49824,note_on,,,,,4,0,5,,,,,1,,,69,100
49916,note_off,,,,,92,0,5,,,,,1,,,69,100
49920,note_on,,,,,112,0,4,,,,,0,,,71,100
49920,note_on,,,,,4,0,5,,,,,1,,,62,100
50000,note_off,,,,,80,0,4,,,,,0,,,71,100
50012,note_off,,,,,92,0,5,,,,,1,,,62,100
50016,note_on,,,,,4,0,5,,,,,1,,,68,100
50108,note_off,,,,,92,0,5,,,,,1,,,68,100
50112,note_on,,,,,4,0,5,,,,,1,,,60,100
50112,note_on,,,,,112,0,4,,,,,0,,,76,100
50204,note_off,,,,,92,0,4,,,,,0,,,76,100
50208,note_on,,,,,4,0,4,,,,,0,,,69,100
50240,note_off,,,,,128,0,5,,,,,1,,,60,100
50300,note_off,,,,,92,0,4,,,,,0,,,69,100
50304,note_on,,,,,4,0,4,,,,,0,,,71,100
50396,note_off,,,,,92,0,4,,,,,0,,,71,100
50400,note_on,,,,,4,0,4,,,,,0,,,68,100
50492,note_off,,,,,92,0,4,,,,,0,,,68,100
50496,note_on,,,,,4,0,4,,,,,0,,,69,100
50588,note_off,,,,,92,0,4,,,,,0,,,69,100
50592,note_on,,,,,4,0,4,,,,,0,,,64,100
50684,note_off,,,,,92,0,4,,,,,0,,,64,100
50688,note_on,,,,,448,0,5,,,,,1,,,65,100
50688,note_on,,,,,4,0,4,,,,,0,,,74,100
50768,note_off,,,,,80,0,4,,,,,0,,,74,100
50780,note_off,,,,,92,0,5,,,,,1,,,65,100
50784,note_on,,,,,4,0,5,,,,,1,,,69,100
50876,note_off,,,,,92,0,5,,,,,1,,,69,100
50880,note_on,,,,,4,0,5,,,,,1,,,64,100
50880,note_on,,,,,112,0,4,,,,,0,,,72,100
50960,note_off,,,,,80,0,4,,,,,0,,,72,100
50972,note_off,,,,,92,0,5,,,,,1,,,64,100
50976,note_on,,,,,4,0,5,,,,,1,,,69,100
51068,note_off,,,,,92,0,5,,,,,1,,,69,100
51072,note_on,,,,,112,0,4,,,,,0,,,71,100
51072,note_on,,,,,4,0,5,,,,,1,,,62,100
51152,note_off,,,,,80,0,4,,,,,0,,,71,100
51164,note_off,,,,,92,0,5,,,,,1,,,62,100
51168,note_on,,,,,4,0,5,,,,,1,,,68,100
51260,note_off,,,,,92,0,5,,,,,1,,,68,100
51264,note_on,,,,,4,0,5,,,,,1,,,60,100
51264,note_on,,,,,112,0,4,,,,,0,,,76,100
51356,note_off,,,,,92,0,4,,,,,0,,,76,100
51360,note_on,,,,,4,0,4,,,,,0,,,69,100
51392,note_off,,,,,128,0,5,,,,,1,,,60,100
51452,note_off,,,,,92,0,4,,,,,0,,,69,100
51456,note_on,,,,,4,0,4,,,,,0,,,71,100
51548,note_off,,,,,92,0,4,,,,,0,,,71,100
51552,note_on,,,,,4,0,4,,,,,0,,,68,100
51644,note_off,,,,,92,0,4,,,,,0,,,68,100
51648,note_on,,,,,4,0,4,,,,,0,,,69,100
51740,note_off,,,,,92,0,4,,,,,0,,,69,100
51744,note_on,,,,,4,0,4,,,,,0,,,64,100
51836,note_off,,,,,92,0,4,,,,,0,,,64,100
51840,note_on,,,,,448,0,5,,,,,1,,,64,100
51840,note_on,,,,,4,0,4,,,,,0,,,72,100
51920,note_off,,,,,80,0,4,,,,,0,,,72,100
51932,note_off,,,,,92,0,5,,,,,1,,,64,100
51936,note_on,,,,,4,0,5,,,,,1,,,67,100
52028,note_off,,,,,92,0,5,,,,,1,,,67,100
52032,note_on,,,,,4,0,5,,,,,1,,,62,100
52032,note_on,,,,,112,0,4,,,,,0,,,71,100
52112,note_off,,,,,80,0,4,,,,,0,,,71,100
52124,note_off,,,,,92,0,5,,,,,1,,,62,100
52128,note_on,,,,,4,0,5,,,,,1,,,67,100
52220,note_off,,,,,92,0,5,,,,,1,,,67,100
52224,note_on,,,,,4,0,5,,,,,1,,,60,100
52224,note_on,,,,,112,0,4,,,,,0,,,69,100
52304,note_off,,,,,80,0,4,,,,,0,,,69,100
52316,note_off,,,,,92,0,5,,,,,1,,,60,100
52320,note_on,,,,,4,0,5,,,,,1,,,66,100
52412,note_off,,,,,92,0,5,,,,,1,,,66,100
52416,note_on,,,,,4,0,5,,,,,1,,,59,100
52416,note_on,,,,,112,0,4,,,,,0,,,74,100
52508,note_off,,,,,92,0,4,,,,,0,,,74,100
52512,note_on,,,,,4,0,4,,,,,0,,,67,100
52544,note_off,,,,,128,0,5,,,,,1,,,59,100
52604,note_off,,,,,92,0,4,,,,,0,,,67,100
52608,note_on,,,,,4,0,4,,,,,0,,,69,100
52700,note_off,,,,,92,0,4,,,,,0,,,69,100
52704,note_on,,,,,4,0,4,,,,,0,,,66,100
52796,note_off,,,,,92,0,4,,,,,0,,,66,100
52800,note_on,,,,,4,0,4,,,,,0,,,67,100
52892,note_off,,,,,92,0,4,,,,,0,,,67,100
52896,note_on,,,,,4,0,4,,,,,0,,,62,100
52988,note_off,,,,,92,0,4,,,,,0,,,62,100
52992,note_on,,,,,448,0,5,,,,,1,,,64,100
52992,note_on,,,,,4,0,4,,,,,0,,,72,100
53072,note_off,,,,,80,0,4,,,,,0,,,72,100
53084,note_off,,,,,92,0,5,,,,,1,,,64,100
53088,note_on,,,,,4,0,5,,,,,1,,,67,100
53180,note_off,,,,,92,0,5,,,,,1,,,67,100
53184,note_on,,,,,4,0,5,,,,,1,,,62,100
53184,note_on,,,,,112,0,4,,,,,0,,,71,100
53264,note_off,,,,,80,0,4,,,,,0,,,71,100
53276,note_off,,,,,92,0,5,,,,,1,,,62,100
53280,note_on,,,,,4,0,5,,,,,1,,,67,100
53372,note_off,,,,,92,0,5,,,,,1,,,67,100
53376,note_on,,,,,112,0,4,,,,,0,,,69,100
53376,note_on,,,,,4,0,5,,,,,1,,,60,100
53456,note_off,,,,,80,0,4,,,,,0,,,69,100
53468,note_off,,,,,92,0,5,,,,,1,,,60,100
53472,note_on,,,,,4,0,5,,,,,1,,,66,100
53564,note_off,,,,,92,0,5,,,,,1,,,66,100
53568,note_on,,,,,112,0,4,,,,,0,,,74,100
53568,note_on,,,,,4,0,5,,,,,1,,,59,100
53660,note_off,,,,,92,0,4,,,,,0,,,74,100
53664,note_on,,,,,4,0,4,,,,,0,,,67,100
53696,note_off,,,,,128,0,5,,,,,1,,,59,100
53756,note_off,,,,,92,0,4,,,,,0,,,67,100
53760,note_on,,,,,4,0,4,,,,,0,,,69,100
53852,note_off,,,,,92,0,4,,,,,0,,,69,100
53856,note_on,,,,,4,0,4,,,,,0,,,66,100
53948,note_off,,,,,92,0,4,,,,,0,,,66,100
53952,note_on,,,,,4,0,4,,,,,0,,,67,100
54044,note_off,,,,,92,0,4,,,,,0,,,67,100
54048,note_on,,,,,4,0,4,,,,,0,,,62,100
54140,note_off,,,,,92,0,4,,,,,0,,,62,100
54144,note_on,,,,,4,0,4,,,,,0,,,79,100
54144,note_on,,,,,448,0,5,,,,,1,,,64,100
54224,note_off,,,,,80,0,4,,,,,0,,,79,100
54236,note_off,,,,,92,0,5,,,,,1,,,64,100
54240,note_on,,,,,4,0,5,,,,,1,,,72,100
54332,note_off,,,,,92,0,5,,,,,1,,,72,100
54336,note_on,,,,,4,0,5,,,,,1,,,62,100
54336,note_on,,,,,112,0,4,,,,,0,,,78,100
54416,note_off,,,,,80,0,4,,,,,0,,,78,100
54428,note_off,,,,,92,0,5,,,,,1,,,62,100
54432,note_on,,,,,4,0,5,,,,,1,,,71,100
54524,note_off,,,,,92,0,5,,,,,1,,,71,100
54528,note_on,,,,,112,0,4,,,,,0,,,76,100
54528,note_on,,,,,4,0,5,,,,,1,,,60,100
54608,note_off,,,,,80,0,4,,,,,0,,,76,100
54620,note_off,,,,,92,0,5,,,,,1,,,60,100
54624,note_on,,,,,4,0,5,,,,,1,,,69,100
54716,note_off,,,,,92,0,5,,,,,1,,,69,100
54720,note_on,,,,,112,0,4,,,,,0,,,74,100
54720,note_on,,,,,4,0,5,,,,,1,,,59,100
54800,note_off,,,,,80,0,4,,,,,0,,,74,100
54812,note_off,,,,,92,0,5,,,,,1,,,59,100
54816,note_on,,,,,4,0,5,,,,,1,,,67,100
54908,note_off,,,,,92,0,5,,,,,1,,,67,100
54912,note_on,,,,,112,0,4,,,,,0,,,72,100
54912,note_on,,,,,4,0,5,,,,,1,,,57,100
54992,note_off,,,,,80,0,4,,,,,0,,,72,100
55004,note_off,,,,,92,0,5,,,,,1,,,57,100
55008,note_on,,,,,4,0,5,,,,,1,,,66,100
55100,note_off,,,,,92,0,5,,,,,1,,,66,100
55104,note_on,,,,,112,0,4,,,,,0,,,71,100
55104,note_on,,,,,4,0,5,,,,,1,,,55,100
55184,note_off,,,,,80,0,4,,,,,0,,,71,100
55196,note_off,,,,,92,0,5,,,,,1,,,55,100
55200,note_on,,,,,4,0,5,,,,,1,,,67,100
55292,note_off,,,,,92,0,5,,,,,1,,,67,100
55296,note_on,,,,,4,0,5,,,,,1,,,60,100
55296,note_on,,,,,112,0,4,,,,,0,,,69,100
55388,note_off,,,,,92,0,4,,,,,0,,,69,100
55392,note_on,,,,,4,0,4,,,,,0,,,71,100
55484,note_off,,,,,188,0,5,,,,,1,,,60,100
55484,note_off,,,,,92,0,4,,,,,0,,,71,100
55488,note_on,,,,,4,0,5,,,,,1,,,62,100
55488,note_on,,,,,4,0,4,,,,,0,,,72,100
55580,note_off,,,,,92,0,4,,,,,0,,,72,100
55584,note_on,,,,,4,0,4,,,,,0,,,71,100
55676,note_off,,,,,92,0,4,,,,,0,,,71,100
55676,note_off,,,,,188,0,5,,,,,1,,,62,100
55680,note_on,,,,,4,0,4,,,,,0,,,69,100
55680,note_on,,,,,4,0,5,,,,,1,,,64,100
55772,note_off,,,,,92,0,4,,,,,0,,,69,100
55776,note_on,,,,,4,0,4,,,,,0,,,67,100
55868,note_off,,,,,92,0,4,,,,,0,,,67,100
55868,note_off,,,,,188,0,5,,,,,1,,,64,100
55872,note_on,,,,,4,0,4,,,,,0,,,69,100
55872,note_on,,,,,4,0,5,,,,,1,,,62,100
55964,note_off,,,,,92,0,4,,,,,0,,,69,100
55968,note_on,,,,,4,0,4,,,,,0,,,66,100
56000,note_off,,,,,128,0,5,,,,,1,,,62,100
56060,note_off,,,,,92,0,4,,,,,0,,,66,100
56064,note_on,,,,,4,0,4,,,,,0,,,67,100
56156,note_off,,,,,92,0,4,,,,,0,,,67,100
56160,note_on,,,,,4,0,4,,,,,0,,,64,100
56252,note_off,,,,,92,0,4,,,,,0,,,64,100
56256,note_on,,,,,4,0,4,,,,,0,,,66,100
56348,note_off,,,,,92,0,4,,,,,0,,,66,100
56352,note_on,,,,,4,0,4,,,,,0,,,62,100
56444,note_off,,,,,92,0,4,,,,,0,,,62,100
56448,note_on,,,,,448,0,5,,,,,1,,,52,100
56448,note_on,,,,,4,0,4,,,,,0,,,67,100
56528,note_off,,,,,80,0,4,,,,,0,,,67,100
56540,note_off,,,,,92,0,5,,,,,1,,,52,100
56544,note_on,,,,,4,0,5,,,,,1,,,60,100
56636,note_off,,,,,92,0,5,,,,,1,,,60,100
56640,note_on,,,,,4,0,5,,,,,1,,,50,100
56640,note_on,,,,,112,0,4,,,,,0,,,74,100
56720,note_off,,,,,80,0,4,,,,,0,,,74,100
56732,note_off,,,,,92,0,5,,,,,1,,,50,100
56736,note_on,,,,,4,0,5,,,,,1,,,59,100
56828,note_off,,,,,92,0,5,,,,,1,,,59,100
56832,note_on,,,,,4,0,5,,,,,1,,,48,100
56832,note_on,,,,,112,0,4,,,,,0,,,66,100
56912,note_off,,,,,80,0,4,,,,,0,,,66,100
56924,note_off,,,,,92,0,5,,,,,1,,,48,100
56928,note_on,,,,,4,0,5,,,,,1,,,57,100
57020,note_off,,,,,92,0,5,,,,,1,,,57,100
57024,note_on,,,,,4,0,5,,,,,1,,,47,100
57024,note_on,,,,,112,0,4,,,,,0,,,67,100
57116,note_off,,,,,92,0,4,,,,,0,,,67,100
57120,note_on,,,,,4,0,4,,,,,0,,,62,100
57152,note_off,,,,,128,0,5,,,,,1,,,47,100
57212,note_off,,,,,92,0,4,,,,,0,,,62,100
57216,note_on,,,,,4,0,4,,,,,0,,,59,100
57308,note_off,,,,,92,0,4,,,,,0,,,59,100
57312,note_on,,,,,4,0,4,,,,,0,,,55,100
57404,note_off,,,,,92,0,4,,,,,0,,,55,100
57408,note_on,,,,,4,0,4,,,,,0,,,59,100
57500,note_off,,,,,92,0,4,,,,,0,,,59,100
57504,note_on,,,,,4,0,4,,,,,0,,,62,100
57596,note_off,,,,,92,0,4,,,,,0,,,62,100
57600,note_on,,,,,4,0,4,,,,,0,,,67,100
57600,note_on,,,,,448,0,5,,,,,1,,,52,100
57680,note_off,,,,,80,0,4,,,,,0,,,67,100
57692,note_off,,,,,92,0,5,,,,,1,,,52,100
57696,note_on,,,,,4,0,5,,,,,1,,,60,100
57788,note_off,,,,,92,0,5,,,,,1,,,60,100
57792,note_on,,,,,4,0,5,,,,,1,,,50,100
57792,note_on,,,,,112,0,4,,,,,0,,,74,100
57872,note_off,,,,,80,0,4,,,,,0,,,74,100
57884,note_off,,,,,92,0,5,,,,,1,,,50,100
57888,note_on,,,,,4,0,5,,,,,1,,,59,100
57980,note_off,,,,,92,0,5,,,,,1,,,59,100
57984,note_on,,,,,4,0,5,,,,,1,,,48,100
57984,note_on,,,,,112,0,4,,,,,0,,,66,100
58064,note_off,,,,,80,0,4,,,,,0,,,66,100
58076,note_off,,,,,92,0,5,,,,,1,,,48,100
58080,note_on,,,,,4,0,5,,,,,1,,,57,100
58172,note_off,,,,,92,0,5,,,,,1,,,57,100
58176,note_on,,,,,4,0,5,,,,,1,,,47,100
58176,note_on,,,,,112,0,4,,,,,0,,,67,100
58268,note_off,,,,,92,0,4,,,,,0,,,67,100
58272,note_on,,,,,4,0,4,,,,,0,,,62,100
58304,note_off,,,,,128,0,5,,,,,1,,,47,100
58364,note_off,,,,,92,0,4,,,,,0,,,62,100
58368,note_on,,,,,4,0,4,,,,,0,,,59,100
58460,note_off,,,,,92,0,4,,,,,0,,,59,100
58464,note_on,,,,,4,0,4,,,,,0,,,55,100
58556,note_off,,,,,92,0,4,,,,,0,,,55,100
58560,note_on,,,,,4,0,4,,,,,0,,,59,100
58652,note_off,,,,,92,0,4,,,,,0,,,59,100
58656,note_on,,,,,4,0,4,,,,,0,,,62,100
58748,note_off,,,,,92,0,4,,,,,0,,,62,100
58752,note_on,,,,,4,0,4,,,,,0,,,67,100
58752,note_on,,,,,448,0,5,,,,,1,,,51,100
58832,note_off,,,,,80,0,4,,,,,0,,,67,100
58844,note_off,,,,,92,0,5,,,,,1,,,51,100
58848,note_on,,,,,4,0,5,,,,,1,,,60,100
58940,note_off,,,,,92,0,5,,,,,1,,,60,100
58944,note_on,,,,,112,0,4,,,,,0,,,74,100
58944,note_on,,,,,4,0,5,,,,,1,,,50,100
59024,note_off,,,,,80,0,4,,,,,0,,,74,100
59036,note_off,,,,,92,0,5,,,,,1,,,50,100
59040,note_on,,,,,4,0,5,,,,,1,,,58,100
59132,note_off,,,,,92,0,5,,,,,1,,,58,100
59136,note_on,,,,,112,0,4,,,,,0,,,66,100
59136,note_on,,,,,4,0,5,,,,,1,,,48,100
59216,note_off,,,,,80,0,4,,,,,0,,,66,100
59228,note_off,,,,,92,0,5,,,,,1,,,48,100
59232,note_on,,,,,4,0,5,,,,,1,,,57,100
59324,note_off,,,,,92,0,5,,,,,1,,,57,100
59328,note_on,,,,,112,0,4,,,,,0,,,67,100
59328,note_on,,,,,4,0,5,,,,,1,,,46,100
59420,note_off,,,,,92,0,4,,,,,0,,,67,100
59424,note_on,,,,,4,0,4,,,,,0,,,62,100
59456,note_off,,,,,128,0,5,,,,,1,,,46,100
59516,note_off,,,,,92,0,4,,,,,0,,,62,100
59520,note_on,,,,,4,0,4,,,,,0,,,58,100
59612,note_off,,,,,92,0,4,,,,,0,,,58,100
59616,note_on,,,,,4,0,4,,,,,0,,,55,100
59708,note_off,,,,,92,0,4,,,,,0,,,55,100
59712,note_on,,,,,4,0,4,,,,,0,,,58,100
59804,note_off,,,,,92,0,4,,,,,0,,,58,100
59808,note_on,,,,,4,0,4,,,,,0,,,62,100
59900,note_off,,,,,92,0,4,,,,,0,,,62,100
59904,note_on,,,,,4,0,4,,,,,0,,,67,100
59904,note_on,,,,,448,0,5,,,,,1,,,51,100
59984,note_off,,,,,80,0,4,,,,,0,,,67,100
59996,note_off,,,,,92,0,5,,,,,1,,,51,100
60000,note_on,,,,,4,0,5,,,,,1,,,60,100
60092,note_off,,,,,92,0,5,,,,,1,,,60,100
60096,note_on,,,,,112,0,4,,,,,0,,,74,100
60096,note_on,,,,,4,0,5,,,,,1,,,50,100
60176,note_off,,,,,80,0,4,,,,,0,,,74,100
60188,note_off,,,,,92,0,5,,,,,1,,,50,100
60192,note_on,,,,,4,0,5,,,,,1,,,58,100
60284,note_off,,,,,92,0,5,,,,,1,,,58,100
60288,note_on,,,,,4,0,5,,,,,1,,,48,100
60288,note_on,,,,,112,0,4,,,,,0,,,66,100
60368,note_off,,,,,80,0,4,,,,,0,,,66,100
60380,note_off,,,,,92,0,5,,,,,1,,,48,100
60384,note_on,,,,,4,0,5,,,,,1,,,57,100
60476,note_off,,,,,92,0,5,,,,,1,,,57,100
60480,note_on,,,,,4,0,5,,,,,1,,,46,100
60480,note_on,,,,,112,0,4,,,,,0,,,67,100
60572,note_off,,,,,92,0,4,,,,,0,,,67,100
60576,note_on,,,,,4,0,4,,,,,0,,,62,100
60608,note_off,,,,,128,0,5,,,,,1,,,46,100
60668,note_off,,,,,92,0,4,,,,,0,,,62,100
60672,note_on,,,,,4,0,4,,,,,0,,,58,100
60764,note_off,,,,,92,0,4,,,,,0,,,58,100
60768,note_on,,,,,4,0,4,,,,,0,,,55,100
60860,note_off,,,,,92,0,4,,,,,0,,,55,100
60864,note_on,,,,,4,0,4,,,,,0,,,58,100
60956,note_off,,,,,92,0,4,,,,,0,,,58,100
60960,note_on,,,,,4,0,4,,,,,0,,,62,100
61052,note_off,,,,,92,0,4,,,,,0,,,62,100
61056,note_on,,,,,448,0,5,,,,,1,,,64,100
61056,note_on,,,,,4,0,4,,,,,0,,,79,100
61136,note_off,,,,,80,0,4,,,,,0,,,79,100
61148,note_off,,,,,92,0,5,,,,,1,,,64,100
61152,note_on,,,,,4,0,5,,,,,1,,,72,100
61244,note_off,,,,,92,0,5,,,,,1,,,72,100
61248,note_on,,,,,112,0,4,,,,,0,,,78,100
61248,note_on,,,,,4,0,5,,,,,1,,,62,100
61328,note_off,,,,,80,0,4,,,,,0,,,78,100
61340,note_off,,,,,92,0,5,,,,,1,,,62,100
61344,note_on,,,,,4,0,5,,,,,1,,,71,100
61436,note_off,,,,,92,0,5,,,,,1,,,71,100
61440,note_on,,,,,112,0,4,,,,,0,,,76,100
61440,note_on,,,,,4,0,5,,,,,1,,,60,100
61520,note_off,,,,,80,0,4,,,,,0,,,76,100
61532,note_off,,,,,92,0,5,,,,,1,,,60,100
61536,note_on,,,,,4,0,5,,,,,1,,,69,100
61628,note_off,,,,,92,0,5,,,,,1,,,69,100
61632,note_on,,,,,112,0,4,,,,,0,,,74,100
61632,note_on,,,,,4,0,5,,,,,1,,,59,100
61712,note_off,,,,,80,0,4,,,,,0,,,74,100
61724,note_off,,,,,92,0,5,,,,,1,,,59,100
61728,note_on,,,,,4,0,5,,,,,1,,,67,100
61820,note_off,,,,,92,0,5,,,,,1,,,67,100
61824,note_on,,,,,112,0,4,,,,,0,,,72,100
61824,note_on,,,,,4,0,5,,,,,1,,,57,100
61904,note_off,,,,,80,0,4,,,,,0,,,72,100
61916,note_off,,,,,92,0,5,,,,,1,,,57,100
61920,note_on,,,,,4,0,5,,,,,1,,,66,100
62012,note_off,,,,,92,0,5,,,,,1,,,66,100
62016,note_on,,,,,4,0,5,,,,,1,,,55,100
62016,note_on,,,,,112,0,4,,,,,0,,,71,100
62096,note_off,,,,,80,0,4,,,,,0,,,71,100
62108,note_off,,,,,92,0,5,,,,,1,,,55,100
62112,note_on,,,,,4,0,5,,,,,1,,,67,100
62204,note_off,,,,,92,0,5,,,,,1,,,67,100
62208,note_on,,,,,4,0,5,,,,,1,,,60,100
62208,note_on,,,,,112,0,4,,,,,0,,,72,100
62300,note_off,,,,,92,0,4,,,,,0,,,72,100
62304,note_on,,,,,4,0,4,,,,,0,,,69,100
62396,note_off,,,,,92,0,4,,,,,0,,,69,100
62396,note_off,,,,,188,0,5,,,,,1,,,60,100
62400,note_on,,,,,4,0,5,,,,,1,,,62,100
62400,note_on,,,,,4,0,4,,,,,0,,,71,100
62480,note_off,,,,,80,0,5,,,,,1,,,62,100
62492,note_off,,,,,92,0,4,,,,,0,,,71,100
62496,note_on,,,,,4,0,4,,,,,0,,,67,100
62588,note_off,,,,,92,0,4,,,,,0,,,67,100
62592,note_on,,,,,112,0,5,,,,,1,,,50,100
62592,note_on,,,,,4,0,4,,,,,0,,,69,100
62672,note_off,,,,,80,0,5,,,,,1,,,50,100
62684,note_off,,,,,92,0,4,,,,,0,,,69,100
62688,note_on,,,,,4,0,4,,,,,0,,,66,100
62780,note_off,,,,,92,0,4,,,,,0,,,66,100
62784,note_on,,,,,4,0,4,,,,,0,,,67,100
62784,note_on,,,,,112,0,5,,,,,1,,,52,100
62864,note_off,,,,,80,0,4,,,,,0,,,67,100
62876,note_off,,,,,92,0,5,,,,,1,,,52,100
62880,note_on,,,,,4,0,5,,,,,1,,,60,100
62972,note_off,,,,,92,0,5,,,,,1,,,60,100
62976,note_on,,,,,112,0,4,,,,,0,,,66,100
62976,note_on,,,,,4,0,5,,,,,1,,,50,100
63056,note_off,,,,,80,0,4,,,,,0,,,66,100
63068,note_off,,,,,92,0,5,,,,,1,,,50,100
63072,note_on,,,,,4,0,5,,,,,1,,,59,100
63164,note_off,,,,,92,0,5,,,,,1,,,59,100
63168,note_on,,,,,112,0,4,,,,,0,,,64,100
63168,note_on,,,,,4,0,5,,,,,1,,,48,100
63248,note_off,,,,,80,0,4,,,,,0,,,64,100
63260,note_off,,,,,92,0,5,,,,,1,,,48,100
63264,note_on,,,,,4,0,5,,,,,1,,,57,100
63356,note_off,,,,,92,0,5,,,,,1,,,57,100
63360,note_on,,,,,112,0,4,,,,,0,,,62,100
63360,note_on,,,,,4,0,5,,,,,1,,,47,100
63440,note_off,,,,,80,0,4,,,,,0,,,62,100
63452,note_off,,,,,92,0,5,,,,,1,,,47,100
63456,note_on,,,,,4,0,5,,,,,1,,,55,100
63548,note_off,,,,,92,0,5,,,,,1,,,55,100
63552,note_on,,,,,4,0,5,,,,,1,,,45,100
63552,note_on,,,,,112,0,4,,,,,0,,,60,100
63632,note_off,,,,,80,0,4,,,,,0,,,60,100
63644,note_off,,,,,92,0,5,,,,,1,,,45,100
63648,note_on,,,,,4,0,5,,,,,1,,,54,100
63740,note_off,,,,,92,0,5,,,,,1,,,54,100
63744,note_on,,,,,4,0,5,,,,,1,,,43,100
63744,note_on,,,,,112,0,4,,,,,0,,,59,100
63824,note_off,,,,,80,0,4,,,,,0,,,59,100
63836,note_off,,,,,92,0,5,,,,,1,,,43,100
63840,note_on,,,,,4,0,5,,,,,1,,,55,100
63932,note_off,,,,,92,0,5,,,,,1,,,55,100
63936,note_on,,,,,112,0,4,,,,,0,,,57,100
63936,note_on,,,,,4,0,5,,,,,1,,,48,100
64028,note_off,,,,,92,0,4,,,,,0,,,57,100
64032,set_tempo,,,,,14496,1,0,,571428,,,,,,,
64032,note_on,,,,,4,0,4,,,,,0,,,60,100
64080,set_tempo,,,,,48,1,0,,574162,,,,,,,
64124,note_off,,,,,188,0,5,,,,,1,,,48,100
64124,note_off,,,,,92,0,4,,,,,0,,,60,100
64128,note_on,,,,,4,0,4,,,,,0,,,59,100
64128,set_tempo,,,,,48,1,0,,576923,,,,,,,
64128,note_on,,,,,4,0,5,,,,,1,,,50,100
64176,set_tempo,,,,,48,1,0,,579710,,,,,,,
64208,note_off,,,,,80,0,5,,,,,1,,,50,100
64220,note_off,,,,,92,0,4,,,,,0,,,59,100
64224,set_tempo,,,,,48,1,0,,582524,,,,,,,
64224,note_on,,,,,4,0,4,,,,,0,,,67,100
64272,set_tempo,,,,,48,1,0,,585365,,,,,,,
64316,note_off,,,,,92,0,4,,,,,0,,,67,100
64320,note_on,,,,,112,0,5,,,,,1,,,38,100
64320,note_on,,,,,4,0,4,,,,,0,,,57,100
64320,set_tempo,,,,,48,1,0,,588235,,,,,,,
64368,set_tempo,,,,,48,1,0,,591133,,,,,,,
64400,note_off,,,,,80,0,5,,,,,1,,,38,100
64412,note_off,,,,,92,0,4,,,,,0,,,57,100
64416,set_tempo,,,,,48,1,0,,594059,,,,,,,
64416,note_on,,,,,4,0,4,,,,,0,,,66,100
64464,set_tempo,,,,,48,1,0,,597014,,,,,,,
64480,note_off,,,,,64,0,4,,,,,0,,,66,100
64512,set_tempo,,,,,48,1,0,,571428,,,,,,,
64512,note_on,,,,,32,0,4,,,,,0,,,67,100
64512,note_on,,,,,112,0,5,,,,,1,,,43,100
64604,note_off,,,,,92,0,4,,,,,0,,,67,100
64608,note_on,,,,,4,0,4,,,,,0,,,62,100
64700,note_off,,,,,92,0,4,,,,,0,,,62,100
64704,note_on,,,,,4,0,4,,,,,0,,,59,100
64796,note_off,,,,,92,0,4,,,,,0,,,59,100
64800,note_on,,,,,4,0,4,,,,,0,,,55,100
64892,note_off,,,,,92,0,4,,,,,0,,,55,100
64896,note_off,,,,,384,0,5,,,,,1,,,43,100
64896,note_on,,,,,4,0,4,,,,,0,,,59,100
64988,note_off,,,,,92,0,4,,,,,0,,,59,100
64992,note_on,,,,,4,0,4,,,,,0,,,62,100
65084,note_off,,,,,92,0,4,,,,,0,,,62,100
65088,note_on,,,,,192,0,5,,,,,1,,,43,100
65088,note_on,,,,,4,0,4,,,,,0,,,67,100
65180,note_off,,,,,92,0,4,,,,,0,,,67,100
65184,note_on,,,,,4,0,4,,,,,0,,,62,100
65276,note_off,,,,,92,0,4,,,,,0,,,62,100
65280,note_on,,,,,4,0,4,,,,,0,,,71,100
65372,note_off,,,,,92,0,4,,,,,0,,,71,100
65376,note_on,,,,,4,0,4,,,,,0,,,67,100
65468,note_off,,,,,92,0,4,,,,,0,,,67,100
65472,note_off,,,,,384,0,5,,,,,1,,,43,100
65472,note_on,,,,,4,0,4,,,,,0,,,74,100
65564,note_off,,,,,92,0,4,,,,,0,,,74,100
65568,note_on,,,,,4,0,4,,,,,0,,,62,100
65660,note_off,,,,,92,0,4,,,,,0,,,62,100
65664,note_on,,,,,4,0,4,,,,,0,,,67,100
65664,note_on,,,,,192,0,5,,,,,1,,,43,100
66048,note_off,,,,,384,0,4,,,,,0,,,67,100
66048,note_off,,,,,384,0,5,,,,,1,,,43,100
66240,note_on,,,,,192,0,4,,,,,0,,,74,100
66428,note_off,,,,,188,0,4,,,,,0,,,74,100
66432,note_on,,,,,4,0,4,,,,,0,,,62,100
66532,note_off,,,,,100,0,4,,,,,0,,,62,100
66624,note_on,,,,,92,0,4,,,,,0,,,62,100
66724,note_off,,,,,100,0,4,,,,,0,,,62,100
66816,note_on,,,,,768,0,5,,,,,1,,,50,100
66816,note_on,,,,,92,0,4,,,,,0,,,62,100
66860,note_off,,,,,44,0,4,,,,,0,,,62,100
66864,note_on,,,,,4,0,4,,,,,0,,,64,100
66908,note_off,,,,,44,0,4,,,,,0,,,64,100
66912,note_on,,,,,4,0,4,,,,,0,,,62,100
66956,note_off,,,,,44,0,4,,,,,0,,,62,100
66960,note_on,,,,,4,0,4,,,,,0,,,64,100
67004,note_off,,,,,44,0,4,,,,,0,,,64,100
67004,note_off,,,,,188,0,5,,,,,1,,,50,100
67008,note_on,,,,,4,0,4,,,,,0,,,62,100
67008,note_on,,,,,4,0,5,,,,,1,,,38,100
67052,note_off,,,,,44,0,4,,,,,0,,,62,100
67056,note_on,,,,,4,0,4,,,,,0,,,64,100
67100,note_off,,,,,44,0,4,,,,,0,,,64,100
67104,note_on,,,,,4,0,4,,,,,0,,,62,100
67108,note_off,,,,,100,0,5,,,,,1,,,38,100
67148,note_off,,,,,44,0,4,,,,,0,,,62,100
67152,note_on,,,,,4,0,4,,,,,0,,,64,100
67196,note_off,,,,,44,0,4,,,,,0,,,64,100
67200,note_on,,,,,4,0,4,,,,,0,,,62,100
67200,note_on,,,,,92,0,5,,,,,1,,,38,100
67244,note_off,,,,,44,0,4,,,,,0,,,62,100
67248,note_on,,,,,4,0,4,,,,,0,,,64,100
67292,note_off,,,,,44,0,4,,,,,0,,,64,100
67296,note_on,,,,,4,0,4,,,,,0,,,62,100
67300,note_off,,,,,100,0,5,,,,,1,,,38,100
67360,note_off,,,,,64,0,4,,,,,0,,,62,100
67392,note_on,,,,,92,0,5,,,,,1,,,38,100
67392,note_on,,,,,32,0,4,,,,,0,,,62,100
67484,note_off,,,,,92,0,4,,,,,0,,,62,100
67488,note_on,,,,,4,0,4,,,,,0,,,57,100
67580,note_off,,,,,92,0,4,,,,,0,,,57,100
67584,note_on,,,,,4,0,4,,,,,0,,,66,100
67676,note_off,,,,,92,0,4,,,,,0,,,66,100
67680,note_on,,,,,4,0,4,,,,,0,,,62,100
67772,note_off,,,,,92,0,4,,,,,0,,,62,100
67776,note_on,,,,,4,0,4,,,,,0,,,69,100
67776,note_off,,,,,384,0,5,,,,,1,,,38,100
67868,note_off,,,,,92,0,4,,,,,0,,,69,100
67872,note_on,,,,,4,0,4,,,,,0,,,66,100
67964,note_off,,,,,92,0,4,,,,,0,,,66,100
67968,note_on,,,,,4,0,4,,,,,0,,,74,100
67968,note_on,,,,,192,0,5,,,,,1,,,50,100
68060,note_off,,,,,92,0,5,,,,,1,,,50,100
68064,note_on,,,,,4,0,5,,,,,1,,,45,100
68156,note_off,,,,,92,0,5,,,,,1,,,45,100
68160,note_on,,,,,4,0,5,,,,,1,,,54,100
68252,note_off,,,,,92,0,5,,,,,1,,,54,100
68256,note_on,,,,,4,0,5,,,,,1,,,50,100
68348,note_off,,,,,92,0,5,,,,,1,,,50,100
68352,note_on,,,,,4,0,5,,,,,1,,,57,100
68352,note_off,,,,,384,0,4,,,,,0,,,74,100
68444,note_off,,,,,92,0,5,,,,,1,,,57,100
68448,note_on,,,,,4,0,5,,,,,1,,,54,100
68540,note_off,,,,,92,0,5,,,,,1,,,54,100
68544,note_on,,,,,4,0,5,,,,,1,,,62,100
68544,note_on,,,,,192,0,4,,,,,0,,,66,100
68624,note_off,,,,,80,0,5,,,,,1,,,62,100
68624,note_off,,,,,80,0,4,,,,,0,,,66,100
68736,note_on,,,,,112,0,5,,,,,1,,,64,100
68736,note_on,,,,,112,0,4,,,,,0,,,67,100
68816,note_off,,,,,80,0,5,,,,,1,,,64,100
68816,note_off,,,,,80,0,4,,,,,0,,,67,100
68928,note_on,,,,,112,0,4,,,,,0,,,69,100
68928,note_on,,,,,112,0,5,,,,,1,,,66,100
69008,note_off,,,,,80,0,5,,,,,1,,,66,100
69008,note_off,,,,,80,0,4,,,,,0,,,69,100
69120,note_on,,,,,112,0,4,,,,,0,,,69,100
69120,note_on,,,,,112,0,5,,,,,1,,,64,100
69212,note_off,,,,,92,0,4,,,,,0,,,69,100
69216,note_on,,,,,4,0,4,,,,,0,,,67,100
69260,note_off,,,,,44,0,4,,,,,0,,,67,100
69264,note_on,,,,,4,0,4,,,,,0,,,69,100
69308,note_off,,,,,188,0,5,,,,,1,,,64,100
69308,note_off,,,,,44,0,4,,,,,0,,,69,100
69312,note_on,,,,,4,0,5,,,,,1,,,61,100
69312,note_on,,,,,4,0,4,,,,,0,,,67,100
69356,note_off,,,,,44,0,4,,,,,0,,,67,100
69360,note_on,,,,,4,0,4,,,,,0,,,69,100
69404,note_off,,,,,44,0,4,,,,,0,,,69,100
69408,note_on,,,,,4,0,4,,,,,0,,,67,100
69500,note_off,,,,,92,0,4,,,,,0,,,67,100
69500,note_off,,,,,188,0,5,,,,,1,,,61,100
69504,note_on,,,,,4,0,5,,,,,1,,,62,100
69504,note_on,,,,,4,0,4,,,,,0,,,66,100
69632,note_off,,,,,128,0,5,,,,,1,,,62,100
69632,note_off,,,,,128,0,4,,,,,0,,,66,100
69696,note_on,,,,,64,0,4,,,,,0,,,67,100
69696,note_on,,,,,64,0,5,,,,,1,,,55,100
69788,note_off,,,,,92,0,4,,,,,0,,,67,100
69792,note_on,,,,,4,0,4,,,,,0,,,76,100
69884,note_off,,,,,188,0,5,,,,,1,,,55,100
69884,note_off,,,,,92,0,4,,,,,0,,,76,100
69888,note_on,,,,,4,0,5,,,,,1,,,57,100
69888,note_on,,,,,4,0,4,,,,,0,,,66,100
69980,note_off,,,,,92,0,4,,,,,0,,,66,100
69984,note_on,,,,,4,0,4,,,,,0,,,74,100
70076,note_off,,,,,92,0,4,,,,,0,,,74,100
70076,note_off,,,,,188,0,5,,,,,1,,,57,100
70080,note_on,,,,,4,0,5,,,,,1,,,61,100
70080,note_on,,,,,4,0,4,,,,,0,,,64,100
70172,note_off,,,,,92,0,4,,,,,0,,,64,100
70176,note_on,,,,,4,0,4,,,,,0,,,73,100
70268,note_off,,,,,92,0,4,,,,,0,,,73,100
70268,note_off,,,,,188,0,5,,,,,1,,,61,100
70272,note_on,,,,,4,0,5,,,,,1,,,62,100
70272,note_on,,,,,4,0,4,,,,,0,,,66,100
70364,note_off,,,,,92,0,4,,,,,0,,,66,100
70368,note_on,,,,,4,0,4,,,,,0,,,74,100
70460,note_off,,,,,92,0,4,,,,,0,,,74,100
70460,note_off,,,,,188,0,5,,,,,1,,,62,100
70464,note_on,,,,,4,0,5,,,,,1,,,57,100
70464,note_on,,,,,4,0,4,,,,,0,,,64,100
70556,note_off,,,,,92,0,4,,,,,0,,,64,100
70560,note_on,,,,,4,0,4,,,,,0,,,73,100
70652,note_off,,,,,188,0,5,,,,,1,,,57,100
70652,note_off,,,,,92,0,4,,,,,0,,,73,100
70656,note_on,,,,,4,0,4,,,,,0,,,74,100
70656,note_on,,,,,4,0,5,,,,,1,,,50,100
70784,note_off,,,,,128,0,5,,,,,1,,,50,100
70784,note_off,,,,,128,0,4,,,,,0,,,74,100
70848,note_on,,,,,64,0,5,,,,,1,,,62,100
70848,note_on,,,,,64,0,4,,,,,0,,,66,100
70928,note_off,,,,,80,0,4,,,,,0,,,66,100
70928,note_off,,,,,80,0,5,,,,,1,,,62,100
71040,note_on,,,,,112,0,4,,,,,0,,,67,100
71040,note_on,,,,,112,0,5,,,,,1,,,64,100
71120,note_off,,,,,80,0,4,,,,,0,,,67,100
71120,note_off,,,,,80,0,5,,,,,1,,,64,100
71232,note_on,,,,,112,0,4,,,,,0,,,69,100
71232,note_on,,,,,112,0,5,,,,,1,,,66,100
71312,note_off,,,,,80,0,4,,,,,0,,,69,100
71312,note_off,,,,,80,0,5,,,,,1,,,66,100
71424,note_on,,,,,112,0,5,,,,,1,,,64,100
71424,note_on,,,,,112,0,4,,,,,0,,,69,100
71516,note_off,,,,,92,0,4,,,,,0,,,69,100
71520,note_on,,,,,4,0,4,,,,,0,,,67,100
71564,note_off,,,,,44,0,4,,,,,0,,,67,100
71568,note_on,,,,,4,0,4,,,,,0,,,69,100
71612,note_off,,,,,44,0,4,,,,,0,,,69,100
71612,note_off,,,,,188,0,5,,,,,1,,,64,100
71616,note_on,,,,,4,0,4,,,,,0,,,67,100
71616,note_on,,,,,4,0,5,,,,,1,,,61,100
71660,note_off,,,,,44,0,4,,,,,0,,,67,100
71664,note_on,,,,,4,0,4,,,,,0,,,69,100
71708,note_off,,,,,44,0,4,,,,,0,,,69,100
71712,note_on,,,,,4,0,4,,,,,0,,,67,100
71804,note_off,,,,,188,0,5,,,,,1,,,61,100
71804,note_off,,,,,92,0,4,,,,,0,,,67,100
71808,note_on,,,,,4,0,5,,,,,1,,,62,100
71808,note_on,,,,,4,0,4,,,,,0,,,66,100
71936,note_off,,,,,128,0,5,,,,,1,,,62,100
71936,note_off,,,,,128,0,4,,,,,0,,,66,100
72000,note_on,,,,,64,0,5,,,,,1,,,55,100
72000,set_tempo,,,,,7488,1,0,,571428,,,,,,,
72000,note_on,,,,,64,0,4,,,,,0,,,67,100
72092,note_off,,,,,92,0,4,,,,,0,,,67,100
72096,note_on,,,,,4,0,4,,,,,0,,,76,100
72114,set_tempo,,,,,114,1,0,,574162,,,,,,,
72188,note_off,,,,,92,0,4,,,,,0,,,76,100
72188,note_off,,,,,188,0,5,,,,,1,,,55,100
72192,note_on,,,,,4,0,5,,,,,1,,,57,100
72192,note_on,,,,,4,0,4,,,,,0,,,66,100
72230,set_tempo,,,,,116,1,0,,576923,,,,,,,
72284,note_off,,,,,92,0,4,,,,,0,,,66,100
72288,note_on,,,,,4,0,4,,,,,0,,,74,100
72344,set_tempo,,,,,114,1,0,,579710,,,,,,,
72380,note_off,,,,,188,0,5,,,,,1,,,57,100
72380,note_off,,,,,92,0,4,,,,,0,,,74,100
72384,note_on,,,,,4,0,5,,,,,1,,,45,100
72384,note_on,,,,,4,0,4,,,,,0,,,64,100
72460,set_tempo,,,,,116,1,0,,582524,,,,,,,
72476,note_off,,,,,92,0,4,,,,,0,,,64,100
72480,note_on,,,,,4,0,4,,,,,0,,,73,100
72572,note_off,,,,,92,0,4,,,,,0,,,73,100
72572,note_off,,,,,188,0,5,,,,,1,,,45,100
72576,set_tempo,,,,,116,1,0,,585365,,,,,,,
72576,note_on,,,,,4,0,5,,,,,1,,,50,100
72576,note_on,,,,,4,0,4,,,,,0,,,66,100
72668,note_off,,,,,92,0,4,,,,,0,,,66,100
72672,note_on,,,,,4,0,4,,,,,0,,,74,100
72690,set_tempo,,,,,114,1,0,,588235,,,,,,,
72764,note_off,,,,,92,0,4,,,,,0,,,74,100
72764,note_off,,,,,188,0,5,,,,,1,,,50,100
72768,note_on,,,,,4,0,4,,,,,0,,,64,100
72768,note_on,,,,,4,0,5,,,,,1,,,45,100
72806,set_tempo,,,,,116,1,0,,591133,,,,,,,
72860,note_off,,,,,92,0,4,,,,,0,,,64,100
72864,note_on,,,,,4,0,4,,,,,0,,,73,100
72920,set_tempo,,,,,114,1,0,,594059,,,,,,,
72956,note_off,,,,,188,0,5,,,,,1,,,45,100
72956,note_off,,,,,92,0,4,,,,,0,,,73,100
72960,note_on,,,,,4,0,5,,,,,1,,,38,100
72960,note_on,,,,,4,0,4,,,,,0,,,74,100
73036,set_tempo,,,,,116,1,0,,597014,,,,,,,
73088,note_off,,,,,128,0,5,,,,,1,,,38,100
73088,note_off,,,,,128,0,4,,,,,0,,,74,100
73152,set_tempo,,,,,116,1,0,,571428,,,,,,,
73152,note_on,,,,,64,0,5,,,,,1,,,65,100
73152,note_on,,,,,64,0,4,,,,,0,,,74,100
73232,note_off,,,,,80,0,4,,,,,0,,,74,100
73244,note_off,,,,,92,0,5,,,,,1,,,65,100
73248,note_on,,,,,4,0,5,,,,,1,,,69,100
73340,note_off,,,,,92,0,5,,,,,1,,,69,100
73344,note_on,,,,,112,0,4,,,,,0,,,72,100
73344,note_on,,,,,4,0,5,,,,,1,,,64,100
73424,note_off,,,,,80,0,4,,,,,0,,,72,100
73436,note_off,,,,,92,0,5,,,,,1,,,64,100
73440,note_on,,,,,4,0,5,,,,,1,,,69,100
73532,note_off,,,,,92,0,5,,,,,1,,,69,100
73536,note_on,,,,,112,0,4,,,,,0,,,71,100
73536,note_on,,,,,4,0,5,,,,,1,,,62,100
73616,note_off,,,,,80,0,4,,,,,0,,,71,100
73628,note_off,,,,,92,0,5,,,,,1,,,62,100
73632,note_on,,,,,4,0,5,,,,,1,,,68,100
73724,note_off,,,,,92,0,5,,,,,1,,,68,100
73728,note_on,,,,,4,0,5,,,,,1,,,60,100
73728,note_on,,,,,112,0,4,,,,,0,,,76,100
73820,note_off,,,,,92,0,4,,,,,0,,,76,100
73824,note_on,,,,,4,0,4,,,,,0,,,69,100
73856,note_off,,,,,128,0,5,,,,,1,,,60,100
73916,note_off,,,,,92,0,4,,,,,0,,,69,100
73920,note_on,,,,,4,0,4,,,,,0,,,71,100
74012,note_off,,,,,92,0,4,,,,,0,,,71,100
74016,note_on,,,,,4,0,4,,,,,0,,,68,100
74108,note_off,,,,,92,0,4,,,,,0,,,68,100
74112,note_on,,,,,4,0,4,,,,,0,,,69,100
74204,note_off,,,,,92,0,4,,,,,0,,,69,100
74208,note_on,,,,,4,0,4,,,,,0,,,64,100
74300,note_off,,,,,92,0,4,,,,,0,,,64,100
74304,note_on,,,,,4,0,4,,,,,0,,,74,100
74304,note_on,,,,,448,0,5,,,,,1,,,65,100
74384,note_off,,,,,80,0,4,,,,,0,,,74,100
74396,note_off,,,,,92,0,5,,,,,1,,,65,100
74400,note_on,,,,,4,0,5,,,,,1,,,69,100
74492,note_off,,,,,92,0,5,,,,,1,,,69,100
74496,note_on,,,,,4,0,5,,,,,1,,,64,100
74496,note_on,,,,,112,0,4,,,,,0,,,72,100
74576,note_off,,,,,80,0,4,,,,,0,,,72,100
74588,note_off,,,,,92,0,5,,,,,1,,,64,100
74592,note_on,,,,,4,0,5,,,,,1,,,69,100
74684,note_off,,,,,92,0,5,,,,,1,,,69,100
74688,note_on,,,,,4,0,5,,,,,1,,,62,100
74688,note_on,,,,,112,0,4,,,,,0,,,71,100
74768,note_off,,,,,80,0,4,,,,,0,,,71,100
74780,note_off,,,,,92,0,5,,,,,1,,,62,100
74784,note_on,,,,,4,0,5,,,,,1,,,68,100
74876,note_off,,,,,92,0,5,,,,,1,,,68,100
74880,note_on,,,,,4,0,5,,,,,1,,,60,100
74880,note_on,,,,,112,0,4,,,,,0,,,76,100
74972,note_off,,,,,92,0,4,,,,,0,,,76,100
74976,note_on,,,,,4,0,4,,,,,0,,,69,100
75008,note_off,,,,,128,0,5,,,,,1,,,60,100
75068,note_off,,,,,92,0,4,,,,,0,,,69,100
75072,note_on,,,,,4,0,4,,,,,0,,,71,100
75164,note_off,,,,,92,0,4,,,,,0,,,71,100
75168,note_on,,,,,4,0,4,,,,,0,,,68,100
75260,note_off,,,,,92,0,4,,,,,0,,,68,100
75264,note_on,,,,,4,0,4,,,,,0,,,69,100
75356,note_off,,,,,92,0,4,,,,,0,,,69,100
75360,note_on,,,,,4,0,4,,,,,0,,,64,100
75452,note_off,,,,,92,0,4,,,,,0,,,64,100
75456,note_on,,,,,4,0,4,,,,,0,,,72,100
75456,note_on,,,,,448,0,5,,,,,1,,,64,100
75536,note_off,,,,,80,0,4,,,,,0,,,72,100
75548,note_off,,,,,92,0,5,,,,,1,,,64,100
75552,note_on,,,,,4,0,5,,,,,1,,,67,100
75644,note_off,,,,,92,0,5,,,,,1,,,67,100
75648,note_on,,,,,4,0,5,,,,,1,,,62,100
75648,note_on,,,,,112,0,4,,,,,0,,,71,100
75728,note_off,,,,,80,0,4,,,,,0,,,71,100
75740,note_off,,,,,92,0,5,,,,,1,,,62,100
75744,note_on,,,,,4,0,5,,,,,1,,,67,100
75836,note_off,,,,,92,0,5,,,,,1,,,67,100
75840,note_on,,,,,4,0,5,,,,,1,,,60,100
75840,note_on,,,,,112,0,4,,,,,0,,,69,100
75920,note_off,,,,,80,0,4,,,,,0,,,69,100
75932,note_off,,,,,92,0,5,,,,,1,,,60,100
75936,note_on,,,,,4,0,5,,,,,1,,,66,100
76028,note_off,,,,,92,0,5,,,,,1,,,66,100
76032,note_on,,,,,112,0,4,,,,,0,,,74,100
76032,note_on,,,,,4,0,5,,,,,1,,,59,100
76124,note_off,,,,,92,0,4,,,,,0,,,74,100
76128,note_on,,,,,4,0,4,,,,,0,,,67,100
76160,note_off,,,,,128,0,5,,,,,1,,,59,100
76220,note_off,,,,,92,0,4,,,,,0,,,67,100
76224,note_on,,,,,4,0,4,,,,,0,,,69,100
76316,note_off,,,,,92,0,4,,,,,0,,,69,100
76320,note_on,,,,,4,0,4,,,,,0,,,66,100
76412,note_off,,,,,92,0,4,,,,,0,,,66,100
76416,note_on,,,,,4,0,4,,,,,0,,,67,100
76508,note_off,,,,,92,0,4,,,,,0,,,67,100
76512,note_on,,,,,4,0,4,,,,,0,,,62,100
76604,note_off,,,,,92,0,4,,,,,0,,,62,100
76608,note_on,,,,,4,0,4,,,,,0,,,72,100
76608,note_on,,,,,448,0,5,,,,,1,,,64,100
76688,note_off,,,,,80,0,4,,,,,0,,,72,100
76700,note_off,,,,,92,0,5,,,,,1,,,64,100
76704,note_on,,,,,4,0,5,,,,,1,,,67,100
76796,note_off,,,,,92,0,5,,,,,1,,,67,100
76800,note_on,,,,,112,0,4,,,,,0,,,71,100
76800,note_on,,,,,4,0,5,,,,,1,,,62,100
76880,note_off,,,,,80,0,4,,,,,0,,,71,100
76892,note_off,,,,,92,0,5,,,,,1,,,62,100
76896,note_on,,,,,4,0,5,,,,,1,,,67,100
76988,note_off,,,,,92,0,5,,,,,1,,,67,100
76992,note_on,,,,,112,0,4,,,,,0,,,69,100
76992,note_on,,,,,4,0,5,,,,,1,,,60,100
77072,note_off,,,,,80,0,4,,,,,0,,,69,100
77084,note_off,,,,,92,0,5,,,,,1,,,60,100
77088,note_on,,,,,4,0,5,,,,,1,,,66,100
77180,note_off,,,,,92,0,5,,,,,1,,,66,100
77184,note_on,,,,,112,0,4,,,,,0,,,74,100
77184,note_on,,,,,4,0,5,,,,,1,,,59,100
77276,note_off,,,,,92,0,4,,,,,0,,,74,100
77280,note_on,,,,,4,0,4,,,,,0,,,67,100
77312,note_off,,,,,128,0,5,,,,,1,,,59,100
77372,note_off,,,,,92,0,4,,,,,0,,,67,100
77376,note_on,,,,,4,0,4,,,,,0,,,69,100
77468,note_off,,,,,92,0,4,,,,,0,,,69,100
77472,note_on,,,,,4,0,4,,,,,0,,,66,100
77564,note_off,,,,,92,0,4,,,,,0,,,66,100
77568,note_on,,,,,4,0,4,,,,,0,,,67,100
77660,note_off,,,,,92,0,4,,,,,0,,,67,100
77664,note_on,,,,,4,0,4,,,,,0,,,62,100
77756,note_off,,,,,92,0,4,,,,,0,,,62,100
77760,note_on,,,,,448,0,5,,,,,1,,,64,100
77760,note_on,,,,,4,0,4,,,,,0,,,79,100
77840,note_off,,,,,80,0,4,,,,,0,,,79,100
77852,note_off,,,,,92,0,5,,,,,1,,,64,100
77856,note_on,,,,,4,0,5,,,,,1,,,72,100
77948,note_off,,,,,92,0,5,,,,,1,,,72,100
77952,note_on,,,,,112,0,4,,,,,0,,,78,100
77952,note_on,,,,,4,0,5,,,,,1,,,62,100
78032,note_off,,,,,80,0,4,,,,,0,,,78,100
78044,note_off,,,,,92,0,5,,,,,1,,,62,100
78048,note_on,,,,,4,0,5,,,,,1,,,71,100
78140,note_off,,,,,92,0,5,,,,,1,,,71,100
78144,note_on,,,,,4,0,5,,,,,1,,,60,100
78144,note_on,,,,,112,0,4,,,,,0,,,76,100
78224,note_off,,,,,80,0,4,,,,,0,,,76,100
78236,note_off,,,,,92,0,5,,,,,1,,,60,100
78240,note_on,,,,,4,0,5,,,,,1,,,69,100
78332,note_off,,,,,92,0,5,,,,,1,,,69,100
78336,note_on,,,,,112,0,4,,,,,0,,,74,100
78336,note_on,,,,,4,0,5,,,,,1,,,59,100
78416,note_off,,,,,80,0,4,,,,,0,,,74,100
78428,note_off,,,,,92,0,5,,,,,1,,,59,100
78432,note_on,,,,,4,0,5,,,,,1,,,67,100
78524,note_off,,,,,92,0,5,,,,,1,,,67,100
78528,note_on,,,,,112,0,4,,,,,0,,,72,100
78528,note_on,,,,,4,0,5,,,,,1,,,57,100
78608,note_off,,,,,80,0,4,,,,,0,,,72,100
78620,note_off,,,,,92,0,5,,,,,1,,,57,100
78624,note_on,,,,,4,0,5,,,,,1,,,66,100
78716,note_off,,,,,92,0,5,,,,,1,,,66,100
78720,note_on,,,,,4,0,5,,,,,1,,,55,100
78720,note_on,,,,,112,0,4,,,,,0,,,71,100
78800,note_off,,,,,80,0,4,,,,,0,,,71,100
78812,note_off,,,,,92,0,5,,,,,1,,,55,100
78816,note_on,,,,,4,0,5,,,,,1,,,67,100
78908,note_off,,,,,92,0,5,,,,,1,,,67,100
78912,note_on,,,,,112,0,4,,,,,0,,,69,100
78912,note_on,,,,,4,0,5,,,,,1,,,60,100
79004,note_off,,,,,92,0,4,,,,,0,,,69,100
79008,note_on,,,,,4,0,4,,,,,0,,,71,100
79100,note_off,,,,,92,0,4,,,,,0,,,71,100
79100,note_off,,,,,188,0,5,,,,,1,,,60,100
79104,note_on,,,,,4,0,5,,,,,1,,,62,100
79104,note_on,,,,,4,0,4,,,,,0,,,72,100
79196,note_off,,,,,92,0,4,,,,,0,,,72,100
79200,note_on,,,,,4,0,4,,,,,0,,,71,100
79292,note_off,,,,,92,0,4,,,,,0,,,71,100
79292,note_off,,,,,188,0,5,,,,,1,,,62,100
79296,note_on,,,,,4,0,4,,,,,0,,,69,100
79296,note_on,,,,,4,0,5,,,,,1,,,64,100
79388,note_off,,,,,92,0,4,,,,,0,,,69,100
79392,note_on,,,,,4,0,4,,,,,0,,,67,100
79484,note_off,,,,,92,0,4,,,,,0,,,67,100
79484,note_off,,,,,188,0,5,,,,,1,,,64,100
79488,note_on,,,,,4,0,5,,,,,1,,,62,100
79488,note_on,,,,,4,0,4,,,,,0,,,69,100
79580,note_off,,,,,92,0,4,,,,,0,,,69,100
79584,note_on,,,,,4,0,4,,,,,0,,,66,100
79616,note_off,,,,,128,0,5,,,,,1,,,62,100
79676,note_off,,,,,92,0,4,,,,,0,,,66,100
79680,note_on,,,,,4,0,4,,,,,0,,,67,100
79772,note_off,,,,,92,0,4,,,,,0,,,67,100
79776,note_on,,,,,4,0,4,,,,,0,,,64,100
79868,note_off,,,,,92,0,4,,,,,0,,,64,100
79872,note_on,,,,,4,0,4,,,,,0,,,66,100
79964,note_off,,,,,92,0,4,,,,,0,,,66,100
79968,note_on,,,,,4,0,4,,,,,0,,,62,100
80060,note_off,,,,,92,0,4,,,,,0,,,62,100
80064,note_on,,,,,4,0,4,,,,,0,,,67,100
80064,note_on,,,,,448,0,5,,,,,1,,,52,100
80144,note_off,,,,,80,0,4,,,,,0,,,67,100
80156,note_off,,,,,92,0,5,,,,,1,,,52,100
80160,note_on,,,,,4,0,5,,,,,1,,,60,100
80252,note_off,,,,,92,0,5,,,,,1,,,60,100
80256,note_on,,,,,4,0,5,,,,,1,,,50,100
80256,note_on,,,,,112,0,4,,,,,0,,,74,100
80336,note_off,,,,,80,0,4,,,,,0,,,74,100
80348,note_off,,,,,92,0,5,,,,,1,,,50,100
80352,note_on,,,,,4,0,5,,,,,1,,,59,100
80444,note_off,,,,,92,0,5,,,,,1,,,59,100
80448,note_on,,,,,4,0,5,,,,,1,,,48,100
80448,note_on,,,,,112,0,4,,,,,0,,,66,100
80528,note_off,,,,,80,0,4,,,,,0,,,66,100
80540,note_off,,,,,92,0,5,,,,,1,,,48,100
80544,note_on,,,,,4,0,5,,,,,1,,,57,100
80636,note_off,,,,,92,0,5,,,,,1,,,57,100
80640,note_on,,,,,4,0,5,,,,,1,,,47,100
80640,note_on,,,,,112,0,4,,,,,0,,,67,100
80732,note_off,,,,,92,0,4,,,,,0,,,67,100
80736,note_on,,,,,4,0,4,,,,,0,,,62,100
80768,note_off,,,,,128,0,5,,,,,1,,,47,100
80828,note_off,,,,,92,0,4,,,,,0,,,62,100
80832,note_on,,,,,4,0,4,,,,,0,,,59,100
80924,note_off,,,,,92,0,4,,,,,0,,,59,100
80928,note_on,,,,,4,0,4,,,,,0,,,55,100
81020,note_off,,,,,92,0,4,,,,,0,,,55,100
81024,note_on,,,,,4,0,4,,,,,0,,,59,100
81116,note_off,,,,,92,0,4,,,,,0,,,59,100
81120,note_on,,,,,4,0,4,,,,,0,,,62,100
81212,note_off,,,,,92,0,4,,,,,0,,,62,100
81216,note_on,,,,,4,0,4,,,,,0,,,67,100
81216,note_on,,,,,448,0,5,,,,,1,,,52,100
81296,note_off,,,,,80,0,4,,,,,0,,,67,100
81308,note_off,,,,,92,0,5,,,,,1,,,52,100
81312,note_on,,,,,4,0,5,,,,,1,,,60,100
81404,note_off,,,,,92,0,5,,,,,1,,,60,100
81408,note_on,,,,,4,0,5,,,,,1,,,50,100
81408,note_on,,,,,112,0,4,,,,,0,,,74,100
81488,note_off,,,,,80,0,4,,,,,0,,,74,100
81500,note_off,,,,,92,0,5,,,,,1,,,50,100
81504,note_on,,,,,4,0,5,,,,,1,,,59,100
81596,note_off,,,,,92,0,5,,,,,1,,,59,100
81600,note_on,,,,,112,0,4,,,,,0,,,66,100
81600,note_on,,,,,4,0,5,,,,,1,,,48,100
81680,note_off,,,,,80,0,4,,,,,0,,,66,100
81692,note_off,,,,,92,0,5,,,,,1,,,48,100
81696,note_on,,,,,4,0,5,,,,,1,,,57,100
81788,note_off,,,,,92,0,5,,,,,1,,,57,100
81792,note_on,,,,,112,0,4,,,,,0,,,67,100
81792,note_on,,,,,4,0,5,,,,,1,,,47,100
81884,note_off,,,,,92,0,4,,,,,0,,,67,100
81888,note_on,,,,,4,0,4,,,,,0,,,62,100
81920,note_off,,,,,128,0,5,,,,,1,,,47,100
81980,note_off,,,,,92,0,4,,,,,0,,,62,100
81984,note_on,,,,,4,0,4,,,,,0,,,59,100
82076,note_off,,,,,92,0,4,,,,,0,,,59,100
82080,note_on,,,,,4,0,4,,,,,0,,,55,100
82172,note_off,,,,,92,0,4,,,,,0,,,55,100
82176,note_on,,,,,4,0,4,,,,,0,,,59,100
82268,note_off,,,,,92,0,4,,,,,0,,,59,100
82272,note_on,,,,,4,0,4,,,,,0,,,62,100
82364,note_off,,,,,92,0,4,,,,,0,,,62,100
82368,note_on,,,,,448,0,5,,,,,1,,,51,100
82368,note_on,,,,,4,0,4,,,,,0,,,67,100
82448,note_off,,,,,80,0,4,,,,,0,,,67,100
82460,note_off,,,,,92,0,5,,,,,1,,,51,100
82464,note_on,,,,,4,0,5,,,,,1,,,60,100
82556,note_off,,,,,92,0,5,,,,,1,,,60,100
82560,note_on,,,,,4,0,5,,,,,1,,,50,100
82560,note_on,,,,,112,0,4,,,,,0,,,74,100
82640,note_off,,,,,80,0,4,,,,,0,,,74,100
82652,note_off,,,,,92,0,5,,,,,1,,,50,100
82656,note_on,,,,,4,0,5,,,,,1,,,58,100
82748,note_off,,,,,92,0,5,,,,,1,,,58,100
82752,note_on,,,,,4,0,5,,,,,1,,,48,100
82752,note_on,,,,,112,0,4,,,,,0,,,66,100
82832,note_off,,,,,80,0,4,,,,,0,,,66,100
82844,note_off,,,,,92,0,5,,,,,1,,,48,100
82848,note_on,,,,,4,0,5,,,,,1,,,57,100
82940,note_off,,,,,92,0,5,,,,,1,,,57,100
82944,note_on,,,,,4,0,5,,,,,1,,,46,100
82944,note_on,,,,,112,0,4,,,,,0,,,67,100
83036,note_off,,,,,92,0,4,,,,,0,,,67,100
83040,note_on,,,,,4,0,4,,,,,0,,,62,100
83072,note_off,,,,,128,0,5,,,,,1,,,46,100
83132,note_off,,,,,92,0,4,,,,,0,,,62,100
83136,note_on,,,,,4,0,4,,,,,0,,,58,100
83228,note_off,,,,,92,0,4,,,,,0,,,58,100
83232,note_on,,,,,4,0,4,,,,,0,,,55,100
83324,note_off,,,,,92,0,4,,,,,0,,,55,100
83328,note_on,,,,,4,0,4,,,,,0,,,58,100
83420,note_off,,,,,92,0,4,,,,,0,,,58,100
83424,note_on,,,,,4,0,4,,,,,0,,,62,100
83516,note_off,,,,,92,0,4,,,,,0,,,62,100
83520,note_on,,,,,448,0,5,,,,,1,,,51,100
83520,note_on,,,,,4,0,4,,,,,0,,,67,100
83600,note_off,,,,,80,0,4,,,,,0,,,67,100
83612,note_off,,,,,92,0,5,,,,,1,,,51,100
83616,note_on,,,,,4,0,5,,,,,1,,,60,100
83708,note_off,,,,,92,0,5,,,,,1,,,60,100
83712,note_on,,,,,112,0,4,,,,,0,,,74,100
83712,note_on,,,,,4,0,5,,,,,1,,,50,100
83792,note_off,,,,,80,0,4,,,,,0,,,74,100
83804,note_off,,,,,92,0,5,,,,,1,,,50,100
83808,note_on,,,,,4,0,5,,,,,1,,,58,100
83900,note_off,,,,,92,0,5,,,,,1,,,58,100
83904,note_on,,,,,4,0,5,,,,,1,,,48,100
83904,note_on,,,,,112,0,4,,,,,0,,,66,100
83984,note_off,,,,,80,0,4,,,,,0,,,66,100
83996,note_off,,,,,92,0,5,,,,,1,,,48,100
84000,note_on,,,,,4,0,5,,,,,1,,,57,100
84092,note_off,,,,,92,0,5,,,,,1,,,57,100
84096,note_on,,,,,112,0,4,,,,,0,,,67,100
84096,note_on,,,,,4,0,5,,,,,1,,,46,100
84188,note_off,,,,,92,0,4,,,,,0,,,67,100
84192,note_on,,,,,4,0,4,,,,,0,,,62,100
84224,note_off,,,,,128,0,5,,,,,1,,,46,100
84284,note_off,,,,,92,0,4,,,,,0,,,62,100
84288,note_on,,,,,4,0,4,,,,,0,,,58,100
84380,note_off,,,,,92,0,4,,,,,0,,,58,100
84384,note_on,,,,,4,0,4,,,,,0,,,55,100
84476,note_off,,,,,92,0,4,,,,,0,,,55,100
84480,note_on,,,,,4,0,4,,,,,0,,,58,100
84572,note_off,,,,,92,0,4,,,,,0,,,58,100
84576,note_on,,,,,4,0,4,,,,,0,,,62,100
84668,note_off,,,,,92,0,4,,,,,0,,,62,100
84672,note_on,,,,,4,0,4,,,,,0,,,79,100
84672,note_on,,,,,448,0,5,,,,,1,,,64,100
84752,note_off,,,,,80,0,4,,,,,0,,,79,100
84764,note_off,,,,,92,0,5,,,,,1,,,64,100
84768,note_on,,,,,4,0,5,,,,,1,,,72,100
84860,note_off,,,,,92,0,5,,,,,1,,,72,100
84864,note_on,,,,,112,0,4,,,,,0,,,78,100
84864,note_on,,,,,4,0,5,,,,,1,,,62,100
84944,note_off,,,,,80,0,4,,,,,0,,,78,100
84956,note_off,,,,,92,0,5,,,,,1,,,62,100
84960,note_on,,,,,4,0,5,,,,,1,,,71,100
85052,note_off,,,,,92,0,5,,,,,1,,,71,100
85056,note_on,,,,,112,0,4,,,,,0,,,76,100
85056,note_on,,,,,4,0,5,,,,,1,,,60,100
85136,note_off,,,,,80,0,4,,,,,0,,,76,100
85148,note_off,,,,,92,0,5,,,,,1,,,60,100
85152,note_on,,,,,4,0,5,,,,,1,,,69,100
85244,note_off,,,,,92,0,5,,,,,1,,,69,100
85248,note_on,,,,,112,0,4,,,,,0,,,74,100
85248,note_on,,,,,4,0,5,,,,,1,,,59,100
85328,note_off,,,,,80,0,4,,,,,0,,,74,100
85340,note_off,,,,,92,0,5,,,,,1,,,59,100
85344,note_on,,,,,4,0,5,,,,,1,,,67,100
85436,note_off,,,,,92,0,5,,,,,1,,,67,100
85440,note_on,,,,,4,0,5,,,,,1,,,57,100
85440,note_on,,,,,112,0,4,,,,,0,,,72,100
85520,note_off,,,,,80,0,4,,,,,0,,,72,100
85532,note_off,,,,,92,0,5,,,,,1,,,57,100
85536,note_on,,,,,4,0,5,,,,,1,,,66,100
85628,note_off,,,,,92,0,5,,,,,1,,,66,100
85632,note_on,,,,,4,0,5,,,,,1,,,55,100
85632,note_on,,,,,112,0,4,,,,,0,,,71,100
85712,note_off,,,,,80,0,4,,,,,0,,,71,100
85724,note_off,,,,,92,0,5,,,,,1,,,55,100
85728,note_on,,,,,4,0,5,,,,,1,,,67,100
85820,note_off,,,,,92,0,5,,,,,1,,,67,100
85824,note_on,,,,,112,0,4,,,,,0,,,72,100
85824,note_on,,,,,4,0,5,,,,,1,,,60,100
85916,note_off,,,,,92,0,4,,,,,0,,,72,100
85920,note_on,,,,,4,0,4,,,,,0,,,69,100
86012,note_off,,,,,92,0,4,,,,,0,,,69,100
86012,note_off,,,,,188,0,5,,,,,1,,,60,100
86016,note_on,,,,,4,0,4,,,,,0,,,71,100
86016,note_on,,,,,4,0,5,,,,,1,,,62,100
86096,note_off,,,,,80,0,5,,,,,1,,,62,100
86108,note_off,,,,,92,0,4,,,,,0,,,71,100
86112,note_on,,,,,4,0,4,,,,,0,,,67,100
86204,note_off,,,,,92,0,4,,,,,0,,,67,100
86208,note_on,,,,,112,0,5,,,,,1,,,50,100
86208,note_on,,,,,4,0,4,,,,,0,,,69,100
86288,note_off,,,,,80,0,5,,,,,1,,,50,100
86300,note_off,,,,,92,0,4,,,,,0,,,69,100
86304,note_on,,,,,4,0,4,,,,,0,,,66,100
86396,note_off,,,,,92,0,4,,,,,0,,,66,100
86400,note_on,,,,,4,0,4,,,,,0,,,67,100
86400,note_on,,,,,112,0,5,,,,,1,,,52,100
86480,note_off,,,,,80,0,4,,,,,0,,,67,100
86492,note_off,,,,,92,0,5,,,,,1,,,52,100
86496,note_on,,,,,4,0,5,,,,,1,,,60,100
86588,note_off,,,,,92,0,5,,,,,1,,,60,100
86592,note_on,,,,,112,0,4,,,,,0,,,66,100
86592,note_on,,,,,4,0,5,,,,,1,,,50,100
86672,note_off,,,,,80,0,4,,,,,0,,,66,100
86684,note_off,,,,,92,0,5,,,,,1,,,50,100
86688,note_on,,,,,4,0,5,,,,,1,,,59,100
86780,note_off,,,,,92,0,5,,,,,1,,,59,100
86784,note_on,,,,,112,0,4,,,,,0,,,64,100
86784,note_on,,,,,4,0,5,,,,,1,,,48,100
86864,note_off,,,,,80,0,4,,,,,0,,,64,100
86876,note_off,,,,,92,0,5,,,,,1,,,48,100
86880,note_on,,,,,4,0,5,,,,,1,,,57,100
86972,note_off,,,,,92,0,5,,,,,1,,,57,100
86976,note_on,,,,,4,0,5,,,,,1,,,47,100
86976,note_on,,,,,112,0,4,,,,,0,,,62,100
87056,note_off,,,,,80,0,4,,,,,0,,,62,100
87068,note_off,,,,,92,0,5,,,,,1,,,47,100
87072,note_on,,,,,4,0,5,,,,,1,,,55,100
87164,note_off,,,,,92,0,5,,,,,1,,,55,100
87168,note_on,,,,,4,0,5,,,,,1,,,45,100
87168,note_on,,,,,112,0,4,,,,,0,,,60,100
87248,note_off,,,,,80,0,4,,,,,0,,,60,100
87260,note_off,,,,,92,0,5,,,,,1,,,45,100
87264,note_on,,,,,4,0,5,,,,,1,,,54,100
87356,note_off,,,,,92,0,5,,,,,1,,,54,100
87360,note_on,,,,,4,0,5,,,,,1,,,43,100
87360,note_on,,,,,112,0,4,,,,,0,,,59,100
87440,note_off,,,,,80,0,4,,,,,0,,,59,100
87452,note_off,,,,,92,0,5,,,,,1,,,43,100
87456,note_on,,,,,4,0,5,,,,,1,,,55,100
87548,note_off,,,,,92,0,5,,,,,1,,,55,100
87552,note_on,,,,,4,0,5,,,,,1,,,48,100
87552,note_on,,,,,112,0,4,,,,,0,,,57,100
87644,note_off,,,,,92,0,4,,,,,0,,,57,100
87648,set_tempo,,,,,14496,1,0,,571428,,,,,,,
87648,note_on,,,,,4,0,4,,,,,0,,,60,100
87696,set_tempo,,,,,48,1,0,,574162,,,,,,,
87740,note_off,,,,,92,0,4,,,,,0,,,60,100
87740,note_off,,,,,188,0,5,,,,,1,,,48,100
87744,note_on,,,,,4,0,5,,,,,1,,,50,100
87744,set_tempo,,,,,48,1,0,,576923,,,,,,,
87744,note_on,,,,,4,0,4,,,,,0,,,59,100
87792,set_tempo,,,,,48,1,0,,579710,,,,,,,
87824,note_off,,,,,80,0,5,,,,,1,,,50,100
87836,note_off,,,,,92,0,4,,,,,0,,,59,100
87840,note_on,,,,,4,0,4,,,,,0,,,67,100
87840,set_tempo,,,,,48,1,0,,582524,,,,,,,
87888,set_tempo,,,,,48,1,0,,585365,,,,,,,
87932,note_off,,,,,92,0,4,,,,,0,,,67,100
87936,set_tempo,,,,,48,1,0,,588235,,,,,,,
87936,note_on,,,,,4,0,4,,,,,0,,,57,100
87936,note_on,,,,,112,0,5,,,,,1,,,38,100
87984,set_tempo,,,,,48,1,0,,591133,,,,,,,
88016,note_off,,,,,80,0,5,,,,,1,,,38,100
88028,note_off,,,,,92,0,4,,,,,0,,,57,100
88032,set_tempo,,,,,48,1,0,,594059,,,,,,,
88032,note_on,,,,,4,0,4,,,,,0,,,66,100
88080,set_tempo,,,,,48,1,0,,597014,,,,,,,
88096,note_off,,,,,64,0,4,,,,,0,,,66,100
88128,set_tempo,,,,,48,1,0,,571428,,,,,,,
88128,note_on,,,,,112,0,5,,,,,1,,,43,100
88128,note_on,,,,,32,0,4,,,,,0,,,67,100
88204,set_tempo,,,,,76,1,0,,574162,,,,,,,
88220,note_off,,,,,92,0,4,,,,,0,,,67,100
88224,note_on,,,,,4,0,4,,,,,0,,,62,100
88280,set_tempo,,,,,76,1,0,,576923,,,,,,,
88316,note_off,,,,,92,0,4,,,,,0,,,62,100
88320,note_on,,,,,4,0,4,,,,,0,,,59,100
88358,set_tempo,,,,,78,1,0,,579710,,,,,,,
88412,note_off,,,,,92,0,4,,,,,0,,,59,100
88416,note_on,,,,,4,0,4,,,,,0,,,55,100
88434,set_tempo,,,,,76,1,0,,582524,,,,,,,
88508,note_off,,,,,92,0,4,,,,,0,,,55,100
88512,note_on,,,,,4,0,4,,,,,0,,,59,100
88512,note_off,,,,,384,0,5,,,,,1,,,43,100
88512,set_tempo,,,,,78,1,0,,585365,,,,,,,
88588,set_tempo,,,,,76,1,0,,588235,,,,,,,
88604,note_off,,,,,92,0,4,,,,,0,,,59,100
88608,note_on,,,,,4,0,4,,,,,0,,,62,100
88664,set_tempo,,,,,76,1,0,,591133,,,,,,,
88700,note_off,,,,,92,0,4,,,,,0,,,62,100
88704,note_on,,,,,192,0,5,,,,,1,,,43,100
88704,note_on,,,,,4,0,4,,,,,0,,,67,100
88742,set_tempo,,,,,78,1,0,,594059,,,,,,,
88796,note_off,,,,,92,0,4,,,,,0,,,67,100
88800,note_on,,,,,4,0,4,,,,,0,,,62,100
88818,set_tempo,,,,,76,1,0,,597014,,,,,,,
88892,note_off,,,,,92,0,4,,,,,0,,,62,100
88896,note_on,,,,,4,0,4,,,,,0,,,71,100
88896,set_tempo,,,,,78,1,0,,600000,,,,,,,
88914,set_tempo,,,,,18,1,0,,603015,,,,,,,
88934,set_tempo,,,,,20,1,0,,606060,,,,,,,
88952,set_tempo,,,,,18,1,0,,609137,,,,,,,
88972,set_tempo,,,,,20,1,0,,612244,,,,,,,
88988,note_off,,,,,92,0,4,,,,,0,,,71,100
88992,set_tempo,,,,,20,1,0,,615384,,,,,,,
88992,note_on,,,,,4,0,4,,,,,0,,,67,100
89010,set_tempo,,,,,18,1,0,,618556,,,,,,,
89030,set_tempo,,,,,20,1,0,,621761,,,,,,,
89048,set_tempo,,,,,18,1,0,,625000,,,,,,,
89068,set_tempo,,,,,20,1,0,,628272,,,,,,,
89084,note_off,,,,,92,0,4,,,,,0,,,67,100
89088,set_tempo,,,,,20,1,0,,631578,,,,,,,
89088,note_off,,,,,384,0,5,,,,,1,,,43,100
89088,note_on,,,,,4,0,4,,,,,0,,,74,100
89094,set_tempo,,,,,6,1,0,,634920,,,,,,,
89100,set_tempo,,,,,6,1,0,,638297,,,,,,,
89106,set_tempo,,,,,6,1,0,,641711,,,,,,,
89112,set_tempo,,,,,6,1,0,,645161,,,,,,,
89120,set_tempo,,,,,8,1,0,,648648,,,,,,,
89126,set_tempo,,,,,6,1,0,,652173,,,,,,,
89132,set_tempo,,,,,6,1,0,,655737,,,,,,,
89138,set_tempo,,,,,6,1,0,,659340,,,,,,,
89144,set_tempo,,,,,6,1,0,,662983,,,,,,,
89152,set_tempo,,,,,8,1,0,,666666,,,,,,,
89158,set_tempo,,,,,6,1,0,,670391,,,,,,,
89164,set_tempo,,,,,6,1,0,,674157,,,,,,,
89170,set_tempo,,,,,6,1,0,,677966,,,,,,,
89176,set_tempo,,,,,6,1,0,,681818,,,,,,,
89180,note_off,,,,,92,0,4,,,,,0,,,74,100
89184,set_tempo,,,,,8,1,0,,685714,,,,,,,
89184,note_on,,,,,4,0,4,,,,,0,,,62,100
89190,set_tempo,,,,,6,1,0,,689655,,,,,,,
89196,set_tempo,,,,,6,1,0,,693641,,,,,,,
89202,set_tempo,,,,,6,1,0,,697674,,,,,,,
89208,set_tempo,,,,,6,1,0,,701754,,,,,,,
89216,set_tempo,,,,,8,1,0,,705882,,,,,,,
89222,set_tempo,,,,,6,1,0,,710059,,,,,,,
89228,set_tempo,,,,,6,1,0,,714285,,,,,,,
89234,set_tempo,,,,,6,1,0,,718562,,,,,,,
89240,set_tempo,,,,,6,1,0,,722891,,,,,,,
89248,set_tempo,,,,,8,1,0,,727272,,,,,,,
89254,set_tempo,,,,,6,1,0,,731707,,,,,,,
89260,set_tempo,,,,,6,1,0,,736196,,,,,,,
89266,set_tempo,,,,,6,1,0,,740740,,,,,,,
89272,set_tempo,,,,,6,1,0,,745341,,,,,,,
89276,note_off,,,,,92,0,4,,,,,0,,,62,100
89280,set_tempo,,,,,8,1,0,,750000,,,,,,,
89280,end_of_track,,,,,0,1,0,,,,,,,,,
89280,note_on,,,,,4,0,4,,,,,0,,,67,100
89280,note_on,,,,,192,0,5,,,,,1,,,43,100
89664,end_of_track,,,,,0,1,5,,,,,,,,,
89664,note_off,,,,,384,0,5,,,,,1,,,43,100
89664,note_off,,,,,384,0,4,,,,,0,,,67,100
90432,end_of_track,,,,,0,1,4,,,,,,,,,
90432,program_change,,,,,768,0,4,,,,,0,6,,,
