tick,type,numerator,denominator,clocks_per_click,notated_32nd_notes_per_beat,time,meta,track,tempo,program,channel,control,value,note,velocity
0,time_signature,4,4,24,8,0,1,0,,,,,,,
0,end_of_track,,,,,0,1,6,,,,,,,
0,track_name,,,,,0,1,6,,,,,,,
0,end_of_track,,,,,0,1,5,,,,,,,
0,track_name,,,,,0,1,5,,,,,,,
0,end_of_track,,,,,0,1,4,,,,,,,
0,track_name,,,,,0,1,4,,,,,,,
0,end_of_track,,,,,0,1,3,,,,,,,
0,track_name,,,,,0,1,3,,,,,,,
0,end_of_track,,,,,0,1,2,,,,,,,
0,track_name,,,,,0,1,2,,,,,,,
0,track_name,,,,,0,1,7,,,,,,,
0,note_on,,,,,0,0,1,,,0,,,40,59
0,control_change,,,,,0,0,1,,,0,7,127,,
0,program_change,,,,,0,0,1,,0,0,,,,
0,track_name,,,,,0,1,1,,,,,,,
0,end_of_track,,,,,0,1,7,,,,,,,
0,set_tempo,,,,,0,1,0,250000,,,,,,
0,marker,,,,,0,1,0,,,,,,,
231,note_on,,,,,231,0,1,,,0,,,76,70
346,note_off,,,,,115,0,1,,,0,,,76,64
354,note_on,,,,,8,0,1,,,0,,,80,63
473,note_on,,,,,119,0,1,,,0,,,76,62
480,note_off,,,,,7,0,1,,,0,,,40,64
484,note_off,,,,,4,0,1,,,0,,,80,64
698,note_off,,,,,214,0,1,,,0,,,76,64
732,note_on,,,,,34,0,1,,,0,,,71,62
936,note_off,,,,,204,0,1,,,0,,,71,64
948,note_on,,,,,12,0,1,,,0,,,68,74
1188,note_off,,,,,240,0,1,,,0,,,68,64
1199,note_on,,,,,11,0,1,,,0,,,80,68
1200,note_on,,,,,1,0,1,,,0,,,64,42
1214,note_on,,,,,14,0,1,,,0,,,76,70
1320,note_off,,,,,106,0,1,,,0,,,64,64
1320,note_on,,,,,0,0,1,,,0,,,68,44
1440,note_on,,,,,0,0,1,,,0,,,64,40
1440,note_off,,,,,120,0,1,,,0,,,68,64
1555,note_off,,,,,115,0,1,,,0,,,76,64
1680,note_off,,,,,125,0,1,,,0,,,64,64
1680,note_on,,,,,0,0,1,,,0,,,59,45
1704,note_on,,,,,24,0,1,,,0,,,75,47
1713,note_on,,,,,9,0,1,,,0,,,78,58
1750,note_off,,,,,37,0,1,,,0,,,80,64
1763,note_off,,,,,13,0,1,,,0,,,75,64
1920,note_off,,,,,157,0,1,,,0,,,59,64
1920,note_on,,,,,0,0,1,,,0,,,76,59
1920,note_on,,,,,0,0,1,,,0,,,56,54
1936,note_off,,,,,16,0,1,,,0,,,78,64
2022,note_off,,,,,86,0,1,,,0,,,76,64
2147,note_on,,,,,125,0,1,,,0,,,83,70
2147,note_on,,,,,0,0,1,,,0,,,80,63
2160,note_off,,,,,13,0,1,,,0,,,56,64
2160,note_on,,,,,0,0,1,,,0,,,52,39
2280,note_off,,,,,120,0,1,,,0,,,52,64
2280,note_on,,,,,0,0,1,,,0,,,56,42
2400,note_off,,,,,120,0,1,,,0,,,56,64
2400,note_on,,,,,0,0,1,,,0,,,52,67
2638,note_off,,,,,238,0,1,,,0,,,80,64
2640,note_on,,,,,0,0,1,,,0,,,47,52
2640,note_off,,,,,2,0,1,,,0,,,52,64
2644,note_off,,,,,4,0,1,,,0,,,83,64
2655,note_on,,,,,11,0,1,,,0,,,81,59
2670,note_on,,,,,15,0,1,,,0,,,78,55
2880,note_off,,,,,210,0,1,,,0,,,47,64
2880,note_on,,,,,0,0,1,,,0,,,40,47
2936,note_off,,,,,56,0,1,,,0,,,78,64
3005,note_on,,,,,69,0,1,,,0,,,80,58
3016,note_off,,,,,11,0,1,,,0,,,81,64
3104,note_off,,,,,88,0,1,,,0,,,80,64
3120,note_off,,,,,16,0,1,,,0,,,40,64
3120,note_on,,,,,0,0,1,,,0,,,52,59
3130,note_on,,,,,10,0,1,,,0,,,78,47
3238,note_on,,,,,108,0,1,,,0,,,80,58
3279,note_off,,,,,41,0,1,,,0,,,78,64
3360,note_on,,,,,0,0,1,,,0,,,54,50
3360,note_off,,,,,81,0,1,,,0,,,52,64
3363,note_off,,,,,3,0,1,,,0,,,80,64
3376,note_on,,,,,13,0,1,,,0,,,83,70
3497,note_off,,,,,121,0,1,,,0,,,83,64
3506,note_on,,,,,9,0,1,,,0,,,81,47
3600,note_off,,,,,94,0,1,,,0,,,54,64
3600,note_on,,,,,0,0,1,,,0,,,47,47
3618,note_on,,,,,18,0,1,,,0,,,80,58
3638,note_off,,,,,20,0,1,,,0,,,81,64
3744,note_on,,,,,106,0,1,,,0,,,78,47
3754,note_off,,,,,10,0,1,,,0,,,80,64
3840,note_on,,,,,0,0,1,,,0,,,40,39
3840,note_off,,,,,86,0,1,,,0,,,47,64
3854,note_off,,,,,14,0,1,,,0,,,78,64
3871,note_on,,,,,17,0,1,,,0,,,81,32
3972,note_on,,,,,101,0,1,,,0,,,80,47
3983,note_off,,,,,11,0,1,,,0,,,81,64
4080,note_on,,,,,0,0,1,,,0,,,52,37
4080,note_off,,,,,97,0,1,,,0,,,40,64
4093,note_on,,,,,0,0,1,,,0,,,78,55
4093,note_off,,,,,13,0,1,,,0,,,80,64
4208,note_on,,,,,115,0,1,,,0,,,80,68
4249,note_off,,,,,41,0,1,,,0,,,78,64
4320,note_on,,,,,0,0,1,,,0,,,54,35
4320,note_off,,,,,71,0,1,,,0,,,52,64
4333,note_on,,,,,0,0,1,,,0,,,83,75
4333,note_off,,,,,13,0,1,,,0,,,80,64
4463,note_off,,,,,130,0,1,,,0,,,83,64
4470,note_on,,,,,7,0,1,,,0,,,81,44
4560,note_off,,,,,90,0,1,,,0,,,54,64
4560,note_on,,,,,0,0,1,,,0,,,47,35
4579,note_on,,,,,19,0,1,,,0,,,80,63
4620,note_off,,,,,41,0,1,,,0,,,81,64
4694,note_on,,,,,74,0,1,,,0,,,78,68
4731,note_off,,,,,37,0,1,,,0,,,80,64
4800,note_off,,,,,69,0,1,,,0,,,47,64
4800,note_on,,,,,0,0,1,,,0,,,40,46
4821,note_on,,,,,21,0,1,,,0,,,81,59
4856,note_off,,,,,35,0,1,,,0,,,78,64
4932,note_on,,,,,76,0,1,,,0,,,80,74
4964,note_off,,,,,32,0,1,,,0,,,81,64
5040,note_on,,,,,0,0,1,,,0,,,52,42
5040,note_off,,,,,76,0,1,,,0,,,40,64
5059,note_on,,,,,19,0,1,,,0,,,78,74
5074,note_off,,,,,15,0,1,,,0,,,80,64
5165,note_on,,,,,91,0,1,,,0,,,80,74
5210,note_off,,,,,45,0,1,,,0,,,78,64
5280,note_off,,,,,70,0,1,,,0,,,52,64
5280,note_on,,,,,0,0,1,,,0,,,54,35
5294,note_on,,,,,14,0,1,,,0,,,83,70
5305,note_off,,,,,11,0,1,,,0,,,80,64
5420,note_on,,,,,115,0,1,,,0,,,81,59
5430,note_off,,,,,10,0,1,,,0,,,83,64
5520,note_on,,,,,0,0,1,,,0,,,47,35
5520,note_off,,,,,90,0,1,,,0,,,54,64
5534,note_on,,,,,14,0,1,,,0,,,80,63
5575,note_off,,,,,41,0,1,,,0,,,81,64
5631,note_on,,,,,56,0,1,,,0,,,78,63
5662,note_off,,,,,31,0,1,,,0,,,80,64
5752,note_off,,,,,90,0,1,,,0,,,78,64
5760,note_on,,,,,0,0,1,,,0,,,80,68
5760,note_off,,,,,8,0,1,,,0,,,47,64
5760,note_on,,,,,0,0,1,,,0,,,40,35
5880,note_on,,,,,120,0,1,,,0,,,76,67
5903,note_off,,,,,23,0,1,,,0,,,80,64
5967,note_off,,,,,64,0,1,,,0,,,76,64
6000,note_on,,,,,33,0,1,,,0,,,71,62
6069,note_off,,,,,69,0,1,,,0,,,71,64
6120,note_on,,,,,51,0,1,,,0,,,68,63
6240,note_off,,,,,120,0,1,,,0,,,40,64
6240,note_on,,,,,0,0,1,,,0,,,64,60
6285,note_off,,,,,45,0,1,,,0,,,68,64
6329,note_off,,,,,44,0,1,,,0,,,64,64
6360,note_on,,,,,31,0,1,,,0,,,59,63
6431,note_off,,,,,71,0,1,,,0,,,59,64
6480,note_on,,,,,49,0,1,,,0,,,56,62
6600,note_on,,,,,120,0,1,,,0,,,52,70
6625,note_off,,,,,25,0,1,,,0,,,56,64
6650,note_off,,,,,25,0,1,,,0,,,52,64
6720,note_on,,,,,70,0,1,,,0,,,40,56
7200,note_off,,,,,480,0,1,,,0,,,40,64
7407,note_on,,,,,207,0,1,,,0,,,80,68
7440,note_on,,,,,33,0,1,,,0,,,68,58
7440,note_on,,,,,0,0,1,,,0,,,64,40
7498,note_off,,,,,58,0,1,,,0,,,80,64
7515,note_on,,,,,17,0,1,,,0,,,76,50
7597,note_off,,,,,82,0,1,,,0,,,76,64
7620,note_off,,,,,0,0,1,,,0,,,68,64
7620,note_off,,,,,23,0,1,,,0,,,64,64
7655,note_on,,,,,35,0,1,,,0,,,82,68
7680,note_on,,,,,0,0,1,,,0,,,66,38
7680,note_on,,,,,25,0,1,,,0,,,63,47
7770,note_off,,,,,0,0,1,,,0,,,63,64
7770,note_off,,,,,90,0,1,,,0,,,66,64
7880,note_off,,,,,110,0,1,,,0,,,82,64
7920,note_on,,,,,40,0,1,,,0,,,63,40
7920,note_on,,,,,0,0,1,,,0,,,66,50
7930,note_on,,,,,10,0,1,,,0,,,83,31
8010,note_off,,,,,0,0,1,,,0,,,63,64
8010,note_off,,,,,80,0,1,,,0,,,66,64
8160,note_on,,,,,0,0,1,,,0,,,68,58
8160,note_on,,,,,150,0,1,,,0,,,64,44
8176,note_on,,,,,16,0,1,,,0,,,71,50
8250,note_off,,,,,0,0,1,,,0,,,64,64
8250,note_off,,,,,74,0,1,,,0,,,68,64
8350,note_off,,,,,100,0,1,,,0,,,83,64
8400,note_on,,,,,50,0,1,,,0,,,64,33
8400,note_on,,,,,0,0,1,,,0,,,68,47
8403,note_on,,,,,3,0,1,,,0,,,80,74
8490,note_off,,,,,0,0,1,,,0,,,64,64
8490,note_off,,,,,87,0,1,,,0,,,68,64
8502,note_on,,,,,12,0,1,,,0,,,76,70
8517,note_off,,,,,15,0,1,,,0,,,80,64
8634,note_on,,,,,117,0,1,,,0,,,77,75
8640,note_on,,,,,6,0,1,,,0,,,63,44
8640,note_on,,,,,0,0,1,,,0,,,66,55
8642,note_off,,,,,2,0,1,,,0,,,76,64
8730,note_off,,,,,0,0,1,,,0,,,63,64
8730,note_off,,,,,88,0,1,,,0,,,66,64
8871,note_on,,,,,141,0,1,,,0,,,78,74
8880,note_on,,,,,0,0,1,,,0,,,66,55
8880,note_on,,,,,9,0,1,,,0,,,63,55
8900,note_off,,,,,20,0,1,,,0,,,77,64
8970,note_off,,,,,0,0,1,,,0,,,63,64
8970,note_off,,,,,70,0,1,,,0,,,66,64
9004,note_off,,,,,34,0,1,,,0,,,71,64
9120,note_on,,,,,0,0,1,,,0,,,64,44
9120,note_on,,,,,0,0,1,,,0,,,71,70
9120,note_on,,,,,116,0,1,,,0,,,68,58
9210,note_off,,,,,0,0,1,,,0,,,68,64
9210,note_off,,,,,90,0,1,,,0,,,64,64
9267,note_off,,,,,57,0,1,,,0,,,78,64
9357,note_on,,,,,90,0,1,,,0,,,80,68
9360,note_on,,,,,0,0,1,,,0,,,64,47
9360,note_on,,,,,3,0,1,,,0,,,68,47
9450,note_off,,,,,0,0,1,,,0,,,68,64
9450,note_off,,,,,90,0,1,,,0,,,64,64
9459,note_on,,,,,0,0,1,,,0,,,76,62
9459,note_off,,,,,9,0,1,,,0,,,80,64
9545,note_off,,,,,86,0,1,,,0,,,76,64
9591,note_on,,,,,46,0,1,,,0,,,82,55
9600,note_on,,,,,0,0,1,,,0,,,66,27
9600,note_on,,,,,9,0,1,,,0,,,63,22
9690,note_off,,,,,0,0,1,,,0,,,63,64
9690,note_off,,,,,90,0,1,,,0,,,66,64
9807,note_off,,,,,117,0,1,,,0,,,82,64
9840,note_on,,,,,0,0,1,,,0,,,66,25
9840,note_on,,,,,33,0,1,,,0,,,63,27
9861,note_on,,,,,21,0,1,,,0,,,83,39
9930,note_off,,,,,0,0,1,,,0,,,63,64
9930,note_off,,,,,69,0,1,,,0,,,66,64
9984,note_off,,,,,54,0,1,,,0,,,71,64
10080,note_on,,,,,0,0,1,,,0,,,68,23
10080,note_on,,,,,96,0,1,,,0,,,64,18
10098,note_on,,,,,18,0,1,,,0,,,71,39
10170,note_off,,,,,72,0,1,,,0,,,68,64
10170,note_off,,,,,0,0,1,,,0,,,64,64
10245,note_off,,,,,75,0,1,,,0,,,83,64
10320,note_on,,,,,0,0,1,,,0,,,64,22
10320,note_on,,,,,75,0,1,,,0,,,68,23
10336,note_on,,,,,16,0,1,,,0,,,80,55
10410,note_off,,,,,74,0,1,,,0,,,64,64
10410,note_off,,,,,0,0,1,,,0,,,68,64
10414,note_off,,,,,4,0,1,,,0,,,80,64
10444,note_on,,,,,30,0,1,,,0,,,76,29
10545,note_off,,,,,101,0,1,,,0,,,76,64
10560,note_on,,,,,15,0,1,,,0,,,63,22
10560,note_on,,,,,0,0,1,,,0,,,66,23
10565,note_on,,,,,5,0,1,,,0,,,77,41
10650,note_off,,,,,0,0,1,,,0,,,63,64
10650,note_off,,,,,85,0,1,,,0,,,66,64
10800,note_on,,,,,150,0,1,,,0,,,63,22
10800,note_on,,,,,0,0,1,,,0,,,66,27
10818,note_on,,,,,18,0,1,,,0,,,78,55
10828,note_off,,,,,10,0,1,,,0,,,77,64
10866,note_off,,,,,38,0,1,,,0,,,71,64
10890,note_off,,,,,0,0,1,,,0,,,63,64
10890,note_off,,,,,24,0,1,,,0,,,66,64
11040,note_on,,,,,0,0,1,,,0,,,68,23
11040,note_on,,,,,0,0,1,,,0,,,71,50
11040,note_on,,,,,150,0,1,,,0,,,64,21
11130,note_off,,,,,0,0,1,,,0,,,64,64
11130,note_off,,,,,90,0,1,,,0,,,68,64
11178,note_off,,,,,48,0,1,,,0,,,78,64
11262,note_on,,,,,84,0,1,,,0,,,80,63
11280,note_on,,,,,18,0,1,,,0,,,64,19
11280,note_on,,,,,0,0,1,,,0,,,68,23
11370,note_off,,,,,0,0,1,,,0,,,64,64
11370,note_off,,,,,90,0,1,,,0,,,68,64
11380,note_on,,,,,10,0,1,,,0,,,76,59
11390,note_off,,,,,10,0,1,,,0,,,80,64
11496,note_off,,,,,106,0,1,,,0,,,76,64
11509,note_on,,,,,13,0,1,,,0,,,83,67
11520,note_on,,,,,0,0,1,,,0,,,66,35
11520,note_on,,,,,11,0,1,,,0,,,63,35
11640,note_on,,,,,120,0,1,,,0,,,78,50
11646,note_off,,,,,6,0,1,,,0,,,83,64
11700,note_off,,,,,0,0,1,,,0,,,63,64
11700,note_off,,,,,54,0,1,,,0,,,66,64
11759,note_off,,,,,59,0,1,,,0,,,78,64
11760,note_on,,,,,1,0,1,,,0,,,59,40
11760,note_on,,,,,0,0,1,,,0,,,76,56
11880,note_on,,,,,120,0,1,,,0,,,75,63
11904,note_off,,,,,24,0,1,,,0,,,71,64
11905,note_off,,,,,1,0,1,,,0,,,76,64
11940,note_off,,,,,35,0,1,,,0,,,59,64
11997,note_off,,,,,57,0,1,,,0,,,75,64
12000,note_on,,,,,3,0,1,,,0,,,61,40
12000,note_on,,,,,0,0,1,,,0,,,78,68
12117,note_off,,,,,117,0,1,,,0,,,78,64
12120,note_on,,,,,3,0,1,,,0,,,76,52
12180,note_off,,,,,60,0,1,,,0,,,61,64
12240,note_on,,,,,60,0,1,,,0,,,54,43
12240,note_on,,,,,0,0,1,,,0,,,75,63
12250,note_off,,,,,10,0,1,,,0,,,76,64
12348,note_off,,,,,98,0,1,,,0,,,75,64
12360,note_on,,,,,12,0,1,,,0,,,73,63
12420,note_off,,,,,60,0,1,,,0,,,54,64
12455,note_off,,,,,35,0,1,,,0,,,73,64
12480,note_on,,,,,25,0,1,,,0,,,59,45
12483,note_on,,,,,3,0,1,,,0,,,76,70
12600,note_on,,,,,117,0,1,,,0,,,75,68
12615,note_off,,,,,15,0,1,,,0,,,76,64
12660,note_off,,,,,45,0,1,,,0,,,59,64
12716,note_on,,,,,56,0,1,,,0,,,73,68
12720,note_on,,,,,4,0,1,,,0,,,63,43
12727,note_off,,,,,7,0,1,,,0,,,75,64
12826,note_on,,,,,99,0,1,,,0,,,75,80
12837,note_off,,,,,11,0,1,,,0,,,73,64
12900,note_off,,,,,63,0,1,,,0,,,63,64
12949,note_off,,,,,49,0,1,,,0,,,75,64
12949,note_on,,,,,0,0,1,,,0,,,78,68
12960,note_on,,,,,11,0,1,,,0,,,61,46
13075,note_on,,,,,115,0,1,,,0,,,76,50
13086,note_off,,,,,11,0,1,,,0,,,78,64
13140,note_off,,,,,54,0,1,,,0,,,61,64
13198,note_on,,,,,58,0,1,,,0,,,75,63
13200,note_on,,,,,2,0,1,,,0,,,54,43
13215,note_off,,,,,15,0,1,,,0,,,76,64
13310,note_on,,,,,95,0,1,,,0,,,73,68
13321,note_off,,,,,11,0,1,,,0,,,75,64
13380,note_off,,,,,59,0,1,,,0,,,54,64
13399,note_off,,,,,19,0,1,,,0,,,73,64
13431,note_on,,,,,32,0,1,,,0,,,76,75
13440,note_on,,,,,9,0,1,,,0,,,59,45
13550,note_on,,,,,110,0,1,,,0,,,75,68
13578,note_off,,,,,28,0,1,,,0,,,76,64
13620,note_off,,,,,42,0,1,,,0,,,59,64
13664,note_off,,,,,44,0,1,,,0,,,75,64
13673,note_on,,,,,9,0,1,,,0,,,73,63
13680,note_on,,,,,7,0,1,,,0,,,63,47
13777,note_on,,,,,97,0,1,,,0,,,75,74
13788,note_off,,,,,11,0,1,,,0,,,73,64
13860,note_off,,,,,72,0,1,,,0,,,63,64
13898,note_on,,,,,38,0,1,,,0,,,78,68
13913,note_off,,,,,15,0,1,,,0,,,75,64
13920,note_on,,,,,7,0,1,,,0,,,61,46
14008,note_on,,,,,88,0,1,,,0,,,76,59
14036,note_off,,,,,28,0,1,,,0,,,78,64
14100,note_off,,,,,64,0,1,,,0,,,61,64
14133,note_on,,,,,33,0,1,,,0,,,75,38
14160,note_on,,,,,27,0,1,,,0,,,54,43
14163,note_off,,,,,3,0,1,,,0,,,76,64
14237,note_on,,,,,74,0,1,,,0,,,73,58
14252,note_off,,,,,15,0,1,,,0,,,75,64
14315,note_off,,,,,63,0,1,,,0,,,73,64
14340,note_off,,,,,25,0,1,,,0,,,54,64
14379,note_on,,,,,39,0,1,,,0,,,83,67
14400,note_on,,,,,21,0,1,,,0,,,47,52
14496,note_on,,,,,96,0,1,,,0,,,78,63
14526,note_off,,,,,30,0,1,,,0,,,83,64
14626,note_on,,,,,100,0,1,,,0,,,75,68
14688,note_off,,,,,62,0,1,,,0,,,78,64
14734,note_on,,,,,0,0,1,,,0,,,71,56
14734,note_off,,,,,46,0,1,,,0,,,75,64
14760,note_off,,,,,26,0,1,,,0,,,47,64
14785,note_off,,,,,25,0,1,,,0,,,71,64
14846,note_on,,,,,61,0,1,,,0,,,71,50
14973,note_on,,,,,127,0,1,,,0,,,66,68
15010,note_off,,,,,37,0,1,,,0,,,71,64
15094,note_on,,,,,84,0,1,,,0,,,63,63
15166,note_off,,,,,72,0,1,,,0,,,66,64
15198,note_off,,,,,32,0,1,,,0,,,63,64
15198,note_on,,,,,0,0,1,,,0,,,59,66
15267,note_off,,,,,69,0,1,,,0,,,59,64
15306,note_on,,,,,39,0,1,,,0,,,59,60
15427,note_on,,,,,121,0,1,,,0,,,54,68
15451,note_off,,,,,24,0,1,,,0,,,59,64
15535,note_on,,,,,84,0,1,,,0,,,51,74
15593,note_off,,,,,58,0,1,,,0,,,54,64
15658,note_on,,,,,65,0,1,,,0,,,47,75
15665,note_off,,,,,7,0,1,,,0,,,51,64
15701,note_off,,,,,36,0,1,,,0,,,47,64
15764,note_on,,,,,63,0,1,,,0,,,47,59
15883,note_on,,,,,119,0,1,,,0,,,42,68
15906,note_off,,,,,23,0,1,,,0,,,47,64
15986,note_on,,,,,80,0,1,,,0,,,39,80
16008,note_off,,,,,22,0,1,,,0,,,42,64
16107,note_on,,,,,99,0,1,,,0,,,35,86
16114,note_off,,,,,7,0,1,,,0,,,39,64
16189,note_off,,,,,75,0,1,,,0,,,35,64
16233,note_on,,,,,44,0,1,,,0,,,35,70
16320,note_on,,,,,87,0,1,,,0,,,35,32
16320,set_tempo,,,,,16320,1,0,500000,,,,,,
16680,note_off,,,,,360,0,1,,,0,,,35,64
16790,note_off,,,,,110,0,1,,,0,,,35,64
17280,note_on,,,,,0,0,1,,,0,,,49,74
17280,note_on,,,,,490,0,1,,,0,,,37,74
17280,set_tempo,,,,,960,1,0,250000,,,,,,
17483,control_change,,,,,203,0,1,,,0,64,64,,
17508,control_change,,,,,25,0,1,,,0,64,96,,
17524,note_on,,,,,16,0,1,,,0,,,83,62
17632,control_change,,,,,108,0,1,,,0,64,127,,
17632,note_on,,,,,0,0,1,,,0,,,78,55
17643,note_on,,,,,11,0,1,,,0,,,74,44
17661,note_off,,,,,18,0,1,,,0,,,83,64
17693,note_off,,,,,32,0,1,,,0,,,74,64
17707,note_off,,,,,14,0,1,,,0,,,78,64
17760,note_off,,,,,53,0,1,,,0,,,49,64
17760,note_off,,,,,0,0,1,,,0,,,37,64
17777,note_on,,,,,17,0,1,,,0,,,77,70
17777,note_on,,,,,0,0,1,,,0,,,73,63
17814,note_off,,,,,37,0,1,,,0,,,73,64
17828,note_off,,,,,14,0,1,,,0,,,77,64
18026,note_on,,,,,198,0,1,,,0,,,83,70
18124,note_on,,,,,98,0,1,,,0,,,78,74
18138,note_on,,,,,14,0,1,,,0,,,74,50
18149,note_off,,,,,11,0,1,,,0,,,83,64
18170,note_off,,,,,21,0,1,,,0,,,74,64
18197,note_off,,,,,27,0,1,,,0,,,78,64
18240,note_on,,,,,0,0,1,,,0,,,49,74
18240,note_on,,,,,43,0,1,,,0,,,37,74
18274,note_on,,,,,0,0,1,,,0,,,77,75
18274,note_on,,,,,34,0,1,,,0,,,73,68
18297,note_off,,,,,23,0,1,,,0,,,73,64
18304,note_off,,,,,7,0,1,,,0,,,77,64
18516,note_on,,,,,212,0,1,,,0,,,83,70
18594,note_off,,,,,78,0,1,,,0,,,83,64
18628,note_on,,,,,34,0,1,,,0,,,74,70
18628,note_on,,,,,0,0,1,,,0,,,78,80
18685,note_off,,,,,57,0,1,,,0,,,74,64
18696,note_off,,,,,11,0,1,,,0,,,78,64
18720,note_off,,,,,0,0,1,,,0,,,37,64
18720,note_off,,,,,24,0,1,,,0,,,49,64
18758,note_on,,,,,0,0,1,,,0,,,73,68
18758,note_on,,,,,38,0,1,,,0,,,77,86
18787,note_off,,,,,29,0,1,,,0,,,73,64
18806,note_off,,,,,19,0,1,,,0,,,77,64
18979,note_on,,,,,173,0,1,,,0,,,83,75
19086,note_on,,,,,107,0,1,,,0,,,78,74
19098,note_off,,,,,12,0,1,,,0,,,83,64
19098,note_on,,,,,0,0,1,,,0,,,74,56
19120,note_off,,,,,22,0,1,,,0,,,74,64
19157,note_off,,,,,37,0,1,,,0,,,78,64
19200,note_on,,,,,43,0,1,,,0,,,37,74
19200,note_on,,,,,0,0,1,,,0,,,49,74
19221,note_on,,,,,21,0,1,,,0,,,77,80
19221,note_on,,,,,0,0,1,,,0,,,73,80
19250,note_off,,,,,29,0,1,,,0,,,73,64
19273,note_off,,,,,23,0,1,,,0,,,77,64
19483,note_on,,,,,210,0,1,,,0,,,83,70
19503,control_change,,,,,20,0,1,,,0,64,96,,
19519,control_change,,,,,16,0,1,,,0,64,64,,
19533,control_change,,,,,14,0,1,,,0,64,0,,
19588,note_on,,,,,55,0,1,,,0,,,74,62
19597,note_off,,,,,9,0,1,,,0,,,83,64
19647,note_off,,,,,50,0,1,,,0,,,74,64
19680,note_off,,,,,0,0,1,,,0,,,37,64
19680,note_off,,,,,33,0,1,,,0,,,49,64
19722,note_on,,,,,42,0,1,,,0,,,73,80
19807,note_off,,,,,85,0,1,,,0,,,73,64
19843,note_on,,,,,36,0,1,,,0,,,81,67
19907,note_off,,,,,64,0,1,,,0,,,81,64
19975,note_on,,,,,68,0,1,,,0,,,71,75
20094,note_on,,,,,119,0,1,,,0,,,80,68
20110,note_off,,,,,16,0,1,,,0,,,71,64
20130,control_change,,,,,20,0,1,,,0,64,64,,
20142,note_off,,,,,12,0,1,,,0,,,80,64
20160,note_on,,,,,0,0,1,,,0,,,37,74
20160,note_on,,,,,0,0,1,,,0,,,49,74
20160,control_change,,,,,18,0,1,,,0,64,96,,
20190,control_change,,,,,30,0,1,,,0,64,127,,
20440,note_on,,,,,250,0,1,,,0,,,81,70
20534,note_off,,,,,94,0,1,,,0,,,81,64
20543,note_on,,,,,9,0,1,,,0,,,73,68
20596,note_off,,,,,53,0,1,,,0,,,73,64
20640,note_off,,,,,44,0,1,,,0,,,49,64
20640,note_off,,,,,0,0,1,,,0,,,37,64
20675,note_on,,,,,35,0,1,,,0,,,71,75
20739,note_off,,,,,64,0,1,,,0,,,71,64
20792,note_on,,,,,53,0,1,,,0,,,80,74
20849,note_off,,,,,57,0,1,,,0,,,80,64
20920,note_on,,,,,71,0,1,,,0,,,69,75
21036,note_on,,,,,116,0,1,,,0,,,78,80
21045,note_off,,,,,9,0,1,,,0,,,69,64
21088,note_off,,,,,43,0,1,,,0,,,78,64
21104,control_change,,,,,16,0,1,,,0,64,96,,
21120,note_on,,,,,16,0,1,,,0,,,37,74
21120,note_on,,,,,0,0,1,,,0,,,49,74
21122,control_change,,,,,2,0,1,,,0,64,0,,
21316,control_change,,,,,194,0,1,,,0,64,64,,
21341,control_change,,,,,25,0,1,,,0,64,96,,
21378,control_change,,,,,37,0,1,,,0,64,127,,
21400,note_on,,,,,22,0,1,,,0,,,80,74
21485,note_off,,,,,85,0,1,,,0,,,80,64
21498,note_on,,,,,13,0,1,,,0,,,71,59
21555,note_off,,,,,57,0,1,,,0,,,71,64
21600,note_off,,,,,0,0,1,,,0,,,37,64
21600,note_off,,,,,45,0,1,,,0,,,49,64
21633,note_on,,,,,33,0,1,,,0,,,69,80
21715,note_off,,,,,82,0,1,,,0,,,69,64
21751,note_on,,,,,36,0,1,,,0,,,78,63
21804,note_off,,,,,53,0,1,,,0,,,78,64
21868,note_on,,,,,64,0,1,,,0,,,68,74
21982,note_on,,,,,0,0,1,,,0,,,77,70
21982,note_off,,,,,114,0,1,,,0,,,68,64
22025,control_change,,,,,43,0,1,,,0,64,64,,
22034,note_off,,,,,9,0,1,,,0,,,77,64
22043,control_change,,,,,9,0,1,,,0,64,0,,
22080,note_on,,,,,37,0,1,,,0,,,42,74
22103,note_on,,,,,23,0,1,,,0,,,78,94
22162,control_change,,,,,59,0,1,,,0,64,64,,
22180,control_change,,,,,18,0,1,,,0,64,96,,
22196,control_change,,,,,16,0,1,,,0,64,127,,
22214,note_on,,,,,18,0,1,,,0,,,73,74
22246,note_off,,,,,32,0,1,,,0,,,78,64
22326,note_on,,,,,80,0,1,,,0,,,69,59
22335,note_off,,,,,9,0,1,,,0,,,73,64
22390,note_off,,,,,55,0,1,,,0,,,69,64
22447,note_on,,,,,57,0,1,,,0,,,66,68
22560,note_off,,,,,113,0,1,,,0,,,42,64
22579,note_on,,,,,0,0,1,,,0,,,61,72
22579,note_off,,,,,19,0,1,,,0,,,66,64
22668,note_off,,,,,89,0,1,,,0,,,61,64
22680,note_on,,,,,12,0,1,,,0,,,57,50
22759,note_off,,,,,79,0,1,,,0,,,57,64
22810,note_on,,,,,51,0,1,,,0,,,54,55
22930,note_off,,,,,120,0,1,,,0,,,54,64
22937,note_on,,,,,7,0,1,,,0,,,49,74
22983,note_off,,,,,46,0,1,,,0,,,49,64
23040,set_tempo,,,,,5760,1,0,500000,,,,,,
23040,note_on,,,,,57,0,1,,,0,,,42,68
23092,control_change,,,,,52,0,1,,,0,64,96,,
23108,control_change,,,,,16,0,1,,,0,64,0,,
23520,note_off,,,,,412,0,1,,,0,,,42,64
24000,set_tempo,,,,,960,1,0,250000,,,,,,
24000,note_on,,,,,0,0,1,,,0,,,47,45
24000,note_on,,,,,480,0,1,,,0,,,35,42
24257,control_change,,,,,257,0,1,,,0,64,64,,
24276,note_on,,,,,19,0,1,,,0,,,81,31
24282,control_change,,,,,6,0,1,,,0,64,96,,
24312,control_change,,,,,30,0,1,,,0,64,127,,
24393,note_on,,,,,81,0,1,,,0,,,72,22
24404,note_on,,,,,11,0,1,,,0,,,76,33
24415,note_off,,,,,11,0,1,,,0,,,81,64
24438,note_off,,,,,23,0,1,,,0,,,72,64
24452,note_off,,,,,14,0,1,,,0,,,76,64
24480,note_off,,,,,28,0,1,,,0,,,47,64
24480,note_off,,,,,0,0,1,,,0,,,35,64
24523,note_on,,,,,43,0,1,,,0,,,71,46
24523,note_on,,,,,0,0,1,,,0,,,75,49
24559,note_off,,,,,36,0,1,,,0,,,71,64
24566,note_off,,,,,7,0,1,,,0,,,75,64
24776,note_on,,,,,210,0,1,,,0,,,81,40
24865,note_off,,,,,89,0,1,,,0,,,81,64
24876,note_on,,,,,11,0,1,,,0,,,72,35
24878,note_on,,,,,2,0,1,,,0,,,76,44
24926,note_off,,,,,48,0,1,,,0,,,72,64
24933,note_off,,,,,7,0,1,,,0,,,76,64
24960,note_on,,,,,27,0,1,,,0,,,35,44
24960,note_on,,,,,0,0,1,,,0,,,47,47
25013,note_on,,,,,53,0,1,,,0,,,75,50
25013,note_on,,,,,0,0,1,,,0,,,71,54
25047,note_off,,,,,34,0,1,,,0,,,71,64
25054,note_off,,,,,7,0,1,,,0,,,75,64
25250,note_on,,,,,196,0,1,,,0,,,81,39
25318,note_off,,,,,68,0,1,,,0,,,81,64
25357,note_on,,,,,0,0,1,,,0,,,76,45
25357,note_on,,,,,39,0,1,,,0,,,72,36
25409,note_off,,,,,52,0,1,,,0,,,76,64
25409,note_off,,,,,0,0,1,,,0,,,72,64
25440,note_off,,,,,31,0,1,,,0,,,47,64
25440,note_off,,,,,0,0,1,,,0,,,35,64
25487,note_on,,,,,47,0,1,,,0,,,75,52
25498,note_on,,,,,11,0,1,,,0,,,71,52
25523,note_off,,,,,25,0,1,,,0,,,71,64
25542,note_off,,,,,19,0,1,,,0,,,75,64
25740,note_on,,,,,198,0,1,,,0,,,81,46
25815,note_off,,,,,75,0,1,,,0,,,81,64
25843,note_on,,,,,28,0,1,,,0,,,72,41
25854,note_on,,,,,11,0,1,,,0,,,76,46
25900,note_off,,,,,0,0,1,,,0,,,72,64
25900,note_off,,,,,46,0,1,,,0,,,76,64
25920,note_on,,,,,0,0,1,,,0,,,47,50
25920,note_on,,,,,20,0,1,,,0,,,35,47
25977,note_on,,,,,57,0,1,,,0,,,75,58
25989,note_on,,,,,12,0,1,,,0,,,71,53
26020,note_off,,,,,31,0,1,,,0,,,71,64
26030,note_off,,,,,10,0,1,,,0,,,75,64
26083,control_change,,,,,53,0,1,,,0,64,96,,
26099,control_change,,,,,16,0,1,,,0,64,64,,
26115,control_change,,,,,16,0,1,,,0,64,0,,
26235,note_on,,,,,120,0,1,,,0,,,81,47
26335,note_off,,,,,100,0,1,,,0,,,81,64
26342,note_on,,,,,7,0,1,,,0,,,72,42
26400,note_off,,,,,58,0,1,,,0,,,47,64
26400,note_off,,,,,0,0,1,,,0,,,35,64
26401,note_off,,,,,1,0,1,,,0,,,72,64
26467,note_on,,,,,66,0,1,,,0,,,71,51
26522,note_off,,,,,55,0,1,,,0,,,71,64
26570,note_on,,,,,48,0,1,,,0,,,79,52
26634,note_off,,,,,64,0,1,,,0,,,79,64
26642,control_change,,,,,8,0,1,,,0,64,64,,
26690,control_change,,,,,48,0,1,,,0,64,96,,
26695,note_on,,,,,5,0,1,,,0,,,69,52
26758,control_change,,,,,63,0,1,,,0,64,127,,
26816,note_on,,,,,0,0,1,,,0,,,78,52
26816,note_off,,,,,58,0,1,,,0,,,69,64
26862,note_off,,,,,46,0,1,,,0,,,78,64
26880,note_on,,,,,0,0,1,,,0,,,47,53
26880,note_on,,,,,18,0,1,,,0,,,35,49
26966,control_change,,,,,86,0,1,,,0,64,96,,
26982,control_change,,,,,16,0,1,,,0,64,64,,
26995,control_change,,,,,13,0,1,,,0,64,0,,
27124,note_on,,,,,129,0,1,,,0,,,79,49
27192,control_change,,,,,68,0,1,,,0,64,64,,
27197,note_off,,,,,5,0,1,,,0,,,79,64
27219,control_change,,,,,22,0,1,,,0,64,96,,
27229,note_on,,,,,10,0,1,,,0,,,71,50
27269,control_change,,,,,40,0,1,,,0,64,127,,
27297,note_off,,,,,28,0,1,,,0,,,71,64
27354,note_on,,,,,57,0,1,,,0,,,69,57
27360,note_off,,,,,0,0,1,,,0,,,35,64
27360,note_off,,,,,6,0,1,,,0,,,47,64
27420,note_off,,,,,60,0,1,,,0,,,69,64
27473,note_on,,,,,53,0,1,,,0,,,78,49
27521,note_off,,,,,48,0,1,,,0,,,78,64
27594,note_on,,,,,73,0,1,,,0,,,67,58
27703,note_on,,,,,109,0,1,,,0,,,76,47
27730,note_off,,,,,27,0,1,,,0,,,67,64
27767,note_off,,,,,37,0,1,,,0,,,76,64
27782,control_change,,,,,15,0,1,,,0,64,96,,
27798,control_change,,,,,16,0,1,,,0,64,0,,
27840,note_on,,,,,42,0,1,,,0,,,35,52
27840,note_on,,,,,0,0,1,,,0,,,47,55
28066,note_on,,,,,226,0,1,,,0,,,78,51
28145,note_off,,,,,79,0,1,,,0,,,78,64
28173,note_on,,,,,28,0,1,,,0,,,69,56
28195,control_change,,,,,22,0,1,,,0,64,64,,
28211,control_change,,,,,16,0,1,,,0,64,96,,
28236,control_change,,,,,25,0,1,,,0,64,127,,
28239,note_off,,,,,3,0,1,,,0,,,69,64
28303,note_on,,,,,64,0,1,,,0,,,67,56
28320,note_off,,,,,17,0,1,,,0,,,47,64
28320,note_off,,,,,0,0,1,,,0,,,35,64
28410,note_on,,,,,90,0,1,,,0,,,76,46
28426,note_off,,,,,16,0,1,,,0,,,67,64
28469,note_off,,,,,43,0,1,,,0,,,76,64
28540,note_on,,,,,71,0,1,,,0,,,66,52
28627,note_on,,,,,87,0,1,,,0,,,75,48
28637,control_change,,,,,10,0,1,,,0,64,96,,
28642,note_off,,,,,5,0,1,,,0,,,66,64
28662,control_change,,,,,20,0,1,,,0,64,0,,
28695,note_off,,,,,33,0,1,,,0,,,75,64
28775,note_on,,,,,80,0,1,,,0,,,76,54
28799,control_change,,,,,24,0,1,,,0,64,64,,
28800,note_on,,,,,1,0,1,,,0,,,40,65
28829,control_change,,,,,29,0,1,,,0,64,96,,
28854,control_change,,,,,25,0,1,,,0,64,127,,
28882,note_on,,,,,28,0,1,,,0,,,71,56
28923,note_off,,,,,41,0,1,,,0,,,76,64
29010,note_on,,,,,87,0,1,,,0,,,67,65
29035,note_off,,,,,25,0,1,,,0,,,71,64
29108,note_off,,,,,73,0,1,,,0,,,67,64
29117,note_on,,,,,9,0,1,,,0,,,64,57
29194,note_off,,,,,77,0,1,,,0,,,64,64
29256,note_on,,,,,62,0,1,,,0,,,59,66
29280,note_off,,,,,24,0,1,,,0,,,40,64
29361,note_off,,,,,81,0,1,,,0,,,59,64
29368,note_on,,,,,7,0,1,,,0,,,55,75
29493,note_on,,,,,0,0,1,,,0,,,52,75
29493,note_off,,,,,125,0,1,,,0,,,55,64
29520,note_on,,,,,27,0,1,,,0,,,52,33
29545,note_off,,,,,25,0,1,,,0,,,52,64
29640,note_on,,,,,0,0,1,,,0,,,47,40
29640,note_off,,,,,95,0,1,,,0,,,52,64
29700,control_change,,,,,60,0,1,,,0,64,96,,
29716,control_change,,,,,16,0,1,,,0,64,64,,
29731,control_change,,,,,15,0,1,,,0,64,0,,
29760,note_off,,,,,29,0,1,,,0,,,47,64
29760,note_on,,,,,0,0,1,,,0,,,40,60
30240,note_off,,,,,480,0,1,,,0,,,40,64
30480,note_on,,,,,0,0,1,,,0,,,67,23
30480,note_on,,,,,240,0,1,,,0,,,64,47
30506,note_on,,,,,26,0,1,,,0,,,79,62
30609,note_on,,,,,103,0,1,,,0,,,76,56
30618,note_off,,,,,9,0,1,,,0,,,79,64
30660,note_off,,,,,0,0,1,,,0,,,64,64
30660,note_off,,,,,42,0,1,,,0,,,67,64
30712,note_off,,,,,52,0,1,,,0,,,76,64
30720,note_on,,,,,8,0,1,,,0,,,66,33
30720,note_on,,,,,0,0,1,,,0,,,62,19
30739,note_on,,,,,19,0,1,,,0,,,82,63
30900,note_off,,,,,0,0,1,,,0,,,66,64
30900,note_off,,,,,161,0,1,,,0,,,62,64
30960,note_on,,,,,0,0,1,,,0,,,62,24
30960,note_on,,,,,60,0,1,,,0,,,66,35
30981,note_on,,,,,0,0,1,,,0,,,83,47
30981,note_off,,,,,21,0,1,,,0,,,82,64
31099,note_off,,,,,118,0,1,,,0,,,83,64
31140,note_off,,,,,0,0,1,,,0,,,66,64
31140,note_off,,,,,41,0,1,,,0,,,62,64
31200,note_on,,,,,0,0,1,,,0,,,67,27
31200,note_on,,,,,60,0,1,,,0,,,64,36
31380,note_off,,,,,0,0,1,,,0,,,64,64
31380,note_off,,,,,180,0,1,,,0,,,67,64
31430,note_on,,,,,50,0,1,,,0,,,79,67
31440,note_on,,,,,10,0,1,,,0,,,67,29
31440,note_on,,,,,0,0,1,,,0,,,64,21
31539,note_off,,,,,99,0,1,,,0,,,79,64
31553,note_on,,,,,14,0,1,,,0,,,76,62
31620,note_off,,,,,67,0,1,,,0,,,64,64
31620,note_off,,,,,0,0,1,,,0,,,67,64
31676,note_off,,,,,56,0,1,,,0,,,76,64
31676,note_on,,,,,0,0,1,,,0,,,77,56
31680,note_on,,,,,4,0,1,,,0,,,66,35
31680,note_on,,,,,0,0,1,,,0,,,62,23
31860,note_off,,,,,0,0,1,,,0,,,66,64
31860,note_off,,,,,180,0,1,,,0,,,62,64
31920,note_on,,,,,0,0,1,,,0,,,66,37
31920,note_on,,,,,60,0,1,,,0,,,62,35
31936,note_on,,,,,16,0,1,,,0,,,78,44
31966,note_off,,,,,30,0,1,,,0,,,77,64
32045,note_off,,,,,79,0,1,,,0,,,78,64
32100,note_off,,,,,55,0,1,,,0,,,66,64
32100,note_off,,,,,0,0,1,,,0,,,62,64
32160,note_on,,,,,60,0,1,,,0,,,67,33
32160,note_on,,,,,0,0,1,,,0,,,64,27
32340,note_off,,,,,180,0,1,,,0,,,64,64
32340,note_off,,,,,0,0,1,,,0,,,67,64
32399,note_on,,,,,59,0,1,,,0,,,79,62
32400,note_on,,,,,1,0,1,,,0,,,67,37
32400,note_on,,,,,0,0,1,,,0,,,64,35
32501,note_on,,,,,101,0,1,,,0,,,76,59
32533,note_off,,,,,32,0,1,,,0,,,79,64
32580,note_off,,,,,47,0,1,,,0,,,64,64
32580,note_off,,,,,0,0,1,,,0,,,67,64
32640,note_on,,,,,60,0,1,,,0,,,62,35
32640,note_on,,,,,0,0,1,,,0,,,66,35
32643,note_on,,,,,3,0,1,,,0,,,82,74
32675,note_off,,,,,32,0,1,,,0,,,76,64
32820,note_off,,,,,0,0,1,,,0,,,62,64
32820,note_off,,,,,145,0,1,,,0,,,66,64
32880,note_on,,,,,60,0,1,,,0,,,66,41
32880,note_on,,,,,0,0,1,,,0,,,62,24
32884,note_on,,,,,4,0,1,,,0,,,83,56
32910,note_off,,,,,26,0,1,,,0,,,82,64
32953,note_off,,,,,43,0,1,,,0,,,83,64
33060,note_off,,,,,107,0,1,,,0,,,62,64
33060,note_off,,,,,0,0,1,,,0,,,66,64
33120,note_on,,,,,0,0,1,,,0,,,64,31
33120,note_on,,,,,60,0,1,,,0,,,67,27
33300,note_off,,,,,180,0,1,,,0,,,64,64
33300,note_off,,,,,0,0,1,,,0,,,67,64
33352,note_on,,,,,52,0,1,,,0,,,79,62
33360,note_on,,,,,0,0,1,,,0,,,64,31
33360,note_on,,,,,8,0,1,,,0,,,67,29
33450,note_off,,,,,90,0,1,,,0,,,79,64
33461,note_on,,,,,11,0,1,,,0,,,76,59
33540,note_off,,,,,0,0,1,,,0,,,67,64
33540,note_off,,,,,79,0,1,,,0,,,64,64
33596,note_on,,,,,56,0,1,,,0,,,77,56
33600,note_on,,,,,4,0,1,,,0,,,66,37
33600,note_on,,,,,0,0,1,,,0,,,62,25
33607,note_off,,,,,7,0,1,,,0,,,76,64
33780,note_off,,,,,0,0,1,,,0,,,66,64
33780,note_off,,,,,173,0,1,,,0,,,62,64
33840,note_on,,,,,0,0,1,,,0,,,62,24
33840,note_on,,,,,60,0,1,,,0,,,66,41
33856,note_on,,,,,16,0,1,,,0,,,78,47
33883,note_off,,,,,27,0,1,,,0,,,77,64
33929,note_off,,,,,46,0,1,,,0,,,78,64
34020,note_off,,,,,0,0,1,,,0,,,66,64
34020,note_off,,,,,91,0,1,,,0,,,62,64
34080,note_on,,,,,60,0,1,,,0,,,62,27
34080,note_on,,,,,0,0,1,,,0,,,59,38
34260,note_off,,,,,0,0,1,,,0,,,62,64
34260,note_off,,,,,180,0,1,,,0,,,59,64
34294,note_on,,,,,34,0,1,,,0,,,83,67
34320,note_on,,,,,0,0,1,,,0,,,59,40
34320,note_on,,,,,26,0,1,,,0,,,62,30
34401,note_off,,,,,81,0,1,,,0,,,83,64
34423,note_on,,,,,22,0,1,,,0,,,74,52
34500,note_off,,,,,77,0,1,,,0,,,59,64
34500,note_off,,,,,0,0,1,,,0,,,62,64
34556,note_off,,,,,56,0,1,,,0,,,74,64
34560,note_on,,,,,0,0,1,,,0,,,61,33
34560,note_on,,,,,4,0,1,,,0,,,64,35
34579,note_on,,,,,19,0,1,,,0,,,75,58
34740,note_off,,,,,161,0,1,,,0,,,61,64
34740,note_off,,,,,0,0,1,,,0,,,64,64
34800,note_on,,,,,60,0,1,,,0,,,64,31
34800,note_on,,,,,0,0,1,,,0,,,61,29
34822,note_off,,,,,22,0,1,,,0,,,75,64
34822,note_on,,,,,0,0,1,,,0,,,76,47
34893,note_off,,,,,71,0,1,,,0,,,76,64
34980,note_off,,,,,87,0,1,,,0,,,61,64
34980,note_off,,,,,0,0,1,,,0,,,64,64
35040,note_on,,,,,60,0,1,,,0,,,64,31
35040,note_on,,,,,0,0,1,,,0,,,61,36
35040,note_on,,,,,0,0,1,,,0,,,54,30
35220,note_off,,,,,0,0,1,,,0,,,64,64
35220,note_off,,,,,0,0,1,,,0,,,61,64
35220,note_off,,,,,180,0,1,,,0,,,54,64
35278,note_on,,,,,58,0,1,,,0,,,83,62
35280,note_on,,,,,0,0,1,,,0,,,61,36
35280,note_on,,,,,0,0,1,,,0,,,54,28
35280,note_on,,,,,2,0,1,,,0,,,64,31
35379,note_on,,,,,99,0,1,,,0,,,73,58
35390,note_off,,,,,11,0,1,,,0,,,83,64
35434,note_off,,,,,44,0,1,,,0,,,73,64
35460,note_off,,,,,26,0,1,,,0,,,54,64
35460,note_off,,,,,0,0,1,,,0,,,64,64
35460,note_off,,,,,0,0,1,,,0,,,61,64
35497,note_on,,,,,37,0,1,,,0,,,73,58
35520,note_on,,,,,23,0,1,,,0,,,47,39
35700,note_off,,,,,180,0,1,,,0,,,47,64
35734,note_off,,,,,34,0,1,,,0,,,73,64
35748,note_on,,,,,14,0,1,,,0,,,75,55
35760,note_on,,,,,12,0,1,,,0,,,59,33
35940,note_off,,,,,180,0,1,,,0,,,59,64
35981,note_off,,,,,41,0,1,,,0,,,75,64
35994,note_on,,,,,13,0,1,,,0,,,71,50
36000,note_on,,,,,6,0,1,,,0,,,59,30
36180,note_off,,,,,180,0,1,,,0,,,59,64
36240,note_on,,,,,60,0,1,,,0,,,47,30
36250,note_on,,,,,10,0,1,,,0,,,78,50
36418,note_off,,,,,168,0,1,,,0,,,78,64
36420,note_off,,,,,2,0,1,,,0,,,47,64
36480,note_on,,,,,60,0,1,,,0,,,52,52
36494,note_on,,,,,14,0,1,,,0,,,78,63
36601,note_off,,,,,107,0,1,,,0,,,78,64
36615,note_on,,,,,14,0,1,,,0,,,76,56
36722,note_on,,,,,107,0,1,,,0,,,80,68
36733,note_off,,,,,11,0,1,,,0,,,76,64
36852,note_on,,,,,119,0,1,,,0,,,78,63
36879,note_off,,,,,27,0,1,,,0,,,80,64
36959,note_off,,,,,80,0,1,,,0,,,78,64
36973,note_on,,,,,14,0,1,,,0,,,76,59
37020,note_off,,,,,47,0,1,,,0,,,52,64
37050,note_off,,,,,30,0,1,,,0,,,71,64
37078,note_off,,,,,28,0,1,,,0,,,76,64
37096,note_on,,,,,18,0,1,,,0,,,75,55
37200,note_on,,,,,104,0,1,,,0,,,52,52
37221,note_on,,,,,21,0,1,,,0,,,73,58
37260,note_off,,,,,39,0,1,,,0,,,75,64
37324,note_on,,,,,64,0,1,,,0,,,71,50
37335,note_off,,,,,11,0,1,,,0,,,73,64
37380,note_off,,,,,45,0,1,,,0,,,52,64
37438,note_off,,,,,58,0,1,,,0,,,71,64
37440,note_on,,,,,2,0,1,,,0,,,54,47
37447,note_on,,,,,7,0,1,,,0,,,70,63
37620,note_off,,,,,173,0,1,,,0,,,54,64
37680,note_on,,,,,0,0,1,,,0,,,78,58
37680,note_on,,,,,60,0,1,,,0,,,58,55
37693,note_off,,,,,13,0,1,,,0,,,70,64
37860,note_off,,,,,167,0,1,,,0,,,58,64
37903,note_off,,,,,43,0,1,,,0,,,78,64
37920,note_on,,,,,17,0,1,,,0,,,59,51
37928,note_on,,,,,8,0,1,,,0,,,76,59
38038,note_on,,,,,110,0,1,,,0,,,75,63
38070,note_off,,,,,32,0,1,,,0,,,76,64
38100,note_off,,,,,30,0,1,,,0,,,59,64
38156,note_on,,,,,56,0,1,,,0,,,73,63
38160,note_on,,,,,4,0,1,,,0,,,51,50
38174,note_off,,,,,14,0,1,,,0,,,75,64
38238,note_off,,,,,64,0,1,,,0,,,73,64
38257,note_on,,,,,19,0,1,,,0,,,71,52
38340,note_off,,,,,83,0,1,,,0,,,51,64
38352,note_off,,,,,12,0,1,,,0,,,71,64
38386,note_on,,,,,34,0,1,,,0,,,83,67
38400,note_on,,,,,14,0,1,,,0,,,52,56
38498,note_off,,,,,98,0,1,,,0,,,83,64
38646,note_on,,,,,148,0,1,,,0,,,80,63
38888,note_on,,,,,242,0,1,,,0,,,76,50
38909,note_off,,,,,21,0,1,,,0,,,80,64
38940,note_off,,,,,31,0,1,,,0,,,52,64
39120,note_on,,,,,180,0,1,,,0,,,52,59
39130,note_on,,,,,10,0,1,,,0,,,73,55
39141,note_off,,,,,11,0,1,,,0,,,76,64
39184,note_off,,,,,43,0,1,,,0,,,73,64
39300,note_off,,,,,116,0,1,,,0,,,52,64
39360,note_on,,,,,60,0,1,,,0,,,54,55
39360,note_on,,,,,0,0,1,,,0,,,70,55
39540,note_off,,,,,180,0,1,,,0,,,54,64
39590,note_on,,,,,50,0,1,,,0,,,78,58
39600,note_on,,,,,10,0,1,,,0,,,58,50
39609,note_off,,,,,9,0,1,,,0,,,70,64
39780,note_off,,,,,171,0,1,,,0,,,58,64
39789,note_off,,,,,9,0,1,,,0,,,78,64
39827,note_on,,,,,38,0,1,,,0,,,76,62
39840,note_on,,,,,13,0,1,,,0,,,59,48
39937,note_on,,,,,97,0,1,,,0,,,75,68
39973,note_off,,,,,36,0,1,,,0,,,76,64
40020,note_off,,,,,47,0,1,,,0,,,59,64
40060,note_on,,,,,40,0,1,,,0,,,73,68
40080,note_on,,,,,20,0,1,,,0,,,51,50
40100,note_off,,,,,20,0,1,,,0,,,75,64
40169,note_off,,,,,69,0,1,,,0,,,73,64
40183,note_on,,,,,14,0,1,,,0,,,71,59
40260,note_off,,,,,77,0,1,,,0,,,51,64
40309,note_on,,,,,49,0,1,,,0,,,83,70
40320,note_on,,,,,0,0,1,,,0,,,52,47
40320,note_off,,,,,11,0,1,,,0,,,71,64
40404,note_off,,,,,84,0,1,,,0,,,83,64
40573,note_on,,,,,169,0,1,,,0,,,80,80
40803,note_on,,,,,230,0,1,,,0,,,76,56
40840,note_off,,,,,37,0,1,,,0,,,80,64
40860,note_off,,,,,20,0,1,,,0,,,52,64
41040,note_on,,,,,180,0,1,,,0,,,52,50
41045,note_on,,,,,5,0,1,,,0,,,73,58
41059,note_off,,,,,14,0,1,,,0,,,76,64
41086,note_off,,,,,27,0,1,,,0,,,73,64
41220,note_off,,,,,134,0,1,,,0,,,52,64
41273,note_on,,,,,53,0,1,,,0,,,70,63
41280,note_on,,,,,7,0,1,,,0,,,54,40
41321,note_off,,,,,41,0,1,,,0,,,70,64
41460,note_off,,,,,139,0,1,,,0,,,54,64
41512,note_on,,,,,52,0,1,,,0,,,78,80
41520,note_on,,,,,8,0,1,,,0,,,61,42
41521,note_on,,,,,1,0,1,,,0,,,66,68
41700,note_off,,,,,179,0,1,,,0,,,61,64
41729,control_change,,,,,29,0,1,,,0,64,64,,
41760,note_on,,,,,31,0,1,,,0,,,62,52
41763,control_change,,,,,3,0,1,,,0,64,96,,
41793,control_change,,,,,30,0,1,,,0,64,127,,
41940,note_off,,,,,147,0,1,,,0,,,62,64
41955,note_off,,,,,15,0,1,,,0,,,66,64
42000,note_on,,,,,45,0,1,,,0,,,59,54
42005,note_off,,,,,5,0,1,,,0,,,78,64
42101,control_change,,,,,96,0,1,,,0,64,96,,
42114,control_change,,,,,13,0,1,,,0,64,64,,
42130,control_change,,,,,16,0,1,,,0,64,0,,
42180,note_off,,,,,50,0,1,,,0,,,59,64
42217,note_on,,,,,37,0,1,,,0,,,79,62
42226,note_on,,,,,9,0,1,,,0,,,67,56
42240,note_on,,,,,14,0,1,,,0,,,52,62
42274,control_change,,,,,34,0,1,,,0,64,64,,
42290,control_change,,,,,16,0,1,,,0,64,127,,
42420,note_off,,,,,130,0,1,,,0,,,52,64
42457,note_off,,,,,37,0,1,,,0,,,79,64
42466,note_off,,,,,9,0,1,,,0,,,67,64
42470,note_on,,,,,4,0,1,,,0,,,82,68
42480,note_on,,,,,10,0,1,,,0,,,61,51
42481,note_on,,,,,1,0,1,,,0,,,70,47
42660,note_off,,,,,179,0,1,,,0,,,61,64
42710,note_off,,,,,50,0,1,,,0,,,82,64
42712,note_on,,,,,2,0,1,,,0,,,83,70
42720,note_on,,,,,8,0,1,,,0,,,62,50
42721,note_off,,,,,1,0,1,,,0,,,70,64
42723,note_on,,,,,2,0,1,,,0,,,71,50
42900,note_off,,,,,177,0,1,,,0,,,62,64
42952,note_off,,,,,52,0,1,,,0,,,83,64
42960,note_on,,,,,0,0,1,,,0,,,79,75
42960,note_on,,,,,8,0,1,,,0,,,59,51
42960,note_on,,,,,0,0,1,,,0,,,67,67
42963,note_off,,,,,3,0,1,,,0,,,71,64
43140,note_off,,,,,177,0,1,,,0,,,59,64
43165,control_change,,,,,25,0,1,,,0,64,96,,
43184,control_change,,,,,19,0,1,,,0,64,0,,
43195,note_on,,,,,11,0,1,,,0,,,77,70
43200,note_on,,,,,0,0,1,,,0,,,54,58
43200,note_off,,,,,0,0,1,,,0,,,67,64
43200,note_off,,,,,5,0,1,,,0,,,79,64
43204,note_on,,,,,4,0,1,,,0,,,65,62
43250,note_off,,,,,46,0,1,,,0,,,65,64
43268,note_off,,,,,18,0,1,,,0,,,77,64
43366,control_change,,,,,98,0,1,,,0,64,64,,
43380,control_change,,,,,0,0,1,,,0,64,127,,
43380,note_off,,,,,14,0,1,,,0,,,54,64
43440,note_on,,,,,60,0,1,,,0,,,61,51
43455,note_on,,,,,15,0,1,,,0,,,66,68
43466,note_on,,,,,11,0,1,,,0,,,78,86
43620,note_off,,,,,154,0,1,,,0,,,61,64
43680,note_on,,,,,60,0,1,,,0,,,62,44
43860,note_off,,,,,180,0,1,,,0,,,62,64
43870,note_off,,,,,10,0,1,,,0,,,66,64
43920,note_on,,,,,50,0,1,,,0,,,59,48
43931,note_off,,,,,11,0,1,,,0,,,78,64
44100,note_off,,,,,169,0,1,,,0,,,59,64
44121,note_on,,,,,21,0,1,,,0,,,79,52
44130,note_on,,,,,9,0,1,,,0,,,67,39
44155,control_change,,,,,25,0,1,,,0,64,64,,
44160,note_on,,,,,5,0,1,,,0,,,52,44
44175,control_change,,,,,15,0,1,,,0,64,0,,
44340,note_off,,,,,165,0,1,,,0,,,52,64
44358,control_change,,,,,18,0,1,,,0,64,64,,
44361,note_off,,,,,3,0,1,,,0,,,79,64
44370,note_off,,,,,9,0,1,,,0,,,67,64
44374,control_change,,,,,4,0,1,,,0,64,96,,
44383,note_on,,,,,9,0,1,,,0,,,82,63
44394,note_on,,,,,11,0,1,,,0,,,70,40
44400,note_on,,,,,6,0,1,,,0,,,61,42
44406,control_change,,,,,6,0,1,,,0,64,127,,
44580,note_off,,,,,174,0,1,,,0,,,61,64
44623,note_off,,,,,43,0,1,,,0,,,82,64
44634,note_off,,,,,11,0,1,,,0,,,70,64
44640,note_on,,,,,6,0,1,,,0,,,62,34
44645,note_on,,,,,5,0,1,,,0,,,83,56
44659,note_on,,,,,14,0,1,,,0,,,71,31
44820,note_off,,,,,161,0,1,,,0,,,62,64
44875,note_on,,,,,55,0,1,,,0,,,79,44
44880,note_on,,,,,5,0,1,,,0,,,59,45
44885,note_off,,,,,5,0,1,,,0,,,83,64
44887,note_on,,,,,2,0,1,,,0,,,67,36
44899,note_off,,,,,12,0,1,,,0,,,71,64
45060,note_off,,,,,161,0,1,,,0,,,59,64
45103,control_change,,,,,43,0,1,,,0,64,96,,
45115,note_off,,,,,12,0,1,,,0,,,79,64
45117,control_change,,,,,2,0,1,,,0,64,64,,
45120,note_on,,,,,3,0,1,,,0,,,54,50
45124,note_on,,,,,4,0,1,,,0,,,77,41
45127,note_off,,,,,3,0,1,,,0,,,67,64
45138,note_on,,,,,0,0,1,,,0,,,65,13
45138,control_change,,,,,11,0,1,,,0,64,0,,
45165,note_off,,,,,27,0,1,,,0,,,65,64
45172,note_off,,,,,7,0,1,,,0,,,77,64
45300,note_off,,,,,128,0,1,,,0,,,54,64
45322,control_change,,,,,22,0,1,,,0,64,64,,
45338,control_change,,,,,16,0,1,,,0,64,96,,
45352,control_change,,,,,14,0,1,,,0,64,127,,
45360,note_on,,,,,8,0,1,,,0,,,61,48
45363,note_on,,,,,3,0,1,,,0,,,78,68
45379,note_on,,,,,16,0,1,,,0,,,66,44
45540,note_off,,,,,161,0,1,,,0,,,61,64
45600,note_on,,,,,60,0,1,,,0,,,62,44
45685,note_off,,,,,85,0,1,,,0,,,78,64
45696,note_off,,,,,11,0,1,,,0,,,66,64
45780,note_off,,,,,84,0,1,,,0,,,62,64
45840,note_on,,,,,60,0,1,,,0,,,59,54
45997,control_change,,,,,157,0,1,,,0,64,96,,
46013,control_change,,,,,16,0,1,,,0,64,0,,
46020,note_off,,,,,7,0,1,,,0,,,59,64
46068,note_on,,,,,48,0,1,,,0,,,76,67
46080,note_on,,,,,0,0,1,,,0,,,61,44
46080,note_on,,,,,0,0,1,,,0,,,54,44
46080,note_on,,,,,12,0,1,,,0,,,64,33
46081,note_on,,,,,1,0,1,,,0,,,73,58
46084,note_on,,,,,3,0,1,,,0,,,70,38
46134,control_change,,,,,50,0,1,,,0,64,96,,
46148,control_change,,,,,14,0,1,,,0,64,127,,
46298,note_off,,,,,150,0,1,,,0,,,73,64
46305,note_off,,,,,7,0,1,,,0,,,70,64
46369,note_off,,,,,64,0,1,,,0,,,76,64
46440,note_off,,,,,0,0,1,,,0,,,54,64
46440,note_off,,,,,0,0,1,,,0,,,64,64
46440,note_off,,,,,71,0,1,,,0,,,61,64
46458,control_change,,,,,18,0,1,,,0,64,96,,
46476,control_change,,,,,18,0,1,,,0,64,0,,
46560,note_on,,,,,0,0,1,,,0,,,54,40
46560,note_on,,,,,0,0,1,,,0,,,59,51
46560,note_on,,,,,84,0,1,,,0,,,62,41
46563,note_on,,,,,0,0,1,,,0,,,74,59
46563,note_on,,,,,3,0,1,,,0,,,71,41
46601,control_change,,,,,38,0,1,,,0,64,64,,
46617,control_change,,,,,16,0,1,,,0,64,127,,
46651,note_off,,,,,34,0,1,,,0,,,74,64
46658,note_on,,,,,7,0,1,,,0,,,73,55
46740,note_on,,,,,0,0,1,,,0,,,74,70
46740,note_off,,,,,82,0,1,,,0,,,73,64
46870,note_off,,,,,130,0,1,,,0,,,71,64
46920,note_off,,,,,0,0,1,,,0,,,62,64
46920,note_off,,,,,0,0,1,,,0,,,59,64
46920,note_off,,,,,50,0,1,,,0,,,54,64
46952,control_change,,,,,32,0,1,,,0,64,64,,
46968,control_change,,,,,16,0,1,,,0,64,0,,
47040,note_on,,,,,72,0,1,,,0,,,54,55
47066,note_on,,,,,26,0,1,,,0,,,70,40
47073,control_change,,,,,7,0,1,,,0,64,64,,
47078,note_on,,,,,0,0,1,,,0,,,73,74
47078,note_off,,,,,5,0,1,,,0,,,74,64
47103,control_change,,,,,25,0,1,,,0,64,127,,
47144,note_on,,,,,41,0,1,,,0,,,74,39
47155,note_off,,,,,11,0,1,,,0,,,73,64
47215,note_on,,,,,60,0,1,,,0,,,73,74
47235,note_off,,,,,20,0,1,,,0,,,74,64
47280,note_on,,,,,45,0,1,,,0,,,61,42
47460,note_off,,,,,180,0,1,,,0,,,61,64
47518,note_off,,,,,58,0,1,,,0,,,70,64
47520,note_on,,,,,2,0,1,,,0,,,64,39
47627,note_off,,,,,107,0,1,,,0,,,73,64
47677,control_change,,,,,50,0,1,,,0,64,96,,
47696,control_change,,,,,19,0,1,,,0,64,0,,
47700,note_off,,,,,4,0,1,,,0,,,64,64
47753,note_on,,,,,53,0,1,,,0,,,78,68
47760,note_on,,,,,7,0,1,,,0,,,62,39
47764,note_on,,,,,4,0,1,,,0,,,71,50
47810,note_off,,,,,46,0,1,,,0,,,71,64
47860,note_off,,,,,50,0,1,,,0,,,78,64
47916,note_off,,,,,56,0,1,,,0,,,54,64
47940,note_off,,,,,24,0,1,,,0,,,62,64
48000,note_on,,,,,60,0,1,,,0,,,54,47
48010,note_on,,,,,10,0,1,,,0,,,76,59
48019,note_on,,,,,9,0,1,,,0,,,70,32
48030,note_on,,,,,11,0,1,,,0,,,73,47
48042,control_change,,,,,12,0,1,,,0,64,96,,
48063,control_change,,,,,21,0,1,,,0,64,127,,
48240,note_on,,,,,177,0,1,,,0,,,61,48
48252,note_off,,,,,12,0,1,,,0,,,70,64
48291,note_off,,,,,39,0,1,,,0,,,76,64
48300,control_change,,,,,9,0,1,,,0,64,96,,
48318,control_change,,,,,18,0,1,,,0,64,0,,
48346,note_off,,,,,28,0,1,,,0,,,73,64
48420,note_off,,,,,74,0,1,,,0,,,61,64
48444,control_change,,,,,24,0,1,,,0,64,64,,
48457,control_change,,,,,13,0,1,,,0,64,96,,
48466,note_on,,,,,9,0,1,,,0,,,74,59
48473,control_change,,,,,7,0,1,,,0,64,127,,
48475,note_on,,,,,2,0,1,,,0,,,71,31
48480,note_on,,,,,5,0,1,,,0,,,62,39
48562,note_off,,,,,82,0,1,,,0,,,74,64
48569,note_on,,,,,7,0,1,,,0,,,73,55
48631,note_off,,,,,62,0,1,,,0,,,71,64
48637,note_on,,,,,6,0,1,,,0,,,74,50
48660,note_off,,,,,23,0,1,,,0,,,62,64
48665,note_off,,,,,5,0,1,,,0,,,73,64
48720,note_on,,,,,55,0,1,,,0,,,59,45
48780,note_off,,,,,60,0,1,,,0,,,54,64
48817,control_change,,,,,37,0,1,,,0,64,96,,
48833,control_change,,,,,16,0,1,,,0,64,0,,
48900,note_off,,,,,67,0,1,,,0,,,59,64
48957,control_change,,,,,57,0,1,,,0,64,64,,
48960,note_on,,,,,3,0,1,,,0,,,54,55
48977,control_change,,,,,17,0,1,,,0,64,96,,
48977,note_on,,,,,0,0,1,,,0,,,73,63
48988,note_off,,,,,11,0,1,,,0,,,74,64
48995,note_on,,,,,7,0,1,,,0,,,70,29
49000,control_change,,,,,5,0,1,,,0,64,127,,
49200,note_on,,,,,200,0,1,,,0,,,61,48
49380,note_off,,,,,180,0,1,,,0,,,61,64
49410,note_off,,,,,30,0,1,,,0,,,70,64
49440,note_on,,,,,30,0,1,,,0,,,62,44
49584,control_change,,,,,144,0,1,,,0,64,96,,
49600,control_change,,,,,16,0,1,,,0,64,64,,
49611,note_off,,,,,11,0,1,,,0,,,73,64
49618,control_change,,,,,7,0,1,,,0,64,0,,
49620,note_off,,,,,2,0,1,,,0,,,62,64
49636,note_on,,,,,16,0,1,,,0,,,74,59
49647,note_on,,,,,11,0,1,,,0,,,71,50
49680,note_on,,,,,33,0,1,,,0,,,59,43
49684,note_off,,,,,4,0,1,,,0,,,71,64
49700,note_off,,,,,16,0,1,,,0,,,74,64
49800,note_off,,,,,100,0,1,,,0,,,54,64
49860,note_off,,,,,60,0,1,,,0,,,59,64
49900,note_on,,,,,40,0,1,,,0,,,76,50
49912,note_on,,,,,12,0,1,,,0,,,70,35
49920,note_on,,,,,8,0,1,,,0,,,61,54
49923,note_on,,,,,3,0,1,,,0,,,73,44
49944,control_change,,,,,21,0,1,,,0,64,96,,
49960,control_change,,,,,16,0,1,,,0,64,127,,
50100,note_off,,,,,140,0,1,,,0,,,61,64
50160,note_on,,,,,60,0,1,,,0,,,58,40
50176,note_off,,,,,16,0,1,,,0,,,70,64
50204,control_change,,,,,28,0,1,,,0,64,96,,
50217,control_change,,,,,13,0,1,,,0,64,64,,
50233,control_change,,,,,16,0,1,,,0,64,0,,
50236,note_off,,,,,3,0,1,,,0,,,76,64
50258,note_off,,,,,22,0,1,,,0,,,73,64
50340,note_off,,,,,82,0,1,,,0,,,58,64
50400,note_on,,,,,60,0,1,,,0,,,59,48
50402,note_on,,,,,2,0,1,,,0,,,74,56
50404,note_on,,,,,2,0,1,,,0,,,71,36
50496,note_on,,,,,92,0,1,,,0,,,73,44
50507,note_off,,,,,11,0,1,,,0,,,74,64
50566,note_off,,,,,59,0,1,,,0,,,71,64
50580,note_off,,,,,14,0,1,,,0,,,59,64
50580,note_on,,,,,0,0,1,,,0,,,74,62
50594,note_off,,,,,14,0,1,,,0,,,73,64
50640,note_on,,,,,46,0,1,,,0,,,47,23
50820,note_off,,,,,180,0,1,,,0,,,47,64
50826,note_off,,,,,6,0,1,,,0,,,74,64
50880,note_on,,,,,54,0,1,,,0,,,42,47
50979,note_on,,,,,99,0,1,,,0,,,71,52
51074,note_off,,,,,95,0,1,,,0,,,71,64
51114,note_on,,,,,40,0,1,,,0,,,83,32
51160,note_off,,,,,46,0,1,,,0,,,83,64
51212,note_on,,,,,52,0,1,,,0,,,71,47
51240,note_off,,,,,28,0,1,,,0,,,42,64
51346,note_on,,,,,106,0,1,,,0,,,75,58
51358,note_off,,,,,12,0,1,,,0,,,71,64
51360,note_on,,,,,2,0,1,,,0,,,63,55
51405,note_off,,,,,45,0,1,,,0,,,63,64
51420,note_on,,,,,15,0,1,,,0,,,64,49
51423,note_off,,,,,3,0,1,,,0,,,75,64
51454,note_on,,,,,31,0,1,,,0,,,71,56
51465,note_off,,,,,11,0,1,,,0,,,64,64
51480,note_on,,,,,15,0,1,,,0,,,63,58
51525,note_off,,,,,45,0,1,,,0,,,63,64
51560,note_off,,,,,35,0,1,,,0,,,71,64
51597,note_on,,,,,37,0,1,,,0,,,83,50
51600,note_on,,,,,3,0,1,,,0,,,61,48
51655,note_off,,,,,55,0,1,,,0,,,83,64
51690,note_off,,,,,35,0,1,,,0,,,61,64
51703,note_on,,,,,13,0,1,,,0,,,71,56
51720,note_on,,,,,17,0,1,,,0,,,59,56
51810,note_off,,,,,90,0,1,,,0,,,59,64
51816,note_off,,,,,6,0,1,,,0,,,71,64
51835,note_on,,,,,19,0,1,,,0,,,75,63
51840,note_on,,,,,5,0,1,,,0,,,42,50
51903,note_off,,,,,63,0,1,,,0,,,75,64
51935,note_on,,,,,32,0,1,,,0,,,71,59
52033,note_off,,,,,98,0,1,,,0,,,71,64
52072,note_on,,,,,39,0,1,,,0,,,83,56
52149,note_off,,,,,77,0,1,,,0,,,83,64
52180,note_on,,,,,31,0,1,,,0,,,71,56
52200,note_off,,,,,20,0,1,,,0,,,42,64
52299,note_on,,,,,99,0,1,,,0,,,75,63
52310,note_off,,,,,11,0,1,,,0,,,71,64
52320,note_on,,,,,10,0,1,,,0,,,63,55
52365,note_off,,,,,45,0,1,,,0,,,63,64
52380,note_on,,,,,15,0,1,,,0,,,64,49
52381,note_off,,,,,1,0,1,,,0,,,75,64
52408,note_on,,,,,27,0,1,,,0,,,71,62
52425,note_off,,,,,17,0,1,,,0,,,64,64
52440,note_on,,,,,15,0,1,,,0,,,63,58
52485,note_off,,,,,45,0,1,,,0,,,63,64
52532,note_off,,,,,47,0,1,,,0,,,71,64
52540,note_on,,,,,8,0,1,,,0,,,78,80
52560,note_on,,,,,20,0,1,,,0,,,61,59
52627,note_off,,,,,67,0,1,,,0,,,78,64
52648,note_on,,,,,21,0,1,,,0,,,71,62
52650,note_off,,,,,2,0,1,,,0,,,61,64
52680,note_on,,,,,30,0,1,,,0,,,59,60
52769,note_off,,,,,89,0,1,,,0,,,71,64
52770,note_off,,,,,1,0,1,,,0,,,59,64
52780,note_on,,,,,10,0,1,,,0,,,80,74
52800,note_on,,,,,20,0,1,,,0,,,40,59
52809,control_change,,,,,9,0,1,,,0,64,64,,
52843,control_change,,,,,34,0,1,,,0,64,96,,
52864,note_off,,,,,21,0,1,,,0,,,80,64
52896,note_on,,,,,32,0,1,,,0,,,71,62
52956,control_change,,,,,60,0,1,,,0,64,127,,
53007,note_off,,,,,51,0,1,,,0,,,71,64
53057,note_on,,,,,50,0,1,,,0,,,83,70
53132,note_off,,,,,75,0,1,,,0,,,83,64
53160,note_off,,,,,28,0,1,,,0,,,40,64
53165,note_on,,,,,5,0,1,,,0,,,71,52
53268,note_off,,,,,103,0,1,,,0,,,71,64
53280,note_on,,,,,12,0,1,,,0,,,63,55
53308,note_on,,,,,28,0,1,,,0,,,80,55
53325,note_off,,,,,17,0,1,,,0,,,63,64
53340,note_on,,,,,15,0,1,,,0,,,64,49
53376,note_off,,,,,36,0,1,,,0,,,80,64
53385,note_off,,,,,9,0,1,,,0,,,64,64
53400,note_on,,,,,15,0,1,,,0,,,63,58
53400,note_on,,,,,0,0,1,,,0,,,71,59
53445,note_off,,,,,45,0,1,,,0,,,63,64
53447,control_change,,,,,2,0,1,,,0,64,96,,
53482,control_change,,,,,35,0,1,,,0,64,64,,
53500,control_change,,,,,18,0,1,,,0,64,0,,
53520,note_on,,,,,20,0,1,,,0,,,61,59
53537,note_off,,,,,17,0,1,,,0,,,71,64
53545,note_on,,,,,8,0,1,,,0,,,76,67
53610,note_off,,,,,65,0,1,,,0,,,61,64
53614,note_off,,,,,4,0,1,,,0,,,76,64
53638,note_on,,,,,24,0,1,,,0,,,71,59
53640,note_on,,,,,2,0,1,,,0,,,59,60
53730,note_off,,,,,90,0,1,,,0,,,59,64
53754,note_off,,,,,24,0,1,,,0,,,71,64
53760,note_on,,,,,6,0,1,,,0,,,39,68
53762,note_on,,,,,2,0,1,,,0,,,78,80
53846,note_off,,,,,84,0,1,,,0,,,78,64
53862,note_on,,,,,16,0,1,,,0,,,71,62
53907,control_change,,,,,45,0,1,,,0,64,64,,
53925,control_change,,,,,18,0,1,,,0,64,96,,
53970,note_off,,,,,45,0,1,,,0,,,71,64
54004,control_change,,,,,34,0,1,,,0,64,127,,
54015,note_on,,,,,11,0,1,,,0,,,83,70
54068,note_off,,,,,53,0,1,,,0,,,83,64
54113,note_on,,,,,45,0,1,,,0,,,71,44
54120,note_off,,,,,7,0,1,,,0,,,39,64
54224,note_off,,,,,104,0,1,,,0,,,71,64
54240,note_on,,,,,16,0,1,,,0,,,63,55
54256,note_on,,,,,16,0,1,,,0,,,78,68
54285,note_off,,,,,29,0,1,,,0,,,63,64
54300,note_on,,,,,15,0,1,,,0,,,64,49
54329,note_off,,,,,29,0,1,,,0,,,78,64
54345,note_off,,,,,16,0,1,,,0,,,64,64
54351,note_on,,,,,6,0,1,,,0,,,71,56
54360,note_on,,,,,9,0,1,,,0,,,63,58
54405,note_off,,,,,45,0,1,,,0,,,63,64
54477,note_off,,,,,72,0,1,,,0,,,71,64
54480,note_on,,,,,3,0,1,,,0,,,61,44
54488,note_on,,,,,8,0,1,,,0,,,75,58
54525,control_change,,,,,37,0,1,,,0,64,96,,
54540,control_change,,,,,15,0,1,,,0,64,64,,
54559,control_change,,,,,19,0,1,,,0,64,0,,
54567,note_off,,,,,8,0,1,,,0,,,75,64
54570,note_off,,,,,3,0,1,,,0,,,61,64
54596,note_on,,,,,26,0,1,,,0,,,71,59
54600,note_on,,,,,4,0,1,,,0,,,59,45
54690,note_off,,,,,90,0,1,,,0,,,59,64
54720,note_on,,,,,30,0,1,,,0,,,37,74
54733,note_off,,,,,13,0,1,,,0,,,71,64
54744,note_on,,,,,11,0,1,,,0,,,76,62
54815,note_off,,,,,71,0,1,,,0,,,76,64
54839,note_on,,,,,24,0,1,,,0,,,71,62
54936,control_change,,,,,97,0,1,,,0,64,64,,
54965,control_change,,,,,29,0,1,,,0,64,96,,
54970,note_off,,,,,5,0,1,,,0,,,71,64
54997,note_on,,,,,27,0,1,,,0,,,83,70
55045,control_change,,,,,48,0,1,,,0,64,127,,
55080,note_off,,,,,35,0,1,,,0,,,37,64
55090,note_on,,,,,0,0,1,,,0,,,71,56
55090,note_off,,,,,10,0,1,,,0,,,83,64
55200,note_on,,,,,110,0,1,,,0,,,63,55
55219,note_on,,,,,0,0,1,,,0,,,76,62
55219,note_off,,,,,19,0,1,,,0,,,71,64
55245,note_off,,,,,26,0,1,,,0,,,63,64
55260,note_on,,,,,15,0,1,,,0,,,64,49
55304,note_off,,,,,44,0,1,,,0,,,76,64
55305,note_off,,,,,1,0,1,,,0,,,64,64
55320,note_on,,,,,15,0,1,,,0,,,63,58
55322,note_on,,,,,2,0,1,,,0,,,71,59
55365,note_off,,,,,43,0,1,,,0,,,63,64
55440,note_on,,,,,75,0,1,,,0,,,61,44
55441,note_off,,,,,1,0,1,,,0,,,71,64
55457,note_on,,,,,16,0,1,,,0,,,73,63
55502,control_change,,,,,45,0,1,,,0,64,96,,
55522,control_change,,,,,20,0,1,,,0,64,64,,
55525,note_off,,,,,3,0,1,,,0,,,73,64
55530,note_off,,,,,5,0,1,,,0,,,61,64
55544,control_change,,,,,14,0,1,,,0,64,0,,
55560,note_on,,,,,16,0,1,,,0,,,59,54
55576,note_on,,,,,16,0,1,,,0,,,71,44
55650,note_off,,,,,74,0,1,,,0,,,59,64
55680,note_on,,,,,30,0,1,,,0,,,35,59
55681,note_off,,,,,1,0,1,,,0,,,71,64
55694,note_on,,,,,13,0,1,,,0,,,75,58
55774,note_off,,,,,80,0,1,,,0,,,75,64
55813,note_on,,,,,39,0,1,,,0,,,71,56
55847,control_change,,,,,34,0,1,,,0,64,64,,
55897,control_change,,,,,50,0,1,,,0,64,0,,
55937,note_on,,,,,40,0,1,,,0,,,75,80
55964,note_off,,,,,27,0,1,,,0,,,71,64
56056,note_on,,,,,92,0,1,,,0,,,78,74
56098,note_off,,,,,42,0,1,,,0,,,75,64
56160,note_off,,,,,62,0,1,,,0,,,78,64
56188,note_on,,,,,28,0,1,,,0,,,83,62
56302,note_on,,,,,114,0,1,,,0,,,82,68
56304,note_off,,,,,2,0,1,,,0,,,35,64
56336,note_off,,,,,32,0,1,,,0,,,83,64
56400,note_on,,,,,64,0,1,,,0,,,39,55
56431,note_on,,,,,31,0,1,,,0,,,80,74
56494,note_off,,,,,63,0,1,,,0,,,82,64
56550,note_on,,,,,56,0,1,,,0,,,78,68
56580,note_off,,,,,30,0,1,,,0,,,39,64
56589,note_off,,,,,9,0,1,,,0,,,80,64
56639,note_on,,,,,50,0,1,,,0,,,76,62
56640,note_on,,,,,1,0,1,,,0,,,40,62
56658,note_off,,,,,18,0,1,,,0,,,78,64
56774,note_on,,,,,116,0,1,,,0,,,75,74
56787,note_off,,,,,13,0,1,,,0,,,76,64
56820,note_off,,,,,33,0,1,,,0,,,40,64
56880,note_on,,,,,60,0,1,,,0,,,52,62
56898,note_on,,,,,18,0,1,,,0,,,73,68
56943,note_off,,,,,45,0,1,,,0,,,75,64
56985,note_on,,,,,42,0,1,,,0,,,71,62
57049,note_off,,,,,64,0,1,,,0,,,73,64
57060,note_off,,,,,11,0,1,,,0,,,52,64
57120,note_on,,,,,0,0,1,,,0,,,54,58
57120,note_off,,,,,60,0,1,,,0,,,71,64
57133,note_on,,,,,13,0,1,,,0,,,78,80
57247,note_on,,,,,114,0,1,,,0,,,76,67
57268,note_off,,,,,21,0,1,,,0,,,78,64
57300,note_off,,,,,32,0,1,,,0,,,54,64
57360,note_on,,,,,60,0,1,,,0,,,42,58
57368,note_on,,,,,8,0,1,,,0,,,75,74
57402,note_off,,,,,34,0,1,,,0,,,76,64
57479,note_on,,,,,77,0,1,,,0,,,73,68
57503,note_off,,,,,24,0,1,,,0,,,75,64
57540,note_off,,,,,37,0,1,,,0,,,42,64
57579,note_off,,,,,39,0,1,,,0,,,73,64
57600,note_on,,,,,21,0,1,,,0,,,47,34
57632,note_on,,,,,32,0,1,,,0,,,83,62
57706,note_off,,,,,74,0,1,,,0,,,83,64
57750,note_on,,,,,44,0,1,,,0,,,71,32
57864,note_off,,,,,114,0,1,,,0,,,71,64
57869,control_change,,,,,5,0,1,,,0,64,64,,
57886,note_on,,,,,17,0,1,,,0,,,75,42
57928,note_off,,,,,42,0,1,,,0,,,75,64
57930,control_change,,,,,2,0,1,,,0,64,96,,
57960,note_off,,,,,30,0,1,,,0,,,47,64
57975,note_on,,,,,15,0,1,,,0,,,71,44
58068,note_off,,,,,93,0,1,,,0,,,71,64
58080,note_on,,,,,12,0,1,,,0,,,63,32
58097,note_on,,,,,17,0,1,,,0,,,78,49
58125,note_off,,,,,28,0,1,,,0,,,63,64
58140,note_on,,,,,15,0,1,,,0,,,64,28
58168,note_off,,,,,28,0,1,,,0,,,78,64
58185,note_off,,,,,17,0,1,,,0,,,64,64
58197,note_on,,,,,12,0,1,,,0,,,71,39
58200,note_on,,,,,3,0,1,,,0,,,63,34
58245,note_off,,,,,45,0,1,,,0,,,63,64
58292,note_off,,,,,47,0,1,,,0,,,71,64
58305,note_on,,,,,13,0,1,,,0,,,76,46
58320,note_on,,,,,15,0,1,,,0,,,61,26
58374,note_off,,,,,54,0,1,,,0,,,76,64
58387,control_change,,,,,13,0,1,,,0,64,64,,
58408,control_change,,,,,21,0,1,,,0,64,0,,
58410,note_off,,,,,2,0,1,,,0,,,61,64
58414,note_on,,,,,4,0,1,,,0,,,71,36
58440,note_on,,,,,26,0,1,,,0,,,59,32
58506,note_off,,,,,66,0,1,,,0,,,71,64
58530,note_off,,,,,24,0,1,,,0,,,59,64
58540,note_on,,,,,10,0,1,,,0,,,75,49
58560,note_on,,,,,20,0,1,,,0,,,42,30
58604,note_off,,,,,44,0,1,,,0,,,75,64
58638,note_on,,,,,34,0,1,,,0,,,71,46
58709,control_change,,,,,71,0,1,,,0,64,64,,
58740,note_off,,,,,31,0,1,,,0,,,71,64
58741,control_change,,,,,1,0,1,,,0,64,96,,
58778,note_on,,,,,37,0,1,,,0,,,83,44
58820,note_off,,,,,42,0,1,,,0,,,83,64
58870,control_change,,,,,50,0,1,,,0,64,127,,
58883,note_on,,,,,13,0,1,,,0,,,71,42
58920,note_off,,,,,37,0,1,,,0,,,42,64
58981,note_off,,,,,61,0,1,,,0,,,71,64
58989,note_on,,,,,8,0,1,,,0,,,75,51
59040,note_on,,,,,51,0,1,,,0,,,63,32
59055,note_off,,,,,15,0,1,,,0,,,75,64
59085,note_off,,,,,30,0,1,,,0,,,63,64
59097,note_on,,,,,12,0,1,,,0,,,71,46
59100,note_on,,,,,3,0,1,,,0,,,64,28
59145,note_off,,,,,45,0,1,,,0,,,64,64
59160,note_on,,,,,15,0,1,,,0,,,63,34
59205,note_off,,,,,45,0,1,,,0,,,63,64
59216,note_off,,,,,11,0,1,,,0,,,71,64
59219,note_on,,,,,3,0,1,,,0,,,78,66
59280,note_on,,,,,61,0,1,,,0,,,61,34
59306,note_off,,,,,26,0,1,,,0,,,78,64
59338,note_on,,,,,32,0,1,,,0,,,71,55
59370,note_off,,,,,32,0,1,,,0,,,61,64
59380,control_change,,,,,10,0,1,,,0,64,96,,
59400,note_on,,,,,20,0,1,,,0,,,59,36
59401,control_change,,,,,1,0,1,,,0,64,0,,
59462,note_off,,,,,61,0,1,,,0,,,71,64
59462,note_on,,,,,0,0,1,,,0,,,80,72
59490,note_off,,,,,28,0,1,,,0,,,59,64
59520,note_on,,,,,30,0,1,,,0,,,40,34
59554,note_off,,,,,34,0,1,,,0,,,80,64
59580,note_on,,,,,26,0,1,,,0,,,71,60
59609,control_change,,,,,29,0,1,,,0,64,64,,
59638,control_change,,,,,29,0,1,,,0,64,96,,
59697,note_off,,,,,59,0,1,,,0,,,71,64
59723,note_on,,,,,26,0,1,,,0,,,83,70
59736,control_change,,,,,13,0,1,,,0,64,127,,
59807,note_off,,,,,71,0,1,,,0,,,83,64
59855,note_on,,,,,48,0,1,,,0,,,71,20
59880,note_off,,,,,25,0,1,,,0,,,40,64
59947,note_off,,,,,67,0,1,,,0,,,71,64
59976,note_on,,,,,29,0,1,,,0,,,80,44
60000,note_on,,,,,24,0,1,,,0,,,63,32
60034,note_off,,,,,34,0,1,,,0,,,80,64
60045,note_off,,,,,11,0,1,,,0,,,63,64
60060,note_on,,,,,15,0,1,,,0,,,64,28
60087,note_on,,,,,27,0,1,,,0,,,71,42
60105,note_off,,,,,18,0,1,,,0,,,64,64
60120,note_on,,,,,15,0,1,,,0,,,63,34
60165,note_off,,,,,45,0,1,,,0,,,63,64
60203,note_off,,,,,38,0,1,,,0,,,71,64
60219,note_on,,,,,16,0,1,,,0,,,76,36
60240,note_on,,,,,21,0,1,,,0,,,61,34
60275,note_off,,,,,35,0,1,,,0,,,76,64
60314,note_on,,,,,39,0,1,,,0,,,71,42
60330,note_off,,,,,16,0,1,,,0,,,61,64
60338,control_change,,,,,8,0,1,,,0,64,96,,
60359,control_change,,,,,21,0,1,,,0,64,0,,
60360,note_on,,,,,1,0,1,,,0,,,59,36
60423,note_off,,,,,63,0,1,,,0,,,71,64
60450,note_off,,,,,27,0,1,,,0,,,59,64
60460,note_on,,,,,10,0,1,,,0,,,78,56
60480,note_on,,,,,20,0,1,,,0,,,39,40
60536,note_off,,,,,56,0,1,,,0,,,78,64
60568,note_on,,,,,32,0,1,,,0,,,71,52
60620,control_change,,,,,52,0,1,,,0,64,64,,
60649,control_change,,,,,29,0,1,,,0,64,96,,
60684,note_off,,,,,35,0,1,,,0,,,71,64
60705,control_change,,,,,21,0,1,,,0,64,127,,
60716,note_on,,,,,11,0,1,,,0,,,83,70
60763,note_off,,,,,47,0,1,,,0,,,83,64
60826,note_on,,,,,63,0,1,,,0,,,71,42
60840,note_off,,,,,14,0,1,,,0,,,39,64
60929,note_off,,,,,89,0,1,,,0,,,71,64
60956,note_on,,,,,27,0,1,,,0,,,78,51
60960,note_on,,,,,4,0,1,,,0,,,63,32
61005,note_off,,,,,45,0,1,,,0,,,63,64
61020,note_on,,,,,15,0,1,,,0,,,64,28
61038,note_off,,,,,18,0,1,,,0,,,78,64
61064,note_on,,,,,26,0,1,,,0,,,71,46
61065,note_off,,,,,1,0,1,,,0,,,64,64
61080,note_on,,,,,15,0,1,,,0,,,63,34
61125,note_off,,,,,45,0,1,,,0,,,63,64
61172,note_off,,,,,47,0,1,,,0,,,71,64
61188,note_on,,,,,16,0,1,,,0,,,75,51
61200,note_on,,,,,12,0,1,,,0,,,61,26
61257,note_off,,,,,57,0,1,,,0,,,75,64
61290,note_off,,,,,33,0,1,,,0,,,61,64
61294,control_change,,,,,4,0,1,,,0,64,96,,
61304,note_on,,,,,10,0,1,,,0,,,71,39
61312,control_change,,,,,8,0,1,,,0,64,64,,
61320,note_on,,,,,8,0,1,,,0,,,59,26
61338,control_change,,,,,18,0,1,,,0,64,0,,
61405,note_off,,,,,67,0,1,,,0,,,71,64
61410,note_off,,,,,5,0,1,,,0,,,59,64
61428,note_on,,,,,18,0,1,,,0,,,76,52
61440,note_on,,,,,12,0,1,,,0,,,37,44
61513,note_off,,,,,73,0,1,,,0,,,76,64
61550,note_on,,,,,37,0,1,,,0,,,71,46
61560,control_change,,,,,10,0,1,,,0,64,64,,
61584,control_change,,,,,24,0,1,,,0,64,96,,
61624,control_change,,,,,40,0,1,,,0,64,127,,
61645,note_off,,,,,21,0,1,,,0,,,71,64
61692,note_on,,,,,47,0,1,,,0,,,83,70
61745,note_off,,,,,53,0,1,,,0,,,83,64
61800,note_off,,,,,55,0,1,,,0,,,37,64
61814,note_on,,,,,14,0,1,,,0,,,71,22
61909,note_off,,,,,95,0,1,,,0,,,71,64
61920,note_on,,,,,11,0,1,,,0,,,63,32
61935,note_on,,,,,15,0,1,,,0,,,76,46
61965,note_off,,,,,30,0,1,,,0,,,63,64
61980,note_on,,,,,15,0,1,,,0,,,64,28
62007,note_off,,,,,27,0,1,,,0,,,76,64
62025,note_off,,,,,18,0,1,,,0,,,64,64
62040,note_on,,,,,15,0,1,,,0,,,63,34
62041,note_on,,,,,1,0,1,,,0,,,71,50
62085,note_off,,,,,44,0,1,,,0,,,63,64
62149,note_off,,,,,64,0,1,,,0,,,71,64
62160,note_on,,,,,11,0,1,,,0,,,61,26
62162,note_on,,,,,2,0,1,,,0,,,73,51
62231,note_off,,,,,69,0,1,,,0,,,73,64
62250,note_off,,,,,19,0,1,,,0,,,61,64
62280,note_on,,,,,30,0,1,,,0,,,59,32
62284,note_on,,,,,4,0,1,,,0,,,71,46
62286,control_change,,,,,2,0,1,,,0,64,96,,
62313,control_change,,,,,27,0,1,,,0,64,0,,
62370,note_off,,,,,57,0,1,,,0,,,59,64
62389,note_on,,,,,0,0,1,,,0,,,75,56
62389,note_off,,,,,19,0,1,,,0,,,71,64
62400,note_on,,,,,11,0,1,,,0,,,35,34
62474,note_off,,,,,74,0,1,,,0,,,75,64
62503,control_change,,,,,29,0,1,,,0,64,64,,
62508,note_on,,,,,5,0,1,,,0,,,71,52
62540,control_change,,,,,32,0,1,,,0,64,96,,
62569,control_change,,,,,29,0,1,,,0,64,127,,
62622,note_on,,,,,53,0,1,,,0,,,75,72
62659,note_off,,,,,37,0,1,,,0,,,71,64
62746,note_on,,,,,87,0,1,,,0,,,78,61
62777,note_off,,,,,31,0,1,,,0,,,75,64
62857,note_off,,,,,80,0,1,,,0,,,78,64
62883,note_on,,,,,26,0,1,,,0,,,83,55
63010,note_on,,,,,127,0,1,,,0,,,82,56
63015,control_change,,,,,5,0,1,,,0,64,96,,
63024,note_off,,,,,9,0,1,,,0,,,35,64
63036,note_off,,,,,12,0,1,,,0,,,83,64
63039,control_change,,,,,3,0,1,,,0,64,64,,
63070,control_change,,,,,31,0,1,,,0,64,0,,
63120,note_on,,,,,50,0,1,,,0,,,39,32
63136,note_on,,,,,16,0,1,,,0,,,80,56
63181,note_off,,,,,45,0,1,,,0,,,82,64
63255,note_on,,,,,74,0,1,,,0,,,78,51
63282,note_off,,,,,27,0,1,,,0,,,80,64
63300,note_off,,,,,18,0,1,,,0,,,39,64
63350,note_off,,,,,50,0,1,,,0,,,78,64
63360,note_on,,,,,10,0,1,,,0,,,40,37
63361,note_on,,,,,1,0,1,,,0,,,76,42
63472,note_off,,,,,111,0,1,,,0,,,76,64
63493,note_on,,,,,21,0,1,,,0,,,75,51
63540,note_off,,,,,47,0,1,,,0,,,40,64
63600,note_on,,,,,60,0,1,,,0,,,52,37
63614,note_off,,,,,14,0,1,,,0,,,75,64
63614,note_on,,,,,0,0,1,,,0,,,73,51
63707,note_on,,,,,93,0,1,,,0,,,71,44
63720,note_off,,,,,13,0,1,,,0,,,73,64
63780,note_off,,,,,60,0,1,,,0,,,52,64
63833,note_off,,,,,53,0,1,,,0,,,71,64
63840,note_on,,,,,7,0,1,,,0,,,54,34
63857,note_on,,,,,17,0,1,,,0,,,78,56
63971,note_on,,,,,114,0,1,,,0,,,76,44
63984,note_off,,,,,13,0,1,,,0,,,78,64
64020,note_off,,,,,36,0,1,,,0,,,54,64
64080,note_on,,,,,60,0,1,,,0,,,42,34
64095,note_on,,,,,15,0,1,,,0,,,75,51
64140,note_off,,,,,45,0,1,,,0,,,76,64
64219,note_on,,,,,79,0,1,,,0,,,73,49
64237,note_off,,,,,18,0,1,,,0,,,75,64
64260,note_off,,,,,23,0,1,,,0,,,42,64
64285,note_off,,,,,25,0,1,,,0,,,73,64
64335,note_on,,,,,50,0,1,,,0,,,83,67
64348,note_on,,,,,13,0,1,,,0,,,71,44
64440,note_on,,,,,92,0,1,,,0,,,59,40
64530,note_off,,,,,90,0,1,,,0,,,59,64
64560,note_on,,,,,30,0,1,,,0,,,61,44
64650,note_off,,,,,90,0,1,,,0,,,61,64
64680,note_on,,,,,30,0,1,,,0,,,63,32
64770,note_off,,,,,90,0,1,,,0,,,63,64
64800,note_on,,,,,30,0,1,,,0,,,64,42
64807,note_off,,,,,7,0,1,,,0,,,71,64
64821,note_on,,,,,14,0,1,,,0,,,80,90
64860,note_off,,,,,39,0,1,,,0,,,83,64
64890,note_off,,,,,30,0,1,,,0,,,64,64
64920,note_on,,,,,30,0,1,,,0,,,66,55
65010,note_off,,,,,90,0,1,,,0,,,66,64
65040,note_on,,,,,30,0,1,,,0,,,68,50
65130,note_off,,,,,90,0,1,,,0,,,68,64
65160,note_on,,,,,30,0,1,,,0,,,70,44
65250,note_off,,,,,90,0,1,,,0,,,70,64
65280,note_on,,,,,30,0,1,,,0,,,42,55
65293,note_off,,,,,13,0,1,,,0,,,80,64
65396,note_on,,,,,103,0,1,,,0,,,80,68
65510,note_on,,,,,114,0,1,,,0,,,78,63
65523,note_off,,,,,13,0,1,,,0,,,80,64
65634,note_on,,,,,111,0,1,,,0,,,76,67
65640,note_off,,,,,6,0,1,,,0,,,42,64
65655,note_off,,,,,15,0,1,,,0,,,78,64
65710,note_off,,,,,55,0,1,,,0,,,76,64
65750,note_on,,,,,40,0,1,,,0,,,76,67
65760,note_on,,,,,0,0,1,,,0,,,59,63
65760,note_on,,,,,10,0,1,,,0,,,47,59
65863,note_off,,,,,103,0,1,,,0,,,76,64
65879,note_on,,,,,16,0,1,,,0,,,75,68
65998,note_off,,,,,119,0,1,,,0,,,75,64
66014,note_on,,,,,16,0,1,,,0,,,73,55
66112,note_on,,,,,0,0,1,,,0,,,71,59
66112,note_off,,,,,98,0,1,,,0,,,73,64
66120,note_off,,,,,8,0,1,,,0,,,59,64
66120,note_off,,,,,0,0,1,,,0,,,47,64
66230,note_on,,,,,110,0,1,,,0,,,73,80
66240,note_on,,,,,0,0,1,,,0,,,52,62
66240,note_on,,,,,10,0,1,,,0,,,40,59
66244,note_off,,,,,4,0,1,,,0,,,71,64
66360,note_off,,,,,116,0,1,,,0,,,73,64
66370,note_on,,,,,10,0,1,,,0,,,76,59
66492,note_on,,,,,122,0,1,,,0,,,75,63
66502,note_off,,,,,10,0,1,,,0,,,76,64
66600,note_off,,,,,0,0,1,,,0,,,40,64
66600,note_off,,,,,98,0,1,,,0,,,52,64
66613,note_on,,,,,13,0,1,,,0,,,73,63
66632,note_off,,,,,19,0,1,,,0,,,75,64
66720,note_on,,,,,0,0,1,,,0,,,54,55
66720,note_on,,,,,88,0,1,,,0,,,42,63
66737,note_on,,,,,0,0,1,,,0,,,78,74
66737,note_off,,,,,17,0,1,,,0,,,73,64
66859,note_on,,,,,122,0,1,,,0,,,76,59
66872,note_off,,,,,13,0,1,,,0,,,78,64
66970,note_on,,,,,98,0,1,,,0,,,75,68
67001,note_off,,,,,31,0,1,,,0,,,76,64
67070,note_on,,,,,69,0,1,,,0,,,73,63
67080,note_off,,,,,0,0,1,,,0,,,42,64
67080,note_off,,,,,10,0,1,,,0,,,54,64
67083,note_off,,,,,3,0,1,,,0,,,75,64
67120,note_off,,,,,37,0,1,,,0,,,73,64
67212,note_on,,,,,92,0,1,,,0,,,71,59
67223,note_on,,,,,11,0,1,,,0,,,83,70
67320,note_on,,,,,97,0,1,,,0,,,59,40
67410,note_off,,,,,90,0,1,,,0,,,59,64
67440,note_on,,,,,30,0,1,,,0,,,61,44
67530,note_off,,,,,90,0,1,,,0,,,61,64
67560,note_on,,,,,30,0,1,,,0,,,63,32
67650,note_off,,,,,90,0,1,,,0,,,63,64
67680,note_on,,,,,30,0,1,,,0,,,64,42
67696,note_on,,,,,16,0,1,,,0,,,80,85
67709,note_off,,,,,13,0,1,,,0,,,71,64
67735,note_off,,,,,26,0,1,,,0,,,83,64
67770,note_off,,,,,35,0,1,,,0,,,64,64
67800,note_on,,,,,30,0,1,,,0,,,66,55
67890,note_off,,,,,90,0,1,,,0,,,66,64
67920,note_on,,,,,30,0,1,,,0,,,68,50
68010,note_off,,,,,90,0,1,,,0,,,68,64
68040,note_on,,,,,30,0,1,,,0,,,70,44
68130,note_off,,,,,90,0,1,,,0,,,70,64
68160,note_on,,,,,30,0,1,,,0,,,42,55
68179,note_off,,,,,19,0,1,,,0,,,80,64
68324,note_on,,,,,145,0,1,,,0,,,80,68
68429,note_on,,,,,105,0,1,,,0,,,78,68
68466,note_off,,,,,37,0,1,,,0,,,80,64
68520,note_off,,,,,54,0,1,,,0,,,42,64
68538,note_on,,,,,18,0,1,,,0,,,76,62
68556,note_off,,,,,18,0,1,,,0,,,78,64
68612,note_off,,,,,56,0,1,,,0,,,76,64
68640,note_on,,,,,28,0,1,,,0,,,47,59
68640,note_on,,,,,0,0,1,,,0,,,59,63
68664,note_on,,,,,24,0,1,,,0,,,76,59
68778,note_off,,,,,114,0,1,,,0,,,76,64
68804,note_on,,,,,26,0,1,,,0,,,75,68
68902,note_off,,,,,98,0,1,,,0,,,75,64
68918,note_on,,,,,16,0,1,,,0,,,73,58
69000,note_off,,,,,82,0,1,,,0,,,59,64
69000,note_off,,,,,0,0,1,,,0,,,47,64
69016,note_off,,,,,16,0,1,,,0,,,73,64
69018,note_on,,,,,2,0,1,,,0,,,71,59
69120,note_on,,,,,0,0,1,,,0,,,52,62
69120,note_on,,,,,102,0,1,,,0,,,40,59
69124,note_on,,,,,4,0,1,,,0,,,73,68
69148,note_off,,,,,24,0,1,,,0,,,71,64
69253,note_on,,,,,105,0,1,,,0,,,76,62
69266,note_off,,,,,13,0,1,,,0,,,73,64
69382,note_on,,,,,116,0,1,,,0,,,75,68
69409,note_off,,,,,27,0,1,,,0,,,76,64
69480,note_off,,,,,0,0,1,,,0,,,40,64
69480,note_off,,,,,71,0,1,,,0,,,52,64
69512,note_on,,,,,32,0,1,,,0,,,73,58
69536,note_off,,,,,24,0,1,,,0,,,75,64
69600,note_on,,,,,0,0,1,,,0,,,54,55
69600,note_on,,,,,64,0,1,,,0,,,42,63
69617,note_off,,,,,17,0,1,,,0,,,73,64
69628,note_on,,,,,11,0,1,,,0,,,78,55
69760,note_on,,,,,132,0,1,,,0,,,76,56
69773,note_off,,,,,13,0,1,,,0,,,78,64
69852,note_on,,,,,79,0,1,,,0,,,75,63
69879,note_off,,,,,27,0,1,,,0,,,76,64
69960,note_off,,,,,0,0,1,,,0,,,42,64
69960,note_off,,,,,81,0,1,,,0,,,54,64
69966,note_off,,,,,6,0,1,,,0,,,75,64
69979,note_on,,,,,13,0,1,,,0,,,73,58
70019,note_off,,,,,40,0,1,,,0,,,73,64
70098,note_on,,,,,79,0,1,,,0,,,83,67
70240,note_on,,,,,142,0,1,,,0,,,78,63
70285,note_off,,,,,45,0,1,,,0,,,83,64
70359,note_on,,,,,74,0,1,,,0,,,75,63
70409,note_off,,,,,50,0,1,,,0,,,78,64
70460,note_on,,,,,51,0,1,,,0,,,71,52
70473,note_off,,,,,13,0,1,,,0,,,75,64
70523,note_off,,,,,50,0,1,,,0,,,71,64
70590,note_on,,,,,67,0,1,,,0,,,71,59
70739,note_on,,,,,149,0,1,,,0,,,66,68
70776,note_off,,,,,37,0,1,,,0,,,71,64
70845,note_on,,,,,69,0,1,,,0,,,63,50
70900,note_off,,,,,55,0,1,,,0,,,66,64
70951,note_on,,,,,51,0,1,,,0,,,59,63
70961,note_off,,,,,10,0,1,,,0,,,63,64
71006,note_off,,,,,45,0,1,,,0,,,59,64
71075,note_on,,,,,69,0,1,,,0,,,59,74
71220,note_on,,,,,145,0,1,,,0,,,54,68
71254,note_off,,,,,34,0,1,,,0,,,59,64
71318,note_on,,,,,64,0,1,,,0,,,51,68
71344,note_off,,,,,26,0,1,,,0,,,54,64
71426,note_on,,,,,82,0,1,,,0,,,47,75
71452,note_off,,,,,26,0,1,,,0,,,51,64
71487,note_off,,,,,35,0,1,,,0,,,47,64
71576,note_on,,,,,89,0,1,,,0,,,47,59
71703,note_on,,,,,127,0,1,,,0,,,42,74
71730,note_off,,,,,27,0,1,,,0,,,47,64
71806,note_on,,,,,76,0,1,,,0,,,39,74
71832,note_off,,,,,26,0,1,,,0,,,42,64
71920,note_on,,,,,88,0,1,,,0,,,35,67
71941,note_on,,,,,21,0,1,,,0,,,37,15
71951,note_off,,,,,10,0,1,,,0,,,39,64
71964,note_off,,,,,13,0,1,,,0,,,37,64
72000,set_tempo,,,,,48000,1,0,600000,,,,,,
72009,note_off,,,,,45,0,1,,,0,,,35,64
72062,note_on,,,,,53,0,1,,,0,,,35,70
72669,note_off,,,,,607,0,1,,,0,,,35,64
72960,marker,,,,,0,1,0,,,,,,,
72960,set_tempo,,,,,960,1,0,250000,,,,,,
72960,note_on,,,,,291,0,1,,,0,,,40,59
73191,note_on,,,,,231,0,1,,,0,,,76,70
73306,note_off,,,,,115,0,1,,,0,,,76,64
73314,note_on,,,,,8,0,1,,,0,,,80,63
73433,note_on,,,,,119,0,1,,,0,,,76,62
73440,note_off,,,,,7,0,1,,,0,,,40,64
73444,note_off,,,,,4,0,1,,,0,,,80,64
73658,note_off,,,,,214,0,1,,,0,,,76,64
73692,note_on,,,,,34,0,1,,,0,,,71,62
73896,note_off,,,,,204,0,1,,,0,,,71,64
73908,note_on,,,,,12,0,1,,,0,,,68,74
74148,note_off,,,,,240,0,1,,,0,,,68,64
74159,note_on,,,,,11,0,1,,,0,,,80,68
74160,note_on,,,,,1,0,1,,,0,,,64,42
74174,note_on,,,,,14,0,1,,,0,,,76,70
74280,note_off,,,,,106,0,1,,,0,,,64,64
74280,note_on,,,,,0,0,1,,,0,,,68,44
74400,note_off,,,,,120,0,1,,,0,,,68,64
74400,note_on,,,,,0,0,1,,,0,,,64,40
74515,note_off,,,,,115,0,1,,,0,,,76,64
74640,note_off,,,,,125,0,1,,,0,,,64,64
74640,note_on,,,,,0,0,1,,,0,,,59,45
74664,note_on,,,,,24,0,1,,,0,,,75,47
74673,note_on,,,,,9,0,1,,,0,,,78,58
74710,note_off,,,,,37,0,1,,,0,,,80,64
74723,note_off,,,,,13,0,1,,,0,,,75,64
74880,note_on,,,,,0,0,1,,,0,,,56,54
74880,note_off,,,,,157,0,1,,,0,,,59,64
74880,note_on,,,,,0,0,1,,,0,,,76,59
74896,note_off,,,,,16,0,1,,,0,,,78,64
74982,note_off,,,,,86,0,1,,,0,,,76,64
75107,note_on,,,,,0,0,1,,,0,,,80,63
75107,note_on,,,,,125,0,1,,,0,,,83,70
75120,note_on,,,,,0,0,1,,,0,,,52,39
75120,note_off,,,,,13,0,1,,,0,,,56,64
75240,note_on,,,,,0,0,1,,,0,,,56,42
75240,note_off,,,,,120,0,1,,,0,,,52,64
75360,note_on,,,,,0,0,1,,,0,,,52,67
75360,note_off,,,,,120,0,1,,,0,,,56,64
75598,note_off,,,,,238,0,1,,,0,,,80,64
75600,note_off,,,,,2,0,1,,,0,,,52,64
75600,note_on,,,,,0,0,1,,,0,,,47,52
75604,note_off,,,,,4,0,1,,,0,,,83,64
75615,note_on,,,,,11,0,1,,,0,,,81,59
75630,note_on,,,,,15,0,1,,,0,,,78,55
75840,note_on,,,,,0,0,1,,,0,,,40,47
75840,note_off,,,,,210,0,1,,,0,,,47,64
75896,note_off,,,,,56,0,1,,,0,,,78,64
75965,note_on,,,,,69,0,1,,,0,,,80,58
75976,note_off,,,,,11,0,1,,,0,,,81,64
76064,note_off,,,,,88,0,1,,,0,,,80,64
76080,note_off,,,,,16,0,1,,,0,,,40,64
76080,note_on,,,,,0,0,1,,,0,,,52,59
76090,note_on,,,,,10,0,1,,,0,,,78,47
76198,note_on,,,,,108,0,1,,,0,,,80,58
76239,note_off,,,,,41,0,1,,,0,,,78,64
76320,note_on,,,,,0,0,1,,,0,,,54,50
76320,note_off,,,,,81,0,1,,,0,,,52,64
76323,note_off,,,,,3,0,1,,,0,,,80,64
76336,note_on,,,,,13,0,1,,,0,,,83,70
76457,note_off,,,,,121,0,1,,,0,,,83,64
76466,note_on,,,,,9,0,1,,,0,,,81,47
76560,note_off,,,,,94,0,1,,,0,,,54,64
76560,note_on,,,,,0,0,1,,,0,,,47,47
76578,note_on,,,,,18,0,1,,,0,,,80,58
76598,note_off,,,,,20,0,1,,,0,,,81,64
76704,note_on,,,,,106,0,1,,,0,,,78,47
76714,note_off,,,,,10,0,1,,,0,,,80,64
76800,note_off,,,,,86,0,1,,,0,,,47,64
76800,note_on,,,,,0,0,1,,,0,,,40,39
76814,note_off,,,,,14,0,1,,,0,,,78,64
76831,note_on,,,,,17,0,1,,,0,,,81,32
76932,note_on,,,,,101,0,1,,,0,,,80,47
76943,note_off,,,,,11,0,1,,,0,,,81,64
77040,note_off,,,,,97,0,1,,,0,,,40,64
77040,note_on,,,,,0,0,1,,,0,,,52,37
77053,note_off,,,,,13,0,1,,,0,,,80,64
77053,note_on,,,,,0,0,1,,,0,,,78,55
77168,note_on,,,,,115,0,1,,,0,,,80,68
77209,note_off,,,,,41,0,1,,,0,,,78,64
77280,note_off,,,,,71,0,1,,,0,,,52,64
77280,note_on,,,,,0,0,1,,,0,,,54,35
77293,note_off,,,,,13,0,1,,,0,,,80,64
77293,note_on,,,,,0,0,1,,,0,,,83,75
77423,note_off,,,,,130,0,1,,,0,,,83,64
77430,note_on,,,,,7,0,1,,,0,,,81,44
77520,note_on,,,,,0,0,1,,,0,,,47,35
77520,note_off,,,,,90,0,1,,,0,,,54,64
77539,note_on,,,,,19,0,1,,,0,,,80,63
77580,note_off,,,,,41,0,1,,,0,,,81,64
77654,note_on,,,,,74,0,1,,,0,,,78,68
77691,note_off,,,,,37,0,1,,,0,,,80,64
77760,note_off,,,,,69,0,1,,,0,,,47,64
77760,note_on,,,,,0,0,1,,,0,,,40,46
77781,note_on,,,,,21,0,1,,,0,,,81,59
77816,note_off,,,,,35,0,1,,,0,,,78,64
77892,note_on,,,,,76,0,1,,,0,,,80,74
77924,note_off,,,,,32,0,1,,,0,,,81,64
78000,note_off,,,,,76,0,1,,,0,,,40,64
78000,note_on,,,,,0,0,1,,,0,,,52,42
78019,note_on,,,,,19,0,1,,,0,,,78,74
78034,note_off,,,,,15,0,1,,,0,,,80,64
78125,note_on,,,,,91,0,1,,,0,,,80,74
78170,note_off,,,,,45,0,1,,,0,,,78,64
78240,note_off,,,,,70,0,1,,,0,,,52,64
78240,note_on,,,,,0,0,1,,,0,,,54,35
78254,note_on,,,,,14,0,1,,,0,,,83,70
78265,note_off,,,,,11,0,1,,,0,,,80,64
78380,note_on,,,,,115,0,1,,,0,,,81,59
78390,note_off,,,,,10,0,1,,,0,,,83,64
78480,note_on,,,,,0,0,1,,,0,,,47,35
78480,note_off,,,,,90,0,1,,,0,,,54,64
78494,note_on,,,,,14,0,1,,,0,,,80,63
78535,note_off,,,,,41,0,1,,,0,,,81,64
78591,note_on,,,,,56,0,1,,,0,,,78,63
78622,note_off,,,,,31,0,1,,,0,,,80,64
78712,note_off,,,,,90,0,1,,,0,,,78,64
78720,note_off,,,,,8,0,1,,,0,,,47,64
78720,note_on,,,,,0,0,1,,,0,,,80,68
78720,note_on,,,,,0,0,1,,,0,,,40,35
78840,note_on,,,,,120,0,1,,,0,,,76,67
78863,note_off,,,,,23,0,1,,,0,,,80,64
78927,note_off,,,,,64,0,1,,,0,,,76,64
78960,note_on,,,,,33,0,1,,,0,,,71,62
79029,note_off,,,,,69,0,1,,,0,,,71,64
79080,note_on,,,,,51,0,1,,,0,,,68,63
79200,note_off,,,,,120,0,1,,,0,,,40,64
79200,note_on,,,,,0,0,1,,,0,,,64,60
79245,note_off,,,,,45,0,1,,,0,,,68,64
79289,note_off,,,,,44,0,1,,,0,,,64,64
79320,note_on,,,,,31,0,1,,,0,,,59,63
79391,note_off,,,,,71,0,1,,,0,,,59,64
79440,note_on,,,,,49,0,1,,,0,,,56,62
79560,note_on,,,,,120,0,1,,,0,,,52,70
79585,note_off,,,,,25,0,1,,,0,,,56,64
79610,note_off,,,,,25,0,1,,,0,,,52,64
79680,note_on,,,,,70,0,1,,,0,,,40,56
80160,note_off,,,,,480,0,1,,,0,,,40,64
80367,note_on,,,,,207,0,1,,,0,,,80,68
80400,note_on,,,,,0,0,1,,,0,,,64,40
80400,note_on,,,,,33,0,1,,,0,,,68,58
80458,note_off,,,,,58,0,1,,,0,,,80,64
80475,note_on,,,,,17,0,1,,,0,,,76,50
80557,note_off,,,,,82,0,1,,,0,,,76,64
80580,note_off,,,,,23,0,1,,,0,,,64,64
80580,note_off,,,,,0,0,1,,,0,,,68,64
80615,note_on,,,,,35,0,1,,,0,,,82,68
80640,note_on,,,,,0,0,1,,,0,,,66,38
80640,note_on,,,,,25,0,1,,,0,,,63,47
80730,note_off,,,,,90,0,1,,,0,,,66,64
80730,note_off,,,,,0,0,1,,,0,,,63,64
80840,note_off,,,,,110,0,1,,,0,,,82,64
80880,note_on,,,,,40,0,1,,,0,,,63,40
80880,note_on,,,,,0,0,1,,,0,,,66,50
80890,note_on,,,,,10,0,1,,,0,,,83,31
80970,note_off,,,,,80,0,1,,,0,,,66,64
80970,note_off,,,,,0,0,1,,,0,,,63,64
81120,note_on,,,,,0,0,1,,,0,,,68,58
81120,note_on,,,,,150,0,1,,,0,,,64,44
81136,note_on,,,,,16,0,1,,,0,,,71,50
81210,note_off,,,,,0,0,1,,,0,,,64,64
81210,note_off,,,,,74,0,1,,,0,,,68,64
81310,note_off,,,,,100,0,1,,,0,,,83,64
81360,note_on,,,,,50,0,1,,,0,,,64,33
81360,note_on,,,,,0,0,1,,,0,,,68,47
81363,note_on,,,,,3,0,1,,,0,,,80,74
81450,note_off,,,,,87,0,1,,,0,,,68,64
81450,note_off,,,,,0,0,1,,,0,,,64,64
81462,note_on,,,,,12,0,1,,,0,,,76,70
81477,note_off,,,,,15,0,1,,,0,,,80,64
81594,note_on,,,,,117,0,1,,,0,,,77,75
81600,note_on,,,,,0,0,1,,,0,,,66,55
81600,note_on,,,,,6,0,1,,,0,,,63,44
81602,note_off,,,,,2,0,1,,,0,,,76,64
81690,note_off,,,,,88,0,1,,,0,,,66,64
81690,note_off,,,,,0,0,1,,,0,,,63,64
81831,note_on,,,,,141,0,1,,,0,,,78,74
81840,note_on,,,,,9,0,1,,,0,,,63,55
81840,note_on,,,,,0,0,1,,,0,,,66,55
81860,note_off,,,,,20,0,1,,,0,,,77,64
81930,note_off,,,,,70,0,1,,,0,,,66,64
81930,note_off,,,,,0,0,1,,,0,,,63,64
81964,note_off,,,,,34,0,1,,,0,,,71,64
82080,note_on,,,,,0,0,1,,,0,,,71,70
82080,note_on,,,,,116,0,1,,,0,,,68,58
82080,note_on,,,,,0,0,1,,,0,,,64,44
82170,note_off,,,,,0,0,1,,,0,,,68,64
82170,note_off,,,,,90,0,1,,,0,,,64,64
82227,note_off,,,,,57,0,1,,,0,,,78,64
82317,note_on,,,,,90,0,1,,,0,,,80,68
82320,note_on,,,,,0,0,1,,,0,,,64,47
82320,note_on,,,,,3,0,1,,,0,,,68,47
82410,note_off,,,,,0,0,1,,,0,,,68,64
82410,note_off,,,,,90,0,1,,,0,,,64,64
82419,note_off,,,,,9,0,1,,,0,,,80,64
82419,note_on,,,,,0,0,1,,,0,,,76,62
82505,note_off,,,,,86,0,1,,,0,,,76,64
82551,note_on,,,,,46,0,1,,,0,,,82,55
82560,note_on,,,,,9,0,1,,,0,,,63,22
82560,note_on,,,,,0,0,1,,,0,,,66,27
82650,note_off,,,,,90,0,1,,,0,,,66,64
82650,note_off,,,,,0,0,1,,,0,,,63,64
82767,note_off,,,,,117,0,1,,,0,,,82,64
82800,note_on,,,,,33,0,1,,,0,,,63,27
82800,note_on,,,,,0,0,1,,,0,,,66,25
82821,note_on,,,,,21,0,1,,,0,,,83,39
82890,note_off,,,,,69,0,1,,,0,,,66,64
82890,note_off,,,,,0,0,1,,,0,,,63,64
82944,note_off,,,,,54,0,1,,,0,,,71,64
83040,note_on,,,,,0,0,1,,,0,,,68,23
83040,note_on,,,,,96,0,1,,,0,,,64,18
83058,note_on,,,,,18,0,1,,,0,,,71,39
83130,note_off,,,,,72,0,1,,,0,,,68,64
83130,note_off,,,,,0,0,1,,,0,,,64,64
83205,note_off,,,,,75,0,1,,,0,,,83,64
83280,note_on,,,,,0,0,1,,,0,,,64,22
83280,note_on,,,,,75,0,1,,,0,,,68,23
83296,note_on,,,,,16,0,1,,,0,,,80,55
83370,note_off,,,,,74,0,1,,,0,,,64,64
83370,note_off,,,,,0,0,1,,,0,,,68,64
83374,note_off,,,,,4,0,1,,,0,,,80,64
83404,note_on,,,,,30,0,1,,,0,,,76,29
83505,note_off,,,,,101,0,1,,,0,,,76,64
83520,note_on,,,,,0,0,1,,,0,,,66,23
83520,note_on,,,,,15,0,1,,,0,,,63,22
83525,note_on,,,,,5,0,1,,,0,,,77,41
83610,note_off,,,,,0,0,1,,,0,,,63,64
83610,note_off,,,,,85,0,1,,,0,,,66,64
83760,note_on,,,,,150,0,1,,,0,,,63,22
83760,note_on,,,,,0,0,1,,,0,,,66,27
83778,note_on,,,,,18,0,1,,,0,,,78,55
83788,note_off,,,,,10,0,1,,,0,,,77,64
83826,note_off,,,,,38,0,1,,,0,,,71,64
83850,note_off,,,,,24,0,1,,,0,,,66,64
83850,note_off,,,,,0,0,1,,,0,,,63,64
84000,note_on,,,,,150,0,1,,,0,,,64,21
84000,note_on,,,,,0,0,1,,,0,,,71,50
84000,note_on,,,,,0,0,1,,,0,,,68,23
84090,note_off,,,,,90,0,1,,,0,,,68,64
84090,note_off,,,,,0,0,1,,,0,,,64,64
84138,note_off,,,,,48,0,1,,,0,,,78,64
84222,note_on,,,,,84,0,1,,,0,,,80,63
84240,note_on,,,,,0,0,1,,,0,,,68,23
84240,note_on,,,,,18,0,1,,,0,,,64,19
84330,note_off,,,,,90,0,1,,,0,,,68,64
84330,note_off,,,,,0,0,1,,,0,,,64,64
84340,note_on,,,,,10,0,1,,,0,,,76,59
84350,note_off,,,,,10,0,1,,,0,,,80,64
84456,note_off,,,,,106,0,1,,,0,,,76,64
84469,note_on,,,,,13,0,1,,,0,,,83,67
84480,note_on,,,,,11,0,1,,,0,,,63,35
84480,note_on,,,,,0,0,1,,,0,,,66,35
84600,note_on,,,,,120,0,1,,,0,,,78,50
84606,note_off,,,,,6,0,1,,,0,,,83,64
84660,note_off,,,,,54,0,1,,,0,,,66,64
84660,note_off,,,,,0,0,1,,,0,,,63,64
84719,note_off,,,,,59,0,1,,,0,,,78,64
84720,note_on,,,,,1,0,1,,,0,,,59,40
84720,note_on,,,,,0,0,1,,,0,,,76,56
84840,note_on,,,,,120,0,1,,,0,,,75,63
84864,note_off,,,,,24,0,1,,,0,,,71,64
84865,note_off,,,,,1,0,1,,,0,,,76,64
84900,note_off,,,,,35,0,1,,,0,,,59,64
84957,note_off,,,,,57,0,1,,,0,,,75,64
84960,note_on,,,,,0,0,1,,,0,,,78,68
84960,note_on,,,,,3,0,1,,,0,,,61,40
85077,note_off,,,,,117,0,1,,,0,,,78,64
85080,note_on,,,,,3,0,1,,,0,,,76,52
85140,note_off,,,,,60,0,1,,,0,,,61,64
85200,note_on,,,,,60,0,1,,,0,,,54,43
85200,note_on,,,,,0,0,1,,,0,,,75,63
85210,note_off,,,,,10,0,1,,,0,,,76,64
85308,note_off,,,,,98,0,1,,,0,,,75,64
85320,note_on,,,,,12,0,1,,,0,,,73,63
85380,note_off,,,,,60,0,1,,,0,,,54,64
85415,note_off,,,,,35,0,1,,,0,,,73,64
85440,note_on,,,,,25,0,1,,,0,,,59,45
85443,note_on,,,,,3,0,1,,,0,,,76,70
85560,note_on,,,,,117,0,1,,,0,,,75,68
85575,note_off,,,,,15,0,1,,,0,,,76,64
85620,note_off,,,,,45,0,1,,,0,,,59,64
85676,note_on,,,,,56,0,1,,,0,,,73,68
85680,note_on,,,,,4,0,1,,,0,,,63,43
85687,note_off,,,,,7,0,1,,,0,,,75,64
85786,note_on,,,,,99,0,1,,,0,,,75,80
85797,note_off,,,,,11,0,1,,,0,,,73,64
85860,note_off,,,,,63,0,1,,,0,,,63,64
85909,note_off,,,,,49,0,1,,,0,,,75,64
85909,note_on,,,,,0,0,1,,,0,,,78,68
85920,note_on,,,,,11,0,1,,,0,,,61,46
86035,note_on,,,,,115,0,1,,,0,,,76,50
86046,note_off,,,,,11,0,1,,,0,,,78,64
86100,note_off,,,,,54,0,1,,,0,,,61,64
86158,note_on,,,,,58,0,1,,,0,,,75,63
86160,note_on,,,,,2,0,1,,,0,,,54,43
86175,note_off,,,,,15,0,1,,,0,,,76,64
86270,note_on,,,,,95,0,1,,,0,,,73,68
86281,note_off,,,,,11,0,1,,,0,,,75,64
86340,note_off,,,,,59,0,1,,,0,,,54,64
86359,note_off,,,,,19,0,1,,,0,,,73,64
86391,note_on,,,,,32,0,1,,,0,,,76,75
86400,note_on,,,,,9,0,1,,,0,,,59,45
86510,note_on,,,,,110,0,1,,,0,,,75,68
86538,note_off,,,,,28,0,1,,,0,,,76,64
86580,note_off,,,,,42,0,1,,,0,,,59,64
86624,note_off,,,,,44,0,1,,,0,,,75,64
86633,note_on,,,,,9,0,1,,,0,,,73,63
86640,note_on,,,,,7,0,1,,,0,,,63,47
86737,note_on,,,,,97,0,1,,,0,,,75,74
86748,note_off,,,,,11,0,1,,,0,,,73,64
86820,note_off,,,,,72,0,1,,,0,,,63,64
86858,note_on,,,,,38,0,1,,,0,,,78,68
86873,note_off,,,,,15,0,1,,,0,,,75,64
86880,note_on,,,,,7,0,1,,,0,,,61,46
86968,note_on,,,,,88,0,1,,,0,,,76,59
86996,note_off,,,,,28,0,1,,,0,,,78,64
87060,note_off,,,,,64,0,1,,,0,,,61,64
87093,note_on,,,,,33,0,1,,,0,,,75,38
87120,note_on,,,,,27,0,1,,,0,,,54,43
87123,note_off,,,,,3,0,1,,,0,,,76,64
87197,note_on,,,,,74,0,1,,,0,,,73,58
87212,note_off,,,,,15,0,1,,,0,,,75,64
87275,note_off,,,,,63,0,1,,,0,,,73,64
87300,note_off,,,,,25,0,1,,,0,,,54,64
87339,note_on,,,,,39,0,1,,,0,,,83,67
87360,note_on,,,,,21,0,1,,,0,,,47,52
87456,note_on,,,,,96,0,1,,,0,,,78,63
87486,note_off,,,,,30,0,1,,,0,,,83,64
87586,note_on,,,,,100,0,1,,,0,,,75,68
87648,note_off,,,,,62,0,1,,,0,,,78,64
87694,note_off,,,,,46,0,1,,,0,,,75,64
87694,note_on,,,,,0,0,1,,,0,,,71,56
87720,note_off,,,,,26,0,1,,,0,,,47,64
87745,note_off,,,,,25,0,1,,,0,,,71,64
87806,note_on,,,,,61,0,1,,,0,,,71,50
87933,note_on,,,,,127,0,1,,,0,,,66,68
87970,note_off,,,,,37,0,1,,,0,,,71,64
88054,note_on,,,,,84,0,1,,,0,,,63,63
88126,note_off,,,,,72,0,1,,,0,,,66,64
88158,note_on,,,,,0,0,1,,,0,,,59,66
88158,note_off,,,,,32,0,1,,,0,,,63,64
88227,note_off,,,,,69,0,1,,,0,,,59,64
88266,note_on,,,,,39,0,1,,,0,,,59,60
88387,note_on,,,,,121,0,1,,,0,,,54,68
88411,note_off,,,,,24,0,1,,,0,,,59,64
88495,note_on,,,,,84,0,1,,,0,,,51,74
88553,note_off,,,,,58,0,1,,,0,,,54,64
88618,note_on,,,,,65,0,1,,,0,,,47,75
88625,note_off,,,,,7,0,1,,,0,,,51,64
88661,note_off,,,,,36,0,1,,,0,,,47,64
88724,note_on,,,,,63,0,1,,,0,,,47,59
88843,note_on,,,,,119,0,1,,,0,,,42,68
88866,note_off,,,,,23,0,1,,,0,,,47,64
88946,note_on,,,,,80,0,1,,,0,,,39,80
88968,note_off,,,,,22,0,1,,,0,,,42,64
89067,note_on,,,,,99,0,1,,,0,,,35,86
89074,note_off,,,,,7,0,1,,,0,,,39,64
89149,note_off,,,,,75,0,1,,,0,,,35,64
89193,note_on,,,,,44,0,1,,,0,,,35,70
89280,note_on,,,,,87,0,1,,,0,,,35,32
89280,set_tempo,,,,,16320,1,0,500000,,,,,,
89640,note_off,,,,,360,0,1,,,0,,,35,64
89750,note_off,,,,,110,0,1,,,0,,,35,64
90240,set_tempo,,,,,960,1,0,250000,,,,,,
90240,note_on,,,,,490,0,1,,,0,,,37,74
90240,note_on,,,,,0,0,1,,,0,,,49,74
90443,control_change,,,,,203,0,1,,,0,64,64,,
90468,control_change,,,,,25,0,1,,,0,64,96,,
90484,note_on,,,,,16,0,1,,,0,,,83,62
90592,note_on,,,,,0,0,1,,,0,,,78,55
90592,control_change,,,,,108,0,1,,,0,64,127,,
90603,note_on,,,,,11,0,1,,,0,,,74,44
90621,note_off,,,,,18,0,1,,,0,,,83,64
90653,note_off,,,,,32,0,1,,,0,,,74,64
90667,note_off,,,,,14,0,1,,,0,,,78,64
90720,note_off,,,,,0,0,1,,,0,,,37,64
90720,note_off,,,,,53,0,1,,,0,,,49,64
90737,note_on,,,,,17,0,1,,,0,,,77,70
90737,note_on,,,,,0,0,1,,,0,,,73,63
90774,note_off,,,,,37,0,1,,,0,,,73,64
90788,note_off,,,,,14,0,1,,,0,,,77,64
90986,note_on,,,,,198,0,1,,,0,,,83,70
91084,note_on,,,,,98,0,1,,,0,,,78,74
91098,note_on,,,,,14,0,1,,,0,,,74,50
91109,note_off,,,,,11,0,1,,,0,,,83,64
91130,note_off,,,,,21,0,1,,,0,,,74,64
91157,note_off,,,,,27,0,1,,,0,,,78,64
91200,note_on,,,,,0,0,1,,,0,,,49,74
91200,note_on,,,,,43,0,1,,,0,,,37,74
91234,note_on,,,,,34,0,1,,,0,,,73,68
91234,note_on,,,,,0,0,1,,,0,,,77,75
91257,note_off,,,,,23,0,1,,,0,,,73,64
91264,note_off,,,,,7,0,1,,,0,,,77,64
91476,note_on,,,,,212,0,1,,,0,,,83,70
91554,note_off,,,,,78,0,1,,,0,,,83,64
91588,note_on,,,,,34,0,1,,,0,,,74,70
91588,note_on,,,,,0,0,1,,,0,,,78,80
91645,note_off,,,,,57,0,1,,,0,,,74,64
91656,note_off,,,,,11,0,1,,,0,,,78,64
91680,note_off,,,,,0,0,1,,,0,,,37,64
91680,note_off,,,,,24,0,1,,,0,,,49,64
91718,note_on,,,,,0,0,1,,,0,,,73,68
91718,note_on,,,,,38,0,1,,,0,,,77,86
91747,note_off,,,,,29,0,1,,,0,,,73,64
91766,note_off,,,,,19,0,1,,,0,,,77,64
91939,note_on,,,,,173,0,1,,,0,,,83,75
92046,note_on,,,,,107,0,1,,,0,,,78,74
92058,note_off,,,,,12,0,1,,,0,,,83,64
92058,note_on,,,,,0,0,1,,,0,,,74,56
92080,note_off,,,,,22,0,1,,,0,,,74,64
92117,note_off,,,,,37,0,1,,,0,,,78,64
92160,note_on,,,,,0,0,1,,,0,,,49,74
92160,note_on,,,,,43,0,1,,,0,,,37,74
92181,note_on,,,,,21,0,1,,,0,,,77,80
92181,note_on,,,,,0,0,1,,,0,,,73,80
92210,note_off,,,,,29,0,1,,,0,,,73,64
92233,note_off,,,,,23,0,1,,,0,,,77,64
92443,note_on,,,,,210,0,1,,,0,,,83,70
92463,control_change,,,,,20,0,1,,,0,64,96,,
92479,control_change,,,,,16,0,1,,,0,64,64,,
92493,control_change,,,,,14,0,1,,,0,64,0,,
92548,note_on,,,,,55,0,1,,,0,,,74,62
92557,note_off,,,,,9,0,1,,,0,,,83,64
92607,note_off,,,,,50,0,1,,,0,,,74,64
92640,note_off,,,,,0,0,1,,,0,,,37,64
92640,note_off,,,,,33,0,1,,,0,,,49,64
92682,note_on,,,,,42,0,1,,,0,,,73,80
92767,note_off,,,,,85,0,1,,,0,,,73,64
92803,note_on,,,,,36,0,1,,,0,,,81,67
92867,note_off,,,,,64,0,1,,,0,,,81,64
92935,note_on,,,,,68,0,1,,,0,,,71,75
93054,note_on,,,,,119,0,1,,,0,,,80,68
93070,note_off,,,,,16,0,1,,,0,,,71,64
93090,control_change,,,,,20,0,1,,,0,64,64,,
93102,note_off,,,,,12,0,1,,,0,,,80,64
93120,control_change,,,,,18,0,1,,,0,64,96,,
93120,note_on,,,,,0,0,1,,,0,,,37,74
93120,note_on,,,,,0,0,1,,,0,,,49,74
93150,control_change,,,,,30,0,1,,,0,64,127,,
93400,note_on,,,,,250,0,1,,,0,,,81,70
93494,note_off,,,,,94,0,1,,,0,,,81,64
93503,note_on,,,,,9,0,1,,,0,,,73,68
93556,note_off,,,,,53,0,1,,,0,,,73,64
93600,note_off,,,,,0,0,1,,,0,,,37,64
93600,note_off,,,,,44,0,1,,,0,,,49,64
93635,note_on,,,,,35,0,1,,,0,,,71,75
93699,note_off,,,,,64,0,1,,,0,,,71,64
93752,note_on,,,,,53,0,1,,,0,,,80,74
93809,note_off,,,,,57,0,1,,,0,,,80,64
93880,note_on,,,,,71,0,1,,,0,,,69,75
93996,note_on,,,,,116,0,1,,,0,,,78,80
94005,note_off,,,,,9,0,1,,,0,,,69,64
94048,note_off,,,,,43,0,1,,,0,,,78,64
94064,control_change,,,,,16,0,1,,,0,64,96,,
94080,note_on,,,,,16,0,1,,,0,,,37,74
94080,note_on,,,,,0,0,1,,,0,,,49,74
94082,control_change,,,,,2,0,1,,,0,64,0,,
94276,control_change,,,,,194,0,1,,,0,64,64,,
94301,control_change,,,,,25,0,1,,,0,64,96,,
94338,control_change,,,,,37,0,1,,,0,64,127,,
94360,note_on,,,,,22,0,1,,,0,,,80,74
94445,note_off,,,,,85,0,1,,,0,,,80,64
94458,note_on,,,,,13,0,1,,,0,,,71,59
94515,note_off,,,,,57,0,1,,,0,,,71,64
94560,note_off,,,,,45,0,1,,,0,,,49,64
94560,note_off,,,,,0,0,1,,,0,,,37,64
94593,note_on,,,,,33,0,1,,,0,,,69,80
94675,note_off,,,,,82,0,1,,,0,,,69,64
94711,note_on,,,,,36,0,1,,,0,,,78,63
94764,note_off,,,,,53,0,1,,,0,,,78,64
94828,note_on,,,,,64,0,1,,,0,,,68,74
94942,note_off,,,,,114,0,1,,,0,,,68,64
94942,note_on,,,,,0,0,1,,,0,,,77,70
94985,control_change,,,,,43,0,1,,,0,64,64,,
94994,note_off,,,,,9,0,1,,,0,,,77,64
95003,control_change,,,,,9,0,1,,,0,64,0,,
95040,note_on,,,,,37,0,1,,,0,,,42,74
95063,note_on,,,,,23,0,1,,,0,,,78,94
95122,control_change,,,,,59,0,1,,,0,64,64,,
95140,control_change,,,,,18,0,1,,,0,64,96,,
95156,control_change,,,,,16,0,1,,,0,64,127,,
95174,note_on,,,,,18,0,1,,,0,,,73,74
95206,note_off,,,,,32,0,1,,,0,,,78,64
95286,note_on,,,,,80,0,1,,,0,,,69,59
95295,note_off,,,,,9,0,1,,,0,,,73,64
95350,note_off,,,,,55,0,1,,,0,,,69,64
95407,note_on,,,,,57,0,1,,,0,,,66,68
95520,note_off,,,,,113,0,1,,,0,,,42,64
95539,note_off,,,,,19,0,1,,,0,,,66,64
95539,note_on,,,,,0,0,1,,,0,,,61,72
95628,note_off,,,,,89,0,1,,,0,,,61,64
95640,note_on,,,,,12,0,1,,,0,,,57,50
95719,note_off,,,,,79,0,1,,,0,,,57,64
95770,note_on,,,,,51,0,1,,,0,,,54,55
95890,note_off,,,,,120,0,1,,,0,,,54,64
95897,note_on,,,,,7,0,1,,,0,,,49,74
95943,note_off,,,,,46,0,1,,,0,,,49,64
96000,note_on,,,,,57,0,1,,,0,,,42,68
96000,set_tempo,,,,,5760,1,0,500000,,,,,,
96052,control_change,,,,,52,0,1,,,0,64,96,,
96068,control_change,,,,,16,0,1,,,0,64,0,,
96480,note_off,,,,,412,0,1,,,0,,,42,64
96960,set_tempo,,,,,960,1,0,250000,,,,,,
96960,note_on,,,,,480,0,1,,,0,,,35,42
96960,note_on,,,,,0,0,1,,,0,,,47,45
97217,control_change,,,,,257,0,1,,,0,64,64,,
97236,note_on,,,,,19,0,1,,,0,,,81,31
97242,control_change,,,,,6,0,1,,,0,64,96,,
97272,control_change,,,,,30,0,1,,,0,64,127,,
97353,note_on,,,,,81,0,1,,,0,,,72,22
97364,note_on,,,,,11,0,1,,,0,,,76,33
97375,note_off,,,,,11,0,1,,,0,,,81,64
97398,note_off,,,,,23,0,1,,,0,,,72,64
97412,note_off,,,,,14,0,1,,,0,,,76,64
97440,note_off,,,,,0,0,1,,,0,,,35,64
97440,note_off,,,,,28,0,1,,,0,,,47,64
97483,note_on,,,,,0,0,1,,,0,,,75,49
97483,note_on,,,,,43,0,1,,,0,,,71,46
97519,note_off,,,,,36,0,1,,,0,,,71,64
97526,note_off,,,,,7,0,1,,,0,,,75,64
97736,note_on,,,,,210,0,1,,,0,,,81,40
97825,note_off,,,,,89,0,1,,,0,,,81,64
97836,note_on,,,,,11,0,1,,,0,,,72,35
97838,note_on,,,,,2,0,1,,,0,,,76,44
97886,note_off,,,,,48,0,1,,,0,,,72,64
97893,note_off,,,,,7,0,1,,,0,,,76,64
97920,note_on,,,,,0,0,1,,,0,,,47,47
97920,note_on,,,,,27,0,1,,,0,,,35,44
97973,note_on,,,,,0,0,1,,,0,,,71,54
97973,note_on,,,,,53,0,1,,,0,,,75,50
98007,note_off,,,,,34,0,1,,,0,,,71,64
98014,note_off,,,,,7,0,1,,,0,,,75,64
98210,note_on,,,,,196,0,1,,,0,,,81,39
98278,note_off,,,,,68,0,1,,,0,,,81,64
98317,note_on,,,,,0,0,1,,,0,,,76,45
98317,note_on,,,,,39,0,1,,,0,,,72,36
98369,note_off,,,,,0,0,1,,,0,,,72,64
98369,note_off,,,,,52,0,1,,,0,,,76,64
98400,note_off,,,,,0,0,1,,,0,,,35,64
98400,note_off,,,,,31,0,1,,,0,,,47,64
98447,note_on,,,,,47,0,1,,,0,,,75,52
98458,note_on,,,,,11,0,1,,,0,,,71,52
98483,note_off,,,,,25,0,1,,,0,,,71,64
98502,note_off,,,,,19,0,1,,,0,,,75,64
98700,note_on,,,,,198,0,1,,,0,,,81,46
98775,note_off,,,,,75,0,1,,,0,,,81,64
98803,note_on,,,,,28,0,1,,,0,,,72,41
98814,note_on,,,,,11,0,1,,,0,,,76,46
98860,note_off,,,,,46,0,1,,,0,,,76,64
98860,note_off,,,,,0,0,1,,,0,,,72,64
98880,note_on,,,,,0,0,1,,,0,,,47,50
98880,note_on,,,,,20,0,1,,,0,,,35,47
98937,note_on,,,,,57,0,1,,,0,,,75,58
98949,note_on,,,,,12,0,1,,,0,,,71,53
98980,note_off,,,,,31,0,1,,,0,,,71,64
98990,note_off,,,,,10,0,1,,,0,,,75,64
99043,control_change,,,,,53,0,1,,,0,64,96,,
99059,control_change,,,,,16,0,1,,,0,64,64,,
99075,control_change,,,,,16,0,1,,,0,64,0,,
99195,note_on,,,,,120,0,1,,,0,,,81,47
99295,note_off,,,,,100,0,1,,,0,,,81,64
99302,note_on,,,,,7,0,1,,,0,,,72,42
99360,note_off,,,,,0,0,1,,,0,,,35,64
99360,note_off,,,,,58,0,1,,,0,,,47,64
99361,note_off,,,,,1,0,1,,,0,,,72,64
99427,note_on,,,,,66,0,1,,,0,,,71,51
99482,note_off,,,,,55,0,1,,,0,,,71,64
99530,note_on,,,,,48,0,1,,,0,,,79,52
99594,note_off,,,,,64,0,1,,,0,,,79,64
99602,control_change,,,,,8,0,1,,,0,64,64,,
99650,control_change,,,,,48,0,1,,,0,64,96,,
99655,note_on,,,,,5,0,1,,,0,,,69,52
99718,control_change,,,,,63,0,1,,,0,64,127,,
99776,note_off,,,,,58,0,1,,,0,,,69,64
99776,note_on,,,,,0,0,1,,,0,,,78,52
99822,note_off,,,,,46,0,1,,,0,,,78,64
99840,note_on,,,,,18,0,1,,,0,,,35,49
99840,note_on,,,,,0,0,1,,,0,,,47,53
99926,control_change,,,,,86,0,1,,,0,64,96,,
99942,control_change,,,,,16,0,1,,,0,64,64,,
99955,control_change,,,,,13,0,1,,,0,64,0,,
100084,note_on,,,,,129,0,1,,,0,,,79,49
100152,control_change,,,,,68,0,1,,,0,64,64,,
100157,note_off,,,,,5,0,1,,,0,,,79,64
100179,control_change,,,,,22,0,1,,,0,64,96,,
100189,note_on,,,,,10,0,1,,,0,,,71,50
100229,control_change,,,,,40,0,1,,,0,64,127,,
100257,note_off,,,,,28,0,1,,,0,,,71,64
100314,note_on,,,,,57,0,1,,,0,,,69,57
100320,note_off,,,,,6,0,1,,,0,,,47,64
100320,note_off,,,,,0,0,1,,,0,,,35,64
100380,note_off,,,,,60,0,1,,,0,,,69,64
100433,note_on,,,,,53,0,1,,,0,,,78,49
100481,note_off,,,,,48,0,1,,,0,,,78,64
100554,note_on,,,,,73,0,1,,,0,,,67,58
100663,note_on,,,,,109,0,1,,,0,,,76,47
100690,note_off,,,,,27,0,1,,,0,,,67,64
100727,note_off,,,,,37,0,1,,,0,,,76,64
100742,control_change,,,,,15,0,1,,,0,64,96,,
100758,control_change,,,,,16,0,1,,,0,64,0,,
100800,note_on,,,,,42,0,1,,,0,,,35,52
100800,note_on,,,,,0,0,1,,,0,,,47,55
101026,note_on,,,,,226,0,1,,,0,,,78,51
101105,note_off,,,,,79,0,1,,,0,,,78,64
101133,note_on,,,,,28,0,1,,,0,,,69,56
101155,control_change,,,,,22,0,1,,,0,64,64,,
101171,control_change,,,,,16,0,1,,,0,64,96,,
101196,control_change,,,,,25,0,1,,,0,64,127,,
101199,note_off,,,,,3,0,1,,,0,,,69,64
101263,note_on,,,,,64,0,1,,,0,,,67,56
101280,note_off,,,,,17,0,1,,,0,,,47,64
101280,note_off,,,,,0,0,1,,,0,,,35,64
101370,note_on,,,,,90,0,1,,,0,,,76,46
101386,note_off,,,,,16,0,1,,,0,,,67,64
101429,note_off,,,,,43,0,1,,,0,,,76,64
101500,note_on,,,,,71,0,1,,,0,,,66,52
101587,note_on,,,,,87,0,1,,,0,,,75,48
101597,control_change,,,,,10,0,1,,,0,64,96,,
101602,note_off,,,,,5,0,1,,,0,,,66,64
101622,control_change,,,,,20,0,1,,,0,64,0,,
101655,note_off,,,,,33,0,1,,,0,,,75,64
101735,note_on,,,,,80,0,1,,,0,,,76,54
101759,control_change,,,,,24,0,1,,,0,64,64,,
101760,note_on,,,,,1,0,1,,,0,,,40,65
101789,control_change,,,,,29,0,1,,,0,64,96,,
101814,control_change,,,,,25,0,1,,,0,64,127,,
101842,note_on,,,,,28,0,1,,,0,,,71,56
101883,note_off,,,,,41,0,1,,,0,,,76,64
101970,note_on,,,,,87,0,1,,,0,,,67,65
101995,note_off,,,,,25,0,1,,,0,,,71,64
102068,note_off,,,,,73,0,1,,,0,,,67,64
102077,note_on,,,,,9,0,1,,,0,,,64,57
102154,note_off,,,,,77,0,1,,,0,,,64,64
102216,note_on,,,,,62,0,1,,,0,,,59,66
102240,note_off,,,,,24,0,1,,,0,,,40,64
102321,note_off,,,,,81,0,1,,,0,,,59,64
102328,note_on,,,,,7,0,1,,,0,,,55,75
102453,note_off,,,,,125,0,1,,,0,,,55,64
102453,note_on,,,,,0,0,1,,,0,,,52,75
102480,note_on,,,,,27,0,1,,,0,,,52,33
102505,note_off,,,,,25,0,1,,,0,,,52,64
102600,note_off,,,,,95,0,1,,,0,,,52,64
102600,note_on,,,,,0,0,1,,,0,,,47,40
102660,control_change,,,,,60,0,1,,,0,64,96,,
102676,control_change,,,,,16,0,1,,,0,64,64,,
102691,control_change,,,,,15,0,1,,,0,64,0,,
102720,note_off,,,,,29,0,1,,,0,,,47,64
102720,note_on,,,,,0,0,1,,,0,,,40,60
103200,note_off,,,,,480,0,1,,,0,,,40,64
103440,note_on,,,,,240,0,1,,,0,,,64,47
103440,note_on,,,,,0,0,1,,,0,,,67,23
103466,note_on,,,,,26,0,1,,,0,,,79,62
103569,note_on,,,,,103,0,1,,,0,,,76,56
103578,note_off,,,,,9,0,1,,,0,,,79,64
103620,note_off,,,,,0,0,1,,,0,,,64,64
103620,note_off,,,,,42,0,1,,,0,,,67,64
103672,note_off,,,,,52,0,1,,,0,,,76,64
103680,note_on,,,,,8,0,1,,,0,,,66,33
103680,note_on,,,,,0,0,1,,,0,,,62,19
103699,note_on,,,,,19,0,1,,,0,,,82,63
103860,note_off,,,,,161,0,1,,,0,,,62,64
103860,note_off,,,,,0,0,1,,,0,,,66,64
103920,note_on,,,,,0,0,1,,,0,,,62,24
103920,note_on,,,,,60,0,1,,,0,,,66,35
103941,note_off,,,,,21,0,1,,,0,,,82,64
103941,note_on,,,,,0,0,1,,,0,,,83,47
104059,note_off,,,,,118,0,1,,,0,,,83,64
104100,note_off,,,,,41,0,1,,,0,,,62,64
104100,note_off,,,,,0,0,1,,,0,,,66,64
104160,note_on,,,,,0,0,1,,,0,,,67,27
104160,note_on,,,,,60,0,1,,,0,,,64,36
104340,note_off,,,,,180,0,1,,,0,,,67,64
104340,note_off,,,,,0,0,1,,,0,,,64,64
104390,note_on,,,,,50,0,1,,,0,,,79,67
104400,note_on,,,,,0,0,1,,,0,,,64,21
104400,note_on,,,,,10,0,1,,,0,,,67,29
104499,note_off,,,,,99,0,1,,,0,,,79,64
104513,note_on,,,,,14,0,1,,,0,,,76,62
104580,note_off,,,,,67,0,1,,,0,,,64,64
104580,note_off,,,,,0,0,1,,,0,,,67,64
104636,note_off,,,,,56,0,1,,,0,,,76,64
104636,note_on,,,,,0,0,1,,,0,,,77,56
104640,note_on,,,,,4,0,1,,,0,,,66,35
104640,note_on,,,,,0,0,1,,,0,,,62,23
104820,note_off,,,,,180,0,1,,,0,,,62,64
104820,note_off,,,,,0,0,1,,,0,,,66,64
104880,note_on,,,,,0,0,1,,,0,,,66,37
104880,note_on,,,,,60,0,1,,,0,,,62,35
104896,note_on,,,,,16,0,1,,,0,,,78,44
104926,note_off,,,,,30,0,1,,,0,,,77,64
105005,note_off,,,,,79,0,1,,,0,,,78,64
105060,note_off,,,,,55,0,1,,,0,,,66,64
105060,note_off,,,,,0,0,1,,,0,,,62,64
105120,note_on,,,,,60,0,1,,,0,,,67,33
105120,note_on,,,,,0,0,1,,,0,,,64,27
105300,note_off,,,,,0,0,1,,,0,,,67,64
105300,note_off,,,,,180,0,1,,,0,,,64,64
105359,note_on,,,,,59,0,1,,,0,,,79,62
105360,note_on,,,,,0,0,1,,,0,,,64,35
105360,note_on,,,,,1,0,1,,,0,,,67,37
105461,note_on,,,,,101,0,1,,,0,,,76,59
105493,note_off,,,,,32,0,1,,,0,,,79,64
105540,note_off,,,,,47,0,1,,,0,,,64,64
105540,note_off,,,,,0,0,1,,,0,,,67,64
105600,note_on,,,,,60,0,1,,,0,,,62,35
105600,note_on,,,,,0,0,1,,,0,,,66,35
105603,note_on,,,,,3,0,1,,,0,,,82,74
105635,note_off,,,,,32,0,1,,,0,,,76,64
105780,note_off,,,,,145,0,1,,,0,,,66,64
105780,note_off,,,,,0,0,1,,,0,,,62,64
105840,note_on,,,,,60,0,1,,,0,,,66,41
105840,note_on,,,,,0,0,1,,,0,,,62,24
105844,note_on,,,,,4,0,1,,,0,,,83,56
105870,note_off,,,,,26,0,1,,,0,,,82,64
105913,note_off,,,,,43,0,1,,,0,,,83,64
106020,note_off,,,,,107,0,1,,,0,,,62,64
106020,note_off,,,,,0,0,1,,,0,,,66,64
106080,note_on,,,,,0,0,1,,,0,,,64,31
106080,note_on,,,,,60,0,1,,,0,,,67,27
106260,note_off,,,,,0,0,1,,,0,,,67,64
106260,note_off,,,,,180,0,1,,,0,,,64,64
106312,note_on,,,,,52,0,1,,,0,,,79,62
106320,note_on,,,,,0,0,1,,,0,,,64,31
106320,note_on,,,,,8,0,1,,,0,,,67,29
106410,note_off,,,,,90,0,1,,,0,,,79,64
106421,note_on,,,,,11,0,1,,,0,,,76,59
106500,note_off,,,,,0,0,1,,,0,,,67,64
106500,note_off,,,,,79,0,1,,,0,,,64,64
106556,note_on,,,,,56,0,1,,,0,,,77,56
106560,note_on,,,,,4,0,1,,,0,,,66,37
106560,note_on,,,,,0,0,1,,,0,,,62,25
106567,note_off,,,,,7,0,1,,,0,,,76,64
106740,note_off,,,,,173,0,1,,,0,,,62,64
106740,note_off,,,,,0,0,1,,,0,,,66,64
106800,note_on,,,,,0,0,1,,,0,,,62,24
106800,note_on,,,,,60,0,1,,,0,,,66,41
106816,note_on,,,,,16,0,1,,,0,,,78,47
106843,note_off,,,,,27,0,1,,,0,,,77,64
106889,note_off,,,,,46,0,1,,,0,,,78,64
106980,note_off,,,,,91,0,1,,,0,,,62,64
106980,note_off,,,,,0,0,1,,,0,,,66,64
107040,note_on,,,,,60,0,1,,,0,,,62,27
107040,note_on,,,,,0,0,1,,,0,,,59,38
107220,note_off,,,,,180,0,1,,,0,,,59,64
107220,note_off,,,,,0,0,1,,,0,,,62,64
107254,note_on,,,,,34,0,1,,,0,,,83,67
107280,note_on,,,,,26,0,1,,,0,,,62,30
107280,note_on,,,,,0,0,1,,,0,,,59,40
107361,note_off,,,,,81,0,1,,,0,,,83,64
107383,note_on,,,,,22,0,1,,,0,,,74,52
107460,note_off,,,,,77,0,1,,,0,,,59,64
107460,note_off,,,,,0,0,1,,,0,,,62,64
107516,note_off,,,,,56,0,1,,,0,,,74,64
107520,note_on,,,,,4,0,1,,,0,,,64,35
107520,note_on,,,,,0,0,1,,,0,,,61,33
107539,note_on,,,,,19,0,1,,,0,,,75,58
107700,note_off,,,,,0,0,1,,,0,,,64,64
107700,note_off,,,,,161,0,1,,,0,,,61,64
107760,note_on,,,,,60,0,1,,,0,,,64,31
107760,note_on,,,,,0,0,1,,,0,,,61,29
107782,note_off,,,,,22,0,1,,,0,,,75,64
107782,note_on,,,,,0,0,1,,,0,,,76,47
107853,note_off,,,,,71,0,1,,,0,,,76,64
107940,note_off,,,,,0,0,1,,,0,,,64,64
107940,note_off,,,,,87,0,1,,,0,,,61,64
108000,note_on,,,,,0,0,1,,,0,,,54,30
108000,note_on,,,,,60,0,1,,,0,,,64,31
108000,note_on,,,,,0,0,1,,,0,,,61,36
108180,note_off,,,,,0,0,1,,,0,,,64,64
108180,note_off,,,,,180,0,1,,,0,,,54,64
108180,note_off,,,,,0,0,1,,,0,,,61,64
108238,note_on,,,,,58,0,1,,,0,,,83,62
108240,note_on,,,,,2,0,1,,,0,,,64,31
108240,note_on,,,,,0,0,1,,,0,,,61,36
108240,note_on,,,,,0,0,1,,,0,,,54,28
108339,note_on,,,,,99,0,1,,,0,,,73,58
108350,note_off,,,,,11,0,1,,,0,,,83,64
108394,note_off,,,,,44,0,1,,,0,,,73,64
108420,note_off,,,,,0,0,1,,,0,,,64,64
108420,note_off,,,,,0,0,1,,,0,,,61,64
108420,note_off,,,,,26,0,1,,,0,,,54,64
108457,note_on,,,,,37,0,1,,,0,,,73,58
108480,note_on,,,,,23,0,1,,,0,,,47,39
108660,note_off,,,,,180,0,1,,,0,,,47,64
108694,note_off,,,,,34,0,1,,,0,,,73,64
108708,note_on,,,,,14,0,1,,,0,,,75,55
108720,note_on,,,,,12,0,1,,,0,,,59,33
108900,note_off,,,,,180,0,1,,,0,,,59,64
108941,note_off,,,,,41,0,1,,,0,,,75,64
108954,note_on,,,,,13,0,1,,,0,,,71,50
108960,note_on,,,,,6,0,1,,,0,,,59,30
109140,note_off,,,,,180,0,1,,,0,,,59,64
109200,note_on,,,,,60,0,1,,,0,,,47,30
109210,note_on,,,,,10,0,1,,,0,,,78,50
109378,note_off,,,,,168,0,1,,,0,,,78,64
109380,note_off,,,,,2,0,1,,,0,,,47,64
109440,note_on,,,,,60,0,1,,,0,,,52,52
109454,note_on,,,,,14,0,1,,,0,,,78,63
109561,note_off,,,,,107,0,1,,,0,,,78,64
109575,note_on,,,,,14,0,1,,,0,,,76,56
109682,note_on,,,,,107,0,1,,,0,,,80,68
109693,note_off,,,,,11,0,1,,,0,,,76,64
109812,note_on,,,,,119,0,1,,,0,,,78,63
109839,note_off,,,,,27,0,1,,,0,,,80,64
109919,note_off,,,,,80,0,1,,,0,,,78,64
109933,note_on,,,,,14,0,1,,,0,,,76,59
109980,note_off,,,,,47,0,1,,,0,,,52,64
110010,note_off,,,,,30,0,1,,,0,,,71,64
110038,note_off,,,,,28,0,1,,,0,,,76,64
110056,note_on,,,,,18,0,1,,,0,,,75,55
110160,note_on,,,,,104,0,1,,,0,,,52,52
110181,note_on,,,,,21,0,1,,,0,,,73,58
110220,note_off,,,,,39,0,1,,,0,,,75,64
110284,note_on,,,,,64,0,1,,,0,,,71,50
110295,note_off,,,,,11,0,1,,,0,,,73,64
110340,note_off,,,,,45,0,1,,,0,,,52,64
110398,note_off,,,,,58,0,1,,,0,,,71,64
110400,note_on,,,,,2,0,1,,,0,,,54,47
110407,note_on,,,,,7,0,1,,,0,,,70,63
110580,note_off,,,,,173,0,1,,,0,,,54,64
110640,note_on,,,,,60,0,1,,,0,,,58,55
110640,note_on,,,,,0,0,1,,,0,,,78,58
110653,note_off,,,,,13,0,1,,,0,,,70,64
110820,note_off,,,,,167,0,1,,,0,,,58,64
110863,note_off,,,,,43,0,1,,,0,,,78,64
110880,note_on,,,,,17,0,1,,,0,,,59,51
110888,note_on,,,,,8,0,1,,,0,,,76,59
110998,note_on,,,,,110,0,1,,,0,,,75,63
111030,note_off,,,,,32,0,1,,,0,,,76,64
111060,note_off,,,,,30,0,1,,,0,,,59,64
111116,note_on,,,,,56,0,1,,,0,,,73,63
111120,note_on,,,,,4,0,1,,,0,,,51,50
111134,note_off,,,,,14,0,1,,,0,,,75,64
111198,note_off,,,,,64,0,1,,,0,,,73,64
111217,note_on,,,,,19,0,1,,,0,,,71,52
111300,note_off,,,,,83,0,1,,,0,,,51,64
111312,note_off,,,,,12,0,1,,,0,,,71,64
111346,note_on,,,,,34,0,1,,,0,,,83,67
111360,note_on,,,,,14,0,1,,,0,,,52,56
111458,note_off,,,,,98,0,1,,,0,,,83,64
111606,note_on,,,,,148,0,1,,,0,,,80,63
111848,note_on,,,,,242,0,1,,,0,,,76,50
111869,note_off,,,,,21,0,1,,,0,,,80,64
111900,note_off,,,,,31,0,1,,,0,,,52,64
112080,note_on,,,,,180,0,1,,,0,,,52,59
112090,note_on,,,,,10,0,1,,,0,,,73,55
112101,note_off,,,,,11,0,1,,,0,,,76,64
112144,note_off,,,,,43,0,1,,,0,,,73,64
112260,note_off,,,,,116,0,1,,,0,,,52,64
112320,note_on,,,,,60,0,1,,,0,,,54,55
112320,note_on,,,,,0,0,1,,,0,,,70,55
112500,note_off,,,,,180,0,1,,,0,,,54,64
112550,note_on,,,,,50,0,1,,,0,,,78,58
112560,note_on,,,,,10,0,1,,,0,,,58,50
112569,note_off,,,,,9,0,1,,,0,,,70,64
112740,note_off,,,,,171,0,1,,,0,,,58,64
112749,note_off,,,,,9,0,1,,,0,,,78,64
112787,note_on,,,,,38,0,1,,,0,,,76,62
112800,note_on,,,,,13,0,1,,,0,,,59,48
112897,note_on,,,,,97,0,1,,,0,,,75,68
112933,note_off,,,,,36,0,1,,,0,,,76,64
112980,note_off,,,,,47,0,1,,,0,,,59,64
113020,note_on,,,,,40,0,1,,,0,,,73,68
113040,note_on,,,,,20,0,1,,,0,,,51,50
113060,note_off,,,,,20,0,1,,,0,,,75,64
113129,note_off,,,,,69,0,1,,,0,,,73,64
113143,note_on,,,,,14,0,1,,,0,,,71,59
113220,note_off,,,,,77,0,1,,,0,,,51,64
113269,note_on,,,,,49,0,1,,,0,,,83,70
113280,note_on,,,,,0,0,1,,,0,,,52,47
113280,note_off,,,,,11,0,1,,,0,,,71,64
113364,note_off,,,,,84,0,1,,,0,,,83,64
113533,note_on,,,,,169,0,1,,,0,,,80,80
113763,note_on,,,,,230,0,1,,,0,,,76,56
113800,note_off,,,,,37,0,1,,,0,,,80,64
113820,note_off,,,,,20,0,1,,,0,,,52,64
114000,note_on,,,,,180,0,1,,,0,,,52,50
114005,note_on,,,,,5,0,1,,,0,,,73,58
114019,note_off,,,,,14,0,1,,,0,,,76,64
114046,note_off,,,,,27,0,1,,,0,,,73,64
114180,note_off,,,,,134,0,1,,,0,,,52,64
114233,note_on,,,,,53,0,1,,,0,,,70,63
114240,note_on,,,,,7,0,1,,,0,,,54,40
114281,note_off,,,,,41,0,1,,,0,,,70,64
114420,note_off,,,,,139,0,1,,,0,,,54,64
114472,note_on,,,,,52,0,1,,,0,,,78,80
114480,note_on,,,,,8,0,1,,,0,,,61,42
114481,note_on,,,,,1,0,1,,,0,,,66,68
114660,note_off,,,,,179,0,1,,,0,,,61,64
114689,control_change,,,,,29,0,1,,,0,64,64,,
114720,note_on,,,,,31,0,1,,,0,,,62,52
114723,control_change,,,,,3,0,1,,,0,64,96,,
114753,control_change,,,,,30,0,1,,,0,64,127,,
114900,note_off,,,,,147,0,1,,,0,,,62,64
114915,note_off,,,,,15,0,1,,,0,,,66,64
114960,note_on,,,,,45,0,1,,,0,,,59,54
114965,note_off,,,,,5,0,1,,,0,,,78,64
115061,control_change,,,,,96,0,1,,,0,64,96,,
115074,control_change,,,,,13,0,1,,,0,64,64,,
115090,control_change,,,,,16,0,1,,,0,64,0,,
115140,note_off,,,,,50,0,1,,,0,,,59,64
115177,note_on,,,,,37,0,1,,,0,,,79,62
115186,note_on,,,,,9,0,1,,,0,,,67,56
115200,note_on,,,,,14,0,1,,,0,,,52,62
115234,control_change,,,,,34,0,1,,,0,64,64,,
115250,control_change,,,,,16,0,1,,,0,64,127,,
115380,note_off,,,,,130,0,1,,,0,,,52,64
115417,note_off,,,,,37,0,1,,,0,,,79,64
115426,note_off,,,,,9,0,1,,,0,,,67,64
115430,note_on,,,,,4,0,1,,,0,,,82,68
115440,note_on,,,,,10,0,1,,,0,,,61,51
115441,note_on,,,,,1,0,1,,,0,,,70,47
115620,note_off,,,,,179,0,1,,,0,,,61,64
115670,note_off,,,,,50,0,1,,,0,,,82,64
115672,note_on,,,,,2,0,1,,,0,,,83,70
115680,note_on,,,,,8,0,1,,,0,,,62,50
115681,note_off,,,,,1,0,1,,,0,,,70,64
115683,note_on,,,,,2,0,1,,,0,,,71,50
115860,note_off,,,,,177,0,1,,,0,,,62,64
115912,note_off,,,,,52,0,1,,,0,,,83,64
115920,note_on,,,,,8,0,1,,,0,,,59,51
115920,note_on,,,,,0,0,1,,,0,,,67,67
115920,note_on,,,,,0,0,1,,,0,,,79,75
115923,note_off,,,,,3,0,1,,,0,,,71,64
116100,note_off,,,,,177,0,1,,,0,,,59,64
116125,control_change,,,,,25,0,1,,,0,64,96,,
116144,control_change,,,,,19,0,1,,,0,64,0,,
116155,note_on,,,,,11,0,1,,,0,,,77,70
116160,note_on,,,,,0,0,1,,,0,,,54,58
116160,note_off,,,,,0,0,1,,,0,,,67,64
116160,note_off,,,,,5,0,1,,,0,,,79,64
116164,note_on,,,,,4,0,1,,,0,,,65,62
116210,note_off,,,,,46,0,1,,,0,,,65,64
116228,note_off,,,,,18,0,1,,,0,,,77,64
116326,control_change,,,,,98,0,1,,,0,64,64,,
116340,note_off,,,,,14,0,1,,,0,,,54,64
116340,control_change,,,,,0,0,1,,,0,64,127,,
116400,note_on,,,,,60,0,1,,,0,,,61,51
116415,note_on,,,,,15,0,1,,,0,,,66,68
116426,note_on,,,,,11,0,1,,,0,,,78,86
116580,note_off,,,,,154,0,1,,,0,,,61,64
116640,note_on,,,,,60,0,1,,,0,,,62,44
116820,note_off,,,,,180,0,1,,,0,,,62,64
116830,note_off,,,,,10,0,1,,,0,,,66,64
116880,note_on,,,,,50,0,1,,,0,,,59,48
116891,note_off,,,,,11,0,1,,,0,,,78,64
117060,note_off,,,,,169,0,1,,,0,,,59,64
117081,note_on,,,,,21,0,1,,,0,,,79,52
117090,note_on,,,,,9,0,1,,,0,,,67,39
117115,control_change,,,,,25,0,1,,,0,64,64,,
117120,note_on,,,,,5,0,1,,,0,,,52,44
117135,control_change,,,,,15,0,1,,,0,64,0,,
117300,note_off,,,,,165,0,1,,,0,,,52,64
117318,control_change,,,,,18,0,1,,,0,64,64,,
117321,note_off,,,,,3,0,1,,,0,,,79,64
117330,note_off,,,,,9,0,1,,,0,,,67,64
117334,control_change,,,,,4,0,1,,,0,64,96,,
117343,note_on,,,,,9,0,1,,,0,,,82,63
117354,note_on,,,,,11,0,1,,,0,,,70,40
117360,note_on,,,,,6,0,1,,,0,,,61,42
117366,control_change,,,,,6,0,1,,,0,64,127,,
117540,note_off,,,,,174,0,1,,,0,,,61,64
117583,note_off,,,,,43,0,1,,,0,,,82,64
117594,note_off,,,,,11,0,1,,,0,,,70,64
117600,note_on,,,,,6,0,1,,,0,,,62,34
117605,note_on,,,,,5,0,1,,,0,,,83,56
117619,note_on,,,,,14,0,1,,,0,,,71,31
117780,note_off,,,,,161,0,1,,,0,,,62,64
117835,note_on,,,,,55,0,1,,,0,,,79,44
117840,note_on,,,,,5,0,1,,,0,,,59,45
117845,note_off,,,,,5,0,1,,,0,,,83,64
117847,note_on,,,,,2,0,1,,,0,,,67,36
117859,note_off,,,,,12,0,1,,,0,,,71,64
118020,note_off,,,,,161,0,1,,,0,,,59,64
118063,control_change,,,,,43,0,1,,,0,64,96,,
118075,note_off,,,,,12,0,1,,,0,,,79,64
118077,control_change,,,,,2,0,1,,,0,64,64,,
118080,note_on,,,,,3,0,1,,,0,,,54,50
118084,note_on,,,,,4,0,1,,,0,,,77,41
118087,note_off,,,,,3,0,1,,,0,,,67,64
118098,control_change,,,,,11,0,1,,,0,64,0,,
118098,note_on,,,,,0,0,1,,,0,,,65,13
118125,note_off,,,,,27,0,1,,,0,,,65,64
118132,note_off,,,,,7,0,1,,,0,,,77,64
118260,note_off,,,,,128,0,1,,,0,,,54,64
118282,control_change,,,,,22,0,1,,,0,64,64,,
118298,control_change,,,,,16,0,1,,,0,64,96,,
118312,control_change,,,,,14,0,1,,,0,64,127,,
118320,note_on,,,,,8,0,1,,,0,,,61,48
118323,note_on,,,,,3,0,1,,,0,,,78,68
118339,note_on,,,,,16,0,1,,,0,,,66,44
118500,note_off,,,,,161,0,1,,,0,,,61,64
118560,note_on,,,,,60,0,1,,,0,,,62,44
118645,note_off,,,,,85,0,1,,,0,,,78,64
118656,note_off,,,,,11,0,1,,,0,,,66,64
118740,note_off,,,,,84,0,1,,,0,,,62,64
118800,note_on,,,,,60,0,1,,,0,,,59,54
118957,control_change,,,,,157,0,1,,,0,64,96,,
118973,control_change,,,,,16,0,1,,,0,64,0,,
118980,note_off,,,,,7,0,1,,,0,,,59,64
119028,note_on,,,,,48,0,1,,,0,,,76,67
119040,note_on,,,,,12,0,1,,,0,,,64,33
119040,note_on,,,,,0,0,1,,,0,,,54,44
119040,note_on,,,,,0,0,1,,,0,,,61,44
119041,note_on,,,,,1,0,1,,,0,,,73,58
119044,note_on,,,,,3,0,1,,,0,,,70,38
119094,control_change,,,,,50,0,1,,,0,64,96,,
119108,control_change,,,,,14,0,1,,,0,64,127,,
119258,note_off,,,,,150,0,1,,,0,,,73,64
119265,note_off,,,,,7,0,1,,,0,,,70,64
119329,note_off,,,,,64,0,1,,,0,,,76,64
119400,note_off,,,,,71,0,1,,,0,,,61,64
119400,note_off,,,,,0,0,1,,,0,,,54,64
119400,note_off,,,,,0,0,1,,,0,,,64,64
119418,control_change,,,,,18,0,1,,,0,64,96,,
119436,control_change,,,,,18,0,1,,,0,64,0,,
119520,note_on,,,,,84,0,1,,,0,,,62,41
119520,note_on,,,,,0,0,1,,,0,,,54,40
119520,note_on,,,,,0,0,1,,,0,,,59,51
119523,note_on,,,,,0,0,1,,,0,,,74,59
119523,note_on,,,,,3,0,1,,,0,,,71,41
119561,control_change,,,,,38,0,1,,,0,64,64,,
119577,control_change,,,,,16,0,1,,,0,64,127,,
119611,note_off,,,,,34,0,1,,,0,,,74,64
119618,note_on,,,,,7,0,1,,,0,,,73,55
119700,note_off,,,,,82,0,1,,,0,,,73,64
119700,note_on,,,,,0,0,1,,,0,,,74,70
119830,note_off,,,,,130,0,1,,,0,,,71,64
119880,note_off,,,,,0,0,1,,,0,,,59,64
119880,note_off,,,,,0,0,1,,,0,,,62,64
119880,note_off,,,,,50,0,1,,,0,,,54,64
119912,control_change,,,,,32,0,1,,,0,64,64,,
119928,control_change,,,,,16,0,1,,,0,64,0,,
120000,note_on,,,,,72,0,1,,,0,,,54,55
120026,note_on,,,,,26,0,1,,,0,,,70,40
120033,control_change,,,,,7,0,1,,,0,64,64,,
120038,note_off,,,,,5,0,1,,,0,,,74,64
120038,note_on,,,,,0,0,1,,,0,,,73,74
120063,control_change,,,,,25,0,1,,,0,64,127,,
120104,note_on,,,,,41,0,1,,,0,,,74,39
120115,note_off,,,,,11,0,1,,,0,,,73,64
120175,note_on,,,,,60,0,1,,,0,,,73,74
120195,note_off,,,,,20,0,1,,,0,,,74,64
120240,note_on,,,,,45,0,1,,,0,,,61,42
120420,note_off,,,,,180,0,1,,,0,,,61,64
120478,note_off,,,,,58,0,1,,,0,,,70,64
120480,note_on,,,,,2,0,1,,,0,,,64,39
120587,note_off,,,,,107,0,1,,,0,,,73,64
120637,control_change,,,,,50,0,1,,,0,64,96,,
120656,control_change,,,,,19,0,1,,,0,64,0,,
120660,note_off,,,,,4,0,1,,,0,,,64,64
120713,note_on,,,,,53,0,1,,,0,,,78,68
120720,note_on,,,,,7,0,1,,,0,,,62,39
120724,note_on,,,,,4,0,1,,,0,,,71,50
120770,note_off,,,,,46,0,1,,,0,,,71,64
120820,note_off,,,,,50,0,1,,,0,,,78,64
120876,note_off,,,,,56,0,1,,,0,,,54,64
120900,note_off,,,,,24,0,1,,,0,,,62,64
120960,note_on,,,,,60,0,1,,,0,,,54,47
120970,note_on,,,,,10,0,1,,,0,,,76,59
120979,note_on,,,,,9,0,1,,,0,,,70,32
120990,note_on,,,,,11,0,1,,,0,,,73,47
121002,control_change,,,,,12,0,1,,,0,64,96,,
121023,control_change,,,,,21,0,1,,,0,64,127,,
121200,note_on,,,,,177,0,1,,,0,,,61,48
121212,note_off,,,,,12,0,1,,,0,,,70,64
121251,note_off,,,,,39,0,1,,,0,,,76,64
121260,control_change,,,,,9,0,1,,,0,64,96,,
121278,control_change,,,,,18,0,1,,,0,64,0,,
121306,note_off,,,,,28,0,1,,,0,,,73,64
121380,note_off,,,,,74,0,1,,,0,,,61,64
121404,control_change,,,,,24,0,1,,,0,64,64,,
121417,control_change,,,,,13,0,1,,,0,64,96,,
121426,note_on,,,,,9,0,1,,,0,,,74,59
121433,control_change,,,,,7,0,1,,,0,64,127,,
121435,note_on,,,,,2,0,1,,,0,,,71,31
121440,note_on,,,,,5,0,1,,,0,,,62,39
121522,note_off,,,,,82,0,1,,,0,,,74,64
121529,note_on,,,,,7,0,1,,,0,,,73,55
121591,note_off,,,,,62,0,1,,,0,,,71,64
121597,note_on,,,,,6,0,1,,,0,,,74,50
121620,note_off,,,,,23,0,1,,,0,,,62,64
121625,note_off,,,,,5,0,1,,,0,,,73,64
121680,note_on,,,,,55,0,1,,,0,,,59,45
121740,note_off,,,,,60,0,1,,,0,,,54,64
121777,control_change,,,,,37,0,1,,,0,64,96,,
121793,control_change,,,,,16,0,1,,,0,64,0,,
121860,note_off,,,,,67,0,1,,,0,,,59,64
121917,control_change,,,,,57,0,1,,,0,64,64,,
121920,note_on,,,,,3,0,1,,,0,,,54,55
121937,note_on,,,,,0,0,1,,,0,,,73,63
121937,control_change,,,,,17,0,1,,,0,64,96,,
121948,note_off,,,,,11,0,1,,,0,,,74,64
121955,note_on,,,,,7,0,1,,,0,,,70,29
121960,control_change,,,,,5,0,1,,,0,64,127,,
122160,note_on,,,,,200,0,1,,,0,,,61,48
122340,note_off,,,,,180,0,1,,,0,,,61,64
122370,note_off,,,,,30,0,1,,,0,,,70,64
122400,note_on,,,,,30,0,1,,,0,,,62,44
122544,control_change,,,,,144,0,1,,,0,64,96,,
122560,control_change,,,,,16,0,1,,,0,64,64,,
122571,note_off,,,,,11,0,1,,,0,,,73,64
122578,control_change,,,,,7,0,1,,,0,64,0,,
122580,note_off,,,,,2,0,1,,,0,,,62,64
122596,note_on,,,,,16,0,1,,,0,,,74,59
122607,note_on,,,,,11,0,1,,,0,,,71,50
122640,note_on,,,,,33,0,1,,,0,,,59,43
122644,note_off,,,,,4,0,1,,,0,,,71,64
122660,note_off,,,,,16,0,1,,,0,,,74,64
122760,note_off,,,,,100,0,1,,,0,,,54,64
122820,note_off,,,,,60,0,1,,,0,,,59,64
122860,note_on,,,,,40,0,1,,,0,,,76,50
122872,note_on,,,,,12,0,1,,,0,,,70,35
122880,note_on,,,,,8,0,1,,,0,,,61,54
122883,note_on,,,,,3,0,1,,,0,,,73,44
122904,control_change,,,,,21,0,1,,,0,64,96,,
122920,control_change,,,,,16,0,1,,,0,64,127,,
123060,note_off,,,,,140,0,1,,,0,,,61,64
123120,note_on,,,,,60,0,1,,,0,,,58,40
123136,note_off,,,,,16,0,1,,,0,,,70,64
123164,control_change,,,,,28,0,1,,,0,64,96,,
123177,control_change,,,,,13,0,1,,,0,64,64,,
123193,control_change,,,,,16,0,1,,,0,64,0,,
123196,note_off,,,,,3,0,1,,,0,,,76,64
123218,note_off,,,,,22,0,1,,,0,,,73,64
123300,note_off,,,,,82,0,1,,,0,,,58,64
123360,note_on,,,,,60,0,1,,,0,,,59,48
123362,note_on,,,,,2,0,1,,,0,,,74,56
123364,note_on,,,,,2,0,1,,,0,,,71,36
123456,note_on,,,,,92,0,1,,,0,,,73,44
123467,note_off,,,,,11,0,1,,,0,,,74,64
123526,note_off,,,,,59,0,1,,,0,,,71,64
123540,note_off,,,,,14,0,1,,,0,,,59,64
123540,note_on,,,,,0,0,1,,,0,,,74,62
123554,note_off,,,,,14,0,1,,,0,,,73,64
123600,note_on,,,,,46,0,1,,,0,,,47,23
123780,note_off,,,,,180,0,1,,,0,,,47,64
123786,note_off,,,,,6,0,1,,,0,,,74,64
123840,note_on,,,,,54,0,1,,,0,,,42,47
123939,note_on,,,,,99,0,1,,,0,,,71,52
124034,note_off,,,,,95,0,1,,,0,,,71,64
124074,note_on,,,,,40,0,1,,,0,,,83,32
124120,note_off,,,,,46,0,1,,,0,,,83,64
124172,note_on,,,,,52,0,1,,,0,,,71,47
124200,note_off,,,,,28,0,1,,,0,,,42,64
124306,note_on,,,,,106,0,1,,,0,,,75,58
124318,note_off,,,,,12,0,1,,,0,,,71,64
124320,note_on,,,,,2,0,1,,,0,,,63,55
124365,note_off,,,,,45,0,1,,,0,,,63,64
124380,note_on,,,,,15,0,1,,,0,,,64,49
124383,note_off,,,,,3,0,1,,,0,,,75,64
124414,note_on,,,,,31,0,1,,,0,,,71,56
124425,note_off,,,,,11,0,1,,,0,,,64,64
124440,note_on,,,,,15,0,1,,,0,,,63,58
124485,note_off,,,,,45,0,1,,,0,,,63,64
124520,note_off,,,,,35,0,1,,,0,,,71,64
124557,note_on,,,,,37,0,1,,,0,,,83,50
124560,note_on,,,,,3,0,1,,,0,,,61,48
124615,note_off,,,,,55,0,1,,,0,,,83,64
124650,note_off,,,,,35,0,1,,,0,,,61,64
124663,note_on,,,,,13,0,1,,,0,,,71,56
124680,note_on,,,,,17,0,1,,,0,,,59,56
124770,note_off,,,,,90,0,1,,,0,,,59,64
124776,note_off,,,,,6,0,1,,,0,,,71,64
124795,note_on,,,,,19,0,1,,,0,,,75,63
124800,note_on,,,,,5,0,1,,,0,,,42,50
124863,note_off,,,,,63,0,1,,,0,,,75,64
124895,note_on,,,,,32,0,1,,,0,,,71,59
124993,note_off,,,,,98,0,1,,,0,,,71,64
125032,note_on,,,,,39,0,1,,,0,,,83,56
125109,note_off,,,,,77,0,1,,,0,,,83,64
125140,note_on,,,,,31,0,1,,,0,,,71,56
125160,note_off,,,,,20,0,1,,,0,,,42,64
125259,note_on,,,,,99,0,1,,,0,,,75,63
125270,note_off,,,,,11,0,1,,,0,,,71,64
125280,note_on,,,,,10,0,1,,,0,,,63,55
125325,note_off,,,,,45,0,1,,,0,,,63,64
125340,note_on,,,,,15,0,1,,,0,,,64,49
125341,note_off,,,,,1,0,1,,,0,,,75,64
125368,note_on,,,,,27,0,1,,,0,,,71,62
125385,note_off,,,,,17,0,1,,,0,,,64,64
125400,note_on,,,,,15,0,1,,,0,,,63,58
125445,note_off,,,,,45,0,1,,,0,,,63,64
125492,note_off,,,,,47,0,1,,,0,,,71,64
125500,note_on,,,,,8,0,1,,,0,,,78,80
125520,note_on,,,,,20,0,1,,,0,,,61,59
125587,note_off,,,,,67,0,1,,,0,,,78,64
125608,note_on,,,,,21,0,1,,,0,,,71,62
125610,note_off,,,,,2,0,1,,,0,,,61,64
125640,note_on,,,,,30,0,1,,,0,,,59,60
125729,note_off,,,,,89,0,1,,,0,,,71,64
125730,note_off,,,,,1,0,1,,,0,,,59,64
125740,note_on,,,,,10,0,1,,,0,,,80,74
125760,note_on,,,,,20,0,1,,,0,,,40,59
125769,control_change,,,,,9,0,1,,,0,64,64,,
125803,control_change,,,,,34,0,1,,,0,64,96,,
125824,note_off,,,,,21,0,1,,,0,,,80,64
125856,note_on,,,,,32,0,1,,,0,,,71,62
125916,control_change,,,,,60,0,1,,,0,64,127,,
125967,note_off,,,,,51,0,1,,,0,,,71,64
126017,note_on,,,,,50,0,1,,,0,,,83,70
126092,note_off,,,,,75,0,1,,,0,,,83,64
126120,note_off,,,,,28,0,1,,,0,,,40,64
126125,note_on,,,,,5,0,1,,,0,,,71,52
126228,note_off,,,,,103,0,1,,,0,,,71,64
126240,note_on,,,,,12,0,1,,,0,,,63,55
126268,note_on,,,,,28,0,1,,,0,,,80,55
126285,note_off,,,,,17,0,1,,,0,,,63,64
126300,note_on,,,,,15,0,1,,,0,,,64,49
126336,note_off,,,,,36,0,1,,,0,,,80,64
126345,note_off,,,,,9,0,1,,,0,,,64,64
126360,note_on,,,,,0,0,1,,,0,,,71,59
126360,note_on,,,,,15,0,1,,,0,,,63,58
126405,note_off,,,,,45,0,1,,,0,,,63,64
126407,control_change,,,,,2,0,1,,,0,64,96,,
126442,control_change,,,,,35,0,1,,,0,64,64,,
126460,control_change,,,,,18,0,1,,,0,64,0,,
126480,note_on,,,,,20,0,1,,,0,,,61,59
126497,note_off,,,,,17,0,1,,,0,,,71,64
126505,note_on,,,,,8,0,1,,,0,,,76,67
126570,note_off,,,,,65,0,1,,,0,,,61,64
126574,note_off,,,,,4,0,1,,,0,,,76,64
126598,note_on,,,,,24,0,1,,,0,,,71,59
126600,note_on,,,,,2,0,1,,,0,,,59,60
126690,note_off,,,,,90,0,1,,,0,,,59,64
126714,note_off,,,,,24,0,1,,,0,,,71,64
126720,note_on,,,,,6,0,1,,,0,,,39,68
126722,note_on,,,,,2,0,1,,,0,,,78,80
126806,note_off,,,,,84,0,1,,,0,,,78,64
126822,note_on,,,,,16,0,1,,,0,,,71,62
126867,control_change,,,,,45,0,1,,,0,64,64,,
126885,control_change,,,,,18,0,1,,,0,64,96,,
126930,note_off,,,,,45,0,1,,,0,,,71,64
126964,control_change,,,,,34,0,1,,,0,64,127,,
126975,note_on,,,,,11,0,1,,,0,,,83,70
127028,note_off,,,,,53,0,1,,,0,,,83,64
127073,note_on,,,,,45,0,1,,,0,,,71,44
127080,note_off,,,,,7,0,1,,,0,,,39,64
127184,note_off,,,,,104,0,1,,,0,,,71,64
127200,note_on,,,,,16,0,1,,,0,,,63,55
127216,note_on,,,,,16,0,1,,,0,,,78,68
127245,note_off,,,,,29,0,1,,,0,,,63,64
127260,note_on,,,,,15,0,1,,,0,,,64,49
127289,note_off,,,,,29,0,1,,,0,,,78,64
127305,note_off,,,,,16,0,1,,,0,,,64,64
127311,note_on,,,,,6,0,1,,,0,,,71,56
127320,note_on,,,,,9,0,1,,,0,,,63,58
127365,note_off,,,,,45,0,1,,,0,,,63,64
127437,note_off,,,,,72,0,1,,,0,,,71,64
127440,note_on,,,,,3,0,1,,,0,,,61,44
127448,note_on,,,,,8,0,1,,,0,,,75,58
127485,control_change,,,,,37,0,1,,,0,64,96,,
127500,control_change,,,,,15,0,1,,,0,64,64,,
127519,control_change,,,,,19,0,1,,,0,64,0,,
127527,note_off,,,,,8,0,1,,,0,,,75,64
127530,note_off,,,,,3,0,1,,,0,,,61,64
127556,note_on,,,,,26,0,1,,,0,,,71,59
127560,note_on,,,,,4,0,1,,,0,,,59,45
127650,note_off,,,,,90,0,1,,,0,,,59,64
127680,note_on,,,,,30,0,1,,,0,,,37,74
127693,note_off,,,,,13,0,1,,,0,,,71,64
127704,note_on,,,,,11,0,1,,,0,,,76,62
127775,note_off,,,,,71,0,1,,,0,,,76,64
127799,note_on,,,,,24,0,1,,,0,,,71,62
127896,control_change,,,,,97,0,1,,,0,64,64,,
127925,control_change,,,,,29,0,1,,,0,64,96,,
127930,note_off,,,,,5,0,1,,,0,,,71,64
127957,note_on,,,,,27,0,1,,,0,,,83,70
128005,control_change,,,,,48,0,1,,,0,64,127,,
128040,note_off,,,,,35,0,1,,,0,,,37,64
128050,note_off,,,,,10,0,1,,,0,,,83,64
128050,note_on,,,,,0,0,1,,,0,,,71,56
128160,note_on,,,,,110,0,1,,,0,,,63,55
128179,note_on,,,,,0,0,1,,,0,,,76,62
128179,note_off,,,,,19,0,1,,,0,,,71,64
128205,note_off,,,,,26,0,1,,,0,,,63,64
128220,note_on,,,,,15,0,1,,,0,,,64,49
128264,note_off,,,,,44,0,1,,,0,,,76,64
128265,note_off,,,,,1,0,1,,,0,,,64,64
128280,note_on,,,,,15,0,1,,,0,,,63,58
128282,note_on,,,,,2,0,1,,,0,,,71,59
128325,note_off,,,,,43,0,1,,,0,,,63,64
128400,note_on,,,,,75,0,1,,,0,,,61,44
128401,note_off,,,,,1,0,1,,,0,,,71,64
128417,note_on,,,,,16,0,1,,,0,,,73,63
128462,control_change,,,,,45,0,1,,,0,64,96,,
128482,control_change,,,,,20,0,1,,,0,64,64,,
128485,note_off,,,,,3,0,1,,,0,,,73,64
128490,note_off,,,,,5,0,1,,,0,,,61,64
128504,control_change,,,,,14,0,1,,,0,64,0,,
128520,note_on,,,,,16,0,1,,,0,,,59,54
128536,note_on,,,,,16,0,1,,,0,,,71,44
128610,note_off,,,,,74,0,1,,,0,,,59,64
128640,note_on,,,,,30,0,1,,,0,,,35,59
128641,note_off,,,,,1,0,1,,,0,,,71,64
128654,note_on,,,,,13,0,1,,,0,,,75,58
128734,note_off,,,,,80,0,1,,,0,,,75,64
128773,note_on,,,,,39,0,1,,,0,,,71,56
128807,control_change,,,,,34,0,1,,,0,64,64,,
128857,control_change,,,,,50,0,1,,,0,64,0,,
128897,note_on,,,,,40,0,1,,,0,,,75,80
128924,note_off,,,,,27,0,1,,,0,,,71,64
129016,note_on,,,,,92,0,1,,,0,,,78,74
129058,note_off,,,,,42,0,1,,,0,,,75,64
129120,note_off,,,,,62,0,1,,,0,,,78,64
129148,note_on,,,,,28,0,1,,,0,,,83,62
129262,note_on,,,,,114,0,1,,,0,,,82,68
129264,note_off,,,,,2,0,1,,,0,,,35,64
129296,note_off,,,,,32,0,1,,,0,,,83,64
129360,note_on,,,,,64,0,1,,,0,,,39,55
129391,note_on,,,,,31,0,1,,,0,,,80,74
129454,note_off,,,,,63,0,1,,,0,,,82,64
129510,note_on,,,,,56,0,1,,,0,,,78,68
129540,note_off,,,,,30,0,1,,,0,,,39,64
129549,note_off,,,,,9,0,1,,,0,,,80,64
129599,note_on,,,,,50,0,1,,,0,,,76,62
129600,note_on,,,,,1,0,1,,,0,,,40,62
129618,note_off,,,,,18,0,1,,,0,,,78,64
129734,note_on,,,,,116,0,1,,,0,,,75,74
129747,note_off,,,,,13,0,1,,,0,,,76,64
129780,note_off,,,,,33,0,1,,,0,,,40,64
129840,note_on,,,,,60,0,1,,,0,,,52,62
129858,note_on,,,,,18,0,1,,,0,,,73,68
129903,note_off,,,,,45,0,1,,,0,,,75,64
129945,note_on,,,,,42,0,1,,,0,,,71,62
130009,note_off,,,,,64,0,1,,,0,,,73,64
130020,note_off,,,,,11,0,1,,,0,,,52,64
130080,note_off,,,,,60,0,1,,,0,,,71,64
130080,note_on,,,,,0,0,1,,,0,,,54,58
130093,note_on,,,,,13,0,1,,,0,,,78,80
130207,note_on,,,,,114,0,1,,,0,,,76,67
130228,note_off,,,,,21,0,1,,,0,,,78,64
130260,note_off,,,,,32,0,1,,,0,,,54,64
130320,note_on,,,,,60,0,1,,,0,,,42,58
130328,note_on,,,,,8,0,1,,,0,,,75,74
130362,note_off,,,,,34,0,1,,,0,,,76,64
130439,note_on,,,,,77,0,1,,,0,,,73,68
130463,note_off,,,,,24,0,1,,,0,,,75,64
130500,note_off,,,,,37,0,1,,,0,,,42,64
130539,note_off,,,,,39,0,1,,,0,,,73,64
130560,note_on,,,,,21,0,1,,,0,,,47,34
130592,note_on,,,,,32,0,1,,,0,,,83,62
130666,note_off,,,,,74,0,1,,,0,,,83,64
130710,note_on,,,,,44,0,1,,,0,,,71,32
130824,note_off,,,,,114,0,1,,,0,,,71,64
130829,control_change,,,,,5,0,1,,,0,64,64,,
130846,note_on,,,,,17,0,1,,,0,,,75,42
130888,note_off,,,,,42,0,1,,,0,,,75,64
130890,control_change,,,,,2,0,1,,,0,64,96,,
130920,note_off,,,,,30,0,1,,,0,,,47,64
130935,note_on,,,,,15,0,1,,,0,,,71,44
131028,note_off,,,,,93,0,1,,,0,,,71,64
131040,note_on,,,,,12,0,1,,,0,,,63,32
131057,note_on,,,,,17,0,1,,,0,,,78,49
131085,note_off,,,,,28,0,1,,,0,,,63,64
131100,note_on,,,,,15,0,1,,,0,,,64,28
131128,note_off,,,,,28,0,1,,,0,,,78,64
131145,note_off,,,,,17,0,1,,,0,,,64,64
131157,note_on,,,,,12,0,1,,,0,,,71,39
131160,note_on,,,,,3,0,1,,,0,,,63,34
131205,note_off,,,,,45,0,1,,,0,,,63,64
131252,note_off,,,,,47,0,1,,,0,,,71,64
131265,note_on,,,,,13,0,1,,,0,,,76,46
131280,note_on,,,,,15,0,1,,,0,,,61,26
131334,note_off,,,,,54,0,1,,,0,,,76,64
131347,control_change,,,,,13,0,1,,,0,64,64,,
131368,control_change,,,,,21,0,1,,,0,64,0,,
131370,note_off,,,,,2,0,1,,,0,,,61,64
131374,note_on,,,,,4,0,1,,,0,,,71,36
131400,note_on,,,,,26,0,1,,,0,,,59,32
131466,note_off,,,,,66,0,1,,,0,,,71,64
131490,note_off,,,,,24,0,1,,,0,,,59,64
131500,note_on,,,,,10,0,1,,,0,,,75,49
131520,note_on,,,,,20,0,1,,,0,,,42,30
131564,note_off,,,,,44,0,1,,,0,,,75,64
131598,note_on,,,,,34,0,1,,,0,,,71,46
131669,control_change,,,,,71,0,1,,,0,64,64,,
131700,note_off,,,,,31,0,1,,,0,,,71,64
131701,control_change,,,,,1,0,1,,,0,64,96,,
131738,note_on,,,,,37,0,1,,,0,,,83,44
131780,note_off,,,,,42,0,1,,,0,,,83,64
131830,control_change,,,,,50,0,1,,,0,64,127,,
131843,note_on,,,,,13,0,1,,,0,,,71,42
131880,note_off,,,,,37,0,1,,,0,,,42,64
131941,note_off,,,,,61,0,1,,,0,,,71,64
131949,note_on,,,,,8,0,1,,,0,,,75,51
132000,note_on,,,,,51,0,1,,,0,,,63,32
132015,note_off,,,,,15,0,1,,,0,,,75,64
132045,note_off,,,,,30,0,1,,,0,,,63,64
132057,note_on,,,,,12,0,1,,,0,,,71,46
132060,note_on,,,,,3,0,1,,,0,,,64,28
132105,note_off,,,,,45,0,1,,,0,,,64,64
132120,note_on,,,,,15,0,1,,,0,,,63,34
132165,note_off,,,,,45,0,1,,,0,,,63,64
132176,note_off,,,,,11,0,1,,,0,,,71,64
132179,note_on,,,,,3,0,1,,,0,,,78,66
132240,note_on,,,,,61,0,1,,,0,,,61,34
132266,note_off,,,,,26,0,1,,,0,,,78,64
132298,note_on,,,,,32,0,1,,,0,,,71,55
132330,note_off,,,,,32,0,1,,,0,,,61,64
132340,control_change,,,,,10,0,1,,,0,64,96,,
132360,note_on,,,,,20,0,1,,,0,,,59,36
132361,control_change,,,,,1,0,1,,,0,64,0,,
132422,note_on,,,,,0,0,1,,,0,,,80,72
132422,note_off,,,,,61,0,1,,,0,,,71,64
132450,note_off,,,,,28,0,1,,,0,,,59,64
132480,note_on,,,,,30,0,1,,,0,,,40,34
132514,note_off,,,,,34,0,1,,,0,,,80,64
132540,note_on,,,,,26,0,1,,,0,,,71,60
132569,control_change,,,,,29,0,1,,,0,64,64,,
132598,control_change,,,,,29,0,1,,,0,64,96,,
132657,note_off,,,,,59,0,1,,,0,,,71,64
132683,note_on,,,,,26,0,1,,,0,,,83,70
132696,control_change,,,,,13,0,1,,,0,64,127,,
132767,note_off,,,,,71,0,1,,,0,,,83,64
132815,note_on,,,,,48,0,1,,,0,,,71,20
132840,note_off,,,,,25,0,1,,,0,,,40,64
132907,note_off,,,,,67,0,1,,,0,,,71,64
132936,note_on,,,,,29,0,1,,,0,,,80,44
132960,note_on,,,,,24,0,1,,,0,,,63,32
132994,note_off,,,,,34,0,1,,,0,,,80,64
133005,note_off,,,,,11,0,1,,,0,,,63,64
133020,note_on,,,,,15,0,1,,,0,,,64,28
133047,note_on,,,,,27,0,1,,,0,,,71,42
133065,note_off,,,,,18,0,1,,,0,,,64,64
133080,note_on,,,,,15,0,1,,,0,,,63,34
133125,note_off,,,,,45,0,1,,,0,,,63,64
133163,note_off,,,,,38,0,1,,,0,,,71,64
133179,note_on,,,,,16,0,1,,,0,,,76,36
133200,note_on,,,,,21,0,1,,,0,,,61,34
133235,note_off,,,,,35,0,1,,,0,,,76,64
133274,note_on,,,,,39,0,1,,,0,,,71,42
133290,note_off,,,,,16,0,1,,,0,,,61,64
133298,control_change,,,,,8,0,1,,,0,64,96,,
133319,control_change,,,,,21,0,1,,,0,64,0,,
133320,note_on,,,,,1,0,1,,,0,,,59,36
133383,note_off,,,,,63,0,1,,,0,,,71,64
133410,note_off,,,,,27,0,1,,,0,,,59,64
133420,note_on,,,,,10,0,1,,,0,,,78,56
133440,note_on,,,,,20,0,1,,,0,,,39,40
133496,note_off,,,,,56,0,1,,,0,,,78,64
133528,note_on,,,,,32,0,1,,,0,,,71,52
133580,control_change,,,,,52,0,1,,,0,64,64,,
133609,control_change,,,,,29,0,1,,,0,64,96,,
133644,note_off,,,,,35,0,1,,,0,,,71,64
133665,control_change,,,,,21,0,1,,,0,64,127,,
133676,note_on,,,,,11,0,1,,,0,,,83,70
133723,note_off,,,,,47,0,1,,,0,,,83,64
133786,note_on,,,,,63,0,1,,,0,,,71,42
133800,note_off,,,,,14,0,1,,,0,,,39,64
133889,note_off,,,,,89,0,1,,,0,,,71,64
133916,note_on,,,,,27,0,1,,,0,,,78,51
133920,note_on,,,,,4,0,1,,,0,,,63,32
133965,note_off,,,,,45,0,1,,,0,,,63,64
133980,note_on,,,,,15,0,1,,,0,,,64,28
133998,note_off,,,,,18,0,1,,,0,,,78,64
134024,note_on,,,,,26,0,1,,,0,,,71,46
134025,note_off,,,,,1,0,1,,,0,,,64,64
134040,note_on,,,,,15,0,1,,,0,,,63,34
134085,note_off,,,,,45,0,1,,,0,,,63,64
134132,note_off,,,,,47,0,1,,,0,,,71,64
134148,note_on,,,,,16,0,1,,,0,,,75,51
134160,note_on,,,,,12,0,1,,,0,,,61,26
134217,note_off,,,,,57,0,1,,,0,,,75,64
134250,note_off,,,,,33,0,1,,,0,,,61,64
134254,control_change,,,,,4,0,1,,,0,64,96,,
134264,note_on,,,,,10,0,1,,,0,,,71,39
134272,control_change,,,,,8,0,1,,,0,64,64,,
134280,note_on,,,,,8,0,1,,,0,,,59,26
134298,control_change,,,,,18,0,1,,,0,64,0,,
134365,note_off,,,,,67,0,1,,,0,,,71,64
134370,note_off,,,,,5,0,1,,,0,,,59,64
134388,note_on,,,,,18,0,1,,,0,,,76,52
134400,note_on,,,,,12,0,1,,,0,,,37,44
134473,note_off,,,,,73,0,1,,,0,,,76,64
134510,note_on,,,,,37,0,1,,,0,,,71,46
134520,control_change,,,,,10,0,1,,,0,64,64,,
134544,control_change,,,,,24,0,1,,,0,64,96,,
134584,control_change,,,,,40,0,1,,,0,64,127,,
134605,note_off,,,,,21,0,1,,,0,,,71,64
134652,note_on,,,,,47,0,1,,,0,,,83,70
134705,note_off,,,,,53,0,1,,,0,,,83,64
134760,note_off,,,,,55,0,1,,,0,,,37,64
134774,note_on,,,,,14,0,1,,,0,,,71,22
134869,note_off,,,,,95,0,1,,,0,,,71,64
134880,note_on,,,,,11,0,1,,,0,,,63,32
134895,note_on,,,,,15,0,1,,,0,,,76,46
134925,note_off,,,,,30,0,1,,,0,,,63,64
134940,note_on,,,,,15,0,1,,,0,,,64,28
134967,note_off,,,,,27,0,1,,,0,,,76,64
134985,note_off,,,,,18,0,1,,,0,,,64,64
135000,note_on,,,,,15,0,1,,,0,,,63,34
135001,note_on,,,,,1,0,1,,,0,,,71,50
135045,note_off,,,,,44,0,1,,,0,,,63,64
135109,note_off,,,,,64,0,1,,,0,,,71,64
135120,note_on,,,,,11,0,1,,,0,,,61,26
135122,note_on,,,,,2,0,1,,,0,,,73,51
135191,note_off,,,,,69,0,1,,,0,,,73,64
135210,note_off,,,,,19,0,1,,,0,,,61,64
135240,note_on,,,,,30,0,1,,,0,,,59,32
135244,note_on,,,,,4,0,1,,,0,,,71,46
135246,control_change,,,,,2,0,1,,,0,64,96,,
135273,control_change,,,,,27,0,1,,,0,64,0,,
135330,note_off,,,,,57,0,1,,,0,,,59,64
135349,note_on,,,,,0,0,1,,,0,,,75,56
135349,note_off,,,,,19,0,1,,,0,,,71,64
135360,note_on,,,,,11,0,1,,,0,,,35,34
135434,note_off,,,,,74,0,1,,,0,,,75,64
135463,control_change,,,,,29,0,1,,,0,64,64,,
135468,note_on,,,,,5,0,1,,,0,,,71,52
135500,control_change,,,,,32,0,1,,,0,64,96,,
135529,control_change,,,,,29,0,1,,,0,64,127,,
135582,note_on,,,,,53,0,1,,,0,,,75,72
135619,note_off,,,,,37,0,1,,,0,,,71,64
135706,note_on,,,,,87,0,1,,,0,,,78,61
135737,note_off,,,,,31,0,1,,,0,,,75,64
135817,note_off,,,,,80,0,1,,,0,,,78,64
135843,note_on,,,,,26,0,1,,,0,,,83,55
135970,note_on,,,,,127,0,1,,,0,,,82,56
135975,control_change,,,,,5,0,1,,,0,64,96,,
135984,note_off,,,,,9,0,1,,,0,,,35,64
135996,note_off,,,,,12,0,1,,,0,,,83,64
135999,control_change,,,,,3,0,1,,,0,64,64,,
136030,control_change,,,,,31,0,1,,,0,64,0,,
136080,note_on,,,,,50,0,1,,,0,,,39,32
136096,note_on,,,,,16,0,1,,,0,,,80,56
136141,note_off,,,,,45,0,1,,,0,,,82,64
136215,note_on,,,,,74,0,1,,,0,,,78,51
136242,note_off,,,,,27,0,1,,,0,,,80,64
136260,note_off,,,,,18,0,1,,,0,,,39,64
136310,note_off,,,,,50,0,1,,,0,,,78,64
136320,note_on,,,,,10,0,1,,,0,,,40,37
136321,note_on,,,,,1,0,1,,,0,,,76,42
136432,note_off,,,,,111,0,1,,,0,,,76,64
136453,note_on,,,,,21,0,1,,,0,,,75,51
136500,note_off,,,,,47,0,1,,,0,,,40,64
136560,note_on,,,,,60,0,1,,,0,,,52,37
136574,note_on,,,,,0,0,1,,,0,,,73,51
136574,note_off,,,,,14,0,1,,,0,,,75,64
136667,note_on,,,,,93,0,1,,,0,,,71,44
136680,note_off,,,,,13,0,1,,,0,,,73,64
136740,note_off,,,,,60,0,1,,,0,,,52,64
136793,note_off,,,,,53,0,1,,,0,,,71,64
136800,note_on,,,,,7,0,1,,,0,,,54,34
136817,note_on,,,,,17,0,1,,,0,,,78,56
136931,note_on,,,,,114,0,1,,,0,,,76,44
136944,note_off,,,,,13,0,1,,,0,,,78,64
136980,note_off,,,,,36,0,1,,,0,,,54,64
137040,note_on,,,,,60,0,1,,,0,,,42,34
137055,note_on,,,,,15,0,1,,,0,,,75,51
137100,note_off,,,,,45,0,1,,,0,,,76,64
137179,note_on,,,,,79,0,1,,,0,,,73,49
137197,note_off,,,,,18,0,1,,,0,,,75,64
137220,note_off,,,,,23,0,1,,,0,,,42,64
137245,note_off,,,,,25,0,1,,,0,,,73,64
137295,note_on,,,,,50,0,1,,,0,,,83,67
137308,note_on,,,,,13,0,1,,,0,,,71,44
137400,note_on,,,,,92,0,1,,,0,,,59,40
137490,note_off,,,,,90,0,1,,,0,,,59,64
137520,note_on,,,,,30,0,1,,,0,,,61,44
137610,note_off,,,,,90,0,1,,,0,,,61,64
137640,note_on,,,,,30,0,1,,,0,,,63,32
137730,note_off,,,,,90,0,1,,,0,,,63,64
137760,note_on,,,,,30,0,1,,,0,,,64,42
137767,note_off,,,,,7,0,1,,,0,,,71,64
137781,note_on,,,,,14,0,1,,,0,,,80,90
137820,note_off,,,,,39,0,1,,,0,,,83,64
137850,note_off,,,,,30,0,1,,,0,,,64,64
137880,note_on,,,,,30,0,1,,,0,,,66,55
137970,note_off,,,,,90,0,1,,,0,,,66,64
138000,note_on,,,,,30,0,1,,,0,,,68,50
138090,note_off,,,,,90,0,1,,,0,,,68,64
138120,note_on,,,,,30,0,1,,,0,,,70,44
138210,note_off,,,,,90,0,1,,,0,,,70,64
138240,note_on,,,,,30,0,1,,,0,,,42,55
138253,note_off,,,,,13,0,1,,,0,,,80,64
138356,note_on,,,,,103,0,1,,,0,,,80,68
138470,note_on,,,,,114,0,1,,,0,,,78,63
138483,note_off,,,,,13,0,1,,,0,,,80,64
138594,note_on,,,,,111,0,1,,,0,,,76,67
138600,note_off,,,,,6,0,1,,,0,,,42,64
138615,note_off,,,,,15,0,1,,,0,,,78,64
138670,note_off,,,,,55,0,1,,,0,,,76,64
138710,note_on,,,,,40,0,1,,,0,,,76,67
138720,note_on,,,,,0,0,1,,,0,,,59,63
138720,note_on,,,,,10,0,1,,,0,,,47,59
138823,note_off,,,,,103,0,1,,,0,,,76,64
138839,note_on,,,,,16,0,1,,,0,,,75,68
138958,note_off,,,,,119,0,1,,,0,,,75,64
138974,note_on,,,,,16,0,1,,,0,,,73,55
139072,note_on,,,,,0,0,1,,,0,,,71,59
139072,note_off,,,,,98,0,1,,,0,,,73,64
139080,note_off,,,,,8,0,1,,,0,,,59,64
139080,note_off,,,,,0,0,1,,,0,,,47,64
139190,note_on,,,,,110,0,1,,,0,,,73,80
139200,note_on,,,,,10,0,1,,,0,,,40,59
139200,note_on,,,,,0,0,1,,,0,,,52,62
139204,note_off,,,,,4,0,1,,,0,,,71,64
139320,note_off,,,,,116,0,1,,,0,,,73,64
139330,note_on,,,,,10,0,1,,,0,,,76,59
139452,note_on,,,,,122,0,1,,,0,,,75,63
139462,note_off,,,,,10,0,1,,,0,,,76,64
139560,note_off,,,,,0,0,1,,,0,,,40,64
139560,note_off,,,,,98,0,1,,,0,,,52,64
139573,note_on,,,,,13,0,1,,,0,,,73,63
139592,note_off,,,,,19,0,1,,,0,,,75,64
139680,note_on,,,,,88,0,1,,,0,,,42,63
139680,note_on,,,,,0,0,1,,,0,,,54,55
139697,note_off,,,,,17,0,1,,,0,,,73,64
139697,note_on,,,,,0,0,1,,,0,,,78,74
139819,note_on,,,,,122,0,1,,,0,,,76,59
139832,note_off,,,,,13,0,1,,,0,,,78,64
139930,note_on,,,,,98,0,1,,,0,,,75,68
139961,note_off,,,,,31,0,1,,,0,,,76,64
140030,note_on,,,,,69,0,1,,,0,,,73,63
140040,note_off,,,,,10,0,1,,,0,,,54,64
140040,note_off,,,,,0,0,1,,,0,,,42,64
140043,note_off,,,,,3,0,1,,,0,,,75,64
140080,note_off,,,,,37,0,1,,,0,,,73,64
140172,note_on,,,,,92,0,1,,,0,,,71,59
140183,note_on,,,,,11,0,1,,,0,,,83,70
140280,note_on,,,,,97,0,1,,,0,,,59,40
140370,note_off,,,,,90,0,1,,,0,,,59,64
140400,note_on,,,,,30,0,1,,,0,,,61,44
140490,note_off,,,,,90,0,1,,,0,,,61,64
140520,note_on,,,,,30,0,1,,,0,,,63,32
140610,note_off,,,,,90,0,1,,,0,,,63,64
140640,note_on,,,,,30,0,1,,,0,,,64,42
140656,note_on,,,,,16,0,1,,,0,,,80,85
140669,note_off,,,,,13,0,1,,,0,,,71,64
140695,note_off,,,,,26,0,1,,,0,,,83,64
140730,note_off,,,,,35,0,1,,,0,,,64,64
140760,note_on,,,,,30,0,1,,,0,,,66,55
140850,note_off,,,,,90,0,1,,,0,,,66,64
140880,note_on,,,,,30,0,1,,,0,,,68,50
140970,note_off,,,,,90,0,1,,,0,,,68,64
141000,note_on,,,,,30,0,1,,,0,,,70,44
141090,note_off,,,,,90,0,1,,,0,,,70,64
141120,note_on,,,,,30,0,1,,,0,,,42,55
141139,note_off,,,,,19,0,1,,,0,,,80,64
141284,note_on,,,,,145,0,1,,,0,,,80,68
141389,note_on,,,,,105,0,1,,,0,,,78,68
141426,note_off,,,,,37,0,1,,,0,,,80,64
141480,note_off,,,,,54,0,1,,,0,,,42,64
141498,note_on,,,,,18,0,1,,,0,,,76,62
141516,note_off,,,,,18,0,1,,,0,,,78,64
141572,note_off,,,,,56,0,1,,,0,,,76,64
141600,note_on,,,,,0,0,1,,,0,,,59,63
141600,note_on,,,,,28,0,1,,,0,,,47,59
141624,note_on,,,,,24,0,1,,,0,,,76,59
141738,note_off,,,,,114,0,1,,,0,,,76,64
141764,note_on,,,,,26,0,1,,,0,,,75,68
141862,note_off,,,,,98,0,1,,,0,,,75,64
141878,note_on,,,,,16,0,1,,,0,,,73,58
141960,note_off,,,,,82,0,1,,,0,,,59,64
141960,note_off,,,,,0,0,1,,,0,,,47,64
141976,note_off,,,,,16,0,1,,,0,,,73,64
141978,note_on,,,,,2,0,1,,,0,,,71,59
142080,note_on,,,,,102,0,1,,,0,,,40,59
142080,note_on,,,,,0,0,1,,,0,,,52,62
142084,note_on,,,,,4,0,1,,,0,,,73,68
142108,note_off,,,,,24,0,1,,,0,,,71,64
142213,note_on,,,,,105,0,1,,,0,,,76,62
142226,note_off,,,,,13,0,1,,,0,,,73,64
142342,note_on,,,,,116,0,1,,,0,,,75,68
142369,note_off,,,,,27,0,1,,,0,,,76,64
142440,note_off,,,,,71,0,1,,,0,,,52,64
142440,note_off,,,,,0,0,1,,,0,,,40,64
142472,note_on,,,,,32,0,1,,,0,,,73,58
142496,note_off,,,,,24,0,1,,,0,,,75,64
142560,note_on,,,,,64,0,1,,,0,,,42,63
142560,note_on,,,,,0,0,1,,,0,,,54,55
142577,note_off,,,,,17,0,1,,,0,,,73,64
142588,note_on,,,,,11,0,1,,,0,,,78,55
142720,note_on,,,,,132,0,1,,,0,,,76,56
142733,note_off,,,,,13,0,1,,,0,,,78,64
142812,note_on,,,,,79,0,1,,,0,,,75,63
142839,note_off,,,,,27,0,1,,,0,,,76,64
142920,note_off,,,,,0,0,1,,,0,,,42,64
142920,note_off,,,,,81,0,1,,,0,,,54,64
142926,note_off,,,,,6,0,1,,,0,,,75,64
142939,note_on,,,,,13,0,1,,,0,,,73,58
142979,note_off,,,,,40,0,1,,,0,,,73,64
143058,note_on,,,,,79,0,1,,,0,,,83,67
143200,note_on,,,,,142,0,1,,,0,,,78,63
143245,note_off,,,,,45,0,1,,,0,,,83,64
143319,note_on,,,,,74,0,1,,,0,,,75,63
143369,note_off,,,,,50,0,1,,,0,,,78,64
143420,note_on,,,,,51,0,1,,,0,,,71,52
143433,note_off,,,,,13,0,1,,,0,,,75,64
143483,note_off,,,,,50,0,1,,,0,,,71,64
143550,note_on,,,,,67,0,1,,,0,,,71,59
143699,note_on,,,,,149,0,1,,,0,,,66,68
143736,note_off,,,,,37,0,1,,,0,,,71,64
143805,note_on,,,,,69,0,1,,,0,,,63,50
143860,note_off,,,,,55,0,1,,,0,,,66,64
143911,note_on,,,,,51,0,1,,,0,,,59,63
143921,note_off,,,,,10,0,1,,,0,,,63,64
143966,note_off,,,,,45,0,1,,,0,,,59,64
144035,note_on,,,,,69,0,1,,,0,,,59,74
144180,note_on,,,,,145,0,1,,,0,,,54,68
144214,note_off,,,,,34,0,1,,,0,,,59,64
144278,note_on,,,,,64,0,1,,,0,,,51,68
144304,note_off,,,,,26,0,1,,,0,,,54,64
144386,note_on,,,,,82,0,1,,,0,,,47,75
144412,note_off,,,,,26,0,1,,,0,,,51,64
144447,note_off,,,,,35,0,1,,,0,,,47,64
144536,note_on,,,,,89,0,1,,,0,,,47,59
144663,note_on,,,,,127,0,1,,,0,,,42,74
144690,note_off,,,,,27,0,1,,,0,,,47,64
144766,note_on,,,,,76,0,1,,,0,,,39,74
144792,note_off,,,,,26,0,1,,,0,,,42,64
144880,note_on,,,,,88,0,1,,,0,,,35,67
144901,note_on,,,,,21,0,1,,,0,,,37,15
144911,note_off,,,,,10,0,1,,,0,,,39,64
144924,note_off,,,,,13,0,1,,,0,,,37,64
144960,set_tempo,,,,,48000,1,0,600000,,,,,,
144969,note_off,,,,,45,0,1,,,0,,,35,64
145022,note_on,,,,,53,0,1,,,0,,,35,70
145629,note_off,,,,,607,0,1,,,0,,,35,64
145920,note_on,,,,,0,0,1,,,0,,,56,62
145920,marker,,,,,0,1,0,,,,,,,
145920,set_tempo,,,,,960,1,0,250000,,,,,,
145920,note_on,,,,,291,0,1,,,0,,,44,68
146167,note_on,,,,,247,0,1,,,0,,,78,74
146277,note_on,,,,,110,0,1,,,0,,,73,80
146280,note_off,,,,,3,0,1,,,0,,,56,64
146280,note_off,,,,,0,0,1,,,0,,,44,64
146292,note_on,,,,,12,0,1,,,0,,,69,52
146301,note_off,,,,,9,0,1,,,0,,,78,64
146333,note_off,,,,,32,0,1,,,0,,,69,64
146350,note_off,,,,,17,0,1,,,0,,,73,64
146376,control_change,,,,,26,0,1,,,0,64,64,,
146400,control_change,,,,,24,0,1,,,0,64,96,,
146406,note_on,,,,,6,0,1,,,0,,,68,68
146406,note_on,,,,,0,0,1,,,0,,,72,80
146424,control_change,,,,,18,0,1,,,0,64,127,,
146646,note_on,,,,,0,0,1,,,0,,,78,68
146646,note_off,,,,,222,0,1,,,0,,,72,64
146646,note_off,,,,,0,0,1,,,0,,,68,64
146737,control_change,,,,,91,0,1,,,0,64,96,,
146752,control_change,,,,,15,0,1,,,0,64,64,,
146754,note_on,,,,,2,0,1,,,0,,,73,63
146754,note_on,,,,,0,0,1,,,0,,,69,50
146772,note_off,,,,,18,0,1,,,0,,,78,64
146772,control_change,,,,,0,0,1,,,0,64,0,,
146808,note_off,,,,,36,0,1,,,0,,,69,64
146826,note_off,,,,,18,0,1,,,0,,,73,64
146880,note_on,,,,,54,0,1,,,0,,,44,68
146880,note_on,,,,,0,0,1,,,0,,,56,62
146886,note_on,,,,,0,0,1,,,0,,,68,74
146886,note_on,,,,,6,0,1,,,0,,,72,80
146955,control_change,,,,,69,0,1,,,0,64,64,,
146970,control_change,,,,,15,0,1,,,0,64,96,,
146983,control_change,,,,,13,0,1,,,0,64,127,,
147126,note_off,,,,,0,0,1,,,0,,,72,64
147126,note_off,,,,,143,0,1,,,0,,,68,64
147139,note_on,,,,,13,0,1,,,0,,,78,68
147220,control_change,,,,,81,0,1,,,0,64,96,,
147236,control_change,,,,,16,0,1,,,0,64,0,,
147238,note_on,,,,,2,0,1,,,0,,,73,68
147240,note_off,,,,,2,0,1,,,0,,,56,64
147240,note_off,,,,,0,0,1,,,0,,,44,64
147253,note_off,,,,,13,0,1,,,0,,,78,64
147255,note_on,,,,,2,0,1,,,0,,,69,50
147305,note_off,,,,,50,0,1,,,0,,,69,64
147322,note_off,,,,,17,0,1,,,0,,,73,64
147368,control_change,,,,,46,0,1,,,0,64,64,,
147385,control_change,,,,,17,0,1,,,0,64,127,,
147385,note_on,,,,,0,0,1,,,0,,,68,68
147396,note_on,,,,,11,0,1,,,0,,,72,67
147625,note_off,,,,,229,0,1,,,0,,,68,64
147636,note_off,,,,,11,0,1,,,0,,,72,64
147646,note_on,,,,,10,0,1,,,0,,,78,58
147683,control_change,,,,,37,0,1,,,0,64,96,,
147698,control_change,,,,,15,0,1,,,0,64,0,,
147744,note_on,,,,,46,0,1,,,0,,,73,74
147754,note_on,,,,,10,0,1,,,0,,,69,56
147772,note_off,,,,,18,0,1,,,0,,,78,64
147804,note_off,,,,,32,0,1,,,0,,,69,64
147836,note_off,,,,,32,0,1,,,0,,,73,64
147840,note_on,,,,,4,0,1,,,0,,,44,68
147840,note_on,,,,,0,0,1,,,0,,,56,62
147869,control_change,,,,,29,0,1,,,0,64,96,,
147884,control_change,,,,,15,0,1,,,0,64,127,,
147884,note_on,,,,,0,0,1,,,0,,,68,74
147886,note_on,,,,,2,0,1,,,0,,,72,70
148104,control_change,,,,,218,0,1,,,0,64,96,,
148119,note_on,,,,,15,0,1,,,0,,,78,74
148120,control_change,,,,,1,0,1,,,0,64,64,,
148124,note_off,,,,,4,0,1,,,0,,,68,64
148126,note_off,,,,,2,0,1,,,0,,,72,64
148143,control_change,,,,,17,0,1,,,0,64,0,,
148200,note_off,,,,,0,0,1,,,0,,,44,64
148200,note_off,,,,,57,0,1,,,0,,,56,64
148225,note_on,,,,,25,0,1,,,0,,,69,70
148240,note_off,,,,,15,0,1,,,0,,,78,64
148279,note_off,,,,,39,0,1,,,0,,,69,64
148357,note_on,,,,,78,0,1,,,0,,,68,74
148428,note_off,,,,,71,0,1,,,0,,,68,64
148476,note_on,,,,,48,0,1,,,0,,,76,62
148534,note_off,,,,,58,0,1,,,0,,,76,64
148590,note_on,,,,,56,0,1,,,0,,,66,68
148640,control_change,,,,,50,0,1,,,0,64,64,,
148657,control_change,,,,,17,0,1,,,0,64,96,,
148670,control_change,,,,,13,0,1,,,0,64,127,,
148694,note_on,,,,,24,0,1,,,0,,,75,68
148800,note_on,,,,,0,0,1,,,0,,,56,62
148800,note_on,,,,,106,0,1,,,0,,,44,68
148970,note_off,,,,,170,0,1,,,0,,,75,64
148974,note_off,,,,,4,0,1,,,0,,,66,64
149053,control_change,,,,,79,0,1,,,0,64,96,,
149068,control_change,,,,,15,0,1,,,0,64,0,,
149068,note_on,,,,,0,0,1,,,0,,,76,70
149160,note_off,,,,,92,0,1,,,0,,,56,64
149160,note_off,,,,,0,0,1,,,0,,,44,64
149167,note_on,,,,,7,0,1,,,0,,,68,74
149180,note_off,,,,,13,0,1,,,0,,,76,64
149238,note_off,,,,,58,0,1,,,0,,,68,64
149301,note_on,,,,,63,0,1,,,0,,,66,80
149394,note_off,,,,,93,0,1,,,0,,,66,64
149407,note_on,,,,,13,0,1,,,0,,,75,68
149448,control_change,,,,,41,0,1,,,0,64,64,,
149489,note_off,,,,,41,0,1,,,0,,,75,64
149502,control_change,,,,,13,0,1,,,0,64,96,,
149526,control_change,,,,,24,0,1,,,0,64,127,,
149536,note_on,,,,,10,0,1,,,0,,,64,60
149636,note_on,,,,,100,0,1,,,0,,,73,68
149760,note_on,,,,,124,0,1,,,0,,,44,68
149760,note_on,,,,,0,0,1,,,0,,,56,62
149908,note_off,,,,,148,0,1,,,0,,,64,64
149912,note_off,,,,,4,0,1,,,0,,,73,64
149951,control_change,,,,,39,0,1,,,0,64,96,,
149964,control_change,,,,,13,0,1,,,0,64,64,,
149979,control_change,,,,,15,0,1,,,0,64,0,,
150003,note_on,,,,,24,0,1,,,0,,,75,68
150107,note_on,,,,,104,0,1,,,0,,,66,63
150115,note_off,,,,,8,0,1,,,0,,,75,64
150120,note_off,,,,,0,0,1,,,0,,,44,64
150120,note_off,,,,,5,0,1,,,0,,,56,64
150178,note_off,,,,,58,0,1,,,0,,,66,64
150264,note_on,,,,,86,0,1,,,0,,,64,60
150344,note_off,,,,,80,0,1,,,0,,,64,64
150374,note_on,,,,,30,0,1,,,0,,,73,68
150444,note_off,,,,,70,0,1,,,0,,,73,64
150491,note_on,,,,,47,0,1,,,0,,,63,74
150601,note_on,,,,,110,0,1,,,0,,,72,67
150610,note_off,,,,,9,0,1,,,0,,,63,64
150657,note_off,,,,,47,0,1,,,0,,,72,64
150746,note_on,,,,,89,0,1,,,0,,,73,86
150746,note_on,,,,,0,0,1,,,0,,,37,74
150770,control_change,,,,,24,0,1,,,0,64,64,,
150802,control_change,,,,,32,0,1,,,0,64,96,,
150824,control_change,,,,,22,0,1,,,0,64,127,,
150876,note_on,,,,,52,0,1,,,0,,,68,68
150899,note_off,,,,,23,0,1,,,0,,,73,64
150984,note_on,,,,,0,0,1,,,0,,,64,60
150984,note_off,,,,,85,0,1,,,0,,,68,64
151055,note_off,,,,,71,0,1,,,0,,,64,64
151107,note_on,,,,,52,0,1,,,0,,,61,62
151232,note_on,,,,,125,0,1,,,0,,,56,72
151247,note_off,,,,,15,0,1,,,0,,,61,64
151310,note_off,,,,,63,0,1,,,0,,,37,64
151355,note_on,,,,,45,0,1,,,0,,,52,75
151374,note_off,,,,,19,0,1,,,0,,,56,64
151420,note_off,,,,,46,0,1,,,0,,,52,64
151485,note_on,,,,,65,0,1,,,0,,,49,58
151593,note_on,,,,,108,0,1,,,0,,,44,74
151621,note_off,,,,,28,0,1,,,0,,,49,64
151680,set_tempo,,,,,5760,1,0,500000,,,,,,
151727,control_change,,,,,106,0,1,,,0,64,96,,
151735,note_on,,,,,0,0,1,,,0,,,37,86
151735,note_off,,,,,8,0,1,,,0,,,44,64
151744,control_change,,,,,9,0,1,,,0,64,0,,
152377,note_off,,,,,633,0,1,,,0,,,37,64
152640,note_on,,,,,0,0,1,,,0,,,54,55
152640,note_on,,,,,263,0,1,,,0,,,42,58
152640,set_tempo,,,,,960,1,0,250000,,,,,,
152887,note_on,,,,,247,0,1,,,0,,,76,59
152974,note_on,,,,,87,0,1,,,0,,,71,56
152982,note_on,,,,,8,0,1,,,0,,,67,52
152993,note_off,,,,,11,0,1,,,0,,,76,64
153000,note_off,,,,,7,0,1,,,0,,,54,64
153000,note_off,,,,,0,0,1,,,0,,,42,64
153030,note_off,,,,,30,0,1,,,0,,,67,64
153030,note_off,,,,,0,0,1,,,0,,,71,64
153105,control_change,,,,,75,0,1,,,0,64,64,,
153108,note_on,,,,,3,0,1,,,0,,,70,68
153118,note_on,,,,,10,0,1,,,0,,,66,50
153124,control_change,,,,,6,0,1,,,0,64,96,,
153142,control_change,,,,,18,0,1,,,0,64,127,,
153348,note_off,,,,,206,0,1,,,0,,,70,64
153354,note_on,,,,,6,0,1,,,0,,,76,70
153358,note_off,,,,,4,0,1,,,0,,,66,64
153394,control_change,,,,,36,0,1,,,0,64,96,,
153407,control_change,,,,,13,0,1,,,0,64,64,,
153422,control_change,,,,,15,0,1,,,0,64,0,,
153438,note_on,,,,,16,0,1,,,0,,,71,67
153449,note_off,,,,,11,0,1,,,0,,,76,64
153449,note_on,,,,,0,0,1,,,0,,,67,44
153492,note_off,,,,,43,0,1,,,0,,,67,64
153505,note_off,,,,,13,0,1,,,0,,,71,64
153574,control_change,,,,,69,0,1,,,0,64,64,,
153576,note_on,,,,,2,0,1,,,0,,,66,80
153576,note_on,,,,,0,0,1,,,0,,,70,80
153600,control_change,,,,,24,0,1,,,0,64,96,,
153600,note_on,,,,,0,0,1,,,0,,,42,58
153600,note_on,,,,,0,0,1,,,0,,,54,55
153621,control_change,,,,,21,0,1,,,0,64,127,,
153816,note_off,,,,,195,0,1,,,0,,,70,64
153816,note_on,,,,,0,0,1,,,0,,,76,70
153816,note_off,,,,,0,0,1,,,0,,,66,64
153854,control_change,,,,,38,0,1,,,0,64,96,,
153870,control_change,,,,,16,0,1,,,0,64,64,,
153885,control_change,,,,,15,0,1,,,0,64,0,,
153922,note_off,,,,,37,0,1,,,0,,,76,64
153922,note_on,,,,,0,0,1,,,0,,,67,39
153922,note_on,,,,,0,0,1,,,0,,,71,59
153960,note_off,,,,,38,0,1,,,0,,,54,64
153960,note_off,,,,,0,0,1,,,0,,,42,64
153972,note_off,,,,,12,0,1,,,0,,,67,64
153982,note_off,,,,,10,0,1,,,0,,,71,64
154040,control_change,,,,,58,0,1,,,0,64,64,,
154057,control_change,,,,,17,0,1,,,0,64,96,,
154060,note_on,,,,,3,0,1,,,0,,,66,74
154062,note_on,,,,,2,0,1,,,0,,,70,74
154079,control_change,,,,,17,0,1,,,0,64,127,,
154300,note_off,,,,,221,0,1,,,0,,,66,64
154302,note_off,,,,,2,0,1,,,0,,,70,64
154306,note_on,,,,,4,0,1,,,0,,,76,70
154330,control_change,,,,,24,0,1,,,0,64,96,,
154347,control_change,,,,,17,0,1,,,0,64,0,,
154393,note_on,,,,,46,0,1,,,0,,,71,67
154410,note_off,,,,,17,0,1,,,0,,,76,64
154410,note_on,,,,,0,0,1,,,0,,,67,25
154449,note_off,,,,,39,0,1,,,0,,,67,64
154462,note_off,,,,,13,0,1,,,0,,,71,64
154487,control_change,,,,,25,0,1,,,0,64,64,,
154502,control_change,,,,,15,0,1,,,0,64,96,,
154518,control_change,,,,,16,0,1,,,0,64,127,,
154533,note_on,,,,,15,0,1,,,0,,,70,74
154544,note_on,,,,,11,0,1,,,0,,,66,74
154560,note_on,,,,,16,0,1,,,0,,,42,58
154560,note_on,,,,,0,0,1,,,0,,,54,55
154773,note_off,,,,,213,0,1,,,0,,,70,64
154777,note_on,,,,,4,0,1,,,0,,,76,70
154784,note_off,,,,,7,0,1,,,0,,,66,64
154829,control_change,,,,,45,0,1,,,0,64,96,,
154844,control_change,,,,,15,0,1,,,0,64,0,,
154883,note_on,,,,,39,0,1,,,0,,,67,62
154896,note_off,,,,,13,0,1,,,0,,,76,64
154920,note_off,,,,,24,0,1,,,0,,,54,64
154920,note_off,,,,,0,0,1,,,0,,,42,64
154944,note_off,,,,,24,0,1,,,0,,,67,64
155015,note_on,,,,,71,0,1,,,0,,,66,74
155088,note_off,,,,,73,0,1,,,0,,,66,64
155114,note_on,,,,,26,0,1,,,0,,,74,67
155177,note_off,,,,,63,0,1,,,0,,,74,64
155235,note_on,,,,,58,0,1,,,0,,,64,75
155295,control_change,,,,,60,0,1,,,0,64,64,,
155310,control_change,,,,,15,0,1,,,0,64,96,,
155323,control_change,,,,,13,0,1,,,0,64,127,,
155345,note_on,,,,,22,0,1,,,0,,,73,74
155520,note_on,,,,,175,0,1,,,0,,,42,58
155520,note_on,,,,,0,0,1,,,0,,,54,55
155633,note_off,,,,,113,0,1,,,0,,,73,64
155667,note_off,,,,,34,0,1,,,0,,,64,64
155723,note_on,,,,,56,0,1,,,0,,,74,62
155749,control_change,,,,,26,0,1,,,0,64,96,,
155762,control_change,,,,,13,0,1,,,0,64,64,,
155777,control_change,,,,,15,0,1,,,0,64,0,,
155823,note_on,,,,,46,0,1,,,0,,,66,74
155831,note_off,,,,,8,0,1,,,0,,,74,64
155877,note_off,,,,,46,0,1,,,0,,,66,64
155880,note_off,,,,,3,0,1,,,0,,,54,64
155880,note_off,,,,,0,0,1,,,0,,,42,64
155952,note_on,,,,,72,0,1,,,0,,,64,75
156019,note_off,,,,,67,0,1,,,0,,,64,64
156056,note_on,,,,,37,0,1,,,0,,,73,68
156125,note_off,,,,,69,0,1,,,0,,,73,64
156129,control_change,,,,,4,0,1,,,0,64,64,,
156146,control_change,,,,,17,0,1,,,0,64,96,,
156181,note_on,,,,,35,0,1,,,0,,,62,75
156220,control_change,,,,,39,0,1,,,0,64,127,,
156298,note_on,,,,,78,0,1,,,0,,,71,75
156480,note_on,,,,,0,0,1,,,0,,,54,55
156480,note_on,,,,,182,0,1,,,0,,,42,58
156565,note_off,,,,,85,0,1,,,0,,,62,64
156586,note_off,,,,,21,0,1,,,0,,,71,64
156652,control_change,,,,,66,0,1,,,0,64,96,,
156656,note_on,,,,,4,0,1,,,0,,,73,68
156665,control_change,,,,,9,0,1,,,0,64,64,,
156684,control_change,,,,,19,0,1,,,0,64,0,,
156749,note_off,,,,,65,0,1,,,0,,,73,64
156771,note_on,,,,,22,0,1,,,0,,,64,52
156823,note_off,,,,,52,0,1,,,0,,,64,64
156840,note_off,,,,,17,0,1,,,0,,,54,64
156840,note_off,,,,,0,0,1,,,0,,,42,64
156894,note_on,,,,,54,0,1,,,0,,,62,80
156987,note_off,,,,,93,0,1,,,0,,,62,64
156993,note_on,,,,,6,0,1,,,0,,,71,67
157071,note_off,,,,,78,0,1,,,0,,,71,64
157121,note_on,,,,,50,0,1,,,0,,,61,72
157209,note_off,,,,,88,0,1,,,0,,,61,64
157216,note_on,,,,,7,0,1,,,0,,,70,55
157289,note_off,,,,,73,0,1,,,0,,,70,64
157365,note_on,,,,,76,0,1,,,0,,,71,70
157373,control_change,,,,,8,0,1,,,0,64,64,,
157389,control_change,,,,,16,0,1,,,0,64,127,,
157389,note_on,,,,,0,0,1,,,0,,,35,62
157503,note_on,,,,,114,0,1,,,0,,,66,58
157538,note_off,,,,,35,0,1,,,0,,,71,64
157605,note_on,,,,,67,0,1,,,0,,,62,62
157624,note_off,,,,,19,0,1,,,0,,,66,64
157697,note_off,,,,,73,0,1,,,0,,,62,64
157708,note_on,,,,,11,0,1,,,0,,,59,66
157784,note_off,,,,,76,0,1,,,0,,,59,64
157834,note_on,,,,,50,0,1,,,0,,,54,58
157924,note_on,,,,,90,0,1,,,0,,,50,67
157933,note_off,,,,,0,0,1,,,0,,,35,64
157933,note_off,,,,,9,0,1,,,0,,,54,64
158034,note_off,,,,,101,0,1,,,0,,,50,64
158050,note_on,,,,,16,0,1,,,0,,,47,75
158104,note_off,,,,,54,0,1,,,0,,,47,64
158173,note_on,,,,,69,0,1,,,0,,,42,80
158285,note_off,,,,,112,0,1,,,0,,,42,64
158292,note_on,,,,,7,0,1,,,0,,,35,70
158323,control_change,,,,,31,0,1,,,0,64,96,,
158339,control_change,,,,,16,0,1,,,0,64,0,,
158868,note_off,,,,,529,0,1,,,0,,,35,64
159080,note_on,,,,,212,0,1,,,0,,,74,62
159120,note_on,,,,,40,0,1,,,0,,,59,54
159120,note_on,,,,,0,0,1,,,0,,,62,36
159190,note_on,,,,,70,0,1,,,0,,,71,47
159257,note_off,,,,,67,0,1,,,0,,,74,64
159300,note_off,,,,,43,0,1,,,0,,,62,64
159300,note_off,,,,,0,0,1,,,0,,,59,64
159315,note_off,,,,,15,0,1,,,0,,,71,64
159343,note_on,,,,,28,0,1,,,0,,,77,67
159360,note_on,,,,,17,0,1,,,0,,,59,32
159360,note_on,,,,,0,0,1,,,0,,,62,29
159450,note_off,,,,,90,0,1,,,0,,,62,64
159450,note_off,,,,,0,0,1,,,0,,,59,64
159600,note_on,,,,,150,0,1,,,0,,,57,33
159600,note_on,,,,,0,0,1,,,0,,,61,36
159602,note_on,,,,,2,0,1,,,0,,,78,55
159624,note_off,,,,,22,0,1,,,0,,,77,64
159690,note_off,,,,,66,0,1,,,0,,,61,64
159690,note_off,,,,,0,0,1,,,0,,,57,64
159840,note_on,,,,,150,0,1,,,0,,,62,24
159840,note_on,,,,,0,0,1,,,0,,,59,36
159930,note_off,,,,,0,0,1,,,0,,,62,64
159930,note_off,,,,,90,0,1,,,0,,,59,64
160046,note_off,,,,,116,0,1,,,0,,,78,64
160080,note_on,,,,,34,0,1,,,0,,,59,38
160080,note_on,,,,,0,0,1,,,0,,,62,25
160081,note_on,,,,,1,0,1,,,0,,,74,70
160170,note_off,,,,,89,0,1,,,0,,,62,64
160170,note_off,,,,,0,0,1,,,0,,,59,64
160188,note_off,,,,,18,0,1,,,0,,,74,64
160194,note_on,,,,,6,0,1,,,0,,,71,59
160304,note_off,,,,,110,0,1,,,0,,,71,64
160320,note_on,,,,,16,0,1,,,0,,,59,32
160320,note_on,,,,,0,0,1,,,0,,,61,31
160335,note_on,,,,,15,0,1,,,0,,,72,50
160410,note_off,,,,,75,0,1,,,0,,,61,64
160410,note_off,,,,,0,0,1,,,0,,,59,64
160560,note_on,,,,,150,0,1,,,0,,,57,37
160560,note_on,,,,,0,0,1,,,0,,,61,40
160574,note_on,,,,,14,0,1,,,0,,,73,47
160607,note_off,,,,,33,0,1,,,0,,,72,64
160650,note_off,,,,,43,0,1,,,0,,,61,64
160650,note_off,,,,,0,0,1,,,0,,,57,64
160800,note_on,,,,,150,0,1,,,0,,,59,30
160800,note_on,,,,,0,0,1,,,0,,,62,33
160890,note_off,,,,,90,0,1,,,0,,,62,64
160890,note_off,,,,,0,0,1,,,0,,,59,64
160958,note_off,,,,,68,0,1,,,0,,,73,64
161040,note_on,,,,,82,0,1,,,0,,,62,27
161040,note_on,,,,,0,0,1,,,0,,,59,38
161052,note_on,,,,,12,0,1,,,0,,,74,67
161130,note_off,,,,,78,0,1,,,0,,,59,64
161130,note_off,,,,,0,0,1,,,0,,,62,64
161155,note_on,,,,,25,0,1,,,0,,,71,50
161212,note_off,,,,,57,0,1,,,0,,,74,64
161266,note_on,,,,,54,0,1,,,0,,,77,70
161276,note_off,,,,,10,0,1,,,0,,,71,64
161280,note_on,,,,,0,0,1,,,0,,,62,24
161280,note_on,,,,,4,0,1,,,0,,,59,32
161370,note_off,,,,,90,0,1,,,0,,,62,64
161370,note_off,,,,,0,0,1,,,0,,,59,64
161520,note_on,,,,,150,0,1,,,0,,,57,27
161520,note_on,,,,,0,0,1,,,0,,,61,33
161536,note_on,,,,,16,0,1,,,0,,,78,47
161557,note_off,,,,,21,0,1,,,0,,,77,64
161610,note_off,,,,,53,0,1,,,0,,,61,64
161610,note_off,,,,,0,0,1,,,0,,,57,64
161760,note_on,,,,,150,0,1,,,0,,,57,24
161760,note_on,,,,,0,0,1,,,0,,,61,33
161850,note_off,,,,,0,0,1,,,0,,,57,64
161850,note_off,,,,,90,0,1,,,0,,,61,64
161860,note_off,,,,,10,0,1,,,0,,,78,64
161987,note_on,,,,,127,0,1,,,0,,,81,67
161998,note_on,,,,,11,0,1,,,0,,,72,36
162000,note_on,,,,,2,0,1,,,0,,,57,29
162000,note_on,,,,,0,0,1,,,0,,,64,35
162030,note_off,,,,,30,0,1,,,0,,,72,64
162090,note_off,,,,,60,0,1,,,0,,,64,64
162090,note_off,,,,,0,0,1,,,0,,,57,64
162104,note_on,,,,,14,0,1,,,0,,,71,70
162158,note_off,,,,,54,0,1,,,0,,,71,64
162179,note_off,,,,,21,0,1,,,0,,,81,64
162216,note_on,,,,,37,0,1,,,0,,,75,47
162227,note_on,,,,,11,0,1,,,0,,,84,50
162240,note_on,,,,,13,0,1,,,0,,,57,19
162240,note_on,,,,,0,0,1,,,0,,,63,26
162240,note_on,,,,,0,0,1,,,0,,,59,38
162330,note_off,,,,,0,0,1,,,0,,,57,64
162330,note_off,,,,,90,0,1,,,0,,,59,64
162330,note_off,,,,,0,0,1,,,0,,,63,64
162480,note_on,,,,,150,0,1,,,0,,,64,33
162480,note_on,,,,,0,0,1,,,0,,,59,36
162480,note_on,,,,,0,0,1,,,0,,,55,37
162482,note_on,,,,,2,0,1,,,0,,,76,50
162501,note_off,,,,,19,0,1,,,0,,,75,64
162503,note_off,,,,,2,0,1,,,0,,,84,64
162570,note_off,,,,,0,0,1,,,0,,,64,64
162570,note_off,,,,,0,0,1,,,0,,,59,64
162570,note_off,,,,,67,0,1,,,0,,,55,64
162720,note_on,,,,,0,0,1,,,0,,,64,29
162720,note_on,,,,,150,0,1,,,0,,,57,25
162720,note_on,,,,,0,0,1,,,0,,,60,35
162810,note_off,,,,,90,0,1,,,0,,,64,64
162810,note_off,,,,,0,0,1,,,0,,,60,64
162810,note_off,,,,,0,0,1,,,0,,,57,64
162830,note_off,,,,,20,0,1,,,0,,,76,64
162946,note_on,,,,,116,0,1,,,0,,,72,70
162960,note_on,,,,,14,0,1,,,0,,,57,25
162960,note_on,,,,,0,0,1,,,0,,,60,35
162960,note_on,,,,,0,0,1,,,0,,,64,33
163045,note_off,,,,,85,0,1,,,0,,,72,64
163050,note_off,,,,,0,0,1,,,0,,,57,64
163050,note_off,,,,,5,0,1,,,0,,,64,64
163050,note_off,,,,,0,0,1,,,0,,,60,64
163056,note_on,,,,,6,0,1,,,0,,,69,62
163160,note_off,,,,,104,0,1,,,0,,,69,64
163200,note_on,,,,,40,0,1,,,0,,,63,47
163200,note_on,,,,,0,0,1,,,0,,,70,55
163200,note_on,,,,,0,0,1,,,0,,,59,43
163200,note_on,,,,,0,0,1,,,0,,,57,25
163320,note_off,,,,,120,0,1,,,0,,,57,64
163320,note_off,,,,,0,0,1,,,0,,,63,64
163320,note_off,,,,,0,0,1,,,0,,,59,64
163428,note_on,,,,,108,0,1,,,0,,,71,62
163440,note_on,,,,,0,0,1,,,0,,,64,40
163440,note_on,,,,,0,0,1,,,0,,,55,41
163440,note_on,,,,,0,0,1,,,0,,,59,45
163440,note_off,,,,,12,0,1,,,0,,,70,64
163560,note_off,,,,,0,0,1,,,0,,,64,64
163560,note_off,,,,,120,0,1,,,0,,,59,64
163560,note_off,,,,,0,0,1,,,0,,,55,64
163680,note_on,,,,,120,0,1,,,0,,,60,41
163680,note_on,,,,,0,0,1,,,0,,,57,32
163680,note_on,,,,,0,0,1,,,0,,,64,33
163800,note_off,,,,,0,0,1,,,0,,,57,64
163800,note_off,,,,,120,0,1,,,0,,,64,64
163800,note_off,,,,,0,0,1,,,0,,,60,64
163812,note_off,,,,,12,0,1,,,0,,,71,64
163903,note_on,,,,,91,0,1,,,0,,,72,67
163920,note_on,,,,,0,0,1,,,0,,,60,41
163920,note_on,,,,,0,0,1,,,0,,,81,44
163920,note_on,,,,,17,0,1,,,0,,,64,34
163920,note_on,,,,,0,0,1,,,0,,,57,32
163950,note_off,,,,,30,0,1,,,0,,,72,64
164020,note_on,,,,,70,0,1,,,0,,,71,67
164040,note_off,,,,,20,0,1,,,0,,,57,64
164040,note_off,,,,,0,0,1,,,0,,,60,64
164040,note_off,,,,,0,0,1,,,0,,,64,64
164084,note_off,,,,,44,0,1,,,0,,,71,64
164138,note_on,,,,,54,0,1,,,0,,,75,80
164160,note_off,,,,,22,0,1,,,0,,,81,64
164160,note_on,,,,,0,0,1,,,0,,,63,44
164160,note_on,,,,,0,0,1,,,0,,,83,70
164160,note_on,,,,,0,0,1,,,0,,,57,39
164160,note_on,,,,,0,0,1,,,0,,,59,40
164280,note_off,,,,,0,0,1,,,0,,,63,64
164280,note_off,,,,,120,0,1,,,0,,,59,64
164280,note_off,,,,,0,0,1,,,0,,,57,64
164372,note_on,,,,,92,0,1,,,0,,,76,67
164400,note_on,,,,,28,0,1,,,0,,,64,49
164400,note_on,,,,,0,0,1,,,0,,,55,39
164400,note_on,,,,,0,0,1,,,0,,,59,51
164406,note_off,,,,,6,0,1,,,0,,,75,64
164520,note_off,,,,,0,0,1,,,0,,,64,64
164520,note_off,,,,,114,0,1,,,0,,,59,64
164520,note_off,,,,,0,0,1,,,0,,,55,64
164640,note_on,,,,,120,0,1,,,0,,,64,37
164640,note_on,,,,,0,0,1,,,0,,,59,43
164640,note_on,,,,,0,0,1,,,0,,,55,39
164724,note_off,,,,,84,0,1,,,0,,,83,64
164760,note_off,,,,,0,0,1,,,0,,,59,64
164760,note_off,,,,,0,0,1,,,0,,,64,64
164760,note_off,,,,,36,0,1,,,0,,,55,64
164768,note_off,,,,,8,0,1,,,0,,,76,64
164851,note_on,,,,,83,0,1,,,0,,,83,70
164862,note_on,,,,,11,0,1,,,0,,,71,62
164880,note_on,,,,,18,0,1,,,0,,,64,40
164880,note_on,,,,,0,0,1,,,0,,,55,41
164880,note_on,,,,,0,0,1,,,0,,,59,45
165000,note_off,,,,,0,0,1,,,0,,,64,64
165000,note_off,,,,,0,0,1,,,0,,,55,64
165000,note_off,,,,,120,0,1,,,0,,,59,64
165120,note_on,,,,,0,0,1,,,0,,,53,40
165120,note_on,,,,,0,0,1,,,0,,,64,34
165120,note_on,,,,,120,0,1,,,0,,,57,39
165246,note_off,,,,,126,0,1,,,0,,,71,64
165259,note_off,,,,,13,0,1,,,0,,,83,64
165346,note_on,,,,,87,0,1,,,0,,,84,70
165363,note_on,,,,,17,0,1,,,0,,,72,50
165586,note_off,,,,,223,0,1,,,0,,,84,64
165586,note_on,,,,,0,0,1,,,0,,,68,63
165588,note_on,,,,,2,0,1,,,0,,,80,74
165603,note_off,,,,,15,0,1,,,0,,,72,64
165817,note_on,,,,,214,0,1,,,0,,,81,67
165817,note_on,,,,,0,0,1,,,0,,,69,62
165826,note_off,,,,,9,0,1,,,0,,,68,64
165828,note_off,,,,,2,0,1,,,0,,,80,64
165840,note_on,,,,,0,0,1,,,0,,,57,52
165840,note_on,,,,,0,0,1,,,0,,,62,44
165840,note_off,,,,,0,0,1,,,0,,,64,64
165840,note_off,,,,,12,0,1,,,0,,,53,64
165840,note_on,,,,,0,0,1,,,0,,,53,43
165840,note_off,,,,,0,0,1,,,0,,,57,64
166037,note_on,,,,,197,0,1,,,0,,,71,52
166057,note_off,,,,,20,0,1,,,0,,,69,64
166057,note_off,,,,,0,0,1,,,0,,,81,64
166080,note_on,,,,,0,0,1,,,0,,,59,54
166080,note_on,,,,,0,0,1,,,0,,,64,39
166080,note_off,,,,,0,0,1,,,0,,,53,64
166080,note_off,,,,,0,0,1,,,0,,,57,64
166080,note_on,,,,,0,0,1,,,0,,,52,47
166080,note_off,,,,,23,0,1,,,0,,,62,64
166106,note_off,,,,,26,0,1,,,0,,,71,64
166106,note_on,,,,,0,0,1,,,0,,,83,80
166225,note_on,,,,,119,0,1,,,0,,,81,50
166238,note_off,,,,,13,0,1,,,0,,,83,64
166342,note_on,,,,,104,0,1,,,0,,,80,63
166415,note_off,,,,,73,0,1,,,0,,,81,64
166467,note_on,,,,,52,0,1,,,0,,,77,62
166499,note_off,,,,,32,0,1,,,0,,,80,64
166575,note_on,,,,,0,0,1,,,0,,,76,62
166575,note_off,,,,,76,0,1,,,0,,,77,64
166692,note_on,,,,,117,0,1,,,0,,,74,56
166709,note_off,,,,,17,0,1,,,0,,,76,64
166800,note_on,,,,,0,0,1,,,0,,,59,54
166800,note_off,,,,,0,0,1,,,0,,,52,64
166800,note_on,,,,,0,0,1,,,0,,,64,34
166800,note_off,,,,,0,0,1,,,0,,,64,64
166800,note_off,,,,,91,0,1,,,0,,,59,64
166800,note_on,,,,,0,0,1,,,0,,,52,41
166821,note_on,,,,,21,0,1,,,0,,,72,59
166832,note_off,,,,,11,0,1,,,0,,,74,64
166897,note_off,,,,,65,0,1,,,0,,,72,64
166929,note_on,,,,,32,0,1,,,0,,,71,47
166992,note_off,,,,,63,0,1,,,0,,,71,64
167040,note_on,,,,,0,0,1,,,0,,,64,37
167040,note_off,,,,,0,0,1,,,0,,,52,64
167040,note_on,,,,,0,0,1,,,0,,,53,40
167040,note_off,,,,,0,0,1,,,0,,,64,64
167040,note_on,,,,,0,0,1,,,0,,,57,41
167040,note_off,,,,,48,0,1,,,0,,,59,64
167052,note_on,,,,,12,0,1,,,0,,,71,56
167052,note_on,,,,,0,0,1,,,0,,,83,52
167280,note_on,,,,,0,0,1,,,0,,,62,41
167280,note_off,,,,,0,0,1,,,0,,,53,64
167280,note_off,,,,,228,0,1,,,0,,,64,64
167280,note_off,,,,,0,0,1,,,0,,,57,64
167292,note_off,,,,,12,0,1,,,0,,,83,64
167292,note_off,,,,,0,0,1,,,0,,,71,64
167303,note_on,,,,,11,0,1,,,0,,,84,70
167314,note_on,,,,,11,0,1,,,0,,,72,56
167543,note_off,,,,,229,0,1,,,0,,,84,64
167545,note_on,,,,,2,0,1,,,0,,,80,68
167554,note_off,,,,,9,0,1,,,0,,,72,64
167556,note_on,,,,,2,0,1,,,0,,,68,40
167760,note_on,,,,,0,0,1,,,0,,,57,41
167760,note_on,,,,,0,0,1,,,0,,,53,38
167760,note_off,,,,,204,0,1,,,0,,,62,64
167760,note_on,,,,,0,0,1,,,0,,,62,32
167785,note_off,,,,,25,0,1,,,0,,,80,64
167787,note_on,,,,,2,0,1,,,0,,,81,67
167795,note_on,,,,,8,0,1,,,0,,,69,32
167796,note_off,,,,,1,0,1,,,0,,,68,64
167983,note_on,,,,,187,0,1,,,0,,,71,52
168000,note_on,,,,,0,0,1,,,0,,,59,54
168000,note_off,,,,,17,0,1,,,0,,,62,64
168000,note_on,,,,,0,0,1,,,0,,,52,41
168000,note_off,,,,,0,0,1,,,0,,,57,64
168000,note_off,,,,,0,0,1,,,0,,,53,64
168000,note_on,,,,,0,0,1,,,0,,,64,33
168027,note_off,,,,,27,0,1,,,0,,,81,64
168035,note_off,,,,,8,0,1,,,0,,,69,64
168061,note_on,,,,,26,0,1,,,0,,,83,70
168072,note_off,,,,,11,0,1,,,0,,,71,64
168180,note_on,,,,,108,0,1,,,0,,,81,56
168188,note_off,,,,,8,0,1,,,0,,,83,64
168286,note_on,,,,,98,0,1,,,0,,,80,63
168366,note_off,,,,,80,0,1,,,0,,,81,64
168402,note_on,,,,,36,0,1,,,0,,,77,62
168448,note_off,,,,,46,0,1,,,0,,,80,64
168517,note_on,,,,,69,0,1,,,0,,,76,67
168528,note_off,,,,,11,0,1,,,0,,,77,64
168638,note_off,,,,,110,0,1,,,0,,,76,64
168638,note_on,,,,,0,0,1,,,0,,,74,59
168720,note_on,,,,,0,0,1,,,0,,,59,45
168720,note_off,,,,,0,0,1,,,0,,,64,64
168720,note_off,,,,,82,0,1,,,0,,,59,64
168720,note_off,,,,,0,0,1,,,0,,,52,64
168720,note_on,,,,,0,0,1,,,0,,,64,23
168720,note_on,,,,,0,0,1,,,0,,,52,39
168748,note_on,,,,,28,0,1,,,0,,,72,52
168756,note_off,,,,,8,0,1,,,0,,,74,64
168843,note_off,,,,,87,0,1,,,0,,,72,64
168849,note_on,,,,,6,0,1,,,0,,,71,59
168903,note_off,,,,,54,0,1,,,0,,,71,64
168960,note_on,,,,,0,0,1,,,0,,,57,44
168960,note_off,,,,,57,0,1,,,0,,,59,64
168960,note_on,,,,,0,0,1,,,0,,,53,48
168960,note_off,,,,,0,0,1,,,0,,,52,64
168960,note_on,,,,,0,0,1,,,0,,,64,40
168960,note_off,,,,,0,0,1,,,0,,,64,64
168988,note_on,,,,,28,0,1,,,0,,,83,75
168988,note_on,,,,,0,0,1,,,0,,,71,59
169228,note_off,,,,,0,0,1,,,0,,,83,64
169228,note_off,,,,,240,0,1,,,0,,,71,64
169240,note_on,,,,,12,0,1,,,0,,,84,75
169249,note_on,,,,,9,0,1,,,0,,,72,67
169476,note_on,,,,,227,0,1,,,0,,,80,74
169476,note_on,,,,,0,0,1,,,0,,,68,63
169480,note_off,,,,,4,0,1,,,0,,,84,64
169489,note_off,,,,,9,0,1,,,0,,,72,64
169680,note_on,,,,,0,0,1,,,0,,,57,41
169680,note_off,,,,,191,0,1,,,0,,,57,64
169680,note_on,,,,,0,0,1,,,0,,,53,38
169680,note_off,,,,,0,0,1,,,0,,,64,64
169680,note_off,,,,,0,0,1,,,0,,,53,64
169680,note_on,,,,,0,0,1,,,0,,,62,39
169705,note_on,,,,,25,0,1,,,0,,,81,67
169713,note_on,,,,,8,0,1,,,0,,,69,56
169716,note_off,,,,,3,0,1,,,0,,,68,64
169716,note_off,,,,,0,0,1,,,0,,,80,64
169920,note_off,,,,,0,0,1,,,0,,,62,64
169920,note_off,,,,,0,0,1,,,0,,,53,64
169920,note_on,,,,,0,0,1,,,0,,,64,40
169920,note_on,,,,,0,0,1,,,0,,,59,56
169920,note_on,,,,,0,0,1,,,0,,,52,47
169920,note_off,,,,,204,0,1,,,0,,,57,64
169944,note_on,,,,,24,0,1,,,0,,,83,80
169945,note_off,,,,,1,0,1,,,0,,,81,64
169953,note_on,,,,,0,0,1,,,0,,,71,67
169953,note_off,,,,,8,0,1,,,0,,,69,64
170007,note_off,,,,,54,0,1,,,0,,,71,64
170076,note_on,,,,,69,0,1,,,0,,,81,67
170091,note_off,,,,,15,0,1,,,0,,,83,64
170186,note_on,,,,,95,0,1,,,0,,,80,68
170277,note_off,,,,,91,0,1,,,0,,,81,64
170299,note_on,,,,,22,0,1,,,0,,,77,67
170348,note_off,,,,,49,0,1,,,0,,,80,64
170411,note_on,,,,,63,0,1,,,0,,,76,67
170420,note_off,,,,,9,0,1,,,0,,,77,64
170521,note_on,,,,,101,0,1,,,0,,,74,67
170536,note_off,,,,,15,0,1,,,0,,,76,64
170636,note_on,,,,,100,0,1,,,0,,,72,59
170640,note_on,,,,,0,0,1,,,0,,,52,26
170640,note_on,,,,,0,0,1,,,0,,,59,45
170640,note_off,,,,,0,0,1,,,0,,,64,64
170640,note_off,,,,,4,0,1,,,0,,,52,64
170640,note_on,,,,,0,0,1,,,0,,,64,29
170640,note_off,,,,,0,0,1,,,0,,,59,64
170666,note_off,,,,,26,0,1,,,0,,,74,64
170735,note_off,,,,,69,0,1,,,0,,,72,64
170737,note_on,,,,,2,0,1,,,0,,,71,59
170800,note_off,,,,,63,0,1,,,0,,,71,64
170880,note_off,,,,,0,0,1,,,0,,,64,64
170880,note_off,,,,,80,0,1,,,0,,,52,64
170880,note_off,,,,,0,0,1,,,0,,,59,64
170880,note_on,,,,,0,0,1,,,0,,,45,85
170930,control_change,,,,,50,0,1,,,0,64,64,,
170997,note_on,,,,,67,0,1,,,0,,,69,52
171032,control_change,,,,,35,0,1,,,0,64,96,,
171116,control_change,,,,,84,0,1,,,0,64,127,,
171129,note_on,,,,,13,0,1,,,0,,,75,68
171150,note_off,,,,,21,0,1,,,0,,,69,64
171230,note_on,,,,,80,0,1,,,0,,,69,59
171256,note_off,,,,,26,0,1,,,0,,,75,64
171336,note_off,,,,,80,0,1,,,0,,,69,64
171360,note_on,,,,,0,0,1,,,0,,,60,69
171360,note_off,,,,,24,0,1,,,0,,,45,64
171362,note_on,,,,,2,0,1,,,0,,,76,70
171420,note_off,,,,,58,0,1,,,0,,,60,64
171420,note_on,,,,,0,0,1,,,0,,,62,64
171480,note_on,,,,,0,0,1,,,0,,,60,69
171480,note_off,,,,,60,0,1,,,0,,,62,64
171485,note_on,,,,,5,0,1,,,0,,,69,62
171503,note_off,,,,,18,0,1,,,0,,,76,64
171540,note_off,,,,,37,0,1,,,0,,,60,64
171598,note_off,,,,,58,0,1,,,0,,,69,64
171600,note_on,,,,,2,0,1,,,0,,,59,70
171611,note_on,,,,,11,0,1,,,0,,,72,67
171690,note_off,,,,,79,0,1,,,0,,,59,64
171719,note_off,,,,,29,0,1,,,0,,,72,64
171719,note_on,,,,,0,0,1,,,0,,,69,67
171720,note_on,,,,,1,0,1,,,0,,,57,46
171805,control_change,,,,,85,0,1,,,0,64,96,,
171809,note_off,,,,,4,0,1,,,0,,,69,64
171810,note_off,,,,,1,0,1,,,0,,,57,64
171824,control_change,,,,,14,0,1,,,0,64,0,,
171829,note_on,,,,,5,0,1,,,0,,,71,67
171840,note_on,,,,,11,0,1,,,0,,,43,85
171922,control_change,,,,,82,0,1,,,0,64,64,,
171937,control_change,,,,,15,0,1,,,0,64,127,,
171943,note_on,,,,,6,0,1,,,0,,,67,59
171954,note_off,,,,,11,0,1,,,0,,,71,64
172064,note_off,,,,,110,0,1,,,0,,,67,64
172081,note_on,,,,,17,0,1,,,0,,,75,68
172176,note_off,,,,,95,0,1,,,0,,,75,64
172176,note_on,,,,,0,0,1,,,0,,,67,67
172297,note_off,,,,,121,0,1,,,0,,,67,64
172319,note_on,,,,,22,0,1,,,0,,,76,67
172320,note_off,,,,,1,0,1,,,0,,,43,64
172320,note_on,,,,,0,0,1,,,0,,,59,82
172380,note_off,,,,,60,0,1,,,0,,,59,64
172380,note_on,,,,,0,0,1,,,0,,,60,64
172423,note_on,,,,,43,0,1,,,0,,,67,70
172440,note_off,,,,,17,0,1,,,0,,,60,64
172440,note_on,,,,,0,0,1,,,0,,,59,62
172455,note_off,,,,,15,0,1,,,0,,,76,64
172500,note_off,,,,,45,0,1,,,0,,,59,64
172560,note_on,,,,,60,0,1,,,0,,,57,59
172561,note_off,,,,,1,0,1,,,0,,,67,64
172572,note_on,,,,,11,0,1,,,0,,,71,70
172650,note_off,,,,,78,0,1,,,0,,,57,64
172658,note_off,,,,,8,0,1,,,0,,,71,64
172669,note_on,,,,,11,0,1,,,0,,,67,67
172680,note_on,,,,,11,0,1,,,0,,,55,77
172762,note_off,,,,,82,0,1,,,0,,,67,64
172770,note_off,,,,,8,0,1,,,0,,,55,64
172779,control_change,,,,,9,0,1,,,0,64,96,,
172790,note_on,,,,,11,0,1,,,0,,,69,67
172799,control_change,,,,,9,0,1,,,0,64,0,,
172800,note_on,,,,,1,0,1,,,0,,,42,86
172881,control_change,,,,,81,0,1,,,0,64,64,,
172896,control_change,,,,,15,0,1,,,0,64,127,,
172904,note_off,,,,,8,0,1,,,0,,,69,64
172913,note_on,,,,,9,0,1,,,0,,,66,63
173045,note_off,,,,,132,0,1,,,0,,,66,64
173051,note_on,,,,,6,0,1,,,0,,,75,63
173146,note_off,,,,,95,0,1,,,0,,,75,64
173146,note_on,,,,,0,0,1,,,0,,,66,63
173265,note_off,,,,,119,0,1,,,0,,,66,64
173276,note_on,,,,,11,0,1,,,0,,,76,70
173280,note_on,,,,,0,0,1,,,0,,,57,52
173280,note_off,,,,,4,0,1,,,0,,,42,64
173340,note_off,,,,,60,0,1,,,0,,,57,64
173340,note_on,,,,,0,0,1,,,0,,,59,70
173375,note_off,,,,,35,0,1,,,0,,,76,64
173388,note_on,,,,,13,0,1,,,0,,,66,68
173400,note_on,,,,,0,0,1,,,0,,,57,64
173400,note_off,,,,,12,0,1,,,0,,,59,64
173460,note_off,,,,,60,0,1,,,0,,,57,64
173514,note_off,,,,,54,0,1,,,0,,,66,64
173520,note_on,,,,,6,0,1,,,0,,,55,64
173524,note_on,,,,,4,0,1,,,0,,,69,67
173610,note_off,,,,,86,0,1,,,0,,,55,64
173632,note_off,,,,,22,0,1,,,0,,,69,64
173634,note_on,,,,,2,0,1,,,0,,,66,68
173640,note_on,,,,,6,0,1,,,0,,,54,64
173704,note_off,,,,,64,0,1,,,0,,,66,64
173730,note_off,,,,,26,0,1,,,0,,,54,64
173760,control_change,,,,,30,0,1,,,0,64,64,,
173760,note_on,,,,,0,0,1,,,0,,,40,67
173764,note_on,,,,,4,0,1,,,0,,,67,67
173781,control_change,,,,,17,0,1,,,0,64,0,,
173861,control_change,,,,,80,0,1,,,0,64,64,,
173866,note_on,,,,,5,0,1,,,0,,,64,67
173874,note_off,,,,,8,0,1,,,0,,,67,64
173881,control_change,,,,,7,0,1,,,0,64,127,,
173969,note_off,,,,,88,0,1,,,0,,,64,64
174000,note_on,,,,,31,0,1,,,0,,,75,68
174103,note_off,,,,,103,0,1,,,0,,,75,64
174116,note_on,,,,,13,0,1,,,0,,,67,67
174239,note_off,,,,,123,0,1,,,0,,,67,64
174240,note_off,,,,,1,0,1,,,0,,,40,64
174240,note_on,,,,,0,0,1,,,0,,,55,52
174257,note_on,,,,,17,0,1,,,0,,,76,59
174300,note_off,,,,,43,0,1,,,0,,,55,64
174300,note_on,,,,,0,0,1,,,0,,,57,50
174356,note_on,,,,,56,0,1,,,0,,,67,50
174360,note_off,,,,,4,0,1,,,0,,,57,64
174360,note_on,,,,,0,0,1,,,0,,,55,47
174371,note_off,,,,,11,0,1,,,0,,,76,64
174420,note_off,,,,,49,0,1,,,0,,,55,64
174470,note_off,,,,,50,0,1,,,0,,,67,64
174480,note_on,,,,,10,0,1,,,0,,,54,58
174486,note_on,,,,,6,0,1,,,0,,,71,52
174565,note_off,,,,,79,0,1,,,0,,,71,64
174570,note_off,,,,,5,0,1,,,0,,,54,64
174572,note_on,,,,,2,0,1,,,0,,,67,52
174600,note_on,,,,,28,0,1,,,0,,,52,56
174641,control_change,,,,,41,0,1,,,0,64,96,,
174656,control_change,,,,,15,0,1,,,0,64,64,,
174671,control_change,,,,,15,0,1,,,0,64,0,,
174690,note_off,,,,,19,0,1,,,0,,,52,64
174691,note_off,,,,,1,0,1,,,0,,,67,64
174712,note_on,,,,,21,0,1,,,0,,,72,62
174720,note_on,,,,,8,0,1,,,0,,,45,63
174784,control_change,,,,,64,0,1,,,0,64,64,,
174799,control_change,,,,,15,0,1,,,0,64,127,,
174822,note_off,,,,,23,0,1,,,0,,,72,64
174838,note_on,,,,,16,0,1,,,0,,,69,47
174952,note_off,,,,,114,0,1,,,0,,,69,64
174963,note_on,,,,,11,0,1,,,0,,,75,50
175062,note_off,,,,,99,0,1,,,0,,,75,64
175069,note_on,,,,,7,0,1,,,0,,,69,52
175172,note_off,,,,,103,0,1,,,0,,,69,64
175198,note_on,,,,,26,0,1,,,0,,,76,67
175200,note_off,,,,,2,0,1,,,0,,,45,64
175200,note_on,,,,,0,0,1,,,0,,,60,50
175260,note_off,,,,,60,0,1,,,0,,,60,64
175260,note_on,,,,,0,0,1,,,0,,,62,48
175308,note_on,,,,,48,0,1,,,0,,,69,67
175320,note_off,,,,,12,0,1,,,0,,,62,64
175320,note_on,,,,,0,0,1,,,0,,,60,50
175334,note_off,,,,,14,0,1,,,0,,,76,64
175380,note_off,,,,,46,0,1,,,0,,,60,64
175436,note_on,,,,,56,0,1,,,0,,,72,70
175440,note_on,,,,,4,0,1,,,0,,,59,51
175455,note_off,,,,,15,0,1,,,0,,,69,64
175530,note_off,,,,,75,0,1,,,0,,,59,64
175542,note_on,,,,,12,0,1,,,0,,,69,70
175553,note_off,,,,,11,0,1,,,0,,,72,64
175560,note_on,,,,,7,0,1,,,0,,,57,34
175641,note_off,,,,,81,0,1,,,0,,,69,64
175650,note_off,,,,,9,0,1,,,0,,,57,64
175658,control_change,,,,,8,0,1,,,0,64,64,,
175665,note_on,,,,,7,0,1,,,0,,,71,62
175680,control_change,,,,,15,0,1,,,0,64,0,,
175680,note_on,,,,,0,0,1,,,0,,,43,63
175751,control_change,,,,,71,0,1,,,0,64,64,,
175766,control_change,,,,,15,0,1,,,0,64,127,,
175777,note_on,,,,,11,0,1,,,0,,,67,56
175786,note_off,,,,,9,0,1,,,0,,,71,64
175905,note_off,,,,,119,0,1,,,0,,,67,64
175918,note_on,,,,,13,0,1,,,0,,,75,68
176000,note_on,,,,,82,0,1,,,0,,,67,59
176026,note_off,,,,,26,0,1,,,0,,,75,64
176140,note_off,,,,,114,0,1,,,0,,,67,64
176140,note_on,,,,,0,0,1,,,0,,,76,70
176160,note_off,,,,,20,0,1,,,0,,,43,64
176160,note_on,,,,,0,0,1,,,0,,,59,62
176168,control_change,,,,,8,0,1,,,0,64,96,,
176211,control_change,,,,,43,0,1,,,0,64,127,,
176220,note_off,,,,,9,0,1,,,0,,,59,64
176220,note_on,,,,,0,0,1,,,0,,,60,48
176237,note_on,,,,,17,0,1,,,0,,,67,52
176268,note_off,,,,,31,0,1,,,0,,,76,64
176280,note_off,,,,,12,0,1,,,0,,,60,64
176280,note_on,,,,,0,0,1,,,0,,,59,44
176340,note_off,,,,,60,0,1,,,0,,,59,64
176369,note_on,,,,,29,0,1,,,0,,,71,56
176378,note_off,,,,,9,0,1,,,0,,,67,64
176400,note_on,,,,,22,0,1,,,0,,,57,44
176468,note_off,,,,,68,0,1,,,0,,,71,64
176475,note_on,,,,,7,0,1,,,0,,,67,56
176490,note_off,,,,,15,0,1,,,0,,,57,64
176520,note_on,,,,,30,0,1,,,0,,,55,57
176559,control_change,,,,,39,0,1,,,0,64,96,,
176574,control_change,,,,,15,0,1,,,0,64,0,,
176579,note_off,,,,,5,0,1,,,0,,,67,64
176596,note_on,,,,,17,0,1,,,0,,,69,62
176610,note_off,,,,,14,0,1,,,0,,,55,64
176640,note_on,,,,,30,0,1,,,0,,,42,64
176665,control_change,,,,,25,0,1,,,0,64,96,,
176680,control_change,,,,,15,0,1,,,0,64,127,,
176712,note_on,,,,,32,0,1,,,0,,,66,63
176721,note_off,,,,,9,0,1,,,0,,,69,64
176846,note_on,,,,,125,0,1,,,0,,,75,68
176857,note_off,,,,,11,0,1,,,0,,,66,64
176957,note_off,,,,,100,0,1,,,0,,,75,64
176963,note_on,,,,,6,0,1,,,0,,,66,68
177078,control_change,,,,,115,0,1,,,0,64,96,,
177082,note_off,,,,,4,0,1,,,0,,,66,64
177082,note_on,,,,,0,0,1,,,0,,,76,70
177120,note_off,,,,,38,0,1,,,0,,,42,64
177120,note_on,,,,,0,0,1,,,0,,,57,39
177129,control_change,,,,,9,0,1,,,0,64,127,,
177180,note_off,,,,,51,0,1,,,0,,,57,64
177180,note_on,,,,,0,0,1,,,0,,,59,51
177196,note_on,,,,,16,0,1,,,0,,,66,58
177205,note_off,,,,,9,0,1,,,0,,,76,64
177240,note_off,,,,,35,0,1,,,0,,,59,64
177240,note_on,,,,,0,0,1,,,0,,,57,48
177300,note_off,,,,,60,0,1,,,0,,,57,64
177319,note_off,,,,,19,0,1,,,0,,,66,64
177326,note_on,,,,,7,0,1,,,0,,,69,67
177360,note_on,,,,,34,0,1,,,0,,,55,48
177419,note_off,,,,,59,0,1,,,0,,,69,64
177434,note_on,,,,,15,0,1,,,0,,,66,63
177450,note_off,,,,,16,0,1,,,0,,,55,64
177480,note_on,,,,,30,0,1,,,0,,,54,48
177505,note_off,,,,,25,0,1,,,0,,,66,64
177535,control_change,,,,,30,0,1,,,0,64,96,,
177550,control_change,,,,,15,0,1,,,0,64,0,,
177570,note_off,,,,,20,0,1,,,0,,,54,64
177581,note_on,,,,,11,0,1,,,0,,,67,70
177600,note_on,,,,,19,0,1,,,0,,,40,50
177648,control_change,,,,,48,0,1,,,0,64,64,,
177663,control_change,,,,,15,0,1,,,0,64,96,,
177676,control_change,,,,,13,0,1,,,0,64,127,,
177700,note_on,,,,,24,0,1,,,0,,,64,60
177710,note_off,,,,,10,0,1,,,0,,,67,64
177820,note_on,,,,,110,0,1,,,0,,,67,70
177840,note_off,,,,,20,0,1,,,0,,,64,64
177939,note_on,,,,,99,0,1,,,0,,,71,70
177996,note_off,,,,,57,0,1,,,0,,,67,64
178080,note_off,,,,,84,0,1,,,0,,,40,64
178080,note_on,,,,,0,0,1,,,0,,,55,59
178082,note_on,,,,,2,0,1,,,0,,,76,80
178112,note_off,,,,,30,0,1,,,0,,,71,64
178125,note_off,,,,,13,0,1,,,0,,,55,64
178140,note_on,,,,,15,0,1,,,0,,,57,41
178185,note_off,,,,,45,0,1,,,0,,,57,64
178200,note_on,,,,,15,0,1,,,0,,,55,56
178245,note_off,,,,,45,0,1,,,0,,,55,64
178320,note_on,,,,,75,0,1,,,0,,,54,40
178410,note_off,,,,,90,0,1,,,0,,,54,64
178440,note_on,,,,,30,0,1,,,0,,,52,52
178530,note_off,,,,,90,0,1,,,0,,,52,64
178560,note_on,,,,,0,0,1,,,0,,,45,62
178560,control_change,,,,,30,0,1,,,0,64,0,,
178658,note_off,,,,,98,0,1,,,0,,,76,64
178729,note_on,,,,,71,0,1,,,0,,,74,67
178838,note_on,,,,,109,0,1,,,0,,,72,56
178877,note_off,,,,,39,0,1,,,0,,,74,64
178920,note_off,,,,,43,0,1,,,0,,,45,64
178959,note_on,,,,,39,0,1,,,0,,,71,62
179002,note_off,,,,,43,0,1,,,0,,,72,64
179040,note_on,,,,,38,0,1,,,0,,,57,67
179092,note_off,,,,,52,0,1,,,0,,,71,64
179098,note_on,,,,,6,0,1,,,0,,,69,67
179185,note_on,,,,,87,0,1,,,0,,,67,52
179199,note_off,,,,,14,0,1,,,0,,,69,64
179314,note_on,,,,,115,0,1,,,0,,,66,63
179348,note_off,,,,,34,0,1,,,0,,,67,64
179400,note_off,,,,,52,0,1,,,0,,,57,64
179415,note_off,,,,,15,0,1,,,0,,,66,64
179423,note_on,,,,,8,0,1,,,0,,,64,58
179485,note_off,,,,,62,0,1,,,0,,,64,64
179520,note_on,,,,,35,0,1,,,0,,,47,67
179550,note_on,,,,,30,0,1,,,0,,,63,80
179680,note_on,,,,,130,0,1,,,0,,,59,71
179689,note_off,,,,,9,0,1,,,0,,,63,64
179790,note_on,,,,,101,0,1,,,0,,,63,74
179818,note_off,,,,,28,0,1,,,0,,,59,64
179880,note_off,,,,,62,0,1,,,0,,,47,64
179903,note_on,,,,,23,0,1,,,0,,,66,74
179937,note_off,,,,,34,0,1,,,0,,,63,64
179965,note_off,,,,,28,0,1,,,0,,,66,64
180000,note_on,,,,,35,0,1,,,0,,,55,59
180045,note_off,,,,,45,0,1,,,0,,,55,64
180052,note_on,,,,,7,0,1,,,0,,,76,80
180060,note_on,,,,,8,0,1,,,0,,,57,52
180105,note_off,,,,,45,0,1,,,0,,,57,64
180120,note_on,,,,,15,0,1,,,0,,,55,62
180165,note_off,,,,,45,0,1,,,0,,,55,64
180240,note_on,,,,,75,0,1,,,0,,,54,55
180330,note_off,,,,,90,0,1,,,0,,,54,64
180360,note_on,,,,,30,0,1,,,0,,,52,56
180450,note_off,,,,,90,0,1,,,0,,,52,64
180480,note_on,,,,,30,0,1,,,0,,,45,62
180610,note_on,,,,,130,0,1,,,0,,,74,67
180633,note_off,,,,,23,0,1,,,0,,,76,64
180721,note_on,,,,,88,0,1,,,0,,,72,70
180778,note_off,,,,,57,0,1,,,0,,,74,64
180840,note_off,,,,,62,0,1,,,0,,,45,64
180848,note_on,,,,,8,0,1,,,0,,,71,67
180895,note_off,,,,,47,0,1,,,0,,,72,64
180960,note_on,,,,,65,0,1,,,0,,,57,67
180973,note_on,,,,,13,0,1,,,0,,,69,67
180981,note_off,,,,,8,0,1,,,0,,,71,64
181066,note_off,,,,,85,0,1,,,0,,,69,64
181072,note_on,,,,,6,0,1,,,0,,,67,62
181199,note_on,,,,,127,0,1,,,0,,,66,58
181227,note_off,,,,,28,0,1,,,0,,,67,64
181304,note_on,,,,,77,0,1,,,0,,,64,67
181320,note_off,,,,,16,0,1,,,0,,,57,64
181334,note_off,,,,,14,0,1,,,0,,,66,64
181366,note_off,,,,,32,0,1,,,0,,,64,64
181429,note_on,,,,,63,0,1,,,0,,,63,74
181440,note_on,,,,,11,0,1,,,0,,,47,67
181440,set_tempo,,,,,28800,1,0,272727,,,,,,
181548,note_off,,,,,108,0,1,,,0,,,63,64
181556,note_on,,,,,8,0,1,,,0,,,59,63
181655,note_on,,,,,99,0,1,,,0,,,63,74
181687,note_off,,,,,32,0,1,,,0,,,59,64
181766,note_on,,,,,79,0,1,,,0,,,66,80
181794,note_off,,,,,28,0,1,,,0,,,63,64
181800,note_off,,,,,6,0,1,,,0,,,47,64
181830,note_off,,,,,30,0,1,,,0,,,66,64
181917,note_on,,,,,87,0,1,,,0,,,76,80
181920,note_on,,,,,3,0,1,,,0,,,55,59
181965,note_off,,,,,45,0,1,,,0,,,55,64
181980,note_on,,,,,15,0,1,,,0,,,57,52
182025,note_off,,,,,45,0,1,,,0,,,57,64
182040,note_on,,,,,15,0,1,,,0,,,55,62
182085,note_off,,,,,45,0,1,,,0,,,55,64
182160,note_on,,,,,75,0,1,,,0,,,54,55
182250,note_off,,,,,90,0,1,,,0,,,54,64
182280,note_on,,,,,30,0,1,,,0,,,52,56
182370,note_off,,,,,90,0,1,,,0,,,52,64
182400,note_on,,,,,30,0,1,,,0,,,45,62
182503,note_on,,,,,103,0,1,,,0,,,74,67
182526,note_off,,,,,23,0,1,,,0,,,76,64
182618,note_on,,,,,92,0,1,,,0,,,72,59
182671,note_off,,,,,53,0,1,,,0,,,74,64
182745,note_on,,,,,74,0,1,,,0,,,71,59
182760,note_off,,,,,15,0,1,,,0,,,45,64
182784,note_off,,,,,24,0,1,,,0,,,72,64
182858,note_off,,,,,74,0,1,,,0,,,71,64
182866,note_on,,,,,8,0,1,,,0,,,69,67
182880,note_on,,,,,14,0,1,,,0,,,57,67
182941,note_off,,,,,61,0,1,,,0,,,69,64
182965,note_on,,,,,24,0,1,,,0,,,67,56
183088,note_on,,,,,123,0,1,,,0,,,66,58
183116,note_off,,,,,28,0,1,,,0,,,67,64
183201,note_on,,,,,85,0,1,,,0,,,64,67
183233,note_off,,,,,32,0,1,,,0,,,66,64
183240,note_off,,,,,7,0,1,,,0,,,57,64
183263,note_off,,,,,23,0,1,,,0,,,64,64
183360,note_on,,,,,97,0,1,,,0,,,59,63
183360,set_tempo,,,,,1920,1,0,250000,,,,,,
183600,note_on,,,,,0,0,1,,,0,,,59,66
183600,note_on,,,,,240,0,1,,,0,,,47,67
183634,control_change,,,,,34,0,1,,,0,64,64,,
183636,note_off,,,,,2,0,1,,,0,,,59,64
183740,control_change,,,,,104,0,1,,,0,64,96,,
183765,control_change,,,,,25,0,1,,,0,64,127,,
183780,note_off,,,,,15,0,1,,,0,,,59,64
183780,note_off,,,,,0,0,1,,,0,,,47,64
183840,note_on,,,,,60,0,1,,,0,,,48,67
183840,note_on,,,,,0,0,1,,,0,,,60,70
184020,note_off,,,,,180,0,1,,,0,,,60,64
184020,note_off,,,,,0,0,1,,,0,,,48,64
184080,note_on,,,,,60,0,1,,,0,,,44,68
184080,note_on,,,,,0,0,1,,,0,,,56,72
184093,note_on,,,,,13,0,1,,,0,,,83,80
184105,note_on,,,,,12,0,1,,,0,,,71,59
184128,control_change,,,,,23,0,1,,,0,64,64,,
184146,control_change,,,,,18,0,1,,,0,64,0,,
184260,note_off,,,,,114,0,1,,,0,,,56,64
184260,note_off,,,,,0,0,1,,,0,,,44,64
184297,control_change,,,,,37,0,1,,,0,64,64,,
184313,control_change,,,,,16,0,1,,,0,64,127,,
184320,note_on,,,,,7,0,1,,,0,,,45,56
184320,note_on,,,,,0,0,1,,,0,,,57,62
184333,note_off,,,,,13,0,1,,,0,,,83,64
184333,note_on,,,,,0,0,1,,,0,,,84,80
184345,note_off,,,,,12,0,1,,,0,,,71,64
184345,note_on,,,,,0,0,1,,,0,,,72,67
184378,control_change,,,,,33,0,1,,,0,64,64,,
184397,control_change,,,,,19,0,1,,,0,64,0,,
184500,note_off,,,,,0,0,1,,,0,,,45,64
184500,note_off,,,,,103,0,1,,,0,,,57,64
184560,note_on,,,,,60,0,1,,,0,,,47,59
184560,note_on,,,,,0,0,1,,,0,,,59,66
184569,control_change,,,,,9,0,1,,,0,64,64,,
184573,note_on,,,,,0,0,1,,,0,,,68,74
184573,note_off,,,,,4,0,1,,,0,,,84,64
184573,note_on,,,,,0,0,1,,,0,,,80,80
184585,note_off,,,,,12,0,1,,,0,,,72,64
184612,control_change,,,,,27,0,1,,,0,64,127,,
184672,control_change,,,,,60,0,1,,,0,64,96,,
184690,control_change,,,,,18,0,1,,,0,64,64,,
184709,control_change,,,,,19,0,1,,,0,64,0,,
184740,note_off,,,,,31,0,1,,,0,,,59,64
184740,note_off,,,,,0,0,1,,,0,,,47,64
184800,note_on,,,,,60,0,1,,,0,,,48,62
184800,note_on,,,,,0,0,1,,,0,,,60,67
184813,note_off,,,,,13,0,1,,,0,,,80,64
184813,note_off,,,,,0,0,1,,,0,,,68,64
184820,note_on,,,,,7,0,1,,,0,,,81,80
184832,note_on,,,,,12,0,1,,,0,,,69,75
184861,control_change,,,,,29,0,1,,,0,64,96,,
184880,control_change,,,,,19,0,1,,,0,64,127,,
184980,note_off,,,,,100,0,1,,,0,,,60,64
184980,note_off,,,,,0,0,1,,,0,,,48,64
185040,note_on,,,,,60,0,1,,,0,,,49,63
185040,note_on,,,,,0,0,1,,,0,,,61,62
185060,note_off,,,,,20,0,1,,,0,,,81,64
185072,note_off,,,,,12,0,1,,,0,,,69,64
185220,note_off,,,,,148,0,1,,,0,,,61,64
185220,note_off,,,,,0,0,1,,,0,,,49,64
185280,note_on,,,,,0,0,1,,,0,,,63,63
185280,note_on,,,,,60,0,1,,,0,,,51,68
185460,note_off,,,,,0,0,1,,,0,,,51,64
185460,note_off,,,,,180,0,1,,,0,,,63,64
185479,control_change,,,,,19,0,1,,,0,64,96,,
185499,note_on,,,,,20,0,1,,,0,,,79,70
185501,control_change,,,,,2,0,1,,,0,64,0,,
185511,note_on,,,,,10,0,1,,,0,,,67,52
185520,note_on,,,,,9,0,1,,,0,,,64,60
185520,note_on,,,,,0,0,1,,,0,,,52,67
185608,control_change,,,,,88,0,1,,,0,64,64,,
185626,control_change,,,,,18,0,1,,,0,64,96,,
185645,control_change,,,,,19,0,1,,,0,64,127,,
185700,note_off,,,,,0,0,1,,,0,,,64,64
185700,note_off,,,,,55,0,1,,,0,,,52,64
185739,note_off,,,,,39,0,1,,,0,,,79,64
185741,note_on,,,,,2,0,1,,,0,,,78,63
185751,note_off,,,,,10,0,1,,,0,,,67,64
185753,note_on,,,,,2,0,1,,,0,,,66,40
185760,note_on,,,,,7,0,1,,,0,,,57,52
185760,note_on,,,,,0,0,1,,,0,,,45,52
185812,control_change,,,,,52,0,1,,,0,64,96,,
185828,control_change,,,,,16,0,1,,,0,64,0,,
185940,note_off,,,,,112,0,1,,,0,,,45,64
185940,note_off,,,,,0,0,1,,,0,,,57,64
185979,note_on,,,,,39,0,1,,,0,,,76,67
185981,note_off,,,,,2,0,1,,,0,,,78,64
185982,control_change,,,,,1,0,1,,,0,64,64,,
185989,note_on,,,,,7,0,1,,,0,,,64,60
185993,note_off,,,,,4,0,1,,,0,,,66,64
186000,note_on,,,,,7,0,1,,,0,,,48,62
186000,note_on,,,,,0,0,1,,,0,,,60,59
186017,control_change,,,,,17,0,1,,,0,64,127,,
186139,control_change,,,,,122,0,1,,,0,64,96,,
186155,control_change,,,,,16,0,1,,,0,64,64,,
186174,control_change,,,,,19,0,1,,,0,64,0,,
186180,note_off,,,,,6,0,1,,,0,,,60,64
186180,note_off,,,,,0,0,1,,,0,,,48,64
186212,note_on,,,,,32,0,1,,,0,,,78,74
186219,note_off,,,,,7,0,1,,,0,,,76,64
186221,note_on,,,,,2,0,1,,,0,,,66,50
186229,note_off,,,,,8,0,1,,,0,,,64,64
186294,control_change,,,,,65,0,1,,,0,64,64,,
186310,control_change,,,,,16,0,1,,,0,64,127,,
186452,note_off,,,,,142,0,1,,,0,,,78,64
186461,note_off,,,,,9,0,1,,,0,,,66,64
186480,note_on,,,,,19,0,1,,,0,,,47,67
186480,note_on,,,,,0,0,1,,,0,,,59,66
186660,note_off,,,,,180,0,1,,,0,,,59,64
186660,note_off,,,,,0,0,1,,,0,,,47,64
186720,note_on,,,,,60,0,1,,,0,,,48,67
186720,note_on,,,,,0,0,1,,,0,,,60,70
186900,note_off,,,,,180,0,1,,,0,,,60,64
186900,note_off,,,,,0,0,1,,,0,,,48,64
186960,note_on,,,,,60,0,1,,,0,,,44,68
186960,note_on,,,,,0,0,1,,,0,,,56,72
186973,note_on,,,,,13,0,1,,,0,,,71,59
186973,note_on,,,,,0,0,1,,,0,,,83,75
187053,control_change,,,,,80,0,1,,,0,64,64,,
187069,control_change,,,,,16,0,1,,,0,64,0,,
187140,note_off,,,,,71,0,1,,,0,,,56,64
187140,note_off,,,,,0,0,1,,,0,,,44,64
187196,control_change,,,,,56,0,1,,,0,64,64,,
187200,note_on,,,,,0,0,1,,,0,,,57,62
187200,note_on,,,,,4,0,1,,,0,,,45,56
187205,note_on,,,,,5,0,1,,,0,,,84,80
187213,note_off,,,,,8,0,1,,,0,,,83,64
187213,note_off,,,,,0,0,1,,,0,,,71,64
187218,control_change,,,,,5,0,1,,,0,64,127,,
187222,note_on,,,,,4,0,1,,,0,,,72,56
187343,control_change,,,,,121,0,1,,,0,64,96,,
187360,control_change,,,,,17,0,1,,,0,64,0,,
187380,note_off,,,,,20,0,1,,,0,,,57,64
187380,note_off,,,,,0,0,1,,,0,,,45,64
187433,note_on,,,,,53,0,1,,,0,,,68,68
187436,note_on,,,,,3,0,1,,,0,,,80,80
187440,note_on,,,,,4,0,1,,,0,,,47,59
187440,note_on,,,,,0,0,1,,,0,,,59,66
187445,note_off,,,,,5,0,1,,,0,,,84,64
187462,note_off,,,,,17,0,1,,,0,,,72,64
187507,control_change,,,,,45,0,1,,,0,64,64,,
187526,control_change,,,,,19,0,1,,,0,64,127,,
187582,control_change,,,,,56,0,1,,,0,64,96,,
187599,control_change,,,,,17,0,1,,,0,64,64,,
187618,control_change,,,,,19,0,1,,,0,64,0,,
187620,note_off,,,,,2,0,1,,,0,,,59,64
187620,note_off,,,,,0,0,1,,,0,,,47,64
187673,note_off,,,,,53,0,1,,,0,,,68,64
187676,note_off,,,,,3,0,1,,,0,,,80,64
187680,note_on,,,,,0,0,1,,,0,,,60,67
187680,note_on,,,,,4,0,1,,,0,,,48,62
187690,note_on,,,,,0,0,1,,,0,,,81,80
187690,note_on,,,,,10,0,1,,,0,,,69,70
187752,control_change,,,,,62,0,1,,,0,64,64,,
187769,control_change,,,,,17,0,1,,,0,64,127,,
187860,note_off,,,,,0,0,1,,,0,,,48,64
187860,note_off,,,,,91,0,1,,,0,,,60,64
187920,note_on,,,,,0,0,1,,,0,,,61,62
187920,note_on,,,,,60,0,1,,,0,,,49,63
187930,note_off,,,,,0,0,1,,,0,,,69,64
187930,note_off,,,,,10,0,1,,,0,,,81,64
188100,note_off,,,,,170,0,1,,,0,,,61,64
188100,note_off,,,,,0,0,1,,,0,,,49,64
188160,note_on,,,,,60,0,1,,,0,,,51,68
188160,note_on,,,,,0,0,1,,,0,,,63,63
188314,control_change,,,,,154,0,1,,,0,64,96,,
188333,control_change,,,,,19,0,1,,,0,64,0,,
188340,note_off,,,,,7,0,1,,,0,,,63,64
188340,note_off,,,,,0,0,1,,,0,,,51,64
188381,note_on,,,,,41,0,1,,,0,,,79,70
188391,note_on,,,,,10,0,1,,,0,,,67,62
188400,note_on,,,,,9,0,1,,,0,,,64,60
188400,note_on,,,,,0,0,1,,,0,,,52,67
188466,control_change,,,,,66,0,1,,,0,64,64,,
188486,control_change,,,,,20,0,1,,,0,64,127,,
188580,note_off,,,,,94,0,1,,,0,,,52,64
188580,note_off,,,,,0,0,1,,,0,,,64,64
188621,note_off,,,,,41,0,1,,,0,,,79,64
188622,control_change,,,,,1,0,1,,,0,64,64,,
188624,note_on,,,,,2,0,1,,,0,,,78,74
188631,note_off,,,,,7,0,1,,,0,,,67,64
188633,note_on,,,,,2,0,1,,,0,,,66,58
188640,note_on,,,,,7,0,1,,,0,,,57,52
188640,note_on,,,,,0,0,1,,,0,,,45,52
188648,control_change,,,,,8,0,1,,,0,64,0,,
188724,control_change,,,,,76,0,1,,,0,64,64,,
188741,control_change,,,,,17,0,1,,,0,64,96,,
188761,control_change,,,,,20,0,1,,,0,64,127,,
188778,control_change,,,,,17,0,1,,,0,64,96,,
188795,control_change,,,,,17,0,1,,,0,64,64,,
188815,control_change,,,,,20,0,1,,,0,64,0,,
188820,note_off,,,,,0,0,1,,,0,,,57,64
188820,note_off,,,,,5,0,1,,,0,,,45,64
188859,note_on,,,,,39,0,1,,,0,,,76,67
188864,note_off,,,,,5,0,1,,,0,,,78,64
188871,note_on,,,,,7,0,1,,,0,,,64,60
188873,note_off,,,,,2,0,1,,,0,,,66,64
188880,note_on,,,,,0,0,1,,,0,,,60,59
188880,note_on,,,,,7,0,1,,,0,,,48,62
188952,control_change,,,,,72,0,1,,,0,64,64,,
188969,control_change,,,,,17,0,1,,,0,64,127,,
189001,control_change,,,,,32,0,1,,,0,64,96,,
189021,control_change,,,,,20,0,1,,,0,64,64,,
189038,control_change,,,,,17,0,1,,,0,64,0,,
189060,note_off,,,,,0,0,1,,,0,,,48,64
189060,note_off,,,,,22,0,1,,,0,,,60,64
189099,note_off,,,,,39,0,1,,,0,,,76,64
189111,note_off,,,,,12,0,1,,,0,,,64,64
189120,note_on,,,,,9,0,1,,,0,,,47,70
189120,note_on,,,,,0,0,1,,,0,,,59,79
189129,control_change,,,,,9,0,1,,,0,64,64,,
189149,control_change,,,,,20,0,1,,,0,64,127,,
189179,control_change,,,,,30,0,1,,,0,64,64,,
189234,note_on,,,,,55,0,1,,,0,,,71,57
189274,control_change,,,,,40,0,1,,,0,64,96,,
189306,control_change,,,,,32,0,1,,,0,64,127,,
189349,note_on,,,,,0,0,1,,,0,,,75,72
189349,note_off,,,,,43,0,1,,,0,,,71,64
189452,control_change,,,,,103,0,1,,,0,64,96,,
189454,note_off,,,,,2,0,1,,,0,,,75,64
189471,note_on,,,,,17,0,1,,,0,,,71,71
189472,control_change,,,,,1,0,1,,,0,64,0,,
189480,note_off,,,,,8,0,1,,,0,,,59,64
189480,note_off,,,,,0,0,1,,,0,,,47,64
189576,note_on,,,,,96,0,1,,,0,,,76,77
189587,note_off,,,,,11,0,1,,,0,,,71,64
189600,note_on,,,,,13,0,1,,,0,,,68,80
189645,note_off,,,,,45,0,1,,,0,,,68,64
189660,note_on,,,,,15,0,1,,,0,,,69,80
189680,note_off,,,,,20,0,1,,,0,,,76,64
189687,note_on,,,,,7,0,1,,,0,,,71,64
189705,note_off,,,,,18,0,1,,,0,,,69,64
189720,note_on,,,,,15,0,1,,,0,,,68,80
189811,note_off,,,,,91,0,1,,,0,,,71,64
189820,note_on,,,,,9,0,1,,,0,,,80,85
189840,note_on,,,,,20,0,1,,,0,,,66,70
189852,note_off,,,,,12,0,1,,,0,,,68,64
189916,control_change,,,,,64,0,1,,,0,64,96,,
189926,note_off,,,,,10,0,1,,,0,,,80,64
189926,note_on,,,,,0,0,1,,,0,,,71,64
189930,note_off,,,,,4,0,1,,,0,,,66,64
189936,control_change,,,,,6,0,1,,,0,64,64,,
189960,note_on,,,,,24,0,1,,,0,,,64,70
189968,control_change,,,,,8,0,1,,,0,64,0,,
190050,note_off,,,,,82,0,1,,,0,,,64,64
190053,note_off,,,,,3,0,1,,,0,,,71,64
190066,note_on,,,,,13,0,1,,,0,,,83,77
190080,note_on,,,,,14,0,1,,,0,,,47,86
190184,control_change,,,,,104,0,1,,,0,64,64,,
190186,note_on,,,,,2,0,1,,,0,,,71,47
190197,note_off,,,,,11,0,1,,,0,,,83,64
190227,control_change,,,,,30,0,1,,,0,64,96,,
190259,control_change,,,,,32,0,1,,,0,64,127,,
190304,note_off,,,,,45,0,1,,,0,,,71,64
190313,note_on,,,,,9,0,1,,,0,,,75,66
190408,note_off,,,,,95,0,1,,,0,,,75,64
190426,note_on,,,,,18,0,1,,,0,,,71,67
190546,note_off,,,,,120,0,1,,,0,,,71,64
190555,note_on,,,,,9,0,1,,,0,,,76,77
190560,note_off,,,,,5,0,1,,,0,,,47,64
190560,note_on,,,,,0,0,1,,,0,,,68,80
190605,note_off,,,,,45,0,1,,,0,,,68,64
190620,note_on,,,,,15,0,1,,,0,,,69,80
190650,note_on,,,,,0,0,1,,,0,,,71,64
190650,note_off,,,,,30,0,1,,,0,,,76,64
190665,note_off,,,,,15,0,1,,,0,,,69,64
190680,note_on,,,,,15,0,1,,,0,,,68,80
190725,note_off,,,,,45,0,1,,,0,,,68,64
190774,note_off,,,,,49,0,1,,,0,,,71,64
190792,note_on,,,,,18,0,1,,,0,,,80,85
190800,note_on,,,,,8,0,1,,,0,,,66,70
190881,control_change,,,,,81,0,1,,,0,64,96,,
190890,note_off,,,,,9,0,1,,,0,,,66,64
190890,note_on,,,,,0,0,1,,,0,,,71,71
190890,note_off,,,,,0,0,1,,,0,,,80,64
190920,note_on,,,,,30,0,1,,,0,,,64,70
190924,control_change,,,,,4,0,1,,,0,64,64,,
190950,control_change,,,,,26,0,1,,,0,64,0,,
191010,note_off,,,,,60,0,1,,,0,,,64,64
191019,note_off,,,,,9,0,1,,,0,,,71,64
191032,note_on,,,,,13,0,1,,,0,,,83,67
191040,note_on,,,,,8,0,1,,,0,,,45,80
191120,control_change,,,,,80,0,1,,,0,64,64,,
191143,control_change,,,,,23,0,1,,,0,64,96,,
191147,note_off,,,,,4,0,1,,,0,,,83,64
191154,note_on,,,,,7,0,1,,,0,,,71,35
191184,control_change,,,,,30,0,1,,,0,64,127,,
191276,note_on,,,,,92,0,1,,,0,,,75,78
191287,note_off,,,,,11,0,1,,,0,,,71,64
191378,note_off,,,,,91,0,1,,,0,,,75,64
191390,note_on,,,,,12,0,1,,,0,,,71,71
191512,note_on,,,,,122,0,1,,,0,,,76,80
191520,note_on,,,,,0,0,1,,,0,,,68,80
191520,note_off,,,,,8,0,1,,,0,,,45,64
191523,note_off,,,,,3,0,1,,,0,,,71,64
191565,note_off,,,,,42,0,1,,,0,,,68,64
191580,note_on,,,,,15,0,1,,,0,,,69,80
191603,note_off,,,,,23,0,1,,,0,,,76,64
191616,note_on,,,,,13,0,1,,,0,,,71,80
191625,note_off,,,,,9,0,1,,,0,,,69,64
191640,note_on,,,,,15,0,1,,,0,,,68,80
191685,note_off,,,,,45,0,1,,,0,,,68,64
191742,note_off,,,,,57,0,1,,,0,,,71,64
191751,note_on,,,,,9,0,1,,,0,,,78,85
191760,note_on,,,,,9,0,1,,,0,,,66,70
191834,control_change,,,,,74,0,1,,,0,64,96,,
191838,note_off,,,,,4,0,1,,,0,,,78,64
191850,note_on,,,,,0,0,1,,,0,,,71,77
191850,note_off,,,,,12,0,1,,,0,,,66,64
191855,control_change,,,,,5,0,1,,,0,64,64,,
191880,note_on,,,,,25,0,1,,,0,,,64,70
191883,control_change,,,,,3,0,1,,,0,64,0,,
191970,note_off,,,,,87,0,1,,,0,,,64,64
191984,note_off,,,,,14,0,1,,,0,,,71,64
191991,note_on,,,,,7,0,1,,,0,,,83,86
192000,note_on,,,,,9,0,1,,,0,,,44,80
192022,control_change,,,,,22,0,1,,,0,64,64,,
192042,control_change,,,,,20,0,1,,,0,64,127,,
192093,note_on,,,,,51,0,1,,,0,,,71,64
192113,note_off,,,,,20,0,1,,,0,,,83,64
192206,note_on,,,,,93,0,1,,,0,,,76,71
192220,note_off,,,,,14,0,1,,,0,,,71,64
192320,note_off,,,,,100,0,1,,,0,,,76,64
192326,note_on,,,,,6,0,1,,,0,,,71,77
192442,note_off,,,,,116,0,1,,,0,,,71,64
192451,note_on,,,,,9,0,1,,,0,,,78,92
192480,note_off,,,,,29,0,1,,,0,,,44,64
192480,note_on,,,,,0,0,1,,,0,,,68,80
192525,note_off,,,,,45,0,1,,,0,,,68,64
192540,note_on,,,,,15,0,1,,,0,,,69,80
192550,note_off,,,,,10,0,1,,,0,,,78,64
192550,note_on,,,,,0,0,1,,,0,,,71,77
192585,note_off,,,,,35,0,1,,,0,,,69,64
192600,note_on,,,,,15,0,1,,,0,,,68,80
192645,note_off,,,,,45,0,1,,,0,,,68,64
192675,note_off,,,,,30,0,1,,,0,,,71,64
192693,note_on,,,,,18,0,1,,,0,,,80,78
192720,note_on,,,,,27,0,1,,,0,,,66,70
192779,note_off,,,,,59,0,1,,,0,,,80,64
192790,note_on,,,,,11,0,1,,,0,,,71,71
192810,note_off,,,,,20,0,1,,,0,,,66,64
192828,control_change,,,,,18,0,1,,,0,64,96,,
192840,note_on,,,,,12,0,1,,,0,,,64,70
192848,control_change,,,,,8,0,1,,,0,64,64,,
192874,control_change,,,,,26,0,1,,,0,64,0,,
192923,note_off,,,,,49,0,1,,,0,,,71,64
192930,note_off,,,,,7,0,1,,,0,,,64,64
192943,note_on,,,,,13,0,1,,,0,,,81,80
192960,note_on,,,,,17,0,1,,,0,,,42,74
193009,control_change,,,,,49,0,1,,,0,64,64,,
193048,note_on,,,,,39,0,1,,,0,,,71,57
193063,note_off,,,,,15,0,1,,,0,,,81,64
193073,control_change,,,,,10,0,1,,,0,64,96,,
193096,control_change,,,,,23,0,1,,,0,64,127,,
193177,note_on,,,,,81,0,1,,,0,,,75,78
193188,note_off,,,,,11,0,1,,,0,,,71,64
193265,note_off,,,,,77,0,1,,,0,,,75,64
193283,note_on,,,,,18,0,1,,,0,,,71,71
193414,note_on,,,,,131,0,1,,,0,,,76,77
193423,note_off,,,,,9,0,1,,,0,,,71,64
193440,note_on,,,,,0,0,1,,,0,,,68,80
193440,note_off,,,,,17,0,1,,,0,,,42,64
193485,note_off,,,,,45,0,1,,,0,,,68,64
193500,note_on,,,,,15,0,1,,,0,,,69,80
193512,note_off,,,,,12,0,1,,,0,,,76,64
193545,note_off,,,,,33,0,1,,,0,,,69,64
193549,note_on,,,,,4,0,1,,,0,,,71,44
193560,note_on,,,,,11,0,1,,,0,,,68,80
193605,note_off,,,,,45,0,1,,,0,,,68,64
193656,note_on,,,,,51,0,1,,,0,,,78,72
193667,note_off,,,,,11,0,1,,,0,,,71,64
193680,note_on,,,,,13,0,1,,,0,,,66,70
193756,note_off,,,,,76,0,1,,,0,,,78,64
193770,note_off,,,,,14,0,1,,,0,,,66,64
193774,note_on,,,,,4,0,1,,,0,,,71,71
193800,note_on,,,,,26,0,1,,,0,,,64,70
193867,note_off,,,,,67,0,1,,,0,,,71,64
193880,control_change,,,,,13,0,1,,,0,64,96,,
193889,note_on,,,,,9,0,1,,,0,,,80,78
193890,note_off,,,,,1,0,1,,,0,,,64,64
193902,control_change,,,,,12,0,1,,,0,64,64,,
193920,note_on,,,,,18,0,1,,,0,,,40,86
193928,control_change,,,,,8,0,1,,,0,64,0,,
194013,note_on,,,,,85,0,1,,,0,,,81,67
194071,note_off,,,,,58,0,1,,,0,,,80,64
194142,note_off,,,,,71,0,1,,,0,,,81,64
194171,note_on,,,,,29,0,1,,,0,,,83,59
194267,note_on,,,,,96,0,1,,,0,,,81,47
194398,note_on,,,,,131,0,1,,,0,,,80,78
194400,note_off,,,,,2,0,1,,,0,,,40,64
194409,note_off,,,,,9,0,1,,,0,,,83,64
194442,note_off,,,,,33,0,1,,,0,,,81,64
194500,note_on,,,,,58,0,1,,,0,,,78,72
194540,note_off,,,,,40,0,1,,,0,,,80,64
194608,note_off,,,,,68,0,1,,,0,,,78,64
194608,note_on,,,,,0,0,1,,,0,,,76,57
194640,note_on,,,,,32,0,1,,,0,,,56,84
194733,note_off,,,,,93,0,1,,,0,,,76,64
194735,note_on,,,,,2,0,1,,,0,,,75,78
194866,note_off,,,,,131,0,1,,,0,,,75,64
194875,note_on,,,,,9,0,1,,,0,,,73,78
194880,note_off,,,,,5,0,1,,,0,,,56,64
194880,note_on,,,,,0,0,1,,,0,,,45,62
194995,note_off,,,,,115,0,1,,,0,,,73,64
195008,note_on,,,,,13,0,1,,,0,,,76,59
195120,note_off,,,,,112,0,1,,,0,,,45,64
195120,note_on,,,,,0,0,1,,,0,,,57,70
195123,note_on,,,,,3,0,1,,,0,,,75,63
195146,note_off,,,,,23,0,1,,,0,,,76,64
195248,note_on,,,,,102,0,1,,,0,,,73,63
195294,note_off,,,,,46,0,1,,,0,,,75,64
195360,note_off,,,,,66,0,1,,,0,,,57,64
195360,note_on,,,,,0,0,1,,,0,,,59,79
195361,note_on,,,,,1,0,1,,,0,,,71,67
195399,note_off,,,,,38,0,1,,,0,,,73,64
195465,note_off,,,,,66,0,1,,,0,,,71,64
195472,note_on,,,,,7,0,1,,,0,,,69,70
195594,note_on,,,,,122,0,1,,,0,,,68,74
195600,note_on,,,,,0,0,1,,,0,,,47,70
195600,note_off,,,,,6,0,1,,,0,,,59,64
195614,note_off,,,,,14,0,1,,,0,,,69,64
195707,note_on,,,,,93,0,1,,,0,,,66,58
195727,note_off,,,,,20,0,1,,,0,,,68,64
195781,note_off,,,,,54,0,1,,,0,,,66,64
195840,note_off,,,,,59,0,1,,,0,,,47,64
195840,note_on,,,,,0,0,1,,,0,,,40,47
195855,note_on,,,,,15,0,1,,,0,,,83,67
195961,note_off,,,,,106,0,1,,,0,,,83,64
195973,control_change,,,,,12,0,1,,,0,64,64,,
195985,note_on,,,,,12,0,1,,,0,,,71,32
196088,control_change,,,,,103,0,1,,,0,64,96,,
196102,note_off,,,,,14,0,1,,,0,,,71,64
196115,note_on,,,,,13,0,1,,,0,,,75,44
196175,control_change,,,,,60,0,1,,,0,64,127,,
196212,note_off,,,,,37,0,1,,,0,,,75,64
196240,note_on,,,,,28,0,1,,,0,,,71,39
196320,note_off,,,,,80,0,1,,,0,,,40,64
196320,note_on,,,,,0,0,1,,,0,,,68,75
196348,note_off,,,,,28,0,1,,,0,,,71,64
196356,note_on,,,,,8,0,1,,,0,,,76,52
196365,note_off,,,,,9,0,1,,,0,,,68,64
196380,note_on,,,,,15,0,1,,,0,,,69,75
196425,note_off,,,,,45,0,1,,,0,,,69,64
196440,note_on,,,,,15,0,1,,,0,,,68,75
196458,note_off,,,,,18,0,1,,,0,,,76,64
196470,note_on,,,,,12,0,1,,,0,,,71,36
196485,note_off,,,,,15,0,1,,,0,,,68,64
196560,note_on,,,,,75,0,1,,,0,,,66,70
196572,note_off,,,,,12,0,1,,,0,,,71,64
196581,note_on,,,,,9,0,1,,,0,,,80,68
196624,control_change,,,,,43,0,1,,,0,64,96,,
196644,control_change,,,,,20,0,1,,,0,64,64,,
196650,note_off,,,,,6,0,1,,,0,,,66,64
196679,control_change,,,,,29,0,1,,,0,64,0,,
196680,note_on,,,,,1,0,1,,,0,,,64,70
196683,note_off,,,,,3,0,1,,,0,,,80,64
196696,note_on,,,,,13,0,1,,,0,,,71,62
196770,note_off,,,,,74,0,1,,,0,,,64,64
196793,note_off,,,,,23,0,1,,,0,,,71,64
196800,note_on,,,,,7,0,1,,,0,,,47,68
196806,note_on,,,,,6,0,1,,,0,,,83,75
196857,control_change,,,,,51,0,1,,,0,64,64,,
196877,control_change,,,,,20,0,1,,,0,64,96,,
196909,control_change,,,,,32,0,1,,,0,64,127,,
196912,note_on,,,,,3,0,1,,,0,,,71,41
196922,note_off,,,,,10,0,1,,,0,,,83,64
197046,note_on,,,,,0,0,1,,,0,,,75,58
197046,note_off,,,,,124,0,1,,,0,,,71,64
197136,note_off,,,,,90,0,1,,,0,,,75,64
197158,note_on,,,,,22,0,1,,,0,,,71,34
197274,note_off,,,,,116,0,1,,,0,,,71,64
197280,note_off,,,,,6,0,1,,,0,,,47,64
197280,note_on,,,,,0,0,1,,,0,,,68,75
197283,note_on,,,,,3,0,1,,,0,,,76,56
197325,note_off,,,,,42,0,1,,,0,,,68,64
197340,note_on,,,,,15,0,1,,,0,,,69,75
197385,note_off,,,,,45,0,1,,,0,,,69,64
197385,note_off,,,,,0,0,1,,,0,,,76,64
197395,note_on,,,,,10,0,1,,,0,,,71,47
197400,note_on,,,,,5,0,1,,,0,,,68,75
197445,note_off,,,,,45,0,1,,,0,,,68,64
197501,note_off,,,,,56,0,1,,,0,,,71,64
197519,note_on,,,,,18,0,1,,,0,,,80,58
197520,note_on,,,,,1,0,1,,,0,,,66,54
197597,control_change,,,,,77,0,1,,,0,64,96,,
197609,note_on,,,,,0,0,1,,,0,,,71,59
197609,note_off,,,,,12,0,1,,,0,,,80,64
197610,note_off,,,,,1,0,1,,,0,,,66,64
197617,control_change,,,,,7,0,1,,,0,64,64,,
197640,note_on,,,,,23,0,1,,,0,,,64,53
197664,control_change,,,,,24,0,1,,,0,64,0,,
197728,note_off,,,,,64,0,1,,,0,,,71,64
197730,note_off,,,,,2,0,1,,,0,,,64,64
197748,note_on,,,,,18,0,1,,,0,,,83,75
197760,note_on,,,,,12,0,1,,,0,,,45,64
197793,control_change,,,,,33,0,1,,,0,64,64,,
197825,control_change,,,,,32,0,1,,,0,64,96,,
197853,note_off,,,,,28,0,1,,,0,,,83,64
197856,note_on,,,,,3,0,1,,,0,,,71,50
197890,control_change,,,,,34,0,1,,,0,64,127,,
197989,note_off,,,,,99,0,1,,,0,,,71,64
197996,note_on,,,,,7,0,1,,,0,,,75,58
198080,note_off,,,,,84,0,1,,,0,,,75,64
198097,note_on,,,,,17,0,1,,,0,,,71,44
198214,note_off,,,,,117,0,1,,,0,,,71,64
198227,note_on,,,,,13,0,1,,,0,,,76,59
198240,note_on,,,,,0,0,1,,,0,,,68,75
198240,note_off,,,,,13,0,1,,,0,,,45,64
198285,note_off,,,,,45,0,1,,,0,,,68,64
198300,note_on,,,,,15,0,1,,,0,,,69,75
198313,note_off,,,,,13,0,1,,,0,,,76,64
198324,note_on,,,,,11,0,1,,,0,,,71,56
198345,note_off,,,,,21,0,1,,,0,,,69,64
198360,note_on,,,,,15,0,1,,,0,,,68,75
198405,note_off,,,,,45,0,1,,,0,,,68,64
198439,note_off,,,,,34,0,1,,,0,,,71,64
198465,note_on,,,,,26,0,1,,,0,,,80,63
198480,note_on,,,,,15,0,1,,,0,,,66,54
198555,note_off,,,,,75,0,1,,,0,,,80,64
198558,note_on,,,,,3,0,1,,,0,,,71,52
198570,note_off,,,,,12,0,1,,,0,,,66,64
198600,note_on,,,,,30,0,1,,,0,,,64,53
198631,control_change,,,,,31,0,1,,,0,64,96,,
198651,control_change,,,,,20,0,1,,,0,64,64,,
198672,control_change,,,,,21,0,1,,,0,64,0,,
198685,note_off,,,,,13,0,1,,,0,,,71,64
198690,note_off,,,,,5,0,1,,,0,,,64,64
198704,note_on,,,,,14,0,1,,,0,,,83,67
198720,note_on,,,,,16,0,1,,,0,,,44,64
198755,control_change,,,,,35,0,1,,,0,64,64,,
198775,control_change,,,,,20,0,1,,,0,64,96,,
198802,note_on,,,,,27,0,1,,,0,,,71,41
198807,control_change,,,,,5,0,1,,,0,64,127,,
198812,note_off,,,,,5,0,1,,,0,,,83,64
198938,note_on,,,,,126,0,1,,,0,,,76,59
198948,note_off,,,,,10,0,1,,,0,,,71,64
199028,note_off,,,,,80,0,1,,,0,,,76,64
199054,note_on,,,,,26,0,1,,,0,,,71,59
199167,note_off,,,,,113,0,1,,,0,,,71,64
199180,note_on,,,,,13,0,1,,,0,,,78,68
199200,note_on,,,,,0,0,1,,,0,,,68,75
199200,note_off,,,,,20,0,1,,,0,,,44,64
199245,note_off,,,,,45,0,1,,,0,,,68,64
199260,note_on,,,,,15,0,1,,,0,,,69,75
199277,note_on,,,,,17,0,1,,,0,,,71,44
199288,note_off,,,,,11,0,1,,,0,,,78,64
199305,note_off,,,,,17,0,1,,,0,,,69,64
199320,note_on,,,,,15,0,1,,,0,,,68,75
199365,note_off,,,,,45,0,1,,,0,,,68,64
199405,note_off,,,,,40,0,1,,,0,,,71,64
199430,note_on,,,,,25,0,1,,,0,,,80,63
199440,note_on,,,,,10,0,1,,,0,,,66,54
199517,note_on,,,,,77,0,1,,,0,,,71,44
199527,note_off,,,,,10,0,1,,,0,,,80,64
199530,note_off,,,,,3,0,1,,,0,,,66,64
199560,note_on,,,,,30,0,1,,,0,,,64,53
199605,control_change,,,,,45,0,1,,,0,64,96,,
199625,control_change,,,,,20,0,1,,,0,64,0,,
199650,note_off,,,,,0,0,1,,,0,,,71,64
199650,note_off,,,,,25,0,1,,,0,,,64,64
199670,note_on,,,,,20,0,1,,,0,,,81,75
199680,note_on,,,,,10,0,1,,,0,,,42,59
199714,control_change,,,,,34,0,1,,,0,64,64,,
199734,control_change,,,,,20,0,1,,,0,64,96,,
199766,control_change,,,,,32,0,1,,,0,64,127,,
199787,note_on,,,,,21,0,1,,,0,,,71,50
199795,note_off,,,,,8,0,1,,,0,,,81,64
199925,note_off,,,,,130,0,1,,,0,,,71,64
199933,note_on,,,,,8,0,1,,,0,,,75,55
199996,note_off,,,,,63,0,1,,,0,,,75,64
200018,note_on,,,,,22,0,1,,,0,,,71,44
200145,note_off,,,,,127,0,1,,,0,,,71,64
200160,note_on,,,,,0,0,1,,,0,,,68,75
200160,note_off,,,,,15,0,1,,,0,,,42,64
200173,note_on,,,,,13,0,1,,,0,,,76,52
200205,note_off,,,,,32,0,1,,,0,,,68,64
200220,note_on,,,,,15,0,1,,,0,,,69,75
200244,note_off,,,,,24,0,1,,,0,,,76,64
200257,note_on,,,,,13,0,1,,,0,,,71,59
200265,note_off,,,,,8,0,1,,,0,,,69,64
200280,note_on,,,,,15,0,1,,,0,,,68,75
200325,note_off,,,,,45,0,1,,,0,,,68,64
200372,note_off,,,,,47,0,1,,,0,,,71,64
200389,note_on,,,,,17,0,1,,,0,,,78,68
200400,note_on,,,,,11,0,1,,,0,,,66,54
200469,note_off,,,,,69,0,1,,,0,,,78,64
200478,note_on,,,,,9,0,1,,,0,,,71,44
200490,note_off,,,,,12,0,1,,,0,,,66,64
200520,note_on,,,,,30,0,1,,,0,,,64,53
200560,note_off,,,,,40,0,1,,,0,,,71,64
200610,note_off,,,,,50,0,1,,,0,,,64,64
200633,control_change,,,,,23,0,1,,,0,64,96,,
200638,note_on,,,,,5,0,1,,,0,,,80,68
200640,note_on,,,,,2,0,1,,,0,,,40,68
200656,control_change,,,,,16,0,1,,,0,64,64,,
200682,control_change,,,,,26,0,1,,,0,64,0,,
200769,note_on,,,,,87,0,1,,,0,,,81,70
200804,note_off,,,,,35,0,1,,,0,,,80,64
200884,note_off,,,,,80,0,1,,,0,,,81,64
200910,note_on,,,,,26,0,1,,,0,,,83,59
201013,note_on,,,,,103,0,1,,,0,,,81,36
201029,note_off,,,,,16,0,1,,,0,,,83,64
201120,note_off,,,,,91,0,1,,,0,,,40,64
201143,note_on,,,,,23,0,1,,,0,,,80,58
201195,note_off,,,,,52,0,1,,,0,,,81,64
201264,note_on,,,,,69,0,1,,,0,,,78,58
201301,note_off,,,,,37,0,1,,,0,,,80,64
201360,note_on,,,,,59,0,1,,,0,,,56,67
201361,note_off,,,,,1,0,1,,,0,,,78,64
201376,note_on,,,,,15,0,1,,,0,,,76,52
201508,note_on,,,,,132,0,1,,,0,,,75,55
201519,note_off,,,,,11,0,1,,,0,,,76,64
201600,note_off,,,,,81,0,1,,,0,,,56,64
201600,note_on,,,,,0,0,1,,,0,,,45,49
201620,note_off,,,,,20,0,1,,,0,,,75,64
201640,note_on,,,,,20,0,1,,,0,,,73,58
201737,note_off,,,,,97,0,1,,,0,,,73,64
201769,note_on,,,,,32,0,1,,,0,,,76,56
201840,note_on,,,,,0,0,1,,,0,,,57,56
201840,note_off,,,,,71,0,1,,,0,,,45,64
201886,note_on,,,,,46,0,1,,,0,,,75,58
201916,note_off,,,,,30,0,1,,,0,,,76,64
202011,note_on,,,,,95,0,1,,,0,,,73,63
202068,note_off,,,,,57,0,1,,,0,,,75,64
202080,note_off,,,,,12,0,1,,,0,,,57,64
202080,note_on,,,,,0,0,1,,,0,,,59,63
202117,note_on,,,,,37,0,1,,,0,,,71,67
202154,note_off,,,,,37,0,1,,,0,,,73,64
202210,note_off,,,,,56,0,1,,,0,,,71,64
202227,note_on,,,,,17,0,1,,,0,,,69,62
202320,note_off,,,,,93,0,1,,,0,,,59,64
202320,note_on,,,,,0,0,1,,,0,,,47,56
202333,note_on,,,,,13,0,1,,,0,,,68,63
202346,note_off,,,,,13,0,1,,,0,,,69,64
202441,note_on,,,,,95,0,1,,,0,,,66,63
202467,note_off,,,,,26,0,1,,,0,,,68,64
202517,note_off,,,,,50,0,1,,,0,,,66,64
202560,note_on,,,,,0,0,1,,,0,,,71,80
202560,note_off,,,,,43,0,1,,,0,,,47,64
202560,note_on,,,,,0,0,1,,,0,,,80,80
202680,note_on,,,,,120,0,1,,,0,,,64,58
202770,note_off,,,,,90,0,1,,,0,,,64,64
202800,note_on,,,,,30,0,1,,,0,,,66,58
202890,note_off,,,,,90,0,1,,,0,,,66,64
202920,note_on,,,,,30,0,1,,,0,,,68,58
203010,note_off,,,,,90,0,1,,,0,,,68,64
203040,note_on,,,,,0,0,1,,,0,,,73,80
203040,note_off,,,,,0,0,1,,,0,,,80,64
203040,note_off,,,,,30,0,1,,,0,,,71,64
203040,note_on,,,,,0,0,1,,,0,,,69,59
203040,note_on,,,,,0,0,1,,,0,,,81,80
203130,note_off,,,,,90,0,1,,,0,,,69,64
203160,note_on,,,,,30,0,1,,,0,,,68,50
203250,note_off,,,,,90,0,1,,,0,,,68,64
203280,note_on,,,,,30,0,1,,,0,,,66,50
203370,note_off,,,,,90,0,1,,,0,,,66,64
203400,note_on,,,,,30,0,1,,,0,,,64,42
203490,note_off,,,,,90,0,1,,,0,,,64,64
203520,note_on,,,,,0,0,1,,,0,,,35,67
203520,note_off,,,,,30,0,1,,,0,,,73,64
203520,note_off,,,,,0,0,1,,,0,,,81,64
203520,note_on,,,,,0,0,1,,,0,,,71,47
203610,note_off,,,,,90,0,1,,,0,,,71,64
203640,note_on,,,,,30,0,1,,,0,,,81,62
203730,note_off,,,,,90,0,1,,,0,,,81,64
203760,note_on,,,,,30,0,1,,,0,,,80,63
203850,note_off,,,,,90,0,1,,,0,,,80,64
203880,note_off,,,,,30,0,1,,,0,,,35,64
203880,note_on,,,,,0,0,1,,,0,,,78,58
203970,note_off,,,,,90,0,1,,,0,,,78,64
204000,note_on,,,,,30,0,1,,,0,,,40,70
204000,note_on,,,,,0,0,1,,,0,,,80,58
204090,note_off,,,,,90,0,1,,,0,,,80,64
204120,note_on,,,,,30,0,1,,,0,,,78,50
204210,note_off,,,,,90,0,1,,,0,,,78,64
204240,note_on,,,,,30,0,1,,,0,,,76,56
204330,note_off,,,,,90,0,1,,,0,,,76,64
204360,note_off,,,,,30,0,1,,,0,,,40,64
204360,note_on,,,,,0,0,1,,,0,,,75,47
204450,note_off,,,,,90,0,1,,,0,,,75,64
204480,note_on,,,,,30,0,1,,,0,,,45,70
204480,note_on,,,,,0,0,1,,,0,,,73,63
204570,note_off,,,,,90,0,1,,,0,,,73,64
204600,note_on,,,,,30,0,1,,,0,,,75,63
204690,note_off,,,,,90,0,1,,,0,,,75,64
204720,note_on,,,,,30,0,1,,,0,,,76,59
204810,note_off,,,,,90,0,1,,,0,,,76,64
204840,note_off,,,,,30,0,1,,,0,,,45,64
204840,note_on,,,,,0,0,1,,,0,,,78,63
204930,note_off,,,,,90,0,1,,,0,,,78,64
204960,note_on,,,,,0,0,1,,,0,,,83,80
204960,note_on,,,,,30,0,1,,,0,,,47,70
204960,note_on,,,,,0,0,1,,,0,,,80,63
205050,note_off,,,,,90,0,1,,,0,,,80,64
205080,note_on,,,,,30,0,1,,,0,,,76,52
205170,note_off,,,,,90,0,1,,,0,,,76,64
205200,note_on,,,,,0,0,1,,,0,,,81,80
205200,note_off,,,,,30,0,1,,,0,,,83,64
205200,note_on,,,,,0,0,1,,,0,,,78,40
205290,note_off,,,,,90,0,1,,,0,,,78,64
205320,note_off,,,,,30,0,1,,,0,,,47,64
205320,note_on,,,,,0,0,1,,,0,,,75,55
205410,note_off,,,,,90,0,1,,,0,,,75,64
205440,note_on,,,,,0,0,1,,,0,,,80,50
205440,note_on,,,,,0,0,1,,,0,,,71,50
205440,note_off,,,,,30,0,1,,,0,,,81,64
205560,note_on,,,,,120,0,1,,,0,,,64,38
205650,note_off,,,,,90,0,1,,,0,,,64,64
205680,note_on,,,,,30,0,1,,,0,,,66,36
205770,note_off,,,,,90,0,1,,,0,,,66,64
205800,note_on,,,,,30,0,1,,,0,,,68,40
205890,note_off,,,,,90,0,1,,,0,,,68,64
205920,note_on,,,,,0,0,1,,,0,,,73,50
205920,note_off,,,,,0,0,1,,,0,,,80,64
205920,note_on,,,,,0,0,1,,,0,,,69,48
205920,note_on,,,,,0,0,1,,,0,,,81,50
205920,note_off,,,,,30,0,1,,,0,,,71,64
206010,note_off,,,,,90,0,1,,,0,,,69,64
206040,note_on,,,,,30,0,1,,,0,,,68,32
206130,note_off,,,,,90,0,1,,,0,,,68,64
206160,note_on,,,,,30,0,1,,,0,,,66,40
206250,note_off,,,,,90,0,1,,,0,,,66,64
206280,note_on,,,,,30,0,1,,,0,,,64,36
206370,note_off,,,,,90,0,1,,,0,,,64,64
206400,note_off,,,,,0,0,1,,,0,,,81,64
206400,note_on,,,,,0,0,1,,,0,,,35,70
206400,note_on,,,,,0,0,1,,,0,,,71,44
206400,note_off,,,,,30,0,1,,,0,,,73,64
206490,note_off,,,,,90,0,1,,,0,,,71,64
206520,note_on,,,,,30,0,1,,,0,,,81,49
206610,note_off,,,,,90,0,1,,,0,,,81,64
206640,note_on,,,,,30,0,1,,,0,,,80,44
206730,note_off,,,,,90,0,1,,,0,,,80,64
206760,note_off,,,,,30,0,1,,,0,,,35,64
206760,note_on,,,,,0,0,1,,,0,,,78,46
206850,note_off,,,,,90,0,1,,,0,,,78,64
206880,note_on,,,,,0,0,1,,,0,,,80,54
206880,note_on,,,,,30,0,1,,,0,,,40,75
206970,note_off,,,,,90,0,1,,,0,,,80,64
207000,note_on,,,,,30,0,1,,,0,,,78,44
207090,note_off,,,,,90,0,1,,,0,,,78,64
207120,note_on,,,,,30,0,1,,,0,,,76,37
207210,note_off,,,,,90,0,1,,,0,,,76,64
207240,note_on,,,,,0,0,1,,,0,,,75,40
207240,note_off,,,,,30,0,1,,,0,,,40,64
207330,note_off,,,,,90,0,1,,,0,,,75,64
207360,note_on,,,,,0,0,1,,,0,,,73,63
207360,note_on,,,,,30,0,1,,,0,,,45,67
207450,note_off,,,,,90,0,1,,,0,,,73,64
207480,note_on,,,,,30,0,1,,,0,,,75,59
207570,note_off,,,,,90,0,1,,,0,,,75,64
207600,note_on,,,,,30,0,1,,,0,,,76,59
207690,note_off,,,,,90,0,1,,,0,,,76,64
207720,note_off,,,,,30,0,1,,,0,,,45,64
207720,note_on,,,,,0,0,1,,,0,,,78,69
207810,note_off,,,,,90,0,1,,,0,,,78,64
207840,note_on,,,,,30,0,1,,,0,,,47,75
207840,note_on,,,,,0,0,1,,,0,,,80,69
207840,note_on,,,,,0,0,1,,,0,,,83,80
207930,note_off,,,,,90,0,1,,,0,,,80,64
207960,note_on,,,,,30,0,1,,,0,,,76,48
208050,note_off,,,,,90,0,1,,,0,,,76,64
208080,note_on,,,,,0,0,1,,,0,,,81,80
208080,note_on,,,,,0,0,1,,,0,,,78,50
208080,note_off,,,,,30,0,1,,,0,,,83,64
208170,note_off,,,,,90,0,1,,,0,,,78,64
208200,note_off,,,,,30,0,1,,,0,,,47,64
208200,note_on,,,,,0,0,1,,,0,,,75,55
208290,note_off,,,,,90,0,1,,,0,,,75,64
208320,note_off,,,,,30,0,1,,,0,,,81,64
208320,note_on,,,,,0,0,1,,,0,,,40,70
208320,note_on,,,,,0,0,1,,,0,,,76,64
208320,note_on,,,,,0,0,1,,,0,,,80,69
208410,note_off,,,,,0,0,1,,,0,,,76,64
208410,note_off,,,,,90,0,1,,,0,,,80,64
208440,note_on,,,,,30,0,1,,,0,,,76,64
208530,note_off,,,,,90,0,1,,,0,,,76,64
208560,note_on,,,,,30,0,1,,,0,,,71,64
208650,note_off,,,,,90,0,1,,,0,,,71,64
208680,note_off,,,,,30,0,1,,,0,,,40,64
208680,note_on,,,,,0,0,1,,,0,,,68,69
208770,note_off,,,,,90,0,1,,,0,,,68,64
208800,note_on,,,,,30,0,1,,,0,,,76,85
208890,note_off,,,,,90,0,1,,,0,,,76,64
208920,note_on,,,,,30,0,1,,,0,,,71,71
209010,note_off,,,,,90,0,1,,,0,,,71,64
209040,note_on,,,,,30,0,1,,,0,,,68,64
209130,note_off,,,,,90,0,1,,,0,,,68,64
209160,note_on,,,,,30,0,1,,,0,,,64,71
209250,note_off,,,,,90,0,1,,,0,,,64,64
209280,note_on,,,,,30,0,1,,,0,,,64,72
209370,note_off,,,,,90,0,1,,,0,,,64,64
209400,note_on,,,,,30,0,1,,,0,,,59,64
209490,note_off,,,,,90,0,1,,,0,,,59,64
209520,note_on,,,,,30,0,1,,,0,,,56,74
209610,note_off,,,,,90,0,1,,,0,,,56,64
209640,note_on,,,,,30,0,1,,,0,,,52,74
209730,note_off,,,,,90,0,1,,,0,,,52,64
209760,note_on,,,,,30,0,1,,,0,,,52,90
209850,note_off,,,,,90,0,1,,,0,,,52,64
209880,note_on,,,,,30,0,1,,,0,,,47,67
209970,note_off,,,,,90,0,1,,,0,,,47,64
210000,note_on,,,,,30,0,1,,,0,,,44,75
210090,note_off,,,,,90,0,1,,,0,,,44,64
210120,note_on,,,,,30,0,1,,,0,,,40,90
210210,note_off,,,,,90,0,1,,,0,,,40,64
210240,set_tempo,,,,,26880,1,0,500000,,,,,,
210240,note_on,,,,,30,0,1,,,0,,,40,80
210720,note_off,,,,,480,0,1,,,0,,,40,64
211200,note_on,,,,,480,0,1,,,0,,,44,68
211200,marker,,,,,0,1,0,,,,,,,
211200,set_tempo,,,,,960,1,0,250000,,,,,,
211200,note_on,,,,,0,0,1,,,0,,,56,62
211447,note_on,,,,,247,0,1,,,0,,,78,74
211557,note_on,,,,,110,0,1,,,0,,,73,80
211560,note_off,,,,,0,0,1,,,0,,,44,64
211560,note_off,,,,,3,0,1,,,0,,,56,64
211572,note_on,,,,,12,0,1,,,0,,,69,52
211581,note_off,,,,,9,0,1,,,0,,,78,64
211613,note_off,,,,,32,0,1,,,0,,,69,64
211630,note_off,,,,,17,0,1,,,0,,,73,64
211656,control_change,,,,,26,0,1,,,0,64,64,,
211680,control_change,,,,,24,0,1,,,0,64,96,,
211686,note_on,,,,,0,0,1,,,0,,,72,80
211686,note_on,,,,,6,0,1,,,0,,,68,68
211704,control_change,,,,,18,0,1,,,0,64,127,,
211926,note_off,,,,,222,0,1,,,0,,,72,64
211926,note_off,,,,,0,0,1,,,0,,,68,64
211926,note_on,,,,,0,0,1,,,0,,,78,68
212017,control_change,,,,,91,0,1,,,0,64,96,,
212032,control_change,,,,,15,0,1,,,0,64,64,,
212034,note_on,,,,,2,0,1,,,0,,,73,63
212034,note_on,,,,,0,0,1,,,0,,,69,50
212052,note_off,,,,,18,0,1,,,0,,,78,64
212052,control_change,,,,,0,0,1,,,0,64,0,,
212088,note_off,,,,,36,0,1,,,0,,,69,64
212106,note_off,,,,,18,0,1,,,0,,,73,64
212160,note_on,,,,,54,0,1,,,0,,,44,68
212160,note_on,,,,,0,0,1,,,0,,,56,62
212166,note_on,,,,,6,0,1,,,0,,,72,80
212166,note_on,,,,,0,0,1,,,0,,,68,74
212235,control_change,,,,,69,0,1,,,0,64,64,,
212250,control_change,,,,,15,0,1,,,0,64,96,,
212263,control_change,,,,,13,0,1,,,0,64,127,,
212406,note_off,,,,,0,0,1,,,0,,,72,64
212406,note_off,,,,,143,0,1,,,0,,,68,64
212419,note_on,,,,,13,0,1,,,0,,,78,68
212500,control_change,,,,,81,0,1,,,0,64,96,,
212516,control_change,,,,,16,0,1,,,0,64,0,,
212518,note_on,,,,,2,0,1,,,0,,,73,68
212520,note_off,,,,,2,0,1,,,0,,,56,64
212520,note_off,,,,,0,0,1,,,0,,,44,64
212533,note_off,,,,,13,0,1,,,0,,,78,64
212535,note_on,,,,,2,0,1,,,0,,,69,50
212585,note_off,,,,,50,0,1,,,0,,,69,64
212602,note_off,,,,,17,0,1,,,0,,,73,64
212648,control_change,,,,,46,0,1,,,0,64,64,,
212665,control_change,,,,,17,0,1,,,0,64,127,,
212665,note_on,,,,,0,0,1,,,0,,,68,68
212676,note_on,,,,,11,0,1,,,0,,,72,67
212905,note_off,,,,,229,0,1,,,0,,,68,64
212916,note_off,,,,,11,0,1,,,0,,,72,64
212926,note_on,,,,,10,0,1,,,0,,,78,58
212963,control_change,,,,,37,0,1,,,0,64,96,,
212978,control_change,,,,,15,0,1,,,0,64,0,,
213024,note_on,,,,,46,0,1,,,0,,,73,74
213034,note_on,,,,,10,0,1,,,0,,,69,56
213052,note_off,,,,,18,0,1,,,0,,,78,64
213084,note_off,,,,,32,0,1,,,0,,,69,64
213116,note_off,,,,,32,0,1,,,0,,,73,64
213120,note_on,,,,,4,0,1,,,0,,,44,68
213120,note_on,,,,,0,0,1,,,0,,,56,62
213149,control_change,,,,,29,0,1,,,0,64,96,,
213164,note_on,,,,,0,0,1,,,0,,,68,74
213164,control_change,,,,,15,0,1,,,0,64,127,,
213166,note_on,,,,,2,0,1,,,0,,,72,70
213384,control_change,,,,,218,0,1,,,0,64,96,,
213399,note_on,,,,,15,0,1,,,0,,,78,74
213400,control_change,,,,,1,0,1,,,0,64,64,,
213404,note_off,,,,,4,0,1,,,0,,,68,64
213406,note_off,,,,,2,0,1,,,0,,,72,64
213423,control_change,,,,,17,0,1,,,0,64,0,,
213480,note_off,,,,,57,0,1,,,0,,,56,64
213480,note_off,,,,,0,0,1,,,0,,,44,64
213505,note_on,,,,,25,0,1,,,0,,,69,70
213520,note_off,,,,,15,0,1,,,0,,,78,64
213559,note_off,,,,,39,0,1,,,0,,,69,64
213637,note_on,,,,,78,0,1,,,0,,,68,74
213708,note_off,,,,,71,0,1,,,0,,,68,64
213756,note_on,,,,,48,0,1,,,0,,,76,62
213814,note_off,,,,,58,0,1,,,0,,,76,64
213870,note_on,,,,,56,0,1,,,0,,,66,68
213920,control_change,,,,,50,0,1,,,0,64,64,,
213937,control_change,,,,,17,0,1,,,0,64,96,,
213950,control_change,,,,,13,0,1,,,0,64,127,,
213974,note_on,,,,,24,0,1,,,0,,,75,68
214080,note_on,,,,,0,0,1,,,0,,,56,62
214080,note_on,,,,,106,0,1,,,0,,,44,68
214250,note_off,,,,,170,0,1,,,0,,,75,64
214254,note_off,,,,,4,0,1,,,0,,,66,64
214333,control_change,,,,,79,0,1,,,0,64,96,,
214348,control_change,,,,,15,0,1,,,0,64,0,,
214348,note_on,,,,,0,0,1,,,0,,,76,70
214440,note_off,,,,,0,0,1,,,0,,,44,64
214440,note_off,,,,,92,0,1,,,0,,,56,64
214447,note_on,,,,,7,0,1,,,0,,,68,74
214460,note_off,,,,,13,0,1,,,0,,,76,64
214518,note_off,,,,,58,0,1,,,0,,,68,64
214581,note_on,,,,,63,0,1,,,0,,,66,80
214674,note_off,,,,,93,0,1,,,0,,,66,64
214687,note_on,,,,,13,0,1,,,0,,,75,68
214728,control_change,,,,,41,0,1,,,0,64,64,,
214769,note_off,,,,,41,0,1,,,0,,,75,64
214782,control_change,,,,,13,0,1,,,0,64,96,,
214806,control_change,,,,,24,0,1,,,0,64,127,,
214816,note_on,,,,,10,0,1,,,0,,,64,60
214916,note_on,,,,,100,0,1,,,0,,,73,68
215040,note_on,,,,,124,0,1,,,0,,,44,68
215040,note_on,,,,,0,0,1,,,0,,,56,62
215188,note_off,,,,,148,0,1,,,0,,,64,64
215192,note_off,,,,,4,0,1,,,0,,,73,64
215231,control_change,,,,,39,0,1,,,0,64,96,,
215244,control_change,,,,,13,0,1,,,0,64,64,,
215259,control_change,,,,,15,0,1,,,0,64,0,,
215283,note_on,,,,,24,0,1,,,0,,,75,68
215387,note_on,,,,,104,0,1,,,0,,,66,63
215395,note_off,,,,,8,0,1,,,0,,,75,64
215400,note_off,,,,,5,0,1,,,0,,,56,64
215400,note_off,,,,,0,0,1,,,0,,,44,64
215458,note_off,,,,,58,0,1,,,0,,,66,64
215544,note_on,,,,,86,0,1,,,0,,,64,60
215624,note_off,,,,,80,0,1,,,0,,,64,64
215654,note_on,,,,,30,0,1,,,0,,,73,68
215724,note_off,,,,,70,0,1,,,0,,,73,64
215771,note_on,,,,,47,0,1,,,0,,,63,74
215881,note_on,,,,,110,0,1,,,0,,,72,67
215890,note_off,,,,,9,0,1,,,0,,,63,64
215937,note_off,,,,,47,0,1,,,0,,,72,64
216026,note_on,,,,,0,0,1,,,0,,,37,74
216026,note_on,,,,,89,0,1,,,0,,,73,86
216050,control_change,,,,,24,0,1,,,0,64,64,,
216082,control_change,,,,,32,0,1,,,0,64,96,,
216104,control_change,,,,,22,0,1,,,0,64,127,,
216156,note_on,,,,,52,0,1,,,0,,,68,68
216179,note_off,,,,,23,0,1,,,0,,,73,64
216264,note_off,,,,,85,0,1,,,0,,,68,64
216264,note_on,,,,,0,0,1,,,0,,,64,60
216335,note_off,,,,,71,0,1,,,0,,,64,64
216387,note_on,,,,,52,0,1,,,0,,,61,62
216512,note_on,,,,,125,0,1,,,0,,,56,72
216527,note_off,,,,,15,0,1,,,0,,,61,64
216590,note_off,,,,,63,0,1,,,0,,,37,64
216635,note_on,,,,,45,0,1,,,0,,,52,75
216654,note_off,,,,,19,0,1,,,0,,,56,64
216700,note_off,,,,,46,0,1,,,0,,,52,64
216765,note_on,,,,,65,0,1,,,0,,,49,58
216873,note_on,,,,,108,0,1,,,0,,,44,74
216901,note_off,,,,,28,0,1,,,0,,,49,64
216960,set_tempo,,,,,5760,1,0,500000,,,,,,
217007,control_change,,,,,106,0,1,,,0,64,96,,
217015,note_on,,,,,0,0,1,,,0,,,37,86
217015,note_off,,,,,8,0,1,,,0,,,44,64
217024,control_change,,,,,9,0,1,,,0,64,0,,
217657,note_off,,,,,633,0,1,,,0,,,37,64
217920,set_tempo,,,,,960,1,0,250000,,,,,,
217920,end_of_track,,,,,0,1,0,,,,,,,
217920,note_on,,,,,0,0,1,,,0,,,54,55
217920,note_on,,,,,263,0,1,,,0,,,42,58
218167,note_on,,,,,247,0,1,,,0,,,76,59
218254,note_on,,,,,87,0,1,,,0,,,71,56
218262,note_on,,,,,8,0,1,,,0,,,67,52
218273,note_off,,,,,11,0,1,,,0,,,76,64
218280,note_off,,,,,0,0,1,,,0,,,42,64
218280,note_off,,,,,7,0,1,,,0,,,54,64
218310,note_off,,,,,30,0,1,,,0,,,67,64
218310,note_off,,,,,0,0,1,,,0,,,71,64
218385,control_change,,,,,75,0,1,,,0,64,64,,
218388,note_on,,,,,3,0,1,,,0,,,70,68
218398,note_on,,,,,10,0,1,,,0,,,66,50
218404,control_change,,,,,6,0,1,,,0,64,96,,
218422,control_change,,,,,18,0,1,,,0,64,127,,
218628,note_off,,,,,206,0,1,,,0,,,70,64
218634,note_on,,,,,6,0,1,,,0,,,76,70
218638,note_off,,,,,4,0,1,,,0,,,66,64
218674,control_change,,,,,36,0,1,,,0,64,96,,
218687,control_change,,,,,13,0,1,,,0,64,64,,
218702,control_change,,,,,15,0,1,,,0,64,0,,
218718,note_on,,,,,16,0,1,,,0,,,71,67
218729,note_off,,,,,11,0,1,,,0,,,76,64
218729,note_on,,,,,0,0,1,,,0,,,67,44
218772,note_off,,,,,43,0,1,,,0,,,67,64
218785,note_off,,,,,13,0,1,,,0,,,71,64
218854,control_change,,,,,69,0,1,,,0,64,64,,
218856,note_on,,,,,2,0,1,,,0,,,66,80
218856,note_on,,,,,0,0,1,,,0,,,70,80
218880,control_change,,,,,24,0,1,,,0,64,96,,
218880,note_on,,,,,0,0,1,,,0,,,42,58
218880,note_on,,,,,0,0,1,,,0,,,54,55
218901,control_change,,,,,21,0,1,,,0,64,127,,
219096,note_off,,,,,195,0,1,,,0,,,70,64
219096,note_on,,,,,0,0,1,,,0,,,76,70
219096,note_off,,,,,0,0,1,,,0,,,66,64
219134,control_change,,,,,38,0,1,,,0,64,96,,
219150,control_change,,,,,16,0,1,,,0,64,64,,
219165,control_change,,,,,15,0,1,,,0,64,0,,
219202,note_on,,,,,0,0,1,,,0,,,71,59
219202,note_off,,,,,37,0,1,,,0,,,76,64
219202,note_on,,,,,0,0,1,,,0,,,67,39
219240,note_off,,,,,0,0,1,,,0,,,42,64
219240,note_off,,,,,38,0,1,,,0,,,54,64
219252,note_off,,,,,12,0,1,,,0,,,67,64
219262,note_off,,,,,10,0,1,,,0,,,71,64
219320,control_change,,,,,58,0,1,,,0,64,64,,
219337,control_change,,,,,17,0,1,,,0,64,96,,
219340,note_on,,,,,3,0,1,,,0,,,66,74
219342,note_on,,,,,2,0,1,,,0,,,70,74
219359,control_change,,,,,17,0,1,,,0,64,127,,
219580,note_off,,,,,221,0,1,,,0,,,66,64
219582,note_off,,,,,2,0,1,,,0,,,70,64
219586,note_on,,,,,4,0,1,,,0,,,76,70
219610,control_change,,,,,24,0,1,,,0,64,96,,
219627,control_change,,,,,17,0,1,,,0,64,0,,
219673,note_on,,,,,46,0,1,,,0,,,71,67
219690,note_off,,,,,17,0,1,,,0,,,76,64
219690,note_on,,,,,0,0,1,,,0,,,67,25
219729,note_off,,,,,39,0,1,,,0,,,67,64
219742,note_off,,,,,13,0,1,,,0,,,71,64
219767,control_change,,,,,25,0,1,,,0,64,64,,
219782,control_change,,,,,15,0,1,,,0,64,96,,
219798,control_change,,,,,16,0,1,,,0,64,127,,
219813,note_on,,,,,15,0,1,,,0,,,70,74
219824,note_on,,,,,11,0,1,,,0,,,66,74
219840,note_on,,,,,0,0,1,,,0,,,54,55
219840,note_on,,,,,16,0,1,,,0,,,42,58
220053,note_off,,,,,213,0,1,,,0,,,70,64
220057,note_on,,,,,4,0,1,,,0,,,76,70
220064,note_off,,,,,7,0,1,,,0,,,66,64
220109,control_change,,,,,45,0,1,,,0,64,96,,
220124,control_change,,,,,15,0,1,,,0,64,0,,
220163,note_on,,,,,39,0,1,,,0,,,67,62
220176,note_off,,,,,13,0,1,,,0,,,76,64
220200,note_off,,,,,0,0,1,,,0,,,42,64
220200,note_off,,,,,24,0,1,,,0,,,54,64
220224,note_off,,,,,24,0,1,,,0,,,67,64
220295,note_on,,,,,71,0,1,,,0,,,66,74
220368,note_off,,,,,73,0,1,,,0,,,66,64
220394,note_on,,,,,26,0,1,,,0,,,74,67
220457,note_off,,,,,63,0,1,,,0,,,74,64
220515,note_on,,,,,58,0,1,,,0,,,64,75
220575,control_change,,,,,60,0,1,,,0,64,64,,
220590,control_change,,,,,15,0,1,,,0,64,96,,
220603,control_change,,,,,13,0,1,,,0,64,127,,
220625,note_on,,,,,22,0,1,,,0,,,73,74
220800,note_on,,,,,0,0,1,,,0,,,54,55
220800,note_on,,,,,175,0,1,,,0,,,42,58
220913,note_off,,,,,113,0,1,,,0,,,73,64
220947,note_off,,,,,34,0,1,,,0,,,64,64
221003,note_on,,,,,56,0,1,,,0,,,74,62
221029,control_change,,,,,26,0,1,,,0,64,96,,
221042,control_change,,,,,13,0,1,,,0,64,64,,
221057,control_change,,,,,15,0,1,,,0,64,0,,
221103,note_on,,,,,46,0,1,,,0,,,66,74
221111,note_off,,,,,8,0,1,,,0,,,74,64
221157,note_off,,,,,46,0,1,,,0,,,66,64
221160,note_off,,,,,0,0,1,,,0,,,42,64
221160,note_off,,,,,3,0,1,,,0,,,54,64
221232,note_on,,,,,72,0,1,,,0,,,64,75
221299,note_off,,,,,67,0,1,,,0,,,64,64
221336,note_on,,,,,37,0,1,,,0,,,73,68
221405,note_off,,,,,69,0,1,,,0,,,73,64
221409,control_change,,,,,4,0,1,,,0,64,64,,
221426,control_change,,,,,17,0,1,,,0,64,96,,
221461,note_on,,,,,35,0,1,,,0,,,62,75
221500,control_change,,,,,39,0,1,,,0,64,127,,
221578,note_on,,,,,78,0,1,,,0,,,71,75
221760,note_on,,,,,182,0,1,,,0,,,42,58
221760,note_on,,,,,0,0,1,,,0,,,54,55
221845,note_off,,,,,85,0,1,,,0,,,62,64
221866,note_off,,,,,21,0,1,,,0,,,71,64
221932,control_change,,,,,66,0,1,,,0,64,96,,
221936,note_on,,,,,4,0,1,,,0,,,73,68
221945,control_change,,,,,9,0,1,,,0,64,64,,
221964,control_change,,,,,19,0,1,,,0,64,0,,
222029,note_off,,,,,65,0,1,,,0,,,73,64
222051,note_on,,,,,22,0,1,,,0,,,64,52
222103,note_off,,,,,52,0,1,,,0,,,64,64
222120,note_off,,,,,0,0,1,,,0,,,42,64
222120,note_off,,,,,17,0,1,,,0,,,54,64
222174,note_on,,,,,54,0,1,,,0,,,62,80
222267,note_off,,,,,93,0,1,,,0,,,62,64
222273,note_on,,,,,6,0,1,,,0,,,71,67
222351,note_off,,,,,78,0,1,,,0,,,71,64
222401,note_on,,,,,50,0,1,,,0,,,61,72
222489,note_off,,,,,88,0,1,,,0,,,61,64
222496,note_on,,,,,7,0,1,,,0,,,70,55
222569,note_off,,,,,73,0,1,,,0,,,70,64
222645,note_on,,,,,76,0,1,,,0,,,71,70
222653,control_change,,,,,8,0,1,,,0,64,64,,
222669,control_change,,,,,16,0,1,,,0,64,127,,
222669,note_on,,,,,0,0,1,,,0,,,35,62
222783,note_on,,,,,114,0,1,,,0,,,66,58
222818,note_off,,,,,35,0,1,,,0,,,71,64
222885,note_on,,,,,67,0,1,,,0,,,62,62
222904,note_off,,,,,19,0,1,,,0,,,66,64
222977,note_off,,,,,73,0,1,,,0,,,62,64
222988,note_on,,,,,11,0,1,,,0,,,59,66
223064,note_off,,,,,76,0,1,,,0,,,59,64
223114,note_on,,,,,50,0,1,,,0,,,54,58
223204,note_on,,,,,90,0,1,,,0,,,50,67
223213,note_off,,,,,9,0,1,,,0,,,54,64
223213,note_off,,,,,0,0,1,,,0,,,35,64
223314,note_off,,,,,101,0,1,,,0,,,50,64
223330,note_on,,,,,16,0,1,,,0,,,47,75
223384,note_off,,,,,54,0,1,,,0,,,47,64
223453,note_on,,,,,69,0,1,,,0,,,42,80
223565,note_off,,,,,112,0,1,,,0,,,42,64
223572,note_on,,,,,7,0,1,,,0,,,35,70
223603,control_change,,,,,31,0,1,,,0,64,96,,
223619,control_change,,,,,16,0,1,,,0,64,0,,
224148,note_off,,,,,529,0,1,,,0,,,35,64
224360,note_on,,,,,212,0,1,,,0,,,74,62
224400,note_on,,,,,0,0,1,,,0,,,62,36
224400,note_on,,,,,40,0,1,,,0,,,59,54
224470,note_on,,,,,70,0,1,,,0,,,71,47
224537,note_off,,,,,67,0,1,,,0,,,74,64
224580,note_off,,,,,43,0,1,,,0,,,62,64
224580,note_off,,,,,0,0,1,,,0,,,59,64
224595,note_off,,,,,15,0,1,,,0,,,71,64
224623,note_on,,,,,28,0,1,,,0,,,77,67
224640,note_on,,,,,0,0,1,,,0,,,62,29
224640,note_on,,,,,17,0,1,,,0,,,59,32
224730,note_off,,,,,0,0,1,,,0,,,59,64
224730,note_off,,,,,90,0,1,,,0,,,62,64
224880,note_on,,,,,150,0,1,,,0,,,57,33
224880,note_on,,,,,0,0,1,,,0,,,61,36
224882,note_on,,,,,2,0,1,,,0,,,78,55
224904,note_off,,,,,22,0,1,,,0,,,77,64
224970,note_off,,,,,0,0,1,,,0,,,57,64
224970,note_off,,,,,66,0,1,,,0,,,61,64
225120,note_on,,,,,150,0,1,,,0,,,62,24
225120,note_on,,,,,0,0,1,,,0,,,59,36
225210,note_off,,,,,90,0,1,,,0,,,59,64
225210,note_off,,,,,0,0,1,,,0,,,62,64
225326,note_off,,,,,116,0,1,,,0,,,78,64
225360,note_on,,,,,34,0,1,,,0,,,59,38
225360,note_on,,,,,0,0,1,,,0,,,62,25
225361,note_on,,,,,1,0,1,,,0,,,74,70
225450,note_off,,,,,0,0,1,,,0,,,59,64
225450,note_off,,,,,89,0,1,,,0,,,62,64
225468,note_off,,,,,18,0,1,,,0,,,74,64
225474,note_on,,,,,6,0,1,,,0,,,71,59
225584,note_off,,,,,110,0,1,,,0,,,71,64
225600,note_on,,,,,0,0,1,,,0,,,61,31
225600,note_on,,,,,16,0,1,,,0,,,59,32
225615,note_on,,,,,15,0,1,,,0,,,72,50
225690,note_off,,,,,0,0,1,,,0,,,59,64
225690,note_off,,,,,75,0,1,,,0,,,61,64
225840,note_on,,,,,0,0,1,,,0,,,61,40
225840,note_on,,,,,150,0,1,,,0,,,57,37
225854,note_on,,,,,14,0,1,,,0,,,73,47
225887,note_off,,,,,33,0,1,,,0,,,72,64
225930,note_off,,,,,0,0,1,,,0,,,57,64
225930,note_off,,,,,43,0,1,,,0,,,61,64
226080,note_on,,,,,0,0,1,,,0,,,62,33
226080,note_on,,,,,150,0,1,,,0,,,59,30
226170,note_off,,,,,0,0,1,,,0,,,59,64
226170,note_off,,,,,90,0,1,,,0,,,62,64
226238,note_off,,,,,68,0,1,,,0,,,73,64
226320,note_on,,,,,0,0,1,,,0,,,59,38
226320,note_on,,,,,82,0,1,,,0,,,62,27
226332,note_on,,,,,12,0,1,,,0,,,74,67
226410,note_off,,,,,78,0,1,,,0,,,59,64
226410,note_off,,,,,0,0,1,,,0,,,62,64
226435,note_on,,,,,25,0,1,,,0,,,71,50
226492,note_off,,,,,57,0,1,,,0,,,74,64
226546,note_on,,,,,54,0,1,,,0,,,77,70
226556,note_off,,,,,10,0,1,,,0,,,71,64
226560,note_on,,,,,0,0,1,,,0,,,62,24
226560,note_on,,,,,4,0,1,,,0,,,59,32
226650,note_off,,,,,0,0,1,,,0,,,59,64
226650,note_off,,,,,90,0,1,,,0,,,62,64
226800,note_on,,,,,0,0,1,,,0,,,61,33
226800,note_on,,,,,150,0,1,,,0,,,57,27
226816,note_on,,,,,16,0,1,,,0,,,78,47
226837,note_off,,,,,21,0,1,,,0,,,77,64
226890,note_off,,,,,0,0,1,,,0,,,57,64
226890,note_off,,,,,53,0,1,,,0,,,61,64
227040,note_on,,,,,0,0,1,,,0,,,61,33
227040,note_on,,,,,150,0,1,,,0,,,57,24
227130,note_off,,,,,0,0,1,,,0,,,57,64
227130,note_off,,,,,90,0,1,,,0,,,61,64
227140,note_off,,,,,10,0,1,,,0,,,78,64
227267,note_on,,,,,127,0,1,,,0,,,81,67
227278,note_on,,,,,11,0,1,,,0,,,72,36
227280,note_on,,,,,0,0,1,,,0,,,64,35
227280,note_on,,,,,2,0,1,,,0,,,57,29
227310,note_off,,,,,30,0,1,,,0,,,72,64
227370,note_off,,,,,0,0,1,,,0,,,57,64
227370,note_off,,,,,60,0,1,,,0,,,64,64
227384,note_on,,,,,14,0,1,,,0,,,71,70
227438,note_off,,,,,54,0,1,,,0,,,71,64
227459,note_off,,,,,21,0,1,,,0,,,81,64
227496,note_on,,,,,37,0,1,,,0,,,75,47
227507,note_on,,,,,11,0,1,,,0,,,84,50
227520,note_on,,,,,0,0,1,,,0,,,63,26
227520,note_on,,,,,13,0,1,,,0,,,57,19
227520,note_on,,,,,0,0,1,,,0,,,59,38
227610,note_off,,,,,0,0,1,,,0,,,57,64
227610,note_off,,,,,90,0,1,,,0,,,59,64
227610,note_off,,,,,0,0,1,,,0,,,63,64
227760,note_on,,,,,150,0,1,,,0,,,64,33
227760,note_on,,,,,0,0,1,,,0,,,59,36
227760,note_on,,,,,0,0,1,,,0,,,55,37
227762,note_on,,,,,2,0,1,,,0,,,76,50
227781,note_off,,,,,19,0,1,,,0,,,75,64
227783,note_off,,,,,2,0,1,,,0,,,84,64
227850,note_off,,,,,67,0,1,,,0,,,55,64
227850,note_off,,,,,0,0,1,,,0,,,59,64
227850,note_off,,,,,0,0,1,,,0,,,64,64
228000,note_on,,,,,150,0,1,,,0,,,57,25
228000,note_on,,,,,0,0,1,,,0,,,60,35
228000,note_on,,,,,0,0,1,,,0,,,64,29
228090,note_off,,,,,90,0,1,,,0,,,64,64
228090,note_off,,,,,0,0,1,,,0,,,60,64
228090,note_off,,,,,0,0,1,,,0,,,57,64
228110,note_off,,,,,20,0,1,,,0,,,76,64
228226,note_on,,,,,116,0,1,,,0,,,72,70
228240,note_on,,,,,14,0,1,,,0,,,57,25
228240,note_on,,,,,0,0,1,,,0,,,60,35
228240,note_on,,,,,0,0,1,,,0,,,64,33
228325,note_off,,,,,85,0,1,,,0,,,72,64
228330,note_off,,,,,0,0,1,,,0,,,57,64
228330,note_off,,,,,5,0,1,,,0,,,64,64
228330,note_off,,,,,0,0,1,,,0,,,60,64
228336,note_on,,,,,6,0,1,,,0,,,69,62
228440,note_off,,,,,104,0,1,,,0,,,69,64
228480,note_on,,,,,0,0,1,,,0,,,57,25
228480,note_on,,,,,0,0,1,,,0,,,59,43
228480,note_on,,,,,0,0,1,,,0,,,70,55
228480,note_on,,,,,40,0,1,,,0,,,63,47
228600,note_off,,,,,0,0,1,,,0,,,63,64
228600,note_off,,,,,0,0,1,,,0,,,59,64
228600,note_off,,,,,120,0,1,,,0,,,57,64
228708,note_on,,,,,108,0,1,,,0,,,71,62
228720,note_on,,,,,0,0,1,,,0,,,64,40
228720,note_off,,,,,12,0,1,,,0,,,70,64
228720,note_on,,,,,0,0,1,,,0,,,59,45
228720,note_on,,,,,0,0,1,,,0,,,55,41
228840,note_off,,,,,120,0,1,,,0,,,59,64
228840,note_off,,,,,0,0,1,,,0,,,55,64
228840,note_off,,,,,0,0,1,,,0,,,64,64
228960,note_on,,,,,120,0,1,,,0,,,60,41
228960,note_on,,,,,0,0,1,,,0,,,57,32
228960,note_on,,,,,0,0,1,,,0,,,64,33
229080,note_off,,,,,0,0,1,,,0,,,57,64
229080,note_off,,,,,120,0,1,,,0,,,64,64
229080,note_off,,,,,0,0,1,,,0,,,60,64
229092,note_off,,,,,12,0,1,,,0,,,71,64
229183,note_on,,,,,91,0,1,,,0,,,72,67
229200,note_on,,,,,17,0,1,,,0,,,64,34
229200,note_on,,,,,0,0,1,,,0,,,81,44
229200,note_on,,,,,0,0,1,,,0,,,60,41
229200,note_on,,,,,0,0,1,,,0,,,57,32
229230,note_off,,,,,30,0,1,,,0,,,72,64
229300,note_on,,,,,70,0,1,,,0,,,71,67
229320,note_off,,,,,0,0,1,,,0,,,64,64
229320,note_off,,,,,0,0,1,,,0,,,60,64
229320,note_off,,,,,20,0,1,,,0,,,57,64
229364,note_off,,,,,44,0,1,,,0,,,71,64
229418,note_on,,,,,54,0,1,,,0,,,75,80
229440,note_on,,,,,0,0,1,,,0,,,59,40
229440,note_on,,,,,0,0,1,,,0,,,57,39
229440,note_on,,,,,0,0,1,,,0,,,83,70
229440,note_off,,,,,22,0,1,,,0,,,81,64
229440,note_on,,,,,0,0,1,,,0,,,63,44
229560,note_off,,,,,120,0,1,,,0,,,59,64
229560,note_off,,,,,0,0,1,,,0,,,63,64
229560,note_off,,,,,0,0,1,,,0,,,57,64
229652,note_on,,,,,92,0,1,,,0,,,76,67
229680,note_on,,,,,0,0,1,,,0,,,59,51
229680,note_on,,,,,0,0,1,,,0,,,55,39
229680,note_on,,,,,28,0,1,,,0,,,64,49
229686,note_off,,,,,6,0,1,,,0,,,75,64
229800,note_off,,,,,114,0,1,,,0,,,59,64
229800,note_off,,,,,0,0,1,,,0,,,55,64
229800,note_off,,,,,0,0,1,,,0,,,64,64
229920,note_on,,,,,120,0,1,,,0,,,64,37
229920,note_on,,,,,0,0,1,,,0,,,55,39
229920,note_on,,,,,0,0,1,,,0,,,59,43
230004,note_off,,,,,84,0,1,,,0,,,83,64
230040,note_off,,,,,0,0,1,,,0,,,64,64
230040,note_off,,,,,0,0,1,,,0,,,59,64
230040,note_off,,,,,36,0,1,,,0,,,55,64
230048,note_off,,,,,8,0,1,,,0,,,76,64
230131,note_on,,,,,83,0,1,,,0,,,83,70
230142,note_on,,,,,11,0,1,,,0,,,71,62
230160,note_on,,,,,0,0,1,,,0,,,59,45
230160,note_on,,,,,0,0,1,,,0,,,55,41
230160,note_on,,,,,18,0,1,,,0,,,64,40
230280,note_off,,,,,0,0,1,,,0,,,64,64
230280,note_off,,,,,0,0,1,,,0,,,55,64
230280,note_off,,,,,120,0,1,,,0,,,59,64
230400,note_on,,,,,0,0,1,,,0,,,53,40
230400,note_on,,,,,0,0,1,,,0,,,64,34
230400,note_on,,,,,120,0,1,,,0,,,57,39
230526,note_off,,,,,126,0,1,,,0,,,71,64
230539,note_off,,,,,13,0,1,,,0,,,83,64
230626,note_on,,,,,87,0,1,,,0,,,84,70
230643,note_on,,,,,17,0,1,,,0,,,72,50
230866,note_off,,,,,223,0,1,,,0,,,84,64
230866,note_on,,,,,0,0,1,,,0,,,68,63
230868,note_on,,,,,2,0,1,,,0,,,80,74
230883,note_off,,,,,15,0,1,,,0,,,72,64
231097,note_on,,,,,214,0,1,,,0,,,81,67
231097,note_on,,,,,0,0,1,,,0,,,69,62
231106,note_off,,,,,9,0,1,,,0,,,68,64
231108,note_off,,,,,2,0,1,,,0,,,80,64
231120,note_off,,,,,12,0,1,,,0,,,53,64
231120,note_off,,,,,0,0,1,,,0,,,64,64
231120,note_off,,,,,0,0,1,,,0,,,57,64
231120,note_on,,,,,0,0,1,,,0,,,53,43
231120,note_on,,,,,0,0,1,,,0,,,57,52
231120,note_on,,,,,0,0,1,,,0,,,62,44
231317,note_on,,,,,197,0,1,,,0,,,71,52
231337,note_off,,,,,20,0,1,,,0,,,69,64
231337,note_off,,,,,0,0,1,,,0,,,81,64
231360,note_off,,,,,0,0,1,,,0,,,53,64
231360,note_on,,,,,0,0,1,,,0,,,52,47
231360,note_on,,,,,0,0,1,,,0,,,64,39
231360,note_on,,,,,0,0,1,,,0,,,59,54
231360,note_off,,,,,0,0,1,,,0,,,57,64
231360,note_off,,,,,23,0,1,,,0,,,62,64
231386,note_off,,,,,26,0,1,,,0,,,71,64
231386,note_on,,,,,0,0,1,,,0,,,83,80
231505,note_on,,,,,119,0,1,,,0,,,81,50
231518,note_off,,,,,13,0,1,,,0,,,83,64
231622,note_on,,,,,104,0,1,,,0,,,80,63
231695,note_off,,,,,73,0,1,,,0,,,81,64
231747,note_on,,,,,52,0,1,,,0,,,77,62
231779,note_off,,,,,32,0,1,,,0,,,80,64
231855,note_on,,,,,0,0,1,,,0,,,76,62
231855,note_off,,,,,76,0,1,,,0,,,77,64
231972,note_on,,,,,117,0,1,,,0,,,74,56
231989,note_off,,,,,17,0,1,,,0,,,76,64
232080,note_off,,,,,0,0,1,,,0,,,64,64
232080,note_off,,,,,91,0,1,,,0,,,59,64
232080,note_off,,,,,0,0,1,,,0,,,52,64
232080,note_on,,,,,0,0,1,,,0,,,64,34
232080,note_on,,,,,0,0,1,,,0,,,52,41
232080,note_on,,,,,0,0,1,,,0,,,59,54
232101,note_on,,,,,21,0,1,,,0,,,72,59
232112,note_off,,,,,11,0,1,,,0,,,74,64
232177,note_off,,,,,65,0,1,,,0,,,72,64
232209,note_on,,,,,32,0,1,,,0,,,71,47
232272,note_off,,,,,63,0,1,,,0,,,71,64
232320,note_on,,,,,0,0,1,,,0,,,64,37
232320,note_on,,,,,0,0,1,,,0,,,53,40
232320,note_on,,,,,0,0,1,,,0,,,57,41
232320,note_off,,,,,0,0,1,,,0,,,64,64
232320,note_off,,,,,0,0,1,,,0,,,52,64
232320,note_off,,,,,48,0,1,,,0,,,59,64
232332,note_on,,,,,12,0,1,,,0,,,71,56
232332,note_on,,,,,0,0,1,,,0,,,83,52
232560,note_on,,,,,0,0,1,,,0,,,62,41
232560,note_off,,,,,0,0,1,,,0,,,57,64
232560,note_off,,,,,0,0,1,,,0,,,53,64
232560,note_off,,,,,228,0,1,,,0,,,64,64
232572,note_off,,,,,0,0,1,,,0,,,71,64
232572,note_off,,,,,12,0,1,,,0,,,83,64
232583,note_on,,,,,11,0,1,,,0,,,84,70
232594,note_on,,,,,11,0,1,,,0,,,72,56
232823,note_off,,,,,229,0,1,,,0,,,84,64
232825,note_on,,,,,2,0,1,,,0,,,80,68
232834,note_off,,,,,9,0,1,,,0,,,72,64
232836,note_on,,,,,2,0,1,,,0,,,68,40
233040,note_on,,,,,0,0,1,,,0,,,53,38
233040,note_on,,,,,0,0,1,,,0,,,62,32
233040,note_on,,,,,0,0,1,,,0,,,57,41
233040,note_off,,,,,204,0,1,,,0,,,62,64
233065,note_off,,,,,25,0,1,,,0,,,80,64
233067,note_on,,,,,2,0,1,,,0,,,81,67
233075,note_on,,,,,8,0,1,,,0,,,69,32
233076,note_off,,,,,1,0,1,,,0,,,68,64
233263,note_on,,,,,187,0,1,,,0,,,71,52
233280,note_on,,,,,0,0,1,,,0,,,59,54
233280,note_on,,,,,0,0,1,,,0,,,64,33
233280,note_off,,,,,0,0,1,,,0,,,53,64
233280,note_off,,,,,0,0,1,,,0,,,57,64
233280,note_off,,,,,17,0,1,,,0,,,62,64
233280,note_on,,,,,0,0,1,,,0,,,52,41
233307,note_off,,,,,27,0,1,,,0,,,81,64
233315,note_off,,,,,8,0,1,,,0,,,69,64
233341,note_on,,,,,26,0,1,,,0,,,83,70
233352,note_off,,,,,11,0,1,,,0,,,71,64
233460,note_on,,,,,108,0,1,,,0,,,81,56
233468,note_off,,,,,8,0,1,,,0,,,83,64
233566,note_on,,,,,98,0,1,,,0,,,80,63
233646,note_off,,,,,80,0,1,,,0,,,81,64
233682,note_on,,,,,36,0,1,,,0,,,77,62
233728,note_off,,,,,46,0,1,,,0,,,80,64
233797,note_on,,,,,69,0,1,,,0,,,76,67
233808,note_off,,,,,11,0,1,,,0,,,77,64
233918,note_on,,,,,0,0,1,,,0,,,74,59
233918,note_off,,,,,110,0,1,,,0,,,76,64
234000,note_on,,,,,0,0,1,,,0,,,59,45
234000,note_on,,,,,0,0,1,,,0,,,52,39
234000,note_on,,,,,0,0,1,,,0,,,64,23
234000,note_off,,,,,82,0,1,,,0,,,59,64
234000,note_off,,,,,0,0,1,,,0,,,64,64
234000,note_off,,,,,0,0,1,,,0,,,52,64
234028,note_on,,,,,28,0,1,,,0,,,72,52
234036,note_off,,,,,8,0,1,,,0,,,74,64
234123,note_off,,,,,87,0,1,,,0,,,72,64
234129,note_on,,,,,6,0,1,,,0,,,71,59
234183,note_off,,,,,54,0,1,,,0,,,71,64
234240,note_off,,,,,0,0,1,,,0,,,52,64
234240,note_on,,,,,0,0,1,,,0,,,57,44
234240,note_on,,,,,0,0,1,,,0,,,53,48
234240,note_on,,,,,0,0,1,,,0,,,64,40
234240,note_off,,,,,0,0,1,,,0,,,64,64
234240,note_off,,,,,57,0,1,,,0,,,59,64
234268,note_on,,,,,0,0,1,,,0,,,71,59
234268,note_on,,,,,28,0,1,,,0,,,83,75
234508,note_off,,,,,0,0,1,,,0,,,83,64
234508,note_off,,,,,240,0,1,,,0,,,71,64
234520,note_on,,,,,12,0,1,,,0,,,84,75
234529,note_on,,,,,9,0,1,,,0,,,72,67
234756,note_on,,,,,0,0,1,,,0,,,68,63
234756,note_on,,,,,227,0,1,,,0,,,80,74
234760,note_off,,,,,4,0,1,,,0,,,84,64
234769,note_off,,,,,9,0,1,,,0,,,72,64
234960,note_off,,,,,191,0,1,,,0,,,57,64
234960,note_off,,,,,0,0,1,,,0,,,53,64
234960,note_off,,,,,0,0,1,,,0,,,64,64
234960,note_on,,,,,0,0,1,,,0,,,53,38
234960,note_on,,,,,0,0,1,,,0,,,62,39
234960,note_on,,,,,0,0,1,,,0,,,57,41
234985,note_on,,,,,25,0,1,,,0,,,81,67
234993,note_on,,,,,8,0,1,,,0,,,69,56
234996,note_off,,,,,3,0,1,,,0,,,68,64
234996,note_off,,,,,0,0,1,,,0,,,80,64
235200,note_off,,,,,204,0,1,,,0,,,57,64
235200,note_off,,,,,0,0,1,,,0,,,62,64
235200,note_off,,,,,0,0,1,,,0,,,53,64
235200,note_on,,,,,0,0,1,,,0,,,59,56
235200,note_on,,,,,0,0,1,,,0,,,52,47
235200,note_on,,,,,0,0,1,,,0,,,64,40
235224,note_on,,,,,24,0,1,,,0,,,83,80
235225,note_off,,,,,1,0,1,,,0,,,81,64
235233,note_on,,,,,0,0,1,,,0,,,71,67
235233,note_off,,,,,8,0,1,,,0,,,69,64
235287,note_off,,,,,54,0,1,,,0,,,71,64
235356,note_on,,,,,69,0,1,,,0,,,81,67
235371,note_off,,,,,15,0,1,,,0,,,83,64
235466,note_on,,,,,95,0,1,,,0,,,80,68
235557,note_off,,,,,91,0,1,,,0,,,81,64
235579,note_on,,,,,22,0,1,,,0,,,77,67
235628,note_off,,,,,49,0,1,,,0,,,80,64
235691,note_on,,,,,63,0,1,,,0,,,76,67
235700,note_off,,,,,9,0,1,,,0,,,77,64
235801,note_on,,,,,101,0,1,,,0,,,74,67
235816,note_off,,,,,15,0,1,,,0,,,76,64
235916,note_on,,,,,100,0,1,,,0,,,72,59
235920,note_on,,,,,0,0,1,,,0,,,52,26
235920,note_on,,,,,0,0,1,,,0,,,59,45
235920,note_on,,,,,0,0,1,,,0,,,64,29
235920,note_off,,,,,0,0,1,,,0,,,64,64
235920,note_off,,,,,0,0,1,,,0,,,59,64
235920,note_off,,,,,4,0,1,,,0,,,52,64
235946,note_off,,,,,26,0,1,,,0,,,74,64
236015,note_off,,,,,69,0,1,,,0,,,72,64
236017,note_on,,,,,2,0,1,,,0,,,71,59
236080,note_off,,,,,63,0,1,,,0,,,71,64
236160,note_off,,,,,80,0,1,,,0,,,52,64
236160,note_off,,,,,0,0,1,,,0,,,59,64
236160,note_off,,,,,0,0,1,,,0,,,64,64
236160,note_on,,,,,0,0,1,,,0,,,45,85
236210,control_change,,,,,50,0,1,,,0,64,64,,
236277,note_on,,,,,67,0,1,,,0,,,69,52
236312,control_change,,,,,35,0,1,,,0,64,96,,
236396,control_change,,,,,84,0,1,,,0,64,127,,
236409,note_on,,,,,13,0,1,,,0,,,75,68
236430,note_off,,,,,21,0,1,,,0,,,69,64
236510,note_on,,,,,80,0,1,,,0,,,69,59
236536,note_off,,,,,26,0,1,,,0,,,75,64
236616,note_off,,,,,80,0,1,,,0,,,69,64
236640,note_on,,,,,0,0,1,,,0,,,60,69
236640,note_off,,,,,24,0,1,,,0,,,45,64
236642,note_on,,,,,2,0,1,,,0,,,76,70
236700,note_on,,,,,0,0,1,,,0,,,62,64
236700,note_off,,,,,58,0,1,,,0,,,60,64
236760,note_on,,,,,0,0,1,,,0,,,60,69
236760,note_off,,,,,60,0,1,,,0,,,62,64
236765,note_on,,,,,5,0,1,,,0,,,69,62
236783,note_off,,,,,18,0,1,,,0,,,76,64
236820,note_off,,,,,37,0,1,,,0,,,60,64
236878,note_off,,,,,58,0,1,,,0,,,69,64
236880,note_on,,,,,2,0,1,,,0,,,59,70
236891,note_on,,,,,11,0,1,,,0,,,72,67
236970,note_off,,,,,79,0,1,,,0,,,59,64
236999,note_on,,,,,0,0,1,,,0,,,69,67
236999,note_off,,,,,29,0,1,,,0,,,72,64
237000,note_on,,,,,1,0,1,,,0,,,57,46
237085,control_change,,,,,85,0,1,,,0,64,96,,
237089,note_off,,,,,4,0,1,,,0,,,69,64
237090,note_off,,,,,1,0,1,,,0,,,57,64
237104,control_change,,,,,14,0,1,,,0,64,0,,
237109,note_on,,,,,5,0,1,,,0,,,71,67
237120,note_on,,,,,11,0,1,,,0,,,43,85
237202,control_change,,,,,82,0,1,,,0,64,64,,
237217,control_change,,,,,15,0,1,,,0,64,127,,
237223,note_on,,,,,6,0,1,,,0,,,67,59
237234,note_off,,,,,11,0,1,,,0,,,71,64
237344,note_off,,,,,110,0,1,,,0,,,67,64
237361,note_on,,,,,17,0,1,,,0,,,75,68
237456,note_on,,,,,0,0,1,,,0,,,67,67
237456,note_off,,,,,95,0,1,,,0,,,75,64
237577,note_off,,,,,121,0,1,,,0,,,67,64
237599,note_on,,,,,22,0,1,,,0,,,76,67
237600,note_off,,,,,1,0,1,,,0,,,43,64
237600,note_on,,,,,0,0,1,,,0,,,59,82
237660,note_on,,,,,0,0,1,,,0,,,60,64
237660,note_off,,,,,60,0,1,,,0,,,59,64
237703,note_on,,,,,43,0,1,,,0,,,67,70
237720,note_off,,,,,17,0,1,,,0,,,60,64
237720,note_on,,,,,0,0,1,,,0,,,59,62
237735,note_off,,,,,15,0,1,,,0,,,76,64
237780,note_off,,,,,45,0,1,,,0,,,59,64
237840,note_on,,,,,60,0,1,,,0,,,57,59
237841,note_off,,,,,1,0,1,,,0,,,67,64
237852,note_on,,,,,11,0,1,,,0,,,71,70
237930,note_off,,,,,78,0,1,,,0,,,57,64
237938,note_off,,,,,8,0,1,,,0,,,71,64
237949,note_on,,,,,11,0,1,,,0,,,67,67
237960,note_on,,,,,11,0,1,,,0,,,55,77
238042,note_off,,,,,82,0,1,,,0,,,67,64
238050,note_off,,,,,8,0,1,,,0,,,55,64
238059,control_change,,,,,9,0,1,,,0,64,96,,
238070,note_on,,,,,11,0,1,,,0,,,69,67
238079,control_change,,,,,9,0,1,,,0,64,0,,
238080,note_on,,,,,1,0,1,,,0,,,42,86
238161,control_change,,,,,81,0,1,,,0,64,64,,
238176,control_change,,,,,15,0,1,,,0,64,127,,
238184,note_off,,,,,8,0,1,,,0,,,69,64
238193,note_on,,,,,9,0,1,,,0,,,66,63
238325,note_off,,,,,132,0,1,,,0,,,66,64
238331,note_on,,,,,6,0,1,,,0,,,75,63
238426,note_off,,,,,95,0,1,,,0,,,75,64
238426,note_on,,,,,0,0,1,,,0,,,66,63
238545,note_off,,,,,119,0,1,,,0,,,66,64
238556,note_on,,,,,11,0,1,,,0,,,76,70
238560,note_on,,,,,0,0,1,,,0,,,57,52
238560,note_off,,,,,4,0,1,,,0,,,42,64
238620,note_on,,,,,0,0,1,,,0,,,59,70
238620,note_off,,,,,60,0,1,,,0,,,57,64
238655,note_off,,,,,35,0,1,,,0,,,76,64
238668,note_on,,,,,13,0,1,,,0,,,66,68
238680,note_on,,,,,0,0,1,,,0,,,57,64
238680,note_off,,,,,12,0,1,,,0,,,59,64
238740,note_off,,,,,60,0,1,,,0,,,57,64
238794,note_off,,,,,54,0,1,,,0,,,66,64
238800,note_on,,,,,6,0,1,,,0,,,55,64
238804,note_on,,,,,4,0,1,,,0,,,69,67
238890,note_off,,,,,86,0,1,,,0,,,55,64
238912,note_off,,,,,22,0,1,,,0,,,69,64
238914,note_on,,,,,2,0,1,,,0,,,66,68
238920,note_on,,,,,6,0,1,,,0,,,54,64
238984,note_off,,,,,64,0,1,,,0,,,66,64
239010,note_off,,,,,26,0,1,,,0,,,54,64
239040,control_change,,,,,30,0,1,,,0,64,64,,
239040,note_on,,,,,0,0,1,,,0,,,40,67
239044,note_on,,,,,4,0,1,,,0,,,67,67
239061,control_change,,,,,17,0,1,,,0,64,0,,
239141,control_change,,,,,80,0,1,,,0,64,64,,
239146,note_on,,,,,5,0,1,,,0,,,64,67
239154,note_off,,,,,8,0,1,,,0,,,67,64
239161,control_change,,,,,7,0,1,,,0,64,127,,
239249,note_off,,,,,88,0,1,,,0,,,64,64
239280,note_on,,,,,31,0,1,,,0,,,75,68
239383,note_off,,,,,103,0,1,,,0,,,75,64
239396,note_on,,,,,13,0,1,,,0,,,67,67
239519,note_off,,,,,123,0,1,,,0,,,67,64
239520,note_on,,,,,0,0,1,,,0,,,55,52
239520,note_off,,,,,1,0,1,,,0,,,40,64
239537,note_on,,,,,17,0,1,,,0,,,76,59
239580,note_on,,,,,0,0,1,,,0,,,57,50
239580,note_off,,,,,43,0,1,,,0,,,55,64
239636,note_on,,,,,56,0,1,,,0,,,67,50
239640,note_off,,,,,4,0,1,,,0,,,57,64
239640,note_on,,,,,0,0,1,,,0,,,55,47
239651,note_off,,,,,11,0,1,,,0,,,76,64
239700,note_off,,,,,49,0,1,,,0,,,55,64
239750,note_off,,,,,50,0,1,,,0,,,67,64
239760,note_on,,,,,10,0,1,,,0,,,54,58
239766,note_on,,,,,6,0,1,,,0,,,71,52
239845,note_off,,,,,79,0,1,,,0,,,71,64
239850,note_off,,,,,5,0,1,,,0,,,54,64
239852,note_on,,,,,2,0,1,,,0,,,67,52
239880,note_on,,,,,28,0,1,,,0,,,52,56
239921,control_change,,,,,41,0,1,,,0,64,96,,
239936,control_change,,,,,15,0,1,,,0,64,64,,
239951,control_change,,,,,15,0,1,,,0,64,0,,
239970,note_off,,,,,19,0,1,,,0,,,52,64
239971,note_off,,,,,1,0,1,,,0,,,67,64
239992,note_on,,,,,21,0,1,,,0,,,72,62
240000,note_on,,,,,8,0,1,,,0,,,45,63
240064,control_change,,,,,64,0,1,,,0,64,64,,
240079,control_change,,,,,15,0,1,,,0,64,127,,
240102,note_off,,,,,23,0,1,,,0,,,72,64
240118,note_on,,,,,16,0,1,,,0,,,69,47
240232,note_off,,,,,114,0,1,,,0,,,69,64
240243,note_on,,,,,11,0,1,,,0,,,75,50
240342,note_off,,,,,99,0,1,,,0,,,75,64
240349,note_on,,,,,7,0,1,,,0,,,69,52
240452,note_off,,,,,103,0,1,,,0,,,69,64
240478,note_on,,,,,26,0,1,,,0,,,76,67
240480,note_off,,,,,2,0,1,,,0,,,45,64
240480,note_on,,,,,0,0,1,,,0,,,60,50
240540,note_on,,,,,0,0,1,,,0,,,62,48
240540,note_off,,,,,60,0,1,,,0,,,60,64
240588,note_on,,,,,48,0,1,,,0,,,69,67
240600,note_on,,,,,0,0,1,,,0,,,60,50
240600,note_off,,,,,12,0,1,,,0,,,62,64
240614,note_off,,,,,14,0,1,,,0,,,76,64
240660,note_off,,,,,46,0,1,,,0,,,60,64
240716,note_on,,,,,56,0,1,,,0,,,72,70
240720,note_on,,,,,4,0,1,,,0,,,59,51
240735,note_off,,,,,15,0,1,,,0,,,69,64
240810,note_off,,,,,75,0,1,,,0,,,59,64
240822,note_on,,,,,12,0,1,,,0,,,69,70
240833,note_off,,,,,11,0,1,,,0,,,72,64
240840,note_on,,,,,7,0,1,,,0,,,57,34
240921,note_off,,,,,81,0,1,,,0,,,69,64
240930,note_off,,,,,9,0,1,,,0,,,57,64
240938,control_change,,,,,8,0,1,,,0,64,64,,
240945,note_on,,,,,7,0,1,,,0,,,71,62
240960,note_on,,,,,0,0,1,,,0,,,43,63
240960,control_change,,,,,15,0,1,,,0,64,0,,
241031,control_change,,,,,71,0,1,,,0,64,64,,
241046,control_change,,,,,15,0,1,,,0,64,127,,
241057,note_on,,,,,11,0,1,,,0,,,67,56
241066,note_off,,,,,9,0,1,,,0,,,71,64
241185,note_off,,,,,119,0,1,,,0,,,67,64
241198,note_on,,,,,13,0,1,,,0,,,75,68
241280,note_on,,,,,82,0,1,,,0,,,67,59
241306,note_off,,,,,26,0,1,,,0,,,75,64
241420,note_off,,,,,114,0,1,,,0,,,67,64
241420,note_on,,,,,0,0,1,,,0,,,76,70
241440,note_off,,,,,20,0,1,,,0,,,43,64
241440,note_on,,,,,0,0,1,,,0,,,59,62
241448,control_change,,,,,8,0,1,,,0,64,96,,
241491,control_change,,,,,43,0,1,,,0,64,127,,
241500,note_off,,,,,9,0,1,,,0,,,59,64
241500,note_on,,,,,0,0,1,,,0,,,60,48
241517,note_on,,,,,17,0,1,,,0,,,67,52
241548,note_off,,,,,31,0,1,,,0,,,76,64
241560,note_off,,,,,12,0,1,,,0,,,60,64
241560,note_on,,,,,0,0,1,,,0,,,59,44
241620,note_off,,,,,60,0,1,,,0,,,59,64
241649,note_on,,,,,29,0,1,,,0,,,71,56
241658,note_off,,,,,9,0,1,,,0,,,67,64
241680,note_on,,,,,22,0,1,,,0,,,57,44
241748,note_off,,,,,68,0,1,,,0,,,71,64
241755,note_on,,,,,7,0,1,,,0,,,67,56
241770,note_off,,,,,15,0,1,,,0,,,57,64
241800,note_on,,,,,30,0,1,,,0,,,55,57
241839,control_change,,,,,39,0,1,,,0,64,96,,
241854,control_change,,,,,15,0,1,,,0,64,0,,
241859,note_off,,,,,5,0,1,,,0,,,67,64
241876,note_on,,,,,17,0,1,,,0,,,69,62
241890,note_off,,,,,14,0,1,,,0,,,55,64
241920,note_on,,,,,30,0,1,,,0,,,42,64
241945,control_change,,,,,25,0,1,,,0,64,96,,
241960,control_change,,,,,15,0,1,,,0,64,127,,
241992,note_on,,,,,32,0,1,,,0,,,66,63
242001,note_off,,,,,9,0,1,,,0,,,69,64
242126,note_on,,,,,125,0,1,,,0,,,75,68
242137,note_off,,,,,11,0,1,,,0,,,66,64
242237,note_off,,,,,100,0,1,,,0,,,75,64
242243,note_on,,,,,6,0,1,,,0,,,66,68
242358,control_change,,,,,115,0,1,,,0,64,96,,
242362,note_off,,,,,4,0,1,,,0,,,66,64
242362,note_on,,,,,0,0,1,,,0,,,76,70
242400,note_on,,,,,0,0,1,,,0,,,57,39
242400,note_off,,,,,38,0,1,,,0,,,42,64
242409,control_change,,,,,9,0,1,,,0,64,127,,
242460,note_off,,,,,51,0,1,,,0,,,57,64
242460,note_on,,,,,0,0,1,,,0,,,59,51
242476,note_on,,,,,16,0,1,,,0,,,66,58
242485,note_off,,,,,9,0,1,,,0,,,76,64
242520,note_off,,,,,35,0,1,,,0,,,59,64
242520,note_on,,,,,0,0,1,,,0,,,57,48
242580,note_off,,,,,60,0,1,,,0,,,57,64
242599,note_off,,,,,19,0,1,,,0,,,66,64
242606,note_on,,,,,7,0,1,,,0,,,69,67
242640,note_on,,,,,34,0,1,,,0,,,55,48
242699,note_off,,,,,59,0,1,,,0,,,69,64
242714,note_on,,,,,15,0,1,,,0,,,66,63
242730,note_off,,,,,16,0,1,,,0,,,55,64
242760,note_on,,,,,30,0,1,,,0,,,54,48
242785,note_off,,,,,25,0,1,,,0,,,66,64
242815,control_change,,,,,30,0,1,,,0,64,96,,
242830,control_change,,,,,15,0,1,,,0,64,0,,
242850,note_off,,,,,20,0,1,,,0,,,54,64
242861,note_on,,,,,11,0,1,,,0,,,67,70
242880,note_on,,,,,19,0,1,,,0,,,40,50
242928,control_change,,,,,48,0,1,,,0,64,64,,
242943,control_change,,,,,15,0,1,,,0,64,96,,
242956,control_change,,,,,13,0,1,,,0,64,127,,
242980,note_on,,,,,24,0,1,,,0,,,64,60
242990,note_off,,,,,10,0,1,,,0,,,67,64
243100,note_on,,,,,110,0,1,,,0,,,67,70
243120,note_off,,,,,20,0,1,,,0,,,64,64
243219,note_on,,,,,99,0,1,,,0,,,71,70
243276,note_off,,,,,57,0,1,,,0,,,67,64
243360,note_on,,,,,0,0,1,,,0,,,55,59
243360,note_off,,,,,84,0,1,,,0,,,40,64
243362,note_on,,,,,2,0,1,,,0,,,76,80
243392,note_off,,,,,30,0,1,,,0,,,71,64
243405,note_off,,,,,13,0,1,,,0,,,55,64
243420,note_on,,,,,15,0,1,,,0,,,57,41
243465,note_off,,,,,45,0,1,,,0,,,57,64
243480,note_on,,,,,15,0,1,,,0,,,55,56
243525,note_off,,,,,45,0,1,,,0,,,55,64
243600,note_on,,,,,75,0,1,,,0,,,54,40
243690,note_off,,,,,90,0,1,,,0,,,54,64
243720,note_on,,,,,30,0,1,,,0,,,52,52
243810,note_off,,,,,90,0,1,,,0,,,52,64
243840,note_on,,,,,0,0,1,,,0,,,45,62
243840,control_change,,,,,30,0,1,,,0,64,0,,
243938,note_off,,,,,98,0,1,,,0,,,76,64
244009,note_on,,,,,71,0,1,,,0,,,74,67
244118,note_on,,,,,109,0,1,,,0,,,72,56
244157,note_off,,,,,39,0,1,,,0,,,74,64
244200,note_off,,,,,43,0,1,,,0,,,45,64
244239,note_on,,,,,39,0,1,,,0,,,71,62
244282,note_off,,,,,43,0,1,,,0,,,72,64
244320,note_on,,,,,38,0,1,,,0,,,57,67
244372,note_off,,,,,52,0,1,,,0,,,71,64
244378,note_on,,,,,6,0,1,,,0,,,69,67
244465,note_on,,,,,87,0,1,,,0,,,67,52
244479,note_off,,,,,14,0,1,,,0,,,69,64
244594,note_on,,,,,115,0,1,,,0,,,66,63
244628,note_off,,,,,34,0,1,,,0,,,67,64
244680,note_off,,,,,52,0,1,,,0,,,57,64
244695,note_off,,,,,15,0,1,,,0,,,66,64
244703,note_on,,,,,8,0,1,,,0,,,64,58
244765,note_off,,,,,62,0,1,,,0,,,64,64
244800,note_on,,,,,35,0,1,,,0,,,47,67
244830,note_on,,,,,30,0,1,,,0,,,63,80
244960,note_on,,,,,130,0,1,,,0,,,59,71
244969,note_off,,,,,9,0,1,,,0,,,63,64
245070,note_on,,,,,101,0,1,,,0,,,63,74
245098,note_off,,,,,28,0,1,,,0,,,59,64
245160,note_off,,,,,62,0,1,,,0,,,47,64
245183,note_on,,,,,23,0,1,,,0,,,66,74
245217,note_off,,,,,34,0,1,,,0,,,63,64
245245,note_off,,,,,28,0,1,,,0,,,66,64
245280,note_on,,,,,35,0,1,,,0,,,55,59
245325,note_off,,,,,45,0,1,,,0,,,55,64
245332,note_on,,,,,7,0,1,,,0,,,76,80
245340,note_on,,,,,8,0,1,,,0,,,57,52
245385,note_off,,,,,45,0,1,,,0,,,57,64
245400,note_on,,,,,15,0,1,,,0,,,55,62
245445,note_off,,,,,45,0,1,,,0,,,55,64
245520,note_on,,,,,75,0,1,,,0,,,54,55
245610,note_off,,,,,90,0,1,,,0,,,54,64
245640,note_on,,,,,30,0,1,,,0,,,52,56
245730,note_off,,,,,90,0,1,,,0,,,52,64
245760,note_on,,,,,30,0,1,,,0,,,45,62
245890,note_on,,,,,130,0,1,,,0,,,74,67
245913,note_off,,,,,23,0,1,,,0,,,76,64
246001,note_on,,,,,88,0,1,,,0,,,72,70
246058,note_off,,,,,57,0,1,,,0,,,74,64
246120,note_off,,,,,62,0,1,,,0,,,45,64
246128,note_on,,,,,8,0,1,,,0,,,71,67
246175,note_off,,,,,47,0,1,,,0,,,72,64
246240,note_on,,,,,65,0,1,,,0,,,57,67
246253,note_on,,,,,13,0,1,,,0,,,69,67
246261,note_off,,,,,8,0,1,,,0,,,71,64
246346,note_off,,,,,85,0,1,,,0,,,69,64
246352,note_on,,,,,6,0,1,,,0,,,67,62
246479,note_on,,,,,127,0,1,,,0,,,66,58
246507,note_off,,,,,28,0,1,,,0,,,67,64
246584,note_on,,,,,77,0,1,,,0,,,64,67
246600,note_off,,,,,16,0,1,,,0,,,57,64
246614,note_off,,,,,14,0,1,,,0,,,66,64
246646,note_off,,,,,32,0,1,,,0,,,64,64
246709,note_on,,,,,63,0,1,,,0,,,63,74
246720,note_on,,,,,11,0,1,,,0,,,47,67
246828,note_off,,,,,108,0,1,,,0,,,63,64
246836,note_on,,,,,8,0,1,,,0,,,59,63
246935,note_on,,,,,99,0,1,,,0,,,63,74
246967,note_off,,,,,32,0,1,,,0,,,59,64
247046,note_on,,,,,79,0,1,,,0,,,66,80
247074,note_off,,,,,28,0,1,,,0,,,63,64
247080,note_off,,,,,6,0,1,,,0,,,47,64
247110,note_off,,,,,30,0,1,,,0,,,66,64
247197,note_on,,,,,87,0,1,,,0,,,76,80
247200,note_on,,,,,3,0,1,,,0,,,55,59
247245,note_off,,,,,45,0,1,,,0,,,55,64
247260,note_on,,,,,15,0,1,,,0,,,57,52
247305,note_off,,,,,45,0,1,,,0,,,57,64
247320,note_on,,,,,15,0,1,,,0,,,55,62
247365,note_off,,,,,45,0,1,,,0,,,55,64
247440,note_on,,,,,75,0,1,,,0,,,54,55
247530,note_off,,,,,90,0,1,,,0,,,54,64
247560,note_on,,,,,30,0,1,,,0,,,52,56
247650,note_off,,,,,90,0,1,,,0,,,52,64
247680,note_on,,,,,30,0,1,,,0,,,45,62
247783,note_on,,,,,103,0,1,,,0,,,74,67
247806,note_off,,,,,23,0,1,,,0,,,76,64
247898,note_on,,,,,92,0,1,,,0,,,72,59
247951,note_off,,,,,53,0,1,,,0,,,74,64
248025,note_on,,,,,74,0,1,,,0,,,71,59
248040,note_off,,,,,15,0,1,,,0,,,45,64
248064,note_off,,,,,24,0,1,,,0,,,72,64
248138,note_off,,,,,74,0,1,,,0,,,71,64
248146,note_on,,,,,8,0,1,,,0,,,69,67
248160,note_on,,,,,14,0,1,,,0,,,57,67
248221,note_off,,,,,61,0,1,,,0,,,69,64
248245,note_on,,,,,24,0,1,,,0,,,67,56
248368,note_on,,,,,123,0,1,,,0,,,66,58
248396,note_off,,,,,28,0,1,,,0,,,67,64
248481,note_on,,,,,85,0,1,,,0,,,64,67
248513,note_off,,,,,32,0,1,,,0,,,66,64
248520,note_off,,,,,7,0,1,,,0,,,57,64
248543,note_off,,,,,23,0,1,,,0,,,64,64
248640,note_on,,,,,97,0,1,,,0,,,59,63
248880,note_on,,,,,240,0,1,,,0,,,47,67
248880,note_on,,,,,0,0,1,,,0,,,59,66
248914,control_change,,,,,34,0,1,,,0,64,64,,
248916,note_off,,,,,2,0,1,,,0,,,59,64
249020,control_change,,,,,104,0,1,,,0,64,96,,
249045,control_change,,,,,25,0,1,,,0,64,127,,
249060,note_off,,,,,0,0,1,,,0,,,47,64
249060,note_off,,,,,15,0,1,,,0,,,59,64
249120,note_on,,,,,0,0,1,,,0,,,60,70
249120,note_on,,,,,60,0,1,,,0,,,48,67
249300,note_off,,,,,0,0,1,,,0,,,48,64
249300,note_off,,,,,180,0,1,,,0,,,60,64
249360,note_on,,,,,0,0,1,,,0,,,56,72
249360,note_on,,,,,60,0,1,,,0,,,44,68
249373,note_on,,,,,13,0,1,,,0,,,83,80
249385,note_on,,,,,12,0,1,,,0,,,71,59
249408,control_change,,,,,23,0,1,,,0,64,64,,
249426,control_change,,,,,18,0,1,,,0,64,0,,
249540,note_off,,,,,0,0,1,,,0,,,44,64
249540,note_off,,,,,114,0,1,,,0,,,56,64
249577,control_change,,,,,37,0,1,,,0,64,64,,
249593,control_change,,,,,16,0,1,,,0,64,127,,
249600,note_on,,,,,0,0,1,,,0,,,57,62
249600,note_on,,,,,7,0,1,,,0,,,45,56
249613,note_on,,,,,0,0,1,,,0,,,84,80
249613,note_off,,,,,13,0,1,,,0,,,83,64
249625,note_off,,,,,12,0,1,,,0,,,71,64
249625,note_on,,,,,0,0,1,,,0,,,72,67
249658,control_change,,,,,33,0,1,,,0,64,64,,
249677,control_change,,,,,19,0,1,,,0,64,0,,
249780,note_off,,,,,0,0,1,,,0,,,45,64
249780,note_off,,,,,103,0,1,,,0,,,57,64
249840,note_on,,,,,0,0,1,,,0,,,59,66
249840,note_on,,,,,60,0,1,,,0,,,47,59
249849,control_change,,,,,9,0,1,,,0,64,64,,
249853,note_on,,,,,0,0,1,,,0,,,80,80
249853,note_on,,,,,0,0,1,,,0,,,68,74
249853,note_off,,,,,4,0,1,,,0,,,84,64
249865,note_off,,,,,12,0,1,,,0,,,72,64
249892,control_change,,,,,27,0,1,,,0,64,127,,
249952,control_change,,,,,60,0,1,,,0,64,96,,
249970,control_change,,,,,18,0,1,,,0,64,64,,
249989,control_change,,,,,19,0,1,,,0,64,0,,
250020,note_off,,,,,31,0,1,,,0,,,59,64
250020,note_off,,,,,0,0,1,,,0,,,47,64
250080,note_on,,,,,60,0,1,,,0,,,48,62
250080,note_on,,,,,0,0,1,,,0,,,60,67
250093,note_off,,,,,13,0,1,,,0,,,80,64
250093,note_off,,,,,0,0,1,,,0,,,68,64
250100,note_on,,,,,7,0,1,,,0,,,81,80
250112,note_on,,,,,12,0,1,,,0,,,69,75
250141,control_change,,,,,29,0,1,,,0,64,96,,
250160,control_change,,,,,19,0,1,,,0,64,127,,
250260,note_off,,,,,100,0,1,,,0,,,60,64
250260,note_off,,,,,0,0,1,,,0,,,48,64
250320,note_on,,,,,60,0,1,,,0,,,49,63
250320,note_on,,,,,0,0,1,,,0,,,61,62
250340,note_off,,,,,20,0,1,,,0,,,81,64
250352,note_off,,,,,12,0,1,,,0,,,69,64
250500,note_off,,,,,0,0,1,,,0,,,49,64
250500,note_off,,,,,148,0,1,,,0,,,61,64
250560,note_on,,,,,0,0,1,,,0,,,63,63
250560,note_on,,,,,60,0,1,,,0,,,51,68
250740,note_off,,,,,180,0,1,,,0,,,63,64
250740,note_off,,,,,0,0,1,,,0,,,51,64
250759,control_change,,,,,19,0,1,,,0,64,96,,
250779,note_on,,,,,20,0,1,,,0,,,79,70
250781,control_change,,,,,2,0,1,,,0,64,0,,
250791,note_on,,,,,10,0,1,,,0,,,67,52
250800,note_on,,,,,0,0,1,,,0,,,52,67
250800,note_on,,,,,9,0,1,,,0,,,64,60
250888,control_change,,,,,88,0,1,,,0,64,64,,
250906,control_change,,,,,18,0,1,,,0,64,96,,
250925,control_change,,,,,19,0,1,,,0,64,127,,
250980,note_off,,,,,0,0,1,,,0,,,64,64
250980,note_off,,,,,55,0,1,,,0,,,52,64
251019,note_off,,,,,39,0,1,,,0,,,79,64
251021,note_on,,,,,2,0,1,,,0,,,78,63
251031,note_off,,,,,10,0,1,,,0,,,67,64
251033,note_on,,,,,2,0,1,,,0,,,66,40
251040,note_on,,,,,7,0,1,,,0,,,57,52
251040,note_on,,,,,0,0,1,,,0,,,45,52
251092,control_change,,,,,52,0,1,,,0,64,96,,
251108,control_change,,,,,16,0,1,,,0,64,0,,
251220,note_off,,,,,112,0,1,,,0,,,45,64
251220,note_off,,,,,0,0,1,,,0,,,57,64
251259,note_on,,,,,39,0,1,,,0,,,76,67
251261,note_off,,,,,2,0,1,,,0,,,78,64
251262,control_change,,,,,1,0,1,,,0,64,64,,
251269,note_on,,,,,7,0,1,,,0,,,64,60
251273,note_off,,,,,4,0,1,,,0,,,66,64
251280,note_on,,,,,7,0,1,,,0,,,48,62
251280,note_on,,,,,0,0,1,,,0,,,60,59
251297,control_change,,,,,17,0,1,,,0,64,127,,
251419,control_change,,,,,122,0,1,,,0,64,96,,
251435,control_change,,,,,16,0,1,,,0,64,64,,
251454,control_change,,,,,19,0,1,,,0,64,0,,
251460,note_off,,,,,6,0,1,,,0,,,60,64
251460,note_off,,,,,0,0,1,,,0,,,48,64
251492,note_on,,,,,32,0,1,,,0,,,78,74
251499,note_off,,,,,7,0,1,,,0,,,76,64
251501,note_on,,,,,2,0,1,,,0,,,66,50
251509,note_off,,,,,8,0,1,,,0,,,64,64
251574,control_change,,,,,65,0,1,,,0,64,64,,
251590,control_change,,,,,16,0,1,,,0,64,127,,
251732,note_off,,,,,142,0,1,,,0,,,78,64
251741,note_off,,,,,9,0,1,,,0,,,66,64
251760,note_on,,,,,19,0,1,,,0,,,47,67
251760,note_on,,,,,0,0,1,,,0,,,59,66
251940,note_off,,,,,180,0,1,,,0,,,59,64
251940,note_off,,,,,0,0,1,,,0,,,47,64
252000,note_on,,,,,60,0,1,,,0,,,48,67
252000,note_on,,,,,0,0,1,,,0,,,60,70
252180,note_off,,,,,0,0,1,,,0,,,48,64
252180,note_off,,,,,180,0,1,,,0,,,60,64
252240,note_on,,,,,0,0,1,,,0,,,56,72
252240,note_on,,,,,60,0,1,,,0,,,44,68
252253,note_on,,,,,0,0,1,,,0,,,83,75
252253,note_on,,,,,13,0,1,,,0,,,71,59
252333,control_change,,,,,80,0,1,,,0,64,64,,
252349,control_change,,,,,16,0,1,,,0,64,0,,
252420,note_off,,,,,0,0,1,,,0,,,44,64
252420,note_off,,,,,71,0,1,,,0,,,56,64
252476,control_change,,,,,56,0,1,,,0,64,64,,
252480,note_on,,,,,0,0,1,,,0,,,57,62
252480,note_on,,,,,4,0,1,,,0,,,45,56
252485,note_on,,,,,5,0,1,,,0,,,84,80
252493,note_off,,,,,0,0,1,,,0,,,71,64
252493,note_off,,,,,8,0,1,,,0,,,83,64
252498,control_change,,,,,5,0,1,,,0,64,127,,
252502,note_on,,,,,4,0,1,,,0,,,72,56
252623,control_change,,,,,121,0,1,,,0,64,96,,
252640,control_change,,,,,17,0,1,,,0,64,0,,
252660,note_off,,,,,0,0,1,,,0,,,45,64
252660,note_off,,,,,20,0,1,,,0,,,57,64
252713,note_on,,,,,53,0,1,,,0,,,68,68
252716,note_on,,,,,3,0,1,,,0,,,80,80
252720,note_on,,,,,0,0,1,,,0,,,59,66
252720,note_on,,,,,4,0,1,,,0,,,47,59
252725,note_off,,,,,5,0,1,,,0,,,84,64
252742,note_off,,,,,17,0,1,,,0,,,72,64
252787,control_change,,,,,45,0,1,,,0,64,64,,
252806,control_change,,,,,19,0,1,,,0,64,127,,
252862,control_change,,,,,56,0,1,,,0,64,96,,
252879,control_change,,,,,17,0,1,,,0,64,64,,
252898,control_change,,,,,19,0,1,,,0,64,0,,
252900,note_off,,,,,2,0,1,,,0,,,59,64
252900,note_off,,,,,0,0,1,,,0,,,47,64
252953,note_off,,,,,53,0,1,,,0,,,68,64
252956,note_off,,,,,3,0,1,,,0,,,80,64
252960,note_on,,,,,4,0,1,,,0,,,48,62
252960,note_on,,,,,0,0,1,,,0,,,60,67
252970,note_on,,,,,10,0,1,,,0,,,69,70
252970,note_on,,,,,0,0,1,,,0,,,81,80
253032,control_change,,,,,62,0,1,,,0,64,64,,
253049,control_change,,,,,17,0,1,,,0,64,127,,
253140,note_off,,,,,91,0,1,,,0,,,60,64
253140,note_off,,,,,0,0,1,,,0,,,48,64
253200,note_on,,,,,60,0,1,,,0,,,49,63
253200,note_on,,,,,0,0,1,,,0,,,61,62
253210,note_off,,,,,10,0,1,,,0,,,81,64
253210,note_off,,,,,0,0,1,,,0,,,69,64
253380,note_off,,,,,170,0,1,,,0,,,61,64
253380,note_off,,,,,0,0,1,,,0,,,49,64
253440,note_on,,,,,60,0,1,,,0,,,51,68
253440,note_on,,,,,0,0,1,,,0,,,63,63
253594,control_change,,,,,154,0,1,,,0,64,96,,
253613,control_change,,,,,19,0,1,,,0,64,0,,
253620,note_off,,,,,7,0,1,,,0,,,63,64
253620,note_off,,,,,0,0,1,,,0,,,51,64
253661,note_on,,,,,41,0,1,,,0,,,79,70
253671,note_on,,,,,10,0,1,,,0,,,67,62
253680,note_on,,,,,0,0,1,,,0,,,52,67
253680,note_on,,,,,9,0,1,,,0,,,64,60
253746,control_change,,,,,66,0,1,,,0,64,64,,
253766,control_change,,,,,20,0,1,,,0,64,127,,
253860,note_off,,,,,0,0,1,,,0,,,64,64
253860,note_off,,,,,94,0,1,,,0,,,52,64
253901,note_off,,,,,41,0,1,,,0,,,79,64
253902,control_change,,,,,1,0,1,,,0,64,64,,
253904,note_on,,,,,2,0,1,,,0,,,78,74
253911,note_off,,,,,7,0,1,,,0,,,67,64
253913,note_on,,,,,2,0,1,,,0,,,66,58
253920,note_on,,,,,7,0,1,,,0,,,57,52
253920,note_on,,,,,0,0,1,,,0,,,45,52
253928,control_change,,,,,8,0,1,,,0,64,0,,
254004,control_change,,,,,76,0,1,,,0,64,64,,
254021,control_change,,,,,17,0,1,,,0,64,96,,
254041,control_change,,,,,20,0,1,,,0,64,127,,
254058,control_change,,,,,17,0,1,,,0,64,96,,
254075,control_change,,,,,17,0,1,,,0,64,64,,
254095,control_change,,,,,20,0,1,,,0,64,0,,
254100,note_off,,,,,5,0,1,,,0,,,45,64
254100,note_off,,,,,0,0,1,,,0,,,57,64
254139,note_on,,,,,39,0,1,,,0,,,76,67
254144,note_off,,,,,5,0,1,,,0,,,78,64
254151,note_on,,,,,7,0,1,,,0,,,64,60
254153,note_off,,,,,2,0,1,,,0,,,66,64
254160,note_on,,,,,0,0,1,,,0,,,60,59
254160,note_on,,,,,7,0,1,,,0,,,48,62
254232,control_change,,,,,72,0,1,,,0,64,64,,
254249,control_change,,,,,17,0,1,,,0,64,127,,
254281,control_change,,,,,32,0,1,,,0,64,96,,
254301,control_change,,,,,20,0,1,,,0,64,64,,
254318,control_change,,,,,17,0,1,,,0,64,0,,
254340,note_off,,,,,22,0,1,,,0,,,60,64
254340,note_off,,,,,0,0,1,,,0,,,48,64
254379,note_off,,,,,39,0,1,,,0,,,76,64
254391,note_off,,,,,12,0,1,,,0,,,64,64
254400,note_on,,,,,0,0,1,,,0,,,59,79
254400,note_on,,,,,9,0,1,,,0,,,47,70
254409,control_change,,,,,9,0,1,,,0,64,64,,
254429,control_change,,,,,20,0,1,,,0,64,127,,
254459,control_change,,,,,30,0,1,,,0,64,64,,
254514,note_on,,,,,55,0,1,,,0,,,71,57
254554,control_change,,,,,40,0,1,,,0,64,96,,
254586,control_change,,,,,32,0,1,,,0,64,127,,
254629,note_on,,,,,0,0,1,,,0,,,75,72
254629,note_off,,,,,43,0,1,,,0,,,71,64
254732,control_change,,,,,103,0,1,,,0,64,96,,
254734,note_off,,,,,2,0,1,,,0,,,75,64
254751,note_on,,,,,17,0,1,,,0,,,71,71
254752,control_change,,,,,1,0,1,,,0,64,0,,
254760,note_off,,,,,0,0,1,,,0,,,47,64
254760,note_off,,,,,8,0,1,,,0,,,59,64
254856,note_on,,,,,96,0,1,,,0,,,76,77
254867,note_off,,,,,11,0,1,,,0,,,71,64
254880,note_on,,,,,13,0,1,,,0,,,68,80
254925,note_off,,,,,45,0,1,,,0,,,68,64
254940,note_on,,,,,15,0,1,,,0,,,69,80
254960,note_off,,,,,20,0,1,,,0,,,76,64
254967,note_on,,,,,7,0,1,,,0,,,71,64
254985,note_off,,,,,18,0,1,,,0,,,69,64
255000,note_on,,,,,15,0,1,,,0,,,68,80
255091,note_off,,,,,91,0,1,,,0,,,71,64
255100,note_on,,,,,9,0,1,,,0,,,80,85
255120,note_on,,,,,20,0,1,,,0,,,66,70
255132,note_off,,,,,12,0,1,,,0,,,68,64
255196,control_change,,,,,64,0,1,,,0,64,96,,
255206,note_on,,,,,0,0,1,,,0,,,71,64
255206,note_off,,,,,10,0,1,,,0,,,80,64
255210,note_off,,,,,4,0,1,,,0,,,66,64
255216,control_change,,,,,6,0,1,,,0,64,64,,
255240,note_on,,,,,24,0,1,,,0,,,64,70
255248,control_change,,,,,8,0,1,,,0,64,0,,
255330,note_off,,,,,82,0,1,,,0,,,64,64
255333,note_off,,,,,3,0,1,,,0,,,71,64
255346,note_on,,,,,13,0,1,,,0,,,83,77
255360,note_on,,,,,14,0,1,,,0,,,47,86
255464,control_change,,,,,104,0,1,,,0,64,64,,
255466,note_on,,,,,2,0,1,,,0,,,71,47
255477,note_off,,,,,11,0,1,,,0,,,83,64
255507,control_change,,,,,30,0,1,,,0,64,96,,
255539,control_change,,,,,32,0,1,,,0,64,127,,
255584,note_off,,,,,45,0,1,,,0,,,71,64
255593,note_on,,,,,9,0,1,,,0,,,75,66
255688,note_off,,,,,95,0,1,,,0,,,75,64
255706,note_on,,,,,18,0,1,,,0,,,71,67
255826,note_off,,,,,120,0,1,,,0,,,71,64
255835,note_on,,,,,9,0,1,,,0,,,76,77
255840,note_off,,,,,5,0,1,,,0,,,47,64
255840,note_on,,,,,0,0,1,,,0,,,68,80
255885,note_off,,,,,45,0,1,,,0,,,68,64
255900,note_on,,,,,15,0,1,,,0,,,69,80
255930,note_off,,,,,30,0,1,,,0,,,76,64
255930,note_on,,,,,0,0,1,,,0,,,71,64
255945,note_off,,,,,15,0,1,,,0,,,69,64
255960,note_on,,,,,15,0,1,,,0,,,68,80
256005,note_off,,,,,45,0,1,,,0,,,68,64
256054,note_off,,,,,49,0,1,,,0,,,71,64
256072,note_on,,,,,18,0,1,,,0,,,80,85
256080,note_on,,,,,8,0,1,,,0,,,66,70
256161,control_change,,,,,81,0,1,,,0,64,96,,
256170,note_on,,,,,0,0,1,,,0,,,71,71
256170,note_off,,,,,0,0,1,,,0,,,80,64
256170,note_off,,,,,9,0,1,,,0,,,66,64
256200,note_on,,,,,30,0,1,,,0,,,64,70
256204,control_change,,,,,4,0,1,,,0,64,64,,
256230,control_change,,,,,26,0,1,,,0,64,0,,
256290,note_off,,,,,60,0,1,,,0,,,64,64
256299,note_off,,,,,9,0,1,,,0,,,71,64
256312,note_on,,,,,13,0,1,,,0,,,83,67
256320,note_on,,,,,8,0,1,,,0,,,45,80
256400,control_change,,,,,80,0,1,,,0,64,64,,
256423,control_change,,,,,23,0,1,,,0,64,96,,
256427,note_off,,,,,4,0,1,,,0,,,83,64
256434,note_on,,,,,7,0,1,,,0,,,71,35
256464,control_change,,,,,30,0,1,,,0,64,127,,
256556,note_on,,,,,92,0,1,,,0,,,75,78
256567,note_off,,,,,11,0,1,,,0,,,71,64
256658,note_off,,,,,91,0,1,,,0,,,75,64
256670,note_on,,,,,12,0,1,,,0,,,71,71
256792,note_on,,,,,122,0,1,,,0,,,76,80
256800,note_off,,,,,8,0,1,,,0,,,45,64
256800,note_on,,,,,0,0,1,,,0,,,68,80
256803,note_off,,,,,3,0,1,,,0,,,71,64
256845,note_off,,,,,42,0,1,,,0,,,68,64
256860,note_on,,,,,15,0,1,,,0,,,69,80
256883,note_off,,,,,23,0,1,,,0,,,76,64
256896,note_on,,,,,13,0,1,,,0,,,71,80
256905,note_off,,,,,9,0,1,,,0,,,69,64
256920,note_on,,,,,15,0,1,,,0,,,68,80
256965,note_off,,,,,45,0,1,,,0,,,68,64
257022,note_off,,,,,57,0,1,,,0,,,71,64
257031,note_on,,,,,9,0,1,,,0,,,78,85
257040,note_on,,,,,9,0,1,,,0,,,66,70
257114,control_change,,,,,74,0,1,,,0,64,96,,
257118,note_off,,,,,4,0,1,,,0,,,78,64
257130,note_off,,,,,12,0,1,,,0,,,66,64
257130,note_on,,,,,0,0,1,,,0,,,71,77
257135,control_change,,,,,5,0,1,,,0,64,64,,
257160,note_on,,,,,25,0,1,,,0,,,64,70
257163,control_change,,,,,3,0,1,,,0,64,0,,
257250,note_off,,,,,87,0,1,,,0,,,64,64
257264,note_off,,,,,14,0,1,,,0,,,71,64
257271,note_on,,,,,7,0,1,,,0,,,83,86
257280,note_on,,,,,9,0,1,,,0,,,44,80
257302,control_change,,,,,22,0,1,,,0,64,64,,
257322,control_change,,,,,20,0,1,,,0,64,127,,
257373,note_on,,,,,51,0,1,,,0,,,71,64
257393,note_off,,,,,20,0,1,,,0,,,83,64
257486,note_on,,,,,93,0,1,,,0,,,76,71
257500,note_off,,,,,14,0,1,,,0,,,71,64
257600,note_off,,,,,100,0,1,,,0,,,76,64
257606,note_on,,,,,6,0,1,,,0,,,71,77
257722,note_off,,,,,116,0,1,,,0,,,71,64
257731,note_on,,,,,9,0,1,,,0,,,78,92
257760,note_on,,,,,0,0,1,,,0,,,68,80
257760,note_off,,,,,29,0,1,,,0,,,44,64
257805,note_off,,,,,45,0,1,,,0,,,68,64
257820,note_on,,,,,15,0,1,,,0,,,69,80
257830,note_off,,,,,10,0,1,,,0,,,78,64
257830,note_on,,,,,0,0,1,,,0,,,71,77
257865,note_off,,,,,35,0,1,,,0,,,69,64
257880,note_on,,,,,15,0,1,,,0,,,68,80
257925,note_off,,,,,45,0,1,,,0,,,68,64
257955,note_off,,,,,30,0,1,,,0,,,71,64
257973,note_on,,,,,18,0,1,,,0,,,80,78
258000,note_on,,,,,27,0,1,,,0,,,66,70
258059,note_off,,,,,59,0,1,,,0,,,80,64
258070,note_on,,,,,11,0,1,,,0,,,71,71
258090,note_off,,,,,20,0,1,,,0,,,66,64
258108,control_change,,,,,18,0,1,,,0,64,96,,
258120,note_on,,,,,12,0,1,,,0,,,64,70
258128,control_change,,,,,8,0,1,,,0,64,64,,
258154,control_change,,,,,26,0,1,,,0,64,0,,
258203,note_off,,,,,49,0,1,,,0,,,71,64
258210,note_off,,,,,7,0,1,,,0,,,64,64
258223,note_on,,,,,13,0,1,,,0,,,81,80
258240,note_on,,,,,17,0,1,,,0,,,42,74
258289,control_change,,,,,49,0,1,,,0,64,64,,
258328,note_on,,,,,39,0,1,,,0,,,71,57
258343,note_off,,,,,15,0,1,,,0,,,81,64
258353,control_change,,,,,10,0,1,,,0,64,96,,
258376,control_change,,,,,23,0,1,,,0,64,127,,
258457,note_on,,,,,81,0,1,,,0,,,75,78
258468,note_off,,,,,11,0,1,,,0,,,71,64
258545,note_off,,,,,77,0,1,,,0,,,75,64
258563,note_on,,,,,18,0,1,,,0,,,71,71
258694,note_on,,,,,131,0,1,,,0,,,76,77
258703,note_off,,,,,9,0,1,,,0,,,71,64
258720,note_off,,,,,17,0,1,,,0,,,42,64
258720,note_on,,,,,0,0,1,,,0,,,68,80
258765,note_off,,,,,45,0,1,,,0,,,68,64
258780,note_on,,,,,15,0,1,,,0,,,69,80
258792,note_off,,,,,12,0,1,,,0,,,76,64
258825,note_off,,,,,33,0,1,,,0,,,69,64
258829,note_on,,,,,4,0,1,,,0,,,71,44
258840,note_on,,,,,11,0,1,,,0,,,68,80
258885,note_off,,,,,45,0,1,,,0,,,68,64
258936,note_on,,,,,51,0,1,,,0,,,78,72
258947,note_off,,,,,11,0,1,,,0,,,71,64
258960,note_on,,,,,13,0,1,,,0,,,66,70
259036,note_off,,,,,76,0,1,,,0,,,78,64
259050,note_off,,,,,14,0,1,,,0,,,66,64
259054,note_on,,,,,4,0,1,,,0,,,71,71
259080,note_on,,,,,26,0,1,,,0,,,64,70
259147,note_off,,,,,67,0,1,,,0,,,71,64
259160,control_change,,,,,13,0,1,,,0,64,96,,
259169,note_on,,,,,9,0,1,,,0,,,80,78
259170,note_off,,,,,1,0,1,,,0,,,64,64
259182,control_change,,,,,12,0,1,,,0,64,64,,
259200,note_on,,,,,18,0,1,,,0,,,40,86
259208,control_change,,,,,8,0,1,,,0,64,0,,
259293,note_on,,,,,85,0,1,,,0,,,81,67
259351,note_off,,,,,58,0,1,,,0,,,80,64
259422,note_off,,,,,71,0,1,,,0,,,81,64
259451,note_on,,,,,29,0,1,,,0,,,83,59
259547,note_on,,,,,96,0,1,,,0,,,81,47
259678,note_on,,,,,131,0,1,,,0,,,80,78
259680,note_off,,,,,2,0,1,,,0,,,40,64
259689,note_off,,,,,9,0,1,,,0,,,83,64
259722,note_off,,,,,33,0,1,,,0,,,81,64
259780,note_on,,,,,58,0,1,,,0,,,78,72
259820,note_off,,,,,40,0,1,,,0,,,80,64
259888,note_off,,,,,68,0,1,,,0,,,78,64
259888,note_on,,,,,0,0,1,,,0,,,76,57
259920,note_on,,,,,32,0,1,,,0,,,56,84
260013,note_off,,,,,93,0,1,,,0,,,76,64
260015,note_on,,,,,2,0,1,,,0,,,75,78
260146,note_off,,,,,131,0,1,,,0,,,75,64
260155,note_on,,,,,9,0,1,,,0,,,73,78
260160,note_on,,,,,0,0,1,,,0,,,45,62
260160,note_off,,,,,5,0,1,,,0,,,56,64
260275,note_off,,,,,115,0,1,,,0,,,73,64
260288,note_on,,,,,13,0,1,,,0,,,76,59
260400,note_on,,,,,0,0,1,,,0,,,57,70
260400,note_off,,,,,112,0,1,,,0,,,45,64
260403,note_on,,,,,3,0,1,,,0,,,75,63
260426,note_off,,,,,23,0,1,,,0,,,76,64
260528,note_on,,,,,102,0,1,,,0,,,73,63
260574,note_off,,,,,46,0,1,,,0,,,75,64
260640,note_off,,,,,66,0,1,,,0,,,57,64
260640,note_on,,,,,0,0,1,,,0,,,59,79
260641,note_on,,,,,1,0,1,,,0,,,71,67
260679,note_off,,,,,38,0,1,,,0,,,73,64
260745,note_off,,,,,66,0,1,,,0,,,71,64
260752,note_on,,,,,7,0,1,,,0,,,69,70
260874,note_on,,,,,122,0,1,,,0,,,68,74
260880,note_on,,,,,0,0,1,,,0,,,47,70
260880,note_off,,,,,6,0,1,,,0,,,59,64
260894,note_off,,,,,14,0,1,,,0,,,69,64
260987,note_on,,,,,93,0,1,,,0,,,66,58
261007,note_off,,,,,20,0,1,,,0,,,68,64
261061,note_off,,,,,54,0,1,,,0,,,66,64
261120,note_off,,,,,59,0,1,,,0,,,47,64
261120,note_on,,,,,0,0,1,,,0,,,40,47
261135,note_on,,,,,15,0,1,,,0,,,83,67
261241,note_off,,,,,106,0,1,,,0,,,83,64
261253,control_change,,,,,12,0,1,,,0,64,64,,
261265,note_on,,,,,12,0,1,,,0,,,71,32
261368,control_change,,,,,103,0,1,,,0,64,96,,
261382,note_off,,,,,14,0,1,,,0,,,71,64
261395,note_on,,,,,13,0,1,,,0,,,75,44
261455,control_change,,,,,60,0,1,,,0,64,127,,
261492,note_off,,,,,37,0,1,,,0,,,75,64
261520,note_on,,,,,28,0,1,,,0,,,71,39
261600,note_off,,,,,80,0,1,,,0,,,40,64
261600,note_on,,,,,0,0,1,,,0,,,68,75
261628,note_off,,,,,28,0,1,,,0,,,71,64
261636,note_on,,,,,8,0,1,,,0,,,76,52
261645,note_off,,,,,9,0,1,,,0,,,68,64
261660,note_on,,,,,15,0,1,,,0,,,69,75
261705,note_off,,,,,45,0,1,,,0,,,69,64
261720,note_on,,,,,15,0,1,,,0,,,68,75
261738,note_off,,,,,18,0,1,,,0,,,76,64
261750,note_on,,,,,12,0,1,,,0,,,71,36
261765,note_off,,,,,15,0,1,,,0,,,68,64
261840,note_on,,,,,75,0,1,,,0,,,66,70
261852,note_off,,,,,12,0,1,,,0,,,71,64
261861,note_on,,,,,9,0,1,,,0,,,80,68
261904,control_change,,,,,43,0,1,,,0,64,96,,
261924,control_change,,,,,20,0,1,,,0,64,64,,
261930,note_off,,,,,6,0,1,,,0,,,66,64
261959,control_change,,,,,29,0,1,,,0,64,0,,
261960,note_on,,,,,1,0,1,,,0,,,64,70
261963,note_off,,,,,3,0,1,,,0,,,80,64
261976,note_on,,,,,13,0,1,,,0,,,71,62
262050,note_off,,,,,74,0,1,,,0,,,64,64
262073,note_off,,,,,23,0,1,,,0,,,71,64
262080,note_on,,,,,7,0,1,,,0,,,47,68
262086,note_on,,,,,6,0,1,,,0,,,83,75
262137,control_change,,,,,51,0,1,,,0,64,64,,
262157,control_change,,,,,20,0,1,,,0,64,96,,
262189,control_change,,,,,32,0,1,,,0,64,127,,
262192,note_on,,,,,3,0,1,,,0,,,71,41
262202,note_off,,,,,10,0,1,,,0,,,83,64
262326,note_on,,,,,0,0,1,,,0,,,75,58
262326,note_off,,,,,124,0,1,,,0,,,71,64
262416,note_off,,,,,90,0,1,,,0,,,75,64
262438,note_on,,,,,22,0,1,,,0,,,71,34
262554,note_off,,,,,116,0,1,,,0,,,71,64
262560,note_on,,,,,0,0,1,,,0,,,68,75
262560,note_off,,,,,6,0,1,,,0,,,47,64
262563,note_on,,,,,3,0,1,,,0,,,76,56
262605,note_off,,,,,42,0,1,,,0,,,68,64
262620,note_on,,,,,15,0,1,,,0,,,69,75
262665,note_off,,,,,45,0,1,,,0,,,69,64
262665,note_off,,,,,0,0,1,,,0,,,76,64
262675,note_on,,,,,10,0,1,,,0,,,71,47
262680,note_on,,,,,5,0,1,,,0,,,68,75
262725,note_off,,,,,45,0,1,,,0,,,68,64
262781,note_off,,,,,56,0,1,,,0,,,71,64
262799,note_on,,,,,18,0,1,,,0,,,80,58
262800,note_on,,,,,1,0,1,,,0,,,66,54
262877,control_change,,,,,77,0,1,,,0,64,96,,
262889,note_off,,,,,12,0,1,,,0,,,80,64
262889,note_on,,,,,0,0,1,,,0,,,71,59
262890,note_off,,,,,1,0,1,,,0,,,66,64
262897,control_change,,,,,7,0,1,,,0,64,64,,
262920,note_on,,,,,23,0,1,,,0,,,64,53
262944,control_change,,,,,24,0,1,,,0,64,0,,
263008,note_off,,,,,64,0,1,,,0,,,71,64
263010,note_off,,,,,2,0,1,,,0,,,64,64
263028,note_on,,,,,18,0,1,,,0,,,83,75
263040,note_on,,,,,12,0,1,,,0,,,45,64
263073,control_change,,,,,33,0,1,,,0,64,64,,
263105,control_change,,,,,32,0,1,,,0,64,96,,
263133,note_off,,,,,28,0,1,,,0,,,83,64
263136,note_on,,,,,3,0,1,,,0,,,71,50
263170,control_change,,,,,34,0,1,,,0,64,127,,
263269,note_off,,,,,99,0,1,,,0,,,71,64
263276,note_on,,,,,7,0,1,,,0,,,75,58
263360,note_off,,,,,84,0,1,,,0,,,75,64
263377,note_on,,,,,17,0,1,,,0,,,71,44
263494,note_off,,,,,117,0,1,,,0,,,71,64
263507,note_on,,,,,13,0,1,,,0,,,76,59
263520,note_on,,,,,0,0,1,,,0,,,68,75
263520,note_off,,,,,13,0,1,,,0,,,45,64
263565,note_off,,,,,45,0,1,,,0,,,68,64
263580,note_on,,,,,15,0,1,,,0,,,69,75
263593,note_off,,,,,13,0,1,,,0,,,76,64
263604,note_on,,,,,11,0,1,,,0,,,71,56
263625,note_off,,,,,21,0,1,,,0,,,69,64
263640,note_on,,,,,15,0,1,,,0,,,68,75
263685,note_off,,,,,45,0,1,,,0,,,68,64
263719,note_off,,,,,34,0,1,,,0,,,71,64
263745,note_on,,,,,26,0,1,,,0,,,80,63
263760,note_on,,,,,15,0,1,,,0,,,66,54
263835,note_off,,,,,75,0,1,,,0,,,80,64
263838,note_on,,,,,3,0,1,,,0,,,71,52
263850,note_off,,,,,12,0,1,,,0,,,66,64
263880,note_on,,,,,30,0,1,,,0,,,64,53
263911,control_change,,,,,31,0,1,,,0,64,96,,
263931,control_change,,,,,20,0,1,,,0,64,64,,
263952,control_change,,,,,21,0,1,,,0,64,0,,
263965,note_off,,,,,13,0,1,,,0,,,71,64
263970,note_off,,,,,5,0,1,,,0,,,64,64
263984,note_on,,,,,14,0,1,,,0,,,83,67
264000,note_on,,,,,16,0,1,,,0,,,44,64
264035,control_change,,,,,35,0,1,,,0,64,64,,
264055,control_change,,,,,20,0,1,,,0,64,96,,
264082,note_on,,,,,27,0,1,,,0,,,71,41
264087,control_change,,,,,5,0,1,,,0,64,127,,
264092,note_off,,,,,5,0,1,,,0,,,83,64
264218,note_on,,,,,126,0,1,,,0,,,76,59
264228,note_off,,,,,10,0,1,,,0,,,71,64
264308,note_off,,,,,80,0,1,,,0,,,76,64
264334,note_on,,,,,26,0,1,,,0,,,71,59
264447,note_off,,,,,113,0,1,,,0,,,71,64
264460,note_on,,,,,13,0,1,,,0,,,78,68
264480,note_off,,,,,20,0,1,,,0,,,44,64
264480,note_on,,,,,0,0,1,,,0,,,68,75
264525,note_off,,,,,45,0,1,,,0,,,68,64
264540,note_on,,,,,15,0,1,,,0,,,69,75
264557,note_on,,,,,17,0,1,,,0,,,71,44
264568,note_off,,,,,11,0,1,,,0,,,78,64
264585,note_off,,,,,17,0,1,,,0,,,69,64
264600,note_on,,,,,15,0,1,,,0,,,68,75
264645,note_off,,,,,45,0,1,,,0,,,68,64
264685,note_off,,,,,40,0,1,,,0,,,71,64
264710,note_on,,,,,25,0,1,,,0,,,80,63
264720,note_on,,,,,10,0,1,,,0,,,66,54
264797,note_on,,,,,77,0,1,,,0,,,71,44
264807,note_off,,,,,10,0,1,,,0,,,80,64
264810,note_off,,,,,3,0,1,,,0,,,66,64
264840,note_on,,,,,30,0,1,,,0,,,64,53
264885,control_change,,,,,45,0,1,,,0,64,96,,
264905,control_change,,,,,20,0,1,,,0,64,0,,
264930,note_off,,,,,0,0,1,,,0,,,71,64
264930,note_off,,,,,25,0,1,,,0,,,64,64
264950,note_on,,,,,20,0,1,,,0,,,81,75
264960,note_on,,,,,10,0,1,,,0,,,42,59
264994,control_change,,,,,34,0,1,,,0,64,64,,
265014,control_change,,,,,20,0,1,,,0,64,96,,
265046,control_change,,,,,32,0,1,,,0,64,127,,
265067,note_on,,,,,21,0,1,,,0,,,71,50
265075,note_off,,,,,8,0,1,,,0,,,81,64
265205,note_off,,,,,130,0,1,,,0,,,71,64
265213,note_on,,,,,8,0,1,,,0,,,75,55
265276,note_off,,,,,63,0,1,,,0,,,75,64
265298,note_on,,,,,22,0,1,,,0,,,71,44
265425,note_off,,,,,127,0,1,,,0,,,71,64
265440,note_off,,,,,15,0,1,,,0,,,42,64
265440,note_on,,,,,0,0,1,,,0,,,68,75
265453,note_on,,,,,13,0,1,,,0,,,76,52
265485,note_off,,,,,32,0,1,,,0,,,68,64
265500,note_on,,,,,15,0,1,,,0,,,69,75
265524,note_off,,,,,24,0,1,,,0,,,76,64
265537,note_on,,,,,13,0,1,,,0,,,71,59
265545,note_off,,,,,8,0,1,,,0,,,69,64
265560,note_on,,,,,15,0,1,,,0,,,68,75
265605,note_off,,,,,45,0,1,,,0,,,68,64
265652,note_off,,,,,47,0,1,,,0,,,71,64
265669,note_on,,,,,17,0,1,,,0,,,78,68
265680,note_on,,,,,11,0,1,,,0,,,66,54
265749,note_off,,,,,69,0,1,,,0,,,78,64
265758,note_on,,,,,9,0,1,,,0,,,71,44
265770,note_off,,,,,12,0,1,,,0,,,66,64
265800,note_on,,,,,30,0,1,,,0,,,64,53
265840,note_off,,,,,40,0,1,,,0,,,71,64
265890,note_off,,,,,50,0,1,,,0,,,64,64
265913,control_change,,,,,23,0,1,,,0,64,96,,
265918,note_on,,,,,5,0,1,,,0,,,80,68
265920,note_on,,,,,2,0,1,,,0,,,40,68
265936,control_change,,,,,16,0,1,,,0,64,64,,
265962,control_change,,,,,26,0,1,,,0,64,0,,
266049,note_on,,,,,87,0,1,,,0,,,81,70
266084,note_off,,,,,35,0,1,,,0,,,80,64
266164,note_off,,,,,80,0,1,,,0,,,81,64
266190,note_on,,,,,26,0,1,,,0,,,83,59
266293,note_on,,,,,103,0,1,,,0,,,81,36
266309,note_off,,,,,16,0,1,,,0,,,83,64
266400,note_off,,,,,91,0,1,,,0,,,40,64
266423,note_on,,,,,23,0,1,,,0,,,80,58
266475,note_off,,,,,52,0,1,,,0,,,81,64
266544,note_on,,,,,69,0,1,,,0,,,78,58
266581,note_off,,,,,37,0,1,,,0,,,80,64
266640,note_on,,,,,59,0,1,,,0,,,56,67
266641,note_off,,,,,1,0,1,,,0,,,78,64
266656,note_on,,,,,15,0,1,,,0,,,76,52
266788,note_on,,,,,132,0,1,,,0,,,75,55
266799,note_off,,,,,11,0,1,,,0,,,76,64
266880,note_off,,,,,81,0,1,,,0,,,56,64
266880,note_on,,,,,0,0,1,,,0,,,45,49
266900,note_off,,,,,20,0,1,,,0,,,75,64
266920,note_on,,,,,20,0,1,,,0,,,73,58
267017,note_off,,,,,97,0,1,,,0,,,73,64
267049,note_on,,,,,32,0,1,,,0,,,76,56
267120,note_off,,,,,71,0,1,,,0,,,45,64
267120,note_on,,,,,0,0,1,,,0,,,57,56
267166,note_on,,,,,46,0,1,,,0,,,75,58
267196,note_off,,,,,30,0,1,,,0,,,76,64
267291,note_on,,,,,95,0,1,,,0,,,73,63
267348,note_off,,,,,57,0,1,,,0,,,75,64
267360,note_on,,,,,0,0,1,,,0,,,59,63
267360,note_off,,,,,12,0,1,,,0,,,57,64
267397,note_on,,,,,37,0,1,,,0,,,71,67
267434,note_off,,,,,37,0,1,,,0,,,73,64
267490,note_off,,,,,56,0,1,,,0,,,71,64
267507,note_on,,,,,17,0,1,,,0,,,69,62
267600,note_off,,,,,93,0,1,,,0,,,59,64
267600,note_on,,,,,0,0,1,,,0,,,47,56
267613,note_on,,,,,13,0,1,,,0,,,68,63
267626,note_off,,,,,13,0,1,,,0,,,69,64
267721,note_on,,,,,95,0,1,,,0,,,66,63
267747,note_off,,,,,26,0,1,,,0,,,68,64
267797,note_off,,,,,50,0,1,,,0,,,66,64
267840,note_on,,,,,0,0,1,,,0,,,71,80
267840,note_on,,,,,0,0,1,,,0,,,80,80
267840,note_off,,,,,43,0,1,,,0,,,47,64
267960,note_on,,,,,120,0,1,,,0,,,64,58
268050,note_off,,,,,90,0,1,,,0,,,64,64
268080,note_on,,,,,30,0,1,,,0,,,66,58
268170,note_off,,,,,90,0,1,,,0,,,66,64
268200,note_on,,,,,30,0,1,,,0,,,68,58
268290,note_off,,,,,90,0,1,,,0,,,68,64
268320,note_off,,,,,0,0,1,,,0,,,80,64
268320,note_off,,,,,30,0,1,,,0,,,71,64
268320,note_on,,,,,0,0,1,,,0,,,69,59
268320,note_on,,,,,0,0,1,,,0,,,73,80
268320,note_on,,,,,0,0,1,,,0,,,81,80
268410,note_off,,,,,90,0,1,,,0,,,69,64
268440,note_on,,,,,30,0,1,,,0,,,68,50
268530,note_off,,,,,90,0,1,,,0,,,68,64
268560,note_on,,,,,30,0,1,,,0,,,66,50
268650,note_off,,,,,90,0,1,,,0,,,66,64
268680,note_on,,,,,30,0,1,,,0,,,64,42
268770,note_off,,,,,90,0,1,,,0,,,64,64
268800,note_on,,,,,0,0,1,,,0,,,71,47
268800,note_on,,,,,0,0,1,,,0,,,35,67
268800,note_off,,,,,0,0,1,,,0,,,81,64
268800,note_off,,,,,30,0,1,,,0,,,73,64
268890,note_off,,,,,90,0,1,,,0,,,71,64
268920,note_on,,,,,30,0,1,,,0,,,81,62
269010,note_off,,,,,90,0,1,,,0,,,81,64
269040,note_on,,,,,30,0,1,,,0,,,80,63
269130,note_off,,,,,90,0,1,,,0,,,80,64
269160,note_on,,,,,0,0,1,,,0,,,78,58
269160,note_off,,,,,30,0,1,,,0,,,35,64
269250,note_off,,,,,90,0,1,,,0,,,78,64
269280,note_on,,,,,0,0,1,,,0,,,80,58
269280,note_on,,,,,30,0,1,,,0,,,40,70
269370,note_off,,,,,90,0,1,,,0,,,80,64
269400,note_on,,,,,30,0,1,,,0,,,78,50
269490,note_off,,,,,90,0,1,,,0,,,78,64
269520,note_on,,,,,30,0,1,,,0,,,76,56
269610,note_off,,,,,90,0,1,,,0,,,76,64
269640,note_on,,,,,0,0,1,,,0,,,75,47
269640,note_off,,,,,30,0,1,,,0,,,40,64
269730,note_off,,,,,90,0,1,,,0,,,75,64
269760,note_on,,,,,0,0,1,,,0,,,73,63
269760,note_on,,,,,30,0,1,,,0,,,45,70
269850,note_off,,,,,90,0,1,,,0,,,73,64
269880,note_on,,,,,30,0,1,,,0,,,75,63
269970,note_off,,,,,90,0,1,,,0,,,75,64
270000,note_on,,,,,30,0,1,,,0,,,76,59
270090,note_off,,,,,90,0,1,,,0,,,76,64
270120,note_off,,,,,30,0,1,,,0,,,45,64
270120,note_on,,,,,0,0,1,,,0,,,78,63
270210,note_off,,,,,90,0,1,,,0,,,78,64
270240,note_on,,,,,30,0,1,,,0,,,47,70
270240,note_on,,,,,0,0,1,,,0,,,83,80
270240,note_on,,,,,0,0,1,,,0,,,80,63
270330,note_off,,,,,90,0,1,,,0,,,80,64
270360,note_on,,,,,30,0,1,,,0,,,76,52
270450,note_off,,,,,90,0,1,,,0,,,76,64
270480,note_off,,,,,30,0,1,,,0,,,83,64
270480,note_on,,,,,0,0,1,,,0,,,81,80
270480,note_on,,,,,0,0,1,,,0,,,78,40
270570,note_off,,,,,90,0,1,,,0,,,78,64
270600,note_off,,,,,30,0,1,,,0,,,47,64
270600,note_on,,,,,0,0,1,,,0,,,75,55
270690,note_off,,,,,90,0,1,,,0,,,75,64
270720,note_off,,,,,30,0,1,,,0,,,81,64
270720,note_on,,,,,0,0,1,,,0,,,71,50
270720,note_on,,,,,0,0,1,,,0,,,80,50
270840,note_on,,,,,120,0,1,,,0,,,64,38
270930,note_off,,,,,90,0,1,,,0,,,64,64
270960,note_on,,,,,30,0,1,,,0,,,66,36
271050,note_off,,,,,90,0,1,,,0,,,66,64
271080,note_on,,,,,30,0,1,,,0,,,68,40
271170,note_off,,,,,90,0,1,,,0,,,68,64
271200,note_on,,,,,0,0,1,,,0,,,69,48
271200,note_on,,,,,0,0,1,,,0,,,73,50
271200,note_on,,,,,0,0,1,,,0,,,81,50
271200,note_off,,,,,0,0,1,,,0,,,80,64
271200,note_off,,,,,30,0,1,,,0,,,71,64
271290,note_off,,,,,90,0,1,,,0,,,69,64
271320,note_on,,,,,30,0,1,,,0,,,68,32
271410,note_off,,,,,90,0,1,,,0,,,68,64
271440,note_on,,,,,30,0,1,,,0,,,66,40
271530,note_off,,,,,90,0,1,,,0,,,66,64
271560,note_on,,,,,30,0,1,,,0,,,64,36
271650,note_off,,,,,90,0,1,,,0,,,64,64
271680,note_on,,,,,0,0,1,,,0,,,71,44
271680,note_off,,,,,30,0,1,,,0,,,73,64
271680,note_off,,,,,0,0,1,,,0,,,81,64
271680,note_on,,,,,0,0,1,,,0,,,35,70
271770,note_off,,,,,90,0,1,,,0,,,71,64
271800,note_on,,,,,30,0,1,,,0,,,81,49
271890,note_off,,,,,90,0,1,,,0,,,81,64
271920,note_on,,,,,30,0,1,,,0,,,80,44
272010,note_off,,,,,90,0,1,,,0,,,80,64
272040,note_off,,,,,30,0,1,,,0,,,35,64
272040,note_on,,,,,0,0,1,,,0,,,78,46
272130,note_off,,,,,90,0,1,,,0,,,78,64
272160,note_on,,,,,0,0,1,,,0,,,80,54
272160,note_on,,,,,30,0,1,,,0,,,40,75
272250,note_off,,,,,90,0,1,,,0,,,80,64
272280,note_on,,,,,30,0,1,,,0,,,78,44
272370,note_off,,,,,90,0,1,,,0,,,78,64
272400,note_on,,,,,30,0,1,,,0,,,76,37
272490,note_off,,,,,90,0,1,,,0,,,76,64
272520,note_on,,,,,0,0,1,,,0,,,75,40
272520,note_off,,,,,30,0,1,,,0,,,40,64
272610,note_off,,,,,90,0,1,,,0,,,75,64
272640,note_on,,,,,30,0,1,,,0,,,45,67
272640,note_on,,,,,0,0,1,,,0,,,73,63
272730,note_off,,,,,90,0,1,,,0,,,73,64
272760,note_on,,,,,30,0,1,,,0,,,75,59
272850,note_off,,,,,90,0,1,,,0,,,75,64
272880,note_on,,,,,30,0,1,,,0,,,76,59
272970,note_off,,,,,90,0,1,,,0,,,76,64
273000,note_on,,,,,0,0,1,,,0,,,78,69
273000,note_off,,,,,30,0,1,,,0,,,45,64
273090,note_off,,,,,90,0,1,,,0,,,78,64
273120,note_on,,,,,0,0,1,,,0,,,83,80
273120,note_on,,,,,0,0,1,,,0,,,80,69
273120,note_on,,,,,30,0,1,,,0,,,47,75
273210,note_off,,,,,90,0,1,,,0,,,80,64
273240,note_on,,,,,30,0,1,,,0,,,76,48
273330,note_off,,,,,90,0,1,,,0,,,76,64
273360,note_on,,,,,0,0,1,,,0,,,78,50
273360,note_on,,,,,0,0,1,,,0,,,81,80
273360,note_off,,,,,30,0,1,,,0,,,83,64
273450,note_off,,,,,90,0,1,,,0,,,78,64
273480,note_on,,,,,0,0,1,,,0,,,75,55
273480,note_off,,,,,30,0,1,,,0,,,47,64
273570,note_off,,,,,90,0,1,,,0,,,75,64
273600,note_on,,,,,0,0,1,,,0,,,80,69
273600,note_on,,,,,0,0,1,,,0,,,76,64
273600,note_on,,,,,0,0,1,,,0,,,40,70
273600,note_off,,,,,30,0,1,,,0,,,81,64
273690,note_off,,,,,90,0,1,,,0,,,80,64
273690,note_off,,,,,0,0,1,,,0,,,76,64
273720,note_on,,,,,30,0,1,,,0,,,76,64
273810,note_off,,,,,90,0,1,,,0,,,76,64
273840,note_on,,,,,30,0,1,,,0,,,71,64
273930,note_off,,,,,90,0,1,,,0,,,71,64
273960,note_off,,,,,30,0,1,,,0,,,40,64
273960,note_on,,,,,0,0,1,,,0,,,68,69
274050,note_off,,,,,90,0,1,,,0,,,68,64
274080,note_on,,,,,30,0,1,,,0,,,76,85
274170,note_off,,,,,90,0,1,,,0,,,76,64
274200,note_on,,,,,30,0,1,,,0,,,71,71
274290,note_off,,,,,90,0,1,,,0,,,71,64
274320,note_on,,,,,30,0,1,,,0,,,68,64
274410,note_off,,,,,90,0,1,,,0,,,68,64
274440,note_on,,,,,30,0,1,,,0,,,64,71
274530,note_off,,,,,90,0,1,,,0,,,64,64
274560,note_on,,,,,30,0,1,,,0,,,64,72
274650,note_off,,,,,90,0,1,,,0,,,64,64
274680,note_on,,,,,30,0,1,,,0,,,59,64
274770,note_off,,,,,90,0,1,,,0,,,59,64
274800,note_on,,,,,30,0,1,,,0,,,56,74
274890,note_off,,,,,90,0,1,,,0,,,56,64
274920,note_on,,,,,30,0,1,,,0,,,52,74
275010,note_off,,,,,90,0,1,,,0,,,52,64
275040,note_on,,,,,30,0,1,,,0,,,52,90
275130,note_off,,,,,90,0,1,,,0,,,52,64
275160,note_on,,,,,30,0,1,,,0,,,47,67
275250,note_off,,,,,90,0,1,,,0,,,47,64
275280,note_on,,,,,30,0,1,,,0,,,44,75
275370,note_off,,,,,90,0,1,,,0,,,44,64
275400,note_on,,,,,30,0,1,,,0,,,40,90
275490,note_off,,,,,90,0,1,,,0,,,40,64
275520,note_on,,,,,30,0,1,,,0,,,40,80
276000,note_off,,,,,480,0,1,,,0,,,40,64
276000,end_of_track,,,,,0,1,1,,,,,,,
