tick,type,numerator,denominator,clocks_per_click,notated_32nd_notes_per_beat,time,meta,track,data,tempo,control,value,channel,program,key,note,velocity
0,time_signature,4,4,96,8,0,1,0,,,,,,,,,
0,track_name,,,,,0,1,2,,,,,,,,,
0,end_of_track,,,,,0,1,2,,,,,,,,,
0,track_name,,,,,0,1,3,,,,,,,,,
0,control_change,,,,,0,0,3,,,0,0,0,,,,
0,control_change,,,,,0,0,3,,,7,100,0,,,,
0,control_change,,,,,0,0,3,,,91,20,0,,,,
0,program_change,,,,,0,0,3,,,,,0,6,,,
0,end_of_track,,,,,0,1,1,,,,,,,,,
0,key_signature,,,,,0,1,3,,,,,,,Dm,,
0,track_name,,,,,0,1,4,,,,,,,,,
0,control_change,,,,,0,0,4,,,0,0,0,,,,
0,program_change,,,,,0,0,4,,,,,0,6,,,
0,control_change,,,,,0,0,4,,,7,100,0,,,,
0,control_change,,,,,0,0,4,,,91,20,0,,,,
0,key_signature,,,,,0,1,4,,,,,,,Dm,,
0,note_on,,,,,0,0,4,,,,,0,,,74,100
0,end_of_track,,,,,0,1,3,,,,,,,,,
0,track_name,,,,,0,1,1,,,,,,,,,
0,track_name,,,,,0,1,5,,,,,,,,,
0,key_signature,,,,,0,1,5,,,,,,,Dm,,
0,control_change,,,,,0,0,5,,,7,100,0,,,,
0,program_change,,,,,0,0,5,,,,,0,6,,,
0,control_change,,,,,0,0,5,,,0,0,0,,,,
0,set_tempo,,,,,0,1,0,,535714,,,,,,,
0,sequencer_specific,,,,,0,1,0,"(0, 0, 119, 14, 1)",,,,,,,,
0,sequencer_specific,,,,,0,1,0,"(0, 0, 65)",,,,,,,,
0,control_change,,,,,0,0,5,,,91,20,0,,,,
92,note_off,,,,,92,0,4,,,,,0,,,74,100
96,note_on,,,,,4,0,4,,,,,0,,,76,100
188,note_off,,,,,92,0,4,,,,,0,,,76,100
192,note_on,,,,,4,0,4,,,,,0,,,77,100
284,note_off,,,,,92,0,4,,,,,0,,,77,100
288,note_on,,,,,4,0,4,,,,,0,,,79,100
380,note_off,,,,,92,0,4,,,,,0,,,79,100
384,note_on,,,,,4,0,4,,,,,0,,,81,100
476,note_off,,,,,92,0,4,,,,,0,,,81,100
480,note_on,,,,,4,0,4,,,,,0,,,69,100
572,note_off,,,,,92,0,4,,,,,0,,,69,100
576,note_on,,,,,4,0,4,,,,,0,,,73,100
668,note_off,,,,,92,0,4,,,,,0,,,73,100
672,note_on,,,,,4,0,4,,,,,0,,,69,100
764,note_off,,,,,92,0,4,,,,,0,,,69,100
768,note_on,,,,,4,0,4,,,,,0,,,74,100
768,note_on,,,,,768,0,5,,,,,0,,,62,100
860,note_off,,,,,92,0,5,,,,,0,,,62,100
864,note_on,,,,,4,0,5,,,,,0,,,64,100
956,note_off,,,,,92,0,5,,,,,0,,,64,100
960,note_on,,,,,4,0,5,,,,,0,,,65,100
1052,note_off,,,,,92,0,5,,,,,0,,,65,100
1056,note_on,,,,,4,0,5,,,,,0,,,67,100
1148,note_off,,,,,92,0,5,,,,,0,,,67,100
1152,note_on,,,,,4,0,5,,,,,0,,,69,100
1244,note_off,,,,,92,0,5,,,,,0,,,69,100
1248,note_on,,,,,4,0,5,,,,,0,,,57,100
1340,note_off,,,,,92,0,5,,,,,0,,,57,100
1340,note_off,,,,,572,0,4,,,,,0,,,74,100
1344,note_on,,,,,4,0,5,,,,,0,,,61,100
1344,note_on,,,,,4,0,4,,,,,0,,,76,100
1436,note_off,,,,,92,0,5,,,,,0,,,61,100
1440,note_on,,,,,4,0,5,,,,,0,,,57,100
1532,note_off,,,,,92,0,5,,,,,0,,,57,100
1532,note_off,,,,,188,0,4,,,,,0,,,76,100
1536,note_on,,,,,4,0,5,,,,,0,,,62,100
1536,note_on,,,,,4,0,4,,,,,0,,,77,100
1628,note_off,,,,,92,0,4,,,,,0,,,77,100
1632,note_on,,,,,4,0,4,,,,,0,,,74,100
1724,note_off,,,,,92,0,4,,,,,0,,,74,100
1724,note_off,,,,,188,0,5,,,,,0,,,62,100
1728,note_on,,,,,4,0,4,,,,,0,,,79,100
1728,note_on,,,,,4,0,5,,,,,0,,,64,100
1820,note_off,,,,,92,0,4,,,,,0,,,79,100
1824,note_on,,,,,4,0,4,,,,,0,,,76,100
1916,note_off,,,,,92,0,4,,,,,0,,,76,100
1916,note_off,,,,,188,0,5,,,,,0,,,64,100
1920,note_on,,,,,4,0,5,,,,,0,,,65,100
1920,note_on,,,,,4,0,4,,,,,0,,,81,100
2012,note_off,,,,,92,0,4,,,,,0,,,81,100
2016,note_on,,,,,4,0,4,,,,,0,,,77,100
2108,note_off,,,,,92,0,4,,,,,0,,,77,100
2108,note_off,,,,,188,0,5,,,,,0,,,65,100
2112,note_on,,,,,4,0,5,,,,,0,,,67,100
2112,note_on,,,,,4,0,4,,,,,0,,,76,100
2204,note_off,,,,,92,0,4,,,,,0,,,76,100
2208,note_on,,,,,4,0,4,,,,,0,,,74,100
2300,note_off,,,,,92,0,4,,,,,0,,,74,100
2300,note_off,,,,,188,0,5,,,,,0,,,67,100
2304,note_on,,,,,4,0,5,,,,,0,,,69,100
2304,note_on,,,,,4,0,4,,,,,0,,,73,100
2364,note_off,,,,,60,0,5,,,,,0,,,69,100
2492,note_off,,,,,188,0,4,,,,,0,,,73,100
2496,note_on,,,,,4,0,4,,,,,0,,,81,100
2496,note_on,,,,,132,0,5,,,,,0,,,69,100
2556,note_off,,,,,60,0,5,,,,,0,,,69,100
2624,note_off,,,,,128,0,4,,,,,0,,,81,100
2688,note_on,,,,,64,0,4,,,,,0,,,81,100
2688,note_on,,,,,132,0,5,,,,,0,,,69,100
2732,note_off,,,,,44,0,4,,,,,0,,,81,100
2736,note_on,,,,,4,0,4,,,,,0,,,82,100
2748,note_off,,,,,60,0,5,,,,,0,,,69,100
2780,note_off,,,,,44,0,4,,,,,0,,,82,100
2784,note_on,,,,,4,0,4,,,,,0,,,81,100
2828,note_off,,,,,44,0,4,,,,,0,,,81,100
2832,note_on,,,,,4,0,4,,,,,0,,,82,100
2876,note_off,,,,,44,0,4,,,,,0,,,82,100
2880,note_on,,,,,132,0,5,,,,,0,,,69,100
2880,note_on,,,,,4,0,4,,,,,0,,,81,100
2924,note_off,,,,,44,0,4,,,,,0,,,81,100
2928,note_on,,,,,4,0,4,,,,,0,,,82,100
2940,note_off,,,,,60,0,5,,,,,0,,,69,100
2972,note_off,,,,,44,0,4,,,,,0,,,82,100
2976,note_on,,,,,4,0,4,,,,,0,,,81,100
3040,note_off,,,,,64,0,4,,,,,0,,,81,100
3072,note_on,,,,,32,0,4,,,,,0,,,81,100
3072,note_on,,,,,0,0,5,,,,,0,,,65,100
3072,note_on,,,,,132,0,5,,,,,0,,,69,100
3132,note_off,,,,,0,0,5,,,,,0,,,65,100
3132,note_off,,,,,60,0,5,,,,,0,,,69,100
3164,note_off,,,,,92,0,4,,,,,0,,,81,100
3168,note_on,,,,,4,0,4,,,,,0,,,79,100
3260,note_off,,,,,92,0,4,,,,,0,,,79,100
3264,note_on,,,,,132,0,5,,,,,0,,,69,100
3264,note_on,,,,,0,0,5,,,,,0,,,65,100
3264,note_on,,,,,4,0,4,,,,,0,,,77,100
3324,note_off,,,,,60,0,5,,,,,0,,,69,100
3324,note_off,,,,,0,0,5,,,,,0,,,65,100
3356,note_off,,,,,92,0,4,,,,,0,,,77,100
3360,note_on,,,,,4,0,4,,,,,0,,,76,100
3452,note_off,,,,,92,0,4,,,,,0,,,76,100
3456,note_on,,,,,132,0,5,,,,,0,,,69,100
3456,note_on,,,,,4,0,4,,,,,0,,,74,100
3456,note_on,,,,,0,0,5,,,,,0,,,65,100
3516,note_off,,,,,0,0,5,,,,,0,,,65,100
3516,note_off,,,,,60,0,5,,,,,0,,,69,100
3548,note_off,,,,,92,0,4,,,,,0,,,74,100
3552,note_on,,,,,4,0,4,,,,,0,,,72,100
3644,note_off,,,,,92,0,4,,,,,0,,,72,100
3648,note_on,,,,,132,0,5,,,,,0,,,65,100
3648,note_on,,,,,4,0,4,,,,,0,,,70,100
3740,note_off,,,,,92,0,4,,,,,0,,,70,100
3744,note_on,,,,,4,0,4,,,,,0,,,69,100
3836,note_off,,,,,92,0,4,,,,,0,,,69,100
3836,note_off,,,,,188,0,5,,,,,0,,,65,100
3840,note_on,,,,,4,0,5,,,,,0,,,55,100
3840,note_on,,,,,4,0,4,,,,,0,,,70,100
3900,note_off,,,,,60,0,5,,,,,0,,,55,100
4028,note_off,,,,,188,0,4,,,,,0,,,70,100
4032,note_on,,,,,132,0,5,,,,,0,,,70,100
4032,note_on,,,,,0,0,5,,,,,0,,,67,100
4032,note_on,,,,,4,0,4,,,,,0,,,79,100
4092,note_off,,,,,0,0,5,,,,,0,,,67,100
4092,note_off,,,,,60,0,5,,,,,0,,,70,100
4160,note_off,,,,,128,0,4,,,,,0,,,79,100
4224,note_on,,,,,64,0,4,,,,,0,,,79,100
4224,note_on,,,,,0,0,5,,,,,0,,,67,100
4224,note_on,,,,,132,0,5,,,,,0,,,70,100
4268,note_off,,,,,44,0,4,,,,,0,,,79,100
4272,note_on,,,,,4,0,4,,,,,0,,,81,100
4284,note_off,,,,,0,0,5,,,,,0,,,67,100
4284,note_off,,,,,60,0,5,,,,,0,,,70,100
4316,note_off,,,,,44,0,4,,,,,0,,,81,100
4320,note_on,,,,,4,0,4,,,,,0,,,79,100
4364,note_off,,,,,44,0,4,,,,,0,,,79,100
4368,note_on,,,,,4,0,4,,,,,0,,,81,100
4412,note_off,,,,,44,0,4,,,,,0,,,81,100
4416,note_on,,,,,0,0,5,,,,,0,,,67,100
4416,note_on,,,,,132,0,5,,,,,0,,,70,100
4416,note_on,,,,,4,0,4,,,,,0,,,79,100
4460,note_off,,,,,44,0,4,,,,,0,,,79,100
4464,note_on,,,,,4,0,4,,,,,0,,,81,100
4476,note_off,,,,,0,0,5,,,,,0,,,67,100
4476,note_off,,,,,60,0,5,,,,,0,,,70,100
4508,note_off,,,,,44,0,4,,,,,0,,,81,100
4512,note_on,,,,,4,0,4,,,,,0,,,79,100
4576,note_off,,,,,64,0,4,,,,,0,,,79,100
4608,note_on,,,,,132,0,5,,,,,0,,,64,100
4608,note_on,,,,,0,0,5,,,,,0,,,67,100
4608,note_on,,,,,32,0,4,,,,,0,,,79,100
4668,note_off,,,,,60,0,5,,,,,0,,,64,100
4668,note_off,,,,,0,0,5,,,,,0,,,67,100
4700,note_off,,,,,92,0,4,,,,,0,,,79,100
4704,note_on,,,,,4,0,4,,,,,0,,,77,100
4796,note_off,,,,,92,0,4,,,,,0,,,77,100
4800,note_on,,,,,132,0,5,,,,,0,,,64,100
4800,note_on,,,,,0,0,5,,,,,0,,,67,100
4800,note_on,,,,,4,0,4,,,,,0,,,76,100
4860,note_off,,,,,60,0,5,,,,,0,,,64,100
4860,note_off,,,,,0,0,5,,,,,0,,,67,100
4892,note_off,,,,,92,0,4,,,,,0,,,76,100
4896,note_on,,,,,4,0,4,,,,,0,,,74,100
4988,note_off,,,,,92,0,4,,,,,0,,,74,100
4992,note_on,,,,,4,0,4,,,,,0,,,72,100
4992,note_on,,,,,132,0,5,,,,,0,,,64,100
4992,note_on,,,,,0,0,5,,,,,0,,,67,100
5052,note_off,,,,,60,0,5,,,,,0,,,64,100
5052,note_off,,,,,0,0,5,,,,,0,,,67,100
5084,note_off,,,,,92,0,4,,,,,0,,,72,100
5088,note_on,,,,,4,0,4,,,,,0,,,70,100
5180,note_off,,,,,92,0,4,,,,,0,,,70,100
5184,note_on,,,,,132,0,5,,,,,0,,,64,100
5184,note_on,,,,,4,0,4,,,,,0,,,69,100
5276,note_off,,,,,92,0,4,,,,,0,,,69,100
5280,note_on,,,,,4,0,4,,,,,0,,,67,100
5372,note_off,,,,,188,0,5,,,,,0,,,64,100
5372,note_off,,,,,92,0,4,,,,,0,,,67,100
5376,note_on,,,,,4,0,5,,,,,0,,,53,100
5376,note_on,,,,,4,0,4,,,,,0,,,69,100
5436,note_off,,,,,60,0,5,,,,,0,,,53,100
5564,note_off,,,,,188,0,4,,,,,0,,,69,100
5568,note_on,,,,,132,0,5,,,,,0,,,69,100
5568,note_on,,,,,4,0,4,,,,,0,,,77,100
5568,note_on,,,,,0,0,5,,,,,0,,,65,100
5628,note_off,,,,,0,0,5,,,,,0,,,65,100
5628,note_off,,,,,60,0,5,,,,,0,,,69,100
5696,note_off,,,,,128,0,4,,,,,0,,,77,100
5760,note_on,,,,,132,0,5,,,,,0,,,69,100
5760,note_on,,,,,0,0,5,,,,,0,,,65,100
5760,note_on,,,,,64,0,4,,,,,0,,,77,100
5804,note_off,,,,,44,0,4,,,,,0,,,77,100
5808,note_on,,,,,4,0,4,,,,,0,,,79,100
5820,note_off,,,,,60,0,5,,,,,0,,,69,100
5820,note_off,,,,,0,0,5,,,,,0,,,65,100
5852,note_off,,,,,44,0,4,,,,,0,,,79,100
5856,note_on,,,,,4,0,4,,,,,0,,,77,100
5900,note_off,,,,,44,0,4,,,,,0,,,77,100
5904,note_on,,,,,4,0,4,,,,,0,,,79,100
5948,note_off,,,,,44,0,4,,,,,0,,,79,100
5952,note_on,,,,,132,0,5,,,,,0,,,69,100
5952,note_on,,,,,4,0,4,,,,,0,,,77,100
5952,note_on,,,,,0,0,5,,,,,0,,,65,100
5996,note_off,,,,,44,0,4,,,,,0,,,77,100
6000,note_on,,,,,4,0,4,,,,,0,,,79,100
6012,note_off,,,,,0,0,5,,,,,0,,,65,100
6012,note_off,,,,,60,0,5,,,,,0,,,69,100
6044,note_off,,,,,44,0,4,,,,,0,,,79,100
6048,note_on,,,,,4,0,4,,,,,0,,,77,100
6112,note_off,,,,,64,0,4,,,,,0,,,77,100
6144,note_on,,,,,32,0,4,,,,,0,,,77,100
6144,note_on,,,,,0,0,5,,,,,0,,,65,100
6144,note_on,,,,,132,0,5,,,,,0,,,62,100
6204,note_off,,,,,0,0,5,,,,,0,,,65,100
6204,note_off,,,,,60,0,5,,,,,0,,,62,100
6236,note_off,,,,,92,0,4,,,,,0,,,77,100
6240,note_on,,,,,4,0,4,,,,,0,,,76,100
6332,note_off,,,,,92,0,4,,,,,0,,,76,100
6336,note_on,,,,,4,0,4,,,,,0,,,74,100
6336,note_on,,,,,0,0,5,,,,,0,,,65,100
6336,note_on,,,,,132,0,5,,,,,0,,,62,100
6396,note_off,,,,,60,0,5,,,,,0,,,62,100
6396,note_off,,,,,0,0,5,,,,,0,,,65,100
6428,note_off,,,,,92,0,4,,,,,0,,,74,100
6432,note_on,,,,,4,0,4,,,,,0,,,72,100
6524,note_off,,,,,92,0,4,,,,,0,,,72,100
6528,note_on,,,,,4,0,4,,,,,0,,,70,100
6528,note_on,,,,,132,0,5,,,,,0,,,62,100
6528,note_on,,,,,0,0,5,,,,,0,,,65,100
6588,note_off,,,,,0,0,5,,,,,0,,,65,100
6588,note_off,,,,,60,0,5,,,,,0,,,62,100
6620,note_off,,,,,92,0,4,,,,,0,,,70,100
6624,note_on,,,,,4,0,4,,,,,0,,,69,100
6716,note_off,,,,,92,0,4,,,,,0,,,69,100
6720,note_on,,,,,4,0,4,,,,,0,,,67,100
6720,note_on,,,,,132,0,5,,,,,0,,,62,100
6812,note_off,,,,,92,0,4,,,,,0,,,67,100
6816,note_on,,,,,4,0,4,,,,,0,,,65,100
6908,note_off,,,,,92,0,4,,,,,0,,,65,100
6908,note_off,,,,,188,0,5,,,,,0,,,62,100
6912,note_on,,,,,4,0,5,,,,,0,,,52,100
6912,note_on,,,,,4,0,4,,,,,0,,,67,100
6972,note_off,,,,,60,0,5,,,,,0,,,52,100
7100,note_off,,,,,188,0,4,,,,,0,,,67,100
7104,note_on,,,,,132,0,5,,,,,0,,,64,100
7104,note_on,,,,,0,0,5,,,,,0,,,67,100
7104,note_on,,,,,4,0,4,,,,,0,,,76,100
7164,note_off,,,,,0,0,5,,,,,0,,,67,100
7164,note_off,,,,,60,0,5,,,,,0,,,64,100
7232,note_off,,,,,128,0,4,,,,,0,,,76,100
7296,note_on,,,,,0,0,5,,,,,0,,,67,100
7296,note_on,,,,,64,0,4,,,,,0,,,76,100
7296,note_on,,,,,132,0,5,,,,,0,,,64,100
7340,note_off,,,,,44,0,4,,,,,0,,,76,100
7344,note_on,,,,,4,0,4,,,,,0,,,77,100
7356,note_off,,,,,0,0,5,,,,,0,,,67,100
7356,note_off,,,,,60,0,5,,,,,0,,,64,100
7388,note_off,,,,,44,0,4,,,,,0,,,77,100
7392,note_on,,,,,4,0,4,,,,,0,,,76,100
7436,note_off,,,,,44,0,4,,,,,0,,,76,100
7440,note_on,,,,,4,0,4,,,,,0,,,77,100
7484,note_off,,,,,44,0,4,,,,,0,,,77,100
7488,note_on,,,,,4,0,4,,,,,0,,,76,100
7488,note_on,,,,,0,0,5,,,,,0,,,67,100
7488,note_on,,,,,132,0,5,,,,,0,,,64,100
7532,note_off,,,,,44,0,4,,,,,0,,,76,100
7536,note_on,,,,,4,0,4,,,,,0,,,77,100
7548,note_off,,,,,0,0,5,,,,,0,,,67,100
7548,note_off,,,,,60,0,5,,,,,0,,,64,100
7580,note_off,,,,,44,0,4,,,,,0,,,77,100
7584,note_on,,,,,4,0,4,,,,,0,,,76,100
7648,note_off,,,,,64,0,4,,,,,0,,,76,100
7680,note_on,,,,,0,0,5,,,,,0,,,64,100
7680,note_on,,,,,32,0,4,,,,,0,,,76,100
7680,note_on,,,,,132,0,5,,,,,0,,,57,100
7740,note_off,,,,,0,0,5,,,,,0,,,64,100
7740,note_off,,,,,60,0,5,,,,,0,,,57,100
7772,note_off,,,,,92,0,4,,,,,0,,,76,100
7776,note_on,,,,,4,0,4,,,,,0,,,74,100
7868,note_off,,,,,92,0,4,,,,,0,,,74,100
7872,note_on,,,,,0,0,5,,,,,0,,,64,100
7872,note_on,,,,,132,0,5,,,,,0,,,57,100
7872,note_on,,,,,4,0,4,,,,,0,,,73,100
7932,note_off,,,,,0,0,5,,,,,0,,,64,100
7932,note_off,,,,,60,0,5,,,,,0,,,57,100
7964,note_off,,,,,92,0,4,,,,,0,,,73,100
7968,note_on,,,,,4,0,4,,,,,0,,,71,100
8060,note_off,,,,,92,0,4,,,,,0,,,71,100
8064,note_on,,,,,0,0,5,,,,,0,,,64,100
8064,note_on,,,,,4,0,4,,,,,0,,,69,100
8064,note_on,,,,,132,0,5,,,,,0,,,57,100
8124,note_off,,,,,60,0,5,,,,,0,,,57,100
8124,note_off,,,,,0,0,5,,,,,0,,,64,100
8156,note_off,,,,,92,0,4,,,,,0,,,69,100
8160,note_on,,,,,4,0,4,,,,,0,,,67,100
8252,note_off,,,,,92,0,4,,,,,0,,,67,100
8256,note_on,,,,,132,0,5,,,,,0,,,57,100
8256,note_on,,,,,4,0,4,,,,,0,,,65,100
8348,note_off,,,,,92,0,4,,,,,0,,,65,100
8352,note_on,,,,,4,0,4,,,,,0,,,64,100
8444,note_off,,,,,92,0,4,,,,,0,,,64,100
8444,note_off,,,,,188,0,5,,,,,0,,,57,100
8448,note_on,,,,,4,0,5,,,,,0,,,50,100
8448,note_on,,,,,0,0,5,,,,,0,,,62,100
8448,note_on,,,,,4,0,4,,,,,0,,,65,100
8508,note_off,,,,,60,0,5,,,,,0,,,50,100
8508,note_off,,,,,0,0,5,,,,,0,,,62,100
8540,note_off,,,,,92,0,4,,,,,0,,,65,100
8544,note_on,,,,,4,0,4,,,,,0,,,62,100
8636,note_off,,,,,92,0,4,,,,,0,,,62,100
8640,note_on,,,,,4,0,4,,,,,0,,,67,100
8640,note_on,,,,,132,0,5,,,,,0,,,52,100
8732,note_off,,,,,92,0,4,,,,,0,,,67,100
8736,note_on,,,,,4,0,4,,,,,0,,,64,100
8828,note_off,,,,,92,0,4,,,,,0,,,64,100
8828,note_off,,,,,188,0,5,,,,,0,,,52,100
8832,note_on,,,,,4,0,4,,,,,0,,,69,100
8832,note_on,,,,,4,0,5,,,,,0,,,53,100
8924,note_off,,,,,92,0,4,,,,,0,,,69,100
8928,note_on,,,,,4,0,4,,,,,0,,,65,100
9020,note_off,,,,,188,0,5,,,,,0,,,53,100
9020,note_off,,,,,92,0,4,,,,,0,,,65,100
9024,note_on,,,,,4,0,4,,,,,0,,,64,100
9024,note_on,,,,,4,0,5,,,,,0,,,55,100
9116,note_off,,,,,92,0,4,,,,,0,,,64,100
9120,note_on,,,,,4,0,4,,,,,0,,,62,100
9212,note_off,,,,,188,0,5,,,,,0,,,55,100
9212,note_off,,,,,92,0,4,,,,,0,,,62,100
9216,note_on,,,,,4,0,4,,,,,0,,,61,100
9216,note_on,,,,,4,0,5,,,,,0,,,57,100
9276,note_off,,,,,60,0,5,,,,,0,,,57,100
9308,note_off,,,,,92,0,4,,,,,0,,,61,100
9312,note_on,,,,,4,0,4,,,,,0,,,57,100
9404,note_off,,,,,92,0,4,,,,,0,,,57,100
9408,note_on,,,,,4,0,4,,,,,0,,,62,100
9408,note_on,,,,,132,0,5,,,,,0,,,59,100
9468,note_off,,,,,60,0,5,,,,,0,,,59,100
9500,note_off,,,,,92,0,4,,,,,0,,,62,100
9504,note_on,,,,,4,0,4,,,,,0,,,59,100
9596,note_off,,,,,92,0,4,,,,,0,,,59,100
9600,note_on,,,,,132,0,5,,,,,0,,,61,100
9600,note_on,,,,,4,0,4,,,,,0,,,64,100
9660,note_off,,,,,60,0,5,,,,,0,,,61,100
9692,note_off,,,,,92,0,4,,,,,0,,,64,100
9696,note_on,,,,,4,0,4,,,,,0,,,61,100
9788,note_off,,,,,92,0,4,,,,,0,,,61,100
9792,note_on,,,,,4,0,4,,,,,0,,,65,100
9792,note_on,,,,,132,0,5,,,,,0,,,62,100
9852,note_off,,,,,60,0,5,,,,,0,,,62,100
9884,note_off,,,,,92,0,4,,,,,0,,,65,100
9888,note_on,,,,,4,0,4,,,,,0,,,62,100
9980,note_off,,,,,92,0,4,,,,,0,,,62,100
9984,note_on,,,,,132,0,5,,,,,0,,,64,100
9984,note_on,,,,,4,0,4,,,,,0,,,67,100
10044,note_off,,,,,60,0,5,,,,,0,,,64,100
10076,note_off,,,,,92,0,4,,,,,0,,,67,100
10080,note_on,,,,,4,0,4,,,,,0,,,64,100
10172,note_off,,,,,92,0,4,,,,,0,,,64,100
10176,note_on,,,,,132,0,5,,,,,0,,,65,100
10176,note_on,,,,,4,0,4,,,,,0,,,69,100
10236,note_off,,,,,60,0,5,,,,,0,,,65,100
10268,note_off,,,,,92,0,4,,,,,0,,,69,100
10272,note_on,,,,,4,0,4,,,,,0,,,65,100
10364,note_off,,,,,92,0,4,,,,,0,,,65,100
10368,note_on,,,,,4,0,4,,,,,0,,,71,100
10368,note_on,,,,,132,0,5,,,,,0,,,67,100
10428,note_off,,,,,60,0,5,,,,,0,,,67,100
10460,note_off,,,,,92,0,4,,,,,0,,,71,100
10464,note_on,,,,,4,0,4,,,,,0,,,67,100
10556,note_off,,,,,92,0,4,,,,,0,,,67,100
10560,note_on,,,,,132,0,5,,,,,0,,,69,100
10560,note_on,,,,,4,0,4,,,,,0,,,73,100
10620,note_off,,,,,60,0,5,,,,,0,,,69,100
10652,note_off,,,,,92,0,4,,,,,0,,,73,100
10656,note_on,,,,,4,0,4,,,,,0,,,69,100
10748,note_off,,,,,92,0,4,,,,,0,,,69,100
10752,note_on,,,,,132,0,5,,,,,0,,,71,100
10752,note_on,,,,,4,0,4,,,,,0,,,74,100
10812,note_off,,,,,60,0,5,,,,,0,,,71,100
10844,note_off,,,,,92,0,4,,,,,0,,,74,100
10848,note_on,,,,,4,0,4,,,,,0,,,71,100
10940,note_off,,,,,92,0,4,,,,,0,,,71,100
10944,note_on,,,,,4,0,4,,,,,0,,,76,100
10944,note_on,,,,,132,0,5,,,,,0,,,73,100
11004,note_off,,,,,60,0,5,,,,,0,,,73,100
11036,note_off,,,,,92,0,4,,,,,0,,,76,100
11040,note_on,,,,,4,0,4,,,,,0,,,73,100
11132,note_off,,,,,92,0,4,,,,,0,,,73,100
11136,note_on,,,,,132,0,5,,,,,0,,,74,100
11136,note_on,,,,,4,0,4,,,,,0,,,77,100
11196,note_off,,,,,60,0,5,,,,,0,,,74,100
11228,note_off,,,,,92,0,4,,,,,0,,,77,100
11232,note_on,,,,,4,0,4,,,,,0,,,74,100
11324,note_off,,,,,92,0,4,,,,,0,,,74,100
11328,note_on,,,,,132,0,5,,,,,0,,,76,100
11328,note_on,,,,,4,0,4,,,,,0,,,79,100
11388,note_off,,,,,60,0,5,,,,,0,,,76,100
11420,note_off,,,,,92,0,4,,,,,0,,,79,100
11424,note_on,,,,,4,0,4,,,,,0,,,76,100
11516,note_off,,,,,92,0,4,,,,,0,,,76,100
11520,note_on,,,,,132,0,5,,,,,0,,,77,100
11520,note_on,,,,,4,0,4,,,,,0,,,81,100
11612,note_off,,,,,92,0,5,,,,,0,,,77,100
11616,note_on,,,,,4,0,5,,,,,0,,,74,100
11708,note_off,,,,,92,0,5,,,,,0,,,74,100
11712,note_on,,,,,4,0,5,,,,,0,,,70,100
11776,note_off,,,,,256,0,4,,,,,0,,,81,100
11804,note_off,,,,,92,0,5,,,,,0,,,70,100
11808,note_on,,,,,4,0,5,,,,,0,,,67,100
11900,note_off,,,,,92,0,5,,,,,0,,,67,100
11904,note_on,,,,,4,0,5,,,,,0,,,76,100
11904,note_on,,,,,128,0,4,,,,,0,,,81,100
11996,note_off,,,,,92,0,5,,,,,0,,,76,100
11996,note_off,,,,,92,0,4,,,,,0,,,81,100
12000,note_on,,,,,4,0,5,,,,,0,,,73,100
12000,note_on,,,,,4,0,4,,,,,0,,,79,100
12044,note_off,,,,,44,0,4,,,,,0,,,79,100
12048,note_on,,,,,4,0,4,,,,,0,,,81,100
12092,note_off,,,,,92,0,5,,,,,0,,,73,100
12092,note_off,,,,,44,0,4,,,,,0,,,81,100
12096,note_on,,,,,4,0,4,,,,,0,,,79,100
12096,note_on,,,,,4,0,5,,,,,0,,,69,100
12140,note_off,,,,,44,0,4,,,,,0,,,79,100
12144,note_on,,,,,4,0,4,,,,,0,,,81,100
12188,note_off,,,,,92,0,5,,,,,0,,,69,100
12188,note_off,,,,,44,0,4,,,,,0,,,81,100
12192,note_on,,,,,4,0,4,,,,,0,,,77,100
12192,note_on,,,,,4,0,5,,,,,0,,,73,100
12236,note_off,,,,,44,0,4,,,,,0,,,77,100
12240,note_on,,,,,4,0,4,,,,,0,,,79,100
12284,note_off,,,,,92,0,5,,,,,0,,,73,100
12284,note_off,,,,,44,0,4,,,,,0,,,79,100
12288,note_on,,,,,4,0,4,,,,,0,,,81,100
12288,note_on,,,,,4,0,5,,,,,0,,,77,100
12380,note_off,,,,,92,0,5,,,,,0,,,77,100
12384,note_on,,,,,4,0,5,,,,,0,,,74,100
12476,note_off,,,,,92,0,5,,,,,0,,,74,100
12480,note_on,,,,,4,0,5,,,,,0,,,70,100
12544,note_off,,,,,256,0,4,,,,,0,,,81,100
12572,note_off,,,,,92,0,5,,,,,0,,,70,100
12576,note_on,,,,,4,0,5,,,,,0,,,67,100
12668,note_off,,,,,92,0,5,,,,,0,,,67,100
12672,note_on,,,,,128,0,4,,,,,0,,,81,100
12672,note_on,,,,,4,0,5,,,,,0,,,76,100
12764,note_off,,,,,92,0,4,,,,,0,,,81,100
12764,note_off,,,,,92,0,5,,,,,0,,,76,100
12768,note_on,,,,,4,0,4,,,,,0,,,79,100
12768,note_on,,,,,4,0,5,,,,,0,,,73,100
12812,note_off,,,,,44,0,4,,,,,0,,,79,100
12816,note_on,,,,,4,0,4,,,,,0,,,81,100
12860,note_off,,,,,44,0,4,,,,,0,,,81,100
12860,note_off,,,,,92,0,5,,,,,0,,,73,100
12864,note_on,,,,,4,0,5,,,,,0,,,69,100
12864,note_on,,,,,4,0,4,,,,,0,,,79,100
12908,note_off,,,,,44,0,4,,,,,0,,,79,100
12912,note_on,,,,,4,0,4,,,,,0,,,81,100
12956,note_off,,,,,44,0,4,,,,,0,,,81,100
12956,note_off,,,,,92,0,5,,,,,0,,,69,100
12960,note_on,,,,,4,0,4,,,,,0,,,77,100
12960,note_on,,,,,4,0,5,,,,,0,,,73,100
13004,note_off,,,,,44,0,4,,,,,0,,,77,100
13008,note_on,,,,,4,0,4,,,,,0,,,79,100
13052,note_off,,,,,44,0,4,,,,,0,,,79,100
13052,note_off,,,,,92,0,5,,,,,0,,,73,100
13056,note_on,,,,,4,0,4,,,,,0,,,81,100
13056,note_on,,,,,4,0,5,,,,,0,,,77,100
13148,note_off,,,,,92,0,5,,,,,0,,,77,100
13152,note_on,,,,,4,0,5,,,,,0,,,74,100
13244,note_off,,,,,92,0,5,,,,,0,,,74,100
13248,note_on,,,,,4,0,5,,,,,0,,,70,100
13312,note_off,,,,,256,0,4,,,,,0,,,81,100
13340,note_off,,,,,92,0,5,,,,,0,,,70,100
13344,note_on,,,,,4,0,5,,,,,0,,,67,100
13436,note_off,,,,,92,0,5,,,,,0,,,67,100
13440,note_on,,,,,128,0,4,,,,,0,,,81,100
13440,note_on,,,,,4,0,5,,,,,0,,,76,100
13532,note_off,,,,,92,0,4,,,,,0,,,81,100
13532,note_off,,,,,92,0,5,,,,,0,,,76,100
13536,note_on,,,,,4,0,5,,,,,0,,,73,100
13536,note_on,,,,,4,0,4,,,,,0,,,79,100
13580,note_off,,,,,44,0,4,,,,,0,,,79,100
13584,note_on,,,,,4,0,4,,,,,0,,,81,100
13628,note_off,,,,,92,0,5,,,,,0,,,73,100
13628,note_off,,,,,44,0,4,,,,,0,,,81,100
13632,note_on,,,,,4,0,4,,,,,0,,,79,100
13632,note_on,,,,,4,0,5,,,,,0,,,69,100
13676,note_off,,,,,44,0,4,,,,,0,,,79,100
13680,note_on,,,,,4,0,4,,,,,0,,,81,100
13724,note_off,,,,,44,0,4,,,,,0,,,81,100
13724,note_off,,,,,92,0,5,,,,,0,,,69,100
13728,note_on,,,,,4,0,4,,,,,0,,,77,100
13728,note_on,,,,,4,0,5,,,,,0,,,73,100
13772,note_off,,,,,44,0,4,,,,,0,,,77,100
13776,note_on,,,,,4,0,4,,,,,0,,,79,100
13820,note_off,,,,,44,0,4,,,,,0,,,79,100
13820,note_off,,,,,92,0,5,,,,,0,,,73,100
13824,note_on,,,,,0,0,5,,,,,0,,,74,100
13824,note_on,,,,,4,0,5,,,,,0,,,62,100
13824,note_on,,,,,4,0,4,,,,,0,,,77,100
13884,note_off,,,,,0,0,5,,,,,0,,,74,100
13884,note_off,,,,,60,0,5,,,,,0,,,62,100
13916,note_off,,,,,92,0,4,,,,,0,,,77,100
13920,note_on,,,,,4,0,4,,,,,0,,,74,100
14012,note_off,,,,,92,0,4,,,,,0,,,74,100
14016,note_on,,,,,4,0,4,,,,,0,,,79,100
14016,note_on,,,,,132,0,5,,,,,0,,,64,100
14108,note_off,,,,,92,0,4,,,,,0,,,79,100
14112,note_on,,,,,4,0,4,,,,,0,,,76,100
14204,note_off,,,,,188,0,5,,,,,0,,,64,100
14204,note_off,,,,,92,0,4,,,,,0,,,76,100
14208,note_on,,,,,4,0,4,,,,,0,,,81,100
14208,note_on,,,,,4,0,5,,,,,0,,,65,100
14300,note_off,,,,,92,0,4,,,,,0,,,81,100
14304,note_on,,,,,4,0,4,,,,,0,,,77,100
14396,note_off,,,,,92,0,4,,,,,0,,,77,100
14396,note_off,,,,,188,0,5,,,,,0,,,65,100
14400,note_on,,,,,4,0,4,,,,,0,,,76,100
14400,note_on,,,,,4,0,5,,,,,0,,,67,100
14492,note_off,,,,,92,0,4,,,,,0,,,76,100
14496,note_on,,,,,4,0,4,,,,,0,,,74,100
14588,note_off,,,,,92,0,4,,,,,0,,,74,100
14588,note_off,,,,,188,0,5,,,,,0,,,67,100
14592,note_on,,,,,4,0,5,,,,,0,,,57,100
14592,note_on,,,,,0,0,5,,,,,0,,,69,100
14592,note_on,,,,,4,0,4,,,,,0,,,73,100
14652,note_off,,,,,60,0,5,,,,,0,,,57,100
14652,note_off,,,,,0,0,5,,,,,0,,,69,100
14684,note_off,,,,,92,0,4,,,,,0,,,73,100
14688,note_on,,,,,4,0,4,,,,,0,,,69,100
14780,note_off,,,,,92,0,4,,,,,0,,,69,100
14784,note_on,,,,,132,0,5,,,,,0,,,59,100
14784,note_on,,,,,4,0,4,,,,,0,,,74,100
14876,note_off,,,,,92,0,4,,,,,0,,,74,100
14880,note_on,,,,,4,0,4,,,,,0,,,71,100
14972,note_off,,,,,92,0,4,,,,,0,,,71,100
14972,note_off,,,,,188,0,5,,,,,0,,,59,100
14976,note_on,,,,,4,0,4,,,,,0,,,76,100
14976,note_on,,,,,4,0,5,,,,,0,,,61,100
15068,note_off,,,,,92,0,4,,,,,0,,,76,100
15072,note_on,,,,,4,0,4,,,,,0,,,67,100
15164,note_off,,,,,92,0,4,,,,,0,,,67,100
15164,note_off,,,,,188,0,5,,,,,0,,,61,100
15168,note_on,,,,,4,0,5,,,,,0,,,57,100
15168,note_on,,,,,4,0,4,,,,,0,,,65,100
15260,note_off,,,,,92,0,4,,,,,0,,,65,100
15264,note_on,,,,,4,0,4,,,,,0,,,64,100
15356,note_off,,,,,188,0,5,,,,,0,,,57,100
15356,note_off,,,,,92,0,4,,,,,0,,,64,100
15360,note_on,,,,,0,0,5,,,,,0,,,62,100
15360,note_on,,,,,4,0,5,,,,,0,,,50,100
15360,note_on,,,,,4,0,4,,,,,0,,,65,100
15420,note_off,,,,,60,0,5,,,,,0,,,50,100
15420,note_off,,,,,0,0,5,,,,,0,,,62,100
15452,note_off,,,,,92,0,4,,,,,0,,,65,100
15456,note_on,,,,,4,0,4,,,,,0,,,62,100
15548,note_off,,,,,92,0,4,,,,,0,,,62,100
15552,note_on,,,,,4,0,4,,,,,0,,,67,100
15552,note_on,,,,,132,0,5,,,,,0,,,52,100
15644,note_off,,,,,92,0,4,,,,,0,,,67,100
15648,note_on,,,,,4,0,4,,,,,0,,,64,100
15740,note_off,,,,,92,0,4,,,,,0,,,64,100
15740,note_off,,,,,188,0,5,,,,,0,,,52,100
15744,note_on,,,,,4,0,4,,,,,0,,,69,100
15744,note_on,,,,,4,0,5,,,,,0,,,53,100
15836,note_off,,,,,92,0,4,,,,,0,,,69,100
15840,note_on,,,,,4,0,4,,,,,0,,,65,100
15932,note_off,,,,,92,0,4,,,,,0,,,65,100
15932,note_off,,,,,188,0,5,,,,,0,,,53,100
15936,note_on,,,,,4,0,4,,,,,0,,,64,100
15936,note_on,,,,,4,0,5,,,,,0,,,55,100
16028,note_off,,,,,92,0,4,,,,,0,,,64,100
16032,note_on,,,,,4,0,4,,,,,0,,,62,100
16124,note_off,,,,,188,0,5,,,,,0,,,55,100
16124,note_off,,,,,92,0,4,,,,,0,,,62,100
16128,note_on,,,,,4,0,5,,,,,0,,,57,100
16128,note_on,,,,,4,0,4,,,,,0,,,61,100
16188,note_off,,,,,60,0,5,,,,,0,,,57,100
16220,note_off,,,,,92,0,4,,,,,0,,,61,100
16224,note_on,,,,,4,0,4,,,,,0,,,57,100
16316,note_off,,,,,92,0,4,,,,,0,,,57,100
16320,note_on,,,,,132,0,5,,,,,0,,,59,100
16320,note_on,,,,,4,0,4,,,,,0,,,62,100
16380,note_off,,,,,60,0,5,,,,,0,,,59,100
16412,note_off,,,,,92,0,4,,,,,0,,,62,100
16416,note_on,,,,,4,0,4,,,,,0,,,59,100
16508,note_off,,,,,92,0,4,,,,,0,,,59,100
16512,note_on,,,,,132,0,5,,,,,0,,,61,100
16512,note_on,,,,,4,0,4,,,,,0,,,64,100
16572,note_off,,,,,60,0,5,,,,,0,,,61,100
16604,note_off,,,,,92,0,4,,,,,0,,,64,100
16608,note_on,,,,,4,0,4,,,,,0,,,61,100
16700,note_off,,,,,92,0,4,,,,,0,,,61,100
16704,note_on,,,,,132,0,5,,,,,0,,,62,100
16704,note_on,,,,,4,0,4,,,,,0,,,65,100
16764,note_off,,,,,60,0,5,,,,,0,,,62,100
16796,note_off,,,,,92,0,4,,,,,0,,,65,100
16800,note_on,,,,,4,0,4,,,,,0,,,62,100
16892,note_off,,,,,92,0,4,,,,,0,,,62,100
16896,note_on,,,,,132,0,5,,,,,0,,,52,100
16896,note_on,,,,,4,0,4,,,,,0,,,67,100
16960,note_off,,,,,64,0,4,,,,,0,,,67,100
16988,note_off,,,,,92,0,5,,,,,0,,,52,100
16992,note_on,,,,,32,0,4,,,,,0,,,67,100
16992,note_on,,,,,4,0,5,,,,,0,,,64,100
17084,note_off,,,,,92,0,4,,,,,0,,,67,100
17084,note_off,,,,,92,0,5,,,,,0,,,64,100
17088,note_on,,,,,4,0,4,,,,,0,,,65,100
17088,note_on,,,,,4,0,5,,,,,0,,,62,100
17180,note_off,,,,,92,0,5,,,,,0,,,62,100
17180,note_off,,,,,92,0,4,,,,,0,,,65,100
17184,note_on,,,,,4,0,4,,,,,0,,,64,100
17184,note_on,,,,,4,0,5,,,,,0,,,61,100
17276,note_off,,,,,92,0,5,,,,,0,,,61,100
17276,note_off,,,,,92,0,4,,,,,0,,,64,100
17280,note_on,,,,,4,0,4,,,,,0,,,65,100
17280,note_on,,,,,4,0,5,,,,,0,,,62,100
17340,note_off,,,,,60,0,5,,,,,0,,,62,100
17408,note_off,,,,,128,0,4,,,,,0,,,65,100
17472,note_on,,,,,132,0,5,,,,,0,,,58,100
17472,note_on,,,,,64,0,4,,,,,0,,,67,100
17516,note_off,,,,,44,0,4,,,,,0,,,67,100
17520,note_on,,,,,4,0,4,,,,,0,,,69,100
17532,note_off,,,,,60,0,5,,,,,0,,,58,100
17564,note_off,,,,,44,0,4,,,,,0,,,69,100
17568,note_on,,,,,4,0,4,,,,,0,,,65,100
17612,note_off,,,,,44,0,4,,,,,0,,,65,100
17616,note_on,,,,,4,0,4,,,,,0,,,67,100
17660,note_off,,,,,44,0,4,,,,,0,,,67,100
17664,note_on,,,,,132,0,5,,,,,0,,,45,100
17664,note_on,,,,,4,0,4,,,,,0,,,69,100
17756,note_off,,,,,92,0,4,,,,,0,,,69,100
17760,note_on,,,,,4,0,4,,,,,0,,,64,100
17852,note_off,,,,,92,0,4,,,,,0,,,64,100
17856,note_on,,,,,4,0,4,,,,,0,,,65,100
17920,note_off,,,,,256,0,5,,,,,0,,,45,100
17948,note_off,,,,,92,0,4,,,,,0,,,65,100
17952,note_on,,,,,4,0,4,,,,,0,,,62,100
18044,note_off,,,,,92,0,4,,,,,0,,,62,100
18048,note_on,,,,,4,0,4,,,,,0,,,64,100
18140,note_off,,,,,92,0,4,,,,,0,,,64,100
18144,note_on,,,,,4,0,4,,,,,0,,,61,100
18236,note_off,,,,,92,0,4,,,,,0,,,61,100
18240,note_on,,,,,320,0,5,,,,,0,,,62,100
18240,note_on,,,,,4,0,4,,,,,0,,,65,100
18332,note_off,,,,,92,0,5,,,,,0,,,62,100
18336,note_on,,,,,4,0,5,,,,,0,,,59,100
18428,note_off,,,,,188,0,4,,,,,0,,,65,100
18428,note_off,,,,,92,0,5,,,,,0,,,59,100
18432,note_on,,,,,4,0,5,,,,,0,,,61,100
18432,note_on,,,,,4,0,4,,,,,0,,,64,100
18524,note_off,,,,,92,0,5,,,,,0,,,61,100
18528,note_on,,,,,4,0,5,,,,,0,,,57,100
18620,note_off,,,,,188,0,4,,,,,0,,,64,100
18620,note_off,,,,,92,0,5,,,,,0,,,57,100
18624,note_on,,,,,4,0,4,,,,,0,,,62,100
18624,note_on,,,,,4,0,5,,,,,0,,,59,100
18716,note_off,,,,,92,0,5,,,,,0,,,59,100
18720,note_on,,,,,4,0,5,,,,,0,,,56,100
18812,note_off,,,,,92,0,5,,,,,0,,,56,100
18812,note_off,,,,,188,0,4,,,,,0,,,62,100
18816,note_on,,,,,4,0,5,,,,,0,,,57,100
18816,note_on,,,,,4,0,4,,,,,0,,,61,100
18908,note_off,,,,,92,0,5,,,,,0,,,57,100
18912,note_on,,,,,4,0,5,,,,,0,,,52,100
18944,note_off,,,,,128,0,4,,,,,0,,,61,100
19004,note_off,,,,,92,0,5,,,,,0,,,52,100
19008,note_on,,,,,4,0,5,,,,,0,,,49,100
19100,note_off,,,,,92,0,5,,,,,0,,,49,100
19104,note_on,,,,,4,0,5,,,,,0,,,52,100
19168,note_off,,,,,64,0,5,,,,,0,,,52,100
19200,note_on,,,,,32,0,5,,,,,0,,,45,100
19244,note_off,,,,,44,0,5,,,,,0,,,45,100
19248,note_on,,,,,4,0,5,,,,,0,,,46,100
19292,note_off,,,,,44,0,5,,,,,0,,,46,100
19296,note_on,,,,,4,0,5,,,,,0,,,45,100
19552,note_off,,,,,256,0,5,,,,,0,,,45,100
19968,note_on,,,,,1024,0,4,,,,,0,,,74,100
20060,note_off,,,,,92,0,4,,,,,0,,,74,100
20064,note_on,,,,,4,0,4,,,,,0,,,76,100
20156,note_off,,,,,92,0,4,,,,,0,,,76,100
20160,note_on,,,,,4,0,4,,,,,0,,,77,100
20252,note_off,,,,,92,0,4,,,,,0,,,77,100
20256,note_on,,,,,4,0,4,,,,,0,,,79,100
20348,note_off,,,,,92,0,4,,,,,0,,,79,100
20352,note_on,,,,,4,0,4,,,,,0,,,81,100
20444,note_off,,,,,92,0,4,,,,,0,,,81,100
20448,note_on,,,,,4,0,4,,,,,0,,,69,100
20540,note_off,,,,,92,0,4,,,,,0,,,69,100
20544,note_on,,,,,4,0,4,,,,,0,,,73,100
20636,note_off,,,,,92,0,4,,,,,0,,,73,100
20640,note_on,,,,,4,0,4,,,,,0,,,69,100
20732,note_off,,,,,92,0,4,,,,,0,,,69,100
20736,note_on,,,,,4,0,4,,,,,0,,,74,100
20736,note_on,,,,,1184,0,5,,,,,0,,,62,100
20828,note_off,,,,,92,0,5,,,,,0,,,62,100
20832,note_on,,,,,4,0,5,,,,,0,,,64,100
20924,note_off,,,,,92,0,5,,,,,0,,,64,100
20928,note_on,,,,,4,0,5,,,,,0,,,65,100
21020,note_off,,,,,92,0,5,,,,,0,,,65,100
21024,note_on,,,,,4,0,5,,,,,0,,,67,100
21116,note_off,,,,,92,0,5,,,,,0,,,67,100
21120,note_on,,,,,4,0,5,,,,,0,,,69,100
21212,note_off,,,,,92,0,5,,,,,0,,,69,100
21216,note_on,,,,,4,0,5,,,,,0,,,57,100
21308,note_off,,,,,92,0,5,,,,,0,,,57,100
21308,note_off,,,,,572,0,4,,,,,0,,,74,100
21312,note_on,,,,,4,0,4,,,,,0,,,76,100
21312,note_on,,,,,4,0,5,,,,,0,,,61,100
21404,note_off,,,,,92,0,5,,,,,0,,,61,100
21408,note_on,,,,,4,0,5,,,,,0,,,57,100
21500,note_off,,,,,92,0,5,,,,,0,,,57,100
21500,note_off,,,,,188,0,4,,,,,0,,,76,100
21504,note_on,,,,,4,0,4,,,,,0,,,77,100
21504,note_on,,,,,4,0,5,,,,,0,,,62,100
21596,note_off,,,,,92,0,4,,,,,0,,,77,100
21600,note_on,,,,,4,0,4,,,,,0,,,74,100
21692,note_off,,,,,92,0,4,,,,,0,,,74,100
21692,note_off,,,,,188,0,5,,,,,0,,,62,100
21696,note_on,,,,,4,0,4,,,,,0,,,79,100
21696,note_on,,,,,4,0,5,,,,,0,,,64,100
21788,note_off,,,,,92,0,4,,,,,0,,,79,100
21792,note_on,,,,,4,0,4,,,,,0,,,76,100
21884,note_off,,,,,188,0,5,,,,,0,,,64,100
21884,note_off,,,,,92,0,4,,,,,0,,,76,100
21888,note_on,,,,,4,0,5,,,,,0,,,65,100
21888,note_on,,,,,4,0,4,,,,,0,,,81,100
21980,note_off,,,,,92,0,4,,,,,0,,,81,100
21984,note_on,,,,,4,0,4,,,,,0,,,77,100
22076,note_off,,,,,188,0,5,,,,,0,,,65,100
22076,note_off,,,,,92,0,4,,,,,0,,,77,100
22080,note_on,,,,,4,0,5,,,,,0,,,67,100
22080,note_on,,,,,4,0,4,,,,,0,,,76,100
22172,note_off,,,,,92,0,4,,,,,0,,,76,100
22176,note_on,,,,,4,0,4,,,,,0,,,74,100
22268,note_off,,,,,92,0,4,,,,,0,,,74,100
22268,note_off,,,,,188,0,5,,,,,0,,,67,100
22272,note_on,,,,,4,0,4,,,,,0,,,73,100
22272,note_on,,,,,4,0,5,,,,,0,,,69,100
22332,note_off,,,,,60,0,5,,,,,0,,,69,100
22460,note_off,,,,,188,0,4,,,,,0,,,73,100
22464,note_on,,,,,132,0,5,,,,,0,,,69,100
22464,note_on,,,,,4,0,4,,,,,0,,,81,100
22524,note_off,,,,,60,0,5,,,,,0,,,69,100
22592,note_off,,,,,128,0,4,,,,,0,,,81,100
22656,note_on,,,,,132,0,5,,,,,0,,,69,100
22656,note_on,,,,,64,0,4,,,,,0,,,81,100
22700,note_off,,,,,44,0,4,,,,,0,,,81,100
22704,note_on,,,,,4,0,4,,,,,0,,,82,100
22716,note_off,,,,,60,0,5,,,,,0,,,69,100
22748,note_off,,,,,44,0,4,,,,,0,,,82,100
22752,note_on,,,,,4,0,4,,,,,0,,,81,100
22796,note_off,,,,,44,0,4,,,,,0,,,81,100
22800,note_on,,,,,4,0,4,,,,,0,,,82,100
22844,note_off,,,,,44,0,4,,,,,0,,,82,100
22848,note_on,,,,,4,0,4,,,,,0,,,81,100
22848,note_on,,,,,132,0,5,,,,,0,,,69,100
22892,note_off,,,,,44,0,4,,,,,0,,,81,100
22896,note_on,,,,,4,0,4,,,,,0,,,82,100
22908,note_off,,,,,60,0,5,,,,,0,,,69,100
22940,note_off,,,,,44,0,4,,,,,0,,,82,100
22944,note_on,,,,,4,0,4,,,,,0,,,81,100
23008,note_off,,,,,64,0,4,,,,,0,,,81,100
23040,note_on,,,,,0,0,5,,,,,0,,,65,100
23040,note_on,,,,,32,0,4,,,,,0,,,81,100
23040,note_on,,,,,132,0,5,,,,,0,,,69,100
23100,note_off,,,,,0,0,5,,,,,0,,,65,100
23100,note_off,,,,,60,0,5,,,,,0,,,69,100
23132,note_off,,,,,92,0,4,,,,,0,,,81,100
23136,note_on,,,,,4,0,4,,,,,0,,,79,100
23228,note_off,,,,,92,0,4,,,,,0,,,79,100
23232,note_on,,,,,0,0,5,,,,,0,,,65,100
23232,note_on,,,,,4,0,4,,,,,0,,,77,100
23232,note_on,,,,,132,0,5,,,,,0,,,69,100
23292,note_off,,,,,0,0,5,,,,,0,,,65,100
23292,note_off,,,,,60,0,5,,,,,0,,,69,100
23324,note_off,,,,,92,0,4,,,,,0,,,77,100
23328,note_on,,,,,4,0,4,,,,,0,,,76,100
23420,note_off,,,,,92,0,4,,,,,0,,,76,100
23424,note_on,,,,,4,0,4,,,,,0,,,74,100
23424,note_on,,,,,0,0,5,,,,,0,,,65,100
23424,note_on,,,,,132,0,5,,,,,0,,,69,100
23484,note_off,,,,,0,0,5,,,,,0,,,65,100
23484,note_off,,,,,60,0,5,,,,,0,,,69,100
23516,note_off,,,,,92,0,4,,,,,0,,,74,100
23520,note_on,,,,,4,0,4,,,,,0,,,72,100
23612,note_off,,,,,92,0,4,,,,,0,,,72,100
23616,note_on,,,,,4,0,4,,,,,0,,,70,100
23616,note_on,,,,,132,0,5,,,,,0,,,65,100
23708,note_off,,,,,92,0,4,,,,,0,,,70,100
23712,note_on,,,,,4,0,4,,,,,0,,,69,100
23804,note_off,,,,,92,0,4,,,,,0,,,69,100
23804,note_off,,,,,188,0,5,,,,,0,,,65,100
23808,note_on,,,,,4,0,4,,,,,0,,,70,100
23808,note_on,,,,,4,0,5,,,,,0,,,55,100
23868,note_off,,,,,60,0,5,,,,,0,,,55,100
23996,note_off,,,,,188,0,4,,,,,0,,,70,100
24000,note_on,,,,,4,0,4,,,,,0,,,79,100
24000,note_on,,,,,0,0,5,,,,,0,,,67,100
24000,note_on,,,,,132,0,5,,,,,0,,,70,100
24060,note_off,,,,,60,0,5,,,,,0,,,70,100
24060,note_off,,,,,0,0,5,,,,,0,,,67,100
24128,note_off,,,,,128,0,4,,,,,0,,,79,100
24192,note_on,,,,,64,0,4,,,,,0,,,79,100
24192,note_on,,,,,0,0,5,,,,,0,,,67,100
24192,note_on,,,,,132,0,5,,,,,0,,,70,100
24236,note_off,,,,,44,0,4,,,,,0,,,79,100
24240,note_on,,,,,4,0,4,,,,,0,,,81,100
24252,note_off,,,,,0,0,5,,,,,0,,,67,100
24252,note_off,,,,,60,0,5,,,,,0,,,70,100
24284,note_off,,,,,44,0,4,,,,,0,,,81,100
24288,note_on,,,,,4,0,4,,,,,0,,,79,100
24332,note_off,,,,,44,0,4,,,,,0,,,79,100
24336,note_on,,,,,4,0,4,,,,,0,,,81,100
24380,note_off,,,,,44,0,4,,,,,0,,,81,100
24384,note_on,,,,,4,0,4,,,,,0,,,79,100
24384,note_on,,,,,132,0,5,,,,,0,,,70,100
24384,note_on,,,,,0,0,5,,,,,0,,,67,100
24428,note_off,,,,,44,0,4,,,,,0,,,79,100
24432,note_on,,,,,4,0,4,,,,,0,,,81,100
24444,note_off,,,,,60,0,5,,,,,0,,,70,100
24444,note_off,,,,,0,0,5,,,,,0,,,67,100
24476,note_off,,,,,44,0,4,,,,,0,,,81,100
24480,note_on,,,,,4,0,4,,,,,0,,,79,100
24544,note_off,,,,,64,0,4,,,,,0,,,79,100
24576,note_on,,,,,32,0,4,,,,,0,,,79,100
24576,note_on,,,,,132,0,5,,,,,0,,,64,100
24576,note_on,,,,,0,0,5,,,,,0,,,67,100
24636,note_off,,,,,0,0,5,,,,,0,,,67,100
24636,note_off,,,,,60,0,5,,,,,0,,,64,100
24668,note_off,,,,,92,0,4,,,,,0,,,79,100
24672,note_on,,,,,4,0,4,,,,,0,,,77,100
24764,note_off,,,,,92,0,4,,,,,0,,,77,100
24768,note_on,,,,,4,0,4,,,,,0,,,76,100
24768,note_on,,,,,0,0,5,,,,,0,,,67,100
24768,note_on,,,,,132,0,5,,,,,0,,,64,100
24828,note_off,,,,,0,0,5,,,,,0,,,67,100
24828,note_off,,,,,60,0,5,,,,,0,,,64,100
24860,note_off,,,,,92,0,4,,,,,0,,,76,100
24864,note_on,,,,,4,0,4,,,,,0,,,74,100
24956,note_off,,,,,92,0,4,,,,,0,,,74,100
24960,note_on,,,,,4,0,4,,,,,0,,,72,100
24960,note_on,,,,,0,0,5,,,,,0,,,67,100
24960,note_on,,,,,132,0,5,,,,,0,,,64,100
25020,note_off,,,,,0,0,5,,,,,0,,,67,100
25020,note_off,,,,,60,0,5,,,,,0,,,64,100
25052,note_off,,,,,92,0,4,,,,,0,,,72,100
25056,note_on,,,,,4,0,4,,,,,0,,,70,100
25148,note_off,,,,,92,0,4,,,,,0,,,70,100
25152,note_on,,,,,4,0,4,,,,,0,,,69,100
25152,note_on,,,,,132,0,5,,,,,0,,,64,100
25244,note_off,,,,,92,0,4,,,,,0,,,69,100
25248,note_on,,,,,4,0,4,,,,,0,,,67,100
25340,note_off,,,,,92,0,4,,,,,0,,,67,100
25340,note_off,,,,,188,0,5,,,,,0,,,64,100
25344,note_on,,,,,4,0,4,,,,,0,,,69,100
25344,note_on,,,,,4,0,5,,,,,0,,,53,100
25404,note_off,,,,,60,0,5,,,,,0,,,53,100
25532,note_off,,,,,188,0,4,,,,,0,,,69,100
25536,note_on,,,,,4,0,4,,,,,0,,,77,100
25536,note_on,,,,,0,0,5,,,,,0,,,65,100
25536,note_on,,,,,132,0,5,,,,,0,,,69,100
25596,note_off,,,,,60,0,5,,,,,0,,,69,100
25596,note_off,,,,,0,0,5,,,,,0,,,65,100
25664,note_off,,,,,128,0,4,,,,,0,,,77,100
25728,note_on,,,,,64,0,4,,,,,0,,,77,100
25728,note_on,,,,,132,0,5,,,,,0,,,69,100
25728,note_on,,,,,0,0,5,,,,,0,,,65,100
25772,note_off,,,,,44,0,4,,,,,0,,,77,100
25776,note_on,,,,,4,0,4,,,,,0,,,79,100
25788,note_off,,,,,60,0,5,,,,,0,,,69,100
25788,note_off,,,,,0,0,5,,,,,0,,,65,100
25820,note_off,,,,,44,0,4,,,,,0,,,79,100
25824,note_on,,,,,4,0,4,,,,,0,,,77,100
25868,note_off,,,,,44,0,4,,,,,0,,,77,100
25872,note_on,,,,,4,0,4,,,,,0,,,79,100
25916,note_off,,,,,44,0,4,,,,,0,,,79,100
25920,note_on,,,,,132,0,5,,,,,0,,,69,100
25920,note_on,,,,,0,0,5,,,,,0,,,65,100
25920,note_on,,,,,4,0,4,,,,,0,,,77,100
25964,note_off,,,,,44,0,4,,,,,0,,,77,100
25968,note_on,,,,,4,0,4,,,,,0,,,79,100
25980,note_off,,,,,0,0,5,,,,,0,,,65,100
25980,note_off,,,,,60,0,5,,,,,0,,,69,100
26012,note_off,,,,,44,0,4,,,,,0,,,79,100
26016,note_on,,,,,4,0,4,,,,,0,,,77,100
26080,note_off,,,,,64,0,4,,,,,0,,,77,100
26112,note_on,,,,,32,0,4,,,,,0,,,77,100
26112,note_on,,,,,132,0,5,,,,,0,,,62,100
26112,note_on,,,,,0,0,5,,,,,0,,,65,100
26172,note_off,,,,,60,0,5,,,,,0,,,62,100
26172,note_off,,,,,0,0,5,,,,,0,,,65,100
26204,note_off,,,,,92,0,4,,,,,0,,,77,100
26208,note_on,,,,,4,0,4,,,,,0,,,76,100
26300,note_off,,,,,92,0,4,,,,,0,,,76,100
26304,note_on,,,,,0,0,5,,,,,0,,,65,100
26304,note_on,,,,,132,0,5,,,,,0,,,62,100
26304,note_on,,,,,4,0,4,,,,,0,,,74,100
26364,note_off,,,,,0,0,5,,,,,0,,,65,100
26364,note_off,,,,,60,0,5,,,,,0,,,62,100
26396,note_off,,,,,92,0,4,,,,,0,,,74,100
26400,note_on,,,,,4,0,4,,,,,0,,,72,100
26492,note_off,,,,,92,0,4,,,,,0,,,72,100
26496,note_on,,,,,132,0,5,,,,,0,,,62,100
26496,note_on,,,,,0,0,5,,,,,0,,,65,100
26496,note_on,,,,,4,0,4,,,,,0,,,70,100
26556,note_off,,,,,60,0,5,,,,,0,,,62,100
26556,note_off,,,,,0,0,5,,,,,0,,,65,100
26588,note_off,,,,,92,0,4,,,,,0,,,70,100
26592,note_on,,,,,4,0,4,,,,,0,,,69,100
26684,note_off,,,,,92,0,4,,,,,0,,,69,100
26688,note_on,,,,,132,0,5,,,,,0,,,62,100
26688,note_on,,,,,4,0,4,,,,,0,,,67,100
26780,note_off,,,,,92,0,4,,,,,0,,,67,100
26784,note_on,,,,,4,0,4,,,,,0,,,65,100
26876,note_off,,,,,188,0,5,,,,,0,,,62,100
26876,note_off,,,,,92,0,4,,,,,0,,,65,100
26880,note_on,,,,,4,0,5,,,,,0,,,52,100
26880,note_on,,,,,4,0,4,,,,,0,,,67,100
26940,note_off,,,,,60,0,5,,,,,0,,,52,100
27068,note_off,,,,,188,0,4,,,,,0,,,67,100
27072,note_on,,,,,132,0,5,,,,,0,,,64,100
27072,note_on,,,,,0,0,5,,,,,0,,,67,100
27072,note_on,,,,,4,0,4,,,,,0,,,76,100
27132,note_off,,,,,60,0,5,,,,,0,,,64,100
27132,note_off,,,,,0,0,5,,,,,0,,,67,100
27200,note_off,,,,,128,0,4,,,,,0,,,76,100
27264,note_on,,,,,0,0,5,,,,,0,,,67,100
27264,note_on,,,,,132,0,5,,,,,0,,,64,100
27264,note_on,,,,,64,0,4,,,,,0,,,76,100
27308,note_off,,,,,44,0,4,,,,,0,,,76,100
27312,note_on,,,,,4,0,4,,,,,0,,,77,100
27324,note_off,,,,,60,0,5,,,,,0,,,64,100
27324,note_off,,,,,0,0,5,,,,,0,,,67,100
27356,note_off,,,,,44,0,4,,,,,0,,,77,100
27360,note_on,,,,,4,0,4,,,,,0,,,76,100
27404,note_off,,,,,44,0,4,,,,,0,,,76,100
27408,note_on,,,,,4,0,4,,,,,0,,,77,100
27452,note_off,,,,,44,0,4,,,,,0,,,77,100
27456,note_on,,,,,132,0,5,,,,,0,,,64,100
27456,note_on,,,,,0,0,5,,,,,0,,,67,100
27456,note_on,,,,,4,0,4,,,,,0,,,76,100
27500,note_off,,,,,44,0,4,,,,,0,,,76,100
27504,note_on,,,,,4,0,4,,,,,0,,,77,100
27516,note_off,,,,,60,0,5,,,,,0,,,64,100
27516,note_off,,,,,0,0,5,,,,,0,,,67,100
27548,note_off,,,,,44,0,4,,,,,0,,,77,100
27552,note_on,,,,,4,0,4,,,,,0,,,76,100
27616,note_off,,,,,64,0,4,,,,,0,,,76,100
27648,note_on,,,,,132,0,5,,,,,0,,,57,100
27648,note_on,,,,,0,0,5,,,,,0,,,64,100
27648,note_on,,,,,32,0,4,,,,,0,,,76,100
27708,note_off,,,,,0,0,5,,,,,0,,,64,100
27708,note_off,,,,,60,0,5,,,,,0,,,57,100
27740,note_off,,,,,92,0,4,,,,,0,,,76,100
27744,note_on,,,,,4,0,4,,,,,0,,,74,100
27836,note_off,,,,,92,0,4,,,,,0,,,74,100
27840,note_on,,,,,0,0,5,,,,,0,,,64,100
27840,note_on,,,,,132,0,5,,,,,0,,,57,100
27840,note_on,,,,,4,0,4,,,,,0,,,73,100
27900,note_off,,,,,0,0,5,,,,,0,,,64,100
27900,note_off,,,,,60,0,5,,,,,0,,,57,100
27932,note_off,,,,,92,0,4,,,,,0,,,73,100
27936,note_on,,,,,4,0,4,,,,,0,,,71,100
28028,note_off,,,,,92,0,4,,,,,0,,,71,100
28032,note_on,,,,,0,0,5,,,,,0,,,64,100
28032,note_on,,,,,4,0,4,,,,,0,,,69,100
28032,note_on,,,,,132,0,5,,,,,0,,,57,100
28092,note_off,,,,,60,0,5,,,,,0,,,57,100
28092,note_off,,,,,0,0,5,,,,,0,,,64,100
28124,note_off,,,,,92,0,4,,,,,0,,,69,100
28128,note_on,,,,,4,0,4,,,,,0,,,67,100
28220,note_off,,,,,92,0,4,,,,,0,,,67,100
28224,note_on,,,,,4,0,4,,,,,0,,,65,100
28224,note_on,,,,,132,0,5,,,,,0,,,57,100
28316,note_off,,,,,92,0,4,,,,,0,,,65,100
28320,note_on,,,,,4,0,4,,,,,0,,,64,100
28412,note_off,,,,,92,0,4,,,,,0,,,64,100
28412,note_off,,,,,188,0,5,,,,,0,,,57,100
28416,note_on,,,,,0,0,5,,,,,0,,,62,100
28416,note_on,,,,,4,0,4,,,,,0,,,65,100
28416,note_on,,,,,4,0,5,,,,,0,,,50,100
28476,note_off,,,,,60,0,5,,,,,0,,,50,100
28476,note_off,,,,,0,0,5,,,,,0,,,62,100
28508,note_off,,,,,92,0,4,,,,,0,,,65,100
28512,note_on,,,,,4,0,4,,,,,0,,,62,100
28604,note_off,,,,,92,0,4,,,,,0,,,62,100
28608,note_on,,,,,132,0,5,,,,,0,,,52,100
28608,note_on,,,,,4,0,4,,,,,0,,,67,100
28700,note_off,,,,,92,0,4,,,,,0,,,67,100
28704,note_on,,,,,4,0,4,,,,,0,,,64,100
28796,note_off,,,,,92,0,4,,,,,0,,,64,100
28796,note_off,,,,,188,0,5,,,,,0,,,52,100
28800,note_on,,,,,4,0,5,,,,,0,,,53,100
28800,note_on,,,,,4,0,4,,,,,0,,,69,100
28892,note_off,,,,,92,0,4,,,,,0,,,69,100
28896,note_on,,,,,4,0,4,,,,,0,,,65,100
28988,note_off,,,,,188,0,5,,,,,0,,,53,100
28988,note_off,,,,,92,0,4,,,,,0,,,65,100
28992,note_on,,,,,4,0,5,,,,,0,,,55,100
28992,note_on,,,,,4,0,4,,,,,0,,,64,100
29084,note_off,,,,,92,0,4,,,,,0,,,64,100
29088,note_on,,,,,4,0,4,,,,,0,,,62,100
29180,note_off,,,,,188,0,5,,,,,0,,,55,100
29180,note_off,,,,,92,0,4,,,,,0,,,62,100
29184,note_on,,,,,4,0,5,,,,,0,,,57,100
29184,note_on,,,,,4,0,4,,,,,0,,,61,100
29244,note_off,,,,,60,0,5,,,,,0,,,57,100
29276,note_off,,,,,92,0,4,,,,,0,,,61,100
29280,note_on,,,,,4,0,4,,,,,0,,,57,100
29372,note_off,,,,,92,0,4,,,,,0,,,57,100
29376,note_on,,,,,132,0,5,,,,,0,,,59,100
29376,note_on,,,,,4,0,4,,,,,0,,,62,100
29436,note_off,,,,,60,0,5,,,,,0,,,59,100
29468,note_off,,,,,92,0,4,,,,,0,,,62,100
29472,note_on,,,,,4,0,4,,,,,0,,,59,100
29564,note_off,,,,,92,0,4,,,,,0,,,59,100
29568,note_on,,,,,4,0,4,,,,,0,,,64,100
29568,note_on,,,,,132,0,5,,,,,0,,,61,100
29628,note_off,,,,,60,0,5,,,,,0,,,61,100
29660,note_off,,,,,92,0,4,,,,,0,,,64,100
29664,note_on,,,,,4,0,4,,,,,0,,,61,100
29756,note_off,,,,,92,0,4,,,,,0,,,61,100
29760,note_on,,,,,4,0,4,,,,,0,,,65,100
29760,note_on,,,,,132,0,5,,,,,0,,,62,100
29820,note_off,,,,,60,0,5,,,,,0,,,62,100
29852,note_off,,,,,92,0,4,,,,,0,,,65,100
29856,note_on,,,,,4,0,4,,,,,0,,,62,100
29948,note_off,,,,,92,0,4,,,,,0,,,62,100
29952,note_on,,,,,4,0,4,,,,,0,,,67,100
29952,note_on,,,,,132,0,5,,,,,0,,,64,100
30012,note_off,,,,,60,0,5,,,,,0,,,64,100
30044,note_off,,,,,92,0,4,,,,,0,,,67,100
30048,note_on,,,,,4,0,4,,,,,0,,,64,100
30140,note_off,,,,,92,0,4,,,,,0,,,64,100
30144,note_on,,,,,132,0,5,,,,,0,,,65,100
30144,note_on,,,,,4,0,4,,,,,0,,,69,100
30204,note_off,,,,,60,0,5,,,,,0,,,65,100
30236,note_off,,,,,92,0,4,,,,,0,,,69,100
30240,note_on,,,,,4,0,4,,,,,0,,,65,100
30332,note_off,,,,,92,0,4,,,,,0,,,65,100
30336,note_on,,,,,4,0,4,,,,,0,,,71,100
30336,note_on,,,,,132,0,5,,,,,0,,,67,100
30396,note_off,,,,,60,0,5,,,,,0,,,67,100
30428,note_off,,,,,92,0,4,,,,,0,,,71,100
30432,note_on,,,,,4,0,4,,,,,0,,,67,100
30524,note_off,,,,,92,0,4,,,,,0,,,67,100
30528,note_on,,,,,132,0,5,,,,,0,,,69,100
30528,note_on,,,,,4,0,4,,,,,0,,,73,100
30588,note_off,,,,,60,0,5,,,,,0,,,69,100
30620,note_off,,,,,92,0,4,,,,,0,,,73,100
30624,note_on,,,,,4,0,4,,,,,0,,,69,100
30716,note_off,,,,,92,0,4,,,,,0,,,69,100
30720,note_on,,,,,4,0,4,,,,,0,,,74,100
30720,note_on,,,,,132,0,5,,,,,0,,,71,100
30780,note_off,,,,,60,0,5,,,,,0,,,71,100
30812,note_off,,,,,92,0,4,,,,,0,,,74,100
30816,note_on,,,,,4,0,4,,,,,0,,,71,100
30908,note_off,,,,,92,0,4,,,,,0,,,71,100
30912,note_on,,,,,132,0,5,,,,,0,,,73,100
30912,note_on,,,,,4,0,4,,,,,0,,,76,100
30972,note_off,,,,,60,0,5,,,,,0,,,73,100
31004,note_off,,,,,92,0,4,,,,,0,,,76,100
31008,note_on,,,,,4,0,4,,,,,0,,,73,100
31100,note_off,,,,,92,0,4,,,,,0,,,73,100
31104,note_on,,,,,4,0,4,,,,,0,,,77,100
31104,note_on,,,,,132,0,5,,,,,0,,,74,100
31164,note_off,,,,,60,0,5,,,,,0,,,74,100
31196,note_off,,,,,92,0,4,,,,,0,,,77,100
31200,note_on,,,,,4,0,4,,,,,0,,,74,100
31292,note_off,,,,,92,0,4,,,,,0,,,74,100
31296,note_on,,,,,132,0,5,,,,,0,,,76,100
31296,note_on,,,,,4,0,4,,,,,0,,,79,100
31356,note_off,,,,,60,0,5,,,,,0,,,76,100
31388,note_off,,,,,92,0,4,,,,,0,,,79,100
31392,note_on,,,,,4,0,4,,,,,0,,,76,100
31484,note_off,,,,,92,0,4,,,,,0,,,76,100
31488,note_on,,,,,4,0,4,,,,,0,,,81,100
31488,note_on,,,,,132,0,5,,,,,0,,,77,100
31580,note_off,,,,,92,0,5,,,,,0,,,77,100
31584,note_on,,,,,4,0,5,,,,,0,,,74,100
31676,note_off,,,,,92,0,5,,,,,0,,,74,100
31680,note_on,,,,,4,0,5,,,,,0,,,70,100
31744,note_off,,,,,256,0,4,,,,,0,,,81,100
31772,note_off,,,,,92,0,5,,,,,0,,,70,100
31776,note_on,,,,,4,0,5,,,,,0,,,67,100
31868,note_off,,,,,92,0,5,,,,,0,,,67,100
31872,note_on,,,,,128,0,4,,,,,0,,,81,100
31872,note_on,,,,,4,0,5,,,,,0,,,76,100
31964,note_off,,,,,92,0,4,,,,,0,,,81,100
31964,note_off,,,,,92,0,5,,,,,0,,,76,100
31968,note_on,,,,,4,0,4,,,,,0,,,79,100
31968,note_on,,,,,4,0,5,,,,,0,,,73,100
32012,note_off,,,,,44,0,4,,,,,0,,,79,100
32016,note_on,,,,,4,0,4,,,,,0,,,81,100
32060,note_off,,,,,44,0,4,,,,,0,,,81,100
32060,note_off,,,,,92,0,5,,,,,0,,,73,100
32064,note_on,,,,,4,0,5,,,,,0,,,69,100
32064,note_on,,,,,4,0,4,,,,,0,,,79,100
32108,note_off,,,,,44,0,4,,,,,0,,,79,100
32112,note_on,,,,,4,0,4,,,,,0,,,81,100
32156,note_off,,,,,92,0,5,,,,,0,,,69,100
32156,note_off,,,,,44,0,4,,,,,0,,,81,100
32160,note_on,,,,,4,0,5,,,,,0,,,73,100
32160,note_on,,,,,4,0,4,,,,,0,,,77,100
32204,note_off,,,,,44,0,4,,,,,0,,,77,100
32208,note_on,,,,,4,0,4,,,,,0,,,79,100
32252,note_off,,,,,44,0,4,,,,,0,,,79,100
32252,note_off,,,,,92,0,5,,,,,0,,,73,100
32256,note_on,,,,,4,0,4,,,,,0,,,81,100
32256,note_on,,,,,4,0,5,,,,,0,,,77,100
32348,note_off,,,,,92,0,5,,,,,0,,,77,100
32352,note_on,,,,,4,0,5,,,,,0,,,74,100
32444,note_off,,,,,92,0,5,,,,,0,,,74,100
32448,note_on,,,,,4,0,5,,,,,0,,,70,100
32512,note_off,,,,,256,0,4,,,,,0,,,81,100
32540,note_off,,,,,92,0,5,,,,,0,,,70,100
32544,note_on,,,,,4,0,5,,,,,0,,,67,100
32636,note_off,,,,,92,0,5,,,,,0,,,67,100
32640,note_on,,,,,4,0,5,,,,,0,,,76,100
32640,note_on,,,,,128,0,4,,,,,0,,,81,100
32732,note_off,,,,,92,0,5,,,,,0,,,76,100
32732,note_off,,,,,92,0,4,,,,,0,,,81,100
32736,note_on,,,,,4,0,4,,,,,0,,,79,100
32736,note_on,,,,,4,0,5,,,,,0,,,73,100
32780,note_off,,,,,44,0,4,,,,,0,,,79,100
32784,note_on,,,,,4,0,4,,,,,0,,,81,100
32828,note_off,,,,,44,0,4,,,,,0,,,81,100
32828,note_off,,,,,92,0,5,,,,,0,,,73,100
32832,note_on,,,,,4,0,4,,,,,0,,,79,100
32832,note_on,,,,,4,0,5,,,,,0,,,69,100
32876,note_off,,,,,44,0,4,,,,,0,,,79,100
32880,note_on,,,,,4,0,4,,,,,0,,,81,100
32924,note_off,,,,,44,0,4,,,,,0,,,81,100
32924,note_off,,,,,92,0,5,,,,,0,,,69,100
32928,note_on,,,,,4,0,4,,,,,0,,,77,100
32928,note_on,,,,,4,0,5,,,,,0,,,73,100
32972,note_off,,,,,44,0,4,,,,,0,,,77,100
32976,note_on,,,,,4,0,4,,,,,0,,,79,100
33020,note_off,,,,,92,0,5,,,,,0,,,73,100
33020,note_off,,,,,44,0,4,,,,,0,,,79,100
33024,note_on,,,,,4,0,5,,,,,0,,,77,100
33024,note_on,,,,,4,0,4,,,,,0,,,81,100
33116,note_off,,,,,92,0,5,,,,,0,,,77,100
33120,note_on,,,,,4,0,5,,,,,0,,,74,100
33212,note_off,,,,,92,0,5,,,,,0,,,74,100
33216,note_on,,,,,4,0,5,,,,,0,,,70,100
33280,note_off,,,,,256,0,4,,,,,0,,,81,100
33308,note_off,,,,,92,0,5,,,,,0,,,70,100
33312,note_on,,,,,4,0,5,,,,,0,,,67,100
33404,note_off,,,,,92,0,5,,,,,0,,,67,100
33408,note_on,,,,,128,0,4,,,,,0,,,81,100
33408,note_on,,,,,4,0,5,,,,,0,,,76,100
33500,note_off,,,,,92,0,4,,,,,0,,,81,100
33500,note_off,,,,,92,0,5,,,,,0,,,76,100
33504,note_on,,,,,4,0,5,,,,,0,,,73,100
33504,note_on,,,,,4,0,4,,,,,0,,,79,100
33548,note_off,,,,,44,0,4,,,,,0,,,79,100
33552,note_on,,,,,4,0,4,,,,,0,,,81,100
33596,note_off,,,,,92,0,5,,,,,0,,,73,100
33596,note_off,,,,,44,0,4,,,,,0,,,81,100
33600,note_on,,,,,4,0,4,,,,,0,,,79,100
33600,note_on,,,,,4,0,5,,,,,0,,,69,100
33644,note_off,,,,,44,0,4,,,,,0,,,79,100
33648,note_on,,,,,4,0,4,,,,,0,,,81,100
33692,note_off,,,,,44,0,4,,,,,0,,,81,100
33692,note_off,,,,,92,0,5,,,,,0,,,69,100
33696,note_on,,,,,4,0,4,,,,,0,,,77,100
33696,note_on,,,,,4,0,5,,,,,0,,,73,100
33740,note_off,,,,,44,0,4,,,,,0,,,77,100
33744,note_on,,,,,4,0,4,,,,,0,,,79,100
33788,note_off,,,,,44,0,4,,,,,0,,,79,100
33788,note_off,,,,,92,0,5,,,,,0,,,73,100
33792,note_on,,,,,4,0,5,,,,,0,,,62,100
33792,note_on,,,,,4,0,4,,,,,0,,,77,100
33792,note_on,,,,,0,0,5,,,,,0,,,74,100
33852,note_off,,,,,60,0,5,,,,,0,,,62,100
33852,note_off,,,,,0,0,5,,,,,0,,,74,100
33884,note_off,,,,,92,0,4,,,,,0,,,77,100
33888,note_on,,,,,4,0,4,,,,,0,,,74,100
33980,note_off,,,,,92,0,4,,,,,0,,,74,100
33984,note_on,,,,,132,0,5,,,,,0,,,64,100
33984,note_on,,,,,4,0,4,,,,,0,,,79,100
34076,note_off,,,,,92,0,4,,,,,0,,,79,100
34080,note_on,,,,,4,0,4,,,,,0,,,76,100
34172,note_off,,,,,188,0,5,,,,,0,,,64,100
34172,note_off,,,,,92,0,4,,,,,0,,,76,100
34176,note_on,,,,,4,0,5,,,,,0,,,65,100
34176,note_on,,,,,4,0,4,,,,,0,,,81,100
34268,note_off,,,,,92,0,4,,,,,0,,,81,100
34272,note_on,,,,,4,0,4,,,,,0,,,77,100
34364,note_off,,,,,188,0,5,,,,,0,,,65,100
34364,note_off,,,,,92,0,4,,,,,0,,,77,100
34368,note_on,,,,,4,0,4,,,,,0,,,76,100
34368,note_on,,,,,4,0,5,,,,,0,,,67,100
34460,note_off,,,,,92,0,4,,,,,0,,,76,100
34464,note_on,,,,,4,0,4,,,,,0,,,74,100
34556,note_off,,,,,92,0,4,,,,,0,,,74,100
34556,note_off,,,,,188,0,5,,,,,0,,,67,100
34560,note_on,,,,,4,0,5,,,,,0,,,57,100
34560,note_on,,,,,0,0,5,,,,,0,,,69,100
34560,note_on,,,,,4,0,4,,,,,0,,,73,100
34620,note_off,,,,,60,0,5,,,,,0,,,57,100
34620,note_off,,,,,0,0,5,,,,,0,,,69,100
34652,note_off,,,,,92,0,4,,,,,0,,,73,100
34656,note_on,,,,,4,0,4,,,,,0,,,69,100
34748,note_off,,,,,92,0,4,,,,,0,,,69,100
34752,note_on,,,,,132,0,5,,,,,0,,,59,100
34752,note_on,,,,,4,0,4,,,,,0,,,74,100
34844,note_off,,,,,92,0,4,,,,,0,,,74,100
34848,note_on,,,,,4,0,4,,,,,0,,,71,100
34940,note_off,,,,,188,0,5,,,,,0,,,59,100
34940,note_off,,,,,92,0,4,,,,,0,,,71,100
34944,note_on,,,,,4,0,5,,,,,0,,,61,100
34944,note_on,,,,,4,0,4,,,,,0,,,76,100
35036,note_off,,,,,92,0,4,,,,,0,,,76,100
35040,note_on,,,,,4,0,4,,,,,0,,,67,100
35132,note_off,,,,,92,0,4,,,,,0,,,67,100
35132,note_off,,,,,188,0,5,,,,,0,,,61,100
35136,note_on,,,,,4,0,4,,,,,0,,,65,100
35136,note_on,,,,,4,0,5,,,,,0,,,57,100
35228,note_off,,,,,92,0,4,,,,,0,,,65,100
35232,note_on,,,,,4,0,4,,,,,0,,,64,100
35324,note_off,,,,,92,0,4,,,,,0,,,64,100
35324,note_off,,,,,188,0,5,,,,,0,,,57,100
35328,note_on,,,,,0,0,5,,,,,0,,,62,100
35328,note_on,,,,,4,0,5,,,,,0,,,50,100
35328,note_on,,,,,4,0,4,,,,,0,,,65,100
35388,note_off,,,,,60,0,5,,,,,0,,,50,100
35388,note_off,,,,,0,0,5,,,,,0,,,62,100
35420,note_off,,,,,92,0,4,,,,,0,,,65,100
35424,note_on,,,,,4,0,4,,,,,0,,,62,100
35516,note_off,,,,,92,0,4,,,,,0,,,62,100
35520,note_on,,,,,4,0,4,,,,,0,,,67,100
35520,note_on,,,,,132,0,5,,,,,0,,,52,100
35612,note_off,,,,,92,0,4,,,,,0,,,67,100
35616,note_on,,,,,4,0,4,,,,,0,,,64,100
35708,note_off,,,,,92,0,4,,,,,0,,,64,100
35708,note_off,,,,,188,0,5,,,,,0,,,52,100
35712,note_on,,,,,4,0,5,,,,,0,,,53,100
35712,note_on,,,,,4,0,4,,,,,0,,,69,100
35804,note_off,,,,,92,0,4,,,,,0,,,69,100
35808,note_on,,,,,4,0,4,,,,,0,,,65,100
35900,note_off,,,,,188,0,5,,,,,0,,,53,100
35900,note_off,,,,,92,0,4,,,,,0,,,65,100
35904,note_on,,,,,4,0,5,,,,,0,,,55,100
35904,note_on,,,,,4,0,4,,,,,0,,,64,100
35996,note_off,,,,,92,0,4,,,,,0,,,64,100
36000,note_on,,,,,4,0,4,,,,,0,,,62,100
36092,note_off,,,,,188,0,5,,,,,0,,,55,100
36092,note_off,,,,,92,0,4,,,,,0,,,62,100
36096,note_on,,,,,4,0,5,,,,,0,,,57,100
36096,note_on,,,,,4,0,4,,,,,0,,,61,100
36156,note_off,,,,,60,0,5,,,,,0,,,57,100
36188,note_off,,,,,92,0,4,,,,,0,,,61,100
36192,note_on,,,,,4,0,4,,,,,0,,,57,100
36284,note_off,,,,,92,0,4,,,,,0,,,57,100
36288,note_on,,,,,4,0,4,,,,,0,,,62,100
36288,note_on,,,,,132,0,5,,,,,0,,,59,100
36348,note_off,,,,,60,0,5,,,,,0,,,59,100
36380,note_off,,,,,92,0,4,,,,,0,,,62,100
36384,note_on,,,,,4,0,4,,,,,0,,,59,100
36476,note_off,,,,,92,0,4,,,,,0,,,59,100
36480,note_on,,,,,132,0,5,,,,,0,,,61,100
36480,note_on,,,,,4,0,4,,,,,0,,,64,100
36540,note_off,,,,,60,0,5,,,,,0,,,61,100
36572,note_off,,,,,92,0,4,,,,,0,,,64,100
36576,note_on,,,,,4,0,4,,,,,0,,,61,100
36668,note_off,,,,,92,0,4,,,,,0,,,61,100
36672,note_on,,,,,132,0,5,,,,,0,,,62,100
36672,note_on,,,,,4,0,4,,,,,0,,,65,100
36732,note_off,,,,,60,0,5,,,,,0,,,62,100
36764,note_off,,,,,92,0,4,,,,,0,,,65,100
36768,note_on,,,,,4,0,4,,,,,0,,,62,100
36860,note_off,,,,,92,0,4,,,,,0,,,62,100
36864,note_on,,,,,132,0,5,,,,,0,,,52,100
36864,note_on,,,,,4,0,4,,,,,0,,,67,100
36928,note_off,,,,,64,0,4,,,,,0,,,67,100
36956,note_off,,,,,92,0,5,,,,,0,,,52,100
36960,note_on,,,,,32,0,4,,,,,0,,,67,100
36960,note_on,,,,,4,0,5,,,,,0,,,64,100
37052,note_off,,,,,92,0,4,,,,,0,,,67,100
37052,note_off,,,,,92,0,5,,,,,0,,,64,100
37056,note_on,,,,,4,0,5,,,,,0,,,62,100
37056,note_on,,,,,4,0,4,,,,,0,,,65,100
37148,note_off,,,,,92,0,4,,,,,0,,,65,100
37148,note_off,,,,,92,0,5,,,,,0,,,62,100
37152,note_on,,,,,4,0,5,,,,,0,,,61,100
37152,note_on,,,,,4,0,4,,,,,0,,,64,100
37244,note_off,,,,,92,0,5,,,,,0,,,61,100
37244,note_off,,,,,92,0,4,,,,,0,,,64,100
37248,note_on,,,,,4,0,4,,,,,0,,,65,100
37248,note_on,,,,,4,0,5,,,,,0,,,62,100
37308,note_off,,,,,60,0,5,,,,,0,,,62,100
37376,note_off,,,,,128,0,4,,,,,0,,,65,100
37440,note_on,,,,,64,0,4,,,,,0,,,67,100
37440,note_on,,,,,132,0,5,,,,,0,,,58,100
37484,note_off,,,,,44,0,4,,,,,0,,,67,100
37488,note_on,,,,,4,0,4,,,,,0,,,69,100
37500,note_off,,,,,60,0,5,,,,,0,,,58,100
37532,note_off,,,,,44,0,4,,,,,0,,,69,100
37536,note_on,,,,,4,0,4,,,,,0,,,65,100
37580,note_off,,,,,44,0,4,,,,,0,,,65,100
37584,note_on,,,,,4,0,4,,,,,0,,,67,100
37628,note_off,,,,,44,0,4,,,,,0,,,67,100
37632,note_on,,,,,132,0,5,,,,,0,,,45,100
37632,note_on,,,,,4,0,4,,,,,0,,,69,100
37724,note_off,,,,,92,0,4,,,,,0,,,69,100
37728,note_on,,,,,4,0,4,,,,,0,,,64,100
37820,note_off,,,,,92,0,4,,,,,0,,,64,100
37824,note_on,,,,,4,0,4,,,,,0,,,65,100
37888,note_off,,,,,256,0,5,,,,,0,,,45,100
37916,note_off,,,,,92,0,4,,,,,0,,,65,100
37920,note_on,,,,,4,0,4,,,,,0,,,62,100
38012,note_off,,,,,92,0,4,,,,,0,,,62,100
38016,note_on,,,,,4,0,4,,,,,0,,,64,100
38108,note_off,,,,,92,0,4,,,,,0,,,64,100
38112,note_on,,,,,4,0,4,,,,,0,,,61,100
38204,note_off,,,,,92,0,4,,,,,0,,,61,100
38208,note_on,,,,,4,0,4,,,,,0,,,65,100
38208,note_on,,,,,320,0,5,,,,,0,,,62,100
38300,note_off,,,,,92,0,5,,,,,0,,,62,100
38304,note_on,,,,,4,0,5,,,,,0,,,59,100
38396,note_off,,,,,92,0,5,,,,,0,,,59,100
38396,note_off,,,,,188,0,4,,,,,0,,,65,100
38400,note_on,,,,,4,0,5,,,,,0,,,61,100
38400,note_on,,,,,4,0,4,,,,,0,,,64,100
38492,note_off,,,,,92,0,5,,,,,0,,,61,100
38496,note_on,,,,,4,0,5,,,,,0,,,57,100
38588,note_off,,,,,92,0,5,,,,,0,,,57,100
38588,note_off,,,,,188,0,4,,,,,0,,,64,100
38592,note_on,,,,,4,0,5,,,,,0,,,59,100
38592,note_on,,,,,4,0,4,,,,,0,,,62,100
38684,note_off,,,,,92,0,5,,,,,0,,,59,100
38688,note_on,,,,,4,0,5,,,,,0,,,56,100
38780,note_off,,,,,188,0,4,,,,,0,,,62,100
38780,note_off,,,,,92,0,5,,,,,0,,,56,100
38784,note_on,,,,,4,0,5,,,,,0,,,57,100
38784,note_on,,,,,4,0,4,,,,,0,,,61,100
38876,note_off,,,,,92,0,5,,,,,0,,,57,100
38880,note_on,,,,,4,0,5,,,,,0,,,52,100
38912,note_off,,,,,128,0,4,,,,,0,,,61,100
38972,note_off,,,,,92,0,5,,,,,0,,,52,100
38976,note_on,,,,,4,0,5,,,,,0,,,49,100
39068,note_off,,,,,92,0,5,,,,,0,,,49,100
39072,note_on,,,,,4,0,5,,,,,0,,,52,100
39136,note_off,,,,,64,0,5,,,,,0,,,52,100
39168,note_on,,,,,32,0,5,,,,,0,,,45,100
39212,note_off,,,,,44,0,5,,,,,0,,,45,100
39216,note_on,,,,,4,0,5,,,,,0,,,46,100
39260,note_off,,,,,44,0,5,,,,,0,,,46,100
39264,note_on,,,,,4,0,5,,,,,0,,,45,100
39520,note_off,,,,,256,0,5,,,,,0,,,45,100
39936,note_on,,,,,1024,0,4,,,,,0,,,69,100
40028,note_off,,,,,92,0,4,,,,,0,,,69,100
40032,note_on,,,,,4,0,4,,,,,0,,,71,100
40124,note_off,,,,,92,0,4,,,,,0,,,71,100
40128,note_on,,,,,4,0,4,,,,,0,,,73,100
40220,note_off,,,,,92,0,4,,,,,0,,,73,100
40224,note_on,,,,,4,0,4,,,,,0,,,74,100
40316,note_off,,,,,92,0,4,,,,,0,,,74,100
40320,note_on,,,,,4,0,4,,,,,0,,,76,100
40412,note_off,,,,,92,0,4,,,,,0,,,76,100
40416,note_on,,,,,4,0,4,,,,,0,,,73,100
40508,note_off,,,,,92,0,4,,,,,0,,,73,100
40512,note_on,,,,,4,0,4,,,,,0,,,77,100
40604,note_off,,,,,92,0,4,,,,,0,,,77,100
40608,note_on,,,,,4,0,4,,,,,0,,,74,100
40700,note_off,,,,,92,0,4,,,,,0,,,74,100
40704,note_on,,,,,4,0,4,,,,,0,,,76,100
40704,note_on,,,,,1184,0,5,,,,,0,,,57,100
40796,note_off,,,,,92,0,5,,,,,0,,,57,100
40800,note_on,,,,,4,0,5,,,,,0,,,59,100
40892,note_off,,,,,92,0,5,,,,,0,,,59,100
40896,note_on,,,,,4,0,5,,,,,0,,,61,100
40988,note_off,,,,,92,0,5,,,,,0,,,61,100
40992,note_on,,,,,4,0,5,,,,,0,,,62,100
41084,note_off,,,,,92,0,5,,,,,0,,,62,100
41088,note_on,,,,,4,0,5,,,,,0,,,64,100
41180,note_off,,,,,92,0,5,,,,,0,,,64,100
41184,note_on,,,,,4,0,5,,,,,0,,,61,100
41276,note_off,,,,,572,0,4,,,,,0,,,76,100
41276,note_off,,,,,92,0,5,,,,,0,,,61,100
41280,note_on,,,,,4,0,4,,,,,0,,,69,100
41280,note_on,,,,,4,0,5,,,,,0,,,65,100
41372,note_off,,,,,92,0,5,,,,,0,,,65,100
41376,note_on,,,,,4,0,5,,,,,0,,,62,100
41468,note_off,,,,,188,0,4,,,,,0,,,69,100
41468,note_off,,,,,92,0,5,,,,,0,,,62,100
41472,note_on,,,,,4,0,4,,,,,0,,,71,100
41472,note_on,,,,,4,0,5,,,,,0,,,67,100
41564,note_off,,,,,92,0,4,,,,,0,,,71,100
41568,note_on,,,,,4,0,4,,,,,0,,,67,100
41600,note_off,,,,,128,0,5,,,,,0,,,67,100
41660,note_off,,,,,92,0,4,,,,,0,,,67,100
41664,note_on,,,,,4,0,4,,,,,0,,,73,100
41664,note_on,,,,,64,0,5,,,,,0,,,69,100
41724,note_off,,,,,60,0,5,,,,,0,,,69,100
41756,note_off,,,,,92,0,4,,,,,0,,,73,100
41760,note_on,,,,,4,0,4,,,,,0,,,69,100
41852,note_off,,,,,92,0,4,,,,,0,,,69,100
41856,note_on,,,,,132,0,5,,,,,0,,,71,100
41856,note_on,,,,,4,0,4,,,,,0,,,74,100
41916,note_off,,,,,60,0,5,,,,,0,,,71,100
41948,note_off,,,,,92,0,4,,,,,0,,,74,100
41952,note_on,,,,,4,0,4,,,,,0,,,71,100
42044,note_off,,,,,92,0,4,,,,,0,,,71,100
42048,note_on,,,,,132,0,5,,,,,0,,,73,100
42048,note_on,,,,,4,0,4,,,,,0,,,76,100
42108,note_off,,,,,60,0,5,,,,,0,,,73,100
42140,note_off,,,,,92,0,4,,,,,0,,,76,100
42144,note_on,,,,,4,0,4,,,,,0,,,73,100
42236,note_off,,,,,92,0,4,,,,,0,,,73,100
42240,note_on,,,,,132,0,5,,,,,0,,,62,100
42240,note_on,,,,,0,0,5,,,,,0,,,74,100
42240,note_on,,,,,4,0,4,,,,,0,,,78,100
42300,note_off,,,,,60,0,5,,,,,0,,,62,100
42300,note_off,,,,,0,0,5,,,,,0,,,74,100
42332,note_off,,,,,92,0,4,,,,,0,,,78,100
42336,note_on,,,,,4,0,4,,,,,0,,,74,100
42428,note_off,,,,,92,0,4,,,,,0,,,74,100
42432,note_on,,,,,4,0,4,,,,,0,,,79,100
42432,note_on,,,,,132,0,5,,,,,0,,,64,100
42524,note_off,,,,,92,0,4,,,,,0,,,79,100
42528,note_on,,,,,4,0,4,,,,,0,,,76,100
42620,note_off,,,,,92,0,4,,,,,0,,,76,100
42620,note_off,,,,,188,0,5,,,,,0,,,64,100
42624,note_on,,,,,4,0,4,,,,,0,,,81,100
42624,note_on,,,,,4,0,5,,,,,0,,,66,100
42716,note_off,,,,,92,0,4,,,,,0,,,81,100
42720,note_on,,,,,4,0,4,,,,,0,,,72,100
42812,note_off,,,,,188,0,5,,,,,0,,,66,100
42812,note_off,,,,,92,0,4,,,,,0,,,72,100
42816,note_on,,,,,4,0,4,,,,,0,,,70,100
42816,note_on,,,,,4,0,5,,,,,0,,,62,100
42908,note_off,,,,,92,0,4,,,,,0,,,70,100
42912,note_on,,,,,4,0,4,,,,,0,,,69,100
43004,note_off,,,,,92,0,4,,,,,0,,,69,100
43004,note_off,,,,,188,0,5,,,,,0,,,62,100
43008,note_on,,,,,4,0,5,,,,,0,,,55,100
43008,note_on,,,,,0,0,5,,,,,0,,,67,100
43008,note_on,,,,,4,0,4,,,,,0,,,70,100
43100,note_off,,,,,92,0,4,,,,,0,,,70,100
43104,note_on,,,,,4,0,4,,,,,0,,,67,100
43136,note_off,,,,,128,0,5,,,,,0,,,55,100
43136,note_off,,,,,0,0,5,,,,,0,,,67,100
43196,note_off,,,,,92,0,4,,,,,0,,,67,100
43200,note_on,,,,,4,0,4,,,,,0,,,72,100
43200,note_on,,,,,64,0,5,,,,,0,,,57,100
43292,note_off,,,,,92,0,4,,,,,0,,,72,100
43296,note_on,,,,,4,0,4,,,,,0,,,69,100
43388,note_off,,,,,188,0,5,,,,,0,,,57,100
43388,note_off,,,,,92,0,4,,,,,0,,,69,100
43392,note_on,,,,,4,0,4,,,,,0,,,74,100
43392,note_on,,,,,4,0,5,,,,,0,,,58,100
43484,note_off,,,,,92,0,4,,,,,0,,,74,100
43488,note_on,,,,,4,0,4,,,,,0,,,70,100
43580,note_off,,,,,188,0,5,,,,,0,,,58,100
43580,note_off,,,,,92,0,4,,,,,0,,,70,100
43584,note_on,,,,,4,0,4,,,,,0,,,69,100
43584,note_on,,,,,4,0,5,,,,,0,,,60,100
43676,note_off,,,,,92,0,4,,,,,0,,,69,100
43680,note_on,,,,,4,0,4,,,,,0,,,67,100
43772,note_off,,,,,188,0,5,,,,,0,,,60,100
43772,note_off,,,,,92,0,4,,,,,0,,,67,100
43776,note_on,,,,,0,0,5,,,,,0,,,62,100
43776,note_on,,,,,4,0,5,,,,,0,,,50,100
43776,note_on,,,,,4,0,4,,,,,0,,,66,100
43836,note_off,,,,,0,0,5,,,,,0,,,62,100
43836,note_off,,,,,60,0,5,,,,,0,,,50,100
43868,note_off,,,,,92,0,4,,,,,0,,,66,100
43872,note_on,,,,,4,0,4,,,,,0,,,62,100
43964,note_off,,,,,92,0,4,,,,,0,,,62,100
43968,note_on,,,,,4,0,4,,,,,0,,,67,100
43968,note_on,,,,,132,0,5,,,,,0,,,52,100
44060,note_off,,,,,92,0,4,,,,,0,,,67,100
44064,note_on,,,,,4,0,4,,,,,0,,,64,100
44156,note_off,,,,,188,0,5,,,,,0,,,52,100
44156,note_off,,,,,92,0,4,,,,,0,,,64,100
44160,note_on,,,,,4,0,5,,,,,0,,,54,100
44160,note_on,,,,,4,0,4,,,,,0,,,69,100
44252,note_off,,,,,92,0,4,,,,,0,,,69,100
44256,note_on,,,,,4,0,4,,,,,0,,,60,100
44348,note_off,,,,,188,0,5,,,,,0,,,54,100
44348,note_off,,,,,92,0,4,,,,,0,,,60,100
44352,note_on,,,,,4,0,5,,,,,0,,,50,100
44352,note_on,,,,,4,0,4,,,,,0,,,58,100
44444,note_off,,,,,92,0,4,,,,,0,,,58,100
44448,note_on,,,,,4,0,4,,,,,0,,,57,100
44540,note_off,,,,,188,0,5,,,,,0,,,50,100
44540,note_off,,,,,92,0,4,,,,,0,,,57,100
44544,note_on,,,,,4,0,5,,,,,0,,,55,100
44544,note_on,,,,,4,0,4,,,,,0,,,58,100
44604,note_off,,,,,60,0,5,,,,,0,,,55,100
44636,note_off,,,,,92,0,4,,,,,0,,,58,100
44640,note_on,,,,,4,0,4,,,,,0,,,55,100
44732,note_off,,,,,92,0,4,,,,,0,,,55,100
44736,note_on,,,,,4,0,4,,,,,0,,,60,100
44736,note_on,,,,,132,0,5,,,,,0,,,57,100
44796,note_off,,,,,60,0,5,,,,,0,,,57,100
44828,note_off,,,,,92,0,4,,,,,0,,,60,100
44832,note_on,,,,,4,0,4,,,,,0,,,57,100
44924,note_off,,,,,92,0,4,,,,,0,,,57,100
44928,note_on,,,,,132,0,5,,,,,0,,,58,100
44928,note_on,,,,,4,0,4,,,,,0,,,62,100
44988,note_off,,,,,60,0,5,,,,,0,,,58,100
45020,note_off,,,,,92,0,4,,,,,0,,,62,100
45024,note_on,,,,,4,0,4,,,,,0,,,58,100
45116,note_off,,,,,92,0,4,,,,,0,,,58,100
45120,note_on,,,,,132,0,5,,,,,0,,,60,100
45120,note_on,,,,,4,0,4,,,,,0,,,64,100
45180,note_off,,,,,60,0,5,,,,,0,,,60,100
45212,note_off,,,,,92,0,4,,,,,0,,,64,100
45216,note_on,,,,,4,0,4,,,,,0,,,60,100
45308,note_off,,,,,92,0,4,,,,,0,,,60,100
45312,note_on,,,,,4,0,4,,,,,0,,,65,100
45312,note_on,,,,,132,0,5,,,,,0,,,62,100
45372,note_off,,,,,60,0,5,,,,,0,,,62,100
45404,note_off,,,,,92,0,4,,,,,0,,,65,100
45408,note_on,,,,,4,0,4,,,,,0,,,62,100
45500,note_off,,,,,92,0,4,,,,,0,,,62,100
45504,note_on,,,,,132,0,5,,,,,0,,,64,100
45504,note_on,,,,,4,0,4,,,,,0,,,67,100
45564,note_off,,,,,60,0,5,,,,,0,,,64,100
45596,note_off,,,,,92,0,4,,,,,0,,,67,100
45600,note_on,,,,,4,0,4,,,,,0,,,64,100
45692,note_off,,,,,92,0,4,,,,,0,,,64,100
45696,note_on,,,,,4,0,4,,,,,0,,,69,100
45696,note_on,,,,,132,0,5,,,,,0,,,65,100
45756,note_off,,,,,60,0,5,,,,,0,,,65,100
45788,note_off,,,,,92,0,4,,,,,0,,,69,100
45792,note_on,,,,,4,0,4,,,,,0,,,65,100
45884,note_off,,,,,92,0,4,,,,,0,,,65,100
45888,note_on,,,,,4,0,4,,,,,0,,,70,100
45888,note_on,,,,,132,0,5,,,,,0,,,67,100
45948,note_off,,,,,60,0,5,,,,,0,,,67,100
45980,note_off,,,,,92,0,4,,,,,0,,,70,100
45984,note_on,,,,,4,0,4,,,,,0,,,67,100
46076,note_off,,,,,92,0,4,,,,,0,,,67,100
46080,note_on,,,,,4,0,4,,,,,0,,,72,100
46080,note_on,,,,,132,0,5,,,,,0,,,69,100
46172,note_off,,,,,92,0,5,,,,,0,,,69,100
46176,note_on,,,,,4,0,5,,,,,0,,,65,100
46268,note_off,,,,,92,0,5,,,,,0,,,65,100
46272,note_on,,,,,4,0,5,,,,,0,,,62,100
46336,note_off,,,,,256,0,4,,,,,0,,,72,100
46364,note_off,,,,,92,0,5,,,,,0,,,62,100
46368,note_on,,,,,4,0,5,,,,,0,,,58,100
46460,note_off,,,,,92,0,5,,,,,0,,,58,100
46464,note_on,,,,,4,0,5,,,,,0,,,67,100
46464,note_on,,,,,128,0,4,,,,,0,,,72,100
46556,note_off,,,,,92,0,5,,,,,0,,,67,100
46556,note_off,,,,,92,0,4,,,,,0,,,72,100
46560,note_on,,,,,4,0,5,,,,,0,,,64,100
46560,note_on,,,,,4,0,4,,,,,0,,,70,100
46604,note_off,,,,,44,0,4,,,,,0,,,70,100
46608,note_on,,,,,4,0,4,,,,,0,,,72,100
46652,note_off,,,,,44,0,4,,,,,0,,,72,100
46652,note_off,,,,,92,0,5,,,,,0,,,64,100
46656,note_on,,,,,4,0,5,,,,,0,,,60,100
46656,note_on,,,,,4,0,4,,,,,0,,,70,100
46700,note_off,,,,,44,0,4,,,,,0,,,70,100
46704,note_on,,,,,4,0,4,,,,,0,,,72,100
46748,note_off,,,,,44,0,4,,,,,0,,,72,100
46748,note_off,,,,,92,0,5,,,,,0,,,60,100
46752,note_on,,,,,4,0,4,,,,,0,,,69,100
46752,note_on,,,,,4,0,5,,,,,0,,,64,100
46796,note_off,,,,,44,0,4,,,,,0,,,69,100
46800,note_on,,,,,4,0,4,,,,,0,,,70,100
46844,note_off,,,,,44,0,4,,,,,0,,,70,100
46844,note_off,,,,,92,0,5,,,,,0,,,64,100
46848,note_on,,,,,4,0,5,,,,,0,,,69,100
46848,note_on,,,,,4,0,4,,,,,0,,,72,100
46940,note_off,,,,,92,0,5,,,,,0,,,69,100
46944,note_on,,,,,4,0,5,,,,,0,,,65,100
47036,note_off,,,,,92,0,5,,,,,0,,,65,100
47040,note_on,,,,,4,0,5,,,,,0,,,62,100
47104,note_off,,,,,256,0,4,,,,,0,,,72,100
47132,note_off,,,,,92,0,5,,,,,0,,,62,100
47136,note_on,,,,,4,0,5,,,,,0,,,58,100
47228,note_off,,,,,92,0,5,,,,,0,,,58,100
47232,note_on,,,,,128,0,4,,,,,0,,,72,100
47232,note_on,,,,,4,0,5,,,,,0,,,67,100
47324,note_off,,,,,92,0,5,,,,,0,,,67,100
47324,note_off,,,,,92,0,4,,,,,0,,,72,100
47328,note_on,,,,,4,0,5,,,,,0,,,64,100
47328,note_on,,,,,4,0,4,,,,,0,,,70,100
47372,note_off,,,,,44,0,4,,,,,0,,,70,100
47376,note_on,,,,,4,0,4,,,,,0,,,72,100
47420,note_off,,,,,92,0,5,,,,,0,,,64,100
47420,note_off,,,,,44,0,4,,,,,0,,,72,100
47424,note_on,,,,,4,0,5,,,,,0,,,60,100
47424,note_on,,,,,4,0,4,,,,,0,,,70,100
47468,note_off,,,,,44,0,4,,,,,0,,,70,100
47472,note_on,,,,,4,0,4,,,,,0,,,72,100
47516,note_off,,,,,92,0,5,,,,,0,,,60,100
47516,note_off,,,,,44,0,4,,,,,0,,,72,100
47520,note_on,,,,,4,0,4,,,,,0,,,69,100
47520,note_on,,,,,4,0,5,,,,,0,,,64,100
47564,note_off,,,,,44,0,4,,,,,0,,,69,100
47568,note_on,,,,,4,0,4,,,,,0,,,70,100
47612,note_off,,,,,44,0,4,,,,,0,,,70,100
47612,note_off,,,,,92,0,5,,,,,0,,,64,100
47616,note_on,,,,,4,0,5,,,,,0,,,69,100
47616,note_on,,,,,4,0,4,,,,,0,,,72,100
47676,note_off,,,,,60,0,4,,,,,0,,,72,100
47708,note_off,,,,,92,0,5,,,,,0,,,69,100
47712,note_on,,,,,4,0,5,,,,,0,,,65,100
47804,note_off,,,,,92,0,5,,,,,0,,,65,100
47808,note_on,,,,,0,0,4,,,,,0,,,77,100
47808,note_on,,,,,4,0,5,,,,,0,,,62,100
47808,note_on,,,,,132,0,4,,,,,0,,,81,100
47868,note_off,,,,,60,0,4,,,,,0,,,81,100
47868,note_off,,,,,0,0,4,,,,,0,,,77,100
47900,note_off,,,,,92,0,5,,,,,0,,,62,100
47904,note_on,,,,,4,0,5,,,,,0,,,58,100
47996,note_off,,,,,92,0,5,,,,,0,,,58,100
48000,note_on,,,,,4,0,5,,,,,0,,,67,100
48000,note_on,,,,,132,0,4,,,,,0,,,70,100
48060,note_off,,,,,60,0,4,,,,,0,,,70,100
48092,note_off,,,,,92,0,5,,,,,0,,,67,100
48096,note_on,,,,,4,0,5,,,,,0,,,64,100
48188,note_off,,,,,92,0,5,,,,,0,,,64,100
48192,note_on,,,,,0,0,4,,,,,0,,,76,100
48192,note_on,,,,,132,0,4,,,,,0,,,79,100
48192,note_on,,,,,4,0,5,,,,,0,,,60,100
48252,note_off,,,,,0,0,4,,,,,0,,,76,100
48252,note_off,,,,,60,0,4,,,,,0,,,79,100
48284,note_off,,,,,92,0,5,,,,,0,,,60,100
48288,note_on,,,,,4,0,5,,,,,0,,,64,100
48380,note_off,,,,,92,0,5,,,,,0,,,64,100
48384,note_on,,,,,132,0,4,,,,,0,,,69,100
48384,note_on,,,,,4,0,5,,,,,0,,,65,100
48444,note_off,,,,,60,0,5,,,,,0,,,65,100
48476,note_off,,,,,92,0,4,,,,,0,,,69,100
48480,note_on,,,,,4,0,4,,,,,0,,,65,100
48572,note_off,,,,,92,0,4,,,,,0,,,65,100
48576,note_on,,,,,132,0,5,,,,,0,,,53,100
48576,note_on,,,,,4,0,4,,,,,0,,,72,100
48636,note_off,,,,,60,0,5,,,,,0,,,53,100
48668,note_off,,,,,92,0,4,,,,,0,,,72,100
48672,note_on,,,,,4,0,4,,,,,0,,,69,100
48764,note_off,,,,,92,0,4,,,,,0,,,69,100
48768,note_on,,,,,132,0,5,,,,,0,,,53,100
48768,note_on,,,,,4,0,4,,,,,0,,,77,100
48828,note_off,,,,,60,0,5,,,,,0,,,53,100
48860,note_off,,,,,92,0,4,,,,,0,,,77,100
48864,note_on,,,,,4,0,4,,,,,0,,,72,100
48956,note_off,,,,,92,0,4,,,,,0,,,72,100
48960,note_on,,,,,4,0,4,,,,,0,,,81,100
48960,note_on,,,,,132,0,5,,,,,0,,,41,100
49020,note_off,,,,,60,0,5,,,,,0,,,41,100
49052,note_off,,,,,92,0,4,,,,,0,,,81,100
49056,note_on,,,,,4,0,4,,,,,0,,,77,100
49148,note_off,,,,,92,0,4,,,,,0,,,77,100
49152,note_on,,,,,132,0,5,,,,,0,,,48,100
49152,note_on,,,,,4,0,4,,,,,0,,,76,100
49212,note_off,,,,,60,0,5,,,,,0,,,48,100
49244,note_off,,,,,92,0,4,,,,,0,,,76,100
49248,note_on,,,,,4,0,4,,,,,0,,,79,100
49340,note_off,,,,,92,0,4,,,,,0,,,79,100
49344,note_on,,,,,132,0,5,,,,,0,,,60,100
49344,note_on,,,,,4,0,4,,,,,0,,,72,100
49404,note_off,,,,,60,0,5,,,,,0,,,60,100
49436,note_off,,,,,92,0,4,,,,,0,,,72,100
49440,note_on,,,,,4,0,4,,,,,0,,,76,100
49532,note_off,,,,,92,0,4,,,,,0,,,76,100
49536,note_on,,,,,4,0,4,,,,,0,,,67,100
49536,note_on,,,,,132,0,5,,,,,0,,,60,100
49596,note_off,,,,,60,0,5,,,,,0,,,60,100
49628,note_off,,,,,92,0,4,,,,,0,,,67,100
49632,note_on,,,,,4,0,4,,,,,0,,,72,100
49724,note_off,,,,,92,0,4,,,,,0,,,72,100
49728,note_on,,,,,4,0,4,,,,,0,,,70,100
49728,note_on,,,,,132,0,5,,,,,0,,,66,100
49788,note_off,,,,,60,0,5,,,,,0,,,66,100
49820,note_off,,,,,92,0,4,,,,,0,,,70,100
49824,note_on,,,,,4,0,4,,,,,0,,,69,100
49916,note_off,,,,,92,0,4,,,,,0,,,69,100
49920,note_on,,,,,132,0,5,,,,,0,,,67,100
49920,note_on,,,,,4,0,4,,,,,0,,,70,100
49980,note_off,,,,,60,0,5,,,,,0,,,67,100
50012,note_off,,,,,92,0,4,,,,,0,,,70,100
50016,note_on,,,,,4,0,4,,,,,0,,,67,100
50108,note_off,,,,,92,0,4,,,,,0,,,67,100
50112,note_on,,,,,132,0,5,,,,,0,,,55,100
50112,note_on,,,,,4,0,4,,,,,0,,,74,100
50172,note_off,,,,,60,0,5,,,,,0,,,55,100
50204,note_off,,,,,92,0,4,,,,,0,,,74,100
50208,note_on,,,,,4,0,4,,,,,0,,,70,100
50300,note_off,,,,,92,0,4,,,,,0,,,70,100
50304,note_on,,,,,132,0,5,,,,,0,,,55,100
50304,note_on,,,,,4,0,4,,,,,0,,,79,100
50364,note_off,,,,,60,0,5,,,,,0,,,55,100
50396,note_off,,,,,92,0,4,,,,,0,,,79,100
50400,note_on,,,,,4,0,4,,,,,0,,,74,100
50492,note_off,,,,,92,0,4,,,,,0,,,74,100
50496,note_on,,,,,132,0,5,,,,,0,,,43,100
50496,note_on,,,,,4,0,4,,,,,0,,,82,100
50556,note_off,,,,,60,0,5,,,,,0,,,43,100
50588,note_off,,,,,92,0,4,,,,,0,,,82,100
50592,note_on,,,,,4,0,4,,,,,0,,,79,100
50684,note_off,,,,,92,0,4,,,,,0,,,79,100
50688,note_on,,,,,4,0,4,,,,,0,,,77,100
50688,note_on,,,,,132,0,5,,,,,0,,,50,100
50748,note_off,,,,,60,0,5,,,,,0,,,50,100
50780,note_off,,,,,92,0,4,,,,,0,,,77,100
50784,note_on,,,,,4,0,4,,,,,0,,,81,100
50876,note_off,,,,,92,0,4,,,,,0,,,81,100
50880,note_on,,,,,132,0,5,,,,,0,,,62,100
50880,note_on,,,,,4,0,4,,,,,0,,,74,100
50940,note_off,,,,,60,0,5,,,,,0,,,62,100
50972,note_off,,,,,92,0,4,,,,,0,,,74,100
50976,note_on,,,,,4,0,4,,,,,0,,,77,100
51068,note_off,,,,,92,0,4,,,,,0,,,77,100
51072,note_on,,,,,4,0,4,,,,,0,,,69,100
51072,note_on,,,,,132,0,5,,,,,0,,,62,100
51132,note_off,,,,,60,0,5,,,,,0,,,62,100
51164,note_off,,,,,92,0,4,,,,,0,,,69,100
51168,note_on,,,,,4,0,4,,,,,0,,,74,100
51260,note_off,,,,,92,0,4,,,,,0,,,74,100
51264,note_on,,,,,4,0,4,,,,,0,,,72,100
51264,note_on,,,,,132,0,5,,,,,0,,,68,100
51324,note_off,,,,,60,0,5,,,,,0,,,68,100
51356,note_off,,,,,92,0,4,,,,,0,,,72,100
51360,note_on,,,,,4,0,4,,,,,0,,,71,100
51452,note_off,,,,,92,0,4,,,,,0,,,71,100
51456,note_on,,,,,4,0,4,,,,,0,,,72,100
51456,note_on,,,,,132,0,5,,,,,0,,,69,100
51516,note_off,,,,,60,0,5,,,,,0,,,69,100
51548,note_off,,,,,92,0,4,,,,,0,,,72,100
51552,note_on,,,,,4,0,4,,,,,0,,,69,100
51644,note_off,,,,,92,0,4,,,,,0,,,69,100
51648,note_on,,,,,132,0,5,,,,,0,,,57,100
51648,note_on,,,,,4,0,4,,,,,0,,,76,100
51708,note_off,,,,,60,0,5,,,,,0,,,57,100
51740,note_off,,,,,92,0,4,,,,,0,,,76,100
51744,note_on,,,,,4,0,4,,,,,0,,,72,100
51836,note_off,,,,,92,0,4,,,,,0,,,72,100
51840,note_on,,,,,132,0,5,,,,,0,,,57,100
51840,note_on,,,,,4,0,4,,,,,0,,,81,100
51900,note_off,,,,,60,0,5,,,,,0,,,57,100
51932,note_off,,,,,92,0,4,,,,,0,,,81,100
51936,note_on,,,,,4,0,4,,,,,0,,,76,100
52028,note_off,,,,,92,0,4,,,,,0,,,76,100
52032,note_on,,,,,4,0,4,,,,,0,,,84,100
52032,note_on,,,,,132,0,5,,,,,0,,,45,100
52092,note_off,,,,,60,0,5,,,,,0,,,45,100
52124,note_off,,,,,92,0,4,,,,,0,,,84,100
52128,note_on,,,,,4,0,4,,,,,0,,,81,100
52220,note_off,,,,,92,0,4,,,,,0,,,81,100
52224,note_on,,,,,4,0,4,,,,,0,,,80,100
52224,note_on,,,,,132,0,5,,,,,0,,,52,100
52284,note_off,,,,,60,0,5,,,,,0,,,52,100
52316,note_off,,,,,92,0,4,,,,,0,,,80,100
52320,note_on,,,,,4,0,4,,,,,0,,,83,100
52412,note_off,,,,,92,0,4,,,,,0,,,83,100
52416,note_on,,,,,132,0,5,,,,,0,,,40,100
52416,note_on,,,,,4,0,4,,,,,0,,,76,100
52476,note_off,,,,,60,0,5,,,,,0,,,40,100
52508,note_off,,,,,92,0,4,,,,,0,,,76,100
52512,note_on,,,,,4,0,4,,,,,0,,,80,100
52604,note_off,,,,,92,0,4,,,,,0,,,80,100
52608,note_on,,,,,132,0,5,,,,,0,,,40,100
52608,note_on,,,,,4,0,4,,,,,0,,,71,100
52668,note_off,,,,,60,0,5,,,,,0,,,40,100
52700,note_off,,,,,92,0,4,,,,,0,,,71,100
52704,note_on,,,,,4,0,4,,,,,0,,,74,100
52796,note_off,,,,,92,0,4,,,,,0,,,74,100
52800,note_on,,,,,132,0,5,,,,,0,,,40,100
52800,note_on,,,,,4,0,4,,,,,0,,,73,100
52860,note_off,,,,,60,0,5,,,,,0,,,40,100
52892,note_off,,,,,92,0,4,,,,,0,,,73,100
52896,note_on,,,,,4,0,4,,,,,0,,,71,100
52988,note_off,,,,,92,0,4,,,,,0,,,71,100
52992,note_on,,,,,4,0,4,,,,,0,,,73,100
52992,note_on,,,,,132,0,5,,,,,0,,,45,100
53052,note_off,,,,,60,0,5,,,,,0,,,45,100
53180,note_off,,,,,188,0,4,,,,,0,,,73,100
53184,note_on,,,,,4,0,4,,,,,0,,,81,100
53184,note_on,,,,,132,0,5,,,,,0,,,69,100
53244,note_off,,,,,60,0,5,,,,,0,,,69,100
53312,note_off,,,,,128,0,4,,,,,0,,,81,100
53376,note_on,,,,,132,0,5,,,,,0,,,69,100
53376,note_on,,,,,64,0,4,,,,,0,,,81,100
53420,note_off,,,,,44,0,4,,,,,0,,,81,100
53424,note_on,,,,,4,0,4,,,,,0,,,82,100
53436,note_off,,,,,60,0,5,,,,,0,,,69,100
53468,note_off,,,,,44,0,4,,,,,0,,,82,100
53472,note_on,,,,,4,0,4,,,,,0,,,81,100
53516,note_off,,,,,44,0,4,,,,,0,,,81,100
53520,note_on,,,,,4,0,4,,,,,0,,,82,100
53564,note_off,,,,,44,0,4,,,,,0,,,82,100
53568,note_on,,,,,132,0,5,,,,,0,,,69,100
53568,note_on,,,,,4,0,4,,,,,0,,,81,100
53612,note_off,,,,,44,0,4,,,,,0,,,81,100
53616,note_on,,,,,4,0,4,,,,,0,,,82,100
53628,note_off,,,,,60,0,5,,,,,0,,,69,100
53660,note_off,,,,,44,0,4,,,,,0,,,82,100
53664,note_on,,,,,4,0,4,,,,,0,,,81,100
53728,note_off,,,,,64,0,4,,,,,0,,,81,100
53760,note_on,,,,,132,0,5,,,,,0,,,41,100
53760,note_on,,,,,32,0,4,,,,,0,,,81,100
53820,note_off,,,,,60,0,5,,,,,0,,,41,100
53852,note_off,,,,,92,0,4,,,,,0,,,81,100
53856,note_on,,,,,4,0,4,,,,,0,,,79,100
53948,note_off,,,,,92,0,4,,,,,0,,,79,100
53952,note_on,,,,,0,0,5,,,,,0,,,65,100
53952,note_on,,,,,132,0,5,,,,,0,,,69,100
53952,note_on,,,,,4,0,4,,,,,0,,,77,100
54012,note_off,,,,,60,0,5,,,,,0,,,69,100
54012,note_off,,,,,0,0,5,,,,,0,,,65,100
54044,note_off,,,,,92,0,4,,,,,0,,,77,100
54048,note_on,,,,,4,0,4,,,,,0,,,76,100
54140,note_off,,,,,92,0,4,,,,,0,,,76,100
54144,note_on,,,,,4,0,4,,,,,0,,,74,100
54144,note_on,,,,,132,0,5,,,,,0,,,69,100
54144,note_on,,,,,0,0,5,,,,,0,,,65,100
54204,note_off,,,,,60,0,5,,,,,0,,,69,100
54204,note_off,,,,,0,0,5,,,,,0,,,65,100
54236,note_off,,,,,92,0,4,,,,,0,,,74,100
54240,note_on,,,,,4,0,4,,,,,0,,,72,100
54332,note_off,,,,,92,0,4,,,,,0,,,72,100
54336,note_on,,,,,4,0,4,,,,,0,,,70,100
54336,note_on,,,,,132,0,5,,,,,0,,,65,100
54428,note_off,,,,,92,0,4,,,,,0,,,70,100
54432,note_on,,,,,4,0,4,,,,,0,,,69,100
54524,note_off,,,,,188,0,5,,,,,0,,,65,100
54524,note_off,,,,,92,0,4,,,,,0,,,69,100
54528,note_on,,,,,4,0,4,,,,,0,,,70,100
54528,note_on,,,,,4,0,5,,,,,0,,,43,100
54588,note_off,,,,,60,0,5,,,,,0,,,43,100
54716,note_off,,,,,188,0,4,,,,,0,,,70,100
54720,note_on,,,,,0,0,5,,,,,0,,,67,100
54720,note_on,,,,,132,0,5,,,,,0,,,70,100
54720,note_on,,,,,4,0,4,,,,,0,,,79,100
54780,note_off,,,,,0,0,5,,,,,0,,,67,100
54780,note_off,,,,,60,0,5,,,,,0,,,70,100
54848,note_off,,,,,128,0,4,,,,,0,,,79,100
54912,note_on,,,,,132,0,5,,,,,0,,,70,100
54912,note_on,,,,,0,0,5,,,,,0,,,67,100
54912,note_on,,,,,64,0,4,,,,,0,,,79,100
54956,note_off,,,,,44,0,4,,,,,0,,,79,100
54960,note_on,,,,,4,0,4,,,,,0,,,81,100
54972,note_off,,,,,0,0,5,,,,,0,,,67,100
54972,note_off,,,,,60,0,5,,,,,0,,,70,100
55004,note_off,,,,,44,0,4,,,,,0,,,81,100
55008,note_on,,,,,4,0,4,,,,,0,,,79,100
55052,note_off,,,,,44,0,4,,,,,0,,,79,100
55056,note_on,,,,,4,0,4,,,,,0,,,81,100
55100,note_off,,,,,44,0,4,,,,,0,,,81,100
55104,note_on,,,,,132,0,5,,,,,0,,,70,100
55104,note_on,,,,,0,0,5,,,,,0,,,67,100
55104,note_on,,,,,4,0,4,,,,,0,,,79,100
55148,note_off,,,,,44,0,4,,,,,0,,,79,100
55152,note_on,,,,,4,0,4,,,,,0,,,81,100
55164,note_off,,,,,0,0,5,,,,,0,,,67,100
55164,note_off,,,,,60,0,5,,,,,0,,,70,100
55196,note_off,,,,,44,0,4,,,,,0,,,81,100
55200,note_on,,,,,4,0,4,,,,,0,,,79,100
55264,note_off,,,,,64,0,4,,,,,0,,,79,100
55296,note_on,,,,,132,0,5,,,,,0,,,40,100
55296,note_on,,,,,32,0,4,,,,,0,,,79,100
55356,note_off,,,,,60,0,5,,,,,0,,,40,100
55388,note_off,,,,,92,0,4,,,,,0,,,79,100
55392,note_on,,,,,4,0,4,,,,,0,,,77,100
55484,note_off,,,,,92,0,4,,,,,0,,,77,100
55488,note_on,,,,,0,0,5,,,,,0,,,67,100
55488,note_on,,,,,4,0,4,,,,,0,,,76,100
55488,note_on,,,,,132,0,5,,,,,0,,,64,100
55548,note_off,,,,,60,0,5,,,,,0,,,64,100
55548,note_off,,,,,0,0,5,,,,,0,,,67,100
55580,note_off,,,,,92,0,4,,,,,0,,,76,100
55584,note_on,,,,,4,0,4,,,,,0,,,74,100
55676,note_off,,,,,92,0,4,,,,,0,,,74,100
55680,note_on,,,,,4,0,4,,,,,0,,,72,100
55680,note_on,,,,,0,0,5,,,,,0,,,67,100
55680,note_on,,,,,132,0,5,,,,,0,,,64,100
55740,note_off,,,,,0,0,5,,,,,0,,,67,100
55740,note_off,,,,,60,0,5,,,,,0,,,64,100
55772,note_off,,,,,92,0,4,,,,,0,,,72,100
55776,note_on,,,,,4,0,4,,,,,0,,,70,100
55868,note_off,,,,,92,0,4,,,,,0,,,70,100
55872,note_on,,,,,4,0,4,,,,,0,,,69,100
55872,note_on,,,,,132,0,5,,,,,0,,,64,100
55964,note_off,,,,,92,0,4,,,,,0,,,69,100
55968,note_on,,,,,4,0,4,,,,,0,,,67,100
56060,note_off,,,,,92,0,4,,,,,0,,,67,100
56060,note_off,,,,,188,0,5,,,,,0,,,64,100
56064,note_on,,,,,4,0,4,,,,,0,,,69,100
56064,note_on,,,,,4,0,5,,,,,0,,,41,100
56124,note_off,,,,,60,0,5,,,,,0,,,41,100
56252,note_off,,,,,188,0,4,,,,,0,,,69,100
56256,note_on,,,,,132,0,5,,,,,0,,,69,100
56256,note_on,,,,,0,0,5,,,,,0,,,65,100
56256,note_on,,,,,4,0,4,,,,,0,,,77,100
56316,note_off,,,,,60,0,5,,,,,0,,,69,100
56316,note_off,,,,,0,0,5,,,,,0,,,65,100
56384,note_off,,,,,128,0,4,,,,,0,,,77,100
56448,note_on,,,,,64,0,4,,,,,0,,,77,100
56448,note_on,,,,,132,0,5,,,,,0,,,69,100
56448,note_on,,,,,0,0,5,,,,,0,,,65,100
56492,note_off,,,,,44,0,4,,,,,0,,,77,100
56496,note_on,,,,,4,0,4,,,,,0,,,79,100
56508,note_off,,,,,60,0,5,,,,,0,,,69,100
56508,note_off,,,,,0,0,5,,,,,0,,,65,100
56540,note_off,,,,,44,0,4,,,,,0,,,79,100
56544,note_on,,,,,4,0,4,,,,,0,,,77,100
56588,note_off,,,,,44,0,4,,,,,0,,,77,100
56592,note_on,,,,,4,0,4,,,,,0,,,79,100
56636,note_off,,,,,44,0,4,,,,,0,,,79,100
56640,note_on,,,,,0,0,5,,,,,0,,,65,100
56640,note_on,,,,,132,0,5,,,,,0,,,69,100
56640,note_on,,,,,4,0,4,,,,,0,,,77,100
56684,note_off,,,,,44,0,4,,,,,0,,,77,100
56688,note_on,,,,,4,0,4,,,,,0,,,79,100
56700,note_off,,,,,60,0,5,,,,,0,,,69,100
56700,note_off,,,,,0,0,5,,,,,0,,,65,100
56732,note_off,,,,,44,0,4,,,,,0,,,79,100
56736,note_on,,,,,4,0,4,,,,,0,,,77,100
56800,note_off,,,,,64,0,4,,,,,0,,,77,100
56832,note_on,,,,,32,0,4,,,,,0,,,77,100
56832,note_on,,,,,132,0,5,,,,,0,,,38,100
56892,note_off,,,,,60,0,5,,,,,0,,,38,100
56924,note_off,,,,,92,0,4,,,,,0,,,77,100
56928,note_on,,,,,4,0,4,,,,,0,,,76,100
57020,note_off,,,,,92,0,4,,,,,0,,,76,100
57024,note_on,,,,,4,0,4,,,,,0,,,74,100
57024,note_on,,,,,0,0,5,,,,,0,,,65,100
57024,note_on,,,,,132,0,5,,,,,0,,,62,100
57084,note_off,,,,,0,0,5,,,,,0,,,65,100
57084,note_off,,,,,60,0,5,,,,,0,,,62,100
57116,note_off,,,,,92,0,4,,,,,0,,,74,100
57120,note_on,,,,,4,0,4,,,,,0,,,72,100
57212,note_off,,,,,92,0,4,,,,,0,,,72,100
57216,note_on,,,,,0,0,5,,,,,0,,,65,100
57216,note_on,,,,,132,0,5,,,,,0,,,62,100
57216,note_on,,,,,4,0,4,,,,,0,,,70,100
57276,note_off,,,,,60,0,5,,,,,0,,,62,100
57276,note_off,,,,,0,0,5,,,,,0,,,65,100
57308,note_off,,,,,92,0,4,,,,,0,,,70,100
57312,note_on,,,,,4,0,4,,,,,0,,,69,100
57404,note_off,,,,,92,0,4,,,,,0,,,69,100
57408,note_on,,,,,4,0,4,,,,,0,,,67,100
57408,note_on,,,,,132,0,5,,,,,0,,,62,100
57500,note_off,,,,,92,0,4,,,,,0,,,67,100
57504,note_on,,,,,4,0,4,,,,,0,,,65,100
57596,note_off,,,,,188,0,5,,,,,0,,,62,100
57596,note_off,,,,,92,0,4,,,,,0,,,65,100
57600,note_on,,,,,4,0,5,,,,,0,,,40,100
57600,note_on,,,,,4,0,4,,,,,0,,,67,100
57660,note_off,,,,,60,0,5,,,,,0,,,40,100
57788,note_off,,,,,188,0,4,,,,,0,,,67,100
57792,note_on,,,,,4,0,4,,,,,0,,,76,100
57792,note_on,,,,,0,0,5,,,,,0,,,67,100
57792,note_on,,,,,132,0,5,,,,,0,,,64,100
57852,note_off,,,,,60,0,5,,,,,0,,,64,100
57852,note_off,,,,,0,0,5,,,,,0,,,67,100
57920,note_off,,,,,128,0,4,,,,,0,,,76,100
57984,note_on,,,,,64,0,4,,,,,0,,,76,100
57984,note_on,,,,,132,0,5,,,,,0,,,64,100
57984,note_on,,,,,0,0,5,,,,,0,,,67,100
58028,note_off,,,,,44,0,4,,,,,0,,,76,100
58032,note_on,,,,,4,0,4,,,,,0,,,77,100
58044,note_off,,,,,60,0,5,,,,,0,,,64,100
58044,note_off,,,,,0,0,5,,,,,0,,,67,100
58076,note_off,,,,,44,0,4,,,,,0,,,77,100
58080,note_on,,,,,4,0,4,,,,,0,,,76,100
58124,note_off,,,,,44,0,4,,,,,0,,,76,100
58128,note_on,,,,,4,0,4,,,,,0,,,77,100
58172,note_off,,,,,44,0,4,,,,,0,,,77,100
58176,note_on,,,,,0,0,5,,,,,0,,,67,100
58176,note_on,,,,,132,0,5,,,,,0,,,64,100
58176,note_on,,,,,4,0,4,,,,,0,,,76,100
58220,note_off,,,,,44,0,4,,,,,0,,,76,100
58224,note_on,,,,,4,0,4,,,,,0,,,77,100
58236,note_off,,,,,60,0,5,,,,,0,,,64,100
58236,note_off,,,,,0,0,5,,,,,0,,,67,100
58268,note_off,,,,,44,0,4,,,,,0,,,77,100
58272,note_on,,,,,4,0,4,,,,,0,,,76,100
58336,note_off,,,,,64,0,4,,,,,0,,,76,100
58368,note_on,,,,,32,0,4,,,,,0,,,76,100
58368,note_on,,,,,132,0,5,,,,,0,,,45,100
58428,note_off,,,,,60,0,5,,,,,0,,,45,100
58460,note_off,,,,,92,0,4,,,,,0,,,76,100
58464,note_on,,,,,4,0,4,,,,,0,,,74,100
58556,note_off,,,,,92,0,4,,,,,0,,,74,100
58560,note_on,,,,,4,0,4,,,,,0,,,73,100
58560,note_on,,,,,132,0,5,,,,,0,,,57,100
58560,note_on,,,,,0,0,5,,,,,0,,,64,100
58620,note_off,,,,,60,0,5,,,,,0,,,57,100
58620,note_off,,,,,0,0,5,,,,,0,,,64,100
58652,note_off,,,,,92,0,4,,,,,0,,,73,100
58656,note_on,,,,,4,0,4,,,,,0,,,71,100
58748,note_off,,,,,92,0,4,,,,,0,,,71,100
58752,note_on,,,,,4,0,4,,,,,0,,,69,100
58752,note_on,,,,,132,0,5,,,,,0,,,57,100
58752,note_on,,,,,0,0,5,,,,,0,,,64,100
58812,note_off,,,,,0,0,5,,,,,0,,,64,100
58812,note_off,,,,,60,0,5,,,,,0,,,57,100
58844,note_off,,,,,92,0,4,,,,,0,,,69,100
58848,note_on,,,,,4,0,4,,,,,0,,,67,100
58940,note_off,,,,,92,0,4,,,,,0,,,67,100
58944,note_on,,,,,132,0,5,,,,,0,,,57,100
58944,note_on,,,,,4,0,4,,,,,0,,,65,100
59036,note_off,,,,,92,0,4,,,,,0,,,65,100
59040,note_on,,,,,4,0,4,,,,,0,,,64,100
59132,note_off,,,,,188,0,5,,,,,0,,,57,100
59132,note_off,,,,,92,0,4,,,,,0,,,64,100
59136,note_on,,,,,0,0,4,,,,,0,,,65,100
59136,note_on,,,,,4,0,4,,,,,0,,,74,100
59136,note_on,,,,,4,0,5,,,,,0,,,62,100
59196,note_off,,,,,60,0,5,,,,,0,,,62,100
59228,note_off,,,,,92,0,4,,,,,0,,,65,100
59232,note_on,,,,,4,0,4,,,,,0,,,62,100
59324,note_off,,,,,92,0,4,,,,,0,,,62,100
59328,note_on,,,,,4,0,4,,,,,0,,,67,100
59328,note_on,,,,,132,0,5,,,,,0,,,64,100
59388,note_off,,,,,60,0,5,,,,,0,,,64,100
59392,note_off,,,,,64,0,4,,,,,0,,,74,100
59420,note_off,,,,,28,0,4,,,,,0,,,67,100
59424,note_on,,,,,4,0,4,,,,,0,,,64,100
59516,note_off,,,,,92,0,4,,,,,0,,,64,100
59520,note_on,,,,,132,0,5,,,,,0,,,65,100
59520,note_on,,,,,4,0,4,,,,,0,,,69,100
59580,note_off,,,,,60,0,5,,,,,0,,,65,100
59612,note_off,,,,,92,0,4,,,,,0,,,69,100
59616,note_on,,,,,4,0,4,,,,,0,,,65,100
59708,note_off,,,,,92,0,4,,,,,0,,,65,100
59712,note_on,,,,,4,0,4,,,,,0,,,70,100
59712,note_on,,,,,132,0,5,,,,,0,,,67,100
59772,note_off,,,,,60,0,5,,,,,0,,,67,100
59804,note_off,,,,,92,0,4,,,,,0,,,70,100
59808,note_on,,,,,4,0,4,,,,,0,,,67,100
59900,note_off,,,,,92,0,4,,,,,0,,,67,100
59904,note_on,,,,,0,0,4,,,,,0,,,65,100
59904,note_on,,,,,132,0,5,,,,,0,,,62,100
59904,note_on,,,,,4,0,4,,,,,0,,,74,100
59964,note_off,,,,,60,0,5,,,,,0,,,62,100
59996,note_off,,,,,92,0,4,,,,,0,,,65,100
60000,note_on,,,,,4,0,4,,,,,0,,,62,100
60092,note_off,,,,,92,0,4,,,,,0,,,62,100
60096,note_on,,,,,4,0,4,,,,,0,,,67,100
60096,note_on,,,,,132,0,5,,,,,0,,,64,100
60156,note_off,,,,,60,0,5,,,,,0,,,64,100
60160,note_off,,,,,64,0,4,,,,,0,,,74,100
60188,note_off,,,,,28,0,4,,,,,0,,,67,100
60192,note_on,,,,,4,0,4,,,,,0,,,64,100
60284,note_off,,,,,92,0,4,,,,,0,,,64,100
60288,note_on,,,,,4,0,4,,,,,0,,,69,100
60288,note_on,,,,,132,0,5,,,,,0,,,65,100
60348,note_off,,,,,60,0,5,,,,,0,,,65,100
60380,note_off,,,,,92,0,4,,,,,0,,,69,100
60384,note_on,,,,,4,0,4,,,,,0,,,65,100
60476,note_off,,,,,92,0,4,,,,,0,,,65,100
60480,note_on,,,,,132,0,5,,,,,0,,,67,100
60480,note_on,,,,,4,0,4,,,,,0,,,70,100
60540,note_off,,,,,60,0,5,,,,,0,,,67,100
60572,note_off,,,,,92,0,4,,,,,0,,,70,100
60576,note_on,,,,,4,0,4,,,,,0,,,67,100
60668,note_off,,,,,92,0,4,,,,,0,,,67,100
60672,note_on,,,,,0,0,4,,,,,0,,,65,100
60672,note_on,,,,,132,0,5,,,,,0,,,62,100
60672,note_on,,,,,4,0,4,,,,,0,,,74,100
60732,note_off,,,,,60,0,5,,,,,0,,,62,100
60764,note_off,,,,,92,0,4,,,,,0,,,65,100
60768,note_on,,,,,4,0,4,,,,,0,,,62,100
60860,note_off,,,,,92,0,4,,,,,0,,,62,100
60864,note_on,,,,,4,0,4,,,,,0,,,67,100
60864,note_on,,,,,132,0,5,,,,,0,,,64,100
60924,note_off,,,,,60,0,5,,,,,0,,,64,100
60928,note_off,,,,,64,0,4,,,,,0,,,74,100
60956,note_off,,,,,28,0,4,,,,,0,,,67,100
60960,note_on,,,,,4,0,4,,,,,0,,,64,100
61052,note_off,,,,,92,0,4,,,,,0,,,64,100
61056,note_on,,,,,4,0,4,,,,,0,,,69,100
61056,note_on,,,,,132,0,5,,,,,0,,,65,100
61116,note_off,,,,,60,0,5,,,,,0,,,65,100
61148,note_off,,,,,92,0,4,,,,,0,,,69,100
61152,note_on,,,,,4,0,4,,,,,0,,,65,100
61244,note_off,,,,,92,0,4,,,,,0,,,65,100
61248,note_on,,,,,4,0,4,,,,,0,,,70,100
61248,note_on,,,,,132,0,5,,,,,0,,,67,100
61308,note_off,,,,,60,0,5,,,,,0,,,67,100
61340,note_off,,,,,92,0,4,,,,,0,,,70,100
61344,note_on,,,,,4,0,4,,,,,0,,,67,100
61436,note_off,,,,,92,0,4,,,,,0,,,67,100
61440,note_on,,,,,4,0,4,,,,,0,,,69,100
61440,note_on,,,,,132,0,5,,,,,0,,,65,100
61500,note_off,,,,,60,0,4,,,,,0,,,69,100
61532,note_off,,,,,92,0,5,,,,,0,,,65,100
61536,note_on,,,,,4,0,5,,,,,0,,,62,100
61628,note_off,,,,,92,0,5,,,,,0,,,62,100
61632,note_on,,,,,0,0,4,,,,,0,,,77,100
61632,note_on,,,,,4,0,5,,,,,0,,,58,100
61632,note_on,,,,,132,0,4,,,,,0,,,74,100
61692,note_off,,,,,0,0,4,,,,,0,,,77,100
61692,note_off,,,,,60,0,4,,,,,0,,,74,100
61724,note_off,,,,,92,0,5,,,,,0,,,58,100
61728,note_on,,,,,4,0,5,,,,,0,,,55,100
61820,note_off,,,,,92,0,5,,,,,0,,,55,100
61824,note_on,,,,,132,0,4,,,,,0,,,67,100
61824,note_on,,,,,4,0,5,,,,,0,,,64,100
61884,note_off,,,,,60,0,4,,,,,0,,,67,100
61916,note_off,,,,,92,0,5,,,,,0,,,64,100
61920,note_on,,,,,4,0,5,,,,,0,,,61,100
62012,note_off,,,,,92,0,5,,,,,0,,,61,100
62016,note_on,,,,,4,0,5,,,,,0,,,57,100
62016,note_on,,,,,132,0,4,,,,,0,,,73,100
62016,note_on,,,,,0,0,4,,,,,0,,,76,100
62076,note_off,,,,,0,0,4,,,,,0,,,76,100
62076,note_off,,,,,60,0,4,,,,,0,,,73,100
62108,note_off,,,,,92,0,5,,,,,0,,,57,100
62112,note_on,,,,,4,0,5,,,,,0,,,61,100
62204,note_off,,,,,92,0,5,,,,,0,,,61,100
62208,note_on,,,,,132,0,4,,,,,0,,,69,100
62208,note_on,,,,,4,0,5,,,,,0,,,65,100
62268,note_off,,,,,60,0,4,,,,,0,,,69,100
62300,note_off,,,,,92,0,5,,,,,0,,,65,100
62304,note_on,,,,,4,0,5,,,,,0,,,62,100
62396,note_off,,,,,92,0,5,,,,,0,,,62,100
62400,note_on,,,,,132,0,4,,,,,0,,,74,100
62400,note_on,,,,,0,0,4,,,,,0,,,77,100
62400,note_on,,,,,4,0,5,,,,,0,,,58,100
62460,note_off,,,,,0,0,4,,,,,0,,,77,100
62460,note_off,,,,,60,0,4,,,,,0,,,74,100
62492,note_off,,,,,92,0,5,,,,,0,,,58,100
62496,note_on,,,,,4,0,5,,,,,0,,,55,100
62588,note_off,,,,,92,0,5,,,,,0,,,55,100
62592,note_on,,,,,132,0,4,,,,,0,,,67,100
62592,note_on,,,,,4,0,5,,,,,0,,,64,100
62652,note_off,,,,,60,0,4,,,,,0,,,67,100
62684,note_off,,,,,92,0,5,,,,,0,,,64,100
62688,note_on,,,,,4,0,5,,,,,0,,,61,100
62780,note_off,,,,,92,0,5,,,,,0,,,61,100
62784,note_on,,,,,0,0,4,,,,,0,,,76,100
62784,note_on,,,,,132,0,4,,,,,0,,,73,100
62784,note_on,,,,,4,0,5,,,,,0,,,57,100
62844,note_off,,,,,0,0,4,,,,,0,,,76,100
62844,note_off,,,,,60,0,4,,,,,0,,,73,100
62876,note_off,,,,,92,0,5,,,,,0,,,57,100
62880,note_on,,,,,4,0,5,,,,,0,,,61,100
62972,note_off,,,,,92,0,5,,,,,0,,,61,100
62976,note_on,,,,,4,0,5,,,,,0,,,65,100
62976,note_on,,,,,132,0,4,,,,,0,,,69,100
63036,note_off,,,,,60,0,4,,,,,0,,,69,100
63068,note_off,,,,,92,0,5,,,,,0,,,65,100
63072,note_on,,,,,4,0,5,,,,,0,,,62,100
63164,note_off,,,,,92,0,5,,,,,0,,,62,100
63168,note_on,,,,,132,0,4,,,,,0,,,74,100
63168,note_on,,,,,0,0,4,,,,,0,,,77,100
63168,note_on,,,,,4,0,5,,,,,0,,,58,100
63228,note_off,,,,,0,0,4,,,,,0,,,77,100
63228,note_off,,,,,60,0,4,,,,,0,,,74,100
63260,note_off,,,,,92,0,5,,,,,0,,,58,100
63264,note_on,,,,,4,0,5,,,,,0,,,55,100
63356,note_off,,,,,92,0,5,,,,,0,,,55,100
63360,note_on,,,,,132,0,4,,,,,0,,,67,100
63360,note_on,,,,,4,0,5,,,,,0,,,64,100
63420,note_off,,,,,60,0,4,,,,,0,,,67,100
63452,note_off,,,,,92,0,5,,,,,0,,,64,100
63456,note_on,,,,,4,0,5,,,,,0,,,61,100
63548,note_off,,,,,92,0,5,,,,,0,,,61,100
63552,note_on,,,,,4,0,5,,,,,0,,,57,100
63552,note_on,,,,,0,0,4,,,,,0,,,76,100
63552,note_on,,,,,132,0,4,,,,,0,,,73,100
63612,note_off,,,,,0,0,4,,,,,0,,,76,100
63612,note_off,,,,,60,0,4,,,,,0,,,73,100
63644,note_off,,,,,92,0,5,,,,,0,,,57,100
63648,note_on,,,,,4,0,5,,,,,0,,,61,100
63740,note_off,,,,,92,0,5,,,,,0,,,61,100
63744,note_on,,,,,132,0,4,,,,,0,,,65,100
63744,note_on,,,,,0,0,4,,,,,0,,,74,100
63744,note_on,,,,,0,0,5,,,,,0,,,62,100
63744,note_on,,,,,4,0,5,,,,,0,,,50,100
63804,note_off,,,,,0,0,5,,,,,0,,,62,100
63804,note_off,,,,,60,0,5,,,,,0,,,50,100
63836,note_off,,,,,92,0,4,,,,,0,,,65,100
63840,note_on,,,,,4,0,4,,,,,0,,,62,100
63872,note_off,,,,,32,0,4,,,,,0,,,74,100
63932,note_off,,,,,60,0,4,,,,,0,,,62,100
63936,note_on,,,,,132,0,5,,,,,0,,,52,100
63936,note_on,,,,,4,0,4,,,,,0,,,67,100
64028,note_off,,,,,92,0,4,,,,,0,,,67,100
64032,note_on,,,,,4,0,4,,,,,0,,,64,100
64124,note_off,,,,,92,0,4,,,,,0,,,64,100
64124,note_off,,,,,188,0,5,,,,,0,,,52,100
64128,note_on,,,,,4,0,4,,,,,0,,,69,100
64128,note_on,,,,,4,0,5,,,,,0,,,53,100
64220,note_off,,,,,92,0,4,,,,,0,,,69,100
64224,note_on,,,,,4,0,4,,,,,0,,,65,100
64316,note_off,,,,,92,0,4,,,,,0,,,65,100
64316,note_off,,,,,188,0,5,,,,,0,,,53,100
64320,note_on,,,,,4,0,5,,,,,0,,,55,100
64320,note_on,,,,,4,0,4,,,,,0,,,71,100
64412,note_off,,,,,92,0,4,,,,,0,,,71,100
64416,note_on,,,,,4,0,4,,,,,0,,,67,100
64508,note_off,,,,,92,0,4,,,,,0,,,67,100
64508,note_off,,,,,188,0,5,,,,,0,,,55,100
64512,note_on,,,,,4,0,4,,,,,0,,,73,100
64512,note_on,,,,,4,0,5,,,,,0,,,57,100
64604,note_off,,,,,92,0,4,,,,,0,,,73,100
64608,note_on,,,,,4,0,4,,,,,0,,,69,100
64700,note_off,,,,,92,0,4,,,,,0,,,69,100
64700,note_off,,,,,188,0,5,,,,,0,,,57,100
64704,note_on,,,,,4,0,5,,,,,0,,,55,100
64704,note_on,,,,,4,0,4,,,,,0,,,74,100
64796,note_off,,,,,92,0,4,,,,,0,,,74,100
64800,note_on,,,,,4,0,4,,,,,0,,,76,100
64892,note_off,,,,,92,0,4,,,,,0,,,76,100
64892,note_off,,,,,188,0,5,,,,,0,,,55,100
64896,note_on,,,,,4,0,5,,,,,0,,,57,100
64896,note_on,,,,,4,0,4,,,,,0,,,77,100
64988,note_off,,,,,92,0,4,,,,,0,,,77,100
64992,note_on,,,,,4,0,4,,,,,0,,,74,100
65024,note_off,,,,,128,0,5,,,,,0,,,57,100
65084,note_off,,,,,92,0,4,,,,,0,,,74,100
65088,note_on,,,,,4,0,4,,,,,0,,,76,100
65088,note_on,,,,,64,0,5,,,,,0,,,45,100
65168,note_off,,,,,80,0,5,,,,,0,,,45,100
65180,note_off,,,,,92,0,4,,,,,0,,,76,100
65184,note_on,,,,,4,0,4,,,,,0,,,73,100
65276,note_off,,,,,92,0,4,,,,,0,,,73,100
65280,note_on,,,,,112,0,5,,,,,0,,,50,100
65280,note_on,,,,,4,0,4,,,,,0,,,74,100
65372,note_off,,,,,92,0,4,,,,,0,,,74,100
65376,note_on,,,,,4,0,4,,,,,0,,,69,100
65468,note_off,,,,,92,0,4,,,,,0,,,69,100
65472,note_on,,,,,4,0,4,,,,,0,,,70,100
65536,note_off,,,,,256,0,5,,,,,0,,,50,100
65564,note_off,,,,,92,0,4,,,,,0,,,70,100
65568,note_on,,,,,4,0,4,,,,,0,,,67,100
65660,note_off,,,,,92,0,4,,,,,0,,,67,100
65664,note_on,,,,,4,0,4,,,,,0,,,69,100
65756,note_off,,,,,92,0,4,,,,,0,,,69,100
65760,note_on,,,,,4,0,4,,,,,0,,,65,100
65852,note_off,,,,,92,0,4,,,,,0,,,65,100
65856,note_on,,,,,320,0,5,,,,,0,,,67,100
65856,note_on,,,,,4,0,4,,,,,0,,,70,100
65948,note_off,,,,,92,0,5,,,,,0,,,67,100
65952,note_on,,,,,4,0,5,,,,,0,,,64,100
66044,note_off,,,,,188,0,4,,,,,0,,,70,100
66044,note_off,,,,,92,0,5,,,,,0,,,64,100
66048,note_on,,,,,4,0,4,,,,,0,,,69,100
66048,note_on,,,,,4,0,5,,,,,0,,,65,100
66140,note_off,,,,,92,0,5,,,,,0,,,65,100
66144,note_on,,,,,4,0,5,,,,,0,,,62,100
66236,note_off,,,,,188,0,4,,,,,0,,,69,100
66236,note_off,,,,,92,0,5,,,,,0,,,62,100
66240,note_on,,,,,4,0,4,,,,,0,,,67,100
66240,note_on,,,,,4,0,5,,,,,0,,,64,100
66332,note_off,,,,,92,0,5,,,,,0,,,64,100
66336,note_on,,,,,4,0,5,,,,,0,,,61,100
66428,note_off,,,,,92,0,5,,,,,0,,,61,100
66428,note_off,,,,,188,0,4,,,,,0,,,67,100
66432,note_on,,,,,4,0,4,,,,,0,,,65,100
66432,note_on,,,,,4,0,5,,,,,0,,,62,100
66524,note_off,,,,,92,0,5,,,,,0,,,62,100
66528,note_on,,,,,4,0,5,,,,,0,,,57,100
66560,note_off,,,,,128,0,4,,,,,0,,,65,100
66620,note_off,,,,,92,0,5,,,,,0,,,57,100
66624,note_on,,,,,4,0,5,,,,,0,,,53,100
66716,note_off,,,,,92,0,5,,,,,0,,,53,100
66720,note_on,,,,,4,0,5,,,,,0,,,57,100
66784,note_off,,,,,64,0,5,,,,,0,,,57,100
66816,note_on,,,,,32,0,5,,,,,0,,,50,100
66860,note_off,,,,,44,0,5,,,,,0,,,50,100
66864,note_on,,,,,4,0,5,,,,,0,,,52,100
66908,note_off,,,,,44,0,5,,,,,0,,,52,100
66912,note_on,,,,,4,0,5,,,,,0,,,50,100
67296,note_off,,,,,384,0,5,,,,,0,,,50,100
67584,note_on,,,,,1024,0,4,,,,,0,,,69,100
67676,note_off,,,,,92,0,4,,,,,0,,,69,100
67680,note_on,,,,,4,0,4,,,,,0,,,71,100
67772,note_off,,,,,92,0,4,,,,,0,,,71,100
67776,note_on,,,,,4,0,4,,,,,0,,,73,100
67868,note_off,,,,,92,0,4,,,,,0,,,73,100
67872,note_on,,,,,4,0,4,,,,,0,,,74,100
67964,note_off,,,,,92,0,4,,,,,0,,,74,100
67968,note_on,,,,,4,0,4,,,,,0,,,76,100
68060,note_off,,,,,92,0,4,,,,,0,,,76,100
68064,note_on,,,,,4,0,4,,,,,0,,,73,100
68156,note_off,,,,,92,0,4,,,,,0,,,73,100
68160,note_on,,,,,4,0,4,,,,,0,,,77,100
68252,note_off,,,,,92,0,4,,,,,0,,,77,100
68256,note_on,,,,,4,0,4,,,,,0,,,74,100
68348,note_off,,,,,92,0,4,,,,,0,,,74,100
68352,note_on,,,,,4,0,4,,,,,0,,,76,100
68352,note_on,,,,,1056,0,5,,,,,0,,,57,100
68444,note_off,,,,,92,0,5,,,,,0,,,57,100
68448,note_on,,,,,4,0,5,,,,,0,,,59,100
68540,note_off,,,,,92,0,5,,,,,0,,,59,100
68544,note_on,,,,,4,0,5,,,,,0,,,61,100
68636,note_off,,,,,92,0,5,,,,,0,,,61,100
68640,note_on,,,,,4,0,5,,,,,0,,,62,100
68732,note_off,,,,,92,0,5,,,,,0,,,62,100
68736,note_on,,,,,4,0,5,,,,,0,,,64,100
68828,note_off,,,,,92,0,5,,,,,0,,,64,100
68832,note_on,,,,,4,0,5,,,,,0,,,61,100
68924,note_off,,,,,572,0,4,,,,,0,,,76,100
68924,note_off,,,,,92,0,5,,,,,0,,,61,100
68928,note_on,,,,,4,0,4,,,,,0,,,69,100
68928,note_on,,,,,4,0,5,,,,,0,,,65,100
69020,note_off,,,,,92,0,5,,,,,0,,,65,100
69024,note_on,,,,,4,0,5,,,,,0,,,62,100
69116,note_off,,,,,92,0,5,,,,,0,,,62,100
69116,note_off,,,,,188,0,4,,,,,0,,,69,100
69120,note_on,,,,,4,0,5,,,,,0,,,67,100
69120,note_on,,,,,4,0,4,,,,,0,,,71,100
69212,note_off,,,,,92,0,4,,,,,0,,,71,100
69216,note_on,,,,,4,0,4,,,,,0,,,67,100
69248,note_off,,,,,128,0,5,,,,,0,,,67,100
69308,note_off,,,,,92,0,4,,,,,0,,,67,100
69312,note_on,,,,,4,0,4,,,,,0,,,73,100
69312,note_on,,,,,64,0,5,,,,,0,,,69,100
69372,note_off,,,,,60,0,5,,,,,0,,,69,100
69404,note_off,,,,,92,0,4,,,,,0,,,73,100
69408,note_on,,,,,4,0,4,,,,,0,,,69,100
69500,note_off,,,,,92,0,4,,,,,0,,,69,100
69504,note_on,,,,,132,0,5,,,,,0,,,71,100
69504,note_on,,,,,4,0,4,,,,,0,,,74,100
69564,note_off,,,,,60,0,5,,,,,0,,,71,100
69596,note_off,,,,,92,0,4,,,,,0,,,74,100
69600,note_on,,,,,4,0,4,,,,,0,,,71,100
69692,note_off,,,,,92,0,4,,,,,0,,,71,100
69696,note_on,,,,,132,0,5,,,,,0,,,73,100
69696,note_on,,,,,4,0,4,,,,,0,,,76,100
69756,note_off,,,,,60,0,5,,,,,0,,,73,100
69788,note_off,,,,,92,0,4,,,,,0,,,76,100
69792,note_on,,,,,4,0,4,,,,,0,,,73,100
69884,note_off,,,,,92,0,4,,,,,0,,,73,100
69888,note_on,,,,,4,0,4,,,,,0,,,78,100
69888,note_on,,,,,132,0,5,,,,,0,,,62,100
69888,note_on,,,,,0,0,5,,,,,0,,,74,100
69948,note_off,,,,,0,0,5,,,,,0,,,74,100
69948,note_off,,,,,60,0,5,,,,,0,,,62,100
69980,note_off,,,,,92,0,4,,,,,0,,,78,100
69984,note_on,,,,,4,0,4,,,,,0,,,74,100
70076,note_off,,,,,92,0,4,,,,,0,,,74,100
70080,note_on,,,,,4,0,4,,,,,0,,,79,100
70080,note_on,,,,,132,0,5,,,,,0,,,64,100
70172,note_off,,,,,92,0,4,,,,,0,,,79,100
70176,note_on,,,,,4,0,4,,,,,0,,,76,100
70268,note_off,,,,,188,0,5,,,,,0,,,64,100
70268,note_off,,,,,92,0,4,,,,,0,,,76,100
70272,note_on,,,,,4,0,5,,,,,0,,,66,100
70272,note_on,,,,,4,0,4,,,,,0,,,81,100
70364,note_off,,,,,92,0,4,,,,,0,,,81,100
70368,note_on,,,,,4,0,4,,,,,0,,,72,100
70460,note_off,,,,,188,0,5,,,,,0,,,66,100
70460,note_off,,,,,92,0,4,,,,,0,,,72,100
70464,note_on,,,,,4,0,5,,,,,0,,,62,100
70464,note_on,,,,,4,0,4,,,,,0,,,70,100
70556,note_off,,,,,92,0,4,,,,,0,,,70,100
70560,note_on,,,,,4,0,4,,,,,0,,,69,100
70652,note_off,,,,,188,0,5,,,,,0,,,62,100
70652,note_off,,,,,92,0,4,,,,,0,,,69,100
70656,note_on,,,,,0,0,5,,,,,0,,,67,100
70656,note_on,,,,,4,0,5,,,,,0,,,55,100
70656,note_on,,,,,4,0,4,,,,,0,,,70,100
70748,note_off,,,,,92,0,4,,,,,0,,,70,100
70752,note_on,,,,,4,0,4,,,,,0,,,67,100
70784,note_off,,,,,0,0,5,,,,,0,,,67,100
70784,note_off,,,,,128,0,5,,,,,0,,,55,100
70844,note_off,,,,,92,0,4,,,,,0,,,67,100
70848,note_on,,,,,4,0,4,,,,,0,,,72,100
70848,note_on,,,,,64,0,5,,,,,0,,,57,100
70940,note_off,,,,,92,0,4,,,,,0,,,72,100
70944,note_on,,,,,4,0,4,,,,,0,,,69,100
71036,note_off,,,,,92,0,4,,,,,0,,,69,100
71036,note_off,,,,,188,0,5,,,,,0,,,57,100
71040,note_on,,,,,4,0,4,,,,,0,,,74,100
71040,note_on,,,,,4,0,5,,,,,0,,,58,100
71132,note_off,,,,,92,0,4,,,,,0,,,74,100
71136,note_on,,,,,4,0,4,,,,,0,,,70,100
71228,note_off,,,,,92,0,4,,,,,0,,,70,100
71228,note_off,,,,,188,0,5,,,,,0,,,58,100
71232,note_on,,,,,4,0,4,,,,,0,,,69,100
71232,note_on,,,,,4,0,5,,,,,0,,,60,100
71324,note_off,,,,,92,0,4,,,,,0,,,69,100
71328,note_on,,,,,4,0,4,,,,,0,,,67,100
71420,note_off,,,,,92,0,4,,,,,0,,,67,100
71420,note_off,,,,,188,0,5,,,,,0,,,60,100
71424,note_on,,,,,4,0,4,,,,,0,,,66,100
71424,note_on,,,,,4,0,5,,,,,0,,,50,100
71424,note_on,,,,,0,0,5,,,,,0,,,62,100
71484,note_off,,,,,60,0,5,,,,,0,,,50,100
71484,note_off,,,,,0,0,5,,,,,0,,,62,100
71516,note_off,,,,,92,0,4,,,,,0,,,66,100
71520,note_on,,,,,4,0,4,,,,,0,,,62,100
71612,note_off,,,,,92,0,4,,,,,0,,,62,100
71616,note_on,,,,,132,0,5,,,,,0,,,52,100
71616,note_on,,,,,4,0,4,,,,,0,,,67,100
71708,note_off,,,,,92,0,4,,,,,0,,,67,100
71712,note_on,,,,,4,0,4,,,,,0,,,64,100
71804,note_off,,,,,188,0,5,,,,,0,,,52,100
71804,note_off,,,,,92,0,4,,,,,0,,,64,100
71808,note_on,,,,,4,0,4,,,,,0,,,69,100
71808,note_on,,,,,4,0,5,,,,,0,,,54,100
71900,note_off,,,,,92,0,4,,,,,0,,,69,100
71904,note_on,,,,,4,0,4,,,,,0,,,60,100
71996,note_off,,,,,92,0,4,,,,,0,,,60,100
71996,note_off,,,,,188,0,5,,,,,0,,,54,100
72000,note_on,,,,,4,0,4,,,,,0,,,58,100
72000,note_on,,,,,4,0,5,,,,,0,,,50,100
72092,note_off,,,,,92,0,4,,,,,0,,,58,100
72096,note_on,,,,,4,0,4,,,,,0,,,57,100
72188,note_off,,,,,92,0,4,,,,,0,,,57,100
72188,note_off,,,,,188,0,5,,,,,0,,,50,100
72192,note_on,,,,,4,0,4,,,,,0,,,58,100
72192,note_on,,,,,4,0,5,,,,,0,,,55,100
72252,note_off,,,,,60,0,5,,,,,0,,,55,100
72284,note_off,,,,,92,0,4,,,,,0,,,58,100
72288,note_on,,,,,4,0,4,,,,,0,,,55,100
72380,note_off,,,,,92,0,4,,,,,0,,,55,100
72384,note_on,,,,,4,0,4,,,,,0,,,60,100
72384,note_on,,,,,132,0,5,,,,,0,,,57,100
72444,note_off,,,,,60,0,5,,,,,0,,,57,100
72476,note_off,,,,,92,0,4,,,,,0,,,60,100
72480,note_on,,,,,4,0,4,,,,,0,,,57,100
72572,note_off,,,,,92,0,4,,,,,0,,,57,100
72576,note_on,,,,,132,0,5,,,,,0,,,58,100
72576,note_on,,,,,4,0,4,,,,,0,,,62,100
72636,note_off,,,,,60,0,5,,,,,0,,,58,100
72668,note_off,,,,,92,0,4,,,,,0,,,62,100
72672,note_on,,,,,4,0,4,,,,,0,,,58,100
72764,note_off,,,,,92,0,4,,,,,0,,,58,100
72768,note_on,,,,,132,0,5,,,,,0,,,60,100
72768,note_on,,,,,4,0,4,,,,,0,,,64,100
72828,note_off,,,,,60,0,5,,,,,0,,,60,100
72860,note_off,,,,,92,0,4,,,,,0,,,64,100
72864,note_on,,,,,4,0,4,,,,,0,,,60,100
72956,note_off,,,,,92,0,4,,,,,0,,,60,100
72960,note_on,,,,,4,0,4,,,,,0,,,65,100
72960,note_on,,,,,132,0,5,,,,,0,,,62,100
73020,note_off,,,,,60,0,5,,,,,0,,,62,100
73052,note_off,,,,,92,0,4,,,,,0,,,65,100
73056,note_on,,,,,4,0,4,,,,,0,,,62,100
73148,note_off,,,,,92,0,4,,,,,0,,,62,100
73152,note_on,,,,,4,0,4,,,,,0,,,67,100
73152,note_on,,,,,132,0,5,,,,,0,,,64,100
73212,note_off,,,,,60,0,5,,,,,0,,,64,100
73244,note_off,,,,,92,0,4,,,,,0,,,67,100
73248,note_on,,,,,4,0,4,,,,,0,,,64,100
73340,note_off,,,,,92,0,4,,,,,0,,,64,100
73344,note_on,,,,,4,0,4,,,,,0,,,69,100
73344,note_on,,,,,132,0,5,,,,,0,,,65,100
73404,note_off,,,,,60,0,5,,,,,0,,,65,100
73436,note_off,,,,,92,0,4,,,,,0,,,69,100
73440,note_on,,,,,4,0,4,,,,,0,,,65,100
73532,note_off,,,,,92,0,4,,,,,0,,,65,100
73536,note_on,,,,,132,0,5,,,,,0,,,67,100
73536,note_on,,,,,4,0,4,,,,,0,,,70,100
73596,note_off,,,,,60,0,5,,,,,0,,,67,100
73628,note_off,,,,,92,0,4,,,,,0,,,70,100
73632,note_on,,,,,4,0,4,,,,,0,,,67,100
73724,note_off,,,,,92,0,4,,,,,0,,,67,100
73728,note_on,,,,,132,0,5,,,,,0,,,69,100
73728,note_on,,,,,4,0,4,,,,,0,,,72,100
73820,note_off,,,,,92,0,5,,,,,0,,,69,100
73824,note_on,,,,,4,0,5,,,,,0,,,65,100
73916,note_off,,,,,92,0,5,,,,,0,,,65,100
73920,note_on,,,,,4,0,5,,,,,0,,,62,100
73984,note_off,,,,,256,0,4,,,,,0,,,72,100
74012,note_off,,,,,92,0,5,,,,,0,,,62,100
74016,note_on,,,,,4,0,5,,,,,0,,,58,100
74108,note_off,,,,,92,0,5,,,,,0,,,58,100
74112,note_on,,,,,4,0,5,,,,,0,,,67,100
74112,note_on,,,,,128,0,4,,,,,0,,,72,100
74204,note_off,,,,,92,0,4,,,,,0,,,72,100
74204,note_off,,,,,92,0,5,,,,,0,,,67,100
74208,note_on,,,,,4,0,4,,,,,0,,,70,100
74208,note_on,,,,,4,0,5,,,,,0,,,64,100
74252,note_off,,,,,44,0,4,,,,,0,,,70,100
74256,note_on,,,,,4,0,4,,,,,0,,,72,100
74300,note_off,,,,,44,0,4,,,,,0,,,72,100
74300,note_off,,,,,92,0,5,,,,,0,,,64,100
74304,note_on,,,,,4,0,5,,,,,0,,,60,100
74304,note_on,,,,,4,0,4,,,,,0,,,70,100
74348,note_off,,,,,44,0,4,,,,,0,,,70,100
74352,note_on,,,,,4,0,4,,,,,0,,,72,100
74396,note_off,,,,,44,0,4,,,,,0,,,72,100
74396,note_off,,,,,92,0,5,,,,,0,,,60,100
74400,note_on,,,,,4,0,5,,,,,0,,,64,100
74400,note_on,,,,,4,0,4,,,,,0,,,69,100
74444,note_off,,,,,44,0,4,,,,,0,,,69,100
74448,note_on,,,,,4,0,4,,,,,0,,,70,100
74492,note_off,,,,,92,0,5,,,,,0,,,64,100
74492,note_off,,,,,44,0,4,,,,,0,,,70,100
74496,note_on,,,,,4,0,4,,,,,0,,,72,100
74496,note_on,,,,,4,0,5,,,,,0,,,69,100
74588,note_off,,,,,92,0,5,,,,,0,,,69,100
74592,note_on,,,,,4,0,5,,,,,0,,,65,100
74684,note_off,,,,,92,0,5,,,,,0,,,65,100
74688,note_on,,,,,4,0,5,,,,,0,,,62,100
74752,note_off,,,,,256,0,4,,,,,0,,,72,100
74780,note_off,,,,,92,0,5,,,,,0,,,62,100
74784,note_on,,,,,4,0,5,,,,,0,,,58,100
74876,note_off,,,,,92,0,5,,,,,0,,,58,100
74880,note_on,,,,,4,0,5,,,,,0,,,67,100
74880,note_on,,,,,128,0,4,,,,,0,,,72,100
74972,note_off,,,,,92,0,5,,,,,0,,,67,100
74972,note_off,,,,,92,0,4,,,,,0,,,72,100
74976,note_on,,,,,4,0,4,,,,,0,,,70,100
74976,note_on,,,,,4,0,5,,,,,0,,,64,100
75020,note_off,,,,,44,0,4,,,,,0,,,70,100
75024,note_on,,,,,4,0,4,,,,,0,,,72,100
75068,note_off,,,,,44,0,4,,,,,0,,,72,100
75068,note_off,,,,,92,0,5,,,,,0,,,64,100
75072,note_on,,,,,4,0,5,,,,,0,,,60,100
75072,note_on,,,,,4,0,4,,,,,0,,,70,100
75116,note_off,,,,,44,0,4,,,,,0,,,70,100
75120,note_on,,,,,4,0,4,,,,,0,,,72,100
75164,note_off,,,,,44,0,4,,,,,0,,,72,100
75164,note_off,,,,,92,0,5,,,,,0,,,60,100
75168,note_on,,,,,4,0,4,,,,,0,,,69,100
75168,note_on,,,,,4,0,5,,,,,0,,,64,100
75212,note_off,,,,,44,0,4,,,,,0,,,69,100
75216,note_on,,,,,4,0,4,,,,,0,,,70,100
75260,note_off,,,,,92,0,5,,,,,0,,,64,100
75260,note_off,,,,,44,0,4,,,,,0,,,70,100
75264,note_on,,,,,4,0,4,,,,,0,,,72,100
75264,note_on,,,,,4,0,5,,,,,0,,,69,100
75324,note_off,,,,,60,0,4,,,,,0,,,72,100
75356,note_off,,,,,92,0,5,,,,,0,,,69,100
75360,note_on,,,,,4,0,5,,,,,0,,,65,100
75452,note_off,,,,,92,0,5,,,,,0,,,65,100
75456,note_on,,,,,4,0,5,,,,,0,,,62,100
75456,note_on,,,,,0,0,4,,,,,0,,,77,100
75456,note_on,,,,,132,0,4,,,,,0,,,81,100
75516,note_off,,,,,0,0,4,,,,,0,,,77,100
75516,note_off,,,,,60,0,4,,,,,0,,,81,100
75548,note_off,,,,,92,0,5,,,,,0,,,62,100
75552,note_on,,,,,4,0,5,,,,,0,,,58,100
75644,note_off,,,,,92,0,5,,,,,0,,,58,100
75648,note_on,,,,,132,0,4,,,,,0,,,70,100
75648,note_on,,,,,4,0,5,,,,,0,,,67,100
75708,note_off,,,,,60,0,4,,,,,0,,,70,100
75740,note_off,,,,,92,0,5,,,,,0,,,67,100
75744,note_on,,,,,4,0,5,,,,,0,,,64,100
75836,note_off,,,,,92,0,5,,,,,0,,,64,100
75840,note_on,,,,,4,0,5,,,,,0,,,60,100
75840,note_on,,,,,0,0,4,,,,,0,,,76,100
75840,note_on,,,,,132,0,4,,,,,0,,,79,100
75900,note_off,,,,,60,0,4,,,,,0,,,79,100
75900,note_off,,,,,0,0,4,,,,,0,,,76,100
75932,note_off,,,,,92,0,5,,,,,0,,,60,100
75936,note_on,,,,,4,0,5,,,,,0,,,64,100
76028,note_off,,,,,92,0,5,,,,,0,,,64,100
76032,note_on,,,,,132,0,4,,,,,0,,,69,100
76032,note_on,,,,,4,0,5,,,,,0,,,65,100
76092,note_off,,,,,60,0,5,,,,,0,,,65,100
76124,note_off,,,,,92,0,4,,,,,0,,,69,100
76128,note_on,,,,,4,0,4,,,,,0,,,65,100
76220,note_off,,,,,92,0,4,,,,,0,,,65,100
76224,note_on,,,,,132,0,5,,,,,0,,,53,100
76224,note_on,,,,,4,0,4,,,,,0,,,72,100
76284,note_off,,,,,60,0,5,,,,,0,,,53,100
76316,note_off,,,,,92,0,4,,,,,0,,,72,100
76320,note_on,,,,,4,0,4,,,,,0,,,69,100
76412,note_off,,,,,92,0,4,,,,,0,,,69,100
76416,note_on,,,,,4,0,4,,,,,0,,,77,100
76416,note_on,,,,,132,0,5,,,,,0,,,53,100
76476,note_off,,,,,60,0,5,,,,,0,,,53,100
76508,note_off,,,,,92,0,4,,,,,0,,,77,100
76512,note_on,,,,,4,0,4,,,,,0,,,72,100
76604,note_off,,,,,92,0,4,,,,,0,,,72,100
76608,note_on,,,,,4,0,4,,,,,0,,,81,100
76608,note_on,,,,,132,0,5,,,,,0,,,41,100
76668,note_off,,,,,60,0,5,,,,,0,,,41,100
76700,note_off,,,,,92,0,4,,,,,0,,,81,100
76704,note_on,,,,,4,0,4,,,,,0,,,77,100
76796,note_off,,,,,92,0,4,,,,,0,,,77,100
76800,note_on,,,,,132,0,5,,,,,0,,,48,100
76800,note_on,,,,,4,0,4,,,,,0,,,76,100
76860,note_off,,,,,60,0,5,,,,,0,,,48,100
76892,note_off,,,,,92,0,4,,,,,0,,,76,100
76896,note_on,,,,,4,0,4,,,,,0,,,79,100
76988,note_off,,,,,92,0,4,,,,,0,,,79,100
76992,note_on,,,,,132,0,5,,,,,0,,,60,100
76992,note_on,,,,,4,0,4,,,,,0,,,72,100
77052,note_off,,,,,60,0,5,,,,,0,,,60,100
77084,note_off,,,,,92,0,4,,,,,0,,,72,100
77088,note_on,,,,,4,0,4,,,,,0,,,76,100
77180,note_off,,,,,92,0,4,,,,,0,,,76,100
77184,note_on,,,,,4,0,4,,,,,0,,,67,100
77184,note_on,,,,,132,0,5,,,,,0,,,60,100
77244,note_off,,,,,60,0,5,,,,,0,,,60,100
77276,note_off,,,,,92,0,4,,,,,0,,,67,100
77280,note_on,,,,,4,0,4,,,,,0,,,72,100
77372,note_off,,,,,92,0,4,,,,,0,,,72,100
77376,note_on,,,,,132,0,5,,,,,0,,,66,100
77376,note_on,,,,,4,0,4,,,,,0,,,70,100
77436,note_off,,,,,60,0,5,,,,,0,,,66,100
77468,note_off,,,,,92,0,4,,,,,0,,,70,100
77472,note_on,,,,,4,0,4,,,,,0,,,69,100
77564,note_off,,,,,92,0,4,,,,,0,,,69,100
77568,note_on,,,,,132,0,5,,,,,0,,,67,100
77568,note_on,,,,,4,0,4,,,,,0,,,70,100
77628,note_off,,,,,60,0,5,,,,,0,,,67,100
77660,note_off,,,,,92,0,4,,,,,0,,,70,100
77664,note_on,,,,,4,0,4,,,,,0,,,67,100
77756,note_off,,,,,92,0,4,,,,,0,,,67,100
77760,note_on,,,,,132,0,5,,,,,0,,,55,100
77760,note_on,,,,,4,0,4,,,,,0,,,74,100
77820,note_off,,,,,60,0,5,,,,,0,,,55,100
77852,note_off,,,,,92,0,4,,,,,0,,,74,100
77856,note_on,,,,,4,0,4,,,,,0,,,70,100
77948,note_off,,,,,92,0,4,,,,,0,,,70,100
77952,note_on,,,,,4,0,4,,,,,0,,,79,100
77952,note_on,,,,,132,0,5,,,,,0,,,55,100
78012,note_off,,,,,60,0,5,,,,,0,,,55,100
78044,note_off,,,,,92,0,4,,,,,0,,,79,100
78048,note_on,,,,,4,0,4,,,,,0,,,74,100
78140,note_off,,,,,92,0,4,,,,,0,,,74,100
78144,note_on,,,,,132,0,5,,,,,0,,,43,100
78144,note_on,,,,,4,0,4,,,,,0,,,82,100
78204,note_off,,,,,60,0,5,,,,,0,,,43,100
78236,note_off,,,,,92,0,4,,,,,0,,,82,100
78240,note_on,,,,,4,0,4,,,,,0,,,79,100
78332,note_off,,,,,92,0,4,,,,,0,,,79,100
78336,note_on,,,,,132,0,5,,,,,0,,,50,100
78336,note_on,,,,,4,0,4,,,,,0,,,77,100
78396,note_off,,,,,60,0,5,,,,,0,,,50,100
78428,note_off,,,,,92,0,4,,,,,0,,,77,100
78432,note_on,,,,,4,0,4,,,,,0,,,81,100
78524,note_off,,,,,92,0,4,,,,,0,,,81,100
78528,note_on,,,,,132,0,5,,,,,0,,,62,100
78528,note_on,,,,,4,0,4,,,,,0,,,74,100
78588,note_off,,,,,60,0,5,,,,,0,,,62,100
78620,note_off,,,,,92,0,4,,,,,0,,,74,100
78624,note_on,,,,,4,0,4,,,,,0,,,77,100
78716,note_off,,,,,92,0,4,,,,,0,,,77,100
78720,note_on,,,,,4,0,4,,,,,0,,,69,100
78720,note_on,,,,,132,0,5,,,,,0,,,62,100
78780,note_off,,,,,60,0,5,,,,,0,,,62,100
78812,note_off,,,,,92,0,4,,,,,0,,,69,100
78816,note_on,,,,,4,0,4,,,,,0,,,74,100
78908,note_off,,,,,92,0,4,,,,,0,,,74,100
78912,note_on,,,,,132,0,5,,,,,0,,,68,100
78912,note_on,,,,,4,0,4,,,,,0,,,72,100
78972,note_off,,,,,60,0,5,,,,,0,,,68,100
79004,note_off,,,,,92,0,4,,,,,0,,,72,100
79008,note_on,,,,,4,0,4,,,,,0,,,71,100
79100,note_off,,,,,92,0,4,,,,,0,,,71,100
79104,note_on,,,,,132,0,5,,,,,0,,,69,100
79104,note_on,,,,,4,0,4,,,,,0,,,72,100
79164,note_off,,,,,60,0,5,,,,,0,,,69,100
79196,note_off,,,,,92,0,4,,,,,0,,,72,100
79200,note_on,,,,,4,0,4,,,,,0,,,69,100
79292,note_off,,,,,92,0,4,,,,,0,,,69,100
79296,note_on,,,,,132,0,5,,,,,0,,,57,100
79296,note_on,,,,,4,0,4,,,,,0,,,76,100
79356,note_off,,,,,60,0,5,,,,,0,,,57,100
79388,note_off,,,,,92,0,4,,,,,0,,,76,100
79392,note_on,,,,,4,0,4,,,,,0,,,72,100
79484,note_off,,,,,92,0,4,,,,,0,,,72,100
79488,note_on,,,,,132,0,5,,,,,0,,,57,100
79488,note_on,,,,,4,0,4,,,,,0,,,81,100
79548,note_off,,,,,60,0,5,,,,,0,,,57,100
79580,note_off,,,,,92,0,4,,,,,0,,,81,100
79584,note_on,,,,,4,0,4,,,,,0,,,76,100
79676,note_off,,,,,92,0,4,,,,,0,,,76,100
79680,note_on,,,,,132,0,5,,,,,0,,,45,100
79680,note_on,,,,,4,0,4,,,,,0,,,84,100
79740,note_off,,,,,60,0,5,,,,,0,,,45,100
79772,note_off,,,,,92,0,4,,,,,0,,,84,100
79776,note_on,,,,,4,0,4,,,,,0,,,81,100
79868,note_off,,,,,92,0,4,,,,,0,,,81,100
79872,note_on,,,,,132,0,5,,,,,0,,,52,100
79872,note_on,,,,,4,0,4,,,,,0,,,80,100
79932,note_off,,,,,60,0,5,,,,,0,,,52,100
79964,note_off,,,,,92,0,4,,,,,0,,,80,100
79968,note_on,,,,,4,0,4,,,,,0,,,83,100
80060,note_off,,,,,92,0,4,,,,,0,,,83,100
80064,note_on,,,,,132,0,5,,,,,0,,,40,100
80064,note_on,,,,,4,0,4,,,,,0,,,76,100
80124,note_off,,,,,60,0,5,,,,,0,,,40,100
80156,note_off,,,,,92,0,4,,,,,0,,,76,100
80160,note_on,,,,,4,0,4,,,,,0,,,80,100
80252,note_off,,,,,92,0,4,,,,,0,,,80,100
80256,note_on,,,,,4,0,4,,,,,0,,,71,100
80256,note_on,,,,,132,0,5,,,,,0,,,40,100
80316,note_off,,,,,60,0,5,,,,,0,,,40,100
80348,note_off,,,,,92,0,4,,,,,0,,,71,100
80352,note_on,,,,,4,0,4,,,,,0,,,74,100
80444,note_off,,,,,92,0,4,,,,,0,,,74,100
80448,note_on,,,,,4,0,4,,,,,0,,,73,100
80448,note_on,,,,,132,0,5,,,,,0,,,40,100
80508,note_off,,,,,60,0,5,,,,,0,,,40,100
80540,note_off,,,,,92,0,4,,,,,0,,,73,100
80544,note_on,,,,,4,0,4,,,,,0,,,71,100
80636,note_off,,,,,92,0,4,,,,,0,,,71,100
80640,note_on,,,,,132,0,5,,,,,0,,,45,100
80640,note_on,,,,,4,0,4,,,,,0,,,73,100
80700,note_off,,,,,60,0,5,,,,,0,,,45,100
80828,note_off,,,,,188,0,4,,,,,0,,,73,100
80832,note_on,,,,,4,0,4,,,,,0,,,81,100
80832,note_on,,,,,132,0,5,,,,,0,,,69,100
80892,note_off,,,,,60,0,5,,,,,0,,,69,100
80960,note_off,,,,,128,0,4,,,,,0,,,81,100
81024,note_on,,,,,64,0,4,,,,,0,,,81,100
81024,note_on,,,,,132,0,5,,,,,0,,,69,100
81068,note_off,,,,,44,0,4,,,,,0,,,81,100
81072,note_on,,,,,4,0,4,,,,,0,,,82,100
81084,note_off,,,,,60,0,5,,,,,0,,,69,100
81116,note_off,,,,,44,0,4,,,,,0,,,82,100
81120,note_on,,,,,4,0,4,,,,,0,,,81,100
81164,note_off,,,,,44,0,4,,,,,0,,,81,100
81168,note_on,,,,,4,0,4,,,,,0,,,82,100
81212,note_off,,,,,44,0,4,,,,,0,,,82,100
81216,note_on,,,,,132,0,5,,,,,0,,,69,100
81216,note_on,,,,,4,0,4,,,,,0,,,81,100
81260,note_off,,,,,44,0,4,,,,,0,,,81,100
81264,note_on,,,,,4,0,4,,,,,0,,,82,100
81276,note_off,,,,,60,0,5,,,,,0,,,69,100
81308,note_off,,,,,44,0,4,,,,,0,,,82,100
81312,note_on,,,,,4,0,4,,,,,0,,,81,100
81376,note_off,,,,,64,0,4,,,,,0,,,81,100
81408,note_on,,,,,132,0,5,,,,,0,,,41,100
81408,note_on,,,,,32,0,4,,,,,0,,,81,100
81468,note_off,,,,,60,0,5,,,,,0,,,41,100
81500,note_off,,,,,92,0,4,,,,,0,,,81,100
81504,note_on,,,,,4,0,4,,,,,0,,,79,100
81596,note_off,,,,,92,0,4,,,,,0,,,79,100
81600,note_on,,,,,4,0,4,,,,,0,,,77,100
81600,note_on,,,,,0,0,5,,,,,0,,,65,100
81600,note_on,,,,,132,0,5,,,,,0,,,69,100
81660,note_off,,,,,0,0,5,,,,,0,,,65,100
81660,note_off,,,,,60,0,5,,,,,0,,,69,100
81692,note_off,,,,,92,0,4,,,,,0,,,77,100
81696,note_on,,,,,4,0,4,,,,,0,,,76,100
81788,note_off,,,,,92,0,4,,,,,0,,,76,100
81792,note_on,,,,,4,0,4,,,,,0,,,74,100
81792,note_on,,,,,132,0,5,,,,,0,,,69,100
81792,note_on,,,,,0,0,5,,,,,0,,,65,100
81852,note_off,,,,,0,0,5,,,,,0,,,65,100
81852,note_off,,,,,60,0,5,,,,,0,,,69,100
81884,note_off,,,,,92,0,4,,,,,0,,,74,100
81888,note_on,,,,,4,0,4,,,,,0,,,72,100
81980,note_off,,,,,92,0,4,,,,,0,,,72,100
81984,note_on,,,,,4,0,4,,,,,0,,,70,100
81984,note_on,,,,,132,0,5,,,,,0,,,65,100
82076,note_off,,,,,92,0,4,,,,,0,,,70,100
82080,note_on,,,,,4,0,4,,,,,0,,,69,100
82172,note_off,,,,,188,0,5,,,,,0,,,65,100
82172,note_off,,,,,92,0,4,,,,,0,,,69,100
82176,note_on,,,,,4,0,4,,,,,0,,,70,100
82176,note_on,,,,,4,0,5,,,,,0,,,43,100
82236,note_off,,,,,60,0,5,,,,,0,,,43,100
82364,note_off,,,,,188,0,4,,,,,0,,,70,100
82368,note_on,,,,,4,0,4,,,,,0,,,79,100
82368,note_on,,,,,132,0,5,,,,,0,,,70,100
82368,note_on,,,,,0,0,5,,,,,0,,,67,100
82428,note_off,,,,,0,0,5,,,,,0,,,67,100
82428,note_off,,,,,60,0,5,,,,,0,,,70,100
82496,note_off,,,,,128,0,4,,,,,0,,,79,100
82560,note_on,,,,,64,0,4,,,,,0,,,79,100
82560,note_on,,,,,132,0,5,,,,,0,,,70,100
82560,note_on,,,,,0,0,5,,,,,0,,,67,100
82604,note_off,,,,,44,0,4,,,,,0,,,79,100
82608,note_on,,,,,4,0,4,,,,,0,,,81,100
82620,note_off,,,,,60,0,5,,,,,0,,,70,100
82620,note_off,,,,,0,0,5,,,,,0,,,67,100
82652,note_off,,,,,44,0,4,,,,,0,,,81,100
82656,note_on,,,,,4,0,4,,,,,0,,,79,100
82700,note_off,,,,,44,0,4,,,,,0,,,79,100
82704,note_on,,,,,4,0,4,,,,,0,,,81,100
82748,note_off,,,,,44,0,4,,,,,0,,,81,100
82752,note_on,,,,,0,0,5,,,,,0,,,67,100
82752,note_on,,,,,132,0,5,,,,,0,,,70,100
82752,note_on,,,,,4,0,4,,,,,0,,,79,100
82796,note_off,,,,,44,0,4,,,,,0,,,79,100
82800,note_on,,,,,4,0,4,,,,,0,,,81,100
82812,note_off,,,,,0,0,5,,,,,0,,,67,100
82812,note_off,,,,,60,0,5,,,,,0,,,70,100
82844,note_off,,,,,44,0,4,,,,,0,,,81,100
82848,note_on,,,,,4,0,4,,,,,0,,,79,100
82912,note_off,,,,,64,0,4,,,,,0,,,79,100
82944,note_on,,,,,32,0,4,,,,,0,,,79,100
82944,note_on,,,,,132,0,5,,,,,0,,,40,100
83004,note_off,,,,,60,0,5,,,,,0,,,40,100
83036,note_off,,,,,92,0,4,,,,,0,,,79,100
83040,note_on,,,,,4,0,4,,,,,0,,,77,100
83132,note_off,,,,,92,0,4,,,,,0,,,77,100
83136,note_on,,,,,4,0,4,,,,,0,,,76,100
83136,note_on,,,,,0,0,5,,,,,0,,,67,100
83136,note_on,,,,,132,0,5,,,,,0,,,64,100
83196,note_off,,,,,60,0,5,,,,,0,,,64,100
83196,note_off,,,,,0,0,5,,,,,0,,,67,100
83228,note_off,,,,,92,0,4,,,,,0,,,76,100
83232,note_on,,,,,4,0,4,,,,,0,,,74,100
83324,note_off,,,,,92,0,4,,,,,0,,,74,100
83328,note_on,,,,,4,0,4,,,,,0,,,72,100
83328,note_on,,,,,132,0,5,,,,,0,,,64,100
83328,note_on,,,,,0,0,5,,,,,0,,,67,100
83388,note_off,,,,,0,0,5,,,,,0,,,67,100
83388,note_off,,,,,60,0,5,,,,,0,,,64,100
83420,note_off,,,,,92,0,4,,,,,0,,,72,100
83424,note_on,,,,,4,0,4,,,,,0,,,70,100
83516,note_off,,,,,92,0,4,,,,,0,,,70,100
83520,note_on,,,,,4,0,4,,,,,0,,,69,100
83520,note_on,,,,,132,0,5,,,,,0,,,64,100
83612,note_off,,,,,92,0,4,,,,,0,,,69,100
83616,note_on,,,,,4,0,4,,,,,0,,,67,100
83708,note_off,,,,,188,0,5,,,,,0,,,64,100
83708,note_off,,,,,92,0,4,,,,,0,,,67,100
83712,note_on,,,,,4,0,5,,,,,0,,,41,100
83712,note_on,,,,,4,0,4,,,,,0,,,69,100
83772,note_off,,,,,60,0,5,,,,,0,,,41,100
83900,note_off,,,,,188,0,4,,,,,0,,,69,100
83904,note_on,,,,,0,0,5,,,,,0,,,65,100
83904,note_on,,,,,132,0,5,,,,,0,,,69,100
83904,note_on,,,,,4,0,4,,,,,0,,,77,100
83964,note_off,,,,,0,0,5,,,,,0,,,65,100
83964,note_off,,,,,60,0,5,,,,,0,,,69,100
84032,note_off,,,,,128,0,4,,,,,0,,,77,100
84096,note_on,,,,,64,0,4,,,,,0,,,77,100
84096,note_on,,,,,132,0,5,,,,,0,,,69,100
84096,note_on,,,,,0,0,5,,,,,0,,,65,100
84140,note_off,,,,,44,0,4,,,,,0,,,77,100
84144,note_on,,,,,4,0,4,,,,,0,,,79,100
84156,note_off,,,,,60,0,5,,,,,0,,,69,100
84156,note_off,,,,,0,0,5,,,,,0,,,65,100
84188,note_off,,,,,44,0,4,,,,,0,,,79,100
84192,note_on,,,,,4,0,4,,,,,0,,,77,100
84236,note_off,,,,,44,0,4,,,,,0,,,77,100
84240,note_on,,,,,4,0,4,,,,,0,,,79,100
84284,note_off,,,,,44,0,4,,,,,0,,,79,100
84288,note_on,,,,,4,0,4,,,,,0,,,77,100
84288,note_on,,,,,0,0,5,,,,,0,,,65,100
84288,note_on,,,,,132,0,5,,,,,0,,,69,100
84332,note_off,,,,,44,0,4,,,,,0,,,77,100
84336,note_on,,,,,4,0,4,,,,,0,,,79,100
84348,note_off,,,,,0,0,5,,,,,0,,,65,100
84348,note_off,,,,,60,0,5,,,,,0,,,69,100
84380,note_off,,,,,44,0,4,,,,,0,,,79,100
84384,note_on,,,,,4,0,4,,,,,0,,,77,100
84448,note_off,,,,,64,0,4,,,,,0,,,77,100
84480,note_on,,,,,32,0,4,,,,,0,,,77,100
84480,note_on,,,,,132,0,5,,,,,0,,,38,100
84540,note_off,,,,,60,0,5,,,,,0,,,38,100
84572,note_off,,,,,92,0,4,,,,,0,,,77,100
84576,note_on,,,,,4,0,4,,,,,0,,,76,100
84668,note_off,,,,,92,0,4,,,,,0,,,76,100
84672,note_on,,,,,4,0,4,,,,,0,,,74,100
84672,note_on,,,,,132,0,5,,,,,0,,,62,100
84672,note_on,,,,,0,0,5,,,,,0,,,65,100
84732,note_off,,,,,60,0,5,,,,,0,,,62,100
84732,note_off,,,,,0,0,5,,,,,0,,,65,100
84764,note_off,,,,,92,0,4,,,,,0,,,74,100
84768,note_on,,,,,4,0,4,,,,,0,,,72,100
84860,note_off,,,,,92,0,4,,,,,0,,,72,100
84864,note_on,,,,,0,0,5,,,,,0,,,65,100
84864,note_on,,,,,132,0,5,,,,,0,,,62,100
84864,note_on,,,,,4,0,4,,,,,0,,,70,100
84924,note_off,,,,,0,0,5,,,,,0,,,65,100
84924,note_off,,,,,60,0,5,,,,,0,,,62,100
84956,note_off,,,,,92,0,4,,,,,0,,,70,100
84960,note_on,,,,,4,0,4,,,,,0,,,69,100
85052,note_off,,,,,92,0,4,,,,,0,,,69,100
85056,note_on,,,,,132,0,5,,,,,0,,,62,100
85056,note_on,,,,,4,0,4,,,,,0,,,67,100
85148,note_off,,,,,92,0,4,,,,,0,,,67,100
85152,note_on,,,,,4,0,4,,,,,0,,,65,100
85244,note_off,,,,,92,0,4,,,,,0,,,65,100
85244,note_off,,,,,188,0,5,,,,,0,,,62,100
85248,note_on,,,,,4,0,5,,,,,0,,,40,100
85248,note_on,,,,,4,0,4,,,,,0,,,67,100
85308,note_off,,,,,60,0,5,,,,,0,,,40,100
85436,note_off,,,,,188,0,4,,,,,0,,,67,100
85440,note_on,,,,,132,0,5,,,,,0,,,64,100
85440,note_on,,,,,4,0,4,,,,,0,,,76,100
85440,note_on,,,,,0,0,5,,,,,0,,,67,100
85500,note_off,,,,,60,0,5,,,,,0,,,64,100
85500,note_off,,,,,0,0,5,,,,,0,,,67,100
85568,note_off,,,,,128,0,4,,,,,0,,,76,100
85632,note_on,,,,,64,0,4,,,,,0,,,76,100
85632,note_on,,,,,0,0,5,,,,,0,,,67,100
85632,note_on,,,,,132,0,5,,,,,0,,,64,100
85676,note_off,,,,,44,0,4,,,,,0,,,76,100
85680,note_on,,,,,4,0,4,,,,,0,,,77,100
85692,note_off,,,,,0,0,5,,,,,0,,,67,100
85692,note_off,,,,,60,0,5,,,,,0,,,64,100
85724,note_off,,,,,44,0,4,,,,,0,,,77,100
85728,note_on,,,,,4,0,4,,,,,0,,,76,100
85772,note_off,,,,,44,0,4,,,,,0,,,76,100
85776,note_on,,,,,4,0,4,,,,,0,,,77,100
85820,note_off,,,,,44,0,4,,,,,0,,,77,100
85824,note_on,,,,,4,0,4,,,,,0,,,76,100
85824,note_on,,,,,132,0,5,,,,,0,,,64,100
85824,note_on,,,,,0,0,5,,,,,0,,,67,100
85868,note_off,,,,,44,0,4,,,,,0,,,76,100
85872,note_on,,,,,4,0,4,,,,,0,,,77,100
85884,note_off,,,,,60,0,5,,,,,0,,,64,100
85884,note_off,,,,,0,0,5,,,,,0,,,67,100
85916,note_off,,,,,44,0,4,,,,,0,,,77,100
85920,note_on,,,,,4,0,4,,,,,0,,,76,100
85984,note_off,,,,,64,0,4,,,,,0,,,76,100
86016,note_on,,,,,32,0,4,,,,,0,,,76,100
86016,note_on,,,,,132,0,5,,,,,0,,,45,100
86076,note_off,,,,,60,0,5,,,,,0,,,45,100
86108,note_off,,,,,92,0,4,,,,,0,,,76,100
86112,note_on,,,,,4,0,4,,,,,0,,,74,100
86204,note_off,,,,,92,0,4,,,,,0,,,74,100
86208,note_on,,,,,0,0,5,,,,,0,,,64,100
86208,note_on,,,,,132,0,5,,,,,0,,,57,100
86208,note_on,,,,,4,0,4,,,,,0,,,73,100
86268,note_off,,,,,60,0,5,,,,,0,,,57,100
86268,note_off,,,,,0,0,5,,,,,0,,,64,100
86300,note_off,,,,,92,0,4,,,,,0,,,73,100
86304,note_on,,,,,4,0,4,,,,,0,,,71,100
86396,note_off,,,,,92,0,4,,,,,0,,,71,100
86400,note_on,,,,,0,0,5,,,,,0,,,64,100
86400,note_on,,,,,132,0,5,,,,,0,,,57,100
86400,note_on,,,,,4,0,4,,,,,0,,,69,100
86460,note_off,,,,,0,0,5,,,,,0,,,64,100
86460,note_off,,,,,60,0,5,,,,,0,,,57,100
86492,note_off,,,,,92,0,4,,,,,0,,,69,100
86496,note_on,,,,,4,0,4,,,,,0,,,67,100
86588,note_off,,,,,92,0,4,,,,,0,,,67,100
86592,note_on,,,,,4,0,4,,,,,0,,,65,100
86592,note_on,,,,,132,0,5,,,,,0,,,57,100
86684,note_off,,,,,92,0,4,,,,,0,,,65,100
86688,note_on,,,,,4,0,4,,,,,0,,,64,100
86780,note_off,,,,,92,0,4,,,,,0,,,64,100
86780,note_off,,,,,188,0,5,,,,,0,,,57,100
86784,note_on,,,,,4,0,4,,,,,0,,,74,100
86784,note_on,,,,,0,0,4,,,,,0,,,65,100
86784,note_on,,,,,4,0,5,,,,,0,,,62,100
86844,note_off,,,,,60,0,5,,,,,0,,,62,100
86876,note_off,,,,,92,0,4,,,,,0,,,65,100
86880,note_on,,,,,4,0,4,,,,,0,,,62,100
86972,note_off,,,,,92,0,4,,,,,0,,,62,100
86976,note_on,,,,,132,0,5,,,,,0,,,64,100
86976,note_on,,,,,4,0,4,,,,,0,,,67,100
87036,note_off,,,,,60,0,5,,,,,0,,,64,100
87040,note_off,,,,,64,0,4,,,,,0,,,74,100
87068,note_off,,,,,28,0,4,,,,,0,,,67,100
87072,note_on,,,,,4,0,4,,,,,0,,,64,100
87164,note_off,,,,,92,0,4,,,,,0,,,64,100
87168,note_on,,,,,132,0,5,,,,,0,,,65,100
87168,note_on,,,,,4,0,4,,,,,0,,,69,100
87228,note_off,,,,,60,0,5,,,,,0,,,65,100
87260,note_off,,,,,92,0,4,,,,,0,,,69,100
87264,note_on,,,,,4,0,4,,,,,0,,,65,100
87356,note_off,,,,,92,0,4,,,,,0,,,65,100
87360,note_on,,,,,4,0,4,,,,,0,,,70,100
87360,note_on,,,,,132,0,5,,,,,0,,,67,100
87420,note_off,,,,,60,0,5,,,,,0,,,67,100
87452,note_off,,,,,92,0,4,,,,,0,,,70,100
87456,note_on,,,,,4,0,4,,,,,0,,,67,100
87548,note_off,,,,,92,0,4,,,,,0,,,67,100
87552,note_on,,,,,0,0,4,,,,,0,,,65,100
87552,note_on,,,,,4,0,4,,,,,0,,,74,100
87552,note_on,,,,,132,0,5,,,,,0,,,62,100
87612,note_off,,,,,60,0,5,,,,,0,,,62,100
87644,note_off,,,,,92,0,4,,,,,0,,,65,100
87648,note_on,,,,,4,0,4,,,,,0,,,62,100
87740,note_off,,,,,92,0,4,,,,,0,,,62,100
87744,note_on,,,,,132,0,5,,,,,0,,,64,100
87744,note_on,,,,,4,0,4,,,,,0,,,67,100
87804,note_off,,,,,60,0,5,,,,,0,,,64,100
87808,note_off,,,,,64,0,4,,,,,0,,,74,100
87836,note_off,,,,,28,0,4,,,,,0,,,67,100
87840,note_on,,,,,4,0,4,,,,,0,,,64,100
87932,note_off,,,,,92,0,4,,,,,0,,,64,100
87936,note_on,,,,,4,0,4,,,,,0,,,69,100
87936,note_on,,,,,132,0,5,,,,,0,,,65,100
87996,note_off,,,,,60,0,5,,,,,0,,,65,100
88028,note_off,,,,,92,0,4,,,,,0,,,69,100
88032,note_on,,,,,4,0,4,,,,,0,,,65,100
88124,note_off,,,,,92,0,4,,,,,0,,,65,100
88128,note_on,,,,,4,0,4,,,,,0,,,70,100
88128,note_on,,,,,132,0,5,,,,,0,,,67,100
88188,note_off,,,,,60,0,5,,,,,0,,,67,100
88220,note_off,,,,,92,0,4,,,,,0,,,70,100
88224,note_on,,,,,4,0,4,,,,,0,,,67,100
88316,note_off,,,,,92,0,4,,,,,0,,,67,100
88320,note_on,,,,,132,0,5,,,,,0,,,62,100
88320,note_on,,,,,0,0,4,,,,,0,,,65,100
88320,note_on,,,,,4,0,4,,,,,0,,,74,100
88380,note_off,,,,,60,0,5,,,,,0,,,62,100
88412,note_off,,,,,92,0,4,,,,,0,,,65,100
88416,note_on,,,,,4,0,4,,,,,0,,,62,100
88508,note_off,,,,,92,0,4,,,,,0,,,62,100
88512,note_on,,,,,4,0,4,,,,,0,,,67,100
88512,note_on,,,,,132,0,5,,,,,0,,,64,100
88572,note_off,,,,,60,0,5,,,,,0,,,64,100
88576,note_off,,,,,64,0,4,,,,,0,,,74,100
88604,note_off,,,,,28,0,4,,,,,0,,,67,100
88608,note_on,,,,,4,0,4,,,,,0,,,64,100
88700,note_off,,,,,92,0,4,,,,,0,,,64,100
88704,note_on,,,,,4,0,4,,,,,0,,,69,100
88704,note_on,,,,,132,0,5,,,,,0,,,65,100
88764,note_off,,,,,60,0,5,,,,,0,,,65,100
88796,note_off,,,,,92,0,4,,,,,0,,,69,100
88800,note_on,,,,,4,0,4,,,,,0,,,65,100
88892,note_off,,,,,92,0,4,,,,,0,,,65,100
88896,note_on,,,,,132,0,5,,,,,0,,,67,100
88896,note_on,,,,,4,0,4,,,,,0,,,70,100
88956,note_off,,,,,60,0,5,,,,,0,,,67,100
88988,note_off,,,,,92,0,4,,,,,0,,,70,100
88992,note_on,,,,,4,0,4,,,,,0,,,67,100
89084,note_off,,,,,92,0,4,,,,,0,,,67,100
89088,note_on,,,,,132,0,5,,,,,0,,,65,100
89088,note_on,,,,,4,0,4,,,,,0,,,69,100
89148,note_off,,,,,60,0,4,,,,,0,,,69,100
89180,note_off,,,,,92,0,5,,,,,0,,,65,100
89184,note_on,,,,,4,0,5,,,,,0,,,62,100
89276,note_off,,,,,92,0,5,,,,,0,,,62,100
89280,note_on,,,,,132,0,4,,,,,0,,,74,100
89280,note_on,,,,,4,0,5,,,,,0,,,58,100
89280,note_on,,,,,0,0,4,,,,,0,,,77,100
89340,note_off,,,,,60,0,4,,,,,0,,,74,100
89340,note_off,,,,,0,0,4,,,,,0,,,77,100
89372,note_off,,,,,92,0,5,,,,,0,,,58,100
89376,note_on,,,,,4,0,5,,,,,0,,,55,100
89468,note_off,,,,,92,0,5,,,,,0,,,55,100
89472,note_on,,,,,4,0,5,,,,,0,,,64,100
89472,note_on,,,,,132,0,4,,,,,0,,,67,100
89532,note_off,,,,,60,0,4,,,,,0,,,67,100
89564,note_off,,,,,92,0,5,,,,,0,,,64,100
89568,note_on,,,,,4,0,5,,,,,0,,,61,100
89660,note_off,,,,,92,0,5,,,,,0,,,61,100
89664,note_on,,,,,4,0,5,,,,,0,,,57,100
89664,note_on,,,,,132,0,4,,,,,0,,,73,100
89664,note_on,,,,,0,0,4,,,,,0,,,76,100
89724,note_off,,,,,0,0,4,,,,,0,,,76,100
89724,note_off,,,,,60,0,4,,,,,0,,,73,100
89756,note_off,,,,,92,0,5,,,,,0,,,57,100
89760,note_on,,,,,4,0,5,,,,,0,,,61,100
89852,note_off,,,,,92,0,5,,,,,0,,,61,100
89856,note_on,,,,,132,0,4,,,,,0,,,69,100
89856,note_on,,,,,4,0,5,,,,,0,,,65,100
89916,note_off,,,,,60,0,4,,,,,0,,,69,100
89948,note_off,,,,,92,0,5,,,,,0,,,65,100
89952,note_on,,,,,4,0,5,,,,,0,,,62,100
90044,note_off,,,,,92,0,5,,,,,0,,,62,100
90048,note_on,,,,,0,0,4,,,,,0,,,77,100
90048,note_on,,,,,132,0,4,,,,,0,,,74,100
90048,note_on,,,,,4,0,5,,,,,0,,,58,100
90108,note_off,,,,,60,0,4,,,,,0,,,74,100
90108,note_off,,,,,0,0,4,,,,,0,,,77,100
90140,note_off,,,,,92,0,5,,,,,0,,,58,100
90144,note_on,,,,,4,0,5,,,,,0,,,55,100
90236,note_off,,,,,92,0,5,,,,,0,,,55,100
90240,note_on,,,,,4,0,5,,,,,0,,,64,100
90240,note_on,,,,,132,0,4,,,,,0,,,67,100
90300,note_off,,,,,60,0,4,,,,,0,,,67,100
90332,note_off,,,,,92,0,5,,,,,0,,,64,100
90336,note_on,,,,,4,0,5,,,,,0,,,61,100
90428,note_off,,,,,92,0,5,,,,,0,,,61,100
90432,note_on,,,,,132,0,4,,,,,0,,,73,100
90432,note_on,,,,,0,0,4,,,,,0,,,76,100
90432,note_on,,,,,4,0,5,,,,,0,,,57,100
90492,note_off,,,,,60,0,4,,,,,0,,,73,100
90492,note_off,,,,,0,0,4,,,,,0,,,76,100
90524,note_off,,,,,92,0,5,,,,,0,,,57,100
90528,note_on,,,,,4,0,5,,,,,0,,,61,100
90620,note_off,,,,,92,0,5,,,,,0,,,61,100
90624,note_on,,,,,132,0,4,,,,,0,,,69,100
90624,note_on,,,,,4,0,5,,,,,0,,,65,100
90684,note_off,,,,,60,0,4,,,,,0,,,69,100
90716,note_off,,,,,92,0,5,,,,,0,,,65,100
90720,note_on,,,,,4,0,5,,,,,0,,,62,100
90812,note_off,,,,,92,0,5,,,,,0,,,62,100
90816,note_on,,,,,4,0,5,,,,,0,,,58,100
90816,note_on,,,,,132,0,4,,,,,0,,,74,100
90816,note_on,,,,,0,0,4,,,,,0,,,77,100
90876,note_off,,,,,60,0,4,,,,,0,,,74,100
90876,note_off,,,,,0,0,4,,,,,0,,,77,100
90908,note_off,,,,,92,0,5,,,,,0,,,58,100
90912,note_on,,,,,4,0,5,,,,,0,,,55,100
91004,note_off,,,,,92,0,5,,,,,0,,,55,100
91008,note_on,,,,,132,0,4,,,,,0,,,67,100
91008,note_on,,,,,4,0,5,,,,,0,,,64,100
91068,note_off,,,,,60,0,4,,,,,0,,,67,100
91100,note_off,,,,,92,0,5,,,,,0,,,64,100
91104,note_on,,,,,4,0,5,,,,,0,,,61,100
91196,note_off,,,,,92,0,5,,,,,0,,,61,100
91200,note_on,,,,,4,0,5,,,,,0,,,57,100
91200,note_on,,,,,132,0,4,,,,,0,,,73,100
91200,note_on,,,,,0,0,4,,,,,0,,,76,100
91260,note_off,,,,,0,0,4,,,,,0,,,76,100
91260,note_off,,,,,60,0,4,,,,,0,,,73,100
91292,note_off,,,,,92,0,5,,,,,0,,,57,100
91296,note_on,,,,,4,0,5,,,,,0,,,61,100
91388,note_off,,,,,92,0,5,,,,,0,,,61,100
91392,note_on,,,,,0,0,4,,,,,0,,,74,100
91392,note_on,,,,,132,0,4,,,,,0,,,65,100
91392,note_on,,,,,0,0,5,,,,,0,,,62,100
91392,note_on,,,,,4,0,5,,,,,0,,,50,100
91452,note_off,,,,,0,0,5,,,,,0,,,62,100
91452,note_off,,,,,60,0,5,,,,,0,,,50,100
91484,note_off,,,,,92,0,4,,,,,0,,,65,100
91488,note_on,,,,,4,0,4,,,,,0,,,62,100
91520,note_off,,,,,32,0,4,,,,,0,,,74,100
91580,note_off,,,,,60,0,4,,,,,0,,,62,100
91584,note_on,,,,,4,0,4,,,,,0,,,67,100
91584,note_on,,,,,132,0,5,,,,,0,,,52,100
91676,note_off,,,,,92,0,4,,,,,0,,,67,100
91680,note_on,,,,,4,0,4,,,,,0,,,64,100
91772,note_off,,,,,188,0,5,,,,,0,,,52,100
91772,note_off,,,,,92,0,4,,,,,0,,,64,100
91776,note_on,,,,,4,0,4,,,,,0,,,69,100
91776,note_on,,,,,4,0,5,,,,,0,,,53,100
91868,note_off,,,,,92,0,4,,,,,0,,,69,100
91872,note_on,,,,,4,0,4,,,,,0,,,65,100
91964,note_off,,,,,92,0,4,,,,,0,,,65,100
91964,note_off,,,,,188,0,5,,,,,0,,,53,100
91968,note_on,,,,,4,0,5,,,,,0,,,55,100
91968,note_on,,,,,4,0,4,,,,,0,,,71,100
92060,note_off,,,,,92,0,4,,,,,0,,,71,100
92064,note_on,,,,,4,0,4,,,,,0,,,67,100
92156,note_off,,,,,92,0,4,,,,,0,,,67,100
92156,note_off,,,,,188,0,5,,,,,0,,,55,100
92160,note_on,,,,,4,0,4,,,,,0,,,73,100
92160,note_on,,,,,4,0,5,,,,,0,,,57,100
92252,note_off,,,,,92,0,4,,,,,0,,,73,100
92256,note_on,,,,,4,0,4,,,,,0,,,69,100
92348,note_off,,,,,188,0,5,,,,,0,,,57,100
92348,note_off,,,,,92,0,4,,,,,0,,,69,100
92352,note_on,,,,,4,0,4,,,,,0,,,74,100
92352,note_on,,,,,4,0,5,,,,,0,,,55,100
92444,note_off,,,,,92,0,4,,,,,0,,,74,100
92448,note_on,,,,,4,0,4,,,,,0,,,76,100
92540,note_off,,,,,92,0,4,,,,,0,,,76,100
92540,note_off,,,,,188,0,5,,,,,0,,,55,100
92544,note_on,,,,,4,0,4,,,,,0,,,77,100
92544,note_on,,,,,4,0,5,,,,,0,,,57,100
92636,note_off,,,,,92,0,4,,,,,0,,,77,100
92640,note_on,,,,,4,0,4,,,,,0,,,74,100
92672,note_off,,,,,128,0,5,,,,,0,,,57,100
92732,note_off,,,,,92,0,4,,,,,0,,,74,100
92736,note_on,,,,,64,0,5,,,,,0,,,45,100
92736,note_on,,,,,4,0,4,,,,,0,,,76,100
92816,note_off,,,,,80,0,5,,,,,0,,,45,100
92828,note_off,,,,,92,0,4,,,,,0,,,76,100
92832,note_on,,,,,4,0,4,,,,,0,,,73,100
92924,note_off,,,,,92,0,4,,,,,0,,,73,100
92928,note_on,,,,,112,0,5,,,,,0,,,50,100
92928,note_on,,,,,4,0,4,,,,,0,,,74,100
93020,note_off,,,,,92,0,4,,,,,0,,,74,100
93024,note_on,,,,,4,0,4,,,,,0,,,69,100
93116,note_off,,,,,92,0,4,,,,,0,,,69,100
93120,note_on,,,,,4,0,4,,,,,0,,,70,100
93184,note_off,,,,,256,0,5,,,,,0,,,50,100
93212,note_off,,,,,92,0,4,,,,,0,,,70,100
93216,note_on,,,,,4,0,4,,,,,0,,,67,100
93308,note_off,,,,,92,0,4,,,,,0,,,67,100
93312,note_on,,,,,4,0,4,,,,,0,,,69,100
93404,note_off,,,,,92,0,4,,,,,0,,,69,100
93408,note_on,,,,,4,0,4,,,,,0,,,65,100
93500,note_off,,,,,92,0,4,,,,,0,,,65,100
93504,note_on,,,,,320,0,5,,,,,0,,,67,100
93504,set_tempo,,,,,93504,1,0,,535714,,,,,,,
93504,note_on,,,,,4,0,4,,,,,0,,,70,100
93552,set_tempo,,,,,48,1,0,,540540,,,,,,,
93596,note_off,,,,,92,0,5,,,,,0,,,67,100
93600,note_on,,,,,4,0,5,,,,,0,,,64,100
93600,set_tempo,,,,,48,1,0,,545454,,,,,,,
93648,set_tempo,,,,,48,1,0,,550458,,,,,,,
93692,note_off,,,,,188,0,4,,,,,0,,,70,100
93692,note_off,,,,,92,0,5,,,,,0,,,64,100
93696,note_on,,,,,4,0,5,,,,,0,,,65,100
93696,set_tempo,,,,,48,1,0,,555555,,,,,,,
93696,note_on,,,,,4,0,4,,,,,0,,,69,100
93744,set_tempo,,,,,48,1,0,,560747,,,,,,,
93788,note_off,,,,,92,0,5,,,,,0,,,65,100
93792,note_on,,,,,4,0,5,,,,,0,,,62,100
93792,set_tempo,,,,,48,1,0,,566037,,,,,,,
93840,set_tempo,,,,,48,1,0,,571428,,,,,,,
93884,note_off,,,,,92,0,5,,,,,0,,,62,100
93884,note_off,,,,,188,0,4,,,,,0,,,69,100
93888,set_tempo,,,,,48,1,0,,576923,,,,,,,
93888,note_on,,,,,4,0,5,,,,,0,,,64,100
93888,note_on,,,,,4,0,4,,,,,0,,,67,100
93936,set_tempo,,,,,48,1,0,,582524,,,,,,,
93980,note_off,,,,,92,0,5,,,,,0,,,64,100
93984,set_tempo,,,,,48,1,0,,588235,,,,,,,
93984,note_on,,,,,4,0,5,,,,,0,,,61,100
94032,set_tempo,,,,,48,1,0,,594059,,,,,,,
94076,note_off,,,,,92,0,5,,,,,0,,,61,100
94076,note_off,,,,,188,0,4,,,,,0,,,67,100
94080,note_on,,,,,4,0,4,,,,,0,,,65,100
94080,note_on,,,,,4,0,5,,,,,0,,,62,100
94080,set_tempo,,,,,48,1,0,,600000,,,,,,,
94128,set_tempo,,,,,48,1,0,,606060,,,,,,,
94172,note_off,,,,,92,0,5,,,,,0,,,62,100
94176,note_on,,,,,4,0,5,,,,,0,,,57,100
94176,set_tempo,,,,,48,1,0,,612244,,,,,,,
94208,note_off,,,,,128,0,4,,,,,0,,,65,100
94224,set_tempo,,,,,48,1,0,,618556,,,,,,,
94268,note_off,,,,,92,0,5,,,,,0,,,57,100
94272,note_on,,,,,4,0,5,,,,,0,,,53,100
94272,set_tempo,,,,,48,1,0,,625000,,,,,,,
94320,set_tempo,,,,,48,1,0,,631578,,,,,,,
94364,note_off,,,,,92,0,5,,,,,0,,,53,100
94368,note_on,,,,,4,0,5,,,,,0,,,57,100
94368,set_tempo,,,,,48,1,0,,638297,,,,,,,
94416,set_tempo,,,,,48,1,0,,645161,,,,,,,
94432,note_off,,,,,64,0,5,,,,,0,,,57,100
94464,note_on,,,,,32,0,5,,,,,0,,,50,100
94464,set_tempo,,,,,48,1,0,,652173,,,,,,,
94464,end_of_track,,,,,0,1,0,,,,,,,,,
94508,note_off,,,,,44,0,5,,,,,0,,,50,100
94512,note_on,,,,,4,0,5,,,,,0,,,52,100
94556,note_off,,,,,44,0,5,,,,,0,,,52,100
94560,note_on,,,,,4,0,5,,,,,0,,,50,100
94944,end_of_track,,,,,0,1,5,,,,,,,,,
94944,note_off,,,,,384,0,5,,,,,0,,,50,100
96384,end_of_track,,,,,0,1,4,,,,,,,,,
96384,program_change,,,,,2176,0,4,,,,,0,6,,,
