tick,type,numerator,denominator,clocks_per_click,notated_32nd_notes_per_beat,time,meta,track,tempo,program,channel,control,value,note,velocity
0,time_signature,3,8,12,8,0,1,0,,,,,,,
0,control_change,,,,,0,0,1,,,0,7,127,,
0,note_on,,,,,0,0,1,,,0,,,78,47
0,note_on,,,,,0,0,1,,,0,,,81,47
0,track_name,,,,,0,1,7,,,,,,,
0,track_name,,,,,0,1,2,,,,,,,
0,end_of_track,,,,,0,1,2,,,,,,,
0,program_change,,,,,0,0,1,,0,0,,,,
0,track_name,,,,,0,1,3,,,,,,,
0,track_name,,,,,0,1,4,,,,,,,
0,end_of_track,,,,,0,1,4,,,,,,,
0,track_name,,,,,0,1,5,,,,,,,
0,end_of_track,,,,,0,1,5,,,,,,,
0,track_name,,,,,0,1,6,,,,,,,
0,end_of_track,,,,,0,1,6,,,,,,,
0,end_of_track,,,,,0,1,3,,,,,,,
0,track_name,,,,,0,1,1,,,,,,,
0,end_of_track,,,,,0,1,7,,,,,,,
0,set_tempo,,,,,0,1,0,413793,,,,,,
0,marker,,,,,0,1,0,,,,,,,
90,note_off,,,,,0,0,1,,,0,,,78,64
90,note_off,,,,,90,0,1,,,0,,,81,64
120,note_on,,,,,0,0,1,,,0,,,78,50
120,note_on,,,,,30,0,1,,,0,,,74,47
210,note_off,,,,,90,0,1,,,0,,,78,64
210,note_off,,,,,0,0,1,,,0,,,74,64
240,note_on,,,,,30,0,1,,,0,,,69,56
240,note_on,,,,,0,0,1,,,0,,,76,50
330,note_off,,,,,0,0,1,,,0,,,69,64
330,note_off,,,,,90,0,1,,,0,,,76,64
360,note_on,,,,,30,0,1,,,0,,,66,44
360,note_on,,,,,0,0,1,,,0,,,74,44
450,note_off,,,,,90,0,1,,,0,,,74,64
450,note_off,,,,,0,0,1,,,0,,,66,64
480,note_on,,,,,30,0,1,,,0,,,66,47
480,note_on,,,,,0,0,1,,,0,,,74,47
570,note_off,,,,,90,0,1,,,0,,,74,64
570,note_off,,,,,0,0,1,,,0,,,66,64
600,note_on,,,,,30,0,1,,,0,,,69,44
600,note_on,,,,,0,0,1,,,0,,,76,39
690,note_off,,,,,0,0,1,,,0,,,69,64
690,note_off,,,,,90,0,1,,,0,,,76,64
720,note_on,,,,,0,0,1,,,0,,,74,50
720,note_on,,,,,30,0,1,,,0,,,66,44
810,note_off,,,,,0,0,1,,,0,,,66,64
810,note_off,,,,,90,0,1,,,0,,,74,64
840,note_on,,,,,0,0,1,,,0,,,74,50
840,note_on,,,,,30,0,1,,,0,,,66,38
930,note_off,,,,,0,0,1,,,0,,,66,64
930,note_off,,,,,90,0,1,,,0,,,74,64
960,note_on,,,,,0,0,1,,,0,,,76,47
960,note_on,,,,,30,0,1,,,0,,,69,34
1050,note_off,,,,,90,0,1,,,0,,,76,64
1050,note_off,,,,,0,0,1,,,0,,,69,64
1080,note_on,,,,,0,0,1,,,0,,,74,62
1080,note_on,,,,,30,0,1,,,0,,,66,38
1170,note_off,,,,,0,0,1,,,0,,,66,64
1170,note_off,,,,,90,0,1,,,0,,,74,64
1200,note_on,,,,,0,0,1,,,0,,,74,59
1200,note_on,,,,,30,0,1,,,0,,,66,40
1290,note_off,,,,,0,0,1,,,0,,,66,64
1290,note_off,,,,,90,0,1,,,0,,,74,64
1320,note_on,,,,,0,0,1,,,0,,,76,62
1320,note_on,,,,,30,0,1,,,0,,,69,44
1410,note_off,,,,,0,0,1,,,0,,,69,64
1410,note_off,,,,,90,0,1,,,0,,,76,64
1440,note_on,,,,,0,0,1,,,0,,,78,58
1440,note_on,,,,,30,0,1,,,0,,,74,50
1530,note_off,,,,,0,0,1,,,0,,,74,64
1530,note_off,,,,,90,0,1,,,0,,,78,64
1560,note_on,,,,,0,0,1,,,0,,,79,59
1560,note_on,,,,,30,0,1,,,0,,,76,52
1650,note_off,,,,,0,0,1,,,0,,,76,64
1650,note_off,,,,,90,0,1,,,0,,,79,64
1680,note_on,,,,,0,0,1,,,0,,,81,50
1680,note_on,,,,,30,0,1,,,0,,,78,24
1770,note_off,,,,,0,0,1,,,0,,,78,64
1770,note_off,,,,,90,0,1,,,0,,,81,64
1800,note_on,,,,,0,0,1,,,0,,,76,29
1800,note_on,,,,,30,0,1,,,0,,,69,59
1822,note_off,,,,,22,0,1,,,0,,,76,64
1830,note_on,,,,,8,0,1,,,0,,,78,17
1852,note_off,,,,,22,0,1,,,0,,,78,64
1860,note_on,,,,,8,0,1,,,0,,,76,29
1882,note_off,,,,,22,0,1,,,0,,,76,64
1890,note_on,,,,,8,0,1,,,0,,,78,22
1912,note_off,,,,,22,0,1,,,0,,,78,64
1920,note_on,,,,,8,0,1,,,0,,,76,15
1942,note_off,,,,,22,0,1,,,0,,,76,64
1950,note_on,,,,,8,0,1,,,0,,,78,27
1972,note_off,,,,,22,0,1,,,0,,,78,64
1980,note_on,,,,,8,0,1,,,0,,,76,13
2002,note_off,,,,,22,0,1,,,0,,,76,64
2010,note_on,,,,,8,0,1,,,0,,,78,27
2032,note_off,,,,,22,0,1,,,0,,,78,64
2040,note_on,,,,,8,0,1,,,0,,,76,26
2062,note_off,,,,,22,0,1,,,0,,,76,64
2070,note_on,,,,,8,0,1,,,0,,,78,24
2092,note_off,,,,,22,0,1,,,0,,,78,64
2100,note_on,,,,,8,0,1,,,0,,,76,14
2122,note_off,,,,,22,0,1,,,0,,,76,64
2130,note_on,,,,,8,0,1,,,0,,,78,17
2152,note_off,,,,,22,0,1,,,0,,,78,64
2160,note_on,,,,,0,0,1,,,0,,,74,50
2160,note_off,,,,,8,0,1,,,0,,,69,64
2160,note_on,,,,,0,0,1,,,0,,,78,58
2250,note_off,,,,,0,0,1,,,0,,,74,64
2250,note_off,,,,,90,0,1,,,0,,,78,64
2280,note_on,,,,,30,0,1,,,0,,,76,52
2280,note_on,,,,,0,0,1,,,0,,,79,59
2370,note_off,,,,,0,0,1,,,0,,,76,64
2370,note_off,,,,,90,0,1,,,0,,,79,64
2400,note_on,,,,,0,0,1,,,0,,,81,50
2400,note_on,,,,,30,0,1,,,0,,,78,24
2490,note_off,,,,,0,0,1,,,0,,,78,64
2490,note_off,,,,,90,0,1,,,0,,,81,64
2520,note_on,,,,,30,0,1,,,0,,,69,59
2520,note_on,,,,,0,0,1,,,0,,,76,29
2542,note_off,,,,,22,0,1,,,0,,,76,64
2550,note_on,,,,,8,0,1,,,0,,,78,17
2572,note_off,,,,,22,0,1,,,0,,,78,64
2580,note_on,,,,,8,0,1,,,0,,,76,29
2602,note_off,,,,,22,0,1,,,0,,,76,64
2610,note_on,,,,,8,0,1,,,0,,,78,22
2632,note_off,,,,,22,0,1,,,0,,,78,64
2640,note_on,,,,,8,0,1,,,0,,,76,15
2662,note_off,,,,,22,0,1,,,0,,,76,64
2670,note_on,,,,,8,0,1,,,0,,,78,27
2692,note_off,,,,,22,0,1,,,0,,,78,64
2700,note_on,,,,,8,0,1,,,0,,,76,13
2722,note_off,,,,,22,0,1,,,0,,,76,64
2730,note_on,,,,,8,0,1,,,0,,,78,27
2752,note_off,,,,,22,0,1,,,0,,,78,64
2760,note_on,,,,,8,0,1,,,0,,,76,26
2782,note_off,,,,,22,0,1,,,0,,,76,64
2790,note_on,,,,,8,0,1,,,0,,,78,24
2812,note_off,,,,,22,0,1,,,0,,,78,64
2820,note_on,,,,,8,0,1,,,0,,,76,14
2842,note_off,,,,,22,0,1,,,0,,,76,64
2850,note_on,,,,,8,0,1,,,0,,,78,17
2872,note_off,,,,,22,0,1,,,0,,,78,64
2880,note_on,,,,,0,0,1,,,0,,,78,58
2880,note_on,,,,,0,0,1,,,0,,,74,50
2880,note_off,,,,,8,0,1,,,0,,,69,64
2970,note_off,,,,,0,0,1,,,0,,,74,64
2970,note_off,,,,,90,0,1,,,0,,,78,64
3000,note_on,,,,,0,0,1,,,0,,,79,59
3000,note_on,,,,,30,0,1,,,0,,,76,52
3090,note_off,,,,,0,0,1,,,0,,,76,64
3090,note_off,,,,,90,0,1,,,0,,,79,64
3120,note_on,,,,,0,0,1,,,0,,,81,50
3120,note_on,,,,,30,0,1,,,0,,,78,24
3210,note_off,,,,,90,0,1,,,0,,,81,64
3210,note_off,,,,,0,0,1,,,0,,,78,64
3240,note_on,,,,,30,0,1,,,0,,,69,59
3240,note_on,,,,,0,0,1,,,0,,,76,29
3262,note_off,,,,,22,0,1,,,0,,,76,64
3270,note_on,,,,,8,0,1,,,0,,,78,17
3292,note_off,,,,,22,0,1,,,0,,,78,64
3300,note_on,,,,,8,0,1,,,0,,,76,29
3322,note_off,,,,,22,0,1,,,0,,,76,64
3330,note_on,,,,,8,0,1,,,0,,,78,22
3352,note_off,,,,,22,0,1,,,0,,,78,64
3360,note_on,,,,,8,0,1,,,0,,,76,15
3382,note_off,,,,,22,0,1,,,0,,,76,64
3390,note_on,,,,,8,0,1,,,0,,,78,27
3412,note_off,,,,,22,0,1,,,0,,,78,64
3420,note_on,,,,,8,0,1,,,0,,,76,13
3442,note_off,,,,,22,0,1,,,0,,,76,64
3450,note_on,,,,,8,0,1,,,0,,,78,27
3472,note_off,,,,,22,0,1,,,0,,,78,64
3480,note_on,,,,,8,0,1,,,0,,,76,26
3502,note_off,,,,,22,0,1,,,0,,,76,64
3510,note_on,,,,,8,0,1,,,0,,,78,24
3532,note_off,,,,,22,0,1,,,0,,,78,64
3540,note_on,,,,,8,0,1,,,0,,,76,14
3562,note_off,,,,,22,0,1,,,0,,,76,64
3570,note_on,,,,,8,0,1,,,0,,,78,17
3592,note_off,,,,,22,0,1,,,0,,,78,64
3600,note_off,,,,,8,0,1,,,0,,,69,64
3600,note_on,,,,,0,0,1,,,0,,,50,34
3690,note_off,,,,,90,0,1,,,0,,,50,64
3720,note_on,,,,,0,0,1,,,0,,,74,29
3720,note_on,,,,,30,0,1,,,0,,,62,34
3742,note_off,,,,,22,0,1,,,0,,,74,64
3750,note_on,,,,,8,0,1,,,0,,,76,39
3772,note_off,,,,,22,0,1,,,0,,,76,64
3780,note_on,,,,,8,0,1,,,0,,,74,29
3802,note_off,,,,,22,0,1,,,0,,,74,64
3810,note_off,,,,,8,0,1,,,0,,,62,64
3810,note_on,,,,,0,0,1,,,0,,,76,34
3832,note_off,,,,,22,0,1,,,0,,,76,64
3840,note_on,,,,,8,0,1,,,0,,,55,36
3840,note_on,,,,,0,0,1,,,0,,,59,45
3840,note_on,,,,,0,0,1,,,0,,,74,26
3862,note_off,,,,,22,0,1,,,0,,,74,64
3870,note_on,,,,,8,0,1,,,0,,,76,13
3892,note_off,,,,,22,0,1,,,0,,,76,64
3900,note_on,,,,,8,0,1,,,0,,,74,32
3922,note_off,,,,,22,0,1,,,0,,,74,64
3930,note_off,,,,,8,0,1,,,0,,,59,64
3930,note_on,,,,,0,0,1,,,0,,,76,12
3930,note_off,,,,,0,0,1,,,0,,,55,64
3952,note_off,,,,,22,0,1,,,0,,,76,64
3960,note_on,,,,,8,0,1,,,0,,,54,50
3960,note_on,,,,,0,0,1,,,0,,,74,34
3960,note_on,,,,,0,0,1,,,0,,,57,47
3982,note_off,,,,,22,0,1,,,0,,,74,64
3990,note_on,,,,,8,0,1,,,0,,,76,31
4012,note_off,,,,,22,0,1,,,0,,,76,64
4020,note_on,,,,,8,0,1,,,0,,,74,34
4042,note_off,,,,,22,0,1,,,0,,,74,64
4050,note_off,,,,,8,0,1,,,0,,,57,64
4050,note_on,,,,,0,0,1,,,0,,,76,16
4072,note_off,,,,,22,0,1,,,0,,,76,64
4080,note_on,,,,,0,0,1,,,0,,,74,34
4080,note_on,,,,,8,0,1,,,0,,,62,47
4102,note_off,,,,,22,0,1,,,0,,,74,64
4110,note_on,,,,,8,0,1,,,0,,,76,32
4132,note_off,,,,,22,0,1,,,0,,,76,64
4140,note_on,,,,,0,0,1,,,0,,,74,36
4140,note_off,,,,,8,0,1,,,0,,,54,64
4162,note_off,,,,,22,0,1,,,0,,,74,64
4170,note_on,,,,,0,0,1,,,0,,,76,31
4170,note_off,,,,,8,0,1,,,0,,,62,64
4192,note_off,,,,,22,0,1,,,0,,,76,64
4200,note_on,,,,,0,0,1,,,0,,,55,52
4200,note_on,,,,,0,0,1,,,0,,,74,39
4200,note_on,,,,,8,0,1,,,0,,,52,32
4222,note_off,,,,,22,0,1,,,0,,,74,64
4230,note_on,,,,,8,0,1,,,0,,,76,23
4252,note_off,,,,,22,0,1,,,0,,,76,64
4260,note_on,,,,,8,0,1,,,0,,,74,21
4282,note_off,,,,,22,0,1,,,0,,,74,64
4290,note_off,,,,,8,0,1,,,0,,,55,64
4290,note_on,,,,,0,0,1,,,0,,,76,26
4290,note_off,,,,,0,0,1,,,0,,,52,64
4312,note_off,,,,,22,0,1,,,0,,,76,64
4320,note_on,,,,,0,0,1,,,0,,,54,47
4320,note_on,,,,,0,0,1,,,0,,,74,34
4320,note_on,,,,,8,0,1,,,0,,,50,34
4342,note_off,,,,,22,0,1,,,0,,,74,64
4350,note_on,,,,,8,0,1,,,0,,,76,25
4372,note_off,,,,,22,0,1,,,0,,,76,64
4380,note_on,,,,,8,0,1,,,0,,,74,25
4402,note_off,,,,,22,0,1,,,0,,,74,64
4410,note_off,,,,,8,0,1,,,0,,,54,64
4410,note_on,,,,,0,0,1,,,0,,,76,23
4432,note_off,,,,,22,0,1,,,0,,,76,64
4440,note_on,,,,,0,0,1,,,0,,,74,36
4440,note_on,,,,,0,0,1,,,0,,,78,55
4440,note_on,,,,,8,0,1,,,0,,,62,36
4462,note_off,,,,,22,0,1,,,0,,,74,64
4470,note_on,,,,,8,0,1,,,0,,,76,23
4492,note_off,,,,,22,0,1,,,0,,,76,64
4500,note_on,,,,,0,0,1,,,0,,,74,31
4500,note_off,,,,,8,0,1,,,0,,,50,64
4522,note_off,,,,,22,0,1,,,0,,,74,64
4530,note_off,,,,,8,0,1,,,0,,,62,64
4530,note_on,,,,,0,0,1,,,0,,,76,25
4552,note_off,,,,,22,0,1,,,0,,,76,64
4560,note_on,,,,,0,0,1,,,0,,,59,54
4560,note_on,,,,,0,0,1,,,0,,,74,32
4560,note_on,,,,,8,0,1,,,0,,,55,41
4582,note_off,,,,,22,0,1,,,0,,,74,64
4590,note_on,,,,,8,0,1,,,0,,,76,14
4612,note_off,,,,,22,0,1,,,0,,,76,64
4620,note_on,,,,,8,0,1,,,0,,,74,26
4642,note_off,,,,,22,0,1,,,0,,,74,64
4650,note_off,,,,,0,0,1,,,0,,,55,64
4650,note_off,,,,,8,0,1,,,0,,,59,64
4650,note_on,,,,,0,0,1,,,0,,,76,12
4672,note_off,,,,,22,0,1,,,0,,,76,64
4680,note_on,,,,,0,0,1,,,0,,,74,21
4680,note_on,,,,,0,0,1,,,0,,,57,52
4680,note_on,,,,,8,0,1,,,0,,,54,35
4702,note_off,,,,,22,0,1,,,0,,,74,64
4710,note_on,,,,,8,0,1,,,0,,,76,25
4732,note_off,,,,,22,0,1,,,0,,,76,64
4740,note_on,,,,,8,0,1,,,0,,,74,26
4762,note_off,,,,,22,0,1,,,0,,,74,64
4770,note_off,,,,,8,0,1,,,0,,,57,64
4770,note_on,,,,,0,0,1,,,0,,,76,16
4792,note_off,,,,,22,0,1,,,0,,,76,64
4800,note_on,,,,,0,0,1,,,0,,,74,21
4800,note_on,,,,,8,0,1,,,0,,,62,44
4822,note_off,,,,,22,0,1,,,0,,,74,64
4830,note_on,,,,,8,0,1,,,0,,,76,23
4852,note_off,,,,,22,0,1,,,0,,,76,64
4860,note_off,,,,,8,0,1,,,0,,,54,64
4860,note_on,,,,,0,0,1,,,0,,,74,26
4882,note_off,,,,,22,0,1,,,0,,,74,64
4890,note_off,,,,,8,0,1,,,0,,,62,64
4890,note_on,,,,,0,0,1,,,0,,,76,15
4912,note_off,,,,,22,0,1,,,0,,,76,64
4920,note_on,,,,,0,0,1,,,0,,,74,29
4920,note_on,,,,,0,0,1,,,0,,,55,39
4920,note_on,,,,,8,0,1,,,0,,,52,32
4942,note_off,,,,,22,0,1,,,0,,,74,64
4950,note_on,,,,,8,0,1,,,0,,,76,21
4972,note_off,,,,,22,0,1,,,0,,,76,64
4980,note_on,,,,,8,0,1,,,0,,,74,29
5002,note_off,,,,,22,0,1,,,0,,,74,64
5010,note_off,,,,,8,0,1,,,0,,,55,64
5010,note_off,,,,,0,0,1,,,0,,,52,64
5010,note_on,,,,,0,0,1,,,0,,,76,13
5032,note_off,,,,,22,0,1,,,0,,,76,64
5040,note_on,,,,,0,0,1,,,0,,,54,55
5040,note_on,,,,,0,0,1,,,0,,,74,32
5040,note_on,,,,,8,0,1,,,0,,,50,44
5062,note_off,,,,,22,0,1,,,0,,,74,64
5070,note_on,,,,,8,0,1,,,0,,,76,31
5092,note_off,,,,,22,0,1,,,0,,,76,64
5100,note_on,,,,,8,0,1,,,0,,,74,23
5116,note_off,,,,,16,0,1,,,0,,,78,64
5122,note_off,,,,,6,0,1,,,0,,,74,64
5130,note_on,,,,,0,0,1,,,0,,,76,16
5130,note_off,,,,,8,0,1,,,0,,,54,64
5152,note_off,,,,,22,0,1,,,0,,,76,64
5156,note_on,,,,,4,0,1,,,0,,,78,44
5160,note_on,,,,,0,0,1,,,0,,,74,23
5160,note_on,,,,,0,0,1,,,0,,,81,56
5160,note_on,,,,,4,0,1,,,0,,,62,44
5182,note_off,,,,,22,0,1,,,0,,,74,64
5190,note_on,,,,,8,0,1,,,0,,,76,16
5212,note_off,,,,,22,0,1,,,0,,,76,64
5220,note_off,,,,,8,0,1,,,0,,,50,64
5220,note_on,,,,,0,0,1,,,0,,,74,21
5242,note_off,,,,,22,0,1,,,0,,,74,64
5250,note_off,,,,,8,0,1,,,0,,,62,64
5250,note_on,,,,,0,0,1,,,0,,,76,10
5272,note_off,,,,,22,0,1,,,0,,,76,64
5280,note_on,,,,,0,0,1,,,0,,,59,45
5280,note_on,,,,,0,0,1,,,0,,,74,20
5280,note_on,,,,,8,0,1,,,0,,,55,34
5302,note_off,,,,,22,0,1,,,0,,,74,64
5310,note_on,,,,,8,0,1,,,0,,,76,15
5332,note_off,,,,,22,0,1,,,0,,,76,64
5340,note_on,,,,,8,0,1,,,0,,,74,26
5362,note_off,,,,,22,0,1,,,0,,,74,64
5370,note_off,,,,,8,0,1,,,0,,,59,64
5370,note_on,,,,,0,0,1,,,0,,,76,15
5370,note_off,,,,,0,0,1,,,0,,,55,64
5392,note_off,,,,,22,0,1,,,0,,,76,64
5400,note_on,,,,,0,0,1,,,0,,,74,25
5400,note_on,,,,,0,0,1,,,0,,,57,47
5400,note_on,,,,,8,0,1,,,0,,,54,44
5422,note_off,,,,,22,0,1,,,0,,,74,64
5430,note_on,,,,,8,0,1,,,0,,,76,14
5452,note_off,,,,,22,0,1,,,0,,,76,64
5460,note_on,,,,,8,0,1,,,0,,,74,29
5482,note_off,,,,,22,0,1,,,0,,,74,64
5490,note_on,,,,,0,0,1,,,0,,,76,32
5490,note_off,,,,,8,0,1,,,0,,,57,64
5512,note_off,,,,,22,0,1,,,0,,,76,64
5520,note_on,,,,,8,0,1,,,0,,,62,47
5520,note_on,,,,,0,0,1,,,0,,,74,31
5542,note_off,,,,,22,0,1,,,0,,,74,64
5550,note_on,,,,,8,0,1,,,0,,,76,23
5572,note_off,,,,,22,0,1,,,0,,,76,64
5580,note_on,,,,,0,0,1,,,0,,,74,26
5580,note_off,,,,,8,0,1,,,0,,,54,64
5602,note_off,,,,,22,0,1,,,0,,,74,64
5610,note_on,,,,,0,0,1,,,0,,,76,10
5610,note_off,,,,,8,0,1,,,0,,,62,64
5632,note_off,,,,,22,0,1,,,0,,,76,64
5640,note_on,,,,,0,0,1,,,0,,,74,15
5640,note_on,,,,,8,0,1,,,0,,,52,29
5640,note_on,,,,,0,0,1,,,0,,,55,41
5662,note_off,,,,,22,0,1,,,0,,,74,64
5670,note_on,,,,,8,0,1,,,0,,,76,12
5692,note_off,,,,,22,0,1,,,0,,,76,64
5700,note_on,,,,,8,0,1,,,0,,,74,25
5722,note_off,,,,,22,0,1,,,0,,,74,64
5730,note_on,,,,,0,0,1,,,0,,,76,12
5730,note_off,,,,,0,0,1,,,0,,,52,64
5730,note_off,,,,,8,0,1,,,0,,,55,64
5752,note_off,,,,,22,0,1,,,0,,,76,64
5760,note_on,,,,,8,0,1,,,0,,,50,62
5824,note_off,,,,,64,0,1,,,0,,,78,64
5844,note_off,,,,,20,0,1,,,0,,,81,64
5880,note_on,,,,,36,0,1,,,0,,,79,47
5880,note_on,,,,,0,0,1,,,0,,,76,44
5940,note_off,,,,,60,0,1,,,0,,,50,64
5970,note_off,,,,,0,0,1,,,0,,,79,64
5970,note_off,,,,,30,0,1,,,0,,,76,64
6000,note_on,,,,,30,0,1,,,0,,,62,50
6000,note_on,,,,,0,0,1,,,0,,,74,32
6000,note_on,,,,,0,0,1,,,0,,,78,44
6090,note_off,,,,,0,0,1,,,0,,,74,64
6090,note_off,,,,,0,0,1,,,0,,,62,64
6090,note_off,,,,,90,0,1,,,0,,,78,64
6120,note_on,,,,,30,0,1,,,0,,,61,54
6120,note_on,,,,,0,0,1,,,0,,,79,52
6120,note_on,,,,,0,0,1,,,0,,,76,47
6210,note_off,,,,,0,0,1,,,0,,,79,64
6210,note_off,,,,,90,0,1,,,0,,,76,64
6240,note_on,,,,,0,0,1,,,0,,,76,50
6240,note_on,,,,,30,0,1,,,0,,,79,52
6300,note_off,,,,,60,0,1,,,0,,,61,64
6330,note_off,,,,,0,0,1,,,0,,,79,64
6330,note_off,,,,,30,0,1,,,0,,,76,64
6360,note_on,,,,,0,0,1,,,0,,,74,41
6360,note_on,,,,,0,0,1,,,0,,,78,50
6360,note_on,,,,,30,0,1,,,0,,,62,31
6450,note_off,,,,,0,0,1,,,0,,,74,64
6450,note_off,,,,,90,0,1,,,0,,,78,64
6450,note_off,,,,,0,0,1,,,0,,,62,64
6480,note_on,,,,,0,0,1,,,0,,,81,70
6480,note_on,,,,,0,0,1,,,0,,,45,62
6480,note_on,,,,,0,0,1,,,0,,,69,59
6480,note_on,,,,,0,0,1,,,0,,,76,62
6480,note_on,,,,,30,0,1,,,0,,,57,59
6543,note_off,,,,,63,0,1,,,0,,,69,64
6550,note_off,,,,,7,0,1,,,0,,,76,64
6559,note_off,,,,,9,0,1,,,0,,,81,64
6593,note_on,,,,,34,0,1,,,0,,,81,20
6599,note_on,,,,,6,0,1,,,0,,,76,50
6599,note_on,,,,,0,0,1,,,0,,,69,36
6618,note_off,,,,,19,0,1,,,0,,,57,64
6619,note_off,,,,,1,0,1,,,0,,,76,64
6622,note_off,,,,,3,0,1,,,0,,,69,64
6625,note_off,,,,,3,0,1,,,0,,,81,64
6627,note_off,,,,,2,0,1,,,0,,,45,64
6719,note_on,,,,,92,0,1,,,0,,,81,70
6723,note_on,,,,,0,0,1,,,0,,,69,62
6723,note_on,,,,,4,0,1,,,0,,,74,59
6729,note_on,,,,,0,0,1,,,0,,,42,63
6729,note_on,,,,,6,0,1,,,0,,,54,55
6733,note_off,,,,,4,0,1,,,0,,,74,64
6736,note_off,,,,,3,0,1,,,0,,,42,64
6741,note_off,,,,,0,0,1,,,0,,,69,64
6741,note_off,,,,,5,0,1,,,0,,,54,64
6744,note_off,,,,,3,0,1,,,0,,,81,64
6835,note_on,,,,,91,0,1,,,0,,,69,59
6835,note_on,,,,,0,0,1,,,0,,,81,70
6841,note_on,,,,,6,0,1,,,0,,,76,70
6841,note_on,,,,,0,0,1,,,0,,,57,70
6841,note_on,,,,,0,0,1,,,0,,,45,67
6912,note_off,,,,,71,0,1,,,0,,,76,64
6912,note_off,,,,,0,0,1,,,0,,,69,64
6926,note_off,,,,,14,0,1,,,0,,,81,64
6947,note_off,,,,,21,0,1,,,0,,,45,64
6952,note_on,,,,,5,0,1,,,0,,,76,59
6955,note_off,,,,,3,0,1,,,0,,,57,64
6955,note_on,,,,,0,0,1,,,0,,,81,52
6956,note_on,,,,,1,0,1,,,0,,,69,56
6974,note_off,,,,,18,0,1,,,0,,,76,64
6977,note_off,,,,,3,0,1,,,0,,,69,64
6980,note_off,,,,,3,0,1,,,0,,,81,64
7072,note_on,,,,,0,0,1,,,0,,,69,62
7072,note_on,,,,,92,0,1,,,0,,,81,67
7078,note_on,,,,,0,0,1,,,0,,,62,59
7078,note_on,,,,,6,0,1,,,0,,,78,68
7084,note_on,,,,,6,0,1,,,0,,,50,62
7087,note_off,,,,,3,0,1,,,0,,,62,64
7092,note_off,,,,,5,0,1,,,0,,,69,64
7095,note_off,,,,,3,0,1,,,0,,,78,64
7098,note_off,,,,,3,0,1,,,0,,,81,64
7100,note_off,,,,,2,0,1,,,0,,,50,64
7186,note_on,,,,,0,0,1,,,0,,,81,70
7186,note_on,,,,,86,0,1,,,0,,,57,67
7190,note_on,,,,,4,0,1,,,0,,,76,67
7190,note_on,,,,,0,0,1,,,0,,,45,59
7191,note_on,,,,,1,0,1,,,0,,,69,59
7226,note_off,,,,,0,0,1,,,0,,,76,64
7226,note_off,,,,,35,0,1,,,0,,,57,64
7234,note_off,,,,,8,0,1,,,0,,,45,64
7236,note_off,,,,,2,0,1,,,0,,,81,64
7239,note_off,,,,,3,0,1,,,0,,,69,64
7299,note_on,,,,,60,0,1,,,0,,,81,67
7303,note_on,,,,,4,0,1,,,0,,,74,52
7303,note_on,,,,,0,0,1,,,0,,,69,52
7309,note_on,,,,,6,0,1,,,0,,,54,50
7310,note_on,,,,,1,0,1,,,0,,,42,55
7315,note_off,,,,,5,0,1,,,0,,,74,64
7319,note_off,,,,,4,0,1,,,0,,,42,64
7321,note_off,,,,,2,0,1,,,0,,,54,64
7321,note_off,,,,,0,0,1,,,0,,,69,64
7327,note_off,,,,,6,0,1,,,0,,,81,64
7421,note_on,,,,,94,0,1,,,0,,,69,59
7422,note_on,,,,,1,0,1,,,0,,,76,70
7427,note_on,,,,,5,0,1,,,0,,,81,70
7428,note_on,,,,,1,0,1,,,0,,,45,59
7433,note_on,,,,,0,0,1,,,0,,,57,41
7433,note_off,,,,,5,0,1,,,0,,,45,64
7439,note_off,,,,,6,0,1,,,0,,,69,64
7442,note_off,,,,,3,0,1,,,0,,,57,64
7442,note_off,,,,,0,0,1,,,0,,,76,64
7447,note_off,,,,,5,0,1,,,0,,,81,64
7534,note_on,,,,,87,0,1,,,0,,,81,70
7537,note_on,,,,,0,0,1,,,0,,,78,68
7537,note_on,,,,,3,0,1,,,0,,,69,67
7544,note_on,,,,,7,0,1,,,0,,,62,67
7544,note_on,,,,,0,0,1,,,0,,,50,70
7596,note_off,,,,,52,0,1,,,0,,,62,64
7601,note_off,,,,,5,0,1,,,0,,,69,64
7605,note_off,,,,,0,0,1,,,0,,,50,64
7605,note_off,,,,,4,0,1,,,0,,,81,64
7613,note_off,,,,,8,0,1,,,0,,,78,64
7654,note_on,,,,,41,0,1,,,0,,,45,39
7657,note_on,,,,,0,0,1,,,0,,,57,47
7657,note_on,,,,,3,0,1,,,0,,,81,70
7662,note_on,,,,,0,0,1,,,0,,,69,56
7662,note_on,,,,,5,0,1,,,0,,,76,62
7677,note_off,,,,,15,0,1,,,0,,,76,64
7680,note_off,,,,,0,0,1,,,0,,,57,64
7680,note_off,,,,,3,0,1,,,0,,,69,64
7685,note_off,,,,,0,0,1,,,0,,,45,64
7685,note_off,,,,,5,0,1,,,0,,,81,64
7771,note_on,,,,,86,0,1,,,0,,,81,67
7772,note_on,,,,,0,0,1,,,0,,,42,63
7772,note_on,,,,,1,0,1,,,0,,,74,59
7772,note_on,,,,,0,0,1,,,0,,,69,59
7781,note_on,,,,,9,0,1,,,0,,,54,58
7784,note_off,,,,,3,0,1,,,0,,,74,64
7787,note_off,,,,,3,0,1,,,0,,,54,64
7789,note_off,,,,,0,0,1,,,0,,,69,64
7789,note_off,,,,,2,0,1,,,0,,,42,64
7793,note_off,,,,,4,0,1,,,0,,,81,64
7882,note_on,,,,,89,0,1,,,0,,,81,67
7886,note_on,,,,,4,0,1,,,0,,,57,59
7886,note_on,,,,,0,0,1,,,0,,,69,59
7886,note_on,,,,,0,0,1,,,0,,,76,67
7887,note_on,,,,,1,0,1,,,0,,,45,59
7906,note_off,,,,,19,0,1,,,0,,,76,64
7906,note_off,,,,,0,0,1,,,0,,,57,64
7910,note_off,,,,,0,0,1,,,0,,,69,64
7910,note_off,,,,,4,0,1,,,0,,,45,64
7914,note_off,,,,,4,0,1,,,0,,,81,64
8009,note_on,,,,,95,0,1,,,0,,,69,56
8014,note_on,,,,,0,0,1,,,0,,,42,63
8014,note_on,,,,,0,0,1,,,0,,,81,59
8014,note_on,,,,,5,0,1,,,0,,,74,62
8020,note_on,,,,,6,0,1,,,0,,,54,55
8028,note_off,,,,,8,0,1,,,0,,,74,64
8031,note_off,,,,,0,0,1,,,0,,,42,64
8031,note_off,,,,,0,0,1,,,0,,,69,64
8031,note_off,,,,,3,0,1,,,0,,,54,64
8037,note_off,,,,,6,0,1,,,0,,,81,64
8040,set_tempo,,,,,8040,1,0,419580,,,,,,
8136,note_on,,,,,99,0,1,,,0,,,76,67
8140,note_on,,,,,0,0,1,,,0,,,69,59
8140,note_on,,,,,4,0,1,,,0,,,81,67
8147,note_on,,,,,0,0,1,,,0,,,45,52
8147,note_on,,,,,7,0,1,,,0,,,57,41
8151,note_off,,,,,4,0,1,,,0,,,45,64
8156,note_off,,,,,0,0,1,,,0,,,69,64
8156,note_off,,,,,5,0,1,,,0,,,57,64
8160,note_off,,,,,4,0,1,,,0,,,76,64
8160,set_tempo,,,,,120,1,0,422535,,,,,,
8162,note_off,,,,,2,0,1,,,0,,,81,64
8262,note_on,,,,,100,0,1,,,0,,,81,70
8267,note_on,,,,,0,0,1,,,0,,,78,68
8267,note_on,,,,,5,0,1,,,0,,,69,59
8273,note_on,,,,,0,0,1,,,0,,,50,59
8273,note_on,,,,,6,0,1,,,0,,,62,52
8280,note_off,,,,,7,0,1,,,0,,,62,64
8280,set_tempo,,,,,120,1,0,428571,,,,,,
8285,note_off,,,,,5,0,1,,,0,,,69,64
8290,note_off,,,,,5,0,1,,,0,,,81,64
8293,note_off,,,,,0,0,1,,,0,,,50,64
8293,note_off,,,,,3,0,1,,,0,,,78,64
8393,note_on,,,,,100,0,1,,,0,,,45,67
8396,note_on,,,,,0,0,1,,,0,,,69,67
8396,note_on,,,,,3,0,1,,,0,,,57,52
8396,note_on,,,,,0,0,1,,,0,,,81,70
8400,set_tempo,,,,,120,1,0,434783,,,,,,
8403,note_on,,,,,7,0,1,,,0,,,76,67
8407,note_off,,,,,4,0,1,,,0,,,57,64
8413,note_off,,,,,6,0,1,,,0,,,76,64
8416,note_off,,,,,3,0,1,,,0,,,45,64
8418,note_off,,,,,2,0,1,,,0,,,69,64
8422,note_off,,,,,4,0,1,,,0,,,81,64
8456,note_on,,,,,34,0,1,,,0,,,37,24
8467,note_off,,,,,11,0,1,,,0,,,37,64
8520,set_tempo,,,,,120,1,0,437956,,,,,,
8525,note_on,,,,,58,0,1,,,0,,,81,67
8529,note_on,,,,,0,0,1,,,0,,,69,62
8529,note_on,,,,,4,0,1,,,0,,,74,70
8535,note_on,,,,,6,0,1,,,0,,,38,62
8535,note_on,,,,,0,0,1,,,0,,,50,59
8544,note_off,,,,,9,0,1,,,0,,,50,64
8546,note_off,,,,,2,0,1,,,0,,,69,64
8549,note_off,,,,,3,0,1,,,0,,,74,64
8554,note_off,,,,,5,0,1,,,0,,,38,64
8557,note_off,,,,,3,0,1,,,0,,,81,64
8640,note_on,,,,,0,0,1,,,0,,,45,62
8640,set_tempo,,,,,120,1,0,444444,,,,,,
8640,note_on,,,,,0,0,1,,,0,,,76,31
8640,note_on,,,,,83,0,1,,,0,,,33,59
8662,note_off,,,,,22,0,1,,,0,,,76,64
8670,note_on,,,,,8,0,1,,,0,,,78,27
8692,note_off,,,,,22,0,1,,,0,,,78,64
8700,note_on,,,,,8,0,1,,,0,,,76,20
8722,note_off,,,,,22,0,1,,,0,,,76,64
8730,note_on,,,,,8,0,1,,,0,,,78,24
8752,note_off,,,,,22,0,1,,,0,,,78,64
8760,set_tempo,,,,,120,1,0,451128,,,,,,
8760,note_on,,,,,8,0,1,,,0,,,76,34
8782,note_off,,,,,22,0,1,,,0,,,76,64
8790,note_on,,,,,8,0,1,,,0,,,78,38
8812,note_off,,,,,22,0,1,,,0,,,78,64
8820,note_on,,,,,8,0,1,,,0,,,76,44
8842,note_off,,,,,22,0,1,,,0,,,76,64
8850,note_on,,,,,8,0,1,,,0,,,78,27
8872,note_off,,,,,22,0,1,,,0,,,78,64
8880,set_tempo,,,,,120,1,0,454545,,,,,,
8880,note_on,,,,,8,0,1,,,0,,,76,34
8902,note_off,,,,,22,0,1,,,0,,,76,64
8910,note_on,,,,,8,0,1,,,0,,,78,27
8932,note_off,,,,,22,0,1,,,0,,,78,64
8940,note_on,,,,,8,0,1,,,0,,,76,21
8962,note_off,,,,,22,0,1,,,0,,,76,64
8970,note_on,,,,,8,0,1,,,0,,,78,22
8980,note_off,,,,,0,0,1,,,0,,,33,64
8980,note_off,,,,,10,0,1,,,0,,,45,64
8992,note_off,,,,,12,0,1,,,0,,,78,64
9000,set_tempo,,,,,120,1,0,461538,,,,,,
9000,note_on,,,,,8,0,1,,,0,,,69,26
9007,note_on,,,,,0,0,1,,,0,,,61,40
9007,note_on,,,,,7,0,1,,,0,,,57,30
9022,note_off,,,,,15,0,1,,,0,,,69,64
9030,note_on,,,,,8,0,1,,,0,,,71,29
9052,note_off,,,,,22,0,1,,,0,,,71,64
9060,note_on,,,,,8,0,1,,,0,,,69,36
9082,note_off,,,,,22,0,1,,,0,,,69,64
9090,note_on,,,,,8,0,1,,,0,,,71,31
9111,note_off,,,,,21,0,1,,,0,,,57,64
9112,note_off,,,,,1,0,1,,,0,,,71,64
9114,note_off,,,,,2,0,1,,,0,,,61,64
9118,note_on,,,,,4,0,1,,,0,,,62,34
9120,note_on,,,,,2,0,1,,,0,,,69,29
9122,note_on,,,,,2,0,1,,,0,,,59,29
9142,note_off,,,,,20,0,1,,,0,,,69,64
9180,note_on,,,,,38,0,1,,,0,,,71,44
9202,note_off,,,,,22,0,1,,,0,,,71,64
9210,note_on,,,,,8,0,1,,,0,,,73,47
9216,note_off,,,,,6,0,1,,,0,,,62,64
9216,note_on,,,,,0,0,1,,,0,,,64,34
9221,note_on,,,,,5,0,1,,,0,,,61,43
9232,note_off,,,,,11,0,1,,,0,,,73,64
9240,note_on,,,,,8,0,1,,,0,,,74,39
9254,note_off,,,,,14,0,1,,,0,,,59,64
9260,note_off,,,,,6,0,1,,,0,,,64,64
9285,note_off,,,,,25,0,1,,,0,,,74,64
9300,note_on,,,,,15,0,1,,,0,,,76,62
9316,note_off,,,,,16,0,1,,,0,,,61,64
9329,note_on,,,,,0,0,1,,,0,,,62,33
9329,note_on,,,,,13,0,1,,,0,,,66,42
9345,note_off,,,,,16,0,1,,,0,,,76,64
9360,note_on,,,,,15,0,1,,,0,,,78,58
9360,set_tempo,,,,,360,1,0,413793,,,,,,
9450,note_off,,,,,90,0,1,,,0,,,78,64
9480,note_on,,,,,30,0,1,,,0,,,74,47
9495,control_change,,,,,15,0,1,,,0,64,64,,
9535,control_change,,,,,40,0,1,,,0,64,96,,
9570,note_off,,,,,35,0,1,,,0,,,74,64
9588,note_off,,,,,18,0,1,,,0,,,62,64
9600,note_on,,,,,12,0,1,,,0,,,71,44
9623,note_off,,,,,23,0,1,,,0,,,66,64
9690,note_off,,,,,67,0,1,,,0,,,71,64
9708,control_change,,,,,18,0,1,,,0,64,64,,
9716,control_change,,,,,8,0,1,,,0,64,0,,
9720,note_on,,,,,4,0,1,,,0,,,68,50
9723,note_on,,,,,3,0,1,,,0,,,59,18
9724,note_on,,,,,1,0,1,,,0,,,62,39
9742,note_off,,,,,18,0,1,,,0,,,68,64
9750,note_on,,,,,8,0,1,,,0,,,69,44
9772,note_off,,,,,22,0,1,,,0,,,69,64
9780,note_on,,,,,8,0,1,,,0,,,68,35
9790,control_change,,,,,10,0,1,,,0,64,64,,
9802,note_off,,,,,12,0,1,,,0,,,68,64
9810,note_on,,,,,8,0,1,,,0,,,69,32
9815,control_change,,,,,5,0,1,,,0,64,96,,
9832,note_off,,,,,17,0,1,,,0,,,69,64
9839,note_off,,,,,7,0,1,,,0,,,59,64
9840,note_on,,,,,1,0,1,,,0,,,68,27
9848,note_on,,,,,8,0,1,,,0,,,61,37
9853,note_off,,,,,5,0,1,,,0,,,62,64
9853,note_on,,,,,0,0,1,,,0,,,64,34
9862,note_off,,,,,9,0,1,,,0,,,68,64
9900,note_on,,,,,38,0,1,,,0,,,69,50
9922,note_off,,,,,22,0,1,,,0,,,69,64
9930,note_on,,,,,8,0,1,,,0,,,71,50
9952,note_off,,,,,22,0,1,,,0,,,71,64
9957,note_off,,,,,5,0,1,,,0,,,61,64
9960,note_on,,,,,3,0,1,,,0,,,73,55
9973,note_on,,,,,13,0,1,,,0,,,62,39
9973,note_on,,,,,0,0,1,,,0,,,66,34
9982,note_off,,,,,9,0,1,,,0,,,64,64
10005,note_off,,,,,23,0,1,,,0,,,73,64
10020,note_on,,,,,15,0,1,,,0,,,74,52
10050,control_change,,,,,30,0,1,,,0,64,64,,
10065,note_off,,,,,15,0,1,,,0,,,74,64
10070,control_change,,,,,5,0,1,,,0,64,0,,
10080,note_on,,,,,10,0,1,,,0,,,76,59
10087,note_off,,,,,7,0,1,,,0,,,62,64
10090,note_on,,,,,3,0,1,,,0,,,64,51
10091,note_on,,,,,1,0,1,,,0,,,61,43
10099,note_off,,,,,8,0,1,,,0,,,66,64
10170,note_off,,,,,71,0,1,,,0,,,76,64
10200,note_on,,,,,30,0,1,,,0,,,73,55
10227,control_change,,,,,27,0,1,,,0,64,64,,
10241,control_change,,,,,14,0,1,,,0,64,96,,
10274,note_off,,,,,33,0,1,,,0,,,64,64
10290,note_off,,,,,16,0,1,,,0,,,73,64
10308,note_off,,,,,18,0,1,,,0,,,61,64
10320,note_on,,,,,12,0,1,,,0,,,69,56
10410,note_off,,,,,90,0,1,,,0,,,69,64
10438,control_change,,,,,28,0,1,,,0,64,64,,
10440,note_on,,,,,2,0,1,,,0,,,66,35
10447,control_change,,,,,7,0,1,,,0,64,0,,
10452,note_on,,,,,5,0,1,,,0,,,61,43
10453,note_on,,,,,1,0,1,,,0,,,57,33
10462,note_off,,,,,9,0,1,,,0,,,66,64
10470,note_on,,,,,8,0,1,,,0,,,68,40
10492,note_off,,,,,22,0,1,,,0,,,68,64
10500,note_on,,,,,8,0,1,,,0,,,66,32
10522,note_off,,,,,22,0,1,,,0,,,66,64
10530,note_on,,,,,8,0,1,,,0,,,68,29
10552,note_off,,,,,22,0,1,,,0,,,68,64
10560,note_on,,,,,8,0,1,,,0,,,66,13
10562,note_off,,,,,2,0,1,,,0,,,57,64
10565,control_change,,,,,3,0,1,,,0,64,64,,
10567,note_on,,,,,2,0,1,,,0,,,62,39
10573,note_off,,,,,6,0,1,,,0,,,61,64
10573,note_on,,,,,0,0,1,,,0,,,59,40
10582,note_off,,,,,9,0,1,,,0,,,66,64
10620,control_change,,,,,38,0,1,,,0,64,96,,
10620,note_on,,,,,0,0,1,,,0,,,68,38
10642,note_off,,,,,22,0,1,,,0,,,68,64
10650,note_on,,,,,8,0,1,,,0,,,69,50
10672,note_off,,,,,22,0,1,,,0,,,69,64
10676,note_off,,,,,4,0,1,,,0,,,62,64
10680,note_on,,,,,4,0,1,,,0,,,64,44
10680,note_on,,,,,0,0,1,,,0,,,71,41
10689,note_on,,,,,0,0,1,,,0,,,61,52
10689,note_off,,,,,9,0,1,,,0,,,59,64
10725,note_off,,,,,36,0,1,,,0,,,71,64
10740,note_on,,,,,15,0,1,,,0,,,73,47
10785,note_off,,,,,45,0,1,,,0,,,73,64
10795,control_change,,,,,10,0,1,,,0,64,64,,
10800,note_on,,,,,5,0,1,,,0,,,74,59
10807,note_off,,,,,7,0,1,,,0,,,61,64
10811,note_on,,,,,4,0,1,,,0,,,62,44
10817,control_change,,,,,6,0,1,,,0,64,0,,
10819,note_off,,,,,2,0,1,,,0,,,64,64
10819,note_on,,,,,0,0,1,,,0,,,59,47
10890,note_off,,,,,71,0,1,,,0,,,74,64
10920,note_on,,,,,30,0,1,,,0,,,71,50
10940,control_change,,,,,20,0,1,,,0,64,64,,
10964,control_change,,,,,24,0,1,,,0,64,96,,
11004,note_off,,,,,40,0,1,,,0,,,62,64
11010,note_off,,,,,6,0,1,,,0,,,71,64
11010,note_off,,,,,0,0,1,,,0,,,59,64
11040,note_on,,,,,30,0,1,,,0,,,68,55
11130,note_off,,,,,90,0,1,,,0,,,68,64
11147,control_change,,,,,17,0,1,,,0,64,64,,
11160,control_change,,,,,0,0,1,,,0,64,0,,
11160,note_on,,,,,13,0,1,,,0,,,64,11
11164,note_on,,,,,4,0,1,,,0,,,56,45
11164,note_on,,,,,0,0,1,,,0,,,59,45
11182,note_off,,,,,18,0,1,,,0,,,64,64
11190,note_on,,,,,8,0,1,,,0,,,66,15
11212,note_off,,,,,22,0,1,,,0,,,66,64
11220,note_on,,,,,8,0,1,,,0,,,64,17
11242,note_off,,,,,22,0,1,,,0,,,64,64
11250,note_on,,,,,8,0,1,,,0,,,66,14
11256,control_change,,,,,6,0,1,,,0,64,64,,
11272,note_off,,,,,16,0,1,,,0,,,66,64
11272,note_off,,,,,0,0,1,,,0,,,56,64
11280,note_on,,,,,8,0,1,,,0,,,64,24
11281,note_on,,,,,1,0,1,,,0,,,61,50
11286,note_off,,,,,5,0,1,,,0,,,59,64
11286,note_on,,,,,0,0,1,,,0,,,57,37
11294,control_change,,,,,8,0,1,,,0,64,96,,
11302,note_off,,,,,8,0,1,,,0,,,64,64
11340,note_on,,,,,38,0,1,,,0,,,66,47
11362,note_off,,,,,22,0,1,,,0,,,66,64
11370,note_on,,,,,8,0,1,,,0,,,68,44
11392,note_off,,,,,22,0,1,,,0,,,68,64
11400,note_on,,,,,8,0,1,,,0,,,62,37
11400,note_on,,,,,0,0,1,,,0,,,69,56
11409,note_off,,,,,0,0,1,,,0,,,61,64
11409,note_off,,,,,9,0,1,,,0,,,57,64
11410,note_on,,,,,1,0,1,,,0,,,59,53
11445,note_off,,,,,35,0,1,,,0,,,69,64
11460,note_on,,,,,15,0,1,,,0,,,71,50
11505,note_off,,,,,45,0,1,,,0,,,71,64
11512,note_off,,,,,7,0,1,,,0,,,59,64
11519,control_change,,,,,7,0,1,,,0,64,64,,
11520,note_on,,,,,1,0,1,,,0,,,73,38
11531,control_change,,,,,11,0,1,,,0,64,0,,
11533,note_off,,,,,2,0,1,,,0,,,62,64
11533,note_on,,,,,0,0,1,,,0,,,61,43
11542,note_on,,,,,9,0,1,,,0,,,57,39
11565,note_off,,,,,23,0,1,,,0,,,73,64
11580,note_on,,,,,15,0,1,,,0,,,73,47
11607,note_off,,,,,27,0,1,,,0,,,57,64
11625,note_off,,,,,18,0,1,,,0,,,73,64
11640,note_on,,,,,15,0,1,,,0,,,73,38
11644,control_change,,,,,4,0,1,,,0,64,64,,
11654,note_on,,,,,0,0,1,,,0,,,57,6
11654,note_off,,,,,10,0,1,,,0,,,61,64
11662,control_change,,,,,8,0,1,,,0,64,96,,
11685,note_off,,,,,23,0,1,,,0,,,73,64
11700,note_on,,,,,15,0,1,,,0,,,73,32
11745,note_off,,,,,45,0,1,,,0,,,73,64
11753,note_off,,,,,8,0,1,,,0,,,57,64
11760,note_on,,,,,7,0,1,,,0,,,73,22
11768,note_on,,,,,8,0,1,,,0,,,56,45
11791,control_change,,,,,23,0,1,,,0,64,127,,
11804,note_off,,,,,13,0,1,,,0,,,56,64
11805,note_off,,,,,1,0,1,,,0,,,73,64
11820,note_on,,,,,15,0,1,,,0,,,73,32
11861,control_change,,,,,41,0,1,,,0,64,96,,
11865,note_off,,,,,4,0,1,,,0,,,73,64
11868,control_change,,,,,3,0,1,,,0,64,64,,
11878,control_change,,,,,10,0,1,,,0,64,0,,
11880,note_on,,,,,2,0,1,,,0,,,73,38
11894,note_on,,,,,14,0,1,,,0,,,54,49
11908,note_off,,,,,14,0,1,,,0,,,54,64
11912,control_change,,,,,4,0,1,,,0,64,64,,
11920,control_change,,,,,8,0,1,,,0,64,96,,
11925,note_off,,,,,5,0,1,,,0,,,73,64
11940,note_on,,,,,0,0,1,,,0,,,73,38
11940,control_change,,,,,15,0,1,,,0,64,127,,
11985,note_off,,,,,45,0,1,,,0,,,73,64
12000,note_on,,,,,15,0,1,,,0,,,73,38
12008,note_on,,,,,8,0,1,,,0,,,69,42
12020,control_change,,,,,12,0,1,,,0,64,96,,
12045,note_off,,,,,25,0,1,,,0,,,73,64
12051,control_change,,,,,6,0,1,,,0,64,127,,
12060,note_on,,,,,9,0,1,,,0,,,73,19
12105,note_off,,,,,45,0,1,,,0,,,73,64
12120,note_on,,,,,15,0,1,,,0,,,73,20
12127,note_on,,,,,7,0,1,,,0,,,64,39
12132,note_off,,,,,5,0,1,,,0,,,69,64
12165,note_off,,,,,33,0,1,,,0,,,73,64
12180,note_on,,,,,15,0,1,,,0,,,73,27
12225,note_off,,,,,45,0,1,,,0,,,73,64
12229,control_change,,,,,4,0,1,,,0,64,96,,
12233,note_off,,,,,4,0,1,,,0,,,64,64
12239,control_change,,,,,6,0,1,,,0,64,64,,
12240,note_on,,,,,1,0,1,,,0,,,78,58
12241,note_on,,,,,1,0,1,,,0,,,63,49
12251,control_change,,,,,10,0,1,,,0,64,0,,
12330,note_off,,,,,79,0,1,,,0,,,78,64
12360,note_on,,,,,30,0,1,,,0,,,71,36
12450,note_off,,,,,90,0,1,,,0,,,71,64
12480,note_on,,,,,30,0,1,,,0,,,69,39
12483,note_on,,,,,3,0,1,,,0,,,59,40
12516,note_off,,,,,33,0,1,,,0,,,63,64
12522,control_change,,,,,6,0,1,,,0,64,64,,
12535,control_change,,,,,13,0,1,,,0,64,96,,
12555,note_off,,,,,20,0,1,,,0,,,59,64
12570,note_off,,,,,15,0,1,,,0,,,69,64
12600,note_on,,,,,30,0,1,,,0,,,71,20
12639,control_change,,,,,39,0,1,,,0,64,64,,
12645,note_off,,,,,6,0,1,,,0,,,71,64
12660,note_on,,,,,15,0,1,,,0,,,71,31
12705,note_off,,,,,45,0,1,,,0,,,71,64
12708,control_change,,,,,3,0,1,,,0,64,0,,
12720,note_on,,,,,12,0,1,,,0,,,71,23
12729,note_on,,,,,9,0,1,,,0,,,68,49
12765,note_off,,,,,36,0,1,,,0,,,71,64
12780,note_on,,,,,15,0,1,,,0,,,71,26
12825,note_off,,,,,45,0,1,,,0,,,71,64
12840,note_on,,,,,15,0,1,,,0,,,71,21
12850,note_on,,,,,10,0,1,,,0,,,66,49
12864,note_off,,,,,14,0,1,,,0,,,68,64
12885,note_off,,,,,21,0,1,,,0,,,71,64
12900,note_on,,,,,15,0,1,,,0,,,71,29
12945,note_off,,,,,45,0,1,,,0,,,71,64
12960,note_on,,,,,15,0,1,,,0,,,71,41
12966,note_off,,,,,6,0,1,,,0,,,66,64
12966,note_on,,,,,0,0,1,,,0,,,64,51
13005,note_off,,,,,39,0,1,,,0,,,71,64
13020,note_on,,,,,15,0,1,,,0,,,71,26
13065,note_off,,,,,45,0,1,,,0,,,71,64
13080,note_on,,,,,15,0,1,,,0,,,71,34
13087,note_off,,,,,7,0,1,,,0,,,64,64
13090,note_on,,,,,3,0,1,,,0,,,68,37
13125,note_off,,,,,35,0,1,,,0,,,71,64
13140,note_on,,,,,15,0,1,,,0,,,71,29
13167,control_change,,,,,27,0,1,,,0,64,64,,
13185,note_off,,,,,18,0,1,,,0,,,71,64
13200,note_on,,,,,15,0,1,,,0,,,71,32
13208,note_on,,,,,8,0,1,,,0,,,62,39
13219,note_off,,,,,11,0,1,,,0,,,68,64
13245,note_off,,,,,26,0,1,,,0,,,71,64
13260,note_on,,,,,15,0,1,,,0,,,71,25
13281,note_off,,,,,21,0,1,,,0,,,62,64
13289,control_change,,,,,8,0,1,,,0,64,0,,
13305,note_off,,,,,16,0,1,,,0,,,71,64
13320,note_on,,,,,15,0,1,,,0,,,80,50
13410,note_off,,,,,90,0,1,,,0,,,80,64
13440,note_on,,,,,30,0,1,,,0,,,73,44
13443,note_on,,,,,3,0,1,,,0,,,61,45
13530,note_off,,,,,87,0,1,,,0,,,73,64
13538,control_change,,,,,8,0,1,,,0,64,64,,
13560,note_on,,,,,22,0,1,,,0,,,71,21
13563,note_on,,,,,3,0,1,,,0,,,65,47
13586,note_off,,,,,23,0,1,,,0,,,61,64
13631,note_off,,,,,45,0,1,,,0,,,65,64
13650,note_off,,,,,19,0,1,,,0,,,71,64
13655,control_change,,,,,5,0,1,,,0,64,0,,
13680,note_on,,,,,25,0,1,,,0,,,69,36
13725,note_off,,,,,45,0,1,,,0,,,69,64
13740,note_on,,,,,15,0,1,,,0,,,69,34
13785,note_off,,,,,45,0,1,,,0,,,69,64
13800,note_on,,,,,15,0,1,,,0,,,69,34
13806,note_on,,,,,6,0,1,,,0,,,66,42
13845,note_off,,,,,39,0,1,,,0,,,69,64
13860,note_on,,,,,15,0,1,,,0,,,69,26
13905,note_off,,,,,45,0,1,,,0,,,69,64
13920,note_on,,,,,15,0,1,,,0,,,69,29
13928,note_on,,,,,8,0,1,,,0,,,64,44
13933,note_off,,,,,5,0,1,,,0,,,66,64
13965,note_off,,,,,32,0,1,,,0,,,69,64
13980,note_on,,,,,15,0,1,,,0,,,69,20
14025,note_off,,,,,45,0,1,,,0,,,69,64
14040,note_on,,,,,15,0,1,,,0,,,69,44
14047,note_on,,,,,7,0,1,,,0,,,63,53
14053,note_off,,,,,6,0,1,,,0,,,64,64
14065,control_change,,,,,12,0,1,,,0,64,64,,
14085,note_off,,,,,20,0,1,,,0,,,69,64
14100,note_on,,,,,15,0,1,,,0,,,69,29
14145,note_off,,,,,45,0,1,,,0,,,69,64
14160,note_on,,,,,15,0,1,,,0,,,69,29
14167,note_off,,,,,7,0,1,,,0,,,63,64
14167,note_on,,,,,0,0,1,,,0,,,66,34
14205,note_off,,,,,38,0,1,,,0,,,69,64
14220,note_on,,,,,15,0,1,,,0,,,69,26
14265,note_off,,,,,45,0,1,,,0,,,69,64
14279,note_on,,,,,14,0,1,,,0,,,61,50
14280,note_on,,,,,1,0,1,,,0,,,69,31
14294,note_off,,,,,14,0,1,,,0,,,66,64
14325,note_off,,,,,31,0,1,,,0,,,69,64
14338,note_off,,,,,13,0,1,,,0,,,61,64
14340,note_on,,,,,2,0,1,,,0,,,69,32
14381,control_change,,,,,41,0,1,,,0,64,0,,
14385,note_off,,,,,4,0,1,,,0,,,69,64
14400,note_on,,,,,15,0,1,,,0,,,78,63
14490,note_off,,,,,90,0,1,,,0,,,78,64
14520,note_on,,,,,30,0,1,,,0,,,71,34
14523,note_on,,,,,3,0,1,,,0,,,59,51
14610,note_off,,,,,87,0,1,,,0,,,71,64
14640,note_on,,,,,30,0,1,,,0,,,69,47
14646,note_on,,,,,6,0,1,,,0,,,63,42
14691,note_off,,,,,45,0,1,,,0,,,59,64
14730,note_off,,,,,39,0,1,,,0,,,69,64
14754,note_off,,,,,24,0,1,,,0,,,63,64
14760,note_on,,,,,6,0,1,,,0,,,68,47
14766,note_on,,,,,6,0,1,,,0,,,64,51
14805,note_off,,,,,39,0,1,,,0,,,68,64
14820,note_on,,,,,15,0,1,,,0,,,71,50
14839,control_change,,,,,19,0,1,,,0,64,64,,
14862,control_change,,,,,23,0,1,,,0,64,96,,
14865,note_off,,,,,3,0,1,,,0,,,71,64
14880,note_on,,,,,15,0,1,,,0,,,69,47
14925,note_off,,,,,45,0,1,,,0,,,69,64
14940,note_on,,,,,15,0,1,,,0,,,68,44
14985,note_off,,,,,45,0,1,,,0,,,68,64
14993,note_on,,,,,8,0,1,,,0,,,56,45
14997,note_off,,,,,4,0,1,,,0,,,64,64
15000,note_on,,,,,3,0,1,,,0,,,66,32
15012,control_change,,,,,12,0,1,,,0,64,127,,
15030,note_off,,,,,18,0,1,,,0,,,56,64
15045,note_off,,,,,15,0,1,,,0,,,66,64
15060,note_on,,,,,15,0,1,,,0,,,64,33
15105,note_off,,,,,45,0,1,,,0,,,64,64
15107,control_change,,,,,2,0,1,,,0,64,96,,
15116,control_change,,,,,9,0,1,,,0,64,64,,
15120,note_on,,,,,4,0,1,,,0,,,64,51
15120,note_on,,,,,0,0,1,,,0,,,73,50
15120,note_on,,,,,0,0,1,,,0,,,57,44
15130,control_change,,,,,10,0,1,,,0,64,0,,
15165,note_off,,,,,35,0,1,,,0,,,73,64
15180,note_on,,,,,15,0,1,,,0,,,73,50
15181,control_change,,,,,1,0,1,,,0,64,64,,
15193,control_change,,,,,12,0,1,,,0,64,96,,
15225,note_off,,,,,32,0,1,,,0,,,73,64
15240,note_on,,,,,15,0,1,,,0,,,71,26
15285,note_off,,,,,45,0,1,,,0,,,71,64
15300,note_on,,,,,15,0,1,,,0,,,69,50
15345,note_off,,,,,45,0,1,,,0,,,69,64
15360,note_on,,,,,15,0,1,,,0,,,68,40
15369,note_off,,,,,9,0,1,,,0,,,64,64
15373,note_on,,,,,4,0,1,,,0,,,54,49
15378,note_off,,,,,5,0,1,,,0,,,57,64
15399,note_off,,,,,21,0,1,,,0,,,54,64
15405,note_off,,,,,6,0,1,,,0,,,68,64
15420,note_on,,,,,15,0,1,,,0,,,66,40
15465,note_off,,,,,45,0,1,,,0,,,66,64
15478,control_change,,,,,13,0,1,,,0,64,0,,
15480,note_on,,,,,2,0,1,,,0,,,71,52
15489,note_on,,,,,0,0,1,,,0,,,64,46
15489,note_on,,,,,9,0,1,,,0,,,56,52
15525,note_off,,,,,36,0,1,,,0,,,71,64
15540,note_on,,,,,15,0,1,,,0,,,71,50
15547,control_change,,,,,7,0,1,,,0,64,64,,
15558,control_change,,,,,11,0,1,,,0,64,96,,
15577,control_change,,,,,19,0,1,,,0,64,127,,
15585,note_off,,,,,8,0,1,,,0,,,71,64
15600,note_on,,,,,15,0,1,,,0,,,69,50
15607,note_off,,,,,7,0,1,,,0,,,56,64
15613,note_off,,,,,6,0,1,,,0,,,64,64
15645,note_off,,,,,32,0,1,,,0,,,69,64
15660,note_on,,,,,15,0,1,,,0,,,68,38
15705,note_off,,,,,45,0,1,,,0,,,68,64
15708,control_change,,,,,3,0,1,,,0,64,96,,
15718,control_change,,,,,10,0,1,,,0,64,64,,
15720,note_on,,,,,2,0,1,,,0,,,66,44
15725,control_change,,,,,5,0,1,,,0,64,0,,
15736,note_on,,,,,11,0,1,,,0,,,52,59
15751,control_change,,,,,15,0,1,,,0,64,64,,
15759,control_change,,,,,8,0,1,,,0,64,96,,
15765,note_off,,,,,6,0,1,,,0,,,66,64
15767,control_change,,,,,2,0,1,,,0,64,127,,
15773,note_off,,,,,6,0,1,,,0,,,52,64
15780,note_on,,,,,7,0,1,,,0,,,64,34
15825,note_off,,,,,45,0,1,,,0,,,64,64
15840,note_on,,,,,15,0,1,,,0,,,73,55
15843,control_change,,,,,3,0,1,,,0,64,96,,
15851,note_on,,,,,8,0,1,,,0,,,57,47
15855,control_change,,,,,4,0,1,,,0,64,0,,
15857,note_on,,,,,2,0,1,,,0,,,64,49
15885,note_off,,,,,28,0,1,,,0,,,73,64
15890,control_change,,,,,5,0,1,,,0,64,64,,
15899,control_change,,,,,9,0,1,,,0,64,96,,
15900,note_on,,,,,1,0,1,,,0,,,73,63
15909,control_change,,,,,9,0,1,,,0,64,127,,
15945,note_off,,,,,36,0,1,,,0,,,73,64
15960,note_off,,,,,15,0,1,,,0,,,64,64
15960,note_on,,,,,0,0,1,,,0,,,71,47
15979,note_off,,,,,19,0,1,,,0,,,57,64
16005,note_off,,,,,26,0,1,,,0,,,71,64
16020,note_on,,,,,15,0,1,,,0,,,69,44
16065,note_off,,,,,45,0,1,,,0,,,69,64
16078,control_change,,,,,13,0,1,,,0,64,96,,
16080,note_on,,,,,2,0,1,,,0,,,68,40
16086,control_change,,,,,6,0,1,,,0,64,0,,
16104,note_on,,,,,18,0,1,,,0,,,54,62
16121,control_change,,,,,17,0,1,,,0,64,64,,
16125,note_off,,,,,4,0,1,,,0,,,68,64
16130,control_change,,,,,5,0,1,,,0,64,96,,
16135,note_off,,,,,5,0,1,,,0,,,54,64
16140,control_change,,,,,5,0,1,,,0,64,127,,
16140,note_on,,,,,0,0,1,,,0,,,66,50
16185,note_off,,,,,45,0,1,,,0,,,66,64
16200,note_on,,,,,15,0,1,,,0,,,76,56
16210,control_change,,,,,10,0,1,,,0,64,96,,
16213,note_on,,,,,3,0,1,,,0,,,56,56
16216,note_on,,,,,3,0,1,,,0,,,64,46
16223,control_change,,,,,7,0,1,,,0,64,0,,
16245,note_off,,,,,22,0,1,,,0,,,76,64
16258,control_change,,,,,13,0,1,,,0,64,64,,
16260,note_on,,,,,2,0,1,,,0,,,76,59
16269,control_change,,,,,9,0,1,,,0,64,96,,
16276,control_change,,,,,7,0,1,,,0,64,127,,
16305,note_off,,,,,29,0,1,,,0,,,76,64
16320,note_on,,,,,15,0,1,,,0,,,75,55
16358,note_off,,,,,38,0,1,,,0,,,56,64
16365,note_off,,,,,7,0,1,,,0,,,75,64
16380,note_on,,,,,15,0,1,,,0,,,73,50
16425,note_off,,,,,45,0,1,,,0,,,73,64
16426,control_change,,,,,1,0,1,,,0,64,96,,
16436,control_change,,,,,10,0,1,,,0,64,64,,
16440,note_on,,,,,4,0,1,,,0,,,71,36
16444,control_change,,,,,4,0,1,,,0,64,0,,
16449,note_on,,,,,0,0,1,,,0,,,57,59
16449,note_off,,,,,5,0,1,,,0,,,64,64
16485,note_off,,,,,36,0,1,,,0,,,71,64
16500,note_on,,,,,15,0,1,,,0,,,69,44
16545,note_off,,,,,45,0,1,,,0,,,69,64
16560,note_on,,,,,15,0,1,,,0,,,68,40
16560,note_on,,,,,0,0,1,,,0,,,59,53
16567,note_off,,,,,7,0,1,,,0,,,57,64
16605,note_off,,,,,38,0,1,,,0,,,68,64
16620,note_on,,,,,15,0,1,,,0,,,69,52
16665,note_off,,,,,45,0,1,,,0,,,69,64
16680,note_on,,,,,15,0,1,,,0,,,71,47
16725,note_off,,,,,45,0,1,,,0,,,71,64
16740,note_on,,,,,15,0,1,,,0,,,64,44
16785,note_off,,,,,45,0,1,,,0,,,64,64
16800,note_on,,,,,15,0,1,,,0,,,66,40
16813,note_on,,,,,0,0,1,,,0,,,47,44
16813,note_off,,,,,13,0,1,,,0,,,59,64
16845,note_off,,,,,32,0,1,,,0,,,66,64
16860,note_on,,,,,15,0,1,,,0,,,63,44
16889,note_off,,,,,29,0,1,,,0,,,47,64
16905,note_off,,,,,16,0,1,,,0,,,63,64
16923,note_on,,,,,18,0,1,,,0,,,40,50
16927,note_on,,,,,4,0,1,,,0,,,64,60
16990,control_change,,,,,63,0,1,,,0,64,64,,
16996,control_change,,,,,6,0,1,,,0,64,96,,
17001,control_change,,,,,5,0,1,,,0,64,127,,
17043,note_off,,,,,42,0,1,,,0,,,64,64
17164,note_on,,,,,121,0,1,,,0,,,76,62
17187,note_off,,,,,23,0,1,,,0,,,40,64
17191,note_off,,,,,4,0,1,,,0,,,76,64
17284,control_change,,,,,93,0,1,,,0,64,96,,
17286,note_on,,,,,0,0,1,,,0,,,76,56
17286,note_on,,,,,2,0,1,,,0,,,40,56
17290,note_on,,,,,4,0,1,,,0,,,77,62
17294,control_change,,,,,4,0,1,,,0,64,0,,
17306,control_change,,,,,12,0,1,,,0,64,64,,
17312,control_change,,,,,6,0,1,,,0,64,127,,
17400,note_off,,,,,88,0,1,,,0,,,77,64
17405,note_off,,,,,5,0,1,,,0,,,76,64
17412,note_on,,,,,7,0,1,,,0,,,74,47
17463,note_off,,,,,51,0,1,,,0,,,74,64
17530,note_on,,,,,67,0,1,,,0,,,76,56
17535,note_on,,,,,5,0,1,,,0,,,72,50
17556,note_off,,,,,21,0,1,,,0,,,72,64
17556,note_off,,,,,0,0,1,,,0,,,40,64
17565,note_off,,,,,9,0,1,,,0,,,76,64
17649,note_on,,,,,0,0,1,,,0,,,40,59
17649,note_on,,,,,84,0,1,,,0,,,72,56
17654,note_on,,,,,5,0,1,,,0,,,74,67
17659,control_change,,,,,5,0,1,,,0,64,64,,
17665,control_change,,,,,6,0,1,,,0,64,0,,
17678,control_change,,,,,13,0,1,,,0,64,64,,
17684,control_change,,,,,6,0,1,,,0,64,127,,
17758,note_off,,,,,74,0,1,,,0,,,74,64
17763,note_off,,,,,5,0,1,,,0,,,72,64
17772,note_on,,,,,9,0,1,,,0,,,71,41
17823,note_off,,,,,51,0,1,,,0,,,71,64
17893,note_on,,,,,70,0,1,,,0,,,72,52
17902,note_on,,,,,9,0,1,,,0,,,69,44
17923,note_off,,,,,0,0,1,,,0,,,40,64
17923,note_off,,,,,21,0,1,,,0,,,69,64
17947,note_off,,,,,24,0,1,,,0,,,72,64
18010,control_change,,,,,63,0,1,,,0,64,96,,
18012,note_on,,,,,2,0,1,,,0,,,69,56
18012,note_on,,,,,0,0,1,,,0,,,71,52
18012,note_on,,,,,0,0,1,,,0,,,40,56
18022,control_change,,,,,10,0,1,,,0,64,0,,
18052,control_change,,,,,30,0,1,,,0,64,64,,
18058,control_change,,,,,6,0,1,,,0,64,127,,
18116,note_off,,,,,58,0,1,,,0,,,71,64
18121,note_off,,,,,5,0,1,,,0,,,69,64
18129,note_on,,,,,8,0,1,,,0,,,67,50
18194,note_off,,,,,65,0,1,,,0,,,67,64
18240,note_on,,,,,0,0,1,,,0,,,65,50
18240,note_on,,,,,46,0,1,,,0,,,69,50
18262,note_off,,,,,22,0,1,,,0,,,40,64
18341,note_off,,,,,79,0,1,,,0,,,65,64
18348,note_off,,,,,7,0,1,,,0,,,69,64
18357,note_on,,,,,9,0,1,,,0,,,40,47
18360,note_on,,,,,3,0,1,,,0,,,64,64
18365,control_change,,,,,5,0,1,,,0,64,64,,
18371,control_change,,,,,6,0,1,,,0,64,0,,
18420,control_change,,,,,49,0,1,,,0,64,64,,
18426,control_change,,,,,6,0,1,,,0,64,127,,
18482,note_off,,,,,56,0,1,,,0,,,64,64
18485,note_on,,,,,3,0,1,,,0,,,68,55
18592,note_off,,,,,107,0,1,,,0,,,68,64
18604,note_on,,,,,12,0,1,,,0,,,64,47
18616,note_off,,,,,12,0,1,,,0,,,40,64
18619,note_off,,,,,3,0,1,,,0,,,64,64
18719,control_change,,,,,100,0,1,,,0,64,96,,
18721,note_on,,,,,0,0,1,,,0,,,65,56
18721,note_on,,,,,0,0,1,,,0,,,64,55
18721,note_on,,,,,2,0,1,,,0,,,40,62
18732,control_change,,,,,11,0,1,,,0,64,0,,
18771,control_change,,,,,39,0,1,,,0,64,64,,
18777,control_change,,,,,6,0,1,,,0,64,127,,
18838,note_off,,,,,61,0,1,,,0,,,65,64
18842,note_off,,,,,4,0,1,,,0,,,64,64
18848,note_on,,,,,6,0,1,,,0,,,62,44
18920,note_off,,,,,72,0,1,,,0,,,62,64
18960,note_on,,,,,40,0,1,,,0,,,64,60
18964,note_on,,,,,4,0,1,,,0,,,60,52
18977,note_off,,,,,13,0,1,,,0,,,40,64
18990,note_off,,,,,13,0,1,,,0,,,60,64
18993,note_off,,,,,3,0,1,,,0,,,64,64
19078,control_change,,,,,85,0,1,,,0,64,64,,
19080,note_on,,,,,2,0,1,,,0,,,40,52
19084,note_on,,,,,0,0,1,,,0,,,60,47
19084,note_on,,,,,4,0,1,,,0,,,62,62
19091,control_change,,,,,7,0,1,,,0,64,0,,
19123,control_change,,,,,32,0,1,,,0,64,64,,
19129,control_change,,,,,6,0,1,,,0,64,127,,
19177,note_off,,,,,48,0,1,,,0,,,62,64
19186,note_off,,,,,9,0,1,,,0,,,60,64
19194,note_on,,,,,8,0,1,,,0,,,59,54
19260,note_off,,,,,66,0,1,,,0,,,59,64
19317,note_on,,,,,57,0,1,,,0,,,57,56
19318,note_on,,,,,1,0,1,,,0,,,60,52
19341,note_off,,,,,23,0,1,,,0,,,40,64
19346,note_off,,,,,5,0,1,,,0,,,57,64
19354,note_off,,,,,8,0,1,,,0,,,60,64
19435,note_on,,,,,81,0,1,,,0,,,59,51
19439,control_change,,,,,4,0,1,,,0,64,64,,
19440,note_on,,,,,1,0,1,,,0,,,57,52
19440,note_on,,,,,0,0,1,,,0,,,40,56
19448,control_change,,,,,8,0,1,,,0,64,0,,
19466,note_off,,,,,18,0,1,,,0,,,57,64
19472,control_change,,,,,6,0,1,,,0,64,64,,
19477,control_change,,,,,5,0,1,,,0,64,127,,
19559,note_off,,,,,82,0,1,,,0,,,59,64
19559,note_on,,,,,0,0,1,,,0,,,56,59
19676,note_off,,,,,117,0,1,,,0,,,56,64
19681,note_on,,,,,5,0,1,,,0,,,53,60
19704,note_off,,,,,23,0,1,,,0,,,40,64
19714,note_off,,,,,10,0,1,,,0,,,53,64
19799,note_on,,,,,85,0,1,,,0,,,52,62
19802,note_on,,,,,3,0,1,,,0,,,40,44
19811,control_change,,,,,9,0,1,,,0,64,64,,
19817,control_change,,,,,6,0,1,,,0,64,0,,
19855,control_change,,,,,38,0,1,,,0,64,64,,
19861,control_change,,,,,6,0,1,,,0,64,127,,
19929,note_on,,,,,68,0,1,,,0,,,56,62
19939,note_off,,,,,10,0,1,,,0,,,52,64
19955,note_off,,,,,16,0,1,,,0,,,40,64
20034,note_off,,,,,79,0,1,,,0,,,56,64
20045,note_on,,,,,11,0,1,,,0,,,64,55
20056,note_off,,,,,11,0,1,,,0,,,64,64
20140,control_change,,,,,84,0,1,,,0,64,64,,
20146,control_change,,,,,6,0,1,,,0,64,0,,
20148,note_on,,,,,2,0,1,,,0,,,65,52
20158,note_on,,,,,10,0,1,,,0,,,50,47
20161,note_on,,,,,3,0,1,,,0,,,57,41
20167,note_on,,,,,6,0,1,,,0,,,67,70
20173,note_off,,,,,6,0,1,,,0,,,65,64
20191,note_on,,,,,18,0,1,,,0,,,65,62
20195,note_off,,,,,4,0,1,,,0,,,67,64
20229,control_change,,,,,34,0,1,,,0,64,64,,
20235,control_change,,,,,6,0,1,,,0,64,127,,
20291,note_off,,,,,56,0,1,,,0,,,65,64
20294,note_on,,,,,3,0,1,,,0,,,64,64
20319,note_off,,,,,25,0,1,,,0,,,57,64
20406,note_off,,,,,87,0,1,,,0,,,64,64
20410,note_on,,,,,4,0,1,,,0,,,69,50
20418,note_on,,,,,8,0,1,,,0,,,65,56
20512,note_off,,,,,94,0,1,,,0,,,50,64
20517,control_change,,,,,5,0,1,,,0,64,64,,
20519,note_off,,,,,2,0,1,,,0,,,69,64
20524,control_change,,,,,5,0,1,,,0,64,0,,
20526,note_off,,,,,2,0,1,,,0,,,65,64
20526,note_on,,,,,0,0,1,,,0,,,59,35
20530,note_on,,,,,4,0,1,,,0,,,52,39
20530,note_on,,,,,0,0,1,,,0,,,64,58
20569,control_change,,,,,39,0,1,,,0,64,64,,
20575,control_change,,,,,6,0,1,,,0,64,127,,
20645,note_on,,,,,70,0,1,,,0,,,68,50
20658,note_off,,,,,13,0,1,,,0,,,64,64
20745,note_off,,,,,0,0,1,,,0,,,59,64
20745,note_off,,,,,87,0,1,,,0,,,68,64
20749,note_on,,,,,4,0,1,,,0,,,76,34
20753,note_off,,,,,4,0,1,,,0,,,52,64
20762,note_off,,,,,9,0,1,,,0,,,76,64
20845,note_on,,,,,83,0,1,,,0,,,77,50
20854,control_change,,,,,9,0,1,,,0,64,64,,
20860,control_change,,,,,6,0,1,,,0,64,0,,
20862,note_on,,,,,2,0,1,,,0,,,57,52
20862,note_on,,,,,0,0,1,,,0,,,50,50
20877,note_off,,,,,15,0,1,,,0,,,77,64
20877,note_on,,,,,0,0,1,,,0,,,79,67
20895,control_change,,,,,18,0,1,,,0,64,64,,
20902,control_change,,,,,7,0,1,,,0,64,127,,
20907,note_on,,,,,5,0,1,,,0,,,77,15
20948,note_off,,,,,41,0,1,,,0,,,79,64
20983,note_off,,,,,35,0,1,,,0,,,77,64
20985,note_on,,,,,2,0,1,,,0,,,76,52
20998,note_off,,,,,13,0,1,,,0,,,76,64
21107,control_change,,,,,109,0,1,,,0,64,96,,
21113,control_change,,,,,6,0,1,,,0,64,0,,
21115,note_on,,,,,2,0,1,,,0,,,69,50
21115,note_on,,,,,0,0,1,,,0,,,77,59
21124,note_off,,,,,9,0,1,,,0,,,57,64
21131,control_change,,,,,7,0,1,,,0,64,64,,
21138,control_change,,,,,7,0,1,,,0,64,96,,
21143,control_change,,,,,5,0,1,,,0,64,127,,
21185,note_off,,,,,42,0,1,,,0,,,50,64
21224,note_off,,,,,39,0,1,,,0,,,77,64
21230,note_on,,,,,6,0,1,,,0,,,59,43
21234,control_change,,,,,4,0,1,,,0,64,96,,
21236,note_on,,,,,2,0,1,,,0,,,52,41
21242,control_change,,,,,6,0,1,,,0,64,0,,
21253,control_change,,,,,11,0,1,,,0,64,64,,
21259,control_change,,,,,6,0,1,,,0,64,96,,
21265,control_change,,,,,6,0,1,,,0,64,127,,
21319,note_off,,,,,54,0,1,,,0,,,69,64
21356,note_on,,,,,37,0,1,,,0,,,76,41
21360,note_on,,,,,4,0,1,,,0,,,68,40
21389,note_off,,,,,29,0,1,,,0,,,76,64
21466,note_off,,,,,77,0,1,,,0,,,59,64
21469,note_off,,,,,3,0,1,,,0,,,68,64
21472,note_off,,,,,3,0,1,,,0,,,52,64
21477,note_on,,,,,5,0,1,,,0,,,64,40
21508,note_off,,,,,31,0,1,,,0,,,64,64
21571,control_change,,,,,63,0,1,,,0,64,96,,
21578,control_change,,,,,7,0,1,,,0,64,0,,
21593,note_on,,,,,15,0,1,,,0,,,50,34
21593,note_on,,,,,0,0,1,,,0,,,57,23
21593,note_on,,,,,0,0,1,,,0,,,65,39
21616,note_off,,,,,23,0,1,,,0,,,65,64
21621,note_on,,,,,5,0,1,,,0,,,67,50
21645,note_off,,,,,24,0,1,,,0,,,67,64
21649,note_on,,,,,4,0,1,,,0,,,65,11
21700,control_change,,,,,51,0,1,,,0,64,64,,
21706,control_change,,,,,6,0,1,,,0,64,96,,
21710,note_off,,,,,4,0,1,,,0,,,65,64
21711,note_on,,,,,1,0,1,,,0,,,64,44
21715,control_change,,,,,4,0,1,,,0,64,127,,
21816,note_off,,,,,101,0,1,,,0,,,64,64
21834,note_on,,,,,18,0,1,,,0,,,69,36
21839,note_on,,,,,5,0,1,,,0,,,65,44
21843,note_off,,,,,4,0,1,,,0,,,57,64
21890,note_off,,,,,47,0,1,,,0,,,50,64
21943,control_change,,,,,53,0,1,,,0,64,96,,
21949,control_change,,,,,6,0,1,,,0,64,64,,
21950,note_off,,,,,1,0,1,,,0,,,69,64
21953,note_off,,,,,3,0,1,,,0,,,65,64
21957,control_change,,,,,4,0,1,,,0,64,0,,
21958,note_on,,,,,0,0,1,,,0,,,59,27
21958,note_on,,,,,1,0,1,,,0,,,52,34
21965,note_on,,,,,7,0,1,,,0,,,64,42
22001,control_change,,,,,36,0,1,,,0,64,64,,
22007,control_change,,,,,6,0,1,,,0,64,127,,
22075,note_on,,,,,68,0,1,,,0,,,68,47
22081,note_off,,,,,6,0,1,,,0,,,64,64
22178,note_off,,,,,97,0,1,,,0,,,68,64
22191,note_on,,,,,13,0,1,,,0,,,76,31
22203,note_off,,,,,12,0,1,,,0,,,76,64
22208,note_off,,,,,5,0,1,,,0,,,59,64
22215,note_off,,,,,7,0,1,,,0,,,52,64
22302,control_change,,,,,87,0,1,,,0,64,96,,
22304,note_on,,,,,2,0,1,,,0,,,77,47
22310,control_change,,,,,6,0,1,,,0,64,0,,
22312,note_on,,,,,0,0,1,,,0,,,50,36
22312,note_on,,,,,2,0,1,,,0,,,57,47
22331,note_on,,,,,19,0,1,,,0,,,79,59
22336,note_off,,,,,5,0,1,,,0,,,77,64
22341,control_change,,,,,5,0,1,,,0,64,64,,
22348,control_change,,,,,7,0,1,,,0,64,127,,
22350,note_on,,,,,2,0,1,,,0,,,77,34
22354,note_off,,,,,4,0,1,,,0,,,79,64
22427,note_off,,,,,73,0,1,,,0,,,77,64
22430,note_on,,,,,3,0,1,,,0,,,76,52
22444,note_off,,,,,14,0,1,,,0,,,76,64
22554,control_change,,,,,110,0,1,,,0,64,96,,
22558,note_on,,,,,0,0,1,,,0,,,77,59
22558,note_on,,,,,4,0,1,,,0,,,69,47
22565,control_change,,,,,7,0,1,,,0,64,64,,
22567,note_off,,,,,2,0,1,,,0,,,57,64
22573,control_change,,,,,6,0,1,,,0,64,0,,
22581,control_change,,,,,8,0,1,,,0,64,64,,
22587,control_change,,,,,6,0,1,,,0,64,96,,
22594,control_change,,,,,7,0,1,,,0,64,127,,
22645,note_off,,,,,51,0,1,,,0,,,50,64
22652,note_off,,,,,7,0,1,,,0,,,77,64
22680,note_on,,,,,28,0,1,,,0,,,59,40
22685,control_change,,,,,5,0,1,,,0,64,96,,
22686,note_on,,,,,1,0,1,,,0,,,52,36
22693,control_change,,,,,7,0,1,,,0,64,64,,
22709,control_change,,,,,16,0,1,,,0,64,96,,
22715,control_change,,,,,6,0,1,,,0,64,127,,
22721,note_off,,,,,6,0,1,,,0,,,69,64
22801,note_on,,,,,80,0,1,,,0,,,76,56
22812,note_on,,,,,11,0,1,,,0,,,68,29
22823,note_off,,,,,11,0,1,,,0,,,52,64
22836,note_off,,,,,13,0,1,,,0,,,59,64
22839,note_off,,,,,3,0,1,,,0,,,76,64
22914,note_off,,,,,75,0,1,,,0,,,68,64
22923,note_on,,,,,9,0,1,,,0,,,64,47
22992,note_off,,,,,69,0,1,,,0,,,64,64
23009,control_change,,,,,17,0,1,,,0,64,96,,
23015,control_change,,,,,6,0,1,,,0,64,64,,
23021,control_change,,,,,6,0,1,,,0,64,0,,
23032,note_on,,,,,11,0,1,,,0,,,67,62
23039,note_on,,,,,7,0,1,,,0,,,59,29
23039,note_on,,,,,0,0,1,,,0,,,50,39
23043,note_on,,,,,4,0,1,,,0,,,57,34
23113,control_change,,,,,70,0,1,,,0,64,64,,
23119,control_change,,,,,6,0,1,,,0,64,96,,
23125,control_change,,,,,6,0,1,,,0,64,127,,
23155,note_on,,,,,30,0,1,,,0,,,65,36
23162,note_off,,,,,7,0,1,,,0,,,67,64
23247,note_off,,,,,85,0,1,,,0,,,50,64
23270,note_off,,,,,23,0,1,,,0,,,65,64
23281,note_on,,,,,11,0,1,,,0,,,64,52
23291,note_off,,,,,10,0,1,,,0,,,57,64
23294,note_off,,,,,3,0,1,,,0,,,59,64
23297,note_off,,,,,3,0,1,,,0,,,64,64
23391,control_change,,,,,94,0,1,,,0,64,64,,
23395,note_on,,,,,4,0,1,,,0,,,74,67
23399,control_change,,,,,4,0,1,,,0,64,0,,
23401,note_on,,,,,2,0,1,,,0,,,65,56
23406,note_on,,,,,0,0,1,,,0,,,50,26
23406,note_on,,,,,5,0,1,,,0,,,59,18
23413,note_on,,,,,7,0,1,,,0,,,57,21
23438,control_change,,,,,25,0,1,,,0,64,64,,
23444,control_change,,,,,6,0,1,,,0,64,127,,
23520,note_on,,,,,76,0,1,,,0,,,72,62
23532,note_off,,,,,12,0,1,,,0,,,65,64
23542,note_off,,,,,10,0,1,,,0,,,74,64
23600,note_off,,,,,58,0,1,,,0,,,50,64
23638,note_on,,,,,38,0,1,,,0,,,71,56
23643,note_off,,,,,5,0,1,,,0,,,72,64
23646,note_off,,,,,3,0,1,,,0,,,57,64
23646,note_off,,,,,0,0,1,,,0,,,59,64
23653,note_off,,,,,7,0,1,,,0,,,71,64
23750,control_change,,,,,97,0,1,,,0,64,96,,
23756,control_change,,,,,6,0,1,,,0,64,0,,
23762,note_on,,,,,6,0,1,,,0,,,79,70
23766,note_on,,,,,0,0,1,,,0,,,69,44
23766,note_on,,,,,4,0,1,,,0,,,59,19
23772,note_on,,,,,6,0,1,,,0,,,57,21
23772,note_on,,,,,0,0,1,,,0,,,50,29
23794,control_change,,,,,22,0,1,,,0,64,64,,
23800,control_change,,,,,6,0,1,,,0,64,127,,
23890,note_on,,,,,90,0,1,,,0,,,77,62
23904,note_off,,,,,14,0,1,,,0,,,69,64
23909,note_off,,,,,5,0,1,,,0,,,79,64
23953,note_off,,,,,44,0,1,,,0,,,50,64
23996,note_off,,,,,43,0,1,,,0,,,57,64
23996,note_off,,,,,0,0,1,,,0,,,59,64
23996,note_on,,,,,0,0,1,,,0,,,76,59
24009,note_off,,,,,13,0,1,,,0,,,77,64
24012,note_off,,,,,3,0,1,,,0,,,76,64
24120,control_change,,,,,108,0,1,,,0,64,96,,
24122,note_on,,,,,2,0,1,,,0,,,84,70
24126,note_on,,,,,4,0,1,,,0,,,74,39
24131,control_change,,,,,5,0,1,,,0,64,0,,
24133,note_on,,,,,2,0,1,,,0,,,59,22
24137,note_on,,,,,0,0,1,,,0,,,50,20
24137,note_on,,,,,4,0,1,,,0,,,57,20
24161,control_change,,,,,24,0,1,,,0,64,64,,
24167,control_change,,,,,6,0,1,,,0,64,127,,
24253,note_on,,,,,86,0,1,,,0,,,82,63
24265,note_off,,,,,12,0,1,,,0,,,84,64
24290,note_off,,,,,25,0,1,,,0,,,74,64
24327,note_off,,,,,37,0,1,,,0,,,57,64
24330,note_off,,,,,3,0,1,,,0,,,50,64
24330,note_off,,,,,0,0,1,,,0,,,59,64
24355,note_off,,,,,25,0,1,,,0,,,82,64
24361,note_on,,,,,6,0,1,,,0,,,80,55
24468,control_change,,,,,107,0,1,,,0,64,96,,
24474,control_change,,,,,6,0,1,,,0,64,0,,
24476,note_off,,,,,2,0,1,,,0,,,80,64
24479,note_on,,,,,3,0,1,,,0,,,57,18
24479,note_on,,,,,0,0,1,,,0,,,48,26
24484,note_on,,,,,5,0,1,,,0,,,81,62
24523,control_change,,,,,39,0,1,,,0,64,64,,
24529,control_change,,,,,6,0,1,,,0,64,127,,
24583,note_off,,,,,54,0,1,,,0,,,48,64
24603,note_off,,,,,20,0,1,,,0,,,57,64
24608,note_on,,,,,5,0,1,,,0,,,76,50
24612,note_off,,,,,4,0,1,,,0,,,81,64
24687,control_change,,,,,75,0,1,,,0,64,96,,
24694,control_change,,,,,7,0,1,,,0,64,0,,
24709,note_off,,,,,15,0,1,,,0,,,76,64
24712,note_on,,,,,3,0,1,,,0,,,74,50
24716,note_on,,,,,4,0,1,,,0,,,50,39
24719,note_on,,,,,3,0,1,,,0,,,59,24
24727,control_change,,,,,8,0,1,,,0,64,96,,
24732,control_change,,,,,5,0,1,,,0,64,127,,
24741,note_off,,,,,0,0,1,,,0,,,50,64
24741,note_off,,,,,9,0,1,,,0,,,59,64
24816,control_change,,,,,75,0,1,,,0,64,96,,
24822,control_change,,,,,6,0,1,,,0,64,64,,
24828,control_change,,,,,6,0,1,,,0,64,0,,
24830,note_off,,,,,2,0,1,,,0,,,74,64
24830,note_on,,,,,0,0,1,,,0,,,60,34
24834,note_on,,,,,4,0,1,,,0,,,52,31
24838,note_on,,,,,4,0,1,,,0,,,72,52
24840,note_off,,,,,2,0,1,,,0,,,72,64
24840,note_off,,,,,0,0,1,,,0,,,52,64
24840,note_off,,,,,0,0,1,,,0,,,60,64
24847,note_on,,,,,7,0,1,,,0,,,72,47
24847,note_on,,,,,0,0,1,,,0,,,60,23
24854,note_on,,,,,7,0,1,,,0,,,52,26
24858,note_on,,,,,4,0,1,,,0,,,57,21
24957,note_off,,,,,99,0,1,,,0,,,72,64
24970,note_on,,,,,13,0,1,,,0,,,71,56
25018,note_off,,,,,48,0,1,,,0,,,52,64
25031,note_off,,,,,13,0,1,,,0,,,60,64
25032,note_on,,,,,1,0,1,,,0,,,69,47
25036,note_off,,,,,4,0,1,,,0,,,57,64
25045,note_off,,,,,9,0,1,,,0,,,71,64
25087,note_off,,,,,42,0,1,,,0,,,69,64
25090,note_on,,,,,0,0,1,,,0,,,71,50
25090,note_on,,,,,0,0,1,,,0,,,59,33
25090,note_on,,,,,3,0,1,,,0,,,52,50
25107,note_off,,,,,17,0,1,,,0,,,59,64
25116,note_off,,,,,9,0,1,,,0,,,52,64
25135,note_on,,,,,19,0,1,,,0,,,68,55
25144,note_off,,,,,9,0,1,,,0,,,71,64
25157,note_off,,,,,13,0,1,,,0,,,68,64
25190,note_on,,,,,33,0,1,,,0,,,57,50
25199,note_on,,,,,9,0,1,,,0,,,68,63
25299,note_on,,,,,100,0,1,,,0,,,45,1
25317,note_on,,,,,18,0,1,,,0,,,69,50
25320,note_off,,,,,3,0,1,,,0,,,68,64
25376,control_change,,,,,56,0,1,,,0,64,64,,
25429,note_off,,,,,53,0,1,,,0,,,45,64
25432,note_off,,,,,3,0,1,,,0,,,69,64
25443,note_on,,,,,11,0,1,,,0,,,64,47
25446,note_off,,,,,3,0,1,,,0,,,57,64
25542,control_change,,,,,96,0,1,,,0,64,0,,
25544,note_off,,,,,2,0,1,,,0,,,64,64
25551,note_on,,,,,7,0,1,,,0,,,67,56
25556,note_on,,,,,5,0,1,,,0,,,59,33
25562,note_on,,,,,6,0,1,,,0,,,57,29
25565,note_on,,,,,3,0,1,,,0,,,50,32
25686,note_on,,,,,121,0,1,,,0,,,65,36
25696,note_off,,,,,10,0,1,,,0,,,67,64
25726,control_change,,,,,30,0,1,,,0,64,64,,
25745,control_change,,,,,19,0,1,,,0,64,96,,
25787,note_off,,,,,42,0,1,,,0,,,65,64
25802,control_change,,,,,15,0,1,,,0,64,127,,
25806,note_on,,,,,4,0,1,,,0,,,64,47
25810,note_off,,,,,4,0,1,,,0,,,50,64
25821,note_off,,,,,11,0,1,,,0,,,57,64
25824,note_off,,,,,3,0,1,,,0,,,64,64
25827,note_off,,,,,3,0,1,,,0,,,59,64
25910,control_change,,,,,83,0,1,,,0,64,96,,
25919,control_change,,,,,9,0,1,,,0,64,64,,
25922,note_on,,,,,3,0,1,,,0,,,74,70
25925,note_on,,,,,3,0,1,,,0,,,65,47
25926,note_on,,,,,1,0,1,,,0,,,59,35
25930,control_change,,,,,4,0,1,,,0,64,0,,
25933,note_on,,,,,3,0,1,,,0,,,57,29
25933,note_on,,,,,0,0,1,,,0,,,50,31
25980,control_change,,,,,47,0,1,,,0,64,64,,
25990,control_change,,,,,10,0,1,,,0,64,96,,
26014,control_change,,,,,24,0,1,,,0,64,127,,
26045,note_on,,,,,31,0,1,,,0,,,72,52
26052,note_off,,,,,7,0,1,,,0,,,65,64
26070,note_off,,,,,18,0,1,,,0,,,74,64
26130,note_off,,,,,60,0,1,,,0,,,50,64
26156,note_on,,,,,26,0,1,,,0,,,71,56
26160,note_off,,,,,4,0,1,,,0,,,72,64
26166,note_off,,,,,6,0,1,,,0,,,57,64
26171,note_off,,,,,5,0,1,,,0,,,59,64
26173,note_off,,,,,2,0,1,,,0,,,71,64
26268,control_change,,,,,95,0,1,,,0,64,96,,
26274,control_change,,,,,6,0,1,,,0,64,64,,
26278,note_on,,,,,4,0,1,,,0,,,79,67
26278,note_on,,,,,0,0,1,,,0,,,59,25
26285,control_change,,,,,7,0,1,,,0,64,0,,
26287,note_on,,,,,2,0,1,,,0,,,50,32
26287,note_on,,,,,0,0,1,,,0,,,57,26
26287,note_on,,,,,0,0,1,,,0,,,69,41
26395,control_change,,,,,108,0,1,,,0,64,64,,
26401,control_change,,,,,6,0,1,,,0,64,96,,
26403,note_on,,,,,2,0,1,,,0,,,77,59
26414,control_change,,,,,11,0,1,,,0,64,127,,
26457,note_off,,,,,43,0,1,,,0,,,79,64
26486,note_off,,,,,29,0,1,,,0,,,69,64
26499,note_off,,,,,13,0,1,,,0,,,50,64
26510,note_on,,,,,11,0,1,,,0,,,76,50
26519,note_off,,,,,0,0,1,,,0,,,77,64
26519,note_off,,,,,9,0,1,,,0,,,76,64
26523,note_off,,,,,4,0,1,,,0,,,57,64
26523,note_off,,,,,0,0,1,,,0,,,59,64
26628,control_change,,,,,105,0,1,,,0,64,96,,
26632,note_on,,,,,4,0,1,,,0,,,84,70
26636,control_change,,,,,4,0,1,,,0,64,64,,
26643,control_change,,,,,7,0,1,,,0,64,0,,
26644,note_on,,,,,1,0,1,,,0,,,74,34
26644,note_on,,,,,0,0,1,,,0,,,59,24
26644,note_on,,,,,0,0,1,,,0,,,50,39
26651,note_on,,,,,7,0,1,,,0,,,57,25
26672,control_change,,,,,21,0,1,,,0,64,64,,
26679,control_change,,,,,7,0,1,,,0,64,127,,
26755,note_on,,,,,76,0,1,,,0,,,82,68
26769,note_off,,,,,14,0,1,,,0,,,84,64
26785,note_off,,,,,16,0,1,,,0,,,74,64
26846,note_off,,,,,61,0,1,,,0,,,50,64
26848,note_off,,,,,2,0,1,,,0,,,57,64
26854,note_off,,,,,6,0,1,,,0,,,59,64
26865,note_off,,,,,11,0,1,,,0,,,82,64
26871,note_on,,,,,6,0,1,,,0,,,80,58
26975,control_change,,,,,104,0,1,,,0,64,96,,
26980,control_change,,,,,5,0,1,,,0,64,64,,
26987,control_change,,,,,7,0,1,,,0,64,0,,
26988,note_off,,,,,1,0,1,,,0,,,80,64
26993,note_on,,,,,5,0,1,,,0,,,57,23
26997,note_on,,,,,4,0,1,,,0,,,81,70
26997,note_on,,,,,0,0,1,,,0,,,48,34
27037,control_change,,,,,40,0,1,,,0,64,64,,
27044,control_change,,,,,7,0,1,,,0,64,96,,
27050,control_change,,,,,6,0,1,,,0,64,127,,
27107,note_off,,,,,57,0,1,,,0,,,48,64
27118,note_on,,,,,11,0,1,,,0,,,76,62
27125,note_off,,,,,7,0,1,,,0,,,57,64
27130,note_off,,,,,5,0,1,,,0,,,81,64
27196,control_change,,,,,66,0,1,,,0,64,96,,
27201,control_change,,,,,5,0,1,,,0,64,64,,
27208,control_change,,,,,7,0,1,,,0,64,0,,
27223,control_change,,,,,15,0,1,,,0,64,64,,
27227,note_on,,,,,4,0,1,,,0,,,59,43
27227,note_on,,,,,0,0,1,,,0,,,74,59
27233,note_on,,,,,0,0,1,,,0,,,50,36
27233,note_off,,,,,6,0,1,,,0,,,76,64
27240,control_change,,,,,7,0,1,,,0,64,127,,
27242,note_off,,,,,2,0,1,,,0,,,50,64
27244,note_off,,,,,2,0,1,,,0,,,59,64
27318,control_change,,,,,74,0,1,,,0,64,96,,
27324,control_change,,,,,6,0,1,,,0,64,64,,
27330,control_change,,,,,6,0,1,,,0,64,0,,
27341,note_off,,,,,11,0,1,,,0,,,74,64
27341,note_on,,,,,0,0,1,,,0,,,60,44
27349,note_on,,,,,8,0,1,,,0,,,52,31
27352,note_on,,,,,3,0,1,,,0,,,72,52
27377,control_change,,,,,25,0,1,,,0,64,64,,
27384,control_change,,,,,7,0,1,,,0,64,96,,
27389,control_change,,,,,5,0,1,,,0,64,127,,
27477,note_on,,,,,88,0,1,,,0,,,71,59
27491,note_off,,,,,14,0,1,,,0,,,72,64
27513,note_off,,,,,22,0,1,,,0,,,52,64
27539,note_on,,,,,26,0,1,,,0,,,69,62
27543,note_off,,,,,4,0,1,,,0,,,71,64
27551,note_off,,,,,8,0,1,,,0,,,60,64
27590,note_on,,,,,39,0,1,,,0,,,60,9
27596,note_off,,,,,6,0,1,,,0,,,69,64
27596,note_on,,,,,0,0,1,,,0,,,52,36
27600,note_on,,,,,4,0,1,,,0,,,71,56
27604,note_off,,,,,4,0,1,,,0,,,60,64
27613,note_off,,,,,9,0,1,,,0,,,52,64
27651,note_off,,,,,38,0,1,,,0,,,71,64
27654,control_change,,,,,3,0,1,,,0,64,96,,
27656,note_on,,,,,2,0,1,,,0,,,68,50
27671,control_change,,,,,15,0,1,,,0,64,64,,
27681,control_change,,,,,10,0,1,,,0,64,0,,
27710,note_off,,,,,29,0,1,,,0,,,68,64
27725,note_on,,,,,15,0,1,,,0,,,69,44
27729,note_on,,,,,4,0,1,,,0,,,45,34
27790,control_change,,,,,61,0,1,,,0,64,64,,
27800,control_change,,,,,10,0,1,,,0,64,96,,
27814,control_change,,,,,14,0,1,,,0,64,127,,
27846,note_on,,,,,32,0,1,,,0,,,73,40
27850,note_off,,,,,4,0,1,,,0,,,45,64
27854,note_off,,,,,4,0,1,,,0,,,69,64
27860,note_on,,,,,6,0,1,,,0,,,57,18
27886,note_off,,,,,26,0,1,,,0,,,57,64
27953,note_off,,,,,67,0,1,,,0,,,73,64
27964,note_on,,,,,11,0,1,,,0,,,76,39
27970,note_on,,,,,6,0,1,,,0,,,61,17
27979,note_off,,,,,9,0,1,,,0,,,61,64
28060,note_off,,,,,81,0,1,,,0,,,76,64
28073,control_change,,,,,13,0,1,,,0,64,96,,
28079,control_change,,,,,6,0,1,,,0,64,64,,
28085,control_change,,,,,6,0,1,,,0,64,0,,
28087,note_on,,,,,2,0,1,,,0,,,64,34
28091,note_on,,,,,4,0,1,,,0,,,40,31
28155,control_change,,,,,64,0,1,,,0,64,64,,
28161,control_change,,,,,6,0,1,,,0,64,96,,
28167,control_change,,,,,6,0,1,,,0,64,127,,
28206,note_off,,,,,39,0,1,,,0,,,64,64
28210,note_on,,,,,4,0,1,,,0,,,74,50
28229,note_off,,,,,19,0,1,,,0,,,40,64
28257,note_on,,,,,28,0,1,,,0,,,73,58
28278,note_off,,,,,21,0,1,,,0,,,74,64
28322,note_on,,,,,44,0,1,,,0,,,71,56
28328,note_off,,,,,6,0,1,,,0,,,73,64
28374,note_on,,,,,46,0,1,,,0,,,74,59
28378,note_off,,,,,4,0,1,,,0,,,71,64
28417,control_change,,,,,39,0,1,,,0,64,96,,
28423,control_change,,,,,6,0,1,,,0,64,64,,
28429,control_change,,,,,6,0,1,,,0,64,0,,
28438,note_on,,,,,9,0,1,,,0,,,73,55
28444,note_on,,,,,6,0,1,,,0,,,45,41
28449,note_off,,,,,5,0,1,,,0,,,74,64
28502,note_on,,,,,53,0,1,,,0,,,69,47
28507,note_off,,,,,5,0,1,,,0,,,73,64
28554,note_off,,,,,47,0,1,,,0,,,69,64
28559,note_on,,,,,0,0,1,,,0,,,74,59
28559,note_off,,,,,5,0,1,,,0,,,45,64
28569,note_on,,,,,10,0,1,,,0,,,57,44
28613,note_on,,,,,44,0,1,,,0,,,71,67
28620,note_off,,,,,7,0,1,,,0,,,74,64
28634,note_off,,,,,14,0,1,,,0,,,57,64
28683,note_off,,,,,49,0,1,,,0,,,71,64
28683,note_on,,,,,0,0,1,,,0,,,76,59
28688,note_on,,,,,5,0,1,,,0,,,61,28
28699,note_off,,,,,11,0,1,,,0,,,61,64
28817,note_on,,,,,118,0,1,,,0,,,64,31
28825,note_on,,,,,8,0,1,,,0,,,40,36
28836,control_change,,,,,11,0,1,,,0,64,64,,
28842,control_change,,,,,6,0,1,,,0,64,96,,
28843,note_off,,,,,1,0,1,,,0,,,76,64
28848,control_change,,,,,5,0,1,,,0,64,127,,
28921,note_off,,,,,73,0,1,,,0,,,64,64
28928,note_on,,,,,7,0,1,,,0,,,74,50
28948,note_off,,,,,20,0,1,,,0,,,40,64
28982,note_on,,,,,34,0,1,,,0,,,73,58
28994,note_off,,,,,12,0,1,,,0,,,74,64
29044,note_on,,,,,50,0,1,,,0,,,71,47
29050,note_off,,,,,6,0,1,,,0,,,73,64
29092,note_off,,,,,42,0,1,,,0,,,71,64
29094,note_on,,,,,2,0,1,,,0,,,74,47
29120,control_change,,,,,26,0,1,,,0,64,96,,
29125,control_change,,,,,5,0,1,,,0,64,64,,
29131,control_change,,,,,6,0,1,,,0,64,0,,
29153,note_on,,,,,22,0,1,,,0,,,45,34
29156,note_on,,,,,3,0,1,,,0,,,73,58
29167,note_off,,,,,11,0,1,,,0,,,74,64
29222,note_off,,,,,55,0,1,,,0,,,73,64
29222,note_on,,,,,0,0,1,,,0,,,69,29
29274,note_off,,,,,52,0,1,,,0,,,69,64
29274,note_off,,,,,0,0,1,,,0,,,45,64
29274,note_on,,,,,0,0,1,,,0,,,74,56
29287,note_on,,,,,13,0,1,,,0,,,57,34
29329,note_on,,,,,42,0,1,,,0,,,71,52
29335,note_off,,,,,6,0,1,,,0,,,74,64
29349,note_off,,,,,14,0,1,,,0,,,57,64
29391,note_on,,,,,42,0,1,,,0,,,61,48
29396,note_on,,,,,5,0,1,,,0,,,76,59
29400,note_off,,,,,0,0,1,,,0,,,71,64
29400,note_off,,,,,4,0,1,,,0,,,61,64
29521,note_on,,,,,121,0,1,,,0,,,64,34
29531,note_on,,,,,10,0,1,,,0,,,40,34
29534,note_off,,,,,3,0,1,,,0,,,76,64
29541,control_change,,,,,7,0,1,,,0,64,64,,
29550,control_change,,,,,9,0,1,,,0,64,96,,
29560,control_change,,,,,10,0,1,,,0,64,127,,
29633,note_on,,,,,73,0,1,,,0,,,74,50
29637,note_off,,,,,4,0,1,,,0,,,64,64
29664,note_off,,,,,27,0,1,,,0,,,40,64
29692,note_on,,,,,28,0,1,,,0,,,73,55
29713,note_off,,,,,21,0,1,,,0,,,74,64
29758,note_on,,,,,45,0,1,,,0,,,71,47
29768,note_off,,,,,10,0,1,,,0,,,73,64
29818,note_on,,,,,50,0,1,,,0,,,74,47
29822,note_off,,,,,4,0,1,,,0,,,71,64
29847,control_change,,,,,25,0,1,,,0,64,96,,
29852,control_change,,,,,5,0,1,,,0,64,64,,
29858,control_change,,,,,6,0,1,,,0,64,0,,
29877,note_on,,,,,0,0,1,,,0,,,73,47
29877,note_on,,,,,19,0,1,,,0,,,45,36
29891,note_off,,,,,14,0,1,,,0,,,74,64
29937,control_change,,,,,46,0,1,,,0,64,64,,
29939,note_off,,,,,2,0,1,,,0,,,73,64
29944,note_on,,,,,5,0,1,,,0,,,69,59
29955,control_change,,,,,11,0,1,,,0,64,96,,
29996,note_on,,,,,41,0,1,,,0,,,57,32
30000,note_on,,,,,4,0,1,,,0,,,73,63
30015,note_off,,,,,15,0,1,,,0,,,69,64
30052,note_on,,,,,37,0,1,,,0,,,76,70
30067,note_off,,,,,15,0,1,,,0,,,73,64
30095,note_off,,,,,28,0,1,,,0,,,45,64
30100,control_change,,,,,5,0,1,,,0,64,64,,
30109,note_off,,,,,9,0,1,,,0,,,76,64
30113,note_on,,,,,4,0,1,,,0,,,81,62
30118,control_change,,,,,5,0,1,,,0,64,0,,
30120,note_off,,,,,2,0,1,,,0,,,57,64
30120,note_on,,,,,0,0,1,,,0,,,49,47
30173,note_on,,,,,53,0,1,,,0,,,78,63
30189,note_off,,,,,16,0,1,,,0,,,81,64
30230,note_on,,,,,41,0,1,,,0,,,76,67
30238,note_on,,,,,8,0,1,,,0,,,50,39
30246,note_off,,,,,8,0,1,,,0,,,78,64
30253,note_off,,,,,7,0,1,,,0,,,49,64
30290,note_off,,,,,37,0,1,,,0,,,76,64
30292,note_on,,,,,2,0,1,,,0,,,74,50
30351,note_on,,,,,59,0,1,,,0,,,73,63
30359,note_off,,,,,8,0,1,,,0,,,50,64
30361,note_on,,,,,2,0,1,,,0,,,52,32
30367,note_off,,,,,6,0,1,,,0,,,74,64
30416,note_on,,,,,49,0,1,,,0,,,71,52
30427,note_off,,,,,11,0,1,,,0,,,73,64
30435,note_off,,,,,8,0,1,,,0,,,52,64
30463,note_off,,,,,28,0,1,,,0,,,71,64
30474,note_on,,,,,11,0,1,,,0,,,69,44
30479,note_on,,,,,5,0,1,,,0,,,40,36
30491,note_off,,,,,12,0,1,,,0,,,40,64
30525,note_off,,,,,34,0,1,,,0,,,69,64
30531,note_on,,,,,6,0,1,,,0,,,68,40
30580,note_off,,,,,49,0,1,,,0,,,68,64
30600,note_on,,,,,20,0,1,,,0,,,69,13
30606,note_on,,,,,6,0,1,,,0,,,45,15
30707,control_change,,,,,101,0,1,,,0,64,64,,
30719,note_on,,,,,12,0,1,,,0,,,73,24
30723,control_change,,,,,4,0,1,,,0,64,96,,
30736,note_off,,,,,13,0,1,,,0,,,45,64
30738,control_change,,,,,2,0,1,,,0,64,127,,
30739,note_on,,,,,1,0,1,,,0,,,57,7
30753,note_off,,,,,14,0,1,,,0,,,69,64
30778,note_off,,,,,25,0,1,,,0,,,57,64
30827,note_off,,,,,49,0,1,,,0,,,73,64
30844,note_on,,,,,17,0,1,,,0,,,76,21
30848,note_on,,,,,4,0,1,,,0,,,61,15
30854,note_off,,,,,6,0,1,,,0,,,61,64
30943,note_off,,,,,89,0,1,,,0,,,76,64
30963,control_change,,,,,20,0,1,,,0,64,96,,
30969,control_change,,,,,6,0,1,,,0,64,64,,
30970,note_on,,,,,1,0,1,,,0,,,64,20
30976,control_change,,,,,6,0,1,,,0,64,0,,
30980,note_on,,,,,4,0,1,,,0,,,40,19
31032,control_change,,,,,52,0,1,,,0,64,64,,
31037,control_change,,,,,5,0,1,,,0,64,96,,
31047,control_change,,,,,10,0,1,,,0,64,127,,
31089,note_on,,,,,42,0,1,,,0,,,74,24
31093,note_off,,,,,4,0,1,,,0,,,64,64
31100,note_off,,,,,7,0,1,,,0,,,40,64
31138,note_on,,,,,38,0,1,,,0,,,73,30
31147,note_off,,,,,9,0,1,,,0,,,74,64
31202,note_off,,,,,55,0,1,,,0,,,73,64
31203,note_on,,,,,1,0,1,,,0,,,71,26
31255,note_off,,,,,52,0,1,,,0,,,71,64
31255,note_on,,,,,0,0,1,,,0,,,74,30
31280,control_change,,,,,25,0,1,,,0,64,96,,
31287,control_change,,,,,7,0,1,,,0,64,64,,
31293,control_change,,,,,6,0,1,,,0,64,0,,
31315,note_on,,,,,0,0,1,,,0,,,73,33
31315,note_on,,,,,22,0,1,,,0,,,45,21
31327,note_off,,,,,12,0,1,,,0,,,74,64
31376,note_on,,,,,49,0,1,,,0,,,69,24
31382,note_off,,,,,6,0,1,,,0,,,73,64
31431,note_off,,,,,49,0,1,,,0,,,45,64
31434,note_on,,,,,3,0,1,,,0,,,74,33
31438,note_off,,,,,4,0,1,,,0,,,69,64
31447,note_on,,,,,9,0,1,,,0,,,57,15
31484,note_on,,,,,37,0,1,,,0,,,71,33
31490,note_off,,,,,6,0,1,,,0,,,74,64
31503,note_off,,,,,13,0,1,,,0,,,57,64
31548,note_off,,,,,45,0,1,,,0,,,71,64
31551,note_on,,,,,3,0,1,,,0,,,76,35
31555,note_on,,,,,4,0,1,,,0,,,61,26
31564,note_off,,,,,9,0,1,,,0,,,61,64
31676,note_on,,,,,112,0,1,,,0,,,64,19
31684,note_off,,,,,8,0,1,,,0,,,76,64
31688,note_on,,,,,4,0,1,,,0,,,40,19
31709,control_change,,,,,21,0,1,,,0,64,64,,
31718,control_change,,,,,9,0,1,,,0,64,96,,
31736,control_change,,,,,18,0,1,,,0,64,127,,
31792,note_on,,,,,56,0,1,,,0,,,74,31
31796,note_off,,,,,4,0,1,,,0,,,64,64
31833,note_off,,,,,37,0,1,,,0,,,40,64
31847,note_on,,,,,14,0,1,,,0,,,73,34
31864,note_off,,,,,17,0,1,,,0,,,74,64
31910,note_on,,,,,46,0,1,,,0,,,71,30
31915,note_off,,,,,5,0,1,,,0,,,73,64
31966,note_on,,,,,51,0,1,,,0,,,74,30
31971,note_off,,,,,5,0,1,,,0,,,71,64
31993,control_change,,,,,22,0,1,,,0,64,96,,
31998,control_change,,,,,5,0,1,,,0,64,64,,
32009,control_change,,,,,11,0,1,,,0,64,0,,
32024,note_on,,,,,15,0,1,,,0,,,45,23
32024,note_on,,,,,0,0,1,,,0,,,73,26
32042,note_off,,,,,18,0,1,,,0,,,74,64
32069,control_change,,,,,27,0,1,,,0,64,64,,
32074,control_change,,,,,5,0,1,,,0,64,96,,
32088,control_change,,,,,14,0,1,,,0,64,127,,
32090,note_on,,,,,2,0,1,,,0,,,69,28
32096,note_off,,,,,6,0,1,,,0,,,73,64
32107,control_change,,,,,11,0,1,,,0,64,96,,
32113,control_change,,,,,6,0,1,,,0,64,64,,
32119,control_change,,,,,6,0,1,,,0,64,0,,
32141,note_off,,,,,22,0,1,,,0,,,69,64
32143,note_on,,,,,2,0,1,,,0,,,74,35
32154,note_off,,,,,11,0,1,,,0,,,45,64
32163,control_change,,,,,9,0,1,,,0,64,64,,
32167,note_on,,,,,4,0,1,,,0,,,57,20
32174,control_change,,,,,7,0,1,,,0,64,96,,
32198,note_on,,,,,24,0,1,,,0,,,71,37
32207,note_off,,,,,9,0,1,,,0,,,74,64
32212,control_change,,,,,5,0,1,,,0,64,64,,
32223,control_change,,,,,11,0,1,,,0,64,0,,
32260,note_on,,,,,37,0,1,,,0,,,76,37
32265,note_off,,,,,5,0,1,,,0,,,71,64
32265,note_off,,,,,0,0,1,,,0,,,57,64
32268,control_change,,,,,3,0,1,,,0,64,64,,
32270,note_on,,,,,2,0,1,,,0,,,61,23
32276,control_change,,,,,6,0,1,,,0,64,96,,
32278,note_off,,,,,2,0,1,,,0,,,61,64
32304,control_change,,,,,26,0,1,,,0,64,127,,
32339,control_change,,,,,35,0,1,,,0,64,96,,
32356,control_change,,,,,17,0,1,,,0,64,64,,
32371,control_change,,,,,15,0,1,,,0,64,0,,
32390,note_on,,,,,19,0,1,,,0,,,64,19
32394,note_off,,,,,4,0,1,,,0,,,76,64
32400,note_on,,,,,6,0,1,,,0,,,40,21
32426,control_change,,,,,26,0,1,,,0,64,64,,
32431,control_change,,,,,5,0,1,,,0,64,96,,
32441,control_change,,,,,10,0,1,,,0,64,127,,
32513,note_off,,,,,72,0,1,,,0,,,64,64
32513,note_on,,,,,0,0,1,,,0,,,74,26
32536,note_off,,,,,23,0,1,,,0,,,40,64
32574,note_on,,,,,38,0,1,,,0,,,73,33
32591,note_off,,,,,17,0,1,,,0,,,74,64
32637,note_on,,,,,46,0,1,,,0,,,71,28
32643,note_off,,,,,6,0,1,,,0,,,73,64
32695,note_on,,,,,52,0,1,,,0,,,74,28
32702,note_off,,,,,7,0,1,,,0,,,71,64
32719,control_change,,,,,17,0,1,,,0,64,96,,
32725,control_change,,,,,6,0,1,,,0,64,64,,
32731,control_change,,,,,6,0,1,,,0,64,0,,
32757,note_on,,,,,26,0,1,,,0,,,45,19
32760,note_on,,,,,3,0,1,,,0,,,73,33
32771,note_off,,,,,11,0,1,,,0,,,74,64
32812,control_change,,,,,41,0,1,,,0,64,64,,
32818,control_change,,,,,6,0,1,,,0,64,96,,
32820,note_off,,,,,2,0,1,,,0,,,73,64
32830,note_on,,,,,10,0,1,,,0,,,69,33
32847,control_change,,,,,17,0,1,,,0,64,127,,
32870,control_change,,,,,23,0,1,,,0,64,96,,
32879,note_on,,,,,9,0,1,,,0,,,57,21
32885,control_change,,,,,6,0,1,,,0,64,64,,
32888,note_on,,,,,3,0,1,,,0,,,73,37
32901,control_change,,,,,13,0,1,,,0,64,96,,
32903,note_off,,,,,2,0,1,,,0,,,69,64
32916,control_change,,,,,13,0,1,,,0,64,127,,
32933,control_change,,,,,17,0,1,,,0,64,96,,
32939,note_on,,,,,6,0,1,,,0,,,76,40
32955,note_off,,,,,16,0,1,,,0,,,73,64
32972,control_change,,,,,17,0,1,,,0,64,64,,
32987,control_change,,,,,15,0,1,,,0,64,0,,
32989,note_off,,,,,2,0,1,,,0,,,76,64
32991,note_off,,,,,2,0,1,,,0,,,45,64
32994,note_on,,,,,3,0,1,,,0,,,81,35
32998,note_off,,,,,4,0,1,,,0,,,57,64
32999,note_on,,,,,1,0,1,,,0,,,49,28
33055,note_on,,,,,56,0,1,,,0,,,78,37
33072,note_off,,,,,17,0,1,,,0,,,81,64
33112,note_on,,,,,40,0,1,,,0,,,76,37
33118,note_on,,,,,6,0,1,,,0,,,50,23
33126,note_off,,,,,8,0,1,,,0,,,78,64
33133,note_off,,,,,7,0,1,,,0,,,49,64
33170,note_off,,,,,37,0,1,,,0,,,76,64
33175,note_on,,,,,5,0,1,,,0,,,74,30
33235,note_on,,,,,60,0,1,,,0,,,73,33
33239,note_off,,,,,4,0,1,,,0,,,50,64
33242,note_on,,,,,3,0,1,,,0,,,52,19
33251,note_off,,,,,9,0,1,,,0,,,74,64
33294,note_on,,,,,43,0,1,,,0,,,71,33
33298,note_off,,,,,4,0,1,,,0,,,73,64
33315,note_off,,,,,17,0,1,,,0,,,52,64
33339,note_off,,,,,24,0,1,,,0,,,71,64
33350,note_on,,,,,11,0,1,,,0,,,69,28
33356,note_on,,,,,6,0,1,,,0,,,40,21
33405,note_off,,,,,49,0,1,,,0,,,69,64
33410,note_on,,,,,5,0,1,,,0,,,68,28
33468,note_off,,,,,58,0,1,,,0,,,40,64
33472,note_off,,,,,4,0,1,,,0,,,68,64
33477,note_on,,,,,5,0,1,,,0,,,69,26
33478,note_on,,,,,1,0,1,,,0,,,69,37
33484,note_on,,,,,6,0,1,,,0,,,45,50
33487,note_on,,,,,3,0,1,,,0,,,45,21
33488,control_change,,,,,1,0,1,,,0,64,96,,
33491,note_off,,,,,3,0,1,,,0,,,45,64
33491,note_off,,,,,0,0,1,,,0,,,69,64
33497,control_change,,,,,6,0,1,,,0,64,127,,
33603,note_on,,,,,106,0,1,,,0,,,69,44
33607,note_on,,,,,4,0,1,,,0,,,84,62
33607,note_on,,,,,0,0,1,,,0,,,72,52
33630,note_off,,,,,23,0,1,,,0,,,69,64
33632,note_off,,,,,2,0,1,,,0,,,45,64
33722,note_on,,,,,90,0,1,,,0,,,67,50
33728,note_off,,,,,6,0,1,,,0,,,69,64
33833,control_change,,,,,105,0,1,,,0,64,96,,
33838,control_change,,,,,5,0,1,,,0,64,0,,
33842,note_off,,,,,4,0,1,,,0,,,67,64
33845,note_on,,,,,3,0,1,,,0,,,65,59
33862,note_off,,,,,17,0,1,,,0,,,72,64
33870,note_off,,,,,8,0,1,,,0,,,84,64
33882,control_change,,,,,12,0,1,,,0,64,64,,
33889,control_change,,,,,7,0,1,,,0,64,96,,
33895,control_change,,,,,6,0,1,,,0,64,127,,
33950,note_off,,,,,55,0,1,,,0,,,65,64
33958,note_on,,,,,8,0,1,,,0,,,84,70
33959,note_on,,,,,1,0,1,,,0,,,72,52
33964,note_on,,,,,5,0,1,,,0,,,69,52
34078,note_on,,,,,114,0,1,,,0,,,64,47
34190,note_off,,,,,112,0,1,,,0,,,72,64
34197,control_change,,,,,7,0,1,,,0,64,64,,
34200,note_off,,,,,3,0,1,,,0,,,64,64
34200,note_off,,,,,0,0,1,,,0,,,69,64
34200,note_off,,,,,0,0,1,,,0,,,84,64
34206,control_change,,,,,6,0,1,,,0,64,0,,
34207,note_on,,,,,1,0,1,,,0,,,62,56
34238,control_change,,,,,31,0,1,,,0,64,64,,
34245,control_change,,,,,7,0,1,,,0,64,96,,
34251,control_change,,,,,6,0,1,,,0,64,127,,
34323,note_on,,,,,72,0,1,,,0,,,86,59
34327,note_on,,,,,4,0,1,,,0,,,74,47
34336,note_off,,,,,9,0,1,,,0,,,86,64
34340,note_off,,,,,4,0,1,,,0,,,74,64
34442,note_on,,,,,102,0,1,,,0,,,83,62
34447,note_on,,,,,5,0,1,,,0,,,71,29
34454,note_on,,,,,7,0,1,,,0,,,65,50
34458,note_off,,,,,4,0,1,,,0,,,62,64
34461,note_off,,,,,3,0,1,,,0,,,71,64
34463,note_off,,,,,2,0,1,,,0,,,83,64
34543,note_off,,,,,80,0,1,,,0,,,65,64
34550,control_change,,,,,7,0,1,,,0,64,96,,
34556,control_change,,,,,6,0,1,,,0,64,64,,
34559,note_on,,,,,3,0,1,,,0,,,81,62
34564,control_change,,,,,5,0,1,,,0,64,0,,
34566,note_on,,,,,2,0,1,,,0,,,69,56
34566,note_on,,,,,0,0,1,,,0,,,64,55
34585,note_off,,,,,19,0,1,,,0,,,69,64
34588,control_change,,,,,3,0,1,,,0,64,64,,
34591,note_off,,,,,3,0,1,,,0,,,81,64
34594,control_change,,,,,3,0,1,,,0,64,96,,
34600,control_change,,,,,6,0,1,,,0,64,127,,
34682,note_on,,,,,82,0,1,,,0,,,81,59
34686,note_on,,,,,4,0,1,,,0,,,69,44
34705,note_off,,,,,19,0,1,,,0,,,69,64
34711,note_off,,,,,6,0,1,,,0,,,81,64
34806,note_on,,,,,95,0,1,,,0,,,80,58
34810,note_on,,,,,4,0,1,,,0,,,68,44
34811,note_on,,,,,1,0,1,,,0,,,52,47
34822,note_off,,,,,11,0,1,,,0,,,64,64
34825,note_off,,,,,3,0,1,,,0,,,68,64
34828,note_off,,,,,0,0,1,,,0,,,80,64
34828,note_off,,,,,3,0,1,,,0,,,52,64
34908,control_change,,,,,80,0,1,,,0,64,96,,
34914,control_change,,,,,6,0,1,,,0,64,64,,
34920,control_change,,,,,6,0,1,,,0,64,0,,
34921,note_on,,,,,1,0,1,,,0,,,69,39
34925,note_on,,,,,4,0,1,,,0,,,81,39
34932,note_on,,,,,7,0,1,,,0,,,57,37
34935,note_off,,,,,3,0,1,,,0,,,69,64
34941,control_change,,,,,6,0,1,,,0,64,64,,
34945,note_off,,,,,4,0,1,,,0,,,81,64
34948,control_change,,,,,3,0,1,,,0,64,96,,
34954,control_change,,,,,6,0,1,,,0,64,127,,
35045,note_off,,,,,91,0,1,,,0,,,57,64
35050,note_on,,,,,5,0,1,,,0,,,85,42
35053,note_on,,,,,3,0,1,,,0,,,73,34
35058,note_on,,,,,5,0,1,,,0,,,69,31
35166,note_on,,,,,108,0,1,,,0,,,68,29
35170,note_off,,,,,4,0,1,,,0,,,69,64
35268,control_change,,,,,98,0,1,,,0,64,96,,
35274,control_change,,,,,6,0,1,,,0,64,0,,
35288,note_off,,,,,14,0,1,,,0,,,68,64
35293,note_on,,,,,5,0,1,,,0,,,66,37
35303,note_off,,,,,10,0,1,,,0,,,73,64
35308,note_off,,,,,5,0,1,,,0,,,85,64
35314,control_change,,,,,6,0,1,,,0,64,64,,
35320,control_change,,,,,6,0,1,,,0,64,96,,
35325,control_change,,,,,5,0,1,,,0,64,127,,
35395,note_on,,,,,70,0,1,,,0,,,85,45
35400,note_off,,,,,5,0,1,,,0,,,66,64
35400,note_on,,,,,0,0,1,,,0,,,73,34
35405,note_on,,,,,5,0,1,,,0,,,69,31
35506,note_on,,,,,101,0,1,,,0,,,64,28
35611,note_off,,,,,105,0,1,,,0,,,73,64
35617,control_change,,,,,6,0,1,,,0,64,96,,
35619,note_off,,,,,2,0,1,,,0,,,85,64
35624,control_change,,,,,5,0,1,,,0,64,0,,
35628,note_off,,,,,4,0,1,,,0,,,69,64
35630,note_off,,,,,2,0,1,,,0,,,64,64
35630,note_on,,,,,0,0,1,,,0,,,62,37
35656,control_change,,,,,26,0,1,,,0,64,64,,
35663,control_change,,,,,7,0,1,,,0,64,96,,
35668,control_change,,,,,5,0,1,,,0,64,127,,
35742,note_on,,,,,74,0,1,,,0,,,86,39
35748,note_on,,,,,6,0,1,,,0,,,74,26
35759,note_off,,,,,11,0,1,,,0,,,86,64
35761,note_off,,,,,2,0,1,,,0,,,74,64
35859,note_on,,,,,98,0,1,,,0,,,83,39
35866,note_on,,,,,0,0,1,,,0,,,66,27
35866,note_on,,,,,7,0,1,,,0,,,71,17
35880,note_off,,,,,14,0,1,,,0,,,71,64
35882,note_off,,,,,2,0,1,,,0,,,83,64
35882,note_off,,,,,0,0,1,,,0,,,62,64
35949,note_off,,,,,67,0,1,,,0,,,66,64
35962,control_change,,,,,13,0,1,,,0,64,96,,
35968,control_change,,,,,6,0,1,,,0,64,0,,
35977,note_on,,,,,9,0,1,,,0,,,81,41
35981,note_on,,,,,4,0,1,,,0,,,69,39
35981,note_on,,,,,0,0,1,,,0,,,64,39
35996,control_change,,,,,15,0,1,,,0,64,64,,
36002,control_change,,,,,6,0,1,,,0,64,127,,
36008,note_off,,,,,6,0,1,,,0,,,69,64
36020,note_off,,,,,12,0,1,,,0,,,81,64
36103,note_on,,,,,0,0,1,,,0,,,81,37
36103,note_on,,,,,83,0,1,,,0,,,69,29
36125,note_off,,,,,22,0,1,,,0,,,69,64
36130,note_off,,,,,5,0,1,,,0,,,81,64
36226,note_off,,,,,96,0,1,,,0,,,64,64
36229,note_on,,,,,3,0,1,,,0,,,68,27
36229,note_on,,,,,0,0,1,,,0,,,80,31
36236,note_on,,,,,7,0,1,,,0,,,52,31
36245,note_off,,,,,9,0,1,,,0,,,52,64
36250,note_off,,,,,5,0,1,,,0,,,80,64
36250,note_off,,,,,0,0,1,,,0,,,68,64
36328,control_change,,,,,78,0,1,,,0,64,96,,
36334,control_change,,,,,6,0,1,,,0,64,0,,
36360,note_on,,,,,26,0,1,,,0,,,81,59
36364,note_on,,,,,4,0,1,,,0,,,69,34
36370,control_change,,,,,6,0,1,,,0,64,96,,
36373,note_on,,,,,3,0,1,,,0,,,45,41
36378,control_change,,,,,5,0,1,,,0,64,127,,
36380,note_off,,,,,2,0,1,,,0,,,69,64
36383,note_off,,,,,3,0,1,,,0,,,81,64
36485,note_on,,,,,102,0,1,,,0,,,64,44
36489,note_on,,,,,4,0,1,,,0,,,76,50
36493,note_on,,,,,4,0,1,,,0,,,57,21
36503,note_off,,,,,10,0,1,,,0,,,76,64
36508,note_off,,,,,5,0,1,,,0,,,64,64
36603,note_on,,,,,0,0,1,,,0,,,73,58
36603,note_on,,,,,95,0,1,,,0,,,61,44
36609,note_on,,,,,0,0,1,,,0,,,49,35
36609,note_off,,,,,6,0,1,,,0,,,57,64
36609,note_off,,,,,0,0,1,,,0,,,45,64
36613,note_off,,,,,4,0,1,,,0,,,61,64
36617,note_off,,,,,4,0,1,,,0,,,49,64
36619,note_off,,,,,2,0,1,,,0,,,73,64
36695,control_change,,,,,76,0,1,,,0,64,96,,
36700,control_change,,,,,5,0,1,,,0,64,64,,
36706,control_change,,,,,6,0,1,,,0,64,0,,
36715,note_on,,,,,9,0,1,,,0,,,78,63
36720,note_on,,,,,5,0,1,,,0,,,50,50
36720,note_on,,,,,0,0,1,,,0,,,66,50
36725,note_on,,,,,5,0,1,,,0,,,57,44
36730,control_change,,,,,5,0,1,,,0,64,96,,
36736,control_change,,,,,6,0,1,,,0,64,127,,
36738,note_off,,,,,2,0,1,,,0,,,66,64
36741,note_off,,,,,3,0,1,,,0,,,78,64
36755,note_off,,,,,14,0,1,,,0,,,50,64
36834,note_on,,,,,0,0,1,,,0,,,74,67
36834,note_on,,,,,79,0,1,,,0,,,62,56
36844,note_on,,,,,10,0,1,,,0,,,47,56
36847,note_off,,,,,3,0,1,,,0,,,62,64
36858,note_off,,,,,11,0,1,,,0,,,74,64
36945,note_on,,,,,0,0,1,,,0,,,80,74
36945,note_on,,,,,87,0,1,,,0,,,68,68
36953,note_off,,,,,8,0,1,,,0,,,47,64
36955,note_on,,,,,2,0,1,,,0,,,52,59
36961,note_off,,,,,6,0,1,,,0,,,68,64
36965,note_off,,,,,4,0,1,,,0,,,80,64
36980,note_off,,,,,15,0,1,,,0,,,57,64
37026,note_off,,,,,46,0,1,,,0,,,52,64
37048,control_change,,,,,22,0,1,,,0,64,96,,
37054,control_change,,,,,6,0,1,,,0,64,0,,
37065,note_on,,,,,11,0,1,,,0,,,81,70
37069,note_on,,,,,4,0,1,,,0,,,49,50
37069,note_on,,,,,0,0,1,,,0,,,69,56
37069,note_on,,,,,0,0,1,,,0,,,57,41
37087,control_change,,,,,18,0,1,,,0,64,64,,
37091,note_off,,,,,4,0,1,,,0,,,81,64
37091,note_off,,,,,0,0,1,,,0,,,69,64
37095,control_change,,,,,4,0,1,,,0,64,127,,
37198,note_on,,,,,103,0,1,,,0,,,76,59
37202,note_on,,,,,4,0,1,,,0,,,64,49
37208,note_off,,,,,6,0,1,,,0,,,49,64
37209,note_on,,,,,1,0,1,,,0,,,45,44
37221,note_off,,,,,12,0,1,,,0,,,64,64
37221,note_off,,,,,0,0,1,,,0,,,76,64
37302,note_off,,,,,81,0,1,,,0,,,57,64
37309,note_on,,,,,7,0,1,,,0,,,73,68
37309,note_on,,,,,0,0,1,,,0,,,61,54
37320,note_off,,,,,11,0,1,,,0,,,45,64
37321,note_off,,,,,1,0,1,,,0,,,61,64
37327,note_off,,,,,6,0,1,,,0,,,73,64
37417,control_change,,,,,90,0,1,,,0,64,96,,
37423,control_change,,,,,6,0,1,,,0,64,0,,
37432,note_on,,,,,9,0,1,,,0,,,78,58
37436,note_on,,,,,4,0,1,,,0,,,66,35
37436,note_on,,,,,0,0,1,,,0,,,57,39
37436,note_on,,,,,0,0,1,,,0,,,50,44
37446,control_change,,,,,10,0,1,,,0,64,64,,
37448,note_off,,,,,2,0,1,,,0,,,66,64
37451,note_off,,,,,3,0,1,,,0,,,78,64
37454,control_change,,,,,3,0,1,,,0,64,127,,
37539,note_on,,,,,85,0,1,,,0,,,62,59
37543,note_on,,,,,4,0,1,,,0,,,74,67
37547,note_off,,,,,4,0,1,,,0,,,50,64
37552,note_off,,,,,5,0,1,,,0,,,62,64
37552,note_on,,,,,0,0,1,,,0,,,47,50
37562,note_off,,,,,10,0,1,,,0,,,74,64
37569,note_off,,,,,7,0,1,,,0,,,57,64
37657,note_on,,,,,88,0,1,,,0,,,80,74
37657,note_on,,,,,0,0,1,,,0,,,68,63
37662,note_on,,,,,5,0,1,,,0,,,52,52
37672,note_off,,,,,10,0,1,,,0,,,68,64
37679,note_off,,,,,7,0,1,,,0,,,80,64
37679,note_off,,,,,0,0,1,,,0,,,47,64
37732,note_off,,,,,53,0,1,,,0,,,52,64
37760,control_change,,,,,28,0,1,,,0,64,96,,
37766,control_change,,,,,6,0,1,,,0,64,0,,
37777,note_on,,,,,0,0,1,,,0,,,49,50
37777,note_on,,,,,11,0,1,,,0,,,81,70
37782,note_on,,,,,5,0,1,,,0,,,69,59
37786,note_on,,,,,4,0,1,,,0,,,57,34
37795,control_change,,,,,9,0,1,,,0,64,64,,
37801,control_change,,,,,6,0,1,,,0,64,127,,
37804,note_off,,,,,3,0,1,,,0,,,69,64
37806,note_off,,,,,2,0,1,,,0,,,81,64
37830,note_off,,,,,24,0,1,,,0,,,57,64
37903,note_on,,,,,0,0,1,,,0,,,64,55
37903,note_on,,,,,73,0,1,,,0,,,76,67
37909,note_on,,,,,6,0,1,,,0,,,45,39
37914,note_off,,,,,5,0,1,,,0,,,49,64
37923,note_off,,,,,9,0,1,,,0,,,64,64
37923,note_off,,,,,0,0,1,,,0,,,76,64
38014,note_on,,,,,91,0,1,,,0,,,61,54
38017,note_on,,,,,3,0,1,,,0,,,73,63
38023,note_off,,,,,6,0,1,,,0,,,45,64
38026,note_off,,,,,3,0,1,,,0,,,61,64
38034,note_off,,,,,8,0,1,,,0,,,73,64
38117,control_change,,,,,83,0,1,,,0,64,96,,
38123,control_change,,,,,6,0,1,,,0,64,64,,
38128,control_change,,,,,5,0,1,,,0,64,0,,
38134,note_on,,,,,6,0,1,,,0,,,57,41
38137,note_on,,,,,3,0,1,,,0,,,50,44
38138,note_on,,,,,1,0,1,,,0,,,66,44
38138,note_on,,,,,0,0,1,,,0,,,78,50
38147,control_change,,,,,9,0,1,,,0,64,96,,
38152,note_off,,,,,5,0,1,,,0,,,66,64
38154,control_change,,,,,2,0,1,,,0,64,127,,
38158,note_off,,,,,4,0,1,,,0,,,78,64
38255,note_on,,,,,97,0,1,,,0,,,62,52
38255,note_on,,,,,0,0,1,,,0,,,74,62
38265,note_off,,,,,10,0,1,,,0,,,50,64
38269,note_off,,,,,4,0,1,,,0,,,62,64
38272,note_on,,,,,3,0,1,,,0,,,47,52
38280,note_off,,,,,8,0,1,,,0,,,74,64
38379,note_on,,,,,0,0,1,,,0,,,80,68
38379,note_off,,,,,99,0,1,,,0,,,57,64
38383,note_on,,,,,4,0,1,,,0,,,52,50
38383,note_on,,,,,0,0,1,,,0,,,68,47
38390,note_off,,,,,7,0,1,,,0,,,68,64
38390,note_off,,,,,0,0,1,,,0,,,47,64
38397,note_off,,,,,7,0,1,,,0,,,52,64
38404,note_off,,,,,7,0,1,,,0,,,80,64
38498,control_change,,,,,94,0,1,,,0,64,96,,
38504,control_change,,,,,6,0,1,,,0,64,0,,
38505,note_on,,,,,1,0,1,,,0,,,81,70
38509,note_on,,,,,4,0,1,,,0,,,69,52
38512,note_on,,,,,0,0,1,,,0,,,49,63
38512,note_on,,,,,3,0,1,,,0,,,57,52
38538,control_change,,,,,26,0,1,,,0,64,64,,
38544,control_change,,,,,6,0,1,,,0,64,127,,
38626,note_off,,,,,82,0,1,,,0,,,81,64
38630,note_on,,,,,4,0,1,,,0,,,73,47
38635,note_on,,,,,5,0,1,,,0,,,76,21
38639,note_off,,,,,4,0,1,,,0,,,69,64
38642,note_off,,,,,3,0,1,,,0,,,73,64
38645,note_off,,,,,3,0,1,,,0,,,76,64
38645,note_on,,,,,0,0,1,,,0,,,50,62
38651,note_off,,,,,6,0,1,,,0,,,49,64
38752,note_on,,,,,101,0,1,,,0,,,74,67
38756,note_on,,,,,4,0,1,,,0,,,66,55
38774,note_off,,,,,18,0,1,,,0,,,66,64
38811,note_off,,,,,37,0,1,,,0,,,57,64
38847,note_off,,,,,36,0,1,,,0,,,74,64
38861,control_change,,,,,14,0,1,,,0,64,96,,
38867,control_change,,,,,6,0,1,,,0,64,0,,
38873,note_on,,,,,6,0,1,,,0,,,73,68
38876,note_on,,,,,3,0,1,,,0,,,64,60
38880,note_on,,,,,4,0,1,,,0,,,52,67
38883,note_off,,,,,3,0,1,,,0,,,50,64
38904,control_change,,,,,21,0,1,,,0,64,64,,
38908,note_off,,,,,4,0,1,,,0,,,64,64
38910,control_change,,,,,2,0,1,,,0,64,127,,
38924,note_off,,,,,14,0,1,,,0,,,73,64
38992,note_on,,,,,68,0,1,,,0,,,73,58
38995,note_on,,,,,3,0,1,,,0,,,69,47
38999,note_on,,,,,4,0,1,,,0,,,64,34
39038,note_off,,,,,39,0,1,,,0,,,69,64
39038,note_off,,,,,0,0,1,,,0,,,73,64
39057,note_off,,,,,19,0,1,,,0,,,64,64
39107,control_change,,,,,50,0,1,,,0,64,96,,
39126,note_on,,,,,19,0,1,,,0,,,71,67
39130,control_change,,,,,4,0,1,,,0,64,127,,
39132,note_on,,,,,2,0,1,,,0,,,40,56
39132,note_on,,,,,0,0,1,,,0,,,62,50
39154,note_off,,,,,22,0,1,,,0,,,62,64
39166,note_off,,,,,12,0,1,,,0,,,52,64
39207,note_off,,,,,41,0,1,,,0,,,71,64
39235,control_change,,,,,28,0,1,,,0,64,96,,
39242,control_change,,,,,7,0,1,,,0,64,0,,
39244,note_on,,,,,2,0,1,,,0,,,69,62
39244,note_on,,,,,0,0,1,,,0,,,61,54
39249,note_off,,,,,5,0,1,,,0,,,40,64
39249,note_on,,,,,0,0,1,,,0,,,45,67
39287,note_off,,,,,38,0,1,,,0,,,61,64
39289,control_change,,,,,2,0,1,,,0,64,64,,
39295,control_change,,,,,6,0,1,,,0,64,127,,
39316,note_off,,,,,21,0,1,,,0,,,69,64
39372,note_on,,,,,56,0,1,,,0,,,61,39
39376,note_on,,,,,4,0,1,,,0,,,69,39
39389,note_off,,,,,13,0,1,,,0,,,61,64
39430,note_off,,,,,41,0,1,,,0,,,69,64
39479,note_off,,,,,49,0,1,,,0,,,45,64
39482,note_on,,,,,3,0,1,,,0,,,71,52
39488,note_on,,,,,6,0,1,,,0,,,64,47
39544,note_off,,,,,56,0,1,,,0,,,71,64
39592,control_change,,,,,48,0,1,,,0,64,96,,
39594,note_off,,,,,2,0,1,,,0,,,64,64
39596,note_on,,,,,2,0,1,,,0,,,69,56
39596,note_on,,,,,0,0,1,,,0,,,61,48
39603,control_change,,,,,7,0,1,,,0,64,0,,
39605,note_on,,,,,2,0,1,,,0,,,45,50
39622,control_change,,,,,17,0,1,,,0,64,64,,
39626,note_off,,,,,4,0,1,,,0,,,61,64
39629,control_change,,,,,3,0,1,,,0,64,96,,
39634,control_change,,,,,5,0,1,,,0,64,127,,
39648,note_off,,,,,14,0,1,,,0,,,69,64
39723,note_on,,,,,75,0,1,,,0,,,61,44
39727,note_on,,,,,4,0,1,,,0,,,69,47
39741,note_off,,,,,14,0,1,,,0,,,61,64
39783,note_off,,,,,42,0,1,,,0,,,69,64
39832,note_off,,,,,49,0,1,,,0,,,45,64
39832,note_on,,,,,0,0,1,,,0,,,71,52
39839,note_on,,,,,7,0,1,,,0,,,64,44
39900,note_off,,,,,61,0,1,,,0,,,71,64
39939,control_change,,,,,39,0,1,,,0,64,96,,
39943,note_off,,,,,4,0,1,,,0,,,64,64
39945,control_change,,,,,2,0,1,,,0,64,64,,
39951,control_change,,,,,6,0,1,,,0,64,0,,
39953,note_on,,,,,2,0,1,,,0,,,45,39
39956,note_on,,,,,0,0,1,,,0,,,61,42
39956,note_on,,,,,3,0,1,,,0,,,69,56
39967,control_change,,,,,11,0,1,,,0,64,64,,
39970,note_off,,,,,3,0,1,,,0,,,61,64
39973,control_change,,,,,3,0,1,,,0,64,96,,
39978,control_change,,,,,5,0,1,,,0,64,127,,
40002,note_off,,,,,24,0,1,,,0,,,69,64
40018,note_on,,,,,16,0,1,,,0,,,71,47
40026,note_on,,,,,8,0,1,,,0,,,64,34
40078,note_off,,,,,52,0,1,,,0,,,71,64
40085,note_on,,,,,7,0,1,,,0,,,69,56
40089,note_off,,,,,4,0,1,,,0,,,64,64
40089,note_on,,,,,0,0,1,,,0,,,61,44
40105,note_off,,,,,16,0,1,,,0,,,61,64
40137,note_off,,,,,32,0,1,,,0,,,69,64
40151,note_on,,,,,14,0,1,,,0,,,71,50
40157,note_on,,,,,6,0,1,,,0,,,64,49
40211,note_off,,,,,54,0,1,,,0,,,71,64
40216,note_off,,,,,5,0,1,,,0,,,64,64
40216,note_on,,,,,0,0,1,,,0,,,69,56
40220,note_on,,,,,4,0,1,,,0,,,61,42
40240,note_off,,,,,20,0,1,,,0,,,61,64
40265,note_off,,,,,25,0,1,,,0,,,45,64
40267,note_off,,,,,2,0,1,,,0,,,69,64
40267,note_on,,,,,0,0,1,,,0,,,71,52
40282,note_on,,,,,15,0,1,,,0,,,64,42
40320,note_on,,,,,38,0,1,,,0,,,69,15
40324,note_off,,,,,4,0,1,,,0,,,71,64
40333,note_off,,,,,9,0,1,,,0,,,64,64
40333,note_on,,,,,0,0,1,,,0,,,69,52
40336,note_on,,,,,3,0,1,,,0,,,61,44
40342,control_change,,,,,0,0,1,,,0,64,64,,
40342,note_off,,,,,6,0,1,,,0,,,69,64
40345,note_on,,,,,3,0,1,,,0,,,45,34
40350,note_on,,,,,5,0,1,,,0,,,71,39
40350,control_change,,,,,0,0,1,,,0,64,0,,
40372,note_off,,,,,22,0,1,,,0,,,71,64
40380,note_on,,,,,8,0,1,,,0,,,69,31
40402,note_off,,,,,22,0,1,,,0,,,69,64
40408,control_change,,,,,6,0,1,,,0,64,64,,
40410,note_on,,,,,2,0,1,,,0,,,71,39
40414,control_change,,,,,4,0,1,,,0,64,96,,
40420,control_change,,,,,6,0,1,,,0,64,127,,
40432,note_off,,,,,12,0,1,,,0,,,71,64
40440,note_on,,,,,8,0,1,,,0,,,69,31
40450,note_off,,,,,10,0,1,,,0,,,61,64
40455,note_off,,,,,5,0,1,,,0,,,45,64
40460,note_off,,,,,5,0,1,,,0,,,69,64
40462,note_off,,,,,2,0,1,,,0,,,69,64
40470,note_on,,,,,8,0,1,,,0,,,71,31
40492,note_off,,,,,22,0,1,,,0,,,71,64
40500,note_on,,,,,8,0,1,,,0,,,69,26
40522,note_off,,,,,22,0,1,,,0,,,69,64
40530,note_on,,,,,8,0,1,,,0,,,71,32
40552,note_off,,,,,22,0,1,,,0,,,71,64
40560,note_on,,,,,8,0,1,,,0,,,69,16
40582,note_off,,,,,22,0,1,,,0,,,69,64
40590,note_on,,,,,8,0,1,,,0,,,71,31
40612,note_off,,,,,22,0,1,,,0,,,71,64
40620,note_on,,,,,8,0,1,,,0,,,69,25
40642,note_off,,,,,22,0,1,,,0,,,69,64
40650,note_on,,,,,8,0,1,,,0,,,71,10
40686,note_off,,,,,36,0,1,,,0,,,71,64
40694,control_change,,,,,8,0,1,,,0,64,96,,
40700,control_change,,,,,6,0,1,,,0,64,64,,
40713,control_change,,,,,13,0,1,,,0,64,0,,
40739,control_change,,,,,26,0,1,,,0,64,64,,
40761,control_change,,,,,22,0,1,,,0,64,96,,
40798,control_change,,,,,37,0,1,,,0,64,64,,
40803,control_change,,,,,5,0,1,,,0,64,0,,
41040,marker,,,,,31680,1,0,,,,,,,
41040,note_on,,,,,237,0,1,,,0,,,78,47
41040,note_on,,,,,0,0,1,,,0,,,81,47
41130,note_off,,,,,90,0,1,,,0,,,81,64
41130,note_off,,,,,0,0,1,,,0,,,78,64
41160,note_on,,,,,30,0,1,,,0,,,74,47
41160,note_on,,,,,0,0,1,,,0,,,78,50
41250,note_off,,,,,0,0,1,,,0,,,74,64
41250,note_off,,,,,90,0,1,,,0,,,78,64
41280,note_on,,,,,30,0,1,,,0,,,69,56
41280,note_on,,,,,0,0,1,,,0,,,76,50
41370,note_off,,,,,90,0,1,,,0,,,76,64
41370,note_off,,,,,0,0,1,,,0,,,69,64
41400,note_on,,,,,30,0,1,,,0,,,66,44
41400,note_on,,,,,0,0,1,,,0,,,74,44
41490,note_off,,,,,90,0,1,,,0,,,74,64
41490,note_off,,,,,0,0,1,,,0,,,66,64
41520,note_on,,,,,30,0,1,,,0,,,66,47
41520,note_on,,,,,0,0,1,,,0,,,74,47
41610,note_off,,,,,90,0,1,,,0,,,74,64
41610,note_off,,,,,0,0,1,,,0,,,66,64
41640,note_on,,,,,30,0,1,,,0,,,69,44
41640,note_on,,,,,0,0,1,,,0,,,76,39
41730,note_off,,,,,0,0,1,,,0,,,69,64
41730,note_off,,,,,90,0,1,,,0,,,76,64
41760,note_on,,,,,30,0,1,,,0,,,66,44
41760,note_on,,,,,0,0,1,,,0,,,74,50
41850,note_off,,,,,0,0,1,,,0,,,66,64
41850,note_off,,,,,90,0,1,,,0,,,74,64
41880,note_on,,,,,30,0,1,,,0,,,66,38
41880,note_on,,,,,0,0,1,,,0,,,74,50
41970,note_off,,,,,90,0,1,,,0,,,74,64
41970,note_off,,,,,0,0,1,,,0,,,66,64
42000,note_on,,,,,30,0,1,,,0,,,69,34
42000,note_on,,,,,0,0,1,,,0,,,76,47
42090,note_off,,,,,90,0,1,,,0,,,76,64
42090,note_off,,,,,0,0,1,,,0,,,69,64
42120,note_on,,,,,30,0,1,,,0,,,66,38
42120,note_on,,,,,0,0,1,,,0,,,74,62
42210,note_off,,,,,90,0,1,,,0,,,74,64
42210,note_off,,,,,0,0,1,,,0,,,66,64
42240,note_on,,,,,0,0,1,,,0,,,74,59
42240,note_on,,,,,30,0,1,,,0,,,66,40
42330,note_off,,,,,0,0,1,,,0,,,66,64
42330,note_off,,,,,90,0,1,,,0,,,74,64
42360,note_on,,,,,0,0,1,,,0,,,76,62
42360,note_on,,,,,30,0,1,,,0,,,69,44
42450,note_off,,,,,90,0,1,,,0,,,76,64
42450,note_off,,,,,0,0,1,,,0,,,69,64
42480,note_on,,,,,30,0,1,,,0,,,74,50
42480,note_on,,,,,0,0,1,,,0,,,78,58
42570,note_off,,,,,90,0,1,,,0,,,78,64
42570,note_off,,,,,0,0,1,,,0,,,74,64
42600,note_on,,,,,30,0,1,,,0,,,76,52
42600,note_on,,,,,0,0,1,,,0,,,79,59
42690,note_off,,,,,0,0,1,,,0,,,76,64
42690,note_off,,,,,90,0,1,,,0,,,79,64
42720,note_on,,,,,30,0,1,,,0,,,78,24
42720,note_on,,,,,0,0,1,,,0,,,81,50
42810,note_off,,,,,90,0,1,,,0,,,81,64
42810,note_off,,,,,0,0,1,,,0,,,78,64
42840,note_on,,,,,30,0,1,,,0,,,69,59
42840,note_on,,,,,0,0,1,,,0,,,76,29
42862,note_off,,,,,22,0,1,,,0,,,76,64
42870,note_on,,,,,8,0,1,,,0,,,78,17
42892,note_off,,,,,22,0,1,,,0,,,78,64
42900,note_on,,,,,8,0,1,,,0,,,76,29
42922,note_off,,,,,22,0,1,,,0,,,76,64
42930,note_on,,,,,8,0,1,,,0,,,78,22
42952,note_off,,,,,22,0,1,,,0,,,78,64
42960,note_on,,,,,8,0,1,,,0,,,76,15
42982,note_off,,,,,22,0,1,,,0,,,76,64
42990,note_on,,,,,8,0,1,,,0,,,78,27
43012,note_off,,,,,22,0,1,,,0,,,78,64
43020,note_on,,,,,8,0,1,,,0,,,76,13
43042,note_off,,,,,22,0,1,,,0,,,76,64
43050,note_on,,,,,8,0,1,,,0,,,78,27
43072,note_off,,,,,22,0,1,,,0,,,78,64
43080,note_on,,,,,8,0,1,,,0,,,76,26
43102,note_off,,,,,22,0,1,,,0,,,76,64
43110,note_on,,,,,8,0,1,,,0,,,78,24
43132,note_off,,,,,22,0,1,,,0,,,78,64
43140,note_on,,,,,8,0,1,,,0,,,76,14
43162,note_off,,,,,22,0,1,,,0,,,76,64
43170,note_on,,,,,8,0,1,,,0,,,78,17
43192,note_off,,,,,22,0,1,,,0,,,78,64
43200,note_off,,,,,8,0,1,,,0,,,69,64
43200,note_on,,,,,0,0,1,,,0,,,78,58
43200,note_on,,,,,0,0,1,,,0,,,74,50
43290,note_off,,,,,90,0,1,,,0,,,78,64
43290,note_off,,,,,0,0,1,,,0,,,74,64
43320,note_on,,,,,30,0,1,,,0,,,76,52
43320,note_on,,,,,0,0,1,,,0,,,79,59
43410,note_off,,,,,90,0,1,,,0,,,79,64
43410,note_off,,,,,0,0,1,,,0,,,76,64
43440,note_on,,,,,30,0,1,,,0,,,78,24
43440,note_on,,,,,0,0,1,,,0,,,81,50
43530,note_off,,,,,0,0,1,,,0,,,78,64
43530,note_off,,,,,90,0,1,,,0,,,81,64
43560,note_on,,,,,30,0,1,,,0,,,69,59
43560,note_on,,,,,0,0,1,,,0,,,76,29
43582,note_off,,,,,22,0,1,,,0,,,76,64
43590,note_on,,,,,8,0,1,,,0,,,78,17
43612,note_off,,,,,22,0,1,,,0,,,78,64
43620,note_on,,,,,8,0,1,,,0,,,76,29
43642,note_off,,,,,22,0,1,,,0,,,76,64
43650,note_on,,,,,8,0,1,,,0,,,78,22
43672,note_off,,,,,22,0,1,,,0,,,78,64
43680,note_on,,,,,8,0,1,,,0,,,76,15
43702,note_off,,,,,22,0,1,,,0,,,76,64
43710,note_on,,,,,8,0,1,,,0,,,78,27
43732,note_off,,,,,22,0,1,,,0,,,78,64
43740,note_on,,,,,8,0,1,,,0,,,76,13
43762,note_off,,,,,22,0,1,,,0,,,76,64
43770,note_on,,,,,8,0,1,,,0,,,78,27
43792,note_off,,,,,22,0,1,,,0,,,78,64
43800,note_on,,,,,8,0,1,,,0,,,76,26
43822,note_off,,,,,22,0,1,,,0,,,76,64
43830,note_on,,,,,8,0,1,,,0,,,78,24
43852,note_off,,,,,22,0,1,,,0,,,78,64
43860,note_on,,,,,8,0,1,,,0,,,76,14
43882,note_off,,,,,22,0,1,,,0,,,76,64
43890,note_on,,,,,8,0,1,,,0,,,78,17
43912,note_off,,,,,22,0,1,,,0,,,78,64
43920,note_on,,,,,0,0,1,,,0,,,78,58
43920,note_off,,,,,8,0,1,,,0,,,69,64
43920,note_on,,,,,0,0,1,,,0,,,74,50
44010,note_off,,,,,0,0,1,,,0,,,74,64
44010,note_off,,,,,90,0,1,,,0,,,78,64
44040,note_on,,,,,0,0,1,,,0,,,79,59
44040,note_on,,,,,30,0,1,,,0,,,76,52
44130,note_off,,,,,90,0,1,,,0,,,79,64
44130,note_off,,,,,0,0,1,,,0,,,76,64
44160,note_on,,,,,30,0,1,,,0,,,78,24
44160,note_on,,,,,0,0,1,,,0,,,81,50
44250,note_off,,,,,90,0,1,,,0,,,81,64
44250,note_off,,,,,0,0,1,,,0,,,78,64
44280,note_on,,,,,0,0,1,,,0,,,76,29
44280,note_on,,,,,30,0,1,,,0,,,69,59
44302,note_off,,,,,22,0,1,,,0,,,76,64
44310,note_on,,,,,8,0,1,,,0,,,78,17
44332,note_off,,,,,22,0,1,,,0,,,78,64
44340,note_on,,,,,8,0,1,,,0,,,76,29
44362,note_off,,,,,22,0,1,,,0,,,76,64
44370,note_on,,,,,8,0,1,,,0,,,78,22
44392,note_off,,,,,22,0,1,,,0,,,78,64
44400,note_on,,,,,8,0,1,,,0,,,76,15
44422,note_off,,,,,22,0,1,,,0,,,76,64
44430,note_on,,,,,8,0,1,,,0,,,78,27
44452,note_off,,,,,22,0,1,,,0,,,78,64
44460,note_on,,,,,8,0,1,,,0,,,76,13
44482,note_off,,,,,22,0,1,,,0,,,76,64
44490,note_on,,,,,8,0,1,,,0,,,78,27
44512,note_off,,,,,22,0,1,,,0,,,78,64
44520,note_on,,,,,8,0,1,,,0,,,76,26
44542,note_off,,,,,22,0,1,,,0,,,76,64
44550,note_on,,,,,8,0,1,,,0,,,78,24
44572,note_off,,,,,22,0,1,,,0,,,78,64
44580,note_on,,,,,8,0,1,,,0,,,76,14
44602,note_off,,,,,22,0,1,,,0,,,76,64
44610,note_on,,,,,8,0,1,,,0,,,78,17
44632,note_off,,,,,22,0,1,,,0,,,78,64
44640,note_on,,,,,0,0,1,,,0,,,50,34
44640,note_off,,,,,8,0,1,,,0,,,69,64
44730,note_off,,,,,90,0,1,,,0,,,50,64
44760,note_on,,,,,30,0,1,,,0,,,62,34
44760,note_on,,,,,0,0,1,,,0,,,74,29
44782,note_off,,,,,22,0,1,,,0,,,74,64
44790,note_on,,,,,8,0,1,,,0,,,76,39
44812,note_off,,,,,22,0,1,,,0,,,76,64
44820,note_on,,,,,8,0,1,,,0,,,74,29
44842,note_off,,,,,22,0,1,,,0,,,74,64
44850,note_on,,,,,0,0,1,,,0,,,76,34
44850,note_off,,,,,8,0,1,,,0,,,62,64
44872,note_off,,,,,22,0,1,,,0,,,76,64
44880,note_on,,,,,8,0,1,,,0,,,55,36
44880,note_on,,,,,0,0,1,,,0,,,74,26
44880,note_on,,,,,0,0,1,,,0,,,59,45
44902,note_off,,,,,22,0,1,,,0,,,74,64
44910,note_on,,,,,8,0,1,,,0,,,76,13
44932,note_off,,,,,22,0,1,,,0,,,76,64
44940,note_on,,,,,8,0,1,,,0,,,74,32
44962,note_off,,,,,22,0,1,,,0,,,74,64
44970,note_off,,,,,8,0,1,,,0,,,59,64
44970,note_off,,,,,0,0,1,,,0,,,55,64
44970,note_on,,,,,0,0,1,,,0,,,76,12
44992,note_off,,,,,22,0,1,,,0,,,76,64
45000,note_on,,,,,0,0,1,,,0,,,57,47
45000,note_on,,,,,0,0,1,,,0,,,74,34
45000,note_on,,,,,8,0,1,,,0,,,54,50
45022,note_off,,,,,22,0,1,,,0,,,74,64
45030,note_on,,,,,8,0,1,,,0,,,76,31
45052,note_off,,,,,22,0,1,,,0,,,76,64
45060,note_on,,,,,8,0,1,,,0,,,74,34
45082,note_off,,,,,22,0,1,,,0,,,74,64
45090,note_on,,,,,0,0,1,,,0,,,76,16
45090,note_off,,,,,8,0,1,,,0,,,57,64
45112,note_off,,,,,22,0,1,,,0,,,76,64
45120,note_on,,,,,8,0,1,,,0,,,62,47
45120,note_on,,,,,0,0,1,,,0,,,74,34
45142,note_off,,,,,22,0,1,,,0,,,74,64
45150,note_on,,,,,8,0,1,,,0,,,76,32
45172,note_off,,,,,22,0,1,,,0,,,76,64
45180,note_on,,,,,0,0,1,,,0,,,74,36
45180,note_off,,,,,8,0,1,,,0,,,54,64
45202,note_off,,,,,22,0,1,,,0,,,74,64
45210,note_on,,,,,0,0,1,,,0,,,76,31
45210,note_off,,,,,8,0,1,,,0,,,62,64
45232,note_off,,,,,22,0,1,,,0,,,76,64
45240,note_on,,,,,8,0,1,,,0,,,52,32
45240,note_on,,,,,0,0,1,,,0,,,74,39
45240,note_on,,,,,0,0,1,,,0,,,55,52
45262,note_off,,,,,22,0,1,,,0,,,74,64
45270,note_on,,,,,8,0,1,,,0,,,76,23
45292,note_off,,,,,22,0,1,,,0,,,76,64
45300,note_on,,,,,8,0,1,,,0,,,74,21
45322,note_off,,,,,22,0,1,,,0,,,74,64
45330,note_off,,,,,8,0,1,,,0,,,55,64
45330,note_off,,,,,0,0,1,,,0,,,52,64
45330,note_on,,,,,0,0,1,,,0,,,76,26
45352,note_off,,,,,22,0,1,,,0,,,76,64
45360,note_on,,,,,0,0,1,,,0,,,54,47
45360,note_on,,,,,8,0,1,,,0,,,50,34
45360,note_on,,,,,0,0,1,,,0,,,74,34
45382,note_off,,,,,22,0,1,,,0,,,74,64
45390,note_on,,,,,8,0,1,,,0,,,76,25
45412,note_off,,,,,22,0,1,,,0,,,76,64
45420,note_on,,,,,8,0,1,,,0,,,74,25
45442,note_off,,,,,22,0,1,,,0,,,74,64
45450,note_off,,,,,8,0,1,,,0,,,54,64
45450,note_on,,,,,0,0,1,,,0,,,76,23
45472,note_off,,,,,22,0,1,,,0,,,76,64
45480,note_on,,,,,8,0,1,,,0,,,62,36
45480,note_on,,,,,0,0,1,,,0,,,78,55
45480,note_on,,,,,0,0,1,,,0,,,74,36
45502,note_off,,,,,22,0,1,,,0,,,74,64
45510,note_on,,,,,8,0,1,,,0,,,76,23
45532,note_off,,,,,22,0,1,,,0,,,76,64
45540,note_off,,,,,8,0,1,,,0,,,50,64
45540,note_on,,,,,0,0,1,,,0,,,74,31
45562,note_off,,,,,22,0,1,,,0,,,74,64
45570,note_off,,,,,8,0,1,,,0,,,62,64
45570,note_on,,,,,0,0,1,,,0,,,76,25
45592,note_off,,,,,22,0,1,,,0,,,76,64
45600,note_on,,,,,0,0,1,,,0,,,59,54
45600,note_on,,,,,0,0,1,,,0,,,74,32
45600,note_on,,,,,8,0,1,,,0,,,55,41
45622,note_off,,,,,22,0,1,,,0,,,74,64
45630,note_on,,,,,8,0,1,,,0,,,76,14
45652,note_off,,,,,22,0,1,,,0,,,76,64
45660,note_on,,,,,8,0,1,,,0,,,74,26
45682,note_off,,,,,22,0,1,,,0,,,74,64
45690,note_off,,,,,0,0,1,,,0,,,55,64
45690,note_off,,,,,8,0,1,,,0,,,59,64
45690,note_on,,,,,0,0,1,,,0,,,76,12
45712,note_off,,,,,22,0,1,,,0,,,76,64
45720,note_on,,,,,8,0,1,,,0,,,54,35
45720,note_on,,,,,0,0,1,,,0,,,57,52
45720,note_on,,,,,0,0,1,,,0,,,74,21
45742,note_off,,,,,22,0,1,,,0,,,74,64
45750,note_on,,,,,8,0,1,,,0,,,76,25
45772,note_off,,,,,22,0,1,,,0,,,76,64
45780,note_on,,,,,8,0,1,,,0,,,74,26
45802,note_off,,,,,22,0,1,,,0,,,74,64
45810,note_on,,,,,0,0,1,,,0,,,76,16
45810,note_off,,,,,8,0,1,,,0,,,57,64
45832,note_off,,,,,22,0,1,,,0,,,76,64
45840,note_on,,,,,0,0,1,,,0,,,74,21
45840,note_on,,,,,8,0,1,,,0,,,62,44
45862,note_off,,,,,22,0,1,,,0,,,74,64
45870,note_on,,,,,8,0,1,,,0,,,76,23
45892,note_off,,,,,22,0,1,,,0,,,76,64
45900,note_off,,,,,8,0,1,,,0,,,54,64
45900,note_on,,,,,0,0,1,,,0,,,74,26
45922,note_off,,,,,22,0,1,,,0,,,74,64
45930,note_off,,,,,8,0,1,,,0,,,62,64
45930,note_on,,,,,0,0,1,,,0,,,76,15
45952,note_off,,,,,22,0,1,,,0,,,76,64
45960,note_on,,,,,8,0,1,,,0,,,52,32
45960,note_on,,,,,0,0,1,,,0,,,74,29
45960,note_on,,,,,0,0,1,,,0,,,55,39
45982,note_off,,,,,22,0,1,,,0,,,74,64
45990,note_on,,,,,8,0,1,,,0,,,76,21
46012,note_off,,,,,22,0,1,,,0,,,76,64
46020,note_on,,,,,8,0,1,,,0,,,74,29
46042,note_off,,,,,22,0,1,,,0,,,74,64
46050,note_on,,,,,0,0,1,,,0,,,76,13
46050,note_off,,,,,8,0,1,,,0,,,55,64
46050,note_off,,,,,0,0,1,,,0,,,52,64
46072,note_off,,,,,22,0,1,,,0,,,76,64
46080,note_on,,,,,8,0,1,,,0,,,50,44
46080,note_on,,,,,0,0,1,,,0,,,54,55
46080,note_on,,,,,0,0,1,,,0,,,74,32
46102,note_off,,,,,22,0,1,,,0,,,74,64
46110,note_on,,,,,8,0,1,,,0,,,76,31
46132,note_off,,,,,22,0,1,,,0,,,76,64
46140,note_on,,,,,8,0,1,,,0,,,74,23
46156,note_off,,,,,16,0,1,,,0,,,78,64
46162,note_off,,,,,6,0,1,,,0,,,74,64
46170,note_off,,,,,8,0,1,,,0,,,54,64
46170,note_on,,,,,0,0,1,,,0,,,76,16
46192,note_off,,,,,22,0,1,,,0,,,76,64
46196,note_on,,,,,4,0,1,,,0,,,78,44
46200,note_on,,,,,0,0,1,,,0,,,74,23
46200,note_on,,,,,4,0,1,,,0,,,62,44
46200,note_on,,,,,0,0,1,,,0,,,81,56
46222,note_off,,,,,22,0,1,,,0,,,74,64
46230,note_on,,,,,8,0,1,,,0,,,76,16
46252,note_off,,,,,22,0,1,,,0,,,76,64
46260,note_off,,,,,8,0,1,,,0,,,50,64
46260,note_on,,,,,0,0,1,,,0,,,74,21
46282,note_off,,,,,22,0,1,,,0,,,74,64
46290,note_off,,,,,8,0,1,,,0,,,62,64
46290,note_on,,,,,0,0,1,,,0,,,76,10
46312,note_off,,,,,22,0,1,,,0,,,76,64
46320,note_on,,,,,8,0,1,,,0,,,55,34
46320,note_on,,,,,0,0,1,,,0,,,74,20
46320,note_on,,,,,0,0,1,,,0,,,59,45
46342,note_off,,,,,22,0,1,,,0,,,74,64
46350,note_on,,,,,8,0,1,,,0,,,76,15
46372,note_off,,,,,22,0,1,,,0,,,76,64
46380,note_on,,,,,8,0,1,,,0,,,74,26
46402,note_off,,,,,22,0,1,,,0,,,74,64
46410,note_off,,,,,8,0,1,,,0,,,59,64
46410,note_off,,,,,0,0,1,,,0,,,55,64
46410,note_on,,,,,0,0,1,,,0,,,76,15
46432,note_off,,,,,22,0,1,,,0,,,76,64
46440,note_on,,,,,0,0,1,,,0,,,57,47
46440,note_on,,,,,0,0,1,,,0,,,74,25
46440,note_on,,,,,8,0,1,,,0,,,54,44
46462,note_off,,,,,22,0,1,,,0,,,74,64
46470,note_on,,,,,8,0,1,,,0,,,76,14
46492,note_off,,,,,22,0,1,,,0,,,76,64
46500,note_on,,,,,8,0,1,,,0,,,74,29
46522,note_off,,,,,22,0,1,,,0,,,74,64
46530,note_off,,,,,8,0,1,,,0,,,57,64
46530,note_on,,,,,0,0,1,,,0,,,76,32
46552,note_off,,,,,22,0,1,,,0,,,76,64
46560,note_on,,,,,8,0,1,,,0,,,62,47
46560,note_on,,,,,0,0,1,,,0,,,74,31
46582,note_off,,,,,22,0,1,,,0,,,74,64
46590,note_on,,,,,8,0,1,,,0,,,76,23
46612,note_off,,,,,22,0,1,,,0,,,76,64
46620,note_off,,,,,8,0,1,,,0,,,54,64
46620,note_on,,,,,0,0,1,,,0,,,74,26
46642,note_off,,,,,22,0,1,,,0,,,74,64
46650,note_on,,,,,0,0,1,,,0,,,76,10
46650,note_off,,,,,8,0,1,,,0,,,62,64
46672,note_off,,,,,22,0,1,,,0,,,76,64
46680,note_on,,,,,0,0,1,,,0,,,55,41
46680,note_on,,,,,8,0,1,,,0,,,52,29
46680,note_on,,,,,0,0,1,,,0,,,74,15
46702,note_off,,,,,22,0,1,,,0,,,74,64
46710,note_on,,,,,8,0,1,,,0,,,76,12
46732,note_off,,,,,22,0,1,,,0,,,76,64
46740,note_on,,,,,8,0,1,,,0,,,74,25
46762,note_off,,,,,22,0,1,,,0,,,74,64
46770,note_off,,,,,8,0,1,,,0,,,55,64
46770,note_off,,,,,0,0,1,,,0,,,52,64
46770,note_on,,,,,0,0,1,,,0,,,76,12
46792,note_off,,,,,22,0,1,,,0,,,76,64
46800,note_on,,,,,8,0,1,,,0,,,50,62
46864,note_off,,,,,64,0,1,,,0,,,78,64
46884,note_off,,,,,20,0,1,,,0,,,81,64
46920,note_on,,,,,36,0,1,,,0,,,79,47
46920,note_on,,,,,0,0,1,,,0,,,76,44
46980,note_off,,,,,60,0,1,,,0,,,50,64
47010,note_off,,,,,30,0,1,,,0,,,76,64
47010,note_off,,,,,0,0,1,,,0,,,79,64
47040,note_on,,,,,30,0,1,,,0,,,62,50
47040,note_on,,,,,0,0,1,,,0,,,78,44
47040,note_on,,,,,0,0,1,,,0,,,74,32
47130,note_off,,,,,0,0,1,,,0,,,62,64
47130,note_off,,,,,0,0,1,,,0,,,74,64
47130,note_off,,,,,90,0,1,,,0,,,78,64
47160,note_on,,,,,30,0,1,,,0,,,61,54
47160,note_on,,,,,0,0,1,,,0,,,79,52
47160,note_on,,,,,0,0,1,,,0,,,76,47
47250,note_off,,,,,90,0,1,,,0,,,76,64
47250,note_off,,,,,0,0,1,,,0,,,79,64
47280,note_on,,,,,0,0,1,,,0,,,76,50
47280,note_on,,,,,30,0,1,,,0,,,79,52
47340,note_off,,,,,60,0,1,,,0,,,61,64
47370,note_off,,,,,30,0,1,,,0,,,76,64
47370,note_off,,,,,0,0,1,,,0,,,79,64
47400,note_on,,,,,0,0,1,,,0,,,78,50
47400,note_on,,,,,30,0,1,,,0,,,62,31
47400,note_on,,,,,0,0,1,,,0,,,74,41
47490,note_off,,,,,0,0,1,,,0,,,62,64
47490,note_off,,,,,90,0,1,,,0,,,78,64
47490,note_off,,,,,0,0,1,,,0,,,74,64
47520,note_on,,,,,0,0,1,,,0,,,76,62
47520,note_on,,,,,0,0,1,,,0,,,69,59
47520,note_on,,,,,0,0,1,,,0,,,45,62
47520,note_on,,,,,0,0,1,,,0,,,81,70
47520,note_on,,,,,30,0,1,,,0,,,57,59
47583,note_off,,,,,63,0,1,,,0,,,69,64
47590,note_off,,,,,7,0,1,,,0,,,76,64
47599,note_off,,,,,9,0,1,,,0,,,81,64
47633,note_on,,,,,34,0,1,,,0,,,81,20
47639,note_on,,,,,6,0,1,,,0,,,76,50
47639,note_on,,,,,0,0,1,,,0,,,69,36
47658,note_off,,,,,19,0,1,,,0,,,57,64
47659,note_off,,,,,1,0,1,,,0,,,76,64
47662,note_off,,,,,3,0,1,,,0,,,69,64
47665,note_off,,,,,3,0,1,,,0,,,81,64
47667,note_off,,,,,2,0,1,,,0,,,45,64
47759,note_on,,,,,92,0,1,,,0,,,81,70
47763,note_on,,,,,0,0,1,,,0,,,69,62
47763,note_on,,,,,4,0,1,,,0,,,74,59
47769,note_on,,,,,0,0,1,,,0,,,42,63
47769,note_on,,,,,6,0,1,,,0,,,54,55
47773,note_off,,,,,4,0,1,,,0,,,74,64
47776,note_off,,,,,3,0,1,,,0,,,42,64
47781,note_off,,,,,5,0,1,,,0,,,54,64
47781,note_off,,,,,0,0,1,,,0,,,69,64
47784,note_off,,,,,3,0,1,,,0,,,81,64
47875,note_on,,,,,91,0,1,,,0,,,69,59
47875,note_on,,,,,0,0,1,,,0,,,81,70
47881,note_on,,,,,0,0,1,,,0,,,57,70
47881,note_on,,,,,6,0,1,,,0,,,76,70
47881,note_on,,,,,0,0,1,,,0,,,45,67
47952,note_off,,,,,71,0,1,,,0,,,76,64
47952,note_off,,,,,0,0,1,,,0,,,69,64
47966,note_off,,,,,14,0,1,,,0,,,81,64
47987,note_off,,,,,21,0,1,,,0,,,45,64
47992,note_on,,,,,5,0,1,,,0,,,76,59
47995,note_on,,,,,0,0,1,,,0,,,81,52
47995,note_off,,,,,3,0,1,,,0,,,57,64
47996,note_on,,,,,1,0,1,,,0,,,69,56
48014,note_off,,,,,18,0,1,,,0,,,76,64
48017,note_off,,,,,3,0,1,,,0,,,69,64
48020,note_off,,,,,3,0,1,,,0,,,81,64
48112,note_on,,,,,0,0,1,,,0,,,69,62
48112,note_on,,,,,92,0,1,,,0,,,81,67
48118,note_on,,,,,0,0,1,,,0,,,62,59
48118,note_on,,,,,6,0,1,,,0,,,78,68
48124,note_on,,,,,6,0,1,,,0,,,50,62
48127,note_off,,,,,3,0,1,,,0,,,62,64
48132,note_off,,,,,5,0,1,,,0,,,69,64
48135,note_off,,,,,3,0,1,,,0,,,78,64
48138,note_off,,,,,3,0,1,,,0,,,81,64
48140,note_off,,,,,2,0,1,,,0,,,50,64
48226,note_on,,,,,0,0,1,,,0,,,81,70
48226,note_on,,,,,86,0,1,,,0,,,57,67
48230,note_on,,,,,4,0,1,,,0,,,76,67
48230,note_on,,,,,0,0,1,,,0,,,45,59
48231,note_on,,,,,1,0,1,,,0,,,69,59
48266,note_off,,,,,35,0,1,,,0,,,57,64
48266,note_off,,,,,0,0,1,,,0,,,76,64
48274,note_off,,,,,8,0,1,,,0,,,45,64
48276,note_off,,,,,2,0,1,,,0,,,81,64
48279,note_off,,,,,3,0,1,,,0,,,69,64
48339,note_on,,,,,60,0,1,,,0,,,81,67
48343,note_on,,,,,0,0,1,,,0,,,69,52
48343,note_on,,,,,4,0,1,,,0,,,74,52
48349,note_on,,,,,6,0,1,,,0,,,54,50
48350,note_on,,,,,1,0,1,,,0,,,42,55
48355,note_off,,,,,5,0,1,,,0,,,74,64
48359,note_off,,,,,4,0,1,,,0,,,42,64
48361,note_off,,,,,2,0,1,,,0,,,54,64
48361,note_off,,,,,0,0,1,,,0,,,69,64
48367,note_off,,,,,6,0,1,,,0,,,81,64
48461,note_on,,,,,94,0,1,,,0,,,69,59
48462,note_on,,,,,1,0,1,,,0,,,76,70
48467,note_on,,,,,5,0,1,,,0,,,81,70
48468,note_on,,,,,1,0,1,,,0,,,45,59
48473,note_off,,,,,5,0,1,,,0,,,45,64
48473,note_on,,,,,0,0,1,,,0,,,57,41
48479,note_off,,,,,6,0,1,,,0,,,69,64
48482,note_off,,,,,0,0,1,,,0,,,76,64
48482,note_off,,,,,3,0,1,,,0,,,57,64
48487,note_off,,,,,5,0,1,,,0,,,81,64
48574,note_on,,,,,87,0,1,,,0,,,81,70
48577,note_on,,,,,3,0,1,,,0,,,69,67
48577,note_on,,,,,0,0,1,,,0,,,78,68
48584,note_on,,,,,0,0,1,,,0,,,50,70
48584,note_on,,,,,7,0,1,,,0,,,62,67
48636,note_off,,,,,52,0,1,,,0,,,62,64
48641,note_off,,,,,5,0,1,,,0,,,69,64
48645,note_off,,,,,4,0,1,,,0,,,81,64
48645,note_off,,,,,0,0,1,,,0,,,50,64
48653,note_off,,,,,8,0,1,,,0,,,78,64
48694,note_on,,,,,41,0,1,,,0,,,45,39
48697,note_on,,,,,0,0,1,,,0,,,57,47
48697,note_on,,,,,3,0,1,,,0,,,81,70
48702,note_on,,,,,5,0,1,,,0,,,76,62
48702,note_on,,,,,0,0,1,,,0,,,69,56
48717,note_off,,,,,15,0,1,,,0,,,76,64
48720,note_off,,,,,3,0,1,,,0,,,69,64
48720,note_off,,,,,0,0,1,,,0,,,57,64
48725,note_off,,,,,0,0,1,,,0,,,45,64
48725,note_off,,,,,5,0,1,,,0,,,81,64
48811,note_on,,,,,86,0,1,,,0,,,81,67
48812,note_on,,,,,0,0,1,,,0,,,42,63
48812,note_on,,,,,0,0,1,,,0,,,69,59
48812,note_on,,,,,1,0,1,,,0,,,74,59
48821,note_on,,,,,9,0,1,,,0,,,54,58
48824,note_off,,,,,3,0,1,,,0,,,74,64
48827,note_off,,,,,3,0,1,,,0,,,54,64
48829,note_off,,,,,2,0,1,,,0,,,42,64
48829,note_off,,,,,0,0,1,,,0,,,69,64
48833,note_off,,,,,4,0,1,,,0,,,81,64
48922,note_on,,,,,89,0,1,,,0,,,81,67
48926,note_on,,,,,4,0,1,,,0,,,57,59
48926,note_on,,,,,0,0,1,,,0,,,76,67
48926,note_on,,,,,0,0,1,,,0,,,69,59
48927,note_on,,,,,1,0,1,,,0,,,45,59
48946,note_off,,,,,0,0,1,,,0,,,57,64
48946,note_off,,,,,19,0,1,,,0,,,76,64
48950,note_off,,,,,0,0,1,,,0,,,69,64
48950,note_off,,,,,4,0,1,,,0,,,45,64
48954,note_off,,,,,4,0,1,,,0,,,81,64
49049,note_on,,,,,95,0,1,,,0,,,69,56
49054,note_on,,,,,5,0,1,,,0,,,74,62
49054,note_on,,,,,0,0,1,,,0,,,42,63
49054,note_on,,,,,0,0,1,,,0,,,81,59
49060,note_on,,,,,6,0,1,,,0,,,54,55
49068,note_off,,,,,8,0,1,,,0,,,74,64
49071,note_off,,,,,3,0,1,,,0,,,54,64
49071,note_off,,,,,0,0,1,,,0,,,42,64
49071,note_off,,,,,0,0,1,,,0,,,69,64
49077,note_off,,,,,6,0,1,,,0,,,81,64
49080,set_tempo,,,,,8040,1,0,416667,,,,,,
49176,note_on,,,,,99,0,1,,,0,,,76,67
49180,note_on,,,,,4,0,1,,,0,,,81,67
49180,note_on,,,,,0,0,1,,,0,,,69,59
49187,note_on,,,,,7,0,1,,,0,,,57,41
49187,note_on,,,,,0,0,1,,,0,,,45,52
49191,note_off,,,,,4,0,1,,,0,,,45,64
49196,note_off,,,,,5,0,1,,,0,,,57,64
49196,note_off,,,,,0,0,1,,,0,,,69,64
49200,set_tempo,,,,,120,1,0,419580,,,,,,
49200,note_off,,,,,4,0,1,,,0,,,76,64
49202,note_off,,,,,2,0,1,,,0,,,81,64
49302,note_on,,,,,100,0,1,,,0,,,81,70
49307,note_on,,,,,0,0,1,,,0,,,78,68
49307,note_on,,,,,5,0,1,,,0,,,69,59
49313,note_on,,,,,6,0,1,,,0,,,62,52
49313,note_on,,,,,0,0,1,,,0,,,50,59
49320,note_off,,,,,7,0,1,,,0,,,62,64
49320,set_tempo,,,,,120,1,0,422535,,,,,,
49325,note_off,,,,,5,0,1,,,0,,,69,64
49330,note_off,,,,,5,0,1,,,0,,,81,64
49333,note_off,,,,,3,0,1,,,0,,,78,64
49333,note_off,,,,,0,0,1,,,0,,,50,64
49433,note_on,,,,,100,0,1,,,0,,,45,67
49436,note_on,,,,,3,0,1,,,0,,,57,52
49436,note_on,,,,,0,0,1,,,0,,,81,70
49436,note_on,,,,,0,0,1,,,0,,,69,67
49440,set_tempo,,,,,120,1,0,425532,,,,,,
49443,note_on,,,,,7,0,1,,,0,,,76,67
49447,note_off,,,,,4,0,1,,,0,,,57,64
49453,note_off,,,,,6,0,1,,,0,,,76,64
49456,note_off,,,,,3,0,1,,,0,,,45,64
49458,note_off,,,,,2,0,1,,,0,,,69,64
49462,note_off,,,,,4,0,1,,,0,,,81,64
49496,note_on,,,,,34,0,1,,,0,,,37,24
49507,note_off,,,,,11,0,1,,,0,,,37,64
49560,set_tempo,,,,,120,1,0,431655,,,,,,
49565,note_on,,,,,58,0,1,,,0,,,81,67
49569,note_on,,,,,4,0,1,,,0,,,74,70
49569,note_on,,,,,0,0,1,,,0,,,69,62
49575,note_on,,,,,6,0,1,,,0,,,38,62
49575,note_on,,,,,0,0,1,,,0,,,50,59
49584,note_off,,,,,9,0,1,,,0,,,50,64
49586,note_off,,,,,2,0,1,,,0,,,69,64
49589,note_off,,,,,3,0,1,,,0,,,74,64
49594,note_off,,,,,5,0,1,,,0,,,38,64
49597,note_off,,,,,3,0,1,,,0,,,81,64
49680,note_on,,,,,0,0,1,,,0,,,45,62
49680,note_on,,,,,0,0,1,,,0,,,76,31
49680,note_on,,,,,83,0,1,,,0,,,33,59
49680,set_tempo,,,,,120,1,0,434783,,,,,,
49702,note_off,,,,,22,0,1,,,0,,,76,64
49710,note_on,,,,,8,0,1,,,0,,,78,27
49732,note_off,,,,,22,0,1,,,0,,,78,64
49740,note_on,,,,,8,0,1,,,0,,,76,20
49762,note_off,,,,,22,0,1,,,0,,,76,64
49770,note_on,,,,,8,0,1,,,0,,,78,24
49792,note_off,,,,,22,0,1,,,0,,,78,64
49800,set_tempo,,,,,120,1,0,437956,,,,,,
49800,note_on,,,,,8,0,1,,,0,,,76,34
49822,note_off,,,,,22,0,1,,,0,,,76,64
49830,note_on,,,,,8,0,1,,,0,,,78,38
49852,note_off,,,,,22,0,1,,,0,,,78,64
49860,note_on,,,,,8,0,1,,,0,,,76,44
49882,note_off,,,,,22,0,1,,,0,,,76,64
49890,note_on,,,,,8,0,1,,,0,,,78,27
49912,note_off,,,,,22,0,1,,,0,,,78,64
49920,set_tempo,,,,,120,1,0,441176,,,,,,
49920,note_on,,,,,8,0,1,,,0,,,76,34
49942,note_off,,,,,22,0,1,,,0,,,76,64
49950,note_on,,,,,8,0,1,,,0,,,78,27
49972,note_off,,,,,22,0,1,,,0,,,78,64
49980,note_on,,,,,8,0,1,,,0,,,76,21
50002,note_off,,,,,22,0,1,,,0,,,76,64
50010,note_on,,,,,8,0,1,,,0,,,78,22
50020,note_off,,,,,10,0,1,,,0,,,45,64
50020,note_off,,,,,0,0,1,,,0,,,33,64
50032,note_off,,,,,12,0,1,,,0,,,78,64
50040,note_on,,,,,8,0,1,,,0,,,69,47
50040,set_tempo,,,,,120,1,0,444444,,,,,,
50047,note_on,,,,,7,0,1,,,0,,,57,30
50047,note_on,,,,,0,0,1,,,0,,,61,40
50151,note_off,,,,,104,0,1,,,0,,,57,64
50154,note_off,,,,,3,0,1,,,0,,,61,64
50158,note_on,,,,,4,0,1,,,0,,,62,34
50162,note_on,,,,,4,0,1,,,0,,,59,29
50175,note_off,,,,,13,0,1,,,0,,,69,64
50220,note_on,,,,,45,0,1,,,0,,,71,44
50242,note_off,,,,,22,0,1,,,0,,,71,64
50250,note_on,,,,,8,0,1,,,0,,,73,47
50256,note_off,,,,,6,0,1,,,0,,,62,64
50256,note_on,,,,,0,0,1,,,0,,,64,34
50261,note_on,,,,,5,0,1,,,0,,,61,43
50272,note_off,,,,,11,0,1,,,0,,,73,64
50280,note_on,,,,,8,0,1,,,0,,,74,39
50294,note_off,,,,,14,0,1,,,0,,,59,64
50300,note_off,,,,,6,0,1,,,0,,,64,64
50325,note_off,,,,,25,0,1,,,0,,,74,64
50340,note_on,,,,,15,0,1,,,0,,,76,62
50356,note_off,,,,,16,0,1,,,0,,,61,64
50369,note_on,,,,,13,0,1,,,0,,,66,42
50369,note_on,,,,,0,0,1,,,0,,,62,33
50385,note_off,,,,,16,0,1,,,0,,,76,64
50400,note_on,,,,,15,0,1,,,0,,,78,58
50400,set_tempo,,,,,360,1,0,413793,,,,,,
50490,note_off,,,,,90,0,1,,,0,,,78,64
50520,note_on,,,,,30,0,1,,,0,,,74,47
50535,control_change,,,,,15,0,1,,,0,64,64,,
50575,control_change,,,,,40,0,1,,,0,64,96,,
50610,note_off,,,,,35,0,1,,,0,,,74,64
50628,note_off,,,,,18,0,1,,,0,,,62,64
50640,note_on,,,,,12,0,1,,,0,,,71,44
50663,note_off,,,,,23,0,1,,,0,,,66,64
50730,note_off,,,,,67,0,1,,,0,,,71,64
50748,control_change,,,,,18,0,1,,,0,64,64,,
50756,control_change,,,,,8,0,1,,,0,64,0,,
50760,note_on,,,,,4,0,1,,,0,,,68,47
50763,note_on,,,,,3,0,1,,,0,,,59,18
50764,note_on,,,,,1,0,1,,,0,,,62,39
50830,control_change,,,,,66,0,1,,,0,64,64,,
50855,control_change,,,,,25,0,1,,,0,64,96,,
50879,note_off,,,,,24,0,1,,,0,,,59,64
50888,note_on,,,,,9,0,1,,,0,,,61,37
50893,note_on,,,,,0,0,1,,,0,,,64,34
50893,note_off,,,,,5,0,1,,,0,,,62,64
50895,note_off,,,,,2,0,1,,,0,,,68,64
50940,note_on,,,,,45,0,1,,,0,,,69,50
50962,note_off,,,,,22,0,1,,,0,,,69,64
50970,note_on,,,,,8,0,1,,,0,,,71,50
50992,note_off,,,,,22,0,1,,,0,,,71,64
50997,note_off,,,,,5,0,1,,,0,,,61,64
51000,note_on,,,,,3,0,1,,,0,,,73,55
51013,note_on,,,,,0,0,1,,,0,,,66,34
51013,note_on,,,,,13,0,1,,,0,,,62,39
51022,note_off,,,,,9,0,1,,,0,,,64,64
51045,note_off,,,,,23,0,1,,,0,,,73,64
51060,note_on,,,,,15,0,1,,,0,,,74,52
51090,control_change,,,,,30,0,1,,,0,64,64,,
51105,note_off,,,,,15,0,1,,,0,,,74,64
51110,control_change,,,,,5,0,1,,,0,64,0,,
51120,note_on,,,,,10,0,1,,,0,,,76,59
51127,note_off,,,,,7,0,1,,,0,,,62,64
51130,note_on,,,,,3,0,1,,,0,,,64,51
51131,note_on,,,,,1,0,1,,,0,,,61,43
51139,note_off,,,,,8,0,1,,,0,,,66,64
51210,note_off,,,,,71,0,1,,,0,,,76,64
51240,note_on,,,,,30,0,1,,,0,,,73,55
51267,control_change,,,,,27,0,1,,,0,64,64,,
51281,control_change,,,,,14,0,1,,,0,64,96,,
51314,note_off,,,,,33,0,1,,,0,,,64,64
51330,note_off,,,,,16,0,1,,,0,,,73,64
51348,note_off,,,,,18,0,1,,,0,,,61,64
51360,note_on,,,,,12,0,1,,,0,,,69,56
51450,note_off,,,,,90,0,1,,,0,,,69,64
51478,control_change,,,,,28,0,1,,,0,64,64,,
51480,note_on,,,,,2,0,1,,,0,,,66,44
51487,control_change,,,,,7,0,1,,,0,64,0,,
51492,note_on,,,,,5,0,1,,,0,,,61,43
51493,note_on,,,,,1,0,1,,,0,,,57,33
51602,note_off,,,,,109,0,1,,,0,,,57,64
51605,control_change,,,,,3,0,1,,,0,64,64,,
51607,note_on,,,,,2,0,1,,,0,,,62,39
51613,note_on,,,,,0,0,1,,,0,,,59,40
51613,note_off,,,,,6,0,1,,,0,,,61,64
51615,note_off,,,,,2,0,1,,,0,,,66,64
51660,control_change,,,,,45,0,1,,,0,64,96,,
51660,note_on,,,,,0,0,1,,,0,,,68,38
51682,note_off,,,,,22,0,1,,,0,,,68,64
51690,note_on,,,,,8,0,1,,,0,,,69,50
51712,note_off,,,,,22,0,1,,,0,,,69,64
51716,note_off,,,,,4,0,1,,,0,,,62,64
51720,note_on,,,,,0,0,1,,,0,,,71,41
51720,note_on,,,,,4,0,1,,,0,,,64,44
51729,note_on,,,,,0,0,1,,,0,,,61,52
51729,note_off,,,,,9,0,1,,,0,,,59,64
51765,note_off,,,,,36,0,1,,,0,,,71,64
51780,note_on,,,,,15,0,1,,,0,,,73,47
51825,note_off,,,,,45,0,1,,,0,,,73,64
51835,control_change,,,,,10,0,1,,,0,64,64,,
51840,note_on,,,,,5,0,1,,,0,,,74,59
51847,note_off,,,,,7,0,1,,,0,,,61,64
51851,note_on,,,,,4,0,1,,,0,,,62,44
51857,control_change,,,,,6,0,1,,,0,64,0,,
51859,note_on,,,,,0,0,1,,,0,,,59,47
51859,note_off,,,,,2,0,1,,,0,,,64,64
51930,note_off,,,,,71,0,1,,,0,,,74,64
51960,note_on,,,,,30,0,1,,,0,,,71,50
51980,control_change,,,,,20,0,1,,,0,64,64,,
52004,control_change,,,,,24,0,1,,,0,64,96,,
52044,note_off,,,,,40,0,1,,,0,,,62,64
52050,note_off,,,,,6,0,1,,,0,,,71,64
52050,note_off,,,,,0,0,1,,,0,,,59,64
52080,note_on,,,,,30,0,1,,,0,,,68,55
52170,note_off,,,,,90,0,1,,,0,,,68,64
52187,control_change,,,,,17,0,1,,,0,64,64,,
52200,note_on,,,,,0,0,1,,,0,,,64,39
52200,control_change,,,,,13,0,1,,,0,64,0,,
52204,note_on,,,,,0,0,1,,,0,,,59,45
52204,note_on,,,,,4,0,1,,,0,,,56,45
52296,control_change,,,,,92,0,1,,,0,64,64,,
52312,note_off,,,,,16,0,1,,,0,,,56,64
52321,note_on,,,,,9,0,1,,,0,,,61,50
52326,note_off,,,,,5,0,1,,,0,,,59,64
52326,note_on,,,,,0,0,1,,,0,,,57,37
52334,control_change,,,,,8,0,1,,,0,64,96,,
52335,note_off,,,,,1,0,1,,,0,,,64,64
52380,note_on,,,,,45,0,1,,,0,,,66,47
52402,note_off,,,,,22,0,1,,,0,,,66,64
52410,note_on,,,,,8,0,1,,,0,,,68,44
52432,note_off,,,,,22,0,1,,,0,,,68,64
52440,note_on,,,,,8,0,1,,,0,,,62,37
52440,note_on,,,,,0,0,1,,,0,,,69,56
52449,note_off,,,,,9,0,1,,,0,,,57,64
52449,note_off,,,,,0,0,1,,,0,,,61,64
52450,note_on,,,,,1,0,1,,,0,,,59,53
52485,note_off,,,,,35,0,1,,,0,,,69,64
52500,note_on,,,,,15,0,1,,,0,,,71,50
52545,note_off,,,,,45,0,1,,,0,,,71,64
52552,note_off,,,,,7,0,1,,,0,,,59,64
52559,control_change,,,,,7,0,1,,,0,64,64,,
52560,note_on,,,,,1,0,1,,,0,,,73,38
52571,control_change,,,,,11,0,1,,,0,64,0,,
52573,note_off,,,,,2,0,1,,,0,,,62,64
52573,note_on,,,,,0,0,1,,,0,,,61,43
52582,note_on,,,,,9,0,1,,,0,,,57,39
52605,note_off,,,,,23,0,1,,,0,,,73,64
52620,note_on,,,,,15,0,1,,,0,,,73,47
52647,note_off,,,,,27,0,1,,,0,,,57,64
52665,note_off,,,,,18,0,1,,,0,,,73,64
52680,note_on,,,,,15,0,1,,,0,,,73,38
52684,control_change,,,,,4,0,1,,,0,64,64,,
52694,note_on,,,,,0,0,1,,,0,,,57,6
52694,note_off,,,,,10,0,1,,,0,,,61,64
52702,control_change,,,,,8,0,1,,,0,64,96,,
52725,note_off,,,,,23,0,1,,,0,,,73,64
52740,note_on,,,,,15,0,1,,,0,,,73,32
52785,note_off,,,,,45,0,1,,,0,,,73,64
52793,note_off,,,,,8,0,1,,,0,,,57,64
52800,note_on,,,,,7,0,1,,,0,,,73,22
52808,note_on,,,,,8,0,1,,,0,,,56,45
52831,control_change,,,,,23,0,1,,,0,64,127,,
52844,note_off,,,,,13,0,1,,,0,,,56,64
52845,note_off,,,,,1,0,1,,,0,,,73,64
52860,note_on,,,,,15,0,1,,,0,,,73,32
52901,control_change,,,,,41,0,1,,,0,64,96,,
52905,note_off,,,,,4,0,1,,,0,,,73,64
52908,control_change,,,,,3,0,1,,,0,64,64,,
52918,control_change,,,,,10,0,1,,,0,64,0,,
52920,note_on,,,,,2,0,1,,,0,,,73,38
52934,note_on,,,,,14,0,1,,,0,,,54,49
52948,note_off,,,,,14,0,1,,,0,,,54,64
52952,control_change,,,,,4,0,1,,,0,64,64,,
52960,control_change,,,,,8,0,1,,,0,64,96,,
52965,note_off,,,,,5,0,1,,,0,,,73,64
52980,note_on,,,,,0,0,1,,,0,,,73,38
52980,control_change,,,,,15,0,1,,,0,64,127,,
53025,note_off,,,,,45,0,1,,,0,,,73,64
53040,note_on,,,,,15,0,1,,,0,,,73,38
53048,note_on,,,,,8,0,1,,,0,,,69,42
53060,control_change,,,,,12,0,1,,,0,64,96,,
53085,note_off,,,,,25,0,1,,,0,,,73,64
53091,control_change,,,,,6,0,1,,,0,64,127,,
53100,note_on,,,,,9,0,1,,,0,,,73,19
53145,note_off,,,,,45,0,1,,,0,,,73,64
53160,note_on,,,,,15,0,1,,,0,,,73,20
53167,note_on,,,,,7,0,1,,,0,,,64,39
53172,note_off,,,,,5,0,1,,,0,,,69,64
53205,note_off,,,,,33,0,1,,,0,,,73,64
53220,note_on,,,,,15,0,1,,,0,,,73,27
53265,note_off,,,,,45,0,1,,,0,,,73,64
53269,control_change,,,,,4,0,1,,,0,64,96,,
53273,note_off,,,,,4,0,1,,,0,,,64,64
53279,control_change,,,,,6,0,1,,,0,64,64,,
53280,note_on,,,,,1,0,1,,,0,,,78,58
53281,note_on,,,,,1,0,1,,,0,,,63,49
53291,control_change,,,,,10,0,1,,,0,64,0,,
53370,note_off,,,,,79,0,1,,,0,,,78,64
53400,note_on,,,,,30,0,1,,,0,,,71,36
53490,note_off,,,,,90,0,1,,,0,,,71,64
53520,note_on,,,,,30,0,1,,,0,,,69,39
53523,note_on,,,,,3,0,1,,,0,,,59,40
53556,note_off,,,,,33,0,1,,,0,,,63,64
53562,control_change,,,,,6,0,1,,,0,64,64,,
53575,control_change,,,,,13,0,1,,,0,64,96,,
53595,note_off,,,,,20,0,1,,,0,,,59,64
53610,note_off,,,,,15,0,1,,,0,,,69,64
53640,note_on,,,,,30,0,1,,,0,,,71,20
53679,control_change,,,,,39,0,1,,,0,64,64,,
53685,note_off,,,,,6,0,1,,,0,,,71,64
53700,note_on,,,,,15,0,1,,,0,,,71,31
53745,note_off,,,,,45,0,1,,,0,,,71,64
53748,control_change,,,,,3,0,1,,,0,64,0,,
53760,note_on,,,,,12,0,1,,,0,,,71,23
53769,note_on,,,,,9,0,1,,,0,,,68,49
53805,note_off,,,,,36,0,1,,,0,,,71,64
53820,note_on,,,,,15,0,1,,,0,,,71,26
53865,note_off,,,,,45,0,1,,,0,,,71,64
53880,note_on,,,,,15,0,1,,,0,,,71,21
53890,note_on,,,,,10,0,1,,,0,,,66,49
53904,note_off,,,,,14,0,1,,,0,,,68,64
53925,note_off,,,,,21,0,1,,,0,,,71,64
53940,note_on,,,,,15,0,1,,,0,,,71,29
53985,note_off,,,,,45,0,1,,,0,,,71,64
54000,note_on,,,,,15,0,1,,,0,,,71,41
54006,note_off,,,,,6,0,1,,,0,,,66,64
54006,note_on,,,,,0,0,1,,,0,,,64,51
54045,note_off,,,,,39,0,1,,,0,,,71,64
54060,note_on,,,,,15,0,1,,,0,,,71,26
54105,note_off,,,,,45,0,1,,,0,,,71,64
54120,note_on,,,,,15,0,1,,,0,,,71,34
54127,note_off,,,,,7,0,1,,,0,,,64,64
54130,note_on,,,,,3,0,1,,,0,,,68,37
54165,note_off,,,,,35,0,1,,,0,,,71,64
54180,note_on,,,,,15,0,1,,,0,,,71,29
54207,control_change,,,,,27,0,1,,,0,64,64,,
54225,note_off,,,,,18,0,1,,,0,,,71,64
54240,note_on,,,,,15,0,1,,,0,,,71,32
54248,note_on,,,,,8,0,1,,,0,,,62,39
54259,note_off,,,,,11,0,1,,,0,,,68,64
54285,note_off,,,,,26,0,1,,,0,,,71,64
54300,note_on,,,,,15,0,1,,,0,,,71,25
54321,note_off,,,,,21,0,1,,,0,,,62,64
54329,control_change,,,,,8,0,1,,,0,64,0,,
54345,note_off,,,,,16,0,1,,,0,,,71,64
54360,note_on,,,,,15,0,1,,,0,,,80,50
54450,note_off,,,,,90,0,1,,,0,,,80,64
54480,note_on,,,,,30,0,1,,,0,,,73,44
54483,note_on,,,,,3,0,1,,,0,,,61,45
54570,note_off,,,,,87,0,1,,,0,,,73,64
54578,control_change,,,,,8,0,1,,,0,64,64,,
54600,note_on,,,,,22,0,1,,,0,,,71,21
54603,note_on,,,,,3,0,1,,,0,,,65,47
54626,note_off,,,,,23,0,1,,,0,,,61,64
54671,note_off,,,,,45,0,1,,,0,,,65,64
54690,note_off,,,,,19,0,1,,,0,,,71,64
54695,control_change,,,,,5,0,1,,,0,64,0,,
54720,note_on,,,,,25,0,1,,,0,,,69,36
54765,note_off,,,,,45,0,1,,,0,,,69,64
54780,note_on,,,,,15,0,1,,,0,,,69,34
54825,note_off,,,,,45,0,1,,,0,,,69,64
54840,note_on,,,,,15,0,1,,,0,,,69,34
54846,note_on,,,,,6,0,1,,,0,,,66,42
54885,note_off,,,,,39,0,1,,,0,,,69,64
54900,note_on,,,,,15,0,1,,,0,,,69,26
54945,note_off,,,,,45,0,1,,,0,,,69,64
54960,note_on,,,,,15,0,1,,,0,,,69,29
54968,note_on,,,,,8,0,1,,,0,,,64,44
54973,note_off,,,,,5,0,1,,,0,,,66,64
55005,note_off,,,,,32,0,1,,,0,,,69,64
55020,note_on,,,,,15,0,1,,,0,,,69,20
55065,note_off,,,,,45,0,1,,,0,,,69,64
55080,note_on,,,,,15,0,1,,,0,,,69,44
55087,note_on,,,,,7,0,1,,,0,,,63,53
55093,note_off,,,,,6,0,1,,,0,,,64,64
55105,control_change,,,,,12,0,1,,,0,64,64,,
55125,note_off,,,,,20,0,1,,,0,,,69,64
55140,note_on,,,,,15,0,1,,,0,,,69,29
55185,note_off,,,,,45,0,1,,,0,,,69,64
55200,note_on,,,,,15,0,1,,,0,,,69,29
55207,note_off,,,,,7,0,1,,,0,,,63,64
55207,note_on,,,,,0,0,1,,,0,,,66,34
55245,note_off,,,,,38,0,1,,,0,,,69,64
55260,note_on,,,,,15,0,1,,,0,,,69,26
55305,note_off,,,,,45,0,1,,,0,,,69,64
55319,note_on,,,,,14,0,1,,,0,,,61,50
55320,note_on,,,,,1,0,1,,,0,,,69,31
55334,note_off,,,,,14,0,1,,,0,,,66,64
55365,note_off,,,,,31,0,1,,,0,,,69,64
55378,note_off,,,,,13,0,1,,,0,,,61,64
55380,note_on,,,,,2,0,1,,,0,,,69,32
55421,control_change,,,,,41,0,1,,,0,64,0,,
55425,note_off,,,,,4,0,1,,,0,,,69,64
55440,note_on,,,,,15,0,1,,,0,,,78,63
55530,note_off,,,,,90,0,1,,,0,,,78,64
55560,note_on,,,,,30,0,1,,,0,,,71,34
55563,note_on,,,,,3,0,1,,,0,,,59,51
55650,note_off,,,,,87,0,1,,,0,,,71,64
55680,note_on,,,,,30,0,1,,,0,,,69,47
55686,note_on,,,,,6,0,1,,,0,,,63,42
55731,note_off,,,,,45,0,1,,,0,,,59,64
55770,note_off,,,,,39,0,1,,,0,,,69,64
55794,note_off,,,,,24,0,1,,,0,,,63,64
55800,note_on,,,,,6,0,1,,,0,,,68,47
55806,note_on,,,,,6,0,1,,,0,,,64,51
55845,note_off,,,,,39,0,1,,,0,,,68,64
55860,note_on,,,,,15,0,1,,,0,,,71,50
55879,control_change,,,,,19,0,1,,,0,64,64,,
55902,control_change,,,,,23,0,1,,,0,64,96,,
55905,note_off,,,,,3,0,1,,,0,,,71,64
55920,note_on,,,,,15,0,1,,,0,,,69,47
55965,note_off,,,,,45,0,1,,,0,,,69,64
55980,note_on,,,,,15,0,1,,,0,,,68,44
56025,note_off,,,,,45,0,1,,,0,,,68,64
56033,note_on,,,,,8,0,1,,,0,,,56,45
56037,note_off,,,,,4,0,1,,,0,,,64,64
56040,note_on,,,,,3,0,1,,,0,,,66,32
56052,control_change,,,,,12,0,1,,,0,64,127,,
56070,note_off,,,,,18,0,1,,,0,,,56,64
56085,note_off,,,,,15,0,1,,,0,,,66,64
56100,note_on,,,,,15,0,1,,,0,,,64,33
56145,note_off,,,,,45,0,1,,,0,,,64,64
56147,control_change,,,,,2,0,1,,,0,64,96,,
56156,control_change,,,,,9,0,1,,,0,64,64,,
56160,note_on,,,,,4,0,1,,,0,,,64,51
56160,note_on,,,,,0,0,1,,,0,,,73,50
56160,note_on,,,,,0,0,1,,,0,,,57,44
56170,control_change,,,,,10,0,1,,,0,64,0,,
56205,note_off,,,,,35,0,1,,,0,,,73,64
56220,note_on,,,,,15,0,1,,,0,,,73,50
56221,control_change,,,,,1,0,1,,,0,64,64,,
56233,control_change,,,,,12,0,1,,,0,64,96,,
56265,note_off,,,,,32,0,1,,,0,,,73,64
56280,note_on,,,,,15,0,1,,,0,,,71,26
56325,note_off,,,,,45,0,1,,,0,,,71,64
56340,note_on,,,,,15,0,1,,,0,,,69,50
56385,note_off,,,,,45,0,1,,,0,,,69,64
56400,note_on,,,,,15,0,1,,,0,,,68,40
56409,note_off,,,,,9,0,1,,,0,,,64,64
56413,note_on,,,,,4,0,1,,,0,,,54,49
56418,note_off,,,,,5,0,1,,,0,,,57,64
56439,note_off,,,,,21,0,1,,,0,,,54,64
56445,note_off,,,,,6,0,1,,,0,,,68,64
56460,note_on,,,,,15,0,1,,,0,,,66,40
56505,note_off,,,,,45,0,1,,,0,,,66,64
56518,control_change,,,,,13,0,1,,,0,64,0,,
56520,note_on,,,,,2,0,1,,,0,,,71,52
56529,note_on,,,,,0,0,1,,,0,,,64,46
56529,note_on,,,,,9,0,1,,,0,,,56,52
56565,note_off,,,,,36,0,1,,,0,,,71,64
56580,note_on,,,,,15,0,1,,,0,,,71,50
56587,control_change,,,,,7,0,1,,,0,64,64,,
56598,control_change,,,,,11,0,1,,,0,64,96,,
56617,control_change,,,,,19,0,1,,,0,64,127,,
56625,note_off,,,,,8,0,1,,,0,,,71,64
56640,note_on,,,,,15,0,1,,,0,,,69,50
56647,note_off,,,,,7,0,1,,,0,,,56,64
56653,note_off,,,,,6,0,1,,,0,,,64,64
56685,note_off,,,,,32,0,1,,,0,,,69,64
56700,note_on,,,,,15,0,1,,,0,,,68,38
56745,note_off,,,,,45,0,1,,,0,,,68,64
56748,control_change,,,,,3,0,1,,,0,64,96,,
56758,control_change,,,,,10,0,1,,,0,64,64,,
56760,note_on,,,,,2,0,1,,,0,,,66,44
56765,control_change,,,,,5,0,1,,,0,64,0,,
56776,note_on,,,,,11,0,1,,,0,,,52,59
56791,control_change,,,,,15,0,1,,,0,64,64,,
56799,control_change,,,,,8,0,1,,,0,64,96,,
56805,note_off,,,,,6,0,1,,,0,,,66,64
56807,control_change,,,,,2,0,1,,,0,64,127,,
56813,note_off,,,,,6,0,1,,,0,,,52,64
56820,note_on,,,,,7,0,1,,,0,,,64,34
56865,note_off,,,,,45,0,1,,,0,,,64,64
56880,note_on,,,,,15,0,1,,,0,,,73,55
56883,control_change,,,,,3,0,1,,,0,64,96,,
56891,note_on,,,,,8,0,1,,,0,,,57,47
56895,control_change,,,,,4,0,1,,,0,64,0,,
56897,note_on,,,,,2,0,1,,,0,,,64,49
56925,note_off,,,,,28,0,1,,,0,,,73,64
56930,control_change,,,,,5,0,1,,,0,64,64,,
56939,control_change,,,,,9,0,1,,,0,64,96,,
56940,note_on,,,,,1,0,1,,,0,,,73,63
56949,control_change,,,,,9,0,1,,,0,64,127,,
56985,note_off,,,,,36,0,1,,,0,,,73,64
57000,note_off,,,,,15,0,1,,,0,,,64,64
57000,note_on,,,,,0,0,1,,,0,,,71,47
57019,note_off,,,,,19,0,1,,,0,,,57,64
57045,note_off,,,,,26,0,1,,,0,,,71,64
57060,note_on,,,,,15,0,1,,,0,,,69,44
57105,note_off,,,,,45,0,1,,,0,,,69,64
57118,control_change,,,,,13,0,1,,,0,64,96,,
57120,note_on,,,,,2,0,1,,,0,,,68,40
57126,control_change,,,,,6,0,1,,,0,64,0,,
57144,note_on,,,,,18,0,1,,,0,,,54,62
57161,control_change,,,,,17,0,1,,,0,64,64,,
57165,note_off,,,,,4,0,1,,,0,,,68,64
57170,control_change,,,,,5,0,1,,,0,64,96,,
57175,note_off,,,,,5,0,1,,,0,,,54,64
57180,note_on,,,,,0,0,1,,,0,,,66,50
57180,control_change,,,,,5,0,1,,,0,64,127,,
57225,note_off,,,,,45,0,1,,,0,,,66,64
57240,note_on,,,,,15,0,1,,,0,,,76,56
57250,control_change,,,,,10,0,1,,,0,64,96,,
57253,note_on,,,,,3,0,1,,,0,,,56,56
57256,note_on,,,,,3,0,1,,,0,,,64,46
57263,control_change,,,,,7,0,1,,,0,64,0,,
57285,note_off,,,,,22,0,1,,,0,,,76,64
57298,control_change,,,,,13,0,1,,,0,64,64,,
57300,note_on,,,,,2,0,1,,,0,,,76,59
57309,control_change,,,,,9,0,1,,,0,64,96,,
57316,control_change,,,,,7,0,1,,,0,64,127,,
57345,note_off,,,,,29,0,1,,,0,,,76,64
57360,note_on,,,,,15,0,1,,,0,,,75,55
57398,note_off,,,,,38,0,1,,,0,,,56,64
57405,note_off,,,,,7,0,1,,,0,,,75,64
57420,note_on,,,,,15,0,1,,,0,,,73,50
57465,note_off,,,,,45,0,1,,,0,,,73,64
57466,control_change,,,,,1,0,1,,,0,64,96,,
57476,control_change,,,,,10,0,1,,,0,64,64,,
57480,note_on,,,,,4,0,1,,,0,,,71,36
57484,control_change,,,,,4,0,1,,,0,64,0,,
57489,note_off,,,,,5,0,1,,,0,,,64,64
57489,note_on,,,,,0,0,1,,,0,,,57,59
57525,note_off,,,,,36,0,1,,,0,,,71,64
57540,note_on,,,,,15,0,1,,,0,,,69,44
57585,note_off,,,,,45,0,1,,,0,,,69,64
57600,note_on,,,,,15,0,1,,,0,,,68,40
57600,note_on,,,,,0,0,1,,,0,,,59,53
57607,note_off,,,,,7,0,1,,,0,,,57,64
57645,note_off,,,,,38,0,1,,,0,,,68,64
57660,note_on,,,,,15,0,1,,,0,,,69,52
57705,note_off,,,,,45,0,1,,,0,,,69,64
57720,note_on,,,,,15,0,1,,,0,,,71,47
57765,note_off,,,,,45,0,1,,,0,,,71,64
57780,note_on,,,,,15,0,1,,,0,,,64,44
57825,note_off,,,,,45,0,1,,,0,,,64,64
57840,note_on,,,,,15,0,1,,,0,,,66,40
57853,note_on,,,,,0,0,1,,,0,,,47,44
57853,note_off,,,,,13,0,1,,,0,,,59,64
57885,note_off,,,,,32,0,1,,,0,,,66,64
57900,note_on,,,,,15,0,1,,,0,,,63,44
57929,note_off,,,,,29,0,1,,,0,,,47,64
57945,note_off,,,,,16,0,1,,,0,,,63,64
57963,note_on,,,,,18,0,1,,,0,,,40,50
57967,note_on,,,,,4,0,1,,,0,,,64,60
58030,control_change,,,,,63,0,1,,,0,64,64,,
58036,control_change,,,,,6,0,1,,,0,64,96,,
58041,control_change,,,,,5,0,1,,,0,64,127,,
58083,note_off,,,,,42,0,1,,,0,,,64,64
58204,note_on,,,,,121,0,1,,,0,,,76,62
58227,note_off,,,,,23,0,1,,,0,,,40,64
58231,note_off,,,,,4,0,1,,,0,,,76,64
58324,control_change,,,,,93,0,1,,,0,64,96,,
58326,note_on,,,,,2,0,1,,,0,,,40,56
58326,note_on,,,,,0,0,1,,,0,,,76,56
58330,note_on,,,,,4,0,1,,,0,,,77,62
58334,control_change,,,,,4,0,1,,,0,64,0,,
58346,control_change,,,,,12,0,1,,,0,64,64,,
58352,control_change,,,,,6,0,1,,,0,64,127,,
58440,note_off,,,,,88,0,1,,,0,,,77,64
58445,note_off,,,,,5,0,1,,,0,,,76,64
58452,note_on,,,,,7,0,1,,,0,,,74,47
58503,note_off,,,,,51,0,1,,,0,,,74,64
58570,note_on,,,,,67,0,1,,,0,,,76,56
58575,note_on,,,,,5,0,1,,,0,,,72,50
58596,note_off,,,,,0,0,1,,,0,,,40,64
58596,note_off,,,,,21,0,1,,,0,,,72,64
58605,note_off,,,,,9,0,1,,,0,,,76,64
58689,note_on,,,,,84,0,1,,,0,,,72,56
58689,note_on,,,,,0,0,1,,,0,,,40,59
58694,note_on,,,,,5,0,1,,,0,,,74,67
58699,control_change,,,,,5,0,1,,,0,64,64,,
58705,control_change,,,,,6,0,1,,,0,64,0,,
58718,control_change,,,,,13,0,1,,,0,64,64,,
58724,control_change,,,,,6,0,1,,,0,64,127,,
58798,note_off,,,,,74,0,1,,,0,,,74,64
58803,note_off,,,,,5,0,1,,,0,,,72,64
58812,note_on,,,,,9,0,1,,,0,,,71,41
58863,note_off,,,,,51,0,1,,,0,,,71,64
58933,note_on,,,,,70,0,1,,,0,,,72,52
58942,note_on,,,,,9,0,1,,,0,,,69,44
58963,note_off,,,,,21,0,1,,,0,,,69,64
58963,note_off,,,,,0,0,1,,,0,,,40,64
58987,note_off,,,,,24,0,1,,,0,,,72,64
59050,control_change,,,,,63,0,1,,,0,64,96,,
59052,note_on,,,,,0,0,1,,,0,,,40,56
59052,note_on,,,,,2,0,1,,,0,,,69,56
59052,note_on,,,,,0,0,1,,,0,,,71,52
59062,control_change,,,,,10,0,1,,,0,64,0,,
59092,control_change,,,,,30,0,1,,,0,64,64,,
59098,control_change,,,,,6,0,1,,,0,64,127,,
59156,note_off,,,,,58,0,1,,,0,,,71,64
59161,note_off,,,,,5,0,1,,,0,,,69,64
59169,note_on,,,,,8,0,1,,,0,,,67,50
59234,note_off,,,,,65,0,1,,,0,,,67,64
59280,note_on,,,,,46,0,1,,,0,,,69,50
59280,note_on,,,,,0,0,1,,,0,,,65,50
59302,note_off,,,,,22,0,1,,,0,,,40,64
59381,note_off,,,,,79,0,1,,,0,,,65,64
59388,note_off,,,,,7,0,1,,,0,,,69,64
59397,note_on,,,,,9,0,1,,,0,,,40,47
59400,note_on,,,,,3,0,1,,,0,,,64,64
59405,control_change,,,,,5,0,1,,,0,64,64,,
59411,control_change,,,,,6,0,1,,,0,64,0,,
59460,control_change,,,,,49,0,1,,,0,64,64,,
59466,control_change,,,,,6,0,1,,,0,64,127,,
59522,note_off,,,,,56,0,1,,,0,,,64,64
59525,note_on,,,,,3,0,1,,,0,,,68,55
59632,note_off,,,,,107,0,1,,,0,,,68,64
59644,note_on,,,,,12,0,1,,,0,,,64,47
59656,note_off,,,,,12,0,1,,,0,,,40,64
59659,note_off,,,,,3,0,1,,,0,,,64,64
59759,control_change,,,,,100,0,1,,,0,64,96,,
59761,note_on,,,,,2,0,1,,,0,,,40,62
59761,note_on,,,,,0,0,1,,,0,,,64,55
59761,note_on,,,,,0,0,1,,,0,,,65,56
59772,control_change,,,,,11,0,1,,,0,64,0,,
59811,control_change,,,,,39,0,1,,,0,64,64,,
59817,control_change,,,,,6,0,1,,,0,64,127,,
59878,note_off,,,,,61,0,1,,,0,,,65,64
59882,note_off,,,,,4,0,1,,,0,,,64,64
59888,note_on,,,,,6,0,1,,,0,,,62,44
59960,note_off,,,,,72,0,1,,,0,,,62,64
60000,note_on,,,,,40,0,1,,,0,,,64,60
60004,note_on,,,,,4,0,1,,,0,,,60,52
60017,note_off,,,,,13,0,1,,,0,,,40,64
60030,note_off,,,,,13,0,1,,,0,,,60,64
60033,note_off,,,,,3,0,1,,,0,,,64,64
60118,control_change,,,,,85,0,1,,,0,64,64,,
60120,note_on,,,,,2,0,1,,,0,,,40,52
60124,note_on,,,,,4,0,1,,,0,,,62,62
60124,note_on,,,,,0,0,1,,,0,,,60,47
60131,control_change,,,,,7,0,1,,,0,64,0,,
60163,control_change,,,,,32,0,1,,,0,64,64,,
60169,control_change,,,,,6,0,1,,,0,64,127,,
60217,note_off,,,,,48,0,1,,,0,,,62,64
60226,note_off,,,,,9,0,1,,,0,,,60,64
60234,note_on,,,,,8,0,1,,,0,,,59,54
60300,note_off,,,,,66,0,1,,,0,,,59,64
60357,note_on,,,,,57,0,1,,,0,,,57,56
60358,note_on,,,,,1,0,1,,,0,,,60,52
60381,note_off,,,,,23,0,1,,,0,,,40,64
60386,note_off,,,,,5,0,1,,,0,,,57,64
60394,note_off,,,,,8,0,1,,,0,,,60,64
60475,note_on,,,,,81,0,1,,,0,,,59,51
60479,control_change,,,,,4,0,1,,,0,64,64,,
60480,note_on,,,,,0,0,1,,,0,,,40,56
60480,note_on,,,,,1,0,1,,,0,,,57,52
60488,control_change,,,,,8,0,1,,,0,64,0,,
60506,note_off,,,,,18,0,1,,,0,,,57,64
60512,control_change,,,,,6,0,1,,,0,64,64,,
60517,control_change,,,,,5,0,1,,,0,64,127,,
60599,note_on,,,,,0,0,1,,,0,,,56,59
60599,note_off,,,,,82,0,1,,,0,,,59,64
60716,note_off,,,,,117,0,1,,,0,,,56,64
60721,note_on,,,,,5,0,1,,,0,,,53,60
60744,note_off,,,,,23,0,1,,,0,,,40,64
60754,note_off,,,,,10,0,1,,,0,,,53,64
60839,note_on,,,,,85,0,1,,,0,,,52,62
60842,note_on,,,,,3,0,1,,,0,,,40,44
60851,control_change,,,,,9,0,1,,,0,64,64,,
60857,control_change,,,,,6,0,1,,,0,64,0,,
60895,control_change,,,,,38,0,1,,,0,64,64,,
60901,control_change,,,,,6,0,1,,,0,64,127,,
60969,note_on,,,,,68,0,1,,,0,,,56,62
60979,note_off,,,,,10,0,1,,,0,,,52,64
60995,note_off,,,,,16,0,1,,,0,,,40,64
61074,note_off,,,,,79,0,1,,,0,,,56,64
61085,note_on,,,,,11,0,1,,,0,,,64,55
61096,note_off,,,,,11,0,1,,,0,,,64,64
61180,control_change,,,,,84,0,1,,,0,64,64,,
61186,control_change,,,,,6,0,1,,,0,64,0,,
61188,note_on,,,,,2,0,1,,,0,,,65,52
61198,note_on,,,,,10,0,1,,,0,,,50,47
61201,note_on,,,,,3,0,1,,,0,,,57,41
61207,note_on,,,,,6,0,1,,,0,,,67,70
61213,note_off,,,,,6,0,1,,,0,,,65,64
61231,note_on,,,,,18,0,1,,,0,,,65,62
61235,note_off,,,,,4,0,1,,,0,,,67,64
61269,control_change,,,,,34,0,1,,,0,64,64,,
61275,control_change,,,,,6,0,1,,,0,64,127,,
61331,note_off,,,,,56,0,1,,,0,,,65,64
61334,note_on,,,,,3,0,1,,,0,,,64,64
61359,note_off,,,,,25,0,1,,,0,,,57,64
61446,note_off,,,,,87,0,1,,,0,,,64,64
61450,note_on,,,,,4,0,1,,,0,,,69,50
61458,note_on,,,,,8,0,1,,,0,,,65,56
61552,note_off,,,,,94,0,1,,,0,,,50,64
61557,control_change,,,,,5,0,1,,,0,64,64,,
61559,note_off,,,,,2,0,1,,,0,,,69,64
61564,control_change,,,,,5,0,1,,,0,64,0,,
61566,note_off,,,,,2,0,1,,,0,,,65,64
61566,note_on,,,,,0,0,1,,,0,,,59,35
61570,note_on,,,,,4,0,1,,,0,,,52,39
61570,note_on,,,,,0,0,1,,,0,,,64,58
61609,control_change,,,,,39,0,1,,,0,64,64,,
61615,control_change,,,,,6,0,1,,,0,64,127,,
61685,note_on,,,,,70,0,1,,,0,,,68,50
61698,note_off,,,,,13,0,1,,,0,,,64,64
61785,note_off,,,,,87,0,1,,,0,,,68,64
61785,note_off,,,,,0,0,1,,,0,,,59,64
61789,note_on,,,,,4,0,1,,,0,,,76,34
61793,note_off,,,,,4,0,1,,,0,,,52,64
61802,note_off,,,,,9,0,1,,,0,,,76,64
61885,note_on,,,,,83,0,1,,,0,,,77,50
61894,control_change,,,,,9,0,1,,,0,64,64,,
61900,control_change,,,,,6,0,1,,,0,64,0,,
61902,note_on,,,,,2,0,1,,,0,,,57,52
61902,note_on,,,,,0,0,1,,,0,,,50,50
61917,note_on,,,,,0,0,1,,,0,,,79,67
61917,note_off,,,,,15,0,1,,,0,,,77,64
61935,control_change,,,,,18,0,1,,,0,64,64,,
61942,control_change,,,,,7,0,1,,,0,64,127,,
61947,note_on,,,,,5,0,1,,,0,,,77,15
61988,note_off,,,,,41,0,1,,,0,,,79,64
62023,note_off,,,,,35,0,1,,,0,,,77,64
62025,note_on,,,,,2,0,1,,,0,,,76,52
62038,note_off,,,,,13,0,1,,,0,,,76,64
62147,control_change,,,,,109,0,1,,,0,64,96,,
62153,control_change,,,,,6,0,1,,,0,64,0,,
62155,note_on,,,,,2,0,1,,,0,,,69,50
62155,note_on,,,,,0,0,1,,,0,,,77,59
62164,note_off,,,,,9,0,1,,,0,,,57,64
62171,control_change,,,,,7,0,1,,,0,64,64,,
62178,control_change,,,,,7,0,1,,,0,64,96,,
62183,control_change,,,,,5,0,1,,,0,64,127,,
62225,note_off,,,,,42,0,1,,,0,,,50,64
62264,note_off,,,,,39,0,1,,,0,,,77,64
62270,note_on,,,,,6,0,1,,,0,,,59,43
62274,control_change,,,,,4,0,1,,,0,64,96,,
62276,note_on,,,,,2,0,1,,,0,,,52,41
62282,control_change,,,,,6,0,1,,,0,64,0,,
62293,control_change,,,,,11,0,1,,,0,64,64,,
62299,control_change,,,,,6,0,1,,,0,64,96,,
62305,control_change,,,,,6,0,1,,,0,64,127,,
62359,note_off,,,,,54,0,1,,,0,,,69,64
62396,note_on,,,,,37,0,1,,,0,,,76,41
62400,note_on,,,,,4,0,1,,,0,,,68,40
62429,note_off,,,,,29,0,1,,,0,,,76,64
62506,note_off,,,,,77,0,1,,,0,,,59,64
62509,note_off,,,,,3,0,1,,,0,,,68,64
62512,note_off,,,,,3,0,1,,,0,,,52,64
62517,note_on,,,,,5,0,1,,,0,,,64,40
62548,note_off,,,,,31,0,1,,,0,,,64,64
62611,control_change,,,,,63,0,1,,,0,64,96,,
62618,control_change,,,,,7,0,1,,,0,64,0,,
62633,note_on,,,,,0,0,1,,,0,,,65,39
62633,note_on,,,,,15,0,1,,,0,,,50,34
62633,note_on,,,,,0,0,1,,,0,,,57,23
62656,note_off,,,,,23,0,1,,,0,,,65,64
62661,note_on,,,,,5,0,1,,,0,,,67,50
62685,note_off,,,,,24,0,1,,,0,,,67,64
62689,note_on,,,,,4,0,1,,,0,,,65,11
62740,control_change,,,,,51,0,1,,,0,64,64,,
62746,control_change,,,,,6,0,1,,,0,64,96,,
62750,note_off,,,,,4,0,1,,,0,,,65,64
62751,note_on,,,,,1,0,1,,,0,,,64,44
62755,control_change,,,,,4,0,1,,,0,64,127,,
62856,note_off,,,,,101,0,1,,,0,,,64,64
62874,note_on,,,,,18,0,1,,,0,,,69,36
62879,note_on,,,,,5,0,1,,,0,,,65,44
62883,note_off,,,,,4,0,1,,,0,,,57,64
62930,note_off,,,,,47,0,1,,,0,,,50,64
62983,control_change,,,,,53,0,1,,,0,64,96,,
62989,control_change,,,,,6,0,1,,,0,64,64,,
62990,note_off,,,,,1,0,1,,,0,,,69,64
62993,note_off,,,,,3,0,1,,,0,,,65,64
62997,control_change,,,,,4,0,1,,,0,64,0,,
62998,note_on,,,,,1,0,1,,,0,,,52,34
62998,note_on,,,,,0,0,1,,,0,,,59,27
63005,note_on,,,,,7,0,1,,,0,,,64,42
63041,control_change,,,,,36,0,1,,,0,64,64,,
63047,control_change,,,,,6,0,1,,,0,64,127,,
63115,note_on,,,,,68,0,1,,,0,,,68,47
63121,note_off,,,,,6,0,1,,,0,,,64,64
63218,note_off,,,,,97,0,1,,,0,,,68,64
63231,note_on,,,,,13,0,1,,,0,,,76,31
63243,note_off,,,,,12,0,1,,,0,,,76,64
63248,note_off,,,,,5,0,1,,,0,,,59,64
63255,note_off,,,,,7,0,1,,,0,,,52,64
63342,control_change,,,,,87,0,1,,,0,64,96,,
63344,note_on,,,,,2,0,1,,,0,,,77,47
63350,control_change,,,,,6,0,1,,,0,64,0,,
63352,note_on,,,,,2,0,1,,,0,,,57,47
63352,note_on,,,,,0,0,1,,,0,,,50,36
63371,note_on,,,,,19,0,1,,,0,,,79,59
63376,note_off,,,,,5,0,1,,,0,,,77,64
63381,control_change,,,,,5,0,1,,,0,64,64,,
63388,control_change,,,,,7,0,1,,,0,64,127,,
63390,note_on,,,,,2,0,1,,,0,,,77,34
63394,note_off,,,,,4,0,1,,,0,,,79,64
63467,note_off,,,,,73,0,1,,,0,,,77,64
63470,note_on,,,,,3,0,1,,,0,,,76,52
63484,note_off,,,,,14,0,1,,,0,,,76,64
63594,control_change,,,,,110,0,1,,,0,64,96,,
63598,note_on,,,,,4,0,1,,,0,,,69,47
63598,note_on,,,,,0,0,1,,,0,,,77,59
63605,control_change,,,,,7,0,1,,,0,64,64,,
63607,note_off,,,,,2,0,1,,,0,,,57,64
63613,control_change,,,,,6,0,1,,,0,64,0,,
63621,control_change,,,,,8,0,1,,,0,64,64,,
63627,control_change,,,,,6,0,1,,,0,64,96,,
63634,control_change,,,,,7,0,1,,,0,64,127,,
63685,note_off,,,,,51,0,1,,,0,,,50,64
63692,note_off,,,,,7,0,1,,,0,,,77,64
63720,note_on,,,,,28,0,1,,,0,,,59,40
63725,control_change,,,,,5,0,1,,,0,64,96,,
63726,note_on,,,,,1,0,1,,,0,,,52,36
63733,control_change,,,,,7,0,1,,,0,64,64,,
63749,control_change,,,,,16,0,1,,,0,64,96,,
63755,control_change,,,,,6,0,1,,,0,64,127,,
63761,note_off,,,,,6,0,1,,,0,,,69,64
63841,note_on,,,,,80,0,1,,,0,,,76,56
63852,note_on,,,,,11,0,1,,,0,,,68,29
63863,note_off,,,,,11,0,1,,,0,,,52,64
63876,note_off,,,,,13,0,1,,,0,,,59,64
63879,note_off,,,,,3,0,1,,,0,,,76,64
63954,note_off,,,,,75,0,1,,,0,,,68,64
63963,note_on,,,,,9,0,1,,,0,,,64,47
64032,note_off,,,,,69,0,1,,,0,,,64,64
64049,control_change,,,,,17,0,1,,,0,64,96,,
64055,control_change,,,,,6,0,1,,,0,64,64,,
64061,control_change,,,,,6,0,1,,,0,64,0,,
64072,note_on,,,,,11,0,1,,,0,,,67,62
64079,note_on,,,,,7,0,1,,,0,,,59,29
64079,note_on,,,,,0,0,1,,,0,,,50,39
64083,note_on,,,,,4,0,1,,,0,,,57,34
64153,control_change,,,,,70,0,1,,,0,64,64,,
64159,control_change,,,,,6,0,1,,,0,64,96,,
64165,control_change,,,,,6,0,1,,,0,64,127,,
64195,note_on,,,,,30,0,1,,,0,,,65,36
64202,note_off,,,,,7,0,1,,,0,,,67,64
64287,note_off,,,,,85,0,1,,,0,,,50,64
64310,note_off,,,,,23,0,1,,,0,,,65,64
64321,note_on,,,,,11,0,1,,,0,,,64,52
64331,note_off,,,,,10,0,1,,,0,,,57,64
64334,note_off,,,,,3,0,1,,,0,,,59,64
64337,note_off,,,,,3,0,1,,,0,,,64,64
64431,control_change,,,,,94,0,1,,,0,64,64,,
64435,note_on,,,,,4,0,1,,,0,,,74,67
64439,control_change,,,,,4,0,1,,,0,64,0,,
64441,note_on,,,,,2,0,1,,,0,,,65,56
64446,note_on,,,,,5,0,1,,,0,,,59,18
64446,note_on,,,,,0,0,1,,,0,,,50,26
64453,note_on,,,,,7,0,1,,,0,,,57,21
64478,control_change,,,,,25,0,1,,,0,64,64,,
64484,control_change,,,,,6,0,1,,,0,64,127,,
64560,note_on,,,,,76,0,1,,,0,,,72,62
64572,note_off,,,,,12,0,1,,,0,,,65,64
64582,note_off,,,,,10,0,1,,,0,,,74,64
64640,note_off,,,,,58,0,1,,,0,,,50,64
64678,note_on,,,,,38,0,1,,,0,,,71,56
64683,note_off,,,,,5,0,1,,,0,,,72,64
64686,note_off,,,,,0,0,1,,,0,,,59,64
64686,note_off,,,,,3,0,1,,,0,,,57,64
64693,note_off,,,,,7,0,1,,,0,,,71,64
64790,control_change,,,,,97,0,1,,,0,64,96,,
64796,control_change,,,,,6,0,1,,,0,64,0,,
64802,note_on,,,,,6,0,1,,,0,,,79,70
64806,note_on,,,,,0,0,1,,,0,,,69,44
64806,note_on,,,,,4,0,1,,,0,,,59,19
64812,note_on,,,,,0,0,1,,,0,,,50,29
64812,note_on,,,,,6,0,1,,,0,,,57,21
64834,control_change,,,,,22,0,1,,,0,64,64,,
64840,control_change,,,,,6,0,1,,,0,64,127,,
64930,note_on,,,,,90,0,1,,,0,,,77,62
64944,note_off,,,,,14,0,1,,,0,,,69,64
64949,note_off,,,,,5,0,1,,,0,,,79,64
64993,note_off,,,,,44,0,1,,,0,,,50,64
65036,note_on,,,,,0,0,1,,,0,,,76,59
65036,note_off,,,,,43,0,1,,,0,,,57,64
65036,note_off,,,,,0,0,1,,,0,,,59,64
65049,note_off,,,,,13,0,1,,,0,,,77,64
65052,note_off,,,,,3,0,1,,,0,,,76,64
65160,control_change,,,,,108,0,1,,,0,64,96,,
65162,note_on,,,,,2,0,1,,,0,,,84,70
65166,note_on,,,,,4,0,1,,,0,,,74,39
65171,control_change,,,,,5,0,1,,,0,64,0,,
65173,note_on,,,,,2,0,1,,,0,,,59,22
65177,note_on,,,,,4,0,1,,,0,,,57,20
65177,note_on,,,,,0,0,1,,,0,,,50,20
65201,control_change,,,,,24,0,1,,,0,64,64,,
65207,control_change,,,,,6,0,1,,,0,64,127,,
65293,note_on,,,,,86,0,1,,,0,,,82,63
65305,note_off,,,,,12,0,1,,,0,,,84,64
65330,note_off,,,,,25,0,1,,,0,,,74,64
65367,note_off,,,,,37,0,1,,,0,,,57,64
65370,note_off,,,,,3,0,1,,,0,,,50,64
65370,note_off,,,,,0,0,1,,,0,,,59,64
65395,note_off,,,,,25,0,1,,,0,,,82,64
65401,note_on,,,,,6,0,1,,,0,,,80,55
65508,control_change,,,,,107,0,1,,,0,64,96,,
65514,control_change,,,,,6,0,1,,,0,64,0,,
65516,note_off,,,,,2,0,1,,,0,,,80,64
65519,note_on,,,,,3,0,1,,,0,,,57,18
65519,note_on,,,,,0,0,1,,,0,,,48,26
65524,note_on,,,,,5,0,1,,,0,,,81,62
65563,control_change,,,,,39,0,1,,,0,64,64,,
65569,control_change,,,,,6,0,1,,,0,64,127,,
65623,note_off,,,,,54,0,1,,,0,,,48,64
65643,note_off,,,,,20,0,1,,,0,,,57,64
65648,note_on,,,,,5,0,1,,,0,,,76,50
65652,note_off,,,,,4,0,1,,,0,,,81,64
65727,control_change,,,,,75,0,1,,,0,64,96,,
65734,control_change,,,,,7,0,1,,,0,64,0,,
65749,note_off,,,,,15,0,1,,,0,,,76,64
65752,note_on,,,,,3,0,1,,,0,,,74,50
65756,note_on,,,,,4,0,1,,,0,,,50,39
65759,note_on,,,,,3,0,1,,,0,,,59,24
65767,control_change,,,,,8,0,1,,,0,64,96,,
65772,control_change,,,,,5,0,1,,,0,64,127,,
65781,note_off,,,,,0,0,1,,,0,,,50,64
65781,note_off,,,,,9,0,1,,,0,,,59,64
65856,control_change,,,,,75,0,1,,,0,64,96,,
65862,control_change,,,,,6,0,1,,,0,64,64,,
65868,control_change,,,,,6,0,1,,,0,64,0,,
65870,note_off,,,,,2,0,1,,,0,,,74,64
65870,note_on,,,,,0,0,1,,,0,,,60,34
65874,note_on,,,,,4,0,1,,,0,,,52,31
65878,note_on,,,,,4,0,1,,,0,,,72,52
65880,note_off,,,,,2,0,1,,,0,,,72,64
65880,note_off,,,,,0,0,1,,,0,,,52,64
65880,note_off,,,,,0,0,1,,,0,,,60,64
65887,note_on,,,,,7,0,1,,,0,,,72,47
65887,note_on,,,,,0,0,1,,,0,,,60,23
65894,note_on,,,,,7,0,1,,,0,,,52,26
65898,note_on,,,,,4,0,1,,,0,,,57,21
65997,note_off,,,,,99,0,1,,,0,,,72,64
66010,note_on,,,,,13,0,1,,,0,,,71,56
66058,note_off,,,,,48,0,1,,,0,,,52,64
66071,note_off,,,,,13,0,1,,,0,,,60,64
66072,note_on,,,,,1,0,1,,,0,,,69,47
66076,note_off,,,,,4,0,1,,,0,,,57,64
66085,note_off,,,,,9,0,1,,,0,,,71,64
66127,note_off,,,,,42,0,1,,,0,,,69,64
66130,note_on,,,,,0,0,1,,,0,,,59,33
66130,note_on,,,,,0,0,1,,,0,,,71,50
66130,note_on,,,,,3,0,1,,,0,,,52,50
66147,note_off,,,,,17,0,1,,,0,,,59,64
66156,note_off,,,,,9,0,1,,,0,,,52,64
66175,note_on,,,,,19,0,1,,,0,,,68,55
66184,note_off,,,,,9,0,1,,,0,,,71,64
66197,note_off,,,,,13,0,1,,,0,,,68,64
66230,note_on,,,,,33,0,1,,,0,,,57,50
66239,note_on,,,,,9,0,1,,,0,,,68,63
66339,note_on,,,,,100,0,1,,,0,,,45,1
66357,note_on,,,,,18,0,1,,,0,,,69,50
66360,note_off,,,,,3,0,1,,,0,,,68,64
66416,control_change,,,,,56,0,1,,,0,64,64,,
66469,note_off,,,,,53,0,1,,,0,,,45,64
66472,note_off,,,,,3,0,1,,,0,,,69,64
66483,note_on,,,,,11,0,1,,,0,,,64,47
66486,note_off,,,,,3,0,1,,,0,,,57,64
66582,control_change,,,,,96,0,1,,,0,64,0,,
66584,note_off,,,,,2,0,1,,,0,,,64,64
66591,note_on,,,,,7,0,1,,,0,,,67,56
66596,note_on,,,,,5,0,1,,,0,,,59,33
66602,note_on,,,,,6,0,1,,,0,,,57,29
66605,note_on,,,,,3,0,1,,,0,,,50,32
66726,note_on,,,,,121,0,1,,,0,,,65,36
66736,note_off,,,,,10,0,1,,,0,,,67,64
66766,control_change,,,,,30,0,1,,,0,64,64,,
66785,control_change,,,,,19,0,1,,,0,64,96,,
66827,note_off,,,,,42,0,1,,,0,,,65,64
66842,control_change,,,,,15,0,1,,,0,64,127,,
66846,note_on,,,,,4,0,1,,,0,,,64,47
66850,note_off,,,,,4,0,1,,,0,,,50,64
66861,note_off,,,,,11,0,1,,,0,,,57,64
66864,note_off,,,,,3,0,1,,,0,,,64,64
66867,note_off,,,,,3,0,1,,,0,,,59,64
66950,control_change,,,,,83,0,1,,,0,64,96,,
66959,control_change,,,,,9,0,1,,,0,64,64,,
66962,note_on,,,,,3,0,1,,,0,,,74,70
66965,note_on,,,,,3,0,1,,,0,,,65,47
66966,note_on,,,,,1,0,1,,,0,,,59,35
66970,control_change,,,,,4,0,1,,,0,64,0,,
66973,note_on,,,,,3,0,1,,,0,,,57,29
66973,note_on,,,,,0,0,1,,,0,,,50,31
67020,control_change,,,,,47,0,1,,,0,64,64,,
67030,control_change,,,,,10,0,1,,,0,64,96,,
67054,control_change,,,,,24,0,1,,,0,64,127,,
67085,note_on,,,,,31,0,1,,,0,,,72,52
67092,note_off,,,,,7,0,1,,,0,,,65,64
67110,note_off,,,,,18,0,1,,,0,,,74,64
67170,note_off,,,,,60,0,1,,,0,,,50,64
67196,note_on,,,,,26,0,1,,,0,,,71,56
67200,note_off,,,,,4,0,1,,,0,,,72,64
67206,note_off,,,,,6,0,1,,,0,,,57,64
67211,note_off,,,,,5,0,1,,,0,,,59,64
67213,note_off,,,,,2,0,1,,,0,,,71,64
67308,control_change,,,,,95,0,1,,,0,64,96,,
67314,control_change,,,,,6,0,1,,,0,64,64,,
67318,note_on,,,,,4,0,1,,,0,,,79,67
67318,note_on,,,,,0,0,1,,,0,,,59,25
67325,control_change,,,,,7,0,1,,,0,64,0,,
67327,note_on,,,,,2,0,1,,,0,,,50,32
67327,note_on,,,,,0,0,1,,,0,,,57,26
67327,note_on,,,,,0,0,1,,,0,,,69,41
67435,control_change,,,,,108,0,1,,,0,64,64,,
67441,control_change,,,,,6,0,1,,,0,64,96,,
67443,note_on,,,,,2,0,1,,,0,,,77,59
67454,control_change,,,,,11,0,1,,,0,64,127,,
67497,note_off,,,,,43,0,1,,,0,,,79,64
67526,note_off,,,,,29,0,1,,,0,,,69,64
67539,note_off,,,,,13,0,1,,,0,,,50,64
67550,note_on,,,,,11,0,1,,,0,,,76,50
67559,note_off,,,,,0,0,1,,,0,,,77,64
67559,note_off,,,,,9,0,1,,,0,,,76,64
67563,note_off,,,,,0,0,1,,,0,,,59,64
67563,note_off,,,,,4,0,1,,,0,,,57,64
67668,control_change,,,,,105,0,1,,,0,64,96,,
67672,note_on,,,,,4,0,1,,,0,,,84,70
67676,control_change,,,,,4,0,1,,,0,64,64,,
67683,control_change,,,,,7,0,1,,,0,64,0,,
67684,note_on,,,,,1,0,1,,,0,,,74,34
67684,note_on,,,,,0,0,1,,,0,,,59,24
67684,note_on,,,,,0,0,1,,,0,,,50,39
67691,note_on,,,,,7,0,1,,,0,,,57,25
67712,control_change,,,,,21,0,1,,,0,64,64,,
67719,control_change,,,,,7,0,1,,,0,64,127,,
67795,note_on,,,,,76,0,1,,,0,,,82,68
67809,note_off,,,,,14,0,1,,,0,,,84,64
67825,note_off,,,,,16,0,1,,,0,,,74,64
67886,note_off,,,,,61,0,1,,,0,,,50,64
67888,note_off,,,,,2,0,1,,,0,,,57,64
67894,note_off,,,,,6,0,1,,,0,,,59,64
67905,note_off,,,,,11,0,1,,,0,,,82,64
67911,note_on,,,,,6,0,1,,,0,,,80,58
68015,control_change,,,,,104,0,1,,,0,64,96,,
68020,control_change,,,,,5,0,1,,,0,64,64,,
68027,control_change,,,,,7,0,1,,,0,64,0,,
68028,note_off,,,,,1,0,1,,,0,,,80,64
68033,note_on,,,,,5,0,1,,,0,,,57,23
68037,note_on,,,,,0,0,1,,,0,,,48,34
68037,note_on,,,,,4,0,1,,,0,,,81,70
68077,control_change,,,,,40,0,1,,,0,64,64,,
68084,control_change,,,,,7,0,1,,,0,64,96,,
68090,control_change,,,,,6,0,1,,,0,64,127,,
68147,note_off,,,,,57,0,1,,,0,,,48,64
68158,note_on,,,,,11,0,1,,,0,,,76,62
68165,note_off,,,,,7,0,1,,,0,,,57,64
68170,note_off,,,,,5,0,1,,,0,,,81,64
68236,control_change,,,,,66,0,1,,,0,64,96,,
68241,control_change,,,,,5,0,1,,,0,64,64,,
68248,control_change,,,,,7,0,1,,,0,64,0,,
68263,control_change,,,,,15,0,1,,,0,64,64,,
68267,note_on,,,,,0,0,1,,,0,,,74,59
68267,note_on,,,,,4,0,1,,,0,,,59,43
68273,note_off,,,,,6,0,1,,,0,,,76,64
68273,note_on,,,,,0,0,1,,,0,,,50,36
68280,control_change,,,,,7,0,1,,,0,64,127,,
68282,note_off,,,,,2,0,1,,,0,,,50,64
68284,note_off,,,,,2,0,1,,,0,,,59,64
68358,control_change,,,,,74,0,1,,,0,64,96,,
68364,control_change,,,,,6,0,1,,,0,64,64,,
68370,control_change,,,,,6,0,1,,,0,64,0,,
68381,note_off,,,,,11,0,1,,,0,,,74,64
68381,note_on,,,,,0,0,1,,,0,,,60,44
68389,note_on,,,,,8,0,1,,,0,,,52,31
68392,note_on,,,,,3,0,1,,,0,,,72,52
68417,control_change,,,,,25,0,1,,,0,64,64,,
68424,control_change,,,,,7,0,1,,,0,64,96,,
68429,control_change,,,,,5,0,1,,,0,64,127,,
68517,note_on,,,,,88,0,1,,,0,,,71,59
68531,note_off,,,,,14,0,1,,,0,,,72,64
68553,note_off,,,,,22,0,1,,,0,,,52,64
68579,note_on,,,,,26,0,1,,,0,,,69,62
68583,note_off,,,,,4,0,1,,,0,,,71,64
68591,note_off,,,,,8,0,1,,,0,,,60,64
68630,note_on,,,,,39,0,1,,,0,,,60,9
68636,note_off,,,,,6,0,1,,,0,,,69,64
68636,note_on,,,,,0,0,1,,,0,,,52,36
68640,note_on,,,,,4,0,1,,,0,,,71,56
68644,note_off,,,,,4,0,1,,,0,,,60,64
68653,note_off,,,,,9,0,1,,,0,,,52,64
68691,note_off,,,,,38,0,1,,,0,,,71,64
68694,control_change,,,,,3,0,1,,,0,64,96,,
68696,note_on,,,,,2,0,1,,,0,,,68,50
68711,control_change,,,,,15,0,1,,,0,64,64,,
68721,control_change,,,,,10,0,1,,,0,64,0,,
68750,note_off,,,,,29,0,1,,,0,,,68,64
68765,note_on,,,,,15,0,1,,,0,,,69,44
68769,note_on,,,,,4,0,1,,,0,,,45,34
68830,control_change,,,,,61,0,1,,,0,64,64,,
68840,control_change,,,,,10,0,1,,,0,64,96,,
68854,control_change,,,,,14,0,1,,,0,64,127,,
68886,note_on,,,,,32,0,1,,,0,,,73,40
68890,note_off,,,,,4,0,1,,,0,,,45,64
68894,note_off,,,,,4,0,1,,,0,,,69,64
68900,note_on,,,,,6,0,1,,,0,,,57,18
68926,note_off,,,,,26,0,1,,,0,,,57,64
68993,note_off,,,,,67,0,1,,,0,,,73,64
69004,note_on,,,,,11,0,1,,,0,,,76,39
69010,note_on,,,,,6,0,1,,,0,,,61,17
69019,note_off,,,,,9,0,1,,,0,,,61,64
69100,note_off,,,,,81,0,1,,,0,,,76,64
69113,control_change,,,,,13,0,1,,,0,64,96,,
69119,control_change,,,,,6,0,1,,,0,64,64,,
69125,control_change,,,,,6,0,1,,,0,64,0,,
69127,note_on,,,,,2,0,1,,,0,,,64,34
69131,note_on,,,,,4,0,1,,,0,,,40,31
69195,control_change,,,,,64,0,1,,,0,64,64,,
69201,control_change,,,,,6,0,1,,,0,64,96,,
69207,control_change,,,,,6,0,1,,,0,64,127,,
69246,note_off,,,,,39,0,1,,,0,,,64,64
69250,note_on,,,,,4,0,1,,,0,,,74,50
69269,note_off,,,,,19,0,1,,,0,,,40,64
69297,note_on,,,,,28,0,1,,,0,,,73,58
69318,note_off,,,,,21,0,1,,,0,,,74,64
69362,note_on,,,,,44,0,1,,,0,,,71,56
69368,note_off,,,,,6,0,1,,,0,,,73,64
69414,note_on,,,,,46,0,1,,,0,,,74,59
69418,note_off,,,,,4,0,1,,,0,,,71,64
69457,control_change,,,,,39,0,1,,,0,64,96,,
69463,control_change,,,,,6,0,1,,,0,64,64,,
69469,control_change,,,,,6,0,1,,,0,64,0,,
69478,note_on,,,,,9,0,1,,,0,,,73,55
69484,note_on,,,,,6,0,1,,,0,,,45,41
69489,note_off,,,,,5,0,1,,,0,,,74,64
69542,note_on,,,,,53,0,1,,,0,,,69,47
69547,note_off,,,,,5,0,1,,,0,,,73,64
69594,note_off,,,,,47,0,1,,,0,,,69,64
69599,note_on,,,,,0,0,1,,,0,,,74,59
69599,note_off,,,,,5,0,1,,,0,,,45,64
69609,note_on,,,,,10,0,1,,,0,,,57,44
69653,note_on,,,,,44,0,1,,,0,,,71,67
69660,note_off,,,,,7,0,1,,,0,,,74,64
69674,note_off,,,,,14,0,1,,,0,,,57,64
69723,note_off,,,,,49,0,1,,,0,,,71,64
69723,note_on,,,,,0,0,1,,,0,,,76,59
69728,note_on,,,,,5,0,1,,,0,,,61,28
69739,note_off,,,,,11,0,1,,,0,,,61,64
69857,note_on,,,,,118,0,1,,,0,,,64,31
69865,note_on,,,,,8,0,1,,,0,,,40,36
69876,control_change,,,,,11,0,1,,,0,64,64,,
69882,control_change,,,,,6,0,1,,,0,64,96,,
69883,note_off,,,,,1,0,1,,,0,,,76,64
69888,control_change,,,,,5,0,1,,,0,64,127,,
69961,note_off,,,,,73,0,1,,,0,,,64,64
69968,note_on,,,,,7,0,1,,,0,,,74,50
69988,note_off,,,,,20,0,1,,,0,,,40,64
70022,note_on,,,,,34,0,1,,,0,,,73,58
70034,note_off,,,,,12,0,1,,,0,,,74,64
70084,note_on,,,,,50,0,1,,,0,,,71,47
70090,note_off,,,,,6,0,1,,,0,,,73,64
70132,note_off,,,,,42,0,1,,,0,,,71,64
70134,note_on,,,,,2,0,1,,,0,,,74,47
70160,control_change,,,,,26,0,1,,,0,64,96,,
70165,control_change,,,,,5,0,1,,,0,64,64,,
70171,control_change,,,,,6,0,1,,,0,64,0,,
70193,note_on,,,,,22,0,1,,,0,,,45,34
70196,note_on,,,,,3,0,1,,,0,,,73,58
70207,note_off,,,,,11,0,1,,,0,,,74,64
70262,note_on,,,,,0,0,1,,,0,,,69,29
70262,note_off,,,,,55,0,1,,,0,,,73,64
70314,note_off,,,,,0,0,1,,,0,,,45,64
70314,note_on,,,,,0,0,1,,,0,,,74,56
70314,note_off,,,,,52,0,1,,,0,,,69,64
70327,note_on,,,,,13,0,1,,,0,,,57,34
70369,note_on,,,,,42,0,1,,,0,,,71,52
70375,note_off,,,,,6,0,1,,,0,,,74,64
70389,note_off,,,,,14,0,1,,,0,,,57,64
70431,note_on,,,,,42,0,1,,,0,,,61,48
70436,note_on,,,,,5,0,1,,,0,,,76,59
70440,note_off,,,,,0,0,1,,,0,,,71,64
70440,note_off,,,,,4,0,1,,,0,,,61,64
70561,note_on,,,,,121,0,1,,,0,,,64,34
70571,note_on,,,,,10,0,1,,,0,,,40,34
70574,note_off,,,,,3,0,1,,,0,,,76,64
70581,control_change,,,,,7,0,1,,,0,64,64,,
70590,control_change,,,,,9,0,1,,,0,64,96,,
70600,control_change,,,,,10,0,1,,,0,64,127,,
70673,note_on,,,,,73,0,1,,,0,,,74,50
70677,note_off,,,,,4,0,1,,,0,,,64,64
70704,note_off,,,,,27,0,1,,,0,,,40,64
70732,note_on,,,,,28,0,1,,,0,,,73,55
70753,note_off,,,,,21,0,1,,,0,,,74,64
70798,note_on,,,,,45,0,1,,,0,,,71,47
70808,note_off,,,,,10,0,1,,,0,,,73,64
70858,note_on,,,,,50,0,1,,,0,,,74,47
70862,note_off,,,,,4,0,1,,,0,,,71,64
70887,control_change,,,,,25,0,1,,,0,64,96,,
70892,control_change,,,,,5,0,1,,,0,64,64,,
70898,control_change,,,,,6,0,1,,,0,64,0,,
70917,note_on,,,,,0,0,1,,,0,,,73,47
70917,note_on,,,,,19,0,1,,,0,,,45,36
70931,note_off,,,,,14,0,1,,,0,,,74,64
70977,control_change,,,,,46,0,1,,,0,64,64,,
70979,note_off,,,,,2,0,1,,,0,,,73,64
70984,note_on,,,,,5,0,1,,,0,,,69,59
70995,control_change,,,,,11,0,1,,,0,64,96,,
71036,note_on,,,,,41,0,1,,,0,,,57,32
71040,note_on,,,,,4,0,1,,,0,,,73,63
71055,note_off,,,,,15,0,1,,,0,,,69,64
71092,note_on,,,,,37,0,1,,,0,,,76,70
71107,note_off,,,,,15,0,1,,,0,,,73,64
71135,note_off,,,,,28,0,1,,,0,,,45,64
71140,control_change,,,,,5,0,1,,,0,64,64,,
71149,note_off,,,,,9,0,1,,,0,,,76,64
71153,note_on,,,,,4,0,1,,,0,,,81,62
71158,control_change,,,,,5,0,1,,,0,64,0,,
71160,note_on,,,,,0,0,1,,,0,,,49,47
71160,note_off,,,,,2,0,1,,,0,,,57,64
71213,note_on,,,,,53,0,1,,,0,,,78,63
71229,note_off,,,,,16,0,1,,,0,,,81,64
71270,note_on,,,,,41,0,1,,,0,,,76,67
71278,note_on,,,,,8,0,1,,,0,,,50,39
71286,note_off,,,,,8,0,1,,,0,,,78,64
71293,note_off,,,,,7,0,1,,,0,,,49,64
71330,note_off,,,,,37,0,1,,,0,,,76,64
71332,note_on,,,,,2,0,1,,,0,,,74,50
71391,note_on,,,,,59,0,1,,,0,,,73,63
71399,note_off,,,,,8,0,1,,,0,,,50,64
71401,note_on,,,,,2,0,1,,,0,,,52,32
71407,note_off,,,,,6,0,1,,,0,,,74,64
71456,note_on,,,,,49,0,1,,,0,,,71,52
71467,note_off,,,,,11,0,1,,,0,,,73,64
71475,note_off,,,,,8,0,1,,,0,,,52,64
71503,note_off,,,,,28,0,1,,,0,,,71,64
71514,note_on,,,,,11,0,1,,,0,,,69,44
71519,note_on,,,,,5,0,1,,,0,,,40,36
71531,note_off,,,,,12,0,1,,,0,,,40,64
71565,note_off,,,,,34,0,1,,,0,,,69,64
71571,note_on,,,,,6,0,1,,,0,,,68,40
71620,note_off,,,,,49,0,1,,,0,,,68,64
71640,note_on,,,,,20,0,1,,,0,,,69,13
71646,note_on,,,,,6,0,1,,,0,,,45,15
71747,control_change,,,,,101,0,1,,,0,64,64,,
71759,note_on,,,,,12,0,1,,,0,,,73,24
71763,control_change,,,,,4,0,1,,,0,64,96,,
71776,note_off,,,,,13,0,1,,,0,,,45,64
71778,control_change,,,,,2,0,1,,,0,64,127,,
71779,note_on,,,,,1,0,1,,,0,,,57,7
71793,note_off,,,,,14,0,1,,,0,,,69,64
71818,note_off,,,,,25,0,1,,,0,,,57,64
71867,note_off,,,,,49,0,1,,,0,,,73,64
71884,note_on,,,,,17,0,1,,,0,,,76,21
71888,note_on,,,,,4,0,1,,,0,,,61,15
71894,note_off,,,,,6,0,1,,,0,,,61,64
71983,note_off,,,,,89,0,1,,,0,,,76,64
72003,control_change,,,,,20,0,1,,,0,64,96,,
72009,control_change,,,,,6,0,1,,,0,64,64,,
72010,note_on,,,,,1,0,1,,,0,,,64,20
72016,control_change,,,,,6,0,1,,,0,64,0,,
72020,note_on,,,,,4,0,1,,,0,,,40,19
72072,control_change,,,,,52,0,1,,,0,64,64,,
72077,control_change,,,,,5,0,1,,,0,64,96,,
72087,control_change,,,,,10,0,1,,,0,64,127,,
72129,note_on,,,,,42,0,1,,,0,,,74,24
72133,note_off,,,,,4,0,1,,,0,,,64,64
72140,note_off,,,,,7,0,1,,,0,,,40,64
72178,note_on,,,,,38,0,1,,,0,,,73,30
72187,note_off,,,,,9,0,1,,,0,,,74,64
72242,note_off,,,,,55,0,1,,,0,,,73,64
72243,note_on,,,,,1,0,1,,,0,,,71,26
72295,note_off,,,,,52,0,1,,,0,,,71,64
72295,note_on,,,,,0,0,1,,,0,,,74,30
72320,control_change,,,,,25,0,1,,,0,64,96,,
72327,control_change,,,,,7,0,1,,,0,64,64,,
72333,control_change,,,,,6,0,1,,,0,64,0,,
72355,note_on,,,,,22,0,1,,,0,,,45,21
72355,note_on,,,,,0,0,1,,,0,,,73,33
72367,note_off,,,,,12,0,1,,,0,,,74,64
72416,note_on,,,,,49,0,1,,,0,,,69,24
72422,note_off,,,,,6,0,1,,,0,,,73,64
72471,note_off,,,,,49,0,1,,,0,,,45,64
72474,note_on,,,,,3,0,1,,,0,,,74,33
72478,note_off,,,,,4,0,1,,,0,,,69,64
72487,note_on,,,,,9,0,1,,,0,,,57,15
72524,note_on,,,,,37,0,1,,,0,,,71,33
72530,note_off,,,,,6,0,1,,,0,,,74,64
72543,note_off,,,,,13,0,1,,,0,,,57,64
72588,note_off,,,,,45,0,1,,,0,,,71,64
72591,note_on,,,,,3,0,1,,,0,,,76,35
72595,note_on,,,,,4,0,1,,,0,,,61,26
72604,note_off,,,,,9,0,1,,,0,,,61,64
72716,note_on,,,,,112,0,1,,,0,,,64,19
72724,note_off,,,,,8,0,1,,,0,,,76,64
72728,note_on,,,,,4,0,1,,,0,,,40,19
72749,control_change,,,,,21,0,1,,,0,64,64,,
72758,control_change,,,,,9,0,1,,,0,64,96,,
72776,control_change,,,,,18,0,1,,,0,64,127,,
72832,note_on,,,,,56,0,1,,,0,,,74,31
72836,note_off,,,,,4,0,1,,,0,,,64,64
72873,note_off,,,,,37,0,1,,,0,,,40,64
72887,note_on,,,,,14,0,1,,,0,,,73,34
72904,note_off,,,,,17,0,1,,,0,,,74,64
72950,note_on,,,,,46,0,1,,,0,,,71,30
72955,note_off,,,,,5,0,1,,,0,,,73,64
73006,note_on,,,,,51,0,1,,,0,,,74,30
73011,note_off,,,,,5,0,1,,,0,,,71,64
73033,control_change,,,,,22,0,1,,,0,64,96,,
73038,control_change,,,,,5,0,1,,,0,64,64,,
73049,control_change,,,,,11,0,1,,,0,64,0,,
73064,note_on,,,,,15,0,1,,,0,,,45,23
73064,note_on,,,,,0,0,1,,,0,,,73,26
73082,note_off,,,,,18,0,1,,,0,,,74,64
73109,control_change,,,,,27,0,1,,,0,64,64,,
73114,control_change,,,,,5,0,1,,,0,64,96,,
73128,control_change,,,,,14,0,1,,,0,64,127,,
73130,note_on,,,,,2,0,1,,,0,,,69,28
73136,note_off,,,,,6,0,1,,,0,,,73,64
73147,control_change,,,,,11,0,1,,,0,64,96,,
73153,control_change,,,,,6,0,1,,,0,64,64,,
73159,control_change,,,,,6,0,1,,,0,64,0,,
73181,note_off,,,,,22,0,1,,,0,,,69,64
73183,note_on,,,,,2,0,1,,,0,,,74,35
73194,note_off,,,,,11,0,1,,,0,,,45,64
73203,control_change,,,,,9,0,1,,,0,64,64,,
73207,note_on,,,,,4,0,1,,,0,,,57,20
73214,control_change,,,,,7,0,1,,,0,64,96,,
73238,note_on,,,,,24,0,1,,,0,,,71,37
73247,note_off,,,,,9,0,1,,,0,,,74,64
73252,control_change,,,,,5,0,1,,,0,64,64,,
73263,control_change,,,,,11,0,1,,,0,64,0,,
73300,note_on,,,,,37,0,1,,,0,,,76,37
73305,note_off,,,,,0,0,1,,,0,,,57,64
73305,note_off,,,,,5,0,1,,,0,,,71,64
73308,control_change,,,,,3,0,1,,,0,64,64,,
73310,note_on,,,,,2,0,1,,,0,,,61,23
73316,control_change,,,,,6,0,1,,,0,64,96,,
73318,note_off,,,,,2,0,1,,,0,,,61,64
73344,control_change,,,,,26,0,1,,,0,64,127,,
73379,control_change,,,,,35,0,1,,,0,64,96,,
73396,control_change,,,,,17,0,1,,,0,64,64,,
73411,control_change,,,,,15,0,1,,,0,64,0,,
73430,note_on,,,,,19,0,1,,,0,,,64,19
73434,note_off,,,,,4,0,1,,,0,,,76,64
73440,note_on,,,,,6,0,1,,,0,,,40,21
73466,control_change,,,,,26,0,1,,,0,64,64,,
73471,control_change,,,,,5,0,1,,,0,64,96,,
73481,control_change,,,,,10,0,1,,,0,64,127,,
73553,note_off,,,,,72,0,1,,,0,,,64,64
73553,note_on,,,,,0,0,1,,,0,,,74,26
73576,note_off,,,,,23,0,1,,,0,,,40,64
73614,note_on,,,,,38,0,1,,,0,,,73,33
73631,note_off,,,,,17,0,1,,,0,,,74,64
73677,note_on,,,,,46,0,1,,,0,,,71,28
73683,note_off,,,,,6,0,1,,,0,,,73,64
73735,note_on,,,,,52,0,1,,,0,,,74,28
73742,note_off,,,,,7,0,1,,,0,,,71,64
73759,control_change,,,,,17,0,1,,,0,64,96,,
73765,control_change,,,,,6,0,1,,,0,64,64,,
73771,control_change,,,,,6,0,1,,,0,64,0,,
73797,note_on,,,,,26,0,1,,,0,,,45,19
73800,note_on,,,,,3,0,1,,,0,,,73,33
73811,note_off,,,,,11,0,1,,,0,,,74,64
73852,control_change,,,,,41,0,1,,,0,64,64,,
73858,control_change,,,,,6,0,1,,,0,64,96,,
73860,note_off,,,,,2,0,1,,,0,,,73,64
73870,note_on,,,,,10,0,1,,,0,,,69,33
73887,control_change,,,,,17,0,1,,,0,64,127,,
73910,control_change,,,,,23,0,1,,,0,64,96,,
73919,note_on,,,,,9,0,1,,,0,,,57,21
73925,control_change,,,,,6,0,1,,,0,64,64,,
73928,note_on,,,,,3,0,1,,,0,,,73,37
73941,control_change,,,,,13,0,1,,,0,64,96,,
73943,note_off,,,,,2,0,1,,,0,,,69,64
73956,control_change,,,,,13,0,1,,,0,64,127,,
73973,control_change,,,,,17,0,1,,,0,64,96,,
73979,note_on,,,,,6,0,1,,,0,,,76,40
73995,note_off,,,,,16,0,1,,,0,,,73,64
74012,control_change,,,,,17,0,1,,,0,64,64,,
74027,control_change,,,,,15,0,1,,,0,64,0,,
74029,note_off,,,,,2,0,1,,,0,,,76,64
74031,note_off,,,,,2,0,1,,,0,,,45,64
74034,note_on,,,,,3,0,1,,,0,,,81,35
74038,note_off,,,,,4,0,1,,,0,,,57,64
74039,note_on,,,,,1,0,1,,,0,,,49,28
74095,note_on,,,,,56,0,1,,,0,,,78,37
74112,note_off,,,,,17,0,1,,,0,,,81,64
74152,note_on,,,,,40,0,1,,,0,,,76,37
74158,note_on,,,,,6,0,1,,,0,,,50,23
74166,note_off,,,,,8,0,1,,,0,,,78,64
74173,note_off,,,,,7,0,1,,,0,,,49,64
74210,note_off,,,,,37,0,1,,,0,,,76,64
74215,note_on,,,,,5,0,1,,,0,,,74,30
74275,note_on,,,,,60,0,1,,,0,,,73,33
74279,note_off,,,,,4,0,1,,,0,,,50,64
74282,note_on,,,,,3,0,1,,,0,,,52,19
74291,note_off,,,,,9,0,1,,,0,,,74,64
74334,note_on,,,,,43,0,1,,,0,,,71,33
74338,note_off,,,,,4,0,1,,,0,,,73,64
74355,note_off,,,,,17,0,1,,,0,,,52,64
74379,note_off,,,,,24,0,1,,,0,,,71,64
74390,note_on,,,,,11,0,1,,,0,,,69,28
74396,note_on,,,,,6,0,1,,,0,,,40,21
74445,note_off,,,,,49,0,1,,,0,,,69,64
74450,note_on,,,,,5,0,1,,,0,,,68,28
74508,note_off,,,,,58,0,1,,,0,,,40,64
74512,note_off,,,,,4,0,1,,,0,,,68,64
74517,note_on,,,,,5,0,1,,,0,,,69,26
74518,note_on,,,,,1,0,1,,,0,,,69,37
74524,note_on,,,,,6,0,1,,,0,,,45,50
74527,note_on,,,,,3,0,1,,,0,,,45,21
74528,control_change,,,,,1,0,1,,,0,64,96,,
74531,note_off,,,,,0,0,1,,,0,,,69,64
74531,note_off,,,,,3,0,1,,,0,,,45,64
74537,control_change,,,,,6,0,1,,,0,64,127,,
74643,note_on,,,,,106,0,1,,,0,,,69,44
74647,note_on,,,,,0,0,1,,,0,,,72,52
74647,note_on,,,,,4,0,1,,,0,,,84,62
74670,note_off,,,,,23,0,1,,,0,,,69,64
74672,note_off,,,,,2,0,1,,,0,,,45,64
74762,note_on,,,,,90,0,1,,,0,,,67,50
74768,note_off,,,,,6,0,1,,,0,,,69,64
74873,control_change,,,,,105,0,1,,,0,64,96,,
74878,control_change,,,,,5,0,1,,,0,64,0,,
74882,note_off,,,,,4,0,1,,,0,,,67,64
74885,note_on,,,,,3,0,1,,,0,,,65,59
74902,note_off,,,,,17,0,1,,,0,,,72,64
74910,note_off,,,,,8,0,1,,,0,,,84,64
74922,control_change,,,,,12,0,1,,,0,64,64,,
74929,control_change,,,,,7,0,1,,,0,64,96,,
74935,control_change,,,,,6,0,1,,,0,64,127,,
74990,note_off,,,,,55,0,1,,,0,,,65,64
74998,note_on,,,,,8,0,1,,,0,,,84,70
74999,note_on,,,,,1,0,1,,,0,,,72,52
75004,note_on,,,,,5,0,1,,,0,,,69,52
75118,note_on,,,,,114,0,1,,,0,,,64,47
75230,note_off,,,,,112,0,1,,,0,,,72,64
75237,control_change,,,,,7,0,1,,,0,64,64,,
75240,note_off,,,,,3,0,1,,,0,,,64,64
75240,note_off,,,,,0,0,1,,,0,,,69,64
75240,note_off,,,,,0,0,1,,,0,,,84,64
75246,control_change,,,,,6,0,1,,,0,64,0,,
75247,note_on,,,,,1,0,1,,,0,,,62,56
75278,control_change,,,,,31,0,1,,,0,64,64,,
75285,control_change,,,,,7,0,1,,,0,64,96,,
75291,control_change,,,,,6,0,1,,,0,64,127,,
75363,note_on,,,,,72,0,1,,,0,,,86,59
75367,note_on,,,,,4,0,1,,,0,,,74,47
75376,note_off,,,,,9,0,1,,,0,,,86,64
75380,note_off,,,,,4,0,1,,,0,,,74,64
75482,note_on,,,,,102,0,1,,,0,,,83,62
75487,note_on,,,,,5,0,1,,,0,,,71,29
75494,note_on,,,,,7,0,1,,,0,,,65,50
75498,note_off,,,,,4,0,1,,,0,,,62,64
75501,note_off,,,,,3,0,1,,,0,,,71,64
75503,note_off,,,,,2,0,1,,,0,,,83,64
75583,note_off,,,,,80,0,1,,,0,,,65,64
75590,control_change,,,,,7,0,1,,,0,64,96,,
75596,control_change,,,,,6,0,1,,,0,64,64,,
75599,note_on,,,,,3,0,1,,,0,,,81,62
75604,control_change,,,,,5,0,1,,,0,64,0,,
75606,note_on,,,,,0,0,1,,,0,,,64,55
75606,note_on,,,,,2,0,1,,,0,,,69,56
75625,note_off,,,,,19,0,1,,,0,,,69,64
75628,control_change,,,,,3,0,1,,,0,64,64,,
75631,note_off,,,,,3,0,1,,,0,,,81,64
75634,control_change,,,,,3,0,1,,,0,64,96,,
75640,control_change,,,,,6,0,1,,,0,64,127,,
75722,note_on,,,,,82,0,1,,,0,,,81,59
75726,note_on,,,,,4,0,1,,,0,,,69,44
75745,note_off,,,,,19,0,1,,,0,,,69,64
75751,note_off,,,,,6,0,1,,,0,,,81,64
75846,note_on,,,,,95,0,1,,,0,,,80,58
75850,note_on,,,,,4,0,1,,,0,,,68,44
75851,note_on,,,,,1,0,1,,,0,,,52,47
75862,note_off,,,,,11,0,1,,,0,,,64,64
75865,note_off,,,,,3,0,1,,,0,,,68,64
75868,note_off,,,,,0,0,1,,,0,,,80,64
75868,note_off,,,,,3,0,1,,,0,,,52,64
75948,control_change,,,,,80,0,1,,,0,64,96,,
75954,control_change,,,,,6,0,1,,,0,64,64,,
75960,control_change,,,,,6,0,1,,,0,64,0,,
75961,note_on,,,,,1,0,1,,,0,,,69,39
75965,note_on,,,,,4,0,1,,,0,,,81,39
75972,note_on,,,,,7,0,1,,,0,,,57,37
75975,note_off,,,,,3,0,1,,,0,,,69,64
75981,control_change,,,,,6,0,1,,,0,64,64,,
75985,note_off,,,,,4,0,1,,,0,,,81,64
75988,control_change,,,,,3,0,1,,,0,64,96,,
75994,control_change,,,,,6,0,1,,,0,64,127,,
76085,note_off,,,,,91,0,1,,,0,,,57,64
76090,note_on,,,,,5,0,1,,,0,,,85,42
76093,note_on,,,,,3,0,1,,,0,,,73,34
76098,note_on,,,,,5,0,1,,,0,,,69,31
76206,note_on,,,,,108,0,1,,,0,,,68,29
76210,note_off,,,,,4,0,1,,,0,,,69,64
76308,control_change,,,,,98,0,1,,,0,64,96,,
76314,control_change,,,,,6,0,1,,,0,64,0,,
76328,note_off,,,,,14,0,1,,,0,,,68,64
76333,note_on,,,,,5,0,1,,,0,,,66,37
76343,note_off,,,,,10,0,1,,,0,,,73,64
76348,note_off,,,,,5,0,1,,,0,,,85,64
76354,control_change,,,,,6,0,1,,,0,64,64,,
76360,control_change,,,,,6,0,1,,,0,64,96,,
76365,control_change,,,,,5,0,1,,,0,64,127,,
76435,note_on,,,,,70,0,1,,,0,,,85,45
76440,note_on,,,,,0,0,1,,,0,,,73,34
76440,note_off,,,,,5,0,1,,,0,,,66,64
76445,note_on,,,,,5,0,1,,,0,,,69,31
76546,note_on,,,,,101,0,1,,,0,,,64,28
76651,note_off,,,,,105,0,1,,,0,,,73,64
76657,control_change,,,,,6,0,1,,,0,64,96,,
76659,note_off,,,,,2,0,1,,,0,,,85,64
76664,control_change,,,,,5,0,1,,,0,64,0,,
76668,note_off,,,,,4,0,1,,,0,,,69,64
76670,note_on,,,,,0,0,1,,,0,,,62,37
76670,note_off,,,,,2,0,1,,,0,,,64,64
76696,control_change,,,,,26,0,1,,,0,64,64,,
76703,control_change,,,,,7,0,1,,,0,64,96,,
76708,control_change,,,,,5,0,1,,,0,64,127,,
76782,note_on,,,,,74,0,1,,,0,,,86,39
76788,note_on,,,,,6,0,1,,,0,,,74,26
76799,note_off,,,,,11,0,1,,,0,,,86,64
76801,note_off,,,,,2,0,1,,,0,,,74,64
76899,note_on,,,,,98,0,1,,,0,,,83,39
76906,note_on,,,,,7,0,1,,,0,,,71,17
76906,note_on,,,,,0,0,1,,,0,,,66,27
76920,note_off,,,,,14,0,1,,,0,,,71,64
76922,note_off,,,,,0,0,1,,,0,,,62,64
76922,note_off,,,,,2,0,1,,,0,,,83,64
76989,note_off,,,,,67,0,1,,,0,,,66,64
77002,control_change,,,,,13,0,1,,,0,64,96,,
77008,control_change,,,,,6,0,1,,,0,64,0,,
77017,note_on,,,,,9,0,1,,,0,,,81,41
77021,note_on,,,,,4,0,1,,,0,,,69,39
77021,note_on,,,,,0,0,1,,,0,,,64,39
77036,control_change,,,,,15,0,1,,,0,64,64,,
77042,control_change,,,,,6,0,1,,,0,64,127,,
77048,note_off,,,,,6,0,1,,,0,,,69,64
77060,note_off,,,,,12,0,1,,,0,,,81,64
77143,note_on,,,,,0,0,1,,,0,,,81,37
77143,note_on,,,,,83,0,1,,,0,,,69,29
77165,note_off,,,,,22,0,1,,,0,,,69,64
77170,note_off,,,,,5,0,1,,,0,,,81,64
77266,note_off,,,,,96,0,1,,,0,,,64,64
77269,note_on,,,,,3,0,1,,,0,,,68,27
77269,note_on,,,,,0,0,1,,,0,,,80,31
77276,note_on,,,,,7,0,1,,,0,,,52,31
77285,note_off,,,,,9,0,1,,,0,,,52,64
77290,note_off,,,,,5,0,1,,,0,,,80,64
77290,note_off,,,,,0,0,1,,,0,,,68,64
77368,control_change,,,,,78,0,1,,,0,64,96,,
77374,control_change,,,,,6,0,1,,,0,64,0,,
77400,note_on,,,,,26,0,1,,,0,,,81,59
77404,note_on,,,,,4,0,1,,,0,,,69,34
77410,control_change,,,,,6,0,1,,,0,64,96,,
77413,note_on,,,,,3,0,1,,,0,,,45,41
77418,control_change,,,,,5,0,1,,,0,64,127,,
77420,note_off,,,,,2,0,1,,,0,,,69,64
77423,note_off,,,,,3,0,1,,,0,,,81,64
77525,note_on,,,,,102,0,1,,,0,,,64,44
77529,note_on,,,,,4,0,1,,,0,,,76,50
77533,note_on,,,,,4,0,1,,,0,,,57,21
77543,note_off,,,,,10,0,1,,,0,,,76,64
77548,note_off,,,,,5,0,1,,,0,,,64,64
77643,note_on,,,,,0,0,1,,,0,,,73,58
77643,note_on,,,,,95,0,1,,,0,,,61,44
77649,note_off,,,,,6,0,1,,,0,,,57,64
77649,note_on,,,,,0,0,1,,,0,,,49,35
77649,note_off,,,,,0,0,1,,,0,,,45,64
77653,note_off,,,,,4,0,1,,,0,,,61,64
77657,note_off,,,,,4,0,1,,,0,,,49,64
77659,note_off,,,,,2,0,1,,,0,,,73,64
77735,control_change,,,,,76,0,1,,,0,64,96,,
77740,control_change,,,,,5,0,1,,,0,64,64,,
77746,control_change,,,,,6,0,1,,,0,64,0,,
77755,note_on,,,,,9,0,1,,,0,,,78,63
77760,note_on,,,,,0,0,1,,,0,,,66,50
77760,note_on,,,,,5,0,1,,,0,,,50,50
77765,note_on,,,,,5,0,1,,,0,,,57,44
77770,control_change,,,,,5,0,1,,,0,64,96,,
77776,control_change,,,,,6,0,1,,,0,64,127,,
77778,note_off,,,,,2,0,1,,,0,,,66,64
77781,note_off,,,,,3,0,1,,,0,,,78,64
77795,note_off,,,,,14,0,1,,,0,,,50,64
77874,note_on,,,,,79,0,1,,,0,,,62,56
77874,note_on,,,,,0,0,1,,,0,,,74,67
77884,note_on,,,,,10,0,1,,,0,,,47,56
77887,note_off,,,,,3,0,1,,,0,,,62,64
77898,note_off,,,,,11,0,1,,,0,,,74,64
77985,note_on,,,,,87,0,1,,,0,,,68,68
77985,note_on,,,,,0,0,1,,,0,,,80,74
77993,note_off,,,,,8,0,1,,,0,,,47,64
77995,note_on,,,,,2,0,1,,,0,,,52,59
78001,note_off,,,,,6,0,1,,,0,,,68,64
78005,note_off,,,,,4,0,1,,,0,,,80,64
78020,note_off,,,,,15,0,1,,,0,,,57,64
78066,note_off,,,,,46,0,1,,,0,,,52,64
78088,control_change,,,,,22,0,1,,,0,64,96,,
78094,control_change,,,,,6,0,1,,,0,64,0,,
78105,note_on,,,,,11,0,1,,,0,,,81,70
78109,note_on,,,,,0,0,1,,,0,,,57,41
78109,note_on,,,,,0,0,1,,,0,,,69,56
78109,note_on,,,,,4,0,1,,,0,,,49,50
78127,control_change,,,,,18,0,1,,,0,64,64,,
78131,note_off,,,,,4,0,1,,,0,,,81,64
78131,note_off,,,,,0,0,1,,,0,,,69,64
78135,control_change,,,,,4,0,1,,,0,64,127,,
78238,note_on,,,,,103,0,1,,,0,,,76,59
78242,note_on,,,,,4,0,1,,,0,,,64,49
78248,note_off,,,,,6,0,1,,,0,,,49,64
78249,note_on,,,,,1,0,1,,,0,,,45,44
78261,note_off,,,,,12,0,1,,,0,,,64,64
78261,note_off,,,,,0,0,1,,,0,,,76,64
78342,note_off,,,,,81,0,1,,,0,,,57,64
78349,note_on,,,,,7,0,1,,,0,,,73,68
78349,note_on,,,,,0,0,1,,,0,,,61,54
78360,note_off,,,,,11,0,1,,,0,,,45,64
78361,note_off,,,,,1,0,1,,,0,,,61,64
78367,note_off,,,,,6,0,1,,,0,,,73,64
78457,control_change,,,,,90,0,1,,,0,64,96,,
78463,control_change,,,,,6,0,1,,,0,64,0,,
78472,note_on,,,,,9,0,1,,,0,,,78,58
78476,note_on,,,,,0,0,1,,,0,,,50,44
78476,note_on,,,,,0,0,1,,,0,,,57,39
78476,note_on,,,,,4,0,1,,,0,,,66,35
78486,control_change,,,,,10,0,1,,,0,64,64,,
78488,note_off,,,,,2,0,1,,,0,,,66,64
78491,note_off,,,,,3,0,1,,,0,,,78,64
78494,control_change,,,,,3,0,1,,,0,64,127,,
78579,note_on,,,,,85,0,1,,,0,,,62,59
78583,note_on,,,,,4,0,1,,,0,,,74,67
78587,note_off,,,,,4,0,1,,,0,,,50,64
78592,note_on,,,,,0,0,1,,,0,,,47,50
78592,note_off,,,,,5,0,1,,,0,,,62,64
78602,note_off,,,,,10,0,1,,,0,,,74,64
78609,note_off,,,,,7,0,1,,,0,,,57,64
78697,note_on,,,,,88,0,1,,,0,,,80,74
78697,note_on,,,,,0,0,1,,,0,,,68,63
78702,note_on,,,,,5,0,1,,,0,,,52,52
78712,note_off,,,,,10,0,1,,,0,,,68,64
78719,note_off,,,,,7,0,1,,,0,,,80,64
78719,note_off,,,,,0,0,1,,,0,,,47,64
78772,note_off,,,,,53,0,1,,,0,,,52,64
78800,control_change,,,,,28,0,1,,,0,64,96,,
78806,control_change,,,,,6,0,1,,,0,64,0,,
78817,note_on,,,,,11,0,1,,,0,,,81,70
78817,note_on,,,,,0,0,1,,,0,,,49,50
78822,note_on,,,,,5,0,1,,,0,,,69,59
78826,note_on,,,,,4,0,1,,,0,,,57,34
78835,control_change,,,,,9,0,1,,,0,64,64,,
78841,control_change,,,,,6,0,1,,,0,64,127,,
78844,note_off,,,,,3,0,1,,,0,,,69,64
78846,note_off,,,,,2,0,1,,,0,,,81,64
78870,note_off,,,,,24,0,1,,,0,,,57,64
78943,note_on,,,,,73,0,1,,,0,,,76,67
78943,note_on,,,,,0,0,1,,,0,,,64,55
78949,note_on,,,,,6,0,1,,,0,,,45,39
78954,note_off,,,,,5,0,1,,,0,,,49,64
78963,note_off,,,,,9,0,1,,,0,,,64,64
78963,note_off,,,,,0,0,1,,,0,,,76,64
79054,note_on,,,,,91,0,1,,,0,,,61,54
79057,note_on,,,,,3,0,1,,,0,,,73,63
79063,note_off,,,,,6,0,1,,,0,,,45,64
79066,note_off,,,,,3,0,1,,,0,,,61,64
79074,note_off,,,,,8,0,1,,,0,,,73,64
79157,control_change,,,,,83,0,1,,,0,64,96,,
79163,control_change,,,,,6,0,1,,,0,64,64,,
79168,control_change,,,,,5,0,1,,,0,64,0,,
79174,note_on,,,,,6,0,1,,,0,,,57,41
79177,note_on,,,,,3,0,1,,,0,,,50,44
79178,note_on,,,,,1,0,1,,,0,,,66,44
79178,note_on,,,,,0,0,1,,,0,,,78,50
79187,control_change,,,,,9,0,1,,,0,64,96,,
79192,note_off,,,,,5,0,1,,,0,,,66,64
79194,control_change,,,,,2,0,1,,,0,64,127,,
79198,note_off,,,,,4,0,1,,,0,,,78,64
79295,note_on,,,,,0,0,1,,,0,,,74,62
79295,note_on,,,,,97,0,1,,,0,,,62,52
79305,note_off,,,,,10,0,1,,,0,,,50,64
79309,note_off,,,,,4,0,1,,,0,,,62,64
79312,note_on,,,,,3,0,1,,,0,,,47,52
79320,note_off,,,,,8,0,1,,,0,,,74,64
79419,note_off,,,,,99,0,1,,,0,,,57,64
79419,note_on,,,,,0,0,1,,,0,,,80,68
79423,note_on,,,,,4,0,1,,,0,,,52,50
79423,note_on,,,,,0,0,1,,,0,,,68,47
79430,note_off,,,,,0,0,1,,,0,,,47,64
79430,note_off,,,,,7,0,1,,,0,,,68,64
79437,note_off,,,,,7,0,1,,,0,,,52,64
79444,note_off,,,,,7,0,1,,,0,,,80,64
79538,control_change,,,,,94,0,1,,,0,64,96,,
79544,control_change,,,,,6,0,1,,,0,64,0,,
79545,note_on,,,,,1,0,1,,,0,,,81,70
79549,note_on,,,,,4,0,1,,,0,,,69,52
79552,note_on,,,,,3,0,1,,,0,,,57,52
79552,note_on,,,,,0,0,1,,,0,,,49,63
79578,control_change,,,,,26,0,1,,,0,64,64,,
79584,control_change,,,,,6,0,1,,,0,64,127,,
79666,note_off,,,,,82,0,1,,,0,,,81,64
79670,note_on,,,,,4,0,1,,,0,,,73,47
79675,note_on,,,,,5,0,1,,,0,,,76,21
79679,note_off,,,,,4,0,1,,,0,,,69,64
79682,note_off,,,,,3,0,1,,,0,,,73,64
79685,note_off,,,,,3,0,1,,,0,,,76,64
79685,note_on,,,,,0,0,1,,,0,,,50,62
79691,note_off,,,,,6,0,1,,,0,,,49,64
79792,note_on,,,,,101,0,1,,,0,,,74,67
79796,note_on,,,,,4,0,1,,,0,,,66,55
79814,note_off,,,,,18,0,1,,,0,,,66,64
79851,note_off,,,,,37,0,1,,,0,,,57,64
79887,note_off,,,,,36,0,1,,,0,,,74,64
79901,control_change,,,,,14,0,1,,,0,64,96,,
79907,control_change,,,,,6,0,1,,,0,64,0,,
79913,note_on,,,,,6,0,1,,,0,,,73,68
79916,note_on,,,,,3,0,1,,,0,,,64,60
79920,note_on,,,,,4,0,1,,,0,,,52,67
79923,note_off,,,,,3,0,1,,,0,,,50,64
79944,control_change,,,,,21,0,1,,,0,64,64,,
79948,note_off,,,,,4,0,1,,,0,,,64,64
79950,control_change,,,,,2,0,1,,,0,64,127,,
79964,note_off,,,,,14,0,1,,,0,,,73,64
80032,note_on,,,,,68,0,1,,,0,,,73,58
80035,note_on,,,,,3,0,1,,,0,,,69,47
80039,note_on,,,,,4,0,1,,,0,,,64,34
80078,note_off,,,,,39,0,1,,,0,,,69,64
80078,note_off,,,,,0,0,1,,,0,,,73,64
80097,note_off,,,,,19,0,1,,,0,,,64,64
80147,control_change,,,,,50,0,1,,,0,64,96,,
80166,note_on,,,,,19,0,1,,,0,,,71,67
80170,control_change,,,,,4,0,1,,,0,64,127,,
80172,note_on,,,,,2,0,1,,,0,,,40,56
80172,note_on,,,,,0,0,1,,,0,,,62,50
80194,note_off,,,,,22,0,1,,,0,,,62,64
80206,note_off,,,,,12,0,1,,,0,,,52,64
80247,note_off,,,,,41,0,1,,,0,,,71,64
80275,control_change,,,,,28,0,1,,,0,64,96,,
80282,control_change,,,,,7,0,1,,,0,64,0,,
80284,note_on,,,,,0,0,1,,,0,,,61,54
80284,note_on,,,,,2,0,1,,,0,,,69,62
80289,note_off,,,,,5,0,1,,,0,,,40,64
80289,note_on,,,,,0,0,1,,,0,,,45,67
80327,note_off,,,,,38,0,1,,,0,,,61,64
80329,control_change,,,,,2,0,1,,,0,64,64,,
80335,control_change,,,,,6,0,1,,,0,64,127,,
80356,note_off,,,,,21,0,1,,,0,,,69,64
80412,note_on,,,,,56,0,1,,,0,,,61,39
80416,note_on,,,,,4,0,1,,,0,,,69,39
80429,note_off,,,,,13,0,1,,,0,,,61,64
80470,note_off,,,,,41,0,1,,,0,,,69,64
80519,note_off,,,,,49,0,1,,,0,,,45,64
80522,note_on,,,,,3,0,1,,,0,,,71,52
80528,note_on,,,,,6,0,1,,,0,,,64,47
80584,note_off,,,,,56,0,1,,,0,,,71,64
80632,control_change,,,,,48,0,1,,,0,64,96,,
80634,note_off,,,,,2,0,1,,,0,,,64,64
80636,note_on,,,,,2,0,1,,,0,,,69,56
80636,note_on,,,,,0,0,1,,,0,,,61,48
80643,control_change,,,,,7,0,1,,,0,64,0,,
80645,note_on,,,,,2,0,1,,,0,,,45,50
80662,control_change,,,,,17,0,1,,,0,64,64,,
80666,note_off,,,,,4,0,1,,,0,,,61,64
80669,control_change,,,,,3,0,1,,,0,64,96,,
80674,control_change,,,,,5,0,1,,,0,64,127,,
80688,note_off,,,,,14,0,1,,,0,,,69,64
80763,note_on,,,,,75,0,1,,,0,,,61,44
80767,note_on,,,,,4,0,1,,,0,,,69,47
80781,note_off,,,,,14,0,1,,,0,,,61,64
80823,note_off,,,,,42,0,1,,,0,,,69,64
80872,note_on,,,,,0,0,1,,,0,,,71,52
80872,note_off,,,,,49,0,1,,,0,,,45,64
80879,note_on,,,,,7,0,1,,,0,,,64,44
80940,note_off,,,,,61,0,1,,,0,,,71,64
80979,control_change,,,,,39,0,1,,,0,64,96,,
80983,note_off,,,,,4,0,1,,,0,,,64,64
80985,control_change,,,,,2,0,1,,,0,64,64,,
80991,control_change,,,,,6,0,1,,,0,64,0,,
80993,note_on,,,,,2,0,1,,,0,,,45,39
80996,note_on,,,,,3,0,1,,,0,,,69,56
80996,note_on,,,,,0,0,1,,,0,,,61,42
81007,control_change,,,,,11,0,1,,,0,64,64,,
81010,note_off,,,,,3,0,1,,,0,,,61,64
81013,control_change,,,,,3,0,1,,,0,64,96,,
81018,control_change,,,,,5,0,1,,,0,64,127,,
81042,note_off,,,,,24,0,1,,,0,,,69,64
81058,note_on,,,,,16,0,1,,,0,,,71,47
81066,note_on,,,,,8,0,1,,,0,,,64,34
81118,note_off,,,,,52,0,1,,,0,,,71,64
81125,note_on,,,,,7,0,1,,,0,,,69,56
81129,note_off,,,,,4,0,1,,,0,,,64,64
81129,note_on,,,,,0,0,1,,,0,,,61,44
81145,note_off,,,,,16,0,1,,,0,,,61,64
81177,note_off,,,,,32,0,1,,,0,,,69,64
81191,note_on,,,,,14,0,1,,,0,,,71,50
81197,note_on,,,,,6,0,1,,,0,,,64,49
81251,note_off,,,,,54,0,1,,,0,,,71,64
81256,note_off,,,,,5,0,1,,,0,,,64,64
81256,note_on,,,,,0,0,1,,,0,,,69,56
81260,note_on,,,,,4,0,1,,,0,,,61,42
81280,note_off,,,,,20,0,1,,,0,,,61,64
81305,note_off,,,,,25,0,1,,,0,,,45,64
81307,note_on,,,,,0,0,1,,,0,,,71,52
81307,note_off,,,,,2,0,1,,,0,,,69,64
81322,note_on,,,,,15,0,1,,,0,,,64,42
81360,note_on,,,,,38,0,1,,,0,,,69,15
81364,note_off,,,,,4,0,1,,,0,,,71,64
81373,note_off,,,,,9,0,1,,,0,,,64,64
81373,note_on,,,,,0,0,1,,,0,,,69,52
81376,note_on,,,,,3,0,1,,,0,,,61,44
81382,note_off,,,,,6,0,1,,,0,,,69,64
81382,control_change,,,,,0,0,1,,,0,64,64,,
81385,note_on,,,,,3,0,1,,,0,,,45,34
81390,note_on,,,,,5,0,1,,,0,,,71,39
81390,control_change,,,,,0,0,1,,,0,64,0,,
81412,note_off,,,,,22,0,1,,,0,,,71,64
81420,note_on,,,,,8,0,1,,,0,,,69,31
81442,note_off,,,,,22,0,1,,,0,,,69,64
81448,control_change,,,,,6,0,1,,,0,64,64,,
81450,note_on,,,,,2,0,1,,,0,,,71,39
81454,control_change,,,,,4,0,1,,,0,64,96,,
81460,control_change,,,,,6,0,1,,,0,64,127,,
81472,note_off,,,,,12,0,1,,,0,,,71,64
81480,note_on,,,,,8,0,1,,,0,,,69,31
81490,note_off,,,,,10,0,1,,,0,,,61,64
81495,note_off,,,,,5,0,1,,,0,,,45,64
81500,note_off,,,,,5,0,1,,,0,,,69,64
81502,note_off,,,,,2,0,1,,,0,,,69,64
81510,note_on,,,,,8,0,1,,,0,,,71,31
81532,note_off,,,,,22,0,1,,,0,,,71,64
81540,note_on,,,,,8,0,1,,,0,,,69,26
81562,note_off,,,,,22,0,1,,,0,,,69,64
81570,note_on,,,,,8,0,1,,,0,,,71,32
81592,note_off,,,,,22,0,1,,,0,,,71,64
81600,note_on,,,,,8,0,1,,,0,,,69,16
81622,note_off,,,,,22,0,1,,,0,,,69,64
81630,note_on,,,,,8,0,1,,,0,,,71,31
81652,note_off,,,,,22,0,1,,,0,,,71,64
81660,note_on,,,,,8,0,1,,,0,,,69,25
81682,note_off,,,,,22,0,1,,,0,,,69,64
81690,note_on,,,,,8,0,1,,,0,,,71,10
81726,note_off,,,,,36,0,1,,,0,,,71,64
81734,control_change,,,,,8,0,1,,,0,64,96,,
81740,control_change,,,,,6,0,1,,,0,64,64,,
81753,control_change,,,,,13,0,1,,,0,64,0,,
81779,control_change,,,,,26,0,1,,,0,64,64,,
81801,control_change,,,,,22,0,1,,,0,64,96,,
81838,control_change,,,,,37,0,1,,,0,64,64,,
81843,control_change,,,,,5,0,1,,,0,64,0,,
82080,note_on,,,,,237,0,1,,,0,,,45,22
82080,marker,,,,,31680,1,0,,,,,,,
82170,note_off,,,,,90,0,1,,,0,,,45,64
82200,note_on,,,,,30,0,1,,,0,,,69,28
82200,note_on,,,,,0,0,1,,,0,,,73,25
82290,note_off,,,,,0,0,1,,,0,,,69,64
82290,note_off,,,,,90,0,1,,,0,,,73,64
82320,note_on,,,,,30,0,1,,,0,,,74,32
82320,note_on,,,,,0,0,1,,,0,,,71,28
82410,note_off,,,,,90,0,1,,,0,,,71,64
82410,note_off,,,,,0,0,1,,,0,,,74,64
82438,note_on,,,,,28,0,1,,,0,,,69,25
82440,note_on,,,,,2,0,1,,,0,,,76,32
82440,note_on,,,,,0,0,1,,,0,,,73,28
82530,note_off,,,,,90,0,1,,,0,,,73,64
82530,note_off,,,,,0,0,1,,,0,,,76,64
82560,note_on,,,,,30,0,1,,,0,,,73,32
82560,note_on,,,,,0,0,1,,,0,,,76,32
82568,note_on,,,,,0,0,1,,,0,,,67,25
82568,note_off,,,,,8,0,1,,,0,,,69,64
82650,note_off,,,,,0,0,1,,,0,,,73,64
82650,note_off,,,,,82,0,1,,,0,,,76,64
82680,note_on,,,,,30,0,1,,,0,,,74,24
82680,note_on,,,,,0,0,1,,,0,,,78,29
82688,note_off,,,,,8,0,1,,,0,,,67,64
82688,note_on,,,,,0,0,1,,,0,,,66,28
82770,note_off,,,,,82,0,1,,,0,,,78,64
82770,note_off,,,,,0,0,1,,,0,,,74,64
82798,note_on,,,,,0,0,1,,,0,,,64,32
82798,note_off,,,,,28,0,1,,,0,,,66,64
82800,note_on,,,,,0,0,1,,,0,,,79,32
82800,note_on,,,,,2,0,1,,,0,,,76,35
82890,note_off,,,,,0,0,1,,,0,,,76,64
82890,note_off,,,,,90,0,1,,,0,,,79,64
82920,note_on,,,,,0,0,1,,,0,,,71,16
82920,note_on,,,,,30,0,1,,,0,,,74,28
83010,note_off,,,,,0,0,1,,,0,,,74,64
83010,note_off,,,,,90,0,1,,,0,,,71,64
83040,note_on,,,,,30,0,1,,,0,,,73,29
83040,note_on,,,,,0,0,1,,,0,,,76,32
83130,note_off,,,,,0,0,1,,,0,,,73,64
83130,note_off,,,,,90,0,1,,,0,,,76,64
83150,note_off,,,,,20,0,1,,,0,,,64,64
83152,note_on,,,,,2,0,1,,,0,,,71,29
83160,note_on,,,,,8,0,1,,,0,,,74,25
83160,note_on,,,,,0,0,1,,,0,,,78,35
83250,note_off,,,,,90,0,1,,,0,,,78,64
83250,note_off,,,,,0,0,1,,,0,,,74,64
83280,note_on,,,,,30,0,1,,,0,,,78,29
83280,note_on,,,,,0,0,1,,,0,,,74,25
83283,note_on,,,,,3,0,1,,,0,,,69,25
83294,note_off,,,,,11,0,1,,,0,,,71,64
83370,note_off,,,,,76,0,1,,,0,,,74,64
83370,note_off,,,,,0,0,1,,,0,,,78,64
83400,note_on,,,,,30,0,1,,,0,,,79,29
83400,note_on,,,,,0,0,1,,,0,,,76,19
83402,note_on,,,,,2,0,1,,,0,,,67,29
83410,note_off,,,,,8,0,1,,,0,,,69,64
83490,note_off,,,,,80,0,1,,,0,,,76,64
83490,note_off,,,,,0,0,1,,,0,,,79,64
83514,note_off,,,,,24,0,1,,,0,,,67,64
83520,note_on,,,,,6,0,1,,,0,,,81,32
83526,note_on,,,,,6,0,1,,,0,,,66,22
83530,note_on,,,,,4,0,1,,,0,,,69,24
83635,note_off,,,,,105,0,1,,,0,,,69,64
83639,note_on,,,,,4,0,1,,,0,,,71,28
83643,control_change,,,,,4,0,1,,,0,64,64,,
83663,note_off,,,,,20,0,1,,,0,,,71,64
83666,note_off,,,,,3,0,1,,,0,,,66,64
83686,control_change,,,,,20,0,1,,,0,64,96,,
83756,note_on,,,,,70,0,1,,,0,,,72,29
83760,note_on,,,,,4,0,1,,,0,,,64,26
83774,note_off,,,,,14,0,1,,,0,,,72,64
83781,note_off,,,,,7,0,1,,,0,,,64,64
83785,control_change,,,,,4,0,1,,,0,64,127,,
83862,control_change,,,,,77,0,1,,,0,64,96,,
83868,control_change,,,,,6,0,1,,,0,64,64,,
83872,note_on,,,,,4,0,1,,,0,,,63,35
83875,control_change,,,,,3,0,1,,,0,64,0,,
83877,note_on,,,,,2,0,1,,,0,,,71,29
83880,note_on,,,,,3,0,1,,,0,,,83,44
83880,note_on,,,,,0,0,1,,,0,,,71,23
83909,control_change,,,,,29,0,1,,,0,64,64,,
83915,control_change,,,,,6,0,1,,,0,64,96,,
83928,control_change,,,,,13,0,1,,,0,64,127,,
83948,note_off,,,,,20,0,1,,,0,,,81,64
83978,note_off,,,,,30,0,1,,,0,,,63,64
83997,control_change,,,,,19,0,1,,,0,64,96,,
83999,note_on,,,,,2,0,1,,,0,,,64,21
84000,note_on,,,,,1,0,1,,,0,,,79,25
84006,control_change,,,,,6,0,1,,,0,64,64,,
84013,control_change,,,,,7,0,1,,,0,64,0,,
84018,note_off,,,,,5,0,1,,,0,,,71,64
84090,note_off,,,,,72,0,1,,,0,,,79,64
84118,note_off,,,,,28,0,1,,,0,,,64,64
84118,note_on,,,,,0,0,1,,,0,,,63,29
84120,note_on,,,,,2,0,1,,,0,,,78,28
84150,note_off,,,,,30,0,1,,,0,,,71,64
84150,note_off,,,,,0,0,1,,,0,,,83,64
84210,note_off,,,,,60,0,1,,,0,,,78,64
84230,note_off,,,,,20,0,1,,,0,,,63,64
84230,note_on,,,,,0,0,1,,,0,,,64,32
84240,note_on,,,,,10,0,1,,,0,,,79,29
84330,note_off,,,,,90,0,1,,,0,,,79,64
84357,note_on,,,,,27,0,1,,,0,,,66,29
84360,note_on,,,,,3,0,1,,,0,,,81,32
84365,note_off,,,,,5,0,1,,,0,,,64,64
84450,note_off,,,,,85,0,1,,,0,,,81,64
84471,note_off,,,,,21,0,1,,,0,,,66,64
84480,note_on,,,,,9,0,1,,,0,,,67,32
84480,note_on,,,,,0,0,1,,,0,,,83,32
84593,note_off,,,,,113,0,1,,,0,,,67,64
84600,note_on,,,,,7,0,1,,,0,,,84,32
84605,note_on,,,,,5,0,1,,,0,,,57,29
84664,note_off,,,,,59,0,1,,,0,,,83,64
84675,control_change,,,,,11,0,1,,,0,64,64,,
84680,control_change,,,,,5,0,1,,,0,64,96,,
84690,note_off,,,,,10,0,1,,,0,,,84,64
84698,control_change,,,,,8,0,1,,,0,64,127,,
84720,note_on,,,,,0,0,1,,,0,,,84,35
84720,note_on,,,,,22,0,1,,,0,,,81,32
84801,note_off,,,,,81,0,1,,,0,,,57,64
84810,note_off,,,,,0,0,1,,,0,,,81,64
84810,note_off,,,,,9,0,1,,,0,,,84,64
84840,note_on,,,,,0,0,1,,,0,,,83,24
84840,note_on,,,,,30,0,1,,,0,,,79,19
84930,note_off,,,,,90,0,1,,,0,,,83,64
84960,note_on,,,,,30,0,1,,,0,,,81,35
84965,note_on,,,,,5,0,1,,,0,,,69,32
84972,control_change,,,,,7,0,1,,,0,64,64,,
84978,control_change,,,,,6,0,1,,,0,64,0,,
85024,note_off,,,,,46,0,1,,,0,,,79,64
85050,note_off,,,,,26,0,1,,,0,,,81,64
85080,note_on,,,,,30,0,1,,,0,,,81,29
85080,note_on,,,,,0,0,1,,,0,,,78,29
85109,control_change,,,,,29,0,1,,,0,64,64,,
85122,control_change,,,,,13,0,1,,,0,64,96,,
85170,note_off,,,,,48,0,1,,,0,,,78,64
85170,note_off,,,,,0,0,1,,,0,,,81,64
85194,control_change,,,,,24,0,1,,,0,64,127,,
85200,note_on,,,,,6,0,1,,,0,,,76,24
85200,note_on,,,,,0,0,1,,,0,,,79,24
85287,control_change,,,,,87,0,1,,,0,64,96,,
85290,note_off,,,,,3,0,1,,,0,,,79,64
85292,control_change,,,,,2,0,1,,,0,64,64,,
85299,control_change,,,,,7,0,1,,,0,64,0,,
85312,note_off,,,,,13,0,1,,,0,,,69,64
85320,note_on,,,,,8,0,1,,,0,,,77,28
85326,note_on,,,,,6,0,1,,,0,,,59,34
85352,control_change,,,,,26,0,1,,,0,64,64,,
85357,control_change,,,,,5,0,1,,,0,64,96,,
85384,control_change,,,,,27,0,1,,,0,64,127,,
85396,note_off,,,,,12,0,1,,,0,,,76,64
85410,note_off,,,,,14,0,1,,,0,,,77,64
85439,note_off,,,,,29,0,1,,,0,,,59,64
85440,note_on,,,,,1,0,1,,,0,,,74,24
85440,note_on,,,,,0,0,1,,,0,,,80,35
85448,note_on,,,,,8,0,1,,,0,,,71,28
85456,control_change,,,,,8,0,1,,,0,64,96,,
85507,control_change,,,,,51,0,1,,,0,64,64,,
85525,control_change,,,,,18,0,1,,,0,64,0,,
85530,note_off,,,,,5,0,1,,,0,,,80,64
85560,note_on,,,,,30,0,1,,,0,,,81,29
85568,note_on,,,,,8,0,1,,,0,,,69,21
85573,note_off,,,,,5,0,1,,,0,,,71,64
85650,note_off,,,,,77,0,1,,,0,,,81,64
85660,note_off,,,,,10,0,1,,,0,,,74,64
85680,note_on,,,,,20,0,1,,,0,,,83,50
85685,note_off,,,,,5,0,1,,,0,,,69,64
85690,note_on,,,,,5,0,1,,,0,,,68,32
85770,note_off,,,,,80,0,1,,,0,,,83,64
85800,note_on,,,,,30,0,1,,,0,,,76,52
85801,note_on,,,,,1,0,1,,,0,,,64,33
85807,note_off,,,,,6,0,1,,,0,,,68,64
85838,control_change,,,,,31,0,1,,,0,64,64,,
85848,control_change,,,,,10,0,1,,,0,64,96,,
85857,control_change,,,,,9,0,1,,,0,64,127,,
85909,note_off,,,,,52,0,1,,,0,,,64,64
85912,note_on,,,,,3,0,1,,,0,,,68,47
85920,note_on,,,,,8,0,1,,,0,,,74,47
85922,note_off,,,,,2,0,1,,,0,,,68,64
86028,control_change,,,,,106,0,1,,,0,64,96,,
86033,control_change,,,,,5,0,1,,,0,64,64,,
86034,note_on,,,,,1,0,1,,,0,,,57,52
86039,control_change,,,,,5,0,1,,,0,64,0,,
86092,control_change,,,,,53,0,1,,,0,64,64,,
86097,control_change,,,,,5,0,1,,,0,64,96,,
86112,note_off,,,,,15,0,1,,,0,,,74,64
86124,note_off,,,,,12,0,1,,,0,,,76,64
86154,control_change,,,,,30,0,1,,,0,64,127,,
86160,note_on,,,,,6,0,1,,,0,,,73,50
86250,note_off,,,,,90,0,1,,,0,,,73,64
86278,note_on,,,,,28,0,1,,,0,,,69,44
86280,note_on,,,,,2,0,1,,,0,,,81,47
86291,note_off,,,,,11,0,1,,,0,,,57,64
86292,note_off,,,,,1,0,1,,,0,,,69,64
86392,control_change,,,,,100,0,1,,,0,64,96,,
86397,control_change,,,,,5,0,1,,,0,64,64,,
86398,note_on,,,,,1,0,1,,,0,,,57,47
86400,note_on,,,,,2,0,1,,,0,,,82,58
86402,note_on,,,,,2,0,1,,,0,,,67,50
86407,control_change,,,,,5,0,1,,,0,64,0,,
86449,control_change,,,,,42,0,1,,,0,64,64,,
86455,control_change,,,,,6,0,1,,,0,64,96,,
86464,control_change,,,,,9,0,1,,,0,64,127,,
86480,note_off,,,,,16,0,1,,,0,,,81,64
86490,note_off,,,,,10,0,1,,,0,,,82,64
86520,note_on,,,,,30,0,1,,,0,,,82,50
86520,note_on,,,,,0,0,1,,,0,,,79,50
86529,note_off,,,,,9,0,1,,,0,,,67,64
86610,note_off,,,,,0,0,1,,,0,,,82,64
86610,note_off,,,,,81,0,1,,,0,,,79,64
86640,note_on,,,,,0,0,1,,,0,,,81,47
86640,note_on,,,,,30,0,1,,,0,,,77,44
86648,note_on,,,,,0,0,1,,,0,,,65,56
86648,note_off,,,,,8,0,1,,,0,,,57,64
86671,note_off,,,,,23,0,1,,,0,,,65,64
86730,note_off,,,,,59,0,1,,,0,,,81,64
86754,control_change,,,,,24,0,1,,,0,64,96,,
86760,control_change,,,,,6,0,1,,,0,64,64,,
86760,note_on,,,,,0,0,1,,,0,,,79,56
86761,note_on,,,,,1,0,1,,,0,,,57,44
86761,note_on,,,,,0,0,1,,,0,,,64,44
86772,control_change,,,,,11,0,1,,,0,64,0,,
86840,note_off,,,,,68,0,1,,,0,,,77,64
86850,note_off,,,,,10,0,1,,,0,,,79,64
86880,note_on,,,,,30,0,1,,,0,,,79,52
86880,note_on,,,,,0,0,1,,,0,,,76,41
86970,note_off,,,,,90,0,1,,,0,,,76,64
86970,note_off,,,,,0,0,1,,,0,,,79,64
86998,note_off,,,,,28,0,1,,,0,,,57,64
87000,note_on,,,,,0,0,1,,,0,,,77,47
87000,note_on,,,,,0,0,1,,,0,,,74,31
87000,note_on,,,,,2,0,1,,,0,,,62,39
87008,note_off,,,,,8,0,1,,,0,,,64,64
87012,control_change,,,,,4,0,1,,,0,64,64,,
87021,control_change,,,,,9,0,1,,,0,64,96,,
87060,control_change,,,,,39,0,1,,,0,64,64,,
87074,control_change,,,,,14,0,1,,,0,64,0,,
87090,note_off,,,,,16,0,1,,,0,,,77,64
87105,note_off,,,,,15,0,1,,,0,,,62,64
87119,note_on,,,,,14,0,1,,,0,,,57,44
87120,note_on,,,,,1,0,1,,,0,,,75,50
87196,note_off,,,,,76,0,1,,,0,,,74,64
87208,control_change,,,,,12,0,1,,,0,64,64,,
87210,note_off,,,,,2,0,1,,,0,,,75,64
87219,control_change,,,,,9,0,1,,,0,64,96,,
87238,note_off,,,,,19,0,1,,,0,,,57,64
87240,note_on,,,,,0,0,1,,,0,,,78,55
87240,note_on,,,,,0,0,1,,,0,,,72,41
87240,note_on,,,,,2,0,1,,,0,,,69,47
87330,note_off,,,,,90,0,1,,,0,,,78,64
87358,control_change,,,,,28,0,1,,,0,64,64,,
87360,note_on,,,,,2,0,1,,,0,,,79,47
87362,note_off,,,,,2,0,1,,,0,,,69,64
87366,note_on,,,,,4,0,1,,,0,,,67,26
87373,control_change,,,,,7,0,1,,,0,64,0,,
87450,note_off,,,,,77,0,1,,,0,,,79,64
87480,note_on,,,,,30,0,1,,,0,,,81,52
87485,note_off,,,,,5,0,1,,,0,,,67,64
87485,note_on,,,,,0,0,1,,,0,,,66,29
87548,note_off,,,,,63,0,1,,,0,,,72,64
87597,note_on,,,,,49,0,1,,,0,,,62,39
87600,note_on,,,,,3,0,1,,,0,,,74,44
87602,note_off,,,,,2,0,1,,,0,,,66,64
87651,control_change,,,,,49,0,1,,,0,64,64,,
87678,control_change,,,,,27,0,1,,,0,64,96,,
87690,note_off,,,,,12,0,1,,,0,,,74,64
87720,note_on,,,,,30,0,1,,,0,,,66,47
87720,note_on,,,,,0,0,1,,,0,,,72,47
87727,note_off,,,,,7,0,1,,,0,,,62,64
87810,note_off,,,,,83,0,1,,,0,,,72,64
87812,note_off,,,,,2,0,1,,,0,,,81,64
87821,control_change,,,,,9,0,1,,,0,64,64,,
87835,control_change,,,,,14,0,1,,,0,64,0,,
87840,note_on,,,,,0,0,1,,,0,,,71,39
87840,note_on,,,,,5,0,1,,,0,,,79,50
87848,note_off,,,,,8,0,1,,,0,,,66,64
87848,note_on,,,,,0,0,1,,,0,,,67,47
87930,note_off,,,,,82,0,1,,,0,,,71,64
87930,note_off,,,,,0,0,1,,,0,,,79,64
87956,note_on,,,,,26,0,1,,,0,,,64,37
87960,note_off,,,,,4,0,1,,,0,,,67,64
87960,note_on,,,,,0,0,1,,,0,,,73,47
88036,control_change,,,,,76,0,1,,,0,64,64,,
88049,control_change,,,,,13,0,1,,,0,64,96,,
88050,note_off,,,,,1,0,1,,,0,,,73,64
88080,note_on,,,,,0,0,1,,,0,,,69,34
88080,note_off,,,,,30,0,1,,,0,,,64,64
88080,note_on,,,,,0,0,1,,,0,,,74,44
88086,note_on,,,,,6,0,1,,,0,,,66,55
88093,note_off,,,,,0,0,1,,,0,,,69,64
88093,note_off,,,,,7,0,1,,,0,,,66,64
88100,control_change,,,,,7,0,1,,,0,64,127,,
88170,note_off,,,,,70,0,1,,,0,,,74,64
88193,control_change,,,,,23,0,1,,,0,64,96,,
88199,control_change,,,,,6,0,1,,,0,64,64,,
88200,note_on,,,,,0,0,1,,,0,,,76,44
88200,note_on,,,,,1,0,1,,,0,,,61,51
88209,control_change,,,,,9,0,1,,,0,64,0,,
88290,note_off,,,,,81,0,1,,,0,,,76,64
88291,control_change,,,,,1,0,1,,,0,64,64,,
88312,note_off,,,,,21,0,1,,,0,,,61,64
88314,note_on,,,,,2,0,1,,,0,,,62,50
88320,note_on,,,,,6,0,1,,,0,,,78,47
88392,control_change,,,,,72,0,1,,,0,64,96,,
88410,note_off,,,,,18,0,1,,,0,,,78,64
88417,control_change,,,,,7,0,1,,,0,64,127,,
88423,note_off,,,,,6,0,1,,,0,,,62,64
88426,note_on,,,,,3,0,1,,,0,,,59,36
88440,note_on,,,,,14,0,1,,,0,,,80,47
88442,note_off,,,,,2,0,1,,,0,,,59,64
88516,control_change,,,,,74,0,1,,,0,64,96,,
88521,control_change,,,,,5,0,1,,,0,64,64,,
88527,control_change,,,,,6,0,1,,,0,64,0,,
88530,note_off,,,,,3,0,1,,,0,,,80,64
88550,note_on,,,,,20,0,1,,,0,,,69,56
88554,note_on,,,,,4,0,1,,,0,,,57,52
88560,control_change,,,,,0,0,1,,,0,64,64,,
88560,note_on,,,,,6,0,1,,,0,,,81,56
88566,note_off,,,,,6,0,1,,,0,,,69,64
88569,control_change,,,,,3,0,1,,,0,64,96,,
88573,note_off,,,,,4,0,1,,,0,,,57,64
88577,control_change,,,,,4,0,1,,,0,64,127,,
88650,note_off,,,,,73,0,1,,,0,,,81,64
88663,note_on,,,,,13,0,1,,,0,,,55,56
88666,note_on,,,,,3,0,1,,,0,,,67,47
88675,note_off,,,,,9,0,1,,,0,,,67,64
88679,note_off,,,,,4,0,1,,,0,,,55,64
88680,note_on,,,,,1,0,1,,,0,,,73,58
88770,note_off,,,,,90,0,1,,,0,,,73,64
88785,note_on,,,,,15,0,1,,,0,,,66,58
88789,note_on,,,,,4,0,1,,,0,,,54,58
88800,note_on,,,,,0,0,1,,,0,,,74,62
88800,note_off,,,,,11,0,1,,,0,,,66,64
88806,note_off,,,,,6,0,1,,,0,,,54,64
88890,note_off,,,,,84,0,1,,,0,,,74,64
88893,control_change,,,,,3,0,1,,,0,64,96,,
88900,control_change,,,,,7,0,1,,,0,64,0,,
88905,note_on,,,,,5,0,1,,,0,,,61,62
88910,note_on,,,,,5,0,1,,,0,,,49,63
88920,note_on,,,,,10,0,1,,,0,,,76,62
88941,control_change,,,,,21,0,1,,,0,64,64,,
88947,control_change,,,,,6,0,1,,,0,64,127,,
88959,note_off,,,,,12,0,1,,,0,,,49,64
88967,note_off,,,,,8,0,1,,,0,,,61,64
89010,note_off,,,,,43,0,1,,,0,,,76,64
89029,note_on,,,,,19,0,1,,,0,,,62,59
89033,note_on,,,,,4,0,1,,,0,,,50,59
89040,note_off,,,,,7,0,1,,,0,,,62,64
89040,note_on,,,,,0,0,1,,,0,,,78,68
89050,note_off,,,,,10,0,1,,,0,,,50,64
89130,note_off,,,,,80,0,1,,,0,,,78,64
89145,note_on,,,,,15,0,1,,,0,,,59,71
89145,note_on,,,,,0,0,1,,,0,,,47,62
89160,note_on,,,,,15,0,1,,,0,,,80,63
89166,note_off,,,,,6,0,1,,,0,,,59,64
89171,note_off,,,,,5,0,1,,,0,,,47,64
89250,note_off,,,,,79,0,1,,,0,,,80,64
89259,control_change,,,,,9,0,1,,,0,64,96,,
89266,control_change,,,,,7,0,1,,,0,64,0,,
89268,note_on,,,,,2,0,1,,,0,,,57,70
89270,note_on,,,,,2,0,1,,,0,,,45,62
89280,note_on,,,,,10,0,1,,,0,,,81,62
89291,note_off,,,,,11,0,1,,,0,,,57,64
89295,note_off,,,,,4,0,1,,,0,,,45,64
89298,control_change,,,,,3,0,1,,,0,64,64,,
89304,control_change,,,,,6,0,1,,,0,64,96,,
89310,control_change,,,,,6,0,1,,,0,64,127,,
89370,note_off,,,,,60,0,1,,,0,,,81,64
89386,note_on,,,,,16,0,1,,,0,,,55,67
89390,note_on,,,,,4,0,1,,,0,,,43,67
89400,note_on,,,,,10,0,1,,,0,,,73,58
89408,note_off,,,,,8,0,1,,,0,,,55,64
89411,note_off,,,,,3,0,1,,,0,,,43,64
89490,note_off,,,,,79,0,1,,,0,,,73,64
89497,control_change,,,,,7,0,1,,,0,64,96,,
89503,control_change,,,,,6,0,1,,,0,64,64,,
89508,note_on,,,,,5,0,1,,,0,,,42,68
89508,note_on,,,,,0,0,1,,,0,,,54,68
89516,control_change,,,,,8,0,1,,,0,64,96,,
89520,note_on,,,,,4,0,1,,,0,,,74,67
89522,control_change,,,,,2,0,1,,,0,64,127,,
89525,note_off,,,,,3,0,1,,,0,,,54,64
89530,note_off,,,,,5,0,1,,,0,,,42,64
89610,note_off,,,,,80,0,1,,,0,,,74,64
89615,control_change,,,,,5,0,1,,,0,64,96,,
89621,control_change,,,,,6,0,1,,,0,64,0,,
89627,note_on,,,,,6,0,1,,,0,,,37,68
89627,note_on,,,,,0,0,1,,,0,,,49,74
89640,note_on,,,,,13,0,1,,,0,,,76,67
89654,control_change,,,,,14,0,1,,,0,64,64,,
89660,control_change,,,,,6,0,1,,,0,64,96,,
89665,control_change,,,,,5,0,1,,,0,64,127,,
89675,note_off,,,,,10,0,1,,,0,,,37,64
89705,note_off,,,,,30,0,1,,,0,,,49,64
89730,note_off,,,,,25,0,1,,,0,,,76,64
89741,control_change,,,,,11,0,1,,,0,64,96,,
89747,control_change,,,,,6,0,1,,,0,64,64,,
89751,note_on,,,,,4,0,1,,,0,,,50,70
89755,control_change,,,,,4,0,1,,,0,64,0,,
89756,note_on,,,,,1,0,1,,,0,,,38,67
89760,note_on,,,,,4,0,1,,,0,,,78,55
89771,control_change,,,,,11,0,1,,,0,64,64,,
89773,note_off,,,,,2,0,1,,,0,,,50,64
89778,control_change,,,,,5,0,1,,,0,64,96,,
89779,note_off,,,,,1,0,1,,,0,,,38,64
89784,control_change,,,,,5,0,1,,,0,64,127,,
89850,note_off,,,,,66,0,1,,,0,,,78,64
89867,control_change,,,,,17,0,1,,,0,64,96,,
89873,control_change,,,,,6,0,1,,,0,64,64,,
89878,control_change,,,,,5,0,1,,,0,64,0,,
89880,note_on,,,,,0,0,1,,,0,,,80,50
89880,note_on,,,,,2,0,1,,,0,,,47,67
89886,note_on,,,,,6,0,1,,,0,,,35,62
89891,control_change,,,,,5,0,1,,,0,64,96,,
89897,control_change,,,,,6,0,1,,,0,64,127,,
89905,note_off,,,,,8,0,1,,,0,,,47,64
89909,note_off,,,,,4,0,1,,,0,,,35,64
89992,control_change,,,,,83,0,1,,,0,64,96,,
89999,control_change,,,,,7,0,1,,,0,64,64,,
90000,note_on,,,,,0,0,1,,,0,,,45,62
90000,note_on,,,,,1,0,1,,,0,,,33,70
90007,control_change,,,,,7,0,1,,,0,64,0,,
90088,note_off,,,,,81,0,1,,,0,,,80,64
90120,note_on,,,,,32,0,1,,,0,,,81,65
90688,note_off,,,,,568,0,1,,,0,,,33,64
90692,note_off,,,,,4,0,1,,,0,,,81,64
90696,note_off,,,,,4,0,1,,,0,,,45,64
90720,note_on,,,,,24,0,1,,,0,,,74,44
90725,note_on,,,,,0,0,1,,,0,,,66,35
90725,note_on,,,,,5,0,1,,,0,,,69,39
90742,note_off,,,,,17,0,1,,,0,,,74,64
90750,note_on,,,,,8,0,1,,,0,,,76,34
90772,note_off,,,,,22,0,1,,,0,,,76,64
90777,note_off,,,,,5,0,1,,,0,,,69,64
90780,note_on,,,,,3,0,1,,,0,,,74,32
90802,note_off,,,,,22,0,1,,,0,,,74,64
90810,note_on,,,,,8,0,1,,,0,,,76,39
90832,note_off,,,,,22,0,1,,,0,,,76,64
90839,note_on,,,,,7,0,1,,,0,,,67,26
90840,note_on,,,,,1,0,1,,,0,,,74,32
90843,note_on,,,,,3,0,1,,,0,,,64,44
90847,note_off,,,,,4,0,1,,,0,,,66,64
90862,note_off,,,,,15,0,1,,,0,,,74,64
90870,note_on,,,,,8,0,1,,,0,,,76,26
90892,note_off,,,,,22,0,1,,,0,,,76,64
90900,note_on,,,,,8,0,1,,,0,,,76,52
90922,note_off,,,,,22,0,1,,,0,,,76,64
90930,note_on,,,,,8,0,1,,,0,,,78,47
90936,note_off,,,,,6,0,1,,,0,,,67,64
90939,note_off,,,,,3,0,1,,,0,,,64,64
90952,note_off,,,,,13,0,1,,,0,,,78,64
90956,note_on,,,,,4,0,1,,,0,,,66,38
90959,note_on,,,,,3,0,1,,,0,,,62,39
90960,note_on,,,,,1,0,1,,,0,,,79,52
91005,note_off,,,,,45,0,1,,,0,,,79,64
91020,note_on,,,,,15,0,1,,,0,,,81,52
91030,note_off,,,,,10,0,1,,,0,,,66,64
91065,note_off,,,,,35,0,1,,,0,,,81,64
91076,note_off,,,,,11,0,1,,,0,,,62,64
91079,note_on,,,,,3,0,1,,,0,,,71,50
91080,note_on,,,,,1,0,1,,,0,,,83,52
91085,note_on,,,,,5,0,1,,,0,,,67,56
91170,note_off,,,,,85,0,1,,,0,,,83,64
91200,note_on,,,,,30,0,1,,,0,,,79,44
91290,note_off,,,,,90,0,1,,,0,,,79,64
91320,note_on,,,,,30,0,1,,,0,,,76,47
91326,note_off,,,,,6,0,1,,,0,,,67,64
91326,note_off,,,,,0,0,1,,,0,,,71,64
91410,note_off,,,,,84,0,1,,,0,,,76,64
91438,note_on,,,,,28,0,1,,,0,,,67,47
91440,note_on,,,,,2,0,1,,,0,,,73,29
91442,note_on,,,,,2,0,1,,,0,,,64,26
91462,note_off,,,,,20,0,1,,,0,,,73,64
91470,note_on,,,,,8,0,1,,,0,,,74,36
91492,note_off,,,,,22,0,1,,,0,,,74,64
91500,note_on,,,,,8,0,1,,,0,,,73,40
91522,note_off,,,,,22,0,1,,,0,,,73,64
91530,note_on,,,,,8,0,1,,,0,,,74,34
91542,note_off,,,,,12,0,1,,,0,,,67,64
91547,note_on,,,,,5,0,1,,,0,,,69,41
91552,note_off,,,,,5,0,1,,,0,,,74,64
91560,note_on,,,,,8,0,1,,,0,,,66,32
91560,note_on,,,,,0,0,1,,,0,,,73,35
91582,note_off,,,,,22,0,1,,,0,,,73,64
91584,note_off,,,,,2,0,1,,,0,,,64,64
91590,note_on,,,,,6,0,1,,,0,,,74,31
91612,note_off,,,,,22,0,1,,,0,,,74,64
91613,note_off,,,,,1,0,1,,,0,,,69,64
91620,note_on,,,,,7,0,1,,,0,,,74,50
91642,note_off,,,,,22,0,1,,,0,,,74,64
91650,note_on,,,,,8,0,1,,,0,,,76,59
91671,note_on,,,,,21,0,1,,,0,,,67,47
91672,note_off,,,,,1,0,1,,,0,,,76,64
91677,note_on,,,,,5,0,1,,,0,,,71,41
91680,note_on,,,,,3,0,1,,,0,,,78,50
91681,note_off,,,,,1,0,1,,,0,,,66,64
91712,note_off,,,,,31,0,1,,,0,,,71,64
91725,note_off,,,,,13,0,1,,,0,,,78,64
91740,note_on,,,,,15,0,1,,,0,,,79,50
91785,note_off,,,,,45,0,1,,,0,,,79,64
91786,note_off,,,,,1,0,1,,,0,,,67,64
91790,note_on,,,,,4,0,1,,,0,,,66,47
91790,note_on,,,,,0,0,1,,,0,,,69,34
91800,note_on,,,,,10,0,1,,,0,,,81,62
91890,note_off,,,,,90,0,1,,,0,,,81,64
91920,note_on,,,,,30,0,1,,,0,,,78,58
92010,note_off,,,,,90,0,1,,,0,,,78,64
92031,note_off,,,,,21,0,1,,,0,,,66,64
92033,note_off,,,,,2,0,1,,,0,,,69,64
92040,note_on,,,,,7,0,1,,,0,,,74,59
92130,note_off,,,,,90,0,1,,,0,,,74,64
92159,note_on,,,,,29,0,1,,,0,,,66,40
92160,note_on,,,,,1,0,1,,,0,,,71,41
92165,note_on,,,,,5,0,1,,,0,,,62,32
92182,note_off,,,,,17,0,1,,,0,,,71,64
92190,note_on,,,,,8,0,1,,,0,,,73,47
92212,note_off,,,,,22,0,1,,,0,,,73,64
92220,note_on,,,,,8,0,1,,,0,,,71,34
92242,note_off,,,,,22,0,1,,,0,,,71,64
92250,note_on,,,,,8,0,1,,,0,,,73,47
92272,note_off,,,,,22,0,1,,,0,,,73,64
92274,note_on,,,,,0,0,1,,,0,,,64,49
92274,note_off,,,,,0,0,1,,,0,,,66,64
92274,note_off,,,,,2,0,1,,,0,,,62,64
92280,note_on,,,,,6,0,1,,,0,,,71,32
92281,note_on,,,,,1,0,1,,,0,,,67,41
92302,note_off,,,,,21,0,1,,,0,,,71,64
92310,note_on,,,,,8,0,1,,,0,,,73,40
92332,note_off,,,,,22,0,1,,,0,,,73,64
92340,note_on,,,,,8,0,1,,,0,,,73,58
92362,note_off,,,,,22,0,1,,,0,,,73,64
92370,note_on,,,,,8,0,1,,,0,,,74,59
92389,note_on,,,,,19,0,1,,,0,,,69,39
92392,note_off,,,,,3,0,1,,,0,,,74,64
92394,note_on,,,,,0,0,1,,,0,,,66,50
92394,note_off,,,,,2,0,1,,,0,,,67,64
92400,note_on,,,,,6,0,1,,,0,,,76,52
92402,note_off,,,,,2,0,1,,,0,,,64,64
92445,note_off,,,,,43,0,1,,,0,,,76,64
92460,note_on,,,,,15,0,1,,,0,,,78,58
92501,note_off,,,,,41,0,1,,,0,,,66,64
92505,note_off,,,,,4,0,1,,,0,,,78,64
92510,note_off,,,,,5,0,1,,,0,,,69,64
92515,note_on,,,,,5,0,1,,,0,,,64,40
92515,note_on,,,,,0,0,1,,,0,,,67,36
92520,note_on,,,,,5,0,1,,,0,,,79,67
92610,note_off,,,,,90,0,1,,,0,,,79,64
92640,note_on,,,,,30,0,1,,,0,,,76,50
92730,note_off,,,,,90,0,1,,,0,,,76,64
92738,note_off,,,,,8,0,1,,,0,,,67,64
92741,note_off,,,,,3,0,1,,,0,,,64,64
92760,note_on,,,,,19,0,1,,,0,,,73,40
92850,note_off,,,,,90,0,1,,,0,,,73,64
92874,note_on,,,,,24,0,1,,,0,,,61,44
92879,note_on,,,,,5,0,1,,,0,,,64,34
92880,note_on,,,,,1,0,1,,,0,,,69,41
92902,note_off,,,,,22,0,1,,,0,,,69,64
92910,note_on,,,,,8,0,1,,,0,,,71,32
92932,note_off,,,,,22,0,1,,,0,,,71,64
92940,note_on,,,,,8,0,1,,,0,,,69,32
92962,note_off,,,,,22,0,1,,,0,,,69,64
92970,note_on,,,,,8,0,1,,,0,,,71,29
92989,note_off,,,,,19,0,1,,,0,,,61,64
92992,note_off,,,,,3,0,1,,,0,,,71,64
93000,note_on,,,,,0,0,1,,,0,,,69,25
93000,note_off,,,,,8,0,1,,,0,,,64,64
93003,note_on,,,,,0,0,1,,,0,,,66,44
93003,note_on,,,,,3,0,1,,,0,,,62,39
93022,note_off,,,,,19,0,1,,,0,,,69,64
93030,note_on,,,,,8,0,1,,,0,,,71,20
93052,note_off,,,,,22,0,1,,,0,,,71,64
93060,note_on,,,,,8,0,1,,,0,,,71,50
93082,note_off,,,,,22,0,1,,,0,,,71,64
93090,note_on,,,,,8,0,1,,,0,,,73,63
93112,note_off,,,,,22,0,1,,,0,,,73,64
93116,note_on,,,,,0,0,1,,,0,,,67,32
93116,note_off,,,,,4,0,1,,,0,,,62,64
93120,note_on,,,,,0,0,1,,,0,,,74,52
93120,note_on,,,,,4,0,1,,,0,,,64,44
93132,note_off,,,,,12,0,1,,,0,,,66,64
93142,note_off,,,,,10,0,1,,,0,,,67,64
93147,note_off,,,,,5,0,1,,,0,,,64,64
93165,note_off,,,,,18,0,1,,,0,,,74,64
93180,note_on,,,,,15,0,1,,,0,,,76,56
93225,note_off,,,,,45,0,1,,,0,,,76,64
93240,note_on,,,,,15,0,1,,,0,,,78,50
93247,note_on,,,,,7,0,1,,,0,,,50,50
93330,note_off,,,,,83,0,1,,,0,,,78,64
93360,note_on,,,,,30,0,1,,,0,,,66,40
93366,note_off,,,,,6,0,1,,,0,,,50,64
93366,note_on,,,,,0,0,1,,,0,,,62,52
93405,note_off,,,,,39,0,1,,,0,,,66,64
93420,note_on,,,,,15,0,1,,,0,,,66,40
93465,note_off,,,,,45,0,1,,,0,,,66,64
93480,note_on,,,,,15,0,1,,,0,,,66,32
93486,note_on,,,,,6,0,1,,,0,,,61,44
93489,control_change,,,,,3,0,1,,,0,64,64,,
93493,note_off,,,,,4,0,1,,,0,,,62,64
93525,note_off,,,,,32,0,1,,,0,,,66,64
93540,note_on,,,,,15,0,1,,,0,,,66,19
93585,note_off,,,,,45,0,1,,,0,,,66,64
93599,control_change,,,,,14,0,1,,,0,64,0,,
93600,note_on,,,,,0,0,1,,,0,,,66,44
93600,note_off,,,,,1,0,1,,,0,,,61,64
93605,note_on,,,,,5,0,1,,,0,,,59,51
93645,note_off,,,,,40,0,1,,,0,,,66,64
93660,note_on,,,,,15,0,1,,,0,,,66,38
93705,note_off,,,,,45,0,1,,,0,,,66,64
93710,note_off,,,,,5,0,1,,,0,,,59,64
93720,note_on,,,,,0,0,1,,,0,,,66,44
93720,note_on,,,,,10,0,1,,,0,,,62,44
93765,note_off,,,,,45,0,1,,,0,,,66,64
93780,note_on,,,,,15,0,1,,,0,,,66,29
93825,note_off,,,,,45,0,1,,,0,,,66,64
93829,note_on,,,,,4,0,1,,,0,,,57,52
93837,note_off,,,,,8,0,1,,,0,,,62,64
93840,note_on,,,,,3,0,1,,,0,,,66,35
93885,note_off,,,,,45,0,1,,,0,,,66,64
93900,note_on,,,,,15,0,1,,,0,,,66,47
93945,note_off,,,,,45,0,1,,,0,,,66,64
93955,note_off,,,,,10,0,1,,,0,,,57,64
93955,note_on,,,,,0,0,1,,,0,,,55,52
93960,note_on,,,,,5,0,1,,,0,,,71,41
94005,note_off,,,,,45,0,1,,,0,,,71,64
94020,note_on,,,,,15,0,1,,,0,,,71,39
94065,note_off,,,,,45,0,1,,,0,,,71,64
94074,note_off,,,,,9,0,1,,,0,,,55,64
94080,note_on,,,,,0,0,1,,,0,,,71,41
94080,note_on,,,,,6,0,1,,,0,,,62,32
94090,control_change,,,,,10,0,1,,,0,64,64,,
94125,note_off,,,,,35,0,1,,,0,,,71,64
94140,note_on,,,,,15,0,1,,,0,,,71,39
94185,note_off,,,,,45,0,1,,,0,,,71,64
94200,note_on,,,,,15,0,1,,,0,,,54,38
94200,note_on,,,,,0,0,1,,,0,,,71,36
94205,note_off,,,,,5,0,1,,,0,,,62,64
94245,note_off,,,,,40,0,1,,,0,,,71,64
94251,control_change,,,,,6,0,1,,,0,64,0,,
94260,note_on,,,,,9,0,1,,,0,,,71,34
94305,note_off,,,,,45,0,1,,,0,,,71,64
94320,note_off,,,,,15,0,1,,,0,,,54,64
94320,note_on,,,,,0,0,1,,,0,,,71,39
94327,note_on,,,,,7,0,1,,,0,,,52,59
94345,control_change,,,,,18,0,1,,,0,64,64,,
94365,note_off,,,,,20,0,1,,,0,,,71,64
94369,control_change,,,,,4,0,1,,,0,64,96,,
94380,note_on,,,,,11,0,1,,,0,,,71,34
94425,note_off,,,,,45,0,1,,,0,,,71,64
94440,note_on,,,,,15,0,1,,,0,,,71,39
94441,note_off,,,,,1,0,1,,,0,,,52,64
94448,note_on,,,,,7,0,1,,,0,,,64,40
94485,note_off,,,,,37,0,1,,,0,,,71,64
94486,note_off,,,,,1,0,1,,,0,,,64,64
94500,note_on,,,,,14,0,1,,,0,,,71,34
94545,note_off,,,,,45,0,1,,,0,,,71,64
94554,note_on,,,,,9,0,1,,,0,,,50,47
94560,note_on,,,,,6,0,1,,,0,,,71,39
94577,note_off,,,,,17,0,1,,,0,,,50,64
94605,note_off,,,,,28,0,1,,,0,,,71,64
94620,note_on,,,,,15,0,1,,,0,,,71,41
94642,control_change,,,,,22,0,1,,,0,64,64,,
94653,control_change,,,,,11,0,1,,,0,64,0,,
94665,note_off,,,,,12,0,1,,,0,,,71,64
94673,note_on,,,,,8,0,1,,,0,,,49,63
94680,note_on,,,,,7,0,1,,,0,,,76,47
94711,control_change,,,,,31,0,1,,,0,64,64,,
94722,control_change,,,,,11,0,1,,,0,64,96,,
94725,note_off,,,,,3,0,1,,,0,,,76,64
94740,note_on,,,,,15,0,1,,,0,,,76,41
94785,note_off,,,,,45,0,1,,,0,,,76,64
94789,note_off,,,,,4,0,1,,,0,,,49,64
94789,note_on,,,,,0,0,1,,,0,,,61,54
94800,note_on,,,,,11,0,1,,,0,,,76,41
94845,note_off,,,,,45,0,1,,,0,,,76,64
94860,note_on,,,,,15,0,1,,,0,,,76,34
94905,note_off,,,,,45,0,1,,,0,,,76,64
94919,note_on,,,,,14,0,1,,,0,,,59,48
94920,note_on,,,,,1,0,1,,,0,,,76,50
94925,note_off,,,,,5,0,1,,,0,,,61,64
94965,note_off,,,,,40,0,1,,,0,,,76,64
94980,note_on,,,,,15,0,1,,,0,,,76,34
95024,control_change,,,,,44,0,1,,,0,64,64,,
95025,note_off,,,,,1,0,1,,,0,,,76,64
95036,control_change,,,,,11,0,1,,,0,64,0,,
95040,note_on,,,,,4,0,1,,,0,,,76,36
95041,note_on,,,,,1,0,1,,,0,,,57,52
95047,note_off,,,,,6,0,1,,,0,,,59,64
95085,note_off,,,,,38,0,1,,,0,,,76,64
95092,control_change,,,,,7,0,1,,,0,64,64,,
95100,note_on,,,,,8,0,1,,,0,,,76,41
95108,control_change,,,,,8,0,1,,,0,64,96,,
95145,note_off,,,,,37,0,1,,,0,,,76,64
95157,note_off,,,,,12,0,1,,,0,,,57,64
95160,note_on,,,,,3,0,1,,,0,,,76,34
95167,note_on,,,,,7,0,1,,,0,,,64,44
95205,note_off,,,,,38,0,1,,,0,,,76,64
95220,note_on,,,,,15,0,1,,,0,,,76,34
95265,note_off,,,,,45,0,1,,,0,,,76,64
95280,note_on,,,,,15,0,1,,,0,,,55,47
95280,note_on,,,,,0,0,1,,,0,,,76,34
95298,note_off,,,,,18,0,1,,,0,,,64,64
95325,note_off,,,,,27,0,1,,,0,,,76,64
95340,note_on,,,,,15,0,1,,,0,,,76,32
95346,control_change,,,,,6,0,1,,,0,64,64,,
95352,control_change,,,,,6,0,1,,,0,64,0,,
95385,note_off,,,,,33,0,1,,,0,,,76,64
95392,note_off,,,,,7,0,1,,,0,,,55,64
95396,note_on,,,,,4,0,1,,,0,,,54,63
95400,note_on,,,,,4,0,1,,,0,,,81,52
95403,control_change,,,,,3,0,1,,,0,64,64,,
95411,control_change,,,,,8,0,1,,,0,64,96,,
95424,note_off,,,,,13,0,1,,,0,,,54,64
95436,control_change,,,,,12,0,1,,,0,64,127,,
95445,note_off,,,,,9,0,1,,,0,,,81,64
95460,note_on,,,,,15,0,1,,,0,,,81,44
95505,note_off,,,,,45,0,1,,,0,,,81,64
95509,note_on,,,,,4,0,1,,,0,,,54,63
95509,note_on,,,,,0,0,1,,,0,,,66,44
95520,note_on,,,,,11,0,1,,,0,,,81,44
95530,note_off,,,,,10,0,1,,,0,,,66,64
95539,note_off,,,,,9,0,1,,,0,,,54,64
95565,note_off,,,,,26,0,1,,,0,,,81,64
95580,note_on,,,,,15,0,1,,,0,,,81,41
95625,note_off,,,,,45,0,1,,,0,,,81,64
95629,note_on,,,,,4,0,1,,,0,,,64,60
95633,note_on,,,,,4,0,1,,,0,,,52,59
95640,note_on,,,,,7,0,1,,,0,,,81,41
95652,note_off,,,,,12,0,1,,,0,,,64,64
95654,note_off,,,,,2,0,1,,,0,,,52,64
95685,note_off,,,,,31,0,1,,,0,,,81,64
95700,note_on,,,,,15,0,1,,,0,,,81,44
95729,control_change,,,,,29,0,1,,,0,64,96,,
95736,control_change,,,,,7,0,1,,,0,64,64,,
95742,control_change,,,,,6,0,1,,,0,64,0,,
95745,note_off,,,,,3,0,1,,,0,,,81,64
95748,note_on,,,,,3,0,1,,,0,,,62,56
95752,note_on,,,,,4,0,1,,,0,,,50,56
95760,note_on,,,,,8,0,1,,,0,,,81,47
95779,note_off,,,,,19,0,1,,,0,,,62,64
95782,control_change,,,,,3,0,1,,,0,64,64,,
95787,control_change,,,,,5,0,1,,,0,64,96,,
95790,note_off,,,,,3,0,1,,,0,,,50,64
95805,note_off,,,,,15,0,1,,,0,,,81,64
95820,note_on,,,,,15,0,1,,,0,,,81,50
95865,note_off,,,,,45,0,1,,,0,,,81,64
95871,note_on,,,,,6,0,1,,,0,,,62,59
95871,note_on,,,,,0,0,1,,,0,,,50,62
95880,note_on,,,,,9,0,1,,,0,,,81,39
95894,note_off,,,,,14,0,1,,,0,,,62,64
95900,note_off,,,,,6,0,1,,,0,,,50,64
95925,note_off,,,,,25,0,1,,,0,,,81,64
95940,note_on,,,,,15,0,1,,,0,,,81,41
95974,control_change,,,,,34,0,1,,,0,64,64,,
95985,note_off,,,,,11,0,1,,,0,,,81,64
95990,note_on,,,,,5,0,1,,,0,,,61,67
95993,note_on,,,,,3,0,1,,,0,,,49,63
96000,control_change,,,,,7,0,1,,,0,64,96,,
96000,note_on,,,,,0,0,1,,,0,,,81,36
96012,note_off,,,,,12,0,1,,,0,,,61,64
96017,note_off,,,,,5,0,1,,,0,,,49,64
96045,note_off,,,,,28,0,1,,,0,,,81,64
96060,note_on,,,,,15,0,1,,,0,,,81,44
96077,control_change,,,,,17,0,1,,,0,64,64,,
96083,control_change,,,,,6,0,1,,,0,64,0,,
96105,note_off,,,,,22,0,1,,,0,,,81,64
96108,note_on,,,,,3,0,1,,,0,,,47,62
96108,note_on,,,,,0,0,1,,,0,,,59,66
96120,note_on,,,,,12,0,1,,,0,,,86,62
96127,control_change,,,,,7,0,1,,,0,64,64,,
96131,note_off,,,,,4,0,1,,,0,,,59,64
96133,control_change,,,,,2,0,1,,,0,64,96,,
96139,note_off,,,,,6,0,1,,,0,,,47,64
96165,note_off,,,,,26,0,1,,,0,,,86,64
96180,note_on,,,,,15,0,1,,,0,,,85,52
96183,control_change,,,,,3,0,1,,,0,64,127,,
96208,control_change,,,,,25,0,1,,,0,64,96,,
96218,control_change,,,,,10,0,1,,,0,64,64,,
96225,note_off,,,,,7,0,1,,,0,,,85,64
96227,note_on,,,,,2,0,1,,,0,,,43,70
96231,note_on,,,,,4,0,1,,,0,,,55,67
96236,note_on,,,,,5,0,1,,,0,,,83,55
96237,control_change,,,,,1,0,1,,,0,64,96,,
96249,note_off,,,,,12,0,1,,,0,,,43,64
96252,note_off,,,,,3,0,1,,,0,,,55,64
96265,control_change,,,,,13,0,1,,,0,64,127,,
96281,note_off,,,,,16,0,1,,,0,,,83,64
96300,note_on,,,,,19,0,1,,,0,,,81,47
96324,control_change,,,,,24,0,1,,,0,64,96,,
96333,control_change,,,,,9,0,1,,,0,64,64,,
96339,control_change,,,,,6,0,1,,,0,64,0,,
96345,note_off,,,,,6,0,1,,,0,,,81,64
96349,note_on,,,,,0,0,1,,,0,,,59,66
96349,note_on,,,,,4,0,1,,,0,,,47,59
96360,note_on,,,,,11,0,1,,,0,,,79,44
96365,control_change,,,,,5,0,1,,,0,64,64,,
96372,control_change,,,,,7,0,1,,,0,64,96,,
96376,note_off,,,,,4,0,1,,,0,,,59,64
96379,note_off,,,,,3,0,1,,,0,,,47,64
96383,control_change,,,,,4,0,1,,,0,64,127,,
96405,note_off,,,,,22,0,1,,,0,,,79,64
96420,note_on,,,,,15,0,1,,,0,,,78,35
96449,control_change,,,,,29,0,1,,,0,64,96,,
96455,control_change,,,,,6,0,1,,,0,64,64,,
96464,control_change,,,,,9,0,1,,,0,64,0,,
96465,note_off,,,,,1,0,1,,,0,,,78,64
96474,note_on,,,,,9,0,1,,,0,,,61,62
96478,note_on,,,,,4,0,1,,,0,,,49,58
96480,note_on,,,,,2,0,1,,,0,,,76,50
96498,control_change,,,,,18,0,1,,,0,64,64,,
96500,note_off,,,,,2,0,1,,,0,,,61,64
96505,control_change,,,,,5,0,1,,,0,64,96,,
96507,note_off,,,,,2,0,1,,,0,,,49,64
96525,note_off,,,,,18,0,1,,,0,,,76,64
96540,note_on,,,,,15,0,1,,,0,,,74,52
96561,control_change,,,,,21,0,1,,,0,64,64,,
96570,control_change,,,,,9,0,1,,,0,64,0,,
96585,note_off,,,,,15,0,1,,,0,,,74,64
96596,note_on,,,,,11,0,1,,,0,,,45,67
96599,note_on,,,,,3,0,1,,,0,,,57,59
96600,note_on,,,,,1,0,1,,,0,,,73,50
96609,control_change,,,,,9,0,1,,,0,64,64,,
96615,control_change,,,,,6,0,1,,,0,64,96,,
96617,note_off,,,,,2,0,1,,,0,,,45,64
96621,note_off,,,,,4,0,1,,,0,,,57,64
96645,note_off,,,,,24,0,1,,,0,,,73,64
96660,note_on,,,,,15,0,1,,,0,,,71,44
96705,note_off,,,,,45,0,1,,,0,,,71,64
96715,note_on,,,,,10,0,1,,,0,,,49,68
96715,note_on,,,,,0,0,1,,,0,,,61,62
96720,note_on,,,,,5,0,1,,,0,,,69,41
96739,note_off,,,,,19,0,1,,,0,,,61,64
96742,note_off,,,,,3,0,1,,,0,,,49,64
96765,note_off,,,,,23,0,1,,,0,,,69,64
96780,note_on,,,,,15,0,1,,,0,,,67,41
96819,control_change,,,,,39,0,1,,,0,64,64,,
96825,note_off,,,,,6,0,1,,,0,,,67,64
96826,control_change,,,,,1,0,1,,,0,64,0,,
96840,note_on,,,,,0,0,1,,,0,,,66,55
96840,note_on,,,,,14,0,1,,,0,,,62,56
96846,note_on,,,,,6,0,1,,,0,,,50,62
96874,control_change,,,,,28,0,1,,,0,64,64,,
96881,control_change,,,,,7,0,1,,,0,64,96,,
96885,note_off,,,,,4,0,1,,,0,,,66,64
96900,note_on,,,,,15,0,1,,,0,,,67,50
96945,note_off,,,,,45,0,1,,,0,,,67,64
96959,control_change,,,,,14,0,1,,,0,64,64,,
96960,note_on,,,,,1,0,1,,,0,,,69,56
97005,note_off,,,,,45,0,1,,,0,,,69,64
97020,note_on,,,,,15,0,1,,,0,,,66,55
97063,note_off,,,,,43,0,1,,,0,,,62,64
97065,note_off,,,,,2,0,1,,,0,,,66,64
97079,control_change,,,,,14,0,1,,,0,64,0,,
97080,note_on,,,,,1,0,1,,,0,,,54,55
97080,note_on,,,,,0,0,1,,,0,,,64,47
97096,note_off,,,,,16,0,1,,,0,,,50,64
97125,note_off,,,,,29,0,1,,,0,,,64,64
97140,note_on,,,,,15,0,1,,,0,,,62,44
97185,note_off,,,,,45,0,1,,,0,,,62,64
97200,note_on,,,,,15,0,1,,,0,,,64,49
97203,note_on,,,,,3,0,1,,,0,,,55,59
97215,note_off,,,,,12,0,1,,,0,,,54,64
97245,note_off,,,,,30,0,1,,,0,,,64,64
97260,note_on,,,,,15,0,1,,,0,,,67,50
97305,note_off,,,,,45,0,1,,,0,,,67,64
97309,note_off,,,,,4,0,1,,,0,,,55,64
97316,note_on,,,,,7,0,1,,,0,,,57,56
97320,note_on,,,,,4,0,1,,,0,,,66,44
97365,note_off,,,,,45,0,1,,,0,,,66,64
97380,note_on,,,,,15,0,1,,,0,,,64,47
97425,note_off,,,,,45,0,1,,,0,,,64,64
97437,note_on,,,,,12,0,1,,,0,,,45,52
97440,note_on,,,,,3,0,1,,,0,,,62,50
97442,note_off,,,,,2,0,1,,,0,,,57,64
97485,note_off,,,,,43,0,1,,,0,,,62,64
97500,note_on,,,,,15,0,1,,,0,,,61,44
97545,note_off,,,,,45,0,1,,,0,,,61,64
97557,note_on,,,,,12,0,1,,,0,,,50,52
97566,note_on,,,,,9,0,1,,,0,,,62,70
97569,note_off,,,,,3,0,1,,,0,,,45,64
97574,note_on,,,,,5,0,1,,,0,,,50,56
97594,control_change,,,,,20,0,1,,,0,64,64,,
97599,control_change,,,,,5,0,1,,,0,64,127,,
97608,note_off,,,,,9,0,1,,,0,,,62,64
97667,note_off,,,,,59,0,1,,,0,,,50,64
97684,note_on,,,,,17,0,1,,,0,,,62,52
97716,note_off,,,,,32,0,1,,,0,,,50,64
97796,note_on,,,,,0,0,1,,,0,,,50,52
97796,note_off,,,,,80,0,1,,,0,,,62,64
97800,note_on,,,,,0,0,1,,,0,,,78,63
97800,note_on,,,,,4,0,1,,,0,,,74,59
97808,note_off,,,,,8,0,1,,,0,,,50,64
97817,note_off,,,,,9,0,1,,,0,,,78,64
97819,note_off,,,,,2,0,1,,,0,,,74,64
97891,control_change,,,,,72,0,1,,,0,64,96,,
97896,control_change,,,,,5,0,1,,,0,64,64,,
97902,control_change,,,,,6,0,1,,,0,64,0,,
97916,note_on,,,,,14,0,1,,,0,,,76,80
97916,note_on,,,,,0,0,1,,,0,,,45,70
97921,note_on,,,,,5,0,1,,,0,,,69,70
97928,control_change,,,,,7,0,1,,,0,64,96,,
97933,control_change,,,,,5,0,1,,,0,64,127,,
97935,note_off,,,,,2,0,1,,,0,,,69,64
97941,note_off,,,,,6,0,1,,,0,,,76,64
98029,note_off,,,,,88,0,1,,,0,,,45,64
98029,note_on,,,,,0,0,1,,,0,,,76,67
98034,note_on,,,,,5,0,1,,,0,,,69,47
98039,note_on,,,,,5,0,1,,,0,,,57,39
98046,note_off,,,,,7,0,1,,,0,,,69,64
98079,note_off,,,,,33,0,1,,,0,,,76,64
98151,note_on,,,,,72,0,1,,,0,,,66,44
98155,note_on,,,,,0,0,1,,,0,,,74,59
98155,note_off,,,,,4,0,1,,,0,,,57,64
98156,note_on,,,,,1,0,1,,,0,,,50,41
98165,note_off,,,,,9,0,1,,,0,,,66,64
98194,note_off,,,,,29,0,1,,,0,,,74,64
98256,control_change,,,,,62,0,1,,,0,64,96,,
98261,control_change,,,,,5,0,1,,,0,64,64,,
98270,note_on,,,,,0,0,1,,,0,,,76,70
98270,note_off,,,,,9,0,1,,,0,,,50,64
98270,note_on,,,,,0,0,1,,,0,,,69,62
98278,note_on,,,,,8,0,1,,,0,,,45,56
98281,control_change,,,,,3,0,1,,,0,64,127,,
98285,note_off,,,,,4,0,1,,,0,,,69,64
98293,note_off,,,,,8,0,1,,,0,,,76,64
98391,note_on,,,,,98,0,1,,,0,,,57,41
98391,note_on,,,,,0,0,1,,,0,,,78,74
98396,note_on,,,,,5,0,1,,,0,,,74,62
98406,note_off,,,,,10,0,1,,,0,,,74,64
98420,note_off,,,,,14,0,1,,,0,,,78,64
98478,note_off,,,,,58,0,1,,,0,,,45,64
98502,note_on,,,,,24,0,1,,,0,,,76,67
98506,note_on,,,,,0,0,1,,,0,,,50,52
98506,note_on,,,,,0,0,1,,,0,,,79,67
98506,note_off,,,,,4,0,1,,,0,,,57,64
98514,note_off,,,,,8,0,1,,,0,,,50,64
98529,note_off,,,,,15,0,1,,,0,,,76,64
98589,control_change,,,,,60,0,1,,,0,64,96,,
98594,control_change,,,,,5,0,1,,,0,64,64,,
98600,control_change,,,,,6,0,1,,,0,64,0,,
98618,note_off,,,,,18,0,1,,,0,,,79,64
98622,note_on,,,,,4,0,1,,,0,,,78,80
98627,note_on,,,,,0,0,1,,,0,,,50,70
98627,note_on,,,,,5,0,1,,,0,,,74,67
98632,control_change,,,,,5,0,1,,,0,64,127,,
98641,note_off,,,,,9,0,1,,,0,,,74,64
98644,note_off,,,,,3,0,1,,,0,,,78,64
98745,note_on,,,,,101,0,1,,,0,,,78,68
98749,note_off,,,,,4,0,1,,,0,,,50,64
98750,note_on,,,,,1,0,1,,,0,,,74,50
98752,note_on,,,,,2,0,1,,,0,,,62,34
98770,note_off,,,,,18,0,1,,,0,,,74,64
98780,note_off,,,,,10,0,1,,,0,,,78,64
98866,note_on,,,,,86,0,1,,,0,,,76,75
98870,note_on,,,,,4,0,1,,,0,,,57,47
98870,note_on,,,,,0,0,1,,,0,,,69,67
98881,note_off,,,,,11,0,1,,,0,,,62,64
98884,note_off,,,,,3,0,1,,,0,,,69,64
98893,note_off,,,,,9,0,1,,,0,,,76,64
98974,control_change,,,,,81,0,1,,,0,64,96,,
98980,control_change,,,,,6,0,1,,,0,64,64,,
98987,note_off,,,,,7,0,1,,,0,,,57,64
98992,control_change,,,,,5,0,1,,,0,64,96,,
98993,note_on,,,,,1,0,1,,,0,,,74,56
98993,note_on,,,,,0,0,1,,,0,,,50,56
98993,note_on,,,,,0,0,1,,,0,,,66,55
99001,control_change,,,,,8,0,1,,,0,64,127,,
99007,note_off,,,,,6,0,1,,,0,,,66,64
99050,note_off,,,,,43,0,1,,,0,,,74,64
99106,note_on,,,,,56,0,1,,,0,,,76,70
99109,note_on,,,,,0,0,1,,,0,,,69,56
99109,note_off,,,,,3,0,1,,,0,,,50,64
99118,note_on,,,,,9,0,1,,,0,,,57,52
99121,note_off,,,,,3,0,1,,,0,,,69,64
99128,note_off,,,,,7,0,1,,,0,,,76,64
99223,note_on,,,,,95,0,1,,,0,,,78,68
99227,note_off,,,,,4,0,1,,,0,,,57,64
99227,note_on,,,,,0,0,1,,,0,,,74,50
99231,note_on,,,,,4,0,1,,,0,,,50,56
99236,note_off,,,,,5,0,1,,,0,,,50,64
99242,note_off,,,,,6,0,1,,,0,,,74,64
99247,note_off,,,,,5,0,1,,,0,,,78,64
99327,control_change,,,,,80,0,1,,,0,64,96,,
99333,control_change,,,,,6,0,1,,,0,64,0,,
99342,note_on,,,,,9,0,1,,,0,,,76,80
99345,note_on,,,,,3,0,1,,,0,,,69,70
99345,note_on,,,,,0,0,1,,,0,,,45,75
99359,control_change,,,,,14,0,1,,,0,64,96,,
99361,note_off,,,,,2,0,1,,,0,,,69,64
99366,control_change,,,,,5,0,1,,,0,64,127,,
99368,note_off,,,,,2,0,1,,,0,,,76,64
99467,note_on,,,,,0,0,1,,,0,,,69,47
99467,note_on,,,,,99,0,1,,,0,,,76,67
99471,note_off,,,,,4,0,1,,,0,,,45,64
99471,note_on,,,,,0,0,1,,,0,,,57,47
99481,note_off,,,,,10,0,1,,,0,,,69,64
99521,note_off,,,,,40,0,1,,,0,,,76,64
99580,note_on,,,,,59,0,1,,,0,,,66,50
99584,note_on,,,,,4,0,1,,,0,,,74,62
99588,note_on,,,,,4,0,1,,,0,,,50,52
99593,note_off,,,,,5,0,1,,,0,,,57,64
99603,note_off,,,,,10,0,1,,,0,,,66,64
99628,note_off,,,,,25,0,1,,,0,,,74,64
99703,control_change,,,,,75,0,1,,,0,64,96,,
99706,note_off,,,,,3,0,1,,,0,,,50,64
99706,note_on,,,,,0,0,1,,,0,,,76,70
99709,control_change,,,,,3,0,1,,,0,64,64,,
99711,note_on,,,,,0,0,1,,,0,,,69,56
99711,note_on,,,,,2,0,1,,,0,,,45,62
99722,control_change,,,,,11,0,1,,,0,64,96,,
99728,control_change,,,,,6,0,1,,,0,64,127,,
99733,note_off,,,,,5,0,1,,,0,,,69,64
99743,note_off,,,,,10,0,1,,,0,,,76,64
99822,note_on,,,,,79,0,1,,,0,,,74,52
99826,note_on,,,,,4,0,1,,,0,,,78,63
99826,note_on,,,,,0,0,1,,,0,,,57,36
99830,note_off,,,,,4,0,1,,,0,,,45,64
99854,note_off,,,,,24,0,1,,,0,,,74,64
99858,note_off,,,,,4,0,1,,,0,,,78,64
99942,note_off,,,,,84,0,1,,,0,,,57,64
99945,note_on,,,,,3,0,1,,,0,,,50,56
99945,note_on,,,,,0,0,1,,,0,,,79,59
99945,note_on,,,,,0,0,1,,,0,,,76,59
99955,note_off,,,,,10,0,1,,,0,,,50,64
100018,note_off,,,,,63,0,1,,,0,,,76,64
100040,control_change,,,,,22,0,1,,,0,64,96,,
100046,control_change,,,,,6,0,1,,,0,64,0,,
100066,note_off,,,,,20,0,1,,,0,,,79,64
100070,note_on,,,,,4,0,1,,,0,,,78,74
100073,note_on,,,,,3,0,1,,,0,,,74,56
100077,note_on,,,,,4,0,1,,,0,,,38,70
100082,control_change,,,,,5,0,1,,,0,64,127,,
100090,note_off,,,,,0,0,1,,,0,,,74,64
100090,note_off,,,,,8,0,1,,,0,,,78,64
100198,note_on,,,,,108,0,1,,,0,,,50,44
100198,note_on,,,,,0,0,1,,,0,,,74,59
100203,note_off,,,,,5,0,1,,,0,,,38,64
100203,note_on,,,,,0,0,1,,,0,,,78,68
100222,note_off,,,,,19,0,1,,,0,,,74,64
100225,note_off,,,,,3,0,1,,,0,,,78,64
100315,note_on,,,,,90,0,1,,,0,,,76,70
100319,note_on,,,,,4,0,1,,,0,,,69,50
100323,note_on,,,,,4,0,1,,,0,,,45,41
100328,note_off,,,,,5,0,1,,,0,,,50,64
100334,note_off,,,,,6,0,1,,,0,,,69,64
100368,note_off,,,,,34,0,1,,,0,,,76,64
100383,note_off,,,,,15,0,1,,,0,,,45,64
100417,control_change,,,,,34,0,1,,,0,64,96,,
100425,control_change,,,,,8,0,1,,,0,64,64,,
100431,control_change,,,,,6,0,1,,,0,64,0,,
100440,note_on,,,,,9,0,1,,,0,,,74,70
100443,note_on,,,,,3,0,1,,,0,,,38,59
100475,control_change,,,,,32,0,1,,,0,64,64,,
100484,control_change,,,,,9,0,1,,,0,64,96,,
100500,control_change,,,,,16,0,1,,,0,64,127,,
100502,note_on,,,,,2,0,1,,,0,,,69,56
100507,note_off,,,,,5,0,1,,,0,,,74,64
100559,note_on,,,,,52,0,1,,,0,,,66,47
100583,note_off,,,,,24,0,1,,,0,,,69,64
100619,note_on,,,,,36,0,1,,,0,,,62,39
100623,note_off,,,,,4,0,1,,,0,,,66,64
100680,note_on,,,,,57,0,1,,,0,,,81,67
100688,note_on,,,,,8,0,1,,,0,,,66,47
100738,note_off,,,,,50,0,1,,,0,,,62,64
100741,note_on,,,,,3,0,1,,,0,,,74,56
100746,note_off,,,,,5,0,1,,,0,,,66,64
100760,note_off,,,,,14,0,1,,,0,,,74,64
100770,note_off,,,,,10,0,1,,,0,,,81,64
100798,note_on,,,,,0,0,1,,,0,,,76,67
100798,note_on,,,,,28,0,1,,,0,,,45,67
100802,note_off,,,,,4,0,1,,,0,,,38,64
100805,control_change,,,,,3,0,1,,,0,64,64,,
100810,control_change,,,,,5,0,1,,,0,64,0,,
100850,control_change,,,,,40,0,1,,,0,64,64,,
100855,control_change,,,,,5,0,1,,,0,64,96,,
100859,note_on,,,,,4,0,1,,,0,,,73,58
100863,control_change,,,,,4,0,1,,,0,64,127,,
100868,note_off,,,,,5,0,1,,,0,,,76,64
100924,note_on,,,,,56,0,1,,,0,,,67,56
100930,note_off,,,,,6,0,1,,,0,,,73,64
100980,note_on,,,,,50,0,1,,,0,,,64,52
100985,note_off,,,,,5,0,1,,,0,,,67,64
101039,note_on,,,,,54,0,1,,,0,,,67,62
101040,note_on,,,,,1,0,1,,,0,,,81,70
101051,note_off,,,,,11,0,1,,,0,,,64,64
101093,note_on,,,,,42,0,1,,,0,,,73,63
101103,note_off,,,,,10,0,1,,,0,,,67,64
101127,note_off,,,,,24,0,1,,,0,,,73,64
101130,note_off,,,,,3,0,1,,,0,,,81,64
101153,control_change,,,,,23,0,1,,,0,64,96,,
101156,note_on,,,,,3,0,1,,,0,,,74,67
101160,control_change,,,,,4,0,1,,,0,64,0,,
101162,note_on,,,,,0,0,1,,,0,,,38,67
101162,note_off,,,,,2,0,1,,,0,,,45,64
101200,control_change,,,,,38,0,1,,,0,64,64,,
101205,control_change,,,,,5,0,1,,,0,64,96,,
101210,control_change,,,,,5,0,1,,,0,64,127,,
101216,note_on,,,,,6,0,1,,,0,,,69,59
101229,note_off,,,,,13,0,1,,,0,,,74,64
101279,note_on,,,,,50,0,1,,,0,,,66,58
101308,note_off,,,,,29,0,1,,,0,,,69,64
101339,note_on,,,,,31,0,1,,,0,,,62,34
101344,note_off,,,,,5,0,1,,,0,,,66,64
101399,note_on,,,,,55,0,1,,,0,,,66,58
101400,note_on,,,,,1,0,1,,,0,,,81,70
101417,note_off,,,,,17,0,1,,,0,,,62,64
101459,note_on,,,,,42,0,1,,,0,,,74,56
101469,note_off,,,,,10,0,1,,,0,,,66,64
101483,note_off,,,,,14,0,1,,,0,,,74,64
101490,note_off,,,,,7,0,1,,,0,,,81,64
101505,control_change,,,,,15,0,1,,,0,64,64,,
101510,control_change,,,,,5,0,1,,,0,64,0,,
101515,note_on,,,,,5,0,1,,,0,,,45,59
101519,note_on,,,,,4,0,1,,,0,,,76,67
101523,note_off,,,,,4,0,1,,,0,,,38,64
101553,control_change,,,,,30,0,1,,,0,64,64,,
101559,control_change,,,,,6,0,1,,,0,64,127,,
101586,note_on,,,,,27,0,1,,,0,,,73,63
101602,note_off,,,,,16,0,1,,,0,,,76,64
101645,note_on,,,,,43,0,1,,,0,,,67,56
101653,note_off,,,,,8,0,1,,,0,,,73,64
101701,note_on,,,,,48,0,1,,,0,,,64,52
101707,note_off,,,,,6,0,1,,,0,,,67,64
101760,note_on,,,,,53,0,1,,,0,,,81,75
101764,note_on,,,,,4,0,1,,,0,,,67,62
101784,note_off,,,,,20,0,1,,,0,,,64,64
101819,note_on,,,,,35,0,1,,,0,,,73,68
101829,note_off,,,,,10,0,1,,,0,,,67,64
101846,note_off,,,,,17,0,1,,,0,,,73,64
101850,note_off,,,,,4,0,1,,,0,,,81,64
101872,control_change,,,,,22,0,1,,,0,64,96,,
101878,control_change,,,,,6,0,1,,,0,64,0,,
101879,note_on,,,,,1,0,1,,,0,,,74,67
101884,note_off,,,,,5,0,1,,,0,,,45,64
101884,note_on,,,,,0,0,1,,,0,,,38,59
101916,control_change,,,,,32,0,1,,,0,64,64,,
101922,control_change,,,,,6,0,1,,,0,64,127,,
101942,note_on,,,,,20,0,1,,,0,,,69,59
101953,note_off,,,,,11,0,1,,,0,,,74,64
102003,note_on,,,,,50,0,1,,,0,,,66,58
102026,note_off,,,,,23,0,1,,,0,,,69,64
102063,note_on,,,,,0,0,1,,,0,,,62,52
102063,note_off,,,,,37,0,1,,,0,,,66,64
102118,note_on,,,,,55,0,1,,,0,,,66,63
102120,note_on,,,,,2,0,1,,,0,,,81,70
102145,note_off,,,,,25,0,1,,,0,,,62,64
102174,note_on,,,,,29,0,1,,,0,,,74,52
102186,note_off,,,,,12,0,1,,,0,,,66,64
102198,note_off,,,,,12,0,1,,,0,,,74,64
102210,note_off,,,,,12,0,1,,,0,,,81,64
102227,control_change,,,,,17,0,1,,,0,64,96,,
102233,control_change,,,,,6,0,1,,,0,64,0,,
102234,note_on,,,,,1,0,1,,,0,,,45,56
102237,note_on,,,,,3,0,1,,,0,,,76,62
102243,note_off,,,,,6,0,1,,,0,,,38,64
102271,control_change,,,,,28,0,1,,,0,64,64,,
102276,control_change,,,,,5,0,1,,,0,64,96,,
102282,control_change,,,,,6,0,1,,,0,64,127,,
102297,note_on,,,,,15,0,1,,,0,,,73,63
102309,note_off,,,,,12,0,1,,,0,,,76,64
102360,note_on,,,,,51,0,1,,,0,,,67,62
102368,note_off,,,,,8,0,1,,,0,,,73,64
102415,note_on,,,,,47,0,1,,,0,,,64,52
102419,note_off,,,,,4,0,1,,,0,,,67,64
102473,note_on,,,,,54,0,1,,,0,,,67,59
102480,note_on,,,,,7,0,1,,,0,,,81,75
102490,note_off,,,,,10,0,1,,,0,,,64,64
102536,note_on,,,,,46,0,1,,,0,,,73,63
102543,note_off,,,,,7,0,1,,,0,,,67,64
102570,note_off,,,,,27,0,1,,,0,,,81,64
102591,control_change,,,,,21,0,1,,,0,64,64,,
102593,note_off,,,,,2,0,1,,,0,,,73,64
102597,control_change,,,,,4,0,1,,,0,64,0,,
102599,note_on,,,,,2,0,1,,,0,,,74,67
102599,note_on,,,,,0,0,1,,,0,,,38,50
102604,note_off,,,,,5,0,1,,,0,,,45,64
102618,note_off,,,,,14,0,1,,,0,,,74,64
102629,control_change,,,,,11,0,1,,,0,64,64,,
102634,control_change,,,,,5,0,1,,,0,64,96,,
102640,control_change,,,,,6,0,1,,,0,64,127,,
102661,note_on,,,,,21,0,1,,,0,,,74,56
102713,note_on,,,,,52,0,1,,,0,,,73,58
102719,note_off,,,,,6,0,1,,,0,,,74,64
102770,note_on,,,,,51,0,1,,,0,,,71,52
102792,note_off,,,,,22,0,1,,,0,,,73,64
102834,note_on,,,,,42,0,1,,,0,,,69,56
102844,note_off,,,,,10,0,1,,,0,,,71,64
102863,note_off,,,,,19,0,1,,,0,,,38,64
102892,note_on,,,,,29,0,1,,,0,,,71,52
102898,note_off,,,,,6,0,1,,,0,,,69,64
102917,control_change,,,,,19,0,1,,,0,64,96,,
102922,control_change,,,,,5,0,1,,,0,64,64,,
102928,control_change,,,,,6,0,1,,,0,64,0,,
102951,note_on,,,,,23,0,1,,,0,,,69,62
102954,note_off,,,,,3,0,1,,,0,,,71,64
102964,control_change,,,,,10,0,1,,,0,64,64,,
102969,control_change,,,,,5,0,1,,,0,64,96,,
102974,control_change,,,,,5,0,1,,,0,64,127,,
103001,note_off,,,,,27,0,1,,,0,,,69,64
103012,note_on,,,,,11,0,1,,,0,,,67,56
103074,note_on,,,,,62,0,1,,,0,,,66,58
103084,note_off,,,,,10,0,1,,,0,,,67,64
103140,note_on,,,,,56,0,1,,,0,,,64,34
103152,note_off,,,,,12,0,1,,,0,,,66,64
103195,note_on,,,,,43,0,1,,,0,,,62,50
103201,note_off,,,,,6,0,1,,,0,,,64,64
103235,note_off,,,,,34,0,1,,,0,,,62,64
103253,note_on,,,,,18,0,1,,,0,,,61,33
103261,note_off,,,,,8,0,1,,,0,,,61,64
103312,control_change,,,,,51,0,1,,,0,64,96,,
103318,control_change,,,,,6,0,1,,,0,64,0,,
103320,note_on,,,,,2,0,1,,,0,,,74,44
103323,note_on,,,,,3,0,1,,,0,,,38,37
103355,control_change,,,,,32,0,1,,,0,64,64,,
103364,control_change,,,,,9,0,1,,,0,64,96,,
103380,control_change,,,,,16,0,1,,,0,64,127,,
103382,note_on,,,,,2,0,1,,,0,,,69,35
103387,note_off,,,,,5,0,1,,,0,,,74,64
103439,note_on,,,,,52,0,1,,,0,,,66,29
103463,note_off,,,,,24,0,1,,,0,,,69,64
103499,note_on,,,,,36,0,1,,,0,,,62,24
103503,note_off,,,,,4,0,1,,,0,,,66,64
103560,note_on,,,,,57,0,1,,,0,,,81,56
103568,note_on,,,,,8,0,1,,,0,,,66,29
103618,note_off,,,,,50,0,1,,,0,,,62,64
103621,note_on,,,,,3,0,1,,,0,,,74,35
103626,note_off,,,,,5,0,1,,,0,,,66,64
103640,note_off,,,,,14,0,1,,,0,,,74,64
103650,note_off,,,,,10,0,1,,,0,,,81,64
103678,note_on,,,,,0,0,1,,,0,,,76,42
103678,note_on,,,,,28,0,1,,,0,,,45,42
103682,note_off,,,,,4,0,1,,,0,,,38,64
103685,control_change,,,,,3,0,1,,,0,64,64,,
103690,control_change,,,,,5,0,1,,,0,64,0,,
103730,control_change,,,,,40,0,1,,,0,64,64,,
103735,control_change,,,,,5,0,1,,,0,64,96,,
103739,note_on,,,,,4,0,1,,,0,,,73,36
103743,control_change,,,,,4,0,1,,,0,64,127,,
103748,note_off,,,,,5,0,1,,,0,,,76,64
103804,note_on,,,,,56,0,1,,,0,,,67,35
103810,note_off,,,,,6,0,1,,,0,,,73,64
103860,note_on,,,,,50,0,1,,,0,,,64,32
103865,note_off,,,,,5,0,1,,,0,,,67,64
103919,note_on,,,,,54,0,1,,,0,,,67,39
103920,note_on,,,,,1,0,1,,,0,,,81,56
103931,note_off,,,,,11,0,1,,,0,,,64,64
103973,note_on,,,,,42,0,1,,,0,,,73,40
103983,note_off,,,,,10,0,1,,,0,,,67,64
104007,note_off,,,,,24,0,1,,,0,,,73,64
104010,note_off,,,,,3,0,1,,,0,,,81,64
104033,control_change,,,,,23,0,1,,,0,64,96,,
104036,note_on,,,,,3,0,1,,,0,,,74,42
104040,control_change,,,,,4,0,1,,,0,64,0,,
104042,note_off,,,,,2,0,1,,,0,,,45,64
104042,note_on,,,,,0,0,1,,,0,,,38,42
104080,control_change,,,,,38,0,1,,,0,64,64,,
104085,control_change,,,,,5,0,1,,,0,64,96,,
104090,control_change,,,,,5,0,1,,,0,64,127,,
104096,note_on,,,,,6,0,1,,,0,,,69,37
104109,note_off,,,,,13,0,1,,,0,,,74,64
104159,note_on,,,,,50,0,1,,,0,,,66,36
104188,note_off,,,,,29,0,1,,,0,,,69,64
104219,note_on,,,,,31,0,1,,,0,,,62,21
104224,note_off,,,,,5,0,1,,,0,,,66,64
104279,note_on,,,,,55,0,1,,,0,,,66,36
104280,note_on,,,,,1,0,1,,,0,,,81,52
104297,note_off,,,,,17,0,1,,,0,,,62,64
104339,note_on,,,,,42,0,1,,,0,,,74,35
104349,note_off,,,,,10,0,1,,,0,,,66,64
104363,note_off,,,,,14,0,1,,,0,,,74,64
104370,note_off,,,,,7,0,1,,,0,,,81,64
104385,control_change,,,,,15,0,1,,,0,64,64,,
104390,control_change,,,,,5,0,1,,,0,64,0,,
104395,note_on,,,,,5,0,1,,,0,,,45,37
104399,note_on,,,,,4,0,1,,,0,,,76,42
104403,note_off,,,,,4,0,1,,,0,,,38,64
104433,control_change,,,,,30,0,1,,,0,64,64,,
104439,control_change,,,,,6,0,1,,,0,64,127,,
104466,note_on,,,,,27,0,1,,,0,,,73,40
104482,note_off,,,,,16,0,1,,,0,,,76,64
104525,note_on,,,,,43,0,1,,,0,,,67,35
104533,note_off,,,,,8,0,1,,,0,,,73,64
104581,note_on,,,,,48,0,1,,,0,,,64,32
104587,note_off,,,,,6,0,1,,,0,,,67,64
104640,note_on,,,,,53,0,1,,,0,,,81,50
104644,note_on,,,,,4,0,1,,,0,,,67,39
104664,note_off,,,,,20,0,1,,,0,,,64,64
104699,note_on,,,,,35,0,1,,,0,,,73,43
104709,note_off,,,,,10,0,1,,,0,,,67,64
104726,note_off,,,,,17,0,1,,,0,,,73,64
104730,note_off,,,,,4,0,1,,,0,,,81,64
104752,control_change,,,,,22,0,1,,,0,64,96,,
104758,control_change,,,,,6,0,1,,,0,64,0,,
104759,note_on,,,,,1,0,1,,,0,,,74,42
104764,note_off,,,,,5,0,1,,,0,,,45,64
104764,note_on,,,,,0,0,1,,,0,,,38,37
104796,control_change,,,,,32,0,1,,,0,64,64,,
104802,control_change,,,,,6,0,1,,,0,64,127,,
104822,note_on,,,,,20,0,1,,,0,,,69,37
104833,note_off,,,,,11,0,1,,,0,,,74,64
104883,note_on,,,,,50,0,1,,,0,,,66,36
104906,note_off,,,,,23,0,1,,,0,,,69,64
104943,note_off,,,,,37,0,1,,,0,,,66,64
104943,note_on,,,,,0,0,1,,,0,,,62,32
104998,note_on,,,,,55,0,1,,,0,,,66,40
105000,note_on,,,,,2,0,1,,,0,,,81,52
105025,note_off,,,,,25,0,1,,,0,,,62,64
105054,note_on,,,,,29,0,1,,,0,,,74,32
105066,note_off,,,,,12,0,1,,,0,,,66,64
105078,note_off,,,,,12,0,1,,,0,,,74,64
105090,note_off,,,,,12,0,1,,,0,,,81,64
105107,control_change,,,,,17,0,1,,,0,64,96,,
105113,control_change,,,,,6,0,1,,,0,64,0,,
105114,note_on,,,,,1,0,1,,,0,,,45,35
105117,note_on,,,,,3,0,1,,,0,,,76,39
105123,note_off,,,,,6,0,1,,,0,,,38,64
105151,control_change,,,,,28,0,1,,,0,64,64,,
105156,control_change,,,,,5,0,1,,,0,64,96,,
105162,control_change,,,,,6,0,1,,,0,64,127,,
105177,note_on,,,,,15,0,1,,,0,,,73,40
105189,note_off,,,,,12,0,1,,,0,,,76,64
105240,note_on,,,,,51,0,1,,,0,,,67,39
105248,note_off,,,,,8,0,1,,,0,,,73,64
105295,note_on,,,,,47,0,1,,,0,,,64,32
105299,note_off,,,,,4,0,1,,,0,,,67,64
105353,note_on,,,,,54,0,1,,,0,,,67,37
105360,note_on,,,,,7,0,1,,,0,,,81,44
105370,note_off,,,,,10,0,1,,,0,,,64,64
105416,note_on,,,,,46,0,1,,,0,,,73,40
105423,note_off,,,,,7,0,1,,,0,,,67,64
105450,note_off,,,,,27,0,1,,,0,,,81,64
105471,control_change,,,,,21,0,1,,,0,64,64,,
105473,note_off,,,,,2,0,1,,,0,,,73,64
105477,control_change,,,,,4,0,1,,,0,64,0,,
105479,note_on,,,,,2,0,1,,,0,,,74,42
105479,note_on,,,,,0,0,1,,,0,,,38,32
105484,note_off,,,,,5,0,1,,,0,,,45,64
105498,note_off,,,,,14,0,1,,,0,,,74,64
105509,control_change,,,,,11,0,1,,,0,64,64,,
105514,control_change,,,,,5,0,1,,,0,64,96,,
105520,control_change,,,,,6,0,1,,,0,64,127,,
105541,note_on,,,,,21,0,1,,,0,,,74,35
105593,note_on,,,,,52,0,1,,,0,,,73,36
105599,note_off,,,,,6,0,1,,,0,,,74,64
105650,note_on,,,,,51,0,1,,,0,,,71,32
105672,note_off,,,,,22,0,1,,,0,,,73,64
105714,note_on,,,,,42,0,1,,,0,,,69,35
105724,note_off,,,,,10,0,1,,,0,,,71,64
105743,note_off,,,,,19,0,1,,,0,,,38,64
105772,note_on,,,,,29,0,1,,,0,,,71,32
105778,note_off,,,,,6,0,1,,,0,,,69,64
105797,control_change,,,,,19,0,1,,,0,64,96,,
105802,control_change,,,,,5,0,1,,,0,64,64,,
105808,control_change,,,,,6,0,1,,,0,64,0,,
105831,note_on,,,,,23,0,1,,,0,,,69,39
105834,note_off,,,,,3,0,1,,,0,,,71,64
105844,control_change,,,,,10,0,1,,,0,64,64,,
105849,control_change,,,,,5,0,1,,,0,64,96,,
105854,control_change,,,,,5,0,1,,,0,64,127,,
105881,note_off,,,,,27,0,1,,,0,,,69,64
105892,note_on,,,,,11,0,1,,,0,,,67,56
105954,note_on,,,,,62,0,1,,,0,,,66,58
105964,note_off,,,,,10,0,1,,,0,,,67,64
106020,note_on,,,,,56,0,1,,,0,,,64,34
106032,note_off,,,,,12,0,1,,,0,,,66,64
106075,note_on,,,,,43,0,1,,,0,,,62,50
106081,note_off,,,,,6,0,1,,,0,,,64,64
106115,note_off,,,,,34,0,1,,,0,,,62,64
106133,note_on,,,,,18,0,1,,,0,,,61,33
106141,note_off,,,,,8,0,1,,,0,,,61,64
106192,control_change,,,,,51,0,1,,,0,64,96,,
106198,note_on,,,,,6,0,1,,,0,,,62,56
106198,control_change,,,,,0,0,1,,,0,64,0,,
106206,note_off,,,,,8,0,1,,,0,,,62,64
106206,note_on,,,,,0,0,1,,,0,,,50,56
106315,note_on,,,,,109,0,1,,,0,,,77,59
106319,note_on,,,,,0,0,1,,,0,,,62,44
106319,note_on,,,,,0,0,1,,,0,,,65,52
106319,note_off,,,,,4,0,1,,,0,,,50,64
106440,note_on,,,,,121,0,1,,,0,,,60,39
106443,note_off,,,,,3,0,1,,,0,,,62,64
106558,note_off,,,,,115,0,1,,,0,,,60,64
106562,note_on,,,,,4,0,1,,,0,,,58,40
106584,note_off,,,,,22,0,1,,,0,,,65,64
106590,note_off,,,,,6,0,1,,,0,,,77,64
106674,note_on,,,,,84,0,1,,,0,,,77,67
106677,note_on,,,,,0,0,1,,,0,,,65,59
106677,note_off,,,,,3,0,1,,,0,,,58,64
106683,note_on,,,,,6,0,1,,,0,,,62,44
106792,control_change,,,,,109,0,1,,,0,64,64,,
106800,note_on,,,,,8,0,1,,,0,,,57,44
106808,note_off,,,,,8,0,1,,,0,,,62,64
106813,control_change,,,,,5,0,1,,,0,64,96,,
106894,control_change,,,,,81,0,1,,,0,64,64,,
106899,control_change,,,,,5,0,1,,,0,64,0,,
106918,note_off,,,,,19,0,1,,,0,,,65,64
106922,note_on,,,,,4,0,1,,,0,,,55,52
106925,note_off,,,,,3,0,1,,,0,,,77,64
106927,note_off,,,,,2,0,1,,,0,,,57,64
106964,control_change,,,,,37,0,1,,,0,64,64,,
106972,control_change,,,,,8,0,1,,,0,64,96,,
106988,control_change,,,,,16,0,1,,,0,64,127,,
107039,note_on,,,,,51,0,1,,,0,,,79,62
107043,note_on,,,,,4,0,1,,,0,,,67,47
107057,note_off,,,,,14,0,1,,,0,,,67,64
107057,note_off,,,,,0,0,1,,,0,,,79,64
107153,note_on,,,,,96,0,1,,,0,,,76,62
107156,note_off,,,,,3,0,1,,,0,,,55,64
107156,note_on,,,,,0,0,1,,,0,,,64,42
107156,note_on,,,,,0,0,1,,,0,,,43,50
107163,note_off,,,,,7,0,1,,,0,,,43,64
107172,note_off,,,,,0,0,1,,,0,,,76,64
107172,note_off,,,,,9,0,1,,,0,,,64,64
107257,control_change,,,,,85,0,1,,,0,64,96,,
107261,control_change,,,,,4,0,1,,,0,64,64,,
107267,control_change,,,,,6,0,1,,,0,64,0,,
107272,note_on,,,,,5,0,1,,,0,,,74,59
107275,note_on,,,,,3,0,1,,,0,,,62,47
107279,note_on,,,,,4,0,1,,,0,,,45,62
107314,control_change,,,,,35,0,1,,,0,64,64,,
107319,control_change,,,,,5,0,1,,,0,64,96,,
107324,control_change,,,,,5,0,1,,,0,64,127,,
107332,note_off,,,,,8,0,1,,,0,,,62,64
107344,note_off,,,,,12,0,1,,,0,,,74,64
107397,note_on,,,,,53,0,1,,,0,,,74,52
107397,note_on,,,,,0,0,1,,,0,,,62,34
107421,note_off,,,,,24,0,1,,,0,,,62,64
107424,note_off,,,,,3,0,1,,,0,,,74,64
107516,note_on,,,,,0,0,1,,,0,,,73,63
107516,note_off,,,,,92,0,1,,,0,,,45,64
107520,note_on,,,,,4,0,1,,,0,,,61,39
107527,note_on,,,,,7,0,1,,,0,,,57,50
107532,note_off,,,,,5,0,1,,,0,,,61,64
107536,note_off,,,,,0,0,1,,,0,,,73,64
107536,note_off,,,,,4,0,1,,,0,,,57,64
107607,control_change,,,,,71,0,1,,,0,64,96,,
107612,control_change,,,,,5,0,1,,,0,64,0,,
107633,note_on,,,,,21,0,1,,,0,,,74,62
107637,note_on,,,,,4,0,1,,,0,,,62,44
107641,note_on,,,,,4,0,1,,,0,,,50,35
107648,note_off,,,,,7,0,1,,,0,,,62,64
107654,control_change,,,,,6,0,1,,,0,64,64,,
107658,note_off,,,,,4,0,1,,,0,,,74,64
107660,control_change,,,,,2,0,1,,,0,64,96,,
107666,control_change,,,,,6,0,1,,,0,64,127,,
107749,control_change,,,,,83,0,1,,,0,64,96,,
107750,note_off,,,,,1,0,1,,,0,,,50,64
107750,note_on,,,,,0,0,1,,,0,,,78,47
107754,note_on,,,,,4,0,1,,,0,,,66,35
107754,note_on,,,,,0,0,1,,,0,,,62,32
107761,control_change,,,,,7,0,1,,,0,64,0,,
107781,control_change,,,,,20,0,1,,,0,64,64,,
107786,control_change,,,,,5,0,1,,,0,64,96,,
107791,control_change,,,,,5,0,1,,,0,64,127,,
107870,control_change,,,,,79,0,1,,,0,64,96,,
107875,control_change,,,,,5,0,1,,,0,64,64,,
107877,note_on,,,,,2,0,1,,,0,,,61,24
107881,note_off,,,,,4,0,1,,,0,,,62,64
107899,control_change,,,,,18,0,1,,,0,64,96,,
107908,control_change,,,,,9,0,1,,,0,64,127,,
107983,control_change,,,,,75,0,1,,,0,64,96,,
107988,control_change,,,,,5,0,1,,,0,64,64,,
107992,note_off,,,,,4,0,1,,,0,,,61,64
107994,control_change,,,,,2,0,1,,,0,64,0,,
107996,note_on,,,,,2,0,1,,,0,,,59,32
108011,control_change,,,,,15,0,1,,,0,64,64,,
108016,control_change,,,,,5,0,1,,,0,64,96,,
108021,control_change,,,,,5,0,1,,,0,64,127,,
108025,note_off,,,,,4,0,1,,,0,,,66,64
108029,note_off,,,,,4,0,1,,,0,,,78,64
108106,note_on,,,,,77,0,1,,,0,,,78,43
108110,control_change,,,,,4,0,1,,,0,64,96,,
108111,note_on,,,,,0,0,1,,,0,,,66,32
108111,note_off,,,,,1,0,1,,,0,,,59,64
108118,control_change,,,,,7,0,1,,,0,64,64,,
108119,note_on,,,,,1,0,1,,,0,,,62,28
108125,control_change,,,,,6,0,1,,,0,64,0,,
108132,control_change,,,,,7,0,1,,,0,64,64,,
108137,control_change,,,,,5,0,1,,,0,64,96,,
108142,control_change,,,,,5,0,1,,,0,64,127,,
108236,note_on,,,,,94,0,1,,,0,,,57,28
108241,note_off,,,,,5,0,1,,,0,,,62,64
108324,control_change,,,,,83,0,1,,,0,64,96,,
108329,control_change,,,,,5,0,1,,,0,64,64,,
108335,control_change,,,,,6,0,1,,,0,64,0,,
108354,note_on,,,,,19,0,1,,,0,,,55,32
108357,note_off,,,,,3,0,1,,,0,,,57,64
108359,note_off,,,,,2,0,1,,,0,,,66,64
108363,note_off,,,,,4,0,1,,,0,,,78,64
108368,control_change,,,,,5,0,1,,,0,64,64,,
108373,control_change,,,,,5,0,1,,,0,64,127,,
108475,note_on,,,,,102,0,1,,,0,,,79,37
108478,note_on,,,,,3,0,1,,,0,,,67,28
108492,note_off,,,,,14,0,1,,,0,,,79,64
108495,note_off,,,,,3,0,1,,,0,,,67,64
108597,note_on,,,,,102,0,1,,,0,,,43,29
108597,note_on,,,,,0,0,1,,,0,,,76,39
108602,note_on,,,,,5,0,1,,,0,,,64,26
108606,note_off,,,,,4,0,1,,,0,,,43,64
108606,note_off,,,,,0,0,1,,,0,,,55,64
108616,note_off,,,,,10,0,1,,,0,,,76,64
108618,note_off,,,,,2,0,1,,,0,,,64,64
108697,control_change,,,,,79,0,1,,,0,64,96,,
108703,control_change,,,,,6,0,1,,,0,64,0,,
108715,note_on,,,,,12,0,1,,,0,,,74,42
108719,note_on,,,,,4,0,1,,,0,,,62,32
108719,note_on,,,,,0,0,1,,,0,,,45,35
108737,control_change,,,,,18,0,1,,,0,64,64,,
108742,control_change,,,,,5,0,1,,,0,64,96,,
108746,note_off,,,,,4,0,1,,,0,,,62,64
108749,control_change,,,,,3,0,1,,,0,64,127,,
108754,note_off,,,,,5,0,1,,,0,,,74,64
108833,note_on,,,,,79,0,1,,,0,,,74,39
108837,note_on,,,,,4,0,1,,,0,,,62,28
108855,note_off,,,,,18,0,1,,,0,,,62,64
108863,note_off,,,,,8,0,1,,,0,,,74,64
108952,note_on,,,,,0,0,1,,,0,,,73,36
108952,note_on,,,,,89,0,1,,,0,,,61,32
108957,note_off,,,,,5,0,1,,,0,,,45,64
108964,note_on,,,,,7,0,1,,,0,,,57,22
108968,note_off,,,,,4,0,1,,,0,,,61,64
108971,note_off,,,,,3,0,1,,,0,,,73,64
108975,note_off,,,,,4,0,1,,,0,,,57,64
109037,control_change,,,,,62,0,1,,,0,64,96,,
109042,control_change,,,,,5,0,1,,,0,64,0,,
109069,note_on,,,,,27,0,1,,,0,,,74,39
109069,note_on,,,,,0,0,1,,,0,,,62,24
109077,note_on,,,,,8,0,1,,,0,,,50,32
109081,control_change,,,,,4,0,1,,,0,64,64,,
109082,note_off,,,,,1,0,1,,,0,,,62,64
109087,control_change,,,,,5,0,1,,,0,64,127,,
109088,note_off,,,,,1,0,1,,,0,,,74,64
109189,note_on,,,,,0,0,1,,,0,,,74,56
109189,note_on,,,,,101,0,1,,,0,,,86,67
109200,note_off,,,,,0,0,1,,,0,,,86,64
109200,note_off,,,,,11,0,1,,,0,,,74,64
109297,control_change,,,,,97,0,1,,,0,64,96,,
109302,control_change,,,,,5,0,1,,,0,64,64,,
109303,note_on,,,,,1,0,1,,,0,,,83,70
109303,note_on,,,,,0,0,1,,,0,,,71,56
109309,note_on,,,,,0,0,1,,,0,,,62,56
109309,note_off,,,,,6,0,1,,,0,,,50,64
109314,control_change,,,,,5,0,1,,,0,64,0,,
109330,control_change,,,,,16,0,1,,,0,64,64,,
109335,control_change,,,,,5,0,1,,,0,64,96,,
109340,control_change,,,,,5,0,1,,,0,64,127,,
109422,note_on,,,,,82,0,1,,,0,,,61,62
109426,note_off,,,,,0,0,1,,,0,,,83,64
109426,note_off,,,,,4,0,1,,,0,,,62,64
109428,control_change,,,,,2,0,1,,,0,64,64,,
109430,note_off,,,,,2,0,1,,,0,,,71,64
109435,control_change,,,,,5,0,1,,,0,64,0,,
109453,control_change,,,,,18,0,1,,,0,64,64,,
109458,control_change,,,,,5,0,1,,,0,64,96,,
109463,control_change,,,,,5,0,1,,,0,64,127,,
109543,note_on,,,,,80,0,1,,,0,,,81,62
109547,note_on,,,,,4,0,1,,,0,,,69,47
109562,note_off,,,,,15,0,1,,,0,,,69,64
109565,note_off,,,,,3,0,1,,,0,,,81,64
109665,note_on,,,,,100,0,1,,,0,,,79,59
109669,note_on,,,,,4,0,1,,,0,,,67,47
109672,note_on,,,,,3,0,1,,,0,,,59,45
109681,note_off,,,,,9,0,1,,,0,,,61,64
109683,note_off,,,,,2,0,1,,,0,,,67,64
109687,note_off,,,,,0,0,1,,,0,,,79,64
109687,note_off,,,,,4,0,1,,,0,,,59,64
109756,control_change,,,,,69,0,1,,,0,64,96,,
109762,control_change,,,,,6,0,1,,,0,64,0,,
109778,note_on,,,,,16,0,1,,,0,,,66,47
109782,note_on,,,,,4,0,1,,,0,,,78,58
109788,note_off,,,,,6,0,1,,,0,,,66,64
109792,note_on,,,,,4,0,1,,,0,,,50,41
109798,control_change,,,,,6,0,1,,,0,64,64,,
109799,note_off,,,,,1,0,1,,,0,,,78,64
109804,control_change,,,,,5,0,1,,,0,64,127,,
109900,note_on,,,,,96,0,1,,,0,,,86,39
109903,note_on,,,,,3,0,1,,,0,,,74,28
109915,note_off,,,,,0,0,1,,,0,,,86,64
109915,note_off,,,,,12,0,1,,,0,,,74,64
110013,control_change,,,,,98,0,1,,,0,64,96,,
110017,control_change,,,,,4,0,1,,,0,64,64,,
110019,note_on,,,,,2,0,1,,,0,,,82,47
110023,note_on,,,,,0,0,1,,,0,,,55,37
110023,note_on,,,,,4,0,1,,,0,,,70,32
110028,control_change,,,,,5,0,1,,,0,64,0,,
110030,note_off,,,,,2,0,1,,,0,,,50,64
110048,control_change,,,,,18,0,1,,,0,64,64,,
110053,control_change,,,,,5,0,1,,,0,64,96,,
110058,control_change,,,,,5,0,1,,,0,64,127,,
110139,note_on,,,,,81,0,1,,,0,,,57,35
110141,note_off,,,,,2,0,1,,,0,,,82,64
110149,note_off,,,,,8,0,1,,,0,,,55,64
110157,note_off,,,,,8,0,1,,,0,,,70,64
110258,note_on,,,,,101,0,1,,,0,,,81,37
110261,note_on,,,,,3,0,1,,,0,,,69,32
110280,note_off,,,,,19,0,1,,,0,,,69,64
110280,note_off,,,,,0,0,1,,,0,,,81,64
110393,note_on,,,,,113,0,1,,,0,,,67,21
110393,note_on,,,,,0,0,1,,,0,,,79,29
110399,note_on,,,,,6,0,1,,,0,,,45,20
110407,note_off,,,,,8,0,1,,,0,,,57,64
110410,note_off,,,,,3,0,1,,,0,,,45,64
110415,note_off,,,,,5,0,1,,,0,,,67,64
110417,note_off,,,,,2,0,1,,,0,,,79,64
110499,control_change,,,,,82,0,1,,,0,64,96,,
110505,control_change,,,,,6,0,1,,,0,64,0,,
110518,note_on,,,,,13,0,1,,,0,,,65,32
110521,note_on,,,,,3,0,1,,,0,,,77,36
110527,note_on,,,,,6,0,1,,,0,,,50,52
110530,note_off,,,,,3,0,1,,,0,,,65,64
110536,control_change,,,,,6,0,1,,,0,64,64,,
110541,control_change,,,,,5,0,1,,,0,64,96,,
110543,note_off,,,,,2,0,1,,,0,,,77,64
110547,control_change,,,,,4,0,1,,,0,64,127,,
110638,note_on,,,,,91,0,1,,,0,,,86,67
110641,note_on,,,,,3,0,1,,,0,,,74,52
110649,note_off,,,,,8,0,1,,,0,,,74,64
110657,note_off,,,,,8,0,1,,,0,,,86,64
110753,control_change,,,,,96,0,1,,,0,64,96,,
110755,note_on,,,,,2,0,1,,,0,,,83,70
110758,note_off,,,,,3,0,1,,,0,,,50,64
110758,note_on,,,,,0,0,1,,,0,,,71,50
110763,control_change,,,,,5,0,1,,,0,64,64,,
110765,note_on,,,,,2,0,1,,,0,,,62,50
110771,control_change,,,,,6,0,1,,,0,64,0,,
110784,control_change,,,,,13,0,1,,,0,64,64,,
110788,control_change,,,,,4,0,1,,,0,64,96,,
110794,control_change,,,,,6,0,1,,,0,64,127,,
110861,control_change,,,,,67,0,1,,,0,64,96,,
110866,control_change,,,,,5,0,1,,,0,64,64,,
110875,note_on,,,,,9,0,1,,,0,,,61,48
110879,note_off,,,,,4,0,1,,,0,,,62,64
110881,note_off,,,,,2,0,1,,,0,,,83,64
110885,control_change,,,,,4,0,1,,,0,64,127,,
110887,note_off,,,,,2,0,1,,,0,,,71,64
110995,note_on,,,,,108,0,1,,,0,,,81,62
110999,note_on,,,,,4,0,1,,,0,,,69,44
111014,note_off,,,,,15,0,1,,,0,,,69,64
111014,note_off,,,,,0,0,1,,,0,,,81,64
111119,note_on,,,,,105,0,1,,,0,,,79,52
111123,note_on,,,,,4,0,1,,,0,,,67,36
111127,note_on,,,,,4,0,1,,,0,,,59,43
111134,note_off,,,,,7,0,1,,,0,,,61,64
111137,note_off,,,,,3,0,1,,,0,,,67,64
111140,note_off,,,,,3,0,1,,,0,,,79,64
111143,note_off,,,,,3,0,1,,,0,,,59,64
111209,control_change,,,,,66,0,1,,,0,64,96,,
111214,control_change,,,,,5,0,1,,,0,64,64,,
111219,control_change,,,,,5,0,1,,,0,64,0,,
111231,note_on,,,,,12,0,1,,,0,,,66,44
111234,note_on,,,,,3,0,1,,,0,,,78,55
111238,note_off,,,,,4,0,1,,,0,,,66,64
111240,note_on,,,,,2,0,1,,,0,,,50,29
111244,control_change,,,,,4,0,1,,,0,64,96,,
111249,control_change,,,,,5,0,1,,,0,64,127,,
111250,note_off,,,,,1,0,1,,,0,,,78,64
111349,note_on,,,,,99,0,1,,,0,,,86,42
111352,note_on,,,,,3,0,1,,,0,,,74,20
111364,note_off,,,,,12,0,1,,,0,,,74,64
111368,note_off,,,,,4,0,1,,,0,,,86,64
111458,control_change,,,,,90,0,1,,,0,64,96,,
111462,note_on,,,,,4,0,1,,,0,,,82,47
111465,control_change,,,,,3,0,1,,,0,64,64,,
111467,note_on,,,,,0,0,1,,,0,,,55,32
111467,note_on,,,,,2,0,1,,,0,,,70,28
111472,note_off,,,,,5,0,1,,,0,,,50,64
111474,control_change,,,,,2,0,1,,,0,64,0,,
111488,control_change,,,,,14,0,1,,,0,64,64,,
111493,control_change,,,,,5,0,1,,,0,64,127,,
111556,control_change,,,,,63,0,1,,,0,64,64,,
111561,control_change,,,,,5,0,1,,,0,64,96,,
111566,control_change,,,,,5,0,1,,,0,64,64,,
111568,control_change,,,,,2,0,1,,,0,64,96,,
111571,control_change,,,,,3,0,1,,,0,64,0,,
111587,note_on,,,,,16,0,1,,,0,,,57,32
111590,control_change,,,,,3,0,1,,,0,64,64,,
111595,control_change,,,,,0,0,1,,,0,64,127,,
111595,control_change,,,,,5,0,1,,,0,64,127,,
111596,note_off,,,,,1,0,1,,,0,,,55,64
111610,note_off,,,,,14,0,1,,,0,,,82,64
111632,note_off,,,,,22,0,1,,,0,,,70,64
111709,note_on,,,,,77,0,1,,,0,,,81,39
111712,note_on,,,,,3,0,1,,,0,,,69,32
111727,note_off,,,,,15,0,1,,,0,,,69,64
111729,note_off,,,,,2,0,1,,,0,,,81,64
111835,note_on,,,,,106,0,1,,,0,,,79,28
111838,note_on,,,,,3,0,1,,,0,,,67,12
111842,note_on,,,,,4,0,1,,,0,,,45,18
111856,note_off,,,,,14,0,1,,,0,,,57,64
111861,note_off,,,,,5,0,1,,,0,,,67,64
111863,note_off,,,,,2,0,1,,,0,,,79,64
111867,control_change,,,,,4,0,1,,,0,64,96,,
111869,note_off,,,,,2,0,1,,,0,,,45,64
111873,control_change,,,,,4,0,1,,,0,64,64,,
111881,control_change,,,,,8,0,1,,,0,64,0,,
111937,control_change,,,,,56,0,1,,,0,64,96,,
111942,control_change,,,,,5,0,1,,,0,64,64,,
111948,control_change,,,,,6,0,1,,,0,64,0,,
111958,note_on,,,,,10,0,1,,,0,,,77,47
111959,note_on,,,,,1,0,1,,,0,,,50,36
111967,control_change,,,,,8,0,1,,,0,64,64,,
111969,note_on,,,,,2,0,1,,,0,,,65,14
111975,control_change,,,,,6,0,1,,,0,64,127,,
111989,note_off,,,,,14,0,1,,,0,,,65,64
111989,note_off,,,,,0,0,1,,,0,,,77,64
112074,note_off,,,,,85,0,1,,,0,,,50,64
112079,note_on,,,,,5,0,1,,,0,,,76,50
112082,note_on,,,,,3,0,1,,,0,,,52,34
112107,note_off,,,,,25,0,1,,,0,,,76,64
112192,note_on,,,,,85,0,1,,,0,,,62,41
112195,note_on,,,,,3,0,1,,,0,,,74,52
112199,note_off,,,,,4,0,1,,,0,,,52,64
112199,note_on,,,,,0,0,1,,,0,,,53,45
112203,note_off,,,,,4,0,1,,,0,,,62,64
112213,note_off,,,,,10,0,1,,,0,,,74,64
112283,control_change,,,,,70,0,1,,,0,64,96,,
112288,control_change,,,,,5,0,1,,,0,64,64,,
112294,control_change,,,,,6,0,1,,,0,64,0,,
112315,control_change,,,,,21,0,1,,,0,64,64,,
112316,note_on,,,,,0,0,1,,,0,,,67,47
112316,note_on,,,,,1,0,1,,,0,,,79,59
112321,note_off,,,,,5,0,1,,,0,,,53,64
112322,note_on,,,,,1,0,1,,,0,,,55,41
112325,control_change,,,,,3,0,1,,,0,64,127,,
112337,note_off,,,,,12,0,1,,,0,,,67,64
112342,note_off,,,,,5,0,1,,,0,,,79,64
112427,note_off,,,,,85,0,1,,,0,,,55,64
112427,note_on,,,,,0,0,1,,,0,,,77,67
112431,note_on,,,,,4,0,1,,,0,,,65,50
112437,note_on,,,,,6,0,1,,,0,,,57,36
112449,note_off,,,,,12,0,1,,,0,,,65,64
112457,note_off,,,,,8,0,1,,,0,,,77,64
112546,note_on,,,,,89,0,1,,,0,,,45,50
112549,note_on,,,,,3,0,1,,,0,,,76,67
112552,note_on,,,,,3,0,1,,,0,,,64,40
112556,note_off,,,,,4,0,1,,,0,,,57,64
112559,note_off,,,,,3,0,1,,,0,,,45,64
112565,note_off,,,,,6,0,1,,,0,,,64,64
112567,note_off,,,,,2,0,1,,,0,,,76,64
112642,control_change,,,,,75,0,1,,,0,64,96,,
112648,control_change,,,,,6,0,1,,,0,64,64,,
112653,control_change,,,,,5,0,1,,,0,64,0,,
112660,note_on,,,,,7,0,1,,,0,,,62,56
112663,note_on,,,,,3,0,1,,,0,,,74,62
112666,note_on,,,,,3,0,1,,,0,,,50,62
112669,note_off,,,,,3,0,1,,,0,,,62,64
112674,control_change,,,,,5,0,1,,,0,64,96,,
112679,control_change,,,,,5,0,1,,,0,64,127,,
112682,note_off,,,,,3,0,1,,,0,,,74,64
112784,note_on,,,,,102,0,1,,,0,,,69,52
112785,note_on,,,,,1,0,1,,,0,,,81,62
112804,note_off,,,,,19,0,1,,,0,,,69,64
112805,note_off,,,,,1,0,1,,,0,,,81,64
112823,note_off,,,,,18,0,1,,,0,,,50,64
112902,note_on,,,,,0,0,1,,,0,,,66,55
112902,note_on,,,,,79,0,1,,,0,,,78,74
112909,note_on,,,,,7,0,1,,,0,,,50,59
112914,note_off,,,,,5,0,1,,,0,,,66,64
112922,note_off,,,,,8,0,1,,,0,,,78,64
113004,control_change,,,,,82,0,1,,,0,64,96,,
113009,control_change,,,,,5,0,1,,,0,64,0,,
113016,note_off,,,,,7,0,1,,,0,,,50,64
113022,note_on,,,,,6,0,1,,,0,,,83,67
113023,note_on,,,,,0,0,1,,,0,,,71,59
113023,note_on,,,,,1,0,1,,,0,,,55,62
113032,control_change,,,,,9,0,1,,,0,64,96,,
113037,control_change,,,,,5,0,1,,,0,64,127,,
113043,note_off,,,,,0,0,1,,,0,,,71,64
113043,note_off,,,,,6,0,1,,,0,,,83,64
113134,note_on,,,,,91,0,1,,,0,,,67,62
113135,note_on,,,,,1,0,1,,,0,,,79,67
113139,note_on,,,,,4,0,1,,,0,,,52,67
113142,note_off,,,,,3,0,1,,,0,,,55,64
113148,note_off,,,,,6,0,1,,,0,,,67,64
113159,note_off,,,,,11,0,1,,,0,,,79,64
113255,note_on,,,,,96,0,1,,,0,,,73,55
113255,note_on,,,,,0,0,1,,,0,,,85,80
113259,note_on,,,,,4,0,1,,,0,,,57,52
113265,note_off,,,,,6,0,1,,,0,,,52,64
113273,note_off,,,,,8,0,1,,,0,,,73,64
113277,note_off,,,,,4,0,1,,,0,,,57,64
113277,note_off,,,,,0,0,1,,,0,,,85,64
113370,control_change,,,,,93,0,1,,,0,64,96,,
113376,control_change,,,,,6,0,1,,,0,64,0,,
113384,note_on,,,,,8,0,1,,,0,,,86,70
113387,note_on,,,,,3,0,1,,,0,,,74,62
113390,note_on,,,,,3,0,1,,,0,,,54,63
113390,note_on,,,,,0,0,1,,,0,,,62,50
113401,control_change,,,,,11,0,1,,,0,64,64,,
113402,note_off,,,,,1,0,1,,,0,,,86,64
113405,note_off,,,,,3,0,1,,,0,,,74,64
113409,control_change,,,,,4,0,1,,,0,64,127,,
113498,note_off,,,,,89,0,1,,,0,,,62,64
113506,note_on,,,,,0,0,1,,,0,,,69,52
113506,note_on,,,,,8,0,1,,,0,,,81,62
113515,note_off,,,,,9,0,1,,,0,,,54,64
113517,note_on,,,,,2,0,1,,,0,,,50,52
113525,note_off,,,,,8,0,1,,,0,,,69,64
113527,note_off,,,,,2,0,1,,,0,,,81,64
113630,note_on,,,,,0,0,1,,,0,,,78,55
113630,note_on,,,,,103,0,1,,,0,,,66,40
113638,note_off,,,,,8,0,1,,,0,,,66,64
113638,note_on,,,,,0,0,1,,,0,,,54,47
113643,note_off,,,,,5,0,1,,,0,,,50,64
113647,note_off,,,,,4,0,1,,,0,,,78,64
113691,note_off,,,,,44,0,1,,,0,,,54,64
113737,control_change,,,,,46,0,1,,,0,64,96,,
113741,control_change,,,,,4,0,1,,,0,64,64,,
113747,control_change,,,,,6,0,1,,,0,64,0,,
113754,note_on,,,,,7,0,1,,,0,,,83,67
113757,note_on,,,,,3,0,1,,,0,,,71,52
113760,note_on,,,,,3,0,1,,,0,,,55,47
113760,note_on,,,,,0,0,1,,,0,,,62,31
113765,control_change,,,,,5,0,1,,,0,64,64,,
113771,control_change,,,,,6,0,1,,,0,64,127,,
113776,note_off,,,,,5,0,1,,,0,,,71,64
113778,note_off,,,,,2,0,1,,,0,,,83,64
113870,note_on,,,,,92,0,1,,,0,,,67,52
113874,note_on,,,,,0,0,1,,,0,,,79,62
113874,note_on,,,,,0,0,1,,,0,,,52,52
113874,note_off,,,,,4,0,1,,,0,,,55,64
113883,note_off,,,,,9,0,1,,,0,,,67,64
113891,note_off,,,,,8,0,1,,,0,,,79,64
113985,note_off,,,,,94,0,1,,,0,,,62,64
113992,note_on,,,,,7,0,1,,,0,,,85,80
113996,note_on,,,,,4,0,1,,,0,,,73,55
113999,note_off,,,,,3,0,1,,,0,,,52,64
113999,note_on,,,,,0,0,1,,,0,,,57,50
114005,note_off,,,,,6,0,1,,,0,,,73,64
114013,note_off,,,,,8,0,1,,,0,,,57,64
114013,note_off,,,,,0,0,1,,,0,,,85,64
114087,control_change,,,,,74,0,1,,,0,64,96,,
114092,control_change,,,,,5,0,1,,,0,64,64,,
114098,control_change,,,,,6,0,1,,,0,64,0,,
114108,note_on,,,,,10,0,1,,,0,,,86,70
114111,note_on,,,,,3,0,1,,,0,,,74,62
114115,note_on,,,,,4,0,1,,,0,,,54,47
114115,note_on,,,,,0,0,1,,,0,,,62,29
114123,control_change,,,,,8,0,1,,,0,64,96,,
114129,control_change,,,,,6,0,1,,,0,64,127,,
114130,note_off,,,,,0,0,1,,,0,,,74,64
114130,note_off,,,,,1,0,1,,,0,,,86,64
114182,note_off,,,,,52,0,1,,,0,,,62,64
114232,note_on,,,,,50,0,1,,,0,,,81,56
114236,note_on,,,,,4,0,1,,,0,,,69,47
114239,note_off,,,,,3,0,1,,,0,,,54,64
114242,note_on,,,,,3,0,1,,,0,,,50,44
114247,note_off,,,,,5,0,1,,,0,,,69,64
114255,note_off,,,,,8,0,1,,,0,,,81,64
114342,note_off,,,,,87,0,1,,,0,,,50,64
114348,note_on,,,,,6,0,1,,,0,,,66,44
114348,note_on,,,,,0,0,1,,,0,,,78,63
114353,note_on,,,,,5,0,1,,,0,,,54,32
114356,note_off,,,,,3,0,1,,,0,,,66,64
114364,note_off,,,,,8,0,1,,,0,,,78,64
114396,note_off,,,,,32,0,1,,,0,,,54,64
114453,control_change,,,,,57,0,1,,,0,64,96,,
114458,control_change,,,,,5,0,1,,,0,64,64,,
114463,control_change,,,,,5,0,1,,,0,64,0,,
114467,note_on,,,,,4,0,1,,,0,,,83,59
114467,note_on,,,,,0,0,1,,,0,,,71,41
114473,note_on,,,,,6,0,1,,,0,,,55,50
114476,note_on,,,,,3,0,1,,,0,,,62,21
114482,control_change,,,,,6,0,1,,,0,64,64,,
114486,note_off,,,,,0,0,1,,,0,,,83,64
114486,note_off,,,,,4,0,1,,,0,,,71,64
114488,control_change,,,,,2,0,1,,,0,64,127,,
114581,note_on,,,,,93,0,1,,,0,,,67,50
114581,note_on,,,,,0,0,1,,,0,,,79,62
114586,note_off,,,,,5,0,1,,,0,,,55,64
114589,note_on,,,,,3,0,1,,,0,,,52,50
114594,note_off,,,,,5,0,1,,,0,,,67,64
114598,note_off,,,,,4,0,1,,,0,,,62,64
114603,note_off,,,,,5,0,1,,,0,,,79,64
114697,note_on,,,,,94,0,1,,,0,,,73,50
114698,note_on,,,,,1,0,1,,,0,,,85,68
114704,note_on,,,,,6,0,1,,,0,,,57,41
114708,note_off,,,,,4,0,1,,,0,,,52,64
114710,note_off,,,,,2,0,1,,,0,,,73,64
114718,note_off,,,,,8,0,1,,,0,,,85,64
114787,note_off,,,,,69,0,1,,,0,,,57,64
114792,control_change,,,,,5,0,1,,,0,64,96,,
114797,control_change,,,,,5,0,1,,,0,64,64,,
114803,control_change,,,,,6,0,1,,,0,64,0,,
114813,note_on,,,,,10,0,1,,,0,,,86,67
114816,note_on,,,,,0,0,1,,,0,,,74,56
114816,note_on,,,,,3,0,1,,,0,,,62,41
114823,note_on,,,,,7,0,1,,,0,,,54,50
114826,control_change,,,,,3,0,1,,,0,64,96,,
114831,control_change,,,,,5,0,1,,,0,64,127,,
114833,note_off,,,,,0,0,1,,,0,,,86,64
114833,note_off,,,,,2,0,1,,,0,,,74,64
114935,note_on,,,,,102,0,1,,,0,,,81,62
114938,note_off,,,,,0,0,1,,,0,,,54,64
114938,note_off,,,,,3,0,1,,,0,,,62,64
114941,note_on,,,,,3,0,1,,,0,,,50,41
114944,note_on,,,,,3,0,1,,,0,,,78,50
115036,note_off,,,,,92,0,1,,,0,,,78,64
115055,note_off,,,,,19,0,1,,,0,,,81,64
115060,note_on,,,,,5,0,1,,,0,,,79,50
115064,note_off,,,,,4,0,1,,,0,,,50,64
115065,note_on,,,,,1,0,1,,,0,,,55,47
115065,note_on,,,,,0,0,1,,,0,,,76,52
115169,control_change,,,,,104,0,1,,,0,64,96,,
115175,control_change,,,,,6,0,1,,,0,64,0,,
115186,note_off,,,,,11,0,1,,,0,,,76,64
115186,note_off,,,,,0,0,1,,,0,,,55,64
115186,note_on,,,,,0,0,1,,,0,,,74,52
115186,note_on,,,,,0,0,1,,,0,,,78,68
115191,note_off,,,,,5,0,1,,,0,,,79,64
115192,note_on,,,,,1,0,1,,,0,,,57,50
115199,control_change,,,,,7,0,1,,,0,64,64,,
115203,note_off,,,,,4,0,1,,,0,,,78,64
115205,control_change,,,,,2,0,1,,,0,64,127,,
115207,note_off,,,,,2,0,1,,,0,,,74,64
115312,note_on,,,,,105,0,1,,,0,,,78,50
115317,note_on,,,,,5,0,1,,,0,,,74,29
115404,note_off,,,,,87,0,1,,,0,,,74,64
115433,note_on,,,,,29,0,1,,,0,,,76,59
115438,note_off,,,,,5,0,1,,,0,,,78,64
115438,note_off,,,,,0,0,1,,,0,,,57,64
115438,note_on,,,,,0,0,1,,,0,,,45,41
115438,note_on,,,,,0,0,1,,,0,,,69,47
115448,note_off,,,,,10,0,1,,,0,,,45,64
115450,note_off,,,,,2,0,1,,,0,,,69,64
115453,note_off,,,,,3,0,1,,,0,,,76,64
115547,control_change,,,,,94,0,1,,,0,64,96,,
115552,control_change,,,,,5,0,1,,,0,64,0,,
115561,note_on,,,,,9,0,1,,,0,,,38,67
115564,note_on,,,,,0,0,1,,,0,,,74,59
115564,note_on,,,,,3,0,1,,,0,,,66,55
115573,control_change,,,,,9,0,1,,,0,64,96,,
115578,control_change,,,,,5,0,1,,,0,64,127,,
115582,note_off,,,,,4,0,1,,,0,,,66,64
115586,note_off,,,,,4,0,1,,,0,,,74,64
115680,note_on,,,,,94,0,1,,,0,,,66,35
115684,note_on,,,,,4,0,1,,,0,,,74,50
115695,note_off,,,,,11,0,1,,,0,,,66,64
115730,note_off,,,,,35,0,1,,,0,,,74,64
115802,note_off,,,,,72,0,1,,,0,,,38,64
115802,note_on,,,,,0,0,1,,,0,,,76,56
115808,note_on,,,,,6,0,1,,,0,,,69,47
115844,note_off,,,,,36,0,1,,,0,,,76,64
115901,note_off,,,,,57,0,1,,,0,,,69,64
115907,control_change,,,,,6,0,1,,,0,64,96,,
115912,control_change,,,,,5,0,1,,,0,64,64,,
115914,note_on,,,,,2,0,1,,,0,,,66,55
115917,note_on,,,,,0,0,1,,,0,,,74,62
115917,note_on,,,,,3,0,1,,,0,,,38,59
115926,control_change,,,,,9,0,1,,,0,64,96,,
115931,control_change,,,,,5,0,1,,,0,64,127,,
115933,note_off,,,,,2,0,1,,,0,,,66,64
115937,note_off,,,,,4,0,1,,,0,,,74,64
116033,note_on,,,,,96,0,1,,,0,,,66,40
116037,note_on,,,,,4,0,1,,,0,,,74,52
116048,note_off,,,,,11,0,1,,,0,,,66,64
116076,control_change,,,,,28,0,1,,,0,64,64,,
116089,note_off,,,,,13,0,1,,,0,,,74,64
116090,control_change,,,,,1,0,1,,,0,64,96,,
116112,control_change,,,,,22,0,1,,,0,64,127,,
116153,note_off,,,,,41,0,1,,,0,,,38,64
116153,note_on,,,,,0,0,1,,,0,,,76,59
116159,note_on,,,,,6,0,1,,,0,,,69,41
116184,note_off,,,,,25,0,1,,,0,,,76,64
116247,note_off,,,,,63,0,1,,,0,,,69,64
116254,control_change,,,,,7,0,1,,,0,64,96,,
116259,control_change,,,,,5,0,1,,,0,64,64,,
116261,control_change,,,,,2,0,1,,,0,64,96,,
116262,note_on,,,,,1,0,1,,,0,,,38,52
116267,note_on,,,,,0,0,1,,,0,,,66,50
116267,note_on,,,,,5,0,1,,,0,,,74,59
116274,control_change,,,,,7,0,1,,,0,64,96,,
116275,note_on,,,,,1,0,1,,,0,,,66,47
116278,note_on,,,,,0,0,1,,,0,,,74,59
116278,note_on,,,,,3,0,1,,,0,,,38,41
116280,note_off,,,,,2,0,1,,,0,,,74,64
116280,note_off,,,,,0,0,1,,,0,,,38,64
116280,note_off,,,,,0,0,1,,,0,,,66,64
116281,control_change,,,,,1,0,1,,,0,64,127,,
116292,note_off,,,,,11,0,1,,,0,,,66,64
116356,note_off,,,,,64,0,1,,,0,,,74,64
116385,note_on,,,,,29,0,1,,,0,,,76,59
116388,note_on,,,,,3,0,1,,,0,,,69,44
116407,note_off,,,,,19,0,1,,,0,,,69,64
116442,note_off,,,,,35,0,1,,,0,,,38,64
116481,note_off,,,,,39,0,1,,,0,,,76,64
116510,note_on,,,,,29,0,1,,,0,,,74,59
116513,note_on,,,,,3,0,1,,,0,,,66,44
116516,note_on,,,,,3,0,1,,,0,,,38,52
116535,note_off,,,,,19,0,1,,,0,,,66,64
116622,note_off,,,,,87,0,1,,,0,,,74,64
116636,note_on,,,,,0,0,1,,,0,,,69,44
116636,note_on,,,,,14,0,1,,,0,,,76,62
116653,note_off,,,,,17,0,1,,,0,,,38,64
116660,note_off,,,,,7,0,1,,,0,,,69,64
116747,note_off,,,,,87,0,1,,,0,,,76,64
116756,note_on,,,,,9,0,1,,,0,,,74,47
116757,note_on,,,,,1,0,1,,,0,,,66,50
116760,note_on,,,,,3,0,1,,,0,,,38,44
116778,note_off,,,,,18,0,1,,,0,,,66,64
116859,note_off,,,,,81,0,1,,,0,,,74,64
116876,note_on,,,,,17,0,1,,,0,,,69,34
116879,note_on,,,,,3,0,1,,,0,,,76,62
116896,note_off,,,,,17,0,1,,,0,,,69,64
116909,note_off,,,,,13,0,1,,,0,,,38,64
116986,note_off,,,,,77,0,1,,,0,,,76,64
117000,note_on,,,,,14,0,1,,,0,,,74,44
117000,note_on,,,,,0,0,1,,,0,,,74,56
117006,note_on,,,,,6,0,1,,,0,,,66,50
117009,note_on,,,,,3,0,1,,,0,,,38,56
117022,note_off,,,,,13,0,1,,,0,,,74,64
117030,note_on,,,,,8,0,1,,,0,,,76,34
117052,note_off,,,,,22,0,1,,,0,,,76,64
117060,note_on,,,,,8,0,1,,,0,,,74,34
117082,note_off,,,,,22,0,1,,,0,,,74,64
117090,note_on,,,,,8,0,1,,,0,,,76,34
117112,note_off,,,,,22,0,1,,,0,,,76,64
117120,note_on,,,,,8,0,1,,,0,,,74,32
117142,note_off,,,,,22,0,1,,,0,,,74,64
117150,note_on,,,,,8,0,1,,,0,,,76,34
117172,note_off,,,,,22,0,1,,,0,,,76,64
117180,note_on,,,,,8,0,1,,,0,,,74,36
117202,note_off,,,,,22,0,1,,,0,,,74,64
117210,note_on,,,,,8,0,1,,,0,,,76,36
117214,note_off,,,,,4,0,1,,,0,,,38,64
117218,note_off,,,,,4,0,1,,,0,,,66,64
117232,note_off,,,,,14,0,1,,,0,,,76,64
117240,note_on,,,,,8,0,1,,,0,,,74,36
117258,note_off,,,,,18,0,1,,,0,,,74,64
117262,note_off,,,,,4,0,1,,,0,,,74,64
117270,note_on,,,,,8,0,1,,,0,,,76,34
117292,note_off,,,,,22,0,1,,,0,,,76,64
117300,note_on,,,,,8,0,1,,,0,,,74,32
117322,note_off,,,,,22,0,1,,,0,,,74,64
117330,note_on,,,,,8,0,1,,,0,,,76,36
117352,note_off,,,,,22,0,1,,,0,,,76,64
117360,note_on,,,,,8,0,1,,,0,,,74,41
117396,control_change,,,,,36,0,1,,,0,64,96,,
117400,control_change,,,,,4,0,1,,,0,64,64,,
117408,control_change,,,,,8,0,1,,,0,64,0,,
117692,note_off,,,,,284,0,1,,,0,,,74,64
117720,marker,,,,,35640,1,0,,,,,,,
117720,end_of_track,,,,,0,1,0,,,,,,,
117720,note_on,,,,,28,0,1,,,0,,,45,22
117810,note_off,,,,,90,0,1,,,0,,,45,64
117840,note_on,,,,,30,0,1,,,0,,,69,28
117840,note_on,,,,,0,0,1,,,0,,,73,25
117930,note_off,,,,,0,0,1,,,0,,,69,64
117930,note_off,,,,,90,0,1,,,0,,,73,64
117960,note_on,,,,,0,0,1,,,0,,,71,28
117960,note_on,,,,,30,0,1,,,0,,,74,32
118050,note_off,,,,,0,0,1,,,0,,,74,64
118050,note_off,,,,,90,0,1,,,0,,,71,64
118078,note_on,,,,,28,0,1,,,0,,,69,25
118080,note_on,,,,,0,0,1,,,0,,,73,28
118080,note_on,,,,,2,0,1,,,0,,,76,32
118170,note_off,,,,,90,0,1,,,0,,,73,64
118170,note_off,,,,,0,0,1,,,0,,,76,64
118200,note_on,,,,,30,0,1,,,0,,,73,32
118200,note_on,,,,,0,0,1,,,0,,,76,32
118208,note_off,,,,,8,0,1,,,0,,,69,64
118208,note_on,,,,,0,0,1,,,0,,,67,25
118290,note_off,,,,,82,0,1,,,0,,,76,64
118290,note_off,,,,,0,0,1,,,0,,,73,64
118320,note_on,,,,,30,0,1,,,0,,,74,24
118320,note_on,,,,,0,0,1,,,0,,,78,29
118328,note_off,,,,,8,0,1,,,0,,,67,64
118328,note_on,,,,,0,0,1,,,0,,,66,28
118410,note_off,,,,,82,0,1,,,0,,,78,64
118410,note_off,,,,,0,0,1,,,0,,,74,64
118438,note_off,,,,,28,0,1,,,0,,,66,64
118438,note_on,,,,,0,0,1,,,0,,,64,32
118440,note_on,,,,,2,0,1,,,0,,,76,35
118440,note_on,,,,,0,0,1,,,0,,,79,32
118530,note_off,,,,,90,0,1,,,0,,,79,64
118530,note_off,,,,,0,0,1,,,0,,,76,64
118560,note_on,,,,,0,0,1,,,0,,,71,16
118560,note_on,,,,,30,0,1,,,0,,,74,28
118650,note_off,,,,,0,0,1,,,0,,,74,64
118650,note_off,,,,,90,0,1,,,0,,,71,64
118680,note_on,,,,,30,0,1,,,0,,,73,29
118680,note_on,,,,,0,0,1,,,0,,,76,32
118770,note_off,,,,,90,0,1,,,0,,,76,64
118770,note_off,,,,,0,0,1,,,0,,,73,64
118790,note_off,,,,,20,0,1,,,0,,,64,64
118792,note_on,,,,,2,0,1,,,0,,,71,29
118800,note_on,,,,,8,0,1,,,0,,,74,25
118800,note_on,,,,,0,0,1,,,0,,,78,35
118890,note_off,,,,,90,0,1,,,0,,,78,64
118890,note_off,,,,,0,0,1,,,0,,,74,64
118920,note_on,,,,,30,0,1,,,0,,,78,29
118920,note_on,,,,,0,0,1,,,0,,,74,25
118923,note_on,,,,,3,0,1,,,0,,,69,25
118934,note_off,,,,,11,0,1,,,0,,,71,64
119010,note_off,,,,,0,0,1,,,0,,,78,64
119010,note_off,,,,,76,0,1,,,0,,,74,64
119040,note_on,,,,,0,0,1,,,0,,,76,19
119040,note_on,,,,,30,0,1,,,0,,,79,29
119042,note_on,,,,,2,0,1,,,0,,,67,29
119050,note_off,,,,,8,0,1,,,0,,,69,64
119130,note_off,,,,,0,0,1,,,0,,,79,64
119130,note_off,,,,,80,0,1,,,0,,,76,64
119154,note_off,,,,,24,0,1,,,0,,,67,64
119160,note_on,,,,,6,0,1,,,0,,,81,32
119166,note_on,,,,,6,0,1,,,0,,,66,22
119170,note_on,,,,,4,0,1,,,0,,,69,24
119275,note_off,,,,,105,0,1,,,0,,,69,64
119279,note_on,,,,,4,0,1,,,0,,,71,28
119283,control_change,,,,,4,0,1,,,0,64,64,,
119303,note_off,,,,,20,0,1,,,0,,,71,64
119306,note_off,,,,,3,0,1,,,0,,,66,64
119326,control_change,,,,,20,0,1,,,0,64,96,,
119396,note_on,,,,,70,0,1,,,0,,,72,29
119400,note_on,,,,,4,0,1,,,0,,,64,26
119414,note_off,,,,,14,0,1,,,0,,,72,64
119421,note_off,,,,,7,0,1,,,0,,,64,64
119425,control_change,,,,,4,0,1,,,0,64,127,,
119502,control_change,,,,,77,0,1,,,0,64,96,,
119508,control_change,,,,,6,0,1,,,0,64,64,,
119512,note_on,,,,,4,0,1,,,0,,,63,35
119515,control_change,,,,,3,0,1,,,0,64,0,,
119517,note_on,,,,,2,0,1,,,0,,,71,29
119520,note_on,,,,,0,0,1,,,0,,,71,23
119520,note_on,,,,,3,0,1,,,0,,,83,44
119549,control_change,,,,,29,0,1,,,0,64,64,,
119555,control_change,,,,,6,0,1,,,0,64,96,,
119568,control_change,,,,,13,0,1,,,0,64,127,,
119588,note_off,,,,,20,0,1,,,0,,,81,64
119618,note_off,,,,,30,0,1,,,0,,,63,64
119637,control_change,,,,,19,0,1,,,0,64,96,,
119639,note_on,,,,,2,0,1,,,0,,,64,21
119640,note_on,,,,,1,0,1,,,0,,,79,25
119646,control_change,,,,,6,0,1,,,0,64,64,,
119653,control_change,,,,,7,0,1,,,0,64,0,,
119658,note_off,,,,,5,0,1,,,0,,,71,64
119730,note_off,,,,,72,0,1,,,0,,,79,64
119758,note_off,,,,,28,0,1,,,0,,,64,64
119758,note_on,,,,,0,0,1,,,0,,,63,29
119760,note_on,,,,,2,0,1,,,0,,,78,28
119790,note_off,,,,,30,0,1,,,0,,,71,64
119790,note_off,,,,,0,0,1,,,0,,,83,64
119850,note_off,,,,,60,0,1,,,0,,,78,64
119870,note_off,,,,,20,0,1,,,0,,,63,64
119870,note_on,,,,,0,0,1,,,0,,,64,32
119880,note_on,,,,,10,0,1,,,0,,,79,29
119970,note_off,,,,,90,0,1,,,0,,,79,64
119997,note_on,,,,,27,0,1,,,0,,,66,29
120000,note_on,,,,,3,0,1,,,0,,,81,32
120005,note_off,,,,,5,0,1,,,0,,,64,64
120090,note_off,,,,,85,0,1,,,0,,,81,64
120111,note_off,,,,,21,0,1,,,0,,,66,64
120120,note_on,,,,,0,0,1,,,0,,,83,32
120120,note_on,,,,,9,0,1,,,0,,,67,32
120233,note_off,,,,,113,0,1,,,0,,,67,64
120240,note_on,,,,,7,0,1,,,0,,,84,32
120245,note_on,,,,,5,0,1,,,0,,,57,29
120304,note_off,,,,,59,0,1,,,0,,,83,64
120315,control_change,,,,,11,0,1,,,0,64,64,,
120320,control_change,,,,,5,0,1,,,0,64,96,,
120330,note_off,,,,,10,0,1,,,0,,,84,64
120338,control_change,,,,,8,0,1,,,0,64,127,,
120360,note_on,,,,,22,0,1,,,0,,,81,32
120360,note_on,,,,,0,0,1,,,0,,,84,35
120441,note_off,,,,,81,0,1,,,0,,,57,64
120450,note_off,,,,,9,0,1,,,0,,,84,64
120450,note_off,,,,,0,0,1,,,0,,,81,64
120480,note_on,,,,,30,0,1,,,0,,,79,19
120480,note_on,,,,,0,0,1,,,0,,,83,24
120570,note_off,,,,,90,0,1,,,0,,,83,64
120600,note_on,,,,,30,0,1,,,0,,,81,35
120605,note_on,,,,,5,0,1,,,0,,,69,32
120612,control_change,,,,,7,0,1,,,0,64,64,,
120618,control_change,,,,,6,0,1,,,0,64,0,,
120664,note_off,,,,,46,0,1,,,0,,,79,64
120690,note_off,,,,,26,0,1,,,0,,,81,64
120720,note_on,,,,,0,0,1,,,0,,,78,29
120720,note_on,,,,,30,0,1,,,0,,,81,29
120749,control_change,,,,,29,0,1,,,0,64,64,,
120762,control_change,,,,,13,0,1,,,0,64,96,,
120810,note_off,,,,,0,0,1,,,0,,,81,64
120810,note_off,,,,,48,0,1,,,0,,,78,64
120834,control_change,,,,,24,0,1,,,0,64,127,,
120840,note_on,,,,,0,0,1,,,0,,,79,24
120840,note_on,,,,,6,0,1,,,0,,,76,24
120927,control_change,,,,,87,0,1,,,0,64,96,,
120930,note_off,,,,,3,0,1,,,0,,,79,64
120932,control_change,,,,,2,0,1,,,0,64,64,,
120939,control_change,,,,,7,0,1,,,0,64,0,,
120952,note_off,,,,,13,0,1,,,0,,,69,64
120960,note_on,,,,,8,0,1,,,0,,,77,28
120966,note_on,,,,,6,0,1,,,0,,,59,34
120992,control_change,,,,,26,0,1,,,0,64,64,,
120997,control_change,,,,,5,0,1,,,0,64,96,,
121024,control_change,,,,,27,0,1,,,0,64,127,,
121036,note_off,,,,,12,0,1,,,0,,,76,64
121050,note_off,,,,,14,0,1,,,0,,,77,64
121079,note_off,,,,,29,0,1,,,0,,,59,64
121080,note_on,,,,,0,0,1,,,0,,,80,35
121080,note_on,,,,,1,0,1,,,0,,,74,24
121088,note_on,,,,,8,0,1,,,0,,,71,28
121096,control_change,,,,,8,0,1,,,0,64,96,,
121147,control_change,,,,,51,0,1,,,0,64,64,,
121165,control_change,,,,,18,0,1,,,0,64,0,,
121170,note_off,,,,,5,0,1,,,0,,,80,64
121200,note_on,,,,,30,0,1,,,0,,,81,29
121208,note_on,,,,,8,0,1,,,0,,,69,21
121213,note_off,,,,,5,0,1,,,0,,,71,64
121290,note_off,,,,,77,0,1,,,0,,,81,64
121300,note_off,,,,,10,0,1,,,0,,,74,64
121320,note_on,,,,,20,0,1,,,0,,,83,50
121325,note_off,,,,,5,0,1,,,0,,,69,64
121330,note_on,,,,,5,0,1,,,0,,,68,32
121410,note_off,,,,,80,0,1,,,0,,,83,64
121440,note_on,,,,,30,0,1,,,0,,,76,52
121441,note_on,,,,,1,0,1,,,0,,,64,33
121447,note_off,,,,,6,0,1,,,0,,,68,64
121478,control_change,,,,,31,0,1,,,0,64,64,,
121488,control_change,,,,,10,0,1,,,0,64,96,,
121497,control_change,,,,,9,0,1,,,0,64,127,,
121549,note_off,,,,,52,0,1,,,0,,,64,64
121552,note_on,,,,,3,0,1,,,0,,,68,47
121560,note_on,,,,,8,0,1,,,0,,,74,47
121562,note_off,,,,,2,0,1,,,0,,,68,64
121668,control_change,,,,,106,0,1,,,0,64,96,,
121673,control_change,,,,,5,0,1,,,0,64,64,,
121674,note_on,,,,,1,0,1,,,0,,,57,52
121679,control_change,,,,,5,0,1,,,0,64,0,,
121732,control_change,,,,,53,0,1,,,0,64,64,,
121737,control_change,,,,,5,0,1,,,0,64,96,,
121752,note_off,,,,,15,0,1,,,0,,,74,64
121764,note_off,,,,,12,0,1,,,0,,,76,64
121794,control_change,,,,,30,0,1,,,0,64,127,,
121800,note_on,,,,,6,0,1,,,0,,,73,50
121890,note_off,,,,,90,0,1,,,0,,,73,64
121918,note_on,,,,,28,0,1,,,0,,,69,44
121920,note_on,,,,,2,0,1,,,0,,,81,47
121931,note_off,,,,,11,0,1,,,0,,,57,64
121932,note_off,,,,,1,0,1,,,0,,,69,64
122032,control_change,,,,,100,0,1,,,0,64,96,,
122037,control_change,,,,,5,0,1,,,0,64,64,,
122038,note_on,,,,,1,0,1,,,0,,,57,47
122040,note_on,,,,,2,0,1,,,0,,,82,58
122042,note_on,,,,,2,0,1,,,0,,,67,50
122047,control_change,,,,,5,0,1,,,0,64,0,,
122089,control_change,,,,,42,0,1,,,0,64,64,,
122095,control_change,,,,,6,0,1,,,0,64,96,,
122104,control_change,,,,,9,0,1,,,0,64,127,,
122120,note_off,,,,,16,0,1,,,0,,,81,64
122130,note_off,,,,,10,0,1,,,0,,,82,64
122160,note_on,,,,,0,0,1,,,0,,,79,50
122160,note_on,,,,,30,0,1,,,0,,,82,50
122169,note_off,,,,,9,0,1,,,0,,,67,64
122250,note_off,,,,,0,0,1,,,0,,,82,64
122250,note_off,,,,,81,0,1,,,0,,,79,64
122280,note_on,,,,,0,0,1,,,0,,,81,47
122280,note_on,,,,,30,0,1,,,0,,,77,44
122288,note_on,,,,,0,0,1,,,0,,,65,56
122288,note_off,,,,,8,0,1,,,0,,,57,64
122311,note_off,,,,,23,0,1,,,0,,,65,64
122370,note_off,,,,,59,0,1,,,0,,,81,64
122394,control_change,,,,,24,0,1,,,0,64,96,,
122400,control_change,,,,,6,0,1,,,0,64,64,,
122400,note_on,,,,,0,0,1,,,0,,,79,56
122401,note_on,,,,,0,0,1,,,0,,,64,44
122401,note_on,,,,,1,0,1,,,0,,,57,44
122412,control_change,,,,,11,0,1,,,0,64,0,,
122480,note_off,,,,,68,0,1,,,0,,,77,64
122490,note_off,,,,,10,0,1,,,0,,,79,64
122520,note_on,,,,,0,0,1,,,0,,,76,41
122520,note_on,,,,,30,0,1,,,0,,,79,52
122610,note_off,,,,,0,0,1,,,0,,,79,64
122610,note_off,,,,,90,0,1,,,0,,,76,64
122638,note_off,,,,,28,0,1,,,0,,,57,64
122640,note_on,,,,,0,0,1,,,0,,,77,47
122640,note_on,,,,,0,0,1,,,0,,,74,31
122640,note_on,,,,,2,0,1,,,0,,,62,39
122648,note_off,,,,,8,0,1,,,0,,,64,64
122652,control_change,,,,,4,0,1,,,0,64,64,,
122661,control_change,,,,,9,0,1,,,0,64,96,,
122700,control_change,,,,,39,0,1,,,0,64,64,,
122714,control_change,,,,,14,0,1,,,0,64,0,,
122730,note_off,,,,,16,0,1,,,0,,,77,64
122745,note_off,,,,,15,0,1,,,0,,,62,64
122759,note_on,,,,,14,0,1,,,0,,,57,44
122760,note_on,,,,,1,0,1,,,0,,,75,50
122836,note_off,,,,,76,0,1,,,0,,,74,64
122848,control_change,,,,,12,0,1,,,0,64,64,,
122850,note_off,,,,,2,0,1,,,0,,,75,64
122859,control_change,,,,,9,0,1,,,0,64,96,,
122878,note_off,,,,,19,0,1,,,0,,,57,64
122880,note_on,,,,,0,0,1,,,0,,,78,55
122880,note_on,,,,,0,0,1,,,0,,,72,41
122880,note_on,,,,,2,0,1,,,0,,,69,47
122970,note_off,,,,,90,0,1,,,0,,,78,64
122998,control_change,,,,,28,0,1,,,0,64,64,,
123000,note_on,,,,,2,0,1,,,0,,,79,47
123002,note_off,,,,,2,0,1,,,0,,,69,64
123006,note_on,,,,,4,0,1,,,0,,,67,26
123013,control_change,,,,,7,0,1,,,0,64,0,,
123090,note_off,,,,,77,0,1,,,0,,,79,64
123120,note_on,,,,,30,0,1,,,0,,,81,52
123125,note_on,,,,,0,0,1,,,0,,,66,29
123125,note_off,,,,,5,0,1,,,0,,,67,64
123188,note_off,,,,,63,0,1,,,0,,,72,64
123237,note_on,,,,,49,0,1,,,0,,,62,39
123240,note_on,,,,,3,0,1,,,0,,,74,44
123242,note_off,,,,,2,0,1,,,0,,,66,64
123291,control_change,,,,,49,0,1,,,0,64,64,,
123318,control_change,,,,,27,0,1,,,0,64,96,,
123330,note_off,,,,,12,0,1,,,0,,,74,64
123360,note_on,,,,,30,0,1,,,0,,,66,47
123360,note_on,,,,,0,0,1,,,0,,,72,47
123367,note_off,,,,,7,0,1,,,0,,,62,64
123450,note_off,,,,,83,0,1,,,0,,,72,64
123452,note_off,,,,,2,0,1,,,0,,,81,64
123461,control_change,,,,,9,0,1,,,0,64,64,,
123475,control_change,,,,,14,0,1,,,0,64,0,,
123480,note_on,,,,,5,0,1,,,0,,,79,50
123480,note_on,,,,,0,0,1,,,0,,,71,39
123488,note_on,,,,,0,0,1,,,0,,,67,47
123488,note_off,,,,,8,0,1,,,0,,,66,64
123570,note_off,,,,,82,0,1,,,0,,,71,64
123570,note_off,,,,,0,0,1,,,0,,,79,64
123596,note_on,,,,,26,0,1,,,0,,,64,37
123600,note_on,,,,,0,0,1,,,0,,,73,47
123600,note_off,,,,,4,0,1,,,0,,,67,64
123676,control_change,,,,,76,0,1,,,0,64,64,,
123689,control_change,,,,,13,0,1,,,0,64,96,,
123690,note_off,,,,,1,0,1,,,0,,,73,64
123720,note_on,,,,,0,0,1,,,0,,,74,44
123720,note_on,,,,,0,0,1,,,0,,,69,34
123720,note_off,,,,,30,0,1,,,0,,,64,64
123726,note_on,,,,,6,0,1,,,0,,,66,55
123733,note_off,,,,,0,0,1,,,0,,,69,64
123733,note_off,,,,,7,0,1,,,0,,,66,64
123740,control_change,,,,,7,0,1,,,0,64,127,,
123810,note_off,,,,,70,0,1,,,0,,,74,64
123833,control_change,,,,,23,0,1,,,0,64,96,,
123839,control_change,,,,,6,0,1,,,0,64,64,,
123840,note_on,,,,,0,0,1,,,0,,,76,44
123840,note_on,,,,,1,0,1,,,0,,,61,51
123849,control_change,,,,,9,0,1,,,0,64,0,,
123930,note_off,,,,,81,0,1,,,0,,,76,64
123931,control_change,,,,,1,0,1,,,0,64,64,,
123952,note_off,,,,,21,0,1,,,0,,,61,64
123954,note_on,,,,,2,0,1,,,0,,,62,50
123960,note_on,,,,,6,0,1,,,0,,,78,47
124032,control_change,,,,,72,0,1,,,0,64,96,,
124050,note_off,,,,,18,0,1,,,0,,,78,64
124057,control_change,,,,,7,0,1,,,0,64,127,,
124063,note_off,,,,,6,0,1,,,0,,,62,64
124066,note_on,,,,,3,0,1,,,0,,,59,36
124080,note_on,,,,,14,0,1,,,0,,,80,47
124082,note_off,,,,,2,0,1,,,0,,,59,64
124156,control_change,,,,,74,0,1,,,0,64,96,,
124161,control_change,,,,,5,0,1,,,0,64,64,,
124167,control_change,,,,,6,0,1,,,0,64,0,,
124170,note_off,,,,,3,0,1,,,0,,,80,64
124190,note_on,,,,,20,0,1,,,0,,,69,56
124194,note_on,,,,,4,0,1,,,0,,,57,52
124200,note_on,,,,,6,0,1,,,0,,,81,56
124200,control_change,,,,,0,0,1,,,0,64,64,,
124206,note_off,,,,,6,0,1,,,0,,,69,64
124209,control_change,,,,,3,0,1,,,0,64,96,,
124213,note_off,,,,,4,0,1,,,0,,,57,64
124217,control_change,,,,,4,0,1,,,0,64,127,,
124290,note_off,,,,,73,0,1,,,0,,,81,64
124303,note_on,,,,,13,0,1,,,0,,,55,56
124306,note_on,,,,,3,0,1,,,0,,,67,47
124315,note_off,,,,,9,0,1,,,0,,,67,64
124319,note_off,,,,,4,0,1,,,0,,,55,64
124320,note_on,,,,,1,0,1,,,0,,,73,58
124410,note_off,,,,,90,0,1,,,0,,,73,64
124425,note_on,,,,,15,0,1,,,0,,,66,58
124429,note_on,,,,,4,0,1,,,0,,,54,58
124440,note_off,,,,,11,0,1,,,0,,,66,64
124440,note_on,,,,,0,0,1,,,0,,,74,62
124446,note_off,,,,,6,0,1,,,0,,,54,64
124530,note_off,,,,,84,0,1,,,0,,,74,64
124533,control_change,,,,,3,0,1,,,0,64,96,,
124540,control_change,,,,,7,0,1,,,0,64,0,,
124545,note_on,,,,,5,0,1,,,0,,,61,62
124550,note_on,,,,,5,0,1,,,0,,,49,63
124560,note_on,,,,,10,0,1,,,0,,,76,62
124581,control_change,,,,,21,0,1,,,0,64,64,,
124587,control_change,,,,,6,0,1,,,0,64,127,,
124599,note_off,,,,,12,0,1,,,0,,,49,64
124607,note_off,,,,,8,0,1,,,0,,,61,64
124650,note_off,,,,,43,0,1,,,0,,,76,64
124669,note_on,,,,,19,0,1,,,0,,,62,59
124673,note_on,,,,,4,0,1,,,0,,,50,59
124680,note_on,,,,,0,0,1,,,0,,,78,68
124680,note_off,,,,,7,0,1,,,0,,,62,64
124690,note_off,,,,,10,0,1,,,0,,,50,64
124770,note_off,,,,,80,0,1,,,0,,,78,64
124785,note_on,,,,,0,0,1,,,0,,,47,62
124785,note_on,,,,,15,0,1,,,0,,,59,71
124800,note_on,,,,,15,0,1,,,0,,,80,63
124806,note_off,,,,,6,0,1,,,0,,,59,64
124811,note_off,,,,,5,0,1,,,0,,,47,64
124890,note_off,,,,,79,0,1,,,0,,,80,64
124899,control_change,,,,,9,0,1,,,0,64,96,,
124906,control_change,,,,,7,0,1,,,0,64,0,,
124908,note_on,,,,,2,0,1,,,0,,,57,70
124910,note_on,,,,,2,0,1,,,0,,,45,62
124920,note_on,,,,,10,0,1,,,0,,,81,62
124931,note_off,,,,,11,0,1,,,0,,,57,64
124935,note_off,,,,,4,0,1,,,0,,,45,64
124938,control_change,,,,,3,0,1,,,0,64,64,,
124944,control_change,,,,,6,0,1,,,0,64,96,,
124950,control_change,,,,,6,0,1,,,0,64,127,,
125010,note_off,,,,,60,0,1,,,0,,,81,64
125026,note_on,,,,,16,0,1,,,0,,,55,67
125030,note_on,,,,,4,0,1,,,0,,,43,67
125040,note_on,,,,,10,0,1,,,0,,,73,58
125048,note_off,,,,,8,0,1,,,0,,,55,64
125051,note_off,,,,,3,0,1,,,0,,,43,64
125130,note_off,,,,,79,0,1,,,0,,,73,64
125137,control_change,,,,,7,0,1,,,0,64,96,,
125143,control_change,,,,,6,0,1,,,0,64,64,,
125148,note_on,,,,,5,0,1,,,0,,,42,68
125148,note_on,,,,,0,0,1,,,0,,,54,68
125156,control_change,,,,,8,0,1,,,0,64,96,,
125160,note_on,,,,,4,0,1,,,0,,,74,67
125162,control_change,,,,,2,0,1,,,0,64,127,,
125165,note_off,,,,,3,0,1,,,0,,,54,64
125170,note_off,,,,,5,0,1,,,0,,,42,64
125250,note_off,,,,,80,0,1,,,0,,,74,64
125255,control_change,,,,,5,0,1,,,0,64,96,,
125261,control_change,,,,,6,0,1,,,0,64,0,,
125267,note_on,,,,,6,0,1,,,0,,,37,68
125267,note_on,,,,,0,0,1,,,0,,,49,74
125280,note_on,,,,,13,0,1,,,0,,,76,67
125294,control_change,,,,,14,0,1,,,0,64,64,,
125300,control_change,,,,,6,0,1,,,0,64,96,,
125305,control_change,,,,,5,0,1,,,0,64,127,,
125315,note_off,,,,,10,0,1,,,0,,,37,64
125345,note_off,,,,,30,0,1,,,0,,,49,64
125370,note_off,,,,,25,0,1,,,0,,,76,64
125381,control_change,,,,,11,0,1,,,0,64,96,,
125387,control_change,,,,,6,0,1,,,0,64,64,,
125391,note_on,,,,,4,0,1,,,0,,,50,70
125395,control_change,,,,,4,0,1,,,0,64,0,,
125396,note_on,,,,,1,0,1,,,0,,,38,67
125400,note_on,,,,,4,0,1,,,0,,,78,55
125411,control_change,,,,,11,0,1,,,0,64,64,,
125413,note_off,,,,,2,0,1,,,0,,,50,64
125418,control_change,,,,,5,0,1,,,0,64,96,,
125419,note_off,,,,,1,0,1,,,0,,,38,64
125424,control_change,,,,,5,0,1,,,0,64,127,,
125490,note_off,,,,,66,0,1,,,0,,,78,64
125507,control_change,,,,,17,0,1,,,0,64,96,,
125513,control_change,,,,,6,0,1,,,0,64,64,,
125518,control_change,,,,,5,0,1,,,0,64,0,,
125520,note_on,,,,,2,0,1,,,0,,,47,67
125520,note_on,,,,,0,0,1,,,0,,,80,50
125526,note_on,,,,,6,0,1,,,0,,,35,62
125531,control_change,,,,,5,0,1,,,0,64,96,,
125537,control_change,,,,,6,0,1,,,0,64,127,,
125545,note_off,,,,,8,0,1,,,0,,,47,64
125549,note_off,,,,,4,0,1,,,0,,,35,64
125632,control_change,,,,,83,0,1,,,0,64,96,,
125639,control_change,,,,,7,0,1,,,0,64,64,,
125640,note_on,,,,,0,0,1,,,0,,,45,62
125640,note_on,,,,,1,0,1,,,0,,,33,70
125647,control_change,,,,,7,0,1,,,0,64,0,,
125728,note_off,,,,,81,0,1,,,0,,,80,64
125760,note_on,,,,,32,0,1,,,0,,,81,65
126328,note_off,,,,,568,0,1,,,0,,,33,64
126332,note_off,,,,,4,0,1,,,0,,,81,64
126336,note_off,,,,,4,0,1,,,0,,,45,64
126360,note_on,,,,,24,0,1,,,0,,,74,44
126365,note_on,,,,,0,0,1,,,0,,,66,35
126365,note_on,,,,,5,0,1,,,0,,,69,39
126382,note_off,,,,,17,0,1,,,0,,,74,64
126390,note_on,,,,,8,0,1,,,0,,,76,34
126412,note_off,,,,,22,0,1,,,0,,,76,64
126417,note_off,,,,,5,0,1,,,0,,,69,64
126420,note_on,,,,,3,0,1,,,0,,,74,32
126442,note_off,,,,,22,0,1,,,0,,,74,64
126450,note_on,,,,,8,0,1,,,0,,,76,39
126472,note_off,,,,,22,0,1,,,0,,,76,64
126479,note_on,,,,,7,0,1,,,0,,,67,26
126480,note_on,,,,,1,0,1,,,0,,,74,32
126483,note_on,,,,,3,0,1,,,0,,,64,44
126487,note_off,,,,,4,0,1,,,0,,,66,64
126502,note_off,,,,,15,0,1,,,0,,,74,64
126510,note_on,,,,,8,0,1,,,0,,,76,26
126532,note_off,,,,,22,0,1,,,0,,,76,64
126540,note_on,,,,,8,0,1,,,0,,,76,52
126562,note_off,,,,,22,0,1,,,0,,,76,64
126570,note_on,,,,,8,0,1,,,0,,,78,47
126576,note_off,,,,,6,0,1,,,0,,,67,64
126579,note_off,,,,,3,0,1,,,0,,,64,64
126592,note_off,,,,,13,0,1,,,0,,,78,64
126596,note_on,,,,,4,0,1,,,0,,,66,38
126599,note_on,,,,,3,0,1,,,0,,,62,39
126600,note_on,,,,,1,0,1,,,0,,,79,52
126645,note_off,,,,,45,0,1,,,0,,,79,64
126660,note_on,,,,,15,0,1,,,0,,,81,52
126670,note_off,,,,,10,0,1,,,0,,,66,64
126705,note_off,,,,,35,0,1,,,0,,,81,64
126716,note_off,,,,,11,0,1,,,0,,,62,64
126719,note_on,,,,,3,0,1,,,0,,,71,50
126720,note_on,,,,,1,0,1,,,0,,,83,52
126725,note_on,,,,,5,0,1,,,0,,,67,56
126810,note_off,,,,,85,0,1,,,0,,,83,64
126840,note_on,,,,,30,0,1,,,0,,,79,44
126930,note_off,,,,,90,0,1,,,0,,,79,64
126960,note_on,,,,,30,0,1,,,0,,,76,47
126966,note_off,,,,,0,0,1,,,0,,,71,64
126966,note_off,,,,,6,0,1,,,0,,,67,64
127050,note_off,,,,,84,0,1,,,0,,,76,64
127078,note_on,,,,,28,0,1,,,0,,,67,47
127080,note_on,,,,,2,0,1,,,0,,,73,29
127082,note_on,,,,,2,0,1,,,0,,,64,26
127102,note_off,,,,,20,0,1,,,0,,,73,64
127110,note_on,,,,,8,0,1,,,0,,,74,36
127132,note_off,,,,,22,0,1,,,0,,,74,64
127140,note_on,,,,,8,0,1,,,0,,,73,40
127162,note_off,,,,,22,0,1,,,0,,,73,64
127170,note_on,,,,,8,0,1,,,0,,,74,34
127182,note_off,,,,,12,0,1,,,0,,,67,64
127187,note_on,,,,,5,0,1,,,0,,,69,41
127192,note_off,,,,,5,0,1,,,0,,,74,64
127200,note_on,,,,,0,0,1,,,0,,,73,35
127200,note_on,,,,,8,0,1,,,0,,,66,32
127222,note_off,,,,,22,0,1,,,0,,,73,64
127224,note_off,,,,,2,0,1,,,0,,,64,64
127230,note_on,,,,,6,0,1,,,0,,,74,31
127252,note_off,,,,,22,0,1,,,0,,,74,64
127253,note_off,,,,,1,0,1,,,0,,,69,64
127260,note_on,,,,,7,0,1,,,0,,,74,50
127282,note_off,,,,,22,0,1,,,0,,,74,64
127290,note_on,,,,,8,0,1,,,0,,,76,59
127311,note_on,,,,,21,0,1,,,0,,,67,47
127312,note_off,,,,,1,0,1,,,0,,,76,64
127317,note_on,,,,,5,0,1,,,0,,,71,41
127320,note_on,,,,,3,0,1,,,0,,,78,50
127321,note_off,,,,,1,0,1,,,0,,,66,64
127352,note_off,,,,,31,0,1,,,0,,,71,64
127365,note_off,,,,,13,0,1,,,0,,,78,64
127380,note_on,,,,,15,0,1,,,0,,,79,50
127425,note_off,,,,,45,0,1,,,0,,,79,64
127426,note_off,,,,,1,0,1,,,0,,,67,64
127430,note_on,,,,,0,0,1,,,0,,,69,34
127430,note_on,,,,,4,0,1,,,0,,,66,47
127440,note_on,,,,,10,0,1,,,0,,,81,62
127530,note_off,,,,,90,0,1,,,0,,,81,64
127560,note_on,,,,,30,0,1,,,0,,,78,58
127650,note_off,,,,,90,0,1,,,0,,,78,64
127671,note_off,,,,,21,0,1,,,0,,,66,64
127673,note_off,,,,,2,0,1,,,0,,,69,64
127680,note_on,,,,,7,0,1,,,0,,,74,59
127770,note_off,,,,,90,0,1,,,0,,,74,64
127799,note_on,,,,,29,0,1,,,0,,,66,40
127800,note_on,,,,,1,0,1,,,0,,,71,41
127805,note_on,,,,,5,0,1,,,0,,,62,32
127822,note_off,,,,,17,0,1,,,0,,,71,64
127830,note_on,,,,,8,0,1,,,0,,,73,47
127852,note_off,,,,,22,0,1,,,0,,,73,64
127860,note_on,,,,,8,0,1,,,0,,,71,34
127882,note_off,,,,,22,0,1,,,0,,,71,64
127890,note_on,,,,,8,0,1,,,0,,,73,47
127912,note_off,,,,,22,0,1,,,0,,,73,64
127914,note_on,,,,,0,0,1,,,0,,,64,49
127914,note_off,,,,,0,0,1,,,0,,,66,64
127914,note_off,,,,,2,0,1,,,0,,,62,64
127920,note_on,,,,,6,0,1,,,0,,,71,32
127921,note_on,,,,,1,0,1,,,0,,,67,41
127942,note_off,,,,,21,0,1,,,0,,,71,64
127950,note_on,,,,,8,0,1,,,0,,,73,40
127972,note_off,,,,,22,0,1,,,0,,,73,64
127980,note_on,,,,,8,0,1,,,0,,,73,58
128002,note_off,,,,,22,0,1,,,0,,,73,64
128010,note_on,,,,,8,0,1,,,0,,,74,59
128029,note_on,,,,,19,0,1,,,0,,,69,39
128032,note_off,,,,,3,0,1,,,0,,,74,64
128034,note_off,,,,,2,0,1,,,0,,,67,64
128034,note_on,,,,,0,0,1,,,0,,,66,50
128040,note_on,,,,,6,0,1,,,0,,,76,52
128042,note_off,,,,,2,0,1,,,0,,,64,64
128085,note_off,,,,,43,0,1,,,0,,,76,64
128100,note_on,,,,,15,0,1,,,0,,,78,58
128141,note_off,,,,,41,0,1,,,0,,,66,64
128145,note_off,,,,,4,0,1,,,0,,,78,64
128150,note_off,,,,,5,0,1,,,0,,,69,64
128155,note_on,,,,,0,0,1,,,0,,,67,36
128155,note_on,,,,,5,0,1,,,0,,,64,40
128160,note_on,,,,,5,0,1,,,0,,,79,67
128250,note_off,,,,,90,0,1,,,0,,,79,64
128280,note_on,,,,,30,0,1,,,0,,,76,50
128370,note_off,,,,,90,0,1,,,0,,,76,64
128378,note_off,,,,,8,0,1,,,0,,,67,64
128381,note_off,,,,,3,0,1,,,0,,,64,64
128400,note_on,,,,,19,0,1,,,0,,,73,40
128490,note_off,,,,,90,0,1,,,0,,,73,64
128514,note_on,,,,,24,0,1,,,0,,,61,44
128519,note_on,,,,,5,0,1,,,0,,,64,34
128520,note_on,,,,,1,0,1,,,0,,,69,41
128542,note_off,,,,,22,0,1,,,0,,,69,64
128550,note_on,,,,,8,0,1,,,0,,,71,32
128572,note_off,,,,,22,0,1,,,0,,,71,64
128580,note_on,,,,,8,0,1,,,0,,,69,32
128602,note_off,,,,,22,0,1,,,0,,,69,64
128610,note_on,,,,,8,0,1,,,0,,,71,29
128629,note_off,,,,,19,0,1,,,0,,,61,64
128632,note_off,,,,,3,0,1,,,0,,,71,64
128640,note_off,,,,,8,0,1,,,0,,,64,64
128640,note_on,,,,,0,0,1,,,0,,,69,25
128643,note_on,,,,,0,0,1,,,0,,,66,44
128643,note_on,,,,,3,0,1,,,0,,,62,39
128662,note_off,,,,,19,0,1,,,0,,,69,64
128670,note_on,,,,,8,0,1,,,0,,,71,20
128692,note_off,,,,,22,0,1,,,0,,,71,64
128700,note_on,,,,,8,0,1,,,0,,,71,50
128722,note_off,,,,,22,0,1,,,0,,,71,64
128730,note_on,,,,,8,0,1,,,0,,,73,63
128752,note_off,,,,,22,0,1,,,0,,,73,64
128756,note_on,,,,,0,0,1,,,0,,,67,32
128756,note_off,,,,,4,0,1,,,0,,,62,64
128760,note_on,,,,,4,0,1,,,0,,,64,44
128760,note_on,,,,,0,0,1,,,0,,,74,52
128772,note_off,,,,,12,0,1,,,0,,,66,64
128782,note_off,,,,,10,0,1,,,0,,,67,64
128787,note_off,,,,,5,0,1,,,0,,,64,64
128805,note_off,,,,,18,0,1,,,0,,,74,64
128820,note_on,,,,,15,0,1,,,0,,,76,56
128865,note_off,,,,,45,0,1,,,0,,,76,64
128880,note_on,,,,,15,0,1,,,0,,,78,50
128887,note_on,,,,,7,0,1,,,0,,,50,50
128970,note_off,,,,,83,0,1,,,0,,,78,64
129000,note_on,,,,,30,0,1,,,0,,,66,40
129006,note_off,,,,,6,0,1,,,0,,,50,64
129006,note_on,,,,,0,0,1,,,0,,,62,52
129045,note_off,,,,,39,0,1,,,0,,,66,64
129060,note_on,,,,,15,0,1,,,0,,,66,40
129105,note_off,,,,,45,0,1,,,0,,,66,64
129120,note_on,,,,,15,0,1,,,0,,,66,32
129126,note_on,,,,,6,0,1,,,0,,,61,44
129129,control_change,,,,,3,0,1,,,0,64,64,,
129133,note_off,,,,,4,0,1,,,0,,,62,64
129165,note_off,,,,,32,0,1,,,0,,,66,64
129180,note_on,,,,,15,0,1,,,0,,,66,19
129225,note_off,,,,,45,0,1,,,0,,,66,64
129239,control_change,,,,,14,0,1,,,0,64,0,,
129240,note_on,,,,,0,0,1,,,0,,,66,44
129240,note_off,,,,,1,0,1,,,0,,,61,64
129245,note_on,,,,,5,0,1,,,0,,,59,51
129285,note_off,,,,,40,0,1,,,0,,,66,64
129300,note_on,,,,,15,0,1,,,0,,,66,38
129345,note_off,,,,,45,0,1,,,0,,,66,64
129350,note_off,,,,,5,0,1,,,0,,,59,64
129360,note_on,,,,,0,0,1,,,0,,,66,44
129360,note_on,,,,,10,0,1,,,0,,,62,44
129405,note_off,,,,,45,0,1,,,0,,,66,64
129420,note_on,,,,,15,0,1,,,0,,,66,29
129465,note_off,,,,,45,0,1,,,0,,,66,64
129469,note_on,,,,,4,0,1,,,0,,,57,52
129477,note_off,,,,,8,0,1,,,0,,,62,64
129480,note_on,,,,,3,0,1,,,0,,,66,35
129525,note_off,,,,,45,0,1,,,0,,,66,64
129540,note_on,,,,,15,0,1,,,0,,,66,47
129585,note_off,,,,,45,0,1,,,0,,,66,64
129595,note_off,,,,,10,0,1,,,0,,,57,64
129595,note_on,,,,,0,0,1,,,0,,,55,52
129600,note_on,,,,,5,0,1,,,0,,,71,41
129645,note_off,,,,,45,0,1,,,0,,,71,64
129660,note_on,,,,,15,0,1,,,0,,,71,39
129705,note_off,,,,,45,0,1,,,0,,,71,64
129714,note_off,,,,,9,0,1,,,0,,,55,64
129720,note_on,,,,,0,0,1,,,0,,,71,41
129720,note_on,,,,,6,0,1,,,0,,,62,32
129730,control_change,,,,,10,0,1,,,0,64,64,,
129765,note_off,,,,,35,0,1,,,0,,,71,64
129780,note_on,,,,,15,0,1,,,0,,,71,39
129825,note_off,,,,,45,0,1,,,0,,,71,64
129840,note_on,,,,,15,0,1,,,0,,,54,38
129840,note_on,,,,,0,0,1,,,0,,,71,36
129845,note_off,,,,,5,0,1,,,0,,,62,64
129885,note_off,,,,,40,0,1,,,0,,,71,64
129891,control_change,,,,,6,0,1,,,0,64,0,,
129900,note_on,,,,,9,0,1,,,0,,,71,34
129945,note_off,,,,,45,0,1,,,0,,,71,64
129960,note_off,,,,,15,0,1,,,0,,,54,64
129960,note_on,,,,,0,0,1,,,0,,,71,39
129967,note_on,,,,,7,0,1,,,0,,,52,59
129985,control_change,,,,,18,0,1,,,0,64,64,,
130005,note_off,,,,,20,0,1,,,0,,,71,64
130009,control_change,,,,,4,0,1,,,0,64,96,,
130020,note_on,,,,,11,0,1,,,0,,,71,34
130065,note_off,,,,,45,0,1,,,0,,,71,64
130080,note_on,,,,,15,0,1,,,0,,,71,39
130081,note_off,,,,,1,0,1,,,0,,,52,64
130088,note_on,,,,,7,0,1,,,0,,,64,40
130125,note_off,,,,,37,0,1,,,0,,,71,64
130126,note_off,,,,,1,0,1,,,0,,,64,64
130140,note_on,,,,,14,0,1,,,0,,,71,34
130185,note_off,,,,,45,0,1,,,0,,,71,64
130194,note_on,,,,,9,0,1,,,0,,,50,47
130200,note_on,,,,,6,0,1,,,0,,,71,39
130217,note_off,,,,,17,0,1,,,0,,,50,64
130245,note_off,,,,,28,0,1,,,0,,,71,64
130260,note_on,,,,,15,0,1,,,0,,,71,41
130282,control_change,,,,,22,0,1,,,0,64,64,,
130293,control_change,,,,,11,0,1,,,0,64,0,,
130305,note_off,,,,,12,0,1,,,0,,,71,64
130313,note_on,,,,,8,0,1,,,0,,,49,63
130320,note_on,,,,,7,0,1,,,0,,,76,47
130351,control_change,,,,,31,0,1,,,0,64,64,,
130362,control_change,,,,,11,0,1,,,0,64,96,,
130365,note_off,,,,,3,0,1,,,0,,,76,64
130380,note_on,,,,,15,0,1,,,0,,,76,41
130425,note_off,,,,,45,0,1,,,0,,,76,64
130429,note_on,,,,,0,0,1,,,0,,,61,54
130429,note_off,,,,,4,0,1,,,0,,,49,64
130440,note_on,,,,,11,0,1,,,0,,,76,41
130485,note_off,,,,,45,0,1,,,0,,,76,64
130500,note_on,,,,,15,0,1,,,0,,,76,34
130545,note_off,,,,,45,0,1,,,0,,,76,64
130559,note_on,,,,,14,0,1,,,0,,,59,48
130560,note_on,,,,,1,0,1,,,0,,,76,50
130565,note_off,,,,,5,0,1,,,0,,,61,64
130605,note_off,,,,,40,0,1,,,0,,,76,64
130620,note_on,,,,,15,0,1,,,0,,,76,34
130664,control_change,,,,,44,0,1,,,0,64,64,,
130665,note_off,,,,,1,0,1,,,0,,,76,64
130676,control_change,,,,,11,0,1,,,0,64,0,,
130680,note_on,,,,,4,0,1,,,0,,,76,36
130681,note_on,,,,,1,0,1,,,0,,,57,52
130687,note_off,,,,,6,0,1,,,0,,,59,64
130725,note_off,,,,,38,0,1,,,0,,,76,64
130732,control_change,,,,,7,0,1,,,0,64,64,,
130740,note_on,,,,,8,0,1,,,0,,,76,41
130748,control_change,,,,,8,0,1,,,0,64,96,,
130785,note_off,,,,,37,0,1,,,0,,,76,64
130797,note_off,,,,,12,0,1,,,0,,,57,64
130800,note_on,,,,,3,0,1,,,0,,,76,34
130807,note_on,,,,,7,0,1,,,0,,,64,44
130845,note_off,,,,,38,0,1,,,0,,,76,64
130860,note_on,,,,,15,0,1,,,0,,,76,34
130905,note_off,,,,,45,0,1,,,0,,,76,64
130920,note_on,,,,,0,0,1,,,0,,,76,34
130920,note_on,,,,,15,0,1,,,0,,,55,47
130938,note_off,,,,,18,0,1,,,0,,,64,64
130965,note_off,,,,,27,0,1,,,0,,,76,64
130980,note_on,,,,,15,0,1,,,0,,,76,32
130986,control_change,,,,,6,0,1,,,0,64,64,,
130992,control_change,,,,,6,0,1,,,0,64,0,,
131025,note_off,,,,,33,0,1,,,0,,,76,64
131032,note_off,,,,,7,0,1,,,0,,,55,64
131036,note_on,,,,,4,0,1,,,0,,,54,63
131040,note_on,,,,,4,0,1,,,0,,,81,52
131043,control_change,,,,,3,0,1,,,0,64,64,,
131051,control_change,,,,,8,0,1,,,0,64,96,,
131064,note_off,,,,,13,0,1,,,0,,,54,64
131076,control_change,,,,,12,0,1,,,0,64,127,,
131085,note_off,,,,,9,0,1,,,0,,,81,64
131100,note_on,,,,,15,0,1,,,0,,,81,44
131145,note_off,,,,,45,0,1,,,0,,,81,64
131149,note_on,,,,,4,0,1,,,0,,,54,63
131149,note_on,,,,,0,0,1,,,0,,,66,44
131160,note_on,,,,,11,0,1,,,0,,,81,44
131170,note_off,,,,,10,0,1,,,0,,,66,64
131179,note_off,,,,,9,0,1,,,0,,,54,64
131205,note_off,,,,,26,0,1,,,0,,,81,64
131220,note_on,,,,,15,0,1,,,0,,,81,41
131265,note_off,,,,,45,0,1,,,0,,,81,64
131269,note_on,,,,,4,0,1,,,0,,,64,60
131273,note_on,,,,,4,0,1,,,0,,,52,59
131280,note_on,,,,,7,0,1,,,0,,,81,41
131292,note_off,,,,,12,0,1,,,0,,,64,64
131294,note_off,,,,,2,0,1,,,0,,,52,64
131325,note_off,,,,,31,0,1,,,0,,,81,64
131340,note_on,,,,,15,0,1,,,0,,,81,44
131369,control_change,,,,,29,0,1,,,0,64,96,,
131376,control_change,,,,,7,0,1,,,0,64,64,,
131382,control_change,,,,,6,0,1,,,0,64,0,,
131385,note_off,,,,,3,0,1,,,0,,,81,64
131388,note_on,,,,,3,0,1,,,0,,,62,56
131392,note_on,,,,,4,0,1,,,0,,,50,56
131400,note_on,,,,,8,0,1,,,0,,,81,47
131419,note_off,,,,,19,0,1,,,0,,,62,64
131422,control_change,,,,,3,0,1,,,0,64,64,,
131427,control_change,,,,,5,0,1,,,0,64,96,,
131430,note_off,,,,,3,0,1,,,0,,,50,64
131445,note_off,,,,,15,0,1,,,0,,,81,64
131460,note_on,,,,,15,0,1,,,0,,,81,50
131505,note_off,,,,,45,0,1,,,0,,,81,64
131511,note_on,,,,,0,0,1,,,0,,,50,62
131511,note_on,,,,,6,0,1,,,0,,,62,59
131520,note_on,,,,,9,0,1,,,0,,,81,39
131534,note_off,,,,,14,0,1,,,0,,,62,64
131540,note_off,,,,,6,0,1,,,0,,,50,64
131565,note_off,,,,,25,0,1,,,0,,,81,64
131580,note_on,,,,,15,0,1,,,0,,,81,41
131614,control_change,,,,,34,0,1,,,0,64,64,,
131625,note_off,,,,,11,0,1,,,0,,,81,64
131630,note_on,,,,,5,0,1,,,0,,,61,67
131633,note_on,,,,,3,0,1,,,0,,,49,63
131640,note_on,,,,,0,0,1,,,0,,,81,36
131640,control_change,,,,,7,0,1,,,0,64,96,,
131652,note_off,,,,,12,0,1,,,0,,,61,64
131657,note_off,,,,,5,0,1,,,0,,,49,64
131685,note_off,,,,,28,0,1,,,0,,,81,64
131700,note_on,,,,,15,0,1,,,0,,,81,44
131717,control_change,,,,,17,0,1,,,0,64,64,,
131723,control_change,,,,,6,0,1,,,0,64,0,,
131745,note_off,,,,,22,0,1,,,0,,,81,64
131748,note_on,,,,,0,0,1,,,0,,,59,66
131748,note_on,,,,,3,0,1,,,0,,,47,62
131760,note_on,,,,,12,0,1,,,0,,,86,62
131767,control_change,,,,,7,0,1,,,0,64,64,,
131771,note_off,,,,,4,0,1,,,0,,,59,64
131773,control_change,,,,,2,0,1,,,0,64,96,,
131779,note_off,,,,,6,0,1,,,0,,,47,64
131805,note_off,,,,,26,0,1,,,0,,,86,64
131820,note_on,,,,,15,0,1,,,0,,,85,52
131823,control_change,,,,,3,0,1,,,0,64,127,,
131848,control_change,,,,,25,0,1,,,0,64,96,,
131858,control_change,,,,,10,0,1,,,0,64,64,,
131865,note_off,,,,,7,0,1,,,0,,,85,64
131867,note_on,,,,,2,0,1,,,0,,,43,70
131871,note_on,,,,,4,0,1,,,0,,,55,67
131876,note_on,,,,,5,0,1,,,0,,,83,55
131877,control_change,,,,,1,0,1,,,0,64,96,,
131889,note_off,,,,,12,0,1,,,0,,,43,64
131892,note_off,,,,,3,0,1,,,0,,,55,64
131905,control_change,,,,,13,0,1,,,0,64,127,,
131921,note_off,,,,,16,0,1,,,0,,,83,64
131940,note_on,,,,,19,0,1,,,0,,,81,47
131964,control_change,,,,,24,0,1,,,0,64,96,,
131973,control_change,,,,,9,0,1,,,0,64,64,,
131979,control_change,,,,,6,0,1,,,0,64,0,,
131985,note_off,,,,,6,0,1,,,0,,,81,64
131989,note_on,,,,,4,0,1,,,0,,,47,59
131989,note_on,,,,,0,0,1,,,0,,,59,66
132000,note_on,,,,,11,0,1,,,0,,,79,44
132005,control_change,,,,,5,0,1,,,0,64,64,,
132012,control_change,,,,,7,0,1,,,0,64,96,,
132016,note_off,,,,,4,0,1,,,0,,,59,64
132019,note_off,,,,,3,0,1,,,0,,,47,64
132023,control_change,,,,,4,0,1,,,0,64,127,,
132045,note_off,,,,,22,0,1,,,0,,,79,64
132060,note_on,,,,,15,0,1,,,0,,,78,35
132089,control_change,,,,,29,0,1,,,0,64,96,,
132095,control_change,,,,,6,0,1,,,0,64,64,,
132104,control_change,,,,,9,0,1,,,0,64,0,,
132105,note_off,,,,,1,0,1,,,0,,,78,64
132114,note_on,,,,,9,0,1,,,0,,,61,62
132118,note_on,,,,,4,0,1,,,0,,,49,58
132120,note_on,,,,,2,0,1,,,0,,,76,50
132138,control_change,,,,,18,0,1,,,0,64,64,,
132140,note_off,,,,,2,0,1,,,0,,,61,64
132145,control_change,,,,,5,0,1,,,0,64,96,,
132147,note_off,,,,,2,0,1,,,0,,,49,64
132165,note_off,,,,,18,0,1,,,0,,,76,64
132180,note_on,,,,,15,0,1,,,0,,,74,52
132201,control_change,,,,,21,0,1,,,0,64,64,,
132210,control_change,,,,,9,0,1,,,0,64,0,,
132225,note_off,,,,,15,0,1,,,0,,,74,64
132236,note_on,,,,,11,0,1,,,0,,,45,67
132239,note_on,,,,,3,0,1,,,0,,,57,59
132240,note_on,,,,,1,0,1,,,0,,,73,50
132249,control_change,,,,,9,0,1,,,0,64,64,,
132255,control_change,,,,,6,0,1,,,0,64,96,,
132257,note_off,,,,,2,0,1,,,0,,,45,64
132261,note_off,,,,,4,0,1,,,0,,,57,64
132285,note_off,,,,,24,0,1,,,0,,,73,64
132300,note_on,,,,,15,0,1,,,0,,,71,44
132345,note_off,,,,,45,0,1,,,0,,,71,64
132355,note_on,,,,,10,0,1,,,0,,,49,68
132355,note_on,,,,,0,0,1,,,0,,,61,62
132360,note_on,,,,,5,0,1,,,0,,,69,41
132379,note_off,,,,,19,0,1,,,0,,,61,64
132382,note_off,,,,,3,0,1,,,0,,,49,64
132405,note_off,,,,,23,0,1,,,0,,,69,64
132420,note_on,,,,,15,0,1,,,0,,,67,41
132459,control_change,,,,,39,0,1,,,0,64,64,,
132465,note_off,,,,,6,0,1,,,0,,,67,64
132466,control_change,,,,,1,0,1,,,0,64,0,,
132480,note_on,,,,,0,0,1,,,0,,,66,55
132480,note_on,,,,,14,0,1,,,0,,,62,56
132486,note_on,,,,,6,0,1,,,0,,,50,62
132514,control_change,,,,,28,0,1,,,0,64,64,,
132521,control_change,,,,,7,0,1,,,0,64,96,,
132525,note_off,,,,,4,0,1,,,0,,,66,64
132540,note_on,,,,,15,0,1,,,0,,,67,50
132585,note_off,,,,,45,0,1,,,0,,,67,64
132599,control_change,,,,,14,0,1,,,0,64,64,,
132600,note_on,,,,,1,0,1,,,0,,,69,56
132645,note_off,,,,,45,0,1,,,0,,,69,64
132660,note_on,,,,,15,0,1,,,0,,,66,55
132703,note_off,,,,,43,0,1,,,0,,,62,64
132705,note_off,,,,,2,0,1,,,0,,,66,64
132719,control_change,,,,,14,0,1,,,0,64,0,,
132720,note_on,,,,,1,0,1,,,0,,,54,55
132720,note_on,,,,,0,0,1,,,0,,,64,47
132736,note_off,,,,,16,0,1,,,0,,,50,64
132765,note_off,,,,,29,0,1,,,0,,,64,64
132780,note_on,,,,,15,0,1,,,0,,,62,44
132825,note_off,,,,,45,0,1,,,0,,,62,64
132840,note_on,,,,,15,0,1,,,0,,,64,49
132843,note_on,,,,,3,0,1,,,0,,,55,59
132855,note_off,,,,,12,0,1,,,0,,,54,64
132885,note_off,,,,,30,0,1,,,0,,,64,64
132900,note_on,,,,,15,0,1,,,0,,,67,50
132945,note_off,,,,,45,0,1,,,0,,,67,64
132949,note_off,,,,,4,0,1,,,0,,,55,64
132956,note_on,,,,,7,0,1,,,0,,,57,56
132960,note_on,,,,,4,0,1,,,0,,,66,44
133005,note_off,,,,,45,0,1,,,0,,,66,64
133020,note_on,,,,,15,0,1,,,0,,,64,47
133065,note_off,,,,,45,0,1,,,0,,,64,64
133077,note_on,,,,,12,0,1,,,0,,,45,52
133080,note_on,,,,,3,0,1,,,0,,,62,50
133082,note_off,,,,,2,0,1,,,0,,,57,64
133125,note_off,,,,,43,0,1,,,0,,,62,64
133140,note_on,,,,,15,0,1,,,0,,,61,44
133185,note_off,,,,,45,0,1,,,0,,,61,64
133197,note_on,,,,,12,0,1,,,0,,,50,52
133206,note_on,,,,,9,0,1,,,0,,,62,70
133209,note_off,,,,,3,0,1,,,0,,,45,64
133214,note_on,,,,,5,0,1,,,0,,,50,56
133234,control_change,,,,,20,0,1,,,0,64,64,,
133239,control_change,,,,,5,0,1,,,0,64,127,,
133248,note_off,,,,,9,0,1,,,0,,,62,64
133307,note_off,,,,,59,0,1,,,0,,,50,64
133324,note_on,,,,,17,0,1,,,0,,,62,52
133356,note_off,,,,,32,0,1,,,0,,,50,64
133436,note_on,,,,,0,0,1,,,0,,,50,52
133436,note_off,,,,,80,0,1,,,0,,,62,64
133440,note_on,,,,,0,0,1,,,0,,,78,63
133440,note_on,,,,,4,0,1,,,0,,,74,59
133448,note_off,,,,,8,0,1,,,0,,,50,64
133457,note_off,,,,,9,0,1,,,0,,,78,64
133459,note_off,,,,,2,0,1,,,0,,,74,64
133531,control_change,,,,,72,0,1,,,0,64,96,,
133536,control_change,,,,,5,0,1,,,0,64,64,,
133542,control_change,,,,,6,0,1,,,0,64,0,,
133556,note_on,,,,,14,0,1,,,0,,,76,80
133556,note_on,,,,,0,0,1,,,0,,,45,70
133561,note_on,,,,,5,0,1,,,0,,,69,70
133568,control_change,,,,,7,0,1,,,0,64,96,,
133573,control_change,,,,,5,0,1,,,0,64,127,,
133575,note_off,,,,,2,0,1,,,0,,,69,64
133581,note_off,,,,,6,0,1,,,0,,,76,64
133669,note_on,,,,,0,0,1,,,0,,,76,67
133669,note_off,,,,,88,0,1,,,0,,,45,64
133674,note_on,,,,,5,0,1,,,0,,,69,47
133679,note_on,,,,,5,0,1,,,0,,,57,39
133686,note_off,,,,,7,0,1,,,0,,,69,64
133719,note_off,,,,,33,0,1,,,0,,,76,64
133791,note_on,,,,,72,0,1,,,0,,,66,44
133795,note_off,,,,,4,0,1,,,0,,,57,64
133795,note_on,,,,,0,0,1,,,0,,,74,59
133796,note_on,,,,,1,0,1,,,0,,,50,41
133805,note_off,,,,,9,0,1,,,0,,,66,64
133834,note_off,,,,,29,0,1,,,0,,,74,64
133896,control_change,,,,,62,0,1,,,0,64,96,,
133901,control_change,,,,,5,0,1,,,0,64,64,,
133910,note_on,,,,,0,0,1,,,0,,,69,62
133910,note_off,,,,,9,0,1,,,0,,,50,64
133910,note_on,,,,,0,0,1,,,0,,,76,70
133918,note_on,,,,,8,0,1,,,0,,,45,56
133921,control_change,,,,,3,0,1,,,0,64,127,,
133925,note_off,,,,,4,0,1,,,0,,,69,64
133933,note_off,,,,,8,0,1,,,0,,,76,64
134031,note_on,,,,,98,0,1,,,0,,,57,41
134031,note_on,,,,,0,0,1,,,0,,,78,74
134036,note_on,,,,,5,0,1,,,0,,,74,62
134046,note_off,,,,,10,0,1,,,0,,,74,64
134060,note_off,,,,,14,0,1,,,0,,,78,64
134118,note_off,,,,,58,0,1,,,0,,,45,64
134142,note_on,,,,,24,0,1,,,0,,,76,67
134146,note_on,,,,,0,0,1,,,0,,,50,52
134146,note_on,,,,,0,0,1,,,0,,,79,67
134146,note_off,,,,,4,0,1,,,0,,,57,64
134154,note_off,,,,,8,0,1,,,0,,,50,64
134169,note_off,,,,,15,0,1,,,0,,,76,64
134229,control_change,,,,,60,0,1,,,0,64,96,,
134234,control_change,,,,,5,0,1,,,0,64,64,,
134240,control_change,,,,,6,0,1,,,0,64,0,,
134258,note_off,,,,,18,0,1,,,0,,,79,64
134262,note_on,,,,,4,0,1,,,0,,,78,80
134267,note_on,,,,,0,0,1,,,0,,,50,70
134267,note_on,,,,,5,0,1,,,0,,,74,67
134272,control_change,,,,,5,0,1,,,0,64,127,,
134281,note_off,,,,,9,0,1,,,0,,,74,64
134284,note_off,,,,,3,0,1,,,0,,,78,64
134385,note_on,,,,,101,0,1,,,0,,,78,68
134389,note_off,,,,,4,0,1,,,0,,,50,64
134390,note_on,,,,,1,0,1,,,0,,,74,50
134392,note_on,,,,,2,0,1,,,0,,,62,34
134410,note_off,,,,,18,0,1,,,0,,,74,64
134420,note_off,,,,,10,0,1,,,0,,,78,64
134506,note_on,,,,,86,0,1,,,0,,,76,75
134510,note_on,,,,,4,0,1,,,0,,,57,47
134510,note_on,,,,,0,0,1,,,0,,,69,67
134521,note_off,,,,,11,0,1,,,0,,,62,64
134524,note_off,,,,,3,0,1,,,0,,,69,64
134533,note_off,,,,,9,0,1,,,0,,,76,64
134614,control_change,,,,,81,0,1,,,0,64,96,,
134620,control_change,,,,,6,0,1,,,0,64,64,,
134627,note_off,,,,,7,0,1,,,0,,,57,64
134632,control_change,,,,,5,0,1,,,0,64,96,,
134633,note_on,,,,,1,0,1,,,0,,,74,56
134633,note_on,,,,,0,0,1,,,0,,,50,56
134633,note_on,,,,,0,0,1,,,0,,,66,55
134641,control_change,,,,,8,0,1,,,0,64,127,,
134647,note_off,,,,,6,0,1,,,0,,,66,64
134690,note_off,,,,,43,0,1,,,0,,,74,64
134746,note_on,,,,,56,0,1,,,0,,,76,70
134749,note_off,,,,,3,0,1,,,0,,,50,64
134749,note_on,,,,,0,0,1,,,0,,,69,56
134758,note_on,,,,,9,0,1,,,0,,,57,52
134761,note_off,,,,,3,0,1,,,0,,,69,64
134768,note_off,,,,,7,0,1,,,0,,,76,64
134863,note_on,,,,,95,0,1,,,0,,,78,68
134867,note_on,,,,,0,0,1,,,0,,,74,50
134867,note_off,,,,,4,0,1,,,0,,,57,64
134871,note_on,,,,,4,0,1,,,0,,,50,56
134876,note_off,,,,,5,0,1,,,0,,,50,64
134882,note_off,,,,,6,0,1,,,0,,,74,64
134887,note_off,,,,,5,0,1,,,0,,,78,64
134967,control_change,,,,,80,0,1,,,0,64,96,,
134973,control_change,,,,,6,0,1,,,0,64,0,,
134982,note_on,,,,,9,0,1,,,0,,,76,80
134985,note_on,,,,,3,0,1,,,0,,,69,70
134985,note_on,,,,,0,0,1,,,0,,,45,75
134999,control_change,,,,,14,0,1,,,0,64,96,,
135001,note_off,,,,,2,0,1,,,0,,,69,64
135006,control_change,,,,,5,0,1,,,0,64,127,,
135008,note_off,,,,,2,0,1,,,0,,,76,64
135107,note_on,,,,,0,0,1,,,0,,,69,47
135107,note_on,,,,,99,0,1,,,0,,,76,67
135111,note_on,,,,,0,0,1,,,0,,,57,47
135111,note_off,,,,,4,0,1,,,0,,,45,64
135121,note_off,,,,,10,0,1,,,0,,,69,64
135161,note_off,,,,,40,0,1,,,0,,,76,64
135220,note_on,,,,,59,0,1,,,0,,,66,50
135224,note_on,,,,,4,0,1,,,0,,,74,62
135228,note_on,,,,,4,0,1,,,0,,,50,52
135233,note_off,,,,,5,0,1,,,0,,,57,64
135243,note_off,,,,,10,0,1,,,0,,,66,64
135268,note_off,,,,,25,0,1,,,0,,,74,64
135343,control_change,,,,,75,0,1,,,0,64,96,,
135346,note_on,,,,,0,0,1,,,0,,,76,70
135346,note_off,,,,,3,0,1,,,0,,,50,64
135349,control_change,,,,,3,0,1,,,0,64,64,,
135351,note_on,,,,,2,0,1,,,0,,,45,62
135351,note_on,,,,,0,0,1,,,0,,,69,56
135362,control_change,,,,,11,0,1,,,0,64,96,,
135368,control_change,,,,,6,0,1,,,0,64,127,,
135373,note_off,,,,,5,0,1,,,0,,,69,64
135383,note_off,,,,,10,0,1,,,0,,,76,64
135462,note_on,,,,,79,0,1,,,0,,,74,52
135466,note_on,,,,,0,0,1,,,0,,,57,36
135466,note_on,,,,,4,0,1,,,0,,,78,63
135470,note_off,,,,,4,0,1,,,0,,,45,64
135494,note_off,,,,,24,0,1,,,0,,,74,64
135498,note_off,,,,,4,0,1,,,0,,,78,64
135582,note_off,,,,,84,0,1,,,0,,,57,64
135585,note_on,,,,,0,0,1,,,0,,,76,59
135585,note_on,,,,,3,0,1,,,0,,,50,56
135585,note_on,,,,,0,0,1,,,0,,,79,59
135595,note_off,,,,,10,0,1,,,0,,,50,64
135658,note_off,,,,,63,0,1,,,0,,,76,64
135680,control_change,,,,,22,0,1,,,0,64,96,,
135686,control_change,,,,,6,0,1,,,0,64,0,,
135706,note_off,,,,,20,0,1,,,0,,,79,64
135710,note_on,,,,,4,0,1,,,0,,,78,74
135713,note_on,,,,,3,0,1,,,0,,,74,56
135717,note_on,,,,,4,0,1,,,0,,,38,70
135722,control_change,,,,,5,0,1,,,0,64,127,,
135730,note_off,,,,,0,0,1,,,0,,,74,64
135730,note_off,,,,,8,0,1,,,0,,,78,64
135838,note_on,,,,,0,0,1,,,0,,,74,59
135838,note_on,,,,,108,0,1,,,0,,,50,44
135843,note_on,,,,,0,0,1,,,0,,,78,68
135843,note_off,,,,,5,0,1,,,0,,,38,64
135862,note_off,,,,,19,0,1,,,0,,,74,64
135865,note_off,,,,,3,0,1,,,0,,,78,64
135955,note_on,,,,,90,0,1,,,0,,,76,70
135959,note_on,,,,,4,0,1,,,0,,,69,50
135963,note_on,,,,,4,0,1,,,0,,,45,41
135968,note_off,,,,,5,0,1,,,0,,,50,64
135974,note_off,,,,,6,0,1,,,0,,,69,64
136008,note_off,,,,,34,0,1,,,0,,,76,64
136023,note_off,,,,,15,0,1,,,0,,,45,64
136057,control_change,,,,,34,0,1,,,0,64,96,,
136065,control_change,,,,,8,0,1,,,0,64,64,,
136071,control_change,,,,,6,0,1,,,0,64,0,,
136080,note_on,,,,,9,0,1,,,0,,,74,70
136083,note_on,,,,,3,0,1,,,0,,,38,59
136115,control_change,,,,,32,0,1,,,0,64,64,,
136124,control_change,,,,,9,0,1,,,0,64,96,,
136140,control_change,,,,,16,0,1,,,0,64,127,,
136142,note_on,,,,,2,0,1,,,0,,,69,56
136147,note_off,,,,,5,0,1,,,0,,,74,64
136199,note_on,,,,,52,0,1,,,0,,,66,47
136223,note_off,,,,,24,0,1,,,0,,,69,64
136259,note_on,,,,,36,0,1,,,0,,,62,39
136263,note_off,,,,,4,0,1,,,0,,,66,64
136320,note_on,,,,,57,0,1,,,0,,,81,67
136328,note_on,,,,,8,0,1,,,0,,,66,47
136378,note_off,,,,,50,0,1,,,0,,,62,64
136381,note_on,,,,,3,0,1,,,0,,,74,56
136386,note_off,,,,,5,0,1,,,0,,,66,64
136400,note_off,,,,,14,0,1,,,0,,,74,64
136410,note_off,,,,,10,0,1,,,0,,,81,64
136438,note_on,,,,,28,0,1,,,0,,,45,67
136438,note_on,,,,,0,0,1,,,0,,,76,67
136442,note_off,,,,,4,0,1,,,0,,,38,64
136445,control_change,,,,,3,0,1,,,0,64,64,,
136450,control_change,,,,,5,0,1,,,0,64,0,,
136490,control_change,,,,,40,0,1,,,0,64,64,,
136495,control_change,,,,,5,0,1,,,0,64,96,,
136499,note_on,,,,,4,0,1,,,0,,,73,58
136503,control_change,,,,,4,0,1,,,0,64,127,,
136508,note_off,,,,,5,0,1,,,0,,,76,64
136564,note_on,,,,,56,0,1,,,0,,,67,56
136570,note_off,,,,,6,0,1,,,0,,,73,64
136620,note_on,,,,,50,0,1,,,0,,,64,52
136625,note_off,,,,,5,0,1,,,0,,,67,64
136679,note_on,,,,,54,0,1,,,0,,,67,62
136680,note_on,,,,,1,0,1,,,0,,,81,70
136691,note_off,,,,,11,0,1,,,0,,,64,64
136733,note_on,,,,,42,0,1,,,0,,,73,63
136743,note_off,,,,,10,0,1,,,0,,,67,64
136767,note_off,,,,,24,0,1,,,0,,,73,64
136770,note_off,,,,,3,0,1,,,0,,,81,64
136793,control_change,,,,,23,0,1,,,0,64,96,,
136796,note_on,,,,,3,0,1,,,0,,,74,67
136800,control_change,,,,,4,0,1,,,0,64,0,,
136802,note_on,,,,,0,0,1,,,0,,,38,67
136802,note_off,,,,,2,0,1,,,0,,,45,64
136840,control_change,,,,,38,0,1,,,0,64,64,,
136845,control_change,,,,,5,0,1,,,0,64,96,,
136850,control_change,,,,,5,0,1,,,0,64,127,,
136856,note_on,,,,,6,0,1,,,0,,,69,59
136869,note_off,,,,,13,0,1,,,0,,,74,64
136919,note_on,,,,,50,0,1,,,0,,,66,58
136948,note_off,,,,,29,0,1,,,0,,,69,64
136979,note_on,,,,,31,0,1,,,0,,,62,34
136984,note_off,,,,,5,0,1,,,0,,,66,64
137039,note_on,,,,,55,0,1,,,0,,,66,58
137040,note_on,,,,,1,0,1,,,0,,,81,70
137057,note_off,,,,,17,0,1,,,0,,,62,64
137099,note_on,,,,,42,0,1,,,0,,,74,56
137109,note_off,,,,,10,0,1,,,0,,,66,64
137123,note_off,,,,,14,0,1,,,0,,,74,64
137130,note_off,,,,,7,0,1,,,0,,,81,64
137145,control_change,,,,,15,0,1,,,0,64,64,,
137150,control_change,,,,,5,0,1,,,0,64,0,,
137155,note_on,,,,,5,0,1,,,0,,,45,59
137159,note_on,,,,,4,0,1,,,0,,,76,67
137163,note_off,,,,,4,0,1,,,0,,,38,64
137193,control_change,,,,,30,0,1,,,0,64,64,,
137199,control_change,,,,,6,0,1,,,0,64,127,,
137226,note_on,,,,,27,0,1,,,0,,,73,63
137242,note_off,,,,,16,0,1,,,0,,,76,64
137285,note_on,,,,,43,0,1,,,0,,,67,56
137293,note_off,,,,,8,0,1,,,0,,,73,64
137341,note_on,,,,,48,0,1,,,0,,,64,52
137347,note_off,,,,,6,0,1,,,0,,,67,64
137400,note_on,,,,,53,0,1,,,0,,,81,75
137404,note_on,,,,,4,0,1,,,0,,,67,62
137424,note_off,,,,,20,0,1,,,0,,,64,64
137459,note_on,,,,,35,0,1,,,0,,,73,68
137469,note_off,,,,,10,0,1,,,0,,,67,64
137486,note_off,,,,,17,0,1,,,0,,,73,64
137490,note_off,,,,,4,0,1,,,0,,,81,64
137512,control_change,,,,,22,0,1,,,0,64,96,,
137518,control_change,,,,,6,0,1,,,0,64,0,,
137519,note_on,,,,,1,0,1,,,0,,,74,67
137524,note_off,,,,,5,0,1,,,0,,,45,64
137524,note_on,,,,,0,0,1,,,0,,,38,59
137556,control_change,,,,,32,0,1,,,0,64,64,,
137562,control_change,,,,,6,0,1,,,0,64,127,,
137582,note_on,,,,,20,0,1,,,0,,,69,59
137593,note_off,,,,,11,0,1,,,0,,,74,64
137643,note_on,,,,,50,0,1,,,0,,,66,58
137666,note_off,,,,,23,0,1,,,0,,,69,64
137703,note_off,,,,,37,0,1,,,0,,,66,64
137703,note_on,,,,,0,0,1,,,0,,,62,52
137758,note_on,,,,,55,0,1,,,0,,,66,63
137760,note_on,,,,,2,0,1,,,0,,,81,70
137785,note_off,,,,,25,0,1,,,0,,,62,64
137814,note_on,,,,,29,0,1,,,0,,,74,52
137826,note_off,,,,,12,0,1,,,0,,,66,64
137838,note_off,,,,,12,0,1,,,0,,,74,64
137850,note_off,,,,,12,0,1,,,0,,,81,64
137867,control_change,,,,,17,0,1,,,0,64,96,,
137873,control_change,,,,,6,0,1,,,0,64,0,,
137874,note_on,,,,,1,0,1,,,0,,,45,56
137877,note_on,,,,,3,0,1,,,0,,,76,62
137883,note_off,,,,,6,0,1,,,0,,,38,64
137911,control_change,,,,,28,0,1,,,0,64,64,,
137916,control_change,,,,,5,0,1,,,0,64,96,,
137922,control_change,,,,,6,0,1,,,0,64,127,,
137937,note_on,,,,,15,0,1,,,0,,,73,63
137949,note_off,,,,,12,0,1,,,0,,,76,64
138000,note_on,,,,,51,0,1,,,0,,,67,62
138008,note_off,,,,,8,0,1,,,0,,,73,64
138055,note_on,,,,,47,0,1,,,0,,,64,52
138059,note_off,,,,,4,0,1,,,0,,,67,64
138113,note_on,,,,,54,0,1,,,0,,,67,59
138120,note_on,,,,,7,0,1,,,0,,,81,75
138130,note_off,,,,,10,0,1,,,0,,,64,64
138176,note_on,,,,,46,0,1,,,0,,,73,63
138183,note_off,,,,,7,0,1,,,0,,,67,64
138210,note_off,,,,,27,0,1,,,0,,,81,64
138231,control_change,,,,,21,0,1,,,0,64,64,,
138233,note_off,,,,,2,0,1,,,0,,,73,64
138237,control_change,,,,,4,0,1,,,0,64,0,,
138239,note_on,,,,,0,0,1,,,0,,,38,50
138239,note_on,,,,,2,0,1,,,0,,,74,67
138244,note_off,,,,,5,0,1,,,0,,,45,64
138258,note_off,,,,,14,0,1,,,0,,,74,64
138269,control_change,,,,,11,0,1,,,0,64,64,,
138274,control_change,,,,,5,0,1,,,0,64,96,,
138280,control_change,,,,,6,0,1,,,0,64,127,,
138301,note_on,,,,,21,0,1,,,0,,,74,56
138353,note_on,,,,,52,0,1,,,0,,,73,58
138359,note_off,,,,,6,0,1,,,0,,,74,64
138410,note_on,,,,,51,0,1,,,0,,,71,52
138432,note_off,,,,,22,0,1,,,0,,,73,64
138474,note_on,,,,,42,0,1,,,0,,,69,56
138484,note_off,,,,,10,0,1,,,0,,,71,64
138503,note_off,,,,,19,0,1,,,0,,,38,64
138532,note_on,,,,,29,0,1,,,0,,,71,52
138538,note_off,,,,,6,0,1,,,0,,,69,64
138557,control_change,,,,,19,0,1,,,0,64,96,,
138562,control_change,,,,,5,0,1,,,0,64,64,,
138568,control_change,,,,,6,0,1,,,0,64,0,,
138591,note_on,,,,,23,0,1,,,0,,,69,62
138594,note_off,,,,,3,0,1,,,0,,,71,64
138604,control_change,,,,,10,0,1,,,0,64,64,,
138609,control_change,,,,,5,0,1,,,0,64,96,,
138614,control_change,,,,,5,0,1,,,0,64,127,,
138641,note_off,,,,,27,0,1,,,0,,,69,64
138652,note_on,,,,,11,0,1,,,0,,,67,56
138714,note_on,,,,,62,0,1,,,0,,,66,58
138724,note_off,,,,,10,0,1,,,0,,,67,64
138780,note_on,,,,,56,0,1,,,0,,,64,34
138792,note_off,,,,,12,0,1,,,0,,,66,64
138835,note_on,,,,,43,0,1,,,0,,,62,50
138841,note_off,,,,,6,0,1,,,0,,,64,64
138875,note_off,,,,,34,0,1,,,0,,,62,64
138893,note_on,,,,,18,0,1,,,0,,,61,33
138901,note_off,,,,,8,0,1,,,0,,,61,64
138952,control_change,,,,,51,0,1,,,0,64,96,,
138958,control_change,,,,,6,0,1,,,0,64,0,,
138960,note_on,,,,,2,0,1,,,0,,,74,44
138963,note_on,,,,,3,0,1,,,0,,,38,37
138995,control_change,,,,,32,0,1,,,0,64,64,,
139004,control_change,,,,,9,0,1,,,0,64,96,,
139020,control_change,,,,,16,0,1,,,0,64,127,,
139022,note_on,,,,,2,0,1,,,0,,,69,35
139027,note_off,,,,,5,0,1,,,0,,,74,64
139079,note_on,,,,,52,0,1,,,0,,,66,29
139103,note_off,,,,,24,0,1,,,0,,,69,64
139139,note_on,,,,,36,0,1,,,0,,,62,24
139143,note_off,,,,,4,0,1,,,0,,,66,64
139200,note_on,,,,,57,0,1,,,0,,,81,56
139208,note_on,,,,,8,0,1,,,0,,,66,29
139258,note_off,,,,,50,0,1,,,0,,,62,64
139261,note_on,,,,,3,0,1,,,0,,,74,35
139266,note_off,,,,,5,0,1,,,0,,,66,64
139280,note_off,,,,,14,0,1,,,0,,,74,64
139290,note_off,,,,,10,0,1,,,0,,,81,64
139318,note_on,,,,,0,0,1,,,0,,,76,42
139318,note_on,,,,,28,0,1,,,0,,,45,42
139322,note_off,,,,,4,0,1,,,0,,,38,64
139325,control_change,,,,,3,0,1,,,0,64,64,,
139330,control_change,,,,,5,0,1,,,0,64,0,,
139370,control_change,,,,,40,0,1,,,0,64,64,,
139375,control_change,,,,,5,0,1,,,0,64,96,,
139379,note_on,,,,,4,0,1,,,0,,,73,36
139383,control_change,,,,,4,0,1,,,0,64,127,,
139388,note_off,,,,,5,0,1,,,0,,,76,64
139444,note_on,,,,,56,0,1,,,0,,,67,35
139450,note_off,,,,,6,0,1,,,0,,,73,64
139500,note_on,,,,,50,0,1,,,0,,,64,32
139505,note_off,,,,,5,0,1,,,0,,,67,64
139559,note_on,,,,,54,0,1,,,0,,,67,39
139560,note_on,,,,,1,0,1,,,0,,,81,56
139571,note_off,,,,,11,0,1,,,0,,,64,64
139613,note_on,,,,,42,0,1,,,0,,,73,40
139623,note_off,,,,,10,0,1,,,0,,,67,64
139647,note_off,,,,,24,0,1,,,0,,,73,64
139650,note_off,,,,,3,0,1,,,0,,,81,64
139673,control_change,,,,,23,0,1,,,0,64,96,,
139676,note_on,,,,,3,0,1,,,0,,,74,42
139680,control_change,,,,,4,0,1,,,0,64,0,,
139682,note_off,,,,,2,0,1,,,0,,,45,64
139682,note_on,,,,,0,0,1,,,0,,,38,42
139720,control_change,,,,,38,0,1,,,0,64,64,,
139725,control_change,,,,,5,0,1,,,0,64,96,,
139730,control_change,,,,,5,0,1,,,0,64,127,,
139736,note_on,,,,,6,0,1,,,0,,,69,37
139749,note_off,,,,,13,0,1,,,0,,,74,64
139799,note_on,,,,,50,0,1,,,0,,,66,36
139828,note_off,,,,,29,0,1,,,0,,,69,64
139859,note_on,,,,,31,0,1,,,0,,,62,21
139864,note_off,,,,,5,0,1,,,0,,,66,64
139919,note_on,,,,,55,0,1,,,0,,,66,36
139920,note_on,,,,,1,0,1,,,0,,,81,52
139937,note_off,,,,,17,0,1,,,0,,,62,64
139979,note_on,,,,,42,0,1,,,0,,,74,35
139989,note_off,,,,,10,0,1,,,0,,,66,64
140003,note_off,,,,,14,0,1,,,0,,,74,64
140010,note_off,,,,,7,0,1,,,0,,,81,64
140025,control_change,,,,,15,0,1,,,0,64,64,,
140030,control_change,,,,,5,0,1,,,0,64,0,,
140035,note_on,,,,,5,0,1,,,0,,,45,37
140039,note_on,,,,,4,0,1,,,0,,,76,42
140043,note_off,,,,,4,0,1,,,0,,,38,64
140073,control_change,,,,,30,0,1,,,0,64,64,,
140079,control_change,,,,,6,0,1,,,0,64,127,,
140106,note_on,,,,,27,0,1,,,0,,,73,40
140122,note_off,,,,,16,0,1,,,0,,,76,64
140165,note_on,,,,,43,0,1,,,0,,,67,35
140173,note_off,,,,,8,0,1,,,0,,,73,64
140221,note_on,,,,,48,0,1,,,0,,,64,32
140227,note_off,,,,,6,0,1,,,0,,,67,64
140280,note_on,,,,,53,0,1,,,0,,,81,50
140284,note_on,,,,,4,0,1,,,0,,,67,39
140304,note_off,,,,,20,0,1,,,0,,,64,64
140339,note_on,,,,,35,0,1,,,0,,,73,43
140349,note_off,,,,,10,0,1,,,0,,,67,64
140366,note_off,,,,,17,0,1,,,0,,,73,64
140370,note_off,,,,,4,0,1,,,0,,,81,64
140392,control_change,,,,,22,0,1,,,0,64,96,,
140398,control_change,,,,,6,0,1,,,0,64,0,,
140399,note_on,,,,,1,0,1,,,0,,,74,42
140404,note_off,,,,,5,0,1,,,0,,,45,64
140404,note_on,,,,,0,0,1,,,0,,,38,37
140436,control_change,,,,,32,0,1,,,0,64,64,,
140442,control_change,,,,,6,0,1,,,0,64,127,,
140462,note_on,,,,,20,0,1,,,0,,,69,37
140473,note_off,,,,,11,0,1,,,0,,,74,64
140523,note_on,,,,,50,0,1,,,0,,,66,36
140546,note_off,,,,,23,0,1,,,0,,,69,64
140583,note_off,,,,,37,0,1,,,0,,,66,64
140583,note_on,,,,,0,0,1,,,0,,,62,32
140638,note_on,,,,,55,0,1,,,0,,,66,40
140640,note_on,,,,,2,0,1,,,0,,,81,52
140665,note_off,,,,,25,0,1,,,0,,,62,64
140694,note_on,,,,,29,0,1,,,0,,,74,32
140706,note_off,,,,,12,0,1,,,0,,,66,64
140718,note_off,,,,,12,0,1,,,0,,,74,64
140730,note_off,,,,,12,0,1,,,0,,,81,64
140747,control_change,,,,,17,0,1,,,0,64,96,,
140753,control_change,,,,,6,0,1,,,0,64,0,,
140754,note_on,,,,,1,0,1,,,0,,,45,35
140757,note_on,,,,,3,0,1,,,0,,,76,39
140763,note_off,,,,,6,0,1,,,0,,,38,64
140791,control_change,,,,,28,0,1,,,0,64,64,,
140796,control_change,,,,,5,0,1,,,0,64,96,,
140802,control_change,,,,,6,0,1,,,0,64,127,,
140817,note_on,,,,,15,0,1,,,0,,,73,40
140829,note_off,,,,,12,0,1,,,0,,,76,64
140880,note_on,,,,,51,0,1,,,0,,,67,39
140888,note_off,,,,,8,0,1,,,0,,,73,64
140935,note_on,,,,,47,0,1,,,0,,,64,32
140939,note_off,,,,,4,0,1,,,0,,,67,64
140993,note_on,,,,,54,0,1,,,0,,,67,37
141000,note_on,,,,,7,0,1,,,0,,,81,44
141010,note_off,,,,,10,0,1,,,0,,,64,64
141056,note_on,,,,,46,0,1,,,0,,,73,40
141063,note_off,,,,,7,0,1,,,0,,,67,64
141090,note_off,,,,,27,0,1,,,0,,,81,64
141111,control_change,,,,,21,0,1,,,0,64,64,,
141113,note_off,,,,,2,0,1,,,0,,,73,64
141117,control_change,,,,,4,0,1,,,0,64,0,,
141119,note_on,,,,,0,0,1,,,0,,,38,32
141119,note_on,,,,,2,0,1,,,0,,,74,42
141124,note_off,,,,,5,0,1,,,0,,,45,64
141138,note_off,,,,,14,0,1,,,0,,,74,64
141149,control_change,,,,,11,0,1,,,0,64,64,,
141154,control_change,,,,,5,0,1,,,0,64,96,,
141160,control_change,,,,,6,0,1,,,0,64,127,,
141181,note_on,,,,,21,0,1,,,0,,,74,35
141233,note_on,,,,,52,0,1,,,0,,,73,36
141239,note_off,,,,,6,0,1,,,0,,,74,64
141290,note_on,,,,,51,0,1,,,0,,,71,32
141312,note_off,,,,,22,0,1,,,0,,,73,64
141354,note_on,,,,,42,0,1,,,0,,,69,35
141364,note_off,,,,,10,0,1,,,0,,,71,64
141383,note_off,,,,,19,0,1,,,0,,,38,64
141412,note_on,,,,,29,0,1,,,0,,,71,32
141418,note_off,,,,,6,0,1,,,0,,,69,64
141437,control_change,,,,,19,0,1,,,0,64,96,,
141442,control_change,,,,,5,0,1,,,0,64,64,,
141448,control_change,,,,,6,0,1,,,0,64,0,,
141471,note_on,,,,,23,0,1,,,0,,,69,39
141474,note_off,,,,,3,0,1,,,0,,,71,64
141484,control_change,,,,,10,0,1,,,0,64,64,,
141489,control_change,,,,,5,0,1,,,0,64,96,,
141494,control_change,,,,,5,0,1,,,0,64,127,,
141521,note_off,,,,,27,0,1,,,0,,,69,64
141532,note_on,,,,,11,0,1,,,0,,,67,56
141594,note_on,,,,,62,0,1,,,0,,,66,58
141604,note_off,,,,,10,0,1,,,0,,,67,64
141660,note_on,,,,,56,0,1,,,0,,,64,34
141672,note_off,,,,,12,0,1,,,0,,,66,64
141715,note_on,,,,,43,0,1,,,0,,,62,50
141721,note_off,,,,,6,0,1,,,0,,,64,64
141755,note_off,,,,,34,0,1,,,0,,,62,64
141773,note_on,,,,,18,0,1,,,0,,,61,33
141781,note_off,,,,,8,0,1,,,0,,,61,64
141832,control_change,,,,,51,0,1,,,0,64,96,,
141838,control_change,,,,,0,0,1,,,0,64,0,,
141838,note_on,,,,,6,0,1,,,0,,,62,56
141846,note_on,,,,,0,0,1,,,0,,,50,56
141846,note_off,,,,,8,0,1,,,0,,,62,64
141955,note_on,,,,,109,0,1,,,0,,,77,59
141959,note_on,,,,,0,0,1,,,0,,,62,44
141959,note_on,,,,,0,0,1,,,0,,,65,52
141959,note_off,,,,,4,0,1,,,0,,,50,64
142080,note_on,,,,,121,0,1,,,0,,,60,39
142083,note_off,,,,,3,0,1,,,0,,,62,64
142198,note_off,,,,,115,0,1,,,0,,,60,64
142202,note_on,,,,,4,0,1,,,0,,,58,40
142224,note_off,,,,,22,0,1,,,0,,,65,64
142230,note_off,,,,,6,0,1,,,0,,,77,64
142314,note_on,,,,,84,0,1,,,0,,,77,67
142317,note_on,,,,,0,0,1,,,0,,,65,59
142317,note_off,,,,,3,0,1,,,0,,,58,64
142323,note_on,,,,,6,0,1,,,0,,,62,44
142432,control_change,,,,,109,0,1,,,0,64,64,,
142440,note_on,,,,,8,0,1,,,0,,,57,44
142448,note_off,,,,,8,0,1,,,0,,,62,64
142453,control_change,,,,,5,0,1,,,0,64,96,,
142534,control_change,,,,,81,0,1,,,0,64,64,,
142539,control_change,,,,,5,0,1,,,0,64,0,,
142558,note_off,,,,,19,0,1,,,0,,,65,64
142562,note_on,,,,,4,0,1,,,0,,,55,52
142565,note_off,,,,,3,0,1,,,0,,,77,64
142567,note_off,,,,,2,0,1,,,0,,,57,64
142604,control_change,,,,,37,0,1,,,0,64,64,,
142612,control_change,,,,,8,0,1,,,0,64,96,,
142628,control_change,,,,,16,0,1,,,0,64,127,,
142679,note_on,,,,,51,0,1,,,0,,,79,62
142683,note_on,,,,,4,0,1,,,0,,,67,47
142697,note_off,,,,,14,0,1,,,0,,,67,64
142697,note_off,,,,,0,0,1,,,0,,,79,64
142793,note_on,,,,,96,0,1,,,0,,,76,62
142796,note_off,,,,,3,0,1,,,0,,,55,64
142796,note_on,,,,,0,0,1,,,0,,,43,50
142796,note_on,,,,,0,0,1,,,0,,,64,42
142803,note_off,,,,,7,0,1,,,0,,,43,64
142812,note_off,,,,,0,0,1,,,0,,,76,64
142812,note_off,,,,,9,0,1,,,0,,,64,64
142897,control_change,,,,,85,0,1,,,0,64,96,,
142901,control_change,,,,,4,0,1,,,0,64,64,,
142907,control_change,,,,,6,0,1,,,0,64,0,,
142912,note_on,,,,,5,0,1,,,0,,,74,59
142915,note_on,,,,,3,0,1,,,0,,,62,47
142919,note_on,,,,,4,0,1,,,0,,,45,62
142954,control_change,,,,,35,0,1,,,0,64,64,,
142959,control_change,,,,,5,0,1,,,0,64,96,,
142964,control_change,,,,,5,0,1,,,0,64,127,,
142972,note_off,,,,,8,0,1,,,0,,,62,64
142984,note_off,,,,,12,0,1,,,0,,,74,64
143037,note_on,,,,,0,0,1,,,0,,,62,34
143037,note_on,,,,,53,0,1,,,0,,,74,52
143061,note_off,,,,,24,0,1,,,0,,,62,64
143064,note_off,,,,,3,0,1,,,0,,,74,64
143156,note_on,,,,,0,0,1,,,0,,,73,63
143156,note_off,,,,,92,0,1,,,0,,,45,64
143160,note_on,,,,,4,0,1,,,0,,,61,39
143167,note_on,,,,,7,0,1,,,0,,,57,50
143172,note_off,,,,,5,0,1,,,0,,,61,64
143176,note_off,,,,,0,0,1,,,0,,,73,64
143176,note_off,,,,,4,0,1,,,0,,,57,64
143247,control_change,,,,,71,0,1,,,0,64,96,,
143252,control_change,,,,,5,0,1,,,0,64,0,,
143273,note_on,,,,,21,0,1,,,0,,,74,62
143277,note_on,,,,,4,0,1,,,0,,,62,44
143281,note_on,,,,,4,0,1,,,0,,,50,35
143288,note_off,,,,,7,0,1,,,0,,,62,64
143294,control_change,,,,,6,0,1,,,0,64,64,,
143298,note_off,,,,,4,0,1,,,0,,,74,64
143300,control_change,,,,,2,0,1,,,0,64,96,,
143306,control_change,,,,,6,0,1,,,0,64,127,,
143389,control_change,,,,,83,0,1,,,0,64,96,,
143390,note_off,,,,,1,0,1,,,0,,,50,64
143390,note_on,,,,,0,0,1,,,0,,,78,47
143394,note_on,,,,,0,0,1,,,0,,,62,32
143394,note_on,,,,,4,0,1,,,0,,,66,35
143401,control_change,,,,,7,0,1,,,0,64,0,,
143421,control_change,,,,,20,0,1,,,0,64,64,,
143426,control_change,,,,,5,0,1,,,0,64,96,,
143431,control_change,,,,,5,0,1,,,0,64,127,,
143510,control_change,,,,,79,0,1,,,0,64,96,,
143515,control_change,,,,,5,0,1,,,0,64,64,,
143517,note_on,,,,,2,0,1,,,0,,,61,24
143521,note_off,,,,,4,0,1,,,0,,,62,64
143539,control_change,,,,,18,0,1,,,0,64,96,,
143548,control_change,,,,,9,0,1,,,0,64,127,,
143623,control_change,,,,,75,0,1,,,0,64,96,,
143628,control_change,,,,,5,0,1,,,0,64,64,,
143632,note_off,,,,,4,0,1,,,0,,,61,64
143634,control_change,,,,,2,0,1,,,0,64,0,,
143636,note_on,,,,,2,0,1,,,0,,,59,32
143651,control_change,,,,,15,0,1,,,0,64,64,,
143656,control_change,,,,,5,0,1,,,0,64,96,,
143661,control_change,,,,,5,0,1,,,0,64,127,,
143665,note_off,,,,,4,0,1,,,0,,,66,64
143669,note_off,,,,,4,0,1,,,0,,,78,64
143746,note_on,,,,,77,0,1,,,0,,,78,43
143750,control_change,,,,,4,0,1,,,0,64,96,,
143751,note_on,,,,,0,0,1,,,0,,,66,32
143751,note_off,,,,,1,0,1,,,0,,,59,64
143758,control_change,,,,,7,0,1,,,0,64,64,,
143759,note_on,,,,,1,0,1,,,0,,,62,28
143765,control_change,,,,,6,0,1,,,0,64,0,,
143772,control_change,,,,,7,0,1,,,0,64,64,,
143777,control_change,,,,,5,0,1,,,0,64,96,,
143782,control_change,,,,,5,0,1,,,0,64,127,,
143876,note_on,,,,,94,0,1,,,0,,,57,28
143881,note_off,,,,,5,0,1,,,0,,,62,64
143964,control_change,,,,,83,0,1,,,0,64,96,,
143969,control_change,,,,,5,0,1,,,0,64,64,,
143975,control_change,,,,,6,0,1,,,0,64,0,,
143994,note_on,,,,,19,0,1,,,0,,,55,32
143997,note_off,,,,,3,0,1,,,0,,,57,64
143999,note_off,,,,,2,0,1,,,0,,,66,64
144003,note_off,,,,,4,0,1,,,0,,,78,64
144008,control_change,,,,,5,0,1,,,0,64,64,,
144013,control_change,,,,,5,0,1,,,0,64,127,,
144115,note_on,,,,,102,0,1,,,0,,,79,37
144118,note_on,,,,,3,0,1,,,0,,,67,28
144132,note_off,,,,,14,0,1,,,0,,,79,64
144135,note_off,,,,,3,0,1,,,0,,,67,64
144237,note_on,,,,,0,0,1,,,0,,,76,39
144237,note_on,,,,,102,0,1,,,0,,,43,29
144242,note_on,,,,,5,0,1,,,0,,,64,26
144246,note_off,,,,,0,0,1,,,0,,,55,64
144246,note_off,,,,,4,0,1,,,0,,,43,64
144256,note_off,,,,,10,0,1,,,0,,,76,64
144258,note_off,,,,,2,0,1,,,0,,,64,64
144337,control_change,,,,,79,0,1,,,0,64,96,,
144343,control_change,,,,,6,0,1,,,0,64,0,,
144355,note_on,,,,,12,0,1,,,0,,,74,42
144359,note_on,,,,,0,0,1,,,0,,,45,35
144359,note_on,,,,,4,0,1,,,0,,,62,32
144377,control_change,,,,,18,0,1,,,0,64,64,,
144382,control_change,,,,,5,0,1,,,0,64,96,,
144386,note_off,,,,,4,0,1,,,0,,,62,64
144389,control_change,,,,,3,0,1,,,0,64,127,,
144394,note_off,,,,,5,0,1,,,0,,,74,64
144473,note_on,,,,,79,0,1,,,0,,,74,39
144477,note_on,,,,,4,0,1,,,0,,,62,28
144495,note_off,,,,,18,0,1,,,0,,,62,64
144503,note_off,,,,,8,0,1,,,0,,,74,64
144592,note_on,,,,,89,0,1,,,0,,,61,32
144592,note_on,,,,,0,0,1,,,0,,,73,36
144597,note_off,,,,,5,0,1,,,0,,,45,64
144604,note_on,,,,,7,0,1,,,0,,,57,22
144608,note_off,,,,,4,0,1,,,0,,,61,64
144611,note_off,,,,,3,0,1,,,0,,,73,64
144615,note_off,,,,,4,0,1,,,0,,,57,64
144677,control_change,,,,,62,0,1,,,0,64,96,,
144682,control_change,,,,,5,0,1,,,0,64,0,,
144709,note_on,,,,,27,0,1,,,0,,,74,39
144709,note_on,,,,,0,0,1,,,0,,,62,24
144717,note_on,,,,,8,0,1,,,0,,,50,32
144721,control_change,,,,,4,0,1,,,0,64,64,,
144722,note_off,,,,,1,0,1,,,0,,,62,64
144727,control_change,,,,,5,0,1,,,0,64,127,,
144728,note_off,,,,,1,0,1,,,0,,,74,64
144829,note_on,,,,,0,0,1,,,0,,,74,56
144829,note_on,,,,,101,0,1,,,0,,,86,67
144840,note_off,,,,,11,0,1,,,0,,,74,64
144840,note_off,,,,,0,0,1,,,0,,,86,64
144937,control_change,,,,,97,0,1,,,0,64,96,,
144942,control_change,,,,,5,0,1,,,0,64,64,,
144943,note_on,,,,,1,0,1,,,0,,,83,70
144943,note_on,,,,,0,0,1,,,0,,,71,56
144949,note_on,,,,,0,0,1,,,0,,,62,56
144949,note_off,,,,,6,0,1,,,0,,,50,64
144954,control_change,,,,,5,0,1,,,0,64,0,,
144970,control_change,,,,,16,0,1,,,0,64,64,,
144975,control_change,,,,,5,0,1,,,0,64,96,,
144980,control_change,,,,,5,0,1,,,0,64,127,,
145062,note_on,,,,,82,0,1,,,0,,,61,62
145066,note_off,,,,,4,0,1,,,0,,,62,64
145066,note_off,,,,,0,0,1,,,0,,,83,64
145068,control_change,,,,,2,0,1,,,0,64,64,,
145070,note_off,,,,,2,0,1,,,0,,,71,64
145075,control_change,,,,,5,0,1,,,0,64,0,,
145093,control_change,,,,,18,0,1,,,0,64,64,,
145098,control_change,,,,,5,0,1,,,0,64,96,,
145103,control_change,,,,,5,0,1,,,0,64,127,,
145183,note_on,,,,,80,0,1,,,0,,,81,62
145187,note_on,,,,,4,0,1,,,0,,,69,47
145202,note_off,,,,,15,0,1,,,0,,,69,64
145205,note_off,,,,,3,0,1,,,0,,,81,64
145305,note_on,,,,,100,0,1,,,0,,,79,59
145309,note_on,,,,,4,0,1,,,0,,,67,47
145312,note_on,,,,,3,0,1,,,0,,,59,45
145321,note_off,,,,,9,0,1,,,0,,,61,64
145323,note_off,,,,,2,0,1,,,0,,,67,64
145327,note_off,,,,,4,0,1,,,0,,,59,64
145327,note_off,,,,,0,0,1,,,0,,,79,64
145396,control_change,,,,,69,0,1,,,0,64,96,,
145402,control_change,,,,,6,0,1,,,0,64,0,,
145418,note_on,,,,,16,0,1,,,0,,,66,47
145422,note_on,,,,,4,0,1,,,0,,,78,58
145428,note_off,,,,,6,0,1,,,0,,,66,64
145432,note_on,,,,,4,0,1,,,0,,,50,41
145438,control_change,,,,,6,0,1,,,0,64,64,,
145439,note_off,,,,,1,0,1,,,0,,,78,64
145444,control_change,,,,,5,0,1,,,0,64,127,,
145540,note_on,,,,,96,0,1,,,0,,,86,39
145543,note_on,,,,,3,0,1,,,0,,,74,28
145555,note_off,,,,,12,0,1,,,0,,,74,64
145555,note_off,,,,,0,0,1,,,0,,,86,64
145653,control_change,,,,,98,0,1,,,0,64,96,,
145657,control_change,,,,,4,0,1,,,0,64,64,,
145659,note_on,,,,,2,0,1,,,0,,,82,47
145663,note_on,,,,,0,0,1,,,0,,,55,37
145663,note_on,,,,,4,0,1,,,0,,,70,32
145668,control_change,,,,,5,0,1,,,0,64,0,,
145670,note_off,,,,,2,0,1,,,0,,,50,64
145688,control_change,,,,,18,0,1,,,0,64,64,,
145693,control_change,,,,,5,0,1,,,0,64,96,,
145698,control_change,,,,,5,0,1,,,0,64,127,,
145779,note_on,,,,,81,0,1,,,0,,,57,35
145781,note_off,,,,,2,0,1,,,0,,,82,64
145789,note_off,,,,,8,0,1,,,0,,,55,64
145797,note_off,,,,,8,0,1,,,0,,,70,64
145898,note_on,,,,,101,0,1,,,0,,,81,37
145901,note_on,,,,,3,0,1,,,0,,,69,32
145920,note_off,,,,,0,0,1,,,0,,,81,64
145920,note_off,,,,,19,0,1,,,0,,,69,64
146033,note_on,,,,,113,0,1,,,0,,,67,21
146033,note_on,,,,,0,0,1,,,0,,,79,29
146039,note_on,,,,,6,0,1,,,0,,,45,20
146047,note_off,,,,,8,0,1,,,0,,,57,64
146050,note_off,,,,,3,0,1,,,0,,,45,64
146055,note_off,,,,,5,0,1,,,0,,,67,64
146057,note_off,,,,,2,0,1,,,0,,,79,64
146139,control_change,,,,,82,0,1,,,0,64,96,,
146145,control_change,,,,,6,0,1,,,0,64,0,,
146158,note_on,,,,,13,0,1,,,0,,,65,32
146161,note_on,,,,,3,0,1,,,0,,,77,36
146167,note_on,,,,,6,0,1,,,0,,,50,52
146170,note_off,,,,,3,0,1,,,0,,,65,64
146176,control_change,,,,,6,0,1,,,0,64,64,,
146181,control_change,,,,,5,0,1,,,0,64,96,,
146183,note_off,,,,,2,0,1,,,0,,,77,64
146187,control_change,,,,,4,0,1,,,0,64,127,,
146278,note_on,,,,,91,0,1,,,0,,,86,67
146281,note_on,,,,,3,0,1,,,0,,,74,52
146289,note_off,,,,,8,0,1,,,0,,,74,64
146297,note_off,,,,,8,0,1,,,0,,,86,64
146393,control_change,,,,,96,0,1,,,0,64,96,,
146395,note_on,,,,,2,0,1,,,0,,,83,70
146398,note_off,,,,,3,0,1,,,0,,,50,64
146398,note_on,,,,,0,0,1,,,0,,,71,50
146403,control_change,,,,,5,0,1,,,0,64,64,,
146405,note_on,,,,,2,0,1,,,0,,,62,50
146411,control_change,,,,,6,0,1,,,0,64,0,,
146424,control_change,,,,,13,0,1,,,0,64,64,,
146428,control_change,,,,,4,0,1,,,0,64,96,,
146434,control_change,,,,,6,0,1,,,0,64,127,,
146501,control_change,,,,,67,0,1,,,0,64,96,,
146506,control_change,,,,,5,0,1,,,0,64,64,,
146515,note_on,,,,,9,0,1,,,0,,,61,48
146519,note_off,,,,,4,0,1,,,0,,,62,64
146521,note_off,,,,,2,0,1,,,0,,,83,64
146525,control_change,,,,,4,0,1,,,0,64,127,,
146527,note_off,,,,,2,0,1,,,0,,,71,64
146635,note_on,,,,,108,0,1,,,0,,,81,62
146639,note_on,,,,,4,0,1,,,0,,,69,44
146654,note_off,,,,,15,0,1,,,0,,,69,64
146654,note_off,,,,,0,0,1,,,0,,,81,64
146759,note_on,,,,,105,0,1,,,0,,,79,52
146763,note_on,,,,,4,0,1,,,0,,,67,36
146767,note_on,,,,,4,0,1,,,0,,,59,43
146774,note_off,,,,,7,0,1,,,0,,,61,64
146777,note_off,,,,,3,0,1,,,0,,,67,64
146780,note_off,,,,,3,0,1,,,0,,,79,64
146783,note_off,,,,,3,0,1,,,0,,,59,64
146849,control_change,,,,,66,0,1,,,0,64,96,,
146854,control_change,,,,,5,0,1,,,0,64,64,,
146859,control_change,,,,,5,0,1,,,0,64,0,,
146871,note_on,,,,,12,0,1,,,0,,,66,44
146874,note_on,,,,,3,0,1,,,0,,,78,55
146878,note_off,,,,,4,0,1,,,0,,,66,64
146880,note_on,,,,,2,0,1,,,0,,,50,29
146884,control_change,,,,,4,0,1,,,0,64,96,,
146889,control_change,,,,,5,0,1,,,0,64,127,,
146890,note_off,,,,,1,0,1,,,0,,,78,64
146989,note_on,,,,,99,0,1,,,0,,,86,42
146992,note_on,,,,,3,0,1,,,0,,,74,20
147004,note_off,,,,,12,0,1,,,0,,,74,64
147008,note_off,,,,,4,0,1,,,0,,,86,64
147098,control_change,,,,,90,0,1,,,0,64,96,,
147102,note_on,,,,,4,0,1,,,0,,,82,47
147105,control_change,,,,,3,0,1,,,0,64,64,,
147107,note_on,,,,,0,0,1,,,0,,,55,32
147107,note_on,,,,,2,0,1,,,0,,,70,28
147112,note_off,,,,,5,0,1,,,0,,,50,64
147114,control_change,,,,,2,0,1,,,0,64,0,,
147128,control_change,,,,,14,0,1,,,0,64,64,,
147133,control_change,,,,,5,0,1,,,0,64,127,,
147196,control_change,,,,,63,0,1,,,0,64,64,,
147201,control_change,,,,,5,0,1,,,0,64,96,,
147206,control_change,,,,,5,0,1,,,0,64,64,,
147208,control_change,,,,,2,0,1,,,0,64,96,,
147211,control_change,,,,,3,0,1,,,0,64,0,,
147227,note_on,,,,,16,0,1,,,0,,,57,32
147230,control_change,,,,,3,0,1,,,0,64,64,,
147235,control_change,,,,,5,0,1,,,0,64,127,,
147235,control_change,,,,,0,0,1,,,0,64,127,,
147236,note_off,,,,,1,0,1,,,0,,,55,64
147250,note_off,,,,,14,0,1,,,0,,,82,64
147272,note_off,,,,,22,0,1,,,0,,,70,64
147349,note_on,,,,,77,0,1,,,0,,,81,39
147352,note_on,,,,,3,0,1,,,0,,,69,32
147367,note_off,,,,,15,0,1,,,0,,,69,64
147369,note_off,,,,,2,0,1,,,0,,,81,64
147475,note_on,,,,,106,0,1,,,0,,,79,28
147478,note_on,,,,,3,0,1,,,0,,,67,12
147482,note_on,,,,,4,0,1,,,0,,,45,18
147496,note_off,,,,,14,0,1,,,0,,,57,64
147501,note_off,,,,,5,0,1,,,0,,,67,64
147503,note_off,,,,,2,0,1,,,0,,,79,64
147507,control_change,,,,,4,0,1,,,0,64,96,,
147509,note_off,,,,,2,0,1,,,0,,,45,64
147513,control_change,,,,,4,0,1,,,0,64,64,,
147521,control_change,,,,,8,0,1,,,0,64,0,,
147577,control_change,,,,,56,0,1,,,0,64,96,,
147582,control_change,,,,,5,0,1,,,0,64,64,,
147588,control_change,,,,,6,0,1,,,0,64,0,,
147598,note_on,,,,,10,0,1,,,0,,,77,47
147599,note_on,,,,,1,0,1,,,0,,,50,36
147607,control_change,,,,,8,0,1,,,0,64,64,,
147609,note_on,,,,,2,0,1,,,0,,,65,14
147615,control_change,,,,,6,0,1,,,0,64,127,,
147629,note_off,,,,,14,0,1,,,0,,,65,64
147629,note_off,,,,,0,0,1,,,0,,,77,64
147714,note_off,,,,,85,0,1,,,0,,,50,64
147719,note_on,,,,,5,0,1,,,0,,,76,50
147722,note_on,,,,,3,0,1,,,0,,,52,34
147747,note_off,,,,,25,0,1,,,0,,,76,64
147832,note_on,,,,,85,0,1,,,0,,,62,41
147835,note_on,,,,,3,0,1,,,0,,,74,52
147839,note_on,,,,,0,0,1,,,0,,,53,45
147839,note_off,,,,,4,0,1,,,0,,,52,64
147843,note_off,,,,,4,0,1,,,0,,,62,64
147853,note_off,,,,,10,0,1,,,0,,,74,64
147923,control_change,,,,,70,0,1,,,0,64,96,,
147928,control_change,,,,,5,0,1,,,0,64,64,,
147934,control_change,,,,,6,0,1,,,0,64,0,,
147955,control_change,,,,,21,0,1,,,0,64,64,,
147956,note_on,,,,,1,0,1,,,0,,,79,59
147956,note_on,,,,,0,0,1,,,0,,,67,47
147961,note_off,,,,,5,0,1,,,0,,,53,64
147962,note_on,,,,,1,0,1,,,0,,,55,41
147965,control_change,,,,,3,0,1,,,0,64,127,,
147977,note_off,,,,,12,0,1,,,0,,,67,64
147982,note_off,,,,,5,0,1,,,0,,,79,64
148067,note_off,,,,,85,0,1,,,0,,,55,64
148067,note_on,,,,,0,0,1,,,0,,,77,67
148071,note_on,,,,,4,0,1,,,0,,,65,50
148077,note_on,,,,,6,0,1,,,0,,,57,36
148089,note_off,,,,,12,0,1,,,0,,,65,64
148097,note_off,,,,,8,0,1,,,0,,,77,64
148186,note_on,,,,,89,0,1,,,0,,,45,50
148189,note_on,,,,,3,0,1,,,0,,,76,67
148192,note_on,,,,,3,0,1,,,0,,,64,40
148196,note_off,,,,,4,0,1,,,0,,,57,64
148199,note_off,,,,,3,0,1,,,0,,,45,64
148205,note_off,,,,,6,0,1,,,0,,,64,64
148207,note_off,,,,,2,0,1,,,0,,,76,64
148282,control_change,,,,,75,0,1,,,0,64,96,,
148288,control_change,,,,,6,0,1,,,0,64,64,,
148293,control_change,,,,,5,0,1,,,0,64,0,,
148300,note_on,,,,,7,0,1,,,0,,,62,56
148303,note_on,,,,,3,0,1,,,0,,,74,62
148306,note_on,,,,,3,0,1,,,0,,,50,62
148309,note_off,,,,,3,0,1,,,0,,,62,64
148314,control_change,,,,,5,0,1,,,0,64,96,,
148319,control_change,,,,,5,0,1,,,0,64,127,,
148322,note_off,,,,,3,0,1,,,0,,,74,64
148424,note_on,,,,,102,0,1,,,0,,,69,52
148425,note_on,,,,,1,0,1,,,0,,,81,62
148444,note_off,,,,,19,0,1,,,0,,,69,64
148445,note_off,,,,,1,0,1,,,0,,,81,64
148463,note_off,,,,,18,0,1,,,0,,,50,64
148542,note_on,,,,,79,0,1,,,0,,,78,74
148542,note_on,,,,,0,0,1,,,0,,,66,55
148549,note_on,,,,,7,0,1,,,0,,,50,59
148554,note_off,,,,,5,0,1,,,0,,,66,64
148562,note_off,,,,,8,0,1,,,0,,,78,64
148644,control_change,,,,,82,0,1,,,0,64,96,,
148649,control_change,,,,,5,0,1,,,0,64,0,,
148656,note_off,,,,,7,0,1,,,0,,,50,64
148662,note_on,,,,,6,0,1,,,0,,,83,67
148663,note_on,,,,,0,0,1,,,0,,,71,59
148663,note_on,,,,,1,0,1,,,0,,,55,62
148672,control_change,,,,,9,0,1,,,0,64,96,,
148677,control_change,,,,,5,0,1,,,0,64,127,,
148683,note_off,,,,,0,0,1,,,0,,,71,64
148683,note_off,,,,,6,0,1,,,0,,,83,64
148774,note_on,,,,,91,0,1,,,0,,,67,62
148775,note_on,,,,,1,0,1,,,0,,,79,67
148779,note_on,,,,,4,0,1,,,0,,,52,67
148782,note_off,,,,,3,0,1,,,0,,,55,64
148788,note_off,,,,,6,0,1,,,0,,,67,64
148799,note_off,,,,,11,0,1,,,0,,,79,64
148895,note_on,,,,,96,0,1,,,0,,,73,55
148895,note_on,,,,,0,0,1,,,0,,,85,80
148899,note_on,,,,,4,0,1,,,0,,,57,52
148905,note_off,,,,,6,0,1,,,0,,,52,64
148913,note_off,,,,,8,0,1,,,0,,,73,64
148917,note_off,,,,,0,0,1,,,0,,,85,64
148917,note_off,,,,,4,0,1,,,0,,,57,64
149010,control_change,,,,,93,0,1,,,0,64,96,,
149016,control_change,,,,,6,0,1,,,0,64,0,,
149024,note_on,,,,,8,0,1,,,0,,,86,70
149027,note_on,,,,,3,0,1,,,0,,,74,62
149030,note_on,,,,,0,0,1,,,0,,,62,50
149030,note_on,,,,,3,0,1,,,0,,,54,63
149041,control_change,,,,,11,0,1,,,0,64,64,,
149042,note_off,,,,,1,0,1,,,0,,,86,64
149045,note_off,,,,,3,0,1,,,0,,,74,64
149049,control_change,,,,,4,0,1,,,0,64,127,,
149138,note_off,,,,,89,0,1,,,0,,,62,64
149146,note_on,,,,,8,0,1,,,0,,,81,62
149146,note_on,,,,,0,0,1,,,0,,,69,52
149155,note_off,,,,,9,0,1,,,0,,,54,64
149157,note_on,,,,,2,0,1,,,0,,,50,52
149165,note_off,,,,,8,0,1,,,0,,,69,64
149167,note_off,,,,,2,0,1,,,0,,,81,64
149270,note_on,,,,,103,0,1,,,0,,,66,40
149270,note_on,,,,,0,0,1,,,0,,,78,55
149278,note_off,,,,,8,0,1,,,0,,,66,64
149278,note_on,,,,,0,0,1,,,0,,,54,47
149283,note_off,,,,,5,0,1,,,0,,,50,64
149287,note_off,,,,,4,0,1,,,0,,,78,64
149331,note_off,,,,,44,0,1,,,0,,,54,64
149377,control_change,,,,,46,0,1,,,0,64,96,,
149381,control_change,,,,,4,0,1,,,0,64,64,,
149387,control_change,,,,,6,0,1,,,0,64,0,,
149394,note_on,,,,,7,0,1,,,0,,,83,67
149397,note_on,,,,,3,0,1,,,0,,,71,52
149400,note_on,,,,,0,0,1,,,0,,,62,31
149400,note_on,,,,,3,0,1,,,0,,,55,47
149405,control_change,,,,,5,0,1,,,0,64,64,,
149411,control_change,,,,,6,0,1,,,0,64,127,,
149416,note_off,,,,,5,0,1,,,0,,,71,64
149418,note_off,,,,,2,0,1,,,0,,,83,64
149510,note_on,,,,,92,0,1,,,0,,,67,52
149514,note_on,,,,,0,0,1,,,0,,,79,62
149514,note_on,,,,,0,0,1,,,0,,,52,52
149514,note_off,,,,,4,0,1,,,0,,,55,64
149523,note_off,,,,,9,0,1,,,0,,,67,64
149531,note_off,,,,,8,0,1,,,0,,,79,64
149625,note_off,,,,,94,0,1,,,0,,,62,64
149632,note_on,,,,,7,0,1,,,0,,,85,80
149636,note_on,,,,,4,0,1,,,0,,,73,55
149639,note_on,,,,,0,0,1,,,0,,,57,50
149639,note_off,,,,,3,0,1,,,0,,,52,64
149645,note_off,,,,,6,0,1,,,0,,,73,64
149653,note_off,,,,,0,0,1,,,0,,,85,64
149653,note_off,,,,,8,0,1,,,0,,,57,64
149727,control_change,,,,,74,0,1,,,0,64,96,,
149732,control_change,,,,,5,0,1,,,0,64,64,,
149738,control_change,,,,,6,0,1,,,0,64,0,,
149748,note_on,,,,,10,0,1,,,0,,,86,70
149751,note_on,,,,,3,0,1,,,0,,,74,62
149755,note_on,,,,,4,0,1,,,0,,,54,47
149755,note_on,,,,,0,0,1,,,0,,,62,29
149763,control_change,,,,,8,0,1,,,0,64,96,,
149769,control_change,,,,,6,0,1,,,0,64,127,,
149770,note_off,,,,,1,0,1,,,0,,,86,64
149770,note_off,,,,,0,0,1,,,0,,,74,64
149822,note_off,,,,,52,0,1,,,0,,,62,64
149872,note_on,,,,,50,0,1,,,0,,,81,56
149876,note_on,,,,,4,0,1,,,0,,,69,47
149879,note_off,,,,,3,0,1,,,0,,,54,64
149882,note_on,,,,,3,0,1,,,0,,,50,44
149887,note_off,,,,,5,0,1,,,0,,,69,64
149895,note_off,,,,,8,0,1,,,0,,,81,64
149982,note_off,,,,,87,0,1,,,0,,,50,64
149988,note_on,,,,,0,0,1,,,0,,,78,63
149988,note_on,,,,,6,0,1,,,0,,,66,44
149993,note_on,,,,,5,0,1,,,0,,,54,32
149996,note_off,,,,,3,0,1,,,0,,,66,64
150004,note_off,,,,,8,0,1,,,0,,,78,64
150036,note_off,,,,,32,0,1,,,0,,,54,64
150093,control_change,,,,,57,0,1,,,0,64,96,,
150098,control_change,,,,,5,0,1,,,0,64,64,,
150103,control_change,,,,,5,0,1,,,0,64,0,,
150107,note_on,,,,,4,0,1,,,0,,,83,59
150107,note_on,,,,,0,0,1,,,0,,,71,41
150113,note_on,,,,,6,0,1,,,0,,,55,50
150116,note_on,,,,,3,0,1,,,0,,,62,21
150122,control_change,,,,,6,0,1,,,0,64,64,,
150126,note_off,,,,,4,0,1,,,0,,,71,64
150126,note_off,,,,,0,0,1,,,0,,,83,64
150128,control_change,,,,,2,0,1,,,0,64,127,,
150221,note_on,,,,,93,0,1,,,0,,,67,50
150221,note_on,,,,,0,0,1,,,0,,,79,62
150226,note_off,,,,,5,0,1,,,0,,,55,64
150229,note_on,,,,,3,0,1,,,0,,,52,50
150234,note_off,,,,,5,0,1,,,0,,,67,64
150238,note_off,,,,,4,0,1,,,0,,,62,64
150243,note_off,,,,,5,0,1,,,0,,,79,64
150337,note_on,,,,,94,0,1,,,0,,,73,50
150338,note_on,,,,,1,0,1,,,0,,,85,68
150344,note_on,,,,,6,0,1,,,0,,,57,41
150348,note_off,,,,,4,0,1,,,0,,,52,64
150350,note_off,,,,,2,0,1,,,0,,,73,64
150358,note_off,,,,,8,0,1,,,0,,,85,64
150427,note_off,,,,,69,0,1,,,0,,,57,64
150432,control_change,,,,,5,0,1,,,0,64,96,,
150437,control_change,,,,,5,0,1,,,0,64,64,,
150443,control_change,,,,,6,0,1,,,0,64,0,,
150453,note_on,,,,,10,0,1,,,0,,,86,67
150456,note_on,,,,,3,0,1,,,0,,,62,41
150456,note_on,,,,,0,0,1,,,0,,,74,56
150463,note_on,,,,,7,0,1,,,0,,,54,50
150466,control_change,,,,,3,0,1,,,0,64,96,,
150471,control_change,,,,,5,0,1,,,0,64,127,,
150473,note_off,,,,,0,0,1,,,0,,,86,64
150473,note_off,,,,,2,0,1,,,0,,,74,64
150575,note_on,,,,,102,0,1,,,0,,,81,62
150578,note_off,,,,,0,0,1,,,0,,,54,64
150578,note_off,,,,,3,0,1,,,0,,,62,64
150581,note_on,,,,,3,0,1,,,0,,,50,41
150584,note_on,,,,,3,0,1,,,0,,,78,50
150676,note_off,,,,,92,0,1,,,0,,,78,64
150695,note_off,,,,,19,0,1,,,0,,,81,64
150700,note_on,,,,,5,0,1,,,0,,,79,50
150704,note_off,,,,,4,0,1,,,0,,,50,64
150705,note_on,,,,,1,0,1,,,0,,,55,47
150705,note_on,,,,,0,0,1,,,0,,,76,52
150809,control_change,,,,,104,0,1,,,0,64,96,,
150815,control_change,,,,,6,0,1,,,0,64,0,,
150826,note_on,,,,,0,0,1,,,0,,,78,68
150826,note_on,,,,,0,0,1,,,0,,,74,52
150826,note_off,,,,,0,0,1,,,0,,,55,64
150826,note_off,,,,,11,0,1,,,0,,,76,64
150831,note_off,,,,,5,0,1,,,0,,,79,64
150832,note_on,,,,,1,0,1,,,0,,,57,50
150839,control_change,,,,,7,0,1,,,0,64,64,,
150843,note_off,,,,,4,0,1,,,0,,,78,64
150845,control_change,,,,,2,0,1,,,0,64,127,,
150847,note_off,,,,,2,0,1,,,0,,,74,64
150952,note_on,,,,,105,0,1,,,0,,,78,50
150957,note_on,,,,,5,0,1,,,0,,,74,29
151044,note_off,,,,,87,0,1,,,0,,,74,64
151073,note_on,,,,,29,0,1,,,0,,,76,59
151078,note_on,,,,,0,0,1,,,0,,,45,41
151078,note_on,,,,,0,0,1,,,0,,,69,47
151078,note_off,,,,,5,0,1,,,0,,,78,64
151078,note_off,,,,,0,0,1,,,0,,,57,64
151088,note_off,,,,,10,0,1,,,0,,,45,64
151090,note_off,,,,,2,0,1,,,0,,,69,64
151093,note_off,,,,,3,0,1,,,0,,,76,64
151187,control_change,,,,,94,0,1,,,0,64,96,,
151192,control_change,,,,,5,0,1,,,0,64,0,,
151201,note_on,,,,,9,0,1,,,0,,,38,67
151204,note_on,,,,,3,0,1,,,0,,,66,55
151204,note_on,,,,,0,0,1,,,0,,,74,59
151213,control_change,,,,,9,0,1,,,0,64,96,,
151218,control_change,,,,,5,0,1,,,0,64,127,,
151222,note_off,,,,,4,0,1,,,0,,,66,64
151226,note_off,,,,,4,0,1,,,0,,,74,64
151320,note_on,,,,,94,0,1,,,0,,,66,35
151324,note_on,,,,,4,0,1,,,0,,,74,50
151335,note_off,,,,,11,0,1,,,0,,,66,64
151370,note_off,,,,,35,0,1,,,0,,,74,64
151442,note_off,,,,,72,0,1,,,0,,,38,64
151442,note_on,,,,,0,0,1,,,0,,,76,56
151448,note_on,,,,,6,0,1,,,0,,,69,47
151484,note_off,,,,,36,0,1,,,0,,,76,64
151541,note_off,,,,,57,0,1,,,0,,,69,64
151547,control_change,,,,,6,0,1,,,0,64,96,,
151552,control_change,,,,,5,0,1,,,0,64,64,,
151554,note_on,,,,,2,0,1,,,0,,,66,55
151557,note_on,,,,,0,0,1,,,0,,,74,62
151557,note_on,,,,,3,0,1,,,0,,,38,59
151566,control_change,,,,,9,0,1,,,0,64,96,,
151571,control_change,,,,,5,0,1,,,0,64,127,,
151573,note_off,,,,,2,0,1,,,0,,,66,64
151577,note_off,,,,,4,0,1,,,0,,,74,64
151673,note_on,,,,,96,0,1,,,0,,,66,40
151677,note_on,,,,,4,0,1,,,0,,,74,52
151688,note_off,,,,,11,0,1,,,0,,,66,64
151716,control_change,,,,,28,0,1,,,0,64,64,,
151729,note_off,,,,,13,0,1,,,0,,,74,64
151730,control_change,,,,,1,0,1,,,0,64,96,,
151752,control_change,,,,,22,0,1,,,0,64,127,,
151793,note_on,,,,,0,0,1,,,0,,,76,59
151793,note_off,,,,,41,0,1,,,0,,,38,64
151799,note_on,,,,,6,0,1,,,0,,,69,41
151824,note_off,,,,,25,0,1,,,0,,,76,64
151887,note_off,,,,,63,0,1,,,0,,,69,64
151894,control_change,,,,,7,0,1,,,0,64,96,,
151899,control_change,,,,,5,0,1,,,0,64,64,,
151901,control_change,,,,,2,0,1,,,0,64,96,,
151902,note_on,,,,,1,0,1,,,0,,,38,52
151907,note_on,,,,,0,0,1,,,0,,,66,50
151907,note_on,,,,,5,0,1,,,0,,,74,59
151914,control_change,,,,,7,0,1,,,0,64,96,,
151915,note_on,,,,,1,0,1,,,0,,,66,47
151918,note_on,,,,,0,0,1,,,0,,,74,59
151918,note_on,,,,,3,0,1,,,0,,,38,41
151920,note_off,,,,,0,0,1,,,0,,,38,64
151920,note_off,,,,,2,0,1,,,0,,,74,64
151920,note_off,,,,,0,0,1,,,0,,,66,64
151921,control_change,,,,,1,0,1,,,0,64,127,,
151932,note_off,,,,,11,0,1,,,0,,,66,64
151996,note_off,,,,,64,0,1,,,0,,,74,64
152025,note_on,,,,,29,0,1,,,0,,,76,59
152028,note_on,,,,,3,0,1,,,0,,,69,44
152047,note_off,,,,,19,0,1,,,0,,,69,64
152082,note_off,,,,,35,0,1,,,0,,,38,64
152121,note_off,,,,,39,0,1,,,0,,,76,64
152150,note_on,,,,,29,0,1,,,0,,,74,59
152153,note_on,,,,,3,0,1,,,0,,,66,44
152156,note_on,,,,,3,0,1,,,0,,,38,52
152175,note_off,,,,,19,0,1,,,0,,,66,64
152262,note_off,,,,,87,0,1,,,0,,,74,64
152276,note_on,,,,,14,0,1,,,0,,,76,62
152276,note_on,,,,,0,0,1,,,0,,,69,44
152293,note_off,,,,,17,0,1,,,0,,,38,64
152300,note_off,,,,,7,0,1,,,0,,,69,64
152387,note_off,,,,,87,0,1,,,0,,,76,64
152396,note_on,,,,,9,0,1,,,0,,,74,47
152397,note_on,,,,,1,0,1,,,0,,,66,50
152400,note_on,,,,,3,0,1,,,0,,,38,44
152418,note_off,,,,,18,0,1,,,0,,,66,64
152499,note_off,,,,,81,0,1,,,0,,,74,64
152516,note_on,,,,,17,0,1,,,0,,,69,34
152519,note_on,,,,,3,0,1,,,0,,,76,62
152536,note_off,,,,,17,0,1,,,0,,,69,64
152549,note_off,,,,,13,0,1,,,0,,,38,64
152626,note_off,,,,,77,0,1,,,0,,,76,64
152640,note_on,,,,,14,0,1,,,0,,,74,44
152640,note_on,,,,,0,0,1,,,0,,,74,56
152646,note_on,,,,,6,0,1,,,0,,,66,50
152649,note_on,,,,,3,0,1,,,0,,,38,56
152662,note_off,,,,,13,0,1,,,0,,,74,64
152670,note_on,,,,,8,0,1,,,0,,,76,34
152692,note_off,,,,,22,0,1,,,0,,,76,64
152700,note_on,,,,,8,0,1,,,0,,,74,34
152722,note_off,,,,,22,0,1,,,0,,,74,64
152730,note_on,,,,,8,0,1,,,0,,,76,34
152752,note_off,,,,,22,0,1,,,0,,,76,64
152760,note_on,,,,,8,0,1,,,0,,,74,32
152782,note_off,,,,,22,0,1,,,0,,,74,64
152790,note_on,,,,,8,0,1,,,0,,,76,34
152812,note_off,,,,,22,0,1,,,0,,,76,64
152820,note_on,,,,,8,0,1,,,0,,,74,36
152842,note_off,,,,,22,0,1,,,0,,,74,64
152850,note_on,,,,,8,0,1,,,0,,,76,36
152854,note_off,,,,,4,0,1,,,0,,,38,64
152858,note_off,,,,,4,0,1,,,0,,,66,64
152872,note_off,,,,,14,0,1,,,0,,,76,64
152880,note_on,,,,,8,0,1,,,0,,,74,36
152898,note_off,,,,,18,0,1,,,0,,,74,64
152902,note_off,,,,,4,0,1,,,0,,,74,64
152910,note_on,,,,,8,0,1,,,0,,,76,34
152932,note_off,,,,,22,0,1,,,0,,,76,64
152940,note_on,,,,,8,0,1,,,0,,,74,32
152962,note_off,,,,,22,0,1,,,0,,,74,64
152970,note_on,,,,,8,0,1,,,0,,,76,36
152992,note_off,,,,,22,0,1,,,0,,,76,64
153000,note_on,,,,,8,0,1,,,0,,,74,41
153036,control_change,,,,,36,0,1,,,0,64,96,,
153040,control_change,,,,,4,0,1,,,0,64,64,,
153048,control_change,,,,,8,0,1,,,0,64,0,,
153332,note_off,,,,,284,0,1,,,0,,,74,64
153332,end_of_track,,,,,0,1,1,,,,,,,
