tick,type,numerator,denominator,clocks_per_click,notated_32nd_notes_per_beat,time,meta,track,tempo,program,channel,control,value,note,velocity
0,time_signature,6,8,12,8,0,1,0,,,,,,,
0,control_change,,,,,0,0,1,,,0,7,127,,
0,note_on,,,,,0,0,1,,,0,,,83,47
0,track_name,,,,,0,1,10,,,,,,,
0,track_name,,,,,0,1,2,,,,,,,
0,program_change,,,,,0,0,2,,0,0,,,,
0,control_change,,,,,0,0,2,,,0,7,127,,
0,note_on,,,,,0,0,2,,,0,,,40,59
0,track_name,,,,,0,1,3,,,,,,,
0,program_change,,,,,0,0,3,,0,0,,,,
0,control_change,,,,,0,0,3,,,0,7,127,,
0,program_change,,,,,0,0,1,,0,0,,,,
0,track_name,,,,,0,1,4,,,,,,,
0,track_name,,,,,0,1,5,,,,,,,
0,end_of_track,,,,,0,1,5,,,,,,,
0,track_name,,,,,0,1,6,,,,,,,
0,end_of_track,,,,,0,1,6,,,,,,,
0,track_name,,,,,0,1,7,,,,,,,
0,end_of_track,,,,,0,1,7,,,,,,,
0,track_name,,,,,0,1,8,,,,,,,
0,end_of_track,,,,,0,1,8,,,,,,,
0,track_name,,,,,0,1,9,,,,,,,
0,end_of_track,,,,,0,1,9,,,,,,,
0,program_change,,,,,0,0,4,,0,0,,,,
0,track_name,,,,,0,1,1,,,,,,,
0,end_of_track,,,,,0,1,10,,,,,,,
0,set_tempo,,,,,0,1,0,262009,,,,,,
0,marker,,,,,0,1,0,,,,,,,
96,note_off,,,,,96,0,1,,,0,,,83,64
120,note_on,,,,,24,0,1,,,0,,,80,38
216,note_off,,,,,96,0,1,,,0,,,80,64
240,note_on,,,,,24,0,1,,,0,,,76,34
279,control_change,,,,,279,0,4,,,0,64,64,,
288,note_off,,,,,288,0,2,,,0,,,40,64
336,note_off,,,,,96,0,1,,,0,,,76,64
345,control_change,,,,,66,0,4,,,0,64,96,,
360,note_on,,,,,24,0,1,,,0,,,71,44
456,note_off,,,,,96,0,1,,,0,,,71,64
460,control_change,,,,,115,0,4,,,0,64,127,,
480,note_on,,,,,24,0,1,,,0,,,68,38
576,note_off,,,,,96,0,1,,,0,,,68,64
600,note_on,,,,,24,0,1,,,0,,,71,47
696,note_off,,,,,96,0,1,,,0,,,71,64
720,note_on,,,,,24,0,1,,,0,,,73,55
720,note_on,,,,,432,0,2,,,0,,,69,52
816,note_off,,,,,96,0,2,,,0,,,69,64
840,note_on,,,,,24,0,2,,,0,,,64,42
936,note_off,,,,,96,0,2,,,0,,,64,64
960,note_on,,,,,24,0,2,,,0,,,61,54
999,control_change,,,,,539,0,4,,,0,64,96,,
1008,note_off,,,,,288,0,1,,,0,,,73,64
1015,control_change,,,,,16,0,4,,,0,64,64,,
1056,note_off,,,,,96,0,2,,,0,,,61,64
1062,control_change,,,,,47,0,4,,,0,64,0,,
1080,note_on,,,,,72,0,1,,,0,,,81,52
1080,note_on,,,,,24,0,2,,,0,,,57,52
1176,note_off,,,,,96,0,2,,,0,,,57,64
1200,note_on,,,,,24,0,2,,,0,,,52,52
1296,note_off,,,,,96,0,2,,,0,,,52,64
1320,note_on,,,,,24,0,2,,,0,,,45,47
1368,note_off,,,,,288,0,1,,,0,,,81,64
1416,note_off,,,,,96,0,2,,,0,,,45,64
1440,note_on,,,,,24,0,2,,,0,,,35,62
1440,note_on,,,,,72,0,1,,,0,,,81,41
1536,note_off,,,,,96,0,1,,,0,,,81,64
1560,note_on,,,,,24,0,1,,,0,,,81,41
1656,note_off,,,,,96,0,1,,,0,,,81,64
1680,note_on,,,,,24,0,1,,,0,,,80,47
1776,note_off,,,,,96,0,1,,,0,,,80,64
1800,note_on,,,,,1800,0,3,,,0,,,78,50
1800,note_on,,,,,24,0,1,,,0,,,78,58
1824,note_off,,,,,24,0,3,,,0,,,78,64
1830,note_on,,,,,6,0,3,,,0,,,80,58
1854,note_off,,,,,24,0,3,,,0,,,80,64
1860,note_on,,,,,6,0,3,,,0,,,78,58
1884,note_off,,,,,24,0,3,,,0,,,78,64
1896,note_off,,,,,96,0,1,,,0,,,78,64
1920,note_on,,,,,24,0,1,,,0,,,76,50
2016,note_off,,,,,576,0,2,,,0,,,35,64
2016,note_off,,,,,96,0,1,,,0,,,76,64
2040,note_on,,,,,24,0,1,,,0,,,75,55
2136,note_off,,,,,96,0,1,,,0,,,75,64
2160,note_on,,,,,144,0,2,,,0,,,40,59
2160,note_on,,,,,24,0,1,,,0,,,76,62
2256,note_off,,,,,96,0,1,,,0,,,76,64
2280,note_on,,,,,24,0,1,,,0,,,71,41
2376,note_off,,,,,96,0,1,,,0,,,71,64
2400,note_on,,,,,24,0,1,,,0,,,68,50
2448,note_off,,,,,288,0,2,,,0,,,40,64
2496,note_off,,,,,96,0,1,,,0,,,68,64
2520,note_on,,,,,24,0,1,,,0,,,64,55
2616,note_off,,,,,96,0,1,,,0,,,64,64
2640,note_on,,,,,192,0,2,,,0,,,59,54
2736,note_off,,,,,96,0,2,,,0,,,59,64
2760,note_on,,,,,24,0,2,,,0,,,56,48
2856,note_off,,,,,96,0,2,,,0,,,56,64
2880,note_on,,,,,24,0,2,,,0,,,52,25
2880,note_on,,,,,264,0,1,,,0,,,83,25
2940,control_change,,,,,1878,0,4,,,0,64,64,,
2976,note_off,,,,,96,0,1,,,0,,,83,64
2999,control_change,,,,,59,0,4,,,0,64,96,,
3000,note_on,,,,,24,0,1,,,0,,,80,23
3059,control_change,,,,,60,0,4,,,0,64,127,,
3096,note_off,,,,,96,0,1,,,0,,,80,64
3120,note_on,,,,,24,0,1,,,0,,,76,20
3168,note_off,,,,,288,0,2,,,0,,,52,64
3216,note_off,,,,,96,0,1,,,0,,,76,64
3240,note_on,,,,,24,0,1,,,0,,,71,26
3336,note_off,,,,,96,0,1,,,0,,,71,64
3360,note_on,,,,,24,0,1,,,0,,,68,20
3456,note_off,,,,,96,0,1,,,0,,,68,64
3480,note_on,,,,,24,0,1,,,0,,,71,25
3576,note_off,,,,,96,0,1,,,0,,,71,64
3600,note_on,,,,,432,0,2,,,0,,,69,22
3600,note_on,,,,,24,0,1,,,0,,,73,25
3696,note_off,,,,,96,0,2,,,0,,,69,64
3720,note_on,,,,,24,0,2,,,0,,,64,26
3816,note_off,,,,,96,0,2,,,0,,,64,64
3840,note_on,,,,,24,0,2,,,0,,,61,25
3888,note_off,,,,,288,0,1,,,0,,,73,64
3936,note_off,,,,,96,0,2,,,0,,,61,64
3960,note_on,,,,,72,0,1,,,0,,,81,31
3960,note_on,,,,,24,0,2,,,0,,,57,25
4056,note_off,,,,,96,0,2,,,0,,,57,64
4080,note_on,,,,,24,0,2,,,0,,,52,26
4176,note_off,,,,,96,0,2,,,0,,,52,64
4200,note_on,,,,,24,0,2,,,0,,,45,26
4248,note_off,,,,,288,0,1,,,0,,,81,64
4296,note_off,,,,,96,0,2,,,0,,,45,64
4320,note_on,,,,,24,0,2,,,0,,,35,23
4320,note_on,,,,,72,0,1,,,0,,,81,26
4334,control_change,,,,,1275,0,4,,,0,64,96,,
4364,control_change,,,,,30,0,4,,,0,64,0,,
4416,note_off,,,,,96,0,1,,,0,,,81,64
4440,note_on,,,,,24,0,1,,,0,,,81,31
4536,note_off,,,,,96,0,1,,,0,,,81,64
4560,note_on,,,,,24,0,1,,,0,,,80,31
4656,note_off,,,,,96,0,1,,,0,,,80,64
4680,note_on,,,,,2796,0,3,,,0,,,78,22
4680,note_on,,,,,24,0,1,,,0,,,78,31
4704,note_off,,,,,24,0,3,,,0,,,78,64
4710,note_on,,,,,6,0,3,,,0,,,80,23
4734,note_off,,,,,24,0,3,,,0,,,80,64
4740,note_on,,,,,6,0,3,,,0,,,78,27
4764,note_off,,,,,24,0,3,,,0,,,78,64
4776,note_off,,,,,96,0,1,,,0,,,78,64
4800,note_on,,,,,24,0,1,,,0,,,76,28
4896,note_off,,,,,576,0,2,,,0,,,35,64
4896,note_off,,,,,96,0,1,,,0,,,76,64
4920,note_on,,,,,24,0,1,,,0,,,75,25
5016,note_off,,,,,96,0,1,,,0,,,75,64
5040,note_on,,,,,144,0,2,,,0,,,40,25
5040,note_on,,,,,24,0,1,,,0,,,76,28
5136,note_off,,,,,96,0,1,,,0,,,76,64
5160,note_on,,,,,24,0,1,,,0,,,71,23
5256,note_off,,,,,96,0,1,,,0,,,71,64
5280,note_on,,,,,24,0,1,,,0,,,68,22
5376,note_off,,,,,96,0,1,,,0,,,68,64
5400,note_on,,,,,24,0,1,,,0,,,64,23
5496,note_off,,,,,96,0,1,,,0,,,64,64
5520,note_on,,,,,24,0,1,,,0,,,59,22
5616,note_off,,,,,576,0,2,,,0,,,40,64
5616,note_off,,,,,96,0,1,,,0,,,59,64
5640,note_on,,,,,24,0,1,,,0,,,56,25
5736,note_off,,,,,96,0,1,,,0,,,56,64
5760,note_on,,,,,144,0,2,,,0,,,52,47
5856,note_off,,,,,96,0,2,,,0,,,52,64
5880,note_on,,,,,24,0,2,,,0,,,47,47
5976,note_off,,,,,96,0,2,,,0,,,47,64
6000,note_on,,,,,24,0,2,,,0,,,44,50
6096,note_off,,,,,96,0,2,,,0,,,44,64
6120,note_on,,,,,24,0,2,,,0,,,40,52
6216,note_off,,,,,96,0,2,,,0,,,40,64
6240,note_on,,,,,24,0,2,,,0,,,44,55
6336,note_off,,,,,96,0,2,,,0,,,44,64
6360,note_on,,,,,24,0,2,,,0,,,47,44
6456,note_off,,,,,96,0,2,,,0,,,47,64
6480,note_on,,,,,24,0,2,,,0,,,52,29
6480,note_on,,,,,744,0,1,,,0,,,64,22
6576,note_off,,,,,96,0,1,,,0,,,64,64
6600,note_on,,,,,24,0,1,,,0,,,59,23
6696,note_off,,,,,96,0,1,,,0,,,59,64
6720,note_on,,,,,24,0,1,,,0,,,66,31
6768,note_off,,,,,288,0,2,,,0,,,52,64
6816,note_off,,,,,96,0,1,,,0,,,66,64
6840,note_on,,,,,24,0,1,,,0,,,68,41
6936,note_off,,,,,96,0,1,,,0,,,68,64
6960,note_on,,,,,24,0,1,,,0,,,59,37
7056,note_off,,,,,96,0,1,,,0,,,59,64
7080,note_on,,,,,24,0,1,,,0,,,69,45
7176,note_off,,,,,96,0,1,,,0,,,69,64
7200,note_on,,,,,24,0,1,,,0,,,71,59
7200,note_on,,,,,432,0,2,,,0,,,52,23
7296,note_off,,,,,96,0,2,,,0,,,52,64
7320,note_on,,,,,24,0,2,,,0,,,47,32
7416,note_off,,,,,96,0,2,,,0,,,47,64
7440,note_on,,,,,24,0,2,,,0,,,54,33
7536,note_off,,,,,96,0,2,,,0,,,54,64
7560,note_on,,,,,24,0,2,,,0,,,56,44
7656,note_off,,,,,96,0,2,,,0,,,56,64
7680,note_on,,,,,24,0,2,,,0,,,47,46
7776,note_off,,,,,96,0,2,,,0,,,47,64
7776,note_off,,,,,576,0,1,,,0,,,71,64
7800,note_on,,,,,24,0,2,,,0,,,57,56
7896,note_off,,,,,96,0,2,,,0,,,57,64
7920,note_on,,,,,24,0,2,,,0,,,59,63
7920,note_on,,,,,144,0,1,,,0,,,71,22
8016,note_off,,,,,96,0,1,,,0,,,71,64
8040,note_on,,,,,24,0,1,,,0,,,66,27
8136,note_off,,,,,96,0,1,,,0,,,66,64
8160,note_on,,,,,24,0,1,,,0,,,73,38
8256,note_off,,,,,96,0,1,,,0,,,73,64
8280,note_on,,,,,24,0,1,,,0,,,75,37
8376,note_off,,,,,96,0,1,,,0,,,75,64
8400,note_on,,,,,24,0,1,,,0,,,66,36
8496,note_off,,,,,576,0,2,,,0,,,59,64
8496,note_off,,,,,96,0,1,,,0,,,66,64
8520,note_on,,,,,24,0,1,,,0,,,76,53
8616,note_off,,,,,96,0,1,,,0,,,76,64
8640,note_on,,,,,144,0,2,,,0,,,59,24
8640,note_on,,,,,24,0,1,,,0,,,78,55
8736,note_off,,,,,96,0,2,,,0,,,59,64
8760,note_on,,,,,24,0,2,,,0,,,54,29
8856,note_off,,,,,96,0,2,,,0,,,54,64
8880,note_on,,,,,24,0,2,,,0,,,61,38
8976,note_off,,,,,96,0,2,,,0,,,61,64
9000,note_on,,,,,24,0,2,,,0,,,63,47
9096,note_off,,,,,96,0,2,,,0,,,63,64
9120,note_on,,,,,24,0,2,,,0,,,54,45
9216,note_off,,,,,96,0,2,,,0,,,54,64
9216,note_off,,,,,576,0,1,,,0,,,78,64
9240,note_on,,,,,24,0,2,,,0,,,64,42
9336,note_off,,,,,96,0,2,,,0,,,64,64
9360,note_on,,,,,24,0,2,,,0,,,66,55
9360,note_on,,,,,144,0,1,,,0,,,78,58
9456,note_off,,,,,96,0,1,,,0,,,78,64
9480,note_on,,,,,24,0,1,,,0,,,69,47
9576,note_off,,,,,96,0,1,,,0,,,69,64
9600,note_on,,,,,24,0,1,,,0,,,68,44
9648,note_off,,,,,288,0,2,,,0,,,66,64
9696,note_off,,,,,96,0,1,,,0,,,68,64
9720,note_on,,,,,72,0,2,,,0,,,64,64
9720,note_on,,,,,24,0,1,,,0,,,69,52
9816,note_off,,,,,96,0,1,,,0,,,69,64
9840,note_on,,,,,24,0,1,,,0,,,68,47
9936,note_off,,,,,96,0,1,,,0,,,68,64
9960,note_on,,,,,24,0,1,,,0,,,69,50
10008,note_off,,,,,288,0,2,,,0,,,64,64
10056,note_off,,,,,96,0,1,,,0,,,69,64
10080,note_on,,,,,72,0,2,,,0,,,63,58
10080,note_on,,,,,24,0,1,,,0,,,78,58
10080,note_on,,,,,0,0,2,,,0,,,66,44
10176,note_off,,,,,96,0,1,,,0,,,78,64
10200,note_on,,,,,24,0,1,,,0,,,69,47
10296,note_off,,,,,96,0,1,,,0,,,69,64
10320,note_on,,,,,24,0,1,,,0,,,68,44
10368,note_off,,,,,288,0,2,,,0,,,66,64
10368,note_off,,,,,0,0,2,,,0,,,63,64
10416,note_off,,,,,96,0,1,,,0,,,68,64
10440,note_on,,,,,72,0,2,,,0,,,61,54
10440,note_on,,,,,24,0,1,,,0,,,69,59
10536,note_off,,,,,96,0,1,,,0,,,69,64
10560,note_on,,,,,24,0,1,,,0,,,68,38
10656,note_off,,,,,96,0,1,,,0,,,68,64
10680,note_on,,,,,24,0,1,,,0,,,69,59
10728,note_off,,,,,288,0,2,,,0,,,61,64
10776,note_off,,,,,96,0,1,,,0,,,69,64
10800,note_on,,,,,24,0,1,,,0,,,78,55
10800,note_on,,,,,0,0,2,,,0,,,66,44
10800,note_on,,,,,72,0,2,,,0,,,59,48
10896,note_off,,,,,96,0,1,,,0,,,78,64
10920,note_on,,,,,24,0,1,,,0,,,69,50
11016,note_off,,,,,96,0,1,,,0,,,69,64
11040,note_on,,,,,24,0,1,,,0,,,68,44
11136,note_off,,,,,96,0,1,,,0,,,68,64
11160,note_on,,,,,24,0,1,,,0,,,69,56
11256,note_off,,,,,96,0,1,,,0,,,69,64
11280,note_on,,,,,24,0,1,,,0,,,68,47
11376,note_off,,,,,0,0,2,,,0,,,59,64
11376,note_off,,,,,576,0,2,,,0,,,66,64
11376,note_off,,,,,96,0,1,,,0,,,68,64
11400,note_on,,,,,24,0,1,,,0,,,69,56
11496,note_off,,,,,96,0,1,,,0,,,69,64
11520,note_on,,,,,144,0,2,,,0,,,59,56
11520,note_on,,,,,24,0,1,,,0,,,78,55
11616,note_off,,,,,96,0,1,,,0,,,78,64
11640,note_on,,,,,24,0,1,,,0,,,84,52
11736,note_off,,,,,96,0,1,,,0,,,84,64
11760,note_on,,,,,24,0,1,,,0,,,83,47
11808,note_off,,,,,288,0,2,,,0,,,59,64
11856,note_off,,,,,96,0,1,,,0,,,83,64
11880,note_on,,,,,72,0,2,,,0,,,47,59
11880,note_on,,,,,24,0,1,,,0,,,81,52
11976,note_off,,,,,96,0,1,,,0,,,81,64
12000,note_on,,,,,24,0,1,,,0,,,79,52
12096,note_off,,,,,96,0,1,,,0,,,79,64
12120,note_on,,,,,24,0,1,,,0,,,78,47
12168,note_off,,,,,288,0,2,,,0,,,47,64
12216,note_off,,,,,96,0,1,,,0,,,78,64
12240,note_on,,,,,24,0,1,,,0,,,76,20
12240,note_on,,,,,0,0,2,,,0,,,60,25
12240,note_on,,,,,72,0,2,,,0,,,64,29
12336,note_off,,,,,96,0,1,,,0,,,76,64
12360,note_on,,,,,24,0,1,,,0,,,69,22
12456,note_off,,,,,96,0,1,,,0,,,69,64
12480,note_on,,,,,24,0,1,,,0,,,68,19
12576,note_off,,,,,96,0,1,,,0,,,68,64
12600,note_on,,,,,24,0,1,,,0,,,69,22
12696,note_off,,,,,96,0,1,,,0,,,69,64
12720,note_on,,,,,24,0,1,,,0,,,68,19
12816,note_off,,,,,576,0,2,,,0,,,60,64
12816,note_off,,,,,96,0,1,,,0,,,68,64
12816,note_off,,,,,0,0,2,,,0,,,64,64
12840,note_on,,,,,24,0,1,,,0,,,69,19
12936,note_off,,,,,96,0,1,,,0,,,69,64
12960,note_on,,,,,0,0,2,,,0,,,59,21
12960,note_on,,,,,24,0,1,,,0,,,76,17
12960,note_on,,,,,144,0,2,,,0,,,64,19
13056,note_off,,,,,96,0,1,,,0,,,76,64
13080,note_on,,,,,24,0,1,,,0,,,67,25
13176,note_off,,,,,96,0,1,,,0,,,67,64
13200,note_on,,,,,24,0,1,,,0,,,66,19
13296,note_off,,,,,96,0,1,,,0,,,66,64
13320,note_on,,,,,24,0,1,,,0,,,67,20
13416,note_off,,,,,96,0,1,,,0,,,67,64
13440,note_on,,,,,24,0,1,,,0,,,66,23
13536,note_off,,,,,576,0,2,,,0,,,59,64
13536,note_off,,,,,0,0,2,,,0,,,64,64
13536,note_off,,,,,96,0,1,,,0,,,66,64
13560,note_on,,,,,24,0,1,,,0,,,67,20
13656,note_off,,,,,96,0,1,,,0,,,67,64
13680,note_on,,,,,0,0,2,,,0,,,58,23
13680,note_on,,,,,144,0,2,,,0,,,64,23
13680,note_on,,,,,24,0,1,,,0,,,76,25
13776,note_off,,,,,96,0,1,,,0,,,76,64
13800,note_on,,,,,24,0,1,,,0,,,67,19
13896,note_off,,,,,96,0,1,,,0,,,67,64
13920,note_on,,,,,24,0,1,,,0,,,66,17
14016,note_off,,,,,96,0,1,,,0,,,66,64
14040,note_on,,,,,24,0,1,,,0,,,67,18
14136,note_off,,,,,96,0,1,,,0,,,67,64
14160,note_on,,,,,24,0,1,,,0,,,66,17
14256,note_off,,,,,0,0,2,,,0,,,64,64
14256,note_off,,,,,576,0,2,,,0,,,58,64
14256,note_off,,,,,96,0,1,,,0,,,66,64
14280,note_on,,,,,24,0,1,,,0,,,67,16
14376,note_off,,,,,96,0,1,,,0,,,67,64
14400,note_on,,,,,144,0,2,,,0,,,64,37
14400,note_on,,,,,0,0,2,,,0,,,54,40
14400,note_on,,,,,0,0,2,,,0,,,61,38
14400,note_on,,,,,24,0,1,,,0,,,76,47
14496,note_off,,,,,96,0,1,,,0,,,76,64
14520,note_on,,,,,24,0,1,,,0,,,79,40
14616,note_off,,,,,96,0,1,,,0,,,79,64
14640,note_on,,,,,24,0,1,,,0,,,78,44
14736,note_off,,,,,96,0,1,,,0,,,78,64
14760,note_on,,,,,24,0,1,,,0,,,76,47
14856,note_off,,,,,96,0,1,,,0,,,76,64
14880,note_on,,,,,24,0,1,,,0,,,74,31
14976,note_off,,,,,0,0,2,,,0,,,64,64
14976,note_off,,,,,0,0,2,,,0,,,54,64
14976,note_off,,,,,576,0,2,,,0,,,61,64
14976,note_off,,,,,96,0,1,,,0,,,74,64
15000,note_on,,,,,24,0,1,,,0,,,73,35
15096,note_off,,,,,96,0,1,,,0,,,73,64
15120,note_on,,,,,0,0,2,,,0,,,55,25
15120,note_on,,,,,24,0,1,,,0,,,71,29
15120,note_on,,,,,144,0,2,,,0,,,59,25
15216,note_off,,,,,96,0,1,,,0,,,71,64
15240,note_on,,,,,24,0,1,,,0,,,62,23
15336,note_off,,,,,96,0,1,,,0,,,62,64
15360,note_on,,,,,24,0,1,,,0,,,61,22
15456,note_off,,,,,96,0,1,,,0,,,61,64
15480,note_on,,,,,24,0,1,,,0,,,62,28
15576,note_off,,,,,96,0,1,,,0,,,62,64
15600,note_on,,,,,24,0,1,,,0,,,61,27
15696,note_off,,,,,576,0,2,,,0,,,55,64
15696,note_off,,,,,0,0,2,,,0,,,59,64
15696,note_off,,,,,96,0,1,,,0,,,61,64
15720,note_on,,,,,24,0,1,,,0,,,62,29
15816,note_off,,,,,96,0,1,,,0,,,62,64
15840,note_on,,,,,144,0,2,,,0,,,59,28
15840,note_on,,,,,0,0,2,,,0,,,54,31
15840,note_on,,,,,24,0,1,,,0,,,71,31
15936,note_off,,,,,96,0,1,,,0,,,71,64
15960,note_on,,,,,24,0,1,,,0,,,62,25
16056,note_off,,,,,96,0,1,,,0,,,62,64
16080,note_on,,,,,24,0,1,,,0,,,61,25
16176,note_off,,,,,96,0,1,,,0,,,61,64
16200,note_on,,,,,24,0,1,,,0,,,62,28
16296,note_off,,,,,96,0,1,,,0,,,62,64
16320,note_on,,,,,24,0,1,,,0,,,61,29
16416,note_off,,,,,576,0,2,,,0,,,54,64
16416,note_off,,,,,96,0,1,,,0,,,61,64
16416,note_off,,,,,0,0,2,,,0,,,59,64
16440,note_on,,,,,24,0,1,,,0,,,62,29
16536,note_off,,,,,96,0,1,,,0,,,62,64
16560,note_on,,,,,144,0,2,,,0,,,59,27
16560,note_on,,,,,24,0,1,,,0,,,71,28
16560,note_on,,,,,0,0,2,,,0,,,53,27
16656,note_off,,,,,96,0,1,,,0,,,71,64
16680,note_on,,,,,24,0,1,,,0,,,62,25
16776,note_off,,,,,96,0,1,,,0,,,62,64
16800,note_on,,,,,24,0,1,,,0,,,61,22
16896,note_off,,,,,96,0,1,,,0,,,61,64
16920,note_on,,,,,24,0,1,,,0,,,62,25
17016,note_off,,,,,96,0,1,,,0,,,62,64
17040,note_on,,,,,24,0,1,,,0,,,61,25
17136,note_off,,,,,576,0,2,,,0,,,53,64
17136,note_off,,,,,0,0,2,,,0,,,59,64
17136,note_off,,,,,96,0,1,,,0,,,61,64
17160,note_on,,,,,24,0,1,,,0,,,62,28
17256,note_off,,,,,96,0,1,,,0,,,62,64
17280,note_on,,,,,24,0,1,,,0,,,71,14
17280,note_on,,,,,0,0,2,,,0,,,56,12
17280,note_on,,,,,144,0,2,,,0,,,49,12
17280,note_on,,,,,0,0,2,,,0,,,59,12
17376,note_off,,,,,96,0,1,,,0,,,71,64
17400,note_on,,,,,24,0,1,,,0,,,74,23
17496,note_off,,,,,96,0,1,,,0,,,74,64
17520,note_on,,,,,24,0,1,,,0,,,73,27
17616,note_off,,,,,96,0,1,,,0,,,73,64
17640,note_on,,,,,24,0,1,,,0,,,71,35
17736,note_off,,,,,96,0,1,,,0,,,71,64
17760,note_on,,,,,24,0,1,,,0,,,70,34
17856,note_off,,,,,96,0,1,,,0,,,70,64
17856,note_off,,,,,576,0,2,,,0,,,56,64
17856,note_off,,,,,0,0,2,,,0,,,59,64
17856,note_off,,,,,0,0,2,,,0,,,49,64
17880,note_on,,,,,24,0,1,,,0,,,71,49
17976,note_off,,,,,96,0,1,,,0,,,71,64
18000,note_on,,,,,24,0,1,,,0,,,78,63
18000,note_on,,,,,144,0,2,,,0,,,42,58
18000,note_on,,,,,0,0,2,,,0,,,54,55
18000,note_on,,,,,0,0,2,,,0,,,49,55
18096,note_off,,,,,96,0,1,,,0,,,78,64
18120,note_on,,,,,24,0,1,,,0,,,73,50
18216,note_off,,,,,96,0,1,,,0,,,73,64
18240,note_on,,,,,24,0,1,,,0,,,70,47
18336,note_off,,,,,96,0,1,,,0,,,70,64
18360,note_on,,,,,24,0,1,,,0,,,66,47
18456,note_off,,,,,96,0,1,,,0,,,66,64
18480,note_on,,,,,24,0,1,,,0,,,61,48
18576,note_off,,,,,0,0,2,,,0,,,54,64
18576,note_off,,,,,96,0,1,,,0,,,61,64
18576,note_off,,,,,0,0,2,,,0,,,42,64
18576,note_off,,,,,576,0,2,,,0,,,49,64
18600,note_on,,,,,24,0,1,,,0,,,58,47
18696,note_off,,,,,96,0,1,,,0,,,58,64
18720,note_on,,,,,144,0,2,,,0,,,54,58
18747,control_change,,,,,14383,0,4,,,0,64,64,,
18788,control_change,,,,,41,0,4,,,0,64,96,,
18816,note_off,,,,,96,0,2,,,0,,,54,64
18840,note_on,,,,,24,0,2,,,0,,,49,38
18892,control_change,,,,,104,0,4,,,0,64,127,,
18936,note_off,,,,,96,0,2,,,0,,,49,64
18960,note_on,,,,,24,0,2,,,0,,,46,39
19056,note_off,,,,,96,0,2,,,0,,,46,64
19080,note_on,,,,,24,0,2,,,0,,,42,47
19176,note_off,,,,,96,0,2,,,0,,,42,64
19200,note_on,,,,,24,0,2,,,0,,,46,39
19296,note_off,,,,,96,0,2,,,0,,,46,64
19320,note_on,,,,,24,0,2,,,0,,,49,38
19416,note_off,,,,,96,0,2,,,0,,,49,64
19440,note_on,,,,,24,0,2,,,0,,,42,58
19440,note_on,,,,,0,0,2,,,0,,,54,47
19440,note_on,,,,,744,0,1,,,0,,,78,55
19536,note_off,,,,,96,0,1,,,0,,,78,64
19560,note_on,,,,,24,0,1,,,0,,,73,32
19656,note_off,,,,,96,0,1,,,0,,,73,64
19680,note_on,,,,,24,0,1,,,0,,,70,40
19776,note_off,,,,,96,0,1,,,0,,,70,64
19800,note_on,,,,,24,0,1,,,0,,,66,44
19831,control_change,,,,,939,0,4,,,0,64,96,,
19850,control_change,,,,,19,0,4,,,0,64,64,,
19872,control_change,,,,,22,0,4,,,0,64,0,,
19896,note_off,,,,,96,0,1,,,0,,,66,64
19920,note_on,,,,,24,0,1,,,0,,,70,50
20016,note_off,,,,,0,0,2,,,0,,,42,64
20016,note_off,,,,,576,0,2,,,0,,,54,64
20016,note_off,,,,,96,0,1,,,0,,,70,64
20040,note_on,,,,,24,0,1,,,0,,,78,55
20136,note_off,,,,,96,0,1,,,0,,,78,64
20160,note_on,,,,,24,0,1,,,0,,,79,56
20160,note_on,,,,,144,0,2,,,0,,,52,50
20256,note_off,,,,,96,0,1,,,0,,,79,64
20280,note_on,,,,,24,0,1,,,0,,,67,50
20376,note_off,,,,,96,0,1,,,0,,,67,64
20400,note_on,,,,,24,0,1,,,0,,,70,47
20448,note_off,,,,,288,0,2,,,0,,,52,64
20496,note_off,,,,,96,0,1,,,0,,,70,64
20520,note_on,,,,,72,0,2,,,0,,,49,55
20520,note_on,,,,,24,0,1,,,0,,,82,58
20616,note_off,,,,,96,0,1,,,0,,,82,64
20640,note_on,,,,,24,0,1,,,0,,,70,47
20736,note_off,,,,,96,0,1,,,0,,,70,64
20760,note_on,,,,,24,0,1,,,0,,,73,47
20808,note_off,,,,,288,0,2,,,0,,,49,64
20856,note_off,,,,,96,0,1,,,0,,,73,64
20880,note_on,,,,,24,0,1,,,0,,,83,70
20880,note_on,,,,,72,0,2,,,0,,,50,47
20976,note_off,,,,,96,0,1,,,0,,,83,64
21000,note_on,,,,,24,0,1,,,0,,,71,56
21096,note_off,,,,,96,0,1,,,0,,,71,64
21120,note_on,,,,,24,0,1,,,0,,,74,56
21168,note_off,,,,,288,0,2,,,0,,,50,64
21216,note_off,,,,,96,0,1,,,0,,,74,64
21240,note_on,,,,,72,0,2,,,0,,,47,52
21240,note_on,,,,,24,0,1,,,0,,,78,55
21336,note_off,,,,,96,0,1,,,0,,,78,64
21360,note_on,,,,,24,0,1,,,0,,,76,56
21456,note_off,,,,,96,0,1,,,0,,,76,64
21480,note_on,,,,,24,0,1,,,0,,,74,50
21528,note_off,,,,,288,0,2,,,0,,,47,64
21576,note_off,,,,,96,0,1,,,0,,,74,64
21600,note_on,,,,,72,0,2,,,0,,,52,56
21600,note_on,,,,,24,0,1,,,0,,,73,55
21696,note_off,,,,,96,0,1,,,0,,,73,64
21720,note_on,,,,,24,0,1,,,0,,,74,52
21816,note_off,,,,,96,0,1,,,0,,,74,64
21840,note_on,,,,,24,0,1,,,0,,,76,50
21888,note_off,,,,,288,0,2,,,0,,,52,64
21936,note_off,,,,,96,0,1,,,0,,,76,64
21960,note_on,,,,,24,0,1,,,0,,,74,59
21960,note_on,,,,,72,0,2,,,0,,,55,59
22056,note_off,,,,,96,0,1,,,0,,,74,64
22080,note_on,,,,,24,0,1,,,0,,,73,50
22176,note_off,,,,,96,0,1,,,0,,,73,64
22200,note_on,,,,,24,0,1,,,0,,,71,52
22248,note_off,,,,,288,0,2,,,0,,,55,64
22296,note_off,,,,,96,0,1,,,0,,,71,64
22320,note_on,,,,,72,0,2,,,0,,,42,58
22320,note_on,,,,,24,0,1,,,0,,,78,58
22350,control_change,,,,,2478,0,4,,,0,64,64,,
22367,control_change,,,,,17,0,4,,,0,64,96,,
22416,note_off,,,,,96,0,1,,,0,,,78,64
22435,control_change,,,,,68,0,4,,,0,64,127,,
22440,note_on,,,,,24,0,1,,,0,,,73,55
22536,note_off,,,,,96,0,1,,,0,,,73,64
22560,note_on,,,,,24,0,1,,,0,,,70,50
22656,note_off,,,,,96,0,1,,,0,,,70,64
22680,note_on,,,,,24,0,1,,,0,,,66,50
22776,note_off,,,,,96,0,1,,,0,,,66,64
22800,note_on,,,,,24,0,1,,,0,,,61,54
22896,note_off,,,,,96,0,1,,,0,,,61,64
22896,note_off,,,,,576,0,2,,,0,,,42,64
22920,note_on,,,,,24,0,1,,,0,,,58,47
23016,note_off,,,,,96,0,1,,,0,,,58,64
23040,note_on,,,,,144,0,2,,,0,,,54,55
23136,note_off,,,,,96,0,2,,,0,,,54,64
23160,note_on,,,,,24,0,2,,,0,,,49,44
23256,note_off,,,,,96,0,2,,,0,,,49,64
23280,note_on,,,,,24,0,2,,,0,,,46,48
23376,note_off,,,,,96,0,2,,,0,,,46,64
23400,note_on,,,,,24,0,2,,,0,,,42,55
23496,note_off,,,,,96,0,2,,,0,,,42,64
23520,note_on,,,,,24,0,2,,,0,,,46,51
23616,note_off,,,,,96,0,2,,,0,,,46,64
23640,note_on,,,,,24,0,2,,,0,,,49,55
23736,note_off,,,,,96,0,2,,,0,,,49,64
23760,note_on,,,,,744,0,1,,,0,,,78,55
23760,note_on,,,,,0,0,2,,,0,,,54,55
23760,note_on,,,,,24,0,2,,,0,,,42,58
23856,note_off,,,,,96,0,1,,,0,,,78,64
23880,note_on,,,,,24,0,1,,,0,,,73,47
23976,note_off,,,,,96,0,1,,,0,,,73,64
24000,note_on,,,,,24,0,1,,,0,,,70,44
24039,control_change,,,,,1604,0,4,,,0,64,96,,
24055,control_change,,,,,16,0,4,,,0,64,64,,
24077,control_change,,,,,22,0,4,,,0,64,0,,
24096,note_off,,,,,96,0,1,,,0,,,70,64
24120,note_on,,,,,24,0,1,,,0,,,66,50
24216,note_off,,,,,96,0,1,,,0,,,66,64
24240,note_on,,,,,24,0,1,,,0,,,70,55
24336,note_off,,,,,0,0,2,,,0,,,42,64
24336,note_off,,,,,576,0,2,,,0,,,54,64
24336,note_off,,,,,96,0,1,,,0,,,70,64
24360,note_on,,,,,24,0,1,,,0,,,78,55
24456,note_off,,,,,96,0,1,,,0,,,78,64
24480,note_on,,,,,24,0,1,,,0,,,79,56
24480,note_on,,,,,144,0,2,,,0,,,52,56
24576,note_off,,,,,96,0,1,,,0,,,79,64
24600,note_on,,,,,24,0,1,,,0,,,67,31
24696,note_off,,,,,96,0,1,,,0,,,67,64
24720,note_on,,,,,24,0,1,,,0,,,70,32
24768,note_off,,,,,288,0,2,,,0,,,52,64
24816,note_off,,,,,96,0,1,,,0,,,70,64
24840,note_on,,,,,72,0,2,,,0,,,49,58
24840,note_on,,,,,24,0,1,,,0,,,82,58
24936,note_off,,,,,96,0,1,,,0,,,82,64
24960,note_on,,,,,24,0,1,,,0,,,70,47
25056,note_off,,,,,96,0,1,,,0,,,70,64
25080,note_on,,,,,24,0,1,,,0,,,73,55
25128,note_off,,,,,288,0,2,,,0,,,49,64
25176,note_off,,,,,96,0,1,,,0,,,73,64
25200,note_on,,,,,24,0,1,,,0,,,83,62
25200,note_on,,,,,72,0,2,,,0,,,50,52
25296,note_off,,,,,96,0,1,,,0,,,83,64
25320,note_on,,,,,24,0,1,,,0,,,71,50
25416,note_off,,,,,96,0,1,,,0,,,71,64
25440,note_on,,,,,24,0,1,,,0,,,74,56
25488,note_off,,,,,288,0,2,,,0,,,50,64
25536,note_off,,,,,96,0,1,,,0,,,74,64
25560,note_on,,,,,24,0,1,,,0,,,78,55
25560,note_on,,,,,72,0,2,,,0,,,47,62
25656,note_off,,,,,96,0,1,,,0,,,78,64
25680,note_on,,,,,24,0,1,,,0,,,76,56
25776,note_off,,,,,96,0,1,,,0,,,76,64
25800,note_on,,,,,24,0,1,,,0,,,74,52
25848,note_off,,,,,288,0,2,,,0,,,47,64
25896,note_off,,,,,96,0,1,,,0,,,74,64
25920,note_on,,,,,72,0,2,,,0,,,52,70
25920,note_on,,,,,24,0,1,,,0,,,73,68
26016,note_off,,,,,96,0,1,,,0,,,73,64
26040,note_on,,,,,24,0,1,,,0,,,74,59
26136,note_off,,,,,96,0,1,,,0,,,74,64
26160,note_on,,,,,24,0,1,,,0,,,76,56
26208,note_off,,,,,288,0,2,,,0,,,52,64
26256,note_off,,,,,96,0,1,,,0,,,76,64
26280,note_on,,,,,72,0,2,,,0,,,54,63
26280,note_on,,,,,24,0,1,,,0,,,74,59
26376,note_off,,,,,96,0,1,,,0,,,74,64
26400,note_on,,,,,24,0,1,,,0,,,76,50
26496,note_off,,,,,96,0,1,,,0,,,76,64
26520,note_on,,,,,24,0,1,,,0,,,73,44
26568,note_off,,,,,288,0,2,,,0,,,54,64
26616,note_off,,,,,96,0,1,,,0,,,73,64
26640,set_tempo,,,,,26640,1,0,292683,,,,,,
26640,note_on,,,,,72,0,2,,,0,,,43,52
26640,note_on,,,,,24,0,1,,,0,,,73,50
26928,note_off,,,,,288,0,1,,,0,,,73,64
27000,note_on,,,,,72,0,1,,,0,,,71,20
27216,note_off,,,,,576,0,2,,,0,,,43,64
27288,note_off,,,,,288,0,1,,,0,,,71,64
27360,set_tempo,,,,,720,1,0,285714,,,,,,
28080,note_on,,,,,0,0,2,,,0,,,62,20
28080,note_on,,,,,864,0,2,,,0,,,55,26
28080,note_on,,,,,792,0,1,,,0,,,74,26
28080,set_tempo,,,,,720,1,0,262009,,,,,,
28176,note_off,,,,,96,0,1,,,0,,,74,64
28200,note_on,,,,,24,0,1,,,0,,,71,20
28296,note_off,,,,,96,0,1,,,0,,,71,64
28320,note_on,,,,,24,0,1,,,0,,,76,23
28416,note_off,,,,,96,0,1,,,0,,,76,64
28440,note_on,,,,,24,0,1,,,0,,,74,26
28536,note_off,,,,,96,0,1,,,0,,,74,64
28560,note_on,,,,,24,0,1,,,0,,,71,20
28656,note_off,,,,,96,0,1,,,0,,,71,64
28656,note_off,,,,,0,0,2,,,0,,,55,64
28656,note_off,,,,,576,0,2,,,0,,,62,64
28680,note_on,,,,,24,0,1,,,0,,,76,25
28776,note_off,,,,,96,0,1,,,0,,,76,64
28800,note_on,,,,,144,0,2,,,0,,,55,25
28800,note_on,,,,,0,0,2,,,0,,,62,20
28800,note_on,,,,,24,0,1,,,0,,,74,26
28896,note_off,,,,,96,0,1,,,0,,,74,64
28920,note_on,,,,,24,0,1,,,0,,,71,10
29016,note_off,,,,,96,0,1,,,0,,,71,64
29040,note_on,,,,,24,0,1,,,0,,,76,23
29136,note_off,,,,,96,0,1,,,0,,,76,64
29160,note_on,,,,,24,0,1,,,0,,,74,26
29256,note_off,,,,,96,0,1,,,0,,,74,64
29280,note_on,,,,,24,0,1,,,0,,,71,25
29376,note_off,,,,,0,0,2,,,0,,,55,64
29376,note_off,,,,,576,0,2,,,0,,,62,64
29376,note_off,,,,,96,0,1,,,0,,,71,64
29400,note_on,,,,,24,0,1,,,0,,,76,26
29496,note_off,,,,,96,0,1,,,0,,,76,64
29520,note_on,,,,,0,0,2,,,0,,,62,23
29520,note_on,,,,,144,0,2,,,0,,,55,26
29520,note_on,,,,,24,0,1,,,0,,,74,28
29616,note_off,,,,,96,0,1,,,0,,,74,64
29640,note_on,,,,,24,0,1,,,0,,,71,23
29736,note_off,,,,,96,0,1,,,0,,,71,64
29760,note_on,,,,,24,0,1,,,0,,,76,30
29808,note_off,,,,,0,0,2,,,0,,,55,64
29808,note_off,,,,,288,0,2,,,0,,,62,64
29856,note_off,,,,,96,0,1,,,0,,,76,64
29880,note_on,,,,,0,0,2,,,0,,,64,43
29880,note_on,,,,,72,0,2,,,0,,,55,43
29880,note_on,,,,,24,0,1,,,0,,,74,43
29976,note_off,,,,,96,0,1,,,0,,,74,64
30000,note_on,,,,,24,0,1,,,0,,,71,48
30096,note_off,,,,,96,0,1,,,0,,,71,64
30120,note_on,,,,,24,0,1,,,0,,,76,40
30168,note_off,,,,,0,0,2,,,0,,,55,64
30168,note_off,,,,,288,0,2,,,0,,,64,64
30216,note_off,,,,,96,0,1,,,0,,,76,64
30240,note_on,,,,,24,0,1,,,0,,,74,62
30240,note_on,,,,,0,0,2,,,0,,,66,47
30240,note_on,,,,,72,0,2,,,0,,,54,58
30336,note_off,,,,,96,0,1,,,0,,,74,64
30360,note_on,,,,,24,0,1,,,0,,,71,59
30456,note_off,,,,,96,0,1,,,0,,,71,64
30480,note_on,,,,,24,0,1,,,0,,,78,63
30576,note_off,,,,,96,0,1,,,0,,,78,64
30600,note_on,,,,,24,0,1,,,0,,,74,62
30696,note_off,,,,,96,0,1,,,0,,,74,64
30720,note_on,,,,,24,0,1,,,0,,,71,59
30816,note_off,,,,,0,0,2,,,0,,,54,64
30816,note_off,,,,,576,0,2,,,0,,,66,64
30816,note_off,,,,,96,0,1,,,0,,,71,64
30840,note_on,,,,,24,0,1,,,0,,,74,67
30936,note_off,,,,,96,0,1,,,0,,,74,64
30960,note_on,,,,,24,0,1,,,0,,,73,63
30960,note_on,,,,,0,0,2,,,0,,,54,50
30960,note_on,,,,,144,0,2,,,0,,,42,58
31056,note_off,,,,,96,0,1,,,0,,,73,64
31080,note_on,,,,,24,0,1,,,0,,,74,50
31176,note_off,,,,,96,0,1,,,0,,,74,64
31200,note_on,,,,,24,0,1,,,0,,,76,59
31296,note_off,,,,,96,0,1,,,0,,,76,64
31320,note_on,,,,,24,0,1,,,0,,,71,56
31416,note_off,,,,,96,0,1,,,0,,,71,64
31440,note_on,,,,,24,0,1,,,0,,,73,55
31536,note_off,,,,,0,0,2,,,0,,,42,64
31536,note_off,,,,,576,0,2,,,0,,,54,64
31536,note_off,,,,,96,0,1,,,0,,,73,64
31560,note_on,,,,,24,0,1,,,0,,,70,50
31656,note_off,,,,,96,0,1,,,0,,,70,64
31680,note_on,,,,,24,0,1,,,0,,,70,63
31680,set_tempo,,,,,3600,1,0,292683,,,,,,
31680,note_on,,,,,144,0,2,,,0,,,43,50
31968,note_off,,,,,288,0,1,,,0,,,70,64
32040,note_on,,,,,72,0,1,,,0,,,71,22
32256,note_off,,,,,576,0,2,,,0,,,43,64
32328,note_off,,,,,288,0,1,,,0,,,71,64
32400,set_tempo,,,,,720,1,0,285714,,,,,,
33120,note_on,,,,,792,0,1,,,0,,,74,19
33120,note_on,,,,,864,0,2,,,0,,,55,15
33120,note_on,,,,,0,0,2,,,0,,,62,14
33120,set_tempo,,,,,720,1,0,262009,,,,,,
33216,note_off,,,,,96,0,1,,,0,,,74,64
33240,note_on,,,,,24,0,1,,,0,,,71,12
33336,note_off,,,,,96,0,1,,,0,,,71,64
33360,note_on,,,,,24,0,1,,,0,,,76,15
33456,note_off,,,,,96,0,1,,,0,,,76,64
33480,note_on,,,,,24,0,1,,,0,,,74,16
33576,note_off,,,,,96,0,1,,,0,,,74,64
33600,note_on,,,,,24,0,1,,,0,,,71,8
33696,note_off,,,,,96,0,1,,,0,,,71,64
33696,note_off,,,,,576,0,2,,,0,,,62,64
33696,note_off,,,,,0,0,2,,,0,,,55,64
33720,note_on,,,,,24,0,1,,,0,,,76,16
33816,note_off,,,,,96,0,1,,,0,,,76,64
33840,note_on,,,,,24,0,1,,,0,,,74,19
33840,note_on,,,,,0,0,2,,,0,,,62,14
33840,note_on,,,,,144,0,2,,,0,,,55,16
33936,note_off,,,,,96,0,1,,,0,,,74,64
33960,note_on,,,,,24,0,1,,,0,,,71,15
34056,note_off,,,,,96,0,1,,,0,,,71,64
34080,note_on,,,,,24,0,1,,,0,,,76,18
34176,note_off,,,,,96,0,1,,,0,,,76,64
34200,note_on,,,,,24,0,1,,,0,,,74,15
34296,note_off,,,,,96,0,1,,,0,,,74,64
34320,note_on,,,,,24,0,1,,,0,,,71,9
34416,note_off,,,,,576,0,2,,,0,,,62,64
34416,note_off,,,,,96,0,1,,,0,,,71,64
34416,note_off,,,,,0,0,2,,,0,,,55,64
34440,note_on,,,,,24,0,1,,,0,,,76,15
34536,note_off,,,,,96,0,1,,,0,,,76,64
34560,note_on,,,,,0,0,2,,,0,,,62,12
34560,note_on,,,,,144,0,2,,,0,,,55,16
34560,note_on,,,,,24,0,1,,,0,,,74,14
34656,note_off,,,,,96,0,1,,,0,,,74,64
34680,note_on,,,,,24,0,1,,,0,,,71,12
34776,note_off,,,,,96,0,1,,,0,,,71,64
34800,note_on,,,,,24,0,1,,,0,,,76,15
34848,note_off,,,,,0,0,2,,,0,,,55,64
34848,note_off,,,,,288,0,2,,,0,,,62,64
34896,note_off,,,,,96,0,1,,,0,,,76,64
34920,note_on,,,,,0,0,2,,,0,,,64,18
34920,note_on,,,,,72,0,2,,,0,,,55,19
34920,note_on,,,,,24,0,1,,,0,,,74,19
35016,note_off,,,,,96,0,1,,,0,,,74,64
35040,note_on,,,,,24,0,1,,,0,,,71,19
35136,note_off,,,,,96,0,1,,,0,,,71,64
35160,note_on,,,,,24,0,1,,,0,,,76,21
35208,note_off,,,,,288,0,2,,,0,,,64,64
35208,note_off,,,,,0,0,2,,,0,,,55,64
35256,note_off,,,,,96,0,1,,,0,,,76,64
35280,note_on,,,,,0,0,2,,,0,,,66,14
35280,note_on,,,,,72,0,2,,,0,,,54,17
35280,note_on,,,,,24,0,1,,,0,,,74,16
35376,note_off,,,,,96,0,1,,,0,,,74,64
35400,note_on,,,,,24,0,1,,,0,,,71,16
35496,note_off,,,,,96,0,1,,,0,,,71,64
35520,note_on,,,,,24,0,1,,,0,,,78,19
35616,note_off,,,,,96,0,1,,,0,,,78,64
35640,note_on,,,,,24,0,1,,,0,,,74,22
35736,note_off,,,,,96,0,1,,,0,,,74,64
35760,note_on,,,,,24,0,1,,,0,,,71,23
35856,note_off,,,,,96,0,1,,,0,,,71,64
35856,note_off,,,,,0,0,2,,,0,,,54,64
35856,note_off,,,,,576,0,2,,,0,,,66,64
35880,note_on,,,,,24,0,1,,,0,,,74,27
35976,note_off,,,,,96,0,1,,,0,,,74,64
36000,note_on,,,,,24,0,1,,,0,,,73,34
36000,note_on,,,,,0,0,2,,,0,,,54,28
36000,note_on,,,,,144,0,2,,,0,,,42,30
36096,note_off,,,,,96,0,1,,,0,,,73,64
36120,note_on,,,,,24,0,1,,,0,,,74,30
36216,note_off,,,,,96,0,1,,,0,,,74,64
36240,note_on,,,,,24,0,1,,,0,,,76,32
36336,note_off,,,,,96,0,1,,,0,,,76,64
36360,note_on,,,,,24,0,1,,,0,,,71,37
36456,note_off,,,,,96,0,1,,,0,,,71,64
36480,note_on,,,,,24,0,1,,,0,,,73,39
36576,note_off,,,,,96,0,1,,,0,,,73,64
36576,note_off,,,,,0,0,2,,,0,,,42,64
36576,note_off,,,,,576,0,2,,,0,,,54,64
36600,note_on,,,,,24,0,1,,,0,,,70,36
36696,note_off,,,,,96,0,1,,,0,,,70,64
36720,note_on,,,,,24,0,1,,,0,,,71,62
36720,note_on,,,,,144,0,2,,,0,,,47,56
36816,note_off,,,,,96,0,1,,,0,,,71,64
36840,note_on,,,,,24,0,1,,,0,,,83,59
36936,note_off,,,,,96,0,1,,,0,,,83,64
36960,note_on,,,,,24,0,1,,,0,,,78,63
37008,note_off,,,,,288,0,2,,,0,,,47,64
37056,note_off,,,,,96,0,1,,,0,,,78,64
37080,note_on,,,,,72,0,2,,,0,,,52,59
37080,note_on,,,,,24,0,1,,,0,,,80,58
37176,note_off,,,,,96,0,1,,,0,,,80,64
37200,note_on,,,,,24,0,1,,,0,,,76,56
37296,note_off,,,,,96,0,1,,,0,,,76,64
37320,note_on,,,,,24,0,1,,,0,,,73,58
37368,note_off,,,,,288,0,2,,,0,,,52,64
37416,note_off,,,,,96,0,1,,,0,,,73,64
37440,note_on,,,,,24,0,1,,,0,,,75,68
37440,note_on,,,,,72,0,2,,,0,,,54,58
37536,note_off,,,,,96,0,1,,,0,,,75,64
37560,note_on,,,,,24,0,1,,,0,,,76,67
37656,note_off,,,,,96,0,1,,,0,,,76,64
37680,note_on,,,,,24,0,1,,,0,,,78,63
37728,note_off,,,,,288,0,2,,,0,,,54,64
37776,note_off,,,,,96,0,1,,,0,,,78,64
37800,note_on,,,,,24,0,1,,,0,,,71,59
37800,note_on,,,,,72,0,2,,,0,,,42,58
37896,note_off,,,,,96,0,1,,,0,,,71,64
37920,note_on,,,,,24,0,1,,,0,,,73,58
38016,note_off,,,,,96,0,1,,,0,,,73,64
38040,note_on,,,,,24,0,1,,,0,,,70,55
38088,note_off,,,,,288,0,2,,,0,,,42,64
38136,note_off,,,,,96,0,1,,,0,,,70,64
38160,note_on,,,,,72,0,2,,,0,,,47,62
38160,note_on,,,,,24,0,1,,,0,,,71,62
38256,note_off,,,,,96,0,1,,,0,,,71,64
38280,note_on,,,,,24,0,1,,,0,,,71,50
38376,note_off,,,,,96,0,1,,,0,,,71,64
38400,note_on,,,,,24,0,1,,,0,,,66,55
38448,note_off,,,,,288,0,2,,,0,,,47,64
38496,note_off,,,,,96,0,1,,,0,,,66,64
38520,note_on,,,,,72,0,2,,,0,,,52,59
38520,note_on,,,,,24,0,1,,,0,,,68,63
38616,note_off,,,,,96,0,1,,,0,,,68,64
38640,note_on,,,,,24,0,1,,,0,,,64,58
38736,note_off,,,,,96,0,1,,,0,,,64,64
38760,note_on,,,,,24,0,1,,,0,,,61,59
38808,note_off,,,,,288,0,2,,,0,,,52,64
38856,note_off,,,,,96,0,1,,,0,,,61,64
38880,note_on,,,,,72,0,2,,,0,,,54,55
38880,note_on,,,,,24,0,1,,,0,,,63,68
38976,note_off,,,,,96,0,1,,,0,,,63,64
39000,note_on,,,,,24,0,1,,,0,,,64,60
39096,note_off,,,,,96,0,1,,,0,,,64,64
39120,note_on,,,,,24,0,1,,,0,,,66,58
39168,note_off,,,,,288,0,2,,,0,,,54,64
39216,note_off,,,,,96,0,1,,,0,,,66,64
39240,note_on,,,,,24,0,1,,,0,,,59,63
39240,note_on,,,,,72,0,2,,,0,,,42,50
39336,note_off,,,,,96,0,1,,,0,,,59,64
39360,note_on,,,,,24,0,1,,,0,,,61,59
39456,note_off,,,,,96,0,1,,,0,,,61,64
39480,note_on,,,,,24,0,1,,,0,,,58,58
39528,note_off,,,,,288,0,2,,,0,,,42,64
39576,note_off,,,,,96,0,1,,,0,,,58,64
39600,set_tempo,,,,,6480,1,0,292683,,,,,,
39600,note_on,,,,,72,0,2,,,0,,,35,62
39600,note_on,,,,,24,0,1,,,0,,,58,55
39960,note_on,,,,,360,0,1,,,0,,,59,60
40036,note_off,,,,,76,0,1,,,0,,,58,64
40176,note_off,,,,,576,0,2,,,0,,,35,64
40248,note_off,,,,,212,0,1,,,0,,,59,64
40320,set_tempo,,,,,720,1,0,262009,,,,,,
40320,note_on,,,,,72,0,1,,,0,,,83,47
40320,marker,,,,,0,1,0,,,,,,,
40320,note_on,,,,,144,0,2,,,0,,,40,59
40416,note_off,,,,,96,0,1,,,0,,,83,64
40440,note_on,,,,,24,0,1,,,0,,,80,38
40536,note_off,,,,,96,0,1,,,0,,,80,64
40560,note_on,,,,,24,0,1,,,0,,,76,34
40599,control_change,,,,,16522,0,4,,,0,64,64,,
40608,note_off,,,,,288,0,2,,,0,,,40,64
40656,note_off,,,,,96,0,1,,,0,,,76,64
40665,control_change,,,,,66,0,4,,,0,64,96,,
40680,note_on,,,,,24,0,1,,,0,,,71,44
40776,note_off,,,,,96,0,1,,,0,,,71,64
40780,control_change,,,,,115,0,4,,,0,64,127,,
40800,note_on,,,,,24,0,1,,,0,,,68,38
40896,note_off,,,,,96,0,1,,,0,,,68,64
40920,note_on,,,,,24,0,1,,,0,,,71,47
41016,note_off,,,,,96,0,1,,,0,,,71,64
41040,note_on,,,,,24,0,1,,,0,,,73,55
41040,note_on,,,,,432,0,2,,,0,,,69,52
41136,note_off,,,,,96,0,2,,,0,,,69,64
41160,note_on,,,,,24,0,2,,,0,,,64,42
41256,note_off,,,,,96,0,2,,,0,,,64,64
41280,note_on,,,,,24,0,2,,,0,,,61,54
41319,control_change,,,,,539,0,4,,,0,64,96,,
41328,note_off,,,,,288,0,1,,,0,,,73,64
41335,control_change,,,,,16,0,4,,,0,64,64,,
41376,note_off,,,,,96,0,2,,,0,,,61,64
41382,control_change,,,,,47,0,4,,,0,64,0,,
41400,note_on,,,,,72,0,1,,,0,,,81,52
41400,note_on,,,,,24,0,2,,,0,,,57,52
41496,note_off,,,,,96,0,2,,,0,,,57,64
41520,note_on,,,,,24,0,2,,,0,,,52,52
41616,note_off,,,,,96,0,2,,,0,,,52,64
41640,note_on,,,,,24,0,2,,,0,,,45,47
41688,note_off,,,,,288,0,1,,,0,,,81,64
41736,note_off,,,,,96,0,2,,,0,,,45,64
41760,note_on,,,,,72,0,1,,,0,,,81,41
41760,note_on,,,,,24,0,2,,,0,,,35,62
41856,note_off,,,,,96,0,1,,,0,,,81,64
41880,note_on,,,,,24,0,1,,,0,,,81,41
41976,note_off,,,,,96,0,1,,,0,,,81,64
42000,note_on,,,,,24,0,1,,,0,,,80,47
42096,note_off,,,,,96,0,1,,,0,,,80,64
42120,note_on,,,,,24,0,1,,,0,,,78,58
42120,note_on,,,,,37356,0,3,,,0,,,78,50
42144,note_off,,,,,24,0,3,,,0,,,78,64
42150,note_on,,,,,6,0,3,,,0,,,80,58
42174,note_off,,,,,24,0,3,,,0,,,80,64
42180,note_on,,,,,6,0,3,,,0,,,78,58
42204,note_off,,,,,24,0,3,,,0,,,78,64
42216,note_off,,,,,96,0,1,,,0,,,78,64
42240,note_on,,,,,24,0,1,,,0,,,76,50
42336,note_off,,,,,96,0,1,,,0,,,76,64
42336,note_off,,,,,576,0,2,,,0,,,35,64
42360,note_on,,,,,24,0,1,,,0,,,75,55
42456,note_off,,,,,96,0,1,,,0,,,75,64
42480,note_on,,,,,24,0,1,,,0,,,76,62
42480,note_on,,,,,144,0,2,,,0,,,40,59
42576,note_off,,,,,96,0,1,,,0,,,76,64
42600,note_on,,,,,24,0,1,,,0,,,71,41
42696,note_off,,,,,96,0,1,,,0,,,71,64
42720,note_on,,,,,24,0,1,,,0,,,68,50
42768,note_off,,,,,288,0,2,,,0,,,40,64
42816,note_off,,,,,96,0,1,,,0,,,68,64
42840,note_on,,,,,24,0,1,,,0,,,64,55
42936,note_off,,,,,96,0,1,,,0,,,64,64
42960,note_on,,,,,192,0,2,,,0,,,59,54
43056,note_off,,,,,96,0,2,,,0,,,59,64
43080,note_on,,,,,24,0,2,,,0,,,56,48
43176,note_off,,,,,96,0,2,,,0,,,56,64
43200,note_on,,,,,264,0,1,,,0,,,83,25
43200,note_on,,,,,24,0,2,,,0,,,52,25
43260,control_change,,,,,1878,0,4,,,0,64,64,,
43296,note_off,,,,,96,0,1,,,0,,,83,64
43319,control_change,,,,,59,0,4,,,0,64,96,,
43320,note_on,,,,,24,0,1,,,0,,,80,23
43379,control_change,,,,,60,0,4,,,0,64,127,,
43416,note_off,,,,,96,0,1,,,0,,,80,64
43440,note_on,,,,,24,0,1,,,0,,,76,20
43488,note_off,,,,,288,0,2,,,0,,,52,64
43536,note_off,,,,,96,0,1,,,0,,,76,64
43560,note_on,,,,,24,0,1,,,0,,,71,26
43656,note_off,,,,,96,0,1,,,0,,,71,64
43680,note_on,,,,,24,0,1,,,0,,,68,20
43776,note_off,,,,,96,0,1,,,0,,,68,64
43800,note_on,,,,,24,0,1,,,0,,,71,25
43896,note_off,,,,,96,0,1,,,0,,,71,64
43920,note_on,,,,,24,0,1,,,0,,,73,25
43920,note_on,,,,,432,0,2,,,0,,,69,22
44016,note_off,,,,,96,0,2,,,0,,,69,64
44040,note_on,,,,,24,0,2,,,0,,,64,26
44136,note_off,,,,,96,0,2,,,0,,,64,64
44160,note_on,,,,,24,0,2,,,0,,,61,25
44208,note_off,,,,,288,0,1,,,0,,,73,64
44256,note_off,,,,,96,0,2,,,0,,,61,64
44280,note_on,,,,,72,0,1,,,0,,,81,31
44280,note_on,,,,,24,0,2,,,0,,,57,25
44376,note_off,,,,,96,0,2,,,0,,,57,64
44400,note_on,,,,,24,0,2,,,0,,,52,26
44496,note_off,,,,,96,0,2,,,0,,,52,64
44520,note_on,,,,,24,0,2,,,0,,,45,26
44568,note_off,,,,,288,0,1,,,0,,,81,64
44616,note_off,,,,,96,0,2,,,0,,,45,64
44640,note_on,,,,,72,0,1,,,0,,,81,26
44640,note_on,,,,,24,0,2,,,0,,,35,23
44654,control_change,,,,,1275,0,4,,,0,64,96,,
44684,control_change,,,,,30,0,4,,,0,64,0,,
44736,note_off,,,,,96,0,1,,,0,,,81,64
44760,note_on,,,,,24,0,1,,,0,,,81,31
44856,note_off,,,,,96,0,1,,,0,,,81,64
44880,note_on,,,,,24,0,1,,,0,,,80,31
44976,note_off,,,,,96,0,1,,,0,,,80,64
45000,note_on,,,,,24,0,1,,,0,,,78,31
45000,note_on,,,,,2796,0,3,,,0,,,78,22
45024,note_off,,,,,24,0,3,,,0,,,78,64
45030,note_on,,,,,6,0,3,,,0,,,80,23
45054,note_off,,,,,24,0,3,,,0,,,80,64
45060,note_on,,,,,6,0,3,,,0,,,78,27
45084,note_off,,,,,24,0,3,,,0,,,78,64
45084,end_of_track,,,,,0,1,3,,,,,,,
45096,note_off,,,,,96,0,1,,,0,,,78,64
45120,note_on,,,,,24,0,1,,,0,,,76,28
45216,note_off,,,,,96,0,1,,,0,,,76,64
45216,note_off,,,,,576,0,2,,,0,,,35,64
45240,note_on,,,,,24,0,1,,,0,,,75,25
45336,note_off,,,,,96,0,1,,,0,,,75,64
45360,note_on,,,,,24,0,1,,,0,,,76,28
45360,note_on,,,,,144,0,2,,,0,,,40,25
45456,note_off,,,,,96,0,1,,,0,,,76,64
45480,note_on,,,,,24,0,1,,,0,,,71,23
45576,note_off,,,,,96,0,1,,,0,,,71,64
45600,note_on,,,,,24,0,1,,,0,,,68,22
45696,note_off,,,,,96,0,1,,,0,,,68,64
45720,note_on,,,,,24,0,1,,,0,,,64,23
45816,note_off,,,,,96,0,1,,,0,,,64,64
45840,note_on,,,,,24,0,1,,,0,,,59,22
45936,note_off,,,,,576,0,2,,,0,,,40,64
45936,note_off,,,,,96,0,1,,,0,,,59,64
45960,note_on,,,,,24,0,1,,,0,,,56,25
46056,note_off,,,,,96,0,1,,,0,,,56,64
46080,note_on,,,,,144,0,2,,,0,,,52,47
46176,note_off,,,,,96,0,2,,,0,,,52,64
46200,note_on,,,,,24,0,2,,,0,,,47,47
46296,note_off,,,,,96,0,2,,,0,,,47,64
46320,note_on,,,,,24,0,2,,,0,,,44,50
46416,note_off,,,,,96,0,2,,,0,,,44,64
46440,note_on,,,,,24,0,2,,,0,,,40,52
46536,note_off,,,,,96,0,2,,,0,,,40,64
46560,note_on,,,,,24,0,2,,,0,,,44,55
46656,note_off,,,,,96,0,2,,,0,,,44,64
46680,note_on,,,,,24,0,2,,,0,,,47,44
46776,note_off,,,,,96,0,2,,,0,,,47,64
46800,note_on,,,,,744,0,1,,,0,,,64,22
46800,note_on,,,,,24,0,2,,,0,,,52,29
46896,note_off,,,,,96,0,1,,,0,,,64,64
46920,note_on,,,,,24,0,1,,,0,,,59,23
47016,note_off,,,,,96,0,1,,,0,,,59,64
47040,note_on,,,,,24,0,1,,,0,,,66,31
47088,note_off,,,,,288,0,2,,,0,,,52,64
47136,note_off,,,,,96,0,1,,,0,,,66,64
47160,note_on,,,,,24,0,1,,,0,,,68,41
47256,note_off,,,,,96,0,1,,,0,,,68,64
47280,note_on,,,,,24,0,1,,,0,,,59,37
47376,note_off,,,,,96,0,1,,,0,,,59,64
47400,note_on,,,,,24,0,1,,,0,,,69,45
47496,note_off,,,,,96,0,1,,,0,,,69,64
47520,note_on,,,,,24,0,1,,,0,,,71,59
47520,note_on,,,,,432,0,2,,,0,,,52,23
47616,note_off,,,,,96,0,2,,,0,,,52,64
47640,note_on,,,,,24,0,2,,,0,,,47,32
47736,note_off,,,,,96,0,2,,,0,,,47,64
47760,note_on,,,,,24,0,2,,,0,,,54,33
47856,note_off,,,,,96,0,2,,,0,,,54,64
47880,note_on,,,,,24,0,2,,,0,,,56,44
47976,note_off,,,,,96,0,2,,,0,,,56,64
48000,note_on,,,,,24,0,2,,,0,,,47,46
48096,note_off,,,,,576,0,1,,,0,,,71,64
48096,note_off,,,,,96,0,2,,,0,,,47,64
48120,note_on,,,,,24,0,2,,,0,,,57,56
48216,note_off,,,,,96,0,2,,,0,,,57,64
48240,note_on,,,,,144,0,1,,,0,,,71,22
48240,note_on,,,,,24,0,2,,,0,,,59,63
48336,note_off,,,,,96,0,1,,,0,,,71,64
48360,note_on,,,,,24,0,1,,,0,,,66,27
48456,note_off,,,,,96,0,1,,,0,,,66,64
48480,note_on,,,,,24,0,1,,,0,,,73,38
48576,note_off,,,,,96,0,1,,,0,,,73,64
48600,note_on,,,,,24,0,1,,,0,,,75,37
48696,note_off,,,,,96,0,1,,,0,,,75,64
48720,note_on,,,,,24,0,1,,,0,,,66,36
48816,note_off,,,,,96,0,1,,,0,,,66,64
48816,note_off,,,,,576,0,2,,,0,,,59,64
48840,note_on,,,,,24,0,1,,,0,,,76,53
48936,note_off,,,,,96,0,1,,,0,,,76,64
48960,note_on,,,,,24,0,1,,,0,,,78,55
48960,note_on,,,,,144,0,2,,,0,,,59,24
49056,note_off,,,,,96,0,2,,,0,,,59,64
49080,note_on,,,,,24,0,2,,,0,,,54,29
49176,note_off,,,,,96,0,2,,,0,,,54,64
49200,note_on,,,,,24,0,2,,,0,,,61,38
49296,note_off,,,,,96,0,2,,,0,,,61,64
49320,note_on,,,,,24,0,2,,,0,,,63,47
49416,note_off,,,,,96,0,2,,,0,,,63,64
49440,note_on,,,,,24,0,2,,,0,,,54,45
49536,note_off,,,,,576,0,1,,,0,,,78,64
49536,note_off,,,,,96,0,2,,,0,,,54,64
49560,note_on,,,,,24,0,2,,,0,,,64,42
49656,note_off,,,,,96,0,2,,,0,,,64,64
49680,note_on,,,,,144,0,1,,,0,,,78,58
49680,note_on,,,,,24,0,2,,,0,,,66,55
49776,note_off,,,,,96,0,1,,,0,,,78,64
49800,note_on,,,,,24,0,1,,,0,,,69,47
49896,note_off,,,,,96,0,1,,,0,,,69,64
49920,note_on,,,,,24,0,1,,,0,,,68,44
49968,note_off,,,,,288,0,2,,,0,,,66,64
50016,note_off,,,,,96,0,1,,,0,,,68,64
50040,note_on,,,,,72,0,2,,,0,,,64,64
50040,note_on,,,,,24,0,1,,,0,,,69,52
50136,note_off,,,,,96,0,1,,,0,,,69,64
50160,note_on,,,,,24,0,1,,,0,,,68,47
50256,note_off,,,,,96,0,1,,,0,,,68,64
50280,note_on,,,,,24,0,1,,,0,,,69,50
50328,note_off,,,,,288,0,2,,,0,,,64,64
50376,note_off,,,,,96,0,1,,,0,,,69,64
50400,note_on,,,,,24,0,1,,,0,,,78,58
50400,note_on,,,,,72,0,2,,,0,,,63,58
50400,note_on,,,,,0,0,2,,,0,,,66,44
50496,note_off,,,,,96,0,1,,,0,,,78,64
50520,note_on,,,,,24,0,1,,,0,,,69,47
50616,note_off,,,,,96,0,1,,,0,,,69,64
50640,note_on,,,,,24,0,1,,,0,,,68,44
50688,note_off,,,,,0,0,2,,,0,,,63,64
50688,note_off,,,,,288,0,2,,,0,,,66,64
50736,note_off,,,,,96,0,1,,,0,,,68,64
50760,note_on,,,,,24,0,1,,,0,,,69,59
50760,note_on,,,,,72,0,2,,,0,,,61,54
50856,note_off,,,,,96,0,1,,,0,,,69,64
50880,note_on,,,,,24,0,1,,,0,,,68,38
50976,note_off,,,,,96,0,1,,,0,,,68,64
51000,note_on,,,,,24,0,1,,,0,,,69,59
51048,note_off,,,,,288,0,2,,,0,,,61,64
51096,note_off,,,,,96,0,1,,,0,,,69,64
51120,note_on,,,,,0,0,2,,,0,,,66,44
51120,note_on,,,,,72,0,2,,,0,,,59,48
51120,note_on,,,,,24,0,1,,,0,,,78,55
51216,note_off,,,,,96,0,1,,,0,,,78,64
51240,note_on,,,,,24,0,1,,,0,,,69,50
51336,note_off,,,,,96,0,1,,,0,,,69,64
51360,note_on,,,,,24,0,1,,,0,,,68,44
51456,note_off,,,,,96,0,1,,,0,,,68,64
51480,note_on,,,,,24,0,1,,,0,,,69,56
51576,note_off,,,,,96,0,1,,,0,,,69,64
51600,note_on,,,,,24,0,1,,,0,,,68,47
51696,note_off,,,,,576,0,2,,,0,,,66,64
51696,note_off,,,,,0,0,2,,,0,,,59,64
51696,note_off,,,,,96,0,1,,,0,,,68,64
51720,note_on,,,,,24,0,1,,,0,,,69,56
51816,note_off,,,,,96,0,1,,,0,,,69,64
51840,note_on,,,,,24,0,1,,,0,,,78,55
51840,note_on,,,,,144,0,2,,,0,,,59,56
51936,note_off,,,,,96,0,1,,,0,,,78,64
51960,note_on,,,,,24,0,1,,,0,,,84,52
52056,note_off,,,,,96,0,1,,,0,,,84,64
52080,note_on,,,,,24,0,1,,,0,,,83,47
52128,note_off,,,,,288,0,2,,,0,,,59,64
52176,note_off,,,,,96,0,1,,,0,,,83,64
52200,note_on,,,,,24,0,1,,,0,,,81,52
52200,note_on,,,,,72,0,2,,,0,,,47,59
52296,note_off,,,,,96,0,1,,,0,,,81,64
52320,note_on,,,,,24,0,1,,,0,,,79,52
52416,note_off,,,,,96,0,1,,,0,,,79,64
52440,note_on,,,,,24,0,1,,,0,,,78,47
52488,note_off,,,,,288,0,2,,,0,,,47,64
52536,note_off,,,,,96,0,1,,,0,,,78,64
52560,note_on,,,,,24,0,1,,,0,,,76,20
52560,note_on,,,,,72,0,2,,,0,,,64,29
52560,note_on,,,,,0,0,2,,,0,,,60,25
52656,note_off,,,,,96,0,1,,,0,,,76,64
52680,note_on,,,,,24,0,1,,,0,,,69,22
52776,note_off,,,,,96,0,1,,,0,,,69,64
52800,note_on,,,,,24,0,1,,,0,,,68,19
52896,note_off,,,,,96,0,1,,,0,,,68,64
52920,note_on,,,,,24,0,1,,,0,,,69,22
53016,note_off,,,,,96,0,1,,,0,,,69,64
53040,note_on,,,,,24,0,1,,,0,,,68,19
53136,note_off,,,,,96,0,1,,,0,,,68,64
53136,note_off,,,,,0,0,2,,,0,,,64,64
53136,note_off,,,,,576,0,2,,,0,,,60,64
53160,note_on,,,,,24,0,1,,,0,,,69,19
53256,note_off,,,,,96,0,1,,,0,,,69,64
53280,note_on,,,,,24,0,1,,,0,,,76,17
53280,note_on,,,,,0,0,2,,,0,,,59,21
53280,note_on,,,,,144,0,2,,,0,,,64,19
53376,note_off,,,,,96,0,1,,,0,,,76,64
53400,note_on,,,,,24,0,1,,,0,,,67,25
53496,note_off,,,,,96,0,1,,,0,,,67,64
53520,note_on,,,,,24,0,1,,,0,,,66,19
53616,note_off,,,,,96,0,1,,,0,,,66,64
53640,note_on,,,,,24,0,1,,,0,,,67,20
53736,note_off,,,,,96,0,1,,,0,,,67,64
53760,note_on,,,,,24,0,1,,,0,,,66,23
53856,note_off,,,,,96,0,1,,,0,,,66,64
53856,note_off,,,,,576,0,2,,,0,,,59,64
53856,note_off,,,,,0,0,2,,,0,,,64,64
53880,note_on,,,,,24,0,1,,,0,,,67,20
53976,note_off,,,,,96,0,1,,,0,,,67,64
54000,note_on,,,,,24,0,1,,,0,,,76,25
54000,note_on,,,,,144,0,2,,,0,,,64,23
54000,note_on,,,,,0,0,2,,,0,,,58,23
54096,note_off,,,,,96,0,1,,,0,,,76,64
54120,note_on,,,,,24,0,1,,,0,,,67,19
54216,note_off,,,,,96,0,1,,,0,,,67,64
54240,note_on,,,,,24,0,1,,,0,,,66,17
54336,note_off,,,,,96,0,1,,,0,,,66,64
54360,note_on,,,,,24,0,1,,,0,,,67,18
54456,note_off,,,,,96,0,1,,,0,,,67,64
54480,note_on,,,,,24,0,1,,,0,,,66,17
54576,note_off,,,,,576,0,2,,,0,,,58,64
54576,note_off,,,,,0,0,2,,,0,,,64,64
54576,note_off,,,,,96,0,1,,,0,,,66,64
54600,note_on,,,,,24,0,1,,,0,,,67,16
54696,note_off,,,,,96,0,1,,,0,,,67,64
54720,note_on,,,,,144,0,2,,,0,,,64,37
54720,note_on,,,,,24,0,1,,,0,,,76,47
54720,note_on,,,,,0,0,2,,,0,,,54,40
54720,note_on,,,,,0,0,2,,,0,,,61,38
54816,note_off,,,,,96,0,1,,,0,,,76,64
54840,note_on,,,,,24,0,1,,,0,,,79,40
54936,note_off,,,,,96,0,1,,,0,,,79,64
54960,note_on,,,,,24,0,1,,,0,,,78,44
55056,note_off,,,,,96,0,1,,,0,,,78,64
55080,note_on,,,,,24,0,1,,,0,,,76,47
55176,note_off,,,,,96,0,1,,,0,,,76,64
55200,note_on,,,,,24,0,1,,,0,,,74,31
55296,note_off,,,,,96,0,1,,,0,,,74,64
55296,note_off,,,,,0,0,2,,,0,,,64,64
55296,note_off,,,,,576,0,2,,,0,,,61,64
55296,note_off,,,,,0,0,2,,,0,,,54,64
55320,note_on,,,,,24,0,1,,,0,,,73,35
55416,note_off,,,,,96,0,1,,,0,,,73,64
55440,note_on,,,,,24,0,1,,,0,,,71,29
55440,note_on,,,,,144,0,2,,,0,,,59,25
55440,note_on,,,,,0,0,2,,,0,,,55,25
55536,note_off,,,,,96,0,1,,,0,,,71,64
55560,note_on,,,,,24,0,1,,,0,,,62,23
55656,note_off,,,,,96,0,1,,,0,,,62,64
55680,note_on,,,,,24,0,1,,,0,,,61,22
55776,note_off,,,,,96,0,1,,,0,,,61,64
55800,note_on,,,,,24,0,1,,,0,,,62,28
55896,note_off,,,,,96,0,1,,,0,,,62,64
55920,note_on,,,,,24,0,1,,,0,,,61,27
56016,note_off,,,,,0,0,2,,,0,,,59,64
56016,note_off,,,,,576,0,2,,,0,,,55,64
56016,note_off,,,,,96,0,1,,,0,,,61,64
56040,note_on,,,,,24,0,1,,,0,,,62,29
56136,note_off,,,,,96,0,1,,,0,,,62,64
56160,note_on,,,,,24,0,1,,,0,,,71,31
56160,note_on,,,,,144,0,2,,,0,,,59,28
56160,note_on,,,,,0,0,2,,,0,,,54,31
56256,note_off,,,,,96,0,1,,,0,,,71,64
56280,note_on,,,,,24,0,1,,,0,,,62,25
56376,note_off,,,,,96,0,1,,,0,,,62,64
56400,note_on,,,,,24,0,1,,,0,,,61,25
56496,note_off,,,,,96,0,1,,,0,,,61,64
56520,note_on,,,,,24,0,1,,,0,,,62,28
56616,note_off,,,,,96,0,1,,,0,,,62,64
56640,note_on,,,,,24,0,1,,,0,,,61,29
56736,note_off,,,,,96,0,1,,,0,,,61,64
56736,note_off,,,,,576,0,2,,,0,,,54,64
56736,note_off,,,,,0,0,2,,,0,,,59,64
56760,note_on,,,,,24,0,1,,,0,,,62,29
56856,note_off,,,,,96,0,1,,,0,,,62,64
56880,note_on,,,,,24,0,1,,,0,,,71,28
56880,note_on,,,,,144,0,2,,,0,,,59,27
56880,note_on,,,,,0,0,2,,,0,,,53,27
56976,note_off,,,,,96,0,1,,,0,,,71,64
57000,note_on,,,,,24,0,1,,,0,,,62,25
57096,note_off,,,,,96,0,1,,,0,,,62,64
57120,note_on,,,,,24,0,1,,,0,,,61,22
57216,note_off,,,,,96,0,1,,,0,,,61,64
57240,note_on,,,,,24,0,1,,,0,,,62,25
57336,note_off,,,,,96,0,1,,,0,,,62,64
57360,note_on,,,,,24,0,1,,,0,,,61,25
57456,note_off,,,,,96,0,1,,,0,,,61,64
57456,note_off,,,,,0,0,2,,,0,,,59,64
57456,note_off,,,,,576,0,2,,,0,,,53,64
57480,note_on,,,,,24,0,1,,,0,,,62,28
57576,note_off,,,,,96,0,1,,,0,,,62,64
57600,note_on,,,,,144,0,2,,,0,,,49,12
57600,note_on,,,,,0,0,2,,,0,,,59,12
57600,note_on,,,,,0,0,2,,,0,,,56,12
57600,note_on,,,,,24,0,1,,,0,,,71,14
57696,note_off,,,,,96,0,1,,,0,,,71,64
57720,note_on,,,,,24,0,1,,,0,,,74,23
57816,note_off,,,,,96,0,1,,,0,,,74,64
57840,note_on,,,,,24,0,1,,,0,,,73,27
57936,note_off,,,,,96,0,1,,,0,,,73,64
57960,note_on,,,,,24,0,1,,,0,,,71,35
58056,note_off,,,,,96,0,1,,,0,,,71,64
58080,note_on,,,,,24,0,1,,,0,,,70,34
58176,note_off,,,,,0,0,2,,,0,,,59,64
58176,note_off,,,,,0,0,2,,,0,,,49,64
58176,note_off,,,,,576,0,2,,,0,,,56,64
58176,note_off,,,,,96,0,1,,,0,,,70,64
58200,note_on,,,,,24,0,1,,,0,,,71,49
58296,note_off,,,,,96,0,1,,,0,,,71,64
58320,note_on,,,,,144,0,2,,,0,,,42,58
58320,note_on,,,,,0,0,2,,,0,,,54,55
58320,note_on,,,,,0,0,2,,,0,,,49,55
58320,note_on,,,,,24,0,1,,,0,,,78,63
58416,note_off,,,,,96,0,1,,,0,,,78,64
58440,note_on,,,,,24,0,1,,,0,,,73,50
58536,note_off,,,,,96,0,1,,,0,,,73,64
58560,note_on,,,,,24,0,1,,,0,,,70,47
58656,note_off,,,,,96,0,1,,,0,,,70,64
58680,note_on,,,,,24,0,1,,,0,,,66,47
58776,note_off,,,,,96,0,1,,,0,,,66,64
58800,note_on,,,,,24,0,1,,,0,,,61,48
58896,note_off,,,,,96,0,1,,,0,,,61,64
58896,note_off,,,,,576,0,2,,,0,,,49,64
58896,note_off,,,,,0,0,2,,,0,,,42,64
58896,note_off,,,,,0,0,2,,,0,,,54,64
58920,note_on,,,,,24,0,1,,,0,,,58,47
59016,note_off,,,,,96,0,1,,,0,,,58,64
59040,note_on,,,,,144,0,2,,,0,,,54,58
59067,control_change,,,,,14383,0,4,,,0,64,64,,
59108,control_change,,,,,41,0,4,,,0,64,96,,
59136,note_off,,,,,96,0,2,,,0,,,54,64
59160,note_on,,,,,24,0,2,,,0,,,49,38
59212,control_change,,,,,104,0,4,,,0,64,127,,
59256,note_off,,,,,96,0,2,,,0,,,49,64
59280,note_on,,,,,24,0,2,,,0,,,46,39
59376,note_off,,,,,96,0,2,,,0,,,46,64
59400,note_on,,,,,24,0,2,,,0,,,42,47
59496,note_off,,,,,96,0,2,,,0,,,42,64
59520,note_on,,,,,24,0,2,,,0,,,46,39
59616,note_off,,,,,96,0,2,,,0,,,46,64
59640,note_on,,,,,24,0,2,,,0,,,49,38
59736,note_off,,,,,96,0,2,,,0,,,49,64
59760,note_on,,,,,24,0,2,,,0,,,42,58
59760,note_on,,,,,0,0,2,,,0,,,54,47
59760,note_on,,,,,744,0,1,,,0,,,78,55
59856,note_off,,,,,96,0,1,,,0,,,78,64
59880,note_on,,,,,24,0,1,,,0,,,73,32
59976,note_off,,,,,96,0,1,,,0,,,73,64
60000,note_on,,,,,24,0,1,,,0,,,70,40
60096,note_off,,,,,96,0,1,,,0,,,70,64
60120,note_on,,,,,24,0,1,,,0,,,66,44
60151,control_change,,,,,939,0,4,,,0,64,96,,
60170,control_change,,,,,19,0,4,,,0,64,64,,
60192,control_change,,,,,22,0,4,,,0,64,0,,
60216,note_off,,,,,96,0,1,,,0,,,66,64
60240,note_on,,,,,24,0,1,,,0,,,70,50
60336,note_off,,,,,0,0,2,,,0,,,42,64
60336,note_off,,,,,576,0,2,,,0,,,54,64
60336,note_off,,,,,96,0,1,,,0,,,70,64
60360,note_on,,,,,24,0,1,,,0,,,78,55
60456,note_off,,,,,96,0,1,,,0,,,78,64
60480,note_on,,,,,144,0,2,,,0,,,52,50
60480,note_on,,,,,24,0,1,,,0,,,79,56
60576,note_off,,,,,96,0,1,,,0,,,79,64
60600,note_on,,,,,24,0,1,,,0,,,67,50
60696,note_off,,,,,96,0,1,,,0,,,67,64
60720,note_on,,,,,24,0,1,,,0,,,70,47
60768,note_off,,,,,288,0,2,,,0,,,52,64
60816,note_off,,,,,96,0,1,,,0,,,70,64
60840,note_on,,,,,72,0,2,,,0,,,49,55
60840,note_on,,,,,24,0,1,,,0,,,82,58
60936,note_off,,,,,96,0,1,,,0,,,82,64
60960,note_on,,,,,24,0,1,,,0,,,70,47
61056,note_off,,,,,96,0,1,,,0,,,70,64
61080,note_on,,,,,24,0,1,,,0,,,73,47
61128,note_off,,,,,288,0,2,,,0,,,49,64
61176,note_off,,,,,96,0,1,,,0,,,73,64
61200,note_on,,,,,24,0,1,,,0,,,83,70
61200,note_on,,,,,72,0,2,,,0,,,50,47
61296,note_off,,,,,96,0,1,,,0,,,83,64
61320,note_on,,,,,24,0,1,,,0,,,71,56
61416,note_off,,,,,96,0,1,,,0,,,71,64
61440,note_on,,,,,24,0,1,,,0,,,74,56
61488,note_off,,,,,288,0,2,,,0,,,50,64
61536,note_off,,,,,96,0,1,,,0,,,74,64
61560,note_on,,,,,72,0,2,,,0,,,47,52
61560,note_on,,,,,24,0,1,,,0,,,78,55
61656,note_off,,,,,96,0,1,,,0,,,78,64
61680,note_on,,,,,24,0,1,,,0,,,76,56
61776,note_off,,,,,96,0,1,,,0,,,76,64
61800,note_on,,,,,24,0,1,,,0,,,74,50
61848,note_off,,,,,288,0,2,,,0,,,47,64
61896,note_off,,,,,96,0,1,,,0,,,74,64
61920,note_on,,,,,24,0,1,,,0,,,73,55
61920,note_on,,,,,72,0,2,,,0,,,52,56
62016,note_off,,,,,96,0,1,,,0,,,73,64
62040,note_on,,,,,24,0,1,,,0,,,74,52
62136,note_off,,,,,96,0,1,,,0,,,74,64
62160,note_on,,,,,24,0,1,,,0,,,76,50
62208,note_off,,,,,288,0,2,,,0,,,52,64
62256,note_off,,,,,96,0,1,,,0,,,76,64
62280,note_on,,,,,72,0,2,,,0,,,55,59
62280,note_on,,,,,24,0,1,,,0,,,74,59
62376,note_off,,,,,96,0,1,,,0,,,74,64
62400,note_on,,,,,24,0,1,,,0,,,73,50
62496,note_off,,,,,96,0,1,,,0,,,73,64
62520,note_on,,,,,24,0,1,,,0,,,71,52
62568,note_off,,,,,288,0,2,,,0,,,55,64
62616,note_off,,,,,96,0,1,,,0,,,71,64
62640,note_on,,,,,24,0,1,,,0,,,78,58
62640,note_on,,,,,72,0,2,,,0,,,42,58
62670,control_change,,,,,2478,0,4,,,0,64,64,,
62687,control_change,,,,,17,0,4,,,0,64,96,,
62736,note_off,,,,,96,0,1,,,0,,,78,64
62755,control_change,,,,,68,0,4,,,0,64,127,,
62760,note_on,,,,,24,0,1,,,0,,,73,55
62856,note_off,,,,,96,0,1,,,0,,,73,64
62880,note_on,,,,,24,0,1,,,0,,,70,50
62976,note_off,,,,,96,0,1,,,0,,,70,64
63000,note_on,,,,,24,0,1,,,0,,,66,50
63096,note_off,,,,,96,0,1,,,0,,,66,64
63120,note_on,,,,,24,0,1,,,0,,,61,54
63216,note_off,,,,,576,0,2,,,0,,,42,64
63216,note_off,,,,,96,0,1,,,0,,,61,64
63240,note_on,,,,,24,0,1,,,0,,,58,47
63336,note_off,,,,,96,0,1,,,0,,,58,64
63360,note_on,,,,,144,0,2,,,0,,,54,55
63456,note_off,,,,,96,0,2,,,0,,,54,64
63480,note_on,,,,,24,0,2,,,0,,,49,44
63576,note_off,,,,,96,0,2,,,0,,,49,64
63600,note_on,,,,,24,0,2,,,0,,,46,48
63696,note_off,,,,,96,0,2,,,0,,,46,64
63720,note_on,,,,,24,0,2,,,0,,,42,55
63816,note_off,,,,,96,0,2,,,0,,,42,64
63840,note_on,,,,,24,0,2,,,0,,,46,51
63936,note_off,,,,,96,0,2,,,0,,,46,64
63960,note_on,,,,,24,0,2,,,0,,,49,55
64056,note_off,,,,,96,0,2,,,0,,,49,64
64080,note_on,,,,,744,0,1,,,0,,,78,55
64080,note_on,,,,,0,0,2,,,0,,,54,55
64080,note_on,,,,,24,0,2,,,0,,,42,58
64176,note_off,,,,,96,0,1,,,0,,,78,64
64200,note_on,,,,,24,0,1,,,0,,,73,47
64296,note_off,,,,,96,0,1,,,0,,,73,64
64320,note_on,,,,,24,0,1,,,0,,,70,44
64359,control_change,,,,,1604,0,4,,,0,64,96,,
64375,control_change,,,,,16,0,4,,,0,64,64,,
64397,control_change,,,,,22,0,4,,,0,64,0,,
64416,note_off,,,,,96,0,1,,,0,,,70,64
64440,note_on,,,,,24,0,1,,,0,,,66,50
64536,note_off,,,,,96,0,1,,,0,,,66,64
64560,note_on,,,,,24,0,1,,,0,,,70,55
64656,note_off,,,,,96,0,1,,,0,,,70,64
64656,note_off,,,,,576,0,2,,,0,,,54,64
64656,note_off,,,,,0,0,2,,,0,,,42,64
64680,note_on,,,,,24,0,1,,,0,,,78,55
64776,note_off,,,,,96,0,1,,,0,,,78,64
64800,note_on,,,,,144,0,2,,,0,,,52,56
64800,note_on,,,,,24,0,1,,,0,,,79,56
64896,note_off,,,,,96,0,1,,,0,,,79,64
64920,note_on,,,,,24,0,1,,,0,,,67,31
65016,note_off,,,,,96,0,1,,,0,,,67,64
65040,note_on,,,,,24,0,1,,,0,,,70,32
65088,note_off,,,,,288,0,2,,,0,,,52,64
65136,note_off,,,,,96,0,1,,,0,,,70,64
65160,note_on,,,,,24,0,1,,,0,,,82,58
65160,note_on,,,,,72,0,2,,,0,,,49,58
65256,note_off,,,,,96,0,1,,,0,,,82,64
65280,note_on,,,,,24,0,1,,,0,,,70,47
65376,note_off,,,,,96,0,1,,,0,,,70,64
65400,note_on,,,,,24,0,1,,,0,,,73,55
65448,note_off,,,,,288,0,2,,,0,,,49,64
65496,note_off,,,,,96,0,1,,,0,,,73,64
65520,note_on,,,,,72,0,2,,,0,,,50,52
65520,note_on,,,,,24,0,1,,,0,,,83,62
65616,note_off,,,,,96,0,1,,,0,,,83,64
65640,note_on,,,,,24,0,1,,,0,,,71,50
65736,note_off,,,,,96,0,1,,,0,,,71,64
65760,note_on,,,,,24,0,1,,,0,,,74,56
65808,note_off,,,,,288,0,2,,,0,,,50,64
65856,note_off,,,,,96,0,1,,,0,,,74,64
65880,note_on,,,,,24,0,1,,,0,,,78,55
65880,note_on,,,,,72,0,2,,,0,,,47,62
65976,note_off,,,,,96,0,1,,,0,,,78,64
66000,note_on,,,,,24,0,1,,,0,,,76,56
66096,note_off,,,,,96,0,1,,,0,,,76,64
66120,note_on,,,,,24,0,1,,,0,,,74,52
66168,note_off,,,,,288,0,2,,,0,,,47,64
66216,note_off,,,,,96,0,1,,,0,,,74,64
66240,note_on,,,,,24,0,1,,,0,,,73,68
66240,note_on,,,,,72,0,2,,,0,,,52,70
66336,note_off,,,,,96,0,1,,,0,,,73,64
66360,note_on,,,,,24,0,1,,,0,,,74,59
66456,note_off,,,,,96,0,1,,,0,,,74,64
66480,note_on,,,,,24,0,1,,,0,,,76,56
66528,note_off,,,,,288,0,2,,,0,,,52,64
66576,note_off,,,,,96,0,1,,,0,,,76,64
66600,note_on,,,,,24,0,1,,,0,,,74,59
66600,note_on,,,,,72,0,2,,,0,,,54,63
66696,note_off,,,,,96,0,1,,,0,,,74,64
66720,note_on,,,,,24,0,1,,,0,,,76,50
66816,note_off,,,,,96,0,1,,,0,,,76,64
66840,note_on,,,,,24,0,1,,,0,,,73,44
66888,note_off,,,,,288,0,2,,,0,,,54,64
66936,note_off,,,,,96,0,1,,,0,,,73,64
66960,set_tempo,,,,,26640,1,0,292683,,,,,,
66960,note_on,,,,,24,0,1,,,0,,,73,50
66960,note_on,,,,,72,0,2,,,0,,,43,52
67248,note_off,,,,,288,0,1,,,0,,,73,64
67320,note_on,,,,,72,0,1,,,0,,,71,20
67536,note_off,,,,,576,0,2,,,0,,,43,64
67608,note_off,,,,,288,0,1,,,0,,,71,64
67680,set_tempo,,,,,720,1,0,285714,,,,,,
68400,set_tempo,,,,,720,1,0,262009,,,,,,
68400,note_on,,,,,792,0,1,,,0,,,74,26
68400,note_on,,,,,0,0,2,,,0,,,62,20
68400,note_on,,,,,864,0,2,,,0,,,55,26
68496,note_off,,,,,96,0,1,,,0,,,74,64
68520,note_on,,,,,24,0,1,,,0,,,71,20
68616,note_off,,,,,96,0,1,,,0,,,71,64
68640,note_on,,,,,24,0,1,,,0,,,76,23
68736,note_off,,,,,96,0,1,,,0,,,76,64
68760,note_on,,,,,24,0,1,,,0,,,74,26
68856,note_off,,,,,96,0,1,,,0,,,74,64
68880,note_on,,,,,24,0,1,,,0,,,71,20
68976,note_off,,,,,0,0,2,,,0,,,55,64
68976,note_off,,,,,96,0,1,,,0,,,71,64
68976,note_off,,,,,576,0,2,,,0,,,62,64
69000,note_on,,,,,24,0,1,,,0,,,76,25
69096,note_off,,,,,96,0,1,,,0,,,76,64
69120,note_on,,,,,24,0,1,,,0,,,74,26
69120,note_on,,,,,0,0,2,,,0,,,62,20
69120,note_on,,,,,144,0,2,,,0,,,55,25
69216,note_off,,,,,96,0,1,,,0,,,74,64
69240,note_on,,,,,24,0,1,,,0,,,71,10
69336,note_off,,,,,96,0,1,,,0,,,71,64
69360,note_on,,,,,24,0,1,,,0,,,76,23
69456,note_off,,,,,96,0,1,,,0,,,76,64
69480,note_on,,,,,24,0,1,,,0,,,74,26
69576,note_off,,,,,96,0,1,,,0,,,74,64
69600,note_on,,,,,24,0,1,,,0,,,71,25
69696,note_off,,,,,576,0,2,,,0,,,62,64
69696,note_off,,,,,0,0,2,,,0,,,55,64
69696,note_off,,,,,96,0,1,,,0,,,71,64
69720,note_on,,,,,24,0,1,,,0,,,76,26
69816,note_off,,,,,96,0,1,,,0,,,76,64
69840,note_on,,,,,24,0,1,,,0,,,74,28
69840,note_on,,,,,144,0,2,,,0,,,55,26
69840,note_on,,,,,0,0,2,,,0,,,62,23
69936,note_off,,,,,96,0,1,,,0,,,74,64
69960,note_on,,,,,24,0,1,,,0,,,71,23
70056,note_off,,,,,96,0,1,,,0,,,71,64
70080,note_on,,,,,24,0,1,,,0,,,76,30
70128,note_off,,,,,0,0,2,,,0,,,55,64
70128,note_off,,,,,288,0,2,,,0,,,62,64
70176,note_off,,,,,96,0,1,,,0,,,76,64
70200,note_on,,,,,0,0,2,,,0,,,64,43
70200,note_on,,,,,24,0,1,,,0,,,74,43
70200,note_on,,,,,72,0,2,,,0,,,55,43
70296,note_off,,,,,96,0,1,,,0,,,74,64
70320,note_on,,,,,24,0,1,,,0,,,71,48
70416,note_off,,,,,96,0,1,,,0,,,71,64
70440,note_on,,,,,24,0,1,,,0,,,76,40
70488,note_off,,,,,0,0,2,,,0,,,55,64
70488,note_off,,,,,288,0,2,,,0,,,64,64
70536,note_off,,,,,96,0,1,,,0,,,76,64
70560,note_on,,,,,0,0,2,,,0,,,66,47
70560,note_on,,,,,72,0,2,,,0,,,54,58
70560,note_on,,,,,24,0,1,,,0,,,74,62
70656,note_off,,,,,96,0,1,,,0,,,74,64
70680,note_on,,,,,24,0,1,,,0,,,71,59
70776,note_off,,,,,96,0,1,,,0,,,71,64
70800,note_on,,,,,24,0,1,,,0,,,78,63
70896,note_off,,,,,96,0,1,,,0,,,78,64
70920,note_on,,,,,24,0,1,,,0,,,74,62
71016,note_off,,,,,96,0,1,,,0,,,74,64
71040,note_on,,,,,24,0,1,,,0,,,71,59
71136,note_off,,,,,96,0,1,,,0,,,71,64
71136,note_off,,,,,0,0,2,,,0,,,54,64
71136,note_off,,,,,576,0,2,,,0,,,66,64
71160,note_on,,,,,24,0,1,,,0,,,74,67
71256,note_off,,,,,96,0,1,,,0,,,74,64
71280,note_on,,,,,144,0,2,,,0,,,42,58
71280,note_on,,,,,24,0,1,,,0,,,73,63
71280,note_on,,,,,0,0,2,,,0,,,54,50
71376,note_off,,,,,96,0,1,,,0,,,73,64
71400,note_on,,,,,24,0,1,,,0,,,74,50
71496,note_off,,,,,96,0,1,,,0,,,74,64
71520,note_on,,,,,24,0,1,,,0,,,76,59
71616,note_off,,,,,96,0,1,,,0,,,76,64
71640,note_on,,,,,24,0,1,,,0,,,71,56
71736,note_off,,,,,96,0,1,,,0,,,71,64
71760,note_on,,,,,24,0,1,,,0,,,73,55
71856,note_off,,,,,96,0,1,,,0,,,73,64
71856,note_off,,,,,576,0,2,,,0,,,54,64
71856,note_off,,,,,0,0,2,,,0,,,42,64
71880,note_on,,,,,24,0,1,,,0,,,70,50
71976,note_off,,,,,96,0,1,,,0,,,70,64
72000,note_on,,,,,24,0,1,,,0,,,70,63
72000,note_on,,,,,144,0,2,,,0,,,43,50
72000,set_tempo,,,,,3600,1,0,292683,,,,,,
72288,note_off,,,,,288,0,1,,,0,,,70,64
72360,note_on,,,,,72,0,1,,,0,,,71,22
72576,note_off,,,,,576,0,2,,,0,,,43,64
72648,note_off,,,,,288,0,1,,,0,,,71,64
72720,set_tempo,,,,,720,1,0,285714,,,,,,
73440,set_tempo,,,,,720,1,0,262009,,,,,,
73440,note_on,,,,,792,0,1,,,0,,,74,19
73440,note_on,,,,,864,0,2,,,0,,,55,15
73440,note_on,,,,,0,0,2,,,0,,,62,14
73536,note_off,,,,,96,0,1,,,0,,,74,64
73560,note_on,,,,,24,0,1,,,0,,,71,12
73656,note_off,,,,,96,0,1,,,0,,,71,64
73680,note_on,,,,,24,0,1,,,0,,,76,15
73776,note_off,,,,,96,0,1,,,0,,,76,64
73800,note_on,,,,,24,0,1,,,0,,,74,16
73896,note_off,,,,,96,0,1,,,0,,,74,64
73920,note_on,,,,,24,0,1,,,0,,,71,8
74016,note_off,,,,,0,0,2,,,0,,,55,64
74016,note_off,,,,,576,0,2,,,0,,,62,64
74016,note_off,,,,,96,0,1,,,0,,,71,64
74040,note_on,,,,,24,0,1,,,0,,,76,16
74136,note_off,,,,,96,0,1,,,0,,,76,64
74160,note_on,,,,,24,0,1,,,0,,,74,19
74160,note_on,,,,,144,0,2,,,0,,,55,16
74160,note_on,,,,,0,0,2,,,0,,,62,14
74256,note_off,,,,,96,0,1,,,0,,,74,64
74280,note_on,,,,,24,0,1,,,0,,,71,15
74376,note_off,,,,,96,0,1,,,0,,,71,64
74400,note_on,,,,,24,0,1,,,0,,,76,18
74496,note_off,,,,,96,0,1,,,0,,,76,64
74520,note_on,,,,,24,0,1,,,0,,,74,15
74616,note_off,,,,,96,0,1,,,0,,,74,64
74640,note_on,,,,,24,0,1,,,0,,,71,9
74736,note_off,,,,,576,0,2,,,0,,,62,64
74736,note_off,,,,,0,0,2,,,0,,,55,64
74736,note_off,,,,,96,0,1,,,0,,,71,64
74760,note_on,,,,,24,0,1,,,0,,,76,15
74856,note_off,,,,,96,0,1,,,0,,,76,64
74880,note_on,,,,,24,0,1,,,0,,,74,14
74880,note_on,,,,,144,0,2,,,0,,,55,16
74880,note_on,,,,,0,0,2,,,0,,,62,12
74976,note_off,,,,,96,0,1,,,0,,,74,64
75000,note_on,,,,,24,0,1,,,0,,,71,12
75096,note_off,,,,,96,0,1,,,0,,,71,64
75120,note_on,,,,,24,0,1,,,0,,,76,15
75168,note_off,,,,,288,0,2,,,0,,,62,64
75168,note_off,,,,,0,0,2,,,0,,,55,64
75216,note_off,,,,,96,0,1,,,0,,,76,64
75240,note_on,,,,,0,0,2,,,0,,,64,18
75240,note_on,,,,,24,0,1,,,0,,,74,19
75240,note_on,,,,,72,0,2,,,0,,,55,19
75336,note_off,,,,,96,0,1,,,0,,,74,64
75360,note_on,,,,,24,0,1,,,0,,,71,19
75456,note_off,,,,,96,0,1,,,0,,,71,64
75480,note_on,,,,,24,0,1,,,0,,,76,21
75528,note_off,,,,,0,0,2,,,0,,,55,64
75528,note_off,,,,,288,0,2,,,0,,,64,64
75576,note_off,,,,,96,0,1,,,0,,,76,64
75600,note_on,,,,,0,0,2,,,0,,,66,14
75600,note_on,,,,,72,0,2,,,0,,,54,17
75600,note_on,,,,,24,0,1,,,0,,,74,16
75696,note_off,,,,,96,0,1,,,0,,,74,64
75720,note_on,,,,,24,0,1,,,0,,,71,16
75816,note_off,,,,,96,0,1,,,0,,,71,64
75840,note_on,,,,,24,0,1,,,0,,,78,19
75936,note_off,,,,,96,0,1,,,0,,,78,64
75960,note_on,,,,,24,0,1,,,0,,,74,22
76056,note_off,,,,,96,0,1,,,0,,,74,64
76080,note_on,,,,,24,0,1,,,0,,,71,23
76176,note_off,,,,,96,0,1,,,0,,,71,64
76176,note_off,,,,,576,0,2,,,0,,,66,64
76176,note_off,,,,,0,0,2,,,0,,,54,64
76200,note_on,,,,,24,0,1,,,0,,,74,27
76296,note_off,,,,,96,0,1,,,0,,,74,64
76320,note_on,,,,,24,0,1,,,0,,,73,34
76320,note_on,,,,,144,0,2,,,0,,,42,30
76320,note_on,,,,,0,0,2,,,0,,,54,28
76416,note_off,,,,,96,0,1,,,0,,,73,64
76440,note_on,,,,,24,0,1,,,0,,,74,30
76536,note_off,,,,,96,0,1,,,0,,,74,64
76560,note_on,,,,,24,0,1,,,0,,,76,32
76656,note_off,,,,,96,0,1,,,0,,,76,64
76680,note_on,,,,,24,0,1,,,0,,,71,37
76776,note_off,,,,,96,0,1,,,0,,,71,64
76800,note_on,,,,,24,0,1,,,0,,,73,39
76896,note_off,,,,,96,0,1,,,0,,,73,64
76896,note_off,,,,,576,0,2,,,0,,,54,64
76896,note_off,,,,,0,0,2,,,0,,,42,64
76920,note_on,,,,,24,0,1,,,0,,,70,36
77016,note_off,,,,,96,0,1,,,0,,,70,64
77040,note_on,,,,,144,0,2,,,0,,,47,56
77040,note_on,,,,,24,0,1,,,0,,,71,62
77136,note_off,,,,,96,0,1,,,0,,,71,64
77160,note_on,,,,,24,0,1,,,0,,,83,59
77256,note_off,,,,,96,0,1,,,0,,,83,64
77280,note_on,,,,,24,0,1,,,0,,,78,63
77328,note_off,,,,,288,0,2,,,0,,,47,64
77376,note_off,,,,,96,0,1,,,0,,,78,64
77400,note_on,,,,,24,0,1,,,0,,,80,58
77400,note_on,,,,,72,0,2,,,0,,,52,59
77496,note_off,,,,,96,0,1,,,0,,,80,64
77520,note_on,,,,,24,0,1,,,0,,,76,56
77616,note_off,,,,,96,0,1,,,0,,,76,64
77640,note_on,,,,,24,0,1,,,0,,,73,58
77688,note_off,,,,,288,0,2,,,0,,,52,64
77736,note_off,,,,,96,0,1,,,0,,,73,64
77760,note_on,,,,,24,0,1,,,0,,,75,68
77760,note_on,,,,,72,0,2,,,0,,,54,58
77856,note_off,,,,,96,0,1,,,0,,,75,64
77880,note_on,,,,,24,0,1,,,0,,,76,67
77976,note_off,,,,,96,0,1,,,0,,,76,64
78000,note_on,,,,,24,0,1,,,0,,,78,63
78048,note_off,,,,,288,0,2,,,0,,,54,64
78096,note_off,,,,,96,0,1,,,0,,,78,64
78120,note_on,,,,,72,0,2,,,0,,,42,58
78120,note_on,,,,,24,0,1,,,0,,,71,59
78216,note_off,,,,,96,0,1,,,0,,,71,64
78240,note_on,,,,,24,0,1,,,0,,,73,58
78336,note_off,,,,,96,0,1,,,0,,,73,64
78360,note_on,,,,,24,0,1,,,0,,,70,55
78408,note_off,,,,,288,0,2,,,0,,,42,64
78456,note_off,,,,,96,0,1,,,0,,,70,64
78480,note_on,,,,,24,0,1,,,0,,,71,62
78480,note_on,,,,,72,0,2,,,0,,,47,62
78576,note_off,,,,,96,0,1,,,0,,,71,64
78600,note_on,,,,,24,0,1,,,0,,,71,50
78696,note_off,,,,,96,0,1,,,0,,,71,64
78720,note_on,,,,,24,0,1,,,0,,,66,55
78768,note_off,,,,,288,0,2,,,0,,,47,64
78816,note_off,,,,,96,0,1,,,0,,,66,64
78840,note_on,,,,,72,0,2,,,0,,,52,59
78840,note_on,,,,,24,0,1,,,0,,,68,63
78936,note_off,,,,,96,0,1,,,0,,,68,64
78960,note_on,,,,,24,0,1,,,0,,,64,58
79056,note_off,,,,,96,0,1,,,0,,,64,64
79080,note_on,,,,,24,0,1,,,0,,,61,59
79128,note_off,,,,,288,0,2,,,0,,,52,64
79176,note_off,,,,,96,0,1,,,0,,,61,64
79200,note_on,,,,,24,0,1,,,0,,,63,68
79200,note_on,,,,,72,0,2,,,0,,,54,55
79296,note_off,,,,,96,0,1,,,0,,,63,64
79320,note_on,,,,,24,0,1,,,0,,,64,60
79416,note_off,,,,,96,0,1,,,0,,,64,64
79440,note_on,,,,,24,0,1,,,0,,,66,58
79488,note_off,,,,,288,0,2,,,0,,,54,64
79536,note_off,,,,,96,0,1,,,0,,,66,64
79560,note_on,,,,,24,0,1,,,0,,,59,63
79560,note_on,,,,,72,0,2,,,0,,,42,50
79656,note_off,,,,,96,0,1,,,0,,,59,64
79680,note_on,,,,,24,0,1,,,0,,,61,59
79776,note_off,,,,,96,0,1,,,0,,,61,64
79800,note_on,,,,,24,0,1,,,0,,,58,58
79848,note_off,,,,,288,0,2,,,0,,,42,64
79896,note_off,,,,,96,0,1,,,0,,,58,64
79920,note_on,,,,,72,0,2,,,0,,,35,62
79920,set_tempo,,,,,6480,1,0,292683,,,,,,
79920,note_on,,,,,24,0,1,,,0,,,58,55
80280,note_on,,,,,360,0,1,,,0,,,59,60
80356,note_off,,,,,76,0,1,,,0,,,58,64
80496,note_off,,,,,576,0,2,,,0,,,35,64
80568,note_off,,,,,212,0,1,,,0,,,59,64
80640,note_on,,,,,72,0,1,,,0,,,66,27
80640,marker,,,,,0,1,0,,,,,,,
80640,note_on,,,,,144,0,2,,,0,,,59,30
80640,set_tempo,,,,,720,1,0,262009,,,,,,
80736,note_off,,,,,96,0,1,,,0,,,66,64
80760,note_on,,,,,24,0,1,,,0,,,63,23
80856,note_off,,,,,96,0,1,,,0,,,63,64
80880,note_on,,,,,24,0,1,,,0,,,68,22
80933,control_change,,,,,16536,0,4,,,0,64,64,,
80976,note_off,,,,,96,0,1,,,0,,,68,64
81000,note_on,,,,,24,0,1,,,0,,,66,23
81096,note_off,,,,,96,0,1,,,0,,,66,64
81120,note_on,,,,,24,0,1,,,0,,,63,22
81216,note_off,,,,,96,0,1,,,0,,,63,64
81216,note_off,,,,,576,0,2,,,0,,,59,64
81240,note_on,,,,,24,0,1,,,0,,,68,22
81246,control_change,,,,,313,0,4,,,0,64,96,,
81336,note_off,,,,,96,0,1,,,0,,,68,64
81360,note_on,,,,,24,0,1,,,0,,,66,25
81360,note_on,,,,,144,0,2,,,0,,,59,27
81450,control_change,,,,,204,0,4,,,0,64,127,,
81456,note_off,,,,,96,0,1,,,0,,,66,64
81480,note_on,,,,,24,0,1,,,0,,,63,20
81576,note_off,,,,,96,0,1,,,0,,,63,64
81600,note_on,,,,,24,0,1,,,0,,,68,20
81696,note_off,,,,,96,0,1,,,0,,,68,64
81720,note_on,,,,,24,0,1,,,0,,,66,27
81816,note_off,,,,,96,0,1,,,0,,,66,64
81840,note_on,,,,,24,0,1,,,0,,,63,22
81936,note_off,,,,,576,0,2,,,0,,,59,64
81936,note_off,,,,,96,0,1,,,0,,,63,64
81960,note_on,,,,,24,0,1,,,0,,,68,17
82056,note_off,,,,,96,0,1,,,0,,,68,64
82080,note_on,,,,,24,0,1,,,0,,,67,28
82080,note_on,,,,,0,0,2,,,0,,,58,20
82080,note_on,,,,,144,0,2,,,0,,,61,25
82176,note_off,,,,,96,0,1,,,0,,,67,64
82200,note_on,,,,,24,0,1,,,0,,,64,24
82296,note_off,,,,,96,0,1,,,0,,,64,64
82320,note_on,,,,,24,0,1,,,0,,,68,25
82320,control_change,,,,,870,0,4,,,0,64,96,,
82359,control_change,,,,,39,0,4,,,0,64,64,,
82381,control_change,,,,,22,0,4,,,0,64,0,,
82416,note_off,,,,,96,0,1,,,0,,,68,64
82440,note_on,,,,,24,0,1,,,0,,,67,28
82536,note_off,,,,,96,0,1,,,0,,,67,64
82560,note_on,,,,,24,0,1,,,0,,,64,21
82656,note_off,,,,,0,0,2,,,0,,,61,64
82656,note_off,,,,,576,0,2,,,0,,,58,64
82656,note_off,,,,,96,0,1,,,0,,,64,64
82680,note_on,,,,,24,0,1,,,0,,,68,25
82776,note_off,,,,,96,0,1,,,0,,,68,64
82800,note_on,,,,,0,0,2,,,0,,,58,25
82800,note_on,,,,,144,0,2,,,0,,,61,24
82800,note_on,,,,,24,0,1,,,0,,,67,29
82896,note_off,,,,,96,0,1,,,0,,,67,64
82920,note_on,,,,,24,0,1,,,0,,,64,23
83016,note_off,,,,,96,0,1,,,0,,,64,64
83040,note_on,,,,,24,0,1,,,0,,,70,29
83088,note_off,,,,,288,0,2,,,0,,,58,64
83088,note_off,,,,,0,0,2,,,0,,,61,64
83136,note_off,,,,,96,0,1,,,0,,,70,64
83160,note_on,,,,,72,0,2,,,0,,,59,24
83160,note_on,,,,,0,0,2,,,0,,,56,29
83160,note_on,,,,,24,0,1,,,0,,,68,31
83256,note_off,,,,,96,0,1,,,0,,,68,64
83280,note_on,,,,,24,0,1,,,0,,,63,27
83376,note_off,,,,,96,0,1,,,0,,,63,64
83400,note_on,,,,,24,0,1,,,0,,,71,28
83448,note_off,,,,,288,0,2,,,0,,,56,64
83448,note_off,,,,,0,0,2,,,0,,,59,64
83496,note_off,,,,,96,0,1,,,0,,,71,64
83520,note_on,,,,,72,0,2,,,0,,,58,22
83520,note_on,,,,,0,0,2,,,0,,,55,29
83520,note_on,,,,,24,0,1,,,0,,,70,29
83616,note_off,,,,,96,0,1,,,0,,,70,64
83640,note_on,,,,,24,0,1,,,0,,,63,29
83736,note_off,,,,,96,0,1,,,0,,,63,64
83760,note_on,,,,,24,0,1,,,0,,,71,38
83856,note_off,,,,,96,0,1,,,0,,,71,64
83880,note_on,,,,,24,0,1,,,0,,,70,36
83976,note_off,,,,,96,0,1,,,0,,,70,64
84000,note_on,,,,,24,0,1,,,0,,,63,33
84096,note_off,,,,,96,0,1,,,0,,,63,64
84096,note_off,,,,,0,0,2,,,0,,,58,64
84096,note_off,,,,,576,0,2,,,0,,,55,64
84120,note_on,,,,,24,0,1,,,0,,,71,35
84216,note_off,,,,,96,0,1,,,0,,,71,64
84240,note_on,,,,,24,0,1,,,0,,,70,37
84240,note_on,,,,,0,0,2,,,0,,,51,34
84240,note_on,,,,,144,0,2,,,0,,,58,25
84336,note_off,,,,,96,0,1,,,0,,,70,64
84360,note_on,,,,,24,0,1,,,0,,,76,44
84456,note_off,,,,,96,0,1,,,0,,,76,64
84480,note_on,,,,,24,0,1,,,0,,,75,44
84576,note_off,,,,,96,0,1,,,0,,,75,64
84600,note_on,,,,,24,0,1,,,0,,,73,50
84696,note_off,,,,,96,0,1,,,0,,,73,64
84720,note_on,,,,,24,0,1,,,0,,,71,51
84816,note_off,,,,,96,0,1,,,0,,,71,64
84816,note_off,,,,,0,0,2,,,0,,,58,64
84816,note_off,,,,,576,0,2,,,0,,,51,64
84840,note_on,,,,,24,0,1,,,0,,,70,55
84936,note_off,,,,,96,0,1,,,0,,,70,64
84960,note_on,,,,,144,0,2,,,0,,,68,55
84960,note_on,,,,,24,0,1,,,0,,,80,58
85056,note_off,,,,,96,0,1,,,0,,,80,64
85080,note_on,,,,,24,0,1,,,0,,,71,56
85176,note_off,,,,,96,0,1,,,0,,,71,64
85200,note_on,,,,,24,0,1,,,0,,,70,44
85248,note_off,,,,,288,0,2,,,0,,,68,64
85296,note_off,,,,,96,0,1,,,0,,,70,64
85320,note_on,,,,,72,0,2,,,0,,,66,63
85320,note_on,,,,,24,0,1,,,0,,,71,56
85416,note_off,,,,,96,0,1,,,0,,,71,64
85440,note_on,,,,,24,0,1,,,0,,,70,47
85536,note_off,,,,,96,0,1,,,0,,,70,64
85560,note_on,,,,,24,0,1,,,0,,,71,50
85608,note_off,,,,,288,0,2,,,0,,,66,64
85656,note_off,,,,,96,0,1,,,0,,,71,64
85680,note_on,,,,,72,0,2,,,0,,,65,50
85680,note_on,,,,,24,0,1,,,0,,,80,63
85776,note_off,,,,,96,0,1,,,0,,,80,64
85800,note_on,,,,,24,0,1,,,0,,,71,41
85896,note_off,,,,,96,0,1,,,0,,,71,64
85920,note_on,,,,,24,0,1,,,0,,,70,38
85968,note_off,,,,,288,0,2,,,0,,,65,64
86016,note_off,,,,,96,0,1,,,0,,,70,64
86040,note_on,,,,,24,0,1,,,0,,,71,59
86040,note_on,,,,,72,0,2,,,0,,,63,55
86136,note_off,,,,,96,0,1,,,0,,,71,64
86160,note_on,,,,,24,0,1,,,0,,,70,47
86256,note_off,,,,,96,0,1,,,0,,,70,64
86280,note_on,,,,,24,0,1,,,0,,,71,47
86328,note_off,,,,,288,0,2,,,0,,,63,64
86376,note_off,,,,,96,0,1,,,0,,,71,64
86400,note_on,,,,,0,0,2,,,0,,,62,52
86400,note_on,,,,,24,0,1,,,0,,,80,74
86400,note_on,,,,,72,0,2,,,0,,,65,44
86496,note_off,,,,,96,0,1,,,0,,,80,64
86520,note_on,,,,,24,0,1,,,0,,,71,56
86616,note_off,,,,,96,0,1,,,0,,,71,64
86640,note_on,,,,,24,0,1,,,0,,,70,40
86736,note_off,,,,,96,0,1,,,0,,,70,64
86760,note_on,,,,,24,0,1,,,0,,,71,52
86856,note_off,,,,,96,0,1,,,0,,,71,64
86880,note_on,,,,,24,0,1,,,0,,,70,44
86976,note_off,,,,,0,0,2,,,0,,,65,64
86976,note_off,,,,,576,0,2,,,0,,,62,64
86976,note_off,,,,,96,0,1,,,0,,,70,64
87000,note_on,,,,,24,0,1,,,0,,,71,62
87096,note_off,,,,,96,0,1,,,0,,,71,64
87120,note_on,,,,,0,0,2,,,0,,,62,41
87120,note_on,,,,,0,0,2,,,0,,,58,44
87120,note_on,,,,,144,0,2,,,0,,,65,39
87120,note_on,,,,,24,0,1,,,0,,,80,58
87184,control_change,,,,,4803,0,4,,,0,64,64,,
87215,control_change,,,,,31,0,4,,,0,64,96,,
87216,note_off,,,,,96,0,1,,,0,,,80,64
87240,note_on,,,,,24,0,1,,,0,,,83,59
87336,note_off,,,,,96,0,1,,,0,,,83,64
87360,note_on,,,,,24,0,1,,,0,,,82,55
87456,note_off,,,,,96,0,1,,,0,,,82,64
87480,note_on,,,,,24,0,1,,,0,,,80,55
87547,control_change,,,,,332,0,4,,,0,64,127,,
87576,note_off,,,,,96,0,1,,,0,,,80,64
87600,note_on,,,,,24,0,1,,,0,,,78,44
87696,note_off,,,,,0,0,2,,,0,,,65,64
87696,note_off,,,,,0,0,2,,,0,,,58,64
87696,note_off,,,,,576,0,2,,,0,,,62,64
87696,note_off,,,,,96,0,1,,,0,,,78,64
87720,note_on,,,,,24,0,1,,,0,,,77,59
87816,note_off,,,,,96,0,1,,,0,,,77,64
87816,control_change,,,,,269,0,4,,,0,64,96,,
87840,note_on,,,,,24,0,1,,,0,,,75,74
87840,note_on,,,,,144,0,2,,,0,,,59,60
87840,control_change,,,,,24,0,4,,,0,64,64,,
87871,control_change,,,,,31,0,4,,,0,64,0,,
87936,note_off,,,,,96,0,1,,,0,,,75,64
87960,note_on,,,,,24,0,1,,,0,,,66,58
88056,note_off,,,,,96,0,1,,,0,,,66,64
88080,note_on,,,,,24,0,1,,,0,,,65,62
88176,note_off,,,,,96,0,1,,,0,,,65,64
88200,note_on,,,,,24,0,1,,,0,,,66,50
88296,note_off,,,,,96,0,1,,,0,,,66,64
88320,note_on,,,,,24,0,1,,,0,,,65,47
88416,note_off,,,,,96,0,1,,,0,,,65,64
88416,note_off,,,,,576,0,2,,,0,,,59,64
88440,note_on,,,,,24,0,1,,,0,,,66,50
88536,note_off,,,,,96,0,1,,,0,,,66,64
88560,note_on,,,,,24,0,1,,,0,,,75,63
88560,note_on,,,,,144,0,2,,,0,,,58,58
88656,note_off,,,,,96,0,1,,,0,,,75,64
88680,note_on,,,,,24,0,1,,,0,,,66,47
88776,note_off,,,,,96,0,1,,,0,,,66,64
88800,note_on,,,,,24,0,1,,,0,,,65,47
88896,note_off,,,,,96,0,1,,,0,,,65,64
88920,note_on,,,,,24,0,1,,,0,,,66,47
89016,note_off,,,,,96,0,1,,,0,,,66,64
89040,note_on,,,,,24,0,1,,,0,,,65,52
89136,note_off,,,,,96,0,1,,,0,,,65,64
89136,note_off,,,,,576,0,2,,,0,,,58,64
89160,note_on,,,,,24,0,1,,,0,,,66,55
89256,note_off,,,,,96,0,1,,,0,,,66,64
89280,note_on,,,,,0,0,2,,,0,,,56,62
89280,note_on,,,,,24,0,1,,,0,,,75,63
89280,note_on,,,,,144,0,2,,,0,,,59,51
89376,note_off,,,,,96,0,1,,,0,,,75,64
89400,note_on,,,,,24,0,1,,,0,,,71,50
89496,note_off,,,,,96,0,1,,,0,,,71,64
89520,note_on,,,,,24,0,1,,,0,,,70,50
89616,note_off,,,,,96,0,1,,,0,,,70,64
89640,note_on,,,,,24,0,1,,,0,,,71,52
89736,note_off,,,,,96,0,1,,,0,,,71,64
89760,note_on,,,,,24,0,1,,,0,,,70,55
89856,note_off,,,,,0,0,2,,,0,,,59,64
89856,note_off,,,,,576,0,2,,,0,,,56,64
89856,note_off,,,,,96,0,1,,,0,,,70,64
89880,note_on,,,,,24,0,1,,,0,,,71,52
89976,note_off,,,,,96,0,1,,,0,,,71,64
90000,note_on,,,,,144,0,2,,,0,,,65,41
90000,note_on,,,,,0,0,2,,,0,,,59,56
90000,note_on,,,,,0,0,2,,,0,,,56,44
90000,note_on,,,,,24,0,1,,,0,,,77,62
90000,note_on,,,,,0,0,1,,,0,,,74,47
90051,control_change,,,,,2180,0,4,,,0,64,64,,
90081,control_change,,,,,30,0,4,,,0,64,96,,
90096,note_off,,,,,96,0,1,,,0,,,74,64
90111,control_change,,,,,30,0,4,,,0,64,127,,
90120,note_on,,,,,24,0,1,,,0,,,71,47
90216,note_off,,,,,96,0,1,,,0,,,71,64
90240,note_on,,,,,24,0,1,,,0,,,70,35
90336,note_off,,,,,96,0,1,,,0,,,70,64
90360,note_on,,,,,24,0,1,,,0,,,71,52
90456,note_off,,,,,96,0,1,,,0,,,71,64
90480,note_on,,,,,24,0,1,,,0,,,70,47
90576,note_off,,,,,0,0,2,,,0,,,65,64
90576,note_off,,,,,576,0,2,,,0,,,56,64
90576,note_off,,,,,96,0,1,,,0,,,70,64
90576,note_off,,,,,0,0,2,,,0,,,59,64
90600,note_on,,,,,24,0,1,,,0,,,71,56
90644,control_change,,,,,533,0,4,,,0,64,96,,
90652,note_off,,,,,52,0,1,,,0,,,77,64
90663,control_change,,,,,19,0,4,,,0,64,64,,
90685,control_change,,,,,22,0,4,,,0,64,0,,
90696,note_off,,,,,44,0,1,,,0,,,71,64
90720,note_on,,,,,144,0,2,,,0,,,54,50
90720,note_on,,,,,24,0,1,,,0,,,78,58
90816,note_off,,,,,96,0,1,,,0,,,78,64
90840,note_on,,,,,24,0,1,,,0,,,73,58
90847,control_change,,,,,162,0,4,,,0,64,64,,
90875,control_change,,,,,28,0,4,,,0,64,96,,
90891,control_change,,,,,16,0,4,,,0,64,127,,
90936,note_off,,,,,96,0,1,,,0,,,73,64
90960,note_on,,,,,24,0,1,,,0,,,70,47
91056,note_off,,,,,96,0,1,,,0,,,70,64
91080,note_on,,,,,24,0,1,,,0,,,66,58
91176,note_off,,,,,96,0,1,,,0,,,66,64
91200,note_on,,,,,24,0,1,,,0,,,61,59
91296,note_off,,,,,96,0,1,,,0,,,61,64
91296,note_off,,,,,576,0,2,,,0,,,54,64
91320,note_on,,,,,24,0,1,,,0,,,58,55
91416,note_off,,,,,96,0,1,,,0,,,58,64
91440,note_on,,,,,144,0,2,,,0,,,54,55
91536,note_off,,,,,96,0,2,,,0,,,54,64
91560,note_on,,,,,24,0,2,,,0,,,49,50
91656,note_off,,,,,96,0,2,,,0,,,49,64
91680,note_on,,,,,24,0,2,,,0,,,46,42
91776,note_off,,,,,96,0,2,,,0,,,46,64
91800,note_on,,,,,24,0,2,,,0,,,42,47
91896,note_off,,,,,96,0,2,,,0,,,42,64
91920,note_on,,,,,24,0,2,,,0,,,46,48
92016,note_off,,,,,96,0,2,,,0,,,46,64
92040,note_on,,,,,24,0,2,,,0,,,49,47
92136,note_off,,,,,96,0,2,,,0,,,49,64
92160,note_on,,,,,24,0,2,,,0,,,42,28
92160,note_on,,,,,0,0,2,,,0,,,54,22
92160,note_on,,,,,0,0,1,,,0,,,73,30
92160,note_on,,,,,744,0,1,,,0,,,66,21
92256,note_off,,,,,96,0,1,,,0,,,73,64
92280,note_on,,,,,24,0,1,,,0,,,70,33
92376,note_off,,,,,96,0,1,,,0,,,70,64
92397,control_change,,,,,1506,0,4,,,0,64,96,,
92400,note_on,,,,,24,0,1,,,0,,,74,30
92419,control_change,,,,,22,0,4,,,0,64,64,,
92439,control_change,,,,,20,0,4,,,0,64,0,,
92496,note_off,,,,,96,0,1,,,0,,,74,64
92520,note_on,,,,,24,0,1,,,0,,,73,33
92616,note_off,,,,,96,0,1,,,0,,,73,64
92640,note_on,,,,,24,0,1,,,0,,,70,24
92736,note_off,,,,,96,0,1,,,0,,,70,64
92736,note_off,,,,,0,0,2,,,0,,,42,64
92736,note_off,,,,,576,0,2,,,0,,,54,64
92760,note_on,,,,,24,0,1,,,0,,,74,28
92812,note_off,,,,,52,0,1,,,0,,,66,64
92856,note_off,,,,,44,0,1,,,0,,,74,64
92880,note_on,,,,,144,0,2,,,0,,,42,33
92880,note_on,,,,,0,0,2,,,0,,,54,28
92880,note_on,,,,,24,0,1,,,0,,,66,28
92880,note_on,,,,,0,0,1,,,0,,,73,33
92976,note_off,,,,,96,0,1,,,0,,,73,64
93000,note_on,,,,,24,0,1,,,0,,,70,30
93096,note_off,,,,,96,0,1,,,0,,,70,64
93120,note_on,,,,,24,0,1,,,0,,,74,33
93216,note_off,,,,,96,0,1,,,0,,,74,64
93240,note_on,,,,,24,0,1,,,0,,,73,37
93336,note_off,,,,,96,0,1,,,0,,,73,64
93360,note_on,,,,,24,0,1,,,0,,,70,26
93456,note_off,,,,,576,0,2,,,0,,,54,64
93456,note_off,,,,,0,0,2,,,0,,,42,64
93456,note_off,,,,,96,0,1,,,0,,,70,64
93480,note_on,,,,,24,0,1,,,0,,,74,26
93544,note_off,,,,,64,0,1,,,0,,,66,64
93576,note_off,,,,,32,0,1,,,0,,,74,64
93600,note_on,,,,,0,0,1,,,0,,,73,34
93600,note_on,,,,,24,0,1,,,0,,,67,26
93600,note_on,,,,,0,0,2,,,0,,,52,28
93600,note_on,,,,,144,0,2,,,0,,,40,31
93696,note_off,,,,,96,0,1,,,0,,,73,64
93720,note_on,,,,,24,0,1,,,0,,,70,30
93816,note_off,,,,,96,0,1,,,0,,,70,64
93840,note_on,,,,,24,0,1,,,0,,,74,33
93936,note_off,,,,,96,0,1,,,0,,,74,64
93960,note_on,,,,,24,0,1,,,0,,,73,33
94056,note_off,,,,,96,0,1,,,0,,,73,64
94080,note_on,,,,,24,0,1,,,0,,,70,26
94176,note_off,,,,,0,0,2,,,0,,,40,64
94176,note_off,,,,,576,0,2,,,0,,,52,64
94176,note_off,,,,,96,0,1,,,0,,,70,64
94200,note_on,,,,,24,0,1,,,0,,,74,33
94284,note_off,,,,,84,0,1,,,0,,,67,64
94296,note_off,,,,,12,0,1,,,0,,,74,64
94307,control_change,,,,,1868,0,4,,,0,64,64,,
94320,note_on,,,,,144,0,2,,,0,,,40,65
94320,note_on,,,,,0,0,2,,,0,,,52,46
94320,note_on,,,,,0,0,1,,,0,,,73,75
94320,note_on,,,,,24,0,1,,,0,,,67,61
94329,control_change,,,,,22,0,4,,,0,64,127,,
94416,note_off,,,,,96,0,1,,,0,,,73,64
94440,note_on,,,,,24,0,1,,,0,,,79,67
94536,note_off,,,,,96,0,1,,,0,,,79,64
94560,note_on,,,,,24,0,1,,,0,,,78,71
94656,note_off,,,,,96,0,1,,,0,,,78,64
94680,note_on,,,,,24,0,1,,,0,,,76,72
94776,note_off,,,,,96,0,1,,,0,,,76,64
94800,note_on,,,,,24,0,1,,,0,,,74,72
94896,note_off,,,,,0,0,2,,,0,,,40,64
94896,note_off,,,,,96,0,1,,,0,,,74,64
94896,note_off,,,,,576,0,2,,,0,,,52,64
94920,note_on,,,,,24,0,1,,,0,,,73,61
95012,note_off,,,,,92,0,1,,,0,,,67,64
95016,note_off,,,,,4,0,1,,,0,,,73,64
95040,note_on,,,,,0,0,2,,,0,,,50,26
95040,note_on,,,,,24,0,1,,,0,,,71,31
95040,note_on,,,,,144,0,2,,,0,,,38,30
95049,control_change,,,,,720,0,4,,,0,64,96,,
95080,control_change,,,,,31,0,4,,,0,64,0,,
95136,note_off,,,,,96,0,1,,,0,,,71,64
95160,note_on,,,,,24,0,1,,,0,,,66,28
95256,note_off,,,,,96,0,1,,,0,,,66,64
95280,note_on,,,,,24,0,1,,,0,,,73,17
95376,note_off,,,,,96,0,1,,,0,,,73,64
95400,note_on,,,,,24,0,1,,,0,,,71,26
95496,note_off,,,,,96,0,1,,,0,,,71,64
95520,note_on,,,,,24,0,1,,,0,,,66,26
95616,note_off,,,,,96,0,1,,,0,,,66,64
95616,note_off,,,,,0,0,2,,,0,,,38,64
95616,note_off,,,,,576,0,2,,,0,,,50,64
95640,note_on,,,,,24,0,1,,,0,,,73,28
95736,note_off,,,,,96,0,1,,,0,,,73,64
95760,note_on,,,,,0,0,2,,,0,,,38,33
95760,note_on,,,,,24,0,1,,,0,,,71,28
95760,note_on,,,,,144,0,2,,,0,,,50,30
95856,note_off,,,,,96,0,1,,,0,,,71,64
95880,note_on,,,,,24,0,1,,,0,,,66,14
95976,note_off,,,,,96,0,1,,,0,,,66,64
96000,note_on,,,,,24,0,1,,,0,,,72,28
96096,note_off,,,,,96,0,1,,,0,,,72,64
96120,note_on,,,,,24,0,1,,,0,,,71,30
96216,note_off,,,,,96,0,1,,,0,,,71,64
96240,note_on,,,,,24,0,1,,,0,,,65,28
96336,note_off,,,,,96,0,1,,,0,,,65,64
96336,note_off,,,,,576,0,2,,,0,,,38,64
96336,note_off,,,,,0,0,2,,,0,,,50,64
96360,note_on,,,,,24,0,1,,,0,,,73,30
96456,note_off,,,,,96,0,1,,,0,,,73,64
96480,note_on,,,,,144,0,2,,,0,,,50,31
96480,note_on,,,,,0,0,2,,,0,,,38,30
96480,note_on,,,,,24,0,1,,,0,,,71,31
96576,note_off,,,,,96,0,1,,,0,,,71,64
96600,note_on,,,,,24,0,1,,,0,,,64,26
96696,note_off,,,,,96,0,1,,,0,,,64,64
96720,note_on,,,,,24,0,1,,,0,,,72,35
96816,note_off,,,,,96,0,1,,,0,,,72,64
96840,note_on,,,,,24,0,1,,,0,,,71,31
96936,note_off,,,,,96,0,1,,,0,,,71,64
96960,note_on,,,,,24,0,1,,,0,,,64,19
97056,note_off,,,,,0,0,2,,,0,,,50,64
97056,note_off,,,,,576,0,2,,,0,,,38,64
97056,note_off,,,,,96,0,1,,,0,,,64,64
97080,note_on,,,,,24,0,1,,,0,,,72,31
97176,note_off,,,,,96,0,1,,,0,,,72,64
97200,note_on,,,,,0,0,2,,,0,,,38,57
97200,note_on,,,,,144,0,2,,,0,,,50,67
97200,note_on,,,,,24,0,1,,,0,,,71,76
97239,control_change,,,,,2159,0,4,,,0,64,64,,
97256,control_change,,,,,17,0,4,,,0,64,96,,
97272,control_change,,,,,16,0,4,,,0,64,127,,
97296,note_off,,,,,96,0,1,,,0,,,71,64
97320,note_on,,,,,24,0,1,,,0,,,77,72
97416,note_off,,,,,96,0,1,,,0,,,77,64
97440,note_on,,,,,24,0,1,,,0,,,76,65
97536,note_off,,,,,96,0,1,,,0,,,76,64
97560,note_on,,,,,24,0,1,,,0,,,74,61
97656,note_off,,,,,96,0,1,,,0,,,74,64
97680,note_on,,,,,24,0,1,,,0,,,72,67
97776,note_off,,,,,0,0,2,,,0,,,50,64
97776,note_off,,,,,576,0,2,,,0,,,38,64
97776,note_off,,,,,96,0,1,,,0,,,72,64
97800,note_on,,,,,24,0,1,,,0,,,71,65
97896,note_off,,,,,96,0,1,,,0,,,71,64
97920,note_on,,,,,0,0,2,,,0,,,48,28
97920,note_on,,,,,144,0,2,,,0,,,36,33
97920,note_on,,,,,24,0,1,,,0,,,69,30
97990,control_change,,,,,718,0,4,,,0,64,96,,
98010,control_change,,,,,20,0,4,,,0,64,64,,
98016,note_off,,,,,96,0,1,,,0,,,69,64
98034,control_change,,,,,24,0,4,,,0,64,0,,
98040,note_on,,,,,24,0,1,,,0,,,64,24
98136,note_off,,,,,96,0,1,,,0,,,64,64
98160,note_on,,,,,24,0,1,,,0,,,71,23
98256,note_off,,,,,96,0,1,,,0,,,71,64
98280,note_on,,,,,24,0,1,,,0,,,69,37
98376,note_off,,,,,96,0,1,,,0,,,69,64
98400,note_on,,,,,24,0,1,,,0,,,64,28
98496,note_off,,,,,576,0,2,,,0,,,48,64
98496,note_off,,,,,0,0,2,,,0,,,36,64
98496,note_off,,,,,96,0,1,,,0,,,64,64
98520,note_on,,,,,24,0,1,,,0,,,71,24
98616,note_off,,,,,96,0,1,,,0,,,71,64
98640,note_on,,,,,144,0,2,,,0,,,36,33
98640,note_on,,,,,0,0,2,,,0,,,48,26
98640,note_on,,,,,24,0,1,,,0,,,69,33
98721,control_change,,,,,687,0,4,,,0,64,64,,
98736,note_off,,,,,96,0,1,,,0,,,69,64
98740,control_change,,,,,19,0,4,,,0,64,127,,
98760,note_on,,,,,24,0,1,,,0,,,81,35
98856,note_off,,,,,96,0,1,,,0,,,81,64
98880,note_on,,,,,24,0,1,,,0,,,79,33
98976,note_off,,,,,96,0,1,,,0,,,79,64
98980,note_on,,,,,4,0,1,,,0,,,81,39
99000,note_on,,,,,20,0,1,,,0,,,79,30
99028,note_off,,,,,28,0,1,,,0,,,81,64
99096,note_off,,,,,68,0,1,,,0,,,79,64
99120,note_on,,,,,24,0,1,,,0,,,78,37
99216,note_off,,,,,0,0,2,,,0,,,36,64
99216,note_off,,,,,96,0,1,,,0,,,78,64
99216,note_off,,,,,576,0,2,,,0,,,48,64
99240,note_on,,,,,24,0,1,,,0,,,76,35
99336,note_off,,,,,96,0,1,,,0,,,76,64
99360,note_on,,,,,0,0,2,,,0,,,35,33
99360,note_on,,,,,24,0,1,,,0,,,75,33
99360,note_on,,,,,144,0,2,,,0,,,47,33
99413,control_change,,,,,673,0,4,,,0,64,96,,
99432,control_change,,,,,19,0,4,,,0,64,64,,
99454,control_change,,,,,22,0,4,,,0,64,0,,
99456,note_off,,,,,96,0,1,,,0,,,75,64
99480,note_on,,,,,24,0,1,,,0,,,76,31
99576,note_off,,,,,96,0,1,,,0,,,76,64
99600,note_on,,,,,24,0,1,,,0,,,75,26
99648,note_off,,,,,288,0,2,,,0,,,35,64
99648,note_off,,,,,0,0,2,,,0,,,47,64
99696,note_off,,,,,96,0,1,,,0,,,75,64
99720,note_on,,,,,24,0,1,,,0,,,76,33
99720,note_on,,,,,72,0,2,,,0,,,36,26
99720,note_on,,,,,0,0,2,,,0,,,48,30
99816,note_off,,,,,96,0,1,,,0,,,76,64
99840,note_on,,,,,24,0,1,,,0,,,75,19
99936,note_off,,,,,96,0,1,,,0,,,75,64
99960,note_on,,,,,24,0,1,,,0,,,76,21
100008,note_off,,,,,288,0,2,,,0,,,48,64
100008,note_off,,,,,0,0,2,,,0,,,36,64
100056,note_off,,,,,96,0,1,,,0,,,76,64
100080,note_on,,,,,72,0,2,,,0,,,35,33
100080,note_on,,,,,0,0,2,,,0,,,47,32
100080,note_on,,,,,24,0,1,,,0,,,75,34
100176,note_off,,,,,96,0,1,,,0,,,75,64
100200,note_on,,,,,24,0,1,,,0,,,76,26
100296,note_off,,,,,96,0,1,,,0,,,76,64
100320,note_on,,,,,24,0,1,,,0,,,75,22
100368,note_off,,,,,0,0,2,,,0,,,35,64
100368,note_off,,,,,288,0,2,,,0,,,47,64
100416,note_off,,,,,96,0,1,,,0,,,75,64
100440,note_on,,,,,0,0,2,,,0,,,36,31
100440,note_on,,,,,72,0,2,,,0,,,48,30
100440,note_on,,,,,24,0,1,,,0,,,76,31
100536,note_off,,,,,96,0,1,,,0,,,76,64
100560,note_on,,,,,24,0,1,,,0,,,75,24
100656,note_off,,,,,96,0,1,,,0,,,75,64
100680,note_on,,,,,24,0,1,,,0,,,76,33
100728,note_off,,,,,0,0,2,,,0,,,48,64
100728,note_off,,,,,288,0,2,,,0,,,36,64
100776,note_off,,,,,96,0,1,,,0,,,76,64
100800,note_on,,,,,0,0,2,,,0,,,35,56
100800,note_on,,,,,72,0,2,,,0,,,47,54
100800,note_on,,,,,24,0,1,,,0,,,83,70
100810,control_change,,,,,1356,0,4,,,0,64,64,,
100839,control_change,,,,,29,0,4,,,0,64,96,,
100856,control_change,,,,,17,0,4,,,0,64,127,,
100896,note_off,,,,,96,0,1,,,0,,,83,64
100920,note_on,,,,,24,0,1,,,0,,,78,58
101016,note_off,,,,,96,0,1,,,0,,,78,64
101040,note_on,,,,,24,0,1,,,0,,,75,55
101136,note_off,,,,,96,0,1,,,0,,,75,64
101160,note_on,,,,,24,0,1,,,0,,,71,52
101256,note_off,,,,,96,0,1,,,0,,,71,64
101280,note_on,,,,,24,0,1,,,0,,,66,50
101376,note_off,,,,,96,0,1,,,0,,,66,64
101376,note_off,,,,,0,0,2,,,0,,,47,64
101376,note_off,,,,,576,0,2,,,0,,,35,64
101400,note_on,,,,,24,0,1,,,0,,,63,50
101496,note_off,,,,,96,0,1,,,0,,,63,64
101520,note_on,,,,,144,0,2,,,0,,,59,63
101616,note_off,,,,,96,0,2,,,0,,,59,64
101640,note_on,,,,,24,0,2,,,0,,,54,55
101736,note_off,,,,,96,0,2,,,0,,,54,64
101760,note_on,,,,,24,0,2,,,0,,,51,55
101856,note_off,,,,,96,0,2,,,0,,,51,64
101880,note_on,,,,,24,0,2,,,0,,,47,52
101976,note_off,,,,,96,0,2,,,0,,,47,64
102000,note_on,,,,,24,0,2,,,0,,,42,50
102096,note_off,,,,,96,0,2,,,0,,,42,64
102120,note_on,,,,,24,0,2,,,0,,,39,55
102216,note_off,,,,,96,0,2,,,0,,,39,64
102240,note_on,,,,,744,0,1,,,0,,,83,50
102240,note_on,,,,,24,0,2,,,0,,,35,59
102336,note_off,,,,,96,0,1,,,0,,,83,64
102360,note_on,,,,,24,0,1,,,0,,,78,50
102397,control_change,,,,,1541,0,4,,,0,64,96,,
102414,control_change,,,,,17,0,4,,,0,64,64,,
102433,control_change,,,,,19,0,4,,,0,64,0,,
102456,note_off,,,,,96,0,1,,,0,,,78,64
102480,note_on,,,,,24,0,1,,,0,,,75,50
102528,note_off,,,,,288,0,2,,,0,,,35,64
102576,note_off,,,,,96,0,1,,,0,,,75,64
102600,note_on,,,,,72,0,2,,,0,,,59,56
102600,note_on,,,,,24,0,1,,,0,,,71,52
102696,note_off,,,,,96,0,1,,,0,,,71,64
102720,note_on,,,,,24,0,1,,,0,,,75,63
102816,note_off,,,,,96,0,1,,,0,,,75,64
102840,note_on,,,,,24,0,1,,,0,,,83,52
102888,note_off,,,,,288,0,2,,,0,,,59,64
102936,note_off,,,,,96,0,1,,,0,,,83,64
102960,note_on,,,,,24,0,1,,,0,,,84,52
102960,note_on,,,,,72,0,2,,,0,,,57,59
103056,note_off,,,,,96,0,1,,,0,,,84,64
103080,note_on,,,,,24,0,1,,,0,,,72,56
103176,note_off,,,,,96,0,1,,,0,,,72,64
103200,note_on,,,,,24,0,1,,,0,,,75,50
103248,note_off,,,,,288,0,2,,,0,,,57,64
103296,note_off,,,,,96,0,1,,,0,,,75,64
103320,note_on,,,,,24,0,1,,,0,,,87,63
103320,note_on,,,,,72,0,2,,,0,,,54,55
103416,note_off,,,,,96,0,1,,,0,,,87,64
103440,note_on,,,,,24,0,1,,,0,,,75,58
103536,note_off,,,,,96,0,1,,,0,,,75,64
103560,note_on,,,,,24,0,1,,,0,,,78,55
103608,note_off,,,,,288,0,2,,,0,,,54,64
103656,note_off,,,,,96,0,1,,,0,,,78,64
103680,note_on,,,,,24,0,1,,,0,,,88,59
103680,note_on,,,,,72,0,2,,,0,,,55,59
103776,note_off,,,,,96,0,1,,,0,,,88,64
103800,note_on,,,,,24,0,1,,,0,,,76,50
103896,note_off,,,,,96,0,1,,,0,,,76,64
103920,note_on,,,,,24,0,1,,,0,,,79,47
103968,note_off,,,,,288,0,2,,,0,,,55,64
104016,note_off,,,,,96,0,1,,,0,,,79,64
104040,note_on,,,,,72,0,2,,,0,,,52,67
104040,note_on,,,,,24,0,1,,,0,,,83,50
104136,note_off,,,,,96,0,1,,,0,,,83,64
104160,note_on,,,,,24,0,1,,,0,,,81,50
104256,note_off,,,,,96,0,1,,,0,,,81,64
104280,note_on,,,,,24,0,1,,,0,,,79,52
104328,note_off,,,,,288,0,2,,,0,,,52,64
104376,note_off,,,,,96,0,1,,,0,,,79,64
104400,note_on,,,,,72,0,2,,,0,,,57,59
104400,note_on,,,,,24,0,1,,,0,,,78,63
104496,note_off,,,,,96,0,1,,,0,,,78,64
104520,note_on,,,,,24,0,1,,,0,,,79,50
104616,note_off,,,,,96,0,1,,,0,,,79,64
104640,note_on,,,,,24,0,1,,,0,,,81,52
104688,note_off,,,,,288,0,2,,,0,,,57,64
104736,note_off,,,,,96,0,1,,,0,,,81,64
104760,note_on,,,,,72,0,2,,,0,,,48,50
104760,note_on,,,,,24,0,1,,,0,,,79,56
104856,note_off,,,,,96,0,1,,,0,,,79,64
104880,note_on,,,,,24,0,1,,,0,,,78,47
104976,note_off,,,,,96,0,1,,,0,,,78,64
105000,note_on,,,,,24,0,1,,,0,,,76,56
105048,note_off,,,,,288,0,2,,,0,,,48,64
105096,note_off,,,,,96,0,1,,,0,,,76,64
105120,note_on,,,,,72,0,2,,,0,,,47,62
105120,note_on,,,,,24,0,1,,,0,,,83,62
105200,control_change,,,,,2767,0,4,,,0,64,64,,
105216,note_off,,,,,96,0,1,,,0,,,83,64
105222,control_change,,,,,22,0,4,,,0,64,96,,
105240,note_on,,,,,24,0,1,,,0,,,78,58
105242,control_change,,,,,20,0,4,,,0,64,127,,
105336,note_off,,,,,96,0,1,,,0,,,78,64
105360,note_on,,,,,24,0,1,,,0,,,75,58
105456,note_off,,,,,96,0,1,,,0,,,75,64
105480,note_on,,,,,24,0,1,,,0,,,71,47
105576,note_off,,,,,96,0,1,,,0,,,71,64
105600,note_on,,,,,24,0,1,,,0,,,66,44
105696,note_off,,,,,96,0,1,,,0,,,66,64
105696,note_off,,,,,576,0,2,,,0,,,47,64
105720,note_on,,,,,24,0,1,,,0,,,63,63
105816,note_off,,,,,96,0,1,,,0,,,63,64
105840,note_on,,,,,144,0,2,,,0,,,59,63
105936,note_off,,,,,96,0,2,,,0,,,59,64
105960,note_on,,,,,24,0,2,,,0,,,54,55
106056,note_off,,,,,96,0,2,,,0,,,54,64
106080,note_on,,,,,24,0,2,,,0,,,51,50
106176,note_off,,,,,96,0,2,,,0,,,51,64
106200,note_on,,,,,24,0,2,,,0,,,47,52
106296,note_off,,,,,96,0,2,,,0,,,47,64
106320,note_on,,,,,24,0,2,,,0,,,42,58
106416,note_off,,,,,96,0,2,,,0,,,42,64
106440,note_on,,,,,24,0,2,,,0,,,39,58
106536,note_off,,,,,96,0,2,,,0,,,39,64
106560,note_on,,,,,744,0,1,,,0,,,83,62
106560,note_on,,,,,24,0,2,,,0,,,35,47
106656,note_off,,,,,96,0,1,,,0,,,83,64
106680,note_on,,,,,24,0,1,,,0,,,78,55
106776,note_off,,,,,96,0,1,,,0,,,78,64
106800,note_on,,,,,24,0,1,,,0,,,75,50
106848,note_off,,,,,288,0,2,,,0,,,35,64
106896,note_off,,,,,96,0,1,,,0,,,75,64
106920,note_on,,,,,24,0,1,,,0,,,71,52
106920,note_on,,,,,72,0,2,,,0,,,59,63
106923,control_change,,,,,1681,0,4,,,0,64,96,,
106954,control_change,,,,,31,0,4,,,0,64,0,,
107016,note_off,,,,,96,0,1,,,0,,,71,64
107040,note_on,,,,,24,0,1,,,0,,,75,50
107136,note_off,,,,,96,0,1,,,0,,,75,64
107160,note_on,,,,,24,0,1,,,0,,,83,52
107208,note_off,,,,,288,0,2,,,0,,,59,64
107256,note_off,,,,,96,0,1,,,0,,,83,64
107280,note_on,,,,,24,0,1,,,0,,,84,59
107280,note_on,,,,,72,0,2,,,0,,,57,50
107376,note_off,,,,,96,0,1,,,0,,,84,64
107400,note_on,,,,,24,0,1,,,0,,,72,44
107496,note_off,,,,,96,0,1,,,0,,,72,64
107520,note_on,,,,,24,0,1,,,0,,,75,47
107568,note_off,,,,,288,0,2,,,0,,,57,64
107616,note_off,,,,,96,0,1,,,0,,,75,64
107640,note_on,,,,,72,0,2,,,0,,,54,58
107640,note_on,,,,,24,0,1,,,0,,,87,47
107736,note_off,,,,,96,0,1,,,0,,,87,64
107760,note_on,,,,,24,0,1,,,0,,,75,44
107856,note_off,,,,,96,0,1,,,0,,,75,64
107880,note_on,,,,,24,0,1,,,0,,,78,40
107928,note_off,,,,,288,0,2,,,0,,,54,64
107976,note_off,,,,,96,0,1,,,0,,,78,64
108000,note_on,,,,,24,0,1,,,0,,,88,50
108000,note_on,,,,,72,0,2,,,0,,,55,59
108096,note_off,,,,,96,0,1,,,0,,,88,64
108120,note_on,,,,,24,0,1,,,0,,,76,50
108216,note_off,,,,,96,0,1,,,0,,,76,64
108240,note_on,,,,,24,0,1,,,0,,,79,50
108288,note_off,,,,,288,0,2,,,0,,,55,64
108336,note_off,,,,,96,0,1,,,0,,,79,64
108360,note_on,,,,,72,0,2,,,0,,,52,59
108360,note_on,,,,,24,0,1,,,0,,,83,52
108456,note_off,,,,,96,0,1,,,0,,,83,64
108480,note_on,,,,,24,0,1,,,0,,,81,44
108576,note_off,,,,,96,0,1,,,0,,,81,64
108600,note_on,,,,,24,0,1,,,0,,,79,44
108648,note_off,,,,,288,0,2,,,0,,,52,64
108696,note_off,,,,,96,0,1,,,0,,,79,64
108720,note_on,,,,,72,0,2,,,0,,,45,56
108720,note_on,,,,,24,0,1,,,0,,,78,58
108816,note_off,,,,,96,0,1,,,0,,,78,64
108840,note_on,,,,,24,0,1,,,0,,,79,56
108936,note_off,,,,,96,0,1,,,0,,,79,64
108960,note_on,,,,,24,0,1,,,0,,,81,52
109008,note_off,,,,,288,0,2,,,0,,,45,64
109056,note_off,,,,,96,0,1,,,0,,,81,64
109080,note_on,,,,,24,0,1,,,0,,,79,52
109080,note_on,,,,,72,0,2,,,0,,,47,62
109176,note_off,,,,,96,0,1,,,0,,,79,64
109200,note_on,,,,,24,0,1,,,0,,,81,47
109296,note_off,,,,,96,0,1,,,0,,,81,64
109320,note_on,,,,,24,0,1,,,0,,,78,50
109368,note_off,,,,,288,0,2,,,0,,,47,64
109416,note_off,,,,,96,0,1,,,0,,,78,64
109440,note_on,,,,,24,0,1,,,0,,,78,58
109440,set_tempo,,,,,28800,1,0,292683,,,,,,
109440,note_on,,,,,72,0,2,,,0,,,48,52
109728,note_off,,,,,288,0,1,,,0,,,78,64
109800,note_on,,,,,72,0,1,,,0,,,76,33
110016,note_off,,,,,576,0,2,,,0,,,48,64
110088,note_off,,,,,288,0,1,,,0,,,76,64
110880,note_on,,,,,864,0,2,,,0,,,60,30
110880,note_on,,,,,0,0,2,,,0,,,67,33
110880,note_on,,,,,792,0,1,,,0,,,79,31
110880,set_tempo,,,,,1440,1,0,262009,,,,,,
110976,note_off,,,,,96,0,1,,,0,,,79,64
111000,note_on,,,,,24,0,1,,,0,,,76,30
111096,note_off,,,,,96,0,1,,,0,,,76,64
111120,note_on,,,,,24,0,1,,,0,,,81,33
111216,note_off,,,,,96,0,1,,,0,,,81,64
111240,note_on,,,,,24,0,1,,,0,,,79,33
111336,note_off,,,,,96,0,1,,,0,,,79,64
111360,note_on,,,,,24,0,1,,,0,,,76,26
111456,note_off,,,,,0,0,2,,,0,,,60,64
111456,note_off,,,,,576,0,2,,,0,,,67,64
111456,note_off,,,,,96,0,1,,,0,,,76,64
111480,note_on,,,,,24,0,1,,,0,,,81,28
111576,note_off,,,,,96,0,1,,,0,,,81,64
111600,note_on,,,,,24,0,1,,,0,,,79,31
111600,note_on,,,,,0,0,2,,,0,,,60,23
111600,note_on,,,,,144,0,2,,,0,,,67,26
111696,note_off,,,,,96,0,1,,,0,,,79,64
111720,note_on,,,,,24,0,1,,,0,,,76,26
111816,note_off,,,,,96,0,1,,,0,,,76,64
111840,note_on,,,,,24,0,1,,,0,,,81,30
111936,note_off,,,,,96,0,1,,,0,,,81,64
111960,note_on,,,,,24,0,1,,,0,,,79,35
112056,note_off,,,,,96,0,1,,,0,,,79,64
112080,note_on,,,,,24,0,1,,,0,,,76,23
112176,note_off,,,,,576,0,2,,,0,,,60,64
112176,note_off,,,,,0,0,2,,,0,,,67,64
112176,note_off,,,,,96,0,1,,,0,,,76,64
112200,note_on,,,,,24,0,1,,,0,,,81,24
112296,note_off,,,,,96,0,1,,,0,,,81,64
112320,note_on,,,,,24,0,1,,,0,,,79,33
112320,note_on,,,,,144,0,2,,,0,,,60,30
112320,note_on,,,,,0,0,2,,,0,,,67,31
112416,note_off,,,,,96,0,1,,,0,,,79,64
112440,note_on,,,,,24,0,1,,,0,,,76,30
112536,note_off,,,,,96,0,1,,,0,,,76,64
112560,note_on,,,,,24,0,1,,,0,,,81,37
112608,note_off,,,,,0,0,2,,,0,,,60,64
112608,note_off,,,,,288,0,2,,,0,,,67,64
112656,note_off,,,,,96,0,1,,,0,,,81,64
112680,note_on,,,,,0,0,2,,,0,,,69,45
112680,note_on,,,,,24,0,1,,,0,,,79,49
112680,note_on,,,,,72,0,2,,,0,,,60,45
112776,note_off,,,,,96,0,1,,,0,,,79,64
112800,note_on,,,,,24,0,1,,,0,,,76,43
112896,note_off,,,,,96,0,1,,,0,,,76,64
112920,note_on,,,,,24,0,1,,,0,,,81,43
112968,note_off,,,,,0,0,2,,,0,,,60,64
112968,note_off,,,,,288,0,2,,,0,,,69,64
113016,note_off,,,,,96,0,1,,,0,,,81,64
113040,note_on,,,,,0,0,2,,,0,,,71,52
113040,note_on,,,,,72,0,2,,,0,,,59,63
113040,note_on,,,,,24,0,1,,,0,,,79,59
113136,note_off,,,,,96,0,1,,,0,,,79,64
113160,note_on,,,,,24,0,1,,,0,,,76,52
113256,note_off,,,,,96,0,1,,,0,,,76,64
113280,note_on,,,,,24,0,1,,,0,,,83,50
113376,note_off,,,,,96,0,1,,,0,,,83,64
113400,note_on,,,,,24,0,1,,,0,,,79,56
113496,note_off,,,,,96,0,1,,,0,,,79,64
113520,note_on,,,,,24,0,1,,,0,,,76,50
113616,note_off,,,,,96,0,1,,,0,,,76,64
113616,note_off,,,,,576,0,2,,,0,,,71,64
113616,note_off,,,,,0,0,2,,,0,,,59,64
113640,note_on,,,,,24,0,1,,,0,,,79,44
113736,note_off,,,,,96,0,1,,,0,,,79,64
113760,note_on,,,,,0,0,2,,,0,,,59,54
113760,note_on,,,,,24,0,1,,,0,,,78,44
113760,note_on,,,,,144,0,2,,,0,,,47,59
113856,note_off,,,,,96,0,1,,,0,,,78,64
113880,note_on,,,,,24,0,1,,,0,,,79,52
113976,note_off,,,,,96,0,1,,,0,,,79,64
114000,note_on,,,,,24,0,1,,,0,,,81,62
114096,note_off,,,,,96,0,1,,,0,,,81,64
114120,note_on,,,,,24,0,1,,,0,,,76,52
114216,note_off,,,,,96,0,1,,,0,,,76,64
114240,note_on,,,,,24,0,1,,,0,,,78,50
114336,note_off,,,,,0,0,2,,,0,,,47,64
114336,note_off,,,,,576,0,2,,,0,,,59,64
114336,note_off,,,,,96,0,1,,,0,,,78,64
114360,note_on,,,,,24,0,1,,,0,,,75,58
114456,note_off,,,,,96,0,1,,,0,,,75,64
114480,set_tempo,,,,,3600,1,0,292683,,,,,,
114480,note_on,,,,,24,0,1,,,0,,,75,63
114480,note_on,,,,,144,0,2,,,0,,,48,70
114768,note_off,,,,,288,0,1,,,0,,,75,64
114840,note_on,,,,,72,0,1,,,0,,,76,37
115056,note_off,,,,,576,0,2,,,0,,,48,64
115128,note_off,,,,,288,0,1,,,0,,,76,64
115920,set_tempo,,,,,1440,1,0,262009,,,,,,
115920,note_on,,,,,792,0,1,,,0,,,67,23
115920,note_on,,,,,0,0,2,,,0,,,55,20
115920,note_on,,,,,864,0,2,,,0,,,48,20
116016,note_off,,,,,96,0,1,,,0,,,67,64
116040,note_on,,,,,24,0,1,,,0,,,64,17
116136,note_off,,,,,96,0,1,,,0,,,64,64
116160,note_on,,,,,24,0,1,,,0,,,69,17
116256,note_off,,,,,96,0,1,,,0,,,69,64
116280,note_on,,,,,24,0,1,,,0,,,67,22
116376,note_off,,,,,96,0,1,,,0,,,67,64
116400,note_on,,,,,24,0,1,,,0,,,64,17
116496,note_off,,,,,576,0,2,,,0,,,55,64
116496,note_off,,,,,0,0,2,,,0,,,48,64
116496,note_off,,,,,96,0,1,,,0,,,64,64
116520,note_on,,,,,24,0,1,,,0,,,69,20
116616,note_off,,,,,96,0,1,,,0,,,69,64
116640,note_on,,,,,144,0,2,,,0,,,48,18
116640,note_on,,,,,0,0,2,,,0,,,55,22
116640,note_on,,,,,24,0,1,,,0,,,67,20
116736,note_off,,,,,96,0,1,,,0,,,67,64
116760,note_on,,,,,24,0,1,,,0,,,64,17
116856,note_off,,,,,96,0,1,,,0,,,64,64
116880,note_on,,,,,24,0,1,,,0,,,69,20
116976,note_off,,,,,96,0,1,,,0,,,69,64
117000,note_on,,,,,24,0,1,,,0,,,67,23
117096,note_off,,,,,96,0,1,,,0,,,67,64
117120,note_on,,,,,24,0,1,,,0,,,64,16
117216,note_off,,,,,0,0,2,,,0,,,48,64
117216,note_off,,,,,576,0,2,,,0,,,55,64
117216,note_off,,,,,96,0,1,,,0,,,64,64
117240,note_on,,,,,24,0,1,,,0,,,69,17
117336,note_off,,,,,96,0,1,,,0,,,69,64
117360,note_on,,,,,144,0,2,,,0,,,48,20
117360,note_on,,,,,24,0,1,,,0,,,67,20
117360,note_on,,,,,0,0,2,,,0,,,55,23
117456,note_off,,,,,96,0,1,,,0,,,67,64
117480,note_on,,,,,24,0,1,,,0,,,64,17
117576,note_off,,,,,96,0,1,,,0,,,64,64
117600,note_on,,,,,24,0,1,,,0,,,69,19
117648,note_off,,,,,0,0,2,,,0,,,48,64
117648,note_off,,,,,288,0,2,,,0,,,55,64
117696,note_off,,,,,96,0,1,,,0,,,69,64
117720,note_on,,,,,0,0,2,,,0,,,57,27
117720,note_on,,,,,72,0,2,,,0,,,48,28
117720,note_on,,,,,24,0,1,,,0,,,67,28
117816,note_off,,,,,96,0,1,,,0,,,67,64
117840,note_on,,,,,24,0,1,,,0,,,64,22
117936,note_off,,,,,96,0,1,,,0,,,64,64
117960,note_on,,,,,24,0,1,,,0,,,69,31
118008,note_off,,,,,288,0,2,,,0,,,57,64
118008,note_off,,,,,0,0,2,,,0,,,48,64
118056,note_off,,,,,96,0,1,,,0,,,69,64
118080,note_on,,,,,72,0,2,,,0,,,47,34
118080,note_on,,,,,0,0,2,,,0,,,59,36
118080,note_on,,,,,24,0,1,,,0,,,67,36
118176,note_off,,,,,96,0,1,,,0,,,67,64
118200,note_on,,,,,24,0,1,,,0,,,64,30
118296,note_off,,,,,96,0,1,,,0,,,64,64
118320,note_on,,,,,24,0,1,,,0,,,71,33
118416,note_off,,,,,96,0,1,,,0,,,71,64
118440,note_on,,,,,24,0,1,,,0,,,67,42
118536,note_off,,,,,96,0,1,,,0,,,67,64
118560,note_on,,,,,24,0,1,,,0,,,64,32
118656,note_off,,,,,0,0,2,,,0,,,47,64
118656,note_off,,,,,576,0,2,,,0,,,59,64
118656,note_off,,,,,96,0,1,,,0,,,64,64
118680,note_on,,,,,24,0,1,,,0,,,67,42
118776,note_off,,,,,96,0,1,,,0,,,67,64
118800,note_on,,,,,0,0,2,,,0,,,35,59
118800,note_on,,,,,144,0,2,,,0,,,47,60
118800,note_on,,,,,24,0,1,,,0,,,66,63
118896,note_off,,,,,96,0,1,,,0,,,66,64
118920,note_on,,,,,24,0,1,,,0,,,67,59
119016,note_off,,,,,96,0,1,,,0,,,67,64
119040,note_on,,,,,24,0,1,,,0,,,69,67
119136,note_off,,,,,96,0,1,,,0,,,69,64
119160,note_on,,,,,24,0,1,,,0,,,64,58
119256,note_off,,,,,96,0,1,,,0,,,64,64
119280,note_on,,,,,24,0,1,,,0,,,66,50
119376,note_off,,,,,96,0,1,,,0,,,66,64
119376,note_off,,,,,0,0,2,,,0,,,47,64
119376,note_off,,,,,576,0,2,,,0,,,35,64
119400,note_on,,,,,24,0,1,,,0,,,63,55
119496,note_off,,,,,96,0,1,,,0,,,63,64
119520,note_on,,,,,24,0,1,,,0,,,64,60
119520,note_on,,,,,144,0,2,,,0,,,40,62
119616,note_off,,,,,96,0,1,,,0,,,64,64
119640,note_on,,,,,24,0,1,,,0,,,76,59
119736,note_off,,,,,96,0,1,,,0,,,76,64
119760,note_on,,,,,24,0,1,,,0,,,71,52
119808,note_off,,,,,288,0,2,,,0,,,40,64
119856,note_off,,,,,96,0,1,,,0,,,71,64
119880,note_on,,,,,24,0,1,,,0,,,73,63
119880,note_on,,,,,72,0,2,,,0,,,45,62
119976,note_off,,,,,96,0,1,,,0,,,73,64
120000,note_on,,,,,24,0,1,,,0,,,81,56
120096,note_off,,,,,96,0,1,,,0,,,81,64
120120,note_on,,,,,24,0,1,,,0,,,78,55
120168,note_off,,,,,288,0,2,,,0,,,45,64
120216,note_off,,,,,96,0,1,,,0,,,78,64
120240,note_on,,,,,24,0,1,,,0,,,80,55
120240,note_on,,,,,72,0,2,,,0,,,47,62
120336,note_off,,,,,96,0,1,,,0,,,80,64
120360,note_on,,,,,24,0,1,,,0,,,81,50
120456,note_off,,,,,96,0,1,,,0,,,81,64
120480,note_on,,,,,24,0,1,,,0,,,83,44
120528,note_off,,,,,288,0,2,,,0,,,47,64
120576,note_off,,,,,96,0,1,,,0,,,83,64
120600,note_on,,,,,24,0,1,,,0,,,76,59
120600,note_on,,,,,72,0,2,,,0,,,35,62
120696,note_off,,,,,96,0,1,,,0,,,76,64
120720,note_on,,,,,24,0,1,,,0,,,78,55
120816,note_off,,,,,96,0,1,,,0,,,78,64
120840,note_on,,,,,24,0,1,,,0,,,75,55
120888,note_off,,,,,288,0,2,,,0,,,35,64
120936,note_off,,,,,96,0,1,,,0,,,75,64
120960,note_on,,,,,72,0,2,,,0,,,40,70
120960,note_on,,,,,24,0,1,,,0,,,76,52
121056,note_off,,,,,96,0,1,,,0,,,76,64
121080,note_on,,,,,24,0,1,,,0,,,76,41
121176,note_off,,,,,96,0,1,,,0,,,76,64
121200,note_on,,,,,24,0,1,,,0,,,71,56
121248,note_off,,,,,288,0,2,,,0,,,40,64
121296,note_off,,,,,96,0,1,,,0,,,71,64
121320,note_on,,,,,72,0,2,,,0,,,45,59
121320,note_on,,,,,24,0,1,,,0,,,73,58
121416,note_off,,,,,96,0,1,,,0,,,73,64
121440,note_on,,,,,24,0,1,,,0,,,69,59
121536,note_off,,,,,96,0,1,,,0,,,69,64
121560,note_on,,,,,24,0,1,,,0,,,66,50
121608,note_off,,,,,288,0,2,,,0,,,45,64
121656,note_off,,,,,96,0,1,,,0,,,66,64
121680,note_on,,,,,24,0,1,,,0,,,68,68
121680,note_on,,,,,72,0,2,,,0,,,47,62
121776,note_off,,,,,96,0,1,,,0,,,68,64
121800,note_on,,,,,24,0,1,,,0,,,69,62
121896,note_off,,,,,96,0,1,,,0,,,69,64
121920,note_on,,,,,24,0,1,,,0,,,71,47
121968,note_off,,,,,288,0,2,,,0,,,47,64
122016,note_off,,,,,96,0,1,,,0,,,71,64
122040,note_on,,,,,24,0,1,,,0,,,64,60
122040,note_on,,,,,72,0,2,,,0,,,35,59
122136,note_off,,,,,96,0,1,,,0,,,64,64
122160,note_on,,,,,24,0,1,,,0,,,66,55
122256,note_off,,,,,96,0,1,,,0,,,66,64
122280,note_on,,,,,24,0,1,,,0,,,63,58
122328,note_off,,,,,288,0,2,,,0,,,35,64
122376,note_off,,,,,96,0,1,,,0,,,63,64
122400,note_on,,,,,72,0,2,,,0,,,40,67
122400,set_tempo,,,,,6480,1,0,292683,,,,,,
122400,note_on,,,,,24,0,1,,,0,,,63,68
122688,note_off,,,,,288,0,1,,,0,,,63,64
122760,note_on,,,,,72,0,1,,,0,,,64,55
122976,note_off,,,,,576,0,2,,,0,,,40,64
123048,note_off,,,,,288,0,1,,,0,,,64,64
123120,marker,,,,,0,1,0,,,,,,,
123120,note_on,,,,,144,0,2,,,0,,,59,30
123120,set_tempo,,,,,720,1,0,262009,,,,,,
123120,note_on,,,,,72,0,1,,,0,,,66,27
123216,note_off,,,,,96,0,1,,,0,,,66,64
123240,note_on,,,,,24,0,1,,,0,,,63,23
123336,note_off,,,,,96,0,1,,,0,,,63,64
123360,note_on,,,,,24,0,1,,,0,,,68,22
123413,control_change,,,,,16459,0,4,,,0,64,64,,
123456,note_off,,,,,96,0,1,,,0,,,68,64
123480,note_on,,,,,24,0,1,,,0,,,66,23
123576,note_off,,,,,96,0,1,,,0,,,66,64
123600,note_on,,,,,24,0,1,,,0,,,63,22
123696,note_off,,,,,96,0,1,,,0,,,63,64
123696,note_off,,,,,576,0,2,,,0,,,59,64
123720,note_on,,,,,24,0,1,,,0,,,68,22
123726,control_change,,,,,313,0,4,,,0,64,96,,
123816,note_off,,,,,96,0,1,,,0,,,68,64
123840,note_on,,,,,24,0,1,,,0,,,66,25
123840,note_on,,,,,144,0,2,,,0,,,59,27
123930,control_change,,,,,204,0,4,,,0,64,127,,
123936,note_off,,,,,96,0,1,,,0,,,66,64
123960,note_on,,,,,24,0,1,,,0,,,63,20
124056,note_off,,,,,96,0,1,,,0,,,63,64
124080,note_on,,,,,24,0,1,,,0,,,68,20
124176,note_off,,,,,96,0,1,,,0,,,68,64
124200,note_on,,,,,24,0,1,,,0,,,66,27
124296,note_off,,,,,96,0,1,,,0,,,66,64
124320,note_on,,,,,24,0,1,,,0,,,63,22
124416,note_off,,,,,96,0,1,,,0,,,63,64
124416,note_off,,,,,576,0,2,,,0,,,59,64
124440,note_on,,,,,24,0,1,,,0,,,68,17
124536,note_off,,,,,96,0,1,,,0,,,68,64
124560,note_on,,,,,24,0,1,,,0,,,67,28
124560,note_on,,,,,0,0,2,,,0,,,58,20
124560,note_on,,,,,144,0,2,,,0,,,61,25
124656,note_off,,,,,96,0,1,,,0,,,67,64
124680,note_on,,,,,24,0,1,,,0,,,64,24
124776,note_off,,,,,96,0,1,,,0,,,64,64
124800,control_change,,,,,870,0,4,,,0,64,96,,
124800,note_on,,,,,24,0,1,,,0,,,68,25
124839,control_change,,,,,39,0,4,,,0,64,64,,
124861,control_change,,,,,22,0,4,,,0,64,0,,
124896,note_off,,,,,96,0,1,,,0,,,68,64
124920,note_on,,,,,24,0,1,,,0,,,67,28
125016,note_off,,,,,96,0,1,,,0,,,67,64
125040,note_on,,,,,24,0,1,,,0,,,64,21
125136,note_off,,,,,0,0,2,,,0,,,61,64
125136,note_off,,,,,96,0,1,,,0,,,64,64
125136,note_off,,,,,576,0,2,,,0,,,58,64
125160,note_on,,,,,24,0,1,,,0,,,68,25
125256,note_off,,,,,96,0,1,,,0,,,68,64
125280,note_on,,,,,144,0,2,,,0,,,61,24
125280,note_on,,,,,0,0,2,,,0,,,58,25
125280,note_on,,,,,24,0,1,,,0,,,67,29
125376,note_off,,,,,96,0,1,,,0,,,67,64
125400,note_on,,,,,24,0,1,,,0,,,64,23
125496,note_off,,,,,96,0,1,,,0,,,64,64
125520,note_on,,,,,24,0,1,,,0,,,70,29
125568,note_off,,,,,0,0,2,,,0,,,61,64
125568,note_off,,,,,288,0,2,,,0,,,58,64
125616,note_off,,,,,96,0,1,,,0,,,70,64
125640,note_on,,,,,24,0,1,,,0,,,68,31
125640,note_on,,,,,72,0,2,,,0,,,59,24
125640,note_on,,,,,0,0,2,,,0,,,56,29
125736,note_off,,,,,96,0,1,,,0,,,68,64
125760,note_on,,,,,24,0,1,,,0,,,63,27
125856,note_off,,,,,96,0,1,,,0,,,63,64
125880,note_on,,,,,24,0,1,,,0,,,71,28
125928,note_off,,,,,0,0,2,,,0,,,59,64
125928,note_off,,,,,288,0,2,,,0,,,56,64
125976,note_off,,,,,96,0,1,,,0,,,71,64
126000,note_on,,,,,24,0,1,,,0,,,70,29
126000,note_on,,,,,0,0,2,,,0,,,55,29
126000,note_on,,,,,72,0,2,,,0,,,58,22
126096,note_off,,,,,96,0,1,,,0,,,70,64
126120,note_on,,,,,24,0,1,,,0,,,63,29
126216,note_off,,,,,96,0,1,,,0,,,63,64
126240,note_on,,,,,24,0,1,,,0,,,71,38
126336,note_off,,,,,96,0,1,,,0,,,71,64
126360,note_on,,,,,24,0,1,,,0,,,70,36
126456,note_off,,,,,96,0,1,,,0,,,70,64
126480,note_on,,,,,24,0,1,,,0,,,63,33
126576,note_off,,,,,576,0,2,,,0,,,55,64
126576,note_off,,,,,0,0,2,,,0,,,58,64
126576,note_off,,,,,96,0,1,,,0,,,63,64
126600,note_on,,,,,24,0,1,,,0,,,71,35
126696,note_off,,,,,96,0,1,,,0,,,71,64
126720,note_on,,,,,144,0,2,,,0,,,58,25
126720,note_on,,,,,0,0,2,,,0,,,51,34
126720,note_on,,,,,24,0,1,,,0,,,70,37
126816,note_off,,,,,96,0,1,,,0,,,70,64
126840,note_on,,,,,24,0,1,,,0,,,76,44
126936,note_off,,,,,96,0,1,,,0,,,76,64
126960,note_on,,,,,24,0,1,,,0,,,75,44
127056,note_off,,,,,96,0,1,,,0,,,75,64
127080,note_on,,,,,24,0,1,,,0,,,73,50
127176,note_off,,,,,96,0,1,,,0,,,73,64
127200,note_on,,,,,24,0,1,,,0,,,71,51
127296,note_off,,,,,0,0,2,,,0,,,58,64
127296,note_off,,,,,576,0,2,,,0,,,51,64
127296,note_off,,,,,96,0,1,,,0,,,71,64
127320,note_on,,,,,24,0,1,,,0,,,70,55
127416,note_off,,,,,96,0,1,,,0,,,70,64
127440,note_on,,,,,144,0,2,,,0,,,68,55
127440,note_on,,,,,24,0,1,,,0,,,80,58
127536,note_off,,,,,96,0,1,,,0,,,80,64
127560,note_on,,,,,24,0,1,,,0,,,71,56
127656,note_off,,,,,96,0,1,,,0,,,71,64
127680,note_on,,,,,24,0,1,,,0,,,70,44
127728,note_off,,,,,288,0,2,,,0,,,68,64
127776,note_off,,,,,96,0,1,,,0,,,70,64
127800,note_on,,,,,24,0,1,,,0,,,71,56
127800,note_on,,,,,72,0,2,,,0,,,66,63
127896,note_off,,,,,96,0,1,,,0,,,71,64
127920,note_on,,,,,24,0,1,,,0,,,70,47
128016,note_off,,,,,96,0,1,,,0,,,70,64
128040,note_on,,,,,24,0,1,,,0,,,71,50
128088,note_off,,,,,288,0,2,,,0,,,66,64
128136,note_off,,,,,96,0,1,,,0,,,71,64
128160,note_on,,,,,72,0,2,,,0,,,65,50
128160,note_on,,,,,24,0,1,,,0,,,80,63
128256,note_off,,,,,96,0,1,,,0,,,80,64
128280,note_on,,,,,24,0,1,,,0,,,71,41
128376,note_off,,,,,96,0,1,,,0,,,71,64
128400,note_on,,,,,24,0,1,,,0,,,70,38
128448,note_off,,,,,288,0,2,,,0,,,65,64
128496,note_off,,,,,96,0,1,,,0,,,70,64
128520,note_on,,,,,72,0,2,,,0,,,63,55
128520,note_on,,,,,24,0,1,,,0,,,71,59
128616,note_off,,,,,96,0,1,,,0,,,71,64
128640,note_on,,,,,24,0,1,,,0,,,70,47
128736,note_off,,,,,96,0,1,,,0,,,70,64
128760,note_on,,,,,24,0,1,,,0,,,71,47
128808,note_off,,,,,288,0,2,,,0,,,63,64
128856,note_off,,,,,96,0,1,,,0,,,71,64
128880,note_on,,,,,0,0,2,,,0,,,62,52
128880,note_on,,,,,72,0,2,,,0,,,65,44
128880,note_on,,,,,24,0,1,,,0,,,80,74
128976,note_off,,,,,96,0,1,,,0,,,80,64
129000,note_on,,,,,24,0,1,,,0,,,71,56
129096,note_off,,,,,96,0,1,,,0,,,71,64
129120,note_on,,,,,24,0,1,,,0,,,70,40
129216,note_off,,,,,96,0,1,,,0,,,70,64
129240,note_on,,,,,24,0,1,,,0,,,71,52
129336,note_off,,,,,96,0,1,,,0,,,71,64
129360,note_on,,,,,24,0,1,,,0,,,70,44
129456,note_off,,,,,0,0,2,,,0,,,65,64
129456,note_off,,,,,96,0,1,,,0,,,70,64
129456,note_off,,,,,576,0,2,,,0,,,62,64
129480,note_on,,,,,24,0,1,,,0,,,71,62
129576,note_off,,,,,96,0,1,,,0,,,71,64
129600,note_on,,,,,0,0,2,,,0,,,62,41
129600,note_on,,,,,24,0,1,,,0,,,80,58
129600,note_on,,,,,0,0,2,,,0,,,58,44
129600,note_on,,,,,144,0,2,,,0,,,65,39
129664,control_change,,,,,4803,0,4,,,0,64,64,,
129695,control_change,,,,,31,0,4,,,0,64,96,,
129696,note_off,,,,,96,0,1,,,0,,,80,64
129720,note_on,,,,,24,0,1,,,0,,,83,59
129816,note_off,,,,,96,0,1,,,0,,,83,64
129840,note_on,,,,,24,0,1,,,0,,,82,55
129936,note_off,,,,,96,0,1,,,0,,,82,64
129960,note_on,,,,,24,0,1,,,0,,,80,55
130027,control_change,,,,,332,0,4,,,0,64,127,,
130056,note_off,,,,,96,0,1,,,0,,,80,64
130080,note_on,,,,,24,0,1,,,0,,,78,44
130176,note_off,,,,,0,0,2,,,0,,,58,64
130176,note_off,,,,,96,0,1,,,0,,,78,64
130176,note_off,,,,,0,0,2,,,0,,,65,64
130176,note_off,,,,,576,0,2,,,0,,,62,64
130200,note_on,,,,,24,0,1,,,0,,,77,59
130296,control_change,,,,,269,0,4,,,0,64,96,,
130296,note_off,,,,,96,0,1,,,0,,,77,64
130320,note_on,,,,,144,0,2,,,0,,,59,60
130320,note_on,,,,,24,0,1,,,0,,,75,74
130320,control_change,,,,,24,0,4,,,0,64,64,,
130351,control_change,,,,,31,0,4,,,0,64,0,,
130416,note_off,,,,,96,0,1,,,0,,,75,64
130440,note_on,,,,,24,0,1,,,0,,,66,58
130536,note_off,,,,,96,0,1,,,0,,,66,64
130560,note_on,,,,,24,0,1,,,0,,,65,62
130656,note_off,,,,,96,0,1,,,0,,,65,64
130680,note_on,,,,,24,0,1,,,0,,,66,50
130776,note_off,,,,,96,0,1,,,0,,,66,64
130800,note_on,,,,,24,0,1,,,0,,,65,47
130896,note_off,,,,,576,0,2,,,0,,,59,64
130896,note_off,,,,,96,0,1,,,0,,,65,64
130920,note_on,,,,,24,0,1,,,0,,,66,50
131016,note_off,,,,,96,0,1,,,0,,,66,64
131040,note_on,,,,,24,0,1,,,0,,,75,63
131040,note_on,,,,,144,0,2,,,0,,,58,58
131136,note_off,,,,,96,0,1,,,0,,,75,64
131160,note_on,,,,,24,0,1,,,0,,,66,47
131256,note_off,,,,,96,0,1,,,0,,,66,64
131280,note_on,,,,,24,0,1,,,0,,,65,47
131376,note_off,,,,,96,0,1,,,0,,,65,64
131400,note_on,,,,,24,0,1,,,0,,,66,47
131496,note_off,,,,,96,0,1,,,0,,,66,64
131520,note_on,,,,,24,0,1,,,0,,,65,52
131616,note_off,,,,,96,0,1,,,0,,,65,64
131616,note_off,,,,,576,0,2,,,0,,,58,64
131640,note_on,,,,,24,0,1,,,0,,,66,55
131736,note_off,,,,,96,0,1,,,0,,,66,64
131760,note_on,,,,,144,0,2,,,0,,,59,51
131760,note_on,,,,,24,0,1,,,0,,,75,63
131760,note_on,,,,,0,0,2,,,0,,,56,62
131856,note_off,,,,,96,0,1,,,0,,,75,64
131880,note_on,,,,,24,0,1,,,0,,,71,50
131976,note_off,,,,,96,0,1,,,0,,,71,64
132000,note_on,,,,,24,0,1,,,0,,,70,50
132096,note_off,,,,,96,0,1,,,0,,,70,64
132120,note_on,,,,,24,0,1,,,0,,,71,52
132216,note_off,,,,,96,0,1,,,0,,,71,64
132240,note_on,,,,,24,0,1,,,0,,,70,55
132336,note_off,,,,,0,0,2,,,0,,,59,64
132336,note_off,,,,,576,0,2,,,0,,,56,64
132336,note_off,,,,,96,0,1,,,0,,,70,64
132360,note_on,,,,,24,0,1,,,0,,,71,52
132456,note_off,,,,,96,0,1,,,0,,,71,64
132480,note_on,,,,,144,0,2,,,0,,,65,41
132480,note_on,,,,,0,0,2,,,0,,,59,56
132480,note_on,,,,,0,0,2,,,0,,,56,44
132480,note_on,,,,,24,0,1,,,0,,,77,62
132480,note_on,,,,,0,0,1,,,0,,,74,47
132531,control_change,,,,,2180,0,4,,,0,64,64,,
132561,control_change,,,,,30,0,4,,,0,64,96,,
132576,note_off,,,,,96,0,1,,,0,,,74,64
132591,control_change,,,,,30,0,4,,,0,64,127,,
132600,note_on,,,,,24,0,1,,,0,,,71,47
132696,note_off,,,,,96,0,1,,,0,,,71,64
132720,note_on,,,,,24,0,1,,,0,,,70,35
132816,note_off,,,,,96,0,1,,,0,,,70,64
132840,note_on,,,,,24,0,1,,,0,,,71,52
132936,note_off,,,,,96,0,1,,,0,,,71,64
132960,note_on,,,,,24,0,1,,,0,,,70,47
133056,note_off,,,,,0,0,2,,,0,,,65,64
133056,note_off,,,,,0,0,2,,,0,,,59,64
133056,note_off,,,,,576,0,2,,,0,,,56,64
133056,note_off,,,,,96,0,1,,,0,,,70,64
133080,note_on,,,,,24,0,1,,,0,,,71,56
133124,control_change,,,,,533,0,4,,,0,64,96,,
133132,note_off,,,,,52,0,1,,,0,,,77,64
133143,control_change,,,,,19,0,4,,,0,64,64,,
133165,control_change,,,,,22,0,4,,,0,64,0,,
133176,note_off,,,,,44,0,1,,,0,,,71,64
133200,note_on,,,,,144,0,2,,,0,,,54,50
133200,note_on,,,,,24,0,1,,,0,,,78,58
133296,note_off,,,,,96,0,1,,,0,,,78,64
133320,note_on,,,,,24,0,1,,,0,,,73,58
133327,control_change,,,,,162,0,4,,,0,64,64,,
133355,control_change,,,,,28,0,4,,,0,64,96,,
133371,control_change,,,,,16,0,4,,,0,64,127,,
133416,note_off,,,,,96,0,1,,,0,,,73,64
133440,note_on,,,,,24,0,1,,,0,,,70,47
133536,note_off,,,,,96,0,1,,,0,,,70,64
133560,note_on,,,,,24,0,1,,,0,,,66,58
133656,note_off,,,,,96,0,1,,,0,,,66,64
133680,note_on,,,,,24,0,1,,,0,,,61,59
133776,note_off,,,,,96,0,1,,,0,,,61,64
133776,note_off,,,,,576,0,2,,,0,,,54,64
133800,note_on,,,,,24,0,1,,,0,,,58,55
133896,note_off,,,,,96,0,1,,,0,,,58,64
133920,note_on,,,,,144,0,2,,,0,,,54,55
134016,note_off,,,,,96,0,2,,,0,,,54,64
134040,note_on,,,,,24,0,2,,,0,,,49,50
134136,note_off,,,,,96,0,2,,,0,,,49,64
134160,note_on,,,,,24,0,2,,,0,,,46,42
134256,note_off,,,,,96,0,2,,,0,,,46,64
134280,note_on,,,,,24,0,2,,,0,,,42,47
134376,note_off,,,,,96,0,2,,,0,,,42,64
134400,note_on,,,,,24,0,2,,,0,,,46,48
134496,note_off,,,,,96,0,2,,,0,,,46,64
134520,note_on,,,,,24,0,2,,,0,,,49,47
134616,note_off,,,,,96,0,2,,,0,,,49,64
134640,note_on,,,,,0,0,2,,,0,,,54,22
134640,note_on,,,,,24,0,2,,,0,,,42,28
134640,note_on,,,,,744,0,1,,,0,,,66,21
134640,note_on,,,,,0,0,1,,,0,,,73,30
134736,note_off,,,,,96,0,1,,,0,,,73,64
134760,note_on,,,,,24,0,1,,,0,,,70,33
134856,note_off,,,,,96,0,1,,,0,,,70,64
134877,control_change,,,,,1506,0,4,,,0,64,96,,
134880,note_on,,,,,24,0,1,,,0,,,74,30
134899,control_change,,,,,22,0,4,,,0,64,64,,
134919,control_change,,,,,20,0,4,,,0,64,0,,
134976,note_off,,,,,96,0,1,,,0,,,74,64
135000,note_on,,,,,24,0,1,,,0,,,73,33
135096,note_off,,,,,96,0,1,,,0,,,73,64
135120,note_on,,,,,24,0,1,,,0,,,70,24
135216,note_off,,,,,0,0,2,,,0,,,42,64
135216,note_off,,,,,576,0,2,,,0,,,54,64
135216,note_off,,,,,96,0,1,,,0,,,70,64
135240,note_on,,,,,24,0,1,,,0,,,74,28
135292,note_off,,,,,52,0,1,,,0,,,66,64
135336,note_off,,,,,44,0,1,,,0,,,74,64
135360,note_on,,,,,0,0,2,,,0,,,54,28
135360,note_on,,,,,144,0,2,,,0,,,42,33
135360,note_on,,,,,24,0,1,,,0,,,66,28
135360,note_on,,,,,0,0,1,,,0,,,73,33
135456,note_off,,,,,96,0,1,,,0,,,73,64
135480,note_on,,,,,24,0,1,,,0,,,70,30
135576,note_off,,,,,96,0,1,,,0,,,70,64
135600,note_on,,,,,24,0,1,,,0,,,74,33
135696,note_off,,,,,96,0,1,,,0,,,74,64
135720,note_on,,,,,24,0,1,,,0,,,73,37
135816,note_off,,,,,96,0,1,,,0,,,73,64
135840,note_on,,,,,24,0,1,,,0,,,70,26
135936,note_off,,,,,0,0,2,,,0,,,42,64
135936,note_off,,,,,576,0,2,,,0,,,54,64
135936,note_off,,,,,96,0,1,,,0,,,70,64
135960,note_on,,,,,24,0,1,,,0,,,74,26
136024,note_off,,,,,64,0,1,,,0,,,66,64
136056,note_off,,,,,32,0,1,,,0,,,74,64
136080,note_on,,,,,24,0,1,,,0,,,67,26
136080,note_on,,,,,144,0,2,,,0,,,40,31
136080,note_on,,,,,0,0,2,,,0,,,52,28
136080,note_on,,,,,0,0,1,,,0,,,73,34
136176,note_off,,,,,96,0,1,,,0,,,73,64
136200,note_on,,,,,24,0,1,,,0,,,70,30
136296,note_off,,,,,96,0,1,,,0,,,70,64
136320,note_on,,,,,24,0,1,,,0,,,74,33
136416,note_off,,,,,96,0,1,,,0,,,74,64
136440,note_on,,,,,24,0,1,,,0,,,73,33
136536,note_off,,,,,96,0,1,,,0,,,73,64
136560,note_on,,,,,24,0,1,,,0,,,70,26
136656,note_off,,,,,0,0,2,,,0,,,40,64
136656,note_off,,,,,96,0,1,,,0,,,70,64
136656,note_off,,,,,576,0,2,,,0,,,52,64
136680,note_on,,,,,24,0,1,,,0,,,74,33
136764,note_off,,,,,84,0,1,,,0,,,67,64
136776,note_off,,,,,12,0,1,,,0,,,74,64
136787,control_change,,,,,1868,0,4,,,0,64,64,,
136800,note_on,,,,,0,0,1,,,0,,,73,75
136800,note_on,,,,,144,0,2,,,0,,,40,65
136800,note_on,,,,,0,0,2,,,0,,,52,46
136800,note_on,,,,,24,0,1,,,0,,,67,61
136809,control_change,,,,,22,0,4,,,0,64,127,,
136896,note_off,,,,,96,0,1,,,0,,,73,64
136920,note_on,,,,,24,0,1,,,0,,,79,67
137016,note_off,,,,,96,0,1,,,0,,,79,64
137040,note_on,,,,,24,0,1,,,0,,,78,71
137136,note_off,,,,,96,0,1,,,0,,,78,64
137160,note_on,,,,,24,0,1,,,0,,,76,72
137256,note_off,,,,,96,0,1,,,0,,,76,64
137280,note_on,,,,,24,0,1,,,0,,,74,72
137376,note_off,,,,,576,0,2,,,0,,,52,64
137376,note_off,,,,,96,0,1,,,0,,,74,64
137376,note_off,,,,,0,0,2,,,0,,,40,64
137400,note_on,,,,,24,0,1,,,0,,,73,61
137492,note_off,,,,,92,0,1,,,0,,,67,64
137496,note_off,,,,,4,0,1,,,0,,,73,64
137520,note_on,,,,,0,0,2,,,0,,,50,26
137520,note_on,,,,,144,0,2,,,0,,,38,30
137520,note_on,,,,,24,0,1,,,0,,,71,31
137529,control_change,,,,,720,0,4,,,0,64,96,,
137560,control_change,,,,,31,0,4,,,0,64,0,,
137616,note_off,,,,,96,0,1,,,0,,,71,64
137640,note_on,,,,,24,0,1,,,0,,,66,28
137736,note_off,,,,,96,0,1,,,0,,,66,64
137760,note_on,,,,,24,0,1,,,0,,,73,17
137856,note_off,,,,,96,0,1,,,0,,,73,64
137880,note_on,,,,,24,0,1,,,0,,,71,26
137976,note_off,,,,,96,0,1,,,0,,,71,64
138000,note_on,,,,,24,0,1,,,0,,,66,26
138096,note_off,,,,,96,0,1,,,0,,,66,64
138096,note_off,,,,,576,0,2,,,0,,,50,64
138096,note_off,,,,,0,0,2,,,0,,,38,64
138120,note_on,,,,,24,0,1,,,0,,,73,28
138216,note_off,,,,,96,0,1,,,0,,,73,64
138240,note_on,,,,,144,0,2,,,0,,,50,30
138240,note_on,,,,,0,0,2,,,0,,,38,33
138240,note_on,,,,,24,0,1,,,0,,,71,28
138336,note_off,,,,,96,0,1,,,0,,,71,64
138360,note_on,,,,,24,0,1,,,0,,,66,14
138456,note_off,,,,,96,0,1,,,0,,,66,64
138480,note_on,,,,,24,0,1,,,0,,,72,28
138576,note_off,,,,,96,0,1,,,0,,,72,64
138600,note_on,,,,,24,0,1,,,0,,,71,30
138696,note_off,,,,,96,0,1,,,0,,,71,64
138720,note_on,,,,,24,0,1,,,0,,,65,28
138816,note_off,,,,,96,0,1,,,0,,,65,64
138816,note_off,,,,,0,0,2,,,0,,,50,64
138816,note_off,,,,,576,0,2,,,0,,,38,64
138840,note_on,,,,,24,0,1,,,0,,,73,30
138936,note_off,,,,,96,0,1,,,0,,,73,64
138960,note_on,,,,,24,0,1,,,0,,,71,31
138960,note_on,,,,,0,0,2,,,0,,,38,30
138960,note_on,,,,,144,0,2,,,0,,,50,31
139056,note_off,,,,,96,0,1,,,0,,,71,64
139080,note_on,,,,,24,0,1,,,0,,,64,26
139176,note_off,,,,,96,0,1,,,0,,,64,64
139200,note_on,,,,,24,0,1,,,0,,,72,35
139296,note_off,,,,,96,0,1,,,0,,,72,64
139320,note_on,,,,,24,0,1,,,0,,,71,31
139416,note_off,,,,,96,0,1,,,0,,,71,64
139440,note_on,,,,,24,0,1,,,0,,,64,19
139536,note_off,,,,,96,0,1,,,0,,,64,64
139536,note_off,,,,,576,0,2,,,0,,,38,64
139536,note_off,,,,,0,0,2,,,0,,,50,64
139560,note_on,,,,,24,0,1,,,0,,,72,31
139656,note_off,,,,,96,0,1,,,0,,,72,64
139680,note_on,,,,,0,0,2,,,0,,,38,57
139680,note_on,,,,,24,0,1,,,0,,,71,76
139680,note_on,,,,,144,0,2,,,0,,,50,67
139719,control_change,,,,,2159,0,4,,,0,64,64,,
139736,control_change,,,,,17,0,4,,,0,64,96,,
139752,control_change,,,,,16,0,4,,,0,64,127,,
139776,note_off,,,,,96,0,1,,,0,,,71,64
139800,note_on,,,,,24,0,1,,,0,,,77,72
139896,note_off,,,,,96,0,1,,,0,,,77,64
139920,note_on,,,,,24,0,1,,,0,,,76,65
140016,note_off,,,,,96,0,1,,,0,,,76,64
140040,note_on,,,,,24,0,1,,,0,,,74,61
140136,note_off,,,,,96,0,1,,,0,,,74,64
140160,note_on,,,,,24,0,1,,,0,,,72,67
140256,note_off,,,,,576,0,2,,,0,,,38,64
140256,note_off,,,,,96,0,1,,,0,,,72,64
140256,note_off,,,,,0,0,2,,,0,,,50,64
140280,note_on,,,,,24,0,1,,,0,,,71,65
140376,note_off,,,,,96,0,1,,,0,,,71,64
140400,note_on,,,,,24,0,1,,,0,,,69,30
140400,note_on,,,,,144,0,2,,,0,,,36,33
140400,note_on,,,,,0,0,2,,,0,,,48,28
140470,control_change,,,,,718,0,4,,,0,64,96,,
140490,control_change,,,,,20,0,4,,,0,64,64,,
140496,note_off,,,,,96,0,1,,,0,,,69,64
140514,control_change,,,,,24,0,4,,,0,64,0,,
140520,note_on,,,,,24,0,1,,,0,,,64,24
140616,note_off,,,,,96,0,1,,,0,,,64,64
140640,note_on,,,,,24,0,1,,,0,,,71,23
140736,note_off,,,,,96,0,1,,,0,,,71,64
140760,note_on,,,,,24,0,1,,,0,,,69,37
140856,note_off,,,,,96,0,1,,,0,,,69,64
140880,note_on,,,,,24,0,1,,,0,,,64,28
140976,note_off,,,,,96,0,1,,,0,,,64,64
140976,note_off,,,,,576,0,2,,,0,,,48,64
140976,note_off,,,,,0,0,2,,,0,,,36,64
141000,note_on,,,,,24,0,1,,,0,,,71,24
141096,note_off,,,,,96,0,1,,,0,,,71,64
141120,note_on,,,,,24,0,1,,,0,,,69,33
141120,note_on,,,,,0,0,2,,,0,,,48,26
141120,note_on,,,,,144,0,2,,,0,,,36,33
141201,control_change,,,,,687,0,4,,,0,64,64,,
141216,note_off,,,,,96,0,1,,,0,,,69,64
141220,control_change,,,,,19,0,4,,,0,64,127,,
141240,note_on,,,,,24,0,1,,,0,,,81,35
141336,note_off,,,,,96,0,1,,,0,,,81,64
141360,note_on,,,,,24,0,1,,,0,,,79,33
141456,note_off,,,,,96,0,1,,,0,,,79,64
141460,note_on,,,,,4,0,1,,,0,,,81,39
141480,note_on,,,,,20,0,1,,,0,,,79,30
141508,note_off,,,,,28,0,1,,,0,,,81,64
141576,note_off,,,,,68,0,1,,,0,,,79,64
141600,note_on,,,,,24,0,1,,,0,,,78,37
141696,note_off,,,,,576,0,2,,,0,,,48,64
141696,note_off,,,,,0,0,2,,,0,,,36,64
141696,note_off,,,,,96,0,1,,,0,,,78,64
141720,note_on,,,,,24,0,1,,,0,,,76,35
141816,note_off,,,,,96,0,1,,,0,,,76,64
141840,note_on,,,,,0,0,2,,,0,,,35,33
141840,note_on,,,,,144,0,2,,,0,,,47,33
141840,note_on,,,,,24,0,1,,,0,,,75,33
141893,control_change,,,,,673,0,4,,,0,64,96,,
141912,control_change,,,,,19,0,4,,,0,64,64,,
141934,control_change,,,,,22,0,4,,,0,64,0,,
141936,note_off,,,,,96,0,1,,,0,,,75,64
141960,note_on,,,,,24,0,1,,,0,,,76,31
142056,note_off,,,,,96,0,1,,,0,,,76,64
142080,note_on,,,,,24,0,1,,,0,,,75,26
142128,note_off,,,,,0,0,2,,,0,,,47,64
142128,note_off,,,,,288,0,2,,,0,,,35,64
142176,note_off,,,,,96,0,1,,,0,,,75,64
142200,note_on,,,,,24,0,1,,,0,,,76,33
142200,note_on,,,,,0,0,2,,,0,,,48,30
142200,note_on,,,,,72,0,2,,,0,,,36,26
142296,note_off,,,,,96,0,1,,,0,,,76,64
142320,note_on,,,,,24,0,1,,,0,,,75,19
142416,note_off,,,,,96,0,1,,,0,,,75,64
142440,note_on,,,,,24,0,1,,,0,,,76,21
142488,note_off,,,,,0,0,2,,,0,,,36,64
142488,note_off,,,,,288,0,2,,,0,,,48,64
142536,note_off,,,,,96,0,1,,,0,,,76,64
142560,note_on,,,,,0,0,2,,,0,,,47,32
142560,note_on,,,,,24,0,1,,,0,,,75,34
142560,note_on,,,,,72,0,2,,,0,,,35,33
142656,note_off,,,,,96,0,1,,,0,,,75,64
142680,note_on,,,,,24,0,1,,,0,,,76,26
142776,note_off,,,,,96,0,1,,,0,,,76,64
142800,note_on,,,,,24,0,1,,,0,,,75,22
142848,note_off,,,,,288,0,2,,,0,,,47,64
142848,note_off,,,,,0,0,2,,,0,,,35,64
142896,note_off,,,,,96,0,1,,,0,,,75,64
142920,note_on,,,,,24,0,1,,,0,,,76,31
142920,note_on,,,,,72,0,2,,,0,,,48,30
142920,note_on,,,,,0,0,2,,,0,,,36,31
143016,note_off,,,,,96,0,1,,,0,,,76,64
143040,note_on,,,,,24,0,1,,,0,,,75,24
143136,note_off,,,,,96,0,1,,,0,,,75,64
143160,note_on,,,,,24,0,1,,,0,,,76,33
143208,note_off,,,,,288,0,2,,,0,,,36,64
143208,note_off,,,,,0,0,2,,,0,,,48,64
143256,note_off,,,,,96,0,1,,,0,,,76,64
143280,note_on,,,,,24,0,1,,,0,,,83,70
143280,note_on,,,,,0,0,2,,,0,,,35,56
143280,note_on,,,,,72,0,2,,,0,,,47,54
143290,control_change,,,,,1356,0,4,,,0,64,64,,
143319,control_change,,,,,29,0,4,,,0,64,96,,
143336,control_change,,,,,17,0,4,,,0,64,127,,
143376,note_off,,,,,96,0,1,,,0,,,83,64
143400,note_on,,,,,24,0,1,,,0,,,78,58
143496,note_off,,,,,96,0,1,,,0,,,78,64
143520,note_on,,,,,24,0,1,,,0,,,75,55
143616,note_off,,,,,96,0,1,,,0,,,75,64
143640,note_on,,,,,24,0,1,,,0,,,71,52
143736,note_off,,,,,96,0,1,,,0,,,71,64
143760,note_on,,,,,24,0,1,,,0,,,66,50
143856,note_off,,,,,0,0,2,,,0,,,47,64
143856,note_off,,,,,96,0,1,,,0,,,66,64
143856,note_off,,,,,576,0,2,,,0,,,35,64
143880,note_on,,,,,24,0,1,,,0,,,63,50
143976,note_off,,,,,96,0,1,,,0,,,63,64
144000,note_on,,,,,144,0,2,,,0,,,59,63
144096,note_off,,,,,96,0,2,,,0,,,59,64
144120,note_on,,,,,24,0,2,,,0,,,54,55
144216,note_off,,,,,96,0,2,,,0,,,54,64
144240,note_on,,,,,24,0,2,,,0,,,51,55
144336,note_off,,,,,96,0,2,,,0,,,51,64
144360,note_on,,,,,24,0,2,,,0,,,47,52
144456,note_off,,,,,96,0,2,,,0,,,47,64
144480,note_on,,,,,24,0,2,,,0,,,42,50
144576,note_off,,,,,96,0,2,,,0,,,42,64
144600,note_on,,,,,24,0,2,,,0,,,39,55
144696,note_off,,,,,96,0,2,,,0,,,39,64
144720,note_on,,,,,744,0,1,,,0,,,83,50
144720,note_on,,,,,24,0,2,,,0,,,35,59
144816,note_off,,,,,96,0,1,,,0,,,83,64
144840,note_on,,,,,24,0,1,,,0,,,78,50
144877,control_change,,,,,1541,0,4,,,0,64,96,,
144894,control_change,,,,,17,0,4,,,0,64,64,,
144913,control_change,,,,,19,0,4,,,0,64,0,,
144936,note_off,,,,,96,0,1,,,0,,,78,64
144960,note_on,,,,,24,0,1,,,0,,,75,50
145008,note_off,,,,,288,0,2,,,0,,,35,64
145056,note_off,,,,,96,0,1,,,0,,,75,64
145080,note_on,,,,,72,0,2,,,0,,,59,56
145080,note_on,,,,,24,0,1,,,0,,,71,52
145176,note_off,,,,,96,0,1,,,0,,,71,64
145200,note_on,,,,,24,0,1,,,0,,,75,63
145296,note_off,,,,,96,0,1,,,0,,,75,64
145320,note_on,,,,,24,0,1,,,0,,,83,52
145368,note_off,,,,,288,0,2,,,0,,,59,64
145416,note_off,,,,,96,0,1,,,0,,,83,64
145440,note_on,,,,,72,0,2,,,0,,,57,59
145440,note_on,,,,,24,0,1,,,0,,,84,52
145536,note_off,,,,,96,0,1,,,0,,,84,64
145560,note_on,,,,,24,0,1,,,0,,,72,56
145656,note_off,,,,,96,0,1,,,0,,,72,64
145680,note_on,,,,,24,0,1,,,0,,,75,50
145728,note_off,,,,,288,0,2,,,0,,,57,64
145776,note_off,,,,,96,0,1,,,0,,,75,64
145800,note_on,,,,,72,0,2,,,0,,,54,55
145800,note_on,,,,,24,0,1,,,0,,,87,63
145896,note_off,,,,,96,0,1,,,0,,,87,64
145920,note_on,,,,,24,0,1,,,0,,,75,58
146016,note_off,,,,,96,0,1,,,0,,,75,64
146040,note_on,,,,,24,0,1,,,0,,,78,55
146088,note_off,,,,,288,0,2,,,0,,,54,64
146136,note_off,,,,,96,0,1,,,0,,,78,64
146160,note_on,,,,,24,0,1,,,0,,,88,59
146160,note_on,,,,,72,0,2,,,0,,,55,59
146256,note_off,,,,,96,0,1,,,0,,,88,64
146280,note_on,,,,,24,0,1,,,0,,,76,50
146376,note_off,,,,,96,0,1,,,0,,,76,64
146400,note_on,,,,,24,0,1,,,0,,,79,47
146448,note_off,,,,,288,0,2,,,0,,,55,64
146496,note_off,,,,,96,0,1,,,0,,,79,64
146520,note_on,,,,,72,0,2,,,0,,,52,67
146520,note_on,,,,,24,0,1,,,0,,,83,50
146616,note_off,,,,,96,0,1,,,0,,,83,64
146640,note_on,,,,,24,0,1,,,0,,,81,50
146736,note_off,,,,,96,0,1,,,0,,,81,64
146760,note_on,,,,,24,0,1,,,0,,,79,52
146808,note_off,,,,,288,0,2,,,0,,,52,64
146856,note_off,,,,,96,0,1,,,0,,,79,64
146880,note_on,,,,,24,0,1,,,0,,,78,63
146880,note_on,,,,,72,0,2,,,0,,,57,59
146976,note_off,,,,,96,0,1,,,0,,,78,64
147000,note_on,,,,,24,0,1,,,0,,,79,50
147096,note_off,,,,,96,0,1,,,0,,,79,64
147120,note_on,,,,,24,0,1,,,0,,,81,52
147168,note_off,,,,,288,0,2,,,0,,,57,64
147216,note_off,,,,,96,0,1,,,0,,,81,64
147240,note_on,,,,,24,0,1,,,0,,,79,56
147240,note_on,,,,,72,0,2,,,0,,,48,50
147336,note_off,,,,,96,0,1,,,0,,,79,64
147360,note_on,,,,,24,0,1,,,0,,,78,47
147456,note_off,,,,,96,0,1,,,0,,,78,64
147480,note_on,,,,,24,0,1,,,0,,,76,56
147528,note_off,,,,,288,0,2,,,0,,,48,64
147576,note_off,,,,,96,0,1,,,0,,,76,64
147600,note_on,,,,,72,0,2,,,0,,,47,62
147600,note_on,,,,,24,0,1,,,0,,,83,62
147680,control_change,,,,,2767,0,4,,,0,64,64,,
147696,note_off,,,,,96,0,1,,,0,,,83,64
147702,control_change,,,,,22,0,4,,,0,64,96,,
147720,note_on,,,,,24,0,1,,,0,,,78,58
147722,control_change,,,,,20,0,4,,,0,64,127,,
147816,note_off,,,,,96,0,1,,,0,,,78,64
147840,note_on,,,,,24,0,1,,,0,,,75,58
147936,note_off,,,,,96,0,1,,,0,,,75,64
147960,note_on,,,,,24,0,1,,,0,,,71,47
148056,note_off,,,,,96,0,1,,,0,,,71,64
148080,note_on,,,,,24,0,1,,,0,,,66,44
148176,note_off,,,,,96,0,1,,,0,,,66,64
148176,note_off,,,,,576,0,2,,,0,,,47,64
148200,note_on,,,,,24,0,1,,,0,,,63,63
148296,note_off,,,,,96,0,1,,,0,,,63,64
148320,note_on,,,,,144,0,2,,,0,,,59,63
148416,note_off,,,,,96,0,2,,,0,,,59,64
148440,note_on,,,,,24,0,2,,,0,,,54,55
148536,note_off,,,,,96,0,2,,,0,,,54,64
148560,note_on,,,,,24,0,2,,,0,,,51,50
148656,note_off,,,,,96,0,2,,,0,,,51,64
148680,note_on,,,,,24,0,2,,,0,,,47,52
148776,note_off,,,,,96,0,2,,,0,,,47,64
148800,note_on,,,,,24,0,2,,,0,,,42,58
148896,note_off,,,,,96,0,2,,,0,,,42,64
148920,note_on,,,,,24,0,2,,,0,,,39,58
149016,note_off,,,,,96,0,2,,,0,,,39,64
149040,note_on,,,,,744,0,1,,,0,,,83,62
149040,note_on,,,,,24,0,2,,,0,,,35,47
149136,note_off,,,,,96,0,1,,,0,,,83,64
149160,note_on,,,,,24,0,1,,,0,,,78,55
149256,note_off,,,,,96,0,1,,,0,,,78,64
149280,note_on,,,,,24,0,1,,,0,,,75,50
149328,note_off,,,,,288,0,2,,,0,,,35,64
149376,note_off,,,,,96,0,1,,,0,,,75,64
149400,note_on,,,,,72,0,2,,,0,,,59,63
149400,note_on,,,,,24,0,1,,,0,,,71,52
149403,control_change,,,,,1681,0,4,,,0,64,96,,
149434,end_of_track,,,,,0,1,4,,,,,,,
149434,control_change,,,,,31,0,4,,,0,64,0,,
149496,note_off,,,,,96,0,1,,,0,,,71,64
149520,note_on,,,,,24,0,1,,,0,,,75,50
149616,note_off,,,,,96,0,1,,,0,,,75,64
149640,note_on,,,,,24,0,1,,,0,,,83,52
149688,note_off,,,,,288,0,2,,,0,,,59,64
149736,note_off,,,,,96,0,1,,,0,,,83,64
149760,note_on,,,,,24,0,1,,,0,,,84,59
149760,note_on,,,,,72,0,2,,,0,,,57,50
149856,note_off,,,,,96,0,1,,,0,,,84,64
149880,note_on,,,,,24,0,1,,,0,,,72,44
149976,note_off,,,,,96,0,1,,,0,,,72,64
150000,note_on,,,,,24,0,1,,,0,,,75,47
150048,note_off,,,,,288,0,2,,,0,,,57,64
150096,note_off,,,,,96,0,1,,,0,,,75,64
150120,note_on,,,,,72,0,2,,,0,,,54,58
150120,note_on,,,,,24,0,1,,,0,,,87,47
150216,note_off,,,,,96,0,1,,,0,,,87,64
150240,note_on,,,,,24,0,1,,,0,,,75,44
150336,note_off,,,,,96,0,1,,,0,,,75,64
150360,note_on,,,,,24,0,1,,,0,,,78,40
150408,note_off,,,,,288,0,2,,,0,,,54,64
150456,note_off,,,,,96,0,1,,,0,,,78,64
150480,note_on,,,,,24,0,1,,,0,,,88,50
150480,note_on,,,,,72,0,2,,,0,,,55,59
150576,note_off,,,,,96,0,1,,,0,,,88,64
150600,note_on,,,,,24,0,1,,,0,,,76,50
150696,note_off,,,,,96,0,1,,,0,,,76,64
150720,note_on,,,,,24,0,1,,,0,,,79,50
150768,note_off,,,,,288,0,2,,,0,,,55,64
150816,note_off,,,,,96,0,1,,,0,,,79,64
150840,note_on,,,,,24,0,1,,,0,,,83,52
150840,note_on,,,,,72,0,2,,,0,,,52,59
150936,note_off,,,,,96,0,1,,,0,,,83,64
150960,note_on,,,,,24,0,1,,,0,,,81,44
151056,note_off,,,,,96,0,1,,,0,,,81,64
151080,note_on,,,,,24,0,1,,,0,,,79,44
151128,note_off,,,,,288,0,2,,,0,,,52,64
151176,note_off,,,,,96,0,1,,,0,,,79,64
151200,note_on,,,,,24,0,1,,,0,,,78,58
151200,note_on,,,,,72,0,2,,,0,,,45,56
151296,note_off,,,,,96,0,1,,,0,,,78,64
151320,note_on,,,,,24,0,1,,,0,,,79,56
151416,note_off,,,,,96,0,1,,,0,,,79,64
151440,note_on,,,,,24,0,1,,,0,,,81,52
151488,note_off,,,,,288,0,2,,,0,,,45,64
151536,note_off,,,,,96,0,1,,,0,,,81,64
151560,note_on,,,,,72,0,2,,,0,,,47,62
151560,note_on,,,,,24,0,1,,,0,,,79,52
151656,note_off,,,,,96,0,1,,,0,,,79,64
151680,note_on,,,,,24,0,1,,,0,,,81,47
151776,note_off,,,,,96,0,1,,,0,,,81,64
151800,note_on,,,,,24,0,1,,,0,,,78,50
151848,note_off,,,,,288,0,2,,,0,,,47,64
151896,note_off,,,,,96,0,1,,,0,,,78,64
151920,set_tempo,,,,,28800,1,0,292683,,,,,,
151920,note_on,,,,,72,0,2,,,0,,,48,52
151920,note_on,,,,,24,0,1,,,0,,,78,58
152208,note_off,,,,,288,0,1,,,0,,,78,64
152280,note_on,,,,,72,0,1,,,0,,,76,33
152496,note_off,,,,,576,0,2,,,0,,,48,64
152568,note_off,,,,,288,0,1,,,0,,,76,64
153360,set_tempo,,,,,1440,1,0,262009,,,,,,
153360,note_on,,,,,864,0,2,,,0,,,60,30
153360,note_on,,,,,792,0,1,,,0,,,79,31
153360,note_on,,,,,0,0,2,,,0,,,67,33
153456,note_off,,,,,96,0,1,,,0,,,79,64
153480,note_on,,,,,24,0,1,,,0,,,76,30
153576,note_off,,,,,96,0,1,,,0,,,76,64
153600,note_on,,,,,24,0,1,,,0,,,81,33
153696,note_off,,,,,96,0,1,,,0,,,81,64
153720,note_on,,,,,24,0,1,,,0,,,79,33
153816,note_off,,,,,96,0,1,,,0,,,79,64
153840,note_on,,,,,24,0,1,,,0,,,76,26
153936,note_off,,,,,576,0,2,,,0,,,67,64
153936,note_off,,,,,0,0,2,,,0,,,60,64
153936,note_off,,,,,96,0,1,,,0,,,76,64
153960,note_on,,,,,24,0,1,,,0,,,81,28
154056,note_off,,,,,96,0,1,,,0,,,81,64
154080,note_on,,,,,24,0,1,,,0,,,79,31
154080,note_on,,,,,0,0,2,,,0,,,60,23
154080,note_on,,,,,144,0,2,,,0,,,67,26
154176,note_off,,,,,96,0,1,,,0,,,79,64
154200,note_on,,,,,24,0,1,,,0,,,76,26
154296,note_off,,,,,96,0,1,,,0,,,76,64
154320,note_on,,,,,24,0,1,,,0,,,81,30
154416,note_off,,,,,96,0,1,,,0,,,81,64
154440,note_on,,,,,24,0,1,,,0,,,79,35
154536,note_off,,,,,96,0,1,,,0,,,79,64
154560,note_on,,,,,24,0,1,,,0,,,76,23
154656,note_off,,,,,96,0,1,,,0,,,76,64
154656,note_off,,,,,0,0,2,,,0,,,67,64
154656,note_off,,,,,576,0,2,,,0,,,60,64
154680,note_on,,,,,24,0,1,,,0,,,81,24
154776,note_off,,,,,96,0,1,,,0,,,81,64
154800,note_on,,,,,24,0,1,,,0,,,79,33
154800,note_on,,,,,0,0,2,,,0,,,67,31
154800,note_on,,,,,144,0,2,,,0,,,60,30
154896,note_off,,,,,96,0,1,,,0,,,79,64
154920,note_on,,,,,24,0,1,,,0,,,76,30
155016,note_off,,,,,96,0,1,,,0,,,76,64
155040,note_on,,,,,24,0,1,,,0,,,81,37
155088,note_off,,,,,0,0,2,,,0,,,60,64
155088,note_off,,,,,288,0,2,,,0,,,67,64
155136,note_off,,,,,96,0,1,,,0,,,81,64
155160,note_on,,,,,0,0,2,,,0,,,69,45
155160,note_on,,,,,72,0,2,,,0,,,60,45
155160,note_on,,,,,24,0,1,,,0,,,79,49
155256,note_off,,,,,96,0,1,,,0,,,79,64
155280,note_on,,,,,24,0,1,,,0,,,76,43
155376,note_off,,,,,96,0,1,,,0,,,76,64
155400,note_on,,,,,24,0,1,,,0,,,81,43
155448,note_off,,,,,0,0,2,,,0,,,60,64
155448,note_off,,,,,288,0,2,,,0,,,69,64
155496,note_off,,,,,96,0,1,,,0,,,81,64
155520,note_on,,,,,24,0,1,,,0,,,79,59
155520,note_on,,,,,72,0,2,,,0,,,59,63
155520,note_on,,,,,0,0,2,,,0,,,71,52
155616,note_off,,,,,96,0,1,,,0,,,79,64
155640,note_on,,,,,24,0,1,,,0,,,76,52
155736,note_off,,,,,96,0,1,,,0,,,76,64
155760,note_on,,,,,24,0,1,,,0,,,83,50
155856,note_off,,,,,96,0,1,,,0,,,83,64
155880,note_on,,,,,24,0,1,,,0,,,79,56
155976,note_off,,,,,96,0,1,,,0,,,79,64
156000,note_on,,,,,24,0,1,,,0,,,76,50
156096,note_off,,,,,0,0,2,,,0,,,59,64
156096,note_off,,,,,96,0,1,,,0,,,76,64
156096,note_off,,,,,576,0,2,,,0,,,71,64
156120,note_on,,,,,24,0,1,,,0,,,79,44
156216,note_off,,,,,96,0,1,,,0,,,79,64
156240,note_on,,,,,0,0,2,,,0,,,59,54
156240,note_on,,,,,24,0,1,,,0,,,78,44
156240,note_on,,,,,144,0,2,,,0,,,47,59
156336,note_off,,,,,96,0,1,,,0,,,78,64
156360,note_on,,,,,24,0,1,,,0,,,79,52
156456,note_off,,,,,96,0,1,,,0,,,79,64
156480,note_on,,,,,24,0,1,,,0,,,81,62
156576,note_off,,,,,96,0,1,,,0,,,81,64
156600,note_on,,,,,24,0,1,,,0,,,76,52
156696,note_off,,,,,96,0,1,,,0,,,76,64
156720,note_on,,,,,24,0,1,,,0,,,78,50
156816,note_off,,,,,96,0,1,,,0,,,78,64
156816,note_off,,,,,0,0,2,,,0,,,47,64
156816,note_off,,,,,576,0,2,,,0,,,59,64
156840,note_on,,,,,24,0,1,,,0,,,75,58
156936,note_off,,,,,96,0,1,,,0,,,75,64
156960,note_on,,,,,144,0,2,,,0,,,48,70
156960,note_on,,,,,24,0,1,,,0,,,75,63
156960,set_tempo,,,,,3600,1,0,292683,,,,,,
157248,note_off,,,,,288,0,1,,,0,,,75,64
157320,note_on,,,,,72,0,1,,,0,,,76,37
157536,note_off,,,,,576,0,2,,,0,,,48,64
157608,note_off,,,,,288,0,1,,,0,,,76,64
158400,set_tempo,,,,,1440,1,0,262009,,,,,,
158400,note_on,,,,,792,0,1,,,0,,,67,23
158400,note_on,,,,,0,0,2,,,0,,,55,20
158400,note_on,,,,,864,0,2,,,0,,,48,20
158496,note_off,,,,,96,0,1,,,0,,,67,64
158520,note_on,,,,,24,0,1,,,0,,,64,17
158616,note_off,,,,,96,0,1,,,0,,,64,64
158640,note_on,,,,,24,0,1,,,0,,,69,17
158736,note_off,,,,,96,0,1,,,0,,,69,64
158760,note_on,,,,,24,0,1,,,0,,,67,22
158856,note_off,,,,,96,0,1,,,0,,,67,64
158880,note_on,,,,,24,0,1,,,0,,,64,17
158976,note_off,,,,,576,0,2,,,0,,,55,64
158976,note_off,,,,,96,0,1,,,0,,,64,64
158976,note_off,,,,,0,0,2,,,0,,,48,64
159000,note_on,,,,,24,0,1,,,0,,,69,20
159096,note_off,,,,,96,0,1,,,0,,,69,64
159120,note_on,,,,,144,0,2,,,0,,,48,18
159120,note_on,,,,,0,0,2,,,0,,,55,22
159120,note_on,,,,,24,0,1,,,0,,,67,20
159216,note_off,,,,,96,0,1,,,0,,,67,64
159240,note_on,,,,,24,0,1,,,0,,,64,17
159336,note_off,,,,,96,0,1,,,0,,,64,64
159360,note_on,,,,,24,0,1,,,0,,,69,20
159456,note_off,,,,,96,0,1,,,0,,,69,64
159480,note_on,,,,,24,0,1,,,0,,,67,23
159576,note_off,,,,,96,0,1,,,0,,,67,64
159600,note_on,,,,,24,0,1,,,0,,,64,16
159696,note_off,,,,,96,0,1,,,0,,,64,64
159696,note_off,,,,,576,0,2,,,0,,,55,64
159696,note_off,,,,,0,0,2,,,0,,,48,64
159720,note_on,,,,,24,0,1,,,0,,,69,17
159816,note_off,,,,,96,0,1,,,0,,,69,64
159840,note_on,,,,,144,0,2,,,0,,,48,20
159840,note_on,,,,,0,0,2,,,0,,,55,23
159840,note_on,,,,,24,0,1,,,0,,,67,20
159936,note_off,,,,,96,0,1,,,0,,,67,64
159960,note_on,,,,,24,0,1,,,0,,,64,17
160056,note_off,,,,,96,0,1,,,0,,,64,64
160080,note_on,,,,,24,0,1,,,0,,,69,19
160128,note_off,,,,,288,0,2,,,0,,,55,64
160128,note_off,,,,,0,0,2,,,0,,,48,64
160176,note_off,,,,,96,0,1,,,0,,,69,64
160200,note_on,,,,,24,0,1,,,0,,,67,28
160200,note_on,,,,,0,0,2,,,0,,,57,27
160200,note_on,,,,,72,0,2,,,0,,,48,28
160296,note_off,,,,,96,0,1,,,0,,,67,64
160320,note_on,,,,,24,0,1,,,0,,,64,22
160416,note_off,,,,,96,0,1,,,0,,,64,64
160440,note_on,,,,,24,0,1,,,0,,,69,31
160488,note_off,,,,,288,0,2,,,0,,,57,64
160488,note_off,,,,,0,0,2,,,0,,,48,64
160536,note_off,,,,,96,0,1,,,0,,,69,64
160560,note_on,,,,,0,0,2,,,0,,,59,36
160560,note_on,,,,,72,0,2,,,0,,,47,34
160560,note_on,,,,,24,0,1,,,0,,,67,36
160656,note_off,,,,,96,0,1,,,0,,,67,64
160680,note_on,,,,,24,0,1,,,0,,,64,30
160776,note_off,,,,,96,0,1,,,0,,,64,64
160800,note_on,,,,,24,0,1,,,0,,,71,33
160896,note_off,,,,,96,0,1,,,0,,,71,64
160920,note_on,,,,,24,0,1,,,0,,,67,42
161016,note_off,,,,,96,0,1,,,0,,,67,64
161040,note_on,,,,,24,0,1,,,0,,,64,32
161136,note_off,,,,,0,0,2,,,0,,,47,64
161136,note_off,,,,,576,0,2,,,0,,,59,64
161136,note_off,,,,,96,0,1,,,0,,,64,64
161160,note_on,,,,,24,0,1,,,0,,,67,42
161256,note_off,,,,,96,0,1,,,0,,,67,64
161280,note_on,,,,,144,0,2,,,0,,,47,60
161280,note_on,,,,,0,0,2,,,0,,,35,59
161280,note_on,,,,,24,0,1,,,0,,,66,63
161376,note_off,,,,,96,0,1,,,0,,,66,64
161400,note_on,,,,,24,0,1,,,0,,,67,59
161496,note_off,,,,,96,0,1,,,0,,,67,64
161520,note_on,,,,,24,0,1,,,0,,,69,67
161616,note_off,,,,,96,0,1,,,0,,,69,64
161640,note_on,,,,,24,0,1,,,0,,,64,58
161736,note_off,,,,,96,0,1,,,0,,,64,64
161760,note_on,,,,,24,0,1,,,0,,,66,50
161856,note_off,,,,,96,0,1,,,0,,,66,64
161856,note_off,,,,,0,0,2,,,0,,,47,64
161856,note_off,,,,,576,0,2,,,0,,,35,64
161880,note_on,,,,,24,0,1,,,0,,,63,55
161976,note_off,,,,,96,0,1,,,0,,,63,64
162000,note_on,,,,,24,0,1,,,0,,,64,60
162000,note_on,,,,,144,0,2,,,0,,,40,62
162096,note_off,,,,,96,0,1,,,0,,,64,64
162120,note_on,,,,,24,0,1,,,0,,,76,59
162216,note_off,,,,,96,0,1,,,0,,,76,64
162240,note_on,,,,,24,0,1,,,0,,,71,52
162288,note_off,,,,,288,0,2,,,0,,,40,64
162336,note_off,,,,,96,0,1,,,0,,,71,64
162360,note_on,,,,,24,0,1,,,0,,,73,63
162360,note_on,,,,,72,0,2,,,0,,,45,62
162456,note_off,,,,,96,0,1,,,0,,,73,64
162480,note_on,,,,,24,0,1,,,0,,,81,56
162576,note_off,,,,,96,0,1,,,0,,,81,64
162600,note_on,,,,,24,0,1,,,0,,,78,55
162648,note_off,,,,,288,0,2,,,0,,,45,64
162696,note_off,,,,,96,0,1,,,0,,,78,64
162720,note_on,,,,,72,0,2,,,0,,,47,62
162720,note_on,,,,,24,0,1,,,0,,,80,55
162816,note_off,,,,,96,0,1,,,0,,,80,64
162840,note_on,,,,,24,0,1,,,0,,,81,50
162936,note_off,,,,,96,0,1,,,0,,,81,64
162960,note_on,,,,,24,0,1,,,0,,,83,44
163008,note_off,,,,,288,0,2,,,0,,,47,64
163056,note_off,,,,,96,0,1,,,0,,,83,64
163080,note_on,,,,,24,0,1,,,0,,,76,59
163080,note_on,,,,,72,0,2,,,0,,,35,62
163176,note_off,,,,,96,0,1,,,0,,,76,64
163200,note_on,,,,,24,0,1,,,0,,,78,55
163296,note_off,,,,,96,0,1,,,0,,,78,64
163320,note_on,,,,,24,0,1,,,0,,,75,55
163368,note_off,,,,,288,0,2,,,0,,,35,64
163416,note_off,,,,,96,0,1,,,0,,,75,64
163440,note_on,,,,,72,0,2,,,0,,,40,70
163440,note_on,,,,,24,0,1,,,0,,,76,52
163536,note_off,,,,,96,0,1,,,0,,,76,64
163560,set_tempo,,,,,5160,1,0,264317,,,,,,
163560,note_on,,,,,24,0,1,,,0,,,76,41
163656,note_off,,,,,96,0,1,,,0,,,76,64
163680,set_tempo,,,,,120,1,0,266667,,,,,,
163680,note_on,,,,,24,0,1,,,0,,,71,56
163728,note_off,,,,,288,0,2,,,0,,,40,64
163776,note_off,,,,,96,0,1,,,0,,,71,64
163800,note_on,,,,,24,0,1,,,0,,,73,58
163800,set_tempo,,,,,120,1,0,269058,,,,,,
163800,note_on,,,,,72,0,2,,,0,,,45,59
163896,note_off,,,,,96,0,1,,,0,,,73,64
163920,note_on,,,,,24,0,1,,,0,,,69,59
163920,set_tempo,,,,,120,1,0,271493,,,,,,
164016,note_off,,,,,96,0,1,,,0,,,69,64
164040,set_tempo,,,,,120,1,0,272727,,,,,,
164040,note_on,,,,,24,0,1,,,0,,,66,50
164088,note_off,,,,,288,0,2,,,0,,,45,64
164136,note_off,,,,,96,0,1,,,0,,,66,64
164160,set_tempo,,,,,120,1,0,275229,,,,,,
164160,note_on,,,,,24,0,1,,,0,,,68,68
164160,note_on,,,,,72,0,2,,,0,,,47,62
164256,note_off,,,,,96,0,1,,,0,,,68,64
164280,note_on,,,,,24,0,1,,,0,,,69,62
164280,set_tempo,,,,,120,1,0,277778,,,,,,
164376,note_off,,,,,96,0,1,,,0,,,69,64
164400,note_on,,,,,24,0,1,,,0,,,71,47
164400,set_tempo,,,,,120,1,0,280374,,,,,,
164448,note_off,,,,,288,0,2,,,0,,,47,64
164496,note_off,,,,,96,0,1,,,0,,,71,64
164520,note_on,,,,,72,0,2,,,0,,,35,59
164520,note_on,,,,,24,0,1,,,0,,,64,60
164520,set_tempo,,,,,120,1,0,283019,,,,,,
164616,note_off,,,,,96,0,1,,,0,,,64,64
164640,set_tempo,,,,,120,1,0,285714,,,,,,
164640,note_on,,,,,24,0,1,,,0,,,66,55
164736,note_off,,,,,96,0,1,,,0,,,66,64
164760,set_tempo,,,,,120,1,0,288462,,,,,,
164760,note_on,,,,,24,0,1,,,0,,,63,58
164808,note_off,,,,,288,0,2,,,0,,,35,64
164856,note_off,,,,,96,0,1,,,0,,,63,64
164880,set_tempo,,,,,120,1,0,333333,,,,,,
164880,note_on,,,,,72,0,2,,,0,,,40,67
164880,note_on,,,,,24,0,1,,,0,,,63,68
164880,end_of_track,,,,,0,1,0,,,,,,,
165168,note_off,,,,,288,0,1,,,0,,,63,64
165240,note_on,,,,,72,0,1,,,0,,,64,55
165456,note_off,,,,,576,0,2,,,0,,,40,64
165456,end_of_track,,,,,0,1,2,,,,,,,
165528,end_of_track,,,,,0,1,1,,,,,,,
165528,note_off,,,,,288,0,1,,,0,,,64,64
