tick,type,numerator,denominator,clocks_per_click,notated_32nd_notes_per_beat,time,meta,track,tempo,program,channel,note,velocity
0,time_signature,4,4,24,8,0,1,0,,,,,
0,end_of_track,,,,,0,1,6,,,,,
0,track_name,,,,,0,1,6,,,,,
0,end_of_track,,,,,0,1,5,,,,,
0,track_name,,,,,0,1,5,,,,,
0,end_of_track,,,,,0,1,4,,,,,
0,track_name,,,,,0,1,4,,,,,
0,end_of_track,,,,,0,1,3,,,,,
0,track_name,,,,,0,1,3,,,,,
0,end_of_track,,,,,0,1,2,,,,,
0,track_name,,,,,0,1,2,,,,,
0,track_name,,,,,0,1,7,,,,,
0,end_of_track,,,,,0,1,7,,,,,
0,program_change,,,,,0,0,1,,0,0,,
0,track_name,,,,,0,1,1,,,,,
0,end_of_track,,,,,0,1,0,,,,,
0,set_tempo,,,,,0,1,0,500000,,,,
674,note_on,,,,,0,0,1,,,0,80,46
674,note_on,,,,,674,0,1,,,0,83,50
873,note_on,,,,,0,0,1,,,0,81,55
873,note_off,,,,,0,0,1,,,0,83,64
873,note_off,,,,,199,0,1,,,0,80,64
873,note_on,,,,,0,0,1,,,0,78,35
905,note_off,,,,,32,0,1,,,0,81,64
907,note_on,,,,,2,0,1,,,0,83,55
939,note_off,,,,,32,0,1,,,0,83,64
941,note_on,,,,,2,0,1,,,0,81,51
1072,note_off,,,,,0,0,1,,,0,78,64
1072,note_off,,,,,131,0,1,,,0,81,64
1074,note_on,,,,,0,0,1,,,0,64,41
1074,note_on,,,,,0,0,1,,,0,81,41
1074,note_on,,,,,2,0,1,,,0,76,35
1099,note_on,,,,,0,0,1,,,0,80,46
1099,note_off,,,,,25,0,1,,,0,81,64
1174,note_on,,,,,0,0,1,,,0,59,41
1174,note_off,,,,,75,0,1,,,0,64,64
1273,note_off,,,,,0,0,1,,,0,80,64
1273,note_off,,,,,99,0,1,,,0,59,64
1273,note_off,,,,,0,0,1,,,0,76,64
1274,note_on,,,,,1,0,1,,,0,52,43
1372,note_off,,,,,98,0,1,,,0,52,64
1374,note_on,,,,,2,0,1,,,0,40,41
1474,note_on,,,,,0,0,1,,,0,71,41
1474,note_on,,,,,0,0,1,,,0,80,48
1474,note_off,,,,,100,0,1,,,0,40,64
1673,note_off,,,,,0,0,1,,,0,80,64
1673,note_off,,,,,199,0,1,,,0,71,64
1675,note_on,,,,,0,0,1,,,0,78,50
1675,note_on,,,,,2,0,1,,,0,69,39
1706,note_off,,,,,31,0,1,,,0,78,64
1709,note_on,,,,,3,0,1,,,0,80,50
1741,note_off,,,,,32,0,1,,,0,80,64
1743,note_on,,,,,2,0,1,,,0,78,44
1873,note_off,,,,,0,0,1,,,0,69,64
1873,note_off,,,,,130,0,1,,,0,78,64
1875,note_on,,,,,0,0,1,,,0,78,32
1875,note_on,,,,,0,0,1,,,0,68,35
1875,note_on,,,,,2,0,1,,,0,64,41
1898,note_off,,,,,23,0,1,,,0,78,64
1900,note_on,,,,,2,0,1,,,0,76,36
1973,note_off,,,,,73,0,1,,,0,64,64
1975,note_on,,,,,2,0,1,,,0,59,41
2075,note_off,,,,,0,0,1,,,0,68,64
2075,note_off,,,,,100,0,1,,,0,59,64
2075,note_off,,,,,0,0,1,,,0,76,64
2075,note_on,,,,,0,0,1,,,0,52,43
2174,note_off,,,,,99,0,1,,,0,52,64
2176,note_on,,,,,2,0,1,,,0,40,41
2274,note_off,,,,,98,0,1,,,0,40,64
2276,note_on,,,,,0,0,1,,,0,80,44
2276,note_on,,,,,2,0,1,,,0,83,50
2474,note_off,,,,,0,0,1,,,0,83,64
2474,note_off,,,,,198,0,1,,,0,80,64
2475,note_on,,,,,0,0,1,,,0,81,55
2475,note_on,,,,,1,0,1,,,0,78,44
2508,note_off,,,,,33,0,1,,,0,81,64
2510,note_on,,,,,2,0,1,,,0,83,55
2543,note_off,,,,,33,0,1,,,0,83,64
2543,note_on,,,,,0,0,1,,,0,81,50
2675,note_on,,,,,0,0,1,,,0,76,37
2675,note_off,,,,,0,0,1,,,0,78,64
2675,note_off,,,,,132,0,1,,,0,81,64
2676,note_on,,,,,0,0,1,,,0,64,41
2676,note_on,,,,,1,0,1,,,0,81,45
2700,note_off,,,,,24,0,1,,,0,81,64
2702,note_on,,,,,2,0,1,,,0,80,41
2775,note_off,,,,,73,0,1,,,0,64,64
2777,note_on,,,,,2,0,1,,,0,59,41
2877,note_off,,,,,0,0,1,,,0,80,64
2877,note_off,,,,,100,0,1,,,0,59,64
2877,note_off,,,,,0,0,1,,,0,76,64
2877,note_on,,,,,0,0,1,,,0,52,43
2976,note_on,,,,,0,0,1,,,0,40,41
2976,note_off,,,,,99,0,1,,,0,52,64
3075,note_off,,,,,99,0,1,,,0,40,64
3077,note_on,,,,,0,0,1,,,0,71,39
3077,note_on,,,,,2,0,1,,,0,80,48
3276,note_off,,,,,0,0,1,,,0,80,64
3276,note_off,,,,,199,0,1,,,0,71,64
3278,note_on,,,,,0,0,1,,,0,78,55
3278,note_on,,,,,2,0,1,,,0,69,36
3310,note_on,,,,,0,0,1,,,0,80,55
3310,note_off,,,,,32,0,1,,,0,78,64
3344,note_off,,,,,34,0,1,,,0,80,64
3344,note_on,,,,,0,0,1,,,0,78,43
3478,note_on,,,,,0,0,1,,,0,64,41
3478,note_on,,,,,0,0,1,,,0,78,45
3478,note_on,,,,,0,0,1,,,0,68,36
3478,note_off,,,,,0,0,1,,,0,69,64
3478,note_off,,,,,134,0,1,,,0,78,64
3502,note_off,,,,,24,0,1,,,0,78,64
3504,note_on,,,,,2,0,1,,,0,76,46
3576,note_off,,,,,72,0,1,,,0,64,64
3578,note_on,,,,,2,0,1,,,0,59,41
3676,note_off,,,,,98,0,1,,,0,59,64
3676,note_off,,,,,0,0,1,,,0,76,64
3676,note_off,,,,,0,0,1,,,0,68,64
3677,note_on,,,,,1,0,1,,,0,52,43
3777,note_off,,,,,100,0,1,,,0,52,64
3777,note_on,,,,,0,0,1,,,0,40,41
3877,note_off,,,,,100,0,1,,,0,40,64
3879,note_on,,,,,2,0,1,,,0,80,45
3879,note_on,,,,,0,0,1,,,0,64,48
3902,note_off,,,,,23,0,1,,,0,80,64
3903,note_on,,,,,1,0,1,,,0,81,45
3928,note_on,,,,,0,0,1,,,0,83,57
3928,note_off,,,,,25,0,1,,,0,81,64
3977,note_off,,,,,49,0,1,,,0,64,64
3979,note_on,,,,,2,0,1,,,0,68,39
4078,note_on,,,,,0,0,1,,,0,66,35
4078,note_off,,,,,99,0,1,,,0,68,64
4177,note_off,,,,,99,0,1,,,0,66,64
4179,note_on,,,,,0,0,1,,,0,64,23
4179,note_on,,,,,0,0,1,,,0,74,46
4179,note_off,,,,,2,0,1,,,0,83,64
4277,note_off,,,,,98,0,1,,,0,64,64
4279,note_on,,,,,0,0,1,,,0,69,51
4279,note_off,,,,,2,0,1,,,0,74,64
4279,note_on,,,,,0,0,1,,,0,73,42
4378,note_off,,,,,99,0,1,,,0,69,64
4378,note_off,,,,,0,0,1,,,0,73,64
4378,note_on,,,,,0,0,1,,,0,81,47
4378,note_on,,,,,0,0,1,,,0,73,41
4478,note_off,,,,,100,0,1,,,0,73,64
4480,note_on,,,,,0,0,1,,,0,80,47
4480,note_off,,,,,2,0,1,,,0,81,64
4480,note_on,,,,,0,0,1,,,0,71,50
4577,note_off,,,,,97,0,1,,,0,71,64
4579,note_off,,,,,2,0,1,,,0,80,64
4579,note_on,,,,,0,0,1,,,0,78,41
4579,note_on,,,,,0,0,1,,,0,69,46
4679,note_off,,,,,100,0,1,,,0,69,64
4679,note_on,,,,,0,0,1,,,0,64,48
4679,note_on,,,,,0,0,1,,,0,80,45
4679,note_off,,,,,0,0,1,,,0,78,64
4703,note_off,,,,,24,0,1,,,0,80,64
4705,note_on,,,,,2,0,1,,,0,81,45
4728,note_off,,,,,23,0,1,,,0,81,64
4729,note_on,,,,,1,0,1,,,0,83,55
4778,note_off,,,,,49,0,1,,,0,64,64
4780,note_on,,,,,2,0,1,,,0,68,43
4877,note_off,,,,,97,0,1,,,0,68,64
4879,note_on,,,,,2,0,1,,,0,66,44
4979,note_on,,,,,0,0,1,,,0,64,48
4979,note_on,,,,,0,0,1,,,0,74,47
4979,note_off,,,,,0,0,1,,,0,83,64
4979,note_off,,,,,100,0,1,,,0,66,64
5079,note_off,,,,,100,0,1,,,0,64,64
5080,note_on,,,,,0,0,1,,,0,73,44
5080,note_off,,,,,1,0,1,,,0,74,64
5080,note_on,,,,,0,0,1,,,0,69,55
5180,note_on,,,,,0,0,1,,,0,73,41
5180,note_off,,,,,100,0,1,,,0,69,64
5180,note_off,,,,,0,0,1,,,0,73,64
5180,note_on,,,,,0,0,1,,,0,81,50
5280,note_on,,,,,0,0,1,,,0,71,53
5280,note_off,,,,,100,0,1,,,0,73,64
5280,note_off,,,,,0,0,1,,,0,81,64
5280,note_on,,,,,0,0,1,,,0,80,43
5379,note_off,,,,,99,0,1,,,0,71,64
5380,note_on,,,,,0,0,1,,,0,78,38
5380,note_off,,,,,1,0,1,,,0,80,64
5380,note_on,,,,,0,0,1,,,0,69,46
5480,note_on,,,,,0,0,1,,,0,64,51
5480,note_on,,,,,0,0,1,,,0,80,45
5480,note_off,,,,,100,0,1,,,0,69,64
5480,note_off,,,,,0,0,1,,,0,78,64
5504,note_on,,,,,0,0,1,,,0,81,45
5504,note_off,,,,,24,0,1,,,0,80,64
5529,note_off,,,,,25,0,1,,,0,81,64
5531,note_on,,,,,2,0,1,,,0,83,48
5580,note_off,,,,,49,0,1,,,0,64,64
5580,note_on,,,,,0,0,1,,,0,68,44
5679,note_off,,,,,99,0,1,,,0,68,64
5681,note_on,,,,,2,0,1,,,0,66,37
5781,note_off,,,,,100,0,1,,,0,83,64
5781,note_off,,,,,0,0,1,,,0,66,64
5781,note_on,,,,,0,0,1,,,0,76,46
5781,note_on,,,,,0,0,1,,,0,64,47
5880,note_off,,,,,99,0,1,,,0,64,64
5882,note_off,,,,,2,0,1,,,0,76,64
5882,note_on,,,,,0,0,1,,,0,75,39
5882,note_on,,,,,0,0,1,,,0,71,57
5981,note_on,,,,,0,0,1,,,0,81,46
5981,note_off,,,,,99,0,1,,,0,75,64
6081,note_on,,,,,0,0,1,,,0,80,41
6081,note_off,,,,,0,0,1,,,0,71,64
6081,note_off,,,,,100,0,1,,,0,81,64
6082,note_on,,,,,1,0,1,,,0,59,47
6183,note_on,,,,,0,0,1,,,0,78,39
6183,note_off,,,,,101,0,1,,,0,80,64
6280,note_off,,,,,97,0,1,,,0,59,64
6282,note_off,,,,,2,0,1,,,0,78,64
6282,note_on,,,,,0,0,1,,,0,64,46
6282,note_on,,,,,0,0,1,,,0,80,39
6333,note_off,,,,,51,0,1,,,0,80,64
6333,note_on,,,,,0,0,1,,,0,78,41
6382,note_on,,,,,0,0,1,,,0,76,46
6382,note_off,,,,,49,0,1,,,0,78,64
6480,note_off,,,,,98,0,1,,,0,64,64
6483,note_on,,,,,3,0,1,,,0,52,42
6582,note_on,,,,,0,0,1,,,0,75,39
6582,note_off,,,,,99,0,1,,,0,76,64
6682,note_off,,,,,100,0,1,,,0,52,64
6682,note_on,,,,,0,0,1,,,0,40,40
6783,note_on,,,,,0,0,1,,,0,76,37
6783,note_off,,,,,101,0,1,,,0,75,64
7081,note_off,,,,,298,0,1,,,0,40,64
7083,note_on,,,,,0,0,1,,,0,64,34
7083,note_on,,,,,0,0,1,,,0,76,32
7083,note_off,,,,,2,0,1,,,0,76,64
7106,note_off,,,,,23,0,1,,,0,76,64
7108,note_on,,,,,2,0,1,,,0,77,32
7132,note_on,,,,,0,0,1,,,0,79,41
7132,note_off,,,,,24,0,1,,,0,77,64
7181,note_off,,,,,49,0,1,,,0,64,64
7183,note_on,,,,,2,0,1,,,0,67,28
7282,note_off,,,,,99,0,1,,,0,67,64
7282,note_on,,,,,0,0,1,,,0,66,31
7382,note_off,,,,,0,0,1,,,0,79,64
7382,note_off,,,,,100,0,1,,,0,66,64
7383,note_on,,,,,0,0,1,,,0,64,33
7383,note_on,,,,,1,0,1,,,0,71,35
7482,note_off,,,,,0,0,1,,,0,71,64
7482,note_off,,,,,99,0,1,,,0,64,64
7483,note_on,,,,,0,0,1,,,0,69,35
7483,note_on,,,,,1,0,1,,,0,72,31
7583,note_on,,,,,0,0,1,,,0,78,30
7583,note_on,,,,,0,0,1,,,0,72,35
7583,note_off,,,,,0,0,1,,,0,72,64
7583,note_off,,,,,100,0,1,,,0,69,64
7682,note_off,,,,,0,0,1,,,0,72,64
7682,note_off,,,,,99,0,1,,,0,78,64
7683,note_on,,,,,1,0,1,,,0,76,30
7683,note_on,,,,,0,0,1,,,0,71,32
7784,note_on,,,,,0,0,1,,,0,69,33
7784,note_off,,,,,101,0,1,,,0,71,64
7784,note_off,,,,,0,0,1,,,0,76,64
7784,note_on,,,,,0,0,1,,,0,75,32
7883,note_off,,,,,99,0,1,,,0,69,64
7883,note_off,,,,,0,0,1,,,0,75,64
7883,note_on,,,,,0,0,1,,,0,76,32
7883,note_on,,,,,0,0,1,,,0,64,39
7908,note_off,,,,,25,0,1,,,0,76,64
7910,note_on,,,,,2,0,1,,,0,77,32
7934,note_off,,,,,24,0,1,,,0,77,64
7934,note_on,,,,,0,0,1,,,0,79,44
7983,note_off,,,,,49,0,1,,,0,64,64
7985,note_on,,,,,2,0,1,,,0,67,31
8084,note_on,,,,,0,0,1,,,0,66,23
8084,note_off,,,,,99,0,1,,,0,67,64
8184,note_on,,,,,0,0,1,,,0,64,30
8184,note_on,,,,,0,0,1,,,0,71,35
8184,note_off,,,,,0,0,1,,,0,79,64
8184,note_off,,,,,100,0,1,,,0,66,64
8283,note_off,,,,,0,0,1,,,0,71,64
8283,note_off,,,,,99,0,1,,,0,64,64
8284,note_on,,,,,0,0,1,,,0,69,41
8284,note_on,,,,,1,0,1,,,0,72,35
8384,note_off,,,,,0,0,1,,,0,72,64
8384,note_on,,,,,0,0,1,,,0,78,33
8384,note_on,,,,,0,0,1,,,0,72,34
8384,note_off,,,,,100,0,1,,,0,69,64
8484,note_off,,,,,0,0,1,,,0,78,64
8484,note_off,,,,,100,0,1,,,0,72,64
8486,note_on,,,,,0,0,1,,,0,71,37
8486,note_on,,,,,2,0,1,,,0,76,34
8584,note_off,,,,,0,0,1,,,0,76,64
8584,note_off,,,,,98,0,1,,,0,71,64
8585,note_on,,,,,1,0,1,,,0,69,34
8585,note_on,,,,,0,0,1,,,0,75,30
8685,note_off,,,,,100,0,1,,,0,75,64
8685,note_on,,,,,0,0,1,,,0,64,44
8685,note_on,,,,,0,0,1,,,0,79,32
8685,note_off,,,,,0,0,1,,,0,69,64
8710,note_off,,,,,25,0,1,,,0,79,64
8712,note_on,,,,,2,0,1,,,0,81,32
8734,note_off,,,,,22,0,1,,,0,81,64
8736,note_on,,,,,2,0,1,,,0,83,44
8784,note_off,,,,,48,0,1,,,0,64,64
8786,note_on,,,,,2,0,1,,,0,67,35
8884,note_off,,,,,98,0,1,,,0,67,64
8886,note_on,,,,,2,0,1,,,0,66,24
8985,note_off,,,,,99,0,1,,,0,66,64
8985,note_off,,,,,0,0,1,,,0,83,64
8985,note_on,,,,,0,0,1,,,0,71,34
8985,note_on,,,,,0,0,1,,,0,64,30
9085,note_off,,,,,100,0,1,,,0,64,64
9085,note_off,,,,,0,0,1,,,0,71,64
9086,note_on,,,,,0,0,1,,,0,69,33
9086,note_on,,,,,1,0,1,,,0,72,39
9185,note_off,,,,,99,0,1,,,0,72,64
9187,note_on,,,,,2,0,1,,,0,81,39
9187,note_on,,,,,0,0,1,,,0,78,27
9286,note_off,,,,,99,0,1,,,0,78,64
9286,note_off,,,,,0,0,1,,,0,81,64
9286,note_off,,,,,0,0,1,,,0,69,64
9286,note_on,,,,,0,0,1,,,0,57,32
9387,note_on,,,,,0,0,1,,,0,76,30
9387,note_on,,,,,101,0,1,,,0,79,31
9484,note_off,,,,,0,0,1,,,0,57,64
9484,note_off,,,,,0,0,1,,,0,79,64
9484,note_off,,,,,97,0,1,,,0,76,64
9485,note_on,,,,,0,0,1,,,0,76,35
9485,note_on,,,,,0,0,1,,,0,71,32
9485,note_on,,,,,1,0,1,,,0,59,37
9485,note_on,,,,,0,0,1,,,0,79,33
9535,note_off,,,,,0,0,1,,,0,79,64
9535,note_off,,,,,50,0,1,,,0,76,64
9537,note_on,,,,,2,0,1,,,0,78,32
9586,note_on,,,,,0,0,1,,,0,76,30
9586,note_off,,,,,49,0,1,,,0,78,64
9686,note_off,,,,,0,0,1,,,0,59,64
9686,note_off,,,,,100,0,1,,,0,71,64
9687,note_on,,,,,1,0,1,,,0,47,39
9785,note_off,,,,,98,0,1,,,0,76,64
9787,note_on,,,,,2,0,1,,,0,76,29
9887,note_off,,,,,100,0,1,,,0,47,64
9887,note_on,,,,,0,0,1,,,0,35,44
9986,note_off,,,,,99,0,1,,,0,76,64
9988,note_on,,,,,2,0,1,,,0,78,30
10087,note_off,,,,,99,0,1,,,0,35,64
10286,note_off,,,,,199,0,1,,,0,78,64
10288,note_on,,,,,0,0,1,,,0,71,44
10288,note_on,,,,,0,0,1,,,0,74,38
10288,note_on,,,,,2,0,1,,,0,83,55
10388,note_on,,,,,0,0,1,,,0,74,41
10388,note_on,,,,,0,0,1,,,0,78,44
10388,note_off,,,,,0,0,1,,,0,74,64
10388,note_off,,,,,100,0,1,,,0,71,64
10488,note_on,,,,,0,0,1,,,0,73,39
10488,note_off,,,,,100,0,1,,,0,74,64
10488,note_on,,,,,0,0,1,,,0,76,44
10488,note_off,,,,,0,0,1,,,0,78,64
10586,note_off,,,,,98,0,1,,,0,76,64
10586,note_off,,,,,0,0,1,,,0,73,64
10587,note_on,,,,,0,0,1,,,0,71,37
10587,note_on,,,,,1,0,1,,,0,74,40
10688,note_on,,,,,0,0,1,,,0,66,41
10688,note_on,,,,,0,0,1,,,0,73,40
10688,note_off,,,,,0,0,1,,,0,74,64
10688,note_off,,,,,101,0,1,,,0,71,64
10788,note_on,,,,,0,0,1,,,0,82,37
10788,note_off,,,,,0,0,1,,,0,83,64
10788,note_off,,,,,0,0,1,,,0,73,64
10788,note_off,,,,,100,0,1,,,0,66,64
10788,note_on,,,,,0,0,1,,,0,79,35
10788,note_on,,,,,0,0,1,,,0,76,37
10887,note_off,,,,,0,0,1,,,0,82,64
10887,note_off,,,,,99,0,1,,,0,76,64
10887,note_off,,,,,0,0,1,,,0,79,64
10888,note_on,,,,,1,0,1,,,0,78,33
10888,note_on,,,,,0,0,1,,,0,83,46
10888,note_on,,,,,0,0,1,,,0,74,36
10989,note_off,,,,,0,0,1,,,0,78,64
10989,note_off,,,,,101,0,1,,,0,74,64
10989,note_off,,,,,0,0,1,,,0,83,64
10990,note_on,,,,,1,0,1,,,0,82,39
10990,note_on,,,,,0,0,1,,,0,73,34
10990,note_on,,,,,0,0,1,,,0,76,30
11088,note_off,,,,,98,0,1,,,0,73,64
11088,note_on,,,,,0,0,1,,,0,71,43
11088,note_on,,,,,0,0,1,,,0,74,37
11088,note_on,,,,,0,0,1,,,0,83,55
11088,note_off,,,,,0,0,1,,,0,82,64
11088,note_off,,,,,0,0,1,,,0,76,64
11187,note_off,,,,,0,0,1,,,0,74,64
11187,note_off,,,,,99,0,1,,,0,71,64
11189,note_on,,,,,2,0,1,,,0,78,40
11189,note_on,,,,,0,0,1,,,0,74,40
11289,note_off,,,,,100,0,1,,,0,74,64
11289,note_off,,,,,0,0,1,,,0,78,64
11289,note_on,,,,,0,0,1,,,0,76,42
11289,note_on,,,,,0,0,1,,,0,73,36
11388,note_off,,,,,99,0,1,,,0,73,64
11388,note_off,,,,,0,0,1,,,0,76,64
11390,note_on,,,,,2,0,1,,,0,74,44
11390,note_on,,,,,0,0,1,,,0,71,34
11488,note_off,,,,,98,0,1,,,0,71,64
11488,note_off,,,,,0,0,1,,,0,74,64
11489,note_on,,,,,1,0,1,,,0,66,41
11489,note_on,,,,,0,0,1,,,0,73,41
11590,note_off,,,,,0,0,1,,,0,66,64
11590,note_on,,,,,0,0,1,,,0,76,39
11590,note_on,,,,,0,0,1,,,0,82,44
11590,note_off,,,,,101,0,1,,,0,83,64
11590,note_off,,,,,0,0,1,,,0,73,64
11590,note_on,,,,,0,0,1,,,0,79,41
11688,note_off,,,,,0,0,1,,,0,79,64
11688,note_off,,,,,0,0,1,,,0,82,64
11688,note_off,,,,,98,0,1,,,0,76,64
11689,note_on,,,,,0,0,1,,,0,83,51
11689,note_on,,,,,1,0,1,,,0,78,35
11689,note_on,,,,,0,0,1,,,0,74,37
11788,note_off,,,,,0,0,1,,,0,78,64
11788,note_off,,,,,0,0,1,,,0,83,64
11788,note_off,,,,,99,0,1,,,0,74,64
11789,note_on,,,,,0,0,1,,,0,73,36
11789,note_on,,,,,0,0,1,,,0,76,48
11789,note_on,,,,,1,0,1,,,0,82,50
11889,note_on,,,,,0,0,1,,,0,74,39
11889,note_on,,,,,0,0,1,,,0,71,41
11889,note_on,,,,,0,0,1,,,0,83,52
11889,note_off,,,,,0,0,1,,,0,82,64
11889,note_off,,,,,0,0,1,,,0,76,64
11889,note_off,,,,,100,0,1,,,0,73,64
11989,note_off,,,,,0,0,1,,,0,74,64
11989,note_off,,,,,100,0,1,,,0,71,64
11990,note_on,,,,,1,0,1,,,0,77,44
11991,note_on,,,,,1,0,1,,,0,74,37
12089,note_off,,,,,0,0,1,,,0,77,64
12089,note_off,,,,,0,0,1,,,0,83,64
12089,note_off,,,,,98,0,1,,,0,74,64
12090,note_on,,,,,1,0,1,,,0,81,54
12090,note_on,,,,,0,0,1,,,0,76,37
12090,note_on,,,,,0,0,1,,,0,72,35
12190,note_off,,,,,100,0,1,,,0,72,64
12190,note_off,,,,,0,0,1,,,0,76,64
12190,note_on,,,,,0,0,1,,,0,74,46
12190,note_on,,,,,0,0,1,,,0,71,33
12289,note_off,,,,,0,0,1,,,0,81,64
12289,note_off,,,,,99,0,1,,,0,71,64
12289,note_off,,,,,0,0,1,,,0,74,64
12290,note_on,,,,,1,0,1,,,0,71,35
12290,note_on,,,,,0,0,1,,,0,64,42
12389,note_off,,,,,99,0,1,,,0,64,64
12389,note_off,,,,,0,0,1,,,0,71,64
12390,note_on,,,,,1,0,1,,,0,74,39
12390,note_on,,,,,0,0,1,,,0,77,44
12390,note_on,,,,,0,0,1,,,0,80,44
12490,note_on,,,,,0,0,1,,,0,72,37
12490,note_on,,,,,0,0,1,,,0,76,36
12490,note_on,,,,,0,0,1,,,0,81,37
12490,note_off,,,,,0,0,1,,,0,74,64
12490,note_off,,,,,0,0,1,,,0,77,64
12490,note_off,,,,,100,0,1,,,0,80,64
12590,note_off,,,,,0,0,1,,,0,76,64
12590,note_off,,,,,100,0,1,,,0,72,64
12590,note_off,,,,,0,0,1,,,0,81,64
12591,note_on,,,,,1,0,1,,,0,80,41
12591,note_on,,,,,0,0,1,,,0,71,35
12591,note_on,,,,,0,0,1,,,0,74,39
12692,note_off,,,,,101,0,1,,,0,71,64
12692,note_on,,,,,0,0,1,,,0,69,42
12692,note_on,,,,,0,0,1,,,0,72,37
12692,note_on,,,,,0,0,1,,,0,81,55
12692,note_off,,,,,0,0,1,,,0,80,64
12692,note_off,,,,,0,0,1,,,0,74,64
12791,note_on,,,,,0,0,1,,,0,76,48
12791,note_off,,,,,0,0,1,,,0,72,64
12791,note_off,,,,,99,0,1,,,0,69,64
12791,note_on,,,,,0,0,1,,,0,72,40
12890,note_off,,,,,99,0,1,,,0,72,64
12890,note_off,,,,,0,0,1,,,0,76,64
12892,note_on,,,,,2,0,1,,,0,74,39
12892,note_on,,,,,0,0,1,,,0,71,36
12991,note_off,,,,,99,0,1,,,0,71,64
12992,note_on,,,,,0,0,1,,,0,69,34
12992,note_on,,,,,0,0,1,,,0,72,45
12992,note_off,,,,,1,0,1,,,0,74,64
13091,note_on,,,,,0,0,1,,,0,64,46
13091,note_on,,,,,0,0,1,,,0,71,41
13091,note_off,,,,,0,0,1,,,0,72,64
13091,note_off,,,,,99,0,1,,,0,69,64
13191,note_off,,,,,100,0,1,,,0,64,64
13191,note_off,,,,,0,0,1,,,0,71,64
13191,note_off,,,,,0,0,1,,,0,81,64
13192,note_on,,,,,1,0,1,,,0,80,40
13192,note_on,,,,,0,0,1,,,0,74,44
13192,note_on,,,,,0,0,1,,,0,77,35
13292,note_on,,,,,0,0,1,,,0,72,41
13292,note_on,,,,,0,0,1,,,0,81,45
13292,note_off,,,,,0,0,1,,,0,80,64
13292,note_off,,,,,0,0,1,,,0,77,64
13292,note_off,,,,,100,0,1,,,0,74,64
13292,note_on,,,,,0,0,1,,,0,76,41
13392,note_on,,,,,0,0,1,,,0,74,42
13392,note_on,,,,,0,0,1,,,0,80,42
13392,note_off,,,,,0,0,1,,,0,81,64
13392,note_off,,,,,0,0,1,,,0,76,64
13392,note_off,,,,,100,0,1,,,0,72,64
13392,note_on,,,,,0,0,1,,,0,71,40
13491,note_off,,,,,99,0,1,,,0,80,64
13491,note_off,,,,,0,0,1,,,0,74,64
13491,note_off,,,,,0,0,1,,,0,71,64
13492,note_on,,,,,1,0,1,,,0,81,55
13492,note_on,,,,,0,0,1,,,0,72,44
13492,note_on,,,,,0,0,1,,,0,69,45
13592,note_off,,,,,0,0,1,,,0,72,64
13592,note_off,,,,,100,0,1,,,0,69,64
13592,note_on,,,,,0,0,1,,,0,76,37
13592,note_on,,,,,0,0,1,,,0,72,40
13692,note_off,,,,,100,0,1,,,0,72,64
13692,note_off,,,,,0,0,1,,,0,76,64
13693,note_on,,,,,1,0,1,,,0,74,39
13693,note_on,,,,,0,0,1,,,0,71,39
13791,note_off,,,,,98,0,1,,,0,71,64
13791,note_off,,,,,0,0,1,,,0,74,64
13793,note_on,,,,,2,0,1,,,0,72,39
13793,note_on,,,,,0,0,1,,,0,69,35
13893,note_on,,,,,0,0,1,,,0,64,46
13893,note_on,,,,,0,0,1,,,0,71,37
13893,note_off,,,,,0,0,1,,,0,72,64
13893,note_off,,,,,100,0,1,,,0,69,64
13992,note_off,,,,,0,0,1,,,0,71,64
13992,note_off,,,,,0,0,1,,,0,81,64
13992,note_off,,,,,99,0,1,,,0,64,64
13993,note_on,,,,,0,0,1,,,0,74,40
13993,note_on,,,,,1,0,1,,,0,77,36
13993,note_on,,,,,0,0,1,,,0,80,41
14091,note_off,,,,,0,0,1,,,0,77,64
14091,note_off,,,,,0,0,1,,,0,80,64
14091,note_off,,,,,98,0,1,,,0,74,64
14092,note_on,,,,,0,0,1,,,0,72,39
14092,note_on,,,,,0,0,1,,,0,81,50
14092,note_on,,,,,1,0,1,,,0,76,44
14193,note_on,,,,,0,0,1,,,0,74,44
14193,note_off,,,,,0,0,1,,,0,76,64
14193,note_off,,,,,0,0,1,,,0,81,64
14193,note_off,,,,,101,0,1,,,0,72,64
14194,note_on,,,,,0,0,1,,,0,71,37
14194,note_on,,,,,1,0,1,,,0,83,50
14293,note_off,,,,,0,0,1,,,0,83,64
14293,note_off,,,,,0,0,1,,,0,74,64
14293,note_off,,,,,99,0,1,,,0,71,64
14294,note_on,,,,,1,0,1,,,0,69,42
14294,note_on,,,,,0,0,1,,,0,84,40
14392,note_off,,,,,98,0,1,,,0,84,64
14394,note_on,,,,,2,0,1,,,0,76,40
14494,note_on,,,,,0,0,1,,,0,75,38
14494,note_off,,,,,100,0,1,,,0,76,64
14494,note_off,,,,,0,0,1,,,0,69,64
14593,note_off,,,,,99,0,1,,,0,75,64
14595,note_on,,,,,2,0,1,,,0,76,50
14692,note_off,,,,,97,0,1,,,0,76,64
14694,note_on,,,,,2,0,1,,,0,84,42
14694,note_on,,,,,0,0,1,,,0,57,42
14743,note_off,,,,,49,0,1,,,0,84,64
14745,note_on,,,,,2,0,1,,,0,83,48
14794,note_on,,,,,0,0,1,,,0,81,46
14794,note_off,,,,,49,0,1,,,0,83,64
14843,note_off,,,,,49,0,1,,,0,81,64
14845,note_on,,,,,2,0,1,,,0,79,42
14894,note_off,,,,,0,0,1,,,0,57,64
14894,note_off,,,,,49,0,1,,,0,79,64
14895,note_on,,,,,0,0,1,,,0,69,46
14895,note_on,,,,,1,0,1,,,0,78,48
14993,note_off,,,,,98,0,1,,,0,78,64
14995,note_on,,,,,2,0,1,,,0,76,41
15095,note_off,,,,,0,0,1,,,0,69,64
15095,note_off,,,,,100,0,1,,,0,76,64
15095,note_on,,,,,0,0,1,,,0,83,50
15095,note_on,,,,,0,0,1,,,0,59,44
15193,note_off,,,,,0,0,1,,,0,83,64
15193,note_off,,,,,98,0,1,,,0,59,64
15195,note_on,,,,,0,0,1,,,0,71,40
15195,note_on,,,,,2,0,1,,,0,74,42
15295,note_on,,,,,0,0,1,,,0,69,39
15295,note_off,,,,,0,0,1,,,0,74,64
15295,note_off,,,,,100,0,1,,,0,71,64
15295,note_on,,,,,0,0,1,,,0,73,35
15319,note_off,,,,,24,0,1,,,0,73,64
15319,note_on,,,,,0,0,1,,,0,74,33
15344,note_off,,,,,25,0,1,,,0,74,64
15346,note_on,,,,,2,0,1,,,0,73,43
15395,note_on,,,,,0,0,1,,,0,68,37
15395,note_on,,,,,0,0,1,,,0,71,37
15395,note_off,,,,,0,0,1,,,0,69,64
15395,note_off,,,,,49,0,1,,,0,73,64
15494,note_off,,,,,0,0,1,,,0,71,64
15494,note_off,,,,,99,0,1,,,0,68,64
15496,note_on,,,,,0,0,1,,,0,59,44
15496,note_on,,,,,2,0,1,,,0,81,55
15596,note_off,,,,,0,0,1,,,0,81,64
15596,note_on,,,,,0,0,1,,,0,69,42
15596,note_on,,,,,0,0,1,,,0,73,37
15596,note_off,,,,,100,0,1,,,0,59,64
15695,note_off,,,,,99,0,1,,,0,69,64
15695,note_on,,,,,0,0,1,,,0,71,35
15695,note_off,,,,,0,0,1,,,0,73,64
15696,note_on,,,,,1,0,1,,,0,68,39
15720,note_off,,,,,24,0,1,,,0,71,64
15721,note_on,,,,,1,0,1,,,0,72,33
15745,note_on,,,,,0,0,1,,,0,71,43
15745,note_off,,,,,24,0,1,,,0,72,64
15794,note_off,,,,,49,0,1,,,0,71,64
15794,note_off,,,,,0,0,1,,,0,68,64
15796,note_on,,,,,2,0,1,,,0,69,39
15796,note_on,,,,,0,0,1,,,0,66,35
15896,note_off,,,,,100,0,1,,,0,66,64
15896,note_off,,,,,0,0,1,,,0,69,64
15896,note_on,,,,,0,0,1,,,0,59,45
15896,note_on,,,,,0,0,1,,,0,80,53
15995,note_on,,,,,0,0,1,,,0,68,40
15995,note_on,,,,,0,0,1,,,0,71,37
15995,note_off,,,,,0,0,1,,,0,80,64
15995,note_off,,,,,99,0,1,,,0,59,64
16095,note_off,,,,,0,0,1,,,0,71,64
16095,note_off,,,,,100,0,1,,,0,68,64
16097,note_on,,,,,0,0,1,,,0,66,37
16097,note_on,,,,,2,0,1,,,0,69,35
16121,note_off,,,,,24,0,1,,,0,69,64
16121,note_on,,,,,0,0,1,,,0,70,33
16146,note_off,,,,,25,0,1,,,0,70,64
16148,note_on,,,,,2,0,1,,,0,69,43
16197,note_off,,,,,0,0,1,,,0,66,64
16197,note_off,,,,,49,0,1,,,0,69,64
16197,note_on,,,,,0,0,1,,,0,68,37
16197,note_on,,,,,0,0,1,,,0,64,34
16296,note_off,,,,,99,0,1,,,0,64,64
16296,note_off,,,,,0,0,1,,,0,68,64
16297,note_on,,,,,0,0,1,,,0,78,39
16297,note_on,,,,,1,0,1,,,0,59,44
16395,note_off,,,,,98,0,1,,,0,78,64
16395,note_off,,,,,0,0,1,,,0,59,64
16396,note_on,,,,,1,0,1,,,0,69,27
16396,note_on,,,,,0,0,1,,,0,66,39
16496,note_on,,,,,0,0,1,,,0,64,37
16496,note_on,,,,,0,0,1,,,0,68,35
16496,note_off,,,,,100,0,1,,,0,66,64
16496,note_off,,,,,0,0,1,,,0,69,64
16521,note_off,,,,,25,0,1,,,0,68,64
16523,note_on,,,,,2,0,1,,,0,69,33
16545,note_off,,,,,22,0,1,,,0,69,64
16547,note_on,,,,,2,0,1,,,0,68,43
16596,note_off,,,,,49,0,1,,,0,68,64
16596,note_off,,,,,0,0,1,,,0,64,64
16597,note_on,,,,,1,0,1,,,0,66,31
16597,note_on,,,,,0,0,1,,,0,63,34
16696,note_off,,,,,0,0,1,,,0,66,64
16696,note_off,,,,,99,0,1,,,0,63,64
16698,note_on,,,,,2,0,1,,,0,68,32
16698,note_on,,,,,0,0,1,,,0,64,46
16746,note_off,,,,,48,0,1,,,0,64,64
16746,note_off,,,,,0,0,1,,,0,68,64
16748,note_on,,,,,2,0,1,,,0,69,36
16748,note_on,,,,,0,0,1,,,0,66,35
16797,note_off,,,,,49,0,1,,,0,66,64
16797,note_on,,,,,0,0,1,,,0,68,41
16797,note_on,,,,,0,0,1,,,0,71,46
16797,note_off,,,,,0,0,1,,,0,69,64
16846,note_off,,,,,0,0,1,,,0,71,64
16846,note_off,,,,,49,0,1,,,0,68,64
16848,note_on,,,,,0,0,1,,,0,69,39
16848,note_on,,,,,2,0,1,,,0,73,38
16896,note_off,,,,,48,0,1,,,0,69,64
16896,note_off,,,,,0,0,1,,,0,73,64
16897,note_on,,,,,0,0,1,,,0,71,42
16897,note_on,,,,,1,0,1,,,0,75,42
16947,note_on,,,,,0,0,1,,,0,69,37
16947,note_off,,,,,50,0,1,,,0,71,64
16947,note_on,,,,,0,0,1,,,0,73,39
16947,note_off,,,,,0,0,1,,,0,75,64
16996,note_off,,,,,0,0,1,,,0,73,64
16996,note_off,,,,,49,0,1,,,0,69,64
16998,note_on,,,,,0,0,1,,,0,68,39
16998,note_on,,,,,2,0,1,,,0,71,35
17046,note_off,,,,,48,0,1,,,0,68,64
17046,note_off,,,,,0,0,1,,,0,71,64
17047,note_on,,,,,0,0,1,,,0,66,32
17047,note_on,,,,,1,0,1,,,0,69,32
17097,note_on,,,,,0,0,1,,,0,68,38
17097,note_on,,,,,0,0,1,,,0,71,37
17097,note_off,,,,,0,0,1,,,0,69,64
17097,note_off,,,,,50,0,1,,,0,66,64
17146,note_off,,,,,0,0,1,,,0,71,64
17146,note_off,,,,,49,0,1,,,0,68,64
17148,note_on,,,,,0,0,1,,,0,69,44
17148,note_on,,,,,2,0,1,,,0,73,35
17197,note_off,,,,,0,0,1,,,0,73,64
17197,note_off,,,,,49,0,1,,,0,69,64
17198,note_on,,,,,0,0,1,,,0,71,41
17198,note_on,,,,,1,0,1,,,0,75,33
17248,note_off,,,,,50,0,1,,,0,71,64
17248,note_off,,,,,0,0,1,,,0,75,64
17248,note_on,,,,,0,0,1,,,0,73,41
17248,note_on,,,,,0,0,1,,,0,76,41
17297,note_off,,,,,49,0,1,,,0,76,64
17297,note_off,,,,,0,0,1,,,0,73,64
17298,note_on,,,,,0,0,1,,,0,75,39
17298,note_on,,,,,1,0,1,,,0,78,38
17347,note_off,,,,,49,0,1,,,0,75,64
17347,note_off,,,,,0,0,1,,,0,78,64
17349,note_on,,,,,2,0,1,,,0,76,44
17349,note_on,,,,,0,0,1,,,0,73,39
17398,note_off,,,,,49,0,1,,,0,73,64
17398,note_off,,,,,0,0,1,,,0,76,64
17398,note_on,,,,,0,0,1,,,0,71,37
17398,note_on,,,,,0,0,1,,,0,75,33
17447,note_off,,,,,0,0,1,,,0,75,64
17447,note_off,,,,,49,0,1,,,0,71,64
17448,note_on,,,,,0,0,1,,,0,69,39
17448,note_on,,,,,1,0,1,,,0,73,36
17497,note_off,,,,,0,0,1,,,0,73,64
17497,note_off,,,,,49,0,1,,,0,69,64
17498,note_on,,,,,0,0,1,,,0,71,35
17498,note_on,,,,,1,0,1,,,0,75,50
17548,note_off,,,,,0,0,1,,,0,75,64
17548,note_off,,,,,50,0,1,,,0,71,64
17548,note_on,,,,,0,0,1,,,0,76,41
17548,note_on,,,,,0,0,1,,,0,73,47
17596,note_off,,,,,0,0,1,,,0,76,64
17596,note_off,,,,,48,0,1,,,0,73,64
17598,note_on,,,,,0,0,1,,,0,75,42
17598,note_on,,,,,2,0,1,,,0,78,35
17647,note_off,,,,,0,0,1,,,0,78,64
17647,note_off,,,,,49,0,1,,,0,75,64
17648,note_on,,,,,1,0,1,,,0,80,44
17648,note_on,,,,,0,0,1,,,0,76,51
17698,note_on,,,,,0,0,1,,,0,78,50
17698,note_on,,,,,0,0,1,,,0,81,44
17698,note_off,,,,,0,0,1,,,0,80,64
17698,note_off,,,,,50,0,1,,,0,76,64
17747,note_off,,,,,0,0,1,,,0,81,64
17747,note_off,,,,,49,0,1,,,0,78,64
17749,note_on,,,,,0,0,1,,,0,76,37
17749,note_on,,,,,2,0,1,,,0,80,39
17798,note_off,,,,,0,0,1,,,0,80,64
17798,note_off,,,,,49,0,1,,,0,76,64
17799,note_on,,,,,0,0,1,,,0,75,35
17799,note_on,,,,,1,0,1,,,0,78,32
17849,note_off,,,,,0,0,1,,,0,78,64
17849,note_off,,,,,50,0,1,,,0,75,64
17849,note_on,,,,,0,0,1,,,0,76,36
17849,note_on,,,,,0,0,1,,,0,73,34
17899,note_off,,,,,50,0,1,,,0,73,64
17899,note_on,,,,,0,0,1,,,0,75,34
17899,note_on,,,,,0,0,1,,,0,78,31
17899,note_off,,,,,0,0,1,,,0,76,64
17948,note_off,,,,,0,0,1,,,0,78,64
17948,note_off,,,,,49,0,1,,,0,75,64
17949,note_on,,,,,1,0,1,,,0,76,37
17950,note_on,,,,,1,0,1,,,0,73,34
17999,note_on,,,,,0,0,1,,,0,75,39
17999,note_on,,,,,0,0,1,,,0,78,35
17999,note_off,,,,,0,0,1,,,0,76,64
17999,note_off,,,,,49,0,1,,,0,73,64
18049,note_off,,,,,0,0,1,,,0,78,64
18049,note_on,,,,,0,0,1,,,0,80,34
18049,note_on,,,,,0,0,1,,,0,71,32
18049,note_off,,,,,50,0,1,,,0,75,64
18098,note_off,,,,,49,0,1,,,0,71,64
18098,note_off,,,,,0,0,1,,,0,80,64
18099,note_on,,,,,1,0,1,,,0,76,41
18099,note_on,,,,,0,0,1,,,0,73,32
18148,note_on,,,,,0,0,1,,,0,75,35
18148,note_off,,,,,49,0,1,,,0,73,64
18148,note_off,,,,,0,0,1,,,0,76,64
18148,note_on,,,,,0,0,1,,,0,71,41
18199,note_off,,,,,51,0,1,,,0,71,64
18199,note_off,,,,,0,0,1,,,0,75,64
18199,note_on,,,,,0,0,1,,,0,73,35
18199,note_on,,,,,0,0,1,,,0,76,37
18248,note_off,,,,,49,0,1,,,0,76,64
18248,note_off,,,,,0,0,1,,,0,73,64
18250,note_on,,,,,2,0,1,,,0,78,37
18250,note_on,,,,,0,0,1,,,0,66,34
18299,note_on,,,,,0,0,1,,,0,71,44
18299,note_on,,,,,0,0,1,,,0,75,39
18299,note_off,,,,,49,0,1,,,0,66,64
18299,note_off,,,,,0,0,1,,,0,78,64
18350,note_on,,,,,0,0,1,,,0,73,39
18350,note_off,,,,,0,0,1,,,0,75,64
18350,note_off,,,,,51,0,1,,,0,71,64
18350,note_on,,,,,0,0,1,,,0,76,38
18399,note_off,,,,,0,0,1,,,0,76,64
18399,note_off,,,,,49,0,1,,,0,73,64
18400,note_on,,,,,0,0,1,,,0,75,42
18400,note_on,,,,,1,0,1,,,0,78,34
18449,note_on,,,,,0,0,1,,,0,75,39
18449,note_off,,,,,0,0,1,,,0,78,64
18449,note_off,,,,,49,0,1,,,0,75,64
18449,note_on,,,,,0,0,1,,,0,71,47
18500,note_on,,,,,0,0,1,,,0,76,42
18500,note_on,,,,,0,0,1,,,0,73,37
18500,note_off,,,,,0,0,1,,,0,75,64
18500,note_off,,,,,51,0,1,,,0,71,64
18549,note_off,,,,,0,0,1,,,0,76,64
18549,note_off,,,,,49,0,1,,,0,73,64
18551,note_on,,,,,0,0,1,,,0,71,51
18551,note_on,,,,,2,0,1,,,0,75,37
18600,note_on,,,,,0,0,1,,,0,76,37
18600,note_off,,,,,0,0,1,,,0,75,64
18600,note_on,,,,,0,0,1,,,0,73,39
18600,note_off,,,,,49,0,1,,,0,71,64
18650,note_off,,,,,50,0,1,,,0,73,64
18650,note_off,,,,,0,0,1,,,0,76,64
18650,note_on,,,,,0,0,1,,,0,78,39
18650,note_on,,,,,0,0,1,,,0,66,32
18698,note_off,,,,,48,0,1,,,0,66,64
18698,note_off,,,,,0,0,1,,,0,78,64
18700,note_on,,,,,2,0,1,,,0,75,39
18700,note_on,,,,,0,0,1,,,0,71,37
18749,note_off,,,,,49,0,1,,,0,71,64
18749,note_off,,,,,0,0,1,,,0,75,64
18750,note_on,,,,,1,0,1,,,0,76,44
18751,note_on,,,,,1,0,1,,,0,73,35
18800,note_off,,,,,49,0,1,,,0,73,64
18800,note_off,,,,,0,0,1,,,0,76,64
18800,note_on,,,,,0,0,1,,,0,75,32
18800,note_on,,,,,0,0,1,,,0,78,42
18849,note_off,,,,,0,0,1,,,0,78,64
18849,note_off,,,,,49,0,1,,,0,75,64
18850,note_on,,,,,0,0,1,,,0,71,35
18850,note_on,,,,,1,0,1,,,0,75,42
18900,note_off,,,,,0,0,1,,,0,75,64
18900,note_off,,,,,50,0,1,,,0,71,64
18902,note_on,,,,,0,0,1,,,0,73,34
18902,note_on,,,,,2,0,1,,,0,76,37
18950,note_off,,,,,0,0,1,,,0,76,64
18950,note_off,,,,,48,0,1,,,0,73,64
18950,note_on,,,,,0,0,1,,,0,75,38
18950,note_on,,,,,0,0,1,,,0,71,44
18999,note_off,,,,,0,0,1,,,0,75,64
18999,note_off,,,,,49,0,1,,,0,71,64
19001,note_on,,,,,0,0,1,,,0,73,35
19001,note_on,,,,,2,0,1,,,0,76,44
19050,note_off,,,,,0,0,1,,,0,76,64
19050,note_off,,,,,49,0,1,,,0,73,64
19052,note_on,,,,,2,0,1,,,0,78,41
19052,note_on,,,,,0,0,1,,,0,66,34
19101,note_on,,,,,0,0,1,,,0,83,60
19101,note_on,,,,,0,0,1,,,0,71,44
19101,note_off,,,,,0,0,1,,,0,78,64
19101,note_off,,,,,49,0,1,,,0,66,64
19200,note_off,,,,,99,0,1,,,0,71,64
19202,note_on,,,,,2,0,1,,,0,71,39
19299,note_off,,,,,97,0,1,,,0,71,64
19301,note_on,,,,,2,0,1,,,0,71,25
19401,note_on,,,,,0,0,1,,,0,71,30
19401,note_on,,,,,0,0,1,,,0,81,57
19401,note_off,,,,,0,0,1,,,0,83,64
19401,note_off,,,,,100,0,1,,,0,71,64
19500,note_off,,,,,0,0,1,,,0,81,64
19500,note_off,,,,,99,0,1,,,0,71,64
19502,note_on,,,,,0,0,1,,,0,71,37
19502,note_on,,,,,2,0,1,,,0,80,48
19600,note_off,,,,,98,0,1,,,0,71,64
19600,note_off,,,,,0,0,1,,,0,80,64
19601,note_on,,,,,0,0,1,,,0,71,32
19601,note_on,,,,,1,0,1,,,0,77,48
19702,note_on,,,,,0,0,1,,,0,71,37
19702,note_on,,,,,0,0,1,,,0,76,44
19702,note_off,,,,,0,0,1,,,0,77,64
19702,note_off,,,,,101,0,1,,,0,71,64
19801,note_off,,,,,0,0,1,,,0,76,64
19801,note_off,,,,,99,0,1,,,0,71,64
19802,note_on,,,,,1,0,1,,,0,74,42
19802,note_on,,,,,0,0,1,,,0,71,34
19900,note_off,,,,,0,0,1,,,0,74,64
19900,note_off,,,,,98,0,1,,,0,71,64
19902,note_on,,,,,0,0,1,,,0,72,37
19902,note_on,,,,,0,0,1,,,0,71,40
19902,note_on,,,,,2,0,1,,,0,83,57
20002,note_on,,,,,0,0,1,,,0,69,25
20002,note_on,,,,,0,0,1,,,0,72,30
20002,note_off,,,,,0,0,1,,,0,83,64
20002,note_off,,,,,0,0,1,,,0,71,64
20002,note_off,,,,,100,0,1,,,0,72,64
20002,note_on,,,,,0,0,1,,,0,84,43
20050,note_off,,,,,48,0,1,,,0,84,64
20101,note_off,,,,,0,0,1,,,0,72,64
20101,note_off,,,,,51,0,1,,,0,69,64
20103,note_on,,,,,2,0,1,,,0,72,25
20103,note_on,,,,,0,0,1,,,0,69,27
20103,note_on,,,,,0,0,1,,,0,80,38
20201,note_off,,,,,0,0,1,,,0,72,64
20201,note_off,,,,,98,0,1,,,0,80,64
20201,note_off,,,,,0,0,1,,,0,69,64
20202,note_on,,,,,1,0,1,,,0,81,44
20202,note_on,,,,,0,0,1,,,0,72,27
20202,note_on,,,,,0,0,1,,,0,69,25
20302,note_off,,,,,0,0,1,,,0,81,64
20302,note_off,,,,,100,0,1,,,0,69,64
20302,note_off,,,,,0,0,1,,,0,72,64
20302,note_on,,,,,0,0,1,,,0,76,46
20302,note_on,,,,,0,0,1,,,0,69,33
20302,note_on,,,,,0,0,1,,,0,72,28
20401,note_off,,,,,99,0,1,,,0,72,64
20401,note_off,,,,,0,0,1,,,0,69,64
20401,note_off,,,,,0,0,1,,,0,76,64
20402,note_on,,,,,0,0,1,,,0,72,29
20402,note_on,,,,,0,0,1,,,0,69,31
20402,note_on,,,,,1,0,1,,,0,77,41
20503,note_on,,,,,0,0,1,,,0,69,29
20503,note_on,,,,,0,0,1,,,0,75,38
20503,note_off,,,,,0,0,1,,,0,77,64
20503,note_off,,,,,0,0,1,,,0,69,64
20503,note_off,,,,,101,0,1,,,0,72,64
20503,note_on,,,,,0,0,1,,,0,72,29
20602,note_off,,,,,0,0,1,,,0,72,64
20602,note_off,,,,,0,0,1,,,0,75,64
20602,note_on,,,,,0,0,1,,,0,76,41
20602,note_off,,,,,99,0,1,,,0,69,64
20603,note_on,,,,,0,0,1,,,0,69,31
20603,note_on,,,,,1,0,1,,,0,72,29
20702,note_off,,,,,0,0,1,,,0,76,64
20702,note_off,,,,,0,0,1,,,0,72,64
20702,note_off,,,,,99,0,1,,,0,69,64
20703,note_on,,,,,0,0,1,,,0,69,42
20703,note_on,,,,,1,0,1,,,0,82,55
20703,note_on,,,,,0,0,1,,,0,71,42
20804,note_off,,,,,101,0,1,,,0,71,64
20804,note_on,,,,,0,0,1,,,0,67,23
20804,note_on,,,,,0,0,1,,,0,71,27
20804,note_on,,,,,0,0,1,,,0,83,48
20804,note_off,,,,,0,0,1,,,0,82,64
20804,note_off,,,,,0,0,1,,,0,69,64
20852,note_off,,,,,48,0,1,,,0,83,64
20903,note_on,,,,,0,0,1,,,0,67,32
20903,note_on,,,,,0,0,1,,,0,78,39
20903,note_off,,,,,0,0,1,,,0,71,64
20903,note_off,,,,,51,0,1,,,0,67,64
20903,note_on,,,,,0,0,1,,,0,71,27
21002,note_off,,,,,0,0,1,,,0,67,64
21002,note_off,,,,,99,0,1,,,0,71,64
21002,note_off,,,,,0,0,1,,,0,78,64
21003,note_on,,,,,1,0,1,,,0,79,41
21003,note_on,,,,,0,0,1,,,0,67,30
21003,note_on,,,,,0,0,1,,,0,71,27
21103,note_off,,,,,100,0,1,,,0,71,64
21104,note_off,,,,,1,0,1,,,0,67,64
21104,note_off,,,,,0,0,1,,,0,79,64
21104,note_on,,,,,0,0,1,,,0,67,35
21104,note_on,,,,,0,0,1,,,0,71,34
21104,note_on,,,,,0,0,1,,,0,75,37
21203,note_off,,,,,99,0,1,,,0,75,64
21203,note_off,,,,,0,0,1,,,0,71,64
21203,note_off,,,,,0,0,1,,,0,67,64
21204,note_on,,,,,0,0,1,,,0,71,27
21204,note_on,,,,,0,0,1,,,0,67,31
21204,note_on,,,,,1,0,1,,,0,76,48
21303,note_off,,,,,0,0,1,,,0,76,64
21303,note_off,,,,,0,0,1,,,0,67,64
21303,note_off,,,,,99,0,1,,,0,71,64
21304,note_on,,,,,1,0,1,,,0,71,38
21304,note_on,,,,,0,0,1,,,0,67,34
21404,note_on,,,,,0,0,1,,,0,67,31
21404,note_on,,,,,0,0,1,,,0,72,40
21404,note_off,,,,,0,0,1,,,0,71,64
21404,note_off,,,,,100,0,1,,,0,67,64
21504,note_off,,,,,0,0,1,,,0,72,64
21504,note_on,,,,,0,0,1,,,0,69,30
21504,note_on,,,,,0,0,1,,,0,67,33
21504,note_on,,,,,0,0,1,,,0,80,47
21504,note_off,,,,,100,0,1,,,0,67,64
21603,note_off,,,,,0,0,1,,,0,80,64
21603,note_off,,,,,0,0,1,,,0,67,64
21603,note_off,,,,,99,0,1,,,0,69,64
21604,note_on,,,,,1,0,1,,,0,81,41
21604,note_on,,,,,0,0,1,,,0,66,26
21653,note_off,,,,,49,0,1,,,0,81,64
21704,note_on,,,,,0,0,1,,,0,69,27
21704,note_off,,,,,51,0,1,,,0,66,64
21704,note_on,,,,,0,0,1,,,0,66,31
21704,note_on,,,,,0,0,1,,,0,76,32
21804,note_off,,,,,0,0,1,,,0,76,64
21804,note_off,,,,,0,0,1,,,0,66,64
21804,note_off,,,,,100,0,1,,,0,69,64
21805,note_on,,,,,0,0,1,,,0,66,29
21805,note_on,,,,,1,0,1,,,0,78,42
21805,note_on,,,,,0,0,1,,,0,69,28
21904,note_off,,,,,0,0,1,,,0,78,64
21904,note_off,,,,,0,0,1,,,0,66,64
21904,note_off,,,,,99,0,1,,,0,69,64
21905,note_on,,,,,0,0,1,,,0,69,28
21905,note_on,,,,,0,0,1,,,0,66,30
21905,note_on,,,,,1,0,1,,,0,73,42
22005,note_on,,,,,0,0,1,,,0,76,40
22005,note_on,,,,,0,0,1,,,0,66,30
22005,note_on,,,,,0,0,1,,,0,69,26
22005,note_off,,,,,0,0,1,,,0,66,64
22005,note_off,,,,,100,0,1,,,0,69,64
22005,note_off,,,,,0,0,1,,,0,73,64
22104,note_off,,,,,0,0,1,,,0,66,64
22104,note_off,,,,,0,0,1,,,0,69,64
22104,note_off,,,,,99,0,1,,,0,76,64
22105,note_on,,,,,0,0,1,,,0,69,28
22105,note_on,,,,,1,0,1,,,0,75,39
22105,note_on,,,,,0,0,1,,,0,66,31
22203,note_off,,,,,98,0,1,,,0,69,64
22203,note_off,,,,,0,0,1,,,0,66,64
22203,note_off,,,,,0,0,1,,,0,75,64
22204,note_on,,,,,1,0,1,,,0,78,44
22204,note_on,,,,,0,0,1,,,0,66,27
22204,note_on,,,,,0,0,1,,,0,69,25
22305,note_off,,,,,101,0,1,,,0,69,64
22305,note_off,,,,,0,0,1,,,0,66,64
22305,note_off,,,,,0,0,1,,,0,78,64
22305,note_on,,,,,0,0,1,,,0,79,48
22306,note_on,,,,,1,0,1,,,0,64,38
22354,note_off,,,,,48,0,1,,,0,79,64
22356,note_on,,,,,2,0,1,,,0,71,41
22405,note_off,,,,,0,0,1,,,0,64,64
22405,note_off,,,,,49,0,1,,,0,71,64
22406,note_on,,,,,0,0,1,,,0,63,31
22406,note_on,,,,,1,0,1,,,0,72,39
22456,note_on,,,,,0,0,1,,,0,74,50
22456,note_off,,,,,50,0,1,,,0,72,64
22504,note_off,,,,,0,0,1,,,0,63,64
22504,note_off,,,,,48,0,1,,,0,74,64
22506,note_on,,,,,0,0,1,,,0,64,34
22506,note_on,,,,,2,0,1,,,0,72,48
22606,note_on,,,,,0,0,1,,,0,66,31
22606,note_off,,,,,100,0,1,,,0,64,64
22655,note_off,,,,,49,0,1,,,0,72,64
22656,note_on,,,,,1,0,1,,,0,71,41
22680,note_on,,,,,0,0,1,,,0,70,39
22680,note_off,,,,,24,0,1,,,0,71,64
22705,note_off,,,,,0,0,1,,,0,66,64
22705,note_off,,,,,25,0,1,,,0,70,64
22706,note_on,,,,,1,0,1,,,0,71,46
22706,note_on,,,,,0,0,1,,,0,67,36
22755,note_on,,,,,0,0,1,,,0,73,41
22755,note_off,,,,,49,0,1,,,0,71,64
22780,note_off,,,,,25,0,1,,,0,73,64
22782,note_on,,,,,2,0,1,,,0,74,39
22805,note_off,,,,,0,0,1,,,0,67,64
22805,note_off,,,,,23,0,1,,,0,74,64
22806,note_on,,,,,1,0,1,,,0,76,41
22806,note_on,,,,,0,0,1,,,0,66,32
22855,note_off,,,,,49,0,1,,,0,76,64
22857,note_on,,,,,2,0,1,,,0,78,48
22906,note_off,,,,,49,0,1,,,0,78,64
22906,note_off,,,,,0,0,1,,,0,66,64
22906,note_on,,,,,0,0,1,,,0,76,45
22906,note_on,,,,,0,0,1,,,0,67,35
22930,note_off,,,,,24,0,1,,,0,76,64
22932,note_on,,,,,2,0,1,,,0,78,42
22957,note_off,,,,,25,0,1,,,0,78,64
22957,note_on,,,,,0,0,1,,,0,76,46
22981,note_off,,,,,24,0,1,,,0,76,64
22981,note_on,,,,,0,0,1,,,0,78,42
23006,note_off,,,,,25,0,1,,,0,78,64
23006,note_off,,,,,0,0,1,,,0,67,64
23007,note_on,,,,,0,0,1,,,0,76,48
23007,note_on,,,,,1,0,1,,,0,69,28
23032,note_on,,,,,0,0,1,,,0,78,42
23032,note_off,,,,,25,0,1,,,0,76,64
23056,note_on,,,,,0,0,1,,,0,74,48
23056,note_off,,,,,24,0,1,,,0,78,64
23081,note_off,,,,,25,0,1,,,0,74,64
23083,note_on,,,,,2,0,1,,,0,73,46
23107,note_off,,,,,0,0,1,,,0,69,64
23107,note_on,,,,,0,0,1,,,0,71,41
23107,note_on,,,,,0,0,1,,,0,74,47
23107,note_off,,,,,24,0,1,,,0,73,64
23156,note_off,,,,,49,0,1,,,0,74,64
23158,note_on,,,,,2,0,1,,,0,76,47
23182,note_on,,,,,0,0,1,,,0,78,44
23182,note_off,,,,,24,0,1,,,0,76,64
23207,note_on,,,,,0,0,1,,,0,69,37
23207,note_on,,,,,0,0,1,,,0,79,44
23207,note_off,,,,,0,0,1,,,0,71,64
23207,note_off,,,,,25,0,1,,,0,78,64
23257,note_off,,,,,50,0,1,,,0,79,64
23257,note_on,,,,,0,0,1,,,0,81,48
23305,note_off,,,,,48,0,1,,,0,81,64
23305,note_off,,,,,0,0,1,,,0,69,64
23306,note_on,,,,,1,0,1,,,0,79,48
23306,note_on,,,,,0,0,1,,,0,71,39
23332,note_on,,,,,0,0,1,,,0,80,43
23332,note_off,,,,,26,0,1,,,0,79,64
23356,note_on,,,,,0,0,1,,,0,79,48
23356,note_off,,,,,24,0,1,,,0,80,64
23381,note_off,,,,,25,0,1,,,0,79,64
23383,note_on,,,,,2,0,1,,,0,80,43
23407,note_on,,,,,0,0,1,,,0,73,35
23407,note_off,,,,,0,0,1,,,0,71,64
23407,note_off,,,,,24,0,1,,,0,80,64
23407,note_on,,,,,0,0,1,,,0,79,52
23431,note_on,,,,,0,0,1,,,0,80,43
23431,note_off,,,,,24,0,1,,,0,79,64
23456,note_off,,,,,25,0,1,,,0,80,64
23458,note_on,,,,,2,0,1,,,0,78,49
23482,note_on,,,,,0,0,1,,,0,76,46
23482,note_off,,,,,24,0,1,,,0,78,64
23507,note_on,,,,,0,0,1,,,0,74,36
23507,note_on,,,,,0,0,1,,,0,78,49
23507,note_off,,,,,0,0,1,,,0,73,64
23507,note_off,,,,,25,0,1,,,0,76,64
23557,note_off,,,,,50,0,1,,,0,78,64
23557,note_on,,,,,0,0,1,,,0,80,51
23606,note_off,,,,,49,0,1,,,0,80,64
23606,note_off,,,,,0,0,1,,,0,74,64
23608,note_on,,,,,2,0,1,,,0,82,53
23608,note_on,,,,,0,0,1,,,0,73,32
23657,note_on,,,,,0,0,1,,,0,83,53
23657,note_off,,,,,49,0,1,,,0,82,64
23708,note_on,,,,,0,0,1,,,0,74,39
23708,note_on,,,,,0,0,1,,,0,82,55
23708,note_off,,,,,0,0,1,,,0,73,64
23708,note_off,,,,,51,0,1,,,0,83,64
23732,note_on,,,,,0,0,1,,,0,83,52
23732,note_off,,,,,24,0,1,,,0,82,64
23757,note_off,,,,,25,0,1,,,0,83,64
23759,note_on,,,,,2,0,1,,,0,82,48
23807,note_off,,,,,48,0,1,,,0,74,64
23809,note_on,,,,,2,0,1,,,0,76,29
23857,note_off,,,,,48,0,1,,,0,82,64
23857,note_on,,,,,0,0,1,,,0,80,37
23906,note_off,,,,,0,0,1,,,0,76,64
23906,note_off,,,,,49,0,1,,,0,80,64
23908,note_on,,,,,0,0,1,,,0,78,53
23908,note_on,,,,,2,0,1,,,0,82,44
23957,note_off,,,,,0,0,1,,,0,82,64
23957,note_off,,,,,49,0,1,,,0,78,64
23959,note_on,,,,,0,0,1,,,0,80,41
23959,note_on,,,,,2,0,1,,,0,76,38
24008,note_off,,,,,0,0,1,,,0,76,64
24008,note_off,,,,,49,0,1,,,0,80,64
24008,note_on,,,,,0,0,1,,,0,78,41
24008,note_on,,,,,0,0,1,,,0,75,40
24057,note_off,,,,,49,0,1,,,0,75,64
24057,note_off,,,,,0,0,1,,,0,78,64
24059,note_on,,,,,2,0,1,,,0,76,41
24059,note_on,,,,,0,0,1,,,0,73,46
24107,note_off,,,,,48,0,1,,,0,73,64
24107,note_off,,,,,0,0,1,,,0,76,64
24109,note_on,,,,,2,0,1,,,0,75,41
24109,note_on,,,,,0,0,1,,,0,71,39
24158,note_on,,,,,0,0,1,,,0,73,44
24158,note_off,,,,,0,0,1,,,0,75,64
24158,note_off,,,,,49,0,1,,,0,71,64
24158,note_on,,,,,0,0,1,,,0,70,33
24207,note_off,,,,,49,0,1,,,0,70,64
24207,note_off,,,,,0,0,1,,,0,73,64
24209,note_on,,,,,2,0,1,,,0,71,41
24209,note_on,,,,,0,0,1,,,0,68,36
24258,note_off,,,,,0,0,1,,,0,71,64
24258,note_off,,,,,49,0,1,,,0,68,64
24259,note_on,,,,,0,0,1,,,0,66,39
24259,note_on,,,,,1,0,1,,,0,70,41
24309,note_off,,,,,50,0,1,,,0,66,64
24309,note_off,,,,,0,0,1,,,0,70,64
24309,note_on,,,,,0,0,1,,,0,71,51
24309,note_on,,,,,0,0,1,,,0,68,43
24357,note_off,,,,,48,0,1,,,0,71,64
24360,note_on,,,,,3,0,1,,,0,73,42
24408,note_off,,,,,0,0,1,,,0,68,64
24408,note_off,,,,,48,0,1,,,0,73,64
24408,note_on,,,,,0,0,1,,,0,75,46
24408,note_on,,,,,0,0,1,,,0,68,39
24458,note_off,,,,,50,0,1,,,0,75,64
24458,note_on,,,,,0,0,1,,,0,76,58
24507,note_off,,,,,49,0,1,,,0,76,64
24507,note_off,,,,,0,0,1,,,0,68,64
24508,note_on,,,,,1,0,1,,,0,78,44
24508,note_on,,,,,0,0,1,,,0,70,43
24558,note_off,,,,,50,0,1,,,0,78,64
24560,note_on,,,,,2,0,1,,,0,75,45
24609,note_on,,,,,0,0,1,,,0,66,36
24609,note_on,,,,,0,0,1,,,0,76,51
24609,note_off,,,,,0,0,1,,,0,70,64
24609,note_off,,,,,49,0,1,,,0,75,64
24657,note_off,,,,,48,0,1,,,0,76,64
24659,note_on,,,,,2,0,1,,,0,73,46
24709,note_off,,,,,50,0,1,,,0,73,64
24709,note_off,,,,,0,0,1,,,0,66,64
24710,note_on,,,,,0,0,1,,,0,71,40
24710,note_on,,,,,1,0,1,,,0,75,48
24759,note_on,,,,,0,0,1,,,0,71,41
24759,note_off,,,,,49,0,1,,,0,75,64
24808,note_off,,,,,0,0,1,,,0,71,64
24808,note_off,,,,,49,0,1,,,0,71,64
24809,note_on,,,,,0,0,1,,,0,64,34
24809,note_on,,,,,1,0,1,,,0,76,48
24859,note_off,,,,,50,0,1,,,0,76,64
24861,note_on,,,,,2,0,1,,,0,73,40
24910,note_off,,,,,0,0,1,,,0,64,64
24910,note_on,,,,,0,0,1,,,0,75,46
24910,note_on,,,,,0,0,1,,,0,66,37
24910,note_off,,,,,49,0,1,,,0,73,64
24958,note_off,,,,,48,0,1,,,0,75,64
24960,note_on,,,,,2,0,1,,,0,71,41
25008,note_off,,,,,48,0,1,,,0,71,64
25008,note_off,,,,,0,0,1,,,0,66,64
25010,note_on,,,,,0,0,1,,,0,54,41
25010,note_on,,,,,2,0,1,,,0,73,39
25059,note_on,,,,,0,0,1,,,0,70,41
25059,note_off,,,,,49,0,1,,,0,73,64
25108,note_off,,,,,0,0,1,,,0,54,64
25108,note_off,,,,,49,0,1,,,0,70,64
25110,note_on,,,,,2,0,1,,,0,83,66
25110,note_on,,,,,0,0,1,,,0,47,47
25159,note_off,,,,,49,0,1,,,0,83,64
25161,note_on,,,,,2,0,1,,,0,78,41
25209,note_off,,,,,48,0,1,,,0,78,64
25209,note_on,,,,,0,0,1,,,0,75,34
25258,note_off,,,,,49,0,1,,,0,75,64
25260,note_on,,,,,2,0,1,,,0,71,40
25309,note_off,,,,,49,0,1,,,0,71,64
25309,note_off,,,,,0,0,1,,,0,47,64
25311,note_on,,,,,2,0,1,,,0,78,61
25311,note_on,,,,,0,0,1,,,0,47,51
25311,note_on,,,,,0,0,1,,,0,35,51
25360,note_off,,,,,49,0,1,,,0,78,64
25360,note_on,,,,,0,0,1,,,0,75,53
25409,note_off,,,,,49,0,1,,,0,75,64
25411,note_on,,,,,2,0,1,,,0,71,49
25459,note_off,,,,,48,0,1,,,0,71,64
25462,note_on,,,,,3,0,1,,,0,66,44
25510,note_on,,,,,0,0,1,,,0,47,48
25510,note_off,,,,,0,0,1,,,0,47,64
25510,note_off,,,,,0,0,1,,,0,35,64
25510,note_off,,,,,48,0,1,,,0,66,64
25510,note_on,,,,,0,0,1,,,0,35,51
25510,note_on,,,,,0,0,1,,,0,75,56
25560,note_off,,,,,50,0,1,,,0,75,64
25560,note_on,,,,,0,0,1,,,0,71,44
25609,note_off,,,,,49,0,1,,,0,71,64
25611,note_on,,,,,2,0,1,,,0,66,43
25660,note_on,,,,,0,0,1,,,0,63,40
25660,note_off,,,,,49,0,1,,,0,66,64
25710,note_off,,,,,50,0,1,,,0,63,64
25711,note_on,,,,,0,0,1,,,0,71,49
25711,note_off,,,,,0,0,1,,,0,47,64
25711,note_off,,,,,1,0,1,,,0,35,64
25712,note_on,,,,,0,0,1,,,0,35,51
25712,note_on,,,,,1,0,1,,,0,47,53
25759,note_off,,,,,47,0,1,,,0,71,64
25761,note_on,,,,,2,0,1,,,0,66,39
25810,note_off,,,,,49,0,1,,,0,66,64
25810,note_on,,,,,0,0,1,,,0,63,44
25861,note_on,,,,,0,0,1,,,0,59,50
25861,note_off,,,,,51,0,1,,,0,63,64
25910,note_off,,,,,0,0,1,,,0,47,64
25910,note_off,,,,,0,0,1,,,0,35,64
25910,note_off,,,,,49,0,1,,,0,59,64
25911,note_on,,,,,0,0,1,,,0,59,51
25911,note_on,,,,,0,0,1,,,0,47,54
25911,note_on,,,,,1,0,1,,,0,35,51
25936,note_off,,,,,25,0,1,,,0,59,64
25936,note_on,,,,,0,0,1,,,0,61,45
25961,note_on,,,,,0,0,1,,,0,59,48
25961,note_off,,,,,25,0,1,,,0,61,64
25985,note_off,,,,,24,0,1,,,0,59,64
25987,note_on,,,,,2,0,1,,,0,61,42
26011,note_on,,,,,0,0,1,,,0,59,36
26011,note_off,,,,,24,0,1,,,0,61,64
26111,note_off,,,,,0,0,1,,,0,47,64
26111,note_off,,,,,100,0,1,,,0,59,64
26111,note_off,,,,,0,0,1,,,0,35,64
26311,note_on,,,,,0,0,1,,,0,80,46
26311,note_on,,,,,200,0,1,,,0,83,50
26511,note_off,,,,,200,0,1,,,0,80,64
26511,note_off,,,,,0,0,1,,,0,83,64
26513,note_on,,,,,2,0,1,,,0,81,55
26513,note_on,,,,,0,0,1,,,0,78,35
26544,note_off,,,,,31,0,1,,,0,81,64
26546,note_on,,,,,2,0,1,,,0,83,55
26578,note_off,,,,,32,0,1,,,0,83,64
26578,note_on,,,,,0,0,1,,,0,81,51
26712,note_on,,,,,0,0,1,,,0,64,41
26712,note_off,,,,,134,0,1,,,0,81,64
26712,note_off,,,,,0,0,1,,,0,78,64
26712,note_on,,,,,0,0,1,,,0,76,35
26712,note_on,,,,,0,0,1,,,0,81,41
26736,note_off,,,,,24,0,1,,,0,81,64
26737,note_on,,,,,1,0,1,,,0,80,46
26810,note_off,,,,,73,0,1,,,0,64,64
26813,note_on,,,,,3,0,1,,,0,59,41
26912,note_off,,,,,99,0,1,,,0,76,64
26912,note_off,,,,,0,0,1,,,0,80,64
26912,note_off,,,,,0,0,1,,,0,59,64
26912,note_on,,,,,0,0,1,,,0,52,43
27012,note_off,,,,,100,0,1,,,0,52,64
27014,note_on,,,,,2,0,1,,,0,40,41
27111,note_off,,,,,97,0,1,,,0,40,64
27113,note_on,,,,,0,0,1,,,0,71,41
27113,note_on,,,,,2,0,1,,,0,80,48
27312,note_off,,,,,0,0,1,,,0,80,64
27312,note_off,,,,,199,0,1,,,0,71,64
27313,note_on,,,,,0,0,1,,,0,78,50
27313,note_on,,,,,1,0,1,,,0,69,39
27346,note_on,,,,,0,0,1,,,0,80,50
27346,note_off,,,,,33,0,1,,,0,78,64
27380,note_on,,,,,0,0,1,,,0,78,44
27380,note_off,,,,,34,0,1,,,0,80,64
27513,note_on,,,,,0,0,1,,,0,64,41
27513,note_on,,,,,0,0,1,,,0,78,32
27513,note_on,,,,,0,0,1,,,0,68,35
27513,note_off,,,,,0,0,1,,,0,69,64
27513,note_off,,,,,133,0,1,,,0,78,64
27537,note_off,,,,,24,0,1,,,0,78,64
27539,note_on,,,,,2,0,1,,,0,76,36
27613,note_off,,,,,74,0,1,,,0,64,64
27615,note_on,,,,,2,0,1,,,0,59,41
27712,note_off,,,,,0,0,1,,,0,68,64
27712,note_off,,,,,0,0,1,,,0,76,64
27712,note_off,,,,,97,0,1,,,0,59,64
27713,note_on,,,,,1,0,1,,,0,52,43
27814,note_on,,,,,0,0,1,,,0,40,41
27814,note_off,,,,,101,0,1,,,0,52,64
27913,note_off,,,,,99,0,1,,,0,40,64
27914,note_on,,,,,1,0,1,,,0,83,50
27914,note_on,,,,,0,0,1,,,0,80,44
28114,note_off,,,,,200,0,1,,,0,80,64
28114,note_off,,,,,0,0,1,,,0,83,64
28114,note_on,,,,,0,0,1,,,0,78,44
28114,note_on,,,,,0,0,1,,,0,81,55
28148,note_on,,,,,0,0,1,,,0,83,55
28148,note_off,,,,,34,0,1,,,0,81,64
28179,note_off,,,,,31,0,1,,,0,83,64
28181,note_on,,,,,2,0,1,,,0,81,50
28315,note_off,,,,,134,0,1,,,0,81,64
28315,note_off,,,,,0,0,1,,,0,78,64
28315,note_on,,,,,0,0,1,,,0,76,37
28315,note_on,,,,,0,0,1,,,0,81,45
28315,note_on,,,,,0,0,1,,,0,64,41
28339,note_on,,,,,0,0,1,,,0,80,41
28339,note_off,,,,,24,0,1,,,0,81,64
28415,note_on,,,,,0,0,1,,,0,59,41
28415,note_off,,,,,76,0,1,,,0,64,64
28513,note_off,,,,,0,0,1,,,0,76,64
28513,note_off,,,,,0,0,1,,,0,80,64
28513,note_off,,,,,98,0,1,,,0,59,64
28514,note_on,,,,,1,0,1,,,0,52,43
28615,note_off,,,,,101,0,1,,,0,52,64
28615,note_on,,,,,0,0,1,,,0,40,41
28714,note_off,,,,,99,0,1,,,0,40,64
28714,note_on,,,,,0,0,1,,,0,71,39
28714,note_on,,,,,0,0,1,,,0,80,48
28916,note_on,,,,,0,0,1,,,0,78,55
28916,note_on,,,,,0,0,1,,,0,69,36
28916,note_off,,,,,0,0,1,,,0,71,64
28916,note_off,,,,,202,0,1,,,0,80,64
28947,note_off,,,,,31,0,1,,,0,78,64
28949,note_on,,,,,2,0,1,,,0,80,55
28981,note_off,,,,,32,0,1,,,0,80,64
28983,note_on,,,,,2,0,1,,,0,78,43
29114,note_off,,,,,131,0,1,,,0,78,64
29114,note_off,,,,,0,0,1,,,0,69,64
29116,note_on,,,,,2,0,1,,,0,68,36
29116,note_on,,,,,0,0,1,,,0,78,45
29116,note_on,,,,,0,0,1,,,0,64,41
29140,note_on,,,,,0,0,1,,,0,76,46
29140,note_off,,,,,24,0,1,,,0,78,64
29216,note_on,,,,,0,0,1,,,0,59,41
29216,note_off,,,,,76,0,1,,,0,64,64
29315,note_off,,,,,0,0,1,,,0,68,64
29315,note_off,,,,,0,0,1,,,0,76,64
29315,note_off,,,,,99,0,1,,,0,59,64
29316,note_on,,,,,1,0,1,,,0,52,43
29415,note_off,,,,,99,0,1,,,0,52,64
29417,note_on,,,,,2,0,1,,,0,40,41
29516,note_off,,,,,99,0,1,,,0,40,64
29516,note_on,,,,,0,0,1,,,0,80,45
29516,note_on,,,,,0,0,1,,,0,64,48
29541,note_off,,,,,25,0,1,,,0,80,64
29543,note_on,,,,,2,0,1,,,0,81,45
29565,note_off,,,,,22,0,1,,,0,81,64
29567,note_on,,,,,2,0,1,,,0,83,57
29616,note_off,,,,,49,0,1,,,0,64,64
29617,note_on,,,,,1,0,1,,,0,68,39
29715,note_off,,,,,98,0,1,,,0,68,64
29717,note_on,,,,,2,0,1,,,0,66,35
29817,note_on,,,,,0,0,1,,,0,64,23
29817,note_off,,,,,100,0,1,,,0,83,64
29817,note_off,,,,,0,0,1,,,0,66,64
29817,note_on,,,,,0,0,1,,,0,74,46
29916,note_off,,,,,99,0,1,,,0,64,64
29918,note_on,,,,,0,0,1,,,0,69,51
29918,note_on,,,,,0,0,1,,,0,73,42
29918,note_off,,,,,2,0,1,,,0,74,64
30016,note_off,,,,,98,0,1,,,0,69,64
30018,note_on,,,,,0,0,1,,,0,81,47
30018,note_off,,,,,2,0,1,,,0,73,64
30018,note_on,,,,,0,0,1,,,0,73,41
30117,note_on,,,,,0,0,1,,,0,71,50
30117,note_on,,,,,0,0,1,,,0,80,47
30117,note_off,,,,,0,0,1,,,0,81,64
30117,note_off,,,,,99,0,1,,,0,73,64
30216,note_off,,,,,99,0,1,,,0,71,64
30218,note_off,,,,,2,0,1,,,0,80,64
30218,note_on,,,,,0,0,1,,,0,78,41
30218,note_on,,,,,0,0,1,,,0,69,46
30316,note_off,,,,,98,0,1,,,0,69,64
30318,note_off,,,,,2,0,1,,,0,78,64
30318,note_on,,,,,0,0,1,,,0,80,45
30318,note_on,,,,,0,0,1,,,0,64,48
30342,note_off,,,,,24,0,1,,,0,80,64
30342,note_on,,,,,0,0,1,,,0,81,45
30366,note_off,,,,,24,0,1,,,0,81,64
30368,note_on,,,,,2,0,1,,,0,83,55
30417,note_off,,,,,49,0,1,,,0,64,64
30417,note_on,,,,,0,0,1,,,0,68,43
30517,note_off,,,,,100,0,1,,,0,68,64
30519,note_on,,,,,2,0,1,,,0,66,44
30617,note_off,,,,,98,0,1,,,0,66,64
30617,note_off,,,,,0,0,1,,,0,83,64
30617,note_on,,,,,0,0,1,,,0,74,47
30617,note_on,,,,,0,0,1,,,0,64,48
30718,note_on,,,,,0,0,1,,,0,73,44
30718,note_on,,,,,0,0,1,,,0,69,55
30718,note_off,,,,,0,0,1,,,0,74,64
30718,note_off,,,,,101,0,1,,,0,64,64
30817,note_off,,,,,99,0,1,,,0,69,64
30819,note_on,,,,,0,0,1,,,0,81,50
30819,note_off,,,,,2,0,1,,,0,73,64
30819,note_on,,,,,0,0,1,,,0,73,41
30918,note_on,,,,,0,0,1,,,0,80,43
30918,note_on,,,,,0,0,1,,,0,71,53
30918,note_off,,,,,0,0,1,,,0,81,64
30918,note_off,,,,,99,0,1,,,0,73,64
31018,note_on,,,,,0,0,1,,,0,69,46
31018,note_on,,,,,0,0,1,,,0,78,38
31018,note_off,,,,,0,0,1,,,0,80,64
31018,note_off,,,,,100,0,1,,,0,71,64
31118,note_off,,,,,100,0,1,,,0,69,64
31120,note_on,,,,,0,0,1,,,0,64,51
31120,note_on,,,,,0,0,1,,,0,80,45
31120,note_off,,,,,2,0,1,,,0,78,64
31144,note_off,,,,,24,0,1,,,0,80,64
31144,note_on,,,,,0,0,1,,,0,81,45
31168,note_on,,,,,0,0,1,,,0,83,48
31168,note_off,,,,,24,0,1,,,0,81,64
31219,note_on,,,,,0,0,1,,,0,68,44
31219,note_off,,,,,51,0,1,,,0,64,64
31319,note_off,,,,,100,0,1,,,0,68,64
31319,note_on,,,,,0,0,1,,,0,66,37
31417,note_off,,,,,98,0,1,,,0,66,64
31419,note_on,,,,,0,0,1,,,0,76,46
31419,note_off,,,,,2,0,1,,,0,83,64
31419,note_on,,,,,0,0,1,,,0,64,47
31519,note_off,,,,,0,0,1,,,0,76,64
31519,note_off,,,,,100,0,1,,,0,64,64
31519,note_on,,,,,0,0,1,,,0,71,57
31519,note_on,,,,,0,0,1,,,0,75,39
31621,note_off,,,,,102,0,1,,,0,75,64
31621,note_on,,,,,0,0,1,,,0,81,46
31718,note_off,,,,,97,0,1,,,0,71,64
31721,note_off,,,,,3,0,1,,,0,81,64
31721,note_on,,,,,0,0,1,,,0,80,41
31721,note_on,,,,,0,0,1,,,0,59,47
31820,note_off,,,,,99,0,1,,,0,80,64
31820,note_on,,,,,0,0,1,,,0,78,39
31920,note_off,,,,,100,0,1,,,0,59,64
31921,note_off,,,,,1,0,1,,,0,78,64
31921,note_on,,,,,0,0,1,,,0,64,46
31921,note_on,,,,,0,0,1,,,0,80,39
31969,note_on,,,,,0,0,1,,,0,78,41
31969,note_off,,,,,48,0,1,,,0,80,64
32020,note_on,,,,,0,0,1,,,0,76,46
32020,note_off,,,,,51,0,1,,,0,78,64
32120,note_on,,,,,0,0,1,,,0,52,42
32120,note_off,,,,,100,0,1,,,0,64,64
32221,note_on,,,,,0,0,1,,,0,75,39
32221,note_off,,,,,101,0,1,,,0,76,64
32319,note_off,,,,,98,0,1,,,0,52,64
32321,note_on,,,,,2,0,1,,,0,40,40
32421,note_off,,,,,100,0,1,,,0,75,64
32421,note_on,,,,,0,0,1,,,0,76,37
32721,note_off,,,,,300,0,1,,,0,76,64
32721,note_on,,,,,0,0,1,,,0,64,34
32721,note_on,,,,,0,0,1,,,0,76,32
32721,note_off,,,,,0,0,1,,,0,40,64
32745,note_off,,,,,24,0,1,,,0,76,64
32747,note_on,,,,,2,0,1,,,0,77,32
32769,note_off,,,,,22,0,1,,,0,77,64
32772,note_on,,,,,3,0,1,,,0,79,41
32820,note_off,,,,,48,0,1,,,0,64,64
32822,note_on,,,,,2,0,1,,,0,67,28
32920,note_off,,,,,98,0,1,,,0,67,64
32922,note_on,,,,,2,0,1,,,0,66,31
33022,note_on,,,,,0,0,1,,,0,64,33
33022,note_on,,,,,0,0,1,,,0,71,35
33022,note_off,,,,,0,0,1,,,0,79,64
33022,note_off,,,,,100,0,1,,,0,66,64
33120,note_off,,,,,0,0,1,,,0,71,64
33120,note_off,,,,,98,0,1,,,0,64,64
33121,note_on,,,,,1,0,1,,,0,72,31
33122,note_on,,,,,1,0,1,,,0,69,35
33222,note_on,,,,,0,0,1,,,0,72,35
33222,note_off,,,,,100,0,1,,,0,69,64
33222,note_off,,,,,0,0,1,,,0,72,64
33222,note_on,,,,,0,0,1,,,0,78,30
33321,note_on,,,,,0,0,1,,,0,71,32
33321,note_off,,,,,99,0,1,,,0,72,64
33321,note_off,,,,,0,0,1,,,0,78,64
33321,note_on,,,,,0,0,1,,,0,76,30
33421,note_off,,,,,0,0,1,,,0,76,64
33421,note_off,,,,,100,0,1,,,0,71,64
33423,note_on,,,,,2,0,1,,,0,75,32
33423,note_on,,,,,0,0,1,,,0,69,33
33523,note_on,,,,,0,0,1,,,0,76,32
33523,note_on,,,,,0,0,1,,,0,64,39
33523,note_off,,,,,100,0,1,,,0,69,64
33523,note_off,,,,,0,0,1,,,0,75,64
33547,note_on,,,,,0,0,1,,,0,77,32
33547,note_off,,,,,24,0,1,,,0,76,64
33572,note_off,,,,,25,0,1,,,0,77,64
33573,note_on,,,,,1,0,1,,,0,79,44
33622,note_off,,,,,49,0,1,,,0,64,64
33622,note_on,,,,,0,0,1,,,0,67,31
33721,note_off,,,,,99,0,1,,,0,67,64
33723,note_on,,,,,2,0,1,,,0,66,23
33823,note_off,,,,,100,0,1,,,0,66,64
33823,note_off,,,,,0,0,1,,,0,79,64
33823,note_on,,,,,0,0,1,,,0,71,35
33823,note_on,,,,,0,0,1,,,0,64,30
33922,note_off,,,,,99,0,1,,,0,64,64
33922,note_off,,,,,0,0,1,,,0,71,64
33922,note_on,,,,,0,0,1,,,0,72,35
33922,note_on,,,,,0,0,1,,,0,69,41
34022,note_off,,,,,0,0,1,,,0,72,64
34022,note_off,,,,,100,0,1,,,0,69,64
34023,note_on,,,,,0,0,1,,,0,72,34
34023,note_on,,,,,1,0,1,,,0,78,33
34123,note_on,,,,,0,0,1,,,0,76,34
34123,note_off,,,,,0,0,1,,,0,78,64
34123,note_off,,,,,100,0,1,,,0,72,64
34123,note_on,,,,,0,0,1,,,0,71,37
34223,note_off,,,,,100,0,1,,,0,71,64
34223,note_off,,,,,0,0,1,,,0,76,64
34224,note_on,,,,,0,0,1,,,0,69,34
34224,note_on,,,,,1,0,1,,,0,75,30
34322,note_off,,,,,0,0,1,,,0,75,64
34322,note_off,,,,,98,0,1,,,0,69,64
34323,note_on,,,,,0,0,1,,,0,64,44
34323,note_on,,,,,1,0,1,,,0,79,32
34348,note_on,,,,,0,0,1,,,0,81,32
34348,note_off,,,,,25,0,1,,,0,79,64
34373,note_off,,,,,25,0,1,,,0,81,64
34375,note_on,,,,,2,0,1,,,0,83,44
34423,note_on,,,,,0,0,1,,,0,67,35
34423,note_off,,,,,48,0,1,,,0,64,64
34523,note_off,,,,,100,0,1,,,0,67,64
34525,note_on,,,,,2,0,1,,,0,66,24
34623,note_off,,,,,98,0,1,,,0,83,64
34623,note_off,,,,,0,0,1,,,0,66,64
34624,note_on,,,,,1,0,1,,,0,71,34
34624,note_on,,,,,0,0,1,,,0,64,30
34724,note_on,,,,,0,0,1,,,0,69,33
34724,note_off,,,,,100,0,1,,,0,64,64
34724,note_off,,,,,0,0,1,,,0,71,64
34724,note_on,,,,,0,0,1,,,0,72,39
34824,note_off,,,,,100,0,1,,,0,72,64
34825,note_on,,,,,1,0,1,,,0,81,39
34825,note_on,,,,,0,0,1,,,0,78,27
34923,note_off,,,,,0,0,1,,,0,69,64
34923,note_off,,,,,98,0,1,,,0,78,64
34923,note_off,,,,,0,0,1,,,0,81,64
34924,note_on,,,,,1,0,1,,,0,57,32
35024,note_on,,,,,100,0,1,,,0,79,31
35024,note_on,,,,,0,0,1,,,0,76,30
35124,note_off,,,,,100,0,1,,,0,76,64
35124,note_off,,,,,0,0,1,,,0,57,64
35124,note_off,,,,,0,0,1,,,0,79,64
35125,note_on,,,,,0,0,1,,,0,59,37
35125,note_on,,,,,0,0,1,,,0,71,32
35125,note_on,,,,,0,0,1,,,0,76,35
35125,note_on,,,,,1,0,1,,,0,79,33
35175,note_off,,,,,0,0,1,,,0,79,64
35175,note_off,,,,,50,0,1,,,0,76,64
35175,note_on,,,,,0,0,1,,,0,78,32
35223,note_off,,,,,48,0,1,,,0,78,64
35226,note_on,,,,,3,0,1,,,0,76,30
35325,note_off,,,,,99,0,1,,,0,59,64
35325,note_off,,,,,0,0,1,,,0,71,64
35325,note_on,,,,,0,0,1,,,0,47,39
35424,note_off,,,,,99,0,1,,,0,76,64
35426,note_on,,,,,2,0,1,,,0,76,29
35523,note_off,,,,,97,0,1,,,0,47,64
35525,note_on,,,,,2,0,1,,,0,35,44
35625,note_on,,,,,0,0,1,,,0,78,30
35625,note_off,,,,,100,0,1,,,0,76,64
35725,note_off,,,,,100,0,1,,,0,35,64
35926,note_on,,,,,0,0,1,,,0,83,55
35926,note_on,,,,,0,0,1,,,0,71,44
35926,note_on,,,,,0,0,1,,,0,74,38
35926,note_off,,,,,201,0,1,,,0,78,64
36024,note_off,,,,,98,0,1,,,0,71,64
36025,note_off,,,,,1,0,1,,,0,74,64
36026,note_on,,,,,0,0,1,,,0,74,41
36026,note_on,,,,,1,0,1,,,0,78,44
36126,note_on,,,,,0,0,1,,,0,73,39
36126,note_on,,,,,0,0,1,,,0,76,44
36126,note_off,,,,,0,0,1,,,0,78,64
36126,note_off,,,,,100,0,1,,,0,74,64
36226,note_on,,,,,0,0,1,,,0,74,40
36226,note_off,,,,,100,0,1,,,0,73,64
36226,note_on,,,,,0,0,1,,,0,71,37
36226,note_off,,,,,0,0,1,,,0,76,64
36325,note_off,,,,,99,0,1,,,0,71,64
36325,note_off,,,,,0,0,1,,,0,74,64
36327,note_on,,,,,0,0,1,,,0,66,41
36327,note_on,,,,,2,0,1,,,0,73,40
36427,note_on,,,,,0,0,1,,,0,82,37
36427,note_on,,,,,0,0,1,,,0,79,35
36427,note_on,,,,,0,0,1,,,0,76,37
36427,note_off,,,,,0,0,1,,,0,83,64
36427,note_off,,,,,0,0,1,,,0,73,64
36427,note_off,,,,,100,0,1,,,0,66,64
36527,note_on,,,,,0,0,1,,,0,83,46
36527,note_on,,,,,0,0,1,,,0,78,33
36527,note_off,,,,,0,0,1,,,0,76,64
36527,note_off,,,,,100,0,1,,,0,82,64
36527,note_off,,,,,0,0,1,,,0,79,64
36527,note_on,,,,,0,0,1,,,0,74,36
36625,note_off,,,,,0,0,1,,,0,78,64
36625,note_off,,,,,0,0,1,,,0,83,64
36625,note_off,,,,,98,0,1,,,0,74,64
36626,note_on,,,,,0,0,1,,,0,73,34
36626,note_on,,,,,0,0,1,,,0,76,30
36626,note_on,,,,,1,0,1,,,0,82,39
36727,note_on,,,,,0,0,1,,,0,71,43
36727,note_off,,,,,0,0,1,,,0,82,64
36727,note_off,,,,,0,0,1,,,0,76,64
36727,note_off,,,,,101,0,1,,,0,73,64
36727,note_on,,,,,0,0,1,,,0,83,55
36727,note_on,,,,,0,0,1,,,0,74,37
36826,note_off,,,,,0,0,1,,,0,74,64
36826,note_off,,,,,99,0,1,,,0,71,64
36829,note_on,,,,,3,0,1,,,0,78,40
36829,note_on,,,,,0,0,1,,,0,74,40
36926,note_off,,,,,97,0,1,,,0,74,64
36926,note_off,,,,,0,0,1,,,0,78,64
36927,note_on,,,,,1,0,1,,,0,76,42
36928,note_on,,,,,1,0,1,,,0,73,36
37028,note_off,,,,,0,0,1,,,0,76,64
37028,note_off,,,,,100,0,1,,,0,73,64
37028,note_on,,,,,0,0,1,,,0,74,44
37028,note_on,,,,,0,0,1,,,0,71,34
37127,note_off,,,,,99,0,1,,,0,71,64
37127,note_off,,,,,0,0,1,,,0,74,64
37128,note_on,,,,,0,0,1,,,0,66,41
37128,note_on,,,,,1,0,1,,,0,73,41
37226,note_off,,,,,0,0,1,,,0,83,64
37226,note_off,,,,,0,0,1,,,0,73,64
37226,note_off,,,,,98,0,1,,,0,66,64
37227,note_on,,,,,1,0,1,,,0,79,41
37227,note_on,,,,,0,0,1,,,0,82,44
37227,note_on,,,,,0,0,1,,,0,76,39
37328,note_on,,,,,0,0,1,,,0,78,35
37328,note_off,,,,,101,0,1,,,0,76,64
37328,note_off,,,,,0,0,1,,,0,82,64
37328,note_off,,,,,0,0,1,,,0,79,64
37328,note_on,,,,,0,0,1,,,0,83,51
37328,note_on,,,,,0,0,1,,,0,74,37
37427,note_off,,,,,99,0,1,,,0,74,64
37427,note_off,,,,,0,0,1,,,0,83,64
37427,note_off,,,,,0,0,1,,,0,78,64
37428,note_on,,,,,1,0,1,,,0,73,36
37428,note_on,,,,,0,0,1,,,0,76,48
37428,note_on,,,,,0,0,1,,,0,82,50
37527,note_off,,,,,0,0,1,,,0,73,64
37527,note_off,,,,,0,0,1,,,0,76,64
37527,note_off,,,,,99,0,1,,,0,82,64
37528,note_on,,,,,0,0,1,,,0,71,41
37528,note_on,,,,,0,0,1,,,0,74,39
37528,note_on,,,,,1,0,1,,,0,83,52
37629,note_on,,,,,0,0,1,,,0,74,37
37629,note_off,,,,,101,0,1,,,0,71,64
37629,note_off,,,,,0,0,1,,,0,74,64
37629,note_on,,,,,0,0,1,,,0,77,44
37728,note_on,,,,,0,0,1,,,0,72,35
37728,note_on,,,,,0,0,1,,,0,76,37
37728,note_off,,,,,99,0,1,,,0,74,64
37728,note_on,,,,,0,0,1,,,0,81,54
37728,note_off,,,,,0,0,1,,,0,83,64
37728,note_off,,,,,0,0,1,,,0,77,64
37827,note_off,,,,,0,0,1,,,0,76,64
37827,note_off,,,,,99,0,1,,,0,72,64
37828,note_on,,,,,1,0,1,,,0,74,46
37828,note_on,,,,,0,0,1,,,0,71,33
37928,note_off,,,,,0,0,1,,,0,74,64
37928,note_on,,,,,0,0,1,,,0,64,42
37928,note_on,,,,,0,0,1,,,0,71,35
37928,note_off,,,,,0,0,1,,,0,81,64
37928,note_off,,,,,100,0,1,,,0,71,64
38028,note_off,,,,,0,0,1,,,0,71,64
38028,note_off,,,,,100,0,1,,,0,64,64
38030,note_on,,,,,0,0,1,,,0,74,39
38030,note_on,,,,,0,0,1,,,0,77,44
38030,note_on,,,,,2,0,1,,,0,80,44
38128,note_off,,,,,0,0,1,,,0,77,64
38128,note_off,,,,,98,0,1,,,0,74,64
38128,note_off,,,,,0,0,1,,,0,80,64
38129,note_on,,,,,1,0,1,,,0,81,37
38129,note_on,,,,,0,0,1,,,0,76,36
38129,note_on,,,,,0,0,1,,,0,72,37
38229,note_on,,,,,0,0,1,,,0,74,39
38229,note_off,,,,,100,0,1,,,0,72,64
38229,note_off,,,,,0,0,1,,,0,76,64
38229,note_off,,,,,0,0,1,,,0,81,64
38229,note_on,,,,,0,0,1,,,0,80,41
38229,note_on,,,,,0,0,1,,,0,71,35
38328,note_off,,,,,99,0,1,,,0,71,64
38328,note_off,,,,,0,0,1,,,0,74,64
38328,note_off,,,,,0,0,1,,,0,80,64
38329,note_on,,,,,1,0,1,,,0,69,42
38329,note_on,,,,,0,0,1,,,0,72,37
38329,note_on,,,,,0,0,1,,,0,81,55
38430,note_on,,,,,0,0,1,,,0,72,40
38430,note_on,,,,,0,0,1,,,0,76,48
38430,note_off,,,,,0,0,1,,,0,69,64
38430,note_off,,,,,101,0,1,,,0,72,64
38529,note_on,,,,,0,0,1,,,0,74,39
38529,note_off,,,,,0,0,1,,,0,76,64
38529,note_off,,,,,99,0,1,,,0,72,64
38529,note_on,,,,,0,0,1,,,0,71,36
38629,note_off,,,,,100,0,1,,,0,71,64
38629,note_off,,,,,0,0,1,,,0,74,64
38630,note_on,,,,,1,0,1,,,0,72,45
38630,note_on,,,,,0,0,1,,,0,69,34
38730,note_on,,,,,0,0,1,,,0,64,46
38730,note_on,,,,,0,0,1,,,0,71,41
38730,note_off,,,,,0,0,1,,,0,72,64
38730,note_off,,,,,100,0,1,,,0,69,64
38830,note_on,,,,,0,0,1,,,0,74,44
38830,note_on,,,,,0,0,1,,,0,80,40
38830,note_off,,,,,0,0,1,,,0,81,64
38830,note_off,,,,,0,0,1,,,0,71,64
38830,note_off,,,,,100,0,1,,,0,64,64
38830,note_on,,,,,0,0,1,,,0,77,35
38929,note_off,,,,,0,0,1,,,0,77,64
38929,note_off,,,,,99,0,1,,,0,74,64
38929,note_off,,,,,0,0,1,,,0,80,64
38930,note_on,,,,,0,0,1,,,0,72,41
38930,note_on,,,,,0,0,1,,,0,76,41
38930,note_on,,,,,1,0,1,,,0,81,45
39030,note_on,,,,,0,0,1,,,0,71,40
39030,note_on,,,,,0,0,1,,,0,74,42
39030,note_on,,,,,0,0,1,,,0,80,42
39030,note_off,,,,,0,0,1,,,0,81,64
39030,note_off,,,,,0,0,1,,,0,76,64
39030,note_off,,,,,100,0,1,,,0,72,64
39130,note_off,,,,,100,0,1,,,0,71,64
39130,note_off,,,,,0,0,1,,,0,74,64
39130,note_off,,,,,0,0,1,,,0,80,64
39131,note_on,,,,,1,0,1,,,0,81,55
39131,note_on,,,,,0,0,1,,,0,69,45
39131,note_on,,,,,0,0,1,,,0,72,44
39230,note_off,,,,,0,0,1,,,0,72,64
39230,note_off,,,,,99,0,1,,,0,69,64
39231,note_on,,,,,1,0,1,,,0,76,37
39231,note_on,,,,,0,0,1,,,0,72,40
39331,note_on,,,,,0,0,1,,,0,74,39
39331,note_on,,,,,0,0,1,,,0,71,39
39331,note_off,,,,,0,0,1,,,0,76,64
39331,note_off,,,,,100,0,1,,,0,72,64
39431,note_off,,,,,100,0,1,,,0,74,64
39431,note_off,,,,,0,0,1,,,0,71,64
39432,note_on,,,,,1,0,1,,,0,72,39
39432,note_on,,,,,0,0,1,,,0,69,35
39530,note_off,,,,,98,0,1,,,0,69,64
39530,note_off,,,,,0,0,1,,,0,72,64
39531,note_on,,,,,1,0,1,,,0,71,37
39531,note_on,,,,,0,0,1,,,0,64,46
39631,note_off,,,,,0,0,1,,,0,81,64
39631,note_off,,,,,100,0,1,,,0,64,64
39631,note_off,,,,,0,0,1,,,0,71,64
39631,note_on,,,,,0,0,1,,,0,77,36
39631,note_on,,,,,0,0,1,,,0,80,41
39631,note_on,,,,,0,0,1,,,0,74,40
39731,note_off,,,,,100,0,1,,,0,74,64
39731,note_off,,,,,0,0,1,,,0,80,64
39731,note_off,,,,,0,0,1,,,0,77,64
39732,note_on,,,,,1,0,1,,,0,76,44
39732,note_on,,,,,0,0,1,,,0,72,39
39732,note_on,,,,,0,0,1,,,0,81,50
39830,note_off,,,,,0,0,1,,,0,76,64
39830,note_off,,,,,0,0,1,,,0,81,64
39830,note_off,,,,,98,0,1,,,0,72,64
39831,note_on,,,,,0,0,1,,,0,71,37
39831,note_on,,,,,0,0,1,,,0,83,50
39831,note_on,,,,,1,0,1,,,0,74,44
39932,note_on,,,,,0,0,1,,,0,84,40
39932,note_on,,,,,0,0,1,,,0,69,42
39932,note_off,,,,,0,0,1,,,0,74,64
39932,note_off,,,,,101,0,1,,,0,71,64
39932,note_off,,,,,0,0,1,,,0,83,64
40032,note_off,,,,,100,0,1,,,0,84,64
40033,note_on,,,,,1,0,1,,,0,76,40
40130,note_off,,,,,0,0,1,,,0,69,64
40130,note_off,,,,,97,0,1,,,0,76,64
40132,note_on,,,,,2,0,1,,,0,75,38
40232,note_on,,,,,0,0,1,,,0,76,50
40232,note_off,,,,,100,0,1,,,0,75,64
40332,note_off,,,,,100,0,1,,,0,76,64
40334,note_on,,,,,0,0,1,,,0,57,42
40334,note_on,,,,,2,0,1,,,0,84,42
40382,note_on,,,,,0,0,1,,,0,83,48
40382,note_off,,,,,48,0,1,,,0,84,64
40431,note_off,,,,,49,0,1,,,0,83,64
40433,note_on,,,,,2,0,1,,,0,81,46
40482,note_off,,,,,49,0,1,,,0,81,64
40484,note_on,,,,,2,0,1,,,0,79,42
40533,note_on,,,,,0,0,1,,,0,69,46
40533,note_off,,,,,49,0,1,,,0,79,64
40533,note_off,,,,,0,0,1,,,0,57,64
40533,note_on,,,,,0,0,1,,,0,78,48
40632,note_off,,,,,99,0,1,,,0,78,64
40634,note_on,,,,,2,0,1,,,0,76,41
40731,note_off,,,,,97,0,1,,,0,76,64
40731,note_off,,,,,0,0,1,,,0,69,64
40732,note_on,,,,,0,0,1,,,0,59,44
40732,note_on,,,,,1,0,1,,,0,83,50
40833,note_off,,,,,101,0,1,,,0,59,64
40833,note_off,,,,,0,0,1,,,0,83,64
40833,note_on,,,,,0,0,1,,,0,74,42
40833,note_on,,,,,0,0,1,,,0,71,40
40932,note_off,,,,,0,0,1,,,0,74,64
40932,note_off,,,,,99,0,1,,,0,71,64
40933,note_on,,,,,0,0,1,,,0,69,39
40933,note_on,,,,,1,0,1,,,0,73,35
40959,note_on,,,,,0,0,1,,,0,74,33
40959,note_off,,,,,26,0,1,,,0,73,64
40983,note_on,,,,,0,0,1,,,0,73,43
40983,note_off,,,,,24,0,1,,,0,74,64
41034,note_off,,,,,0,0,1,,,0,69,64
41034,note_on,,,,,0,0,1,,,0,68,37
41034,note_on,,,,,0,0,1,,,0,71,37
41034,note_off,,,,,51,0,1,,,0,73,64
41134,note_off,,,,,100,0,1,,,0,68,64
41134,note_on,,,,,0,0,1,,,0,59,44
41134,note_on,,,,,0,0,1,,,0,81,55
41134,note_off,,,,,0,0,1,,,0,71,64
41232,note_off,,,,,0,0,1,,,0,81,64
41232,note_off,,,,,98,0,1,,,0,59,64
41234,note_on,,,,,0,0,1,,,0,73,37
41234,note_on,,,,,2,0,1,,,0,69,42
41334,note_on,,,,,0,0,1,,,0,71,35
41334,note_off,,,,,100,0,1,,,0,73,64
41334,note_on,,,,,0,0,1,,,0,68,39
41334,note_off,,,,,0,0,1,,,0,69,64
41359,note_off,,,,,25,0,1,,,0,71,64
41359,note_on,,,,,0,0,1,,,0,72,33
41383,note_off,,,,,24,0,1,,,0,72,64
41385,note_on,,,,,2,0,1,,,0,71,43
41433,note_on,,,,,0,0,1,,,0,66,35
41433,note_on,,,,,0,0,1,,,0,69,39
41433,note_off,,,,,0,0,1,,,0,68,64
41433,note_off,,,,,48,0,1,,,0,71,64
41533,note_off,,,,,0,0,1,,,0,69,64
41533,note_off,,,,,100,0,1,,,0,66,64
41536,note_on,,,,,0,0,1,,,0,59,45
41536,note_on,,,,,3,0,1,,,0,80,53
41635,note_off,,,,,0,0,1,,,0,80,64
41635,note_off,,,,,99,0,1,,,0,59,64
41635,note_on,,,,,0,0,1,,,0,71,37
41635,note_on,,,,,0,0,1,,,0,68,40
41734,note_off,,,,,0,0,1,,,0,71,64
41734,note_off,,,,,99,0,1,,,0,68,64
41736,note_on,,,,,0,0,1,,,0,66,37
41736,note_on,,,,,2,0,1,,,0,69,35
41759,note_off,,,,,23,0,1,,,0,69,64
41760,note_on,,,,,1,0,1,,,0,70,33
41784,note_on,,,,,0,0,1,,,0,69,43
41784,note_off,,,,,24,0,1,,,0,70,64
41833,note_off,,,,,49,0,1,,,0,69,64
41833,note_off,,,,,0,0,1,,,0,66,64
41834,note_on,,,,,0,0,1,,,0,64,34
41834,note_on,,,,,1,0,1,,,0,68,37
41935,note_off,,,,,101,0,1,,,0,64,64
41935,note_on,,,,,0,0,1,,,0,59,44
41935,note_on,,,,,0,0,1,,,0,78,39
41935,note_off,,,,,0,0,1,,,0,68,64
42034,note_off,,,,,0,0,1,,,0,78,64
42034,note_off,,,,,99,0,1,,,0,59,64
42036,note_on,,,,,0,0,1,,,0,66,39
42036,note_on,,,,,2,0,1,,,0,69,27
42134,note_off,,,,,0,0,1,,,0,69,64
42134,note_off,,,,,98,0,1,,,0,66,64
42135,note_on,,,,,0,0,1,,,0,64,37
42135,note_on,,,,,1,0,1,,,0,68,35
42160,note_on,,,,,0,0,1,,,0,69,33
42160,note_off,,,,,25,0,1,,,0,68,64
42185,note_off,,,,,25,0,1,,,0,69,64
42187,note_on,,,,,2,0,1,,,0,68,43
42235,note_off,,,,,0,0,1,,,0,64,64
42235,note_off,,,,,48,0,1,,,0,68,64
42235,note_on,,,,,0,0,1,,,0,63,34
42235,note_on,,,,,0,0,1,,,0,66,31
42335,note_off,,,,,100,0,1,,,0,66,64
42335,note_off,,,,,0,0,1,,,0,63,64
42336,note_on,,,,,1,0,1,,,0,68,32
42336,note_on,,,,,0,0,1,,,0,64,46
42385,note_off,,,,,49,0,1,,,0,64,64
42385,note_off,,,,,0,0,1,,,0,68,64
42385,note_on,,,,,0,0,1,,,0,69,36
42386,note_on,,,,,1,0,1,,,0,66,35
42434,note_off,,,,,48,0,1,,,0,66,64
42434,note_off,,,,,0,0,1,,,0,69,64
42435,note_on,,,,,0,0,1,,,0,68,41
42435,note_on,,,,,1,0,1,,,0,71,46
42485,note_off,,,,,0,0,1,,,0,71,64
42485,note_off,,,,,50,0,1,,,0,68,64
42486,note_on,,,,,0,0,1,,,0,69,39
42486,note_on,,,,,1,0,1,,,0,73,38
42535,note_on,,,,,0,0,1,,,0,71,42
42535,note_off,,,,,0,0,1,,,0,73,64
42535,note_off,,,,,49,0,1,,,0,69,64
42535,note_on,,,,,0,0,1,,,0,75,42
42584,note_off,,,,,0,0,1,,,0,75,64
42584,note_off,,,,,49,0,1,,,0,71,64
42585,note_on,,,,,0,0,1,,,0,69,37
42585,note_on,,,,,1,0,1,,,0,73,39
42635,note_off,,,,,0,0,1,,,0,73,64
42635,note_off,,,,,50,0,1,,,0,69,64
42636,note_on,,,,,0,0,1,,,0,68,39
42636,note_on,,,,,1,0,1,,,0,71,35
42686,note_on,,,,,0,0,1,,,0,69,32
42686,note_off,,,,,0,0,1,,,0,71,64
42686,note_off,,,,,50,0,1,,,0,68,64
42686,note_on,,,,,0,0,1,,,0,66,32
42735,note_off,,,,,49,0,1,,,0,66,64
42735,note_off,,,,,0,0,1,,,0,69,64
42736,note_on,,,,,0,0,1,,,0,68,38
42736,note_on,,,,,1,0,1,,,0,71,37
42786,note_off,,,,,0,0,1,,,0,71,64
42786,note_off,,,,,50,0,1,,,0,68,64
42787,note_on,,,,,0,0,1,,,0,69,44
42787,note_on,,,,,1,0,1,,,0,73,35
42836,note_on,,,,,0,0,1,,,0,75,33
42836,note_off,,,,,0,0,1,,,0,73,64
42836,note_off,,,,,49,0,1,,,0,69,64
42836,note_on,,,,,0,0,1,,,0,71,41
42885,note_off,,,,,0,0,1,,,0,75,64
42885,note_off,,,,,49,0,1,,,0,71,64
42886,note_on,,,,,1,0,1,,,0,76,41
42886,note_on,,,,,0,0,1,,,0,73,41
42936,note_off,,,,,50,0,1,,,0,73,64
42936,note_off,,,,,0,0,1,,,0,76,64
42937,note_on,,,,,0,0,1,,,0,75,39
42937,note_on,,,,,1,0,1,,,0,78,38
42986,note_off,,,,,49,0,1,,,0,75,64
42986,note_off,,,,,0,0,1,,,0,78,64
42986,note_on,,,,,0,0,1,,,0,76,44
42986,note_on,,,,,0,0,1,,,0,73,39
43035,note_off,,,,,49,0,1,,,0,73,64
43035,note_off,,,,,0,0,1,,,0,76,64
43037,note_on,,,,,0,0,1,,,0,71,37
43037,note_on,,,,,2,0,1,,,0,75,33
43085,note_off,,,,,0,0,1,,,0,75,64
43085,note_off,,,,,48,0,1,,,0,71,64
43087,note_on,,,,,0,0,1,,,0,69,39
43087,note_on,,,,,2,0,1,,,0,73,36
43136,note_on,,,,,0,0,1,,,0,71,35
43136,note_off,,,,,0,0,1,,,0,73,64
43136,note_off,,,,,49,0,1,,,0,69,64
43136,note_on,,,,,0,0,1,,,0,75,50
43185,note_off,,,,,0,0,1,,,0,75,64
43185,note_off,,,,,49,0,1,,,0,71,64
43187,note_on,,,,,2,0,1,,,0,73,47
43187,note_on,,,,,0,0,1,,,0,76,41
43236,note_off,,,,,49,0,1,,,0,76,64
43236,note_off,,,,,0,0,1,,,0,73,64
43238,note_on,,,,,0,0,1,,,0,75,42
43238,note_on,,,,,2,0,1,,,0,78,35
43287,note_on,,,,,0,0,1,,,0,76,51
43287,note_on,,,,,0,0,1,,,0,80,44
43287,note_off,,,,,0,0,1,,,0,78,64
43287,note_off,,,,,49,0,1,,,0,75,64
43335,note_off,,,,,0,0,1,,,0,80,64
43335,note_off,,,,,48,0,1,,,0,76,64
43337,note_on,,,,,2,0,1,,,0,81,44
43337,note_on,,,,,0,0,1,,,0,78,50
43386,note_off,,,,,0,0,1,,,0,81,64
43386,note_off,,,,,49,0,1,,,0,78,64
43388,note_on,,,,,0,0,1,,,0,76,37
43388,note_on,,,,,2,0,1,,,0,80,39
43437,note_on,,,,,0,0,1,,,0,75,35
43437,note_on,,,,,0,0,1,,,0,78,32
43437,note_off,,,,,0,0,1,,,0,80,64
43437,note_off,,,,,49,0,1,,,0,76,64
43488,note_on,,,,,0,0,1,,,0,73,34
43488,note_off,,,,,51,0,1,,,0,75,64
43488,note_off,,,,,0,0,1,,,0,78,64
43488,note_on,,,,,0,0,1,,,0,76,36
43536,note_off,,,,,48,0,1,,,0,73,64
43536,note_off,,,,,0,0,1,,,0,76,64
43537,note_on,,,,,0,0,1,,,0,75,34
43537,note_on,,,,,1,0,1,,,0,78,31
43586,note_on,,,,,0,0,1,,,0,76,37
43586,note_off,,,,,0,0,1,,,0,78,64
43586,note_on,,,,,0,0,1,,,0,73,34
43586,note_off,,,,,49,0,1,,,0,75,64
43637,note_off,,,,,51,0,1,,,0,73,64
43637,note_on,,,,,0,0,1,,,0,75,39
43637,note_on,,,,,0,0,1,,,0,78,35
43637,note_off,,,,,0,0,1,,,0,76,64
43686,note_off,,,,,0,0,1,,,0,78,64
43686,note_off,,,,,49,0,1,,,0,75,64
43687,note_on,,,,,1,0,1,,,0,80,34
43687,note_on,,,,,0,0,1,,,0,71,32
43737,note_off,,,,,50,0,1,,,0,71,64
43737,note_off,,,,,0,0,1,,,0,80,64
43737,note_on,,,,,0,0,1,,,0,76,41
43737,note_on,,,,,0,0,1,,,0,73,32
43788,note_off,,,,,51,0,1,,,0,73,64
43788,note_off,,,,,0,0,1,,,0,76,64
43788,note_on,,,,,0,0,1,,,0,75,35
43788,note_on,,,,,0,0,1,,,0,71,41
43837,note_off,,,,,49,0,1,,,0,71,64
43837,note_off,,,,,0,0,1,,,0,75,64
43839,note_on,,,,,2,0,1,,,0,76,37
43839,note_on,,,,,0,0,1,,,0,73,35
43887,note_off,,,,,48,0,1,,,0,73,64
43887,note_off,,,,,0,0,1,,,0,76,64
43887,note_on,,,,,0,0,1,,,0,78,37
43888,note_on,,,,,1,0,1,,,0,66,34
43938,note_off,,,,,50,0,1,,,0,66,64
43938,note_off,,,,,0,0,1,,,0,78,64
43938,note_on,,,,,0,0,1,,,0,75,39
43938,note_on,,,,,0,0,1,,,0,71,44
43987,note_off,,,,,49,0,1,,,0,71,64
43987,note_off,,,,,0,0,1,,,0,75,64
43989,note_on,,,,,2,0,1,,,0,76,38
43989,note_on,,,,,0,0,1,,,0,73,39
44038,note_off,,,,,49,0,1,,,0,73,64
44038,note_off,,,,,0,0,1,,,0,76,64
44038,note_on,,,,,0,0,1,,,0,78,34
44038,note_on,,,,,0,0,1,,,0,75,42
44088,note_on,,,,,0,0,1,,,0,71,47
44088,note_on,,,,,0,0,1,,,0,75,39
44088,note_off,,,,,0,0,1,,,0,78,64
44088,note_off,,,,,50,0,1,,,0,75,64
44136,note_off,,,,,0,0,1,,,0,75,64
44136,note_off,,,,,48,0,1,,,0,71,64
44137,note_on,,,,,0,0,1,,,0,76,42
44137,note_on,,,,,1,0,1,,,0,73,37
44187,note_on,,,,,0,0,1,,,0,75,37
44187,note_off,,,,,50,0,1,,,0,76,64
44187,note_on,,,,,0,0,1,,,0,71,51
44187,note_off,,,,,0,0,1,,,0,73,64
44238,note_off,,,,,0,0,1,,,0,75,64
44238,note_off,,,,,51,0,1,,,0,71,64
44238,note_on,,,,,0,0,1,,,0,76,37
44238,note_on,,,,,0,0,1,,,0,73,39
44287,note_off,,,,,49,0,1,,,0,73,64
44287,note_off,,,,,0,0,1,,,0,76,64
44288,note_on,,,,,1,0,1,,,0,78,39
44288,note_on,,,,,0,0,1,,,0,66,32
44338,note_off,,,,,50,0,1,,,0,66,64
44338,note_off,,,,,0,0,1,,,0,78,64
44339,note_on,,,,,1,0,1,,,0,75,39
44339,note_on,,,,,0,0,1,,,0,71,37
44389,note_off,,,,,50,0,1,,,0,71,64
44389,note_off,,,,,0,0,1,,,0,75,64
44389,note_on,,,,,0,0,1,,,0,73,35
44389,note_on,,,,,0,0,1,,,0,76,44
44437,note_off,,,,,0,0,1,,,0,76,64
44437,note_off,,,,,48,0,1,,,0,73,64
44439,note_on,,,,,0,0,1,,,0,75,32
44439,note_on,,,,,2,0,1,,,0,78,42
44488,note_off,,,,,0,0,1,,,0,78,64
44488,note_off,,,,,49,0,1,,,0,75,64
44490,note_on,,,,,0,0,1,,,0,71,35
44490,note_on,,,,,2,0,1,,,0,75,42
44539,note_off,,,,,49,0,1,,,0,71,64
44540,note_off,,,,,1,0,1,,,0,75,64
44540,note_on,,,,,0,0,1,,,0,76,37
44540,note_on,,,,,0,0,1,,,0,73,34
44588,note_off,,,,,0,0,1,,,0,76,64
44588,note_off,,,,,48,0,1,,,0,73,64
44589,note_on,,,,,0,0,1,,,0,71,44
44589,note_on,,,,,1,0,1,,,0,75,38
44639,note_off,,,,,0,0,1,,,0,75,64
44639,note_off,,,,,50,0,1,,,0,71,64
44640,note_on,,,,,1,0,1,,,0,76,44
44640,note_on,,,,,0,0,1,,,0,73,35
44688,note_on,,,,,0,0,1,,,0,66,34
44688,note_on,,,,,0,0,1,,,0,78,41
44688,note_off,,,,,0,0,1,,,0,76,64
44688,note_off,,,,,48,0,1,,,0,73,64
44737,note_off,,,,,0,0,1,,,0,78,64
44737,note_off,,,,,49,0,1,,,0,66,64
44740,note_on,,,,,0,0,1,,,0,71,44
44740,note_on,,,,,3,0,1,,,0,83,60
44839,note_on,,,,,0,0,1,,,0,71,39
44839,note_off,,,,,99,0,1,,,0,71,64
44939,note_off,,,,,100,0,1,,,0,71,64
44941,note_on,,,,,2,0,1,,,0,71,25
45038,note_off,,,,,0,0,1,,,0,83,64
45038,note_off,,,,,97,0,1,,,0,71,64
45039,note_on,,,,,0,0,1,,,0,81,57
45039,note_on,,,,,1,0,1,,,0,71,30
45140,note_off,,,,,101,0,1,,,0,81,64
45140,note_on,,,,,0,0,1,,,0,71,37
45140,note_on,,,,,0,0,1,,,0,80,48
45140,note_off,,,,,0,0,1,,,0,71,64
45239,note_off,,,,,0,0,1,,,0,80,64
45239,note_off,,,,,99,0,1,,,0,71,64
45240,note_on,,,,,0,0,1,,,0,71,32
45240,note_on,,,,,1,0,1,,,0,77,48
45338,note_off,,,,,98,0,1,,,0,71,64
45338,note_off,,,,,0,0,1,,,0,77,64
45339,note_on,,,,,1,0,1,,,0,76,44
45339,note_on,,,,,0,0,1,,,0,71,37
45440,note_off,,,,,101,0,1,,,0,71,64
45440,note_off,,,,,0,0,1,,,0,76,64
45440,note_on,,,,,0,0,1,,,0,71,34
45440,note_on,,,,,0,0,1,,,0,74,42
45539,note_off,,,,,0,0,1,,,0,74,64
45539,note_off,,,,,99,0,1,,,0,71,64
45541,note_on,,,,,0,0,1,,,0,72,37
45541,note_on,,,,,0,0,1,,,0,71,40
45541,note_on,,,,,2,0,1,,,0,83,57
45639,note_off,,,,,0,0,1,,,0,83,64
45639,note_off,,,,,98,0,1,,,0,72,64
45639,note_off,,,,,0,0,1,,,0,71,64
45640,note_on,,,,,0,0,1,,,0,72,30
45640,note_on,,,,,1,0,1,,,0,84,43
45640,note_on,,,,,0,0,1,,,0,69,25
45690,note_off,,,,,50,0,1,,,0,84,64
45741,note_on,,,,,0,0,1,,,0,72,25
45741,note_on,,,,,0,0,1,,,0,69,27
45741,note_on,,,,,0,0,1,,,0,80,38
45741,note_off,,,,,0,0,1,,,0,72,64
45741,note_off,,,,,51,0,1,,,0,69,64
45840,note_on,,,,,0,0,1,,,0,81,44
45840,note_off,,,,,0,0,1,,,0,69,64
45840,note_off,,,,,99,0,1,,,0,72,64
45840,note_on,,,,,0,0,1,,,0,69,25
45840,note_on,,,,,0,0,1,,,0,72,27
45840,note_off,,,,,0,0,1,,,0,80,64
45939,note_off,,,,,99,0,1,,,0,69,64
45939,note_off,,,,,0,0,1,,,0,81,64
45939,note_off,,,,,0,0,1,,,0,72,64
45940,note_on,,,,,0,0,1,,,0,72,28
45940,note_on,,,,,0,0,1,,,0,69,33
45940,note_on,,,,,1,0,1,,,0,76,46
46040,note_on,,,,,0,0,1,,,0,77,41
46040,note_on,,,,,0,0,1,,,0,69,31
46040,note_on,,,,,0,0,1,,,0,72,29
46040,note_off,,,,,0,0,1,,,0,76,64
46040,note_off,,,,,0,0,1,,,0,69,64
46040,note_off,,,,,100,0,1,,,0,72,64
46140,note_off,,,,,0,0,1,,,0,72,64
46140,note_off,,,,,100,0,1,,,0,77,64
46140,note_off,,,,,0,0,1,,,0,69,64
46141,note_on,,,,,1,0,1,,,0,75,38
46141,note_on,,,,,0,0,1,,,0,72,29
46141,note_on,,,,,0,0,1,,,0,69,29
46242,note_on,,,,,0,0,1,,,0,69,31
46242,note_off,,,,,101,0,1,,,0,69,64
46242,note_off,,,,,0,0,1,,,0,72,64
46242,note_off,,,,,0,0,1,,,0,75,64
46242,note_on,,,,,0,0,1,,,0,76,41
46242,note_on,,,,,0,0,1,,,0,72,29
46341,note_on,,,,,0,0,1,,,0,82,55
46341,note_off,,,,,0,0,1,,,0,72,64
46341,note_off,,,,,0,0,1,,,0,76,64
46341,note_on,,,,,0,0,1,,,0,71,42
46341,note_off,,,,,99,0,1,,,0,69,64
46341,note_on,,,,,0,0,1,,,0,69,42
46440,note_off,,,,,0,0,1,,,0,82,64
46440,note_off,,,,,0,0,1,,,0,69,64
46440,note_off,,,,,99,0,1,,,0,71,64
46441,note_on,,,,,0,0,1,,,0,71,27
46441,note_on,,,,,1,0,1,,,0,83,48
46441,note_on,,,,,0,0,1,,,0,67,23
46491,note_off,,,,,50,0,1,,,0,83,64
46542,note_on,,,,,0,0,1,,,0,71,27
46542,note_off,,,,,51,0,1,,,0,67,64
46542,note_off,,,,,0,0,1,,,0,71,64
46542,note_on,,,,,0,0,1,,,0,78,39
46542,note_on,,,,,0,0,1,,,0,67,32
46641,note_off,,,,,99,0,1,,,0,71,64
46641,note_off,,,,,0,0,1,,,0,67,64
46641,note_off,,,,,0,0,1,,,0,78,64
46641,note_on,,,,,0,0,1,,,0,79,41
46641,note_on,,,,,0,0,1,,,0,67,30
46641,note_on,,,,,0,0,1,,,0,71,27
46741,note_off,,,,,0,0,1,,,0,79,64
46741,note_off,,,,,0,0,1,,,0,67,64
46741,note_off,,,,,100,0,1,,,0,71,64
46742,note_on,,,,,0,0,1,,,0,67,35
46742,note_on,,,,,0,0,1,,,0,71,34
46742,note_on,,,,,1,0,1,,,0,75,37
46842,note_off,,,,,100,0,1,,,0,67,64
46842,note_on,,,,,0,0,1,,,0,67,31
46842,note_on,,,,,0,0,1,,,0,76,48
46842,note_off,,,,,0,0,1,,,0,75,64
46842,note_off,,,,,0,0,1,,,0,71,64
46843,note_on,,,,,1,0,1,,,0,71,27
46942,note_off,,,,,0,0,1,,,0,76,64
46942,note_off,,,,,0,0,1,,,0,67,64
46942,note_off,,,,,99,0,1,,,0,71,64
46943,note_on,,,,,0,0,1,,,0,71,38
46943,note_on,,,,,1,0,1,,,0,67,34
47041,note_off,,,,,0,0,1,,,0,67,64
47041,note_off,,,,,98,0,1,,,0,71,64
47043,note_on,,,,,0,0,1,,,0,67,31
47043,note_on,,,,,2,0,1,,,0,72,40
47142,note_off,,,,,0,0,1,,,0,72,64
47142,note_on,,,,,0,0,1,,,0,69,30
47142,note_on,,,,,0,0,1,,,0,67,33
47142,note_on,,,,,0,0,1,,,0,80,47
47142,note_off,,,,,99,0,1,,,0,67,64
47242,note_off,,,,,0,0,1,,,0,80,64
47242,note_off,,,,,0,0,1,,,0,67,64
47242,note_off,,,,,100,0,1,,,0,69,64
47243,note_on,,,,,0,0,1,,,0,66,26
47243,note_on,,,,,1,0,1,,,0,81,41
47293,note_off,,,,,50,0,1,,,0,81,64
47342,note_off,,,,,49,0,1,,,0,66,64
47344,note_on,,,,,0,0,1,,,0,66,31
47344,note_on,,,,,0,0,1,,,0,69,27
47344,note_on,,,,,2,0,1,,,0,76,32
47443,note_off,,,,,99,0,1,,,0,69,64
47443,note_off,,,,,0,0,1,,,0,66,64
47443,note_off,,,,,0,0,1,,,0,76,64
47443,note_on,,,,,0,0,1,,,0,78,42
47443,note_on,,,,,0,0,1,,,0,66,29
47443,note_on,,,,,0,0,1,,,0,69,28
47543,note_off,,,,,0,0,1,,,0,66,64
47543,note_off,,,,,100,0,1,,,0,69,64
47543,note_off,,,,,0,0,1,,,0,78,64
47544,note_on,,,,,1,0,1,,,0,73,42
47544,note_on,,,,,0,0,1,,,0,66,30
47544,note_on,,,,,0,0,1,,,0,69,28
47642,note_off,,,,,98,0,1,,,0,69,64
47642,note_off,,,,,0,0,1,,,0,66,64
47642,note_off,,,,,0,0,1,,,0,73,64
47643,note_on,,,,,0,0,1,,,0,69,26
47643,note_on,,,,,0,0,1,,,0,66,30
47643,note_on,,,,,1,0,1,,,0,76,40
47743,note_on,,,,,0,0,1,,,0,69,28
47743,note_on,,,,,0,0,1,,,0,75,39
47743,note_off,,,,,0,0,1,,,0,76,64
47743,note_off,,,,,0,0,1,,,0,66,64
47743,note_off,,,,,100,0,1,,,0,69,64
47743,note_on,,,,,0,0,1,,,0,66,31
47843,note_off,,,,,0,0,1,,,0,66,64
47843,note_off,,,,,100,0,1,,,0,69,64
47843,note_off,,,,,0,0,1,,,0,75,64
47844,note_on,,,,,0,0,1,,,0,69,25
47844,note_on,,,,,0,0,1,,,0,66,27
47844,note_on,,,,,1,0,1,,,0,78,44
47942,note_off,,,,,0,0,1,,,0,78,64
47942,note_off,,,,,0,0,1,,,0,66,64
47942,note_off,,,,,98,0,1,,,0,69,64
47943,note_on,,,,,0,0,1,,,0,79,48
47943,note_on,,,,,1,0,1,,,0,64,38
47994,note_off,,,,,51,0,1,,,0,79,64
47995,note_on,,,,,1,0,1,,,0,71,41
48044,note_off,,,,,0,0,1,,,0,64,64
48044,note_off,,,,,49,0,1,,,0,71,64
48044,note_on,,,,,0,0,1,,,0,72,39
48044,note_on,,,,,0,0,1,,,0,63,31
48093,note_off,,,,,49,0,1,,,0,72,64
48095,note_on,,,,,2,0,1,,,0,74,50
48144,note_on,,,,,0,0,1,,,0,64,34
48144,note_on,,,,,0,0,1,,,0,72,48
48144,note_off,,,,,0,0,1,,,0,63,64
48144,note_off,,,,,49,0,1,,,0,74,64
48242,note_off,,,,,98,0,1,,,0,64,64
48244,note_on,,,,,2,0,1,,,0,66,31
48293,note_off,,,,,49,0,1,,,0,72,64
48295,note_on,,,,,2,0,1,,,0,71,41
48318,note_off,,,,,23,0,1,,,0,71,64
48320,note_on,,,,,2,0,1,,,0,70,39
48344,note_on,,,,,0,0,1,,,0,67,36
48344,note_on,,,,,0,0,1,,,0,71,46
48344,note_off,,,,,0,0,1,,,0,66,64
48344,note_off,,,,,24,0,1,,,0,70,64
48393,note_off,,,,,49,0,1,,,0,71,64
48395,note_on,,,,,2,0,1,,,0,73,41
48419,note_on,,,,,0,0,1,,,0,74,39
48419,note_off,,,,,24,0,1,,,0,73,64
48444,note_off,,,,,0,0,1,,,0,67,64
48444,note_off,,,,,25,0,1,,,0,74,64
48446,note_on,,,,,2,0,1,,,0,76,41
48446,note_on,,,,,0,0,1,,,0,66,32
48494,note_off,,,,,48,0,1,,,0,76,64
48494,note_on,,,,,0,0,1,,,0,78,48
48545,note_off,,,,,0,0,1,,,0,66,64
48545,note_off,,,,,51,0,1,,,0,78,64
48545,note_on,,,,,0,0,1,,,0,76,45
48545,note_on,,,,,0,0,1,,,0,67,35
48570,note_off,,,,,25,0,1,,,0,76,64
48570,note_on,,,,,0,0,1,,,0,78,42
48594,note_off,,,,,24,0,1,,,0,78,64
48596,note_on,,,,,2,0,1,,,0,76,46
48620,note_off,,,,,24,0,1,,,0,76,64
48620,note_on,,,,,0,0,1,,,0,78,42
48645,note_off,,,,,25,0,1,,,0,78,64
48645,note_off,,,,,0,0,1,,,0,67,64
48645,note_on,,,,,0,0,1,,,0,76,48
48645,note_on,,,,,0,0,1,,,0,69,28
48669,note_off,,,,,24,0,1,,,0,76,64
48671,note_on,,,,,2,0,1,,,0,78,42
48696,note_on,,,,,0,0,1,,,0,74,48
48696,note_off,,,,,25,0,1,,,0,78,64
48720,note_on,,,,,0,0,1,,,0,73,46
48720,note_off,,,,,24,0,1,,,0,74,64
48744,note_off,,,,,0,0,1,,,0,69,64
48744,note_off,,,,,24,0,1,,,0,73,64
48745,note_on,,,,,0,0,1,,,0,71,41
48745,note_on,,,,,1,0,1,,,0,74,47
48794,note_on,,,,,0,0,1,,,0,76,47
48794,note_off,,,,,49,0,1,,,0,74,64
48819,note_off,,,,,25,0,1,,,0,76,64
48821,note_on,,,,,2,0,1,,,0,78,44
48845,note_on,,,,,0,0,1,,,0,69,37
48845,note_on,,,,,0,0,1,,,0,79,44
48845,note_off,,,,,0,0,1,,,0,71,64
48845,note_off,,,,,24,0,1,,,0,78,64
48894,note_off,,,,,49,0,1,,,0,79,64
48896,note_on,,,,,2,0,1,,,0,81,48
48945,note_off,,,,,0,0,1,,,0,69,64
48945,note_on,,,,,0,0,1,,,0,79,48
48945,note_on,,,,,0,0,1,,,0,71,39
48945,note_off,,,,,49,0,1,,,0,81,64
48969,note_off,,,,,24,0,1,,,0,79,64
48971,note_on,,,,,2,0,1,,,0,80,43
48995,note_off,,,,,24,0,1,,,0,80,64
48995,note_on,,,,,0,0,1,,,0,79,48
49020,note_on,,,,,0,0,1,,,0,80,43
49020,note_off,,,,,25,0,1,,,0,79,64
49044,note_off,,,,,24,0,1,,,0,80,64
49044,note_off,,,,,0,0,1,,,0,71,64
49045,note_on,,,,,0,0,1,,,0,73,35
49045,note_on,,,,,1,0,1,,,0,79,52
49071,note_off,,,,,26,0,1,,,0,79,64
49071,note_on,,,,,0,0,1,,,0,80,43
49095,note_off,,,,,24,0,1,,,0,80,64
49095,note_on,,,,,0,0,1,,,0,78,49
49120,note_off,,,,,25,0,1,,,0,78,64
49122,note_on,,,,,2,0,1,,,0,76,46
49146,note_off,,,,,24,0,1,,,0,76,64
49146,note_off,,,,,0,0,1,,,0,73,64
49146,note_on,,,,,0,0,1,,,0,78,49
49146,note_on,,,,,0,0,1,,,0,74,36
49195,note_off,,,,,49,0,1,,,0,78,64
49197,note_on,,,,,2,0,1,,,0,80,51
49246,note_on,,,,,0,0,1,,,0,73,32
49246,note_on,,,,,0,0,1,,,0,82,53
49246,note_off,,,,,0,0,1,,,0,74,64
49246,note_off,,,,,49,0,1,,,0,80,64
49296,note_on,,,,,0,0,1,,,0,83,53
49296,note_off,,,,,50,0,1,,,0,82,64
49344,note_off,,,,,0,0,1,,,0,73,64
49344,note_off,,,,,48,0,1,,,0,83,64
49346,note_on,,,,,0,0,1,,,0,74,39
49346,note_on,,,,,2,0,1,,,0,82,55
49371,note_on,,,,,0,0,1,,,0,83,52
49371,note_off,,,,,25,0,1,,,0,82,64
49395,note_off,,,,,24,0,1,,,0,83,64
49397,note_on,,,,,2,0,1,,,0,82,48
49446,note_on,,,,,0,0,1,,,0,76,29
49446,note_off,,,,,49,0,1,,,0,74,64
49495,note_off,,,,,49,0,1,,,0,82,64
49497,note_on,,,,,2,0,1,,,0,80,37
49546,note_off,,,,,0,0,1,,,0,76,64
49546,note_off,,,,,49,0,1,,,0,80,64
49547,note_on,,,,,1,0,1,,,0,82,44
49547,note_on,,,,,0,0,1,,,0,78,53
49596,note_on,,,,,0,0,1,,,0,76,38
49596,note_on,,,,,0,0,1,,,0,80,41
49596,note_off,,,,,0,0,1,,,0,82,64
49596,note_off,,,,,49,0,1,,,0,78,64
49645,note_off,,,,,0,0,1,,,0,80,64
49645,note_off,,,,,49,0,1,,,0,76,64
49646,note_on,,,,,1,0,1,,,0,78,41
49648,note_on,,,,,2,0,1,,,0,75,40
49696,note_off,,,,,0,0,1,,,0,78,64
49696,note_off,,,,,48,0,1,,,0,75,64
49697,note_on,,,,,0,0,1,,,0,73,46
49697,note_on,,,,,1,0,1,,,0,76,41
49747,note_off,,,,,0,0,1,,,0,76,64
49747,note_on,,,,,0,0,1,,,0,71,39
49747,note_on,,,,,0,0,1,,,0,75,41
49747,note_off,,,,,50,0,1,,,0,73,64
49796,note_off,,,,,49,0,1,,,0,71,64
49796,note_off,,,,,0,0,1,,,0,75,64
49797,note_on,,,,,0,0,1,,,0,70,33
49797,note_on,,,,,1,0,1,,,0,73,44
49846,note_off,,,,,0,0,1,,,0,73,64
49846,note_off,,,,,49,0,1,,,0,70,64
49847,note_on,,,,,0,0,1,,,0,68,36
49847,note_on,,,,,1,0,1,,,0,71,41
49896,note_on,,,,,0,0,1,,,0,66,39
49896,note_off,,,,,0,0,1,,,0,71,64
49896,note_off,,,,,49,0,1,,,0,68,64
49896,note_on,,,,,0,0,1,,,0,70,41
49945,note_off,,,,,0,0,1,,,0,66,64
49945,note_off,,,,,49,0,1,,,0,70,64
49947,note_on,,,,,0,0,1,,,0,68,43
49947,note_on,,,,,2,0,1,,,0,71,51
49996,note_off,,,,,49,0,1,,,0,71,64
49998,note_on,,,,,2,0,1,,,0,73,42
50047,note_on,,,,,0,0,1,,,0,68,39
50047,note_off,,,,,49,0,1,,,0,73,64
50047,note_off,,,,,0,0,1,,,0,68,64
50047,note_on,,,,,0,0,1,,,0,75,46
50096,note_off,,,,,49,0,1,,,0,75,64
50098,note_on,,,,,2,0,1,,,0,76,58
50146,note_off,,,,,48,0,1,,,0,76,64
50146,note_off,,,,,0,0,1,,,0,68,64
50147,note_on,,,,,1,0,1,,,0,78,44
50147,note_on,,,,,0,0,1,,,0,70,43
50197,note_on,,,,,0,0,1,,,0,75,45
50197,note_off,,,,,50,0,1,,,0,78,64
50246,note_off,,,,,0,0,1,,,0,70,64
50246,note_off,,,,,49,0,1,,,0,75,64
50248,note_on,,,,,2,0,1,,,0,76,51
50248,note_on,,,,,0,0,1,,,0,66,36
50297,note_off,,,,,49,0,1,,,0,76,64
50299,note_on,,,,,2,0,1,,,0,73,46
50348,note_on,,,,,0,0,1,,,0,75,48
50348,note_off,,,,,49,0,1,,,0,73,64
50348,note_off,,,,,0,0,1,,,0,66,64
50348,note_on,,,,,0,0,1,,,0,71,40
50396,note_off,,,,,48,0,1,,,0,75,64
50399,note_on,,,,,3,0,1,,,0,71,41
50447,note_off,,,,,48,0,1,,,0,71,64
50447,note_off,,,,,0,0,1,,,0,71,64
50448,note_on,,,,,1,0,1,,,0,76,48
50448,note_on,,,,,0,0,1,,,0,64,34
50497,note_off,,,,,49,0,1,,,0,76,64
50497,note_on,,,,,0,0,1,,,0,73,40
50546,note_off,,,,,0,0,1,,,0,64,64
50546,note_off,,,,,49,0,1,,,0,73,64
50547,note_on,,,,,0,0,1,,,0,66,37
50547,note_on,,,,,1,0,1,,,0,75,46
50597,note_off,,,,,50,0,1,,,0,75,64
50599,note_on,,,,,2,0,1,,,0,71,41
50647,note_on,,,,,0,0,1,,,0,54,41
50647,note_off,,,,,48,0,1,,,0,71,64
50647,note_off,,,,,0,0,1,,,0,66,64
50647,note_on,,,,,0,0,1,,,0,73,39
50696,note_off,,,,,49,0,1,,,0,73,64
50698,note_on,,,,,2,0,1,,,0,70,41
50747,note_off,,,,,0,0,1,,,0,54,64
50747,note_off,,,,,49,0,1,,,0,70,64
50748,note_on,,,,,0,0,1,,,0,83,66
50748,note_on,,,,,1,0,1,,,0,47,47
50798,note_on,,,,,0,0,1,,,0,78,41
50798,note_off,,,,,50,0,1,,,0,83,64
50847,note_off,,,,,49,0,1,,,0,78,64
50849,note_on,,,,,2,0,1,,,0,75,34
50898,note_off,,,,,49,0,1,,,0,75,64
50900,note_on,,,,,2,0,1,,,0,71,40
50948,note_off,,,,,0,0,1,,,0,47,64
50948,note_off,,,,,48,0,1,,,0,71,64
50949,note_on,,,,,0,0,1,,,0,47,51
50949,note_on,,,,,1,0,1,,,0,78,61
50949,note_on,,,,,0,0,1,,,0,35,51
50998,note_off,,,,,49,0,1,,,0,78,64
50999,note_on,,,,,1,0,1,,,0,75,53
51048,note_off,,,,,49,0,1,,,0,75,64
51049,note_on,,,,,1,0,1,,,0,71,49
51098,note_on,,,,,0,0,1,,,0,66,44
51098,note_off,,,,,49,0,1,,,0,71,64
51149,note_on,,,,,0,0,1,,,0,35,51
51149,note_off,,,,,51,0,1,,,0,66,64
51149,note_off,,,,,0,0,1,,,0,35,64
51149,note_off,,,,,0,0,1,,,0,47,64
51149,note_on,,,,,0,0,1,,,0,75,56
51149,note_on,,,,,0,0,1,,,0,47,48
51198,note_off,,,,,49,0,1,,,0,75,64
51200,note_on,,,,,2,0,1,,,0,71,44
51248,note_off,,,,,48,0,1,,,0,71,64
51248,note_on,,,,,0,0,1,,,0,66,43
51299,note_off,,,,,51,0,1,,,0,66,64
51299,note_on,,,,,0,0,1,,,0,63,40
51348,note_off,,,,,0,0,1,,,0,47,64
51348,note_off,,,,,0,0,1,,,0,35,64
51348,note_off,,,,,49,0,1,,,0,63,64
51349,note_on,,,,,0,0,1,,,0,35,51
51349,note_on,,,,,0,0,1,,,0,47,53
51349,note_on,,,,,1,0,1,,,0,71,49
51399,note_on,,,,,0,0,1,,,0,66,39
51399,note_off,,,,,50,0,1,,,0,71,64
51449,note_on,,,,,0,0,1,,,0,63,44
51449,note_off,,,,,50,0,1,,,0,66,64
51498,note_off,,,,,49,0,1,,,0,63,64
51500,note_on,,,,,2,0,1,,,0,59,50
51549,note_off,,,,,49,0,1,,,0,59,64
51549,note_off,,,,,0,0,1,,,0,35,64
51549,note_on,,,,,0,0,1,,,0,35,51
51549,note_on,,,,,0,0,1,,,0,47,54
51549,note_on,,,,,0,0,1,,,0,59,51
51549,note_off,,,,,0,0,1,,,0,47,64
51573,note_off,,,,,24,0,1,,,0,59,64
51576,note_on,,,,,3,0,1,,,0,61,45
51600,note_off,,,,,24,0,1,,,0,61,64
51600,note_on,,,,,0,0,1,,,0,59,48
51624,note_on,,,,,0,0,1,,,0,61,42
51624,note_off,,,,,24,0,1,,,0,59,64
51648,note_off,,,,,24,0,1,,,0,61,64
51650,note_on,,,,,2,0,1,,,0,59,36
51749,note_off,,,,,0,0,1,,,0,47,64
51749,note_off,,,,,0,0,1,,,0,35,64
51749,note_off,,,,,99,0,1,,,0,59,64
51951,note_on,,,,,0,0,1,,,0,71,35
51951,note_on,,,,,0,0,1,,,0,78,67
51951,note_on,,,,,202,0,1,,,0,75,44
52150,note_off,,,,,0,0,1,,,0,78,64
52150,note_off,,,,,199,0,1,,,0,71,64
52150,note_off,,,,,0,0,1,,,0,75,64
52151,note_on,,,,,0,0,1,,,0,71,47
52151,note_on,,,,,0,0,1,,,0,76,50
52151,note_on,,,,,1,0,1,,,0,80,58
52350,note_on,,,,,0,0,1,,,0,78,51
52350,note_on,,,,,0,0,1,,,0,75,47
52350,note_off,,,,,0,0,1,,,0,80,64
52350,note_off,,,,,0,0,1,,,0,76,64
52350,note_off,,,,,199,0,1,,,0,71,64
52351,note_on,,,,,1,0,1,,,0,71,48
52351,note_on,,,,,0,0,1,,,0,59,37
52450,note_off,,,,,99,0,1,,,0,59,64
52452,note_on,,,,,2,0,1,,,0,47,44
52549,note_off,,,,,0,0,1,,,0,71,64
52549,note_off,,,,,0,0,1,,,0,78,64
52549,note_off,,,,,0,0,1,,,0,75,64
52549,note_off,,,,,97,0,1,,,0,47,64
52550,note_on,,,,,1,0,1,,,0,47,35
52651,note_off,,,,,101,0,1,,,0,47,64
52651,note_on,,,,,0,0,1,,,0,47,30
52751,note_off,,,,,100,0,1,,,0,47,64
52752,note_on,,,,,1,0,1,,,0,71,44
52752,note_on,,,,,0,0,1,,,0,75,48
52752,note_on,,,,,0,0,1,,,0,78,51
52752,note_on,,,,,0,0,1,,,0,81,65
52951,note_on,,,,,0,0,1,,,0,71,43
52951,note_off,,,,,0,0,1,,,0,78,64
52951,note_off,,,,,0,0,1,,,0,75,64
52951,note_off,,,,,0,0,1,,,0,71,64
52951,note_on,,,,,0,0,1,,,0,80,57
52951,note_on,,,,,0,0,1,,,0,76,51
52951,note_off,,,,,199,0,1,,,0,81,64
53150,note_off,,,,,199,0,1,,,0,71,64
53150,note_off,,,,,0,0,1,,,0,76,64
53150,note_off,,,,,0,0,1,,,0,80,64
53151,note_on,,,,,1,0,1,,,0,75,47
53151,note_on,,,,,0,0,1,,,0,78,52
53151,note_on,,,,,0,0,1,,,0,71,44
53151,note_on,,,,,0,0,1,,,0,47,34
53252,note_off,,,,,101,0,1,,,0,47,64
53252,note_on,,,,,0,0,1,,,0,35,37
53351,note_off,,,,,0,0,1,,,0,75,64
53351,note_off,,,,,0,0,1,,,0,71,64
53351,note_off,,,,,0,0,1,,,0,78,64
53351,note_off,,,,,99,0,1,,,0,35,64
53352,note_on,,,,,1,0,1,,,0,35,39
53450,note_off,,,,,98,0,1,,,0,35,64
53452,note_on,,,,,2,0,1,,,0,35,39
53552,note_on,,,,,0,0,1,,,0,75,50
53552,note_on,,,,,0,0,1,,,0,71,38
53552,note_on,,,,,0,0,1,,,0,78,53
53552,note_on,,,,,0,0,1,,,0,83,65
53552,note_off,,,,,100,0,1,,,0,35,64
53753,note_on,,,,,0,0,1,,,0,78,51
53753,note_on,,,,,0,0,1,,,0,75,39
53753,note_off,,,,,0,0,1,,,0,83,64
53753,note_off,,,,,0,0,1,,,0,78,64
53753,note_off,,,,,0,0,1,,,0,75,64
53753,note_off,,,,,201,0,1,,,0,71,64
53753,note_on,,,,,0,0,1,,,0,81,56
53753,note_on,,,,,0,0,1,,,0,71,39
53952,note_off,,,,,0,0,1,,,0,75,64
53952,note_off,,,,,199,0,1,,,0,81,64
53952,note_off,,,,,0,0,1,,,0,78,64
53952,note_off,,,,,0,0,1,,,0,71,64
53952,note_on,,,,,0,0,1,,,0,80,53
53952,note_on,,,,,0,0,1,,,0,76,48
53952,note_on,,,,,0,0,1,,,0,71,35
53952,note_on,,,,,0,0,1,,,0,64,41
54053,note_on,,,,,0,0,1,,,0,52,39
54053,note_off,,,,,101,0,1,,,0,64,64
54153,note_off,,,,,100,0,1,,,0,52,64
54153,note_off,,,,,0,0,1,,,0,71,64
54153,note_off,,,,,0,0,1,,,0,76,64
54153,note_off,,,,,0,0,1,,,0,80,64
54153,note_on,,,,,0,0,1,,,0,52,35
54252,note_off,,,,,99,0,1,,,0,52,64
54254,note_on,,,,,2,0,1,,,0,52,33
54354,note_on,,,,,0,0,1,,,0,74,39
54354,note_on,,,,,0,0,1,,,0,83,53
54354,note_off,,,,,100,0,1,,,0,52,64
54552,note_off,,,,,0,0,1,,,0,83,64
54552,note_off,,,,,198,0,1,,,0,74,64
54553,note_on,,,,,0,0,1,,,0,81,45
54553,note_on,,,,,1,0,1,,,0,72,38
54578,note_on,,,,,0,0,1,,,0,82,42
54578,note_off,,,,,25,0,1,,,0,81,64
54603,note_off,,,,,25,0,1,,,0,82,64
54605,note_on,,,,,2,0,1,,,0,81,48
54729,note_on,,,,,124,0,1,,,0,81,52
54753,note_off,,,,,0,0,1,,,0,81,64
54753,note_off,,,,,0,0,1,,,0,72,64
54753,note_off,,,,,24,0,1,,,0,81,64
54754,note_on,,,,,0,0,1,,,0,52,36
54754,note_on,,,,,0,0,1,,,0,71,20
54754,note_on,,,,,1,0,1,,,0,80,37
54853,note_off,,,,,99,0,1,,,0,52,64
54855,note_on,,,,,2,0,1,,,0,40,37
54954,note_off,,,,,0,0,1,,,0,71,64
54954,note_off,,,,,99,0,1,,,0,40,64
54955,note_off,,,,,1,0,1,,,0,80,64
54955,note_on,,,,,0,0,1,,,0,40,32
55054,note_off,,,,,99,0,1,,,0,40,64
55056,note_on,,,,,2,0,1,,,0,40,30
55153,note_off,,,,,97,0,1,,,0,40,64
55155,note_on,,,,,0,0,1,,,0,64,41
55155,note_on,,,,,2,0,1,,,0,83,44
55254,note_on,,,,,0,0,1,,,0,71,27
55254,note_off,,,,,0,0,1,,,0,83,64
55254,note_off,,,,,99,0,1,,,0,64,64
55254,note_on,,,,,0,0,1,,,0,74,40
55354,note_off,,,,,100,0,1,,,0,71,64
55356,note_off,,,,,2,0,1,,,0,74,64
55356,note_on,,,,,0,0,1,,,0,72,46
55356,note_on,,,,,0,0,1,,,0,69,39
55378,note_off,,,,,22,0,1,,,0,72,64
55381,note_on,,,,,3,0,1,,,0,73,44
55405,note_on,,,,,0,0,1,,,0,72,37
55405,note_off,,,,,24,0,1,,,0,73,64
55454,note_off,,,,,49,0,1,,,0,69,64
55456,note_on,,,,,0,0,1,,,0,71,37
55456,note_off,,,,,2,0,1,,,0,72,64
55456,note_on,,,,,0,0,1,,,0,68,41
55555,note_on,,,,,0,0,1,,,0,64,46
55555,note_on,,,,,0,0,1,,,0,84,62
55555,note_off,,,,,0,0,1,,,0,71,64
55555,note_off,,,,,99,0,1,,,0,68,64
55655,note_off,,,,,100,0,1,,,0,64,64
55656,note_on,,,,,0,0,1,,,0,76,48
55656,note_on,,,,,0,0,1,,,0,72,33
55656,note_off,,,,,1,0,1,,,0,84,64
55754,note_off,,,,,98,0,1,,,0,72,64
55756,note_on,,,,,0,0,1,,,0,71,41
55756,note_on,,,,,0,0,1,,,0,74,46
55756,note_off,,,,,2,0,1,,,0,76,64
55780,note_on,,,,,0,0,1,,,0,75,44
55780,note_off,,,,,24,0,1,,,0,74,64
55804,note_off,,,,,24,0,1,,,0,75,64
55807,note_on,,,,,3,0,1,,,0,74,47
55855,note_on,,,,,0,0,1,,,0,69,34
55855,note_off,,,,,48,0,1,,,0,74,64
55855,note_off,,,,,0,0,1,,,0,71,64
55855,note_on,,,,,0,0,1,,,0,72,35
55955,note_off,,,,,100,0,1,,,0,69,64
55957,note_off,,,,,2,0,1,,,0,72,64
55957,note_on,,,,,0,0,1,,,0,83,57
55957,note_on,,,,,0,0,1,,,0,64,46
56054,note_off,,,,,97,0,1,,,0,64,64
56057,note_on,,,,,0,0,1,,,0,77,50
56057,note_off,,,,,3,0,1,,,0,83,64
56057,note_on,,,,,0,0,1,,,0,74,41
56156,note_on,,,,,0,0,1,,,0,72,40
56156,note_on,,,,,0,0,1,,,0,76,46
56156,note_off,,,,,99,0,1,,,0,74,64
56156,note_off,,,,,0,0,1,,,0,77,64
56181,note_off,,,,,25,0,1,,,0,76,64
56183,note_on,,,,,2,0,1,,,0,77,44
56205,note_off,,,,,22,0,1,,,0,77,64
56207,note_on,,,,,2,0,1,,,0,76,48
56256,note_off,,,,,49,0,1,,,0,72,64
56257,note_off,,,,,1,0,1,,,0,76,64
56257,note_on,,,,,0,0,1,,,0,74,46
56257,note_on,,,,,0,0,1,,,0,71,41
56356,note_on,,,,,0,0,1,,,0,64,41
56356,note_off,,,,,99,0,1,,,0,71,64
56356,note_off,,,,,0,0,1,,,0,74,64
56356,note_on,,,,,0,0,1,,,0,81,55
56456,note_off,,,,,100,0,1,,,0,64,64
56456,note_off,,,,,0,0,1,,,0,81,64
56456,note_on,,,,,0,0,1,,,0,76,47
56456,note_on,,,,,0,0,1,,,0,72,27
56556,note_off,,,,,100,0,1,,,0,72,64
56558,note_off,,,,,2,0,1,,,0,76,64
56558,note_on,,,,,0,0,1,,,0,71,31
56558,note_on,,,,,0,0,1,,,0,74,46
56582,note_on,,,,,0,0,1,,,0,75,44
56582,note_off,,,,,24,0,1,,,0,74,64
56606,note_on,,,,,0,0,1,,,0,74,43
56606,note_off,,,,,24,0,1,,,0,75,64
56657,note_on,,,,,0,0,1,,,0,69,26
56657,note_on,,,,,0,0,1,,,0,72,41
56657,note_off,,,,,0,0,1,,,0,71,64
56657,note_off,,,,,51,0,1,,,0,74,64
56757,note_off,,,,,0,0,1,,,0,72,64
56757,note_on,,,,,0,0,1,,,0,64,37
56757,note_on,,,,,0,0,1,,,0,83,51
56757,note_off,,,,,100,0,1,,,0,69,64
56808,note_on,,,,,0,0,1,,,0,81,46
56808,note_off,,,,,51,0,1,,,0,83,64
56858,note_on,,,,,0,0,1,,,0,80,46
56858,note_off,,,,,50,0,1,,,0,81,64
56906,note_on,,,,,0,0,1,,,0,77,41
56906,note_off,,,,,48,0,1,,,0,80,64
56957,note_on,,,,,0,0,1,,,0,56,31
56957,note_on,,,,,0,0,1,,,0,76,41
56957,note_off,,,,,0,0,1,,,0,64,64
56957,note_off,,,,,51,0,1,,,0,77,64
57008,note_on,,,,,0,0,1,,,0,74,40
57008,note_off,,,,,51,0,1,,,0,76,64
57057,note_on,,,,,0,0,1,,,0,72,41
57057,note_off,,,,,49,0,1,,,0,74,64
57108,note_on,,,,,0,0,1,,,0,71,29
57108,note_off,,,,,51,0,1,,,0,72,64
57156,note_off,,,,,48,0,1,,,0,56,64
57158,note_on,,,,,0,0,1,,,0,45,41
57158,note_off,,,,,2,0,1,,,0,71,64
57158,note_on,,,,,0,0,1,,,0,71,41
57258,note_off,,,,,100,0,1,,,0,45,64
57258,note_on,,,,,0,0,1,,,0,52,47
57358,note_off,,,,,100,0,1,,,0,52,64
57360,note_on,,,,,2,0,1,,,0,57,41
57456,note_off,,,,,96,0,1,,,0,57,64
57456,note_off,,,,,0,0,1,,,0,71,64
57458,note_on,,,,,2,0,1,,,0,72,44
57558,note_on,,,,,0,0,1,,,0,81,50
57558,note_off,,,,,100,0,1,,,0,72,64
57607,note_off,,,,,49,0,1,,,0,81,64
57609,note_on,,,,,2,0,1,,,0,83,47
57658,note_off,,,,,49,0,1,,,0,83,64
57660,note_on,,,,,2,0,1,,,0,84,48
57660,note_on,,,,,0,0,1,,,0,76,41
57660,note_on,,,,,0,0,1,,,0,72,46
57757,note_off,,,,,97,0,1,,,0,72,64
57757,note_off,,,,,0,0,1,,,0,76,64
57758,note_on,,,,,0,0,1,,,0,71,51
57758,note_on,,,,,1,0,1,,,0,75,41
57859,note_on,,,,,0,0,1,,,0,69,48
57859,note_on,,,,,0,0,1,,,0,76,44
57859,note_off,,,,,0,0,1,,,0,75,64
57859,note_off,,,,,101,0,1,,,0,71,64
57959,note_off,,,,,0,0,1,,,0,84,64
57959,note_off,,,,,100,0,1,,,0,69,64
57959,note_off,,,,,0,0,1,,,0,76,64
57960,note_on,,,,,1,0,1,,,0,78,41
58009,note_off,,,,,49,0,1,,,0,78,64
58009,note_on,,,,,0,0,1,,,0,80,40
58057,note_off,,,,,48,0,1,,,0,80,64
58059,note_on,,,,,0,0,1,,,0,69,42
58059,note_on,,,,,0,0,1,,,0,72,42
58059,note_on,,,,,2,0,1,,,0,81,51
58159,note_on,,,,,0,0,1,,,0,67,44
58159,note_on,,,,,0,0,1,,,0,71,41
58159,note_off,,,,,0,0,1,,,0,72,64
58159,note_off,,,,,100,0,1,,,0,69,64
58258,note_off,,,,,0,0,1,,,0,71,64
58258,note_off,,,,,99,0,1,,,0,67,64
58260,note_on,,,,,0,0,1,,,0,66,37
58260,note_on,,,,,2,0,1,,,0,72,40
58358,note_off,,,,,98,0,1,,,0,66,64
58358,note_off,,,,,0,0,1,,,0,81,64
58358,note_off,,,,,0,0,1,,,0,72,64
58359,note_on,,,,,1,0,1,,,0,75,42
58409,note_off,,,,,50,0,1,,,0,75,64
58411,note_on,,,,,2,0,1,,,0,76,47
58460,note_on,,,,,0,0,1,,,0,66,41
58460,note_on,,,,,0,0,1,,,0,69,33
58460,note_on,,,,,0,0,1,,,0,78,42
58460,note_off,,,,,49,0,1,,,0,76,64
58559,note_off,,,,,99,0,1,,,0,66,64
58559,note_off,,,,,0,0,1,,,0,69,64
58560,note_on,,,,,1,0,1,,,0,67,40
58560,note_on,,,,,0,0,1,,,0,64,26
58658,note_off,,,,,0,0,1,,,0,67,64
58658,note_off,,,,,98,0,1,,,0,64,64
58659,note_on,,,,,0,0,1,,,0,63,39
58659,note_on,,,,,1,0,1,,,0,66,40
58760,note_on,,,,,0,0,1,,,0,64,28
58760,note_on,,,,,0,0,1,,,0,67,32
58760,note_off,,,,,0,0,1,,,0,78,64
58760,note_off,,,,,101,0,1,,,0,63,64
58760,note_off,,,,,0,0,1,,,0,66,64
58810,note_off,,,,,50,0,1,,,0,67,64
58810,note_on,,,,,0,0,1,,,0,70,32
58859,note_off,,,,,49,0,1,,,0,70,64
58859,note_off,,,,,0,0,1,,,0,64,64
58860,note_on,,,,,0,0,1,,,0,64,37
58860,note_on,,,,,1,0,1,,,0,71,34
58860,note_on,,,,,0,0,1,,,0,67,24
58961,note_off,,,,,101,0,1,,,0,67,64
58961,note_off,,,,,0,0,1,,,0,64,64
58961,note_on,,,,,0,0,1,,,0,67,33
58961,note_on,,,,,0,0,1,,,0,64,35
59010,note_off,,,,,49,0,1,,,0,71,64
59012,note_on,,,,,2,0,1,,,0,75,34
59060,note_off,,,,,48,0,1,,,0,75,64
59060,note_off,,,,,0,0,1,,,0,64,64
59061,note_off,,,,,1,0,1,,,0,67,64
59061,note_on,,,,,0,0,1,,,0,76,35
59061,note_on,,,,,0,0,1,,,0,64,43
59061,note_on,,,,,0,0,1,,,0,67,28
59160,note_off,,,,,99,0,1,,,0,67,64
59160,note_off,,,,,0,0,1,,,0,64,64
59161,note_on,,,,,0,0,1,,,0,67,18
59161,note_on,,,,,1,0,1,,,0,64,29
59210,note_on,,,,,0,0,1,,,0,78,35
59210,note_off,,,,,49,0,1,,,0,76,64
59261,note_off,,,,,51,0,1,,,0,78,64
59261,note_on,,,,,0,0,1,,,0,64,31
59261,note_on,,,,,0,0,1,,,0,67,18
59261,note_on,,,,,0,0,1,,,0,79,37
59261,note_off,,,,,0,0,1,,,0,67,64
59261,note_off,,,,,0,0,1,,,0,64,64
59360,note_on,,,,,0,0,1,,,0,64,31
59360,note_on,,,,,0,0,1,,,0,67,25
59360,note_off,,,,,0,0,1,,,0,64,64
59360,note_off,,,,,99,0,1,,,0,67,64
59411,note_on,,,,,0,0,1,,,0,82,37
59411,note_off,,,,,51,0,1,,,0,79,64
59460,note_off,,,,,0,0,1,,,0,64,64
59460,note_off,,,,,0,0,1,,,0,67,64
59460,note_off,,,,,49,0,1,,,0,82,64
59461,note_on,,,,,0,0,1,,,0,83,44
59461,note_on,,,,,0,0,1,,,0,67,25
59461,note_on,,,,,1,0,1,,,0,64,33
59562,note_on,,,,,0,0,1,,,0,62,25
59562,note_off,,,,,0,0,1,,,0,64,64
59562,note_off,,,,,101,0,1,,,0,67,64
59562,note_on,,,,,0,0,1,,,0,66,22
59610,note_off,,,,,48,0,1,,,0,83,64
59613,note_on,,,,,3,0,1,,,0,70,32
59661,note_off,,,,,0,0,1,,,0,62,64
59661,note_off,,,,,48,0,1,,,0,70,64
59661,note_off,,,,,0,0,1,,,0,66,64
59662,note_on,,,,,1,0,1,,,0,71,37
59662,note_on,,,,,0,0,1,,,0,66,22
59662,note_on,,,,,0,0,1,,,0,62,29
59760,note_off,,,,,98,0,1,,,0,62,64
59760,note_off,,,,,0,0,1,,,0,66,64
59762,note_on,,,,,2,0,1,,,0,62,31
59762,note_on,,,,,0,0,1,,,0,66,25
59811,note_off,,,,,49,0,1,,,0,71,64
59813,note_on,,,,,2,0,1,,,0,73,31
59861,note_off,,,,,48,0,1,,,0,73,64
59861,note_off,,,,,0,0,1,,,0,66,64
59861,note_on,,,,,0,0,1,,,0,62,29
59861,note_on,,,,,0,0,1,,,0,66,24
59861,note_on,,,,,0,0,1,,,0,74,39
59861,note_off,,,,,0,0,1,,,0,62,64
59961,note_off,,,,,0,0,1,,,0,66,64
59961,note_off,,,,,100,0,1,,,0,62,64
59963,note_on,,,,,0,0,1,,,0,62,32
59963,note_on,,,,,2,0,1,,,0,66,25
60012,note_on,,,,,0,0,1,,,0,77,42
60012,note_off,,,,,49,0,1,,,0,74,64
60061,note_off,,,,,0,0,1,,,0,62,64
60061,note_off,,,,,49,0,1,,,0,77,64
60061,note_off,,,,,0,0,1,,,0,66,64
60062,note_on,,,,,0,0,1,,,0,62,24
60062,note_on,,,,,0,0,1,,,0,66,21
60062,note_on,,,,,1,0,1,,,0,78,41
60162,note_on,,,,,0,0,1,,,0,62,34
60162,note_on,,,,,0,0,1,,,0,66,25
60162,note_off,,,,,0,0,1,,,0,66,64
60162,note_off,,,,,100,0,1,,,0,62,64
60211,note_off,,,,,49,0,1,,,0,78,64
60213,note_on,,,,,2,0,1,,,0,82,33
60262,note_off,,,,,49,0,1,,,0,82,64
60262,note_off,,,,,0,0,1,,,0,66,64
60262,note_off,,,,,0,0,1,,,0,62,64
60263,note_on,,,,,1,0,1,,,0,83,37
60263,note_on,,,,,0,0,1,,,0,62,35
60263,note_on,,,,,0,0,1,,,0,66,31
60361,note_off,,,,,0,0,1,,,0,66,64
60361,note_off,,,,,98,0,1,,,0,62,64
60362,note_on,,,,,0,0,1,,,0,64,30
60362,note_on,,,,,1,0,1,,,0,60,31
60411,note_off,,,,,49,0,1,,,0,83,64
60414,note_on,,,,,3,0,1,,,0,68,32
60462,note_on,,,,,0,0,1,,,0,64,31
60462,note_on,,,,,0,0,1,,,0,60,27
60462,note_off,,,,,0,0,1,,,0,60,64
60462,note_off,,,,,48,0,1,,,0,68,64
60462,note_off,,,,,0,0,1,,,0,64,64
60462,note_on,,,,,0,0,1,,,0,69,37
60562,note_off,,,,,0,0,1,,,0,60,64
60562,note_off,,,,,100,0,1,,,0,64,64
60563,note_on,,,,,0,0,1,,,0,64,30
60563,note_on,,,,,1,0,1,,,0,60,22
60613,note_on,,,,,0,0,1,,,0,71,37
60613,note_off,,,,,50,0,1,,,0,69,64
60662,note_off,,,,,0,0,1,,,0,60,64
60662,note_off,,,,,0,0,1,,,0,64,64
60662,note_off,,,,,49,0,1,,,0,71,64
60663,note_on,,,,,0,0,1,,,0,60,27
60663,note_on,,,,,1,0,1,,,0,72,41
60663,note_on,,,,,0,0,1,,,0,64,29
60763,note_off,,,,,100,0,1,,,0,60,64
60763,note_on,,,,,0,0,1,,,0,60,31
60763,note_on,,,,,0,0,1,,,0,64,28
60763,note_off,,,,,0,0,1,,,0,64,64
60812,note_off,,,,,49,0,1,,,0,72,64
60814,note_on,,,,,2,0,1,,,0,75,35
60863,note_off,,,,,0,0,1,,,0,64,64
60863,note_off,,,,,49,0,1,,,0,75,64
60863,note_off,,,,,0,0,1,,,0,60,64
60864,note_on,,,,,0,0,1,,,0,60,30
60864,note_on,,,,,0,0,1,,,0,64,26
60864,note_on,,,,,1,0,1,,,0,76,33
60961,note_off,,,,,0,0,1,,,0,64,64
60961,note_off,,,,,97,0,1,,,0,60,64
60963,note_on,,,,,2,0,1,,,0,64,28
60964,note_on,,,,,1,0,1,,,0,60,30
61012,note_off,,,,,48,0,1,,,0,76,64
61014,note_on,,,,,2,0,1,,,0,80,37
61063,note_on,,,,,0,0,1,,,0,60,27
61063,note_off,,,,,49,0,1,,,0,80,64
61063,note_off,,,,,0,0,1,,,0,60,64
61063,note_off,,,,,0,0,1,,,0,64,64
61063,note_on,,,,,0,0,1,,,0,81,39
61063,note_on,,,,,0,0,1,,,0,64,30
61163,note_off,,,,,100,0,1,,,0,60,64
61163,note_off,,,,,0,0,1,,,0,64,64
61164,note_on,,,,,1,0,1,,,0,59,44
61262,note_off,,,,,98,0,1,,,0,59,64
61262,note_off,,,,,0,0,1,,,0,81,64
61264,note_on,,,,,2,0,1,,,0,73,39
61264,note_on,,,,,0,0,1,,,0,69,43
61364,note_on,,,,,0,0,1,,,0,71,46
61364,note_on,,,,,0,0,1,,,0,68,37
61364,note_off,,,,,100,0,1,,,0,69,64
61364,note_off,,,,,0,0,1,,,0,73,64
61388,note_off,,,,,24,0,1,,,0,71,64
61391,note_on,,,,,3,0,1,,,0,73,44
61415,note_on,,,,,0,0,1,,,0,71,40
61415,note_off,,,,,24,0,1,,,0,73,64
61464,note_off,,,,,0,0,1,,,0,68,64
61464,note_off,,,,,49,0,1,,,0,71,64
61465,note_on,,,,,0,0,1,,,0,66,34
61465,note_on,,,,,1,0,1,,,0,69,40
61564,note_on,,,,,0,0,1,,,0,59,35
61564,note_on,,,,,0,0,1,,,0,80,48
61564,note_off,,,,,0,0,1,,,0,69,64
61564,note_off,,,,,99,0,1,,,0,66,64
61664,note_on,,,,,0,0,1,,,0,71,43
61664,note_off,,,,,0,0,1,,,0,80,64
61664,note_off,,,,,100,0,1,,,0,59,64
61664,note_on,,,,,0,0,1,,,0,68,36
61763,note_off,,,,,0,0,1,,,0,71,64
61763,note_off,,,,,99,0,1,,,0,68,64
61765,note_on,,,,,0,0,1,,,0,66,34
61765,note_on,,,,,2,0,1,,,0,69,46
61790,note_on,,,,,0,0,1,,,0,71,44
61790,note_off,,,,,25,0,1,,,0,69,64
61814,note_off,,,,,24,0,1,,,0,71,64
61814,note_on,,,,,0,0,1,,,0,69,43
61865,note_on,,,,,0,0,1,,,0,68,38
61865,note_off,,,,,0,0,1,,,0,66,64
61865,note_off,,,,,51,0,1,,,0,69,64
61865,note_on,,,,,0,0,1,,,0,64,41
61965,note_on,,,,,0,0,1,,,0,78,50
61965,note_off,,,,,100,0,1,,,0,64,64
61965,note_off,,,,,0,0,1,,,0,68,64
61965,note_on,,,,,0,0,1,,,0,59,34
62064,note_off,,,,,99,0,1,,,0,59,64
62064,note_off,,,,,0,0,1,,,0,78,64
62064,note_on,,,,,0,0,1,,,0,69,39
62064,note_on,,,,,0,0,1,,,0,66,32
62165,note_off,,,,,101,0,1,,,0,66,64
62165,note_off,,,,,0,0,1,,,0,69,64
62165,note_on,,,,,0,0,1,,,0,68,46
62165,note_on,,,,,0,0,1,,,0,64,27
62189,note_off,,,,,24,0,1,,,0,68,64
62189,note_on,,,,,0,0,1,,,0,69,44
62214,note_off,,,,,25,0,1,,,0,69,64
62216,note_on,,,,,2,0,1,,,0,68,36
62265,note_off,,,,,0,0,1,,,0,64,64
62265,note_off,,,,,49,0,1,,,0,68,64
62266,note_on,,,,,0,0,1,,,0,63,33
62266,note_on,,,,,1,0,1,,,0,66,35
62364,note_off,,,,,0,0,1,,,0,66,64
62364,note_off,,,,,98,0,1,,,0,63,64
62366,note_on,,,,,0,0,1,,,0,76,47
62366,note_on,,,,,2,0,1,,,0,59,42
62466,note_off,,,,,0,0,1,,,0,59,64
62466,note_off,,,,,100,0,1,,,0,76,64
62466,note_on,,,,,0,0,1,,,0,68,39
62466,note_on,,,,,0,0,1,,,0,64,37
62565,note_off,,,,,0,0,1,,,0,68,64
62565,note_off,,,,,99,0,1,,,0,64,64
62567,note_on,,,,,0,0,1,,,0,63,34
62567,note_on,,,,,2,0,1,,,0,66,46
62590,note_off,,,,,23,0,1,,,0,66,64
62592,note_on,,,,,2,0,1,,,0,68,44
62616,note_off,,,,,24,0,1,,,0,68,64
62616,note_on,,,,,0,0,1,,,0,66,37
62664,note_off,,,,,0,0,1,,,0,63,64
62664,note_off,,,,,48,0,1,,,0,66,64
62665,note_on,,,,,1,0,1,,,0,64,39
62665,note_on,,,,,0,0,1,,,0,61,37
62766,note_on,,,,,0,0,1,,,0,59,39
62766,note_on,,,,,0,0,1,,,0,63,38
62766,note_off,,,,,0,0,1,,,0,64,64
62766,note_off,,,,,101,0,1,,,0,61,64
62815,note_off,,,,,49,0,1,,,0,63,64
62817,note_on,,,,,0,0,1,,,0,61,37
62817,note_on,,,,,0,0,1,,,0,64,40
62817,note_off,,,,,2,0,1,,,0,59,64
62865,note_off,,,,,48,0,1,,,0,64,64
62867,note_on,,,,,0,0,1,,,0,66,37
62867,note_off,,,,,2,0,1,,,0,61,64
62868,note_on,,,,,1,0,1,,,0,63,41
62917,note_on,,,,,0,0,1,,,0,64,42
62917,note_on,,,,,0,0,1,,,0,68,39
62917,note_off,,,,,0,0,1,,,0,66,64
62917,note_off,,,,,49,0,1,,,0,63,64
62965,note_off,,,,,48,0,1,,,0,68,64
62967,note_on,,,,,0,0,1,,,0,66,38
62967,note_on,,,,,0,0,1,,,0,69,41
62967,note_off,,,,,2,0,1,,,0,64,64
63016,note_off,,,,,49,0,1,,,0,69,64
63018,note_on,,,,,0,0,1,,,0,71,46
63018,note_on,,,,,0,0,1,,,0,68,39
63018,note_off,,,,,2,0,1,,,0,66,64
63067,note_on,,,,,0,0,1,,,0,73,41
63067,note_off,,,,,49,0,1,,,0,68,64
63067,note_off,,,,,0,0,1,,,0,71,64
63067,note_on,,,,,0,0,1,,,0,69,44
63115,note_off,,,,,48,0,1,,,0,73,64
63118,note_off,,,,,3,0,1,,,0,69,64
63118,note_on,,,,,0,0,1,,,0,75,41
63118,note_on,,,,,0,0,1,,,0,71,57
63166,note_off,,,,,48,0,1,,,0,75,64
63168,note_off,,,,,2,0,1,,,0,71,64
63168,note_on,,,,,0,0,1,,,0,76,47
63168,note_on,,,,,0,0,1,,,0,73,44
63216,note_off,,,,,48,0,1,,,0,73,64
63216,note_off,,,,,0,0,1,,,0,76,64
63216,note_on,,,,,0,0,1,,,0,71,43
63216,note_on,,,,,0,0,1,,,0,75,38
63265,note_off,,,,,49,0,1,,,0,75,64
63267,note_on,,,,,0,0,1,,,0,69,41
63267,note_on,,,,,0,0,1,,,0,73,41
63267,note_off,,,,,2,0,1,,,0,71,64
63316,note_off,,,,,49,0,1,,,0,73,64
63318,note_off,,,,,2,0,1,,,0,69,64
63318,note_on,,,,,0,0,1,,,0,68,38
63318,note_on,,,,,0,0,1,,,0,71,44
63366,note_off,,,,,0,0,1,,,0,68,64
63366,note_on,,,,,0,0,1,,,0,66,40
63366,note_off,,,,,48,0,1,,,0,71,64
63366,note_on,,,,,0,0,1,,,0,69,39
63415,note_off,,,,,49,0,1,,,0,69,64
63417,note_on,,,,,0,0,1,,,0,64,37
63417,note_on,,,,,0,0,1,,,0,68,30
63417,note_off,,,,,2,0,1,,,0,66,64
63466,note_off,,,,,49,0,1,,,0,68,64
63468,note_on,,,,,0,0,1,,,0,66,25
63468,note_on,,,,,0,0,1,,,0,63,33
63468,note_off,,,,,2,0,1,,,0,64,64
63517,note_on,,,,,0,0,1,,,0,61,34
63517,note_on,,,,,0,0,1,,,0,64,39
63517,note_off,,,,,0,0,1,,,0,66,64
63517,note_off,,,,,49,0,1,,,0,63,64
63566,note_off,,,,,49,0,1,,,0,64,64
63568,note_on,,,,,0,0,1,,,0,59,39
63568,note_on,,,,,0,0,1,,,0,63,38
63568,note_off,,,,,2,0,1,,,0,61,64
63617,note_off,,,,,49,0,1,,,0,63,64
63619,note_off,,,,,2,0,1,,,0,59,64
63619,note_on,,,,,0,0,1,,,0,64,32
63619,note_on,,,,,0,0,1,,,0,61,30
63667,note_off,,,,,48,0,1,,,0,61,64
63667,note_off,,,,,0,0,1,,,0,64,64
63667,note_on,,,,,0,0,1,,,0,66,37
63667,note_on,,,,,0,0,1,,,0,63,31
63716,note_off,,,,,49,0,1,,,0,66,64
63718,note_off,,,,,2,0,1,,,0,63,64
63718,note_on,,,,,0,0,1,,,0,68,40
63718,note_on,,,,,0,0,1,,,0,64,41
63767,note_off,,,,,49,0,1,,,0,68,64
63768,note_off,,,,,1,0,1,,,0,64,64
63768,note_on,,,,,0,0,1,,,0,69,41
63768,note_on,,,,,0,0,1,,,0,66,40
63817,note_on,,,,,0,0,1,,,0,68,39
63817,note_on,,,,,0,0,1,,,0,71,47
63817,note_off,,,,,0,0,1,,,0,69,64
63817,note_off,,,,,49,0,1,,,0,66,64
63866,note_off,,,,,49,0,1,,,0,71,64
63868,note_on,,,,,0,0,1,,,0,69,41
63868,note_on,,,,,0,0,1,,,0,73,44
63868,note_off,,,,,2,0,1,,,0,68,64
63917,note_off,,,,,49,0,1,,,0,73,64
63918,note_on,,,,,0,0,1,,,0,71,55
63918,note_off,,,,,1,0,1,,,0,69,64
63918,note_on,,,,,0,0,1,,,0,75,48
63967,note_on,,,,,0,0,1,,,0,76,44
63967,note_off,,,,,0,0,1,,,0,75,64
63967,note_off,,,,,49,0,1,,,0,71,64
63968,note_on,,,,,1,0,1,,,0,73,41
64018,note_on,,,,,0,0,1,,,0,71,47
64018,note_on,,,,,0,0,1,,,0,75,41
64018,note_off,,,,,0,0,1,,,0,76,64
64018,note_off,,,,,50,0,1,,,0,73,64
64067,note_off,,,,,49,0,1,,,0,75,64
64069,note_off,,,,,2,0,1,,,0,71,64
64069,note_on,,,,,0,0,1,,,0,69,46
64069,note_on,,,,,0,0,1,,,0,73,44
64118,note_off,,,,,49,0,1,,,0,69,64
64118,note_on,,,,,0,0,1,,,0,68,37
64118,note_on,,,,,0,0,1,,,0,71,46
64118,note_off,,,,,0,0,1,,,0,73,64
64169,note_on,,,,,0,0,1,,,0,66,39
64169,note_on,,,,,0,0,1,,,0,69,44
64169,note_off,,,,,0,0,1,,,0,71,64
64169,note_off,,,,,51,0,1,,,0,68,64
64214,note_on,,,,,0,0,1,,,0,68,32
64214,note_off,,,,,45,0,1,,,0,66,64
64214,note_on,,,,,0,0,1,,,0,64,37
64214,note_off,,,,,0,0,1,,,0,69,64
64268,note_off,,,,,54,0,1,,,0,64,64
64268,note_off,,,,,0,0,1,,,0,68,64
64268,note_on,,,,,0,0,1,,,0,63,32
64268,note_on,,,,,0,0,1,,,0,66,23
64319,note_on,,,,,0,0,1,,,0,64,37
64319,note_on,,,,,0,0,1,,,0,61,22
64319,note_off,,,,,0,0,1,,,0,66,64
64319,note_off,,,,,51,0,1,,,0,63,64
64368,note_off,,,,,49,0,1,,,0,64,64
64369,note_on,,,,,0,0,1,,,0,59,41
64369,note_off,,,,,1,0,1,,,0,61,64
64369,note_on,,,,,0,0,1,,,0,63,40
64418,note_off,,,,,0,0,1,,,0,63,64
64418,note_off,,,,,49,0,1,,,0,59,64
64418,note_on,,,,,0,0,1,,,0,64,41
64418,note_on,,,,,0,0,1,,,0,61,39
64468,note_on,,,,,0,0,1,,,0,63,34
64468,note_on,,,,,0,0,1,,,0,66,39
64468,note_off,,,,,0,0,1,,,0,64,64
64468,note_off,,,,,50,0,1,,,0,61,64
64517,note_off,,,,,49,0,1,,,0,66,64
64519,note_on,,,,,0,0,1,,,0,68,39
64519,note_off,,,,,2,0,1,,,0,63,64
64519,note_on,,,,,0,0,1,,,0,64,41
64568,note_on,,,,,0,0,1,,,0,66,39
64568,note_on,,,,,0,0,1,,,0,69,47
64568,note_off,,,,,0,0,1,,,0,68,64
64568,note_off,,,,,49,0,1,,,0,64,64
64619,note_on,,,,,0,0,1,,,0,68,36
64619,note_on,,,,,0,0,1,,,0,71,54
64619,note_off,,,,,0,0,1,,,0,69,64
64619,note_off,,,,,51,0,1,,,0,66,64
64668,note_off,,,,,49,0,1,,,0,71,64
64670,note_on,,,,,0,0,1,,,0,69,42
64670,note_on,,,,,0,0,1,,,0,73,50
64670,note_off,,,,,2,0,1,,,0,68,64
64719,note_off,,,,,0,0,1,,,0,73,64
64719,note_off,,,,,49,0,1,,,0,69,64
64719,note_on,,,,,0,0,1,,,0,75,48
64719,note_on,,,,,0,0,1,,,0,71,49
64769,note_on,,,,,0,0,1,,,0,73,42
64769,note_off,,,,,50,0,1,,,0,71,64
64769,note_off,,,,,0,0,1,,,0,75,64
64769,note_on,,,,,0,0,1,,,0,76,57
64818,note_off,,,,,49,0,1,,,0,76,64
64820,note_off,,,,,2,0,1,,,0,73,64
64820,note_on,,,,,0,0,1,,,0,75,46
64820,note_on,,,,,0,0,1,,,0,71,43
64869,note_off,,,,,49,0,1,,,0,75,64
64871,note_on,,,,,0,0,1,,,0,73,45
64871,note_off,,,,,2,0,1,,,0,71,64
64871,note_on,,,,,0,0,1,,,0,69,41
64920,note_on,,,,,0,0,1,,,0,68,37
64920,note_on,,,,,0,0,1,,,0,71,44
64920,note_off,,,,,49,0,1,,,0,69,64
64920,note_off,,,,,0,0,1,,,0,73,64
64968,note_off,,,,,48,0,1,,,0,71,64
64970,note_on,,,,,0,0,1,,,0,66,35
64970,note_on,,,,,0,0,1,,,0,69,54
64970,note_off,,,,,2,0,1,,,0,68,64
65018,note_off,,,,,48,0,1,,,0,69,64
65021,note_off,,,,,3,0,1,,,0,66,64
65021,note_on,,,,,0,0,1,,,0,68,43
65021,note_on,,,,,0,0,1,,,0,64,38
65069,note_on,,,,,0,0,1,,,0,63,28
65069,note_off,,,,,48,0,1,,,0,64,64
65069,note_off,,,,,0,0,1,,,0,68,64
65069,note_on,,,,,0,0,1,,,0,66,41
65118,note_off,,,,,49,0,1,,,0,66,64
65120,note_off,,,,,2,0,1,,,0,63,64
65120,note_on,,,,,0,0,1,,,0,64,49
65120,note_on,,,,,0,0,1,,,0,61,38
65169,note_off,,,,,49,0,1,,,0,64,64
65171,note_off,,,,,2,0,1,,,0,61,64
65171,note_on,,,,,0,0,1,,,0,63,48
65171,note_on,,,,,0,0,1,,,0,59,54
65220,note_on,,,,,0,0,1,,,0,66,42
65220,note_off,,,,,49,0,1,,,0,63,64
65269,note_off,,,,,49,0,1,,,0,66,64
65270,note_on,,,,,0,0,1,,,0,71,44
65270,note_on,,,,,0,0,1,,,0,57,48
65270,note_off,,,,,1,0,1,,,0,59,64
65319,note_off,,,,,49,0,1,,,0,71,64
65321,note_on,,,,,2,0,1,,,0,63,39
65370,note_on,,,,,0,0,1,,,0,56,47
65370,note_on,,,,,0,0,1,,,0,64,47
65370,note_off,,,,,0,0,1,,,0,57,64
65370,note_off,,,,,49,0,1,,,0,63,64
65419,note_off,,,,,49,0,1,,,0,64,64
65421,note_on,,,,,2,0,1,,,0,66,37
65470,note_off,,,,,49,0,1,,,0,66,64
65472,note_on,,,,,0,0,1,,,0,57,46
65472,note_on,,,,,0,0,1,,,0,68,40
65472,note_off,,,,,2,0,1,,,0,56,64
65520,note_on,,,,,0,0,1,,,0,69,46
65520,note_off,,,,,48,0,1,,,0,68,64
65568,note_off,,,,,48,0,1,,,0,69,64
65570,note_off,,,,,2,0,1,,,0,57,64
65570,note_on,,,,,0,0,1,,,0,59,43
65570,note_on,,,,,0,0,1,,,0,68,44
65619,note_off,,,,,49,0,1,,,0,68,64
65621,note_on,,,,,2,0,1,,,0,69,49
65670,note_on,,,,,0,0,1,,,0,71,51
65670,note_off,,,,,49,0,1,,,0,69,64
65719,note_off,,,,,49,0,1,,,0,71,64
65721,note_on,,,,,2,0,1,,,0,69,44
65770,note_off,,,,,49,0,1,,,0,69,64
65772,note_on,,,,,0,0,1,,,0,68,43
65772,note_off,,,,,2,0,1,,,0,59,64
65772,note_on,,,,,0,0,1,,,0,47,48
65820,note_off,,,,,48,0,1,,,0,68,64
65820,note_on,,,,,0,0,1,,,0,66,44
65869,note_off,,,,,49,0,1,,,0,66,64
65871,note_on,,,,,2,0,1,,,0,64,46
65920,note_off,,,,,49,0,1,,,0,64,64
65922,note_on,,,,,2,0,1,,,0,63,43
65971,note_off,,,,,49,0,1,,,0,63,64
65971,note_off,,,,,0,0,1,,,0,47,64
65971,note_on,,,,,0,0,1,,,0,64,51
65971,note_on,,,,,0,0,1,,,0,52,54
66020,note_off,,,,,49,0,1,,,0,64,64
66022,note_on,,,,,2,0,1,,,0,68,38
66071,note_off,,,,,49,0,1,,,0,68,64
66072,note_on,,,,,1,0,1,,,0,71,47
66121,note_on,,,,,0,0,1,,,0,76,48
66121,note_off,,,,,49,0,1,,,0,71,64
66169,note_off,,,,,48,0,1,,,0,76,64
66171,note_on,,,,,0,0,1,,,0,71,44
66171,note_off,,,,,2,0,1,,,0,52,64
66220,note_off,,,,,49,0,1,,,0,71,64
66222,note_on,,,,,2,0,1,,,0,68,35
66271,note_off,,,,,49,0,1,,,0,68,64
66271,note_on,,,,,0,0,1,,,0,64,48
66320,note_off,,,,,49,0,1,,,0,64,64
66322,note_on,,,,,2,0,1,,,0,59,44
66370,note_off,,,,,48,0,1,,,0,59,64
66372,note_on,,,,,2,0,1,,,0,64,52
66372,note_on,,,,,0,0,1,,,0,40,58
66421,note_on,,,,,0,0,1,,,0,68,44
66421,note_off,,,,,49,0,1,,,0,64,64
66472,note_on,,,,,0,0,1,,,0,64,52
66472,note_off,,,,,0,0,1,,,0,40,64
66472,note_off,,,,,51,0,1,,,0,68,64
66521,note_off,,,,,49,0,1,,,0,64,64
66523,note_on,,,,,2,0,1,,,0,59,48
66572,note_on,,,,,0,0,1,,,0,64,58
66572,note_on,,,,,0,0,1,,,0,40,49
66572,note_off,,,,,49,0,1,,,0,59,64
66622,note_off,,,,,50,0,1,,,0,64,64
66622,note_on,,,,,0,0,1,,,0,59,55
66671,note_off,,,,,49,0,1,,,0,59,64
66672,note_on,,,,,0,0,1,,,0,56,46
66672,note_off,,,,,1,0,1,,,0,40,64
66721,note_on,,,,,0,0,1,,,0,52,43
66721,note_off,,,,,49,0,1,,,0,56,64
66772,note_on,,,,,0,0,1,,,0,40,44
66772,note_on,,,,,0,0,1,,,0,52,52
66772,note_off,,,,,51,0,1,,,0,52,64
66796,note_on,,,,,0,0,1,,,0,54,49
66796,note_off,,,,,24,0,1,,,0,52,64
66821,note_off,,,,,25,0,1,,,0,54,64
66823,note_on,,,,,2,0,1,,,0,52,52
66847,note_off,,,,,24,0,1,,,0,52,64
66847,note_on,,,,,0,0,1,,,0,54,49
66872,note_on,,,,,0,0,1,,,0,52,46
66872,note_off,,,,,0,0,1,,,0,40,64
66872,note_off,,,,,25,0,1,,,0,54,64
66971,note_off,,,,,99,0,1,,,0,52,64
67173,note_on,,,,,0,0,1,,,0,75,44
67173,note_on,,,,,0,0,1,,,0,78,67
67173,note_on,,,,,202,0,1,,,0,71,35
67373,note_on,,,,,0,0,1,,,0,76,50
67373,note_on,,,,,0,0,1,,,0,71,47
67373,note_off,,,,,0,0,1,,,0,71,64
67373,note_off,,,,,0,0,1,,,0,78,64
67373,note_off,,,,,200,0,1,,,0,75,64
67373,note_on,,,,,0,0,1,,,0,80,58
67572,note_off,,,,,199,0,1,,,0,71,64
67572,note_off,,,,,0,0,1,,,0,76,64
67572,note_off,,,,,0,0,1,,,0,80,64
67573,note_on,,,,,1,0,1,,,0,75,47
67573,note_on,,,,,0,0,1,,,0,78,51
67573,note_on,,,,,0,0,1,,,0,71,48
67573,note_on,,,,,0,0,1,,,0,59,37
67674,note_off,,,,,101,0,1,,,0,59,64
67674,note_on,,,,,0,0,1,,,0,47,44
67773,note_off,,,,,99,0,1,,,0,47,64
67773,note_off,,,,,0,0,1,,,0,71,64
67773,note_off,,,,,0,0,1,,,0,78,64
67773,note_off,,,,,0,0,1,,,0,75,64
67774,note_on,,,,,1,0,1,,,0,47,35
67872,note_off,,,,,98,0,1,,,0,47,64
67874,note_on,,,,,2,0,1,,,0,47,30
67974,note_on,,,,,0,0,1,,,0,81,65
67974,note_on,,,,,0,0,1,,,0,78,51
67974,note_on,,,,,0,0,1,,,0,75,48
67974,note_off,,,,,100,0,1,,,0,47,64
67974,note_on,,,,,0,0,1,,,0,71,44
68173,note_off,,,,,0,0,1,,,0,71,64
68173,note_off,,,,,199,0,1,,,0,81,64
68173,note_off,,,,,0,0,1,,,0,75,64
68173,note_off,,,,,0,0,1,,,0,78,64
68174,note_on,,,,,0,0,1,,,0,71,43
68174,note_on,,,,,1,0,1,,,0,80,57
68174,note_on,,,,,0,0,1,,,0,76,51
68374,note_off,,,,,0,0,1,,,0,80,64
68374,note_off,,,,,0,0,1,,,0,76,64
68374,note_off,,,,,200,0,1,,,0,71,64
68375,note_on,,,,,0,0,1,,,0,47,34
68375,note_on,,,,,0,0,1,,,0,71,44
68375,note_on,,,,,0,0,1,,,0,78,52
68375,note_on,,,,,1,0,1,,,0,75,47
68473,note_off,,,,,98,0,1,,,0,47,64
68475,note_on,,,,,2,0,1,,,0,35,37
68574,note_on,,,,,0,0,1,,,0,35,39
68574,note_off,,,,,0,0,1,,,0,78,64
68574,note_off,,,,,0,0,1,,,0,71,64
68574,note_off,,,,,99,0,1,,,0,35,64
68574,note_off,,,,,0,0,1,,,0,75,64
68674,note_off,,,,,100,0,1,,,0,35,64
68676,note_on,,,,,2,0,1,,,0,35,39
68774,note_off,,,,,98,0,1,,,0,35,64
68776,note_on,,,,,2,0,1,,,0,83,65
68776,note_on,,,,,0,0,1,,,0,78,53
68776,note_on,,,,,0,0,1,,,0,75,50
68776,note_on,,,,,0,0,1,,,0,71,38
68975,note_off,,,,,0,0,1,,,0,78,64
68975,note_off,,,,,199,0,1,,,0,71,64
68975,note_off,,,,,0,0,1,,,0,75,64
68975,note_off,,,,,0,0,1,,,0,83,64
68976,note_on,,,,,1,0,1,,,0,75,39
68976,note_on,,,,,0,0,1,,,0,71,39
68976,note_on,,,,,0,0,1,,,0,78,51
68976,note_on,,,,,0,0,1,,,0,81,56
69175,note_off,,,,,199,0,1,,,0,81,64
69175,note_on,,,,,0,0,1,,,0,64,41
69175,note_on,,,,,0,0,1,,,0,71,35
69175,note_on,,,,,0,0,1,,,0,76,48
69175,note_on,,,,,0,0,1,,,0,80,53
69175,note_off,,,,,0,0,1,,,0,75,64
69175,note_off,,,,,0,0,1,,,0,71,64
69175,note_off,,,,,0,0,1,,,0,78,64
69275,note_off,,,,,100,0,1,,,0,64,64
69277,note_on,,,,,2,0,1,,,0,52,39
69376,note_off,,,,,0,0,1,,,0,80,64
69376,note_off,,,,,0,0,1,,,0,76,64
69376,note_off,,,,,0,0,1,,,0,71,64
69376,note_off,,,,,99,0,1,,,0,52,64
69376,note_on,,,,,0,0,1,,,0,52,35
69476,note_on,,,,,0,0,1,,,0,52,33
69476,note_off,,,,,100,0,1,,,0,52,64
69576,note_off,,,,,100,0,1,,,0,52,64
69577,note_on,,,,,0,0,1,,,0,74,39
69577,note_on,,,,,1,0,1,,,0,83,53
69776,note_on,,,,,0,0,1,,,0,81,45
69776,note_off,,,,,0,0,1,,,0,83,64
69776,note_off,,,,,199,0,1,,,0,74,64
69776,note_on,,,,,0,0,1,,,0,72,38
69800,note_off,,,,,24,0,1,,,0,81,64
69802,note_on,,,,,2,0,1,,,0,82,42
69827,note_off,,,,,25,0,1,,,0,82,64
69827,note_on,,,,,0,0,1,,,0,81,48
69953,note_on,,,,,126,0,1,,,0,81,52
69977,note_on,,,,,0,0,1,,,0,52,36
69977,note_on,,,,,0,0,1,,,0,80,37
69977,note_on,,,,,0,0,1,,,0,71,20
69977,note_off,,,,,0,0,1,,,0,72,64
69977,note_off,,,,,0,0,1,,,0,81,64
69977,note_off,,,,,24,0,1,,,0,81,64
70077,note_off,,,,,100,0,1,,,0,52,64
70079,note_on,,,,,2,0,1,,,0,40,37
70176,note_off,,,,,0,0,1,,,0,71,64
70176,note_off,,,,,97,0,1,,,0,80,64
70176,note_on,,,,,0,0,1,,,0,40,32
70176,note_off,,,,,0,0,1,,,0,40,64
70277,note_on,,,,,0,0,1,,,0,40,30
70277,note_off,,,,,101,0,1,,,0,40,64
70377,note_off,,,,,100,0,1,,,0,40,64
70379,note_on,,,,,0,0,1,,,0,64,41
70379,note_on,,,,,2,0,1,,,0,83,44
70476,note_off,,,,,97,0,1,,,0,64,64
70478,note_on,,,,,0,0,1,,,0,71,27
70478,note_off,,,,,2,0,1,,,0,83,64
70478,note_on,,,,,0,0,1,,,0,74,40
70578,note_on,,,,,0,0,1,,,0,69,39
70578,note_off,,,,,100,0,1,,,0,71,64
70578,note_off,,,,,0,0,1,,,0,74,64
70578,note_on,,,,,0,0,1,,,0,72,46
70602,note_off,,,,,24,0,1,,,0,72,64
70604,note_on,,,,,2,0,1,,,0,73,44
70627,note_off,,,,,23,0,1,,,0,73,64
70629,note_on,,,,,2,0,1,,,0,72,37
70678,note_off,,,,,49,0,1,,,0,69,64
70679,note_on,,,,,0,0,1,,,0,71,37
70679,note_on,,,,,0,0,1,,,0,68,41
70679,note_off,,,,,1,0,1,,,0,72,64
70776,note_off,,,,,97,0,1,,,0,68,64
70778,note_on,,,,,0,0,1,,,0,64,46
70778,note_on,,,,,0,0,1,,,0,84,62
70778,note_off,,,,,2,0,1,,,0,71,64
70878,note_on,,,,,0,0,1,,,0,72,33
70878,note_on,,,,,0,0,1,,,0,76,48
70878,note_off,,,,,0,0,1,,,0,84,64
70878,note_off,,,,,100,0,1,,,0,64,64
70977,note_off,,,,,99,0,1,,,0,72,64
70979,note_off,,,,,2,0,1,,,0,76,64
70979,note_on,,,,,0,0,1,,,0,71,41
70979,note_on,,,,,0,0,1,,,0,74,46
71002,note_off,,,,,23,0,1,,,0,74,64
71004,note_on,,,,,2,0,1,,,0,75,44
71028,note_off,,,,,24,0,1,,,0,75,64
71028,note_on,,,,,0,0,1,,,0,74,47
71077,note_off,,,,,49,0,1,,,0,71,64
71079,note_off,,,,,2,0,1,,,0,74,64
71079,note_on,,,,,0,0,1,,,0,72,35
71079,note_on,,,,,0,0,1,,,0,69,34
71179,note_off,,,,,100,0,1,,,0,69,64
71179,note_off,,,,,0,0,1,,,0,72,64
71179,note_on,,,,,0,0,1,,,0,83,57
71179,note_on,,,,,0,0,1,,,0,64,46
71278,note_off,,,,,99,0,1,,,0,64,64
71280,note_on,,,,,0,0,1,,,0,74,41
71280,note_on,,,,,0,0,1,,,0,77,50
71280,note_off,,,,,2,0,1,,,0,83,64
71377,note_off,,,,,97,0,1,,,0,74,64
71379,note_on,,,,,0,0,1,,,0,72,40
71379,note_off,,,,,2,0,1,,,0,77,64
71379,note_on,,,,,0,0,1,,,0,76,46
71403,note_on,,,,,0,0,1,,,0,77,44
71403,note_off,,,,,24,0,1,,,0,76,64
71428,note_off,,,,,25,0,1,,,0,77,64
71430,note_on,,,,,2,0,1,,,0,76,48
71479,note_on,,,,,0,0,1,,,0,71,41
71479,note_on,,,,,0,0,1,,,0,74,46
71479,note_off,,,,,0,0,1,,,0,72,64
71479,note_off,,,,,49,0,1,,,0,76,64
71578,note_off,,,,,99,0,1,,,0,71,64
71580,note_on,,,,,0,0,1,,,0,64,41
71580,note_on,,,,,0,0,1,,,0,81,55
71580,note_off,,,,,2,0,1,,,0,74,64
71680,note_on,,,,,0,0,1,,,0,72,27
71680,note_on,,,,,0,0,1,,,0,76,47
71680,note_off,,,,,0,0,1,,,0,81,64
71680,note_off,,,,,100,0,1,,,0,64,64
71779,note_on,,,,,0,0,1,,,0,71,31
71779,note_on,,,,,0,0,1,,,0,74,46
71779,note_off,,,,,99,0,1,,,0,72,64
71779,note_off,,,,,0,0,1,,,0,76,64
71804,note_off,,,,,25,0,1,,,0,74,64
71806,note_on,,,,,2,0,1,,,0,75,44
71830,note_on,,,,,0,0,1,,,0,74,43
71830,note_off,,,,,24,0,1,,,0,75,64
71879,note_off,,,,,49,0,1,,,0,71,64
71880,note_off,,,,,1,0,1,,,0,74,64
71880,note_on,,,,,0,0,1,,,0,72,41
71880,note_on,,,,,0,0,1,,,0,69,26
71980,note_off,,,,,0,0,1,,,0,72,64
71980,note_off,,,,,100,0,1,,,0,69,64
71980,note_on,,,,,0,0,1,,,0,64,37
71980,note_on,,,,,0,0,1,,,0,83,51
72031,note_off,,,,,51,0,1,,,0,83,64
72031,note_on,,,,,0,0,1,,,0,81,46
72079,note_off,,,,,48,0,1,,,0,81,64
72079,note_on,,,,,0,0,1,,,0,80,46
72130,note_on,,,,,0,0,1,,,0,77,41
72130,note_off,,,,,51,0,1,,,0,80,64
72179,note_off,,,,,49,0,1,,,0,64,64
72181,note_on,,,,,0,0,1,,,0,56,31
72181,note_on,,,,,0,0,1,,,0,76,41
72181,note_off,,,,,2,0,1,,,0,77,64
72230,note_on,,,,,0,0,1,,,0,74,40
72230,note_off,,,,,49,0,1,,,0,76,64
72281,note_on,,,,,0,0,1,,,0,72,41
72281,note_off,,,,,51,0,1,,,0,74,64
72331,note_on,,,,,0,0,1,,,0,71,29
72331,note_off,,,,,50,0,1,,,0,72,64
72380,note_off,,,,,49,0,1,,,0,71,64
72380,note_on,,,,,0,0,1,,,0,45,41
72380,note_on,,,,,0,0,1,,,0,71,41
72380,note_off,,,,,0,0,1,,,0,56,64
72480,note_off,,,,,100,0,1,,,0,45,64
72481,note_on,,,,,1,0,1,,,0,52,47
72580,note_on,,,,,0,0,1,,,0,57,41
72580,note_off,,,,,99,0,1,,,0,52,64
72680,note_off,,,,,100,0,1,,,0,57,64
72680,note_off,,,,,0,0,1,,,0,71,64
72682,note_on,,,,,2,0,1,,,0,72,44
72780,note_off,,,,,98,0,1,,,0,72,64
72782,note_on,,,,,2,0,1,,,0,81,50
72831,note_off,,,,,49,0,1,,,0,81,64
72833,note_on,,,,,2,0,1,,,0,83,47
72881,note_on,,,,,0,0,1,,,0,84,48
72881,note_on,,,,,0,0,1,,,0,76,41
72881,note_on,,,,,0,0,1,,,0,72,46
72881,note_off,,,,,48,0,1,,,0,83,64
72981,note_off,,,,,0,0,1,,,0,72,64
72981,note_off,,,,,100,0,1,,,0,76,64
72983,note_on,,,,,0,0,1,,,0,71,51
72983,note_on,,,,,2,0,1,,,0,75,41
73080,note_off,,,,,97,0,1,,,0,71,64
73080,note_off,,,,,0,0,1,,,0,75,64
73081,note_on,,,,,1,0,1,,,0,76,44
73081,note_on,,,,,0,0,1,,,0,69,48
73181,note_on,,,,,0,0,1,,,0,78,41
73181,note_off,,,,,0,0,1,,,0,84,64
73181,note_off,,,,,0,0,1,,,0,76,64
73181,note_off,,,,,100,0,1,,,0,69,64
73230,note_off,,,,,49,0,1,,,0,78,64
73232,note_on,,,,,2,0,1,,,0,80,40
73281,note_off,,,,,49,0,1,,,0,80,64
73283,note_on,,,,,0,0,1,,,0,69,42
73283,note_on,,,,,0,0,1,,,0,72,42
73283,note_on,,,,,2,0,1,,,0,81,51
73381,note_off,,,,,0,0,1,,,0,72,64
73381,note_off,,,,,98,0,1,,,0,69,64
73382,note_on,,,,,1,0,1,,,0,71,41
73382,note_on,,,,,0,0,1,,,0,67,44
73482,note_off,,,,,100,0,1,,,0,67,64
73482,note_off,,,,,0,0,1,,,0,71,64
73482,note_on,,,,,0,0,1,,,0,72,40
73482,note_on,,,,,0,0,1,,,0,66,37
73582,note_off,,,,,0,0,1,,,0,72,64
73582,note_off,,,,,100,0,1,,,0,66,64
73582,note_off,,,,,0,0,1,,,0,81,64
73583,note_on,,,,,1,0,1,,,0,75,42
73632,note_off,,,,,49,0,1,,,0,75,64
73632,note_on,,,,,0,0,1,,,0,76,47
73680,note_off,,,,,48,0,1,,,0,76,64
73683,note_on,,,,,3,0,1,,,0,78,42
73683,note_on,,,,,0,0,1,,,0,69,33
73683,note_on,,,,,0,0,1,,,0,66,41
73782,note_off,,,,,99,0,1,,,0,66,64
73782,note_on,,,,,0,0,1,,,0,67,40
73782,note_off,,,,,0,0,1,,,0,69,64
73783,note_on,,,,,1,0,1,,,0,64,26
73882,note_off,,,,,0,0,1,,,0,67,64
73882,note_off,,,,,99,0,1,,,0,64,64
73884,note_on,,,,,0,0,1,,,0,66,40
73884,note_on,,,,,2,0,1,,,0,63,39
73981,note_off,,,,,97,0,1,,,0,78,64
73981,note_off,,,,,0,0,1,,,0,66,64
73981,note_off,,,,,0,0,1,,,0,63,64
73982,note_on,,,,,0,0,1,,,0,64,28
73982,note_on,,,,,1,0,1,,,0,67,32
74032,note_off,,,,,50,0,1,,,0,67,64
74034,note_on,,,,,2,0,1,,,0,70,32
74083,note_on,,,,,0,0,1,,,0,71,34
74083,note_on,,,,,0,0,1,,,0,67,24
74083,note_on,,,,,0,0,1,,,0,64,37
74083,note_off,,,,,0,0,1,,,0,64,64
74083,note_off,,,,,49,0,1,,,0,70,64
74183,note_off,,,,,0,0,1,,,0,64,64
74183,note_off,,,,,100,0,1,,,0,67,64
74184,note_on,,,,,1,0,1,,,0,67,33
74184,note_on,,,,,0,0,1,,,0,64,35
74232,note_off,,,,,48,0,1,,,0,71,64
74233,note_on,,,,,1,0,1,,,0,75,34
74283,note_on,,,,,0,0,1,,,0,67,28
74283,note_off,,,,,50,0,1,,,0,75,64
74283,note_off,,,,,0,0,1,,,0,64,64
74283,note_off,,,,,0,0,1,,,0,67,64
74283,note_on,,,,,0,0,1,,,0,76,35
74283,note_on,,,,,0,0,1,,,0,64,43
74383,note_off,,,,,100,0,1,,,0,67,64
74383,note_off,,,,,0,0,1,,,0,64,64
74383,note_on,,,,,0,0,1,,,0,64,29
74383,note_on,,,,,0,0,1,,,0,67,18
74434,note_on,,,,,0,0,1,,,0,78,35
74434,note_off,,,,,51,0,1,,,0,76,64
74483,note_off,,,,,49,0,1,,,0,78,64
74483,note_off,,,,,0,0,1,,,0,67,64
74483,note_off,,,,,0,0,1,,,0,64,64
74484,note_on,,,,,0,0,1,,,0,67,18
74484,note_on,,,,,0,0,1,,,0,64,31
74484,note_on,,,,,1,0,1,,,0,79,37
74584,note_on,,,,,0,0,1,,,0,64,31
74584,note_on,,,,,0,0,1,,,0,67,25
74584,note_off,,,,,0,0,1,,,0,64,64
74584,note_off,,,,,100,0,1,,,0,67,64
74633,note_off,,,,,49,0,1,,,0,79,64
74635,note_on,,,,,2,0,1,,,0,82,37
74684,note_off,,,,,0,0,1,,,0,64,64
74684,note_off,,,,,49,0,1,,,0,82,64
74684,note_off,,,,,0,0,1,,,0,67,64
74684,note_on,,,,,0,0,1,,,0,64,33
74684,note_on,,,,,0,0,1,,,0,67,25
74684,note_on,,,,,0,0,1,,,0,83,44
74783,note_off,,,,,0,0,1,,,0,67,64
74783,note_off,,,,,99,0,1,,,0,64,64
74784,note_on,,,,,0,0,1,,,0,66,22
74784,note_on,,,,,1,0,1,,,0,62,25
74833,note_off,,,,,49,0,1,,,0,83,64
74833,note_on,,,,,0,0,1,,,0,70,32
74884,note_on,,,,,0,0,1,,,0,71,37
74884,note_off,,,,,0,0,1,,,0,62,64
74884,note_off,,,,,0,0,1,,,0,66,64
74884,note_off,,,,,51,0,1,,,0,70,64
74884,note_on,,,,,0,0,1,,,0,62,29
74884,note_on,,,,,0,0,1,,,0,66,22
74984,note_on,,,,,0,0,1,,,0,66,25
74984,note_on,,,,,0,0,1,,,0,62,31
74984,note_off,,,,,0,0,1,,,0,66,64
74984,note_off,,,,,100,0,1,,,0,62,64
75034,note_on,,,,,0,0,1,,,0,73,31
75034,note_off,,,,,50,0,1,,,0,71,64
75083,note_off,,,,,0,0,1,,,0,66,64
75083,note_off,,,,,0,0,1,,,0,62,64
75083,note_off,,,,,49,0,1,,,0,73,64
75084,note_on,,,,,1,0,1,,,0,74,39
75084,note_on,,,,,0,0,1,,,0,66,24
75084,note_on,,,,,0,0,1,,,0,62,29
75185,note_on,,,,,0,0,1,,,0,62,32
75185,note_on,,,,,0,0,1,,,0,66,25
75185,note_off,,,,,0,0,1,,,0,66,64
75185,note_off,,,,,101,0,1,,,0,62,64
75234,note_off,,,,,49,0,1,,,0,74,64
75236,note_on,,,,,2,0,1,,,0,77,42
75284,note_off,,,,,0,0,1,,,0,66,64
75284,note_off,,,,,48,0,1,,,0,77,64
75284,note_off,,,,,0,0,1,,,0,62,64
75285,note_on,,,,,0,0,1,,,0,66,21
75285,note_on,,,,,1,0,1,,,0,78,41
75285,note_on,,,,,0,0,1,,,0,62,24
75384,note_off,,,,,0,0,1,,,0,66,64
75384,note_off,,,,,99,0,1,,,0,62,64
75385,note_on,,,,,0,0,1,,,0,62,34
75385,note_on,,,,,1,0,1,,,0,66,25
75434,note_off,,,,,49,0,1,,,0,78,64
75436,note_on,,,,,2,0,1,,,0,82,33
75485,note_on,,,,,0,0,1,,,0,83,37
75485,note_off,,,,,0,0,1,,,0,66,64
75485,note_off,,,,,0,0,1,,,0,62,64
75485,note_off,,,,,49,0,1,,,0,82,64
75485,note_on,,,,,0,0,1,,,0,66,31
75485,note_on,,,,,0,0,1,,,0,62,35
75584,note_off,,,,,0,0,1,,,0,66,64
75584,note_off,,,,,99,0,1,,,0,62,64
75586,note_on,,,,,2,0,1,,,0,60,31
75586,note_on,,,,,0,0,1,,,0,64,30
75635,note_off,,,,,49,0,1,,,0,83,64
75635,note_on,,,,,0,0,1,,,0,68,32
75684,note_off,,,,,0,0,1,,,0,64,64
75684,note_off,,,,,49,0,1,,,0,68,64
75684,note_off,,,,,0,0,1,,,0,60,64
75685,note_on,,,,,0,0,1,,,0,64,31
75685,note_on,,,,,0,0,1,,,0,60,27
75685,note_on,,,,,1,0,1,,,0,69,37
75786,note_off,,,,,101,0,1,,,0,60,64
75786,note_on,,,,,0,0,1,,,0,60,22
75786,note_on,,,,,0,0,1,,,0,64,30
75786,note_off,,,,,0,0,1,,,0,64,64
75835,note_off,,,,,49,0,1,,,0,69,64
75837,note_on,,,,,2,0,1,,,0,71,37
75885,note_off,,,,,0,0,1,,,0,64,64
75885,note_off,,,,,48,0,1,,,0,71,64
75885,note_off,,,,,0,0,1,,,0,60,64
75886,note_on,,,,,1,0,1,,,0,72,41
75886,note_on,,,,,0,0,1,,,0,64,29
75886,note_on,,,,,0,0,1,,,0,60,27
75984,note_off,,,,,98,0,1,,,0,60,64
75984,note_off,,,,,0,0,1,,,0,64,64
75985,note_on,,,,,0,0,1,,,0,60,31
75985,note_on,,,,,1,0,1,,,0,64,28
76035,note_off,,,,,50,0,1,,,0,72,64
76037,note_on,,,,,2,0,1,,,0,75,35
76086,note_off,,,,,49,0,1,,,0,75,64
76086,note_off,,,,,0,0,1,,,0,60,64
76086,note_on,,,,,0,0,1,,,0,60,30
76086,note_on,,,,,0,0,1,,,0,64,26
76086,note_on,,,,,0,0,1,,,0,76,33
76086,note_off,,,,,0,0,1,,,0,64,64
76185,note_off,,,,,0,0,1,,,0,64,64
76185,note_off,,,,,99,0,1,,,0,60,64
76187,note_on,,,,,0,0,1,,,0,60,30
76187,note_on,,,,,2,0,1,,,0,64,28
76236,note_on,,,,,0,0,1,,,0,80,37
76236,note_off,,,,,49,0,1,,,0,76,64
76285,note_off,,,,,0,0,1,,,0,60,64
76285,note_off,,,,,0,0,1,,,0,64,64
76285,note_off,,,,,49,0,1,,,0,80,64
76286,note_on,,,,,0,0,1,,,0,60,27
76286,note_on,,,,,0,0,1,,,0,64,30
76286,note_on,,,,,1,0,1,,,0,81,39
76386,note_on,,,,,0,0,1,,,0,59,44
76386,note_off,,,,,0,0,1,,,0,64,64
76386,note_off,,,,,100,0,1,,,0,60,64
76486,note_off,,,,,0,0,1,,,0,81,64
76486,note_off,,,,,100,0,1,,,0,59,64
76488,note_on,,,,,2,0,1,,,0,73,39
76488,note_on,,,,,0,0,1,,,0,69,43
76585,note_off,,,,,97,0,1,,,0,69,64
76585,note_off,,,,,0,0,1,,,0,73,64
76586,note_on,,,,,0,0,1,,,0,68,37
76586,note_on,,,,,1,0,1,,,0,71,46
76611,note_on,,,,,0,0,1,,,0,73,44
76611,note_off,,,,,25,0,1,,,0,71,64
76636,note_off,,,,,25,0,1,,,0,73,64
76638,note_on,,,,,2,0,1,,,0,71,40
76686,note_on,,,,,0,0,1,,,0,66,34
76686,note_on,,,,,0,0,1,,,0,69,40
76686,note_off,,,,,0,0,1,,,0,68,64
76686,note_off,,,,,48,0,1,,,0,71,64
76786,note_off,,,,,0,0,1,,,0,69,64
76786,note_off,,,,,100,0,1,,,0,66,64
76787,note_on,,,,,1,0,1,,,0,59,35
76787,note_on,,,,,0,0,1,,,0,80,48
76888,note_off,,,,,101,0,1,,,0,80,64
76888,note_off,,,,,0,0,1,,,0,59,64
76888,note_on,,,,,0,0,1,,,0,71,43
76888,note_on,,,,,0,0,1,,,0,68,36
76987,note_off,,,,,0,0,1,,,0,71,64
76987,note_off,,,,,99,0,1,,,0,68,64
76987,note_on,,,,,0,0,1,,,0,69,46
76988,note_on,,,,,1,0,1,,,0,66,34
77012,note_off,,,,,24,0,1,,,0,69,64
77014,note_on,,,,,2,0,1,,,0,71,44
77038,note_off,,,,,24,0,1,,,0,71,64
77038,note_on,,,,,0,0,1,,,0,69,43
77087,note_off,,,,,0,0,1,,,0,66,64
77087,note_off,,,,,49,0,1,,,0,69,64
77088,note_on,,,,,0,0,1,,,0,64,41
77088,note_on,,,,,1,0,1,,,0,68,38
77188,note_on,,,,,0,0,1,,,0,59,34
77188,note_on,,,,,0,0,1,,,0,78,50
77188,note_off,,,,,0,0,1,,,0,68,64
77188,note_off,,,,,100,0,1,,,0,64,64
77287,note_off,,,,,0,0,1,,,0,78,64
77287,note_on,,,,,0,0,1,,,0,66,32
77287,note_on,,,,,0,0,1,,,0,69,39
77287,note_off,,,,,99,0,1,,,0,59,64
77387,note_off,,,,,100,0,1,,,0,66,64
77387,note_off,,,,,0,0,1,,,0,69,64
77388,note_on,,,,,0,0,1,,,0,64,27
77388,note_on,,,,,1,0,1,,,0,68,46
77413,note_on,,,,,0,0,1,,,0,69,44
77413,note_off,,,,,25,0,1,,,0,68,64
77438,note_on,,,,,0,0,1,,,0,68,36
77438,note_off,,,,,25,0,1,,,0,69,64
77488,note_on,,,,,0,0,1,,,0,66,35
77488,note_off,,,,,50,0,1,,,0,68,64
77488,note_on,,,,,0,0,1,,,0,63,33
77488,note_off,,,,,0,0,1,,,0,64,64
77588,note_off,,,,,100,0,1,,,0,63,64
77588,note_off,,,,,0,0,1,,,0,66,64
77590,note_on,,,,,0,0,1,,,0,59,42
77590,note_on,,,,,2,0,1,,,0,76,47
77688,note_on,,,,,0,0,1,,,0,68,39
77688,note_on,,,,,0,0,1,,,0,64,37
77688,note_off,,,,,0,0,1,,,0,76,64
77688,note_off,,,,,98,0,1,,,0,59,64
77788,note_on,,,,,0,0,1,,,0,66,46
77788,note_off,,,,,0,0,1,,,0,64,64
77788,note_off,,,,,100,0,1,,,0,68,64
77789,note_on,,,,,1,0,1,,,0,63,34
77813,note_off,,,,,24,0,1,,,0,66,64
77815,note_on,,,,,2,0,1,,,0,68,44
77837,note_off,,,,,22,0,1,,,0,68,64
77840,note_on,,,,,3,0,1,,,0,66,37
77888,note_off,,,,,0,0,1,,,0,63,64
77888,note_off,,,,,48,0,1,,,0,66,64
77889,note_on,,,,,0,0,1,,,0,61,37
77889,note_on,,,,,1,0,1,,,0,64,39
77988,note_off,,,,,0,0,1,,,0,64,64
77988,note_off,,,,,99,0,1,,,0,61,64
77990,note_on,,,,,0,0,1,,,0,59,39
77990,note_on,,,,,2,0,1,,,0,63,38
78038,note_off,,,,,48,0,1,,,0,63,64
78040,note_on,,,,,0,0,1,,,0,64,40
78040,note_on,,,,,0,0,1,,,0,61,37
78040,note_off,,,,,2,0,1,,,0,59,64
78089,note_off,,,,,0,0,1,,,0,64,64
78089,note_off,,,,,49,0,1,,,0,61,64
78089,note_on,,,,,0,0,1,,,0,66,37
78089,note_on,,,,,0,0,1,,,0,63,41
78138,note_off,,,,,49,0,1,,,0,66,64
78140,note_off,,,,,2,0,1,,,0,63,64
78140,note_on,,,,,0,0,1,,,0,68,39
78140,note_on,,,,,0,0,1,,,0,64,42
78189,note_off,,,,,49,0,1,,,0,68,64
78191,note_off,,,,,2,0,1,,,0,64,64
78191,note_on,,,,,0,0,1,,,0,69,41
78191,note_on,,,,,0,0,1,,,0,66,38
78240,note_off,,,,,49,0,1,,,0,66,64
78240,note_off,,,,,0,0,1,,,0,69,64
78240,note_on,,,,,0,0,1,,,0,68,39
78240,note_on,,,,,0,0,1,,,0,71,46
78288,note_off,,,,,48,0,1,,,0,71,64
78289,note_on,,,,,0,0,1,,,0,69,44
78289,note_on,,,,,0,0,1,,,0,73,41
78289,note_off,,,,,1,0,1,,,0,68,64
78338,note_off,,,,,49,0,1,,,0,73,64
78340,note_off,,,,,2,0,1,,,0,69,64
78340,note_on,,,,,0,0,1,,,0,75,41
78340,note_on,,,,,0,0,1,,,0,71,57
78389,note_off,,,,,0,0,1,,,0,75,64
78389,note_on,,,,,0,0,1,,,0,73,44
78389,note_off,,,,,49,0,1,,,0,71,64
78389,note_on,,,,,0,0,1,,,0,76,47
78438,note_off,,,,,49,0,1,,,0,76,64
78440,note_on,,,,,0,0,1,,,0,71,43
78440,note_on,,,,,0,0,1,,,0,75,38
78440,note_off,,,,,2,0,1,,,0,73,64
78489,note_off,,,,,49,0,1,,,0,75,64
78491,note_on,,,,,0,0,1,,,0,73,41
78491,note_on,,,,,0,0,1,,,0,69,41
78491,note_off,,,,,2,0,1,,,0,71,64
78539,note_on,,,,,0,0,1,,,0,68,38
78539,note_on,,,,,0,0,1,,,0,71,44
78539,note_off,,,,,0,0,1,,,0,73,64
78539,note_off,,,,,48,0,1,,,0,69,64
78588,note_off,,,,,49,0,1,,,0,71,64
78590,note_on,,,,,0,0,1,,,0,66,40
78590,note_on,,,,,0,0,1,,,0,69,39
78590,note_off,,,,,2,0,1,,,0,68,64
78639,note_off,,,,,49,0,1,,,0,69,64
78641,note_on,,,,,0,0,1,,,0,68,30
78641,note_off,,,,,2,0,1,,,0,66,64
78641,note_on,,,,,0,0,1,,,0,64,37
78690,note_off,,,,,49,0,1,,,0,64,64
78690,note_off,,,,,0,0,1,,,0,68,64
78690,note_on,,,,,0,0,1,,,0,63,33
78690,note_on,,,,,0,0,1,,,0,66,25
78739,note_off,,,,,49,0,1,,,0,66,64
78741,note_off,,,,,2,0,1,,,0,63,64
78741,note_on,,,,,0,0,1,,,0,64,39
78741,note_on,,,,,0,0,1,,,0,61,34
78790,note_off,,,,,49,0,1,,,0,64,64
78792,note_off,,,,,2,0,1,,,0,61,64
78792,note_on,,,,,0,0,1,,,0,63,38
78792,note_on,,,,,0,0,1,,,0,59,39
78840,note_on,,,,,0,0,1,,,0,61,30
78840,note_on,,,,,0,0,1,,,0,64,32
78840,note_off,,,,,0,0,1,,,0,63,64
78840,note_off,,,,,48,0,1,,,0,59,64
78888,note_off,,,,,48,0,1,,,0,64,64
78890,note_on,,,,,0,0,1,,,0,66,37
78890,note_off,,,,,2,0,1,,,0,61,64
78890,note_on,,,,,0,0,1,,,0,63,31
78939,note_off,,,,,49,0,1,,,0,66,64
78941,note_on,,,,,0,0,1,,,0,68,40
78941,note_off,,,,,2,0,1,,,0,63,64
78941,note_on,,,,,0,0,1,,,0,64,41
78990,note_on,,,,,0,0,1,,,0,66,40
78990,note_on,,,,,0,0,1,,,0,69,41
78990,note_off,,,,,0,0,1,,,0,68,64
78990,note_off,,,,,49,0,1,,,0,64,64
79039,note_off,,,,,49,0,1,,,0,69,64
79041,note_on,,,,,0,0,1,,,0,68,39
79041,note_on,,,,,0,0,1,,,0,71,47
79041,note_off,,,,,2,0,1,,,0,66,64
79090,note_off,,,,,49,0,1,,,0,71,64
79091,note_off,,,,,1,0,1,,,0,68,64
79091,note_on,,,,,0,0,1,,,0,69,41
79091,note_on,,,,,0,0,1,,,0,73,44
79140,note_off,,,,,49,0,1,,,0,69,64
79140,note_off,,,,,0,0,1,,,0,73,64
79140,note_on,,,,,0,0,1,,,0,71,55
79140,note_on,,,,,0,0,1,,,0,75,48
79190,note_off,,,,,50,0,1,,,0,75,64
79191,note_on,,,,,0,0,1,,,0,73,41
79191,note_on,,,,,0,0,1,,,0,76,44
79191,note_off,,,,,1,0,1,,,0,71,64
79240,note_off,,,,,49,0,1,,,0,76,64
79242,note_on,,,,,0,0,1,,,0,71,47
79242,note_off,,,,,2,0,1,,,0,73,64
79242,note_on,,,,,0,0,1,,,0,75,41
79291,note_on,,,,,0,0,1,,,0,69,46
79291,note_off,,,,,49,0,1,,,0,71,64
79291,note_on,,,,,0,0,1,,,0,73,44
79291,note_off,,,,,0,0,1,,,0,75,64
79342,note_on,,,,,0,0,1,,,0,68,37
79342,note_on,,,,,0,0,1,,,0,71,46
79342,note_off,,,,,0,0,1,,,0,73,64
79342,note_off,,,,,51,0,1,,,0,69,64
79391,note_off,,,,,49,0,1,,,0,71,64
79392,note_on,,,,,0,0,1,,,0,69,44
79392,note_off,,,,,1,0,1,,,0,68,64
79392,note_on,,,,,0,0,1,,,0,66,39
79440,note_off,,,,,0,0,1,,,0,69,64
79440,note_on,,,,,0,0,1,,,0,64,37
79440,note_on,,,,,0,0,1,,,0,68,32
79440,note_off,,,,,48,0,1,,,0,66,64
79491,note_on,,,,,0,0,1,,,0,63,32
79491,note_on,,,,,0,0,1,,,0,66,23
79491,note_off,,,,,0,0,1,,,0,68,64
79491,note_off,,,,,51,0,1,,,0,64,64
79540,note_off,,,,,49,0,1,,,0,66,64
79542,note_on,,,,,0,0,1,,,0,61,22
79542,note_on,,,,,0,0,1,,,0,64,37
79542,note_off,,,,,2,0,1,,,0,63,64
79591,note_off,,,,,0,0,1,,,0,64,64
79591,note_on,,,,,0,0,1,,,0,63,40
79591,note_on,,,,,0,0,1,,,0,59,41
79591,note_off,,,,,49,0,1,,,0,61,64
79641,note_on,,,,,0,0,1,,,0,64,41
79641,note_off,,,,,50,0,1,,,0,59,64
79641,note_off,,,,,0,0,1,,,0,63,64
79641,note_on,,,,,0,0,1,,,0,61,39
79690,note_off,,,,,49,0,1,,,0,64,64
79692,note_off,,,,,2,0,1,,,0,61,64
79692,note_on,,,,,0,0,1,,,0,66,39
79692,note_on,,,,,0,0,1,,,0,63,34
79741,note_off,,,,,0,0,1,,,0,66,64
79741,note_off,,,,,49,0,1,,,0,63,64
79741,note_on,,,,,0,0,1,,,0,68,39
79741,note_on,,,,,0,0,1,,,0,64,41
79792,note_off,,,,,51,0,1,,,0,64,64
79792,note_off,,,,,0,0,1,,,0,68,64
79792,note_on,,,,,0,0,1,,,0,66,39
79792,note_on,,,,,0,0,1,,,0,69,47
79841,note_off,,,,,49,0,1,,,0,69,64
79843,note_on,,,,,0,0,1,,,0,68,36
79843,note_on,,,,,0,0,1,,,0,71,54
79843,note_off,,,,,2,0,1,,,0,66,64
79892,note_on,,,,,0,0,1,,,0,69,42
79892,note_off,,,,,0,0,1,,,0,71,64
79892,note_off,,,,,49,0,1,,,0,68,64
79892,note_on,,,,,0,0,1,,,0,73,50
79942,note_off,,,,,0,0,1,,,0,73,64
79942,note_on,,,,,0,0,1,,,0,75,48
79942,note_on,,,,,0,0,1,,,0,71,49
79942,note_off,,,,,50,0,1,,,0,69,64
79991,note_off,,,,,49,0,1,,,0,75,64
79992,note_on,,,,,0,0,1,,,0,73,42
79992,note_on,,,,,0,0,1,,,0,76,57
79992,note_off,,,,,1,0,1,,,0,71,64
80041,note_on,,,,,0,0,1,,,0,75,46
80041,note_off,,,,,0,0,1,,,0,76,64
80041,note_off,,,,,49,0,1,,,0,73,64
80041,note_on,,,,,0,0,1,,,0,71,43
80092,note_off,,,,,51,0,1,,,0,71,64
80092,note_on,,,,,0,0,1,,,0,69,41
80092,note_on,,,,,0,0,1,,,0,73,45
80092,note_off,,,,,0,0,1,,,0,75,64
80141,note_off,,,,,49,0,1,,,0,73,64
80143,note_on,,,,,0,0,1,,,0,68,37
80143,note_off,,,,,2,0,1,,,0,69,64
80143,note_on,,,,,0,0,1,,,0,71,44
80191,note_off,,,,,48,0,1,,,0,71,64
80193,note_on,,,,,0,0,1,,,0,69,54
80193,note_off,,,,,2,0,1,,,0,68,64
80193,note_on,,,,,0,0,1,,,0,66,35
80242,note_on,,,,,0,0,1,,,0,64,38
80242,note_off,,,,,49,0,1,,,0,66,64
80242,note_off,,,,,0,0,1,,,0,69,64
80242,note_on,,,,,0,0,1,,,0,68,43
80291,note_off,,,,,49,0,1,,,0,68,64
80293,note_off,,,,,2,0,1,,,0,64,64
80293,note_on,,,,,0,0,1,,,0,66,41
80293,note_on,,,,,0,0,1,,,0,63,28
80342,note_off,,,,,49,0,1,,,0,66,64
80344,note_off,,,,,2,0,1,,,0,63,64
80344,note_on,,,,,0,0,1,,,0,64,49
80344,note_on,,,,,0,0,1,,,0,61,38
80393,note_off,,,,,49,0,1,,,0,61,64
80393,note_off,,,,,0,0,1,,,0,64,64
80393,note_on,,,,,0,0,1,,,0,63,48
80394,note_on,,,,,1,0,1,,,0,59,54
80442,note_off,,,,,48,0,1,,,0,63,64
80444,note_on,,,,,2,0,1,,,0,66,42
80492,note_off,,,,,48,0,1,,,0,66,64
80494,note_on,,,,,0,0,1,,,0,57,48
80494,note_on,,,,,0,0,1,,,0,71,44
80494,note_off,,,,,2,0,1,,,0,59,64
80543,note_on,,,,,0,0,1,,,0,63,39
80543,note_off,,,,,49,0,1,,,0,71,64
80592,note_off,,,,,49,0,1,,,0,63,64
80593,note_off,,,,,1,0,1,,,0,57,64
80593,note_on,,,,,0,0,1,,,0,56,47
80593,note_on,,,,,0,0,1,,,0,64,47
80642,note_off,,,,,49,0,1,,,0,64,64
80644,note_on,,,,,2,0,1,,,0,66,37
80692,note_on,,,,,0,0,1,,,0,57,46
80692,note_on,,,,,0,0,1,,,0,68,40
80692,note_off,,,,,0,0,1,,,0,56,64
80692,note_off,,,,,48,0,1,,,0,66,64
80741,note_off,,,,,49,0,1,,,0,68,64
80743,note_on,,,,,2,0,1,,,0,69,46
80792,note_off,,,,,49,0,1,,,0,69,64
80794,note_on,,,,,0,0,1,,,0,68,44
80794,note_off,,,,,2,0,1,,,0,57,64
80794,note_on,,,,,0,0,1,,,0,59,43
80843,note_on,,,,,0,0,1,,,0,69,49
80843,note_off,,,,,49,0,1,,,0,68,64
80892,note_off,,,,,49,0,1,,,0,69,64
80894,note_on,,,,,2,0,1,,,0,71,51
80943,note_off,,,,,49,0,1,,,0,71,64
80945,note_on,,,,,2,0,1,,,0,69,44
80993,note_on,,,,,0,0,1,,,0,68,43
80993,note_off,,,,,0,0,1,,,0,59,64
80993,note_off,,,,,48,0,1,,,0,69,64
80993,note_on,,,,,0,0,1,,,0,47,48
81038,note_off,,,,,45,0,1,,,0,68,64
81043,note_on,,,,,5,0,1,,,0,66,44
81083,note_on,,,,,0,0,1,,,0,64,46
81083,note_off,,,,,40,0,1,,,0,66,64
81144,note_on,,,,,0,0,1,,,0,63,43
81144,note_off,,,,,61,0,1,,,0,64,64
81188,note_on,,,,,0,0,1,,,0,52,54
81188,note_off,,,,,0,0,1,,,0,47,64
81188,note_off,,,,,44,0,1,,,0,63,64
81188,note_on,,,,,0,0,1,,,0,64,51
81243,note_off,,,,,55,0,1,,,0,64,64
81245,note_on,,,,,2,0,1,,,0,68,38
81293,note_off,,,,,48,0,1,,,0,68,64
81293,note_on,,,,,0,0,1,,,0,71,47
81342,note_off,,,,,49,0,1,,,0,71,64
81344,note_on,,,,,2,0,1,,,0,76,48
81393,note_off,,,,,49,0,1,,,0,76,64
81395,note_off,,,,,2,0,1,,,0,52,64
81395,note_on,,,,,0,0,1,,,0,71,44
81444,note_off,,,,,49,0,1,,,0,71,64
81444,note_on,,,,,0,0,1,,,0,68,35
81489,note_off,,,,,45,0,1,,,0,68,64
81489,note_on,,,,,0,0,1,,,0,64,48
81543,note_off,,,,,54,0,1,,,0,64,64
81545,note_on,,,,,2,0,1,,,0,59,44
81594,note_off,,,,,49,0,1,,,0,59,64
81594,note_on,,,,,0,0,1,,,0,40,58
81594,note_on,,,,,0,0,1,,,0,64,52
81640,note_off,,,,,46,0,1,,,0,64,64
81640,note_on,,,,,0,0,1,,,0,68,44
81689,note_off,,,,,0,0,1,,,0,40,64
81689,note_off,,,,,49,0,1,,,0,68,64
81689,note_on,,,,,0,0,1,,,0,64,52
81744,note_on,,,,,0,0,1,,,0,59,48
81744,note_off,,,,,55,0,1,,,0,64,64
81792,note_off,,,,,48,0,1,,,0,59,64
81794,note_on,,,,,0,0,1,,,0,40,49
81794,note_on,,,,,2,0,1,,,0,64,58
81843,note_off,,,,,49,0,1,,,0,64,64
81845,note_on,,,,,2,0,1,,,0,59,55
81894,note_off,,,,,0,0,1,,,0,40,64
81894,note_off,,,,,49,0,1,,,0,59,64
81894,note_on,,,,,0,0,1,,,0,56,46
81945,note_on,,,,,0,0,1,,,0,52,43
81945,note_off,,,,,51,0,1,,,0,56,64
81994,note_off,,,,,49,0,1,,,0,52,64
81996,note_on,,,,,0,0,1,,,0,40,44
81996,note_on,,,,,2,0,1,,,0,52,52
82020,note_on,,,,,0,0,1,,,0,54,49
82020,note_off,,,,,24,0,1,,,0,52,64
82044,note_on,,,,,0,0,1,,,0,52,52
82044,note_off,,,,,24,0,1,,,0,54,64
82069,note_off,,,,,25,0,1,,,0,52,64
82071,note_on,,,,,2,0,1,,,0,54,49
82093,note_off,,,,,0,0,1,,,0,40,64
82093,note_off,,,,,22,0,1,,,0,54,64
82093,note_on,,,,,0,0,1,,,0,52,46
82195,note_off,,,,,102,0,1,,,0,52,64
82195,end_of_track,,,,,0,1,1,,,,,
