tick,type,time,meta,track,numerator,denominator,clocks_per_click,notated_32nd_notes_per_beat,key,tempo,port,control,value,channel,program,note,velocity
0,track_name,0,1,0,,,,,,,,,,,,,
0,control_change,0,0,8,,,,,,,,93,0,7,,,
0,control_change,0,0,8,,,,,,,,93,0,7,,,
0,control_change,0,0,8,,,,,,,,91,0,7,,,
0,control_change,0,0,8,,,,,,,,91,0,7,,,
0,control_change,0,0,8,,,,,,,,10,63,7,,,
0,control_change,0,0,8,,,,,,,,7,127,7,,,
0,track_name,0,1,8,,,,,,,,,,,,,
0,midi_port,0,1,8,,,,,,,0,,,,,,
0,control_change,0,0,7,,,,,,,,93,0,6,,,
0,control_change,0,0,7,,,,,,,,93,0,6,,,
0,control_change,0,0,7,,,,,,,,91,0,6,,,
0,control_change,0,0,7,,,,,,,,91,0,6,,,
0,control_change,0,0,7,,,,,,,,10,63,6,,,
0,control_change,0,0,7,,,,,,,,7,127,6,,,
0,track_name,0,1,7,,,,,,,,,,,,,
0,midi_port,0,1,9,,,,,,,0,,,,,,
0,midi_port,0,1,7,,,,,,,0,,,,,,
0,control_change,0,0,9,,,,,,,,7,127,8,,,
0,control_change,0,0,9,,,,,,,,91,0,8,,,
0,control_change,0,0,11,,,,,,,,10,63,10,,,
0,control_change,0,0,11,,,,,,,,7,127,10,,,
0,midi_port,0,1,11,,,,,,,0,,,,,,
0,end_of_track,0,1,10,,,,,,,,,,,,,
0,control_change,0,0,10,,,,,,,,93,0,9,,,
0,control_change,0,0,10,,,,,,,,93,0,9,,,
0,control_change,0,0,10,,,,,,,,91,0,9,,,
0,control_change,0,0,10,,,,,,,,91,0,9,,,
0,control_change,0,0,10,,,,,,,,10,63,9,,,
0,control_change,0,0,10,,,,,,,,7,127,9,,,
0,midi_port,0,1,10,,,,,,,0,,,,,,
0,end_of_track,0,1,9,,,,,,,,,,,,,
0,control_change,0,0,9,,,,,,,,93,0,8,,,
0,control_change,0,0,9,,,,,,,,93,0,8,,,
0,control_change,0,0,9,,,,,,,,91,0,8,,,
0,control_change,0,0,9,,,,,,,,10,63,8,,,
0,control_change,0,0,11,,,,,,,,91,0,10,,,
0,control_change,0,0,6,,,,,,,,93,0,5,,,
0,control_change,0,0,6,,,,,,,,91,0,5,,,
0,track_name,0,1,4,,,,,,,,,,,,,
0,midi_port,0,1,4,,,,,,,0,,,,,,
0,control_change,0,0,3,,,,,,,,10,49,2,,,
0,control_change,0,0,3,,,,,,,,7,127,2,,,
0,program_change,0,0,3,,,,,,,,,,2,70,,
0,control_change,0,0,3,,,,,,,,32,0,2,,,
0,control_change,0,0,3,,,,,,,,0,0,2,,,
0,track_name,0,1,3,,,,,,,,,,,,,
0,midi_port,0,1,3,,,,,,,0,,,,,,
0,control_change,0,0,18,,,,,,,,95,127,0,,,
0,control_change,0,0,2,,,,,,,,10,68,1,,,
0,control_change,0,0,2,,,,,,,,7,127,1,,,
0,program_change,0,0,2,,,,,,,,,,1,68,,
0,control_change,0,0,2,,,,,,,,32,0,1,,,
0,control_change,0,0,2,,,,,,,,0,0,1,,,
0,control_change,0,0,4,,,,,,,,7,127,3,,,
0,control_change,0,0,6,,,,,,,,93,0,5,,,
0,control_change,0,0,4,,,,,,,,10,63,3,,,
0,control_change,0,0,4,,,,,,,,91,0,3,,,
0,control_change,0,0,6,,,,,,,,91,0,5,,,
0,control_change,0,0,6,,,,,,,,10,63,5,,,
0,control_change,0,0,6,,,,,,,,7,127,5,,,
0,track_name,0,1,6,,,,,,,,,,,,,
0,midi_port,0,1,6,,,,,,,0,,,,,,
0,control_change,0,0,5,,,,,,,,93,0,4,,,
0,control_change,0,0,5,,,,,,,,93,0,4,,,
0,control_change,0,0,5,,,,,,,,91,0,4,,,
0,control_change,0,0,5,,,,,,,,91,0,4,,,
0,control_change,0,0,5,,,,,,,,10,63,4,,,
0,control_change,0,0,5,,,,,,,,7,127,4,,,
0,track_name,0,1,5,,,,,,,,,,,,,
0,midi_port,0,1,5,,,,,,,0,,,,,,
0,control_change,0,0,4,,,,,,,,93,0,3,,,
0,control_change,0,0,4,,,,,,,,93,0,3,,,
0,control_change,0,0,4,,,,,,,,91,0,3,,,
0,control_change,0,0,11,,,,,,,,91,0,10,,,
0,control_change,0,0,11,,,,,,,,93,0,10,,,
0,control_change,0,0,11,,,,,,,,93,0,10,,,
0,control_change,0,0,17,,,,,,,,95,127,1,,,
0,control_change,0,0,17,,,,,,,,96,64,1,,,
0,control_change,0,0,17,,,,,,,,92,0,1,,,
0,control_change,0,0,17,,,,,,,,93,64,1,,,
0,control_change,0,0,17,,,,,,,,40,103,0,,,
0,control_change,0,0,17,,,,,,,,40,103,1,,,
0,control_change,0,0,17,,,,,,,,40,103,2,,,
0,control_change,0,0,17,,,,,,,,40,103,3,,,
0,control_change,0,0,17,,,,,,,,40,103,4,,,
0,control_change,0,0,17,,,,,,,,40,103,5,,,
0,control_change,0,0,17,,,,,,,,93,64,0,,,
0,control_change,0,0,17,,,,,,,,91,0,0,,,
0,midi_port,0,1,17,,,,,,,0,,,,,,
0,end_of_track,0,1,16,,,,,,,,,,,,,
0,control_change,0,0,16,,,,,,,,93,0,15,,,
0,control_change,0,0,17,,,,,,,,92,0,0,,,
0,control_change,0,0,16,,,,,,,,93,0,15,,,
0,control_change,0,0,17,,,,,,,,96,64,0,,,
0,end_of_track,0,1,17,,,,,,,,,,,,,
0,control_change,0,0,18,,,,,,,,96,64,0,,,
0,control_change,0,0,18,,,,,,,,92,0,0,,,
0,control_change,0,0,18,,,,,,,,93,64,0,,,
0,control_change,0,0,18,,,,,,,,95,127,1,,,
0,control_change,0,0,18,,,,,,,,96,64,1,,,
0,control_change,0,0,18,,,,,,,,92,0,1,,,
0,control_change,0,0,18,,,,,,,,93,64,1,,,
0,control_change,0,0,18,,,,,,,,40,103,0,,,
0,control_change,0,0,18,,,,,,,,40,103,1,,,
0,control_change,0,0,18,,,,,,,,40,103,2,,,
0,control_change,0,0,18,,,,,,,,40,103,3,,,
0,control_change,0,0,18,,,,,,,,40,103,4,,,
0,control_change,0,0,18,,,,,,,,40,103,5,,,
0,track_name,0,1,18,,,,,,,,,,,,,
0,midi_port,0,1,18,,,,,,,0,,,,,,
0,control_change,0,0,17,,,,,,,,95,127,0,,,
0,control_change,0,0,16,,,,,,,,91,0,15,,,
0,control_change,0,0,16,,,,,,,,91,0,15,,,
0,control_change,0,0,16,,,,,,,,10,63,15,,,
0,control_change,0,0,13,,,,,,,,93,0,12,,,
0,control_change,0,0,13,,,,,,,,91,0,12,,,
0,control_change,0,0,13,,,,,,,,91,0,12,,,
0,control_change,0,0,13,,,,,,,,10,63,12,,,
0,control_change,0,0,13,,,,,,,,7,127,12,,,
0,midi_port,0,1,13,,,,,,,0,,,,,,
0,end_of_track,0,1,12,,,,,,,,,,,,,
0,control_change,0,0,12,,,,,,,,93,0,11,,,
0,control_change,0,0,12,,,,,,,,93,0,11,,,
0,control_change,0,0,12,,,,,,,,91,0,11,,,
0,control_change,0,0,12,,,,,,,,91,0,11,,,
0,control_change,0,0,12,,,,,,,,10,63,11,,,
0,control_change,0,0,12,,,,,,,,7,127,11,,,
0,midi_port,0,1,12,,,,,,,0,,,,,,
0,end_of_track,0,1,11,,,,,,,,,,,,,
0,control_change,0,0,13,,,,,,,,93,0,12,,,
0,end_of_track,0,1,13,,,,,,,,,,,,,
0,midi_port,0,1,14,,,,,,,0,,,,,,
0,control_change,0,0,14,,,,,,,,7,127,13,,,
0,control_change,0,0,16,,,,,,,,7,127,15,,,
0,midi_port,0,1,16,,,,,,,0,,,,,,
0,end_of_track,0,1,15,,,,,,,,,,,,,
0,control_change,0,0,15,,,,,,,,93,0,14,,,
0,control_change,0,0,15,,,,,,,,93,0,14,,,
0,control_change,0,0,15,,,,,,,,91,0,14,,,
0,control_change,0,0,15,,,,,,,,91,0,14,,,
0,track_name,0,1,2,,,,,,,,,,,,,
0,control_change,0,0,15,,,,,,,,10,63,14,,,
0,midi_port,0,1,15,,,,,,,0,,,,,,
0,end_of_track,0,1,14,,,,,,,,,,,,,
0,control_change,0,0,14,,,,,,,,93,0,13,,,
0,control_change,0,0,14,,,,,,,,93,0,13,,,
0,control_change,0,0,14,,,,,,,,91,0,13,,,
0,control_change,0,0,14,,,,,,,,91,0,13,,,
0,control_change,0,0,14,,,,,,,,10,63,13,,,
0,control_change,0,0,15,,,,,,,,7,127,14,,,
0,midi_port,0,1,2,,,,,,,0,,,,,,
0,end_of_track,0,1,18,,,,,,,,,,,,,
0,track_name,0,1,0,,,,,,,,,,,,,
0,program_change,0,0,1,,,,,,,,,,0,73,,
0,control_change,0,0,1,,,,,,,,10,60,0,,,
0,control_change,0,0,1,,,,,,,,7,127,0,,,
0,control_change,0,0,1,,,,,,,,32,0,0,,,
0,control_change,0,0,1,,,,,,,,0,0,0,,,
0,track_name,0,1,1,,,,,,,,,,,,,
0,copyright,0,1,0,,,,,,,,,,,,,
0,text,0,1,0,,,,,,,,,,,,,
0,time_signature,0,1,0,2,4,24,8,,,,,,,,,
0,key_signature,0,1,0,,,,,G,,,,,,,,
0,midi_port,0,1,1,,,,,,,0,,,,,,
0,set_tempo,0,1,0,,,,,,526316,,,,,,,
1,control_change,1,0,2,,,,,,,,93,10,1,,,
2,control_change,2,0,3,,,,,,,,93,9,2,,,
4,control_change,2,0,3,,,,,,,,91,68,2,,,
5,control_change,4,0,2,,,,,,,,91,66,1,,,
240,control_change,240,0,1,,,,,,,,91,70,0,,,
240,control_change,0,0,1,,,,,,,,93,14,0,,,
299,note_on,59,0,1,,,,,,,,,,0,,74,74
320,note_on,21,0,1,,,,,,,,,,0,,74,0
356,note_on,36,0,1,,,,,,,,,,0,,79,91
421,note_on,417,0,3,,,,,,,,,,2,,55,98
444,note_on,23,0,3,,,,,,,,,,2,,55,0
480,note_on,36,0,3,,,,,,,,,,2,,46,78
544,note_on,64,0,3,,,,,,,,,,2,,46,0
545,note_on,189,0,1,,,,,,,,,,0,,79,0
546,note_on,2,0,3,,,,,,,,,,2,,45,84
547,note_on,2,0,1,,,,,,,,,,0,,74,67
568,note_on,22,0,3,,,,,,,,,,2,,45,0
572,note_on,25,0,1,,,,,,,,,,0,,74,0
602,note_on,30,0,1,,,,,,,,,,0,,79,100
611,note_on,43,0,3,,,,,,,,,,2,,43,89
624,note_on,22,0,1,,,,,,,,,,0,,79,0
630,note_on,19,0,3,,,,,,,,,,2,,43,0
658,note_on,34,0,1,,,,,,,,,,0,,81,86
661,note_on,656,0,2,,,,,,,,,,1,,74,69
669,note_on,39,0,3,,,,,,,,,,2,,54,78
684,note_on,26,0,1,,,,,,,,,,0,,81,0
685,note_on,16,0,3,,,,,,,,,,2,,54,0
688,note_on,27,0,2,,,,,,,,,,1,,74,0
719,note_on,35,0,1,,,,,,,,,,0,,82,75
719,note_on,31,0,2,,,,,,,,,,1,,79,89
727,note_on,42,0,3,,,,,,,,,,2,,55,65
814,note_on,87,0,3,,,,,,,,,,2,,55,0
836,note_on,117,0,1,,,,,,,,,,0,,82,0
839,note_on,120,0,2,,,,,,,,,,1,,79,0
843,note_on,29,0,3,,,,,,,,,,2,,50,68
844,note_on,5,0,2,,,,,,,,,,1,,78,79
845,note_on,9,0,1,,,,,,,,,,0,,81,82
934,note_on,91,0,3,,,,,,,,,,2,,50,0
945,note_on,100,0,1,,,,,,,,,,0,,81,0
949,note_on,105,0,2,,,,,,,,,,1,,78,0
961,note_on,16,0,1,,,,,,,,,,0,,79,82
962,note_on,13,0,2,,,,,,,,,,1,,79,91
970,note_on,36,0,3,,,,,,,,,,2,,43,74
1016,note_on,55,0,1,,,,,,,,,,0,,79,0
1019,note_on,3,0,1,,,,,,,,,,0,,74,73
1026,note_on,56,0,3,,,,,,,,,,2,,43,0
1028,note_on,2,0,3,,,,,,,,,,2,,45,79
1047,note_on,28,0,1,,,,,,,,,,0,,74,0
1047,note_on,19,0,3,,,,,,,,,,2,,45,0
1062,note_on,100,0,2,,,,,,,,,,1,,79,0
1080,note_on,33,0,1,,,,,,,,,,0,,75,77
1080,note_on,33,0,3,,,,,,,,,,2,,46,68
1099,note_on,19,0,3,,,,,,,,,,2,,46,0
1138,note_on,76,0,2,,,,,,,,,,1,,82,75
1140,note_on,41,0,3,,,,,,,,,,2,,43,86
1162,note_on,22,0,3,,,,,,,,,,2,,43,0
1166,note_on,28,0,2,,,,,,,,,,1,,82,0
1196,note_on,34,0,3,,,,,,,,,,2,,42,78
1202,note_on,36,0,2,,,,,,,,,,1,,81,77
1215,note_on,19,0,3,,,,,,,,,,2,,42,0
1244,note_on,164,0,1,,,,,,,,,,0,,75,0
1258,note_on,43,0,3,,,,,,,,,,2,,40,68
1264,note_on,20,0,1,,,,,,,,,,0,,72,79
1277,note_on,19,0,3,,,,,,,,,,2,,40,0
1312,note_on,48,0,1,,,,,,,,,,0,,72,0
1322,note_on,45,0,3,,,,,,,,,,2,,42,77
1325,note_on,13,0,1,,,,,,,,,,0,,74,79
1342,note_on,20,0,3,,,,,,,,,,2,,42,0
1355,note_on,153,0,2,,,,,,,,,,1,,81,0
1355,note_on,30,0,1,,,,,,,,,,0,,74,0
1356,note_on,1,0,2,,,,,,,,,,1,,79,70
1382,note_on,26,0,2,,,,,,,,,,1,,79,0
1383,note_on,1,0,2,,,,,,,,,,1,,78,75
1385,note_on,30,0,1,,,,,,,,,,0,,69,84
1385,note_on,43,0,3,,,,,,,,,,2,,38,71
1405,note_on,20,0,3,,,,,,,,,,2,,38,0
1409,note_on,26,0,2,,,,,,,,,,1,,78,0
1412,note_on,3,0,2,,,,,,,,,,1,,76,77
1413,note_on,28,0,1,,,,,,,,,,0,,69,0
1442,note_on,30,0,2,,,,,,,,,,1,,76,0
1443,note_on,30,0,1,,,,,,,,,,0,,70,78
1443,note_on,1,0,2,,,,,,,,,,1,,74,69
1449,note_on,44,0,3,,,,,,,,,,2,,43,69
1464,note_on,15,0,3,,,,,,,,,,2,,43,0
1468,note_on,25,0,1,,,,,,,,,,0,,70,0
1487,note_on,44,0,2,,,,,,,,,,1,,74,0
1501,note_on,33,0,1,,,,,,,,,,0,,67,71
1509,note_on,45,0,3,,,,,,,,,,2,,45,68
1529,note_on,20,0,3,,,,,,,,,,2,,45,0
1533,note_on,32,0,1,,,,,,,,,,0,,67,0
1563,note_on,30,0,1,,,,,,,,,,0,,82,78
1567,note_on,38,0,3,,,,,,,,,,2,,46,78
1587,note_on,20,0,3,,,,,,,,,,2,,46,0
1621,note_on,134,0,2,,,,,,,,,,1,,74,76
1627,note_on,40,0,3,,,,,,,,,,2,,43,78
1648,note_on,27,0,2,,,,,,,,,,1,,74,0
1648,note_on,21,0,3,,,,,,,,,,2,,43,0
1672,note_on,109,0,1,,,,,,,,,,0,,82,0
1684,note_on,36,0,2,,,,,,,,,,1,,75,70
1685,note_on,13,0,1,,,,,,,,,,0,,81,71
1687,note_on,39,0,3,,,,,,,,,,2,,48,66
1787,note_on,100,0,3,,,,,,,,,,2,,48,0
1792,note_on,107,0,1,,,,,,,,,,0,,81,0
1802,note_on,10,0,1,,,,,,,,,,0,,79,82
1805,note_on,121,0,2,,,,,,,,,,1,,75,0
1805,note_on,0,0,2,,,,,,,,,,1,,70,71
1807,note_on,20,0,3,,,,,,,,,,2,,49,71
1903,note_on,96,0,3,,,,,,,,,,2,,49,0
1912,note_on,110,0,1,,,,,,,,,,0,,79,0
1922,note_on,117,0,2,,,,,,,,,,1,,70,0
1924,note_on,2,0,2,,,,,,,,,,1,,69,89
1924,note_on,21,0,3,,,,,,,,,,2,,50,70
1925,note_on,13,0,1,,,,,,,,,,0,,78,91
1953,note_on,29,0,2,,,,,,,,,,1,,69,0
1988,note_on,35,0,2,,,,,,,,,,1,,74,84
2003,note_on,79,0,3,,,,,,,,,,2,,50,0
2009,note_on,21,0,2,,,,,,,,,,1,,74,0
2026,note_on,101,0,1,,,,,,,,,,0,,78,0
2048,note_on,39,0,2,,,,,,,,,,1,,79,86
2107,note_on,104,0,3,,,,,,,,,,2,,55,65
2132,note_on,25,0,3,,,,,,,,,,2,,55,0
2164,note_on,32,0,3,,,,,,,,,,2,,46,66
2217,note_on,169,0,2,,,,,,,,,,1,,79,0
2219,note_on,55,0,3,,,,,,,,,,2,,46,0
2221,note_on,2,0,3,,,,,,,,,,2,,45,74
2223,note_on,6,0,2,,,,,,,,,,1,,74,74
2244,note_on,23,0,3,,,,,,,,,,2,,45,0
2249,note_on,26,0,2,,,,,,,,,,1,,74,0
2282,note_on,38,0,3,,,,,,,,,,2,,43,82
2283,note_on,34,0,2,,,,,,,,,,1,,79,91
2301,note_on,19,0,3,,,,,,,,,,2,,43,0
2303,note_on,20,0,2,,,,,,,,,,1,,79,0
2338,note_on,35,0,2,,,,,,,,,,1,,81,84
2341,note_on,40,0,3,,,,,,,,,,2,,54,71
2341,note_on,315,0,1,,,,,,,,,,0,,74,75
2361,note_on,20,0,3,,,,,,,,,,2,,54,0
2361,note_on,23,0,2,,,,,,,,,,1,,81,0
2376,note_on,35,0,1,,,,,,,,,,0,,74,0
2396,note_on,35,0,2,,,,,,,,,,1,,82,77
2396,note_on,20,0,1,,,,,,,,,,0,,79,91
2399,note_on,38,0,3,,,,,,,,,,2,,55,66
2506,note_on,107,0,3,,,,,,,,,,2,,55,0
2510,note_on,114,0,1,,,,,,,,,,0,,79,0
2517,note_on,121,0,2,,,,,,,,,,1,,82,0
2519,note_on,2,0,2,,,,,,,,,,1,,81,79
2524,note_on,14,0,1,,,,,,,,,,0,,78,95
2525,note_on,19,0,3,,,,,,,,,,2,,50,67
2616,note_on,91,0,3,,,,,,,,,,2,,50,0
2633,note_on,109,0,1,,,,,,,,,,0,,78,0
2642,note_on,123,0,2,,,,,,,,,,1,,81,0
2643,note_on,1,0,2,,,,,,,,,,1,,79,91
2645,note_on,12,0,1,,,,,,,,,,0,,79,93
2647,note_on,31,0,3,,,,,,,,,,2,,43,75
2692,note_on,49,0,2,,,,,,,,,,1,,79,0
2704,note_on,12,0,2,,,,,,,,,,1,,74,75
2704,note_on,57,0,3,,,,,,,,,,2,,43,0
2706,note_on,2,0,3,,,,,,,,,,2,,45,86
2726,note_on,20,0,3,,,,,,,,,,2,,45,0
2729,note_on,25,0,2,,,,,,,,,,1,,74,0
2746,note_on,101,0,1,,,,,,,,,,0,,79,0
2762,note_on,33,0,2,,,,,,,,,,1,,75,74
2764,note_on,38,0,3,,,,,,,,,,2,,46,70
2784,note_on,20,0,3,,,,,,,,,,2,,46,0
2823,note_on,39,0,3,,,,,,,,,,2,,43,75
2823,note_on,77,0,1,,,,,,,,,,0,,82,82
2842,note_on,19,0,3,,,,,,,,,,2,,43,0
2867,note_on,44,0,1,,,,,,,,,,0,,82,0
2881,note_on,39,0,3,,,,,,,,,,2,,42,67
2885,note_on,18,0,1,,,,,,,,,,0,,81,89
2900,note_on,138,0,2,,,,,,,,,,1,,75,0
2907,note_on,26,0,3,,,,,,,,,,2,,42,0
2941,control_change,0,0,6,,,,,,,,93,0,5,,,
2941,control_change,2941,0,6,,,,,,,,91,0,5,,,
2941,control_change,0,0,5,,,,,,,,7,127,4,,,
2941,control_change,0,0,5,,,,,,,,10,63,4,,,
2941,control_change,0,0,6,,,,,,,,7,127,5,,,
2941,control_change,2941,0,8,,,,,,,,91,0,7,,,
2941,control_change,0,0,4,,,,,,,,10,63,3,,,
2941,control_change,2941,0,4,,,,,,,,91,0,3,,,
2941,control_change,0,0,5,,,,,,,,93,0,4,,,
2941,control_change,2941,0,7,,,,,,,,91,0,6,,,
2941,control_change,0,0,7,,,,,,,,93,0,6,,,
2941,control_change,0,0,7,,,,,,,,10,63,6,,,
2941,control_change,0,0,7,,,,,,,,7,127,6,,,
2941,control_change,0,0,4,,,,,,,,7,127,3,,,
2941,control_change,0,0,4,,,,,,,,93,0,3,,,
2941,control_change,2941,0,5,,,,,,,,91,0,4,,,
2941,control_change,0,0,6,,,,,,,,10,63,5,,,
2941,control_change,0,0,8,,,,,,,,93,0,7,,,
2941,control_change,0,0,8,,,,,,,,10,63,7,,,
2941,control_change,0,0,8,,,,,,,,7,127,7,,,
2942,note_on,35,0,3,,,,,,,,,,2,,40,74
2943,note_on,43,0,2,,,,,,,,,,1,,72,69
2967,note_on,25,0,3,,,,,,,,,,2,,40,0
2983,note_on,40,0,2,,,,,,,,,,1,,72,0
3003,note_on,36,0,3,,,,,,,,,,2,,42,75
3004,note_on,21,0,2,,,,,,,,,,1,,74,70
3028,note_on,25,0,3,,,,,,,,,,2,,42,0
3032,note_on,28,0,2,,,,,,,,,,1,,74,0
3034,note_on,149,0,1,,,,,,,,,,0,,81,0
3035,note_on,1,0,1,,,,,,,,,,0,,79,86
3060,note_on,25,0,1,,,,,,,,,,0,,79,0
3062,note_on,34,0,3,,,,,,,,,,2,,38,75
3062,note_on,2,0,1,,,,,,,,,,0,,78,75
3065,note_on,33,0,2,,,,,,,,,,1,,69,77
3085,note_on,23,0,1,,,,,,,,,,0,,78,0
3086,note_on,24,0,3,,,,,,,,,,2,,38,0
3090,note_on,25,0,2,,,,,,,,,,1,,69,0
3090,note_on,5,0,1,,,,,,,,,,0,,76,79
3118,note_on,28,0,1,,,,,,,,,,0,,76,0
3120,note_on,2,0,1,,,,,,,,,,0,,74,75
3122,note_on,32,0,2,,,,,,,,,,1,,70,68
3126,note_on,40,0,3,,,,,,,,,,2,,43,76
3150,note_on,24,0,3,,,,,,,,,,2,,43,0
3152,note_on,30,0,2,,,,,,,,,,1,,70,0
3178,note_on,58,0,1,,,,,,,,,,0,,74,0
3181,note_on,29,0,2,,,,,,,,,,1,,67,89
3186,note_on,36,0,3,,,,,,,,,,2,,45,75
3211,note_on,25,0,3,,,,,,,,,,2,,45,0
3214,note_on,33,0,2,,,,,,,,,,1,,67,0
3242,note_on,28,0,2,,,,,,,,,,1,,82,77
3249,note_on,38,0,3,,,,,,,,,,2,,46,77
3275,note_on,26,0,3,,,,,,,,,,2,,46,0
3301,note_on,123,0,1,,,,,,,,,,0,,74,77
3307,note_on,32,0,3,,,,,,,,,,2,,43,84
3330,note_on,29,0,1,,,,,,,,,,0,,74,0
3332,note_on,25,0,3,,,,,,,,,,2,,43,0
3360,note_on,118,0,2,,,,,,,,,,1,,82,0
3360,note_on,30,0,1,,,,,,,,,,0,,75,78
3364,note_on,4,0,2,,,,,,,,,,1,,81,73
3366,note_on,34,0,3,,,,,,,,,,2,,48,75
3462,note_on,96,0,3,,,,,,,,,,2,,48,0
3479,note_on,115,0,2,,,,,,,,,,1,,81,0
3481,note_on,121,0,1,,,,,,,,,,0,,70,84
3482,note_on,3,0,2,,,,,,,,,,1,,79,82
3482,note_on,20,0,3,,,,,,,,,,2,,49,78
3483,note_on,2,0,1,,,,,,,,,,0,,75,0
3581,note_on,99,0,3,,,,,,,,,,2,,49,0
3599,note_on,116,0,1,,,,,,,,,,0,,70,0
3602,note_on,120,0,2,,,,,,,,,,1,,79,0
3602,note_on,0,0,2,,,,,,,,,,1,,78,74
3604,note_on,5,0,1,,,,,,,,,,0,,69,93
3604,note_on,23,0,3,,,,,,,,,,2,,50,76
3637,note_on,33,0,1,,,,,,,,,,0,,69,0
3639,note_on,37,0,2,,,,,,,,,,1,,78,0
3664,note_on,25,0,2,,,,,,,,,,1,,78,65
3666,note_on,29,0,1,,,,,,,,,,0,,81,86
3679,note_on,75,0,3,,,,,,,,,,2,,50,0
3691,note_on,25,0,1,,,,,,,,,,0,,81,0
3691,note_on,27,0,2,,,,,,,,,,1,,78,0
3692,note_on,1,0,2,,,,,,,,,,1,,79,89
3692,note_on,1,0,1,,,,,,,,,,0,,82,78
3720,note_on,28,0,1,,,,,,,,,,0,,82,0
3722,note_on,30,0,2,,,,,,,,,,1,,79,0
3724,note_on,4,0,1,,,,,,,,,,0,,84,86
3724,note_on,2,0,2,,,,,,,,,,1,,81,77
3781,note_on,57,0,1,,,,,,,,,,0,,84,0
3783,note_on,104,0,3,,,,,,,,,,2,,50,77
3784,note_on,60,0,2,,,,,,,,,,1,,81,0
3785,note_on,4,0,1,,,,,,,,,,0,,82,68
3785,note_on,1,0,2,,,,,,,,,,1,,79,74
3806,note_on,23,0,3,,,,,,,,,,2,,50,0
3811,note_on,26,0,2,,,,,,,,,,1,,79,0
3812,note_on,27,0,1,,,,,,,,,,0,,82,0
3813,note_on,2,0,2,,,,,,,,,,1,,78,73
3814,note_on,2,0,1,,,,,,,,,,0,,81,75
3841,note_on,27,0,1,,,,,,,,,,0,,81,0
3841,note_on,28,0,2,,,,,,,,,,1,,78,0
3843,note_on,2,0,1,,,,,,,,,,0,,82,78
3844,note_on,3,0,2,,,,,,,,,,1,,79,89
3845,note_on,39,0,3,,,,,,,,,,2,,55,66
3872,note_on,29,0,1,,,,,,,,,,0,,82,0
3888,note_on,44,0,2,,,,,,,,,,1,,79,0
3905,note_on,33,0,1,,,,,,,,,,0,,74,69
3914,note_on,69,0,3,,,,,,,,,,2,,55,0
3931,note_on,26,0,1,,,,,,,,,,0,,74,0
3961,note_on,30,0,1,,,,,,,,,,0,,79,79
3966,note_on,52,0,3,,,,,,,,,,2,,55,61
3984,note_on,23,0,1,,,,,,,,,,0,,79,0
4021,note_on,37,0,1,,,,,,,,,,0,,74,68
4047,note_on,26,0,1,,,,,,,,,,0,,74,0
4050,note_on,84,0,3,,,,,,,,,,2,,55,0
4083,note_on,195,0,2,,,,,,,,,,1,,86,61
4085,note_on,38,0,1,,,,,,,,,,0,,84,78
4086,note_on,36,0,3,,,,,,,,,,2,,54,61
4112,note_on,27,0,1,,,,,,,,,,0,,84,0
4146,note_on,34,0,1,,,,,,,,,,0,,82,68
4181,note_on,95,0,3,,,,,,,,,,2,,54,0
4213,note_on,32,0,3,,,,,,,,,,2,,54,61
4245,note_on,99,0,1,,,,,,,,,,0,,82,0
4267,note_on,22,0,1,,,,,,,,,,0,,81,78
4287,note_on,74,0,3,,,,,,,,,,2,,54,0
4326,note_on,39,0,3,,,,,,,,,,2,,53,63
4368,note_on,101,0,1,,,,,,,,,,0,,81,0
4385,note_on,17,0,1,,,,,,,,,,0,,74,69
4406,note_on,80,0,3,,,,,,,,,,2,,53,0
4422,note_on,37,0,1,,,,,,,,,,0,,74,0
4442,note_on,20,0,1,,,,,,,,,,0,,77,78
4445,note_on,39,0,3,,,,,,,,,,2,,53,67
4467,note_on,25,0,1,,,,,,,,,,0,,77,0
4498,note_on,31,0,1,,,,,,,,,,0,,74,74
4518,note_on,73,0,3,,,,,,,,,,2,,53,0
4529,note_on,31,0,1,,,,,,,,,,0,,74,0
4537,note_on,454,0,2,,,,,,,,,,1,,86,0
4558,note_on,29,0,1,,,,,,,,,,0,,82,78
4559,note_on,22,0,2,,,,,,,,,,1,,84,62
4561,note_on,43,0,3,,,,,,,,,,2,,52,68
4582,note_on,24,0,1,,,,,,,,,,0,,82,0
4611,control_change,0,0,8,,,,,,,,10,63,7,,,
4611,control_change,0,0,7,,,,,,,,10,63,6,,,
4611,control_change,1670,0,7,,,,,,,,91,0,6,,,
4611,control_change,0,0,7,,,,,,,,7,127,6,,,
4611,end_of_track,0,1,8,,,,,,,,,,,,,
4611,control_change,0,0,7,,,,,,,,93,0,6,,,
4611,control_change,1670,0,6,,,,,,,,91,0,5,,,
4611,control_change,0,0,6,,,,,,,,93,0,5,,,
4611,control_change,0,0,6,,,,,,,,10,63,5,,,
4611,control_change,0,0,6,,,,,,,,7,127,5,,,
4611,end_of_track,0,1,6,,,,,,,,,,,,,
4611,control_change,0,0,8,,,,,,,,7,127,7,,,
4611,control_change,0,0,8,,,,,,,,93,0,7,,,
4611,control_change,1670,0,8,,,,,,,,91,0,7,,,
4611,end_of_track,0,1,7,,,,,,,,,,,,,
4611,end_of_track,0,1,4,,,,,,,,,,,,,
4611,end_of_track,0,1,5,,,,,,,,,,,,,
4611,control_change,0,0,5,,,,,,,,7,127,4,,,
4611,control_change,0,0,5,,,,,,,,10,63,4,,,
4611,control_change,0,0,5,,,,,,,,93,0,4,,,
4611,control_change,1670,0,4,,,,,,,,91,0,3,,,
4611,control_change,0,0,4,,,,,,,,93,0,3,,,
4611,control_change,0,0,4,,,,,,,,10,63,3,,,
4611,control_change,0,0,4,,,,,,,,7,127,3,,,
4611,control_change,1670,0,5,,,,,,,,91,0,4,,,
4620,note_on,38,0,1,,,,,,,,,,0,,81,86
4650,note_on,89,0,3,,,,,,,,,,2,,52,0
4681,note_on,31,0,3,,,,,,,,,,2,,52,70
4718,note_on,98,0,1,,,,,,,,,,0,,81,0
4745,note_on,27,0,1,,,,,,,,,,0,,79,91
4772,note_on,91,0,3,,,,,,,,,,2,,52,0
4801,note_on,29,0,3,,,,,,,,,,2,,51,61
4846,note_on,101,0,1,,,,,,,,,,0,,79,0
4865,note_on,19,0,1,,,,,,,,,,0,,72,69
4879,note_on,78,0,3,,,,,,,,,,2,,51,0
4893,note_on,28,0,1,,,,,,,,,,0,,72,0
4922,note_on,29,0,1,,,,,,,,,,0,,75,71
4923,note_on,44,0,3,,,,,,,,,,2,,51,66
4950,note_on,28,0,1,,,,,,,,,,0,,75,0
4978,note_on,28,0,1,,,,,,,,,,0,,72,74
5003,note_on,80,0,3,,,,,,,,,,2,,51,0
5008,note_on,30,0,1,,,,,,,,,,0,,72,0
5011,note_on,452,0,2,,,,,,,,,,1,,84,0
5037,note_on,26,0,2,,,,,,,,,,1,,78,61
5040,note_on,37,0,3,,,,,,,,,,2,,50,63
5041,note_on,33,0,1,,,,,,,,,,0,,81,89
5067,note_on,26,0,1,,,,,,,,,,0,,81,0
5104,note_on,37,0,1,,,,,,,,,,0,,78,84
5127,note_on,87,0,3,,,,,,,,,,2,,50,0
5161,note_on,34,0,3,,,,,,,,,,2,,50,62
5198,note_on,94,0,1,,,,,,,,,,0,,78,0
5226,note_on,28,0,1,,,,,,,,,,0,,72,67
5239,note_on,78,0,3,,,,,,,,,,2,,50,0
5280,note_on,41,0,3,,,,,,,,,,2,,50,58
5329,note_on,103,0,1,,,,,,,,,,0,,72,0
5345,note_on,16,0,1,,,,,,,,,,0,,70,61
5362,note_on,82,0,3,,,,,,,,,,2,,50,0
5372,note_on,27,0,1,,,,,,,,,,0,,70,0
5373,note_on,1,0,1,,,,,,,,,,0,,72,73
5402,note_on,40,0,3,,,,,,,,,,2,,50,65
5403,note_on,0,0,1,,,,,,,,,,0,,74,69
5403,note_on,30,0,1,,,,,,,,,,0,,72,0
5432,note_on,29,0,1,,,,,,,,,,0,,74,0
5433,note_on,1,0,1,,,,,,,,,,0,,72,70
5461,note_on,28,0,1,,,,,,,,,,0,,72,0
5463,note_on,2,0,1,,,,,,,,,,0,,70,63
5488,note_on,25,0,1,,,,,,,,,,0,,70,0
5491,note_on,3,0,1,,,,,,,,,,0,,69,77
5498,note_on,96,0,3,,,,,,,,,,2,,50,0
5520,note_on,483,0,2,,,,,,,,,,1,,78,0
5522,note_on,2,0,2,,,,,,,,,,1,,79,79
5523,note_on,32,0,1,,,,,,,,,,0,,69,0
5523,note_on,0,0,1,,,,,,,,,,0,,70,77
5524,note_on,26,0,3,,,,,,,,,,2,,55,62
5543,note_on,19,0,3,,,,,,,,,,2,,55,0
5550,note_on,27,0,1,,,,,,,,,,0,,70,0
5579,note_on,29,0,1,,,,,,,,,,0,,79,89
5581,note_on,38,0,3,,,,,,,,,,2,,46,61
5609,note_on,28,0,3,,,,,,,,,,2,,46,0
5612,note_on,33,0,1,,,,,,,,,,0,,79,0
5619,note_on,97,0,2,,,,,,,,,,1,,79,0
5640,note_on,31,0,3,,,,,,,,,,2,,48,70
5645,note_on,33,0,1,,,,,,,,,,0,,81,84
5666,note_on,26,0,3,,,,,,,,,,2,,48,0
5677,note_on,32,0,1,,,,,,,,,,0,,81,0
5701,note_on,35,0,3,,,,,,,,,,2,,50,76
5705,note_on,28,0,1,,,,,,,,,,0,,78,84
5723,note_on,22,0,3,,,,,,,,,,2,,50,0
5738,note_on,33,0,1,,,,,,,,,,0,,78,0
5764,note_on,41,0,3,,,,,,,,,,2,,43,73
5767,note_on,29,0,1,,,,,,,,,,0,,79,95
5828,note_on,209,0,2,,,,,,,,,,1,,74,68
5852,note_on,85,0,1,,,,,,,,,,0,,79,0
5853,note_on,25,0,2,,,,,,,,,,1,,74,0
5857,note_on,93,0,3,,,,,,,,,,2,,43,0
5886,note_on,33,0,2,,,,,,,,,,1,,79,84
5890,note_on,33,0,3,,,,,,,,,,2,,55,65
5908,note_on,22,0,2,,,,,,,,,,1,,79,0
5945,note_on,37,0,2,,,,,,,,,,1,,74,69
5971,note_on,26,0,2,,,,,,,,,,1,,74,0
5988,note_on,98,0,3,,,,,,,,,,2,,55,0
6006,note_on,35,0,2,,,,,,,,,,1,,84,79
6008,note_on,20,0,3,,,,,,,,,,2,,54,53
6010,note_on,158,0,1,,,,,,,,,,0,,86,64
6029,note_on,23,0,2,,,,,,,,,,1,,84,0
6063,note_on,34,0,2,,,,,,,,,,1,,82,59
6101,note_on,93,0,3,,,,,,,,,,2,,54,0
6123,note_on,22,0,3,,,,,,,,,,2,,54,58
6150,note_on,87,0,2,,,,,,,,,,1,,82,0
6179,note_on,29,0,2,,,,,,,,,,1,,81,69
6216,note_on,93,0,3,,,,,,,,,,2,,54,0
6236,note_on,20,0,3,,,,,,,,,,2,,53,63
6291,note_on,112,0,2,,,,,,,,,,1,,81,0
6296,note_on,5,0,2,,,,,,,,,,1,,74,62
6324,note_on,28,0,2,,,,,,,,,,1,,74,0
6332,note_on,96,0,3,,,,,,,,,,2,,53,0
6355,note_on,31,0,2,,,,,,,,,,1,,77,73
6357,note_on,25,0,3,,,,,,,,,,2,,53,62
6378,note_on,23,0,2,,,,,,,,,,1,,77,0
6410,note_on,32,0,2,,,,,,,,,,1,,74,66
6438,note_on,28,0,2,,,,,,,,,,1,,74,0
6446,note_on,89,0,3,,,,,,,,,,2,,53,0
6468,note_on,458,0,1,,,,,,,,,,0,,86,0
6471,note_on,33,0,2,,,,,,,,,,1,,82,73
6473,note_on,27,0,3,,,,,,,,,,2,,52,59
6479,note_on,11,0,1,,,,,,,,,,0,,84,68
6495,note_on,24,0,2,,,,,,,,,,1,,82,0
6536,note_on,41,0,2,,,,,,,,,,1,,81,68
6574,note_on,101,0,3,,,,,,,,,,2,,52,0
6595,note_on,21,0,3,,,,,,,,,,2,,52,69
6628,note_on,92,0,2,,,,,,,,,,1,,81,0
6659,note_on,31,0,2,,,,,,,,,,1,,79,75
6697,note_on,102,0,3,,,,,,,,,,2,,52,0
6716,note_on,19,0,3,,,,,,,,,,2,,51,61
6766,note_on,107,0,2,,,,,,,,,,1,,79,0
6776,note_on,10,0,2,,,,,,,,,,1,,72,67
6804,note_on,28,0,2,,,,,,,,,,1,,72,0
6811,note_on,95,0,3,,,,,,,,,,2,,51,0
6835,note_on,31,0,2,,,,,,,,,,1,,75,57
6835,note_on,24,0,3,,,,,,,,,,2,,51,61
6858,note_on,23,0,2,,,,,,,,,,1,,75,0
6894,note_on,36,0,2,,,,,,,,,,1,,72,71
6922,note_on,87,0,3,,,,,,,,,,2,,51,0
6923,note_on,29,0,2,,,,,,,,,,1,,72,0
6954,note_on,475,0,1,,,,,,,,,,0,,84,0
6954,note_on,32,0,3,,,,,,,,,,2,,50,63
6956,note_on,33,0,2,,,,,,,,,,1,,81,73
6960,note_on,6,0,1,,,,,,,,,,0,,78,82
6982,note_on,26,0,2,,,,,,,,,,1,,81,0
7022,note_on,40,0,2,,,,,,,,,,1,,78,79
7061,note_on,107,0,3,,,,,,,,,,2,,50,0
7079,note_on,18,0,3,,,,,,,,,,2,,50,62
7108,note_on,86,0,2,,,,,,,,,,1,,78,0
7143,note_on,35,0,2,,,,,,,,,,1,,72,62
7170,note_on,91,0,3,,,,,,,,,,2,,50,0
7200,note_on,30,0,3,,,,,,,,,,2,,50,59
7240,note_on,97,0,2,,,,,,,,,,1,,72,0
7258,note_on,18,0,2,,,,,,,,,,1,,70,55
7287,note_on,29,0,2,,,,,,,,,,1,,70,0
7288,note_on,1,0,2,,,,,,,,,,1,,72,69
7297,note_on,97,0,3,,,,,,,,,,2,,50,0
7318,note_on,30,0,2,,,,,,,,,,1,,72,0
7318,note_on,0,0,2,,,,,,,,,,1,,74,66
7319,note_on,22,0,3,,,,,,,,,,2,,50,62
7347,note_on,29,0,2,,,,,,,,,,1,,74,0
7348,note_on,1,0,2,,,,,,,,,,1,,72,69
7374,note_on,26,0,2,,,,,,,,,,1,,72,0
7374,note_on,0,0,2,,,,,,,,,,1,,70,61
7402,note_on,28,0,2,,,,,,,,,,1,,70,0
7404,note_on,2,0,2,,,,,,,,,,1,,69,75
7421,note_on,102,0,3,,,,,,,,,,2,,50,0
7433,note_on,473,0,1,,,,,,,,,,0,,78,0
7434,note_on,30,0,2,,,,,,,,,,1,,70,77
7435,note_on,1,0,2,,,,,,,,,,1,,69,0
7440,note_on,19,0,3,,,,,,,,,,2,,55,63
7443,note_on,10,0,1,,,,,,,,,,0,,79,76
7459,note_on,19,0,3,,,,,,,,,,2,,55,0
7462,note_on,27,0,2,,,,,,,,,,1,,70,0
7498,note_on,36,0,2,,,,,,,,,,1,,79,91
7500,note_on,41,0,3,,,,,,,,,,2,,46,59
7525,note_on,25,0,3,,,,,,,,,,2,,46,0
7527,note_on,29,0,2,,,,,,,,,,1,,79,0
7557,note_on,30,0,2,,,,,,,,,,1,,81,75
7559,note_on,34,0,3,,,,,,,,,,2,,48,68
7564,note_on,121,0,1,,,,,,,,,,0,,79,0
7583,note_on,24,0,3,,,,,,,,,,2,,48,0
7584,note_on,27,0,2,,,,,,,,,,1,,81,0
7615,note_on,31,0,2,,,,,,,,,,1,,78,84
7619,note_on,36,0,3,,,,,,,,,,2,,50,67
7643,note_on,24,0,3,,,,,,,,,,2,,50,0
7645,note_on,30,0,2,,,,,,,,,,1,,78,0
7676,note_on,112,0,1,,,,,,,,,,0,,79,89
7676,note_on,31,0,2,,,,,,,,,,1,,79,76
7679,note_on,36,0,3,,,,,,,,,,2,,55,63
7705,note_on,29,0,1,,,,,,,,,,0,,79,0
7740,note_on,61,0,3,,,,,,,,,,2,,55,0
7740,note_on,0,0,3,,,,,,,,,,2,,57,69
7743,note_on,38,0,1,,,,,,,,,,0,,74,67
7760,note_on,20,0,3,,,,,,,,,,2,,57,0
7773,note_on,30,0,1,,,,,,,,,,0,,74,0
7780,note_on,104,0,2,,,,,,,,,,1,,79,0
7799,note_on,39,0,3,,,,,,,,,,2,,58,66
7800,note_on,27,0,1,,,,,,,,,,0,,82,71
7819,note_on,20,0,3,,,,,,,,,,2,,58,0
7861,note_on,42,0,3,,,,,,,,,,2,,57,67
7878,note_on,17,0,3,,,,,,,,,,2,,57,0
7921,note_on,43,0,3,,,,,,,,,,2,,55,65
7977,note_on,177,0,1,,,,,,,,,,0,,82,0
7982,note_on,5,0,1,,,,,,,,,,0,,74,70
8010,note_on,28,0,1,,,,,,,,,,0,,74,0
8040,note_on,30,0,1,,,,,,,,,,0,,79,89
8046,note_on,125,0,3,,,,,,,,,,2,,55,0
8068,note_on,28,0,1,,,,,,,,,,0,,79,0
8100,note_on,32,0,1,,,,,,,,,,0,,81,84
8102,note_on,56,0,3,,,,,,,,,,2,,54,61
8123,note_on,21,0,3,,,,,,,,,,2,,54,0
8128,note_on,28,0,1,,,,,,,,,,0,,81,0
8163,note_on,40,0,3,,,,,,,,,,2,,43,55
8164,note_on,36,0,1,,,,,,,,,,0,,82,77
8186,note_on,23,0,3,,,,,,,,,,2,,43,0
8225,note_on,39,0,3,,,,,,,,,,2,,55,65
8248,note_on,23,0,3,,,,,,,,,,2,,55,0
8267,note_on,103,0,1,,,,,,,,,,0,,82,0
8284,note_on,17,0,1,,,,,,,,,,0,,80,89
8286,note_on,38,0,3,,,,,,,,,,2,,60,70
8307,note_on,21,0,3,,,,,,,,,,2,,60,0
8343,note_on,36,0,3,,,,,,,,,,2,,59,70
8364,note_on,21,0,3,,,,,,,,,,2,,59,0
8405,note_on,41,0,3,,,,,,,,,,2,,60,74
8429,note_on,24,0,3,,,,,,,,,,2,,60,0
8456,note_on,172,0,1,,,,,,,,,,0,,80,0
8465,note_on,36,0,3,,,,,,,,,,2,,62,65
8468,note_on,12,0,1,,,,,,,,,,0,,79,82
8487,note_on,22,0,3,,,,,,,,,,2,,62,0
8495,note_on,27,0,1,,,,,,,,,,0,,79,0
8497,note_on,2,0,1,,,,,,,,,,0,,78,78
8523,note_on,26,0,1,,,,,,,,,,0,,78,0
8525,note_on,38,0,3,,,,,,,,,,2,,58,70
8527,note_on,4,0,1,,,,,,,,,,0,,79,89
8546,note_on,21,0,3,,,,,,,,,,2,,58,0
8555,note_on,28,0,1,,,,,,,,,,0,,79,0
8585,note_on,39,0,3,,,,,,,,,,2,,60,69
8585,note_on,30,0,1,,,,,,,,,,0,,81,84
8607,note_on,22,0,3,,,,,,,,,,2,,60,0
8613,note_on,28,0,1,,,,,,,,,,0,,81,0
8642,note_on,29,0,1,,,,,,,,,,0,,74,67
8645,note_on,38,0,3,,,,,,,,,,2,,58,73
8666,note_on,21,0,3,,,,,,,,,,2,,58,0
8706,note_on,40,0,3,,,,,,,,,,2,,55,65
8732,note_on,26,0,3,,,,,,,,,,2,,55,0
8749,note_on,107,0,1,,,,,,,,,,0,,74,0
8762,note_on,13,0,1,,,,,,,,,,0,,75,74
8765,note_on,33,0,3,,,,,,,,,,2,,60,69
8786,note_on,21,0,3,,,,,,,,,,2,,60,0
8824,note_on,38,0,3,,,,,,,,,,2,,54,58
8847,note_on,23,0,3,,,,,,,,,,2,,54,0
8879,note_on,117,0,1,,,,,,,,,,0,,75,0
8887,note_on,8,0,1,,,,,,,,,,0,,74,73
8888,note_on,41,0,3,,,,,,,,,,2,,55,68
8904,note_on,16,0,3,,,,,,,,,,2,,55,0
8917,note_on,30,0,1,,,,,,,,,,0,,74,0
8942,note_on,25,0,1,,,,,,,,,,0,,72,67
8946,note_on,42,0,3,,,,,,,,,,2,,45,65
8967,note_on,21,0,3,,,,,,,,,,2,,45,0
8970,note_on,28,0,1,,,,,,,,,,0,,72,0
8970,note_on,0,0,1,,,,,,,,,,0,,70,66
8997,note_on,27,0,1,,,,,,,,,,0,,70,0
9000,note_on,3,0,1,,,,,,,,,,0,,72,74
9003,note_on,36,0,3,,,,,,,,,,2,,57,69
9024,note_on,21,0,3,,,,,,,,,,2,,57,0
9030,note_on,30,0,1,,,,,,,,,,0,,72,0
9056,note_on,26,0,1,,,,,,,,,,0,,69,69
9059,note_on,35,0,3,,,,,,,,,,2,,54,57
9081,note_on,22,0,3,,,,,,,,,,2,,54,0
9084,note_on,28,0,1,,,,,,,,,,0,,69,0
9117,note_on,33,0,1,,,,,,,,,,0,,70,78
9121,note_on,40,0,3,,,,,,,,,,2,,55,65
9140,note_on,19,0,3,,,,,,,,,,2,,55,0
9145,note_on,28,0,1,,,,,,,,,,0,,70,0
9173,note_on,28,0,1,,,,,,,,,,0,,74,69
9178,note_on,38,0,3,,,,,,,,,,2,,57,68
9201,note_on,28,0,1,,,,,,,,,,0,,74,0
9202,note_on,24,0,3,,,,,,,,,,2,,57,0
9236,note_on,34,0,3,,,,,,,,,,2,,58,75
9236,note_on,35,0,1,,,,,,,,,,0,,82,79
9262,note_on,26,0,3,,,,,,,,,,2,,58,0
9300,note_on,38,0,3,,,,,,,,,,2,,55,66
9323,note_on,23,0,3,,,,,,,,,,2,,55,0
9353,note_on,117,0,1,,,,,,,,,,0,,82,0
9362,note_on,39,0,3,,,,,,,,,,2,,60,70
9363,note_on,10,0,1,,,,,,,,,,0,,81,82
9382,note_on,20,0,3,,,,,,,,,,2,,60,0
9401,note_on,38,0,1,,,,,,,,,,0,,81,0
9420,note_on,19,0,1,,,,,,,,,,0,,79,82
9422,note_on,40,0,3,,,,,,,,,,2,,62,65
9444,note_on,22,0,3,,,,,,,,,,2,,62,0
9446,note_on,26,0,1,,,,,,,,,,0,,79,0
9448,note_on,2,0,1,,,,,,,,,,0,,78,71
9475,note_on,27,0,1,,,,,,,,,,0,,78,0
9479,note_on,4,0,1,,,,,,,,,,0,,79,82
9481,note_on,37,0,3,,,,,,,,,,2,,58,71
9504,note_on,23,0,3,,,,,,,,,,2,,58,0
9506,note_on,27,0,1,,,,,,,,,,0,,79,0
9537,note_on,31,0,1,,,,,,,,,,0,,81,78
9541,note_on,37,0,3,,,,,,,,,,2,,54,61
9562,note_on,21,0,3,,,,,,,,,,2,,54,0
9574,note_on,37,0,1,,,,,,,,,,0,,81,0
9600,note_on,26,0,1,,,,,,,,,,0,,74,69
9601,note_on,39,0,3,,,,,,,,,,2,,55,68
9628,note_on,28,0,1,,,,,,,,,,0,,74,0
9628,note_on,27,0,3,,,,,,,,,,2,,55,0
9661,note_on,33,0,1,,,,,,,,,,0,,79,91
9663,note_on,35,0,3,,,,,,,,,,2,,57,69
9686,note_on,23,0,3,,,,,,,,,,2,,57,0
9691,note_on,30,0,1,,,,,,,,,,0,,79,0
9720,note_on,29,0,1,,,,,,,,,,0,,82,73
9724,note_on,38,0,3,,,,,,,,,,2,,58,63
9746,note_on,22,0,3,,,,,,,,,,2,,58,0
9785,note_on,39,0,3,,,,,,,,,,2,,55,66
9808,note_on,23,0,3,,,,,,,,,,2,,55,0
9843,note_on,123,0,1,,,,,,,,,,0,,82,0
9846,note_on,38,0,3,,,,,,,,,,2,,60,69
9847,note_on,4,0,1,,,,,,,,,,0,,81,79
9866,note_on,20,0,3,,,,,,,,,,2,,60,0
9887,note_on,40,0,1,,,,,,,,,,0,,81,0
9910,note_on,44,0,3,,,,,,,,,,2,,62,67
9911,note_on,24,0,1,,,,,,,,,,0,,79,79
9935,note_on,25,0,3,,,,,,,,,,2,,62,0
9935,note_on,24,0,1,,,,,,,,,,0,,79,0
9939,note_on,4,0,1,,,,,,,,,,0,,78,74
9967,note_on,28,0,1,,,,,,,,,,0,,78,0
9972,note_on,37,0,3,,,,,,,,,,2,,58,66
9972,note_on,5,0,1,,,,,,,,,,0,,79,84
9993,note_on,21,0,3,,,,,,,,,,2,,58,0
10002,note_on,30,0,1,,,,,,,,,,0,,79,0
10028,note_on,26,0,1,,,,,,,,,,0,,81,74
10031,note_on,38,0,3,,,,,,,,,,2,,60,69
10054,note_on,23,0,3,,,,,,,,,,2,,60,0
10059,note_on,31,0,1,,,,,,,,,,0,,81,0
10090,note_on,36,0,3,,,,,,,,,,2,,62,68
10092,note_on,33,0,1,,,,,,,,,,0,,74,54
10115,note_on,25,0,3,,,,,,,,,,2,,62,0
10147,note_on,32,0,3,,,,,,,,,,2,,57,67
10174,note_on,27,0,3,,,,,,,,,,2,,57,0
10191,note_on,99,0,1,,,,,,,,,,0,,74,0
10209,note_on,35,0,3,,,,,,,,,,2,,54,61
10233,note_on,24,0,3,,,,,,,,,,2,,54,0
10268,note_on,35,0,3,,,,,,,,,,2,,50,69
10290,note_on,22,0,3,,,,,,,,,,2,,50,0
10329,note_on,138,0,1,,,,,,,,,,0,,86,89
10333,note_on,43,0,3,,,,,,,,,,2,,58,68
10356,note_on,23,0,3,,,,,,,,,,2,,58,0
10358,note_on,29,0,1,,,,,,,,,,0,,86,0
10386,note_on,28,0,1,,,,,,,,,,0,,84,69
10390,note_on,34,0,3,,,,,,,,,,2,,57,68
10416,note_on,26,0,3,,,,,,,,,,2,,57,0
10419,note_on,3,0,3,,,,,,,,,,2,,55,68
10446,note_on,0,0,3,,,,,,,,,,2,,54,68
10446,note_on,27,0,3,,,,,,,,,,2,,55,0
10465,note_on,19,0,3,,,,,,,,,,2,,54,0
10484,note_on,98,0,1,,,,,,,,,,0,,84,0
10503,note_on,19,0,1,,,,,,,,,,0,,82,71
10503,note_on,38,0,3,,,,,,,,,,2,,55,68
10526,note_on,23,0,3,,,,,,,,,,2,,55,0
10564,note_on,38,0,3,,,,,,,,,,2,,50,68
10618,note_on,115,0,1,,,,,,,,,,0,,82,0
10624,note_on,6,0,1,,,,,,,,,,0,,81,74
10641,note_on,77,0,3,,,,,,,,,,2,,50,0
10651,note_on,27,0,1,,,,,,,,,,0,,81,0
10652,note_on,1,0,1,,,,,,,,,,0,,79,72
10678,note_on,37,0,3,,,,,,,,,,2,,47,68
10679,note_on,27,0,1,,,,,,,,,,0,,79,0
10681,note_on,2,0,1,,,,,,,,,,0,,77,91
10703,note_on,22,0,1,,,,,,,,,,0,,77,0
10741,note_on,38,0,1,,,,,,,,,,0,,74,71
10765,note_on,24,0,1,,,,,,,,,,0,,74,0
10771,note_on,93,0,3,,,,,,,,,,2,,47,0
10798,note_on,33,0,1,,,,,,,,,,0,,75,71
10801,note_on,30,0,3,,,,,,,,,,2,,48,68
10819,note_on,21,0,1,,,,,,,,,,0,,75,0
10858,note_on,57,0,3,,,,,,,,,,2,,48,0
10858,note_on,0,0,3,,,,,,,,,,2,,50,68
10861,note_on,42,0,1,,,,,,,,,,0,,79,87
10881,note_on,23,0,3,,,,,,,,,,2,,50,0
10917,note_on,36,0,3,,,,,,,,,,2,,51,68
10936,note_on,19,0,3,,,,,,,,,,2,,51,0
10983,note_on,47,0,3,,,,,,,,,,2,,48,68
10983,note_on,122,0,1,,,,,,,,,,0,,75,71
10987,note_on,4,0,1,,,,,,,,,,0,,79,0
11003,note_on,20,0,3,,,,,,,,,,2,,48,0
11009,note_on,22,0,1,,,,,,,,,,0,,75,0
11045,note_on,36,0,1,,,,,,,,,,0,,84,87
11047,note_on,44,0,3,,,,,,,,,,2,,57,68
11068,note_on,21,0,3,,,,,,,,,,2,,57,0
11070,note_on,25,0,1,,,,,,,,,,0,,84,0
11108,note_on,38,0,1,,,,,,,,,,0,,82,73
11108,note_on,40,0,3,,,,,,,,,,2,,55,68
11133,note_on,25,0,3,,,,,,,,,,2,,55,0
11134,note_on,1,0,3,,,,,,,,,,2,,53,68
11164,note_on,30,0,3,,,,,,,,,,2,,53,0
11167,note_on,3,0,3,,,,,,,,,,2,,51,68
11187,note_on,20,0,3,,,,,,,,,,2,,51,0
11200,note_on,92,0,1,,,,,,,,,,0,,82,0
11225,note_on,38,0,3,,,,,,,,,,2,,53,68
11226,note_on,26,0,1,,,,,,,,,,0,,81,74
11249,note_on,24,0,3,,,,,,,,,,2,,53,0
11285,note_on,36,0,3,,,,,,,,,,2,,48,68
11343,note_on,117,0,1,,,,,,,,,,0,,81,0
11345,note_on,2,0,1,,,,,,,,,,0,,79,75
11362,note_on,77,0,3,,,,,,,,,,2,,48,0
11371,note_on,26,0,1,,,,,,,,,,0,,79,0
11373,note_on,2,0,1,,,,,,,,,,0,,77,87
11400,note_on,38,0,3,,,,,,,,,,2,,45,68
11401,note_on,28,0,1,,,,,,,,,,0,,77,0
11403,note_on,2,0,1,,,,,,,,,,0,,75,74
11427,note_on,24,0,1,,,,,,,,,,0,,75,0
11460,note_on,33,0,1,,,,,,,,,,0,,72,74
11477,note_on,77,0,3,,,,,,,,,,2,,45,0
11484,note_on,24,0,1,,,,,,,,,,0,,72,0
11518,note_on,41,0,3,,,,,,,,,,2,,46,68
11519,note_on,35,0,1,,,,,,,,,,0,,74,63
11538,note_on,19,0,1,,,,,,,,,,0,,74,0
11579,note_on,41,0,1,,,,,,,,,,0,,77,82
11579,note_on,0,0,3,,,,,,,,,,2,,48,68
11579,note_on,61,0,3,,,,,,,,,,2,,46,0
11600,note_on,21,0,3,,,,,,,,,,2,,48,0
11638,note_on,38,0,3,,,,,,,,,,2,,50,68
11656,note_on,18,0,3,,,,,,,,,,2,,50,0
11697,note_on,41,0,3,,,,,,,,,,2,,46,68
11701,note_on,122,0,1,,,,,,,,,,0,,77,0
11704,note_on,3,0,1,,,,,,,,,,0,,74,64
11714,note_on,17,0,3,,,,,,,,,,2,,46,0
11731,note_on,27,0,1,,,,,,,,,,0,,74,0
11763,note_on,49,0,3,,,,,,,,,,2,,55,68
11764,note_on,33,0,1,,,,,,,,,,0,,82,87
11782,note_on,19,0,3,,,,,,,,,,2,,55,0
11792,note_on,28,0,1,,,,,,,,,,0,,82,0
11825,note_on,33,0,1,,,,,,,,,,0,,81,82
11828,note_on,46,0,3,,,,,,,,,,2,,53,68
11852,note_on,24,0,3,,,,,,,,,,2,,53,0
11854,note_on,2,0,3,,,,,,,,,,2,,51,68
11882,note_on,28,0,3,,,,,,,,,,2,,51,0
11885,note_on,3,0,3,,,,,,,,,,2,,50,68
11901,note_on,16,0,3,,,,,,,,,,2,,50,0
11918,note_on,93,0,1,,,,,,,,,,0,,81,0
11942,note_on,41,0,3,,,,,,,,,,2,,51,68
11947,note_on,29,0,1,,,,,,,,,,0,,79,89
11959,note_on,17,0,3,,,,,,,,,,2,,51,0
12005,note_on,46,0,3,,,,,,,,,,2,,48,68
12057,note_on,110,0,1,,,,,,,,,,0,,79,0
12060,note_on,3,0,1,,,,,,,,,,0,,77,87
12083,note_on,78,0,3,,,,,,,,,,2,,48,0
12090,note_on,30,0,1,,,,,,,,,,0,,77,0
12091,note_on,1,0,1,,,,,,,,,,0,,75,70
12113,note_on,22,0,1,,,,,,,,,,0,,75,0
12118,note_on,5,0,1,,,,,,,,,,0,,74,80
12121,note_on,38,0,3,,,,,,,,,,2,,46,68
12141,note_on,23,0,1,,,,,,,,,,0,,74,0
12178,note_on,37,0,1,,,,,,,,,,0,,70,75
12198,note_on,77,0,3,,,,,,,,,,2,,46,0
12200,note_on,22,0,1,,,,,,,,,,0,,70,0
12240,note_on,40,0,1,,,,,,,,,,0,,77,87
12241,note_on,43,0,3,,,,,,,,,,2,,50,71
12268,note_on,27,0,3,,,,,,,,,,2,,50,0
12297,note_on,29,0,3,,,,,,,,,,2,,48,68
12322,note_on,25,0,3,,,,,,,,,,2,,48,0
12362,note_on,40,0,3,,,,,,,,,,2,,50,68
12388,note_on,26,0,3,,,,,,,,,,2,,50,0
12409,note_on,169,0,1,,,,,,,,,,0,,77,0
12422,note_on,13,0,1,,,,,,,,,,0,,75,75
12423,note_on,35,0,3,,,,,,,,,,2,,46,68
12448,note_on,26,0,1,,,,,,,,,,0,,75,0
12449,note_on,1,0,1,,,,,,,,,,0,,74,66
12449,note_on,26,0,3,,,,,,,,,,2,,46,0
12477,note_on,28,0,1,,,,,,,,,,0,,74,0
12479,note_on,30,0,3,,,,,,,,,,2,,51,68
12481,note_on,4,0,1,,,,,,,,,,0,,79,89
12499,note_on,20,0,3,,,,,,,,,,2,,51,0
12538,note_on,39,0,3,,,,,,,,,,2,,50,68
12559,note_on,21,0,3,,,,,,,,,,2,,50,0
12599,note_on,40,0,3,,,,,,,,,,2,,51,68
12619,note_on,20,0,3,,,,,,,,,,2,,51,0
12656,note_on,175,0,1,,,,,,,,,,0,,79,0
12662,note_on,43,0,3,,,,,,,,,,2,,48,68
12666,note_on,10,0,1,,,,,,,,,,0,,77,72
12686,note_on,24,0,3,,,,,,,,,,2,,48,0
12688,note_on,22,0,1,,,,,,,,,,0,,77,0
12692,note_on,4,0,1,,,,,,,,,,0,,75,71
12719,note_on,27,0,1,,,,,,,,,,0,,75,0
12723,note_on,4,0,1,,,,,,,,,,0,,81,91
12724,note_on,38,0,3,,,,,,,,,,2,,53,68
12744,note_on,20,0,3,,,,,,,,,,2,,53,0
12783,note_on,39,0,3,,,,,,,,,,2,,51,68
12807,note_on,24,0,3,,,,,,,,,,2,,51,0
12848,note_on,41,0,3,,,,,,,,,,2,,53,68
12871,note_on,23,0,3,,,,,,,,,,2,,53,0
12890,note_on,167,0,1,,,,,,,,,,0,,81,0
12902,note_on,12,0,1,,,,,,,,,,0,,79,64
12910,note_on,39,0,3,,,,,,,,,,2,,50,68
12929,note_on,27,0,1,,,,,,,,,,0,,79,0
12931,note_on,2,0,1,,,,,,,,,,0,,77,73
12933,note_on,23,0,3,,,,,,,,,,2,,50,0
12960,note_on,29,0,1,,,,,,,,,,0,,77,0
12962,note_on,2,0,1,,,,,,,,,,0,,82,87
12968,note_on,35,0,3,,,,,,,,,,2,,55,68
12990,note_on,28,0,1,,,,,,,,,,0,,82,0
12993,note_on,25,0,3,,,,,,,,,,2,,55,0
13020,note_on,30,0,1,,,,,,,,,,0,,81,69
13025,note_on,32,0,3,,,,,,,,,,2,,57,68
13047,note_on,27,0,1,,,,,,,,,,0,,81,0
13049,note_on,2,0,1,,,,,,,,,,0,,79,82
13051,note_on,26,0,3,,,,,,,,,,2,,57,0
13075,note_on,26,0,1,,,,,,,,,,0,,79,0
13077,note_on,2,0,1,,,,,,,,,,0,,77,85
13080,note_on,29,0,3,,,,,,,,,,2,,58,68
13103,note_on,26,0,1,,,,,,,,,,0,,77,0
13106,note_on,26,0,3,,,,,,,,,,2,,58,0
13138,note_on,32,0,3,,,,,,,,,,2,,60,68
13139,note_on,36,0,1,,,,,,,,,,0,,76,80
13165,note_on,27,0,3,,,,,,,,,,2,,60,0
13166,note_on,27,0,1,,,,,,,,,,0,,76,0
13201,note_on,36,0,3,,,,,,,,,,2,,57,68
13202,note_on,36,0,1,,,,,,,,,,0,,77,91
13226,note_on,25,0,3,,,,,,,,,,2,,57,0
13262,note_on,36,0,3,,,,,,,,,,2,,55,68
13286,note_on,24,0,3,,,,,,,,,,2,,55,0
13325,note_on,39,0,3,,,,,,,,,,2,,57,68
13351,note_on,26,0,3,,,,,,,,,,2,,57,0
13362,note_on,160,0,1,,,,,,,,,,0,,77,0
13386,note_on,35,0,3,,,,,,,,,,2,,53,68
13411,note_on,25,0,3,,,,,,,,,,2,,53,0
13441,note_on,79,0,1,,,,,,,,,,0,,82,85
13450,note_on,39,0,3,,,,,,,,,,2,,55,68
13467,note_on,26,0,1,,,,,,,,,,0,,82,0
13475,note_on,25,0,3,,,,,,,,,,2,,55,0
13501,note_on,34,0,1,,,,,,,,,,0,,81,65
13507,note_on,32,0,3,,,,,,,,,,2,,57,68
13528,note_on,27,0,1,,,,,,,,,,0,,81,0
13531,note_on,3,0,1,,,,,,,,,,0,,79,69
13533,note_on,26,0,3,,,,,,,,,,2,,57,0
13557,note_on,26,0,1,,,,,,,,,,0,,79,0
13560,note_on,3,0,1,,,,,,,,,,0,,77,85
13562,note_on,29,0,3,,,,,,,,,,2,,58,68
13584,note_on,24,0,1,,,,,,,,,,0,,77,0
13588,note_on,26,0,3,,,,,,,,,,2,,58,0
13621,note_on,37,0,1,,,,,,,,,,0,,76,82
13622,note_on,34,0,3,,,,,,,,,,2,,60,68
13647,note_on,25,0,3,,,,,,,,,,2,,60,0
13648,note_on,27,0,1,,,,,,,,,,0,,76,0
13680,note_on,32,0,1,,,,,,,,,,0,,77,89
13682,note_on,35,0,3,,,,,,,,,,2,,57,68
13706,note_on,26,0,1,,,,,,,,,,0,,77,0
13706,note_on,24,0,3,,,,,,,,,,2,,57,0
13741,note_on,35,0,3,,,,,,,,,,2,,58,68
13741,note_on,35,0,1,,,,,,,,,,0,,75,71
13766,note_on,25,0,3,,,,,,,,,,2,,58,0
13768,note_on,27,0,1,,,,,,,,,,0,,75,0
13770,note_on,2,0,1,,,,,,,,,,0,,74,65
13799,note_on,29,0,1,,,,,,,,,,0,,74,0
13800,note_on,1,0,1,,,,,,,,,,0,,72,67
13802,note_on,36,0,3,,,,,,,,,,2,,57,68
13826,note_on,24,0,3,,,,,,,,,,2,,57,0
13827,note_on,27,0,1,,,,,,,,,,0,,72,0
13859,note_on,33,0,3,,,,,,,,,,2,,55,68
13859,note_on,32,0,1,,,,,,,,,,0,,70,85
13884,note_on,25,0,3,,,,,,,,,,2,,55,0
13886,note_on,27,0,1,,,,,,,,,,0,,70,0
13920,note_on,36,0,3,,,,,,,,,,2,,53,68
13922,note_on,36,0,1,,,,,,,,,,0,,72,70
13938,note_on,16,0,1,,,,,,,,,,0,,72,0
13938,note_on,0,0,1,,,,,,,,,,0,,74,65
13946,note_on,26,0,3,,,,,,,,,,2,,53,0
13957,note_on,19,0,1,,,,,,,,,,0,,74,0
13958,note_on,1,0,1,,,,,,,,,,0,,72,67
13975,note_on,17,0,1,,,,,,,,,,0,,72,0
13976,note_on,1,0,1,,,,,,,,,,0,,74,59
13983,note_on,37,0,3,,,,,,,,,,2,,51,68
13993,note_on,17,0,1,,,,,,,,,,0,,74,0
13994,note_on,1,0,1,,,,,,,,,,0,,72,64
14008,note_on,25,0,3,,,,,,,,,,2,,51,0
14010,note_on,16,0,1,,,,,,,,,,0,,72,0
14012,note_on,2,0,1,,,,,,,,,,0,,74,59
14028,note_on,16,0,1,,,,,,,,,,0,,74,0
14029,note_on,1,0,1,,,,,,,,,,0,,72,65
14039,note_on,31,0,3,,,,,,,,,,2,,53,68
14043,note_on,14,0,1,,,,,,,,,,0,,72,0
14043,note_on,0,0,1,,,,,,,,,,0,,74,59
14061,note_on,18,0,1,,,,,,,,,,0,,74,0
14062,note_on,1,0,1,,,,,,,,,,0,,72,65
14064,note_on,25,0,3,,,,,,,,,,2,,53,0
14075,note_on,13,0,1,,,,,,,,,,0,,72,0
14076,note_on,1,0,1,,,,,,,,,,0,,74,57
14093,note_on,17,0,1,,,,,,,,,,0,,74,0
14094,note_on,1,0,1,,,,,,,,,,0,,72,65
14106,note_on,42,0,3,,,,,,,,,,2,,41,68
14108,note_on,14,0,1,,,,,,,,,,0,,72,0
14108,note_on,0,0,1,,,,,,,,,,0,,74,55
14124,note_on,16,0,1,,,,,,,,,,0,,74,0
14126,note_on,2,0,1,,,,,,,,,,0,,72,63
14131,note_on,25,0,3,,,,,,,,,,2,,41,0
14143,note_on,17,0,1,,,,,,,,,,0,,72,0
14144,note_on,1,0,1,,,,,,,,,,0,,74,61
14158,note_on,14,0,1,,,,,,,,,,0,,72,65
14159,note_on,1,0,1,,,,,,,,,,0,,74,0
14170,note_on,39,0,3,,,,,,,,,,2,,46,69
14177,note_on,18,0,1,,,,,,,,,,0,,72,0
14177,note_on,0,0,1,,,,,,,,,,0,,70,61
14233,note_on,6453,0,2,,,,,,,,,,1,,77,82
14254,note_on,21,0,2,,,,,,,,,,1,,77,0
14272,note_on,102,0,3,,,,,,,,,,2,,46,0
14296,note_on,42,0,2,,,,,,,,,,1,,82,68
14304,note_on,127,0,1,,,,,,,,,,0,,70,0
14348,note_on,76,0,3,,,,,,,,,,2,,58,77
14367,set_tempo,14367,1,0,,,,,,530973,,,,,,,
14370,set_tempo,3,1,0,,,,,,535714,,,,,,,
14371,set_tempo,1,1,0,,,,,,540541,,,,,,,
14372,set_tempo,1,1,0,,,,,,545455,,,,,,,
14373,note_on,25,0,3,,,,,,,,,,2,,58,0
14373,set_tempo,1,1,0,,,,,,550459,,,,,,,
14374,set_tempo,1,1,0,,,,,,555556,,,,,,,
14376,set_tempo,2,1,0,,,,,,560748,,,,,,,
14378,set_tempo,2,1,0,,,,,,566038,,,,,,,
14379,set_tempo,1,1,0,,,,,,571429,,,,,,,
14380,set_tempo,1,1,0,,,,,,576923,,,,,,,
14382,set_tempo,2,1,0,,,,,,582524,,,,,,,
14383,set_tempo,1,1,0,,,,,,588235,,,,,,,
14384,set_tempo,1,1,0,,,,,,594059,,,,,,,
14386,set_tempo,2,1,0,,,,,,600000,,,,,,,
14388,set_tempo,2,1,0,,,,,,606061,,,,,,,
14389,set_tempo,1,1,0,,,,,,612245,,,,,,,
14390,set_tempo,1,1,0,,,,,,618557,,,,,,,
14391,set_tempo,1,1,0,,,,,,625000,,,,,,,
14392,set_tempo,1,1,0,,,,,,576923,,,,,,,
14394,set_tempo,2,1,0,,,,,,530973,,,,,,,
14406,note_on,33,0,3,,,,,,,,,,2,,50,77
14462,note_on,166,0,2,,,,,,,,,,1,,82,0
14464,note_on,58,0,3,,,,,,,,,,2,,50,0
14464,note_on,2,0,2,,,,,,,,,,1,,77,75
14466,note_on,2,0,3,,,,,,,,,,2,,48,70
14483,note_on,19,0,2,,,,,,,,,,1,,77,0
14485,note_on,19,0,3,,,,,,,,,,2,,48,0
14523,note_on,40,0,2,,,,,,,,,,1,,82,82
14525,note_on,40,0,3,,,,,,,,,,2,,46,78
14544,note_on,19,0,3,,,,,,,,,,2,,46,0
14546,note_on,23,0,2,,,,,,,,,,1,,82,0
14581,note_on,277,0,1,,,,,,,,,,0,,77,87
14584,note_on,38,0,2,,,,,,,,,,1,,84,79
14584,note_on,40,0,3,,,,,,,,,,2,,57,82
14601,note_on,17,0,3,,,,,,,,,,2,,57,0
14607,note_on,23,0,2,,,,,,,,,,1,,84,0
14608,note_on,27,0,1,,,,,,,,,,0,,77,0
14640,note_on,32,0,1,,,,,,,,,,0,,82,63
14642,note_on,41,0,3,,,,,,,,,,2,,58,77
14644,note_on,37,0,2,,,,,,,,,,1,,86,91
14742,note_on,100,0,3,,,,,,,,,,2,,58,0
14748,note_on,104,0,2,,,,,,,,,,1,,86,0
14757,note_on,117,0,1,,,,,,,,,,0,,82,0
14759,note_on,2,0,1,,,,,,,,,,0,,81,70
14761,note_on,13,0,2,,,,,,,,,,1,,84,91
14766,note_on,24,0,3,,,,,,,,,,2,,53,82
14858,note_on,92,0,3,,,,,,,,,,2,,53,0
14874,note_on,115,0,1,,,,,,,,,,0,,81,0
14875,note_on,114,0,2,,,,,,,,,,1,,84,0
14879,note_on,5,0,1,,,,,,,,,,0,,82,67
14886,note_on,11,0,2,,,,,,,,,,1,,82,82
14889,note_on,31,0,3,,,,,,,,,,2,,46,71
14941,note_on,55,0,2,,,,,,,,,,1,,82,0
14943,note_on,2,0,2,,,,,,,,,,1,,77,93
14947,note_on,0,0,3,,,,,,,,,,2,,48,76
14947,note_on,58,0,3,,,,,,,,,,2,,46,0
14968,note_on,25,0,2,,,,,,,,,,1,,77,0
14973,note_on,26,0,3,,,,,,,,,,2,,48,0
15004,note_on,36,0,2,,,,,,,,,,1,,79,78
15006,note_on,33,0,3,,,,,,,,,,2,,50,79
15020,note_on,141,0,1,,,,,,,,,,0,,82,0
15026,note_on,20,0,3,,,,,,,,,,2,,50,0
15060,note_on,40,0,1,,,,,,,,,,0,,86,78
15064,note_on,38,0,3,,,,,,,,,,2,,46,79
15088,note_on,24,0,3,,,,,,,,,,2,,46,0
15089,note_on,29,0,1,,,,,,,,,,0,,86,0
15121,note_on,32,0,1,,,,,,,,,,0,,84,65
15123,note_on,35,0,3,,,,,,,,,,2,,45,79
15152,note_on,29,0,3,,,,,,,,,,2,,45,0
15180,note_on,176,0,2,,,,,,,,,,1,,75,74
15181,note_on,1,0,2,,,,,,,,,,1,,79,0
15183,note_on,31,0,3,,,,,,,,,,2,,43,79
15211,note_on,28,0,3,,,,,,,,,,2,,43,0
15230,note_on,49,0,2,,,,,,,,,,1,,75,0
15240,note_on,10,0,2,,,,,,,,,,1,,77,89
15244,note_on,33,0,3,,,,,,,,,,2,,45,79
15262,note_on,22,0,2,,,,,,,,,,1,,77,0
15268,note_on,147,0,1,,,,,,,,,,0,,84,0
15270,note_on,26,0,3,,,,,,,,,,2,,45,0
15270,note_on,2,0,1,,,,,,,,,,0,,82,59
15299,note_on,29,0,1,,,,,,,,,,0,,81,66
15300,note_on,1,0,1,,,,,,,,,,0,,82,0
15301,note_on,39,0,2,,,,,,,,,,1,,72,73
15303,note_on,33,0,3,,,,,,,,,,2,,41,85
15324,note_on,23,0,2,,,,,,,,,,1,,72,0
15325,note_on,25,0,1,,,,,,,,,,0,,81,0
15327,note_on,2,0,1,,,,,,,,,,0,,79,72
15330,note_on,27,0,3,,,,,,,,,,2,,41,0
15356,note_on,29,0,1,,,,,,,,,,0,,79,0
15357,note_on,33,0,2,,,,,,,,,,1,,74,78
15358,note_on,2,0,1,,,,,,,,,,0,,77,75
15363,note_on,33,0,3,,,,,,,,,,2,,46,74
15379,note_on,22,0,2,,,,,,,,,,1,,74,0
15388,note_on,25,0,3,,,,,,,,,,2,,46,0
15417,note_on,38,0,2,,,,,,,,,,1,,70,71
15423,note_on,35,0,3,,,,,,,,,,2,,50,75
15443,note_on,26,0,2,,,,,,,,,,1,,70,0
15447,note_on,24,0,3,,,,,,,,,,2,,50,0
15479,note_on,121,0,1,,,,,,,,,,0,,77,0
15480,note_on,37,0,2,,,,,,,,,,1,,74,73
15482,note_on,35,0,3,,,,,,,,,,2,,48,73
15506,note_on,24,0,3,,,,,,,,,,2,,48,0
15535,note_on,56,0,1,,,,,,,,,,0,,77,85
15540,note_on,34,0,3,,,,,,,,,,2,,46,73
15561,note_on,26,0,1,,,,,,,,,,0,,77,0
15568,note_on,28,0,3,,,,,,,,,,2,,46,0
15588,note_on,108,0,2,,,,,,,,,,1,,74,0
15598,note_on,37,0,1,,,,,,,,,,0,,79,74
15602,note_on,34,0,3,,,,,,,,,,2,,51,77
15603,note_on,15,0,2,,,,,,,,,,1,,72,75
15713,note_on,111,0,3,,,,,,,,,,2,,51,0
15714,note_on,116,0,1,,,,,,,,,,0,,79,0
15717,note_on,3,0,1,,,,,,,,,,0,,74,63
15718,note_on,115,0,2,,,,,,,,,,1,,70,73
15722,note_on,9,0,3,,,,,,,,,,2,,52,86
15723,note_on,5,0,2,,,,,,,,,,1,,72,0
15824,note_on,102,0,3,,,,,,,,,,2,,52,0
15835,note_on,118,0,1,,,,,,,,,,0,,74,0
15836,note_on,1,0,1,,,,,,,,,,0,,72,67
15838,note_on,115,0,2,,,,,,,,,,1,,70,0
15839,note_on,15,0,3,,,,,,,,,,2,,53,69
15844,note_on,6,0,2,,,,,,,,,,1,,69,82
15865,note_on,29,0,1,,,,,,,,,,0,,72,0
15877,note_on,33,0,2,,,,,,,,,,1,,69,0
15899,note_on,34,0,1,,,,,,,,,,0,,77,82
15902,note_on,25,0,2,,,,,,,,,,1,,81,75
15959,note_on,60,0,1,,,,,,,,,,0,,79,87
15960,note_on,58,0,2,,,,,,,,,,1,,81,0
15961,note_on,2,0,1,,,,,,,,,,0,,77,0
15961,note_on,1,0,2,,,,,,,,,,1,,82,74
15965,note_on,126,0,3,,,,,,,,,,2,,53,0
16018,note_on,57,0,1,,,,,,,,,,0,,77,78
16019,note_on,58,0,2,,,,,,,,,,1,,82,0
16020,note_on,1,0,2,,,,,,,,,,1,,81,79
16021,note_on,3,0,1,,,,,,,,,,0,,79,0
16080,note_on,60,0,2,,,,,,,,,,1,,81,0
16080,note_on,59,0,1,,,,,,,,,,0,,86,74
16083,note_on,118,0,3,,,,,,,,,,2,,58,89
16083,note_on,3,0,1,,,,,,,,,,0,,77,0
16110,note_on,27,0,1,,,,,,,,,,0,,86,0
16138,note_on,28,0,1,,,,,,,,,,0,,82,67
16143,note_on,60,0,3,,,,,,,,,,2,,57,77
16145,note_on,2,0,3,,,,,,,,,,2,,58,0
16167,note_on,22,0,3,,,,,,,,,,2,,57,0
16204,note_on,37,0,3,,,,,,,,,,2,,55,68
16223,note_on,19,0,3,,,,,,,,,,2,,55,0
16256,note_on,0,0,1,,,,,,,,,,0,,81,70
16256,note_on,118,0,1,,,,,,,,,,0,,82,0
16260,note_on,37,0,3,,,,,,,,,,2,,53,89
16280,note_on,20,0,3,,,,,,,,,,2,,53,0
16319,note_on,63,0,1,,,,,,,,,,0,,81,0
16321,note_on,2,0,1,,,,,,,,,,0,,79,75
16322,note_on,42,0,3,,,,,,,,,,2,,51,67
16349,note_on,28,0,1,,,,,,,,,,0,,79,0
16382,note_on,33,0,1,,,,,,,,,,0,,75,62
16383,note_on,303,0,2,,,,,,,,,,1,,79,89
16421,note_on,99,0,3,,,,,,,,,,2,,51,0
16440,note_on,57,0,2,,,,,,,,,,1,,79,0
16440,note_on,0,0,2,,,,,,,,,,1,,81,77
16441,note_on,59,0,1,,,,,,,,,,0,,75,0
16442,note_on,1,0,1,,,,,,,,,,0,,77,73
16446,note_on,25,0,3,,,,,,,,,,2,,48,76
16503,note_on,61,0,1,,,,,,,,,,0,,77,0
16503,note_on,0,0,1,,,,,,,,,,0,,75,57
16503,note_on,63,0,2,,,,,,,,,,1,,81,0
16504,note_on,1,0,2,,,,,,,,,,1,,79,86
16540,note_on,94,0,3,,,,,,,,,,2,,48,0
16562,note_on,58,0,2,,,,,,,,,,1,,79,0
16563,note_on,60,0,1,,,,,,,,,,0,,75,0
16564,note_on,1,0,1,,,,,,,,,,0,,84,78
16565,note_on,25,0,3,,,,,,,,,,2,,57,70
16591,note_on,27,0,1,,,,,,,,,,0,,84,0
16624,note_on,33,0,1,,,,,,,,,,0,,81,72
16628,note_on,63,0,3,,,,,,,,,,2,,55,78
16630,note_on,2,0,3,,,,,,,,,,2,,57,0
16655,note_on,25,0,3,,,,,,,,,,2,,55,0
16684,note_on,29,0,3,,,,,,,,,,2,,53,79
16705,note_on,21,0,3,,,,,,,,,,2,,53,0
16741,note_on,117,0,1,,,,,,,,,,0,,81,0
16742,note_on,1,0,1,,,,,,,,,,0,,79,71
16745,note_on,40,0,3,,,,,,,,,,2,,51,89
16768,note_on,23,0,3,,,,,,,,,,2,,51,0
16800,note_on,58,0,1,,,,,,,,,,0,,79,0
16801,note_on,1,0,1,,,,,,,,,,0,,77,89
16803,note_on,35,0,3,,,,,,,,,,2,,50,76
16829,note_on,28,0,1,,,,,,,,,,0,,77,0
16861,note_on,299,0,2,,,,,,,,,,1,,77,82
16864,note_on,35,0,1,,,,,,,,,,0,,74,66
16899,note_on,96,0,3,,,,,,,,,,2,,50,0
16919,note_on,55,0,1,,,,,,,,,,0,,74,0
16919,note_on,0,0,1,,,,,,,,,,0,,75,66
16922,note_on,0,0,2,,,,,,,,,,1,,79,82
16922,note_on,61,0,2,,,,,,,,,,1,,77,0
16924,note_on,25,0,3,,,,,,,,,,2,,46,71
16979,note_on,60,0,1,,,,,,,,,,0,,75,0
16980,note_on,1,0,1,,,,,,,,,,0,,74,65
16984,note_on,62,0,2,,,,,,,,,,1,,79,0
16986,note_on,2,0,2,,,,,,,,,,1,,77,86
17010,note_on,86,0,3,,,,,,,,,,2,,46,0
17036,note_on,50,0,2,,,,,,,,,,1,,77,0
17041,note_on,61,0,1,,,,,,,,,,0,,74,0
17041,note_on,0,0,1,,,,,,,,,,0,,82,60
17042,note_on,32,0,3,,,,,,,,,,2,,50,75
17073,note_on,32,0,1,,,,,,,,,,0,,82,0
17100,note_on,27,0,1,,,,,,,,,,0,,74,63
17105,note_on,69,0,2,,,,,,,,,,1,,77,86
17132,note_on,90,0,3,,,,,,,,,,2,,50,0
17159,note_on,59,0,1,,,,,,,,,,0,,75,64
17160,note_on,55,0,2,,,,,,,,,,1,,77,0
17161,note_on,1,0,2,,,,,,,,,,1,,79,84
17162,note_on,30,0,3,,,,,,,,,,2,,46,75
17162,note_on,3,0,1,,,,,,,,,,0,,74,0
17217,note_on,55,0,1,,,,,,,,,,0,,75,0
17219,note_on,2,0,1,,,,,,,,,,0,,74,59
17219,note_on,58,0,2,,,,,,,,,,1,,79,0
17220,note_on,1,0,2,,,,,,,,,,1,,77,91
17246,note_on,84,0,3,,,,,,,,,,2,,46,0
17269,note_on,49,0,2,,,,,,,,,,1,,77,0
17280,note_on,61,0,1,,,,,,,,,,0,,82,74
17282,note_on,36,0,3,,,,,,,,,,2,,50,75
17282,note_on,2,0,1,,,,,,,,,,0,,74,0
17310,note_on,28,0,1,,,,,,,,,,0,,82,0
17340,note_on,30,0,1,,,,,,,,,,0,,77,85
17364,note_on,24,0,1,,,,,,,,,,0,,77,0
17384,note_on,102,0,3,,,,,,,,,,2,,50,0
17399,note_on,35,0,1,,,,,,,,,,0,,74,63
17403,note_on,19,0,3,,,,,,,,,,2,,46,75
17422,note_on,23,0,1,,,,,,,,,,0,,74,0
17457,note_on,35,0,1,,,,,,,,,,0,,70,69
17459,note_on,190,0,2,,,,,,,,,,1,,74,70
17483,note_on,26,0,1,,,,,,,,,,0,,70,0
17485,note_on,26,0,2,,,,,,,,,,1,,74,0
17487,note_on,84,0,3,,,,,,,,,,2,,46,0
17516,note_on,31,0,2,,,,,,,,,,1,,69,63
17518,note_on,35,0,1,,,,,,,,,,0,,72,63
17518,note_on,31,0,3,,,,,,,,,,2,,53,75
17542,note_on,24,0,1,,,,,,,,,,0,,72,0
17544,note_on,2,0,1,,,,,,,,,,0,,74,62
17564,note_on,20,0,1,,,,,,,,,,0,,74,0
17565,note_on,1,0,1,,,,,,,,,,0,,72,62
17584,note_on,19,0,1,,,,,,,,,,0,,72,0
17585,note_on,1,0,1,,,,,,,,,,0,,74,64
17604,note_on,0,0,1,,,,,,,,,,0,,72,63
17604,note_on,19,0,1,,,,,,,,,,0,,74,0
17621,note_on,0,0,1,,,,,,,,,,0,,74,67
17621,note_on,17,0,1,,,,,,,,,,0,,72,0
17625,note_on,107,0,3,,,,,,,,,,2,,53,0
17640,note_on,19,0,1,,,,,,,,,,0,,74,0
17641,note_on,16,0,3,,,,,,,,,,2,,41,74
17641,note_on,1,0,1,,,,,,,,,,0,,72,64
17658,note_on,0,0,1,,,,,,,,,,0,,74,62
17658,note_on,17,0,1,,,,,,,,,,0,,72,0
17662,note_on,146,0,2,,,,,,,,,,1,,69,0
17677,note_on,19,0,1,,,,,,,,,,0,,74,0
17678,note_on,1,0,1,,,,,,,,,,0,,72,63
17694,note_on,16,0,1,,,,,,,,,,0,,72,0
17699,note_on,37,0,2,,,,,,,,,,1,,77,74
17704,note_on,10,0,1,,,,,,,,,,0,,70,59
17727,note_on,28,0,2,,,,,,,,,,1,,77,0
17729,note_on,25,0,1,,,,,,,,,,0,,70,0
17748,note_on,107,0,3,,,,,,,,,,2,,41,0
17762,note_on,35,0,2,,,,,,,,,,1,,74,71
17765,note_on,36,0,1,,,,,,,,,,0,,70,69
17767,note_on,19,0,3,,,,,,,,,,2,,46,73
17822,note_on,57,0,1,,,,,,,,,,0,,70,0
17824,note_on,2,0,1,,,,,,,,,,0,,72,67
17849,note_on,87,0,2,,,,,,,,,,1,,74,0
17850,note_on,26,0,1,,,,,,,,,,0,,72,0
17850,note_on,0,0,1,,,,,,,,,,0,,74,66
17881,note_on,31,0,1,,,,,,,,,,0,,75,69
17881,note_on,114,0,3,,,,,,,,,,2,,46,0
17882,note_on,1,0,1,,,,,,,,,,0,,74,0
17906,note_on,24,0,1,,,,,,,,,,0,,75,0
17909,note_on,3,0,1,,,,,,,,,,0,,77,80
17935,note_on,26,0,1,,,,,,,,,,0,,77,0
17938,note_on,3,0,1,,,,,,,,,,0,,79,72
17966,note_on,28,0,1,,,,,,,,,,0,,79,0
17967,note_on,1,0,1,,,,,,,,,,0,,81,80
17994,note_on,27,0,1,,,,,,,,,,0,,81,0
17996,note_on,2,0,1,,,,,,,,,,0,,82,71
18000,note_on,119,0,3,,,,,,,,,,2,,50,76
18021,note_on,25,0,1,,,,,,,,,,0,,82,0
18057,note_on,36,0,1,,,,,,,,,,0,,77,75
18083,note_on,26,0,1,,,,,,,,,,0,,77,0
18099,note_on,99,0,3,,,,,,,,,,2,,50,0
18119,note_on,36,0,1,,,,,,,,,,0,,74,74
18120,note_on,21,0,3,,,,,,,,,,2,,46,73
18135,note_on,16,0,1,,,,,,,,,,0,,74,0
18141,note_on,6,0,1,,,,,,,,,,0,,75,61
18153,note_on,12,0,1,,,,,,,,,,0,,74,61
18154,note_on,1,0,1,,,,,,,,,,0,,75,0
18167,note_on,13,0,1,,,,,,,,,,0,,75,39
18170,note_on,3,0,1,,,,,,,,,,0,,74,0
18180,note_on,10,0,1,,,,,,,,,,0,,72,63
18183,note_on,3,0,1,,,,,,,,,,0,,75,0
18211,note_on,28,0,1,,,,,,,,,,0,,72,0
18214,note_on,3,0,1,,,,,,,,,,0,,70,67
18220,note_on,100,0,3,,,,,,,,,,2,,46,0
18238,note_on,24,0,1,,,,,,,,,,0,,70,0
18242,note_on,22,0,3,,,,,,,,,,2,,50,76
18245,note_on,7,0,1,,,,,,,,,,0,,82,69
18275,note_on,30,0,1,,,,,,,,,,0,,82,0
18302,note_on,27,0,1,,,,,,,,,,0,,77,89
18330,note_on,28,0,1,,,,,,,,,,0,,77,0
18343,note_on,101,0,3,,,,,,,,,,2,,50,0
18364,note_on,21,0,3,,,,,,,,,,2,,46,61
18365,note_on,35,0,1,,,,,,,,,,0,,74,73
18389,note_on,24,0,1,,,,,,,,,,0,,74,0
18389,note_on,0,0,1,,,,,,,,,,0,,75,64
18406,note_on,17,0,1,,,,,,,,,,0,,74,59
18409,note_on,3,0,1,,,,,,,,,,0,,75,0
18420,note_on,11,0,1,,,,,,,,,,0,,72,65
18425,note_on,5,0,1,,,,,,,,,,0,,74,0
18448,note_on,23,0,1,,,,,,,,,,0,,70,62
18449,note_on,1,0,1,,,,,,,,,,0,,72,0
18465,note_on,101,0,3,,,,,,,,,,2,,46,0
18477,note_on,28,0,1,,,,,,,,,,0,,77,87
18480,note_on,3,0,1,,,,,,,,,,0,,70,0
18481,note_on,16,0,3,,,,,,,,,,2,,45,86
18525,note_on,44,0,3,,,,,,,,,,2,,45,0
18542,note_on,17,0,3,,,,,,,,,,2,,53,79
18605,note_on,63,0,3,,,,,,,,,,2,,53,0
18606,note_on,1,0,3,,,,,,,,,,2,,58,79
18634,note_on,28,0,3,,,,,,,,,,2,,58,0
18667,note_on,33,0,3,,,,,,,,,,2,,57,78
18674,note_on,194,0,1,,,,,,,,,,0,,77,0
18687,note_on,20,0,3,,,,,,,,,,2,,57,0
18723,note_on,49,0,1,,,,,,,,,,0,,82,66
18728,note_on,41,0,3,,,,,,,,,,2,,55,77
18786,note_on,63,0,1,,,,,,,,,,0,,86,74
18790,note_on,4,0,1,,,,,,,,,,0,,82,0
18849,note_on,59,0,1,,,,,,,,,,0,,86,0
18851,note_on,2,0,1,,,,,,,,,,0,,82,66
18897,note_on,169,0,3,,,,,,,,,,2,,55,0
18905,note_on,8,0,3,,,,,,,,,,2,,51,75
18906,note_on,0,0,1,,,,,,,,,,0,,79,89
18906,note_on,55,0,1,,,,,,,,,,0,,82,0
18926,note_on,21,0,3,,,,,,,,,,2,,51,0
18939,note_on,33,0,1,,,,,,,,,,0,,79,0
18961,note_on,35,0,3,,,,,,,,,,2,,48,82
18965,note_on,26,0,1,,,,,,,,,,0,,75,66
19021,note_on,60,0,3,,,,,,,,,,2,,48,0
19023,note_on,2,0,3,,,,,,,,,,2,,50,74
19024,note_on,59,0,1,,,,,,,,,,0,,77,82
19025,note_on,1,0,1,,,,,,,,,,0,,75,0
19043,note_on,20,0,3,,,,,,,,,,2,,50,0
19053,note_on,0,0,1,,,,,,,,,,0,,79,73
19053,note_on,28,0,1,,,,,,,,,,0,,77,0
19083,note_on,40,0,3,,,,,,,,,,2,,51,79
19086,note_on,0,0,1,,,,,,,,,,0,,77,78
19086,note_on,33,0,1,,,,,,,,,,0,,79,0
19102,note_on,19,0,3,,,,,,,,,,2,,51,0
19141,note_on,39,0,3,,,,,,,,,,2,,48,89
19144,note_on,0,0,1,,,,,,,,,,0,,75,70
19144,note_on,58,0,1,,,,,,,,,,0,,77,0
19160,note_on,19,0,3,,,,,,,,,,2,,48,0
19184,note_on,40,0,1,,,,,,,,,,0,,75,0
19201,note_on,41,0,3,,,,,,,,,,2,,53,77
19208,note_on,24,0,1,,,,,,,,,,0,,81,73
19268,note_on,60,0,1,,,,,,,,,,0,,81,0
19269,note_on,1,0,1,,,,,,,,,,0,,84,79
19330,note_on,61,0,1,,,,,,,,,,0,,81,76
19331,note_on,1,0,1,,,,,,,,,,0,,84,0
19374,note_on,173,0,3,,,,,,,,,,2,,53,0
19385,note_on,11,0,3,,,,,,,,,,2,,50,71
19386,note_on,55,0,1,,,,,,,,,,0,,81,0
19389,note_on,3,0,1,,,,,,,,,,0,,77,82
19404,note_on,19,0,3,,,,,,,,,,2,,50,0
19419,note_on,30,0,1,,,,,,,,,,0,,77,0
19444,note_on,40,0,3,,,,,,,,,,2,,46,70
19444,note_on,25,0,1,,,,,,,,,,0,,74,68
19500,note_on,56,0,3,,,,,,,,,,2,,48,75
19502,note_on,58,0,1,,,,,,,,,,0,,75,63
19502,note_on,2,0,3,,,,,,,,,,2,,46,0
19503,note_on,1,0,1,,,,,,,,,,0,,74,0
19522,note_on,20,0,3,,,,,,,,,,2,,48,0
19529,note_on,26,0,1,,,,,,,,,,0,,75,0
19531,note_on,2,0,1,,,,,,,,,,0,,77,77
19559,note_on,37,0,3,,,,,,,,,,2,,50,75
19561,note_on,0,0,1,,,,,,,,,,0,,75,58
19561,note_on,30,0,1,,,,,,,,,,0,,77,0
19578,note_on,19,0,3,,,,,,,,,,2,,50,0
19618,note_on,40,0,3,,,,,,,,,,2,,46,71
19620,note_on,0,0,1,,,,,,,,,,0,,74,69
19620,note_on,59,0,1,,,,,,,,,,0,,75,0
19639,note_on,21,0,3,,,,,,,,,,2,,46,0
19663,note_on,43,0,1,,,,,,,,,,0,,74,0
19680,note_on,41,0,3,,,,,,,,,,2,,58,73
19683,note_on,20,0,1,,,,,,,,,,0,,79,82
19744,note_on,0,0,1,,,,,,,,,,0,,82,65
19744,note_on,61,0,1,,,,,,,,,,0,,79,0
19806,note_on,62,0,1,,,,,,,,,,0,,79,78
19809,note_on,3,0,1,,,,,,,,,,0,,82,0
19859,note_on,179,0,3,,,,,,,,,,2,,58,0
19863,note_on,0,0,1,,,,,,,,,,0,,75,63
19863,note_on,4,0,3,,,,,,,,,,2,,55,76
19863,note_on,54,0,1,,,,,,,,,,0,,79,0
19887,note_on,24,0,3,,,,,,,,,,2,,55,0
19901,note_on,38,0,1,,,,,,,,,,0,,75,0
19922,note_on,35,0,3,,,,,,,,,,2,,57,78
19926,note_on,25,0,1,,,,,,,,,,0,,73,65
19981,note_on,59,0,3,,,,,,,,,,2,,59,86
19983,note_on,2,0,3,,,,,,,,,,2,,57,0
19998,note_on,15,0,3,,,,,,,,,,2,,59,0
20037,note_on,39,0,3,,,,,,,,,,2,,61,77
20060,note_on,23,0,3,,,,,,,,,,2,,61,0
20061,note_on,135,0,1,,,,,,,,,,0,,73,0
20098,note_on,37,0,1,,,,,,,,,,0,,81,63
20099,note_on,39,0,3,,,,,,,,,,2,,57,67
20121,note_on,22,0,3,,,,,,,,,,2,,57,0
20157,note_on,59,0,1,,,,,,,,,,0,,82,71
20159,note_on,2,0,1,,,,,,,,,,0,,81,0
20164,note_on,43,0,3,,,,,,,,,,2,,45,77
20223,note_on,64,0,1,,,,,,,,,,0,,82,0
20224,note_on,1,0,1,,,,,,,,,,0,,81,65
20252,note_on,0,0,1,,,,,,,,,,0,,79,67
20252,note_on,28,0,1,,,,,,,,,,0,,81,0
20280,note_on,28,0,1,,,,,,,,,,0,,79,0
20281,note_on,1,0,1,,,,,,,,,,0,,81,71
20340,note_on,59,0,1,,,,,,,,,,0,,81,0
20341,note_on,1,0,1,,,,,,,,,,0,,79,67
20368,note_on,27,0,1,,,,,,,,,,0,,79,0
20370,note_on,2,0,1,,,,,,,,,,0,,77,68
20400,note_on,30,0,1,,,,,,,,,,0,,79,79
20401,note_on,1,0,1,,,,,,,,,,0,,77,0
20461,note_on,60,0,1,,,,,,,,,,0,,79,0
20463,note_on,2,0,1,,,,,,,,,,0,,77,68
20490,note_on,27,0,1,,,,,,,,,,0,,77,0
20491,note_on,1,0,1,,,,,,,,,,0,,76,62
20520,note_on,29,0,1,,,,,,,,,,0,,76,0
20521,note_on,1,0,1,,,,,,,,,,0,,77,75
20585,note_on,64,0,1,,,,,,,,,,0,,77,0
20586,note_on,1,0,1,,,,,,,,,,0,,76,61
20612,note_on,26,0,1,,,,,,,,,,0,,76,0
20615,note_on,3,0,1,,,,,,,,,,0,,74,59
20645,note_on,30,0,1,,,,,,,,,,0,,73,59
20648,note_on,3,0,1,,,,,,,,,,0,,74,0
20704,note_on,56,0,1,,,,,,,,,,0,,73,0
20704,note_on,0,0,1,,,,,,,,,,0,,69,65
20764,note_on,60,0,1,,,,,,,,,,0,,73,68
20766,note_on,2,0,1,,,,,,,,,,0,,69,0
20824,note_on,58,0,1,,,,,,,,,,0,,76,84
20825,note_on,1,0,1,,,,,,,,,,0,,73,0
20862,note_on,37,0,1,,,,,,,,,,0,,76,0
20883,note_on,21,0,1,,,,,,,,,,0,,82,78
20943,note_on,60,0,1,,,,,,,,,,0,,82,0
20944,note_on,1,0,1,,,,,,,,,,0,,80,68
21001,note_on,57,0,1,,,,,,,,,,0,,80,0
21003,note_on,2,0,1,,,,,,,,,,0,,81,74
21064,note_on,0,0,1,,,,,,,,,,0,,78,63
21064,note_on,61,0,1,,,,,,,,,,0,,81,0
21126,note_on,0,0,1,,,,,,,,,,0,,79,73
21126,note_on,62,0,1,,,,,,,,,,0,,78,0
21184,note_on,58,0,1,,,,,,,,,,0,,79,0
21185,note_on,1,0,1,,,,,,,,,,0,,76,69
21244,note_on,59,0,1,,,,,,,,,,0,,76,0
21244,note_on,0,0,1,,,,,,,,,,0,,77,73
21302,note_on,58,0,1,,,,,,,,,,0,,77,0
21303,note_on,1,0,1,,,,,,,,,,0,,74,74
21334,note_on,31,0,1,,,,,,,,,,0,,74,0
21363,note_on,29,0,1,,,,,,,,,,0,,82,63
21423,note_on,60,0,1,,,,,,,,,,0,,73,59
21424,note_on,1,0,1,,,,,,,,,,0,,82,0
21482,note_on,58,0,1,,,,,,,,,,0,,73,0
21483,note_on,1,0,1,,,,,,,,,,0,,74,66
21542,note_on,59,0,1,,,,,,,,,,0,,74,0
21542,note_on,0,0,1,,,,,,,,,,0,,79,76
21577,note_on,35,0,1,,,,,,,,,,0,,79,0
21579,note_on,1415,0,3,,,,,,,,,,2,,45,0
21599,note_on,20,0,3,,,,,,,,,,2,,57,73
21605,note_on,28,0,1,,,,,,,,,,0,,77,79
21701,note_on,96,0,1,,,,,,,,,,0,,77,0
21703,note_on,104,0,3,,,,,,,,,,2,,57,0
21720,note_on,17,0,3,,,,,,,,,,2,,45,75
21725,note_on,24,0,1,,,,,,,,,,0,,77,82
21740,note_on,15,0,1,,,,,,,,,,0,,77,0
21740,note_on,0,0,1,,,,,,,,,,0,,76,69
21752,note_on,12,0,1,,,,,,,,,,0,,76,0
21752,note_on,0,0,1,,,,,,,,,,0,,77,79
21767,note_on,15,0,1,,,,,,,,,,0,,77,0
21768,note_on,1,0,1,,,,,,,,,,0,,76,70
21778,note_on,10,0,1,,,,,,,,,,0,,76,0
21779,note_on,1,0,1,,,,,,,,,,0,,77,73
21792,note_on,13,0,1,,,,,,,,,,0,,77,0
21794,note_on,2,0,1,,,,,,,,,,0,,76,66
21804,note_on,10,0,1,,,,,,,,,,0,,76,0
21806,note_on,2,0,1,,,,,,,,,,0,,77,71
21817,note_on,11,0,1,,,,,,,,,,0,,77,0
21819,note_on,2,0,1,,,,,,,,,,0,,76,71
21833,note_on,14,0,1,,,,,,,,,,0,,77,79
21833,note_on,113,0,3,,,,,,,,,,2,,45,0
21834,note_on,1,0,1,,,,,,,,,,0,,76,0
21842,note_on,9,0,3,,,,,,,,,,2,,50,66
21844,note_on,2,0,3,,,,,,,,,,2,,50,76
21846,note_on,12,0,1,,,,,,,,,,0,,77,0
21846,note_on,0,0,1,,,,,,,,,,0,,76,65
21856,note_on,0,0,1,,,,,,,,,,0,,74,67
21856,note_on,10,0,1,,,,,,,,,,0,,76,0
21900,note_on,4051,0,2,,,,,,,,,,1,,69,68
21919,note_on,19,0,2,,,,,,,,,,1,,69,0
21957,note_on,38,0,2,,,,,,,,,,1,,74,74
21976,note_on,132,0,3,,,,,,,,,,2,,50,0
21979,note_on,123,0,1,,,,,,,,,,0,,74,0
21985,note_on,9,0,3,,,,,,,,,,2,,50,0
22017,note_on,32,0,3,,,,,,,,,,2,,62,71
22039,note_on,22,0,3,,,,,,,,,,2,,62,0
22077,note_on,38,0,3,,,,,,,,,,2,,53,69
22134,note_on,177,0,2,,,,,,,,,,1,,74,0
22135,note_on,1,0,2,,,,,,,,,,1,,69,70
22137,note_on,60,0,3,,,,,,,,,,2,,52,75
22138,note_on,1,0,3,,,,,,,,,,2,,53,0
22158,note_on,23,0,2,,,,,,,,,,1,,69,0
22161,note_on,23,0,3,,,,,,,,,,2,,52,0
22191,note_on,33,0,2,,,,,,,,,,1,,74,72
22194,note_on,33,0,3,,,,,,,,,,2,,50,74
22215,note_on,21,0,3,,,,,,,,,,2,,50,0
22215,note_on,24,0,2,,,,,,,,,,1,,74,0
22253,note_on,38,0,2,,,,,,,,,,1,,76,74
22253,note_on,38,0,3,,,,,,,,,,2,,61,77
22261,note_on,282,0,1,,,,,,,,,,0,,81,69
22276,note_on,23,0,2,,,,,,,,,,1,,76,0
22277,note_on,24,0,3,,,,,,,,,,2,,61,0
22283,note_on,22,0,1,,,,,,,,,,0,,81,0
22318,note_on,42,0,2,,,,,,,,,,1,,77,76
22319,note_on,42,0,3,,,,,,,,,,2,,62,69
22322,note_on,39,0,1,,,,,,,,,,0,,86,74
22427,note_on,108,0,3,,,,,,,,,,2,,62,0
22438,note_on,120,0,2,,,,,,,,,,1,,77,0
22439,note_on,1,0,2,,,,,,,,,,1,,76,77
22439,note_on,117,0,1,,,,,,,,,,0,,86,0
22440,note_on,1,0,1,,,,,,,,,,0,,85,74
22445,note_on,18,0,3,,,,,,,,,,2,,57,79
22544,note_on,99,0,3,,,,,,,,,,2,,57,0
22561,note_on,121,0,1,,,,,,,,,,0,,85,0
22561,note_on,17,0,3,,,,,,,,,,2,,50,73
22563,note_on,124,0,2,,,,,,,,,,1,,74,70
22564,note_on,3,0,1,,,,,,,,,,0,,86,72
22564,note_on,1,0,2,,,,,,,,,,1,,76,0
22590,note_on,26,0,2,,,,,,,,,,1,,74,0
22622,note_on,32,0,2,,,,,,,,,,1,,69,78
22645,note_on,23,0,2,,,,,,,,,,1,,69,0
22678,note_on,33,0,2,,,,,,,,,,1,,70,65
22687,note_on,126,0,3,,,,,,,,,,2,,50,0
22694,note_on,130,0,1,,,,,,,,,,0,,86,0
22736,note_on,49,0,3,,,,,,,,,,2,,50,75
22743,note_on,49,0,1,,,,,,,,,,0,,77,78
22756,note_on,20,0,3,,,,,,,,,,2,,50,0
22768,note_on,25,0,1,,,,,,,,,,0,,77,0
22798,note_on,42,0,3,,,,,,,,,,2,,49,70
22804,note_on,36,0,1,,,,,,,,,,0,,76,76
22825,note_on,27,0,3,,,,,,,,,,2,,49,0
22858,note_on,180,0,2,,,,,,,,,,1,,70,0
22858,note_on,0,0,2,,,,,,,,,,1,,67,74
22860,note_on,35,0,3,,,,,,,,,,2,,47,68
22881,note_on,21,0,3,,,,,,,,,,2,,47,0
22881,note_on,23,0,2,,,,,,,,,,1,,67,0
22920,note_on,39,0,2,,,,,,,,,,1,,69,74
22921,note_on,40,0,3,,,,,,,,,,2,,49,74
22940,note_on,20,0,2,,,,,,,,,,1,,69,0
22943,note_on,22,0,3,,,,,,,,,,2,,49,0
22950,note_on,146,0,1,,,,,,,,,,0,,76,0
22952,note_on,2,0,1,,,,,,,,,,0,,74,57
22978,note_on,38,0,2,,,,,,,,,,1,,64,77
22979,note_on,27,0,1,,,,,,,,,,0,,74,0
22980,note_on,37,0,3,,,,,,,,,,2,,45,75
22980,note_on,1,0,1,,,,,,,,,,0,,73,59
22998,note_on,20,0,2,,,,,,,,,,1,,64,0
23002,note_on,22,0,3,,,,,,,,,,2,,45,0
23005,note_on,25,0,1,,,,,,,,,,0,,73,0
23006,note_on,1,0,1,,,,,,,,,,0,,71,59
23036,note_on,38,0,2,,,,,,,,,,1,,65,77
23037,note_on,31,0,1,,,,,,,,,,0,,69,75
23038,note_on,1,0,1,,,,,,,,,,0,,71,0
23042,note_on,40,0,3,,,,,,,,,,2,,50,69
23059,note_on,23,0,2,,,,,,,,,,1,,65,0
23066,note_on,24,0,3,,,,,,,,,,2,,50,0
23097,note_on,38,0,2,,,,,,,,,,1,,62,73
23101,note_on,35,0,3,,,,,,,,,,2,,53,70
23120,note_on,23,0,2,,,,,,,,,,1,,62,0
23127,note_on,26,0,3,,,,,,,,,,2,,53,0
23162,note_on,35,0,3,,,,,,,,,,2,,52,70
23162,note_on,42,0,2,,,,,,,,,,1,,77,78
23168,note_on,130,0,1,,,,,,,,,,0,,69,0
23185,note_on,23,0,3,,,,,,,,,,2,,52,0
23218,note_on,50,0,1,,,,,,,,,,0,,81,73
23223,note_on,38,0,3,,,,,,,,,,2,,50,75
23245,note_on,27,0,1,,,,,,,,,,0,,81,0
23248,note_on,25,0,3,,,,,,,,,,2,,50,0
23277,note_on,32,0,1,,,,,,,,,,0,,82,63
23280,note_on,118,0,2,,,,,,,,,,1,,77,0
23282,note_on,2,0,2,,,,,,,,,,1,,76,79
23283,note_on,35,0,3,,,,,,,,,,2,,55,65
23387,note_on,105,0,2,,,,,,,,,,1,,76,0
23389,note_on,106,0,3,,,,,,,,,,2,,55,0
23396,note_on,119,0,1,,,,,,,,,,0,,82,0
23399,note_on,3,0,1,,,,,,,,,,0,,77,67
23400,note_on,13,0,2,,,,,,,,,,1,,74,65
23402,note_on,13,0,3,,,,,,,,,,2,,56,77
23507,note_on,105,0,3,,,,,,,,,,2,,56,0
23514,note_on,115,0,1,,,,,,,,,,0,,77,0
23517,note_on,3,0,1,,,,,,,,,,0,,76,74
23519,note_on,119,0,2,,,,,,,,,,1,,73,63
23521,note_on,2,0,2,,,,,,,,,,1,,74,0
23525,note_on,18,0,3,,,,,,,,,,2,,57,79
23543,note_on,26,0,1,,,,,,,,,,0,,76,0
23575,note_on,32,0,1,,,,,,,,,,0,,81,76
23597,note_on,76,0,2,,,,,,,,,,1,,73,0
23601,note_on,26,0,1,,,,,,,,,,0,,81,0
23637,note_on,36,0,1,,,,,,,,,,0,,86,74
23646,note_on,121,0,3,,,,,,,,,,2,,57,0
23694,note_on,48,0,3,,,,,,,,,,2,,62,73
23716,note_on,22,0,3,,,,,,,,,,2,,62,0
23752,note_on,36,0,3,,,,,,,,,,2,,53,77
23813,note_on,61,0,3,,,,,,,,,,2,,53,0
23813,note_on,0,0,3,,,,,,,,,,2,,52,66
23819,note_on,182,0,1,,,,,,,,,,0,,86,0
23821,note_on,2,0,1,,,,,,,,,,0,,81,73
23841,note_on,28,0,3,,,,,,,,,,2,,52,0
23844,note_on,23,0,1,,,,,,,,,,0,,81,0
23879,note_on,35,0,1,,,,,,,,,,0,,86,73
23881,note_on,40,0,3,,,,,,,,,,2,,50,68
23900,note_on,21,0,1,,,,,,,,,,0,,86,0
23905,note_on,24,0,3,,,,,,,,,,2,,50,0
23937,note_on,340,0,2,,,,,,,,,,1,,69,70
23937,note_on,37,0,1,,,,,,,,,,0,,88,63
23940,note_on,35,0,3,,,,,,,,,,2,,61,75
23960,note_on,23,0,2,,,,,,,,,,1,,69,0
23962,note_on,25,0,1,,,,,,,,,,0,,88,0
23962,note_on,22,0,3,,,,,,,,,,2,,61,0
23998,note_on,36,0,1,,,,,,,,,,0,,89,67
23998,note_on,38,0,2,,,,,,,,,,1,,74,63
24001,note_on,39,0,3,,,,,,,,,,2,,62,67
24100,note_on,99,0,3,,,,,,,,,,2,,62,0
24116,note_on,118,0,2,,,,,,,,,,1,,74,0
24118,note_on,2,0,2,,,,,,,,,,1,,73,65
24120,note_on,20,0,3,,,,,,,,,,2,,57,77
24122,note_on,0,0,1,,,,,,,,,,0,,88,69
24122,note_on,124,0,1,,,,,,,,,,0,,89,0
24221,note_on,101,0,3,,,,,,,,,,2,,57,0
24242,note_on,21,0,3,,,,,,,,,,2,,50,71
24242,note_on,120,0,1,,,,,,,,,,0,,88,0
24242,note_on,0,0,2,,,,,,,,,,1,,74,69
24242,note_on,124,0,2,,,,,,,,,,1,,73,0
24244,note_on,2,0,1,,,,,,,,,,0,,86,66
24294,note_on,50,0,1,,,,,,,,,,0,,86,0
24304,note_on,10,0,1,,,,,,,,,,0,,81,73
24323,note_on,81,0,2,,,,,,,,,,1,,74,0
24329,note_on,25,0,1,,,,,,,,,,0,,81,0
24362,note_on,33,0,1,,,,,,,,,,0,,82,59
24369,note_on,127,0,3,,,,,,,,,,2,,50,0
24419,note_on,96,0,2,,,,,,,,,,1,,77,73
24422,note_on,53,0,3,,,,,,,,,,2,,50,73
24439,note_on,20,0,2,,,,,,,,,,1,,77,0
24443,note_on,21,0,3,,,,,,,,,,2,,50,0
24478,note_on,39,0,2,,,,,,,,,,1,,76,74
24480,note_on,37,0,3,,,,,,,,,,2,,49,73
24506,note_on,26,0,3,,,,,,,,,,2,,49,0
24533,note_on,171,0,1,,,,,,,,,,0,,82,0
24538,note_on,32,0,3,,,,,,,,,,2,,47,71
24541,note_on,8,0,1,,,,,,,,,,0,,79,76
24563,note_on,25,0,3,,,,,,,,,,2,,47,0
24600,note_on,37,0,3,,,,,,,,,,2,,49,77
24601,note_on,60,0,1,,,,,,,,,,0,,79,0
24601,note_on,0,0,1,,,,,,,,,,0,,81,75
24625,note_on,147,0,2,,,,,,,,,,1,,74,67
24625,note_on,25,0,3,,,,,,,,,,2,,49,0
24625,note_on,24,0,1,,,,,,,,,,0,,81,0
24626,note_on,1,0,2,,,,,,,,,,1,,76,0
24655,note_on,29,0,2,,,,,,,,,,1,,73,61
24657,note_on,2,0,2,,,,,,,,,,1,,74,0
24659,note_on,34,0,3,,,,,,,,,,2,,45,76
24661,note_on,36,0,1,,,,,,,,,,0,,76,70
24682,note_on,21,0,1,,,,,,,,,,0,,76,0
24683,note_on,24,0,3,,,,,,,,,,2,,45,0
24684,note_on,27,0,2,,,,,,,,,,1,,73,0
24687,note_on,3,0,2,,,,,,,,,,1,,71,65
24719,note_on,37,0,1,,,,,,,,,,0,,77,73
24720,note_on,37,0,3,,,,,,,,,,2,,50,74
24720,note_on,33,0,2,,,,,,,,,,1,,71,0
24721,note_on,1,0,2,,,,,,,,,,1,,69,73
24743,note_on,23,0,3,,,,,,,,,,2,,50,0
24744,note_on,25,0,1,,,,,,,,,,0,,77,0
24774,note_on,53,0,2,,,,,,,,,,1,,69,0
24780,note_on,37,0,3,,,,,,,,,,2,,53,73
24780,note_on,36,0,1,,,,,,,,,,0,,74,65
24804,note_on,24,0,1,,,,,,,,,,0,,74,0
24804,note_on,24,0,3,,,,,,,,,,2,,53,0
24842,note_on,38,0,1,,,,,,,,,,0,,77,69
24842,note_on,38,0,3,,,,,,,,,,2,,52,68
24866,note_on,24,0,3,,,,,,,,,,2,,52,0
24898,note_on,124,0,2,,,,,,,,,,1,,69,70
24905,note_on,39,0,3,,,,,,,,,,2,,50,78
24920,note_on,22,0,2,,,,,,,,,,1,,69,0
24929,note_on,24,0,3,,,,,,,,,,2,,50,0
24957,note_on,115,0,1,,,,,,,,,,0,,77,0
24960,note_on,40,0,2,,,,,,,,,,1,,70,73
24964,note_on,35,0,3,,,,,,,,,,2,,43,77
24967,note_on,10,0,1,,,,,,,,,,0,,76,74
25074,note_on,110,0,3,,,,,,,,,,2,,43,0
25077,note_on,110,0,1,,,,,,,,,,0,,76,0
25085,note_on,125,0,2,,,,,,,,,,1,,65,71
25086,note_on,12,0,3,,,,,,,,,,2,,44,75
25086,note_on,1,0,2,,,,,,,,,,1,,70,0
25088,note_on,11,0,1,,,,,,,,,,0,,74,62
25187,note_on,101,0,3,,,,,,,,,,2,,44,0
25198,note_on,110,0,1,,,,,,,,,,0,,74,0
25201,note_on,0,0,2,,,,,,,,,,1,,64,74
25201,note_on,115,0,2,,,,,,,,,,1,,65,0
25206,note_on,19,0,3,,,,,,,,,,2,,45,77
25208,note_on,10,0,1,,,,,,,,,,0,,73,59
25241,note_on,33,0,1,,,,,,,,,,0,,73,0
25241,note_on,40,0,2,,,,,,,,,,1,,64,0
25259,note_on,18,0,2,,,,,,,,,,1,,73,63
25261,note_on,20,0,1,,,,,,,,,,0,,76,74
25285,note_on,26,0,2,,,,,,,,,,1,,73,0
25286,note_on,25,0,1,,,,,,,,,,0,,76,0
25287,note_on,2,0,2,,,,,,,,,,1,,74,67
25288,note_on,2,0,1,,,,,,,,,,0,,77,67
25307,note_on,101,0,3,,,,,,,,,,2,,45,0
25317,note_on,29,0,1,,,,,,,,,,0,,77,0
25317,note_on,30,0,2,,,,,,,,,,1,,74,0
25318,note_on,1,0,2,,,,,,,,,,1,,76,73
25320,note_on,3,0,1,,,,,,,,,,0,,79,67
25378,note_on,71,0,3,,,,,,,,,,2,,57,76
25378,note_on,58,0,1,,,,,,,,,,0,,79,0
25379,note_on,0,0,2,,,,,,,,,,1,,74,63
25379,note_on,61,0,2,,,,,,,,,,1,,76,0
25380,note_on,2,0,1,,,,,,,,,,0,,77,61
25406,note_on,28,0,3,,,,,,,,,,2,,57,0
25407,note_on,28,0,2,,,,,,,,,,1,,73,63
25408,note_on,28,0,1,,,,,,,,,,0,,77,0
25408,note_on,1,0,2,,,,,,,,,,1,,74,0
25409,note_on,1,0,1,,,,,,,,,,0,,76,68
25437,note_on,29,0,2,,,,,,,,,,1,,73,0
25439,note_on,2,0,2,,,,,,,,,,1,,74,59
25441,note_on,32,0,1,,,,,,,,,,0,,76,0
25443,note_on,37,0,3,,,,,,,,,,2,,62,62
25443,note_on,2,0,1,,,,,,,,,,0,,77,75
25468,note_on,25,0,1,,,,,,,,,,0,,77,0
25501,note_on,33,0,1,,,,,,,,,,0,,74,67
25528,note_on,27,0,1,,,,,,,,,,0,,74,0
25537,note_on,98,0,2,,,,,,,,,,1,,74,0
25545,note_on,102,0,3,,,,,,,,,,2,,62,0
25560,note_on,32,0,1,,,,,,,,,,0,,77,82
25563,note_on,18,0,3,,,,,,,,,,2,,62,59
25585,note_on,25,0,1,,,,,,,,,,0,,77,0
25620,note_on,35,0,1,,,,,,,,,,0,,74,66
25647,note_on,27,0,1,,,,,,,,,,0,,74,0
25665,note_on,102,0,3,,,,,,,,,,2,,62,0
25680,note_on,15,0,3,,,,,,,,,,2,,61,59
25680,note_on,33,0,1,,,,,,,,,,0,,79,82
25683,note_on,146,0,2,,,,,,,,,,1,,81,75
25706,note_on,26,0,1,,,,,,,,,,0,,79,0
25739,note_on,33,0,1,,,,,,,,,,0,,77,70
25785,note_on,105,0,3,,,,,,,,,,2,,61,0
25800,note_on,15,0,3,,,,,,,,,,2,,61,58
25834,note_on,95,0,1,,,,,,,,,,0,,77,0
25861,note_on,27,0,1,,,,,,,,,,0,,76,68
25908,note_on,108,0,3,,,,,,,,,,2,,61,0
25924,note_on,16,0,3,,,,,,,,,,2,,60,61
25977,note_on,116,0,1,,,,,,,,,,0,,76,0
25983,note_on,6,0,1,,,,,,,,,,0,,69,75
26008,note_on,25,0,1,,,,,,,,,,0,,69,0
26024,note_on,100,0,3,,,,,,,,,,2,,60,0
26042,note_on,34,0,1,,,,,,,,,,0,,72,63
26043,note_on,19,0,3,,,,,,,,,,2,,60,65
26065,note_on,23,0,1,,,,,,,,,,0,,72,0
26102,note_on,37,0,1,,,,,,,,,,0,,69,74
26127,note_on,25,0,1,,,,,,,,,,0,,69,0
26133,note_on,90,0,3,,,,,,,,,,2,,60,0
26144,note_on,461,0,2,,,,,,,,,,1,,81,0
26161,note_on,17,0,2,,,,,,,,,,1,,79,72
26163,note_on,36,0,1,,,,,,,,,,0,,77,74
26164,note_on,31,0,3,,,,,,,,,,2,,59,66
26190,note_on,27,0,1,,,,,,,,,,0,,77,0
26223,note_on,33,0,1,,,,,,,,,,0,,76,69
26268,note_on,104,0,3,,,,,,,,,,2,,59,0
26283,note_on,15,0,3,,,,,,,,,,2,,59,66
26314,note_on,91,0,1,,,,,,,,,,0,,76,0
26345,note_on,31,0,1,,,,,,,,,,0,,74,65
26374,note_on,91,0,3,,,,,,,,,,2,,59,0
26406,note_on,32,0,3,,,,,,,,,,2,,58,66
26455,note_on,110,0,1,,,,,,,,,,0,,74,0
26460,note_on,5,0,1,,,,,,,,,,0,,67,65
26483,note_on,23,0,1,,,,,,,,,,0,,67,0
26505,note_on,99,0,3,,,,,,,,,,2,,58,0
26517,note_on,34,0,1,,,,,,,,,,0,,70,63
26522,note_on,17,0,3,,,,,,,,,,2,,58,66
26539,note_on,22,0,1,,,,,,,,,,0,,70,0
26581,note_on,42,0,1,,,,,,,,,,0,,67,75
26596,note_on,435,0,2,,,,,,,,,,1,,79,0
26606,note_on,25,0,1,,,,,,,,,,0,,67,0
26613,note_on,91,0,3,,,,,,,,,,2,,58,0
26639,note_on,43,0,2,,,,,,,,,,1,,85,66
26640,note_on,27,0,3,,,,,,,,,,2,,57,69
26642,note_on,36,0,1,,,,,,,,,,0,,76,73
26666,note_on,24,0,1,,,,,,,,,,0,,76,0
26701,note_on,35,0,1,,,,,,,,,,0,,73,58
26786,note_on,85,0,1,,,,,,,,,,0,,73,0
26824,note_on,38,0,1,,,,,,,,,,0,,79,64
26920,note_on,96,0,1,,,,,,,,,,0,,79,0
26929,note_on,289,0,3,,,,,,,,,,2,,57,0
26945,note_on,16,0,3,,,,,,,,,,2,,45,66
26947,note_on,27,0,1,,,,,,,,,,0,,77,77
26966,note_on,21,0,3,,,,,,,,,,2,,45,0
26975,note_on,28,0,1,,,,,,,,,,0,,77,0
26976,note_on,1,0,1,,,,,,,,,,0,,79,77
27002,note_on,36,0,3,,,,,,,,,,2,,49,73
27004,note_on,28,0,1,,,,,,,,,,0,,79,0
27005,note_on,1,0,1,,,,,,,,,,0,,81,73
27026,note_on,24,0,3,,,,,,,,,,2,,49,0
27033,note_on,28,0,1,,,,,,,,,,0,,81,0
27034,note_on,1,0,1,,,,,,,,,,0,,79,68
27061,note_on,35,0,3,,,,,,,,,,2,,45,74
27062,note_on,28,0,1,,,,,,,,,,0,,79,0
27064,note_on,2,0,1,,,,,,,,,,0,,77,74
27084,note_on,23,0,3,,,,,,,,,,2,,45,0
27091,note_on,27,0,1,,,,,,,,,,0,,77,0
27092,note_on,1,0,1,,,,,,,,,,0,,76,68
27119,note_on,480,0,2,,,,,,,,,,1,,85,0
27120,note_on,28,0,1,,,,,,,,,,0,,76,0
27122,note_on,3,0,2,,,,,,,,,,1,,86,60
27123,note_on,39,0,3,,,,,,,,,,2,,50,70
27124,note_on,4,0,1,,,,,,,,,,0,,77,78
27148,note_on,25,0,3,,,,,,,,,,2,,50,0
27150,note_on,26,0,1,,,,,,,,,,0,,77,0
27183,note_on,33,0,1,,,,,,,,,,0,,74,68
27186,note_on,38,0,3,,,,,,,,,,2,,53,74
27211,note_on,28,0,1,,,,,,,,,,0,,74,0
27213,note_on,27,0,3,,,,,,,,,,2,,53,0
27241,note_on,30,0,1,,,,,,,,,,0,,76,69
27241,note_on,119,0,2,,,,,,,,,,1,,86,0
27245,note_on,32,0,3,,,,,,,,,,2,,55,65
27269,note_on,24,0,3,,,,,,,,,,2,,55,0
27270,note_on,29,0,1,,,,,,,,,,0,,76,0
27301,note_on,31,0,1,,,,,,,,,,0,,73,63
27301,note_on,32,0,3,,,,,,,,,,2,,57,69
27327,note_on,26,0,3,,,,,,,,,,2,,57,0
27333,note_on,32,0,1,,,,,,,,,,0,,73,0
27361,note_on,28,0,1,,,,,,,,,,0,,74,68
27362,note_on,35,0,3,,,,,,,,,,2,,62,67
27418,note_on,177,0,2,,,,,,,,,,1,,74,67
27441,note_on,23,0,2,,,,,,,,,,1,,74,0
27457,note_on,95,0,3,,,,,,,,,,2,,62,0
27474,note_on,33,0,2,,,,,,,,,,1,,77,70
27480,note_on,23,0,3,,,,,,,,,,2,,62,62
27493,note_on,132,0,1,,,,,,,,,,0,,74,0
27498,note_on,24,0,2,,,,,,,,,,1,,77,0
27535,note_on,37,0,2,,,,,,,,,,1,,74,66
27560,note_on,25,0,2,,,,,,,,,,1,,74,0
27584,note_on,104,0,3,,,,,,,,,,2,,62,0
27597,note_on,37,0,2,,,,,,,,,,1,,79,70
27600,note_on,16,0,3,,,,,,,,,,2,,61,58
27604,note_on,111,0,1,,,,,,,,,,0,,81,69
27622,note_on,25,0,2,,,,,,,,,,1,,79,0
27655,note_on,33,0,2,,,,,,,,,,1,,77,74
27695,note_on,95,0,3,,,,,,,,,,2,,61,0
27714,note_on,19,0,3,,,,,,,,,,2,,61,63
27751,note_on,96,0,2,,,,,,,,,,1,,77,0
27778,note_on,27,0,2,,,,,,,,,,1,,76,66
27828,note_on,114,0,3,,,,,,,,,,2,,61,0
27841,note_on,13,0,3,,,,,,,,,,2,,60,74
27896,note_on,118,0,2,,,,,,,,,,1,,76,0
27896,note_on,0,0,2,,,,,,,,,,1,,69,73
27921,note_on,25,0,2,,,,,,,,,,1,,69,0
27943,note_on,102,0,3,,,,,,,,,,2,,60,0
27955,note_on,34,0,2,,,,,,,,,,1,,72,69
27960,note_on,17,0,3,,,,,,,,,,2,,60,77
27981,note_on,26,0,2,,,,,,,,,,1,,72,0
28014,note_on,33,0,2,,,,,,,,,,1,,69,71
28038,note_on,24,0,2,,,,,,,,,,1,,69,0
28053,note_on,93,0,3,,,,,,,,,,2,,60,0
28053,note_on,449,0,1,,,,,,,,,,0,,81,0
28076,note_on,38,0,2,,,,,,,,,,1,,77,73
28078,note_on,25,0,3,,,,,,,,,,2,,59,68
28082,note_on,29,0,1,,,,,,,,,,0,,79,67
28104,note_on,28,0,2,,,,,,,,,,1,,77,0
28139,note_on,35,0,2,,,,,,,,,,1,,76,65
28176,note_on,98,0,3,,,,,,,,,,2,,59,0
28197,note_on,21,0,3,,,,,,,,,,2,,59,70
28228,note_on,89,0,2,,,,,,,,,,1,,76,0
28261,note_on,33,0,2,,,,,,,,,,1,,74,66
28306,note_on,109,0,3,,,,,,,,,,2,,59,0
28319,note_on,13,0,3,,,,,,,,,,2,,58,70
28380,note_on,119,0,2,,,,,,,,,,1,,74,0
28381,note_on,1,0,2,,,,,,,,,,1,,67,68
28405,note_on,24,0,2,,,,,,,,,,1,,67,0
28421,note_on,102,0,3,,,,,,,,,,2,,58,0
28439,note_on,34,0,2,,,,,,,,,,1,,70,61
28443,note_on,22,0,3,,,,,,,,,,2,,58,67
28461,note_on,22,0,2,,,,,,,,,,1,,70,0
28497,note_on,36,0,2,,,,,,,,,,1,,67,69
28520,note_on,23,0,2,,,,,,,,,,1,,67,0
28528,note_on,446,0,1,,,,,,,,,,0,,79,0
28530,note_on,87,0,3,,,,,,,,,,2,,58,0
28559,note_on,39,0,2,,,,,,,,,,1,,76,74
28562,note_on,34,0,1,,,,,,,,,,0,,73,65
28563,note_on,33,0,3,,,,,,,,,,2,,57,76
28582,note_on,23,0,2,,,,,,,,,,1,,76,0
28618,note_on,36,0,2,,,,,,,,,,1,,73,65
28702,note_on,84,0,2,,,,,,,,,,1,,73,0
28740,note_on,38,0,2,,,,,,,,,,1,,67,68
28833,note_on,93,0,2,,,,,,,,,,1,,67,0
28846,note_on,283,0,3,,,,,,,,,,2,,57,0
28856,note_on,23,0,2,,,,,,,,,,1,,65,56
28864,note_on,18,0,3,,,,,,,,,,2,,45,70
28882,note_on,0,0,2,,,,,,,,,,1,,67,66
28882,note_on,26,0,2,,,,,,,,,,1,,65,0
28888,note_on,24,0,3,,,,,,,,,,2,,45,0
28910,note_on,28,0,2,,,,,,,,,,1,,67,0
28910,note_on,0,0,2,,,,,,,,,,1,,69,71
28921,note_on,33,0,3,,,,,,,,,,2,,49,75
28937,note_on,27,0,2,,,,,,,,,,1,,69,0
28938,note_on,1,0,2,,,,,,,,,,1,,67,63
28941,note_on,20,0,3,,,,,,,,,,2,,49,0
28969,note_on,31,0,2,,,,,,,,,,1,,65,62
28970,note_on,1,0,2,,,,,,,,,,1,,67,0
28971,note_on,30,0,3,,,,,,,,,,2,,45,73
28995,note_on,25,0,2,,,,,,,,,,1,,65,0
28997,note_on,2,0,2,,,,,,,,,,1,,64,65
28997,note_on,26,0,3,,,,,,,,,,2,,45,0
29028,note_on,31,0,2,,,,,,,,,,1,,65,73
29029,note_on,1,0,2,,,,,,,,,,1,,64,0
29030,note_on,33,0,3,,,,,,,,,,2,,50,75
29040,note_on,478,0,1,,,,,,,,,,0,,74,73
29042,note_on,2,0,1,,,,,,,,,,0,,73,0
29051,note_on,21,0,3,,,,,,,,,,2,,50,0
29055,note_on,26,0,2,,,,,,,,,,1,,65,0
29070,note_on,28,0,1,,,,,,,,,,0,,74,0
29090,note_on,39,0,3,,,,,,,,,,2,,53,73
29094,note_on,39,0,2,,,,,,,,,,1,,74,67
29097,note_on,27,0,1,,,,,,,,,,0,,62,78
29115,note_on,25,0,3,,,,,,,,,,2,,53,0
29122,note_on,25,0,1,,,,,,,,,,0,,62,0
29124,note_on,30,0,2,,,,,,,,,,1,,74,0
29151,note_on,36,0,3,,,,,,,,,,2,,55,68
29154,note_on,30,0,2,,,,,,,,,,1,,76,67
29177,note_on,26,0,3,,,,,,,,,,2,,55,0
29181,note_on,27,0,2,,,,,,,,,,1,,76,0
29212,note_on,35,0,3,,,,,,,,,,2,,57,78
29214,note_on,33,0,2,,,,,,,,,,1,,73,58
29240,note_on,28,0,3,,,,,,,,,,2,,57,0
29243,note_on,29,0,2,,,,,,,,,,1,,73,0
29273,note_on,33,0,3,,,,,,,,,,2,,50,69
29275,note_on,153,0,1,,,,,,,,,,0,,74,75
29276,note_on,33,0,2,,,,,,,,,,1,,74,58
29311,note_on,38,0,3,,,,,,,,,,2,,50,0
29334,note_on,23,0,3,,,,,,,,,,2,,62,74
29358,note_on,24,0,3,,,,,,,,,,2,,62,0
29361,note_on,3,0,3,,,,,,,,,,2,,61,65
29390,note_on,29,0,3,,,,,,,,,,2,,61,0
29392,note_on,2,0,3,,,,,,,,,,2,,62,74
29405,note_on,130,0,1,,,,,,,,,,0,,74,0
29413,note_on,21,0,3,,,,,,,,,,2,,62,0
29414,note_on,138,0,2,,,,,,,,,,1,,74,0
29422,note_on,17,0,1,,,,,,,,,,0,,77,89
29451,note_on,29,0,1,,,,,,,,,,0,,77,0
29451,note_on,0,0,1,,,,,,,,,,0,,76,74
29454,note_on,41,0,3,,,,,,,,,,2,,50,68
29480,note_on,0,0,1,,,,,,,,,,0,,74,69
29480,note_on,29,0,1,,,,,,,,,,0,,76,0
29481,note_on,27,0,3,,,,,,,,,,2,,50,0
29511,note_on,31,0,1,,,,,,,,,,0,,74,0
29515,note_on,4,0,1,,,,,,,,,,0,,76,76
29516,note_on,35,0,3,,,,,,,,,,2,,49,79
29545,note_on,29,0,3,,,,,,,,,,2,,49,0
29580,note_on,35,0,3,,,,,,,,,,2,,61,74
29604,note_on,24,0,3,,,,,,,,,,2,,61,0
29608,note_on,4,0,3,,,,,,,,,,2,,59,71
29633,note_on,25,0,3,,,,,,,,,,2,,59,0
29639,note_on,6,0,3,,,,,,,,,,2,,61,75
29657,note_on,142,0,1,,,,,,,,,,0,,76,0
29659,note_on,20,0,3,,,,,,,,,,2,,61,0
29670,note_on,13,0,1,,,,,,,,,,0,,79,78
29700,note_on,41,0,3,,,,,,,,,,2,,49,74
29701,note_on,31,0,1,,,,,,,,,,0,,79,0
29702,note_on,1,0,1,,,,,,,,,,0,,77,89
29727,note_on,27,0,3,,,,,,,,,,2,,49,0
29732,note_on,30,0,1,,,,,,,,,,0,,77,0
29732,note_on,0,0,1,,,,,,,,,,0,,76,79
29761,note_on,34,0,3,,,,,,,,,,2,,50,75
29762,note_on,30,0,1,,,,,,,,,,0,,76,0
29765,note_on,3,0,1,,,,,,,,,,0,,77,86
29788,note_on,27,0,3,,,,,,,,,,2,,50,0
29794,note_on,29,0,1,,,,,,,,,,0,,77,0
29823,note_on,35,0,3,,,,,,,,,,2,,62,79
29825,note_on,31,0,1,,,,,,,,,,0,,76,79
29847,note_on,24,0,3,,,,,,,,,,2,,62,0
29850,note_on,3,0,3,,,,,,,,,,2,,61,67
29852,note_on,27,0,1,,,,,,,,,,0,,76,0
29853,note_on,1,0,1,,,,,,,,,,0,,74,69
29880,note_on,27,0,1,,,,,,,,,,0,,74,0
29880,note_on,30,0,3,,,,,,,,,,2,,61,0
29881,note_on,1,0,3,,,,,,,,,,2,,62,69
29885,note_on,5,0,1,,,,,,,,,,0,,77,86
29908,note_on,27,0,3,,,,,,,,,,2,,62,0
29914,note_on,29,0,1,,,,,,,,,,0,,77,0
29943,note_on,35,0,3,,,,,,,,,,2,,55,69
29946,note_on,32,0,1,,,,,,,,,,0,,79,86
29969,note_on,26,0,3,,,,,,,,,,2,,55,0
29984,note_on,38,0,1,,,,,,,,,,0,,79,0
30005,note_on,36,0,3,,,,,,,,,,2,,57,79
30005,note_on,21,0,1,,,,,,,,,,0,,81,86
30028,note_on,23,0,3,,,,,,,,,,2,,57,0
30033,note_on,28,0,1,,,,,,,,,,0,,81,0
30064,note_on,31,0,1,,,,,,,,,,0,,83,73
30065,note_on,37,0,3,,,,,,,,,,2,,55,66
30092,note_on,28,0,1,,,,,,,,,,0,,83,0
30093,note_on,28,0,3,,,,,,,,,,2,,55,0
30093,note_on,1,0,1,,,,,,,,,,0,,85,91
30122,note_on,29,0,1,,,,,,,,,,0,,85,0
30124,note_on,2,0,1,,,,,,,,,,0,,86,95
30126,note_on,33,0,3,,,,,,,,,,2,,53,77
30151,note_on,25,0,3,,,,,,,,,,2,,53,0
30152,note_on,28,0,1,,,,,,,,,,0,,86,0
30186,note_on,34,0,1,,,,,,,,,,0,,81,82
30186,note_on,35,0,3,,,,,,,,,,2,,49,77
30216,note_on,30,0,1,,,,,,,,,,0,,81,0
30219,note_on,33,0,3,,,,,,,,,,2,,49,0
30246,note_on,30,0,1,,,,,,,,,,0,,77,98
30249,note_on,30,0,3,,,,,,,,,,2,,50,68
30275,note_on,29,0,1,,,,,,,,,,0,,77,0
30277,note_on,28,0,3,,,,,,,,,,2,,50,0
30307,note_on,32,0,1,,,,,,,,,,0,,76,67
30307,note_on,30,0,3,,,,,,,,,,2,,48,78
30333,note_on,26,0,3,,,,,,,,,,2,,48,0
30337,note_on,30,0,1,,,,,,,,,,0,,76,0
30338,note_on,1,0,1,,,,,,,,,,0,,74,68
30364,note_on,31,0,3,,,,,,,,,,2,,46,71
30365,note_on,27,0,1,,,,,,,,,,0,,74,0
30370,note_on,5,0,1,,,,,,,,,,0,,77,93
30398,note_on,28,0,1,,,,,,,,,,0,,77,0
30428,note_on,30,0,1,,,,,,,,,,0,,79,84
30461,note_on,33,0,1,,,,,,,,,,0,,79,0
30479,note_on,115,0,3,,,,,,,,,,2,,46,0
30486,note_on,7,0,3,,,,,,,,,,2,,45,82
30488,note_on,27,0,1,,,,,,,,,,0,,81,73
30513,note_on,27,0,3,,,,,,,,,,2,,45,0
30545,note_on,32,0,3,,,,,,,,,,2,,47,74
30572,note_on,27,0,3,,,,,,,,,,2,,47,0
30604,note_on,32,0,3,,,,,,,,,,2,,49,77
30614,note_on,126,0,1,,,,,,,,,,0,,81,0
30625,note_on,21,0,3,,,,,,,,,,2,,49,0
30664,note_on,50,0,1,,,,,,,,,,0,,81,93
30664,note_on,39,0,3,,,,,,,,,,2,,45,73
30687,note_on,23,0,1,,,,,,,,,,0,,81,0
30688,note_on,24,0,3,,,,,,,,,,2,,45,0
30722,note_on,35,0,1,,,,,,,,,,0,,74,69
30725,note_on,37,0,3,,,,,,,,,,2,,54,65
30750,note_on,0,0,1,,,,,,,,,,0,,86,91
30750,note_on,28,0,1,,,,,,,,,,0,,74,0
30768,note_on,18,0,1,,,,,,,,,,0,,86,0
30779,note_on,11,0,1,,,,,,,,,,0,,86,75
30810,note_on,85,0,3,,,,,,,,,,2,,54,0
30821,note_on,11,0,3,,,,,,,,,,2,,54,53
30837,note_on,16,0,3,,,,,,,,,,2,,54,0
30843,note_on,6,0,3,,,,,,,,,,2,,54,61
30866,note_on,87,0,1,,,,,,,,,,0,,86,0
30875,note_on,9,0,1,,,,,,,,,,0,,81,77
30891,note_on,16,0,1,,,,,,,,,,0,,81,0
30906,note_on,15,0,1,,,,,,,,,,0,,81,76
30926,note_on,83,0,3,,,,,,,,,,2,,54,0
30939,note_on,13,0,3,,,,,,,,,,2,,54,61
30954,note_on,15,0,3,,,,,,,,,,2,,54,0
30962,note_on,8,0,3,,,,,,,,,,2,,54,57
30985,note_on,79,0,1,,,,,,,,,,0,,81,0
30996,note_on,11,0,1,,,,,,,,,,0,,78,79
31014,note_on,18,0,1,,,,,,,,,,0,,78,0
31026,note_on,12,0,1,,,,,,,,,,0,,78,84
31046,note_on,84,0,3,,,,,,,,,,2,,54,0
31058,note_on,12,0,3,,,,,,,,,,2,,54,58
31073,note_on,15,0,3,,,,,,,,,,2,,54,0
31081,note_on,8,0,3,,,,,,,,,,2,,54,53
31109,note_on,83,0,1,,,,,,,,,,0,,78,0
31114,note_on,5,0,1,,,,,,,,,,0,,84,82
31141,note_on,27,0,1,,,,,,,,,,0,,84,0
31142,note_on,1,0,1,,,,,,,,,,0,,82,63
31162,note_on,81,0,3,,,,,,,,,,2,,54,0
31169,note_on,0,0,1,,,,,,,,,,0,,81,74
31169,note_on,27,0,1,,,,,,,,,,0,,82,0
31174,note_on,12,0,3,,,,,,,,,,2,,54,61
31196,note_on,22,0,3,,,,,,,,,,2,,54,0
31197,note_on,28,0,1,,,,,,,,,,0,,81,0
31201,note_on,5,0,3,,,,,,,,,,2,,55,69
31202,note_on,5,0,1,,,,,,,,,,0,,82,75
31259,note_on,57,0,1,,,,,,,,,,0,,82,0
31260,note_on,1,0,1,,,,,,,,,,0,,84,84
31318,note_on,58,0,1,,,,,,,,,,0,,84,0
31320,note_on,2,0,1,,,,,,,,,,0,,86,71
31381,note_on,0,0,1,,,,,,,,,,0,,84,84
31381,note_on,61,0,1,,,,,,,,,,0,,86,0
31439,note_on,0,0,1,,,,,,,,,,0,,82,63
31439,note_on,58,0,1,,,,,,,,,,0,,84,0
31441,note_on,240,0,3,,,,,,,,,,2,,55,0
31446,note_on,5,0,3,,,,,,,,,,2,,43,76
31503,note_on,64,0,1,,,,,,,,,,0,,82,0
31504,note_on,1,0,1,,,,,,,,,,0,,81,78
31560,note_on,56,0,1,,,,,,,,,,0,,81,0
31561,note_on,1,0,1,,,,,,,,,,0,,79,77
31617,note_on,56,0,1,,,,,,,,,,0,,79,0
31619,note_on,2,0,1,,,,,,,,,,0,,77,79
31673,note_on,54,0,1,,,,,,,,,,0,,77,0
31676,note_on,230,0,3,,,,,,,,,,2,,43,0
31678,note_on,5,0,1,,,,,,,,,,0,,76,71
31687,note_on,11,0,3,,,,,,,,,,2,,48,75
31707,note_on,29,0,1,,,,,,,,,,0,,76,0
31709,note_on,2,0,1,,,,,,,,,,0,,84,78
31731,note_on,22,0,1,,,,,,,,,,0,,84,0
31738,note_on,7,0,1,,,,,,,,,,0,,84,78
31764,note_on,77,0,3,,,,,,,,,,2,,48,0
31776,note_on,12,0,3,,,,,,,,,,2,,48,61
31796,note_on,20,0,3,,,,,,,,,,2,,48,0
31801,note_on,5,0,3,,,,,,,,,,2,,48,68
31828,note_on,90,0,1,,,,,,,,,,0,,84,0
31832,note_on,4,0,1,,,,,,,,,,0,,79,74
31853,note_on,21,0,1,,,,,,,,,,0,,79,0
31863,note_on,10,0,1,,,,,,,,,,0,,79,63
31882,note_on,81,0,3,,,,,,,,,,2,,48,0
31893,note_on,11,0,3,,,,,,,,,,2,,48,66
31913,note_on,20,0,3,,,,,,,,,,2,,48,0
31918,note_on,5,0,3,,,,,,,,,,2,,48,66
31951,note_on,88,0,1,,,,,,,,,,0,,79,0
31953,note_on,2,0,1,,,,,,,,,,0,,76,77
31976,note_on,23,0,1,,,,,,,,,,0,,76,0
31983,note_on,7,0,1,,,,,,,,,,0,,76,79
32002,note_on,84,0,3,,,,,,,,,,2,,48,0
32013,note_on,11,0,3,,,,,,,,,,2,,48,67
32033,note_on,20,0,3,,,,,,,,,,2,,48,0
32039,note_on,6,0,3,,,,,,,,,,2,,48,65
32066,note_on,83,0,1,,,,,,,,,,0,,76,0
32071,note_on,5,0,1,,,,,,,,,,0,,82,71
32099,note_on,28,0,1,,,,,,,,,,0,,82,0
32100,note_on,1,0,1,,,,,,,,,,0,,81,74
32123,note_on,84,0,3,,,,,,,,,,2,,48,0
32127,note_on,27,0,1,,,,,,,,,,0,,81,0
32129,note_on,2,0,1,,,,,,,,,,0,,79,74
32135,note_on,12,0,3,,,,,,,,,,2,,48,63
32154,note_on,25,0,1,,,,,,,,,,0,,79,0
32156,note_on,21,0,3,,,,,,,,,,2,,48,0
32162,note_on,6,0,3,,,,,,,,,,2,,53,65
32163,note_on,9,0,1,,,,,,,,,,0,,81,86
32222,note_on,59,0,1,,,,,,,,,,0,,81,0
32223,note_on,1,0,1,,,,,,,,,,0,,82,67
32280,note_on,57,0,1,,,,,,,,,,0,,82,0
32282,note_on,2,0,1,,,,,,,,,,0,,84,74
32341,note_on,0,0,1,,,,,,,,,,0,,82,67
32341,note_on,59,0,1,,,,,,,,,,0,,84,0
32400,note_on,59,0,1,,,,,,,,,,0,,82,0
32400,note_on,0,0,1,,,,,,,,,,0,,81,75
32459,note_on,59,0,1,,,,,,,,,,0,,81,0
32460,note_on,1,0,1,,,,,,,,,,0,,79,77
32513,note_on,53,0,1,,,,,,,,,,0,,79,0
32516,note_on,3,0,1,,,,,,,,,,0,,77,77
32573,note_on,0,0,1,,,,,,,,,,0,,76,79
32573,note_on,57,0,1,,,,,,,,,,0,,77,0
32607,note_on,445,0,3,,,,,,,,,,2,,53,0
32623,note_on,50,0,1,,,,,,,,,,0,,76,0
32634,note_on,11,0,1,,,,,,,,,,0,,74,68
32642,note_on,35,0,3,,,,,,,,,,2,,46,72
32667,note_on,0,0,1,,,,,,,,,,0,,82,74
32667,note_on,33,0,1,,,,,,,,,,0,,74,0
32689,note_on,22,0,1,,,,,,,,,,0,,82,0
32696,note_on,7,0,1,,,,,,,,,,0,,82,79
32722,note_on,80,0,3,,,,,,,,,,2,,46,0
32733,note_on,11,0,3,,,,,,,,,,2,,46,58
32753,note_on,20,0,3,,,,,,,,,,2,,46,0
32757,note_on,4,0,3,,,,,,,,,,2,,46,58
32785,note_on,89,0,1,,,,,,,,,,0,,82,0
32790,note_on,5,0,1,,,,,,,,,,0,,77,89
32809,note_on,19,0,1,,,,,,,,,,0,,77,0
32817,note_on,8,0,1,,,,,,,,,,0,,77,79
32840,note_on,83,0,3,,,,,,,,,,2,,46,0
32852,note_on,12,0,3,,,,,,,,,,2,,46,62
32872,note_on,20,0,3,,,,,,,,,,2,,46,0
32879,note_on,7,0,3,,,,,,,,,,2,,46,59
32904,note_on,87,0,1,,,,,,,,,,0,,77,0
32912,note_on,8,0,1,,,,,,,,,,0,,74,67
32932,note_on,20,0,1,,,,,,,,,,0,,74,0
32940,note_on,8,0,1,,,,,,,,,,0,,74,61
32963,note_on,84,0,3,,,,,,,,,,2,,46,0
32972,note_on,9,0,3,,,,,,,,,,2,,46,55
32991,note_on,19,0,3,,,,,,,,,,2,,46,0
32999,note_on,8,0,3,,,,,,,,,,2,,46,62
33004,note_on,64,0,1,,,,,,,,,,0,,74,0
33033,note_on,29,0,1,,,,,,,,,,0,,81,78
33060,note_on,27,0,1,,,,,,,,,,0,,81,0
33063,note_on,3,0,1,,,,,,,,,,0,,79,71
33079,note_on,80,0,3,,,,,,,,,,2,,46,0
33089,note_on,26,0,1,,,,,,,,,,0,,79,0
33090,note_on,1,0,1,,,,,,,,,,0,,77,89
33091,note_on,12,0,3,,,,,,,,,,2,,46,59
33111,note_on,20,0,3,,,,,,,,,,2,,46,0
33120,note_on,30,0,1,,,,,,,,,,0,,77,0
33121,note_on,10,0,3,,,,,,,,,,2,,46,67
33123,note_on,3,0,1,,,,,,,,,,0,,79,77
33180,note_on,57,0,1,,,,,,,,,,0,,79,0
33182,note_on,2,0,1,,,,,,,,,,0,,81,76
33240,note_on,58,0,1,,,,,,,,,,0,,81,0
33241,note_on,1,0,1,,,,,,,,,,0,,82,66
33300,note_on,59,0,1,,,,,,,,,,0,,82,0
33302,note_on,2,0,1,,,,,,,,,,0,,81,68
33361,note_on,59,0,1,,,,,,,,,,0,,81,0
33362,note_on,1,0,1,,,,,,,,,,0,,79,78
33422,note_on,60,0,1,,,,,,,,,,0,,77,86
33423,note_on,1,0,1,,,,,,,,,,0,,79,0
33479,note_on,56,0,1,,,,,,,,,,0,,77,0
33481,note_on,2,0,1,,,,,,,,,,0,,76,71
33538,note_on,57,0,1,,,,,,,,,,0,,76,0
33539,note_on,1,0,1,,,,,,,,,,0,,74,76
33573,note_on,452,0,3,,,,,,,,,,2,,46,0
33597,note_on,58,0,1,,,,,,,,,,0,,74,0
33598,note_on,1,0,1,,,,,,,,,,0,,73,63
33601,note_on,28,0,3,,,,,,,,,,2,,45,72
33627,note_on,29,0,1,,,,,,,,,,0,,73,0
33629,note_on,2,0,1,,,,,,,,,,0,,81,70
33647,note_on,18,0,1,,,,,,,,,,0,,81,0
33656,note_on,9,0,1,,,,,,,,,,0,,81,70
33680,note_on,79,0,3,,,,,,,,,,2,,45,0
33692,note_on,12,0,3,,,,,,,,,,2,,45,61
33707,note_on,15,0,3,,,,,,,,,,2,,45,0
33717,note_on,10,0,3,,,,,,,,,,2,,45,66
33744,note_on,88,0,1,,,,,,,,,,0,,81,0
33748,note_on,4,0,1,,,,,,,,,,0,,76,77
33767,note_on,19,0,1,,,,,,,,,,0,,76,0
33777,note_on,10,0,1,,,,,,,,,,0,,76,77
33800,note_on,83,0,3,,,,,,,,,,2,,45,0
33813,note_on,13,0,3,,,,,,,,,,2,,45,61
33831,note_on,18,0,3,,,,,,,,,,2,,45,0
33841,note_on,10,0,3,,,,,,,,,,2,,45,64
33868,note_on,91,0,1,,,,,,,,,,0,,76,0
33870,note_on,2,0,1,,,,,,,,,,0,,73,63
33891,note_on,21,0,1,,,,,,,,,,0,,73,0
33900,note_on,9,0,1,,,,,,,,,,0,,73,74
33924,note_on,83,0,3,,,,,,,,,,2,,45,0
33938,note_on,14,0,3,,,,,,,,,,2,,45,67
33955,note_on,17,0,3,,,,,,,,,,2,,45,0
33967,note_on,12,0,3,,,,,,,,,,2,,45,71
33984,note_on,84,0,1,,,,,,,,,,0,,73,0
33994,note_on,10,0,1,,,,,,,,,,0,,79,86
34023,note_on,29,0,1,,,,,,,,,,0,,79,0
34025,note_on,2,0,1,,,,,,,,,,0,,77,74
34047,note_on,80,0,3,,,,,,,,,,2,,45,0
34052,note_on,27,0,1,,,,,,,,,,0,,77,0
34054,note_on,2,0,1,,,,,,,,,,0,,76,86
34059,note_on,12,0,3,,,,,,,,,,2,,45,67
34079,note_on,20,0,3,,,,,,,,,,2,,45,0
34080,note_on,26,0,1,,,,,,,,,,0,,76,0
34085,note_on,5,0,1,,,,,,,,,,0,,77,78
34086,note_on,7,0,3,,,,,,,,,,2,,50,77
34105,note_on,19,0,3,,,,,,,,,,2,,50,0
34142,note_on,37,0,3,,,,,,,,,,2,,52,74
34163,note_on,21,0,3,,,,,,,,,,2,,52,0
34199,note_on,36,0,3,,,,,,,,,,2,,53,78
34203,note_on,118,0,1,,,,,,,,,,0,,77,0
34220,note_on,21,0,3,,,,,,,,,,2,,53,0
34258,note_on,55,0,1,,,,,,,,,,0,,74,76
34260,note_on,40,0,3,,,,,,,,,,2,,50,74
34280,note_on,22,0,1,,,,,,,,,,0,,74,0
34283,note_on,23,0,3,,,,,,,,,,2,,50,0
34316,note_on,36,0,1,,,,,,,,,,0,,78,79
34326,note_on,43,0,3,,,,,,,,,,2,,48,65
34376,note_on,0,0,1,,,,,,,,,,0,,75,74
34376,note_on,60,0,1,,,,,,,,,,0,,78,0
34434,note_on,58,0,1,,,,,,,,,,0,,75,0
34435,note_on,1,0,1,,,,,,,,,,0,,74,65
34492,note_on,57,0,1,,,,,,,,,,0,,72,75
34494,note_on,2,0,1,,,,,,,,,,0,,74,0
34534,note_on,40,0,1,,,,,,,,,,0,,72,0
34551,note_on,17,0,1,,,,,,,,,,0,,78,77
34613,note_on,62,0,1,,,,,,,,,,0,,78,0
34613,note_on,0,0,1,,,,,,,,,,0,,75,71
34672,note_on,59,0,1,,,,,,,,,,0,,75,0
34673,note_on,1,0,1,,,,,,,,,,0,,74,65
34733,note_on,60,0,1,,,,,,,,,,0,,74,0
34733,note_on,0,0,1,,,,,,,,,,0,,72,75
34766,note_on,33,0,1,,,,,,,,,,0,,72,0
34774,note_on,448,0,3,,,,,,,,,,2,,48,0
34798,note_on,32,0,1,,,,,,,,,,0,,79,76
34802,note_on,28,0,3,,,,,,,,,,2,,46,71
34822,note_on,0,0,1,,,,,,,,,,0,,78,74
34822,note_on,24,0,1,,,,,,,,,,0,,79,0
34826,note_on,24,0,3,,,,,,,,,,2,,46,0
34849,note_on,27,0,1,,,,,,,,,,0,,78,0
34851,note_on,2,0,1,,,,,,,,,,0,,79,79
34862,note_on,36,0,3,,,,,,,,,,2,,45,75
34887,note_on,25,0,3,,,,,,,,,,2,,45,0
34920,note_on,33,0,3,,,,,,,,,,2,,46,67
34946,note_on,95,0,1,,,,,,,,,,0,,79,0
34947,note_on,27,0,3,,,,,,,,,,2,,46,0
34984,note_on,38,0,1,,,,,,,,,,0,,74,70
34984,note_on,37,0,3,,,,,,,,,,2,,43,66
35012,note_on,28,0,3,,,,,,,,,,2,,43,0
35022,note_on,38,0,1,,,,,,,,,,0,,74,0
35045,note_on,23,0,1,,,,,,,,,,0,,83,74
35047,note_on,35,0,3,,,,,,,,,,2,,53,70
35102,note_on,0,0,1,,,,,,,,,,0,,80,78
35102,note_on,57,0,1,,,,,,,,,,0,,83,0
35157,note_on,55,0,1,,,,,,,,,,0,,80,0
35159,note_on,2,0,1,,,,,,,,,,0,,79,74
35217,note_on,58,0,1,,,,,,,,,,0,,79,0
35218,note_on,1,0,1,,,,,,,,,,0,,77,86
35263,note_on,45,0,1,,,,,,,,,,0,,77,0
35276,note_on,13,0,1,,,,,,,,,,0,,83,76
35336,note_on,60,0,1,,,,,,,,,,0,,80,82
35337,note_on,1,0,1,,,,,,,,,,0,,83,0
35395,note_on,58,0,1,,,,,,,,,,0,,80,0
35396,note_on,1,0,1,,,,,,,,,,0,,79,77
35455,note_on,0,0,1,,,,,,,,,,0,,77,86
35455,note_on,59,0,1,,,,,,,,,,0,,79,0
35494,note_on,39,0,1,,,,,,,,,,0,,77,0
35505,note_on,458,0,3,,,,,,,,,,2,,53,0
35520,note_on,26,0,1,,,,,,,,,,0,,84,69
35524,note_on,19,0,3,,,,,,,,,,2,,51,67
35545,note_on,21,0,3,,,,,,,,,,2,,51,0
35551,note_on,31,0,1,,,,,,,,,,0,,83,76
35552,note_on,1,0,1,,,,,,,,,,0,,84,0
35581,note_on,29,0,1,,,,,,,,,,0,,83,0
35582,note_on,1,0,1,,,,,,,,,,0,,84,71
35582,note_on,37,0,3,,,,,,,,,,2,,50,68
35604,note_on,22,0,3,,,,,,,,,,2,,50,0
35640,note_on,36,0,3,,,,,,,,,,2,,51,71
35662,note_on,80,0,1,,,,,,,,,,0,,84,0
35664,note_on,24,0,3,,,,,,,,,,2,,51,0
35701,note_on,37,0,3,,,,,,,,,,2,,48,74
35703,note_on,41,0,1,,,,,,,,,,0,,72,74
35722,note_on,21,0,3,,,,,,,,,,2,,48,0
35736,note_on,33,0,1,,,,,,,,,,0,,72,0
35763,note_on,41,0,3,,,,,,,,,,2,,55,67
35764,note_on,28,0,1,,,,,,,,,,0,,74,73
35820,note_on,56,0,1,,,,,,,,,,0,,74,0
35820,note_on,0,0,1,,,,,,,,,,0,,71,68
35879,note_on,59,0,1,,,,,,,,,,0,,71,0
35880,note_on,1,0,1,,,,,,,,,,0,,69,73
35937,note_on,57,0,1,,,,,,,,,,0,,69,0
35939,note_on,2,0,1,,,,,,,,,,0,,67,89
35986,note_on,223,0,3,,,,,,,,,,2,,55,0
35991,note_on,52,0,1,,,,,,,,,,0,,67,0
36001,note_on,10,0,1,,,,,,,,,,0,,79,93
36001,note_on,15,0,3,,,,,,,,,,2,,51,65
36050,note_on,49,0,1,,,,,,,,,,0,,79,0
36059,note_on,9,0,1,,,,,,,,,,0,,75,63
36115,note_on,56,0,1,,,,,,,,,,0,,75,0
36116,note_on,1,0,1,,,,,,,,,,0,,74,67
36176,note_on,60,0,1,,,,,,,,,,0,,74,0
36176,note_on,0,0,1,,,,,,,,,,0,,72,75
36228,note_on,227,0,3,,,,,,,,,,2,,51,0
36230,note_on,54,0,1,,,,,,,,,,0,,72,0
36239,note_on,9,0,1,,,,,,,,,,0,,80,84
36245,note_on,17,0,3,,,,,,,,,,2,,53,71
36294,note_on,55,0,1,,,,,,,,,,0,,80,0
36302,note_on,8,0,1,,,,,,,,,,0,,77,89
36359,note_on,57,0,1,,,,,,,,,,0,,77,0
36361,note_on,2,0,1,,,,,,,,,,0,,75,68
36413,note_on,52,0,1,,,,,,,,,,0,,75,0
36420,note_on,7,0,1,,,,,,,,,,0,,74,70
36470,note_on,50,0,1,,,,,,,,,,0,,74,0
36470,note_on,225,0,3,,,,,,,,,,2,,53,0
36483,note_on,13,0,3,,,,,,,,,,2,,55,62
36483,note_on,13,0,1,,,,,,,,,,0,,83,77
36534,note_on,51,0,1,,,,,,,,,,0,,83,0
36545,note_on,11,0,1,,,,,,,,,,0,,79,86
36605,note_on,60,0,1,,,,,,,,,,0,,77,84
36606,note_on,1,0,1,,,,,,,,,,0,,79,0
36661,note_on,55,0,1,,,,,,,,,,0,,75,67
36662,note_on,1,0,1,,,,,,,,,,0,,77,0
36711,note_on,228,0,3,,,,,,,,,,2,,55,0
36720,note_on,9,0,3,,,,,,,,,,2,,51,73
36724,note_on,62,0,1,,,,,,,,,,0,,84,84
36726,note_on,2,0,1,,,,,,,,,,0,,75,0
36756,note_on,30,0,1,,,,,,,,,,0,,84,0
36787,note_on,31,0,1,,,,,,,,,,0,,79,79
36817,note_on,30,0,1,,,,,,,,,,0,,79,0
36833,note_on,113,0,3,,,,,,,,,,2,,51,0
36841,note_on,8,0,3,,,,,,,,,,2,,53,77
36847,note_on,30,0,1,,,,,,,,,,0,,80,95
36901,note_on,54,0,1,,,,,,,,,,0,,80,0
36903,note_on,2,0,1,,,,,,,,,,0,,72,74
36933,note_on,30,0,1,,,,,,,,,,0,,72,0
36961,note_on,28,0,1,,,,,,,,,,0,,73,77
37006,note_on,165,0,3,,,,,,,,,,2,,53,0
37015,note_on,9,0,3,,,,,,,,,,2,,51,73
37022,note_on,61,0,1,,,,,,,,,,0,,73,0
37023,note_on,1,0,1,,,,,,,,,,0,,72,78
37036,note_on,21,0,3,,,,,,,,,,2,,51,0
37048,note_on,25,0,1,,,,,,,,,,0,,72,0
37077,note_on,41,0,3,,,,,,,,,,2,,50,75
37081,note_on,33,0,1,,,,,,,,,,0,,79,89
37101,note_on,24,0,3,,,,,,,,,,2,,50,0
37105,note_on,24,0,1,,,,,,,,,,0,,79,0
37139,note_on,38,0,3,,,,,,,,,,2,,48,79
37141,note_on,36,0,1,,,,,,,,,,0,,72,78
37165,note_on,26,0,3,,,,,,,,,,2,,48,0
37167,note_on,26,0,1,,,,,,,,,,0,,72,0
37199,note_on,34,0,3,,,,,,,,,,2,,53,69
37203,note_on,36,0,1,,,,,,,,,,0,,73,68
37226,note_on,27,0,3,,,,,,,,,,2,,53,0
37259,note_on,33,0,3,,,,,,,,,,2,,51,73
37263,note_on,0,0,1,,,,,,,,,,0,,72,78
37263,note_on,60,0,1,,,,,,,,,,0,,73,0
37283,note_on,24,0,3,,,,,,,,,,2,,51,0
37288,note_on,25,0,1,,,,,,,,,,0,,72,0
37323,note_on,40,0,3,,,,,,,,,,2,,50,68
37323,note_on,35,0,1,,,,,,,,,,0,,79,86
37345,note_on,22,0,3,,,,,,,,,,2,,50,0
37352,note_on,29,0,1,,,,,,,,,,0,,79,0
37383,note_on,31,0,1,,,,,,,,,,0,,72,78
37383,note_on,38,0,3,,,,,,,,,,2,,48,78
37411,note_on,28,0,1,,,,,,,,,,0,,72,0
37412,note_on,29,0,3,,,,,,,,,,2,,48,0
37440,note_on,29,0,1,,,,,,,,,,0,,84,79
37474,note_on,34,0,1,,,,,,,,,,0,,84,0
37500,note_on,88,0,3,,,,,,,,,,2,,48,77
37502,note_on,28,0,1,,,,,,,,,,0,,79,82
37529,note_on,29,0,3,,,,,,,,,,2,,48,0
37535,note_on,33,0,1,,,,,,,,,,0,,79,0
37559,note_on,24,0,1,,,,,,,,,,0,,80,93
37565,note_on,36,0,3,,,,,,,,,,2,,53,75
37593,note_on,34,0,1,,,,,,,,,,0,,80,0
37617,note_on,24,0,1,,,,,,,,,,0,,72,76
37649,note_on,84,0,3,,,,,,,,,,2,,53,0
37652,note_on,35,0,1,,,,,,,,,,0,,72,0
37678,note_on,29,0,3,,,,,,,,,,2,,55,68
37681,note_on,29,0,1,,,,,,,,,,0,,71,66
37703,note_on,22,0,1,,,,,,,,,,0,,71,0
37703,note_on,0,0,1,,,,,,,,,,0,,72,73
37722,note_on,19,0,1,,,,,,,,,,0,,72,0
37723,note_on,1,0,1,,,,,,,,,,0,,71,66
37739,note_on,16,0,1,,,,,,,,,,0,,71,0
37740,note_on,1,0,1,,,,,,,,,,0,,72,70
37759,note_on,19,0,1,,,,,,,,,,0,,71,65
37760,note_on,1,0,1,,,,,,,,,,0,,72,0
37773,note_on,0,0,1,,,,,,,,,,0,,72,73
37773,note_on,13,0,1,,,,,,,,,,0,,71,0
37776,note_on,98,0,3,,,,,,,,,,2,,55,0
37787,note_on,14,0,1,,,,,,,,,,0,,71,66
37789,note_on,2,0,1,,,,,,,,,,0,,72,0
37796,note_on,20,0,3,,,,,,,,,,2,,43,74
37849,note_on,60,0,1,,,,,,,,,,0,,72,69
37852,note_on,3,0,1,,,,,,,,,,0,,71,0
37890,note_on,94,0,3,,,,,,,,,,2,,43,0
37901,note_on,49,0,1,,,,,,,,,,0,,72,0
37910,note_on,20,0,3,,,,,,,,,,2,,48,76
37913,note_on,12,0,1,,,,,,,,,,0,,72,69
37977,note_on,8563,0,2,,,,,,,,,,1,,67,78
38000,note_on,23,0,2,,,,,,,,,,1,,67,0
38007,note_on,97,0,3,,,,,,,,,,2,,48,0
38042,note_on,42,0,2,,,,,,,,,,1,,72,66
38052,note_on,139,0,1,,,,,,,,,,0,,72,0
38098,note_on,91,0,3,,,,,,,,,,2,,60,84
38123,note_on,25,0,3,,,,,,,,,,2,,60,0
38158,note_on,35,0,3,,,,,,,,,,2,,51,84
38213,note_on,55,0,3,,,,,,,,,,2,,51,0
38217,note_on,4,0,3,,,,,,,,,,2,,50,69
38219,note_on,177,0,2,,,,,,,,,,1,,72,0
38221,note_on,2,0,2,,,,,,,,,,1,,67,71
38240,note_on,23,0,3,,,,,,,,,,2,,50,0
38243,note_on,22,0,2,,,,,,,,,,1,,67,0
38280,note_on,40,0,3,,,,,,,,,,2,,48,78
38282,note_on,39,0,2,,,,,,,,,,1,,72,76
38301,note_on,21,0,3,,,,,,,,,,2,,48,0
38302,note_on,20,0,2,,,,,,,,,,1,,72,0
38339,note_on,287,0,1,,,,,,,,,,0,,79,91
38340,note_on,38,0,2,,,,,,,,,,1,,74,75
38341,note_on,40,0,3,,,,,,,,,,2,,59,77
38363,note_on,23,0,2,,,,,,,,,,1,,74,0
38364,note_on,25,0,1,,,,,,,,,,0,,79,0
38365,note_on,24,0,3,,,,,,,,,,2,,59,0
38399,note_on,35,0,1,,,,,,,,,,0,,84,77
38401,note_on,38,0,2,,,,,,,,,,1,,75,65
38402,note_on,37,0,3,,,,,,,,,,2,,60,78
38487,note_on,85,0,3,,,,,,,,,,2,,60,0
38505,note_on,106,0,1,,,,,,,,,,0,,84,0
38509,note_on,108,0,2,,,,,,,,,,1,,75,0
38516,note_on,11,0,1,,,,,,,,,,0,,83,76
38521,note_on,34,0,3,,,,,,,,,,2,,55,70
38523,note_on,14,0,2,,,,,,,,,,1,,74,67
38622,note_on,101,0,3,,,,,,,,,,2,,55,0
38626,note_on,103,0,2,,,,,,,,,,1,,74,0
38632,note_on,116,0,1,,,,,,,,,,0,,83,0
38641,note_on,15,0,2,,,,,,,,,,1,,72,71
38641,note_on,19,0,3,,,,,,,,,,2,,48,75
38643,note_on,11,0,1,,,,,,,,,,0,,84,78
38669,note_on,26,0,1,,,,,,,,,,0,,84,0
38700,note_on,31,0,1,,,,,,,,,,0,,79,86
38726,note_on,26,0,1,,,,,,,,,,0,,79,0
38742,note_on,101,0,3,,,,,,,,,,2,,48,0
38760,note_on,119,0,2,,,,,,,,,,1,,72,0
38760,note_on,34,0,1,,,,,,,,,,0,,84,78
38817,note_on,75,0,3,,,,,,,,,,2,,60,84
38843,note_on,26,0,3,,,,,,,,,,2,,60,0
38880,note_on,37,0,3,,,,,,,,,,2,,51,84
38928,note_on,168,0,1,,,,,,,,,,0,,84,0
38935,note_on,7,0,1,,,,,,,,,,0,,79,89
38938,note_on,58,0,3,,,,,,,,,,2,,51,0
38939,note_on,1,0,3,,,,,,,,,,2,,50,75
38955,note_on,20,0,1,,,,,,,,,,0,,79,0
38962,note_on,23,0,3,,,,,,,,,,2,,50,0
38994,note_on,39,0,1,,,,,,,,,,0,,84,84
38997,note_on,35,0,3,,,,,,,,,,2,,48,84
39019,note_on,25,0,1,,,,,,,,,,0,,84,0
39019,note_on,22,0,3,,,,,,,,,,2,,48,0
39054,note_on,35,0,1,,,,,,,,,,0,,86,77
39057,note_on,38,0,3,,,,,,,,,,2,,59,76
39062,note_on,302,0,2,,,,,,,,,,1,,67,76
39080,note_on,23,0,3,,,,,,,,,,2,,59,0
39083,note_on,29,0,1,,,,,,,,,,0,,86,0
39085,note_on,23,0,2,,,,,,,,,,1,,67,0
39119,note_on,39,0,3,,,,,,,,,,2,,60,79
39120,note_on,37,0,1,,,,,,,,,,0,,87,79
39123,note_on,38,0,2,,,,,,,,,,1,,72,68
39217,note_on,98,0,3,,,,,,,,,,2,,60,0
39223,note_on,100,0,2,,,,,,,,,,1,,72,0
39226,note_on,106,0,1,,,,,,,,,,0,,87,0
39239,note_on,22,0,3,,,,,,,,,,2,,55,69
39241,note_on,15,0,1,,,,,,,,,,0,,86,76
39243,note_on,20,0,2,,,,,,,,,,1,,71,66
39337,note_on,98,0,3,,,,,,,,,,2,,55,0
39348,note_on,105,0,2,,,,,,,,,,1,,71,0
39349,note_on,108,0,1,,,,,,,,,,0,,86,0
39363,note_on,14,0,1,,,,,,,,,,0,,84,78
39363,note_on,15,0,2,,,,,,,,,,1,,72,68
39363,note_on,26,0,3,,,,,,,,,,2,,48,75
39390,note_on,27,0,1,,,,,,,,,,0,,84,0
39420,note_on,30,0,1,,,,,,,,,,0,,79,86
39447,note_on,27,0,1,,,,,,,,,,0,,79,0
39478,note_on,31,0,1,,,,,,,,,,0,,80,79
39485,note_on,122,0,2,,,,,,,,,,1,,72,0
39489,note_on,126,0,3,,,,,,,,,,2,,48,0
39536,note_on,47,0,3,,,,,,,,,,2,,48,76
39540,note_on,55,0,2,,,,,,,,,,1,,75,71
39562,note_on,26,0,3,,,,,,,,,,2,,48,0
39564,note_on,24,0,2,,,,,,,,,,1,,75,0
39598,note_on,36,0,3,,,,,,,,,,2,,47,76
39606,note_on,42,0,2,,,,,,,,,,1,,74,68
39627,note_on,29,0,3,,,,,,,,,,2,,47,0
39654,note_on,176,0,1,,,,,,,,,,0,,80,0
39657,note_on,30,0,3,,,,,,,,,,2,,45,78
39664,note_on,10,0,1,,,,,,,,,,0,,77,89
39687,note_on,30,0,3,,,,,,,,,,2,,45,0
39722,note_on,35,0,3,,,,,,,,,,2,,47,77
39722,note_on,58,0,1,,,,,,,,,,0,,77,0
39724,note_on,2,0,1,,,,,,,,,,0,,79,76
39747,note_on,23,0,1,,,,,,,,,,0,,79,0
39748,note_on,26,0,3,,,,,,,,,,2,,47,0
39751,note_on,145,0,2,,,,,,,,,,1,,74,0
39753,note_on,2,0,2,,,,,,,,,,1,,72,69
39780,note_on,27,0,2,,,,,,,,,,1,,71,68
39781,note_on,34,0,1,,,,,,,,,,0,,74,69
39781,note_on,1,0,2,,,,,,,,,,1,,72,0
39782,note_on,34,0,3,,,,,,,,,,2,,43,86
39802,note_on,21,0,1,,,,,,,,,,0,,74,0
39805,note_on,23,0,3,,,,,,,,,,2,,43,0
39809,note_on,0,0,2,,,,,,,,,,1,,69,67
39809,note_on,28,0,2,,,,,,,,,,1,,71,0
39839,note_on,37,0,1,,,,,,,,,,0,,75,70
39840,note_on,35,0,3,,,,,,,,,,2,,48,77
39841,note_on,32,0,2,,,,,,,,,,1,,69,0
39841,note_on,0,0,2,,,,,,,,,,1,,67,69
39864,note_on,24,0,3,,,,,,,,,,2,,48,0
39866,note_on,27,0,1,,,,,,,,,,0,,75,0
39899,note_on,35,0,3,,,,,,,,,,2,,51,71
39900,note_on,34,0,1,,,,,,,,,,0,,72,74
39921,note_on,80,0,2,,,,,,,,,,1,,67,0
39925,note_on,25,0,1,,,,,,,,,,0,,72,0
39926,note_on,27,0,3,,,,,,,,,,2,,51,0
39960,note_on,35,0,1,,,,,,,,,,0,,87,70
39961,note_on,35,0,3,,,,,,,,,,2,,50,76
39987,note_on,26,0,3,,,,,,,,,,2,,50,0
40020,note_on,99,0,2,,,,,,,,,,1,,79,84
40023,note_on,36,0,3,,,,,,,,,,2,,48,82
40042,note_on,22,0,2,,,,,,,,,,1,,79,0
40051,note_on,28,0,3,,,,,,,,,,2,,48,0
40053,note_on,93,0,1,,,,,,,,,,0,,87,0
40082,note_on,29,0,1,,,,,,,,,,0,,86,68
40083,note_on,41,0,2,,,,,,,,,,1,,80,74
40085,note_on,34,0,3,,,,,,,,,,2,,53,76
40180,note_on,98,0,1,,,,,,,,,,0,,86,0
40190,note_on,105,0,3,,,,,,,,,,2,,53,0
40199,note_on,19,0,1,,,,,,,,,,0,,84,77
40202,note_on,12,0,3,,,,,,,,,,2,,54,75
40202,note_on,119,0,2,,,,,,,,,,1,,80,0
40206,note_on,4,0,2,,,,,,,,,,1,,75,66
40303,note_on,101,0,3,,,,,,,,,,2,,54,0
40307,note_on,108,0,1,,,,,,,,,,0,,84,0
40322,note_on,19,0,3,,,,,,,,,,2,,55,73
40322,note_on,15,0,1,,,,,,,,,,0,,83,73
40325,note_on,119,0,2,,,,,,,,,,1,,75,0
40326,note_on,1,0,2,,,,,,,,,,1,,74,74
40353,note_on,27,0,2,,,,,,,,,,1,,74,0
40371,note_on,49,0,1,,,,,,,,,,0,,83,0
40383,note_on,30,0,2,,,,,,,,,,1,,74,57
40384,note_on,13,0,1,,,,,,,,,,0,,77,82
40410,note_on,27,0,2,,,,,,,,,,1,,75,66
40411,note_on,1,0,2,,,,,,,,,,1,,74,0
40412,note_on,28,0,1,,,,,,,,,,0,,77,0
40413,note_on,1,0,1,,,,,,,,,,0,,79,84
40438,note_on,27,0,2,,,,,,,,,,1,,75,0
40440,note_on,2,0,2,,,,,,,,,,1,,77,80
40441,note_on,28,0,1,,,,,,,,,,0,,79,0
40442,note_on,1,0,1,,,,,,,,,,0,,80,93
40443,note_on,121,0,3,,,,,,,,,,2,,55,0
40495,note_on,53,0,1,,,,,,,,,,0,,80,0
40497,note_on,57,0,2,,,,,,,,,,1,,75,63
40497,note_on,54,0,3,,,,,,,,,,2,,55,70
40499,note_on,2,0,2,,,,,,,,,,1,,77,0
40501,note_on,6,0,1,,,,,,,,,,0,,79,77
40526,note_on,27,0,2,,,,,,,,,,1,,75,0
40528,note_on,2,0,2,,,,,,,,,,1,,74,58
40528,note_on,31,0,3,,,,,,,,,,2,,55,0
40529,note_on,28,0,1,,,,,,,,,,0,,79,0
40530,note_on,1,0,1,,,,,,,,,,0,,77,84
40558,note_on,30,0,2,,,,,,,,,,1,,74,0
40559,note_on,31,0,3,,,,,,,,,,2,,60,77
40560,note_on,30,0,1,,,,,,,,,,0,,77,0
40560,note_on,2,0,2,,,,,,,,,,1,,72,69
40560,note_on,0,0,1,,,,,,,,,,0,,75,77
40580,note_on,20,0,2,,,,,,,,,,1,,72,0
40614,note_on,54,0,1,,,,,,,,,,0,,75,0
40621,note_on,41,0,2,,,,,,,,,,1,,72,71
40643,note_on,22,0,2,,,,,,,,,,1,,72,0
40659,note_on,100,0,3,,,,,,,,,,2,,60,0
40680,note_on,21,0,3,,,,,,,,,,2,,60,74
40681,note_on,38,0,2,,,,,,,,,,1,,75,71
40701,note_on,20,0,2,,,,,,,,,,1,,75,0
40742,note_on,41,0,2,,,,,,,,,,1,,72,71
40764,note_on,22,0,2,,,,,,,,,,1,,72,0
40780,note_on,100,0,3,,,,,,,,,,2,,60,0
40801,note_on,21,0,3,,,,,,,,,,2,,59,70
40803,note_on,39,0,2,,,,,,,,,,1,,77,78
40807,note_on,193,0,1,,,,,,,,,,0,,79,79
40825,note_on,22,0,2,,,,,,,,,,1,,77,0
40864,note_on,39,0,2,,,,,,,,,,1,,75,68
40903,note_on,102,0,3,,,,,,,,,,2,,59,0
40921,note_on,18,0,3,,,,,,,,,,2,,59,70
40950,note_on,86,0,2,,,,,,,,,,1,,75,0
40985,note_on,35,0,2,,,,,,,,,,1,,74,68
41022,note_on,101,0,3,,,,,,,,,,2,,59,0
41039,note_on,17,0,3,,,,,,,,,,2,,58,75
41095,note_on,110,0,2,,,,,,,,,,1,,74,0
41101,note_on,6,0,2,,,,,,,,,,1,,67,76
41119,note_on,18,0,2,,,,,,,,,,1,,67,0
41134,note_on,95,0,3,,,,,,,,,,2,,58,0
41158,note_on,24,0,3,,,,,,,,,,2,,58,73
41161,note_on,42,0,2,,,,,,,,,,1,,70,71
41182,note_on,21,0,2,,,,,,,,,,1,,70,0
41222,note_on,40,0,2,,,,,,,,,,1,,67,78
41242,note_on,20,0,2,,,,,,,,,,1,,67,0
41260,note_on,453,0,1,,,,,,,,,,0,,79,0
41262,note_on,104,0,3,,,,,,,,,,2,,58,0
41282,note_on,22,0,1,,,,,,,,,,0,,77,77
41282,note_on,40,0,2,,,,,,,,,,1,,75,67
41283,note_on,21,0,3,,,,,,,,,,2,,57,69
41304,note_on,22,0,2,,,,,,,,,,1,,75,0
41343,note_on,39,0,2,,,,,,,,,,1,,74,71
41381,note_on,98,0,3,,,,,,,,,,2,,57,0
41401,note_on,20,0,3,,,,,,,,,,2,,57,74
41428,note_on,85,0,2,,,,,,,,,,1,,74,0
41465,note_on,37,0,2,,,,,,,,,,1,,72,69
41493,note_on,92,0,3,,,,,,,,,,2,,57,0
41516,note_on,23,0,3,,,,,,,,,,2,,56,61
41585,note_on,120,0,2,,,,,,,,,,1,,72,0
41586,note_on,1,0,2,,,,,,,,,,1,,77,78
41605,note_on,19,0,2,,,,,,,,,,1,,77,0
41618,note_on,102,0,3,,,,,,,,,,2,,56,0
41642,note_on,24,0,3,,,,,,,,,,2,,56,68
41646,note_on,41,0,2,,,,,,,,,,1,,80,84
41664,note_on,18,0,2,,,,,,,,,,1,,80,0
41703,note_on,39,0,2,,,,,,,,,,1,,77,82
41722,note_on,19,0,2,,,,,,,,,,1,,77,0
41726,note_on,444,0,1,,,,,,,,,,0,,77,0
41732,note_on,90,0,3,,,,,,,,,,2,,56,0
41762,note_on,36,0,1,,,,,,,,,,0,,71,66
41764,note_on,32,0,3,,,,,,,,,,2,,55,67
41765,note_on,43,0,2,,,,,,,,,,1,,86,76
41786,note_on,21,0,2,,,,,,,,,,1,,86,0
41825,note_on,39,0,2,,,,,,,,,,1,,83,71
41904,note_on,79,0,2,,,,,,,,,,1,,83,0
41944,note_on,40,0,2,,,,,,,,,,1,,77,79
42038,note_on,94,0,2,,,,,,,,,,1,,77,0
42042,note_on,278,0,3,,,,,,,,,,2,,55,0
42063,note_on,21,0,3,,,,,,,,,,2,,43,91
42067,note_on,29,0,2,,,,,,,,,,1,,75,57
42091,note_on,28,0,3,,,,,,,,,,2,,43,0
42096,note_on,29,0,2,,,,,,,,,,1,,75,0
42097,note_on,1,0,2,,,,,,,,,,1,,77,78
42124,note_on,33,0,3,,,,,,,,,,2,,47,70
42126,note_on,29,0,2,,,,,,,,,,1,,77,0
42128,note_on,2,0,2,,,,,,,,,,1,,79,74
42151,note_on,27,0,3,,,,,,,,,,2,,47,0
42155,note_on,27,0,2,,,,,,,,,,1,,79,0
42156,note_on,1,0,2,,,,,,,,,,1,,77,70
42181,note_on,30,0,3,,,,,,,,,,2,,43,82
42185,note_on,29,0,2,,,,,,,,,,1,,77,0
42187,note_on,2,0,2,,,,,,,,,,1,,75,53
42209,note_on,28,0,3,,,,,,,,,,2,,43,0
42212,note_on,25,0,2,,,,,,,,,,1,,75,0
42214,note_on,2,0,2,,,,,,,,,,1,,74,61
42243,note_on,34,0,3,,,,,,,,,,2,,48,73
42244,note_on,0,0,2,,,,,,,,,,1,,75,65
42244,note_on,30,0,2,,,,,,,,,,1,,74,0
42249,note_on,487,0,1,,,,,,,,,,0,,72,75
42251,note_on,2,0,1,,,,,,,,,,0,,71,0
42265,note_on,21,0,2,,,,,,,,,,1,,75,0
42267,note_on,24,0,3,,,,,,,,,,2,,48,0
42303,note_on,36,0,3,,,,,,,,,,2,,51,73
42304,note_on,39,0,2,,,,,,,,,,1,,84,84
42328,note_on,24,0,2,,,,,,,,,,1,,84,0
42331,note_on,28,0,3,,,,,,,,,,2,,51,0
42358,note_on,107,0,1,,,,,,,,,,0,,72,0
42363,note_on,35,0,2,,,,,,,,,,1,,86,76
42365,note_on,34,0,3,,,,,,,,,,2,,53,71
42388,note_on,25,0,2,,,,,,,,,,1,,86,0
42393,note_on,28,0,3,,,,,,,,,,2,,53,0
42422,note_on,34,0,2,,,,,,,,,,1,,83,74
42425,note_on,32,0,3,,,,,,,,,,2,,55,67
42449,note_on,27,0,2,,,,,,,,,,1,,83,0
42450,note_on,25,0,3,,,,,,,,,,2,,55,0
42481,note_on,123,0,1,,,,,,,,,,0,,72,77
42482,note_on,33,0,2,,,,,,,,,,1,,84,74
42485,note_on,35,0,3,,,,,,,,,,2,,48,78
42498,note_on,17,0,1,,,,,,,,,,0,,72,0
42498,note_on,0,0,1,,,,,,,,,,0,,74,74
42508,note_on,23,0,3,,,,,,,,,,2,,48,0
42516,note_on,18,0,1,,,,,,,,,,0,,74,0
42517,note_on,1,0,1,,,,,,,,,,0,,72,69
42534,note_on,17,0,1,,,,,,,,,,0,,74,69
42535,note_on,1,0,1,,,,,,,,,,0,,72,0
42541,note_on,33,0,3,,,,,,,,,,2,,50,67
42552,note_on,0,0,1,,,,,,,,,,0,,72,69
42552,note_on,17,0,1,,,,,,,,,,0,,74,0
42567,note_on,26,0,3,,,,,,,,,,2,,50,0
42579,note_on,27,0,1,,,,,,,,,,0,,72,0
42596,note_on,17,0,1,,,,,,,,,,0,,72,74
42600,note_on,33,0,3,,,,,,,,,,2,,51,71
42610,note_on,128,0,2,,,,,,,,,,1,,84,0
42614,note_on,18,0,1,,,,,,,,,,0,,74,71
42615,note_on,1,0,1,,,,,,,,,,0,,72,0
42621,note_on,21,0,3,,,,,,,,,,2,,51,0
42632,note_on,17,0,1,,,,,,,,,,0,,74,0
42632,note_on,0,0,1,,,,,,,,,,0,,72,67
42647,note_on,15,0,1,,,,,,,,,,0,,72,0
42647,note_on,0,0,1,,,,,,,,,,0,,74,70
42656,note_on,35,0,3,,,,,,,,,,2,,50,70
42665,note_on,18,0,1,,,,,,,,,,0,,74,0
42666,note_on,1,0,1,,,,,,,,,,0,,72,71
42682,note_on,26,0,3,,,,,,,,,,2,,50,0
42693,note_on,27,0,1,,,,,,,,,,0,,72,0
42714,note_on,32,0,3,,,,,,,,,,2,,48,74
42715,note_on,22,0,1,,,,,,,,,,0,,72,89
42745,note_on,30,0,1,,,,,,,,,,0,,72,0
42774,note_on,29,0,1,,,,,,,,,,0,,79,74
42789,note_on,75,0,3,,,,,,,,,,2,,48,0
42799,note_on,25,0,1,,,,,,,,,,0,,79,0
42801,note_on,2,0,1,,,,,,,,,,0,,77,82
42831,note_on,30,0,1,,,,,,,,,,0,,77,0
42833,note_on,2,0,1,,,,,,,,,,0,,75,70
42857,note_on,24,0,1,,,,,,,,,,0,,75,0
42895,note_on,38,0,1,,,,,,,,,,0,,74,70
42922,note_on,27,0,1,,,,,,,,,,0,,74,0
42951,note_on,162,0,3,,,,,,,,,,2,,48,71
42953,note_on,31,0,1,,,,,,,,,,0,,72,74
42972,note_on,19,0,1,,,,,,,,,,0,,72,0
42972,note_on,0,0,1,,,,,,,,,,0,,74,70
42978,note_on,27,0,3,,,,,,,,,,2,,48,0
42991,note_on,19,0,1,,,,,,,,,,0,,74,0
42991,note_on,0,0,1,,,,,,,,,,0,,72,68
43008,note_on,30,0,3,,,,,,,,,,2,,50,67
43009,note_on,18,0,1,,,,,,,,,,0,,72,0
43010,note_on,1,0,1,,,,,,,,,,0,,74,69
43025,note_on,15,0,1,,,,,,,,,,0,,74,0
43026,note_on,1,0,1,,,,,,,,,,0,,72,66
43035,note_on,27,0,3,,,,,,,,,,2,,50,0
43057,note_on,31,0,1,,,,,,,,,,0,,72,0
43066,note_on,31,0,3,,,,,,,,,,2,,51,73
43073,note_on,16,0,1,,,,,,,,,,0,,72,75
43091,note_on,18,0,1,,,,,,,,,,0,,74,69
43092,note_on,1,0,1,,,,,,,,,,0,,72,0
43095,note_on,29,0,3,,,,,,,,,,2,,51,0
43111,note_on,19,0,1,,,,,,,,,,0,,74,0
43112,note_on,1,0,1,,,,,,,,,,0,,72,67
43129,note_on,17,0,1,,,,,,,,,,0,,72,0
43129,note_on,0,0,1,,,,,,,,,,0,,74,67
43130,note_on,35,0,3,,,,,,,,,,2,,50,74
43148,note_on,19,0,1,,,,,,,,,,0,,72,69
43149,note_on,1,0,1,,,,,,,,,,0,,74,0
43159,note_on,29,0,3,,,,,,,,,,2,,50,0
43175,note_on,26,0,1,,,,,,,,,,0,,72,0
43189,note_on,30,0,3,,,,,,,,,,2,,48,71
43197,note_on,22,0,1,,,,,,,,,,0,,72,77
43217,note_on,20,0,1,,,,,,,,,,0,,72,0
43220,note_on,3,0,1,,,,,,,,,,0,,74,68
43240,note_on,20,0,1,,,,,,,,,,0,,74,0
43251,note_on,11,0,1,,,,,,,,,,0,,75,61
43273,note_on,22,0,1,,,,,,,,,,0,,75,0
43277,note_on,4,0,1,,,,,,,,,,0,,77,79
43280,note_on,91,0,3,,,,,,,,,,2,,48,0
43300,note_on,23,0,1,,,,,,,,,,0,,77,0
43313,note_on,13,0,1,,,,,,,,,,0,,79,88
43338,note_on,25,0,1,,,,,,,,,,0,,79,0
43380,note_on,42,0,1,,,,,,,,,,0,,72,77
43403,note_on,23,0,1,,,,,,,,,,0,,72,0
43439,note_on,159,0,3,,,,,,,,,,2,,53,79
43440,note_on,37,0,1,,,,,,,,,,0,,80,89
43457,note_on,17,0,1,,,,,,,,,,0,,80,0
43457,note_on,0,0,1,,,,,,,,,,0,,82,73
43471,note_on,32,0,3,,,,,,,,,,2,,53,0
43474,note_on,17,0,1,,,,,,,,,,0,,82,0
43475,note_on,1,0,1,,,,,,,,,,0,,80,77
43492,note_on,0,0,1,,,,,,,,,,0,,82,70
43492,note_on,17,0,1,,,,,,,,,,0,,80,0
43496,note_on,25,0,3,,,,,,,,,,2,,55,71
43507,note_on,15,0,1,,,,,,,,,,0,,82,0
43508,note_on,1,0,1,,,,,,,,,,0,,80,71
43526,note_on,30,0,3,,,,,,,,,,2,,55,0
43545,note_on,37,0,1,,,,,,,,,,0,,80,0
43554,note_on,28,0,3,,,,,,,,,,2,,56,77
43559,note_on,14,0,1,,,,,,,,,,0,,80,91
43577,note_on,18,0,1,,,,,,,,,,0,,82,71
43578,note_on,1,0,1,,,,,,,,,,0,,80,0
43583,note_on,29,0,3,,,,,,,,,,2,,56,0
43596,note_on,18,0,1,,,,,,,,,,0,,82,0
43596,note_on,0,0,1,,,,,,,,,,0,,80,77
43613,note_on,17,0,1,,,,,,,,,,0,,80,0
43613,note_on,0,0,1,,,,,,,,,,0,,82,71
43614,note_on,31,0,3,,,,,,,,,,2,,55,68
43631,note_on,18,0,1,,,,,,,,,,0,,82,0
43633,note_on,2,0,1,,,,,,,,,,0,,80,74
43643,note_on,29,0,3,,,,,,,,,,2,,55,0
43662,note_on,29,0,1,,,,,,,,,,0,,80,0
43677,note_on,34,0,3,,,,,,,,,,2,,53,71
43678,note_on,16,0,1,,,,,,,,,,0,,80,79
43707,note_on,29,0,1,,,,,,,,,,0,,80,0
43742,note_on,35,0,1,,,,,,,,,,0,,84,69
43766,note_on,24,0,1,,,,,,,,,,0,,84,0
43767,note_on,1,0,1,,,,,,,,,,0,,82,74
43780,note_on,103,0,3,,,,,,,,,,2,,53,0
43797,note_on,30,0,1,,,,,,,,,,0,,82,0
43799,note_on,2,0,1,,,,,,,,,,0,,80,78
43823,note_on,24,0,1,,,,,,,,,,0,,80,0
43858,note_on,35,0,1,,,,,,,,,,0,,79,89
43881,note_on,23,0,1,,,,,,,,,,0,,79,0
43917,note_on,137,0,3,,,,,,,,,,2,,53,78
43919,note_on,38,0,1,,,,,,,,,,0,,77,82
43936,note_on,17,0,1,,,,,,,,,,0,,77,0
43938,note_on,2,0,1,,,,,,,,,,0,,79,86
43946,note_on,29,0,3,,,,,,,,,,2,,53,0
43954,note_on,16,0,1,,,,,,,,,,0,,79,0
43955,note_on,1,0,1,,,,,,,,,,0,,77,78
43974,note_on,19,0,1,,,,,,,,,,0,,77,0
43974,note_on,0,0,1,,,,,,,,,,0,,79,79
43975,note_on,29,0,3,,,,,,,,,,2,,55,69
43991,note_on,17,0,1,,,,,,,,,,0,,79,0
43993,note_on,2,0,1,,,,,,,,,,0,,77,82
44004,note_on,29,0,3,,,,,,,,,,2,,55,0
44024,note_on,31,0,1,,,,,,,,,,0,,77,0
44034,note_on,30,0,3,,,,,,,,,,2,,56,71
44040,note_on,16,0,1,,,,,,,,,,0,,77,84
44058,note_on,18,0,1,,,,,,,,,,0,,77,0
44059,note_on,1,0,1,,,,,,,,,,0,,79,86
44061,note_on,27,0,3,,,,,,,,,,2,,56,0
44076,note_on,17,0,1,,,,,,,,,,0,,79,0
44078,note_on,2,0,1,,,,,,,,,,0,,77,75
44094,note_on,0,0,1,,,,,,,,,,0,,79,77
44094,note_on,16,0,1,,,,,,,,,,0,,77,0
44095,note_on,34,0,3,,,,,,,,,,2,,55,65
44110,note_on,16,0,1,,,,,,,,,,0,,79,0
44113,note_on,3,0,1,,,,,,,,,,0,,77,82
44123,note_on,28,0,3,,,,,,,,,,2,,55,0
44137,note_on,24,0,1,,,,,,,,,,0,,77,0
44157,note_on,34,0,3,,,,,,,,,,2,,53,69
44158,note_on,21,0,1,,,,,,,,,,0,,77,89
44186,note_on,28,0,1,,,,,,,,,,0,,79,73
44188,note_on,2,0,1,,,,,,,,,,0,,77,0
44215,note_on,0,0,1,,,,,,,,,,0,,80,82
44215,note_on,27,0,1,,,,,,,,,,0,,79,0
44241,note_on,26,0,1,,,,,,,,,,0,,80,0
44244,note_on,3,0,1,,,,,,,,,,0,,82,75
44265,note_on,108,0,3,,,,,,,,,,2,,53,0
44271,note_on,27,0,1,,,,,,,,,,0,,82,0
44280,note_on,9,0,1,,,,,,,,,,0,,84,68
44304,note_on,24,0,1,,,,,,,,,,0,,84,0
44339,note_on,35,0,1,,,,,,,,,,0,,77,91
44361,note_on,22,0,1,,,,,,,,,,0,,77,0
44397,note_on,132,0,3,,,,,,,,,,2,,50,79
44398,note_on,37,0,1,,,,,,,,,,0,,78,91
44415,note_on,17,0,1,,,,,,,,,,0,,78,0
44416,note_on,1,0,1,,,,,,,,,,0,,79,84
44426,note_on,29,0,3,,,,,,,,,,2,,50,0
44433,note_on,0,0,1,,,,,,,,,,0,,78,79
44433,note_on,17,0,1,,,,,,,,,,0,,79,0
44451,note_on,0,0,1,,,,,,,,,,0,,79,86
44451,note_on,18,0,1,,,,,,,,,,0,,78,0
44454,note_on,28,0,3,,,,,,,,,,2,,52,76
44469,note_on,18,0,1,,,,,,,,,,0,,79,0
44469,note_on,0,0,1,,,,,,,,,,0,,78,91
44483,note_on,29,0,3,,,,,,,,,,2,,52,0
44501,note_on,32,0,1,,,,,,,,,,0,,78,0
44514,note_on,31,0,3,,,,,,,,,,2,,54,63
44518,note_on,17,0,1,,,,,,,,,,0,,78,91
44537,note_on,0,0,1,,,,,,,,,,0,,79,84
44537,note_on,19,0,1,,,,,,,,,,0,,78,0
44549,note_on,35,0,3,,,,,,,,,,2,,54,0
44556,note_on,19,0,1,,,,,,,,,,0,,79,0
44556,note_on,0,0,1,,,,,,,,,,0,,78,84
44572,note_on,16,0,1,,,,,,,,,,0,,78,0
44575,note_on,26,0,3,,,,,,,,,,2,,52,68
44575,note_on,3,0,1,,,,,,,,,,0,,79,77
44591,note_on,16,0,1,,,,,,,,,,0,,79,0
44594,note_on,3,0,1,,,,,,,,,,0,,78,82
44605,note_on,30,0,3,,,,,,,,,,2,,52,0
44619,note_on,25,0,1,,,,,,,,,,0,,78,0
44636,note_on,17,0,1,,,,,,,,,,0,,78,89
44638,note_on,33,0,3,,,,,,,,,,2,,50,74
44666,note_on,30,0,1,,,,,,,,,,0,,78,0
44701,note_on,35,0,1,,,,,,,,,,0,,84,78
44728,note_on,27,0,1,,,,,,,,,,0,,84,0
44730,note_on,2,0,1,,,,,,,,,,0,,82,65
44738,note_on,100,0,3,,,,,,,,,,2,,50,0
44758,note_on,28,0,1,,,,,,,,,,0,,82,0
44762,note_on,4,0,1,,,,,,,,,,0,,81,74
44787,note_on,25,0,1,,,,,,,,,,0,,81,0
44822,note_on,35,0,1,,,,,,,,,,0,,79,86
44848,note_on,26,0,1,,,,,,,,,,0,,79,0
44881,note_on,33,0,1,,,,,,,,,,0,,78,98
44882,note_on,144,0,3,,,,,,,,,,2,,50,75
44900,note_on,19,0,1,,,,,,,,,,0,,78,0
44900,note_on,0,0,1,,,,,,,,,,0,,79,79
44913,note_on,31,0,3,,,,,,,,,,2,,50,0
44918,note_on,18,0,1,,,,,,,,,,0,,79,0
44919,note_on,1,0,1,,,,,,,,,,0,,78,84
44937,note_on,18,0,1,,,,,,,,,,0,,78,0
44938,note_on,25,0,3,,,,,,,,,,2,,52,77
44939,note_on,2,0,1,,,,,,,,,,0,,79,76
44956,note_on,0,0,1,,,,,,,,,,0,,78,84
44956,note_on,17,0,1,,,,,,,,,,0,,79,0
44968,note_on,30,0,3,,,,,,,,,,2,,52,0
44980,note_on,24,0,1,,,,,,,,,,0,,78,0
45000,note_on,32,0,3,,,,,,,,,,2,,54,68
45001,note_on,21,0,1,,,,,,,,,,0,,78,84
45020,note_on,19,0,1,,,,,,,,,,0,,78,0
45022,note_on,2,0,1,,,,,,,,,,0,,79,78
45029,note_on,29,0,3,,,,,,,,,,2,,54,0
45041,note_on,19,0,1,,,,,,,,,,0,,79,0
45041,note_on,0,0,1,,,,,,,,,,0,,78,84
45058,note_on,29,0,3,,,,,,,,,,2,,52,76
45059,note_on,18,0,1,,,,,,,,,,0,,78,0
45061,note_on,2,0,1,,,,,,,,,,0,,79,79
45077,note_on,16,0,1,,,,,,,,,,0,,79,0
45079,note_on,2,0,1,,,,,,,,,,0,,78,82
45086,note_on,28,0,3,,,,,,,,,,2,,52,0
45098,note_on,19,0,1,,,,,,,,,,0,,78,0
45118,note_on,20,0,1,,,,,,,,,,0,,78,79
45123,note_on,37,0,3,,,,,,,,,,2,,50,74
45147,note_on,29,0,1,,,,,,,,,,0,,78,0
45147,note_on,0,0,1,,,,,,,,,,0,,79,74
45178,note_on,31,0,1,,,,,,,,,,0,,79,0
45179,note_on,1,0,1,,,,,,,,,,0,,81,74
45206,note_on,27,0,1,,,,,,,,,,0,,81,0
45208,note_on,2,0,1,,,,,,,,,,0,,82,73
45232,note_on,109,0,3,,,,,,,,,,2,,50,0
45236,note_on,28,0,1,,,,,,,,,,0,,82,0
45242,note_on,6,0,1,,,,,,,,,,0,,84,74
45262,note_on,20,0,1,,,,,,,,,,0,,84,0
45301,note_on,39,0,1,,,,,,,,,,0,,81,76
45322,note_on,21,0,1,,,,,,,,,,0,,81,0
45359,note_on,37,0,1,,,,,,,,,,0,,82,73
45361,note_on,129,0,3,,,,,,,,,,2,,55,73
45380,note_on,21,0,1,,,,,,,,,,0,,82,0
45385,note_on,24,0,3,,,,,,,,,,2,,55,0
45419,note_on,34,0,3,,,,,,,,,,2,,57,73
45419,note_on,39,0,1,,,,,,,,,,0,,79,89
45443,note_on,24,0,1,,,,,,,,,,0,,79,0
45448,note_on,29,0,3,,,,,,,,,,2,,57,0
45479,note_on,31,0,3,,,,,,,,,,2,,58,71
45509,note_on,30,0,3,,,,,,,,,,2,,58,0
45539,note_on,96,0,1,,,,,,,,,,0,,82,78
45540,note_on,31,0,3,,,,,,,,,,2,,57,68
45572,note_on,32,0,3,,,,,,,,,,2,,57,0
45601,note_on,29,0,3,,,,,,,,,,2,,55,71
45602,note_on,63,0,1,,,,,,,,,,0,,82,84
45606,note_on,4,0,1,,,,,,,,,,0,,82,0
45631,note_on,25,0,1,,,,,,,,,,0,,82,0
45631,note_on,0,0,1,,,,,,,,,,0,,84,77
45662,note_on,31,0,1,,,,,,,,,,0,,84,0
45663,note_on,1,0,1,,,,,,,,,,0,,86,76
45710,note_on,109,0,3,,,,,,,,,,2,,55,0
45711,note_on,48,0,1,,,,,,,,,,0,,86,0
45719,note_on,8,0,1,,,,,,,,,,0,,86,79
45719,note_on,9,0,3,,,,,,,,,,2,,55,63
45748,note_on,29,0,1,,,,,,,,,,0,,86,0
45750,note_on,2,0,1,,,,,,,,,,0,,84,76
45778,note_on,28,0,1,,,,,,,,,,0,,84,0
45779,note_on,1,0,1,,,,,,,,,,0,,82,63
45829,note_on,50,0,1,,,,,,,,,,0,,82,0
45833,note_on,114,0,3,,,,,,,,,,2,,55,0
45838,note_on,9,0,1,,,,,,,,,,0,,82,59
45839,note_on,6,0,3,,,,,,,,,,2,,54,67
45898,note_on,60,0,1,,,,,,,,,,0,,82,0
45899,note_on,1,0,1,,,,,,,,,,0,,81,68
45950,note_on,111,0,3,,,,,,,,,,2,,54,0
45961,note_on,11,0,3,,,,,,,,,,2,,54,61
46005,note_on,106,0,1,,,,,,,,,,0,,81,0
46014,note_on,9,0,1,,,,,,,,,,0,,81,78
46061,note_on,100,0,3,,,,,,,,,,2,,54,0
46066,note_on,52,0,1,,,,,,,,,,0,,81,0
46074,note_on,13,0,3,,,,,,,,,,2,,53,74
46076,note_on,10,0,1,,,,,,,,,,0,,81,82
46106,note_on,30,0,1,,,,,,,,,,0,,82,68
46107,note_on,1,0,1,,,,,,,,,,0,,81,0
46134,note_on,27,0,1,,,,,,,,,,0,,82,0
46135,note_on,1,0,1,,,,,,,,,,0,,84,75
46183,note_on,48,0,1,,,,,,,,,,0,,84,0
46186,note_on,112,0,3,,,,,,,,,,2,,53,0
46191,note_on,8,0,1,,,,,,,,,,0,,84,67
46198,note_on,12,0,3,,,,,,,,,,2,,53,76
46224,note_on,33,0,1,,,,,,,,,,0,,82,67
46225,note_on,1,0,1,,,,,,,,,,0,,84,0
46253,note_on,0,0,1,,,,,,,,,,0,,81,74
46253,note_on,28,0,1,,,,,,,,,,0,,82,0
46300,note_on,102,0,3,,,,,,,,,,2,,53,0
46300,note_on,47,0,1,,,,,,,,,,0,,81,0
46314,note_on,14,0,1,,,,,,,,,,0,,81,78
46315,note_on,15,0,3,,,,,,,,,,2,,52,76
46378,note_on,64,0,1,,,,,,,,,,0,,81,0
46379,note_on,1,0,1,,,,,,,,,,0,,79,70
46426,note_on,111,0,3,,,,,,,,,,2,,52,0
46440,note_on,14,0,3,,,,,,,,,,2,,52,74
46473,note_on,94,0,1,,,,,,,,,,0,,79,0
46501,note_on,28,0,1,,,,,,,,,,0,,79,81
46529,note_on,28,0,1,,,,,,,,,,0,,79,0
46549,note_on,109,0,3,,,,,,,,,,2,,52,0
46562,note_on,13,0,3,,,,,,,,,,2,,51,78
46563,note_on,34,0,1,,,,,,,,,,0,,79,71
46592,note_on,29,0,1,,,,,,,,,,0,,79,0
46594,note_on,2,0,1,,,,,,,,,,0,,81,76
46620,note_on,26,0,1,,,,,,,,,,0,,81,0
46621,note_on,1,0,1,,,,,,,,,,0,,82,73
46665,note_on,103,0,3,,,,,,,,,,2,,51,0
46667,note_on,46,0,1,,,,,,,,,,0,,82,0
46675,note_on,8,0,1,,,,,,,,,,0,,82,73
46678,note_on,13,0,3,,,,,,,,,,2,,51,78
46707,note_on,32,0,1,,,,,,,,,,0,,82,0
46707,note_on,0,0,1,,,,,,,,,,0,,81,76
46736,note_on,29,0,1,,,,,,,,,,0,,81,0
46738,note_on,2,0,1,,,,,,,,,,0,,79,77
46777,note_on,99,0,3,,,,,,,,,,2,,51,0
46786,note_on,48,0,1,,,,,,,,,,0,,79,0
46797,note_on,20,0,3,,,,,,,,,,2,,50,84
46798,note_on,12,0,1,,,,,,,,,,0,,78,75
46855,note_on,4245,0,2,,,,,,,,,,1,,74,91
46870,note_on,15,0,2,,,,,,,,,,1,,74,0
46914,note_on,116,0,1,,,,,,,,,,0,,78,0
46914,note_on,44,0,2,,,,,,,,,,1,,79,93
46942,note_on,145,0,3,,,,,,,,,,2,,50,0
46983,note_on,41,0,3,,,,,,,,,,2,,55,74
47008,note_on,25,0,3,,,,,,,,,,2,,55,0
47045,note_on,37,0,3,,,,,,,,,,2,,46,77
47101,note_on,56,0,3,,,,,,,,,,2,,46,0
47102,note_on,1,0,3,,,,,,,,,,2,,45,78
47103,note_on,0,0,2,,,,,,,,,,1,,74,71
47103,note_on,189,0,2,,,,,,,,,,1,,79,0
47127,note_on,25,0,3,,,,,,,,,,2,,45,0
47127,note_on,24,0,2,,,,,,,,,,1,,74,0
47160,note_on,33,0,3,,,,,,,,,,2,,43,70
47161,note_on,34,0,2,,,,,,,,,,1,,79,95
47181,note_on,20,0,2,,,,,,,,,,1,,79,0
47183,note_on,23,0,3,,,,,,,,,,2,,43,0
47218,note_on,35,0,3,,,,,,,,,,2,,54,74
47218,note_on,37,0,2,,,,,,,,,,1,,81,86
47222,note_on,308,0,1,,,,,,,,,,0,,74,76
47239,note_on,21,0,2,,,,,,,,,,1,,81,0
47248,note_on,26,0,1,,,,,,,,,,0,,74,0
47248,note_on,30,0,3,,,,,,,,,,2,,54,0
47280,note_on,41,0,2,,,,,,,,,,1,,82,79
47280,note_on,32,0,3,,,,,,,,,,2,,55,66
47280,note_on,32,0,1,,,,,,,,,,0,,79,78
47385,note_on,105,0,2,,,,,,,,,,1,,82,0
47387,note_on,107,0,3,,,,,,,,,,2,,55,0
47389,note_on,109,0,1,,,,,,,,,,0,,79,0
47395,note_on,10,0,2,,,,,,,,,,1,,81,86
47397,note_on,8,0,1,,,,,,,,,,0,,78,84
47404,note_on,17,0,3,,,,,,,,,,2,,50,79
47502,note_on,107,0,2,,,,,,,,,,1,,81,0
47503,note_on,99,0,3,,,,,,,,,,2,,50,0
47508,note_on,111,0,1,,,,,,,,,,0,,78,0
47520,note_on,18,0,2,,,,,,,,,,1,,79,91
47520,note_on,12,0,1,,,,,,,,,,0,,79,93
47522,note_on,19,0,3,,,,,,,,,,2,,43,77
47576,note_on,56,0,2,,,,,,,,,,1,,79,0
47580,note_on,4,0,2,,,,,,,,,,1,,74,75
47601,note_on,21,0,2,,,,,,,,,,1,,74,0
47639,note_on,38,0,2,,,,,,,,,,1,,75,73
47644,note_on,122,0,3,,,,,,,,,,2,,43,0
47649,note_on,129,0,1,,,,,,,,,,0,,79,0
47696,note_on,47,0,1,,,,,,,,,,0,,82,73
47698,note_on,54,0,3,,,,,,,,,,2,,55,71
47725,note_on,27,0,3,,,,,,,,,,2,,55,0
47729,note_on,33,0,1,,,,,,,,,,0,,82,0
47757,note_on,32,0,3,,,,,,,,,,2,,54,65
47760,note_on,31,0,1,,,,,,,,,,0,,81,82
47783,note_on,26,0,3,,,,,,,,,,2,,54,0
47811,note_on,172,0,2,,,,,,,,,,1,,75,0
47816,note_on,5,0,2,,,,,,,,,,1,,72,78
47817,note_on,34,0,3,,,,,,,,,,2,,52,78
47835,note_on,19,0,2,,,,,,,,,,1,,72,0
47844,note_on,27,0,3,,,,,,,,,,2,,52,0
47874,note_on,30,0,3,,,,,,,,,,2,,54,67
47877,note_on,42,0,2,,,,,,,,,,1,,74,74
47897,note_on,20,0,2,,,,,,,,,,1,,74,0
47902,note_on,28,0,3,,,,,,,,,,2,,54,0
47907,note_on,147,0,1,,,,,,,,,,0,,81,0
47908,note_on,1,0,1,,,,,,,,,,0,,79,75
47934,note_on,32,0,3,,,,,,,,,,2,,50,69
47936,note_on,39,0,2,,,,,,,,,,1,,69,82
47939,note_on,31,0,1,,,,,,,,,,0,,79,0
47939,note_on,0,0,1,,,,,,,,,,0,,78,77
47956,note_on,20,0,2,,,,,,,,,,1,,69,0
47963,note_on,29,0,3,,,,,,,,,,2,,50,0
47967,note_on,28,0,1,,,,,,,,,,0,,78,0
47968,note_on,1,0,1,,,,,,,,,,0,,76,82
47996,note_on,40,0,2,,,,,,,,,,1,,70,75
47997,note_on,34,0,3,,,,,,,,,,2,,55,69
47997,note_on,29,0,1,,,,,,,,,,0,,76,0
47999,note_on,2,0,1,,,,,,,,,,0,,74,71
48020,note_on,24,0,2,,,,,,,,,,1,,70,0
48021,note_on,22,0,1,,,,,,,,,,0,,74,0
48056,note_on,36,0,2,,,,,,,,,,1,,67,89
48060,note_on,39,0,1,,,,,,,,,,0,,74,75
48086,note_on,30,0,2,,,,,,,,,,1,,67,0
48088,note_on,28,0,1,,,,,,,,,,0,,74,0
48121,note_on,33,0,1,,,,,,,,,,0,,79,78
48136,note_on,139,0,3,,,,,,,,,,2,,55,0
48178,note_on,42,0,3,,,,,,,,,,2,,55,69
48204,note_on,26,0,3,,,,,,,,,,2,,55,0
48239,note_on,35,0,3,,,,,,,,,,2,,46,75
48264,note_on,25,0,3,,,,,,,,,,2,,46,0
48297,note_on,176,0,1,,,,,,,,,,0,,79,0
48299,note_on,35,0,3,,,,,,,,,,2,,45,71
48301,note_on,4,0,1,,,,,,,,,,0,,74,69
48325,note_on,26,0,3,,,,,,,,,,2,,45,0
48325,note_on,24,0,1,,,,,,,,,,0,,74,0
48359,note_on,34,0,3,,,,,,,,,,2,,43,82
48360,note_on,35,0,1,,,,,,,,,,0,,79,84
48382,note_on,23,0,3,,,,,,,,,,2,,43,0
48386,note_on,26,0,1,,,,,,,,,,0,,79,0
48417,note_on,35,0,3,,,,,,,,,,2,,54,74
48418,note_on,332,0,2,,,,,,,,,,1,,74,79
48420,note_on,34,0,1,,,,,,,,,,0,,81,78
48443,note_on,25,0,2,,,,,,,,,,1,,74,0
48446,note_on,29,0,3,,,,,,,,,,2,,54,0
48450,note_on,30,0,1,,,,,,,,,,0,,81,0
48480,note_on,37,0,2,,,,,,,,,,1,,79,91
48481,note_on,31,0,1,,,,,,,,,,0,,82,73
48481,note_on,35,0,3,,,,,,,,,,2,,55,69
48577,note_on,96,0,3,,,,,,,,,,2,,55,0
48582,note_on,102,0,2,,,,,,,,,,1,,79,0
48600,note_on,18,0,2,,,,,,,,,,1,,78,91
48601,note_on,24,0,3,,,,,,,,,,2,,50,76
48606,note_on,125,0,1,,,,,,,,,,0,,82,0
48607,note_on,1,0,1,,,,,,,,,,0,,81,78
48692,note_on,91,0,3,,,,,,,,,,2,,50,0
48695,note_on,95,0,2,,,,,,,,,,1,,78,0
48704,note_on,97,0,1,,,,,,,,,,0,,81,0
48719,note_on,27,0,3,,,,,,,,,,2,,43,74
48722,note_on,27,0,2,,,,,,,,,,1,,79,89
48723,note_on,19,0,1,,,,,,,,,,0,,79,91
48776,note_on,53,0,1,,,,,,,,,,0,,79,0
48781,note_on,5,0,1,,,,,,,,,,0,,74,79
48802,note_on,21,0,1,,,,,,,,,,0,,74,0
48836,note_on,34,0,1,,,,,,,,,,0,,75,78
48852,note_on,133,0,3,,,,,,,,,,2,,43,0
48855,note_on,133,0,2,,,,,,,,,,1,,79,0
48897,note_on,45,0,3,,,,,,,,,,2,,55,69
48900,note_on,45,0,2,,,,,,,,,,1,,82,79
48927,note_on,27,0,2,,,,,,,,,,1,,82,0
48928,note_on,31,0,3,,,,,,,,,,2,,55,0
48957,note_on,29,0,3,,,,,,,,,,2,,54,75
48962,note_on,35,0,2,,,,,,,,,,1,,81,86
48985,note_on,28,0,3,,,,,,,,,,2,,54,0
49016,note_on,31,0,3,,,,,,,,,,2,,52,69
49021,note_on,0,0,1,,,,,,,,,,0,,72,77
49021,note_on,185,0,1,,,,,,,,,,0,,75,0
49041,note_on,20,0,1,,,,,,,,,,0,,72,0
49046,note_on,30,0,3,,,,,,,,,,2,,52,0
49075,note_on,29,0,3,,,,,,,,,,2,,54,67
49077,note_on,36,0,1,,,,,,,,,,0,,74,70
49102,note_on,25,0,1,,,,,,,,,,0,,74,0
49104,note_on,29,0,3,,,,,,,,,,2,,54,0
49105,note_on,143,0,2,,,,,,,,,,1,,81,0
49107,note_on,2,0,2,,,,,,,,,,1,,79,84
49136,note_on,29,0,2,,,,,,,,,,1,,79,0
49136,note_on,32,0,3,,,,,,,,,,2,,50,82
49137,note_on,35,0,1,,,,,,,,,,0,,69,89
49137,note_on,1,0,2,,,,,,,,,,1,,78,75
49161,note_on,24,0,1,,,,,,,,,,0,,69,0
49165,note_on,28,0,2,,,,,,,,,,1,,78,0
49166,note_on,30,0,3,,,,,,,,,,2,,50,0
49168,note_on,3,0,2,,,,,,,,,,1,,76,79
49197,note_on,36,0,1,,,,,,,,,,0,,70,72
49197,note_on,31,0,3,,,,,,,,,,2,,55,67
49199,note_on,31,0,2,,,,,,,,,,1,,76,0
49200,note_on,1,0,2,,,,,,,,,,1,,74,75
49227,note_on,27,0,2,,,,,,,,,,1,,74,0
49257,note_on,30,0,2,,,,,,,,,,1,,74,82
49284,note_on,27,0,2,,,,,,,,,,1,,74,0
49297,note_on,100,0,1,,,,,,,,,,0,,70,0
49304,note_on,107,0,3,,,,,,,,,,2,,55,0
49318,note_on,34,0,2,,,,,,,,,,1,,79,93
49321,note_on,17,0,3,,,,,,,,,,2,,55,68
49339,note_on,21,0,2,,,,,,,,,,1,,79,0
49380,note_on,41,0,2,,,,,,,,,,1,,74,78
49404,note_on,24,0,2,,,,,,,,,,1,,74,0
49427,note_on,106,0,3,,,,,,,,,,2,,55,0
49442,note_on,15,0,3,,,,,,,,,,2,,54,74
49442,note_on,38,0,2,,,,,,,,,,1,,84,78
49443,note_on,146,0,1,,,,,,,,,,0,,86,69
49464,note_on,22,0,2,,,,,,,,,,1,,84,0
49504,note_on,40,0,2,,,,,,,,,,1,,82,70
49543,note_on,101,0,3,,,,,,,,,,2,,54,0
49559,note_on,16,0,3,,,,,,,,,,2,,54,63
49594,note_on,90,0,2,,,,,,,,,,1,,82,0
49621,note_on,27,0,2,,,,,,,,,,1,,81,89
49661,note_on,102,0,3,,,,,,,,,,2,,54,0
49680,note_on,19,0,3,,,,,,,,,,2,,53,78
49724,note_on,103,0,2,,,,,,,,,,1,,81,0
49743,note_on,19,0,2,,,,,,,,,,1,,74,69
49764,note_on,21,0,2,,,,,,,,,,1,,74,0
49781,note_on,101,0,3,,,,,,,,,,2,,53,0
49796,note_on,15,0,3,,,,,,,,,,2,,53,75
49803,note_on,39,0,2,,,,,,,,,,1,,77,98
49825,note_on,22,0,2,,,,,,,,,,1,,77,0
49859,note_on,34,0,2,,,,,,,,,,1,,74,69
49884,note_on,25,0,2,,,,,,,,,,1,,74,0
49899,note_on,103,0,3,,,,,,,,,,2,,53,0
49900,note_on,457,0,1,,,,,,,,,,0,,86,0
49916,note_on,17,0,3,,,,,,,,,,2,,52,75
49918,note_on,34,0,2,,,,,,,,,,1,,82,71
49921,note_on,21,0,1,,,,,,,,,,0,,84,76
49940,note_on,22,0,2,,,,,,,,,,1,,82,0
49978,note_on,38,0,2,,,,,,,,,,1,,81,75
50024,note_on,108,0,3,,,,,,,,,,2,,52,0
50040,note_on,16,0,3,,,,,,,,,,2,,52,74
50059,note_on,81,0,2,,,,,,,,,,1,,81,0
50099,note_on,40,0,2,,,,,,,,,,1,,79,84
50147,note_on,107,0,3,,,,,,,,,,2,,52,0
50161,note_on,14,0,3,,,,,,,,,,2,,51,75
50211,note_on,112,0,2,,,,,,,,,,1,,79,0
50222,note_on,11,0,2,,,,,,,,,,1,,72,76
50244,note_on,22,0,2,,,,,,,,,,1,,72,0
50263,note_on,102,0,3,,,,,,,,,,2,,51,0
50277,note_on,14,0,3,,,,,,,,,,2,,51,73
50280,note_on,36,0,2,,,,,,,,,,1,,75,70
50300,note_on,20,0,2,,,,,,,,,,1,,75,0
50339,note_on,39,0,2,,,,,,,,,,1,,72,78
50360,note_on,21,0,2,,,,,,,,,,1,,72,0
50373,note_on,452,0,1,,,,,,,,,,0,,84,0
50380,note_on,103,0,3,,,,,,,,,,2,,51,0
50397,note_on,17,0,3,,,,,,,,,,2,,50,73
50399,note_on,39,0,2,,,,,,,,,,1,,81,79
50399,note_on,26,0,1,,,,,,,,,,0,,78,78
50421,note_on,22,0,2,,,,,,,,,,1,,81,0
50459,note_on,38,0,2,,,,,,,,,,1,,78,89
50546,note_on,87,0,2,,,,,,,,,,1,,78,0
50581,note_on,35,0,2,,,,,,,,,,1,,72,75
50661,note_on,264,0,3,,,,,,,,,,2,,50,0
50676,note_on,95,0,2,,,,,,,,,,1,,72,0
50696,note_on,35,0,3,,,,,,,,,,2,,50,82
50702,note_on,26,0,2,,,,,,,,,,1,,70,78
50722,note_on,26,0,3,,,,,,,,,,2,,50,0
50729,note_on,27,0,2,,,,,,,,,,1,,70,0
50729,note_on,0,0,2,,,,,,,,,,1,,72,78
50756,note_on,34,0,3,,,,,,,,,,2,,54,73
50757,note_on,28,0,2,,,,,,,,,,1,,74,77
50760,note_on,3,0,2,,,,,,,,,,1,,72,0
50782,note_on,26,0,3,,,,,,,,,,2,,54,0
50787,note_on,27,0,2,,,,,,,,,,1,,72,79
50789,note_on,2,0,2,,,,,,,,,,1,,74,0
50815,note_on,26,0,2,,,,,,,,,,1,,72,0
50816,note_on,34,0,3,,,,,,,,,,2,,50,75
50816,note_on,1,0,2,,,,,,,,,,1,,70,77
50842,note_on,26,0,2,,,,,,,,,,1,,70,0
50845,note_on,3,0,2,,,,,,,,,,1,,69,79
50847,note_on,31,0,3,,,,,,,,,,2,,50,0
50875,note_on,28,0,3,,,,,,,,,,2,,55,68
50877,note_on,32,0,2,,,,,,,,,,1,,70,84
50878,note_on,479,0,1,,,,,,,,,,0,,78,0
50879,note_on,2,0,2,,,,,,,,,,1,,69,0
50881,note_on,3,0,1,,,,,,,,,,0,,79,82
50900,note_on,21,0,2,,,,,,,,,,1,,70,0
50906,note_on,31,0,3,,,,,,,,,,2,,55,0
50937,note_on,31,0,3,,,,,,,,,,2,,46,74
50939,note_on,39,0,2,,,,,,,,,,1,,79,79
50965,note_on,26,0,2,,,,,,,,,,1,,79,0
50968,note_on,31,0,3,,,,,,,,,,2,,46,0
50996,note_on,115,0,1,,,,,,,,,,0,,79,0
50998,note_on,30,0,3,,,,,,,,,,2,,48,84
51002,note_on,37,0,2,,,,,,,,,,1,,81,82
51025,note_on,23,0,2,,,,,,,,,,1,,81,0
51028,note_on,30,0,3,,,,,,,,,,2,,48,0
51057,note_on,29,0,3,,,,,,,,,,2,,50,78
51060,note_on,35,0,2,,,,,,,,,,1,,78,98
51086,note_on,26,0,2,,,,,,,,,,1,,78,0
51091,note_on,34,0,3,,,,,,,,,,2,,50,0
51118,note_on,27,0,3,,,,,,,,,,2,,43,79
51119,note_on,123,0,1,,,,,,,,,,0,,79,91
51122,note_on,36,0,2,,,,,,,,,,1,,79,86
51151,note_on,32,0,1,,,,,,,,,,0,,79,0
51179,note_on,28,0,1,,,,,,,,,,0,,74,70
51211,note_on,32,0,1,,,,,,,,,,0,,74,0
51238,note_on,27,0,1,,,,,,,,,,0,,79,91
51244,note_on,126,0,3,,,,,,,,,,2,,43,0
51245,note_on,123,0,2,,,,,,,,,,1,,79,0
51270,note_on,32,0,1,,,,,,,,,,0,,79,0
51295,note_on,51,0,3,,,,,,,,,,2,,54,77
51296,note_on,26,0,1,,,,,,,,,,0,,81,79
51321,note_on,26,0,3,,,,,,,,,,2,,54,0
51333,note_on,37,0,1,,,,,,,,,,0,,81,0
51358,note_on,37,0,3,,,,,,,,,,2,,55,77
51358,note_on,25,0,1,,,,,,,,,,0,,82,79
51387,note_on,29,0,3,,,,,,,,,,2,,55,0
51419,note_on,32,0,3,,,,,,,,,,2,,58,82
51447,note_on,28,0,3,,,,,,,,,,2,,58,0
51478,note_on,120,0,1,,,,,,,,,,0,,82,0
51481,note_on,34,0,3,,,,,,,,,,2,,60,86
51483,note_on,5,0,1,,,,,,,,,,0,,80,89
51509,note_on,28,0,3,,,,,,,,,,2,,60,0
51542,note_on,33,0,3,,,,,,,,,,2,,48,86
51572,note_on,30,0,3,,,,,,,,,,2,,48,0
51607,note_on,35,0,3,,,,,,,,,,2,,50,82
51636,note_on,29,0,3,,,,,,,,,,2,,50,0
51636,note_on,153,0,1,,,,,,,,,,0,,80,0
51665,note_on,29,0,1,,,,,,,,,,0,,79,78
51668,note_on,32,0,3,,,,,,,,,,2,,62,78
51695,note_on,30,0,1,,,,,,,,,,0,,78,82
51696,note_on,1,0,1,,,,,,,,,,0,,79,0
51698,note_on,30,0,3,,,,,,,,,,2,,62,0
51725,note_on,29,0,1,,,,,,,,,,0,,78,0
51727,note_on,29,0,3,,,,,,,,,,2,,58,89
51727,note_on,2,0,1,,,,,,,,,,0,,79,82
51752,note_on,25,0,3,,,,,,,,,,2,,58,0
51752,note_on,25,0,1,,,,,,,,,,0,,79,0
51783,note_on,31,0,1,,,,,,,,,,0,,81,82
51784,note_on,32,0,3,,,,,,,,,,2,,54,77
51812,note_on,29,0,1,,,,,,,,,,0,,81,0
51813,note_on,29,0,3,,,,,,,,,,2,,54,0
51840,note_on,28,0,1,,,,,,,,,,0,,74,70
51842,note_on,29,0,3,,,,,,,,,,2,,55,73
51869,note_on,27,0,3,,,,,,,,,,2,,55,0
51900,note_on,31,0,3,,,,,,,,,,2,,58,89
51930,note_on,30,0,3,,,,,,,,,,2,,58,0
51950,note_on,110,0,1,,,,,,,,,,0,,74,0
51961,note_on,11,0,1,,,,,,,,,,0,,75,71
51961,note_on,31,0,3,,,,,,,,,,2,,60,89
51992,note_on,31,0,3,,,,,,,,,,2,,60,0
52021,note_on,29,0,3,,,,,,,,,,2,,54,75
52054,note_on,33,0,3,,,,,,,,,,2,,54,0
52080,note_on,119,0,1,,,,,,,,,,0,,75,0
52084,note_on,4,0,1,,,,,,,,,,0,,74,67
52084,note_on,30,0,3,,,,,,,,,,2,,55,75
52114,note_on,30,0,3,,,,,,,,,,2,,55,0
52116,note_on,32,0,1,,,,,,,,,,0,,74,0
52141,note_on,25,0,1,,,,,,,,,,0,,72,70
52143,note_on,29,0,3,,,,,,,,,,2,,43,79
52171,note_on,30,0,1,,,,,,,,,,0,,72,0
52171,note_on,0,0,1,,,,,,,,,,0,,70,65
52173,note_on,30,0,3,,,,,,,,,,2,,43,0
52200,note_on,27,0,3,,,,,,,,,,2,,57,78
52200,note_on,29,0,1,,,,,,,,,,0,,70,0
52202,note_on,2,0,1,,,,,,,,,,0,,72,76
52228,note_on,26,0,1,,,,,,,,,,0,,72,0
52234,note_on,34,0,3,,,,,,,,,,2,,57,0
52260,note_on,26,0,3,,,,,,,,,,2,,54,71
52262,note_on,34,0,1,,,,,,,,,,0,,69,95
52292,note_on,30,0,1,,,,,,,,,,0,,69,0
52292,note_on,32,0,3,,,,,,,,,,2,,54,0
52321,note_on,29,0,1,,,,,,,,,,0,,70,78
52323,note_on,31,0,3,,,,,,,,,,2,,55,75
52353,note_on,30,0,3,,,,,,,,,,2,,55,0
52354,note_on,33,0,1,,,,,,,,,,0,,70,0
52381,note_on,27,0,1,,,,,,,,,,0,,74,73
52382,note_on,29,0,3,,,,,,,,,,2,,57,79
52413,note_on,31,0,3,,,,,,,,,,2,,57,0
52414,note_on,33,0,1,,,,,,,,,,0,,74,0
52441,note_on,27,0,1,,,,,,,,,,0,,82,79
52443,note_on,30,0,3,,,,,,,,,,2,,58,82
52476,note_on,33,0,3,,,,,,,,,,2,,58,0
52504,note_on,28,0,3,,,,,,,,,,2,,55,77
52537,note_on,33,0,3,,,,,,,,,,2,,55,0
52561,note_on,120,0,1,,,,,,,,,,0,,82,0
52566,note_on,29,0,3,,,,,,,,,,2,,60,86
52567,note_on,6,0,1,,,,,,,,,,0,,81,82
52595,note_on,28,0,1,,,,,,,,,,0,,81,0
52599,note_on,33,0,3,,,,,,,,,,2,,60,0
52624,note_on,29,0,1,,,,,,,,,,0,,79,78
52624,note_on,25,0,3,,,,,,,,,,2,,62,76
52653,note_on,0,0,1,,,,,,,,,,0,,78,77
52653,note_on,29,0,1,,,,,,,,,,0,,79,0
52654,note_on,30,0,3,,,,,,,,,,2,,62,0
52683,note_on,29,0,3,,,,,,,,,,2,,58,79
52685,note_on,0,0,1,,,,,,,,,,0,,79,89
52685,note_on,32,0,1,,,,,,,,,,0,,78,0
52709,note_on,26,0,3,,,,,,,,,,2,,58,0
52711,note_on,26,0,1,,,,,,,,,,0,,79,0
52742,note_on,33,0,3,,,,,,,,,,2,,60,78
52743,note_on,32,0,1,,,,,,,,,,0,,81,75
52772,note_on,29,0,1,,,,,,,,,,0,,81,0
52773,note_on,31,0,3,,,,,,,,,,2,,60,0
52800,note_on,28,0,1,,,,,,,,,,0,,74,73
52804,note_on,31,0,3,,,,,,,,,,2,,58,82
52832,note_on,32,0,1,,,,,,,,,,0,,74,0
52833,note_on,29,0,3,,,,,,,,,,2,,58,0
52861,note_on,29,0,1,,,,,,,,,,0,,79,78
52864,note_on,31,0,3,,,,,,,,,,2,,57,74
52895,note_on,31,0,3,,,,,,,,,,2,,57,0
52895,note_on,34,0,1,,,,,,,,,,0,,79,0
52921,note_on,26,0,1,,,,,,,,,,0,,82,73
52924,note_on,29,0,3,,,,,,,,,,2,,58,78
52952,note_on,28,0,3,,,,,,,,,,2,,58,0
52983,note_on,31,0,3,,,,,,,,,,2,,55,73
53014,note_on,31,0,3,,,,,,,,,,2,,55,0
53039,note_on,118,0,1,,,,,,,,,,0,,82,0
53044,note_on,5,0,1,,,,,,,,,,0,,81,82
53044,note_on,30,0,3,,,,,,,,,,2,,60,79
53069,note_on,25,0,1,,,,,,,,,,0,,81,0
53071,note_on,27,0,3,,,,,,,,,,2,,60,0
53101,note_on,32,0,1,,,,,,,,,,0,,79,84
53103,note_on,32,0,3,,,,,,,,,,2,,62,74
53130,note_on,29,0,1,,,,,,,,,,0,,78,73
53130,note_on,27,0,3,,,,,,,,,,2,,62,0
53131,note_on,1,0,1,,,,,,,,,,0,,79,0
53159,note_on,28,0,1,,,,,,,,,,0,,78,0
53162,note_on,3,0,1,,,,,,,,,,0,,79,82
53162,note_on,32,0,3,,,,,,,,,,2,,58,75
53189,note_on,27,0,1,,,,,,,,,,0,,79,0
53191,note_on,29,0,3,,,,,,,,,,2,,58,0
53220,note_on,31,0,1,,,,,,,,,,0,,81,84
53223,note_on,32,0,3,,,,,,,,,,2,,60,78
53249,note_on,29,0,1,,,,,,,,,,0,,81,0
53250,note_on,27,0,3,,,,,,,,,,2,,60,0
53280,note_on,31,0,1,,,,,,,,,,0,,74,66
53283,note_on,33,0,3,,,,,,,,,,2,,62,74
53312,note_on,29,0,3,,,,,,,,,,2,,62,0
53342,note_on,30,0,3,,,,,,,,,,2,,60,84
53371,note_on,29,0,3,,,,,,,,,,2,,60,0
53408,note_on,37,0,3,,,,,,,,,,2,,62,75
53416,note_on,136,0,1,,,,,,,,,,0,,74,0
53437,note_on,29,0,3,,,,,,,,,,2,,62,0
53464,note_on,27,0,3,,,,,,,,,,2,,50,77
53495,note_on,31,0,3,,,,,,,,,,2,,50,0
53523,note_on,107,0,1,,,,,,,,,,0,,86,74
53612,note_on,0,0,1,,,,,,,,,,0,,84,77
53612,note_on,89,0,1,,,,,,,,,,0,,86,0
53638,note_on,26,0,1,,,,,,,,,,0,,82,74
53640,note_on,2,0,1,,,,,,,,,,0,,84,0
53729,note_on,89,0,1,,,,,,,,,,0,,82,0
53730,note_on,1,0,1,,,,,,,,,,0,,81,68
53760,note_on,30,0,1,,,,,,,,,,0,,79,86
53761,note_on,1,0,1,,,,,,,,,,0,,81,0
53884,note_on,0,0,1,,,,,,,,,,0,,77,76
53884,note_on,123,0,1,,,,,,,,,,0,,79,0
54002,note_on,0,0,1,,,,,,,,,,0,,75,63
54002,note_on,118,0,1,,,,,,,,,,0,,77,0
54002,note_on,507,0,3,,,,,,,,,,2,,48,84
54030,note_on,28,0,3,,,,,,,,,,2,,48,0
54063,note_on,33,0,3,,,,,,,,,,2,,50,77
54092,note_on,29,0,3,,,,,,,,,,2,,50,0
54123,note_on,31,0,3,,,,,,,,,,2,,51,78
54151,note_on,28,0,3,,,,,,,,,,2,,51,0
54182,note_on,31,0,3,,,,,,,,,,2,,48,78
54192,note_on,190,0,1,,,,,,,,,,0,,75,0
54213,note_on,31,0,3,,,,,,,,,,2,,48,0
54239,note_on,47,0,1,,,,,,,,,,0,,84,75
54330,note_on,91,0,1,,,,,,,,,,0,,84,0
54331,note_on,1,0,1,,,,,,,,,,0,,82,74
54362,note_on,0,0,1,,,,,,,,,,0,,81,84
54362,note_on,31,0,1,,,,,,,,,,0,,82,0
54446,note_on,84,0,1,,,,,,,,,,0,,81,0
54446,note_on,0,0,1,,,,,,,,,,0,,79,77
54479,note_on,33,0,1,,,,,,,,,,0,,79,0
54480,note_on,1,0,1,,,,,,,,,,0,,77,91
54604,note_on,124,0,1,,,,,,,,,,0,,75,68
54605,note_on,1,0,1,,,,,,,,,,0,,77,0
54722,note_on,509,0,3,,,,,,,,,,2,,46,81
54726,note_on,121,0,1,,,,,,,,,,0,,75,0
54728,note_on,2,0,1,,,,,,,,,,0,,74,70
54751,note_on,29,0,3,,,,,,,,,,2,,46,0
54782,note_on,31,0,3,,,,,,,,,,2,,48,83
54811,note_on,29,0,3,,,,,,,,,,2,,48,0
54842,note_on,31,0,3,,,,,,,,,,2,,50,80
54870,note_on,28,0,3,,,,,,,,,,2,,50,0
54900,note_on,30,0,3,,,,,,,,,,2,,46,76
54915,note_on,187,0,1,,,,,,,,,,0,,74,0
54930,note_on,30,0,3,,,,,,,,,,2,,46,0
54967,note_on,52,0,1,,,,,,,,,,0,,82,82
55055,note_on,0,0,1,,,,,,,,,,0,,81,78
55055,note_on,88,0,1,,,,,,,,,,0,,82,0
55088,note_on,33,0,1,,,,,,,,,,0,,79,78
55089,note_on,1,0,1,,,,,,,,,,0,,81,0
55166,note_on,77,0,1,,,,,,,,,,0,,79,0
55168,note_on,2,0,1,,,,,,,,,,0,,77,79
55201,note_on,0,0,1,,,,,,,,,,0,,75,73
55201,note_on,33,0,1,,,,,,,,,,0,,77,0
55302,note_on,101,0,1,,,,,,,,,,0,,75,0
55313,note_on,11,0,1,,,,,,,,,,0,,74,69
55393,note_on,80,0,1,,,,,,,,,,0,,74,0
55399,note_on,6,0,1,,,,,,,,,,0,,72,68
55420,note_on,21,0,1,,,,,,,,,,0,,72,0
55421,note_on,1,0,1,,,,,,,,,,0,,74,69
55439,note_on,18,0,1,,,,,,,,,,0,,72,73
55439,note_on,509,0,3,,,,,,,,,,2,,45,81
55442,note_on,3,0,1,,,,,,,,,,0,,74,0
55468,note_on,29,0,3,,,,,,,,,,2,,45,0
55495,note_on,27,0,3,,,,,,,,,,2,,46,79
55524,note_on,29,0,3,,,,,,,,,,2,,46,0
55555,note_on,31,0,3,,,,,,,,,,2,,48,78
55575,note_on,133,0,1,,,,,,,,,,0,,72,0
55585,note_on,30,0,3,,,,,,,,,,2,,48,0
55620,note_on,35,0,3,,,,,,,,,,2,,45,86
55622,note_on,47,0,1,,,,,,,,,,0,,81,84
55647,note_on,25,0,1,,,,,,,,,,0,,81,0
55651,note_on,31,0,3,,,,,,,,,,2,,45,0
55681,note_on,30,0,3,,,,,,,,,,2,,50,81
55682,note_on,35,0,1,,,,,,,,,,0,,78,98
55711,note_on,30,0,3,,,,,,,,,,2,,50,0
55712,note_on,30,0,1,,,,,,,,,,0,,78,0
55741,note_on,29,0,1,,,,,,,,,,0,,81,79
55741,note_on,30,0,3,,,,,,,,,,2,,62,78
55769,note_on,28,0,3,,,,,,,,,,2,,62,0
55797,note_on,28,0,3,,,,,,,,,,2,,50,73
55854,note_on,113,0,1,,,,,,,,,,0,,81,0
55862,note_on,8,0,1,,,,,,,,,,0,,84,89
55889,note_on,27,0,1,,,,,,,,,,0,,84,0
55908,note_on,111,0,3,,,,,,,,,,2,,50,0
55922,note_on,14,0,3,,,,,,,,,,2,,50,80
55922,note_on,33,0,1,,,,,,,,,,0,,81,86
55948,note_on,26,0,3,,,,,,,,,,2,,50,0
55948,note_on,26,0,1,,,,,,,,,,0,,81,0
55980,note_on,32,0,1,,,,,,,,,,0,,84,78
55984,note_on,36,0,3,,,,,,,,,,2,,62,77
56010,note_on,26,0,3,,,,,,,,,,2,,62,0
56040,note_on,30,0,3,,,,,,,,,,2,,50,77
56102,note_on,122,0,1,,,,,,,,,,0,,87,84
56103,note_on,1,0,1,,,,,,,,,,0,,84,0
56130,note_on,27,0,1,,,,,,,,,,0,,87,0
56137,note_on,97,0,3,,,,,,,,,,2,,50,0
56160,note_on,30,0,1,,,,,,,,,,0,,84,78
56165,note_on,28,0,3,,,,,,,,,,2,,50,93
56197,note_on,32,0,3,,,,,,,,,,2,,50,0
56224,note_on,27,0,3,,,,,,,,,,2,,52,91
56255,note_on,31,0,3,,,,,,,,,,2,,52,0
56283,note_on,28,0,3,,,,,,,,,,2,,54,78
56312,note_on,29,0,3,,,,,,,,,,2,,54,0
56341,note_on,29,0,3,,,,,,,,,,2,,52,82
56369,note_on,28,0,3,,,,,,,,,,2,,52,0
56400,note_on,31,0,3,,,,,,,,,,2,,50,89
56413,note_on,253,0,1,,,,,,,,,,0,,84,0
56462,note_on,49,0,1,,,,,,,,,,0,,82,73
56490,note_on,28,0,1,,,,,,,,,,0,,82,0
56492,note_on,2,0,1,,,,,,,,,,0,,84,79
56520,note_on,28,0,1,,,,,,,,,,0,,84,0
56522,note_on,2,0,1,,,,,,,,,,0,,86,78
56550,note_on,28,0,1,,,,,,,,,,0,,86,0
56552,note_on,2,0,1,,,,,,,,,,0,,84,76
56554,note_on,154,0,3,,,,,,,,,,2,,50,0
56579,note_on,27,0,1,,,,,,,,,,0,,84,0
56580,note_on,1,0,1,,,,,,,,,,0,,82,70
56583,note_on,29,0,3,,,,,,,,,,2,,54,74
56608,note_on,28,0,1,,,,,,,,,,0,,82,0
56610,note_on,2,0,1,,,,,,,,,,0,,81,73
56611,note_on,28,0,3,,,,,,,,,,2,,54,0
56639,note_on,29,0,1,,,,,,,,,,0,,82,82
56640,note_on,29,0,3,,,,,,,,,,2,,55,71
56640,note_on,1,0,1,,,,,,,,,,0,,81,0
56666,note_on,26,0,1,,,,,,,,,,0,,82,0
56669,note_on,29,0,3,,,,,,,,,,2,,55,0
56698,note_on,32,0,1,,,,,,,,,,0,,78,93
56700,note_on,31,0,3,,,,,,,,,,2,,50,82
56725,note_on,27,0,1,,,,,,,,,,0,,78,0
56728,note_on,28,0,3,,,,,,,,,,2,,50,0
56758,note_on,33,0,1,,,,,,,,,,0,,79,93
56759,note_on,31,0,3,,,,,,,,,,2,,51,82
56785,note_on,26,0,3,,,,,,,,,,2,,51,0
56788,note_on,30,0,1,,,,,,,,,,0,,79,0
56816,note_on,28,0,1,,,,,,,,,,0,,81,86
56821,note_on,36,0,3,,,,,,,,,,2,,48,84
56850,note_on,29,0,3,,,,,,,,,,2,,48,0
56851,note_on,35,0,1,,,,,,,,,,0,,81,0
56878,note_on,27,0,1,,,,,,,,,,0,,82,77
56880,note_on,30,0,3,,,,,,,,,,2,,50,86
56981,note_on,101,0,3,,,,,,,,,,2,,50,0
56983,note_on,105,0,1,,,,,,,,,,0,,82,0
57007,note_on,24,0,1,,,,,,,,,,0,,81,77
57009,note_on,28,0,3,,,,,,,,,,2,,38,69
57023,note_on,16,0,1,,,,,,,,,,0,,82,73
57024,note_on,1,0,1,,,,,,,,,,0,,81,0
57043,note_on,19,0,1,,,,,,,,,,0,,82,0
57044,note_on,1,0,1,,,,,,,,,,0,,81,70
57057,note_on,13,0,1,,,,,,,,,,0,,82,74
57058,note_on,1,0,1,,,,,,,,,,0,,81,0
57075,note_on,17,0,1,,,,,,,,,,0,,82,0
57078,note_on,3,0,1,,,,,,,,,,0,,81,71
57102,note_on,93,0,3,,,,,,,,,,2,,38,0
57121,note_on,43,0,1,,,,,,,,,,0,,81,0
57127,note_on,25,0,3,,,,,,,,,,2,,55,84
57128,note_on,7,0,1,,,,,,,,,,0,,79,84
57154,note_on,27,0,3,,,,,,,,,,2,,55,0
57185,note_on,57,0,1,,,,,,,,,,0,,79,0
57185,note_on,0,0,1,,,,,,,,,,0,,74,66
57186,note_on,32,0,3,,,,,,,,,,2,,57,82
57213,note_on,28,0,1,,,,,,,,,,0,,74,0
57214,note_on,28,0,3,,,,,,,,,,2,,57,0
57243,note_on,30,0,1,,,,,,,,,,0,,79,84
57244,note_on,30,0,3,,,,,,,,,,2,,58,84
57269,note_on,26,0,1,,,,,,,,,,0,,79,0
57272,note_on,28,0,3,,,,,,,,,,2,,58,0
57302,note_on,30,0,3,,,,,,,,,,2,,55,76
57303,note_on,34,0,1,,,,,,,,,,0,,82,80
57330,note_on,27,0,1,,,,,,,,,,0,,82,0
57333,note_on,31,0,3,,,,,,,,,,2,,55,0
57360,note_on,30,0,1,,,,,,,,,,0,,84,82
57362,note_on,29,0,3,,,,,,,,,,2,,57,79
57391,note_on,29,0,3,,,,,,,,,,2,,57,0
57417,note_on,26,0,3,,,,,,,,,,2,,55,77
57451,note_on,34,0,3,,,,,,,,,,2,,55,0
57476,note_on,25,0,3,,,,,,,,,,2,,54,67
57508,note_on,32,0,3,,,,,,,,,,2,,54,0
57536,note_on,28,0,3,,,,,,,,,,2,,52,86
57568,note_on,32,0,3,,,,,,,,,,2,,52,0
57599,note_on,31,0,3,,,,,,,,,,2,,50,89
57624,note_on,264,0,1,,,,,,,,,,0,,84,0
57663,note_on,39,0,1,,,,,,,,,,0,,82,75
57690,note_on,27,0,1,,,,,,,,,,0,,82,0
57693,note_on,3,0,1,,,,,,,,,,0,,84,84
57723,note_on,30,0,1,,,,,,,,,,0,,84,0
57724,note_on,1,0,1,,,,,,,,,,0,,86,89
57753,note_on,29,0,1,,,,,,,,,,0,,86,0
57754,note_on,1,0,1,,,,,,,,,,0,,84,82
57765,note_on,166,0,3,,,,,,,,,,2,,50,0
57779,note_on,25,0,1,,,,,,,,,,0,,84,0
57781,note_on,2,0,1,,,,,,,,,,0,,82,63
57782,note_on,17,0,3,,,,,,,,,,2,,54,68
57808,note_on,26,0,3,,,,,,,,,,2,,54,0
57809,note_on,0,0,1,,,,,,,,,,0,,81,70
57809,note_on,28,0,1,,,,,,,,,,0,,82,0
57840,note_on,31,0,1,,,,,,,,,,0,,81,0
57841,note_on,1,0,1,,,,,,,,,,0,,82,82
57842,note_on,34,0,3,,,,,,,,,,2,,55,73
57868,note_on,26,0,3,,,,,,,,,,2,,55,0
57870,note_on,29,0,1,,,,,,,,,,0,,82,0
57899,note_on,29,0,1,,,,,,,,,,0,,78,93
57901,note_on,33,0,3,,,,,,,,,,2,,50,86
57924,note_on,25,0,1,,,,,,,,,,0,,78,0
57929,note_on,28,0,3,,,,,,,,,,2,,50,0
57958,note_on,34,0,1,,,,,,,,,,0,,79,89
57961,note_on,32,0,3,,,,,,,,,,2,,51,84
57987,note_on,29,0,1,,,,,,,,,,0,,79,0
57989,note_on,28,0,3,,,,,,,,,,2,,51,0
58016,note_on,29,0,1,,,,,,,,,,0,,81,89
58021,note_on,32,0,3,,,,,,,,,,2,,48,82
58047,note_on,31,0,1,,,,,,,,,,0,,81,0
58050,note_on,29,0,3,,,,,,,,,,2,,48,0
58077,note_on,30,0,1,,,,,,,,,,0,,82,82
58078,note_on,28,0,3,,,,,,,,,,2,,50,77
58179,note_on,102,0,1,,,,,,,,,,0,,82,0
58185,note_on,107,0,3,,,,,,,,,,2,,50,0
58205,note_on,26,0,1,,,,,,,,,,0,,81,84
58206,note_on,21,0,3,,,,,,,,,,2,,38,69
58222,note_on,17,0,1,,,,,,,,,,0,,82,74
58223,note_on,1,0,1,,,,,,,,,,0,,81,0
58243,note_on,20,0,1,,,,,,,,,,0,,82,0
58243,note_on,0,0,1,,,,,,,,,,0,,81,74
58259,note_on,16,0,1,,,,,,,,,,0,,82,74
58260,note_on,1,0,1,,,,,,,,,,0,,81,0
58276,note_on,16,0,1,,,,,,,,,,0,,82,0
58278,note_on,2,0,1,,,,,,,,,,0,,81,69
58309,note_on,103,0,3,,,,,,,,,,2,,38,0
58324,note_on,46,0,1,,,,,,,,,,0,,81,0
58325,note_on,1,0,1,,,,,,,,,,0,,79,82
58326,note_on,17,0,3,,,,,,,,,,2,,43,76
58383,note_on,7138,0,2,,,,,,,,,,1,,74,74
58403,note_on,20,0,2,,,,,,,,,,1,,74,0
58430,note_on,104,0,3,,,,,,,,,,2,,43,0
58441,note_on,38,0,2,,,,,,,,,,1,,79,85
58445,note_on,15,0,3,,,,,,,,,,2,,55,67
58451,note_on,126,0,1,,,,,,,,,,0,,79,0
58466,note_on,25,0,2,,,,,,,,,,1,,79,0
58501,note_on,35,0,2,,,,,,,,,,1,,74,77
58522,note_on,21,0,2,,,,,,,,,,1,,74,0
58556,note_on,111,0,3,,,,,,,,,,2,,55,0
58561,note_on,39,0,2,,,,,,,,,,1,,84,79
58567,note_on,116,0,1,,,,,,,,,,0,,86,68
58568,note_on,12,0,3,,,,,,,,,,2,,54,67
58586,note_on,25,0,2,,,,,,,,,,1,,84,0
58622,note_on,36,0,2,,,,,,,,,,1,,82,78
58677,note_on,109,0,3,,,,,,,,,,2,,54,0
58692,note_on,15,0,3,,,,,,,,,,2,,54,63
58730,note_on,108,0,2,,,,,,,,,,1,,82,0
58747,note_on,17,0,2,,,,,,,,,,1,,81,89
58801,note_on,109,0,3,,,,,,,,,,2,,54,0
58811,note_on,10,0,3,,,,,,,,,,2,,53,82
58863,note_on,116,0,2,,,,,,,,,,1,,81,0
58871,note_on,8,0,2,,,,,,,,,,1,,74,78
58891,note_on,20,0,2,,,,,,,,,,1,,74,0
58916,note_on,105,0,3,,,,,,,,,,2,,53,0
58927,note_on,36,0,2,,,,,,,,,,1,,77,80
58931,note_on,15,0,3,,,,,,,,,,2,,53,75
58949,note_on,22,0,2,,,,,,,,,,1,,77,0
58988,note_on,39,0,2,,,,,,,,,,1,,74,73
59013,note_on,25,0,2,,,,,,,,,,1,,74,0
59022,note_on,455,0,1,,,,,,,,,,0,,86,0
59034,note_on,103,0,3,,,,,,,,,,2,,53,0
59043,note_on,21,0,1,,,,,,,,,,0,,84,70
59045,note_on,11,0,3,,,,,,,,,,2,,52,79
59052,note_on,39,0,2,,,,,,,,,,1,,82,78
59072,note_on,20,0,2,,,,,,,,,,1,,82,0
59110,note_on,38,0,2,,,,,,,,,,1,,81,78
59149,note_on,104,0,3,,,,,,,,,,2,,52,0
59165,note_on,16,0,3,,,,,,,,,,2,,52,77
59195,note_on,85,0,2,,,,,,,,,,1,,81,0
59224,note_on,29,0,2,,,,,,,,,,1,,79,91
59275,note_on,110,0,3,,,,,,,,,,2,,52,0
59286,note_on,11,0,3,,,,,,,,,,2,,51,89
59344,note_on,120,0,2,,,,,,,,,,1,,79,0
59347,note_on,3,0,2,,,,,,,,,,1,,72,77
59368,note_on,21,0,2,,,,,,,,,,1,,72,0
59391,note_on,105,0,3,,,,,,,,,,2,,51,0
59404,note_on,13,0,3,,,,,,,,,,2,,51,79
59404,note_on,36,0,2,,,,,,,,,,1,,75,71
59427,note_on,23,0,2,,,,,,,,,,1,,75,0
59464,note_on,37,0,2,,,,,,,,,,1,,72,76
59486,note_on,22,0,2,,,,,,,,,,1,,72,0
59503,note_on,460,0,1,,,,,,,,,,0,,84,0
59510,note_on,106,0,3,,,,,,,,,,2,,51,0
59521,note_on,18,0,1,,,,,,,,,,0,,78,71
59525,note_on,39,0,2,,,,,,,,,,1,,81,81
59530,note_on,20,0,3,,,,,,,,,,2,,50,82
59546,note_on,21,0,2,,,,,,,,,,1,,81,0
59588,note_on,42,0,2,,,,,,,,,,1,,78,82
59681,note_on,93,0,2,,,,,,,,,,1,,78,0
59711,note_on,30,0,2,,,,,,,,,,1,,72,79
59794,note_on,264,0,3,,,,,,,,,,2,,50,0
59808,note_on,97,0,2,,,,,,,,,,1,,72,0
59822,note_on,28,0,3,,,,,,,,,,2,,50,84
59824,note_on,16,0,2,,,,,,,,,,1,,70,77
59849,note_on,27,0,3,,,,,,,,,,2,,50,0
59852,note_on,28,0,2,,,,,,,,,,1,,70,0
59853,note_on,1,0,2,,,,,,,,,,1,,72,73
59879,note_on,30,0,3,,,,,,,,,,2,,54,77
59883,note_on,30,0,2,,,,,,,,,,1,,74,75
59884,note_on,1,0,2,,,,,,,,,,1,,72,0
59908,note_on,29,0,3,,,,,,,,,,2,,54,0
59911,note_on,27,0,2,,,,,,,,,,1,,74,0
59911,note_on,0,0,2,,,,,,,,,,1,,72,76
59939,note_on,31,0,3,,,,,,,,,,2,,50,89
59942,note_on,31,0,2,,,,,,,,,,1,,72,0
59942,note_on,0,0,2,,,,,,,,,,1,,70,63
59963,note_on,24,0,3,,,,,,,,,,2,,50,0
59972,note_on,0,0,2,,,,,,,,,,1,,69,82
59972,note_on,30,0,2,,,,,,,,,,1,,70,0
59987,note_on,466,0,1,,,,,,,,,,0,,78,0
59999,note_on,36,0,3,,,,,,,,,,2,,55,76
60001,note_on,0,0,2,,,,,,,,,,1,,70,79
60001,note_on,29,0,2,,,,,,,,,,1,,69,0
60005,note_on,18,0,1,,,,,,,,,,0,,74,75
60026,note_on,25,0,2,,,,,,,,,,1,,70,0
60031,note_on,26,0,1,,,,,,,,,,0,,74,0
60035,note_on,36,0,3,,,,,,,,,,2,,55,0
60060,note_on,34,0,2,,,,,,,,,,1,,79,95
60063,note_on,32,0,1,,,,,,,,,,0,,82,79
60063,note_on,28,0,3,,,,,,,,,,2,,43,89
60087,note_on,27,0,2,,,,,,,,,,1,,79,0
60091,note_on,28,0,1,,,,,,,,,,0,,82,0
60100,note_on,37,0,3,,,,,,,,,,2,,43,0
60123,note_on,32,0,1,,,,,,,,,,0,,84,82
60123,note_on,36,0,2,,,,,,,,,,1,,81,79
60125,note_on,25,0,3,,,,,,,,,,2,,48,82
60151,note_on,28,0,1,,,,,,,,,,0,,84,0
60155,note_on,32,0,2,,,,,,,,,,1,,81,0
60160,note_on,35,0,3,,,,,,,,,,2,,48,0
60182,note_on,31,0,1,,,,,,,,,,0,,81,82
60183,note_on,23,0,3,,,,,,,,,,2,,50,78
60185,note_on,30,0,2,,,,,,,,,,1,,78,93
60214,note_on,32,0,1,,,,,,,,,,0,,81,0
60214,note_on,29,0,2,,,,,,,,,,1,,78,0
60218,note_on,35,0,3,,,,,,,,,,2,,50,0
60245,note_on,27,0,3,,,,,,,,,,2,,43,84
60245,note_on,31,0,2,,,,,,,,,,1,,79,82
60247,note_on,33,0,1,,,,,,,,,,0,,79,93
60276,note_on,29,0,1,,,,,,,,,,0,,79,0
60307,note_on,31,0,1,,,,,,,,,,0,,74,73
60336,note_on,29,0,1,,,,,,,,,,0,,74,0
60338,note_on,93,0,3,,,,,,,,,,2,,43,0
60363,note_on,27,0,1,,,,,,,,,,0,,79,91
60365,note_on,27,0,3,,,,,,,,,,2,,55,79
60369,note_on,124,0,2,,,,,,,,,,1,,79,0
60392,note_on,29,0,1,,,,,,,,,,0,,79,0
60423,note_on,31,0,1,,,,,,,,,,0,,74,74
60453,note_on,30,0,1,,,,,,,,,,0,,74,0
60461,note_on,96,0,3,,,,,,,,,,2,,55,0
60481,note_on,20,0,3,,,,,,,,,,2,,54,73
60484,note_on,31,0,1,,,,,,,,,,0,,84,89
60485,note_on,116,0,2,,,,,,,,,,1,,86,72
60514,note_on,30,0,1,,,,,,,,,,0,,84,0
60543,note_on,29,0,1,,,,,,,,,,0,,82,65
60586,note_on,105,0,3,,,,,,,,,,2,,54,0
60603,note_on,17,0,3,,,,,,,,,,2,,54,79
60635,note_on,92,0,1,,,,,,,,,,0,,82,0
60661,note_on,26,0,1,,,,,,,,,,0,,81,86
60697,note_on,94,0,3,,,,,,,,,,2,,54,0
60717,note_on,20,0,3,,,,,,,,,,2,,53,79
60780,note_on,119,0,1,,,,,,,,,,0,,81,0
60785,note_on,5,0,1,,,,,,,,,,0,,74,75
60806,note_on,21,0,1,,,,,,,,,,0,,74,0
60819,note_on,102,0,3,,,,,,,,,,2,,53,0
60840,note_on,21,0,3,,,,,,,,,,2,,53,84
60842,note_on,36,0,1,,,,,,,,,,0,,77,84
60869,note_on,27,0,1,,,,,,,,,,0,,77,0
60899,note_on,30,0,1,,,,,,,,,,0,,74,71
60924,note_on,439,0,2,,,,,,,,,,1,,86,0
60927,note_on,28,0,1,,,,,,,,,,0,,74,0
60940,note_on,100,0,3,,,,,,,,,,2,,53,0
60959,note_on,19,0,3,,,,,,,,,,2,,52,84
60960,note_on,33,0,1,,,,,,,,,,0,,82,75
60963,note_on,39,0,2,,,,,,,,,,1,,84,75
60987,note_on,27,0,1,,,,,,,,,,0,,82,0
61021,note_on,34,0,1,,,,,,,,,,0,,81,79
61060,note_on,101,0,3,,,,,,,,,,2,,52,0
61078,note_on,18,0,3,,,,,,,,,,2,,52,82
61115,note_on,94,0,1,,,,,,,,,,0,,81,0
61144,note_on,29,0,1,,,,,,,,,,0,,79,82
61179,note_on,101,0,3,,,,,,,,,,2,,52,0
61198,note_on,19,0,3,,,,,,,,,,2,,51,79
61261,note_on,117,0,1,,,,,,,,,,0,,79,0
61265,note_on,4,0,1,,,,,,,,,,0,,72,77
61290,note_on,25,0,1,,,,,,,,,,0,,72,0
61302,note_on,104,0,3,,,,,,,,,,2,,51,0
61320,note_on,30,0,1,,,,,,,,,,0,,75,74
61321,note_on,19,0,3,,,,,,,,,,2,,51,77
61347,note_on,27,0,1,,,,,,,,,,0,,75,0
61380,note_on,33,0,1,,,,,,,,,,0,,72,78
61396,note_on,433,0,2,,,,,,,,,,1,,84,0
61408,note_on,87,0,3,,,,,,,,,,2,,51,0
61408,note_on,28,0,1,,,,,,,,,,0,,72,0
61439,note_on,31,0,3,,,,,,,,,,2,,50,86
61442,note_on,34,0,1,,,,,,,,,,0,,81,78
61444,note_on,48,0,2,,,,,,,,,,1,,78,81
61470,note_on,28,0,1,,,,,,,,,,0,,81,0
61504,note_on,34,0,1,,,,,,,,,,0,,78,95
61587,note_on,83,0,1,,,,,,,,,,0,,78,0
61626,note_on,39,0,1,,,,,,,,,,0,,72,79
61722,note_on,96,0,1,,,,,,,,,,0,,72,0
61728,note_on,289,0,3,,,,,,,,,,2,,50,0
61743,note_on,15,0,3,,,,,,,,,,2,,50,84
61744,note_on,22,0,1,,,,,,,,,,0,,70,77
61772,note_on,28,0,1,,,,,,,,,,0,,70,0
61772,note_on,0,0,1,,,,,,,,,,0,,72,75
61773,note_on,30,0,3,,,,,,,,,,2,,50,0
61803,note_on,31,0,1,,,,,,,,,,0,,74,76
61803,note_on,30,0,3,,,,,,,,,,2,,54,71
61807,note_on,4,0,1,,,,,,,,,,0,,72,0
61833,note_on,30,0,3,,,,,,,,,,2,,54,0
61834,note_on,27,0,1,,,,,,,,,,0,,72,79
61837,note_on,3,0,1,,,,,,,,,,0,,74,0
61862,note_on,29,0,3,,,,,,,,,,2,,50,86
61864,note_on,27,0,1,,,,,,,,,,0,,72,0
61864,note_on,0,0,1,,,,,,,,,,0,,70,71
61894,note_on,30,0,1,,,,,,,,,,0,,70,0
61894,note_on,0,0,1,,,,,,,,,,0,,69,78
61896,note_on,34,0,3,,,,,,,,,,2,,50,0
61913,set_tempo,47519,1,0,,,,,,530973,,,,,,,
61917,set_tempo,4,1,0,,,,,,535714,,,,,,,
61922,set_tempo,5,1,0,,,,,,540541,,,,,,,
61926,note_on,30,0,3,,,,,,,,,,2,,55,74
61926,set_tempo,4,1,0,,,,,,545455,,,,,,,
61927,note_on,483,0,2,,,,,,,,,,1,,78,0
61927,note_on,33,0,1,,,,,,,,,,0,,70,93
61930,set_tempo,4,1,0,,,,,,550459,,,,,,,
61931,note_on,4,0,2,,,,,,,,,,1,,79,89
61932,note_on,5,0,1,,,,,,,,,,0,,69,0
61934,set_tempo,4,1,0,,,,,,555556,,,,,,,
61938,set_tempo,4,1,0,,,,,,560748,,,,,,,
61942,set_tempo,4,1,0,,,,,,566038,,,,,,,
61946,set_tempo,4,1,0,,,,,,571429,,,,,,,
61950,set_tempo,4,1,0,,,,,,576923,,,,,,,
61954,set_tempo,4,1,0,,,,,,582524,,,,,,,
61956,note_on,24,0,1,,,,,,,,,,0,,70,0
61958,set_tempo,4,1,0,,,,,,588235,,,,,,,
61961,note_on,30,0,2,,,,,,,,,,1,,79,0
61961,note_on,35,0,3,,,,,,,,,,2,,55,0
61962,set_tempo,4,1,0,,,,,,594059,,,,,,,
61966,set_tempo,4,1,0,,,,,,600000,,,,,,,
61970,set_tempo,4,1,0,,,,,,606061,,,,,,,
61974,set_tempo,4,1,0,,,,,,612245,,,,,,,
61978,set_tempo,4,1,0,,,,,,618557,,,,,,,
61983,set_tempo,5,1,0,,,,,,625000,,,,,,,
61985,note_on,24,0,2,,,,,,,,,,1,,70,82
61987,set_tempo,4,1,0,,,,,,631579,,,,,,,
61989,note_on,33,0,1,,,,,,,,,,0,,79,69
61990,note_on,29,0,3,,,,,,,,,,2,,43,95
61991,set_tempo,4,1,0,,,,,,638298,,,,,,,
61995,set_tempo,4,1,0,,,,,,645161,,,,,,,
61999,set_tempo,4,1,0,,,,,,652174,,,,,,,
62003,set_tempo,4,1,0,,,,,,659341,,,,,,,
62007,set_tempo,4,1,0,,,,,,666667,,,,,,,
62011,set_tempo,4,1,0,,,,,,674157,,,,,,,
62015,set_tempo,4,1,0,,,,,,681818,,,,,,,
62019,set_tempo,4,1,0,,,,,,689655,,,,,,,
62023,set_tempo,4,1,0,,,,,,697674,,,,,,,
62023,note_on,34,0,1,,,,,,,,,,0,,79,0
62025,note_on,40,0,2,,,,,,,,,,1,,70,0
62027,set_tempo,4,1,0,,,,,,705882,,,,,,,
62027,note_on,37,0,3,,,,,,,,,,2,,43,0
62031,set_tempo,4,1,0,,,,,,714286,,,,,,,
62035,set_tempo,4,1,0,,,,,,722892,,,,,,,
62040,set_tempo,5,1,0,,,,,,731707,,,,,,,
62042,set_tempo,2,1,0,,,,,,731707,,,,,,,
62048,set_tempo,6,1,0,,,,,,740741,,,,,,,
62049,note_on,24,0,2,,,,,,,,,,1,,72,77
62052,note_on,25,0,3,,,,,,,,,,2,,48,86
62052,note_on,29,0,1,,,,,,,,,,0,,81,79
62054,set_tempo,6,1,0,,,,,,750000,,,,,,,
62060,set_tempo,6,1,0,,,,,,759494,,,,,,,
62066,set_tempo,6,1,0,,,,,,769231,,,,,,,
62072,set_tempo,6,1,0,,,,,,779221,,,,,,,
62078,set_tempo,6,1,0,,,,,,789474,,,,,,,
62084,set_tempo,6,1,0,,,,,,800000,,,,,,,
62085,note_on,33,0,1,,,,,,,,,,0,,81,0
62088,note_on,39,0,2,,,,,,,,,,1,,72,0
62090,set_tempo,6,1,0,,,,,,810811,,,,,,,
62093,note_on,41,0,3,,,,,,,,,,2,,48,0
62096,set_tempo,6,1,0,,,,,,821918,,,,,,,
62103,set_tempo,7,1,0,,,,,,833333,,,,,,,
62109,set_tempo,6,1,0,,,,,,845070,,,,,,,
62111,note_on,26,0,1,,,,,,,,,,0,,78,89
62112,note_on,19,0,3,,,,,,,,,,2,,50,84
62114,note_on,26,0,2,,,,,,,,,,1,,69,89
62115,set_tempo,6,1,0,,,,,,857143,,,,,,,
62119,set_tempo,4,1,0,,,,,,869565,,,,,,,
62125,set_tempo,6,1,0,,,,,,882353,,,,,,,
62131,set_tempo,6,1,0,,,,,,895522,,,,,,,
62137,set_tempo,6,1,0,,,,,,909091,,,,,,,
62143,set_tempo,6,1,0,,,,,,923077,,,,,,,
62148,note_on,36,0,3,,,,,,,,,,2,,50,0
62149,note_on,38,0,1,,,,,,,,,,0,,78,0
62149,set_tempo,6,1,0,,,,,,937500,,,,,,,
62154,note_on,40,0,2,,,,,,,,,,1,,69,0
62155,set_tempo,6,1,0,,,,,,952381,,,,,,,
62162,set_tempo,7,1,0,,,,,,967742,,,,,,,
62168,set_tempo,6,1,0,,,,,,983607,,,,,,,
62171,note_on,22,0,1,,,,,,,,,,0,,79,79
62174,note_on,20,0,2,,,,,,,,,,1,,67,74
62174,note_on,26,0,3,,,,,,,,,,2,,43,82
62174,set_tempo,6,1,0,,,,,,1000000,,,,,,,
62180,set_tempo,6,1,0,,,,,,1016949,,,,,,,
62186,set_tempo,6,1,0,,,,,,1034483,,,,,,,
62190,set_tempo,4,1,0,,,,,,1071429,,,,,,,
62198,set_tempo,8,1,0,,,,,,1090909,,,,,,,
62206,set_tempo,8,1,0,,,,,,1111111,,,,,,,
62212,set_tempo,6,1,0,,,,,,1132075,,,,,,,
62221,set_tempo,9,1,0,,,,,,1153846,,,,,,,
62227,set_tempo,6,1,0,,,,,,1176471,,,,,,,
62235,set_tempo,8,1,0,,,,,,1200000,,,,,,,
62243,set_tempo,8,1,0,,,,,,1224490,,,,,,,
62249,set_tempo,6,1,0,,,,,,1250000,,,,,,,
62257,set_tempo,8,1,0,,,,,,1276596,,,,,,,
62263,set_tempo,6,1,0,,,,,,1304348,,,,,,,
62273,set_tempo,10,1,0,,,,,,1153846,,,,,,,
62290,set_tempo,17,1,0,,,,,,1176471,,,,,,,
62292,set_tempo,2,1,0,,,,,,1034483,,,,,,,
62298,set_tempo,6,1,0,,,,,,1016949,,,,,,,
62369,note_on,198,0,1,,,,,,,,,,0,,79,0
62380,note_on,206,0,2,,,,,,,,,,1,,67,0
62380,end_of_track,0,1,2,,,,,,,,,,,,,
62392,note_on,218,0,3,,,,,,,,,,2,,43,0
62392,end_of_track,0,1,3,,,,,,,,,,,,,
62449,control_change,80,0,1,,,,,,,,64,127,0,,,
62470,control_change,21,0,1,,,,,,,,64,0,0,,,
62518,control_change,48,0,1,,,,,,,,64,127,0,,,
62542,control_change,24,0,1,,,,,,,,64,0,0,,,
62582,control_change,40,0,1,,,,,,,,64,127,0,,,
62596,control_change,14,0,1,,,,,,,,64,0,0,,,
62644,control_change,48,0,1,,,,,,,,64,127,0,,,
62659,control_change,15,0,1,,,,,,,,64,0,0,,,
62696,control_change,37,0,1,,,,,,,,64,127,0,,,
62716,control_change,20,0,1,,,,,,,,64,0,0,,,
62754,control_change,38,0,1,,,,,,,,64,127,0,,,
62775,control_change,21,0,1,,,,,,,,64,0,0,,,
62798,set_tempo,500,1,0,,,,,,2068966,,,,,,,
62800,control_change,25,0,1,,,,,,,,64,127,0,,,
62808,control_change,8,0,1,,,,,,,,64,0,0,,,
62828,control_change,20,0,1,,,,,,,,64,127,0,,,
62839,control_change,11,0,1,,,,,,,,64,0,0,,,
62839,end_of_track,0,1,1,,,,,,,,,,,,,
62922,end_of_track,0,1,0,,,,,,,,,,,,,
62922,set_tempo,124,1,0,,,,,,7500000,,,,,,,
