tick,type,time,meta,track,numerator,denominator,clocks_per_click,notated_32nd_notes_per_beat,key,tempo,port,control,value,channel,program,note,velocity
0,track_name,0,1,0,,,,,,,,,,,,,
0,end_of_track,0,1,4,,,,,,,,,,,,,
0,midi_port,0,1,5,,,,,,,0,,,,,,
0,track_name,0,1,5,,,,,,,,,,,,,
0,control_change,0,0,5,,,,,,,,7,127,4,,,
0,control_change,0,0,5,,,,,,,,10,63,4,,,
0,end_of_track,0,1,5,,,,,,,,,,,,,
0,midi_port,0,1,6,,,,,,,0,,,,,,
0,track_name,0,1,6,,,,,,,,,,,,,
0,control_change,0,0,6,,,,,,,,7,127,5,,,
0,control_change,0,0,6,,,,,,,,10,63,5,,,
0,end_of_track,0,1,6,,,,,,,,,,,,,
0,midi_port,0,1,7,,,,,,,0,,,,,,
0,track_name,0,1,7,,,,,,,,,,,,,
0,control_change,0,0,7,,,,,,,,7,127,6,,,
0,control_change,0,0,7,,,,,,,,10,63,6,,,
0,end_of_track,0,1,7,,,,,,,,,,,,,
0,midi_port,0,1,8,,,,,,,0,,,,,,
0,track_name,0,1,8,,,,,,,,,,,,,
0,control_change,0,0,8,,,,,,,,7,127,7,,,
0,control_change,0,0,4,,,,,,,,10,63,3,,,
0,control_change,0,0,4,,,,,,,,7,127,3,,,
0,track_name,0,1,4,,,,,,,,,,,,,
0,midi_port,0,1,4,,,,,,,0,,,,,,
0,control_change,0,0,1,,,,,,,,0,0,0,,,
0,control_change,0,0,1,,,,,,,,32,0,0,,,
0,control_change,0,0,1,,,,,,,,7,127,0,,,
0,control_change,0,0,1,,,,,,,,10,58,0,,,
0,program_change,0,0,1,,,,,,,,,,0,73,,
0,midi_port,0,1,2,,,,,,,0,,,,,,
0,track_name,0,1,2,,,,,,,,,,,,,
0,control_change,0,0,2,,,,,,,,0,0,1,,,
0,control_change,0,0,2,,,,,,,,32,0,1,,,
0,control_change,0,0,8,,,,,,,,10,63,7,,,
0,program_change,0,0,2,,,,,,,,,,1,68,,
0,control_change,0,0,2,,,,,,,,10,68,1,,,
0,control_change,0,0,17,,,,,,,,95,127,0,,,
0,midi_port,0,1,3,,,,,,,0,,,,,,
0,track_name,0,1,3,,,,,,,,,,,,,
0,control_change,0,0,3,,,,,,,,0,0,2,,,
0,control_change,0,0,3,,,,,,,,32,0,2,,,
0,program_change,0,0,3,,,,,,,,,,2,70,,
0,control_change,0,0,3,,,,,,,,7,127,2,,,
0,control_change,0,0,3,,,,,,,,10,49,2,,,
0,control_change,0,0,2,,,,,,,,7,127,1,,,
0,end_of_track,0,1,8,,,,,,,,,,,,,
0,midi_port,0,1,9,,,,,,,0,,,,,,
0,control_change,0,0,9,,,,,,,,7,127,8,,,
0,control_change,0,0,15,,,,,,,,10,63,14,,,
0,end_of_track,0,1,15,,,,,,,,,,,,,
0,midi_port,0,1,16,,,,,,,0,,,,,,
0,control_change,0,0,16,,,,,,,,7,127,15,,,
0,control_change,0,0,16,,,,,,,,10,63,15,,,
0,end_of_track,0,1,16,,,,,,,,,,,,,
0,midi_port,0,1,17,,,,,,,0,,,,,,
0,control_change,0,0,17,,,,,,,,40,103,5,,,
0,control_change,0,0,17,,,,,,,,40,103,4,,,
0,control_change,0,0,15,,,,,,,,7,127,14,,,
0,control_change,0,0,17,,,,,,,,40,103,3,,,
0,control_change,0,0,17,,,,,,,,40,103,1,,,
0,control_change,0,0,17,,,,,,,,40,103,0,,,
0,control_change,0,0,17,,,,,,,,93,64,1,,,
0,control_change,0,0,17,,,,,,,,92,0,1,,,
0,control_change,0,0,17,,,,,,,,96,64,1,,,
0,control_change,0,0,17,,,,,,,,95,127,1,,,
0,control_change,0,0,17,,,,,,,,93,64,0,,,
0,control_change,0,0,17,,,,,,,,92,0,0,,,
0,control_change,0,0,17,,,,,,,,96,64,0,,,
0,control_change,0,0,17,,,,,,,,40,103,2,,,
0,track_name,0,1,1,,,,,,,,,,,,,
0,midi_port,0,1,15,,,,,,,0,,,,,,
0,control_change,0,0,14,,,,,,,,10,63,13,,,
0,control_change,0,0,9,,,,,,,,10,63,8,,,
0,end_of_track,0,1,9,,,,,,,,,,,,,
0,midi_port,0,1,10,,,,,,,0,,,,,,
0,control_change,0,0,10,,,,,,,,7,127,9,,,
0,control_change,0,0,10,,,,,,,,10,63,9,,,
0,end_of_track,0,1,10,,,,,,,,,,,,,
0,midi_port,0,1,11,,,,,,,0,,,,,,
0,control_change,0,0,11,,,,,,,,7,127,10,,,
0,control_change,0,0,11,,,,,,,,10,63,10,,,
0,end_of_track,0,1,14,,,,,,,,,,,,,
0,end_of_track,0,1,11,,,,,,,,,,,,,
0,control_change,0,0,12,,,,,,,,7,127,11,,,
0,control_change,0,0,12,,,,,,,,10,63,11,,,
0,end_of_track,0,1,12,,,,,,,,,,,,,
0,midi_port,0,1,13,,,,,,,0,,,,,,
0,control_change,0,0,13,,,,,,,,7,127,12,,,
0,control_change,0,0,13,,,,,,,,10,63,12,,,
0,end_of_track,0,1,13,,,,,,,,,,,,,
0,midi_port,0,1,14,,,,,,,0,,,,,,
0,control_change,0,0,14,,,,,,,,7,127,13,,,
0,midi_port,0,1,12,,,,,,,0,,,,,,
0,midi_port,0,1,1,,,,,,,0,,,,,,
0,end_of_track,0,1,17,,,,,,,,,,,,,
0,track_name,0,1,0,,,,,,,,,,,,,
0,copyright,0,1,0,,,,,,,,,,,,,
0,text,0,1,0,,,,,,,,,,,,,
0,time_signature,0,1,0,2,4,24,8,,,,,,,,,
0,key_signature,0,1,0,,,,,Bb,,,,,,,,
0,set_tempo,0,1,0,,,,,,545455,,,,,,,
1,control_change,1,0,2,,,,,,,,93,6,1,,,
1,control_change,0,0,1,,,,,,,,91,67,0,,,
1,control_change,1,0,3,,,,,,,,91,67,2,,,
1,control_change,0,0,3,,,,,,,,93,6,2,,,
1,control_change,1,0,1,,,,,,,,93,12,0,,,
1,control_change,0,0,2,,,,,,,,91,67,1,,,
177,note_on,176,0,3,,,,,,,,,,2,,55,68
181,note_on,180,0,2,,,,,,,,,,1,,82,82
185,note_on,184,0,1,,,,,,,,,,0,,79,90
223,note_on,46,0,3,,,,,,,,,,2,,55,0
233,note_on,52,0,2,,,,,,,,,,1,,82,0
239,note_on,6,0,2,,,,,,,,,,1,,81,78
240,note_on,17,0,3,,,,,,,,,,2,,62,81
243,note_on,58,0,1,,,,,,,,,,0,,78,87
244,note_on,1,0,1,,,,,,,,,,0,,79,0
265,note_on,26,0,2,,,,,,,,,,1,,81,0
267,note_on,23,0,1,,,,,,,,,,0,,78,0
272,note_on,32,0,3,,,,,,,,,,2,,62,0
300,note_on,28,0,3,,,,,,,,,,2,,59,83
302,note_on,37,0,2,,,,,,,,,,1,,79,80
304,note_on,37,0,1,,,,,,,,,,0,,77,82
348,note_on,48,0,3,,,,,,,,,,2,,59,0
360,note_on,12,0,3,,,,,,,,,,2,,60,92
361,note_on,57,0,1,,,,,,,,,,0,,77,0
365,note_on,4,0,1,,,,,,,,,,0,,76,79
390,note_on,30,0,3,,,,,,,,,,2,,60,0
390,note_on,25,0,1,,,,,,,,,,0,,76,0
417,note_on,115,0,2,,,,,,,,,,1,,79,0
423,note_on,33,0,3,,,,,,,,,,2,,54,70
423,note_on,33,0,1,,,,,,,,,,0,,75,80
424,note_on,7,0,2,,,,,,,,,,1,,81,76
449,note_on,25,0,2,,,,,,,,,,1,,81,0
454,note_on,31,0,1,,,,,,,,,,0,,75,0
456,note_on,33,0,3,,,,,,,,,,2,,54,0
479,note_on,30,0,2,,,,,,,,,,1,,82,71
483,note_on,27,0,3,,,,,,,,,,2,,55,71
483,note_on,29,0,1,,,,,,,,,,0,,74,82
508,note_on,25,0,1,,,,,,,,,,0,,74,0
509,note_on,1,0,1,,,,,,,,,,0,,72,70
516,note_on,33,0,3,,,,,,,,,,2,,55,0
534,note_on,25,0,1,,,,,,,,,,0,,72,0
538,note_on,4,0,1,,,,,,,,,,0,,70,66
540,note_on,24,0,3,,,,,,,,,,2,,50,70
560,note_on,22,0,1,,,,,,,,,,0,,70,0
566,note_on,6,0,1,,,,,,,,,,0,,69,80
572,note_on,32,0,3,,,,,,,,,,2,,50,0
590,note_on,24,0,1,,,,,,,,,,0,,69,0
596,note_on,6,0,1,,,,,,,,,,0,,67,75
597,note_on,25,0,3,,,,,,,,,,2,,46,72
603,note_on,124,0,2,,,,,,,,,,1,,82,0
621,note_on,25,0,1,,,,,,,,,,0,,67,0
628,note_on,31,0,3,,,,,,,,,,2,,46,0
652,note_on,49,0,2,,,,,,,,,,1,,74,87
654,note_on,26,0,3,,,,,,,,,,2,,43,78
655,note_on,34,0,1,,,,,,,,,,0,,82,81
693,note_on,39,0,3,,,,,,,,,,2,,43,0
713,note_on,58,0,1,,,,,,,,,,0,,82,0
715,note_on,22,0,3,,,,,,,,,,2,,48,70
715,note_on,63,0,2,,,,,,,,,,1,,75,83
717,note_on,2,0,2,,,,,,,,,,1,,74,0
719,note_on,6,0,1,,,,,,,,,,0,,81,78
741,note_on,24,0,2,,,,,,,,,,1,,75,0
748,note_on,29,0,1,,,,,,,,,,0,,81,0
752,note_on,37,0,3,,,,,,,,,,2,,48,0
779,note_on,38,0,2,,,,,,,,,,1,,72,81
780,note_on,28,0,3,,,,,,,,,,2,,48,76
780,note_on,32,0,1,,,,,,,,,,0,,80,88
839,note_on,59,0,3,,,,,,,,,,2,,48,0
839,note_on,60,0,2,,,,,,,,,,1,,70,78
840,note_on,1,0,2,,,,,,,,,,1,,72,0
842,note_on,62,0,1,,,,,,,,,,0,,80,0
842,note_on,0,0,1,,,,,,,,,,0,,79,81
842,note_on,3,0,3,,,,,,,,,,2,,50,78
862,note_on,22,0,2,,,,,,,,,,1,,70,0
868,note_on,26,0,1,,,,,,,,,,0,,79,0
877,note_on,35,0,3,,,,,,,,,,2,,50,0
901,note_on,39,0,2,,,,,,,,,,1,,69,78
903,note_on,35,0,1,,,,,,,,,,0,,78,88
907,note_on,30,0,3,,,,,,,,,,2,,38,76
929,note_on,28,0,2,,,,,,,,,,1,,69,0
936,note_on,33,0,1,,,,,,,,,,0,,78,0
938,note_on,31,0,3,,,,,,,,,,2,,38,0
962,note_on,33,0,2,,,,,,,,,,1,,67,66
963,note_on,25,0,3,,,,,,,,,,2,,43,75
966,note_on,30,0,1,,,,,,,,,,0,,79,81
994,note_on,28,0,1,,,,,,,,,,0,,79,0
994,note_on,0,0,1,,,,,,,,,,0,,78,64
1019,note_on,25,0,1,,,,,,,,,,0,,78,0
1022,note_on,3,0,1,,,,,,,,,,0,,79,74
1045,note_on,23,0,1,,,,,,,,,,0,,79,0
1050,note_on,5,0,1,,,,,,,,,,0,,81,74
1064,note_on,101,0,3,,,,,,,,,,2,,43,0
1074,note_on,24,0,1,,,,,,,,,,0,,81,0
1084,note_on,10,0,1,,,,,,,,,,0,,79,85
1087,note_on,125,0,2,,,,,,,,,,1,,67,0
1107,note_on,23,0,1,,,,,,,,,,0,,79,0
1140,note_on,33,0,1,,,,,,,,,,0,,82,74
1140,note_on,76,0,3,,,,,,,,,,2,,55,72
1144,note_on,57,0,2,,,,,,,,,,1,,79,99
1196,note_on,52,0,2,,,,,,,,,,1,,79,0
1202,note_on,62,0,1,,,,,,,,,,0,,82,0
1202,note_on,62,0,3,,,,,,,,,,2,,55,0
1203,note_on,1,0,3,,,,,,,,,,2,,62,85
1204,note_on,8,0,2,,,,,,,,,,1,,78,90
1207,note_on,5,0,1,,,,,,,,,,0,,81,85
1228,note_on,24,0,2,,,,,,,,,,1,,78,0
1232,note_on,25,0,1,,,,,,,,,,0,,81,0
1240,note_on,37,0,3,,,,,,,,,,2,,62,0
1264,note_on,24,0,3,,,,,,,,,,2,,59,81
1265,note_on,37,0,2,,,,,,,,,,1,,77,85
1271,note_on,39,0,1,,,,,,,,,,0,,79,88
1323,note_on,59,0,3,,,,,,,,,,2,,59,0
1325,note_on,2,0,3,,,,,,,,,,2,,60,90
1331,note_on,66,0,2,,,,,,,,,,1,,77,0
1331,note_on,0,0,2,,,,,,,,,,1,,76,87
1356,note_on,25,0,2,,,,,,,,,,1,,76,0
1357,note_on,32,0,3,,,,,,,,,,2,,60,0
1371,note_on,100,0,1,,,,,,,,,,0,,79,0
1384,note_on,13,0,1,,,,,,,,,,0,,81,79
1388,note_on,32,0,2,,,,,,,,,,1,,75,83
1389,note_on,32,0,3,,,,,,,,,,2,,54,71
1410,note_on,22,0,2,,,,,,,,,,1,,75,0
1410,note_on,26,0,1,,,,,,,,,,0,,81,0
1422,note_on,33,0,3,,,,,,,,,,2,,54,0
1445,note_on,35,0,2,,,,,,,,,,1,,74,71
1445,note_on,23,0,3,,,,,,,,,,2,,55,68
1446,note_on,36,0,1,,,,,,,,,,0,,82,74
1469,note_on,24,0,2,,,,,,,,,,1,,74,0
1474,note_on,5,0,2,,,,,,,,,,1,,72,71
1484,note_on,39,0,3,,,,,,,,,,2,,55,0
1490,note_on,16,0,2,,,,,,,,,,1,,72,0
1502,note_on,12,0,2,,,,,,,,,,1,,70,81
1506,note_on,22,0,3,,,,,,,,,,2,,50,71
1518,note_on,16,0,2,,,,,,,,,,1,,70,0
1530,note_on,12,0,2,,,,,,,,,,1,,69,83
1542,note_on,36,0,3,,,,,,,,,,2,,50,0
1547,note_on,17,0,2,,,,,,,,,,1,,69,0
1562,note_on,20,0,3,,,,,,,,,,2,,46,68
1563,note_on,16,0,2,,,,,,,,,,1,,67,92
1580,note_on,134,0,1,,,,,,,,,,0,,82,0
1587,note_on,24,0,2,,,,,,,,,,1,,67,0
1595,note_on,33,0,3,,,,,,,,,,2,,46,0
1623,note_on,28,0,3,,,,,,,,,,2,,43,83
1623,note_on,43,0,1,,,,,,,,,,0,,74,62
1623,note_on,36,0,2,,,,,,,,,,1,,82,80
1665,note_on,42,0,3,,,,,,,,,,2,,43,0
1670,note_on,47,0,2,,,,,,,,,,1,,82,0
1682,note_on,12,0,2,,,,,,,,,,1,,81,88
1683,note_on,18,0,3,,,,,,,,,,2,,48,76
1687,note_on,64,0,1,,,,,,,,,,0,,75,68
1690,note_on,3,0,1,,,,,,,,,,0,,74,0
1708,note_on,26,0,2,,,,,,,,,,1,,81,0
1712,note_on,22,0,1,,,,,,,,,,0,,75,0
1715,note_on,32,0,3,,,,,,,,,,2,,48,0
1743,note_on,28,0,3,,,,,,,,,,2,,48,76
1747,note_on,39,0,2,,,,,,,,,,1,,80,93
1748,note_on,36,0,1,,,,,,,,,,0,,84,88
1798,note_on,55,0,3,,,,,,,,,,2,,48,0
1806,note_on,58,0,1,,,,,,,,,,0,,84,0
1806,note_on,0,0,1,,,,,,,,,,0,,82,70
1807,note_on,9,0,3,,,,,,,,,,2,,50,83
1808,note_on,61,0,2,,,,,,,,,,1,,80,0
1809,note_on,1,0,2,,,,,,,,,,1,,79,88
1831,note_on,25,0,1,,,,,,,,,,0,,82,0
1832,note_on,23,0,2,,,,,,,,,,1,,79,0
1838,note_on,31,0,3,,,,,,,,,,2,,50,0
1865,note_on,34,0,1,,,,,,,,,,0,,81,81
1869,note_on,37,0,2,,,,,,,,,,1,,78,86
1873,note_on,35,0,3,,,,,,,,,,2,,38,75
1892,note_on,27,0,1,,,,,,,,,,0,,81,0
1894,note_on,25,0,2,,,,,,,,,,1,,78,0
1903,note_on,30,0,3,,,,,,,,,,2,,38,0
1921,note_on,29,0,1,,,,,,,,,,0,,79,88
1922,note_on,28,0,2,,,,,,,,,,1,,79,86
1926,note_on,23,0,3,,,,,,,,,,2,,43,70
1949,note_on,27,0,2,,,,,,,,,,1,,79,0
1950,note_on,1,0,2,,,,,,,,,,1,,78,84
1963,note_on,13,0,2,,,,,,,,,,1,,78,0
1977,note_on,14,0,2,,,,,,,,,,1,,79,81
1993,note_on,16,0,2,,,,,,,,,,1,,79,0
2005,note_on,12,0,2,,,,,,,,,,1,,81,90
2024,note_on,19,0,2,,,,,,,,,,1,,81,0
2027,note_on,101,0,3,,,,,,,,,,2,,43,0
2036,note_on,12,0,2,,,,,,,,,,1,,79,92
2062,note_on,141,0,1,,,,,,,,,,0,,79,0
2067,note_on,31,0,2,,,,,,,,,,1,,79,0
2100,note_on,73,0,3,,,,,,,,,,2,,55,68
2104,note_on,42,0,1,,,,,,,,,,0,,86,83
2136,note_on,32,0,1,,,,,,,,,,0,,86,0
2141,note_on,41,0,3,,,,,,,,,,2,,55,0
2167,note_on,26,0,3,,,,,,,,,,2,,54,72
2168,note_on,32,0,1,,,,,,,,,,0,,86,74
2197,note_on,29,0,1,,,,,,,,,,0,,86,0
2197,note_on,0,0,1,,,,,,,,,,0,,84,76
2212,note_on,45,0,3,,,,,,,,,,2,,54,0
2217,note_on,20,0,1,,,,,,,,,,0,,84,0
2224,note_on,7,0,1,,,,,,,,,,0,,82,64
2228,note_on,16,0,3,,,,,,,,,,2,,54,59
2243,note_on,19,0,1,,,,,,,,,,0,,82,0
2253,note_on,10,0,1,,,,,,,,,,0,,81,68
2271,note_on,18,0,1,,,,,,,,,,0,,81,0
2273,note_on,45,0,3,,,,,,,,,,2,,54,0
2282,note_on,11,0,1,,,,,,,,,,0,,86,90
2284,note_on,11,0,3,,,,,,,,,,2,,54,68
2311,note_on,29,0,1,,,,,,,,,,0,,86,0
2313,note_on,2,0,1,,,,,,,,,,0,,84,74
2328,note_on,44,0,3,,,,,,,,,,2,,54,0
2330,note_on,17,0,1,,,,,,,,,,0,,84,0
2342,note_on,14,0,3,,,,,,,,,,2,,54,66
2342,note_on,12,0,1,,,,,,,,,,0,,82,61
2362,note_on,20,0,1,,,,,,,,,,0,,82,0
2372,note_on,10,0,1,,,,,,,,,,0,,81,69
2384,note_on,42,0,3,,,,,,,,,,2,,54,0
2394,note_on,22,0,1,,,,,,,,,,0,,81,0
2401,note_on,17,0,3,,,,,,,,,,2,,55,64
2404,note_on,10,0,1,,,,,,,,,,0,,82,73
2406,note_on,339,0,2,,,,,,,,,,1,,79,103
2431,note_on,27,0,1,,,,,,,,,,0,,82,0
2438,note_on,32,0,2,,,,,,,,,,1,,79,0
2439,note_on,1,0,2,,,,,,,,,,1,,77,85
2446,note_on,45,0,3,,,,,,,,,,2,,55,0
2454,note_on,15,0,2,,,,,,,,,,1,,77,0
2463,note_on,17,0,3,,,,,,,,,,2,,55,64
2465,note_on,34,0,1,,,,,,,,,,0,,82,74
2468,note_on,14,0,2,,,,,,,,,,1,,75,68
2483,note_on,15,0,2,,,,,,,,,,1,,75,0
2496,note_on,13,0,2,,,,,,,,,,1,,74,72
2509,note_on,46,0,3,,,,,,,,,,2,,55,0
2514,note_on,18,0,2,,,,,,,,,,1,,74,0
2527,note_on,13,0,2,,,,,,,,,,1,,79,87
2529,note_on,20,0,3,,,,,,,,,,2,,55,68
2556,note_on,29,0,2,,,,,,,,,,1,,79,0
2558,note_on,2,0,2,,,,,,,,,,1,,77,87
2562,note_on,97,0,1,,,,,,,,,,0,,82,0
2572,note_on,14,0,2,,,,,,,,,,1,,77,0
2575,note_on,46,0,3,,,,,,,,,,2,,55,0
2585,note_on,23,0,1,,,,,,,,,,0,,82,73
2586,note_on,14,0,2,,,,,,,,,,1,,75,70
2588,note_on,13,0,3,,,,,,,,,,2,,55,63
2604,note_on,18,0,2,,,,,,,,,,1,,75,0
2613,note_on,28,0,1,,,,,,,,,,0,,82,0
2616,note_on,12,0,2,,,,,,,,,,1,,74,75
2632,note_on,44,0,3,,,,,,,,,,2,,55,0
2634,note_on,18,0,2,,,,,,,,,,1,,74,0
2646,note_on,33,0,1,,,,,,,,,,0,,84,88
2648,note_on,16,0,3,,,,,,,,,,2,,48,78
2649,note_on,15,0,2,,,,,,,,,,1,,75,75
2673,note_on,27,0,1,,,,,,,,,,0,,82,64
2674,note_on,1,0,1,,,,,,,,,,0,,84,0
2676,note_on,27,0,2,,,,,,,,,,1,,75,0
2694,note_on,20,0,1,,,,,,,,,,0,,82,0
2694,note_on,46,0,3,,,,,,,,,,2,,48,0
2702,note_on,8,0,1,,,,,,,,,,0,,81,70
2706,note_on,30,0,2,,,,,,,,,,1,,75,71
2710,note_on,16,0,3,,,,,,,,,,2,,48,87
2719,note_on,17,0,1,,,,,,,,,,0,,81,0
2732,note_on,13,0,1,,,,,,,,,,0,,79,76
2751,note_on,19,0,1,,,,,,,,,,0,,79,0
2754,note_on,44,0,3,,,,,,,,,,2,,48,0
2764,note_on,13,0,1,,,,,,,,,,0,,84,90
2766,note_on,12,0,3,,,,,,,,,,2,,48,76
2791,note_on,27,0,1,,,,,,,,,,0,,82,68
2792,note_on,1,0,1,,,,,,,,,,0,,84,0
2811,note_on,105,0,2,,,,,,,,,,1,,75,0
2811,note_on,19,0,1,,,,,,,,,,0,,82,0
2815,note_on,49,0,3,,,,,,,,,,2,,48,0
2819,note_on,8,0,1,,,,,,,,,,0,,81,69
2826,note_on,15,0,2,,,,,,,,,,1,,75,81
2827,note_on,12,0,3,,,,,,,,,,2,,48,81
2837,note_on,18,0,1,,,,,,,,,,0,,81,0
2849,note_on,23,0,2,,,,,,,,,,1,,75,0
2849,note_on,12,0,1,,,,,,,,,,0,,79,83
2868,note_on,19,0,1,,,,,,,,,,0,,79,0
2869,note_on,42,0,3,,,,,,,,,,2,,48,0
2881,note_on,13,0,1,,,,,,,,,,0,,81,81
2883,note_on,14,0,3,,,,,,,,,,2,,53,78
2883,note_on,34,0,2,,,,,,,,,,1,,77,95
2902,note_on,21,0,1,,,,,,,,,,0,,81,0
2907,note_on,24,0,2,,,,,,,,,,1,,77,0
2912,note_on,5,0,2,,,,,,,,,,1,,75,64
2926,note_on,43,0,3,,,,,,,,,,2,,53,0
2932,note_on,20,0,2,,,,,,,,,,1,,75,0
2941,note_on,9,0,2,,,,,,,,,,1,,74,75
2942,note_on,40,0,1,,,,,,,,,,0,,81,81
2943,note_on,17,0,3,,,,,,,,,,2,,53,78
2962,note_on,21,0,2,,,,,,,,,,1,,74,0
2971,note_on,9,0,2,,,,,,,,,,1,,72,67
2988,note_on,45,0,3,,,,,,,,,,2,,53,0
2990,note_on,19,0,2,,,,,,,,,,1,,72,0
3004,note_on,14,0,2,,,,,,,,,,1,,77,93
3005,note_on,17,0,3,,,,,,,,,,2,,53,69
3030,note_on,26,0,2,,,,,,,,,,1,,77,0
3032,note_on,2,0,2,,,,,,,,,,1,,75,63
3041,note_on,99,0,1,,,,,,,,,,0,,81,0
3049,note_on,17,0,2,,,,,,,,,,1,,75,0
3049,note_on,44,0,3,,,,,,,,,,2,,53,0
3061,note_on,12,0,2,,,,,,,,,,1,,74,71
3064,note_on,23,0,1,,,,,,,,,,0,,81,76
3066,note_on,17,0,3,,,,,,,,,,2,,53,78
3078,note_on,17,0,2,,,,,,,,,,1,,74,0
3092,note_on,28,0,1,,,,,,,,,,0,,81,0
3092,note_on,14,0,2,,,,,,,,,,1,,72,78
3109,note_on,17,0,2,,,,,,,,,,1,,72,0
3112,note_on,46,0,3,,,,,,,,,,2,,53,0
3123,note_on,11,0,3,,,,,,,,,,2,,46,68
3124,note_on,15,0,2,,,,,,,,,,1,,74,76
3125,note_on,33,0,1,,,,,,,,,,0,,82,83
3151,note_on,27,0,2,,,,,,,,,,1,,74,0
3155,note_on,30,0,1,,,,,,,,,,0,,82,0
3155,note_on,0,0,1,,,,,,,,,,0,,81,81
3168,note_on,45,0,3,,,,,,,,,,2,,46,0
3176,note_on,21,0,1,,,,,,,,,,0,,81,0
3184,note_on,33,0,2,,,,,,,,,,1,,74,77
3185,note_on,17,0,3,,,,,,,,,,2,,46,67
3187,note_on,11,0,1,,,,,,,,,,0,,79,70
3203,note_on,16,0,1,,,,,,,,,,0,,79,0
3216,note_on,13,0,1,,,,,,,,,,0,,77,76
3229,note_on,44,0,3,,,,,,,,,,2,,46,0
3233,note_on,17,0,1,,,,,,,,,,0,,77,0
3247,note_on,18,0,3,,,,,,,,,,2,,46,71
3247,note_on,14,0,1,,,,,,,,,,0,,82,74
3275,note_on,28,0,1,,,,,,,,,,0,,82,0
3276,note_on,1,0,1,,,,,,,,,,0,,81,74
3287,note_on,103,0,2,,,,,,,,,,1,,74,0
3290,note_on,43,0,3,,,,,,,,,,2,,46,0
3295,note_on,19,0,1,,,,,,,,,,0,,81,0
3306,note_on,11,0,1,,,,,,,,,,0,,79,69
3307,note_on,17,0,3,,,,,,,,,,2,,46,75
3307,note_on,20,0,2,,,,,,,,,,1,,74,71
3324,note_on,18,0,1,,,,,,,,,,0,,79,0
3332,note_on,25,0,2,,,,,,,,,,1,,74,0
3335,note_on,11,0,1,,,,,,,,,,0,,77,74
3352,note_on,45,0,3,,,,,,,,,,2,,46,0
3352,note_on,17,0,1,,,,,,,,,,0,,77,0
3366,note_on,14,0,1,,,,,,,,,,0,,79,76
3367,note_on,15,0,3,,,,,,,,,,2,,52,72
3368,note_on,36,0,2,,,,,,,,,,1,,76,85
3389,note_on,23,0,1,,,,,,,,,,0,,79,0
3397,note_on,29,0,2,,,,,,,,,,1,,76,0
3398,note_on,1,0,2,,,,,,,,,,1,,74,71
3410,note_on,43,0,3,,,,,,,,,,2,,52,0
3414,note_on,16,0,2,,,,,,,,,,1,,74,0
3426,note_on,37,0,1,,,,,,,,,,0,,79,76
3427,note_on,13,0,2,,,,,,,,,,1,,73,66
3428,note_on,18,0,3,,,,,,,,,,2,,52,68
3443,note_on,16,0,2,,,,,,,,,,1,,73,0
3455,note_on,12,0,2,,,,,,,,,,1,,71,67
3473,note_on,45,0,3,,,,,,,,,,2,,52,0
3474,note_on,19,0,2,,,,,,,,,,1,,71,0
3486,note_on,12,0,2,,,,,,,,,,1,,76,85
3488,note_on,15,0,3,,,,,,,,,,2,,52,72
3513,note_on,0,0,2,,,,,,,,,,1,,74,68
3513,note_on,27,0,2,,,,,,,,,,1,,76,0
3520,note_on,94,0,1,,,,,,,,,,0,,79,0
3531,note_on,43,0,3,,,,,,,,,,2,,52,0
3532,note_on,19,0,2,,,,,,,,,,1,,74,0
3542,note_on,22,0,1,,,,,,,,,,0,,79,90
3543,note_on,11,0,2,,,,,,,,,,1,,73,66
3548,note_on,17,0,3,,,,,,,,,,2,,52,78
3560,note_on,17,0,2,,,,,,,,,,1,,73,0
3568,note_on,26,0,1,,,,,,,,,,0,,79,0
3572,note_on,12,0,2,,,,,,,,,,1,,71,68
3590,note_on,18,0,2,,,,,,,,,,1,,71,0
3592,note_on,44,0,3,,,,,,,,,,2,,52,0
3602,note_on,34,0,1,,,,,,,,,,0,,81,83
3604,note_on,14,0,2,,,,,,,,,,1,,73,85
3606,note_on,14,0,3,,,,,,,,,,2,,45,78
3629,note_on,25,0,2,,,,,,,,,,1,,73,0
3631,note_on,29,0,1,,,,,,,,,,0,,81,0
3632,note_on,1,0,1,,,,,,,,,,0,,79,83
3648,note_on,42,0,3,,,,,,,,,,2,,45,0
3653,note_on,21,0,1,,,,,,,,,,0,,79,0
3662,note_on,14,0,3,,,,,,,,,,2,,45,83
3663,note_on,10,0,1,,,,,,,,,,0,,77,68
3665,note_on,36,0,2,,,,,,,,,,1,,73,76
3676,note_on,13,0,1,,,,,,,,,,0,,77,0
3690,note_on,14,0,1,,,,,,,,,,0,,76,68
3704,note_on,42,0,3,,,,,,,,,,2,,45,0
3713,note_on,23,0,1,,,,,,,,,,0,,76,0
3723,note_on,10,0,1,,,,,,,,,,0,,81,79
3724,note_on,20,0,3,,,,,,,,,,2,,45,75
3749,note_on,26,0,1,,,,,,,,,,0,,81,0
3751,note_on,2,0,1,,,,,,,,,,0,,79,81
3764,note_on,99,0,2,,,,,,,,,,1,,73,0
3767,note_on,43,0,3,,,,,,,,,,2,,45,0
3771,note_on,20,0,1,,,,,,,,,,0,,79,0
3781,note_on,10,0,1,,,,,,,,,,0,,77,70
3785,note_on,21,0,2,,,,,,,,,,1,,73,76
3785,note_on,18,0,3,,,,,,,,,,2,,45,83
3799,note_on,18,0,1,,,,,,,,,,0,,77,0
3810,note_on,11,0,1,,,,,,,,,,0,,76,68
3812,note_on,27,0,2,,,,,,,,,,1,,73,0
3828,note_on,43,0,3,,,,,,,,,,2,,45,0
3829,note_on,19,0,1,,,,,,,,,,0,,76,0
3842,note_on,13,0,1,,,,,,,,,,0,,77,83
3845,note_on,33,0,2,,,,,,,,,,1,,74,81
3846,note_on,18,0,3,,,,,,,,,,2,,50,71
3866,note_on,24,0,1,,,,,,,,,,0,,77,0
3869,note_on,24,0,2,,,,,,,,,,1,,74,0
3882,note_on,36,0,3,,,,,,,,,,2,,50,0
3899,note_on,33,0,1,,,,,,,,,,0,,81,79
3903,note_on,21,0,3,,,,,,,,,,2,,62,71
3905,note_on,36,0,2,,,,,,,,,,1,,77,92
3942,note_on,39,0,3,,,,,,,,,,2,,62,0
3966,note_on,24,0,3,,,,,,,,,,2,,50,70
4005,note_on,39,0,3,,,,,,,,,,2,,50,0
4006,note_on,101,0,2,,,,,,,,,,1,,77,0
4016,note_on,10,0,2,,,,,,,,,,1,,74,67
4020,note_on,121,0,1,,,,,,,,,,0,,81,0
4024,note_on,4,0,1,,,,,,,,,,0,,77,84
4026,note_on,21,0,3,,,,,,,,,,2,,62,68
4043,note_on,27,0,2,,,,,,,,,,1,,74,0
4047,note_on,23,0,1,,,,,,,,,,0,,77,0
4061,note_on,35,0,3,,,,,,,,,,2,,62,0
4083,note_on,40,0,2,,,,,,,,,,1,,74,73
4085,note_on,38,0,1,,,,,,,,,,0,,77,77
4085,note_on,24,0,3,,,,,,,,,,2,,50,63
4111,note_on,26,0,1,,,,,,,,,,0,,77,0
4111,note_on,28,0,2,,,,,,,,,,1,,74,0
4125,note_on,40,0,3,,,,,,,,,,2,,50,0
4145,note_on,20,0,3,,,,,,,,,,2,,62,68
4145,note_on,34,0,1,,,,,,,,,,0,,81,71
4148,note_on,37,0,2,,,,,,,,,,1,,77,71
4187,note_on,42,0,3,,,,,,,,,,2,,62,0
4207,note_on,20,0,3,,,,,,,,,,2,,50,67
4244,note_on,37,0,3,,,,,,,,,,2,,50,0
4254,note_on,106,0,2,,,,,,,,,,1,,77,0
4256,note_on,111,0,1,,,,,,,,,,0,,81,0
4261,note_on,5,0,1,,,,,,,,,,0,,77,83
4265,note_on,11,0,2,,,,,,,,,,1,,74,72
4266,note_on,22,0,3,,,,,,,,,,2,,62,78
4287,note_on,26,0,1,,,,,,,,,,0,,77,0
4292,note_on,27,0,2,,,,,,,,,,1,,74,0
4303,note_on,37,0,3,,,,,,,,,,2,,62,0
4321,note_on,34,0,1,,,,,,,,,,0,,76,70
4323,note_on,31,0,2,,,,,,,,,,1,,73,76
4326,note_on,23,0,3,,,,,,,,,,2,,57,85
4352,note_on,31,0,1,,,,,,,,,,0,,76,0
4353,note_on,30,0,2,,,,,,,,,,1,,73,0
4357,note_on,31,0,3,,,,,,,,,,2,,57,0
4382,note_on,29,0,2,,,,,,,,,,1,,74,75
4383,note_on,26,0,3,,,,,,,,,,2,,50,75
4383,note_on,31,0,1,,,,,,,,,,0,,77,88
4413,note_on,30,0,1,,,,,,,,,,0,,77,0
4413,note_on,31,0,2,,,,,,,,,,1,,74,0
4422,note_on,39,0,3,,,,,,,,,,2,,50,0
4442,note_on,29,0,2,,,,,,,,,,1,,74,75
4444,note_on,31,0,1,,,,,,,,,,0,,76,85
4444,note_on,22,0,3,,,,,,,,,,2,,57,81
4473,note_on,31,0,2,,,,,,,,,,1,,74,0
4474,note_on,30,0,1,,,,,,,,,,0,,76,0
4482,note_on,38,0,3,,,,,,,,,,2,,57,0
4504,note_on,30,0,1,,,,,,,,,,0,,74,66
4504,note_on,31,0,2,,,,,,,,,,1,,73,70
4505,note_on,23,0,3,,,,,,,,,,2,,45,81
4532,note_on,28,0,1,,,,,,,,,,0,,74,0
4532,note_on,28,0,2,,,,,,,,,,1,,73,0
4547,note_on,42,0,3,,,,,,,,,,2,,45,0
4564,note_on,32,0,1,,,,,,,,,,0,,74,73
4564,note_on,32,0,2,,,,,,,,,,1,,74,72
4571,note_on,24,0,3,,,,,,,,,,2,,50,83
4611,note_on,40,0,3,,,,,,,,,,2,,50,0
4630,note_on,19,0,3,,,,,,,,,,2,,57,81
4668,note_on,38,0,3,,,,,,,,,,2,,57,0
4679,note_on,115,0,2,,,,,,,,,,1,,74,0
4687,note_on,123,0,1,,,,,,,,,,0,,74,0
4691,note_on,23,0,3,,,,,,,,,,2,,53,67
4727,note_on,36,0,3,,,,,,,,,,2,,53,0
4742,note_on,63,0,2,,,,,,,,,,1,,74,85
4747,note_on,60,0,1,,,,,,,,,,0,,77,85
4751,note_on,24,0,3,,,,,,,,,,2,,50,72
4781,note_on,34,0,1,,,,,,,,,,0,,77,0
4788,note_on,37,0,3,,,,,,,,,,2,,50,0
4797,note_on,55,0,2,,,,,,,,,,1,,74,0
4803,note_on,6,0,2,,,,,,,,,,1,,73,81
4807,note_on,26,0,1,,,,,,,,,,0,,76,66
4809,note_on,21,0,3,,,,,,,,,,2,,57,81
4831,note_on,28,0,2,,,,,,,,,,1,,73,0
4835,note_on,28,0,1,,,,,,,,,,0,,76,0
4847,note_on,38,0,3,,,,,,,,,,2,,57,0
4864,note_on,33,0,2,,,,,,,,,,1,,72,90
4866,note_on,19,0,3,,,,,,,,,,2,,54,81
4869,note_on,34,0,1,,,,,,,,,,0,,74,69
4923,note_on,57,0,3,,,,,,,,,,2,,54,0
4925,note_on,2,0,3,,,,,,,,,,2,,55,71
4925,note_on,61,0,2,,,,,,,,,,1,,72,0
4928,note_on,3,0,2,,,,,,,,,,1,,71,67
4956,note_on,28,0,2,,,,,,,,,,1,,71,0
4957,note_on,32,0,3,,,,,,,,,,2,,55,0
4982,note_on,113,0,1,,,,,,,,,,0,,74,0
4984,note_on,27,0,3,,,,,,,,,,2,,49,83
4986,note_on,4,0,1,,,,,,,,,,0,,76,74
4987,note_on,31,0,2,,,,,,,,,,1,,70,85
5015,note_on,28,0,2,,,,,,,,,,1,,70,0
5015,note_on,29,0,1,,,,,,,,,,0,,76,0
5019,note_on,35,0,3,,,,,,,,,,2,,49,0
5045,note_on,30,0,2,,,,,,,,,,1,,69,72
5046,note_on,27,0,3,,,,,,,,,,2,,50,70
5047,note_on,32,0,1,,,,,,,,,,0,,77,85
5071,note_on,26,0,2,,,,,,,,,,1,,69,0
5073,note_on,2,0,2,,,,,,,,,,1,,67,69
5085,note_on,39,0,3,,,,,,,,,,2,,50,0
5092,note_on,19,0,2,,,,,,,,,,1,,67,0
5102,note_on,10,0,2,,,,,,,,,,1,,65,85
5106,note_on,21,0,3,,,,,,,,,,2,,45,75
5120,note_on,18,0,2,,,,,,,,,,1,,65,0
5130,note_on,10,0,2,,,,,,,,,,1,,64,90
5137,note_on,31,0,3,,,,,,,,,,2,,45,0
5149,note_on,19,0,2,,,,,,,,,,1,,64,0
5161,note_on,12,0,2,,,,,,,,,,1,,62,85
5165,note_on,28,0,3,,,,,,,,,,2,,41,85
5180,note_on,133,0,1,,,,,,,,,,0,,77,0
5182,note_on,21,0,2,,,,,,,,,,1,,62,0
5194,note_on,29,0,3,,,,,,,,,,2,,41,0
5220,note_on,38,0,2,,,,,,,,,,1,,77,93
5221,note_on,27,0,3,,,,,,,,,,2,,38,76
5223,note_on,43,0,1,,,,,,,,,,0,,81,83
5259,note_on,38,0,3,,,,,,,,,,2,,38,0
5261,note_on,38,0,1,,,,,,,,,,0,,81,0
5276,note_on,56,0,2,,,,,,,,,,1,,77,0
5281,note_on,5,0,2,,,,,,,,,,1,,76,92
5282,note_on,23,0,3,,,,,,,,,,2,,43,85
5285,note_on,24,0,1,,,,,,,,,,0,,82,83
5305,note_on,24,0,2,,,,,,,,,,1,,76,0
5313,note_on,31,0,3,,,,,,,,,,2,,43,0
5317,note_on,32,0,1,,,,,,,,,,0,,82,0
5342,note_on,37,0,2,,,,,,,,,,1,,75,90
5344,note_on,31,0,3,,,,,,,,,,2,,55,63
5349,note_on,32,0,1,,,,,,,,,,0,,79,74
5388,note_on,44,0,3,,,,,,,,,,2,,55,0
5404,note_on,16,0,3,,,,,,,,,,2,,57,78
5406,note_on,64,0,2,,,,,,,,,,1,,75,0
5409,note_on,3,0,2,,,,,,,,,,1,,74,78
5410,note_on,0,0,1,,,,,,,,,,0,,77,88
5410,note_on,61,0,1,,,,,,,,,,0,,79,0
5434,note_on,24,0,1,,,,,,,,,,0,,77,0
5434,note_on,25,0,2,,,,,,,,,,1,,74,0
5437,note_on,33,0,3,,,,,,,,,,2,,57,0
5468,note_on,34,0,1,,,,,,,,,,0,,76,73
5469,note_on,32,0,3,,,,,,,,,,2,,45,81
5471,note_on,37,0,2,,,,,,,,,,1,,73,83
5494,note_on,26,0,1,,,,,,,,,,0,,76,0
5496,note_on,25,0,2,,,,,,,,,,1,,73,0
5504,note_on,35,0,3,,,,,,,,,,2,,45,0
5526,note_on,30,0,2,,,,,,,,,,1,,74,71
5527,note_on,33,0,1,,,,,,,,,,0,,74,64
5528,note_on,24,0,3,,,,,,,,,,2,,50,78
5554,note_on,28,0,2,,,,,,,,,,1,,73,68
5555,note_on,1,0,2,,,,,,,,,,1,,74,0
5570,note_on,15,0,2,,,,,,,,,,1,,73,0
5583,note_on,13,0,2,,,,,,,,,,1,,74,69
5598,note_on,15,0,2,,,,,,,,,,1,,74,0
5611,note_on,13,0,2,,,,,,,,,,1,,76,92
5624,note_on,96,0,3,,,,,,,,,,2,,50,0
5628,note_on,17,0,2,,,,,,,,,,1,,76,0
5641,note_on,13,0,2,,,,,,,,,,1,,74,81
5655,note_on,128,0,1,,,,,,,,,,0,,74,0
5664,note_on,23,0,2,,,,,,,,,,1,,74,0
5703,note_on,79,0,3,,,,,,,,,,2,,50,83
5705,note_on,50,0,1,,,,,,,,,,0,,86,91
5705,note_on,41,0,2,,,,,,,,,,1,,77,95
5750,note_on,45,0,2,,,,,,,,,,1,,77,0
5753,note_on,48,0,1,,,,,,,,,,0,,86,0
5761,note_on,58,0,3,,,,,,,,,,2,,50,0
5764,note_on,14,0,2,,,,,,,,,,1,,76,83
5766,note_on,5,0,3,,,,,,,,,,2,,57,85
5767,note_on,14,0,1,,,,,,,,,,0,,85,93
5790,note_on,26,0,2,,,,,,,,,,1,,76,0
5793,note_on,26,0,1,,,,,,,,,,0,,85,0
5797,note_on,31,0,3,,,,,,,,,,2,,57,0
5825,note_on,32,0,1,,,,,,,,,,0,,84,85
5827,note_on,37,0,2,,,,,,,,,,1,,74,76
5828,note_on,31,0,3,,,,,,,,,,2,,54,75
5881,note_on,53,0,3,,,,,,,,,,2,,54,0
5884,note_on,59,0,1,,,,,,,,,,0,,83,74
5885,note_on,1,0,1,,,,,,,,,,0,,84,0
5887,note_on,6,0,3,,,,,,,,,,2,,55,61
5912,note_on,27,0,1,,,,,,,,,,0,,83,0
5921,note_on,34,0,3,,,,,,,,,,2,,55,0
5923,note_on,96,0,2,,,,,,,,,,1,,74,0
5943,note_on,31,0,1,,,,,,,,,,0,,82,85
5947,note_on,26,0,3,,,,,,,,,,2,,49,75
5949,note_on,26,0,2,,,,,,,,,,1,,76,85
5972,note_on,29,0,1,,,,,,,,,,0,,82,0
5975,note_on,26,0,2,,,,,,,,,,1,,76,0
5986,note_on,39,0,3,,,,,,,,,,2,,49,0
6001,note_on,29,0,1,,,,,,,,,,0,,81,76
6004,note_on,18,0,3,,,,,,,,,,2,,50,71
6006,note_on,31,0,2,,,,,,,,,,1,,77,83
6032,note_on,31,0,1,,,,,,,,,,0,,81,0
6032,note_on,0,0,1,,,,,,,,,,0,,79,91
6037,note_on,33,0,3,,,,,,,,,,2,,50,0
6051,note_on,19,0,1,,,,,,,,,,0,,79,0
6062,note_on,25,0,3,,,,,,,,,,2,,45,68
6063,note_on,12,0,1,,,,,,,,,,0,,77,74
6080,note_on,17,0,1,,,,,,,,,,0,,77,0
6091,note_on,11,0,1,,,,,,,,,,0,,76,83
6094,note_on,32,0,3,,,,,,,,,,2,,45,0
6107,note_on,16,0,1,,,,,,,,,,0,,76,0
6121,note_on,27,0,3,,,,,,,,,,2,,41,75
6123,note_on,16,0,1,,,,,,,,,,0,,74,73
6125,note_on,119,0,2,,,,,,,,,,1,,77,0
6146,note_on,23,0,1,,,,,,,,,,0,,74,0
6153,note_on,32,0,3,,,,,,,,,,2,,41,0
6178,note_on,25,0,3,,,,,,,,,,2,,38,76
6180,note_on,34,0,1,,,,,,,,,,0,,77,90
6181,note_on,56,0,2,,,,,,,,,,1,,81,83
6213,note_on,35,0,3,,,,,,,,,,2,,38,0
6237,note_on,57,0,1,,,,,,,,,,0,,77,0
6240,note_on,59,0,2,,,,,,,,,,1,,81,0
6240,note_on,27,0,3,,,,,,,,,,2,,43,81
6243,note_on,3,0,2,,,,,,,,,,1,,82,76
6244,note_on,7,0,1,,,,,,,,,,0,,76,88
6268,note_on,25,0,2,,,,,,,,,,1,,82,0
6270,note_on,26,0,1,,,,,,,,,,0,,76,0
6272,note_on,32,0,3,,,,,,,,,,2,,43,0
6302,note_on,30,0,3,,,,,,,,,,2,,55,69
6303,note_on,33,0,1,,,,,,,,,,0,,75,85
6306,note_on,38,0,2,,,,,,,,,,1,,79,90
6346,note_on,44,0,3,,,,,,,,,,2,,55,0
6359,note_on,13,0,3,,,,,,,,,,2,,57,85
6361,note_on,55,0,2,,,,,,,,,,1,,79,0
6363,note_on,2,0,2,,,,,,,,,,1,,77,92
6364,note_on,61,0,1,,,,,,,,,,0,,74,69
6365,note_on,1,0,1,,,,,,,,,,0,,75,0
6388,note_on,25,0,2,,,,,,,,,,1,,77,0
6390,note_on,25,0,1,,,,,,,,,,0,,74,0
6391,note_on,32,0,3,,,,,,,,,,2,,57,0
6421,note_on,30,0,3,,,,,,,,,,2,,45,75
6423,note_on,33,0,1,,,,,,,,,,0,,73,74
6424,note_on,36,0,2,,,,,,,,,,1,,76,92
6449,note_on,26,0,1,,,,,,,,,,0,,73,0
6450,note_on,26,0,2,,,,,,,,,,1,,76,0
6452,note_on,31,0,3,,,,,,,,,,2,,45,0
6481,note_on,31,0,2,,,,,,,,,,1,,74,64
6483,note_on,31,0,3,,,,,,,,,,2,,50,72
6484,note_on,35,0,1,,,,,,,,,,0,,74,76
6512,note_on,28,0,1,,,,,,,,,,0,,73,73
6515,note_on,3,0,1,,,,,,,,,,0,,74,0
6531,note_on,16,0,1,,,,,,,,,,0,,73,0
6541,note_on,10,0,1,,,,,,,,,,0,,74,67
6553,note_on,70,0,3,,,,,,,,,,2,,50,0
6561,note_on,20,0,1,,,,,,,,,,0,,74,0
6570,note_on,9,0,1,,,,,,,,,,0,,76,81
6591,note_on,21,0,1,,,,,,,,,,0,,76,0
6601,note_on,10,0,1,,,,,,,,,,0,,74,70
6612,note_on,131,0,2,,,,,,,,,,1,,74,0
6639,note_on,38,0,1,,,,,,,,,,0,,74,0
6660,note_on,48,0,2,,,,,,,,,,1,,81,90
6660,note_on,107,0,3,,,,,,,,,,2,,62,76
6695,note_on,35,0,2,,,,,,,,,,1,,81,0
6697,note_on,37,0,3,,,,,,,,,,2,,62,0
6719,note_on,22,0,3,,,,,,,,,,2,,61,81
6720,marker,6720,1,0,,,,,,,,,,,,,
6722,note_on,27,0,2,,,,,,,,,,1,,81,68
6748,note_on,26,0,2,,,,,,,,,,1,,81,0
6749,note_on,1,0,2,,,,,,,,,,1,,82,75
6758,note_on,39,0,3,,,,,,,,,,2,,61,0
6765,note_on,16,0,2,,,,,,,,,,1,,82,0
6779,note_on,21,0,3,,,,,,,,,,2,,49,67
6780,note_on,15,0,2,,,,,,,,,,1,,81,81
6794,note_on,14,0,2,,,,,,,,,,1,,81,0
6807,set_tempo,87,1,0,,,,,,545455,,,,,,,
6808,note_on,14,0,2,,,,,,,,,,1,,76,81
6820,note_on,41,0,3,,,,,,,,,,2,,49,0
6825,note_on,17,0,2,,,,,,,,,,1,,76,0
6840,note_on,15,0,2,,,,,,,,,,1,,81,93
6841,note_on,21,0,3,,,,,,,,,,2,,49,81
6869,note_on,29,0,2,,,,,,,,,,1,,81,0
6869,note_on,0,0,2,,,,,,,,,,1,,82,71
6878,note_on,37,0,3,,,,,,,,,,2,,49,0
6884,note_on,15,0,2,,,,,,,,,,1,,82,0
6899,note_on,15,0,2,,,,,,,,,,1,,81,78
6900,note_on,22,0,3,,,,,,,,,,2,,61,71
6913,note_on,14,0,2,,,,,,,,,,1,,81,0
6929,note_on,16,0,2,,,,,,,,,,1,,76,83
6936,note_on,36,0,3,,,,,,,,,,2,,61,0
6946,note_on,17,0,2,,,,,,,,,,1,,76,0
6960,note_on,24,0,3,,,,,,,,,,2,,62,76
6963,note_on,324,0,1,,,,,,,,,,0,,86,75
6965,note_on,19,0,2,,,,,,,,,,1,,77,66
6993,note_on,30,0,1,,,,,,,,,,0,,88,75
6996,note_on,36,0,3,,,,,,,,,,2,,62,0
6996,note_on,3,0,1,,,,,,,,,,0,,86,0
7013,note_on,17,0,1,,,,,,,,,,0,,88,0
7021,note_on,8,0,1,,,,,,,,,,0,,86,75
7023,note_on,27,0,3,,,,,,,,,,2,,50,70
7041,note_on,20,0,1,,,,,,,,,,0,,86,0
7050,note_on,9,0,1,,,,,,,,,,0,,81,75
7060,note_on,37,0,3,,,,,,,,,,2,,50,0
7070,note_on,20,0,1,,,,,,,,,,0,,81,0
7081,note_on,11,0,1,,,,,,,,,,0,,86,75
7089,note_on,29,0,3,,,,,,,,,,2,,50,76
7113,note_on,32,0,1,,,,,,,,,,0,,88,75
7113,note_on,148,0,2,,,,,,,,,,1,,77,0
7114,note_on,1,0,1,,,,,,,,,,0,,86,0
7122,note_on,33,0,3,,,,,,,,,,2,,50,0
7135,note_on,21,0,1,,,,,,,,,,0,,88,0
7145,note_on,10,0,1,,,,,,,,,,0,,86,75
7145,note_on,32,0,2,,,,,,,,,,1,,77,93
7148,note_on,26,0,3,,,,,,,,,,2,,62,75
7165,note_on,20,0,1,,,,,,,,,,0,,86,0
7173,note_on,28,0,2,,,,,,,,,,1,,77,0
7175,note_on,10,0,1,,,,,,,,,,0,,81,75
7178,note_on,30,0,3,,,,,,,,,,2,,62,0
7195,note_on,20,0,1,,,,,,,,,,0,,81,0
7206,note_on,33,0,2,,,,,,,,,,1,,79,87
7207,note_on,29,0,3,,,,,,,,,,2,,55,75
7208,note_on,13,0,1,,,,,,,,,,0,,82,83
7235,note_on,29,0,2,,,,,,,,,,1,,79,0
7235,note_on,0,0,2,,,,,,,,,,1,,81,81
7243,note_on,36,0,3,,,,,,,,,,2,,55,0
7254,note_on,19,0,2,,,,,,,,,,1,,81,0
7263,note_on,9,0,2,,,,,,,,,,1,,79,90
7266,note_on,23,0,3,,,,,,,,,,2,,43,75
7277,note_on,14,0,2,,,,,,,,,,1,,79,0
7292,note_on,15,0,2,,,,,,,,,,1,,74,70
7302,note_on,36,0,3,,,,,,,,,,2,,43,0
7308,note_on,16,0,2,,,,,,,,,,1,,74,0
7323,note_on,15,0,2,,,,,,,,,,1,,79,95
7326,note_on,24,0,3,,,,,,,,,,2,,43,81
7350,note_on,142,0,1,,,,,,,,,,0,,82,0
7350,note_on,27,0,2,,,,,,,,,,1,,79,0
7352,note_on,2,0,2,,,,,,,,,,1,,81,76
7360,note_on,34,0,3,,,,,,,,,,2,,43,0
7368,note_on,16,0,2,,,,,,,,,,1,,81,0
7381,note_on,31,0,1,,,,,,,,,,0,,82,81
7382,note_on,14,0,2,,,,,,,,,,1,,79,95
7383,note_on,23,0,3,,,,,,,,,,2,,55,69
7396,note_on,14,0,2,,,,,,,,,,1,,79,0
7412,note_on,16,0,2,,,,,,,,,,1,,74,72
7417,note_on,34,0,3,,,,,,,,,,2,,55,0
7423,note_on,42,0,1,,,,,,,,,,0,,82,0
7434,note_on,22,0,2,,,,,,,,,,1,,74,0
7442,note_on,25,0,3,,,,,,,,,,2,,60,83
7445,note_on,11,0,2,,,,,,,,,,1,,75,76
7446,note_on,23,0,1,,,,,,,,,,0,,84,80
7472,note_on,26,0,1,,,,,,,,,,0,,84,0
7472,note_on,0,0,1,,,,,,,,,,0,,86,78
7477,note_on,35,0,3,,,,,,,,,,2,,60,0
7491,note_on,19,0,1,,,,,,,,,,0,,86,0
7501,note_on,10,0,1,,,,,,,,,,0,,84,87
7502,note_on,25,0,3,,,,,,,,,,2,,48,69
7520,note_on,19,0,1,,,,,,,,,,0,,84,0
7530,note_on,10,0,1,,,,,,,,,,0,,79,88
7538,note_on,36,0,3,,,,,,,,,,2,,48,0
7549,note_on,19,0,1,,,,,,,,,,0,,79,0
7562,note_on,13,0,1,,,,,,,,,,0,,84,78
7565,note_on,27,0,3,,,,,,,,,,2,,48,70
7589,note_on,27,0,1,,,,,,,,,,0,,84,0
7591,note_on,2,0,1,,,,,,,,,,0,,86,72
7594,note_on,149,0,2,,,,,,,,,,1,,75,0
7599,note_on,34,0,3,,,,,,,,,,2,,48,0
7609,note_on,18,0,1,,,,,,,,,,0,,86,0
7621,note_on,12,0,1,,,,,,,,,,0,,84,80
7622,note_on,28,0,2,,,,,,,,,,1,,75,75
7626,note_on,27,0,3,,,,,,,,,,2,,60,92
7640,note_on,19,0,1,,,,,,,,,,0,,84,0
7651,note_on,11,0,1,,,,,,,,,,0,,79,87
7652,note_on,30,0,2,,,,,,,,,,1,,75,0
7660,note_on,34,0,3,,,,,,,,,,2,,60,0
7671,note_on,20,0,1,,,,,,,,,,0,,79,0
7685,note_on,14,0,1,,,,,,,,,,0,,81,81
7685,note_on,33,0,2,,,,,,,,,,1,,77,92
7687,note_on,27,0,3,,,,,,,,,,2,,53,83
7712,note_on,27,0,2,,,,,,,,,,1,,77,0
7713,note_on,1,0,2,,,,,,,,,,1,,79,78
7722,note_on,35,0,3,,,,,,,,,,2,,53,0
7731,note_on,18,0,2,,,,,,,,,,1,,79,0
7743,note_on,12,0,2,,,,,,,,,,1,,77,90
7743,note_on,21,0,3,,,,,,,,,,2,,41,70
7756,note_on,13,0,2,,,,,,,,,,1,,77,0
7771,note_on,15,0,2,,,,,,,,,,1,,72,60
7780,note_on,37,0,3,,,,,,,,,,2,,41,0
7788,note_on,17,0,2,,,,,,,,,,1,,72,0
7802,note_on,22,0,3,,,,,,,,,,2,,41,81
7803,note_on,15,0,2,,,,,,,,,,1,,77,92
7817,note_on,132,0,1,,,,,,,,,,0,,81,0
7831,note_on,28,0,2,,,,,,,,,,1,,77,0
7832,note_on,1,0,2,,,,,,,,,,1,,79,85
7839,note_on,37,0,3,,,,,,,,,,2,,41,0
7849,note_on,17,0,2,,,,,,,,,,1,,79,0
7860,note_on,43,0,1,,,,,,,,,,0,,81,83
7862,note_on,13,0,2,,,,,,,,,,1,,77,83
7863,note_on,24,0,3,,,,,,,,,,2,,53,75
7875,note_on,13,0,2,,,,,,,,,,1,,77,0
7891,note_on,16,0,2,,,,,,,,,,1,,72,72
7896,note_on,36,0,1,,,,,,,,,,0,,81,0
7899,note_on,36,0,3,,,,,,,,,,2,,53,0
7910,note_on,19,0,2,,,,,,,,,,1,,72,0
7923,note_on,13,0,2,,,,,,,,,,1,,74,70
7924,note_on,25,0,3,,,,,,,,,,2,,58,85
7924,note_on,28,0,1,,,,,,,,,,0,,82,74
7953,note_on,29,0,1,,,,,,,,,,0,,84,83
7955,note_on,2,0,1,,,,,,,,,,0,,82,0
7959,note_on,35,0,3,,,,,,,,,,2,,58,0
7971,note_on,16,0,1,,,,,,,,,,0,,84,0
7980,note_on,21,0,3,,,,,,,,,,2,,46,70
7982,note_on,11,0,1,,,,,,,,,,0,,82,74
8002,note_on,20,0,1,,,,,,,,,,0,,82,0
8012,note_on,10,0,1,,,,,,,,,,0,,77,90
8020,note_on,40,0,3,,,,,,,,,,2,,46,0
8032,note_on,20,0,1,,,,,,,,,,0,,77,0
8041,note_on,21,0,3,,,,,,,,,,2,,46,70
8042,note_on,10,0,1,,,,,,,,,,0,,82,79
8058,note_on,135,0,2,,,,,,,,,,1,,74,0
8069,note_on,27,0,1,,,,,,,,,,0,,84,74
8072,note_on,3,0,1,,,,,,,,,,0,,82,0
8079,note_on,38,0,3,,,,,,,,,,2,,46,0
8088,note_on,16,0,1,,,,,,,,,,0,,84,0
8099,note_on,11,0,1,,,,,,,,,,0,,82,83
8102,note_on,44,0,2,,,,,,,,,,1,,74,83
8103,note_on,24,0,3,,,,,,,,,,2,,58,75
8119,note_on,20,0,1,,,,,,,,,,0,,82,0
8121,set_tempo,1314,1,0,,,,,,545455,,,,,,,
8129,note_on,10,0,1,,,,,,,,,,0,,77,81
8139,note_on,37,0,2,,,,,,,,,,1,,74,0
8140,note_on,37,0,3,,,,,,,,,,2,,58,0
8149,note_on,20,0,1,,,,,,,,,,0,,77,0
8162,note_on,23,0,2,,,,,,,,,,1,,72,78
8162,note_on,13,0,1,,,,,,,,,,0,,81,91
8165,note_on,25,0,3,,,,,,,,,,2,,53,83
8190,note_on,28,0,1,,,,,,,,,,0,,82,79
8191,note_on,29,0,2,,,,,,,,,,1,,72,0
8193,note_on,3,0,1,,,,,,,,,,0,,81,0
8194,note_on,3,0,2,,,,,,,,,,1,,74,70
8199,note_on,34,0,3,,,,,,,,,,2,,53,0
8209,note_on,15,0,2,,,,,,,,,,1,,74,0
8213,note_on,20,0,1,,,,,,,,,,0,,82,0
8222,note_on,23,0,3,,,,,,,,,,2,,41,81
8222,note_on,9,0,1,,,,,,,,,,0,,82,83
8223,note_on,14,0,2,,,,,,,,,,1,,74,76
8252,note_on,29,0,2,,,,,,,,,,1,,75,75
8253,note_on,1,0,2,,,,,,,,,,1,,74,0
8254,note_on,32,0,1,,,,,,,,,,0,,84,85
8255,note_on,1,0,1,,,,,,,,,,0,,82,0
8256,note_on,34,0,3,,,,,,,,,,2,,41,0
8269,note_on,16,0,2,,,,,,,,,,1,,75,0
8275,note_on,20,0,1,,,,,,,,,,0,,84,0
8282,note_on,26,0,3,,,,,,,,,,2,,41,78
8282,note_on,13,0,2,,,,,,,,,,1,,75,87
8286,note_on,11,0,1,,,,,,,,,,0,,84,85
8312,note_on,26,0,1,,,,,,,,,,0,,82,73
8313,note_on,1,0,1,,,,,,,,,,0,,84,0
8314,note_on,0,0,2,,,,,,,,,,1,,74,75
8314,note_on,32,0,2,,,,,,,,,,1,,75,0
8317,note_on,35,0,3,,,,,,,,,,2,,41,0
8332,note_on,18,0,2,,,,,,,,,,1,,74,0
8334,note_on,21,0,1,,,,,,,,,,0,,82,0
8342,note_on,25,0,3,,,,,,,,,,2,,53,72
8343,note_on,9,0,1,,,,,,,,,,0,,82,81
8345,note_on,13,0,2,,,,,,,,,,1,,74,78
8372,note_on,29,0,1,,,,,,,,,,0,,82,0
8374,note_on,29,0,2,,,,,,,,,,1,,72,76
8374,note_on,2,0,1,,,,,,,,,,0,,81,83
8375,note_on,1,0,2,,,,,,,,,,1,,74,0
8382,note_on,40,0,3,,,,,,,,,,2,,53,0
8394,note_on,19,0,2,,,,,,,,,,1,,72,0
8396,note_on,22,0,1,,,,,,,,,,0,,81,0
8406,note_on,10,0,1,,,,,,,,,,0,,81,91
8406,note_on,24,0,3,,,,,,,,,,2,,53,75
8407,note_on,13,0,2,,,,,,,,,,1,,72,81
8434,note_on,27,0,2,,,,,,,,,,1,,72,0
8435,note_on,29,0,1,,,,,,,,,,0,,82,79
8435,note_on,1,0,2,,,,,,,,,,1,,74,70
8437,note_on,2,0,1,,,,,,,,,,0,,81,0
8438,note_on,32,0,3,,,,,,,,,,2,,53,0
8453,note_on,18,0,2,,,,,,,,,,1,,74,0
8457,note_on,20,0,1,,,,,,,,,,0,,82,0
8466,note_on,13,0,2,,,,,,,,,,1,,74,83
8467,note_on,29,0,3,,,,,,,,,,2,,41,71
8468,note_on,11,0,1,,,,,,,,,,0,,82,81
8495,note_on,29,0,2,,,,,,,,,,1,,75,66
8496,note_on,1,0,2,,,,,,,,,,1,,74,0
8497,note_on,29,0,1,,,,,,,,,,0,,82,0
8498,note_on,1,0,1,,,,,,,,,,0,,84,81
8501,note_on,34,0,3,,,,,,,,,,2,,41,0
8514,note_on,18,0,2,,,,,,,,,,1,,75,0
8520,note_on,22,0,1,,,,,,,,,,0,,84,0
8526,note_on,12,0,2,,,,,,,,,,1,,75,76
8527,note_on,26,0,3,,,,,,,,,,2,,41,69
8529,note_on,9,0,1,,,,,,,,,,0,,84,70
8555,note_on,29,0,2,,,,,,,,,,1,,75,0
8556,note_on,1,0,2,,,,,,,,,,1,,74,71
8556,note_on,27,0,1,,,,,,,,,,0,,82,79
8557,note_on,1,0,1,,,,,,,,,,0,,84,0
8559,note_on,32,0,3,,,,,,,,,,2,,41,0
8575,note_on,19,0,2,,,,,,,,,,1,,74,0
8578,note_on,21,0,1,,,,,,,,,,0,,82,0
8586,note_on,11,0,2,,,,,,,,,,1,,74,60
8586,note_on,8,0,1,,,,,,,,,,0,,82,64
8587,note_on,28,0,3,,,,,,,,,,2,,53,68
8614,note_on,28,0,2,,,,,,,,,,1,,72,72
8615,note_on,1,0,2,,,,,,,,,,1,,74,0
8617,note_on,31,0,1,,,,,,,,,,0,,82,0
8617,note_on,0,0,1,,,,,,,,,,0,,81,83
8623,note_on,36,0,3,,,,,,,,,,2,,53,0
8636,note_on,21,0,2,,,,,,,,,,1,,72,0
8639,note_on,22,0,1,,,,,,,,,,0,,81,0
8644,note_on,8,0,2,,,,,,,,,,1,,72,75
8646,note_on,7,0,1,,,,,,,,,,0,,81,91
8647,note_on,24,0,3,,,,,,,,,,2,,53,75
8673,note_on,29,0,2,,,,,,,,,,1,,72,0
8677,note_on,31,0,1,,,,,,,,,,0,,81,0
8682,note_on,35,0,3,,,,,,,,,,2,,53,0
8705,note_on,32,0,2,,,,,,,,,,1,,74,72
8705,note_on,28,0,1,,,,,,,,,,0,,82,70
8707,note_on,25,0,3,,,,,,,,,,2,,46,75
8734,note_on,29,0,2,,,,,,,,,,1,,74,0
8736,note_on,31,0,1,,,,,,,,,,0,,82,0
8745,note_on,38,0,3,,,,,,,,,,2,,46,0
8767,note_on,33,0,2,,,,,,,,,,1,,72,78
8768,note_on,32,0,1,,,,,,,,,,0,,82,75
8768,note_on,23,0,3,,,,,,,,,,2,,53,72
8795,note_on,28,0,2,,,,,,,,,,1,,72,0
8797,note_on,29,0,1,,,,,,,,,,0,,82,0
8804,note_on,36,0,3,,,,,,,,,,2,,53,0
8826,note_on,31,0,2,,,,,,,,,,1,,72,85
8826,note_on,29,0,1,,,,,,,,,,0,,81,79
8827,note_on,23,0,3,,,,,,,,,,2,,41,76
8854,note_on,28,0,1,,,,,,,,,,0,,81,0
8856,note_on,30,0,2,,,,,,,,,,1,,72,0
8865,note_on,38,0,3,,,,,,,,,,2,,41,0
8886,note_on,21,0,3,,,,,,,,,,2,,46,76
8888,note_on,32,0,2,,,,,,,,,,1,,70,81
8888,note_on,34,0,1,,,,,,,,,,0,,82,81
8925,note_on,39,0,3,,,,,,,,,,2,,46,0
8949,note_on,24,0,3,,,,,,,,,,2,,48,83
8988,note_on,39,0,3,,,,,,,,,,2,,48,0
9002,set_tempo,881,1,0,,,,,,545455,,,,,,,
9007,note_on,19,0,3,,,,,,,,,,2,,50,75
9019,note_on,131,0,2,,,,,,,,,,1,,70,0
9020,note_on,132,0,1,,,,,,,,,,0,,82,0
9046,note_on,39,0,3,,,,,,,,,,2,,50,0
9063,note_on,17,0,3,,,,,,,,,,2,,46,75
9064,note_on,45,0,2,,,,,,,,,,1,,74,71
9064,note_on,44,0,1,,,,,,,,,,0,,82,83
9102,note_on,39,0,3,,,,,,,,,,2,,46,0
9113,note_on,49,0,1,,,,,,,,,,0,,82,0
9114,note_on,50,0,2,,,,,,,,,,1,,74,0
9124,note_on,10,0,2,,,,,,,,,,1,,72,76
9125,note_on,23,0,3,,,,,,,,,,2,,53,72
9125,note_on,12,0,1,,,,,,,,,,0,,81,90
9151,note_on,26,0,1,,,,,,,,,,0,,81,0
9151,note_on,27,0,2,,,,,,,,,,1,,72,0
9163,note_on,38,0,3,,,,,,,,,,2,,53,0
9181,note_on,30,0,1,,,,,,,,,,0,,81,91
9183,note_on,32,0,2,,,,,,,,,,1,,69,75
9184,note_on,21,0,3,,,,,,,,,,2,,53,76
9225,note_on,41,0,3,,,,,,,,,,2,,53,0
9230,note_on,49,0,1,,,,,,,,,,0,,81,0
9230,note_on,47,0,2,,,,,,,,,,1,,69,0
9241,note_on,11,0,1,,,,,,,,,,0,,79,81
9245,note_on,15,0,2,,,,,,,,,,1,,70,76
9246,note_on,21,0,3,,,,,,,,,,2,,51,76
9267,note_on,26,0,1,,,,,,,,,,0,,79,0
9271,note_on,26,0,2,,,,,,,,,,1,,70,0
9289,note_on,43,0,3,,,,,,,,,,2,,51,0
9303,note_on,32,0,2,,,,,,,,,,1,,72,72
9304,note_on,37,0,1,,,,,,,,,,0,,79,91
9306,note_on,17,0,3,,,,,,,,,,2,,45,90
9329,note_on,26,0,2,,,,,,,,,,1,,72,0
9332,note_on,28,0,1,,,,,,,,,,0,,79,0
9345,note_on,39,0,3,,,,,,,,,,2,,45,0
9364,note_on,35,0,2,,,,,,,,,,1,,74,73
9366,note_on,21,0,3,,,,,,,,,,2,,46,76
9367,note_on,35,0,1,,,,,,,,,,0,,77,73
9394,note_on,0,0,1,,,,,,,,,,0,,75,72
9394,note_on,27,0,1,,,,,,,,,,0,,77,0
9401,note_on,35,0,3,,,,,,,,,,2,,46,0
9414,note_on,20,0,1,,,,,,,,,,0,,75,0
9424,note_on,10,0,1,,,,,,,,,,0,,74,77
9425,note_on,24,0,3,,,,,,,,,,2,,48,76
9442,note_on,18,0,1,,,,,,,,,,0,,74,0
9455,note_on,13,0,1,,,,,,,,,,0,,72,83
9464,note_on,39,0,3,,,,,,,,,,2,,48,0
9474,note_on,19,0,1,,,,,,,,,,0,,72,0
9485,note_on,21,0,3,,,,,,,,,,2,,50,78
9488,note_on,14,0,1,,,,,,,,,,0,,70,83
9493,note_on,129,0,2,,,,,,,,,,1,,74,0
9510,note_on,22,0,1,,,,,,,,,,0,,70,0
9519,note_on,34,0,3,,,,,,,,,,2,,50,0
9541,note_on,22,0,3,,,,,,,,,,2,,46,81
9543,note_on,50,0,2,,,,,,,,,,1,,77,92
9545,note_on,35,0,1,,,,,,,,,,0,,86,86
9574,note_on,33,0,3,,,,,,,,,,2,,46,0
9586,note_on,41,0,1,,,,,,,,,,0,,86,0
9591,note_on,48,0,2,,,,,,,,,,1,,77,0
9602,note_on,11,0,2,,,,,,,,,,1,,79,92
9604,note_on,18,0,1,,,,,,,,,,0,,84,93
9605,note_on,31,0,3,,,,,,,,,,2,,51,93
9629,note_on,27,0,2,,,,,,,,,,1,,79,0
9633,note_on,29,0,1,,,,,,,,,,0,,84,0
9640,note_on,35,0,3,,,,,,,,,,2,,51,0
9662,note_on,33,0,2,,,,,,,,,,1,,79,80
9664,note_on,24,0,3,,,,,,,,,,2,,52,81
9664,note_on,31,0,1,,,,,,,,,,0,,84,83
9709,note_on,45,0,3,,,,,,,,,,2,,52,0
9711,note_on,49,0,2,,,,,,,,,,1,,79,0
9714,note_on,50,0,1,,,,,,,,,,0,,84,0
9722,note_on,11,0,2,,,,,,,,,,1,,74,68
9725,note_on,16,0,3,,,,,,,,,,2,,53,83
9725,note_on,11,0,1,,,,,,,,,,0,,82,81
9748,note_on,26,0,2,,,,,,,,,,1,,74,0
9751,note_on,26,0,1,,,,,,,,,,0,,82,0
9761,note_on,36,0,3,,,,,,,,,,2,,53,0
9783,note_on,35,0,2,,,,,,,,,,1,,72,75
9783,note_on,32,0,1,,,,,,,,,,0,,81,90
9788,note_on,27,0,3,,,,,,,,,,2,,41,85
9810,note_on,27,0,2,,,,,,,,,,1,,72,0
9818,note_on,35,0,1,,,,,,,,,,0,,81,0
9826,note_on,38,0,3,,,,,,,,,,2,,41,0
9840,marker,838,1,0,,,,,,,,,,,,,
9840,note_on,22,0,1,,,,,,,,,,0,,82,85
9842,note_on,32,0,2,,,,,,,,,,1,,70,75
9848,note_on,22,0,3,,,,,,,,,,2,,46,75
9874,note_on,34,0,1,,,,,,,,,,0,,81,83
9876,note_on,2,0,1,,,,,,,,,,0,,82,0
9898,note_on,22,0,1,,,,,,,,,,0,,81,0
9903,note_on,5,0,1,,,,,,,,,,0,,82,81
9922,note_on,19,0,1,,,,,,,,,,0,,82,0
9932,note_on,10,0,1,,,,,,,,,,0,,84,85
9955,note_on,23,0,1,,,,,,,,,,0,,84,0
9963,note_on,8,0,1,,,,,,,,,,0,,82,74
9972,note_on,130,0,2,,,,,,,,,,1,,70,0
9981,note_on,133,0,3,,,,,,,,,,2,,46,0
9996,note_on,33,0,1,,,,,,,,,,0,,82,0
10023,note_on,42,0,3,,,,,,,,,,2,,46,83
10024,note_on,52,0,2,,,,,,,,,,1,,82,87
10024,note_on,28,0,1,,,,,,,,,,0,,86,90
10062,note_on,39,0,3,,,,,,,,,,2,,46,0
10068,note_on,44,0,1,,,,,,,,,,0,,86,0
10070,note_on,46,0,2,,,,,,,,,,1,,82,0
10083,note_on,15,0,1,,,,,,,,,,0,,84,88
10083,note_on,13,0,2,,,,,,,,,,1,,81,81
10085,note_on,23,0,3,,,,,,,,,,2,,53,81
10109,note_on,26,0,2,,,,,,,,,,1,,81,0
10112,note_on,29,0,1,,,,,,,,,,0,,84,0
10117,note_on,32,0,3,,,,,,,,,,2,,53,0
10143,note_on,26,0,3,,,,,,,,,,2,,53,70
10144,note_on,35,0,2,,,,,,,,,,1,,81,83
10146,note_on,34,0,1,,,,,,,,,,0,,81,85
10189,note_on,46,0,3,,,,,,,,,,2,,53,0
10194,note_on,50,0,2,,,,,,,,,,1,,81,0
10199,note_on,53,0,1,,,,,,,,,,0,,81,0
10203,note_on,4,0,1,,,,,,,,,,0,,82,81
10204,note_on,15,0,3,,,,,,,,,,2,,51,81
10205,note_on,11,0,2,,,,,,,,,,1,,79,85
10230,note_on,27,0,1,,,,,,,,,,0,,82,0
10234,note_on,29,0,2,,,,,,,,,,1,,79,0
10240,note_on,36,0,3,,,,,,,,,,2,,51,0
10264,note_on,34,0,1,,,,,,,,,,0,,84,85
10264,note_on,30,0,2,,,,,,,,,,1,,79,76
10265,note_on,25,0,3,,,,,,,,,,2,,45,83
10297,note_on,33,0,1,,,,,,,,,,0,,84,0
10300,note_on,36,0,2,,,,,,,,,,1,,79,0
10301,note_on,36,0,3,,,,,,,,,,2,,45,0
10324,note_on,24,0,2,,,,,,,,,,1,,77,81
10325,note_on,28,0,1,,,,,,,,,,0,,86,83
10326,note_on,25,0,3,,,,,,,,,,2,,46,72
10349,note_on,25,0,2,,,,,,,,,,1,,77,0
10354,note_on,5,0,2,,,,,,,,,,1,,75,72
10361,note_on,35,0,3,,,,,,,,,,2,,46,0
10373,note_on,19,0,2,,,,,,,,,,1,,75,0
10381,note_on,20,0,3,,,,,,,,,,2,,48,81
10382,note_on,9,0,2,,,,,,,,,,1,,74,71
10401,note_on,19,0,2,,,,,,,,,,1,,74,0
10411,note_on,10,0,2,,,,,,,,,,1,,72,72
10417,note_on,36,0,3,,,,,,,,,,2,,48,0
10430,note_on,19,0,2,,,,,,,,,,1,,72,0
10441,note_on,24,0,3,,,,,,,,,,2,,50,72
10442,note_on,12,0,2,,,,,,,,,,1,,70,81
10460,note_on,135,0,1,,,,,,,,,,0,,86,0
10469,note_on,27,0,2,,,,,,,,,,1,,70,0
10477,note_on,36,0,3,,,,,,,,,,2,,50,0
10498,note_on,21,0,3,,,,,,,,,,2,,46,75
10501,note_on,32,0,2,,,,,,,,,,1,,74,72
10502,note_on,42,0,1,,,,,,,,,,0,,77,90
10535,note_on,37,0,3,,,,,,,,,,2,,46,0
10546,note_on,44,0,1,,,,,,,,,,0,,77,0
10548,note_on,47,0,2,,,,,,,,,,1,,74,0
10562,note_on,16,0,1,,,,,,,,,,0,,79,90
10563,note_on,15,0,2,,,,,,,,,,1,,72,76
10563,note_on,28,0,3,,,,,,,,,,2,,51,85
10588,note_on,25,0,2,,,,,,,,,,1,,72,0
10589,note_on,27,0,1,,,,,,,,,,0,,79,0
10596,note_on,33,0,3,,,,,,,,,,2,,51,0
10622,note_on,26,0,3,,,,,,,,,,2,,52,72
10622,note_on,33,0,1,,,,,,,,,,0,,79,93
10625,note_on,37,0,2,,,,,,,,,,1,,72,74
10668,note_on,46,0,3,,,,,,,,,,2,,52,0
10673,note_on,51,0,1,,,,,,,,,,0,,79,0
10674,note_on,49,0,2,,,,,,,,,,1,,72,0
10682,note_on,14,0,3,,,,,,,,,,2,,53,81
10684,note_on,10,0,2,,,,,,,,,,1,,70,72
10685,note_on,12,0,1,,,,,,,,,,0,,74,76
10709,note_on,25,0,2,,,,,,,,,,1,,70,0
10711,note_on,26,0,1,,,,,,,,,,0,,74,0
10716,note_on,34,0,3,,,,,,,,,,2,,53,0
10743,note_on,32,0,1,,,,,,,,,,0,,72,79
10744,note_on,35,0,2,,,,,,,,,,1,,69,78
10746,note_on,30,0,3,,,,,,,,,,2,,41,85
10770,note_on,27,0,1,,,,,,,,,,0,,72,0
10781,note_on,35,0,3,,,,,,,,,,2,,41,0
10783,note_on,39,0,2,,,,,,,,,,1,,69,0
10802,note_on,19,0,2,,,,,,,,,,1,,70,81
10803,note_on,33,0,1,,,,,,,,,,0,,70,83
10805,note_on,24,0,3,,,,,,,,,,2,,46,75
10833,note_on,0,0,2,,,,,,,,,,1,,69,78
10833,note_on,31,0,2,,,,,,,,,,1,,70,0
10854,note_on,21,0,2,,,,,,,,,,1,,69,0
10861,note_on,7,0,2,,,,,,,,,,1,,70,63
10879,note_on,18,0,2,,,,,,,,,,1,,70,0
10888,note_on,9,0,2,,,,,,,,,,1,,72,75
10912,note_on,24,0,2,,,,,,,,,,1,,72,0
10918,note_on,6,0,2,,,,,,,,,,1,,70,75
10936,note_on,131,0,3,,,,,,,,,,2,,46,0
10941,note_on,138,0,1,,,,,,,,,,0,,70,0
10977,note_on,41,0,3,,,,,,,,,,2,,46,70
10977,note_on,36,0,1,,,,,,,,,,0,,77,93
10980,note_on,62,0,2,,,,,,,,,,1,,70,0
11012,note_on,35,0,3,,,,,,,,,,2,,46,0
11027,note_on,50,0,1,,,,,,,,,,0,,77,0
11038,note_on,11,0,1,,,,,,,,,,0,,82,85
11041,note_on,29,0,3,,,,,,,,,,2,,46,75
11079,note_on,41,0,1,,,,,,,,,,0,,82,0
11099,note_on,20,0,1,,,,,,,,,,0,,77,93
11137,note_on,38,0,1,,,,,,,,,,0,,77,0
11160,note_on,23,0,1,,,,,,,,,,0,,74,83
11172,note_on,12,0,1,,,,,,,,,,0,,74,0
11172,note_on,0,0,1,,,,,,,,,,0,,75,69
11185,note_on,13,0,1,,,,,,,,,,0,,75,0
11187,note_on,146,0,3,,,,,,,,,,2,,46,0
11187,note_on,2,0,1,,,,,,,,,,0,,74,66
11197,note_on,10,0,1,,,,,,,,,,0,,75,70
11199,note_on,2,0,1,,,,,,,,,,0,,74,0
11208,note_on,9,0,1,,,,,,,,,,0,,75,0
11210,note_on,2,0,1,,,,,,,,,,0,,74,68
11221,note_on,11,0,1,,,,,,,,,,0,,74,0
11221,note_on,34,0,3,,,,,,,,,,2,,46,76
11223,note_on,2,0,1,,,,,,,,,,0,,72,88
11252,note_on,29,0,1,,,,,,,,,,0,,72,0
11252,note_on,0,0,1,,,,,,,,,,0,,70,83
11260,note_on,39,0,3,,,,,,,,,,2,,46,0
11276,note_on,24,0,1,,,,,,,,,,0,,70,0
11282,note_on,6,0,1,,,,,,,,,,0,,77,102
11283,note_on,303,0,2,,,,,,,,,,1,,77,97
11284,note_on,24,0,3,,,,,,,,,,2,,45,81
11317,note_on,35,0,1,,,,,,,,,,0,,78,47
11319,note_on,36,0,2,,,,,,,,,,1,,77,0
11322,note_on,5,0,1,,,,,,,,,,0,,78,0
11342,note_on,23,0,2,,,,,,,,,,1,,72,90
11379,note_on,37,0,2,,,,,,,,,,1,,72,0
11402,note_on,23,0,2,,,,,,,,,,1,,69,93
11413,note_on,0,0,2,,,,,,,,,,1,,70,76
11413,note_on,11,0,2,,,,,,,,,,1,,69,0
11414,note_on,92,0,1,,,,,,,,,,0,,77,0
11425,note_on,12,0,2,,,,,,,,,,1,,70,0
11425,note_on,141,0,3,,,,,,,,,,2,,45,0
11426,note_on,1,0,2,,,,,,,,,,1,,69,85
11431,note_on,17,0,1,,,,,,,,,,0,,77,91
11436,note_on,10,0,2,,,,,,,,,,1,,70,75
11439,note_on,3,0,2,,,,,,,,,,1,,69,0
11453,note_on,14,0,2,,,,,,,,,,1,,70,0
11453,note_on,0,0,2,,,,,,,,,,1,,69,72
11460,note_on,29,0,1,,,,,,,,,,0,,77,0
11461,note_on,1,0,1,,,,,,,,,,0,,79,90
11461,note_on,36,0,3,,,,,,,,,,2,,53,81
11463,note_on,10,0,2,,,,,,,,,,1,,69,0
11466,note_on,3,0,2,,,,,,,,,,1,,67,92
11486,note_on,25,0,1,,,,,,,,,,0,,79,0
11488,note_on,2,0,1,,,,,,,,,,0,,81,95
11492,note_on,26,0,2,,,,,,,,,,1,,67,0
11493,note_on,1,0,2,,,,,,,,,,1,,65,75
11500,note_on,39,0,3,,,,,,,,,,2,,53,0
11516,note_on,28,0,1,,,,,,,,,,0,,81,0
11520,note_on,0,0,2,,,,,,,,,,1,,70,87
11520,note_on,27,0,2,,,,,,,,,,1,,65,0
11520,note_on,4,0,1,,,,,,,,,,0,,82,91
11521,note_on,21,0,3,,,,,,,,,,2,,50,78
11545,note_on,25,0,1,,,,,,,,,,0,,82,0
11558,note_on,37,0,3,,,,,,,,,,2,,50,0
11580,note_on,35,0,1,,,,,,,,,,0,,77,95
11583,note_on,25,0,3,,,,,,,,,,2,,46,75
11611,note_on,31,0,1,,,,,,,,,,0,,77,0
11620,note_on,100,0,2,,,,,,,,,,1,,70,0
11626,note_on,43,0,3,,,,,,,,,,2,,46,0
11642,note_on,31,0,1,,,,,,,,,,0,,74,81
11654,note_on,12,0,1,,,,,,,,,,0,,75,70
11655,note_on,1,0,1,,,,,,,,,,0,,74,0
11669,note_on,49,0,2,,,,,,,,,,1,,72,78
11669,note_on,14,0,1,,,,,,,,,,0,,75,0
11670,note_on,1,0,1,,,,,,,,,,0,,74,61
11683,note_on,13,0,1,,,,,,,,,,0,,75,68
11685,note_on,2,0,1,,,,,,,,,,0,,74,0
11688,note_on,19,0,2,,,,,,,,,,1,,72,0
11694,note_on,9,0,1,,,,,,,,,,0,,75,0
11695,note_on,1,0,1,,,,,,,,,,0,,74,61
11700,note_on,12,0,2,,,,,,,,,,1,,74,82
11703,note_on,77,0,3,,,,,,,,,,2,,46,71
11706,note_on,11,0,1,,,,,,,,,,0,,74,0
11709,note_on,3,0,1,,,,,,,,,,0,,72,83
11720,note_on,20,0,2,,,,,,,,,,1,,74,0
11730,note_on,10,0,2,,,,,,,,,,1,,75,87
11737,note_on,28,0,1,,,,,,,,,,0,,70,85
11737,note_on,34,0,3,,,,,,,,,,2,,46,0
11738,note_on,1,0,1,,,,,,,,,,0,,72,0
11753,note_on,23,0,2,,,,,,,,,,1,,75,0
11762,note_on,24,0,1,,,,,,,,,,0,,70,0
11764,note_on,27,0,3,,,,,,,,,,2,,45,85
11765,note_on,12,0,2,,,,,,,,,,1,,77,105
11768,note_on,6,0,1,,,,,,,,,,0,,77,97
11797,note_on,32,0,2,,,,,,,,,,1,,77,0
11827,note_on,30,0,2,,,,,,,,,,1,,72,90
11860,note_on,33,0,2,,,,,,,,,,1,,72,0
11881,note_on,21,0,2,,,,,,,,,,1,,69,81
11896,note_on,15,0,2,,,,,,,,,,1,,70,75
11897,note_on,129,0,1,,,,,,,,,,0,,77,0
11897,note_on,1,0,2,,,,,,,,,,1,,69,0
11906,note_on,142,0,3,,,,,,,,,,2,,45,0
11908,note_on,11,0,2,,,,,,,,,,1,,70,0
11909,note_on,1,0,2,,,,,,,,,,1,,69,87
11915,note_on,18,0,1,,,,,,,,,,0,,77,95
11920,note_on,0,0,2,,,,,,,,,,1,,70,81
11920,note_on,11,0,2,,,,,,,,,,1,,69,0
11930,note_on,10,0,2,,,,,,,,,,1,,69,81
11936,note_on,6,0,2,,,,,,,,,,1,,70,0
11940,note_on,25,0,1,,,,,,,,,,0,,77,0
11942,note_on,36,0,3,,,,,,,,,,2,,53,72
11942,note_on,6,0,2,,,,,,,,,,1,,67,90
11943,note_on,1,0,2,,,,,,,,,,1,,69,0
11944,note_on,4,0,1,,,,,,,,,,0,,79,97
11965,note_on,21,0,1,,,,,,,,,,0,,79,0
11972,note_on,29,0,2,,,,,,,,,,1,,65,85
11974,note_on,2,0,2,,,,,,,,,,1,,67,0
11975,note_on,10,0,1,,,,,,,,,,0,,81,95
11979,note_on,37,0,3,,,,,,,,,,2,,53,0
11995,note_on,20,0,1,,,,,,,,,,0,,81,0
12000,note_on,21,0,3,,,,,,,,,,2,,50,78
12001,note_on,27,0,2,,,,,,,,,,1,,65,0
12002,note_on,7,0,1,,,,,,,,,,0,,82,88
12004,note_on,3,0,2,,,,,,,,,,1,,70,87
12031,note_on,29,0,1,,,,,,,,,,0,,77,91
12032,note_on,1,0,1,,,,,,,,,,0,,82,0
12048,note_on,16,0,1,,,,,,,,,,0,,77,0
12059,note_on,11,0,1,,,,,,,,,,0,,82,88
12076,note_on,17,0,1,,,,,,,,,,0,,82,0
12089,note_on,13,0,1,,,,,,,,,,0,,77,98
12089,note_on,85,0,2,,,,,,,,,,1,,70,0
12110,note_on,21,0,1,,,,,,,,,,0,,77,0
12118,note_on,8,0,1,,,,,,,,,,0,,82,81
12124,note_on,124,0,3,,,,,,,,,,2,,50,0
12144,note_on,26,0,1,,,,,,,,,,0,,82,0
12145,note_on,1,0,1,,,,,,,,,,0,,81,91
12165,note_on,20,0,1,,,,,,,,,,0,,81,0
12174,note_on,85,0,2,,,,,,,,,,1,,74,85
12176,note_on,11,0,1,,,,,,,,,,0,,79,95
12178,note_on,54,0,3,,,,,,,,,,2,,46,81
12196,note_on,20,0,1,,,,,,,,,,0,,79,0
12206,note_on,10,0,1,,,,,,,,,,0,,77,91
12209,note_on,31,0,3,,,,,,,,,,2,,46,0
12226,note_on,52,0,2,,,,,,,,,,1,,74,0
12228,note_on,22,0,1,,,,,,,,,,0,,77,0
12237,note_on,11,0,2,,,,,,,,,,1,,75,87
12239,note_on,30,0,3,,,,,,,,,,2,,51,85
12240,note_on,12,0,1,,,,,,,,,,0,,79,95
12266,note_on,29,0,2,,,,,,,,,,1,,75,0
12268,note_on,2,0,2,,,,,,,,,,1,,70,75
12272,note_on,33,0,3,,,,,,,,,,2,,51,0
12283,note_on,15,0,2,,,,,,,,,,1,,70,0
12298,note_on,15,0,2,,,,,,,,,,1,,75,83
12301,note_on,29,0,3,,,,,,,,,,2,,39,81
12312,note_on,14,0,2,,,,,,,,,,1,,75,0
12328,note_on,16,0,2,,,,,,,,,,1,,70,81
12340,note_on,39,0,3,,,,,,,,,,2,,39,0
12345,note_on,17,0,2,,,,,,,,,,1,,70,0
12358,note_on,13,0,2,,,,,,,,,,1,,75,81
12389,note_on,0,0,2,,,,,,,,,,1,,74,71
12389,note_on,31,0,2,,,,,,,,,,1,,75,0
12405,note_on,165,0,1,,,,,,,,,,0,,79,0
12405,note_on,16,0,2,,,,,,,,,,1,,74,0
12419,note_on,14,0,2,,,,,,,,,,1,,72,85
12424,note_on,84,0,3,,,,,,,,,,2,,51,76
12425,note_on,20,0,1,,,,,,,,,,0,,79,95
12436,note_on,17,0,2,,,,,,,,,,1,,72,0
12449,note_on,13,0,2,,,,,,,,,,1,,70,76
12457,note_on,33,0,3,,,,,,,,,,2,,51,0
12463,note_on,38,0,1,,,,,,,,,,0,,79,0
12471,note_on,22,0,2,,,,,,,,,,1,,70,0
12480,note_on,17,0,1,,,,,,,,,,0,,80,89
12482,note_on,25,0,3,,,,,,,,,,2,,56,69
12484,note_on,13,0,2,,,,,,,,,,1,,72,82
12507,note_on,27,0,1,,,,,,,,,,0,,75,63
12512,note_on,5,0,1,,,,,,,,,,0,,80,0
12516,note_on,34,0,3,,,,,,,,,,2,,56,0
12528,note_on,16,0,1,,,,,,,,,,0,,75,0
12538,note_on,10,0,1,,,,,,,,,,0,,80,87
12541,note_on,25,0,3,,,,,,,,,,2,,44,65
12555,note_on,17,0,1,,,,,,,,,,0,,80,0
12567,note_on,12,0,1,,,,,,,,,,0,,75,74
12577,note_on,93,0,2,,,,,,,,,,1,,72,0
12579,note_on,38,0,3,,,,,,,,,,2,,44,0
12590,note_on,23,0,1,,,,,,,,,,0,,75,0
12597,note_on,7,0,1,,,,,,,,,,0,,80,89
12623,note_on,26,0,1,,,,,,,,,,0,,80,0
12626,note_on,3,0,1,,,,,,,,,,0,,79,83
12647,note_on,21,0,1,,,,,,,,,,0,,79,0
12655,note_on,76,0,3,,,,,,,,,,2,,56,76
12657,note_on,10,0,1,,,,,,,,,,0,,77,85
12657,note_on,80,0,2,,,,,,,,,,1,,72,79
12676,note_on,19,0,1,,,,,,,,,,0,,77,0
12686,note_on,10,0,1,,,,,,,,,,0,,75,74
12688,note_on,33,0,3,,,,,,,,,,2,,56,0
12697,note_on,40,0,2,,,,,,,,,,1,,72,0
12706,note_on,20,0,1,,,,,,,,,,0,,75,0
12718,note_on,30,0,3,,,,,,,,,,2,,50,84
12718,note_on,12,0,1,,,,,,,,,,0,,77,85
12719,note_on,22,0,2,,,,,,,,,,1,,74,79
12749,note_on,0,0,2,,,,,,,,,,1,,69,79
12749,note_on,30,0,2,,,,,,,,,,1,,74,0
12752,note_on,34,0,3,,,,,,,,,,2,,50,0
12766,note_on,17,0,2,,,,,,,,,,1,,69,0
12781,note_on,29,0,3,,,,,,,,,,2,,38,69
12782,note_on,16,0,2,,,,,,,,,,1,,74,74
12799,note_on,17,0,2,,,,,,,,,,1,,74,0
12812,note_on,13,0,2,,,,,,,,,,1,,69,87
12817,note_on,36,0,3,,,,,,,,,,2,,38,0
12828,note_on,16,0,2,,,,,,,,,,1,,69,0
12844,note_on,16,0,2,,,,,,,,,,1,,74,69
12872,note_on,28,0,2,,,,,,,,,,1,,69,82
12874,note_on,2,0,2,,,,,,,,,,1,,74,0
12884,note_on,166,0,1,,,,,,,,,,0,,77,0
12891,note_on,17,0,2,,,,,,,,,,1,,69,0
12901,note_on,10,0,2,,,,,,,,,,1,,74,75
12901,note_on,84,0,3,,,,,,,,,,2,,50,70
12902,note_on,18,0,1,,,,,,,,,,0,,77,90
12921,note_on,20,0,2,,,,,,,,,,1,,74,0
12932,note_on,11,0,2,,,,,,,,,,1,,69,90
12934,note_on,33,0,3,,,,,,,,,,2,,50,0
12938,note_on,36,0,1,,,,,,,,,,0,,77,0
12949,note_on,17,0,2,,,,,,,,,,1,,69,0
12958,note_on,20,0,1,,,,,,,,,,0,,79,90
12959,note_on,25,0,3,,,,,,,,,,2,,55,63
12964,note_on,15,0,2,,,,,,,,,,1,,71,78
12990,note_on,0,0,1,,,,,,,,,,0,,74,67
12990,note_on,32,0,1,,,,,,,,,,0,,79,0
12995,note_on,36,0,3,,,,,,,,,,2,,55,0
13012,note_on,22,0,1,,,,,,,,,,0,,74,0
13022,note_on,10,0,1,,,,,,,,,,0,,79,91
13022,note_on,27,0,3,,,,,,,,,,2,,43,72
13041,note_on,19,0,1,,,,,,,,,,0,,79,0
13044,note_on,80,0,2,,,,,,,,,,1,,71,0
13052,note_on,11,0,1,,,,,,,,,,0,,74,74
13059,note_on,37,0,3,,,,,,,,,,2,,43,0
13072,note_on,20,0,1,,,,,,,,,,0,,74,0
13082,note_on,10,0,1,,,,,,,,,,0,,79,90
13108,note_on,26,0,1,,,,,,,,,,0,,79,0
13109,note_on,1,0,1,,,,,,,,,,0,,77,88
13131,note_on,22,0,1,,,,,,,,,,0,,77,0
13137,note_on,78,0,3,,,,,,,,,,2,,55,72
13139,note_on,8,0,1,,,,,,,,,,0,,75,79
13142,note_on,98,0,2,,,,,,,,,,1,,71,83
13159,note_on,20,0,1,,,,,,,,,,0,,75,0
13167,note_on,30,0,3,,,,,,,,,,2,,55,0
13168,note_on,9,0,1,,,,,,,,,,0,,74,70
13187,note_on,45,0,2,,,,,,,,,,1,,71,0
13191,note_on,23,0,1,,,,,,,,,,0,,74,0
13198,note_on,11,0,2,,,,,,,,,,1,,72,83
13199,note_on,8,0,1,,,,,,,,,,0,,75,83
13199,note_on,32,0,3,,,,,,,,,,2,,48,85
13200,set_tempo,3360,1,0,,,,,,545455,,,,,,,
13204,set_tempo,4,1,0,,,,,,550459,,,,,,,
13229,note_on,30,0,1,,,,,,,,,,0,,77,95
13229,note_on,31,0,2,,,,,,,,,,1,,72,0
13229,note_on,0,0,2,,,,,,,,,,1,,74,83
13231,note_on,2,0,1,,,,,,,,,,0,,75,0
13234,note_on,35,0,3,,,,,,,,,,2,,48,0
13247,note_on,18,0,2,,,,,,,,,,1,,74,0
13253,note_on,22,0,1,,,,,,,,,,0,,77,0
13259,note_on,12,0,2,,,,,,,,,,1,,74,72
13260,note_on,7,0,1,,,,,,,,,,0,,77,83
13260,note_on,26,0,3,,,,,,,,,,2,,36,57
13289,note_on,0,0,2,,,,,,,,,,1,,75,87
13289,note_on,30,0,2,,,,,,,,,,1,,74,0
13290,note_on,30,0,1,,,,,,,,,,0,,77,0
13291,note_on,1,0,1,,,,,,,,,,0,,79,91
13296,note_on,36,0,3,,,,,,,,,,2,,36,0
13309,note_on,20,0,2,,,,,,,,,,1,,75,0
13314,note_on,23,0,1,,,,,,,,,,0,,79,0
13322,note_on,8,0,1,,,,,,,,,,0,,79,88
13322,note_on,13,0,2,,,,,,,,,,1,,75,85
13347,note_on,25,0,1,,,,,,,,,,0,,79,0
13349,note_on,27,0,2,,,,,,,,,,1,,75,0
13350,note_on,1,0,2,,,,,,,,,,1,,74,76
13351,note_on,4,0,1,,,,,,,,,,0,,77,90
13366,note_on,16,0,2,,,,,,,,,,1,,74,0
13373,note_on,22,0,1,,,,,,,,,,0,,77,0
13377,note_on,81,0,3,,,,,,,,,,2,,48,72
13378,note_on,12,0,2,,,,,,,,,,1,,74,76
13381,note_on,8,0,1,,,,,,,,,,0,,77,76
13408,note_on,30,0,2,,,,,,,,,,1,,74,0
13409,note_on,1,0,2,,,,,,,,,,1,,72,90
13410,note_on,29,0,1,,,,,,,,,,0,,77,0
13410,note_on,0,0,1,,,,,,,,,,0,,75,73
13411,note_on,34,0,3,,,,,,,,,,2,,48,0
13425,note_on,16,0,2,,,,,,,,,,1,,72,0
13432,note_on,22,0,1,,,,,,,,,,0,,75,0
13439,note_on,28,0,3,,,,,,,,,,2,,48,71
13439,note_on,14,0,2,,,,,,,,,,1,,72,78
13440,note_on,8,0,1,,,,,,,,,,0,,75,72
13465,note_on,25,0,1,,,,,,,,,,0,,75,0
13467,note_on,2,0,1,,,,,,,,,,0,,77,82
13469,note_on,30,0,2,,,,,,,,,,1,,72,0
13469,note_on,0,0,2,,,,,,,,,,1,,74,73
13472,note_on,33,0,3,,,,,,,,,,2,,48,0
13485,note_on,16,0,2,,,,,,,,,,1,,74,0
13490,note_on,23,0,1,,,,,,,,,,0,,77,0
13497,note_on,7,0,1,,,,,,,,,,0,,77,71
13499,note_on,14,0,2,,,,,,,,,,1,,74,76
13500,note_on,28,0,3,,,,,,,,,,2,,36,57
13524,note_on,27,0,1,,,,,,,,,,0,,77,0
13526,note_on,2,0,1,,,,,,,,,,0,,79,80
13528,note_on,29,0,2,,,,,,,,,,1,,75,78
13529,note_on,1,0,2,,,,,,,,,,1,,74,0
13542,note_on,42,0,3,,,,,,,,,,2,,36,0
13545,note_on,16,0,2,,,,,,,,,,1,,75,0
13550,note_on,24,0,1,,,,,,,,,,0,,79,0
13558,note_on,8,0,1,,,,,,,,,,0,,79,83
13559,note_on,14,0,2,,,,,,,,,,1,,75,78
13584,note_on,26,0,1,,,,,,,,,,0,,79,0
13588,note_on,29,0,2,,,,,,,,,,1,,75,0
13588,note_on,4,0,1,,,,,,,,,,0,,77,80
13588,note_on,0,0,2,,,,,,,,,,1,,74,67
13605,note_on,17,0,2,,,,,,,,,,1,,74,0
13611,note_on,23,0,1,,,,,,,,,,0,,77,0
13616,note_on,74,0,3,,,,,,,,,,2,,48,64
13618,note_on,7,0,1,,,,,,,,,,0,,77,78
13619,note_on,14,0,2,,,,,,,,,,1,,74,82
13646,note_on,28,0,1,,,,,,,,,,0,,77,0
13647,note_on,28,0,2,,,,,,,,,,1,,74,0
13648,note_on,2,0,1,,,,,,,,,,0,,75,69
13649,note_on,2,0,2,,,,,,,,,,1,,72,82
13651,note_on,35,0,3,,,,,,,,,,2,,48,0
13661,set_tempo,457,1,0,,,,,,545455,,,,,,,
13670,note_on,21,0,2,,,,,,,,,,1,,72,0
13671,note_on,23,0,1,,,,,,,,,,0,,75,0
13673,set_tempo,12,1,0,,,,,,545455,,,,,,,
13679,note_on,9,0,2,,,,,,,,,,1,,72,87
13679,note_on,8,0,1,,,,,,,,,,0,,75,73
13680,note_on,29,0,3,,,,,,,,,,2,,48,72
13714,note_on,35,0,1,,,,,,,,,,0,,75,0
13714,note_on,34,0,3,,,,,,,,,,2,,48,0
13720,note_on,41,0,2,,,,,,,,,,1,,72,0
13740,note_on,26,0,1,,,,,,,,,,0,,84,90
13741,note_on,21,0,2,,,,,,,,,,1,,75,85
13741,note_on,27,0,3,,,,,,,,,,2,,60,90
13775,note_on,34,0,3,,,,,,,,,,2,,60,0
13781,note_on,41,0,1,,,,,,,,,,0,,84,0
13785,note_on,44,0,2,,,,,,,,,,1,,75,0
13800,note_on,25,0,3,,,,,,,,,,2,,55,72
13802,note_on,21,0,1,,,,,,,,,,0,,84,90
13803,note_on,18,0,2,,,,,,,,,,1,,74,90
13830,note_on,30,0,3,,,,,,,,,,2,,55,0
13842,note_on,39,0,2,,,,,,,,,,1,,74,0
13843,note_on,41,0,1,,,,,,,,,,0,,84,0
13861,note_on,18,0,1,,,,,,,,,,0,,83,73
13862,note_on,20,0,2,,,,,,,,,,1,,74,87
13865,note_on,35,0,3,,,,,,,,,,2,,43,81
13894,note_on,29,0,3,,,,,,,,,,2,,43,0
13900,note_on,39,0,1,,,,,,,,,,0,,83,0
13904,note_on,42,0,2,,,,,,,,,,1,,74,0
13920,marker,247,1,0,,,,,,,,,,,,,
13924,note_on,20,0,2,,,,,,,,,,1,,72,85
13924,note_on,30,0,3,,,,,,,,,,2,,48,81
13925,note_on,25,0,1,,,,,,,,,,0,,84,88
13958,note_on,34,0,3,,,,,,,,,,2,,48,0
13985,note_on,27,0,3,,,,,,,,,,2,,50,81
14015,note_on,90,0,1,,,,,,,,,,0,,84,0
14019,note_on,34,0,3,,,,,,,,,,2,,50,0
14020,note_on,96,0,2,,,,,,,,,,1,,72,0
14046,note_on,27,0,3,,,,,,,,,,2,,51,92
14080,note_on,34,0,3,,,,,,,,,,2,,51,0
14104,note_on,89,0,1,,,,,,,,,,0,,75,83
14105,note_on,25,0,3,,,,,,,,,,2,,48,80
14105,note_on,85,0,2,,,,,,,,,,1,,84,79
14140,note_on,35,0,3,,,,,,,,,,2,,48,0
14154,note_on,50,0,1,,,,,,,,,,0,,75,0
14160,note_on,55,0,2,,,,,,,,,,1,,84,0
14163,note_on,3,0,2,,,,,,,,,,1,,83,82
14166,note_on,12,0,1,,,,,,,,,,0,,74,81
14170,note_on,30,0,3,,,,,,,,,,2,,55,90
14190,note_on,27,0,2,,,,,,,,,,1,,83,0
14193,note_on,27,0,1,,,,,,,,,,0,,74,0
14206,note_on,36,0,3,,,,,,,,,,2,,55,0
14222,note_on,32,0,2,,,,,,,,,,1,,82,84
14226,note_on,33,0,1,,,,,,,,,,0,,72,78
14229,note_on,23,0,3,,,,,,,,,,2,,52,83
14281,note_on,59,0,2,,,,,,,,,,1,,82,0
14284,note_on,3,0,2,,,,,,,,,,1,,81,84
14290,note_on,0,0,3,,,,,,,,,,2,,53,92
14290,note_on,61,0,3,,,,,,,,,,2,,52,0
14310,note_on,26,0,2,,,,,,,,,,1,,81,0
14320,note_on,30,0,3,,,,,,,,,,2,,53,0
14341,note_on,115,0,1,,,,,,,,,,0,,72,0
14347,note_on,37,0,2,,,,,,,,,,1,,80,97
14348,note_on,28,0,3,,,,,,,,,,2,,47,87
14352,note_on,11,0,1,,,,,,,,,,0,,74,85
14380,note_on,33,0,2,,,,,,,,,,1,,80,0
14382,note_on,34,0,3,,,,,,,,,,2,,47,0
14383,note_on,31,0,1,,,,,,,,,,0,,74,0
14405,note_on,23,0,3,,,,,,,,,,2,,48,90
14406,note_on,26,0,2,,,,,,,,,,1,,79,91
14410,note_on,27,0,1,,,,,,,,,,0,,75,83
14433,note_on,0,0,2,,,,,,,,,,1,,77,88
14433,note_on,27,0,2,,,,,,,,,,1,,79,0
14440,note_on,35,0,3,,,,,,,,,,2,,48,0
14452,note_on,19,0,2,,,,,,,,,,1,,77,0
14461,note_on,9,0,2,,,,,,,,,,1,,75,76
14466,note_on,26,0,3,,,,,,,,,,2,,50,93
14482,note_on,21,0,2,,,,,,,,,,1,,75,0
14491,note_on,9,0,2,,,,,,,,,,1,,74,67
14502,note_on,36,0,3,,,,,,,,,,2,,50,0
14512,note_on,21,0,2,,,,,,,,,,1,,74,0
14523,note_on,11,0,2,,,,,,,,,,1,,72,82
14527,note_on,25,0,3,,,,,,,,,,2,,51,87
14543,note_on,133,0,1,,,,,,,,,,0,,75,0
14550,note_on,27,0,2,,,,,,,,,,1,,72,0
14558,note_on,31,0,3,,,,,,,,,,2,,51,0
14581,note_on,31,0,2,,,,,,,,,,1,,75,84
14584,note_on,41,0,1,,,,,,,,,,0,,79,93
14585,note_on,27,0,3,,,,,,,,,,2,,48,87
14620,note_on,35,0,3,,,,,,,,,,2,,48,0
14635,note_on,51,0,1,,,,,,,,,,0,,79,0
14639,note_on,58,0,2,,,,,,,,,,1,,75,0
14642,note_on,7,0,1,,,,,,,,,,0,,80,88
14642,note_on,3,0,2,,,,,,,,,,1,,74,73
14648,note_on,28,0,3,,,,,,,,,,2,,41,92
14667,note_on,25,0,2,,,,,,,,,,1,,74,0
14668,note_on,26,0,1,,,,,,,,,,0,,80,0
14684,note_on,36,0,3,,,,,,,,,,2,,41,0
14703,note_on,36,0,2,,,,,,,,,,1,,73,84
14704,note_on,36,0,1,,,,,,,,,,0,,77,97
14708,note_on,24,0,3,,,,,,,,,,2,,53,93
14753,note_on,45,0,3,,,,,,,,,,2,,53,0
14762,note_on,58,0,1,,,,,,,,,,0,,77,0
14765,note_on,3,0,1,,,,,,,,,,0,,75,85
14765,note_on,62,0,2,,,,,,,,,,1,,73,0
14766,note_on,1,0,2,,,,,,,,,,1,,72,73
14768,note_on,15,0,3,,,,,,,,,,2,,55,78
14790,note_on,25,0,1,,,,,,,,,,0,,75,0
14791,note_on,25,0,2,,,,,,,,,,1,,72,0
14801,note_on,33,0,3,,,,,,,,,,2,,55,0
14825,note_on,35,0,1,,,,,,,,,,0,,74,69
14828,note_on,37,0,2,,,,,,,,,,1,,71,72
14829,note_on,28,0,3,,,,,,,,,,2,,43,85
14853,note_on,28,0,1,,,,,,,,,,0,,74,0
14857,note_on,29,0,2,,,,,,,,,,1,,71,0
14864,note_on,35,0,3,,,,,,,,,,2,,43,0
14882,note_on,25,0,2,,,,,,,,,,1,,72,82
14884,note_on,31,0,1,,,,,,,,,,0,,72,76
14887,note_on,23,0,3,,,,,,,,,,2,,48,85
14910,note_on,28,0,2,,,,,,,,,,1,,71,62
14912,note_on,2,0,2,,,,,,,,,,1,,72,0
14933,note_on,21,0,2,,,,,,,,,,1,,71,0
14940,note_on,7,0,2,,,,,,,,,,1,,72,68
14962,note_on,22,0,2,,,,,,,,,,1,,72,0
14968,note_on,6,0,2,,,,,,,,,,1,,74,69
14991,note_on,23,0,2,,,,,,,,,,1,,74,0
14998,note_on,7,0,2,,,,,,,,,,1,,72,76
15011,note_on,124,0,3,,,,,,,,,,2,,48,0
15021,note_on,137,0,1,,,,,,,,,,0,,72,0
15028,note_on,30,0,2,,,,,,,,,,1,,72,0
15056,note_on,28,0,2,,,,,,,,,,1,,75,77
15060,note_on,39,0,1,,,,,,,,,,0,,84,95
15062,note_on,51,0,3,,,,,,,,,,2,,48,90
15096,note_on,34,0,3,,,,,,,,,,2,,48,0
15115,note_on,55,0,1,,,,,,,,,,0,,84,0
15117,note_on,61,0,2,,,,,,,,,,1,,75,0
15122,note_on,26,0,3,,,,,,,,,,2,,55,85
15123,note_on,6,0,2,,,,,,,,,,1,,74,70
15123,note_on,8,0,1,,,,,,,,,,0,,83,83
15149,note_on,26,0,2,,,,,,,,,,1,,74,0
15149,note_on,26,0,1,,,,,,,,,,0,,83,0
15156,note_on,34,0,3,,,,,,,,,,2,,55,0
15182,note_on,26,0,3,,,,,,,,,,2,,52,87
15184,note_on,35,0,1,,,,,,,,,,0,,82,88
15185,note_on,36,0,2,,,,,,,,,,1,,72,77
15239,note_on,57,0,3,,,,,,,,,,2,,52,0
15240,note_on,56,0,1,,,,,,,,,,0,,82,0
15243,note_on,3,0,1,,,,,,,,,,0,,81,83
15246,note_on,7,0,3,,,,,,,,,,2,,53,81
15268,note_on,25,0,1,,,,,,,,,,0,,81,0
15276,note_on,30,0,3,,,,,,,,,,2,,53,0
15281,note_on,96,0,2,,,,,,,,,,1,,72,0
15304,note_on,28,0,3,,,,,,,,,,2,,47,85
15305,note_on,24,0,2,,,,,,,,,,1,,74,79
15305,note_on,37,0,1,,,,,,,,,,0,,80,97
15331,note_on,26,0,2,,,,,,,,,,1,,74,0
15331,note_on,26,0,1,,,,,,,,,,0,,80,0
15339,note_on,35,0,3,,,,,,,,,,2,,47,0
15362,note_on,23,0,3,,,,,,,,,,2,,48,81
15363,note_on,32,0,2,,,,,,,,,,1,,75,76
15368,note_on,37,0,1,,,,,,,,,,0,,79,95
15395,note_on,27,0,1,,,,,,,,,,0,,79,0
15396,note_on,1,0,1,,,,,,,,,,0,,77,81
15397,note_on,35,0,3,,,,,,,,,,2,,48,0
15416,note_on,20,0,1,,,,,,,,,,0,,77,0
15423,note_on,26,0,3,,,,,,,,,,2,,50,81
15425,note_on,9,0,1,,,,,,,,,,0,,75,74
15444,note_on,19,0,1,,,,,,,,,,0,,75,0
15456,note_on,12,0,1,,,,,,,,,,0,,74,76
15459,note_on,36,0,3,,,,,,,,,,2,,50,0
15477,note_on,21,0,1,,,,,,,,,,0,,74,0
15486,note_on,9,0,1,,,,,,,,,,0,,72,83
15487,note_on,28,0,3,,,,,,,,,,2,,51,90
15507,note_on,144,0,2,,,,,,,,,,1,,75,0
15514,note_on,28,0,1,,,,,,,,,,0,,72,0
15521,note_on,34,0,3,,,,,,,,,,2,,51,0
15544,note_on,37,0,2,,,,,,,,,,1,,79,88
15549,note_on,28,0,3,,,,,,,,,,2,,48,83
15549,note_on,35,0,1,,,,,,,,,,0,,75,79
15584,note_on,35,0,3,,,,,,,,,,2,,48,0
15604,note_on,55,0,1,,,,,,,,,,0,,75,0
15604,note_on,60,0,2,,,,,,,,,,1,,79,0
15607,note_on,3,0,2,,,,,,,,,,1,,80,72
15610,note_on,6,0,1,,,,,,,,,,0,,74,76
15610,note_on,26,0,3,,,,,,,,,,2,,41,87
15632,note_on,25,0,2,,,,,,,,,,1,,80,0
15636,note_on,26,0,1,,,,,,,,,,0,,74,0
15645,note_on,35,0,3,,,,,,,,,,2,,41,0
15668,note_on,32,0,1,,,,,,,,,,0,,73,88
15668,note_on,36,0,2,,,,,,,,,,1,,77,79
15670,note_on,25,0,3,,,,,,,,,,2,,53,83
15718,note_on,50,0,1,,,,,,,,,,0,,73,0
15723,note_on,53,0,3,,,,,,,,,,2,,53,0
15727,note_on,59,0,2,,,,,,,,,,1,,77,0
15729,note_on,2,0,2,,,,,,,,,,1,,75,67
15729,note_on,11,0,1,,,,,,,,,,0,,72,76
15731,note_on,8,0,3,,,,,,,,,,2,,55,75
15754,note_on,25,0,1,,,,,,,,,,0,,72,0
15755,note_on,26,0,2,,,,,,,,,,1,,75,0
15763,note_on,32,0,3,,,,,,,,,,2,,55,0
15787,note_on,33,0,1,,,,,,,,,,0,,71,76
15787,note_on,24,0,3,,,,,,,,,,2,,43,87
15790,note_on,35,0,2,,,,,,,,,,1,,74,68
15812,note_on,25,0,1,,,,,,,,,,0,,71,0
15817,note_on,27,0,2,,,,,,,,,,1,,74,0
15821,note_on,34,0,3,,,,,,,,,,2,,43,0
15843,note_on,31,0,1,,,,,,,,,,0,,72,81
15845,note_on,24,0,3,,,,,,,,,,2,,48,85
15846,note_on,29,0,2,,,,,,,,,,1,,72,71
15869,note_on,26,0,1,,,,,,,,,,0,,71,65
15871,note_on,2,0,1,,,,,,,,,,0,,72,0
15891,note_on,20,0,1,,,,,,,,,,0,,71,0
15900,note_on,9,0,1,,,,,,,,,,0,,72,83
15922,note_on,22,0,1,,,,,,,,,,0,,72,0
15931,note_on,9,0,1,,,,,,,,,,0,,74,73
15954,note_on,23,0,1,,,,,,,,,,0,,74,0
15962,note_on,8,0,1,,,,,,,,,,0,,72,79
15965,note_on,119,0,2,,,,,,,,,,1,,72,0
15971,note_on,126,0,3,,,,,,,,,,2,,48,0
15992,note_on,30,0,1,,,,,,,,,,0,,72,0
16017,note_on,52,0,2,,,,,,,,,,1,,75,69
16020,note_on,49,0,3,,,,,,,,,,2,,48,90
16021,note_on,29,0,1,,,,,,,,,,0,,79,97
16055,note_on,35,0,3,,,,,,,,,,2,,48,0
16055,note_on,34,0,1,,,,,,,,,,0,,79,0
16062,note_on,45,0,2,,,,,,,,,,1,,75,0
16079,note_on,24,0,3,,,,,,,,,,2,,48,87
16080,note_on,18,0,2,,,,,,,,,,1,,75,73
16080,note_on,25,0,1,,,,,,,,,,0,,79,93
16126,note_on,47,0,3,,,,,,,,,,2,,48,0
16138,note_on,12,0,3,,,,,,,,,,2,,55,71
16139,note_on,0,0,2,,,,,,,,,,1,,74,70
16139,note_on,59,0,2,,,,,,,,,,1,,75,0
16139,note_on,59,0,1,,,,,,,,,,0,,79,0
16141,note_on,2,0,1,,,,,,,,,,0,,77,95
16170,note_on,29,0,1,,,,,,,,,,0,,77,0
16173,note_on,34,0,2,,,,,,,,,,1,,74,0
16178,note_on,40,0,3,,,,,,,,,,2,,55,0
16199,note_on,26,0,2,,,,,,,,,,1,,74,73
16201,note_on,31,0,1,,,,,,,,,,0,,77,91
16201,note_on,23,0,3,,,,,,,,,,2,,55,72
16242,note_on,41,0,3,,,,,,,,,,2,,55,0
16258,note_on,59,0,2,,,,,,,,,,1,,74,0
16259,note_on,58,0,1,,,,,,,,,,0,,77,0
16261,note_on,3,0,2,,,,,,,,,,1,,72,72
16263,note_on,4,0,1,,,,,,,,,,0,,75,81
16263,note_on,21,0,3,,,,,,,,,,2,,48,76
16294,note_on,31,0,1,,,,,,,,,,0,,75,0
16297,note_on,36,0,2,,,,,,,,,,1,,72,0
16299,note_on,36,0,3,,,,,,,,,,2,,48,0
16321,note_on,24,0,2,,,,,,,,,,1,,72,63
16322,note_on,28,0,1,,,,,,,,,,0,,75,81
16324,note_on,25,0,3,,,,,,,,,,2,,48,81
16364,note_on,40,0,3,,,,,,,,,,2,,48,0
16381,note_on,60,0,2,,,,,,,,,,1,,71,71
16382,note_on,1,0,2,,,,,,,,,,1,,72,0
16383,note_on,61,0,1,,,,,,,,,,0,,75,0
16384,note_on,20,0,3,,,,,,,,,,2,,55,71
16385,note_on,2,0,1,,,,,,,,,,0,,74,73
16416,note_on,31,0,1,,,,,,,,,,0,,74,0
16421,note_on,39,0,2,,,,,,,,,,1,,71,0
16423,note_on,39,0,3,,,,,,,,,,2,,55,0
16443,note_on,22,0,2,,,,,,,,,,1,,71,67
16445,note_on,22,0,3,,,,,,,,,,2,,55,75
16446,note_on,30,0,1,,,,,,,,,,0,,74,74
16488,note_on,43,0,3,,,,,,,,,,2,,55,0
16489,note_on,46,0,2,,,,,,,,,,1,,71,0
16490,note_on,44,0,1,,,,,,,,,,0,,74,0
16503,note_on,14,0,2,,,,,,,,,,1,,75,60
16507,note_on,17,0,1,,,,,,,,,,0,,79,79
16510,note_on,22,0,3,,,,,,,,,,2,,48,72
16546,note_on,39,0,1,,,,,,,,,,0,,79,0
16548,note_on,38,0,3,,,,,,,,,,2,,48,0
16551,note_on,48,0,2,,,,,,,,,,1,,75,0
16567,note_on,16,0,2,,,,,,,,,,1,,75,72
16569,note_on,21,0,3,,,,,,,,,,2,,48,72
16570,note_on,24,0,1,,,,,,,,,,0,,79,82
16612,note_on,43,0,3,,,,,,,,,,2,,48,0
16622,note_on,52,0,1,,,,,,,,,,0,,79,0
16627,note_on,60,0,2,,,,,,,,,,1,,75,0
16628,note_on,16,0,3,,,,,,,,,,2,,55,60
16629,note_on,2,0,2,,,,,,,,,,1,,74,62
16629,note_on,7,0,1,,,,,,,,,,0,,77,82
16657,note_on,28,0,2,,,,,,,,,,1,,74,0
16657,note_on,28,0,1,,,,,,,,,,0,,77,0
16667,note_on,39,0,3,,,,,,,,,,2,,55,0
16684,note_on,27,0,1,,,,,,,,,,0,,77,79
16688,note_on,31,0,2,,,,,,,,,,1,,74,60
16691,note_on,24,0,3,,,,,,,,,,2,,55,68
16729,note_on,38,0,3,,,,,,,,,,2,,55,0
16741,note_on,53,0,2,,,,,,,,,,1,,74,0
16743,note_on,2,0,2,,,,,,,,,,1,,72,61
16744,note_on,60,0,1,,,,,,,,,,0,,77,0
16746,note_on,2,0,1,,,,,,,,,,0,,75,76
16748,note_on,19,0,3,,,,,,,,,,2,,48,66
16772,note_on,29,0,2,,,,,,,,,,1,,72,0
16775,note_on,29,0,1,,,,,,,,,,0,,75,0
16787,note_on,39,0,3,,,,,,,,,,2,,48,0
16802,note_on,30,0,2,,,,,,,,,,1,,72,60
16804,note_on,17,0,3,,,,,,,,,,2,,48,73
16806,note_on,31,0,1,,,,,,,,,,0,,75,74
16851,note_on,47,0,3,,,,,,,,,,2,,48,0
16859,note_on,57,0,2,,,,,,,,,,1,,72,0
16861,note_on,2,0,2,,,,,,,,,,1,,71,57
16862,note_on,56,0,1,,,,,,,,,,0,,75,0
16863,note_on,12,0,3,,,,,,,,,,2,,55,66
16865,note_on,3,0,1,,,,,,,,,,0,,74,64
16889,note_on,28,0,2,,,,,,,,,,1,,71,0
16892,note_on,27,0,1,,,,,,,,,,0,,74,0
16901,note_on,38,0,3,,,,,,,,,,2,,55,0
16921,note_on,32,0,2,,,,,,,,,,1,,71,57
16923,note_on,31,0,1,,,,,,,,,,0,,74,68
16924,note_on,23,0,3,,,,,,,,,,2,,55,62
16954,note_on,31,0,1,,,,,,,,,,0,,74,0
16960,note_on,36,0,3,,,,,,,,,,2,,55,0
16982,note_on,28,0,1,,,,,,,,,,0,,83,83
16982,note_on,61,0,2,,,,,,,,,,1,,71,0
16985,note_on,25,0,3,,,,,,,,,,2,,53,87
17019,note_on,34,0,3,,,,,,,,,,2,,53,0
17030,note_on,48,0,1,,,,,,,,,,0,,83,0
17044,note_on,25,0,3,,,,,,,,,,2,,52,87
17045,note_on,15,0,1,,,,,,,,,,0,,84,93
17075,note_on,30,0,1,,,,,,,,,,0,,84,0
17084,note_on,40,0,3,,,,,,,,,,2,,52,0
17103,note_on,19,0,3,,,,,,,,,,2,,52,85
17103,note_on,28,0,1,,,,,,,,,,0,,84,88
17133,note_on,30,0,1,,,,,,,,,,0,,84,0
17147,note_on,44,0,3,,,,,,,,,,2,,52,0
17160,note_on,27,0,1,,,,,,,,,,0,,84,85
17165,note_on,18,0,3,,,,,,,,,,2,,52,90
17191,note_on,31,0,1,,,,,,,,,,0,,84,0
17208,note_on,43,0,3,,,,,,,,,,2,,52,0
17221,note_on,30,0,1,,,,,,,,,,0,,82,81
17223,note_on,241,0,2,,,,,,,,,,1,,76,86
17225,note_on,17,0,3,,,,,,,,,,2,,48,85
17251,note_on,30,0,1,,,,,,,,,,0,,82,0
17268,note_on,43,0,3,,,,,,,,,,2,,48,0
17277,note_on,54,0,2,,,,,,,,,,1,,76,0
17282,note_on,31,0,1,,,,,,,,,,0,,81,85
17284,note_on,16,0,3,,,,,,,,,,2,,53,83
17286,note_on,9,0,2,,,,,,,,,,1,,77,82
17314,note_on,28,0,2,,,,,,,,,,1,,77,0
17321,note_on,37,0,3,,,,,,,,,,2,,53,0
17344,note_on,23,0,3,,,,,,,,,,2,,53,83
17344,note_on,30,0,2,,,,,,,,,,1,,77,77
17373,note_on,29,0,2,,,,,,,,,,1,,77,0
17381,note_on,37,0,3,,,,,,,,,,2,,53,0
17404,note_on,23,0,3,,,,,,,,,,2,,53,81
17405,note_on,32,0,2,,,,,,,,,,1,,77,77
17432,note_on,150,0,1,,,,,,,,,,0,,81,0
17434,note_on,29,0,2,,,,,,,,,,1,,77,0
17443,note_on,39,0,3,,,,,,,,,,2,,53,0
17460,note_on,28,0,1,,,,,,,,,,0,,81,88
17465,note_on,22,0,3,,,,,,,,,,2,,53,83
17465,note_on,31,0,2,,,,,,,,,,1,,75,72
17495,note_on,30,0,2,,,,,,,,,,1,,75,0
17503,note_on,38,0,3,,,,,,,,,,2,,53,0
17517,note_on,57,0,1,,,,,,,,,,0,,81,0
17522,note_on,27,0,2,,,,,,,,,,1,,74,63
17523,note_on,6,0,1,,,,,,,,,,0,,82,83
17526,note_on,23,0,3,,,,,,,,,,2,,46,87
17550,note_on,27,0,1,,,,,,,,,,0,,82,0
17562,note_on,36,0,3,,,,,,,,,,2,,46,0
17581,note_on,31,0,1,,,,,,,,,,0,,82,81
17584,note_on,22,0,3,,,,,,,,,,2,,46,72
17611,note_on,30,0,1,,,,,,,,,,0,,82,0
17620,note_on,36,0,3,,,,,,,,,,2,,46,0
17639,note_on,28,0,1,,,,,,,,,,0,,82,83
17644,note_on,24,0,3,,,,,,,,,,2,,46,75
17667,note_on,28,0,1,,,,,,,,,,0,,82,0
17673,note_on,151,0,2,,,,,,,,,,1,,74,0
17681,note_on,37,0,3,,,,,,,,,,2,,46,0
17701,note_on,34,0,1,,,,,,,,,,0,,80,97
17702,note_on,29,0,2,,,,,,,,,,1,,74,76
17706,note_on,25,0,3,,,,,,,,,,2,,46,81
17743,note_on,37,0,3,,,,,,,,,,2,,46,0
17750,note_on,49,0,1,,,,,,,,,,0,,80,0
17760,note_on,58,0,2,,,,,,,,,,1,,74,0
17763,note_on,13,0,1,,,,,,,,,,0,,79,90
17764,note_on,4,0,2,,,,,,,,,,1,,75,72
17765,note_on,22,0,3,,,,,,,,,,2,,51,76
17791,note_on,27,0,2,,,,,,,,,,1,,75,0
17801,note_on,36,0,3,,,,,,,,,,2,,51,0
17821,note_on,30,0,2,,,,,,,,,,1,,75,76
17822,note_on,21,0,3,,,,,,,,,,2,,51,81
17848,note_on,27,0,2,,,,,,,,,,1,,75,0
17865,note_on,43,0,3,,,,,,,,,,2,,51,0
17880,note_on,32,0,2,,,,,,,,,,1,,75,71
17884,note_on,19,0,3,,,,,,,,,,2,,51,75
17908,note_on,145,0,1,,,,,,,,,,0,,79,0
17909,note_on,29,0,2,,,,,,,,,,1,,75,0
17924,note_on,40,0,3,,,,,,,,,,2,,51,0
17941,note_on,32,0,2,,,,,,,,,,1,,74,72
17941,note_on,33,0,1,,,,,,,,,,0,,79,97
17943,note_on,19,0,3,,,,,,,,,,2,,51,81
17982,note_on,41,0,2,,,,,,,,,,1,,74,0
17983,note_on,40,0,3,,,,,,,,,,2,,51,0
17998,note_on,57,0,1,,,,,,,,,,0,,79,0
18000,note_on,18,0,2,,,,,,,,,,1,,72,71
18001,note_on,3,0,1,,,,,,,,,,0,,80,95
18005,note_on,22,0,3,,,,,,,,,,2,,44,76
18033,note_on,32,0,1,,,,,,,,,,0,,80,0
18043,note_on,38,0,3,,,,,,,,,,2,,44,0
18060,note_on,27,0,1,,,,,,,,,,0,,80,91
18064,note_on,21,0,3,,,,,,,,,,2,,44,83
18092,note_on,32,0,1,,,,,,,,,,0,,80,0
18103,note_on,39,0,3,,,,,,,,,,2,,44,0
18122,note_on,30,0,1,,,,,,,,,,0,,80,95
18125,note_on,22,0,3,,,,,,,,,,2,,44,76
18151,note_on,151,0,2,,,,,,,,,,1,,72,0
18151,note_on,29,0,1,,,,,,,,,,0,,80,0
18165,note_on,40,0,3,,,,,,,,,,2,,44,0
18181,note_on,30,0,2,,,,,,,,,,1,,72,82
18185,note_on,34,0,1,,,,,,,,,,0,,79,95
18186,note_on,21,0,3,,,,,,,,,,2,,44,87
18225,note_on,39,0,3,,,,,,,,,,2,,44,0
18228,note_on,43,0,1,,,,,,,,,,0,,79,0
18232,note_on,51,0,2,,,,,,,,,,1,,72,0
18243,note_on,11,0,2,,,,,,,,,,1,,72,62
18245,note_on,17,0,1,,,,,,,,,,0,,78,97
18249,note_on,24,0,3,,,,,,,,,,2,,50,85
18283,note_on,40,0,2,,,,,,,,,,1,,72,0
18288,note_on,43,0,1,,,,,,,,,,0,,78,0
18288,note_on,39,0,3,,,,,,,,,,2,,50,0
18303,note_on,15,0,1,,,,,,,,,,0,,79,93
18305,note_on,22,0,2,,,,,,,,,,1,,70,71
18306,note_on,18,0,3,,,,,,,,,,2,,55,76
18333,note_on,30,0,1,,,,,,,,,,0,,79,0
18336,note_on,31,0,2,,,,,,,,,,1,,70,0
18350,note_on,44,0,3,,,,,,,,,,2,,55,0
18364,note_on,28,0,2,,,,,,,,,,1,,69,79
18364,note_on,31,0,1,,,,,,,,,,0,,79,93
18364,note_on,14,0,3,,,,,,,,,,2,,62,83
18394,note_on,30,0,1,,,,,,,,,,0,,79,0
18395,note_on,31,0,2,,,,,,,,,,1,,69,0
18407,note_on,43,0,3,,,,,,,,,,2,,62,0
18422,note_on,27,0,2,,,,,,,,,,1,,69,88
18424,note_on,17,0,3,,,,,,,,,,2,,50,83
18426,note_on,32,0,1,,,,,,,,,,0,,78,97
18456,note_on,30,0,1,,,,,,,,,,0,,78,0
18461,note_on,39,0,2,,,,,,,,,,1,,69,0
18467,note_on,43,0,3,,,,,,,,,,2,,50,0
18482,note_on,26,0,1,,,,,,,,,,0,,79,90
18484,note_on,23,0,2,,,,,,,,,,1,,70,82
18485,note_on,18,0,3,,,,,,,,,,2,,55,78
18529,note_on,44,0,3,,,,,,,,,,2,,55,0
18544,note_on,15,0,3,,,,,,,,,,2,,57,92
18587,note_on,43,0,3,,,,,,,,,,2,,57,0
18603,note_on,16,0,3,,,,,,,,,,2,,58,90
18625,note_on,141,0,2,,,,,,,,,,1,,70,0
18629,note_on,147,0,1,,,,,,,,,,0,,79,0
18645,note_on,42,0,3,,,,,,,,,,2,,58,0
18660,note_on,15,0,3,,,,,,,,,,2,,55,75
18661,note_on,36,0,2,,,,,,,,,,1,,82,69
18664,note_on,35,0,1,,,,,,,,,,0,,79,91
18705,note_on,45,0,3,,,,,,,,,,2,,55,0
18714,note_on,53,0,2,,,,,,,,,,1,,82,0
18721,note_on,57,0,1,,,,,,,,,,0,,79,0
18721,note_on,0,0,1,,,,,,,,,,0,,78,98
18722,note_on,17,0,3,,,,,,,,,,2,,62,83
18722,note_on,8,0,2,,,,,,,,,,1,,81,77
18750,note_on,29,0,1,,,,,,,,,,0,,78,0
18751,note_on,29,0,2,,,,,,,,,,1,,81,0
18766,note_on,44,0,3,,,,,,,,,,2,,62,0
18779,note_on,29,0,1,,,,,,,,,,0,,77,95
18781,note_on,30,0,2,,,,,,,,,,1,,79,84
18784,note_on,18,0,3,,,,,,,,,,2,,59,87
18838,note_on,59,0,1,,,,,,,,,,0,,77,0
18839,note_on,1,0,1,,,,,,,,,,0,,76,88
18842,note_on,58,0,3,,,,,,,,,,2,,59,0
18843,note_on,1,0,3,,,,,,,,,,2,,60,87
18872,note_on,33,0,1,,,,,,,,,,0,,76,0
18883,note_on,102,0,2,,,,,,,,,,1,,79,0
18883,note_on,40,0,3,,,,,,,,,,2,,60,0
18900,note_on,28,0,1,,,,,,,,,,0,,75,85
18901,note_on,18,0,2,,,,,,,,,,1,,81,86
18905,note_on,22,0,3,,,,,,,,,,2,,54,72
18930,note_on,29,0,2,,,,,,,,,,1,,81,0
18939,note_on,39,0,1,,,,,,,,,,0,,75,0
18943,note_on,38,0,3,,,,,,,,,,2,,54,0
18959,note_on,29,0,2,,,,,,,,,,1,,82,71
18960,note_on,21,0,1,,,,,,,,,,0,,74,83
18964,note_on,21,0,3,,,,,,,,,,2,,55,71
18989,note_on,29,0,1,,,,,,,,,,0,,74,0
18990,note_on,1,0,1,,,,,,,,,,0,,72,68
19002,note_on,38,0,3,,,,,,,,,,2,,55,0
19010,note_on,20,0,1,,,,,,,,,,0,,72,0
19018,note_on,8,0,1,,,,,,,,,,0,,70,74
19024,note_on,22,0,3,,,,,,,,,,2,,57,85
19038,note_on,20,0,1,,,,,,,,,,0,,70,0
19049,note_on,11,0,1,,,,,,,,,,0,,69,90
19060,note_on,36,0,3,,,,,,,,,,2,,57,0
19070,note_on,21,0,1,,,,,,,,,,0,,69,0
19082,note_on,12,0,1,,,,,,,,,,0,,67,91
19086,note_on,26,0,3,,,,,,,,,,2,,58,83
19090,note_on,131,0,2,,,,,,,,,,1,,82,0
19111,note_on,29,0,1,,,,,,,,,,0,,67,0
19120,note_on,34,0,3,,,,,,,,,,2,,58,0
19141,note_on,51,0,2,,,,,,,,,,1,,79,95
19143,note_on,32,0,1,,,,,,,,,,0,,82,81
19146,note_on,26,0,3,,,,,,,,,,2,,55,76
19181,note_on,35,0,3,,,,,,,,,,2,,55,0
19199,note_on,56,0,1,,,,,,,,,,0,,82,0
19203,note_on,62,0,2,,,,,,,,,,1,,79,0
19206,note_on,25,0,3,,,,,,,,,,2,,62,81
19206,note_on,3,0,2,,,,,,,,,,1,,78,84
19208,note_on,9,0,1,,,,,,,,,,0,,81,93
19233,note_on,27,0,2,,,,,,,,,,1,,78,0
19236,note_on,28,0,1,,,,,,,,,,0,,81,0
19245,note_on,39,0,3,,,,,,,,,,2,,62,0
19264,note_on,28,0,1,,,,,,,,,,0,,79,90
19266,note_on,21,0,3,,,,,,,,,,2,,59,90
19267,note_on,34,0,2,,,,,,,,,,1,,77,88
19325,note_on,58,0,2,,,,,,,,,,1,,77,0
19327,note_on,2,0,2,,,,,,,,,,1,,76,79
19327,note_on,0,0,3,,,,,,,,,,2,,60,85
19327,note_on,61,0,3,,,,,,,,,,2,,59,0
19354,note_on,27,0,2,,,,,,,,,,1,,76,0
19364,note_on,37,0,3,,,,,,,,,,2,,60,0
19371,note_on,107,0,1,,,,,,,,,,0,,79,0
19387,note_on,23,0,3,,,,,,,,,,2,,54,76
19387,note_on,33,0,2,,,,,,,,,,1,,75,73
19388,note_on,17,0,1,,,,,,,,,,0,,81,95
19422,note_on,35,0,3,,,,,,,,,,2,,54,0
19424,note_on,37,0,2,,,,,,,,,,1,,75,0
19425,note_on,37,0,1,,,,,,,,,,0,,81,0
19447,note_on,25,0,3,,,,,,,,,,2,,55,71
19447,note_on,22,0,1,,,,,,,,,,0,,82,83
19448,note_on,24,0,2,,,,,,,,,,1,,74,79
19477,note_on,0,0,2,,,,,,,,,,1,,72,76
19477,note_on,29,0,2,,,,,,,,,,1,,74,0
19484,note_on,37,0,3,,,,,,,,,,2,,55,0
19497,note_on,20,0,2,,,,,,,,,,1,,72,0
19506,note_on,9,0,2,,,,,,,,,,1,,70,72
19507,note_on,23,0,3,,,,,,,,,,2,,57,85
19526,note_on,20,0,2,,,,,,,,,,1,,70,0
19535,note_on,9,0,2,,,,,,,,,,1,,69,82
19549,note_on,42,0,3,,,,,,,,,,2,,57,0
19556,note_on,21,0,2,,,,,,,,,,1,,69,0
19567,note_on,18,0,3,,,,,,,,,,2,,58,85
19567,note_on,11,0,2,,,,,,,,,,1,,67,88
19593,note_on,146,0,1,,,,,,,,,,0,,82,0
19595,note_on,28,0,2,,,,,,,,,,1,,67,0
19604,note_on,37,0,3,,,,,,,,,,2,,58,0
19625,note_on,30,0,2,,,,,,,,,,1,,74,79
19626,note_on,33,0,1,,,,,,,,,,0,,82,91
19626,note_on,22,0,3,,,,,,,,,,2,,55,70
19665,note_on,39,0,3,,,,,,,,,,2,,55,0
19681,note_on,55,0,1,,,,,,,,,,0,,82,0
19685,note_on,0,0,2,,,,,,,,,,1,,75,69
19685,note_on,60,0,2,,,,,,,,,,1,,74,0
19687,note_on,6,0,1,,,,,,,,,,0,,81,85
19689,note_on,24,0,3,,,,,,,,,,2,,48,78
19713,note_on,26,0,1,,,,,,,,,,0,,81,0
19713,note_on,28,0,2,,,,,,,,,,1,,75,0
19726,note_on,37,0,3,,,,,,,,,,2,,48,0
19744,note_on,31,0,1,,,,,,,,,,0,,80,93
19744,note_on,31,0,2,,,,,,,,,,1,,72,72
19749,note_on,23,0,3,,,,,,,,,,2,,60,92
19797,note_on,53,0,1,,,,,,,,,,0,,80,0
19799,note_on,2,0,1,,,,,,,,,,0,,79,95
19799,note_on,50,0,3,,,,,,,,,,2,,60,0
19800,note_on,56,0,2,,,,,,,,,,1,,72,0
19804,note_on,4,0,2,,,,,,,,,,1,,70,71
19808,note_on,9,0,3,,,,,,,,,,2,,62,69
19826,note_on,27,0,1,,,,,,,,,,0,,79,0
19829,note_on,25,0,2,,,,,,,,,,1,,70,0
19841,note_on,33,0,3,,,,,,,,,,2,,62,0
19860,note_on,31,0,2,,,,,,,,,,1,,69,77
19862,note_on,36,0,1,,,,,,,,,,0,,78,95
19865,note_on,24,0,3,,,,,,,,,,2,,50,81
19899,note_on,39,0,2,,,,,,,,,,1,,69,0
19899,note_on,37,0,1,,,,,,,,,,0,,78,0
19906,note_on,41,0,3,,,,,,,,,,2,,50,0
19918,note_on,19,0,2,,,,,,,,,,1,,67,82
19920,note_on,21,0,1,,,,,,,,,,0,,79,98
19924,note_on,18,0,3,,,,,,,,,,2,,55,70
19949,note_on,29,0,1,,,,,,,,,,0,,79,0
19951,note_on,2,0,1,,,,,,,,,,0,,78,85
19972,note_on,21,0,1,,,,,,,,,,0,,78,0
19980,note_on,8,0,1,,,,,,,,,,0,,79,90
20000,note_on,20,0,1,,,,,,,,,,0,,79,0
20009,note_on,9,0,1,,,,,,,,,,0,,81,85
20032,note_on,23,0,1,,,,,,,,,,0,,81,0
20042,note_on,10,0,1,,,,,,,,,,0,,79,100
20055,note_on,137,0,2,,,,,,,,,,1,,67,0
20055,note_on,131,0,3,,,,,,,,,,2,,55,0
20073,note_on,31,0,1,,,,,,,,,,0,,79,0
20096,note_on,41,0,2,,,,,,,,,,1,,82,77
20099,note_on,44,0,3,,,,,,,,,,2,,55,72
20100,note_on,27,0,1,,,,,,,,,,0,,74,79
20142,note_on,43,0,3,,,,,,,,,,2,,55,0
20148,note_on,48,0,1,,,,,,,,,,0,,74,0
20155,note_on,59,0,2,,,,,,,,,,1,,82,0
20156,note_on,8,0,1,,,,,,,,,,0,,75,81
20157,note_on,15,0,3,,,,,,,,,,2,,48,78
20158,note_on,3,0,2,,,,,,,,,,1,,81,86
20186,note_on,30,0,1,,,,,,,,,,0,,75,0
20186,note_on,28,0,2,,,,,,,,,,1,,81,0
20196,note_on,39,0,3,,,,,,,,,,2,,48,0
20216,note_on,30,0,1,,,,,,,,,,0,,72,91
20217,note_on,31,0,2,,,,,,,,,,1,,80,88
20222,note_on,26,0,3,,,,,,,,,,2,,60,90
20275,note_on,58,0,2,,,,,,,,,,1,,80,0
20277,note_on,2,0,2,,,,,,,,,,1,,79,88
20277,note_on,61,0,1,,,,,,,,,,0,,72,0
20281,note_on,59,0,3,,,,,,,,,,2,,60,0
20282,note_on,5,0,1,,,,,,,,,,0,,70,91
20283,note_on,2,0,3,,,,,,,,,,2,,62,68
20308,note_on,31,0,2,,,,,,,,,,1,,79,0
20309,note_on,27,0,1,,,,,,,,,,0,,70,0
20317,note_on,34,0,3,,,,,,,,,,2,,62,0
20340,note_on,32,0,2,,,,,,,,,,1,,78,88
20341,note_on,32,0,1,,,,,,,,,,0,,69,88
20345,note_on,28,0,3,,,,,,,,,,2,,50,78
20378,note_on,33,0,3,,,,,,,,,,2,,50,0
20381,note_on,40,0,1,,,,,,,,,,0,,69,0
20381,note_on,41,0,2,,,,,,,,,,1,,78,0
20398,note_on,17,0,2,,,,,,,,,,1,,79,82
20400,marker,6480,1,0,,,,,,,,,,,,,
20402,note_on,21,0,1,,,,,,,,,,0,,67,91
20406,note_on,28,0,3,,,,,,,,,,2,,55,78
20427,note_on,29,0,2,,,,,,,,,,1,,78,76
20428,note_on,1,0,2,,,,,,,,,,1,,79,0
20448,note_on,20,0,2,,,,,,,,,,1,,78,0
20458,note_on,10,0,2,,,,,,,,,,1,,79,84
20476,note_on,18,0,2,,,,,,,,,,1,,79,0
20486,note_on,10,0,2,,,,,,,,,,1,,81,88
20507,note_on,21,0,2,,,,,,,,,,1,,81,0
20516,note_on,9,0,2,,,,,,,,,,1,,79,95
20533,note_on,127,0,3,,,,,,,,,,2,,55,0
20540,note_on,138,0,1,,,,,,,,,,0,,67,0
20564,note_on,48,0,2,,,,,,,,,,1,,79,0
20580,note_on,47,0,3,,,,,,,,,,2,,55,76
20584,note_on,44,0,1,,,,,,,,,,0,,86,90
20612,note_on,28,0,1,,,,,,,,,,0,,86,0
20620,note_on,40,0,3,,,,,,,,,,2,,55,0
20643,note_on,23,0,3,,,,,,,,,,2,,54,83
20643,note_on,31,0,1,,,,,,,,,,0,,86,90
20672,note_on,29,0,1,,,,,,,,,,0,,86,0
20674,note_on,2,0,1,,,,,,,,,,0,,84,72
20682,note_on,39,0,3,,,,,,,,,,2,,54,0
20691,note_on,17,0,1,,,,,,,,,,0,,84,0
20704,note_on,13,0,1,,,,,,,,,,0,,82,70
20705,note_on,23,0,3,,,,,,,,,,2,,54,75
20721,note_on,17,0,1,,,,,,,,,,0,,82,0
20734,note_on,13,0,1,,,,,,,,,,0,,81,73
20743,note_on,38,0,3,,,,,,,,,,2,,54,0
20753,note_on,19,0,1,,,,,,,,,,0,,81,0
20764,note_on,21,0,3,,,,,,,,,,2,,54,74
20766,note_on,13,0,1,,,,,,,,,,0,,86,88
20796,note_on,30,0,1,,,,,,,,,,0,,86,0
20796,note_on,0,0,1,,,,,,,,,,0,,84,80
20805,note_on,41,0,3,,,,,,,,,,2,,54,0
20815,note_on,19,0,1,,,,,,,,,,0,,84,0
20825,note_on,20,0,3,,,,,,,,,,2,,50,79
20827,note_on,263,0,2,,,,,,,,,,1,,78,83
20829,note_on,14,0,1,,,,,,,,,,0,,82,71
20846,note_on,17,0,1,,,,,,,,,,0,,82,0
20855,note_on,28,0,2,,,,,,,,,,1,,78,0
20859,note_on,13,0,1,,,,,,,,,,0,,81,80
20869,note_on,44,0,3,,,,,,,,,,2,,50,0
20877,note_on,18,0,1,,,,,,,,,,0,,81,0
20885,note_on,16,0,3,,,,,,,,,,2,,55,70
20888,note_on,33,0,2,,,,,,,,,,1,,79,90
20890,note_on,13,0,1,,,,,,,,,,0,,82,83
20918,note_on,0,0,2,,,,,,,,,,1,,77,82
20918,note_on,30,0,2,,,,,,,,,,1,,79,0
20918,note_on,28,0,1,,,,,,,,,,0,,82,0
20925,note_on,40,0,3,,,,,,,,,,2,,55,0
20937,note_on,19,0,2,,,,,,,,,,1,,77,0
20945,note_on,20,0,3,,,,,,,,,,2,,55,76
20948,note_on,11,0,2,,,,,,,,,,1,,75,67
20949,note_on,31,0,1,,,,,,,,,,0,,82,80
20966,note_on,18,0,2,,,,,,,,,,1,,75,0
20975,note_on,9,0,2,,,,,,,,,,1,,74,61
20988,note_on,43,0,3,,,,,,,,,,2,,55,0
20995,note_on,20,0,2,,,,,,,,,,1,,74,0
21006,note_on,11,0,2,,,,,,,,,,1,,79,85
21007,note_on,19,0,3,,,,,,,,,,2,,55,79
21035,note_on,29,0,2,,,,,,,,,,1,,79,0
21036,note_on,1,0,2,,,,,,,,,,1,,77,81
21047,note_on,98,0,1,,,,,,,,,,0,,82,0
21049,note_on,42,0,3,,,,,,,,,,2,,55,0
21054,note_on,18,0,2,,,,,,,,,,1,,77,0
21066,note_on,12,0,2,,,,,,,,,,1,,75,68
21067,note_on,18,0,3,,,,,,,,,,2,,55,77
21068,note_on,21,0,1,,,,,,,,,,0,,82,81
21084,note_on,18,0,2,,,,,,,,,,1,,75,0
21095,note_on,11,0,2,,,,,,,,,,1,,74,61
21096,note_on,28,0,1,,,,,,,,,,0,,82,0
21108,note_on,41,0,3,,,,,,,,,,2,,55,0
21115,note_on,20,0,2,,,,,,,,,,1,,74,0
21125,note_on,29,0,1,,,,,,,,,,0,,84,86
21126,note_on,11,0,2,,,,,,,,,,1,,75,70
21126,note_on,18,0,3,,,,,,,,,,2,,48,78
21154,note_on,29,0,1,,,,,,,,,,0,,82,69
21155,note_on,29,0,2,,,,,,,,,,1,,75,0
21157,note_on,3,0,1,,,,,,,,,,0,,84,0
21170,note_on,44,0,3,,,,,,,,,,2,,48,0
21172,note_on,15,0,1,,,,,,,,,,0,,82,0
21185,note_on,30,0,2,,,,,,,,,,1,,75,69
21186,note_on,14,0,1,,,,,,,,,,0,,81,75
21189,note_on,19,0,3,,,,,,,,,,2,,48,77
21203,note_on,17,0,1,,,,,,,,,,0,,81,0
21215,note_on,12,0,1,,,,,,,,,,0,,79,79
21227,note_on,38,0,3,,,,,,,,,,2,,48,0
21234,note_on,19,0,1,,,,,,,,,,0,,79,0
21248,note_on,21,0,3,,,,,,,,,,2,,48,76
21250,note_on,16,0,1,,,,,,,,,,0,,84,82
21278,note_on,0,0,1,,,,,,,,,,0,,82,67
21278,note_on,28,0,1,,,,,,,,,,0,,84,0
21290,note_on,42,0,3,,,,,,,,,,2,,48,0
21292,note_on,107,0,2,,,,,,,,,,1,,75,0
21295,note_on,17,0,1,,,,,,,,,,0,,82,0
21307,note_on,15,0,2,,,,,,,,,,1,,75,76
21309,note_on,19,0,3,,,,,,,,,,2,,48,78
21311,note_on,16,0,1,,,,,,,,,,0,,81,83
21326,note_on,15,0,1,,,,,,,,,,0,,81,0
21335,note_on,28,0,2,,,,,,,,,,1,,75,0
21341,note_on,15,0,1,,,,,,,,,,0,,79,86
21351,note_on,42,0,3,,,,,,,,,,2,,48,0
21358,note_on,17,0,1,,,,,,,,,,0,,79,0
21366,note_on,15,0,3,,,,,,,,,,2,,53,70
21367,note_on,32,0,2,,,,,,,,,,1,,77,89
21371,note_on,13,0,1,,,,,,,,,,0,,81,87
21395,note_on,28,0,2,,,,,,,,,,1,,75,65
21396,note_on,1,0,2,,,,,,,,,,1,,77,0
21397,note_on,26,0,1,,,,,,,,,,0,,81,0
21408,note_on,42,0,3,,,,,,,,,,2,,53,0
21415,note_on,19,0,2,,,,,,,,,,1,,75,0
21426,note_on,11,0,2,,,,,,,,,,1,,74,63
21427,note_on,19,0,3,,,,,,,,,,2,,53,77
21427,note_on,30,0,1,,,,,,,,,,0,,81,83
21444,note_on,18,0,2,,,,,,,,,,1,,74,0
21454,note_on,10,0,2,,,,,,,,,,1,,72,66
21468,note_on,41,0,3,,,,,,,,,,2,,53,0
21472,note_on,18,0,2,,,,,,,,,,1,,72,0
21482,note_on,14,0,3,,,,,,,,,,2,,53,64
21484,note_on,12,0,2,,,,,,,,,,1,,77,88
21512,note_on,0,0,2,,,,,,,,,,1,,75,61
21512,note_on,28,0,2,,,,,,,,,,1,,77,0
21521,note_on,94,0,1,,,,,,,,,,0,,81,0
21526,note_on,44,0,3,,,,,,,,,,2,,53,0
21529,note_on,17,0,2,,,,,,,,,,1,,75,0
21541,note_on,15,0,3,,,,,,,,,,2,,53,67
21542,note_on,13,0,2,,,,,,,,,,1,,74,58
21546,note_on,25,0,1,,,,,,,,,,0,,81,80
21560,note_on,18,0,2,,,,,,,,,,1,,74,0
21570,note_on,10,0,2,,,,,,,,,,1,,72,63
21574,note_on,28,0,1,,,,,,,,,,0,,81,0
21584,note_on,43,0,3,,,,,,,,,,2,,53,0
21590,note_on,20,0,2,,,,,,,,,,1,,72,0
21601,note_on,11,0,2,,,,,,,,,,1,,74,64
21602,note_on,28,0,1,,,,,,,,,,0,,82,78
21603,note_on,19,0,3,,,,,,,,,,2,,46,73
21630,note_on,28,0,1,,,,,,,,,,0,,82,0
21630,note_on,29,0,2,,,,,,,,,,1,,74,0
21630,note_on,0,0,1,,,,,,,,,,0,,81,72
21642,note_on,39,0,3,,,,,,,,,,2,,46,0
21647,note_on,17,0,1,,,,,,,,,,0,,81,0
21660,note_on,30,0,2,,,,,,,,,,1,,74,60
21660,note_on,18,0,3,,,,,,,,,,2,,46,76
21661,note_on,14,0,1,,,,,,,,,,0,,79,77
21676,note_on,15,0,1,,,,,,,,,,0,,79,0
21690,note_on,14,0,1,,,,,,,,,,0,,77,82
21700,note_on,40,0,3,,,,,,,,,,2,,46,0
21708,note_on,18,0,1,,,,,,,,,,0,,77,0
21719,note_on,11,0,1,,,,,,,,,,0,,82,77
21719,note_on,19,0,3,,,,,,,,,,2,,46,66
21749,note_on,30,0,1,,,,,,,,,,0,,81,76
21751,note_on,2,0,1,,,,,,,,,,0,,82,0
21763,note_on,44,0,3,,,,,,,,,,2,,46,0
21764,note_on,13,0,1,,,,,,,,,,0,,81,0
21767,note_on,107,0,2,,,,,,,,,,1,,74,0
21780,note_on,13,0,2,,,,,,,,,,1,,74,67
21780,note_on,16,0,1,,,,,,,,,,0,,79,81
21782,note_on,19,0,3,,,,,,,,,,2,,46,73
21794,note_on,14,0,1,,,,,,,,,,0,,79,0
21809,note_on,29,0,2,,,,,,,,,,1,,74,0
21809,note_on,15,0,1,,,,,,,,,,0,,77,79
21824,note_on,15,0,1,,,,,,,,,,0,,77,0
21825,note_on,43,0,3,,,,,,,,,,2,,46,0
21839,note_on,30,0,2,,,,,,,,,,1,,75,66
21839,note_on,15,0,1,,,,,,,,,,0,,79,82
21842,note_on,17,0,3,,,,,,,,,,2,,51,70
21866,note_on,27,0,1,,,,,,,,,,0,,79,0
21866,note_on,27,0,2,,,,,,,,,,1,,75,0
21867,note_on,1,0,2,,,,,,,,,,1,,74,63
21885,note_on,43,0,3,,,,,,,,,,2,,51,0
21886,note_on,19,0,2,,,,,,,,,,1,,74,0
21898,note_on,12,0,2,,,,,,,,,,1,,72,65
21900,note_on,34,0,1,,,,,,,,,,0,,79,81
21904,note_on,19,0,3,,,,,,,,,,2,,51,71
21916,note_on,18,0,2,,,,,,,,,,1,,72,0
21927,note_on,11,0,2,,,,,,,,,,1,,70,61
21946,note_on,19,0,2,,,,,,,,,,1,,70,0
21946,note_on,42,0,3,,,,,,,,,,2,,51,0
21957,note_on,11,0,2,,,,,,,,,,1,,75,65
21965,note_on,19,0,3,,,,,,,,,,2,,51,69
21986,note_on,29,0,2,,,,,,,,,,1,,75,0
21987,note_on,1,0,2,,,,,,,,,,1,,74,60
21996,note_on,96,0,1,,,,,,,,,,0,,79,0
22007,note_on,20,0,2,,,,,,,,,,1,,74,0
22007,note_on,42,0,3,,,,,,,,,,2,,51,0
22019,note_on,12,0,2,,,,,,,,,,1,,72,64
22025,note_on,29,0,1,,,,,,,,,,0,,79,79
22027,note_on,20,0,3,,,,,,,,,,2,,51,75
22037,note_on,18,0,2,,,,,,,,,,1,,72,0
22049,note_on,12,0,2,,,,,,,,,,1,,70,64
22052,note_on,27,0,1,,,,,,,,,,0,,79,0
22068,note_on,41,0,3,,,,,,,,,,2,,51,0
22070,note_on,21,0,2,,,,,,,,,,1,,70,0
22084,note_on,14,0,2,,,,,,,,,,1,,72,70
22085,note_on,33,0,1,,,,,,,,,,0,,81,78
22088,note_on,20,0,3,,,,,,,,,,2,,45,76
22112,note_on,27,0,1,,,,,,,,,,0,,79,75
22113,note_on,1,0,1,,,,,,,,,,0,,81,0
22115,note_on,31,0,2,,,,,,,,,,1,,72,0
22128,note_on,40,0,3,,,,,,,,,,2,,45,0
22130,note_on,17,0,1,,,,,,,,,,0,,79,0
22144,note_on,14,0,1,,,,,,,,,,0,,78,74
22147,note_on,32,0,2,,,,,,,,,,1,,72,70
22147,note_on,19,0,3,,,,,,,,,,2,,45,75
22162,note_on,18,0,1,,,,,,,,,,0,,78,0
22173,note_on,11,0,1,,,,,,,,,,0,,76,74
22188,note_on,41,0,3,,,,,,,,,,2,,45,0
22190,note_on,17,0,1,,,,,,,,,,0,,76,0
22204,note_on,14,0,1,,,,,,,,,,0,,81,74
22206,note_on,18,0,3,,,,,,,,,,2,,45,68
22230,note_on,26,0,1,,,,,,,,,,0,,81,0
22231,note_on,1,0,1,,,,,,,,,,0,,79,73
22245,note_on,98,0,2,,,,,,,,,,1,,72,0
22250,note_on,44,0,3,,,,,,,,,,2,,45,0
22250,note_on,19,0,1,,,,,,,,,,0,,79,0
22264,note_on,14,0,1,,,,,,,,,,0,,78,78
22264,note_on,19,0,2,,,,,,,,,,1,,72,74
22269,note_on,19,0,3,,,,,,,,,,2,,45,75
22280,note_on,16,0,1,,,,,,,,,,0,,78,0
22293,note_on,29,0,2,,,,,,,,,,1,,72,0
22295,note_on,15,0,1,,,,,,,,,,0,,76,75
22308,note_on,39,0,3,,,,,,,,,,2,,45,0
22314,note_on,19,0,1,,,,,,,,,,0,,76,0
22327,note_on,34,0,2,,,,,,,,,,1,,69,69
22328,note_on,14,0,1,,,,,,,,,,0,,78,79
22330,note_on,22,0,3,,,,,,,,,,2,,50,66
22368,note_on,38,0,3,,,,,,,,,,2,,50,0
22388,note_on,20,0,3,,,,,,,,,,2,,62,63
22424,note_on,96,0,1,,,,,,,,,,0,,78,0
22430,note_on,42,0,3,,,,,,,,,,2,,62,0
22437,note_on,110,0,2,,,,,,,,,,1,,69,0
22448,note_on,18,0,3,,,,,,,,,,2,,58,87
22488,note_on,40,0,3,,,,,,,,,,2,,58,0
22508,note_on,71,0,2,,,,,,,,,,1,,79,88
22508,note_on,84,0,1,,,,,,,,,,0,,82,91
22509,note_on,21,0,3,,,,,,,,,,2,,55,78
22537,note_on,29,0,2,,,,,,,,,,1,,79,0
22538,note_on,30,0,1,,,,,,,,,,0,,82,0
22546,note_on,37,0,3,,,,,,,,,,2,,55,0
22551,set_tempo,2151,1,0,,,,,,545455,,,,,,,
22564,note_on,18,0,3,,,,,,,,,,2,,50,81
22565,note_on,28,0,2,,,,,,,,,,1,,78,91
22566,note_on,28,0,1,,,,,,,,,,0,,81,91
22594,note_on,0,0,2,,,,,,,,,,1,,79,94
22594,note_on,29,0,2,,,,,,,,,,1,,78,0
22595,note_on,29,0,1,,,,,,,,,,0,,82,79
22597,note_on,2,0,1,,,,,,,,,,0,,81,0
22607,note_on,43,0,3,,,,,,,,,,2,,50,0
22615,note_on,21,0,2,,,,,,,,,,1,,79,0
22616,note_on,19,0,1,,,,,,,,,,0,,82,0
22624,note_on,8,0,1,,,,,,,,,,0,,82,81
22625,note_on,18,0,3,,,,,,,,,,2,,50,90
22626,note_on,11,0,2,,,,,,,,,,1,,79,71
22652,note_on,28,0,1,,,,,,,,,,0,,82,0
22652,note_on,26,0,2,,,,,,,,,,1,,79,0
22655,note_on,3,0,2,,,,,,,,,,1,,81,73
22655,note_on,3,0,1,,,,,,,,,,0,,84,91
22669,note_on,44,0,3,,,,,,,,,,2,,50,0
22675,note_on,20,0,1,,,,,,,,,,0,,84,0
22676,note_on,21,0,2,,,,,,,,,,1,,81,0
22684,note_on,8,0,2,,,,,,,,,,1,,81,72
22685,note_on,10,0,1,,,,,,,,,,0,,84,88
22686,note_on,17,0,3,,,,,,,,,,2,,50,75
22711,note_on,27,0,2,,,,,,,,,,1,,81,0
22713,note_on,28,0,1,,,,,,,,,,0,,84,0
22713,note_on,2,0,2,,,,,,,,,,1,,79,86
22715,note_on,2,0,1,,,,,,,,,,0,,82,79
22723,note_on,37,0,3,,,,,,,,,,2,,50,0
22733,note_on,20,0,2,,,,,,,,,,1,,79,0
22736,note_on,21,0,1,,,,,,,,,,0,,82,0
22743,note_on,10,0,2,,,,,,,,,,1,,79,79
22744,note_on,21,0,3,,,,,,,,,,2,,50,87
22747,note_on,11,0,1,,,,,,,,,,0,,82,83
22768,note_on,25,0,2,,,,,,,,,,1,,79,0
22770,note_on,2,0,2,,,,,,,,,,1,,78,73
22775,note_on,28,0,1,,,,,,,,,,0,,82,0
22776,note_on,1,0,1,,,,,,,,,,0,,81,88
22786,note_on,42,0,3,,,,,,,,,,2,,50,0
22791,note_on,21,0,2,,,,,,,,,,1,,78,0
22796,note_on,20,0,1,,,,,,,,,,0,,81,0
22802,note_on,11,0,2,,,,,,,,,,1,,78,82
22803,note_on,17,0,3,,,,,,,,,,2,,50,85
22807,note_on,11,0,1,,,,,,,,,,0,,81,91
22831,note_on,29,0,2,,,,,,,,,,1,,78,0
22832,note_on,1,0,2,,,,,,,,,,1,,79,88
22835,note_on,28,0,1,,,,,,,,,,0,,82,81
22836,note_on,1,0,1,,,,,,,,,,0,,81,0
22847,note_on,44,0,3,,,,,,,,,,2,,50,0
22852,note_on,20,0,2,,,,,,,,,,1,,79,0
22855,note_on,19,0,1,,,,,,,,,,0,,82,0
22861,note_on,9,0,2,,,,,,,,,,1,,79,65
22863,note_on,16,0,3,,,,,,,,,,2,,50,87
22866,note_on,11,0,1,,,,,,,,,,0,,82,79
22890,note_on,29,0,2,,,,,,,,,,1,,79,0
22893,note_on,3,0,2,,,,,,,,,,1,,81,76
22893,note_on,27,0,1,,,,,,,,,,0,,84,90
22894,note_on,1,0,1,,,,,,,,,,0,,82,0
22908,note_on,45,0,3,,,,,,,,,,2,,50,0
22913,note_on,19,0,1,,,,,,,,,,0,,84,0
22914,note_on,21,0,2,,,,,,,,,,1,,81,0
22923,note_on,9,0,2,,,,,,,,,,1,,81,86
22924,note_on,11,0,1,,,,,,,,,,0,,84,83
22925,note_on,17,0,3,,,,,,,,,,2,,50,87
22950,note_on,27,0,2,,,,,,,,,,1,,81,0
22952,note_on,2,0,2,,,,,,,,,,1,,79,86
22953,note_on,0,0,1,,,,,,,,,,0,,82,79
22953,note_on,29,0,1,,,,,,,,,,0,,84,0
22970,note_on,45,0,3,,,,,,,,,,2,,50,0
22972,note_on,20,0,2,,,,,,,,,,1,,79,0
22974,note_on,21,0,1,,,,,,,,,,0,,82,0
22981,note_on,9,0,2,,,,,,,,,,1,,79,82
22984,note_on,14,0,3,,,,,,,,,,2,,50,81
22985,note_on,11,0,1,,,,,,,,,,0,,82,85
23007,note_on,26,0,2,,,,,,,,,,1,,79,0
23008,note_on,1,0,2,,,,,,,,,,1,,78,86
23013,note_on,28,0,1,,,,,,,,,,0,,82,0
23015,note_on,2,0,1,,,,,,,,,,0,,81,81
23029,note_on,45,0,3,,,,,,,,,,2,,50,0
23029,note_on,21,0,2,,,,,,,,,,1,,78,0
23035,note_on,20,0,1,,,,,,,,,,0,,81,0
23041,note_on,12,0,2,,,,,,,,,,1,,78,88
23046,note_on,17,0,3,,,,,,,,,,2,,50,78
23047,note_on,12,0,1,,,,,,,,,,0,,81,95
23070,note_on,29,0,2,,,,,,,,,,1,,78,0
23075,note_on,28,0,1,,,,,,,,,,0,,81,0
23084,note_on,38,0,3,,,,,,,,,,2,,50,0
23104,note_on,20,0,3,,,,,,,,,,2,,55,75
23104,note_on,34,0,2,,,,,,,,,,1,,79,86
23106,note_on,31,0,1,,,,,,,,,,0,,82,83
23134,note_on,30,0,2,,,,,,,,,,1,,79,0
23135,note_on,29,0,1,,,,,,,,,,0,,82,0
23147,note_on,43,0,3,,,,,,,,,,2,,55,0
23165,note_on,18,0,3,,,,,,,,,,2,,62,80
23166,note_on,32,0,2,,,,,,,,,,1,,79,94
23166,note_on,31,0,1,,,,,,,,,,0,,81,91
23195,note_on,29,0,2,,,,,,,,,,1,,79,0
23196,note_on,30,0,1,,,,,,,,,,0,,81,0
23206,note_on,41,0,3,,,,,,,,,,2,,62,0
23226,note_on,31,0,2,,,,,,,,,,1,,78,73
23226,note_on,20,0,3,,,,,,,,,,2,,50,75
23229,note_on,33,0,1,,,,,,,,,,0,,81,91
23255,note_on,29,0,2,,,,,,,,,,1,,78,0
23257,note_on,28,0,1,,,,,,,,,,0,,81,0
23264,note_on,38,0,3,,,,,,,,,,2,,50,0
23285,note_on,21,0,3,,,,,,,,,,2,,55,81
23288,note_on,33,0,2,,,,,,,,,,1,,79,82
23290,note_on,33,0,1,,,,,,,,,,0,,79,90
23323,note_on,38,0,3,,,,,,,,,,2,,55,0
23344,note_on,21,0,3,,,,,,,,,,2,,57,95
23382,note_on,38,0,3,,,,,,,,,,2,,57,0
23404,note_on,22,0,3,,,,,,,,,,2,,58,83
23417,note_on,127,0,1,,,,,,,,,,0,,79,0
23422,note_on,134,0,2,,,,,,,,,,1,,79,0
23441,note_on,37,0,3,,,,,,,,,,2,,58,0
23464,note_on,47,0,1,,,,,,,,,,0,,86,95
23464,note_on,23,0,3,,,,,,,,,,2,,55,67
23501,note_on,37,0,3,,,,,,,,,,2,,55,0
23502,note_on,38,0,1,,,,,,,,,,0,,86,0
23522,note_on,20,0,1,,,,,,,,,,0,,86,91
23523,note_on,22,0,3,,,,,,,,,,2,,54,72
23552,note_on,30,0,1,,,,,,,,,,0,,86,0
23553,note_on,1,0,1,,,,,,,,,,0,,84,83
23566,note_on,43,0,3,,,,,,,,,,2,,54,0
23572,note_on,19,0,1,,,,,,,,,,0,,84,0
23583,note_on,17,0,3,,,,,,,,,,2,,54,72
23585,note_on,13,0,1,,,,,,,,,,0,,82,74
23602,note_on,17,0,1,,,,,,,,,,0,,82,0
23613,note_on,11,0,1,,,,,,,,,,0,,81,85
23628,note_on,45,0,3,,,,,,,,,,2,,54,0
23632,note_on,19,0,1,,,,,,,,,,0,,81,0
23642,note_on,10,0,1,,,,,,,,,,0,,86,91
23644,note_on,16,0,3,,,,,,,,,,2,,54,64
23672,note_on,30,0,1,,,,,,,,,,0,,86,0
23672,note_on,0,0,1,,,,,,,,,,0,,84,83
23688,note_on,44,0,3,,,,,,,,,,2,,54,0
23689,note_on,17,0,1,,,,,,,,,,0,,84,0
23704,note_on,16,0,3,,,,,,,,,,2,,54,72
23704,note_on,15,0,1,,,,,,,,,,0,,82,79
23721,note_on,17,0,1,,,,,,,,,,0,,82,0
23733,note_on,12,0,1,,,,,,,,,,0,,81,85
23749,note_on,45,0,3,,,,,,,,,,2,,54,0
23752,note_on,19,0,1,,,,,,,,,,0,,81,0
23764,note_on,12,0,1,,,,,,,,,,0,,82,83
23764,note_on,15,0,3,,,,,,,,,,2,,55,71
23764,note_on,342,0,2,,,,,,,,,,1,,79,89
23792,note_on,28,0,1,,,,,,,,,,0,,82,0
23792,note_on,28,0,2,,,,,,,,,,1,,79,0
23793,note_on,1,0,2,,,,,,,,,,1,,77,85
23808,note_on,44,0,3,,,,,,,,,,2,,55,0
23811,note_on,18,0,2,,,,,,,,,,1,,77,0
23823,note_on,15,0,3,,,,,,,,,,2,,55,69
23823,note_on,12,0,2,,,,,,,,,,1,,75,63
23825,note_on,33,0,1,,,,,,,,,,0,,82,79
23839,note_on,16,0,2,,,,,,,,,,1,,75,0
23853,note_on,14,0,2,,,,,,,,,,1,,74,71
23869,note_on,46,0,3,,,,,,,,,,2,,55,0
23871,note_on,18,0,2,,,,,,,,,,1,,74,0
23882,note_on,13,0,3,,,,,,,,,,2,,55,69
23884,note_on,13,0,2,,,,,,,,,,1,,79,92
23912,note_on,28,0,2,,,,,,,,,,1,,79,0
23913,note_on,1,0,2,,,,,,,,,,1,,77,83
23923,note_on,98,0,1,,,,,,,,,,0,,82,0
23928,note_on,15,0,2,,,,,,,,,,1,,77,0
23929,note_on,47,0,3,,,,,,,,,,2,,55,0
23943,note_on,15,0,2,,,,,,,,,,1,,75,63
23944,note_on,15,0,3,,,,,,,,,,2,,55,72
23947,note_on,24,0,1,,,,,,,,,,0,,82,85
23961,note_on,18,0,2,,,,,,,,,,1,,75,0
23973,note_on,12,0,2,,,,,,,,,,1,,74,73
23974,note_on,27,0,1,,,,,,,,,,0,,82,0
23988,note_on,44,0,3,,,,,,,,,,2,,55,0
23991,note_on,18,0,2,,,,,,,,,,1,,74,0
24002,note_on,28,0,1,,,,,,,,,,0,,84,85
24004,note_on,16,0,3,,,,,,,,,,2,,48,87
24006,note_on,15,0,2,,,,,,,,,,1,,75,73
24033,note_on,0,0,1,,,,,,,,,,0,,82,79
24033,note_on,31,0,1,,,,,,,,,,0,,84,0
24034,note_on,28,0,2,,,,,,,,,,1,,75,0
24045,note_on,41,0,3,,,,,,,,,,2,,48,0
24053,note_on,20,0,1,,,,,,,,,,0,,82,0
24063,note_on,29,0,2,,,,,,,,,,1,,75,73
24064,note_on,19,0,3,,,,,,,,,,2,,48,85
24065,note_on,12,0,1,,,,,,,,,,0,,81,85
24081,note_on,16,0,1,,,,,,,,,,0,,81,0
24094,note_on,13,0,1,,,,,,,,,,0,,79,90
24107,note_on,43,0,3,,,,,,,,,,2,,48,0
24112,note_on,18,0,1,,,,,,,,,,0,,79,0
24122,note_on,15,0,3,,,,,,,,,,2,,48,72
24123,note_on,11,0,1,,,,,,,,,,0,,84,88
24152,note_on,29,0,1,,,,,,,,,,0,,84,0
24153,note_on,1,0,1,,,,,,,,,,0,,82,73
24167,note_on,104,0,2,,,,,,,,,,1,,75,0
24169,note_on,47,0,3,,,,,,,,,,2,,48,0
24172,note_on,19,0,1,,,,,,,,,,0,,82,0
24183,note_on,16,0,2,,,,,,,,,,1,,75,76
24184,note_on,12,0,1,,,,,,,,,,0,,81,73
24185,note_on,16,0,3,,,,,,,,,,2,,48,81
24199,note_on,15,0,1,,,,,,,,,,0,,81,0
24211,note_on,28,0,2,,,,,,,,,,1,,75,0
24214,note_on,15,0,1,,,,,,,,,,0,,79,85
24227,note_on,42,0,3,,,,,,,,,,2,,48,0
24234,note_on,20,0,1,,,,,,,,,,0,,79,0
24241,note_on,14,0,3,,,,,,,,,,2,,53,75
24246,note_on,35,0,2,,,,,,,,,,1,,77,100
24247,note_on,13,0,1,,,,,,,,,,0,,81,91
24274,note_on,27,0,1,,,,,,,,,,0,,81,0
24274,note_on,0,0,2,,,,,,,,,,1,,75,72
24274,note_on,28,0,2,,,,,,,,,,1,,77,0
24286,note_on,45,0,3,,,,,,,,,,2,,53,0
24291,note_on,17,0,2,,,,,,,,,,1,,75,0
24302,note_on,16,0,3,,,,,,,,,,2,,53,70
24305,note_on,14,0,2,,,,,,,,,,1,,74,64
24306,note_on,32,0,1,,,,,,,,,,0,,81,90
24321,note_on,16,0,2,,,,,,,,,,1,,74,0
24333,note_on,12,0,2,,,,,,,,,,1,,72,73
24344,note_on,42,0,3,,,,,,,,,,2,,53,0
24351,note_on,18,0,2,,,,,,,,,,1,,72,0
24360,note_on,16,0,3,,,,,,,,,,2,,53,76
24362,note_on,11,0,2,,,,,,,,,,1,,77,87
24388,note_on,26,0,2,,,,,,,,,,1,,75,72
24389,note_on,1,0,2,,,,,,,,,,1,,77,0
24397,note_on,91,0,1,,,,,,,,,,0,,81,0
24403,note_on,43,0,3,,,,,,,,,,2,,53,0
24407,note_on,18,0,2,,,,,,,,,,1,,75,0
24419,note_on,12,0,2,,,,,,,,,,1,,74,69
24419,note_on,16,0,3,,,,,,,,,,2,,53,81
24425,note_on,28,0,1,,,,,,,,,,0,,81,90
24436,note_on,17,0,2,,,,,,,,,,1,,74,0
24449,note_on,13,0,2,,,,,,,,,,1,,72,76
24451,note_on,26,0,1,,,,,,,,,,0,,81,0
24463,note_on,44,0,3,,,,,,,,,,2,,53,0
24467,note_on,18,0,2,,,,,,,,,,1,,72,0
24478,note_on,15,0,3,,,,,,,,,,2,,46,76
24480,note_on,13,0,2,,,,,,,,,,1,,74,72
24480,note_on,29,0,1,,,,,,,,,,0,,82,73
24508,note_on,28,0,2,,,,,,,,,,1,,74,0
24510,note_on,30,0,1,,,,,,,,,,0,,82,0
24510,note_on,0,0,1,,,,,,,,,,0,,81,81
24522,note_on,44,0,3,,,,,,,,,,2,,46,0
24529,note_on,19,0,1,,,,,,,,,,0,,81,0
24538,note_on,30,0,2,,,,,,,,,,1,,74,71
24539,note_on,17,0,3,,,,,,,,,,2,,46,84
24541,note_on,12,0,1,,,,,,,,,,0,,79,84
24556,note_on,15,0,1,,,,,,,,,,0,,79,0
24569,note_on,13,0,1,,,,,,,,,,0,,77,79
24584,note_on,45,0,3,,,,,,,,,,2,,46,0
24589,note_on,20,0,1,,,,,,,,,,0,,77,0
24599,note_on,10,0,1,,,,,,,,,,0,,82,83
24600,note_on,16,0,3,,,,,,,,,,2,,46,79
24627,note_on,0,0,1,,,,,,,,,,0,,81,74
24627,note_on,28,0,1,,,,,,,,,,0,,82,0
24637,note_on,99,0,2,,,,,,,,,,1,,74,0
24646,note_on,19,0,1,,,,,,,,,,0,,81,0
24646,note_on,46,0,3,,,,,,,,,,2,,46,0
24657,note_on,20,0,2,,,,,,,,,,1,,74,69
24660,note_on,14,0,1,,,,,,,,,,0,,79,81
24662,note_on,16,0,3,,,,,,,,,,2,,46,83
24676,note_on,16,0,1,,,,,,,,,,0,,79,0
24687,note_on,30,0,2,,,,,,,,,,1,,74,0
24687,note_on,11,0,1,,,,,,,,,,0,,77,79
24707,note_on,45,0,3,,,,,,,,,,2,,46,0
24709,note_on,22,0,1,,,,,,,,,,0,,77,0
24719,note_on,32,0,2,,,,,,,,,,1,,75,73
24721,note_on,12,0,1,,,,,,,,,,0,,79,90
24723,note_on,16,0,3,,,,,,,,,,2,,51,78
24748,note_on,29,0,2,,,,,,,,,,1,,74,65
24749,note_on,1,0,2,,,,,,,,,,1,,75,0
24753,note_on,32,0,1,,,,,,,,,,0,,79,0
24766,note_on,43,0,3,,,,,,,,,,2,,51,0
24768,note_on,19,0,2,,,,,,,,,,1,,74,0
24779,note_on,11,0,2,,,,,,,,,,1,,72,63
24783,note_on,17,0,3,,,,,,,,,,2,,51,77
24785,note_on,32,0,1,,,,,,,,,,0,,79,86
24796,note_on,17,0,2,,,,,,,,,,1,,72,0
24810,note_on,14,0,2,,,,,,,,,,1,,70,66
24828,note_on,45,0,3,,,,,,,,,,2,,51,0
24828,note_on,18,0,2,,,,,,,,,,1,,70,0
24840,note_on,12,0,2,,,,,,,,,,1,,75,65
24843,note_on,15,0,3,,,,,,,,,,2,,51,75
24868,note_on,28,0,2,,,,,,,,,,1,,74,59
24876,note_on,8,0,2,,,,,,,,,,1,,75,0
24879,note_on,94,0,1,,,,,,,,,,0,,79,0
24889,note_on,13,0,2,,,,,,,,,,1,,74,0
24889,note_on,46,0,3,,,,,,,,,,2,,51,0
24899,note_on,10,0,2,,,,,,,,,,1,,72,64
24903,note_on,14,0,3,,,,,,,,,,2,,51,76
24903,note_on,24,0,1,,,,,,,,,,0,,79,82
24917,note_on,18,0,2,,,,,,,,,,1,,72,0
24930,note_on,13,0,2,,,,,,,,,,1,,70,64
24932,note_on,29,0,1,,,,,,,,,,0,,79,0
24947,note_on,44,0,3,,,,,,,,,,2,,51,0
24948,note_on,18,0,2,,,,,,,,,,1,,70,0
24962,note_on,30,0,1,,,,,,,,,,0,,81,93
24962,note_on,14,0,2,,,,,,,,,,1,,72,73
24965,note_on,18,0,3,,,,,,,,,,2,,45,85
24993,note_on,31,0,2,,,,,,,,,,1,,72,0
24994,note_on,0,0,1,,,,,,,,,,0,,79,88
24994,note_on,32,0,1,,,,,,,,,,0,,81,0
25009,note_on,15,0,1,,,,,,,,,,0,,79,0
25009,note_on,44,0,3,,,,,,,,,,2,,45,0
25023,note_on,30,0,2,,,,,,,,,,1,,72,71
25024,note_on,15,0,3,,,,,,,,,,2,,45,83
25025,note_on,16,0,1,,,,,,,,,,0,,78,83
25039,note_on,14,0,1,,,,,,,,,,0,,78,0
25054,note_on,15,0,1,,,,,,,,,,0,,76,84
25068,note_on,44,0,3,,,,,,,,,,2,,45,0
25071,note_on,17,0,1,,,,,,,,,,0,,76,0
25083,note_on,12,0,1,,,,,,,,,,0,,81,89
25083,note_on,15,0,3,,,,,,,,,,2,,45,76
25112,note_on,0,0,1,,,,,,,,,,0,,79,90
25112,note_on,29,0,1,,,,,,,,,,0,,81,0
25124,note_on,101,0,2,,,,,,,,,,1,,72,0
25128,note_on,45,0,3,,,,,,,,,,2,,45,0
25129,note_on,17,0,1,,,,,,,,,,0,,79,0
25142,note_on,14,0,3,,,,,,,,,,2,,45,82
25144,note_on,20,0,2,,,,,,,,,,1,,72,87
25144,note_on,15,0,1,,,,,,,,,,0,,78,93
25161,note_on,17,0,1,,,,,,,,,,0,,78,0
25173,note_on,12,0,1,,,,,,,,,,0,,76,92
25184,note_on,40,0,2,,,,,,,,,,1,,72,0
25190,note_on,48,0,3,,,,,,,,,,2,,45,0
25191,note_on,18,0,1,,,,,,,,,,0,,76,0
25202,note_on,18,0,2,,,,,,,,,,1,,72,73
25203,note_on,12,0,1,,,,,,,,,,0,,78,95
25205,note_on,15,0,3,,,,,,,,,,2,,50,85
25206,set_tempo,2655,1,0,,,,,,576923,,,,,,,
25220,set_tempo,14,1,0,,,,,,582524,,,,,,,
25234,set_tempo,14,1,0,,,,,,588235,,,,,,,
25243,note_on,40,0,1,,,,,,,,,,0,,78,0
25246,note_on,41,0,3,,,,,,,,,,2,,50,0
25248,set_tempo,14,1,0,,,,,,594059,,,,,,,
25249,note_on,47,0,2,,,,,,,,,,1,,72,0
25261,set_tempo,13,1,0,,,,,,600000,,,,,,,
25262,note_on,19,0,1,,,,,,,,,,0,,79,93
25263,note_on,14,0,2,,,,,,,,,,1,,70,82
25263,note_on,17,0,3,,,,,,,,,,2,,43,92
25275,set_tempo,14,1,0,,,,,,606061,,,,,,,
25289,set_tempo,14,1,0,,,,,,612245,,,,,,,
25303,set_tempo,14,1,0,,,,,,618557,,,,,,,
25303,note_on,41,0,1,,,,,,,,,,0,,79,0
25309,note_on,46,0,2,,,,,,,,,,1,,70,0
25310,note_on,47,0,3,,,,,,,,,,2,,43,0
25315,set_tempo,12,1,0,,,,,,625000,,,,,,,
25321,note_on,11,0,3,,,,,,,,,,2,,50,85
25323,note_on,20,0,1,,,,,,,,,,0,,79,95
25323,note_on,14,0,2,,,,,,,,,,1,,69,86
25330,set_tempo,15,1,0,,,,,,631579,,,,,,,
25344,set_tempo,14,1,0,,,,,,638298,,,,,,,
25358,set_tempo,14,1,0,,,,,,645161,,,,,,,
25366,note_on,43,0,1,,,,,,,,,,0,,79,0
25368,note_on,45,0,2,,,,,,,,,,1,,69,0
25369,note_on,48,0,3,,,,,,,,,,2,,50,0
25370,set_tempo,12,1,0,,,,,,652174,,,,,,,
25379,note_on,10,0,3,,,,,,,,,,2,,38,85
25383,note_on,15,0,2,,,,,,,,,,1,,69,88
25385,set_tempo,15,1,0,,,,,,659341,,,,,,,
25385,note_on,19,0,1,,,,,,,,,,0,,78,93
25399,set_tempo,14,1,0,,,,,,666667,,,,,,,
25413,set_tempo,14,1,0,,,,,,674157,,,,,,,
25425,set_tempo,12,1,0,,,,,,681818,,,,,,,
25426,note_on,41,0,1,,,,,,,,,,0,,78,0
25429,note_on,46,0,2,,,,,,,,,,1,,69,0
25431,note_on,52,0,3,,,,,,,,,,2,,38,0
25440,set_tempo,15,1,0,,,,,,689655,,,,,,,
25441,note_on,12,0,2,,,,,,,,,,1,,70,73
25442,note_on,11,0,3,,,,,,,,,,2,,43,81
25443,note_on,17,0,1,,,,,,,,,,0,,79,95
25444,set_tempo,4,1,0,,,,,,697674,,,,,,,
25454,set_tempo,10,1,0,,,,,,705882,,,,,,,
25464,set_tempo,10,1,0,,,,,,714286,,,,,,,
25472,set_tempo,8,1,0,,,,,,722892,,,,,,,
25480,set_tempo,8,1,0,,,,,,731707,,,,,,,
25484,note_on,42,0,3,,,,,,,,,,2,,43,0
25484,note_on,43,0,2,,,,,,,,,,1,,70,0
25486,set_tempo,6,1,0,,,,,,740741,,,,,,,
25486,note_on,43,0,1,,,,,,,,,,0,,79,0
25492,set_tempo,6,1,0,,,,,,750000,,,,,,,
25496,set_tempo,4,1,0,,,,,,759494,,,,,,,
25500,note_on,16,0,2,,,,,,,,,,1,,70,84
25503,set_tempo,7,1,0,,,,,,769231,,,,,,,
25503,note_on,19,0,3,,,,,,,,,,2,,55,76
25506,note_on,20,0,1,,,,,,,,,,0,,79,95
25507,set_tempo,4,1,0,,,,,,779221,,,,,,,
25513,set_tempo,6,1,0,,,,,,789474,,,,,,,
25517,set_tempo,4,1,0,,,,,,800000,,,,,,,
25523,set_tempo,6,1,0,,,,,,810811,,,,,,,
25527,set_tempo,4,1,0,,,,,,821918,,,,,,,
25533,set_tempo,6,1,0,,,,,,833333,,,,,,,
25537,set_tempo,4,1,0,,,,,,845070,,,,,,,
25543,set_tempo,6,1,0,,,,,,857143,,,,,,,
25544,note_on,41,0,3,,,,,,,,,,2,,55,0
25546,note_on,40,0,1,,,,,,,,,,0,,79,0
25547,note_on,47,0,2,,,,,,,,,,1,,70,0
25547,set_tempo,4,1,0,,,,,,869565,,,,,,,
25553,set_tempo,6,1,0,,,,,,882353,,,,,,,
25557,set_tempo,4,1,0,,,,,,895522,,,,,,,
25563,note_on,16,0,2,,,,,,,,,,1,,69,86
25564,set_tempo,7,1,0,,,,,,909091,,,,,,,
25564,note_on,20,0,3,,,,,,,,,,2,,50,77
25565,note_on,19,0,1,,,,,,,,,,0,,79,98
25568,set_tempo,4,1,0,,,,,,923077,,,,,,,
25574,set_tempo,6,1,0,,,,,,937500,,,,,,,
25578,set_tempo,4,1,0,,,,,,952381,,,,,,,
25584,set_tempo,6,1,0,,,,,,967742,,,,,,,
25588,set_tempo,4,1,0,,,,,,983607,,,,,,,
25594,set_tempo,6,1,0,,,,,,1000000,,,,,,,
25598,set_tempo,4,1,0,,,,,,1016949,,,,,,,
25604,set_tempo,6,1,0,,,,,,1034483,,,,,,,
25607,note_on,43,0,3,,,,,,,,,,2,,50,0
25607,note_on,44,0,2,,,,,,,,,,1,,69,0
25608,set_tempo,4,1,0,,,,,,1052632,,,,,,,
25609,note_on,44,0,1,,,,,,,,,,0,,79,0
25614,set_tempo,6,1,0,,,,,,1071429,,,,,,,
25618,set_tempo,4,1,0,,,,,,1090909,,,,,,,
25624,note_on,17,0,2,,,,,,,,,,1,,69,86
25624,note_on,17,0,3,,,,,,,,,,2,,38,72
25625,set_tempo,7,1,0,,,,,,1111111,,,,,,,
25626,note_on,17,0,1,,,,,,,,,,0,,78,102
25629,set_tempo,4,1,0,,,,,,1132075,,,,,,,
25635,set_tempo,6,1,0,,,,,,1153846,,,,,,,
25639,set_tempo,4,1,0,,,,,,1176471,,,,,,,
25645,set_tempo,6,1,0,,,,,,1200000,,,,,,,
25651,set_tempo,6,1,0,,,,,,1224490,,,,,,,
25655,set_tempo,4,1,0,,,,,,1250000,,,,,,,
25661,set_tempo,6,1,0,,,,,,1276596,,,,,,,
25665,set_tempo,4,1,0,,,,,,1304348,,,,,,,
25667,note_on,43,0,3,,,,,,,,,,2,,38,0
25669,note_on,45,0,2,,,,,,,,,,1,,69,0
25670,note_on,44,0,1,,,,,,,,,,0,,78,0
25671,set_tempo,6,1,0,,,,,,1333333,,,,,,,
25675,set_tempo,4,1,0,,,,,,1363636,,,,,,,
25682,set_tempo,7,1,0,,,,,,1395349,,,,,,,
25683,note_on,16,0,3,,,,,,,,,,2,,43,87
25684,note_on,15,0,2,,,,,,,,,,1,,67,88
25686,set_tempo,4,1,0,,,,,,1428571,,,,,,,
25686,note_on,16,0,1,,,,,,,,,,0,,79,97
25692,set_tempo,6,1,0,,,,,,1463415,,,,,,,
25696,set_tempo,4,1,0,,,,,,1500000,,,,,,,
25702,set_tempo,6,1,0,,,,,,1538462,,,,,,,
25706,set_tempo,4,1,0,,,,,,1578947,,,,,,,
25712,set_tempo,6,1,0,,,,,,1621622,,,,,,,
25716,set_tempo,4,1,0,,,,,,1666667,,,,,,,
25722,set_tempo,6,1,0,,,,,,1714286,,,,,,,
25726,set_tempo,4,1,0,,,,,,1764706,,,,,,,
25732,set_tempo,6,1,0,,,,,,1818182,,,,,,,
25736,set_tempo,4,1,0,,,,,,1875000,,,,,,,
25743,set_tempo,7,1,0,,,,,,1935484,,,,,,,
25747,set_tempo,4,1,0,,,,,,2000000,,,,,,,
25753,set_tempo,6,1,0,,,,,,2068966,,,,,,,
25757,set_tempo,4,1,0,,,,,,2142857,,,,,,,
25763,set_tempo,6,1,0,,,,,,2222222,,,,,,,
25767,set_tempo,4,1,0,,,,,,2307692,,,,,,,
25771,set_tempo,4,1,0,,,,,,2222222,,,,,,,
25775,set_tempo,4,1,0,,,,,,2142857,,,,,,,
25779,set_tempo,4,1,0,,,,,,2068966,,,,,,,
25783,set_tempo,4,1,0,,,,,,2000000,,,,,,,
25787,set_tempo,4,1,0,,,,,,1935484,,,,,,,
25791,set_tempo,4,1,0,,,,,,1875000,,,,,,,
25795,set_tempo,4,1,0,,,,,,1818182,,,,,,,
25800,set_tempo,5,1,0,,,,,,1764706,,,,,,,
25804,set_tempo,4,1,0,,,,,,1714286,,,,,,,
25808,set_tempo,4,1,0,,,,,,1666667,,,,,,,
25812,set_tempo,4,1,0,,,,,,1621622,,,,,,,
25816,set_tempo,4,1,0,,,,,,1578947,,,,,,,
25820,set_tempo,4,1,0,,,,,,1538462,,,,,,,
25824,set_tempo,4,1,0,,,,,,1500000,,,,,,,
25828,set_tempo,4,1,0,,,,,,1463415,,,,,,,
25832,set_tempo,4,1,0,,,,,,1428571,,,,,,,
25832,end_of_track,0,1,3,,,,,,,,,,,,,
25832,note_on,149,0,3,,,,,,,,,,2,,43,0
25834,set_tempo,2,1,0,,,,,,1395349,,,,,,,
25838,set_tempo,4,1,0,,,,,,1363636,,,,,,,
25838,note_on,152,0,1,,,,,,,,,,0,,79,0
25842,set_tempo,4,1,0,,,,,,1333333,,,,,,,
25844,note_on,160,0,2,,,,,,,,,,1,,67,0
25844,end_of_track,0,1,2,,,,,,,,,,,,,
25846,set_tempo,4,1,0,,,,,,1304348,,,,,,,
25850,set_tempo,4,1,0,,,,,,1276596,,,,,,,
25854,set_tempo,4,1,0,,,,,,1250000,,,,,,,
25858,set_tempo,4,1,0,,,,,,1224490,,,,,,,
25863,set_tempo,5,1,0,,,,,,1200000,,,,,,,
25867,set_tempo,4,1,0,,,,,,1176471,,,,,,,
25871,set_tempo,4,1,0,,,,,,1153846,,,,,,,
25875,set_tempo,4,1,0,,,,,,1132075,,,,,,,
25879,set_tempo,4,1,0,,,,,,1111111,,,,,,,
25883,set_tempo,4,1,0,,,,,,1090909,,,,,,,
25887,set_tempo,4,1,0,,,,,,1071429,,,,,,,
25891,set_tempo,4,1,0,,,,,,1052632,,,,,,,
25895,set_tempo,4,1,0,,,,,,1034483,,,,,,,
25899,set_tempo,4,1,0,,,,,,1016949,,,,,,,
25901,set_tempo,2,1,0,,,,,,1000000,,,,,,,
26003,control_change,165,0,1,,,,,,,,64,127,0,,,
26028,control_change,25,0,1,,,,,,,,64,0,0,,,
26057,control_change,29,0,1,,,,,,,,64,127,0,,,
26070,control_change,13,0,1,,,,,,,,64,0,0,,,
26105,control_change,35,0,1,,,,,,,,64,127,0,,,
26128,control_change,23,0,1,,,,,,,,64,0,0,,,
26173,control_change,45,0,1,,,,,,,,64,127,0,,,
26189,control_change,16,0,1,,,,,,,,64,0,0,,,
26244,control_change,55,0,1,,,,,,,,64,127,0,,,
26260,control_change,16,0,1,,,,,,,,64,0,0,,,
26299,control_change,39,0,1,,,,,,,,64,127,0,,,
26319,control_change,20,0,1,,,,,,,,64,0,0,,,
26361,control_change,42,0,1,,,,,,,,64,127,0,,,
26378,control_change,17,0,1,,,,,,,,64,0,0,,,
26418,control_change,40,0,1,,,,,,,,64,127,0,,,
26431,control_change,13,0,1,,,,,,,,64,0,0,,,
26488,control_change,57,0,1,,,,,,,,64,127,0,,,
26496,control_change,8,0,1,,,,,,,,64,0,0,,,
26537,control_change,41,0,1,,,,,,,,64,127,0,,,
26559,control_change,22,0,1,,,,,,,,64,0,0,,,
26583,control_change,24,0,1,,,,,,,,64,127,0,,,
26594,control_change,11,0,1,,,,,,,,64,0,0,,,
26594,end_of_track,0,1,1,,,,,,,,,,,,,
61913,set_tempo,36012,1,0,,,,,,530973,,,,,,,
61917,set_tempo,4,1,0,,,,,,535714,,,,,,,
61922,set_tempo,5,1,0,,,,,,540541,,,,,,,
61926,set_tempo,4,1,0,,,,,,545455,,,,,,,
61930,set_tempo,4,1,0,,,,,,550459,,,,,,,
61934,set_tempo,4,1,0,,,,,,555556,,,,,,,
61938,set_tempo,4,1,0,,,,,,560748,,,,,,,
61942,set_tempo,4,1,0,,,,,,566038,,,,,,,
61946,set_tempo,4,1,0,,,,,,571429,,,,,,,
61950,set_tempo,4,1,0,,,,,,576923,,,,,,,
61954,set_tempo,4,1,0,,,,,,582524,,,,,,,
61958,set_tempo,4,1,0,,,,,,588235,,,,,,,
61962,set_tempo,4,1,0,,,,,,594059,,,,,,,
61966,set_tempo,4,1,0,,,,,,600000,,,,,,,
61970,set_tempo,4,1,0,,,,,,606061,,,,,,,
61974,set_tempo,4,1,0,,,,,,612245,,,,,,,
61978,set_tempo,4,1,0,,,,,,618557,,,,,,,
61983,set_tempo,5,1,0,,,,,,625000,,,,,,,
61987,set_tempo,4,1,0,,,,,,631579,,,,,,,
61991,set_tempo,4,1,0,,,,,,638298,,,,,,,
61995,set_tempo,4,1,0,,,,,,645161,,,,,,,
61999,set_tempo,4,1,0,,,,,,652174,,,,,,,
62003,set_tempo,4,1,0,,,,,,659341,,,,,,,
62007,set_tempo,4,1,0,,,,,,666667,,,,,,,
62011,set_tempo,4,1,0,,,,,,674157,,,,,,,
62015,set_tempo,4,1,0,,,,,,681818,,,,,,,
62019,set_tempo,4,1,0,,,,,,689655,,,,,,,
62023,set_tempo,4,1,0,,,,,,697674,,,,,,,
62027,set_tempo,4,1,0,,,,,,705882,,,,,,,
62031,set_tempo,4,1,0,,,,,,714286,,,,,,,
62035,set_tempo,4,1,0,,,,,,722892,,,,,,,
62040,set_tempo,5,1,0,,,,,,731707,,,,,,,
62042,set_tempo,2,1,0,,,,,,731707,,,,,,,
62048,set_tempo,6,1,0,,,,,,740741,,,,,,,
62054,set_tempo,6,1,0,,,,,,750000,,,,,,,
62060,set_tempo,6,1,0,,,,,,759494,,,,,,,
62066,set_tempo,6,1,0,,,,,,769231,,,,,,,
62072,set_tempo,6,1,0,,,,,,779221,,,,,,,
62078,set_tempo,6,1,0,,,,,,789474,,,,,,,
62084,set_tempo,6,1,0,,,,,,800000,,,,,,,
62090,set_tempo,6,1,0,,,,,,810811,,,,,,,
62096,set_tempo,6,1,0,,,,,,821918,,,,,,,
62103,set_tempo,7,1,0,,,,,,833333,,,,,,,
62109,set_tempo,6,1,0,,,,,,845070,,,,,,,
62115,set_tempo,6,1,0,,,,,,857143,,,,,,,
62119,set_tempo,4,1,0,,,,,,869565,,,,,,,
62125,set_tempo,6,1,0,,,,,,882353,,,,,,,
62131,set_tempo,6,1,0,,,,,,895522,,,,,,,
62137,set_tempo,6,1,0,,,,,,909091,,,,,,,
62143,set_tempo,6,1,0,,,,,,923077,,,,,,,
62149,set_tempo,6,1,0,,,,,,937500,,,,,,,
62155,set_tempo,6,1,0,,,,,,952381,,,,,,,
62162,set_tempo,7,1,0,,,,,,967742,,,,,,,
62168,set_tempo,6,1,0,,,,,,983607,,,,,,,
62174,set_tempo,6,1,0,,,,,,1000000,,,,,,,
62180,set_tempo,6,1,0,,,,,,1016949,,,,,,,
62186,set_tempo,6,1,0,,,,,,1034483,,,,,,,
62190,set_tempo,4,1,0,,,,,,1071429,,,,,,,
62198,set_tempo,8,1,0,,,,,,1090909,,,,,,,
62206,set_tempo,8,1,0,,,,,,1111111,,,,,,,
62212,set_tempo,6,1,0,,,,,,1132075,,,,,,,
62221,set_tempo,9,1,0,,,,,,1153846,,,,,,,
62227,set_tempo,6,1,0,,,,,,1176471,,,,,,,
62235,set_tempo,8,1,0,,,,,,1200000,,,,,,,
62243,set_tempo,8,1,0,,,,,,1224490,,,,,,,
62249,set_tempo,6,1,0,,,,,,1250000,,,,,,,
62257,set_tempo,8,1,0,,,,,,1276596,,,,,,,
62263,set_tempo,6,1,0,,,,,,1304348,,,,,,,
62273,set_tempo,10,1,0,,,,,,1153846,,,,,,,
62290,set_tempo,17,1,0,,,,,,1176471,,,,,,,
62292,set_tempo,2,1,0,,,,,,1034483,,,,,,,
62298,set_tempo,6,1,0,,,,,,1016949,,,,,,,
62798,set_tempo,500,1,0,,,,,,2068966,,,,,,,
62922,set_tempo,124,1,0,,,,,,7500000,,,,,,,
62922,end_of_track,0,1,0,,,,,,,,,,,,,
