tick,type,numerator,denominator,clocks_per_click,notated_32nd_notes_per_beat,time,meta,track,data,tempo,control,value,channel,program,key,note,velocity
0,time_signature,2,4,96,8,0,1,0,,,,,,,,,
0,end_of_track,,,,,0,1,6,,,,,,,,,
0,track_name,,,,,0,1,7,,,,,,,,,
0,control_change,,,,,0,0,7,,,0,0,0,,,,
0,program_change,,,,,0,0,7,,,,,0,48,,,
0,control_change,,,,,0,0,7,,,7,100,0,,,,
0,control_change,,,,,0,0,7,,,10,41,0,,,,
0,control_change,,,,,0,0,7,,,91,66,0,,,,
0,key_signature,,,,,0,1,7,,,,,,,Em,,
0,key_signature,,,,,0,1,6,,,,,,,Em,,
0,end_of_track,,,,,0,1,7,,,,,,,,,
0,control_change,,,,,0,0,8,,,0,0,0,,,,
0,program_change,,,,,0,0,8,,,,,0,48,,,
0,control_change,,,,,0,0,8,,,7,100,0,,,,
0,control_change,,,,,0,0,8,,,10,41,0,,,,
0,control_change,,,,,0,0,8,,,91,66,0,,,,
0,key_signature,,,,,0,1,8,,,,,,,Em,,
0,note_on,,,,,0,0,8,,,,,0,,,83,90
0,note_on,,,,,0,0,14,,,,,5,,,52,100
0,track_name,,,,,0,1,8,,,,,,,,,
0,key_signature,,,,,0,1,14,,,,,,,Em,,
0,control_change,,,,,0,0,6,,,91,66,0,,,,
0,control_change,,,,,0,0,6,,,7,100,0,,,,
0,control_change,,,,,0,0,4,,,0,0,0,,,,
0,program_change,,,,,0,0,4,,,,,0,48,,,
0,control_change,,,,,0,0,4,,,7,100,0,,,,
0,control_change,,,,,0,0,4,,,10,41,0,,,,
0,control_change,,,,,0,0,4,,,91,66,0,,,,
0,key_signature,,,,,0,1,4,,,,,,,Em,,
0,end_of_track,,,,,0,1,4,,,,,,,,,
0,track_name,,,,,0,1,5,,,,,,,,,
0,control_change,,,,,0,0,6,,,10,41,0,,,,
0,control_change,,,,,0,0,5,,,0,0,0,,,,
0,control_change,,,,,0,0,5,,,7,100,0,,,,
0,control_change,,,,,0,0,5,,,10,41,0,,,,
0,control_change,,,,,0,0,5,,,91,66,0,,,,
0,key_signature,,,,,0,1,5,,,,,,,Em,,
0,end_of_track,,,,,0,1,5,,,,,,,,,
0,track_name,,,,,0,1,6,,,,,,,,,
0,control_change,,,,,0,0,6,,,0,0,0,,,,
0,program_change,,,,,0,0,6,,,,,0,48,,,
0,program_change,,,,,0,0,5,,,,,0,48,,,
0,track_name,,,,,0,1,4,,,,,,,,,
0,control_change,,,,,0,0,14,,,91,60,5,,,,
0,program_change,,,,,0,0,14,,,,,5,6,,,
0,control_change,,,,,0,0,9,,,7,100,1,,,,
0,control_change,,,,,0,0,9,,,10,47,1,,,,
0,control_change,,,,,0,0,9,,,91,66,1,,,,
0,key_signature,,,,,0,1,9,,,,,,,Em,,
0,note_on,,,,,0,0,9,,,,,1,,,79,90
0,note_on,,,,,0,0,11,,,,,3,,,52,90
0,key_signature,,,,,0,1,11,,,,,,,Em,,
0,control_change,,,,,0,0,11,,,91,63,3,,,,
0,program_change,,,,,0,0,9,,,,,1,48,,,
0,control_change,,,,,0,0,11,,,10,88,3,,,,
0,program_change,,,,,0,0,11,,,,,3,48,,,
0,control_change,,,,,0,0,11,,,0,0,3,,,,
0,track_name,,,,,0,1,11,,,,,,,,,
0,note_on,,,,,0,0,10,,,,,2,,,71,90
0,key_signature,,,,,0,1,10,,,,,,,Em,,
0,control_change,,,,,0,0,10,,,91,66,2,,,,
0,control_change,,,,,0,0,10,,,7,95,2,,,,
0,program_change,,,,,0,0,10,,,,,2,48,,,
0,control_change,,,,,0,0,11,,,7,82,3,,,,
0,control_change,,,,,0,0,14,,,7,55,5,,,,
0,control_change,,,,,0,0,9,,,0,0,1,,,,
0,track_name,,,,,0,1,12,,,,,,,,,
0,control_change,,,,,0,0,14,,,0,0,5,,,,
0,track_name,,,,,0,1,14,,,,,,,,,
0,control_change,,,,,0,0,10,,,0,0,2,,,,
0,note_on,,,,,0,0,13,,,,,5,,,67,100
0,note_on,,,,,0,0,13,,,,,5,,,71,100
0,key_signature,,,,,0,1,13,,,,,,,Em,,
0,control_change,,,,,0,0,13,,,91,60,5,,,,
0,control_change,,,,,0,0,13,,,7,55,5,,,,
0,track_name,,,,,0,1,9,,,,,,,,,
0,program_change,,,,,0,0,13,,,,,5,6,,,
0,track_name,,,,,0,1,13,,,,,,,,,
0,note_on,,,,,0,0,12,,,,,4,,,40,90
0,key_signature,,,,,0,1,12,,,,,,,Em,,
0,control_change,,,,,0,0,12,,,91,65,4,,,,
0,control_change,,,,,0,0,12,,,10,96,4,,,,
0,control_change,,,,,0,0,12,,,7,77,4,,,,
0,program_change,,,,,0,0,12,,,,,4,48,,,
0,control_change,,,,,0,0,12,,,0,0,4,,,,
0,control_change,,,,,0,0,13,,,0,0,5,,,,
0,end_of_track,,,,,0,1,3,,,,,,,,,
0,track_name,,,,,0,1,10,,,,,,,,,
0,program_change,,,,,0,0,3,,,,,0,48,,,
0,key_signature,,,,,0,1,3,,,,,,,Em,,
0,set_tempo,,,,,0,1,0,,500000,,,,,,,
0,sequencer_specific,,,,,0,1,0,"(0, 0, 119, 14, 1)",,,,,,,,
0,sequencer_specific,,,,,0,1,0,"(0, 0, 65)",,,,,,,,
0,track_name,,,,,0,1,1,,,,,,,,,
0,track_name,,,,,0,1,2,,,,,,,,,
0,end_of_track,,,,,0,1,1,,,,,,,,,
0,track_name,,,,,0,1,3,,,,,,,,,
0,control_change,,,,,0,0,3,,,0,0,0,,,,
0,control_change,,,,,0,0,3,,,7,100,0,,,,
0,control_change,,,,,0,0,3,,,10,41,0,,,,
0,control_change,,,,,0,0,3,,,91,66,0,,,,
0,end_of_track,,,,,0,1,2,,,,,,,,,
128,note_off,,,,,128,0,8,,,,,0,,,83,100
128,note_off,,,,,128,0,14,,,,,5,,,52,100
128,note_off,,,,,128,0,11,,,,,3,,,52,100
128,note_off,,,,,128,0,13,,,,,5,,,71,100
128,note_off,,,,,0,0,13,,,,,5,,,67,100
128,note_off,,,,,128,0,12,,,,,4,,,40,100
192,note_on,,,,,64,0,8,,,,,0,,,76,90
192,note_on,,,,,64,0,13,,,,,5,,,71,100
192,note_on,,,,,64,0,12,,,,,4,,,42,90
192,note_on,,,,,64,0,14,,,,,5,,,54,100
192,note_on,,,,,0,0,13,,,,,5,,,67,100
192,note_on,,,,,64,0,11,,,,,3,,,54,90
320,note_off,,,,,128,0,11,,,,,3,,,54,100
320,note_off,,,,,128,0,8,,,,,0,,,76,100
320,note_off,,,,,128,0,12,,,,,4,,,42,100
320,note_off,,,,,128,0,14,,,,,5,,,54,100
320,note_off,,,,,128,0,13,,,,,5,,,71,100
320,note_off,,,,,0,0,13,,,,,5,,,67,100
384,note_on,,,,,0,0,13,,,,,5,,,71,100
384,note_on,,,,,64,0,8,,,,,0,,,76,90
384,note_on,,,,,64,0,12,,,,,4,,,43,90
384,note_on,,,,,64,0,13,,,,,5,,,64,100
384,note_off,,,,,384,0,10,,,,,2,,,71,100
384,note_on,,,,,64,0,14,,,,,5,,,55,100
384,note_on,,,,,64,0,11,,,,,3,,,55,90
384,note_off,,,,,384,0,9,,,,,1,,,79,100
512,note_off,,,,,128,0,14,,,,,5,,,55,100
512,note_off,,,,,128,0,12,,,,,4,,,43,100
512,note_off,,,,,128,0,13,,,,,5,,,64,100
512,note_off,,,,,128,0,11,,,,,3,,,55,100
512,note_off,,,,,128,0,8,,,,,0,,,76,100
512,note_off,,,,,0,0,13,,,,,5,,,71,100
576,note_on,,,,,192,0,9,,,,,1,,,84,90
576,note_on,,,,,192,0,10,,,,,2,,,72,90
576,note_on,,,,,64,0,13,,,,,5,,,66,100
576,note_on,,,,,0,0,13,,,,,5,,,72,100
576,note_on,,,,,64,0,12,,,,,4,,,45,90
576,note_on,,,,,64,0,8,,,,,0,,,78,90
576,note_on,,,,,64,0,11,,,,,3,,,57,90
576,note_on,,,,,64,0,14,,,,,5,,,57,100
704,note_off,,,,,128,0,12,,,,,4,,,45,100
704,note_off,,,,,128,0,13,,,,,5,,,66,100
704,note_off,,,,,128,0,8,,,,,0,,,78,100
704,note_off,,,,,128,0,11,,,,,3,,,57,100
704,note_off,,,,,128,0,14,,,,,5,,,57,100
704,note_off,,,,,128,0,10,,,,,2,,,72,100
704,note_off,,,,,128,0,9,,,,,1,,,84,100
704,note_off,,,,,0,0,13,,,,,5,,,72,100
768,note_on,,,,,64,0,13,,,,,5,,,66,100
768,note_on,,,,,64,0,14,,,,,5,,,59,100
768,note_on,,,,,0,0,13,,,,,5,,,75,100
768,note_on,,,,,64,0,8,,,,,0,,,75,90
768,note_on,,,,,64,0,12,,,,,4,,,47,90
768,note_on,,,,,64,0,11,,,,,3,,,59,90
768,note_on,,,,,64,0,9,,,,,1,,,78,90
768,note_on,,,,,64,0,10,,,,,2,,,71,90
896,note_off,,,,,128,0,11,,,,,3,,,59,100
896,note_off,,,,,128,0,12,,,,,4,,,47,100
896,note_off,,,,,128,0,13,,,,,5,,,66,100
896,note_off,,,,,0,0,13,,,,,5,,,75,100
896,note_off,,,,,128,0,14,,,,,5,,,59,100
960,note_on,,,,,64,0,13,,,,,5,,,66,100
960,note_on,,,,,64,0,12,,,,,4,,,35,90
960,note_on,,,,,64,0,14,,,,,5,,,47,100
960,note_on,,,,,64,0,11,,,,,3,,,47,90
960,note_on,,,,,0,0,13,,,,,5,,,63,100
1088,note_off,,,,,128,0,11,,,,,3,,,47,100
1088,note_off,,,,,128,0,13,,,,,5,,,66,100
1088,note_off,,,,,128,0,14,,,,,5,,,47,100
1088,note_off,,,,,128,0,12,,,,,4,,,35,100
1088,note_off,,,,,0,0,13,,,,,5,,,63,100
1152,note_off,,,,,384,0,10,,,,,2,,,71,100
1152,note_on,,,,,64,0,12,,,,,4,,,35,90
1152,note_on,,,,,0,0,13,,,,,5,,,63,100
1152,note_off,,,,,384,0,9,,,,,1,,,78,100
1152,note_on,,,,,64,0,13,,,,,5,,,66,100
1152,note_on,,,,,64,0,14,,,,,5,,,47,100
1152,note_off,,,,,384,0,8,,,,,0,,,75,100
1152,note_on,,,,,64,0,11,,,,,3,,,47,90
1280,note_off,,,,,128,0,11,,,,,3,,,47,100
1280,note_off,,,,,128,0,13,,,,,5,,,66,100
1280,note_off,,,,,128,0,12,,,,,4,,,35,100
1280,note_off,,,,,128,0,14,,,,,5,,,47,100
1280,note_off,,,,,0,0,13,,,,,5,,,63,100
1344,note_on,,,,,0,0,13,,,,,5,,,71,100
1344,note_on,,,,,64,0,12,,,,,4,,,40,90
1344,note_on,,,,,64,0,14,,,,,5,,,52,100
1344,note_on,,,,,64,0,13,,,,,5,,,67,100
1344,note_on,,,,,192,0,9,,,,,1,,,79,90
1344,note_on,,,,,64,0,11,,,,,3,,,52,90
1344,note_on,,,,,192,0,8,,,,,0,,,76,90
1344,note_on,,,,,192,0,10,,,,,2,,,71,90
1472,note_off,,,,,128,0,9,,,,,1,,,79,100
1472,note_off,,,,,128,0,10,,,,,2,,,71,100
1472,note_off,,,,,128,0,8,,,,,0,,,76,100
1472,note_off,,,,,128,0,11,,,,,3,,,52,100
1472,note_off,,,,,0,0,13,,,,,5,,,71,100
1472,note_off,,,,,128,0,12,,,,,4,,,40,100
1472,note_off,,,,,128,0,13,,,,,5,,,67,100
1472,note_off,,,,,128,0,14,,,,,5,,,52,100
1536,note_on,,,,,64,0,8,,,,,0,,,78,90
1536,note_on,,,,,64,0,11,,,,,3,,,59,90
1536,note_on,,,,,64,0,13,,,,,5,,,66,100
1536,note_on,,,,,0,0,13,,,,,5,,,75,100
1536,note_on,,,,,64,0,14,,,,,5,,,59,100
1536,note_on,,,,,64,0,10,,,,,2,,,66,90
1536,note_on,,,,,64,0,9,,,,,1,,,75,90
1536,note_on,,,,,64,0,12,,,,,4,,,47,90
1664,note_off,,,,,128,0,8,,,,,0,,,78,100
1664,note_off,,,,,0,0,13,,,,,5,,,75,100
1664,note_off,,,,,128,0,13,,,,,5,,,66,100
1664,note_off,,,,,128,0,12,,,,,4,,,47,100
1664,note_off,,,,,128,0,10,,,,,2,,,66,100
1664,note_off,,,,,128,0,14,,,,,5,,,59,100
1664,note_off,,,,,128,0,11,,,,,3,,,59,100
1728,note_on,,,,,64,0,10,,,,,2,,,64,90
1728,note_on,,,,,64,0,14,,,,,5,,,61,100
1728,note_on,,,,,0,0,13,,,,,5,,,66,100
1728,note_on,,,,,64,0,8,,,,,0,,,69,90
1728,note_on,,,,,64,0,12,,,,,4,,,49,90
1728,note_on,,,,,64,0,11,,,,,3,,,61,90
1728,note_on,,,,,64,0,13,,,,,5,,,69,100
1856,note_off,,,,,128,0,12,,,,,4,,,49,100
1856,note_off,,,,,128,0,14,,,,,5,,,61,100
1856,note_off,,,,,128,0,8,,,,,0,,,69,100
1856,note_off,,,,,128,0,10,,,,,2,,,64,100
1856,note_off,,,,,0,0,13,,,,,5,,,66,100
1856,note_off,,,,,128,0,13,,,,,5,,,69,100
1856,note_off,,,,,128,0,11,,,,,3,,,61,100
1920,note_on,,,,,64,0,12,,,,,4,,,51,90
1920,note_on,,,,,64,0,8,,,,,0,,,69,90
1920,note_on,,,,,0,0,13,,,,,5,,,69,100
1920,note_on,,,,,64,0,11,,,,,3,,,63,90
1920,note_on,,,,,64,0,14,,,,,5,,,63,100
1920,note_on,,,,,64,0,13,,,,,5,,,66,100
1920,note_off,,,,,384,0,9,,,,,1,,,75,100
1920,note_on,,,,,64,0,10,,,,,2,,,66,90
2048,note_off,,,,,128,0,8,,,,,0,,,69,100
2048,note_off,,,,,128,0,13,,,,,5,,,66,100
2048,note_off,,,,,128,0,12,,,,,4,,,51,100
2048,note_off,,,,,0,0,13,,,,,5,,,69,100
2048,note_off,,,,,128,0,14,,,,,5,,,63,100
2048,note_off,,,,,128,0,10,,,,,2,,,66,100
2048,note_off,,,,,128,0,11,,,,,3,,,63,100
2112,note_on,,,,,64,0,8,,,,,0,,,81,90
2112,note_on,,,,,64,0,10,,,,,2,,,63,90
2112,note_on,,,,,0,0,13,,,,,5,,,69,100
2112,note_on,,,,,64,0,12,,,,,4,,,47,90
2112,note_on,,,,,0,0,13,,,,,5,,,66,100
2112,note_on,,,,,64,0,14,,,,,5,,,59,100
2112,note_on,,,,,64,0,11,,,,,3,,,59,90
2112,note_on,,,,,192,0,9,,,,,1,,,75,90
2112,note_on,,,,,64,0,13,,,,,5,,,75,100
2240,note_off,,,,,128,0,14,,,,,5,,,59,100
2240,note_off,,,,,128,0,11,,,,,3,,,59,100
2240,note_off,,,,,128,0,12,,,,,4,,,47,100
2240,note_off,,,,,128,0,13,,,,,5,,,75,100
2240,note_off,,,,,128,0,10,,,,,2,,,63,100
2240,note_off,,,,,0,0,13,,,,,5,,,69,100
2240,note_off,,,,,128,0,8,,,,,0,,,81,100
2240,note_off,,,,,128,0,9,,,,,1,,,75,100
2240,note_off,,,,,0,0,13,,,,,5,,,66,100
2304,note_on,,,,,0,0,13,,,,,5,,,76,100
2304,note_on,,,,,0,0,13,,,,,5,,,69,100
2304,note_on,,,,,64,0,12,,,,,4,,,52,90
2304,note_on,,,,,64,0,8,,,,,0,,,81,90
2304,note_on,,,,,64,0,13,,,,,5,,,71,100
2304,note_on,,,,,64,0,10,,,,,2,,,59,90
2304,note_on,,,,,64,0,11,,,,,3,,,64,90
2304,note_on,,,,,64,0,9,,,,,1,,,76,90
2304,note_on,,,,,64,0,14,,,,,5,,,64,100
2432,note_off,,,,,128,0,8,,,,,0,,,81,100
2496,note_on,,,,,64,0,8,,,,,0,,,79,90
2560,note_off,,,,,256,0,14,,,,,5,,,64,100
2560,note_off,,,,,256,0,11,,,,,3,,,64,100
2560,note_off,,,,,64,0,8,,,,,0,,,79,100
2560,note_off,,,,,256,0,13,,,,,5,,,69,100
2560,note_off,,,,,256,0,12,,,,,4,,,52,100
2592,note_on,,,,,32,0,8,,,,,0,,,78,90
2656,note_off,,,,,64,0,8,,,,,0,,,78,100
2688,note_on,,,,,128,0,13,,,,,5,,,67,100
2688,note_on,,,,,32,0,8,,,,,0,,,79,90
2688,note_on,,,,,128,0,11,,,,,3,,,52,90
2688,note_on,,,,,128,0,12,,,,,4,,,40,90
2688,note_on,,,,,128,0,14,,,,,5,,,52,100
2816,note_off,,,,,0,0,13,,,,,5,,,76,100
2816,note_off,,,,,128,0,13,,,,,5,,,71,100
2816,note_off,,,,,512,0,9,,,,,1,,,76,100
2816,note_off,,,,,512,0,10,,,,,2,,,59,100
2944,note_off,,,,,256,0,12,,,,,4,,,40,100
2944,note_off,,,,,256,0,14,,,,,5,,,52,100
2944,note_off,,,,,256,0,8,,,,,0,,,79,100
2944,note_off,,,,,128,0,13,,,,,5,,,67,100
2944,note_off,,,,,256,0,11,,,,,3,,,52,100
3072,note_on,,,,,128,0,14,,,,,5,,,52,100
3072,note_on,,,,,128,0,11,,,,,3,,,52,90
3072,note_on,,,,,128,0,8,,,,,0,,,83,90
3072,note_on,,,,,256,0,10,,,,,2,,,64,90
3072,note_on,,,,,0,0,13,,,,,5,,,71,100
3072,note_on,,,,,128,0,13,,,,,5,,,67,100
3072,note_on,,,,,256,0,9,,,,,1,,,79,90
3072,note_on,,,,,128,0,12,,,,,4,,,40,90
3200,note_off,,,,,128,0,8,,,,,0,,,83,100
3264,note_on,,,,,64,0,8,,,,,0,,,76,90
3392,note_off,,,,,128,0,8,,,,,0,,,76,100
3456,note_off,,,,,384,0,12,,,,,4,,,40,100
3456,note_off,,,,,384,0,11,,,,,3,,,52,100
3456,note_off,,,,,384,0,14,,,,,5,,,52,100
3456,note_off,,,,,384,0,9,,,,,1,,,79,100
3456,note_on,,,,,64,0,8,,,,,0,,,76,90
3456,note_off,,,,,384,0,10,,,,,2,,,64,100
3456,note_off,,,,,384,0,13,,,,,5,,,67,100
3456,note_off,,,,,0,0,13,,,,,5,,,71,100
3584,note_off,,,,,128,0,8,,,,,0,,,76,100
3648,note_on,,,,,192,0,10,,,,,2,,,64,90
3648,note_on,,,,,192,0,9,,,,,1,,,81,90
3648,note_on,,,,,192,0,12,,,,,4,,,45,90
3648,note_on,,,,,192,0,14,,,,,5,,,57,100
3648,note_on,,,,,0,0,13,,,,,5,,,72,100
3648,note_on,,,,,192,0,11,,,,,3,,,57,90
3648,note_on,,,,,192,0,13,,,,,5,,,64,100
3648,note_on,,,,,64,0,8,,,,,0,,,84,90
3776,note_off,,,,,128,0,8,,,,,0,,,84,100
3776,note_off,,,,,128,0,13,,,,,5,,,64,100
3776,note_off,,,,,0,0,13,,,,,5,,,72,100
3776,note_off,,,,,128,0,11,,,,,3,,,57,100
3776,note_off,,,,,128,0,12,,,,,4,,,45,100
3776,note_off,,,,,128,0,9,,,,,1,,,81,100
3776,note_off,,,,,128,0,10,,,,,2,,,64,100
3776,note_off,,,,,128,0,14,,,,,5,,,57,100
3840,note_on,,,,,64,0,10,,,,,2,,,64,90
3840,note_on,,,,,64,0,14,,,,,5,,,52,100
3840,note_on,,,,,0,0,13,,,,,5,,,71,100
3840,note_on,,,,,64,0,11,,,,,3,,,52,90
3840,note_on,,,,,64,0,12,,,,,4,,,40,90
3840,note_on,,,,,64,0,9,,,,,1,,,79,90
3840,note_on,,,,,64,0,8,,,,,0,,,83,90
3840,note_on,,,,,64,0,13,,,,,5,,,67,100
3968,note_off,,,,,128,0,8,,,,,0,,,83,100
4032,note_on,,,,,64,0,8,,,,,0,,,76,90
4160,note_off,,,,,128,0,8,,,,,0,,,76,100
4224,note_off,,,,,384,0,13,,,,,5,,,67,100
4224,note_off,,,,,384,0,9,,,,,1,,,79,100
4224,note_off,,,,,384,0,11,,,,,3,,,52,100
4224,note_off,,,,,0,0,13,,,,,5,,,71,100
4224,note_off,,,,,384,0,10,,,,,2,,,64,100
4224,note_off,,,,,384,0,14,,,,,5,,,52,100
4224,note_on,,,,,64,0,8,,,,,0,,,76,90
4224,note_off,,,,,384,0,12,,,,,4,,,40,100
4352,note_off,,,,,128,0,8,,,,,0,,,76,100
4416,note_on,,,,,192,0,13,,,,,5,,,64,100
4416,note_on,,,,,192,0,14,,,,,5,,,57,100
4416,note_on,,,,,0,0,13,,,,,5,,,72,100
4416,note_on,,,,,64,0,8,,,,,0,,,84,60
4416,note_on,,,,,192,0,9,,,,,1,,,81,60
4416,note_on,,,,,192,0,11,,,,,3,,,57,60
4416,note_on,,,,,192,0,10,,,,,2,,,64,60
4416,note_on,,,,,192,0,12,,,,,4,,,45,60
4544,note_off,,,,,128,0,10,,,,,2,,,64,100
4544,note_off,,,,,128,0,14,,,,,5,,,57,100
4544,note_off,,,,,128,0,11,,,,,3,,,57,100
4544,note_off,,,,,0,0,13,,,,,5,,,72,100
4544,note_off,,,,,128,0,12,,,,,4,,,45,100
4544,note_off,,,,,128,0,13,,,,,5,,,64,100
4544,note_off,,,,,128,0,8,,,,,0,,,84,100
4544,note_off,,,,,128,0,9,,,,,1,,,81,100
4608,note_on,,,,,64,0,13,,,,,5,,,67,100
4608,note_on,,,,,64,0,11,,,,,3,,,52,60
4608,note_on,,,,,64,0,9,,,,,1,,,79,60
4608,note_on,,,,,64,0,14,,,,,5,,,52,100
4608,note_on,,,,,0,0,13,,,,,5,,,71,100
4608,note_on,,,,,64,0,12,,,,,4,,,40,60
4608,note_on,,,,,64,0,10,,,,,2,,,64,60
4608,set_tempo,,,,,4608,1,0,,500000,,,,,,,
4608,note_on,,,,,64,0,8,,,,,0,,,83,60
4736,note_off,,,,,128,0,8,,,,,0,,,83,100
4800,note_on,,,,,64,0,8,,,,,0,,,76,60
4928,note_off,,,,,128,0,8,,,,,0,,,76,100
4992,note_off,,,,,0,0,13,,,,,5,,,71,100
4992,note_off,,,,,384,0,10,,,,,2,,,64,100
4992,note_off,,,,,384,0,14,,,,,5,,,52,100
4992,note_off,,,,,384,0,12,,,,,4,,,40,100
4992,note_off,,,,,384,0,9,,,,,1,,,79,100
4992,note_off,,,,,384,0,11,,,,,3,,,52,100
4992,note_on,,,,,64,0,8,,,,,0,,,76,60
4992,note_off,,,,,384,0,13,,,,,5,,,67,100
5120,note_off,,,,,128,0,8,,,,,0,,,76,100
5184,note_on,,,,,192,0,10,,,,,2,,,64,60
5184,note_on,,,,,64,0,8,,,,,0,,,84,60
5184,note_on,,,,,192,0,9,,,,,1,,,81,60
5184,note_on,,,,,192,0,13,,,,,5,,,72,100
5184,note_on,,,,,192,0,11,,,,,3,,,57,60
5184,note_on,,,,,192,0,12,,,,,4,,,45,60
5184,note_on,,,,,0,0,13,,,,,5,,,64,100
5184,note_on,,,,,192,0,14,,,,,5,,,57,100
5312,note_off,,,,,128,0,14,,,,,5,,,57,100
5312,note_off,,,,,0,0,13,,,,,5,,,64,100
5312,note_off,,,,,128,0,8,,,,,0,,,84,100
5312,note_off,,,,,128,0,10,,,,,2,,,64,100
5312,note_off,,,,,128,0,11,,,,,3,,,57,100
5312,note_off,,,,,128,0,13,,,,,5,,,72,100
5312,note_off,,,,,128,0,12,,,,,4,,,45,100
5312,note_off,,,,,128,0,9,,,,,1,,,81,100
5376,note_on,,,,,64,0,11,,,,,3,,,52,60
5376,note_on,,,,,64,0,8,,,,,0,,,83,60
5376,note_on,,,,,64,0,9,,,,,1,,,79,60
5376,note_on,,,,,64,0,14,,,,,5,,,52,100
5376,note_on,,,,,64,0,12,,,,,4,,,40,60
5376,note_on,,,,,0,0,13,,,,,5,,,71,100
5376,note_on,,,,,64,0,13,,,,,5,,,67,100
5376,note_on,,,,,64,0,10,,,,,2,,,64,60
5504,note_off,,,,,128,0,8,,,,,0,,,83,100
5568,note_on,,,,,64,0,8,,,,,0,,,76,60
5696,note_off,,,,,128,0,8,,,,,0,,,76,100
5760,note_off,,,,,384,0,12,,,,,4,,,40,100
5760,note_on,,,,,64,0,8,,,,,0,,,76,70
5760,note_off,,,,,384,0,11,,,,,3,,,52,100
5760,note_off,,,,,384,0,9,,,,,1,,,79,100
5760,note_off,,,,,384,0,14,,,,,5,,,52,100
5760,note_off,,,,,0,0,13,,,,,5,,,71,100
5760,note_off,,,,,384,0,13,,,,,5,,,67,100
5760,note_off,,,,,384,0,10,,,,,2,,,64,100
5888,note_off,,,,,128,0,8,,,,,0,,,76,100
5952,note_on,,,,,192,0,11,,,,,3,,,57,100
5952,note_on,,,,,192,0,10,,,,,2,,,64,100
5952,note_on,,,,,192,0,9,,,,,1,,,81,100
5952,note_on,,,,,0,0,13,,,,,5,,,72,100
5952,note_on,,,,,192,0,13,,,,,5,,,64,100
5952,note_on,,,,,192,0,12,,,,,4,,,45,100
5952,note_on,,,,,192,0,14,,,,,5,,,57,100
5952,note_on,,,,,64,0,8,,,,,0,,,84,100
6080,note_off,,,,,128,0,9,,,,,1,,,81,100
6080,note_off,,,,,0,0,13,,,,,5,,,72,100
6080,note_off,,,,,128,0,13,,,,,5,,,64,100
6080,note_off,,,,,128,0,12,,,,,4,,,45,100
6080,note_off,,,,,128,0,14,,,,,5,,,57,100
6080,note_off,,,,,128,0,10,,,,,2,,,64,100
6080,note_off,,,,,128,0,11,,,,,3,,,57,100
6080,note_off,,,,,128,0,8,,,,,0,,,84,100
6144,note_on,,,,,64,0,10,,,,,2,,,66,100
6144,note_on,,,,,64,0,11,,,,,3,,,51,100
6144,note_on,,,,,64,0,8,,,,,0,,,84,100
6144,note_on,,,,,64,0,14,,,,,5,,,51,100
6144,note_on,,,,,64,0,12,,,,,4,,,39,100
6144,note_on,,,,,64,0,9,,,,,1,,,81,100
6144,note_on,,,,,64,0,13,,,,,5,,,69,100
6144,note_on,,,,,0,0,13,,,,,5,,,72,100
6272,note_off,,,,,128,0,9,,,,,1,,,81,100
6272,note_off,,,,,128,0,8,,,,,0,,,84,100
6336,note_on,,,,,64,0,9,,,,,1,,,79,100
6336,note_on,,,,,64,0,8,,,,,0,,,83,100
6400,note_off,,,,,0,0,13,,,,,5,,,72,100
6400,note_off,,,,,256,0,12,,,,,4,,,39,100
6400,note_off,,,,,256,0,11,,,,,3,,,51,100
6400,note_off,,,,,256,0,14,,,,,5,,,51,100
6400,note_off,,,,,256,0,10,,,,,2,,,66,100
6400,note_off,,,,,256,0,13,,,,,5,,,69,100
6464,note_off,,,,,128,0,8,,,,,0,,,83,100
6464,note_off,,,,,128,0,9,,,,,1,,,79,100
6528,note_on,,,,,128,0,13,,,,,5,,,67,100
6528,note_on,,,,,128,0,12,,,,,4,,,40,100
6528,note_on,,,,,128,0,11,,,,,3,,,52,100
6528,note_on,,,,,0,0,13,,,,,5,,,71,100
6528,note_on,,,,,64,0,9,,,,,1,,,79,100
6528,note_on,,,,,128,0,10,,,,,2,,,67,100
6528,note_on,,,,,128,0,14,,,,,5,,,52,100
6528,note_on,,,,,64,0,8,,,,,0,,,83,100
6656,note_off,,,,,128,0,9,,,,,1,,,79,100
6656,note_off,,,,,128,0,8,,,,,0,,,83,100
6720,note_on,,,,,64,0,9,,,,,1,,,78,100
6720,note_on,,,,,64,0,8,,,,,0,,,82,100
6784,note_off,,,,,256,0,10,,,,,2,,,67,100
6784,note_off,,,,,0,0,13,,,,,5,,,71,100
6784,note_off,,,,,256,0,11,,,,,3,,,52,100
6784,note_off,,,,,256,0,14,,,,,5,,,52,100
6784,note_off,,,,,256,0,13,,,,,5,,,67,100
6784,note_off,,,,,256,0,12,,,,,4,,,40,100
6848,note_off,,,,,128,0,9,,,,,1,,,78,100
6848,note_off,,,,,128,0,8,,,,,0,,,82,100
6912,note_on,,,,,64,0,9,,,,,1,,,78,100
6912,note_on,,,,,0,0,13,,,,,5,,,73,100
6912,note_on,,,,,128,0,10,,,,,2,,,61,100
6912,note_on,,,,,128,0,13,,,,,5,,,70,100
6912,note_on,,,,,128,0,14,,,,,5,,,54,100
6912,note_on,,,,,128,0,12,,,,,4,,,42,100
6912,note_on,,,,,128,0,11,,,,,3,,,54,100
6912,note_on,,,,,64,0,8,,,,,0,,,82,100
7040,note_off,,,,,128,0,13,,,,,5,,,70,100
7040,note_off,,,,,0,0,13,,,,,5,,,73,100
7040,note_off,,,,,128,0,8,,,,,0,,,82,100
7040,note_off,,,,,128,0,11,,,,,3,,,54,100
7040,note_off,,,,,128,0,14,,,,,5,,,54,100
7040,note_off,,,,,128,0,12,,,,,4,,,42,100
7104,note_on,,,,,64,0,14,,,,,5,,,52,100
7104,note_on,,,,,64,0,11,,,,,3,,,52,100
7104,note_on,,,,,0,0,13,,,,,5,,,71,100
7104,note_on,,,,,64,0,13,,,,,5,,,68,100
7104,note_on,,,,,64,0,8,,,,,0,,,80,100
7104,note_on,,,,,64,0,12,,,,,4,,,40,100
7168,note_off,,,,,256,0,9,,,,,1,,,78,100
7168,note_off,,,,,64,0,8,,,,,0,,,80,100
7168,note_off,,,,,256,0,10,,,,,2,,,61,100
7200,note_on,,,,,32,0,8,,,,,0,,,78,100
7232,note_off,,,,,128,0,13,,,,,5,,,68,100
7232,note_off,,,,,0,0,13,,,,,5,,,71,100
7232,note_off,,,,,128,0,12,,,,,4,,,40,100
7232,note_off,,,,,128,0,14,,,,,5,,,52,100
7232,note_off,,,,,128,0,11,,,,,3,,,52,100
7264,note_off,,,,,64,0,8,,,,,0,,,78,100
7296,note_on,,,,,0,0,13,,,,,5,,,71,100
7296,note_on,,,,,64,0,12,,,,,4,,,38,100
7296,note_on,,,,,64,0,11,,,,,3,,,50,100
7296,note_on,,,,,64,0,14,,,,,5,,,50,100
7296,note_on,,,,,32,0,8,,,,,0,,,83,100
7296,note_on,,,,,64,0,13,,,,,5,,,66,100
7424,note_off,,,,,128,0,12,,,,,4,,,38,100
7424,note_off,,,,,128,0,13,,,,,5,,,66,100
7424,note_off,,,,,0,0,13,,,,,5,,,71,100
7424,note_off,,,,,128,0,11,,,,,3,,,50,100
7424,note_off,,,,,128,0,8,,,,,0,,,83,100
7424,note_off,,,,,128,0,14,,,,,5,,,50,100
7488,note_on,,,,,64,0,12,,,,,4,,,35,100
7488,note_on,,,,,64,0,13,,,,,5,,,62,100
7488,note_on,,,,,0,0,13,,,,,5,,,66,100
7488,note_on,,,,,64,0,8,,,,,0,,,78,100
7488,note_on,,,,,64,0,11,,,,,3,,,47,100
7488,note_on,,,,,320,0,10,,,,,2,,,71,100
7488,note_on,,,,,64,0,14,,,,,5,,,47,100
7488,note_on,,,,,320,0,9,,,,,1,,,74,100
7616,note_off,,,,,128,0,8,,,,,0,,,78,100
7616,note_off,,,,,128,0,11,,,,,3,,,47,100
7616,note_off,,,,,128,0,13,,,,,5,,,62,100
7616,note_off,,,,,128,0,12,,,,,4,,,35,100
7616,note_off,,,,,128,0,10,,,,,2,,,71,100
7616,note_off,,,,,128,0,9,,,,,1,,,74,100
7616,note_off,,,,,128,0,14,,,,,5,,,47,100
7616,note_off,,,,,0,0,13,,,,,5,,,66,100
7680,note_on,,,,,64,0,14,,,,,5,,,52,100
7680,note_on,,,,,64,0,12,,,,,4,,,40,100
7680,note_on,,,,,0,0,13,,,,,5,,,71,100
7680,note_on,,,,,64,0,13,,,,,5,,,67,100
7680,note_on,,,,,64,0,10,,,,,2,,,71,100
7680,note_on,,,,,64,0,11,,,,,3,,,52,100
7680,note_on,,,,,64,0,9,,,,,1,,,76,100
7680,note_on,,,,,64,0,8,,,,,0,,,79,100
7808,note_off,,,,,128,0,8,,,,,0,,,79,100
7808,note_off,,,,,128,0,10,,,,,2,,,71,100
7808,note_off,,,,,128,0,12,,,,,4,,,40,100
7808,note_off,,,,,128,0,13,,,,,5,,,67,100
7808,note_off,,,,,128,0,9,,,,,1,,,76,100
7808,note_off,,,,,128,0,14,,,,,5,,,52,100
7808,note_off,,,,,0,0,13,,,,,5,,,71,100
7808,note_off,,,,,128,0,11,,,,,3,,,52,100
7872,note_on,,,,,64,0,14,,,,,5,,,47,100
7872,note_on,,,,,64,0,10,,,,,2,,,59,100
7872,note_on,,,,,64,0,9,,,,,1,,,74,100
7872,note_on,,,,,64,0,13,,,,,5,,,62,100
7872,note_on,,,,,64,0,11,,,,,3,,,47,100
7872,note_on,,,,,64,0,8,,,,,0,,,78,100
7872,note_on,,,,,0,0,13,,,,,5,,,66,100
7872,note_on,,,,,64,0,12,,,,,4,,,35,100
8000,note_off,,,,,128,0,8,,,,,0,,,78,100
8000,note_off,,,,,128,0,10,,,,,2,,,59,100
8000,note_off,,,,,0,0,13,,,,,5,,,66,100
8000,note_off,,,,,128,0,13,,,,,5,,,62,100
8000,note_off,,,,,128,0,12,,,,,4,,,35,100
8000,note_off,,,,,128,0,9,,,,,1,,,74,100
8000,note_off,,,,,128,0,14,,,,,5,,,47,100
8000,note_off,,,,,128,0,11,,,,,3,,,47,100
8064,note_on,,,,,64,0,8,,,,,0,,,83,100
8192,note_off,,,,,128,0,8,,,,,0,,,83,100
8256,note_on,,,,,256,0,14,,,,,5,,,47,100
8256,note_on,,,,,0,0,13,,,,,5,,,66,100
8256,note_on,,,,,256,0,9,,,,,1,,,74,70
8256,note_on,,,,,64,0,8,,,,,0,,,78,70
8256,note_on,,,,,256,0,12,,,,,4,,,35,70
8256,note_on,,,,,256,0,10,,,,,2,,,71,70
8256,note_on,,,,,256,0,11,,,,,3,,,47,70
8256,note_on,,,,,256,0,13,,,,,5,,,62,100
8384,note_off,,,,,128,0,11,,,,,3,,,47,100
8384,note_off,,,,,128,0,10,,,,,2,,,71,100
8384,note_off,,,,,128,0,12,,,,,4,,,35,100
8384,note_off,,,,,0,0,13,,,,,5,,,66,100
8384,note_off,,,,,128,0,9,,,,,1,,,74,100
8384,note_off,,,,,128,0,13,,,,,5,,,62,100
8384,note_off,,,,,128,0,14,,,,,5,,,47,100
8384,note_off,,,,,128,0,8,,,,,0,,,78,100
8448,note_on,,,,,64,0,8,,,,,0,,,79,70
8448,note_on,,,,,0,0,13,,,,,5,,,71,100
8448,note_on,,,,,64,0,11,,,,,3,,,52,70
8448,note_on,,,,,64,0,9,,,,,1,,,76,70
8448,note_on,,,,,64,0,14,,,,,5,,,52,100
8448,note_on,,,,,64,0,13,,,,,5,,,67,100
8448,note_on,,,,,64,0,10,,,,,2,,,71,70
8448,note_on,,,,,64,0,12,,,,,4,,,40,70
8576,note_off,,,,,128,0,8,,,,,0,,,79,100
8576,note_off,,,,,128,0,9,,,,,1,,,76,100
8576,note_off,,,,,128,0,10,,,,,2,,,71,100
8576,note_off,,,,,128,0,11,,,,,3,,,52,100
8576,note_off,,,,,128,0,14,,,,,5,,,52,100
8576,note_off,,,,,128,0,12,,,,,4,,,40,100
8576,note_off,,,,,0,0,13,,,,,5,,,71,100
8576,note_off,,,,,128,0,13,,,,,5,,,67,100
8640,note_on,,,,,64,0,13,,,,,5,,,62,100
8640,note_on,,,,,64,0,14,,,,,5,,,47,100
8640,note_on,,,,,0,0,13,,,,,5,,,66,100
8640,note_on,,,,,64,0,9,,,,,1,,,74,70
8640,note_on,,,,,64,0,11,,,,,3,,,47,70
8640,note_on,,,,,64,0,8,,,,,0,,,78,70
8640,note_on,,,,,64,0,12,,,,,4,,,35,70
8640,note_on,,,,,64,0,10,,,,,2,,,59,70
8768,note_off,,,,,128,0,9,,,,,1,,,74,100
8768,note_off,,,,,128,0,10,,,,,2,,,59,100
8768,note_off,,,,,128,0,12,,,,,4,,,35,100
8768,note_off,,,,,128,0,14,,,,,5,,,47,100
8768,note_off,,,,,128,0,13,,,,,5,,,62,100
8768,note_off,,,,,0,0,13,,,,,5,,,66,100
8768,note_off,,,,,128,0,11,,,,,3,,,47,100
8768,note_off,,,,,128,0,8,,,,,0,,,78,100
8832,note_on,,,,,64,0,8,,,,,0,,,83,70
8960,note_off,,,,,128,0,8,,,,,0,,,83,100
9024,note_on,,,,,256,0,10,,,,,2,,,66,95
9024,note_on,,,,,256,0,13,,,,,5,,,66,100
9024,note_on,,,,,0,0,13,,,,,5,,,74,100
9024,note_on,,,,,256,0,9,,,,,1,,,74,95
9024,note_on,,,,,256,0,11,,,,,3,,,59,95
9024,note_on,,,,,256,0,14,,,,,5,,,59,100
9024,note_on,,,,,256,0,12,,,,,4,,,47,95
9024,note_on,,,,,64,0,8,,,,,0,,,78,95
9152,note_off,,,,,128,0,8,,,,,0,,,78,100
9152,note_off,,,,,0,0,13,,,,,5,,,74,100
9152,note_off,,,,,128,0,11,,,,,3,,,59,100
9152,note_off,,,,,128,0,9,,,,,1,,,74,100
9152,note_off,,,,,128,0,13,,,,,5,,,66,100
9152,note_off,,,,,128,0,14,,,,,5,,,59,100
9152,note_off,,,,,128,0,10,,,,,2,,,66,100
9152,note_off,,,,,128,0,12,,,,,4,,,47,100
9216,note_on,,,,,64,0,10,,,,,2,,,64,100
9216,note_on,,,,,64,0,13,,,,,5,,,67,100
9216,note_on,,,,,64,0,11,,,,,3,,,52,100
9216,note_on,,,,,64,0,8,,,,,0,,,79,100
9216,note_on,,,,,64,0,12,,,,,4,,,40,100
9216,note_on,,,,,0,0,13,,,,,5,,,71,100
9216,note_on,,,,,64,0,14,,,,,5,,,52,100
9216,note_on,,,,,64,0,9,,,,,1,,,83,100
9344,note_off,,,,,128,0,9,,,,,1,,,83,100
9344,note_off,,,,,128,0,8,,,,,0,,,79,100
9408,note_on,,,,,64,0,8,,,,,0,,,78,100
9408,note_on,,,,,64,0,9,,,,,1,,,81,100
9536,note_off,,,,,128,0,9,,,,,1,,,81,100
9536,note_off,,,,,128,0,8,,,,,0,,,78,100
9600,note_on,,,,,64,0,8,,,,,0,,,76,100
9600,note_off,,,,,0,0,13,,,,,5,,,71,100
9600,note_on,,,,,64,0,9,,,,,1,,,79,100
9600,note_off,,,,,384,0,12,,,,,4,,,40,100
9600,note_off,,,,,384,0,11,,,,,3,,,52,100
9600,note_off,,,,,384,0,14,,,,,5,,,52,100
9600,note_off,,,,,384,0,13,,,,,5,,,67,100
9600,note_off,,,,,384,0,10,,,,,2,,,64,100
9728,note_off,,,,,128,0,8,,,,,0,,,76,100
9728,note_off,,,,,128,0,9,,,,,1,,,79,100
9792,note_on,,,,,192,0,10,,,,,2,,,66,100
9792,note_on,,,,,192,0,14,,,,,5,,,59,100
9792,note_on,,,,,192,0,12,,,,,4,,,47,100
9792,note_on,,,,,192,0,11,,,,,3,,,59,100
9792,note_on,,,,,64,0,8,,,,,0,,,74,100
9792,note_on,,,,,192,0,13,,,,,5,,,66,100
9792,note_on,,,,,0,0,13,,,,,5,,,74,100
9792,note_on,,,,,64,0,9,,,,,1,,,78,100
9920,note_off,,,,,128,0,14,,,,,5,,,59,100
9920,note_off,,,,,128,0,8,,,,,0,,,74,100
9920,note_off,,,,,128,0,11,,,,,3,,,59,100
9920,note_off,,,,,128,0,13,,,,,5,,,66,100
9920,note_off,,,,,0,0,13,,,,,5,,,74,100
9920,note_off,,,,,128,0,12,,,,,4,,,47,100
9920,note_off,,,,,128,0,10,,,,,2,,,66,100
9920,note_off,,,,,128,0,9,,,,,1,,,78,100
9984,note_on,,,,,64,0,10,,,,,2,,,67,100
9984,note_on,,,,,64,0,13,,,,,5,,,67,100
9984,note_on,,,,,64,0,12,,,,,4,,,40,100
9984,note_on,,,,,0,0,13,,,,,5,,,72,100
9984,note_on,,,,,64,0,8,,,,,0,,,72,100
9984,note_on,,,,,64,0,9,,,,,1,,,76,100
9984,note_on,,,,,64,0,14,,,,,5,,,52,100
9984,note_on,,,,,64,0,11,,,,,3,,,52,100
10112,note_off,,,,,128,0,13,,,,,5,,,67,100
10112,note_off,,,,,0,0,13,,,,,5,,,72,100
10112,note_off,,,,,128,0,9,,,,,1,,,76,100
10112,note_off,,,,,128,0,11,,,,,3,,,52,100
10112,note_off,,,,,128,0,10,,,,,2,,,67,100
10112,note_off,,,,,128,0,8,,,,,0,,,72,100
10112,note_off,,,,,128,0,12,,,,,4,,,40,100
10112,note_off,,,,,128,0,14,,,,,5,,,52,100
10176,note_on,,,,,64,0,14,,,,,5,,,54,100
10176,note_on,,,,,0,0,13,,,,,5,,,73,100
10176,note_on,,,,,64,0,13,,,,,5,,,70,100
10176,note_on,,,,,64,0,8,,,,,0,,,70,100
10176,note_on,,,,,64,0,12,,,,,4,,,42,100
10176,note_on,,,,,64,0,11,,,,,3,,,54,100
10176,note_on,,,,,64,0,10,,,,,2,,,66,100
10176,note_on,,,,,64,0,9,,,,,1,,,73,100
10304,note_off,,,,,128,0,10,,,,,2,,,66,100
10304,note_off,,,,,128,0,8,,,,,0,,,70,100
10304,note_off,,,,,128,0,12,,,,,4,,,42,100
10304,note_off,,,,,128,0,14,,,,,5,,,54,100
10304,note_off,,,,,128,0,9,,,,,1,,,73,100
10304,note_off,,,,,128,0,13,,,,,5,,,70,100
10304,note_off,,,,,0,0,13,,,,,5,,,73,100
10304,note_off,,,,,128,0,11,,,,,3,,,54,100
10368,note_on,,,,,64,0,8,,,,,0,,,71,100
10368,note_on,,,,,64,0,9,,,,,1,,,74,100
10368,note_on,,,,,64,0,13,,,,,5,,,66,100
10368,note_on,,,,,0,0,13,,,,,5,,,71,100
10368,note_on,,,,,64,0,14,,,,,5,,,50,100
10368,note_on,,,,,64,0,12,,,,,4,,,38,100
10368,note_on,,,,,64,0,10,,,,,2,,,66,100
10368,note_on,,,,,64,0,11,,,,,3,,,50,100
10496,note_off,,,,,128,0,8,,,,,0,,,71,100
10496,note_off,,,,,128,0,10,,,,,2,,,66,100
10496,note_off,,,,,128,0,14,,,,,5,,,50,100
10496,note_off,,,,,128,0,9,,,,,1,,,74,100
10496,note_off,,,,,128,0,12,,,,,4,,,38,100
10496,note_off,,,,,0,0,13,,,,,5,,,71,100
10496,note_off,,,,,128,0,11,,,,,3,,,50,100
10496,note_off,,,,,128,0,13,,,,,5,,,66,100
10560,note_on,,,,,64,0,10,,,,,2,,,67,100
10560,note_on,,,,,64,0,9,,,,,1,,,71,100
10560,note_on,,,,,64,0,14,,,,,5,,,52,100
10560,note_on,,,,,64,0,12,,,,,4,,,40,100
10560,note_on,,,,,64,0,8,,,,,0,,,76,100
10560,note_on,,,,,64,0,13,,,,,5,,,67,100
10560,note_on,,,,,0,0,13,,,,,5,,,71,100
10560,note_on,,,,,64,0,11,,,,,3,,,52,100
10688,note_off,,,,,128,0,11,,,,,3,,,52,100
10688,note_off,,,,,128,0,10,,,,,2,,,67,100
10688,note_off,,,,,128,0,14,,,,,5,,,52,100
10688,note_off,,,,,128,0,12,,,,,4,,,40,100
10688,note_off,,,,,128,0,8,,,,,0,,,76,100
10688,note_off,,,,,128,0,9,,,,,1,,,71,100
10688,note_off,,,,,128,0,13,,,,,5,,,67,100
10688,note_off,,,,,0,0,13,,,,,5,,,71,100
10752,note_on,,,,,64,0,8,,,,,0,,,74,100
10752,note_on,,,,,64,0,11,,,,,3,,,54,100
10752,note_on,,,,,0,0,13,,,,,5,,,74,100
10752,note_on,,,,,64,0,13,,,,,5,,,71,100
10752,note_on,,,,,64,0,9,,,,,1,,,71,100
10752,note_on,,,,,64,0,12,,,,,4,,,42,100
10752,note_on,,,,,64,0,14,,,,,5,,,54,100
10752,note_on,,,,,64,0,10,,,,,2,,,66,100
11008,note_off,,,,,256,0,10,,,,,2,,,66,100
11008,note_off,,,,,256,0,12,,,,,4,,,42,100
11008,note_off,,,,,256,0,13,,,,,5,,,71,100
11008,note_off,,,,,0,0,13,,,,,5,,,74,100
11008,note_off,,,,,256,0,14,,,,,5,,,54,100
11008,note_off,,,,,256,0,11,,,,,3,,,54,100
11008,note_off,,,,,256,0,8,,,,,0,,,74,100
11008,note_off,,,,,256,0,9,,,,,1,,,71,100
11136,note_on,,,,,128,0,12,,,,,4,,,42,100
11136,note_on,,,,,128,0,14,,,,,5,,,42,100
11136,note_on,,,,,128,0,8,,,,,0,,,73,100
11136,note_on,,,,,128,0,10,,,,,2,,,66,100
11136,note_on,,,,,128,0,11,,,,,3,,,42,100
11136,note_on,,,,,128,0,9,,,,,1,,,70,100
11136,note_on,,,,,0,0,13,,,,,5,,,70,100
11136,note_on,,,,,128,0,13,,,,,5,,,73,100
11392,note_off,,,,,256,0,11,,,,,3,,,42,100
11392,note_off,,,,,256,0,8,,,,,0,,,73,100
11392,note_off,,,,,256,0,14,,,,,5,,,42,100
11392,note_off,,,,,256,0,9,,,,,1,,,70,100
11392,note_off,,,,,256,0,10,,,,,2,,,66,100
11392,note_off,,,,,0,0,13,,,,,5,,,70,100
11392,note_off,,,,,256,0,13,,,,,5,,,73,100
11392,note_off,,,,,256,0,12,,,,,4,,,42,100
11520,note_on,,,,,128,0,11,,,,,3,,,47,100
11520,note_on,,,,,0,0,13,,,,,5,,,66,100
11520,note_on,,,,,0,0,13,,,,,5,,,71,100
11520,note_on,,,,,128,0,13,,,,,5,,,62,100
11520,note_on,,,,,128,0,10,,,,,2,,,62,100
11520,note_on,,,,,128,0,12,,,,,4,,,35,100
11520,note_on,,,,,128,0,9,,,,,1,,,71,100
11520,note_on,,,,,128,0,14,,,,,5,,,47,100
11520,note_on,,,,,128,0,8,,,,,0,,,71,100
11648,note_off,,,,,128,0,10,,,,,2,,,62,100
11712,note_on,,,,,64,0,10,,,,,2,,,59,60
11776,note_off,,,,,256,0,12,,,,,4,,,35,100
11776,note_off,,,,,256,0,9,,,,,1,,,71,100
11776,note_off,,,,,256,0,13,,,,,5,,,62,100
11776,note_off,,,,,256,0,14,,,,,5,,,47,100
11776,note_off,,,,,0,0,13,,,,,5,,,66,100
11776,note_off,,,,,256,0,11,,,,,3,,,47,100
11776,note_off,,,,,256,0,8,,,,,0,,,71,100
11776,note_off,,,,,0,0,13,,,,,5,,,71,100
11840,note_off,,,,,128,0,10,,,,,2,,,59,100
11904,note_on,,,,,64,0,10,,,,,2,,,59,60
11904,program_change,,,,,128,0,8,,,,,0,40,,,
12000,note_on,,,,,96,0,8,,,,,0,,,71,85
12032,note_off,,,,,128,0,10,,,,,2,,,59,100
12064,note_off,,,,,64,0,8,,,,,0,,,71,100
12096,note_on,,,,,64,0,10,,,,,2,,,59,60
12096,note_on,,,,,32,0,8,,,,,0,,,73,85
12160,note_off,,,,,64,0,8,,,,,0,,,73,100
12192,note_on,,,,,32,0,8,,,,,0,,,75,85
12224,note_off,,,,,128,0,10,,,,,2,,,59,100
12256,note_off,,,,,64,0,8,,,,,0,,,75,100
12288,note_on,,,,,32,0,8,,,,,0,,,76,85
12288,note_on,,,,,64,0,10,,,,,2,,,59,60
12352,note_off,,,,,64,0,8,,,,,0,,,76,100
12384,note_on,,,,,32,0,8,,,,,0,,,78,85
12416,note_off,,,,,128,0,10,,,,,2,,,59,100
12448,note_off,,,,,64,0,8,,,,,0,,,78,100
12480,note_on,,,,,64,0,10,,,,,2,,,59,60
12480,note_on,,,,,32,0,8,,,,,0,,,79,85
12544,note_off,,,,,64,0,8,,,,,0,,,79,100
12576,note_on,,,,,32,0,8,,,,,0,,,81,85
12608,note_off,,,,,128,0,10,,,,,2,,,59,100
12640,note_off,,,,,64,0,8,,,,,0,,,81,100
12672,note_on,,,,,32,0,8,,,,,0,,,83,85
12672,note_on,,,,,64,0,10,,,,,2,,,59,60
12800,note_off,,,,,128,0,8,,,,,0,,,83,100
12800,note_off,,,,,128,0,10,,,,,2,,,59,100
12864,note_on,,,,,64,0,10,,,,,2,,,59,60
12864,note_on,,,,,64,0,8,,,,,0,,,74,85
12992,note_off,,,,,128,0,8,,,,,0,,,74,100
12992,note_off,,,,,128,0,10,,,,,2,,,59,100
13056,note_on,,,,,64,0,10,,,,,2,,,56,60
13056,note_on,,,,,64,0,8,,,,,0,,,74,85
13184,note_off,,,,,128,0,10,,,,,2,,,56,100
13184,note_off,,,,,128,0,8,,,,,0,,,74,100
13248,note_on,,,,,64,0,8,,,,,0,,,77,85
13248,note_on,,,,,64,0,10,,,,,2,,,56,60
13340,note_off,,,,,92,0,8,,,,,0,,,77,100
13344,note_on,,,,,4,0,8,,,,,0,,,76,85
13376,note_off,,,,,128,0,10,,,,,2,,,56,100
13408,note_off,,,,,64,0,8,,,,,0,,,76,100
13440,note_on,,,,,64,0,10,,,,,2,,,56,60
13440,note_on,,,,,32,0,8,,,,,0,,,77,85
13532,note_off,,,,,92,0,8,,,,,0,,,77,100
13536,note_on,,,,,4,0,8,,,,,0,,,76,85
13568,note_off,,,,,128,0,10,,,,,2,,,56,100
13600,note_off,,,,,64,0,8,,,,,0,,,76,100
13632,note_on,,,,,32,0,8,,,,,0,,,74,85
13632,note_on,,,,,64,0,10,,,,,2,,,56,60
13724,note_off,,,,,92,0,8,,,,,0,,,74,100
13728,note_on,,,,,4,0,8,,,,,0,,,73,85
13760,note_off,,,,,128,0,10,,,,,2,,,56,100
13792,note_off,,,,,64,0,8,,,,,0,,,73,100
13824,note_on,,,,,64,0,10,,,,,2,,,56,60
13824,note_on,,,,,32,0,8,,,,,0,,,74,85
13952,note_off,,,,,128,0,8,,,,,0,,,74,100
13952,note_off,,,,,128,0,10,,,,,2,,,56,100
14016,note_on,,,,,64,0,10,,,,,2,,,56,60
14016,note_on,,,,,64,0,8,,,,,0,,,76,85
14108,note_off,,,,,92,0,8,,,,,0,,,76,100
14112,note_on,,,,,4,0,8,,,,,0,,,74,85
14144,note_off,,,,,128,0,10,,,,,2,,,56,100
14176,note_off,,,,,64,0,8,,,,,0,,,74,100
14208,note_on,,,,,64,0,10,,,,,2,,,56,60
14208,note_on,,,,,32,0,8,,,,,0,,,76,85
14300,note_off,,,,,92,0,8,,,,,0,,,76,100
14304,note_on,,,,,4,0,8,,,,,0,,,74,85
14336,note_off,,,,,128,0,10,,,,,2,,,56,100
14368,note_off,,,,,64,0,8,,,,,0,,,74,100
14400,note_on,,,,,64,0,10,,,,,2,,,56,60
14400,note_on,,,,,32,0,8,,,,,0,,,72,85
14492,note_off,,,,,92,0,8,,,,,0,,,72,100
14496,note_on,,,,,4,0,8,,,,,0,,,71,85
14528,note_off,,,,,128,0,10,,,,,2,,,56,100
14560,note_off,,,,,64,0,8,,,,,0,,,71,100
14592,note_on,,,,,32,0,8,,,,,0,,,72,85
14592,note_on,,,,,64,0,10,,,,,2,,,57,60
14720,note_off,,,,,128,0,10,,,,,2,,,57,100
14720,note_off,,,,,128,0,8,,,,,0,,,72,100
14784,note_on,,,,,64,0,10,,,,,2,,,57,60
14784,note_on,,,,,64,0,8,,,,,0,,,69,85
14912,note_off,,,,,128,0,8,,,,,0,,,69,100
14912,note_off,,,,,128,0,10,,,,,2,,,57,100
14976,note_on,,,,,64,0,10,,,,,2,,,57,60
15072,note_on,,,,,160,0,8,,,,,0,,,69,85
15104,note_off,,,,,128,0,10,,,,,2,,,57,100
15136,note_off,,,,,64,0,8,,,,,0,,,69,100
15168,note_on,,,,,64,0,10,,,,,2,,,57,60
15168,note_on,,,,,32,0,8,,,,,0,,,71,85
15232,note_off,,,,,64,0,8,,,,,0,,,71,100
15264,note_on,,,,,32,0,8,,,,,0,,,72,85
15296,note_off,,,,,128,0,10,,,,,2,,,57,100
15328,note_off,,,,,64,0,8,,,,,0,,,72,100
15360,note_on,,,,,64,0,10,,,,,2,,,57,60
15360,note_on,,,,,32,0,8,,,,,0,,,74,85
15424,note_off,,,,,64,0,8,,,,,0,,,74,100
15456,note_on,,,,,32,0,8,,,,,0,,,76,85
15488,note_off,,,,,128,0,10,,,,,2,,,57,100
15520,note_off,,,,,64,0,8,,,,,0,,,76,100
15552,note_on,,,,,32,0,8,,,,,0,,,78,85
15552,note_on,,,,,64,0,10,,,,,2,,,57,60
15616,note_off,,,,,64,0,8,,,,,0,,,78,100
15648,note_on,,,,,32,0,8,,,,,0,,,79,85
15680,note_off,,,,,128,0,10,,,,,2,,,57,100
15712,note_off,,,,,64,0,8,,,,,0,,,79,100
15744,note_on,,,,,32,0,8,,,,,0,,,81,85
15744,note_on,,,,,64,0,10,,,,,2,,,57,60
15872,note_off,,,,,128,0,8,,,,,0,,,81,100
15872,note_off,,,,,128,0,10,,,,,2,,,57,100
15936,note_on,,,,,64,0,8,,,,,0,,,72,85
15936,note_on,,,,,64,0,10,,,,,2,,,57,60
16064,note_off,,,,,128,0,8,,,,,0,,,72,100
16064,note_off,,,,,128,0,10,,,,,2,,,57,100
16128,note_on,,,,,64,0,8,,,,,0,,,72,85
16128,note_on,,,,,64,0,10,,,,,2,,,54,60
16256,note_off,,,,,128,0,10,,,,,2,,,54,100
16256,note_off,,,,,128,0,8,,,,,0,,,72,100
16320,note_on,,,,,64,0,8,,,,,0,,,76,85
16320,note_on,,,,,64,0,10,,,,,2,,,54,60
16412,note_off,,,,,92,0,8,,,,,0,,,76,100
16416,note_on,,,,,4,0,8,,,,,0,,,74,85
16448,note_off,,,,,128,0,10,,,,,2,,,54,100
16480,note_off,,,,,64,0,8,,,,,0,,,74,100
16512,note_on,,,,,64,0,10,,,,,2,,,54,60
16512,note_on,,,,,32,0,8,,,,,0,,,76,85
16604,note_off,,,,,92,0,8,,,,,0,,,76,100
16608,note_on,,,,,4,0,8,,,,,0,,,74,85
16640,note_off,,,,,128,0,10,,,,,2,,,54,100
16672,note_off,,,,,64,0,8,,,,,0,,,74,100
16704,note_on,,,,,64,0,10,,,,,2,,,54,60
16704,note_on,,,,,32,0,8,,,,,0,,,72,85
16796,note_off,,,,,92,0,8,,,,,0,,,72,100
16800,note_on,,,,,4,0,8,,,,,0,,,71,85
16832,note_off,,,,,128,0,10,,,,,2,,,54,100
16864,note_off,,,,,64,0,8,,,,,0,,,71,100
16896,note_on,,,,,32,0,8,,,,,0,,,72,85
16896,note_on,,,,,64,0,10,,,,,2,,,54,60
17024,note_off,,,,,128,0,10,,,,,2,,,54,100
17024,note_off,,,,,128,0,8,,,,,0,,,72,100
17088,note_on,,,,,64,0,8,,,,,0,,,74,85
17088,note_on,,,,,64,0,10,,,,,2,,,54,60
17180,note_off,,,,,92,0,8,,,,,0,,,74,100
17184,note_on,,,,,4,0,8,,,,,0,,,72,85
17216,note_off,,,,,128,0,10,,,,,2,,,54,100
17248,note_off,,,,,64,0,8,,,,,0,,,72,100
17280,note_on,,,,,64,0,10,,,,,2,,,54,60
17280,note_on,,,,,32,0,8,,,,,0,,,74,85
17372,note_off,,,,,92,0,8,,,,,0,,,74,100
17376,note_on,,,,,4,0,8,,,,,0,,,72,85
17408,note_off,,,,,128,0,10,,,,,2,,,54,100
17440,note_off,,,,,64,0,8,,,,,0,,,72,100
17472,note_on,,,,,64,0,10,,,,,2,,,54,60
17472,note_on,,,,,32,0,8,,,,,0,,,71,85
17564,note_off,,,,,92,0,8,,,,,0,,,71,100
17568,note_on,,,,,4,0,8,,,,,0,,,69,85
17600,note_off,,,,,128,0,10,,,,,2,,,54,100
17632,note_off,,,,,64,0,8,,,,,0,,,69,100
17664,note_on,,,,,32,0,8,,,,,0,,,71,85
17664,note_on,,,,,64,0,10,,,,,2,,,55,60
17792,note_off,,,,,128,0,8,,,,,0,,,71,100
17792,note_off,,,,,128,0,10,,,,,2,,,55,100
17856,note_on,,,,,64,0,10,,,,,2,,,55,60
17856,note_on,,,,,64,0,8,,,,,0,,,67,85
17984,note_off,,,,,128,0,8,,,,,0,,,67,100
17984,note_off,,,,,128,0,10,,,,,2,,,55,100
18048,note_on,,,,,64,0,10,,,,,2,,,55,60
18048,note_on,,,,,64,0,8,,,,,0,,,67,85
18108,program_change,,,,,60,0,8,,,,,0,48,,,
18176,note_off,,,,,128,0,10,,,,,2,,,55,100
18176,note_off,,,,,68,0,8,,,,,0,,,67,100
18240,note_on,,,,,64,0,8,,,,,0,,,79,85
18240,note_on,,,,,6464,0,9,,,,,1,,,76,85
18240,note_on,,,,,0,0,13,,,,,5,,,71,100
18240,note_on,,,,,6464,0,14,,,,,5,,,52,100
18240,note_on,,,,,6464,0,12,,,,,4,,,40,85
18240,note_on,,,,,6464,0,11,,,,,3,,,52,85
18240,note_on,,,,,64,0,10,,,,,2,,,71,85
18240,note_on,,,,,6464,0,13,,,,,5,,,67,100
18368,note_off,,,,,128,0,10,,,,,2,,,71,100
18368,note_off,,,,,128,0,13,,,,,5,,,67,100
18368,note_off,,,,,128,0,9,,,,,1,,,76,100
18368,note_off,,,,,0,0,13,,,,,5,,,71,100
18368,note_off,,,,,128,0,14,,,,,5,,,52,100
18368,note_off,,,,,128,0,11,,,,,3,,,52,100
18368,note_off,,,,,128,0,8,,,,,0,,,79,100
18368,note_off,,,,,128,0,12,,,,,4,,,40,100
18432,note_on,,,,,64,0,10,,,,,2,,,71,86
18432,note_on,,,,,64,0,8,,,,,0,,,78,86
18432,note_on,,,,,64,0,14,,,,,5,,,59,100
18432,note_on,,,,,64,0,11,,,,,3,,,59,86
18432,note_on,,,,,0,0,13,,,,,5,,,75,100
18432,note_on,,,,,64,0,12,,,,,4,,,47,86
18432,note_on,,,,,64,0,9,,,,,1,,,75,86
18432,note_on,,,,,64,0,13,,,,,5,,,66,100
18560,note_off,,,,,128,0,13,,,,,5,,,66,100
18560,note_off,,,,,0,0,13,,,,,5,,,75,100
18560,note_off,,,,,128,0,8,,,,,0,,,78,100
18560,note_off,,,,,128,0,9,,,,,1,,,75,100
18560,note_off,,,,,128,0,12,,,,,4,,,47,100
18560,note_off,,,,,128,0,11,,,,,3,,,59,100
18560,note_off,,,,,128,0,14,,,,,5,,,59,100
18560,note_off,,,,,128,0,10,,,,,2,,,71,100
18624,note_on,,,,,64,0,9,,,,,1,,,73,87
18624,note_on,,,,,64,0,8,,,,,0,,,76,87
18688,note_off,,,,,64,0,9,,,,,1,,,73,100
18688,note_off,,,,,64,0,8,,,,,0,,,76,100
18720,note_on,,,,,32,0,8,,,,,0,,,78,87
18720,note_on,,,,,32,0,9,,,,,1,,,75,87
18784,note_off,,,,,64,0,8,,,,,0,,,78,100
18784,note_off,,,,,64,0,9,,,,,1,,,75,100
18816,note_on,,,,,256,0,12,,,,,4,,,40,88
18816,note_on,,,,,0,0,13,,,,,5,,,71,100
18816,note_on,,,,,256,0,13,,,,,5,,,67,100
18816,note_on,,,,,32,0,9,,,,,1,,,76,88
18816,note_on,,,,,256,0,14,,,,,5,,,52,100
18816,note_on,,,,,256,0,11,,,,,3,,,52,88
18816,note_on,,,,,256,0,10,,,,,2,,,71,88
18816,note_on,,,,,32,0,8,,,,,0,,,79,88
18944,note_off,,,,,128,0,9,,,,,1,,,76,100
18944,note_off,,,,,128,0,13,,,,,5,,,67,100
18944,note_off,,,,,0,0,13,,,,,5,,,71,100
18944,note_off,,,,,128,0,12,,,,,4,,,40,100
18944,note_off,,,,,128,0,11,,,,,3,,,52,100
18944,note_off,,,,,128,0,10,,,,,2,,,71,100
18944,note_off,,,,,128,0,8,,,,,0,,,79,100
18944,note_off,,,,,128,0,14,,,,,5,,,52,100
19008,note_on,,,,,64,0,9,,,,,1,,,78,89
19008,note_on,,,,,64,0,8,,,,,0,,,81,89
19072,note_off,,,,,64,0,8,,,,,0,,,81,100
19072,note_off,,,,,64,0,9,,,,,1,,,78,100
19104,note_on,,,,,32,0,9,,,,,1,,,76,89
19104,note_on,,,,,32,0,8,,,,,0,,,79,89
19168,note_off,,,,,64,0,9,,,,,1,,,76,100
19168,note_off,,,,,64,0,8,,,,,0,,,79,100
19200,note_on,,,,,256,0,14,,,,,5,,,59,100
19200,note_on,,,,,32,0,9,,,,,1,,,75,90
19200,note_on,,,,,32,0,8,,,,,0,,,78,90
19200,note_on,,,,,0,0,13,,,,,5,,,75,100
19200,note_on,,,,,256,0,13,,,,,5,,,66,100
19200,note_on,,,,,256,0,11,,,,,3,,,59,90
19200,note_on,,,,,256,0,12,,,,,4,,,47,90
19200,note_on,,,,,256,0,10,,,,,2,,,71,90
19328,note_off,,,,,128,0,9,,,,,1,,,75,100
19328,note_off,,,,,0,0,13,,,,,5,,,75,100
19328,note_off,,,,,128,0,13,,,,,5,,,66,100
19328,note_off,,,,,128,0,14,,,,,5,,,59,100
19328,note_off,,,,,128,0,10,,,,,2,,,71,100
19328,note_off,,,,,128,0,11,,,,,3,,,59,100
19328,note_off,,,,,128,0,8,,,,,0,,,78,100
19328,note_off,,,,,128,0,12,,,,,4,,,47,100
19392,note_on,,,,,64,0,9,,,,,1,,,73,91
19392,note_on,,,,,64,0,8,,,,,0,,,76,91
19456,note_off,,,,,64,0,8,,,,,0,,,76,100
19456,note_off,,,,,64,0,9,,,,,1,,,73,100
19488,note_on,,,,,32,0,9,,,,,1,,,75,92
19488,note_on,,,,,32,0,8,,,,,0,,,78,92
19552,note_off,,,,,64,0,8,,,,,0,,,78,100
19552,note_off,,,,,64,0,9,,,,,1,,,75,100
19584,note_on,,,,,256,0,11,,,,,3,,,52,92
19584,note_on,,,,,256,0,14,,,,,5,,,52,100
19584,note_on,,,,,32,0,8,,,,,0,,,79,92
19584,note_on,,,,,32,0,9,,,,,1,,,76,92
19584,note_on,,,,,256,0,12,,,,,4,,,40,92
19584,note_on,,,,,256,0,13,,,,,5,,,67,100
19584,note_on,,,,,0,0,13,,,,,5,,,71,100
19584,note_on,,,,,256,0,10,,,,,2,,,71,92
19712,note_off,,,,,128,0,14,,,,,5,,,52,100
19712,note_off,,,,,128,0,9,,,,,1,,,76,100
19712,note_off,,,,,128,0,12,,,,,4,,,40,100
19712,note_off,,,,,128,0,11,,,,,3,,,52,100
19712,note_off,,,,,128,0,8,,,,,0,,,79,100
19712,note_off,,,,,128,0,13,,,,,5,,,67,100
19712,note_off,,,,,128,0,10,,,,,2,,,71,100
19712,note_off,,,,,0,0,13,,,,,5,,,71,100
19776,note_on,,,,,64,0,9,,,,,1,,,78,93
19776,note_on,,,,,64,0,8,,,,,0,,,81,93
19840,note_off,,,,,64,0,9,,,,,1,,,78,100
19840,note_off,,,,,64,0,8,,,,,0,,,81,100
19872,note_on,,,,,32,0,9,,,,,1,,,76,94
19872,note_on,,,,,32,0,8,,,,,0,,,79,94
19936,note_off,,,,,64,0,9,,,,,1,,,76,100
19936,note_off,,,,,64,0,8,,,,,0,,,79,100
19968,note_on,,,,,256,0,10,,,,,2,,,71,94
19968,note_on,,,,,256,0,12,,,,,4,,,47,94
19968,note_on,,,,,32,0,9,,,,,1,,,75,94
19968,note_on,,,,,256,0,14,,,,,5,,,59,100
19968,note_on,,,,,32,0,8,,,,,0,,,78,94
19968,note_on,,,,,256,0,13,,,,,5,,,66,100
19968,note_on,,,,,0,0,13,,,,,5,,,75,100
19968,note_on,,,,,256,0,11,,,,,3,,,59,94
20032,note_off,,,,,64,0,11,,,,,3,,,59,100
20032,note_off,,,,,64,0,14,,,,,5,,,59,100
20032,note_off,,,,,64,0,12,,,,,4,,,47,100
20064,note_on,,,,,32,0,14,,,,,5,,,61,100
20064,note_on,,,,,32,0,11,,,,,3,,,61,95
20064,note_on,,,,,32,0,12,,,,,4,,,49,95
20096,note_off,,,,,128,0,10,,,,,2,,,71,100
20096,note_off,,,,,128,0,8,,,,,0,,,78,100
20096,note_off,,,,,128,0,9,,,,,1,,,75,100
20096,note_off,,,,,128,0,13,,,,,5,,,66,100
20096,note_off,,,,,0,0,13,,,,,5,,,75,100
20128,note_off,,,,,64,0,12,,,,,4,,,49,100
20128,note_off,,,,,64,0,11,,,,,3,,,61,100
20128,note_off,,,,,64,0,14,,,,,5,,,61,100
20160,note_on,,,,,32,0,11,,,,,3,,,63,95
20160,note_on,,,,,32,0,12,,,,,4,,,51,95
20160,note_on,,,,,32,0,14,,,,,5,,,63,100
20224,note_off,,,,,64,0,12,,,,,4,,,51,100
20224,note_off,,,,,64,0,14,,,,,5,,,63,100
20224,note_off,,,,,64,0,11,,,,,3,,,63,100
20256,note_on,,,,,32,0,12,,,,,4,,,47,96
20256,note_on,,,,,32,0,14,,,,,5,,,59,100
20256,note_on,,,,,32,0,11,,,,,3,,,59,96
20320,note_off,,,,,64,0,12,,,,,4,,,47,100
20320,note_off,,,,,64,0,11,,,,,3,,,59,100
20320,note_off,,,,,64,0,14,,,,,5,,,59,100
20352,note_on,,,,,256,0,13,,,,,5,,,76,100
20352,note_on,,,,,32,0,12,,,,,4,,,40,97
20352,note_on,,,,,256,0,10,,,,,2,,,71,97
20352,note_on,,,,,256,0,9,,,,,1,,,76,97
20352,note_on,,,,,256,0,8,,,,,0,,,79,97
20352,note_on,,,,,32,0,14,,,,,5,,,52,100
20352,note_on,,,,,32,0,11,,,,,3,,,52,97
20352,note_on,,,,,0,0,13,,,,,5,,,71,100
20352,note_on,,,,,0,0,13,,,,,5,,,67,100
20416,note_off,,,,,64,0,11,,,,,3,,,52,100
20416,note_off,,,,,64,0,14,,,,,5,,,52,100
20416,note_off,,,,,64,0,12,,,,,4,,,40,100
20448,note_on,,,,,32,0,14,,,,,5,,,54,100
20448,note_on,,,,,32,0,11,,,,,3,,,54,97
20448,note_on,,,,,32,0,12,,,,,4,,,42,97
20480,note_off,,,,,128,0,9,,,,,1,,,76,100
20480,note_off,,,,,128,0,10,,,,,2,,,71,100
20480,note_off,,,,,0,0,13,,,,,5,,,67,100
20480,note_off,,,,,0,0,13,,,,,5,,,71,100
20480,note_off,,,,,128,0,8,,,,,0,,,79,100
20480,note_off,,,,,128,0,13,,,,,5,,,76,100
20512,note_off,,,,,64,0,12,,,,,4,,,42,100
20512,note_off,,,,,64,0,11,,,,,3,,,54,100
20512,note_off,,,,,64,0,14,,,,,5,,,54,100
20544,note_on,,,,,32,0,12,,,,,4,,,43,98
20544,note_on,,,,,32,0,14,,,,,5,,,55,100
20544,note_on,,,,,32,0,11,,,,,3,,,55,98
20608,note_off,,,,,64,0,12,,,,,4,,,43,100
20608,note_off,,,,,64,0,14,,,,,5,,,55,100
20608,note_off,,,,,64,0,11,,,,,3,,,55,100
20640,note_on,,,,,32,0,14,,,,,5,,,52,100
20640,note_on,,,,,32,0,12,,,,,4,,,40,98
20640,note_on,,,,,32,0,11,,,,,3,,,52,98
20704,note_off,,,,,64,0,11,,,,,3,,,52,100
20704,note_off,,,,,64,0,14,,,,,5,,,52,100
20704,note_off,,,,,64,0,12,,,,,4,,,40,100
20736,note_on,,,,,256,0,8,,,,,0,,,78,99
20736,note_on,,,,,32,0,12,,,,,4,,,47,99
20736,note_on,,,,,32,0,11,,,,,3,,,59,99
20736,note_on,,,,,256,0,10,,,,,2,,,71,99
20736,note_on,,,,,0,0,13,,,,,5,,,75,100
20736,note_on,,,,,256,0,13,,,,,5,,,66,100
20736,note_on,,,,,256,0,9,,,,,1,,,75,99
20736,note_on,,,,,32,0,14,,,,,5,,,59,100
20800,note_off,,,,,64,0,11,,,,,3,,,59,100
20800,note_off,,,,,64,0,12,,,,,4,,,47,100
20800,note_off,,,,,64,0,14,,,,,5,,,59,100
20832,note_on,,,,,32,0,11,,,,,3,,,61,99
20832,note_on,,,,,32,0,12,,,,,4,,,49,99
20832,note_on,,,,,32,0,14,,,,,5,,,61,100
20864,note_off,,,,,128,0,13,,,,,5,,,66,100
20864,note_off,,,,,0,0,13,,,,,5,,,75,100
20864,note_off,,,,,128,0,8,,,,,0,,,78,100
20864,note_off,,,,,128,0,9,,,,,1,,,75,100
20864,note_off,,,,,128,0,10,,,,,2,,,71,100
20896,note_off,,,,,64,0,12,,,,,4,,,49,100
20896,note_off,,,,,64,0,14,,,,,5,,,61,100
20896,note_off,,,,,64,0,11,,,,,3,,,61,100
20928,note_on,,,,,32,0,11,,,,,3,,,63,100
20928,note_on,,,,,32,0,14,,,,,5,,,63,100
20928,note_on,,,,,32,0,12,,,,,4,,,51,100
20992,note_off,,,,,64,0,11,,,,,3,,,63,100
20992,note_off,,,,,64,0,12,,,,,4,,,51,100
20992,note_off,,,,,64,0,14,,,,,5,,,63,100
21024,note_on,,,,,32,0,11,,,,,3,,,59,100
21024,note_on,,,,,32,0,12,,,,,4,,,47,100
21024,note_on,,,,,32,0,14,,,,,5,,,59,100
21088,note_off,,,,,64,0,11,,,,,3,,,59,100
21088,note_off,,,,,64,0,12,,,,,4,,,47,100
21088,note_off,,,,,64,0,14,,,,,5,,,59,100
21120,note_on,,,,,32,0,11,,,,,3,,,52,101
21120,note_on,,,,,256,0,9,,,,,1,,,76,101
21120,note_on,,,,,32,0,14,,,,,5,,,52,100
21120,note_on,,,,,256,0,13,,,,,5,,,76,100
21120,note_on,,,,,256,0,8,,,,,0,,,79,101
21120,note_on,,,,,32,0,12,,,,,4,,,40,101
21120,note_on,,,,,0,0,13,,,,,5,,,67,100
21120,note_on,,,,,256,0,10,,,,,2,,,71,101
21120,note_on,,,,,0,0,13,,,,,5,,,71,100
21184,note_off,,,,,64,0,12,,,,,4,,,40,100
21184,note_off,,,,,64,0,11,,,,,3,,,52,100
21184,note_off,,,,,64,0,14,,,,,5,,,52,100
21216,note_on,,,,,32,0,14,,,,,5,,,54,100
21216,note_on,,,,,32,0,11,,,,,3,,,54,101
21216,note_on,,,,,32,0,12,,,,,4,,,42,101
21248,note_off,,,,,128,0,9,,,,,1,,,76,100
21248,note_off,,,,,128,0,8,,,,,0,,,79,100
21248,note_off,,,,,128,0,10,,,,,2,,,71,100
21248,note_off,,,,,128,0,13,,,,,5,,,76,100
21248,note_off,,,,,0,0,13,,,,,5,,,67,100
21248,note_off,,,,,0,0,13,,,,,5,,,71,100
21280,note_off,,,,,64,0,12,,,,,4,,,42,100
21280,note_off,,,,,64,0,11,,,,,3,,,54,100
21280,note_off,,,,,64,0,14,,,,,5,,,54,100
21312,note_on,,,,,32,0,11,,,,,3,,,55,102
21312,note_on,,,,,32,0,12,,,,,4,,,43,102
21312,note_on,,,,,32,0,14,,,,,5,,,55,100
21376,note_off,,,,,64,0,14,,,,,5,,,55,100
21376,note_off,,,,,64,0,12,,,,,4,,,43,100
21376,note_off,,,,,64,0,11,,,,,3,,,55,100
21408,note_on,,,,,32,0,11,,,,,3,,,52,103
21408,note_on,,,,,32,0,12,,,,,4,,,40,103
21408,note_on,,,,,32,0,14,,,,,5,,,52,100
21472,note_off,,,,,64,0,14,,,,,5,,,52,100
21472,note_off,,,,,64,0,11,,,,,3,,,52,100
21472,note_off,,,,,64,0,12,,,,,4,,,40,100
21504,note_on,,,,,0,0,13,,,,,5,,,75,100
21504,note_on,,,,,256,0,13,,,,,5,,,66,100
21504,note_on,,,,,32,0,11,,,,,3,,,59,103
21504,note_on,,,,,256,0,10,,,,,2,,,71,103
21504,note_on,,,,,32,0,14,,,,,5,,,59,100
21504,note_on,,,,,32,0,12,,,,,4,,,47,103
21504,note_on,,,,,256,0,8,,,,,0,,,78,103
21504,note_on,,,,,256,0,9,,,,,1,,,75,103
21568,note_off,,,,,64,0,14,,,,,5,,,59,100
21568,note_off,,,,,64,0,11,,,,,3,,,59,100
21568,note_off,,,,,64,0,12,,,,,4,,,47,100
21600,note_on,,,,,32,0,11,,,,,3,,,61,104
21600,note_on,,,,,32,0,14,,,,,5,,,61,100
21600,note_on,,,,,32,0,12,,,,,4,,,49,104
21632,note_off,,,,,128,0,13,,,,,5,,,66,100
21632,note_off,,,,,0,0,13,,,,,5,,,75,100
21664,note_off,,,,,64,0,12,,,,,4,,,49,100
21664,note_off,,,,,64,0,14,,,,,5,,,61,100
21664,note_off,,,,,64,0,11,,,,,3,,,61,100
21696,note_on,,,,,32,0,14,,,,,5,,,63,100
21696,note_on,,,,,32,0,11,,,,,3,,,63,104
21696,note_on,,,,,32,0,12,,,,,4,,,51,104
21760,note_off,,,,,256,0,9,,,,,1,,,75,100
21760,note_off,,,,,256,0,10,,,,,2,,,71,100
21760,note_off,,,,,64,0,14,,,,,5,,,63,100
21760,note_off,,,,,64,0,12,,,,,4,,,51,100
21760,note_off,,,,,64,0,11,,,,,3,,,63,100
21760,note_off,,,,,256,0,8,,,,,0,,,78,100
21792,note_on,,,,,32,0,12,,,,,4,,,47,105
21792,note_on,,,,,32,0,14,,,,,5,,,59,100
21792,note_on,,,,,32,0,11,,,,,3,,,59,105
21856,note_off,,,,,64,0,12,,,,,4,,,47,100
21856,note_off,,,,,64,0,11,,,,,3,,,59,100
21856,note_off,,,,,64,0,14,,,,,5,,,59,100
21888,note_on,,,,,32,0,12,,,,,4,,,40,105
21888,note_on,,,,,32,0,14,,,,,5,,,52,100
21888,note_on,,,,,32,0,11,,,,,3,,,52,105
21952,note_off,,,,,64,0,12,,,,,4,,,40,100
21952,note_off,,,,,64,0,11,,,,,3,,,52,100
21952,note_off,,,,,64,0,14,,,,,5,,,52,100
21984,note_on,,,,,32,0,11,,,,,3,,,54,106
21984,note_on,,,,,32,0,14,,,,,5,,,54,100
21984,note_on,,,,,32,0,12,,,,,4,,,42,106
22048,note_off,,,,,64,0,12,,,,,4,,,42,100
22048,note_off,,,,,64,0,11,,,,,3,,,54,100
22048,note_off,,,,,64,0,14,,,,,5,,,54,100
22080,note_on,,,,,32,0,12,,,,,4,,,43,106
22080,note_on,,,,,320,0,10,,,,,2,,,71,106
22080,note_on,,,,,32,0,14,,,,,5,,,55,100
22080,note_on,,,,,32,0,11,,,,,3,,,55,106
22080,note_on,,,,,320,0,9,,,,,1,,,79,106
22080,note_on,,,,,320,0,8,,,,,0,,,83,106
22144,note_off,,,,,64,0,12,,,,,4,,,43,100
22144,note_off,,,,,64,0,11,,,,,3,,,55,100
22144,note_off,,,,,64,0,14,,,,,5,,,55,100
22176,note_on,,,,,32,0,12,,,,,4,,,40,107
22176,note_on,,,,,32,0,11,,,,,3,,,52,107
22176,note_on,,,,,32,0,14,,,,,5,,,52,100
22208,note_off,,,,,128,0,8,,,,,0,,,83,100
22208,note_off,,,,,128,0,10,,,,,2,,,71,100
22208,note_off,,,,,128,0,9,,,,,1,,,79,100
22240,note_off,,,,,64,0,11,,,,,3,,,52,100
22240,note_off,,,,,64,0,14,,,,,5,,,52,100
22240,note_off,,,,,64,0,12,,,,,4,,,40,100
22272,note_on,,,,,32,0,11,,,,,3,,,57,108
22272,note_on,,,,,64,0,10,,,,,2,,,69,108
22272,note_on,,,,,640,0,13,,,,,5,,,76,100
22272,note_on,,,,,32,0,12,,,,,4,,,45,108
22272,note_on,,,,,64,0,9,,,,,1,,,76,108
22272,note_on,,,,,64,0,8,,,,,0,,,84,108
22272,note_on,,,,,0,0,13,,,,,5,,,72,100
22272,note_on,,,,,32,0,14,,,,,5,,,57,100
22400,note_off,,,,,128,0,9,,,,,1,,,76,100
22400,note_off,,,,,128,0,8,,,,,0,,,84,100
22464,note_on,,,,,64,0,9,,,,,1,,,74,106
22464,note_on,,,,,64,0,8,,,,,0,,,83,106
22592,note_off,,,,,128,0,9,,,,,1,,,74,100
22592,note_off,,,,,128,0,8,,,,,0,,,83,100
22656,note_off,,,,,384,0,10,,,,,2,,,69,100
22656,note_off,,,,,384,0,11,,,,,3,,,57,100
22656,note_off,,,,,384,0,14,,,,,5,,,57,100
22656,note_off,,,,,384,0,12,,,,,4,,,45,100
22656,note_off,,,,,0,0,13,,,,,5,,,72,100
22656,note_off,,,,,384,0,13,,,,,5,,,76,100
22656,note_on,,,,,64,0,8,,,,,0,,,81,103
22656,note_on,,,,,64,0,9,,,,,1,,,72,103
22784,note_off,,,,,128,0,9,,,,,1,,,72,100
22784,note_off,,,,,128,0,8,,,,,0,,,81,100
22848,note_on,,,,,192,0,14,,,,,5,,,64,100
22848,note_on,,,,,192,0,12,,,,,4,,,52,101
22848,note_on,,,,,192,0,13,,,,,5,,,67,100
22848,note_on,,,,,192,0,11,,,,,3,,,64,101
22848,note_on,,,,,192,0,10,,,,,2,,,71,101
22848,note_on,,,,,64,0,8,,,,,0,,,79,101
22848,note_on,,,,,64,0,9,,,,,1,,,71,101
22848,note_on,,,,,0,0,13,,,,,5,,,71,100
22976,note_off,,,,,128,0,8,,,,,0,,,79,100
22976,note_off,,,,,128,0,10,,,,,2,,,71,100
22976,note_off,,,,,128,0,13,,,,,5,,,67,100
22976,note_off,,,,,128,0,11,,,,,3,,,64,100
22976,note_off,,,,,128,0,12,,,,,4,,,52,100
22976,note_off,,,,,128,0,14,,,,,5,,,64,100
22976,note_off,,,,,128,0,9,,,,,1,,,71,100
22976,note_off,,,,,0,0,13,,,,,5,,,71,100
23040,note_on,,,,,64,0,12,,,,,4,,,45,100
23040,note_on,,,,,0,0,13,,,,,5,,,72,100
23040,note_on,,,,,64,0,13,,,,,5,,,65,100
23040,note_on,,,,,64,0,9,,,,,1,,,69,100
23040,note_on,,,,,64,0,8,,,,,0,,,77,100
23040,note_on,,,,,64,0,10,,,,,2,,,72,100
23040,note_on,,,,,64,0,11,,,,,3,,,57,100
23040,note_on,,,,,64,0,14,,,,,5,,,57,100
23168,note_off,,,,,128,0,11,,,,,3,,,57,100
23168,note_off,,,,,128,0,12,,,,,4,,,45,100
23168,note_off,,,,,128,0,14,,,,,5,,,57,100
23168,note_off,,,,,0,0,13,,,,,5,,,72,100
23168,note_off,,,,,128,0,13,,,,,5,,,65,100
23168,note_off,,,,,128,0,9,,,,,1,,,69,100
23168,note_off,,,,,128,0,10,,,,,2,,,72,100
23168,note_off,,,,,128,0,8,,,,,0,,,77,100
23232,note_on,,,,,64,0,14,,,,,5,,,59,100
23232,note_on,,,,,64,0,13,,,,,5,,,66,100
23232,note_on,,,,,64,0,9,,,,,1,,,78,100
23232,note_on,,,,,64,0,11,,,,,3,,,59,100
23232,note_on,,,,,0,0,13,,,,,5,,,75,100
23232,note_on,,,,,64,0,12,,,,,4,,,47,100
23232,note_on,,,,,64,0,10,,,,,2,,,71,100
23232,note_on,,,,,64,0,8,,,,,0,,,75,100
23360,note_off,,,,,128,0,10,,,,,2,,,71,100
23360,note_off,,,,,128,0,11,,,,,3,,,59,100
23360,note_off,,,,,128,0,12,,,,,4,,,47,100
23360,note_off,,,,,0,0,13,,,,,5,,,75,100
23360,note_off,,,,,128,0,13,,,,,5,,,66,100
23360,note_off,,,,,128,0,8,,,,,0,,,75,100
23360,note_off,,,,,128,0,14,,,,,5,,,59,100
23360,note_off,,,,,128,0,9,,,,,1,,,78,100
23424,note_on,,,,,64,0,8,,,,,0,,,76,100
23424,note_on,,,,,64,0,12,,,,,4,,,43,100
23424,note_on,,,,,64,0,14,,,,,5,,,55,100
23424,note_on,,,,,64,0,10,,,,,2,,,71,100
23424,note_on,,,,,64,0,9,,,,,1,,,79,100
23424,note_on,,,,,64,0,11,,,,,3,,,55,100
23424,note_on,,,,,0,0,13,,,,,5,,,71,100
23424,note_on,,,,,64,0,13,,,,,5,,,76,100
23552,note_off,,,,,128,0,8,,,,,0,,,76,100
23552,note_off,,,,,128,0,12,,,,,4,,,43,100
23552,note_off,,,,,0,0,13,,,,,5,,,71,100
23552,note_off,,,,,128,0,13,,,,,5,,,76,100
23552,note_off,,,,,128,0,14,,,,,5,,,55,100
23552,note_off,,,,,128,0,11,,,,,3,,,55,100
23552,note_off,,,,,128,0,10,,,,,2,,,71,100
23552,note_off,,,,,128,0,9,,,,,1,,,79,100
23616,note_on,,,,,64,0,12,,,,,4,,,45,100
23616,note_on,,,,,0,0,13,,,,,5,,,76,100
23616,note_on,,,,,64,0,14,,,,,5,,,57,100
23616,note_on,,,,,64,0,11,,,,,3,,,57,100
23616,note_on,,,,,64,0,10,,,,,2,,,72,100
23616,note_on,,,,,64,0,9,,,,,1,,,76,100
23616,note_on,,,,,64,0,8,,,,,0,,,81,100
23616,note_on,,,,,64,0,13,,,,,5,,,72,100
23744,note_off,,,,,128,0,11,,,,,3,,,57,100
23744,note_off,,,,,128,0,8,,,,,0,,,81,100
23744,note_off,,,,,128,0,13,,,,,5,,,72,100
23744,note_off,,,,,128,0,14,,,,,5,,,57,100
23744,note_off,,,,,128,0,10,,,,,2,,,72,100
23744,note_off,,,,,128,0,9,,,,,1,,,76,100
23744,note_off,,,,,128,0,12,,,,,4,,,45,100
23744,note_off,,,,,0,0,13,,,,,5,,,76,100
23808,note_on,,,,,64,0,14,,,,,5,,,59,100
23808,note_on,,,,,64,0,9,,,,,1,,,76,100
23808,note_on,,,,,64,0,11,,,,,3,,,59,100
23808,note_on,,,,,0,0,13,,,,,5,,,76,100
23808,note_on,,,,,64,0,13,,,,,5,,,67,100
23808,note_on,,,,,64,0,12,,,,,4,,,47,100
23808,note_on,,,,,64,0,8,,,,,0,,,79,100
23808,note_on,,,,,64,0,10,,,,,2,,,71,100
24064,note_off,,,,,256,0,8,,,,,0,,,79,100
24064,note_off,,,,,256,0,12,,,,,4,,,47,100
24064,note_off,,,,,256,0,9,,,,,1,,,76,100
24064,note_off,,,,,256,0,14,,,,,5,,,59,100
24064,note_off,,,,,256,0,10,,,,,2,,,71,100
24064,note_off,,,,,256,0,13,,,,,5,,,67,100
24064,note_off,,,,,0,0,13,,,,,5,,,76,100
24064,note_off,,,,,256,0,11,,,,,3,,,59,100
24192,note_on,,,,,128,0,13,,,,,5,,,75,100
24192,note_on,,,,,128,0,10,,,,,2,,,71,98
24192,note_on,,,,,0,0,13,,,,,5,,,66,100
24192,note_on,,,,,128,0,9,,,,,1,,,75,98
24192,note_on,,,,,128,0,12,,,,,4,,,35,98
24192,note_on,,,,,128,0,14,,,,,5,,,47,100
24192,note_on,,,,,128,0,8,,,,,0,,,78,98
24192,note_on,,,,,128,0,11,,,,,3,,,47,98
24448,note_off,,,,,256,0,9,,,,,1,,,75,100
24448,note_off,,,,,256,0,11,,,,,3,,,47,100
24448,note_off,,,,,256,0,14,,,,,5,,,47,100
24448,note_off,,,,,256,0,12,,,,,4,,,35,100
24448,note_off,,,,,256,0,8,,,,,0,,,78,100
24448,note_off,,,,,256,0,10,,,,,2,,,71,100
24448,note_off,,,,,0,0,13,,,,,5,,,66,100
24448,note_off,,,,,256,0,13,,,,,5,,,75,100
24572,program_change,,,,,124,0,9,,,,,1,40,,,
24576,note_on,,,,,4,0,9,,,,,1,,,76,96
24576,note_on,,,,,128,0,13,,,,,5,,,76,100
24576,note_on,,,,,0,0,13,,,,,5,,,67,100
24576,note_on,,,,,0,0,13,,,,,5,,,71,100
24576,note_on,,,,,128,0,8,,,,,0,,,76,96
24576,note_on,,,,,128,0,10,,,,,2,,,67,96
24576,note_on,,,,,128,0,11,,,,,3,,,52,96
24576,note_on,,,,,128,0,14,,,,,5,,,52,100
24576,note_on,,,,,128,0,12,,,,,4,,,40,96
24640,note_off,,,,,64,0,9,,,,,1,,,76,100
24672,note_on,,,,,32,0,9,,,,,1,,,79,100
24736,note_off,,,,,64,0,9,,,,,1,,,79,100
24768,note_on,,,,,32,0,9,,,,,1,,,78,100
24832,note_off,,,,,256,0,11,,,,,3,,,52,100
24832,note_off,,,,,256,0,14,,,,,5,,,52,100
24832,note_off,,,,,256,0,8,,,,,0,,,76,100
24832,note_off,,,,,64,0,9,,,,,1,,,78,100
24832,note_off,,,,,256,0,10,,,,,2,,,67,100
24832,note_off,,,,,0,0,13,,,,,5,,,71,100
24832,note_off,,,,,0,0,13,,,,,5,,,67,100
24832,note_off,,,,,256,0,13,,,,,5,,,76,100
24832,note_off,,,,,256,0,12,,,,,4,,,40,100
24864,note_on,,,,,32,0,9,,,,,1,,,76,100
24928,note_off,,,,,64,0,9,,,,,1,,,76,100
24960,note_on,,,,,32,0,9,,,,,1,,,75,100
24960,note_on,,,,,128,0,11,,,,,3,,,59,85
24960,note_on,,,,,128,0,13,,,,,5,,,66,100
24960,note_on,,,,,0,0,13,,,,,5,,,75,100
24960,note_on,,,,,128,0,14,,,,,5,,,59,100
24960,note_on,,,,,128,0,12,,,,,4,,,47,85
25024,note_off,,,,,64,0,9,,,,,1,,,75,100
25056,note_on,,,,,32,0,9,,,,,1,,,76,100
25088,note_off,,,,,128,0,13,,,,,5,,,66,100
25088,note_off,,,,,0,0,13,,,,,5,,,75,100
25088,note_off,,,,,128,0,12,,,,,4,,,47,100
25088,note_off,,,,,128,0,14,,,,,5,,,59,100
25088,note_off,,,,,128,0,11,,,,,3,,,59,100
25120,note_off,,,,,64,0,9,,,,,1,,,76,100
25152,note_on,,,,,64,0,13,,,,,5,,,64,100
25152,note_on,,,,,0,0,13,,,,,5,,,73,100
25152,note_on,,,,,64,0,12,,,,,4,,,45,85
25152,note_on,,,,,64,0,14,,,,,5,,,57,100
25152,note_on,,,,,64,0,11,,,,,3,,,57,85
25152,note_on,,,,,32,0,9,,,,,1,,,73,100
25216,note_off,,,,,64,0,9,,,,,1,,,73,100
25248,note_on,,,,,32,0,9,,,,,1,,,75,100
25280,note_off,,,,,128,0,12,,,,,4,,,45,100
25280,note_off,,,,,128,0,11,,,,,3,,,57,100
25280,note_off,,,,,0,0,13,,,,,5,,,73,100
25280,note_off,,,,,128,0,13,,,,,5,,,64,100
25280,note_off,,,,,128,0,14,,,,,5,,,57,100
25312,note_off,,,,,64,0,9,,,,,1,,,75,100
25344,note_on,,,,,64,0,12,,,,,4,,,43,85
25344,note_on,,,,,32,0,9,,,,,1,,,76,100
25344,note_on,,,,,64,0,13,,,,,5,,,64,100
25344,note_on,,,,,64,0,11,,,,,3,,,55,85
25344,note_on,,,,,64,0,14,,,,,5,,,55,100
25344,note_on,,,,,0,0,13,,,,,5,,,71,100
25408,note_off,,,,,64,0,9,,,,,1,,,76,100
25440,note_on,,,,,32,0,9,,,,,1,,,79,100
25472,note_off,,,,,0,0,13,,,,,5,,,71,100
25472,note_off,,,,,128,0,13,,,,,5,,,64,100
25472,note_off,,,,,128,0,14,,,,,5,,,55,100
25472,note_off,,,,,128,0,12,,,,,4,,,43,100
25472,note_off,,,,,128,0,11,,,,,3,,,55,100
25504,note_off,,,,,64,0,9,,,,,1,,,79,100
25536,note_on,,,,,64,0,12,,,,,4,,,40,85
25536,note_on,,,,,64,0,11,,,,,3,,,52,85
25536,note_on,,,,,0,0,13,,,,,5,,,67,100
25536,note_on,,,,,64,0,14,,,,,5,,,52,100
25536,note_on,,,,,64,0,13,,,,,5,,,59,100
25536,note_on,,,,,32,0,9,,,,,1,,,78,100
25600,note_off,,,,,64,0,9,,,,,1,,,78,100
25632,note_on,,,,,32,0,9,,,,,1,,,79,100
25664,note_off,,,,,128,0,13,,,,,5,,,59,100
25664,note_off,,,,,0,0,13,,,,,5,,,67,100
25664,note_off,,,,,128,0,12,,,,,4,,,40,100
25664,note_off,,,,,128,0,11,,,,,3,,,52,100
25664,note_off,,,,,128,0,14,,,,,5,,,52,100
25696,note_off,,,,,64,0,9,,,,,1,,,79,100
25728,note_on,,,,,32,0,9,,,,,1,,,76,100
25728,note_on,,,,,64,0,12,,,,,4,,,43,85
25728,note_on,,,,,64,0,14,,,,,5,,,55,100
25728,note_on,,,,,64,0,11,,,,,3,,,55,85
25728,note_on,,,,,64,0,13,,,,,5,,,64,100
25728,note_on,,,,,0,0,13,,,,,5,,,71,100
25792,note_off,,,,,64,0,9,,,,,1,,,76,100
25824,note_on,,,,,32,0,9,,,,,1,,,79,100
25856,note_off,,,,,0,0,13,,,,,5,,,71,100
25856,note_off,,,,,128,0,14,,,,,5,,,55,100
25856,note_off,,,,,128,0,11,,,,,3,,,55,100
25856,note_off,,,,,128,0,12,,,,,4,,,43,100
25856,note_off,,,,,128,0,13,,,,,5,,,64,100
25888,note_off,,,,,64,0,9,,,,,1,,,79,100
25920,note_on,,,,,32,0,9,,,,,1,,,78,100
25920,note_on,,,,,64,0,12,,,,,4,,,45,85
25920,note_on,,,,,64,0,14,,,,,5,,,57,100
25920,note_on,,,,,64,0,13,,,,,5,,,66,100
25920,note_on,,,,,0,0,13,,,,,5,,,73,100
25920,note_on,,,,,64,0,11,,,,,3,,,57,85
25984,note_off,,,,,64,0,9,,,,,1,,,78,100
26016,note_on,,,,,32,0,9,,,,,1,,,76,100
26048,note_off,,,,,128,0,13,,,,,5,,,66,100
26048,note_off,,,,,0,0,13,,,,,5,,,73,100
26048,note_off,,,,,128,0,11,,,,,3,,,57,100
26048,note_off,,,,,128,0,12,,,,,4,,,45,100
26048,note_off,,,,,128,0,14,,,,,5,,,57,100
26080,note_off,,,,,64,0,9,,,,,1,,,76,100
26112,note_on,,,,,64,0,14,,,,,5,,,59,100
26112,note_on,,,,,64,0,11,,,,,3,,,59,85
26112,note_on,,,,,32,0,9,,,,,1,,,75,100
26112,note_on,,,,,64,0,12,,,,,4,,,47,85
26112,note_on,,,,,64,0,13,,,,,5,,,75,100
26112,note_on,,,,,0,0,13,,,,,5,,,66,100
26176,note_off,,,,,64,0,9,,,,,1,,,75,100
26208,note_on,,,,,32,0,9,,,,,1,,,76,100
26240,note_off,,,,,128,0,12,,,,,4,,,47,100
26240,note_off,,,,,128,0,13,,,,,5,,,75,100
26240,note_off,,,,,128,0,11,,,,,3,,,59,100
26240,note_off,,,,,128,0,14,,,,,5,,,59,100
26240,note_off,,,,,0,0,13,,,,,5,,,66,100
26272,note_off,,,,,64,0,9,,,,,1,,,76,100
26304,note_on,,,,,64,0,12,,,,,4,,,35,85
26304,note_on,,,,,32,0,9,,,,,1,,,73,100
26304,note_on,,,,,0,0,13,,,,,5,,,66,100
26304,note_on,,,,,64,0,13,,,,,5,,,63,100
26304,note_on,,,,,64,0,11,,,,,3,,,47,85
26304,note_on,,,,,64,0,14,,,,,5,,,47,100
26368,note_off,,,,,64,0,9,,,,,1,,,73,100
26400,note_on,,,,,32,0,9,,,,,1,,,75,100
26432,note_off,,,,,128,0,13,,,,,5,,,63,100
26432,note_off,,,,,0,0,13,,,,,5,,,66,100
26432,note_off,,,,,128,0,11,,,,,3,,,47,100
26432,note_off,,,,,128,0,14,,,,,5,,,47,100
26432,note_off,,,,,128,0,12,,,,,4,,,35,100
26464,note_off,,,,,64,0,9,,,,,1,,,75,100
26496,note_on,,,,,32,0,9,,,,,1,,,71,100
26496,note_on,,,,,64,0,14,,,,,5,,,59,100
26496,note_on,,,,,64,0,12,,,,,4,,,47,70
26496,note_on,,,,,64,0,11,,,,,3,,,59,70
26496,note_on,,,,,64,0,13,,,,,5,,,66,100
26496,note_on,,,,,0,0,13,,,,,5,,,75,100
26624,note_off,,,,,128,0,13,,,,,5,,,66,100
26624,note_off,,,,,128,0,12,,,,,4,,,47,100
26624,note_off,,,,,128,0,11,,,,,3,,,59,100
26624,note_off,,,,,128,0,14,,,,,5,,,59,100
26624,note_off,,,,,0,0,13,,,,,5,,,75,100
26688,note_on,,,,,64,0,14,,,,,5,,,57,100
26688,note_on,,,,,64,0,11,,,,,3,,,57,70
26688,note_on,,,,,0,0,13,,,,,5,,,64,100
26688,note_on,,,,,64,0,12,,,,,4,,,45,70
26688,note_on,,,,,64,0,13,,,,,5,,,73,100
26752,note_off,,,,,256,0,9,,,,,1,,,71,100
26816,note_off,,,,,128,0,11,,,,,3,,,57,100
26816,note_off,,,,,128,0,13,,,,,5,,,73,100
26816,note_off,,,,,128,0,14,,,,,5,,,57,100
26816,note_off,,,,,0,0,13,,,,,5,,,64,100
26816,note_off,,,,,128,0,12,,,,,4,,,45,100
26880,note_on,,,,,128,0,9,,,,,1,,,76,85
26880,note_on,,,,,0,0,13,,,,,5,,,71,100
26880,note_on,,,,,64,0,11,,,,,3,,,55,70
26880,note_on,,,,,64,0,13,,,,,5,,,64,100
26880,note_on,,,,,64,0,12,,,,,4,,,43,70
26880,note_on,,,,,64,0,14,,,,,5,,,55,100
26944,note_off,,,,,64,0,9,,,,,1,,,76,100
26976,note_on,,,,,32,0,9,,,,,1,,,79,85
27008,note_off,,,,,128,0,14,,,,,5,,,55,100
27008,note_off,,,,,128,0,13,,,,,5,,,64,100
27008,note_off,,,,,128,0,12,,,,,4,,,43,100
27008,note_off,,,,,128,0,11,,,,,3,,,55,100
27008,note_off,,,,,0,0,13,,,,,5,,,71,100
27040,note_off,,,,,64,0,9,,,,,1,,,79,100
27072,note_on,,,,,64,0,12,,,,,4,,,40,70
27072,note_on,,,,,0,0,13,,,,,5,,,67,100
27072,note_on,,,,,32,0,9,,,,,1,,,78,85
27072,note_on,,,,,64,0,13,,,,,5,,,59,100
27072,note_on,,,,,64,0,14,,,,,5,,,52,100
27072,note_on,,,,,64,0,11,,,,,3,,,52,70
27136,note_off,,,,,64,0,9,,,,,1,,,78,100
27168,note_on,,,,,32,0,9,,,,,1,,,76,85
27200,note_off,,,,,0,0,13,,,,,5,,,67,100
27200,note_off,,,,,128,0,13,,,,,5,,,59,100
27200,note_off,,,,,128,0,14,,,,,5,,,52,100
27200,note_off,,,,,128,0,11,,,,,3,,,52,100
27200,note_off,,,,,128,0,12,,,,,4,,,40,100
27232,note_off,,,,,64,0,9,,,,,1,,,76,100
27264,note_on,,,,,64,0,13,,,,,5,,,66,100
27264,note_on,,,,,0,0,13,,,,,5,,,75,100
27264,note_on,,,,,64,0,14,,,,,5,,,59,100
27264,note_on,,,,,64,0,11,,,,,3,,,59,70
27264,note_on,,,,,32,0,9,,,,,1,,,75,85
27264,note_on,,,,,64,0,12,,,,,4,,,47,70
27328,note_off,,,,,64,0,9,,,,,1,,,75,100
27360,note_on,,,,,32,0,9,,,,,1,,,76,85
27392,note_off,,,,,128,0,12,,,,,4,,,47,100
27392,note_off,,,,,0,0,13,,,,,5,,,75,100
27392,note_off,,,,,128,0,14,,,,,5,,,59,100
27392,note_off,,,,,128,0,11,,,,,3,,,59,100
27392,note_off,,,,,128,0,13,,,,,5,,,66,100
27424,note_off,,,,,64,0,9,,,,,1,,,76,100
27456,note_on,,,,,0,0,13,,,,,5,,,73,100
27456,note_on,,,,,64,0,14,,,,,5,,,57,100
27456,note_on,,,,,64,0,13,,,,,5,,,64,100
27456,note_on,,,,,32,0,9,,,,,1,,,73,85
27456,note_on,,,,,64,0,11,,,,,3,,,57,70
27456,note_on,,,,,64,0,12,,,,,4,,,45,70
27520,note_off,,,,,64,0,9,,,,,1,,,73,100
27552,note_on,,,,,32,0,9,,,,,1,,,75,85
27584,note_off,,,,,128,0,11,,,,,3,,,57,100
27584,note_off,,,,,128,0,14,,,,,5,,,57,100
27584,note_off,,,,,128,0,12,,,,,4,,,45,100
27584,note_off,,,,,128,0,13,,,,,5,,,64,100
27584,note_off,,,,,0,0,13,,,,,5,,,73,100
27616,note_off,,,,,64,0,9,,,,,1,,,75,100
27648,note_on,,,,,32,0,9,,,,,1,,,76,85
27648,note_on,,,,,64,0,11,,,,,3,,,55,70
27648,note_on,,,,,64,0,14,,,,,5,,,55,100
27648,note_on,,,,,64,0,12,,,,,4,,,43,70
27648,note_on,,,,,0,0,13,,,,,5,,,71,100
27648,note_on,,,,,64,0,13,,,,,5,,,64,100
27712,note_off,,,,,64,0,9,,,,,1,,,76,100
27744,note_on,,,,,32,0,9,,,,,1,,,79,85
27776,note_off,,,,,0,0,13,,,,,5,,,71,100
27776,note_off,,,,,128,0,12,,,,,4,,,43,100
27776,note_off,,,,,128,0,14,,,,,5,,,55,100
27776,note_off,,,,,128,0,13,,,,,5,,,64,100
27776,note_off,,,,,128,0,11,,,,,3,,,55,100
27808,note_off,,,,,64,0,9,,,,,1,,,79,100
27840,note_on,,,,,64,0,12,,,,,4,,,40,70
27840,note_on,,,,,64,0,14,,,,,5,,,52,100
27840,note_on,,,,,32,0,9,,,,,1,,,78,85
27840,note_on,,,,,64,0,11,,,,,3,,,52,70
27840,note_on,,,,,64,0,13,,,,,5,,,59,100
27840,note_on,,,,,0,0,13,,,,,5,,,67,100
27904,note_off,,,,,64,0,9,,,,,1,,,78,100
27936,note_on,,,,,32,0,9,,,,,1,,,79,85
27968,note_off,,,,,128,0,12,,,,,4,,,40,100
27968,note_off,,,,,0,0,13,,,,,5,,,67,100
27968,note_off,,,,,128,0,11,,,,,3,,,52,100
27968,note_off,,,,,128,0,14,,,,,5,,,52,100
27968,note_off,,,,,128,0,13,,,,,5,,,59,100
28000,note_off,,,,,64,0,9,,,,,1,,,79,100
28032,note_on,,,,,0,0,13,,,,,5,,,71,100
28032,note_on,,,,,32,0,9,,,,,1,,,76,85
28032,note_on,,,,,64,0,13,,,,,5,,,64,100
28032,note_on,,,,,64,0,11,,,,,3,,,55,70
28032,note_on,,,,,64,0,14,,,,,5,,,55,100
28032,note_on,,,,,64,0,12,,,,,4,,,43,70
28096,note_off,,,,,64,0,9,,,,,1,,,76,100
28128,note_on,,,,,32,0,9,,,,,1,,,79,85
28160,note_off,,,,,128,0,11,,,,,3,,,55,100
28160,note_off,,,,,128,0,14,,,,,5,,,55,100
28160,note_off,,,,,128,0,12,,,,,4,,,43,100
28160,note_off,,,,,128,0,13,,,,,5,,,64,100
28160,note_off,,,,,0,0,13,,,,,5,,,71,100
28192,note_off,,,,,64,0,9,,,,,1,,,79,100
28224,note_on,,,,,64,0,11,,,,,3,,,57,70
28224,note_on,,,,,64,0,12,,,,,4,,,45,70
28224,note_on,,,,,32,0,9,,,,,1,,,78,85
28224,note_on,,,,,64,0,14,,,,,5,,,57,100
28224,note_on,,,,,64,0,13,,,,,5,,,64,100
28224,note_on,,,,,0,0,13,,,,,5,,,73,100
28288,note_off,,,,,64,0,9,,,,,1,,,78,100
28320,note_on,,,,,32,0,9,,,,,1,,,76,85
28352,note_off,,,,,128,0,14,,,,,5,,,57,100
28352,note_off,,,,,128,0,12,,,,,4,,,45,100
28352,note_off,,,,,128,0,11,,,,,3,,,57,100
28352,note_off,,,,,128,0,13,,,,,5,,,64,100
28352,note_off,,,,,0,0,13,,,,,5,,,73,100
28384,note_off,,,,,64,0,9,,,,,1,,,76,100
28412,program_change,,,,,3580,0,8,,,,,0,40,,,
28416,note_on,,,,,64,0,11,,,,,3,,,59,70
28416,note_on,,,,,64,0,13,,,,,5,,,66,100
28416,note_on,,,,,0,0,13,,,,,5,,,75,100
28416,note_on,,,,,32,0,9,,,,,1,,,75,85
28416,note_on,,,,,64,0,14,,,,,5,,,59,100
28416,note_on,,,,,64,0,12,,,,,4,,,47,70
28480,note_off,,,,,64,0,9,,,,,1,,,75,100
28512,note_on,,,,,32,0,9,,,,,1,,,76,85
28544,note_off,,,,,128,0,14,,,,,5,,,59,100
28544,note_off,,,,,128,0,11,,,,,3,,,59,100
28544,note_off,,,,,0,0,13,,,,,5,,,75,100
28544,note_off,,,,,128,0,12,,,,,4,,,47,100
28544,note_off,,,,,128,0,13,,,,,5,,,66,100
28576,note_off,,,,,64,0,9,,,,,1,,,76,100
28608,note_on,,,,,32,0,9,,,,,1,,,73,85
28608,note_on,,,,,64,0,13,,,,,5,,,63,100
28608,note_on,,,,,64,0,12,,,,,4,,,35,70
28608,note_on,,,,,64,0,11,,,,,3,,,47,70
28608,note_on,,,,,0,0,13,,,,,5,,,66,100
28608,note_on,,,,,64,0,14,,,,,5,,,47,100
28672,note_off,,,,,64,0,9,,,,,1,,,73,100
28704,note_on,,,,,32,0,9,,,,,1,,,75,85
28736,note_off,,,,,128,0,11,,,,,3,,,47,100
28736,note_off,,,,,0,0,13,,,,,5,,,66,100
28736,note_off,,,,,128,0,14,,,,,5,,,47,100
28736,note_off,,,,,128,0,13,,,,,5,,,63,100
28736,note_off,,,,,128,0,12,,,,,4,,,35,100
28768,note_off,,,,,64,0,9,,,,,1,,,75,100
28800,note_on,,,,,32,0,9,,,,,1,,,71,85
28896,note_on,,,,,484,0,8,,,,,0,,,78,100
28960,note_off,,,,,64,0,8,,,,,0,,,78,100
28992,note_on,,,,,256,0,13,,,,,5,,,66,100
28992,note_on,,,,,0,0,13,,,,,5,,,75,100
28992,note_on,,,,,256,0,11,,,,,3,,,59,85
28992,note_on,,,,,256,0,12,,,,,4,,,47,85
28992,note_on,,,,,32,0,8,,,,,0,,,79,100
28992,note_on,,,,,256,0,14,,,,,5,,,59,100
29056,note_off,,,,,256,0,9,,,,,1,,,71,100
29056,note_off,,,,,64,0,8,,,,,0,,,79,100
29088,note_on,,,,,32,0,8,,,,,0,,,81,100
29120,note_off,,,,,128,0,13,,,,,5,,,66,100
29120,note_off,,,,,128,0,12,,,,,4,,,47,100
29120,note_off,,,,,128,0,14,,,,,5,,,59,100
29120,note_off,,,,,0,0,13,,,,,5,,,75,100
29120,note_off,,,,,128,0,11,,,,,3,,,59,100
29152,note_off,,,,,64,0,8,,,,,0,,,81,100
29184,note_on,,,,,64,0,13,,,,,5,,,71,100
29184,note_on,,,,,64,0,12,,,,,4,,,51,85
29184,note_on,,,,,0,0,13,,,,,5,,,66,100
29184,note_on,,,,,64,0,11,,,,,3,,,63,85
29184,note_on,,,,,32,0,8,,,,,0,,,83,100
29184,note_on,,,,,64,0,14,,,,,5,,,63,100
29248,note_off,,,,,64,0,8,,,,,0,,,83,100
29280,note_on,,,,,32,0,8,,,,,0,,,78,100
29312,note_off,,,,,128,0,13,,,,,5,,,71,100
29312,note_off,,,,,0,0,13,,,,,5,,,66,100
29312,note_off,,,,,128,0,14,,,,,5,,,63,100
29312,note_off,,,,,128,0,12,,,,,4,,,51,100
29312,note_off,,,,,128,0,11,,,,,3,,,63,100
29344,note_off,,,,,64,0,8,,,,,0,,,78,100
29376,note_on,,,,,64,0,12,,,,,4,,,47,85
29376,note_on,,,,,64,0,11,,,,,3,,,59,85
29376,note_on,,,,,32,0,8,,,,,0,,,79,100
29376,note_on,,,,,0,0,13,,,,,5,,,66,100
29376,note_on,,,,,64,0,13,,,,,5,,,63,100
29376,note_on,,,,,64,0,14,,,,,5,,,59,100
29440,note_off,,,,,64,0,8,,,,,0,,,79,100
29472,note_on,,,,,32,0,8,,,,,0,,,81,101
29504,note_off,,,,,128,0,12,,,,,4,,,47,100
29504,note_off,,,,,128,0,13,,,,,5,,,63,100
29504,note_off,,,,,0,0,13,,,,,5,,,66,100
29504,note_off,,,,,128,0,11,,,,,3,,,59,100
29504,note_off,,,,,128,0,14,,,,,5,,,59,100
29536,note_off,,,,,64,0,8,,,,,0,,,81,100
29568,note_on,,,,,64,0,13,,,,,5,,,71,100
29568,note_on,,,,,32,0,8,,,,,0,,,83,102
29568,note_on,,,,,64,0,12,,,,,4,,,51,85
29568,note_on,,,,,64,0,11,,,,,3,,,63,85
29568,note_on,,,,,0,0,13,,,,,5,,,66,100
29568,note_on,,,,,64,0,14,,,,,5,,,63,100
29632,note_off,,,,,64,0,8,,,,,0,,,83,100
29664,note_on,,,,,32,0,8,,,,,0,,,81,103
29696,note_off,,,,,128,0,13,,,,,5,,,71,100
29696,note_off,,,,,0,0,13,,,,,5,,,66,100
29696,note_off,,,,,128,0,11,,,,,3,,,63,100
29696,note_off,,,,,128,0,12,,,,,4,,,51,100
29696,note_off,,,,,128,0,14,,,,,5,,,63,100
29728,note_off,,,,,64,0,8,,,,,0,,,81,100
29760,note_on,,,,,32,0,8,,,,,0,,,79,104
29760,note_on,,,,,0,0,13,,,,,5,,,66,100
29760,note_on,,,,,64,0,13,,,,,5,,,63,100
29760,note_on,,,,,64,0,11,,,,,3,,,59,85
29760,note_on,,,,,64,0,12,,,,,4,,,47,85
29760,note_on,,,,,64,0,14,,,,,5,,,59,100
29824,note_off,,,,,64,0,8,,,,,0,,,79,100
29856,note_on,,,,,32,0,8,,,,,0,,,78,105
29888,note_off,,,,,128,0,11,,,,,3,,,59,100
29888,note_off,,,,,0,0,13,,,,,5,,,66,100
29888,note_off,,,,,128,0,14,,,,,5,,,59,100
29888,note_off,,,,,128,0,12,,,,,4,,,47,100
29888,note_off,,,,,128,0,13,,,,,5,,,63,100
29920,note_off,,,,,64,0,8,,,,,0,,,78,100
29952,note_on,,,,,32,0,8,,,,,0,,,79,106
29952,note_on,,,,,64,0,14,,,,,5,,,64,100
29952,note_on,,,,,64,0,11,,,,,3,,,64,85
29952,note_on,,,,,0,0,13,,,,,5,,,71,100
29952,note_on,,,,,64,0,13,,,,,5,,,67,100
29952,note_on,,,,,64,0,12,,,,,4,,,52,85
30016,note_off,,,,,64,0,8,,,,,0,,,79,100
30048,note_on,,,,,32,0,8,,,,,0,,,81,107
30080,note_off,,,,,128,0,13,,,,,5,,,67,100
30080,note_off,,,,,128,0,11,,,,,3,,,64,100
30080,note_off,,,,,128,0,14,,,,,5,,,64,100
30080,note_off,,,,,128,0,12,,,,,4,,,52,100
30080,note_off,,,,,0,0,13,,,,,5,,,71,100
30112,note_off,,,,,64,0,8,,,,,0,,,81,100
30144,note_on,,,,,64,0,14,,,,,5,,,52,100
30144,note_on,,,,,64,0,12,,,,,4,,,40,85
30144,note_on,,,,,32,0,8,,,,,0,,,83,108
30144,note_on,,,,,64,0,13,,,,,5,,,59,100
30144,note_on,,,,,64,0,11,,,,,3,,,52,85
30144,note_on,,,,,0,0,13,,,,,5,,,67,100
30208,note_off,,,,,64,0,8,,,,,0,,,83,100
30240,note_on,,,,,32,0,8,,,,,0,,,79,109
30272,note_off,,,,,0,0,13,,,,,5,,,67,100
30272,note_off,,,,,128,0,12,,,,,4,,,40,100
30272,note_off,,,,,128,0,13,,,,,5,,,59,100
30272,note_off,,,,,128,0,14,,,,,5,,,52,100
30272,note_off,,,,,128,0,11,,,,,3,,,52,100
30304,note_off,,,,,64,0,8,,,,,0,,,79,100
30336,note_on,,,,,64,0,12,,,,,4,,,40,85
30336,note_on,,,,,64,0,13,,,,,5,,,59,100
30336,note_on,,,,,64,0,14,,,,,5,,,52,100
30336,note_on,,,,,0,0,13,,,,,5,,,67,100
30336,note_on,,,,,64,0,11,,,,,3,,,52,85
30336,note_on,,,,,32,0,8,,,,,0,,,76,109
30464,note_off,,,,,0,0,13,,,,,5,,,67,100
30464,note_off,,,,,128,0,11,,,,,3,,,52,100
30464,note_off,,,,,128,0,12,,,,,4,,,40,100
30464,note_off,,,,,128,0,8,,,,,0,,,76,100
30464,note_off,,,,,128,0,14,,,,,5,,,52,100
30464,note_off,,,,,128,0,13,,,,,5,,,59,100
30528,note_on,,,,,64,0,11,,,,,3,,,64,85
30528,note_on,,,,,64,0,8,,,,,0,,,83,116
30528,note_on,,,,,64,0,14,,,,,5,,,64,100
30528,note_on,,,,,0,0,13,,,,,5,,,67,100
30528,note_on,,,,,64,0,12,,,,,4,,,52,85
30528,note_on,,,,,64,0,13,,,,,5,,,71,100
30656,note_off,,,,,128,0,12,,,,,4,,,52,100
30656,note_off,,,,,128,0,8,,,,,0,,,83,100
30656,note_off,,,,,128,0,14,,,,,5,,,64,100
30656,note_off,,,,,0,0,13,,,,,5,,,67,100
30656,note_off,,,,,128,0,11,,,,,3,,,64,100
30656,note_off,,,,,128,0,13,,,,,5,,,71,100
30720,note_on,,,,,64,0,14,,,,,5,,,64,100
30720,note_on,,,,,64,0,8,,,,,0,,,84,112
30720,note_on,,,,,64,0,11,,,,,3,,,64,85
30720,note_on,,,,,64,0,13,,,,,5,,,67,100
30720,note_on,,,,,0,0,13,,,,,5,,,72,100
30720,note_on,,,,,64,0,12,,,,,4,,,52,85
30848,note_off,,,,,128,0,14,,,,,5,,,64,100
30848,note_off,,,,,128,0,13,,,,,5,,,67,100
30848,note_off,,,,,128,0,12,,,,,4,,,52,100
30848,note_off,,,,,128,0,11,,,,,3,,,64,100
30848,note_off,,,,,0,0,13,,,,,5,,,72,100
30912,note_on,,,,,64,0,13,,,,,5,,,60,100
30912,note_on,,,,,0,0,13,,,,,5,,,67,100
30912,note_off,,,,,192,0,8,,,,,0,,,84,100
30912,note_on,,,,,64,0,12,,,,,4,,,40,85
30912,note_on,,,,,64,0,11,,,,,3,,,52,85
30912,note_on,,,,,64,0,14,,,,,5,,,52,100
31008,note_on,,,,,96,0,8,,,,,0,,,83,109
31040,note_off,,,,,128,0,11,,,,,3,,,52,100
31040,note_off,,,,,128,0,14,,,,,5,,,52,100
31040,note_off,,,,,128,0,12,,,,,4,,,40,100
31040,note_off,,,,,0,0,13,,,,,5,,,67,100
31040,note_off,,,,,128,0,13,,,,,5,,,60,100
31072,note_off,,,,,64,0,8,,,,,0,,,83,100
31104,note_on,,,,,32,0,8,,,,,0,,,81,107
31104,note_on,,,,,64,0,14,,,,,5,,,52,100
31104,note_on,,,,,64,0,11,,,,,3,,,52,85
31104,note_on,,,,,64,0,12,,,,,4,,,40,85
31104,note_on,,,,,64,0,13,,,,,5,,,60,100
31104,note_on,,,,,0,0,13,,,,,5,,,67,100
31168,note_off,,,,,64,0,8,,,,,0,,,81,100
31200,note_on,,,,,32,0,8,,,,,0,,,79,105
31232,note_off,,,,,128,0,13,,,,,5,,,60,100
31232,note_off,,,,,0,0,13,,,,,5,,,67,100
31232,note_off,,,,,128,0,12,,,,,4,,,40,100
31232,note_off,,,,,128,0,14,,,,,5,,,52,100
31232,note_off,,,,,128,0,11,,,,,3,,,52,100
31264,note_off,,,,,64,0,8,,,,,0,,,79,100
31296,note_on,,,,,64,0,13,,,,,5,,,67,100
31296,note_on,,,,,0,0,13,,,,,5,,,72,100
31296,note_on,,,,,32,0,8,,,,,0,,,78,103
31296,note_on,,,,,64,0,12,,,,,4,,,52,85
31296,note_on,,,,,64,0,14,,,,,5,,,64,100
31296,note_on,,,,,64,0,11,,,,,3,,,64,85
31360,note_off,,,,,64,0,8,,,,,0,,,78,100
31392,note_on,,,,,32,0,8,,,,,0,,,76,101
31424,note_off,,,,,128,0,11,,,,,3,,,64,100
31424,note_off,,,,,128,0,14,,,,,5,,,64,100
31424,note_off,,,,,128,0,12,,,,,4,,,52,100
31424,note_off,,,,,0,0,13,,,,,5,,,72,100
31424,note_off,,,,,128,0,13,,,,,5,,,67,100
31456,note_off,,,,,64,0,8,,,,,0,,,76,100
31488,note_on,,,,,32,0,8,,,,,0,,,78,100
31488,note_on,,,,,64,0,12,,,,,4,,,50,85
31488,note_on,,,,,64,0,13,,,,,5,,,69,100
31488,note_on,,,,,0,0,13,,,,,5,,,72,100
31488,note_on,,,,,64,0,14,,,,,5,,,62,100
31488,note_on,,,,,64,0,11,,,,,3,,,62,85
31552,note_off,,,,,64,0,8,,,,,0,,,78,100
31584,note_on,,,,,32,0,8,,,,,0,,,79,100
31616,note_off,,,,,128,0,13,,,,,5,,,69,100
31616,note_off,,,,,0,0,13,,,,,5,,,72,100
31616,note_off,,,,,128,0,14,,,,,5,,,62,100
31616,note_off,,,,,128,0,12,,,,,4,,,50,100
31616,note_off,,,,,128,0,11,,,,,3,,,62,100
31648,note_off,,,,,64,0,8,,,,,0,,,79,100
31680,note_on,,,,,64,0,12,,,,,4,,,38,85
31680,note_on,,,,,32,0,8,,,,,0,,,81,100
31680,note_on,,,,,64,0,11,,,,,3,,,50,85
31680,note_on,,,,,0,0,13,,,,,5,,,69,100
31680,note_on,,,,,64,0,13,,,,,5,,,66,100
31680,note_on,,,,,64,0,14,,,,,5,,,50,100
31744,note_off,,,,,64,0,8,,,,,0,,,81,100
31776,note_on,,,,,32,0,8,,,,,0,,,78,100
31808,note_off,,,,,128,0,14,,,,,5,,,50,100
31808,note_off,,,,,0,0,13,,,,,5,,,69,100
31808,note_off,,,,,128,0,11,,,,,3,,,50,100
31808,note_off,,,,,128,0,13,,,,,5,,,66,100
31808,note_off,,,,,128,0,12,,,,,4,,,38,100
31840,note_off,,,,,64,0,8,,,,,0,,,78,100
31872,note_on,,,,,32,0,8,,,,,0,,,74,100
31872,note_on,,,,,64,0,14,,,,,5,,,50,100
31872,note_on,,,,,0,0,13,,,,,5,,,69,100
31872,note_on,,,,,64,0,12,,,,,4,,,38,85
31872,note_on,,,,,64,0,11,,,,,3,,,50,85
31872,note_on,,,,,64,0,13,,,,,5,,,66,100
32000,note_off,,,,,128,0,8,,,,,0,,,74,100
32000,note_off,,,,,128,0,12,,,,,4,,,38,100
32000,note_off,,,,,128,0,11,,,,,3,,,50,100
32000,note_off,,,,,0,0,13,,,,,5,,,69,100
32000,note_off,,,,,128,0,13,,,,,5,,,66,100
32000,note_off,,,,,128,0,14,,,,,5,,,50,100
32064,note_on,,,,,64,0,12,,,,,4,,,50,85
32064,note_on,,,,,0,0,13,,,,,5,,,72,100
32064,note_on,,,,,64,0,8,,,,,0,,,81,116
32064,note_on,,,,,64,0,14,,,,,5,,,62,100
32064,note_on,,,,,64,0,13,,,,,5,,,69,100
32064,note_on,,,,,64,0,11,,,,,3,,,62,85
32192,note_off,,,,,128,0,12,,,,,4,,,50,100
32192,note_off,,,,,128,0,14,,,,,5,,,62,100
32192,note_off,,,,,128,0,13,,,,,5,,,69,100
32192,note_off,,,,,0,0,13,,,,,5,,,72,100
32192,note_off,,,,,128,0,8,,,,,0,,,81,100
32192,note_off,,,,,128,0,11,,,,,3,,,62,100
32256,note_on,,,,,64,0,11,,,,,3,,,62,85
32256,note_on,,,,,64,0,12,,,,,4,,,50,85
32256,note_on,,,,,64,0,14,,,,,5,,,62,100
32256,note_on,,,,,64,0,13,,,,,5,,,71,100
32256,note_on,,,,,0,0,13,,,,,5,,,66,100
32256,note_on,,,,,64,0,8,,,,,0,,,83,112
32384,note_off,,,,,128,0,12,,,,,4,,,50,100
32384,note_off,,,,,128,0,13,,,,,5,,,71,100
32384,note_off,,,,,128,0,14,,,,,5,,,62,100
32384,note_off,,,,,0,0,13,,,,,5,,,66,100
32384,note_off,,,,,128,0,11,,,,,3,,,62,100
32448,note_on,,,,,64,0,14,,,,,5,,,50,100
32448,note_on,,,,,64,0,13,,,,,5,,,59,100
32448,note_on,,,,,64,0,11,,,,,3,,,50,85
32448,note_on,,,,,64,0,12,,,,,4,,,38,85
32448,note_off,,,,,192,0,8,,,,,0,,,83,100
32448,note_on,,,,,0,0,13,,,,,5,,,66,100
32544,note_on,,,,,96,0,8,,,,,0,,,81,109
32576,note_off,,,,,0,0,13,,,,,5,,,66,100
32576,note_off,,,,,128,0,12,,,,,4,,,38,100
32576,note_off,,,,,128,0,14,,,,,5,,,50,100
32576,note_off,,,,,128,0,13,,,,,5,,,59,100
32576,note_off,,,,,128,0,11,,,,,3,,,50,100
32608,note_off,,,,,64,0,8,,,,,0,,,81,100
32640,note_on,,,,,0,0,13,,,,,5,,,66,100
32640,note_on,,,,,32,0,8,,,,,0,,,79,107
32640,note_on,,,,,64,0,14,,,,,5,,,50,100
32640,note_on,,,,,64,0,11,,,,,3,,,50,85
32640,note_on,,,,,64,0,13,,,,,5,,,59,100
32640,note_on,,,,,64,0,12,,,,,4,,,38,85
32704,note_off,,,,,64,0,8,,,,,0,,,79,100
32736,note_on,,,,,32,0,8,,,,,0,,,78,105
32768,note_off,,,,,128,0,13,,,,,5,,,59,100
32768,note_off,,,,,128,0,14,,,,,5,,,50,100
32768,note_off,,,,,128,0,12,,,,,4,,,38,100
32768,note_off,,,,,128,0,11,,,,,3,,,50,100
32768,note_off,,,,,0,0,13,,,,,5,,,66,100
32800,note_off,,,,,64,0,8,,,,,0,,,78,100
32832,note_on,,,,,32,0,8,,,,,0,,,76,103
32832,note_on,,,,,0,0,13,,,,,5,,,66,100
32832,note_on,,,,,64,0,13,,,,,5,,,71,100
32832,note_on,,,,,64,0,12,,,,,4,,,50,85
32832,note_on,,,,,64,0,14,,,,,5,,,62,100
32832,note_on,,,,,64,0,11,,,,,3,,,62,85
32896,note_off,,,,,64,0,8,,,,,0,,,76,100
32928,note_on,,,,,32,0,8,,,,,0,,,74,101
32960,note_off,,,,,128,0,13,,,,,5,,,71,100
32960,note_off,,,,,0,0,13,,,,,5,,,66,100
32960,note_off,,,,,128,0,12,,,,,4,,,50,100
32960,note_off,,,,,128,0,14,,,,,5,,,62,100
32960,note_off,,,,,128,0,11,,,,,3,,,62,100
32992,note_off,,,,,64,0,8,,,,,0,,,74,100
33024,note_on,,,,,64,0,13,,,,,5,,,67,100
33024,note_on,,,,,0,0,13,,,,,5,,,71,100
33024,note_on,,,,,64,0,14,,,,,5,,,60,100
33024,note_on,,,,,32,0,8,,,,,0,,,76,100
33024,note_on,,,,,64,0,12,,,,,4,,,48,85
33024,note_on,,,,,64,0,11,,,,,3,,,60,85
33088,note_off,,,,,64,0,8,,,,,0,,,76,100
33120,note_on,,,,,32,0,8,,,,,0,,,78,100
33152,note_off,,,,,128,0,13,,,,,5,,,67,100
33152,note_off,,,,,128,0,11,,,,,3,,,60,100
33152,note_off,,,,,128,0,12,,,,,4,,,48,100
33152,note_off,,,,,0,0,13,,,,,5,,,71,100
33152,note_off,,,,,128,0,14,,,,,5,,,60,100
33184,note_off,,,,,64,0,8,,,,,0,,,78,100
33216,note_on,,,,,32,0,8,,,,,0,,,79,100
33216,note_on,,,,,64,0,13,,,,,5,,,64,100
33216,note_on,,,,,0,0,13,,,,,5,,,67,100
33216,note_on,,,,,64,0,12,,,,,4,,,36,85
33216,note_on,,,,,64,0,14,,,,,5,,,48,100
33216,note_on,,,,,64,0,11,,,,,3,,,48,85
33280,note_off,,,,,64,0,8,,,,,0,,,79,100
33312,note_on,,,,,32,0,8,,,,,0,,,76,100
33344,note_off,,,,,128,0,11,,,,,3,,,48,100
33344,note_off,,,,,128,0,13,,,,,5,,,64,100
33344,note_off,,,,,128,0,14,,,,,5,,,48,100
33344,note_off,,,,,128,0,12,,,,,4,,,36,100
33344,note_off,,,,,0,0,13,,,,,5,,,67,100
33376,note_off,,,,,64,0,8,,,,,0,,,76,100
33408,note_on,,,,,64,0,13,,,,,5,,,64,100
33408,note_on,,,,,0,0,13,,,,,5,,,67,100
33408,note_on,,,,,64,0,11,,,,,3,,,48,85
33408,note_on,,,,,64,0,12,,,,,4,,,36,85
33408,note_on,,,,,64,0,14,,,,,5,,,48,100
33408,note_on,,,,,32,0,8,,,,,0,,,72,100
33536,note_off,,,,,128,0,12,,,,,4,,,36,100
33536,note_off,,,,,0,0,13,,,,,5,,,67,100
33536,note_off,,,,,128,0,13,,,,,5,,,64,100
33536,note_off,,,,,128,0,11,,,,,3,,,48,100
33536,note_off,,,,,128,0,14,,,,,5,,,48,100
33536,note_off,,,,,128,0,8,,,,,0,,,72,100
33600,note_on,,,,,64,0,8,,,,,0,,,79,106
33600,note_on,,,,,0,0,13,,,,,5,,,71,100
33600,note_on,,,,,64,0,13,,,,,5,,,67,100
33600,note_on,,,,,64,0,12,,,,,4,,,48,85
33600,note_on,,,,,64,0,11,,,,,3,,,60,85
33600,note_on,,,,,64,0,14,,,,,5,,,60,100
33728,note_off,,,,,128,0,8,,,,,0,,,79,100
33728,note_off,,,,,128,0,11,,,,,3,,,60,100
33728,note_off,,,,,128,0,13,,,,,5,,,67,100
33728,note_off,,,,,128,0,12,,,,,4,,,48,100
33728,note_off,,,,,128,0,14,,,,,5,,,60,100
33728,note_off,,,,,0,0,13,,,,,5,,,71,100
33792,note_on,,,,,64,0,11,,,,,3,,,60,85
33792,note_on,,,,,64,0,14,,,,,5,,,60,100
33792,note_on,,,,,64,0,12,,,,,4,,,48,85
33792,note_on,,,,,64,0,8,,,,,0,,,81,103
33792,note_on,,,,,64,0,13,,,,,5,,,64,100
33792,note_on,,,,,0,0,13,,,,,5,,,69,100
33920,note_off,,,,,128,0,11,,,,,3,,,60,100
33920,note_off,,,,,128,0,12,,,,,4,,,48,100
33920,note_off,,,,,128,0,14,,,,,5,,,60,100
33920,note_off,,,,,128,0,13,,,,,5,,,64,100
33920,note_off,,,,,0,0,13,,,,,5,,,69,100
33984,note_on,,,,,0,0,13,,,,,5,,,64,100
33984,note_on,,,,,64,0,14,,,,,5,,,48,100
33984,note_on,,,,,64,0,12,,,,,4,,,36,85
33984,note_on,,,,,64,0,11,,,,,3,,,48,85
33984,note_on,,,,,64,0,13,,,,,5,,,57,100
33984,note_off,,,,,192,0,8,,,,,0,,,81,100
34080,note_on,,,,,96,0,8,,,,,0,,,83,101
34112,note_off,,,,,128,0,12,,,,,4,,,36,100
34112,note_off,,,,,0,0,13,,,,,5,,,64,100
34112,note_off,,,,,128,0,14,,,,,5,,,48,100
34112,note_off,,,,,128,0,13,,,,,5,,,57,100
34112,note_off,,,,,128,0,11,,,,,3,,,48,100
34144,note_off,,,,,64,0,8,,,,,0,,,83,100
34176,note_on,,,,,64,0,12,,,,,4,,,36,85
34176,note_on,,,,,0,0,13,,,,,5,,,64,100
34176,note_on,,,,,64,0,13,,,,,5,,,57,100
34176,note_on,,,,,64,0,11,,,,,3,,,48,85
34176,note_on,,,,,64,0,14,,,,,5,,,48,100
34176,note_on,,,,,32,0,8,,,,,0,,,81,99
34240,note_off,,,,,64,0,8,,,,,0,,,81,100
34272,note_on,,,,,32,0,8,,,,,0,,,79,97
34304,note_off,,,,,128,0,11,,,,,3,,,48,100
34304,note_off,,,,,128,0,13,,,,,5,,,57,100
34304,note_off,,,,,0,0,13,,,,,5,,,64,100
34304,note_off,,,,,128,0,12,,,,,4,,,36,100
34304,note_off,,,,,128,0,14,,,,,5,,,48,100
34336,note_off,,,,,64,0,8,,,,,0,,,79,100
34368,note_on,,,,,64,0,12,,,,,4,,,48,85
34368,note_on,,,,,64,0,11,,,,,3,,,60,85
34368,note_on,,,,,64,0,14,,,,,5,,,60,100
34368,note_on,,,,,32,0,8,,,,,0,,,78,95
34368,note_on,,,,,0,0,13,,,,,5,,,64,100
34368,note_on,,,,,64,0,13,,,,,5,,,69,100
34432,note_off,,,,,64,0,8,,,,,0,,,78,100
34464,note_on,,,,,32,0,8,,,,,0,,,76,93
34496,note_off,,,,,128,0,11,,,,,3,,,60,100
34496,note_off,,,,,128,0,14,,,,,5,,,60,100
34496,note_off,,,,,128,0,13,,,,,5,,,69,100
34496,note_off,,,,,0,0,13,,,,,5,,,64,100
34496,note_off,,,,,128,0,12,,,,,4,,,48,100
34528,note_off,,,,,64,0,8,,,,,0,,,76,100
34560,note_on,,,,,64,0,13,,,,,5,,,63,100
34560,note_on,,,,,64,0,11,,,,,3,,,59,85
34560,note_on,,,,,32,0,8,,,,,0,,,75,90
34560,note_on,,,,,64,0,12,,,,,4,,,47,85
34560,note_on,,,,,64,0,14,,,,,5,,,59,100
34560,note_on,,,,,0,0,13,,,,,5,,,66,100
34624,note_off,,,,,64,0,8,,,,,0,,,75,100
34656,note_on,,,,,32,0,8,,,,,0,,,71,91
34688,note_off,,,,,128,0,12,,,,,4,,,47,100
34688,note_off,,,,,128,0,14,,,,,5,,,59,100
34688,note_off,,,,,0,0,13,,,,,5,,,66,100
34688,note_off,,,,,128,0,13,,,,,5,,,63,100
34688,note_off,,,,,128,0,11,,,,,3,,,59,100
34720,note_off,,,,,64,0,8,,,,,0,,,71,100
34752,note_on,,,,,64,0,12,,,,,4,,,45,85
34752,note_on,,,,,64,0,13,,,,,5,,,63,100
34752,note_on,,,,,0,0,13,,,,,5,,,66,100
34752,note_on,,,,,32,0,8,,,,,0,,,71,92
34752,note_on,,,,,64,0,14,,,,,5,,,57,100
34752,note_on,,,,,64,0,11,,,,,3,,,57,85
34816,note_off,,,,,64,0,8,,,,,0,,,71,100
34848,note_on,,,,,32,0,8,,,,,0,,,75,93
34880,note_off,,,,,128,0,12,,,,,4,,,45,100
34880,note_off,,,,,128,0,14,,,,,5,,,57,100
34880,note_off,,,,,128,0,11,,,,,3,,,57,100
34880,note_off,,,,,0,0,13,,,,,5,,,66,100
34880,note_off,,,,,128,0,13,,,,,5,,,63,100
34912,note_off,,,,,64,0,8,,,,,0,,,75,100
34944,note_on,,,,,64,0,13,,,,,5,,,64,100
34944,note_on,,,,,64,0,14,,,,,5,,,55,100
34944,note_on,,,,,32,0,8,,,,,0,,,76,94
34944,note_on,,,,,64,0,12,,,,,4,,,43,85
34944,note_on,,,,,64,0,11,,,,,3,,,55,85
34944,note_on,,,,,0,0,13,,,,,5,,,71,100
35008,note_off,,,,,64,0,8,,,,,0,,,76,100
35040,note_on,,,,,32,0,8,,,,,0,,,71,95
35072,note_off,,,,,128,0,14,,,,,5,,,55,100
35072,note_off,,,,,128,0,12,,,,,4,,,43,100
35072,note_off,,,,,128,0,11,,,,,3,,,55,100
35072,note_off,,,,,0,0,13,,,,,5,,,71,100
35072,note_off,,,,,128,0,13,,,,,5,,,64,100
35104,note_off,,,,,64,0,8,,,,,0,,,71,100
35136,note_on,,,,,64,0,12,,,,,4,,,40,85
35136,note_on,,,,,64,0,14,,,,,5,,,52,100
35136,note_on,,,,,32,0,8,,,,,0,,,71,96
35136,note_on,,,,,0,0,13,,,,,5,,,67,100
35136,note_on,,,,,64,0,13,,,,,5,,,71,100
35136,note_on,,,,,64,0,11,,,,,3,,,52,85
35200,note_off,,,,,64,0,8,,,,,0,,,71,100
35232,note_on,,,,,32,0,8,,,,,0,,,76,97
35264,note_off,,,,,128,0,11,,,,,3,,,52,100
35264,note_off,,,,,128,0,12,,,,,4,,,40,100
35264,note_off,,,,,128,0,13,,,,,5,,,71,100
35264,note_off,,,,,0,0,13,,,,,5,,,67,100
35264,note_off,,,,,128,0,14,,,,,5,,,52,100
35296,note_off,,,,,64,0,8,,,,,0,,,76,100
35328,note_on,,,,,64,0,11,,,,,3,,,51,85
35328,note_on,,,,,64,0,13,,,,,5,,,71,100
35328,note_on,,,,,0,0,13,,,,,5,,,66,100
35328,note_on,,,,,32,0,8,,,,,0,,,78,98
35328,note_on,,,,,64,0,14,,,,,5,,,51,100
35328,note_on,,,,,64,0,12,,,,,4,,,39,85
35392,note_off,,,,,64,0,8,,,,,0,,,78,100
35424,note_on,,,,,32,0,8,,,,,0,,,71,99
35456,note_off,,,,,128,0,13,,,,,5,,,71,100
35456,note_off,,,,,0,0,13,,,,,5,,,66,100
35456,note_off,,,,,128,0,14,,,,,5,,,51,100
35456,note_off,,,,,128,0,12,,,,,4,,,39,100
35456,note_off,,,,,128,0,11,,,,,3,,,51,100
35488,note_off,,,,,64,0,8,,,,,0,,,71,100
35520,note_on,,,,,32,0,8,,,,,0,,,71,101
35520,note_on,,,,,64,0,14,,,,,5,,,47,100
35520,note_on,,,,,64,0,11,,,,,3,,,47,85
35520,note_on,,,,,64,0,13,,,,,5,,,63,100
35520,note_on,,,,,0,0,13,,,,,5,,,66,100
35520,note_on,,,,,64,0,12,,,,,4,,,35,85
35584,note_off,,,,,64,0,8,,,,,0,,,71,100
35616,note_on,,,,,32,0,8,,,,,0,,,78,102
35648,note_off,,,,,128,0,11,,,,,3,,,47,100
35648,note_off,,,,,128,0,13,,,,,5,,,63,100
35648,note_off,,,,,128,0,14,,,,,5,,,47,100
35648,note_off,,,,,128,0,12,,,,,4,,,35,100
35648,note_off,,,,,0,0,13,,,,,5,,,66,100
35680,note_off,,,,,64,0,8,,,,,0,,,78,100
35712,note_on,,,,,32,0,8,,,,,0,,,79,103
35776,note_off,,,,,64,0,8,,,,,0,,,79,100
35808,note_on,,,,,32,0,8,,,,,0,,,71,104
35872,note_off,,,,,64,0,8,,,,,0,,,71,100
35904,note_on,,,,,32,0,8,,,,,0,,,71,105
35904,note_on,,,,,256,0,11,,,,,3,,,52,85
35904,note_on,,,,,256,0,12,,,,,4,,,40,85
35904,note_on,,,,,256,0,14,,,,,5,,,52,100
35904,note_on,,,,,256,0,13,,,,,5,,,67,100
35904,note_on,,,,,0,0,13,,,,,5,,,71,100
35968,note_off,,,,,64,0,8,,,,,0,,,71,100
36000,note_on,,,,,32,0,8,,,,,0,,,79,106
36032,note_off,,,,,0,0,13,,,,,5,,,71,100
36032,note_off,,,,,128,0,11,,,,,3,,,52,100
36032,note_off,,,,,128,0,12,,,,,4,,,40,100
36032,note_off,,,,,128,0,13,,,,,5,,,67,100
36032,note_off,,,,,128,0,14,,,,,5,,,52,100
36064,note_off,,,,,64,0,8,,,,,0,,,79,100
36096,note_on,,,,,64,0,11,,,,,3,,,51,85
36096,note_on,,,,,0,0,13,,,,,5,,,71,100
36096,note_on,,,,,64,0,13,,,,,5,,,66,100
36096,note_on,,,,,32,0,8,,,,,0,,,81,107
36096,note_on,,,,,64,0,14,,,,,5,,,51,100
36096,note_on,,,,,64,0,12,,,,,4,,,39,85
36160,note_off,,,,,64,0,8,,,,,0,,,81,100
36192,note_on,,,,,32,0,8,,,,,0,,,71,108
36224,note_off,,,,,128,0,14,,,,,5,,,51,100
36224,note_off,,,,,0,0,13,,,,,5,,,71,100
36224,note_off,,,,,128,0,13,,,,,5,,,66,100
36224,note_off,,,,,128,0,12,,,,,4,,,39,100
36224,note_off,,,,,128,0,11,,,,,3,,,51,100
36256,note_off,,,,,64,0,8,,,,,0,,,71,100
36288,note_on,,,,,64,0,13,,,,,5,,,63,100
36288,note_on,,,,,0,0,13,,,,,5,,,66,100
36288,note_on,,,,,64,0,14,,,,,5,,,47,100
36288,note_on,,,,,64,0,12,,,,,4,,,35,85
36288,note_on,,,,,64,0,11,,,,,3,,,47,85
36288,note_on,,,,,32,0,8,,,,,0,,,71,109
36352,note_off,,,,,64,0,8,,,,,0,,,71,100
36384,note_on,,,,,32,0,8,,,,,0,,,81,110
36416,note_off,,,,,128,0,12,,,,,4,,,35,100
36416,note_off,,,,,128,0,11,,,,,3,,,47,100
36416,note_off,,,,,0,0,13,,,,,5,,,66,100
36416,note_off,,,,,128,0,14,,,,,5,,,47,100
36416,note_off,,,,,128,0,13,,,,,5,,,63,100
36448,note_off,,,,,64,0,8,,,,,0,,,81,100
36480,note_on,,,,,32,0,8,,,,,0,,,79,109
36544,note_off,,,,,64,0,8,,,,,0,,,79,100
36576,note_on,,,,,32,0,8,,,,,0,,,71,108
36640,note_off,,,,,64,0,8,,,,,0,,,71,100
36672,note_on,,,,,256,0,13,,,,,5,,,67,100
36672,note_on,,,,,32,0,8,,,,,0,,,71,107
36672,note_on,,,,,256,0,12,,,,,4,,,40,85
36672,note_on,,,,,256,0,14,,,,,5,,,52,100
36672,note_on,,,,,0,0,13,,,,,5,,,71,100
36672,note_on,,,,,256,0,11,,,,,3,,,52,85
36736,note_off,,,,,64,0,8,,,,,0,,,71,100
36768,note_on,,,,,32,0,8,,,,,0,,,79,106
36800,note_off,,,,,128,0,11,,,,,3,,,52,100
36800,note_off,,,,,128,0,12,,,,,4,,,40,100
36800,note_off,,,,,0,0,13,,,,,5,,,71,100
36800,note_off,,,,,128,0,14,,,,,5,,,52,100
36800,note_off,,,,,128,0,13,,,,,5,,,67,100
36832,note_off,,,,,64,0,8,,,,,0,,,79,100
36864,note_on,,,,,64,0,14,,,,,5,,,51,100
36864,note_on,,,,,64,0,12,,,,,4,,,39,85
36864,note_on,,,,,0,0,13,,,,,5,,,71,100
36864,note_on,,,,,64,0,13,,,,,5,,,66,100
36864,note_on,,,,,32,0,8,,,,,0,,,78,104
36864,note_on,,,,,64,0,11,,,,,3,,,51,85
36928,note_off,,,,,64,0,8,,,,,0,,,78,100
36960,note_on,,,,,32,0,8,,,,,0,,,71,103
36992,note_off,,,,,128,0,13,,,,,5,,,66,100
36992,note_off,,,,,128,0,14,,,,,5,,,51,100
36992,note_off,,,,,0,0,13,,,,,5,,,71,100
36992,note_off,,,,,128,0,11,,,,,3,,,51,100
36992,note_off,,,,,128,0,12,,,,,4,,,39,100
37024,note_off,,,,,64,0,8,,,,,0,,,71,100
37056,note_on,,,,,64,0,14,,,,,5,,,47,100
37056,note_on,,,,,64,0,11,,,,,3,,,47,85
37056,note_on,,,,,0,0,13,,,,,5,,,66,100
37056,note_on,,,,,64,0,13,,,,,5,,,63,100
37056,note_on,,,,,32,0,8,,,,,0,,,71,102
37056,note_on,,,,,64,0,12,,,,,4,,,35,85
37120,note_off,,,,,64,0,8,,,,,0,,,71,100
37152,note_on,,,,,32,0,8,,,,,0,,,78,101
37184,note_off,,,,,128,0,11,,,,,3,,,47,100
37184,note_off,,,,,128,0,13,,,,,5,,,63,100
37184,note_off,,,,,0,0,13,,,,,5,,,66,100
37184,note_off,,,,,128,0,14,,,,,5,,,47,100
37184,note_off,,,,,128,0,12,,,,,4,,,35,100
37216,note_off,,,,,64,0,8,,,,,0,,,78,100
37248,note_on,,,,,64,0,13,,,,,5,,,64,100
37248,note_on,,,,,64,0,12,,,,,4,,,43,85
37248,note_on,,,,,32,0,8,,,,,0,,,76,99
37248,note_on,,,,,0,0,13,,,,,5,,,71,100
37248,note_on,,,,,64,0,11,,,,,3,,,55,85
37248,note_on,,,,,64,0,14,,,,,5,,,55,100
37312,note_off,,,,,64,0,8,,,,,0,,,76,100
37344,note_on,,,,,32,0,8,,,,,0,,,71,98
37376,note_off,,,,,128,0,13,,,,,5,,,64,100
37376,note_off,,,,,128,0,12,,,,,4,,,43,100
37376,note_off,,,,,0,0,13,,,,,5,,,71,100
37376,note_off,,,,,128,0,11,,,,,3,,,55,100
37376,note_off,,,,,128,0,14,,,,,5,,,55,100
37408,note_off,,,,,64,0,8,,,,,0,,,71,100
37440,note_on,,,,,64,0,13,,,,,5,,,67,100
37440,note_on,,,,,0,0,13,,,,,5,,,71,100
37440,note_on,,,,,32,0,8,,,,,0,,,71,97
37440,note_on,,,,,64,0,14,,,,,5,,,52,100
37440,note_on,,,,,64,0,12,,,,,4,,,40,85
37440,note_on,,,,,64,0,11,,,,,3,,,52,85
37504,note_off,,,,,64,0,8,,,,,0,,,71,100
37536,note_on,,,,,32,0,8,,,,,0,,,76,96
37568,note_off,,,,,0,0,13,,,,,5,,,71,100
37568,note_off,,,,,128,0,14,,,,,5,,,52,100
37568,note_off,,,,,128,0,12,,,,,4,,,40,100
37568,note_off,,,,,128,0,13,,,,,5,,,67,100
37568,note_off,,,,,128,0,11,,,,,3,,,52,100
37600,note_off,,,,,64,0,8,,,,,0,,,76,100
37632,note_on,,,,,0,0,13,,,,,5,,,66,100
37632,note_on,,,,,64,0,11,,,,,3,,,57,85
37632,note_on,,,,,64,0,14,,,,,5,,,57,100
37632,note_on,,,,,64,0,12,,,,,4,,,45,85
37632,note_on,,,,,64,0,13,,,,,5,,,76,100
37632,note_on,,,,,32,0,8,,,,,0,,,76,94
37696,note_off,,,,,64,0,8,,,,,0,,,76,100
37728,note_on,,,,,32,0,8,,,,,0,,,71,93
37760,note_off,,,,,128,0,14,,,,,5,,,57,100
37760,note_off,,,,,0,0,13,,,,,5,,,66,100
37760,note_off,,,,,128,0,12,,,,,4,,,45,100
37760,note_off,,,,,128,0,11,,,,,3,,,57,100
37760,note_off,,,,,128,0,13,,,,,5,,,76,100
37792,note_off,,,,,64,0,8,,,,,0,,,71,100
37824,note_on,,,,,32,0,8,,,,,0,,,71,92
37824,note_on,,,,,64,0,13,,,,,5,,,64,100
37824,note_on,,,,,64,0,14,,,,,5,,,54,100
37824,note_on,,,,,64,0,11,,,,,3,,,54,85
37824,note_on,,,,,64,0,12,,,,,4,,,42,85
37824,note_on,,,,,0,0,13,,,,,5,,,71,100
37888,note_off,,,,,64,0,8,,,,,0,,,71,100
37920,note_on,,,,,32,0,8,,,,,0,,,76,91
37952,note_off,,,,,128,0,12,,,,,4,,,42,100
37952,note_off,,,,,128,0,11,,,,,3,,,54,100
37952,note_off,,,,,128,0,13,,,,,5,,,64,100
37952,note_off,,,,,128,0,14,,,,,5,,,54,100
37952,note_off,,,,,0,0,13,,,,,5,,,71,100
37984,note_off,,,,,64,0,8,,,,,0,,,76,100
38016,note_on,,,,,64,0,14,,,,,5,,,59,100
38016,note_on,,,,,64,0,11,,,,,3,,,59,85
38016,note_on,,,,,64,0,12,,,,,4,,,47,85
38016,note_on,,,,,32,0,8,,,,,0,,,75,89
38016,note_on,,,,,64,0,13,,,,,5,,,66,100
38016,note_on,,,,,0,0,13,,,,,5,,,75,100
38080,note_off,,,,,64,0,8,,,,,0,,,75,100
38112,note_on,,,,,32,0,8,,,,,0,,,71,88
38144,note_off,,,,,128,0,14,,,,,5,,,59,100
38144,note_off,,,,,128,0,12,,,,,4,,,47,100
38144,note_off,,,,,128,0,13,,,,,5,,,66,100
38144,note_off,,,,,0,0,13,,,,,5,,,75,100
38144,note_off,,,,,128,0,11,,,,,3,,,59,100
38176,note_off,,,,,64,0,8,,,,,0,,,71,100
38208,note_on,,,,,0,0,13,,,,,5,,,66,100
38208,note_on,,,,,64,0,14,,,,,5,,,47,100
38208,note_on,,,,,32,0,8,,,,,0,,,71,87
38208,note_on,,,,,64,0,13,,,,,5,,,63,100
38208,note_on,,,,,64,0,11,,,,,3,,,47,85
38208,note_on,,,,,64,0,12,,,,,4,,,35,85
38272,note_off,,,,,64,0,8,,,,,0,,,71,100
38304,note_on,,,,,32,0,8,,,,,0,,,75,86
38336,note_off,,,,,128,0,11,,,,,3,,,47,100
38336,note_off,,,,,128,0,12,,,,,4,,,35,100
38336,note_off,,,,,128,0,14,,,,,5,,,47,100
38336,note_off,,,,,128,0,13,,,,,5,,,63,100
38336,note_off,,,,,0,0,13,,,,,5,,,66,100
38368,note_off,,,,,64,0,8,,,,,0,,,75,100
38400,note_on,,,,,64,0,12,,,,,4,,,52,70
38400,note_on,,,,,0,0,8,,,,,0,,,76,85
38400,note_on,,,,,32,0,8,,,,,0,,,79,91
38400,note_on,,,,,64,0,11,,,,,3,,,64,70
38400,note_on,,,,,64,0,14,,,,,5,,,64,100
38400,note_on,,,,,64,0,13,,,,,5,,,64,100
38400,note_on,,,,,0,0,13,,,,,5,,,67,100
38400,note_on,,,,,0,0,13,,,,,5,,,71,100
38464,note_off,,,,,64,0,8,,,,,0,,,79,100
38496,note_on,,,,,32,0,8,,,,,0,,,81,92
38528,note_off,,,,,128,0,13,,,,,5,,,64,100
38528,note_off,,,,,128,0,11,,,,,3,,,64,100
38528,note_off,,,,,0,0,13,,,,,5,,,67,100
38528,note_off,,,,,128,0,14,,,,,5,,,64,100
38528,note_off,,,,,0,0,13,,,,,5,,,71,100
38528,note_off,,,,,128,0,12,,,,,4,,,52,100
38560,note_off,,,,,64,0,8,,,,,0,,,81,100
38592,note_on,,,,,64,0,14,,,,,5,,,52,100
38592,note_on,,,,,64,0,11,,,,,3,,,52,70
38592,note_on,,,,,32,0,8,,,,,0,,,83,93
38592,note_on,,,,,64,0,12,,,,,4,,,40,70
38592,note_on,,,,,0,0,13,,,,,5,,,67,100
38592,note_on,,,,,64,0,13,,,,,5,,,59,100
38656,note_off,,,,,0,0,8,,,,,0,,,83,100
38656,note_off,,,,,64,0,8,,,,,0,,,76,100
38688,note_on,,,,,32,0,8,,,,,0,,,79,94
38720,note_off,,,,,128,0,11,,,,,3,,,52,100
38720,note_off,,,,,128,0,12,,,,,4,,,40,100
38720,note_off,,,,,0,0,13,,,,,5,,,67,100
38720,note_off,,,,,128,0,13,,,,,5,,,59,100
38720,note_off,,,,,128,0,14,,,,,5,,,52,100
38752,note_off,,,,,64,0,8,,,,,0,,,79,100
38784,note_on,,,,,64,0,12,,,,,4,,,40,70
38784,note_on,,,,,64,0,13,,,,,5,,,59,100
38784,note_on,,,,,0,0,13,,,,,5,,,67,100
38784,note_on,,,,,32,0,8,,,,,0,,,76,94
38784,note_on,,,,,64,0,11,,,,,3,,,52,70
38784,note_on,,,,,64,0,14,,,,,5,,,52,100
38912,note_off,,,,,128,0,8,,,,,0,,,76,100
38912,note_off,,,,,128,0,13,,,,,5,,,59,100
38912,note_off,,,,,0,0,13,,,,,5,,,67,100
38912,note_off,,,,,128,0,14,,,,,5,,,52,100
38912,note_off,,,,,128,0,11,,,,,3,,,52,100
38912,note_off,,,,,128,0,12,,,,,4,,,40,100
38976,note_on,,,,,64,0,8,,,,,0,,,83,101
38976,note_on,,,,,64,0,12,,,,,4,,,52,70
38976,note_on,,,,,64,0,11,,,,,3,,,64,70
38976,note_on,,,,,64,0,13,,,,,5,,,71,100
38976,note_on,,,,,64,0,14,,,,,5,,,64,100
38976,note_on,,,,,0,0,13,,,,,5,,,67,100
39104,note_off,,,,,128,0,8,,,,,0,,,83,100
39104,note_off,,,,,128,0,14,,,,,5,,,64,100
39104,note_off,,,,,128,0,12,,,,,4,,,52,100
39104,note_off,,,,,128,0,11,,,,,3,,,64,100
39104,note_off,,,,,128,0,13,,,,,5,,,71,100
39104,note_off,,,,,0,0,13,,,,,5,,,67,100
39168,note_on,,,,,64,0,14,,,,,5,,,64,100
39168,note_on,,,,,64,0,13,,,,,5,,,67,100
39168,note_on,,,,,64,0,11,,,,,3,,,64,70
39168,note_on,,,,,64,0,12,,,,,4,,,52,70
39168,note_on,,,,,64,0,8,,,,,0,,,84,97
39168,note_on,,,,,0,0,13,,,,,5,,,72,100
39296,note_off,,,,,128,0,13,,,,,5,,,67,100
39296,note_off,,,,,0,0,13,,,,,5,,,72,100
39296,note_off,,,,,128,0,11,,,,,3,,,64,100
39296,note_off,,,,,128,0,14,,,,,5,,,64,100
39296,note_off,,,,,128,0,12,,,,,4,,,52,100
39360,note_on,,,,,64,0,12,,,,,4,,,40,70
39360,note_on,,,,,64,0,11,,,,,3,,,52,70
39360,note_on,,,,,64,0,13,,,,,5,,,60,100
39360,note_on,,,,,0,0,13,,,,,5,,,67,100
39360,note_on,,,,,64,0,14,,,,,5,,,52,100
39360,note_off,,,,,192,0,8,,,,,0,,,84,100
39456,note_on,,,,,96,0,8,,,,,0,,,83,94
39488,note_off,,,,,0,0,13,,,,,5,,,67,100
39488,note_off,,,,,128,0,13,,,,,5,,,60,100
39488,note_off,,,,,128,0,14,,,,,5,,,52,100
39488,note_off,,,,,128,0,12,,,,,4,,,40,100
39488,note_off,,,,,128,0,11,,,,,3,,,52,100
39520,note_off,,,,,64,0,8,,,,,0,,,83,100
39552,note_on,,,,,64,0,11,,,,,3,,,52,70
39552,note_on,,,,,64,0,14,,,,,5,,,52,100
39552,note_on,,,,,32,0,8,,,,,0,,,81,92
39552,note_on,,,,,64,0,12,,,,,4,,,40,70
39552,note_on,,,,,0,0,13,,,,,5,,,67,100
39552,note_on,,,,,64,0,13,,,,,5,,,60,100
39616,note_off,,,,,64,0,8,,,,,0,,,81,100
39648,note_on,,,,,32,0,8,,,,,0,,,79,90
39680,note_off,,,,,128,0,11,,,,,3,,,52,100
39680,note_off,,,,,128,0,12,,,,,4,,,40,100
39680,note_off,,,,,128,0,14,,,,,5,,,52,100
39680,note_off,,,,,0,0,13,,,,,5,,,67,100
39680,note_off,,,,,128,0,13,,,,,5,,,60,100
39712,note_off,,,,,64,0,8,,,,,0,,,79,100
39744,note_on,,,,,0,0,13,,,,,5,,,72,100
39744,note_on,,,,,64,0,12,,,,,4,,,52,70
39744,note_on,,,,,32,0,8,,,,,0,,,78,88
39744,note_on,,,,,64,0,11,,,,,3,,,64,70
39744,note_on,,,,,64,0,13,,,,,5,,,67,100
39744,note_on,,,,,64,0,14,,,,,5,,,64,100
39808,note_off,,,,,64,0,8,,,,,0,,,78,100
39840,note_on,,,,,32,0,8,,,,,0,,,76,86
39872,note_off,,,,,128,0,13,,,,,5,,,67,100
39872,note_off,,,,,128,0,12,,,,,4,,,52,100
39872,note_off,,,,,128,0,11,,,,,3,,,64,100
39872,note_off,,,,,128,0,14,,,,,5,,,64,100
39872,note_off,,,,,0,0,13,,,,,5,,,72,100
39904,note_off,,,,,64,0,8,,,,,0,,,76,100
39936,note_on,,,,,32,0,8,,,,,0,,,78,85
39936,note_on,,,,,64,0,11,,,,,3,,,62,70
39936,note_on,,,,,64,0,13,,,,,5,,,69,100
39936,note_on,,,,,64,0,14,,,,,5,,,62,100
39936,note_on,,,,,64,0,12,,,,,4,,,50,70
39936,note_on,,,,,0,0,13,,,,,5,,,72,100
40000,note_off,,,,,64,0,8,,,,,0,,,78,100
40032,note_on,,,,,32,0,8,,,,,0,,,79,85
40064,note_off,,,,,128,0,12,,,,,4,,,50,100
40064,note_off,,,,,128,0,14,,,,,5,,,62,100
40064,note_off,,,,,128,0,11,,,,,3,,,62,100
40064,note_off,,,,,128,0,13,,,,,5,,,69,100
40064,note_off,,,,,0,0,13,,,,,5,,,72,100
40096,note_off,,,,,64,0,8,,,,,0,,,79,100
40128,note_on,,,,,32,0,8,,,,,0,,,81,85
40128,note_on,,,,,64,0,12,,,,,4,,,38,70
40128,note_on,,,,,64,0,14,,,,,5,,,50,100
40128,note_on,,,,,64,0,11,,,,,3,,,50,70
40128,note_on,,,,,0,0,13,,,,,5,,,69,100
40128,note_on,,,,,64,0,13,,,,,5,,,66,100
40192,note_off,,,,,64,0,8,,,,,0,,,81,100
40224,note_on,,,,,32,0,8,,,,,0,,,78,85
40256,note_off,,,,,128,0,14,,,,,5,,,50,100
40256,note_off,,,,,128,0,12,,,,,4,,,38,100
40256,note_off,,,,,128,0,13,,,,,5,,,66,100
40256,note_off,,,,,128,0,11,,,,,3,,,50,100
40256,note_off,,,,,0,0,13,,,,,5,,,69,100
40288,note_off,,,,,64,0,8,,,,,0,,,78,100
40320,note_on,,,,,64,0,14,,,,,5,,,50,100
40320,note_on,,,,,32,0,8,,,,,0,,,74,85
40320,note_on,,,,,64,0,11,,,,,3,,,50,70
40320,note_on,,,,,64,0,12,,,,,4,,,38,70
40320,note_on,,,,,64,0,13,,,,,5,,,66,100
40320,note_on,,,,,0,0,13,,,,,5,,,69,100
40448,note_off,,,,,128,0,13,,,,,5,,,66,100
40448,note_off,,,,,0,0,13,,,,,5,,,69,100
40448,note_off,,,,,128,0,14,,,,,5,,,50,100
40448,note_off,,,,,128,0,11,,,,,3,,,50,100
40448,note_off,,,,,128,0,12,,,,,4,,,38,100
40448,note_off,,,,,128,0,8,,,,,0,,,74,100
40512,note_on,,,,,0,0,13,,,,,5,,,72,100
40512,note_on,,,,,64,0,13,,,,,5,,,69,100
40512,note_on,,,,,64,0,14,,,,,5,,,62,100
40512,note_on,,,,,64,0,8,,,,,0,,,81,101
40512,note_on,,,,,64,0,12,,,,,4,,,50,70
40512,note_on,,,,,64,0,11,,,,,3,,,62,70
40640,note_off,,,,,128,0,8,,,,,0,,,81,100
40640,note_off,,,,,128,0,13,,,,,5,,,69,100
40640,note_off,,,,,128,0,11,,,,,3,,,62,100
40640,note_off,,,,,0,0,13,,,,,5,,,72,100
40640,note_off,,,,,128,0,12,,,,,4,,,50,100
40640,note_off,,,,,128,0,14,,,,,5,,,62,100
40704,note_on,,,,,0,0,13,,,,,5,,,66,100
40704,note_on,,,,,64,0,11,,,,,3,,,62,70
40704,note_on,,,,,64,0,14,,,,,5,,,62,100
40704,note_on,,,,,64,0,12,,,,,4,,,50,70
40704,note_on,,,,,64,0,8,,,,,0,,,83,97
40704,note_on,,,,,64,0,13,,,,,5,,,71,100
40832,note_off,,,,,128,0,11,,,,,3,,,62,100
40832,note_off,,,,,128,0,13,,,,,5,,,71,100
40832,note_off,,,,,0,0,13,,,,,5,,,66,100
40832,note_off,,,,,128,0,14,,,,,5,,,62,100
40832,note_off,,,,,128,0,12,,,,,4,,,50,100
40896,note_on,,,,,64,0,13,,,,,5,,,59,100
40896,note_off,,,,,192,0,8,,,,,0,,,83,100
40896,note_on,,,,,64,0,11,,,,,3,,,50,70
40896,note_on,,,,,0,0,13,,,,,5,,,66,100
40896,note_on,,,,,64,0,12,,,,,4,,,38,70
40896,note_on,,,,,64,0,14,,,,,5,,,50,100
40992,note_on,,,,,96,0,8,,,,,0,,,81,94
41024,note_off,,,,,128,0,13,,,,,5,,,59,100
41024,note_off,,,,,128,0,11,,,,,3,,,50,100
41024,note_off,,,,,0,0,13,,,,,5,,,66,100
41024,note_off,,,,,128,0,12,,,,,4,,,38,100
41024,note_off,,,,,128,0,14,,,,,5,,,50,100
41056,note_off,,,,,64,0,8,,,,,0,,,81,100
41088,note_on,,,,,0,0,13,,,,,5,,,66,100
41088,note_on,,,,,64,0,12,,,,,4,,,38,70
41088,note_on,,,,,64,0,14,,,,,5,,,50,100
41088,note_on,,,,,64,0,11,,,,,3,,,50,70
41088,note_on,,,,,64,0,13,,,,,5,,,59,100
41088,note_on,,,,,32,0,8,,,,,0,,,79,92
41152,note_off,,,,,64,0,8,,,,,0,,,79,100
41184,note_on,,,,,32,0,8,,,,,0,,,78,90
41216,note_off,,,,,128,0,11,,,,,3,,,50,100
41216,note_off,,,,,128,0,14,,,,,5,,,50,100
41216,note_off,,,,,128,0,12,,,,,4,,,38,100
41216,note_off,,,,,0,0,13,,,,,5,,,66,100
41216,note_off,,,,,128,0,13,,,,,5,,,59,100
41248,note_off,,,,,64,0,8,,,,,0,,,78,100
41280,note_on,,,,,64,0,11,,,,,3,,,62,70
41280,note_on,,,,,64,0,14,,,,,5,,,62,100
41280,note_on,,,,,0,0,13,,,,,5,,,66,100
41280,note_on,,,,,64,0,13,,,,,5,,,71,100
41280,note_on,,,,,32,0,8,,,,,0,,,76,88
41280,note_on,,,,,64,0,12,,,,,4,,,50,70
41344,note_off,,,,,64,0,8,,,,,0,,,76,100
41376,note_on,,,,,32,0,8,,,,,0,,,74,86
41408,note_off,,,,,128,0,12,,,,,4,,,50,100
41408,note_off,,,,,128,0,11,,,,,3,,,62,100
41408,note_off,,,,,128,0,13,,,,,5,,,71,100
41408,note_off,,,,,0,0,13,,,,,5,,,66,100
41408,note_off,,,,,128,0,14,,,,,5,,,62,100
41440,note_off,,,,,64,0,8,,,,,0,,,74,100
41472,note_on,,,,,32,0,8,,,,,0,,,76,85
41472,note_on,,,,,64,0,14,,,,,5,,,60,100
41472,note_on,,,,,64,0,11,,,,,3,,,60,70
41472,note_on,,,,,64,0,13,,,,,5,,,67,100
41472,note_on,,,,,0,0,13,,,,,5,,,71,100
41472,note_on,,,,,64,0,12,,,,,4,,,48,70
41536,note_off,,,,,64,0,8,,,,,0,,,76,100
41568,note_on,,,,,32,0,8,,,,,0,,,78,85
41600,note_off,,,,,128,0,12,,,,,4,,,48,100
41600,note_off,,,,,128,0,13,,,,,5,,,67,100
41600,note_off,,,,,0,0,13,,,,,5,,,71,100
41600,note_off,,,,,128,0,11,,,,,3,,,60,100
41600,note_off,,,,,128,0,14,,,,,5,,,60,100
41632,note_off,,,,,64,0,8,,,,,0,,,78,100
41664,note_on,,,,,0,0,13,,,,,5,,,67,100
41664,note_on,,,,,64,0,14,,,,,5,,,48,100
41664,note_on,,,,,64,0,12,,,,,4,,,36,70
41664,note_on,,,,,32,0,8,,,,,0,,,79,85
41664,note_on,,,,,64,0,11,,,,,3,,,48,70
41664,note_on,,,,,64,0,13,,,,,5,,,64,100
41728,note_off,,,,,64,0,8,,,,,0,,,79,100
41760,note_on,,,,,32,0,8,,,,,0,,,76,85
41792,note_off,,,,,128,0,12,,,,,4,,,36,100
41792,note_off,,,,,128,0,14,,,,,5,,,48,100
41792,note_off,,,,,0,0,13,,,,,5,,,67,100
41792,note_off,,,,,128,0,13,,,,,5,,,64,100
41792,note_off,,,,,128,0,11,,,,,3,,,48,100
41824,note_off,,,,,64,0,8,,,,,0,,,76,100
41856,note_on,,,,,64,0,14,,,,,5,,,48,100
41856,note_on,,,,,0,0,13,,,,,5,,,67,100
41856,note_on,,,,,64,0,11,,,,,3,,,48,70
41856,note_on,,,,,32,0,8,,,,,0,,,72,85
41856,note_on,,,,,64,0,12,,,,,4,,,36,70
41856,note_on,,,,,64,0,13,,,,,5,,,64,100
41984,note_off,,,,,128,0,14,,,,,5,,,48,100
41984,note_off,,,,,0,0,13,,,,,5,,,67,100
41984,note_off,,,,,128,0,13,,,,,5,,,64,100
41984,note_off,,,,,128,0,11,,,,,3,,,48,100
41984,note_off,,,,,128,0,8,,,,,0,,,72,100
41984,note_off,,,,,128,0,12,,,,,4,,,36,100
42048,note_on,,,,,64,0,14,,,,,5,,,60,100
42048,note_on,,,,,64,0,13,,,,,5,,,67,100
42048,note_on,,,,,64,0,8,,,,,0,,,79,91
42048,note_on,,,,,0,0,13,,,,,5,,,71,100
42048,note_on,,,,,64,0,11,,,,,3,,,60,70
42048,note_on,,,,,64,0,12,,,,,4,,,48,70
42176,note_off,,,,,0,0,13,,,,,5,,,71,100
42176,note_off,,,,,128,0,13,,,,,5,,,67,100
42176,note_off,,,,,128,0,11,,,,,3,,,60,100
42176,note_off,,,,,128,0,12,,,,,4,,,48,100
42176,note_off,,,,,128,0,8,,,,,0,,,79,100
42176,note_off,,,,,128,0,14,,,,,5,,,60,100
42240,note_on,,,,,64,0,14,,,,,5,,,60,100
42240,note_on,,,,,0,0,13,,,,,5,,,69,100
42240,note_on,,,,,64,0,13,,,,,5,,,64,100
42240,note_on,,,,,64,0,11,,,,,3,,,60,70
42240,note_on,,,,,64,0,12,,,,,4,,,48,70
42240,note_on,,,,,64,0,8,,,,,0,,,81,88
42368,note_off,,,,,128,0,13,,,,,5,,,64,100
42368,note_off,,,,,0,0,13,,,,,5,,,69,100
42368,note_off,,,,,128,0,12,,,,,4,,,48,100
42368,note_off,,,,,128,0,11,,,,,3,,,60,100
42368,note_off,,,,,128,0,14,,,,,5,,,60,100
42432,note_on,,,,,64,0,14,,,,,5,,,48,100
42432,note_on,,,,,0,0,13,,,,,5,,,64,100
42432,note_on,,,,,64,0,13,,,,,5,,,57,100
42432,note_off,,,,,192,0,8,,,,,0,,,81,100
42432,note_on,,,,,64,0,11,,,,,3,,,48,70
42432,note_on,,,,,64,0,12,,,,,4,,,36,70
42528,note_on,,,,,96,0,8,,,,,0,,,83,86
42560,note_off,,,,,128,0,14,,,,,5,,,48,100
42560,note_off,,,,,128,0,13,,,,,5,,,57,100
42560,note_off,,,,,128,0,11,,,,,3,,,48,100
42560,note_off,,,,,128,0,12,,,,,4,,,36,100
42560,note_off,,,,,0,0,13,,,,,5,,,64,100
42592,note_off,,,,,64,0,8,,,,,0,,,83,100
42624,note_on,,,,,32,0,8,,,,,0,,,81,84
42624,note_on,,,,,64,0,11,,,,,3,,,48,70
42624,note_on,,,,,64,0,13,,,,,5,,,57,100
42624,note_on,,,,,0,0,13,,,,,5,,,64,100
42624,note_on,,,,,64,0,12,,,,,4,,,36,70
42624,note_on,,,,,64,0,14,,,,,5,,,48,100
42688,note_off,,,,,64,0,8,,,,,0,,,81,100
42720,note_on,,,,,32,0,8,,,,,0,,,79,82
42752,note_off,,,,,0,0,13,,,,,5,,,64,100
42752,note_off,,,,,128,0,11,,,,,3,,,48,100
42752,note_off,,,,,128,0,12,,,,,4,,,36,100
42752,note_off,,,,,128,0,13,,,,,5,,,57,100
42752,note_off,,,,,128,0,14,,,,,5,,,48,100
42784,note_off,,,,,64,0,8,,,,,0,,,79,100
42816,note_on,,,,,64,0,13,,,,,5,,,69,100
42816,note_on,,,,,0,0,13,,,,,5,,,64,100
42816,note_on,,,,,64,0,11,,,,,3,,,60,70
42816,note_on,,,,,64,0,14,,,,,5,,,60,100
42816,note_on,,,,,64,0,12,,,,,4,,,48,70
42816,note_on,,,,,32,0,8,,,,,0,,,78,80
42880,note_off,,,,,64,0,8,,,,,0,,,78,100
42912,note_on,,,,,32,0,8,,,,,0,,,76,78
42944,note_off,,,,,128,0,14,,,,,5,,,60,100
42944,note_off,,,,,128,0,13,,,,,5,,,69,100
42944,note_off,,,,,128,0,11,,,,,3,,,60,100
42944,note_off,,,,,128,0,12,,,,,4,,,48,100
42944,note_off,,,,,0,0,13,,,,,5,,,64,100
42976,note_off,,,,,64,0,8,,,,,0,,,76,100
43008,note_on,,,,,64,0,12,,,,,4,,,47,70
43008,note_on,,,,,64,0,14,,,,,5,,,59,100
43008,note_on,,,,,64,0,13,,,,,5,,,63,100
43008,note_on,,,,,32,0,8,,,,,0,,,75,75
43008,note_on,,,,,64,0,11,,,,,3,,,59,70
43008,note_on,,,,,0,0,13,,,,,5,,,66,100
43072,note_off,,,,,64,0,8,,,,,0,,,75,100
43104,note_on,,,,,32,0,8,,,,,0,,,71,76
43136,note_off,,,,,128,0,11,,,,,3,,,59,100
43136,note_off,,,,,128,0,13,,,,,5,,,63,100
43136,note_off,,,,,128,0,12,,,,,4,,,47,100
43136,note_off,,,,,0,0,13,,,,,5,,,66,100
43136,note_off,,,,,128,0,14,,,,,5,,,59,100
43168,note_off,,,,,64,0,8,,,,,0,,,71,100
43200,note_on,,,,,64,0,14,,,,,5,,,57,100
43200,note_on,,,,,64,0,11,,,,,3,,,57,70
43200,note_on,,,,,64,0,12,,,,,4,,,45,70
43200,note_on,,,,,32,0,8,,,,,0,,,71,77
43200,note_on,,,,,64,0,13,,,,,5,,,63,100
43200,note_on,,,,,0,0,13,,,,,5,,,66,100
43264,note_off,,,,,64,0,8,,,,,0,,,71,100
43296,note_on,,,,,32,0,8,,,,,0,,,75,78
43328,note_off,,,,,128,0,12,,,,,4,,,45,100
43328,note_off,,,,,128,0,13,,,,,5,,,63,100
43328,note_off,,,,,128,0,14,,,,,5,,,57,100
43328,note_off,,,,,0,0,13,,,,,5,,,66,100
43328,note_off,,,,,128,0,11,,,,,3,,,57,100
43360,note_off,,,,,64,0,8,,,,,0,,,75,100
43392,note_on,,,,,64,0,13,,,,,5,,,64,100
43392,note_on,,,,,0,0,13,,,,,5,,,71,100
43392,note_on,,,,,32,0,8,,,,,0,,,76,79
43392,note_on,,,,,64,0,11,,,,,3,,,55,70
43392,note_on,,,,,64,0,14,,,,,5,,,55,100
43392,note_on,,,,,64,0,12,,,,,4,,,43,70
43456,note_off,,,,,64,0,8,,,,,0,,,76,100
43488,note_on,,,,,32,0,8,,,,,0,,,71,80
43520,note_off,,,,,0,0,13,,,,,5,,,71,100
43520,note_off,,,,,128,0,13,,,,,5,,,64,100
43520,note_off,,,,,128,0,12,,,,,4,,,43,100
43520,note_off,,,,,128,0,11,,,,,3,,,55,100
43520,note_off,,,,,128,0,14,,,,,5,,,55,100
43552,note_off,,,,,64,0,8,,,,,0,,,71,100
43584,note_on,,,,,0,0,13,,,,,5,,,67,100
43584,note_on,,,,,64,0,13,,,,,5,,,71,100
43584,note_on,,,,,64,0,11,,,,,3,,,52,70
43584,note_on,,,,,32,0,8,,,,,0,,,71,81
43584,note_on,,,,,64,0,12,,,,,4,,,40,70
43584,note_on,,,,,64,0,14,,,,,5,,,52,100
43648,note_off,,,,,64,0,8,,,,,0,,,71,100
43680,note_on,,,,,32,0,8,,,,,0,,,76,82
43712,note_off,,,,,128,0,12,,,,,4,,,40,100
43712,note_off,,,,,128,0,11,,,,,3,,,52,100
43712,note_off,,,,,128,0,13,,,,,5,,,71,100
43712,note_off,,,,,128,0,14,,,,,5,,,52,100
43712,note_off,,,,,0,0,13,,,,,5,,,67,100
43744,note_off,,,,,64,0,8,,,,,0,,,76,100
43776,note_on,,,,,32,0,8,,,,,0,,,78,83
43776,note_on,,,,,0,0,13,,,,,5,,,66,100
43776,note_on,,,,,64,0,13,,,,,5,,,71,100
43776,note_on,,,,,64,0,14,,,,,5,,,51,100
43776,note_on,,,,,64,0,11,,,,,3,,,51,70
43776,note_on,,,,,64,0,12,,,,,4,,,39,70
43840,note_off,,,,,64,0,8,,,,,0,,,78,100
43872,note_on,,,,,32,0,8,,,,,0,,,71,84
43904,note_off,,,,,128,0,13,,,,,5,,,71,100
43904,note_off,,,,,128,0,12,,,,,4,,,39,100
43904,note_off,,,,,128,0,14,,,,,5,,,51,100
43904,note_off,,,,,128,0,11,,,,,3,,,51,100
43904,note_off,,,,,0,0,13,,,,,5,,,66,100
43936,note_off,,,,,64,0,8,,,,,0,,,71,100
43968,note_on,,,,,64,0,12,,,,,4,,,35,70
43968,note_on,,,,,32,0,8,,,,,0,,,71,86
43968,note_on,,,,,64,0,13,,,,,5,,,63,100
43968,note_on,,,,,0,0,13,,,,,5,,,66,100
43968,note_on,,,,,64,0,11,,,,,3,,,47,70
43968,note_on,,,,,64,0,14,,,,,5,,,47,100
44032,note_off,,,,,64,0,8,,,,,0,,,71,100
44064,note_on,,,,,32,0,8,,,,,0,,,78,87
44096,note_off,,,,,128,0,13,,,,,5,,,63,100
44096,note_off,,,,,128,0,11,,,,,3,,,47,100
44096,note_off,,,,,128,0,12,,,,,4,,,35,100
44096,note_off,,,,,0,0,13,,,,,5,,,66,100
44096,note_off,,,,,128,0,14,,,,,5,,,47,100
44128,note_off,,,,,64,0,8,,,,,0,,,78,100
44160,note_on,,,,,32,0,8,,,,,0,,,79,88
44224,note_off,,,,,64,0,8,,,,,0,,,79,100
44256,note_on,,,,,32,0,8,,,,,0,,,71,89
44320,note_off,,,,,64,0,8,,,,,0,,,71,100
44352,note_on,,,,,256,0,13,,,,,5,,,67,100
44352,note_on,,,,,256,0,12,,,,,4,,,40,70
44352,note_on,,,,,0,0,13,,,,,5,,,71,100
44352,note_on,,,,,256,0,11,,,,,3,,,52,70
44352,note_on,,,,,256,0,14,,,,,5,,,52,100
44352,note_on,,,,,32,0,8,,,,,0,,,71,90
44416,note_off,,,,,64,0,8,,,,,0,,,71,100
44448,note_on,,,,,32,0,8,,,,,0,,,79,91
44480,note_off,,,,,128,0,13,,,,,5,,,67,100
44480,note_off,,,,,0,0,13,,,,,5,,,71,100
44480,note_off,,,,,128,0,14,,,,,5,,,52,100
44480,note_off,,,,,128,0,11,,,,,3,,,52,100
44480,note_off,,,,,128,0,12,,,,,4,,,40,100
44512,note_off,,,,,64,0,8,,,,,0,,,79,100
44544,note_on,,,,,32,0,8,,,,,0,,,78,90
44544,note_on,,,,,64,0,13,,,,,5,,,66,100
44544,note_on,,,,,64,0,14,,,,,5,,,51,100
44544,note_on,,,,,64,0,11,,,,,3,,,51,70
44544,note_on,,,,,64,0,12,,,,,4,,,39,70
44544,note_on,,,,,0,0,13,,,,,5,,,71,100
44608,note_off,,,,,64,0,8,,,,,0,,,78,100
44640,note_on,,,,,32,0,8,,,,,0,,,71,90
44672,note_off,,,,,0,0,13,,,,,5,,,71,100
44672,note_off,,,,,128,0,13,,,,,5,,,66,100
44672,note_off,,,,,128,0,12,,,,,4,,,39,100
44672,note_off,,,,,128,0,11,,,,,3,,,51,100
44672,note_off,,,,,128,0,14,,,,,5,,,51,100
44704,note_off,,,,,64,0,8,,,,,0,,,71,100
44736,note_on,,,,,64,0,13,,,,,5,,,63,100
44736,note_on,,,,,64,0,11,,,,,3,,,47,70
44736,note_on,,,,,64,0,14,,,,,5,,,47,100
44736,note_on,,,,,0,0,13,,,,,5,,,66,100
44736,note_on,,,,,32,0,8,,,,,0,,,71,91
44736,note_on,,,,,64,0,12,,,,,4,,,35,70
44800,note_off,,,,,64,0,8,,,,,0,,,71,100
44832,note_on,,,,,32,0,8,,,,,0,,,78,92
44864,note_off,,,,,0,0,13,,,,,5,,,66,100
44864,note_off,,,,,128,0,12,,,,,4,,,35,100
44864,note_off,,,,,128,0,14,,,,,5,,,47,100
44864,note_off,,,,,128,0,13,,,,,5,,,63,100
44864,note_off,,,,,128,0,11,,,,,3,,,47,100
44896,note_off,,,,,64,0,8,,,,,0,,,78,100
44928,note_on,,,,,32,0,8,,,,,0,,,79,93
44992,note_off,,,,,64,0,8,,,,,0,,,79,100
45024,note_on,,,,,32,0,8,,,,,0,,,76,94
45088,note_off,,,,,64,0,8,,,,,0,,,76,100
45120,note_on,,,,,256,0,13,,,,,5,,,67,100
45120,note_on,,,,,256,0,11,,,,,3,,,52,70
45120,note_on,,,,,256,0,12,,,,,4,,,40,70
45120,note_on,,,,,0,0,13,,,,,5,,,71,100
45120,note_on,,,,,32,0,8,,,,,0,,,76,95
45120,note_on,,,,,256,0,14,,,,,5,,,52,100
45184,note_off,,,,,64,0,8,,,,,0,,,76,100
45216,note_on,,,,,32,0,8,,,,,0,,,83,96
45248,note_off,,,,,0,0,13,,,,,5,,,71,100
45248,note_off,,,,,128,0,14,,,,,5,,,52,100
45248,note_off,,,,,128,0,12,,,,,4,,,40,100
45248,note_off,,,,,128,0,13,,,,,5,,,67,100
45248,note_off,,,,,128,0,11,,,,,3,,,52,100
45280,note_off,,,,,64,0,8,,,,,0,,,83,100
45312,note_on,,,,,64,0,13,,,,,5,,,70,100
45312,note_on,,,,,64,0,14,,,,,5,,,54,100
45312,note_on,,,,,64,0,12,,,,,4,,,42,72
45312,note_on,,,,,0,0,13,,,,,5,,,61,100
45312,note_on,,,,,32,0,8,,,,,0,,,82,96
45312,note_on,,,,,64,0,11,,,,,3,,,54,72
45376,note_off,,,,,64,0,8,,,,,0,,,82,100
45408,note_on,,,,,32,0,8,,,,,0,,,78,97
45440,note_off,,,,,128,0,12,,,,,4,,,42,100
45440,note_off,,,,,0,0,13,,,,,5,,,61,100
45440,note_off,,,,,128,0,14,,,,,5,,,54,100
45440,note_off,,,,,128,0,13,,,,,5,,,70,100
45440,note_off,,,,,128,0,11,,,,,3,,,54,100
45472,note_off,,,,,64,0,8,,,,,0,,,78,100
45504,note_on,,,,,64,0,11,,,,,3,,,52,74
45504,note_on,,,,,64,0,12,,,,,4,,,40,74
45504,note_on,,,,,32,0,8,,,,,0,,,78,98
45504,note_on,,,,,64,0,13,,,,,5,,,70,100
45504,note_on,,,,,0,0,13,,,,,5,,,61,100
45504,note_on,,,,,64,0,14,,,,,5,,,52,100
45568,note_off,,,,,64,0,8,,,,,0,,,78,100
45600,note_on,,,,,32,0,8,,,,,0,,,82,99
45632,note_off,,,,,128,0,13,,,,,5,,,70,100
45632,note_off,,,,,128,0,14,,,,,5,,,52,100
45632,note_off,,,,,0,0,13,,,,,5,,,61,100
45632,note_off,,,,,128,0,12,,,,,4,,,40,100
45632,note_off,,,,,128,0,11,,,,,3,,,52,100
45664,note_off,,,,,64,0,8,,,,,0,,,82,100
45696,note_on,,,,,64,0,11,,,,,3,,,50,77
45696,note_on,,,,,64,0,14,,,,,5,,,50,100
45696,note_on,,,,,32,0,8,,,,,0,,,83,100
45696,note_on,,,,,64,0,12,,,,,4,,,38,77
45696,note_on,,,,,64,0,13,,,,,5,,,71,100
45696,note_on,,,,,0,0,13,,,,,5,,,66,100
45760,note_off,,,,,64,0,8,,,,,0,,,83,100
45792,note_on,,,,,32,0,8,,,,,0,,,74,101
45824,note_off,,,,,128,0,13,,,,,5,,,71,100
45824,note_off,,,,,128,0,12,,,,,4,,,38,100
45824,note_off,,,,,128,0,14,,,,,5,,,50,100
45824,note_off,,,,,0,0,13,,,,,5,,,66,100
45824,note_off,,,,,128,0,11,,,,,3,,,50,100
45856,note_off,,,,,64,0,8,,,,,0,,,74,100
45888,note_on,,,,,32,0,8,,,,,0,,,74,102
45888,note_on,,,,,64,0,14,,,,,5,,,47,100
45888,note_on,,,,,64,0,12,,,,,4,,,35,79
45888,note_on,,,,,0,0,13,,,,,5,,,66,100
45888,note_on,,,,,64,0,13,,,,,5,,,74,100
45888,note_on,,,,,64,0,11,,,,,3,,,47,79
45952,note_off,,,,,64,0,8,,,,,0,,,74,100
45984,note_on,,,,,32,0,8,,,,,0,,,83,103
46016,note_off,,,,,128,0,11,,,,,3,,,47,100
46016,note_off,,,,,128,0,14,,,,,5,,,47,100
46016,note_off,,,,,128,0,12,,,,,4,,,35,100
46016,note_off,,,,,128,0,13,,,,,5,,,74,100
46016,note_off,,,,,0,0,13,,,,,5,,,66,100
46048,note_off,,,,,64,0,8,,,,,0,,,83,100
46080,note_on,,,,,32,0,8,,,,,0,,,83,103
46080,note_on,,,,,64,0,11,,,,,3,,,52,82
46080,note_on,,,,,64,0,13,,,,,5,,,71,100
46080,note_on,,,,,64,0,14,,,,,5,,,52,100
46080,note_on,,,,,64,0,12,,,,,4,,,40,82
46080,note_on,,,,,0,0,13,,,,,5,,,73,100
46144,note_off,,,,,64,0,8,,,,,0,,,83,100
46176,note_on,,,,,32,0,8,,,,,0,,,73,104
46208,note_off,,,,,128,0,11,,,,,3,,,52,100
46208,note_off,,,,,0,0,13,,,,,5,,,73,100
46208,note_off,,,,,128,0,12,,,,,4,,,40,100
46208,note_off,,,,,128,0,13,,,,,5,,,71,100
46208,note_off,,,,,128,0,14,,,,,5,,,52,100
46240,note_off,,,,,64,0,8,,,,,0,,,73,100
46272,note_on,,,,,64,0,13,,,,,5,,,68,100
46272,note_on,,,,,0,0,13,,,,,5,,,64,100
46272,note_on,,,,,64,0,11,,,,,3,,,49,84
46272,note_on,,,,,64,0,14,,,,,5,,,49,100
46272,note_on,,,,,32,0,8,,,,,0,,,73,105
46272,note_on,,,,,64,0,12,,,,,4,,,37,84
46336,note_off,,,,,64,0,8,,,,,0,,,73,100
46368,note_on,,,,,32,0,8,,,,,0,,,83,106
46400,note_off,,,,,128,0,11,,,,,3,,,49,100
46400,note_off,,,,,128,0,14,,,,,5,,,49,100
46400,note_off,,,,,128,0,12,,,,,4,,,37,100
46400,note_off,,,,,0,0,13,,,,,5,,,64,100
46400,note_off,,,,,128,0,13,,,,,5,,,68,100
46432,note_off,,,,,64,0,8,,,,,0,,,83,100
46464,note_on,,,,,64,0,11,,,,,3,,,54,87
46464,note_on,,,,,64,0,14,,,,,5,,,54,100
46464,note_on,,,,,64,0,12,,,,,4,,,42,87
46464,note_on,,,,,0,0,13,,,,,5,,,73,100
46464,note_on,,,,,64,0,13,,,,,5,,,70,100
46464,note_on,,,,,32,0,8,,,,,0,,,82,107
46528,note_off,,,,,64,0,8,,,,,0,,,82,100
46560,note_on,,,,,32,0,8,,,,,0,,,78,108
46592,note_off,,,,,128,0,13,,,,,5,,,70,100
46592,note_off,,,,,128,0,11,,,,,3,,,54,100
46592,note_off,,,,,128,0,12,,,,,4,,,42,100
46592,note_off,,,,,128,0,14,,,,,5,,,54,100
46592,note_off,,,,,0,0,13,,,,,5,,,73,100
46624,note_off,,,,,64,0,8,,,,,0,,,78,100
46656,note_on,,,,,0,0,13,,,,,5,,,70,100
46656,note_on,,,,,64,0,12,,,,,4,,,42,89
46656,note_on,,,,,64,0,11,,,,,3,,,42,89
46656,note_on,,,,,64,0,13,,,,,5,,,61,100
46656,note_on,,,,,32,0,8,,,,,0,,,78,109
46656,note_on,,,,,64,0,14,,,,,5,,,42,100
46720,note_off,,,,,64,0,8,,,,,0,,,78,100
46752,note_on,,,,,32,0,8,,,,,0,,,82,109
46784,note_off,,,,,0,0,13,,,,,5,,,70,100
46784,note_off,,,,,128,0,11,,,,,3,,,42,100
46784,note_off,,,,,128,0,12,,,,,4,,,42,100
46784,note_off,,,,,128,0,13,,,,,5,,,61,100
46784,note_off,,,,,128,0,14,,,,,5,,,42,100
46816,note_off,,,,,64,0,8,,,,,0,,,82,100
46844,program_change,,,,,17788,0,9,,,,,1,48,,,
46844,program_change,,,,,28,0,8,,,,,0,48,,,
46848,note_on,,,,,22016,0,10,,,,,2,,,66,90
46848,note_on,,,,,64,0,14,,,,,5,,,47,100
46848,note_on,,,,,64,0,12,,,,,4,,,35,90
46848,note_on,,,,,4,0,9,,,,,1,,,74,90
46848,note_on,,,,,0,0,8,,,,,0,,,78,90
46848,note_on,,,,,64,0,11,,,,,3,,,47,90
46848,note_on,,,,,4,0,8,,,,,0,,,83,110
46848,note_on,,,,,0,0,13,,,,,5,,,66,100
46848,note_on,,,,,0,0,13,,,,,5,,,62,100
46848,note_on,,,,,64,0,13,,,,,5,,,71,100
46976,note_off,,,,,0,0,8,,,,,0,,,78,100
46976,note_off,,,,,128,0,11,,,,,3,,,47,100
46976,note_off,,,,,128,0,14,,,,,5,,,47,100
46976,note_off,,,,,0,0,13,,,,,5,,,62,100
46976,note_off,,,,,128,0,13,,,,,5,,,71,100
46976,note_off,,,,,128,0,12,,,,,4,,,35,100
46976,note_off,,,,,128,0,8,,,,,0,,,83,100
46976,note_off,,,,,0,0,13,,,,,5,,,66,100
47040,note_on,,,,,64,0,13,,,,,5,,,66,100
47040,note_on,,,,,0,0,13,,,,,5,,,62,100
47040,note_on,,,,,64,0,11,,,,,3,,,49,90
47040,note_on,,,,,64,0,12,,,,,4,,,37,90
47040,note_on,,,,,64,0,14,,,,,5,,,49,100
47040,note_on,,,,,64,0,8,,,,,0,,,71,90
47168,note_off,,,,,128,0,11,,,,,3,,,49,100
47168,note_off,,,,,128,0,8,,,,,0,,,71,100
47168,note_off,,,,,0,0,13,,,,,5,,,62,100
47168,note_off,,,,,128,0,12,,,,,4,,,37,100
47168,note_off,,,,,128,0,13,,,,,5,,,66,100
47168,note_off,,,,,128,0,14,,,,,5,,,49,100
47232,note_on,,,,,64,0,14,,,,,5,,,50,100
47232,note_on,,,,,64,0,11,,,,,3,,,50,90
47232,note_on,,,,,64,0,8,,,,,0,,,71,90
47232,note_on,,,,,64,0,13,,,,,5,,,59,100
47232,note_on,,,,,0,0,13,,,,,5,,,66,100
47232,note_on,,,,,64,0,12,,,,,4,,,38,90
47232,note_off,,,,,384,0,10,,,,,2,,,66,100
47232,note_off,,,,,384,0,9,,,,,1,,,74,100
47360,note_off,,,,,128,0,13,,,,,5,,,59,100
47360,note_off,,,,,0,0,13,,,,,5,,,66,100
47360,note_off,,,,,128,0,8,,,,,0,,,71,100
47360,note_off,,,,,128,0,14,,,,,5,,,50,100
47360,note_off,,,,,128,0,11,,,,,3,,,50,100
47360,note_off,,,,,128,0,12,,,,,4,,,38,100
47424,note_on,,,,,64,0,12,,,,,4,,,40,90
47424,note_on,,,,,64,0,11,,,,,3,,,52,90
47424,note_on,,,,,192,0,10,,,,,2,,,67,90
47424,note_on,,,,,64,0,13,,,,,5,,,61,100
47424,note_on,,,,,0,0,13,,,,,5,,,67,100
47424,note_on,,,,,192,0,9,,,,,1,,,76,90
47424,note_on,,,,,64,0,14,,,,,5,,,52,100
47424,note_on,,,,,64,0,8,,,,,0,,,73,90
47552,note_off,,,,,128,0,12,,,,,4,,,40,100
47552,note_off,,,,,128,0,11,,,,,3,,,52,100
47552,note_off,,,,,128,0,14,,,,,5,,,52,100
47552,note_off,,,,,128,0,9,,,,,1,,,76,100
47552,note_off,,,,,128,0,13,,,,,5,,,61,100
47552,note_off,,,,,128,0,10,,,,,2,,,67,100
47552,note_off,,,,,128,0,8,,,,,0,,,73,100
47552,note_off,,,,,0,0,13,,,,,5,,,67,100
47616,note_on,,,,,64,0,10,,,,,2,,,66,90
47616,note_on,,,,,64,0,11,,,,,3,,,54,90
47616,note_on,,,,,64,0,9,,,,,1,,,73,90
47616,note_on,,,,,64,0,13,,,,,5,,,61,100
47616,note_on,,,,,64,0,14,,,,,5,,,54,100
47616,note_on,,,,,64,0,12,,,,,4,,,42,90
47616,note_on,,,,,0,0,13,,,,,5,,,70,100
47616,note_on,,,,,64,0,8,,,,,0,,,70,90
47744,note_off,,,,,0,0,13,,,,,5,,,70,100
47744,note_off,,,,,128,0,12,,,,,4,,,42,100
47744,note_off,,,,,128,0,11,,,,,3,,,54,100
47744,note_off,,,,,128,0,13,,,,,5,,,61,100
47744,note_off,,,,,128,0,14,,,,,5,,,54,100
47808,note_on,,,,,64,0,13,,,,,5,,,61,100
47808,note_on,,,,,0,0,13,,,,,5,,,58,100
47808,note_on,,,,,64,0,14,,,,,5,,,42,100
47808,note_on,,,,,64,0,12,,,,,4,,,30,90
47808,note_on,,,,,64,0,11,,,,,3,,,42,90
47936,note_off,,,,,128,0,11,,,,,3,,,42,100
47936,note_off,,,,,128,0,14,,,,,5,,,42,100
47936,note_off,,,,,128,0,12,,,,,4,,,30,100
47936,note_off,,,,,128,0,13,,,,,5,,,61,100
47936,note_off,,,,,0,0,13,,,,,5,,,58,100
48000,note_off,,,,,384,0,10,,,,,2,,,66,100
48000,note_on,,,,,64,0,13,,,,,5,,,61,100
48000,note_off,,,,,384,0,8,,,,,0,,,70,100
48000,note_off,,,,,384,0,9,,,,,1,,,73,100
48000,note_on,,,,,64,0,14,,,,,5,,,42,100
48000,note_on,,,,,64,0,12,,,,,4,,,30,90
48000,note_on,,,,,64,0,11,,,,,3,,,42,90
48000,note_on,,,,,0,0,13,,,,,5,,,58,100
48128,note_off,,,,,128,0,13,,,,,5,,,61,100
48128,note_off,,,,,128,0,14,,,,,5,,,42,100
48128,note_off,,,,,128,0,11,,,,,3,,,42,100
48128,note_off,,,,,0,0,13,,,,,5,,,58,100
48128,note_off,,,,,128,0,12,,,,,4,,,30,100
48192,note_on,,,,,64,0,12,,,,,4,,,35,90
48192,note_on,,,,,0,0,13,,,,,5,,,66,100
48192,note_on,,,,,192,0,8,,,,,0,,,71,90
48192,note_on,,,,,192,0,10,,,,,2,,,66,90
48192,note_on,,,,,64,0,14,,,,,5,,,47,100
48192,note_on,,,,,64,0,13,,,,,5,,,62,100
48192,note_on,,,,,64,0,11,,,,,3,,,47,90
48192,note_on,,,,,192,0,9,,,,,1,,,74,90
48320,note_off,,,,,128,0,14,,,,,5,,,47,100
48320,note_off,,,,,0,0,13,,,,,5,,,66,100
48320,note_off,,,,,128,0,11,,,,,3,,,47,100
48320,note_off,,,,,128,0,13,,,,,5,,,62,100
48320,note_off,,,,,128,0,9,,,,,1,,,74,100
48320,note_off,,,,,128,0,12,,,,,4,,,35,100
48320,note_off,,,,,128,0,8,,,,,0,,,71,100
48320,note_off,,,,,128,0,10,,,,,2,,,66,100
48384,note_on,,,,,64,0,13,,,,,5,,,61,100
48384,note_on,,,,,64,0,11,,,,,3,,,42,90
48384,note_on,,,,,0,0,13,,,,,5,,,70,100
48384,note_on,,,,,64,0,12,,,,,4,,,42,90
48384,note_on,,,,,64,0,9,,,,,1,,,70,90
48384,note_on,,,,,64,0,14,,,,,5,,,42,100
48384,note_on,,,,,64,0,8,,,,,0,,,73,90
48384,note_on,,,,,64,0,10,,,,,2,,,61,90
48512,note_off,,,,,128,0,11,,,,,3,,,42,100
48512,note_off,,,,,128,0,12,,,,,4,,,42,100
48512,note_off,,,,,0,0,13,,,,,5,,,70,100
48512,note_off,,,,,128,0,13,,,,,5,,,61,100
48512,note_off,,,,,128,0,10,,,,,2,,,61,100
48512,note_off,,,,,128,0,14,,,,,5,,,42,100
48512,note_off,,,,,128,0,8,,,,,0,,,73,100
48576,note_on,,,,,64,0,8,,,,,0,,,64,90
48576,note_on,,,,,64,0,14,,,,,5,,,44,100
48576,note_on,,,,,64,0,13,,,,,5,,,64,100
48576,note_on,,,,,64,0,12,,,,,4,,,44,90
48576,note_on,,,,,64,0,10,,,,,2,,,59,90
48576,note_on,,,,,64,0,11,,,,,3,,,44,90
48576,note_on,,,,,0,0,13,,,,,5,,,61,100
48704,note_off,,,,,128,0,14,,,,,5,,,44,100
48704,note_off,,,,,128,0,10,,,,,2,,,59,100
48704,note_off,,,,,0,0,13,,,,,5,,,61,100
48704,note_off,,,,,128,0,12,,,,,4,,,44,100
48704,note_off,,,,,128,0,8,,,,,0,,,64,100
48704,note_off,,,,,128,0,11,,,,,3,,,44,100
48704,note_off,,,,,128,0,13,,,,,5,,,64,100
48768,note_on,,,,,64,0,10,,,,,2,,,61,90
48768,note_on,,,,,64,0,8,,,,,0,,,64,90
48768,note_on,,,,,64,0,11,,,,,3,,,46,90
48768,note_off,,,,,384,0,9,,,,,1,,,70,100
48768,note_on,,,,,0,0,13,,,,,5,,,64,100
48768,note_on,,,,,64,0,14,,,,,5,,,46,100
48768,note_on,,,,,64,0,13,,,,,5,,,61,100
48768,note_on,,,,,64,0,12,,,,,4,,,46,90
48896,note_off,,,,,128,0,11,,,,,3,,,46,100
48896,note_off,,,,,128,0,8,,,,,0,,,64,100
48896,note_off,,,,,128,0,12,,,,,4,,,46,100
48896,note_off,,,,,128,0,10,,,,,2,,,61,100
48896,note_off,,,,,128,0,14,,,,,5,,,46,100
48896,note_off,,,,,128,0,13,,,,,5,,,61,100
48896,note_off,,,,,0,0,13,,,,,5,,,64,100
48960,note_on,,,,,64,0,11,,,,,3,,,42,90
48960,note_on,,,,,64,0,12,,,,,4,,,42,90
48960,note_on,,,,,192,0,9,,,,,1,,,70,90
48960,note_on,,,,,64,0,14,,,,,5,,,42,100
48960,note_on,,,,,0,0,13,,,,,5,,,61,100
48960,note_on,,,,,0,0,13,,,,,5,,,64,100
48960,note_on,,,,,64,0,8,,,,,0,,,76,90
48960,note_on,,,,,64,0,13,,,,,5,,,70,100
48960,note_on,,,,,64,0,10,,,,,2,,,58,90
49088,note_off,,,,,128,0,11,,,,,3,,,42,100
49088,note_off,,,,,128,0,10,,,,,2,,,58,100
49088,note_off,,,,,128,0,8,,,,,0,,,76,100
49088,note_off,,,,,0,0,13,,,,,5,,,64,100
49088,note_off,,,,,128,0,9,,,,,1,,,70,100
49088,note_off,,,,,128,0,12,,,,,4,,,42,100
49088,note_off,,,,,0,0,13,,,,,5,,,61,100
49088,note_off,,,,,128,0,13,,,,,5,,,70,100
49088,note_off,,,,,128,0,14,,,,,5,,,42,100
49152,note_on,,,,,64,0,10,,,,,2,,,54,90
49152,note_on,,,,,64,0,11,,,,,3,,,47,90
49152,note_on,,,,,64,0,14,,,,,5,,,47,100
49152,note_on,,,,,64,0,8,,,,,0,,,76,90
49152,note_on,,,,,64,0,13,,,,,5,,,66,100
49152,note_on,,,,,0,0,13,,,,,5,,,71,100
49152,note_on,,,,,0,0,13,,,,,5,,,64,100
49152,note_on,,,,,64,0,9,,,,,1,,,71,90
49152,note_on,,,,,64,0,12,,,,,4,,,47,90
49280,note_off,,,,,128,0,8,,,,,0,,,76,100
49344,note_on,,,,,64,0,8,,,,,0,,,74,90
49408,note_off,,,,,256,0,13,,,,,5,,,64,100
49408,note_off,,,,,64,0,8,,,,,0,,,74,100
49440,note_on,,,,,32,0,8,,,,,0,,,73,90
49504,note_off,,,,,64,0,8,,,,,0,,,73,100
49536,note_on,,,,,128,0,13,,,,,5,,,62,100
49536,note_on,,,,,32,0,8,,,,,0,,,74,90
49664,note_off,,,,,512,0,14,,,,,5,,,47,100
49664,note_off,,,,,0,0,13,,,,,5,,,71,100
49664,note_off,,,,,128,0,13,,,,,5,,,66,100
49664,note_off,,,,,512,0,11,,,,,3,,,47,100
49664,note_off,,,,,512,0,10,,,,,2,,,54,100
49664,note_off,,,,,512,0,9,,,,,1,,,71,100
49664,note_off,,,,,512,0,12,,,,,4,,,47,100
49792,note_off,,,,,256,0,8,,,,,0,,,74,100
49792,note_off,,,,,128,0,13,,,,,5,,,62,100
49920,note_on,,,,,256,0,12,,,,,4,,,35,90
49920,note_on,,,,,128,0,8,,,,,0,,,78,90
49920,note_on,,,,,256,0,14,,,,,5,,,47,100
49920,note_on,,,,,256,0,10,,,,,2,,,71,90
49920,note_on,,,,,256,0,11,,,,,3,,,47,90
49920,note_on,,,,,256,0,9,,,,,1,,,74,90
49920,note_on,,,,,128,0,13,,,,,5,,,62,100
49920,note_on,,,,,0,0,13,,,,,5,,,66,100
50048,note_off,,,,,128,0,8,,,,,0,,,78,100
50112,note_on,,,,,64,0,8,,,,,0,,,71,90
50240,note_off,,,,,128,0,8,,,,,0,,,71,100
50304,note_off,,,,,0,0,13,,,,,5,,,66,100
50304,note_off,,,,,384,0,14,,,,,5,,,47,100
50304,note_off,,,,,384,0,13,,,,,5,,,62,100
50304,note_off,,,,,384,0,9,,,,,1,,,74,100
50304,note_off,,,,,384,0,12,,,,,4,,,35,100
50304,note_off,,,,,384,0,11,,,,,3,,,47,100
50304,note_off,,,,,384,0,10,,,,,2,,,71,100
50304,note_on,,,,,64,0,8,,,,,0,,,71,90
50432,note_off,,,,,128,0,8,,,,,0,,,71,100
50496,note_on,,,,,192,0,11,,,,,3,,,52,90
50496,note_on,,,,,192,0,12,,,,,4,,,40,90
50496,note_on,,,,,64,0,8,,,,,0,,,79,90
50496,note_on,,,,,192,0,13,,,,,5,,,59,100
50496,note_on,,,,,0,0,13,,,,,5,,,67,100
50496,note_on,,,,,192,0,9,,,,,1,,,76,90
50496,note_on,,,,,192,0,10,,,,,2,,,71,90
50496,note_on,,,,,192,0,14,,,,,5,,,52,100
50624,note_off,,,,,128,0,11,,,,,3,,,52,100
50624,note_off,,,,,128,0,13,,,,,5,,,59,100
50624,note_off,,,,,128,0,8,,,,,0,,,79,100
50624,note_off,,,,,0,0,13,,,,,5,,,67,100
50624,note_off,,,,,128,0,14,,,,,5,,,52,100
50624,note_off,,,,,128,0,10,,,,,2,,,71,100
50624,note_off,,,,,128,0,9,,,,,1,,,76,100
50624,note_off,,,,,128,0,12,,,,,4,,,40,100
50688,note_on,,,,,64,0,12,,,,,4,,,35,90
50688,note_on,,,,,64,0,14,,,,,5,,,47,100
50688,note_on,,,,,64,0,8,,,,,0,,,78,90
50688,note_on,,,,,64,0,9,,,,,1,,,74,90
50688,note_on,,,,,64,0,10,,,,,2,,,71,90
50688,note_on,,,,,64,0,13,,,,,5,,,62,100
50688,note_on,,,,,0,0,13,,,,,5,,,66,100
50688,note_on,,,,,64,0,11,,,,,3,,,47,90
50816,note_off,,,,,128,0,8,,,,,0,,,78,100
50880,note_on,,,,,64,0,8,,,,,0,,,71,90
51008,note_off,,,,,128,0,8,,,,,0,,,71,100
51072,note_off,,,,,384,0,11,,,,,3,,,47,100
51072,note_off,,,,,384,0,14,,,,,5,,,47,100
51072,note_off,,,,,0,0,13,,,,,5,,,66,100
51072,note_off,,,,,384,0,10,,,,,2,,,71,100
51072,note_off,,,,,384,0,13,,,,,5,,,62,100
51072,note_off,,,,,384,0,9,,,,,1,,,74,100
51072,note_on,,,,,64,0,8,,,,,0,,,71,90
51072,note_off,,,,,384,0,12,,,,,4,,,35,100
51200,note_off,,,,,128,0,8,,,,,0,,,71,100
51264,note_on,,,,,192,0,12,,,,,4,,,40,60
51264,note_on,,,,,192,0,10,,,,,2,,,71,60
51264,note_on,,,,,192,0,14,,,,,5,,,52,100
51264,note_on,,,,,192,0,11,,,,,3,,,52,60
51264,note_on,,,,,0,0,13,,,,,5,,,67,100
51264,note_on,,,,,192,0,13,,,,,5,,,59,100
51264,note_on,,,,,192,0,9,,,,,1,,,76,60
51264,note_on,,,,,64,0,8,,,,,0,,,79,60
51392,note_off,,,,,128,0,12,,,,,4,,,40,100
51392,note_off,,,,,128,0,11,,,,,3,,,52,100
51392,note_off,,,,,0,0,13,,,,,5,,,67,100
51392,note_off,,,,,128,0,13,,,,,5,,,59,100
51392,note_off,,,,,128,0,10,,,,,2,,,71,100
51392,note_off,,,,,128,0,9,,,,,1,,,76,100
51392,note_off,,,,,128,0,14,,,,,5,,,52,100
51392,note_off,,,,,128,0,8,,,,,0,,,79,100
51456,note_on,,,,,64,0,13,,,,,5,,,62,100
51456,note_on,,,,,0,0,13,,,,,5,,,66,100
51456,note_on,,,,,64,0,10,,,,,2,,,71,60
51456,note_on,,,,,64,0,14,,,,,5,,,47,100
51456,note_on,,,,,64,0,9,,,,,1,,,74,60
51456,note_on,,,,,64,0,8,,,,,0,,,78,60
51456,note_on,,,,,64,0,11,,,,,3,,,47,60
51456,note_on,,,,,64,0,12,,,,,4,,,35,60
51584,note_off,,,,,128,0,8,,,,,0,,,78,100
51648,note_on,,,,,64,0,8,,,,,0,,,71,60
51776,note_off,,,,,128,0,8,,,,,0,,,71,100
51840,note_on,,,,,64,0,8,,,,,0,,,71,60
51840,note_off,,,,,384,0,10,,,,,2,,,71,100
51840,note_off,,,,,384,0,9,,,,,1,,,74,100
51840,note_off,,,,,384,0,13,,,,,5,,,62,100
51840,note_off,,,,,384,0,11,,,,,3,,,47,100
51840,note_off,,,,,384,0,14,,,,,5,,,47,100
51840,note_off,,,,,0,0,13,,,,,5,,,66,100
51840,note_off,,,,,384,0,12,,,,,4,,,35,100
51968,note_off,,,,,128,0,8,,,,,0,,,71,100
52032,note_on,,,,,192,0,11,,,,,3,,,52,60
52032,note_on,,,,,0,0,13,,,,,5,,,59,100
52032,note_on,,,,,64,0,8,,,,,0,,,79,60
52032,note_on,,,,,192,0,9,,,,,1,,,76,60
52032,note_on,,,,,192,0,10,,,,,2,,,71,60
52032,note_on,,,,,192,0,12,,,,,4,,,40,60
52032,note_on,,,,,192,0,14,,,,,5,,,52,100
52032,note_on,,,,,192,0,13,,,,,5,,,67,100
52160,note_off,,,,,128,0,13,,,,,5,,,67,100
52160,note_off,,,,,128,0,9,,,,,1,,,76,100
52160,note_off,,,,,0,0,13,,,,,5,,,59,100
52160,note_off,,,,,128,0,12,,,,,4,,,40,100
52160,note_off,,,,,128,0,10,,,,,2,,,71,100
52160,note_off,,,,,128,0,8,,,,,0,,,79,100
52160,note_off,,,,,128,0,14,,,,,5,,,52,100
52160,note_off,,,,,128,0,11,,,,,3,,,52,100
52224,note_on,,,,,64,0,14,,,,,5,,,47,100
52224,note_on,,,,,64,0,8,,,,,0,,,78,60
52224,note_on,,,,,64,0,10,,,,,2,,,71,60
52224,note_on,,,,,64,0,12,,,,,4,,,35,60
52224,note_on,,,,,64,0,9,,,,,1,,,74,60
52224,note_on,,,,,0,0,13,,,,,5,,,66,100
52224,note_on,,,,,64,0,11,,,,,3,,,47,60
52224,note_on,,,,,64,0,13,,,,,5,,,62,100
52352,note_off,,,,,128,0,8,,,,,0,,,78,100
52416,note_on,,,,,64,0,8,,,,,0,,,71,60
52544,note_off,,,,,128,0,8,,,,,0,,,71,100
52608,note_on,,,,,64,0,8,,,,,0,,,71,70
52608,note_off,,,,,384,0,14,,,,,5,,,47,100
52608,note_off,,,,,384,0,10,,,,,2,,,71,100
52608,note_off,,,,,384,0,12,,,,,4,,,35,100
52608,note_off,,,,,384,0,9,,,,,1,,,74,100
52608,note_off,,,,,384,0,13,,,,,5,,,62,100
52608,note_off,,,,,384,0,11,,,,,3,,,47,100
52608,note_off,,,,,0,0,13,,,,,5,,,66,100
52736,note_off,,,,,128,0,8,,,,,0,,,71,100
52800,note_on,,,,,192,0,14,,,,,5,,,52,100
52800,note_on,,,,,192,0,10,,,,,2,,,71,100
52800,note_on,,,,,64,0,8,,,,,0,,,79,100
52800,note_on,,,,,192,0,13,,,,,5,,,71,100
52800,note_on,,,,,192,0,9,,,,,1,,,76,100
52800,note_on,,,,,192,0,11,,,,,3,,,52,100
52800,note_on,,,,,0,0,13,,,,,5,,,67,100
52800,note_on,,,,,192,0,12,,,,,4,,,40,100
52928,note_off,,,,,128,0,14,,,,,5,,,52,100
52928,note_off,,,,,128,0,8,,,,,0,,,79,100
52928,note_off,,,,,0,0,13,,,,,5,,,67,100
52928,note_off,,,,,128,0,13,,,,,5,,,71,100
52928,note_off,,,,,128,0,12,,,,,4,,,40,100
52928,note_off,,,,,128,0,11,,,,,3,,,52,100
52928,note_off,,,,,128,0,10,,,,,2,,,71,100
52928,note_off,,,,,128,0,9,,,,,1,,,76,100
52992,note_on,,,,,64,0,8,,,,,0,,,79,100
52992,note_on,,,,,64,0,13,,,,,5,,,67,100
52992,note_on,,,,,64,0,12,,,,,4,,,40,100
52992,note_on,,,,,64,0,9,,,,,1,,,83,100
52992,note_on,,,,,64,0,11,,,,,3,,,52,100
52992,note_on,,,,,64,0,14,,,,,5,,,52,100
52992,note_on,,,,,64,0,10,,,,,2,,,64,100
52992,note_on,,,,,0,0,13,,,,,5,,,71,100
53120,note_off,,,,,128,0,8,,,,,0,,,79,100
53120,note_off,,,,,128,0,9,,,,,1,,,83,100
53184,note_on,,,,,64,0,8,,,,,0,,,78,100
53184,note_on,,,,,64,0,9,,,,,1,,,81,100
53312,note_off,,,,,128,0,8,,,,,0,,,78,100
53312,note_off,,,,,128,0,9,,,,,1,,,81,100
53376,note_off,,,,,0,0,13,,,,,5,,,71,100
53376,note_off,,,,,384,0,10,,,,,2,,,64,100
53376,note_off,,,,,384,0,11,,,,,3,,,52,100
53376,note_off,,,,,384,0,12,,,,,4,,,40,100
53376,note_on,,,,,64,0,9,,,,,1,,,79,100
53376,note_off,,,,,384,0,14,,,,,5,,,52,100
53376,note_off,,,,,384,0,13,,,,,5,,,67,100
53376,note_on,,,,,64,0,8,,,,,0,,,76,100
53504,note_off,,,,,128,0,9,,,,,1,,,79,100
53504,note_off,,,,,128,0,8,,,,,0,,,76,100
53568,note_on,,,,,64,0,9,,,,,1,,,78,100
53568,note_on,,,,,192,0,10,,,,,2,,,66,100
53568,note_on,,,,,192,0,11,,,,,3,,,59,100
53568,note_on,,,,,192,0,14,,,,,5,,,59,100
53568,note_on,,,,,192,0,12,,,,,4,,,47,100
53568,note_on,,,,,0,0,13,,,,,5,,,74,100
53568,note_on,,,,,192,0,13,,,,,5,,,66,100
53568,note_on,,,,,64,0,8,,,,,0,,,74,100
53696,note_off,,,,,0,0,13,,,,,5,,,74,100
53696,note_off,,,,,128,0,12,,,,,4,,,47,100
53696,note_off,,,,,128,0,11,,,,,3,,,59,100
53696,note_off,,,,,128,0,13,,,,,5,,,66,100
53696,note_off,,,,,128,0,10,,,,,2,,,66,100
53696,note_off,,,,,128,0,9,,,,,1,,,78,100
53696,note_off,,,,,128,0,14,,,,,5,,,59,100
53696,note_off,,,,,128,0,8,,,,,0,,,74,100
53760,note_on,,,,,64,0,12,,,,,4,,,40,100
53760,note_on,,,,,64,0,8,,,,,0,,,72,100
53760,note_on,,,,,64,0,14,,,,,5,,,52,100
53760,note_on,,,,,64,0,13,,,,,5,,,67,100
53760,note_on,,,,,0,0,13,,,,,5,,,72,100
53760,note_on,,,,,64,0,9,,,,,1,,,76,100
53760,note_on,,,,,64,0,10,,,,,2,,,67,100
53760,note_on,,,,,64,0,11,,,,,3,,,52,100
53888,note_off,,,,,128,0,8,,,,,0,,,72,100
53888,note_off,,,,,128,0,12,,,,,4,,,40,100
53888,note_off,,,,,128,0,14,,,,,5,,,52,100
53888,note_off,,,,,128,0,9,,,,,1,,,76,100
53888,note_off,,,,,128,0,11,,,,,3,,,52,100
53888,note_off,,,,,128,0,10,,,,,2,,,67,100
53888,note_off,,,,,0,0,13,,,,,5,,,72,100
53888,note_off,,,,,128,0,13,,,,,5,,,67,100
53952,note_on,,,,,64,0,9,,,,,1,,,73,100
53952,note_on,,,,,64,0,10,,,,,2,,,66,100
53952,note_on,,,,,0,0,13,,,,,5,,,73,100
53952,note_on,,,,,64,0,13,,,,,5,,,70,100
53952,note_on,,,,,64,0,12,,,,,4,,,42,100
53952,note_on,,,,,64,0,11,,,,,3,,,54,100
53952,note_on,,,,,64,0,14,,,,,5,,,54,100
53952,note_on,,,,,64,0,8,,,,,0,,,70,100
54080,note_off,,,,,128,0,8,,,,,0,,,70,100
54080,note_off,,,,,128,0,12,,,,,4,,,42,100
54080,note_off,,,,,128,0,13,,,,,5,,,70,100
54080,note_off,,,,,0,0,13,,,,,5,,,73,100
54080,note_off,,,,,128,0,9,,,,,1,,,73,100
54080,note_off,,,,,128,0,10,,,,,2,,,66,100
54080,note_off,,,,,128,0,14,,,,,5,,,54,100
54080,note_off,,,,,128,0,11,,,,,3,,,54,100
54144,note_on,,,,,64,0,11,,,,,3,,,50,100
54144,note_on,,,,,64,0,8,,,,,0,,,71,100
54144,note_on,,,,,64,0,14,,,,,5,,,50,100
54144,note_on,,,,,64,0,12,,,,,4,,,38,100
54144,note_on,,,,,64,0,10,,,,,2,,,66,100
54144,note_on,,,,,64,0,13,,,,,5,,,66,100
54144,note_on,,,,,0,0,13,,,,,5,,,71,100
54144,note_on,,,,,64,0,9,,,,,1,,,74,100
54272,note_off,,,,,128,0,9,,,,,1,,,74,100
54272,note_off,,,,,128,0,12,,,,,4,,,38,100
54272,note_off,,,,,128,0,10,,,,,2,,,66,100
54272,note_off,,,,,128,0,13,,,,,5,,,66,100
54272,note_off,,,,,128,0,8,,,,,0,,,71,100
54272,note_off,,,,,128,0,14,,,,,5,,,50,100
54272,note_off,,,,,128,0,11,,,,,3,,,50,100
54272,note_off,,,,,0,0,13,,,,,5,,,71,100
54336,note_on,,,,,64,0,13,,,,,5,,,67,100
54336,note_on,,,,,0,0,13,,,,,5,,,71,100
54336,note_on,,,,,64,0,9,,,,,1,,,71,100
54336,note_on,,,,,64,0,12,,,,,4,,,40,100
54336,note_on,,,,,64,0,11,,,,,3,,,52,100
54336,note_on,,,,,64,0,8,,,,,0,,,76,100
54336,note_on,,,,,64,0,14,,,,,5,,,52,100
54336,note_on,,,,,64,0,10,,,,,2,,,67,100
54464,note_off,,,,,128,0,13,,,,,5,,,67,100
54464,note_off,,,,,128,0,14,,,,,5,,,52,100
54464,note_off,,,,,128,0,8,,,,,0,,,76,100
54464,note_off,,,,,128,0,9,,,,,1,,,71,100
54464,note_off,,,,,128,0,12,,,,,4,,,40,100
54464,note_off,,,,,128,0,11,,,,,3,,,52,100
54464,note_off,,,,,0,0,13,,,,,5,,,71,100
54464,note_off,,,,,128,0,10,,,,,2,,,67,100
54528,note_on,,,,,64,0,13,,,,,5,,,71,100
54528,note_on,,,,,0,0,13,,,,,5,,,74,100
54528,note_on,,,,,64,0,14,,,,,5,,,54,100
54528,note_on,,,,,64,0,9,,,,,1,,,71,100
54528,note_on,,,,,64,0,10,,,,,2,,,66,100
54528,note_on,,,,,64,0,12,,,,,4,,,42,100
54528,note_on,,,,,64,0,11,,,,,3,,,54,100
54528,note_on,,,,,64,0,8,,,,,0,,,74,100
54784,note_off,,,,,256,0,10,,,,,2,,,66,100
54784,note_off,,,,,256,0,9,,,,,1,,,71,100
54784,note_off,,,,,256,0,11,,,,,3,,,54,100
54784,note_off,,,,,256,0,12,,,,,4,,,42,100
54784,note_off,,,,,256,0,8,,,,,0,,,74,100
54784,note_off,,,,,0,0,13,,,,,5,,,74,100
54784,note_off,,,,,256,0,13,,,,,5,,,71,100
54784,note_off,,,,,256,0,14,,,,,5,,,54,100
54912,note_on,,,,,0,0,13,,,,,5,,,70,100
54912,note_on,,,,,128,0,11,,,,,3,,,42,100
54912,note_on,,,,,128,0,14,,,,,5,,,42,100
54912,note_on,,,,,128,0,10,,,,,2,,,66,100
54912,note_on,,,,,128,0,9,,,,,1,,,70,100
54912,note_on,,,,,128,0,8,,,,,0,,,73,100
54912,note_on,,,,,128,0,12,,,,,4,,,42,100
54912,note_on,,,,,128,0,13,,,,,5,,,73,100
55168,note_off,,,,,256,0,10,,,,,2,,,66,100
55168,note_off,,,,,256,0,13,,,,,5,,,73,100
55168,note_off,,,,,0,0,13,,,,,5,,,70,100
55168,note_off,,,,,256,0,12,,,,,4,,,42,100
55168,note_off,,,,,256,0,14,,,,,5,,,42,100
55168,note_off,,,,,256,0,9,,,,,1,,,70,100
55168,note_off,,,,,256,0,8,,,,,0,,,73,100
55168,note_off,,,,,256,0,11,,,,,3,,,42,100
55292,program_change,,,,,124,0,8,,,,,0,40,,,
55296,note_on,,,,,0,0,13,,,,,5,,,66,100
55296,note_on,,,,,0,0,13,,,,,5,,,71,100
55296,note_on,,,,,128,0,13,,,,,5,,,62,100
55296,note_on,,,,,128,0,9,,,,,1,,,71,100
55296,note_on,,,,,128,0,14,,,,,5,,,47,100
55296,note_on,,,,,128,0,11,,,,,3,,,47,100
55296,note_on,,,,,128,0,10,,,,,2,,,66,100
55296,note_on,,,,,128,0,12,,,,,4,,,35,100
55296,note_on,,,,,4,0,8,,,,,0,,,71,100
55360,note_off,,,,,64,0,8,,,,,0,,,71,100
55392,note_on,,,,,32,0,8,,,,,0,,,71,100
55456,note_off,,,,,64,0,8,,,,,0,,,71,100
55488,note_on,,,,,32,0,8,,,,,0,,,73,100
55552,note_off,,,,,0,0,13,,,,,5,,,71,100
55552,note_off,,,,,64,0,8,,,,,0,,,73,100
55552,note_off,,,,,256,0,10,,,,,2,,,66,100
55552,note_off,,,,,256,0,13,,,,,5,,,62,100
55552,note_off,,,,,256,0,11,,,,,3,,,47,100
55552,note_off,,,,,256,0,12,,,,,4,,,35,100
55552,note_off,,,,,256,0,14,,,,,5,,,47,100
55552,note_off,,,,,256,0,9,,,,,1,,,71,100
55552,note_off,,,,,0,0,13,,,,,5,,,66,100
55584,note_on,,,,,32,0,8,,,,,0,,,74,100
55648,note_off,,,,,64,0,8,,,,,0,,,74,100
55680,note_on,,,,,32,0,8,,,,,0,,,76,100
55744,note_off,,,,,64,0,8,,,,,0,,,76,100
55776,note_on,,,,,32,0,8,,,,,0,,,78,100
55840,note_off,,,,,64,0,8,,,,,0,,,78,100
55872,note_on,,,,,32,0,8,,,,,0,,,79,100
55936,note_off,,,,,64,0,8,,,,,0,,,79,100
55968,note_on,,,,,32,0,8,,,,,0,,,81,100
56032,note_off,,,,,64,0,8,,,,,0,,,81,100
56064,note_on,,,,,512,0,13,,,,,5,,,66,100
56064,note_on,,,,,32,0,8,,,,,0,,,83,100
56064,note_on,,,,,512,0,12,,,,,4,,,35,85
56064,note_on,,,,,512,0,10,,,,,2,,,75,85
56064,note_on,,,,,512,0,14,,,,,5,,,47,100
56064,note_on,,,,,512,0,11,,,,,3,,,47,85
56064,note_on,,,,,0,0,9,,,,,1,,,83,85
56064,note_on,,,,,512,0,9,,,,,1,,,78,85
56064,note_on,,,,,0,0,13,,,,,5,,,63,100
56128,note_off,,,,,64,0,8,,,,,0,,,83,100
56160,note_on,,,,,32,0,8,,,,,0,,,71,100
56224,note_off,,,,,64,0,8,,,,,0,,,71,100
56256,note_on,,,,,32,0,8,,,,,0,,,73,100
56320,note_off,,,,,256,0,9,,,,,1,,,78,100
56320,note_off,,,,,64,0,8,,,,,0,,,73,100
56320,note_off,,,,,256,0,12,,,,,4,,,35,100
56320,note_off,,,,,0,0,9,,,,,1,,,83,100
56320,note_off,,,,,256,0,14,,,,,5,,,47,100
56320,note_off,,,,,256,0,11,,,,,3,,,47,100
56320,note_off,,,,,256,0,10,,,,,2,,,75,100
56320,note_off,,,,,256,0,13,,,,,5,,,66,100
56320,note_off,,,,,0,0,13,,,,,5,,,63,100
56352,note_on,,,,,32,0,8,,,,,0,,,75,100
56416,note_off,,,,,64,0,8,,,,,0,,,75,100
56448,note_on,,,,,32,0,8,,,,,0,,,76,100
56512,note_off,,,,,64,0,8,,,,,0,,,76,100
56544,note_on,,,,,32,0,8,,,,,0,,,78,100
56608,note_off,,,,,64,0,8,,,,,0,,,78,100
56640,note_on,,,,,32,0,8,,,,,0,,,79,100
56704,note_off,,,,,64,0,8,,,,,0,,,79,100
56736,note_on,,,,,32,0,8,,,,,0,,,81,100
56800,note_off,,,,,64,0,8,,,,,0,,,81,100
56832,note_on,,,,,512,0,12,,,,,4,,,35,85
56832,note_on,,,,,512,0,14,,,,,5,,,47,100
56832,note_on,,,,,0,0,9,,,,,1,,,83,85
56832,note_on,,,,,512,0,11,,,,,3,,,47,85
56832,note_on,,,,,512,0,10,,,,,2,,,75,85
56832,note_on,,,,,512,0,13,,,,,5,,,66,100
56832,note_on,,,,,0,0,13,,,,,5,,,63,100
56832,note_on,,,,,512,0,9,,,,,1,,,78,85
56832,note_on,,,,,32,0,8,,,,,0,,,83,100
56896,note_off,,,,,64,0,8,,,,,0,,,83,100
56928,note_on,,,,,32,0,8,,,,,0,,,71,100
56992,note_off,,,,,64,0,8,,,,,0,,,71,100
57024,note_on,,,,,32,0,8,,,,,0,,,73,100
57088,note_off,,,,,256,0,14,,,,,5,,,47,100
57088,note_off,,,,,256,0,13,,,,,5,,,66,100
57088,note_off,,,,,0,0,9,,,,,1,,,83,100
57088,note_off,,,,,256,0,9,,,,,1,,,78,100
57088,note_off,,,,,256,0,10,,,,,2,,,75,100
57088,note_off,,,,,256,0,11,,,,,3,,,47,100
57088,note_off,,,,,64,0,8,,,,,0,,,73,100
57088,note_off,,,,,256,0,12,,,,,4,,,35,100
57088,note_off,,,,,0,0,13,,,,,5,,,63,100
57120,note_on,,,,,32,0,8,,,,,0,,,75,100
57184,note_off,,,,,64,0,8,,,,,0,,,75,100
57216,note_on,,,,,32,0,8,,,,,0,,,76,100
57280,note_off,,,,,64,0,8,,,,,0,,,76,100
57312,note_on,,,,,32,0,8,,,,,0,,,78,100
57376,note_off,,,,,64,0,8,,,,,0,,,78,100
57408,note_on,,,,,32,0,8,,,,,0,,,79,100
57472,note_off,,,,,64,0,8,,,,,0,,,79,100
57504,note_on,,,,,32,0,8,,,,,0,,,81,100
57568,note_off,,,,,64,0,8,,,,,0,,,81,100
57600,note_on,,,,,512,0,9,,,,,1,,,78,85
57600,note_on,,,,,512,0,13,,,,,5,,,66,100
57600,note_on,,,,,32,0,8,,,,,0,,,83,100
57600,note_on,,,,,512,0,12,,,,,4,,,35,85
57600,note_on,,,,,0,0,13,,,,,5,,,63,100
57600,note_on,,,,,512,0,11,,,,,3,,,47,85
57600,note_on,,,,,512,0,10,,,,,2,,,75,85
57600,note_on,,,,,0,0,9,,,,,1,,,83,85
57600,note_on,,,,,512,0,14,,,,,5,,,47,100
57664,note_off,,,,,64,0,8,,,,,0,,,83,100
57696,note_on,,,,,32,0,8,,,,,0,,,71,100
57760,note_off,,,,,64,0,8,,,,,0,,,71,100
57792,note_on,,,,,32,0,8,,,,,0,,,75,100
57856,note_off,,,,,0,0,9,,,,,1,,,83,100
57856,note_off,,,,,256,0,9,,,,,1,,,78,100
57856,note_off,,,,,256,0,10,,,,,2,,,75,100
57856,note_off,,,,,256,0,11,,,,,3,,,47,100
57856,note_off,,,,,256,0,13,,,,,5,,,66,100
57856,note_off,,,,,64,0,8,,,,,0,,,75,100
57856,note_off,,,,,256,0,14,,,,,5,,,47,100
57856,note_off,,,,,0,0,13,,,,,5,,,63,100
57856,note_off,,,,,256,0,12,,,,,4,,,35,100
57888,note_on,,,,,32,0,8,,,,,0,,,78,100
57952,note_off,,,,,64,0,8,,,,,0,,,78,100
57984,note_on,,,,,32,0,8,,,,,0,,,83,100
58048,note_off,,,,,64,0,8,,,,,0,,,83,100
58080,note_on,,,,,32,0,8,,,,,0,,,81,100
58144,note_off,,,,,64,0,8,,,,,0,,,81,100
58176,note_on,,,,,32,0,8,,,,,0,,,80,100
58240,note_off,,,,,64,0,8,,,,,0,,,80,100
58272,note_on,,,,,32,0,8,,,,,0,,,78,100
58336,note_off,,,,,64,0,8,,,,,0,,,78,100
58364,program_change,,,,,28,0,8,,,,,0,48,,,
58364,program_change,,,,,508,0,9,,,,,1,40,,,
58368,note_on,,,,,512,0,14,,,,,5,,,52,100
58368,note_on,,,,,0,0,8,,,,,0,,,76,85
58368,note_on,,,,,4,0,8,,,,,0,,,80,85
58368,note_on,,,,,512,0,12,,,,,4,,,40,85
58368,note_on,,,,,512,0,13,,,,,5,,,71,100
58368,note_on,,,,,512,0,10,,,,,2,,,71,85
58368,note_on,,,,,4,0,9,,,,,1,,,76,100
58368,note_on,,,,,512,0,11,,,,,3,,,52,85
58368,note_on,,,,,0,0,13,,,,,5,,,68,100
58432,note_off,,,,,64,0,9,,,,,1,,,76,100
58464,note_on,,,,,32,0,9,,,,,1,,,64,100
58528,note_off,,,,,64,0,9,,,,,1,,,64,100
58560,note_on,,,,,32,0,9,,,,,1,,,66,100
58624,note_off,,,,,64,0,9,,,,,1,,,66,100
58624,note_off,,,,,256,0,10,,,,,2,,,71,100
58624,note_off,,,,,256,0,14,,,,,5,,,52,100
58624,note_off,,,,,256,0,8,,,,,0,,,80,100
58624,note_off,,,,,256,0,11,,,,,3,,,52,100
58624,note_off,,,,,0,0,13,,,,,5,,,68,100
58624,note_off,,,,,0,0,8,,,,,0,,,76,100
58624,note_off,,,,,256,0,13,,,,,5,,,71,100
58624,note_off,,,,,256,0,12,,,,,4,,,40,100
58656,note_on,,,,,32,0,9,,,,,1,,,68,100
58720,note_off,,,,,64,0,9,,,,,1,,,68,100
58752,note_on,,,,,32,0,9,,,,,1,,,69,100
58816,note_off,,,,,64,0,9,,,,,1,,,69,100
58848,note_on,,,,,32,0,9,,,,,1,,,71,100
58912,note_off,,,,,64,0,9,,,,,1,,,71,100
58944,note_on,,,,,32,0,9,,,,,1,,,72,100
59008,note_off,,,,,64,0,9,,,,,1,,,72,100
59040,note_on,,,,,32,0,9,,,,,1,,,74,100
59104,note_off,,,,,64,0,9,,,,,1,,,74,100
59136,note_on,,,,,512,0,13,,,,,5,,,71,100
59136,note_on,,,,,512,0,11,,,,,3,,,52,85
59136,note_on,,,,,512,0,8,,,,,0,,,80,85
59136,note_on,,,,,0,0,8,,,,,0,,,76,85
59136,note_on,,,,,512,0,14,,,,,5,,,52,100
59136,note_on,,,,,512,0,10,,,,,2,,,71,85
59136,note_on,,,,,0,0,13,,,,,5,,,68,100
59136,note_on,,,,,512,0,12,,,,,4,,,40,85
59136,note_on,,,,,32,0,9,,,,,1,,,76,100
59200,note_off,,,,,64,0,9,,,,,1,,,76,100
59232,note_on,,,,,32,0,9,,,,,1,,,64,100
59296,note_off,,,,,64,0,9,,,,,1,,,64,100
59328,note_on,,,,,32,0,9,,,,,1,,,66,100
59392,note_off,,,,,256,0,13,,,,,5,,,71,100
59392,note_off,,,,,0,0,13,,,,,5,,,68,100
59392,note_off,,,,,256,0,11,,,,,3,,,52,100
59392,note_off,,,,,64,0,9,,,,,1,,,66,100
59392,note_off,,,,,256,0,8,,,,,0,,,80,100
59392,note_off,,,,,256,0,14,,,,,5,,,52,100
59392,note_off,,,,,256,0,10,,,,,2,,,71,100
59392,note_off,,,,,256,0,12,,,,,4,,,40,100
59392,note_off,,,,,0,0,8,,,,,0,,,76,100
59424,note_on,,,,,32,0,9,,,,,1,,,68,100
59488,note_off,,,,,64,0,9,,,,,1,,,68,100
59520,note_on,,,,,32,0,9,,,,,1,,,69,100
59584,note_off,,,,,64,0,9,,,,,1,,,69,100
59616,note_on,,,,,32,0,9,,,,,1,,,71,100
59680,note_off,,,,,64,0,9,,,,,1,,,71,100
59712,note_on,,,,,32,0,9,,,,,1,,,72,100
59776,note_off,,,,,64,0,9,,,,,1,,,72,100
59808,note_on,,,,,32,0,9,,,,,1,,,74,100
59872,note_off,,,,,64,0,9,,,,,1,,,74,100
59904,note_on,,,,,512,0,11,,,,,3,,,52,85
59904,note_on,,,,,512,0,13,,,,,5,,,71,100
59904,note_on,,,,,32,0,9,,,,,1,,,76,100
59904,note_on,,,,,512,0,8,,,,,0,,,80,85
59904,note_on,,,,,512,0,12,,,,,4,,,40,85
59904,note_on,,,,,512,0,10,,,,,2,,,71,85
59904,note_on,,,,,0,0,8,,,,,0,,,76,85
59904,note_on,,,,,512,0,14,,,,,5,,,52,100
59904,note_on,,,,,0,0,13,,,,,5,,,68,100
59968,note_off,,,,,64,0,9,,,,,1,,,76,100
60000,note_on,,,,,32,0,9,,,,,1,,,64,100
60064,note_off,,,,,64,0,9,,,,,1,,,64,100
60096,note_on,,,,,32,0,9,,,,,1,,,66,100
60160,note_off,,,,,256,0,10,,,,,2,,,71,100
60160,note_off,,,,,0,0,13,,,,,5,,,68,100
60160,note_off,,,,,64,0,9,,,,,1,,,66,100
60160,note_off,,,,,256,0,13,,,,,5,,,71,100
60160,note_off,,,,,256,0,11,,,,,3,,,52,100
60160,note_off,,,,,256,0,12,,,,,4,,,40,100
60160,note_off,,,,,256,0,8,,,,,0,,,80,100
60160,note_off,,,,,256,0,14,,,,,5,,,52,100
60160,note_off,,,,,0,0,8,,,,,0,,,76,100
60192,note_on,,,,,32,0,9,,,,,1,,,68,100
60256,note_off,,,,,64,0,9,,,,,1,,,68,100
60288,note_on,,,,,32,0,9,,,,,1,,,69,100
60352,note_off,,,,,64,0,9,,,,,1,,,69,100
60384,note_on,,,,,32,0,9,,,,,1,,,71,100
60448,note_off,,,,,64,0,9,,,,,1,,,71,100
60480,note_on,,,,,32,0,9,,,,,1,,,72,100
60544,note_off,,,,,64,0,9,,,,,1,,,72,100
60576,note_on,,,,,32,0,9,,,,,1,,,74,100
60640,note_off,,,,,64,0,9,,,,,1,,,74,100
60672,note_on,,,,,512,0,8,,,,,0,,,80,85
60672,note_on,,,,,32,0,9,,,,,1,,,76,100
60672,note_on,,,,,512,0,12,,,,,4,,,40,85
60672,note_on,,,,,512,0,14,,,,,5,,,52,100
60672,note_on,,,,,512,0,13,,,,,5,,,71,100
60672,note_on,,,,,512,0,10,,,,,2,,,71,85
60672,note_on,,,,,0,0,13,,,,,5,,,68,100
60672,note_on,,,,,0,0,8,,,,,0,,,76,85
60672,note_on,,,,,512,0,11,,,,,3,,,52,85
60736,note_off,,,,,64,0,9,,,,,1,,,76,100
60768,note_on,,,,,32,0,9,,,,,1,,,64,100
60832,note_off,,,,,64,0,9,,,,,1,,,64,100
60864,note_on,,,,,32,0,9,,,,,1,,,68,100
60928,note_off,,,,,256,0,8,,,,,0,,,80,100
60928,note_off,,,,,0,0,8,,,,,0,,,76,100
60928,note_off,,,,,0,0,13,,,,,5,,,68,100
60928,note_off,,,,,256,0,13,,,,,5,,,71,100
60928,note_off,,,,,256,0,14,,,,,5,,,52,100
60928,note_off,,,,,256,0,12,,,,,4,,,40,100
60928,note_off,,,,,64,0,9,,,,,1,,,68,100
60928,note_off,,,,,256,0,11,,,,,3,,,52,100
60928,note_off,,,,,256,0,10,,,,,2,,,71,100
60960,note_on,,,,,32,0,9,,,,,1,,,71,100
61024,note_off,,,,,64,0,9,,,,,1,,,71,100
61056,note_on,,,,,32,0,9,,,,,1,,,76,100
61120,note_off,,,,,64,0,9,,,,,1,,,76,100
61152,note_on,,,,,32,0,9,,,,,1,,,74,100
61216,note_off,,,,,64,0,9,,,,,1,,,74,100
61248,note_on,,,,,32,0,9,,,,,1,,,73,100
61312,note_off,,,,,64,0,9,,,,,1,,,73,100
61344,note_on,,,,,32,0,9,,,,,1,,,71,100
61408,note_off,,,,,64,0,9,,,,,1,,,71,100
61436,program_change,,,,,28,0,9,,,,,1,48,,,
61436,program_change,,,,,508,0,8,,,,,0,40,,,
61440,note_on,,,,,4,0,8,,,,,0,,,81,100
61440,note_on,,,,,512,0,14,,,,,5,,,45,100
61440,note_on,,,,,4,0,9,,,,,1,,,76,85
61440,note_on,,,,,0,0,9,,,,,1,,,81,85
61440,note_on,,,,,512,0,13,,,,,5,,,64,100
61440,note_on,,,,,512,0,12,,,,,4,,,33,85
61440,note_on,,,,,512,0,11,,,,,3,,,45,85
61440,note_on,,,,,512,0,10,,,,,2,,,73,85
61440,note_on,,,,,0,0,13,,,,,5,,,61,100
61504,note_off,,,,,64,0,8,,,,,0,,,81,100
61536,note_on,,,,,32,0,8,,,,,0,,,69,100
61600,note_off,,,,,64,0,8,,,,,0,,,69,100
61632,note_on,,,,,32,0,8,,,,,0,,,71,100
61696,note_off,,,,,64,0,8,,,,,0,,,71,100
61696,note_off,,,,,0,0,9,,,,,1,,,81,100
61696,note_off,,,,,256,0,10,,,,,2,,,73,100
61696,note_off,,,,,256,0,13,,,,,5,,,64,100
61696,note_off,,,,,256,0,11,,,,,3,,,45,100
61696,note_off,,,,,256,0,14,,,,,5,,,45,100
61696,note_off,,,,,256,0,12,,,,,4,,,33,100
61696,note_off,,,,,0,0,13,,,,,5,,,61,100
61696,note_off,,,,,256,0,9,,,,,1,,,76,100
61728,note_on,,,,,32,0,8,,,,,0,,,73,100
61792,note_off,,,,,64,0,8,,,,,0,,,73,100
61824,note_on,,,,,32,0,8,,,,,0,,,74,100
61888,note_off,,,,,64,0,8,,,,,0,,,74,100
61920,note_on,,,,,32,0,8,,,,,0,,,76,100
61984,note_off,,,,,64,0,8,,,,,0,,,76,100
62016,note_on,,,,,32,0,8,,,,,0,,,78,100
62080,note_off,,,,,64,0,8,,,,,0,,,78,100
62112,note_on,,,,,32,0,8,,,,,0,,,79,100
62176,note_off,,,,,64,0,8,,,,,0,,,79,100
62208,note_on,,,,,0,0,13,,,,,5,,,61,100
62208,note_on,,,,,512,0,14,,,,,5,,,45,100
62208,note_on,,,,,512,0,13,,,,,5,,,64,100
62208,note_on,,,,,512,0,12,,,,,4,,,33,85
62208,note_on,,,,,512,0,11,,,,,3,,,45,85
62208,note_on,,,,,512,0,9,,,,,1,,,76,85
62208,note_on,,,,,32,0,8,,,,,0,,,81,100
62208,note_on,,,,,0,0,9,,,,,1,,,81,85
62208,note_on,,,,,512,0,10,,,,,2,,,73,85
62272,note_off,,,,,64,0,8,,,,,0,,,81,100
62304,note_on,,,,,32,0,8,,,,,0,,,69,100
62368,note_off,,,,,64,0,8,,,,,0,,,69,100
62400,note_on,,,,,32,0,8,,,,,0,,,71,100
62464,note_off,,,,,256,0,9,,,,,1,,,76,100
62464,note_off,,,,,256,0,13,,,,,5,,,64,100
62464,note_off,,,,,0,0,9,,,,,1,,,81,100
62464,note_off,,,,,0,0,13,,,,,5,,,61,100
62464,note_off,,,,,256,0,10,,,,,2,,,73,100
62464,note_off,,,,,64,0,8,,,,,0,,,71,100
62464,note_off,,,,,256,0,14,,,,,5,,,45,100
62464,note_off,,,,,256,0,11,,,,,3,,,45,100
62464,note_off,,,,,256,0,12,,,,,4,,,33,100
62496,note_on,,,,,32,0,8,,,,,0,,,73,100
62560,note_off,,,,,64,0,8,,,,,0,,,73,100
62592,note_on,,,,,32,0,8,,,,,0,,,74,100
62656,note_off,,,,,64,0,8,,,,,0,,,74,100
62688,note_on,,,,,32,0,8,,,,,0,,,76,100
62752,note_off,,,,,64,0,8,,,,,0,,,76,100
62784,note_on,,,,,32,0,8,,,,,0,,,78,100
62848,note_off,,,,,64,0,8,,,,,0,,,78,100
62880,note_on,,,,,32,0,8,,,,,0,,,79,100
62944,note_off,,,,,64,0,8,,,,,0,,,79,100
62976,note_on,,,,,512,0,12,,,,,4,,,33,85
62976,note_on,,,,,512,0,9,,,,,1,,,76,85
62976,note_on,,,,,0,0,9,,,,,1,,,81,85
62976,note_on,,,,,32,0,8,,,,,0,,,81,100
62976,note_on,,,,,0,0,13,,,,,5,,,61,100
62976,note_on,,,,,512,0,14,,,,,5,,,45,100
62976,note_on,,,,,512,0,10,,,,,2,,,73,85
62976,note_on,,,,,512,0,11,,,,,3,,,45,85
62976,note_on,,,,,512,0,13,,,,,5,,,64,100
63040,note_off,,,,,64,0,8,,,,,0,,,81,100
63072,note_on,,,,,32,0,8,,,,,0,,,69,100
63136,note_off,,,,,64,0,8,,,,,0,,,69,100
63168,note_on,,,,,32,0,8,,,,,0,,,71,100
63232,note_off,,,,,64,0,8,,,,,0,,,71,100
63232,note_off,,,,,256,0,11,,,,,3,,,45,100
63232,note_off,,,,,256,0,9,,,,,1,,,76,100
63232,note_off,,,,,256,0,14,,,,,5,,,45,100
63232,note_off,,,,,0,0,13,,,,,5,,,61,100
63232,note_off,,,,,256,0,13,,,,,5,,,64,100
63232,note_off,,,,,256,0,12,,,,,4,,,33,100
63232,note_off,,,,,256,0,10,,,,,2,,,73,100
63232,note_off,,,,,0,0,9,,,,,1,,,81,100
63264,note_on,,,,,32,0,8,,,,,0,,,73,100
63328,note_off,,,,,64,0,8,,,,,0,,,73,100
63360,note_on,,,,,32,0,8,,,,,0,,,74,100
63424,note_off,,,,,64,0,8,,,,,0,,,74,100
63456,note_on,,,,,32,0,8,,,,,0,,,76,100
63520,note_off,,,,,64,0,8,,,,,0,,,76,100
63552,note_on,,,,,32,0,8,,,,,0,,,78,100
63616,note_off,,,,,64,0,8,,,,,0,,,78,100
63648,note_on,,,,,32,0,8,,,,,0,,,79,100
63712,note_off,,,,,64,0,8,,,,,0,,,79,100
63744,note_on,,,,,32,0,8,,,,,0,,,81,100
63744,note_on,,,,,512,0,14,,,,,5,,,45,100
63744,note_on,,,,,512,0,11,,,,,3,,,45,85
63744,note_on,,,,,512,0,12,,,,,4,,,33,85
63744,note_on,,,,,512,0,10,,,,,2,,,73,85
63744,note_on,,,,,0,0,9,,,,,1,,,81,85
63744,note_on,,,,,512,0,9,,,,,1,,,76,85
63744,note_on,,,,,512,0,13,,,,,5,,,64,100
63744,note_on,,,,,0,0,13,,,,,5,,,61,100
63808,note_off,,,,,64,0,8,,,,,0,,,81,100
63840,note_on,,,,,32,0,8,,,,,0,,,69,100
63904,note_off,,,,,64,0,8,,,,,0,,,69,100
63936,note_on,,,,,32,0,8,,,,,0,,,73,100
64000,note_off,,,,,0,0,13,,,,,5,,,61,100
64000,note_off,,,,,256,0,9,,,,,1,,,76,100
64000,note_off,,,,,0,0,9,,,,,1,,,81,100
64000,note_off,,,,,256,0,10,,,,,2,,,73,100
64000,note_off,,,,,256,0,11,,,,,3,,,45,100
64000,note_off,,,,,256,0,14,,,,,5,,,45,100
64000,note_off,,,,,256,0,13,,,,,5,,,64,100
64000,note_off,,,,,64,0,8,,,,,0,,,73,100
64000,note_off,,,,,256,0,12,,,,,4,,,33,100
64032,note_on,,,,,32,0,8,,,,,0,,,76,100
64096,note_off,,,,,64,0,8,,,,,0,,,76,100
64128,note_on,,,,,32,0,8,,,,,0,,,81,100
64192,note_off,,,,,64,0,8,,,,,0,,,81,100
64224,note_on,,,,,32,0,8,,,,,0,,,79,100
64288,note_off,,,,,64,0,8,,,,,0,,,79,100
64320,note_on,,,,,32,0,8,,,,,0,,,78,100
64384,note_off,,,,,64,0,8,,,,,0,,,78,100
64416,note_on,,,,,32,0,8,,,,,0,,,76,100
64480,note_off,,,,,64,0,8,,,,,0,,,76,100
64508,program_change,,,,,508,0,9,,,,,1,40,,,
64508,program_change,,,,,28,0,8,,,,,0,48,,,
64512,note_on,,,,,512,0,14,,,,,5,,,50,100
64512,note_on,,,,,4,0,8,,,,,0,,,74,85
64512,note_on,,,,,512,0,13,,,,,5,,,69,100
64512,note_on,,,,,0,0,13,,,,,5,,,66,100
64512,note_on,,,,,4,0,9,,,,,1,,,74,100
64512,note_on,,,,,512,0,10,,,,,2,,,69,85
64512,note_on,,,,,512,0,11,,,,,3,,,50,85
64512,note_on,,,,,512,0,12,,,,,4,,,38,85
64512,note_on,,,,,0,0,8,,,,,0,,,78,85
64576,note_off,,,,,64,0,9,,,,,1,,,74,100
64608,note_on,,,,,32,0,9,,,,,1,,,62,100
64672,note_off,,,,,64,0,9,,,,,1,,,62,100
64704,note_on,,,,,32,0,9,,,,,1,,,64,100
64768,note_off,,,,,64,0,9,,,,,1,,,64,100
64768,note_off,,,,,0,0,8,,,,,0,,,78,100
64768,note_off,,,,,256,0,8,,,,,0,,,74,100
64768,note_off,,,,,256,0,12,,,,,4,,,38,100
64768,note_off,,,,,256,0,11,,,,,3,,,50,100
64768,note_off,,,,,256,0,10,,,,,2,,,69,100
64768,note_off,,,,,0,0,13,,,,,5,,,66,100
64768,note_off,,,,,256,0,14,,,,,5,,,50,100
64768,note_off,,,,,256,0,13,,,,,5,,,69,100
64800,note_on,,,,,32,0,9,,,,,1,,,66,100
64864,note_off,,,,,64,0,9,,,,,1,,,66,100
64896,note_on,,,,,32,0,9,,,,,1,,,67,100
64960,note_off,,,,,64,0,9,,,,,1,,,67,100
64992,note_on,,,,,32,0,9,,,,,1,,,69,100
65056,note_off,,,,,64,0,9,,,,,1,,,69,100
65088,note_on,,,,,32,0,9,,,,,1,,,71,100
65152,note_off,,,,,64,0,9,,,,,1,,,71,100
65184,note_on,,,,,32,0,9,,,,,1,,,72,100
65248,note_off,,,,,64,0,9,,,,,1,,,72,100
65280,note_on,,,,,32,0,9,,,,,1,,,74,100
65280,note_on,,,,,0,0,8,,,,,0,,,78,85
65280,note_on,,,,,0,0,13,,,,,5,,,66,100
65280,note_on,,,,,512,0,13,,,,,5,,,69,100
65280,note_on,,,,,512,0,8,,,,,0,,,74,85
65280,note_on,,,,,512,0,14,,,,,5,,,50,100
65280,note_on,,,,,512,0,10,,,,,2,,,69,85
65280,note_on,,,,,512,0,11,,,,,3,,,50,85
65280,note_on,,,,,512,0,12,,,,,4,,,38,85
65344,note_off,,,,,64,0,9,,,,,1,,,74,100
65376,note_on,,,,,32,0,9,,,,,1,,,62,100
65440,note_off,,,,,64,0,9,,,,,1,,,62,100
65472,note_on,,,,,32,0,9,,,,,1,,,64,100
65536,note_off,,,,,256,0,11,,,,,3,,,50,100
65536,note_off,,,,,256,0,12,,,,,4,,,38,100
65536,note_off,,,,,256,0,13,,,,,5,,,69,100
65536,note_off,,,,,0,0,13,,,,,5,,,66,100
65536,note_off,,,,,256,0,14,,,,,5,,,50,100
65536,note_off,,,,,256,0,10,,,,,2,,,69,100
65536,note_off,,,,,256,0,8,,,,,0,,,74,100
65536,note_off,,,,,64,0,9,,,,,1,,,64,100
65536,note_off,,,,,0,0,8,,,,,0,,,78,100
65568,note_on,,,,,32,0,9,,,,,1,,,66,100
65632,note_off,,,,,64,0,9,,,,,1,,,66,100
65664,note_on,,,,,32,0,9,,,,,1,,,67,100
65728,note_off,,,,,64,0,9,,,,,1,,,67,100
65760,note_on,,,,,32,0,9,,,,,1,,,69,100
65824,note_off,,,,,64,0,9,,,,,1,,,69,100
65856,note_on,,,,,32,0,9,,,,,1,,,71,100
65920,note_off,,,,,64,0,9,,,,,1,,,71,100
65952,note_on,,,,,32,0,9,,,,,1,,,72,100
66016,note_off,,,,,64,0,9,,,,,1,,,72,100
66048,note_on,,,,,0,0,8,,,,,0,,,78,85
66048,note_on,,,,,512,0,10,,,,,2,,,69,85
66048,note_on,,,,,0,0,13,,,,,5,,,69,100
66048,note_on,,,,,32,0,9,,,,,1,,,74,100
66048,note_on,,,,,512,0,14,,,,,5,,,50,100
66048,note_on,,,,,512,0,13,,,,,5,,,66,100
66048,note_on,,,,,512,0,8,,,,,0,,,74,85
66048,note_on,,,,,512,0,12,,,,,4,,,38,85
66048,note_on,,,,,512,0,11,,,,,3,,,50,85
66112,note_off,,,,,64,0,9,,,,,1,,,74,100
66144,note_on,,,,,32,0,9,,,,,1,,,62,100
66208,note_off,,,,,64,0,9,,,,,1,,,62,100
66240,note_on,,,,,32,0,9,,,,,1,,,64,100
66304,note_off,,,,,256,0,11,,,,,3,,,50,100
66304,note_off,,,,,64,0,9,,,,,1,,,64,100
66304,note_off,,,,,256,0,10,,,,,2,,,69,100
66304,note_off,,,,,256,0,13,,,,,5,,,66,100
66304,note_off,,,,,256,0,12,,,,,4,,,38,100
66304,note_off,,,,,0,0,13,,,,,5,,,69,100
66304,note_off,,,,,256,0,14,,,,,5,,,50,100
66304,note_off,,,,,0,0,8,,,,,0,,,78,100
66304,note_off,,,,,256,0,8,,,,,0,,,74,100
66336,note_on,,,,,32,0,9,,,,,1,,,66,100
66400,note_off,,,,,64,0,9,,,,,1,,,66,100
66432,note_on,,,,,32,0,9,,,,,1,,,67,100
66496,note_off,,,,,64,0,9,,,,,1,,,67,100
66528,note_on,,,,,32,0,9,,,,,1,,,69,100
66592,note_off,,,,,64,0,9,,,,,1,,,69,100
66624,note_on,,,,,32,0,9,,,,,1,,,71,100
66688,note_off,,,,,64,0,9,,,,,1,,,71,100
66720,note_on,,,,,32,0,9,,,,,1,,,72,100
66784,note_off,,,,,64,0,9,,,,,1,,,72,100
66816,note_on,,,,,512,0,11,,,,,3,,,50,85
66816,note_on,,,,,512,0,13,,,,,5,,,66,100
66816,note_on,,,,,0,0,13,,,,,5,,,69,100
66816,note_on,,,,,512,0,12,,,,,4,,,38,85
66816,note_on,,,,,512,0,8,,,,,0,,,74,85
66816,note_on,,,,,0,0,8,,,,,0,,,78,85
66816,note_on,,,,,512,0,14,,,,,5,,,50,100
66816,note_on,,,,,32,0,9,,,,,1,,,74,100
66816,note_on,,,,,512,0,10,,,,,2,,,69,85
66880,note_off,,,,,64,0,9,,,,,1,,,74,100
66912,note_on,,,,,32,0,9,,,,,1,,,62,100
66976,note_off,,,,,64,0,9,,,,,1,,,62,100
67008,note_on,,,,,32,0,9,,,,,1,,,66,100
67072,note_off,,,,,256,0,8,,,,,0,,,74,100
67072,note_off,,,,,256,0,13,,,,,5,,,66,100
67072,note_off,,,,,0,0,13,,,,,5,,,69,100
67072,note_off,,,,,0,0,8,,,,,0,,,78,100
67072,note_off,,,,,256,0,14,,,,,5,,,50,100
67072,note_off,,,,,256,0,12,,,,,4,,,38,100
67072,note_off,,,,,256,0,10,,,,,2,,,69,100
67072,note_off,,,,,256,0,11,,,,,3,,,50,100
67072,note_off,,,,,64,0,9,,,,,1,,,66,100
67104,note_on,,,,,32,0,9,,,,,1,,,69,100
67168,note_off,,,,,64,0,9,,,,,1,,,69,100
67200,note_on,,,,,32,0,9,,,,,1,,,74,100
67264,note_off,,,,,64,0,9,,,,,1,,,74,100
67296,note_on,,,,,32,0,9,,,,,1,,,72,100
67360,note_off,,,,,64,0,9,,,,,1,,,72,100
67392,note_on,,,,,32,0,9,,,,,1,,,71,100
67456,note_off,,,,,64,0,9,,,,,1,,,71,100
67488,note_on,,,,,32,0,9,,,,,1,,,69,100
67552,note_off,,,,,64,0,9,,,,,1,,,69,100
67580,program_change,,,,,28,0,9,,,,,1,48,,,
67580,program_change,,,,,508,0,8,,,,,0,40,,,
67584,note_on,,,,,4,0,9,,,,,1,,,79,85
67584,note_on,,,,,0,0,9,,,,,1,,,74,85
67584,note_on,,,,,4,0,8,,,,,0,,,79,90
67584,note_on,,,,,512,0,12,,,,,4,,,43,85
67584,note_on,,,,,512,0,10,,,,,2,,,71,85
67584,note_on,,,,,512,0,13,,,,,5,,,71,100
67584,note_on,,,,,0,0,13,,,,,5,,,62,100
67584,note_on,,,,,512,0,11,,,,,3,,,43,85
67584,note_on,,,,,512,0,14,,,,,5,,,43,100
67648,note_off,,,,,64,0,8,,,,,0,,,79,100
67680,note_on,,,,,32,0,8,,,,,0,,,67,85
67744,note_off,,,,,64,0,8,,,,,0,,,67,100
67776,note_on,,,,,32,0,8,,,,,0,,,69,85
67840,note_off,,,,,256,0,14,,,,,5,,,43,100
67840,note_off,,,,,256,0,10,,,,,2,,,71,100
67840,note_off,,,,,256,0,11,,,,,3,,,43,100
67840,note_off,,,,,64,0,8,,,,,0,,,69,100
67840,note_off,,,,,256,0,9,,,,,1,,,79,100
67840,note_off,,,,,0,0,9,,,,,1,,,74,100
67840,note_off,,,,,256,0,12,,,,,4,,,43,100
67840,note_off,,,,,0,0,13,,,,,5,,,62,100
67840,note_off,,,,,256,0,13,,,,,5,,,71,100
67872,note_on,,,,,32,0,8,,,,,0,,,71,86
67936,note_off,,,,,64,0,8,,,,,0,,,71,100
67968,note_on,,,,,32,0,8,,,,,0,,,72,87
68032,note_off,,,,,64,0,8,,,,,0,,,72,100
68064,note_on,,,,,32,0,8,,,,,0,,,74,88
68128,note_off,,,,,64,0,8,,,,,0,,,74,100
68160,note_on,,,,,32,0,8,,,,,0,,,76,89
68224,note_off,,,,,64,0,8,,,,,0,,,76,100
68256,note_on,,,,,32,0,8,,,,,0,,,78,90
68320,note_off,,,,,64,0,8,,,,,0,,,78,100
68352,note_on,,,,,512,0,14,,,,,5,,,47,100
68352,note_on,,,,,32,0,8,,,,,0,,,79,91
68352,note_on,,,,,0,0,13,,,,,5,,,67,100
68352,note_on,,,,,512,0,12,,,,,4,,,47,75
68352,note_on,,,,,512,0,13,,,,,5,,,62,100
68352,note_on,,,,,512,0,11,,,,,3,,,47,75
68416,note_off,,,,,64,0,8,,,,,0,,,79,100
68448,note_on,,,,,32,0,8,,,,,0,,,67,92
68480,note_off,,,,,128,0,13,,,,,5,,,62,100
68480,note_off,,,,,0,0,13,,,,,5,,,67,100
68480,note_off,,,,,128,0,12,,,,,4,,,47,100
68480,note_off,,,,,128,0,11,,,,,3,,,47,100
68480,note_off,,,,,128,0,14,,,,,5,,,47,100
68512,note_off,,,,,64,0,8,,,,,0,,,67,100
68544,note_on,,,,,32,0,8,,,,,0,,,71,93
68544,note_on,,,,,0,0,13,,,,,5,,,66,100
68544,note_on,,,,,64,0,13,,,,,5,,,62,100
68544,note_on,,,,,64,0,11,,,,,3,,,45,75
68544,note_on,,,,,64,0,12,,,,,4,,,45,75
68544,note_on,,,,,64,0,14,,,,,5,,,45,100
68608,note_off,,,,,64,0,8,,,,,0,,,71,100
68640,note_on,,,,,32,0,8,,,,,0,,,74,94
68672,note_off,,,,,0,0,13,,,,,5,,,66,100
68672,note_off,,,,,128,0,13,,,,,5,,,62,100
68672,note_off,,,,,128,0,11,,,,,3,,,45,100
68672,note_off,,,,,128,0,14,,,,,5,,,45,100
68672,note_off,,,,,128,0,12,,,,,4,,,45,100
68704,note_off,,,,,64,0,8,,,,,0,,,74,100
68736,note_on,,,,,64,0,14,,,,,5,,,47,100
68736,note_on,,,,,64,0,13,,,,,5,,,62,100
68736,note_on,,,,,32,0,8,,,,,0,,,79,95
68736,note_on,,,,,64,0,12,,,,,4,,,47,75
68736,note_on,,,,,0,0,13,,,,,5,,,67,100
68736,note_on,,,,,64,0,11,,,,,3,,,47,75
68800,note_off,,,,,64,0,8,,,,,0,,,79,100
68832,note_on,,,,,32,0,8,,,,,0,,,78,94
68864,note_off,,,,,128,0,13,,,,,5,,,62,100
68864,note_off,,,,,0,0,13,,,,,5,,,67,100
68864,note_off,,,,,128,0,14,,,,,5,,,47,100
68864,note_off,,,,,128,0,11,,,,,3,,,47,100
68864,note_off,,,,,128,0,12,,,,,4,,,47,100
68896,note_off,,,,,64,0,8,,,,,0,,,78,100
68928,note_on,,,,,0,0,13,,,,,5,,,62,100
68928,note_on,,,,,64,0,13,,,,,5,,,59,100
68928,note_on,,,,,64,0,11,,,,,3,,,43,75
68928,note_on,,,,,64,0,14,,,,,5,,,43,100
68928,note_on,,,,,32,0,8,,,,,0,,,76,93
68928,note_on,,,,,64,0,12,,,,,4,,,43,75
68992,note_off,,,,,64,0,8,,,,,0,,,76,100
69024,note_on,,,,,32,0,8,,,,,0,,,74,92
69056,note_off,,,,,0,0,13,,,,,5,,,62,100
69056,note_off,,,,,128,0,11,,,,,3,,,43,100
69056,note_off,,,,,128,0,12,,,,,4,,,43,100
69056,note_off,,,,,128,0,13,,,,,5,,,59,100
69056,note_off,,,,,128,0,14,,,,,5,,,43,100
69088,note_off,,,,,64,0,8,,,,,0,,,74,100
69120,note_on,,,,,64,0,14,,,,,5,,,48,100
69120,note_on,,,,,32,0,8,,,,,0,,,76,91
69120,note_on,,,,,64,0,11,,,,,3,,,48,75
69120,note_on,,,,,64,0,13,,,,,5,,,64,100
69120,note_on,,,,,0,0,13,,,,,5,,,67,100
69120,note_on,,,,,64,0,12,,,,,4,,,36,75
69184,note_off,,,,,64,0,8,,,,,0,,,76,100
69216,note_on,,,,,32,0,8,,,,,0,,,69,90
69280,note_off,,,,,64,0,8,,,,,0,,,69,100
69312,note_on,,,,,32,0,8,,,,,0,,,71,90
69376,note_off,,,,,256,0,11,,,,,3,,,48,100
69376,note_off,,,,,0,0,13,,,,,5,,,67,100
69376,note_off,,,,,256,0,14,,,,,5,,,48,100
69376,note_off,,,,,256,0,13,,,,,5,,,64,100
69376,note_off,,,,,256,0,12,,,,,4,,,36,100
69376,note_off,,,,,64,0,8,,,,,0,,,71,100
69408,note_on,,,,,32,0,8,,,,,0,,,72,91
69472,note_off,,,,,64,0,8,,,,,0,,,72,100
69504,note_on,,,,,32,0,8,,,,,0,,,74,92
69568,note_off,,,,,64,0,8,,,,,0,,,74,100
69600,note_on,,,,,32,0,8,,,,,0,,,76,93
69664,note_off,,,,,64,0,8,,,,,0,,,76,100
69696,note_on,,,,,32,0,8,,,,,0,,,78,94
69760,note_off,,,,,64,0,8,,,,,0,,,78,100
69792,note_on,,,,,32,0,8,,,,,0,,,79,95
69856,note_off,,,,,64,0,8,,,,,0,,,79,100
69888,note_on,,,,,512,0,14,,,,,5,,,49,100
69888,note_on,,,,,512,0,13,,,,,5,,,64,100
69888,note_on,,,,,32,0,8,,,,,0,,,81,96
69888,note_on,,,,,512,0,11,,,,,3,,,49,80
69888,note_on,,,,,0,0,13,,,,,5,,,69,100
69888,note_on,,,,,512,0,12,,,,,4,,,37,80
69952,note_off,,,,,64,0,8,,,,,0,,,81,100
69984,note_on,,,,,32,0,8,,,,,0,,,69,97
70016,note_off,,,,,0,0,13,,,,,5,,,69,100
70016,note_off,,,,,128,0,13,,,,,5,,,64,100
70016,note_off,,,,,128,0,11,,,,,3,,,49,100
70016,note_off,,,,,128,0,14,,,,,5,,,49,100
70016,note_off,,,,,128,0,12,,,,,4,,,37,100
70048,note_off,,,,,64,0,8,,,,,0,,,69,100
70080,note_on,,,,,64,0,14,,,,,5,,,47,100
70080,note_on,,,,,32,0,8,,,,,0,,,73,98
70080,note_on,,,,,64,0,11,,,,,3,,,47,80
70080,note_on,,,,,0,0,13,,,,,5,,,67,100
70080,note_on,,,,,64,0,13,,,,,5,,,64,100
70080,note_on,,,,,64,0,12,,,,,4,,,35,80
70144,note_off,,,,,64,0,8,,,,,0,,,73,100
70176,note_on,,,,,32,0,8,,,,,0,,,76,99
70208,note_off,,,,,0,0,13,,,,,5,,,67,100
70208,note_off,,,,,128,0,11,,,,,3,,,47,100
70208,note_off,,,,,128,0,12,,,,,4,,,35,100
70208,note_off,,,,,128,0,13,,,,,5,,,64,100
70208,note_off,,,,,128,0,14,,,,,5,,,47,100
70240,note_off,,,,,64,0,8,,,,,0,,,76,100
70272,note_on,,,,,64,0,13,,,,,5,,,64,100
70272,note_on,,,,,64,0,14,,,,,5,,,49,100
70272,note_on,,,,,64,0,11,,,,,3,,,49,80
70272,note_on,,,,,64,0,12,,,,,4,,,37,80
70272,note_on,,,,,32,0,8,,,,,0,,,81,100
70272,note_on,,,,,0,0,13,,,,,5,,,69,100
70336,note_off,,,,,64,0,8,,,,,0,,,81,100
70368,note_on,,,,,32,0,8,,,,,0,,,79,98
70400,note_off,,,,,128,0,13,,,,,5,,,64,100
70400,note_off,,,,,128,0,12,,,,,4,,,37,100
70400,note_off,,,,,0,0,13,,,,,5,,,69,100
70400,note_off,,,,,128,0,11,,,,,3,,,49,100
70400,note_off,,,,,128,0,14,,,,,5,,,49,100
70432,note_off,,,,,64,0,8,,,,,0,,,79,100
70464,note_on,,,,,32,0,8,,,,,0,,,78,96
70464,note_on,,,,,64,0,14,,,,,5,,,45,100
70464,note_on,,,,,0,0,13,,,,,5,,,64,100
70464,note_on,,,,,64,0,11,,,,,3,,,45,80
70464,note_on,,,,,64,0,13,,,,,5,,,61,100
70464,note_on,,,,,64,0,12,,,,,4,,,33,80
70528,note_off,,,,,64,0,8,,,,,0,,,78,100
70560,note_on,,,,,32,0,8,,,,,0,,,76,93
70592,note_off,,,,,0,0,13,,,,,5,,,64,100
70592,note_off,,,,,128,0,13,,,,,5,,,61,100
70592,note_off,,,,,128,0,12,,,,,4,,,33,100
70592,note_off,,,,,128,0,14,,,,,5,,,45,100
70592,note_off,,,,,128,0,11,,,,,3,,,45,100
70624,note_off,,,,,64,0,8,,,,,0,,,76,100
70656,note_on,,,,,64,0,12,,,,,4,,,38,80
70656,note_on,,,,,32,0,8,,,,,0,,,78,91
70656,note_on,,,,,64,0,11,,,,,3,,,50,80
70656,note_on,,,,,64,0,13,,,,,5,,,66,100
70656,note_on,,,,,0,0,13,,,,,5,,,69,100
70656,note_on,,,,,64,0,14,,,,,5,,,50,100
70720,note_off,,,,,64,0,8,,,,,0,,,78,100
70752,note_on,,,,,32,0,8,,,,,0,,,71,90
70816,note_off,,,,,64,0,8,,,,,0,,,71,100
70848,note_on,,,,,32,0,8,,,,,0,,,73,91
70912,note_off,,,,,256,0,13,,,,,5,,,66,100
70912,note_off,,,,,0,0,13,,,,,5,,,69,100
70912,note_off,,,,,256,0,14,,,,,5,,,50,100
70912,note_off,,,,,256,0,11,,,,,3,,,50,100
70912,note_off,,,,,256,0,12,,,,,4,,,38,100
70912,note_off,,,,,64,0,8,,,,,0,,,73,100
70944,note_on,,,,,32,0,8,,,,,0,,,74,92
71008,note_off,,,,,64,0,8,,,,,0,,,74,100
71040,note_on,,,,,32,0,8,,,,,0,,,76,94
71104,note_off,,,,,64,0,8,,,,,0,,,76,100
71136,note_on,,,,,32,0,8,,,,,0,,,78,95
71200,note_off,,,,,64,0,8,,,,,0,,,78,100
71232,note_on,,,,,32,0,8,,,,,0,,,79,96
71296,note_off,,,,,64,0,8,,,,,0,,,79,100
71328,note_on,,,,,32,0,8,,,,,0,,,81,98
71392,note_off,,,,,64,0,8,,,,,0,,,81,100
71424,note_on,,,,,512,0,11,,,,,3,,,51,85
71424,note_on,,,,,512,0,14,,,,,5,,,51,100
71424,note_on,,,,,0,0,13,,,,,5,,,71,100
71424,note_on,,,,,512,0,13,,,,,5,,,66,100
71424,note_on,,,,,512,0,12,,,,,4,,,39,85
71424,note_on,,,,,32,0,8,,,,,0,,,83,99
71488,note_off,,,,,64,0,8,,,,,0,,,83,100
71520,note_on,,,,,32,0,8,,,,,0,,,71,100
71552,note_off,,,,,128,0,13,,,,,5,,,66,100
71552,note_off,,,,,128,0,14,,,,,5,,,51,100
71552,note_off,,,,,128,0,12,,,,,4,,,39,100
71552,note_off,,,,,0,0,13,,,,,5,,,71,100
71552,note_off,,,,,128,0,11,,,,,3,,,51,100
71584,note_off,,,,,64,0,8,,,,,0,,,71,100
71616,note_on,,,,,0,0,13,,,,,5,,,66,100
71616,note_on,,,,,64,0,12,,,,,4,,,37,85
71616,note_on,,,,,32,0,8,,,,,0,,,75,102
71616,note_on,,,,,64,0,14,,,,,5,,,49,100
71616,note_on,,,,,64,0,13,,,,,5,,,69,100
71616,note_on,,,,,64,0,11,,,,,3,,,49,85
71680,note_off,,,,,64,0,8,,,,,0,,,75,100
71712,note_on,,,,,32,0,8,,,,,0,,,78,103
71744,note_off,,,,,128,0,11,,,,,3,,,49,100
71744,note_off,,,,,128,0,14,,,,,5,,,49,100
71744,note_off,,,,,0,0,13,,,,,5,,,66,100
71744,note_off,,,,,128,0,13,,,,,5,,,69,100
71744,note_off,,,,,128,0,12,,,,,4,,,37,100
71776,note_off,,,,,64,0,8,,,,,0,,,78,100
71808,note_on,,,,,64,0,11,,,,,3,,,51,85
71808,note_on,,,,,64,0,13,,,,,5,,,66,100
71808,note_on,,,,,0,0,13,,,,,5,,,71,100
71808,note_on,,,,,64,0,12,,,,,4,,,39,85
71808,note_on,,,,,32,0,8,,,,,0,,,83,105
71808,note_on,,,,,64,0,14,,,,,5,,,51,100
71872,note_off,,,,,64,0,8,,,,,0,,,83,100
71904,note_on,,,,,32,0,8,,,,,0,,,81,101
71936,note_off,,,,,128,0,13,,,,,5,,,66,100
71936,note_off,,,,,128,0,11,,,,,3,,,51,100
71936,note_off,,,,,128,0,12,,,,,4,,,39,100
71936,note_off,,,,,0,0,13,,,,,5,,,71,100
71936,note_off,,,,,128,0,14,,,,,5,,,51,100
71968,note_off,,,,,64,0,8,,,,,0,,,81,100
72000,note_on,,,,,64,0,14,,,,,5,,,47,100
72000,note_on,,,,,64,0,11,,,,,3,,,47,85
72000,note_on,,,,,64,0,13,,,,,5,,,63,100
72000,note_on,,,,,32,0,8,,,,,0,,,79,96
72000,note_on,,,,,64,0,12,,,,,4,,,35,85
72000,note_on,,,,,0,0,13,,,,,5,,,66,100
72064,note_off,,,,,64,0,8,,,,,0,,,79,100
72096,note_on,,,,,32,0,8,,,,,0,,,78,91
72128,note_off,,,,,128,0,12,,,,,4,,,35,100
72128,note_off,,,,,0,0,13,,,,,5,,,66,100
72128,note_off,,,,,128,0,13,,,,,5,,,63,100
72128,note_off,,,,,128,0,14,,,,,5,,,47,100
72128,note_off,,,,,128,0,11,,,,,3,,,47,100
72160,note_off,,,,,64,0,8,,,,,0,,,78,100
72188,program_change,,,,,28,0,8,,,,,0,48,,,
72192,note_on,,,,,64,0,12,,,,,4,,,40,85
72192,note_on,,,,,4,0,8,,,,,0,,,79,86
72192,note_on,,,,,0,0,13,,,,,5,,,67,100
72192,note_on,,,,,64,0,13,,,,,5,,,59,100
72192,note_on,,,,,64,0,14,,,,,5,,,52,100
72192,note_on,,,,,64,0,11,,,,,3,,,52,85
72192,note_on,,,,,4352,0,10,,,,,2,,,67,85
72192,note_on,,,,,4352,0,9,,,,,1,,,79,85
72192,note_on,,,,,0,0,8,,,,,0,,,83,86
72320,note_off,,,,,128,0,9,,,,,1,,,79,100
72320,note_off,,,,,128,0,13,,,,,5,,,59,100
72320,note_off,,,,,0,0,13,,,,,5,,,67,100
72320,note_off,,,,,128,0,8,,,,,0,,,79,100
72320,note_off,,,,,0,0,8,,,,,0,,,83,100
72320,note_off,,,,,128,0,10,,,,,2,,,67,100
72320,note_off,,,,,128,0,12,,,,,4,,,40,100
72320,note_off,,,,,128,0,11,,,,,3,,,52,100
72320,note_off,,,,,128,0,14,,,,,5,,,52,100
72384,note_on,,,,,64,0,13,,,,,5,,,71,100
72384,note_on,,,,,64,0,11,,,,,3,,,64,85
72384,note_on,,,,,0,0,13,,,,,5,,,67,100
72384,note_on,,,,,64,0,12,,,,,4,,,52,85
72384,note_on,,,,,64,0,8,,,,,0,,,83,85
72384,note_on,,,,,64,0,14,,,,,5,,,64,100
72384,note_on,,,,,64,0,9,,,,,1,,,79,85
72384,note_on,,,,,64,0,10,,,,,2,,,67,85
72512,note_off,,,,,128,0,11,,,,,3,,,64,100
72512,note_off,,,,,128,0,13,,,,,5,,,71,100
72512,note_off,,,,,0,0,13,,,,,5,,,67,100
72512,note_off,,,,,128,0,8,,,,,0,,,83,100
72512,note_off,,,,,128,0,14,,,,,5,,,64,100
72512,note_off,,,,,128,0,9,,,,,1,,,79,100
72512,note_off,,,,,128,0,10,,,,,2,,,67,100
72512,note_off,,,,,128,0,12,,,,,4,,,52,100
72576,note_on,,,,,0,0,13,,,,,5,,,67,100
72576,note_on,,,,,64,0,10,,,,,2,,,67,85
72576,note_on,,,,,64,0,13,,,,,5,,,71,100
72576,note_on,,,,,64,0,8,,,,,0,,,83,85
72576,note_on,,,,,64,0,9,,,,,1,,,79,85
72576,note_on,,,,,64,0,14,,,,,5,,,64,100
72576,note_on,,,,,64,0,11,,,,,3,,,64,85
72576,note_on,,,,,64,0,12,,,,,4,,,52,85
72704,note_off,,,,,128,0,9,,,,,1,,,79,100
72704,note_off,,,,,128,0,11,,,,,3,,,64,100
72704,note_off,,,,,128,0,8,,,,,0,,,83,100
72704,note_off,,,,,128,0,14,,,,,5,,,64,100
72704,note_off,,,,,0,0,13,,,,,5,,,67,100
72704,note_off,,,,,128,0,13,,,,,5,,,71,100
72704,note_off,,,,,128,0,12,,,,,4,,,52,100
72704,note_off,,,,,128,0,10,,,,,2,,,67,100
72768,note_on,,,,,0,0,13,,,,,5,,,64,100
72768,note_on,,,,,64,0,14,,,,,5,,,57,100
72768,note_on,,,,,64,0,9,,,,,1,,,81,84
72768,note_on,,,,,64,0,12,,,,,4,,,45,84
72768,note_on,,,,,64,0,13,,,,,5,,,60,100
72768,note_on,,,,,64,0,10,,,,,2,,,64,84
72768,note_on,,,,,64,0,8,,,,,0,,,84,84
72768,note_on,,,,,64,0,11,,,,,3,,,57,84
72896,note_off,,,,,128,0,12,,,,,4,,,45,100
72896,note_off,,,,,0,0,13,,,,,5,,,64,100
72896,note_off,,,,,128,0,13,,,,,5,,,60,100
72896,note_off,,,,,128,0,11,,,,,3,,,57,100
72896,note_off,,,,,128,0,10,,,,,2,,,64,100
72896,note_off,,,,,128,0,14,,,,,5,,,57,100
72896,note_off,,,,,128,0,9,,,,,1,,,81,100
72896,note_off,,,,,128,0,8,,,,,0,,,84,100
72960,note_on,,,,,0,0,13,,,,,5,,,69,100
72960,note_on,,,,,64,0,10,,,,,2,,,66,83
72960,note_on,,,,,64,0,8,,,,,0,,,81,83
72960,note_on,,,,,64,0,9,,,,,1,,,78,83
72960,note_on,,,,,64,0,12,,,,,4,,,50,83
72960,note_on,,,,,64,0,13,,,,,5,,,66,100
72960,note_on,,,,,64,0,14,,,,,5,,,62,100
72960,note_on,,,,,64,0,11,,,,,3,,,62,83
73088,note_off,,,,,128,0,12,,,,,4,,,50,100
73088,note_off,,,,,128,0,9,,,,,1,,,78,100
73088,note_off,,,,,128,0,13,,,,,5,,,66,100
73088,note_off,,,,,128,0,11,,,,,3,,,62,100
73088,note_off,,,,,128,0,10,,,,,2,,,66,100
73088,note_off,,,,,128,0,14,,,,,5,,,62,100
73088,note_off,,,,,128,0,8,,,,,0,,,81,100
73088,note_off,,,,,0,0,13,,,,,5,,,69,100
73152,note_on,,,,,64,0,8,,,,,0,,,81,82
73152,note_on,,,,,64,0,12,,,,,4,,,50,82
73152,note_on,,,,,64,0,11,,,,,3,,,62,82
73152,note_on,,,,,0,0,13,,,,,5,,,69,100
73152,note_on,,,,,64,0,13,,,,,5,,,66,100
73152,note_on,,,,,64,0,10,,,,,2,,,66,82
73152,note_on,,,,,64,0,14,,,,,5,,,62,100
73152,note_on,,,,,64,0,9,,,,,1,,,78,82
73280,note_off,,,,,128,0,9,,,,,1,,,78,100
73280,note_off,,,,,128,0,10,,,,,2,,,66,100
73280,note_off,,,,,128,0,12,,,,,4,,,50,100
73280,note_off,,,,,128,0,11,,,,,3,,,62,100
73280,note_off,,,,,128,0,14,,,,,5,,,62,100
73280,note_off,,,,,128,0,8,,,,,0,,,81,100
73280,note_off,,,,,128,0,13,,,,,5,,,66,100
73280,note_off,,,,,0,0,13,,,,,5,,,69,100
73344,note_on,,,,,64,0,11,,,,,3,,,62,81
73344,note_on,,,,,64,0,12,,,,,4,,,50,81
73344,note_on,,,,,64,0,8,,,,,0,,,81,81
73344,note_on,,,,,64,0,14,,,,,5,,,62,100
73344,note_on,,,,,64,0,13,,,,,5,,,66,100
73344,note_on,,,,,0,0,13,,,,,5,,,69,100
73344,note_on,,,,,64,0,9,,,,,1,,,78,81
73344,note_on,,,,,64,0,10,,,,,2,,,66,81
73472,note_off,,,,,0,0,13,,,,,5,,,69,100
73472,note_off,,,,,128,0,13,,,,,5,,,66,100
73472,note_off,,,,,128,0,9,,,,,1,,,78,100
73472,note_off,,,,,128,0,12,,,,,4,,,50,100
73472,note_off,,,,,128,0,14,,,,,5,,,62,100
73472,note_off,,,,,128,0,8,,,,,0,,,81,100
73472,note_off,,,,,128,0,11,,,,,3,,,62,100
73472,note_off,,,,,128,0,10,,,,,2,,,66,100
73536,note_on,,,,,64,0,9,,,,,1,,,79,80
73536,note_on,,,,,64,0,13,,,,,5,,,59,100
73536,note_on,,,,,64,0,12,,,,,4,,,43,80
73536,note_on,,,,,64,0,8,,,,,0,,,83,80
73536,note_on,,,,,64,0,11,,,,,3,,,55,80
73536,note_on,,,,,64,0,14,,,,,5,,,55,100
73536,note_on,,,,,0,0,13,,,,,5,,,62,100
73536,note_on,,,,,64,0,10,,,,,2,,,62,80
73664,note_off,,,,,0,0,13,,,,,5,,,62,100
73664,note_off,,,,,128,0,12,,,,,4,,,43,100
73664,note_off,,,,,128,0,10,,,,,2,,,62,100
73664,note_off,,,,,128,0,9,,,,,1,,,79,100
73664,note_off,,,,,128,0,8,,,,,0,,,83,100
73664,note_off,,,,,128,0,11,,,,,3,,,55,100
73664,note_off,,,,,128,0,13,,,,,5,,,59,100
73664,note_off,,,,,128,0,14,,,,,5,,,55,100
73728,note_on,,,,,0,0,13,,,,,5,,,67,100
73728,note_on,,,,,64,0,9,,,,,1,,,76,79
73728,note_on,,,,,64,0,14,,,,,5,,,60,100
73728,note_on,,,,,64,0,12,,,,,4,,,48,79
73728,note_on,,,,,64,0,11,,,,,3,,,60,79
73728,note_on,,,,,64,0,8,,,,,0,,,79,79
73728,note_on,,,,,64,0,10,,,,,2,,,64,79
73728,note_on,,,,,64,0,13,,,,,5,,,64,100
73856,note_off,,,,,128,0,14,,,,,5,,,60,100
73856,note_off,,,,,128,0,10,,,,,2,,,64,100
73856,note_off,,,,,0,0,13,,,,,5,,,67,100
73856,note_off,,,,,128,0,11,,,,,3,,,60,100
73856,note_off,,,,,128,0,13,,,,,5,,,64,100
73856,note_off,,,,,128,0,12,,,,,4,,,48,100
73856,note_off,,,,,128,0,8,,,,,0,,,79,100
73856,note_off,,,,,128,0,9,,,,,1,,,76,100
73920,note_on,,,,,64,0,11,,,,,3,,,60,78
73920,note_on,,,,,64,0,12,,,,,4,,,48,78
73920,note_on,,,,,64,0,10,,,,,2,,,64,78
73920,note_on,,,,,0,0,13,,,,,5,,,67,100
73920,note_on,,,,,64,0,13,,,,,5,,,64,100
73920,note_on,,,,,64,0,8,,,,,0,,,79,78
73920,note_on,,,,,64,0,9,,,,,1,,,76,78
73920,note_on,,,,,64,0,14,,,,,5,,,60,100
74048,note_off,,,,,128,0,14,,,,,5,,,60,100
74048,note_off,,,,,128,0,13,,,,,5,,,64,100
74048,note_off,,,,,0,0,13,,,,,5,,,67,100
74048,note_off,,,,,128,0,8,,,,,0,,,79,100
74048,note_off,,,,,128,0,10,,,,,2,,,64,100
74048,note_off,,,,,128,0,9,,,,,1,,,76,100
74048,note_off,,,,,128,0,11,,,,,3,,,60,100
74048,note_off,,,,,128,0,12,,,,,4,,,48,100
74112,note_on,,,,,64,0,9,,,,,1,,,76,77
74112,note_on,,,,,64,0,11,,,,,3,,,60,77
74112,note_on,,,,,64,0,8,,,,,0,,,79,77
74112,note_on,,,,,64,0,12,,,,,4,,,48,77
74112,note_on,,,,,0,0,13,,,,,5,,,67,100
74112,note_on,,,,,64,0,13,,,,,5,,,64,100
74112,note_on,,,,,64,0,14,,,,,5,,,60,100
74112,note_on,,,,,64,0,10,,,,,2,,,64,77
74240,note_off,,,,,128,0,12,,,,,4,,,48,100
74240,note_off,,,,,128,0,14,,,,,5,,,60,100
74240,note_off,,,,,128,0,9,,,,,1,,,76,100
74240,note_off,,,,,128,0,10,,,,,2,,,64,100
74240,note_off,,,,,128,0,11,,,,,3,,,60,100
74240,note_off,,,,,128,0,13,,,,,5,,,64,100
74240,note_off,,,,,0,0,13,,,,,5,,,67,100
74240,note_off,,,,,128,0,8,,,,,0,,,79,100
74304,note_on,,,,,64,0,14,,,,,5,,,54,100
74304,note_on,,,,,64,0,9,,,,,1,,,78,76
74304,note_on,,,,,64,0,8,,,,,0,,,81,76
74304,note_on,,,,,0,0,13,,,,,5,,,60,100
74304,note_on,,,,,64,0,10,,,,,2,,,60,76
74304,note_on,,,,,64,0,11,,,,,3,,,54,76
74304,note_on,,,,,64,0,13,,,,,5,,,57,100
74304,note_on,,,,,64,0,12,,,,,4,,,42,76
74432,note_off,,,,,128,0,11,,,,,3,,,54,100
74432,note_off,,,,,0,0,13,,,,,5,,,60,100
74432,note_off,,,,,128,0,12,,,,,4,,,42,100
74432,note_off,,,,,128,0,14,,,,,5,,,54,100
74432,note_off,,,,,128,0,8,,,,,0,,,81,100
74432,note_off,,,,,128,0,9,,,,,1,,,78,100
74432,note_off,,,,,128,0,13,,,,,5,,,57,100
74432,note_off,,,,,128,0,10,,,,,2,,,60,100
74496,note_on,,,,,0,0,13,,,,,5,,,66,100
74496,note_on,,,,,64,0,13,,,,,5,,,63,100
74496,note_on,,,,,64,0,8,,,,,0,,,78,75
74496,note_on,,,,,64,0,9,,,,,1,,,75,75
74496,note_on,,,,,64,0,14,,,,,5,,,59,100
74496,note_on,,,,,64,0,11,,,,,3,,,59,75
74496,note_on,,,,,64,0,12,,,,,4,,,47,75
74496,note_on,,,,,64,0,10,,,,,2,,,59,75
74624,note_off,,,,,128,0,8,,,,,0,,,78,100
74624,note_off,,,,,128,0,9,,,,,1,,,75,100
74688,note_on,,,,,64,0,9,,,,,1,,,75,77
74688,note_on,,,,,64,0,8,,,,,0,,,78,77
74752,note_off,,,,,64,0,9,,,,,1,,,75,100
74752,note_off,,,,,64,0,8,,,,,0,,,78,100
74784,note_on,,,,,32,0,9,,,,,1,,,76,78
74784,note_on,,,,,32,0,8,,,,,0,,,79,78
74848,note_off,,,,,64,0,9,,,,,1,,,76,100
74848,note_off,,,,,64,0,8,,,,,0,,,79,100
74880,note_off,,,,,384,0,12,,,,,4,,,47,100
74880,note_off,,,,,384,0,14,,,,,5,,,59,100
74880,note_on,,,,,32,0,9,,,,,1,,,78,79
74880,note_off,,,,,384,0,10,,,,,2,,,59,100
74880,note_off,,,,,384,0,13,,,,,5,,,63,100
74880,note_off,,,,,0,0,13,,,,,5,,,66,100
74880,note_off,,,,,384,0,11,,,,,3,,,59,100
74880,note_on,,,,,32,0,8,,,,,0,,,81,79
75008,note_off,,,,,128,0,9,,,,,1,,,78,100
75008,note_off,,,,,128,0,8,,,,,0,,,81,100
75072,note_on,,,,,64,0,9,,,,,1,,,76,82
75072,note_on,,,,,192,0,10,,,,,2,,,59,82
75072,note_on,,,,,192,0,13,,,,,5,,,59,100
75072,note_on,,,,,0,0,13,,,,,5,,,62,100
75072,note_on,,,,,192,0,14,,,,,5,,,52,100
75072,note_on,,,,,192,0,12,,,,,4,,,40,82
75072,note_on,,,,,192,0,11,,,,,3,,,52,82
75072,note_on,,,,,64,0,8,,,,,0,,,79,82
75200,note_off,,,,,0,0,13,,,,,5,,,62,100
75200,note_off,,,,,128,0,13,,,,,5,,,59,100
75200,note_off,,,,,128,0,11,,,,,3,,,52,100
75200,note_off,,,,,128,0,10,,,,,2,,,59,100
75200,note_off,,,,,128,0,14,,,,,5,,,52,100
75200,note_off,,,,,128,0,12,,,,,4,,,40,100
75200,note_off,,,,,128,0,9,,,,,1,,,76,100
75200,note_off,,,,,128,0,8,,,,,0,,,79,100
75264,note_on,,,,,64,0,9,,,,,1,,,75,84
75264,note_on,,,,,0,0,13,,,,,5,,,66,100
75264,note_on,,,,,64,0,13,,,,,5,,,63,100
75264,note_on,,,,,64,0,14,,,,,5,,,59,100
75264,note_on,,,,,64,0,8,,,,,0,,,78,85
75264,note_on,,,,,64,0,10,,,,,2,,,59,84
75264,note_on,,,,,64,0,11,,,,,3,,,59,84
75264,note_on,,,,,64,0,12,,,,,4,,,47,84
75392,note_off,,,,,128,0,9,,,,,1,,,75,100
75392,note_off,,,,,128,0,8,,,,,0,,,78,100
75456,note_on,,,,,64,0,8,,,,,0,,,78,84
75456,note_on,,,,,64,0,9,,,,,1,,,75,75
75520,note_off,,,,,64,0,8,,,,,0,,,78,100
75520,note_off,,,,,64,0,9,,,,,1,,,75,100
75552,note_on,,,,,32,0,9,,,,,1,,,76,78
75552,note_on,,,,,32,0,8,,,,,0,,,79,83
75616,note_off,,,,,64,0,9,,,,,1,,,76,100
75616,note_off,,,,,64,0,8,,,,,0,,,79,100
75648,note_off,,,,,384,0,14,,,,,5,,,59,100
75648,note_off,,,,,384,0,11,,,,,3,,,59,100
75648,note_off,,,,,384,0,13,,,,,5,,,63,100
75648,note_off,,,,,0,0,13,,,,,5,,,66,100
75648,note_off,,,,,384,0,10,,,,,2,,,59,100
75648,note_on,,,,,32,0,8,,,,,0,,,81,82
75648,note_off,,,,,384,0,12,,,,,4,,,47,100
75648,note_on,,,,,32,0,9,,,,,1,,,78,82
75776,note_off,,,,,128,0,9,,,,,1,,,78,100
75776,note_off,,,,,128,0,8,,,,,0,,,81,100
75840,note_on,,,,,192,0,13,,,,,5,,,59,100
75840,note_on,,,,,192,0,10,,,,,2,,,59,80
75840,note_on,,,,,192,0,14,,,,,5,,,52,100
75840,note_on,,,,,0,0,13,,,,,5,,,62,100
75840,note_on,,,,,192,0,11,,,,,3,,,52,80
75840,note_on,,,,,64,0,9,,,,,1,,,76,80
75840,note_on,,,,,192,0,12,,,,,4,,,40,80
75840,note_on,,,,,64,0,8,,,,,0,,,79,81
75968,note_off,,,,,0,0,13,,,,,5,,,62,100
75968,note_off,,,,,128,0,10,,,,,2,,,59,100
75968,note_off,,,,,128,0,8,,,,,0,,,79,100
75968,note_off,,,,,128,0,13,,,,,5,,,59,100
75968,note_off,,,,,128,0,14,,,,,5,,,52,100
75968,note_off,,,,,128,0,12,,,,,4,,,40,100
75968,note_off,,,,,128,0,11,,,,,3,,,52,100
75968,note_off,,,,,128,0,9,,,,,1,,,76,100
76032,note_on,,,,,64,0,14,,,,,5,,,59,100
76032,note_on,,,,,64,0,11,,,,,3,,,59,77
76032,note_on,,,,,64,0,10,,,,,2,,,59,77
76032,note_on,,,,,64,0,12,,,,,4,,,47,77
76032,note_on,,,,,64,0,13,,,,,5,,,63,100
76032,note_on,,,,,0,0,13,,,,,5,,,66,100
76032,note_on,,,,,64,0,9,,,,,1,,,75,77
76032,note_on,,,,,64,0,8,,,,,0,,,78,79
76160,note_off,,,,,128,0,8,,,,,0,,,78,100
76224,note_on,,,,,64,0,8,,,,,0,,,71,77
76352,note_off,,,,,128,0,8,,,,,0,,,71,100
76416,note_on,,,,,64,0,8,,,,,0,,,71,76
76544,note_off,,,,,0,0,13,,,,,5,,,66,100
76544,note_off,,,,,512,0,10,,,,,2,,,59,100
76544,note_off,,,,,512,0,14,,,,,5,,,59,100
76544,note_off,,,,,512,0,11,,,,,3,,,59,100
76544,note_off,,,,,512,0,12,,,,,4,,,47,100
76544,note_off,,,,,512,0,9,,,,,1,,,75,100
76544,note_off,,,,,512,0,13,,,,,5,,,63,100
76672,note_off,,,,,256,0,8,,,,,0,,,71,100
76796,program_change,,,,,252,0,9,,,,,1,40,,,
76796,program_change,,,,,124,0,8,,,,,0,40,,,
76800,note_on,,,,,256,0,10,,,,,2,,,76,60
76800,note_on,,,,,4,0,8,,,,,0,,,83,70
76800,note_on,,,,,4,0,9,,,,,1,,,79,85
76928,note_off,,,,,128,0,10,,,,,2,,,76,100
76928,note_off,,,,,128,0,8,,,,,0,,,83,100
76928,note_off,,,,,128,0,9,,,,,1,,,79,100
76992,note_on,,,,,64,0,10,,,,,2,,,76,60
76992,note_on,,,,,64,0,9,,,,,1,,,79,85
76992,note_on,,,,,64,0,8,,,,,0,,,83,70
77120,note_off,,,,,128,0,10,,,,,2,,,76,100
77120,note_off,,,,,128,0,9,,,,,1,,,79,100
77120,note_off,,,,,128,0,8,,,,,0,,,83,100
77184,note_on,,,,,64,0,9,,,,,1,,,79,85
77184,note_on,,,,,64,0,10,,,,,2,,,76,60
77184,note_on,,,,,64,0,8,,,,,0,,,83,70
77312,note_off,,,,,128,0,10,,,,,2,,,76,100
77312,note_off,,,,,128,0,8,,,,,0,,,83,100
77312,note_off,,,,,128,0,9,,,,,1,,,79,100
77376,note_on,,,,,64,0,8,,,,,0,,,84,70
77376,note_on,,,,,64,0,10,,,,,2,,,69,60
77376,note_on,,,,,64,0,9,,,,,1,,,81,85
77504,note_off,,,,,128,0,8,,,,,0,,,84,100
77504,note_off,,,,,128,0,9,,,,,1,,,81,100
77504,note_off,,,,,128,0,10,,,,,2,,,69,100
77568,note_on,,,,,64,0,9,,,,,1,,,78,85
77568,note_on,,,,,64,0,8,,,,,0,,,81,70
77568,note_on,,,,,64,0,10,,,,,2,,,74,60
77696,note_off,,,,,128,0,10,,,,,2,,,74,100
77696,note_off,,,,,128,0,8,,,,,0,,,81,100
77696,note_off,,,,,128,0,9,,,,,1,,,78,100
77760,note_on,,,,,64,0,8,,,,,0,,,81,70
77760,note_on,,,,,64,0,9,,,,,1,,,78,85
77760,note_on,,,,,64,0,10,,,,,2,,,74,60
77888,note_off,,,,,128,0,9,,,,,1,,,78,100
77888,note_off,,,,,128,0,10,,,,,2,,,74,100
77888,note_off,,,,,128,0,8,,,,,0,,,81,100
77952,note_on,,,,,64,0,8,,,,,0,,,81,70
77952,note_on,,,,,64,0,9,,,,,1,,,78,85
77952,note_on,,,,,64,0,10,,,,,2,,,74,60
78080,note_off,,,,,128,0,10,,,,,2,,,74,100
78080,note_off,,,,,128,0,8,,,,,0,,,81,100
78080,note_off,,,,,128,0,9,,,,,1,,,78,100
78144,note_on,,,,,64,0,8,,,,,0,,,83,70
78144,note_on,,,,,64,0,9,,,,,1,,,79,85
78144,note_on,,,,,64,0,10,,,,,2,,,67,60
78272,note_off,,,,,128,0,8,,,,,0,,,83,100
78272,note_off,,,,,128,0,9,,,,,1,,,79,100
78272,note_off,,,,,128,0,10,,,,,2,,,67,100
78336,note_on,,,,,64,0,8,,,,,0,,,79,70
78336,note_on,,,,,64,0,9,,,,,1,,,76,85
78336,note_on,,,,,64,0,10,,,,,2,,,72,60
78464,note_off,,,,,128,0,10,,,,,2,,,72,100
78464,note_off,,,,,128,0,9,,,,,1,,,76,100
78464,note_off,,,,,128,0,8,,,,,0,,,79,100
78528,note_on,,,,,64,0,10,,,,,2,,,72,60
78528,note_on,,,,,64,0,8,,,,,0,,,79,70
78528,note_on,,,,,64,0,9,,,,,1,,,76,85
78656,note_off,,,,,128,0,10,,,,,2,,,72,100
78656,note_off,,,,,128,0,9,,,,,1,,,76,100
78656,note_off,,,,,128,0,8,,,,,0,,,79,100
78720,note_on,,,,,64,0,8,,,,,0,,,79,70
78720,note_on,,,,,64,0,10,,,,,2,,,72,60
78720,note_on,,,,,64,0,9,,,,,1,,,76,85
78848,note_off,,,,,128,0,10,,,,,2,,,72,100
78848,note_off,,,,,128,0,8,,,,,0,,,79,100
78848,note_off,,,,,128,0,9,,,,,1,,,76,100
78912,note_on,,,,,64,0,8,,,,,0,,,81,70
78912,note_on,,,,,64,0,10,,,,,2,,,66,60
78912,note_on,,,,,64,0,9,,,,,1,,,78,85
79040,note_off,,,,,128,0,8,,,,,0,,,81,100
79040,note_off,,,,,128,0,10,,,,,2,,,66,100
79040,note_off,,,,,128,0,9,,,,,1,,,78,100
79104,note_on,,,,,64,0,10,,,,,2,,,71,60
79104,note_on,,,,,64,0,9,,,,,1,,,75,85
79104,note_on,,,,,64,0,8,,,,,0,,,78,70
79232,note_off,,,,,128,0,9,,,,,1,,,75,100
79232,note_off,,,,,128,0,8,,,,,0,,,78,100
79296,note_on,,,,,64,0,9,,,,,1,,,75,85
79296,note_on,,,,,64,0,8,,,,,0,,,78,70
79360,note_off,,,,,64,0,8,,,,,0,,,78,100
79360,note_off,,,,,64,0,9,,,,,1,,,75,100
79392,note_on,,,,,32,0,8,,,,,0,,,79,70
79392,note_on,,,,,32,0,9,,,,,1,,,76,85
79456,note_off,,,,,64,0,9,,,,,1,,,76,100
79456,note_off,,,,,64,0,8,,,,,0,,,79,100
79488,note_on,,,,,32,0,9,,,,,1,,,78,85
79488,note_on,,,,,32,0,8,,,,,0,,,81,70
79488,note_off,,,,,384,0,10,,,,,2,,,71,100
79616,note_off,,,,,128,0,8,,,,,0,,,81,100
79616,note_off,,,,,128,0,9,,,,,1,,,78,100
79680,note_on,,,,,64,0,8,,,,,0,,,79,70
79680,note_on,,,,,192,0,10,,,,,2,,,64,60
79680,note_on,,,,,64,0,9,,,,,1,,,76,85
79808,note_off,,,,,128,0,9,,,,,1,,,76,100
79808,note_off,,,,,128,0,8,,,,,0,,,79,100
79808,note_off,,,,,128,0,10,,,,,2,,,64,100
79872,note_on,,,,,64,0,10,,,,,2,,,71,60
79872,note_on,,,,,64,0,8,,,,,0,,,78,70
79872,note_on,,,,,64,0,9,,,,,1,,,75,85
80000,note_off,,,,,128,0,8,,,,,0,,,78,100
80000,note_off,,,,,128,0,9,,,,,1,,,75,100
80064,note_on,,,,,64,0,8,,,,,0,,,78,70
80064,note_on,,,,,64,0,9,,,,,1,,,75,85
80128,note_off,,,,,64,0,8,,,,,0,,,78,100
80128,note_off,,,,,64,0,9,,,,,1,,,75,100
80160,note_on,,,,,32,0,8,,,,,0,,,79,70
80160,note_on,,,,,32,0,9,,,,,1,,,76,85
80224,note_off,,,,,64,0,8,,,,,0,,,79,100
80224,note_off,,,,,64,0,9,,,,,1,,,76,100
80256,note_on,,,,,32,0,8,,,,,0,,,81,70
80256,note_on,,,,,32,0,9,,,,,1,,,78,85
80256,note_off,,,,,384,0,10,,,,,2,,,71,100
80384,note_off,,,,,128,0,8,,,,,0,,,81,100
80384,note_off,,,,,128,0,9,,,,,1,,,78,100
80448,note_on,,,,,192,0,10,,,,,2,,,64,60
80448,note_on,,,,,64,0,9,,,,,1,,,76,85
80448,note_on,,,,,64,0,8,,,,,0,,,79,70
80576,note_off,,,,,128,0,10,,,,,2,,,64,100
80576,note_off,,,,,128,0,9,,,,,1,,,76,100
80576,note_off,,,,,128,0,8,,,,,0,,,79,100
80640,note_on,,,,,64,0,8,,,,,0,,,78,70
80640,note_on,,,,,64,0,9,,,,,1,,,75,85
80640,note_on,,,,,64,0,10,,,,,2,,,71,60
80768,note_off,,,,,128,0,8,,,,,0,,,78,100
80832,note_on,,,,,64,0,8,,,,,0,,,71,70
80960,note_off,,,,,128,0,8,,,,,0,,,71,100
81024,note_on,,,,,64,0,8,,,,,0,,,71,70
81152,note_off,,,,,512,0,9,,,,,1,,,75,100
81152,note_off,,,,,512,0,10,,,,,2,,,71,100
81280,note_off,,,,,256,0,8,,,,,0,,,71,100
81404,program_change,,,,,252,0,9,,,,,1,48,,,
81404,program_change,,,,,124,0,8,,,,,0,48,,,
81408,note_on,,,,,0,0,13,,,,,5,,,67,100
81408,note_on,,,,,256,0,10,,,,,2,,,71,100
81408,note_on,,,,,4864,0,13,,,,,5,,,71,100
81408,note_on,,,,,4864,0,11,,,,,3,,,52,100
81408,note_on,,,,,4,0,9,,,,,1,,,79,100
81408,note_on,,,,,4864,0,14,,,,,5,,,52,100
81408,note_on,,,,,4864,0,12,,,,,4,,,40,100
81408,note_on,,,,,4,0,8,,,,,0,,,83,100
81536,note_off,,,,,128,0,11,,,,,3,,,52,100
81536,note_off,,,,,128,0,14,,,,,5,,,52,100
81536,note_off,,,,,128,0,13,,,,,5,,,71,100
81536,note_off,,,,,0,0,13,,,,,5,,,67,100
81536,note_off,,,,,128,0,12,,,,,4,,,40,100
81536,note_off,,,,,128,0,8,,,,,0,,,83,100
81600,note_on,,,,,0,0,13,,,,,5,,,67,100
81600,note_on,,,,,64,0,14,,,,,5,,,54,100
81600,note_on,,,,,64,0,12,,,,,4,,,42,100
81600,note_on,,,,,64,0,13,,,,,5,,,71,100
81600,note_on,,,,,64,0,11,,,,,3,,,54,100
81600,note_on,,,,,64,0,8,,,,,0,,,76,100
81728,note_off,,,,,128,0,8,,,,,0,,,76,100
81728,note_off,,,,,128,0,12,,,,,4,,,42,100
81728,note_off,,,,,128,0,13,,,,,5,,,71,100
81728,note_off,,,,,128,0,14,,,,,5,,,54,100
81728,note_off,,,,,0,0,13,,,,,5,,,67,100
81728,note_off,,,,,128,0,11,,,,,3,,,54,100
81792,note_on,,,,,0,0,13,,,,,5,,,71,100
81792,note_on,,,,,64,0,13,,,,,5,,,76,100
81792,note_on,,,,,64,0,14,,,,,5,,,55,100
81792,note_off,,,,,384,0,10,,,,,2,,,71,100
81792,note_on,,,,,64,0,12,,,,,4,,,43,100
81792,note_on,,,,,64,0,8,,,,,0,,,76,100
81792,note_off,,,,,384,0,9,,,,,1,,,79,100
81792,note_on,,,,,64,0,11,,,,,3,,,55,100
81920,note_off,,,,,128,0,12,,,,,4,,,43,100
81920,note_off,,,,,128,0,14,,,,,5,,,55,100
81920,note_off,,,,,128,0,8,,,,,0,,,76,100
81920,note_off,,,,,0,0,13,,,,,5,,,71,100
81920,note_off,,,,,128,0,13,,,,,5,,,76,100
81920,note_off,,,,,128,0,11,,,,,3,,,55,100
81984,note_on,,,,,64,0,8,,,,,0,,,83,100
81984,note_on,,,,,192,0,9,,,,,1,,,79,100
81984,note_on,,,,,64,0,13,,,,,5,,,71,100
81984,note_on,,,,,0,0,13,,,,,5,,,67,100
81984,note_on,,,,,192,0,10,,,,,2,,,71,100
81984,note_on,,,,,64,0,14,,,,,5,,,52,100
81984,note_on,,,,,64,0,11,,,,,3,,,52,100
81984,note_on,,,,,64,0,12,,,,,4,,,40,100
82112,note_off,,,,,128,0,13,,,,,5,,,71,100
82112,note_off,,,,,128,0,14,,,,,5,,,52,100
82112,note_off,,,,,128,0,10,,,,,2,,,71,100
82112,note_off,,,,,0,0,13,,,,,5,,,67,100
82112,note_off,,,,,128,0,12,,,,,4,,,40,100
82112,note_off,,,,,128,0,8,,,,,0,,,83,100
82112,note_off,,,,,128,0,9,,,,,1,,,79,100
82112,note_off,,,,,128,0,11,,,,,3,,,52,100
82176,note_on,,,,,64,0,14,,,,,5,,,57,100
82176,note_on,,,,,0,0,13,,,,,5,,,72,100
82176,note_on,,,,,64,0,13,,,,,5,,,64,100
82176,note_on,,,,,64,0,12,,,,,4,,,45,100
82176,note_on,,,,,64,0,8,,,,,0,,,84,100
82176,note_on,,,,,64,0,11,,,,,3,,,57,100
82176,note_on,,,,,64,0,9,,,,,1,,,81,100
82176,note_on,,,,,64,0,10,,,,,2,,,66,100
82304,note_off,,,,,128,0,9,,,,,1,,,81,100
82304,note_off,,,,,128,0,13,,,,,5,,,64,100
82304,note_off,,,,,128,0,14,,,,,5,,,57,100
82304,note_off,,,,,128,0,8,,,,,0,,,84,100
82304,note_off,,,,,128,0,10,,,,,2,,,66,100
82304,note_off,,,,,128,0,12,,,,,4,,,45,100
82304,note_off,,,,,128,0,11,,,,,3,,,57,100
82304,note_off,,,,,0,0,13,,,,,5,,,72,100
82368,note_on,,,,,64,0,8,,,,,0,,,75,100
82368,note_on,,,,,64,0,12,,,,,4,,,47,100
82368,note_on,,,,,64,0,14,,,,,5,,,59,100
82368,note_on,,,,,64,0,11,,,,,3,,,59,100
82368,note_on,,,,,64,0,10,,,,,2,,,71,100
82368,note_on,,,,,64,0,9,,,,,1,,,78,100
82368,note_on,,,,,0,0,13,,,,,5,,,66,100
82368,note_on,,,,,64,0,13,,,,,5,,,63,100
82496,note_off,,,,,128,0,13,,,,,5,,,63,100
82496,note_off,,,,,128,0,10,,,,,2,,,71,100
82496,note_off,,,,,128,0,8,,,,,0,,,75,100
82496,note_off,,,,,128,0,12,,,,,4,,,47,100
82496,note_off,,,,,128,0,14,,,,,5,,,59,100
82496,note_off,,,,,128,0,11,,,,,3,,,59,100
82496,note_off,,,,,128,0,9,,,,,1,,,78,100
82496,note_off,,,,,0,0,13,,,,,5,,,66,100
82560,note_on,,,,,64,0,12,,,,,4,,,43,100
82560,note_on,,,,,0,0,13,,,,,5,,,67,100
82560,note_on,,,,,64,0,13,,,,,5,,,59,100
82560,note_on,,,,,64,0,8,,,,,0,,,76,100
82560,note_on,,,,,64,0,9,,,,,1,,,79,100
82560,note_on,,,,,64,0,14,,,,,5,,,55,100
82560,note_on,,,,,64,0,10,,,,,2,,,71,100
82560,note_on,,,,,0,0,13,,,,,5,,,64,100
82560,note_on,,,,,64,0,11,,,,,3,,,55,100
82688,note_off,,,,,128,0,12,,,,,4,,,43,100
82688,note_off,,,,,128,0,11,,,,,3,,,55,100
82688,note_off,,,,,128,0,14,,,,,5,,,55,100
82688,note_off,,,,,0,0,13,,,,,5,,,64,100
82688,note_off,,,,,128,0,13,,,,,5,,,59,100
82688,note_off,,,,,128,0,8,,,,,0,,,76,100
82688,note_off,,,,,128,0,9,,,,,1,,,79,100
82688,note_off,,,,,128,0,10,,,,,2,,,71,100
82688,note_off,,,,,0,0,13,,,,,5,,,67,100
82752,note_on,,,,,64,0,14,,,,,5,,,57,100
82752,note_on,,,,,64,0,13,,,,,5,,,69,100
82752,note_on,,,,,64,0,8,,,,,0,,,81,100
82752,note_on,,,,,64,0,12,,,,,4,,,45,100
82752,note_on,,,,,64,0,9,,,,,1,,,76,100
82752,note_on,,,,,0,0,13,,,,,5,,,60,100
82752,note_on,,,,,0,0,13,,,,,5,,,64,100
82752,note_on,,,,,64,0,10,,,,,2,,,72,100
82752,note_on,,,,,64,0,11,,,,,3,,,57,100
82880,note_off,,,,,0,0,13,,,,,5,,,64,100
82880,note_off,,,,,128,0,12,,,,,4,,,45,100
82880,note_off,,,,,128,0,13,,,,,5,,,69,100
82880,note_off,,,,,128,0,8,,,,,0,,,81,100
82880,note_off,,,,,128,0,9,,,,,1,,,76,100
82880,note_off,,,,,128,0,11,,,,,3,,,57,100
82880,note_off,,,,,0,0,13,,,,,5,,,60,100
82880,note_off,,,,,128,0,14,,,,,5,,,57,100
82880,note_off,,,,,128,0,10,,,,,2,,,72,100
82944,note_on,,,,,64,0,9,,,,,1,,,76,100
82944,note_on,,,,,64,0,12,,,,,4,,,47,100
82944,note_on,,,,,64,0,13,,,,,5,,,64,100
82944,note_on,,,,,0,0,13,,,,,5,,,67,100
82944,note_on,,,,,64,0,8,,,,,0,,,79,100
82944,note_on,,,,,64,0,11,,,,,3,,,59,100
82944,note_on,,,,,64,0,10,,,,,2,,,71,100
82944,note_on,,,,,64,0,14,,,,,5,,,59,100
83200,note_off,,,,,0,0,13,,,,,5,,,67,100
83200,note_off,,,,,256,0,8,,,,,0,,,79,100
83200,note_off,,,,,256,0,14,,,,,5,,,59,100
83200,note_off,,,,,256,0,11,,,,,3,,,59,100
83200,note_off,,,,,256,0,10,,,,,2,,,71,100
83200,note_off,,,,,256,0,13,,,,,5,,,64,100
83200,note_off,,,,,256,0,12,,,,,4,,,47,100
83200,note_off,,,,,256,0,9,,,,,1,,,76,100
83328,note_on,,,,,128,0,10,,,,,2,,,71,100
83328,note_on,,,,,128,0,14,,,,,5,,,47,100
83328,note_on,,,,,128,0,9,,,,,1,,,75,100
83328,note_on,,,,,0,0,13,,,,,5,,,66,100
83328,note_on,,,,,128,0,8,,,,,0,,,78,100
83328,note_on,,,,,128,0,11,,,,,3,,,47,100
83328,note_on,,,,,128,0,13,,,,,5,,,63,100
83328,note_on,,,,,128,0,12,,,,,4,,,35,100
83584,note_off,,,,,256,0,12,,,,,4,,,35,100
83584,note_off,,,,,256,0,13,,,,,5,,,63,100
83584,note_off,,,,,256,0,8,,,,,0,,,78,100
83584,note_off,,,,,256,0,11,,,,,3,,,47,100
83584,note_off,,,,,256,0,14,,,,,5,,,47,100
83584,note_off,,,,,256,0,10,,,,,2,,,71,100
83584,note_off,,,,,256,0,9,,,,,1,,,75,100
83584,note_off,,,,,0,0,13,,,,,5,,,66,100
83712,note_on,,,,,128,0,12,,,,,4,,,40,100
83712,note_on,,,,,128,0,8,,,,,0,,,76,100
83712,note_on,,,,,128,0,14,,,,,5,,,52,100
83712,note_on,,,,,0,0,13,,,,,5,,,67,100
83712,note_on,,,,,128,0,10,,,,,2,,,67,100
83712,note_on,,,,,128,0,9,,,,,1,,,76,100
83712,note_on,,,,,0,0,13,,,,,5,,,64,100
83712,note_on,,,,,128,0,11,,,,,3,,,52,100
83712,note_on,,,,,128,0,13,,,,,5,,,59,100
83716,program_change,,,,,4,0,9,,,,,1,40,,,
83716,program_change,,,,,4,0,8,,,,,0,40,,,
83904,note_on,,,,,188,0,8,,,,,0,,,79,85
83904,note_on,,,,,188,0,9,,,,,1,,,76,85
83968,note_off,,,,,256,0,13,,,,,5,,,59,100
83968,note_off,,,,,0,0,13,,,,,5,,,64,100
83968,note_off,,,,,0,0,13,,,,,5,,,67,100
83968,note_off,,,,,64,0,8,,,,,0,,,76,100
83968,note_off,,,,,0,0,8,,,,,0,,,79,100
83968,note_off,,,,,256,0,10,,,,,2,,,67,100
83968,note_off,,,,,256,0,11,,,,,3,,,52,100
83968,note_off,,,,,256,0,14,,,,,5,,,52,100
83968,note_off,,,,,256,0,12,,,,,4,,,40,100
83968,note_off,,,,,64,0,9,,,,,1,,,76,100
83968,note_off,,,,,0,0,9,,,,,1,,,76,100
84000,note_on,,,,,32,0,9,,,,,1,,,78,85
84000,note_on,,,,,32,0,8,,,,,0,,,81,85
84064,note_off,,,,,64,0,9,,,,,1,,,78,100
84064,note_off,,,,,64,0,8,,,,,0,,,81,100
84096,note_on,,,,,32,0,8,,,,,0,,,83,85
84096,note_on,,,,,32,0,9,,,,,1,,,79,85
84224,note_off,,,,,128,0,9,,,,,1,,,79,100
84224,note_off,,,,,128,0,8,,,,,0,,,83,100
84288,note_on,,,,,320,0,11,,,,,3,,,47,85
84288,note_on,,,,,320,0,12,,,,,4,,,35,85
84288,note_on,,,,,64,0,8,,,,,0,,,81,85
84288,note_on,,,,,320,0,13,,,,,5,,,63,100
84288,note_on,,,,,0,0,13,,,,,5,,,66,100
84288,note_on,,,,,0,0,13,,,,,5,,,69,100
84288,note_on,,,,,64,0,9,,,,,1,,,78,85
84288,note_on,,,,,320,0,14,,,,,5,,,47,100
84416,note_off,,,,,128,0,9,,,,,1,,,78,100
84416,note_off,,,,,128,0,11,,,,,3,,,47,100
84416,note_off,,,,,128,0,14,,,,,5,,,47,100
84416,note_off,,,,,0,0,13,,,,,5,,,69,100
84416,note_off,,,,,0,0,13,,,,,5,,,66,100
84416,note_off,,,,,128,0,12,,,,,4,,,35,100
84416,note_off,,,,,128,0,13,,,,,5,,,63,100
84416,note_off,,,,,128,0,8,,,,,0,,,81,100
84480,note_on,,,,,64,0,9,,,,,1,,,76,85
84480,note_on,,,,,64,0,8,,,,,0,,,79,85
84480,note_on,,,,,64,0,12,,,,,4,,,40,85
84480,note_on,,,,,64,0,14,,,,,5,,,52,100
84480,note_on,,,,,64,0,11,,,,,3,,,52,85
84480,note_on,,,,,0,0,13,,,,,5,,,71,100
84480,note_on,,,,,0,0,13,,,,,5,,,67,100
84480,note_on,,,,,64,0,13,,,,,5,,,64,100
84608,note_off,,,,,128,0,9,,,,,1,,,76,100
84608,note_off,,,,,128,0,8,,,,,0,,,79,100
84672,note_on,,,,,64,0,9,,,,,1,,,75,85
84672,note_on,,,,,64,0,8,,,,,0,,,78,85
84736,note_off,,,,,0,0,13,,,,,5,,,71,100
84736,note_off,,,,,256,0,12,,,,,4,,,40,100
84736,note_off,,,,,0,0,13,,,,,5,,,67,100
84736,note_off,,,,,256,0,13,,,,,5,,,64,100
84736,note_off,,,,,64,0,8,,,,,0,,,78,100
84736,note_off,,,,,256,0,11,,,,,3,,,52,100
84736,note_off,,,,,64,0,9,,,,,1,,,75,100
84736,note_off,,,,,256,0,14,,,,,5,,,52,100
84768,note_on,,,,,32,0,9,,,,,1,,,76,85
84768,note_on,,,,,32,0,8,,,,,0,,,79,85
84832,note_off,,,,,64,0,8,,,,,0,,,79,100
84832,note_off,,,,,64,0,9,,,,,1,,,76,100
84864,note_on,,,,,32,0,9,,,,,1,,,78,85
84864,note_on,,,,,32,0,8,,,,,0,,,81,85
84992,note_off,,,,,128,0,8,,,,,0,,,81,100
84992,note_off,,,,,128,0,9,,,,,1,,,78,100
85056,note_on,,,,,320,0,12,,,,,4,,,40,85
85056,note_on,,,,,0,0,13,,,,,5,,,67,100
85056,note_on,,,,,320,0,13,,,,,5,,,64,100
85056,note_on,,,,,320,0,14,,,,,5,,,52,100
85056,note_on,,,,,64,0,8,,,,,0,,,79,85
85056,note_on,,,,,64,0,9,,,,,1,,,76,85
85056,note_on,,,,,320,0,11,,,,,3,,,52,85
85184,note_off,,,,,128,0,9,,,,,1,,,76,100
85184,note_off,,,,,128,0,11,,,,,3,,,52,100
85184,note_off,,,,,128,0,13,,,,,5,,,64,100
85184,note_off,,,,,0,0,13,,,,,5,,,67,100
85184,note_off,,,,,128,0,8,,,,,0,,,79,100
85184,note_off,,,,,128,0,12,,,,,4,,,40,100
85184,note_off,,,,,128,0,14,,,,,5,,,52,100
85248,note_on,,,,,64,0,9,,,,,1,,,75,85
85248,note_on,,,,,64,0,14,,,,,5,,,47,100
85248,note_on,,,,,0,0,13,,,,,5,,,66,100
85248,note_on,,,,,64,0,12,,,,,4,,,35,85
85248,note_on,,,,,64,0,8,,,,,0,,,78,85
85248,note_on,,,,,64,0,11,,,,,3,,,47,85
85248,note_on,,,,,64,0,13,,,,,5,,,63,100
85376,note_off,,,,,128,0,9,,,,,1,,,75,100
85376,note_off,,,,,128,0,8,,,,,0,,,78,100
85440,note_on,,,,,64,0,9,,,,,1,,,76,85
85440,note_on,,,,,64,0,8,,,,,0,,,79,85
85504,note_off,,,,,64,0,8,,,,,0,,,79,100
85504,note_off,,,,,256,0,11,,,,,3,,,47,100
85504,note_off,,,,,256,0,13,,,,,5,,,63,100
85504,note_off,,,,,256,0,12,,,,,4,,,35,100
85504,note_off,,,,,0,0,13,,,,,5,,,66,100
85504,note_off,,,,,64,0,9,,,,,1,,,76,100
85504,note_off,,,,,256,0,14,,,,,5,,,47,100
85536,note_on,,,,,32,0,8,,,,,0,,,81,85
85536,note_on,,,,,32,0,9,,,,,1,,,78,85
85600,note_off,,,,,64,0,9,,,,,1,,,78,100
85600,note_off,,,,,64,0,8,,,,,0,,,81,100
85632,note_on,,,,,32,0,8,,,,,0,,,83,85
85632,note_on,,,,,32,0,9,,,,,1,,,79,85
85760,note_off,,,,,128,0,9,,,,,1,,,79,100
85760,note_off,,,,,128,0,8,,,,,0,,,83,100
85824,note_on,,,,,0,0,13,,,,,5,,,63,100
85824,note_on,,,,,64,0,9,,,,,1,,,78,85
85824,note_on,,,,,0,0,13,,,,,5,,,66,100
85824,note_on,,,,,320,0,13,,,,,5,,,69,100
85824,note_on,,,,,64,0,8,,,,,0,,,81,85
85824,note_on,,,,,320,0,11,,,,,3,,,47,85
85824,note_on,,,,,320,0,12,,,,,4,,,35,85
85824,note_on,,,,,320,0,14,,,,,5,,,47,100
85952,note_off,,,,,128,0,8,,,,,0,,,81,100
85952,note_off,,,,,128,0,14,,,,,5,,,47,100
85952,note_off,,,,,128,0,9,,,,,1,,,78,100
85952,note_off,,,,,128,0,12,,,,,4,,,35,100
85952,note_off,,,,,128,0,13,,,,,5,,,69,100
85952,note_off,,,,,128,0,11,,,,,3,,,47,100
85952,note_off,,,,,0,0,13,,,,,5,,,63,100
85952,note_off,,,,,0,0,13,,,,,5,,,66,100
86016,note_on,,,,,64,0,8,,,,,0,,,79,85
86016,note_on,,,,,64,0,12,,,,,4,,,40,85
86016,note_on,,,,,0,0,13,,,,,5,,,71,100
86016,note_on,,,,,64,0,11,,,,,3,,,52,85
86016,note_on,,,,,0,0,13,,,,,5,,,67,100
86016,note_on,,,,,64,0,13,,,,,5,,,64,100
86016,note_on,,,,,64,0,9,,,,,1,,,76,85
86016,note_on,,,,,64,0,14,,,,,5,,,52,100
86144,note_off,,,,,128,0,9,,,,,1,,,76,100
86144,note_off,,,,,128,0,8,,,,,0,,,79,100
86208,note_on,,,,,64,0,9,,,,,1,,,75,85
86208,note_on,,,,,64,0,8,,,,,0,,,78,85
86272,note_off,,,,,256,0,12,,,,,4,,,40,100
86272,note_off,,,,,64,0,8,,,,,0,,,78,100
86272,note_off,,,,,0,0,13,,,,,5,,,71,100
86272,note_off,,,,,256,0,14,,,,,5,,,52,100
86272,note_off,,,,,256,0,13,,,,,5,,,64,100
86272,note_off,,,,,256,0,11,,,,,3,,,52,100
86272,note_off,,,,,64,0,9,,,,,1,,,75,100
86272,note_off,,,,,0,0,13,,,,,5,,,67,100
86304,note_on,,,,,32,0,8,,,,,0,,,79,85
86304,note_on,,,,,32,0,9,,,,,1,,,76,85
86368,note_off,,,,,64,0,9,,,,,1,,,76,100
86368,note_off,,,,,64,0,8,,,,,0,,,79,100
86400,note_on,,,,,32,0,9,,,,,1,,,78,85
86400,note_on,,,,,32,0,8,,,,,0,,,81,85
86528,note_off,,,,,128,0,8,,,,,0,,,81,100
86528,note_off,,,,,128,0,9,,,,,1,,,78,100
86592,note_on,,,,,64,0,9,,,,,1,,,76,85
86592,note_on,,,,,320,0,11,,,,,3,,,52,85
86592,note_on,,,,,0,0,13,,,,,5,,,67,100
86592,note_on,,,,,320,0,14,,,,,5,,,52,100
86592,note_on,,,,,320,0,13,,,,,5,,,64,100
86592,note_on,,,,,320,0,12,,,,,4,,,40,85
86592,note_on,,,,,64,0,8,,,,,0,,,79,85
86720,note_off,,,,,0,0,13,,,,,5,,,67,100
86720,note_off,,,,,128,0,14,,,,,5,,,52,100
86720,note_off,,,,,128,0,12,,,,,4,,,40,100
86720,note_off,,,,,128,0,11,,,,,3,,,52,100
86720,note_off,,,,,128,0,8,,,,,0,,,79,100
86720,note_off,,,,,128,0,13,,,,,5,,,64,100
86720,note_off,,,,,128,0,9,,,,,1,,,76,100
86784,note_on,,,,,64,0,9,,,,,1,,,75,85
86784,note_on,,,,,64,0,12,,,,,4,,,35,70
86784,note_on,,,,,0,0,13,,,,,5,,,66,100
86784,note_on,,,,,64,0,8,,,,,0,,,78,85
86784,note_on,,,,,64,0,13,,,,,5,,,63,100
86784,note_on,,,,,64,0,14,,,,,5,,,47,100
86784,note_on,,,,,64,0,11,,,,,3,,,47,70
86976,note_on,,,,,192,0,8,,,,,0,,,79,70
86976,note_on,,,,,192,0,9,,,,,1,,,76,70
87040,note_off,,,,,0,0,13,,,,,5,,,66,100
87040,note_off,,,,,256,0,13,,,,,5,,,63,100
87040,note_off,,,,,256,0,14,,,,,5,,,47,100
87040,note_off,,,,,64,0,9,,,,,1,,,75,100
87040,note_off,,,,,0,0,9,,,,,1,,,76,100
87040,note_off,,,,,256,0,11,,,,,3,,,47,100
87040,note_off,,,,,256,0,12,,,,,4,,,35,100
87040,note_off,,,,,64,0,8,,,,,0,,,78,100
87040,note_off,,,,,0,0,8,,,,,0,,,79,100
87072,note_on,,,,,32,0,9,,,,,1,,,78,70
87072,note_on,,,,,32,0,8,,,,,0,,,81,70
87136,note_off,,,,,64,0,8,,,,,0,,,81,100
87136,note_off,,,,,64,0,9,,,,,1,,,78,100
87168,note_on,,,,,32,0,9,,,,,1,,,79,70
87168,note_on,,,,,32,0,8,,,,,0,,,83,70
87296,note_off,,,,,128,0,9,,,,,1,,,79,100
87296,note_off,,,,,128,0,8,,,,,0,,,83,100
87360,note_on,,,,,320,0,13,,,,,5,,,69,100
87360,note_on,,,,,0,0,13,,,,,5,,,66,100
87360,note_on,,,,,320,0,14,,,,,5,,,47,100
87360,note_on,,,,,64,0,8,,,,,0,,,81,70
87360,note_on,,,,,64,0,9,,,,,1,,,78,70
87360,note_on,,,,,320,0,12,,,,,4,,,35,60
87360,note_on,,,,,320,0,11,,,,,3,,,47,60
87360,note_on,,,,,0,0,13,,,,,5,,,63,100
87488,note_off,,,,,128,0,11,,,,,3,,,47,100
87488,note_off,,,,,128,0,13,,,,,5,,,69,100
87488,note_off,,,,,128,0,9,,,,,1,,,78,100
87488,note_off,,,,,0,0,13,,,,,5,,,66,100
87488,note_off,,,,,0,0,13,,,,,5,,,63,100
87488,note_off,,,,,128,0,8,,,,,0,,,81,100
87488,note_off,,,,,128,0,14,,,,,5,,,47,100
87488,note_off,,,,,128,0,12,,,,,4,,,35,100
87552,note_on,,,,,64,0,13,,,,,5,,,64,100
87552,note_on,,,,,0,0,13,,,,,5,,,71,100
87552,note_on,,,,,64,0,9,,,,,1,,,76,70
87552,note_on,,,,,64,0,14,,,,,5,,,52,100
87552,note_on,,,,,0,0,13,,,,,5,,,67,100
87552,note_on,,,,,64,0,8,,,,,0,,,79,70
87552,note_on,,,,,64,0,11,,,,,3,,,52,60
87552,note_on,,,,,64,0,12,,,,,4,,,40,60
87680,note_off,,,,,128,0,8,,,,,0,,,79,100
87680,note_off,,,,,128,0,9,,,,,1,,,76,100
87744,note_on,,,,,64,0,8,,,,,0,,,78,70
87744,note_on,,,,,64,0,9,,,,,1,,,75,70
87808,note_off,,,,,256,0,13,,,,,5,,,64,100
87808,note_off,,,,,0,0,13,,,,,5,,,71,100
87808,note_off,,,,,256,0,12,,,,,4,,,40,100
87808,note_off,,,,,256,0,11,,,,,3,,,52,100
87808,note_off,,,,,256,0,14,,,,,5,,,52,100
87808,note_off,,,,,64,0,8,,,,,0,,,78,100
87808,note_off,,,,,0,0,13,,,,,5,,,67,100
87808,note_off,,,,,64,0,9,,,,,1,,,75,100
87840,note_on,,,,,32,0,8,,,,,0,,,79,70
87840,note_on,,,,,32,0,9,,,,,1,,,76,70
87904,note_off,,,,,64,0,9,,,,,1,,,76,100
87904,note_off,,,,,64,0,8,,,,,0,,,79,100
87936,note_on,,,,,32,0,8,,,,,0,,,81,70
87936,note_on,,,,,32,0,9,,,,,1,,,78,70
88064,note_off,,,,,128,0,8,,,,,0,,,81,100
88064,note_off,,,,,128,0,9,,,,,1,,,78,100
88128,note_on,,,,,320,0,13,,,,,5,,,64,100
88128,note_on,,,,,0,0,13,,,,,5,,,67,100
88128,note_on,,,,,320,0,12,,,,,4,,,40,60
88128,note_on,,,,,64,0,8,,,,,0,,,79,70
88128,note_on,,,,,320,0,14,,,,,5,,,52,100
88128,note_on,,,,,64,0,9,,,,,1,,,76,70
88128,note_on,,,,,320,0,11,,,,,3,,,52,60
88256,note_off,,,,,128,0,9,,,,,1,,,76,100
88256,note_off,,,,,128,0,8,,,,,0,,,79,100
88256,note_off,,,,,128,0,11,,,,,3,,,52,100
88256,note_off,,,,,128,0,13,,,,,5,,,64,100
88256,note_off,,,,,0,0,13,,,,,5,,,67,100
88256,note_off,,,,,128,0,14,,,,,5,,,52,100
88256,note_off,,,,,128,0,12,,,,,4,,,40,100
88320,note_on,,,,,64,0,13,,,,,5,,,63,100
88320,note_on,,,,,64,0,8,,,,,0,,,78,70
88320,note_on,,,,,64,0,14,,,,,5,,,47,100
88320,note_on,,,,,64,0,12,,,,,4,,,35,60
88320,note_on,,,,,0,0,13,,,,,5,,,66,100
88320,note_on,,,,,64,0,9,,,,,1,,,75,70
88320,note_on,,,,,64,0,11,,,,,3,,,47,60
88448,note_off,,,,,128,0,9,,,,,1,,,75,100
88448,note_off,,,,,128,0,8,,,,,0,,,78,100
88512,note_on,,,,,64,0,9,,,,,1,,,76,70
88512,note_on,,,,,64,0,8,,,,,0,,,79,70
88576,note_off,,,,,64,0,9,,,,,1,,,76,100
88576,note_off,,,,,0,0,13,,,,,5,,,66,100
88576,note_off,,,,,256,0,13,,,,,5,,,63,100
88576,note_off,,,,,256,0,11,,,,,3,,,47,100
88576,note_off,,,,,64,0,8,,,,,0,,,79,100
88576,note_off,,,,,256,0,14,,,,,5,,,47,100
88576,note_off,,,,,256,0,12,,,,,4,,,35,100
88608,note_on,,,,,32,0,8,,,,,0,,,81,70
88608,note_on,,,,,32,0,9,,,,,1,,,78,70
88672,note_off,,,,,64,0,8,,,,,0,,,81,100
88672,note_off,,,,,64,0,9,,,,,1,,,78,100
88704,note_on,,,,,32,0,8,,,,,0,,,83,70
88704,note_on,,,,,32,0,9,,,,,1,,,79,70
88832,note_off,,,,,128,0,8,,,,,0,,,83,100
88832,note_off,,,,,128,0,9,,,,,1,,,79,100
88896,note_on,,,,,320,0,14,,,,,5,,,47,100
88896,note_on,,,,,64,0,9,,,,,1,,,78,70
88896,note_on,,,,,320,0,12,,,,,4,,,35,60
88896,note_on,,,,,320,0,13,,,,,5,,,69,100
88896,note_on,,,,,0,0,13,,,,,5,,,66,100
88896,note_on,,,,,0,0,13,,,,,5,,,63,100
88896,note_on,,,,,64,0,8,,,,,0,,,81,70
88896,note_on,,,,,320,0,11,,,,,3,,,47,60
89024,note_off,,,,,128,0,13,,,,,5,,,69,100
89024,note_off,,,,,128,0,12,,,,,4,,,35,100
89024,note_off,,,,,0,0,13,,,,,5,,,66,100
89024,note_off,,,,,0,0,13,,,,,5,,,63,100
89024,note_off,,,,,128,0,9,,,,,1,,,78,100
89024,note_off,,,,,128,0,14,,,,,5,,,47,100
89024,note_off,,,,,128,0,8,,,,,0,,,81,100
89024,note_off,,,,,128,0,11,,,,,3,,,47,100
89088,note_on,,,,,64,0,11,,,,,3,,,52,60
89088,note_on,,,,,64,0,12,,,,,4,,,40,60
89088,note_on,,,,,64,0,8,,,,,0,,,79,70
89088,note_on,,,,,64,0,13,,,,,5,,,64,100
89088,note_on,,,,,64,0,9,,,,,1,,,76,70
89088,note_on,,,,,0,0,13,,,,,5,,,71,100
89088,note_on,,,,,0,0,13,,,,,5,,,67,100
89088,note_on,,,,,64,0,14,,,,,5,,,52,100
89216,note_off,,,,,128,0,8,,,,,0,,,79,100
89216,note_off,,,,,128,0,9,,,,,1,,,76,100
89280,note_on,,,,,64,0,8,,,,,0,,,78,70
89280,note_on,,,,,64,0,9,,,,,1,,,75,70
89344,note_off,,,,,256,0,13,,,,,5,,,64,100
89344,note_off,,,,,64,0,8,,,,,0,,,78,100
89344,note_off,,,,,0,0,13,,,,,5,,,71,100
89344,note_off,,,,,0,0,13,,,,,5,,,67,100
89344,note_off,,,,,256,0,11,,,,,3,,,52,100
89344,note_off,,,,,256,0,12,,,,,4,,,40,100
89344,note_off,,,,,64,0,9,,,,,1,,,75,100
89344,note_off,,,,,256,0,14,,,,,5,,,52,100
89376,note_on,,,,,32,0,9,,,,,1,,,76,70
89376,note_on,,,,,32,0,8,,,,,0,,,79,70
89440,note_off,,,,,64,0,9,,,,,1,,,76,100
89440,note_off,,,,,64,0,8,,,,,0,,,79,100
89472,note_on,,,,,32,0,9,,,,,1,,,78,70
89472,note_on,,,,,32,0,8,,,,,0,,,81,70
89600,note_off,,,,,128,0,9,,,,,1,,,78,100
89600,note_off,,,,,128,0,8,,,,,0,,,81,100
89664,note_on,,,,,0,0,13,,,,,5,,,67,100
89664,note_on,,,,,320,0,11,,,,,3,,,52,60
89664,note_on,,,,,64,0,9,,,,,1,,,76,70
89664,note_on,,,,,320,0,13,,,,,5,,,64,100
89664,note_on,,,,,320,0,14,,,,,5,,,52,100
89664,note_on,,,,,320,0,12,,,,,4,,,40,60
89664,note_on,,,,,64,0,8,,,,,0,,,79,70
89792,note_off,,,,,128,0,9,,,,,1,,,76,100
89792,note_off,,,,,128,0,13,,,,,5,,,64,100
89792,note_off,,,,,0,0,13,,,,,5,,,67,100
89792,note_off,,,,,128,0,14,,,,,5,,,52,100
89792,note_off,,,,,128,0,8,,,,,0,,,79,100
89792,note_off,,,,,128,0,11,,,,,3,,,52,100
89792,note_off,,,,,128,0,12,,,,,4,,,40,100
89856,note_on,,,,,64,0,8,,,,,0,,,78,85
89856,note_on,,,,,64,0,9,,,,,1,,,75,85
89856,note_on,,,,,64,0,13,,,,,5,,,63,100
89856,note_on,,,,,0,0,13,,,,,5,,,66,100
89856,note_on,,,,,64,0,14,,,,,5,,,47,100
89856,note_on,,,,,5888,0,10,,,,,2,,,59,70
89856,note_on,,,,,64,0,12,,,,,4,,,35,60
89856,note_on,,,,,64,0,11,,,,,3,,,47,60
89984,note_off,,,,,128,0,10,,,,,2,,,59,100
90048,note_on,,,,,192,0,8,,,,,0,,,78,85
90048,note_on,,,,,192,0,9,,,,,1,,,75,85
90048,note_on,,,,,64,0,10,,,,,2,,,59,70
90112,note_off,,,,,0,0,9,,,,,1,,,75,100
90112,note_off,,,,,64,0,9,,,,,1,,,75,100
90112,note_off,,,,,64,0,8,,,,,0,,,78,100
90112,note_off,,,,,0,0,8,,,,,0,,,78,100
90112,note_off,,,,,256,0,11,,,,,3,,,47,100
90112,note_off,,,,,0,0,13,,,,,5,,,66,100
90112,note_off,,,,,256,0,13,,,,,5,,,63,100
90112,note_off,,,,,256,0,12,,,,,4,,,35,100
90112,note_off,,,,,256,0,14,,,,,5,,,47,100
90144,note_on,,,,,32,0,8,,,,,0,,,76,85
90144,note_on,,,,,32,0,9,,,,,1,,,73,85
90176,note_off,,,,,128,0,10,,,,,2,,,59,100
90208,note_off,,,,,64,0,8,,,,,0,,,76,100
90208,note_off,,,,,64,0,9,,,,,1,,,73,100
90240,note_on,,,,,32,0,8,,,,,0,,,78,85
90240,note_on,,,,,32,0,9,,,,,1,,,75,85
90240,note_on,,,,,64,0,10,,,,,2,,,59,70
90368,note_off,,,,,128,0,9,,,,,1,,,75,100
90368,note_off,,,,,128,0,10,,,,,2,,,59,100
90368,note_off,,,,,128,0,8,,,,,0,,,78,100
90432,note_on,,,,,64,0,8,,,,,0,,,78,85
90432,note_on,,,,,64,0,9,,,,,1,,,75,85
90432,note_on,,,,,64,0,10,,,,,2,,,59,70
90560,note_off,,,,,128,0,10,,,,,2,,,59,100
90560,note_off,,,,,128,0,9,,,,,1,,,75,100
90560,note_off,,,,,128,0,8,,,,,0,,,78,100
90624,note_on,,,,,64,0,10,,,,,2,,,64,70
90624,note_on,,,,,64,0,8,,,,,0,,,79,85
90624,note_on,,,,,64,0,9,,,,,1,,,76,85
90752,note_off,,,,,128,0,9,,,,,1,,,76,100
90752,note_off,,,,,128,0,8,,,,,0,,,79,100
90752,note_off,,,,,128,0,10,,,,,2,,,64,100
90816,note_on,,,,,64,0,10,,,,,2,,,59,70
90816,note_on,,,,,64,0,9,,,,,1,,,75,85
90816,note_on,,,,,64,0,8,,,,,0,,,78,85
90880,note_off,,,,,64,0,9,,,,,1,,,75,100
90880,note_off,,,,,64,0,8,,,,,0,,,78,100
90912,note_on,,,,,32,0,9,,,,,1,,,73,85
90912,note_on,,,,,32,0,8,,,,,0,,,76,85
90944,note_off,,,,,128,0,10,,,,,2,,,59,100
90976,note_off,,,,,64,0,9,,,,,1,,,73,100
90976,note_off,,,,,64,0,8,,,,,0,,,76,100
91008,note_on,,,,,64,0,10,,,,,2,,,59,70
91008,note_on,,,,,32,0,9,,,,,1,,,75,85
91008,note_on,,,,,32,0,8,,,,,0,,,78,85
91136,note_off,,,,,128,0,9,,,,,1,,,75,100
91136,note_off,,,,,128,0,10,,,,,2,,,59,100
91136,note_off,,,,,128,0,8,,,,,0,,,78,100
91200,note_on,,,,,64,0,9,,,,,1,,,75,85
91200,note_on,,,,,64,0,8,,,,,0,,,78,85
91200,note_on,,,,,64,0,10,,,,,2,,,59,70
91328,note_off,,,,,128,0,8,,,,,0,,,78,100
91328,note_off,,,,,128,0,10,,,,,2,,,59,100
91328,note_off,,,,,128,0,9,,,,,1,,,75,100
91392,note_on,,,,,64,0,10,,,,,2,,,64,70
91392,note_on,,,,,64,0,8,,,,,0,,,79,85
91392,note_on,,,,,64,0,9,,,,,1,,,76,85
91520,note_off,,,,,128,0,10,,,,,2,,,64,100
91520,note_off,,,,,128,0,9,,,,,1,,,76,100
91520,note_off,,,,,128,0,8,,,,,0,,,79,100
91584,note_on,,,,,64,0,8,,,,,0,,,78,85
91584,note_on,,,,,64,0,9,,,,,1,,,75,85
91584,note_on,,,,,64,0,10,,,,,2,,,59,70
91648,note_off,,,,,64,0,8,,,,,0,,,78,100
91648,note_off,,,,,64,0,9,,,,,1,,,75,100
91680,note_on,,,,,32,0,8,,,,,0,,,76,85
91680,note_on,,,,,32,0,9,,,,,1,,,73,85
91712,note_off,,,,,128,0,10,,,,,2,,,59,100
91744,note_off,,,,,64,0,8,,,,,0,,,76,100
91744,note_off,,,,,64,0,9,,,,,1,,,73,100
91776,note_on,,,,,32,0,8,,,,,0,,,78,85
91776,note_on,,,,,32,0,9,,,,,1,,,75,85
91776,note_on,,,,,64,0,10,,,,,2,,,59,70
91904,note_off,,,,,128,0,9,,,,,1,,,75,100
91904,note_off,,,,,128,0,10,,,,,2,,,59,100
91904,note_off,,,,,128,0,8,,,,,0,,,78,100
91968,note_on,,,,,64,0,10,,,,,2,,,59,70
91968,note_on,,,,,64,0,8,,,,,0,,,78,85
91968,note_on,,,,,64,0,9,,,,,1,,,75,85
92096,note_off,,,,,128,0,9,,,,,1,,,75,100
92096,note_off,,,,,128,0,8,,,,,0,,,78,100
92096,note_off,,,,,128,0,10,,,,,2,,,59,100
92160,note_on,,,,,64,0,9,,,,,1,,,76,85
92160,note_on,,,,,64,0,8,,,,,0,,,79,85
92160,note_on,,,,,64,0,10,,,,,2,,,64,70
92288,note_off,,,,,128,0,9,,,,,1,,,76,100
92288,note_off,,,,,128,0,8,,,,,0,,,79,100
92352,note_on,,,,,64,0,9,,,,,1,,,76,85
92352,note_on,,,,,64,0,8,,,,,0,,,79,85
92416,note_off,,,,,256,0,10,,,,,2,,,64,100
92480,note_off,,,,,128,0,8,,,,,0,,,79,100
92480,note_off,,,,,128,0,9,,,,,1,,,76,100
92544,note_on,,,,,64,0,8,,,,,0,,,80,85
92544,note_on,,,,,128,0,10,,,,,2,,,62,70
92544,note_on,,,,,64,0,9,,,,,1,,,76,85
92672,note_off,,,,,128,0,9,,,,,1,,,76,100
92672,note_off,,,,,128,0,8,,,,,0,,,80,100
92736,note_on,,,,,64,0,8,,,,,0,,,80,85
92736,note_on,,,,,64,0,9,,,,,1,,,76,85
92800,note_off,,,,,256,0,10,,,,,2,,,62,100
92864,note_off,,,,,128,0,8,,,,,0,,,80,100
92864,note_off,,,,,128,0,9,,,,,1,,,76,100
92928,note_on,,,,,64,0,9,,,,,1,,,76,85
92928,note_on,,,,,128,0,10,,,,,2,,,61,70
92928,note_on,,,,,64,0,8,,,,,0,,,81,85
93056,note_off,,,,,128,0,9,,,,,1,,,76,100
93056,note_off,,,,,128,0,8,,,,,0,,,81,100
93120,note_on,,,,,64,0,9,,,,,1,,,76,85
93120,note_on,,,,,64,0,8,,,,,0,,,81,85
93184,note_off,,,,,256,0,10,,,,,2,,,61,100
93248,note_off,,,,,128,0,8,,,,,0,,,81,100
93248,note_off,,,,,128,0,9,,,,,1,,,76,100
93312,note_on,,,,,64,0,9,,,,,1,,,76,85
93312,note_on,,,,,64,0,8,,,,,0,,,82,85
93312,note_on,,,,,128,0,10,,,,,2,,,66,70
93440,note_off,,,,,128,0,9,,,,,1,,,76,100
93440,note_off,,,,,128,0,8,,,,,0,,,82,100
93504,note_on,,,,,64,0,8,,,,,0,,,82,85
93504,note_on,,,,,64,0,9,,,,,1,,,76,85
93568,note_off,,,,,256,0,10,,,,,2,,,66,100
93632,note_off,,,,,128,0,8,,,,,0,,,82,100
93632,note_off,,,,,128,0,9,,,,,1,,,76,100
93696,note_on,,,,,128,0,10,,,,,2,,,59,85
93696,note_on,,,,,64,0,8,,,,,0,,,83,85
93696,note_on,,,,,64,0,9,,,,,1,,,75,85
93824,note_off,,,,,128,0,8,,,,,0,,,83,100
93824,note_off,,,,,128,0,10,,,,,2,,,59,100
93888,note_on,,,,,64,0,10,,,,,2,,,71,85
93888,note_on,,,,,64,0,8,,,,,0,,,71,85
93952,note_off,,,,,256,0,9,,,,,1,,,75,100
94016,note_off,,,,,128,0,8,,,,,0,,,71,100
94016,note_off,,,,,128,0,10,,,,,2,,,71,100
94080,note_on,,,,,64,0,10,,,,,2,,,72,85
94080,note_on,,,,,64,0,8,,,,,0,,,76,85
94208,note_off,,,,,128,0,8,,,,,0,,,76,100
94208,note_off,,,,,128,0,10,,,,,2,,,72,100
94272,note_on,,,,,64,0,8,,,,,0,,,81,85
94272,note_on,,,,,320,0,9,,,,,1,,,76,85
94272,note_on,,,,,64,0,10,,,,,2,,,69,85
94400,note_off,,,,,128,0,8,,,,,0,,,81,100
94400,note_off,,,,,128,0,10,,,,,2,,,69,100
94400,note_off,,,,,128,0,9,,,,,1,,,76,100
94464,note_on,,,,,64,0,8,,,,,0,,,79,85
94464,note_on,,,,,64,0,9,,,,,1,,,76,85
94464,note_on,,,,,64,0,10,,,,,2,,,71,85
94720,note_off,,,,,256,0,9,,,,,1,,,76,100
94720,note_off,,,,,256,0,10,,,,,2,,,71,100
94720,note_off,,,,,256,0,8,,,,,0,,,79,100
94848,note_on,,,,,128,0,9,,,,,1,,,75,85
94848,note_on,,,,,128,0,10,,,,,2,,,59,85
94848,note_on,,,,,128,0,8,,,,,0,,,78,85
95104,note_off,,,,,256,0,9,,,,,1,,,75,100
95104,note_off,,,,,256,0,8,,,,,0,,,78,100
95104,note_off,,,,,256,0,10,,,,,2,,,59,100
95232,note_on,,,,,128,0,8,,,,,0,,,76,85
95232,note_on,,,,,128,0,10,,,,,2,,,64,85
95232,note_on,,,,,128,0,9,,,,,1,,,76,85
95360,note_off,,,,,128,0,10,,,,,2,,,64,100
95424,note_on,,,,,192,0,9,,,,,1,,,75,70
95424,note_on,,,,,64,0,10,,,,,2,,,59,55
95424,note_on,,,,,192,0,8,,,,,0,,,78,70
95488,note_off,,,,,64,0,9,,,,,1,,,76,100
95488,note_off,,,,,64,0,8,,,,,0,,,76,100
95488,note_off,,,,,0,0,8,,,,,0,,,78,100
95488,note_off,,,,,0,0,9,,,,,1,,,75,100
95520,note_on,,,,,32,0,8,,,,,0,,,76,70
95520,note_on,,,,,32,0,9,,,,,1,,,73,70
95552,note_off,,,,,128,0,10,,,,,2,,,59,100
95584,note_off,,,,,64,0,8,,,,,0,,,76,100
95584,note_off,,,,,64,0,9,,,,,1,,,73,100
95616,note_on,,,,,32,0,8,,,,,0,,,78,70
95616,note_on,,,,,32,0,9,,,,,1,,,75,70
95616,note_on,,,,,64,0,10,,,,,2,,,59,55
95744,note_off,,,,,128,0,8,,,,,0,,,78,100
95744,note_off,,,,,128,0,9,,,,,1,,,75,100
95744,note_off,,,,,128,0,10,,,,,2,,,59,100
95808,note_on,,,,,64,0,9,,,,,1,,,75,70
95808,note_on,,,,,64,0,10,,,,,2,,,59,55
95808,note_on,,,,,64,0,8,,,,,0,,,78,70
95936,note_off,,,,,128,0,8,,,,,0,,,78,100
95936,note_off,,,,,128,0,9,,,,,1,,,75,100
95936,note_off,,,,,128,0,10,,,,,2,,,59,100
96000,note_on,,,,,64,0,8,,,,,0,,,79,70
96000,note_on,,,,,64,0,10,,,,,2,,,64,55
96000,note_on,,,,,64,0,9,,,,,1,,,76,70
96128,note_off,,,,,128,0,10,,,,,2,,,64,100
96128,note_off,,,,,128,0,9,,,,,1,,,76,100
96128,note_off,,,,,128,0,8,,,,,0,,,79,100
96192,note_on,,,,,64,0,8,,,,,0,,,78,70
96192,note_on,,,,,64,0,10,,,,,2,,,59,55
96192,note_on,,,,,64,0,9,,,,,1,,,75,70
96256,note_off,,,,,64,0,8,,,,,0,,,78,100
96256,note_off,,,,,64,0,9,,,,,1,,,75,100
96288,note_on,,,,,32,0,8,,,,,0,,,76,70
96288,note_on,,,,,32,0,9,,,,,1,,,73,70
96320,note_off,,,,,128,0,10,,,,,2,,,59,100
96352,note_off,,,,,64,0,9,,,,,1,,,73,100
96352,note_off,,,,,64,0,8,,,,,0,,,76,100
96384,note_on,,,,,64,0,10,,,,,2,,,59,55
96384,note_on,,,,,32,0,9,,,,,1,,,75,70
96384,note_on,,,,,32,0,8,,,,,0,,,78,70
96512,note_off,,,,,128,0,9,,,,,1,,,75,100
96512,note_off,,,,,128,0,8,,,,,0,,,78,100
96512,note_off,,,,,128,0,10,,,,,2,,,59,100
96576,note_on,,,,,64,0,8,,,,,0,,,78,70
96576,note_on,,,,,64,0,9,,,,,1,,,75,70
96576,note_on,,,,,64,0,10,,,,,2,,,59,55
96704,note_off,,,,,128,0,8,,,,,0,,,78,100
96704,note_off,,,,,128,0,10,,,,,2,,,59,100
96704,note_off,,,,,128,0,9,,,,,1,,,75,100
96768,note_on,,,,,64,0,10,,,,,2,,,64,55
96768,note_on,,,,,64,0,9,,,,,1,,,76,70
96768,note_on,,,,,64,0,8,,,,,0,,,79,70
96896,note_off,,,,,128,0,9,,,,,1,,,76,100
96896,note_off,,,,,128,0,8,,,,,0,,,79,100
96896,note_off,,,,,128,0,10,,,,,2,,,64,100
96960,note_on,,,,,64,0,8,,,,,0,,,78,70
96960,note_on,,,,,64,0,9,,,,,1,,,75,70
96960,note_on,,,,,64,0,10,,,,,2,,,59,55
97024,note_off,,,,,64,0,8,,,,,0,,,78,100
97024,note_off,,,,,64,0,9,,,,,1,,,75,100
97056,note_on,,,,,32,0,8,,,,,0,,,76,70
97056,note_on,,,,,32,0,9,,,,,1,,,73,70
97088,note_off,,,,,128,0,10,,,,,2,,,59,100
97120,note_off,,,,,64,0,9,,,,,1,,,73,100
97120,note_off,,,,,64,0,8,,,,,0,,,76,100
97152,note_on,,,,,64,0,10,,,,,2,,,59,55
97152,note_on,,,,,32,0,9,,,,,1,,,75,70
97152,note_on,,,,,32,0,8,,,,,0,,,78,70
97280,note_off,,,,,128,0,8,,,,,0,,,78,100
97280,note_off,,,,,128,0,9,,,,,1,,,75,100
97280,note_off,,,,,128,0,10,,,,,2,,,59,100
97344,note_on,,,,,64,0,10,,,,,2,,,59,55
97344,note_on,,,,,64,0,9,,,,,1,,,75,70
97344,note_on,,,,,64,0,8,,,,,0,,,78,70
97472,note_off,,,,,128,0,10,,,,,2,,,59,100
97472,note_off,,,,,128,0,9,,,,,1,,,75,100
97472,note_off,,,,,128,0,8,,,,,0,,,78,100
97536,note_on,,,,,64,0,10,,,,,2,,,64,55
97536,note_on,,,,,64,0,8,,,,,0,,,79,70
97536,note_on,,,,,64,0,9,,,,,1,,,76,70
97664,note_off,,,,,128,0,8,,,,,0,,,79,100
97664,note_off,,,,,128,0,9,,,,,1,,,76,100
97728,note_on,,,,,64,0,9,,,,,1,,,76,70
97728,note_on,,,,,64,0,8,,,,,0,,,79,70
97792,note_off,,,,,256,0,10,,,,,2,,,64,100
97856,note_off,,,,,128,0,9,,,,,1,,,76,100
97856,note_off,,,,,128,0,8,,,,,0,,,79,100
97920,note_on,,,,,64,0,9,,,,,1,,,76,70
97920,note_on,,,,,128,0,10,,,,,2,,,62,55
97920,note_on,,,,,64,0,8,,,,,0,,,80,70
98048,note_off,,,,,128,0,9,,,,,1,,,76,100
98048,note_off,,,,,128,0,8,,,,,0,,,80,100
98112,note_on,,,,,64,0,9,,,,,1,,,76,70
98112,note_on,,,,,64,0,8,,,,,0,,,80,70
98176,note_off,,,,,256,0,10,,,,,2,,,62,100
98240,note_off,,,,,128,0,9,,,,,1,,,76,100
98240,note_off,,,,,128,0,8,,,,,0,,,80,100
98304,note_on,,,,,64,0,9,,,,,1,,,76,70
98304,note_on,,,,,64,0,8,,,,,0,,,81,70
98304,note_on,,,,,128,0,10,,,,,2,,,61,55
98432,note_off,,,,,128,0,8,,,,,0,,,81,100
98432,note_off,,,,,128,0,9,,,,,1,,,76,100
98496,note_on,,,,,64,0,8,,,,,0,,,81,70
98496,note_on,,,,,64,0,9,,,,,1,,,76,70
98560,note_off,,,,,256,0,10,,,,,2,,,61,100
98624,note_off,,,,,128,0,9,,,,,1,,,76,100
98624,note_off,,,,,128,0,8,,,,,0,,,81,100
98688,note_on,,,,,128,0,10,,,,,2,,,66,55
98688,note_on,,,,,64,0,8,,,,,0,,,82,70
98688,note_on,,,,,64,0,9,,,,,1,,,76,70
98816,note_off,,,,,128,0,9,,,,,1,,,76,100
98816,note_off,,,,,128,0,8,,,,,0,,,82,100
98880,note_on,,,,,64,0,9,,,,,1,,,76,70
98880,note_on,,,,,64,0,8,,,,,0,,,82,70
98944,note_off,,,,,256,0,10,,,,,2,,,66,100
99008,note_off,,,,,128,0,9,,,,,1,,,76,100
99008,note_off,,,,,128,0,8,,,,,0,,,82,100
99072,note_on,,,,,64,0,9,,,,,1,,,75,70
99072,note_on,,,,,128,0,10,,,,,2,,,59,70
99072,note_on,,,,,64,0,8,,,,,0,,,83,70
99200,note_off,,,,,128,0,10,,,,,2,,,59,100
99200,note_off,,,,,128,0,8,,,,,0,,,83,100
99264,note_on,,,,,64,0,8,,,,,0,,,71,70
99264,note_on,,,,,64,0,10,,,,,2,,,71,70
99328,note_off,,,,,256,0,9,,,,,1,,,75,100
99392,note_off,,,,,128,0,10,,,,,2,,,71,100
99392,note_off,,,,,128,0,8,,,,,0,,,71,100
99456,note_on,,,,,64,0,10,,,,,2,,,72,70
99456,note_on,,,,,64,0,8,,,,,0,,,76,70
99584,note_off,,,,,128,0,10,,,,,2,,,72,100
99584,note_off,,,,,128,0,8,,,,,0,,,76,100
99648,note_on,,,,,64,0,8,,,,,0,,,81,70
99648,note_on,,,,,64,0,10,,,,,2,,,69,70
99648,note_on,,,,,320,0,9,,,,,1,,,76,70
99776,note_off,,,,,128,0,9,,,,,1,,,76,100
99776,note_off,,,,,128,0,8,,,,,0,,,81,100
99776,note_off,,,,,128,0,10,,,,,2,,,69,100
99840,note_on,,,,,64,0,8,,,,,0,,,79,70
99840,note_on,,,,,64,0,9,,,,,1,,,76,70
99840,note_on,,,,,64,0,10,,,,,2,,,71,70
100096,note_off,,,,,256,0,8,,,,,0,,,79,100
100096,note_off,,,,,256,0,10,,,,,2,,,71,100
100096,note_off,,,,,256,0,9,,,,,1,,,76,100
100224,note_on,,,,,128,0,9,,,,,1,,,75,70
100224,note_on,,,,,128,0,10,,,,,2,,,59,70
100224,note_on,,,,,128,0,8,,,,,0,,,78,70
100480,note_off,,,,,256,0,9,,,,,1,,,75,100
100480,note_off,,,,,256,0,10,,,,,2,,,59,100
100480,note_off,,,,,256,0,8,,,,,0,,,78,100
100604,program_change,,,,,124,0,9,,,,,1,48,,,
100604,program_change,,,,,124,0,8,,,,,0,48,,,
100608,note_on,,,,,128,0,10,,,,,2,,,71,85
100608,note_on,,,,,10496,0,14,,,,,5,,,64,100
100608,note_on,,,,,0,0,8,,,,,0,,,79,85
100608,note_on,,,,,4,0,8,,,,,0,,,76,85
100608,note_on,,,,,0,0,13,,,,,5,,,71,100
100608,note_on,,,,,10496,0,13,,,,,5,,,67,100
100608,note_on,,,,,10496,0,11,,,,,3,,,64,85
100608,note_on,,,,,10496,0,12,,,,,4,,,52,85
100608,note_on,,,,,4,0,9,,,,,1,,,76,85
100736,note_off,,,,,128,0,14,,,,,5,,,64,100
100736,note_off,,,,,128,0,10,,,,,2,,,71,100
100736,note_off,,,,,128,0,12,,,,,4,,,52,100
100736,note_off,,,,,128,0,8,,,,,0,,,76,100
100736,note_off,,,,,0,0,8,,,,,0,,,79,100
100736,note_off,,,,,128,0,13,,,,,5,,,67,100
100736,note_off,,,,,128,0,11,,,,,3,,,64,100
100736,note_off,,,,,128,0,9,,,,,1,,,76,100
100736,note_off,,,,,0,0,13,,,,,5,,,71,100
100800,note_on,,,,,64,0,9,,,,,1,,,76,85
100800,note_on,,,,,64,0,8,,,,,0,,,79,85
100928,note_off,,,,,128,0,8,,,,,0,,,79,100
100928,note_off,,,,,128,0,9,,,,,1,,,76,100
100992,note_on,,,,,256,0,12,,,,,4,,,40,85
100992,note_on,,,,,0,0,13,,,,,5,,,67,100
100992,note_on,,,,,64,0,9,,,,,1,,,76,85
100992,note_on,,,,,256,0,14,,,,,5,,,52,100
100992,note_on,,,,,256,0,10,,,,,2,,,71,85
100992,note_on,,,,,64,0,8,,,,,0,,,79,85
100992,note_on,,,,,256,0,11,,,,,3,,,52,85
100992,note_on,,,,,256,0,13,,,,,5,,,59,100
101120,note_off,,,,,128,0,14,,,,,5,,,52,100
101120,note_off,,,,,128,0,13,,,,,5,,,59,100
101120,note_off,,,,,128,0,10,,,,,2,,,71,100
101120,note_off,,,,,128,0,12,,,,,4,,,40,100
101120,note_off,,,,,128,0,8,,,,,0,,,79,100
101120,note_off,,,,,128,0,11,,,,,3,,,52,100
101120,note_off,,,,,128,0,9,,,,,1,,,76,100
101120,note_off,,,,,0,0,13,,,,,5,,,67,100
101184,note_on,,,,,64,0,8,,,,,0,,,81,85
101184,note_on,,,,,64,0,9,,,,,1,,,78,85
101248,note_off,,,,,64,0,9,,,,,1,,,78,100
101248,note_off,,,,,64,0,8,,,,,0,,,81,100
101280,note_on,,,,,32,0,9,,,,,1,,,76,85
101280,note_on,,,,,32,0,8,,,,,0,,,79,85
101344,note_off,,,,,64,0,9,,,,,1,,,76,100
101344,note_off,,,,,64,0,8,,,,,0,,,79,100
101376,note_on,,,,,256,0,10,,,,,2,,,71,85
101376,note_on,,,,,256,0,12,,,,,4,,,47,85
101376,note_on,,,,,256,0,11,,,,,3,,,59,85
101376,note_on,,,,,256,0,13,,,,,5,,,66,100
101376,note_on,,,,,0,0,13,,,,,5,,,75,100
101376,note_on,,,,,32,0,8,,,,,0,,,78,85
101376,note_on,,,,,32,0,9,,,,,1,,,75,85
101376,note_on,,,,,256,0,14,,,,,5,,,59,100
101504,note_off,,,,,128,0,12,,,,,4,,,47,100
101504,note_off,,,,,128,0,11,,,,,3,,,59,100
101504,note_off,,,,,128,0,10,,,,,2,,,71,100
101504,note_off,,,,,128,0,9,,,,,1,,,75,100
101504,note_off,,,,,128,0,14,,,,,5,,,59,100
101504,note_off,,,,,0,0,13,,,,,5,,,75,100
101504,note_off,,,,,128,0,13,,,,,5,,,66,100
101504,note_off,,,,,128,0,8,,,,,0,,,78,100
101568,note_on,,,,,64,0,9,,,,,1,,,73,86
101568,note_on,,,,,64,0,8,,,,,0,,,76,86
101632,note_off,,,,,64,0,9,,,,,1,,,73,100
101632,note_off,,,,,64,0,8,,,,,0,,,76,100
101664,note_on,,,,,32,0,8,,,,,0,,,78,86
101664,note_on,,,,,32,0,9,,,,,1,,,75,86
101728,note_off,,,,,64,0,9,,,,,1,,,75,100
101728,note_off,,,,,64,0,8,,,,,0,,,78,100
101760,note_on,,,,,256,0,11,,,,,3,,,52,87
101760,note_on,,,,,32,0,8,,,,,0,,,79,87
101760,note_on,,,,,256,0,10,,,,,2,,,71,87
101760,note_on,,,,,256,0,12,,,,,4,,,40,87
101760,note_on,,,,,0,0,13,,,,,5,,,71,100
101760,note_on,,,,,256,0,13,,,,,5,,,67,100
101760,note_on,,,,,32,0,9,,,,,1,,,76,87
101760,note_on,,,,,256,0,14,,,,,5,,,52,100
101888,note_off,,,,,128,0,14,,,,,5,,,52,100
101888,note_off,,,,,128,0,8,,,,,0,,,79,100
101888,note_off,,,,,128,0,10,,,,,2,,,71,100
101888,note_off,,,,,0,0,13,,,,,5,,,71,100
101888,note_off,,,,,128,0,11,,,,,3,,,52,100
101888,note_off,,,,,128,0,13,,,,,5,,,67,100
101888,note_off,,,,,128,0,9,,,,,1,,,76,100
101888,note_off,,,,,128,0,12,,,,,4,,,40,100
101952,note_on,,,,,64,0,9,,,,,1,,,78,88
101952,note_on,,,,,64,0,8,,,,,0,,,81,88
102016,note_off,,,,,64,0,9,,,,,1,,,78,100
102016,note_off,,,,,64,0,8,,,,,0,,,81,100
102048,note_on,,,,,32,0,9,,,,,1,,,76,89
102048,note_on,,,,,32,0,8,,,,,0,,,79,89
102112,note_off,,,,,64,0,9,,,,,1,,,76,100
102112,note_off,,,,,64,0,8,,,,,0,,,79,100
102144,note_on,,,,,32,0,9,,,,,1,,,75,89
102144,note_on,,,,,256,0,12,,,,,4,,,47,89
102144,note_on,,,,,0,0,13,,,,,5,,,75,100
102144,note_on,,,,,256,0,13,,,,,5,,,66,100
102144,note_on,,,,,256,0,14,,,,,5,,,59,100
102144,note_on,,,,,32,0,8,,,,,0,,,78,89
102144,note_on,,,,,256,0,10,,,,,2,,,71,89
102144,note_on,,,,,256,0,11,,,,,3,,,59,89
102272,note_off,,,,,128,0,9,,,,,1,,,75,100
102272,note_off,,,,,128,0,12,,,,,4,,,47,100
102272,note_off,,,,,128,0,11,,,,,3,,,59,100
102272,note_off,,,,,128,0,14,,,,,5,,,59,100
102272,note_off,,,,,0,0,13,,,,,5,,,75,100
102272,note_off,,,,,128,0,13,,,,,5,,,66,100
102272,note_off,,,,,128,0,8,,,,,0,,,78,100
102272,note_off,,,,,128,0,10,,,,,2,,,71,100
102336,note_on,,,,,64,0,9,,,,,1,,,73,90
102336,note_on,,,,,64,0,8,,,,,0,,,76,90
102400,note_off,,,,,64,0,8,,,,,0,,,76,100
102400,note_off,,,,,64,0,9,,,,,1,,,73,100
102432,note_on,,,,,32,0,9,,,,,1,,,75,91
102432,note_on,,,,,32,0,8,,,,,0,,,78,91
102496,note_off,,,,,64,0,9,,,,,1,,,75,100
102496,note_off,,,,,64,0,8,,,,,0,,,78,100
102528,note_on,,,,,32,0,8,,,,,0,,,79,91
102528,note_on,,,,,32,0,9,,,,,1,,,76,91
102528,note_on,,,,,0,0,13,,,,,5,,,71,100
102528,note_on,,,,,256,0,11,,,,,3,,,52,91
102528,note_on,,,,,256,0,13,,,,,5,,,67,100
102528,note_on,,,,,256,0,14,,,,,5,,,52,100
102528,note_on,,,,,256,0,10,,,,,2,,,71,91
102528,note_on,,,,,256,0,12,,,,,4,,,40,91
102656,note_off,,,,,128,0,12,,,,,4,,,40,100
102656,note_off,,,,,128,0,10,,,,,2,,,71,100
102656,note_off,,,,,128,0,13,,,,,5,,,67,100
102656,note_off,,,,,128,0,14,,,,,5,,,52,100
102656,note_off,,,,,128,0,8,,,,,0,,,79,100
102656,note_off,,,,,128,0,11,,,,,3,,,52,100
102656,note_off,,,,,128,0,9,,,,,1,,,76,100
102656,note_off,,,,,0,0,13,,,,,5,,,71,100
102720,note_on,,,,,64,0,9,,,,,1,,,78,93
102720,note_on,,,,,64,0,8,,,,,0,,,81,93
102784,note_off,,,,,64,0,9,,,,,1,,,78,100
102784,note_off,,,,,64,0,8,,,,,0,,,81,100
102816,note_on,,,,,32,0,9,,,,,1,,,76,93
102816,note_on,,,,,32,0,8,,,,,0,,,79,93
102880,note_off,,,,,64,0,9,,,,,1,,,76,100
102880,note_off,,,,,64,0,8,,,,,0,,,79,100
102912,note_on,,,,,256,0,10,,,,,2,,,71,94
102912,note_on,,,,,256,0,13,,,,,5,,,66,100
102912,note_on,,,,,256,0,12,,,,,4,,,47,94
102912,note_on,,,,,0,0,13,,,,,5,,,75,100
102912,note_on,,,,,256,0,14,,,,,5,,,59,100
102912,note_on,,,,,32,0,8,,,,,0,,,78,94
102912,note_on,,,,,32,0,9,,,,,1,,,75,94
102912,note_on,,,,,256,0,11,,,,,3,,,59,94
102976,note_off,,,,,64,0,12,,,,,4,,,47,100
102976,note_off,,,,,64,0,14,,,,,5,,,59,100
102976,note_off,,,,,64,0,11,,,,,3,,,59,100
103008,note_on,,,,,32,0,14,,,,,5,,,61,100
103008,note_on,,,,,32,0,12,,,,,4,,,49,94
103008,note_on,,,,,32,0,11,,,,,3,,,61,94
103040,note_off,,,,,128,0,9,,,,,1,,,75,100
103040,note_off,,,,,128,0,8,,,,,0,,,78,100
103040,note_off,,,,,128,0,13,,,,,5,,,66,100
103040,note_off,,,,,0,0,13,,,,,5,,,75,100
103040,note_off,,,,,128,0,10,,,,,2,,,71,100
103072,note_off,,,,,64,0,12,,,,,4,,,49,100
103072,note_off,,,,,64,0,11,,,,,3,,,61,100
103072,note_off,,,,,64,0,14,,,,,5,,,61,100
103104,note_on,,,,,32,0,14,,,,,5,,,63,100
103104,note_on,,,,,32,0,12,,,,,4,,,51,95
103104,note_on,,,,,32,0,11,,,,,3,,,63,95
103168,note_off,,,,,64,0,14,,,,,5,,,63,100
103168,note_off,,,,,64,0,11,,,,,3,,,63,100
103168,note_off,,,,,64,0,12,,,,,4,,,51,100
103200,note_on,,,,,32,0,11,,,,,3,,,59,95
103200,note_on,,,,,32,0,14,,,,,5,,,59,100
103200,note_on,,,,,32,0,12,,,,,4,,,47,95
103264,note_off,,,,,64,0,11,,,,,3,,,59,100
103264,note_off,,,,,64,0,14,,,,,5,,,59,100
103264,note_off,,,,,64,0,12,,,,,4,,,47,100
103296,note_on,,,,,0,0,13,,,,,5,,,67,100
103296,note_on,,,,,0,0,13,,,,,5,,,71,100
103296,note_on,,,,,256,0,8,,,,,0,,,79,96
103296,note_on,,,,,32,0,11,,,,,3,,,52,96
103296,note_on,,,,,256,0,9,,,,,1,,,76,96
103296,note_on,,,,,256,0,13,,,,,5,,,76,100
103296,note_on,,,,,32,0,14,,,,,5,,,52,100
103296,note_on,,,,,256,0,10,,,,,2,,,71,96
103296,note_on,,,,,32,0,12,,,,,4,,,40,96
103360,note_off,,,,,64,0,14,,,,,5,,,52,100
103360,note_off,,,,,64,0,12,,,,,4,,,40,100
103360,note_off,,,,,64,0,11,,,,,3,,,52,100
103392,note_on,,,,,32,0,14,,,,,5,,,54,100
103392,note_on,,,,,32,0,12,,,,,4,,,42,97
103392,note_on,,,,,32,0,11,,,,,3,,,54,97
103424,note_off,,,,,128,0,10,,,,,2,,,71,100
103424,note_off,,,,,128,0,13,,,,,5,,,76,100
103424,note_off,,,,,0,0,13,,,,,5,,,67,100
103424,note_off,,,,,0,0,13,,,,,5,,,71,100
103424,note_off,,,,,128,0,9,,,,,1,,,76,100
103424,note_off,,,,,128,0,8,,,,,0,,,79,100
103456,note_off,,,,,64,0,12,,,,,4,,,42,100
103456,note_off,,,,,64,0,11,,,,,3,,,54,100
103456,note_off,,,,,64,0,14,,,,,5,,,54,100
103488,note_on,,,,,32,0,12,,,,,4,,,43,97
103488,note_on,,,,,32,0,14,,,,,5,,,55,100
103488,note_on,,,,,32,0,11,,,,,3,,,55,97
103552,note_off,,,,,64,0,14,,,,,5,,,55,100
103552,note_off,,,,,64,0,11,,,,,3,,,55,100
103552,note_off,,,,,64,0,12,,,,,4,,,43,100
103584,note_on,,,,,32,0,12,,,,,4,,,40,98
103584,note_on,,,,,32,0,14,,,,,5,,,52,100
103584,note_on,,,,,32,0,11,,,,,3,,,52,98
103648,note_off,,,,,64,0,14,,,,,5,,,52,100
103648,note_off,,,,,64,0,12,,,,,4,,,40,100
103648,note_off,,,,,64,0,11,,,,,3,,,52,100
103680,note_on,,,,,256,0,10,,,,,2,,,71,98
103680,note_on,,,,,256,0,13,,,,,5,,,66,100
103680,note_on,,,,,0,0,13,,,,,5,,,75,100
103680,note_on,,,,,32,0,11,,,,,3,,,59,98
103680,note_on,,,,,32,0,14,,,,,5,,,59,100
103680,note_on,,,,,32,0,12,,,,,4,,,47,98
103680,note_on,,,,,256,0,8,,,,,0,,,78,98
103680,note_on,,,,,256,0,9,,,,,1,,,75,98
103744,note_off,,,,,64,0,11,,,,,3,,,59,100
103744,note_off,,,,,64,0,12,,,,,4,,,47,100
103744,note_off,,,,,64,0,14,,,,,5,,,59,100
103776,note_on,,,,,32,0,12,,,,,4,,,49,99
103776,note_on,,,,,32,0,11,,,,,3,,,61,99
103776,note_on,,,,,32,0,14,,,,,5,,,61,100
103808,note_off,,,,,128,0,13,,,,,5,,,66,100
103808,note_off,,,,,128,0,8,,,,,0,,,78,100
103808,note_off,,,,,128,0,10,,,,,2,,,71,100
103808,note_off,,,,,128,0,9,,,,,1,,,75,100
103808,note_off,,,,,0,0,13,,,,,5,,,75,100
103840,note_off,,,,,64,0,11,,,,,3,,,61,100
103840,note_off,,,,,64,0,14,,,,,5,,,61,100
103840,note_off,,,,,64,0,12,,,,,4,,,49,100
103872,note_on,,,,,32,0,12,,,,,4,,,51,99
103872,note_on,,,,,32,0,11,,,,,3,,,63,99
103872,note_on,,,,,32,0,14,,,,,5,,,63,100
103936,note_off,,,,,64,0,14,,,,,5,,,63,100
103936,note_off,,,,,64,0,11,,,,,3,,,63,100
103936,note_off,,,,,64,0,12,,,,,4,,,51,100
103968,note_on,,,,,32,0,14,,,,,5,,,59,100
103968,note_on,,,,,32,0,11,,,,,3,,,59,100
103968,note_on,,,,,32,0,12,,,,,4,,,47,100
104032,note_off,,,,,64,0,11,,,,,3,,,59,100
104032,note_off,,,,,64,0,14,,,,,5,,,59,100
104032,note_off,,,,,64,0,12,,,,,4,,,47,100
104064,note_on,,,,,32,0,12,,,,,4,,,40,101
104064,note_on,,,,,256,0,10,,,,,2,,,71,101
104064,note_on,,,,,32,0,14,,,,,5,,,52,100
104064,note_on,,,,,0,0,13,,,,,5,,,67,100
104064,note_on,,,,,256,0,8,,,,,0,,,79,101
104064,note_on,,,,,256,0,13,,,,,5,,,76,100
104064,note_on,,,,,32,0,11,,,,,3,,,52,101
104064,note_on,,,,,0,0,13,,,,,5,,,71,100
104064,note_on,,,,,256,0,9,,,,,1,,,76,101
104128,note_off,,,,,64,0,11,,,,,3,,,52,100
104128,note_off,,,,,64,0,12,,,,,4,,,40,100
104128,note_off,,,,,64,0,14,,,,,5,,,52,100
104160,note_on,,,,,32,0,11,,,,,3,,,54,101
104160,note_on,,,,,32,0,12,,,,,4,,,42,101
104160,note_on,,,,,32,0,14,,,,,5,,,54,100
104192,note_off,,,,,128,0,13,,,,,5,,,76,100
104192,note_off,,,,,0,0,13,,,,,5,,,67,100
104192,note_off,,,,,0,0,13,,,,,5,,,71,100
104192,note_off,,,,,128,0,8,,,,,0,,,79,100
104192,note_off,,,,,128,0,10,,,,,2,,,71,100
104192,note_off,,,,,128,0,9,,,,,1,,,76,100
104224,note_off,,,,,64,0,14,,,,,5,,,54,100
104224,note_off,,,,,64,0,11,,,,,3,,,54,100
104224,note_off,,,,,64,0,12,,,,,4,,,42,100
104256,note_on,,,,,32,0,14,,,,,5,,,55,100
104256,note_on,,,,,32,0,11,,,,,3,,,55,102
104256,note_on,,,,,32,0,12,,,,,4,,,43,102
104320,note_off,,,,,64,0,14,,,,,5,,,55,100
104320,note_off,,,,,64,0,11,,,,,3,,,55,100
104320,note_off,,,,,64,0,12,,,,,4,,,43,100
104352,note_on,,,,,32,0,14,,,,,5,,,52,100
104352,note_on,,,,,32,0,11,,,,,3,,,52,102
104352,note_on,,,,,32,0,12,,,,,4,,,40,102
104416,note_off,,,,,64,0,14,,,,,5,,,52,100
104416,note_off,,,,,64,0,12,,,,,4,,,40,100
104416,note_off,,,,,64,0,11,,,,,3,,,52,100
104448,note_on,,,,,32,0,12,,,,,4,,,47,103
104448,note_on,,,,,256,0,13,,,,,5,,,66,100
104448,note_on,,,,,32,0,14,,,,,5,,,59,100
104448,note_on,,,,,32,0,11,,,,,3,,,59,103
104448,note_on,,,,,0,0,13,,,,,5,,,75,100
104448,note_on,,,,,256,0,10,,,,,2,,,71,103
104448,note_on,,,,,256,0,8,,,,,0,,,78,103
104448,note_on,,,,,256,0,9,,,,,1,,,75,103
104512,note_off,,,,,64,0,11,,,,,3,,,59,100
104512,note_off,,,,,64,0,14,,,,,5,,,59,100
104512,note_off,,,,,64,0,12,,,,,4,,,47,100
104544,note_on,,,,,32,0,12,,,,,4,,,49,103
104544,note_on,,,,,32,0,14,,,,,5,,,61,100
104544,note_on,,,,,32,0,11,,,,,3,,,61,103
104576,note_off,,,,,128,0,13,,,,,5,,,66,100
104576,note_off,,,,,0,0,13,,,,,5,,,75,100
104608,note_off,,,,,64,0,12,,,,,4,,,49,100
104608,note_off,,,,,64,0,14,,,,,5,,,61,100
104608,note_off,,,,,64,0,11,,,,,3,,,61,100
104640,note_on,,,,,32,0,12,,,,,4,,,51,104
104640,note_on,,,,,32,0,11,,,,,3,,,63,104
104640,note_on,,,,,32,0,14,,,,,5,,,63,100
104704,note_off,,,,,256,0,10,,,,,2,,,71,100
104704,note_off,,,,,64,0,14,,,,,5,,,63,100
104704,note_off,,,,,256,0,8,,,,,0,,,78,100
104704,note_off,,,,,64,0,12,,,,,4,,,51,100
104704,note_off,,,,,256,0,9,,,,,1,,,75,100
104704,note_off,,,,,64,0,11,,,,,3,,,63,100
104736,note_on,,,,,32,0,12,,,,,4,,,47,105
104736,note_on,,,,,32,0,11,,,,,3,,,59,105
104736,note_on,,,,,32,0,14,,,,,5,,,59,100
104800,note_off,,,,,64,0,12,,,,,4,,,47,100
104800,note_off,,,,,64,0,11,,,,,3,,,59,100
104800,note_off,,,,,64,0,14,,,,,5,,,59,100
104832,note_on,,,,,32,0,11,,,,,3,,,52,105
104832,note_on,,,,,32,0,12,,,,,4,,,40,105
104832,note_on,,,,,32,0,14,,,,,5,,,52,100
104896,note_off,,,,,64,0,14,,,,,5,,,52,100
104896,note_off,,,,,64,0,11,,,,,3,,,52,100
104896,note_off,,,,,64,0,12,,,,,4,,,40,100
104928,note_on,,,,,32,0,14,,,,,5,,,54,100
104928,note_on,,,,,32,0,11,,,,,3,,,54,106
104928,note_on,,,,,32,0,12,,,,,4,,,42,106
104992,note_off,,,,,64,0,12,,,,,4,,,42,100
104992,note_off,,,,,64,0,14,,,,,5,,,54,100
104992,note_off,,,,,64,0,11,,,,,3,,,54,100
105024,note_on,,,,,320,0,10,,,,,2,,,71,106
105024,note_on,,,,,32,0,11,,,,,3,,,55,106
105024,note_on,,,,,320,0,8,,,,,0,,,83,106
105024,note_on,,,,,32,0,14,,,,,5,,,55,100
105024,note_on,,,,,32,0,12,,,,,4,,,43,106
105024,note_on,,,,,320,0,9,,,,,1,,,79,106
105088,note_off,,,,,64,0,11,,,,,3,,,55,100
105088,note_off,,,,,64,0,14,,,,,5,,,55,100
105088,note_off,,,,,64,0,12,,,,,4,,,43,100
105120,note_on,,,,,32,0,14,,,,,5,,,52,100
105120,note_on,,,,,32,0,11,,,,,3,,,52,107
105120,note_on,,,,,32,0,12,,,,,4,,,40,107
105152,note_off,,,,,128,0,8,,,,,0,,,83,100
105152,note_off,,,,,128,0,9,,,,,1,,,79,100
105152,note_off,,,,,128,0,10,,,,,2,,,71,100
105184,note_off,,,,,64,0,12,,,,,4,,,40,100
105184,note_off,,,,,64,0,11,,,,,3,,,52,100
105184,note_off,,,,,64,0,14,,,,,5,,,52,100
105216,note_on,,,,,64,0,10,,,,,2,,,69,108
105216,note_on,,,,,0,0,13,,,,,5,,,72,100
105216,note_on,,,,,640,0,13,,,,,5,,,76,100
105216,note_on,,,,,64,0,8,,,,,0,,,84,108
105216,note_on,,,,,32,0,12,,,,,4,,,45,108
105216,note_on,,,,,32,0,14,,,,,5,,,57,100
105216,note_on,,,,,64,0,9,,,,,1,,,76,108
105216,note_on,,,,,32,0,11,,,,,3,,,57,108
105344,note_off,,,,,128,0,8,,,,,0,,,84,100
105344,note_off,,,,,128,0,9,,,,,1,,,76,100
105408,note_on,,,,,64,0,9,,,,,1,,,74,107
105408,note_on,,,,,64,0,8,,,,,0,,,83,107
105536,note_off,,,,,128,0,9,,,,,1,,,74,100
105536,note_off,,,,,128,0,8,,,,,0,,,83,100
105600,note_off,,,,,384,0,14,,,,,5,,,57,100
105600,note_off,,,,,384,0,10,,,,,2,,,69,100
105600,note_on,,,,,64,0,9,,,,,1,,,72,105
105600,note_on,,,,,64,0,8,,,,,0,,,81,105
105600,note_off,,,,,0,0,13,,,,,5,,,72,100
105600,note_off,,,,,384,0,13,,,,,5,,,76,100
105600,note_off,,,,,384,0,11,,,,,3,,,57,100
105600,note_off,,,,,384,0,12,,,,,4,,,45,100
105728,note_off,,,,,128,0,9,,,,,1,,,72,100
105728,note_off,,,,,128,0,8,,,,,0,,,81,100
105792,note_on,,,,,192,0,10,,,,,2,,,71,103
105792,note_on,,,,,64,0,8,,,,,0,,,79,103
105792,note_on,,,,,0,0,13,,,,,5,,,71,100
105792,note_on,,,,,192,0,11,,,,,3,,,64,103
105792,note_on,,,,,192,0,12,,,,,4,,,52,103
105792,note_on,,,,,192,0,13,,,,,5,,,67,100
105792,note_on,,,,,64,0,9,,,,,1,,,71,103
105792,note_on,,,,,192,0,14,,,,,5,,,64,100
105920,note_off,,,,,128,0,14,,,,,5,,,64,100
105920,note_off,,,,,128,0,9,,,,,1,,,71,100
105920,note_off,,,,,128,0,8,,,,,0,,,79,100
105920,note_off,,,,,128,0,12,,,,,4,,,52,100
105920,note_off,,,,,0,0,13,,,,,5,,,71,100
105920,note_off,,,,,128,0,13,,,,,5,,,67,100
105920,note_off,,,,,128,0,10,,,,,2,,,71,100
105920,note_off,,,,,128,0,11,,,,,3,,,64,100
105984,note_on,,,,,64,0,9,,,,,1,,,69,101
105984,note_on,,,,,64,0,14,,,,,5,,,57,100
105984,note_on,,,,,64,0,8,,,,,0,,,77,101
105984,note_on,,,,,0,0,13,,,,,5,,,72,100
105984,note_on,,,,,64,0,13,,,,,5,,,65,100
105984,note_on,,,,,64,0,11,,,,,3,,,57,101
105984,note_on,,,,,64,0,10,,,,,2,,,72,101
105984,set_tempo,,,,,101376,1,0,,500000,,,,,,,
105984,note_on,,,,,64,0,12,,,,,4,,,45,101
106060,set_tempo,,,,,76,1,0,,504201,,,,,,,
106112,note_off,,,,,128,0,11,,,,,3,,,57,100
106112,note_off,,,,,128,0,10,,,,,2,,,72,100
106112,note_off,,,,,0,0,13,,,,,5,,,72,100
106112,note_off,,,,,128,0,14,,,,,5,,,57,100
106112,note_off,,,,,128,0,13,,,,,5,,,65,100
106112,note_off,,,,,128,0,9,,,,,1,,,69,100
106112,note_off,,,,,128,0,12,,,,,4,,,45,100
106112,note_off,,,,,128,0,8,,,,,0,,,77,100
106136,set_tempo,,,,,76,1,0,,508474,,,,,,,
106176,note_on,,,,,64,0,8,,,,,0,,,75,100
106176,note_on,,,,,64,0,14,,,,,5,,,59,100
106176,note_on,,,,,64,0,10,,,,,2,,,71,100
106176,note_on,,,,,64,0,9,,,,,1,,,78,100
106176,note_on,,,,,64,0,11,,,,,3,,,59,100
106176,note_on,,,,,64,0,13,,,,,5,,,66,100
106176,note_on,,,,,64,0,12,,,,,4,,,47,100
106176,note_on,,,,,0,0,13,,,,,5,,,75,100
106212,set_tempo,,,,,76,1,0,,512820,,,,,,,
106288,set_tempo,,,,,76,1,0,,517241,,,,,,,
106304,note_off,,,,,0,0,13,,,,,5,,,75,100
106304,note_off,,,,,128,0,11,,,,,3,,,59,100
106304,note_off,,,,,128,0,12,,,,,4,,,47,100
106304,note_off,,,,,128,0,10,,,,,2,,,71,100
106304,note_off,,,,,128,0,14,,,,,5,,,59,100
106304,note_off,,,,,128,0,13,,,,,5,,,66,100
106304,note_off,,,,,128,0,8,,,,,0,,,75,100
106304,note_off,,,,,128,0,9,,,,,1,,,78,100
106368,note_on,,,,,64,0,12,,,,,4,,,43,100
106368,note_on,,,,,64,0,8,,,,,0,,,76,100
106368,set_tempo,,,,,80,1,0,,521739,,,,,,,
106368,note_on,,,,,64,0,14,,,,,5,,,55,100
106368,note_on,,,,,64,0,13,,,,,5,,,76,100
106368,note_on,,,,,64,0,11,,,,,3,,,55,100
106368,note_on,,,,,64,0,9,,,,,1,,,79,100
106368,note_on,,,,,0,0,13,,,,,5,,,71,100
106368,note_on,,,,,64,0,10,,,,,2,,,71,100
106404,set_tempo,,,,,36,1,0,,526315,,,,,,,
106444,set_tempo,,,,,40,1,0,,530973,,,,,,,
106480,set_tempo,,,,,36,1,0,,535714,,,,,,,
106496,note_off,,,,,128,0,13,,,,,5,,,76,100
106496,note_off,,,,,128,0,10,,,,,2,,,71,100
106496,note_off,,,,,128,0,12,,,,,4,,,43,100
106496,note_off,,,,,128,0,11,,,,,3,,,55,100
106496,note_off,,,,,128,0,14,,,,,5,,,55,100
106496,note_off,,,,,128,0,8,,,,,0,,,76,100
106496,note_off,,,,,0,0,13,,,,,5,,,71,100
106496,note_off,,,,,128,0,9,,,,,1,,,79,100
106520,set_tempo,,,,,40,1,0,,540540,,,,,,,
106560,note_on,,,,,64,0,13,,,,,5,,,72,100
106560,note_on,,,,,0,0,13,,,,,5,,,76,100
106560,note_on,,,,,64,0,10,,,,,2,,,72,103
106560,note_on,,,,,64,0,11,,,,,3,,,57,103
106560,note_on,,,,,64,0,12,,,,,4,,,45,103
106560,note_on,,,,,64,0,9,,,,,1,,,76,103
106560,note_on,,,,,64,0,14,,,,,5,,,57,100
106560,note_on,,,,,64,0,8,,,,,0,,,81,103
106560,set_tempo,,,,,40,1,0,,545454,,,,,,,
106596,set_tempo,,,,,36,1,0,,550458,,,,,,,
106636,set_tempo,,,,,40,1,0,,555555,,,,,,,
106672,set_tempo,,,,,36,1,0,,560747,,,,,,,
106688,note_off,,,,,128,0,11,,,,,3,,,57,100
106688,note_off,,,,,128,0,8,,,,,0,,,81,100
106688,note_off,,,,,128,0,14,,,,,5,,,57,100
106688,note_off,,,,,0,0,13,,,,,5,,,76,100
106688,note_off,,,,,128,0,9,,,,,1,,,76,100
106688,note_off,,,,,128,0,13,,,,,5,,,72,100
106688,note_off,,,,,128,0,10,,,,,2,,,72,100
106688,note_off,,,,,128,0,12,,,,,4,,,45,100
106712,set_tempo,,,,,40,1,0,,566037,,,,,,,
106752,note_on,,,,,0,0,13,,,,,5,,,67,100
106752,note_on,,,,,64,0,13,,,,,5,,,71,100
106752,note_on,,,,,64,0,14,,,,,5,,,59,100
106752,note_on,,,,,0,0,13,,,,,5,,,76,100
106752,note_on,,,,,64,0,10,,,,,2,,,71,106
106752,note_on,,,,,64,0,12,,,,,4,,,47,106
106752,set_tempo,,,,,40,1,0,,571428,,,,,,,
106752,note_on,,,,,64,0,11,,,,,3,,,59,106
106752,note_on,,,,,64,0,9,,,,,1,,,76,106
106752,note_on,,,,,64,0,8,,,,,0,,,79,106
106764,set_tempo,,,,,12,1,0,,576923,,,,,,,
106780,set_tempo,,,,,16,1,0,,582524,,,,,,,
106796,set_tempo,,,,,16,1,0,,588235,,,,,,,
106812,set_tempo,,,,,16,1,0,,594059,,,,,,,
106828,set_tempo,,,,,16,1,0,,600000,,,,,,,
106844,set_tempo,,,,,16,1,0,,606060,,,,,,,
106856,set_tempo,,,,,12,1,0,,612244,,,,,,,
106872,set_tempo,,,,,16,1,0,,618556,,,,,,,
106888,set_tempo,,,,,16,1,0,,625000,,,,,,,
106904,set_tempo,,,,,16,1,0,,631578,,,,,,,
106920,set_tempo,,,,,16,1,0,,638297,,,,,,,
106936,set_tempo,,,,,16,1,0,,645161,,,,,,,
106948,set_tempo,,,,,12,1,0,,652173,,,,,,,
106964,set_tempo,,,,,16,1,0,,659340,,,,,,,
106980,set_tempo,,,,,16,1,0,,666666,,,,,,,
106996,set_tempo,,,,,16,1,0,,674157,,,,,,,
107008,note_off,,,,,256,0,10,,,,,2,,,71,100
107008,note_off,,,,,0,0,13,,,,,5,,,67,100
107008,note_off,,,,,256,0,12,,,,,4,,,47,100
107008,note_off,,,,,0,0,13,,,,,5,,,76,100
107008,note_off,,,,,256,0,14,,,,,5,,,59,100
107008,note_off,,,,,256,0,8,,,,,0,,,79,100
107008,note_off,,,,,256,0,13,,,,,5,,,71,100
107008,note_off,,,,,256,0,9,,,,,1,,,76,100
107008,note_off,,,,,256,0,11,,,,,3,,,59,100
107012,set_tempo,,,,,16,1,0,,681818,,,,,,,
107028,set_tempo,,,,,16,1,0,,689655,,,,,,,
107040,set_tempo,,,,,12,1,0,,697674,,,,,,,
107056,set_tempo,,,,,16,1,0,,705882,,,,,,,
107072,set_tempo,,,,,16,1,0,,714285,,,,,,,
107088,set_tempo,,,,,16,1,0,,722891,,,,,,,
107104,set_tempo,,,,,16,1,0,,731707,,,,,,,
107120,set_tempo,,,,,16,1,0,,740740,,,,,,,
107136,note_on,,,,,128,0,14,,,,,5,,,47,100
107136,note_on,,,,,128,0,8,,,,,0,,,78,113
107136,note_on,,,,,128,0,12,,,,,4,,,35,113
107136,note_on,,,,,128,0,11,,,,,3,,,47,113
107136,note_on,,,,,128,0,10,,,,,2,,,71,113
107136,note_on,,,,,128,0,9,,,,,1,,,75,113
107136,set_tempo,,,,,16,1,0,,750000,,,,,,,
107136,note_on,,,,,0,0,13,,,,,5,,,66,100
107136,note_on,,,,,0,0,13,,,,,5,,,75,100
107136,note_on,,,,,128,0,13,,,,,5,,,71,100
107148,set_tempo,,,,,12,1,0,,759493,,,,,,,
107160,set_tempo,,,,,12,1,0,,769230,,,,,,,
107172,set_tempo,,,,,12,1,0,,779220,,,,,,,
107184,set_tempo,,,,,12,1,0,,789473,,,,,,,
107200,set_tempo,,,,,16,1,0,,800000,,,,,,,
107212,set_tempo,,,,,12,1,0,,810810,,,,,,,
107224,set_tempo,,,,,12,1,0,,821917,,,,,,,
107236,set_tempo,,,,,12,1,0,,833333,,,,,,,
107248,set_tempo,,,,,12,1,0,,845070,,,,,,,
107264,set_tempo,,,,,16,1,0,,857142,,,,,,,
107276,set_tempo,,,,,12,1,0,,869565,,,,,,,
107288,set_tempo,,,,,12,1,0,,882352,,,,,,,
107300,set_tempo,,,,,12,1,0,,895522,,,,,,,
107312,set_tempo,,,,,12,1,0,,909090,,,,,,,
107328,set_tempo,,,,,16,1,0,,923076,,,,,,,
107340,set_tempo,,,,,12,1,0,,937500,,,,,,,
107352,set_tempo,,,,,12,1,0,,952380,,,,,,,
107364,set_tempo,,,,,12,1,0,,967741,,,,,,,
107376,set_tempo,,,,,12,1,0,,983606,,,,,,,
107392,note_off,,,,,0,0,13,,,,,5,,,66,100
107392,note_off,,,,,0,0,13,,,,,5,,,75,100
107392,note_off,,,,,256,0,14,,,,,5,,,47,100
107392,note_off,,,,,256,0,10,,,,,2,,,71,100
107392,note_off,,,,,256,0,12,,,,,4,,,35,100
107392,note_off,,,,,256,0,11,,,,,3,,,47,100
107392,note_off,,,,,256,0,13,,,,,5,,,71,100
107392,note_off,,,,,256,0,9,,,,,1,,,75,100
107392,note_off,,,,,256,0,8,,,,,0,,,78,100
107392,set_tempo,,,,,16,1,0,,1000000,,,,,,,
107404,set_tempo,,,,,12,1,0,,1016949,,,,,,,
107416,set_tempo,,,,,12,1,0,,1034482,,,,,,,
107428,set_tempo,,,,,12,1,0,,1052631,,,,,,,
107440,set_tempo,,,,,12,1,0,,1071428,,,,,,,
107456,set_tempo,,,,,16,1,0,,1090909,,,,,,,
107468,set_tempo,,,,,12,1,0,,1111111,,,,,,,
107480,set_tempo,,,,,12,1,0,,1132075,,,,,,,
107492,set_tempo,,,,,12,1,0,,1153846,,,,,,,
107504,set_tempo,,,,,12,1,0,,1176470,,,,,,,
107520,note_on,,,,,128,0,11,,,,,3,,,52,119
107520,note_on,,,,,128,0,12,,,,,4,,,40,119
107520,note_on,,,,,128,0,14,,,,,5,,,52,100
107520,note_on,,,,,128,0,9,,,,,1,,,76,119
107520,note_on,,,,,128,0,8,,,,,0,,,76,119
107520,note_on,,,,,128,0,10,,,,,2,,,67,119
107520,end_of_track,,,,,0,1,0,,,,,,,,,
107520,set_tempo,,,,,16,1,0,,1714285,,,,,,,
107528,note_on,,,,,136,0,13,,,,,5,,,64,100
107548,note_on,,,,,20,0,13,,,,,5,,,67,100
107580,note_on,,,,,32,0,13,,,,,5,,,71,100
107612,note_on,,,,,32,0,13,,,,,5,,,76,100
108032,note_off,,,,,512,0,12,,,,,4,,,40,100
108032,end_of_track,,,,,0,1,14,,,,,,,,,
108032,end_of_track,,,,,0,1,9,,,,,,,,,
108032,note_off,,,,,512,0,10,,,,,2,,,67,100
108032,end_of_track,,,,,0,1,10,,,,,,,,,
108032,note_off,,,,,512,0,8,,,,,0,,,76,100
108032,end_of_track,,,,,0,1,12,,,,,,,,,
108032,note_off,,,,,512,0,14,,,,,5,,,52,100
108032,note_off,,,,,512,0,11,,,,,3,,,52,100
108032,end_of_track,,,,,0,1,11,,,,,,,,,
108032,note_off,,,,,512,0,9,,,,,1,,,76,100
108040,note_off,,,,,428,0,13,,,,,5,,,64,100
108060,note_off,,,,,20,0,13,,,,,5,,,67,100
108092,note_off,,,,,32,0,13,,,,,5,,,71,100
108124,end_of_track,,,,,0,1,13,,,,,,,,,
108124,note_off,,,,,32,0,13,,,,,5,,,76,100
108672,end_of_track,,,,,0,1,8,,,,,,,,,
108672,program_change,,,,,640,0,8,,,,,0,48,,,
