tick,type,numerator,denominator,clocks_per_click,notated_32nd_notes_per_beat,time,meta,track,data,tempo,control,value,channel,program,key,note,velocity
0,time_signature,4,4,96,8,0,1,0,,,,,,,,,
0,control_change,,,,,0,0,5,,,0,0,0,,,,
0,program_change,,,,,0,0,5,,,,,0,40,,,
0,control_change,,,,,0,0,5,,,7,100,0,,,,
0,control_change,,,,,0,0,5,,,10,64,0,,,,
0,control_change,,,,,0,0,5,,,91,64,0,,,,
0,key_signature,,,,,0,1,5,,,,,,,Dm,,
0,end_of_track,,,,,0,1,5,,,,,,,,,
0,track_name,,,,,0,1,6,,,,,,,,,
0,track_name,,,,,0,1,10,,,,,,,,,
0,program_change,,,,,0,0,6,,,,,0,40,,,
0,control_change,,,,,0,0,6,,,7,100,0,,,,
0,control_change,,,,,0,0,6,,,10,64,0,,,,
0,control_change,,,,,0,0,6,,,91,64,0,,,,
0,key_signature,,,,,0,1,6,,,,,,,Dm,,
0,end_of_track,,,,,0,1,6,,,,,,,,,
0,track_name,,,,,0,1,5,,,,,,,,,
0,track_name,,,,,0,1,7,,,,,,,,,
0,end_of_track,,,,,0,1,4,,,,,,,,,
0,control_change,,,,,0,0,4,,,91,64,0,,,,
0,track_name,,,,,0,1,2,,,,,,,,,
0,end_of_track,,,,,0,1,2,,,,,,,,,
0,track_name,,,,,0,1,3,,,,,,,,,
0,control_change,,,,,0,0,3,,,0,0,0,,,,
0,control_change,,,,,0,0,3,,,7,100,0,,,,
0,control_change,,,,,0,0,3,,,10,64,0,,,,
0,control_change,,,,,0,0,3,,,91,64,0,,,,
0,program_change,,,,,0,0,3,,,,,0,40,,,
0,key_signature,,,,,0,1,3,,,,,,,Dm,,
0,end_of_track,,,,,0,1,3,,,,,,,,,
0,track_name,,,,,0,1,4,,,,,,,,,
0,control_change,,,,,0,0,4,,,0,0,0,,,,
0,program_change,,,,,0,0,4,,,,,0,40,,,
0,control_change,,,,,0,0,4,,,7,100,0,,,,
0,control_change,,,,,0,0,4,,,10,64,0,,,,
0,key_signature,,,,,0,1,4,,,,,,,Dm,,
0,control_change,,,,,0,0,7,,,0,0,0,,,,
0,program_change,,,,,0,0,7,,,,,0,40,,,
0,control_change,,,,,0,0,7,,,7,100,0,,,,
0,control_change,,,,,0,0,15,,,7,55,7,,,,
0,control_change,,,,,0,0,15,,,91,65,7,,,,
0,key_signature,,,,,0,1,15,,,,,,,Dm,,
0,key_signature,,,,,0,1,11,,,,,,,Dm,,
0,control_change,,,,,0,0,11,,,91,63,4,,,,
0,control_change,,,,,0,0,11,,,7,95,4,,,,
0,program_change,,,,,0,0,11,,,,,4,48,,,
0,control_change,,,,,0,0,11,,,0,0,4,,,,
0,track_name,,,,,0,1,11,,,,,,,,,
0,key_signature,,,,,0,1,10,,,,,,,Dm,,
0,control_change,,,,,0,0,10,,,91,64,3,,,,
0,control_change,,,,,0,0,10,,,10,37,3,,,,
0,control_change,,,,,0,0,10,,,7,100,3,,,,
0,program_change,,,,,0,0,10,,,,,3,48,,,
0,control_change,,,,,0,0,10,,,0,0,3,,,,
0,program_change,,,,,0,0,15,,,,,7,6,,,
0,control_change,,,,,0,0,15,,,0,0,7,,,,
0,track_name,,,,,0,1,15,,,,,,,,,
0,key_signature,,,,,0,1,14,,,,,,,Dm,,
0,control_change,,,,,0,0,7,,,10,64,0,,,,
0,control_change,,,,,0,0,7,,,91,64,0,,,,
0,key_signature,,,,,0,1,7,,,,,,,Dm,,
0,key_signature,,,,,0,1,12,,,,,,,Dm,,
0,track_name,,,,,0,1,13,,,,,,,,,
0,control_change,,,,,0,0,13,,,0,0,6,,,,
0,program_change,,,,,0,0,13,,,,,6,48,,,
0,end_of_track,,,,,0,1,1,,,,,,,,,
0,control_change,,,,,0,0,13,,,7,85,6,,,,
0,control_change,,,,,0,0,13,,,91,61,6,,,,
0,key_signature,,,,,0,1,13,,,,,,,Dm,,
0,track_name,,,,,0,1,14,,,,,,,,,
0,control_change,,,,,0,0,14,,,0,0,7,,,,
0,program_change,,,,,0,0,14,,,,,7,6,,,
0,control_change,,,,,0,0,14,,,7,55,7,,,,
0,control_change,,,,,0,0,14,,,91,65,7,,,,
0,control_change,,,,,0,0,13,,,10,89,6,,,,
0,track_name,,,,,0,1,1,,,,,,,,,
0,control_change,,,,,0,0,6,,,0,0,0,,,,
0,control_change,,,,,0,0,12,,,10,77,5,,,,
0,sequencer_specific,,,,,0,1,0,"(0, 0, 65)",,,,,,,,
0,sequencer_specific,,,,,0,1,0,"(0, 0, 119, 14, 1)",,,,,,,,
0,set_tempo,,,,,0,1,0,,500000,,,,,,,
0,control_change,,,,,0,0,12,,,91,65,5,,,,
0,key_signature,,,,,0,1,9,,,,,,,Dm,,
0,control_change,,,,,0,0,9,,,91,66,2,,,,
0,control_change,,,,,0,0,9,,,10,49,2,,,,
0,control_change,,,,,0,0,9,,,7,100,2,,,,
0,program_change,,,,,0,0,9,,,,,2,48,,,
0,control_change,,,,,0,0,9,,,0,0,2,,,,
0,track_name,,,,,0,1,9,,,,,,,,,
0,control_change,,,,,0,0,8,,,0,0,1,,,,
0,program_change,,,,,0,0,8,,,,,1,40,,,
0,control_change,,,,,0,0,8,,,7,100,1,,,,
0,control_change,,,,,0,0,8,,,10,49,1,,,,
0,control_change,,,,,0,0,8,,,91,62,1,,,,
0,track_name,,,,,0,1,12,,,,,,,,,
0,control_change,,,,,0,0,12,,,7,90,5,,,,
0,program_change,,,,,0,0,12,,,,,5,48,,,
0,control_change,,,,,0,0,12,,,0,0,5,,,,
0,key_signature,,,,,0,1,8,,,,,,,Dm,,
0,track_name,,,,,0,1,8,,,,,,,,,
1344,note_on,,,,,1344,0,8,,,,,1,,,69,85
1472,note_off,,,,,128,0,8,,,,,1,,,69,100
1536,set_tempo,,,,,1536,1,0,,500000,,,,,,,
1536,note_on,,,,,64,0,8,,,,,1,,,74,86
1664,note_off,,,,,128,0,8,,,,,1,,,74,100
1728,note_on,,,,,64,0,8,,,,,1,,,74,87
1856,note_off,,,,,128,0,8,,,,,1,,,74,100
1920,note_on,,,,,64,0,8,,,,,1,,,74,88
2048,note_off,,,,,128,0,8,,,,,1,,,74,100
2112,note_on,,,,,64,0,8,,,,,1,,,74,89
2112,note_on,,,,,2112,0,7,,,,,0,,,69,85
2240,note_off,,,,,128,0,8,,,,,1,,,74,100
2240,note_off,,,,,128,0,7,,,,,0,,,69,100
2304,note_on,,,,,64,0,7,,,,,0,,,76,86
2304,note_on,,,,,64,0,8,,,,,1,,,74,90
2432,note_off,,,,,128,0,7,,,,,0,,,76,100
2432,note_off,,,,,128,0,8,,,,,1,,,74,100
2496,note_on,,,,,64,0,8,,,,,1,,,73,92
2496,note_on,,,,,64,0,7,,,,,0,,,76,87
2624,note_off,,,,,128,0,8,,,,,1,,,73,100
2624,note_off,,,,,128,0,7,,,,,0,,,76,100
2688,note_on,,,,,64,0,7,,,,,0,,,76,89
2688,note_on,,,,,64,0,8,,,,,1,,,73,93
2816,note_off,,,,,128,0,7,,,,,0,,,76,100
2816,note_off,,,,,128,0,8,,,,,1,,,73,100
2880,note_on,,,,,64,0,7,,,,,0,,,76,90
2880,note_on,,,,,64,0,8,,,,,1,,,69,94
3008,note_off,,,,,128,0,7,,,,,0,,,76,100
3008,note_off,,,,,128,0,8,,,,,1,,,69,100
3072,note_on,,,,,64,0,8,,,,,1,,,77,95
3072,note_on,,,,,64,0,7,,,,,0,,,76,92
3116,note_off,,,,,44,0,7,,,,,0,,,76,100
3120,note_on,,,,,4,0,7,,,,,0,,,77,92
3164,note_off,,,,,44,0,7,,,,,0,,,77,100
3168,note_on,,,,,4,0,7,,,,,0,,,76,93
3200,note_off,,,,,128,0,8,,,,,1,,,77,100
3232,note_off,,,,,64,0,7,,,,,0,,,76,100
3264,note_on,,,,,64,0,8,,,,,1,,,77,96
3264,note_on,,,,,32,0,7,,,,,0,,,74,93
3392,note_off,,,,,128,0,8,,,,,1,,,77,100
3392,note_off,,,,,128,0,7,,,,,0,,,74,100
3456,note_on,,,,,64,0,8,,,,,1,,,77,98
3456,note_on,,,,,64,0,7,,,,,0,,,74,95
3584,note_off,,,,,128,0,8,,,,,1,,,77,100
3584,note_off,,,,,128,0,7,,,,,0,,,74,100
3648,note_on,,,,,64,0,8,,,,,1,,,77,99
3648,note_on,,,,,64,0,7,,,,,0,,,69,96
3776,note_off,,,,,128,0,7,,,,,0,,,69,100
3776,note_off,,,,,128,0,8,,,,,1,,,77,100
3840,note_on,,,,,64,0,7,,,,,0,,,79,98
3840,note_on,,,,,64,0,8,,,,,1,,,77,100
3884,note_off,,,,,44,0,8,,,,,1,,,77,100
3888,note_on,,,,,4,0,8,,,,,1,,,79,100
3932,note_off,,,,,44,0,8,,,,,1,,,79,100
3936,note_on,,,,,4,0,8,,,,,1,,,77,101
3968,note_off,,,,,128,0,7,,,,,0,,,79,100
4000,note_off,,,,,64,0,8,,,,,1,,,77,100
4032,note_on,,,,,32,0,8,,,,,1,,,76,101
4032,note_on,,,,,64,0,7,,,,,0,,,79,99
4160,note_off,,,,,128,0,7,,,,,0,,,79,100
4160,note_off,,,,,128,0,8,,,,,1,,,76,100
4224,note_on,,,,,64,0,7,,,,,0,,,79,101
4224,note_on,,,,,64,0,8,,,,,1,,,76,102
4352,note_off,,,,,128,0,7,,,,,0,,,79,100
4352,note_off,,,,,128,0,8,,,,,1,,,76,100
4416,note_on,,,,,64,0,7,,,,,0,,,79,102
4416,note_on,,,,,64,0,8,,,,,1,,,69,104
4544,note_off,,,,,128,0,7,,,,,0,,,79,100
4544,note_off,,,,,128,0,8,,,,,1,,,69,100
4608,note_on,,,,,64,0,8,,,,,1,,,81,105
4608,note_on,,,,,64,0,7,,,,,0,,,79,104
4652,note_off,,,,,44,0,7,,,,,0,,,79,100
4656,note_on,,,,,4,0,7,,,,,0,,,81,104
4700,note_off,,,,,44,0,7,,,,,0,,,81,100
4704,note_on,,,,,4,0,7,,,,,0,,,79,104
4736,note_off,,,,,128,0,8,,,,,1,,,81,100
4768,note_off,,,,,64,0,7,,,,,0,,,79,100
4800,note_on,,,,,32,0,7,,,,,0,,,77,105
4800,note_on,,,,,64,0,8,,,,,1,,,81,106
4928,note_off,,,,,128,0,8,,,,,1,,,81,100
4928,note_off,,,,,128,0,7,,,,,0,,,77,100
4992,note_on,,,,,64,0,8,,,,,1,,,81,107
4992,note_on,,,,,64,0,7,,,,,0,,,77,107
5120,note_off,,,,,128,0,7,,,,,0,,,77,100
5120,note_off,,,,,128,0,8,,,,,1,,,81,100
5184,note_on,,,,,64,0,8,,,,,1,,,81,108
5184,note_on,,,,,64,0,7,,,,,0,,,69,108
5312,note_off,,,,,128,0,8,,,,,1,,,81,100
5312,note_off,,,,,128,0,7,,,,,0,,,69,100
5376,note_on,,,,,64,0,7,,,,,0,,,82,110
5376,note_on,,,,,64,0,8,,,,,1,,,81,110
5504,note_off,,,,,128,0,7,,,,,0,,,82,100
5564,note_off,,,,,188,0,8,,,,,1,,,81,100
5568,note_on,,,,,4,0,8,,,,,1,,,79,106
5568,note_on,,,,,64,0,7,,,,,0,,,82,106
5696,note_off,,,,,128,0,8,,,,,1,,,79,100
5696,note_off,,,,,128,0,7,,,,,0,,,82,100
5760,note_on,,,,,64,0,7,,,,,0,,,82,101
5760,note_on,,,,,64,0,8,,,,,1,,,79,101
5888,note_off,,,,,128,0,7,,,,,0,,,82,100
5952,note_on,,,,,64,0,7,,,,,0,,,82,96
6080,note_off,,,,,128,0,7,,,,,0,,,82,100
6144,program_change,,,,,6144,0,12,,,,,5,43,,,
6144,note_on,,,,,64,0,7,,,,,0,,,82,90
6272,note_off,,,,,512,0,8,,,,,1,,,79,100
6332,note_off,,,,,188,0,7,,,,,0,,,82,100
6336,note_on,,,,,64,0,8,,,,,1,,,77,90
6336,note_on,,,,,192,0,12,,,,,5,,,62,90
6336,note_on,,,,,4,0,7,,,,,0,,,81,90
6464,note_off,,,,,128,0,12,,,,,5,,,62,100
6464,note_off,,,,,128,0,7,,,,,0,,,81,100
6464,note_off,,,,,128,0,8,,,,,1,,,77,100
6528,note_on,,,,,64,0,12,,,,,5,,,62,91
6528,note_on,,,,,64,0,8,,,,,1,,,77,91
6528,note_on,,,,,64,0,7,,,,,0,,,81,91
6656,note_off,,,,,128,0,12,,,,,5,,,62,100
6716,note_off,,,,,188,0,7,,,,,0,,,81,100
6716,note_off,,,,,188,0,8,,,,,1,,,77,100
6720,note_on,,,,,4,0,7,,,,,0,,,80,92
6720,note_on,,,,,64,0,12,,,,,5,,,62,92
6720,note_on,,,,,4,0,8,,,,,1,,,76,92
6848,note_off,,,,,128,0,7,,,,,0,,,80,100
6848,note_off,,,,,128,0,12,,,,,5,,,62,100
6848,note_off,,,,,128,0,8,,,,,1,,,76,100
6912,note_on,,,,,64,0,7,,,,,0,,,80,93
6912,note_on,,,,,64,0,12,,,,,5,,,62,93
6912,note_on,,,,,64,0,8,,,,,1,,,76,93
7040,note_off,,,,,128,0,12,,,,,5,,,62,100
7100,note_off,,,,,188,0,7,,,,,0,,,80,100
7104,note_on,,,,,4,0,7,,,,,0,,,81,94
7104,note_on,,,,,64,0,12,,,,,5,,,61,94
7232,note_off,,,,,128,0,12,,,,,5,,,61,100
7232,note_off,,,,,128,0,7,,,,,0,,,81,100
7296,note_on,,,,,64,0,12,,,,,5,,,61,94
7296,note_on,,,,,64,0,7,,,,,0,,,81,94
7424,note_off,,,,,128,0,12,,,,,5,,,61,100
7484,note_off,,,,,572,0,8,,,,,1,,,76,100
7484,note_off,,,,,188,0,7,,,,,0,,,81,100
7488,note_on,,,,,4,0,8,,,,,1,,,74,95
7488,note_on,,,,,4,0,7,,,,,0,,,78,95
7488,note_on,,,,,64,0,12,,,,,5,,,60,95
7616,note_off,,,,,128,0,7,,,,,0,,,78,100
7616,note_off,,,,,128,0,8,,,,,1,,,74,100
7616,note_off,,,,,128,0,12,,,,,5,,,60,100
7680,note_on,,,,,64,0,12,,,,,5,,,60,96
7680,note_on,,,,,64,0,8,,,,,1,,,74,96
7680,note_on,,,,,64,0,7,,,,,0,,,78,96
7808,note_off,,,,,128,0,12,,,,,5,,,60,100
7868,note_off,,,,,188,0,7,,,,,0,,,78,100
7872,note_on,,,,,64,0,12,,,,,5,,,59,97
7872,note_on,,,,,4,0,7,,,,,0,,,79,97
8000,note_off,,,,,128,0,7,,,,,0,,,79,100
8000,note_off,,,,,128,0,12,,,,,5,,,59,100
8064,note_on,,,,,64,0,7,,,,,0,,,79,98
8064,note_on,,,,,64,0,12,,,,,5,,,59,98
8192,note_off,,,,,128,0,12,,,,,5,,,59,100
8252,note_off,,,,,188,0,7,,,,,0,,,79,100
8252,note_off,,,,,572,0,8,,,,,1,,,74,100
8256,note_on,,,,,4,0,8,,,,,1,,,72,99
8256,note_on,,,,,4,0,7,,,,,0,,,76,99
8256,note_on,,,,,64,0,12,,,,,5,,,58,99
8384,note_off,,,,,128,0,7,,,,,0,,,76,100
8384,note_off,,,,,128,0,8,,,,,1,,,72,100
8384,note_off,,,,,128,0,12,,,,,5,,,58,100
8448,note_on,,,,,64,0,12,,,,,5,,,58,99
8448,note_on,,,,,64,0,7,,,,,0,,,76,99
8448,note_on,,,,,64,0,8,,,,,1,,,72,99
8636,note_off,,,,,188,0,12,,,,,5,,,58,100
8636,note_off,,,,,188,0,7,,,,,0,,,76,100
8640,note_on,,,,,4,0,7,,,,,0,,,77,100
8640,note_on,,,,,4,0,12,,,,,5,,,57,100
8768,note_off,,,,,128,0,7,,,,,0,,,77,100
8768,note_off,,,,,128,0,12,,,,,5,,,57,100
8832,note_on,,,,,64,0,12,,,,,5,,,57,101
8832,note_on,,,,,64,0,7,,,,,0,,,77,101
9020,note_off,,,,,188,0,12,,,,,5,,,57,100
9020,note_off,,,,,572,0,8,,,,,1,,,72,100
9020,note_off,,,,,188,0,7,,,,,0,,,77,100
9024,note_on,,,,,4,0,7,,,,,0,,,75,102
9024,note_on,,,,,4,0,12,,,,,5,,,55,102
9024,note_on,,,,,4,0,8,,,,,1,,,70,102
9152,note_off,,,,,128,0,7,,,,,0,,,75,100
9152,note_off,,,,,128,0,8,,,,,1,,,70,100
9152,note_off,,,,,128,0,12,,,,,5,,,55,100
9216,note_on,,,,,64,0,8,,,,,1,,,70,103
9216,note_on,,,,,64,0,7,,,,,0,,,75,103
9216,note_on,,,,,64,0,12,,,,,5,,,55,103
9344,note_off,,,,,128,0,8,,,,,1,,,70,100
9404,note_off,,,,,188,0,12,,,,,5,,,55,100
9408,note_on,,,,,4,0,12,,,,,5,,,54,104
9408,note_on,,,,,64,0,8,,,,,1,,,69,104
9472,note_off,,,,,256,0,7,,,,,0,,,75,100
9536,note_off,,,,,128,0,12,,,,,5,,,54,100
9600,note_on,,,,,128,0,7,,,,,0,,,74,106
9600,note_on,,,,,64,0,12,,,,,5,,,54,104
9664,note_off,,,,,256,0,8,,,,,1,,,69,100
9728,note_off,,,,,128,0,12,,,,,5,,,54,100
9792,note_on,,,,,64,0,12,,,,,5,,,53,105
9792,note_on,,,,,128,0,8,,,,,1,,,69,105
9920,note_off,,,,,128,0,12,,,,,5,,,53,100
9920,note_off,,,,,128,0,8,,,,,1,,,69,100
9984,note_on,,,,,64,0,12,,,,,5,,,55,106
9984,note_on,,,,,64,0,8,,,,,1,,,70,106
10112,note_off,,,,,128,0,12,,,,,5,,,55,100
10112,note_off,,,,,512,0,7,,,,,0,,,74,100
10112,note_off,,,,,128,0,8,,,,,1,,,70,100
10176,note_on,,,,,64,0,8,,,,,1,,,64,105
10176,note_on,,,,,64,0,12,,,,,5,,,55,105
10304,note_off,,,,,128,0,12,,,,,5,,,55,100
10368,note_on,,,,,256,0,7,,,,,0,,,73,103
10368,note_on,,,,,64,0,12,,,,,5,,,57,104
10432,note_off,,,,,256,0,8,,,,,1,,,64,100
10496,note_off,,,,,128,0,12,,,,,5,,,57,100
10560,note_on,,,,,128,0,8,,,,,1,,,69,102
10560,note_on,,,,,64,0,12,,,,,5,,,57,102
10624,note_off,,,,,256,0,7,,,,,0,,,73,100
10688,note_off,,,,,128,0,8,,,,,1,,,69,100
10688,note_off,,,,,128,0,12,,,,,5,,,57,100
10752,note_on,,,,,128,0,7,,,,,0,,,74,101
10752,note_on,,,,,64,0,8,,,,,1,,,65,101
10752,note_on,,,,,10752,0,9,,,,,2,,,77,85
10752,note_on,,,,,10752,0,10,,,,,3,,,69,85
10752,note_on,,,,,10752,0,15,,,,,7,,,50,100
10752,note_on,,,,,10752,0,14,,,,,7,,,69,100
10752,note_on,,,,,10752,0,13,,,,,6,,,38,85
10752,note_on,,,,,64,0,12,,,,,5,,,50,101
10752,note_on,,,,,10752,0,11,,,,,4,,,65,85
10752,note_on,,,,,0,0,14,,,,,7,,,65,100
10816,note_off,,,,,64,0,12,,,,,5,,,50,100
10848,note_on,,,,,32,0,12,,,,,5,,,62,100
10912,note_off,,,,,64,0,12,,,,,5,,,62,100
10944,note_on,,,,,32,0,12,,,,,5,,,60,100
11008,note_off,,,,,256,0,15,,,,,7,,,50,100
11008,note_off,,,,,256,0,9,,,,,2,,,77,100
11008,note_off,,,,,256,0,14,,,,,7,,,69,100
11008,note_off,,,,,256,0,7,,,,,0,,,74,100
11008,note_off,,,,,256,0,13,,,,,6,,,38,100
11008,note_off,,,,,0,0,14,,,,,7,,,65,100
11008,note_off,,,,,256,0,8,,,,,1,,,65,100
11008,note_off,,,,,64,0,12,,,,,5,,,60,100
11008,note_off,,,,,256,0,11,,,,,4,,,65,100
11008,note_off,,,,,256,0,10,,,,,3,,,69,100
11040,note_on,,,,,32,0,12,,,,,5,,,62,100
11104,note_off,,,,,64,0,12,,,,,5,,,62,100
11136,note_on,,,,,32,0,12,,,,,5,,,57,100
11200,note_off,,,,,64,0,12,,,,,5,,,57,100
11232,note_on,,,,,32,0,12,,,,,5,,,58,100
11296,note_off,,,,,64,0,12,,,,,5,,,58,100
11328,note_on,,,,,32,0,12,,,,,5,,,60,100
11392,note_off,,,,,64,0,12,,,,,5,,,60,100
11424,note_on,,,,,32,0,12,,,,,5,,,62,100
11488,note_off,,,,,64,0,12,,,,,5,,,62,100
11520,note_on,,,,,512,0,15,,,,,7,,,55,100
11520,note_on,,,,,0,0,14,,,,,7,,,74,100
11520,note_on,,,,,32,0,12,,,,,5,,,58,100
11520,note_on,,,,,512,0,10,,,,,3,,,70,85
11520,note_on,,,,,512,0,13,,,,,6,,,43,85
11520,note_on,,,,,512,0,11,,,,,4,,,67,85
11520,note_on,,,,,512,0,9,,,,,2,,,77,85
11520,note_on,,,,,512,0,14,,,,,7,,,77,100
11584,note_off,,,,,64,0,12,,,,,5,,,58,100
11616,note_on,,,,,32,0,12,,,,,5,,,62,100
11680,note_off,,,,,64,0,12,,,,,5,,,62,100
11712,note_on,,,,,32,0,12,,,,,5,,,60,100
11776,note_off,,,,,256,0,11,,,,,4,,,67,100
11776,note_off,,,,,256,0,13,,,,,6,,,43,100
11776,note_off,,,,,256,0,10,,,,,3,,,70,100
11776,note_off,,,,,256,0,9,,,,,2,,,77,100
11776,note_off,,,,,0,0,14,,,,,7,,,74,100
11776,note_off,,,,,256,0,14,,,,,7,,,77,100
11776,note_off,,,,,256,0,15,,,,,7,,,55,100
11776,note_off,,,,,64,0,12,,,,,5,,,60,100
11808,note_on,,,,,32,0,12,,,,,5,,,62,100
11872,note_off,,,,,64,0,12,,,,,5,,,62,100
11904,note_on,,,,,32,0,12,,,,,5,,,58,100
11968,note_off,,,,,64,0,12,,,,,5,,,58,100
12000,note_on,,,,,32,0,12,,,,,5,,,60,100
12064,note_off,,,,,64,0,12,,,,,5,,,60,100
12096,note_on,,,,,32,0,12,,,,,5,,,62,100
12160,note_off,,,,,64,0,12,,,,,5,,,62,100
12192,note_on,,,,,32,0,12,,,,,5,,,58,100
12256,note_off,,,,,64,0,12,,,,,5,,,58,100
12288,note_on,,,,,512,0,11,,,,,4,,,67,85
12288,note_on,,,,,512,0,13,,,,,6,,,36,85
12288,note_on,,,,,512,0,9,,,,,2,,,76,85
12288,note_on,,,,,512,0,10,,,,,3,,,70,85
12288,note_on,,,,,512,0,14,,,,,7,,,67,100
12288,note_on,,,,,0,0,14,,,,,7,,,70,100
12288,note_on,,,,,32,0,12,,,,,5,,,55,100
12288,note_on,,,,,512,0,15,,,,,7,,,48,100
12352,note_off,,,,,64,0,12,,,,,5,,,55,100
12384,note_on,,,,,32,0,12,,,,,5,,,60,100
12448,note_off,,,,,64,0,12,,,,,5,,,60,100
12480,note_on,,,,,32,0,12,,,,,5,,,58,100
12544,note_off,,,,,64,0,12,,,,,5,,,58,100
12544,note_off,,,,,256,0,13,,,,,6,,,36,100
12544,note_off,,,,,256,0,15,,,,,7,,,48,100
12544,note_off,,,,,256,0,9,,,,,2,,,76,100
12544,note_off,,,,,256,0,10,,,,,3,,,70,100
12544,note_off,,,,,256,0,11,,,,,4,,,67,100
12544,note_off,,,,,0,0,14,,,,,7,,,70,100
12544,note_off,,,,,256,0,14,,,,,7,,,67,100
12576,note_on,,,,,32,0,12,,,,,5,,,60,100
12640,note_off,,,,,64,0,12,,,,,5,,,60,100
12672,note_on,,,,,32,0,12,,,,,5,,,55,100
12736,note_off,,,,,64,0,12,,,,,5,,,55,100
12768,note_on,,,,,32,0,12,,,,,5,,,57,100
12832,note_off,,,,,64,0,12,,,,,5,,,57,100
12864,note_on,,,,,32,0,12,,,,,5,,,58,100
12928,note_off,,,,,64,0,12,,,,,5,,,58,100
12960,note_on,,,,,32,0,12,,,,,5,,,60,100
13024,note_off,,,,,64,0,12,,,,,5,,,60,100
13056,note_on,,,,,512,0,10,,,,,3,,,69,85
13056,note_on,,,,,512,0,15,,,,,7,,,53,100
13056,note_on,,,,,512,0,11,,,,,4,,,65,85
13056,note_on,,,,,512,0,9,,,,,2,,,76,85
13056,note_on,,,,,512,0,13,,,,,6,,,41,85
13056,note_on,,,,,0,0,14,,,,,7,,,76,100
13056,note_on,,,,,512,0,14,,,,,7,,,72,100
13056,note_on,,,,,32,0,12,,,,,5,,,57,100
13120,note_off,,,,,64,0,12,,,,,5,,,57,100
13152,note_on,,,,,32,0,12,,,,,5,,,60,100
13216,note_off,,,,,64,0,12,,,,,5,,,60,100
13248,note_on,,,,,32,0,12,,,,,5,,,58,100
13312,note_off,,,,,256,0,11,,,,,4,,,65,100
13312,note_off,,,,,64,0,12,,,,,5,,,58,100
13312,note_off,,,,,256,0,14,,,,,7,,,72,100
13312,note_off,,,,,0,0,14,,,,,7,,,76,100
13312,note_off,,,,,256,0,9,,,,,2,,,76,100
13312,note_off,,,,,256,0,10,,,,,3,,,69,100
13312,note_off,,,,,256,0,13,,,,,6,,,41,100
13312,note_off,,,,,256,0,15,,,,,7,,,53,100
13344,note_on,,,,,32,0,12,,,,,5,,,60,100
13408,note_off,,,,,64,0,12,,,,,5,,,60,100
13440,note_on,,,,,32,0,12,,,,,5,,,57,100
13504,note_off,,,,,64,0,12,,,,,5,,,57,100
13536,note_on,,,,,32,0,12,,,,,5,,,58,100
13600,note_off,,,,,64,0,12,,,,,5,,,58,100
13632,note_on,,,,,32,0,12,,,,,5,,,60,100
13696,note_off,,,,,64,0,12,,,,,5,,,60,100
13728,note_on,,,,,32,0,12,,,,,5,,,57,100
13792,note_off,,,,,64,0,12,,,,,5,,,57,100
13824,note_on,,,,,512,0,13,,,,,6,,,34,85
13824,note_on,,,,,0,0,14,,,,,7,,,69,100
13824,note_on,,,,,512,0,11,,,,,4,,,65,85
13824,note_on,,,,,512,0,15,,,,,7,,,46,100
13824,note_on,,,,,512,0,14,,,,,7,,,65,100
13824,note_on,,,,,32,0,12,,,,,5,,,53,100
13824,note_on,,,,,512,0,9,,,,,2,,,74,85
13824,note_on,,,,,512,0,10,,,,,3,,,69,85
13888,note_off,,,,,64,0,12,,,,,5,,,53,100
13920,note_on,,,,,32,0,12,,,,,5,,,58,100
13984,note_off,,,,,64,0,12,,,,,5,,,58,100
14016,note_on,,,,,32,0,12,,,,,5,,,57,100
14080,note_off,,,,,256,0,15,,,,,7,,,46,100
14080,note_off,,,,,0,0,14,,,,,7,,,69,100
14080,note_off,,,,,256,0,11,,,,,4,,,65,100
14080,note_off,,,,,256,0,14,,,,,7,,,65,100
14080,note_off,,,,,256,0,13,,,,,6,,,34,100
14080,note_off,,,,,64,0,12,,,,,5,,,57,100
14080,note_off,,,,,256,0,9,,,,,2,,,74,100
14080,note_off,,,,,256,0,10,,,,,3,,,69,100
14112,note_on,,,,,32,0,12,,,,,5,,,58,100
14176,note_off,,,,,64,0,12,,,,,5,,,58,100
14208,note_on,,,,,32,0,12,,,,,5,,,53,100
14272,note_off,,,,,64,0,12,,,,,5,,,53,100
14304,note_on,,,,,32,0,12,,,,,5,,,55,100
14368,note_off,,,,,64,0,12,,,,,5,,,55,100
14400,note_on,,,,,32,0,12,,,,,5,,,57,100
14464,note_off,,,,,64,0,12,,,,,5,,,57,100
14496,note_on,,,,,32,0,12,,,,,5,,,58,100
14560,note_off,,,,,64,0,12,,,,,5,,,58,100
14592,note_on,,,,,512,0,9,,,,,2,,,74,85
14592,note_on,,,,,32,0,12,,,,,5,,,55,100
14592,note_on,,,,,512,0,14,,,,,7,,,67,100
14592,note_on,,,,,0,0,14,,,,,7,,,70,100
14592,note_on,,,,,512,0,11,,,,,4,,,64,85
14592,note_on,,,,,512,0,15,,,,,7,,,40,100
14592,note_on,,,,,512,0,13,,,,,6,,,40,85
14592,note_on,,,,,512,0,10,,,,,3,,,67,85
14656,note_off,,,,,64,0,12,,,,,5,,,55,100
14688,note_on,,,,,32,0,12,,,,,5,,,58,100
14752,note_off,,,,,64,0,12,,,,,5,,,58,100
14784,note_on,,,,,32,0,12,,,,,5,,,57,100
14848,note_off,,,,,0,0,14,,,,,7,,,70,100
14848,note_off,,,,,256,0,14,,,,,7,,,67,100
14848,note_off,,,,,256,0,13,,,,,6,,,40,100
14848,note_off,,,,,256,0,15,,,,,7,,,40,100
14848,note_off,,,,,256,0,11,,,,,4,,,64,100
14848,note_off,,,,,64,0,12,,,,,5,,,57,100
14848,note_off,,,,,256,0,10,,,,,3,,,67,100
14848,note_off,,,,,256,0,9,,,,,2,,,74,100
14880,note_on,,,,,32,0,12,,,,,5,,,58,100
14944,note_off,,,,,64,0,12,,,,,5,,,58,100
14976,note_on,,,,,32,0,12,,,,,5,,,55,100
15040,note_off,,,,,64,0,12,,,,,5,,,55,100
15072,note_on,,,,,32,0,12,,,,,5,,,57,100
15136,note_off,,,,,64,0,12,,,,,5,,,57,100
15168,note_on,,,,,32,0,12,,,,,5,,,58,100
15232,note_off,,,,,64,0,12,,,,,5,,,58,100
15264,note_on,,,,,32,0,12,,,,,5,,,55,100
15328,note_off,,,,,64,0,12,,,,,5,,,55,100
15360,note_on,,,,,32,0,12,,,,,5,,,52,100
15360,note_on,,,,,0,0,14,,,,,7,,,67,100
15360,note_on,,,,,512,0,14,,,,,7,,,64,100
15360,note_on,,,,,512,0,10,,,,,3,,,67,85
15360,note_on,,,,,512,0,9,,,,,2,,,72,85
15360,note_on,,,,,512,0,13,,,,,6,,,33,85
15360,note_on,,,,,512,0,11,,,,,4,,,64,85
15360,note_on,,,,,512,0,15,,,,,7,,,45,100
15424,note_off,,,,,64,0,12,,,,,5,,,52,100
15456,note_on,,,,,32,0,12,,,,,5,,,57,100
15520,note_off,,,,,64,0,12,,,,,5,,,57,100
15552,note_on,,,,,32,0,12,,,,,5,,,55,100
15616,note_off,,,,,256,0,10,,,,,3,,,67,100
15616,note_off,,,,,256,0,11,,,,,4,,,64,100
15616,note_off,,,,,256,0,15,,,,,7,,,45,100
15616,note_off,,,,,64,0,12,,,,,5,,,55,100
15616,note_off,,,,,256,0,9,,,,,2,,,72,100
15616,note_off,,,,,256,0,13,,,,,6,,,33,100
15616,note_off,,,,,0,0,14,,,,,7,,,67,100
15616,note_off,,,,,256,0,14,,,,,7,,,64,100
15648,note_on,,,,,32,0,12,,,,,5,,,57,100
15712,note_off,,,,,64,0,12,,,,,5,,,57,100
15744,note_on,,,,,32,0,12,,,,,5,,,52,100
15808,note_off,,,,,64,0,12,,,,,5,,,52,100
15840,note_on,,,,,32,0,12,,,,,5,,,53,100
15904,note_off,,,,,64,0,12,,,,,5,,,53,100
15936,note_on,,,,,32,0,12,,,,,5,,,55,100
16000,note_off,,,,,64,0,12,,,,,5,,,55,100
16032,note_on,,,,,32,0,12,,,,,5,,,57,100
16096,note_off,,,,,64,0,12,,,,,5,,,57,100
16128,note_on,,,,,512,0,14,,,,,7,,,69,100
16128,note_on,,,,,0,0,14,,,,,7,,,72,100
16128,note_on,,,,,512,0,10,,,,,3,,,65,85
16128,note_on,,,,,32,0,12,,,,,5,,,53,100
16128,note_on,,,,,512,0,9,,,,,2,,,72,85
16128,note_on,,,,,512,0,11,,,,,4,,,62,85
16128,note_on,,,,,512,0,15,,,,,7,,,50,100
16128,note_on,,,,,512,0,13,,,,,6,,,38,85
16192,note_off,,,,,64,0,12,,,,,5,,,53,100
16224,note_on,,,,,32,0,12,,,,,5,,,57,100
16288,note_off,,,,,64,0,12,,,,,5,,,57,100
16320,note_on,,,,,32,0,12,,,,,5,,,55,100
16384,note_off,,,,,256,0,11,,,,,4,,,62,100
16384,note_off,,,,,256,0,9,,,,,2,,,72,100
16384,note_off,,,,,0,0,14,,,,,7,,,72,100
16384,note_off,,,,,64,0,12,,,,,5,,,55,100
16384,note_off,,,,,256,0,10,,,,,3,,,65,100
16384,note_off,,,,,256,0,13,,,,,6,,,38,100
16384,note_off,,,,,256,0,14,,,,,7,,,69,100
16384,note_off,,,,,256,0,15,,,,,7,,,50,100
16416,note_on,,,,,32,0,12,,,,,5,,,57,100
16480,note_off,,,,,64,0,12,,,,,5,,,57,100
16512,note_on,,,,,32,0,12,,,,,5,,,53,100
16576,note_off,,,,,64,0,12,,,,,5,,,53,100
16608,note_on,,,,,32,0,12,,,,,5,,,55,100
16672,note_off,,,,,64,0,12,,,,,5,,,55,100
16704,note_on,,,,,32,0,12,,,,,5,,,57,100
16768,note_off,,,,,64,0,12,,,,,5,,,57,100
16800,note_on,,,,,32,0,12,,,,,5,,,53,100
16864,note_off,,,,,64,0,12,,,,,5,,,53,100
16896,note_on,,,,,512,0,14,,,,,7,,,70,100
16896,note_on,,,,,512,0,9,,,,,2,,,70,85
16896,note_on,,,,,0,0,14,,,,,7,,,65,100
16896,note_on,,,,,512,0,10,,,,,3,,,65,85
16896,note_on,,,,,512,0,15,,,,,7,,,50,100
16896,note_on,,,,,512,0,11,,,,,4,,,62,85
16896,note_on,,,,,512,0,13,,,,,6,,,38,85
16896,note_on,,,,,32,0,12,,,,,5,,,50,100
16960,note_off,,,,,64,0,12,,,,,5,,,50,100
16992,note_on,,,,,32,0,12,,,,,5,,,52,85
17056,note_off,,,,,64,0,12,,,,,5,,,52,100
17088,note_on,,,,,32,0,12,,,,,5,,,53,85
17152,note_off,,,,,0,0,14,,,,,7,,,65,100
17152,note_off,,,,,256,0,13,,,,,6,,,38,100
17152,note_off,,,,,256,0,14,,,,,7,,,70,100
17152,note_off,,,,,256,0,11,,,,,4,,,62,100
17152,note_off,,,,,256,0,10,,,,,3,,,65,100
17152,note_off,,,,,256,0,9,,,,,2,,,70,100
17152,note_off,,,,,256,0,15,,,,,7,,,50,100
17152,note_off,,,,,64,0,12,,,,,5,,,53,100
17184,note_on,,,,,32,0,12,,,,,5,,,55,85
17248,note_off,,,,,64,0,12,,,,,5,,,55,100
17280,note_on,,,,,32,0,12,,,,,5,,,57,85
17344,note_off,,,,,64,0,12,,,,,5,,,57,100
17376,note_on,,,,,32,0,12,,,,,5,,,59,85
17440,note_off,,,,,64,0,12,,,,,5,,,59,100
17472,note_on,,,,,32,0,12,,,,,5,,,61,85
17536,note_off,,,,,64,0,12,,,,,5,,,61,100
17568,note_on,,,,,32,0,12,,,,,5,,,62,85
17632,note_off,,,,,64,0,12,,,,,5,,,62,100
17660,program_change,,,,,28,0,12,,,,,5,48,,,
17664,note_on,,,,,512,0,9,,,,,2,,,69,100
17664,note_on,,,,,512,0,13,,,,,6,,,33,100
17664,note_on,,,,,4,0,12,,,,,5,,,61,100
17664,note_on,,,,,512,0,14,,,,,7,,,69,100
17664,note_on,,,,,0,0,14,,,,,7,,,64,100
17664,note_on,,,,,0,0,14,,,,,7,,,61,100
17664,note_on,,,,,512,0,11,,,,,4,,,64,100
17664,note_on,,,,,512,0,15,,,,,7,,,45,100
17664,note_on,,,,,512,0,10,,,,,3,,,64,100
17792,note_off,,,,,128,0,9,,,,,2,,,69,100
17792,note_off,,,,,128,0,12,,,,,5,,,61,100
17856,note_on,,,,,64,0,9,,,,,2,,,81,100
17856,note_on,,,,,64,0,12,,,,,5,,,57,100
17920,note_off,,,,,256,0,13,,,,,6,,,33,100
17920,note_off,,,,,256,0,11,,,,,4,,,64,100
17920,note_off,,,,,256,0,15,,,,,7,,,45,100
17920,note_off,,,,,256,0,10,,,,,3,,,64,100
17920,note_off,,,,,256,0,14,,,,,7,,,69,100
17920,note_off,,,,,0,0,14,,,,,7,,,64,100
17920,note_off,,,,,0,0,14,,,,,7,,,61,100
17984,note_off,,,,,128,0,9,,,,,2,,,81,100
17984,note_off,,,,,128,0,12,,,,,5,,,57,100
18048,note_on,,,,,64,0,12,,,,,5,,,62,100
18048,note_on,,,,,64,0,9,,,,,2,,,82,100
18048,note_on,,,,,128,0,13,,,,,6,,,50,100
18048,note_on,,,,,128,0,11,,,,,4,,,65,100
18048,note_on,,,,,128,0,14,,,,,7,,,70,100
18048,note_on,,,,,0,0,14,,,,,7,,,65,100
18048,note_on,,,,,128,0,15,,,,,7,,,62,100
18112,note_off,,,,,64,0,12,,,,,5,,,62,100
18112,note_off,,,,,64,0,11,,,,,4,,,65,100
18112,note_off,,,,,64,0,13,,,,,6,,,50,100
18144,note_on,,,,,32,0,13,,,,,6,,,50,100
18144,note_on,,,,,32,0,12,,,,,5,,,62,100
18144,note_on,,,,,32,0,11,,,,,4,,,65,100
18176,note_off,,,,,128,0,15,,,,,7,,,62,100
18208,note_off,,,,,64,0,11,,,,,4,,,65,100
18208,note_off,,,,,64,0,12,,,,,5,,,62,100
18208,note_off,,,,,64,0,13,,,,,6,,,50,100
18240,note_on,,,,,32,0,13,,,,,6,,,50,100
18240,note_on,,,,,32,0,12,,,,,5,,,62,100
18240,note_on,,,,,64,0,15,,,,,7,,,62,100
18240,note_on,,,,,320,0,10,,,,,3,,,77,100
18240,note_on,,,,,32,0,11,,,,,4,,,65,100
18304,note_off,,,,,64,0,12,,,,,5,,,62,100
18304,note_off,,,,,64,0,13,,,,,6,,,50,100
18304,note_off,,,,,0,0,14,,,,,7,,,65,100
18304,note_off,,,,,64,0,11,,,,,4,,,65,100
18304,note_off,,,,,256,0,14,,,,,7,,,70,100
18336,note_on,,,,,32,0,12,,,,,5,,,62,100
18336,note_on,,,,,32,0,13,,,,,6,,,50,100
18336,note_on,,,,,32,0,11,,,,,4,,,65,100
18368,note_off,,,,,128,0,15,,,,,7,,,62,100
18368,note_off,,,,,128,0,10,,,,,3,,,77,100
18400,note_off,,,,,64,0,12,,,,,5,,,62,100
18400,note_off,,,,,64,0,11,,,,,4,,,65,100
18400,note_off,,,,,64,0,13,,,,,6,,,50,100
18432,note_on,,,,,32,0,12,,,,,5,,,61,100
18432,note_on,,,,,128,0,14,,,,,7,,,67,100
18432,note_on,,,,,0,0,14,,,,,7,,,70,100
18432,note_on,,,,,32,0,11,,,,,4,,,67,100
18432,note_on,,,,,64,0,15,,,,,7,,,61,100
18432,note_on,,,,,32,0,13,,,,,6,,,49,100
18432,note_on,,,,,64,0,10,,,,,3,,,76,100
18496,note_off,,,,,64,0,13,,,,,6,,,49,100
18496,note_off,,,,,64,0,12,,,,,5,,,61,100
18496,note_off,,,,,64,0,11,,,,,4,,,67,100
18528,note_on,,,,,32,0,12,,,,,5,,,61,100
18528,note_on,,,,,32,0,11,,,,,4,,,67,100
18528,note_on,,,,,32,0,13,,,,,6,,,49,100
18560,note_off,,,,,128,0,15,,,,,7,,,61,100
18592,note_off,,,,,64,0,13,,,,,6,,,49,100
18592,note_off,,,,,64,0,12,,,,,5,,,61,100
18592,note_off,,,,,64,0,11,,,,,4,,,67,100
18624,note_on,,,,,32,0,13,,,,,6,,,49,100
18624,note_on,,,,,64,0,15,,,,,7,,,61,100
18624,note_on,,,,,32,0,11,,,,,4,,,67,100
18624,note_on,,,,,32,0,12,,,,,5,,,61,100
18688,note_off,,,,,64,0,11,,,,,4,,,67,100
18688,note_off,,,,,256,0,14,,,,,7,,,67,100
18688,note_off,,,,,0,0,14,,,,,7,,,70,100
18688,note_off,,,,,64,0,12,,,,,5,,,61,100
18688,note_off,,,,,64,0,13,,,,,6,,,49,100
18720,note_on,,,,,32,0,11,,,,,4,,,67,100
18720,note_on,,,,,32,0,13,,,,,6,,,49,100
18720,note_on,,,,,32,0,12,,,,,5,,,61,100
18736,note_off,,,,,688,0,9,,,,,2,,,82,100
18752,note_off,,,,,128,0,15,,,,,7,,,61,100
18784,note_off,,,,,64,0,12,,,,,5,,,61,100
18784,note_off,,,,,64,0,13,,,,,6,,,49,100
18784,note_off,,,,,64,0,11,,,,,4,,,67,100
18816,note_on,,,,,64,0,15,,,,,7,,,60,100
18816,note_on,,,,,32,0,13,,,,,6,,,48,100
18816,note_on,,,,,80,0,9,,,,,2,,,81,100
18816,note_on,,,,,32,0,11,,,,,4,,,64,100
18816,note_on,,,,,32,0,12,,,,,5,,,60,100
18816,note_on,,,,,128,0,14,,,,,7,,,64,100
18816,note_on,,,,,0,0,14,,,,,7,,,69,100
18880,note_off,,,,,64,0,12,,,,,5,,,60,100
18880,note_off,,,,,64,0,11,,,,,4,,,64,100
18880,note_off,,,,,64,0,13,,,,,6,,,48,100
18912,note_on,,,,,32,0,11,,,,,4,,,64,100
18912,note_on,,,,,32,0,12,,,,,5,,,60,100
18912,note_on,,,,,32,0,13,,,,,6,,,48,100
18944,note_off,,,,,128,0,15,,,,,7,,,60,100
18976,note_off,,,,,64,0,12,,,,,5,,,60,100
18976,note_off,,,,,64,0,13,,,,,6,,,48,100
18976,note_off,,,,,64,0,11,,,,,4,,,64,100
19008,note_on,,,,,32,0,12,,,,,5,,,60,100
19008,note_on,,,,,32,0,13,,,,,6,,,48,100
19008,note_on,,,,,32,0,11,,,,,4,,,64,100
19008,note_on,,,,,64,0,15,,,,,7,,,60,100
19072,note_off,,,,,64,0,11,,,,,4,,,64,100
19072,note_off,,,,,64,0,12,,,,,5,,,60,100
19072,note_off,,,,,0,0,14,,,,,7,,,69,100
19072,note_off,,,,,256,0,14,,,,,7,,,64,100
19072,note_off,,,,,64,0,13,,,,,6,,,48,100
19104,note_on,,,,,32,0,12,,,,,5,,,60,100
19104,note_on,,,,,32,0,11,,,,,4,,,64,100
19104,note_on,,,,,32,0,13,,,,,6,,,48,100
19120,note_off,,,,,688,0,10,,,,,3,,,76,100
19136,note_off,,,,,128,0,15,,,,,7,,,60,100
19168,note_off,,,,,64,0,13,,,,,6,,,48,100
19168,note_off,,,,,64,0,11,,,,,4,,,64,100
19168,note_off,,,,,64,0,12,,,,,5,,,60,100
19200,note_on,,,,,80,0,10,,,,,3,,,74,100
19200,note_on,,,,,64,0,15,,,,,7,,,59,100
19200,note_on,,,,,32,0,12,,,,,5,,,59,100
19200,note_on,,,,,32,0,13,,,,,6,,,47,100
19200,note_on,,,,,128,0,14,,,,,7,,,65,100
19200,note_on,,,,,0,0,14,,,,,7,,,69,100
19200,note_on,,,,,32,0,11,,,,,4,,,65,100
19264,note_off,,,,,64,0,11,,,,,4,,,65,100
19264,note_off,,,,,64,0,12,,,,,5,,,59,100
19264,note_off,,,,,64,0,13,,,,,6,,,47,100
19296,note_on,,,,,32,0,12,,,,,5,,,59,100
19296,note_on,,,,,32,0,11,,,,,4,,,65,100
19296,note_on,,,,,32,0,13,,,,,6,,,47,100
19328,note_off,,,,,128,0,15,,,,,7,,,59,100
19360,note_off,,,,,64,0,11,,,,,4,,,65,100
19360,note_off,,,,,64,0,12,,,,,5,,,59,100
19360,note_off,,,,,64,0,13,,,,,6,,,47,100
19392,note_on,,,,,32,0,13,,,,,6,,,47,99
19392,note_on,,,,,32,0,12,,,,,5,,,59,99
19392,note_on,,,,,64,0,15,,,,,7,,,59,100
19392,note_on,,,,,32,0,11,,,,,4,,,65,99
19456,note_off,,,,,64,0,11,,,,,4,,,65,100
19456,note_off,,,,,64,0,13,,,,,6,,,47,100
19456,note_off,,,,,64,0,12,,,,,5,,,59,100
19456,note_off,,,,,0,0,14,,,,,7,,,69,100
19456,note_off,,,,,256,0,14,,,,,7,,,65,100
19488,note_on,,,,,32,0,13,,,,,6,,,47,99
19488,note_on,,,,,32,0,12,,,,,5,,,59,99
19488,note_on,,,,,32,0,11,,,,,4,,,65,99
19504,note_off,,,,,688,0,9,,,,,2,,,81,100
19520,note_off,,,,,128,0,15,,,,,7,,,59,100
19552,note_off,,,,,64,0,12,,,,,5,,,59,100
19552,note_off,,,,,64,0,13,,,,,6,,,47,100
19552,note_off,,,,,64,0,11,,,,,4,,,65,100
19584,note_on,,,,,64,0,15,,,,,7,,,58,100
19584,note_on,,,,,128,0,14,,,,,7,,,62,100
19584,note_on,,,,,0,0,14,,,,,7,,,67,100
19584,note_on,,,,,32,0,12,,,,,5,,,58,98
19584,note_on,,,,,80,0,9,,,,,2,,,79,98
19584,note_on,,,,,32,0,13,,,,,6,,,46,98
19584,note_on,,,,,32,0,11,,,,,4,,,62,98
19648,note_off,,,,,64,0,12,,,,,5,,,58,100
19648,note_off,,,,,64,0,13,,,,,6,,,46,100
19648,note_off,,,,,64,0,11,,,,,4,,,62,100
19680,note_on,,,,,32,0,13,,,,,6,,,46,97
19680,note_on,,,,,32,0,11,,,,,4,,,62,97
19680,note_on,,,,,32,0,12,,,,,5,,,58,97
19712,note_off,,,,,128,0,15,,,,,7,,,58,100
19744,note_off,,,,,64,0,12,,,,,5,,,58,100
19744,note_off,,,,,64,0,13,,,,,6,,,46,100
19744,note_off,,,,,64,0,11,,,,,4,,,62,100
19776,note_on,,,,,64,0,15,,,,,7,,,58,100
19776,note_on,,,,,32,0,13,,,,,6,,,46,97
19776,note_on,,,,,32,0,12,,,,,5,,,58,97
19776,note_on,,,,,32,0,11,,,,,4,,,62,97
19840,note_off,,,,,64,0,12,,,,,5,,,58,100
19840,note_off,,,,,64,0,11,,,,,4,,,62,100
19840,note_off,,,,,0,0,14,,,,,7,,,67,100
19840,note_off,,,,,64,0,13,,,,,6,,,46,100
19840,note_off,,,,,256,0,14,,,,,7,,,62,100
19872,note_on,,,,,32,0,11,,,,,4,,,62,96
19872,note_on,,,,,32,0,12,,,,,5,,,58,96
19872,note_on,,,,,32,0,13,,,,,6,,,46,96
19888,note_off,,,,,688,0,10,,,,,3,,,74,100
19904,note_off,,,,,128,0,15,,,,,7,,,58,100
19936,note_off,,,,,64,0,11,,,,,4,,,62,100
19936,note_off,,,,,64,0,13,,,,,6,,,46,100
19936,note_off,,,,,64,0,12,,,,,5,,,58,100
19968,note_on,,,,,32,0,13,,,,,6,,,45,96
19968,note_on,,,,,64,0,15,,,,,7,,,57,100
19968,note_on,,,,,128,0,14,,,,,7,,,61,100
19968,note_on,,,,,0,0,14,,,,,7,,,67,100
19968,note_on,,,,,80,0,10,,,,,3,,,73,96
19968,note_on,,,,,32,0,11,,,,,4,,,64,96
19968,note_on,,,,,32,0,12,,,,,5,,,57,96
20032,note_off,,,,,64,0,12,,,,,5,,,57,100
20032,note_off,,,,,64,0,13,,,,,6,,,45,100
20032,note_off,,,,,64,0,11,,,,,4,,,64,100
20064,note_on,,,,,32,0,12,,,,,5,,,57,95
20064,note_on,,,,,32,0,13,,,,,6,,,45,95
20064,note_on,,,,,32,0,11,,,,,4,,,64,95
20096,note_off,,,,,128,0,15,,,,,7,,,57,100
20128,note_off,,,,,64,0,12,,,,,5,,,57,100
20128,note_off,,,,,64,0,11,,,,,4,,,64,100
20128,note_off,,,,,64,0,13,,,,,6,,,45,100
20160,note_on,,,,,32,0,12,,,,,5,,,57,94
20160,note_on,,,,,64,0,15,,,,,7,,,57,100
20160,note_on,,,,,32,0,13,,,,,6,,,45,94
20160,note_on,,,,,32,0,11,,,,,4,,,69,94
20224,note_off,,,,,64,0,11,,,,,4,,,69,100
20224,note_off,,,,,0,0,14,,,,,7,,,67,100
20224,note_off,,,,,64,0,12,,,,,5,,,57,100
20224,note_off,,,,,64,0,13,,,,,6,,,45,100
20224,note_off,,,,,256,0,14,,,,,7,,,61,100
20256,note_on,,,,,32,0,12,,,,,5,,,57,94
20256,note_on,,,,,32,0,11,,,,,4,,,69,94
20256,note_on,,,,,32,0,13,,,,,6,,,45,94
20272,note_off,,,,,688,0,9,,,,,2,,,79,100
20288,note_off,,,,,128,0,15,,,,,7,,,57,100
20312,note_off,,,,,344,0,10,,,,,3,,,73,100
20320,note_off,,,,,64,0,12,,,,,5,,,57,100
20320,note_off,,,,,64,0,13,,,,,6,,,45,100
20320,note_off,,,,,64,0,11,,,,,4,,,69,100
20352,note_on,,,,,32,0,11,,,,,4,,,69,93
20352,note_on,,,,,32,0,13,,,,,6,,,38,93
20352,note_on,,,,,32,0,12,,,,,5,,,50,93
20352,note_on,,,,,80,0,9,,,,,2,,,77,93
20352,note_on,,,,,128,0,14,,,,,7,,,69,100
20352,note_on,,,,,0,0,14,,,,,7,,,65,100
20352,note_on,,,,,40,0,10,,,,,3,,,74,93
20352,note_on,,,,,64,0,15,,,,,7,,,50,100
20416,note_off,,,,,64,0,13,,,,,6,,,38,100
20416,note_off,,,,,64,0,11,,,,,4,,,69,100
20416,note_off,,,,,64,0,12,,,,,5,,,50,100
20448,note_on,,,,,32,0,12,,,,,5,,,50,92
20448,note_on,,,,,32,0,11,,,,,4,,,69,92
20448,note_on,,,,,32,0,13,,,,,6,,,38,92
20480,note_off,,,,,128,0,15,,,,,7,,,50,100
20512,note_off,,,,,64,0,12,,,,,5,,,50,100
20512,note_off,,,,,64,0,11,,,,,4,,,69,100
20512,note_off,,,,,64,0,13,,,,,6,,,38,100
20544,note_on,,,,,32,0,11,,,,,4,,,69,92
20544,note_on,,,,,32,0,13,,,,,6,,,38,92
20544,note_on,,,,,64,0,15,,,,,7,,,50,100
20544,note_on,,,,,32,0,12,,,,,5,,,50,92
20608,note_off,,,,,64,0,13,,,,,6,,,38,100
20608,note_off,,,,,0,0,14,,,,,7,,,65,100
20608,note_off,,,,,64,0,11,,,,,4,,,69,100
20608,note_off,,,,,64,0,12,,,,,5,,,50,100
20608,note_off,,,,,256,0,14,,,,,7,,,69,100
20640,note_on,,,,,32,0,11,,,,,4,,,69,91
20640,note_on,,,,,32,0,12,,,,,5,,,50,91
20640,note_on,,,,,32,0,13,,,,,6,,,38,91
20672,note_off,,,,,128,0,15,,,,,7,,,50,100
20696,note_off,,,,,344,0,9,,,,,2,,,77,100
20704,note_off,,,,,64,0,12,,,,,5,,,50,100
20704,note_off,,,,,64,0,13,,,,,6,,,38,100
20704,note_off,,,,,64,0,11,,,,,4,,,69,100
20736,note_on,,,,,32,0,12,,,,,5,,,55,91
20736,note_on,,,,,0,0,14,,,,,7,,,62,100
20736,note_on,,,,,128,0,14,,,,,7,,,64,100
20736,note_on,,,,,32,0,11,,,,,4,,,70,91
20736,note_on,,,,,64,0,15,,,,,7,,,55,100
20736,note_on,,,,,32,0,13,,,,,6,,,43,91
20736,note_on,,,,,40,0,9,,,,,2,,,76,91
20800,note_off,,,,,64,0,12,,,,,5,,,55,100
20800,note_off,,,,,64,0,13,,,,,6,,,43,100
20800,note_off,,,,,64,0,11,,,,,4,,,70,100
20832,note_on,,,,,32,0,13,,,,,6,,,43,90
20832,note_on,,,,,32,0,12,,,,,5,,,55,90
20832,note_on,,,,,32,0,11,,,,,4,,,70,90
20864,note_off,,,,,128,0,15,,,,,7,,,55,100
20896,note_off,,,,,64,0,12,,,,,5,,,55,100
20896,note_off,,,,,64,0,11,,,,,4,,,70,100
20896,note_off,,,,,64,0,13,,,,,6,,,43,100
20928,note_on,,,,,64,0,15,,,,,7,,,55,100
20928,note_on,,,,,32,0,12,,,,,5,,,55,89
20928,note_on,,,,,32,0,13,,,,,6,,,43,89
20928,note_on,,,,,32,0,11,,,,,4,,,70,89
20992,note_off,,,,,64,0,12,,,,,5,,,55,100
20992,note_off,,,,,0,0,14,,,,,7,,,62,100
20992,note_off,,,,,64,0,11,,,,,4,,,70,100
20992,note_off,,,,,64,0,13,,,,,6,,,43,100
20992,note_off,,,,,256,0,14,,,,,7,,,64,100
21024,note_on,,,,,32,0,13,,,,,6,,,43,89
21024,note_on,,,,,32,0,11,,,,,4,,,70,89
21024,note_on,,,,,32,0,12,,,,,5,,,55,89
21040,note_off,,,,,688,0,10,,,,,3,,,74,100
21056,note_off,,,,,128,0,15,,,,,7,,,55,100
21088,note_off,,,,,64,0,12,,,,,5,,,55,100
21088,note_off,,,,,64,0,11,,,,,4,,,70,100
21088,note_off,,,,,64,0,13,,,,,6,,,43,100
21120,note_on,,,,,64,0,15,,,,,7,,,57,100
21120,note_on,,,,,32,0,12,,,,,5,,,57,88
21120,note_on,,,,,0,0,14,,,,,7,,,64,100
21120,note_on,,,,,32,0,11,,,,,4,,,69,88
21120,note_on,,,,,128,0,14,,,,,7,,,61,100
21120,note_on,,,,,80,0,10,,,,,3,,,73,88
21120,note_on,,,,,32,0,13,,,,,6,,,45,88
21184,note_off,,,,,64,0,12,,,,,5,,,57,100
21184,note_off,,,,,64,0,13,,,,,6,,,45,100
21184,note_off,,,,,64,0,11,,,,,4,,,69,100
21216,note_on,,,,,32,0,12,,,,,5,,,57,87
21216,note_on,,,,,32,0,11,,,,,4,,,69,87
21216,note_on,,,,,32,0,13,,,,,6,,,45,87
21248,note_off,,,,,128,0,15,,,,,7,,,57,100
21280,note_off,,,,,64,0,12,,,,,5,,,57,100
21280,note_off,,,,,64,0,11,,,,,4,,,69,100
21280,note_off,,,,,64,0,13,,,,,6,,,45,100
21312,note_on,,,,,32,0,11,,,,,4,,,69,87
21312,note_on,,,,,64,0,15,,,,,7,,,57,100
21312,note_on,,,,,32,0,12,,,,,5,,,57,87
21312,note_on,,,,,32,0,13,,,,,6,,,45,87
21376,note_off,,,,,64,0,13,,,,,6,,,45,100
21376,note_off,,,,,64,0,11,,,,,4,,,69,100
21376,note_off,,,,,64,0,12,,,,,5,,,57,100
21376,note_off,,,,,0,0,14,,,,,7,,,64,100
21376,note_off,,,,,256,0,14,,,,,7,,,61,100
21408,note_on,,,,,32,0,12,,,,,5,,,57,86
21408,note_on,,,,,32,0,13,,,,,6,,,45,86
21408,note_on,,,,,32,0,11,,,,,4,,,69,86
21424,note_off,,,,,688,0,9,,,,,2,,,76,100
21440,note_off,,,,,128,0,15,,,,,7,,,57,100
21464,note_off,,,,,344,0,10,,,,,3,,,73,100
21472,note_off,,,,,64,0,12,,,,,5,,,57,100
21472,note_off,,,,,64,0,11,,,,,4,,,69,100
21472,note_off,,,,,64,0,13,,,,,6,,,45,100
21504,note_on,,,,,32,0,12,,,,,5,,,50,86
21504,note_on,,,,,128,0,14,,,,,7,,,62,100
21504,note_on,,,,,32,0,11,,,,,4,,,69,86
21504,note_on,,,,,10496,0,8,,,,,1,,,77,100
21504,note_on,,,,,32,0,13,,,,,6,,,38,86
21504,note_on,,,,,80,0,9,,,,,2,,,74,86
21504,note_on,,,,,64,0,15,,,,,7,,,50,100
21504,note_on,,,,,40,0,10,,,,,3,,,74,86
21504,note_on,,,,,10496,0,7,,,,,0,,,81,100
21504,note_on,,,,,0,0,14,,,,,7,,,65,100
21596,note_off,,,,,92,0,7,,,,,0,,,81,100
21596,note_off,,,,,92,0,8,,,,,1,,,77,100
21600,note_on,,,,,4,0,8,,,,,1,,,76,100
21600,note_on,,,,,4,0,7,,,,,0,,,79,100
21692,note_off,,,,,92,0,7,,,,,0,,,79,100
21692,note_off,,,,,92,0,8,,,,,1,,,76,100
21696,note_on,,,,,4,0,8,,,,,1,,,74,100
21696,note_on,,,,,4,0,7,,,,,0,,,77,100
21760,note_off,,,,,64,0,8,,,,,1,,,74,100
21760,note_off,,,,,256,0,11,,,,,4,,,69,100
21760,note_off,,,,,256,0,10,,,,,3,,,74,100
21760,note_off,,,,,0,0,14,,,,,7,,,65,100
21760,note_off,,,,,256,0,14,,,,,7,,,62,100
21760,note_off,,,,,256,0,9,,,,,2,,,74,100
21760,note_off,,,,,256,0,13,,,,,6,,,38,100
21760,note_off,,,,,256,0,12,,,,,5,,,50,100
21760,note_off,,,,,256,0,15,,,,,7,,,50,100
21760,note_off,,,,,64,0,7,,,,,0,,,77,100
21792,note_on,,,,,32,0,7,,,,,0,,,81,99
21792,note_on,,,,,32,0,8,,,,,1,,,77,100
21856,note_off,,,,,64,0,7,,,,,0,,,81,100
21856,note_off,,,,,64,0,8,,,,,1,,,77,100
21888,note_on,,,,,32,0,7,,,,,0,,,82,100
21888,note_on,,,,,32,0,8,,,,,1,,,79,100
21980,note_off,,,,,92,0,7,,,,,0,,,82,100
21980,note_off,,,,,92,0,8,,,,,1,,,79,100
21984,note_on,,,,,4,0,8,,,,,1,,,77,100
21984,note_on,,,,,4,0,7,,,,,0,,,81,100
22076,note_off,,,,,92,0,8,,,,,1,,,77,100
22076,note_off,,,,,92,0,7,,,,,0,,,81,100
22080,note_on,,,,,4,0,8,,,,,1,,,76,100
22080,note_on,,,,,4,0,7,,,,,0,,,79,100
22144,note_off,,,,,64,0,7,,,,,0,,,79,100
22144,note_off,,,,,64,0,8,,,,,1,,,76,100
22176,note_on,,,,,32,0,8,,,,,1,,,79,100
22176,note_on,,,,,32,0,7,,,,,0,,,82,100
22240,note_off,,,,,64,0,8,,,,,1,,,79,100
22240,note_off,,,,,64,0,7,,,,,0,,,82,100
22272,note_on,,,,,32,0,8,,,,,1,,,77,100
22272,note_on,,,,,32,0,7,,,,,0,,,81,100
22364,note_off,,,,,92,0,7,,,,,0,,,81,100
22364,note_off,,,,,92,0,8,,,,,1,,,77,100
22368,note_on,,,,,4,0,7,,,,,0,,,79,100
22368,note_on,,,,,4,0,8,,,,,1,,,76,100
22460,note_off,,,,,92,0,8,,,,,1,,,76,100
22460,note_off,,,,,92,0,7,,,,,0,,,79,100
22464,note_on,,,,,4,0,7,,,,,0,,,77,100
22464,note_on,,,,,4,0,8,,,,,1,,,74,100
22528,note_off,,,,,64,0,8,,,,,1,,,74,100
22528,note_off,,,,,64,0,7,,,,,0,,,77,100
22560,note_on,,,,,32,0,8,,,,,1,,,77,100
22560,note_on,,,,,32,0,7,,,,,0,,,81,100
22624,note_off,,,,,64,0,7,,,,,0,,,81,100
22624,note_off,,,,,64,0,8,,,,,1,,,77,100
22656,note_on,,,,,32,0,8,,,,,1,,,79,100
22656,note_on,,,,,32,0,7,,,,,0,,,82,100
22748,note_off,,,,,92,0,7,,,,,0,,,82,100
22748,note_off,,,,,92,0,8,,,,,1,,,79,100
22752,note_on,,,,,4,0,7,,,,,0,,,81,100
22752,note_on,,,,,4,0,8,,,,,1,,,77,100
22844,note_off,,,,,92,0,7,,,,,0,,,81,100
22844,note_off,,,,,92,0,8,,,,,1,,,77,100
22848,note_on,,,,,4,0,8,,,,,1,,,76,100
22848,note_on,,,,,4,0,7,,,,,0,,,79,100
22912,note_off,,,,,64,0,7,,,,,0,,,79,100
22912,note_off,,,,,64,0,8,,,,,1,,,76,100
22944,note_on,,,,,32,0,8,,,,,1,,,79,100
22944,note_on,,,,,32,0,7,,,,,0,,,82,100
23008,note_off,,,,,64,0,8,,,,,1,,,79,100
23008,note_off,,,,,64,0,7,,,,,0,,,82,100
23040,program_change,,,,,1280,0,12,,,,,5,43,,,
23040,note_on,,,,,32,0,8,,,,,1,,,77,100
23040,note_on,,,,,32,0,7,,,,,0,,,81,100
23132,note_off,,,,,92,0,8,,,,,1,,,77,100
23132,note_off,,,,,92,0,7,,,,,0,,,81,100
23136,note_on,,,,,4,0,7,,,,,0,,,79,100
23136,note_on,,,,,4,0,8,,,,,1,,,76,100
23228,note_off,,,,,92,0,7,,,,,0,,,79,100
23228,note_off,,,,,92,0,8,,,,,1,,,76,100
23232,note_on,,,,,4,0,7,,,,,0,,,77,100
23232,note_on,,,,,4,0,8,,,,,1,,,74,100
23296,note_off,,,,,64,0,7,,,,,0,,,77,100
23296,note_off,,,,,64,0,8,,,,,1,,,74,100
23328,note_on,,,,,32,0,8,,,,,1,,,77,100
23328,note_on,,,,,32,0,7,,,,,0,,,81,100
23392,note_off,,,,,64,0,7,,,,,0,,,81,100
23392,note_off,,,,,64,0,8,,,,,1,,,77,100
23424,note_on,,,,,32,0,8,,,,,1,,,76,100
23424,note_on,,,,,32,0,7,,,,,0,,,79,100
23516,note_off,,,,,92,0,7,,,,,0,,,79,100
23516,note_off,,,,,92,0,8,,,,,1,,,76,100
23520,note_on,,,,,4,0,7,,,,,0,,,77,100
23520,note_on,,,,,4,0,8,,,,,1,,,74,100
23612,note_off,,,,,92,0,7,,,,,0,,,77,100
23612,note_off,,,,,92,0,8,,,,,1,,,74,100
23616,note_on,,,,,4,0,7,,,,,0,,,76,100
23616,note_on,,,,,4,0,8,,,,,1,,,73,100
23680,note_off,,,,,64,0,7,,,,,0,,,76,100
23680,note_off,,,,,64,0,8,,,,,1,,,73,100
23712,note_on,,,,,32,0,7,,,,,0,,,79,100
23712,note_on,,,,,32,0,8,,,,,1,,,76,100
23776,note_off,,,,,64,0,7,,,,,0,,,79,100
23776,note_off,,,,,64,0,8,,,,,1,,,76,100
23808,note_on,,,,,32,0,7,,,,,0,,,77,100
23808,note_on,,,,,32,0,8,,,,,1,,,74,100
23808,note_on,,,,,768,0,12,,,,,5,,,62,85
23872,note_off,,,,,64,0,7,,,,,0,,,77,100
23904,note_on,,,,,32,0,7,,,,,0,,,76,100
23936,note_off,,,,,128,0,12,,,,,5,,,62,100
23968,note_off,,,,,64,0,7,,,,,0,,,76,100
24000,note_on,,,,,32,0,7,,,,,0,,,74,100
24000,note_on,,,,,64,0,12,,,,,5,,,50,85
24064,note_off,,,,,64,0,12,,,,,5,,,50,100
24064,note_off,,,,,256,0,8,,,,,1,,,74,100
24096,note_on,,,,,32,0,12,,,,,5,,,52,85
24128,note_off,,,,,128,0,7,,,,,0,,,74,100
24160,note_off,,,,,64,0,12,,,,,5,,,52,100
24192,note_on,,,,,32,0,12,,,,,5,,,53,85
24288,note_on,,,,,160,0,7,,,,,0,,,81,100
24288,note_on,,,,,224,0,8,,,,,1,,,77,100
24320,note_off,,,,,128,0,12,,,,,5,,,53,100
24352,note_off,,,,,64,0,7,,,,,0,,,81,100
24352,note_off,,,,,64,0,8,,,,,1,,,77,100
24384,note_on,,,,,32,0,7,,,,,0,,,79,100
24384,note_on,,,,,32,0,8,,,,,1,,,76,100
24384,note_on,,,,,64,0,12,,,,,5,,,50,85
24448,note_off,,,,,64,0,7,,,,,0,,,79,100
24448,note_off,,,,,64,0,8,,,,,1,,,76,100
24480,note_on,,,,,32,0,7,,,,,0,,,81,100
24480,note_on,,,,,32,0,8,,,,,1,,,77,100
24512,note_off,,,,,128,0,12,,,,,5,,,50,100
24544,note_off,,,,,64,0,8,,,,,1,,,77,100
24544,note_off,,,,,64,0,7,,,,,0,,,81,100
24576,note_on,,,,,64,0,12,,,,,5,,,55,85
24576,note_on,,,,,32,0,8,,,,,1,,,79,100
24576,note_on,,,,,32,0,7,,,,,0,,,82,100
24668,note_off,,,,,92,0,8,,,,,1,,,79,100
24668,note_off,,,,,92,0,7,,,,,0,,,82,100
24672,note_on,,,,,4,0,8,,,,,1,,,77,100
24672,note_on,,,,,4,0,7,,,,,0,,,81,100
24704,note_off,,,,,128,0,12,,,,,5,,,55,100
24736,note_off,,,,,64,0,8,,,,,1,,,77,100
24736,note_off,,,,,64,0,7,,,,,0,,,81,100
24768,note_on,,,,,64,0,12,,,,,5,,,43,85
24768,note_on,,,,,32,0,8,,,,,1,,,79,100
24768,note_on,,,,,32,0,7,,,,,0,,,82,100
24860,note_off,,,,,92,0,8,,,,,1,,,79,100
24860,note_off,,,,,92,0,7,,,,,0,,,82,100
24864,note_on,,,,,4,0,8,,,,,1,,,77,100
24864,note_on,,,,,4,0,7,,,,,0,,,81,100
24896,note_off,,,,,128,0,12,,,,,5,,,43,100
24928,note_off,,,,,64,0,8,,,,,1,,,77,100
24928,note_off,,,,,64,0,7,,,,,0,,,81,100
24960,note_on,,,,,32,0,7,,,,,0,,,82,100
24960,note_on,,,,,32,0,8,,,,,1,,,79,100
25052,note_off,,,,,92,0,7,,,,,0,,,82,100
25052,note_off,,,,,92,0,8,,,,,1,,,79,100
25056,note_on,,,,,4,0,7,,,,,0,,,81,100
25056,note_on,,,,,4,0,8,,,,,1,,,77,100
25120,note_off,,,,,64,0,7,,,,,0,,,81,100
25120,note_off,,,,,64,0,8,,,,,1,,,77,100
25152,note_on,,,,,256,0,12,,,,,5,,,55,85
25152,note_on,,,,,32,0,7,,,,,0,,,79,100
25152,note_on,,,,,32,0,8,,,,,1,,,76,100
25244,note_off,,,,,92,0,7,,,,,0,,,79,100
25244,note_off,,,,,92,0,8,,,,,1,,,76,100
25248,note_on,,,,,4,0,7,,,,,0,,,77,100
25248,note_on,,,,,4,0,8,,,,,1,,,74,100
25280,note_off,,,,,128,0,12,,,,,5,,,55,100
25312,note_off,,,,,64,0,8,,,,,1,,,74,100
25312,note_off,,,,,64,0,7,,,,,0,,,77,100
25344,note_on,,,,,32,0,8,,,,,1,,,76,100
25344,note_on,,,,,64,0,12,,,,,5,,,60,85
25344,note_on,,,,,32,0,7,,,,,0,,,79,100
25472,note_off,,,,,128,0,12,,,,,5,,,60,100
25472,note_off,,,,,128,0,8,,,,,1,,,76,100
25472,note_off,,,,,128,0,7,,,,,0,,,79,100
25536,note_on,,,,,64,0,8,,,,,1,,,60,100
25536,note_on,,,,,64,0,12,,,,,5,,,48,85
25536,note_on,,,,,64,0,7,,,,,0,,,64,100
25600,note_off,,,,,64,0,12,,,,,5,,,48,100
25632,note_on,,,,,32,0,12,,,,,5,,,50,85
25664,note_off,,,,,128,0,8,,,,,1,,,60,100
25664,note_off,,,,,128,0,7,,,,,0,,,64,100
25696,note_off,,,,,64,0,12,,,,,5,,,50,100
25728,note_on,,,,,32,0,12,,,,,5,,,52,85
25824,note_on,,,,,160,0,8,,,,,1,,,76,100
25824,note_on,,,,,160,0,7,,,,,0,,,79,100
25856,note_off,,,,,128,0,12,,,,,5,,,52,100
25888,note_off,,,,,64,0,8,,,,,1,,,76,100
25888,note_off,,,,,64,0,7,,,,,0,,,79,100
25920,note_on,,,,,32,0,7,,,,,0,,,77,100
25920,note_on,,,,,32,0,8,,,,,1,,,74,100
25920,note_on,,,,,64,0,12,,,,,5,,,48,85
25984,note_off,,,,,64,0,7,,,,,0,,,77,100
25984,note_off,,,,,64,0,8,,,,,1,,,74,100
26016,note_on,,,,,32,0,7,,,,,0,,,79,100
26016,note_on,,,,,32,0,8,,,,,1,,,76,100
26048,note_off,,,,,128,0,12,,,,,5,,,48,100
26080,note_off,,,,,64,0,8,,,,,1,,,76,100
26080,note_off,,,,,64,0,7,,,,,0,,,79,100
26112,note_on,,,,,64,0,12,,,,,5,,,53,85
26112,note_on,,,,,32,0,8,,,,,1,,,77,100
26112,note_on,,,,,32,0,7,,,,,0,,,81,100
26204,note_off,,,,,92,0,8,,,,,1,,,77,100
26204,note_off,,,,,92,0,7,,,,,0,,,81,100
26208,note_on,,,,,4,0,8,,,,,1,,,76,100
26208,note_on,,,,,4,0,7,,,,,0,,,79,100
26240,note_off,,,,,128,0,12,,,,,5,,,53,100
26272,note_off,,,,,64,0,8,,,,,1,,,76,100
26272,note_off,,,,,64,0,7,,,,,0,,,79,100
26304,note_on,,,,,32,0,8,,,,,1,,,77,100
26304,note_on,,,,,64,0,12,,,,,5,,,41,85
26304,note_on,,,,,32,0,7,,,,,0,,,81,100
26396,note_off,,,,,92,0,8,,,,,1,,,77,100
26396,note_off,,,,,92,0,7,,,,,0,,,81,100
26400,note_on,,,,,4,0,7,,,,,0,,,79,100
26400,note_on,,,,,4,0,8,,,,,1,,,76,100
26432,note_off,,,,,128,0,12,,,,,5,,,41,100
26464,note_off,,,,,64,0,8,,,,,1,,,76,100
26464,note_off,,,,,64,0,7,,,,,0,,,79,100
26496,note_on,,,,,32,0,8,,,,,1,,,77,100
26496,note_on,,,,,32,0,7,,,,,0,,,81,100
26588,note_off,,,,,92,0,8,,,,,1,,,77,100
26588,note_off,,,,,92,0,7,,,,,0,,,81,100
26592,note_on,,,,,4,0,8,,,,,1,,,76,100
26592,note_on,,,,,4,0,7,,,,,0,,,79,100
26656,note_off,,,,,64,0,8,,,,,1,,,76,100
26656,note_off,,,,,64,0,7,,,,,0,,,79,100
26688,note_on,,,,,32,0,8,,,,,1,,,74,100
26688,note_on,,,,,256,0,12,,,,,5,,,53,85
26688,note_on,,,,,32,0,7,,,,,0,,,77,100
26780,note_off,,,,,92,0,8,,,,,1,,,74,100
26780,note_off,,,,,92,0,7,,,,,0,,,77,100
26784,note_on,,,,,4,0,7,,,,,0,,,76,100
26784,note_on,,,,,4,0,8,,,,,1,,,72,100
26816,note_off,,,,,128,0,12,,,,,5,,,53,100
26848,note_off,,,,,64,0,8,,,,,1,,,72,100
26848,note_off,,,,,64,0,7,,,,,0,,,76,100
26880,note_on,,,,,32,0,8,,,,,1,,,74,100
26880,note_on,,,,,32,0,7,,,,,0,,,77,100
26880,note_on,,,,,64,0,12,,,,,5,,,58,85
27008,note_off,,,,,128,0,8,,,,,1,,,74,100
27008,note_off,,,,,128,0,12,,,,,5,,,58,100
27008,note_off,,,,,128,0,7,,,,,0,,,77,100
27072,note_on,,,,,64,0,12,,,,,5,,,46,85
27072,note_on,,,,,64,0,8,,,,,1,,,58,100
27072,note_on,,,,,64,0,7,,,,,0,,,62,100
27136,note_off,,,,,64,0,12,,,,,5,,,46,100
27168,note_on,,,,,32,0,12,,,,,5,,,48,85
27200,note_off,,,,,128,0,7,,,,,0,,,62,100
27200,note_off,,,,,128,0,8,,,,,1,,,58,100
27232,note_off,,,,,64,0,12,,,,,5,,,48,100
27264,note_on,,,,,32,0,12,,,,,5,,,50,85
27360,note_on,,,,,160,0,8,,,,,1,,,74,100
27360,note_on,,,,,160,0,7,,,,,0,,,77,100
27392,note_off,,,,,128,0,12,,,,,5,,,50,100
27424,note_off,,,,,64,0,8,,,,,1,,,74,100
27424,note_off,,,,,64,0,7,,,,,0,,,77,100
27456,note_on,,,,,32,0,7,,,,,0,,,76,100
27456,note_on,,,,,32,0,8,,,,,1,,,72,100
27456,note_on,,,,,64,0,12,,,,,5,,,46,85
27520,note_off,,,,,64,0,7,,,,,0,,,76,100
27520,note_off,,,,,64,0,8,,,,,1,,,72,100
27552,note_on,,,,,32,0,8,,,,,1,,,74,100
27552,note_on,,,,,32,0,7,,,,,0,,,77,99
27584,note_off,,,,,128,0,12,,,,,5,,,46,100
27616,note_off,,,,,64,0,7,,,,,0,,,77,100
27616,note_off,,,,,64,0,8,,,,,1,,,74,100
27648,note_on,,,,,32,0,8,,,,,1,,,76,99
27648,note_on,,,,,64,0,12,,,,,5,,,52,85
27648,note_on,,,,,32,0,7,,,,,0,,,79,99
27740,note_off,,,,,92,0,7,,,,,0,,,79,100
27740,note_off,,,,,92,0,8,,,,,1,,,76,100
27744,note_on,,,,,4,0,8,,,,,1,,,74,99
27744,note_on,,,,,4,0,7,,,,,0,,,77,99
27776,note_off,,,,,128,0,12,,,,,5,,,52,100
27808,note_off,,,,,64,0,8,,,,,1,,,74,100
27808,note_off,,,,,64,0,7,,,,,0,,,77,100
27840,note_on,,,,,64,0,12,,,,,5,,,40,85
27840,note_on,,,,,32,0,8,,,,,1,,,76,99
27840,note_on,,,,,32,0,7,,,,,0,,,79,98
27932,note_off,,,,,92,0,8,,,,,1,,,76,100
27932,note_off,,,,,92,0,7,,,,,0,,,79,100
27936,note_on,,,,,4,0,8,,,,,1,,,74,98
27936,note_on,,,,,4,0,7,,,,,0,,,77,98
27968,note_off,,,,,128,0,12,,,,,5,,,40,100
28000,note_off,,,,,64,0,8,,,,,1,,,74,100
28000,note_off,,,,,64,0,7,,,,,0,,,77,100
28032,note_on,,,,,32,0,8,,,,,1,,,76,98
28032,note_on,,,,,32,0,7,,,,,0,,,79,98
28124,note_off,,,,,92,0,7,,,,,0,,,79,100
28124,note_off,,,,,92,0,8,,,,,1,,,76,100
28128,note_on,,,,,4,0,7,,,,,0,,,77,97
28128,note_on,,,,,4,0,8,,,,,1,,,74,98
28192,note_off,,,,,64,0,7,,,,,0,,,77,100
28192,note_off,,,,,64,0,8,,,,,1,,,74,100
28224,note_on,,,,,256,0,12,,,,,5,,,52,85
28224,note_on,,,,,32,0,8,,,,,1,,,72,97
28224,note_on,,,,,32,0,7,,,,,0,,,76,97
28316,note_off,,,,,92,0,8,,,,,1,,,72,100
28316,note_off,,,,,92,0,7,,,,,0,,,76,100
28320,note_on,,,,,4,0,8,,,,,1,,,71,97
28320,note_on,,,,,4,0,7,,,,,0,,,74,97
28352,note_off,,,,,128,0,12,,,,,5,,,52,100
28384,note_off,,,,,64,0,7,,,,,0,,,74,100
28384,note_off,,,,,64,0,8,,,,,1,,,71,100
28416,note_on,,,,,32,0,7,,,,,0,,,76,96
28416,note_on,,,,,32,0,8,,,,,1,,,72,96
28416,note_on,,,,,64,0,12,,,,,5,,,57,85
28544,note_off,,,,,128,0,8,,,,,1,,,72,100
28544,note_off,,,,,128,0,12,,,,,5,,,57,100
28544,note_off,,,,,128,0,7,,,,,0,,,76,100
28608,note_on,,,,,64,0,8,,,,,1,,,57,96
28608,note_on,,,,,64,0,12,,,,,5,,,45,85
28608,note_on,,,,,64,0,7,,,,,0,,,60,96
28672,note_off,,,,,64,0,12,,,,,5,,,45,100
28704,note_on,,,,,32,0,12,,,,,5,,,47,85
28736,note_off,,,,,128,0,7,,,,,0,,,60,100
28736,note_off,,,,,128,0,8,,,,,1,,,57,100
28768,note_off,,,,,64,0,12,,,,,5,,,47,100
28800,note_on,,,,,32,0,12,,,,,5,,,48,85
28896,note_on,,,,,160,0,7,,,,,0,,,76,94
28896,note_on,,,,,160,0,8,,,,,1,,,72,95
28928,note_off,,,,,128,0,12,,,,,5,,,48,100
28960,note_off,,,,,64,0,7,,,,,0,,,76,100
28960,note_off,,,,,64,0,8,,,,,1,,,72,100
28992,note_on,,,,,32,0,7,,,,,0,,,74,94
28992,note_on,,,,,32,0,8,,,,,1,,,71,94
28992,note_on,,,,,64,0,12,,,,,5,,,45,85
29056,note_off,,,,,64,0,7,,,,,0,,,74,100
29056,note_off,,,,,64,0,8,,,,,1,,,71,100
29088,note_on,,,,,32,0,8,,,,,1,,,72,94
29088,note_on,,,,,32,0,7,,,,,0,,,76,94
29120,note_off,,,,,128,0,12,,,,,5,,,45,100
29152,note_off,,,,,64,0,7,,,,,0,,,76,100
29152,note_off,,,,,64,0,8,,,,,1,,,72,100
29184,note_on,,,,,32,0,7,,,,,0,,,77,93
29184,note_on,,,,,64,0,12,,,,,5,,,50,85
29184,note_on,,,,,32,0,8,,,,,1,,,74,93
29276,note_off,,,,,92,0,8,,,,,1,,,74,100
29276,note_off,,,,,92,0,7,,,,,0,,,77,100
29280,note_on,,,,,4,0,8,,,,,1,,,72,93
29280,note_on,,,,,4,0,7,,,,,0,,,76,93
29312,note_off,,,,,128,0,12,,,,,5,,,50,100
29344,note_off,,,,,64,0,7,,,,,0,,,76,100
29344,note_off,,,,,64,0,8,,,,,1,,,72,100
29376,note_on,,,,,64,0,12,,,,,5,,,38,85
29376,note_on,,,,,32,0,7,,,,,0,,,77,93
29376,note_on,,,,,32,0,8,,,,,1,,,74,93
29468,note_off,,,,,92,0,8,,,,,1,,,74,100
29468,note_off,,,,,92,0,7,,,,,0,,,77,100
29472,note_on,,,,,4,0,7,,,,,0,,,76,92
29472,note_on,,,,,4,0,8,,,,,1,,,72,92
29504,note_off,,,,,128,0,12,,,,,5,,,38,100
29536,note_off,,,,,64,0,7,,,,,0,,,76,100
29536,note_off,,,,,64,0,8,,,,,1,,,72,100
29568,note_on,,,,,32,0,8,,,,,1,,,74,92
29568,note_on,,,,,32,0,7,,,,,0,,,77,92
29660,note_off,,,,,92,0,8,,,,,1,,,74,100
29660,note_off,,,,,92,0,7,,,,,0,,,77,100
29664,note_on,,,,,4,0,8,,,,,1,,,72,92
29664,note_on,,,,,4,0,7,,,,,0,,,76,92
29728,note_off,,,,,64,0,8,,,,,1,,,72,100
29728,note_off,,,,,64,0,7,,,,,0,,,76,100
29760,note_on,,,,,32,0,8,,,,,1,,,71,91
29760,note_on,,,,,32,0,7,,,,,0,,,74,91
29760,note_on,,,,,256,0,12,,,,,5,,,62,85
29852,note_off,,,,,92,0,8,,,,,1,,,71,100
29852,note_off,,,,,92,0,7,,,,,0,,,74,100
29856,note_on,,,,,4,0,7,,,,,0,,,72,91
29856,note_on,,,,,4,0,8,,,,,1,,,69,91
29888,note_off,,,,,128,0,12,,,,,5,,,62,100
29920,note_off,,,,,64,0,7,,,,,0,,,72,100
29920,note_off,,,,,64,0,8,,,,,1,,,69,100
29952,note_on,,,,,32,0,7,,,,,0,,,71,91
29952,note_on,,,,,64,0,12,,,,,5,,,64,85
29952,note_on,,,,,32,0,8,,,,,1,,,68,91
30080,note_off,,,,,128,0,12,,,,,5,,,64,100
30144,note_on,,,,,64,0,12,,,,,5,,,52,85
30208,note_off,,,,,256,0,7,,,,,0,,,71,100
30208,note_off,,,,,64,0,12,,,,,5,,,52,100
30208,note_off,,,,,256,0,8,,,,,1,,,68,100
30240,note_on,,,,,32,0,12,,,,,5,,,54,85
30304,note_off,,,,,64,0,12,,,,,5,,,54,100
30336,note_on,,,,,32,0,12,,,,,5,,,56,85
30464,note_off,,,,,128,0,12,,,,,5,,,56,100
30528,note_on,,,,,64,0,12,,,,,5,,,52,85
30528,note_on,,,,,320,0,8,,,,,1,,,68,100
30528,note_on,,,,,320,0,7,,,,,0,,,71,100
30656,note_off,,,,,128,0,7,,,,,0,,,71,100
30656,note_off,,,,,128,0,12,,,,,5,,,52,100
30656,note_off,,,,,128,0,8,,,,,1,,,68,100
30720,note_on,,,,,64,0,7,,,,,0,,,72,100
30720,note_on,,,,,64,0,8,,,,,1,,,69,100
30720,note_on,,,,,64,0,12,,,,,5,,,45,85
30848,note_off,,,,,128,0,12,,,,,5,,,45,100
30908,note_off,,,,,188,0,7,,,,,0,,,72,100
30908,note_off,,,,,188,0,8,,,,,1,,,69,100
30912,note_on,,,,,64,0,12,,,,,5,,,57,85
30912,note_on,,,,,4,0,7,,,,,0,,,76,100
30912,note_on,,,,,4,0,8,,,,,1,,,72,100
31040,note_off,,,,,128,0,12,,,,,5,,,57,100
31040,note_off,,,,,128,0,7,,,,,0,,,76,100
31040,note_off,,,,,128,0,8,,,,,1,,,72,100
31104,note_on,,,,,64,0,8,,,,,1,,,72,100
31104,note_on,,,,,64,0,7,,,,,0,,,76,100
31104,note_on,,,,,64,0,12,,,,,5,,,57,85
31232,note_off,,,,,128,0,12,,,,,5,,,57,100
31292,note_off,,,,,188,0,7,,,,,0,,,76,100
31292,note_off,,,,,188,0,8,,,,,1,,,72,100
31296,note_on,,,,,4,0,7,,,,,0,,,75,100
31296,note_on,,,,,64,0,12,,,,,5,,,57,85
31296,note_on,,,,,4,0,8,,,,,1,,,71,100
31424,note_off,,,,,128,0,12,,,,,5,,,57,100
31424,note_off,,,,,128,0,7,,,,,0,,,75,100
31424,note_off,,,,,128,0,8,,,,,1,,,71,100
31488,note_on,,,,,64,0,12,,,,,5,,,57,85
31488,note_on,,,,,64,0,7,,,,,0,,,75,100
31488,note_on,,,,,64,0,8,,,,,1,,,71,100
31616,note_off,,,,,128,0,12,,,,,5,,,57,100
31676,note_off,,,,,188,0,7,,,,,0,,,75,100
31680,note_on,,,,,64,0,12,,,,,5,,,56,85
31680,note_on,,,,,4,0,7,,,,,0,,,76,100
31808,note_off,,,,,128,0,7,,,,,0,,,76,100
31808,note_off,,,,,128,0,12,,,,,5,,,56,100
31872,note_on,,,,,64,0,12,,,,,5,,,56,85
31872,note_on,,,,,64,0,7,,,,,0,,,76,100
32000,note_off,,,,,128,0,12,,,,,5,,,56,100
32060,note_off,,,,,572,0,8,,,,,1,,,71,100
32060,note_off,,,,,188,0,7,,,,,0,,,76,100
32064,note_on,,,,,4,0,7,,,,,0,,,73,100
32064,note_on,,,,,4,0,8,,,,,1,,,69,100
32064,note_on,,,,,64,0,12,,,,,5,,,55,85
32192,note_off,,,,,128,0,8,,,,,1,,,69,100
32192,note_off,,,,,128,0,7,,,,,0,,,73,100
32192,note_off,,,,,128,0,12,,,,,5,,,55,100
32256,note_on,,,,,64,0,7,,,,,0,,,73,100
32256,note_on,,,,,64,0,8,,,,,1,,,69,100
32256,note_on,,,,,64,0,12,,,,,5,,,55,85
32384,note_off,,,,,128,0,12,,,,,5,,,55,100
32444,note_off,,,,,188,0,7,,,,,0,,,73,100
32448,note_on,,,,,4,0,7,,,,,0,,,74,100
32448,note_on,,,,,64,0,12,,,,,5,,,54,85
32576,note_off,,,,,128,0,12,,,,,5,,,54,100
32576,note_off,,,,,128,0,7,,,,,0,,,74,100
32640,note_on,,,,,64,0,7,,,,,0,,,74,100
32640,note_on,,,,,64,0,12,,,,,5,,,54,85
32768,note_off,,,,,128,0,12,,,,,5,,,54,100
32828,note_off,,,,,572,0,8,,,,,1,,,69,100
32828,note_off,,,,,188,0,7,,,,,0,,,74,100
32832,note_on,,,,,64,0,12,,,,,5,,,53,85
32832,note_on,,,,,4,0,8,,,,,1,,,67,100
32832,note_on,,,,,4,0,7,,,,,0,,,71,100
32960,note_off,,,,,128,0,12,,,,,5,,,53,100
32960,note_off,,,,,128,0,8,,,,,1,,,67,100
32960,note_off,,,,,128,0,7,,,,,0,,,71,100
33024,note_on,,,,,64,0,12,,,,,5,,,53,85
33024,note_on,,,,,64,0,8,,,,,1,,,67,100
33024,note_on,,,,,64,0,7,,,,,0,,,71,100
33212,note_off,,,,,188,0,7,,,,,0,,,71,100
33212,note_off,,,,,188,0,8,,,,,1,,,67,100
33212,note_off,,,,,188,0,12,,,,,5,,,53,100
33216,note_on,,,,,4,0,7,,,,,0,,,72,100
33216,note_on,,,,,4,0,12,,,,,5,,,52,85
33216,note_on,,,,,4,0,8,,,,,1,,,64,100
33344,note_off,,,,,128,0,7,,,,,0,,,72,100
33344,note_off,,,,,128,0,12,,,,,5,,,52,100
33344,note_off,,,,,128,0,8,,,,,1,,,64,100
33408,note_on,,,,,64,0,12,,,,,5,,,52,85
33408,note_on,,,,,64,0,7,,,,,0,,,72,100
33408,note_on,,,,,64,0,8,,,,,1,,,64,100
33596,note_off,,,,,188,0,7,,,,,0,,,72,100
33596,note_off,,,,,188,0,12,,,,,5,,,52,100
33596,note_off,,,,,188,0,8,,,,,1,,,64,100
33600,note_on,,,,,4,0,12,,,,,5,,,50,85
33600,note_on,,,,,4,0,8,,,,,1,,,65,100
33600,note_on,,,,,4,0,7,,,,,0,,,70,100
33728,note_off,,,,,128,0,12,,,,,5,,,50,100
33728,note_off,,,,,128,0,8,,,,,1,,,65,100
33728,note_off,,,,,128,0,7,,,,,0,,,70,100
33792,note_on,,,,,64,0,12,,,,,5,,,50,85
33792,note_on,,,,,64,0,7,,,,,0,,,70,100
33792,note_on,,,,,64,0,8,,,,,1,,,65,100
33920,note_off,,,,,128,0,8,,,,,1,,,65,100
33980,note_off,,,,,188,0,12,,,,,5,,,50,100
33984,note_on,,,,,64,0,8,,,,,1,,,64,100
33984,note_on,,,,,4,0,12,,,,,5,,,49,85
34048,note_off,,,,,256,0,7,,,,,0,,,70,100
34112,note_off,,,,,128,0,12,,,,,5,,,49,100
34176,note_on,,,,,64,0,12,,,,,5,,,49,85
34176,note_on,,,,,128,0,7,,,,,0,,,69,100
34240,note_off,,,,,256,0,8,,,,,1,,,64,100
34304,note_off,,,,,128,0,12,,,,,5,,,49,100
34368,note_on,,,,,64,0,12,,,,,5,,,48,85
34368,note_on,,,,,128,0,8,,,,,1,,,64,100
34496,note_off,,,,,128,0,12,,,,,5,,,48,100
34496,note_off,,,,,128,0,8,,,,,1,,,64,100
34560,note_on,,,,,64,0,8,,,,,1,,,65,100
34560,note_on,,,,,64,0,12,,,,,5,,,50,85
34688,note_off,,,,,128,0,8,,,,,1,,,65,100
34688,note_off,,,,,128,0,12,,,,,5,,,50,100
34688,note_off,,,,,512,0,7,,,,,0,,,69,100
34752,note_on,,,,,64,0,12,,,,,5,,,50,85
34752,note_on,,,,,64,0,8,,,,,1,,,59,100
34880,note_off,,,,,128,0,12,,,,,5,,,50,100
34944,note_on,,,,,64,0,12,,,,,5,,,52,85
34944,note_on,,,,,256,0,7,,,,,0,,,68,100
35008,note_off,,,,,256,0,8,,,,,1,,,59,100
35072,note_off,,,,,128,0,12,,,,,5,,,52,100
35136,note_on,,,,,128,0,8,,,,,1,,,64,100
35136,note_on,,,,,64,0,12,,,,,5,,,52,85
35200,note_off,,,,,256,0,7,,,,,0,,,68,100
35264,note_off,,,,,128,0,8,,,,,1,,,64,100
35264,note_off,,,,,128,0,12,,,,,5,,,52,100
35324,program_change,,,,,60,0,12,,,,,5,48,,,
35328,note_on,,,,,13568,0,9,,,,,2,,,84,85
35328,note_on,,,,,128,0,7,,,,,0,,,69,100
35328,note_on,,,,,64,0,8,,,,,1,,,60,100
35328,note_on,,,,,13568,0,15,,,,,7,,,45,100
35328,note_on,,,,,0,0,14,,,,,7,,,64,100
35328,note_on,,,,,13568,0,14,,,,,7,,,60,100
35328,note_on,,,,,13568,0,11,,,,,4,,,60,85
35328,note_on,,,,,13568,0,13,,,,,6,,,33,85
35328,note_on,,,,,13568,0,10,,,,,3,,,76,85
35328,note_on,,,,,4,0,12,,,,,5,,,45,85
35392,note_off,,,,,64,0,7,,,,,0,,,69,100
35424,note_on,,,,,32,0,7,,,,,0,,,81,100
35488,note_off,,,,,64,0,7,,,,,0,,,81,100
35520,note_on,,,,,32,0,7,,,,,0,,,79,100
35584,note_off,,,,,256,0,11,,,,,4,,,60,100
35584,note_off,,,,,256,0,10,,,,,3,,,76,100
35584,note_off,,,,,256,0,15,,,,,7,,,45,100
35584,note_off,,,,,256,0,13,,,,,6,,,33,100
35584,note_off,,,,,256,0,9,,,,,2,,,84,100
35584,note_off,,,,,64,0,7,,,,,0,,,79,100
35584,note_off,,,,,256,0,8,,,,,1,,,60,100
35584,note_off,,,,,256,0,12,,,,,5,,,45,100
35584,note_off,,,,,0,0,14,,,,,7,,,64,100
35584,note_off,,,,,256,0,14,,,,,7,,,60,100
35616,note_on,,,,,32,0,7,,,,,0,,,81,100
35680,note_off,,,,,64,0,7,,,,,0,,,81,100
35712,note_on,,,,,32,0,7,,,,,0,,,76,100
35776,note_off,,,,,64,0,7,,,,,0,,,76,100
35808,note_on,,,,,32,0,7,,,,,0,,,77,100
35872,note_off,,,,,64,0,7,,,,,0,,,77,100
35904,note_on,,,,,32,0,7,,,,,0,,,79,100
35968,note_off,,,,,64,0,7,,,,,0,,,79,100
36000,note_on,,,,,32,0,7,,,,,0,,,81,100
36064,note_off,,,,,64,0,7,,,,,0,,,81,100
36096,note_on,,,,,512,0,13,,,,,6,,,38,85
36096,note_on,,,,,512,0,9,,,,,2,,,84,85
36096,note_on,,,,,512,0,11,,,,,4,,,62,85
36096,note_on,,,,,512,0,15,,,,,7,,,50,100
36096,note_on,,,,,32,0,7,,,,,0,,,77,100
36096,note_on,,,,,512,0,10,,,,,3,,,77,85
36096,note_on,,,,,512,0,14,,,,,7,,,69,100
36096,note_on,,,,,0,0,14,,,,,7,,,72,100
36096,note_on,,,,,512,0,12,,,,,5,,,50,85
36160,note_off,,,,,64,0,7,,,,,0,,,77,100
36192,note_on,,,,,32,0,7,,,,,0,,,81,100
36256,note_off,,,,,64,0,7,,,,,0,,,81,100
36288,note_on,,,,,32,0,7,,,,,0,,,79,100
36352,note_off,,,,,256,0,10,,,,,3,,,77,100
36352,note_off,,,,,256,0,13,,,,,6,,,38,100
36352,note_off,,,,,0,0,14,,,,,7,,,72,100
36352,note_off,,,,,64,0,7,,,,,0,,,79,100
36352,note_off,,,,,256,0,14,,,,,7,,,69,100
36352,note_off,,,,,256,0,9,,,,,2,,,84,100
36352,note_off,,,,,256,0,15,,,,,7,,,50,100
36352,note_off,,,,,256,0,12,,,,,5,,,50,100
36352,note_off,,,,,256,0,11,,,,,4,,,62,100
36384,note_on,,,,,32,0,7,,,,,0,,,81,100
36448,note_off,,,,,64,0,7,,,,,0,,,81,100
36480,note_on,,,,,32,0,7,,,,,0,,,77,100
36544,note_off,,,,,64,0,7,,,,,0,,,77,100
36576,note_on,,,,,32,0,7,,,,,0,,,79,100
36640,note_off,,,,,64,0,7,,,,,0,,,79,100
36672,note_on,,,,,32,0,7,,,,,0,,,81,100
36736,note_off,,,,,64,0,7,,,,,0,,,81,100
36768,note_on,,,,,32,0,7,,,,,0,,,77,100
36832,note_off,,,,,64,0,7,,,,,0,,,77,100
36864,note_on,,,,,512,0,11,,,,,4,,,62,85
36864,note_on,,,,,32,0,7,,,,,0,,,74,100
36864,note_on,,,,,512,0,9,,,,,2,,,83,85
36864,note_on,,,,,512,0,12,,,,,5,,,55,85
36864,note_on,,,,,512,0,14,,,,,7,,,77,100
36864,note_on,,,,,512,0,15,,,,,7,,,55,100
36864,note_on,,,,,512,0,10,,,,,3,,,77,85
36864,note_on,,,,,0,0,14,,,,,7,,,71,100
36864,note_on,,,,,512,0,13,,,,,6,,,43,85
36928,note_off,,,,,64,0,7,,,,,0,,,74,100
36960,note_on,,,,,32,0,7,,,,,0,,,79,100
37024,note_off,,,,,64,0,7,,,,,0,,,79,100
37056,note_on,,,,,32,0,7,,,,,0,,,77,100
37120,note_off,,,,,64,0,7,,,,,0,,,77,100
37120,note_off,,,,,256,0,15,,,,,7,,,55,100
37120,note_off,,,,,256,0,13,,,,,6,,,43,100
37120,note_off,,,,,256,0,14,,,,,7,,,77,100
37120,note_off,,,,,0,0,14,,,,,7,,,71,100
37120,note_off,,,,,256,0,11,,,,,4,,,62,100
37120,note_off,,,,,256,0,12,,,,,5,,,55,100
37120,note_off,,,,,256,0,9,,,,,2,,,83,100
37120,note_off,,,,,256,0,10,,,,,3,,,77,100
37152,note_on,,,,,32,0,7,,,,,0,,,79,100
37216,note_off,,,,,64,0,7,,,,,0,,,79,100
37248,note_on,,,,,32,0,7,,,,,0,,,74,100
37312,note_off,,,,,64,0,7,,,,,0,,,74,100
37344,note_on,,,,,32,0,7,,,,,0,,,76,100
37408,note_off,,,,,64,0,7,,,,,0,,,76,100
37440,note_on,,,,,32,0,7,,,,,0,,,77,100
37504,note_off,,,,,64,0,7,,,,,0,,,77,100
37536,note_on,,,,,32,0,7,,,,,0,,,79,100
37600,note_off,,,,,64,0,7,,,,,0,,,79,100
37632,note_on,,,,,0,0,14,,,,,7,,,71,100
37632,note_on,,,,,512,0,14,,,,,7,,,67,100
37632,note_on,,,,,512,0,12,,,,,5,,,48,85
37632,note_on,,,,,32,0,7,,,,,0,,,76,100
37632,note_on,,,,,512,0,10,,,,,3,,,76,85
37632,note_on,,,,,512,0,15,,,,,7,,,48,100
37632,note_on,,,,,512,0,13,,,,,6,,,36,85
37632,note_on,,,,,512,0,11,,,,,4,,,60,85
37632,note_on,,,,,512,0,9,,,,,2,,,83,85
37696,note_off,,,,,64,0,7,,,,,0,,,76,100
37728,note_on,,,,,32,0,7,,,,,0,,,79,100
37792,note_off,,,,,64,0,7,,,,,0,,,79,100
37824,note_on,,,,,32,0,7,,,,,0,,,77,100
37888,note_off,,,,,256,0,15,,,,,7,,,48,100
37888,note_off,,,,,64,0,7,,,,,0,,,77,100
37888,note_off,,,,,256,0,13,,,,,6,,,36,100
37888,note_off,,,,,0,0,14,,,,,7,,,71,100
37888,note_off,,,,,256,0,9,,,,,2,,,83,100
37888,note_off,,,,,256,0,12,,,,,5,,,48,100
37888,note_off,,,,,256,0,14,,,,,7,,,67,100
37888,note_off,,,,,256,0,11,,,,,4,,,60,100
37888,note_off,,,,,256,0,10,,,,,3,,,76,100
37920,note_on,,,,,32,0,7,,,,,0,,,79,100
37984,note_off,,,,,64,0,7,,,,,0,,,79,100
38016,note_on,,,,,32,0,7,,,,,0,,,76,100
38080,note_off,,,,,64,0,7,,,,,0,,,76,100
38112,note_on,,,,,32,0,7,,,,,0,,,77,100
38176,note_off,,,,,64,0,7,,,,,0,,,77,100
38208,note_on,,,,,32,0,7,,,,,0,,,79,100
38272,note_off,,,,,64,0,7,,,,,0,,,79,100
38304,note_on,,,,,32,0,7,,,,,0,,,76,100
38368,note_off,,,,,64,0,7,,,,,0,,,76,100
38400,note_on,,,,,512,0,9,,,,,2,,,81,85
38400,note_on,,,,,512,0,11,,,,,4,,,60,85
38400,note_on,,,,,512,0,12,,,,,5,,,53,85
38400,note_on,,,,,512,0,13,,,,,6,,,41,85
38400,note_on,,,,,512,0,15,,,,,7,,,53,100
38400,note_on,,,,,32,0,7,,,,,0,,,72,100
38400,note_on,,,,,512,0,14,,,,,7,,,72,100
38400,note_on,,,,,0,0,14,,,,,7,,,76,100
38400,note_on,,,,,512,0,10,,,,,3,,,76,85
38464,note_off,,,,,64,0,7,,,,,0,,,72,100
38496,note_on,,,,,32,0,7,,,,,0,,,77,100
38560,note_off,,,,,64,0,7,,,,,0,,,77,100
38592,note_on,,,,,32,0,7,,,,,0,,,76,100
38656,note_off,,,,,256,0,12,,,,,5,,,53,100
38656,note_off,,,,,256,0,15,,,,,7,,,53,100
38656,note_off,,,,,256,0,9,,,,,2,,,81,100
38656,note_off,,,,,64,0,7,,,,,0,,,76,100
38656,note_off,,,,,256,0,10,,,,,3,,,76,100
38656,note_off,,,,,256,0,11,,,,,4,,,60,100
38656,note_off,,,,,256,0,13,,,,,6,,,41,100
38656,note_off,,,,,256,0,14,,,,,7,,,72,100
38656,note_off,,,,,0,0,14,,,,,7,,,76,100
38688,note_on,,,,,32,0,7,,,,,0,,,77,100
38752,note_off,,,,,64,0,7,,,,,0,,,77,100
38784,note_on,,,,,32,0,7,,,,,0,,,72,100
38848,note_off,,,,,64,0,7,,,,,0,,,72,100
38880,note_on,,,,,32,0,7,,,,,0,,,74,100
38944,note_off,,,,,64,0,7,,,,,0,,,74,100
38976,note_on,,,,,32,0,7,,,,,0,,,76,100
39040,note_off,,,,,64,0,7,,,,,0,,,76,100
39072,note_on,,,,,32,0,7,,,,,0,,,77,100
39136,note_off,,,,,64,0,7,,,,,0,,,77,100
39168,note_on,,,,,512,0,9,,,,,2,,,81,85
39168,note_on,,,,,32,0,7,,,,,0,,,74,100
39168,note_on,,,,,512,0,14,,,,,7,,,65,100
39168,note_on,,,,,0,0,14,,,,,7,,,69,100
39168,note_on,,,,,512,0,10,,,,,3,,,74,85
39168,note_on,,,,,512,0,15,,,,,7,,,47,100
39168,note_on,,,,,512,0,11,,,,,4,,,59,85
39168,note_on,,,,,512,0,12,,,,,5,,,47,85
39168,note_on,,,,,512,0,13,,,,,6,,,35,85
39232,note_off,,,,,64,0,7,,,,,0,,,74,100
39264,note_on,,,,,32,0,7,,,,,0,,,77,100
39328,note_off,,,,,64,0,7,,,,,0,,,77,100
39360,note_on,,,,,32,0,7,,,,,0,,,76,100
39424,note_off,,,,,256,0,15,,,,,7,,,47,100
39424,note_off,,,,,256,0,12,,,,,5,,,47,100
39424,note_off,,,,,256,0,10,,,,,3,,,74,100
39424,note_off,,,,,256,0,9,,,,,2,,,81,100
39424,note_off,,,,,256,0,11,,,,,4,,,59,100
39424,note_off,,,,,64,0,7,,,,,0,,,76,100
39424,note_off,,,,,256,0,14,,,,,7,,,65,100
39424,note_off,,,,,0,0,14,,,,,7,,,69,100
39424,note_off,,,,,256,0,13,,,,,6,,,35,100
39456,note_on,,,,,32,0,7,,,,,0,,,77,100
39520,note_off,,,,,64,0,7,,,,,0,,,77,100
39552,note_on,,,,,32,0,7,,,,,0,,,74,100
39616,note_off,,,,,64,0,7,,,,,0,,,74,100
39648,note_on,,,,,32,0,7,,,,,0,,,76,100
39712,note_off,,,,,64,0,7,,,,,0,,,76,100
39744,note_on,,,,,32,0,7,,,,,0,,,77,100
39808,note_off,,,,,64,0,7,,,,,0,,,77,100
39840,note_on,,,,,32,0,7,,,,,0,,,74,100
39904,note_off,,,,,64,0,7,,,,,0,,,74,100
39936,note_on,,,,,512,0,15,,,,,7,,,52,100
39936,note_on,,,,,512,0,13,,,,,6,,,40,85
39936,note_on,,,,,32,0,7,,,,,0,,,71,100
39936,note_on,,,,,512,0,14,,,,,7,,,71,100
39936,note_on,,,,,512,0,12,,,,,5,,,52,85
39936,note_on,,,,,512,0,10,,,,,3,,,74,85
39936,note_on,,,,,512,0,11,,,,,4,,,59,85
39936,note_on,,,,,512,0,9,,,,,2,,,79,85
39936,note_on,,,,,0,0,14,,,,,7,,,74,100
40000,note_off,,,,,64,0,7,,,,,0,,,71,100
40032,note_on,,,,,32,0,7,,,,,0,,,76,100
40096,note_off,,,,,64,0,7,,,,,0,,,76,100
40128,note_on,,,,,32,0,7,,,,,0,,,74,100
40192,note_off,,,,,256,0,11,,,,,4,,,59,100
40192,note_off,,,,,0,0,14,,,,,7,,,74,100
40192,note_off,,,,,256,0,13,,,,,6,,,40,100
40192,note_off,,,,,256,0,10,,,,,3,,,74,100
40192,note_off,,,,,64,0,7,,,,,0,,,74,100
40192,note_off,,,,,256,0,15,,,,,7,,,52,100
40192,note_off,,,,,256,0,12,,,,,5,,,52,100
40192,note_off,,,,,256,0,14,,,,,7,,,71,100
40192,note_off,,,,,256,0,9,,,,,2,,,79,100
40224,note_on,,,,,32,0,7,,,,,0,,,76,100
40288,note_off,,,,,64,0,7,,,,,0,,,76,100
40320,note_on,,,,,32,0,7,,,,,0,,,71,100
40384,note_off,,,,,64,0,7,,,,,0,,,71,100
40416,note_on,,,,,32,0,7,,,,,0,,,72,100
40480,note_off,,,,,64,0,7,,,,,0,,,72,100
40512,note_on,,,,,32,0,7,,,,,0,,,74,100
40576,note_off,,,,,64,0,7,,,,,0,,,74,100
40608,note_on,,,,,32,0,7,,,,,0,,,76,100
40672,note_off,,,,,64,0,7,,,,,0,,,76,100
40704,note_on,,,,,512,0,11,,,,,4,,,64,85
40704,note_on,,,,,32,0,7,,,,,0,,,72,100
40704,note_on,,,,,512,0,15,,,,,7,,,45,100
40704,note_on,,,,,512,0,9,,,,,2,,,79,85
40704,note_on,,,,,512,0,12,,,,,5,,,45,85
40704,note_on,,,,,512,0,10,,,,,3,,,72,85
40704,note_on,,,,,512,0,14,,,,,7,,,64,100
40704,note_on,,,,,512,0,13,,,,,6,,,33,85
40704,note_on,,,,,0,0,14,,,,,7,,,67,100
40768,note_off,,,,,64,0,7,,,,,0,,,72,100
40800,note_on,,,,,32,0,7,,,,,0,,,76,100
40864,note_off,,,,,64,0,7,,,,,0,,,76,100
40896,note_on,,,,,32,0,7,,,,,0,,,74,100
40960,note_off,,,,,256,0,14,,,,,7,,,64,100
40960,note_off,,,,,256,0,10,,,,,3,,,72,100
40960,note_off,,,,,256,0,11,,,,,4,,,64,100
40960,note_off,,,,,64,0,7,,,,,0,,,74,100
40960,note_off,,,,,256,0,13,,,,,6,,,33,100
40960,note_off,,,,,256,0,9,,,,,2,,,79,100
40960,note_off,,,,,0,0,14,,,,,7,,,67,100
40960,note_off,,,,,256,0,15,,,,,7,,,45,100
40960,note_off,,,,,256,0,12,,,,,5,,,45,100
40992,note_on,,,,,32,0,7,,,,,0,,,76,100
41056,note_off,,,,,64,0,7,,,,,0,,,76,100
41088,note_on,,,,,32,0,7,,,,,0,,,72,100
41152,note_off,,,,,64,0,7,,,,,0,,,72,100
41184,note_on,,,,,32,0,7,,,,,0,,,74,100
41248,note_off,,,,,64,0,7,,,,,0,,,74,100
41280,note_on,,,,,32,0,7,,,,,0,,,76,100
41344,note_off,,,,,64,0,7,,,,,0,,,76,100
41376,note_on,,,,,32,0,7,,,,,0,,,72,100
41440,note_off,,,,,64,0,7,,,,,0,,,72,100
41472,note_on,,,,,512,0,14,,,,,7,,,65,100
41472,note_on,,,,,512,0,9,,,,,2,,,77,85
41472,note_on,,,,,0,0,14,,,,,7,,,72,100
41472,note_on,,,,,512,0,12,,,,,5,,,57,85
41472,note_on,,,,,512,0,15,,,,,7,,,57,100
41472,note_on,,,,,512,0,13,,,,,6,,,45,85
41472,note_on,,,,,512,0,10,,,,,3,,,72,85
41472,note_on,,,,,512,0,11,,,,,4,,,64,85
41472,note_on,,,,,32,0,7,,,,,0,,,69,100
41536,note_off,,,,,64,0,7,,,,,0,,,69,100
41568,note_on,,,,,32,0,7,,,,,0,,,71,100
41632,note_off,,,,,64,0,7,,,,,0,,,71,100
41664,note_on,,,,,32,0,7,,,,,0,,,72,100
41728,note_off,,,,,256,0,15,,,,,7,,,57,100
41728,note_off,,,,,256,0,10,,,,,3,,,72,100
41728,note_off,,,,,256,0,11,,,,,4,,,64,100
41728,note_off,,,,,256,0,9,,,,,2,,,77,100
41728,note_off,,,,,256,0,14,,,,,7,,,65,100
41728,note_off,,,,,0,0,14,,,,,7,,,72,100
41728,note_off,,,,,64,0,7,,,,,0,,,72,100
41728,note_off,,,,,256,0,13,,,,,6,,,45,100
41728,note_off,,,,,256,0,12,,,,,5,,,57,100
41760,note_on,,,,,32,0,7,,,,,0,,,74,100
41824,note_off,,,,,64,0,7,,,,,0,,,74,100
41856,note_on,,,,,32,0,7,,,,,0,,,76,100
41920,note_off,,,,,64,0,7,,,,,0,,,76,100
41952,note_on,,,,,32,0,7,,,,,0,,,78,100
42016,note_off,,,,,64,0,7,,,,,0,,,78,100
42048,note_on,,,,,32,0,7,,,,,0,,,80,100
42112,note_off,,,,,64,0,7,,,,,0,,,80,100
42144,note_on,,,,,32,0,7,,,,,0,,,81,100
42208,note_off,,,,,64,0,7,,,,,0,,,81,100
42240,note_on,,,,,512,0,11,,,,,4,,,64,100
42240,note_on,,,,,0,0,14,,,,,7,,,71,100
42240,note_on,,,,,512,0,12,,,,,5,,,56,100
42240,note_on,,,,,32,0,7,,,,,0,,,80,100
42240,note_on,,,,,512,0,14,,,,,7,,,76,100
42240,note_on,,,,,512,0,15,,,,,7,,,56,100
42240,note_on,,,,,512,0,9,,,,,2,,,76,100
42240,note_on,,,,,512,0,10,,,,,3,,,71,100
42240,note_on,,,,,512,0,13,,,,,6,,,44,100
42368,note_off,,,,,128,0,7,,,,,0,,,80,100
42368,note_off,,,,,128,0,9,,,,,2,,,76,100
42432,note_on,,,,,64,0,9,,,,,2,,,76,100
42432,note_on,,,,,64,0,7,,,,,0,,,76,100
42496,note_off,,,,,256,0,15,,,,,7,,,56,100
42496,note_off,,,,,256,0,14,,,,,7,,,76,100
42496,note_off,,,,,256,0,10,,,,,3,,,71,100
42496,note_off,,,,,256,0,13,,,,,6,,,44,100
42496,note_off,,,,,0,0,14,,,,,7,,,71,100
42496,note_off,,,,,256,0,11,,,,,4,,,64,100
42496,note_off,,,,,256,0,12,,,,,5,,,56,100
42560,note_off,,,,,128,0,9,,,,,2,,,76,100
42560,note_off,,,,,128,0,7,,,,,0,,,76,100
42624,note_on,,,,,0,0,14,,,,,7,,,72,100
42624,note_on,,,,,128,0,11,,,,,4,,,60,100
42624,note_on,,,,,64,0,9,,,,,2,,,77,100
42624,note_on,,,,,128,0,15,,,,,7,,,57,100
42624,note_on,,,,,128,0,13,,,,,6,,,45,100
42624,note_on,,,,,128,0,14,,,,,7,,,77,100
42624,note_on,,,,,128,0,12,,,,,5,,,57,100
42688,note_off,,,,,64,0,12,,,,,5,,,57,100
42688,note_off,,,,,64,0,13,,,,,6,,,45,100
42688,note_off,,,,,64,0,11,,,,,4,,,60,100
42720,note_on,,,,,32,0,13,,,,,6,,,45,100
42720,note_on,,,,,32,0,11,,,,,4,,,60,100
42720,note_on,,,,,32,0,12,,,,,5,,,57,100
42752,note_off,,,,,128,0,15,,,,,7,,,57,100
42784,note_off,,,,,64,0,12,,,,,5,,,57,100
42784,note_off,,,,,64,0,11,,,,,4,,,60,100
42784,note_off,,,,,64,0,13,,,,,6,,,45,100
42816,note_on,,,,,320,0,10,,,,,3,,,72,100
42816,note_on,,,,,32,0,12,,,,,5,,,57,100
42816,note_on,,,,,32,0,13,,,,,6,,,45,100
42816,note_on,,,,,64,0,15,,,,,7,,,57,100
42816,note_on,,,,,32,0,11,,,,,4,,,60,100
42880,note_off,,,,,64,0,12,,,,,5,,,57,100
42880,note_off,,,,,64,0,11,,,,,4,,,60,100
42880,note_off,,,,,0,0,14,,,,,7,,,72,100
42880,note_off,,,,,256,0,14,,,,,7,,,77,100
42880,note_off,,,,,64,0,13,,,,,6,,,45,100
42912,note_on,,,,,32,0,12,,,,,5,,,57,100
42912,note_on,,,,,32,0,13,,,,,6,,,45,100
42912,note_on,,,,,32,0,11,,,,,4,,,60,100
42944,note_off,,,,,128,0,15,,,,,7,,,57,100
42944,note_off,,,,,128,0,10,,,,,3,,,72,100
42976,note_off,,,,,64,0,13,,,,,6,,,45,100
42976,note_off,,,,,64,0,11,,,,,4,,,60,100
42976,note_off,,,,,64,0,12,,,,,5,,,57,100
43008,note_on,,,,,32,0,13,,,,,6,,,44,100
43008,note_on,,,,,64,0,10,,,,,3,,,71,100
43008,note_on,,,,,32,0,12,,,,,5,,,56,100
43008,note_on,,,,,32,0,11,,,,,4,,,62,100
43008,note_on,,,,,128,0,14,,,,,7,,,77,100
43008,note_on,,,,,0,0,14,,,,,7,,,71,100
43008,note_on,,,,,64,0,15,,,,,7,,,56,100
43072,note_off,,,,,64,0,13,,,,,6,,,44,100
43072,note_off,,,,,64,0,11,,,,,4,,,62,100
43072,note_off,,,,,64,0,12,,,,,5,,,56,100
43104,note_on,,,,,32,0,13,,,,,6,,,44,100
43104,note_on,,,,,32,0,11,,,,,4,,,62,100
43104,note_on,,,,,32,0,12,,,,,5,,,56,100
43136,note_off,,,,,128,0,15,,,,,7,,,56,100
43168,note_off,,,,,64,0,13,,,,,6,,,44,100
43168,note_off,,,,,64,0,12,,,,,5,,,56,100
43168,note_off,,,,,64,0,11,,,,,4,,,62,100
43200,note_on,,,,,32,0,11,,,,,4,,,62,100
43200,note_on,,,,,64,0,15,,,,,7,,,56,100
43200,note_on,,,,,32,0,12,,,,,5,,,56,100
43200,note_on,,,,,32,0,13,,,,,6,,,44,100
43264,note_off,,,,,0,0,14,,,,,7,,,71,100
43264,note_off,,,,,64,0,13,,,,,6,,,44,100
43264,note_off,,,,,256,0,14,,,,,7,,,77,100
43264,note_off,,,,,64,0,12,,,,,5,,,56,100
43264,note_off,,,,,64,0,11,,,,,4,,,62,100
43296,note_on,,,,,32,0,11,,,,,4,,,62,100
43296,note_on,,,,,32,0,13,,,,,6,,,44,100
43296,note_on,,,,,32,0,12,,,,,5,,,56,100
43312,note_off,,,,,688,0,9,,,,,2,,,77,100
43328,note_off,,,,,128,0,15,,,,,7,,,56,100
43360,note_off,,,,,64,0,12,,,,,5,,,56,100
43360,note_off,,,,,64,0,11,,,,,4,,,62,100
43360,note_off,,,,,64,0,13,,,,,6,,,44,100
43392,note_on,,,,,80,0,9,,,,,2,,,76,100
43392,note_on,,,,,32,0,12,,,,,5,,,55,100
43392,note_on,,,,,64,0,15,,,,,7,,,55,100
43392,note_on,,,,,32,0,13,,,,,6,,,43,100
43392,note_on,,,,,128,0,14,,,,,7,,,76,100
43392,note_on,,,,,0,0,14,,,,,7,,,71,100
43392,note_on,,,,,32,0,11,,,,,4,,,59,100
43456,note_off,,,,,64,0,12,,,,,5,,,55,100
43456,note_off,,,,,64,0,13,,,,,6,,,43,100
43456,note_off,,,,,64,0,11,,,,,4,,,59,100
43488,note_on,,,,,32,0,13,,,,,6,,,43,100
43488,note_on,,,,,32,0,12,,,,,5,,,55,100
43488,note_on,,,,,32,0,11,,,,,4,,,59,100
43520,note_off,,,,,128,0,15,,,,,7,,,55,100
43552,note_off,,,,,64,0,12,,,,,5,,,55,100
43552,note_off,,,,,64,0,13,,,,,6,,,43,100
43552,note_off,,,,,64,0,11,,,,,4,,,59,100
43584,note_on,,,,,32,0,11,,,,,4,,,59,100
43584,note_on,,,,,32,0,12,,,,,5,,,55,100
43584,note_on,,,,,64,0,15,,,,,7,,,55,100
43584,note_on,,,,,32,0,13,,,,,6,,,43,100
43648,note_off,,,,,64,0,12,,,,,5,,,55,100
43648,note_off,,,,,64,0,13,,,,,6,,,43,100
43648,note_off,,,,,256,0,14,,,,,7,,,76,100
43648,note_off,,,,,0,0,14,,,,,7,,,71,100
43648,note_off,,,,,64,0,11,,,,,4,,,59,100
43680,note_on,,,,,32,0,13,,,,,6,,,43,100
43680,note_on,,,,,32,0,12,,,,,5,,,55,100
43680,note_on,,,,,32,0,11,,,,,4,,,59,100
43696,note_off,,,,,688,0,10,,,,,3,,,71,100
43712,note_off,,,,,128,0,15,,,,,7,,,55,100
43744,note_off,,,,,64,0,13,,,,,6,,,43,100
43744,note_off,,,,,64,0,11,,,,,4,,,59,100
43744,note_off,,,,,64,0,12,,,,,5,,,55,100
43776,note_on,,,,,0,0,14,,,,,7,,,76,100
43776,note_on,,,,,32,0,11,,,,,4,,,60,100
43776,note_on,,,,,64,0,15,,,,,7,,,54,100
43776,note_on,,,,,128,0,14,,,,,7,,,72,100
43776,note_on,,,,,80,0,10,,,,,3,,,69,100
43776,note_on,,,,,32,0,13,,,,,6,,,42,100
43776,note_on,,,,,32,0,12,,,,,5,,,54,100
43840,note_off,,,,,64,0,11,,,,,4,,,60,100
43840,note_off,,,,,64,0,13,,,,,6,,,42,100
43840,note_off,,,,,64,0,12,,,,,5,,,54,100
43872,note_on,,,,,32,0,13,,,,,6,,,42,100
43872,note_on,,,,,32,0,11,,,,,4,,,60,100
43872,note_on,,,,,32,0,12,,,,,5,,,54,100
43904,note_off,,,,,128,0,15,,,,,7,,,54,100
43936,note_off,,,,,64,0,13,,,,,6,,,42,100
43936,note_off,,,,,64,0,11,,,,,4,,,60,100
43936,note_off,,,,,64,0,12,,,,,5,,,54,100
43968,note_on,,,,,32,0,11,,,,,4,,,60,99
43968,note_on,,,,,32,0,13,,,,,6,,,42,99
43968,note_on,,,,,64,0,15,,,,,7,,,54,100
43968,note_on,,,,,32,0,12,,,,,5,,,54,99
44032,note_off,,,,,256,0,14,,,,,7,,,72,100
44032,note_off,,,,,0,0,14,,,,,7,,,76,100
44032,note_off,,,,,64,0,13,,,,,6,,,42,100
44032,note_off,,,,,64,0,11,,,,,4,,,60,100
44032,note_off,,,,,64,0,12,,,,,5,,,54,100
44064,note_on,,,,,32,0,13,,,,,6,,,42,99
44064,note_on,,,,,32,0,11,,,,,4,,,60,99
44064,note_on,,,,,32,0,12,,,,,5,,,54,99
44080,note_off,,,,,688,0,9,,,,,2,,,76,100
44096,note_off,,,,,128,0,15,,,,,7,,,54,100
44128,note_off,,,,,64,0,11,,,,,4,,,60,100
44128,note_off,,,,,64,0,12,,,,,5,,,54,100
44128,note_off,,,,,64,0,13,,,,,6,,,42,100
44160,note_on,,,,,128,0,14,,,,,7,,,69,100
44160,note_on,,,,,64,0,15,,,,,7,,,53,100
44160,note_on,,,,,32,0,13,,,,,6,,,41,98
44160,note_on,,,,,80,0,9,,,,,2,,,74,98
44160,note_on,,,,,32,0,12,,,,,5,,,53,98
44160,note_on,,,,,32,0,11,,,,,4,,,57,98
44160,note_on,,,,,0,0,14,,,,,7,,,74,100
44224,note_off,,,,,64,0,12,,,,,5,,,53,100
44224,note_off,,,,,64,0,13,,,,,6,,,41,100
44224,note_off,,,,,64,0,11,,,,,4,,,57,100
44256,note_on,,,,,32,0,12,,,,,5,,,53,97
44256,note_on,,,,,32,0,13,,,,,6,,,41,97
44256,note_on,,,,,32,0,11,,,,,4,,,57,97
44288,note_off,,,,,128,0,15,,,,,7,,,53,100
44320,note_off,,,,,64,0,11,,,,,4,,,57,100
44320,note_off,,,,,64,0,13,,,,,6,,,41,100
44320,note_off,,,,,64,0,12,,,,,5,,,53,100
44352,note_on,,,,,64,0,15,,,,,7,,,53,100
44352,note_on,,,,,32,0,12,,,,,5,,,53,97
44352,note_on,,,,,32,0,13,,,,,6,,,41,97
44352,note_on,,,,,32,0,11,,,,,4,,,57,97
44416,note_off,,,,,256,0,14,,,,,7,,,69,100
44416,note_off,,,,,0,0,14,,,,,7,,,74,100
44416,note_off,,,,,64,0,12,,,,,5,,,53,100
44416,note_off,,,,,64,0,11,,,,,4,,,57,100
44416,note_off,,,,,64,0,13,,,,,6,,,41,100
44448,note_on,,,,,32,0,11,,,,,4,,,57,96
44448,note_on,,,,,32,0,12,,,,,5,,,53,96
44448,note_on,,,,,32,0,13,,,,,6,,,41,96
44464,note_off,,,,,688,0,10,,,,,3,,,69,100
44480,note_off,,,,,128,0,15,,,,,7,,,53,100
44512,note_off,,,,,64,0,12,,,,,5,,,53,100
44512,note_off,,,,,64,0,13,,,,,6,,,41,100
44512,note_off,,,,,64,0,11,,,,,4,,,57,100
44544,note_on,,,,,32,0,13,,,,,6,,,40,96
44544,note_on,,,,,80,0,10,,,,,3,,,68,96
44544,note_on,,,,,32,0,12,,,,,5,,,52,96
44544,note_on,,,,,64,0,15,,,,,7,,,52,100
44544,note_on,,,,,128,0,14,,,,,7,,,68,100
44544,note_on,,,,,32,0,11,,,,,4,,,59,96
44544,note_on,,,,,0,0,14,,,,,7,,,74,100
44608,note_off,,,,,64,0,13,,,,,6,,,40,100
44608,note_off,,,,,64,0,12,,,,,5,,,52,100
44608,note_off,,,,,64,0,11,,,,,4,,,59,100
44640,note_on,,,,,32,0,13,,,,,6,,,40,95
44640,note_on,,,,,32,0,12,,,,,5,,,52,95
44640,note_on,,,,,32,0,11,,,,,4,,,59,95
44672,note_off,,,,,128,0,15,,,,,7,,,52,100
44704,note_off,,,,,64,0,13,,,,,6,,,40,100
44704,note_off,,,,,64,0,11,,,,,4,,,59,100
44704,note_off,,,,,64,0,12,,,,,5,,,52,100
44736,note_on,,,,,32,0,12,,,,,5,,,52,94
44736,note_on,,,,,64,0,15,,,,,7,,,52,100
44736,note_on,,,,,32,0,13,,,,,6,,,40,94
44736,note_on,,,,,32,0,11,,,,,4,,,64,94
44800,note_off,,,,,0,0,14,,,,,7,,,74,100
44800,note_off,,,,,64,0,13,,,,,6,,,40,100
44800,note_off,,,,,64,0,12,,,,,5,,,52,100
44800,note_off,,,,,64,0,11,,,,,4,,,64,100
44800,note_off,,,,,256,0,14,,,,,7,,,68,100
44832,note_on,,,,,32,0,13,,,,,6,,,40,94
44832,note_on,,,,,32,0,12,,,,,5,,,52,94
44832,note_on,,,,,32,0,11,,,,,4,,,64,94
44848,note_off,,,,,688,0,9,,,,,2,,,74,100
44864,note_off,,,,,128,0,15,,,,,7,,,52,100
44888,note_off,,,,,344,0,10,,,,,3,,,68,100
44896,note_off,,,,,64,0,12,,,,,5,,,52,100
44896,note_off,,,,,64,0,11,,,,,4,,,64,100
44896,note_off,,,,,64,0,13,,,,,6,,,40,100
44928,note_on,,,,,32,0,12,,,,,5,,,45,93
44928,note_on,,,,,64,0,15,,,,,7,,,45,100
44928,note_on,,,,,32,0,13,,,,,6,,,33,93
44928,note_on,,,,,80,0,9,,,,,2,,,72,93
44928,note_on,,,,,128,0,14,,,,,7,,,64,100
44928,note_on,,,,,0,0,14,,,,,7,,,72,100
44928,note_on,,,,,32,0,11,,,,,4,,,64,93
44928,note_on,,,,,40,0,10,,,,,3,,,69,93
44992,note_off,,,,,64,0,11,,,,,4,,,64,100
44992,note_off,,,,,64,0,12,,,,,5,,,45,100
44992,note_off,,,,,64,0,13,,,,,6,,,33,100
45024,note_on,,,,,32,0,13,,,,,6,,,33,92
45024,note_on,,,,,32,0,11,,,,,4,,,64,92
45024,note_on,,,,,32,0,12,,,,,5,,,45,92
45056,note_off,,,,,128,0,15,,,,,7,,,45,100
45088,note_off,,,,,64,0,13,,,,,6,,,33,100
45088,note_off,,,,,64,0,11,,,,,4,,,64,100
45088,note_off,,,,,64,0,12,,,,,5,,,45,100
45120,note_on,,,,,32,0,13,,,,,6,,,33,92
45120,note_on,,,,,32,0,11,,,,,4,,,64,92
45120,note_on,,,,,64,0,15,,,,,7,,,45,100
45120,note_on,,,,,32,0,12,,,,,5,,,45,92
45184,note_off,,,,,64,0,11,,,,,4,,,64,100
45184,note_off,,,,,256,0,14,,,,,7,,,64,100
45184,note_off,,,,,0,0,14,,,,,7,,,72,100
45184,note_off,,,,,64,0,12,,,,,5,,,45,100
45184,note_off,,,,,64,0,13,,,,,6,,,33,100
45216,note_on,,,,,32,0,11,,,,,4,,,64,91
45216,note_on,,,,,32,0,13,,,,,6,,,33,91
45216,note_on,,,,,32,0,12,,,,,5,,,45,91
45248,note_off,,,,,128,0,15,,,,,7,,,45,100
45272,note_off,,,,,344,0,9,,,,,2,,,72,100
45280,note_off,,,,,64,0,13,,,,,6,,,33,100
45280,note_off,,,,,64,0,11,,,,,4,,,64,100
45280,note_off,,,,,64,0,12,,,,,5,,,45,100
45312,note_on,,,,,32,0,12,,,,,5,,,50,91
45312,note_on,,,,,128,0,14,,,,,7,,,71,100
45312,note_on,,,,,32,0,11,,,,,4,,,65,91
45312,note_on,,,,,0,0,14,,,,,7,,,69,100
45312,note_on,,,,,32,0,13,,,,,6,,,38,91
45312,note_on,,,,,40,0,9,,,,,2,,,71,91
45312,note_on,,,,,64,0,15,,,,,7,,,50,100
45376,note_off,,,,,64,0,13,,,,,6,,,38,100
45376,note_off,,,,,64,0,11,,,,,4,,,65,100
45376,note_off,,,,,64,0,12,,,,,5,,,50,100
45408,note_on,,,,,32,0,13,,,,,6,,,38,90
45408,note_on,,,,,32,0,11,,,,,4,,,65,90
45408,note_on,,,,,32,0,12,,,,,5,,,50,90
45440,note_off,,,,,128,0,15,,,,,7,,,50,100
45472,note_off,,,,,64,0,13,,,,,6,,,38,100
45472,note_off,,,,,64,0,11,,,,,4,,,65,100
45472,note_off,,,,,64,0,12,,,,,5,,,50,100
45504,note_on,,,,,32,0,12,,,,,5,,,50,89
45504,note_on,,,,,32,0,13,,,,,6,,,38,89
45504,note_on,,,,,32,0,11,,,,,4,,,65,89
45504,note_on,,,,,64,0,15,,,,,7,,,50,100
45568,note_off,,,,,64,0,11,,,,,4,,,65,100
45568,note_off,,,,,256,0,14,,,,,7,,,71,100
45568,note_off,,,,,0,0,14,,,,,7,,,69,100
45568,note_off,,,,,64,0,13,,,,,6,,,38,100
45568,note_off,,,,,64,0,12,,,,,5,,,50,100
45600,note_on,,,,,32,0,12,,,,,5,,,50,89
45600,note_on,,,,,32,0,11,,,,,4,,,65,89
45600,note_on,,,,,32,0,13,,,,,6,,,38,89
45616,note_off,,,,,688,0,10,,,,,3,,,69,100
45632,note_off,,,,,128,0,15,,,,,7,,,50,100
45664,note_off,,,,,64,0,11,,,,,4,,,65,100
45664,note_off,,,,,64,0,13,,,,,6,,,38,100
45664,note_off,,,,,64,0,12,,,,,5,,,50,100
45696,note_on,,,,,0,0,14,,,,,7,,,71,100
45696,note_on,,,,,80,0,10,,,,,3,,,68,88
45696,note_on,,,,,128,0,14,,,,,7,,,68,100
45696,note_on,,,,,32,0,12,,,,,5,,,52,88
45696,note_on,,,,,32,0,13,,,,,6,,,40,88
45696,note_on,,,,,32,0,11,,,,,4,,,64,88
45696,note_on,,,,,64,0,15,,,,,7,,,52,100
45760,note_off,,,,,64,0,12,,,,,5,,,52,100
45760,note_off,,,,,64,0,11,,,,,4,,,64,100
45760,note_off,,,,,64,0,13,,,,,6,,,40,100
45792,note_on,,,,,32,0,12,,,,,5,,,52,87
45792,note_on,,,,,32,0,13,,,,,6,,,40,87
45792,note_on,,,,,32,0,11,,,,,4,,,64,87
45824,note_off,,,,,128,0,15,,,,,7,,,52,100
45856,note_off,,,,,64,0,13,,,,,6,,,40,100
45856,note_off,,,,,64,0,12,,,,,5,,,52,100
45856,note_off,,,,,64,0,11,,,,,4,,,64,100
45888,note_on,,,,,32,0,13,,,,,6,,,40,87
45888,note_on,,,,,32,0,11,,,,,4,,,64,87
45888,note_on,,,,,64,0,15,,,,,7,,,52,100
45888,note_on,,,,,32,0,12,,,,,5,,,52,87
45952,note_off,,,,,64,0,11,,,,,4,,,64,100
45952,note_off,,,,,64,0,13,,,,,6,,,40,100
45952,note_off,,,,,64,0,12,,,,,5,,,52,100
45952,note_off,,,,,0,0,14,,,,,7,,,71,100
45952,note_off,,,,,256,0,14,,,,,7,,,68,100
45984,note_on,,,,,32,0,11,,,,,4,,,64,86
45984,note_on,,,,,32,0,13,,,,,6,,,40,86
45984,note_on,,,,,32,0,12,,,,,5,,,52,86
46000,note_off,,,,,688,0,9,,,,,2,,,71,100
46016,note_off,,,,,128,0,15,,,,,7,,,52,100
46040,note_off,,,,,344,0,10,,,,,3,,,68,100
46048,note_off,,,,,64,0,11,,,,,4,,,64,100
46048,note_off,,,,,64,0,12,,,,,5,,,52,100
46048,note_off,,,,,64,0,13,,,,,6,,,40,100
46080,note_on,,,,,32,0,11,,,,,4,,,60,86
46080,note_on,,,,,0,0,14,,,,,7,,,64,100
46080,note_on,,,,,32,0,13,,,,,6,,,33,86
46080,note_on,,,,,0,0,14,,,,,7,,,60,100
46080,note_on,,,,,128,0,14,,,,,7,,,69,100
46080,note_on,,,,,32,0,12,,,,,5,,,45,86
46080,note_on,,,,,80,0,9,,,,,2,,,69,86
46080,note_on,,,,,64,0,15,,,,,7,,,45,100
46080,note_on,,,,,40,0,10,,,,,3,,,69,86
46176,note_on,,,,,10592,0,8,,,,,1,,,81,100
46208,note_off,,,,,128,0,10,,,,,3,,,69,100
46208,note_off,,,,,128,0,11,,,,,4,,,60,100
46240,note_off,,,,,64,0,8,,,,,1,,,81,100
46272,note_on,,,,,64,0,10,,,,,3,,,57,1
46272,note_on,,,,,192,0,9,,,,,2,,,57,1
46272,note_on,,,,,64,0,11,,,,,4,,,57,85
46272,note_on,,,,,32,0,8,,,,,1,,,79,100
46336,note_off,,,,,256,0,14,,,,,7,,,69,100
46336,note_off,,,,,64,0,9,,,,,2,,,69,100
46336,note_off,,,,,0,0,14,,,,,7,,,64,100
46336,note_off,,,,,0,0,14,,,,,7,,,60,100
46336,note_off,,,,,256,0,12,,,,,5,,,45,100
46336,note_off,,,,,256,0,13,,,,,6,,,33,100
46336,note_off,,,,,256,0,15,,,,,7,,,45,100
46336,note_off,,,,,64,0,8,,,,,1,,,79,100
46368,note_on,,,,,32,0,8,,,,,1,,,81,100
46400,note_off,,,,,64,0,9,,,,,2,,,57,100
46400,note_off,,,,,128,0,10,,,,,3,,,57,100
46400,note_off,,,,,128,0,11,,,,,4,,,57,100
46432,note_off,,,,,64,0,8,,,,,1,,,81,100
46464,note_on,,,,,32,0,8,,,,,1,,,76,100
46464,note_on,,,,,64,0,9,,,,,2,,,61,1
46464,note_on,,,,,64,0,10,,,,,3,,,61,1
46464,note_on,,,,,64,0,11,,,,,4,,,61,85
46528,note_off,,,,,64,0,8,,,,,1,,,76,100
46560,note_on,,,,,32,0,8,,,,,1,,,79,100
46592,note_off,,,,,128,0,11,,,,,4,,,61,100
46592,note_off,,,,,128,0,10,,,,,3,,,61,100
46592,note_off,,,,,128,0,9,,,,,2,,,61,100
46624,note_off,,,,,64,0,8,,,,,1,,,79,100
46656,note_on,,,,,32,0,8,,,,,1,,,77,100
46656,note_on,,,,,64,0,9,,,,,2,,,57,1
46656,note_on,,,,,64,0,10,,,,,3,,,57,1
46656,note_on,,,,,64,0,11,,,,,4,,,57,85
46720,note_off,,,,,64,0,8,,,,,1,,,77,100
46752,note_on,,,,,32,0,8,,,,,1,,,76,100
46784,note_off,,,,,128,0,10,,,,,3,,,57,100
46784,note_off,,,,,128,0,9,,,,,2,,,57,100
46784,note_off,,,,,128,0,11,,,,,4,,,57,100
46816,note_off,,,,,64,0,8,,,,,1,,,76,100
46848,note_on,,,,,0,0,14,,,,,7,,,65,100
46848,note_on,,,,,512,0,12,,,,,5,,,50,85
46848,note_on,,,,,32,0,8,,,,,1,,,77,100
46848,note_on,,,,,512,0,15,,,,,7,,,50,100
46848,note_on,,,,,512,0,14,,,,,7,,,69,100
46848,note_on,,,,,512,0,13,,,,,6,,,38,85
46944,note_on,,,,,4384,0,7,,,,,0,,,86,100
46976,note_off,,,,,128,0,8,,,,,1,,,77,100
47008,note_off,,,,,64,0,7,,,,,0,,,86,100
47040,note_on,,,,,256,0,9,,,,,2,,,62,1
47040,note_on,,,,,256,0,11,,,,,4,,,62,85
47040,note_on,,,,,64,0,8,,,,,1,,,62,100
47040,note_on,,,,,256,0,10,,,,,3,,,62,1
47040,note_on,,,,,32,0,7,,,,,0,,,84,100
47104,note_off,,,,,256,0,14,,,,,7,,,69,100
47104,note_off,,,,,0,0,14,,,,,7,,,65,100
47104,note_off,,,,,256,0,12,,,,,5,,,50,100
47104,note_off,,,,,256,0,15,,,,,7,,,50,100
47104,note_off,,,,,64,0,7,,,,,0,,,84,100
47104,note_off,,,,,256,0,13,,,,,6,,,38,100
47136,note_on,,,,,32,0,7,,,,,0,,,86,100
47168,note_off,,,,,128,0,8,,,,,1,,,62,100
47168,note_off,,,,,128,0,10,,,,,3,,,62,100
47168,note_off,,,,,128,0,11,,,,,4,,,62,100
47168,note_off,,,,,128,0,9,,,,,2,,,62,100
47200,note_off,,,,,64,0,7,,,,,0,,,86,100
47232,note_on,,,,,64,0,11,,,,,4,,,66,85
47232,note_on,,,,,32,0,7,,,,,0,,,81,100
47232,note_on,,,,,64,0,10,,,,,3,,,66,1
47232,note_on,,,,,64,0,9,,,,,2,,,66,1
47296,note_off,,,,,64,0,7,,,,,0,,,81,100
47328,note_on,,,,,32,0,7,,,,,0,,,84,100
47360,note_off,,,,,128,0,9,,,,,2,,,66,100
47360,note_off,,,,,128,0,11,,,,,4,,,66,100
47360,note_off,,,,,128,0,10,,,,,3,,,66,100
47392,note_off,,,,,64,0,7,,,,,0,,,84,100
47424,note_on,,,,,64,0,10,,,,,3,,,62,1
47424,note_on,,,,,64,0,9,,,,,2,,,62,1
47424,note_on,,,,,32,0,7,,,,,0,,,82,100
47424,note_on,,,,,64,0,11,,,,,4,,,62,85
47488,note_off,,,,,64,0,7,,,,,0,,,82,100
47520,note_on,,,,,32,0,7,,,,,0,,,81,100
47552,note_off,,,,,128,0,10,,,,,3,,,62,100
47552,note_off,,,,,128,0,11,,,,,4,,,62,100
47552,note_off,,,,,128,0,9,,,,,2,,,62,100
47584,note_off,,,,,64,0,7,,,,,0,,,81,100
47616,note_on,,,,,512,0,13,,,,,6,,,43,85
47616,note_on,,,,,512,0,14,,,,,7,,,62,100
47616,note_on,,,,,512,0,15,,,,,7,,,55,100
47616,note_on,,,,,0,0,14,,,,,7,,,65,100
47616,note_on,,,,,512,0,12,,,,,5,,,55,85
47616,note_on,,,,,32,0,7,,,,,0,,,82,100
47712,note_on,,,,,544,0,8,,,,,1,,,79,100
47744,note_off,,,,,128,0,7,,,,,0,,,82,100
47776,note_off,,,,,64,0,8,,,,,1,,,79,100
47808,note_on,,,,,256,0,10,,,,,3,,,55,1
47808,note_on,,,,,256,0,11,,,,,4,,,55,85
47808,note_on,,,,,32,0,8,,,,,1,,,77,100
47808,note_on,,,,,64,0,7,,,,,0,,,67,100
47808,note_on,,,,,256,0,9,,,,,2,,,55,1
47872,note_off,,,,,256,0,15,,,,,7,,,55,100
47872,note_off,,,,,64,0,8,,,,,1,,,77,100
47872,note_off,,,,,0,0,14,,,,,7,,,65,100
47872,note_off,,,,,256,0,14,,,,,7,,,62,100
47872,note_off,,,,,256,0,13,,,,,6,,,43,100
47872,note_off,,,,,256,0,12,,,,,5,,,55,100
47904,note_on,,,,,32,0,8,,,,,1,,,79,100
47936,note_off,,,,,128,0,7,,,,,0,,,67,100
47936,note_off,,,,,128,0,11,,,,,4,,,55,100
47936,note_off,,,,,128,0,10,,,,,3,,,55,100
47936,note_off,,,,,128,0,9,,,,,2,,,55,100
47968,note_off,,,,,64,0,8,,,,,1,,,79,100
48000,note_on,,,,,64,0,11,,,,,4,,,59,85
48000,note_on,,,,,64,0,10,,,,,3,,,59,1
48000,note_on,,,,,64,0,9,,,,,2,,,59,1
48000,note_on,,,,,32,0,8,,,,,1,,,74,100
48064,note_off,,,,,64,0,8,,,,,1,,,74,100
48096,note_on,,,,,32,0,8,,,,,1,,,77,100
48128,note_off,,,,,128,0,11,,,,,4,,,59,100
48128,note_off,,,,,128,0,9,,,,,2,,,59,100
48128,note_off,,,,,128,0,10,,,,,3,,,59,100
48160,note_off,,,,,64,0,8,,,,,1,,,77,100
48192,note_on,,,,,64,0,11,,,,,4,,,55,85
48192,note_on,,,,,32,0,8,,,,,1,,,76,100
48192,note_on,,,,,64,0,10,,,,,3,,,55,1
48192,note_on,,,,,64,0,9,,,,,2,,,55,1
48256,note_off,,,,,64,0,8,,,,,1,,,76,100
48288,note_on,,,,,32,0,8,,,,,1,,,74,100
48320,note_off,,,,,128,0,10,,,,,3,,,55,100
48320,note_off,,,,,128,0,9,,,,,2,,,55,100
48320,note_off,,,,,128,0,11,,,,,4,,,55,100
48352,note_off,,,,,64,0,8,,,,,1,,,74,100
48384,note_on,,,,,0,0,14,,,,,7,,,70,100
48384,note_on,,,,,512,0,12,,,,,5,,,60,85
48384,note_on,,,,,512,0,15,,,,,7,,,60,100
48384,note_on,,,,,512,0,13,,,,,6,,,48,85
48384,note_on,,,,,512,0,14,,,,,7,,,67,100
48384,note_on,,,,,32,0,8,,,,,1,,,76,100
48480,note_on,,,,,544,0,7,,,,,0,,,84,100
48512,note_off,,,,,128,0,8,,,,,1,,,76,100
48544,note_off,,,,,64,0,7,,,,,0,,,84,100
48576,note_on,,,,,64,0,8,,,,,1,,,60,100
48576,note_on,,,,,256,0,9,,,,,2,,,60,1
48576,note_on,,,,,32,0,7,,,,,0,,,82,100
48576,note_on,,,,,256,0,11,,,,,4,,,60,85
48576,note_on,,,,,256,0,10,,,,,3,,,60,1
48640,note_off,,,,,256,0,12,,,,,5,,,60,100
48640,note_off,,,,,64,0,7,,,,,0,,,82,100
48640,note_off,,,,,256,0,15,,,,,7,,,60,100
48640,note_off,,,,,256,0,13,,,,,6,,,48,100
48640,note_off,,,,,256,0,14,,,,,7,,,67,100
48640,note_off,,,,,0,0,14,,,,,7,,,70,100
48672,note_on,,,,,32,0,7,,,,,0,,,84,100
48704,note_off,,,,,128,0,9,,,,,2,,,60,100
48704,note_off,,,,,128,0,11,,,,,4,,,60,100
48704,note_off,,,,,128,0,10,,,,,3,,,60,100
48704,note_off,,,,,128,0,8,,,,,1,,,60,100
48736,note_off,,,,,64,0,7,,,,,0,,,84,100
48768,note_on,,,,,64,0,9,,,,,2,,,64,1
48768,note_on,,,,,64,0,10,,,,,3,,,64,1
48768,note_on,,,,,64,0,11,,,,,4,,,64,85
48768,note_on,,,,,32,0,7,,,,,0,,,79,100
48832,note_off,,,,,64,0,7,,,,,0,,,79,100
48864,note_on,,,,,32,0,7,,,,,0,,,82,100
48896,note_off,,,,,128,0,11,,,,,4,,,64,100
48896,note_off,,,,,128,0,10,,,,,3,,,64,100
48896,note_off,,,,,128,0,9,,,,,2,,,64,100
48928,note_off,,,,,64,0,7,,,,,0,,,82,100
48960,note_on,,,,,64,0,9,,,,,2,,,60,1
48960,note_on,,,,,64,0,11,,,,,4,,,60,85
48960,note_on,,,,,64,0,10,,,,,3,,,60,1
48960,note_on,,,,,32,0,7,,,,,0,,,81,100
49024,note_off,,,,,64,0,7,,,,,0,,,81,100
49056,note_on,,,,,32,0,7,,,,,0,,,79,100
49088,note_off,,,,,128,0,11,,,,,4,,,60,100
49088,note_off,,,,,128,0,9,,,,,2,,,60,100
49088,note_off,,,,,128,0,10,,,,,3,,,60,100
49120,note_off,,,,,64,0,7,,,,,0,,,79,100
49152,note_on,,,,,512,0,15,,,,,7,,,53,100
49152,note_on,,,,,512,0,13,,,,,6,,,41,85
49152,note_on,,,,,512,0,14,,,,,7,,,60,100
49152,note_on,,,,,0,0,14,,,,,7,,,64,100
49152,note_on,,,,,512,0,12,,,,,5,,,53,85
49152,note_on,,,,,32,0,7,,,,,0,,,81,100
49248,note_on,,,,,544,0,8,,,,,1,,,77,100
49280,note_off,,,,,128,0,7,,,,,0,,,81,100
49312,note_off,,,,,64,0,8,,,,,1,,,77,100
49344,note_on,,,,,256,0,11,,,,,4,,,65,85
49344,note_on,,,,,256,0,10,,,,,3,,,65,1
49344,note_on,,,,,256,0,9,,,,,2,,,65,1
49344,note_on,,,,,64,0,7,,,,,0,,,65,100
49344,note_on,,,,,32,0,8,,,,,1,,,76,100
49408,note_off,,,,,0,0,14,,,,,7,,,64,100
49408,note_off,,,,,256,0,13,,,,,6,,,41,100
49408,note_off,,,,,256,0,15,,,,,7,,,53,100
49408,note_off,,,,,64,0,8,,,,,1,,,76,100
49408,note_off,,,,,256,0,14,,,,,7,,,60,100
49408,note_off,,,,,256,0,12,,,,,5,,,53,100
49440,note_on,,,,,32,0,8,,,,,1,,,77,100
49472,note_off,,,,,128,0,9,,,,,2,,,65,100
49472,note_off,,,,,128,0,11,,,,,4,,,65,100
49472,note_off,,,,,128,0,10,,,,,3,,,65,100
49472,note_off,,,,,128,0,7,,,,,0,,,65,100
49504,note_off,,,,,64,0,8,,,,,1,,,77,100
49536,note_on,,,,,64,0,9,,,,,2,,,69,1
49536,note_on,,,,,64,0,10,,,,,3,,,69,1
49536,note_on,,,,,64,0,11,,,,,4,,,69,85
49536,note_on,,,,,32,0,8,,,,,1,,,72,100
49600,note_off,,,,,64,0,8,,,,,1,,,72,100
49632,note_on,,,,,32,0,8,,,,,1,,,76,100
49664,note_off,,,,,128,0,9,,,,,2,,,69,100
49664,note_off,,,,,128,0,11,,,,,4,,,69,100
49664,note_off,,,,,128,0,10,,,,,3,,,69,100
49696,note_off,,,,,64,0,8,,,,,1,,,76,100
49728,note_on,,,,,64,0,11,,,,,4,,,65,85
49728,note_on,,,,,32,0,8,,,,,1,,,74,100
49728,note_on,,,,,64,0,9,,,,,2,,,65,1
49728,note_on,,,,,64,0,10,,,,,3,,,65,1
49792,note_off,,,,,64,0,8,,,,,1,,,74,100
49824,note_on,,,,,32,0,8,,,,,1,,,72,100
49856,note_off,,,,,128,0,11,,,,,4,,,65,100
49856,note_off,,,,,128,0,10,,,,,3,,,65,100
49856,note_off,,,,,128,0,9,,,,,2,,,65,100
49888,note_off,,,,,64,0,8,,,,,1,,,72,100
49920,note_on,,,,,512,0,13,,,,,6,,,46,85
49920,note_on,,,,,32,0,8,,,,,1,,,74,100
49920,note_on,,,,,512,0,15,,,,,7,,,58,100
49920,note_on,,,,,0,0,14,,,,,7,,,69,100
49920,note_on,,,,,512,0,14,,,,,7,,,65,100
49920,note_on,,,,,512,0,12,,,,,5,,,58,85
50016,note_on,,,,,544,0,7,,,,,0,,,82,100
50048,note_off,,,,,128,0,8,,,,,1,,,74,100
50080,note_off,,,,,64,0,7,,,,,0,,,82,100
50112,note_on,,,,,256,0,9,,,,,2,,,58,1
50112,note_on,,,,,32,0,7,,,,,0,,,81,100
50112,note_on,,,,,64,0,8,,,,,1,,,58,100
50112,note_on,,,,,256,0,10,,,,,3,,,58,1
50112,note_on,,,,,256,0,11,,,,,4,,,58,85
50176,note_off,,,,,256,0,14,,,,,7,,,65,100
50176,note_off,,,,,0,0,14,,,,,7,,,69,100
50176,note_off,,,,,256,0,15,,,,,7,,,58,100
50176,note_off,,,,,256,0,13,,,,,6,,,46,100
50176,note_off,,,,,256,0,12,,,,,5,,,58,100
50176,note_off,,,,,64,0,7,,,,,0,,,81,100
50208,note_on,,,,,32,0,7,,,,,0,,,82,100
50240,note_off,,,,,128,0,11,,,,,4,,,58,100
50240,note_off,,,,,128,0,8,,,,,1,,,58,100
50240,note_off,,,,,128,0,10,,,,,3,,,58,100
50240,note_off,,,,,128,0,9,,,,,2,,,58,100
50272,note_off,,,,,64,0,7,,,,,0,,,82,100
50304,note_on,,,,,64,0,11,,,,,4,,,62,85
50304,note_on,,,,,64,0,9,,,,,2,,,62,1
50304,note_on,,,,,64,0,10,,,,,3,,,62,1
50304,note_on,,,,,32,0,7,,,,,0,,,77,100
50368,note_off,,,,,64,0,7,,,,,0,,,77,100
50400,note_on,,,,,32,0,7,,,,,0,,,81,100
50432,note_off,,,,,128,0,10,,,,,3,,,62,100
50432,note_off,,,,,128,0,11,,,,,4,,,62,100
50432,note_off,,,,,128,0,9,,,,,2,,,62,100
50464,note_off,,,,,64,0,7,,,,,0,,,81,100
50496,note_on,,,,,64,0,9,,,,,2,,,58,1
50496,note_on,,,,,64,0,11,,,,,4,,,58,85
50496,note_on,,,,,32,0,7,,,,,0,,,79,100
50496,note_on,,,,,64,0,10,,,,,3,,,58,1
50560,note_off,,,,,64,0,7,,,,,0,,,79,100
50592,note_on,,,,,32,0,7,,,,,0,,,77,100
50624,note_off,,,,,128,0,10,,,,,3,,,58,100
50624,note_off,,,,,128,0,9,,,,,2,,,58,100
50624,note_off,,,,,128,0,11,,,,,4,,,58,100
50656,note_off,,,,,64,0,7,,,,,0,,,77,100
50688,note_on,,,,,512,0,14,,,,,7,,,58,100
50688,note_on,,,,,0,0,14,,,,,7,,,62,100
50688,note_on,,,,,512,0,12,,,,,5,,,52,85
50688,note_on,,,,,512,0,15,,,,,7,,,52,100
50688,note_on,,,,,32,0,7,,,,,0,,,79,100
50688,note_on,,,,,512,0,13,,,,,6,,,40,85
50784,note_on,,,,,544,0,8,,,,,1,,,76,100
50816,note_off,,,,,128,0,7,,,,,0,,,79,100
50848,note_off,,,,,64,0,8,,,,,1,,,76,100
50880,note_on,,,,,32,0,8,,,,,1,,,74,100
50880,note_on,,,,,256,0,9,,,,,2,,,64,1
50880,note_on,,,,,256,0,11,,,,,4,,,64,85
50880,note_on,,,,,256,0,10,,,,,3,,,64,1
50880,note_on,,,,,64,0,7,,,,,0,,,64,100
50944,note_off,,,,,256,0,12,,,,,5,,,52,100
50944,note_off,,,,,0,0,14,,,,,7,,,62,100
50944,note_off,,,,,256,0,14,,,,,7,,,58,100
50944,note_off,,,,,64,0,8,,,,,1,,,74,100
50944,note_off,,,,,256,0,13,,,,,6,,,40,100
50944,note_off,,,,,256,0,15,,,,,7,,,52,100
50976,note_on,,,,,32,0,8,,,,,1,,,76,100
51008,note_off,,,,,128,0,7,,,,,0,,,64,100
51008,note_off,,,,,128,0,10,,,,,3,,,64,100
51008,note_off,,,,,128,0,9,,,,,2,,,64,100
51008,note_off,,,,,128,0,11,,,,,4,,,64,100
51040,note_off,,,,,64,0,8,,,,,1,,,76,100
51072,note_on,,,,,64,0,9,,,,,2,,,67,1
51072,note_on,,,,,64,0,10,,,,,3,,,67,1
51072,note_on,,,,,32,0,8,,,,,1,,,71,100
51072,note_on,,,,,64,0,11,,,,,4,,,67,85
51136,note_off,,,,,64,0,8,,,,,1,,,71,100
51168,note_on,,,,,32,0,8,,,,,1,,,74,100
51200,note_off,,,,,128,0,9,,,,,2,,,67,100
51200,note_off,,,,,128,0,11,,,,,4,,,67,100
51200,note_off,,,,,128,0,10,,,,,3,,,67,100
51232,note_off,,,,,64,0,8,,,,,1,,,74,100
51264,note_on,,,,,64,0,9,,,,,2,,,64,1
51264,note_on,,,,,32,0,8,,,,,1,,,73,100
51264,note_on,,,,,64,0,11,,,,,4,,,64,85
51264,note_on,,,,,64,0,10,,,,,3,,,64,1
51328,note_off,,,,,64,0,8,,,,,1,,,73,100
51360,note_on,,,,,32,0,8,,,,,1,,,71,100
51392,note_off,,,,,128,0,10,,,,,3,,,64,100
51392,note_off,,,,,128,0,9,,,,,2,,,64,100
51392,note_off,,,,,128,0,11,,,,,4,,,64,100
51424,note_off,,,,,64,0,8,,,,,1,,,71,100
51456,note_on,,,,,512,0,13,,,,,6,,,45,85
51456,note_on,,,,,512,0,15,,,,,7,,,57,100
51456,note_on,,,,,0,0,14,,,,,7,,,67,100
51456,note_on,,,,,512,0,14,,,,,7,,,61,100
51456,note_on,,,,,32,0,8,,,,,1,,,73,100
51456,note_on,,,,,512,0,12,,,,,5,,,57,85
51552,note_on,,,,,544,0,7,,,,,0,,,81,100
51584,note_off,,,,,128,0,8,,,,,1,,,73,100
51616,note_off,,,,,64,0,7,,,,,0,,,81,100
51648,note_on,,,,,32,0,7,,,,,0,,,79,100
51648,note_on,,,,,256,0,11,,,,,4,,,57,85
51648,note_on,,,,,64,0,8,,,,,1,,,57,100
51648,note_on,,,,,256,0,10,,,,,3,,,57,1
51648,note_on,,,,,256,0,9,,,,,2,,,57,1
51712,note_off,,,,,64,0,7,,,,,0,,,79,100
51712,note_off,,,,,256,0,13,,,,,6,,,45,100
51712,note_off,,,,,0,0,14,,,,,7,,,67,100
51712,note_off,,,,,256,0,15,,,,,7,,,57,100
51712,note_off,,,,,256,0,14,,,,,7,,,61,100
51712,note_off,,,,,256,0,12,,,,,5,,,57,100
51744,note_on,,,,,32,0,7,,,,,0,,,81,100
51776,note_off,,,,,128,0,11,,,,,4,,,57,100
51776,note_off,,,,,128,0,9,,,,,2,,,57,100
51776,note_off,,,,,128,0,10,,,,,3,,,57,100
51776,note_off,,,,,128,0,8,,,,,1,,,57,100
51808,note_off,,,,,64,0,7,,,,,0,,,81,100
51840,note_on,,,,,64,0,9,,,,,2,,,61,1
51840,note_on,,,,,64,0,11,,,,,4,,,61,85
51840,note_on,,,,,64,0,10,,,,,3,,,61,1
51840,note_on,,,,,32,0,7,,,,,0,,,76,100
51904,note_off,,,,,64,0,7,,,,,0,,,76,100
51936,note_on,,,,,32,0,7,,,,,0,,,79,100
51968,note_off,,,,,128,0,11,,,,,4,,,61,100
51968,note_off,,,,,128,0,9,,,,,2,,,61,100
51968,note_off,,,,,128,0,10,,,,,3,,,61,100
52000,note_off,,,,,64,0,7,,,,,0,,,79,100
52032,note_on,,,,,64,0,11,,,,,4,,,57,85
52032,note_on,,,,,64,0,9,,,,,2,,,57,1
52032,note_on,,,,,64,0,10,,,,,3,,,57,1
52032,note_on,,,,,32,0,7,,,,,0,,,77,100
52096,note_off,,,,,64,0,7,,,,,0,,,77,100
52128,note_on,,,,,32,0,7,,,,,0,,,76,100
52160,note_off,,,,,128,0,9,,,,,2,,,57,100
52160,note_off,,,,,128,0,11,,,,,4,,,57,100
52160,note_off,,,,,128,0,10,,,,,3,,,57,100
52192,note_off,,,,,64,0,7,,,,,0,,,76,100
52224,note_on,,,,,64,0,11,,,,,4,,,62,85
52224,note_on,,,,,512,0,13,,,,,6,,,38,85
52224,note_on,,,,,0,0,14,,,,,7,,,62,100
52224,note_on,,,,,512,0,12,,,,,5,,,50,85
52224,note_on,,,,,512,0,14,,,,,7,,,65,100
52224,note_on,,,,,512,0,15,,,,,7,,,50,100
52224,note_on,,,,,64,0,10,,,,,3,,,62,1
52224,note_on,,,,,32,0,7,,,,,0,,,77,100
52224,note_on,,,,,64,0,9,,,,,2,,,62,1
52288,note_off,,,,,64,0,7,,,,,0,,,77,100
52320,note_on,,,,,32,0,7,,,,,0,,,74,100
52384,note_off,,,,,64,0,7,,,,,0,,,74,100
52416,note_on,,,,,32,0,7,,,,,0,,,72,99
52480,note_off,,,,,256,0,14,,,,,7,,,65,100
52480,note_off,,,,,256,0,15,,,,,7,,,50,100
52480,note_off,,,,,256,0,12,,,,,5,,,50,100
52480,note_off,,,,,256,0,13,,,,,6,,,38,100
52480,note_off,,,,,0,0,14,,,,,7,,,62,100
52480,note_off,,,,,256,0,11,,,,,4,,,62,100
52480,note_off,,,,,256,0,10,,,,,3,,,62,100
52480,note_off,,,,,256,0,9,,,,,2,,,62,100
52480,note_off,,,,,64,0,7,,,,,0,,,72,100
52512,note_on,,,,,32,0,7,,,,,0,,,70,98
52576,note_off,,,,,64,0,7,,,,,0,,,70,100
52608,note_on,,,,,32,0,7,,,,,0,,,69,97
52672,note_off,,,,,64,0,7,,,,,0,,,69,100
52704,note_on,,,,,32,0,7,,,,,0,,,67,96
52768,note_off,,,,,64,0,7,,,,,0,,,67,100
52800,note_on,,,,,32,0,7,,,,,0,,,65,95
52864,note_off,,,,,64,0,7,,,,,0,,,65,100
52896,note_on,,,,,32,0,7,,,,,0,,,64,94
52960,note_off,,,,,64,0,7,,,,,0,,,64,100
52992,note_on,,,,,512,0,12,,,,,5,,,50,85
52992,note_on,,,,,512,0,15,,,,,7,,,50,100
52992,note_on,,,,,512,0,11,,,,,4,,,62,85
52992,note_on,,,,,512,0,10,,,,,3,,,62,1
52992,note_on,,,,,32,0,7,,,,,0,,,62,93
52992,note_on,,,,,0,0,14,,,,,7,,,69,100
52992,note_on,,,,,512,0,14,,,,,7,,,65,100
52992,note_on,,,,,512,0,9,,,,,2,,,62,1
52992,note_on,,,,,512,0,13,,,,,6,,,38,85
53056,note_off,,,,,64,0,7,,,,,0,,,62,100
53088,note_on,,,,,32,0,7,,,,,0,,,65,92
53152,note_off,,,,,64,0,7,,,,,0,,,65,100
53184,note_on,,,,,32,0,7,,,,,0,,,64,91
53248,note_off,,,,,256,0,9,,,,,2,,,62,100
53248,note_off,,,,,256,0,14,,,,,7,,,65,100
53248,note_off,,,,,0,0,14,,,,,7,,,69,100
53248,note_off,,,,,256,0,12,,,,,5,,,50,100
53248,note_off,,,,,256,0,13,,,,,6,,,38,100
53248,note_off,,,,,256,0,11,,,,,4,,,62,100
53248,note_off,,,,,64,0,7,,,,,0,,,64,100
53248,note_off,,,,,256,0,10,,,,,3,,,62,100
53248,note_off,,,,,256,0,15,,,,,7,,,50,100
53280,note_on,,,,,32,0,7,,,,,0,,,62,90
53344,note_off,,,,,64,0,7,,,,,0,,,62,100
53376,note_on,,,,,32,0,7,,,,,0,,,69,89
53440,note_off,,,,,64,0,7,,,,,0,,,69,100
53472,note_on,,,,,32,0,7,,,,,0,,,73,88
53536,note_off,,,,,64,0,7,,,,,0,,,73,100
53568,note_on,,,,,32,0,7,,,,,0,,,71,87
53632,note_off,,,,,64,0,7,,,,,0,,,71,100
53664,note_on,,,,,32,0,7,,,,,0,,,69,86
53728,note_off,,,,,64,0,7,,,,,0,,,69,100
53760,note_on,,,,,512,0,9,,,,,2,,,74,50
53760,note_on,,,,,32,0,7,,,,,0,,,74,85
53760,note_on,,,,,512,0,11,,,,,4,,,66,50
53760,note_on,,,,,512,0,10,,,,,3,,,69,50
53824,note_off,,,,,64,0,7,,,,,0,,,74,100
53856,note_on,,,,,32,0,7,,,,,0,,,66,85
53888,note_off,,,,,128,0,10,,,,,3,,,69,100
53888,note_off,,,,,128,0,9,,,,,2,,,74,100
53888,note_off,,,,,128,0,11,,,,,4,,,66,100
53920,note_off,,,,,64,0,7,,,,,0,,,66,100
53952,note_on,,,,,64,0,11,,,,,4,,,66,50
53952,note_on,,,,,32,0,7,,,,,0,,,66,85
53952,note_on,,,,,64,0,9,,,,,2,,,74,50
53952,note_on,,,,,64,0,10,,,,,3,,,69,50
54016,note_off,,,,,64,0,7,,,,,0,,,66,100
54048,note_on,,,,,32,0,7,,,,,0,,,66,85
54080,note_off,,,,,128,0,11,,,,,4,,,66,100
54080,note_off,,,,,128,0,10,,,,,3,,,69,100
54080,note_off,,,,,128,0,9,,,,,2,,,74,100
54112,note_off,,,,,64,0,7,,,,,0,,,66,100
54144,note_on,,,,,64,0,10,,,,,3,,,69,50
54144,note_on,,,,,64,0,9,,,,,2,,,74,50
54144,note_on,,,,,64,0,11,,,,,4,,,66,50
54144,note_on,,,,,32,0,7,,,,,0,,,74,85
54208,note_off,,,,,64,0,7,,,,,0,,,74,100
54240,note_on,,,,,32,0,7,,,,,0,,,66,85
54272,note_off,,,,,128,0,11,,,,,4,,,66,100
54272,note_off,,,,,128,0,10,,,,,3,,,69,100
54272,note_off,,,,,128,0,9,,,,,2,,,74,100
54304,note_off,,,,,64,0,7,,,,,0,,,66,100
54336,note_on,,,,,64,0,9,,,,,2,,,74,50
54336,note_on,,,,,64,0,11,,,,,4,,,66,50
54336,note_on,,,,,64,0,10,,,,,3,,,69,50
54336,note_on,,,,,32,0,7,,,,,0,,,66,85
54400,note_off,,,,,64,0,7,,,,,0,,,66,100
54432,note_on,,,,,32,0,7,,,,,0,,,66,85
54464,note_off,,,,,128,0,10,,,,,3,,,69,100
54464,note_off,,,,,128,0,11,,,,,4,,,66,100
54464,note_off,,,,,128,0,9,,,,,2,,,74,100
54496,note_off,,,,,64,0,7,,,,,0,,,66,100
54528,note_on,,,,,64,0,9,,,,,2,,,75,50
54528,note_on,,,,,64,0,10,,,,,3,,,69,50
54528,note_on,,,,,64,0,11,,,,,4,,,66,50
54528,note_on,,,,,32,0,7,,,,,0,,,75,85
54592,note_off,,,,,64,0,7,,,,,0,,,75,100
54624,note_on,,,,,32,0,7,,,,,0,,,66,85
54656,note_off,,,,,128,0,11,,,,,4,,,66,100
54656,note_off,,,,,128,0,9,,,,,2,,,75,100
54656,note_off,,,,,128,0,10,,,,,3,,,69,100
54688,note_off,,,,,64,0,7,,,,,0,,,66,100
54720,note_on,,,,,64,0,10,,,,,3,,,69,50
54720,note_on,,,,,32,0,7,,,,,0,,,66,85
54720,note_on,,,,,64,0,9,,,,,2,,,75,50
54720,note_on,,,,,64,0,11,,,,,4,,,66,50
54784,note_off,,,,,64,0,7,,,,,0,,,66,100
54816,note_on,,,,,32,0,7,,,,,0,,,66,85
54848,note_off,,,,,128,0,10,,,,,3,,,69,100
54848,note_off,,,,,128,0,9,,,,,2,,,75,100
54848,note_off,,,,,128,0,11,,,,,4,,,66,100
54880,note_off,,,,,64,0,7,,,,,0,,,66,100
54912,note_on,,,,,64,0,11,,,,,4,,,66,50
54912,note_on,,,,,32,0,7,,,,,0,,,75,85
54912,note_on,,,,,64,0,10,,,,,3,,,69,50
54912,note_on,,,,,64,0,9,,,,,2,,,75,50
54976,note_off,,,,,64,0,7,,,,,0,,,75,100
55008,note_on,,,,,32,0,7,,,,,0,,,66,85
55040,note_off,,,,,128,0,9,,,,,2,,,75,100
55040,note_off,,,,,128,0,10,,,,,3,,,69,100
55040,note_off,,,,,128,0,11,,,,,4,,,66,100
55072,note_off,,,,,64,0,7,,,,,0,,,66,100
55104,note_on,,,,,64,0,10,,,,,3,,,69,50
55104,note_on,,,,,64,0,9,,,,,2,,,75,50
55104,note_on,,,,,64,0,11,,,,,4,,,66,50
55104,note_on,,,,,32,0,7,,,,,0,,,66,85
55168,note_off,,,,,64,0,7,,,,,0,,,66,100
55200,note_on,,,,,32,0,7,,,,,0,,,66,85
55232,note_off,,,,,128,0,11,,,,,4,,,66,100
55232,note_off,,,,,128,0,10,,,,,3,,,69,100
55232,note_off,,,,,128,0,9,,,,,2,,,75,100
55264,note_off,,,,,64,0,7,,,,,0,,,66,100
55296,note_on,,,,,32,0,7,,,,,0,,,72,85
55296,note_on,,,,,64,0,11,,,,,4,,,66,50
55296,note_on,,,,,64,0,9,,,,,2,,,75,50
55296,note_on,,,,,64,0,10,,,,,3,,,69,50
55360,note_off,,,,,64,0,7,,,,,0,,,72,100
55392,note_on,,,,,32,0,7,,,,,0,,,66,85
55424,note_off,,,,,128,0,10,,,,,3,,,69,100
55424,note_off,,,,,128,0,9,,,,,2,,,75,100
55424,note_off,,,,,128,0,11,,,,,4,,,66,100
55456,note_off,,,,,64,0,7,,,,,0,,,66,100
55488,note_on,,,,,64,0,9,,,,,2,,,75,50
55488,note_on,,,,,32,0,7,,,,,0,,,66,85
55488,note_on,,,,,64,0,10,,,,,3,,,69,50
55488,note_on,,,,,64,0,11,,,,,4,,,66,50
55552,note_off,,,,,64,0,7,,,,,0,,,66,100
55584,note_on,,,,,32,0,7,,,,,0,,,66,85
55616,note_off,,,,,128,0,11,,,,,4,,,66,100
55616,note_off,,,,,128,0,10,,,,,3,,,69,100
55616,note_off,,,,,128,0,9,,,,,2,,,75,100
55648,note_off,,,,,64,0,7,,,,,0,,,66,100
55680,note_on,,,,,32,0,7,,,,,0,,,72,85
55680,note_on,,,,,64,0,9,,,,,2,,,75,50
55680,note_on,,,,,64,0,11,,,,,4,,,66,50
55680,note_on,,,,,64,0,10,,,,,3,,,69,50
55744,note_off,,,,,64,0,7,,,,,0,,,72,100
55776,note_on,,,,,32,0,7,,,,,0,,,66,85
55808,note_off,,,,,128,0,11,,,,,4,,,66,100
55808,note_off,,,,,128,0,9,,,,,2,,,75,100
55808,note_off,,,,,128,0,10,,,,,3,,,69,100
55840,note_off,,,,,64,0,7,,,,,0,,,66,100
55872,note_on,,,,,64,0,10,,,,,3,,,69,50
55872,note_on,,,,,64,0,9,,,,,2,,,75,50
55872,note_on,,,,,32,0,7,,,,,0,,,66,85
55872,note_on,,,,,64,0,11,,,,,4,,,66,50
55936,note_off,,,,,64,0,7,,,,,0,,,66,100
55968,note_on,,,,,32,0,7,,,,,0,,,66,85
56000,note_off,,,,,128,0,11,,,,,4,,,66,100
56000,note_off,,,,,128,0,9,,,,,2,,,75,100
56000,note_off,,,,,128,0,10,,,,,3,,,69,100
56032,note_off,,,,,64,0,7,,,,,0,,,66,100
56064,note_on,,,,,64,0,10,,,,,3,,,70,50
56064,note_on,,,,,64,0,9,,,,,2,,,74,50
56064,note_on,,,,,64,0,11,,,,,4,,,67,50
56064,note_on,,,,,32,0,7,,,,,0,,,70,85
56128,note_off,,,,,64,0,7,,,,,0,,,70,100
56160,note_on,,,,,32,0,7,,,,,0,,,67,85
56192,note_off,,,,,128,0,11,,,,,4,,,67,100
56192,note_off,,,,,128,0,9,,,,,2,,,74,100
56192,note_off,,,,,128,0,10,,,,,3,,,70,100
56224,note_off,,,,,64,0,7,,,,,0,,,67,100
56256,note_on,,,,,64,0,10,,,,,3,,,70,50
56256,note_on,,,,,32,0,7,,,,,0,,,67,85
56256,note_on,,,,,64,0,9,,,,,2,,,74,50
56256,note_on,,,,,64,0,11,,,,,4,,,67,50
56320,note_off,,,,,64,0,7,,,,,0,,,67,100
56352,note_on,,,,,32,0,7,,,,,0,,,67,85
56384,note_off,,,,,128,0,10,,,,,3,,,70,100
56384,note_off,,,,,128,0,9,,,,,2,,,74,100
56384,note_off,,,,,128,0,11,,,,,4,,,67,100
56416,note_off,,,,,64,0,7,,,,,0,,,67,100
56448,note_on,,,,,64,0,9,,,,,2,,,74,50
56448,note_on,,,,,64,0,10,,,,,3,,,70,50
56448,note_on,,,,,32,0,7,,,,,0,,,70,85
56448,note_on,,,,,64,0,11,,,,,4,,,67,50
56512,note_off,,,,,64,0,7,,,,,0,,,70,100
56544,note_on,,,,,32,0,7,,,,,0,,,67,85
56576,note_off,,,,,128,0,11,,,,,4,,,67,100
56576,note_off,,,,,128,0,10,,,,,3,,,70,100
56576,note_off,,,,,128,0,9,,,,,2,,,74,100
56608,note_off,,,,,64,0,7,,,,,0,,,67,100
56640,note_on,,,,,64,0,11,,,,,4,,,67,50
56640,note_on,,,,,64,0,9,,,,,2,,,74,50
56640,note_on,,,,,64,0,10,,,,,3,,,70,50
56640,note_on,,,,,32,0,7,,,,,0,,,67,85
56704,note_off,,,,,64,0,7,,,,,0,,,67,100
56736,note_on,,,,,32,0,7,,,,,0,,,67,85
56768,note_off,,,,,128,0,9,,,,,2,,,74,100
56768,note_off,,,,,128,0,10,,,,,3,,,70,100
56768,note_off,,,,,128,0,11,,,,,4,,,67,100
56800,note_off,,,,,64,0,7,,,,,0,,,67,100
56832,note_on,,,,,32,0,7,,,,,0,,,75,85
56832,note_on,,,,,64,0,9,,,,,2,,,75,50
56832,note_on,,,,,64,0,10,,,,,3,,,70,50
56832,note_on,,,,,64,0,11,,,,,4,,,67,50
56896,note_off,,,,,64,0,7,,,,,0,,,75,100
56928,note_on,,,,,32,0,7,,,,,0,,,67,85
56960,note_off,,,,,128,0,9,,,,,2,,,75,100
56960,note_off,,,,,128,0,11,,,,,4,,,67,100
56960,note_off,,,,,128,0,10,,,,,3,,,70,100
56992,note_off,,,,,64,0,7,,,,,0,,,67,100
57024,note_on,,,,,64,0,10,,,,,3,,,70,50
57024,note_on,,,,,64,0,11,,,,,4,,,67,50
57024,note_on,,,,,64,0,9,,,,,2,,,75,50
57024,note_on,,,,,32,0,7,,,,,0,,,67,85
57088,note_off,,,,,64,0,7,,,,,0,,,67,100
57120,note_on,,,,,32,0,7,,,,,0,,,67,85
57152,note_off,,,,,128,0,9,,,,,2,,,75,100
57152,note_off,,,,,128,0,10,,,,,3,,,70,100
57152,note_off,,,,,128,0,11,,,,,4,,,67,100
57184,note_off,,,,,64,0,7,,,,,0,,,67,100
57216,note_on,,,,,64,0,10,,,,,3,,,70,50
57216,note_on,,,,,32,0,7,,,,,0,,,75,85
57216,note_on,,,,,64,0,11,,,,,4,,,67,50
57216,note_on,,,,,64,0,9,,,,,2,,,75,50
57280,note_off,,,,,64,0,7,,,,,0,,,75,100
57312,note_on,,,,,32,0,7,,,,,0,,,67,85
57344,note_off,,,,,128,0,11,,,,,4,,,67,100
57344,note_off,,,,,128,0,10,,,,,3,,,70,100
57344,note_off,,,,,128,0,9,,,,,2,,,75,100
57376,note_off,,,,,64,0,7,,,,,0,,,67,100
57408,note_on,,,,,64,0,11,,,,,4,,,67,50
57408,note_on,,,,,64,0,9,,,,,2,,,75,50
57408,note_on,,,,,64,0,10,,,,,3,,,70,50
57408,note_on,,,,,32,0,7,,,,,0,,,67,85
57472,note_off,,,,,64,0,7,,,,,0,,,67,100
57504,note_on,,,,,32,0,7,,,,,0,,,67,85
57536,note_off,,,,,128,0,9,,,,,2,,,75,100
57536,note_off,,,,,128,0,11,,,,,4,,,67,100
57536,note_off,,,,,128,0,10,,,,,3,,,70,100
57568,note_off,,,,,64,0,7,,,,,0,,,67,100
57600,note_on,,,,,64,0,11,,,,,4,,,67,50
57600,note_on,,,,,64,0,10,,,,,3,,,69,50
57600,note_on,,,,,32,0,7,,,,,0,,,73,85
57600,note_on,,,,,64,0,9,,,,,2,,,73,50
57664,note_off,,,,,64,0,7,,,,,0,,,73,100
57696,note_on,,,,,32,0,7,,,,,0,,,67,85
57728,note_off,,,,,128,0,10,,,,,3,,,69,100
57728,note_off,,,,,128,0,9,,,,,2,,,73,100
57728,note_off,,,,,128,0,11,,,,,4,,,67,100
57760,note_off,,,,,64,0,7,,,,,0,,,67,100
57792,note_on,,,,,64,0,10,,,,,3,,,69,50
57792,note_on,,,,,64,0,9,,,,,2,,,73,50
57792,note_on,,,,,32,0,7,,,,,0,,,67,85
57792,note_on,,,,,64,0,11,,,,,4,,,67,50
57856,note_off,,,,,64,0,7,,,,,0,,,67,100
57888,note_on,,,,,32,0,7,,,,,0,,,67,85
57920,note_off,,,,,128,0,9,,,,,2,,,73,100
57920,note_off,,,,,128,0,11,,,,,4,,,67,100
57920,note_off,,,,,128,0,10,,,,,3,,,69,100
57952,note_off,,,,,64,0,7,,,,,0,,,67,100
57984,note_on,,,,,64,0,11,,,,,4,,,67,50
57984,note_on,,,,,64,0,9,,,,,2,,,73,50
57984,note_on,,,,,32,0,7,,,,,0,,,73,85
57984,note_on,,,,,64,0,10,,,,,3,,,69,50
58048,note_off,,,,,64,0,7,,,,,0,,,73,100
58080,note_on,,,,,32,0,7,,,,,0,,,67,85
58112,note_off,,,,,128,0,9,,,,,2,,,73,100
58112,note_off,,,,,128,0,11,,,,,4,,,67,100
58112,note_off,,,,,128,0,10,,,,,3,,,69,100
58144,note_off,,,,,64,0,7,,,,,0,,,67,100
58176,note_on,,,,,64,0,9,,,,,2,,,73,50
58176,note_on,,,,,32,0,7,,,,,0,,,67,85
58176,note_on,,,,,64,0,11,,,,,4,,,67,50
58176,note_on,,,,,64,0,10,,,,,3,,,69,50
58240,note_off,,,,,64,0,7,,,,,0,,,67,100
58272,note_on,,,,,32,0,7,,,,,0,,,67,85
58304,note_off,,,,,128,0,10,,,,,3,,,69,100
58304,note_off,,,,,128,0,9,,,,,2,,,73,100
58304,note_off,,,,,128,0,11,,,,,4,,,67,100
58336,note_off,,,,,64,0,7,,,,,0,,,67,100
58368,note_on,,,,,64,0,9,,,,,2,,,74,50
58368,note_on,,,,,64,0,11,,,,,4,,,65,50
58368,note_on,,,,,32,0,7,,,,,0,,,74,85
58368,note_on,,,,,64,0,10,,,,,3,,,69,50
58432,note_off,,,,,64,0,7,,,,,0,,,74,100
58464,note_on,,,,,32,0,7,,,,,0,,,65,85
58496,note_off,,,,,128,0,11,,,,,4,,,65,100
58496,note_off,,,,,128,0,10,,,,,3,,,69,100
58496,note_off,,,,,128,0,9,,,,,2,,,74,100
58528,note_off,,,,,64,0,7,,,,,0,,,65,100
58560,note_on,,,,,64,0,9,,,,,2,,,74,50
58560,note_on,,,,,32,0,7,,,,,0,,,65,85
58560,note_on,,,,,64,0,10,,,,,3,,,69,50
58560,note_on,,,,,64,0,11,,,,,4,,,65,50
58624,note_off,,,,,64,0,7,,,,,0,,,65,100
58656,note_on,,,,,32,0,7,,,,,0,,,65,85
58688,note_off,,,,,128,0,11,,,,,4,,,65,100
58688,note_off,,,,,128,0,9,,,,,2,,,74,100
58688,note_off,,,,,128,0,10,,,,,3,,,69,100
58720,note_off,,,,,64,0,7,,,,,0,,,65,100
58752,note_on,,,,,64,0,10,,,,,3,,,69,50
58752,note_on,,,,,64,0,11,,,,,4,,,65,50
58752,note_on,,,,,64,0,9,,,,,2,,,74,50
58752,note_on,,,,,32,0,7,,,,,0,,,74,85
58816,note_off,,,,,64,0,7,,,,,0,,,74,100
58848,note_on,,,,,32,0,7,,,,,0,,,65,85
58880,note_off,,,,,128,0,9,,,,,2,,,74,100
58880,note_off,,,,,128,0,11,,,,,4,,,65,100
58880,note_off,,,,,128,0,10,,,,,3,,,69,100
58912,note_off,,,,,64,0,7,,,,,0,,,65,100
58944,note_on,,,,,64,0,11,,,,,4,,,65,50
58944,note_on,,,,,32,0,7,,,,,0,,,65,85
58944,note_on,,,,,64,0,9,,,,,2,,,74,50
58944,note_on,,,,,64,0,10,,,,,3,,,69,50
59008,note_off,,,,,64,0,7,,,,,0,,,65,100
59040,note_on,,,,,32,0,7,,,,,0,,,65,85
59072,note_off,,,,,128,0,11,,,,,4,,,65,100
59072,note_off,,,,,128,0,9,,,,,2,,,74,100
59072,note_off,,,,,128,0,10,,,,,3,,,69,100
59104,note_off,,,,,64,0,7,,,,,0,,,65,100
59136,note_on,,,,,32,0,7,,,,,0,,,71,85
59136,note_on,,,,,64,0,9,,,,,2,,,71,50
59136,note_on,,,,,64,0,11,,,,,4,,,65,50
59136,note_on,,,,,64,0,10,,,,,3,,,67,50
59200,note_off,,,,,64,0,7,,,,,0,,,71,100
59232,note_on,,,,,32,0,7,,,,,0,,,65,85
59264,note_off,,,,,128,0,10,,,,,3,,,67,100
59264,note_off,,,,,128,0,9,,,,,2,,,71,100
59264,note_off,,,,,128,0,11,,,,,4,,,65,100
59296,note_off,,,,,64,0,7,,,,,0,,,65,100
59328,note_on,,,,,64,0,9,,,,,2,,,71,50
59328,note_on,,,,,64,0,11,,,,,4,,,65,50
59328,note_on,,,,,32,0,7,,,,,0,,,65,85
59328,note_on,,,,,64,0,10,,,,,3,,,67,50
59392,note_off,,,,,64,0,7,,,,,0,,,65,100
59424,note_on,,,,,32,0,7,,,,,0,,,65,85
59456,note_off,,,,,128,0,11,,,,,4,,,65,100
59456,note_off,,,,,128,0,9,,,,,2,,,71,100
59456,note_off,,,,,128,0,10,,,,,3,,,67,100
59488,note_off,,,,,64,0,7,,,,,0,,,65,100
59520,note_on,,,,,64,0,11,,,,,4,,,65,50
59520,note_on,,,,,64,0,9,,,,,2,,,71,50
59520,note_on,,,,,32,0,7,,,,,0,,,71,85
59520,note_on,,,,,64,0,10,,,,,3,,,67,50
59584,note_off,,,,,64,0,7,,,,,0,,,71,100
59616,note_on,,,,,32,0,7,,,,,0,,,65,85
59648,note_off,,,,,128,0,9,,,,,2,,,71,100
59648,note_off,,,,,128,0,11,,,,,4,,,65,100
59648,note_off,,,,,128,0,10,,,,,3,,,67,100
59680,note_off,,,,,64,0,7,,,,,0,,,65,100
59712,note_on,,,,,64,0,11,,,,,4,,,65,50
59712,note_on,,,,,64,0,10,,,,,3,,,67,50
59712,note_on,,,,,32,0,7,,,,,0,,,65,85
59712,note_on,,,,,64,0,9,,,,,2,,,71,50
59776,note_off,,,,,64,0,7,,,,,0,,,65,100
59808,note_on,,,,,32,0,7,,,,,0,,,65,85
59840,note_off,,,,,128,0,10,,,,,3,,,67,100
59840,note_off,,,,,128,0,9,,,,,2,,,71,100
59840,note_off,,,,,128,0,11,,,,,4,,,65,100
59872,note_off,,,,,64,0,7,,,,,0,,,65,100
59904,note_on,,,,,64,0,11,,,,,4,,,63,50
59904,note_on,,,,,64,0,10,,,,,3,,,67,50
59904,note_on,,,,,32,0,7,,,,,0,,,72,85
59904,note_on,,,,,64,0,9,,,,,2,,,72,50
59968,note_off,,,,,64,0,7,,,,,0,,,72,100
60000,note_on,,,,,32,0,7,,,,,0,,,63,85
60032,note_off,,,,,128,0,11,,,,,4,,,63,100
60032,note_off,,,,,128,0,10,,,,,3,,,67,100
60032,note_off,,,,,128,0,9,,,,,2,,,72,100
60064,note_off,,,,,64,0,7,,,,,0,,,63,100
60096,note_on,,,,,64,0,9,,,,,2,,,72,50
60096,note_on,,,,,64,0,11,,,,,4,,,63,50
60096,note_on,,,,,64,0,10,,,,,3,,,67,50
60096,note_on,,,,,32,0,7,,,,,0,,,63,85
60160,note_off,,,,,64,0,7,,,,,0,,,63,100
60192,note_on,,,,,32,0,7,,,,,0,,,63,85
60224,note_off,,,,,128,0,9,,,,,2,,,72,100
60224,note_off,,,,,128,0,11,,,,,4,,,63,100
60224,note_off,,,,,128,0,10,,,,,3,,,67,100
60256,note_off,,,,,64,0,7,,,,,0,,,63,100
60288,note_on,,,,,32,0,7,,,,,0,,,72,85
60288,note_on,,,,,64,0,9,,,,,2,,,72,50
60288,note_on,,,,,64,0,11,,,,,4,,,63,50
60288,note_on,,,,,64,0,10,,,,,3,,,67,50
60352,note_off,,,,,64,0,7,,,,,0,,,72,100
60384,note_on,,,,,32,0,7,,,,,0,,,63,85
60416,note_off,,,,,128,0,10,,,,,3,,,67,100
60416,note_off,,,,,128,0,11,,,,,4,,,63,100
60416,note_off,,,,,128,0,9,,,,,2,,,72,100
60448,note_off,,,,,64,0,7,,,,,0,,,63,100
60480,note_on,,,,,64,0,10,,,,,3,,,67,50
60480,note_on,,,,,64,0,11,,,,,4,,,63,50
60480,note_on,,,,,64,0,9,,,,,2,,,72,50
60480,note_on,,,,,32,0,7,,,,,0,,,63,85
60544,note_off,,,,,64,0,7,,,,,0,,,63,100
60576,note_on,,,,,32,0,7,,,,,0,,,63,85
60608,note_off,,,,,128,0,10,,,,,3,,,67,100
60608,note_off,,,,,128,0,11,,,,,4,,,63,100
60608,note_off,,,,,128,0,9,,,,,2,,,72,100
60640,note_off,,,,,64,0,7,,,,,0,,,63,100
60672,note_on,,,,,64,0,10,,,,,3,,,72,50
60672,note_on,,,,,64,0,11,,,,,4,,,66,50
60672,note_on,,,,,64,0,9,,,,,2,,,74,50
60672,note_on,,,,,32,0,7,,,,,0,,,72,85
60736,note_off,,,,,64,0,7,,,,,0,,,72,100
60768,note_on,,,,,32,0,7,,,,,0,,,66,85
60800,note_off,,,,,128,0,10,,,,,3,,,72,100
60800,note_off,,,,,128,0,11,,,,,4,,,66,100
60800,note_off,,,,,128,0,9,,,,,2,,,74,100
60832,note_off,,,,,64,0,7,,,,,0,,,66,100
60864,note_on,,,,,32,0,7,,,,,0,,,66,85
60864,note_on,,,,,64,0,9,,,,,2,,,74,50
60864,note_on,,,,,64,0,11,,,,,4,,,66,50
60864,note_on,,,,,64,0,10,,,,,3,,,72,50
60928,note_off,,,,,64,0,7,,,,,0,,,66,100
60960,note_on,,,,,32,0,7,,,,,0,,,66,85
60992,note_off,,,,,128,0,11,,,,,4,,,66,100
60992,note_off,,,,,128,0,9,,,,,2,,,74,100
60992,note_off,,,,,128,0,10,,,,,3,,,72,100
61024,note_off,,,,,64,0,7,,,,,0,,,66,100
61056,note_on,,,,,64,0,9,,,,,2,,,74,50
61056,note_on,,,,,32,0,7,,,,,0,,,72,85
61056,note_on,,,,,64,0,11,,,,,4,,,66,50
61056,note_on,,,,,64,0,10,,,,,3,,,72,50
61120,note_off,,,,,64,0,7,,,,,0,,,72,100
61152,note_on,,,,,32,0,7,,,,,0,,,66,85
61184,note_off,,,,,128,0,10,,,,,3,,,72,100
61184,note_off,,,,,128,0,9,,,,,2,,,74,100
61184,note_off,,,,,128,0,11,,,,,4,,,66,100
61216,note_off,,,,,64,0,7,,,,,0,,,66,100
61248,note_on,,,,,64,0,11,,,,,4,,,66,50
61248,note_on,,,,,64,0,10,,,,,3,,,72,50
61248,note_on,,,,,64,0,9,,,,,2,,,74,50
61248,note_on,,,,,32,0,7,,,,,0,,,66,85
61312,note_off,,,,,64,0,7,,,,,0,,,66,100
61344,note_on,,,,,32,0,7,,,,,0,,,66,85
61376,note_off,,,,,128,0,10,,,,,3,,,72,100
61376,note_off,,,,,128,0,9,,,,,2,,,74,100
61376,note_off,,,,,128,0,11,,,,,4,,,66,100
61408,note_off,,,,,64,0,7,,,,,0,,,66,100
61440,note_on,,,,,64,0,10,,,,,3,,,72,50
61440,note_on,,,,,64,0,9,,,,,2,,,74,50
61440,note_on,,,,,32,0,7,,,,,0,,,72,85
61440,note_on,,,,,64,0,11,,,,,4,,,67,50
61504,note_off,,,,,64,0,7,,,,,0,,,72,100
61536,note_on,,,,,32,0,7,,,,,0,,,67,85
61568,note_off,,,,,128,0,9,,,,,2,,,74,100
61568,note_off,,,,,128,0,11,,,,,4,,,67,100
61568,note_off,,,,,128,0,10,,,,,3,,,72,100
61600,note_off,,,,,64,0,7,,,,,0,,,67,100
61632,note_on,,,,,32,0,7,,,,,0,,,67,85
61632,note_on,,,,,64,0,9,,,,,2,,,74,50
61632,note_on,,,,,64,0,11,,,,,4,,,67,50
61632,note_on,,,,,64,0,10,,,,,3,,,72,50
61696,note_off,,,,,64,0,7,,,,,0,,,67,100
61728,note_on,,,,,32,0,7,,,,,0,,,67,85
61760,note_off,,,,,128,0,10,,,,,3,,,72,100
61760,note_off,,,,,128,0,11,,,,,4,,,67,100
61760,note_off,,,,,128,0,9,,,,,2,,,74,100
61792,note_off,,,,,64,0,7,,,,,0,,,67,100
61824,note_on,,,,,32,0,7,,,,,0,,,72,85
61824,note_on,,,,,64,0,11,,,,,4,,,67,50
61824,note_on,,,,,64,0,10,,,,,3,,,72,50
61824,note_on,,,,,64,0,9,,,,,2,,,74,50
61888,note_off,,,,,64,0,7,,,,,0,,,72,100
61920,note_on,,,,,32,0,7,,,,,0,,,67,85
61952,note_off,,,,,128,0,9,,,,,2,,,74,100
61952,note_off,,,,,128,0,11,,,,,4,,,67,100
61952,note_off,,,,,128,0,10,,,,,3,,,72,100
61984,note_off,,,,,64,0,7,,,,,0,,,67,100
62016,note_on,,,,,32,0,7,,,,,0,,,67,85
62016,note_on,,,,,64,0,10,,,,,3,,,72,50
62016,note_on,,,,,64,0,11,,,,,4,,,67,50
62016,note_on,,,,,64,0,9,,,,,2,,,74,50
62080,note_off,,,,,64,0,7,,,,,0,,,67,100
62112,note_on,,,,,32,0,7,,,,,0,,,67,85
62144,note_off,,,,,128,0,10,,,,,3,,,72,100
62144,note_off,,,,,128,0,11,,,,,4,,,67,100
62144,note_off,,,,,128,0,9,,,,,2,,,74,100
62176,note_off,,,,,64,0,7,,,,,0,,,67,100
62208,note_on,,,,,64,0,9,,,,,2,,,74,50
62208,note_on,,,,,64,0,10,,,,,3,,,70,50
62208,note_on,,,,,64,0,11,,,,,4,,,67,50
62208,note_on,,,,,32,0,7,,,,,0,,,70,85
62272,note_off,,,,,64,0,7,,,,,0,,,70,100
62304,note_on,,,,,32,0,7,,,,,0,,,67,85
62336,note_off,,,,,128,0,10,,,,,3,,,70,100
62336,note_off,,,,,128,0,9,,,,,2,,,74,100
62336,note_off,,,,,128,0,11,,,,,4,,,67,100
62368,note_off,,,,,64,0,7,,,,,0,,,67,100
62400,note_on,,,,,32,0,7,,,,,0,,,67,85
62400,note_on,,,,,64,0,11,,,,,4,,,67,50
62400,note_on,,,,,64,0,10,,,,,3,,,70,50
62400,note_on,,,,,64,0,9,,,,,2,,,74,50
62464,note_off,,,,,64,0,7,,,,,0,,,67,100
62496,note_on,,,,,32,0,7,,,,,0,,,67,85
62528,note_off,,,,,128,0,11,,,,,4,,,67,100
62528,note_off,,,,,128,0,9,,,,,2,,,74,100
62528,note_off,,,,,128,0,10,,,,,3,,,70,100
62560,note_off,,,,,64,0,7,,,,,0,,,67,100
62592,note_on,,,,,32,0,7,,,,,0,,,70,85
62592,note_on,,,,,64,0,11,,,,,4,,,67,50
62592,note_on,,,,,64,0,9,,,,,2,,,74,50
62592,note_on,,,,,64,0,10,,,,,3,,,70,50
62656,note_off,,,,,64,0,7,,,,,0,,,70,100
62688,note_on,,,,,32,0,7,,,,,0,,,67,85
62720,note_off,,,,,128,0,11,,,,,4,,,67,100
62720,note_off,,,,,128,0,9,,,,,2,,,74,100
62720,note_off,,,,,128,0,10,,,,,3,,,70,100
62752,note_off,,,,,64,0,7,,,,,0,,,67,100
62784,note_on,,,,,64,0,11,,,,,4,,,67,50
62784,note_on,,,,,64,0,9,,,,,2,,,74,50
62784,note_on,,,,,64,0,10,,,,,3,,,70,50
62784,note_on,,,,,32,0,7,,,,,0,,,67,85
62848,note_off,,,,,64,0,7,,,,,0,,,67,100
62880,note_on,,,,,32,0,7,,,,,0,,,67,85
62912,note_off,,,,,128,0,9,,,,,2,,,74,100
62912,note_off,,,,,128,0,10,,,,,3,,,70,100
62912,note_off,,,,,128,0,11,,,,,4,,,67,100
62944,note_off,,,,,64,0,7,,,,,0,,,67,100
62976,note_on,,,,,64,0,9,,,,,2,,,73,50
62976,note_on,,,,,32,0,7,,,,,0,,,73,85
62976,note_on,,,,,64,0,10,,,,,3,,,69,50
62976,note_on,,,,,64,0,11,,,,,4,,,67,50
63040,note_off,,,,,64,0,7,,,,,0,,,73,100
63072,note_on,,,,,32,0,7,,,,,0,,,67,85
63104,note_off,,,,,128,0,9,,,,,2,,,73,100
63104,note_off,,,,,128,0,10,,,,,3,,,69,100
63104,note_off,,,,,128,0,11,,,,,4,,,67,100
63136,note_off,,,,,64,0,7,,,,,0,,,67,100
63168,note_on,,,,,64,0,11,,,,,4,,,67,50
63168,note_on,,,,,64,0,9,,,,,2,,,73,50
63168,note_on,,,,,32,0,7,,,,,0,,,67,85
63168,note_on,,,,,64,0,10,,,,,3,,,69,50
63232,note_off,,,,,64,0,7,,,,,0,,,67,100
63264,note_on,,,,,32,0,7,,,,,0,,,67,85
63296,note_off,,,,,128,0,11,,,,,4,,,67,100
63296,note_off,,,,,128,0,9,,,,,2,,,73,100
63296,note_off,,,,,128,0,10,,,,,3,,,69,100
63328,note_off,,,,,64,0,7,,,,,0,,,67,100
63360,note_on,,,,,32,0,7,,,,,0,,,73,85
63360,note_on,,,,,64,0,9,,,,,2,,,73,50
63360,note_on,,,,,64,0,10,,,,,3,,,69,50
63360,note_on,,,,,64,0,11,,,,,4,,,67,50
63424,note_off,,,,,64,0,7,,,,,0,,,73,100
63456,note_on,,,,,32,0,7,,,,,0,,,67,85
63488,note_off,,,,,128,0,9,,,,,2,,,73,100
63488,note_off,,,,,128,0,11,,,,,4,,,67,100
63488,note_off,,,,,128,0,10,,,,,3,,,69,100
63520,note_off,,,,,64,0,7,,,,,0,,,67,100
63552,note_on,,,,,64,0,11,,,,,4,,,67,50
63552,note_on,,,,,64,0,9,,,,,2,,,73,50
63552,note_on,,,,,64,0,10,,,,,3,,,69,50
63552,note_on,,,,,32,0,7,,,,,0,,,67,85
63616,note_off,,,,,64,0,7,,,,,0,,,67,100
63648,note_on,,,,,32,0,7,,,,,0,,,67,85
63680,note_off,,,,,128,0,10,,,,,3,,,69,100
63680,note_off,,,,,128,0,9,,,,,2,,,73,100
63680,note_off,,,,,128,0,11,,,,,4,,,67,100
63712,note_off,,,,,64,0,7,,,,,0,,,67,100
63744,note_on,,,,,32,0,7,,,,,0,,,74,85
63744,note_on,,,,,64,0,9,,,,,2,,,74,50
63744,note_on,,,,,64,0,11,,,,,4,,,65,50
63744,note_on,,,,,64,0,10,,,,,3,,,69,50
63808,note_off,,,,,64,0,7,,,,,0,,,74,100
63840,note_on,,,,,32,0,7,,,,,0,,,65,85
63872,note_off,,,,,128,0,10,,,,,3,,,69,100
63872,note_off,,,,,128,0,11,,,,,4,,,65,100
63872,note_off,,,,,128,0,9,,,,,2,,,74,100
63904,note_off,,,,,64,0,7,,,,,0,,,65,100
63936,note_on,,,,,64,0,11,,,,,4,,,53,50
63936,note_on,,,,,64,0,9,,,,,2,,,74,50
63936,note_on,,,,,32,0,7,,,,,0,,,65,85
63936,note_on,,,,,64,0,10,,,,,3,,,69,50
64000,note_off,,,,,64,0,7,,,,,0,,,65,100
64032,note_on,,,,,32,0,7,,,,,0,,,65,85
64064,note_off,,,,,128,0,11,,,,,4,,,53,100
64064,note_off,,,,,128,0,9,,,,,2,,,74,100
64064,note_off,,,,,128,0,10,,,,,3,,,69,100
64096,note_off,,,,,64,0,7,,,,,0,,,65,100
64128,note_on,,,,,64,0,9,,,,,2,,,74,50
64128,note_on,,,,,64,0,11,,,,,4,,,53,50
64128,note_on,,,,,64,0,10,,,,,3,,,69,50
64128,note_on,,,,,32,0,7,,,,,0,,,74,85
64192,note_off,,,,,64,0,7,,,,,0,,,74,100
64224,note_on,,,,,32,0,7,,,,,0,,,65,85
64256,note_off,,,,,128,0,9,,,,,2,,,74,100
64256,note_off,,,,,128,0,11,,,,,4,,,53,100
64256,note_off,,,,,128,0,10,,,,,3,,,69,100
64288,note_off,,,,,64,0,7,,,,,0,,,65,100
64320,note_on,,,,,32,0,7,,,,,0,,,65,85
64320,note_on,,,,,64,0,10,,,,,3,,,69,50
64320,note_on,,,,,64,0,9,,,,,2,,,74,50
64320,note_on,,,,,64,0,11,,,,,4,,,53,50
64384,note_off,,,,,64,0,7,,,,,0,,,65,100
64416,note_on,,,,,32,0,7,,,,,0,,,65,85
64448,note_off,,,,,128,0,9,,,,,2,,,74,100
64448,note_off,,,,,128,0,10,,,,,3,,,69,100
64448,note_off,,,,,128,0,11,,,,,4,,,53,100
64480,note_off,,,,,64,0,7,,,,,0,,,65,100
64512,note_on,,,,,32,0,7,,,,,0,,,74,85
64512,note_on,,,,,64,0,9,,,,,2,,,74,50
64512,note_on,,,,,64,0,10,,,,,3,,,70,50
64512,note_on,,,,,64,0,11,,,,,4,,,55,50
64576,note_off,,,,,64,0,7,,,,,0,,,74,100
64608,note_on,,,,,32,0,7,,,,,0,,,64,85
64640,note_off,,,,,128,0,10,,,,,3,,,70,100
64640,note_off,,,,,128,0,11,,,,,4,,,55,100
64640,note_off,,,,,128,0,9,,,,,2,,,74,100
64672,note_off,,,,,64,0,7,,,,,0,,,64,100
64704,note_on,,,,,64,0,10,,,,,3,,,70,50
64704,note_on,,,,,64,0,11,,,,,4,,,55,50
64704,note_on,,,,,64,0,9,,,,,2,,,74,50
64704,note_on,,,,,32,0,7,,,,,0,,,64,85
64768,note_off,,,,,64,0,7,,,,,0,,,64,100
64800,note_on,,,,,32,0,7,,,,,0,,,64,85
64832,note_off,,,,,128,0,10,,,,,3,,,70,100
64832,note_off,,,,,128,0,11,,,,,4,,,55,100
64832,note_off,,,,,128,0,9,,,,,2,,,74,100
64864,note_off,,,,,64,0,7,,,,,0,,,64,100
64896,note_on,,,,,64,0,9,,,,,2,,,74,50
64896,note_on,,,,,64,0,10,,,,,3,,,70,50
64896,note_on,,,,,64,0,11,,,,,4,,,55,50
64896,note_on,,,,,32,0,7,,,,,0,,,74,85
64960,note_off,,,,,64,0,7,,,,,0,,,74,100
64992,note_on,,,,,32,0,7,,,,,0,,,64,85
65024,note_off,,,,,128,0,10,,,,,3,,,70,100
65024,note_off,,,,,128,0,11,,,,,4,,,55,100
65024,note_off,,,,,128,0,9,,,,,2,,,74,100
65056,note_off,,,,,64,0,7,,,,,0,,,64,100
65088,note_on,,,,,32,0,7,,,,,0,,,64,85
65088,note_on,,,,,64,0,9,,,,,2,,,74,50
65088,note_on,,,,,64,0,10,,,,,3,,,70,50
65088,note_on,,,,,64,0,11,,,,,4,,,55,50
65152,note_off,,,,,64,0,7,,,,,0,,,64,100
65184,note_on,,,,,32,0,7,,,,,0,,,64,85
65216,note_off,,,,,128,0,9,,,,,2,,,74,100
65216,note_off,,,,,128,0,10,,,,,3,,,70,100
65216,note_off,,,,,128,0,11,,,,,4,,,55,100
65248,note_off,,,,,64,0,7,,,,,0,,,64,100
65280,note_on,,,,,64,0,10,,,,,3,,,64,50
65280,note_on,,,,,64,0,11,,,,,4,,,57,50
65280,note_on,,,,,32,0,7,,,,,0,,,73,85
65280,note_on,,,,,64,0,9,,,,,2,,,73,50
65344,note_off,,,,,64,0,7,,,,,0,,,73,100
65376,note_on,,,,,32,0,7,,,,,0,,,64,85
65408,note_off,,,,,128,0,9,,,,,2,,,73,100
65408,note_off,,,,,128,0,10,,,,,3,,,64,100
65408,note_off,,,,,128,0,11,,,,,4,,,57,100
65440,note_off,,,,,64,0,7,,,,,0,,,64,100
65472,note_on,,,,,64,0,10,,,,,3,,,64,50
65472,note_on,,,,,64,0,9,,,,,2,,,73,50
65472,note_on,,,,,32,0,7,,,,,0,,,64,85
65472,note_on,,,,,64,0,11,,,,,4,,,57,50
65536,note_off,,,,,64,0,7,,,,,0,,,64,100
65568,note_on,,,,,32,0,7,,,,,0,,,64,85
65600,note_off,,,,,128,0,10,,,,,3,,,64,100
65600,note_off,,,,,128,0,9,,,,,2,,,73,100
65600,note_off,,,,,128,0,11,,,,,4,,,57,100
65632,note_off,,,,,64,0,7,,,,,0,,,64,100
65664,note_on,,,,,32,0,7,,,,,0,,,73,85
65664,note_on,,,,,64,0,11,,,,,4,,,57,50
65664,note_on,,,,,64,0,10,,,,,3,,,64,50
65664,note_on,,,,,64,0,9,,,,,2,,,73,50
65728,note_off,,,,,64,0,7,,,,,0,,,73,100
65760,note_on,,,,,32,0,7,,,,,0,,,64,85
65792,note_off,,,,,128,0,11,,,,,4,,,57,100
65792,note_off,,,,,128,0,10,,,,,3,,,64,100
65792,note_off,,,,,128,0,9,,,,,2,,,73,100
65824,note_off,,,,,64,0,7,,,,,0,,,64,100
65856,note_on,,,,,32,0,7,,,,,0,,,64,85
65856,note_on,,,,,64,0,9,,,,,2,,,73,50
65856,note_on,,,,,64,0,10,,,,,3,,,64,50
65856,note_on,,,,,64,0,11,,,,,4,,,57,50
65920,note_off,,,,,64,0,7,,,,,0,,,64,100
65952,note_on,,,,,32,0,7,,,,,0,,,64,85
65984,note_off,,,,,128,0,10,,,,,3,,,64,100
65984,note_off,,,,,128,0,11,,,,,4,,,57,100
65984,note_off,,,,,128,0,9,,,,,2,,,73,100
66016,note_off,,,,,64,0,7,,,,,0,,,64,100
66048,note_on,,,,,64,0,11,,,,,4,,,62,50
66048,note_on,,,,,32,0,7,,,,,0,,,74,70
66048,note_on,,,,,64,0,9,,,,,2,,,74,50
66048,note_on,,,,,64,0,10,,,,,3,,,65,50
66176,note_off,,,,,128,0,7,,,,,0,,,74,100
66176,note_off,,,,,128,0,9,,,,,2,,,74,100
66240,note_on,,,,,64,0,9,,,,,2,,,77,85
66304,note_off,,,,,256,0,10,,,,,3,,,65,100
66304,note_off,,,,,256,0,11,,,,,4,,,62,100
66368,note_off,,,,,128,0,9,,,,,2,,,77,100
66432,note_on,,,,,64,0,9,,,,,2,,,76,85
66560,note_off,,,,,128,0,9,,,,,2,,,76,100
66624,note_on,,,,,64,0,9,,,,,2,,,74,86
66752,note_off,,,,,128,0,9,,,,,2,,,74,100
66816,note_on,,,,,512,0,10,,,,,3,,,69,87
66816,note_on,,,,,64,0,9,,,,,2,,,81,87
66880,note_off,,,,,64,0,9,,,,,2,,,81,100
66912,note_on,,,,,32,0,9,,,,,2,,,76,88
66944,note_off,,,,,128,0,10,,,,,3,,,69,100
66976,note_off,,,,,64,0,9,,,,,2,,,76,100
67008,note_on,,,,,64,0,10,,,,,3,,,73,88
67008,note_on,,,,,32,0,9,,,,,2,,,76,88
67072,note_off,,,,,64,0,9,,,,,2,,,76,100
67104,note_on,,,,,32,0,9,,,,,2,,,76,89
67136,note_off,,,,,128,0,10,,,,,3,,,73,100
67168,note_off,,,,,64,0,9,,,,,2,,,76,100
67200,note_on,,,,,64,0,10,,,,,3,,,71,89
67200,note_on,,,,,32,0,9,,,,,2,,,76,89
67264,note_off,,,,,64,0,9,,,,,2,,,76,100
67296,note_on,,,,,32,0,9,,,,,2,,,76,90
67328,note_off,,,,,128,0,10,,,,,3,,,71,100
67360,note_off,,,,,64,0,9,,,,,2,,,76,100
67392,note_on,,,,,64,0,10,,,,,3,,,69,90
67392,note_on,,,,,32,0,9,,,,,2,,,76,90
67456,note_off,,,,,64,0,9,,,,,2,,,76,100
67488,note_on,,,,,32,0,9,,,,,2,,,76,91
67520,note_off,,,,,128,0,10,,,,,3,,,69,100
67552,note_off,,,,,64,0,9,,,,,2,,,76,100
67584,note_on,,,,,64,0,10,,,,,3,,,74,91
67584,note_on,,,,,1280,0,11,,,,,4,,,62,91
67584,note_on,,,,,32,0,9,,,,,2,,,77,91
67648,note_off,,,,,64,0,9,,,,,2,,,77,100
67648,note_off,,,,,64,0,10,,,,,3,,,74,100
67680,note_on,,,,,32,0,10,,,,,3,,,74,92
67680,note_on,,,,,32,0,9,,,,,2,,,81,92
67712,note_off,,,,,128,0,11,,,,,4,,,62,100
67744,note_off,,,,,64,0,10,,,,,3,,,74,100
67744,note_off,,,,,64,0,9,,,,,2,,,81,100
67776,note_on,,,,,64,0,11,,,,,4,,,65,92
67776,note_on,,,,,32,0,9,,,,,2,,,81,92
67776,note_on,,,,,32,0,10,,,,,3,,,74,92
67840,note_off,,,,,64,0,9,,,,,2,,,81,100
67840,note_off,,,,,64,0,10,,,,,3,,,74,100
67872,note_on,,,,,32,0,9,,,,,2,,,81,93
67872,note_on,,,,,32,0,10,,,,,3,,,74,93
67904,note_off,,,,,128,0,11,,,,,4,,,65,100
67936,note_off,,,,,64,0,10,,,,,3,,,74,100
67936,note_off,,,,,64,0,9,,,,,2,,,81,100
67968,note_on,,,,,32,0,9,,,,,2,,,81,93
67968,note_on,,,,,32,0,10,,,,,3,,,74,93
67968,note_on,,,,,64,0,11,,,,,4,,,64,93
68032,note_off,,,,,64,0,9,,,,,2,,,81,100
68032,note_off,,,,,64,0,10,,,,,3,,,74,100
68064,note_on,,,,,32,0,10,,,,,3,,,74,94
68064,note_on,,,,,32,0,9,,,,,2,,,81,94
68096,note_off,,,,,128,0,11,,,,,4,,,64,100
68128,note_off,,,,,64,0,10,,,,,3,,,74,100
68128,note_off,,,,,64,0,9,,,,,2,,,81,100
68160,note_on,,,,,32,0,10,,,,,3,,,74,94
68160,note_on,,,,,32,0,9,,,,,2,,,81,94
68160,note_on,,,,,64,0,11,,,,,4,,,62,94
68224,note_off,,,,,64,0,10,,,,,3,,,74,100
68224,note_off,,,,,64,0,9,,,,,2,,,81,100
68256,note_on,,,,,32,0,10,,,,,3,,,74,95
68256,note_on,,,,,32,0,9,,,,,2,,,81,95
68288,note_off,,,,,128,0,11,,,,,4,,,62,100
68320,note_off,,,,,64,0,9,,,,,2,,,81,100
68320,note_off,,,,,64,0,10,,,,,3,,,74,100
68352,note_on,,,,,15104,0,12,,,,,5,,,45,95
68352,note_on,,,,,64,0,11,,,,,4,,,69,95
68352,note_on,,,,,32,0,9,,,,,2,,,73,95
68352,note_on,,,,,15104,0,13,,,,,6,,,33,95
68352,note_on,,,,,0,0,14,,,,,7,,,61,100
68352,note_on,,,,,15104,0,14,,,,,7,,,64,100
68352,note_on,,,,,15104,0,15,,,,,7,,,45,100
68352,note_on,,,,,32,0,10,,,,,3,,,76,95
68416,note_off,,,,,64,0,10,,,,,3,,,76,100
68416,note_off,,,,,64,0,9,,,,,2,,,73,100
68416,note_off,,,,,64,0,11,,,,,4,,,69,100
68448,note_on,,,,,32,0,9,,,,,2,,,73,96
68448,note_on,,,,,32,0,11,,,,,4,,,69,96
68448,note_on,,,,,32,0,10,,,,,3,,,76,96
68480,note_off,,,,,0,0,14,,,,,7,,,61,100
68480,note_off,,,,,128,0,12,,,,,5,,,45,100
68480,note_off,,,,,128,0,15,,,,,7,,,45,100
68480,note_off,,,,,128,0,14,,,,,7,,,64,100
68480,note_off,,,,,128,0,13,,,,,6,,,33,100
68512,note_off,,,,,64,0,11,,,,,4,,,69,100
68512,note_off,,,,,64,0,10,,,,,3,,,76,100
68512,note_off,,,,,64,0,9,,,,,2,,,73,100
68544,note_on,,,,,64,0,12,,,,,5,,,49,96
68544,note_on,,,,,64,0,14,,,,,7,,,69,100
68544,note_on,,,,,0,0,14,,,,,7,,,64,100
68544,note_on,,,,,32,0,10,,,,,3,,,76,96
68544,note_on,,,,,32,0,11,,,,,4,,,69,96
68544,note_on,,,,,32,0,9,,,,,2,,,73,96
68544,note_on,,,,,64,0,13,,,,,6,,,37,96
68544,note_on,,,,,64,0,15,,,,,7,,,49,100
68608,note_off,,,,,64,0,10,,,,,3,,,76,100
68608,note_off,,,,,64,0,11,,,,,4,,,69,100
68608,note_off,,,,,64,0,9,,,,,2,,,73,100
68640,note_on,,,,,32,0,11,,,,,4,,,69,97
68640,note_on,,,,,32,0,10,,,,,3,,,76,97
68640,note_on,,,,,32,0,9,,,,,2,,,73,97
68672,note_off,,,,,0,0,14,,,,,7,,,64,100
68672,note_off,,,,,128,0,12,,,,,5,,,49,100
68672,note_off,,,,,128,0,14,,,,,7,,,69,100
68672,note_off,,,,,128,0,13,,,,,6,,,37,100
68672,note_off,,,,,128,0,15,,,,,7,,,49,100
68704,note_off,,,,,64,0,11,,,,,4,,,69,100
68704,note_off,,,,,64,0,9,,,,,2,,,73,100
68704,note_off,,,,,64,0,10,,,,,3,,,76,100
68736,note_on,,,,,0,0,14,,,,,7,,,64,100
68736,note_on,,,,,64,0,15,,,,,7,,,47,100
68736,note_on,,,,,32,0,11,,,,,4,,,69,97
68736,note_on,,,,,64,0,12,,,,,5,,,47,97
68736,note_on,,,,,32,0,10,,,,,3,,,76,97
68736,note_on,,,,,32,0,9,,,,,2,,,73,97
68736,note_on,,,,,0,0,14,,,,,7,,,61,100
68736,note_on,,,,,64,0,13,,,,,6,,,35,97
68736,note_on,,,,,64,0,14,,,,,7,,,67,100
68800,note_off,,,,,64,0,10,,,,,3,,,76,100
68800,note_off,,,,,64,0,9,,,,,2,,,73,100
68800,note_off,,,,,64,0,11,,,,,4,,,69,100
68832,note_on,,,,,32,0,10,,,,,3,,,76,98
68832,note_on,,,,,32,0,9,,,,,2,,,73,98
68832,note_on,,,,,32,0,11,,,,,4,,,69,98
68864,note_off,,,,,128,0,15,,,,,7,,,47,100
68864,note_off,,,,,128,0,13,,,,,6,,,35,100
68864,note_off,,,,,128,0,12,,,,,5,,,47,100
68864,note_off,,,,,0,0,14,,,,,7,,,61,100
68864,note_off,,,,,0,0,14,,,,,7,,,64,100
68864,note_off,,,,,128,0,14,,,,,7,,,67,100
68896,note_off,,,,,64,0,10,,,,,3,,,76,100
68896,note_off,,,,,64,0,11,,,,,4,,,69,100
68896,note_off,,,,,64,0,9,,,,,2,,,73,100
68928,note_on,,,,,64,0,15,,,,,7,,,45,100
68928,note_on,,,,,64,0,13,,,,,6,,,33,98
68928,note_on,,,,,0,0,14,,,,,7,,,61,100
68928,note_on,,,,,64,0,14,,,,,7,,,64,100
68928,note_on,,,,,32,0,11,,,,,4,,,69,98
68928,note_on,,,,,32,0,10,,,,,3,,,76,98
68928,note_on,,,,,64,0,12,,,,,5,,,45,98
68928,note_on,,,,,32,0,9,,,,,2,,,73,98
68992,note_off,,,,,64,0,9,,,,,2,,,73,100
68992,note_off,,,,,64,0,11,,,,,4,,,69,100
68992,note_off,,,,,64,0,10,,,,,3,,,76,100
69024,note_on,,,,,32,0,9,,,,,2,,,73,99
69024,note_on,,,,,32,0,11,,,,,4,,,69,99
69024,note_on,,,,,32,0,10,,,,,3,,,76,99
69056,note_off,,,,,128,0,14,,,,,7,,,64,100
69056,note_off,,,,,128,0,13,,,,,6,,,33,100
69056,note_off,,,,,128,0,12,,,,,5,,,45,100
69056,note_off,,,,,128,0,15,,,,,7,,,45,100
69056,note_off,,,,,0,0,14,,,,,7,,,61,100
69088,note_off,,,,,64,0,11,,,,,4,,,69,100
69088,note_off,,,,,64,0,10,,,,,3,,,76,100
69088,note_off,,,,,64,0,9,,,,,2,,,73,100
69120,note_on,,,,,32,0,11,,,,,4,,,69,99
69120,note_on,,,,,0,0,14,,,,,7,,,62,100
69120,note_on,,,,,64,0,15,,,,,7,,,50,100
69120,note_on,,,,,64,0,13,,,,,6,,,38,99
69120,note_on,,,,,64,0,12,,,,,5,,,50,99
69120,note_on,,,,,32,0,10,,,,,3,,,77,99
69120,note_on,,,,,32,0,9,,,,,2,,,74,99
69120,note_on,,,,,64,0,14,,,,,7,,,65,100
69184,note_off,,,,,64,0,13,,,,,6,,,38,100
69184,note_off,,,,,64,0,12,,,,,5,,,50,100
69184,note_off,,,,,64,0,11,,,,,4,,,69,100
69216,note_on,,,,,32,0,11,,,,,4,,,69,100
69216,note_on,,,,,32,0,13,,,,,6,,,38,100
69216,note_on,,,,,32,0,12,,,,,5,,,50,100
69248,note_off,,,,,128,0,10,,,,,3,,,77,100
69248,note_off,,,,,128,0,14,,,,,7,,,65,100
69248,note_off,,,,,128,0,15,,,,,7,,,50,100
69248,note_off,,,,,0,0,14,,,,,7,,,62,100
69248,note_off,,,,,128,0,9,,,,,2,,,74,100
69280,note_off,,,,,64,0,11,,,,,4,,,69,100
69280,note_off,,,,,64,0,13,,,,,6,,,38,100
69280,note_off,,,,,64,0,12,,,,,5,,,50,100
69312,note_on,,,,,32,0,13,,,,,6,,,38,100
69312,note_on,,,,,32,0,12,,,,,5,,,50,100
69312,note_on,,,,,0,0,14,,,,,7,,,65,100
69312,note_on,,,,,64,0,14,,,,,7,,,69,100
69312,note_on,,,,,64,0,10,,,,,3,,,77,100
69312,note_on,,,,,32,0,11,,,,,4,,,69,100
69312,note_on,,,,,64,0,9,,,,,2,,,81,100
69312,note_on,,,,,64,0,15,,,,,7,,,50,100
69376,note_off,,,,,64,0,13,,,,,6,,,38,100
69376,note_off,,,,,64,0,12,,,,,5,,,50,100
69376,note_off,,,,,64,0,11,,,,,4,,,69,100
69408,note_on,,,,,32,0,11,,,,,4,,,69,100
69408,note_on,,,,,32,0,13,,,,,6,,,38,100
69408,note_on,,,,,32,0,12,,,,,5,,,50,100
69440,note_off,,,,,128,0,9,,,,,2,,,81,100
69440,note_off,,,,,0,0,14,,,,,7,,,65,100
69440,note_off,,,,,128,0,10,,,,,3,,,77,100
69440,note_off,,,,,128,0,15,,,,,7,,,50,100
69440,note_off,,,,,128,0,14,,,,,7,,,69,100
69472,note_off,,,,,64,0,12,,,,,5,,,50,100
69472,note_off,,,,,64,0,13,,,,,6,,,38,100
69472,note_off,,,,,64,0,11,,,,,4,,,69,100
69504,note_on,,,,,64,0,15,,,,,7,,,50,100
69504,note_on,,,,,32,0,11,,,,,4,,,69,100
69504,note_on,,,,,32,0,13,,,,,6,,,38,100
69504,note_on,,,,,64,0,10,,,,,3,,,76,100
69504,note_on,,,,,64,0,9,,,,,2,,,79,100
69504,note_on,,,,,0,0,14,,,,,7,,,65,100
69504,note_on,,,,,64,0,14,,,,,7,,,69,100
69504,note_on,,,,,32,0,12,,,,,5,,,50,100
69568,note_off,,,,,64,0,12,,,,,5,,,50,100
69568,note_off,,,,,64,0,11,,,,,4,,,69,100
69568,note_off,,,,,64,0,13,,,,,6,,,38,100
69600,note_on,,,,,32,0,12,,,,,5,,,50,100
69600,note_on,,,,,32,0,11,,,,,4,,,69,100
69600,note_on,,,,,32,0,13,,,,,6,,,38,100
69632,note_off,,,,,128,0,15,,,,,7,,,50,100
69632,note_off,,,,,128,0,14,,,,,7,,,69,100
69632,note_off,,,,,0,0,14,,,,,7,,,65,100
69632,note_off,,,,,128,0,9,,,,,2,,,79,100
69632,note_off,,,,,128,0,10,,,,,3,,,76,100
69664,note_off,,,,,64,0,13,,,,,6,,,38,100
69664,note_off,,,,,64,0,12,,,,,5,,,50,100
69664,note_off,,,,,64,0,11,,,,,4,,,69,100
69696,note_on,,,,,32,0,13,,,,,6,,,38,100
69696,note_on,,,,,32,0,12,,,,,5,,,50,100
69696,note_on,,,,,64,0,15,,,,,7,,,50,100
69696,note_on,,,,,64,0,10,,,,,3,,,74,100
69696,note_on,,,,,0,0,14,,,,,7,,,65,100
69696,note_on,,,,,32,0,11,,,,,4,,,69,100
69696,note_on,,,,,64,0,14,,,,,7,,,69,100
69696,note_on,,,,,64,0,9,,,,,2,,,77,100
69760,note_off,,,,,64,0,12,,,,,5,,,50,100
69760,note_off,,,,,64,0,13,,,,,6,,,38,100
69760,note_off,,,,,64,0,11,,,,,4,,,69,100
69792,note_on,,,,,32,0,11,,,,,4,,,69,100
69792,note_on,,,,,32,0,12,,,,,5,,,50,100
69792,note_on,,,,,32,0,13,,,,,6,,,38,100
69824,note_off,,,,,128,0,14,,,,,7,,,69,100
69824,note_off,,,,,0,0,14,,,,,7,,,65,100
69824,note_off,,,,,128,0,15,,,,,7,,,50,100
69824,note_off,,,,,128,0,10,,,,,3,,,74,100
69824,note_off,,,,,128,0,9,,,,,2,,,77,100
69856,note_off,,,,,64,0,11,,,,,4,,,69,100
69856,note_off,,,,,64,0,13,,,,,6,,,38,100
69856,note_off,,,,,64,0,12,,,,,5,,,50,100
69888,note_on,,,,,32,0,13,,,,,6,,,45,100
69888,note_on,,,,,32,0,12,,,,,5,,,57,100
69888,note_on,,,,,32,0,11,,,,,4,,,69,100
69888,note_on,,,,,64,0,9,,,,,2,,,76,100
69888,note_on,,,,,64,0,10,,,,,3,,,72,100
69888,note_on,,,,,64,0,15,,,,,7,,,57,100
69888,note_on,,,,,0,0,14,,,,,7,,,72,100
69888,note_on,,,,,64,0,14,,,,,7,,,64,100
70016,note_off,,,,,128,0,9,,,,,2,,,76,100
70080,note_on,,,,,64,0,9,,,,,2,,,69,100
70144,note_off,,,,,256,0,13,,,,,6,,,45,100
70144,note_off,,,,,256,0,15,,,,,7,,,57,100
70144,note_off,,,,,256,0,12,,,,,5,,,57,100
70144,note_off,,,,,256,0,14,,,,,7,,,64,100
70144,note_off,,,,,256,0,10,,,,,3,,,72,100
70144,note_off,,,,,0,0,14,,,,,7,,,72,100
70144,note_off,,,,,256,0,11,,,,,4,,,69,100
70208,note_off,,,,,128,0,9,,,,,2,,,69,100
70272,note_on,,,,,64,0,9,,,,,2,,,81,100
70464,note_on,,,,,0,0,14,,,,,7,,,64,100
70464,note_on,,,,,320,0,15,,,,,7,,,45,100
70464,note_on,,,,,320,0,13,,,,,6,,,33,100
70464,note_on,,,,,320,0,14,,,,,7,,,60,100
70464,note_on,,,,,320,0,12,,,,,5,,,45,100
70464,note_on,,,,,320,0,11,,,,,4,,,64,100
70464,note_on,,,,,320,0,10,,,,,3,,,72,100
70592,note_off,,,,,128,0,15,,,,,7,,,45,100
70592,note_off,,,,,128,0,12,,,,,5,,,45,100
70592,note_off,,,,,0,0,14,,,,,7,,,64,100
70592,note_off,,,,,128,0,14,,,,,7,,,60,100
70592,note_off,,,,,128,0,13,,,,,6,,,33,100
70592,note_off,,,,,128,0,10,,,,,3,,,72,100
70592,note_off,,,,,128,0,11,,,,,4,,,64,100
70656,note_on,,,,,64,0,11,,,,,4,,,65,100
70656,note_on,,,,,64,0,13,,,,,6,,,38,100
70656,note_on,,,,,64,0,14,,,,,7,,,69,100
70656,note_on,,,,,64,0,10,,,,,3,,,71,100
70656,note_on,,,,,64,0,15,,,,,7,,,50,100
70656,note_on,,,,,0,0,14,,,,,7,,,71,100
70656,note_on,,,,,64,0,12,,,,,5,,,50,100
70784,note_off,,,,,128,0,12,,,,,5,,,50,100
70784,note_off,,,,,128,0,15,,,,,7,,,50,100
70784,note_off,,,,,128,0,13,,,,,6,,,38,100
70784,note_off,,,,,0,0,14,,,,,7,,,71,100
70784,note_off,,,,,128,0,14,,,,,7,,,69,100
70848,note_on,,,,,64,0,14,,,,,7,,,62,100
70848,note_on,,,,,64,0,13,,,,,6,,,35,100
70848,note_on,,,,,0,0,14,,,,,7,,,65,100
70848,note_on,,,,,64,0,15,,,,,7,,,47,100
70848,note_on,,,,,64,0,12,,,,,5,,,47,100
70912,note_off,,,,,256,0,11,,,,,4,,,65,100
70960,note_off,,,,,688,0,9,,,,,2,,,81,100
70976,note_off,,,,,128,0,12,,,,,5,,,47,100
70976,note_off,,,,,128,0,15,,,,,7,,,47,100
70976,note_off,,,,,128,0,13,,,,,6,,,35,100
70976,note_off,,,,,0,0,14,,,,,7,,,65,100
70976,note_off,,,,,128,0,14,,,,,7,,,62,100
71040,note_on,,,,,80,0,9,,,,,2,,,80,100
71040,note_on,,,,,64,0,12,,,,,5,,,52,100
71040,note_on,,,,,64,0,15,,,,,7,,,52,100
71040,note_on,,,,,0,0,14,,,,,7,,,71,100
71040,note_on,,,,,64,0,14,,,,,7,,,68,100
71040,note_on,,,,,64,0,13,,,,,6,,,40,100
71040,note_on,,,,,128,0,11,,,,,4,,,64,100
71168,note_off,,,,,0,0,14,,,,,7,,,71,100
71168,note_off,,,,,128,0,14,,,,,7,,,68,100
71168,note_off,,,,,128,0,12,,,,,5,,,52,100
71168,note_off,,,,,128,0,15,,,,,7,,,52,100
71168,note_off,,,,,512,0,10,,,,,3,,,71,100
71168,note_off,,,,,128,0,13,,,,,6,,,40,100
71168,note_off,,,,,128,0,11,,,,,4,,,64,100
71232,note_on,,,,,0,0,14,,,,,7,,,68,100
71232,note_on,,,,,64,0,14,,,,,7,,,59,100
71232,note_on,,,,,64,0,15,,,,,7,,,40,100
71232,note_on,,,,,64,0,11,,,,,4,,,62,100
71232,note_on,,,,,64,0,12,,,,,5,,,40,100
71232,note_on,,,,,64,0,13,,,,,6,,,40,100
71296,note_off,,,,,256,0,9,,,,,2,,,80,100
71360,note_off,,,,,128,0,15,,,,,7,,,40,100
71360,note_off,,,,,128,0,12,,,,,5,,,40,100
71360,note_off,,,,,128,0,14,,,,,7,,,59,100
71360,note_off,,,,,128,0,13,,,,,6,,,40,100
71360,note_off,,,,,0,0,14,,,,,7,,,68,100
71360,note_off,,,,,128,0,11,,,,,4,,,62,100
71424,note_on,,,,,256,0,10,,,,,3,,,69,100
71424,note_on,,,,,64,0,11,,,,,4,,,60,100
71424,note_on,,,,,64,0,13,,,,,6,,,33,100
71424,note_on,,,,,64,0,15,,,,,7,,,45,100
71424,note_on,,,,,64,0,12,,,,,5,,,45,100
71424,note_on,,,,,128,0,9,,,,,2,,,81,100
71424,note_on,,,,,64,0,14,,,,,7,,,69,100
71424,note_on,,,,,0,0,14,,,,,7,,,60,100
71424,note_on,,,,,0,0,14,,,,,7,,,64,100
71540,program_change,,,,,116,0,12,,,,,5,43,,,
71552,note_off,,,,,12,0,12,,,,,5,,,45,100
71616,note_on,,,,,19840,0,8,,,,,1,,,76,100
71616,note_on,,,,,64,0,12,,,,,5,,,61,85
71616,note_on,,,,,5440,0,7,,,,,0,,,81,100
71680,note_off,,,,,0,0,14,,,,,7,,,64,100
71680,note_off,,,,,256,0,11,,,,,4,,,60,100
71680,note_off,,,,,0,0,14,,,,,7,,,60,100
71680,note_off,,,,,256,0,13,,,,,6,,,33,100
71680,note_off,,,,,256,0,15,,,,,7,,,45,100
71680,note_off,,,,,256,0,14,,,,,7,,,69,100
71680,note_off,,,,,256,0,10,,,,,3,,,69,100
71680,note_off,,,,,256,0,9,,,,,2,,,81,100
71744,note_off,,,,,128,0,12,,,,,5,,,61,100
71744,note_off,,,,,128,0,7,,,,,0,,,81,100
71744,note_off,,,,,128,0,8,,,,,1,,,76,100
71808,note_on,,,,,64,0,12,,,,,5,,,61,85
71808,note_on,,,,,64,0,8,,,,,1,,,76,100
71808,note_on,,,,,64,0,7,,,,,0,,,81,100
71936,note_off,,,,,128,0,8,,,,,1,,,76,100
71936,note_off,,,,,128,0,12,,,,,5,,,61,100
71936,note_off,,,,,128,0,7,,,,,0,,,81,100
72000,note_on,,,,,64,0,7,,,,,0,,,79,100
72000,note_on,,,,,64,0,12,,,,,5,,,61,85
72000,note_on,,,,,64,0,8,,,,,1,,,76,100
72128,note_off,,,,,128,0,12,,,,,5,,,61,100
72128,note_off,,,,,128,0,8,,,,,1,,,76,100
72128,note_off,,,,,128,0,7,,,,,0,,,79,100
72192,note_on,,,,,64,0,7,,,,,0,,,78,100
72192,note_on,,,,,64,0,8,,,,,1,,,69,100
72192,note_on,,,,,64,0,12,,,,,5,,,62,85
72256,note_off,,,,,64,0,12,,,,,5,,,62,100
72288,note_on,,,,,32,0,12,,,,,5,,,60,85
72352,note_off,,,,,64,0,12,,,,,5,,,60,100
72384,note_on,,,,,32,0,12,,,,,5,,,62,85
72448,note_off,,,,,64,0,12,,,,,5,,,62,100
72480,note_on,,,,,32,0,12,,,,,5,,,64,85
72544,note_off,,,,,64,0,12,,,,,5,,,64,100
72576,note_off,,,,,384,0,7,,,,,0,,,78,100
72576,note_on,,,,,32,0,12,,,,,5,,,60,85
72576,note_off,,,,,384,0,8,,,,,1,,,69,100
72640,note_off,,,,,64,0,12,,,,,5,,,60,100
72672,note_on,,,,,32,0,12,,,,,5,,,59,85
72736,note_off,,,,,64,0,12,,,,,5,,,59,100
72768,note_on,,,,,32,0,12,,,,,5,,,60,85
72768,note_on,,,,,192,0,7,,,,,0,,,78,100
72768,note_on,,,,,192,0,8,,,,,1,,,69,100
72832,note_off,,,,,64,0,12,,,,,5,,,60,100
72864,note_on,,,,,32,0,12,,,,,5,,,62,85
72896,note_off,,,,,128,0,7,,,,,0,,,78,100
72896,note_off,,,,,128,0,8,,,,,1,,,69,100
72928,note_off,,,,,64,0,12,,,,,5,,,62,100
72960,note_on,,,,,32,0,12,,,,,5,,,59,85
72960,note_on,,,,,64,0,7,,,,,0,,,79,100
72960,note_on,,,,,64,0,8,,,,,1,,,74,100
73024,note_off,,,,,64,0,7,,,,,0,,,79,100
73056,note_on,,,,,32,0,7,,,,,0,,,77,100
73088,note_off,,,,,128,0,8,,,,,1,,,74,100
73120,note_off,,,,,64,0,7,,,,,0,,,77,100
73152,note_on,,,,,32,0,7,,,,,0,,,79,100
73152,note_on,,,,,64,0,8,,,,,1,,,74,100
73216,note_off,,,,,64,0,7,,,,,0,,,79,100
73248,note_on,,,,,32,0,7,,,,,0,,,81,100
73280,note_off,,,,,128,0,8,,,,,1,,,74,100
73312,note_off,,,,,64,0,7,,,,,0,,,81,100
73344,note_on,,,,,32,0,7,,,,,0,,,77,100
73344,note_off,,,,,384,0,12,,,,,5,,,59,100
73344,note_on,,,,,64,0,8,,,,,1,,,74,100
73408,note_off,,,,,64,0,7,,,,,0,,,77,100
73440,note_on,,,,,32,0,7,,,,,0,,,76,100
73472,note_off,,,,,128,0,8,,,,,1,,,74,100
73504,note_off,,,,,64,0,7,,,,,0,,,76,100
73536,note_on,,,,,32,0,7,,,,,0,,,77,100
73536,note_on,,,,,192,0,12,,,,,5,,,59,85
73536,note_on,,,,,64,0,8,,,,,1,,,74,100
73600,note_off,,,,,64,0,7,,,,,0,,,77,100
73632,note_on,,,,,32,0,7,,,,,0,,,79,100
73664,note_off,,,,,128,0,8,,,,,1,,,74,100
73664,note_off,,,,,128,0,12,,,,,5,,,59,100
73696,note_off,,,,,64,0,7,,,,,0,,,79,100
73728,note_on,,,,,64,0,8,,,,,1,,,67,100
73728,note_on,,,,,32,0,7,,,,,0,,,76,100
73728,note_on,,,,,64,0,12,,,,,5,,,60,85
73792,note_off,,,,,64,0,12,,,,,5,,,60,100
73824,note_on,,,,,32,0,12,,,,,5,,,58,85
73888,note_off,,,,,64,0,12,,,,,5,,,58,100
73920,note_on,,,,,32,0,12,,,,,5,,,60,85
73984,note_off,,,,,64,0,12,,,,,5,,,60,100
74016,note_on,,,,,32,0,12,,,,,5,,,62,85
74080,note_off,,,,,64,0,12,,,,,5,,,62,100
74112,note_on,,,,,32,0,12,,,,,5,,,58,85
74112,note_off,,,,,384,0,8,,,,,1,,,67,100
74112,note_off,,,,,384,0,7,,,,,0,,,76,100
74176,note_off,,,,,64,0,12,,,,,5,,,58,100
74208,note_on,,,,,32,0,12,,,,,5,,,57,85
74272,note_off,,,,,64,0,12,,,,,5,,,57,100
74304,note_on,,,,,192,0,7,,,,,0,,,76,100
74304,note_on,,,,,192,0,8,,,,,1,,,67,100
74304,note_on,,,,,32,0,12,,,,,5,,,58,85
74368,note_off,,,,,64,0,12,,,,,5,,,58,100
74400,note_on,,,,,32,0,12,,,,,5,,,60,85
74432,note_off,,,,,128,0,8,,,,,1,,,67,100
74432,note_off,,,,,128,0,7,,,,,0,,,76,100
74464,note_off,,,,,64,0,12,,,,,5,,,60,100
74496,note_on,,,,,32,0,12,,,,,5,,,57,85
74496,note_on,,,,,64,0,7,,,,,0,,,77,100
74496,note_on,,,,,64,0,8,,,,,1,,,72,100
74560,note_off,,,,,64,0,7,,,,,0,,,77,100
74592,note_on,,,,,32,0,7,,,,,0,,,76,100
74624,note_off,,,,,128,0,8,,,,,1,,,72,100
74656,note_off,,,,,64,0,7,,,,,0,,,76,100
74688,note_on,,,,,64,0,8,,,,,1,,,72,100
74688,note_on,,,,,32,0,7,,,,,0,,,77,100
74752,note_off,,,,,64,0,7,,,,,0,,,77,100
74784,note_on,,,,,32,0,7,,,,,0,,,79,100
74816,note_off,,,,,128,0,8,,,,,1,,,72,100
74848,note_off,,,,,64,0,7,,,,,0,,,79,100
74880,note_on,,,,,64,0,8,,,,,1,,,72,100
74880,note_on,,,,,32,0,7,,,,,0,,,77,100
74880,note_off,,,,,384,0,12,,,,,5,,,57,100
74944,note_off,,,,,64,0,7,,,,,0,,,77,100
74976,note_on,,,,,32,0,7,,,,,0,,,79,100
75008,note_off,,,,,128,0,8,,,,,1,,,72,100
75040,note_off,,,,,64,0,7,,,,,0,,,79,100
75072,note_on,,,,,64,0,8,,,,,1,,,72,100
75072,note_on,,,,,192,0,12,,,,,5,,,57,85
75072,note_on,,,,,32,0,7,,,,,0,,,77,100
75136,note_off,,,,,64,0,7,,,,,0,,,77,100
75168,note_on,,,,,32,0,7,,,,,0,,,76,100
75200,note_off,,,,,128,0,8,,,,,1,,,72,100
75200,note_off,,,,,128,0,12,,,,,5,,,57,100
75232,note_off,,,,,64,0,7,,,,,0,,,76,100
75264,note_on,,,,,64,0,8,,,,,1,,,65,100
75264,note_on,,,,,32,0,7,,,,,0,,,74,100
75264,note_on,,,,,64,0,12,,,,,5,,,58,85
75328,note_off,,,,,64,0,12,,,,,5,,,58,100
75360,note_on,,,,,32,0,12,,,,,5,,,57,85
75424,note_off,,,,,64,0,12,,,,,5,,,57,100
75456,note_on,,,,,32,0,12,,,,,5,,,58,85
75520,note_off,,,,,64,0,12,,,,,5,,,58,100
75552,note_on,,,,,32,0,12,,,,,5,,,60,85
75616,note_off,,,,,64,0,12,,,,,5,,,60,100
75648,note_off,,,,,384,0,8,,,,,1,,,65,100
75648,note_on,,,,,32,0,12,,,,,5,,,58,85
75648,note_off,,,,,384,0,7,,,,,0,,,74,100
75712,note_off,,,,,64,0,12,,,,,5,,,58,100
75744,note_on,,,,,32,0,12,,,,,5,,,60,85
75808,note_off,,,,,64,0,12,,,,,5,,,60,100
75840,note_on,,,,,32,0,12,,,,,5,,,58,85
75840,note_on,,,,,192,0,7,,,,,0,,,77,100
75840,note_on,,,,,192,0,8,,,,,1,,,74,100
75904,note_off,,,,,64,0,12,,,,,5,,,58,100
75936,note_on,,,,,32,0,12,,,,,5,,,57,85
75968,note_off,,,,,128,0,8,,,,,1,,,74,100
75968,note_off,,,,,128,0,7,,,,,0,,,77,100
76000,note_off,,,,,64,0,12,,,,,5,,,57,100
76032,note_on,,,,,32,0,12,,,,,5,,,55,85
76032,note_on,,,,,64,0,8,,,,,1,,,74,100
76032,note_on,,,,,64,0,7,,,,,0,,,82,100
76160,note_off,,,,,128,0,8,,,,,1,,,74,100
76160,note_off,,,,,128,0,7,,,,,0,,,82,100
76224,note_on,,,,,64,0,7,,,,,0,,,82,100
76224,note_on,,,,,64,0,8,,,,,1,,,74,100
76352,note_off,,,,,128,0,7,,,,,0,,,82,100
76352,note_off,,,,,128,0,8,,,,,1,,,74,100
76416,note_on,,,,,64,0,8,,,,,1,,,74,100
76416,note_on,,,,,64,0,7,,,,,0,,,82,100
76416,note_off,,,,,384,0,12,,,,,5,,,55,100
76544,note_off,,,,,128,0,8,,,,,1,,,74,100
76544,note_off,,,,,128,0,7,,,,,0,,,82,100
76608,note_on,,,,,192,0,12,,,,,5,,,55,85
76608,note_on,,,,,64,0,8,,,,,1,,,79,100
76608,note_on,,,,,64,0,7,,,,,0,,,82,100
76736,note_off,,,,,128,0,8,,,,,1,,,79,100
76736,note_off,,,,,128,0,7,,,,,0,,,82,100
76736,note_off,,,,,128,0,12,,,,,5,,,55,100
76800,note_on,,,,,64,0,7,,,,,0,,,73,100
76800,note_on,,,,,64,0,12,,,,,5,,,57,85
76800,note_on,,,,,64,0,8,,,,,1,,,76,100
76916,program_change,,,,,116,0,12,,,,,5,48,,,
76928,note_off,,,,,12,0,12,,,,,5,,,57,100
76992,note_on,,,,,5312,0,10,,,,,3,,,76,100
76992,note_on,,,,,0,0,14,,,,,7,,,61,100
76992,note_on,,,,,5312,0,11,,,,,4,,,73,100
76992,note_on,,,,,64,0,12,,,,,5,,,45,100
76992,note_on,,,,,5312,0,15,,,,,7,,,45,100
76992,note_on,,,,,5312,0,14,,,,,7,,,64,100
76992,note_on,,,,,5312,0,9,,,,,2,,,81,100
76992,note_on,,,,,5312,0,13,,,,,6,,,33,100
77056,note_off,,,,,256,0,8,,,,,1,,,76,100
77056,note_off,,,,,256,0,7,,,,,0,,,73,100
77120,note_off,,,,,128,0,13,,,,,6,,,33,100
77120,note_off,,,,,128,0,11,,,,,4,,,73,100
77120,note_off,,,,,0,0,14,,,,,7,,,61,100
77120,note_off,,,,,128,0,15,,,,,7,,,45,100
77120,note_off,,,,,128,0,10,,,,,3,,,76,100
77120,note_off,,,,,128,0,9,,,,,2,,,81,100
77120,note_off,,,,,128,0,14,,,,,7,,,64,100
77120,note_off,,,,,128,0,12,,,,,5,,,45,100
77184,note_on,,,,,0,0,14,,,,,7,,,61,100
77184,note_on,,,,,64,0,14,,,,,7,,,64,100
77184,note_on,,,,,64,0,15,,,,,7,,,45,100
77184,note_on,,,,,64,0,9,,,,,2,,,81,100
77184,note_on,,,,,64,0,10,,,,,3,,,76,100
77184,note_on,,,,,64,0,12,,,,,5,,,45,100
77184,note_on,,,,,64,0,11,,,,,4,,,73,100
77184,note_on,,,,,64,0,13,,,,,6,,,33,100
77312,note_off,,,,,128,0,13,,,,,6,,,33,100
77312,note_off,,,,,128,0,11,,,,,4,,,73,100
77312,note_off,,,,,128,0,15,,,,,7,,,45,100
77312,note_off,,,,,128,0,9,,,,,2,,,81,100
77312,note_off,,,,,128,0,12,,,,,5,,,45,100
77312,note_off,,,,,128,0,14,,,,,7,,,64,100
77312,note_off,,,,,0,0,14,,,,,7,,,61,100
77312,note_off,,,,,128,0,10,,,,,3,,,76,100
77376,note_on,,,,,64,0,15,,,,,7,,,45,100
77376,note_on,,,,,64,0,9,,,,,2,,,79,100
77376,note_on,,,,,64,0,12,,,,,5,,,45,100
77376,note_on,,,,,64,0,11,,,,,4,,,73,100
77376,note_on,,,,,64,0,13,,,,,6,,,33,100
77376,note_on,,,,,64,0,14,,,,,7,,,64,100
77376,note_on,,,,,0,0,14,,,,,7,,,61,100
77376,note_on,,,,,64,0,10,,,,,3,,,76,100
77504,note_off,,,,,128,0,11,,,,,4,,,73,100
77504,note_off,,,,,128,0,9,,,,,2,,,79,100
77504,note_off,,,,,128,0,10,,,,,3,,,76,100
77504,note_off,,,,,0,0,14,,,,,7,,,61,100
77504,note_off,,,,,128,0,15,,,,,7,,,45,100
77504,note_off,,,,,128,0,14,,,,,7,,,64,100
77504,note_off,,,,,128,0,12,,,,,5,,,45,100
77504,note_off,,,,,128,0,13,,,,,6,,,33,100
77568,note_on,,,,,0,0,14,,,,,7,,,65,100
77568,note_on,,,,,64,0,13,,,,,6,,,38,100
77568,note_on,,,,,64,0,11,,,,,4,,,69,100
77568,note_on,,,,,64,0,15,,,,,7,,,50,100
77568,note_on,,,,,64,0,14,,,,,7,,,69,100
77568,note_on,,,,,64,0,10,,,,,3,,,74,100
77568,note_on,,,,,64,0,9,,,,,2,,,77,100
77568,note_on,,,,,64,0,12,,,,,5,,,50,100
77696,note_off,,,,,128,0,9,,,,,2,,,77,100
77696,note_off,,,,,128,0,10,,,,,3,,,74,100
77760,note_on,,,,,64,0,9,,,,,2,,,77,100
77760,note_on,,,,,64,0,10,,,,,3,,,81,100
77824,note_off,,,,,0,0,14,,,,,7,,,65,100
77824,note_off,,,,,256,0,15,,,,,7,,,50,100
77824,note_off,,,,,256,0,14,,,,,7,,,69,100
77824,note_off,,,,,256,0,12,,,,,5,,,50,100
77824,note_off,,,,,256,0,13,,,,,6,,,38,100
77824,note_off,,,,,256,0,11,,,,,4,,,69,100
77888,note_off,,,,,128,0,9,,,,,2,,,77,100
77888,note_off,,,,,128,0,10,,,,,3,,,81,100
77952,note_on,,,,,64,0,9,,,,,2,,,77,100
77952,note_on,,,,,64,0,10,,,,,3,,,81,100
77996,note_off,,,,,44,0,10,,,,,3,,,81,100
77996,note_off,,,,,44,0,9,,,,,2,,,77,100
78000,note_on,,,,,4,0,9,,,,,2,,,79,100
78000,note_on,,,,,4,0,10,,,,,3,,,82,100
78044,note_off,,,,,44,0,10,,,,,3,,,82,100
78044,note_off,,,,,44,0,9,,,,,2,,,79,100
78048,note_on,,,,,4,0,10,,,,,3,,,81,100
78048,note_on,,,,,4,0,9,,,,,2,,,77,100
78112,note_off,,,,,64,0,10,,,,,3,,,81,100
78112,note_off,,,,,64,0,9,,,,,2,,,77,100
78144,note_on,,,,,0,0,14,,,,,7,,,65,100
78144,note_on,,,,,32,0,10,,,,,3,,,79,100
78144,note_on,,,,,320,0,11,,,,,4,,,69,100
78144,note_on,,,,,320,0,15,,,,,7,,,50,100
78144,note_on,,,,,32,0,9,,,,,2,,,76,100
78144,note_on,,,,,320,0,12,,,,,5,,,50,100
78144,note_on,,,,,320,0,13,,,,,6,,,38,100
78144,note_on,,,,,320,0,14,,,,,7,,,69,100
78208,note_off,,,,,64,0,9,,,,,2,,,76,100
78208,note_off,,,,,64,0,10,,,,,3,,,79,100
78240,note_on,,,,,32,0,9,,,,,2,,,74,100
78240,note_on,,,,,32,0,10,,,,,3,,,77,100
78272,note_off,,,,,128,0,14,,,,,7,,,69,100
78272,note_off,,,,,128,0,13,,,,,6,,,38,100
78272,note_off,,,,,128,0,11,,,,,4,,,69,100
78272,note_off,,,,,128,0,12,,,,,5,,,50,100
78272,note_off,,,,,128,0,15,,,,,7,,,50,100
78272,note_off,,,,,0,0,14,,,,,7,,,65,100
78304,note_off,,,,,64,0,9,,,,,2,,,74,100
78304,note_off,,,,,64,0,10,,,,,3,,,77,100
78336,note_on,,,,,64,0,11,,,,,4,,,69,100
78336,note_on,,,,,64,0,14,,,,,7,,,64,100
78336,note_on,,,,,0,0,14,,,,,7,,,61,100
78336,note_on,,,,,64,0,13,,,,,6,,,33,100
78336,note_on,,,,,64,0,15,,,,,7,,,45,100
78336,note_on,,,,,64,0,12,,,,,5,,,45,100
78336,note_on,,,,,32,0,10,,,,,3,,,76,100
78336,note_on,,,,,32,0,9,,,,,2,,,73,100
78452,program_change,,,,,116,0,12,,,,,5,43,,,
78464,note_off,,,,,12,0,12,,,,,5,,,45,100
78528,note_on,,,,,64,0,12,,,,,5,,,57,85
78528,note_on,,,,,1472,0,7,,,,,0,,,81,100
78528,note_on,,,,,1472,0,8,,,,,1,,,76,100
78592,note_off,,,,,256,0,13,,,,,6,,,33,100
78592,note_off,,,,,256,0,10,,,,,3,,,76,100
78592,note_off,,,,,0,0,14,,,,,7,,,61,100
78592,note_off,,,,,256,0,14,,,,,7,,,64,100
78592,note_off,,,,,256,0,11,,,,,4,,,69,100
78592,note_off,,,,,256,0,15,,,,,7,,,45,100
78592,note_off,,,,,256,0,9,,,,,2,,,73,100
78656,note_off,,,,,128,0,7,,,,,0,,,81,100
78656,note_off,,,,,128,0,12,,,,,5,,,57,100
78656,note_off,,,,,128,0,8,,,,,1,,,76,100
78720,note_on,,,,,64,0,7,,,,,0,,,81,100
78720,note_on,,,,,64,0,8,,,,,1,,,76,100
78720,note_on,,,,,64,0,12,,,,,5,,,57,85
78848,note_off,,,,,128,0,12,,,,,5,,,57,100
78848,note_off,,,,,128,0,7,,,,,0,,,81,100
78848,note_off,,,,,128,0,8,,,,,1,,,76,100
78912,note_on,,,,,64,0,7,,,,,0,,,79,100
78912,note_on,,,,,64,0,8,,,,,1,,,76,100
78912,note_on,,,,,64,0,12,,,,,5,,,57,85
79040,note_off,,,,,128,0,7,,,,,0,,,79,100
79040,note_off,,,,,128,0,12,,,,,5,,,57,100
79040,note_off,,,,,128,0,8,,,,,1,,,76,100
79104,note_on,,,,,64,0,7,,,,,0,,,77,100
79104,note_on,,,,,64,0,8,,,,,1,,,74,100
79104,note_on,,,,,64,0,12,,,,,5,,,62,85
79232,note_off,,,,,128,0,7,,,,,0,,,77,100
79232,note_off,,,,,128,0,8,,,,,1,,,74,100
79296,note_on,,,,,64,0,7,,,,,0,,,77,100
79296,note_on,,,,,64,0,8,,,,,1,,,81,100
79360,note_off,,,,,256,0,12,,,,,5,,,62,100
79424,note_off,,,,,128,0,7,,,,,0,,,77,100
79424,note_off,,,,,128,0,8,,,,,1,,,81,100
79488,note_on,,,,,64,0,7,,,,,0,,,77,100
79488,note_on,,,,,64,0,8,,,,,1,,,81,100
79532,note_off,,,,,44,0,8,,,,,1,,,81,100
79532,note_off,,,,,44,0,7,,,,,0,,,77,100
79536,note_on,,,,,4,0,8,,,,,1,,,82,100
79536,note_on,,,,,4,0,7,,,,,0,,,79,100
79580,note_off,,,,,44,0,7,,,,,0,,,79,100
79580,note_off,,,,,44,0,8,,,,,1,,,82,100
79584,note_on,,,,,4,0,7,,,,,0,,,77,100
79584,note_on,,,,,4,0,8,,,,,1,,,81,100
79648,note_off,,,,,64,0,7,,,,,0,,,77,100
79648,note_off,,,,,64,0,8,,,,,1,,,81,100
79680,note_on,,,,,320,0,12,,,,,5,,,50,85
79680,note_on,,,,,32,0,7,,,,,0,,,76,100
79680,note_on,,,,,32,0,8,,,,,1,,,79,100
79744,note_off,,,,,64,0,8,,,,,1,,,79,100
79744,note_off,,,,,64,0,7,,,,,0,,,76,100
79776,note_on,,,,,32,0,7,,,,,0,,,74,100
79776,note_on,,,,,32,0,8,,,,,1,,,77,100
79808,note_off,,,,,128,0,12,,,,,5,,,50,100
79840,note_off,,,,,64,0,8,,,,,1,,,77,100
79840,note_off,,,,,64,0,7,,,,,0,,,74,100
79872,note_on,,,,,64,0,12,,,,,5,,,57,85
79872,note_on,,,,,32,0,7,,,,,0,,,73,100
79872,note_on,,,,,32,0,8,,,,,1,,,76,100
79988,program_change,,,,,116,0,12,,,,,5,48,,,
80000,note_off,,,,,12,0,12,,,,,5,,,57,100
80064,note_on,,,,,1472,0,13,,,,,6,,,33,100
80064,note_on,,,,,64,0,12,,,,,5,,,45,100
80064,note_on,,,,,1472,0,10,,,,,3,,,76,100
80064,note_on,,,,,1472,0,14,,,,,7,,,64,100
80064,note_on,,,,,1472,0,15,,,,,7,,,45,100
80064,note_on,,,,,1472,0,11,,,,,4,,,73,100
80064,note_on,,,,,0,0,14,,,,,7,,,61,100
80064,note_on,,,,,1472,0,9,,,,,2,,,81,100
80128,note_off,,,,,256,0,8,,,,,1,,,76,100
80128,note_off,,,,,256,0,7,,,,,0,,,73,100
80192,note_off,,,,,128,0,12,,,,,5,,,45,100
80192,note_off,,,,,128,0,9,,,,,2,,,81,100
80192,note_off,,,,,128,0,10,,,,,3,,,76,100
80192,note_off,,,,,128,0,15,,,,,7,,,45,100
80192,note_off,,,,,128,0,13,,,,,6,,,33,100
80192,note_off,,,,,128,0,11,,,,,4,,,73,100
80192,note_off,,,,,128,0,14,,,,,7,,,64,100
80192,note_off,,,,,0,0,14,,,,,7,,,61,100
80256,note_on,,,,,64,0,9,,,,,2,,,81,100
80256,note_on,,,,,64,0,14,,,,,7,,,64,100
80256,note_on,,,,,64,0,10,,,,,3,,,76,100
80256,note_on,,,,,64,0,12,,,,,5,,,45,100
80256,note_on,,,,,64,0,11,,,,,4,,,73,100
80256,note_on,,,,,64,0,13,,,,,6,,,33,100
80256,note_on,,,,,0,0,14,,,,,7,,,61,100
80256,note_on,,,,,64,0,15,,,,,7,,,45,100
80384,note_off,,,,,128,0,11,,,,,4,,,73,100
80384,note_off,,,,,0,0,14,,,,,7,,,61,100
80384,note_off,,,,,128,0,9,,,,,2,,,81,100
80384,note_off,,,,,128,0,13,,,,,6,,,33,100
80384,note_off,,,,,128,0,10,,,,,3,,,76,100
80384,note_off,,,,,128,0,14,,,,,7,,,64,100
80384,note_off,,,,,128,0,12,,,,,5,,,45,100
80384,note_off,,,,,128,0,15,,,,,7,,,45,100
80448,note_on,,,,,64,0,15,,,,,7,,,45,100
80448,note_on,,,,,64,0,11,,,,,4,,,73,100
80448,note_on,,,,,64,0,10,,,,,3,,,76,100
80448,note_on,,,,,64,0,14,,,,,7,,,64,100
80448,note_on,,,,,64,0,9,,,,,2,,,79,100
80448,note_on,,,,,64,0,13,,,,,6,,,33,100
80448,note_on,,,,,64,0,12,,,,,5,,,45,100
80448,note_on,,,,,0,0,14,,,,,7,,,61,100
80576,note_off,,,,,128,0,15,,,,,7,,,45,100
80576,note_off,,,,,128,0,9,,,,,2,,,79,100
80576,note_off,,,,,128,0,10,,,,,3,,,76,100
80576,note_off,,,,,128,0,13,,,,,6,,,33,100
80576,note_off,,,,,0,0,14,,,,,7,,,61,100
80576,note_off,,,,,128,0,14,,,,,7,,,64,100
80576,note_off,,,,,128,0,11,,,,,4,,,73,100
80576,note_off,,,,,128,0,12,,,,,5,,,45,100
80640,note_on,,,,,64,0,9,,,,,2,,,77,100
80640,note_on,,,,,64,0,15,,,,,7,,,50,100
80640,note_on,,,,,64,0,11,,,,,4,,,69,100
80640,note_on,,,,,64,0,13,,,,,6,,,38,100
80640,note_on,,,,,0,0,14,,,,,7,,,65,100
80640,note_on,,,,,64,0,14,,,,,7,,,69,100
80640,note_on,,,,,64,0,10,,,,,3,,,74,100
80640,note_on,,,,,64,0,12,,,,,5,,,50,100
80768,note_off,,,,,128,0,9,,,,,2,,,77,100
80768,note_off,,,,,128,0,10,,,,,3,,,74,100
80832,note_on,,,,,64,0,9,,,,,2,,,77,100
80832,note_on,,,,,64,0,10,,,,,3,,,81,100
80896,note_off,,,,,256,0,12,,,,,5,,,50,100
80896,note_off,,,,,256,0,13,,,,,6,,,38,100
80896,note_off,,,,,256,0,11,,,,,4,,,69,100
80896,note_off,,,,,256,0,14,,,,,7,,,69,100
80896,note_off,,,,,0,0,14,,,,,7,,,65,100
80896,note_off,,,,,256,0,15,,,,,7,,,50,100
80960,note_off,,,,,128,0,9,,,,,2,,,77,100
80960,note_off,,,,,128,0,10,,,,,3,,,81,100
81024,note_on,,,,,64,0,9,,,,,2,,,77,100
81024,note_on,,,,,64,0,10,,,,,3,,,81,100
81068,note_off,,,,,44,0,10,,,,,3,,,81,100
81068,note_off,,,,,44,0,9,,,,,2,,,77,100
81072,note_on,,,,,4,0,10,,,,,3,,,82,100
81072,note_on,,,,,4,0,9,,,,,2,,,79,100
81116,note_off,,,,,44,0,9,,,,,2,,,79,100
81116,note_off,,,,,44,0,10,,,,,3,,,82,100
81120,note_on,,,,,4,0,9,,,,,2,,,77,100
81120,note_on,,,,,4,0,10,,,,,3,,,81,100
81184,note_off,,,,,64,0,9,,,,,2,,,77,100
81184,note_off,,,,,64,0,10,,,,,3,,,81,100
81216,note_on,,,,,32,0,10,,,,,3,,,79,100
81216,note_on,,,,,320,0,13,,,,,6,,,38,100
81216,note_on,,,,,320,0,14,,,,,7,,,69,100
81216,note_on,,,,,0,0,14,,,,,7,,,65,100
81216,note_on,,,,,320,0,12,,,,,5,,,50,100
81216,note_on,,,,,320,0,15,,,,,7,,,50,100
81216,note_on,,,,,32,0,9,,,,,2,,,76,100
81216,note_on,,,,,320,0,11,,,,,4,,,69,100
81280,note_off,,,,,64,0,9,,,,,2,,,76,100
81280,note_off,,,,,64,0,10,,,,,3,,,79,100
81312,note_on,,,,,32,0,10,,,,,3,,,77,100
81312,note_on,,,,,32,0,9,,,,,2,,,74,100
81344,note_off,,,,,128,0,13,,,,,6,,,38,100
81344,note_off,,,,,128,0,15,,,,,7,,,50,100
81344,note_off,,,,,128,0,12,,,,,5,,,50,100
81344,note_off,,,,,128,0,14,,,,,7,,,69,100
81344,note_off,,,,,128,0,11,,,,,4,,,69,100
81344,note_off,,,,,0,0,14,,,,,7,,,65,100
81376,note_off,,,,,64,0,9,,,,,2,,,74,100
81376,note_off,,,,,64,0,10,,,,,3,,,77,100
81408,note_on,,,,,64,0,14,,,,,7,,,64,100
81408,note_on,,,,,0,0,14,,,,,7,,,61,100
81408,note_on,,,,,32,0,9,,,,,2,,,73,100
81408,note_on,,,,,64,0,11,,,,,4,,,69,100
81408,note_on,,,,,64,0,12,,,,,5,,,45,100
81408,note_on,,,,,32,0,10,,,,,3,,,76,100
81408,note_on,,,,,64,0,13,,,,,6,,,33,100
81408,note_on,,,,,64,0,15,,,,,7,,,45,100
81600,note_on,,,,,1472,0,8,,,,,1,,,69,85
81664,note_off,,,,,256,0,15,,,,,7,,,45,100
81664,note_off,,,,,256,0,10,,,,,3,,,76,100
81664,note_off,,,,,256,0,12,,,,,5,,,45,100
81664,note_off,,,,,256,0,9,,,,,2,,,73,100
81664,note_off,,,,,256,0,11,,,,,4,,,69,100
81664,note_off,,,,,256,0,13,,,,,6,,,33,100
81664,note_off,,,,,256,0,14,,,,,7,,,64,100
81664,note_off,,,,,0,0,14,,,,,7,,,61,100
81728,note_off,,,,,128,0,8,,,,,1,,,69,100
81792,program_change,,,,,128,0,12,,,,,5,43,,,
81792,note_on,,,,,64,0,8,,,,,1,,,74,86
81984,note_on,,,,,192,0,12,,,,,5,,,50,87
82112,note_off,,,,,128,0,12,,,,,5,,,50,100
82176,note_on,,,,,64,0,12,,,,,5,,,57,88
82176,note_off,,,,,384,0,8,,,,,1,,,74,100
82304,note_off,,,,,128,0,12,,,,,5,,,57,100
82368,note_on,,,,,192,0,8,,,,,1,,,73,90
82368,note_on,,,,,64,0,12,,,,,5,,,45,90
82368,note_on,,,,,2240,0,7,,,,,0,,,69,90
82432,note_off,,,,,64,0,8,,,,,1,,,73,100
82464,note_on,,,,,32,0,8,,,,,1,,,71,90
82496,note_off,,,,,128,0,7,,,,,0,,,69,100
82496,note_off,,,,,128,0,12,,,,,5,,,45,100
82528,note_off,,,,,64,0,8,,,,,1,,,71,100
82560,note_on,,,,,64,0,7,,,,,0,,,76,91
82560,note_on,,,,,32,0,8,,,,,1,,,73,91
82688,note_off,,,,,128,0,8,,,,,1,,,73,100
82752,note_on,,,,,256,0,12,,,,,5,,,61,92
82752,note_on,,,,,64,0,8,,,,,1,,,69,92
82880,note_off,,,,,128,0,8,,,,,1,,,69,100
82880,note_off,,,,,128,0,12,,,,,5,,,61,100
82944,note_on,,,,,64,0,12,,,,,5,,,62,94
82944,note_on,,,,,64,0,8,,,,,1,,,77,94
83072,note_off,,,,,512,0,7,,,,,0,,,76,100
83072,note_off,,,,,128,0,12,,,,,5,,,62,100
83072,note_off,,,,,128,0,8,,,,,1,,,77,100
83136,note_on,,,,,64,0,12,,,,,5,,,50,95
83136,note_on,,,,,64,0,7,,,,,0,,,74,95
83136,note_on,,,,,64,0,8,,,,,1,,,77,95
83200,note_off,,,,,64,0,7,,,,,0,,,74,100
83232,note_on,,,,,32,0,7,,,,,0,,,73,96
83264,note_off,,,,,128,0,8,,,,,1,,,77,100
83264,note_off,,,,,128,0,12,,,,,5,,,50,100
83296,note_off,,,,,64,0,7,,,,,0,,,73,100
83328,note_on,,,,,32,0,7,,,,,0,,,74,96
83328,note_on,,,,,64,0,8,,,,,1,,,77,96
83456,note_off,,,,,128,0,7,,,,,0,,,74,100
83456,note_off,,,,,128,0,8,,,,,1,,,77,100
83520,note_on,,,,,256,0,12,,,,,5,,,62,98
83520,note_on,,,,,64,0,7,,,,,0,,,69,98
83520,note_on,,,,,64,0,8,,,,,1,,,77,98
83648,note_off,,,,,128,0,8,,,,,1,,,77,100
83648,note_off,,,,,128,0,7,,,,,0,,,69,100
83648,note_off,,,,,128,0,12,,,,,5,,,62,100
83712,note_on,,,,,64,0,7,,,,,0,,,79,99
83712,note_on,,,,,64,0,12,,,,,5,,,52,99
83712,note_on,,,,,64,0,8,,,,,1,,,77,99
83756,note_off,,,,,44,0,8,,,,,1,,,77,100
83760,note_on,,,,,4,0,8,,,,,1,,,79,99
83804,note_off,,,,,44,0,8,,,,,1,,,79,100
83808,note_on,,,,,4,0,8,,,,,1,,,77,100
83840,note_off,,,,,128,0,12,,,,,5,,,52,100
83840,note_off,,,,,128,0,7,,,,,0,,,79,100
83872,note_off,,,,,64,0,8,,,,,1,,,77,100
83904,note_on,,,,,64,0,12,,,,,5,,,48,100
83904,note_on,,,,,64,0,7,,,,,0,,,79,100
83904,note_on,,,,,32,0,8,,,,,1,,,76,100
83968,note_off,,,,,64,0,8,,,,,1,,,76,100
84000,note_on,,,,,32,0,8,,,,,1,,,74,101
84032,note_off,,,,,128,0,12,,,,,5,,,48,100
84032,note_off,,,,,128,0,7,,,,,0,,,79,100
84064,note_off,,,,,64,0,8,,,,,1,,,74,100
84096,note_on,,,,,32,0,8,,,,,1,,,76,102
84096,note_on,,,,,64,0,7,,,,,0,,,79,102
84224,note_off,,,,,128,0,7,,,,,0,,,79,100
84224,note_off,,,,,128,0,8,,,,,1,,,76,100
84288,note_on,,,,,256,0,12,,,,,5,,,60,103
84288,note_on,,,,,64,0,7,,,,,0,,,79,103
84288,note_on,,,,,64,0,8,,,,,1,,,69,103
84416,note_off,,,,,128,0,12,,,,,5,,,60,100
84416,note_off,,,,,128,0,7,,,,,0,,,79,100
84416,note_off,,,,,128,0,8,,,,,1,,,69,100
84480,note_on,,,,,64,0,12,,,,,5,,,53,104
84480,note_on,,,,,64,0,7,,,,,0,,,79,104
84480,note_on,,,,,64,0,8,,,,,1,,,81,104
84524,note_off,,,,,44,0,7,,,,,0,,,79,100
84528,note_on,,,,,4,0,7,,,,,0,,,81,105
84572,note_off,,,,,44,0,7,,,,,0,,,81,100
84576,note_on,,,,,4,0,7,,,,,0,,,79,105
84608,note_off,,,,,128,0,8,,,,,1,,,81,100
84608,note_off,,,,,128,0,12,,,,,5,,,53,100
84640,note_off,,,,,64,0,7,,,,,0,,,79,100
84672,note_on,,,,,32,0,7,,,,,0,,,77,106
84672,note_on,,,,,64,0,8,,,,,1,,,81,106
84672,note_on,,,,,64,0,12,,,,,5,,,41,106
84736,note_off,,,,,64,0,7,,,,,0,,,77,100
84768,note_on,,,,,32,0,7,,,,,0,,,76,106
84800,note_off,,,,,128,0,8,,,,,1,,,81,100
84800,note_off,,,,,128,0,12,,,,,5,,,41,100
84832,note_off,,,,,64,0,7,,,,,0,,,76,100
84864,note_on,,,,,32,0,7,,,,,0,,,77,107
84864,note_on,,,,,64,0,8,,,,,1,,,81,107
84992,note_off,,,,,128,0,7,,,,,0,,,77,100
84992,note_off,,,,,128,0,8,,,,,1,,,81,100
85056,note_on,,,,,256,0,12,,,,,5,,,53,108
85056,note_on,,,,,64,0,7,,,,,0,,,69,108
85056,note_on,,,,,64,0,8,,,,,1,,,81,108
85184,note_off,,,,,128,0,12,,,,,5,,,53,100
85184,note_off,,,,,128,0,8,,,,,1,,,81,100
85184,note_off,,,,,128,0,7,,,,,0,,,69,100
85248,note_on,,,,,64,0,7,,,,,0,,,82,110
85248,note_on,,,,,64,0,12,,,,,5,,,55,110
85248,note_on,,,,,64,0,8,,,,,1,,,81,110
85292,note_off,,,,,44,0,8,,,,,1,,,81,100
85296,note_on,,,,,4,0,8,,,,,1,,,82,110
85340,note_off,,,,,44,0,8,,,,,1,,,82,100
85344,note_on,,,,,4,0,8,,,,,1,,,81,109
85376,note_off,,,,,128,0,7,,,,,0,,,82,100
85408,note_off,,,,,64,0,8,,,,,1,,,81,100
85440,note_on,,,,,32,0,8,,,,,1,,,79,107
85440,note_on,,,,,64,0,7,,,,,0,,,82,107
85504,note_off,,,,,64,0,8,,,,,1,,,79,100
85504,note_off,,,,,256,0,12,,,,,5,,,55,100
85536,note_on,,,,,32,0,8,,,,,1,,,77,105
85568,note_off,,,,,128,0,7,,,,,0,,,82,100
85600,note_off,,,,,64,0,8,,,,,1,,,77,100
85632,note_on,,,,,64,0,7,,,,,0,,,82,103
85632,note_on,,,,,32,0,8,,,,,1,,,79,103
85632,note_on,,,,,128,0,12,,,,,5,,,49,103
85760,note_off,,,,,128,0,7,,,,,0,,,82,100
85824,note_on,,,,,64,0,7,,,,,0,,,82,99
85888,note_off,,,,,256,0,12,,,,,5,,,49,100
85952,note_off,,,,,128,0,7,,,,,0,,,82,100
86016,note_on,,,,,128,0,12,,,,,5,,,50,96
86016,note_on,,,,,64,0,7,,,,,0,,,82,96
86144,note_off,,,,,128,0,12,,,,,5,,,50,100
86144,note_off,,,,,512,0,8,,,,,1,,,79,100
86204,note_off,,,,,188,0,7,,,,,0,,,82,100
86208,note_on,,,,,64,0,12,,,,,5,,,62,90
86208,note_on,,,,,4,0,7,,,,,0,,,81,90
86208,note_on,,,,,64,0,8,,,,,1,,,77,90
86336,note_off,,,,,128,0,8,,,,,1,,,77,100
86336,note_off,,,,,128,0,7,,,,,0,,,81,100
86336,note_off,,,,,128,0,12,,,,,5,,,62,100
86400,program_change,,,,,0,0,12,,,,,5,43,,,
86400,note_on,,,,,64,0,7,,,,,0,,,81,90
86400,note_on,,,,,64,0,12,,,,,5,,,62,90
86400,note_on,,,,,64,0,8,,,,,1,,,77,90
86528,note_off,,,,,128,0,12,,,,,5,,,62,100
86588,note_off,,,,,188,0,8,,,,,1,,,77,100
86588,note_off,,,,,188,0,7,,,,,0,,,81,100
86592,note_on,,,,,4,0,8,,,,,1,,,76,91
86592,note_on,,,,,64,0,12,,,,,5,,,62,91
86592,note_on,,,,,4,0,7,,,,,0,,,80,91
86720,note_off,,,,,128,0,12,,,,,5,,,62,100
86720,note_off,,,,,128,0,7,,,,,0,,,80,100
86720,note_off,,,,,128,0,8,,,,,1,,,76,100
86784,note_on,,,,,64,0,7,,,,,0,,,80,92
86784,note_on,,,,,64,0,8,,,,,1,,,76,92
86784,note_on,,,,,64,0,12,,,,,5,,,62,92
86912,note_off,,,,,128,0,12,,,,,5,,,62,100
86972,note_off,,,,,188,0,7,,,,,0,,,80,100
86976,note_on,,,,,64,0,12,,,,,5,,,61,93
86976,note_on,,,,,4,0,7,,,,,0,,,81,93
87104,note_off,,,,,128,0,12,,,,,5,,,61,100
87104,note_off,,,,,128,0,7,,,,,0,,,81,100
87168,note_on,,,,,64,0,12,,,,,5,,,61,94
87168,note_on,,,,,64,0,7,,,,,0,,,81,94
87296,note_off,,,,,128,0,12,,,,,5,,,61,100
87356,note_off,,,,,188,0,7,,,,,0,,,81,100
87356,note_off,,,,,572,0,8,,,,,1,,,76,100
87360,note_on,,,,,64,0,12,,,,,5,,,60,95
87360,note_on,,,,,4,0,7,,,,,0,,,78,95
87360,note_on,,,,,4,0,8,,,,,1,,,74,95
87488,note_off,,,,,128,0,12,,,,,5,,,60,100
87488,note_off,,,,,128,0,7,,,,,0,,,78,100
87488,note_off,,,,,128,0,8,,,,,1,,,74,100
87552,note_on,,,,,64,0,7,,,,,0,,,78,96
87552,note_on,,,,,64,0,8,,,,,1,,,74,96
87552,note_on,,,,,64,0,12,,,,,5,,,60,96
87680,note_off,,,,,128,0,12,,,,,5,,,60,100
87740,note_off,,,,,188,0,7,,,,,0,,,78,100
87744,note_on,,,,,64,0,12,,,,,5,,,59,97
87744,note_on,,,,,4,0,7,,,,,0,,,79,97
87872,note_off,,,,,128,0,7,,,,,0,,,79,100
87872,note_off,,,,,128,0,12,,,,,5,,,59,100
87936,note_on,,,,,64,0,12,,,,,5,,,59,97
87936,note_on,,,,,64,0,7,,,,,0,,,79,97
88064,note_off,,,,,128,0,12,,,,,5,,,59,100
88124,note_off,,,,,572,0,8,,,,,1,,,74,100
88124,note_off,,,,,188,0,7,,,,,0,,,79,100
88128,note_on,,,,,4,0,7,,,,,0,,,76,98
88128,note_on,,,,,4,0,8,,,,,1,,,72,98
88128,note_on,,,,,64,0,12,,,,,5,,,58,98
88256,note_off,,,,,128,0,12,,,,,5,,,58,100
88256,note_off,,,,,128,0,8,,,,,1,,,72,100
88256,note_off,,,,,128,0,7,,,,,0,,,76,100
88320,note_on,,,,,64,0,7,,,,,0,,,76,99
88320,note_on,,,,,64,0,12,,,,,5,,,58,99
88320,note_on,,,,,64,0,8,,,,,1,,,72,99
88508,note_off,,,,,188,0,12,,,,,5,,,58,100
88508,note_off,,,,,188,0,7,,,,,0,,,76,100
88512,note_on,,,,,4,0,7,,,,,0,,,77,100
88512,note_on,,,,,4,0,12,,,,,5,,,57,100
88640,note_off,,,,,128,0,7,,,,,0,,,77,100
88640,note_off,,,,,128,0,12,,,,,5,,,57,100
88704,note_on,,,,,64,0,12,,,,,5,,,57,101
88704,note_on,,,,,64,0,7,,,,,0,,,77,101
88892,note_off,,,,,572,0,8,,,,,1,,,72,100
88892,note_off,,,,,188,0,7,,,,,0,,,77,100
88892,note_off,,,,,188,0,12,,,,,5,,,57,100
88896,note_on,,,,,4,0,7,,,,,0,,,75,102
88896,note_on,,,,,4,0,12,,,,,5,,,55,102
88896,note_on,,,,,4,0,8,,,,,1,,,70,102
89024,note_off,,,,,128,0,12,,,,,5,,,55,100
89024,note_off,,,,,128,0,7,,,,,0,,,75,100
89024,note_off,,,,,128,0,8,,,,,1,,,70,100
89088,note_on,,,,,64,0,7,,,,,0,,,75,103
89088,note_on,,,,,64,0,12,,,,,5,,,55,103
89088,note_on,,,,,64,0,8,,,,,1,,,70,103
89216,note_off,,,,,128,0,8,,,,,1,,,70,100
89276,note_off,,,,,188,0,12,,,,,5,,,55,100
89280,note_on,,,,,64,0,8,,,,,1,,,69,104
89280,note_on,,,,,4,0,12,,,,,5,,,54,104
89344,note_off,,,,,256,0,7,,,,,0,,,75,100
89408,note_off,,,,,128,0,12,,,,,5,,,54,100
89472,note_on,,,,,64,0,12,,,,,5,,,54,105
89472,note_on,,,,,128,0,7,,,,,0,,,74,105
89536,note_off,,,,,256,0,8,,,,,1,,,69,100
89600,note_off,,,,,128,0,12,,,,,5,,,54,100
89664,note_on,,,,,128,0,8,,,,,1,,,69,105
89664,note_on,,,,,64,0,12,,,,,5,,,53,105
89792,note_off,,,,,128,0,12,,,,,5,,,53,100
89792,note_off,,,,,128,0,8,,,,,1,,,69,100
89856,note_on,,,,,64,0,8,,,,,1,,,70,104
89856,note_on,,,,,64,0,12,,,,,5,,,55,104
89984,note_off,,,,,512,0,7,,,,,0,,,74,100
89984,note_off,,,,,128,0,12,,,,,5,,,55,100
89984,note_off,,,,,128,0,8,,,,,1,,,70,100
90048,note_on,,,,,64,0,12,,,,,5,,,55,103
90048,note_on,,,,,64,0,8,,,,,1,,,64,103
90176,note_off,,,,,128,0,12,,,,,5,,,55,100
90240,note_on,,,,,256,0,7,,,,,0,,,73,102
90240,note_on,,,,,64,0,12,,,,,5,,,57,102
90304,note_off,,,,,256,0,8,,,,,1,,,64,100
90368,note_off,,,,,128,0,12,,,,,5,,,57,100
90432,note_on,,,,,128,0,8,,,,,1,,,69,101
90432,note_on,,,,,64,0,12,,,,,5,,,57,101
90496,note_off,,,,,256,0,7,,,,,0,,,73,100
90560,note_off,,,,,128,0,12,,,,,5,,,57,100
90560,note_off,,,,,128,0,8,,,,,1,,,69,100
90620,program_change,,,,,60,0,12,,,,,5,48,,,
90624,note_on,,,,,8960,0,15,,,,,7,,,50,100
90624,note_on,,,,,8960,0,14,,,,,7,,,69,100
90624,note_on,,,,,8960,0,13,,,,,6,,,38,101
90624,note_on,,,,,4,0,12,,,,,5,,,50,101
90624,note_on,,,,,64,0,8,,,,,1,,,65,101
90624,note_on,,,,,128,0,7,,,,,0,,,74,101
90624,note_on,,,,,0,0,14,,,,,7,,,65,100
90688,note_off,,,,,64,0,7,,,,,0,,,74,100
90720,note_on,,,,,32,0,7,,,,,0,,,77,100
90752,note_off,,,,,128,0,13,,,,,6,,,38,100
90752,note_off,,,,,128,0,15,,,,,7,,,50,100
90752,note_off,,,,,0,0,14,,,,,7,,,65,100
90752,note_off,,,,,128,0,14,,,,,7,,,69,100
90752,note_off,,,,,128,0,12,,,,,5,,,50,100
90784,note_off,,,,,64,0,7,,,,,0,,,77,100
90816,note_on,,,,,64,0,13,,,,,6,,,50,100
90816,note_on,,,,,64,0,14,,,,,7,,,77,100
90816,note_on,,,,,0,0,14,,,,,7,,,69,100
90816,note_on,,,,,32,0,7,,,,,0,,,76,100
90816,note_on,,,,,64,0,12,,,,,5,,,62,100
90816,note_on,,,,,64,0,15,,,,,7,,,62,100
90880,note_off,,,,,256,0,8,,,,,1,,,65,100
90880,note_off,,,,,64,0,7,,,,,0,,,76,100
90880,end_of_track,,,,,0,1,8,,,,,,,,,
90912,note_on,,,,,32,0,7,,,,,0,,,74,100
90944,note_off,,,,,128,0,12,,,,,5,,,62,100
90944,note_off,,,,,128,0,15,,,,,7,,,62,100
90944,note_off,,,,,128,0,14,,,,,7,,,77,100
90944,note_off,,,,,128,0,13,,,,,6,,,50,100
90944,note_off,,,,,0,0,14,,,,,7,,,69,100
90976,note_off,,,,,64,0,7,,,,,0,,,74,100
91008,note_on,,,,,32,0,7,,,,,0,,,81,100
91008,note_on,,,,,64,0,12,,,,,5,,,50,100
91008,note_on,,,,,64,0,14,,,,,7,,,65,100
91008,note_on,,,,,0,0,14,,,,,7,,,69,100
91008,note_on,,,,,64,0,13,,,,,6,,,38,100
91008,note_on,,,,,64,0,15,,,,,7,,,50,100
91072,note_off,,,,,64,0,7,,,,,0,,,81,100
91104,note_on,,,,,32,0,7,,,,,0,,,77,100
91168,note_off,,,,,64,0,7,,,,,0,,,77,100
91200,note_on,,,,,32,0,7,,,,,0,,,79,100
91264,note_off,,,,,0,0,14,,,,,7,,,69,100
91264,note_off,,,,,256,0,13,,,,,6,,,38,100
91264,note_off,,,,,256,0,14,,,,,7,,,65,100
91264,note_off,,,,,64,0,7,,,,,0,,,79,100
91264,note_off,,,,,256,0,12,,,,,5,,,50,100
91264,note_off,,,,,256,0,15,,,,,7,,,50,100
91296,note_on,,,,,32,0,7,,,,,0,,,81,100
91360,note_off,,,,,64,0,7,,,,,0,,,81,100
91392,note_on,,,,,32,0,7,,,,,0,,,76,100
91456,note_off,,,,,64,0,7,,,,,0,,,76,100
91488,note_on,,,,,32,0,7,,,,,0,,,81,100
91552,note_off,,,,,64,0,7,,,,,0,,,81,100
91584,note_on,,,,,320,0,13,,,,,6,,,50,100
91584,note_on,,,,,320,0,12,,,,,5,,,62,100
91584,note_on,,,,,32,0,7,,,,,0,,,79,100
91584,note_on,,,,,0,0,14,,,,,7,,,69,100
91584,note_on,,,,,320,0,15,,,,,7,,,62,100
91584,note_on,,,,,320,0,14,,,,,7,,,77,100
91648,note_off,,,,,64,0,7,,,,,0,,,79,100
91680,note_on,,,,,32,0,7,,,,,0,,,81,100
91712,note_off,,,,,128,0,12,,,,,5,,,62,100
91712,note_off,,,,,128,0,15,,,,,7,,,62,100
91712,note_off,,,,,128,0,14,,,,,7,,,77,100
91712,note_off,,,,,128,0,13,,,,,6,,,50,100
91712,note_off,,,,,0,0,14,,,,,7,,,69,100
91744,note_off,,,,,64,0,7,,,,,0,,,81,100
91776,note_on,,,,,64,0,14,,,,,7,,,65,100
91776,note_on,,,,,64,0,13,,,,,6,,,38,100
91776,note_on,,,,,0,0,14,,,,,7,,,69,100
91776,note_on,,,,,64,0,15,,,,,7,,,50,100
91776,note_on,,,,,64,0,12,,,,,5,,,50,100
91776,note_on,,,,,32,0,7,,,,,0,,,77,100
91840,note_off,,,,,64,0,7,,,,,0,,,77,100
91872,note_on,,,,,32,0,7,,,,,0,,,79,100
91936,note_off,,,,,64,0,7,,,,,0,,,79,100
91968,note_on,,,,,32,0,7,,,,,0,,,76,100
92032,note_off,,,,,0,0,14,,,,,7,,,69,100
92032,note_off,,,,,256,0,14,,,,,7,,,65,100
92032,note_off,,,,,256,0,12,,,,,5,,,50,100
92032,note_off,,,,,64,0,7,,,,,0,,,76,100
92032,note_off,,,,,256,0,15,,,,,7,,,50,100
92032,note_off,,,,,256,0,13,,,,,6,,,38,100
92064,note_on,,,,,32,0,7,,,,,0,,,77,100
92128,note_off,,,,,64,0,7,,,,,0,,,77,100
92160,note_on,,,,,32,0,7,,,,,0,,,74,100
92224,note_off,,,,,64,0,7,,,,,0,,,74,100
92256,note_on,,,,,32,0,7,,,,,0,,,81,100
92320,note_off,,,,,64,0,7,,,,,0,,,81,100
92352,note_on,,,,,32,0,7,,,,,0,,,79,100
92352,note_on,,,,,0,0,14,,,,,7,,,69,100
92352,note_on,,,,,320,0,14,,,,,7,,,77,100
92352,note_on,,,,,320,0,12,,,,,5,,,62,100
92352,note_on,,,,,320,0,13,,,,,6,,,50,100
92352,note_on,,,,,320,0,15,,,,,7,,,62,100
92416,note_off,,,,,64,0,7,,,,,0,,,79,100
92448,note_on,,,,,32,0,7,,,,,0,,,81,100
92480,note_off,,,,,128,0,14,,,,,7,,,77,100
92480,note_off,,,,,0,0,14,,,,,7,,,69,100
92480,note_off,,,,,128,0,15,,,,,7,,,62,100
92480,note_off,,,,,128,0,13,,,,,6,,,50,100
92480,note_off,,,,,128,0,12,,,,,5,,,62,100
92512,note_off,,,,,64,0,7,,,,,0,,,81,100
92544,note_on,,,,,64,0,12,,,,,5,,,50,100
92544,note_on,,,,,0,0,14,,,,,7,,,69,100
92544,note_on,,,,,64,0,14,,,,,7,,,65,100
92544,note_on,,,,,64,0,13,,,,,6,,,38,100
92544,note_on,,,,,32,0,7,,,,,0,,,77,100
92544,note_on,,,,,64,0,15,,,,,7,,,50,100
92608,note_off,,,,,64,0,7,,,,,0,,,77,100
92640,note_on,,,,,32,0,7,,,,,0,,,79,100
92704,note_off,,,,,64,0,7,,,,,0,,,79,100
92736,note_on,,,,,32,0,7,,,,,0,,,76,100
92800,note_off,,,,,256,0,14,,,,,7,,,65,100
92800,note_off,,,,,256,0,12,,,,,5,,,50,100
92800,note_off,,,,,256,0,13,,,,,6,,,38,100
92800,note_off,,,,,256,0,15,,,,,7,,,50,100
92800,note_off,,,,,64,0,7,,,,,0,,,76,100
92800,note_off,,,,,0,0,14,,,,,7,,,69,100
92832,note_on,,,,,32,0,7,,,,,0,,,77,100
92896,note_off,,,,,64,0,7,,,,,0,,,77,100
92928,note_on,,,,,32,0,7,,,,,0,,,74,100
92992,note_off,,,,,64,0,7,,,,,0,,,74,100
93024,note_on,,,,,32,0,7,,,,,0,,,82,100
93088,note_off,,,,,64,0,7,,,,,0,,,82,100
93120,note_on,,,,,320,0,15,,,,,7,,,55,100
93120,note_on,,,,,32,0,7,,,,,0,,,81,100
93120,note_on,,,,,0,0,14,,,,,7,,,70,100
93120,note_on,,,,,320,0,14,,,,,7,,,62,100
93120,note_on,,,,,320,0,13,,,,,6,,,43,100
93120,note_on,,,,,320,0,12,,,,,5,,,55,100
93184,note_off,,,,,64,0,7,,,,,0,,,81,100
93216,note_on,,,,,32,0,7,,,,,0,,,82,100
93248,note_off,,,,,128,0,15,,,,,7,,,55,100
93248,note_off,,,,,128,0,13,,,,,6,,,43,100
93248,note_off,,,,,0,0,14,,,,,7,,,70,100
93248,note_off,,,,,128,0,14,,,,,7,,,62,100
93248,note_off,,,,,128,0,12,,,,,5,,,55,100
93280,note_off,,,,,64,0,7,,,,,0,,,82,100
93312,note_on,,,,,0,0,14,,,,,7,,,62,100
93312,note_on,,,,,64,0,14,,,,,7,,,58,100
93312,note_on,,,,,64,0,12,,,,,5,,,43,100
93312,note_on,,,,,32,0,7,,,,,0,,,79,100
93312,note_on,,,,,64,0,15,,,,,7,,,43,100
93312,note_on,,,,,64,0,13,,,,,6,,,43,100
93376,note_off,,,,,64,0,7,,,,,0,,,79,100
93408,note_on,,,,,32,0,7,,,,,0,,,81,100
93472,note_off,,,,,64,0,7,,,,,0,,,81,100
93504,note_on,,,,,32,0,7,,,,,0,,,77,100
93568,note_off,,,,,256,0,15,,,,,7,,,43,100
93568,note_off,,,,,256,0,12,,,,,5,,,43,100
93568,note_off,,,,,256,0,13,,,,,6,,,43,100
93568,note_off,,,,,0,0,14,,,,,7,,,62,100
93568,note_off,,,,,256,0,14,,,,,7,,,58,100
93568,note_off,,,,,64,0,7,,,,,0,,,77,100
93600,note_on,,,,,32,0,7,,,,,0,,,79,100
93664,note_off,,,,,64,0,7,,,,,0,,,79,100
93696,note_on,,,,,32,0,7,,,,,0,,,76,100
93760,note_off,,,,,64,0,7,,,,,0,,,76,100
93792,note_on,,,,,32,0,7,,,,,0,,,79,100
93856,note_off,,,,,64,0,7,,,,,0,,,79,100
93888,note_on,,,,,320,0,12,,,,,5,,,55,100
93888,note_on,,,,,320,0,15,,,,,7,,,55,100
93888,note_on,,,,,0,0,14,,,,,7,,,74,100
93888,note_on,,,,,320,0,13,,,,,6,,,43,100
93888,note_on,,,,,320,0,14,,,,,7,,,64,100
93888,note_on,,,,,32,0,7,,,,,0,,,77,100
93952,note_off,,,,,64,0,7,,,,,0,,,77,100
93984,note_on,,,,,32,0,7,,,,,0,,,79,100
94016,note_off,,,,,128,0,15,,,,,7,,,55,100
94016,note_off,,,,,0,0,14,,,,,7,,,74,100
94016,note_off,,,,,128,0,14,,,,,7,,,64,100
94016,note_off,,,,,128,0,13,,,,,6,,,43,100
94016,note_off,,,,,128,0,12,,,,,5,,,55,100
94048,note_off,,,,,64,0,7,,,,,0,,,79,100
94080,note_on,,,,,64,0,15,,,,,7,,,43,100
94080,note_on,,,,,0,0,14,,,,,7,,,64,100
94080,note_on,,,,,64,0,12,,,,,5,,,43,100
94080,note_on,,,,,32,0,7,,,,,0,,,76,100
94080,note_on,,,,,64,0,13,,,,,6,,,43,100
94080,note_on,,,,,64,0,14,,,,,7,,,62,100
94144,note_off,,,,,64,0,7,,,,,0,,,76,100
94176,note_on,,,,,32,0,7,,,,,0,,,77,100
94240,note_off,,,,,64,0,7,,,,,0,,,77,100
94272,note_on,,,,,32,0,7,,,,,0,,,74,100
94336,note_off,,,,,64,0,7,,,,,0,,,74,100
94336,note_off,,,,,0,0,14,,,,,7,,,64,100
94336,note_off,,,,,256,0,14,,,,,7,,,62,100
94336,note_off,,,,,256,0,12,,,,,5,,,43,100
94336,note_off,,,,,256,0,13,,,,,6,,,43,100
94336,note_off,,,,,256,0,15,,,,,7,,,43,100
94368,note_on,,,,,32,0,7,,,,,0,,,76,100
94432,note_off,,,,,64,0,7,,,,,0,,,76,100
94464,note_on,,,,,32,0,7,,,,,0,,,73,100
94528,note_off,,,,,64,0,7,,,,,0,,,73,100
94560,note_on,,,,,32,0,7,,,,,0,,,76,100
94624,note_off,,,,,64,0,7,,,,,0,,,76,100
94656,note_on,,,,,0,0,14,,,,,7,,,73,100
94656,note_on,,,,,320,0,14,,,,,7,,,64,100
94656,note_on,,,,,320,0,15,,,,,7,,,57,100
94656,note_on,,,,,320,0,12,,,,,5,,,57,100
94656,note_on,,,,,320,0,13,,,,,6,,,45,100
94656,note_on,,,,,32,0,7,,,,,0,,,74,100
94720,note_off,,,,,64,0,7,,,,,0,,,74,100
94752,note_on,,,,,32,0,7,,,,,0,,,76,100
94784,note_off,,,,,128,0,12,,,,,5,,,57,100
94784,note_off,,,,,128,0,14,,,,,7,,,64,100
94784,note_off,,,,,0,0,14,,,,,7,,,73,100
94784,note_off,,,,,128,0,13,,,,,6,,,45,100
94784,note_off,,,,,128,0,15,,,,,7,,,57,100
94816,note_off,,,,,64,0,7,,,,,0,,,76,100
94848,note_on,,,,,64,0,12,,,,,5,,,45,100
94848,note_on,,,,,0,0,14,,,,,7,,,64,100
94848,note_on,,,,,64,0,15,,,,,7,,,45,100
94848,note_on,,,,,64,0,14,,,,,7,,,61,100
94848,note_on,,,,,64,0,13,,,,,6,,,33,100
94848,note_on,,,,,32,0,7,,,,,0,,,73,100
94912,note_off,,,,,64,0,7,,,,,0,,,73,100
94944,note_on,,,,,32,0,7,,,,,0,,,74,100
95008,note_off,,,,,64,0,7,,,,,0,,,74,100
95040,note_on,,,,,32,0,7,,,,,0,,,71,100
95104,note_off,,,,,256,0,15,,,,,7,,,45,100
95104,note_off,,,,,64,0,7,,,,,0,,,71,100
95104,note_off,,,,,0,0,14,,,,,7,,,64,100
95104,note_off,,,,,256,0,14,,,,,7,,,61,100
95104,note_off,,,,,256,0,13,,,,,6,,,33,100
95104,note_off,,,,,256,0,12,,,,,5,,,45,100
95136,note_on,,,,,32,0,7,,,,,0,,,73,100
95200,note_off,,,,,64,0,7,,,,,0,,,73,100
95232,note_on,,,,,32,0,7,,,,,0,,,69,100
95296,note_off,,,,,64,0,7,,,,,0,,,69,100
95328,note_on,,,,,32,0,7,,,,,0,,,73,100
95392,note_off,,,,,64,0,7,,,,,0,,,73,100
95424,note_on,,,,,320,0,13,,,,,6,,,45,100
95424,note_on,,,,,32,0,7,,,,,0,,,71,100
95424,note_on,,,,,320,0,15,,,,,7,,,57,100
95424,note_on,,,,,320,0,12,,,,,5,,,57,100
95424,note_on,,,,,0,0,14,,,,,7,,,73,100
95424,note_on,,,,,320,0,14,,,,,7,,,64,100
95488,note_off,,,,,64,0,7,,,,,0,,,71,100
95520,note_on,,,,,32,0,7,,,,,0,,,73,100
95552,note_off,,,,,0,0,14,,,,,7,,,73,100
95552,note_off,,,,,128,0,13,,,,,6,,,45,100
95552,note_off,,,,,128,0,15,,,,,7,,,57,100
95552,note_off,,,,,128,0,12,,,,,5,,,57,100
95552,note_off,,,,,128,0,14,,,,,7,,,64,100
95584,note_off,,,,,64,0,7,,,,,0,,,73,100
95616,note_on,,,,,0,0,14,,,,,7,,,64,100
95616,note_on,,,,,64,0,13,,,,,6,,,33,100
95616,note_on,,,,,32,0,7,,,,,0,,,69,100
95616,note_on,,,,,64,0,12,,,,,5,,,45,100
95616,note_on,,,,,64,0,15,,,,,7,,,45,100
95616,note_on,,,,,64,0,14,,,,,7,,,61,100
95680,note_off,,,,,64,0,7,,,,,0,,,69,100
95712,note_on,,,,,32,0,7,,,,,0,,,73,100
95776,note_off,,,,,64,0,7,,,,,0,,,73,100
95808,note_on,,,,,32,0,7,,,,,0,,,67,100
95872,note_off,,,,,64,0,7,,,,,0,,,67,100
95872,note_off,,,,,256,0,15,,,,,7,,,45,100
95872,note_off,,,,,0,0,14,,,,,7,,,64,100
95872,note_off,,,,,256,0,14,,,,,7,,,61,100
95872,note_off,,,,,256,0,12,,,,,5,,,45,100
95872,note_off,,,,,256,0,13,,,,,6,,,33,100
95904,note_on,,,,,32,0,7,,,,,0,,,73,100
95968,note_off,,,,,64,0,7,,,,,0,,,73,100
96000,note_on,,,,,32,0,7,,,,,0,,,64,100
96064,note_off,,,,,64,0,7,,,,,0,,,64,100
96096,note_on,,,,,32,0,7,,,,,0,,,67,100
96160,note_off,,,,,64,0,7,,,,,0,,,67,100
96192,note_on,,,,,320,0,12,,,,,5,,,57,100
96192,note_on,,,,,320,0,14,,,,,7,,,64,100
96192,note_on,,,,,0,0,14,,,,,7,,,73,100
96192,note_on,,,,,32,0,7,,,,,0,,,65,100
96192,note_on,,,,,320,0,15,,,,,7,,,57,100
96192,note_on,,,,,320,0,13,,,,,6,,,45,100
96256,note_off,,,,,64,0,7,,,,,0,,,65,100
96288,note_on,,,,,32,0,7,,,,,0,,,67,100
96320,note_off,,,,,128,0,12,,,,,5,,,57,100
96320,note_off,,,,,128,0,13,,,,,6,,,45,100
96320,note_off,,,,,128,0,15,,,,,7,,,57,100
96320,note_off,,,,,128,0,14,,,,,7,,,64,100
96320,note_off,,,,,0,0,14,,,,,7,,,73,100
96352,note_off,,,,,64,0,7,,,,,0,,,67,100
96384,note_on,,,,,64,0,12,,,,,5,,,45,100
96384,note_on,,,,,64,0,13,,,,,6,,,33,100
96384,note_on,,,,,32,0,7,,,,,0,,,64,100
96384,note_on,,,,,64,0,15,,,,,7,,,45,100
96384,note_on,,,,,0,0,14,,,,,7,,,64,100
96384,note_on,,,,,64,0,14,,,,,7,,,61,100
96448,note_off,,,,,64,0,7,,,,,0,,,64,100
96480,note_on,,,,,32,0,7,,,,,0,,,65,100
96544,note_off,,,,,64,0,7,,,,,0,,,65,100
96576,note_on,,,,,32,0,7,,,,,0,,,67,100
96640,note_off,,,,,64,0,7,,,,,0,,,67,100
96640,note_off,,,,,256,0,15,,,,,7,,,45,100
96640,note_off,,,,,256,0,12,,,,,5,,,45,100
96640,note_off,,,,,256,0,13,,,,,6,,,33,100
96640,note_off,,,,,0,0,14,,,,,7,,,64,100
96640,note_off,,,,,256,0,14,,,,,7,,,61,100
96672,note_on,,,,,32,0,7,,,,,0,,,64,100
96736,note_off,,,,,64,0,7,,,,,0,,,64,100
96768,note_on,,,,,32,0,7,,,,,0,,,61,100
96832,note_off,,,,,64,0,7,,,,,0,,,61,100
96864,note_on,,,,,32,0,7,,,,,0,,,64,100
96928,note_off,,,,,64,0,7,,,,,0,,,64,100
96960,note_on,,,,,32,0,7,,,,,0,,,62,100
96960,note_on,,,,,320,0,13,,,,,6,,,45,100
96960,note_on,,,,,0,0,14,,,,,7,,,73,100
96960,note_on,,,,,320,0,15,,,,,7,,,57,100
96960,note_on,,,,,320,0,12,,,,,5,,,57,100
96960,note_on,,,,,320,0,14,,,,,7,,,64,100
97024,note_off,,,,,64,0,7,,,,,0,,,62,100
97056,note_on,,,,,32,0,7,,,,,0,,,64,100
97088,note_off,,,,,128,0,13,,,,,6,,,45,100
97088,note_off,,,,,128,0,14,,,,,7,,,64,100
97088,note_off,,,,,0,0,14,,,,,7,,,73,100
97088,note_off,,,,,128,0,15,,,,,7,,,57,100
97088,note_off,,,,,128,0,12,,,,,5,,,57,100
97120,note_off,,,,,64,0,7,,,,,0,,,64,100
97152,note_on,,,,,64,0,13,,,,,6,,,33,100
97152,note_on,,,,,32,0,7,,,,,0,,,61,100
97152,note_on,,,,,64,0,12,,,,,5,,,45,100
97152,note_on,,,,,0,0,14,,,,,7,,,64,100
97152,note_on,,,,,64,0,14,,,,,7,,,61,100
97152,note_on,,,,,64,0,15,,,,,7,,,45,100
97216,note_off,,,,,64,0,7,,,,,0,,,61,100
97248,note_on,,,,,32,0,7,,,,,0,,,62,100
97312,note_off,,,,,64,0,7,,,,,0,,,62,100
97344,note_on,,,,,32,0,7,,,,,0,,,64,100
97408,note_off,,,,,64,0,7,,,,,0,,,64,100
97408,note_off,,,,,0,0,14,,,,,7,,,64,100
97408,note_off,,,,,256,0,15,,,,,7,,,45,100
97408,note_off,,,,,256,0,12,,,,,5,,,45,100
97408,note_off,,,,,256,0,14,,,,,7,,,61,100
97408,note_off,,,,,256,0,13,,,,,6,,,33,100
97440,note_on,,,,,32,0,7,,,,,0,,,61,100
97504,note_off,,,,,64,0,7,,,,,0,,,61,100
97536,note_on,,,,,32,0,7,,,,,0,,,57,100
97600,note_off,,,,,64,0,7,,,,,0,,,57,100
97632,note_on,,,,,32,0,7,,,,,0,,,59,100
97696,note_off,,,,,64,0,7,,,,,0,,,59,100
97728,note_on,,,,,320,0,13,,,,,6,,,45,100
97728,note_on,,,,,320,0,14,,,,,7,,,64,100
97728,note_on,,,,,0,0,14,,,,,7,,,73,100
97728,note_on,,,,,320,0,12,,,,,5,,,57,100
97728,note_on,,,,,32,0,7,,,,,0,,,61,100
97728,note_on,,,,,320,0,15,,,,,7,,,57,100
97792,note_off,,,,,64,0,7,,,,,0,,,61,100
97824,note_on,,,,,32,0,7,,,,,0,,,57,100
97856,note_off,,,,,128,0,15,,,,,7,,,57,100
97856,note_off,,,,,128,0,12,,,,,5,,,57,100
97856,note_off,,,,,0,0,14,,,,,7,,,73,100
97856,note_off,,,,,128,0,14,,,,,7,,,64,100
97856,note_off,,,,,128,0,13,,,,,6,,,45,100
97888,note_off,,,,,64,0,7,,,,,0,,,57,100
97920,note_on,,,,,64,0,12,,,,,5,,,45,100
97920,note_on,,,,,0,0,14,,,,,7,,,64,100
97920,note_on,,,,,32,0,7,,,,,0,,,64,100
97920,note_on,,,,,64,0,13,,,,,6,,,33,100
97920,note_on,,,,,64,0,14,,,,,7,,,61,100
97920,note_on,,,,,64,0,15,,,,,7,,,45,100
97984,note_off,,,,,64,0,7,,,,,0,,,64,100
98016,note_on,,,,,32,0,7,,,,,0,,,65,100
98080,note_off,,,,,64,0,7,,,,,0,,,65,100
98112,note_on,,,,,32,0,7,,,,,0,,,67,100
98176,note_off,,,,,256,0,13,,,,,6,,,33,100
98176,note_off,,,,,256,0,14,,,,,7,,,61,100
98176,note_off,,,,,0,0,14,,,,,7,,,64,100
98176,note_off,,,,,256,0,12,,,,,5,,,45,100
98176,note_off,,,,,256,0,15,,,,,7,,,45,100
98176,note_off,,,,,64,0,7,,,,,0,,,67,100
98208,note_on,,,,,32,0,7,,,,,0,,,64,100
98272,note_off,,,,,64,0,7,,,,,0,,,64,100
98304,note_on,,,,,32,0,7,,,,,0,,,69,100
98368,note_off,,,,,64,0,7,,,,,0,,,69,100
98400,note_on,,,,,32,0,7,,,,,0,,,71,100
98464,note_off,,,,,64,0,7,,,,,0,,,71,100
98496,note_on,,,,,320,0,12,,,,,5,,,57,100
98496,note_on,,,,,0,0,14,,,,,7,,,73,100
98496,note_on,,,,,320,0,14,,,,,7,,,64,100
98496,note_on,,,,,32,0,7,,,,,0,,,73,100
98496,note_on,,,,,320,0,15,,,,,7,,,57,100
98496,note_on,,,,,320,0,13,,,,,6,,,45,100
98560,note_off,,,,,64,0,7,,,,,0,,,73,100
98592,note_on,,,,,32,0,7,,,,,0,,,69,100
98624,note_off,,,,,0,0,14,,,,,7,,,73,100
98624,note_off,,,,,128,0,15,,,,,7,,,57,100
98624,note_off,,,,,128,0,12,,,,,5,,,57,100
98624,note_off,,,,,128,0,14,,,,,7,,,64,100
98624,note_off,,,,,128,0,13,,,,,6,,,45,100
98656,note_off,,,,,64,0,7,,,,,0,,,69,100
98688,note_on,,,,,64,0,13,,,,,6,,,33,100
98688,note_on,,,,,0,0,14,,,,,7,,,64,100
98688,note_on,,,,,64,0,14,,,,,7,,,61,100
98688,note_on,,,,,64,0,12,,,,,5,,,45,100
98688,note_on,,,,,64,0,15,,,,,7,,,45,100
98688,note_on,,,,,32,0,7,,,,,0,,,76,100
98752,note_off,,,,,64,0,7,,,,,0,,,76,100
98784,note_on,,,,,32,0,7,,,,,0,,,77,100
98848,note_off,,,,,64,0,7,,,,,0,,,77,100
98880,note_on,,,,,32,0,7,,,,,0,,,79,100
98944,note_off,,,,,256,0,12,,,,,5,,,45,100
98944,note_off,,,,,0,0,14,,,,,7,,,64,100
98944,note_off,,,,,64,0,7,,,,,0,,,79,100
98944,note_off,,,,,256,0,14,,,,,7,,,61,100
98944,note_off,,,,,256,0,13,,,,,6,,,33,100
98944,note_off,,,,,256,0,15,,,,,7,,,45,100
98976,note_on,,,,,32,0,7,,,,,0,,,76,100
99040,note_off,,,,,64,0,7,,,,,0,,,76,100
99072,note_on,,,,,32,0,7,,,,,0,,,81,100
99136,note_off,,,,,64,0,7,,,,,0,,,81,100
99168,note_on,,,,,32,0,7,,,,,0,,,83,100
99232,note_off,,,,,64,0,7,,,,,0,,,83,100
99264,note_on,,,,,320,0,13,,,,,6,,,45,100
99264,note_on,,,,,320,0,15,,,,,7,,,57,100
99264,note_on,,,,,0,0,14,,,,,7,,,73,100
99264,note_on,,,,,320,0,12,,,,,5,,,57,100
99264,note_on,,,,,32,0,7,,,,,0,,,85,100
99264,note_on,,,,,320,0,14,,,,,7,,,64,100
99328,note_off,,,,,64,0,7,,,,,0,,,85,100
99360,note_on,,,,,32,0,7,,,,,0,,,83,100
99392,note_off,,,,,0,0,14,,,,,7,,,73,100
99392,note_off,,,,,128,0,15,,,,,7,,,57,100
99392,note_off,,,,,128,0,14,,,,,7,,,64,100
99392,note_off,,,,,128,0,12,,,,,5,,,57,100
99392,note_off,,,,,128,0,13,,,,,6,,,45,100
99424,note_off,,,,,64,0,7,,,,,0,,,83,100
99456,note_on,,,,,64,0,12,,,,,5,,,45,100
99456,note_on,,,,,64,0,13,,,,,6,,,45,100
99456,note_on,,,,,0,0,14,,,,,7,,,64,100
99456,note_on,,,,,64,0,14,,,,,7,,,61,100
99456,note_on,,,,,64,0,15,,,,,7,,,45,100
99456,note_on,,,,,32,0,7,,,,,0,,,81,100
99520,note_off,,,,,64,0,7,,,,,0,,,81,100
99552,note_on,,,,,32,0,7,,,,,0,,,85,100
99584,note_off,,,,,128,0,13,,,,,6,,,45,100
99584,note_off,,,,,128,0,15,,,,,7,,,45,100
99584,note_off,,,,,0,0,14,,,,,7,,,64,100
99584,note_off,,,,,128,0,12,,,,,5,,,45,100
99584,note_off,,,,,128,0,14,,,,,7,,,61,100
99616,note_off,,,,,64,0,7,,,,,0,,,85,100
99648,note_on,,,,,64,0,12,,,,,5,,,43,100
99648,note_on,,,,,64,0,15,,,,,7,,,43,100
99648,note_on,,,,,64,0,13,,,,,6,,,43,100
99648,note_on,,,,,64,0,14,,,,,7,,,59,100
99648,note_on,,,,,32,0,7,,,,,0,,,83,100
99712,note_off,,,,,64,0,7,,,,,0,,,83,100
99744,note_on,,,,,32,0,7,,,,,0,,,81,100
99776,note_off,,,,,128,0,13,,,,,6,,,43,100
99776,note_off,,,,,128,0,14,,,,,7,,,59,100
99776,note_off,,,,,128,0,15,,,,,7,,,43,100
99776,note_off,,,,,128,0,12,,,,,5,,,43,100
99808,note_off,,,,,64,0,7,,,,,0,,,81,100
99840,note_on,,,,,64,0,12,,,,,5,,,41,100
99840,note_on,,,,,64,0,14,,,,,7,,,62,100
99840,note_on,,,,,64,0,13,,,,,6,,,41,100
99840,note_on,,,,,64,0,15,,,,,7,,,41,100
99840,note_on,,,,,32,0,7,,,,,0,,,86,100
99840,note_on,,,,,0,0,14,,,,,7,,,57,100
99904,note_off,,,,,64,0,7,,,,,0,,,86,100
99936,note_on,,,,,32,0,7,,,,,0,,,81,100
99968,note_off,,,,,128,0,12,,,,,5,,,41,100
99968,note_off,,,,,128,0,14,,,,,7,,,62,100
99968,note_off,,,,,0,0,14,,,,,7,,,57,100
99968,note_off,,,,,128,0,15,,,,,7,,,41,100
99968,note_off,,,,,128,0,13,,,,,6,,,41,100
100000,note_off,,,,,64,0,7,,,,,0,,,81,100
100032,note_on,,,,,32,0,7,,,,,0,,,77,100
100032,note_on,,,,,64,0,12,,,,,5,,,62,100
100032,note_on,,,,,64,0,15,,,,,7,,,62,100
100032,note_on,,,,,64,0,13,,,,,6,,,50,100
100032,note_on,,,,,64,0,14,,,,,7,,,65,100
100032,note_on,,,,,0,0,14,,,,,7,,,69,100
100096,note_off,,,,,64,0,7,,,,,0,,,77,100
100128,note_on,,,,,32,0,7,,,,,0,,,81,100
100160,note_off,,,,,0,0,14,,,,,7,,,69,100
100160,note_off,,,,,128,0,14,,,,,7,,,65,100
100160,note_off,,,,,128,0,12,,,,,5,,,62,100
100160,note_off,,,,,128,0,13,,,,,6,,,50,100
100160,note_off,,,,,128,0,15,,,,,7,,,62,100
100192,note_off,,,,,64,0,7,,,,,0,,,81,100
100224,note_on,,,,,64,0,14,,,,,7,,,65,100
100224,note_on,,,,,64,0,15,,,,,7,,,50,100
100224,note_on,,,,,0,0,14,,,,,7,,,69,100
100224,note_on,,,,,64,0,13,,,,,6,,,38,100
100224,note_on,,,,,64,0,12,,,,,5,,,50,100
100224,note_on,,,,,32,0,7,,,,,0,,,86,100
100288,note_off,,,,,64,0,7,,,,,0,,,86,100
100320,note_on,,,,,32,0,7,,,,,0,,,81,100
100384,note_off,,,,,64,0,7,,,,,0,,,81,100
100416,note_on,,,,,32,0,7,,,,,0,,,77,100
100480,note_off,,,,,256,0,14,,,,,7,,,65,100
100480,note_off,,,,,256,0,13,,,,,6,,,38,100
100480,note_off,,,,,64,0,7,,,,,0,,,77,100
100480,note_off,,,,,0,0,14,,,,,7,,,69,100
100480,note_off,,,,,256,0,12,,,,,5,,,50,100
100480,note_off,,,,,256,0,15,,,,,7,,,50,100
100512,note_on,,,,,32,0,7,,,,,0,,,81,100
100576,note_off,,,,,64,0,7,,,,,0,,,81,100
100608,note_on,,,,,32,0,7,,,,,0,,,86,100
100672,note_off,,,,,64,0,7,,,,,0,,,86,100
100704,note_on,,,,,32,0,7,,,,,0,,,81,100
100768,note_off,,,,,64,0,7,,,,,0,,,81,100
100800,note_on,,,,,320,0,14,,,,,7,,,77,100
100800,note_on,,,,,32,0,7,,,,,0,,,77,100
100800,note_on,,,,,0,0,14,,,,,7,,,69,100
100800,note_on,,,,,320,0,12,,,,,5,,,62,100
100800,note_on,,,,,320,0,13,,,,,6,,,50,100
100800,note_on,,,,,320,0,15,,,,,7,,,62,100
100864,note_off,,,,,64,0,7,,,,,0,,,77,100
100896,note_on,,,,,32,0,7,,,,,0,,,81,100
100928,note_off,,,,,128,0,15,,,,,7,,,62,100
100928,note_off,,,,,128,0,12,,,,,5,,,62,100
100928,note_off,,,,,0,0,14,,,,,7,,,69,100
100928,note_off,,,,,128,0,14,,,,,7,,,77,100
100928,note_off,,,,,128,0,13,,,,,6,,,50,100
100960,note_off,,,,,64,0,7,,,,,0,,,81,100
100992,note_on,,,,,64,0,12,,,,,5,,,50,100
100992,note_on,,,,,32,0,7,,,,,0,,,86,100
100992,note_on,,,,,0,0,14,,,,,7,,,69,100
100992,note_on,,,,,64,0,13,,,,,6,,,38,100
100992,note_on,,,,,64,0,15,,,,,7,,,50,100
100992,note_on,,,,,64,0,14,,,,,7,,,65,100
101056,note_off,,,,,64,0,7,,,,,0,,,86,100
101088,note_on,,,,,32,0,7,,,,,0,,,81,100
101152,note_off,,,,,64,0,7,,,,,0,,,81,100
101184,note_on,,,,,32,0,7,,,,,0,,,77,100
101248,note_off,,,,,256,0,14,,,,,7,,,65,100
101248,note_off,,,,,256,0,13,,,,,6,,,38,100
101248,note_off,,,,,256,0,15,,,,,7,,,50,100
101248,note_off,,,,,0,0,14,,,,,7,,,69,100
101248,note_off,,,,,64,0,7,,,,,0,,,77,100
101248,note_off,,,,,256,0,12,,,,,5,,,50,100
101280,note_on,,,,,32,0,7,,,,,0,,,81,100
101344,note_off,,,,,64,0,7,,,,,0,,,81,100
101376,note_on,,,,,32,0,7,,,,,0,,,86,100
101440,note_off,,,,,64,0,7,,,,,0,,,86,100
101472,note_on,,,,,32,0,7,,,,,0,,,81,100
101536,note_off,,,,,64,0,7,,,,,0,,,81,100
101568,note_on,,,,,320,0,12,,,,,5,,,57,100
101568,note_on,,,,,320,0,13,,,,,6,,,45,100
101568,note_on,,,,,32,0,7,,,,,0,,,76,100
101568,note_on,,,,,0,0,14,,,,,7,,,64,100
101568,note_on,,,,,320,0,14,,,,,7,,,74,100
101568,note_on,,,,,320,0,15,,,,,7,,,57,100
101632,note_off,,,,,64,0,7,,,,,0,,,76,100
101664,note_on,,,,,32,0,7,,,,,0,,,81,100
101696,note_off,,,,,128,0,12,,,,,5,,,57,100
101696,note_off,,,,,128,0,13,,,,,6,,,45,100
101696,note_off,,,,,128,0,15,,,,,7,,,57,100
101696,note_off,,,,,0,0,14,,,,,7,,,64,100
101696,note_off,,,,,128,0,14,,,,,7,,,74,100
101728,note_off,,,,,64,0,7,,,,,0,,,81,100
101760,note_on,,,,,0,0,14,,,,,7,,,64,100
101760,note_on,,,,,64,0,13,,,,,6,,,33,100
101760,note_on,,,,,64,0,12,,,,,5,,,45,100
101760,note_on,,,,,64,0,14,,,,,7,,,62,100
101760,note_on,,,,,32,0,7,,,,,0,,,86,100
101760,note_on,,,,,64,0,15,,,,,7,,,45,100
101824,note_off,,,,,64,0,7,,,,,0,,,86,100
101856,note_on,,,,,32,0,7,,,,,0,,,81,100
101920,note_off,,,,,64,0,7,,,,,0,,,81,100
101952,note_on,,,,,32,0,7,,,,,0,,,76,100
102016,note_off,,,,,64,0,7,,,,,0,,,76,100
102016,note_off,,,,,0,0,14,,,,,7,,,64,100
102016,note_off,,,,,256,0,14,,,,,7,,,62,100
102016,note_off,,,,,256,0,15,,,,,7,,,45,100
102016,note_off,,,,,256,0,12,,,,,5,,,45,100
102016,note_off,,,,,256,0,13,,,,,6,,,33,100
102048,note_on,,,,,32,0,7,,,,,0,,,81,100
102112,note_off,,,,,64,0,7,,,,,0,,,81,100
102144,note_on,,,,,32,0,7,,,,,0,,,86,100
102208,note_off,,,,,64,0,7,,,,,0,,,86,100
102240,note_on,,,,,32,0,7,,,,,0,,,81,100
102304,note_off,,,,,64,0,7,,,,,0,,,81,100
102336,note_on,,,,,32,0,7,,,,,0,,,76,100
102336,note_on,,,,,0,0,14,,,,,7,,,64,100
102336,note_on,,,,,320,0,14,,,,,7,,,74,100
102336,note_on,,,,,320,0,15,,,,,7,,,57,100
102336,note_on,,,,,320,0,13,,,,,6,,,45,100
102336,note_on,,,,,320,0,12,,,,,5,,,57,100
102400,note_off,,,,,64,0,7,,,,,0,,,76,100
102432,note_on,,,,,32,0,7,,,,,0,,,81,100
102464,note_off,,,,,128,0,12,,,,,5,,,57,100
102464,note_off,,,,,0,0,14,,,,,7,,,64,100
102464,note_off,,,,,128,0,14,,,,,7,,,74,100
102464,note_off,,,,,128,0,13,,,,,6,,,45,100
102464,note_off,,,,,128,0,15,,,,,7,,,57,100
102496,note_off,,,,,64,0,7,,,,,0,,,81,100
102528,note_on,,,,,0,0,14,,,,,7,,,64,100
102528,note_on,,,,,64,0,14,,,,,7,,,62,100
102528,note_on,,,,,32,0,7,,,,,0,,,86,100
102528,note_on,,,,,64,0,13,,,,,6,,,33,100
102528,note_on,,,,,64,0,15,,,,,7,,,45,100
102528,note_on,,,,,64,0,12,,,,,5,,,45,100
102592,note_off,,,,,64,0,7,,,,,0,,,86,100
102624,note_on,,,,,32,0,7,,,,,0,,,81,100
102688,note_off,,,,,64,0,7,,,,,0,,,81,100
102720,note_on,,,,,32,0,7,,,,,0,,,76,100
102784,note_off,,,,,256,0,15,,,,,7,,,45,100
102784,note_off,,,,,256,0,13,,,,,6,,,33,100
102784,note_off,,,,,64,0,7,,,,,0,,,76,100
102784,note_off,,,,,0,0,14,,,,,7,,,64,100
102784,note_off,,,,,256,0,12,,,,,5,,,45,100
102784,note_off,,,,,256,0,14,,,,,7,,,62,100
102816,note_on,,,,,32,0,7,,,,,0,,,81,100
102880,note_off,,,,,64,0,7,,,,,0,,,81,100
102912,note_on,,,,,32,0,7,,,,,0,,,85,100
102976,note_off,,,,,64,0,7,,,,,0,,,85,100
103008,note_on,,,,,32,0,7,,,,,0,,,81,100
103072,note_off,,,,,64,0,7,,,,,0,,,81,100
103104,note_on,,,,,320,0,14,,,,,7,,,64,100
103104,note_on,,,,,320,0,12,,,,,5,,,57,100
103104,note_on,,,,,0,0,14,,,,,7,,,73,100
103104,note_on,,,,,320,0,13,,,,,6,,,45,100
103104,note_on,,,,,32,0,7,,,,,0,,,76,100
103104,note_on,,,,,320,0,15,,,,,7,,,57,100
103168,note_off,,,,,64,0,7,,,,,0,,,76,100
103200,note_on,,,,,32,0,7,,,,,0,,,81,100
103232,note_off,,,,,0,0,14,,,,,7,,,73,100
103232,note_off,,,,,128,0,14,,,,,7,,,64,100
103232,note_off,,,,,128,0,12,,,,,5,,,57,100
103232,note_off,,,,,128,0,15,,,,,7,,,57,100
103232,note_off,,,,,128,0,13,,,,,6,,,45,100
103264,note_off,,,,,64,0,7,,,,,0,,,81,100
103296,note_on,,,,,64,0,14,,,,,7,,,61,100
103296,note_on,,,,,64,0,15,,,,,7,,,45,100
103296,note_on,,,,,64,0,12,,,,,5,,,45,100
103296,note_on,,,,,0,0,14,,,,,7,,,64,100
103296,note_on,,,,,32,0,7,,,,,0,,,85,100
103296,note_on,,,,,64,0,13,,,,,6,,,33,100
103360,note_off,,,,,64,0,7,,,,,0,,,85,100
103392,note_on,,,,,32,0,7,,,,,0,,,81,100
103456,note_off,,,,,64,0,7,,,,,0,,,81,100
103488,note_on,,,,,32,0,7,,,,,0,,,76,100
103552,note_off,,,,,256,0,13,,,,,6,,,33,100
103552,note_off,,,,,256,0,14,,,,,7,,,61,100
103552,note_off,,,,,0,0,14,,,,,7,,,64,100
103552,note_off,,,,,256,0,12,,,,,5,,,45,100
103552,note_off,,,,,256,0,15,,,,,7,,,45,100
103552,note_off,,,,,64,0,7,,,,,0,,,76,100
103584,note_on,,,,,32,0,7,,,,,0,,,81,100
103648,note_off,,,,,64,0,7,,,,,0,,,81,100
103680,note_on,,,,,32,0,7,,,,,0,,,85,100
103744,note_off,,,,,64,0,7,,,,,0,,,85,100
103776,note_on,,,,,32,0,7,,,,,0,,,81,100
103840,note_off,,,,,64,0,7,,,,,0,,,81,100
103872,note_on,,,,,0,0,14,,,,,7,,,73,100
103872,note_on,,,,,32,0,7,,,,,0,,,76,100
103872,note_on,,,,,320,0,15,,,,,7,,,57,100
103872,note_on,,,,,320,0,14,,,,,7,,,64,100
103872,note_on,,,,,320,0,12,,,,,5,,,57,100
103872,note_on,,,,,320,0,13,,,,,6,,,45,100
103936,note_off,,,,,64,0,7,,,,,0,,,76,100
103968,note_on,,,,,32,0,7,,,,,0,,,81,100
104000,note_off,,,,,128,0,14,,,,,7,,,64,100
104000,note_off,,,,,128,0,12,,,,,5,,,57,100
104000,note_off,,,,,0,0,14,,,,,7,,,73,100
104000,note_off,,,,,128,0,13,,,,,6,,,45,100
104000,note_off,,,,,128,0,15,,,,,7,,,57,100
104032,note_off,,,,,64,0,7,,,,,0,,,81,100
104064,note_on,,,,,64,0,14,,,,,7,,,61,100
104064,note_on,,,,,64,0,13,,,,,6,,,33,100
104064,note_on,,,,,64,0,12,,,,,5,,,45,100
104064,note_on,,,,,0,0,14,,,,,7,,,64,100
104064,note_on,,,,,64,0,15,,,,,7,,,45,100
104064,note_on,,,,,32,0,7,,,,,0,,,85,100
104128,note_off,,,,,64,0,7,,,,,0,,,85,100
104160,note_on,,,,,32,0,7,,,,,0,,,81,100
104224,note_off,,,,,64,0,7,,,,,0,,,81,100
104256,note_on,,,,,32,0,7,,,,,0,,,76,100
104320,note_off,,,,,64,0,7,,,,,0,,,76,100
104320,note_off,,,,,256,0,12,,,,,5,,,45,100
104320,note_off,,,,,256,0,15,,,,,7,,,45,100
104320,note_off,,,,,256,0,13,,,,,6,,,33,100
104320,note_off,,,,,0,0,14,,,,,7,,,64,100
104320,note_off,,,,,256,0,14,,,,,7,,,61,100
104352,note_on,,,,,32,0,7,,,,,0,,,81,100
104416,note_off,,,,,64,0,7,,,,,0,,,81,100
104448,note_on,,,,,32,0,7,,,,,0,,,86,100
104448,note_on,,,,,128,0,14,,,,,7,,,62,100
104448,note_on,,,,,128,0,13,,,,,6,,,38,100
104448,note_on,,,,,128,0,15,,,,,7,,,50,100
104448,note_on,,,,,0,0,14,,,,,7,,,69,100
104448,note_on,,,,,0,0,14,,,,,7,,,65,100
104448,note_on,,,,,128,0,12,,,,,5,,,50,100
104640,note_on,,,,,22976,0,9,,,,,2,,,81,100
104704,note_off,,,,,256,0,12,,,,,5,,,50,100
104704,note_off,,,,,256,0,15,,,,,7,,,50,100
104704,note_off,,,,,0,0,14,,,,,7,,,65,100
104704,note_off,,,,,256,0,13,,,,,6,,,38,100
104704,note_off,,,,,0,0,14,,,,,7,,,69,100
104704,note_off,,,,,256,0,14,,,,,7,,,62,100
104704,note_off,,,,,256,0,7,,,,,0,,,86,100
104768,note_off,,,,,128,0,9,,,,,2,,,81,100
104832,note_on,,,,,128,0,13,,,,,6,,,50,100
104832,note_on,,,,,0,0,14,,,,,7,,,65,100
104832,note_on,,,,,128,0,15,,,,,7,,,62,100
104832,note_on,,,,,23168,0,11,,,,,4,,,65,100
104832,note_on,,,,,128,0,14,,,,,7,,,70,100
104832,note_on,,,,,128,0,12,,,,,5,,,62,100
104832,note_on,,,,,64,0,9,,,,,2,,,82,100
104896,note_off,,,,,64,0,11,,,,,4,,,65,100
104896,note_off,,,,,64,0,13,,,,,6,,,50,100
104896,note_off,,,,,64,0,12,,,,,5,,,62,100
104928,note_on,,,,,32,0,11,,,,,4,,,65,100
104928,note_on,,,,,32,0,13,,,,,6,,,50,100
104928,note_on,,,,,32,0,12,,,,,5,,,62,100
104960,note_off,,,,,128,0,15,,,,,7,,,62,100
104992,note_off,,,,,64,0,13,,,,,6,,,50,100
104992,note_off,,,,,64,0,11,,,,,4,,,65,100
104992,note_off,,,,,64,0,12,,,,,5,,,62,100
105024,note_on,,,,,32,0,13,,,,,6,,,50,100
105024,note_on,,,,,32,0,11,,,,,4,,,65,100
105024,note_on,,,,,64,0,15,,,,,7,,,62,100
105024,note_on,,,,,23360,0,10,,,,,3,,,77,100
105024,note_on,,,,,32,0,12,,,,,5,,,62,100
105088,note_off,,,,,64,0,11,,,,,4,,,65,100
105088,note_off,,,,,64,0,12,,,,,5,,,62,100
105088,note_off,,,,,256,0,14,,,,,7,,,70,100
105088,note_off,,,,,0,0,14,,,,,7,,,65,100
105088,note_off,,,,,64,0,13,,,,,6,,,50,100
105120,note_on,,,,,32,0,12,,,,,5,,,62,100
105120,note_on,,,,,32,0,11,,,,,4,,,65,100
105120,note_on,,,,,32,0,13,,,,,6,,,50,100
105152,note_off,,,,,128,0,15,,,,,7,,,62,100
105152,note_off,,,,,128,0,10,,,,,3,,,77,100
105184,note_off,,,,,64,0,12,,,,,5,,,62,100
105184,note_off,,,,,64,0,11,,,,,4,,,65,100
105184,note_off,,,,,64,0,13,,,,,6,,,50,100
105216,note_on,,,,,32,0,13,,,,,6,,,49,100
105216,note_on,,,,,32,0,12,,,,,5,,,61,100
105216,note_on,,,,,64,0,10,,,,,3,,,76,100
105216,note_on,,,,,32,0,11,,,,,4,,,67,100
105216,note_on,,,,,64,0,15,,,,,7,,,61,100
105216,note_on,,,,,0,0,14,,,,,7,,,70,100
105216,note_on,,,,,128,0,14,,,,,7,,,67,100
105280,note_off,,,,,64,0,12,,,,,5,,,61,100
105280,note_off,,,,,64,0,11,,,,,4,,,67,100
105280,note_off,,,,,64,0,13,,,,,6,,,49,100
105312,note_on,,,,,32,0,13,,,,,6,,,49,100
105312,note_on,,,,,32,0,12,,,,,5,,,61,100
105312,note_on,,,,,32,0,11,,,,,4,,,67,100
105344,note_off,,,,,128,0,15,,,,,7,,,61,100
105376,note_off,,,,,64,0,12,,,,,5,,,61,100
105376,note_off,,,,,64,0,13,,,,,6,,,49,100
105376,note_off,,,,,64,0,11,,,,,4,,,67,100
105408,note_on,,,,,64,0,15,,,,,7,,,61,100
105408,note_on,,,,,32,0,12,,,,,5,,,61,100
105408,note_on,,,,,32,0,13,,,,,6,,,49,100
105408,note_on,,,,,32,0,11,,,,,4,,,67,100
105472,note_off,,,,,64,0,11,,,,,4,,,67,100
105472,note_off,,,,,64,0,12,,,,,5,,,61,100
105472,note_off,,,,,64,0,13,,,,,6,,,49,100
105472,note_off,,,,,0,0,14,,,,,7,,,70,100
105472,note_off,,,,,256,0,14,,,,,7,,,67,100
105504,note_on,,,,,32,0,13,,,,,6,,,49,100
105504,note_on,,,,,32,0,12,,,,,5,,,61,100
105504,note_on,,,,,32,0,11,,,,,4,,,67,100
105520,note_off,,,,,688,0,9,,,,,2,,,82,100
105536,note_off,,,,,128,0,15,,,,,7,,,61,100
105568,note_off,,,,,64,0,12,,,,,5,,,61,100
105568,note_off,,,,,64,0,11,,,,,4,,,67,100
105568,note_off,,,,,64,0,13,,,,,6,,,49,100
105600,note_on,,,,,32,0,13,,,,,6,,,48,100
105600,note_on,,,,,80,0,9,,,,,2,,,81,100
105600,note_on,,,,,0,0,14,,,,,7,,,69,100
105600,note_on,,,,,128,0,14,,,,,7,,,64,100
105600,note_on,,,,,32,0,12,,,,,5,,,60,100
105600,note_on,,,,,32,0,11,,,,,4,,,64,100
105600,note_on,,,,,64,0,15,,,,,7,,,60,100
105664,note_off,,,,,64,0,13,,,,,6,,,48,100
105664,note_off,,,,,64,0,12,,,,,5,,,60,100
105664,note_off,,,,,64,0,11,,,,,4,,,64,100
105696,note_on,,,,,32,0,12,,,,,5,,,60,100
105696,note_on,,,,,32,0,11,,,,,4,,,64,100
105696,note_on,,,,,32,0,13,,,,,6,,,48,100
105728,note_off,,,,,128,0,15,,,,,7,,,60,100
105760,note_off,,,,,64,0,12,,,,,5,,,60,100
105760,note_off,,,,,64,0,11,,,,,4,,,64,100
105760,note_off,,,,,64,0,13,,,,,6,,,48,100
105792,note_on,,,,,64,0,15,,,,,7,,,60,100
105792,note_on,,,,,32,0,13,,,,,6,,,48,100
105792,note_on,,,,,32,0,12,,,,,5,,,60,100
105792,note_on,,,,,32,0,11,,,,,4,,,64,100
105856,note_off,,,,,64,0,12,,,,,5,,,60,100
105856,note_off,,,,,256,0,14,,,,,7,,,64,100
105856,note_off,,,,,64,0,11,,,,,4,,,64,100
105856,note_off,,,,,64,0,13,,,,,6,,,48,100
105856,note_off,,,,,0,0,14,,,,,7,,,69,100
105888,note_on,,,,,32,0,11,,,,,4,,,64,100
105888,note_on,,,,,32,0,13,,,,,6,,,48,100
105888,note_on,,,,,32,0,12,,,,,5,,,60,100
105904,note_off,,,,,688,0,10,,,,,3,,,76,100
105920,note_off,,,,,128,0,15,,,,,7,,,60,100
105952,note_off,,,,,64,0,12,,,,,5,,,60,100
105952,note_off,,,,,64,0,13,,,,,6,,,48,100
105952,note_off,,,,,64,0,11,,,,,4,,,64,100
105984,note_on,,,,,32,0,12,,,,,5,,,59,100
105984,note_on,,,,,32,0,11,,,,,4,,,65,100
105984,note_on,,,,,128,0,14,,,,,7,,,65,100
105984,note_on,,,,,32,0,13,,,,,6,,,47,100
105984,note_on,,,,,0,0,14,,,,,7,,,69,100
105984,note_on,,,,,64,0,15,,,,,7,,,59,100
105984,note_on,,,,,80,0,10,,,,,3,,,74,100
106048,note_off,,,,,64,0,13,,,,,6,,,47,100
106048,note_off,,,,,64,0,11,,,,,4,,,65,100
106048,note_off,,,,,64,0,12,,,,,5,,,59,100
106080,note_on,,,,,32,0,11,,,,,4,,,65,100
106080,note_on,,,,,32,0,13,,,,,6,,,47,100
106080,note_on,,,,,32,0,12,,,,,5,,,59,100
106112,note_off,,,,,128,0,15,,,,,7,,,59,100
106144,note_off,,,,,64,0,11,,,,,4,,,65,100
106144,note_off,,,,,64,0,13,,,,,6,,,47,100
106144,note_off,,,,,64,0,12,,,,,5,,,59,100
106176,note_on,,,,,32,0,11,,,,,4,,,65,99
106176,note_on,,,,,32,0,12,,,,,5,,,59,99
106176,note_on,,,,,64,0,15,,,,,7,,,59,100
106176,note_on,,,,,32,0,13,,,,,6,,,47,99
106240,note_off,,,,,64,0,13,,,,,6,,,47,100
106240,note_off,,,,,0,0,14,,,,,7,,,69,100
106240,note_off,,,,,256,0,14,,,,,7,,,65,100
106240,note_off,,,,,64,0,11,,,,,4,,,65,100
106240,note_off,,,,,64,0,12,,,,,5,,,59,100
106272,note_on,,,,,32,0,12,,,,,5,,,59,99
106272,note_on,,,,,32,0,11,,,,,4,,,65,99
106272,note_on,,,,,32,0,13,,,,,6,,,47,99
106288,note_off,,,,,688,0,9,,,,,2,,,81,100
106304,note_off,,,,,128,0,15,,,,,7,,,59,100
106336,note_off,,,,,64,0,11,,,,,4,,,65,100
106336,note_off,,,,,64,0,13,,,,,6,,,47,100
106336,note_off,,,,,64,0,12,,,,,5,,,59,100
106368,note_on,,,,,64,0,15,,,,,7,,,58,100
106368,note_on,,,,,32,0,13,,,,,6,,,46,98
106368,note_on,,,,,32,0,12,,,,,5,,,58,98
106368,note_on,,,,,80,0,9,,,,,2,,,79,98
106368,note_on,,,,,0,0,14,,,,,7,,,67,100
106368,note_on,,,,,128,0,14,,,,,7,,,62,100
106368,note_on,,,,,32,0,11,,,,,4,,,62,98
106432,note_off,,,,,64,0,11,,,,,4,,,62,100
106432,note_off,,,,,64,0,12,,,,,5,,,58,100
106432,note_off,,,,,64,0,13,,,,,6,,,46,100
106464,note_on,,,,,32,0,12,,,,,5,,,58,97
106464,note_on,,,,,32,0,13,,,,,6,,,46,97
106464,note_on,,,,,32,0,11,,,,,4,,,62,97
106496,note_off,,,,,128,0,15,,,,,7,,,58,100
106528,note_off,,,,,64,0,13,,,,,6,,,46,100
106528,note_off,,,,,64,0,11,,,,,4,,,62,100
106528,note_off,,,,,64,0,12,,,,,5,,,58,100
106560,note_on,,,,,32,0,13,,,,,6,,,46,97
106560,note_on,,,,,32,0,12,,,,,5,,,58,97
106560,note_on,,,,,64,0,15,,,,,7,,,58,100
106560,note_on,,,,,32,0,11,,,,,4,,,62,97
106624,note_off,,,,,0,0,14,,,,,7,,,67,100
106624,note_off,,,,,64,0,11,,,,,4,,,62,100
106624,note_off,,,,,64,0,12,,,,,5,,,58,100
106624,note_off,,,,,256,0,14,,,,,7,,,62,100
106624,note_off,,,,,64,0,13,,,,,6,,,46,100
106656,note_on,,,,,32,0,13,,,,,6,,,46,96
106656,note_on,,,,,32,0,11,,,,,4,,,62,96
106656,note_on,,,,,32,0,12,,,,,5,,,58,96
106672,note_off,,,,,688,0,10,,,,,3,,,74,100
106688,note_off,,,,,128,0,15,,,,,7,,,58,100
106720,note_off,,,,,64,0,11,,,,,4,,,62,100
106720,note_off,,,,,64,0,12,,,,,5,,,58,100
106720,note_off,,,,,64,0,13,,,,,6,,,46,100
106752,note_on,,,,,0,0,14,,,,,7,,,67,100
106752,note_on,,,,,32,0,11,,,,,4,,,64,96
106752,note_on,,,,,32,0,12,,,,,5,,,57,96
106752,note_on,,,,,80,0,10,,,,,3,,,73,96
106752,note_on,,,,,64,0,15,,,,,7,,,57,100
106752,note_on,,,,,128,0,14,,,,,7,,,61,100
106752,note_on,,,,,32,0,13,,,,,6,,,45,96
106816,note_off,,,,,64,0,12,,,,,5,,,57,100
106816,note_off,,,,,64,0,13,,,,,6,,,45,100
106816,note_off,,,,,64,0,11,,,,,4,,,64,100
106848,note_on,,,,,32,0,13,,,,,6,,,45,95
106848,note_on,,,,,32,0,11,,,,,4,,,64,95
106848,note_on,,,,,32,0,12,,,,,5,,,57,95
106880,note_off,,,,,128,0,15,,,,,7,,,57,100
106912,note_off,,,,,64,0,13,,,,,6,,,45,100
106912,note_off,,,,,64,0,12,,,,,5,,,57,100
106912,note_off,,,,,64,0,11,,,,,4,,,64,100
106944,note_on,,,,,32,0,13,,,,,6,,,45,94
106944,note_on,,,,,32,0,12,,,,,5,,,57,94
106944,note_on,,,,,64,0,15,,,,,7,,,57,100
106944,note_on,,,,,32,0,11,,,,,4,,,69,94
107008,note_off,,,,,64,0,12,,,,,5,,,57,100
107008,note_off,,,,,64,0,11,,,,,4,,,69,100
107008,note_off,,,,,64,0,13,,,,,6,,,45,100
107008,note_off,,,,,256,0,14,,,,,7,,,61,100
107008,note_off,,,,,0,0,14,,,,,7,,,67,100
107040,note_on,,,,,32,0,12,,,,,5,,,57,94
107040,note_on,,,,,32,0,13,,,,,6,,,45,94
107040,note_on,,,,,32,0,11,,,,,4,,,69,94
107056,note_off,,,,,688,0,9,,,,,2,,,79,100
107072,note_off,,,,,128,0,15,,,,,7,,,57,100
107096,note_off,,,,,344,0,10,,,,,3,,,73,100
107104,note_off,,,,,64,0,13,,,,,6,,,45,100
107104,note_off,,,,,64,0,12,,,,,5,,,57,100
107104,note_off,,,,,64,0,11,,,,,4,,,69,100
107136,note_on,,,,,32,0,12,,,,,5,,,50,93
107136,note_on,,,,,40,0,10,,,,,3,,,74,93
107136,note_on,,,,,80,0,9,,,,,2,,,77,93
107136,note_on,,,,,32,0,13,,,,,6,,,38,93
107136,note_on,,,,,32,0,11,,,,,4,,,69,93
107136,note_on,,,,,128,0,14,,,,,7,,,69,100
107136,note_on,,,,,0,0,14,,,,,7,,,65,100
107136,note_on,,,,,64,0,15,,,,,7,,,50,100
107200,note_off,,,,,64,0,13,,,,,6,,,38,100
107200,note_off,,,,,64,0,12,,,,,5,,,50,100
107200,note_off,,,,,64,0,11,,,,,4,,,69,100
107232,note_on,,,,,32,0,12,,,,,5,,,50,92
107232,note_on,,,,,32,0,13,,,,,6,,,38,92
107232,note_on,,,,,32,0,11,,,,,4,,,69,92
107264,note_off,,,,,128,0,15,,,,,7,,,50,100
107296,note_off,,,,,64,0,11,,,,,4,,,69,100
107296,note_off,,,,,64,0,12,,,,,5,,,50,100
107296,note_off,,,,,64,0,13,,,,,6,,,38,100
107328,note_on,,,,,64,0,15,,,,,7,,,50,100
107328,note_on,,,,,32,0,11,,,,,4,,,69,92
107328,note_on,,,,,32,0,12,,,,,5,,,50,92
107328,note_on,,,,,32,0,13,,,,,6,,,38,92
107392,note_off,,,,,256,0,14,,,,,7,,,69,100
107392,note_off,,,,,64,0,11,,,,,4,,,69,100
107392,note_off,,,,,64,0,12,,,,,5,,,50,100
107392,note_off,,,,,0,0,14,,,,,7,,,65,100
107392,note_off,,,,,64,0,13,,,,,6,,,38,100
107424,note_on,,,,,32,0,13,,,,,6,,,38,91
107424,note_on,,,,,32,0,12,,,,,5,,,50,91
107424,note_on,,,,,32,0,11,,,,,4,,,69,91
107456,note_off,,,,,128,0,15,,,,,7,,,50,100
107480,note_off,,,,,344,0,9,,,,,2,,,77,100
107488,note_off,,,,,64,0,12,,,,,5,,,50,100
107488,note_off,,,,,64,0,13,,,,,6,,,38,100
107488,note_off,,,,,64,0,11,,,,,4,,,69,100
107520,note_on,,,,,0,0,14,,,,,7,,,62,100
107520,note_on,,,,,128,0,14,,,,,7,,,64,100
107520,note_on,,,,,32,0,12,,,,,5,,,55,91
107520,note_on,,,,,32,0,11,,,,,4,,,70,91
107520,note_on,,,,,40,0,9,,,,,2,,,76,91
107520,note_on,,,,,64,0,15,,,,,7,,,55,100
107520,note_on,,,,,32,0,13,,,,,6,,,43,91
107584,note_off,,,,,64,0,12,,,,,5,,,55,100
107584,note_off,,,,,64,0,11,,,,,4,,,70,100
107584,note_off,,,,,64,0,13,,,,,6,,,43,100
107616,note_on,,,,,32,0,13,,,,,6,,,43,90
107616,note_on,,,,,32,0,12,,,,,5,,,55,90
107616,note_on,,,,,32,0,11,,,,,4,,,70,90
107648,note_off,,,,,128,0,15,,,,,7,,,55,100
107680,note_off,,,,,64,0,13,,,,,6,,,43,100
107680,note_off,,,,,64,0,12,,,,,5,,,55,100
107680,note_off,,,,,64,0,11,,,,,4,,,70,100
107712,note_on,,,,,64,0,15,,,,,7,,,55,100
107712,note_on,,,,,32,0,11,,,,,4,,,70,89
107712,note_on,,,,,32,0,12,,,,,5,,,55,89
107712,note_on,,,,,32,0,13,,,,,6,,,43,89
107776,note_off,,,,,256,0,14,,,,,7,,,64,100
107776,note_off,,,,,0,0,14,,,,,7,,,62,100
107776,note_off,,,,,64,0,11,,,,,4,,,70,100
107776,note_off,,,,,64,0,12,,,,,5,,,55,100
107776,note_off,,,,,64,0,13,,,,,6,,,43,100
107808,note_on,,,,,32,0,13,,,,,6,,,43,89
107808,note_on,,,,,32,0,11,,,,,4,,,70,89
107808,note_on,,,,,32,0,12,,,,,5,,,55,89
107824,note_off,,,,,688,0,10,,,,,3,,,74,100
107840,note_off,,,,,128,0,15,,,,,7,,,55,100
107872,note_off,,,,,64,0,11,,,,,4,,,70,100
107872,note_off,,,,,64,0,12,,,,,5,,,55,100
107872,note_off,,,,,64,0,13,,,,,6,,,43,100
107904,note_on,,,,,0,0,14,,,,,7,,,64,100
107904,note_on,,,,,64,0,15,,,,,7,,,57,100
107904,note_on,,,,,128,0,14,,,,,7,,,61,100
107904,note_on,,,,,80,0,10,,,,,3,,,73,88
107904,note_on,,,,,32,0,13,,,,,6,,,45,88
107904,note_on,,,,,32,0,11,,,,,4,,,69,88
107904,note_on,,,,,32,0,12,,,,,5,,,57,88
107968,note_off,,,,,64,0,11,,,,,4,,,69,100
107968,note_off,,,,,64,0,13,,,,,6,,,45,100
107968,note_off,,,,,64,0,12,,,,,5,,,57,100
108000,note_on,,,,,32,0,11,,,,,4,,,69,87
108000,note_on,,,,,32,0,12,,,,,5,,,57,87
108000,note_on,,,,,32,0,13,,,,,6,,,45,87
108032,note_off,,,,,128,0,15,,,,,7,,,57,100
108064,note_off,,,,,64,0,13,,,,,6,,,45,100
108064,note_off,,,,,64,0,11,,,,,4,,,69,100
108064,note_off,,,,,64,0,12,,,,,5,,,57,100
108096,note_on,,,,,32,0,13,,,,,6,,,45,87
108096,note_on,,,,,32,0,11,,,,,4,,,69,87
108096,note_on,,,,,32,0,12,,,,,5,,,57,87
108096,note_on,,,,,64,0,15,,,,,7,,,57,100
108160,note_off,,,,,0,0,14,,,,,7,,,64,100
108160,note_off,,,,,64,0,11,,,,,4,,,69,100
108160,note_off,,,,,256,0,14,,,,,7,,,61,100
108160,note_off,,,,,64,0,12,,,,,5,,,57,100
108160,note_off,,,,,64,0,13,,,,,6,,,45,100
108192,note_on,,,,,32,0,13,,,,,6,,,45,86
108192,note_on,,,,,32,0,12,,,,,5,,,57,86
108192,note_on,,,,,32,0,11,,,,,4,,,69,86
108208,note_off,,,,,688,0,9,,,,,2,,,76,100
108224,note_off,,,,,128,0,15,,,,,7,,,57,100
108248,note_off,,,,,344,0,10,,,,,3,,,73,100
108256,note_off,,,,,64,0,12,,,,,5,,,57,100
108256,note_off,,,,,64,0,11,,,,,4,,,69,100
108256,note_off,,,,,64,0,13,,,,,6,,,45,100
108288,note_on,,,,,40,0,10,,,,,3,,,74,86
108288,note_on,,,,,32,0,11,,,,,4,,,69,86
108288,note_on,,,,,32,0,12,,,,,5,,,50,86
108288,note_on,,,,,32,0,13,,,,,6,,,38,86
108288,note_on,,,,,64,0,15,,,,,7,,,50,100
108288,note_on,,,,,80,0,9,,,,,2,,,74,86
108288,note_on,,,,,0,0,14,,,,,7,,,65,100
108288,note_on,,,,,128,0,14,,,,,7,,,62,100
108416,note_off,,,,,128,0,9,,,,,2,,,74,100
108480,note_on,,,,,64,0,9,,,,,2,,,69,70
108544,note_off,,,,,256,0,13,,,,,6,,,38,100
108544,note_off,,,,,256,0,10,,,,,3,,,74,100
108544,note_off,,,,,256,0,15,,,,,7,,,50,100
108544,note_off,,,,,0,0,14,,,,,7,,,65,100
108544,note_off,,,,,256,0,11,,,,,4,,,69,100
108544,note_off,,,,,256,0,14,,,,,7,,,62,100
108544,note_off,,,,,256,0,12,,,,,5,,,50,100
108608,note_off,,,,,128,0,9,,,,,2,,,69,100
108672,note_on,,,,,64,0,9,,,,,2,,,70,70
108672,note_on,,,,,128,0,12,,,,,5,,,50,70
108672,note_on,,,,,128,0,11,,,,,4,,,65,70
108672,note_on,,,,,128,0,14,,,,,7,,,58,100
108672,note_on,,,,,128,0,13,,,,,6,,,38,70
108672,note_on,,,,,128,0,15,,,,,7,,,50,100
108672,note_on,,,,,0,0,14,,,,,7,,,65,100
108736,note_off,,,,,64,0,11,,,,,4,,,65,100
108736,note_off,,,,,64,0,12,,,,,5,,,50,100
108736,note_off,,,,,64,0,13,,,,,6,,,38,100
108768,note_on,,,,,32,0,13,,,,,6,,,38,70
108768,note_on,,,,,32,0,12,,,,,5,,,50,70
108768,note_on,,,,,32,0,11,,,,,4,,,65,70
108800,note_off,,,,,128,0,15,,,,,7,,,50,100
108832,note_off,,,,,64,0,11,,,,,4,,,65,100
108832,note_off,,,,,64,0,13,,,,,6,,,38,100
108832,note_off,,,,,64,0,12,,,,,5,,,50,100
108864,note_on,,,,,32,0,11,,,,,4,,,65,70
108864,note_on,,,,,320,0,10,,,,,3,,,65,70
108864,note_on,,,,,32,0,13,,,,,6,,,38,70
108864,note_on,,,,,32,0,12,,,,,5,,,50,70
108864,note_on,,,,,64,0,15,,,,,7,,,50,100
108928,note_off,,,,,64,0,11,,,,,4,,,65,100
108928,note_off,,,,,64,0,12,,,,,5,,,50,100
108928,note_off,,,,,0,0,14,,,,,7,,,65,100
108928,note_off,,,,,256,0,14,,,,,7,,,58,100
108928,note_off,,,,,64,0,13,,,,,6,,,38,100
108960,note_on,,,,,32,0,13,,,,,6,,,38,70
108960,note_on,,,,,32,0,11,,,,,4,,,65,70
108960,note_on,,,,,32,0,12,,,,,5,,,50,70
108992,note_off,,,,,128,0,10,,,,,3,,,65,100
108992,note_off,,,,,128,0,15,,,,,7,,,50,100
109024,note_off,,,,,64,0,13,,,,,6,,,38,100
109024,note_off,,,,,64,0,12,,,,,5,,,50,100
109024,note_off,,,,,64,0,11,,,,,4,,,65,100
109056,set_tempo,,,,,107520,1,0,,500000,,,,,,,
109056,note_on,,,,,32,0,11,,,,,4,,,67,70
109056,note_on,,,,,64,0,10,,,,,3,,,64,70
109056,note_on,,,,,128,0,14,,,,,7,,,58,100
109056,note_on,,,,,32,0,13,,,,,6,,,37,70
109056,note_on,,,,,64,0,15,,,,,7,,,49,100
109056,note_on,,,,,0,0,14,,,,,7,,,67,100
109056,note_on,,,,,32,0,12,,,,,5,,,49,70
109120,note_off,,,,,64,0,13,,,,,6,,,37,100
109120,note_off,,,,,64,0,11,,,,,4,,,67,100
109120,note_off,,,,,64,0,12,,,,,5,,,49,100
109152,note_on,,,,,32,0,13,,,,,6,,,37,70
109152,note_on,,,,,32,0,11,,,,,4,,,67,70
109152,note_on,,,,,32,0,12,,,,,5,,,49,70
109184,note_off,,,,,128,0,15,,,,,7,,,49,100
109216,note_off,,,,,64,0,12,,,,,5,,,49,100
109216,note_off,,,,,64,0,11,,,,,4,,,67,100
109216,note_off,,,,,64,0,13,,,,,6,,,37,100
109248,note_on,,,,,32,0,11,,,,,4,,,67,70
109248,note_on,,,,,64,0,15,,,,,7,,,49,100
109248,note_on,,,,,32,0,13,,,,,6,,,37,70
109248,note_on,,,,,32,0,12,,,,,5,,,49,70
109312,note_off,,,,,64,0,11,,,,,4,,,67,100
109312,note_off,,,,,64,0,12,,,,,5,,,49,100
109312,note_off,,,,,0,0,14,,,,,7,,,67,100
109312,note_off,,,,,256,0,14,,,,,7,,,58,100
109312,note_off,,,,,64,0,13,,,,,6,,,37,100
109344,note_on,,,,,32,0,12,,,,,5,,,49,70
109344,note_on,,,,,32,0,11,,,,,4,,,67,70
109344,note_on,,,,,32,0,13,,,,,6,,,37,70
109360,set_tempo,,,,,304,1,0,,504201,,,,,,,
109360,note_off,,,,,688,0,9,,,,,2,,,70,100
109376,note_off,,,,,128,0,15,,,,,7,,,49,100
109408,note_off,,,,,64,0,12,,,,,5,,,49,100
109408,note_off,,,,,64,0,13,,,,,6,,,37,100
109408,note_off,,,,,64,0,11,,,,,4,,,67,100
109440,note_on,,,,,32,0,11,,,,,4,,,64,70
109440,note_on,,,,,64,0,15,,,,,7,,,48,100
109440,note_on,,,,,80,0,9,,,,,2,,,69,70
109440,note_on,,,,,32,0,13,,,,,6,,,36,70
109440,note_on,,,,,0,0,14,,,,,7,,,64,100
109440,note_on,,,,,128,0,14,,,,,7,,,57,100
109440,note_on,,,,,32,0,12,,,,,5,,,48,70
109504,note_off,,,,,64,0,13,,,,,6,,,36,100
109504,note_off,,,,,64,0,11,,,,,4,,,64,100
109504,note_off,,,,,64,0,12,,,,,5,,,48,100
109536,note_on,,,,,32,0,12,,,,,5,,,48,70
109536,note_on,,,,,32,0,13,,,,,6,,,36,70
109536,note_on,,,,,32,0,11,,,,,4,,,64,70
109568,note_off,,,,,128,0,15,,,,,7,,,48,100
109600,note_off,,,,,64,0,13,,,,,6,,,36,100
109600,note_off,,,,,64,0,11,,,,,4,,,64,100
109600,note_off,,,,,64,0,12,,,,,5,,,48,100
109632,note_on,,,,,32,0,13,,,,,6,,,36,70
109632,note_on,,,,,64,0,15,,,,,7,,,48,100
109632,note_on,,,,,32,0,11,,,,,4,,,64,70
109632,note_on,,,,,32,0,12,,,,,5,,,48,70
109668,set_tempo,,,,,308,1,0,,508474,,,,,,,
109696,note_off,,,,,64,0,11,,,,,4,,,64,100
109696,note_off,,,,,0,0,14,,,,,7,,,64,100
109696,note_off,,,,,256,0,14,,,,,7,,,57,100
109696,note_off,,,,,64,0,13,,,,,6,,,36,100
109696,note_off,,,,,64,0,12,,,,,5,,,48,100
109728,note_on,,,,,32,0,11,,,,,4,,,64,70
109728,note_on,,,,,32,0,13,,,,,6,,,36,70
109728,note_on,,,,,32,0,12,,,,,5,,,48,70
109744,note_off,,,,,688,0,10,,,,,3,,,64,100
109760,note_off,,,,,128,0,15,,,,,7,,,48,100
109792,note_off,,,,,64,0,13,,,,,6,,,36,100
109792,note_off,,,,,64,0,11,,,,,4,,,64,100
109792,note_off,,,,,64,0,12,,,,,5,,,48,100
109824,note_on,,,,,64,0,15,,,,,7,,,47,100
109824,note_on,,,,,32,0,13,,,,,6,,,35,70
109824,note_on,,,,,0,0,14,,,,,7,,,65,100
109824,note_on,,,,,80,0,10,,,,,3,,,62,70
109824,note_on,,,,,128,0,14,,,,,7,,,57,100
109824,note_on,,,,,32,0,11,,,,,4,,,65,70
109824,note_on,,,,,32,0,12,,,,,5,,,47,70
109888,note_off,,,,,64,0,13,,,,,6,,,35,100
109888,note_off,,,,,64,0,12,,,,,5,,,47,100
109888,note_off,,,,,64,0,11,,,,,4,,,65,100
109920,note_on,,,,,32,0,11,,,,,4,,,65,70
109920,note_on,,,,,32,0,13,,,,,6,,,35,70
109920,note_on,,,,,32,0,12,,,,,5,,,47,70
109952,note_off,,,,,128,0,15,,,,,7,,,47,100
109976,set_tempo,,,,,308,1,0,,512820,,,,,,,
109984,note_off,,,,,64,0,12,,,,,5,,,47,100
109984,note_off,,,,,64,0,11,,,,,4,,,65,100
109984,note_off,,,,,64,0,13,,,,,6,,,35,100
110016,note_on,,,,,32,0,11,,,,,4,,,65,70
110016,note_on,,,,,32,0,13,,,,,6,,,35,70
110016,note_on,,,,,32,0,12,,,,,5,,,47,70
110016,note_on,,,,,64,0,15,,,,,7,,,47,100
110080,note_off,,,,,64,0,11,,,,,4,,,65,100
110080,note_off,,,,,64,0,12,,,,,5,,,47,100
110080,note_off,,,,,0,0,14,,,,,7,,,65,100
110080,note_off,,,,,256,0,14,,,,,7,,,57,100
110080,note_off,,,,,64,0,13,,,,,6,,,35,100
110112,note_on,,,,,32,0,11,,,,,4,,,65,70
110112,note_on,,,,,32,0,13,,,,,6,,,35,70
110112,note_on,,,,,32,0,12,,,,,5,,,47,70
110128,note_off,,,,,688,0,9,,,,,2,,,69,100
110144,note_off,,,,,128,0,15,,,,,7,,,47,100
110176,note_off,,,,,64,0,11,,,,,4,,,65,100
110176,note_off,,,,,64,0,12,,,,,5,,,47,100
110176,note_off,,,,,64,0,13,,,,,6,,,35,100
110208,note_on,,,,,32,0,13,,,,,6,,,34,70
110208,note_on,,,,,0,0,14,,,,,7,,,62,100
110208,note_on,,,,,128,0,14,,,,,7,,,55,100
110208,note_on,,,,,80,0,9,,,,,2,,,67,70
110208,note_on,,,,,64,0,15,,,,,7,,,46,100
110208,note_on,,,,,32,0,11,,,,,4,,,62,70
110208,note_on,,,,,32,0,12,,,,,5,,,46,70
110272,note_off,,,,,64,0,12,,,,,5,,,46,100
110272,note_off,,,,,64,0,13,,,,,6,,,34,100
110272,note_off,,,,,64,0,11,,,,,4,,,62,100
110284,set_tempo,,,,,308,1,0,,517241,,,,,,,
110304,note_on,,,,,32,0,12,,,,,5,,,46,70
110304,note_on,,,,,32,0,13,,,,,6,,,34,70
110304,note_on,,,,,32,0,11,,,,,4,,,62,70
110336,note_off,,,,,128,0,15,,,,,7,,,46,100
110368,note_off,,,,,64,0,11,,,,,4,,,62,100
110368,note_off,,,,,64,0,13,,,,,6,,,34,100
110368,note_off,,,,,64,0,12,,,,,5,,,46,100
110400,note_on,,,,,32,0,11,,,,,4,,,62,70
110400,note_on,,,,,64,0,15,,,,,7,,,46,100
110400,note_on,,,,,32,0,12,,,,,5,,,46,70
110400,note_on,,,,,32,0,13,,,,,6,,,34,70
110464,note_off,,,,,64,0,11,,,,,4,,,62,100
110464,note_off,,,,,0,0,14,,,,,7,,,62,100
110464,note_off,,,,,256,0,14,,,,,7,,,55,100
110464,note_off,,,,,64,0,12,,,,,5,,,46,100
110464,note_off,,,,,64,0,13,,,,,6,,,34,100
110496,note_on,,,,,32,0,12,,,,,5,,,46,70
110496,note_on,,,,,32,0,13,,,,,6,,,34,70
110496,note_on,,,,,32,0,11,,,,,4,,,62,70
110512,note_off,,,,,688,0,10,,,,,3,,,62,100
110528,note_off,,,,,128,0,15,,,,,7,,,46,100
110560,note_off,,,,,64,0,13,,,,,6,,,34,100
110560,note_off,,,,,64,0,12,,,,,5,,,46,100
110560,note_off,,,,,64,0,11,,,,,4,,,62,100
110592,note_on,,,,,128,0,14,,,,,7,,,55,100
110592,note_on,,,,,0,0,14,,,,,7,,,61,100
110592,note_on,,,,,80,0,10,,,,,3,,,61,70
110592,set_tempo,,,,,308,1,0,,789473,,,,,,,
110592,note_on,,,,,32,0,11,,,,,4,,,64,70
110592,note_on,,,,,32,0,12,,,,,5,,,45,70
110592,note_on,,,,,32,0,13,,,,,6,,,33,70
110592,note_on,,,,,64,0,15,,,,,7,,,45,100
110656,note_off,,,,,64,0,12,,,,,5,,,45,100
110656,note_off,,,,,64,0,13,,,,,6,,,33,100
110656,note_off,,,,,64,0,11,,,,,4,,,64,100
110668,set_tempo,,,,,76,1,0,,576923,,,,,,,
110688,note_on,,,,,32,0,12,,,,,5,,,45,70
110688,note_on,,,,,32,0,13,,,,,6,,,33,70
110688,note_on,,,,,32,0,11,,,,,4,,,64,70
110720,note_off,,,,,128,0,15,,,,,7,,,45,100
110744,set_tempo,,,,,76,1,0,,582524,,,,,,,
110752,note_off,,,,,64,0,11,,,,,4,,,64,100
110752,note_off,,,,,64,0,13,,,,,6,,,33,100
110752,note_off,,,,,64,0,12,,,,,5,,,45,100
110784,note_on,,,,,32,0,12,,,,,5,,,45,70
110784,note_on,,,,,64,0,15,,,,,7,,,45,100
110784,note_on,,,,,32,0,13,,,,,6,,,33,70
110784,note_on,,,,,32,0,11,,,,,4,,,57,70
110820,set_tempo,,,,,76,1,0,,588235,,,,,,,
110848,note_off,,,,,64,0,11,,,,,4,,,57,100
110848,note_off,,,,,64,0,13,,,,,6,,,33,100
110848,note_off,,,,,64,0,12,,,,,5,,,45,100
110848,note_off,,,,,256,0,14,,,,,7,,,55,100
110848,note_off,,,,,0,0,14,,,,,7,,,61,100
110880,note_on,,,,,32,0,13,,,,,6,,,33,70
110880,note_on,,,,,32,0,11,,,,,4,,,57,70
110880,note_on,,,,,32,0,12,,,,,5,,,45,70
110896,set_tempo,,,,,76,1,0,,594059,,,,,,,
110896,note_off,,,,,688,0,9,,,,,2,,,67,100
110912,note_off,,,,,128,0,15,,,,,7,,,45,100
110936,note_off,,,,,344,0,10,,,,,3,,,61,100
110944,note_off,,,,,64,0,11,,,,,4,,,57,100
110944,note_off,,,,,64,0,12,,,,,5,,,45,100
110944,note_off,,,,,64,0,13,,,,,6,,,33,100
110976,note_on,,,,,64,0,15,,,,,7,,,38,100
110976,note_on,,,,,32,0,13,,,,,6,,,38,110
110976,note_on,,,,,32,0,12,,,,,5,,,38,110
110976,note_on,,,,,32,0,11,,,,,4,,,57,110
110976,set_tempo,,,,,80,1,0,,600000,,,,,,,
110976,note_on,,,,,128,0,14,,,,,7,,,62,100
110976,note_on,,,,,0,0,14,,,,,7,,,65,100
110976,note_on,,,,,40,0,10,,,,,3,,,62,110
110976,note_on,,,,,80,0,9,,,,,2,,,65,110
111012,set_tempo,,,,,36,1,0,,606060,,,,,,,
111040,note_off,,,,,64,0,12,,,,,5,,,38,100
111040,note_off,,,,,64,0,11,,,,,4,,,57,100
111040,note_off,,,,,64,0,13,,,,,6,,,38,100
111052,set_tempo,,,,,40,1,0,,612244,,,,,,,
111072,note_on,,,,,32,0,11,,,,,4,,,57,110
111072,note_on,,,,,32,0,12,,,,,5,,,38,110
111072,note_on,,,,,32,0,13,,,,,6,,,38,110
111088,set_tempo,,,,,36,1,0,,618556,,,,,,,
111104,note_off,,,,,128,0,15,,,,,7,,,38,100
111128,set_tempo,,,,,40,1,0,,625000,,,,,,,
111136,note_off,,,,,64,0,11,,,,,4,,,57,100
111136,note_off,,,,,64,0,12,,,,,5,,,38,100
111136,note_off,,,,,64,0,13,,,,,6,,,38,100
111168,note_on,,,,,32,0,11,,,,,4,,,57,110
111168,set_tempo,,,,,40,1,0,,631578,,,,,,,
111168,note_on,,,,,32,0,13,,,,,6,,,38,110
111168,note_on,,,,,64,0,15,,,,,7,,,38,100
111168,note_on,,,,,32,0,12,,,,,5,,,38,110
111204,set_tempo,,,,,36,1,0,,638297,,,,,,,
111232,note_off,,,,,64,0,11,,,,,4,,,57,100
111232,note_off,,,,,64,0,13,,,,,6,,,38,100
111232,note_off,,,,,64,0,12,,,,,5,,,38,100
111232,note_off,,,,,256,0,14,,,,,7,,,62,100
111232,note_off,,,,,0,0,14,,,,,7,,,65,100
111244,set_tempo,,,,,40,1,0,,645161,,,,,,,
111264,note_on,,,,,32,0,12,,,,,5,,,38,110
111264,note_on,,,,,32,0,11,,,,,4,,,57,110
111264,note_on,,,,,32,0,13,,,,,6,,,38,110
111280,set_tempo,,,,,36,1,0,,652173,,,,,,,
111296,note_off,,,,,128,0,15,,,,,7,,,38,100
111320,set_tempo,,,,,40,1,0,,659340,,,,,,,
111320,note_off,,,,,344,0,9,,,,,2,,,65,100
111328,note_off,,,,,64,0,12,,,,,5,,,38,100
111328,note_off,,,,,64,0,11,,,,,4,,,57,100
111328,note_off,,,,,64,0,13,,,,,6,,,38,100
111360,note_on,,,,,0,0,14,,,,,7,,,62,100
111360,note_on,,,,,128,0,14,,,,,7,,,64,100
111360,note_on,,,,,64,0,15,,,,,7,,,43,100
111360,note_on,,,,,40,0,9,,,,,2,,,64,110
111360,note_on,,,,,32,0,12,,,,,5,,,43,110
111360,note_on,,,,,32,0,11,,,,,4,,,58,110
111360,note_on,,,,,32,0,13,,,,,6,,,43,110
111360,set_tempo,,,,,40,1,0,,666666,,,,,,,
111384,set_tempo,,,,,24,1,0,,674157,,,,,,,
111408,set_tempo,,,,,24,1,0,,681818,,,,,,,
111424,note_off,,,,,64,0,12,,,,,5,,,43,100
111424,note_off,,,,,64,0,13,,,,,6,,,43,100
111424,note_off,,,,,64,0,11,,,,,4,,,58,100
111436,set_tempo,,,,,28,1,0,,689655,,,,,,,
111456,note_on,,,,,32,0,11,,,,,4,,,58,110
111456,note_on,,,,,32,0,13,,,,,6,,,43,110
111456,note_on,,,,,32,0,12,,,,,5,,,43,110
111460,set_tempo,,,,,24,1,0,,697674,,,,,,,
111488,note_off,,,,,128,0,15,,,,,7,,,43,100
111488,set_tempo,,,,,28,1,0,,705882,,,,,,,
111512,set_tempo,,,,,24,1,0,,714285,,,,,,,
111520,note_off,,,,,64,0,11,,,,,4,,,58,100
111520,note_off,,,,,64,0,12,,,,,5,,,43,100
111520,note_off,,,,,64,0,13,,,,,6,,,43,100
111536,set_tempo,,,,,24,1,0,,722891,,,,,,,
111552,note_on,,,,,32,0,11,,,,,4,,,58,110
111552,note_on,,,,,32,0,13,,,,,6,,,43,110
111552,note_on,,,,,64,0,15,,,,,7,,,43,100
111552,note_on,,,,,32,0,12,,,,,5,,,43,110
111564,set_tempo,,,,,28,1,0,,731707,,,,,,,
111588,set_tempo,,,,,24,1,0,,740740,,,,,,,
111616,note_off,,,,,0,0,14,,,,,7,,,62,100
111616,note_off,,,,,256,0,14,,,,,7,,,64,100
111616,set_tempo,,,,,28,1,0,,750000,,,,,,,
111616,note_off,,,,,64,0,11,,,,,4,,,58,100
111616,note_off,,,,,64,0,13,,,,,6,,,43,100
111616,note_off,,,,,64,0,12,,,,,5,,,43,100
111640,set_tempo,,,,,24,1,0,,759493,,,,,,,
111648,note_on,,,,,32,0,13,,,,,6,,,43,110
111648,note_on,,,,,32,0,12,,,,,5,,,43,110
111648,note_on,,,,,32,0,11,,,,,4,,,58,110
111664,note_off,,,,,688,0,10,,,,,3,,,62,100
111664,set_tempo,,,,,24,1,0,,769230,,,,,,,
111680,note_off,,,,,128,0,15,,,,,7,,,43,100
111692,set_tempo,,,,,28,1,0,,779220,,,,,,,
111712,note_off,,,,,64,0,11,,,,,4,,,58,100
111712,note_off,,,,,64,0,13,,,,,6,,,43,100
111712,note_off,,,,,64,0,12,,,,,5,,,43,100
111716,set_tempo,,,,,24,1,0,,789473,,,,,,,
111744,note_on,,,,,32,0,13,,,,,6,,,33,110
111744,set_tempo,,,,,28,1,0,,800000,,,,,,,
111744,note_on,,,,,64,0,15,,,,,7,,,45,100
111744,note_on,,,,,32,0,11,,,,,4,,,57,110
111744,note_on,,,,,80,0,10,,,,,3,,,61,110
111744,note_on,,,,,128,0,14,,,,,7,,,61,100
111744,note_on,,,,,32,0,12,,,,,5,,,45,110
111744,note_on,,,,,0,0,14,,,,,7,,,64,100
111760,set_tempo,,,,,16,1,0,,810810,,,,,,,
111780,set_tempo,,,,,20,1,0,,821917,,,,,,,
111800,set_tempo,,,,,20,1,0,,833333,,,,,,,
111808,note_off,,,,,64,0,12,,,,,5,,,45,100
111808,note_off,,,,,64,0,11,,,,,4,,,57,100
111808,note_off,,,,,64,0,13,,,,,6,,,33,100
111820,set_tempo,,,,,20,1,0,,845070,,,,,,,
111840,note_on,,,,,32,0,11,,,,,4,,,57,110
111840,set_tempo,,,,,20,1,0,,857142,,,,,,,
111840,note_on,,,,,32,0,12,,,,,5,,,45,110
111840,note_on,,,,,32,0,13,,,,,6,,,33,110
111856,set_tempo,,,,,16,1,0,,869565,,,,,,,
111872,note_off,,,,,128,0,15,,,,,7,,,45,100
111876,set_tempo,,,,,20,1,0,,882352,,,,,,,
111896,set_tempo,,,,,20,1,0,,895522,,,,,,,
111904,note_off,,,,,64,0,13,,,,,6,,,33,100
111904,note_off,,,,,64,0,12,,,,,5,,,45,100
111904,note_off,,,,,64,0,11,,,,,4,,,57,100
111916,set_tempo,,,,,20,1,0,,909090,,,,,,,
111936,note_on,,,,,32,0,12,,,,,5,,,45,110
111936,note_on,,,,,32,0,11,,,,,4,,,57,110
111936,set_tempo,,,,,20,1,0,,923076,,,,,,,
111936,note_on,,,,,32,0,13,,,,,6,,,33,110
111936,note_on,,,,,64,0,15,,,,,7,,,45,100
111940,set_tempo,,,,,4,1,0,,937500,,,,,,,
111948,set_tempo,,,,,8,1,0,,952380,,,,,,,
111956,set_tempo,,,,,8,1,0,,967741,,,,,,,
111964,set_tempo,,,,,8,1,0,,983606,,,,,,,
111972,set_tempo,,,,,8,1,0,,1000000,,,,,,,
111980,set_tempo,,,,,8,1,0,,1016949,,,,,,,
111988,set_tempo,,,,,8,1,0,,1034482,,,,,,,
111996,set_tempo,,,,,8,1,0,,1052631,,,,,,,
112000,note_off,,,,,0,0,14,,,,,7,,,64,100
112000,note_off,,,,,64,0,11,,,,,4,,,57,100
112000,note_off,,,,,256,0,14,,,,,7,,,61,100
112000,note_off,,,,,64,0,13,,,,,6,,,33,100
112000,note_off,,,,,64,0,12,,,,,5,,,45,100
112004,set_tempo,,,,,8,1,0,,1071428,,,,,,,
112012,set_tempo,,,,,8,1,0,,1090909,,,,,,,
112020,set_tempo,,,,,8,1,0,,1111111,,,,,,,
112028,set_tempo,,,,,8,1,0,,1132075,,,,,,,
112032,note_on,,,,,32,0,11,,,,,4,,,57,110
112032,set_tempo,,,,,4,1,0,,1153846,,,,,,,
112032,note_on,,,,,32,0,13,,,,,6,,,33,110
112032,note_on,,,,,32,0,12,,,,,5,,,45,110
112040,set_tempo,,,,,8,1,0,,1176470,,,,,,,
112048,set_tempo,,,,,8,1,0,,1200000,,,,,,,
112048,note_off,,,,,688,0,9,,,,,2,,,64,100
112056,set_tempo,,,,,8,1,0,,1224489,,,,,,,
112064,set_tempo,,,,,8,1,0,,1250000,,,,,,,
112064,note_off,,,,,128,0,15,,,,,7,,,45,100
112072,set_tempo,,,,,8,1,0,,1276595,,,,,,,
112080,set_tempo,,,,,8,1,0,,1304347,,,,,,,
112088,set_tempo,,,,,8,1,0,,1333333,,,,,,,
112088,note_off,,,,,344,0,10,,,,,3,,,61,100
112096,note_off,,,,,64,0,13,,,,,6,,,33,100
112096,note_off,,,,,64,0,12,,,,,5,,,45,100
112096,note_off,,,,,64,0,11,,,,,4,,,57,100
112096,set_tempo,,,,,8,1,0,,1363636,,,,,,,
112104,set_tempo,,,,,8,1,0,,1395348,,,,,,,
112112,set_tempo,,,,,8,1,0,,1428571,,,,,,,
112120,set_tempo,,,,,8,1,0,,1463414,,,,,,,
112128,note_on,,,,,40,0,10,,,,,3,,,62,115
112128,note_on,,,,,128,0,14,,,,,7,,,62,100
112128,note_on,,,,,32,0,11,,,,,4,,,53,115
112128,set_tempo,,,,,8,1,0,,1200000,,,,,,,
112128,end_of_track,,,,,0,1,0,,,,,,,,,
112128,note_on,,,,,32,0,12,,,,,5,,,38,115
112128,note_on,,,,,32,0,13,,,,,6,,,38,115
112128,note_on,,,,,80,0,9,,,,,2,,,62,115
112128,note_on,,,,,64,0,15,,,,,7,,,38,100
113156,note_off,,,,,1028,0,12,,,,,5,,,38,100
113156,end_of_track,,,,,0,1,9,,,,,,,,,
113156,note_off,,,,,1028,0,10,,,,,3,,,62,100
113156,end_of_track,,,,,0,1,10,,,,,,,,,
113156,note_off,,,,,1028,0,15,,,,,7,,,38,100
113156,end_of_track,,,,,0,1,14,,,,,,,,,
113156,note_off,,,,,1028,0,14,,,,,7,,,62,100
113156,note_off,,,,,1028,0,11,,,,,4,,,53,100
113156,end_of_track,,,,,0,1,11,,,,,,,,,
113156,end_of_track,,,,,0,1,12,,,,,,,,,
113156,end_of_track,,,,,0,1,13,,,,,,,,,
113156,note_off,,,,,1028,0,13,,,,,6,,,38,100
113156,note_off,,,,,1028,0,9,,,,,2,,,62,100
113156,end_of_track,,,,,0,1,15,,,,,,,,,
115200,end_of_track,,,,,0,1,7,,,,,,,,,
115200,program_change,,,,,10496,0,7,,,,,0,40,,,
