tick,type,time,meta,track,tempo,key,numerator,denominator,clocks_per_click,notated_32nd_notes_per_beat,port,control,value,channel,program,note,velocity
0,text,0,1,0,,,,,,,,,,,,,
0,key_signature,0,1,2,,F,,,,,,,,,,,
0,control_change,0,0,2,,,,,,,,10,64,1,,,
0,control_change,0,0,2,,,,,,,,7,127,1,,,
0,program_change,0,0,2,,,,,,,,,,1,25,,
0,midi_port,0,1,2,,,,,,,0,,,,,,
0,midi_port,0,1,5,,,,,,,0,,,,,,
0,track_name,0,1,5,,,,,,,,,,,,,
0,control_change,0,0,5,,,,,,,,7,110,4,,,
0,control_change,0,0,5,,,,,,,,10,64,4,,,
0,program_change,0,0,5,,,,,,,,,,4,48,,
0,key_signature,0,1,5,,F,,,,,,,,,,,
0,time_signature,0,1,5,,,2,4,24,8,,,,,,,
0,midi_port,0,1,6,,,,,,,0,,,,,,
0,track_name,0,1,6,,,,,,,,,,,,,
0,control_change,0,0,6,,,,,,,,7,90,6,,,
0,control_change,0,0,6,,,,,,,,10,64,6,,,
0,program_change,0,0,6,,,,,,,,,,6,48,,
0,time_signature,0,1,2,,,2,4,24,8,,,,,,,
0,midi_port,0,1,7,,,,,,,0,,,,,,
0,track_name,0,1,7,,,,,,,,,,,,,
0,program_change,0,0,7,,,,,,,,,,7,6,,
0,time_signature,0,1,3,,,2,4,24,8,,,,,,,
0,key_signature,0,1,3,,F,,,,,,,,,,,
0,program_change,0,0,3,,,,,,,,,,2,48,,
0,control_change,0,0,3,,,,,,,,10,127,2,,,
0,control_change,0,0,3,,,,,,,,7,127,2,,,
0,track_name,0,1,3,,,,,,,,,,,,,
0,midi_port,0,1,3,,,,,,,0,,,,,,
0,midi_port,0,1,4,,,,,,,0,,,,,,
0,key_signature,0,1,6,,F,,,,,,,,,,,
0,track_name,0,1,4,,,,,,,,,,,,,
0,control_change,0,0,4,,,,,,,,10,0,5,,,
0,program_change,0,0,4,,,,,,,,,,5,48,,
0,key_signature,0,1,4,,F,,,,,,,,,,,
0,time_signature,0,1,4,,,2,4,24,8,,,,,,,
0,time_signature,0,1,7,,,2,4,24,8,,,,,,,
0,key_signature,0,1,7,,F,,,,,,,,,,,
0,control_change,0,0,7,,,,,,,,10,64,7,,,
0,control_change,0,0,7,,,,,,,,7,90,7,,,
0,control_change,0,0,4,,,,,,,,7,127,5,,,
0,time_signature,0,1,6,,,2,4,24,8,,,,,,,
0,track_name,0,1,2,,,,,,,,,,,,,
0,track_name,0,1,1,,,,,,,,,,,,,
0,midi_port,0,1,1,,,,,,,0,,,,,,
0,copyright,0,1,0,,,,,,,,,,,,,
0,copyright,0,1,0,,,,,,,,,,,,,
0,set_tempo,0,1,0,740740,,,,,,,,,,,,
0,key_signature,0,1,0,,F,,,,,,,,,,,
0,text,0,1,0,,,,,,,,,,,,,
0,time_signature,0,1,0,,,2,4,24,8,,,,,,,
0,control_change,0,0,1,,,,,,,,7,127,0,,,
0,control_change,0,0,1,,,,,,,,10,64,0,,,
0,program_change,0,0,1,,,,,,,,,,0,41,,
0,key_signature,0,1,1,,F,,,,,,,,,,,
0,time_signature,0,1,1,,,2,4,24,8,,,,,,,
672,note_on,672,0,4,,,,,,,,,,5,,81,110
672,note_on,672,0,3,,,,,,,,,,2,,81,110
766,note_on,94,0,4,,,,,,,,,,5,,81,0
766,note_on,94,0,3,,,,,,,,,,2,,81,0
768,note_on,2,0,3,,,,,,,,,,2,,74,110
768,note_on,2,0,4,,,,,,,,,,5,,74,110
862,note_on,94,0,3,,,,,,,,,,2,,74,0
862,note_on,94,0,4,,,,,,,,,,5,,74,0
864,note_on,2,0,3,,,,,,,,,,2,,69,110
864,note_on,2,0,4,,,,,,,,,,5,,69,110
864,note_on,864,0,7,,,,,,,,,,7,,53,75
864,note_on,864,0,6,,,,,,,,,,6,,53,75
864,note_on,864,0,5,,,,,,,,,,4,,69,60
958,note_on,94,0,4,,,,,,,,,,5,,69,0
958,note_on,94,0,6,,,,,,,,,,6,,53,0
958,note_on,94,0,7,,,,,,,,,,7,,53,0
958,note_on,94,0,5,,,,,,,,,,4,,69,0
958,note_on,94,0,3,,,,,,,,,,2,,69,0
960,note_on,2,0,6,,,,,,,,,,6,,52,75
960,note_on,2,0,5,,,,,,,,,,4,,67,60
960,note_on,2,0,4,,,,,,,,,,5,,74,110
960,note_on,2,0,7,,,,,,,,,,7,,52,75
960,note_on,2,0,3,,,,,,,,,,2,,74,110
1030,note_on,70,0,3,,,,,,,,,,2,,74,0
1030,note_on,70,0,4,,,,,,,,,,5,,74,0
1032,note_on,2,0,3,,,,,,,,,,2,,76,110
1032,note_on,2,0,4,,,,,,,,,,5,,76,110
1054,note_on,94,0,5,,,,,,,,,,4,,67,0
1054,note_on,94,0,7,,,,,,,,,,7,,52,0
1054,note_on,22,0,4,,,,,,,,,,5,,76,0
1054,note_on,22,0,3,,,,,,,,,,2,,76,0
1054,note_on,94,0,6,,,,,,,,,,6,,52,0
1056,note_on,2,0,7,,,,,,,,,,7,,50,75
1056,note_on,2,0,3,,,,,,,,,,2,,77,110
1056,note_on,2,0,5,,,,,,,,,,4,,65,60
1056,note_on,2,0,4,,,,,,,,,,5,,77,110
1056,note_on,2,0,6,,,,,,,,,,6,,50,75
1126,note_on,70,0,3,,,,,,,,,,2,,77,0
1126,note_on,70,0,4,,,,,,,,,,5,,77,0
1128,note_on,2,0,3,,,,,,,,,,2,,79,110
1128,note_on,2,0,4,,,,,,,,,,5,,79,110
1150,note_on,22,0,4,,,,,,,,,,5,,79,0
1150,note_on,22,0,3,,,,,,,,,,2,,79,0
1150,note_on,94,0,5,,,,,,,,,,4,,65,0
1150,note_on,94,0,7,,,,,,,,,,7,,50,0
1150,note_on,94,0,6,,,,,,,,,,6,,50,0
1152,note_on,2,0,4,,,,,,,,,,5,,81,110
1152,note_on,2,0,3,,,,,,,,,,2,,81,110
1246,note_on,94,0,3,,,,,,,,,,2,,81,0
1246,note_on,94,0,4,,,,,,,,,,5,,81,0
1248,note_on,2,0,3,,,,,,,,,,2,,69,110
1248,note_on,98,0,5,,,,,,,,,,4,,61,60
1248,note_on,98,0,7,,,,,,,,,,7,,57,75
1248,note_on,2,0,4,,,,,,,,,,5,,69,110
1248,note_on,98,0,6,,,,,,,,,,6,,57,75
1342,note_on,94,0,3,,,,,,,,,,2,,69,0
1342,note_on,94,0,6,,,,,,,,,,6,,57,0
1342,note_on,94,0,5,,,,,,,,,,4,,61,0
1342,note_on,94,0,7,,,,,,,,,,7,,57,0
1342,note_on,94,0,4,,,,,,,,,,5,,69,0
1344,note_on,2,0,4,,,,,,,,,,5,,81,110
1344,note_on,2,0,3,,,,,,,,,,2,,81,110
1344,note_on,2,0,5,,,,,,,,,,4,,62,60
1344,note_on,2,0,6,,,,,,,,,,6,,53,75
1344,note_on,2,0,7,,,,,,,,,,7,,53,75
1438,note_on,94,0,7,,,,,,,,,,7,,53,0
1438,note_on,94,0,6,,,,,,,,,,6,,53,0
1438,note_on,94,0,4,,,,,,,,,,5,,81,0
1438,note_on,94,0,3,,,,,,,,,,2,,81,0
1438,note_on,94,0,5,,,,,,,,,,4,,62,0
1440,note_on,2,0,5,,,,,,,,,,4,,65,60
1440,note_on,2,0,3,,,,,,,,,,2,,82,110
1440,note_on,2,0,6,,,,,,,,,,6,,50,75
1440,note_on,2,0,4,,,,,,,,,,5,,82,110
1440,note_on,2,0,7,,,,,,,,,,7,,50,75
1534,note_on,94,0,5,,,,,,,,,,4,,65,0
1534,note_on,94,0,7,,,,,,,,,,7,,50,0
1534,note_on,94,0,4,,,,,,,,,,5,,82,0
1534,note_on,94,0,3,,,,,,,,,,2,,82,0
1534,note_on,94,0,6,,,,,,,,,,6,,50,0
1536,note_on,2,0,3,,,,,,,,,,2,,79,110
1536,note_on,2,0,4,,,,,,,,,,5,,79,110
1630,note_on,94,0,3,,,,,,,,,,2,,79,0
1630,note_on,94,0,4,,,,,,,,,,5,,79,0
1632,note_on,98,0,5,,,,,,,,,,4,,64,60
1632,note_on,2,0,4,,,,,,,,,,5,,69,110
1632,note_on,98,0,7,,,,,,,,,,7,,49,75
1632,note_on,2,0,3,,,,,,,,,,2,,69,110
1632,note_on,98,0,6,,,,,,,,,,6,,49,75
1726,note_on,94,0,4,,,,,,,,,,5,,69,0
1726,note_on,94,0,5,,,,,,,,,,4,,64,0
1726,note_on,94,0,7,,,,,,,,,,7,,49,0
1726,note_on,94,0,6,,,,,,,,,,6,,49,0
1726,note_on,94,0,3,,,,,,,,,,2,,69,0
1728,note_on,2,0,4,,,,,,,,,,5,,64,110
1728,note_on,2,0,6,,,,,,,,,,6,,47,75
1728,note_on,2,0,7,,,,,,,,,,7,,47,75
1728,note_on,2,0,5,,,,,,,,,,4,,62,60
1728,note_on,2,0,3,,,,,,,,,,2,,64,110
1798,note_on,70,0,3,,,,,,,,,,2,,64,0
1798,note_on,70,0,4,,,,,,,,,,5,,64,0
1800,note_on,2,0,3,,,,,,,,,,2,,65,110
1800,note_on,2,0,4,,,,,,,,,,5,,65,110
1822,note_on,94,0,5,,,,,,,,,,4,,62,0
1822,note_on,22,0,4,,,,,,,,,,5,,65,0
1822,note_on,22,0,3,,,,,,,,,,2,,65,0
1822,note_on,94,0,7,,,,,,,,,,7,,47,0
1822,note_on,94,0,6,,,,,,,,,,6,,47,0
1824,note_on,2,0,5,,,,,,,,,,4,,61,60
1824,note_on,2,0,4,,,,,,,,,,5,,67,110
1824,note_on,2,0,6,,,,,,,,,,6,,45,75
1824,note_on,2,0,3,,,,,,,,,,2,,67,110
1824,note_on,2,0,7,,,,,,,,,,7,,45,75
1894,note_on,70,0,4,,,,,,,,,,5,,67,0
1894,note_on,70,0,3,,,,,,,,,,2,,67,0
1896,note_on,2,0,3,,,,,,,,,,2,,69,110
1896,note_on,2,0,4,,,,,,,,,,5,,69,110
1918,note_on,22,0,3,,,,,,,,,,2,,69,0
1918,note_on,94,0,6,,,,,,,,,,6,,45,0
1918,note_on,94,0,7,,,,,,,,,,7,,45,0
1918,note_on,22,0,4,,,,,,,,,,5,,69,0
1918,note_on,94,0,5,,,,,,,,,,4,,61,0
1920,note_on,2,0,3,,,,,,,,,,2,,65,110
1920,note_on,2,0,4,,,,,,,,,,5,,65,110
2014,note_on,94,0,3,,,,,,,,,,2,,65,0
2014,note_on,94,0,4,,,,,,,,,,5,,65,0
2016,note_on,2,0,4,,,,,,,,,,5,,62,110
2016,note_on,98,0,6,,,,,,,,,,6,,53,75
2016,note_on,98,0,5,,,,,,,,,,4,,69,60
2016,note_on,2,0,3,,,,,,,,,,2,,62,110
2016,note_on,98,0,7,,,,,,,,,,7,,53,75
2110,note_on,94,0,6,,,,,,,,,,6,,53,0
2110,note_on,94,0,5,,,,,,,,,,4,,69,0
2110,note_on,94,0,7,,,,,,,,,,7,,53,0
2110,note_on,94,0,4,,,,,,,,,,5,,62,0
2110,note_on,94,0,3,,,,,,,,,,2,,62,0
2112,note_on,2,0,5,,,,,,,,,,4,,67,60
2112,note_on,2,0,6,,,,,,,,,,6,,52,75
2112,note_on,2,0,7,,,,,,,,,,7,,52,75
2206,note_on,94,0,5,,,,,,,,,,4,,67,0
2206,note_on,94,0,6,,,,,,,,,,6,,52,0
2206,note_on,94,0,7,,,,,,,,,,7,,52,0
2208,note_on,2,0,6,,,,,,,,,,6,,50,75
2208,note_on,98,0,4,,,,,,,,,,5,,81,110
2208,note_on,98,0,3,,,,,,,,,,2,,81,110
2208,note_on,2,0,5,,,,,,,,,,4,,65,60
2208,note_on,2,0,7,,,,,,,,,,7,,50,75
2254,note_on,46,0,4,,,,,,,,,,5,,81,0
2254,note_on,46,0,3,,,,,,,,,,2,,81,0
2256,note_on,2,0,4,,,,,,,,,,5,,77,110
2256,note_on,2,0,3,,,,,,,,,,2,,77,110
2302,note_on,46,0,3,,,,,,,,,,2,,77,0
2302,note_on,94,0,7,,,,,,,,,,7,,50,0
2302,note_on,46,0,4,,,,,,,,,,5,,77,0
2302,note_on,94,0,5,,,,,,,,,,4,,65,0
2302,note_on,94,0,6,,,,,,,,,,6,,50,0
2304,note_on,2,0,4,,,,,,,,,,5,,76,110
2304,note_on,2,0,3,,,,,,,,,,2,,76,110
2398,note_on,94,0,4,,,,,,,,,,5,,76,0
2398,note_on,94,0,3,,,,,,,,,,2,,76,0
2400,note_on,98,0,6,,,,,,,,,,6,,49,75
2400,note_on,2,0,4,,,,,,,,,,5,,81,110
2400,note_on,98,0,7,,,,,,,,,,7,,49,75
2400,note_on,2,0,3,,,,,,,,,,2,,81,110
2400,note_on,98,0,5,,,,,,,,,,4,,64,60
2494,note_on,94,0,3,,,,,,,,,,2,,81,0
2494,note_on,94,0,4,,,,,,,,,,5,,81,0
2494,note_on,94,0,5,,,,,,,,,,4,,64,0
2494,note_on,94,0,6,,,,,,,,,,6,,49,0
2494,note_on,94,0,7,,,,,,,,,,7,,49,0
2496,note_on,2,0,7,,,,,,,,,,7,,47,75
2496,note_on,2,0,5,,,,,,,,,,4,,62,60
2496,note_on,2,0,6,,,,,,,,,,6,,47,75
2590,note_on,94,0,7,,,,,,,,,,7,,47,0
2590,note_on,94,0,6,,,,,,,,,,6,,47,0
2590,note_on,94,0,5,,,,,,,,,,4,,62,0
2592,note_on,98,0,4,,,,,,,,,,5,,81,110
2592,note_on,2,0,7,,,,,,,,,,7,,45,75
2592,note_on,2,0,5,,,,,,,,,,4,,61,60
2592,note_on,2,0,6,,,,,,,,,,6,,45,75
2592,note_on,98,0,3,,,,,,,,,,2,,81,110
2638,note_on,46,0,4,,,,,,,,,,5,,81,0
2638,note_on,46,0,3,,,,,,,,,,2,,81,0
2640,note_on,2,0,4,,,,,,,,,,5,,73,110
2640,note_on,2,0,3,,,,,,,,,,2,,73,110
2686,note_on,94,0,5,,,,,,,,,,4,,61,0
2686,note_on,94,0,6,,,,,,,,,,6,,45,0
2686,note_on,46,0,4,,,,,,,,,,5,,73,0
2686,note_on,94,0,7,,,,,,,,,,7,,45,0
2686,note_on,46,0,3,,,,,,,,,,2,,73,0
2688,note_on,2,0,3,,,,,,,,,,2,,74,110
2688,note_on,2,0,4,,,,,,,,,,5,,74,110
2782,note_on,94,0,4,,,,,,,,,,5,,74,0
2782,note_on,94,0,3,,,,,,,,,,2,,74,0
2784,note_on,98,0,5,,,,,,,,,,4,,62,60
2784,note_on,98,0,7,,,,,,,,,,7,,43,75
2784,note_on,2,0,4,,,,,,,,,,5,,82,110
2784,note_on,2,0,3,,,,,,,,,,2,,82,110
2784,note_on,98,0,6,,,,,,,,,,6,,43,75
2878,note_on,94,0,3,,,,,,,,,,2,,82,0
2878,note_on,94,0,4,,,,,,,,,,5,,82,0
2878,note_on,94,0,6,,,,,,,,,,6,,43,0
2878,note_on,94,0,5,,,,,,,,,,4,,62,0
2878,note_on,94,0,7,,,,,,,,,,7,,43,0
2880,note_on,2,0,7,,,,,,,,,,7,,46,75
2880,note_on,2,0,6,,,,,,,,,,6,,46,75
2880,note_on,2,0,5,,,,,,,,,,4,,62,60
2974,note_on,94,0,6,,,,,,,,,,6,,46,0
2974,note_on,94,0,7,,,,,,,,,,7,,46,0
2974,note_on,94,0,5,,,,,,,,,,4,,62,0
2976,note_on,2,0,6,,,,,,,,,,6,,43,75
2976,note_on,98,0,3,,,,,,,,,,2,,79,110
2976,note_on,2,0,5,,,,,,,,,,4,,58,60
2976,note_on,98,0,4,,,,,,,,,,5,,79,110
2976,note_on,2,0,7,,,,,,,,,,7,,43,75
3022,note_on,46,0,3,,,,,,,,,,2,,79,0
3022,note_on,46,0,4,,,,,,,,,,5,,79,0
3024,note_on,2,0,3,,,,,,,,,,2,,82,110
3024,note_on,2,0,4,,,,,,,,,,5,,82,110
3070,note_on,94,0,5,,,,,,,,,,4,,58,0
3070,note_on,46,0,3,,,,,,,,,,2,,82,0
3070,note_on,46,0,4,,,,,,,,,,5,,82,0
3070,note_on,94,0,7,,,,,,,,,,7,,43,0
3070,note_on,94,0,6,,,,,,,,,,6,,43,0
3072,note_on,2,0,7,,,,,,,,,,7,,45,75
3072,note_on,2,0,3,,,,,,,,,,2,,73,110
3072,note_on,2,0,6,,,,,,,,,,6,,45,75
3072,note_on,2,0,4,,,,,,,,,,5,,73,110
3166,note_on,94,0,7,,,,,,,,,,7,,45,0
3166,note_on,94,0,6,,,,,,,,,,6,,45,0
3166,note_on,94,0,3,,,,,,,,,,2,,73,0
3166,note_on,94,0,4,,,,,,,,,,5,,73,0
3168,note_on,2,0,6,,,,,,,,,,6,,57,75
3168,note_on,2,0,4,,,,,,,,,,5,,69,110
3168,note_on,2,0,3,,,,,,,,,,2,,69,110
3168,note_on,98,0,5,,,,,,,,,,4,,69,60
3168,note_on,2,0,7,,,,,,,,,,7,,57,75
3262,note_on,94,0,6,,,,,,,,,,6,,57,0
3262,note_on,94,0,3,,,,,,,,,,2,,69,0
3262,note_on,94,0,4,,,,,,,,,,5,,69,0
3262,note_on,94,0,5,,,,,,,,,,4,,69,0
3262,note_on,94,0,7,,,,,,,,,,7,,57,0
3264,note_on,2,0,5,,,,,,,,,,4,,70,60
3264,note_on,2,0,6,,,,,,,,,,6,,55,75
3264,note_on,2,0,7,,,,,,,,,,7,,55,75
3358,note_on,94,0,6,,,,,,,,,,6,,55,0
3358,note_on,94,0,5,,,,,,,,,,4,,70,0
3358,note_on,94,0,7,,,,,,,,,,7,,55,0
3360,note_on,2,0,6,,,,,,,,,,6,,53,75
3360,note_on,2,0,7,,,,,,,,,,7,,53,75
3360,note_on,98,0,3,,,,,,,,,,2,,81,110
3360,note_on,2,0,5,,,,,,,,,,4,,69,60
3360,note_on,98,0,4,,,,,,,,,,5,,81,110
3454,note_on,94,0,4,,,,,,,,,,5,,81,0
3454,note_on,94,0,7,,,,,,,,,,7,,53,0
3454,note_on,94,0,3,,,,,,,,,,2,,81,0
3454,note_on,94,0,5,,,,,,,,,,4,,69,0
3454,note_on,94,0,6,,,,,,,,,,6,,53,0
3456,note_on,2,0,3,,,,,,,,,,2,,77,110
3456,note_on,2,0,4,,,,,,,,,,5,,77,110
3552,note_on,98,0,7,,,,,,,,,,7,,57,75
3552,note_on,98,0,5,,,,,,,,,,4,,72,60
3552,note_on,98,0,6,,,,,,,,,,6,,57,75
3598,note_on,142,0,3,,,,,,,,,,2,,77,0
3598,note_on,142,0,4,,,,,,,,,,5,,77,0
3600,note_on,2,0,3,,,,,,,,,,2,,76,110
3600,note_on,2,0,4,,,,,,,,,,5,,76,110
3622,note_on,22,0,3,,,,,,,,,,2,,76,0
3622,note_on,22,0,4,,,,,,,,,,5,,76,0
3624,note_on,2,0,3,,,,,,,,,,2,,77,110
3624,note_on,2,0,4,,,,,,,,,,5,,77,110
3646,note_on,94,0,5,,,,,,,,,,4,,72,0
3646,note_on,22,0,4,,,,,,,,,,5,,77,0
3646,note_on,22,0,3,,,,,,,,,,2,,77,0
3646,note_on,94,0,7,,,,,,,,,,7,,57,0
3646,note_on,94,0,6,,,,,,,,,,6,,57,0
3648,note_on,2,0,7,,,,,,,,,,7,,55,75
3648,note_on,2,0,4,,,,,,,,,,5,,77,110
3648,note_on,2,0,6,,,,,,,,,,6,,55,75
3648,note_on,2,0,5,,,,,,,,,,4,,70,60
3648,note_on,2,0,3,,,,,,,,,,2,,77,110
3742,note_on,94,0,7,,,,,,,,,,7,,55,0
3742,note_on,94,0,6,,,,,,,,,,6,,55,0
3742,note_on,94,0,5,,,,,,,,,,4,,70,0
3744,note_on,2,0,7,,,,,,,,,,7,,53,75
3744,note_on,2,0,6,,,,,,,,,,6,,53,75
3744,note_on,2,0,5,,,,,,,,,,4,,69,60
3790,note_on,142,0,3,,,,,,,,,,2,,77,0
3790,note_on,142,0,4,,,,,,,,,,5,,77,0
3792,note_on,2,0,3,,,,,,,,,,2,,76,110
3792,note_on,2,0,4,,,,,,,,,,5,,76,110
3814,note_on,22,0,3,,,,,,,,,,2,,76,0
3814,note_on,22,0,4,,,,,,,,,,5,,76,0
3816,note_on,2,0,3,,,,,,,,,,2,,77,110
3816,note_on,2,0,4,,,,,,,,,,5,,77,110
3838,note_on,94,0,5,,,,,,,,,,4,,69,0
3838,note_on,94,0,7,,,,,,,,,,7,,53,0
3838,note_on,22,0,3,,,,,,,,,,2,,77,0
3838,note_on,22,0,4,,,,,,,,,,5,,77,0
3838,note_on,94,0,6,,,,,,,,,,6,,53,0
3840,note_on,2,0,3,,,,,,,,,,2,,79,110
3840,note_on,2,0,4,,,,,,,,,,5,,79,110
3934,note_on,94,0,4,,,,,,,,,,5,,79,0
3934,note_on,94,0,3,,,,,,,,,,2,,79,0
3936,note_on,2,0,3,,,,,,,,,,2,,72,110
3936,note_on,2,0,4,,,,,,,,,,5,,72,110
3936,note_on,98,0,6,,,,,,,,,,6,,52,75
3936,note_on,98,0,5,,,,,,,,,,4,,67,60
3936,note_on,98,0,7,,,,,,,,,,7,,52,75
4030,note_on,94,0,4,,,,,,,,,,5,,72,0
4030,note_on,94,0,6,,,,,,,,,,6,,52,0
4030,note_on,94,0,3,,,,,,,,,,2,,72,0
4030,note_on,94,0,5,,,,,,,,,,4,,67,0
4030,note_on,94,0,7,,,,,,,,,,7,,52,0
4032,note_on,2,0,6,,,,,,,,,,6,,50,75
4032,note_on,2,0,5,,,,,,,,,,4,,65,60
4032,note_on,2,0,7,,,,,,,,,,7,,50,75
4126,note_on,94,0,5,,,,,,,,,,4,,65,0
4126,note_on,94,0,6,,,,,,,,,,6,,50,0
4126,note_on,94,0,7,,,,,,,,,,7,,50,0
4128,note_on,2,0,5,,,,,,,,,,4,,64,60
4128,note_on,2,0,7,,,,,,,,,,7,,48,75
4128,note_on,0,0,3,,,,,,,,,,2,,82,110
4128,note_on,98,0,4,,,,,,,,,,5,,82,110
4128,note_on,2,0,6,,,,,,,,,,6,,48,75
4128,control_change,98,0,3,,,,,,,,10,64,2,,,
4222,note_on,94,0,3,,,,,,,,,,2,,82,0
4222,note_on,94,0,4,,,,,,,,,,5,,82,0
4222,note_on,94,0,5,,,,,,,,,,4,,64,0
4222,note_on,94,0,6,,,,,,,,,,6,,48,0
4222,note_on,94,0,7,,,,,,,,,,7,,48,0
4224,control_change,2,0,4,,,,,,,,10,64,5,,,
4224,note_on,0,0,4,,,,,,,,,,5,,76,110
4224,note_on,2,0,3,,,,,,,,,,2,,79,110
4320,note_on,98,0,6,,,,,,,,,,6,,52,75
4320,note_on,98,0,7,,,,,,,,,,7,,52,75
4320,note_on,98,0,5,,,,,,,,,,4,,67,60
4366,note_on,142,0,3,,,,,,,,,,2,,79,0
4366,note_on,142,0,4,,,,,,,,,,5,,76,0
4368,note_on,2,0,3,,,,,,,,,,2,,77,110
4368,note_on,2,0,4,,,,,,,,,,5,,74,110
4390,note_on,22,0,4,,,,,,,,,,5,,74,0
4390,note_on,22,0,3,,,,,,,,,,2,,77,0
4392,note_on,2,0,3,,,,,,,,,,2,,79,110
4392,note_on,2,0,4,,,,,,,,,,5,,76,110
4414,note_on,94,0,7,,,,,,,,,,7,,52,0
4414,note_on,22,0,4,,,,,,,,,,5,,76,0
4414,note_on,94,0,6,,,,,,,,,,6,,52,0
4414,note_on,94,0,5,,,,,,,,,,4,,67,0
4414,note_on,22,0,3,,,,,,,,,,2,,79,0
4416,note_on,2,0,6,,,,,,,,,,6,,50,75
4416,note_on,2,0,7,,,,,,,,,,7,,50,75
4416,note_on,2,0,5,,,,,,,,,,4,,65,60
4416,note_on,2,0,3,,,,,,,,,,2,,79,110
4416,note_on,2,0,4,,,,,,,,,,5,,76,110
4510,note_on,94,0,7,,,,,,,,,,7,,50,0
4510,note_on,94,0,6,,,,,,,,,,6,,50,0
4510,note_on,94,0,5,,,,,,,,,,4,,65,0
4512,note_on,2,0,6,,,,,,,,,,6,,48,75
4512,note_on,2,0,7,,,,,,,,,,7,,48,75
4512,note_on,2,0,5,,,,,,,,,,4,,64,60
4558,note_on,142,0,4,,,,,,,,,,5,,76,0
4558,note_on,142,0,3,,,,,,,,,,2,,79,0
4560,note_on,2,0,3,,,,,,,,,,2,,77,110
4560,note_on,2,0,4,,,,,,,,,,5,,74,110
4582,note_on,22,0,4,,,,,,,,,,5,,74,0
4582,note_on,22,0,3,,,,,,,,,,2,,77,0
4584,note_on,2,0,3,,,,,,,,,,2,,79,110
4584,note_on,2,0,4,,,,,,,,,,5,,76,110
4606,note_on,94,0,6,,,,,,,,,,6,,48,0
4606,note_on,22,0,4,,,,,,,,,,5,,76,0
4606,note_on,94,0,5,,,,,,,,,,4,,64,0
4606,note_on,22,0,3,,,,,,,,,,2,,79,0
4606,note_on,94,0,7,,,,,,,,,,7,,48,0
4608,note_on,2,0,3,,,,,,,,,,2,,81,110
4608,note_on,2,0,4,,,,,,,,,,5,,77,110
4702,note_on,94,0,3,,,,,,,,,,2,,81,0
4702,note_on,94,0,4,,,,,,,,,,5,,77,0
4704,note_on,98,0,5,,,,,,,,,,4,,72,60
4704,note_on,98,0,7,,,,,,,,,,7,,53,75
4704,note_on,2,0,4,,,,,,,,,,5,,77,110
4704,note_on,98,0,6,,,,,,,,,,6,,53,75
4704,note_on,2,0,3,,,,,,,,,,2,,81,110
4798,note_on,94,0,7,,,,,,,,,,7,,53,0
4798,note_on,94,0,4,,,,,,,,,,5,,77,0
4798,note_on,94,0,5,,,,,,,,,,4,,72,0
4798,note_on,94,0,3,,,,,,,,,,2,,81,0
4798,note_on,94,0,6,,,,,,,,,,6,,53,0
4800,note_on,2,0,7,,,,,,,,,,7,,57,75
4800,note_on,2,0,4,,,,,,,,,,5,,77,110
4800,note_on,2,0,5,,,,,,,,,,4,,72,60
4800,note_on,2,0,6,,,,,,,,,,6,,57,75
4800,note_on,2,0,3,,,,,,,,,,2,,81,110
4894,note_on,94,0,6,,,,,,,,,,6,,57,0
4894,note_on,94,0,4,,,,,,,,,,5,,77,0
4894,note_on,94,0,5,,,,,,,,,,4,,72,0
4894,note_on,94,0,7,,,,,,,,,,7,,57,0
4894,note_on,94,0,3,,,,,,,,,,2,,81,0
4896,note_on,2,0,5,,,,,,,,,,4,,72,60
4896,note_on,2,0,7,,,,,,,,,,7,,53,75
4896,note_on,2,0,3,,,,,,,,,,2,,81,110
4896,note_on,2,0,6,,,,,,,,,,6,,53,75
4896,note_on,2,0,4,,,,,,,,,,5,,77,110
4990,note_on,94,0,3,,,,,,,,,,2,,81,0
4990,note_on,94,0,7,,,,,,,,,,7,,53,0
4990,note_on,94,0,5,,,,,,,,,,4,,72,0
4990,note_on,94,0,6,,,,,,,,,,6,,53,0
4990,note_on,94,0,4,,,,,,,,,,5,,77,0
4992,note_on,2,0,7,,,,,,,,,,7,,53,75
4992,note_on,2,0,6,,,,,,,,,,6,,53,75
4992,note_on,2,0,3,,,,,,,,,,2,,84,110
4992,note_on,2,0,5,,,,,,,,,,4,,69,60
4992,note_on,2,0,4,,,,,,,,,,5,,81,110
5014,note_on,22,0,4,,,,,,,,,,5,,81,0
5014,note_on,22,0,3,,,,,,,,,,2,,84,0
5016,note_on,2,0,3,,,,,,,,,,2,,82,110
5016,note_on,2,0,4,,,,,,,,,,5,,79,110
5038,note_on,22,0,4,,,,,,,,,,5,,79,0
5038,note_on,22,0,3,,,,,,,,,,2,,82,0
5040,note_on,2,0,4,,,,,,,,,,5,,81,110
5040,note_on,2,0,3,,,,,,,,,,2,,84,110
5062,note_on,22,0,3,,,,,,,,,,2,,84,0
5062,note_on,22,0,4,,,,,,,,,,5,,81,0
5064,note_on,2,0,3,,,,,,,,,,2,,82,110
5064,note_on,2,0,4,,,,,,,,,,5,,79,110
5086,note_on,22,0,4,,,,,,,,,,5,,79,0
5086,note_on,22,0,3,,,,,,,,,,2,,82,0
5088,note_on,2,0,4,,,,,,,,,,5,,77,110
5088,note_on,2,0,3,,,,,,,,,,2,,81,110
5134,note_on,142,0,7,,,,,,,,,,7,,53,0
5134,note_on,142,0,5,,,,,,,,,,4,,69,0
5134,note_on,142,0,6,,,,,,,,,,6,,53,0
5136,note_on,2,0,5,,,,,,,,,,4,,69,60
5136,note_on,2,0,7,,,,,,,,,,7,,53,75
5136,note_on,2,0,6,,,,,,,,,,6,,53,75
5182,note_on,46,0,5,,,,,,,,,,4,,69,0
5182,note_on,46,0,6,,,,,,,,,,6,,53,0
5182,note_on,46,0,7,,,,,,,,,,7,,53,0
5182,note_on,94,0,4,,,,,,,,,,5,,77,0
5182,note_on,94,0,3,,,,,,,,,,2,,81,0
5184,note_on,2,0,4,,,,,,,,,,5,,81,110
5184,note_on,2,0,5,,,,,,,,,,4,,69,60
5184,note_on,2,0,7,,,,,,,,,,7,,53,75
5184,note_on,2,0,6,,,,,,,,,,6,,53,75
5184,note_on,2,0,3,,,,,,,,,,2,,84,110
5206,note_on,22,0,3,,,,,,,,,,2,,84,0
5206,note_on,22,0,4,,,,,,,,,,5,,81,0
5208,note_on,2,0,3,,,,,,,,,,2,,82,110
5208,note_on,2,0,4,,,,,,,,,,5,,79,110
5230,note_on,22,0,4,,,,,,,,,,5,,79,0
5230,note_on,22,0,3,,,,,,,,,,2,,82,0
5232,note_on,2,0,3,,,,,,,,,,2,,84,110
5232,note_on,2,0,4,,,,,,,,,,5,,81,110
5254,note_on,22,0,3,,,,,,,,,,2,,84,0
5254,note_on,22,0,4,,,,,,,,,,5,,81,0
5256,note_on,2,0,4,,,,,,,,,,5,,79,110
5256,note_on,2,0,3,,,,,,,,,,2,,82,110
5278,note_on,22,0,3,,,,,,,,,,2,,82,0
5278,note_on,22,0,4,,,,,,,,,,5,,79,0
5280,note_on,2,0,3,,,,,,,,,,2,,81,110
5280,note_on,2,0,4,,,,,,,,,,5,,77,110
5326,note_on,142,0,7,,,,,,,,,,7,,53,0
5326,note_on,142,0,6,,,,,,,,,,6,,53,0
5326,note_on,142,0,5,,,,,,,,,,4,,69,0
5328,note_on,2,0,5,,,,,,,,,,4,,69,60
5328,note_on,2,0,7,,,,,,,,,,7,,53,75
5328,note_on,2,0,6,,,,,,,,,,6,,53,75
5374,note_on,46,0,5,,,,,,,,,,4,,69,0
5374,note_on,46,0,6,,,,,,,,,,6,,53,0
5374,note_on,46,0,7,,,,,,,,,,7,,53,0
5374,note_on,94,0,3,,,,,,,,,,2,,81,0
5374,note_on,94,0,4,,,,,,,,,,5,,77,0
5376,note_on,2,0,3,,,,,,,,,,2,,84,110
5376,note_on,2,0,5,,,,,,,,,,4,,69,60
5376,note_on,2,0,7,,,,,,,,,,7,,53,75
5376,note_on,2,0,4,,,,,,,,,,5,,81,110
5376,note_on,2,0,6,,,,,,,,,,6,,53,75
5398,note_on,22,0,4,,,,,,,,,,5,,81,0
5398,note_on,22,0,3,,,,,,,,,,2,,84,0
5400,note_on,2,0,3,,,,,,,,,,2,,82,110
5400,note_on,2,0,4,,,,,,,,,,5,,79,110
5422,note_on,22,0,4,,,,,,,,,,5,,79,0
5422,note_on,22,0,3,,,,,,,,,,2,,82,0
5424,note_on,2,0,3,,,,,,,,,,2,,84,110
5424,note_on,2,0,4,,,,,,,,,,5,,81,110
5446,note_on,22,0,4,,,,,,,,,,5,,81,0
5446,note_on,22,0,3,,,,,,,,,,2,,84,0
5448,note_on,2,0,4,,,,,,,,,,5,,79,110
5448,note_on,2,0,3,,,,,,,,,,2,,82,110
5470,note_on,22,0,3,,,,,,,,,,2,,82,0
5470,note_on,22,0,4,,,,,,,,,,5,,79,0
5472,note_on,2,0,4,,,,,,,,,,5,,77,110
5472,note_on,2,0,3,,,,,,,,,,2,,81,110
5518,note_on,142,0,5,,,,,,,,,,4,,69,0
5518,note_on,142,0,7,,,,,,,,,,7,,53,0
5518,note_on,142,0,6,,,,,,,,,,6,,53,0
5520,note_on,2,0,5,,,,,,,,,,4,,69,60
5520,note_on,2,0,7,,,,,,,,,,7,,53,75
5520,note_on,2,0,6,,,,,,,,,,6,,53,75
5566,note_on,46,0,5,,,,,,,,,,4,,69,0
5566,note_on,94,0,4,,,,,,,,,,5,,77,0
5566,note_on,46,0,7,,,,,,,,,,7,,53,0
5566,note_on,94,0,3,,,,,,,,,,2,,81,0
5566,note_on,46,0,6,,,,,,,,,,6,,53,0
5568,note_on,2,0,7,,,,,,,,,,7,,53,75
5568,note_on,2,0,4,,,,,,,,,,5,,81,110
5568,note_on,2,0,3,,,,,,,,,,2,,84,110
5568,note_on,2,0,5,,,,,,,,,,4,,69,60
5568,note_on,2,0,6,,,,,,,,,,6,,53,75
5590,note_on,22,0,4,,,,,,,,,,5,,81,0
5590,note_on,22,0,3,,,,,,,,,,2,,84,0
5592,note_on,2,0,3,,,,,,,,,,2,,82,110
5592,note_on,2,0,4,,,,,,,,,,5,,79,110
5614,note_on,22,0,3,,,,,,,,,,2,,82,0
5614,note_on,22,0,4,,,,,,,,,,5,,79,0
5616,note_on,2,0,3,,,,,,,,,,2,,84,110
5616,note_on,2,0,4,,,,,,,,,,5,,81,110
5638,note_on,22,0,4,,,,,,,,,,5,,81,0
5638,note_on,22,0,3,,,,,,,,,,2,,84,0
5640,note_on,2,0,3,,,,,,,,,,2,,82,110
5640,note_on,2,0,4,,,,,,,,,,5,,79,110
5662,note_on,22,0,3,,,,,,,,,,2,,82,0
5662,note_on,22,0,4,,,,,,,,,,5,,79,0
5664,note_on,2,0,4,,,,,,,,,,5,,77,110
5664,note_on,2,0,3,,,,,,,,,,2,,81,110
5710,note_on,142,0,6,,,,,,,,,,6,,53,0
5710,note_on,142,0,7,,,,,,,,,,7,,53,0
5710,note_on,142,0,5,,,,,,,,,,4,,69,0
5712,note_on,2,0,7,,,,,,,,,,7,,53,75
5712,note_on,2,0,5,,,,,,,,,,4,,69,60
5712,note_on,2,0,6,,,,,,,,,,6,,53,75
5758,note_on,94,0,4,,,,,,,,,,5,,77,0
5758,note_on,46,0,7,,,,,,,,,,7,,53,0
5758,note_on,46,0,6,,,,,,,,,,6,,53,0
5758,note_on,46,0,5,,,,,,,,,,4,,69,0
5758,note_on,94,0,3,,,,,,,,,,2,,81,0
5760,note_on,2,0,6,,,,,,,,,,6,,58,75
5760,note_on,2,0,7,,,,,,,,,,7,,58,75
5760,note_on,2,0,5,,,,,,,,,,4,,65,60
5806,note_on,46,0,7,,,,,,,,,,7,,58,0
5806,note_on,46,0,5,,,,,,,,,,4,,65,0
5806,note_on,46,0,6,,,,,,,,,,6,,58,0
5808,note_on,0,0,4,,,,,,,,,,5,,74,110
5808,note_on,2,0,5,,,,,,,,,,4,,74,60
5808,note_on,0,0,3,,,,,,,,,,2,,74,110
5808,control_change,50,0,3,,,,,,,,10,127,2,,,
5808,note_on,2,0,6,,,,,,,,,,6,,62,75
5808,note_on,2,0,7,,,,,,,,,,7,,62,75
5808,control_change,50,0,4,,,,,,,,10,0,5,,,
5854,note_on,46,0,5,,,,,,,,,,4,,74,0
5854,note_on,46,0,4,,,,,,,,,,5,,74,0
5854,note_on,46,0,7,,,,,,,,,,7,,62,0
5854,note_on,46,0,6,,,,,,,,,,6,,62,0
5854,note_on,46,0,3,,,,,,,,,,2,,74,0
5856,note_on,2,0,4,,,,,,,,,,5,,72,110
5856,note_on,2,0,7,,,,,,,,,,7,,60,75
5856,note_on,2,0,5,,,,,,,,,,4,,72,60
5856,note_on,2,0,6,,,,,,,,,,6,,60,75
5856,note_on,2,0,3,,,,,,,,,,2,,72,110
5902,note_on,46,0,5,,,,,,,,,,4,,72,0
5902,note_on,46,0,7,,,,,,,,,,7,,60,0
5902,note_on,46,0,3,,,,,,,,,,2,,72,0
5902,note_on,46,0,6,,,,,,,,,,6,,60,0
5902,note_on,46,0,4,,,,,,,,,,5,,72,0
5904,note_on,2,0,6,,,,,,,,,,6,,58,75
5904,note_on,2,0,5,,,,,,,,,,4,,70,60
5904,note_on,2,0,7,,,,,,,,,,7,,58,75
5904,note_on,2,0,4,,,,,,,,,,5,,70,110
5904,note_on,2,0,3,,,,,,,,,,2,,70,110
5950,note_on,46,0,7,,,,,,,,,,7,,58,0
5950,note_on,46,0,6,,,,,,,,,,6,,58,0
5950,note_on,46,0,3,,,,,,,,,,2,,70,0
5950,note_on,46,0,4,,,,,,,,,,5,,70,0
5950,note_on,46,0,5,,,,,,,,,,4,,70,0
5952,note_on,2,0,7,,,,,,,,,,7,,57,75
5952,note_on,2,0,5,,,,,,,,,,4,,69,60
5952,note_on,2,0,3,,,,,,,,,,2,,69,110
5952,note_on,2,0,4,,,,,,,,,,5,,69,110
5952,note_on,2,0,6,,,,,,,,,,6,,57,75
5998,note_on,46,0,4,,,,,,,,,,5,,69,0
5998,note_on,46,0,5,,,,,,,,,,4,,69,0
5998,note_on,46,0,7,,,,,,,,,,7,,57,0
5998,note_on,46,0,6,,,,,,,,,,6,,57,0
5998,note_on,46,0,3,,,,,,,,,,2,,69,0
6000,note_on,2,0,5,,,,,,,,,,4,,67,60
6000,note_on,2,0,6,,,,,,,,,,6,,55,75
6000,note_on,2,0,3,,,,,,,,,,2,,67,110
6000,note_on,2,0,4,,,,,,,,,,5,,67,110
6000,note_on,2,0,7,,,,,,,,,,7,,55,75
6046,note_on,46,0,3,,,,,,,,,,2,,67,0
6046,note_on,46,0,5,,,,,,,,,,4,,67,0
6046,note_on,46,0,7,,,,,,,,,,7,,55,0
6046,note_on,46,0,6,,,,,,,,,,6,,55,0
6046,note_on,46,0,4,,,,,,,,,,5,,67,0
6048,note_on,2,0,6,,,,,,,,,,6,,53,75
6048,note_on,2,0,3,,,,,,,,,,2,,65,110
6048,note_on,2,0,4,,,,,,,,,,5,,65,110
6048,note_on,2,0,7,,,,,,,,,,7,,53,75
6048,note_on,2,0,5,,,,,,,,,,4,,65,60
6094,note_on,46,0,5,,,,,,,,,,4,,65,0
6094,note_on,46,0,6,,,,,,,,,,6,,53,0
6094,note_on,46,0,4,,,,,,,,,,5,,65,0
6094,note_on,46,0,3,,,,,,,,,,2,,65,0
6094,note_on,46,0,7,,,,,,,,,,7,,53,0
6096,note_on,2,0,7,,,,,,,,,,7,,52,75
6096,note_on,2,0,6,,,,,,,,,,6,,52,75
6096,note_on,2,0,4,,,,,,,,,,5,,64,110
6096,note_on,2,0,3,,,,,,,,,,2,,64,110
6096,note_on,2,0,5,,,,,,,,,,4,,64,60
6142,note_on,46,0,6,,,,,,,,,,6,,52,0
6142,note_on,46,0,4,,,,,,,,,,5,,64,0
6142,note_on,46,0,3,,,,,,,,,,2,,64,0
6142,note_on,46,0,5,,,,,,,,,,4,,64,0
6142,note_on,46,0,7,,,,,,,,,,7,,52,0
6144,note_on,2,0,7,,,,,,,,,,7,,53,75
6144,note_on,2,0,4,,,,,,,,,,5,,65,110
6144,note_on,2,0,6,,,,,,,,,,6,,53,75
6144,note_on,2,0,5,,,,,,,,,,4,,65,60
6144,note_on,2,0,3,,,,,,,,,,2,,65,110
6238,note_on,94,0,3,,,,,,,,,,2,,65,0
6238,note_on,94,0,6,,,,,,,,,,6,,53,0
6238,note_on,94,0,4,,,,,,,,,,5,,65,0
6238,note_on,94,0,5,,,,,,,,,,4,,65,0
6238,note_on,94,0,7,,,,,,,,,,7,,53,0
6240,note_on,2,0,4,,,,,,,,,,5,,57,110
6240,note_on,2,0,7,,,,,,,,,,7,,45,75
6240,note_on,2,0,6,,,,,,,,,,6,,45,75
6240,note_on,2,0,3,,,,,,,,,,2,,57,110
6240,note_on,2,0,5,,,,,,,,,,4,,57,60
6334,note_on,94,0,4,,,,,,,,,,5,,57,0
6334,note_on,94,0,6,,,,,,,,,,6,,45,0
6334,note_on,94,0,5,,,,,,,,,,4,,57,0
6334,note_on,94,0,7,,,,,,,,,,7,,45,0
6334,note_on,94,0,3,,,,,,,,,,2,,57,0
6336,note_on,2,0,4,,,,,,,,,,5,,58,110
6336,note_on,2,0,6,,,,,,,,,,6,,46,75
6336,note_on,2,0,7,,,,,,,,,,7,,46,75
6336,note_on,2,0,3,,,,,,,,,,2,,58,110
6336,note_on,2,0,5,,,,,,,,,,4,,58,60
6430,note_on,94,0,6,,,,,,,,,,6,,46,0
6430,note_on,94,0,7,,,,,,,,,,7,,46,0
6430,note_on,94,0,3,,,,,,,,,,2,,58,0
6430,note_on,94,0,4,,,,,,,,,,5,,58,0
6430,note_on,94,0,5,,,,,,,,,,4,,58,0
6432,note_on,2,0,7,,,,,,,,,,7,,48,75
6432,note_on,2,0,6,,,,,,,,,,6,,48,75
6432,note_on,2,0,3,,,,,,,,,,2,,60,110
6432,note_on,2,0,5,,,,,,,,,,4,,60,60
6432,note_on,2,0,4,,,,,,,,,,5,,60,110
6526,note_on,94,0,6,,,,,,,,,,6,,48,0
6526,note_on,94,0,3,,,,,,,,,,2,,60,0
6526,note_on,94,0,5,,,,,,,,,,4,,60,0
6526,note_on,94,0,4,,,,,,,,,,5,,60,0
6526,note_on,94,0,7,,,,,,,,,,7,,48,0
6528,note_on,2,0,5,,,,,,,,,,4,,53,60
6528,note_on,2,0,4,,,,,,,,,,5,,65,110
6528,note_on,2,0,7,,,,,,,,,,7,,41,75
6528,note_on,2,0,6,,,,,,,,,,6,,41,75
6528,note_on,2,0,3,,,,,,,,,,2,,65,110
6622,note_on,94,0,5,,,,,,,,,,4,,53,0
6622,note_on,94,0,7,,,,,,,,,,7,,41,0
6622,note_on,94,0,6,,,,,,,,,,6,,41,0
6624,note_on,2,0,7,,,,,,,,,,7,,57,75
6624,note_on,2,0,6,,,,,,,,,,6,,57,75
6624,note_on,2,0,5,,,,,,,,,,4,,72,60
6688,note_on,160,0,3,,,,,,,,,,2,,65,0
6688,note_on,160,0,4,,,,,,,,,,5,,65,0
6718,note_on,94,0,7,,,,,,,,,,7,,57,0
6718,note_on,94,0,6,,,,,,,,,,6,,57,0
6718,note_on,94,0,5,,,,,,,,,,4,,72,0
6720,note_on,2,0,7,,,,,,,,,,7,,55,75
6720,note_on,2,0,5,,,,,,,,,,4,,70,60
6720,note_on,2,0,6,,,,,,,,,,6,,55,75
6814,note_on,94,0,6,,,,,,,,,,6,,55,0
6814,note_on,94,0,5,,,,,,,,,,4,,70,0
6814,note_on,94,0,7,,,,,,,,,,7,,55,0
6816,note_on,2,0,5,,,,,,,,,,4,,69,60
6816,note_on,2,0,6,,,,,,,,,,6,,53,75
6816,note_on,2,0,7,,,,,,,,,,7,,53,75
6816,note_on,128,0,4,,,,,,,,,,5,,81,110
6816,note_on,128,0,3,,,,,,,,,,2,,81,110
6862,note_on,46,0,3,,,,,,,,,,2,,81,0
6862,note_on,46,0,4,,,,,,,,,,5,,81,0
6864,note_on,2,0,3,,,,,,,,,,2,,79,110
6864,note_on,2,0,4,,,,,,,,,,5,,79,110
6910,note_on,46,0,3,,,,,,,,,,2,,79,0
6910,note_on,94,0,7,,,,,,,,,,7,,53,0
6910,note_on,94,0,5,,,,,,,,,,4,,69,0
6910,note_on,94,0,6,,,,,,,,,,6,,53,0
6910,note_on,46,0,4,,,,,,,,,,5,,79,0
6912,note_on,2,0,4,,,,,,,,,,5,,79,110
6912,note_on,2,0,3,,,,,,,,,,2,,79,110
7008,note_on,98,0,7,,,,,,,,,,7,,62,75
7008,note_on,98,0,5,,,,,,,,,,4,,69,60
7008,note_on,98,0,6,,,,,,,,,,6,,62,75
7054,note_on,46,0,7,,,,,,,,,,7,,62,0
7054,note_on,46,0,6,,,,,,,,,,6,,62,0
7056,note_on,2,0,7,,,,,,,,,,7,,60,75
7056,note_on,2,0,6,,,,,,,,,,6,,60,75
7072,note_on,160,0,3,,,,,,,,,,2,,79,0
7072,note_on,160,0,4,,,,,,,,,,5,,79,0
7102,note_on,94,0,5,,,,,,,,,,4,,69,0
7102,note_on,46,0,7,,,,,,,,,,7,,60,0
7102,note_on,46,0,6,,,,,,,,,,6,,60,0
7104,note_on,32,0,3,,,,,,,,,,2,,78,110
7104,note_on,2,0,5,,,,,,,,,,4,,69,60
7104,note_on,2,0,7,,,,,,,,,,7,,62,75
7104,note_on,2,0,6,,,,,,,,,,6,,62,75
7104,note_on,32,0,4,,,,,,,,,,5,,78,110
7198,note_on,94,0,4,,,,,,,,,,5,,78,0
7198,note_on,94,0,6,,,,,,,,,,6,,62,0
7198,note_on,94,0,5,,,,,,,,,,4,,69,0
7198,note_on,94,0,7,,,,,,,,,,7,,62,0
7198,note_on,94,0,3,,,,,,,,,,2,,78,0
7200,note_on,2,0,6,,,,,,,,,,6,,50,75
7200,note_on,2,0,7,,,,,,,,,,7,,50,75
7200,note_on,2,0,3,,,,,,,,,,2,,76,110
7200,note_on,2,0,4,,,,,,,,,,5,,76,110
7200,note_on,2,0,5,,,,,,,,,,4,,69,60
7246,note_on,46,0,3,,,,,,,,,,2,,76,0
7246,note_on,46,0,4,,,,,,,,,,5,,76,0
7248,note_on,2,0,3,,,,,,,,,,2,,74,110
7248,note_on,2,0,4,,,,,,,,,,5,,74,110
7294,note_on,46,0,3,,,,,,,,,,2,,74,0
7294,note_on,94,0,6,,,,,,,,,,6,,50,0
7294,note_on,94,0,5,,,,,,,,,,4,,69,0
7294,note_on,46,0,4,,,,,,,,,,5,,74,0
7294,note_on,94,0,7,,,,,,,,,,7,,50,0
7296,note_on,2,0,4,,,,,,,,,,5,,76,110
7296,note_on,2,0,3,,,,,,,,,,2,,76,110
7390,note_on,94,0,3,,,,,,,,,,2,,76,0
7390,note_on,94,0,4,,,,,,,,,,5,,76,0
7392,note_on,98,0,6,,,,,,,,,,6,,62,75
7392,note_on,98,0,7,,,,,,,,,,7,,62,75
7392,note_on,98,0,5,,,,,,,,,,4,,69,60
7392,note_on,2,0,3,,,,,,,,,,2,,78,110
7392,note_on,2,0,4,,,,,,,,,,5,,78,110
7486,note_on,94,0,5,,,,,,,,,,4,,69,0
7486,note_on,94,0,3,,,,,,,,,,2,,78,0
7486,note_on,94,0,6,,,,,,,,,,6,,62,0
7486,note_on,94,0,4,,,,,,,,,,5,,78,0
7486,note_on,94,0,7,,,,,,,,,,7,,62,0
7488,note_on,2,0,4,,,,,,,,,,5,,79,110
7488,note_on,2,0,7,,,,,,,,,,7,,55,75
7488,note_on,2,0,5,,,,,,,,,,4,,70,60
7488,note_on,2,0,3,,,,,,,,,,2,,79,110
7488,note_on,2,0,6,,,,,,,,,,6,,55,75
7582,note_on,94,0,5,,,,,,,,,,4,,70,0
7582,note_on,94,0,7,,,,,,,,,,7,,55,0
7582,note_on,94,0,4,,,,,,,,,,5,,79,0
7582,note_on,94,0,3,,,,,,,,,,2,,79,0
7582,note_on,94,0,6,,,,,,,,,,6,,55,0
7584,note_on,2,0,7,,,,,,,,,,7,,50,75
7584,note_on,2,0,3,,,,,,,,,,2,,81,110
7584,note_on,2,0,5,,,,,,,,,,4,,66,60
7584,note_on,2,0,4,,,,,,,,,,5,,81,110
7584,note_on,2,0,6,,,,,,,,,,6,,50,75
7678,note_on,94,0,5,,,,,,,,,,4,,66,0
7678,note_on,94,0,3,,,,,,,,,,2,,81,0
7678,note_on,94,0,4,,,,,,,,,,5,,81,0
7678,note_on,94,0,7,,,,,,,,,,7,,50,0
7678,note_on,94,0,6,,,,,,,,,,6,,50,0
7680,note_on,2,0,5,,,,,,,,,,4,,62,60
7680,note_on,2,0,3,,,,,,,,,,2,,82,110
7680,note_on,2,0,7,,,,,,,,,,7,,43,75
7680,note_on,2,0,6,,,,,,,,,,6,,43,75
7680,note_on,2,0,4,,,,,,,,,,5,,82,110
7774,note_on,94,0,6,,,,,,,,,,6,,43,0
7774,note_on,94,0,3,,,,,,,,,,2,,82,0
7774,note_on,94,0,4,,,,,,,,,,5,,82,0
7774,note_on,94,0,5,,,,,,,,,,4,,62,0
7774,note_on,94,0,7,,,,,,,,,,7,,43,0
7776,note_on,2,0,7,,,,,,,,,,7,,58,75
7776,note_on,2,0,5,,,,,,,,,,4,,74,60
7776,note_on,2,0,6,,,,,,,,,,6,,58,75
7776,note_on,2,0,3,,,,,,,,,,2,,79,110
7776,note_on,2,0,4,,,,,,,,,,5,,79,110
7870,note_on,94,0,5,,,,,,,,,,4,,74,0
7870,note_on,94,0,3,,,,,,,,,,2,,79,0
7870,note_on,94,0,4,,,,,,,,,,5,,79,0
7870,note_on,94,0,6,,,,,,,,,,6,,58,0
7870,note_on,94,0,7,,,,,,,,,,7,,58,0
7872,note_on,2,0,7,,,,,,,,,,7,,57,75
7872,note_on,2,0,5,,,,,,,,,,4,,72,60
7872,note_on,2,0,6,,,,,,,,,,6,,57,75
7966,note_on,94,0,6,,,,,,,,,,6,,57,0
7966,note_on,94,0,7,,,,,,,,,,7,,57,0
7966,note_on,94,0,5,,,,,,,,,,4,,72,0
7968,note_on,2,0,5,,,,,,,,,,4,,70,60
7968,note_on,98,0,3,,,,,,,,,,2,,79,110
7968,note_on,2,0,7,,,,,,,,,,7,,55,75
7968,note_on,98,0,4,,,,,,,,,,5,,79,110
7968,note_on,2,0,6,,,,,,,,,,6,,55,75
8014,note_on,46,0,3,,,,,,,,,,2,,79,0
8014,note_on,46,0,4,,,,,,,,,,5,,79,0
8016,note_on,2,0,4,,,,,,,,,,5,,77,110
8016,note_on,2,0,3,,,,,,,,,,2,,77,110
8062,note_on,94,0,6,,,,,,,,,,6,,55,0
8062,note_on,46,0,3,,,,,,,,,,2,,77,0
8062,note_on,94,0,7,,,,,,,,,,7,,55,0
8062,note_on,46,0,4,,,,,,,,,,5,,77,0
8062,note_on,94,0,5,,,,,,,,,,4,,70,0
8064,note_on,2,0,3,,,,,,,,,,2,,77,110
8064,note_on,2,0,4,,,,,,,,,,5,,77,110
8160,note_on,98,0,5,,,,,,,,,,4,,67,60
8160,note_on,98,0,7,,,,,,,,,,7,,60,75
8160,note_on,98,0,6,,,,,,,,,,6,,60,75
8206,note_on,46,0,7,,,,,,,,,,7,,60,0
8206,note_on,46,0,6,,,,,,,,,,6,,60,0
8208,note_on,2,0,6,,,,,,,,,,6,,58,75
8208,note_on,2,0,7,,,,,,,,,,7,,58,75
8224,note_on,160,0,3,,,,,,,,,,2,,77,0
8224,note_on,160,0,4,,,,,,,,,,5,,77,0
8254,note_on,46,0,7,,,,,,,,,,7,,58,0
8254,note_on,46,0,6,,,,,,,,,,6,,58,0
8254,note_on,94,0,5,,,,,,,,,,4,,67,0
8256,note_on,2,0,7,,,,,,,,,,7,,60,75
8256,note_on,32,0,3,,,,,,,,,,2,,76,110
8256,note_on,2,0,6,,,,,,,,,,6,,60,75
8256,note_on,32,0,4,,,,,,,,,,5,,76,110
8256,note_on,2,0,5,,,,,,,,,,4,,67,60
8350,note_on,94,0,7,,,,,,,,,,7,,60,0
8350,note_on,94,0,3,,,,,,,,,,2,,76,0
8350,note_on,94,0,4,,,,,,,,,,5,,76,0
8350,note_on,94,0,5,,,,,,,,,,4,,67,0
8350,note_on,94,0,6,,,,,,,,,,6,,60,0
8352,note_on,2,0,3,,,,,,,,,,2,,74,110
8352,note_on,2,0,5,,,,,,,,,,4,,67,60
8352,note_on,2,0,6,,,,,,,,,,6,,48,75
8352,note_on,2,0,7,,,,,,,,,,7,,48,75
8352,note_on,2,0,4,,,,,,,,,,5,,74,110
8398,note_on,46,0,3,,,,,,,,,,2,,74,0
8398,note_on,46,0,4,,,,,,,,,,5,,74,0
8400,note_on,2,0,3,,,,,,,,,,2,,72,110
8400,note_on,2,0,4,,,,,,,,,,5,,72,110
8446,note_on,94,0,6,,,,,,,,,,6,,48,0
8446,note_on,94,0,7,,,,,,,,,,7,,48,0
8446,note_on,94,0,5,,,,,,,,,,4,,67,0
8446,note_on,46,0,3,,,,,,,,,,2,,72,0
8446,note_on,46,0,4,,,,,,,,,,5,,72,0
8448,note_on,2,0,3,,,,,,,,,,2,,74,110
8448,note_on,2,0,4,,,,,,,,,,5,,74,110
8542,note_on,94,0,3,,,,,,,,,,2,,74,0
8542,note_on,94,0,4,,,,,,,,,,5,,74,0
8544,note_on,98,0,7,,,,,,,,,,7,,60,75
8544,note_on,2,0,3,,,,,,,,,,2,,76,110
8544,note_on,98,0,6,,,,,,,,,,6,,60,75
8544,note_on,98,0,5,,,,,,,,,,4,,67,60
8544,note_on,2,0,4,,,,,,,,,,5,,76,110
8638,note_on,94,0,4,,,,,,,,,,5,,76,0
8638,note_on,94,0,3,,,,,,,,,,2,,76,0
8638,note_on,94,0,6,,,,,,,,,,6,,60,0
8638,note_on,94,0,5,,,,,,,,,,4,,67,0
8638,note_on,94,0,7,,,,,,,,,,7,,60,0
8640,note_on,2,0,6,,,,,,,,,,6,,53,75
8640,note_on,2,0,5,,,,,,,,,,4,,69,60
8640,note_on,2,0,3,,,,,,,,,,2,,77,110
8640,note_on,2,0,7,,,,,,,,,,7,,53,75
8640,note_on,2,0,4,,,,,,,,,,5,,77,110
8734,note_on,94,0,3,,,,,,,,,,2,,77,0
8734,note_on,94,0,5,,,,,,,,,,4,,69,0
8734,note_on,94,0,7,,,,,,,,,,7,,53,0
8734,note_on,94,0,4,,,,,,,,,,5,,77,0
8734,note_on,94,0,6,,,,,,,,,,6,,53,0
8736,note_on,2,0,6,,,,,,,,,,6,,48,75
8736,note_on,2,0,5,,,,,,,,,,4,,64,60
8736,note_on,2,0,7,,,,,,,,,,7,,48,75
8736,note_on,2,0,3,,,,,,,,,,2,,79,110
8736,note_on,2,0,4,,,,,,,,,,5,,79,110
8830,note_on,94,0,3,,,,,,,,,,2,,79,0
8830,note_on,94,0,5,,,,,,,,,,4,,64,0
8830,note_on,94,0,7,,,,,,,,,,7,,48,0
8830,note_on,94,0,6,,,,,,,,,,6,,48,0
8830,note_on,94,0,4,,,,,,,,,,5,,79,0
8832,note_on,2,0,6,,,,,,,,,,6,,41,75
8832,note_on,2,0,3,,,,,,,,,,2,,81,110
8832,note_on,2,0,7,,,,,,,,,,7,,41,75
8832,note_on,2,0,5,,,,,,,,,,4,,60,60
8832,note_on,2,0,4,,,,,,,,,,5,,81,110
8926,note_on,94,0,7,,,,,,,,,,7,,41,0
8926,note_on,94,0,3,,,,,,,,,,2,,81,0
8926,note_on,94,0,5,,,,,,,,,,4,,60,0
8926,note_on,94,0,6,,,,,,,,,,6,,41,0
8926,note_on,94,0,4,,,,,,,,,,5,,81,0
8928,note_on,2,0,6,,,,,,,,,,6,,57,75
8928,note_on,2,0,5,,,,,,,,,,4,,72,60
8928,note_on,2,0,3,,,,,,,,,,2,,77,110
8928,note_on,2,0,7,,,,,,,,,,7,,57,75
8928,note_on,2,0,4,,,,,,,,,,5,,77,110
8974,note_on,46,0,7,,,,,,,,,,7,,57,0
8974,note_on,46,0,6,,,,,,,,,,6,,57,0
8974,note_on,46,0,5,,,,,,,,,,4,,72,0
8976,note_on,2,0,6,,,,,,,,,,6,,55,75
8976,note_on,2,0,5,,,,,,,,,,4,,70,60
8976,note_on,2,0,7,,,,,,,,,,7,,55,75
9022,note_on,94,0,3,,,,,,,,,,2,,77,0
9022,note_on,94,0,4,,,,,,,,,,5,,77,0
9022,note_on,46,0,7,,,,,,,,,,7,,55,0
9022,note_on,46,0,5,,,,,,,,,,4,,70,0
9022,note_on,46,0,6,,,,,,,,,,6,,55,0
9024,note_on,2,0,6,,,,,,,,,,6,,53,75
9024,note_on,2,0,5,,,,,,,,,,4,,69,60
9024,note_on,2,0,7,,,,,,,,,,7,,53,75
9118,note_on,94,0,6,,,,,,,,,,6,,53,0
9118,note_on,94,0,5,,,,,,,,,,4,,69,0
9118,note_on,94,0,7,,,,,,,,,,7,,53,0
9120,note_on,2,0,6,,,,,,,,,,6,,46,75
9120,note_on,2,0,5,,,,,,,,,,4,,58,60
9120,note_on,98,0,3,,,,,,,,,,2,,74,110
9120,note_on,2,0,7,,,,,,,,,,7,,46,75
9120,note_on,98,0,4,,,,,,,,,,5,,74,110
9214,note_on,94,0,5,,,,,,,,,,4,,58,0
9214,note_on,94,0,6,,,,,,,,,,6,,46,0
9214,note_on,94,0,3,,,,,,,,,,2,,74,0
9214,note_on,94,0,7,,,,,,,,,,7,,46,0
9214,note_on,94,0,4,,,,,,,,,,5,,74,0
9216,note_on,2,0,3,,,,,,,,,,2,,57,110
9216,note_on,2,0,5,,,,,,,,,,4,,57,60
9216,note_on,2,0,4,,,,,,,,,,5,,57,110
9216,note_on,2,0,7,,,,,,,,,,7,,45,75
9216,note_on,2,0,6,,,,,,,,,,6,,45,75
9310,note_on,94,0,3,,,,,,,,,,2,,57,0
9310,note_on,94,0,4,,,,,,,,,,5,,57,0
9312,note_on,2,0,4,,,,,,,,,,5,,74,110
9312,note_on,2,0,3,,,,,,,,,,2,,74,110
9376,note_on,160,0,5,,,,,,,,,,4,,57,0
9376,note_on,160,0,7,,,,,,,,,,7,,45,0
9376,note_on,160,0,6,,,,,,,,,,6,,45,0
9406,note_on,94,0,4,,,,,,,,,,5,,74,0
9406,note_on,94,0,3,,,,,,,,,,2,,74,0
9408,note_on,2,0,4,,,,,,,,,,5,,73,110
9408,note_on,2,0,3,,,,,,,,,,2,,73,110
9502,note_on,94,0,3,,,,,,,,,,2,,73,0
9502,note_on,94,0,4,,,,,,,,,,5,,73,0
9504,note_on,128,0,7,,,,,,,,,,7,,45,75
9504,note_on,2,0,4,,,,,,,,,,5,,57,110
9504,note_on,128,0,6,,,,,,,,,,6,,45,75
9504,note_on,128,0,5,,,,,,,,,,4,,57,60
9504,note_on,2,0,3,,,,,,,,,,2,,57,110
9598,note_on,94,0,4,,,,,,,,,,5,,57,0
9598,note_on,94,0,3,,,,,,,,,,2,,57,0
9598,note_on,94,0,6,,,,,,,,,,6,,45,0
9598,note_on,94,0,7,,,,,,,,,,7,,45,0
9598,note_on,94,0,5,,,,,,,,,,4,,57,0
9600,note_on,2,0,4,,,,,,,,,,5,,58,110
9600,note_on,2,0,7,,,,,,,,,,7,,46,75
9600,note_on,2,0,3,,,,,,,,,,2,,58,110
9600,note_on,2,0,6,,,,,,,,,,6,,46,75
9600,note_on,2,0,5,,,,,,,,,,4,,58,60
9694,note_on,94,0,3,,,,,,,,,,2,,58,0
9694,note_on,94,0,4,,,,,,,,,,5,,58,0
9696,note_on,2,0,4,,,,,,,,,,5,,82,110
9696,note_on,2,0,3,,,,,,,,,,2,,82,110
9760,note_on,160,0,6,,,,,,,,,,6,,46,0
9760,note_on,160,0,7,,,,,,,,,,7,,46,0
9760,note_on,160,0,5,,,,,,,,,,4,,58,0
9790,note_on,94,0,3,,,,,,,,,,2,,82,0
9790,note_on,94,0,4,,,,,,,,,,5,,82,0
9792,note_on,2,0,4,,,,,,,,,,5,,79,110
9792,note_on,2,0,3,,,,,,,,,,2,,79,110
9886,note_on,94,0,4,,,,,,,,,,5,,79,0
9886,note_on,94,0,3,,,,,,,,,,2,,79,0
9888,note_on,2,0,4,,,,,,,,,,5,,73,110
9888,note_on,128,0,6,,,,,,,,,,6,,55,75
9888,note_on,128,0,5,,,,,,,,,,4,,67,60
9888,note_on,2,0,3,,,,,,,,,,2,,73,110
9888,note_on,128,0,7,,,,,,,,,,7,,55,75
9982,note_on,94,0,3,,,,,,,,,,2,,73,0
9982,note_on,94,0,7,,,,,,,,,,7,,55,0
9982,note_on,94,0,5,,,,,,,,,,4,,67,0
9982,note_on,94,0,6,,,,,,,,,,6,,55,0
9982,note_on,94,0,4,,,,,,,,,,5,,73,0
9984,note_on,2,0,6,,,,,,,,,,6,,53,75
9984,note_on,2,0,3,,,,,,,,,,2,,74,110
9984,note_on,2,0,5,,,,,,,,,,4,,65,60
9984,note_on,2,0,4,,,,,,,,,,5,,74,110
9984,note_on,2,0,7,,,,,,,,,,7,,53,75
10078,note_on,94,0,4,,,,,,,,,,5,,74,0
10078,note_on,94,0,3,,,,,,,,,,2,,74,0
10080,note_on,2,0,4,,,,,,,,,,5,,67,110
10080,note_on,2,0,3,,,,,,,,,,2,,67,110
10144,note_on,160,0,6,,,,,,,,,,6,,53,0
10144,note_on,160,0,5,,,,,,,,,,4,,65,0
10144,note_on,160,0,7,,,,,,,,,,7,,53,0
10174,note_on,94,0,3,,,,,,,,,,2,,67,0
10174,note_on,94,0,4,,,,,,,,,,5,,67,0
10176,note_on,2,0,3,,,,,,,,,,2,,65,110
10176,note_on,2,0,4,,,,,,,,,,5,,65,110
10270,note_on,94,0,3,,,,,,,,,,2,,65,0
10270,note_on,94,0,4,,,,,,,,,,5,,65,0
10272,note_on,128,0,7,,,,,,,,,,7,,44,75
10272,note_on,128,0,6,,,,,,,,,,6,,44,75
10272,note_on,2,0,4,,,,,,,,,,5,,56,110
10272,note_on,128,0,5,,,,,,,,,,4,,56,60
10272,note_on,2,0,3,,,,,,,,,,2,,56,110
10366,note_on,94,0,5,,,,,,,,,,4,,56,0
10366,note_on,94,0,7,,,,,,,,,,7,,44,0
10366,note_on,94,0,6,,,,,,,,,,6,,44,0
10366,note_on,94,0,4,,,,,,,,,,5,,56,0
10366,note_on,94,0,3,,,,,,,,,,2,,56,0
10368,note_on,2,0,3,,,,,,,,,,2,,57,110
10368,note_on,2,0,5,,,,,,,,,,4,,57,60
10368,note_on,2,0,7,,,,,,,,,,7,,45,75
10368,note_on,2,0,6,,,,,,,,,,6,,45,75
10368,note_on,2,0,4,,,,,,,,,,5,,57,110
10462,note_on,94,0,4,,,,,,,,,,5,,57,0
10462,note_on,94,0,5,,,,,,,,,,4,,57,0
10462,note_on,94,0,6,,,,,,,,,,6,,45,0
10462,note_on,94,0,3,,,,,,,,,,2,,57,0
10462,note_on,94,0,7,,,,,,,,,,7,,45,0
10464,note_on,2,0,5,,,,,,,,,,4,,64,60
10464,note_on,2,0,4,,,,,,,,,,5,,79,110
10464,note_on,2,0,6,,,,,,,,,,6,,61,75
10464,note_on,2,0,7,,,,,,,,,,7,,61,75
10464,note_on,2,0,3,,,,,,,,,,2,,79,110
10558,note_on,94,0,3,,,,,,,,,,2,,79,0
10558,note_on,94,0,4,,,,,,,,,,5,,79,0
10558,note_on,94,0,6,,,,,,,,,,6,,61,0
10558,note_on,94,0,5,,,,,,,,,,4,,64,0
10558,note_on,94,0,7,,,,,,,,,,7,,61,0
10560,note_on,2,0,4,,,,,,,,,,5,,77,110
10560,note_on,2,0,6,,,,,,,,,,6,,62,75
10560,note_on,2,0,5,,,,,,,,,,4,,65,60
10560,note_on,2,0,7,,,,,,,,,,7,,62,75
10560,note_on,2,0,3,,,,,,,,,,2,,77,110
10606,note_on,46,0,3,,,,,,,,,,2,,77,0
10606,note_on,46,0,4,,,,,,,,,,5,,77,0
10608,note_on,2,0,4,,,,,,,,,,5,,79,110
10608,note_on,2,0,3,,,,,,,,,,2,,79,110
10630,note_on,22,0,3,,,,,,,,,,2,,79,0
10630,note_on,22,0,4,,,,,,,,,,5,,79,0
10632,note_on,2,0,4,,,,,,,,,,5,,81,110
10632,note_on,2,0,3,,,,,,,,,,2,,81,110
10654,note_on,94,0,6,,,,,,,,,,6,,62,0
10654,note_on,22,0,4,,,,,,,,,,5,,81,0
10654,note_on,94,0,7,,,,,,,,,,7,,62,0
10654,note_on,22,0,3,,,,,,,,,,2,,81,0
10654,note_on,94,0,5,,,,,,,,,,4,,65,0
10656,note_on,2,0,3,,,,,,,,,,2,,73,110
10656,note_on,2,0,5,,,,,,,,,,4,,64,60
10656,note_on,2,0,4,,,,,,,,,,5,,73,110
10656,note_on,2,0,7,,,,,,,,,,7,,57,75
10656,note_on,2,0,6,,,,,,,,,,6,,57,75
10750,note_on,94,0,5,,,,,,,,,,4,,64,0
10750,note_on,94,0,3,,,,,,,,,,2,,73,0
10750,note_on,94,0,7,,,,,,,,,,7,,57,0
10750,note_on,94,0,6,,,,,,,,,,6,,57,0
10750,note_on,94,0,4,,,,,,,,,,5,,73,0
10752,note_on,2,0,6,,,,,,,,,,6,,53,75
10752,note_on,2,0,7,,,,,,,,,,7,,53,75
10752,note_on,2,0,3,,,,,,,,,,2,,74,110
10752,note_on,2,0,4,,,,,,,,,,5,,74,110
10752,note_on,2,0,5,,,,,,,,,,4,,69,60
10846,note_on,94,0,3,,,,,,,,,,2,,74,0
10846,note_on,94,0,4,,,,,,,,,,5,,74,0
10846,note_on,94,0,6,,,,,,,,,,6,,53,0
10846,note_on,94,0,5,,,,,,,,,,4,,69,0
10846,note_on,94,0,7,,,,,,,,,,7,,53,0
10848,note_on,2,0,7,,,,,,,,,,7,,52,75
10848,note_on,2,0,4,,,,,,,,,,5,,79,110
10848,note_on,2,0,6,,,,,,,,,,6,,52,75
10848,note_on,2,0,5,,,,,,,,,,4,,61,60
10848,note_on,2,0,3,,,,,,,,,,2,,79,110
10942,note_on,94,0,5,,,,,,,,,,4,,61,0
10942,note_on,94,0,4,,,,,,,,,,5,,79,0
10942,note_on,94,0,3,,,,,,,,,,2,,79,0
10942,note_on,94,0,7,,,,,,,,,,7,,52,0
10942,note_on,94,0,6,,,,,,,,,,6,,52,0
10944,note_on,2,0,7,,,,,,,,,,7,,50,75
10944,note_on,2,0,5,,,,,,,,,,4,,57,60
10944,note_on,2,0,6,,,,,,,,,,6,,50,75
10944,note_on,2,0,4,,,,,,,,,,5,,77,110
10944,note_on,2,0,3,,,,,,,,,,2,,77,110
10990,note_on,46,0,4,,,,,,,,,,5,,77,0
10990,note_on,46,0,3,,,,,,,,,,2,,77,0
10992,note_on,2,0,4,,,,,,,,,,5,,79,110
10992,note_on,2,0,3,,,,,,,,,,2,,79,110
11014,note_on,22,0,3,,,,,,,,,,2,,79,0
11014,note_on,22,0,4,,,,,,,,,,5,,79,0
11016,note_on,2,0,3,,,,,,,,,,2,,81,110
11016,note_on,2,0,4,,,,,,,,,,5,,81,110
11038,note_on,22,0,4,,,,,,,,,,5,,81,0
11038,note_on,22,0,3,,,,,,,,,,2,,81,0
11038,note_on,94,0,6,,,,,,,,,,6,,50,0
11038,note_on,94,0,5,,,,,,,,,,4,,57,0
11038,note_on,94,0,7,,,,,,,,,,7,,50,0
11040,note_on,2,0,3,,,,,,,,,,2,,61,110
11040,note_on,2,0,5,,,,,,,,,,4,,57,60
11040,note_on,2,0,4,,,,,,,,,,5,,61,110
11040,note_on,2,0,6,,,,,,,,,,6,,45,75
11040,note_on,2,0,7,,,,,,,,,,7,,45,75
11134,note_on,94,0,6,,,,,,,,,,6,,45,0
11134,note_on,94,0,3,,,,,,,,,,2,,61,0
11134,note_on,94,0,4,,,,,,,,,,5,,61,0
11134,note_on,94,0,5,,,,,,,,,,4,,57,0
11134,note_on,94,0,7,,,,,,,,,,7,,45,0
11136,note_on,2,0,4,,,,,,,,,,5,,62,110
11136,note_on,2,0,5,,,,,,,,,,4,,53,60
11136,note_on,2,0,7,,,,,,,,,,7,,50,75
11136,note_on,2,0,6,,,,,,,,,,6,,50,75
11136,note_on,2,0,3,,,,,,,,,,2,,62,110
11230,note_on,94,0,7,,,,,,,,,,7,,50,0
11230,note_on,94,0,5,,,,,,,,,,4,,53,0
11230,note_on,94,0,6,,,,,,,,,,6,,50,0
11230,note_on,94,0,3,,,,,,,,,,2,,62,0
11230,note_on,94,0,4,,,,,,,,,,5,,62,0
11232,note_on,2,0,5,,,,,,,,,,4,,64,60
11232,note_on,2,0,3,,,,,,,,,,2,,79,110
11232,note_on,2,0,4,,,,,,,,,,5,,79,110
11232,note_on,2,0,7,,,,,,,,,,7,,61,75
11232,note_on,2,0,6,,,,,,,,,,6,,61,75
11326,note_on,94,0,4,,,,,,,,,,5,,79,0
11326,note_on,94,0,5,,,,,,,,,,4,,64,0
11326,note_on,94,0,7,,,,,,,,,,7,,61,0
11326,note_on,94,0,3,,,,,,,,,,2,,79,0
11326,note_on,94,0,6,,,,,,,,,,6,,61,0
11328,note_on,2,0,6,,,,,,,,,,6,,62,75
11328,note_on,2,0,5,,,,,,,,,,4,,65,60
11328,note_on,2,0,7,,,,,,,,,,7,,62,75
11328,note_on,2,0,3,,,,,,,,,,2,,77,110
11328,note_on,2,0,4,,,,,,,,,,5,,77,110
11374,note_on,46,0,4,,,,,,,,,,5,,77,0
11374,note_on,46,0,3,,,,,,,,,,2,,77,0
11376,note_on,2,0,4,,,,,,,,,,5,,79,110
11376,note_on,2,0,3,,,,,,,,,,2,,79,110
11398,note_on,22,0,4,,,,,,,,,,5,,79,0
11398,note_on,22,0,3,,,,,,,,,,2,,79,0
11400,note_on,2,0,4,,,,,,,,,,5,,81,110
11400,note_on,2,0,3,,,,,,,,,,2,,81,110
11422,note_on,22,0,4,,,,,,,,,,5,,81,0
11422,note_on,94,0,6,,,,,,,,,,6,,62,0
11422,note_on,94,0,7,,,,,,,,,,7,,62,0
11422,note_on,94,0,5,,,,,,,,,,4,,65,0
11422,note_on,22,0,3,,,,,,,,,,2,,81,0
11424,note_on,2,0,3,,,,,,,,,,2,,73,110
11424,note_on,2,0,4,,,,,,,,,,5,,73,110
11424,note_on,2,0,7,,,,,,,,,,7,,57,75
11424,note_on,2,0,5,,,,,,,,,,4,,64,60
11424,note_on,2,0,6,,,,,,,,,,6,,57,75
11518,note_on,94,0,5,,,,,,,,,,4,,64,0
11518,note_on,94,0,7,,,,,,,,,,7,,57,0
11518,note_on,94,0,4,,,,,,,,,,5,,73,0
11518,note_on,94,0,3,,,,,,,,,,2,,73,0
11518,note_on,94,0,6,,,,,,,,,,6,,57,0
11520,note_on,2,0,6,,,,,,,,,,6,,53,75
11520,note_on,2,0,5,,,,,,,,,,4,,69,60
11520,note_on,2,0,7,,,,,,,,,,7,,53,75
11520,note_on,2,0,4,,,,,,,,,,5,,74,110
11520,note_on,2,0,3,,,,,,,,,,2,,74,110
11614,note_on,94,0,6,,,,,,,,,,6,,53,0
11614,note_on,94,0,5,,,,,,,,,,4,,69,0
11614,note_on,94,0,3,,,,,,,,,,2,,74,0
11614,note_on,94,0,7,,,,,,,,,,7,,53,0
11614,note_on,94,0,4,,,,,,,,,,5,,74,0
11616,note_on,2,0,5,,,,,,,,,,4,,61,60
11616,note_on,2,0,6,,,,,,,,,,6,,52,75
11616,note_on,2,0,3,,,,,,,,,,2,,79,110
11616,note_on,2,0,4,,,,,,,,,,5,,79,110
11616,note_on,2,0,7,,,,,,,,,,7,,52,75
11710,note_on,94,0,4,,,,,,,,,,5,,79,0
11710,note_on,94,0,7,,,,,,,,,,7,,52,0
11710,note_on,94,0,5,,,,,,,,,,4,,61,0
11710,note_on,94,0,6,,,,,,,,,,6,,52,0
11710,note_on,94,0,3,,,,,,,,,,2,,79,0
11712,note_on,2,0,6,,,,,,,,,,6,,50,75
11712,note_on,2,0,3,,,,,,,,,,2,,77,110
11712,note_on,2,0,5,,,,,,,,,,4,,57,60
11712,note_on,2,0,7,,,,,,,,,,7,,50,75
11712,note_on,2,0,4,,,,,,,,,,5,,77,110
11758,note_on,46,0,4,,,,,,,,,,5,,77,0
11758,note_on,46,0,3,,,,,,,,,,2,,77,0
11760,note_on,2,0,4,,,,,,,,,,5,,79,110
11760,note_on,2,0,3,,,,,,,,,,2,,79,110
11782,note_on,22,0,3,,,,,,,,,,2,,79,0
11782,note_on,22,0,4,,,,,,,,,,5,,79,0
11784,note_on,2,0,4,,,,,,,,,,5,,81,110
11784,note_on,2,0,3,,,,,,,,,,2,,81,110
11806,note_on,94,0,5,,,,,,,,,,4,,57,0
11806,note_on,94,0,6,,,,,,,,,,6,,50,0
11806,note_on,22,0,4,,,,,,,,,,5,,81,0
11806,note_on,94,0,7,,,,,,,,,,7,,50,0
11806,note_on,22,0,3,,,,,,,,,,2,,81,0
11808,note_on,2,0,3,,,,,,,,,,2,,61,110
11808,note_on,2,0,4,,,,,,,,,,5,,61,110
11808,note_on,2,0,7,,,,,,,,,,7,,45,75
11808,note_on,2,0,6,,,,,,,,,,6,,45,75
11808,note_on,2,0,5,,,,,,,,,,4,,57,60
11902,note_on,94,0,6,,,,,,,,,,6,,45,0
11902,note_on,94,0,7,,,,,,,,,,7,,45,0
11902,note_on,94,0,3,,,,,,,,,,2,,61,0
11902,note_on,94,0,5,,,,,,,,,,4,,57,0
11902,note_on,94,0,4,,,,,,,,,,5,,61,0
11904,note_on,2,0,7,,,,,,,,,,7,,50,75
11904,note_on,2,0,3,,,,,,,,,,2,,62,92
11904,note_on,2,0,5,,,,,,,,,,4,,53,60
11904,note_on,2,0,4,,,,,,,,,,5,,62,110
11904,note_on,2,0,6,,,,,,,,,,6,,50,75
12064,note_on,160,0,5,,,,,,,,,,4,,53,0
12064,note_on,160,0,6,,,,,,,,,,6,,50,0
12064,note_on,160,0,4,,,,,,,,,,5,,62,0
12064,note_on,160,0,3,,,,,,,,,,2,,62,0
12064,note_on,160,0,7,,,,,,,,,,7,,50,0
12192,control_change,128,0,3,,,,,,,,10,0,2,,,
12192,control_change,128,0,4,,,,,,,,10,0,5,,,
12192,note_on,0,0,1,,,,,,,,,,0,,74,110
12192,note_on,12192,0,1,,,,,,,,,,0,,69,110
12192,note_on,0,0,3,,,,,,,,,,2,,62,92
12192,note_on,0,0,4,,,,,,,,,,5,,62,110
12286,note_on,94,0,4,,,,,,,,,,5,,62,0
12286,note_on,94,0,1,,,,,,,,,,0,,69,0
12286,note_on,94,0,3,,,,,,,,,,2,,62,0
12286,note_on,0,0,1,,,,,,,,,,0,,74,0
12288,note_on,2,0,1,,,,,,,,,,0,,69,110
12288,note_on,0,0,1,,,,,,,,,,0,,74,110
12288,note_on,2,0,4,,,,,,,,,,5,,65,110
12288,note_on,2,0,3,,,,,,,,,,2,,65,92
12382,note_on,94,0,4,,,,,,,,,,5,,65,0
12382,note_on,94,0,3,,,,,,,,,,2,,65,0
12382,note_on,0,0,1,,,,,,,,,,0,,74,0
12382,note_on,94,0,1,,,,,,,,,,0,,69,0
12384,note_on,2,0,3,,,,,,,,,,2,,62,92
12384,note_on,2,0,1,,,,,,,,,,0,,76,110
12384,note_on,2,0,4,,,,,,,,,,5,,62,110
12430,note_on,46,0,1,,,,,,,,,,0,,76,0
12432,note_on,2,0,1,,,,,,,,,,0,,77,110
12478,note_on,94,0,4,,,,,,,,,,5,,62,0
12478,note_on,94,0,3,,,,,,,,,,2,,62,0
12478,note_on,46,0,1,,,,,,,,,,0,,77,0
12480,note_on,2,0,3,,,,,,,,,,2,,61,92
12480,note_on,2,0,4,,,,,,,,,,5,,61,110
12480,note_on,2,0,1,,,,,,,,,,0,,69,110
12480,note_on,0,0,1,,,,,,,,,,0,,76,110
12574,note_on,94,0,1,,,,,,,,,,0,,69,0
12574,note_on,0,0,1,,,,,,,,,,0,,76,0
12574,note_on,94,0,4,,,,,,,,,,5,,61,0
12574,note_on,94,0,3,,,,,,,,,,2,,61,0
12576,note_on,2,0,1,,,,,,,,,,0,,77,110
12576,note_on,2,0,4,,,,,,,,,,5,,57,110
12576,note_on,2,0,3,,,,,,,,,,2,,57,92
12622,note_on,46,0,1,,,,,,,,,,0,,77,0
12624,note_on,2,0,1,,,,,,,,,,0,,79,110
12670,note_on,94,0,4,,,,,,,,,,5,,57,0
12670,note_on,94,0,3,,,,,,,,,,2,,57,0
12670,note_on,46,0,1,,,,,,,,,,0,,79,0
12672,note_on,2,0,3,,,,,,,,,,2,,62,92
12672,note_on,2,0,1,,,,,,,,,,0,,69,110
12672,note_on,2,0,4,,,,,,,,,,5,,62,110
12672,note_on,0,0,1,,,,,,,,,,0,,77,110
12766,note_on,94,0,3,,,,,,,,,,2,,62,0
12766,note_on,94,0,1,,,,,,,,,,0,,69,0
12766,note_on,0,0,1,,,,,,,,,,0,,77,0
12766,note_on,94,0,4,,,,,,,,,,5,,62,0
12768,note_on,2,0,4,,,,,,,,,,5,,69,110
12768,note_on,2,0,3,,,,,,,,,,2,,69,92
12768,note_on,2,0,1,,,,,,,,,,0,,76,110
12862,note_on,94,0,3,,,,,,,,,,2,,69,0
12862,note_on,94,0,4,,,,,,,,,,5,,69,0
12862,note_on,94,0,1,,,,,,,,,,0,,76,0
12864,note_on,2,0,1,,,,,,,,,,0,,69,110
12864,note_on,0,0,1,,,,,,,,,,0,,76,110
12864,note_on,2,0,3,,,,,,,,,,2,,67,92
12864,note_on,2,0,4,,,,,,,,,,5,,67,110
12958,note_on,94,0,3,,,,,,,,,,2,,67,0
12958,note_on,94,0,4,,,,,,,,,,5,,67,0
12958,note_on,0,0,1,,,,,,,,,,0,,76,0
12958,note_on,94,0,1,,,,,,,,,,0,,69,0
12960,note_on,0,0,1,,,,,,,,,,0,,76,110
12960,note_on,2,0,1,,,,,,,,,,0,,69,110
12960,note_on,2,0,3,,,,,,,,,,2,,64,92
12960,note_on,2,0,4,,,,,,,,,,5,,64,110
13054,note_on,0,0,1,,,,,,,,,,0,,76,0
13054,note_on,94,0,3,,,,,,,,,,2,,64,0
13054,note_on,94,0,4,,,,,,,,,,5,,64,0
13054,note_on,94,0,1,,,,,,,,,,0,,69,0
13056,note_on,2,0,4,,,,,,,,,,5,,61,110
13056,note_on,2,0,3,,,,,,,,,,2,,61,92
13056,note_on,0,0,1,,,,,,,,,,0,,76,110
13056,note_on,2,0,1,,,,,,,,,,0,,69,110
13150,note_on,94,0,4,,,,,,,,,,5,,61,0
13150,note_on,0,0,1,,,,,,,,,,0,,76,0
13150,note_on,94,0,1,,,,,,,,,,0,,69,0
13150,note_on,94,0,3,,,,,,,,,,2,,61,0
13152,note_on,2,0,1,,,,,,,,,,0,,77,110
13152,note_on,2,0,4,,,,,,,,,,5,,57,110
13152,note_on,2,0,3,,,,,,,,,,2,,57,92
13198,note_on,46,0,1,,,,,,,,,,0,,77,0
13200,note_on,2,0,1,,,,,,,,,,0,,79,110
13246,note_on,46,0,1,,,,,,,,,,0,,79,0
13246,note_on,94,0,4,,,,,,,,,,5,,57,0
13246,note_on,94,0,3,,,,,,,,,,2,,57,0
13248,note_on,2,0,1,,,,,,,,,,0,,69,110
13248,note_on,2,0,3,,,,,,,,,,2,,62,92
13248,note_on,2,0,4,,,,,,,,,,5,,62,110
13248,note_on,0,0,1,,,,,,,,,,0,,77,110
13342,note_on,94,0,1,,,,,,,,,,0,,69,0
13342,note_on,0,0,1,,,,,,,,,,0,,77,0
13342,note_on,94,0,4,,,,,,,,,,5,,62,0
13342,note_on,94,0,3,,,,,,,,,,2,,62,0
13344,note_on,2,0,4,,,,,,,,,,5,,57,110
13344,note_on,2,0,1,,,,,,,,,,0,,76,110
13344,note_on,2,0,3,,,,,,,,,,2,,57,92
13438,note_on,94,0,3,,,,,,,,,,2,,57,0
13438,note_on,94,0,1,,,,,,,,,,0,,76,0
13438,note_on,94,0,4,,,,,,,,,,5,,57,0
13440,note_on,2,0,4,,,,,,,,,,5,,62,110
13440,note_on,2,0,3,,,,,,,,,,2,,62,92
13440,note_on,0,0,1,,,,,,,,,,0,,77,110
13440,note_on,2,0,1,,,,,,,,,,0,,69,110
13534,note_on,94,0,4,,,,,,,,,,5,,62,0
13534,note_on,0,0,1,,,,,,,,,,0,,77,0
13534,note_on,94,0,1,,,,,,,,,,0,,69,0
13534,note_on,94,0,3,,,,,,,,,,2,,62,0
13536,note_on,2,0,3,,,,,,,,,,2,,64,92
13536,note_on,2,0,1,,,,,,,,,,0,,74,110
13536,note_on,2,0,4,,,,,,,,,,5,,64,110
13630,note_on,94,0,1,,,,,,,,,,0,,74,0
13630,note_on,94,0,3,,,,,,,,,,2,,64,0
13630,note_on,94,0,4,,,,,,,,,,5,,64,0
13632,note_on,0,0,1,,,,,,,,,,0,,74,110
13632,note_on,2,0,4,,,,,,,,,,5,,65,110
13632,note_on,2,0,1,,,,,,,,,,0,,69,110
13632,note_on,2,0,3,,,,,,,,,,2,,65,92
13726,note_on,94,0,1,,,,,,,,,,0,,69,0
13726,note_on,94,0,4,,,,,,,,,,5,,65,0
13726,note_on,94,0,3,,,,,,,,,,2,,65,0
13726,note_on,0,0,1,,,,,,,,,,0,,74,0
13728,note_on,2,0,1,,,,,,,,,,0,,74,110
13728,note_on,0,0,1,,,,,,,,,,0,,77,110
13728,note_on,2,0,4,,,,,,,,,,5,,62,110
13728,note_on,2,0,3,,,,,,,,,,2,,62,92
13822,note_on,94,0,1,,,,,,,,,,0,,74,0
13822,note_on,0,0,1,,,,,,,,,,0,,77,0
13822,note_on,94,0,3,,,,,,,,,,2,,62,0
13822,note_on,94,0,4,,,,,,,,,,5,,62,0
13824,note_on,2,0,1,,,,,,,,,,0,,74,110
13824,note_on,0,0,1,,,,,,,,,,0,,77,110
13824,note_on,2,0,3,,,,,,,,,,2,,74,92
13824,note_on,2,0,4,,,,,,,,,,5,,74,110
13918,note_on,94,0,4,,,,,,,,,,5,,74,0
13918,note_on,94,0,3,,,,,,,,,,2,,74,0
13918,note_on,0,0,1,,,,,,,,,,0,,77,0
13918,note_on,94,0,1,,,,,,,,,,0,,74,0
13920,note_on,2,0,3,,,,,,,,,,2,,62,92
13920,note_on,2,0,4,,,,,,,,,,5,,62,110
13920,note_on,2,0,1,,,,,,,,,,0,,81,110
14014,note_on,94,0,1,,,,,,,,,,0,,81,0
14014,note_on,94,0,4,,,,,,,,,,5,,62,0
14014,note_on,94,0,3,,,,,,,,,,2,,62,0
14016,note_on,2,0,1,,,,,,,,,,0,,81,110
14016,note_on,2,0,4,,,,,,,,,,5,,62,110
14016,note_on,2,0,3,,,,,,,,,,2,,62,92
14110,note_on,94,0,3,,,,,,,,,,2,,62,0
14110,note_on,94,0,1,,,,,,,,,,0,,81,0
14110,note_on,94,0,4,,,,,,,,,,5,,62,0
14112,note_on,2,0,4,,,,,,,,,,5,,74,110
14112,note_on,2,0,3,,,,,,,,,,2,,74,92
14112,note_on,2,0,1,,,,,,,,,,0,,79,110
14158,note_on,46,0,1,,,,,,,,,,0,,79,0
14160,note_on,2,0,1,,,,,,,,,,0,,77,110
14206,note_on,46,0,1,,,,,,,,,,0,,77,0
14206,note_on,94,0,3,,,,,,,,,,2,,74,0
14206,note_on,94,0,4,,,,,,,,,,5,,74,0
14208,note_on,2,0,3,,,,,,,,,,2,,69,92
14208,note_on,2,0,4,,,,,,,,,,5,,69,110
14208,note_on,2,0,1,,,,,,,,,,0,,73,110
14208,note_on,0,0,1,,,,,,,,,,0,,76,110
14302,note_on,94,0,4,,,,,,,,,,5,,69,0
14302,note_on,94,0,1,,,,,,,,,,0,,73,0
14302,note_on,0,0,1,,,,,,,,,,0,,76,0
14302,note_on,94,0,3,,,,,,,,,,2,,69,0
14304,note_on,2,0,1,,,,,,,,,,0,,79,110
14304,note_on,2,0,3,,,,,,,,,,2,,57,92
14304,note_on,2,0,4,,,,,,,,,,5,,57,110
14398,note_on,94,0,1,,,,,,,,,,0,,79,0
14398,note_on,94,0,4,,,,,,,,,,5,,57,0
14398,note_on,94,0,3,,,,,,,,,,2,,57,0
14400,note_on,2,0,4,,,,,,,,,,5,,57,110
14400,note_on,2,0,1,,,,,,,,,,0,,79,110
14400,note_on,2,0,3,,,,,,,,,,2,,57,92
14494,note_on,94,0,3,,,,,,,,,,2,,57,0
14494,note_on,94,0,4,,,,,,,,,,5,,57,0
14494,note_on,94,0,1,,,,,,,,,,0,,79,0
14496,note_on,2,0,3,,,,,,,,,,2,,69,92
14496,note_on,2,0,4,,,,,,,,,,5,,69,110
14496,note_on,2,0,1,,,,,,,,,,0,,77,110
14542,note_on,46,0,1,,,,,,,,,,0,,77,0
14544,note_on,2,0,1,,,,,,,,,,0,,76,110
14590,note_on,94,0,3,,,,,,,,,,2,,69,0
14590,note_on,94,0,4,,,,,,,,,,5,,69,0
14590,note_on,46,0,1,,,,,,,,,,0,,76,0
14592,note_on,2,0,3,,,,,,,,,,2,,74,92
14592,note_on,2,0,4,,,,,,,,,,5,,74,110
14592,note_on,2,0,1,,,,,,,,,,0,,74,110
14592,note_on,0,0,1,,,,,,,,,,0,,77,110
14686,note_on,0,0,1,,,,,,,,,,0,,77,0
14686,note_on,94,0,4,,,,,,,,,,5,,74,0
14686,note_on,94,0,3,,,,,,,,,,2,,74,0
14686,note_on,94,0,1,,,,,,,,,,0,,74,0
14688,note_on,2,0,4,,,,,,,,,,5,,62,110
14688,note_on,2,0,3,,,,,,,,,,2,,62,92
14688,note_on,2,0,1,,,,,,,,,,0,,81,110
14782,note_on,94,0,1,,,,,,,,,,0,,81,0
14782,note_on,94,0,3,,,,,,,,,,2,,62,0
14782,note_on,94,0,4,,,,,,,,,,5,,62,0
14784,note_on,2,0,3,,,,,,,,,,2,,62,92
14784,note_on,2,0,1,,,,,,,,,,0,,81,110
14784,note_on,2,0,4,,,,,,,,,,5,,62,110
14878,note_on,94,0,3,,,,,,,,,,2,,62,0
14878,note_on,94,0,1,,,,,,,,,,0,,81,0
14878,note_on,94,0,4,,,,,,,,,,5,,62,0
14880,note_on,2,0,1,,,,,,,,,,0,,79,110
14880,note_on,2,0,3,,,,,,,,,,2,,67,92
14880,note_on,2,0,4,,,,,,,,,,5,,67,110
14926,note_on,46,0,1,,,,,,,,,,0,,79,0
14928,note_on,2,0,1,,,,,,,,,,0,,77,110
14974,note_on,94,0,3,,,,,,,,,,2,,67,0
14974,note_on,46,0,1,,,,,,,,,,0,,77,0
14974,note_on,94,0,4,,,,,,,,,,5,,67,0
14976,note_on,2,0,4,,,,,,,,,,5,,69,110
14976,note_on,0,0,1,,,,,,,,,,0,,77,110
14976,note_on,2,0,3,,,,,,,,,,2,,69,92
14976,note_on,2,0,1,,,,,,,,,,0,,69,110
15070,note_on,94,0,4,,,,,,,,,,5,,69,0
15070,note_on,0,0,1,,,,,,,,,,0,,77,0
15070,note_on,94,0,1,,,,,,,,,,0,,69,0
15070,note_on,94,0,3,,,,,,,,,,2,,69,0
15072,note_on,0,0,1,,,,,,,,,,0,,76,110
15072,note_on,2,0,3,,,,,,,,,,2,,57,92
15072,note_on,2,0,4,,,,,,,,,,5,,57,110
15072,note_on,2,0,1,,,,,,,,,,0,,69,110
15166,note_on,94,0,4,,,,,,,,,,5,,57,0
15166,note_on,94,0,1,,,,,,,,,,0,,69,0
15166,note_on,0,0,1,,,,,,,,,,0,,76,0
15166,note_on,94,0,3,,,,,,,,,,2,,57,0
15168,note_on,0,0,4,,,,,,,,,,5,,62,92
15168,control_change,2,0,3,,,,,,,,10,127,2,,,
15168,note_on,0,0,3,,,,,,,,,,2,,62,92
15168,control_change,2,0,4,,,,,,,,10,127,5,,,
15216,note_on,15216,0,2,,,,,,,,,,1,,77,110
15262,note_on,94,0,3,,,,,,,,,,2,,62,0
15262,note_on,46,0,2,,,,,,,,,,1,,77,0
15262,note_on,94,0,4,,,,,,,,,,5,,62,0
15264,note_on,2,0,4,,,,,,,,,,5,,64,92
15264,note_on,2,0,3,,,,,,,,,,2,,64,92
15264,note_on,2,0,2,,,,,,,,,,1,,79,110
15310,note_on,46,0,2,,,,,,,,,,1,,79,0
15312,note_on,2,0,2,,,,,,,,,,1,,81,110
15358,note_on,46,0,2,,,,,,,,,,1,,81,0
15358,note_on,94,0,4,,,,,,,,,,5,,64,0
15358,note_on,94,0,3,,,,,,,,,,2,,64,0
15360,note_on,2,0,2,,,,,,,,,,1,,81,110
15360,note_on,2,0,4,,,,,,,,,,5,,65,92
15360,note_on,2,0,3,,,,,,,,,,2,,65,92
15406,note_on,46,0,2,,,,,,,,,,1,,81,0
15408,note_on,2,0,2,,,,,,,,,,1,,77,110
15454,note_on,46,0,2,,,,,,,,,,1,,77,0
15454,note_on,94,0,3,,,,,,,,,,2,,65,0
15454,note_on,94,0,4,,,,,,,,,,5,,65,0
15456,note_on,2,0,2,,,,,,,,,,1,,77,110
15456,note_on,2,0,4,,,,,,,,,,5,,64,92
15456,note_on,2,0,3,,,,,,,,,,2,,64,92
15502,note_on,46,0,2,,,,,,,,,,1,,77,0
15504,note_on,2,0,2,,,,,,,,,,1,,74,110
15550,note_on,94,0,3,,,,,,,,,,2,,64,0
15550,note_on,46,0,2,,,,,,,,,,1,,74,0
15550,note_on,94,0,4,,,,,,,,,,5,,64,0
15552,note_on,2,0,3,,,,,,,,,,2,,65,92
15552,note_on,2,0,2,,,,,,,,,,1,,74,110
15552,note_on,2,0,4,,,,,,,,,,5,,65,92
15598,note_on,46,0,2,,,,,,,,,,1,,74,0
15600,note_on,2,0,2,,,,,,,,,,1,,69,110
15646,note_on,46,0,2,,,,,,,,,,1,,69,0
15646,note_on,94,0,3,,,,,,,,,,2,,65,0
15646,note_on,94,0,4,,,,,,,,,,5,,65,0
15648,note_on,2,0,2,,,,,,,,,,1,,69,110
15648,note_on,2,0,4,,,,,,,,,,5,,62,92
15648,note_on,2,0,3,,,,,,,,,,2,,62,92
15694,note_on,46,0,2,,,,,,,,,,1,,69,0
15696,note_on,2,0,2,,,,,,,,,,1,,70,110
15742,note_on,94,0,3,,,,,,,,,,2,,62,0
15742,note_on,94,0,4,,,,,,,,,,5,,62,0
15742,note_on,46,0,2,,,,,,,,,,1,,70,0
15744,note_on,2,0,2,,,,,,,,,,1,,70,110
15744,note_on,2,0,4,,,,,,,,,,5,,55,92
15744,note_on,2,0,3,,,,,,,,,,2,,55,92
15790,note_on,46,0,2,,,,,,,,,,1,,70,0
15792,note_on,2,0,2,,,,,,,,,,1,,74,110
15838,note_on,94,0,4,,,,,,,,,,5,,55,0
15838,note_on,94,0,3,,,,,,,,,,2,,55,0
15838,note_on,46,0,2,,,,,,,,,,1,,74,0
15840,note_on,2,0,4,,,,,,,,,,5,,57,92
15840,note_on,2,0,2,,,,,,,,,,1,,74,110
15840,note_on,2,0,3,,,,,,,,,,2,,57,92
15886,note_on,46,0,2,,,,,,,,,,1,,74,0
15888,note_on,2,0,2,,,,,,,,,,1,,79,110
15934,note_on,94,0,3,,,,,,,,,,2,,57,0
15934,note_on,46,0,2,,,,,,,,,,1,,79,0
15934,note_on,94,0,4,,,,,,,,,,5,,57,0
15936,note_on,2,0,4,,,,,,,,,,5,,58,92
15936,note_on,2,0,2,,,,,,,,,,1,,79,110
15936,note_on,2,0,3,,,,,,,,,,2,,58,92
15982,note_on,46,0,2,,,,,,,,,,1,,79,0
15984,note_on,2,0,2,,,,,,,,,,1,,74,110
16030,note_on,46,0,2,,,,,,,,,,1,,74,0
16030,note_on,94,0,4,,,,,,,,,,5,,58,0
16030,note_on,94,0,3,,,,,,,,,,2,,58,0
16032,note_on,2,0,2,,,,,,,,,,1,,74,110
16032,note_on,2,0,4,,,,,,,,,,5,,55,92
16032,note_on,2,0,3,,,,,,,,,,2,,55,92
16078,note_on,46,0,2,,,,,,,,,,1,,74,0
16080,note_on,2,0,2,,,,,,,,,,1,,82,110
16126,note_on,94,0,3,,,,,,,,,,2,,55,0
16126,note_on,46,0,2,,,,,,,,,,1,,82,0
16126,note_on,94,0,4,,,,,,,,,,5,,55,0
16128,note_on,2,0,2,,,,,,,,,,1,,82,110
16128,note_on,2,0,3,,,,,,,,,,2,,67,92
16128,note_on,2,0,4,,,,,,,,,,5,,67,92
16174,note_on,46,0,2,,,,,,,,,,1,,82,0
16176,note_on,2,0,2,,,,,,,,,,1,,79,110
16222,note_on,46,0,2,,,,,,,,,,1,,79,0
16222,note_on,94,0,4,,,,,,,,,,5,,67,0
16222,note_on,94,0,3,,,,,,,,,,2,,67,0
16224,note_on,2,0,4,,,,,,,,,,5,,64,92
16224,note_on,2,0,3,,,,,,,,,,2,,64,92
16224,note_on,2,0,2,,,,,,,,,,1,,79,110
16270,note_on,46,0,2,,,,,,,,,,1,,79,0
16272,note_on,2,0,2,,,,,,,,,,1,,76,110
16318,note_on,94,0,3,,,,,,,,,,2,,64,0
16318,note_on,46,0,2,,,,,,,,,,1,,76,0
16318,note_on,94,0,4,,,,,,,,,,5,,64,0
16320,note_on,2,0,4,,,,,,,,,,5,,60,92
16320,note_on,2,0,2,,,,,,,,,,1,,76,110
16320,note_on,2,0,3,,,,,,,,,,2,,60,92
16366,note_on,46,0,2,,,,,,,,,,1,,76,0
16368,note_on,2,0,2,,,,,,,,,,1,,70,110
16414,note_on,46,0,2,,,,,,,,,,1,,70,0
16414,note_on,94,0,3,,,,,,,,,,2,,60,0
16414,note_on,94,0,4,,,,,,,,,,5,,60,0
16416,note_on,2,0,2,,,,,,,,,,1,,70,110
16416,note_on,2,0,3,,,,,,,,,,2,,64,92
16416,note_on,2,0,4,,,,,,,,,,5,,64,92
16462,note_on,46,0,2,,,,,,,,,,1,,70,0
16464,note_on,2,0,2,,,,,,,,,,1,,72,110
16510,note_on,94,0,4,,,,,,,,,,5,,64,0
16510,note_on,46,0,2,,,,,,,,,,1,,72,0
16510,note_on,94,0,3,,,,,,,,,,2,,64,0
16512,note_on,2,0,4,,,,,,,,,,5,,65,92
16512,note_on,2,0,2,,,,,,,,,,1,,69,110
16512,note_on,2,0,3,,,,,,,,,,2,,65,92
16558,note_on,46,0,2,,,,,,,,,,1,,69,0
16560,note_on,2,0,2,,,,,,,,,,1,,77,110
16606,note_on,46,0,2,,,,,,,,,,1,,77,0
16608,note_on,2,0,2,,,,,,,,,,1,,79,110
16654,note_on,46,0,2,,,,,,,,,,1,,79,0
16656,note_on,2,0,2,,,,,,,,,,1,,81,110
16672,note_on,160,0,3,,,,,,,,,,2,,65,0
16672,note_on,160,0,4,,,,,,,,,,5,,65,0
16702,note_on,46,0,2,,,,,,,,,,1,,81,0
16704,note_on,32,0,4,,,,,,,,,,5,,65,92
16704,note_on,32,0,3,,,,,,,,,,2,,65,92
16704,note_on,2,0,2,,,,,,,,,,1,,69,110
16750,note_on,46,0,2,,,,,,,,,,1,,69,0
16752,note_on,2,0,2,,,,,,,,,,1,,77,110
16798,note_on,46,0,2,,,,,,,,,,1,,77,0
16800,note_on,2,0,2,,,,,,,,,,1,,79,110
16846,note_on,46,0,2,,,,,,,,,,1,,79,0
16848,note_on,2,0,2,,,,,,,,,,1,,81,110
16864,note_on,160,0,4,,,,,,,,,,5,,65,0
16864,note_on,160,0,3,,,,,,,,,,2,,65,0
16894,note_on,46,0,2,,,,,,,,,,1,,81,0
16896,note_on,32,0,4,,,,,,,,,,5,,67,92
16896,note_on,32,0,3,,,,,,,,,,2,,67,92
16896,note_on,2,0,2,,,,,,,,,,1,,70,110
16942,note_on,46,0,2,,,,,,,,,,1,,70,0
16944,note_on,2,0,2,,,,,,,,,,1,,77,110
16990,note_on,46,0,2,,,,,,,,,,1,,77,0
16992,note_on,2,0,2,,,,,,,,,,1,,79,110
17038,note_on,46,0,2,,,,,,,,,,1,,79,0
17040,note_on,2,0,2,,,,,,,,,,1,,81,110
17056,note_on,160,0,4,,,,,,,,,,5,,67,0
17056,note_on,160,0,3,,,,,,,,,,2,,67,0
17086,note_on,46,0,2,,,,,,,,,,1,,81,0
17088,note_on,32,0,3,,,,,,,,,,2,,69,92
17088,note_on,32,0,4,,,,,,,,,,5,,69,92
17088,note_on,2,0,2,,,,,,,,,,1,,72,110
17134,note_on,46,0,2,,,,,,,,,,1,,72,0
17136,note_on,2,0,2,,,,,,,,,,1,,77,110
17182,note_on,46,0,2,,,,,,,,,,1,,77,0
17184,note_on,2,0,2,,,,,,,,,,1,,79,110
17230,note_on,46,0,2,,,,,,,,,,1,,79,0
17232,note_on,2,0,2,,,,,,,,,,1,,81,110
17248,note_on,160,0,3,,,,,,,,,,2,,69,0
17248,note_on,160,0,4,,,,,,,,,,5,,69,0
17278,note_on,46,0,2,,,,,,,,,,1,,81,0
17280,note_on,32,0,4,,,,,,,,,,5,,70,92
17280,note_on,2,0,2,,,,,,,,,,1,,74,110
17280,note_on,32,0,3,,,,,,,,,,2,,70,92
17326,note_on,46,0,2,,,,,,,,,,1,,74,0
17328,note_on,2,0,2,,,,,,,,,,1,,77,110
17374,note_on,94,0,4,,,,,,,,,,5,,70,0
17374,note_on,46,0,2,,,,,,,,,,1,,77,0
17374,note_on,94,0,3,,,,,,,,,,2,,70,0
17376,note_on,2,0,3,,,,,,,,,,2,,67,92
17376,note_on,2,0,2,,,,,,,,,,1,,79,110
17376,note_on,2,0,4,,,,,,,,,,5,,67,92
17422,note_on,46,0,2,,,,,,,,,,1,,79,0
17424,note_on,2,0,2,,,,,,,,,,1,,81,110
17470,note_on,46,0,2,,,,,,,,,,1,,81,0
17470,note_on,94,0,4,,,,,,,,,,5,,67,0
17470,note_on,94,0,3,,,,,,,,,,2,,67,0
17472,note_on,2,0,4,,,,,,,,,,5,,64,92
17472,note_on,2,0,3,,,,,,,,,,2,,64,92
17472,note_on,2,0,2,,,,,,,,,,1,,72,110
17518,note_on,46,0,2,,,,,,,,,,1,,72,0
17520,note_on,2,0,2,,,,,,,,,,1,,70,110
17566,note_on,94,0,3,,,,,,,,,,2,,64,0
17566,note_on,94,0,4,,,,,,,,,,5,,64,0
17566,note_on,46,0,2,,,,,,,,,,1,,70,0
17568,note_on,2,0,3,,,,,,,,,,2,,60,92
17568,note_on,2,0,4,,,,,,,,,,5,,60,92
17568,note_on,2,0,2,,,,,,,,,,1,,69,110
17614,note_on,46,0,2,,,,,,,,,,1,,69,0
17616,note_on,2,0,2,,,,,,,,,,1,,67,110
17662,note_on,46,0,2,,,,,,,,,,1,,67,0
17662,note_on,94,0,3,,,,,,,,,,2,,60,0
17662,note_on,94,0,4,,,,,,,,,,5,,60,0
17664,control_change,2,0,3,,,,,,,,10,0,2,,,
17664,note_on,0,0,3,,,,,,,,,,2,,65,92
17664,note_on,2498,0,1,,,,,,,,,,0,,77,110
17664,note_on,0,0,4,,,,,,,,,,5,,65,92
17664,control_change,2,0,4,,,,,,,,10,0,5,,,
17694,note_on,30,0,1,,,,,,,,,,0,,77,0
17696,note_on,2,0,1,,,,,,,,,,0,,81,110
17726,note_on,30,0,1,,,,,,,,,,0,,81,0
17728,note_on,2,0,1,,,,,,,,,,0,,79,110
17758,note_on,30,0,1,,,,,,,,,,0,,79,0
17760,note_on,2,0,1,,,,,,,,,,0,,77,110
17790,note_on,30,0,1,,,,,,,,,,0,,77,0
17792,note_on,2,0,1,,,,,,,,,,0,,79,110
17822,note_on,30,0,1,,,,,,,,,,0,,79,0
17824,note_on,160,0,3,,,,,,,,,,2,,65,0
17824,note_on,160,0,4,,,,,,,,,,5,,65,0
17824,note_on,2,0,1,,,,,,,,,,0,,81,110
17854,note_on,30,0,1,,,,,,,,,,0,,81,0
17856,note_on,2,0,1,,,,,,,,,,0,,69,110
17856,note_on,32,0,3,,,,,,,,,,2,,65,92
17856,note_on,32,0,4,,,,,,,,,,5,,65,92
17886,note_on,30,0,1,,,,,,,,,,0,,69,0
17888,note_on,2,0,1,,,,,,,,,,0,,81,110
17918,note_on,30,0,1,,,,,,,,,,0,,81,0
17920,note_on,2,0,1,,,,,,,,,,0,,79,110
17950,note_on,30,0,1,,,,,,,,,,0,,79,0
17952,note_on,2,0,1,,,,,,,,,,0,,77,110
17982,note_on,30,0,1,,,,,,,,,,0,,77,0
17984,note_on,2,0,1,,,,,,,,,,0,,79,110
18014,note_on,30,0,1,,,,,,,,,,0,,79,0
18016,note_on,160,0,4,,,,,,,,,,5,,65,0
18016,note_on,160,0,3,,,,,,,,,,2,,65,0
18016,note_on,2,0,1,,,,,,,,,,0,,81,110
18046,note_on,30,0,1,,,,,,,,,,0,,81,0
18048,note_on,32,0,3,,,,,,,,,,2,,67,92
18048,note_on,2,0,1,,,,,,,,,,0,,70,110
18048,note_on,32,0,4,,,,,,,,,,5,,67,92
18078,note_on,30,0,1,,,,,,,,,,0,,70,0
18080,note_on,2,0,1,,,,,,,,,,0,,81,110
18110,note_on,30,0,1,,,,,,,,,,0,,81,0
18112,note_on,2,0,1,,,,,,,,,,0,,79,110
18142,note_on,30,0,1,,,,,,,,,,0,,79,0
18144,note_on,2,0,1,,,,,,,,,,0,,77,110
18174,note_on,30,0,1,,,,,,,,,,0,,77,0
18176,note_on,2,0,1,,,,,,,,,,0,,79,110
18206,note_on,30,0,1,,,,,,,,,,0,,79,0
18208,note_on,160,0,3,,,,,,,,,,2,,67,0
18208,note_on,160,0,4,,,,,,,,,,5,,67,0
18208,note_on,2,0,1,,,,,,,,,,0,,81,110
18238,note_on,30,0,1,,,,,,,,,,0,,81,0
18240,note_on,2,0,1,,,,,,,,,,0,,72,110
18240,note_on,32,0,3,,,,,,,,,,2,,69,92
18240,note_on,32,0,4,,,,,,,,,,5,,69,92
18270,note_on,30,0,1,,,,,,,,,,0,,72,0
18272,note_on,2,0,1,,,,,,,,,,0,,81,110
18302,note_on,30,0,1,,,,,,,,,,0,,81,0
18304,note_on,2,0,1,,,,,,,,,,0,,79,110
18334,note_on,30,0,1,,,,,,,,,,0,,79,0
18336,note_on,2,0,1,,,,,,,,,,0,,77,110
18366,note_on,30,0,1,,,,,,,,,,0,,77,0
18368,note_on,2,0,1,,,,,,,,,,0,,79,110
18398,note_on,30,0,1,,,,,,,,,,0,,79,0
18400,note_on,160,0,3,,,,,,,,,,2,,69,0
18400,note_on,160,0,4,,,,,,,,,,5,,69,0
18400,note_on,2,0,1,,,,,,,,,,0,,81,110
18430,note_on,30,0,1,,,,,,,,,,0,,81,0
18432,control_change,32,0,3,,,,,,,,10,127,2,,,
18432,note_on,0,0,3,,,,,,,,,,2,,70,92
18432,note_on,770,0,2,,,,,,,,,,1,,77,110
18432,note_on,2,0,1,,,,,,,,,,0,,74,110
18432,control_change,32,0,4,,,,,,,,10,127,5,,,
18432,note_on,0,0,4,,,,,,,,,,5,,70,92
18462,note_on,30,0,2,,,,,,,,,,1,,77,0
18464,note_on,2,0,2,,,,,,,,,,1,,81,110
18494,note_on,30,0,2,,,,,,,,,,1,,81,0
18496,note_on,2,0,2,,,,,,,,,,1,,79,110
18526,note_on,30,0,2,,,,,,,,,,1,,79,0
18528,note_on,2,0,2,,,,,,,,,,1,,77,110
18558,note_on,30,0,2,,,,,,,,,,1,,77,0
18560,note_on,2,0,2,,,,,,,,,,1,,79,110
18590,note_on,30,0,2,,,,,,,,,,1,,79,0
18592,note_on,160,0,3,,,,,,,,,,2,,70,0
18592,note_on,160,0,4,,,,,,,,,,5,,70,0
18592,note_on,160,0,1,,,,,,,,,,0,,74,0
18592,note_on,2,0,2,,,,,,,,,,1,,81,110
18622,note_on,30,0,2,,,,,,,,,,1,,81,0
18624,note_on,32,0,4,,,,,,,,,,5,,65,92
18624,note_on,2,0,2,,,,,,,,,,1,,69,110
18624,note_on,32,0,3,,,,,,,,,,2,,65,92
18654,note_on,30,0,2,,,,,,,,,,1,,69,0
18656,note_on,2,0,2,,,,,,,,,,1,,81,110
18686,note_on,30,0,2,,,,,,,,,,1,,81,0
18688,note_on,2,0,2,,,,,,,,,,1,,79,110
18718,note_on,30,0,2,,,,,,,,,,1,,79,0
18720,note_on,2,0,2,,,,,,,,,,1,,77,110
18750,note_on,30,0,2,,,,,,,,,,1,,77,0
18752,note_on,2,0,2,,,,,,,,,,1,,79,110
18782,note_on,30,0,2,,,,,,,,,,1,,79,0
18784,note_on,2,0,2,,,,,,,,,,1,,81,110
18784,note_on,160,0,3,,,,,,,,,,2,,65,0
18784,note_on,160,0,4,,,,,,,,,,5,,65,0
18814,note_on,30,0,2,,,,,,,,,,1,,81,0
18816,note_on,32,0,4,,,,,,,,,,5,,67,92
18816,note_on,2,0,2,,,,,,,,,,1,,70,110
18816,note_on,32,0,3,,,,,,,,,,2,,67,92
18846,note_on,30,0,2,,,,,,,,,,1,,70,0
18848,note_on,2,0,2,,,,,,,,,,1,,81,110
18878,note_on,30,0,2,,,,,,,,,,1,,81,0
18880,note_on,2,0,2,,,,,,,,,,1,,79,110
18910,note_on,30,0,2,,,,,,,,,,1,,79,0
18912,note_on,2,0,2,,,,,,,,,,1,,77,110
18942,note_on,30,0,2,,,,,,,,,,1,,77,0
18944,note_on,2,0,2,,,,,,,,,,1,,79,110
18974,note_on,30,0,2,,,,,,,,,,1,,79,0
18976,note_on,160,0,3,,,,,,,,,,2,,67,0
18976,note_on,160,0,4,,,,,,,,,,5,,67,0
18976,note_on,2,0,2,,,,,,,,,,1,,81,110
19006,note_on,30,0,2,,,,,,,,,,1,,81,0
19008,note_on,32,0,4,,,,,,,,,,5,,69,92
19008,note_on,2,0,2,,,,,,,,,,1,,72,110
19008,note_on,32,0,3,,,,,,,,,,2,,69,92
19038,note_on,30,0,2,,,,,,,,,,1,,72,0
19040,note_on,2,0,2,,,,,,,,,,1,,81,110
19070,note_on,30,0,2,,,,,,,,,,1,,81,0
19072,note_on,2,0,2,,,,,,,,,,1,,79,110
19102,note_on,30,0,2,,,,,,,,,,1,,79,0
19104,note_on,2,0,2,,,,,,,,,,1,,77,110
19134,note_on,30,0,2,,,,,,,,,,1,,77,0
19136,note_on,2,0,2,,,,,,,,,,1,,79,110
19166,note_on,30,0,2,,,,,,,,,,1,,79,0
19168,note_on,160,0,3,,,,,,,,,,2,,69,0
19168,note_on,160,0,4,,,,,,,,,,5,,69,0
19168,note_on,2,0,2,,,,,,,,,,1,,81,110
19198,note_on,30,0,2,,,,,,,,,,1,,81,0
19200,control_change,32,0,3,,,,,,,,10,0,2,,,
19200,note_on,0,0,4,,,,,,,,,,5,,70,92
19200,control_change,32,0,4,,,,,,,,10,0,5,,,
19200,note_on,0,0,3,,,,,,,,,,2,,70,92
19200,note_on,2,0,2,,,,,,,,,,1,,74,110
19200,note_on,608,0,1,,,,,,,,,,0,,74,110
19230,note_on,30,0,1,,,,,,,,,,0,,74,0
19232,note_on,2,0,1,,,,,,,,,,0,,70,110
19262,note_on,30,0,1,,,,,,,,,,0,,70,0
19264,note_on,2,0,1,,,,,,,,,,0,,72,110
19294,note_on,30,0,1,,,,,,,,,,0,,72,0
19294,note_on,94,0,3,,,,,,,,,,2,,70,0
19294,note_on,94,0,4,,,,,,,,,,5,,70,0
19296,note_on,2,0,1,,,,,,,,,,0,,74,110
19296,note_on,2,0,4,,,,,,,,,,5,,58,92
19296,note_on,2,0,3,,,,,,,,,,2,,58,92
19326,note_on,30,0,1,,,,,,,,,,0,,74,0
19328,note_on,2,0,1,,,,,,,,,,0,,74,110
19358,note_on,30,0,1,,,,,,,,,,0,,74,0
19360,note_on,160,0,2,,,,,,,,,,1,,74,0
19360,note_on,2,0,1,,,,,,,,,,0,,76,110
19390,note_on,94,0,4,,,,,,,,,,5,,58,0
19390,note_on,94,0,3,,,,,,,,,,2,,58,0
19390,note_on,30,0,1,,,,,,,,,,0,,76,0
19392,note_on,2,0,1,,,,,,,,,,0,,77,110
19392,note_on,2,0,4,,,,,,,,,,5,,57,92
19392,note_on,2,0,3,,,,,,,,,,2,,57,92
19422,note_on,30,0,1,,,,,,,,,,0,,77,0
19424,note_on,2,0,1,,,,,,,,,,0,,77,110
19454,note_on,30,0,1,,,,,,,,,,0,,77,0
19456,note_on,2,0,1,,,,,,,,,,0,,79,110
19486,note_on,30,0,1,,,,,,,,,,0,,79,0
19486,note_on,94,0,3,,,,,,,,,,2,,57,0
19486,note_on,94,0,4,,,,,,,,,,5,,57,0
19488,note_on,2,0,1,,,,,,,,,,0,,81,110
19488,note_on,2,0,3,,,,,,,,,,2,,58,92
19488,note_on,2,0,4,,,,,,,,,,5,,58,92
19518,note_on,30,0,1,,,,,,,,,,0,,81,0
19520,note_on,2,0,1,,,,,,,,,,0,,81,110
19550,note_on,30,0,1,,,,,,,,,,0,,81,0
19552,note_on,2,0,1,,,,,,,,,,0,,82,110
19582,note_on,30,0,1,,,,,,,,,,0,,82,0
19582,note_on,94,0,3,,,,,,,,,,2,,58,0
19582,note_on,94,0,4,,,,,,,,,,5,,58,0
19584,note_on,2,0,3,,,,,,,,,,2,,64,92
19584,note_on,2,0,4,,,,,,,,,,5,,64,92
19584,note_on,2,0,1,,,,,,,,,,0,,84,110
19678,note_on,94,0,1,,,,,,,,,,0,,84,0
19678,note_on,94,0,4,,,,,,,,,,5,,64,0
19678,note_on,94,0,3,,,,,,,,,,2,,64,0
19680,note_on,2,0,4,,,,,,,,,,5,,65,92
19680,note_on,2,0,1,,,,,,,,,,0,,77,110
19680,note_on,2,0,3,,,,,,,,,,2,,65,92
19726,note_on,46,0,1,,,,,,,,,,0,,77,0
19728,note_on,2,0,1,,,,,,,,,,0,,79,110
19774,note_on,94,0,3,,,,,,,,,,2,,65,0
19774,note_on,46,0,1,,,,,,,,,,0,,79,0
19774,note_on,94,0,4,,,,,,,,,,5,,65,0
19776,note_on,2,0,1,,,,,,,,,,0,,81,110
19776,note_on,2,0,4,,,,,,,,,,5,,72,92
19776,note_on,2,0,3,,,,,,,,,,2,,72,92
19798,note_on,22,0,1,,,,,,,,,,0,,81,0
19800,note_on,2,0,1,,,,,,,,,,0,,79,110
19822,note_on,22,0,1,,,,,,,,,,0,,79,0
19824,note_on,2,0,1,,,,,,,,,,0,,81,110
19846,note_on,22,0,1,,,,,,,,,,0,,81,0
19848,note_on,2,0,1,,,,,,,,,,0,,79,110
19870,note_on,94,0,3,,,,,,,,,,2,,72,0
19870,note_on,94,0,4,,,,,,,,,,5,,72,0
19870,note_on,22,0,1,,,,,,,,,,0,,79,0
19872,note_on,2,0,3,,,,,,,,,,2,,60,92
19872,note_on,2,0,4,,,,,,,,,,5,,60,92
19872,note_on,2,0,1,,,,,,,,,,0,,81,110
19894,note_on,22,0,1,,,,,,,,,,0,,81,0
19896,note_on,2,0,1,,,,,,,,,,0,,79,110
19918,note_on,22,0,1,,,,,,,,,,0,,79,0
19920,note_on,2,0,1,,,,,,,,,,0,,81,110
19942,note_on,22,0,1,,,,,,,,,,0,,81,0
19944,note_on,2,0,1,,,,,,,,,,0,,79,110
19966,note_on,94,0,4,,,,,,,,,,5,,60,0
19966,note_on,22,0,1,,,,,,,,,,0,,79,0
19966,note_on,94,0,3,,,,,,,,,,2,,60,0
19968,note_on,608,0,2,,,,,,,,,,1,,74,110
19968,note_on,0,0,3,,,,,,,,,,2,,70,92
19968,note_on,2,0,1,,,,,,,,,,0,,81,110
19968,control_change,2,0,4,,,,,,,,10,127,5,,,
19968,note_on,0,0,4,,,,,,,,,,5,,70,92
19968,control_change,2,0,3,,,,,,,,10,127,2,,,
19990,note_on,22,0,1,,,,,,,,,,0,,81,0
19992,note_on,2,0,1,,,,,,,,,,0,,79,110
19998,note_on,30,0,2,,,,,,,,,,1,,74,0
20000,note_on,2,0,2,,,,,,,,,,1,,70,110
20014,note_on,22,0,1,,,,,,,,,,0,,79,0
20016,note_on,2,0,1,,,,,,,,,,0,,81,110
20030,note_on,30,0,2,,,,,,,,,,1,,70,0
20032,note_on,2,0,2,,,,,,,,,,1,,72,110
20038,note_on,22,0,1,,,,,,,,,,0,,81,0
20040,note_on,2,0,1,,,,,,,,,,0,,79,110
20062,note_on,30,0,2,,,,,,,,,,1,,72,0
20062,note_on,94,0,4,,,,,,,,,,5,,70,0
20062,note_on,22,0,1,,,,,,,,,,0,,79,0
20062,note_on,94,0,3,,,,,,,,,,2,,70,0
20064,note_on,2,0,2,,,,,,,,,,1,,74,110
20064,note_on,2,0,3,,,,,,,,,,2,,58,92
20064,note_on,2,0,4,,,,,,,,,,5,,58,92
20064,note_on,2,0,1,,,,,,,,,,0,,81,110
20086,note_on,22,0,1,,,,,,,,,,0,,81,0
20088,note_on,2,0,1,,,,,,,,,,0,,79,110
20094,note_on,30,0,2,,,,,,,,,,1,,74,0
20096,note_on,2,0,2,,,,,,,,,,1,,74,110
20110,note_on,22,0,1,,,,,,,,,,0,,79,0
20112,note_on,2,0,1,,,,,,,,,,0,,81,110
20126,note_on,30,0,2,,,,,,,,,,1,,74,0
20128,note_on,2,0,2,,,,,,,,,,1,,76,110
20134,note_on,22,0,1,,,,,,,,,,0,,81,0
20136,note_on,2,0,1,,,,,,,,,,0,,79,110
20158,note_on,30,0,2,,,,,,,,,,1,,76,0
20158,note_on,22,0,1,,,,,,,,,,0,,79,0
20158,note_on,94,0,3,,,,,,,,,,2,,58,0
20158,note_on,94,0,4,,,,,,,,,,5,,58,0
20160,note_on,2,0,3,,,,,,,,,,2,,57,92
20160,note_on,2,0,4,,,,,,,,,,5,,57,92
20160,note_on,2,0,2,,,,,,,,,,1,,77,110
20160,note_on,2,0,1,,,,,,,,,,0,,77,110
20190,note_on,30,0,2,,,,,,,,,,1,,77,0
20192,note_on,2,0,2,,,,,,,,,,1,,77,110
20222,note_on,30,0,2,,,,,,,,,,1,,77,0
20224,note_on,2,0,2,,,,,,,,,,1,,79,110
20254,note_on,94,0,4,,,,,,,,,,5,,57,0
20254,note_on,30,0,2,,,,,,,,,,1,,79,0
20254,note_on,94,0,3,,,,,,,,,,2,,57,0
20256,note_on,2,0,4,,,,,,,,,,5,,58,92
20256,note_on,2,0,3,,,,,,,,,,2,,58,92
20256,note_on,2,0,2,,,,,,,,,,1,,81,110
20286,note_on,30,0,2,,,,,,,,,,1,,81,0
20288,note_on,2,0,2,,,,,,,,,,1,,81,110
20318,note_on,30,0,2,,,,,,,,,,1,,81,0
20320,note_on,2,0,2,,,,,,,,,,1,,82,110
20320,note_on,160,0,1,,,,,,,,,,0,,77,0
20350,note_on,30,0,2,,,,,,,,,,1,,82,0
20350,note_on,94,0,4,,,,,,,,,,5,,58,0
20350,note_on,94,0,3,,,,,,,,,,2,,58,0
20352,note_on,2,0,2,,,,,,,,,,1,,84,110
20352,note_on,2,0,4,,,,,,,,,,5,,64,92
20352,note_on,2,0,3,,,,,,,,,,2,,64,92
20446,note_on,94,0,4,,,,,,,,,,5,,64,0
20446,note_on,94,0,2,,,,,,,,,,1,,84,0
20446,note_on,94,0,3,,,,,,,,,,2,,64,0
20448,note_on,2,0,3,,,,,,,,,,2,,65,92
20448,note_on,2,0,4,,,,,,,,,,5,,65,92
20448,note_on,2,0,2,,,,,,,,,,1,,77,110
20494,note_on,46,0,2,,,,,,,,,,1,,77,0
20496,note_on,2,0,2,,,,,,,,,,1,,79,110
20542,note_on,94,0,3,,,,,,,,,,2,,65,0
20542,note_on,46,0,2,,,,,,,,,,1,,79,0
20542,note_on,94,0,4,,,,,,,,,,5,,65,0
20544,note_on,2,0,4,,,,,,,,,,5,,72,92
20544,note_on,2,0,3,,,,,,,,,,2,,72,92
20544,note_on,2,0,2,,,,,,,,,,1,,81,110
20566,note_on,22,0,2,,,,,,,,,,1,,81,0
20568,note_on,2,0,2,,,,,,,,,,1,,79,110
20590,note_on,22,0,2,,,,,,,,,,1,,79,0
20592,note_on,2,0,2,,,,,,,,,,1,,81,110
20614,note_on,22,0,2,,,,,,,,,,1,,81,0
20616,note_on,2,0,2,,,,,,,,,,1,,79,110
20638,note_on,22,0,2,,,,,,,,,,1,,79,0
20638,note_on,94,0,4,,,,,,,,,,5,,72,0
20638,note_on,94,0,3,,,,,,,,,,2,,72,0
20640,note_on,2,0,2,,,,,,,,,,1,,81,110
20640,note_on,2,0,3,,,,,,,,,,2,,60,92
20640,note_on,2,0,4,,,,,,,,,,5,,60,92
20662,note_on,22,0,2,,,,,,,,,,1,,81,0
20664,note_on,2,0,2,,,,,,,,,,1,,79,110
20686,note_on,22,0,2,,,,,,,,,,1,,79,0
20688,note_on,2,0,2,,,,,,,,,,1,,81,110
20710,note_on,22,0,2,,,,,,,,,,1,,81,0
20712,note_on,2,0,2,,,,,,,,,,1,,79,110
20734,note_on,94,0,4,,,,,,,,,,5,,60,0
20734,note_on,94,0,3,,,,,,,,,,2,,60,0
20734,note_on,22,0,2,,,,,,,,,,1,,79,0
20736,note_on,2,0,2,,,,,,,,,,1,,81,110
20736,note_on,0,0,3,,,,,,,,,,2,,77,127
20736,control_change,2,0,3,,,,,,,,10,127,2,,,
20736,control_change,2,0,4,,,,,,,,10,0,5,,,
20736,note_on,0,0,4,,,,,,,,,,5,,77,127
20736,note_on,8672,0,6,,,,,,,,,,6,,41,75
20736,note_on,8672,0,7,,,,,,,,,,7,,41,75
20758,note_on,22,0,2,,,,,,,,,,1,,81,0
20760,note_on,2,0,2,,,,,,,,,,1,,79,110
20782,note_on,22,0,2,,,,,,,,,,1,,79,0
20784,note_on,2,0,2,,,,,,,,,,1,,81,110
20806,note_on,22,0,2,,,,,,,,,,1,,81,0
20808,note_on,2,0,2,,,,,,,,,,1,,79,110
20830,note_on,94,0,4,,,,,,,,,,5,,77,0
20830,note_on,94,0,7,,,,,,,,,,7,,41,0
20830,note_on,94,0,6,,,,,,,,,,6,,41,0
20830,note_on,94,0,3,,,,,,,,,,2,,77,0
20830,note_on,22,0,2,,,,,,,,,,1,,79,0
20832,note_on,2,0,7,,,,,,,,,,7,,53,75
20832,note_on,8768,0,5,,,,,,,,,,4,,69,60
20832,note_on,2,0,3,,,,,,,,,,2,,72,127
20832,note_on,2,0,2,,,,,,,,,,1,,81,110
20832,note_on,2,0,4,,,,,,,,,,5,,72,127
20832,note_on,2,0,6,,,,,,,,,,6,,53,75
20854,note_on,22,0,2,,,,,,,,,,1,,81,0
20856,note_on,2,0,2,,,,,,,,,,1,,79,110
20878,note_on,22,0,2,,,,,,,,,,1,,79,0
20880,note_on,2,0,2,,,,,,,,,,1,,81,110
20902,note_on,22,0,2,,,,,,,,,,1,,81,0
20904,note_on,2,0,2,,,,,,,,,,1,,79,110
20926,note_on,94,0,6,,,,,,,,,,6,,53,0
20926,note_on,22,0,2,,,,,,,,,,1,,79,0
20926,note_on,94,0,4,,,,,,,,,,5,,72,0
20926,note_on,94,0,7,,,,,,,,,,7,,53,0
20926,note_on,94,0,5,,,,,,,,,,4,,69,0
20926,note_on,94,0,3,,,,,,,,,,2,,72,0
20928,note_on,2,0,6,,,,,,,,,,6,,50,75
20928,note_on,2,0,4,,,,,,,,,,5,,77,127
20928,note_on,2,0,7,,,,,,,,,,7,,50,75
20928,note_on,2,0,3,,,,,,,,,,2,,77,127
20928,note_on,2,0,2,,,,,,,,,,1,,77,110
20928,note_on,2,0,5,,,,,,,,,,4,,65,60
20998,note_on,70,0,3,,,,,,,,,,2,,77,0
20998,note_on,70,0,4,,,,,,,,,,5,,77,0
21000,note_on,2,0,3,,,,,,,,,,2,,79,127
21000,note_on,2,0,4,,,,,,,,,,5,,79,127
21022,note_on,94,0,5,,,,,,,,,,4,,65,0
21022,note_on,94,0,7,,,,,,,,,,7,,50,0
21022,note_on,22,0,4,,,,,,,,,,5,,79,0
21022,note_on,22,0,3,,,,,,,,,,2,,79,0
21022,note_on,94,0,6,,,,,,,,,,6,,50,0
21024,note_on,2,0,7,,,,,,,,,,7,,46,75
21024,note_on,2,0,4,,,,,,,,,,5,,81,127
21024,note_on,2,0,6,,,,,,,,,,6,,46,75
21024,note_on,2,0,5,,,,,,,,,,4,,62,60
21024,note_on,2,0,3,,,,,,,,,,2,,81,127
21088,note_on,160,0,2,,,,,,,,,,1,,77,0
21094,note_on,70,0,3,,,,,,,,,,2,,81,0
21094,note_on,70,0,4,,,,,,,,,,5,,81,0
21096,note_on,2,0,3,,,,,,,,,,2,,82,127
21096,note_on,2,0,4,,,,,,,,,,5,,82,127
21118,note_on,22,0,4,,,,,,,,,,5,,82,0
21118,note_on,22,0,3,,,,,,,,,,2,,82,0
21118,note_on,94,0,6,,,,,,,,,,6,,46,0
21118,note_on,94,0,7,,,,,,,,,,7,,46,0
21118,note_on,94,0,5,,,,,,,,,,4,,62,0
21120,note_on,2,0,4,,,,,,,,,,5,,84,127
21120,note_on,2,0,3,,,,,,,,,,2,,84,127
21214,note_on,94,0,4,,,,,,,,,,5,,84,0
21214,note_on,94,0,3,,,,,,,,,,2,,84,0
21216,note_on,98,0,7,,,,,,,,,,7,,53,75
21216,note_on,98,0,6,,,,,,,,,,6,,53,75
21216,note_on,2,0,4,,,,,,,,,,5,,72,127
21216,note_on,98,0,5,,,,,,,,,,4,,57,60
21216,note_on,2,0,3,,,,,,,,,,2,,72,127
21310,note_on,94,0,3,,,,,,,,,,2,,72,0
21310,note_on,94,0,7,,,,,,,,,,7,,53,0
21310,note_on,94,0,5,,,,,,,,,,4,,57,0
21310,note_on,94,0,6,,,,,,,,,,6,,53,0
21310,note_on,94,0,4,,,,,,,,,,5,,72,0
21312,note_on,2,0,4,,,,,,,,,,5,,60,127
21312,note_on,2,0,5,,,,,,,,,,4,,53,60
21312,note_on,2,0,6,,,,,,,,,,6,,45,75
21312,note_on,2,0,3,,,,,,,,,,2,,60,127
21312,note_on,2,0,7,,,,,,,,,,7,,45,75
21406,note_on,94,0,7,,,,,,,,,,7,,45,0
21406,note_on,94,0,4,,,,,,,,,,5,,60,0
21406,note_on,94,0,3,,,,,,,,,,2,,60,0
21406,note_on,94,0,5,,,,,,,,,,4,,53,0
21406,note_on,94,0,6,,,,,,,,,,6,,45,0
21408,note_on,2,0,3,,,,,,,,,,2,,62,127
21408,note_on,2,0,4,,,,,,,,,,5,,62,127
21408,note_on,2,0,6,,,,,,,,,,6,,46,75
21408,note_on,2,0,7,,,,,,,,,,7,,46,75
21408,note_on,2,0,5,,,,,,,,,,4,,53,60
21502,note_on,94,0,7,,,,,,,,,,7,,46,0
21502,note_on,94,0,4,,,,,,,,,,5,,62,0
21502,note_on,94,0,3,,,,,,,,,,2,,62,0
21502,note_on,94,0,6,,,,,,,,,,6,,46,0
21502,note_on,94,0,5,,,,,,,,,,4,,53,0
21504,note_on,2,0,4,,,,,,,,,,5,,58,127
21504,note_on,2,0,3,,,,,,,,,,2,,58,127
21598,note_on,94,0,3,,,,,,,,,,2,,58,0
21598,note_on,94,0,4,,,,,,,,,,5,,58,0
21600,note_on,98,0,5,,,,,,,,,,4,,67,60
21600,note_on,98,0,6,,,,,,,,,,6,,52,75
21600,note_on,2,0,3,,,,,,,,,,2,,72,127
21600,note_on,2,0,4,,,,,,,,,,5,,72,127
21600,note_on,98,0,7,,,,,,,,,,7,,52,75
21694,note_on,94,0,3,,,,,,,,,,2,,72,0
21694,note_on,94,0,5,,,,,,,,,,4,,67,0
21694,note_on,94,0,4,,,,,,,,,,5,,72,0
21694,note_on,94,0,7,,,,,,,,,,7,,52,0
21694,note_on,94,0,6,,,,,,,,,,6,,52,0
21696,note_on,2,0,6,,,,,,,,,,6,,50,75
21696,note_on,2,0,3,,,,,,,,,,2,,67,127
21696,note_on,2,0,5,,,,,,,,,,4,,65,60
21696,note_on,2,0,4,,,,,,,,,,5,,67,127
21696,note_on,2,0,7,,,,,,,,,,7,,50,75
21766,note_on,70,0,4,,,,,,,,,,5,,67,0
21766,note_on,70,0,3,,,,,,,,,,2,,67,0
21768,note_on,2,0,4,,,,,,,,,,5,,69,127
21768,note_on,2,0,3,,,,,,,,,,2,,69,127
21790,note_on,94,0,5,,,,,,,,,,4,,65,0
21790,note_on,94,0,6,,,,,,,,,,6,,50,0
21790,note_on,22,0,3,,,,,,,,,,2,,69,0
21790,note_on,94,0,7,,,,,,,,,,7,,50,0
21790,note_on,22,0,4,,,,,,,,,,5,,69,0
21792,note_on,2,0,4,,,,,,,,,,5,,70,127
21792,note_on,2,0,6,,,,,,,,,,6,,48,75
21792,note_on,2,0,3,,,,,,,,,,2,,70,127
21792,note_on,2,0,5,,,,,,,,,,4,,64,60
21792,note_on,2,0,7,,,,,,,,,,7,,48,75
21862,note_on,70,0,4,,,,,,,,,,5,,70,0
21862,note_on,70,0,3,,,,,,,,,,2,,70,0
21864,note_on,2,0,4,,,,,,,,,,5,,72,127
21864,note_on,2,0,3,,,,,,,,,,2,,72,127
21886,note_on,94,0,6,,,,,,,,,,6,,48,0
21886,note_on,94,0,5,,,,,,,,,,4,,64,0
21886,note_on,94,0,7,,,,,,,,,,7,,48,0
21886,note_on,22,0,4,,,,,,,,,,5,,72,0
21886,note_on,22,0,3,,,,,,,,,,2,,72,0
21888,note_on,2,0,4,,,,,,,,,,5,,69,127
21888,note_on,2,0,3,,,,,,,,,,2,,69,127
21982,note_on,94,0,4,,,,,,,,,,5,,69,0
21982,note_on,94,0,3,,,,,,,,,,2,,69,0
21984,note_on,2,0,3,,,,,,,,,,2,,65,127
21984,note_on,98,0,5,,,,,,,,,,4,,60,60
21984,note_on,2,0,4,,,,,,,,,,5,,65,127
21984,note_on,98,0,7,,,,,,,,,,7,,57,75
21984,note_on,98,0,6,,,,,,,,,,6,,57,75
22078,note_on,94,0,3,,,,,,,,,,2,,65,0
22078,note_on,94,0,4,,,,,,,,,,5,,65,0
22078,note_on,94,0,7,,,,,,,,,,7,,57,0
22078,note_on,94,0,5,,,,,,,,,,4,,60,0
22078,note_on,94,0,6,,,,,,,,,,6,,57,0
22080,note_on,2,0,5,,,,,,,,,,4,,58,60
22080,note_on,2,0,6,,,,,,,,,,6,,55,75
22080,note_on,2,0,7,,,,,,,,,,7,,55,75
22174,note_on,94,0,5,,,,,,,,,,4,,58,0
22174,note_on,94,0,6,,,,,,,,,,6,,55,0
22174,note_on,94,0,7,,,,,,,,,,7,,55,0
22176,note_on,98,0,4,,,,,,,,,,5,,81,127
22176,note_on,2,0,5,,,,,,,,,,4,,57,60
22176,note_on,2,0,6,,,,,,,,,,6,,53,75
22176,note_on,98,0,3,,,,,,,,,,2,,81,127
22176,note_on,2,0,7,,,,,,,,,,7,,53,75
22222,note_on,46,0,3,,,,,,,,,,2,,81,0
22222,note_on,46,0,4,,,,,,,,,,5,,81,0
22224,note_on,2,0,3,,,,,,,,,,2,,79,127
22224,note_on,2,0,4,,,,,,,,,,5,,79,127
22270,note_on,46,0,4,,,,,,,,,,5,,79,0
22270,note_on,46,0,3,,,,,,,,,,2,,79,0
22270,note_on,94,0,5,,,,,,,,,,4,,57,0
22270,note_on,94,0,6,,,,,,,,,,6,,53,0
22270,note_on,94,0,7,,,,,,,,,,7,,53,0
22272,note_on,2,0,3,,,,,,,,,,2,,79,127
22272,note_on,2,0,4,,,,,,,,,,5,,79,127
22368,note_on,98,0,6,,,,,,,,,,6,,62,75
22368,note_on,98,0,7,,,,,,,,,,7,,62,75
22368,note_on,98,0,5,,,,,,,,,,4,,69,60
22414,note_on,46,0,6,,,,,,,,,,6,,62,0
22414,note_on,46,0,7,,,,,,,,,,7,,62,0
22416,note_on,2,0,6,,,,,,,,,,6,,60,75
22416,note_on,2,0,7,,,,,,,,,,7,,60,75
22432,note_on,160,0,3,,,,,,,,,,2,,79,0
22432,note_on,160,0,4,,,,,,,,,,5,,79,0
22462,note_on,46,0,7,,,,,,,,,,7,,60,0
22462,note_on,46,0,6,,,,,,,,,,6,,60,0
22462,note_on,94,0,5,,,,,,,,,,4,,69,0
22464,note_on,32,0,3,,,,,,,,,,2,,78,127
22464,note_on,2,0,6,,,,,,,,,,6,,62,75
22464,note_on,2,0,5,,,,,,,,,,4,,69,60
22464,note_on,32,0,4,,,,,,,,,,5,,78,127
22464,note_on,2,0,7,,,,,,,,,,7,,62,75
22558,note_on,94,0,7,,,,,,,,,,7,,62,0
22558,note_on,94,0,3,,,,,,,,,,2,,78,0
22558,note_on,94,0,6,,,,,,,,,,6,,62,0
22558,note_on,94,0,4,,,,,,,,,,5,,78,0
22558,note_on,94,0,5,,,,,,,,,,4,,69,0
22560,note_on,2,0,3,,,,,,,,,,2,,76,127
22560,note_on,2,0,6,,,,,,,,,,6,,50,75
22560,note_on,2,0,5,,,,,,,,,,4,,69,60
22560,note_on,2,0,4,,,,,,,,,,5,,76,127
22560,note_on,2,0,7,,,,,,,,,,7,,50,75
22606,note_on,46,0,4,,,,,,,,,,5,,76,0
22606,note_on,46,0,3,,,,,,,,,,2,,76,0
22608,note_on,2,0,4,,,,,,,,,,5,,74,127
22608,note_on,2,0,3,,,,,,,,,,2,,74,127
22654,note_on,46,0,3,,,,,,,,,,2,,74,0
22654,note_on,94,0,6,,,,,,,,,,6,,50,0
22654,note_on,94,0,5,,,,,,,,,,4,,69,0
22654,note_on,46,0,4,,,,,,,,,,5,,74,0
22654,note_on,94,0,7,,,,,,,,,,7,,50,0
22656,note_on,2,0,3,,,,,,,,,,2,,76,127
22656,note_on,2,0,4,,,,,,,,,,5,,76,127
22750,note_on,94,0,3,,,,,,,,,,2,,76,0
22750,note_on,94,0,4,,,,,,,,,,5,,76,0
22752,note_on,2,0,3,,,,,,,,,,2,,78,127
22752,note_on,98,0,7,,,,,,,,,,7,,62,75
22752,note_on,98,0,6,,,,,,,,,,6,,62,75
22752,note_on,98,0,5,,,,,,,,,,4,,69,60
22752,note_on,2,0,4,,,,,,,,,,5,,78,127
22846,note_on,94,0,7,,,,,,,,,,7,,62,0
22846,note_on,94,0,5,,,,,,,,,,4,,69,0
22846,note_on,94,0,4,,,,,,,,,,5,,78,0
22846,note_on,94,0,3,,,,,,,,,,2,,78,0
22846,note_on,94,0,6,,,,,,,,,,6,,62,0
22848,note_on,2,0,5,,,,,,,,,,4,,70,60
22848,note_on,2,0,3,,,,,,,,,,2,,79,127
22848,note_on,2,0,7,,,,,,,,,,7,,55,75
22848,note_on,2,0,6,,,,,,,,,,6,,55,75
22848,note_on,2,0,4,,,,,,,,,,5,,79,127
22942,note_on,94,0,4,,,,,,,,,,5,,79,0
22942,note_on,94,0,6,,,,,,,,,,6,,55,0
22942,note_on,94,0,7,,,,,,,,,,7,,55,0
22942,note_on,94,0,3,,,,,,,,,,2,,79,0
22942,note_on,94,0,5,,,,,,,,,,4,,70,0
22944,note_on,2,0,7,,,,,,,,,,7,,50,75
22944,note_on,2,0,6,,,,,,,,,,6,,50,75
22944,note_on,2,0,4,,,,,,,,,,5,,81,127
22944,note_on,2,0,3,,,,,,,,,,2,,81,127
22944,note_on,2,0,5,,,,,,,,,,4,,66,60
23038,note_on,94,0,7,,,,,,,,,,7,,50,0
23038,note_on,94,0,6,,,,,,,,,,6,,50,0
23038,note_on,94,0,5,,,,,,,,,,4,,66,0
23038,note_on,94,0,3,,,,,,,,,,2,,81,0
23038,note_on,94,0,4,,,,,,,,,,5,,81,0
23040,note_on,2,0,3,,,,,,,,,,2,,82,127
23040,note_on,2,0,4,,,,,,,,,,5,,82,127
23134,note_on,94,0,4,,,,,,,,,,5,,82,0
23134,note_on,94,0,3,,,,,,,,,,2,,82,0
23136,note_on,98,0,6,,,,,,,,,,6,,55,75
23136,note_on,2,0,4,,,,,,,,,,5,,79,127
23136,note_on,98,0,7,,,,,,,,,,7,,55,75
23136,note_on,98,0,5,,,,,,,,,,4,,62,60
23136,note_on,2,0,3,,,,,,,,,,2,,79,127
23182,note_on,46,0,6,,,,,,,,,,6,,55,0
23182,note_on,46,0,7,,,,,,,,,,7,,55,0
23184,note_on,2,0,7,,,,,,,,,,7,,54,75
23184,note_on,2,0,6,,,,,,,,,,6,,54,75
23230,note_on,46,0,6,,,,,,,,,,6,,54,0
23230,note_on,94,0,3,,,,,,,,,,2,,79,0
23230,note_on,46,0,7,,,,,,,,,,7,,54,0
23230,note_on,94,0,4,,,,,,,,,,5,,79,0
23230,note_on,94,0,5,,,,,,,,,,4,,62,0
23232,note_on,2,0,5,,,,,,,,,,4,,62,60
23232,note_on,2,0,7,,,,,,,,,,7,,55,75
23232,note_on,2,0,6,,,,,,,,,,6,,55,75
23326,note_on,94,0,7,,,,,,,,,,7,,55,0
23326,note_on,94,0,5,,,,,,,,,,4,,62,0
23326,note_on,94,0,6,,,,,,,,,,6,,55,0
23328,note_on,98,0,3,,,,,,,,,,2,,79,127
23328,note_on,98,0,4,,,,,,,,,,5,,79,127
23328,note_on,2,0,6,,,,,,,,,,6,,43,75
23328,note_on,2,0,7,,,,,,,,,,7,,43,75
23328,note_on,2,0,5,,,,,,,,,,4,,58,60
23374,note_on,46,0,4,,,,,,,,,,5,,79,0
23374,note_on,46,0,3,,,,,,,,,,2,,79,0
23376,note_on,2,0,4,,,,,,,,,,5,,77,127
23376,note_on,2,0,3,,,,,,,,,,2,,77,127
23422,note_on,94,0,7,,,,,,,,,,7,,43,0
23422,note_on,46,0,3,,,,,,,,,,2,,77,0
23422,note_on,94,0,5,,,,,,,,,,4,,58,0
23422,note_on,46,0,4,,,,,,,,,,5,,77,0
23422,note_on,94,0,6,,,,,,,,,,6,,43,0
23424,note_on,2,0,4,,,,,,,,,,5,,77,127
23424,note_on,2,0,3,,,,,,,,,,2,,77,127
23520,note_on,98,0,5,,,,,,,,,,4,,67,60
23520,note_on,98,0,6,,,,,,,,,,6,,60,75
23520,note_on,98,0,7,,,,,,,,,,7,,60,75
23566,note_on,46,0,6,,,,,,,,,,6,,60,0
23566,note_on,46,0,7,,,,,,,,,,7,,60,0
23568,note_on,2,0,6,,,,,,,,,,6,,58,75
23568,note_on,2,0,7,,,,,,,,,,7,,58,75
23584,note_on,160,0,3,,,,,,,,,,2,,77,0
23584,note_on,160,0,4,,,,,,,,,,5,,77,0
23614,note_on,94,0,5,,,,,,,,,,4,,67,0
23614,note_on,46,0,6,,,,,,,,,,6,,58,0
23614,note_on,46,0,7,,,,,,,,,,7,,58,0
23616,note_on,2,0,5,,,,,,,,,,4,,67,60
23616,note_on,2,0,6,,,,,,,,,,6,,60,75
23616,note_on,2,0,7,,,,,,,,,,7,,60,75
23616,note_on,32,0,4,,,,,,,,,,5,,76,127
23616,note_on,32,0,3,,,,,,,,,,2,,76,127
23710,note_on,94,0,4,,,,,,,,,,5,,76,0
23710,note_on,94,0,5,,,,,,,,,,4,,67,0
23710,note_on,94,0,6,,,,,,,,,,6,,60,0
23710,note_on,94,0,3,,,,,,,,,,2,,76,0
23710,note_on,94,0,7,,,,,,,,,,7,,60,0
23712,note_on,2,0,4,,,,,,,,,,5,,74,127
23712,note_on,2,0,6,,,,,,,,,,6,,48,75
23712,note_on,2,0,7,,,,,,,,,,7,,48,75
23712,note_on,2,0,3,,,,,,,,,,2,,74,127
23712,note_on,2,0,5,,,,,,,,,,4,,67,60
23758,note_on,46,0,4,,,,,,,,,,5,,74,0
23758,note_on,46,0,3,,,,,,,,,,2,,74,0
23760,note_on,2,0,4,,,,,,,,,,5,,72,127
23760,note_on,2,0,3,,,,,,,,,,2,,72,127
23806,note_on,94,0,6,,,,,,,,,,6,,48,0
23806,note_on,94,0,7,,,,,,,,,,7,,48,0
23806,note_on,46,0,3,,,,,,,,,,2,,72,0
23806,note_on,46,0,4,,,,,,,,,,5,,72,0
23806,note_on,94,0,5,,,,,,,,,,4,,67,0
23808,note_on,2,0,3,,,,,,,,,,2,,74,127
23808,note_on,2,0,4,,,,,,,,,,5,,74,127
23902,note_on,94,0,3,,,,,,,,,,2,,74,0
23902,note_on,94,0,4,,,,,,,,,,5,,74,0
23904,note_on,2,0,3,,,,,,,,,,2,,76,127
23904,note_on,98,0,7,,,,,,,,,,7,,60,75
23904,note_on,98,0,5,,,,,,,,,,4,,67,60
23904,note_on,98,0,6,,,,,,,,,,6,,60,75
23904,note_on,2,0,4,,,,,,,,,,5,,76,127
23998,note_on,94,0,6,,,,,,,,,,6,,60,0
23998,note_on,94,0,7,,,,,,,,,,7,,60,0
23998,note_on,94,0,3,,,,,,,,,,2,,76,0
23998,note_on,94,0,4,,,,,,,,,,5,,76,0
23998,note_on,94,0,5,,,,,,,,,,4,,67,0
24000,note_on,2,0,6,,,,,,,,,,6,,53,75
24000,note_on,2,0,4,,,,,,,,,,5,,77,127
24000,note_on,2,0,5,,,,,,,,,,4,,69,60
24000,note_on,2,0,3,,,,,,,,,,2,,77,127
24000,note_on,2,0,7,,,,,,,,,,7,,53,75
24094,note_on,94,0,5,,,,,,,,,,4,,69,0
24094,note_on,94,0,4,,,,,,,,,,5,,77,0
24094,note_on,94,0,6,,,,,,,,,,6,,53,0
24094,note_on,94,0,7,,,,,,,,,,7,,53,0
24094,note_on,94,0,3,,,,,,,,,,2,,77,0
24096,note_on,2,0,6,,,,,,,,,,6,,48,75
24096,note_on,2,0,3,,,,,,,,,,2,,79,127
24096,note_on,2,0,5,,,,,,,,,,4,,64,60
24096,note_on,2,0,7,,,,,,,,,,7,,48,75
24096,note_on,2,0,4,,,,,,,,,,5,,79,127
24190,note_on,94,0,5,,,,,,,,,,4,,64,0
24190,note_on,94,0,4,,,,,,,,,,5,,79,0
24190,note_on,94,0,6,,,,,,,,,,6,,48,0
24190,note_on,94,0,7,,,,,,,,,,7,,48,0
24190,note_on,94,0,3,,,,,,,,,,2,,79,0
24192,note_on,2,0,4,,,,,,,,,,5,,81,127
24192,note_on,2,0,3,,,,,,,,,,2,,81,127
24286,note_on,94,0,4,,,,,,,,,,5,,81,0
24286,note_on,94,0,3,,,,,,,,,,2,,81,0
24288,note_on,2,0,4,,,,,,,,,,5,,77,127
24288,note_on,98,0,5,,,,,,,,,,4,,60,60
24288,note_on,98,0,6,,,,,,,,,,6,,57,75
24288,note_on,2,0,3,,,,,,,,,,2,,77,127
24288,note_on,98,0,7,,,,,,,,,,7,,57,75
24382,note_on,94,0,6,,,,,,,,,,6,,57,0
24382,note_on,94,0,3,,,,,,,,,,2,,77,0
24382,note_on,94,0,5,,,,,,,,,,4,,60,0
24382,note_on,94,0,7,,,,,,,,,,7,,57,0
24382,note_on,94,0,4,,,,,,,,,,5,,77,0
24384,note_on,2,0,5,,,,,,,,,,4,,58,60
24384,note_on,2,0,6,,,,,,,,,,6,,55,75
24384,note_on,2,0,7,,,,,,,,,,7,,55,75
24478,note_on,94,0,6,,,,,,,,,,6,,55,0
24478,note_on,94,0,7,,,,,,,,,,7,,55,0
24478,note_on,94,0,5,,,,,,,,,,4,,58,0
24480,note_on,2,0,7,,,,,,,,,,7,,53,75
24480,note_on,98,0,3,,,,,,,,,,2,,77,127
24480,note_on,98,0,4,,,,,,,,,,5,,77,127
24480,note_on,2,0,5,,,,,,,,,,4,,57,60
24480,note_on,2,0,6,,,,,,,,,,6,,53,75
24574,note_on,94,0,6,,,,,,,,,,6,,53,0
24574,note_on,94,0,3,,,,,,,,,,2,,77,0
24574,note_on,94,0,4,,,,,,,,,,5,,77,0
24574,note_on,94,0,7,,,,,,,,,,7,,53,0
24574,note_on,94,0,5,,,,,,,,,,4,,57,0
24576,note_on,2,0,6,,,,,,,,,,6,,48,75
24576,note_on,2,0,3,,,,,,,,,,2,,60,127
24576,note_on,2,0,5,,,,,,,,,,4,,60,60
24576,note_on,2,0,7,,,,,,,,,,7,,48,75
24576,note_on,2,0,4,,,,,,,,,,5,,60,127
24670,note_on,94,0,3,,,,,,,,,,2,,60,0
24670,note_on,94,0,4,,,,,,,,,,5,,60,0
24672,note_on,2,0,3,,,,,,,,,,2,,77,127
24672,note_on,2,0,4,,,,,,,,,,5,,77,127
24736,note_on,160,0,5,,,,,,,,,,4,,60,0
24736,note_on,160,0,6,,,,,,,,,,6,,48,0
24736,note_on,160,0,7,,,,,,,,,,7,,48,0
24766,note_on,94,0,3,,,,,,,,,,2,,77,0
24766,note_on,94,0,4,,,,,,,,,,5,,77,0
24768,note_on,2,0,3,,,,,,,,,,2,,76,127
24768,note_on,2,0,4,,,,,,,,,,5,,76,127
24862,note_on,94,0,3,,,,,,,,,,2,,76,0
24862,note_on,94,0,4,,,,,,,,,,5,,76,0
24864,note_on,128,0,6,,,,,,,,,,6,,48,75
24864,note_on,2,0,3,,,,,,,,,,2,,60,127
24864,note_on,128,0,5,,,,,,,,,,4,,60,60
24864,note_on,128,0,7,,,,,,,,,,7,,48,75
24864,note_on,2,0,4,,,,,,,,,,5,,60,127
24958,note_on,94,0,5,,,,,,,,,,4,,60,0
24958,note_on,94,0,7,,,,,,,,,,7,,48,0
24958,note_on,94,0,4,,,,,,,,,,5,,60,0
24958,note_on,94,0,3,,,,,,,,,,2,,60,0
24958,note_on,94,0,6,,,,,,,,,,6,,48,0
24960,note_on,2,0,5,,,,,,,,,,4,,58,60
24960,note_on,2,0,7,,,,,,,,,,7,,46,75
24960,note_on,2,0,6,,,,,,,,,,6,,46,75
24960,note_on,2,0,4,,,,,,,,,,5,,58,127
24960,note_on,2,0,3,,,,,,,,,,2,,58,127
25054,note_on,94,0,4,,,,,,,,,,5,,58,0
25054,note_on,94,0,3,,,,,,,,,,2,,58,0
25056,note_on,2,0,4,,,,,,,,,,5,,77,127
25056,note_on,2,0,3,,,,,,,,,,2,,77,127
25120,note_on,160,0,7,,,,,,,,,,7,,46,0
25120,note_on,160,0,6,,,,,,,,,,6,,46,0
25120,note_on,160,0,5,,,,,,,,,,4,,58,0
25150,note_on,94,0,3,,,,,,,,,,2,,77,0
25150,note_on,94,0,4,,,,,,,,,,5,,77,0
25152,note_on,2,0,4,,,,,,,,,,5,,74,127
25152,note_on,2,0,3,,,,,,,,,,2,,74,127
25246,note_on,94,0,3,,,,,,,,,,2,,74,0
25246,note_on,94,0,4,,,,,,,,,,5,,74,0
25248,note_on,128,0,5,,,,,,,,,,4,,58,60
25248,note_on,128,0,7,,,,,,,,,,7,,46,75
25248,note_on,2,0,3,,,,,,,,,,2,,58,127
25248,note_on,2,0,4,,,,,,,,,,5,,58,127
25248,note_on,128,0,6,,,,,,,,,,6,,46,75
25342,note_on,94,0,3,,,,,,,,,,2,,58,0
25342,note_on,94,0,4,,,,,,,,,,5,,58,0
25342,note_on,94,0,7,,,,,,,,,,7,,46,0
25342,note_on,94,0,5,,,,,,,,,,4,,58,0
25342,note_on,94,0,6,,,,,,,,,,6,,46,0
25344,note_on,2,0,3,,,,,,,,,,2,,57,127
25344,note_on,2,0,4,,,,,,,,,,5,,57,127
25344,note_on,2,0,6,,,,,,,,,,6,,45,75
25344,note_on,2,0,7,,,,,,,,,,7,,45,75
25344,note_on,2,0,5,,,,,,,,,,4,,57,60
25438,note_on,94,0,7,,,,,,,,,,7,,45,0
25438,note_on,94,0,3,,,,,,,,,,2,,57,0
25438,note_on,94,0,4,,,,,,,,,,5,,57,0
25438,note_on,94,0,6,,,,,,,,,,6,,45,0
25438,note_on,94,0,5,,,,,,,,,,4,,57,0
25440,note_on,2,0,5,,,,,,,,,,4,,67,60
25440,note_on,2,0,6,,,,,,,,,,6,,64,75
25440,note_on,2,0,4,,,,,,,,,,5,,82,127
25440,note_on,2,0,7,,,,,,,,,,7,,64,75
25440,note_on,2,0,3,,,,,,,,,,2,,82,127
25534,note_on,94,0,6,,,,,,,,,,6,,64,0
25534,note_on,94,0,5,,,,,,,,,,4,,67,0
25534,note_on,94,0,3,,,,,,,,,,2,,82,0
25534,note_on,94,0,4,,,,,,,,,,5,,82,0
25534,note_on,94,0,7,,,,,,,,,,7,,64,0
25536,note_on,2,0,4,,,,,,,,,,5,,81,127
25536,note_on,2,0,5,,,,,,,,,,4,,69,60
25536,note_on,2,0,3,,,,,,,,,,2,,81,127
25536,note_on,2,0,7,,,,,,,,,,7,,65,75
25536,note_on,2,0,6,,,,,,,,,,6,,65,75
25582,note_on,46,0,3,,,,,,,,,,2,,81,0
25582,note_on,46,0,4,,,,,,,,,,5,,81,0
25584,note_on,2,0,4,,,,,,,,,,5,,82,127
25584,note_on,2,0,3,,,,,,,,,,2,,82,127
25606,note_on,22,0,3,,,,,,,,,,2,,82,0
25606,note_on,22,0,4,,,,,,,,,,5,,82,0
25608,note_on,2,0,3,,,,,,,,,,2,,84,127
25608,note_on,2,0,4,,,,,,,,,,5,,84,127
25630,note_on,94,0,7,,,,,,,,,,7,,65,0
25630,note_on,94,0,5,,,,,,,,,,4,,69,0
25630,note_on,94,0,6,,,,,,,,,,6,,65,0
25630,note_on,22,0,3,,,,,,,,,,2,,84,0
25630,note_on,22,0,4,,,,,,,,,,5,,84,0
25632,note_on,2,0,6,,,,,,,,,,6,,60,75
25632,note_on,2,0,5,,,,,,,,,,4,,67,60
25632,note_on,2,0,7,,,,,,,,,,7,,60,75
25632,note_on,2,0,3,,,,,,,,,,2,,76,127
25632,note_on,2,0,4,,,,,,,,,,5,,76,127
25726,note_on,94,0,6,,,,,,,,,,6,,60,0
25726,note_on,94,0,7,,,,,,,,,,7,,60,0
25726,note_on,94,0,5,,,,,,,,,,4,,67,0
25726,note_on,94,0,4,,,,,,,,,,5,,76,0
25726,note_on,94,0,3,,,,,,,,,,2,,76,0
25728,note_on,2,0,3,,,,,,,,,,2,,77,127
25728,note_on,2,0,5,,,,,,,,,,4,,72,60
25728,note_on,2,0,4,,,,,,,,,,5,,77,127
25728,note_on,2,0,6,,,,,,,,,,6,,57,75
25728,note_on,2,0,7,,,,,,,,,,7,,57,75
25822,note_on,94,0,7,,,,,,,,,,7,,57,0
25822,note_on,94,0,5,,,,,,,,,,4,,72,0
25822,note_on,94,0,4,,,,,,,,,,5,,77,0
25822,note_on,94,0,6,,,,,,,,,,6,,57,0
25822,note_on,94,0,3,,,,,,,,,,2,,77,0
25824,note_on,2,0,7,,,,,,,,,,7,,55,75
25824,note_on,2,0,4,,,,,,,,,,5,,82,127
25824,note_on,2,0,5,,,,,,,,,,4,,64,60
25824,note_on,2,0,3,,,,,,,,,,2,,82,127
25824,note_on,2,0,6,,,,,,,,,,6,,55,75
25918,note_on,94,0,6,,,,,,,,,,6,,55,0
25918,note_on,94,0,7,,,,,,,,,,7,,55,0
25918,note_on,94,0,3,,,,,,,,,,2,,82,0
25918,note_on,94,0,4,,,,,,,,,,5,,82,0
25918,note_on,94,0,5,,,,,,,,,,4,,64,0
25920,note_on,2,0,4,,,,,,,,,,5,,81,127
25920,note_on,2,0,6,,,,,,,,,,6,,53,75
25920,note_on,2,0,5,,,,,,,,,,4,,60,60
25920,note_on,2,0,3,,,,,,,,,,2,,81,127
25920,note_on,2,0,7,,,,,,,,,,7,,53,75
25966,note_on,46,0,3,,,,,,,,,,2,,81,0
25966,note_on,46,0,4,,,,,,,,,,5,,81,0
25968,note_on,2,0,3,,,,,,,,,,2,,82,127
25968,note_on,2,0,4,,,,,,,,,,5,,82,127
25990,note_on,22,0,3,,,,,,,,,,2,,82,0
25990,note_on,22,0,4,,,,,,,,,,5,,82,0
25992,note_on,2,0,4,,,,,,,,,,5,,84,127
25992,note_on,2,0,3,,,,,,,,,,2,,84,127
26014,note_on,94,0,7,,,,,,,,,,7,,53,0
26014,note_on,94,0,5,,,,,,,,,,4,,60,0
26014,note_on,22,0,3,,,,,,,,,,2,,84,0
26014,note_on,22,0,4,,,,,,,,,,5,,84,0
26014,note_on,94,0,6,,,,,,,,,,6,,53,0
26016,note_on,2,0,5,,,,,,,,,,4,,60,60
26016,note_on,2,0,3,,,,,,,,,,2,,64,127
26016,note_on,2,0,6,,,,,,,,,,6,,48,75
26016,note_on,2,0,4,,,,,,,,,,5,,64,127
26016,note_on,2,0,7,,,,,,,,,,7,,48,75
26110,note_on,94,0,3,,,,,,,,,,2,,64,0
26110,note_on,94,0,7,,,,,,,,,,7,,48,0
26110,note_on,94,0,4,,,,,,,,,,5,,64,0
26110,note_on,94,0,5,,,,,,,,,,4,,60,0
26110,note_on,94,0,6,,,,,,,,,,6,,48,0
26112,note_on,2,0,6,,,,,,,,,,6,,53,75
26112,note_on,2,0,3,,,,,,,,,,2,,65,127
26112,note_on,2,0,4,,,,,,,,,,5,,65,127
26112,note_on,2,0,5,,,,,,,,,,4,,57,60
26112,note_on,2,0,7,,,,,,,,,,7,,53,75
26206,note_on,94,0,3,,,,,,,,,,2,,65,0
26206,note_on,94,0,5,,,,,,,,,,4,,57,0
26206,note_on,94,0,4,,,,,,,,,,5,,65,0
26206,note_on,94,0,7,,,,,,,,,,7,,53,0
26206,note_on,94,0,6,,,,,,,,,,6,,53,0
26208,note_on,2,0,7,,,,,,,,,,7,,64,75
26208,note_on,2,0,6,,,,,,,,,,6,,64,75
26208,note_on,2,0,4,,,,,,,,,,5,,82,127
26208,note_on,2,0,3,,,,,,,,,,2,,82,127
26208,note_on,2,0,5,,,,,,,,,,4,,67,60
26302,note_on,94,0,7,,,,,,,,,,7,,64,0
26302,note_on,94,0,5,,,,,,,,,,4,,67,0
26302,note_on,94,0,6,,,,,,,,,,6,,64,0
26302,note_on,94,0,4,,,,,,,,,,5,,82,0
26302,note_on,94,0,3,,,,,,,,,,2,,82,0
26304,note_on,2,0,6,,,,,,,,,,6,,65,75
26304,note_on,2,0,4,,,,,,,,,,5,,81,127
26304,note_on,2,0,7,,,,,,,,,,7,,65,75
26304,note_on,2,0,5,,,,,,,,,,4,,69,60
26304,note_on,2,0,3,,,,,,,,,,2,,81,127
26350,note_on,46,0,3,,,,,,,,,,2,,81,0
26350,note_on,46,0,4,,,,,,,,,,5,,81,0
26352,note_on,2,0,4,,,,,,,,,,5,,82,127
26352,note_on,2,0,3,,,,,,,,,,2,,82,127
26374,note_on,22,0,4,,,,,,,,,,5,,82,0
26374,note_on,22,0,3,,,,,,,,,,2,,82,0
26376,note_on,2,0,3,,,,,,,,,,2,,84,127
26376,note_on,2,0,4,,,,,,,,,,5,,84,127
26398,note_on,22,0,4,,,,,,,,,,5,,84,0
26398,note_on,22,0,3,,,,,,,,,,2,,84,0
26398,note_on,94,0,5,,,,,,,,,,4,,69,0
26398,note_on,94,0,6,,,,,,,,,,6,,65,0
26398,note_on,94,0,7,,,,,,,,,,7,,65,0
26400,note_on,2,0,7,,,,,,,,,,7,,60,75
26400,note_on,2,0,6,,,,,,,,,,6,,60,75
26400,note_on,2,0,4,,,,,,,,,,5,,76,127
26400,note_on,2,0,5,,,,,,,,,,4,,67,60
26400,note_on,2,0,3,,,,,,,,,,2,,76,127
26494,note_on,94,0,3,,,,,,,,,,2,,76,0
26494,note_on,94,0,6,,,,,,,,,,6,,60,0
26494,note_on,94,0,5,,,,,,,,,,4,,67,0
26494,note_on,94,0,7,,,,,,,,,,7,,60,0
26494,note_on,94,0,4,,,,,,,,,,5,,76,0
26496,note_on,2,0,7,,,,,,,,,,7,,57,75
26496,note_on,2,0,4,,,,,,,,,,5,,77,127
26496,note_on,2,0,3,,,,,,,,,,2,,77,127
26496,note_on,2,0,5,,,,,,,,,,4,,72,60
26496,note_on,2,0,6,,,,,,,,,,6,,57,75
26590,note_on,94,0,7,,,,,,,,,,7,,57,0
26590,note_on,94,0,3,,,,,,,,,,2,,77,0
26590,note_on,94,0,5,,,,,,,,,,4,,72,0
26590,note_on,94,0,4,,,,,,,,,,5,,77,0
26590,note_on,94,0,6,,,,,,,,,,6,,57,0
26592,note_on,2,0,5,,,,,,,,,,4,,64,60
26592,note_on,2,0,4,,,,,,,,,,5,,82,127
26592,note_on,2,0,7,,,,,,,,,,7,,55,75
26592,note_on,2,0,3,,,,,,,,,,2,,82,127
26592,note_on,2,0,6,,,,,,,,,,6,,55,75
26686,note_on,94,0,4,,,,,,,,,,5,,82,0
26686,note_on,94,0,7,,,,,,,,,,7,,55,0
26686,note_on,94,0,5,,,,,,,,,,4,,64,0
26686,note_on,94,0,6,,,,,,,,,,6,,55,0
26686,note_on,94,0,3,,,,,,,,,,2,,82,0
26688,note_on,2,0,7,,,,,,,,,,7,,53,75
26688,note_on,2,0,3,,,,,,,,,,2,,81,127
26688,note_on,2,0,5,,,,,,,,,,4,,60,60
26688,note_on,2,0,6,,,,,,,,,,6,,53,75
26688,note_on,2,0,4,,,,,,,,,,5,,81,127
26734,note_on,46,0,3,,,,,,,,,,2,,81,0
26734,note_on,46,0,4,,,,,,,,,,5,,81,0
26736,note_on,2,0,3,,,,,,,,,,2,,82,127
26736,note_on,2,0,4,,,,,,,,,,5,,82,127
26758,note_on,22,0,4,,,,,,,,,,5,,82,0
26758,note_on,22,0,3,,,,,,,,,,2,,82,0
26760,note_on,2,0,4,,,,,,,,,,5,,84,127
26760,note_on,2,0,3,,,,,,,,,,2,,84,127
26782,note_on,22,0,3,,,,,,,,,,2,,84,0
26782,note_on,22,0,4,,,,,,,,,,5,,84,0
26782,note_on,94,0,6,,,,,,,,,,6,,53,0
26782,note_on,94,0,5,,,,,,,,,,4,,60,0
26782,note_on,94,0,7,,,,,,,,,,7,,53,0
26784,note_on,2,0,4,,,,,,,,,,5,,64,127
26784,note_on,2,0,5,,,,,,,,,,4,,60,60
26784,note_on,2,0,3,,,,,,,,,,2,,64,127
26784,note_on,2,0,6,,,,,,,,,,6,,48,75
26784,note_on,2,0,7,,,,,,,,,,7,,48,75
26878,note_on,94,0,3,,,,,,,,,,2,,64,0
26878,note_on,94,0,6,,,,,,,,,,6,,48,0
26878,note_on,94,0,4,,,,,,,,,,5,,64,0
26878,note_on,94,0,7,,,,,,,,,,7,,48,0
26878,note_on,94,0,5,,,,,,,,,,4,,60,0
26880,note_on,2,0,4,,,,,,,,,,5,,65,127
26880,note_on,2,0,5,,,,,,,,,,4,,57,60
26880,note_on,2,0,6,,,,,,,,,,6,,41,75
26880,note_on,2,0,3,,,,,,,,,,2,,65,127
26880,note_on,6560,0,1,,,,,,,,,,0,,65,110
26880,note_on,2,0,7,,,,,,,,,,7,,41,75
26974,note_on,94,0,3,,,,,,,,,,2,,65,0
26974,note_on,94,0,4,,,,,,,,,,5,,65,0
26974,note_on,94,0,1,,,,,,,,,,0,,65,0
26976,control_change,2,0,4,,,,,,,,10,0,5,,,
26976,note_on,0,0,4,,,,,,,,,,5,,65,92
26976,note_on,0,0,1,,,,,,,,,,0,,69,110
26976,note_on,2,0,1,,,,,,,,,,0,,65,110
26976,control_change,2,0,3,,,,,,,,10,0,2,,,
26976,note_on,0,0,3,,,,,,,,,,2,,65,92
27022,note_on,0,0,1,,,,,,,,,,0,,69,0
27022,note_on,46,0,1,,,,,,,,,,0,,65,0
27024,note_on,2,0,1,,,,,,,,,,0,,70,110
27040,note_on,160,0,5,,,,,,,,,,4,,57,0
27040,note_on,160,0,6,,,,,,,,,,6,,41,0
27040,note_on,160,0,7,,,,,,,,,,7,,41,0
27070,note_on,94,0,3,,,,,,,,,,2,,65,0
27070,note_on,94,0,4,,,,,,,,,,5,,65,0
27070,note_on,46,0,1,,,,,,,,,,0,,70,0
27072,note_on,2,0,3,,,,,,,,,,2,,65,92
27072,note_on,2,0,4,,,,,,,,,,5,,65,92
27072,note_on,0,0,1,,,,,,,,,,0,,72,110
27072,note_on,2,0,1,,,,,,,,,,0,,65,110
27166,note_on,94,0,3,,,,,,,,,,2,,65,0
27166,note_on,94,0,4,,,,,,,,,,5,,65,0
27166,note_on,94,0,1,,,,,,,,,,0,,65,0
27166,note_on,0,0,1,,,,,,,,,,0,,72,0
27168,note_on,2,0,1,,,,,,,,,,0,,65,110
27168,note_on,2,0,4,,,,,,,,,,5,,65,92
27168,note_on,0,0,1,,,,,,,,,,0,,70,110
27168,note_on,2,0,3,,,,,,,,,,2,,65,92
27262,note_on,94,0,4,,,,,,,,,,5,,65,0
27262,note_on,94,0,1,,,,,,,,,,0,,65,0
27262,note_on,0,0,1,,,,,,,,,,0,,70,0
27262,note_on,94,0,3,,,,,,,,,,2,,65,0
27264,note_on,2,0,3,,,,,,,,,,2,,65,92
27264,note_on,2,0,4,,,,,,,,,,5,,65,92
27264,note_on,2,0,1,,,,,,,,,,0,,65,110
27264,note_on,0,0,1,,,,,,,,,,0,,69,110
27310,note_on,46,0,1,,,,,,,,,,0,,65,0
27310,note_on,0,0,1,,,,,,,,,,0,,69,0
27312,note_on,2,0,1,,,,,,,,,,0,,72,110
27358,note_on,46,0,1,,,,,,,,,,0,,72,0
27358,note_on,94,0,4,,,,,,,,,,5,,65,0
27358,note_on,94,0,3,,,,,,,,,,2,,65,0
27360,note_on,2,0,1,,,,,,,,,,0,,62,110
27360,note_on,2,0,4,,,,,,,,,,5,,62,92
27360,note_on,2,0,3,,,,,,,,,,2,,62,92
27406,note_on,46,0,1,,,,,,,,,,0,,62,0
27408,note_on,2,0,1,,,,,,,,,,0,,72,110
27454,note_on,94,0,4,,,,,,,,,,5,,62,0
27454,note_on,46,0,1,,,,,,,,,,0,,72,0
27454,note_on,94,0,3,,,,,,,,,,2,,62,0
27456,note_on,2,0,3,,,,,,,,,,2,,64,92
27456,note_on,2,0,4,,,,,,,,,,5,,64,92
27456,note_on,2,0,1,,,,,,,,,,0,,64,110
27502,note_on,46,0,1,,,,,,,,,,0,,64,0
27504,note_on,2,0,1,,,,,,,,,,0,,74,110
27550,note_on,46,0,1,,,,,,,,,,0,,74,0
27552,note_on,2,0,1,,,,,,,,,,0,,72,110
27598,note_on,46,0,1,,,,,,,,,,0,,72,0
27600,note_on,2,0,1,,,,,,,,,,0,,70,110
27616,note_on,160,0,3,,,,,,,,,,2,,64,0
27616,note_on,160,0,4,,,,,,,,,,5,,64,0
27646,note_on,46,0,1,,,,,,,,,,0,,70,0
27648,note_on,32,0,3,,,,,,,,,,2,,65,92
27648,note_on,32,0,4,,,,,,,,,,5,,65,92
27648,note_on,2,0,1,,,,,,,,,,0,,65,110
27742,note_on,94,0,3,,,,,,,,,,2,,65,0
27742,note_on,94,0,4,,,,,,,,,,5,,65,0
27742,note_on,94,0,1,,,,,,,,,,0,,65,0
27744,note_on,2,0,4,,,,,,,,,,5,,65,92
27744,note_on,2,0,3,,,,,,,,,,2,,65,92
27744,note_on,2,0,1,,,,,,,,,,0,,65,110
27744,note_on,0,0,1,,,,,,,,,,0,,69,110
27790,note_on,46,0,1,,,,,,,,,,0,,65,0
27790,note_on,0,0,1,,,,,,,,,,0,,69,0
27792,note_on,2,0,1,,,,,,,,,,0,,70,110
27838,note_on,46,0,1,,,,,,,,,,0,,70,0
27838,note_on,94,0,4,,,,,,,,,,5,,65,0
27838,note_on,94,0,3,,,,,,,,,,2,,65,0
27840,note_on,2,0,1,,,,,,,,,,0,,65,110
27840,note_on,0,0,1,,,,,,,,,,0,,72,110
27840,note_on,2,0,4,,,,,,,,,,5,,65,92
27840,note_on,2,0,3,,,,,,,,,,2,,65,92
27934,note_on,94,0,4,,,,,,,,,,5,,65,0
27934,note_on,94,0,3,,,,,,,,,,2,,65,0
27934,note_on,94,0,1,,,,,,,,,,0,,65,0
27934,note_on,0,0,1,,,,,,,,,,0,,72,0
27936,note_on,2,0,3,,,,,,,,,,2,,65,92
27936,note_on,2,0,4,,,,,,,,,,5,,65,92
27936,note_on,2,0,1,,,,,,,,,,0,,65,110
27936,note_on,0,0,1,,,,,,,,,,0,,70,110
28030,note_on,94,0,3,,,,,,,,,,2,,65,0
28030,note_on,94,0,4,,,,,,,,,,5,,65,0
28030,note_on,94,0,1,,,,,,,,,,0,,65,0
28030,note_on,0,0,1,,,,,,,,,,0,,70,0
28032,note_on,2,0,3,,,,,,,,,,2,,65,92
28032,note_on,2,0,4,,,,,,,,,,5,,65,92
28032,note_on,0,0,1,,,,,,,,,,0,,69,110
28032,note_on,2,0,1,,,,,,,,,,0,,65,110
28078,note_on,46,0,1,,,,,,,,,,0,,65,0
28078,note_on,0,0,1,,,,,,,,,,0,,69,0
28080,note_on,2,0,1,,,,,,,,,,0,,72,110
28126,note_on,94,0,4,,,,,,,,,,5,,65,0
28126,note_on,46,0,1,,,,,,,,,,0,,72,0
28126,note_on,94,0,3,,,,,,,,,,2,,65,0
28128,note_on,2,0,4,,,,,,,,,,5,,62,92
28128,note_on,2,0,3,,,,,,,,,,2,,62,92
28128,note_on,2,0,1,,,,,,,,,,0,,62,110
28174,note_on,46,0,1,,,,,,,,,,0,,62,0
28176,note_on,2,0,1,,,,,,,,,,0,,72,110
28222,note_on,94,0,3,,,,,,,,,,2,,62,0
28222,note_on,46,0,1,,,,,,,,,,0,,72,0
28222,note_on,94,0,4,,,,,,,,,,5,,62,0
28224,note_on,2,0,4,,,,,,,,,,5,,64,92
28224,note_on,2,0,3,,,,,,,,,,2,,64,92
28224,note_on,2,0,1,,,,,,,,,,0,,64,110
28270,note_on,46,0,1,,,,,,,,,,0,,64,0
28272,note_on,2,0,1,,,,,,,,,,0,,74,110
28318,note_on,46,0,1,,,,,,,,,,0,,74,0
28320,note_on,2,0,1,,,,,,,,,,0,,72,110
28366,note_on,46,0,1,,,,,,,,,,0,,72,0
28368,note_on,2,0,1,,,,,,,,,,0,,70,110
28384,note_on,160,0,4,,,,,,,,,,5,,64,0
28384,note_on,160,0,3,,,,,,,,,,2,,64,0
28414,note_on,46,0,1,,,,,,,,,,0,,70,0
28416,note_on,2,0,1,,,,,,,,,,0,,65,110
28416,note_on,0,0,1,,,,,,,,,,0,,69,110
28416,note_on,32,0,4,,,,,,,,,,5,,65,92
28416,note_on,32,0,3,,,,,,,,,,2,,65,92
28510,note_on,94,0,1,,,,,,,,,,0,,65,0
28510,note_on,0,0,1,,,,,,,,,,0,,69,0
28510,note_on,94,0,4,,,,,,,,,,5,,65,0
28510,note_on,94,0,3,,,,,,,,,,2,,65,0
28512,note_on,2,0,1,,,,,,,,,,0,,77,110
28512,note_on,2,0,4,,,,,,,,,,5,,65,92
28512,note_on,2,0,3,,,,,,,,,,2,,65,92
28558,note_on,46,0,1,,,,,,,,,,0,,77,0
28560,note_on,2,0,1,,,,,,,,,,0,,79,110
28606,note_on,94,0,4,,,,,,,,,,5,,65,0
28606,note_on,94,0,3,,,,,,,,,,2,,65,0
28606,note_on,46,0,1,,,,,,,,,,0,,79,0
28608,note_on,2,0,3,,,,,,,,,,2,,65,92
28608,note_on,2,0,4,,,,,,,,,,5,,65,92
28608,note_on,2,0,1,,,,,,,,,,0,,81,110
28702,note_on,94,0,1,,,,,,,,,,0,,81,0
28702,note_on,94,0,3,,,,,,,,,,2,,65,0
28702,note_on,94,0,4,,,,,,,,,,5,,65,0
28704,note_on,2,0,3,,,,,,,,,,2,,65,92
28704,note_on,2,0,4,,,,,,,,,,5,,65,92
28704,note_on,2,0,1,,,,,,,,,,0,,77,110
28798,note_on,94,0,3,,,,,,,,,,2,,65,0
28798,note_on,94,0,4,,,,,,,,,,5,,65,0
28798,note_on,94,0,1,,,,,,,,,,0,,77,0
28800,note_on,2,0,4,,,,,,,,,,5,,72,92
28800,note_on,2,0,1,,,,,,,,,,0,,76,110
28800,note_on,2,0,3,,,,,,,,,,2,,72,92
28846,note_on,46,0,1,,,,,,,,,,0,,76,0
28848,note_on,2,0,1,,,,,,,,,,0,,79,110
28894,note_on,94,0,3,,,,,,,,,,2,,72,0
28894,note_on,94,0,4,,,,,,,,,,5,,72,0
28894,note_on,46,0,1,,,,,,,,,,0,,79,0
28896,note_on,2,0,3,,,,,,,,,,2,,60,92
28896,note_on,2,0,1,,,,,,,,,,0,,72,110
28896,note_on,2,0,4,,,,,,,,,,5,,60,92
28942,note_on,46,0,1,,,,,,,,,,0,,72,0
28944,note_on,2,0,1,,,,,,,,,,0,,79,110
28990,note_on,94,0,4,,,,,,,,,,5,,60,0
28990,note_on,94,0,3,,,,,,,,,,2,,60,0
28990,note_on,46,0,1,,,,,,,,,,0,,79,0
28992,note_on,2,0,4,,,,,,,,,,5,,60,92
28992,note_on,2,0,3,,,,,,,,,,2,,60,92
28992,note_on,2,0,1,,,,,,,,,,0,,70,110
29038,note_on,46,0,1,,,,,,,,,,0,,70,0
29040,note_on,2,0,1,,,,,,,,,,0,,74,110
29086,note_on,94,0,3,,,,,,,,,,2,,60,0
29086,note_on,94,0,4,,,,,,,,,,5,,60,0
29086,note_on,46,0,1,,,,,,,,,,0,,74,0
29088,note_on,2,0,4,,,,,,,,,,5,,62,92
29088,note_on,2,0,3,,,,,,,,,,2,,62,92
29088,note_on,2,0,1,,,,,,,,,,0,,72,110
29134,note_on,46,0,4,,,,,,,,,,5,,62,0
29134,note_on,46,0,3,,,,,,,,,,2,,62,0
29134,note_on,46,0,1,,,,,,,,,,0,,72,0
29136,note_on,2,0,1,,,,,,,,,,0,,70,110
29136,note_on,2,0,4,,,,,,,,,,5,,64,92
29136,note_on,2,0,3,,,,,,,,,,2,,64,92
29182,note_on,46,0,3,,,,,,,,,,2,,64,0
29182,note_on,46,0,1,,,,,,,,,,0,,70,0
29182,note_on,46,0,4,,,,,,,,,,5,,64,0
29184,note_on,2,0,3,,,,,,,,,,2,,65,92
29184,note_on,2,0,1,,,,,,,,,,0,,65,110
29184,note_on,2,0,4,,,,,,,,,,5,,65,92
29184,note_on,0,0,1,,,,,,,,,,0,,69,110
29278,note_on,94,0,3,,,,,,,,,,2,,65,0
29278,note_on,94,0,4,,,,,,,,,,5,,65,0
29278,note_on,94,0,1,,,,,,,,,,0,,65,0
29278,note_on,0,0,1,,,,,,,,,,0,,69,0
29280,note_on,2,0,3,,,,,,,,,,2,,65,92
29280,note_on,2,0,1,,,,,,,,,,0,,77,110
29280,note_on,2,0,4,,,,,,,,,,5,,65,92
29326,note_on,46,0,1,,,,,,,,,,0,,77,0
29328,note_on,2,0,1,,,,,,,,,,0,,79,110
29374,note_on,94,0,3,,,,,,,,,,2,,65,0
29374,note_on,94,0,4,,,,,,,,,,5,,65,0
29374,note_on,46,0,1,,,,,,,,,,0,,79,0
29376,note_on,2,0,4,,,,,,,,,,5,,65,92
29376,note_on,2,0,1,,,,,,,,,,0,,81,110
29376,note_on,2,0,3,,,,,,,,,,2,,65,92
29470,note_on,94,0,3,,,,,,,,,,2,,65,0
29470,note_on,94,0,1,,,,,,,,,,0,,81,0
29470,note_on,94,0,4,,,,,,,,,,5,,65,0
29472,note_on,2,0,1,,,,,,,,,,0,,77,110
29472,note_on,2,0,3,,,,,,,,,,2,,65,92
29472,note_on,2,0,4,,,,,,,,,,5,,65,92
29566,note_on,94,0,3,,,,,,,,,,2,,65,0
29566,note_on,94,0,4,,,,,,,,,,5,,65,0
29566,note_on,94,0,1,,,,,,,,,,0,,77,0
29568,note_on,2,0,1,,,,,,,,,,0,,76,110
29568,note_on,2,0,4,,,,,,,,,,5,,72,92
29568,note_on,2,0,3,,,,,,,,,,2,,72,92
29614,note_on,46,0,1,,,,,,,,,,0,,76,0
29616,note_on,2,0,1,,,,,,,,,,0,,79,110
29662,note_on,46,0,1,,,,,,,,,,0,,79,0
29662,note_on,94,0,4,,,,,,,,,,5,,72,0
29662,note_on,94,0,3,,,,,,,,,,2,,72,0
29664,note_on,2,0,4,,,,,,,,,,5,,60,92
29664,note_on,2,0,3,,,,,,,,,,2,,60,92
29664,note_on,2,0,1,,,,,,,,,,0,,72,110
29710,note_on,46,0,1,,,,,,,,,,0,,72,0
29712,note_on,2,0,1,,,,,,,,,,0,,79,110
29758,note_on,94,0,3,,,,,,,,,,2,,60,0
29758,note_on,46,0,1,,,,,,,,,,0,,79,0
29758,note_on,94,0,4,,,,,,,,,,5,,60,0
29760,note_on,2,0,4,,,,,,,,,,5,,60,92
29760,note_on,2,0,3,,,,,,,,,,2,,60,92
29760,note_on,2,0,1,,,,,,,,,,0,,70,110
29806,note_on,46,0,1,,,,,,,,,,0,,70,0
29808,note_on,2,0,1,,,,,,,,,,0,,74,110
29854,note_on,94,0,4,,,,,,,,,,5,,60,0
29854,note_on,46,0,1,,,,,,,,,,0,,74,0
29854,note_on,94,0,3,,,,,,,,,,2,,60,0
29856,note_on,2,0,4,,,,,,,,,,5,,62,92
29856,note_on,2,0,3,,,,,,,,,,2,,62,92
29856,note_on,2,0,1,,,,,,,,,,0,,72,110
29902,note_on,46,0,4,,,,,,,,,,5,,62,0
29902,note_on,46,0,3,,,,,,,,,,2,,62,0
29902,note_on,46,0,1,,,,,,,,,,0,,72,0
29904,note_on,2,0,3,,,,,,,,,,2,,64,92
29904,note_on,2,0,1,,,,,,,,,,0,,70,110
29904,note_on,2,0,4,,,,,,,,,,5,,64,92
29950,note_on,46,0,3,,,,,,,,,,2,,64,0
29950,note_on,46,0,1,,,,,,,,,,0,,70,0
29950,note_on,46,0,4,,,,,,,,,,5,,64,0
29952,note_on,2,0,3,,,,,,,,,,2,,65,92
29952,note_on,2,0,4,,,,,,,,,,5,,65,92
29952,note_on,2,0,1,,,,,,,,,,0,,65,110
29952,note_on,0,0,1,,,,,,,,,,0,,69,110
30046,note_on,94,0,4,,,,,,,,,,5,,65,0
30046,note_on,94,0,3,,,,,,,,,,2,,65,0
30046,note_on,94,0,1,,,,,,,,,,0,,65,0
30046,note_on,0,0,1,,,,,,,,,,0,,69,0
30048,note_on,2,0,1,,,,,,,,,,0,,65,110
30048,note_on,0,0,1,,,,,,,,,,0,,69,110
30048,note_on,2,0,4,,,,,,,,,,5,,65,92
30048,note_on,2,0,3,,,,,,,,,,2,,65,92
30142,note_on,94,0,4,,,,,,,,,,5,,65,0
30142,note_on,94,0,1,,,,,,,,,,0,,65,0
30142,note_on,0,0,1,,,,,,,,,,0,,69,0
30142,note_on,94,0,3,,,,,,,,,,2,,65,0
30144,note_on,2,0,3,,,,,,,,,,2,,65,92
30144,note_on,2,0,1,,,,,,,,,,0,,65,110
30144,note_on,0,0,1,,,,,,,,,,0,,69,110
30144,note_on,2,0,4,,,,,,,,,,5,,65,92
30190,note_on,0,0,1,,,,,,,,,,0,,69,0
30190,note_on,46,0,1,,,,,,,,,,0,,65,0
30192,note_on,2,0,1,,,,,,,,,,0,,70,110
30214,note_on,22,0,1,,,,,,,,,,0,,70,0
30216,note_on,2,0,1,,,,,,,,,,0,,72,110
30238,note_on,22,0,1,,,,,,,,,,0,,72,0
30238,note_on,94,0,3,,,,,,,,,,2,,65,0
30238,note_on,94,0,4,,,,,,,,,,5,,65,0
30240,note_on,2,0,1,,,,,,,,,,0,,65,110
30240,note_on,2,0,3,,,,,,,,,,2,,65,92
30240,note_on,2,0,4,,,,,,,,,,5,,65,92
30240,note_on,0,0,1,,,,,,,,,,0,,72,110
30286,note_on,46,0,1,,,,,,,,,,0,,65,0
30286,note_on,0,0,1,,,,,,,,,,0,,72,0
30288,note_on,2,0,1,,,,,,,,,,0,,70,110
30310,note_on,22,0,1,,,,,,,,,,0,,70,0
30312,note_on,2,0,1,,,,,,,,,,0,,69,110
30334,note_on,22,0,1,,,,,,,,,,0,,69,0
30334,note_on,94,0,4,,,,,,,,,,5,,65,0
30334,note_on,94,0,3,,,,,,,,,,2,,65,0
30336,note_on,2,0,3,,,,,,,,,,2,,65,92
30336,note_on,0,0,1,,,,,,,,,,0,,74,110
30336,note_on,2,0,4,,,,,,,,,,5,,65,92
30336,note_on,2,0,1,,,,,,,,,,0,,65,110
30430,note_on,94,0,3,,,,,,,,,,2,,65,0
30430,note_on,0,0,1,,,,,,,,,,0,,74,0
30430,note_on,94,0,1,,,,,,,,,,0,,65,0
30430,note_on,94,0,4,,,,,,,,,,5,,65,0
30432,note_on,2,0,3,,,,,,,,,,2,,65,92
30432,note_on,0,0,1,,,,,,,,,,0,,72,110
30432,note_on,2,0,1,,,,,,,,,,0,,65,110
30432,note_on,2,0,4,,,,,,,,,,5,,65,92
30526,note_on,94,0,1,,,,,,,,,,0,,65,0
30526,note_on,0,0,1,,,,,,,,,,0,,72,0
30526,note_on,94,0,3,,,,,,,,,,2,,65,0
30526,note_on,94,0,4,,,,,,,,,,5,,65,0
30528,note_on,2,0,4,,,,,,,,,,5,,65,92
30528,note_on,2,0,1,,,,,,,,,,0,,65,110
30528,note_on,0,0,1,,,,,,,,,,0,,69,110
30528,note_on,2,0,3,,,,,,,,,,2,,65,92
30574,note_on,0,0,1,,,,,,,,,,0,,69,0
30574,note_on,46,0,1,,,,,,,,,,0,,65,0
30576,note_on,2,0,1,,,,,,,,,,0,,70,110
30598,note_on,22,0,1,,,,,,,,,,0,,70,0
30600,note_on,2,0,1,,,,,,,,,,0,,72,110
30622,note_on,22,0,1,,,,,,,,,,0,,72,0
30622,note_on,94,0,3,,,,,,,,,,2,,65,0
30622,note_on,94,0,4,,,,,,,,,,5,,65,0
30624,note_on,2,0,1,,,,,,,,,,0,,65,110
30624,note_on,2,0,4,,,,,,,,,,5,,65,92
30624,note_on,2,0,3,,,,,,,,,,2,,65,92
30624,note_on,0,0,1,,,,,,,,,,0,,72,110
30670,note_on,0,0,1,,,,,,,,,,0,,72,0
30670,note_on,46,0,1,,,,,,,,,,0,,65,0
30672,note_on,2,0,1,,,,,,,,,,0,,70,110
30694,note_on,22,0,1,,,,,,,,,,0,,70,0
30696,note_on,2,0,1,,,,,,,,,,0,,69,110
30718,note_on,22,0,1,,,,,,,,,,0,,69,0
30718,note_on,94,0,3,,,,,,,,,,2,,65,0
30718,note_on,94,0,4,,,,,,,,,,5,,65,0
30720,note_on,2,0,4,,,,,,,,,,5,,65,92
30720,note_on,2,0,3,,,,,,,,,,2,,65,92
30720,note_on,2,0,1,,,,,,,,,,0,,65,110
30720,note_on,0,0,1,,,,,,,,,,0,,74,110
30814,note_on,94,0,1,,,,,,,,,,0,,65,0
30814,note_on,94,0,3,,,,,,,,,,2,,65,0
30814,note_on,94,0,4,,,,,,,,,,5,,65,0
30814,note_on,0,0,1,,,,,,,,,,0,,74,0
30816,note_on,0,0,1,,,,,,,,,,0,,72,110
30816,note_on,2,0,4,,,,,,,,,,5,,65,92
30816,note_on,2,0,1,,,,,,,,,,0,,65,110
30816,note_on,2,0,3,,,,,,,,,,2,,65,92
30910,note_on,94,0,1,,,,,,,,,,0,,65,0
30910,note_on,0,0,1,,,,,,,,,,0,,72,0
30910,note_on,94,0,4,,,,,,,,,,5,,65,0
30910,note_on,94,0,3,,,,,,,,,,2,,65,0
30912,note_on,2,0,1,,,,,,,,,,0,,65,110
30912,note_on,0,0,1,,,,,,,,,,0,,74,110
30912,note_on,2,0,4,,,,,,,,,,5,,65,92
30912,note_on,2,0,3,,,,,,,,,,2,,65,92
31006,note_on,94,0,4,,,,,,,,,,5,,65,0
31006,note_on,94,0,1,,,,,,,,,,0,,65,0
31006,note_on,0,0,1,,,,,,,,,,0,,74,0
31006,note_on,94,0,3,,,,,,,,,,2,,65,0
31008,note_on,2,0,3,,,,,,,,,,2,,65,92
31008,note_on,2,0,4,,,,,,,,,,5,,65,92
31008,note_on,2,0,1,,,,,,,,,,0,,65,110
31008,note_on,0,0,1,,,,,,,,,,0,,72,110
31102,note_on,0,0,1,,,,,,,,,,0,,72,0
31102,note_on,94,0,4,,,,,,,,,,5,,65,0
31102,note_on,94,0,3,,,,,,,,,,2,,65,0
31102,note_on,94,0,1,,,,,,,,,,0,,65,0
31104,note_on,2,0,3,,,,,,,,,,2,,65,92
31104,note_on,2,0,4,,,,,,,,,,5,,65,92
31152,note_on,10064,0,2,,,,,,,,,,1,,81,110
31198,note_on,94,0,4,,,,,,,,,,5,,65,0
31198,note_on,46,0,2,,,,,,,,,,1,,81,0
31198,note_on,94,0,3,,,,,,,,,,2,,65,0
31200,note_on,0,0,4,,,,,,,,,,5,,74,92
31200,control_change,2,0,3,,,,,,,,10,127,2,,,
31200,note_on,0,0,3,,,,,,,,,,2,,74,92
31200,control_change,2,0,4,,,,,,,,10,127,5,,,
31200,note_on,2,0,2,,,,,,,,,,1,,77,110
31246,note_on,46,0,2,,,,,,,,,,1,,77,0
31248,note_on,2,0,2,,,,,,,,,,1,,81,110
31294,note_on,94,0,3,,,,,,,,,,2,,74,0
31294,note_on,46,0,2,,,,,,,,,,1,,81,0
31294,note_on,94,0,4,,,,,,,,,,5,,74,0
31296,note_on,2,0,4,,,,,,,,,,5,,70,92
31296,note_on,2,0,3,,,,,,,,,,2,,70,92
31296,note_on,2,0,2,,,,,,,,,,1,,74,110
31342,note_on,46,0,2,,,,,,,,,,1,,74,0
31344,note_on,2,0,2,,,,,,,,,,1,,81,110
31390,note_on,46,0,2,,,,,,,,,,1,,81,0
31390,note_on,94,0,4,,,,,,,,,,5,,70,0
31390,note_on,94,0,3,,,,,,,,,,2,,70,0
31392,note_on,2,0,2,,,,,,,,,,1,,72,110
31392,note_on,2,0,3,,,,,,,,,,2,,69,92
31392,note_on,2,0,4,,,,,,,,,,5,,69,92
31438,note_on,46,0,2,,,,,,,,,,1,,72,0
31440,note_on,2,0,2,,,,,,,,,,1,,81,110
31486,note_on,94,0,4,,,,,,,,,,5,,69,0
31486,note_on,46,0,2,,,,,,,,,,1,,81,0
31486,note_on,94,0,3,,,,,,,,,,2,,69,0
31488,note_on,2,0,3,,,,,,,,,,2,,67,92
31488,note_on,2,0,4,,,,,,,,,,5,,67,92
31488,note_on,2,0,2,,,,,,,,,,1,,70,110
31534,note_on,46,0,2,,,,,,,,,,1,,70,0
31536,note_on,2,0,2,,,,,,,,,,1,,79,110
31582,note_on,94,0,3,,,,,,,,,,2,,67,0
31582,note_on,46,0,2,,,,,,,,,,1,,79,0
31582,note_on,94,0,4,,,,,,,,,,5,,67,0
31584,note_on,2,0,3,,,,,,,,,,2,,72,92
31584,note_on,2,0,4,,,,,,,,,,5,,72,92
31584,note_on,2,0,2,,,,,,,,,,1,,76,110
31630,note_on,46,0,2,,,,,,,,,,1,,76,0
31632,note_on,2,0,2,,,,,,,,,,1,,79,110
31678,note_on,94,0,3,,,,,,,,,,2,,72,0
31678,note_on,46,0,2,,,,,,,,,,1,,79,0
31678,note_on,94,0,4,,,,,,,,,,5,,72,0
31680,note_on,2,0,2,,,,,,,,,,1,,72,110
31680,note_on,2,0,4,,,,,,,,,,5,,69,92
31680,note_on,2,0,3,,,,,,,,,,2,,69,92
31726,note_on,46,0,2,,,,,,,,,,1,,72,0
31728,note_on,2,0,2,,,,,,,,,,1,,79,110
31774,note_on,94,0,4,,,,,,,,,,5,,69,0
31774,note_on,94,0,3,,,,,,,,,,2,,69,0
31774,note_on,46,0,2,,,,,,,,,,1,,79,0
31776,note_on,2,0,4,,,,,,,,,,5,,67,92
31776,note_on,2,0,3,,,,,,,,,,2,,67,92
31776,note_on,2,0,2,,,,,,,,,,1,,70,110
31822,note_on,46,0,2,,,,,,,,,,1,,70,0
31824,note_on,2,0,2,,,,,,,,,,1,,79,110
31870,note_on,46,0,2,,,,,,,,,,1,,79,0
31870,note_on,94,0,4,,,,,,,,,,5,,67,0
31870,note_on,94,0,3,,,,,,,,,,2,,67,0
31872,note_on,2,0,3,,,,,,,,,,2,,65,92
31872,note_on,2,0,4,,,,,,,,,,5,,65,92
31872,note_on,2,0,2,,,,,,,,,,1,,69,110
31918,note_on,46,0,2,,,,,,,,,,1,,69,0
31920,note_on,2,0,2,,,,,,,,,,1,,77,110
31966,note_on,94,0,3,,,,,,,,,,2,,65,0
31966,note_on,46,0,2,,,,,,,,,,1,,77,0
31966,note_on,94,0,4,,,,,,,,,,5,,65,0
31968,note_on,2,0,2,,,,,,,,,,1,,74,110
31968,note_on,2,0,4,,,,,,,,,,5,,71,92
31968,note_on,2,0,3,,,,,,,,,,2,,71,92
32014,note_on,46,0,2,,,,,,,,,,1,,74,0
32016,note_on,2,0,2,,,,,,,,,,1,,77,110
32062,note_on,94,0,3,,,,,,,,,,2,,71,0
32062,note_on,94,0,4,,,,,,,,,,5,,71,0
32062,note_on,46,0,2,,,,,,,,,,1,,77,0
32064,note_on,2,0,3,,,,,,,,,,2,,68,92
32064,note_on,2,0,2,,,,,,,,,,1,,71,110
32064,note_on,2,0,4,,,,,,,,,,5,,68,92
32110,note_on,46,0,2,,,,,,,,,,1,,71,0
32112,note_on,2,0,2,,,,,,,,,,1,,77,110
32158,note_on,94,0,4,,,,,,,,,,5,,68,0
32158,note_on,94,0,3,,,,,,,,,,2,,68,0
32158,note_on,46,0,2,,,,,,,,,,1,,77,0
32160,note_on,2,0,2,,,,,,,,,,1,,69,110
32160,note_on,2,0,4,,,,,,,,,,5,,65,92
32160,note_on,2,0,3,,,,,,,,,,2,,65,92
32206,note_on,46,0,2,,,,,,,,,,1,,69,0
32208,note_on,2,0,2,,,,,,,,,,1,,77,110
32254,note_on,46,0,2,,,,,,,,,,1,,77,0
32254,note_on,94,0,3,,,,,,,,,,2,,65,0
32254,note_on,94,0,4,,,,,,,,,,5,,65,0
32256,note_on,2,0,3,,,,,,,,,,2,,64,92
32256,note_on,2,0,4,,,,,,,,,,5,,64,92
32256,note_on,2,0,2,,,,,,,,,,1,,68,110
32302,note_on,46,0,2,,,,,,,,,,1,,68,0
32304,note_on,2,0,2,,,,,,,,,,1,,77,110
32350,note_on,46,0,2,,,,,,,,,,1,,77,0
32352,note_on,2,0,2,,,,,,,,,,1,,76,110
32398,note_on,46,0,2,,,,,,,,,,1,,76,0
32400,note_on,2,0,2,,,,,,,,,,1,,74,110
32416,note_on,160,0,3,,,,,,,,,,2,,64,0
32416,note_on,160,0,4,,,,,,,,,,5,,64,0
32446,note_on,46,0,2,,,,,,,,,,1,,74,0
32448,note_on,32,0,4,,,,,,,,,,5,,64,92
32448,note_on,32,0,3,,,,,,,,,,2,,64,92
32448,note_on,2,0,2,,,,,,,,,,1,,68,110
32494,note_on,46,0,2,,,,,,,,,,1,,68,0
32496,note_on,2,0,2,,,,,,,,,,1,,77,110
32542,note_on,46,0,2,,,,,,,,,,1,,77,0
32544,note_on,2,0,2,,,,,,,,,,1,,76,110
32590,note_on,46,0,2,,,,,,,,,,1,,76,0
32592,note_on,2,0,2,,,,,,,,,,1,,74,110
32608,note_on,160,0,3,,,,,,,,,,2,,64,0
32608,note_on,160,0,4,,,,,,,,,,5,,64,0
32638,note_on,46,0,2,,,,,,,,,,1,,74,0
32640,note_on,32,0,3,,,,,,,,,,2,,69,92
32640,note_on,2,0,2,,,,,,,,,,1,,72,110
32640,note_on,32,0,4,,,,,,,,,,5,,69,92
32686,note_on,46,0,2,,,,,,,,,,1,,72,0
32688,note_on,2,0,2,,,,,,,,,,1,,81,110
32710,note_on,22,0,2,,,,,,,,,,1,,81,0
32712,note_on,2,0,2,,,,,,,,,,1,,83,110
32734,note_on,22,0,2,,,,,,,,,,1,,83,0
32736,note_on,2,0,2,,,,,,,,,,1,,84,110
32782,note_on,46,0,2,,,,,,,,,,1,,84,0
32784,note_on,2,0,2,,,,,,,,,,1,,83,110
32800,note_on,160,0,4,,,,,,,,,,5,,69,0
32800,note_on,160,0,3,,,,,,,,,,2,,69,0
32806,note_on,22,0,2,,,,,,,,,,1,,83,0
32808,note_on,2,0,2,,,,,,,,,,1,,81,110
32830,note_on,22,0,2,,,,,,,,,,1,,81,0
32832,note_on,32,0,3,,,,,,,,,,2,,57,92
32832,note_on,2,0,2,,,,,,,,,,1,,72,110
32832,note_on,32,0,4,,,,,,,,,,5,,57,92
32878,note_on,46,0,2,,,,,,,,,,1,,72,0
32880,note_on,2,0,2,,,,,,,,,,1,,81,110
32902,note_on,22,0,2,,,,,,,,,,1,,81,0
32904,note_on,2,0,2,,,,,,,,,,1,,83,110
32926,note_on,94,0,3,,,,,,,,,,2,,57,0
32926,note_on,94,0,4,,,,,,,,,,5,,57,0
32926,note_on,22,0,2,,,,,,,,,,1,,83,0
32928,note_on,2,0,2,,,,,,,,,,1,,84,110
32928,note_on,2,0,4,,,,,,,,,,5,,57,92
32928,note_on,2,0,3,,,,,,,,,,2,,57,92
32974,note_on,46,0,2,,,,,,,,,,1,,84,0
32976,note_on,2,0,2,,,,,,,,,,1,,83,110
32998,note_on,22,0,2,,,,,,,,,,1,,83,0
33000,note_on,2,0,2,,,,,,,,,,1,,81,110
33022,note_on,22,0,2,,,,,,,,,,1,,81,0
33022,note_on,94,0,3,,,,,,,,,,2,,57,0
33022,note_on,94,0,4,,,,,,,,,,5,,57,0
33024,note_on,2,0,2,,,,,,,,,,1,,74,110
33024,note_on,2,0,3,,,,,,,,,,2,,59,92
33024,note_on,2,0,4,,,,,,,,,,5,,59,92
33070,note_on,46,0,2,,,,,,,,,,1,,74,0
33072,note_on,2,0,2,,,,,,,,,,1,,81,110
33094,note_on,22,0,2,,,,,,,,,,1,,81,0
33096,note_on,2,0,2,,,,,,,,,,1,,83,110
33118,note_on,22,0,2,,,,,,,,,,1,,83,0
33118,note_on,94,0,4,,,,,,,,,,5,,59,0
33118,note_on,94,0,3,,,,,,,,,,2,,59,0
33120,note_on,2,0,2,,,,,,,,,,1,,84,110
33120,note_on,2,0,4,,,,,,,,,,5,,59,92
33120,note_on,2,0,3,,,,,,,,,,2,,59,92
33166,note_on,46,0,2,,,,,,,,,,1,,84,0
33168,note_on,2,0,2,,,,,,,,,,1,,83,110
33190,note_on,22,0,2,,,,,,,,,,1,,83,0
33192,note_on,2,0,2,,,,,,,,,,1,,81,110
33214,note_on,22,0,2,,,,,,,,,,1,,81,0
33214,note_on,94,0,3,,,,,,,,,,2,,59,0
33214,note_on,94,0,4,,,,,,,,,,5,,59,0
33216,note_on,2,0,2,,,,,,,,,,1,,76,110
33216,note_on,2,0,4,,,,,,,,,,5,,60,92
33216,note_on,2,0,3,,,,,,,,,,2,,60,92
33262,note_on,46,0,2,,,,,,,,,,1,,76,0
33264,note_on,2,0,2,,,,,,,,,,1,,81,110
33286,note_on,22,0,2,,,,,,,,,,1,,81,0
33288,note_on,2,0,2,,,,,,,,,,1,,83,110
33310,note_on,22,0,2,,,,,,,,,,1,,83,0
33310,note_on,94,0,4,,,,,,,,,,5,,60,0
33310,note_on,94,0,3,,,,,,,,,,2,,60,0
33312,note_on,2,0,2,,,,,,,,,,1,,84,110
33312,note_on,2,0,4,,,,,,,,,,5,,60,92
33312,note_on,2,0,3,,,,,,,,,,2,,60,92
33358,note_on,46,0,2,,,,,,,,,,1,,84,0
33360,note_on,2,0,2,,,,,,,,,,1,,83,110
33382,note_on,22,0,2,,,,,,,,,,1,,83,0
33384,note_on,2,0,2,,,,,,,,,,1,,81,110
33406,note_on,94,0,4,,,,,,,,,,5,,60,0
33406,note_on,94,0,3,,,,,,,,,,2,,60,0
33406,note_on,22,0,2,,,,,,,,,,1,,81,0
33408,note_on,2,0,4,,,,,,,,,,5,,62,92
33408,note_on,2,0,2,,,,,,,,,,1,,77,110
33408,note_on,2,0,3,,,,,,,,,,2,,62,92
33454,note_on,46,0,2,,,,,,,,,,1,,77,0
33456,note_on,2,0,2,,,,,,,,,,1,,81,110
33478,note_on,22,0,2,,,,,,,,,,1,,81,0
33480,note_on,2,0,2,,,,,,,,,,1,,83,110
33502,note_on,94,0,3,,,,,,,,,,2,,62,0
33502,note_on,94,0,4,,,,,,,,,,5,,62,0
33502,note_on,22,0,2,,,,,,,,,,1,,83,0
33504,note_on,2,0,2,,,,,,,,,,1,,84,110
33504,note_on,2,0,3,,,,,,,,,,2,,62,92
33504,note_on,2,0,4,,,,,,,,,,5,,62,92
33550,note_on,46,0,2,,,,,,,,,,1,,84,0
33552,note_on,2,0,2,,,,,,,,,,1,,83,110
33574,note_on,22,0,2,,,,,,,,,,1,,83,0
33576,note_on,2,0,2,,,,,,,,,,1,,81,110
33598,note_on,94,0,4,,,,,,,,,,5,,62,0
33598,note_on,94,0,3,,,,,,,,,,2,,62,0
33598,note_on,22,0,2,,,,,,,,,,1,,81,0
33600,note_on,2,0,2,,,,,,,,,,1,,72,110
33600,note_on,2,0,3,,,,,,,,,,2,,57,92
33600,note_on,2,0,4,,,,,,,,,,5,,57,92
33646,note_on,46,0,2,,,,,,,,,,1,,72,0
33648,note_on,2,0,2,,,,,,,,,,1,,81,110
33670,note_on,22,0,2,,,,,,,,,,1,,81,0
33672,note_on,2,0,2,,,,,,,,,,1,,83,110
33694,note_on,94,0,4,,,,,,,,,,5,,57,0
33694,note_on,22,0,2,,,,,,,,,,1,,83,0
33694,note_on,94,0,3,,,,,,,,,,2,,57,0
33696,note_on,2,0,2,,,,,,,,,,1,,84,110
33696,note_on,2,0,4,,,,,,,,,,5,,57,92
33696,note_on,2,0,3,,,,,,,,,,2,,57,92
33742,note_on,46,0,2,,,,,,,,,,1,,84,0
33744,note_on,2,0,2,,,,,,,,,,1,,83,110
33766,note_on,22,0,2,,,,,,,,,,1,,83,0
33768,note_on,2,0,2,,,,,,,,,,1,,81,110
33790,note_on,94,0,4,,,,,,,,,,5,,57,0
33790,note_on,94,0,3,,,,,,,,,,2,,57,0
33790,note_on,22,0,2,,,,,,,,,,1,,81,0
33792,note_on,2,0,2,,,,,,,,,,1,,74,110
33792,note_on,2,0,4,,,,,,,,,,5,,62,92
33792,note_on,2,0,3,,,,,,,,,,2,,62,92
33838,note_on,46,0,2,,,,,,,,,,1,,74,0
33840,note_on,2,0,2,,,,,,,,,,1,,81,110
33862,note_on,22,0,2,,,,,,,,,,1,,81,0
33864,note_on,2,0,2,,,,,,,,,,1,,83,110
33886,note_on,94,0,4,,,,,,,,,,5,,62,0
33886,note_on,22,0,2,,,,,,,,,,1,,83,0
33886,note_on,94,0,3,,,,,,,,,,2,,62,0
33888,note_on,2,0,3,,,,,,,,,,2,,62,92
33888,note_on,2,0,4,,,,,,,,,,5,,62,92
33888,note_on,2,0,2,,,,,,,,,,1,,84,110
33934,note_on,46,0,2,,,,,,,,,,1,,84,0
33936,note_on,2,0,2,,,,,,,,,,1,,83,110
33958,note_on,22,0,2,,,,,,,,,,1,,83,0
33960,note_on,2,0,2,,,,,,,,,,1,,81,110
33982,note_on,22,0,2,,,,,,,,,,1,,81,0
33982,note_on,94,0,3,,,,,,,,,,2,,62,0
33982,note_on,94,0,4,,,,,,,,,,5,,62,0
33984,note_on,2,0,3,,,,,,,,,,2,,64,92
33984,note_on,2,0,4,,,,,,,,,,5,,64,92
33984,note_on,2,0,2,,,,,,,,,,1,,76,110
34030,note_on,46,0,2,,,,,,,,,,1,,76,0
34032,note_on,2,0,2,,,,,,,,,,1,,80,110
34054,note_on,22,0,2,,,,,,,,,,1,,80,0
34056,note_on,2,0,2,,,,,,,,,,1,,81,110
34078,note_on,94,0,3,,,,,,,,,,2,,64,0
34078,note_on,22,0,2,,,,,,,,,,1,,81,0
34078,note_on,94,0,4,,,,,,,,,,5,,64,0
34080,note_on,2,0,3,,,,,,,,,,2,,64,92
34080,note_on,2,0,2,,,,,,,,,,1,,83,110
34080,note_on,2,0,4,,,,,,,,,,5,,64,92
34126,note_on,46,0,2,,,,,,,,,,1,,83,0
34128,note_on,2,0,2,,,,,,,,,,1,,81,110
34150,note_on,22,0,2,,,,,,,,,,1,,81,0
34152,note_on,2,0,2,,,,,,,,,,1,,80,110
34174,note_on,94,0,3,,,,,,,,,,2,,64,0
34174,note_on,94,0,4,,,,,,,,,,5,,64,0
34174,note_on,22,0,2,,,,,,,,,,1,,80,0
34176,control_change,2,0,4,,,,,,,,10,0,5,,,
34176,note_on,0,0,4,,,,,,,,,,5,,57,92
34176,note_on,0,0,3,,,,,,,,,,2,,57,92
34176,note_on,2,0,2,,,,,,,,,,1,,81,110
34176,note_on,3074,0,1,,,,,,,,,,0,,69,110
34176,note_on,0,0,1,,,,,,,,,,0,,76,110
34176,control_change,2,0,3,,,,,,,,10,0,2,,,
34222,note_on,46,0,1,,,,,,,,,,0,,69,0
34222,note_on,0,0,1,,,,,,,,,,0,,76,0
34224,note_on,0,0,1,,,,,,,,,,0,,76,110
34224,note_on,2,0,1,,,,,,,,,,0,,69,110
34270,note_on,94,0,4,,,,,,,,,,5,,57,0
34270,note_on,0,0,1,,,,,,,,,,0,,76,0
34270,note_on,46,0,1,,,,,,,,,,0,,69,0
34270,note_on,94,0,3,,,,,,,,,,2,,57,0
34272,note_on,2,0,1,,,,,,,,,,0,,69,110
34272,note_on,0,0,1,,,,,,,,,,0,,76,110
34272,note_on,2,0,3,,,,,,,,,,2,,60,92
34272,note_on,2,0,4,,,,,,,,,,5,,60,92
34318,note_on,46,0,1,,,,,,,,,,0,,69,0
34318,note_on,0,0,1,,,,,,,,,,0,,76,0
34320,note_on,2,0,1,,,,,,,,,,0,,69,110
34320,note_on,0,0,1,,,,,,,,,,0,,77,110
34336,note_on,160,0,2,,,,,,,,,,1,,81,0
34366,note_on,94,0,4,,,,,,,,,,5,,60,0
34366,note_on,0,0,1,,,,,,,,,,0,,77,0
34366,note_on,94,0,3,,,,,,,,,,2,,60,0
34366,note_on,46,0,1,,,,,,,,,,0,,69,0
34368,note_on,2,0,4,,,,,,,,,,5,,62,92
34368,note_on,0,0,1,,,,,,,,,,0,,77,110
34368,note_on,2,0,3,,,,,,,,,,2,,62,92
34368,note_on,2,0,1,,,,,,,,,,0,,69,110
34462,note_on,94,0,3,,,,,,,,,,2,,62,0
34462,note_on,0,0,1,,,,,,,,,,0,,77,0
34462,note_on,94,0,1,,,,,,,,,,0,,69,0
34462,note_on,94,0,4,,,,,,,,,,5,,62,0
34464,note_on,2,0,3,,,,,,,,,,2,,60,92
34464,note_on,0,0,1,,,,,,,,,,0,,76,110
34464,note_on,2,0,1,,,,,,,,,,0,,69,110
34464,note_on,2,0,4,,,,,,,,,,5,,60,92
34510,note_on,0,0,1,,,,,,,,,,0,,76,0
34510,note_on,46,0,1,,,,,,,,,,0,,69,0
34512,note_on,0,0,1,,,,,,,,,,0,,77,110
34512,note_on,2,0,1,,,,,,,,,,0,,69,110
34558,note_on,0,0,1,,,,,,,,,,0,,77,0
34558,note_on,46,0,1,,,,,,,,,,0,,69,0
34558,note_on,94,0,4,,,,,,,,,,5,,60,0
34558,note_on,94,0,3,,,,,,,,,,2,,60,0
34560,note_on,2,0,1,,,,,,,,,,0,,69,110
34560,note_on,0,0,1,,,,,,,,,,0,,76,110
34606,note_on,46,0,1,,,,,,,,,,0,,69,0
34606,note_on,0,0,1,,,,,,,,,,0,,76,0
34608,note_on,2,0,1,,,,,,,,,,0,,69,110
34608,note_on,0,0,1,,,,,,,,,,0,,76,110
34654,note_on,0,0,1,,,,,,,,,,0,,76,0
34654,note_on,46,0,1,,,,,,,,,,0,,69,0
34656,note_on,98,0,3,,,,,,,,,,2,,60,92
34656,note_on,0,0,1,,,,,,,,,,0,,76,110
34656,note_on,2,0,1,,,,,,,,,,0,,69,110
34656,note_on,98,0,4,,,,,,,,,,5,,60,92
34702,note_on,0,0,1,,,,,,,,,,0,,76,0
34702,note_on,46,0,1,,,,,,,,,,0,,69,0
34704,note_on,2,0,1,,,,,,,,,,0,,69,110
34704,note_on,0,0,1,,,,,,,,,,0,,77,110
34750,note_on,0,0,1,,,,,,,,,,0,,77,0
34750,note_on,94,0,4,,,,,,,,,,5,,60,0
34750,note_on,46,0,1,,,,,,,,,,0,,69,0
34750,note_on,94,0,3,,,,,,,,,,2,,60,0
34752,note_on,2,0,1,,,,,,,,,,0,,69,110
34752,note_on,0,0,1,,,,,,,,,,0,,77,110
34752,note_on,2,0,4,,,,,,,,,,5,,62,92
34752,note_on,2,0,3,,,,,,,,,,2,,62,92
34846,note_on,94,0,4,,,,,,,,,,5,,62,0
34846,note_on,94,0,3,,,,,,,,,,2,,62,0
34846,note_on,94,0,1,,,,,,,,,,0,,69,0
34846,note_on,0,0,1,,,,,,,,,,0,,77,0
34848,note_on,0,0,1,,,,,,,,,,0,,76,110
34848,note_on,2,0,1,,,,,,,,,,0,,69,110
34848,note_on,2,0,4,,,,,,,,,,5,,60,92
34848,note_on,2,0,3,,,,,,,,,,2,,60,92
34894,note_on,46,0,1,,,,,,,,,,0,,69,0
34894,note_on,0,0,1,,,,,,,,,,0,,76,0
34896,note_on,2,0,1,,,,,,,,,,0,,69,110
34896,note_on,0,0,1,,,,,,,,,,0,,77,110
34942,note_on,94,0,3,,,,,,,,,,2,,60,0
34942,note_on,46,0,1,,,,,,,,,,0,,69,0
34942,note_on,0,0,1,,,,,,,,,,0,,77,0
34942,note_on,94,0,4,,,,,,,,,,5,,60,0
34944,note_on,0,0,1,,,,,,,,,,0,,76,110
34944,note_on,2,0,3,,,,,,,,,,2,,57,92
34944,note_on,2,0,1,,,,,,,,,,0,,69,110
34944,note_on,2,0,4,,,,,,,,,,5,,57,92
34974,note_on,0,0,1,,,,,,,,,,0,,76,0
34974,note_on,30,0,1,,,,,,,,,,0,,69,0
34976,note_on,2,0,1,,,,,,,,,,0,,72,110
35006,note_on,30,0,1,,,,,,,,,,0,,72,0
35008,note_on,2,0,1,,,,,,,,,,0,,74,110
35038,note_on,30,0,1,,,,,,,,,,0,,74,0
35040,note_on,2,0,1,,,,,,,,,,0,,76,110
35070,note_on,30,0,1,,,,,,,,,,0,,76,0
35072,note_on,2,0,1,,,,,,,,,,0,,78,110
35102,note_on,30,0,1,,,,,,,,,,0,,78,0
35104,note_on,160,0,4,,,,,,,,,,5,,57,0
35104,note_on,2,0,1,,,,,,,,,,0,,80,110
35104,note_on,160,0,3,,,,,,,,,,2,,57,0
35134,note_on,30,0,1,,,,,,,,,,0,,80,0
35136,note_on,2,0,1,,,,,,,,,,0,,81,110
35136,control_change,32,0,4,,,,,,,,10,127,5,,,
35136,note_on,0,0,4,,,,,,,,,,5,,57,92
35136,control_change,32,0,3,,,,,,,,10,127,2,,,
35136,note_on,0,0,3,,,,,,,,,,2,,57,92
35136,note_on,800,0,2,,,,,,,,,,1,,69,110
35166,note_on,30,0,2,,,,,,,,,,1,,69,0
35168,note_on,2,0,2,,,,,,,,,,1,,72,110
35198,note_on,30,0,2,,,,,,,,,,1,,72,0
35200,note_on,2,0,2,,,,,,,,,,1,,74,110
35230,note_on,30,0,2,,,,,,,,,,1,,74,0
35232,note_on,2,0,2,,,,,,,,,,1,,76,110
35262,note_on,30,0,2,,,,,,,,,,1,,76,0
35264,note_on,2,0,2,,,,,,,,,,1,,78,110
35294,note_on,30,0,2,,,,,,,,,,1,,78,0
35296,note_on,160,0,4,,,,,,,,,,5,,57,0
35296,note_on,160,0,1,,,,,,,,,,0,,81,0
35296,note_on,2,0,2,,,,,,,,,,1,,80,110
35296,note_on,160,0,3,,,,,,,,,,2,,57,0
35326,note_on,30,0,2,,,,,,,,,,1,,80,0
35328,note_on,0,0,3,,,,,,,,,,2,,57,92
35328,note_on,0,0,1,,,,,,,,,,0,,76,110
35328,control_change,32,0,3,,,,,,,,10,0,2,,,
35328,note_on,0,0,4,,,,,,,,,,5,,57,92
35328,control_change,32,0,4,,,,,,,,10,0,5,,,
35328,note_on,2,0,2,,,,,,,,,,1,,81,110
35328,note_on,32,0,1,,,,,,,,,,0,,69,110
35358,note_on,30,0,1,,,,,,,,,,0,,69,0
35358,note_on,0,0,1,,,,,,,,,,0,,76,0
35360,note_on,2,0,1,,,,,,,,,,0,,72,110
35390,note_on,30,0,1,,,,,,,,,,0,,72,0
35392,note_on,2,0,1,,,,,,,,,,0,,74,110
35422,note_on,30,0,1,,,,,,,,,,0,,74,0
35424,note_on,2,0,1,,,,,,,,,,0,,76,110
35454,note_on,30,0,1,,,,,,,,,,0,,76,0
35456,note_on,2,0,1,,,,,,,,,,0,,78,110
35486,note_on,30,0,1,,,,,,,,,,0,,78,0
35488,note_on,2,0,1,,,,,,,,,,0,,80,110
35488,note_on,160,0,3,,,,,,,,,,2,,57,0
35488,note_on,160,0,4,,,,,,,,,,5,,57,0
35488,note_on,160,0,2,,,,,,,,,,1,,81,0
35518,note_on,30,0,1,,,,,,,,,,0,,80,0
35520,note_on,2,0,1,,,,,,,,,,0,,81,110
35520,control_change,32,0,3,,,,,,,,10,127,2,,,
35520,note_on,0,0,3,,,,,,,,,,2,,57,92
35520,note_on,0,0,4,,,,,,,,,,5,,57,92
35520,control_change,32,0,4,,,,,,,,10,127,5,,,
35520,note_on,32,0,2,,,,,,,,,,1,,69,110
35550,note_on,30,0,2,,,,,,,,,,1,,69,0
35552,note_on,2,0,2,,,,,,,,,,1,,72,110
35582,note_on,30,0,2,,,,,,,,,,1,,72,0
35584,note_on,2,0,2,,,,,,,,,,1,,74,110
35614,note_on,30,0,2,,,,,,,,,,1,,74,0
35616,note_on,2,0,2,,,,,,,,,,1,,76,110
35646,note_on,30,0,2,,,,,,,,,,1,,76,0
35648,note_on,2,0,2,,,,,,,,,,1,,78,110
35678,note_on,30,0,2,,,,,,,,,,1,,78,0
35680,note_on,2,0,2,,,,,,,,,,1,,80,110
35680,note_on,160,0,3,,,,,,,,,,2,,57,0
35680,note_on,160,0,4,,,,,,,,,,5,,57,0
35680,note_on,160,0,1,,,,,,,,,,0,,81,0
35710,note_on,30,0,2,,,,,,,,,,1,,80,0
35712,note_on,0,0,3,,,,,,,,,,2,,57,92
35712,control_change,32,0,3,,,,,,,,10,0,2,,,
35712,control_change,32,0,4,,,,,,,,10,0,5,,,
35712,note_on,2,0,2,,,,,,,,,,1,,81,110
35712,note_on,0,0,4,,,,,,,,,,5,,57,92
35760,note_on,80,0,1,,,,,,,,,,0,,81,110
35806,note_on,94,0,4,,,,,,,,,,5,,57,0
35806,note_on,94,0,3,,,,,,,,,,2,,57,0
35806,note_on,46,0,1,,,,,,,,,,0,,81,0
35808,note_on,2,0,3,,,,,,,,,,2,,69,92
35808,note_on,2,0,4,,,,,,,,,,5,,69,92
35808,note_on,2,0,1,,,,,,,,,,0,,72,110
35854,note_on,46,0,1,,,,,,,,,,0,,72,0
35856,note_on,2,0,1,,,,,,,,,,0,,81,110
35872,note_on,160,0,2,,,,,,,,,,1,,81,0
35902,note_on,94,0,3,,,,,,,,,,2,,69,0
35902,note_on,94,0,4,,,,,,,,,,5,,69,0
35902,note_on,46,0,1,,,,,,,,,,0,,81,0
35904,note_on,2,0,3,,,,,,,,,,2,,71,92
35904,note_on,2,0,4,,,,,,,,,,5,,71,92
35904,note_on,2,0,1,,,,,,,,,,0,,74,110
35950,note_on,46,0,1,,,,,,,,,,0,,74,0
35952,note_on,2,0,1,,,,,,,,,,0,,81,110
35998,note_on,94,0,4,,,,,,,,,,5,,71,0
35998,note_on,46,0,1,,,,,,,,,,0,,81,0
35998,note_on,94,0,3,,,,,,,,,,2,,71,0
36000,note_on,2,0,1,,,,,,,,,,0,,76,110
36000,note_on,2,0,3,,,,,,,,,,2,,64,92
36000,note_on,2,0,4,,,,,,,,,,5,,64,92
36046,note_on,46,0,1,,,,,,,,,,0,,76,0
36048,note_on,2,0,1,,,,,,,,,,0,,80,110
36094,note_on,46,0,1,,,,,,,,,,0,,80,0
36094,note_on,94,0,3,,,,,,,,,,2,,64,0
36094,note_on,94,0,4,,,,,,,,,,5,,64,0
36096,control_change,2,0,3,,,,,,,,10,127,2,,,
36096,note_on,2,0,1,,,,,,,,,,0,,81,110
36096,note_on,0,0,3,,,,,,,,,,2,,57,92
36096,note_on,0,0,4,,,,,,,,,,5,,57,92
36096,control_change,2,0,4,,,,,,,,10,127,5,,,
36144,note_on,272,0,2,,,,,,,,,,1,,81,110
36190,note_on,94,0,4,,,,,,,,,,5,,57,0
36190,note_on,94,0,3,,,,,,,,,,2,,57,0
36190,note_on,46,0,2,,,,,,,,,,1,,81,0
36192,note_on,2,0,4,,,,,,,,,,5,,69,92
36192,note_on,2,0,3,,,,,,,,,,2,,69,92
36192,note_on,2,0,2,,,,,,,,,,1,,72,110
36238,note_on,46,0,2,,,,,,,,,,1,,72,0
36240,note_on,2,0,2,,,,,,,,,,1,,81,110
36256,note_on,160,0,1,,,,,,,,,,0,,81,0
36286,note_on,46,0,2,,,,,,,,,,1,,81,0
36286,note_on,94,0,4,,,,,,,,,,5,,69,0
36286,note_on,94,0,3,,,,,,,,,,2,,69,0
36288,note_on,2,0,2,,,,,,,,,,1,,74,110
36288,note_on,2,0,4,,,,,,,,,,5,,71,92
36288,note_on,2,0,3,,,,,,,,,,2,,71,92
36334,note_on,46,0,2,,,,,,,,,,1,,74,0
36336,note_on,2,0,2,,,,,,,,,,1,,81,110
36382,note_on,94,0,4,,,,,,,,,,5,,71,0
36382,note_on,94,0,3,,,,,,,,,,2,,71,0
36382,note_on,46,0,2,,,,,,,,,,1,,81,0
36384,note_on,2,0,3,,,,,,,,,,2,,64,92
36384,note_on,2,0,2,,,,,,,,,,1,,76,110
36384,note_on,2,0,4,,,,,,,,,,5,,64,92
36430,note_on,46,0,2,,,,,,,,,,1,,76,0
36432,note_on,2,0,2,,,,,,,,,,1,,80,110
36478,note_on,94,0,3,,,,,,,,,,2,,64,0
36478,note_on,46,0,2,,,,,,,,,,1,,80,0
36478,note_on,94,0,4,,,,,,,,,,5,,64,0
36480,note_on,9440,0,7,,,,,,,,,,7,,45,75
36480,note_on,2,0,2,,,,,,,,,,1,,81,110
36480,note_on,0,0,4,,,,,,,,,,5,,81,127
36480,control_change,2,0,4,,,,,,,,10,0,5,,,
36480,note_on,9440,0,6,,,,,,,,,,6,,45,75
36480,note_on,2,0,3,,,,,,,,,,2,,81,127
36550,note_on,70,0,3,,,,,,,,,,2,,81,0
36550,note_on,70,0,4,,,,,,,,,,5,,81,0
36552,note_on,2,0,4,,,,,,,,,,5,,82,127
36552,note_on,2,0,3,,,,,,,,,,2,,82,127
36574,note_on,94,0,7,,,,,,,,,,7,,45,0
36574,note_on,22,0,3,,,,,,,,,,2,,82,0
36574,note_on,94,0,6,,,,,,,,,,6,,45,0
36574,note_on,22,0,4,,,,,,,,,,5,,82,0
36576,note_on,2,0,3,,,,,,,,,,2,,81,127
36576,note_on,2,0,7,,,,,,,,,,7,,49,75
36576,note_on,2,0,6,,,,,,,,,,6,,49,75
36576,note_on,9536,0,5,,,,,,,,,,4,,64,60
36576,note_on,2,0,4,,,,,,,,,,5,,81,127
36640,note_on,160,0,2,,,,,,,,,,1,,81,0
36646,note_on,70,0,3,,,,,,,,,,2,,81,0
36646,note_on,70,0,4,,,,,,,,,,5,,81,0
36648,note_on,2,0,3,,,,,,,,,,2,,79,127
36648,note_on,2,0,4,,,,,,,,,,5,,79,127
36670,note_on,94,0,6,,,,,,,,,,6,,49,0
36670,note_on,94,0,7,,,,,,,,,,7,,49,0
36670,note_on,22,0,4,,,,,,,,,,5,,79,0
36670,note_on,94,0,5,,,,,,,,,,4,,64,0
36670,note_on,22,0,3,,,,,,,,,,2,,79,0
36672,note_on,2,0,7,,,,,,,,,,7,,52,75
36672,note_on,2,0,6,,,,,,,,,,6,,52,75
36672,note_on,2,0,5,,,,,,,,,,4,,64,60
36672,note_on,2,0,3,,,,,,,,,,2,,77,127
36672,note_on,2,0,4,,,,,,,,,,5,,77,127
36742,note_on,70,0,3,,,,,,,,,,2,,77,0
36742,note_on,70,0,4,,,,,,,,,,5,,77,0
36744,note_on,2,0,3,,,,,,,,,,2,,76,127
36744,note_on,2,0,4,,,,,,,,,,5,,76,127
36766,note_on,22,0,4,,,,,,,,,,5,,76,0
36766,note_on,22,0,3,,,,,,,,,,2,,76,0
36766,note_on,94,0,5,,,,,,,,,,4,,64,0
36766,note_on,94,0,7,,,,,,,,,,7,,52,0
36766,note_on,94,0,6,,,,,,,,,,6,,52,0
36768,note_on,2,0,5,,,,,,,,,,4,,64,60
36768,note_on,2,0,6,,,,,,,,,,6,,57,75
36768,note_on,2,0,7,,,,,,,,,,7,,57,75
36768,note_on,2,0,3,,,,,,,,,,2,,74,127
36768,note_on,2,0,4,,,,,,,,,,5,,74,127
36838,note_on,70,0,4,,,,,,,,,,5,,74,0
36838,note_on,70,0,3,,,,,,,,,,2,,74,0
36840,note_on,2,0,4,,,,,,,,,,5,,73,127
36840,note_on,2,0,3,,,,,,,,,,2,,73,127
36862,note_on,22,0,4,,,,,,,,,,5,,73,0
36862,note_on,22,0,3,,,,,,,,,,2,,73,0
36862,note_on,94,0,5,,,,,,,,,,4,,64,0
36862,note_on,94,0,7,,,,,,,,,,7,,57,0
36862,note_on,94,0,6,,,,,,,,,,6,,57,0
36864,note_on,2,0,6,,,,,,,,,,6,,50,75
36864,note_on,2,0,5,,,,,,,,,,4,,65,60
36864,note_on,2,0,7,,,,,,,,,,7,,50,75
36864,note_on,2,0,3,,,,,,,,,,2,,74,127
36864,note_on,2,0,4,,,,,,,,,,5,,74,127
36958,note_on,94,0,7,,,,,,,,,,7,,50,0
36958,note_on,94,0,6,,,,,,,,,,6,,50,0
36958,note_on,94,0,5,,,,,,,,,,4,,65,0
36958,note_on,94,0,4,,,,,,,,,,5,,74,0
36958,note_on,94,0,3,,,,,,,,,,2,,74,0
36960,note_on,2,0,6,,,,,,,,,,6,,53,75
36960,note_on,2,0,7,,,,,,,,,,7,,53,75
36960,note_on,2,0,4,,,,,,,,,,5,,69,127
36960,note_on,2,0,3,,,,,,,,,,2,,69,127
36960,note_on,2,0,5,,,,,,,,,,4,,69,60
37054,note_on,94,0,3,,,,,,,,,,2,,69,0
37054,note_on,94,0,7,,,,,,,,,,7,,53,0
37054,note_on,94,0,5,,,,,,,,,,4,,69,0
37054,note_on,94,0,4,,,,,,,,,,5,,69,0
37054,note_on,94,0,6,,,,,,,,,,6,,53,0
37056,note_on,2,0,3,,,,,,,,,,2,,74,127
37056,note_on,2,0,5,,,,,,,,,,4,,67,60
37056,note_on,2,0,7,,,,,,,,,,7,,52,75
37056,note_on,2,0,6,,,,,,,,,,6,,52,75
37056,note_on,2,0,4,,,,,,,,,,5,,74,127
37126,note_on,70,0,3,,,,,,,,,,2,,74,0
37126,note_on,70,0,4,,,,,,,,,,5,,74,0
37128,note_on,2,0,3,,,,,,,,,,2,,76,127
37128,note_on,2,0,4,,,,,,,,,,5,,76,127
37150,note_on,94,0,6,,,,,,,,,,6,,52,0
37150,note_on,94,0,5,,,,,,,,,,4,,67,0
37150,note_on,22,0,3,,,,,,,,,,2,,76,0
37150,note_on,94,0,7,,,,,,,,,,7,,52,0
37150,note_on,22,0,4,,,,,,,,,,5,,76,0
37152,note_on,2,0,6,,,,,,,,,,6,,50,75
37152,note_on,2,0,7,,,,,,,,,,7,,50,75
37152,note_on,2,0,5,,,,,,,,,,4,,65,60
37152,note_on,2,0,3,,,,,,,,,,2,,77,127
37152,note_on,2,0,4,,,,,,,,,,5,,77,127
37222,note_on,70,0,3,,,,,,,,,,2,,77,0
37222,note_on,70,0,4,,,,,,,,,,5,,77,0
37224,note_on,2,0,4,,,,,,,,,,5,,79,127
37224,note_on,2,0,3,,,,,,,,,,2,,79,127
37246,note_on,94,0,5,,,,,,,,,,4,,65,0
37246,note_on,94,0,6,,,,,,,,,,6,,50,0
37246,note_on,22,0,4,,,,,,,,,,5,,79,0
37246,note_on,94,0,7,,,,,,,,,,7,,50,0
37246,note_on,22,0,3,,,,,,,,,,2,,79,0
37248,note_on,2,0,3,,,,,,,,,,2,,81,127
37248,note_on,2,0,4,,,,,,,,,,5,,81,127
37342,note_on,94,0,4,,,,,,,,,,5,,81,0
37342,note_on,94,0,3,,,,,,,,,,2,,81,0
37344,note_on,98,0,5,,,,,,,,,,4,,61,60
37344,note_on,98,0,7,,,,,,,,,,7,,57,75
37344,note_on,2,0,3,,,,,,,,,,2,,69,127
37344,note_on,98,0,6,,,,,,,,,,6,,57,75
37344,note_on,2,0,4,,,,,,,,,,5,,69,127
37438,note_on,94,0,3,,,,,,,,,,2,,69,0
37438,note_on,94,0,7,,,,,,,,,,7,,57,0
37438,note_on,94,0,6,,,,,,,,,,6,,57,0
37438,note_on,94,0,5,,,,,,,,,,4,,61,0
37438,note_on,94,0,4,,,,,,,,,,5,,69,0
37440,note_on,2,0,5,,,,,,,,,,4,,62,60
37440,note_on,2,0,7,,,,,,,,,,7,,53,75
37440,note_on,2,0,4,,,,,,,,,,5,,81,127
37440,note_on,2,0,6,,,,,,,,,,6,,53,75
37440,note_on,2,0,3,,,,,,,,,,2,,81,127
37534,note_on,94,0,7,,,,,,,,,,7,,53,0
37534,note_on,94,0,4,,,,,,,,,,5,,81,0
37534,note_on,94,0,6,,,,,,,,,,6,,53,0
37534,note_on,94,0,5,,,,,,,,,,4,,62,0
37534,note_on,94,0,3,,,,,,,,,,2,,81,0
37536,note_on,2,0,7,,,,,,,,,,7,,50,75
37536,note_on,2,0,6,,,,,,,,,,6,,50,75
37536,note_on,2,0,3,,,,,,,,,,2,,82,127
37536,note_on,2,0,5,,,,,,,,,,4,,65,60
37536,note_on,2,0,4,,,,,,,,,,5,,82,127
37630,note_on,94,0,3,,,,,,,,,,2,,82,0
37630,note_on,94,0,5,,,,,,,,,,4,,65,0
37630,note_on,94,0,7,,,,,,,,,,7,,50,0
37630,note_on,94,0,6,,,,,,,,,,6,,50,0
37630,note_on,94,0,4,,,,,,,,,,5,,82,0
37632,note_on,2,0,3,,,,,,,,,,2,,79,127
37632,note_on,2,0,4,,,,,,,,,,5,,79,127
37726,note_on,94,0,4,,,,,,,,,,5,,79,0
37726,note_on,94,0,3,,,,,,,,,,2,,79,0
37728,note_on,98,0,6,,,,,,,,,,6,,49,75
37728,note_on,98,0,7,,,,,,,,,,7,,49,75
37728,note_on,2,0,3,,,,,,,,,,2,,69,127
37728,note_on,98,0,5,,,,,,,,,,4,,64,60
37728,note_on,2,0,4,,,,,,,,,,5,,69,127
37822,note_on,94,0,6,,,,,,,,,,6,,49,0
37822,note_on,94,0,3,,,,,,,,,,2,,69,0
37822,note_on,94,0,7,,,,,,,,,,7,,49,0
37822,note_on,94,0,5,,,,,,,,,,4,,64,0
37822,note_on,94,0,4,,,,,,,,,,5,,69,0
37824,note_on,2,0,7,,,,,,,,,,7,,47,75
37824,note_on,2,0,3,,,,,,,,,,2,,64,127
37824,note_on,2,0,6,,,,,,,,,,6,,47,75
37824,note_on,2,0,5,,,,,,,,,,4,,62,60
37824,note_on,2,0,4,,,,,,,,,,5,,64,127
37894,note_on,70,0,3,,,,,,,,,,2,,64,0
37894,note_on,70,0,4,,,,,,,,,,5,,64,0
37896,note_on,2,0,4,,,,,,,,,,5,,65,127
37896,note_on,2,0,3,,,,,,,,,,2,,65,127
37918,note_on,22,0,4,,,,,,,,,,5,,65,0
37918,note_on,94,0,5,,,,,,,,,,4,,62,0
37918,note_on,22,0,3,,,,,,,,,,2,,65,0
37918,note_on,94,0,7,,,,,,,,,,7,,47,0
37918,note_on,94,0,6,,,,,,,,,,6,,47,0
37920,note_on,2,0,4,,,,,,,,,,5,,67,127
37920,note_on,2,0,5,,,,,,,,,,4,,61,60
37920,note_on,2,0,3,,,,,,,,,,2,,67,127
37920,note_on,2,0,7,,,,,,,,,,7,,45,75
37920,note_on,2,0,6,,,,,,,,,,6,,45,75
37990,note_on,70,0,3,,,,,,,,,,2,,67,0
37990,note_on,70,0,4,,,,,,,,,,5,,67,0
37992,note_on,2,0,3,,,,,,,,,,2,,69,127
37992,note_on,2,0,4,,,,,,,,,,5,,69,127
38014,note_on,22,0,4,,,,,,,,,,5,,69,0
38014,note_on,94,0,5,,,,,,,,,,4,,61,0
38014,note_on,94,0,7,,,,,,,,,,7,,45,0
38014,note_on,22,0,3,,,,,,,,,,2,,69,0
38014,note_on,94,0,6,,,,,,,,,,6,,45,0
38016,note_on,2,0,3,,,,,,,,,,2,,65,127
38016,note_on,2,0,4,,,,,,,,,,5,,65,127
38110,note_on,94,0,3,,,,,,,,,,2,,65,0
38110,note_on,94,0,4,,,,,,,,,,5,,65,0
38112,note_on,2,0,4,,,,,,,,,,5,,62,127
38112,note_on,98,0,7,,,,,,,,,,7,,53,75
38112,note_on,98,0,6,,,,,,,,,,6,,53,75
38112,note_on,98,0,5,,,,,,,,,,4,,69,60
38112,note_on,2,0,3,,,,,,,,,,2,,62,127
38206,note_on,94,0,5,,,,,,,,,,4,,69,0
38206,note_on,94,0,3,,,,,,,,,,2,,62,0
38206,note_on,94,0,4,,,,,,,,,,5,,62,0
38206,note_on,94,0,6,,,,,,,,,,6,,53,0
38206,note_on,94,0,7,,,,,,,,,,7,,53,0
38208,note_on,2,0,6,,,,,,,,,,6,,52,75
38208,note_on,2,0,5,,,,,,,,,,4,,67,60
38208,note_on,2,0,7,,,,,,,,,,7,,52,75
38302,note_on,94,0,5,,,,,,,,,,4,,67,0
38302,note_on,94,0,6,,,,,,,,,,6,,52,0
38302,note_on,94,0,7,,,,,,,,,,7,,52,0
38304,note_on,98,0,3,,,,,,,,,,2,,74,127
38304,note_on,2,0,5,,,,,,,,,,4,,65,60
38304,note_on,98,0,4,,,,,,,,,,5,,74,127
38304,note_on,2,0,6,,,,,,,,,,6,,50,75
38304,note_on,2,0,7,,,,,,,,,,7,,50,75
38398,note_on,94,0,5,,,,,,,,,,4,,65,0
38398,note_on,94,0,4,,,,,,,,,,5,,74,0
38398,note_on,94,0,7,,,,,,,,,,7,,50,0
38398,note_on,94,0,3,,,,,,,,,,2,,74,0
38398,note_on,94,0,6,,,,,,,,,,6,,50,0
38400,note_on,2,0,3,,,,,,,,,,2,,57,127
38400,note_on,2,0,5,,,,,,,,,,4,,57,60
38400,note_on,2,0,6,,,,,,,,,,6,,45,75
38400,note_on,2,0,7,,,,,,,,,,7,,45,75
38400,note_on,2,0,4,,,,,,,,,,5,,57,127
38494,note_on,94,0,3,,,,,,,,,,2,,57,0
38494,note_on,94,0,4,,,,,,,,,,5,,57,0
38496,note_on,2,0,4,,,,,,,,,,5,,74,127
38496,note_on,2,0,3,,,,,,,,,,2,,74,127
38560,note_on,160,0,6,,,,,,,,,,6,,45,0
38560,note_on,160,0,5,,,,,,,,,,4,,57,0
38560,note_on,160,0,7,,,,,,,,,,7,,45,0
38590,note_on,94,0,4,,,,,,,,,,5,,74,0
38590,note_on,94,0,3,,,,,,,,,,2,,74,0
38592,note_on,2,0,4,,,,,,,,,,5,,73,127
38592,note_on,2,0,3,,,,,,,,,,2,,73,127
38686,note_on,94,0,4,,,,,,,,,,5,,73,0
38686,note_on,94,0,3,,,,,,,,,,2,,73,0
38688,note_on,128,0,6,,,,,,,,,,6,,45,75
38688,note_on,128,0,7,,,,,,,,,,7,,45,75
38688,note_on,2,0,4,,,,,,,,,,5,,57,127
38688,note_on,2,0,3,,,,,,,,,,2,,57,127
38688,note_on,128,0,5,,,,,,,,,,4,,57,60
38782,note_on,94,0,7,,,,,,,,,,7,,45,0
38782,note_on,94,0,4,,,,,,,,,,5,,57,0
38782,note_on,94,0,5,,,,,,,,,,4,,57,0
38782,note_on,94,0,6,,,,,,,,,,6,,45,0
38782,note_on,94,0,3,,,,,,,,,,2,,57,0
38784,note_on,2,0,7,,,,,,,,,,7,,46,75
38784,note_on,2,0,5,,,,,,,,,,4,,58,60
38784,note_on,2,0,3,,,,,,,,,,2,,58,127
38784,note_on,2,0,6,,,,,,,,,,6,,46,75
38784,note_on,2,0,4,,,,,,,,,,5,,58,127
38878,note_on,94,0,4,,,,,,,,,,5,,58,0
38878,note_on,94,0,3,,,,,,,,,,2,,58,0
38880,note_on,2,0,4,,,,,,,,,,5,,82,127
38880,note_on,2,0,3,,,,,,,,,,2,,82,127
38944,note_on,160,0,5,,,,,,,,,,4,,58,0
38944,note_on,160,0,7,,,,,,,,,,7,,46,0
38944,note_on,160,0,6,,,,,,,,,,6,,46,0
38974,note_on,94,0,3,,,,,,,,,,2,,82,0
38974,note_on,94,0,4,,,,,,,,,,5,,82,0
38976,note_on,2,0,3,,,,,,,,,,2,,79,127
38976,note_on,2,0,4,,,,,,,,,,5,,79,127
39070,note_on,94,0,3,,,,,,,,,,2,,79,0
39070,note_on,94,0,4,,,,,,,,,,5,,79,0
39072,note_on,128,0,5,,,,,,,,,,4,,67,60
39072,note_on,128,0,7,,,,,,,,,,7,,55,75
39072,note_on,128,0,6,,,,,,,,,,6,,55,75
39072,note_on,2,0,3,,,,,,,,,,2,,73,127
39072,note_on,2,0,4,,,,,,,,,,5,,73,127
39166,note_on,94,0,6,,,,,,,,,,6,,55,0
39166,note_on,94,0,4,,,,,,,,,,5,,73,0
39166,note_on,94,0,5,,,,,,,,,,4,,67,0
39166,note_on,94,0,3,,,,,,,,,,2,,73,0
39166,note_on,94,0,7,,,,,,,,,,7,,55,0
39168,note_on,2,0,6,,,,,,,,,,6,,53,75
39168,note_on,2,0,4,,,,,,,,,,5,,74,127
39168,note_on,2,0,5,,,,,,,,,,4,,65,60
39168,note_on,2,0,3,,,,,,,,,,2,,74,127
39168,note_on,2,0,7,,,,,,,,,,7,,53,75
39262,note_on,94,0,3,,,,,,,,,,2,,74,0
39262,note_on,94,0,4,,,,,,,,,,5,,74,0
39264,note_on,2,0,4,,,,,,,,,,5,,67,127
39264,note_on,2,0,3,,,,,,,,,,2,,67,127
39328,note_on,160,0,6,,,,,,,,,,6,,53,0
39328,note_on,160,0,5,,,,,,,,,,4,,65,0
39328,note_on,160,0,7,,,,,,,,,,7,,53,0
39358,note_on,94,0,3,,,,,,,,,,2,,67,0
39358,note_on,94,0,4,,,,,,,,,,5,,67,0
39360,note_on,2,0,3,,,,,,,,,,2,,65,127
39360,note_on,2,0,4,,,,,,,,,,5,,65,127
39454,note_on,94,0,3,,,,,,,,,,2,,65,0
39454,note_on,94,0,4,,,,,,,,,,5,,65,0
39456,note_on,128,0,5,,,,,,,,,,4,,56,60
39456,note_on,128,0,6,,,,,,,,,,6,,44,75
39456,note_on,128,0,7,,,,,,,,,,7,,44,75
39456,note_on,2,0,3,,,,,,,,,,2,,56,127
39456,note_on,2,0,4,,,,,,,,,,5,,56,127
39550,note_on,94,0,6,,,,,,,,,,6,,44,0
39550,note_on,94,0,7,,,,,,,,,,7,,44,0
39550,note_on,94,0,3,,,,,,,,,,2,,56,0
39550,note_on,94,0,5,,,,,,,,,,4,,56,0
39550,note_on,94,0,4,,,,,,,,,,5,,56,0
39552,note_on,2,0,7,,,,,,,,,,7,,45,75
39552,note_on,2,0,5,,,,,,,,,,4,,57,60
39552,note_on,2,0,4,,,,,,,,,,5,,57,127
39552,note_on,2,0,6,,,,,,,,,,6,,45,75
39552,note_on,2,0,3,,,,,,,,,,2,,57,127
39646,note_on,94,0,6,,,,,,,,,,6,,45,0
39646,note_on,94,0,3,,,,,,,,,,2,,57,0
39646,note_on,94,0,7,,,,,,,,,,7,,45,0
39646,note_on,94,0,5,,,,,,,,,,4,,57,0
39646,note_on,94,0,4,,,,,,,,,,5,,57,0
39648,note_on,2,0,4,,,,,,,,,,5,,79,127
39648,note_on,2,0,7,,,,,,,,,,7,,61,75
39648,note_on,2,0,6,,,,,,,,,,6,,61,75
39648,note_on,2,0,3,,,,,,,,,,2,,79,127
39648,note_on,2,0,5,,,,,,,,,,4,,64,60
39742,note_on,94,0,6,,,,,,,,,,6,,61,0
39742,note_on,94,0,4,,,,,,,,,,5,,79,0
39742,note_on,94,0,7,,,,,,,,,,7,,61,0
39742,note_on,94,0,5,,,,,,,,,,4,,64,0
39742,note_on,94,0,3,,,,,,,,,,2,,79,0
39744,note_on,2,0,6,,,,,,,,,,6,,62,75
39744,note_on,2,0,4,,,,,,,,,,5,,77,127
39744,note_on,2,0,3,,,,,,,,,,2,,77,127
39744,note_on,2,0,5,,,,,,,,,,4,,65,60
39744,note_on,2,0,7,,,,,,,,,,7,,62,75
39790,note_on,46,0,4,,,,,,,,,,5,,77,0
39790,note_on,46,0,3,,,,,,,,,,2,,77,0
39792,note_on,2,0,4,,,,,,,,,,5,,79,127
39792,note_on,2,0,3,,,,,,,,,,2,,79,127
39814,note_on,22,0,3,,,,,,,,,,2,,79,0
39814,note_on,22,0,4,,,,,,,,,,5,,79,0
39816,note_on,2,0,3,,,,,,,,,,2,,81,127
39816,note_on,2,0,4,,,,,,,,,,5,,81,127
39838,note_on,94,0,7,,,,,,,,,,7,,62,0
39838,note_on,22,0,3,,,,,,,,,,2,,81,0
39838,note_on,94,0,5,,,,,,,,,,4,,65,0
39838,note_on,22,0,4,,,,,,,,,,5,,81,0
39838,note_on,94,0,6,,,,,,,,,,6,,62,0
39840,note_on,2,0,4,,,,,,,,,,5,,73,127
39840,note_on,2,0,7,,,,,,,,,,7,,57,75
39840,note_on,2,0,3,,,,,,,,,,2,,73,127
39840,note_on,2,0,5,,,,,,,,,,4,,64,60
39840,note_on,2,0,6,,,,,,,,,,6,,57,75
39934,note_on,94,0,7,,,,,,,,,,7,,57,0
39934,note_on,94,0,3,,,,,,,,,,2,,73,0
39934,note_on,94,0,5,,,,,,,,,,4,,64,0
39934,note_on,94,0,6,,,,,,,,,,6,,57,0
39934,note_on,94,0,4,,,,,,,,,,5,,73,0
39936,note_on,2,0,4,,,,,,,,,,5,,74,127
39936,note_on,2,0,6,,,,,,,,,,6,,53,75
39936,note_on,2,0,7,,,,,,,,,,7,,53,75
39936,note_on,2,0,3,,,,,,,,,,2,,74,127
39936,note_on,2,0,5,,,,,,,,,,4,,69,60
40030,note_on,94,0,4,,,,,,,,,,5,,74,0
40030,note_on,94,0,6,,,,,,,,,,6,,53,0
40030,note_on,94,0,5,,,,,,,,,,4,,69,0
40030,note_on,94,0,3,,,,,,,,,,2,,74,0
40030,note_on,94,0,7,,,,,,,,,,7,,53,0
40032,note_on,2,0,3,,,,,,,,,,2,,79,127
40032,note_on,2,0,6,,,,,,,,,,6,,52,75
40032,note_on,2,0,4,,,,,,,,,,5,,79,127
40032,note_on,2,0,5,,,,,,,,,,4,,61,60
40032,note_on,2,0,7,,,,,,,,,,7,,52,75
40126,note_on,94,0,6,,,,,,,,,,6,,52,0
40126,note_on,94,0,5,,,,,,,,,,4,,61,0
40126,note_on,94,0,4,,,,,,,,,,5,,79,0
40126,note_on,94,0,3,,,,,,,,,,2,,79,0
40126,note_on,94,0,7,,,,,,,,,,7,,52,0
40128,note_on,2,0,3,,,,,,,,,,2,,77,127
40128,note_on,2,0,5,,,,,,,,,,4,,57,60
40128,note_on,2,0,4,,,,,,,,,,5,,77,127
40128,note_on,2,0,6,,,,,,,,,,6,,50,75
40128,note_on,2,0,7,,,,,,,,,,7,,50,75
40174,note_on,46,0,4,,,,,,,,,,5,,77,0
40174,note_on,46,0,3,,,,,,,,,,2,,77,0
40176,note_on,2,0,4,,,,,,,,,,5,,79,127
40176,note_on,2,0,3,,,,,,,,,,2,,79,127
40198,note_on,22,0,3,,,,,,,,,,2,,79,0
40198,note_on,22,0,4,,,,,,,,,,5,,79,0
40200,note_on,2,0,3,,,,,,,,,,2,,81,127
40200,note_on,2,0,4,,,,,,,,,,5,,81,127
40222,note_on,94,0,7,,,,,,,,,,7,,50,0
40222,note_on,22,0,3,,,,,,,,,,2,,81,0
40222,note_on,22,0,4,,,,,,,,,,5,,81,0
40222,note_on,94,0,5,,,,,,,,,,4,,57,0
40222,note_on,94,0,6,,,,,,,,,,6,,50,0
40224,note_on,2,0,5,,,,,,,,,,4,,57,60
40224,note_on,2,0,4,,,,,,,,,,5,,61,127
40224,note_on,2,0,3,,,,,,,,,,2,,61,127
40224,note_on,2,0,7,,,,,,,,,,7,,45,75
40224,note_on,2,0,6,,,,,,,,,,6,,45,75
40318,note_on,94,0,7,,,,,,,,,,7,,45,0
40318,note_on,94,0,3,,,,,,,,,,2,,61,0
40318,note_on,94,0,4,,,,,,,,,,5,,61,0
40318,note_on,94,0,5,,,,,,,,,,4,,57,0
40318,note_on,94,0,6,,,,,,,,,,6,,45,0
40320,note_on,2,0,4,,,,,,,,,,5,,62,127
40320,note_on,2,0,5,,,,,,,,,,4,,53,60
40320,note_on,2,0,7,,,,,,,,,,7,,50,75
40320,note_on,2,0,3,,,,,,,,,,2,,62,127
40320,note_on,2,0,6,,,,,,,,,,6,,50,75
40414,note_on,94,0,7,,,,,,,,,,7,,50,0
40414,note_on,94,0,5,,,,,,,,,,4,,53,0
40414,note_on,94,0,6,,,,,,,,,,6,,50,0
40414,note_on,94,0,4,,,,,,,,,,5,,62,0
40414,note_on,94,0,3,,,,,,,,,,2,,62,0
40416,note_on,2,0,4,,,,,,,,,,5,,79,127
40416,note_on,2,0,7,,,,,,,,,,7,,61,75
40416,note_on,2,0,6,,,,,,,,,,6,,61,75
40416,note_on,2,0,5,,,,,,,,,,4,,64,60
40416,note_on,2,0,3,,,,,,,,,,2,,79,127
40510,note_on,94,0,6,,,,,,,,,,6,,61,0
40510,note_on,94,0,5,,,,,,,,,,4,,64,0
40510,note_on,94,0,4,,,,,,,,,,5,,79,0
40510,note_on,94,0,7,,,,,,,,,,7,,61,0
40510,note_on,94,0,3,,,,,,,,,,2,,79,0
40512,note_on,2,0,4,,,,,,,,,,5,,77,127
40512,note_on,2,0,5,,,,,,,,,,4,,65,60
40512,note_on,2,0,7,,,,,,,,,,7,,62,75
40512,note_on,2,0,6,,,,,,,,,,6,,62,75
40512,note_on,2,0,3,,,,,,,,,,2,,77,127
40558,note_on,46,0,3,,,,,,,,,,2,,77,0
40558,note_on,46,0,4,,,,,,,,,,5,,77,0
40560,note_on,2,0,3,,,,,,,,,,2,,79,127
40560,note_on,2,0,4,,,,,,,,,,5,,79,127
40582,note_on,22,0,3,,,,,,,,,,2,,79,0
40582,note_on,22,0,4,,,,,,,,,,5,,79,0
40584,note_on,2,0,3,,,,,,,,,,2,,81,127
40584,note_on,2,0,4,,,,,,,,,,5,,81,127
40606,note_on,94,0,7,,,,,,,,,,7,,62,0
40606,note_on,94,0,5,,,,,,,,,,4,,65,0
40606,note_on,22,0,4,,,,,,,,,,5,,81,0
40606,note_on,22,0,3,,,,,,,,,,2,,81,0
40606,note_on,94,0,6,,,,,,,,,,6,,62,0
40608,note_on,2,0,5,,,,,,,,,,4,,64,60
40608,note_on,2,0,4,,,,,,,,,,5,,73,127
40608,note_on,2,0,7,,,,,,,,,,7,,57,75
40608,note_on,2,0,6,,,,,,,,,,6,,57,75
40608,note_on,2,0,3,,,,,,,,,,2,,73,127
40702,note_on,94,0,5,,,,,,,,,,4,,64,0
40702,note_on,94,0,4,,,,,,,,,,5,,73,0
40702,note_on,94,0,7,,,,,,,,,,7,,57,0
40702,note_on,94,0,6,,,,,,,,,,6,,57,0
40702,note_on,94,0,3,,,,,,,,,,2,,73,0
40704,note_on,2,0,4,,,,,,,,,,5,,74,127
40704,note_on,2,0,7,,,,,,,,,,7,,53,75
40704,note_on,2,0,3,,,,,,,,,,2,,74,127
40704,note_on,2,0,6,,,,,,,,,,6,,53,75
40704,note_on,2,0,5,,,,,,,,,,4,,69,60
40798,note_on,94,0,3,,,,,,,,,,2,,74,0
40798,note_on,94,0,7,,,,,,,,,,7,,53,0
40798,note_on,94,0,4,,,,,,,,,,5,,74,0
40798,note_on,94,0,5,,,,,,,,,,4,,69,0
40798,note_on,94,0,6,,,,,,,,,,6,,53,0
40800,note_on,2,0,3,,,,,,,,,,2,,79,127
40800,note_on,2,0,4,,,,,,,,,,5,,79,127
40800,note_on,2,0,5,,,,,,,,,,4,,61,60
40800,note_on,2,0,7,,,,,,,,,,7,,52,75
40800,note_on,2,0,6,,,,,,,,,,6,,52,75
40894,note_on,94,0,6,,,,,,,,,,6,,52,0
40894,note_on,94,0,5,,,,,,,,,,4,,61,0
40894,note_on,94,0,7,,,,,,,,,,7,,52,0
40894,note_on,94,0,4,,,,,,,,,,5,,79,0
40894,note_on,94,0,3,,,,,,,,,,2,,79,0
40896,note_on,2,0,6,,,,,,,,,,6,,50,75
40896,note_on,2,0,4,,,,,,,,,,5,,77,127
40896,note_on,2,0,5,,,,,,,,,,4,,57,60
40896,note_on,2,0,7,,,,,,,,,,7,,50,75
40896,note_on,2,0,3,,,,,,,,,,2,,77,127
40942,note_on,46,0,3,,,,,,,,,,2,,77,0
40942,note_on,46,0,4,,,,,,,,,,5,,77,0
40944,note_on,2,0,4,,,,,,,,,,5,,79,127
40944,note_on,2,0,3,,,,,,,,,,2,,79,127
40966,note_on,22,0,4,,,,,,,,,,5,,79,0
40966,note_on,22,0,3,,,,,,,,,,2,,79,0
40968,note_on,2,0,4,,,,,,,,,,5,,81,127
40968,note_on,2,0,3,,,,,,,,,,2,,81,127
40990,note_on,22,0,4,,,,,,,,,,5,,81,0
40990,note_on,94,0,7,,,,,,,,,,7,,50,0
40990,note_on,94,0,5,,,,,,,,,,4,,57,0
40990,note_on,22,0,3,,,,,,,,,,2,,81,0
40990,note_on,94,0,6,,,,,,,,,,6,,50,0
40992,note_on,2,0,3,,,,,,,,,,2,,61,127
40992,note_on,2,0,5,,,,,,,,,,4,,57,60
40992,note_on,2,0,7,,,,,,,,,,7,,45,75
40992,note_on,2,0,4,,,,,,,,,,5,,61,127
40992,note_on,2,0,6,,,,,,,,,,6,,45,75
41086,note_on,94,0,4,,,,,,,,,,5,,61,0
41086,note_on,94,0,5,,,,,,,,,,4,,57,0
41086,note_on,94,0,7,,,,,,,,,,7,,45,0
41086,note_on,94,0,3,,,,,,,,,,2,,61,0
41086,note_on,94,0,6,,,,,,,,,,6,,45,0
41088,note_on,0,0,1,,,,,,,,,,0,,65,110
41088,note_on,0,0,1,,,,,,,,,,0,,69,110
41088,note_on,0,0,1,,,,,,,,,,0,,74,110
41088,note_on,2,0,7,,,,,,,,,,7,,50,75
41088,note_on,2,0,6,,,,,,,,,,6,,50,75
41088,note_on,0,0,4,,,,,,,,,,5,,62,75
41088,note_on,0,0,1,,,,,,,,,,0,,62,110
41088,note_on,0,0,3,,,,,,,,,,2,,62,75
41088,control_change,2,0,4,,,,,,,,10,0,5,,,
41088,control_change,2,0,3,,,,,,,,10,0,2,,,
41088,note_on,2,0,5,,,,,,,,,,4,,57,60
41088,note_on,4832,0,1,,,,,,,,,,0,,57,110
41182,note_on,94,0,1,,,,,,,,,,0,,57,0
41182,note_on,0,0,1,,,,,,,,,,0,,62,0
41182,note_on,0,0,1,,,,,,,,,,0,,65,0
41182,note_on,0,0,1,,,,,,,,,,0,,69,0
41182,note_on,0,0,1,,,,,,,,,,0,,74,0
41182,note_on,94,0,3,,,,,,,,,,2,,62,0
41182,note_on,94,0,4,,,,,,,,,,5,,62,0
41184,note_on,2,0,1,,,,,,,,,,0,,74,110
41230,note_on,46,0,1,,,,,,,,,,0,,74,0
41232,note_on,2,0,1,,,,,,,,,,0,,76,110
41248,note_on,160,0,5,,,,,,,,,,4,,57,0
41248,note_on,160,0,7,,,,,,,,,,7,,50,0
41248,note_on,160,0,6,,,,,,,,,,6,,50,0
41278,note_on,46,0,1,,,,,,,,,,0,,76,0
41280,note_on,2,0,1,,,,,,,,,,0,,77,110
41326,note_on,46,0,1,,,,,,,,,,0,,77,0
41328,note_on,2,0,1,,,,,,,,,,0,,74,110
41374,note_on,46,0,1,,,,,,,,,,0,,74,0
41376,note_on,2,0,1,,,,,,,,,,0,,81,110
41422,note_on,46,0,1,,,,,,,,,,0,,81,0
41424,note_on,2,0,1,,,,,,,,,,0,,73,110
41470,note_on,46,0,1,,,,,,,,,,0,,73,0
41472,note_on,290,0,3,,,,,,,,,,2,,62,75
41472,note_on,2,0,1,,,,,,,,,,0,,57,110
41472,note_on,0,0,1,,,,,,,,,,0,,62,110
41472,note_on,0,0,1,,,,,,,,,,0,,65,110
41472,note_on,0,0,1,,,,,,,,,,0,,69,110
41472,note_on,0,0,1,,,,,,,,,,0,,74,110
41472,note_on,290,0,4,,,,,,,,,,5,,62,75
41566,note_on,94,0,3,,,,,,,,,,2,,62,0
41566,note_on,94,0,1,,,,,,,,,,0,,57,0
41566,note_on,0,0,1,,,,,,,,,,0,,62,0
41566,note_on,0,0,1,,,,,,,,,,0,,65,0
41566,note_on,0,0,1,,,,,,,,,,0,,69,0
41566,note_on,0,0,1,,,,,,,,,,0,,74,0
41566,note_on,94,0,4,,,,,,,,,,5,,62,0
41568,note_on,2,0,1,,,,,,,,,,0,,74,110
41614,note_on,46,0,1,,,,,,,,,,0,,74,0
41616,note_on,2,0,1,,,,,,,,,,0,,76,110
41662,note_on,46,0,1,,,,,,,,,,0,,76,0
41664,note_on,2,0,1,,,,,,,,,,0,,77,110
41710,note_on,46,0,1,,,,,,,,,,0,,77,0
41712,note_on,2,0,1,,,,,,,,,,0,,74,110
41758,note_on,46,0,1,,,,,,,,,,0,,74,0
41760,note_on,2,0,1,,,,,,,,,,0,,81,110
41806,note_on,46,0,1,,,,,,,,,,0,,81,0
41808,note_on,2,0,1,,,,,,,,,,0,,73,110
41854,note_on,46,0,1,,,,,,,,,,0,,73,0
41856,note_on,0,0,4,,,,,,,,,,5,,62,75
41856,note_on,0,0,2,,,,,,,,,,1,,74,110
41856,note_on,0,0,2,,,,,,,,,,1,,69,110
41856,note_on,0,0,2,,,,,,,,,,1,,65,110
41856,note_on,0,0,2,,,,,,,,,,1,,62,110
41856,note_on,5216,0,2,,,,,,,,,,1,,57,110
41856,control_change,290,0,4,,,,,,,,10,127,5,,,
41856,note_on,2,0,1,,,,,,,,,,0,,74,110
41856,control_change,290,0,3,,,,,,,,10,127,2,,,
41856,note_on,0,0,3,,,,,,,,,,2,,62,75
41950,note_on,94,0,3,,,,,,,,,,2,,62,0
41950,note_on,0,0,2,,,,,,,,,,1,,74,0
41950,note_on,94,0,2,,,,,,,,,,1,,57,0
41950,note_on,0,0,2,,,,,,,,,,1,,62,0
41950,note_on,0,0,2,,,,,,,,,,1,,65,0
41950,note_on,94,0,4,,,,,,,,,,5,,62,0
41950,note_on,0,0,2,,,,,,,,,,1,,69,0
41952,note_on,2,0,2,,,,,,,,,,1,,74,110
41998,note_on,46,0,2,,,,,,,,,,1,,74,0
42000,note_on,2,0,2,,,,,,,,,,1,,76,110
42016,note_on,160,0,1,,,,,,,,,,0,,74,0
42046,note_on,46,0,2,,,,,,,,,,1,,76,0
42048,note_on,2,0,2,,,,,,,,,,1,,77,110
42094,note_on,46,0,2,,,,,,,,,,1,,77,0
42096,note_on,2,0,2,,,,,,,,,,1,,74,110
42142,note_on,46,0,2,,,,,,,,,,1,,74,0
42144,note_on,2,0,2,,,,,,,,,,1,,81,110
42190,note_on,46,0,2,,,,,,,,,,1,,81,0
42192,note_on,2,0,2,,,,,,,,,,1,,73,110
42238,note_on,46,0,2,,,,,,,,,,1,,73,0
42240,note_on,290,0,4,,,,,,,,,,5,,62,75
42240,note_on,290,0,3,,,,,,,,,,2,,62,75
42240,note_on,0,0,2,,,,,,,,,,1,,62,110
42240,note_on,2,0,2,,,,,,,,,,1,,57,110
42240,note_on,0,0,2,,,,,,,,,,1,,74,110
42240,note_on,0,0,2,,,,,,,,,,1,,65,110
42240,note_on,0,0,2,,,,,,,,,,1,,69,110
42334,note_on,94,0,4,,,,,,,,,,5,,62,0
42334,note_on,0,0,2,,,,,,,,,,1,,69,0
42334,note_on,0,0,2,,,,,,,,,,1,,74,0
42334,note_on,94,0,3,,,,,,,,,,2,,62,0
42334,note_on,94,0,2,,,,,,,,,,1,,57,0
42334,note_on,0,0,2,,,,,,,,,,1,,65,0
42334,note_on,0,0,2,,,,,,,,,,1,,62,0
42336,note_on,2,0,2,,,,,,,,,,1,,74,110
42382,note_on,46,0,2,,,,,,,,,,1,,74,0
42384,note_on,2,0,2,,,,,,,,,,1,,76,110
42430,note_on,46,0,2,,,,,,,,,,1,,76,0
42432,note_on,2,0,2,,,,,,,,,,1,,77,110
42478,note_on,46,0,2,,,,,,,,,,1,,77,0
42480,note_on,2,0,2,,,,,,,,,,1,,74,110
42526,note_on,46,0,2,,,,,,,,,,1,,74,0
42528,note_on,2,0,2,,,,,,,,,,1,,81,110
42574,note_on,46,0,2,,,,,,,,,,1,,81,0
42576,note_on,2,0,2,,,,,,,,,,1,,73,110
42622,note_on,46,0,2,,,,,,,,,,1,,73,0
42624,control_change,290,0,4,,,,,,,,10,0,5,,,
42624,note_on,0,0,4,,,,,,,,,,5,,62,75
42624,note_on,0,0,3,,,,,,,,,,2,,62,75
42624,note_on,2,0,2,,,,,,,,,,1,,74,110
42624,control_change,290,0,3,,,,,,,,10,0,2,,,
42672,note_on,656,0,1,,,,,,,,,,0,,81,110
42718,note_on,46,0,1,,,,,,,,,,0,,81,0
42720,note_on,2,0,1,,,,,,,,,,0,,76,110
42766,note_on,46,0,1,,,,,,,,,,0,,76,0
42768,note_on,2,0,1,,,,,,,,,,0,,81,110
42784,note_on,160,0,4,,,,,,,,,,5,,62,0
42784,note_on,160,0,3,,,,,,,,,,2,,62,0
42784,note_on,160,0,2,,,,,,,,,,1,,74,0
42814,note_on,46,0,1,,,,,,,,,,0,,81,0
42816,note_on,32,0,4,,,,,,,,,,5,,69,75
42816,note_on,32,0,3,,,,,,,,,,2,,69,75
42816,note_on,2,0,1,,,,,,,,,,0,,73,110
42862,note_on,46,0,1,,,,,,,,,,0,,73,0
42864,note_on,2,0,1,,,,,,,,,,0,,81,110
42910,note_on,94,0,3,,,,,,,,,,2,,69,0
42910,note_on,94,0,4,,,,,,,,,,5,,69,0
42910,note_on,46,0,1,,,,,,,,,,0,,81,0
42912,note_on,2,0,4,,,,,,,,,,5,,67,75
42912,note_on,2,0,1,,,,,,,,,,0,,71,110
42912,note_on,2,0,3,,,,,,,,,,2,,67,75
42958,note_on,46,0,1,,,,,,,,,,0,,71,0
42960,note_on,2,0,1,,,,,,,,,,0,,81,110
43006,note_on,46,0,1,,,,,,,,,,0,,81,0
43006,note_on,94,0,3,,,,,,,,,,2,,67,0
43006,note_on,94,0,4,,,,,,,,,,5,,67,0
43008,note_on,2,0,4,,,,,,,,,,5,,65,75
43008,note_on,2,0,3,,,,,,,,,,2,,65,75
43008,note_on,2,0,1,,,,,,,,,,0,,69,110
43054,note_on,46,0,1,,,,,,,,,,0,,69,0
43056,note_on,2,0,1,,,,,,,,,,0,,81,110
43102,note_on,46,0,1,,,,,,,,,,0,,81,0
43104,note_on,2,0,1,,,,,,,,,,0,,76,110
43150,note_on,46,0,1,,,,,,,,,,0,,76,0
43152,note_on,2,0,1,,,,,,,,,,0,,81,110
43168,note_on,160,0,4,,,,,,,,,,5,,65,0
43168,note_on,160,0,3,,,,,,,,,,2,,65,0
43198,note_on,46,0,1,,,,,,,,,,0,,81,0
43200,note_on,32,0,3,,,,,,,,,,2,,69,75
43200,note_on,2,0,1,,,,,,,,,,0,,73,110
43200,note_on,32,0,4,,,,,,,,,,5,,69,75
43246,note_on,46,0,1,,,,,,,,,,0,,73,0
43248,note_on,2,0,1,,,,,,,,,,0,,81,110
43294,note_on,94,0,3,,,,,,,,,,2,,69,0
43294,note_on,94,0,4,,,,,,,,,,5,,69,0
43294,note_on,46,0,1,,,,,,,,,,0,,81,0
43296,note_on,2,0,1,,,,,,,,,,0,,71,110
43296,note_on,2,0,4,,,,,,,,,,5,,67,75
43296,note_on,2,0,3,,,,,,,,,,2,,67,75
43342,note_on,46,0,1,,,,,,,,,,0,,71,0
43344,note_on,2,0,1,,,,,,,,,,0,,81,110
43390,note_on,94,0,3,,,,,,,,,,2,,67,0
43390,note_on,94,0,4,,,,,,,,,,5,,67,0
43390,note_on,46,0,1,,,,,,,,,,0,,81,0
43392,note_on,0,0,4,,,,,,,,,,5,,62,75
43392,control_change,2,0,4,,,,,,,,10,127,5,,,
43392,note_on,0,0,3,,,,,,,,,,2,,62,75
43392,control_change,2,0,3,,,,,,,,10,127,2,,,
43392,note_on,2,0,1,,,,,,,,,,0,,69,110
43440,note_on,656,0,2,,,,,,,,,,1,,81,110
43486,note_on,46,0,2,,,,,,,,,,1,,81,0
43488,note_on,2,0,2,,,,,,,,,,1,,76,110
43534,note_on,46,0,2,,,,,,,,,,1,,76,0
43536,note_on,2,0,2,,,,,,,,,,1,,81,110
43552,note_on,160,0,1,,,,,,,,,,0,,69,0
43552,note_on,160,0,4,,,,,,,,,,5,,62,0
43552,note_on,160,0,3,,,,,,,,,,2,,62,0
43582,note_on,46,0,2,,,,,,,,,,1,,81,0
43584,note_on,2,0,2,,,,,,,,,,1,,73,110
43584,note_on,32,0,4,,,,,,,,,,5,,69,75
43584,note_on,32,0,3,,,,,,,,,,2,,69,75
43630,note_on,46,0,2,,,,,,,,,,1,,73,0
43632,note_on,2,0,2,,,,,,,,,,1,,81,110
43678,note_on,46,0,2,,,,,,,,,,1,,81,0
43678,note_on,94,0,4,,,,,,,,,,5,,69,0
43678,note_on,94,0,3,,,,,,,,,,2,,69,0
43680,note_on,2,0,2,,,,,,,,,,1,,71,110
43680,note_on,2,0,4,,,,,,,,,,5,,67,75
43680,note_on,2,0,3,,,,,,,,,,2,,67,75
43726,note_on,46,0,2,,,,,,,,,,1,,71,0
43728,note_on,2,0,2,,,,,,,,,,1,,81,110
43774,note_on,46,0,2,,,,,,,,,,1,,81,0
43774,note_on,94,0,3,,,,,,,,,,2,,67,0
43774,note_on,94,0,4,,,,,,,,,,5,,67,0
43776,note_on,2,0,3,,,,,,,,,,2,,65,75
43776,note_on,2,0,4,,,,,,,,,,5,,65,75
43776,note_on,2,0,2,,,,,,,,,,1,,69,110
43822,note_on,46,0,2,,,,,,,,,,1,,69,0
43824,note_on,2,0,2,,,,,,,,,,1,,81,110
43870,note_on,46,0,2,,,,,,,,,,1,,81,0
43872,note_on,2,0,2,,,,,,,,,,1,,76,110
43918,note_on,46,0,2,,,,,,,,,,1,,76,0
43920,note_on,2,0,2,,,,,,,,,,1,,81,110
43936,note_on,160,0,4,,,,,,,,,,5,,65,0
43936,note_on,160,0,3,,,,,,,,,,2,,65,0
43966,note_on,46,0,2,,,,,,,,,,1,,81,0
43968,note_on,32,0,4,,,,,,,,,,5,,69,75
43968,note_on,2,0,2,,,,,,,,,,1,,73,110
43968,note_on,32,0,3,,,,,,,,,,2,,69,75
44014,note_on,46,0,2,,,,,,,,,,1,,73,0
44016,note_on,2,0,2,,,,,,,,,,1,,81,110
44062,note_on,94,0,4,,,,,,,,,,5,,69,0
44062,note_on,46,0,2,,,,,,,,,,1,,81,0
44062,note_on,94,0,3,,,,,,,,,,2,,69,0
44064,note_on,2,0,2,,,,,,,,,,1,,71,110
44064,note_on,2,0,3,,,,,,,,,,2,,67,75
44064,note_on,2,0,4,,,,,,,,,,5,,67,75
44110,note_on,46,0,2,,,,,,,,,,1,,71,0
44112,note_on,2,0,2,,,,,,,,,,1,,81,110
44158,note_on,46,0,2,,,,,,,,,,1,,81,0
44158,note_on,94,0,3,,,,,,,,,,2,,67,0
44158,note_on,94,0,4,,,,,,,,,,5,,67,0
44160,control_change,2,0,3,,,,,,,,10,127,2,,,
44160,note_on,608,0,1,,,,,,,,,,0,,81,110
44160,note_on,0,0,3,,,,,,,,,,2,,65,75
44160,control_change,2,0,4,,,,,,,,10,0,5,,,
44160,note_on,2,0,2,,,,,,,,,,1,,69,110
44206,note_on,46,0,1,,,,,,,,,,0,,81,0
44208,note_on,2,0,1,,,,,,,,,,0,,81,110
44230,note_on,22,0,1,,,,,,,,,,0,,81,0
44232,note_on,2,0,1,,,,,,,,,,0,,82,110
44254,note_on,22,0,1,,,,,,,,,,0,,82,0
44254,note_on,94,0,3,,,,,,,,,,2,,65,0
44256,note_on,2,0,1,,,,,,,,,,0,,84,110
44256,note_on,2,0,3,,,,,,,,,,2,,66,75
44302,note_on,46,0,1,,,,,,,,,,0,,84,0
44304,note_on,2,0,1,,,,,,,,,,0,,82,110
44320,note_on,160,0,2,,,,,,,,,,1,,69,0
44326,note_on,22,0,1,,,,,,,,,,0,,82,0
44328,note_on,2,0,1,,,,,,,,,,0,,81,110
44350,note_on,94,0,3,,,,,,,,,,2,,66,0
44350,note_on,22,0,1,,,,,,,,,,0,,81,0
44352,note_on,2,0,1,,,,,,,,,,0,,86,110
44352,note_on,2,0,3,,,,,,,,,,2,,66,75
44398,note_on,46,0,1,,,,,,,,,,0,,86,0
44400,note_on,2,0,1,,,,,,,,,,0,,81,110
44422,note_on,22,0,1,,,,,,,,,,0,,81,0
44424,note_on,2,0,1,,,,,,,,,,0,,82,110
44446,note_on,22,0,1,,,,,,,,,,0,,82,0
44446,note_on,94,0,3,,,,,,,,,,2,,66,0
44448,note_on,2,0,1,,,,,,,,,,0,,84,110
44448,note_on,2,0,3,,,,,,,,,,2,,66,75
44494,note_on,46,0,1,,,,,,,,,,0,,84,0
44496,note_on,2,0,1,,,,,,,,,,0,,82,110
44518,note_on,22,0,1,,,,,,,,,,0,,82,0
44520,note_on,2,0,1,,,,,,,,,,0,,81,110
44542,note_on,94,0,3,,,,,,,,,,2,,66,0
44542,note_on,22,0,1,,,,,,,,,,0,,81,0
44544,note_on,0,0,1,,,,,,,,,,0,,82,110
44544,note_on,2,0,1,,,,,,,,,,0,,79,110
44544,note_on,384,0,4,,,,,,,,,,5,,67,75
44544,note_on,224,0,2,,,,,,,,,,1,,74,110
44590,note_on,46,0,2,,,,,,,,,,1,,74,0
44592,note_on,2,0,2,,,,,,,,,,1,,74,110
44614,note_on,22,0,2,,,,,,,,,,1,,74,0
44616,note_on,2,0,2,,,,,,,,,,1,,76,110
44638,note_on,0,0,1,,,,,,,,,,0,,82,0
44638,note_on,94,0,1,,,,,,,,,,0,,79,0
44638,note_on,94,0,4,,,,,,,,,,5,,67,0
44638,note_on,22,0,2,,,,,,,,,,1,,76,0
44640,note_on,2,0,1,,,,,,,,,,0,,79,110
44640,note_on,2,0,4,,,,,,,,,,5,,67,75
44640,note_on,2,0,2,,,,,,,,,,1,,77,110
44640,note_on,0,0,1,,,,,,,,,,0,,82,110
44686,note_on,46,0,2,,,,,,,,,,1,,77,0
44688,note_on,2,0,2,,,,,,,,,,1,,76,110
44710,note_on,22,0,2,,,,,,,,,,1,,76,0
44712,note_on,2,0,2,,,,,,,,,,1,,74,110
44734,note_on,22,0,2,,,,,,,,,,1,,74,0
44734,note_on,94,0,1,,,,,,,,,,0,,79,0
44734,note_on,94,0,4,,,,,,,,,,5,,67,0
44734,note_on,0,0,1,,,,,,,,,,0,,82,0
44736,note_on,2,0,4,,,,,,,,,,5,,67,75
44736,note_on,0,0,1,,,,,,,,,,0,,82,110
44736,note_on,2,0,1,,,,,,,,,,0,,79,110
44736,note_on,2,0,2,,,,,,,,,,1,,79,110
44782,note_on,46,0,2,,,,,,,,,,1,,79,0
44784,note_on,2,0,2,,,,,,,,,,1,,74,110
44806,note_on,22,0,2,,,,,,,,,,1,,74,0
44808,note_on,2,0,2,,,,,,,,,,1,,76,110
44830,note_on,94,0,4,,,,,,,,,,5,,67,0
44830,note_on,0,0,1,,,,,,,,,,0,,82,0
44830,note_on,22,0,2,,,,,,,,,,1,,76,0
44830,note_on,94,0,1,,,,,,,,,,0,,79,0
44832,note_on,2,0,4,,,,,,,,,,5,,67,75
44832,note_on,2,0,1,,,,,,,,,,0,,79,110
44832,note_on,0,0,1,,,,,,,,,,0,,82,110
44832,note_on,2,0,2,,,,,,,,,,1,,77,110
44878,note_on,46,0,2,,,,,,,,,,1,,77,0
44880,note_on,2,0,2,,,,,,,,,,1,,76,110
44902,note_on,22,0,2,,,,,,,,,,1,,76,0
44904,note_on,2,0,2,,,,,,,,,,1,,74,110
44926,note_on,94,0,4,,,,,,,,,,5,,67,0
44926,note_on,0,0,1,,,,,,,,,,0,,82,0
44926,note_on,94,0,1,,,,,,,,,,0,,79,0
44926,note_on,22,0,2,,,,,,,,,,1,,74,0
44928,note_on,0,0,2,,,,,,,,,,1,,76,110
44928,note_on,2,0,2,,,,,,,,,,1,,72,110
44928,note_on,386,0,3,,,,,,,,,,2,,60,75
44928,note_on,2,0,1,,,,,,,,,,0,,79,110
44974,note_on,46,0,1,,,,,,,,,,0,,79,0
44976,note_on,2,0,1,,,,,,,,,,0,,79,110
44998,note_on,22,0,1,,,,,,,,,,0,,79,0
45000,note_on,2,0,1,,,,,,,,,,0,,81,110
45022,note_on,0,0,2,,,,,,,,,,1,,76,0
45022,note_on,94,0,2,,,,,,,,,,1,,72,0
45022,note_on,94,0,3,,,,,,,,,,2,,60,0
45022,note_on,22,0,1,,,,,,,,,,0,,81,0
45024,note_on,2,0,2,,,,,,,,,,1,,72,110
45024,note_on,2,0,3,,,,,,,,,,2,,60,75
45024,note_on,2,0,1,,,,,,,,,,0,,82,110
45024,note_on,0,0,2,,,,,,,,,,1,,76,110
45070,note_on,46,0,1,,,,,,,,,,0,,82,0
45072,note_on,2,0,1,,,,,,,,,,0,,81,110
45094,note_on,22,0,1,,,,,,,,,,0,,81,0
45096,note_on,2,0,1,,,,,,,,,,0,,79,110
45118,note_on,94,0,3,,,,,,,,,,2,,60,0
45118,note_on,94,0,2,,,,,,,,,,1,,72,0
45118,note_on,22,0,1,,,,,,,,,,0,,79,0
45118,note_on,0,0,2,,,,,,,,,,1,,76,0
45120,note_on,2,0,1,,,,,,,,,,0,,84,110
45120,note_on,2,0,3,,,,,,,,,,2,,60,75
45120,note_on,2,0,2,,,,,,,,,,1,,72,110
45120,note_on,0,0,2,,,,,,,,,,1,,76,110
45166,note_on,46,0,1,,,,,,,,,,0,,84,0
45168,note_on,2,0,1,,,,,,,,,,0,,79,110
45190,note_on,22,0,1,,,,,,,,,,0,,79,0
45192,note_on,2,0,1,,,,,,,,,,0,,81,110
45214,note_on,94,0,2,,,,,,,,,,1,,72,0
45214,note_on,94,0,3,,,,,,,,,,2,,60,0
45214,note_on,0,0,2,,,,,,,,,,1,,76,0
45214,note_on,22,0,1,,,,,,,,,,0,,81,0
45216,note_on,2,0,3,,,,,,,,,,2,,60,75
45216,note_on,2,0,2,,,,,,,,,,1,,72,110
45216,note_on,0,0,2,,,,,,,,,,1,,76,110
45216,note_on,2,0,1,,,,,,,,,,0,,82,110
45262,note_on,46,0,1,,,,,,,,,,0,,82,0
45264,note_on,2,0,1,,,,,,,,,,0,,81,110
45286,note_on,22,0,1,,,,,,,,,,0,,81,0
45288,note_on,2,0,1,,,,,,,,,,0,,79,110
45310,note_on,94,0,2,,,,,,,,,,1,,72,0
45310,note_on,22,0,1,,,,,,,,,,0,,79,0
45310,note_on,94,0,3,,,,,,,,,,2,,60,0
45310,note_on,0,0,2,,,,,,,,,,1,,76,0
45312,note_on,2,0,2,,,,,,,,,,1,,72,110
45312,note_on,386,0,4,,,,,,,,,,5,,65,75
45312,note_on,2,0,1,,,,,,,,,,0,,77,110
45312,note_on,0,0,1,,,,,,,,,,0,,81,110
45358,note_on,46,0,2,,,,,,,,,,1,,72,0
45360,note_on,2,0,2,,,,,,,,,,1,,72,110
45382,note_on,22,0,2,,,,,,,,,,1,,72,0
45384,note_on,2,0,2,,,,,,,,,,1,,74,110
45406,note_on,0,0,1,,,,,,,,,,0,,81,0
45406,note_on,94,0,1,,,,,,,,,,0,,77,0
45406,note_on,22,0,2,,,,,,,,,,1,,74,0
45406,note_on,94,0,4,,,,,,,,,,5,,65,0
45408,note_on,0,0,1,,,,,,,,,,0,,81,110
45408,note_on,2,0,1,,,,,,,,,,0,,77,110
45408,note_on,2,0,2,,,,,,,,,,1,,76,110
45408,note_on,2,0,4,,,,,,,,,,5,,65,75
45454,note_on,46,0,2,,,,,,,,,,1,,76,0
45456,note_on,2,0,2,,,,,,,,,,1,,74,110
45478,note_on,22,0,2,,,,,,,,,,1,,74,0
45480,note_on,2,0,2,,,,,,,,,,1,,72,110
45502,note_on,94,0,1,,,,,,,,,,0,,77,0
45502,note_on,22,0,2,,,,,,,,,,1,,72,0
45502,note_on,0,0,1,,,,,,,,,,0,,81,0
45502,note_on,94,0,4,,,,,,,,,,5,,65,0
45504,note_on,2,0,4,,,,,,,,,,5,,65,75
45504,note_on,2,0,2,,,,,,,,,,1,,77,110
45504,note_on,2,0,1,,,,,,,,,,0,,77,110
45504,note_on,0,0,1,,,,,,,,,,0,,81,110
45550,note_on,46,0,2,,,,,,,,,,1,,77,0
45552,note_on,2,0,2,,,,,,,,,,1,,72,110
45574,note_on,22,0,2,,,,,,,,,,1,,72,0
45576,note_on,2,0,2,,,,,,,,,,1,,74,110
45598,note_on,94,0,1,,,,,,,,,,0,,77,0
45598,note_on,0,0,1,,,,,,,,,,0,,81,0
45598,note_on,22,0,2,,,,,,,,,,1,,74,0
45598,note_on,94,0,4,,,,,,,,,,5,,65,0
45600,note_on,2,0,2,,,,,,,,,,1,,76,110
45600,note_on,2,0,4,,,,,,,,,,5,,65,75
45600,note_on,2,0,1,,,,,,,,,,0,,77,110
45600,note_on,0,0,1,,,,,,,,,,0,,81,110
45646,note_on,46,0,2,,,,,,,,,,1,,76,0
45648,note_on,2,0,2,,,,,,,,,,1,,74,110
45670,note_on,22,0,2,,,,,,,,,,1,,74,0
45672,note_on,2,0,2,,,,,,,,,,1,,72,110
45694,note_on,94,0,4,,,,,,,,,,5,,65,0
45694,note_on,94,0,1,,,,,,,,,,0,,77,0
45694,note_on,22,0,2,,,,,,,,,,1,,72,0
45694,note_on,0,0,1,,,,,,,,,,0,,81,0
45696,note_on,2,0,1,,,,,,,,,,0,,77,110
45696,note_on,386,0,3,,,,,,,,,,2,,58,75
45696,note_on,0,0,2,,,,,,,,,,1,,74,110
45696,note_on,2,0,2,,,,,,,,,,1,,70,110
45742,note_on,46,0,1,,,,,,,,,,0,,77,0
45744,note_on,2,0,1,,,,,,,,,,0,,77,110
45766,note_on,22,0,1,,,,,,,,,,0,,77,0
45768,note_on,2,0,1,,,,,,,,,,0,,79,110
45790,note_on,0,0,2,,,,,,,,,,1,,74,0
45790,note_on,22,0,1,,,,,,,,,,0,,79,0
45790,note_on,94,0,3,,,,,,,,,,2,,58,0
45790,note_on,94,0,2,,,,,,,,,,1,,70,0
45792,note_on,0,0,2,,,,,,,,,,1,,74,110
45792,note_on,2,0,2,,,,,,,,,,1,,70,110
45792,note_on,2,0,1,,,,,,,,,,0,,81,110
45792,note_on,2,0,3,,,,,,,,,,2,,58,75
45838,note_on,46,0,1,,,,,,,,,,0,,81,0
45840,note_on,2,0,1,,,,,,,,,,0,,79,110
45862,note_on,22,0,1,,,,,,,,,,0,,79,0
45864,note_on,2,0,1,,,,,,,,,,0,,77,110
45886,note_on,94,0,2,,,,,,,,,,1,,70,0
45886,note_on,94,0,3,,,,,,,,,,2,,58,0
45886,note_on,22,0,1,,,,,,,,,,0,,77,0
45886,note_on,0,0,2,,,,,,,,,,1,,74,0
45888,note_on,2,0,2,,,,,,,,,,1,,70,110
45888,note_on,0,0,2,,,,,,,,,,1,,74,110
45888,note_on,2,0,1,,,,,,,,,,0,,82,110
45888,note_on,2,0,3,,,,,,,,,,2,,58,75
45934,note_on,46,0,1,,,,,,,,,,0,,82,0
45936,note_on,2,0,1,,,,,,,,,,0,,77,110
45958,note_on,22,0,1,,,,,,,,,,0,,77,0
45960,note_on,2,0,1,,,,,,,,,,0,,79,110
45982,note_on,22,0,1,,,,,,,,,,0,,79,0
45982,note_on,94,0,3,,,,,,,,,,2,,58,0
45982,note_on,94,0,2,,,,,,,,,,1,,70,0
45982,note_on,0,0,2,,,,,,,,,,1,,74,0
45984,note_on,0,0,2,,,,,,,,,,1,,74,110
45984,note_on,2,0,2,,,,,,,,,,1,,70,110
45984,note_on,2,0,1,,,,,,,,,,0,,81,110
45984,note_on,2,0,3,,,,,,,,,,2,,58,75
46030,note_on,46,0,1,,,,,,,,,,0,,81,0
46032,note_on,2,0,1,,,,,,,,,,0,,79,110
46054,note_on,22,0,1,,,,,,,,,,0,,79,0
46056,note_on,2,0,1,,,,,,,,,,0,,77,110
46078,note_on,94,0,2,,,,,,,,,,1,,70,0
46078,note_on,94,0,3,,,,,,,,,,2,,58,0
46078,note_on,22,0,1,,,,,,,,,,0,,77,0
46078,note_on,0,0,2,,,,,,,,,,1,,74,0
46080,note_on,386,0,4,,,,,,,,,,5,,64,75
46080,note_on,2,0,1,,,,,,,,,,0,,76,110
46080,note_on,0,0,1,,,,,,,,,,0,,79,110
46080,note_on,2,0,2,,,,,,,,,,1,,71,110
46126,note_on,46,0,2,,,,,,,,,,1,,71,0
46128,note_on,2,0,2,,,,,,,,,,1,,71,110
46150,note_on,22,0,2,,,,,,,,,,1,,71,0
46152,note_on,2,0,2,,,,,,,,,,1,,73,110
46174,note_on,94,0,4,,,,,,,,,,5,,64,0
46174,note_on,94,0,1,,,,,,,,,,0,,76,0
46174,note_on,0,0,1,,,,,,,,,,0,,79,0
46174,note_on,22,0,2,,,,,,,,,,1,,73,0
46176,note_on,2,0,4,,,,,,,,,,5,,64,75
46176,note_on,2,0,1,,,,,,,,,,0,,76,110
46176,note_on,2,0,2,,,,,,,,,,1,,74,110
46176,note_on,0,0,1,,,,,,,,,,0,,79,110
46222,note_on,46,0,2,,,,,,,,,,1,,74,0
46224,note_on,2,0,2,,,,,,,,,,1,,73,110
46246,note_on,22,0,2,,,,,,,,,,1,,73,0
46248,note_on,2,0,2,,,,,,,,,,1,,71,110
46270,note_on,94,0,1,,,,,,,,,,0,,76,0
46270,note_on,0,0,1,,,,,,,,,,0,,79,0
46270,note_on,94,0,4,,,,,,,,,,5,,64,0
46270,note_on,22,0,2,,,,,,,,,,1,,71,0
46272,note_on,2,0,1,,,,,,,,,,0,,76,110
46272,note_on,0,0,1,,,,,,,,,,0,,79,110
46272,note_on,2,0,4,,,,,,,,,,5,,64,75
46272,note_on,2,0,2,,,,,,,,,,1,,76,110
46318,note_on,46,0,2,,,,,,,,,,1,,76,0
46320,note_on,2,0,2,,,,,,,,,,1,,71,110
46342,note_on,22,0,2,,,,,,,,,,1,,71,0
46344,note_on,2,0,2,,,,,,,,,,1,,73,110
46366,note_on,0,0,1,,,,,,,,,,0,,79,0
46366,note_on,94,0,1,,,,,,,,,,0,,76,0
46366,note_on,94,0,4,,,,,,,,,,5,,64,0
46366,note_on,22,0,2,,,,,,,,,,1,,73,0
46368,note_on,2,0,4,,,,,,,,,,5,,64,75
46368,note_on,0,0,1,,,,,,,,,,0,,79,110
46368,note_on,2,0,2,,,,,,,,,,1,,74,110
46368,note_on,2,0,1,,,,,,,,,,0,,76,110
46414,note_on,46,0,2,,,,,,,,,,1,,74,0
46416,note_on,2,0,2,,,,,,,,,,1,,73,110
46438,note_on,22,0,2,,,,,,,,,,1,,73,0
46440,note_on,2,0,2,,,,,,,,,,1,,71,110
46462,note_on,0,0,1,,,,,,,,,,0,,79,0
46462,note_on,94,0,1,,,,,,,,,,0,,76,0
46462,note_on,22,0,2,,,,,,,,,,1,,71,0
46462,note_on,94,0,4,,,,,,,,,,5,,64,0
46464,note_on,2,0,1,,,,,,,,,,0,,76,110
46464,note_on,2,0,2,,,,,,,,,,1,,69,110
46464,note_on,0,0,2,,,,,,,,,,1,,73,110
46464,note_on,386,0,3,,,,,,,,,,2,,57,75
46510,note_on,46,0,1,,,,,,,,,,0,,76,0
46512,note_on,2,0,1,,,,,,,,,,0,,76,110
46534,note_on,22,0,1,,,,,,,,,,0,,76,0
46536,note_on,2,0,1,,,,,,,,,,0,,77,110
46558,note_on,94,0,2,,,,,,,,,,1,,69,0
46558,note_on,0,0,2,,,,,,,,,,1,,73,0
46558,note_on,22,0,1,,,,,,,,,,0,,77,0
46558,note_on,94,0,3,,,,,,,,,,2,,57,0
46560,note_on,2,0,1,,,,,,,,,,0,,79,110
46560,note_on,2,0,3,,,,,,,,,,2,,57,75
46560,note_on,2,0,2,,,,,,,,,,1,,69,110
46560,note_on,0,0,2,,,,,,,,,,1,,73,110
46606,note_on,46,0,1,,,,,,,,,,0,,79,0
46608,note_on,2,0,1,,,,,,,,,,0,,77,110
46630,note_on,22,0,1,,,,,,,,,,0,,77,0
46632,note_on,2,0,1,,,,,,,,,,0,,76,110
46654,note_on,22,0,1,,,,,,,,,,0,,76,0
46654,note_on,94,0,3,,,,,,,,,,2,,57,0
46654,note_on,94,0,2,,,,,,,,,,1,,69,0
46654,note_on,0,0,2,,,,,,,,,,1,,73,0
46656,note_on,2,0,2,,,,,,,,,,1,,69,110
46656,note_on,2,0,3,,,,,,,,,,2,,57,75
46656,note_on,0,0,2,,,,,,,,,,1,,73,110
46656,note_on,2,0,1,,,,,,,,,,0,,81,110
46702,note_on,46,0,1,,,,,,,,,,0,,81,0
46704,note_on,2,0,1,,,,,,,,,,0,,76,110
46726,note_on,22,0,1,,,,,,,,,,0,,76,0
46728,note_on,2,0,1,,,,,,,,,,0,,77,110
46750,note_on,94,0,3,,,,,,,,,,2,,57,0
46750,note_on,22,0,1,,,,,,,,,,0,,77,0
46750,note_on,0,0,2,,,,,,,,,,1,,73,0
46750,note_on,94,0,2,,,,,,,,,,1,,69,0
46752,note_on,0,0,2,,,,,,,,,,1,,73,110
46752,note_on,2,0,2,,,,,,,,,,1,,69,110
46752,note_on,2,0,1,,,,,,,,,,0,,79,110
46752,note_on,2,0,3,,,,,,,,,,2,,57,75
46798,note_on,46,0,1,,,,,,,,,,0,,79,0
46800,note_on,2,0,1,,,,,,,,,,0,,77,110
46822,note_on,22,0,1,,,,,,,,,,0,,77,0
46824,note_on,2,0,1,,,,,,,,,,0,,76,110
46846,note_on,94,0,2,,,,,,,,,,1,,69,0
46846,note_on,22,0,1,,,,,,,,,,0,,76,0
46846,note_on,94,0,3,,,,,,,,,,2,,57,0
46846,note_on,0,0,2,,,,,,,,,,1,,73,0
46848,note_on,0,0,4,,,,,,,,,,5,,62,75
46848,note_on,2,0,1,,,,,,,,,,0,,77,110
46848,note_on,2,0,3,,,,,,,,,,2,,62,75
46848,note_on,2,0,2,,,,,,,,,,1,,74,110
46848,control_change,386,0,4,,,,,,,,10,127,5,,,
46894,note_on,46,0,2,,,,,,,,,,1,,74,0
46896,note_on,2,0,2,,,,,,,,,,1,,74,110
46918,note_on,22,0,2,,,,,,,,,,1,,74,0
46920,note_on,2,0,2,,,,,,,,,,1,,76,110
46942,note_on,22,0,2,,,,,,,,,,1,,76,0
46942,note_on,94,0,4,,,,,,,,,,5,,62,0
46942,note_on,94,0,3,,,,,,,,,,2,,62,0
46944,note_on,2,0,4,,,,,,,,,,5,,62,75
46944,note_on,2,0,3,,,,,,,,,,2,,62,75
46944,note_on,2,0,2,,,,,,,,,,1,,77,110
46990,note_on,46,0,2,,,,,,,,,,1,,77,0
46992,note_on,2,0,2,,,,,,,,,,1,,76,110
47008,note_on,160,0,1,,,,,,,,,,0,,77,0
47014,note_on,22,0,2,,,,,,,,,,1,,76,0
47016,note_on,2,0,2,,,,,,,,,,1,,74,110
47038,note_on,22,0,2,,,,,,,,,,1,,74,0
47038,note_on,94,0,4,,,,,,,,,,5,,62,0
47038,note_on,94,0,3,,,,,,,,,,2,,62,0
47040,note_on,2,0,3,,,,,,,,,,2,,65,75
47040,note_on,2,0,4,,,,,,,,,,5,,65,75
47040,note_on,2,0,2,,,,,,,,,,1,,81,110
47086,note_on,46,0,2,,,,,,,,,,1,,81,0
47088,note_on,2,0,2,,,,,,,,,,1,,74,110
47110,note_on,22,0,2,,,,,,,,,,1,,74,0
47112,note_on,2,0,2,,,,,,,,,,1,,76,110
47134,note_on,22,0,2,,,,,,,,,,1,,76,0
47134,note_on,94,0,3,,,,,,,,,,2,,65,0
47134,note_on,94,0,4,,,,,,,,,,5,,65,0
47136,note_on,2,0,3,,,,,,,,,,2,,62,75
47136,note_on,2,0,4,,,,,,,,,,5,,62,75
47136,note_on,2,0,2,,,,,,,,,,1,,77,110
47182,note_on,46,0,2,,,,,,,,,,1,,77,0
47184,note_on,2,0,2,,,,,,,,,,1,,76,110
47206,note_on,22,0,2,,,,,,,,,,1,,76,0
47208,note_on,2,0,2,,,,,,,,,,1,,74,110
47230,note_on,94,0,4,,,,,,,,,,5,,62,0
47230,note_on,94,0,3,,,,,,,,,,2,,62,0
47230,note_on,22,0,2,,,,,,,,,,1,,74,0
47232,note_on,224,0,1,,,,,,,,,,0,,74,110
47232,note_on,2,0,2,,,,,,,,,,1,,81,110
47232,control_change,2,0,4,,,,,,,,10,0,5,,,
47232,control_change,2,0,3,,,,,,,,10,0,2,,,
47278,note_on,46,0,1,,,,,,,,,,0,,74,0
47280,note_on,2,0,1,,,,,,,,,,0,,74,110
47302,note_on,22,0,1,,,,,,,,,,0,,74,0
47304,note_on,2,0,1,,,,,,,,,,0,,76,110
47326,note_on,22,0,1,,,,,,,,,,0,,76,0
47328,note_on,96,0,4,,,,,,,,,,5,,62,75
47328,note_on,2,0,1,,,,,,,,,,0,,77,110
47328,note_on,96,0,3,,,,,,,,,,2,,62,75
47374,note_on,46,0,1,,,,,,,,,,0,,77,0
47376,note_on,2,0,1,,,,,,,,,,0,,76,110
47392,note_on,160,0,2,,,,,,,,,,1,,81,0
47398,note_on,22,0,1,,,,,,,,,,0,,76,0
47400,note_on,2,0,1,,,,,,,,,,0,,74,110
47422,note_on,94,0,4,,,,,,,,,,5,,62,0
47422,note_on,22,0,1,,,,,,,,,,0,,74,0
47422,note_on,94,0,3,,,,,,,,,,2,,62,0
47424,note_on,2,0,1,,,,,,,,,,0,,81,110
47424,note_on,2,0,4,,,,,,,,,,5,,65,75
47424,note_on,2,0,3,,,,,,,,,,2,,65,75
47470,note_on,46,0,1,,,,,,,,,,0,,81,0
47472,note_on,2,0,1,,,,,,,,,,0,,74,110
47494,note_on,22,0,1,,,,,,,,,,0,,74,0
47496,note_on,2,0,1,,,,,,,,,,0,,76,110
47518,note_on,94,0,4,,,,,,,,,,5,,65,0
47518,note_on,94,0,3,,,,,,,,,,2,,65,0
47518,note_on,22,0,1,,,,,,,,,,0,,76,0
47520,note_on,2,0,1,,,,,,,,,,0,,77,110
47520,note_on,2,0,3,,,,,,,,,,2,,62,75
47520,note_on,2,0,4,,,,,,,,,,5,,62,75
47566,note_on,46,0,1,,,,,,,,,,0,,77,0
47568,note_on,2,0,1,,,,,,,,,,0,,76,110
47590,note_on,22,0,1,,,,,,,,,,0,,76,0
47592,note_on,2,0,1,,,,,,,,,,0,,74,110
47614,note_on,94,0,4,,,,,,,,,,5,,62,0
47614,note_on,94,0,3,,,,,,,,,,2,,62,0
47614,note_on,22,0,1,,,,,,,,,,0,,74,0
47616,note_on,2,0,1,,,,,,,,,,0,,81,110
47710,note_on,94,0,1,,,,,,,,,,0,,81,0
47712,note_on,98,0,3,,,,,,,,,,2,,66,75
47712,note_on,2,0,1,,,,,,,,,,0,,81,110
47712,note_on,98,0,4,,,,,,,,,,5,,66,75
47758,note_on,46,0,1,,,,,,,,,,0,,81,0
47760,note_on,2,0,1,,,,,,,,,,0,,72,110
47806,note_on,94,0,4,,,,,,,,,,5,,66,0
47806,note_on,94,0,3,,,,,,,,,,2,,66,0
47806,note_on,46,0,1,,,,,,,,,,0,,72,0
47808,note_on,2,0,4,,,,,,,,,,5,,67,75
47808,note_on,2,0,3,,,,,,,,,,2,,67,75
47808,note_on,2,0,1,,,,,,,,,,0,,70,110
47902,note_on,94,0,3,,,,,,,,,,2,,67,0
47902,note_on,94,0,1,,,,,,,,,,0,,70,0
47902,note_on,94,0,4,,,,,,,,,,5,,67,0
47904,note_on,2,0,3,,,,,,,,,,2,,64,75
47904,note_on,2,0,4,,,,,,,,,,5,,64,75
47904,note_on,2,0,1,,,,,,,,,,0,,79,110
47950,note_on,46,0,1,,,,,,,,,,0,,79,0
47952,note_on,2,0,1,,,,,,,,,,0,,70,110
47998,note_on,94,0,4,,,,,,,,,,5,,64,0
47998,note_on,94,0,3,,,,,,,,,,2,,64,0
47998,note_on,46,0,1,,,,,,,,,,0,,70,0
48000,note_on,2,0,1,,,,,,,,,,0,,69,110
48000,note_on,2,0,4,,,,,,,,,,5,,65,75
48000,note_on,2,0,3,,,,,,,,,,2,,65,75
48094,note_on,94,0,4,,,,,,,,,,5,,65,0
48094,note_on,94,0,3,,,,,,,,,,2,,65,0
48094,note_on,94,0,1,,,,,,,,,,0,,69,0
48096,note_on,2,0,1,,,,,,,,,,0,,77,110
48096,note_on,2,0,3,,,,,,,,,,2,,62,75
48096,note_on,2,0,4,,,,,,,,,,5,,62,75
48142,note_on,46,0,1,,,,,,,,,,0,,77,0
48144,note_on,2,0,1,,,,,,,,,,0,,69,110
48190,note_on,94,0,4,,,,,,,,,,5,,62,0
48190,note_on,94,0,3,,,,,,,,,,2,,62,0
48190,note_on,46,0,1,,,,,,,,,,0,,69,0
48192,note_on,2,0,3,,,,,,,,,,2,,64,75
48192,note_on,2,0,4,,,,,,,,,,5,,64,75
48192,note_on,2,0,1,,,,,,,,,,0,,67,110
48286,note_on,94,0,3,,,,,,,,,,2,,64,0
48286,note_on,94,0,1,,,,,,,,,,0,,67,0
48286,note_on,94,0,4,,,,,,,,,,5,,64,0
48288,note_on,2,0,3,,,,,,,,,,2,,61,75
48288,note_on,2,0,1,,,,,,,,,,0,,76,110
48288,note_on,2,0,4,,,,,,,,,,5,,61,75
48334,note_on,46,0,1,,,,,,,,,,0,,76,0
48336,note_on,2,0,1,,,,,,,,,,0,,67,110
48382,note_on,94,0,4,,,,,,,,,,5,,61,0
48382,note_on,94,0,3,,,,,,,,,,2,,61,0
48382,note_on,46,0,1,,,,,,,,,,0,,67,0
48384,note_on,2,0,1,,,,,,,,,,0,,65,110
48384,control_change,2,0,3,,,,,,,,10,127,2,,,
48384,control_change,2,0,4,,,,,,,,10,127,5,,,
48384,note_on,0,0,4,,,,,,,,,,5,,62,75
48384,note_on,992,0,2,,,,,,,,,,1,,74,110
48384,note_on,0,0,3,,,,,,,,,,2,,62,75
48430,note_on,46,0,2,,,,,,,,,,1,,74,0
48432,note_on,2,0,2,,,,,,,,,,1,,74,110
48454,note_on,22,0,2,,,,,,,,,,1,,74,0
48456,note_on,2,0,2,,,,,,,,,,1,,76,110
48478,note_on,94,0,4,,,,,,,,,,5,,62,0
48478,note_on,94,0,3,,,,,,,,,,2,,62,0
48478,note_on,22,0,2,,,,,,,,,,1,,76,0
48480,note_on,2,0,3,,,,,,,,,,2,,64,75
48480,note_on,2,0,4,,,,,,,,,,5,,64,75
48480,note_on,2,0,2,,,,,,,,,,1,,77,110
48526,note_on,46,0,2,,,,,,,,,,1,,77,0
48528,note_on,2,0,2,,,,,,,,,,1,,76,110
48544,note_on,160,0,1,,,,,,,,,,0,,65,0
48550,note_on,22,0,2,,,,,,,,,,1,,76,0
48552,note_on,2,0,2,,,,,,,,,,1,,74,110
48574,note_on,22,0,2,,,,,,,,,,1,,74,0
48574,note_on,94,0,3,,,,,,,,,,2,,64,0
48574,note_on,94,0,4,,,,,,,,,,5,,64,0
48576,note_on,2,0,3,,,,,,,,,,2,,65,75
48576,note_on,2,0,4,,,,,,,,,,5,,65,75
48576,note_on,2,0,2,,,,,,,,,,1,,81,110
48622,note_on,46,0,2,,,,,,,,,,1,,81,0
48624,note_on,2,0,2,,,,,,,,,,1,,74,110
48646,note_on,22,0,2,,,,,,,,,,1,,74,0
48648,note_on,2,0,2,,,,,,,,,,1,,76,110
48670,note_on,94,0,4,,,,,,,,,,5,,65,0
48670,note_on,22,0,2,,,,,,,,,,1,,76,0
48670,note_on,94,0,3,,,,,,,,,,2,,65,0
48672,note_on,2,0,3,,,,,,,,,,2,,62,75
48672,note_on,2,0,4,,,,,,,,,,5,,62,75
48672,note_on,2,0,2,,,,,,,,,,1,,77,110
48718,note_on,46,0,2,,,,,,,,,,1,,77,0
48720,note_on,2,0,2,,,,,,,,,,1,,76,110
48742,note_on,22,0,2,,,,,,,,,,1,,76,0
48744,note_on,2,0,2,,,,,,,,,,1,,74,110
48766,note_on,94,0,4,,,,,,,,,,5,,62,0
48766,note_on,22,0,2,,,,,,,,,,1,,74,0
48766,note_on,94,0,3,,,,,,,,,,2,,62,0
48768,note_on,2,0,2,,,,,,,,,,1,,81,110
48816,note_on,272,0,1,,,,,,,,,,0,,81,110
48862,note_on,46,0,1,,,,,,,,,,0,,81,0
48864,note_on,0,0,4,,,,,,,,,,5,,74,75
48864,control_change,98,0,4,,,,,,,,10,0,5,,,
48864,note_on,2,0,1,,,,,,,,,,0,,78,110
48864,control_change,98,0,3,,,,,,,,10,0,2,,,
48864,note_on,0,0,3,,,,,,,,,,2,,74,75
48928,note_on,160,0,2,,,,,,,,,,1,,81,0
48958,note_on,94,0,4,,,,,,,,,,5,,74,0
48958,note_on,94,0,1,,,,,,,,,,0,,78,0
48958,note_on,94,0,3,,,,,,,,,,2,,74,0
48960,note_on,2,0,4,,,,,,,,,,5,,67,75
48960,note_on,2,0,3,,,,,,,,,,2,,67,75
48960,note_on,2,0,1,,,,,,,,,,0,,79,110
49006,note_on,46,0,1,,,,,,,,,,0,,79,0
49008,note_on,2,0,1,,,,,,,,,,0,,82,110
49054,note_on,94,0,3,,,,,,,,,,2,,67,0
49054,note_on,94,0,4,,,,,,,,,,5,,67,0
49054,note_on,46,0,1,,,,,,,,,,0,,82,0
49056,note_on,2,0,3,,,,,,,,,,2,,72,75
49056,note_on,2,0,1,,,,,,,,,,0,,76,110
49056,note_on,2,0,4,,,,,,,,,,5,,72,75
49150,note_on,94,0,3,,,,,,,,,,2,,72,0
49150,note_on,94,0,1,,,,,,,,,,0,,76,0
49150,note_on,94,0,4,,,,,,,,,,5,,72,0
49152,note_on,2,0,1,,,,,,,,,,0,,77,110
49152,note_on,2,0,4,,,,,,,,,,5,,65,75
49152,note_on,2,0,3,,,,,,,,,,2,,65,75
49198,note_on,46,0,1,,,,,,,,,,0,,77,0
49200,note_on,2,0,1,,,,,,,,,,0,,81,110
49246,note_on,46,0,1,,,,,,,,,,0,,81,0
49246,note_on,94,0,4,,,,,,,,,,5,,65,0
49246,note_on,94,0,3,,,,,,,,,,2,,65,0
49248,note_on,2,0,4,,,,,,,,,,5,,70,75
49248,note_on,2,0,1,,,,,,,,,,0,,74,110
49248,note_on,2,0,3,,,,,,,,,,2,,70,75
49342,note_on,94,0,1,,,,,,,,,,0,,74,0
49342,note_on,94,0,4,,,,,,,,,,5,,70,0
49342,note_on,94,0,3,,,,,,,,,,2,,70,0
49344,note_on,2,0,3,,,,,,,,,,2,,64,75
49344,note_on,2,0,1,,,,,,,,,,0,,76,110
49344,note_on,2,0,4,,,,,,,,,,5,,64,75
49390,note_on,46,0,1,,,,,,,,,,0,,76,0
49392,note_on,2,0,1,,,,,,,,,,0,,79,110
49438,note_on,46,0,1,,,,,,,,,,0,,79,0
49438,note_on,94,0,4,,,,,,,,,,5,,64,0
49438,note_on,94,0,3,,,,,,,,,,2,,64,0
49440,note_on,2,0,4,,,,,,,,,,5,,69,75
49440,note_on,2,0,1,,,,,,,,,,0,,73,110
49440,note_on,2,0,3,,,,,,,,,,2,,69,75
49534,note_on,94,0,4,,,,,,,,,,5,,69,0
49534,note_on,94,0,1,,,,,,,,,,0,,73,0
49534,note_on,94,0,3,,,,,,,,,,2,,69,0
49536,note_on,2,0,1,,,,,,,,,,0,,74,110
49536,control_change,2,0,4,,,,,,,,10,127,5,,,
49536,control_change,2,0,3,,,,,,,,10,127,2,,,
49536,note_on,0,0,3,,,,,,,,,,2,,62,75
49536,note_on,0,0,4,,,,,,,,,,5,,62,75
49584,note_on,656,0,2,,,,,,,,,,1,,81,110
49606,note_on,22,0,2,,,,,,,,,,1,,81,0
49608,note_on,2,0,2,,,,,,,,,,1,,79,110
49630,note_on,22,0,2,,,,,,,,,,1,,79,0
49630,note_on,94,0,3,,,,,,,,,,2,,62,0
49630,note_on,94,0,4,,,,,,,,,,5,,62,0
49632,note_on,2,0,2,,,,,,,,,,1,,77,110
49632,note_on,2,0,3,,,,,,,,,,2,,62,75
49632,note_on,2,0,4,,,,,,,,,,5,,62,75
49678,note_on,46,0,2,,,,,,,,,,1,,77,0
49680,note_on,2,0,2,,,,,,,,,,1,,77,110
49696,note_on,160,0,1,,,,,,,,,,0,,74,0
49702,note_on,22,0,2,,,,,,,,,,1,,77,0
49704,note_on,2,0,2,,,,,,,,,,1,,76,110
49726,note_on,22,0,2,,,,,,,,,,1,,76,0
49726,note_on,94,0,4,,,,,,,,,,5,,62,0
49726,note_on,94,0,3,,,,,,,,,,2,,62,0
49728,note_on,2,0,2,,,,,,,,,,1,,74,110
49728,note_on,2,0,3,,,,,,,,,,2,,58,75
49728,note_on,2,0,4,,,,,,,,,,5,,58,75
49774,note_on,46,0,2,,,,,,,,,,1,,74,0
49776,note_on,2,0,2,,,,,,,,,,1,,74,110
49798,note_on,22,0,2,,,,,,,,,,1,,74,0
49800,note_on,2,0,2,,,,,,,,,,1,,72,110
49822,note_on,94,0,3,,,,,,,,,,2,,58,0
49822,note_on,22,0,2,,,,,,,,,,1,,72,0
49822,note_on,94,0,4,,,,,,,,,,5,,58,0
49824,note_on,2,0,2,,,,,,,,,,1,,70,110
49824,note_on,2,0,4,,,,,,,,,,5,,55,75
49824,note_on,2,0,3,,,,,,,,,,2,,55,75
49870,note_on,46,0,2,,,,,,,,,,1,,70,0
49872,note_on,2,0,2,,,,,,,,,,1,,70,110
49894,note_on,22,0,2,,,,,,,,,,1,,70,0
49896,note_on,2,0,2,,,,,,,,,,1,,69,110
49918,note_on,94,0,4,,,,,,,,,,5,,55,0
49918,note_on,94,0,3,,,,,,,,,,2,,55,0
49918,note_on,22,0,2,,,,,,,,,,1,,69,0
49920,note_on,2,0,2,,,,,,,,,,1,,67,110
49966,note_on,46,0,2,,,,,,,,,,1,,67,0
49968,note_on,2,0,2,,,,,,,,,,1,,82,110
49990,note_on,22,0,2,,,,,,,,,,1,,82,0
49992,note_on,2,0,2,,,,,,,,,,1,,81,110
50014,note_on,22,0,2,,,,,,,,,,1,,81,0
50016,note_on,2,0,2,,,,,,,,,,1,,79,110
50016,note_on,98,0,4,,,,,,,,,,5,,64,75
50016,note_on,98,0,3,,,,,,,,,,2,,64,75
50062,note_on,46,0,2,,,,,,,,,,1,,79,0
50064,note_on,2,0,2,,,,,,,,,,1,,79,110
50086,note_on,22,0,2,,,,,,,,,,1,,79,0
50088,note_on,2,0,2,,,,,,,,,,1,,77,110
50110,note_on,22,0,2,,,,,,,,,,1,,77,0
50110,note_on,94,0,4,,,,,,,,,,5,,64,0
50110,note_on,94,0,3,,,,,,,,,,2,,64,0
50112,note_on,2,0,4,,,,,,,,,,5,,60,75
50112,note_on,2,0,2,,,,,,,,,,1,,76,110
50112,note_on,2,0,3,,,,,,,,,,2,,60,75
50158,note_on,46,0,2,,,,,,,,,,1,,76,0
50160,note_on,2,0,2,,,,,,,,,,1,,76,110
50182,note_on,22,0,2,,,,,,,,,,1,,76,0
50184,note_on,2,0,2,,,,,,,,,,1,,74,110
50206,note_on,94,0,3,,,,,,,,,,2,,60,0
50206,note_on,94,0,4,,,,,,,,,,5,,60,0
50206,note_on,22,0,2,,,,,,,,,,1,,74,0
50208,note_on,2,0,3,,,,,,,,,,2,,57,75
50208,note_on,2,0,4,,,,,,,,,,5,,57,75
50208,note_on,2,0,2,,,,,,,,,,1,,72,110
50254,note_on,46,0,2,,,,,,,,,,1,,72,0
50256,note_on,2,0,2,,,,,,,,,,1,,72,110
50278,note_on,22,0,2,,,,,,,,,,1,,72,0
50280,note_on,2,0,2,,,,,,,,,,1,,70,110
50302,note_on,94,0,4,,,,,,,,,,5,,57,0
50302,note_on,22,0,2,,,,,,,,,,1,,70,0
50302,note_on,94,0,3,,,,,,,,,,2,,57,0
50304,note_on,2,0,2,,,,,,,,,,1,,69,110
50350,note_on,46,0,2,,,,,,,,,,1,,69,0
50352,note_on,2,0,2,,,,,,,,,,1,,84,110
50374,note_on,22,0,2,,,,,,,,,,1,,84,0
50376,note_on,2,0,2,,,,,,,,,,1,,82,110
50398,note_on,22,0,2,,,,,,,,,,1,,82,0
50400,note_on,2,0,2,,,,,,,,,,1,,81,110
50400,note_on,98,0,3,,,,,,,,,,2,,65,75
50400,note_on,98,0,4,,,,,,,,,,5,,65,75
50446,note_on,46,0,2,,,,,,,,,,1,,81,0
50448,note_on,2,0,2,,,,,,,,,,1,,81,110
50470,note_on,22,0,2,,,,,,,,,,1,,81,0
50472,note_on,2,0,2,,,,,,,,,,1,,79,110
50494,note_on,22,0,2,,,,,,,,,,1,,79,0
50494,note_on,94,0,3,,,,,,,,,,2,,65,0
50494,note_on,94,0,4,,,,,,,,,,5,,65,0
50496,note_on,2,0,3,,,,,,,,,,2,,62,75
50496,note_on,2,0,2,,,,,,,,,,1,,77,110
50496,note_on,2,0,4,,,,,,,,,,5,,62,75
50542,note_on,46,0,2,,,,,,,,,,1,,77,0
50544,note_on,2,0,2,,,,,,,,,,1,,77,110
50566,note_on,22,0,2,,,,,,,,,,1,,77,0
50568,note_on,2,0,2,,,,,,,,,,1,,76,110
50590,note_on,94,0,3,,,,,,,,,,2,,62,0
50590,note_on,22,0,2,,,,,,,,,,1,,76,0
50590,note_on,94,0,4,,,,,,,,,,5,,62,0
50592,note_on,2,0,3,,,,,,,,,,2,,58,75
50592,note_on,2,0,4,,,,,,,,,,5,,58,75
50592,note_on,2,0,2,,,,,,,,,,1,,74,110
50638,note_on,46,0,2,,,,,,,,,,1,,74,0
50640,note_on,2,0,2,,,,,,,,,,1,,74,110
50662,note_on,22,0,2,,,,,,,,,,1,,74,0
50664,note_on,2,0,2,,,,,,,,,,1,,72,110
50686,note_on,94,0,3,,,,,,,,,,2,,58,0
50686,note_on,22,0,2,,,,,,,,,,1,,72,0
50686,note_on,94,0,4,,,,,,,,,,5,,58,0
50688,note_on,2,0,2,,,,,,,,,,1,,70,110
50734,note_on,46,0,2,,,,,,,,,,1,,70,0
50736,note_on,2,0,2,,,,,,,,,,1,,82,110
50758,note_on,22,0,2,,,,,,,,,,1,,82,0
50760,note_on,2,0,2,,,,,,,,,,1,,81,110
50782,note_on,22,0,2,,,,,,,,,,1,,81,0
50784,note_on,98,0,3,,,,,,,,,,2,,67,75
50784,note_on,98,0,4,,,,,,,,,,5,,67,75
50784,note_on,2,0,2,,,,,,,,,,1,,79,110
50830,note_on,46,0,2,,,,,,,,,,1,,79,0
50832,note_on,2,0,2,,,,,,,,,,1,,79,110
50854,note_on,22,0,2,,,,,,,,,,1,,79,0
50856,note_on,2,0,2,,,,,,,,,,1,,77,110
50878,note_on,22,0,2,,,,,,,,,,1,,77,0
50878,note_on,94,0,4,,,,,,,,,,5,,67,0
50878,note_on,94,0,3,,,,,,,,,,2,,67,0
50880,note_on,2,0,2,,,,,,,,,,1,,76,110
50880,note_on,2,0,4,,,,,,,,,,5,,64,75
50880,note_on,2,0,3,,,,,,,,,,2,,64,75
50926,note_on,46,0,2,,,,,,,,,,1,,76,0
50928,note_on,2,0,2,,,,,,,,,,1,,76,110
50950,note_on,22,0,2,,,,,,,,,,1,,76,0
50952,note_on,2,0,2,,,,,,,,,,1,,74,110
50974,note_on,94,0,3,,,,,,,,,,2,,64,0
50974,note_on,22,0,2,,,,,,,,,,1,,74,0
50974,note_on,94,0,4,,,,,,,,,,5,,64,0
50976,note_on,2,0,3,,,,,,,,,,2,,60,75
50976,note_on,2,0,4,,,,,,,,,,5,,60,75
50976,note_on,2,0,2,,,,,,,,,,1,,72,110
51022,note_on,46,0,2,,,,,,,,,,1,,72,0
51024,note_on,2,0,2,,,,,,,,,,1,,72,110
51046,note_on,22,0,2,,,,,,,,,,1,,72,0
51048,note_on,2,0,2,,,,,,,,,,1,,70,110
51070,note_on,22,0,2,,,,,,,,,,1,,70,0
51070,note_on,94,0,4,,,,,,,,,,5,,60,0
51070,note_on,94,0,3,,,,,,,,,,2,,60,0
51072,note_on,2,0,4,,,,,,,,,,5,,65,75
51072,note_on,2,0,3,,,,,,,,,,2,,65,75
51072,note_on,2,0,2,,,,,,,,,,1,,69,110
51120,note_on,1424,0,1,,,,,,,,,,0,,65,110
51120,note_on,0,0,1,,,,,,,,,,0,,72,110
51166,note_on,46,0,1,,,,,,,,,,0,,65,0
51166,note_on,0,0,1,,,,,,,,,,0,,72,0
51168,note_on,0,0,1,,,,,,,,,,0,,70,110
51168,note_on,2,0,1,,,,,,,,,,0,,65,110
51232,note_on,160,0,2,,,,,,,,,,1,,69,0
51262,note_on,0,0,1,,,,,,,,,,0,,70,0
51262,note_on,94,0,1,,,,,,,,,,0,,65,0
51264,note_on,0,0,1,,,,,,,,,,0,,69,110
51264,note_on,2,0,1,,,,,,,,,,0,,65,110
51310,note_on,0,0,1,,,,,,,,,,0,,69,0
51310,note_on,46,0,1,,,,,,,,,,0,,65,0
51312,note_on,0,0,1,,,,,,,,,,0,,72,110
51312,note_on,2,0,1,,,,,,,,,,0,,65,110
51358,note_on,46,0,1,,,,,,,,,,0,,65,0
51358,note_on,0,0,1,,,,,,,,,,0,,72,0
51360,note_on,2,0,1,,,,,,,,,,0,,65,110
51360,note_on,0,0,1,,,,,,,,,,0,,70,110
51408,note_on,336,0,3,,,,,,,,,,2,,65,0
51408,note_on,336,0,4,,,,,,,,,,5,,65,0
51454,note_on,0,0,1,,,,,,,,,,0,,70,0
51454,note_on,94,0,1,,,,,,,,,,0,,65,0
51456,note_on,0,0,3,,,,,,,,,,2,,65,75
51456,control_change,48,0,3,,,,,,,,10,0,2,,,
51456,note_on,0,0,1,,,,,,,,,,0,,69,110
51456,note_on,0,0,4,,,,,,,,,,5,,65,75
51456,control_change,48,0,4,,,,,,,,10,0,5,,,
51456,note_on,2,0,1,,,,,,,,,,0,,65,110
51502,note_on,46,0,1,,,,,,,,,,0,,65,0
51502,note_on,0,0,1,,,,,,,,,,0,,69,0
51504,note_on,2,0,1,,,,,,,,,,0,,70,110
51526,note_on,22,0,1,,,,,,,,,,0,,70,0
51528,note_on,2,0,1,,,,,,,,,,0,,72,110
51550,note_on,22,0,1,,,,,,,,,,0,,72,0
51552,note_on,2,0,1,,,,,,,,,,0,,74,110
51574,note_on,22,0,1,,,,,,,,,,0,,74,0
51576,note_on,2,0,1,,,,,,,,,,0,,76,110
51598,note_on,22,0,1,,,,,,,,,,0,,76,0
51600,note_on,2,0,1,,,,,,,,,,0,,77,110
51616,note_on,160,0,4,,,,,,,,,,5,,65,0
51616,note_on,160,0,3,,,,,,,,,,2,,65,0
51622,note_on,22,0,1,,,,,,,,,,0,,77,0
51624,note_on,2,0,1,,,,,,,,,,0,,79,110
51646,note_on,22,0,1,,,,,,,,,,0,,79,0
51648,note_on,32,0,3,,,,,,,,,,2,,66,75
51648,note_on,2,0,1,,,,,,,,,,0,,81,110
51648,note_on,32,0,4,,,,,,,,,,5,,66,75
51694,note_on,46,0,1,,,,,,,,,,0,,81,0
51696,note_on,2,0,1,,,,,,,,,,0,,74,110
51742,note_on,94,0,4,,,,,,,,,,5,,66,0
51742,note_on,46,0,1,,,,,,,,,,0,,74,0
51742,note_on,94,0,3,,,,,,,,,,2,,66,0
51744,note_on,2,0,4,,,,,,,,,,5,,66,75
51744,note_on,2,0,1,,,,,,,,,,0,,74,110
51744,note_on,2,0,3,,,,,,,,,,2,,66,75
51766,note_on,22,0,1,,,,,,,,,,0,,74,0
51768,note_on,2,0,1,,,,,,,,,,0,,72,110
51790,note_on,22,0,1,,,,,,,,,,0,,72,0
51792,note_on,2,0,1,,,,,,,,,,0,,74,110
51814,note_on,22,0,1,,,,,,,,,,0,,74,0
51816,note_on,2,0,1,,,,,,,,,,0,,72,110
51838,note_on,94,0,3,,,,,,,,,,2,,66,0
51838,note_on,22,0,1,,,,,,,,,,0,,72,0
51838,note_on,94,0,4,,,,,,,,,,5,,66,0
51840,note_on,2,0,4,,,,,,,,,,5,,67,75
51840,note_on,2,0,3,,,,,,,,,,2,,67,75
51840,note_on,2,0,1,,,,,,,,,,0,,74,110
51862,note_on,22,0,1,,,,,,,,,,0,,74,0
51864,note_on,2,0,1,,,,,,,,,,0,,72,110
51886,note_on,22,0,1,,,,,,,,,,0,,72,0
51888,note_on,2,0,1,,,,,,,,,,0,,74,110
51910,note_on,22,0,1,,,,,,,,,,0,,74,0
51912,note_on,2,0,1,,,,,,,,,,0,,72,110
51934,note_on,22,0,1,,,,,,,,,,0,,72,0
51936,note_on,2,0,1,,,,,,,,,,0,,71,110
51958,note_on,22,0,1,,,,,,,,,,0,,71,0
51960,note_on,2,0,1,,,,,,,,,,0,,72,110
51982,note_on,22,0,1,,,,,,,,,,0,,72,0
51984,note_on,2,0,1,,,,,,,,,,0,,74,110
52000,note_on,160,0,3,,,,,,,,,,2,,67,0
52000,note_on,160,0,4,,,,,,,,,,5,,67,0
52006,note_on,22,0,1,,,,,,,,,,0,,74,0
52008,note_on,2,0,1,,,,,,,,,,0,,76,110
52030,note_on,22,0,1,,,,,,,,,,0,,76,0
52032,note_on,32,0,3,,,,,,,,,,2,,68,75
52032,note_on,2,0,1,,,,,,,,,,0,,78,110
52032,note_on,32,0,4,,,,,,,,,,5,,68,75
52054,note_on,22,0,1,,,,,,,,,,0,,78,0
52056,note_on,2,0,1,,,,,,,,,,0,,80,110
52078,note_on,22,0,1,,,,,,,,,,0,,80,0
52080,note_on,2,0,1,,,,,,,,,,0,,81,110
52102,note_on,22,0,1,,,,,,,,,,0,,81,0
52104,note_on,2,0,1,,,,,,,,,,0,,83,110
52126,note_on,22,0,1,,,,,,,,,,0,,83,0
52126,note_on,94,0,3,,,,,,,,,,2,,68,0
52126,note_on,94,0,4,,,,,,,,,,5,,68,0
52128,note_on,2,0,3,,,,,,,,,,2,,68,75
52128,note_on,2,0,1,,,,,,,,,,0,,76,110
52128,note_on,2,0,4,,,,,,,,,,5,,68,75
52150,note_on,22,0,1,,,,,,,,,,0,,76,0
52152,note_on,2,0,1,,,,,,,,,,0,,74,110
52222,note_on,70,0,1,,,,,,,,,,0,,74,0
52222,note_on,94,0,3,,,,,,,,,,2,,68,0
52222,note_on,94,0,4,,,,,,,,,,5,,68,0
52224,note_on,2,0,1,,,,,,,,,,0,,69,110
52224,note_on,0,0,1,,,,,,,,,,0,,73,110
52224,note_on,2,0,3,,,,,,,,,,2,,69,75
52224,note_on,2,0,4,,,,,,,,,,5,,69,75
52272,note_on,1040,0,2,,,,,,,,,,1,,81,110
52318,note_on,46,0,2,,,,,,,,,,1,,81,0
52318,note_on,94,0,3,,,,,,,,,,2,,69,0
52318,note_on,94,0,4,,,,,,,,,,5,,69,0
52320,note_on,0,0,4,,,,,,,,,,5,,65,75
52320,note_on,0,0,3,,,,,,,,,,2,,65,75
52320,control_change,2,0,3,,,,,,,,10,127,2,,,
52320,control_change,2,0,4,,,,,,,,10,127,5,,,
52320,note_on,2,0,2,,,,,,,,,,1,,82,110
52366,note_on,46,0,2,,,,,,,,,,1,,82,0
52368,note_on,2,0,2,,,,,,,,,,1,,81,110
52384,note_on,160,0,1,,,,,,,,,,0,,69,0
52384,note_on,0,0,1,,,,,,,,,,0,,73,0
52414,note_on,46,0,2,,,,,,,,,,1,,81,0
52414,note_on,94,0,3,,,,,,,,,,2,,65,0
52414,note_on,94,0,4,,,,,,,,,,5,,65,0
52416,note_on,2,0,2,,,,,,,,,,1,,79,110
52416,note_on,2,0,4,,,,,,,,,,5,,64,75
52416,note_on,2,0,3,,,,,,,,,,2,,64,75
52462,note_on,46,0,2,,,,,,,,,,1,,79,0
52464,note_on,2,0,2,,,,,,,,,,1,,79,110
52510,note_on,94,0,4,,,,,,,,,,5,,64,0
52510,note_on,94,0,3,,,,,,,,,,2,,64,0
52510,note_on,46,0,2,,,,,,,,,,1,,79,0
52512,note_on,2,0,2,,,,,,,,,,1,,81,110
52512,note_on,2,0,3,,,,,,,,,,2,,61,75
52512,note_on,2,0,4,,,,,,,,,,5,,61,75
52558,note_on,46,0,2,,,,,,,,,,1,,81,0
52560,note_on,2,0,2,,,,,,,,,,1,,79,110
52606,note_on,94,0,4,,,,,,,,,,5,,61,0
52606,note_on,94,0,3,,,,,,,,,,2,,61,0
52606,note_on,46,0,2,,,,,,,,,,1,,79,0
52608,control_change,2,0,4,,,,,,,,10,0,5,,,
52608,note_on,0,0,4,,,,,,,,,,5,,62,92
52608,control_change,224,0,1,,,,,,,,10,64,0,,,
52608,note_on,0,0,3,,,,,,,,,,2,,62,92
52608,control_change,2,0,3,,,,,,,,10,127,2,,,
52608,note_on,2,0,2,,,,,,,,,,1,,77,110
52654,note_on,46,0,2,,,,,,,,,,1,,77,0
52656,note_on,48,0,1,,,,,,,,,,0,,81,110
52656,note_on,2,0,2,,,,,,,,,,1,,77,110
52702,note_on,46,0,2,,,,,,,,,,1,,77,0
52702,note_on,94,0,4,,,,,,,,,,5,,62,0
52702,note_on,46,0,1,,,,,,,,,,0,,81,0
52702,note_on,94,0,3,,,,,,,,,,2,,62,0
52704,note_on,2,0,3,,,,,,,,,,2,,65,92
52704,note_on,2,0,2,,,,,,,,,,1,,79,110
52704,note_on,2,0,4,,,,,,,,,,5,,65,92
52704,note_on,2,0,1,,,,,,,,,,0,,82,110
52750,note_on,46,0,1,,,,,,,,,,0,,82,0
52750,note_on,46,0,2,,,,,,,,,,1,,79,0
52752,note_on,2,0,1,,,,,,,,,,0,,81,110
52752,note_on,2,0,2,,,,,,,,,,1,,77,110
52798,note_on,46,0,1,,,,,,,,,,0,,81,0
52798,note_on,94,0,3,,,,,,,,,,2,,65,0
52798,note_on,46,0,2,,,,,,,,,,1,,77,0
52798,note_on,94,0,4,,,,,,,,,,5,,65,0
52800,note_on,2,0,1,,,,,,,,,,0,,79,110
52800,note_on,2,0,4,,,,,,,,,,5,,67,92
52800,note_on,2,0,3,,,,,,,,,,2,,67,92
52800,note_on,2,0,2,,,,,,,,,,1,,76,110
52846,note_on,46,0,1,,,,,,,,,,0,,79,0
52846,note_on,46,0,2,,,,,,,,,,1,,76,0
52848,note_on,2,0,1,,,,,,,,,,0,,79,110
52848,note_on,2,0,2,,,,,,,,,,1,,76,110
52894,note_on,94,0,3,,,,,,,,,,2,,67,0
52894,note_on,94,0,4,,,,,,,,,,5,,67,0
52894,note_on,46,0,1,,,,,,,,,,0,,79,0
52894,note_on,46,0,2,,,,,,,,,,1,,76,0
52896,note_on,2,0,4,,,,,,,,,,5,,64,92
52896,note_on,2,0,1,,,,,,,,,,0,,81,110
52896,note_on,2,0,2,,,,,,,,,,1,,77,110
52896,note_on,2,0,3,,,,,,,,,,2,,64,92
52942,note_on,46,0,1,,,,,,,,,,0,,81,0
52942,note_on,46,0,2,,,,,,,,,,1,,77,0
52944,note_on,2,0,2,,,,,,,,,,1,,76,110
52944,note_on,2,0,1,,,,,,,,,,0,,79,110
52990,note_on,94,0,4,,,,,,,,,,5,,64,0
52990,note_on,46,0,1,,,,,,,,,,0,,79,0
52990,note_on,94,0,3,,,,,,,,,,2,,64,0
52990,note_on,46,0,2,,,,,,,,,,1,,76,0
52992,note_on,2,0,1,,,,,,,,,,0,,77,110
52992,note_on,2,0,3,,,,,,,,,,2,,65,92
52992,note_on,2,0,4,,,,,,,,,,5,,65,92
52992,note_on,2,0,2,,,,,,,,,,1,,74,110
53038,note_on,46,0,2,,,,,,,,,,1,,74,0
53038,note_on,46,0,1,,,,,,,,,,0,,77,0
53040,control_change,2,0,2,,,,,,,,10,64,1,,,
53040,note_on,0,0,1,,,,,,,,,,0,,77,110
53040,control_change,2,0,1,,,,,,,,10,127,0,,,
53040,note_on,0,0,2,,,,,,,,,,1,,81,110
53086,note_on,46,0,2,,,,,,,,,,1,,81,0
53086,note_on,46,0,1,,,,,,,,,,0,,77,0
53086,note_on,94,0,3,,,,,,,,,,2,,65,0
53086,note_on,94,0,4,,,,,,,,,,5,,65,0
53088,note_on,2,0,4,,,,,,,,,,5,,62,92
53088,note_on,2,0,2,,,,,,,,,,1,,82,110
53088,note_on,2,0,1,,,,,,,,,,0,,79,110
53088,note_on,2,0,3,,,,,,,,,,2,,62,92
53134,note_on,46,0,1,,,,,,,,,,0,,79,0
53134,note_on,46,0,2,,,,,,,,,,1,,82,0
53136,note_on,2,0,1,,,,,,,,,,0,,77,110
53136,note_on,2,0,2,,,,,,,,,,1,,81,110
53182,note_on,94,0,4,,,,,,,,,,5,,62,0
53182,note_on,94,0,3,,,,,,,,,,2,,62,0
53182,note_on,46,0,1,,,,,,,,,,0,,77,0
53182,note_on,46,0,2,,,,,,,,,,1,,81,0
53184,note_on,2,0,2,,,,,,,,,,1,,79,110
53184,note_on,2,0,1,,,,,,,,,,0,,76,110
53184,note_on,2,0,4,,,,,,,,,,5,,64,92
53184,note_on,2,0,3,,,,,,,,,,2,,64,92
53230,note_on,46,0,2,,,,,,,,,,1,,79,0
53230,note_on,46,0,1,,,,,,,,,,0,,76,0
53232,note_on,2,0,2,,,,,,,,,,1,,79,110
53232,note_on,2,0,1,,,,,,,,,,0,,76,110
53278,note_on,46,0,1,,,,,,,,,,0,,76,0
53278,note_on,94,0,4,,,,,,,,,,5,,64,0
53278,note_on,46,0,2,,,,,,,,,,1,,79,0
53278,note_on,94,0,3,,,,,,,,,,2,,64,0
53280,note_on,2,0,4,,,,,,,,,,5,,61,92
53280,note_on,2,0,1,,,,,,,,,,0,,77,110
53280,note_on,2,0,3,,,,,,,,,,2,,61,92
53280,note_on,2,0,2,,,,,,,,,,1,,81,110
53326,note_on,46,0,2,,,,,,,,,,1,,81,0
53326,note_on,46,0,1,,,,,,,,,,0,,77,0
53328,note_on,2,0,2,,,,,,,,,,1,,79,110
53328,note_on,2,0,1,,,,,,,,,,0,,76,110
53374,note_on,46,0,2,,,,,,,,,,1,,79,0
53374,note_on,94,0,3,,,,,,,,,,2,,61,0
53374,note_on,46,0,1,,,,,,,,,,0,,76,0
53374,note_on,94,0,4,,,,,,,,,,5,,61,0
53376,note_on,2,0,1,,,,,,,,,,0,,74,110
53376,note_on,2,0,4,,,,,,,,,,5,,62,92
53376,note_on,2,0,2,,,,,,,,,,1,,77,110
53376,note_on,2,0,3,,,,,,,,,,2,,62,92
53422,note_on,46,0,1,,,,,,,,,,0,,74,0
53422,note_on,46,0,2,,,,,,,,,,1,,77,0
53424,control_change,2,0,1,,,,,,,,10,64,0,,,
53424,note_on,0,0,1,,,,,,,,,,0,,81,110
53424,note_on,2,0,2,,,,,,,,,,1,,77,110
53470,note_on,46,0,1,,,,,,,,,,0,,81,0
53470,note_on,46,0,2,,,,,,,,,,1,,77,0
53470,note_on,94,0,4,,,,,,,,,,5,,62,0
53470,note_on,94,0,3,,,,,,,,,,2,,62,0
53472,note_on,2,0,4,,,,,,,,,,5,,65,92
53472,note_on,2,0,3,,,,,,,,,,2,,65,92
53472,note_on,2,0,1,,,,,,,,,,0,,82,110
53472,note_on,2,0,2,,,,,,,,,,1,,79,110
53518,note_on,46,0,2,,,,,,,,,,1,,79,0
53518,note_on,46,0,1,,,,,,,,,,0,,82,0
53520,note_on,2,0,1,,,,,,,,,,0,,81,110
53520,note_on,2,0,2,,,,,,,,,,1,,77,110
53566,note_on,94,0,4,,,,,,,,,,5,,65,0
53566,note_on,94,0,3,,,,,,,,,,2,,65,0
53566,note_on,46,0,2,,,,,,,,,,1,,77,0
53566,note_on,46,0,1,,,,,,,,,,0,,81,0
53568,note_on,2,0,2,,,,,,,,,,1,,76,110
53568,note_on,2,0,4,,,,,,,,,,5,,67,92
53568,note_on,2,0,1,,,,,,,,,,0,,79,110
53568,note_on,2,0,3,,,,,,,,,,2,,67,92
53614,note_on,46,0,2,,,,,,,,,,1,,76,0
53614,note_on,46,0,1,,,,,,,,,,0,,79,0
53616,note_on,2,0,1,,,,,,,,,,0,,79,110
53616,note_on,2,0,2,,,,,,,,,,1,,76,110
53662,note_on,94,0,4,,,,,,,,,,5,,67,0
53662,note_on,46,0,2,,,,,,,,,,1,,76,0
53662,note_on,94,0,3,,,,,,,,,,2,,67,0
53662,note_on,46,0,1,,,,,,,,,,0,,79,0
53664,note_on,2,0,2,,,,,,,,,,1,,77,110
53664,note_on,2,0,4,,,,,,,,,,5,,64,92
53664,note_on,2,0,3,,,,,,,,,,2,,64,92
53664,note_on,2,0,1,,,,,,,,,,0,,81,110
53710,note_on,46,0,2,,,,,,,,,,1,,77,0
53710,note_on,46,0,1,,,,,,,,,,0,,81,0
53712,note_on,2,0,2,,,,,,,,,,1,,76,110
53712,note_on,2,0,1,,,,,,,,,,0,,79,110
53758,note_on,46,0,1,,,,,,,,,,0,,79,0
53758,note_on,94,0,3,,,,,,,,,,2,,64,0
53758,note_on,46,0,2,,,,,,,,,,1,,76,0
53758,note_on,94,0,4,,,,,,,,,,5,,64,0
53760,note_on,2,0,2,,,,,,,,,,1,,74,110
53760,note_on,2,0,1,,,,,,,,,,0,,77,110
53760,note_on,2,0,4,,,,,,,,,,5,,65,92
53760,note_on,2,0,3,,,,,,,,,,2,,65,92
53806,note_on,46,0,1,,,,,,,,,,0,,77,0
53806,note_on,46,0,2,,,,,,,,,,1,,74,0
53808,note_on,2,0,1,,,,,,,,,,0,,77,110
53808,note_on,2,0,2,,,,,,,,,,1,,74,110
53854,note_on,46,0,1,,,,,,,,,,0,,77,0
53854,note_on,94,0,3,,,,,,,,,,2,,65,0
53854,note_on,46,0,2,,,,,,,,,,1,,74,0
53854,note_on,94,0,4,,,,,,,,,,5,,65,0
53856,note_on,2,0,3,,,,,,,,,,2,,62,92
53856,note_on,2,0,4,,,,,,,,,,5,,62,92
53856,note_on,2,0,2,,,,,,,,,,1,,76,110
53856,note_on,2,0,1,,,,,,,,,,0,,79,110
53902,note_on,46,0,2,,,,,,,,,,1,,76,0
53902,note_on,46,0,1,,,,,,,,,,0,,79,0
53904,note_on,2,0,2,,,,,,,,,,1,,74,110
53904,note_on,2,0,1,,,,,,,,,,0,,77,110
53950,note_on,46,0,2,,,,,,,,,,1,,74,0
53950,note_on,94,0,3,,,,,,,,,,2,,62,0
53950,note_on,94,0,4,,,,,,,,,,5,,62,0
53950,note_on,46,0,1,,,,,,,,,,0,,77,0
53952,note_on,2,0,1,,,,,,,,,,0,,76,110
53952,note_on,2,0,4,,,,,,,,,,5,,64,92
53952,note_on,2,0,2,,,,,,,,,,1,,73,110
53952,note_on,2,0,3,,,,,,,,,,2,,64,92
53998,note_on,46,0,2,,,,,,,,,,1,,73,0
53998,note_on,46,0,1,,,,,,,,,,0,,76,0
54000,note_on,2,0,1,,,,,,,,,,0,,76,110
54000,note_on,2,0,2,,,,,,,,,,1,,73,110
54046,note_on,46,0,1,,,,,,,,,,0,,76,0
54046,note_on,46,0,2,,,,,,,,,,1,,73,0
54046,note_on,94,0,4,,,,,,,,,,5,,64,0
54046,note_on,94,0,3,,,,,,,,,,2,,64,0
54048,note_on,2,0,2,,,,,,,,,,1,,74,110
54048,note_on,2,0,4,,,,,,,,,,5,,57,92
54048,note_on,2,0,3,,,,,,,,,,2,,57,92
54048,note_on,2,0,1,,,,,,,,,,0,,77,110
54094,note_on,46,0,1,,,,,,,,,,0,,77,0
54094,note_on,46,0,2,,,,,,,,,,1,,74,0
54096,note_on,2,0,2,,,,,,,,,,1,,73,110
54096,note_on,2,0,1,,,,,,,,,,0,,76,110
54142,note_on,46,0,1,,,,,,,,,,0,,76,0
54142,note_on,46,0,2,,,,,,,,,,1,,73,0
54142,note_on,94,0,3,,,,,,,,,,2,,57,0
54142,note_on,94,0,4,,,,,,,,,,5,,57,0
54144,control_change,2,0,1,,,,,,,,10,127,0,,,
54144,note_on,0,0,1,,,,,,,,,,0,,62,110
54144,note_on,0,0,1,,,,,,,,,,0,,65,110
54144,note_on,0,0,1,,,,,,,,,,0,,69,110
54144,note_on,0,0,1,,,,,,,,,,0,,74,110
54144,note_on,2,0,2,,,,,,,,,,1,,74,110
54144,note_on,2,0,3,,,,,,,,,,2,,62,92
54238,note_on,94,0,1,,,,,,,,,,0,,62,0
54238,note_on,0,0,1,,,,,,,,,,0,,65,0
54238,note_on,0,0,1,,,,,,,,,,0,,69,0
54238,note_on,0,0,1,,,,,,,,,,0,,74,0
54240,note_on,2,0,1,,,,,,,,,,0,,76,110
54286,note_on,46,0,1,,,,,,,,,,0,,76,0
54288,note_on,2,0,1,,,,,,,,,,0,,77,110
54304,note_on,160,0,2,,,,,,,,,,1,,74,0
54304,note_on,160,0,3,,,,,,,,,,2,,62,0
54334,note_on,46,0,1,,,,,,,,,,0,,77,0
54336,control_change,32,0,2,,,,,,,,10,0,1,,,
54336,note_on,2,0,1,,,,,,,,,,0,,76,110
54430,note_on,94,0,1,,,,,,,,,,0,,76,0
54432,note_on,2,0,1,,,,,,,,,,0,,74,110
54526,note_on,94,0,1,,,,,,,,,,0,,74,0
54528,note_on,0,0,2,,,,,,,,,,1,,74,110
54528,note_on,0,0,2,,,,,,,,,,1,,69,110
54528,note_on,0,0,2,,,,,,,,,,1,,65,110
54528,note_on,386,0,4,,,,,,,,,,5,,62,92
54528,note_on,192,0,2,,,,,,,,,,1,,62,110
54622,note_on,0,0,2,,,,,,,,,,1,,69,0
54622,note_on,0,0,2,,,,,,,,,,1,,65,0
54622,note_on,0,0,2,,,,,,,,,,1,,74,0
54622,note_on,94,0,2,,,,,,,,,,1,,62,0
54624,note_on,2,0,2,,,,,,,,,,1,,76,110
54670,note_on,46,0,2,,,,,,,,,,1,,76,0
54672,note_on,2,0,2,,,,,,,,,,1,,77,110
54688,note_on,160,0,4,,,,,,,,,,5,,62,0
54718,note_on,46,0,2,,,,,,,,,,1,,77,0
54720,note_on,2,0,2,,,,,,,,,,1,,76,110
54814,note_on,94,0,2,,,,,,,,,,1,,76,0
54816,note_on,2,0,2,,,,,,,,,,1,,74,110
54910,note_on,94,0,2,,,,,,,,,,1,,74,0
54912,note_on,386,0,1,,,,,,,,,,0,,62,110
54912,note_on,0,0,1,,,,,,,,,,0,,65,110
54912,note_on,0,0,1,,,,,,,,,,0,,69,110
54912,note_on,0,0,1,,,,,,,,,,0,,77,110
54912,note_on,608,0,3,,,,,,,,,,2,,62,92
55006,note_on,0,0,1,,,,,,,,,,0,,77,0
55006,note_on,0,0,1,,,,,,,,,,0,,69,0
55006,note_on,0,0,1,,,,,,,,,,0,,65,0
55006,note_on,94,0,1,,,,,,,,,,0,,62,0
55008,note_on,2,0,1,,,,,,,,,,0,,79,110
55054,note_on,46,0,1,,,,,,,,,,0,,79,0
55056,note_on,2,0,1,,,,,,,,,,0,,81,110
55072,note_on,160,0,3,,,,,,,,,,2,,62,0
55102,note_on,46,0,1,,,,,,,,,,0,,81,0
55104,note_on,2,0,1,,,,,,,,,,0,,79,110
55198,note_on,94,0,1,,,,,,,,,,0,,79,0
55200,note_on,2,0,1,,,,,,,,,,0,,77,110
55294,note_on,94,0,1,,,,,,,,,,0,,77,0
55296,note_on,386,0,2,,,,,,,,,,1,,62,110
55296,note_on,0,0,2,,,,,,,,,,1,,65,110
55296,note_on,0,0,2,,,,,,,,,,1,,69,110
55296,note_on,0,0,2,,,,,,,,,,1,,77,110
55296,note_on,608,0,4,,,,,,,,,,5,,62,92
55390,note_on,0,0,2,,,,,,,,,,1,,65,0
55390,note_on,94,0,2,,,,,,,,,,1,,62,0
55390,note_on,0,0,2,,,,,,,,,,1,,77,0
55390,note_on,0,0,2,,,,,,,,,,1,,69,0
55392,note_on,2,0,2,,,,,,,,,,1,,79,110
55438,note_on,46,0,2,,,,,,,,,,1,,79,0
55440,note_on,2,0,2,,,,,,,,,,1,,81,110
55456,note_on,160,0,4,,,,,,,,,,5,,62,0
55486,note_on,46,0,2,,,,,,,,,,1,,81,0
55488,note_on,2,0,2,,,,,,,,,,1,,79,110
55582,note_on,94,0,2,,,,,,,,,,1,,79,0
55584,note_on,2,0,2,,,,,,,,,,1,,77,110
55678,note_on,94,0,2,,,,,,,,,,1,,77,0
55680,note_on,386,0,1,,,,,,,,,,0,,81,110
55680,note_on,224,0,4,,,,,,,,,,5,,65,60
55680,note_on,608,0,3,,,,,,,,,,2,,65,60
55726,note_on,46,0,1,,,,,,,,,,0,,81,0
55728,note_on,2,0,1,,,,,,,,,,0,,77,110
55750,note_on,22,0,1,,,,,,,,,,0,,77,0
55752,note_on,2,0,1,,,,,,,,,,0,,79,110
55774,note_on,22,0,1,,,,,,,,,,0,,79,0
55776,note_on,2,0,1,,,,,,,,,,0,,81,110
55822,note_on,46,0,1,,,,,,,,,,0,,81,0
55824,note_on,2,0,1,,,,,,,,,,0,,79,110
55840,note_on,160,0,4,,,,,,,,,,5,,65,0
55840,note_on,160,0,3,,,,,,,,,,2,,65,0
55846,note_on,22,0,1,,,,,,,,,,0,,79,0
55848,note_on,2,0,1,,,,,,,,,,0,,77,110
55870,note_on,22,0,1,,,,,,,,,,0,,77,0
55872,note_on,32,0,4,,,,,,,,,,5,,62,60
55872,note_on,2,0,1,,,,,,,,,,0,,69,110
55872,note_on,194,0,2,,,,,,,,,,1,,81,110
55872,note_on,32,0,3,,,,,,,,,,2,,62,60
55918,note_on,46,0,2,,,,,,,,,,1,,81,0
55920,note_on,2,0,2,,,,,,,,,,1,,77,110
55942,note_on,22,0,2,,,,,,,,,,1,,77,0
55944,note_on,2,0,2,,,,,,,,,,1,,79,110
55966,note_on,22,0,2,,,,,,,,,,1,,79,0
55968,note_on,2,0,2,,,,,,,,,,1,,81,110
56014,note_on,46,0,2,,,,,,,,,,1,,81,0
56016,note_on,2,0,2,,,,,,,,,,1,,79,110
56032,note_on,160,0,3,,,,,,,,,,2,,62,0
56032,note_on,160,0,1,,,,,,,,,,0,,69,0
56032,note_on,160,0,4,,,,,,,,,,5,,62,0
56038,note_on,22,0,2,,,,,,,,,,1,,79,0
56040,note_on,2,0,2,,,,,,,,,,1,,77,110
56062,note_on,22,0,2,,,,,,,,,,1,,77,0
56064,note_on,32,0,3,,,,,,,,,,2,,61,60
56064,note_on,32,0,4,,,,,,,,,,5,,61,60
56064,note_on,32,0,1,,,,,,,,,,0,,79,110
56064,note_on,2,0,2,,,,,,,,,,1,,69,110
56110,note_on,46,0,1,,,,,,,,,,0,,79,0
56112,note_on,2,0,1,,,,,,,,,,0,,76,110
56134,note_on,22,0,1,,,,,,,,,,0,,76,0
56136,note_on,2,0,1,,,,,,,,,,0,,77,110
56158,note_on,22,0,1,,,,,,,,,,0,,77,0
56160,note_on,2,0,1,,,,,,,,,,0,,79,110
56206,note_on,46,0,1,,,,,,,,,,0,,79,0
56208,note_on,2,0,1,,,,,,,,,,0,,77,110
56224,note_on,160,0,3,,,,,,,,,,2,,61,0
56224,note_on,160,0,4,,,,,,,,,,5,,61,0
56224,note_on,160,0,2,,,,,,,,,,1,,69,0
56230,note_on,22,0,1,,,,,,,,,,0,,77,0
56232,note_on,2,0,1,,,,,,,,,,0,,76,110
56254,note_on,22,0,1,,,,,,,,,,0,,76,0
56256,note_on,32,0,4,,,,,,,,,,5,,57,60
56256,note_on,2,0,1,,,,,,,,,,0,,69,110
56256,note_on,32,0,3,,,,,,,,,,2,,57,60
56256,note_on,32,0,2,,,,,,,,,,1,,79,110
56302,note_on,46,0,2,,,,,,,,,,1,,79,0
56304,note_on,2,0,2,,,,,,,,,,1,,76,110
56326,note_on,22,0,2,,,,,,,,,,1,,76,0
56328,note_on,2,0,2,,,,,,,,,,1,,77,110
56350,note_on,22,0,2,,,,,,,,,,1,,77,0
56352,note_on,2,0,2,,,,,,,,,,1,,79,110
56398,note_on,46,0,2,,,,,,,,,,1,,79,0
56400,note_on,2,0,2,,,,,,,,,,1,,77,110
56416,note_on,160,0,1,,,,,,,,,,0,,69,0
56416,note_on,160,0,3,,,,,,,,,,2,,57,0
56416,note_on,160,0,4,,,,,,,,,,5,,57,0
56422,note_on,22,0,2,,,,,,,,,,1,,77,0
56424,note_on,2,0,2,,,,,,,,,,1,,76,110
56446,note_on,22,0,2,,,,,,,,,,1,,76,0
56448,note_on,32,0,1,,,,,,,,,,0,,77,110
56448,note_on,32,0,3,,,,,,,,,,2,,62,60
56448,note_on,2,0,2,,,,,,,,,,1,,69,110
56448,note_on,32,0,4,,,,,,,,,,5,,62,60
56494,note_on,46,0,1,,,,,,,,,,0,,77,0
56494,note_on,46,0,2,,,,,,,,,,1,,69,0
56496,note_on,2,0,1,,,,,,,,,,0,,77,110
56496,note_on,2,0,2,,,,,,,,,,1,,81,110
56542,note_on,46,0,2,,,,,,,,,,1,,81,0
56542,note_on,94,0,3,,,,,,,,,,2,,62,0
56542,note_on,94,0,4,,,,,,,,,,5,,62,0
56542,note_on,46,0,1,,,,,,,,,,0,,77,0
56544,note_on,2,0,3,,,,,,,,,,2,,62,60
56544,note_on,2,0,1,,,,,,,,,,0,,79,110
56544,note_on,2,0,2,,,,,,,,,,1,,82,110
56544,note_on,2,0,4,,,,,,,,,,5,,62,60
56590,note_on,46,0,2,,,,,,,,,,1,,82,0
56590,note_on,46,0,1,,,,,,,,,,0,,79,0
56592,note_on,2,0,1,,,,,,,,,,0,,77,110
56592,note_on,2,0,2,,,,,,,,,,1,,81,110
56638,note_on,94,0,3,,,,,,,,,,2,,62,0
56638,note_on,94,0,4,,,,,,,,,,5,,62,0
56638,note_on,46,0,2,,,,,,,,,,1,,81,0
56638,note_on,46,0,1,,,,,,,,,,0,,77,0
56640,note_on,2,0,2,,,,,,,,,,1,,81,110
56640,note_on,2,0,3,,,,,,,,,,2,,65,60
56640,note_on,2,0,4,,,,,,,,,,5,,65,60
56640,note_on,2,0,1,,,,,,,,,,0,,77,110
56686,note_on,46,0,1,,,,,,,,,,0,,77,0
56686,note_on,46,0,2,,,,,,,,,,1,,81,0
56688,note_on,2,0,2,,,,,,,,,,1,,81,110
56688,note_on,2,0,1,,,,,,,,,,0,,77,110
56734,note_on,94,0,4,,,,,,,,,,5,,65,0
56734,note_on,46,0,2,,,,,,,,,,1,,81,0
56734,note_on,94,0,3,,,,,,,,,,2,,65,0
56734,note_on,46,0,1,,,,,,,,,,0,,77,0
56736,note_on,2,0,1,,,,,,,,,,0,,79,110
56736,note_on,2,0,2,,,,,,,,,,1,,82,110
56736,note_on,2,0,3,,,,,,,,,,2,,62,60
56736,note_on,2,0,4,,,,,,,,,,5,,62,60
56782,note_on,46,0,1,,,,,,,,,,0,,79,0
56782,note_on,46,0,2,,,,,,,,,,1,,82,0
56784,note_on,2,0,2,,,,,,,,,,1,,81,110
56784,note_on,2,0,1,,,,,,,,,,0,,77,110
56830,note_on,46,0,2,,,,,,,,,,1,,81,0
56830,note_on,94,0,3,,,,,,,,,,2,,62,0
56830,note_on,46,0,1,,,,,,,,,,0,,77,0
56830,note_on,94,0,4,,,,,,,,,,5,,62,0
56832,note_on,2,0,2,,,,,,,,,,1,,81,110
56832,note_on,2,0,1,,,,,,,,,,0,,77,110
56878,note_on,46,0,2,,,,,,,,,,1,,81,0
56878,note_on,46,0,1,,,,,,,,,,0,,77,0
56880,note_on,2,0,1,,,,,,,,,,0,,77,110
56880,note_on,2,0,2,,,,,,,,,,1,,81,110
56926,note_on,46,0,2,,,,,,,,,,1,,81,0
56926,note_on,46,0,1,,,,,,,,,,0,,77,0
56928,note_on,98,0,4,,,,,,,,,,5,,62,60
56928,note_on,98,0,3,,,,,,,,,,2,,62,60
56928,note_on,2,0,2,,,,,,,,,,1,,82,110
56928,note_on,2,0,1,,,,,,,,,,0,,79,110
56974,note_on,46,0,1,,,,,,,,,,0,,79,0
56974,note_on,46,0,2,,,,,,,,,,1,,82,0
56976,note_on,2,0,2,,,,,,,,,,1,,81,110
56976,note_on,2,0,1,,,,,,,,,,0,,77,110
57022,note_on,94,0,4,,,,,,,,,,5,,62,0
57022,note_on,94,0,3,,,,,,,,,,2,,62,0
57022,note_on,46,0,1,,,,,,,,,,0,,77,0
57022,note_on,46,0,2,,,,,,,,,,1,,81,0
57024,note_on,2,0,3,,,,,,,,,,2,,65,60
57024,note_on,2,0,4,,,,,,,,,,5,,65,60
57024,note_on,2,0,2,,,,,,,,,,1,,81,110
57024,note_on,2,0,1,,,,,,,,,,0,,77,110
57070,note_on,46,0,2,,,,,,,,,,1,,81,0
57070,note_on,46,0,1,,,,,,,,,,0,,77,0
57072,note_on,2,0,2,,,,,,,,,,1,,81,110
57072,note_on,2,0,1,,,,,,,,,,0,,77,110
57118,note_on,46,0,1,,,,,,,,,,0,,77,0
57118,note_on,94,0,4,,,,,,,,,,5,,65,0
57118,note_on,94,0,3,,,,,,,,,,2,,65,0
57118,note_on,46,0,2,,,,,,,,,,1,,81,0
57120,note_on,2,0,1,,,,,,,,,,0,,79,110
57120,note_on,2,0,3,,,,,,,,,,2,,62,60
57120,note_on,2,0,4,,,,,,,,,,5,,62,60
57120,note_on,2,0,2,,,,,,,,,,1,,82,110
57166,note_on,46,0,2,,,,,,,,,,1,,82,0
57166,note_on,46,0,1,,,,,,,,,,0,,79,0
57168,note_on,2,0,2,,,,,,,,,,1,,81,110
57168,note_on,2,0,1,,,,,,,,,,0,,77,110
57214,note_on,94,0,4,,,,,,,,,,5,,62,0
57214,note_on,46,0,2,,,,,,,,,,1,,81,0
57214,note_on,94,0,3,,,,,,,,,,2,,62,0
57214,note_on,46,0,1,,,,,,,,,,0,,77,0
57216,note_on,2,0,1,,,,,,,,,,0,,69,110
57216,note_on,2,0,2,,,,,,,,,,1,,81,110
57216,note_on,0,0,1,,,,,,,,,,0,,77,110
57262,note_on,0,0,1,,,,,,,,,,0,,77,0
57262,note_on,46,0,1,,,,,,,,,,0,,69,0
57262,note_on,46,0,2,,,,,,,,,,1,,81,0
57264,note_on,2,0,2,,,,,,,,,,1,,77,110
57264,note_on,0,0,1,,,,,,,,,,0,,81,110
57264,note_on,2,0,1,,,,,,,,,,0,,69,110
57310,note_on,0,0,1,,,,,,,,,,0,,81,0
57310,note_on,46,0,1,,,,,,,,,,0,,69,0
57310,note_on,46,0,2,,,,,,,,,,1,,77,0
57312,note_on,2,0,1,,,,,,,,,,0,,69,110
57312,note_on,2,0,2,,,,,,,,,,1,,76,110
57312,note_on,98,0,4,,,,,,,,,,5,,62,60
57312,note_on,98,0,3,,,,,,,,,,2,,62,60
57312,note_on,0,0,1,,,,,,,,,,0,,79,110
57358,note_on,0,0,1,,,,,,,,,,0,,79,0
57358,note_on,46,0,1,,,,,,,,,,0,,69,0
57358,note_on,46,0,2,,,,,,,,,,1,,76,0
57360,note_on,2,0,2,,,,,,,,,,1,,74,110
57360,note_on,2,0,1,,,,,,,,,,0,,69,110
57360,note_on,0,0,1,,,,,,,,,,0,,77,110
57406,note_on,94,0,3,,,,,,,,,,2,,62,0
57406,note_on,46,0,2,,,,,,,,,,1,,74,0
57406,note_on,46,0,1,,,,,,,,,,0,,69,0
57406,note_on,0,0,1,,,,,,,,,,0,,77,0
57406,note_on,94,0,4,,,,,,,,,,5,,62,0
57408,note_on,2,0,4,,,,,,,,,,5,,69,60
57408,note_on,2,0,2,,,,,,,,,,1,,69,110
57408,note_on,2,0,3,,,,,,,,,,2,,69,60
57408,note_on,2,0,1,,,,,,,,,,0,,69,110
57408,note_on,0,0,1,,,,,,,,,,0,,76,110
57502,note_on,94,0,2,,,,,,,,,,1,,69,0
57502,note_on,94,0,3,,,,,,,,,,2,,69,0
57502,note_on,94,0,4,,,,,,,,,,5,,69,0
57504,note_on,2,0,4,,,,,,,,,,5,,57,60
57504,note_on,2,0,2,,,,,,,,,,1,,73,110
57504,note_on,2,0,3,,,,,,,,,,2,,57,60
57568,note_on,0,0,1,,,,,,,,,,0,,76,0
57568,note_on,160,0,1,,,,,,,,,,0,,69,0
57598,note_on,94,0,3,,,,,,,,,,2,,57,0
57598,note_on,94,0,4,,,,,,,,,,5,,57,0
57598,note_on,94,0,2,,,,,,,,,,1,,73,0
57600,note_on,0,0,3,,,,,,,,,,2,,62,60
57600,note_on,32,0,1,,,,,,,,,,0,,74,110
57600,note_on,0,0,4,,,,,,,,,,5,,62,60
57600,control_change,2,0,4,,,,,,,,10,127,5,,,
57600,control_change,2,0,3,,,,,,,,10,127,2,,,
57600,note_on,2,0,2,,,,,,,,,,1,,74,110
57646,note_on,46,0,2,,,,,,,,,,1,,74,0
57646,note_on,46,0,1,,,,,,,,,,0,,74,0
57648,note_on,2,0,1,,,,,,,,,,0,,77,110
57648,note_on,2,0,2,,,,,,,,,,1,,74,110
57670,note_on,22,0,2,,,,,,,,,,1,,74,0
57670,note_on,22,0,1,,,,,,,,,,0,,77,0
57672,note_on,2,0,2,,,,,,,,,,1,,76,110
57672,note_on,2,0,1,,,,,,,,,,0,,79,110
57694,note_on,22,0,2,,,,,,,,,,1,,76,0
57694,note_on,94,0,3,,,,,,,,,,2,,62,0
57694,note_on,22,0,1,,,,,,,,,,0,,79,0
57694,note_on,94,0,4,,,,,,,,,,5,,62,0
57696,note_on,2,0,3,,,,,,,,,,2,,62,60
57696,note_on,2,0,4,,,,,,,,,,5,,62,60
57696,note_on,2,0,1,,,,,,,,,,0,,81,110
57696,note_on,2,0,2,,,,,,,,,,1,,77,110
57742,note_on,46,0,2,,,,,,,,,,1,,77,0
57742,note_on,46,0,1,,,,,,,,,,0,,81,0
57744,note_on,2,0,2,,,,,,,,,,1,,76,110
57744,note_on,2,0,1,,,,,,,,,,0,,79,110
57766,note_on,22,0,2,,,,,,,,,,1,,76,0
57766,note_on,22,0,1,,,,,,,,,,0,,79,0
57768,note_on,2,0,1,,,,,,,,,,0,,77,110
57768,note_on,2,0,2,,,,,,,,,,1,,74,110
57790,note_on,94,0,3,,,,,,,,,,2,,62,0
57790,note_on,22,0,2,,,,,,,,,,1,,74,0
57790,note_on,22,0,1,,,,,,,,,,0,,77,0
57790,note_on,94,0,4,,,,,,,,,,5,,62,0
57792,note_on,2,0,2,,,,,,,,,,1,,74,110
57792,note_on,2,0,1,,,,,,,,,,0,,77,110
57792,note_on,2,0,4,,,,,,,,,,5,,65,60
57792,note_on,2,0,3,,,,,,,,,,2,,65,60
57838,note_on,46,0,1,,,,,,,,,,0,,77,0
57838,note_on,46,0,2,,,,,,,,,,1,,74,0
57840,note_on,2,0,2,,,,,,,,,,1,,76,110
57840,note_on,2,0,1,,,,,,,,,,0,,79,110
57862,note_on,22,0,1,,,,,,,,,,0,,79,0
57862,note_on,22,0,2,,,,,,,,,,1,,76,0
57864,note_on,2,0,2,,,,,,,,,,1,,77,110
57864,note_on,2,0,1,,,,,,,,,,0,,81,110
57886,note_on,22,0,2,,,,,,,,,,1,,77,0
57886,note_on,22,0,1,,,,,,,,,,0,,81,0
57886,note_on,94,0,3,,,,,,,,,,2,,65,0
57886,note_on,94,0,4,,,,,,,,,,5,,65,0
57888,note_on,2,0,2,,,,,,,,,,1,,77,110
57888,note_on,2,0,3,,,,,,,,,,2,,62,60
57888,note_on,2,0,1,,,,,,,,,,0,,81,110
57888,note_on,2,0,4,,,,,,,,,,5,,62,60
57934,note_on,46,0,2,,,,,,,,,,1,,77,0
57934,note_on,46,0,1,,,,,,,,,,0,,81,0
57936,note_on,2,0,2,,,,,,,,,,1,,76,110
57936,note_on,2,0,1,,,,,,,,,,0,,79,110
57958,note_on,22,0,1,,,,,,,,,,0,,79,0
57958,note_on,22,0,2,,,,,,,,,,1,,76,0
57960,note_on,2,0,2,,,,,,,,,,1,,74,110
57960,note_on,2,0,1,,,,,,,,,,0,,77,110
57982,note_on,22,0,1,,,,,,,,,,0,,77,0
57982,note_on,94,0,4,,,,,,,,,,5,,62,0
57982,note_on,22,0,2,,,,,,,,,,1,,74,0
57982,note_on,94,0,3,,,,,,,,,,2,,62,0
57984,control_change,2,0,4,,,,,,,,10,0,5,,,
57984,note_on,2,0,1,,,,,,,,,,0,,77,110
57984,note_on,2,0,2,,,,,,,,,,1,,74,110
57984,control_change,2,0,3,,,,,,,,10,0,2,,,
58030,note_on,46,0,1,,,,,,,,,,0,,77,0
58030,note_on,46,0,2,,,,,,,,,,1,,74,0
58032,note_on,2,0,1,,,,,,,,,,0,,79,110
58032,note_on,2,0,2,,,,,,,,,,1,,76,110
58054,note_on,22,0,2,,,,,,,,,,1,,76,0
58054,note_on,22,0,1,,,,,,,,,,0,,79,0
58056,note_on,2,0,1,,,,,,,,,,0,,81,110
58056,note_on,2,0,2,,,,,,,,,,1,,77,110
58078,note_on,22,0,1,,,,,,,,,,0,,81,0
58078,note_on,22,0,2,,,,,,,,,,1,,77,0
58080,note_on,2,0,1,,,,,,,,,,0,,81,110
58080,note_on,2,0,2,,,,,,,,,,1,,77,110
58080,note_on,96,0,3,,,,,,,,,,2,,62,60
58080,note_on,96,0,4,,,,,,,,,,5,,62,60
58126,note_on,46,0,2,,,,,,,,,,1,,77,0
58126,note_on,46,0,1,,,,,,,,,,0,,81,0
58128,note_on,2,0,2,,,,,,,,,,1,,76,110
58128,note_on,2,0,1,,,,,,,,,,0,,79,110
58150,note_on,22,0,1,,,,,,,,,,0,,79,0
58150,note_on,22,0,2,,,,,,,,,,1,,76,0
58152,note_on,2,0,1,,,,,,,,,,0,,77,110
58152,note_on,2,0,2,,,,,,,,,,1,,74,110
58174,note_on,22,0,2,,,,,,,,,,1,,74,0
58174,note_on,94,0,4,,,,,,,,,,5,,62,0
58174,note_on,22,0,1,,,,,,,,,,0,,77,0
58174,note_on,94,0,3,,,,,,,,,,2,,62,0
58176,note_on,2,0,4,,,,,,,,,,5,,65,60
58176,note_on,2,0,2,,,,,,,,,,1,,74,110
58176,note_on,2,0,3,,,,,,,,,,2,,65,60
58176,note_on,2,0,1,,,,,,,,,,0,,77,110
58222,note_on,46,0,2,,,,,,,,,,1,,74,0
58222,note_on,46,0,1,,,,,,,,,,0,,77,0
58224,note_on,2,0,1,,,,,,,,,,0,,79,110
58224,note_on,2,0,2,,,,,,,,,,1,,76,110
58246,note_on,22,0,2,,,,,,,,,,1,,76,0
58246,note_on,22,0,1,,,,,,,,,,0,,79,0
58248,note_on,2,0,2,,,,,,,,,,1,,77,110
58248,note_on,2,0,1,,,,,,,,,,0,,81,110
58270,note_on,94,0,4,,,,,,,,,,5,,65,0
58270,note_on,22,0,2,,,,,,,,,,1,,77,0
58270,note_on,94,0,3,,,,,,,,,,2,,65,0
58270,note_on,22,0,1,,,,,,,,,,0,,81,0
58272,note_on,2,0,1,,,,,,,,,,0,,81,110
58272,note_on,2,0,2,,,,,,,,,,1,,77,110
58272,note_on,2,0,4,,,,,,,,,,5,,62,60
58272,note_on,2,0,3,,,,,,,,,,2,,62,60
58318,note_on,46,0,1,,,,,,,,,,0,,81,0
58318,note_on,46,0,2,,,,,,,,,,1,,77,0
58320,note_on,2,0,1,,,,,,,,,,0,,79,110
58320,note_on,2,0,2,,,,,,,,,,1,,76,110
58342,note_on,22,0,2,,,,,,,,,,1,,76,0
58342,note_on,22,0,1,,,,,,,,,,0,,79,0
58344,note_on,2,0,1,,,,,,,,,,0,,77,110
58344,note_on,2,0,2,,,,,,,,,,1,,74,110
58366,note_on,22,0,2,,,,,,,,,,1,,74,0
58366,note_on,94,0,3,,,,,,,,,,2,,62,0
58366,note_on,22,0,1,,,,,,,,,,0,,77,0
58366,note_on,94,0,4,,,,,,,,,,5,,62,0
58368,note_on,2,0,1,,,,,,,,,,0,,69,110
58368,note_on,2,0,2,,,,,,,,,,1,,74,110
58368,note_on,0,0,1,,,,,,,,,,0,,77,110
58414,note_on,46,0,1,,,,,,,,,,0,,69,0
58414,note_on,46,0,2,,,,,,,,,,1,,74,0
58414,note_on,0,0,1,,,,,,,,,,0,,77,0
58416,note_on,0,0,1,,,,,,,,,,0,,81,110
58416,note_on,2,0,1,,,,,,,,,,0,,69,110
58416,note_on,2,0,2,,,,,,,,,,1,,77,110
58462,note_on,46,0,2,,,,,,,,,,1,,77,0
58462,note_on,0,0,1,,,,,,,,,,0,,81,0
58462,note_on,46,0,1,,,,,,,,,,0,,69,0
58464,note_on,98,0,3,,,,,,,,,,2,,62,60
58464,note_on,2,0,1,,,,,,,,,,0,,69,110
58464,note_on,98,0,4,,,,,,,,,,5,,62,60
58464,note_on,0,0,1,,,,,,,,,,0,,79,110
58464,note_on,2,0,2,,,,,,,,,,1,,76,110
58510,note_on,46,0,2,,,,,,,,,,1,,76,0
58510,note_on,0,0,1,,,,,,,,,,0,,79,0
58510,note_on,46,0,1,,,,,,,,,,0,,69,0
58512,note_on,0,0,1,,,,,,,,,,0,,77,110
58512,note_on,2,0,2,,,,,,,,,,1,,74,110
58512,note_on,2,0,1,,,,,,,,,,0,,69,110
58558,note_on,0,0,1,,,,,,,,,,0,,77,0
58558,note_on,46,0,1,,,,,,,,,,0,,69,0
58558,note_on,94,0,4,,,,,,,,,,5,,62,0
58558,note_on,46,0,2,,,,,,,,,,1,,74,0
58558,note_on,94,0,3,,,,,,,,,,2,,62,0
58560,note_on,2,0,3,,,,,,,,,,2,,69,60
58560,note_on,2,0,4,,,,,,,,,,5,,69,60
58560,note_on,0,0,1,,,,,,,,,,0,,77,110
58560,note_on,2,0,2,,,,,,,,,,1,,69,110
58560,note_on,2,0,1,,,,,,,,,,0,,69,110
58582,note_on,0,0,1,,,,,,,,,,0,,77,0
58582,note_on,22,0,1,,,,,,,,,,0,,69,0
58584,note_on,2,0,1,,,,,,,,,,0,,76,110
58606,note_on,22,0,1,,,,,,,,,,0,,76,0
58608,note_on,2,0,1,,,,,,,,,,0,,77,110
58630,note_on,22,0,1,,,,,,,,,,0,,77,0
58632,note_on,2,0,1,,,,,,,,,,0,,76,110
58654,note_on,22,0,1,,,,,,,,,,0,,76,0
58654,note_on,94,0,4,,,,,,,,,,5,,69,0
58654,note_on,94,0,2,,,,,,,,,,1,,69,0
58654,note_on,94,0,3,,,,,,,,,,2,,69,0
58656,note_on,2,0,4,,,,,,,,,,5,,57,60
58656,note_on,2,0,2,,,,,,,,,,1,,73,110
58656,note_on,2,0,1,,,,,,,,,,0,,77,110
58656,note_on,2,0,3,,,,,,,,,,2,,57,60
58678,note_on,22,0,1,,,,,,,,,,0,,77,0
58680,note_on,2,0,1,,,,,,,,,,0,,76,110
58702,note_on,22,0,1,,,,,,,,,,0,,76,0
58704,note_on,2,0,1,,,,,,,,,,0,,77,110
58726,note_on,22,0,1,,,,,,,,,,0,,77,0
58728,note_on,2,0,1,,,,,,,,,,0,,76,110
58750,note_on,22,0,1,,,,,,,,,,0,,76,0
58750,note_on,94,0,4,,,,,,,,,,5,,57,0
58750,note_on,94,0,2,,,,,,,,,,1,,73,0
58750,note_on,94,0,3,,,,,,,,,,2,,57,0
58752,note_on,0,0,1,,,,,,,,,,0,,74,110
58752,note_on,0,0,1,,,,,,,,,,0,,69,110
58752,note_on,2,0,1,,,,,,,,,,0,,62,110
58752,note_on,0,0,1,,,,,,,,,,0,,65,110
58752,note_on,2,0,4,,,,,,,,,,5,,62,60
58752,note_on,2,0,2,,,,,,,,,,1,,74,110
58752,note_on,2,0,3,,,,,,,,,,2,,62,60
58912,note_on,160,0,2,,,,,,,,,,1,,74,0
58912,note_on,160,0,3,,,,,,,,,,2,,62,0
58912,note_on,160,0,4,,,,,,,,,,5,,62,0
58912,note_on,0,0,1,,,,,,,,,,0,,74,0
58912,note_on,0,0,1,,,,,,,,,,0,,65,0
58912,note_on,0,0,1,,,,,,,,,,0,,69,0
58912,note_on,160,0,1,,,,,,,,,,0,,62,0
58944,control_change,32,0,4,,,,,,,,10,0,5,,,
58944,control_change,32,0,3,,,,,,,,10,127,2,,,
59040,note_on,96,0,4,,,,,,,,,,5,,81,127
59040,note_on,96,0,3,,,,,,,,,,2,,81,127
59134,note_on,94,0,4,,,,,,,,,,5,,81,0
59134,note_on,94,0,3,,,,,,,,,,2,,81,0
59136,note_on,2,0,3,,,,,,,,,,2,,74,127
59136,note_on,2,0,4,,,,,,,,,,5,,74,127
59230,note_on,94,0,4,,,,,,,,,,5,,74,0
59230,note_on,94,0,3,,,,,,,,,,2,,74,0
59232,note_on,17984,0,6,,,,,,,,,,6,,53,75
59232,note_on,17984,0,5,,,,,,,,,,4,,69,60
59232,note_on,2,0,4,,,,,,,,,,5,,69,127
59232,note_on,2,0,3,,,,,,,,,,2,,69,127
59232,note_on,17984,0,7,,,,,,,,,,7,,53,75
59326,note_on,94,0,3,,,,,,,,,,2,,69,0
59326,note_on,94,0,7,,,,,,,,,,7,,53,0
59326,note_on,94,0,4,,,,,,,,,,5,,69,0
59326,note_on,94,0,5,,,,,,,,,,4,,69,0
59326,note_on,94,0,6,,,,,,,,,,6,,53,0
59328,note_on,2,0,5,,,,,,,,,,4,,67,60
59328,note_on,2,0,4,,,,,,,,,,5,,74,127
59328,note_on,2,0,7,,,,,,,,,,7,,52,75
59328,note_on,2,0,6,,,,,,,,,,6,,52,75
59328,note_on,2,0,3,,,,,,,,,,2,,74,127
59398,note_on,70,0,4,,,,,,,,,,5,,74,0
59398,note_on,70,0,3,,,,,,,,,,2,,74,0
59400,note_on,2,0,4,,,,,,,,,,5,,76,127
59400,note_on,2,0,3,,,,,,,,,,2,,76,127
59422,note_on,94,0,5,,,,,,,,,,4,,67,0
59422,note_on,22,0,3,,,,,,,,,,2,,76,0
59422,note_on,22,0,4,,,,,,,,,,5,,76,0
59422,note_on,94,0,6,,,,,,,,,,6,,52,0
59422,note_on,94,0,7,,,,,,,,,,7,,52,0
59424,note_on,2,0,4,,,,,,,,,,5,,77,127
59424,note_on,2,0,5,,,,,,,,,,4,,65,60
59424,note_on,2,0,6,,,,,,,,,,6,,50,75
59424,note_on,2,0,3,,,,,,,,,,2,,77,127
59424,note_on,2,0,7,,,,,,,,,,7,,50,75
59494,note_on,70,0,4,,,,,,,,,,5,,77,0
59494,note_on,70,0,3,,,,,,,,,,2,,77,0
59496,note_on,2,0,4,,,,,,,,,,5,,79,127
59496,note_on,2,0,3,,,,,,,,,,2,,79,127
59518,note_on,22,0,4,,,,,,,,,,5,,79,0
59518,note_on,94,0,5,,,,,,,,,,4,,65,0
59518,note_on,22,0,3,,,,,,,,,,2,,79,0
59518,note_on,94,0,6,,,,,,,,,,6,,50,0
59518,note_on,94,0,7,,,,,,,,,,7,,50,0
59520,note_on,2,0,3,,,,,,,,,,2,,81,127
59520,note_on,2,0,4,,,,,,,,,,5,,81,127
59614,note_on,94,0,3,,,,,,,,,,2,,81,0
59614,note_on,94,0,4,,,,,,,,,,5,,81,0
59616,note_on,98,0,7,,,,,,,,,,7,,57,75
59616,note_on,2,0,4,,,,,,,,,,5,,69,127
59616,note_on,98,0,6,,,,,,,,,,6,,57,75
59616,note_on,98,0,5,,,,,,,,,,4,,61,60
59616,note_on,2,0,3,,,,,,,,,,2,,69,127
59710,note_on,94,0,7,,,,,,,,,,7,,57,0
59710,note_on,94,0,4,,,,,,,,,,5,,69,0
59710,note_on,94,0,6,,,,,,,,,,6,,57,0
59710,note_on,94,0,5,,,,,,,,,,4,,61,0
59710,note_on,94,0,3,,,,,,,,,,2,,69,0
59712,note_on,2,0,3,,,,,,,,,,2,,81,127
59712,note_on,2,0,4,,,,,,,,,,5,,81,127
59712,note_on,2,0,6,,,,,,,,,,6,,53,75
59712,note_on,2,0,5,,,,,,,,,,4,,62,60
59712,note_on,2,0,7,,,,,,,,,,7,,53,75
59806,note_on,94,0,3,,,,,,,,,,2,,81,0
59806,note_on,94,0,5,,,,,,,,,,4,,62,0
59806,note_on,94,0,6,,,,,,,,,,6,,53,0
59806,note_on,94,0,7,,,,,,,,,,7,,53,0
59806,note_on,94,0,4,,,,,,,,,,5,,81,0
59808,note_on,2,0,4,,,,,,,,,,5,,82,127
59808,note_on,2,0,3,,,,,,,,,,2,,82,127
59808,note_on,2,0,6,,,,,,,,,,6,,50,75
59808,note_on,2,0,5,,,,,,,,,,4,,65,60
59808,note_on,2,0,7,,,,,,,,,,7,,50,75
59902,note_on,94,0,6,,,,,,,,,,6,,50,0
59902,note_on,94,0,5,,,,,,,,,,4,,65,0
59902,note_on,94,0,7,,,,,,,,,,7,,50,0
59902,note_on,94,0,4,,,,,,,,,,5,,82,0
59902,note_on,94,0,3,,,,,,,,,,2,,82,0
59904,note_on,2,0,4,,,,,,,,,,5,,79,127
59904,note_on,2,0,3,,,,,,,,,,2,,79,127
59998,note_on,94,0,4,,,,,,,,,,5,,79,0
59998,note_on,94,0,3,,,,,,,,,,2,,79,0
60000,note_on,98,0,6,,,,,,,,,,6,,49,75
60000,note_on,98,0,5,,,,,,,,,,4,,64,60
60000,note_on,2,0,4,,,,,,,,,,5,,69,127
60000,note_on,2,0,3,,,,,,,,,,2,,69,127
60000,note_on,98,0,7,,,,,,,,,,7,,49,75
60094,note_on,94,0,5,,,,,,,,,,4,,64,0
60094,note_on,94,0,4,,,,,,,,,,5,,69,0
60094,note_on,94,0,7,,,,,,,,,,7,,49,0
60094,note_on,94,0,3,,,,,,,,,,2,,69,0
60094,note_on,94,0,6,,,,,,,,,,6,,49,0
60096,note_on,2,0,4,,,,,,,,,,5,,64,127
60096,note_on,2,0,7,,,,,,,,,,7,,47,75
60096,note_on,2,0,3,,,,,,,,,,2,,64,127
60096,note_on,2,0,6,,,,,,,,,,6,,47,75
60096,note_on,2,0,5,,,,,,,,,,4,,62,60
60166,note_on,70,0,4,,,,,,,,,,5,,64,0
60166,note_on,70,0,3,,,,,,,,,,2,,64,0
60168,note_on,2,0,4,,,,,,,,,,5,,65,127
60168,note_on,2,0,3,,,,,,,,,,2,,65,127
60190,note_on,94,0,5,,,,,,,,,,4,,62,0
60190,note_on,22,0,4,,,,,,,,,,5,,65,0
60190,note_on,94,0,6,,,,,,,,,,6,,47,0
60190,note_on,94,0,7,,,,,,,,,,7,,47,0
60190,note_on,22,0,3,,,,,,,,,,2,,65,0
60192,note_on,2,0,7,,,,,,,,,,7,,45,75
60192,note_on,2,0,3,,,,,,,,,,2,,67,127
60192,note_on,2,0,4,,,,,,,,,,5,,67,127
60192,note_on,2,0,6,,,,,,,,,,6,,45,75
60192,note_on,2,0,5,,,,,,,,,,4,,61,60
60262,note_on,70,0,3,,,,,,,,,,2,,67,0
60262,note_on,70,0,4,,,,,,,,,,5,,67,0
60264,note_on,2,0,4,,,,,,,,,,5,,69,127
60264,note_on,2,0,3,,,,,,,,,,2,,69,127
60286,note_on,94,0,7,,,,,,,,,,7,,45,0
60286,note_on,94,0,5,,,,,,,,,,4,,61,0
60286,note_on,94,0,6,,,,,,,,,,6,,45,0
60286,note_on,22,0,4,,,,,,,,,,5,,69,0
60286,note_on,22,0,3,,,,,,,,,,2,,69,0
60288,note_on,2,0,3,,,,,,,,,,2,,65,127
60288,note_on,2,0,4,,,,,,,,,,5,,65,127
60382,note_on,94,0,3,,,,,,,,,,2,,65,0
60382,note_on,94,0,4,,,,,,,,,,5,,65,0
60384,note_on,98,0,7,,,,,,,,,,7,,53,75
60384,note_on,98,0,6,,,,,,,,,,6,,53,75
60384,note_on,2,0,3,,,,,,,,,,2,,62,127
60384,note_on,98,0,5,,,,,,,,,,4,,69,60
60384,note_on,2,0,4,,,,,,,,,,5,,62,127
60478,note_on,94,0,3,,,,,,,,,,2,,62,0
60478,note_on,94,0,4,,,,,,,,,,5,,62,0
60478,note_on,94,0,7,,,,,,,,,,7,,53,0
60478,note_on,94,0,5,,,,,,,,,,4,,69,0
60478,note_on,94,0,6,,,,,,,,,,6,,53,0
60480,note_on,2,0,7,,,,,,,,,,7,,52,75
60480,note_on,2,0,6,,,,,,,,,,6,,52,75
60480,note_on,2,0,5,,,,,,,,,,4,,67,60
60574,note_on,94,0,7,,,,,,,,,,7,,52,0
60574,note_on,94,0,6,,,,,,,,,,6,,52,0
60574,note_on,94,0,5,,,,,,,,,,4,,67,0
60576,note_on,2,0,7,,,,,,,,,,7,,50,75
60576,note_on,98,0,4,,,,,,,,,,5,,81,127
60576,note_on,98,0,3,,,,,,,,,,2,,81,127
60576,note_on,2,0,6,,,,,,,,,,6,,50,75
60576,note_on,2,0,5,,,,,,,,,,4,,65,60
60622,note_on,46,0,4,,,,,,,,,,5,,81,0
60622,note_on,46,0,3,,,,,,,,,,2,,81,0
60624,note_on,2,0,4,,,,,,,,,,5,,77,127
60624,note_on,2,0,3,,,,,,,,,,2,,77,127
60670,note_on,46,0,4,,,,,,,,,,5,,77,0
60670,note_on,94,0,5,,,,,,,,,,4,,65,0
60670,note_on,46,0,3,,,,,,,,,,2,,77,0
60670,note_on,94,0,6,,,,,,,,,,6,,50,0
60670,note_on,94,0,7,,,,,,,,,,7,,50,0
60672,note_on,2,0,3,,,,,,,,,,2,,76,127
60672,note_on,2,0,4,,,,,,,,,,5,,76,127
60766,note_on,94,0,4,,,,,,,,,,5,,76,0
60766,note_on,94,0,3,,,,,,,,,,2,,76,0
60768,note_on,2,0,4,,,,,,,,,,5,,81,127
60768,note_on,98,0,7,,,,,,,,,,7,,49,75
60768,note_on,98,0,5,,,,,,,,,,4,,64,60
60768,note_on,98,0,6,,,,,,,,,,6,,49,75
60768,note_on,2,0,3,,,,,,,,,,2,,81,127
60862,note_on,94,0,3,,,,,,,,,,2,,81,0
60862,note_on,94,0,7,,,,,,,,,,7,,49,0
60862,note_on,94,0,5,,,,,,,,,,4,,64,0
60862,note_on,94,0,6,,,,,,,,,,6,,49,0
60862,note_on,94,0,4,,,,,,,,,,5,,81,0
60864,note_on,2,0,5,,,,,,,,,,4,,62,60
60864,note_on,2,0,6,,,,,,,,,,6,,47,75
60864,note_on,2,0,7,,,,,,,,,,7,,47,75
60958,note_on,94,0,7,,,,,,,,,,7,,47,0
60958,note_on,94,0,6,,,,,,,,,,6,,47,0
60958,note_on,94,0,5,,,,,,,,,,4,,62,0
60960,note_on,98,0,3,,,,,,,,,,2,,81,127
60960,note_on,2,0,5,,,,,,,,,,4,,61,60
60960,note_on,2,0,7,,,,,,,,,,7,,45,75
60960,note_on,98,0,4,,,,,,,,,,5,,81,127
60960,note_on,2,0,6,,,,,,,,,,6,,45,75
61006,note_on,46,0,4,,,,,,,,,,5,,81,0
61006,note_on,46,0,3,,,,,,,,,,2,,81,0
61008,note_on,2,0,4,,,,,,,,,,5,,73,127
61008,note_on,2,0,3,,,,,,,,,,2,,73,127
61054,note_on,46,0,4,,,,,,,,,,5,,73,0
61054,note_on,46,0,3,,,,,,,,,,2,,73,0
61054,note_on,94,0,5,,,,,,,,,,4,,61,0
61054,note_on,94,0,7,,,,,,,,,,7,,45,0
61054,note_on,94,0,6,,,,,,,,,,6,,45,0
61056,note_on,2,0,3,,,,,,,,,,2,,74,127
61056,note_on,2,0,4,,,,,,,,,,5,,74,127
61150,note_on,94,0,4,,,,,,,,,,5,,74,0
61150,note_on,94,0,3,,,,,,,,,,2,,74,0
61152,note_on,98,0,5,,,,,,,,,,4,,62,60
61152,note_on,2,0,4,,,,,,,,,,5,,82,127
61152,note_on,98,0,6,,,,,,,,,,6,,43,75
61152,note_on,98,0,7,,,,,,,,,,7,,43,75
61152,note_on,2,0,3,,,,,,,,,,2,,82,127
61246,note_on,94,0,7,,,,,,,,,,7,,43,0
61246,note_on,94,0,4,,,,,,,,,,5,,82,0
61246,note_on,94,0,3,,,,,,,,,,2,,82,0
61246,note_on,94,0,6,,,,,,,,,,6,,43,0
61246,note_on,94,0,5,,,,,,,,,,4,,62,0
61248,note_on,2,0,6,,,,,,,,,,6,,46,75
61248,note_on,2,0,5,,,,,,,,,,4,,62,60
61248,note_on,2,0,7,,,,,,,,,,7,,46,75
61342,note_on,94,0,6,,,,,,,,,,6,,46,0
61342,note_on,94,0,5,,,,,,,,,,4,,62,0
61342,note_on,94,0,7,,,,,,,,,,7,,46,0
61344,note_on,98,0,3,,,,,,,,,,2,,79,127
61344,note_on,2,0,7,,,,,,,,,,7,,43,75
61344,note_on,2,0,5,,,,,,,,,,4,,58,60
61344,note_on,98,0,4,,,,,,,,,,5,,79,127
61344,note_on,2,0,6,,,,,,,,,,6,,43,75
61390,note_on,46,0,3,,,,,,,,,,2,,79,0
61390,note_on,46,0,4,,,,,,,,,,5,,79,0
61392,note_on,2,0,4,,,,,,,,,,5,,82,127
61392,note_on,2,0,3,,,,,,,,,,2,,82,127
61438,note_on,46,0,4,,,,,,,,,,5,,82,0
61438,note_on,94,0,5,,,,,,,,,,4,,58,0
61438,note_on,94,0,6,,,,,,,,,,6,,43,0
61438,note_on,94,0,7,,,,,,,,,,7,,43,0
61438,note_on,46,0,3,,,,,,,,,,2,,82,0
61440,note_on,2,0,3,,,,,,,,,,2,,73,127
61440,note_on,2,0,6,,,,,,,,,,6,,45,75
61440,note_on,2,0,7,,,,,,,,,,7,,45,75
61440,note_on,2,0,4,,,,,,,,,,5,,73,127
61534,note_on,94,0,3,,,,,,,,,,2,,73,0
61534,note_on,94,0,6,,,,,,,,,,6,,45,0
61534,note_on,94,0,4,,,,,,,,,,5,,73,0
61534,note_on,94,0,7,,,,,,,,,,7,,45,0
61536,note_on,2,0,4,,,,,,,,,,5,,69,127
61536,note_on,2,0,6,,,,,,,,,,6,,57,75
61536,note_on,98,0,5,,,,,,,,,,4,,69,60
61536,note_on,2,0,7,,,,,,,,,,7,,57,75
61536,note_on,2,0,3,,,,,,,,,,2,,69,127
61630,note_on,94,0,3,,,,,,,,,,2,,69,0
61630,note_on,94,0,6,,,,,,,,,,6,,57,0
61630,note_on,94,0,4,,,,,,,,,,5,,69,0
61630,note_on,94,0,5,,,,,,,,,,4,,69,0
61630,note_on,94,0,7,,,,,,,,,,7,,57,0
61632,note_on,2,0,5,,,,,,,,,,4,,70,60
61632,note_on,2,0,7,,,,,,,,,,7,,55,75
61632,note_on,2,0,6,,,,,,,,,,6,,55,75
61726,note_on,94,0,5,,,,,,,,,,4,,70,0
61726,note_on,94,0,7,,,,,,,,,,7,,55,0
61726,note_on,94,0,6,,,,,,,,,,6,,55,0
61728,note_on,98,0,4,,,,,,,,,,5,,81,127
61728,note_on,98,0,3,,,,,,,,,,2,,81,127
61728,note_on,2,0,7,,,,,,,,,,7,,53,75
61728,note_on,2,0,5,,,,,,,,,,4,,69,60
61728,note_on,2,0,6,,,,,,,,,,6,,53,75
61822,note_on,94,0,6,,,,,,,,,,6,,53,0
61822,note_on,94,0,5,,,,,,,,,,4,,69,0
61822,note_on,94,0,7,,,,,,,,,,7,,53,0
61822,note_on,94,0,4,,,,,,,,,,5,,81,0
61822,note_on,94,0,3,,,,,,,,,,2,,81,0
61824,note_on,2,0,4,,,,,,,,,,5,,77,127
61824,note_on,2,0,3,,,,,,,,,,2,,77,127
61920,note_on,98,0,6,,,,,,,,,,6,,57,75
61920,note_on,98,0,5,,,,,,,,,,4,,72,60
61920,note_on,98,0,7,,,,,,,,,,7,,57,75
61966,note_on,142,0,3,,,,,,,,,,2,,77,0
61966,note_on,142,0,4,,,,,,,,,,5,,77,0
61968,note_on,2,0,4,,,,,,,,,,5,,76,127
61968,note_on,2,0,3,,,,,,,,,,2,,76,127
61990,note_on,22,0,4,,,,,,,,,,5,,76,0
61990,note_on,22,0,3,,,,,,,,,,2,,76,0
61992,note_on,2,0,4,,,,,,,,,,5,,77,127
61992,note_on,2,0,3,,,,,,,,,,2,,77,127
62014,note_on,94,0,6,,,,,,,,,,6,,57,0
62014,note_on,94,0,5,,,,,,,,,,4,,72,0
62014,note_on,22,0,4,,,,,,,,,,5,,77,0
62014,note_on,22,0,3,,,,,,,,,,2,,77,0
62014,note_on,94,0,7,,,,,,,,,,7,,57,0
62016,note_on,2,0,5,,,,,,,,,,4,,70,60
62016,note_on,2,0,7,,,,,,,,,,7,,55,75
62016,note_on,2,0,6,,,,,,,,,,6,,55,75
62016,note_on,2,0,4,,,,,,,,,,5,,77,127
62016,note_on,2,0,3,,,,,,,,,,2,,77,127
62110,note_on,94,0,7,,,,,,,,,,7,,55,0
62110,note_on,94,0,5,,,,,,,,,,4,,70,0
62110,note_on,94,0,6,,,,,,,,,,6,,55,0
62112,note_on,2,0,7,,,,,,,,,,7,,53,75
62112,note_on,2,0,6,,,,,,,,,,6,,53,75
62112,note_on,2,0,5,,,,,,,,,,4,,69,60
62158,note_on,142,0,3,,,,,,,,,,2,,77,0
62158,note_on,142,0,4,,,,,,,,,,5,,77,0
62160,note_on,2,0,4,,,,,,,,,,5,,76,127
62160,note_on,2,0,3,,,,,,,,,,2,,76,127
62182,note_on,22,0,4,,,,,,,,,,5,,76,0
62182,note_on,22,0,3,,,,,,,,,,2,,76,0
62184,note_on,2,0,4,,,,,,,,,,5,,77,127
62184,note_on,2,0,3,,,,,,,,,,2,,77,127
62206,note_on,94,0,5,,,,,,,,,,4,,69,0
62206,note_on,22,0,4,,,,,,,,,,5,,77,0
62206,note_on,94,0,6,,,,,,,,,,6,,53,0
62206,note_on,94,0,7,,,,,,,,,,7,,53,0
62206,note_on,22,0,3,,,,,,,,,,2,,77,0
62208,note_on,2,0,4,,,,,,,,,,5,,79,127
62208,note_on,2,0,3,,,,,,,,,,2,,79,127
62302,note_on,94,0,4,,,,,,,,,,5,,79,0
62302,note_on,94,0,3,,,,,,,,,,2,,79,0
62304,note_on,98,0,5,,,,,,,,,,4,,67,60
62304,note_on,98,0,6,,,,,,,,,,6,,52,75
62304,note_on,98,0,7,,,,,,,,,,7,,52,75
62304,note_on,2,0,3,,,,,,,,,,2,,72,127
62304,note_on,2,0,4,,,,,,,,,,5,,72,127
62398,note_on,94,0,4,,,,,,,,,,5,,72,0
62398,note_on,94,0,7,,,,,,,,,,7,,52,0
62398,note_on,94,0,6,,,,,,,,,,6,,52,0
62398,note_on,94,0,3,,,,,,,,,,2,,72,0
62398,note_on,94,0,5,,,,,,,,,,4,,67,0
62400,note_on,2,0,5,,,,,,,,,,4,,65,60
62400,note_on,2,0,6,,,,,,,,,,6,,50,75
62400,note_on,2,0,7,,,,,,,,,,7,,50,75
62494,note_on,94,0,5,,,,,,,,,,4,,65,0
62494,note_on,94,0,6,,,,,,,,,,6,,50,0
62494,note_on,94,0,7,,,,,,,,,,7,,50,0
62496,note_on,2,0,5,,,,,,,,,,4,,64,60
62496,note_on,98,0,3,,,,,,,,,,2,,82,127
62496,note_on,98,0,4,,,,,,,,,,5,,82,127
62496,note_on,2,0,7,,,,,,,,,,7,,48,75
62496,note_on,2,0,6,,,,,,,,,,6,,48,75
62590,note_on,94,0,5,,,,,,,,,,4,,64,0
62590,note_on,94,0,4,,,,,,,,,,5,,82,0
62590,note_on,94,0,7,,,,,,,,,,7,,48,0
62590,note_on,94,0,3,,,,,,,,,,2,,82,0
62590,note_on,94,0,6,,,,,,,,,,6,,48,0
62592,note_on,2,0,4,,,,,,,,,,5,,76,127
62592,note_on,2,0,3,,,,,,,,,,2,,79,127
62688,note_on,98,0,5,,,,,,,,,,4,,67,60
62688,note_on,98,0,6,,,,,,,,,,6,,52,75
62688,note_on,98,0,7,,,,,,,,,,7,,52,75
62734,note_on,142,0,3,,,,,,,,,,2,,79,0
62734,note_on,142,0,4,,,,,,,,,,5,,76,0
62736,note_on,2,0,3,,,,,,,,,,2,,77,127
62736,note_on,2,0,4,,,,,,,,,,5,,74,127
62758,note_on,22,0,3,,,,,,,,,,2,,77,0
62758,note_on,22,0,4,,,,,,,,,,5,,74,0
62760,note_on,2,0,4,,,,,,,,,,5,,76,127
62760,note_on,2,0,3,,,,,,,,,,2,,79,127
62782,note_on,22,0,3,,,,,,,,,,2,,79,0
62782,note_on,94,0,7,,,,,,,,,,7,,52,0
62782,note_on,22,0,4,,,,,,,,,,5,,76,0
62782,note_on,94,0,5,,,,,,,,,,4,,67,0
62782,note_on,94,0,6,,,,,,,,,,6,,52,0
62784,note_on,2,0,5,,,,,,,,,,4,,65,60
62784,note_on,2,0,7,,,,,,,,,,7,,50,75
62784,note_on,2,0,3,,,,,,,,,,2,,79,127
62784,note_on,2,0,4,,,,,,,,,,5,,76,127
62784,note_on,2,0,6,,,,,,,,,,6,,50,75
62878,note_on,94,0,6,,,,,,,,,,6,,50,0
62878,note_on,94,0,5,,,,,,,,,,4,,65,0
62878,note_on,94,0,7,,,,,,,,,,7,,50,0
62880,note_on,2,0,7,,,,,,,,,,7,,48,75
62880,note_on,2,0,6,,,,,,,,,,6,,48,75
62880,note_on,2,0,5,,,,,,,,,,4,,64,60
62926,note_on,142,0,3,,,,,,,,,,2,,79,0
62926,note_on,142,0,4,,,,,,,,,,5,,76,0
62928,note_on,2,0,4,,,,,,,,,,5,,74,127
62928,note_on,2,0,3,,,,,,,,,,2,,77,127
62950,note_on,22,0,4,,,,,,,,,,5,,74,0
62950,note_on,22,0,3,,,,,,,,,,2,,77,0
62952,note_on,2,0,4,,,,,,,,,,5,,76,127
62952,note_on,2,0,3,,,,,,,,,,2,,79,127
62974,note_on,22,0,3,,,,,,,,,,2,,79,0
62974,note_on,94,0,5,,,,,,,,,,4,,64,0
62974,note_on,22,0,4,,,,,,,,,,5,,76,0
62974,note_on,94,0,7,,,,,,,,,,7,,48,0
62974,note_on,94,0,6,,,,,,,,,,6,,48,0
62976,note_on,2,0,4,,,,,,,,,,5,,77,127
62976,note_on,2,0,3,,,,,,,,,,2,,81,127
63070,note_on,94,0,4,,,,,,,,,,5,,77,0
63070,note_on,94,0,3,,,,,,,,,,2,,81,0
63072,note_on,98,0,6,,,,,,,,,,6,,53,75
63072,note_on,2,0,4,,,,,,,,,,5,,77,127
63072,note_on,98,0,5,,,,,,,,,,4,,72,60
63072,note_on,2,0,3,,,,,,,,,,2,,81,127
63072,note_on,98,0,7,,,,,,,,,,7,,53,75
63166,note_on,94,0,3,,,,,,,,,,2,,81,0
63166,note_on,94,0,5,,,,,,,,,,4,,72,0
63166,note_on,94,0,6,,,,,,,,,,6,,53,0
63166,note_on,94,0,4,,,,,,,,,,5,,77,0
63166,note_on,94,0,7,,,,,,,,,,7,,53,0
63168,note_on,2,0,7,,,,,,,,,,7,,57,75
63168,note_on,2,0,4,,,,,,,,,,5,,77,127
63168,note_on,2,0,3,,,,,,,,,,2,,81,127
63168,note_on,2,0,6,,,,,,,,,,6,,57,75
63168,note_on,2,0,5,,,,,,,,,,4,,72,60
63262,note_on,94,0,7,,,,,,,,,,7,,57,0
63262,note_on,94,0,3,,,,,,,,,,2,,81,0
63262,note_on,94,0,5,,,,,,,,,,4,,72,0
63262,note_on,94,0,4,,,,,,,,,,5,,77,0
63262,note_on,94,0,6,,,,,,,,,,6,,57,0
63264,note_on,2,0,5,,,,,,,,,,4,,72,60
63264,note_on,2,0,6,,,,,,,,,,6,,53,75
63264,note_on,2,0,7,,,,,,,,,,7,,53,75
63264,note_on,2,0,4,,,,,,,,,,5,,77,127
63264,note_on,2,0,3,,,,,,,,,,2,,81,127
63358,note_on,94,0,4,,,,,,,,,,5,,77,0
63358,note_on,94,0,6,,,,,,,,,,6,,53,0
63358,note_on,94,0,3,,,,,,,,,,2,,81,0
63358,note_on,94,0,5,,,,,,,,,,4,,72,0
63358,note_on,94,0,7,,,,,,,,,,7,,53,0
63360,note_on,2,0,3,,,,,,,,,,2,,84,127
63360,note_on,2,0,4,,,,,,,,,,5,,81,127
63360,note_on,2,0,6,,,,,,,,,,6,,53,75
63360,note_on,2,0,5,,,,,,,,,,4,,69,60
63360,note_on,2,0,7,,,,,,,,,,7,,53,75
63382,note_on,22,0,4,,,,,,,,,,5,,81,0
63382,note_on,22,0,3,,,,,,,,,,2,,84,0
63384,note_on,2,0,3,,,,,,,,,,2,,82,127
63384,note_on,2,0,4,,,,,,,,,,5,,79,127
63406,note_on,22,0,4,,,,,,,,,,5,,79,0
63406,note_on,22,0,3,,,,,,,,,,2,,82,0
63408,note_on,2,0,4,,,,,,,,,,5,,81,127
63408,note_on,2,0,3,,,,,,,,,,2,,84,127
63430,note_on,22,0,4,,,,,,,,,,5,,81,0
63430,note_on,22,0,3,,,,,,,,,,2,,84,0
63432,note_on,2,0,3,,,,,,,,,,2,,82,127
63432,note_on,2,0,4,,,,,,,,,,5,,79,127
63454,note_on,22,0,3,,,,,,,,,,2,,82,0
63454,note_on,22,0,4,,,,,,,,,,5,,79,0
63456,note_on,2,0,3,,,,,,,,,,2,,81,127
63456,note_on,2,0,4,,,,,,,,,,5,,77,127
63502,note_on,142,0,6,,,,,,,,,,6,,53,0
63502,note_on,142,0,7,,,,,,,,,,7,,53,0
63502,note_on,142,0,5,,,,,,,,,,4,,69,0
63504,note_on,2,0,6,,,,,,,,,,6,,53,75
63504,note_on,2,0,5,,,,,,,,,,4,,69,60
63504,note_on,2,0,7,,,,,,,,,,7,,53,75
63550,note_on,46,0,6,,,,,,,,,,6,,53,0
63550,note_on,94,0,3,,,,,,,,,,2,,81,0
63550,note_on,94,0,4,,,,,,,,,,5,,77,0
63550,note_on,46,0,7,,,,,,,,,,7,,53,0
63550,note_on,46,0,5,,,,,,,,,,4,,69,0
63552,note_on,2,0,3,,,,,,,,,,2,,84,127
63552,note_on,2,0,4,,,,,,,,,,5,,81,127
63552,note_on,2,0,5,,,,,,,,,,4,,69,60
63552,note_on,2,0,6,,,,,,,,,,6,,53,75
63552,note_on,2,0,7,,,,,,,,,,7,,53,75
63574,note_on,22,0,4,,,,,,,,,,5,,81,0
63574,note_on,22,0,3,,,,,,,,,,2,,84,0
63576,note_on,2,0,3,,,,,,,,,,2,,82,127
63576,note_on,2,0,4,,,,,,,,,,5,,79,127
63598,note_on,22,0,4,,,,,,,,,,5,,79,0
63598,note_on,22,0,3,,,,,,,,,,2,,82,0
63600,note_on,2,0,4,,,,,,,,,,5,,81,127
63600,note_on,2,0,3,,,,,,,,,,2,,84,127
63622,note_on,22,0,4,,,,,,,,,,5,,81,0
63622,note_on,22,0,3,,,,,,,,,,2,,84,0
63624,note_on,2,0,4,,,,,,,,,,5,,79,127
63624,note_on,2,0,3,,,,,,,,,,2,,82,127
63646,note_on,22,0,4,,,,,,,,,,5,,79,0
63646,note_on,22,0,3,,,,,,,,,,2,,82,0
63648,note_on,2,0,3,,,,,,,,,,2,,81,127
63648,note_on,2,0,4,,,,,,,,,,5,,77,127
63694,note_on,142,0,5,,,,,,,,,,4,,69,0
63694,note_on,142,0,6,,,,,,,,,,6,,53,0
63694,note_on,142,0,7,,,,,,,,,,7,,53,0
63696,note_on,2,0,6,,,,,,,,,,6,,53,75
63696,note_on,2,0,7,,,,,,,,,,7,,53,75
63696,note_on,2,0,5,,,,,,,,,,4,,69,60
63742,note_on,46,0,5,,,,,,,,,,4,,69,0
63742,note_on,46,0,6,,,,,,,,,,6,,53,0
63742,note_on,94,0,4,,,,,,,,,,5,,77,0
63742,note_on,46,0,7,,,,,,,,,,7,,53,0
63742,note_on,94,0,3,,,,,,,,,,2,,81,0
63744,note_on,2,0,5,,,,,,,,,,4,,69,60
63744,note_on,2,0,6,,,,,,,,,,6,,53,75
63744,note_on,2,0,4,,,,,,,,,,5,,81,127
63744,note_on,2,0,7,,,,,,,,,,7,,53,75
63744,note_on,2,0,3,,,,,,,,,,2,,84,127
63766,note_on,22,0,3,,,,,,,,,,2,,84,0
63766,note_on,22,0,4,,,,,,,,,,5,,81,0
63768,note_on,2,0,3,,,,,,,,,,2,,82,127
63768,note_on,2,0,4,,,,,,,,,,5,,79,127
63790,note_on,22,0,3,,,,,,,,,,2,,82,0
63790,note_on,22,0,4,,,,,,,,,,5,,79,0
63792,note_on,2,0,3,,,,,,,,,,2,,84,127
63792,note_on,2,0,4,,,,,,,,,,5,,81,127
63814,note_on,22,0,4,,,,,,,,,,5,,81,0
63814,note_on,22,0,3,,,,,,,,,,2,,84,0
63816,note_on,2,0,4,,,,,,,,,,5,,79,127
63816,note_on,2,0,3,,,,,,,,,,2,,82,127
63838,note_on,22,0,3,,,,,,,,,,2,,82,0
63838,note_on,22,0,4,,,,,,,,,,5,,79,0
63840,note_on,2,0,4,,,,,,,,,,5,,77,127
63840,note_on,2,0,3,,,,,,,,,,2,,81,127
63886,note_on,142,0,5,,,,,,,,,,4,,69,0
63886,note_on,142,0,6,,,,,,,,,,6,,53,0
63886,note_on,142,0,7,,,,,,,,,,7,,53,0
63888,note_on,2,0,6,,,,,,,,,,6,,53,75
63888,note_on,2,0,5,,,,,,,,,,4,,69,60
63888,note_on,2,0,7,,,,,,,,,,7,,53,75
63934,note_on,94,0,4,,,,,,,,,,5,,77,0
63934,note_on,94,0,3,,,,,,,,,,2,,81,0
63934,note_on,46,0,6,,,,,,,,,,6,,53,0
63934,note_on,46,0,5,,,,,,,,,,4,,69,0
63934,note_on,46,0,7,,,,,,,,,,7,,53,0
63936,note_on,2,0,7,,,,,,,,,,7,,53,75
63936,note_on,2,0,4,,,,,,,,,,5,,81,127
63936,note_on,2,0,6,,,,,,,,,,6,,53,75
63936,note_on,2,0,3,,,,,,,,,,2,,84,127
63936,note_on,2,0,5,,,,,,,,,,4,,69,60
63958,note_on,22,0,4,,,,,,,,,,5,,81,0
63958,note_on,22,0,3,,,,,,,,,,2,,84,0
63960,note_on,2,0,3,,,,,,,,,,2,,82,127
63960,note_on,2,0,4,,,,,,,,,,5,,79,127
63982,note_on,22,0,4,,,,,,,,,,5,,79,0
63982,note_on,22,0,3,,,,,,,,,,2,,82,0
63984,note_on,2,0,3,,,,,,,,,,2,,84,127
63984,note_on,2,0,4,,,,,,,,,,5,,81,127
64006,note_on,22,0,3,,,,,,,,,,2,,84,0
64006,note_on,22,0,4,,,,,,,,,,5,,81,0
64008,note_on,2,0,4,,,,,,,,,,5,,79,127
64008,note_on,2,0,3,,,,,,,,,,2,,82,127
64030,note_on,22,0,4,,,,,,,,,,5,,79,0
64030,note_on,22,0,3,,,,,,,,,,2,,82,0
64032,note_on,2,0,3,,,,,,,,,,2,,81,127
64032,note_on,2,0,4,,,,,,,,,,5,,77,127
64078,note_on,142,0,6,,,,,,,,,,6,,53,0
64078,note_on,142,0,5,,,,,,,,,,4,,69,0
64078,note_on,142,0,7,,,,,,,,,,7,,53,0
64080,note_on,2,0,6,,,,,,,,,,6,,53,75
64080,note_on,2,0,7,,,,,,,,,,7,,53,75
64080,note_on,2,0,5,,,,,,,,,,4,,69,60
64126,note_on,46,0,7,,,,,,,,,,7,,53,0
64126,note_on,46,0,5,,,,,,,,,,4,,69,0
64126,note_on,94,0,4,,,,,,,,,,5,,77,0
64126,note_on,94,0,3,,,,,,,,,,2,,81,0
64126,note_on,46,0,6,,,,,,,,,,6,,53,0
64128,note_on,2,0,7,,,,,,,,,,7,,58,75
64128,note_on,2,0,6,,,,,,,,,,6,,58,75
64128,note_on,2,0,5,,,,,,,,,,4,,65,60
64174,note_on,46,0,7,,,,,,,,,,7,,58,0
64174,note_on,46,0,6,,,,,,,,,,6,,58,0
64174,note_on,46,0,5,,,,,,,,,,4,,65,0
64176,note_on,2,0,7,,,,,,,,,,7,,62,75
64176,note_on,50,0,4,,,,,,,,,,5,,74,127
64176,note_on,2,0,5,,,,,,,,,,4,,74,60
64176,note_on,2,0,6,,,,,,,,,,6,,62,75
64176,note_on,50,0,3,,,,,,,,,,2,,74,127
64222,note_on,46,0,3,,,,,,,,,,2,,74,0
64222,note_on,46,0,6,,,,,,,,,,6,,62,0
64222,note_on,46,0,5,,,,,,,,,,4,,74,0
64222,note_on,46,0,7,,,,,,,,,,7,,62,0
64222,note_on,46,0,4,,,,,,,,,,5,,74,0
64224,note_on,2,0,6,,,,,,,,,,6,,60,75
64224,note_on,2,0,7,,,,,,,,,,7,,60,75
64224,note_on,2,0,5,,,,,,,,,,4,,72,60
64224,note_on,2,0,4,,,,,,,,,,5,,72,127
64224,note_on,2,0,3,,,,,,,,,,2,,72,127
64270,note_on,46,0,3,,,,,,,,,,2,,72,0
64270,note_on,46,0,6,,,,,,,,,,6,,60,0
64270,note_on,46,0,4,,,,,,,,,,5,,72,0
64270,note_on,46,0,7,,,,,,,,,,7,,60,0
64270,note_on,46,0,5,,,,,,,,,,4,,72,0
64272,note_on,2,0,4,,,,,,,,,,5,,70,127
64272,note_on,2,0,5,,,,,,,,,,4,,70,60
64272,note_on,2,0,6,,,,,,,,,,6,,58,75
64272,note_on,2,0,3,,,,,,,,,,2,,70,127
64272,note_on,2,0,7,,,,,,,,,,7,,58,75
64318,note_on,46,0,4,,,,,,,,,,5,,70,0
64318,note_on,46,0,5,,,,,,,,,,4,,70,0
64318,note_on,46,0,7,,,,,,,,,,7,,58,0
64318,note_on,46,0,6,,,,,,,,,,6,,58,0
64318,note_on,46,0,3,,,,,,,,,,2,,70,0
64320,note_on,2,0,5,,,,,,,,,,4,,69,60
64320,note_on,2,0,4,,,,,,,,,,5,,69,127
64320,note_on,2,0,3,,,,,,,,,,2,,69,127
64320,note_on,2,0,6,,,,,,,,,,6,,57,75
64320,note_on,2,0,7,,,,,,,,,,7,,57,75
64366,note_on,46,0,6,,,,,,,,,,6,,57,0
64366,note_on,46,0,5,,,,,,,,,,4,,69,0
64366,note_on,46,0,3,,,,,,,,,,2,,69,0
64366,note_on,46,0,4,,,,,,,,,,5,,69,0
64366,note_on,46,0,7,,,,,,,,,,7,,57,0
64368,note_on,2,0,5,,,,,,,,,,4,,67,60
64368,note_on,2,0,6,,,,,,,,,,6,,55,75
64368,note_on,2,0,4,,,,,,,,,,5,,67,127
64368,note_on,2,0,3,,,,,,,,,,2,,67,127
64368,note_on,2,0,7,,,,,,,,,,7,,55,75
64414,note_on,46,0,3,,,,,,,,,,2,,67,0
64414,note_on,46,0,6,,,,,,,,,,6,,55,0
64414,note_on,46,0,5,,,,,,,,,,4,,67,0
64414,note_on,46,0,7,,,,,,,,,,7,,55,0
64414,note_on,46,0,4,,,,,,,,,,5,,67,0
64416,note_on,2,0,6,,,,,,,,,,6,,53,75
64416,note_on,2,0,4,,,,,,,,,,5,,65,127
64416,note_on,2,0,5,,,,,,,,,,4,,65,60
64416,note_on,2,0,7,,,,,,,,,,7,,53,75
64416,note_on,2,0,3,,,,,,,,,,2,,65,127
64462,note_on,46,0,4,,,,,,,,,,5,,65,0
64462,note_on,46,0,5,,,,,,,,,,4,,65,0
64462,note_on,46,0,6,,,,,,,,,,6,,53,0
64462,note_on,46,0,7,,,,,,,,,,7,,53,0
64462,note_on,46,0,3,,,,,,,,,,2,,65,0
64464,note_on,2,0,6,,,,,,,,,,6,,52,75
64464,note_on,2,0,3,,,,,,,,,,2,,64,127
64464,note_on,2,0,7,,,,,,,,,,7,,52,75
64464,note_on,2,0,5,,,,,,,,,,4,,64,60
64464,note_on,2,0,4,,,,,,,,,,5,,64,127
64510,note_on,46,0,3,,,,,,,,,,2,,64,0
64510,note_on,46,0,6,,,,,,,,,,6,,52,0
64510,note_on,46,0,4,,,,,,,,,,5,,64,0
64510,note_on,46,0,7,,,,,,,,,,7,,52,0
64510,note_on,46,0,5,,,,,,,,,,4,,64,0
64512,note_on,2,0,6,,,,,,,,,,6,,53,75
64512,note_on,2,0,5,,,,,,,,,,4,,65,60
64512,note_on,2,0,7,,,,,,,,,,7,,53,75
64512,note_on,2,0,3,,,,,,,,,,2,,65,127
64512,note_on,2,0,4,,,,,,,,,,5,,65,127
64606,note_on,94,0,6,,,,,,,,,,6,,53,0
64606,note_on,94,0,3,,,,,,,,,,2,,65,0
64606,note_on,94,0,7,,,,,,,,,,7,,53,0
64606,note_on,94,0,5,,,,,,,,,,4,,65,0
64606,note_on,94,0,4,,,,,,,,,,5,,65,0
64608,note_on,2,0,3,,,,,,,,,,2,,57,127
64608,note_on,2,0,7,,,,,,,,,,7,,45,75
64608,note_on,2,0,4,,,,,,,,,,5,,57,127
64608,note_on,2,0,5,,,,,,,,,,4,,57,60
64608,note_on,2,0,6,,,,,,,,,,6,,45,75
64702,note_on,94,0,3,,,,,,,,,,2,,57,0
64702,note_on,94,0,6,,,,,,,,,,6,,45,0
64702,note_on,94,0,5,,,,,,,,,,4,,57,0
64702,note_on,94,0,4,,,,,,,,,,5,,57,0
64702,note_on,94,0,7,,,,,,,,,,7,,45,0
64704,note_on,2,0,4,,,,,,,,,,5,,58,127
64704,note_on,2,0,6,,,,,,,,,,6,,46,75
64704,note_on,2,0,3,,,,,,,,,,2,,58,127
64704,note_on,2,0,5,,,,,,,,,,4,,58,60
64704,note_on,2,0,7,,,,,,,,,,7,,46,75
64798,note_on,94,0,4,,,,,,,,,,5,,58,0
64798,note_on,94,0,7,,,,,,,,,,7,,46,0
64798,note_on,94,0,6,,,,,,,,,,6,,46,0
64798,note_on,94,0,3,,,,,,,,,,2,,58,0
64798,note_on,94,0,5,,,,,,,,,,4,,58,0
64800,note_on,2,0,6,,,,,,,,,,6,,48,75
64800,note_on,2,0,5,,,,,,,,,,4,,60,60
64800,note_on,2,0,7,,,,,,,,,,7,,48,75
64800,note_on,2,0,4,,,,,,,,,,5,,60,127
64800,note_on,2,0,3,,,,,,,,,,2,,60,127
64894,note_on,94,0,4,,,,,,,,,,5,,60,0
64894,note_on,94,0,7,,,,,,,,,,7,,48,0
64894,note_on,94,0,6,,,,,,,,,,6,,48,0
64894,note_on,94,0,3,,,,,,,,,,2,,60,0
64894,note_on,94,0,5,,,,,,,,,,4,,60,0
64896,note_on,2,0,4,,,,,,,,,,5,,65,127
64896,note_on,2,0,7,,,,,,,,,,7,,41,75
64896,note_on,2,0,6,,,,,,,,,,6,,41,75
64896,note_on,2,0,3,,,,,,,,,,2,,65,127
64896,note_on,2,0,5,,,,,,,,,,4,,53,60
64990,note_on,94,0,7,,,,,,,,,,7,,41,0
64990,note_on,94,0,5,,,,,,,,,,4,,53,0
64990,note_on,94,0,6,,,,,,,,,,6,,41,0
64992,note_on,2,0,7,,,,,,,,,,7,,57,75
64992,note_on,2,0,6,,,,,,,,,,6,,57,75
64992,note_on,2,0,5,,,,,,,,,,4,,72,60
65056,note_on,160,0,4,,,,,,,,,,5,,65,0
65056,note_on,160,0,3,,,,,,,,,,2,,65,0
65086,note_on,94,0,7,,,,,,,,,,7,,57,0
65086,note_on,94,0,5,,,,,,,,,,4,,72,0
65086,note_on,94,0,6,,,,,,,,,,6,,57,0
65088,note_on,2,0,7,,,,,,,,,,7,,55,75
65088,note_on,2,0,6,,,,,,,,,,6,,55,75
65088,note_on,2,0,5,,,,,,,,,,4,,70,60
65182,note_on,94,0,5,,,,,,,,,,4,,70,0
65182,note_on,94,0,6,,,,,,,,,,6,,55,0
65182,note_on,94,0,7,,,,,,,,,,7,,55,0
65184,note_on,128,0,4,,,,,,,,,,5,,81,127
65184,note_on,2,0,5,,,,,,,,,,4,,69,60
65184,note_on,2,0,7,,,,,,,,,,7,,53,75
65184,note_on,128,0,3,,,,,,,,,,2,,81,127
65184,note_on,2,0,6,,,,,,,,,,6,,53,75
65230,note_on,46,0,4,,,,,,,,,,5,,81,0
65230,note_on,46,0,3,,,,,,,,,,2,,81,0
65232,note_on,2,0,3,,,,,,,,,,2,,79,127
65232,note_on,2,0,4,,,,,,,,,,5,,79,127
65278,note_on,94,0,7,,,,,,,,,,7,,53,0
65278,note_on,94,0,5,,,,,,,,,,4,,69,0
65278,note_on,46,0,3,,,,,,,,,,2,,79,0
65278,note_on,46,0,4,,,,,,,,,,5,,79,0
65278,note_on,94,0,6,,,,,,,,,,6,,53,0
65280,note_on,2,0,3,,,,,,,,,,2,,79,127
65280,note_on,2,0,4,,,,,,,,,,5,,79,127
65376,note_on,98,0,7,,,,,,,,,,7,,62,75
65376,note_on,98,0,6,,,,,,,,,,6,,62,75
65376,note_on,98,0,5,,,,,,,,,,4,,69,60
65422,note_on,46,0,7,,,,,,,,,,7,,62,0
65422,note_on,46,0,6,,,,,,,,,,6,,62,0
65424,note_on,2,0,7,,,,,,,,,,7,,60,75
65424,note_on,2,0,6,,,,,,,,,,6,,60,75
65440,note_on,160,0,4,,,,,,,,,,5,,79,0
65440,note_on,160,0,3,,,,,,,,,,2,,79,0
65470,note_on,46,0,7,,,,,,,,,,7,,60,0
65470,note_on,46,0,6,,,,,,,,,,6,,60,0
65470,note_on,94,0,5,,,,,,,,,,4,,69,0
65472,note_on,2,0,7,,,,,,,,,,7,,62,75
65472,note_on,2,0,5,,,,,,,,,,4,,69,60
65472,note_on,2,0,6,,,,,,,,,,6,,62,75
65472,note_on,32,0,4,,,,,,,,,,5,,78,127
65472,note_on,32,0,3,,,,,,,,,,2,,78,127
65566,note_on,94,0,5,,,,,,,,,,4,,69,0
65566,note_on,94,0,3,,,,,,,,,,2,,78,0
65566,note_on,94,0,4,,,,,,,,,,5,,78,0
65566,note_on,94,0,7,,,,,,,,,,7,,62,0
65566,note_on,94,0,6,,,,,,,,,,6,,62,0
65568,note_on,2,0,6,,,,,,,,,,6,,50,75
65568,note_on,2,0,4,,,,,,,,,,5,,76,127
65568,note_on,2,0,7,,,,,,,,,,7,,50,75
65568,note_on,2,0,5,,,,,,,,,,4,,69,60
65568,note_on,2,0,3,,,,,,,,,,2,,76,127
65614,note_on,46,0,4,,,,,,,,,,5,,76,0
65614,note_on,46,0,3,,,,,,,,,,2,,76,0
65616,note_on,2,0,4,,,,,,,,,,5,,74,127
65616,note_on,2,0,3,,,,,,,,,,2,,74,127
65662,note_on,94,0,7,,,,,,,,,,7,,50,0
65662,note_on,94,0,5,,,,,,,,,,4,,69,0
65662,note_on,94,0,6,,,,,,,,,,6,,50,0
65662,note_on,46,0,4,,,,,,,,,,5,,74,0
65662,note_on,46,0,3,,,,,,,,,,2,,74,0
65664,note_on,2,0,3,,,,,,,,,,2,,76,127
65664,note_on,2,0,4,,,,,,,,,,5,,76,127
65758,note_on,94,0,3,,,,,,,,,,2,,76,0
65758,note_on,94,0,4,,,,,,,,,,5,,76,0
65760,note_on,98,0,7,,,,,,,,,,7,,62,75
65760,note_on,98,0,5,,,,,,,,,,4,,69,60
65760,note_on,2,0,4,,,,,,,,,,5,,78,127
65760,note_on,98,0,6,,,,,,,,,,6,,62,75
65760,note_on,2,0,3,,,,,,,,,,2,,78,127
65854,note_on,94,0,6,,,,,,,,,,6,,62,0
65854,note_on,94,0,4,,,,,,,,,,5,,78,0
65854,note_on,94,0,5,,,,,,,,,,4,,69,0
65854,note_on,94,0,7,,,,,,,,,,7,,62,0
65854,note_on,94,0,3,,,,,,,,,,2,,78,0
65856,note_on,2,0,5,,,,,,,,,,4,,70,60
65856,note_on,2,0,4,,,,,,,,,,5,,79,127
65856,note_on,2,0,6,,,,,,,,,,6,,55,75
65856,note_on,2,0,3,,,,,,,,,,2,,79,127
65856,note_on,2,0,7,,,,,,,,,,7,,55,75
65950,note_on,94,0,4,,,,,,,,,,5,,79,0
65950,note_on,94,0,3,,,,,,,,,,2,,79,0
65950,note_on,94,0,7,,,,,,,,,,7,,55,0
65950,note_on,94,0,6,,,,,,,,,,6,,55,0
65950,note_on,94,0,5,,,,,,,,,,4,,70,0
65952,note_on,2,0,7,,,,,,,,,,7,,50,75
65952,note_on,2,0,6,,,,,,,,,,6,,50,75
65952,note_on,2,0,5,,,,,,,,,,4,,66,60
65952,note_on,2,0,4,,,,,,,,,,5,,81,127
65952,note_on,2,0,3,,,,,,,,,,2,,81,127
66046,note_on,94,0,5,,,,,,,,,,4,,66,0
66046,note_on,94,0,3,,,,,,,,,,2,,81,0
66046,note_on,94,0,4,,,,,,,,,,5,,81,0
66046,note_on,94,0,6,,,,,,,,,,6,,50,0
66046,note_on,94,0,7,,,,,,,,,,7,,50,0
66048,note_on,2,0,3,,,,,,,,,,2,,82,127
66048,note_on,2,0,6,,,,,,,,,,6,,43,75
66048,note_on,2,0,7,,,,,,,,,,7,,43,75
66048,note_on,2,0,4,,,,,,,,,,5,,82,127
66048,note_on,2,0,5,,,,,,,,,,4,,62,60
66142,note_on,94,0,7,,,,,,,,,,7,,43,0
66142,note_on,94,0,4,,,,,,,,,,5,,82,0
66142,note_on,94,0,5,,,,,,,,,,4,,62,0
66142,note_on,94,0,6,,,,,,,,,,6,,43,0
66142,note_on,94,0,3,,,,,,,,,,2,,82,0
66144,note_on,2,0,7,,,,,,,,,,7,,58,75
66144,note_on,2,0,5,,,,,,,,,,4,,74,60
66144,note_on,2,0,6,,,,,,,,,,6,,58,75
66144,note_on,2,0,3,,,,,,,,,,2,,79,127
66144,note_on,2,0,4,,,,,,,,,,5,,79,127
66238,note_on,94,0,6,,,,,,,,,,6,,58,0
66238,note_on,94,0,3,,,,,,,,,,2,,79,0
66238,note_on,94,0,7,,,,,,,,,,7,,58,0
66238,note_on,94,0,5,,,,,,,,,,4,,74,0
66238,note_on,94,0,4,,,,,,,,,,5,,79,0
66240,note_on,2,0,6,,,,,,,,,,6,,57,75
66240,note_on,2,0,5,,,,,,,,,,4,,72,60
66240,note_on,2,0,7,,,,,,,,,,7,,57,75
66334,note_on,94,0,6,,,,,,,,,,6,,57,0
66334,note_on,94,0,7,,,,,,,,,,7,,57,0
66334,note_on,94,0,5,,,,,,,,,,4,,72,0
66336,note_on,2,0,5,,,,,,,,,,4,,70,60
66336,note_on,98,0,4,,,,,,,,,,5,,79,127
66336,note_on,2,0,7,,,,,,,,,,7,,55,75
66336,note_on,2,0,6,,,,,,,,,,6,,55,75
66336,note_on,98,0,3,,,,,,,,,,2,,79,127
66382,note_on,46,0,4,,,,,,,,,,5,,79,0
66382,note_on,46,0,3,,,,,,,,,,2,,79,0
66384,note_on,2,0,3,,,,,,,,,,2,,77,127
66384,note_on,2,0,4,,,,,,,,,,5,,77,127
66430,note_on,46,0,4,,,,,,,,,,5,,77,0
66430,note_on,46,0,3,,,,,,,,,,2,,77,0
66430,note_on,94,0,7,,,,,,,,,,7,,55,0
66430,note_on,94,0,5,,,,,,,,,,4,,70,0
66430,note_on,94,0,6,,,,,,,,,,6,,55,0
66432,note_on,2,0,4,,,,,,,,,,5,,77,127
66432,note_on,2,0,3,,,,,,,,,,2,,77,127
66528,note_on,98,0,5,,,,,,,,,,4,,67,60
66528,note_on,98,0,6,,,,,,,,,,6,,60,75
66528,note_on,98,0,7,,,,,,,,,,7,,60,75
66574,note_on,46,0,7,,,,,,,,,,7,,60,0
66574,note_on,46,0,6,,,,,,,,,,6,,60,0
66576,note_on,2,0,6,,,,,,,,,,6,,58,75
66576,note_on,2,0,7,,,,,,,,,,7,,58,75
66592,note_on,160,0,3,,,,,,,,,,2,,77,0
66592,note_on,160,0,4,,,,,,,,,,5,,77,0
66622,note_on,46,0,6,,,,,,,,,,6,,58,0
66622,note_on,94,0,5,,,,,,,,,,4,,67,0
66622,note_on,46,0,7,,,,,,,,,,7,,58,0
66624,note_on,32,0,4,,,,,,,,,,5,,76,127
66624,note_on,32,0,3,,,,,,,,,,2,,76,127
66624,note_on,2,0,6,,,,,,,,,,6,,60,75
66624,note_on,2,0,7,,,,,,,,,,7,,60,75
66624,note_on,2,0,5,,,,,,,,,,4,,67,60
66718,note_on,94,0,5,,,,,,,,,,4,,67,0
66718,note_on,94,0,7,,,,,,,,,,7,,60,0
66718,note_on,94,0,6,,,,,,,,,,6,,60,0
66718,note_on,94,0,3,,,,,,,,,,2,,76,0
66718,note_on,94,0,4,,,,,,,,,,5,,76,0
66720,note_on,2,0,7,,,,,,,,,,7,,48,75
66720,note_on,2,0,4,,,,,,,,,,5,,74,127
66720,note_on,2,0,5,,,,,,,,,,4,,67,60
66720,note_on,2,0,3,,,,,,,,,,2,,74,127
66720,note_on,2,0,6,,,,,,,,,,6,,48,75
66766,note_on,46,0,3,,,,,,,,,,2,,74,0
66766,note_on,46,0,4,,,,,,,,,,5,,74,0
66768,note_on,2,0,4,,,,,,,,,,5,,72,127
66768,note_on,2,0,3,,,,,,,,,,2,,72,127
66814,note_on,46,0,4,,,,,,,,,,5,,72,0
66814,note_on,94,0,7,,,,,,,,,,7,,48,0
66814,note_on,94,0,6,,,,,,,,,,6,,48,0
66814,note_on,46,0,3,,,,,,,,,,2,,72,0
66814,note_on,94,0,5,,,,,,,,,,4,,67,0
66816,note_on,2,0,3,,,,,,,,,,2,,74,127
66816,note_on,2,0,4,,,,,,,,,,5,,74,127
66910,note_on,94,0,4,,,,,,,,,,5,,74,0
66910,note_on,94,0,3,,,,,,,,,,2,,74,0
66912,note_on,98,0,7,,,,,,,,,,7,,60,75
66912,note_on,2,0,4,,,,,,,,,,5,,76,127
66912,note_on,98,0,6,,,,,,,,,,6,,60,75
66912,note_on,2,0,3,,,,,,,,,,2,,76,127
66912,note_on,98,0,5,,,,,,,,,,4,,67,60
67006,note_on,94,0,6,,,,,,,,,,6,,60,0
67006,note_on,94,0,4,,,,,,,,,,5,,76,0
67006,note_on,94,0,3,,,,,,,,,,2,,76,0
67006,note_on,94,0,5,,,,,,,,,,4,,67,0
67006,note_on,94,0,7,,,,,,,,,,7,,60,0
67008,note_on,2,0,6,,,,,,,,,,6,,53,75
67008,note_on,2,0,4,,,,,,,,,,5,,77,127
67008,note_on,2,0,3,,,,,,,,,,2,,77,127
67008,note_on,2,0,5,,,,,,,,,,4,,69,60
67008,note_on,2,0,7,,,,,,,,,,7,,53,75
67102,note_on,94,0,6,,,,,,,,,,6,,53,0
67102,note_on,94,0,7,,,,,,,,,,7,,53,0
67102,note_on,94,0,4,,,,,,,,,,5,,77,0
67102,note_on,94,0,5,,,,,,,,,,4,,69,0
67102,note_on,94,0,3,,,,,,,,,,2,,77,0
67104,note_on,2,0,5,,,,,,,,,,4,,64,60
67104,note_on,2,0,7,,,,,,,,,,7,,48,75
67104,note_on,2,0,4,,,,,,,,,,5,,79,127
67104,note_on,2,0,6,,,,,,,,,,6,,48,75
67104,note_on,2,0,3,,,,,,,,,,2,,79,127
67198,note_on,94,0,6,,,,,,,,,,6,,48,0
67198,note_on,94,0,4,,,,,,,,,,5,,79,0
67198,note_on,94,0,5,,,,,,,,,,4,,64,0
67198,note_on,94,0,7,,,,,,,,,,7,,48,0
67198,note_on,94,0,3,,,,,,,,,,2,,79,0
67200,note_on,2,0,3,,,,,,,,,,2,,81,127
67200,note_on,2,0,4,,,,,,,,,,5,,81,127
67200,note_on,2,0,6,,,,,,,,,,6,,41,75
67200,note_on,2,0,7,,,,,,,,,,7,,41,75
67200,note_on,2,0,5,,,,,,,,,,4,,60,60
67294,note_on,94,0,4,,,,,,,,,,5,,81,0
67294,note_on,94,0,6,,,,,,,,,,6,,41,0
67294,note_on,94,0,7,,,,,,,,,,7,,41,0
67294,note_on,94,0,5,,,,,,,,,,4,,60,0
67294,note_on,94,0,3,,,,,,,,,,2,,81,0
67296,note_on,2,0,7,,,,,,,,,,7,,57,75
67296,note_on,2,0,4,,,,,,,,,,5,,77,127
67296,note_on,2,0,5,,,,,,,,,,4,,72,60
67296,note_on,2,0,6,,,,,,,,,,6,,57,75
67296,note_on,2,0,3,,,,,,,,,,2,,77,127
67342,note_on,46,0,5,,,,,,,,,,4,,72,0
67342,note_on,46,0,7,,,,,,,,,,7,,57,0
67342,note_on,46,0,6,,,,,,,,,,6,,57,0
67344,note_on,2,0,7,,,,,,,,,,7,,55,75
67344,note_on,2,0,6,,,,,,,,,,6,,55,75
67344,note_on,2,0,5,,,,,,,,,,4,,70,60
67390,note_on,94,0,4,,,,,,,,,,5,,77,0
67390,note_on,46,0,7,,,,,,,,,,7,,55,0
67390,note_on,94,0,3,,,,,,,,,,2,,77,0
67390,note_on,46,0,5,,,,,,,,,,4,,70,0
67390,note_on,46,0,6,,,,,,,,,,6,,55,0
67392,note_on,2,0,5,,,,,,,,,,4,,69,60
67392,note_on,2,0,6,,,,,,,,,,6,,53,75
67392,note_on,2,0,7,,,,,,,,,,7,,53,75
67486,note_on,94,0,6,,,,,,,,,,6,,53,0
67486,note_on,94,0,7,,,,,,,,,,7,,53,0
67486,note_on,94,0,5,,,,,,,,,,4,,69,0
67488,note_on,2,0,7,,,,,,,,,,7,,46,75
67488,note_on,98,0,3,,,,,,,,,,2,,74,127
67488,note_on,2,0,5,,,,,,,,,,4,,58,60
67488,note_on,98,0,4,,,,,,,,,,5,,74,127
67488,note_on,2,0,6,,,,,,,,,,6,,46,75
67582,note_on,94,0,3,,,,,,,,,,2,,74,0
67582,note_on,94,0,7,,,,,,,,,,7,,46,0
67582,note_on,94,0,5,,,,,,,,,,4,,58,0
67582,note_on,94,0,6,,,,,,,,,,6,,46,0
67582,note_on,94,0,4,,,,,,,,,,5,,74,0
67584,note_on,2,0,6,,,,,,,,,,6,,45,75
67584,note_on,2,0,7,,,,,,,,,,7,,45,75
67584,note_on,2,0,4,,,,,,,,,,5,,57,127
67584,note_on,2,0,3,,,,,,,,,,2,,57,127
67584,note_on,2,0,5,,,,,,,,,,4,,57,60
67678,note_on,94,0,4,,,,,,,,,,5,,57,0
67678,note_on,94,0,3,,,,,,,,,,2,,57,0
67680,note_on,2,0,4,,,,,,,,,,5,,74,127
67680,note_on,2,0,3,,,,,,,,,,2,,74,127
67744,note_on,160,0,7,,,,,,,,,,7,,45,0
67744,note_on,160,0,5,,,,,,,,,,4,,57,0
67744,note_on,160,0,6,,,,,,,,,,6,,45,0
67774,note_on,94,0,3,,,,,,,,,,2,,74,0
67774,note_on,94,0,4,,,,,,,,,,5,,74,0
67776,note_on,2,0,3,,,,,,,,,,2,,73,127
67776,note_on,2,0,4,,,,,,,,,,5,,73,127
67870,note_on,94,0,4,,,,,,,,,,5,,73,0
67870,note_on,94,0,3,,,,,,,,,,2,,73,0
67872,note_on,128,0,6,,,,,,,,,,6,,45,75
67872,note_on,2,0,4,,,,,,,,,,5,,57,127
67872,note_on,128,0,5,,,,,,,,,,4,,57,60
67872,note_on,2,0,3,,,,,,,,,,2,,57,127
67872,note_on,128,0,7,,,,,,,,,,7,,45,75
67966,note_on,94,0,5,,,,,,,,,,4,,57,0
67966,note_on,94,0,6,,,,,,,,,,6,,45,0
67966,note_on,94,0,4,,,,,,,,,,5,,57,0
67966,note_on,94,0,3,,,,,,,,,,2,,57,0
67966,note_on,94,0,7,,,,,,,,,,7,,45,0
67968,note_on,2,0,6,,,,,,,,,,6,,46,75
67968,note_on,2,0,5,,,,,,,,,,4,,58,60
67968,note_on,2,0,4,,,,,,,,,,5,,58,127
67968,note_on,2,0,7,,,,,,,,,,7,,46,75
67968,note_on,2,0,3,,,,,,,,,,2,,58,127
68062,note_on,94,0,3,,,,,,,,,,2,,58,0
68062,note_on,94,0,4,,,,,,,,,,5,,58,0
68064,note_on,2,0,3,,,,,,,,,,2,,82,127
68064,note_on,2,0,4,,,,,,,,,,5,,82,127
68128,note_on,160,0,7,,,,,,,,,,7,,46,0
68128,note_on,160,0,6,,,,,,,,,,6,,46,0
68128,note_on,160,0,5,,,,,,,,,,4,,58,0
68158,note_on,94,0,4,,,,,,,,,,5,,82,0
68158,note_on,94,0,3,,,,,,,,,,2,,82,0
68160,note_on,2,0,4,,,,,,,,,,5,,79,127
68160,note_on,2,0,3,,,,,,,,,,2,,79,127
68254,note_on,94,0,4,,,,,,,,,,5,,79,0
68254,note_on,94,0,3,,,,,,,,,,2,,79,0
68256,note_on,128,0,7,,,,,,,,,,7,,55,75
68256,note_on,128,0,6,,,,,,,,,,6,,55,75
68256,note_on,2,0,3,,,,,,,,,,2,,73,127
68256,note_on,128,0,5,,,,,,,,,,4,,67,60
68256,note_on,2,0,4,,,,,,,,,,5,,73,127
68350,note_on,94,0,7,,,,,,,,,,7,,55,0
68350,note_on,94,0,6,,,,,,,,,,6,,55,0
68350,note_on,94,0,4,,,,,,,,,,5,,73,0
68350,note_on,94,0,5,,,,,,,,,,4,,67,0
68350,note_on,94,0,3,,,,,,,,,,2,,73,0
68352,note_on,2,0,3,,,,,,,,,,2,,74,127
68352,note_on,2,0,5,,,,,,,,,,4,,65,60
68352,note_on,2,0,6,,,,,,,,,,6,,53,75
68352,note_on,2,0,4,,,,,,,,,,5,,74,127
68352,note_on,2,0,7,,,,,,,,,,7,,53,75
68446,note_on,94,0,4,,,,,,,,,,5,,74,0
68446,note_on,94,0,3,,,,,,,,,,2,,74,0
68448,note_on,2,0,3,,,,,,,,,,2,,67,127
68448,note_on,2,0,4,,,,,,,,,,5,,67,127
68512,note_on,160,0,5,,,,,,,,,,4,,65,0
68512,note_on,160,0,7,,,,,,,,,,7,,53,0
68512,note_on,160,0,6,,,,,,,,,,6,,53,0
68542,note_on,94,0,3,,,,,,,,,,2,,67,0
68542,note_on,94,0,4,,,,,,,,,,5,,67,0
68544,note_on,2,0,4,,,,,,,,,,5,,65,127
68544,note_on,2,0,3,,,,,,,,,,2,,65,127
68638,note_on,94,0,4,,,,,,,,,,5,,65,0
68638,note_on,94,0,3,,,,,,,,,,2,,65,0
68640,note_on,2,0,4,,,,,,,,,,5,,56,127
68640,note_on,128,0,7,,,,,,,,,,7,,44,75
68640,note_on,128,0,6,,,,,,,,,,6,,44,75
68640,note_on,2,0,3,,,,,,,,,,2,,56,127
68640,note_on,128,0,5,,,,,,,,,,4,,56,60
68734,note_on,94,0,6,,,,,,,,,,6,,44,0
68734,note_on,94,0,7,,,,,,,,,,7,,44,0
68734,note_on,94,0,4,,,,,,,,,,5,,56,0
68734,note_on,94,0,3,,,,,,,,,,2,,56,0
68734,note_on,94,0,5,,,,,,,,,,4,,56,0
68736,note_on,2,0,4,,,,,,,,,,5,,57,127
68736,note_on,2,0,5,,,,,,,,,,4,,57,60
68736,note_on,2,0,7,,,,,,,,,,7,,45,75
68736,note_on,2,0,6,,,,,,,,,,6,,45,75
68736,note_on,2,0,3,,,,,,,,,,2,,57,127
68830,note_on,94,0,6,,,,,,,,,,6,,45,0
68830,note_on,94,0,5,,,,,,,,,,4,,57,0
68830,note_on,94,0,3,,,,,,,,,,2,,57,0
68830,note_on,94,0,7,,,,,,,,,,7,,45,0
68830,note_on,94,0,4,,,,,,,,,,5,,57,0
68832,note_on,2,0,4,,,,,,,,,,5,,79,127
68832,note_on,2,0,7,,,,,,,,,,7,,61,75
68832,note_on,2,0,3,,,,,,,,,,2,,79,127
68832,note_on,2,0,5,,,,,,,,,,4,,64,60
68832,note_on,2,0,6,,,,,,,,,,6,,61,75
68926,note_on,94,0,7,,,,,,,,,,7,,61,0
68926,note_on,94,0,3,,,,,,,,,,2,,79,0
68926,note_on,94,0,4,,,,,,,,,,5,,79,0
68926,note_on,94,0,5,,,,,,,,,,4,,64,0
68926,note_on,94,0,6,,,,,,,,,,6,,61,0
68928,note_on,2,0,4,,,,,,,,,,5,,77,127
68928,note_on,2,0,5,,,,,,,,,,4,,65,60
68928,note_on,2,0,6,,,,,,,,,,6,,62,75
68928,note_on,2,0,7,,,,,,,,,,7,,62,75
68928,note_on,2,0,3,,,,,,,,,,2,,77,127
68974,note_on,46,0,4,,,,,,,,,,5,,77,0
68974,note_on,46,0,3,,,,,,,,,,2,,77,0
68976,note_on,2,0,3,,,,,,,,,,2,,79,127
68976,note_on,2,0,4,,,,,,,,,,5,,79,127
68998,note_on,22,0,3,,,,,,,,,,2,,79,0
68998,note_on,22,0,4,,,,,,,,,,5,,79,0
69000,note_on,2,0,3,,,,,,,,,,2,,81,127
69000,note_on,2,0,4,,,,,,,,,,5,,81,127
69022,note_on,94,0,6,,,,,,,,,,6,,62,0
69022,note_on,94,0,7,,,,,,,,,,7,,62,0
69022,note_on,94,0,5,,,,,,,,,,4,,65,0
69022,note_on,22,0,4,,,,,,,,,,5,,81,0
69022,note_on,22,0,3,,,,,,,,,,2,,81,0
69024,note_on,2,0,5,,,,,,,,,,4,,64,60
69024,note_on,2,0,6,,,,,,,,,,6,,57,75
69024,note_on,2,0,7,,,,,,,,,,7,,57,75
69024,note_on,2,0,3,,,,,,,,,,2,,73,127
69024,note_on,2,0,4,,,,,,,,,,5,,73,127
69118,note_on,94,0,5,,,,,,,,,,4,,64,0
69118,note_on,94,0,7,,,,,,,,,,7,,57,0
69118,note_on,94,0,3,,,,,,,,,,2,,73,0
69118,note_on,94,0,4,,,,,,,,,,5,,73,0
69118,note_on,94,0,6,,,,,,,,,,6,,57,0
69120,note_on,2,0,7,,,,,,,,,,7,,53,75
69120,note_on,2,0,6,,,,,,,,,,6,,53,75
69120,note_on,2,0,3,,,,,,,,,,2,,74,127
69120,note_on,2,0,5,,,,,,,,,,4,,69,60
69120,note_on,2,0,4,,,,,,,,,,5,,74,127
69214,note_on,94,0,6,,,,,,,,,,6,,53,0
69214,note_on,94,0,3,,,,,,,,,,2,,74,0
69214,note_on,94,0,7,,,,,,,,,,7,,53,0
69214,note_on,94,0,4,,,,,,,,,,5,,74,0
69214,note_on,94,0,5,,,,,,,,,,4,,69,0
69216,note_on,2,0,6,,,,,,,,,,6,,52,75
69216,note_on,2,0,4,,,,,,,,,,5,,79,127
69216,note_on,2,0,7,,,,,,,,,,7,,52,75
69216,note_on,2,0,3,,,,,,,,,,2,,79,127
69216,note_on,2,0,5,,,,,,,,,,4,,61,60
69310,note_on,94,0,5,,,,,,,,,,4,,61,0
69310,note_on,94,0,4,,,,,,,,,,5,,79,0
69310,note_on,94,0,3,,,,,,,,,,2,,79,0
69310,note_on,94,0,6,,,,,,,,,,6,,52,0
69310,note_on,94,0,7,,,,,,,,,,7,,52,0
69312,note_on,2,0,5,,,,,,,,,,4,,57,60
69312,note_on,2,0,7,,,,,,,,,,7,,50,75
69312,note_on,2,0,4,,,,,,,,,,5,,77,127
69312,note_on,2,0,3,,,,,,,,,,2,,77,127
69312,note_on,2,0,6,,,,,,,,,,6,,50,75
69358,note_on,46,0,3,,,,,,,,,,2,,77,0
69358,note_on,46,0,4,,,,,,,,,,5,,77,0
69360,note_on,2,0,4,,,,,,,,,,5,,79,127
69360,note_on,2,0,3,,,,,,,,,,2,,79,127
69382,note_on,22,0,4,,,,,,,,,,5,,79,0
69382,note_on,22,0,3,,,,,,,,,,2,,79,0
69384,note_on,2,0,4,,,,,,,,,,5,,81,127
69384,note_on,2,0,3,,,,,,,,,,2,,81,127
69406,note_on,94,0,6,,,,,,,,,,6,,50,0
69406,note_on,94,0,7,,,,,,,,,,7,,50,0
69406,note_on,22,0,4,,,,,,,,,,5,,81,0
69406,note_on,94,0,5,,,,,,,,,,4,,57,0
69406,note_on,22,0,3,,,,,,,,,,2,,81,0
69408,note_on,2,0,3,,,,,,,,,,2,,61,127
69408,note_on,2,0,5,,,,,,,,,,4,,57,60
69408,note_on,2,0,6,,,,,,,,,,6,,45,75
69408,note_on,2,0,4,,,,,,,,,,5,,61,127
69408,note_on,2,0,7,,,,,,,,,,7,,45,75
69502,note_on,94,0,4,,,,,,,,,,5,,61,0
69502,note_on,94,0,7,,,,,,,,,,7,,45,0
69502,note_on,94,0,6,,,,,,,,,,6,,45,0
69502,note_on,94,0,5,,,,,,,,,,4,,57,0
69502,note_on,94,0,3,,,,,,,,,,2,,61,0
69504,note_on,2,0,3,,,,,,,,,,2,,62,127
69504,note_on,2,0,6,,,,,,,,,,6,,50,75
69504,note_on,2,0,5,,,,,,,,,,4,,53,60
69504,note_on,2,0,7,,,,,,,,,,7,,50,75
69504,note_on,2,0,4,,,,,,,,,,5,,62,127
69598,note_on,94,0,4,,,,,,,,,,5,,62,0
69598,note_on,94,0,5,,,,,,,,,,4,,53,0
69598,note_on,94,0,3,,,,,,,,,,2,,62,0
69598,note_on,94,0,7,,,,,,,,,,7,,50,0
69598,note_on,94,0,6,,,,,,,,,,6,,50,0
69600,note_on,2,0,3,,,,,,,,,,2,,79,127
69600,note_on,2,0,5,,,,,,,,,,4,,64,60
69600,note_on,2,0,7,,,,,,,,,,7,,61,75
69600,note_on,2,0,6,,,,,,,,,,6,,61,75
69600,note_on,2,0,4,,,,,,,,,,5,,79,127
69694,note_on,94,0,3,,,,,,,,,,2,,79,0
69694,note_on,94,0,4,,,,,,,,,,5,,79,0
69694,note_on,94,0,5,,,,,,,,,,4,,64,0
69694,note_on,94,0,6,,,,,,,,,,6,,61,0
69694,note_on,94,0,7,,,,,,,,,,7,,61,0
69696,note_on,2,0,5,,,,,,,,,,4,,65,60
69696,note_on,2,0,7,,,,,,,,,,7,,62,75
69696,note_on,2,0,6,,,,,,,,,,6,,62,75
69696,note_on,2,0,3,,,,,,,,,,2,,77,127
69696,note_on,2,0,4,,,,,,,,,,5,,77,127
69742,note_on,46,0,4,,,,,,,,,,5,,77,0
69742,note_on,46,0,3,,,,,,,,,,2,,77,0
69744,note_on,2,0,3,,,,,,,,,,2,,79,127
69744,note_on,2,0,4,,,,,,,,,,5,,79,127
69766,note_on,22,0,4,,,,,,,,,,5,,79,0
69766,note_on,22,0,3,,,,,,,,,,2,,79,0
69768,note_on,2,0,4,,,,,,,,,,5,,81,127
69768,note_on,2,0,3,,,,,,,,,,2,,81,127
69790,note_on,22,0,4,,,,,,,,,,5,,81,0
69790,note_on,94,0,7,,,,,,,,,,7,,62,0
69790,note_on,94,0,5,,,,,,,,,,4,,65,0
69790,note_on,22,0,3,,,,,,,,,,2,,81,0
69790,note_on,94,0,6,,,,,,,,,,6,,62,0
69792,note_on,2,0,3,,,,,,,,,,2,,73,127
69792,note_on,2,0,5,,,,,,,,,,4,,64,60
69792,note_on,2,0,4,,,,,,,,,,5,,73,127
69792,note_on,2,0,7,,,,,,,,,,7,,57,75
69792,note_on,2,0,6,,,,,,,,,,6,,57,75
69886,note_on,94,0,4,,,,,,,,,,5,,73,0
69886,note_on,94,0,5,,,,,,,,,,4,,64,0
69886,note_on,94,0,6,,,,,,,,,,6,,57,0
69886,note_on,94,0,7,,,,,,,,,,7,,57,0
69886,note_on,94,0,3,,,,,,,,,,2,,73,0
69888,note_on,2,0,7,,,,,,,,,,7,,53,75
69888,note_on,2,0,3,,,,,,,,,,2,,74,127
69888,note_on,2,0,4,,,,,,,,,,5,,74,127
69888,note_on,2,0,5,,,,,,,,,,4,,69,60
69888,note_on,2,0,6,,,,,,,,,,6,,53,75
69982,note_on,94,0,5,,,,,,,,,,4,,69,0
69982,note_on,94,0,7,,,,,,,,,,7,,53,0
69982,note_on,94,0,6,,,,,,,,,,6,,53,0
69982,note_on,94,0,4,,,,,,,,,,5,,74,0
69982,note_on,94,0,3,,,,,,,,,,2,,74,0
69984,note_on,2,0,4,,,,,,,,,,5,,79,127
69984,note_on,2,0,3,,,,,,,,,,2,,79,127
69984,note_on,2,0,6,,,,,,,,,,6,,52,75
69984,note_on,2,0,7,,,,,,,,,,7,,52,75
69984,note_on,2,0,5,,,,,,,,,,4,,61,60
70078,note_on,94,0,7,,,,,,,,,,7,,52,0
70078,note_on,94,0,3,,,,,,,,,,2,,79,0
70078,note_on,94,0,5,,,,,,,,,,4,,61,0
70078,note_on,94,0,4,,,,,,,,,,5,,79,0
70078,note_on,94,0,6,,,,,,,,,,6,,52,0
70080,note_on,2,0,6,,,,,,,,,,6,,50,75
70080,note_on,2,0,7,,,,,,,,,,7,,50,75
70080,note_on,2,0,3,,,,,,,,,,2,,77,127
70080,note_on,2,0,4,,,,,,,,,,5,,77,127
70080,note_on,2,0,5,,,,,,,,,,4,,57,60
70126,note_on,46,0,3,,,,,,,,,,2,,77,0
70126,note_on,46,0,4,,,,,,,,,,5,,77,0
70128,note_on,2,0,4,,,,,,,,,,5,,79,127
70128,note_on,2,0,3,,,,,,,,,,2,,79,127
70150,note_on,22,0,4,,,,,,,,,,5,,79,0
70150,note_on,22,0,3,,,,,,,,,,2,,79,0
70152,note_on,2,0,3,,,,,,,,,,2,,81,127
70152,note_on,2,0,4,,,,,,,,,,5,,81,127
70174,note_on,22,0,3,,,,,,,,,,2,,81,0
70174,note_on,22,0,4,,,,,,,,,,5,,81,0
70174,note_on,94,0,7,,,,,,,,,,7,,50,0
70174,note_on,94,0,6,,,,,,,,,,6,,50,0
70174,note_on,94,0,5,,,,,,,,,,4,,57,0
70176,note_on,2,0,6,,,,,,,,,,6,,45,75
70176,note_on,2,0,7,,,,,,,,,,7,,45,75
70176,note_on,2,0,4,,,,,,,,,,5,,61,127
70176,note_on,2,0,5,,,,,,,,,,4,,57,60
70176,note_on,2,0,3,,,,,,,,,,2,,61,127
70270,note_on,94,0,6,,,,,,,,,,6,,45,0
70270,note_on,94,0,7,,,,,,,,,,7,,45,0
70270,note_on,94,0,4,,,,,,,,,,5,,61,0
70270,note_on,94,0,5,,,,,,,,,,4,,57,0
70270,note_on,94,0,3,,,,,,,,,,2,,61,0
70272,note_on,2,0,3,,,,,,,,,,2,,62,127
70272,note_on,2,0,6,,,,,,,,,,6,,50,75
70272,set_tempo,70272,1,0,1500000,,,,,,,,,,,,
70272,note_on,2,0,7,,,,,,,,,,7,,50,75
70272,note_on,2,0,5,,,,,,,,,,4,,53,60
70272,note_on,2,0,4,,,,,,,,,,5,,62,127
70608,note_on,336,0,3,,,,,,,,,,2,,62,0
70608,note_on,336,0,5,,,,,,,,,,4,,53,0
70608,note_on,336,0,4,,,,,,,,,,5,,62,0
70608,note_on,336,0,6,,,,,,,,,,6,,50,0
70608,note_on,336,0,7,,,,,,,,,,7,,50,0
70656,time_signature,48,1,6,,,4,4,24,8,,,,,,,
70656,time_signature,11744,1,1,,,4,4,24,8,,,,,,,
70656,time_signature,0,1,0,,,4,4,24,8,,,,,,,
70656,set_tempo,384,1,0,1875000,,,,,,,,,,,,
70656,time_signature,48,1,3,,,4,4,24,8,,,,,,,
70656,time_signature,48,1,5,,,4,4,24,8,,,,,,,
70656,time_signature,48,1,4,,,4,4,24,8,,,,,,,
70656,time_signature,48,1,7,,,4,4,24,8,,,,,,,
70656,time_signature,11744,1,2,,,4,4,24,8,,,,,,,
71232,control_change,576,0,1,,,,,,,,10,64,0,,,
71328,note_on,96,0,1,,,,,,,,,,0,,72,110
71422,note_on,94,0,1,,,,,,,,,,0,,72,0
71424,control_change,768,0,3,,,,,,,,10,127,2,,,
71424,note_on,768,0,2,,,,,,,,,,1,,72,60
71424,control_change,768,0,4,,,,,,,,10,127,5,,,
71424,note_on,2,0,1,,,,,,,,,,0,,77,110
71456,note_on,32,0,2,,,,,,,,,,1,,72,0
71470,note_on,46,0,1,,,,,,,,,,0,,77,0
71472,note_on,2,0,1,,,,,,,,,,0,,79,110
71472,note_on,16,0,2,,,,,,,,,,1,,77,60
71504,note_on,32,0,2,,,,,,,,,,1,,77,0
71518,note_on,46,0,1,,,,,,,,,,0,,79,0
71520,note_on,96,0,4,,,,,,,,,,5,,65,127
71520,note_on,2,0,1,,,,,,,,,,0,,81,110
71520,note_on,96,0,3,,,,,,,,,,2,,65,127
71520,note_on,16,0,2,,,,,,,,,,1,,81,60
71552,note_on,32,0,2,,,,,,,,,,1,,81,0
71568,note_on,16,0,2,,,,,,,,,,1,,77,60
71600,note_on,32,0,2,,,,,,,,,,1,,77,0
71614,note_on,94,0,3,,,,,,,,,,2,,65,0
71614,note_on,94,0,4,,,,,,,,,,5,,65,0
71616,note_on,2,0,4,,,,,,,,,,5,,65,127
71616,note_on,2,0,3,,,,,,,,,,2,,65,127
71616,note_on,16,0,2,,,,,,,,,,1,,72,60
71648,note_on,32,0,2,,,,,,,,,,1,,72,0
71664,note_on,16,0,2,,,,,,,,,,1,,77,60
71696,note_on,32,0,2,,,,,,,,,,1,,77,0
71710,note_on,190,0,1,,,,,,,,,,0,,81,0
71710,note_on,94,0,4,,,,,,,,,,5,,65,0
71710,note_on,94,0,3,,,,,,,,,,2,,65,0
71712,note_on,2,0,3,,,,,,,,,,2,,65,127
71712,note_on,2,0,1,,,,,,,,,,0,,77,110
71712,note_on,2,0,4,,,,,,,,,,5,,65,127
71712,note_on,16,0,2,,,,,,,,,,1,,81,60
71744,note_on,32,0,2,,,,,,,,,,1,,81,0
71760,note_on,16,0,2,,,,,,,,,,1,,77,60
71792,note_on,32,0,2,,,,,,,,,,1,,77,0
71806,note_on,94,0,3,,,,,,,,,,2,,65,0
71806,note_on,94,0,4,,,,,,,,,,5,,65,0
71806,note_on,94,0,1,,,,,,,,,,0,,77,0
71808,note_on,16,0,2,,,,,,,,,,1,,76,60
71808,note_on,2,0,1,,,,,,,,,,0,,79,110
71840,note_on,32,0,2,,,,,,,,,,1,,76,0
71854,note_on,46,0,1,,,,,,,,,,0,,79,0
71856,note_on,16,0,2,,,,,,,,,,1,,79,60
71856,note_on,2,0,1,,,,,,,,,,0,,76,110
71888,note_on,32,0,2,,,,,,,,,,1,,79,0
71902,note_on,46,0,1,,,,,,,,,,0,,76,0
71904,note_on,2,0,1,,,,,,,,,,0,,74,110
71904,note_on,98,0,4,,,,,,,,,,5,,60,127
71904,note_on,16,0,2,,,,,,,,,,1,,82,60
71904,note_on,98,0,3,,,,,,,,,,2,,60,127
71914,note_on,10,0,1,,,,,,,,,,0,,74,0
71916,note_on,2,0,1,,,,,,,,,,0,,72,110
71926,note_on,10,0,1,,,,,,,,,,0,,72,0
71928,note_on,2,0,1,,,,,,,,,,0,,74,110
71936,note_on,32,0,2,,,,,,,,,,1,,82,0
71938,note_on,10,0,1,,,,,,,,,,0,,74,0
71940,note_on,2,0,1,,,,,,,,,,0,,72,110
71950,note_on,10,0,1,,,,,,,,,,0,,72,0
71952,note_on,2,0,1,,,,,,,,,,0,,74,110
71952,note_on,16,0,2,,,,,,,,,,1,,79,60
71962,note_on,10,0,1,,,,,,,,,,0,,74,0
71964,note_on,2,0,1,,,,,,,,,,0,,72,110
71974,note_on,10,0,1,,,,,,,,,,0,,72,0
71976,note_on,2,0,1,,,,,,,,,,0,,74,110
71984,note_on,32,0,2,,,,,,,,,,1,,79,0
71986,note_on,10,0,1,,,,,,,,,,0,,74,0
71988,note_on,2,0,1,,,,,,,,,,0,,72,110
71998,note_on,10,0,1,,,,,,,,,,0,,72,0
71998,note_on,94,0,4,,,,,,,,,,5,,60,0
71998,note_on,94,0,3,,,,,,,,,,2,,60,0
72000,note_on,2,0,4,,,,,,,,,,5,,60,127
72000,note_on,2,0,3,,,,,,,,,,2,,60,127
72000,note_on,16,0,2,,,,,,,,,,1,,76,60
72000,note_on,2,0,1,,,,,,,,,,0,,74,110
72010,note_on,10,0,1,,,,,,,,,,0,,74,0
72012,note_on,2,0,1,,,,,,,,,,0,,72,110
72022,note_on,10,0,1,,,,,,,,,,0,,72,0
72024,note_on,2,0,1,,,,,,,,,,0,,74,110
72032,note_on,32,0,2,,,,,,,,,,1,,76,0
72034,note_on,10,0,1,,,,,,,,,,0,,74,0
72036,note_on,2,0,1,,,,,,,,,,0,,72,110
72046,note_on,10,0,1,,,,,,,,,,0,,72,0
72048,note_on,16,0,2,,,,,,,,,,1,,79,60
72048,note_on,2,0,1,,,,,,,,,,0,,74,110
72058,note_on,10,0,1,,,,,,,,,,0,,74,0
72060,note_on,2,0,1,,,,,,,,,,0,,72,110
72070,note_on,10,0,1,,,,,,,,,,0,,72,0
72072,note_on,2,0,1,,,,,,,,,,0,,74,110
72080,note_on,32,0,2,,,,,,,,,,1,,79,0
72082,note_on,10,0,1,,,,,,,,,,0,,74,0
72084,note_on,2,0,1,,,,,,,,,,0,,72,110
72094,note_on,94,0,4,,,,,,,,,,5,,60,0
72094,note_on,10,0,1,,,,,,,,,,0,,72,0
72094,note_on,94,0,3,,,,,,,,,,2,,60,0
72096,note_on,2,0,4,,,,,,,,,,5,,60,127
72096,note_on,2,0,3,,,,,,,,,,2,,60,127
72096,note_on,2,0,1,,,,,,,,,,0,,72,110
72096,note_on,16,0,2,,,,,,,,,,1,,82,60
72128,note_on,32,0,2,,,,,,,,,,1,,82,0
72144,note_on,16,0,2,,,,,,,,,,1,,79,60
72176,note_on,32,0,2,,,,,,,,,,1,,79,0
72190,note_on,94,0,3,,,,,,,,,,2,,60,0
72190,note_on,94,0,4,,,,,,,,,,5,,60,0
72190,note_on,94,0,1,,,,,,,,,,0,,72,0
72192,note_on,2,0,1,,,,,,,,,,0,,76,110
72192,note_on,16,0,2,,,,,,,,,,1,,76,60
72224,note_on,32,0,2,,,,,,,,,,1,,76,0
72240,note_on,16,0,2,,,,,,,,,,1,,79,60
72272,note_on,32,0,2,,,,,,,,,,1,,79,0
72288,note_on,98,0,3,,,,,,,,,,2,,60,127
72288,note_on,16,0,2,,,,,,,,,,1,,82,60
72288,note_on,98,0,4,,,,,,,,,,5,,60,127
72310,note_on,118,0,1,,,,,,,,,,0,,76,0
72312,note_on,2,0,1,,,,,,,,,,0,,77,110
72320,note_on,32,0,2,,,,,,,,,,1,,82,0
72334,note_on,22,0,1,,,,,,,,,,0,,77,0
72336,note_on,16,0,2,,,,,,,,,,1,,79,60
72336,note_on,2,0,1,,,,,,,,,,0,,79,110
72358,note_on,22,0,1,,,,,,,,,,0,,79,0
72360,note_on,2,0,1,,,,,,,,,,0,,81,110
72368,note_on,32,0,2,,,,,,,,,,1,,79,0
72382,note_on,94,0,3,,,,,,,,,,2,,60,0
72382,note_on,94,0,4,,,,,,,,,,5,,60,0
72382,note_on,22,0,1,,,,,,,,,,0,,81,0
72384,note_on,2,0,4,,,,,,,,,,5,,60,127
72384,note_on,2,0,1,,,,,,,,,,0,,82,110
72384,note_on,16,0,2,,,,,,,,,,1,,76,60
72384,note_on,2,0,3,,,,,,,,,,2,,60,127
72416,note_on,32,0,2,,,,,,,,,,1,,76,0
72432,note_on,16,0,2,,,,,,,,,,1,,79,60
72464,note_on,32,0,2,,,,,,,,,,1,,79,0
72478,note_on,94,0,4,,,,,,,,,,5,,60,0
72478,note_on,94,0,1,,,,,,,,,,0,,82,0
72478,note_on,94,0,3,,,,,,,,,,2,,60,0
72480,note_on,2,0,3,,,,,,,,,,2,,60,127
72480,note_on,2,0,4,,,,,,,,,,5,,60,127
72480,note_on,2,0,1,,,,,,,,,,0,,79,110
72480,note_on,16,0,2,,,,,,,,,,1,,82,60
72512,note_on,32,0,2,,,,,,,,,,1,,82,0
72528,note_on,16,0,2,,,,,,,,,,1,,79,60
72560,note_on,32,0,2,,,,,,,,,,1,,79,0
72574,note_on,94,0,3,,,,,,,,,,2,,60,0
72574,note_on,94,0,4,,,,,,,,,,5,,60,0
72574,note_on,94,0,1,,,,,,,,,,0,,79,0
72576,note_on,2,0,1,,,,,,,,,,0,,81,110
72576,note_on,16,0,2,,,,,,,,,,1,,72,60
72586,note_on,10,0,1,,,,,,,,,,0,,81,0
72588,note_on,2,0,1,,,,,,,,,,0,,79,110
72598,note_on,10,0,1,,,,,,,,,,0,,79,0
72600,note_on,2,0,1,,,,,,,,,,0,,81,110
72608,note_on,32,0,2,,,,,,,,,,1,,72,0
72610,note_on,10,0,1,,,,,,,,,,0,,81,0
72612,note_on,2,0,1,,,,,,,,,,0,,79,110
72622,note_on,10,0,1,,,,,,,,,,0,,79,0
72624,note_on,2,0,1,,,,,,,,,,0,,81,110
72624,note_on,16,0,2,,,,,,,,,,1,,77,60
72634,note_on,10,0,1,,,,,,,,,,0,,81,0
72636,note_on,2,0,1,,,,,,,,,,0,,79,110
72656,note_on,32,0,2,,,,,,,,,,1,,77,0
72670,note_on,34,0,1,,,,,,,,,,0,,79,0
72672,note_on,98,0,4,,,,,,,,,,5,,65,127
72672,note_on,2,0,1,,,,,,,,,,0,,77,110
72672,note_on,98,0,3,,,,,,,,,,2,,65,127
72672,note_on,16,0,2,,,,,,,,,,1,,81,60
72704,note_on,32,0,2,,,,,,,,,,1,,81,0
72720,note_on,16,0,2,,,,,,,,,,1,,77,60
72752,note_on,32,0,2,,,,,,,,,,1,,77,0
72766,note_on,94,0,4,,,,,,,,,,5,,65,0
72766,note_on,94,0,3,,,,,,,,,,2,,65,0
72766,note_on,94,0,1,,,,,,,,,,0,,77,0
72768,note_on,2,0,4,,,,,,,,,,5,,65,127
72768,note_on,2,0,3,,,,,,,,,,2,,65,127
72768,note_on,16,0,2,,,,,,,,,,1,,72,60
72800,note_on,32,0,2,,,,,,,,,,1,,72,0
72816,note_on,50,0,1,,,,,,,,,,0,,77,110
72816,note_on,16,0,2,,,,,,,,,,1,,77,60
72848,note_on,32,0,2,,,,,,,,,,1,,77,0
72862,note_on,94,0,4,,,,,,,,,,5,,65,0
72862,note_on,46,0,1,,,,,,,,,,0,,77,0
72862,note_on,94,0,3,,,,,,,,,,2,,65,0
72864,note_on,2,0,1,,,,,,,,,,0,,79,110
72864,note_on,2,0,4,,,,,,,,,,5,,65,127
72864,note_on,2,0,3,,,,,,,,,,2,,65,127
72864,note_on,16,0,2,,,,,,,,,,1,,81,60
72896,note_on,32,0,2,,,,,,,,,,1,,81,0
72912,note_on,16,0,2,,,,,,,,,,1,,77,60
72934,note_on,70,0,1,,,,,,,,,,0,,79,0
72936,note_on,2,0,1,,,,,,,,,,0,,81,110
72944,note_on,32,0,2,,,,,,,,,,1,,77,0
72958,note_on,22,0,1,,,,,,,,,,0,,81,0
72958,note_on,94,0,3,,,,,,,,,,2,,65,0
72958,note_on,94,0,4,,,,,,,,,,5,,65,0
72960,note_on,16,0,2,,,,,,,,,,1,,76,60
72960,note_on,2,0,1,,,,,,,,,,0,,79,110
72992,note_on,32,0,2,,,,,,,,,,1,,76,0
73008,note_on,16,0,2,,,,,,,,,,1,,79,60
73040,note_on,32,0,2,,,,,,,,,,1,,79,0
73054,note_on,94,0,1,,,,,,,,,,0,,79,0
73056,note_on,98,0,4,,,,,,,,,,5,,64,127
73056,note_on,98,0,3,,,,,,,,,,2,,64,127
73056,note_on,16,0,2,,,,,,,,,,1,,84,60
73056,note_on,2,0,1,,,,,,,,,,0,,84,110
73088,note_on,32,0,2,,,,,,,,,,1,,84,0
73104,note_on,16,0,2,,,,,,,,,,1,,79,60
73136,note_on,32,0,2,,,,,,,,,,1,,79,0
73150,note_on,94,0,3,,,,,,,,,,2,,64,0
73150,note_on,94,0,1,,,,,,,,,,0,,84,0
73150,note_on,94,0,4,,,,,,,,,,5,,64,0
73152,note_on,16,0,2,,,,,,,,,,1,,76,60
73152,note_on,2,0,3,,,,,,,,,,2,,64,127
73152,note_on,2,0,1,,,,,,,,,,0,,79,110
73152,note_on,2,0,4,,,,,,,,,,5,,64,127
73184,note_on,32,0,2,,,,,,,,,,1,,76,0
73200,note_on,16,0,2,,,,,,,,,,1,,79,60
73232,note_on,32,0,2,,,,,,,,,,1,,79,0
73246,note_on,94,0,1,,,,,,,,,,0,,79,0
73246,note_on,94,0,4,,,,,,,,,,5,,64,0
73246,note_on,94,0,3,,,,,,,,,,2,,64,0
73248,note_on,2,0,4,,,,,,,,,,5,,64,127
73248,note_on,2,0,1,,,,,,,,,,0,,76,110
73248,note_on,2,0,3,,,,,,,,,,2,,64,127
73248,note_on,16,0,2,,,,,,,,,,1,,84,60
73280,note_on,32,0,2,,,,,,,,,,1,,84,0
73296,note_on,16,0,2,,,,,,,,,,1,,79,60
73328,note_on,32,0,2,,,,,,,,,,1,,79,0
73342,note_on,94,0,1,,,,,,,,,,0,,76,0
73342,note_on,94,0,4,,,,,,,,,,5,,64,0
73342,note_on,94,0,3,,,,,,,,,,2,,64,0
73344,note_on,2,0,1,,,,,,,,,,0,,77,110
73344,note_on,16,0,2,,,,,,,,,,1,,74,60
73376,note_on,32,0,2,,,,,,,,,,1,,74,0
73392,note_on,16,0,2,,,,,,,,,,1,,77,60
73424,note_on,32,0,2,,,,,,,,,,1,,77,0
73438,note_on,94,0,1,,,,,,,,,,0,,77,0
73440,note_on,2,0,1,,,,,,,,,,0,,82,110
73440,note_on,16,0,2,,,,,,,,,,1,,82,60
73440,note_on,98,0,4,,,,,,,,,,5,,62,127
73440,note_on,98,0,3,,,,,,,,,,2,,62,127
73472,note_on,32,0,2,,,,,,,,,,1,,82,0
73488,note_on,16,0,2,,,,,,,,,,1,,77,60
73520,note_on,32,0,2,,,,,,,,,,1,,77,0
73534,note_on,94,0,3,,,,,,,,,,2,,62,0
73534,note_on,94,0,1,,,,,,,,,,0,,82,0
73534,note_on,94,0,4,,,,,,,,,,5,,62,0
73536,note_on,2,0,1,,,,,,,,,,0,,77,110
73536,note_on,2,0,4,,,,,,,,,,5,,62,127
73536,note_on,2,0,3,,,,,,,,,,2,,62,127
73536,note_on,16,0,2,,,,,,,,,,1,,74,60
73568,note_on,32,0,2,,,,,,,,,,1,,74,0
73584,note_on,16,0,2,,,,,,,,,,1,,77,60
73616,note_on,32,0,2,,,,,,,,,,1,,77,0
73630,note_on,94,0,4,,,,,,,,,,5,,62,0
73630,note_on,94,0,1,,,,,,,,,,0,,77,0
73630,note_on,94,0,3,,,,,,,,,,2,,62,0
73632,note_on,16,0,2,,,,,,,,,,1,,82,60
73632,note_on,2,0,1,,,,,,,,,,0,,74,110
73632,note_on,2,0,4,,,,,,,,,,5,,62,127
73632,note_on,2,0,3,,,,,,,,,,2,,62,127
73664,note_on,32,0,2,,,,,,,,,,1,,82,0
73680,note_on,16,0,2,,,,,,,,,,1,,77,60
73712,note_on,32,0,2,,,,,,,,,,1,,77,0
73726,note_on,94,0,4,,,,,,,,,,5,,62,0
73726,note_on,94,0,3,,,,,,,,,,2,,62,0
73726,note_on,94,0,1,,,,,,,,,,0,,74,0
73728,note_on,16,0,2,,,,,,,,,,1,,72,60
73728,note_on,2,0,1,,,,,,,,,,0,,76,110
73738,note_on,10,0,1,,,,,,,,,,0,,76,0
73740,note_on,2,0,1,,,,,,,,,,0,,74,110
73750,note_on,10,0,1,,,,,,,,,,0,,74,0
73752,note_on,2,0,1,,,,,,,,,,0,,76,110
73760,note_on,32,0,2,,,,,,,,,,1,,72,0
73762,note_on,10,0,1,,,,,,,,,,0,,76,0
73764,note_on,2,0,1,,,,,,,,,,0,,74,110
73774,note_on,10,0,1,,,,,,,,,,0,,74,0
73776,note_on,16,0,2,,,,,,,,,,1,,76,60
73776,note_on,2,0,1,,,,,,,,,,0,,76,110
73786,note_on,10,0,1,,,,,,,,,,0,,76,0
73788,note_on,2,0,1,,,,,,,,,,0,,74,110
73798,note_on,10,0,1,,,,,,,,,,0,,74,0
73800,note_on,2,0,1,,,,,,,,,,0,,76,110
73808,note_on,32,0,2,,,,,,,,,,1,,76,0
73810,note_on,10,0,1,,,,,,,,,,0,,76,0
73812,note_on,2,0,1,,,,,,,,,,0,,74,110
73822,note_on,10,0,1,,,,,,,,,,0,,74,0
73824,note_on,98,0,3,,,,,,,,,,2,,60,127
73824,note_on,16,0,2,,,,,,,,,,1,,79,60
73824,note_on,98,0,4,,,,,,,,,,5,,60,127
73824,note_on,2,0,1,,,,,,,,,,0,,72,110
73856,note_on,32,0,2,,,,,,,,,,1,,79,0
73872,note_on,16,0,2,,,,,,,,,,1,,76,60
73904,note_on,32,0,2,,,,,,,,,,1,,76,0
73918,note_on,94,0,3,,,,,,,,,,2,,60,0
73918,note_on,94,0,1,,,,,,,,,,0,,72,0
73918,note_on,94,0,4,,,,,,,,,,5,,60,0
73920,note_on,2,0,3,,,,,,,,,,2,,60,127
73920,note_on,16,0,2,,,,,,,,,,1,,72,60
73920,note_on,2,0,4,,,,,,,,,,5,,60,127
73952,note_on,32,0,2,,,,,,,,,,1,,72,0
73968,note_on,16,0,2,,,,,,,,,,1,,76,60
73968,note_on,50,0,1,,,,,,,,,,0,,79,110
74000,note_on,32,0,2,,,,,,,,,,1,,76,0
74014,note_on,46,0,1,,,,,,,,,,0,,79,0
74014,note_on,94,0,3,,,,,,,,,,2,,60,0
74014,note_on,94,0,4,,,,,,,,,,5,,60,0
74016,note_on,2,0,4,,,,,,,,,,5,,60,127
74016,note_on,2,0,3,,,,,,,,,,2,,60,127
74016,note_on,2,0,1,,,,,,,,,,0,,81,110
74016,note_on,16,0,2,,,,,,,,,,1,,79,60
74048,note_on,32,0,2,,,,,,,,,,1,,79,0
74064,note_on,16,0,2,,,,,,,,,,1,,76,60
74086,note_on,70,0,1,,,,,,,,,,0,,81,0
74088,note_on,2,0,1,,,,,,,,,,0,,82,110
74096,note_on,32,0,2,,,,,,,,,,1,,76,0
74110,note_on,22,0,1,,,,,,,,,,0,,82,0
74110,note_on,94,0,3,,,,,,,,,,2,,60,0
74110,note_on,94,0,4,,,,,,,,,,5,,60,0
74112,note_on,2,0,1,,,,,,,,,,0,,73,110
74112,note_on,16,0,2,,,,,,,,,,1,,73,60
74144,note_on,32,0,2,,,,,,,,,,1,,73,0
74160,note_on,16,0,2,,,,,,,,,,1,,76,60
74192,note_on,32,0,2,,,,,,,,,,1,,76,0
74208,note_on,98,0,4,,,,,,,,,,5,,57,127
74208,note_on,16,0,2,,,,,,,,,,1,,81,60
74208,note_on,98,0,3,,,,,,,,,,2,,57,127
74240,note_on,32,0,2,,,,,,,,,,1,,81,0
74254,note_on,142,0,1,,,,,,,,,,0,,73,0
74256,note_on,16,0,2,,,,,,,,,,1,,76,60
74256,note_on,2,0,1,,,,,,,,,,0,,76,110
74288,note_on,32,0,2,,,,,,,,,,1,,76,0
74302,note_on,94,0,4,,,,,,,,,,5,,57,0
74302,note_on,46,0,1,,,,,,,,,,0,,76,0
74302,note_on,94,0,3,,,,,,,,,,2,,57,0
74304,note_on,2,0,1,,,,,,,,,,0,,81,110
74304,note_on,2,0,3,,,,,,,,,,2,,57,127
74304,note_on,16,0,2,,,,,,,,,,1,,73,60
74304,note_on,2,0,4,,,,,,,,,,5,,57,127
74336,note_on,32,0,2,,,,,,,,,,1,,73,0
74350,note_on,46,0,1,,,,,,,,,,0,,81,0
74352,note_on,2,0,1,,,,,,,,,,0,,79,110
74352,note_on,16,0,2,,,,,,,,,,1,,76,60
74384,note_on,32,0,2,,,,,,,,,,1,,76,0
74398,note_on,94,0,3,,,,,,,,,,2,,57,0
74398,note_on,94,0,4,,,,,,,,,,5,,57,0
74398,note_on,46,0,1,,,,,,,,,,0,,79,0
74400,note_on,2,0,3,,,,,,,,,,2,,57,127
74400,note_on,2,0,1,,,,,,,,,,0,,81,110
74400,note_on,16,0,2,,,,,,,,,,1,,81,60
74400,note_on,2,0,4,,,,,,,,,,5,,57,127
74432,note_on,32,0,2,,,,,,,,,,1,,81,0
74446,note_on,46,0,1,,,,,,,,,,0,,81,0
74448,note_on,2,0,1,,,,,,,,,,0,,76,110
74448,note_on,16,0,2,,,,,,,,,,1,,76,60
74480,note_on,32,0,2,,,,,,,,,,1,,76,0
74494,note_on,94,0,3,,,,,,,,,,2,,57,0
74494,note_on,46,0,1,,,,,,,,,,0,,76,0
74494,note_on,94,0,4,,,,,,,,,,5,,57,0
74496,note_on,2,0,1,,,,,,,,,,0,,77,110
74496,note_on,16,0,2,,,,,,,,,,1,,74,60
74506,note_on,10,0,1,,,,,,,,,,0,,77,0
74508,note_on,2,0,1,,,,,,,,,,0,,76,110
74518,note_on,10,0,1,,,,,,,,,,0,,76,0
74520,note_on,2,0,1,,,,,,,,,,0,,77,110
74528,note_on,32,0,2,,,,,,,,,,1,,74,0
74530,note_on,10,0,1,,,,,,,,,,0,,77,0
74532,note_on,2,0,1,,,,,,,,,,0,,76,110
74542,note_on,10,0,1,,,,,,,,,,0,,76,0
74544,note_on,2,0,1,,,,,,,,,,0,,77,110
74544,note_on,16,0,2,,,,,,,,,,1,,77,60
74554,note_on,10,0,1,,,,,,,,,,0,,77,0
74556,note_on,2,0,1,,,,,,,,,,0,,76,110
74566,note_on,10,0,1,,,,,,,,,,0,,76,0
74568,note_on,2,0,1,,,,,,,,,,0,,77,110
74576,note_on,32,0,2,,,,,,,,,,1,,77,0
74578,note_on,10,0,1,,,,,,,,,,0,,77,0
74580,note_on,2,0,1,,,,,,,,,,0,,76,110
74590,note_on,10,0,1,,,,,,,,,,0,,76,0
74592,note_on,2,0,1,,,,,,,,,,0,,74,110
74592,note_on,98,0,3,,,,,,,,,,2,,62,127
74592,note_on,98,0,4,,,,,,,,,,5,,62,127
74592,note_on,16,0,2,,,,,,,,,,1,,81,60
74624,note_on,32,0,2,,,,,,,,,,1,,81,0
74640,note_on,16,0,2,,,,,,,,,,1,,77,60
74672,note_on,32,0,2,,,,,,,,,,1,,77,0
74686,note_on,94,0,1,,,,,,,,,,0,,74,0
74686,note_on,94,0,3,,,,,,,,,,2,,62,0
74686,note_on,94,0,4,,,,,,,,,,5,,62,0
74688,note_on,16,0,2,,,,,,,,,,1,,74,60
74688,note_on,2,0,4,,,,,,,,,,5,,62,127
74688,note_on,2,0,3,,,,,,,,,,2,,62,127
74720,note_on,32,0,2,,,,,,,,,,1,,74,0
74736,note_on,50,0,1,,,,,,,,,,0,,65,110
74736,note_on,0,0,1,,,,,,,,,,0,,69,110
74736,note_on,16,0,2,,,,,,,,,,1,,77,60
74768,note_on,32,0,2,,,,,,,,,,1,,77,0
74782,note_on,94,0,3,,,,,,,,,,2,,62,0
74782,note_on,0,0,1,,,,,,,,,,0,,69,0
74782,note_on,94,0,4,,,,,,,,,,5,,62,0
74782,note_on,46,0,1,,,,,,,,,,0,,65,0
74784,note_on,2,0,3,,,,,,,,,,2,,62,127
74784,note_on,16,0,2,,,,,,,,,,1,,81,60
74784,note_on,0,0,1,,,,,,,,,,0,,70,110
74784,note_on,2,0,4,,,,,,,,,,5,,62,127
74784,note_on,2,0,1,,,,,,,,,,0,,65,110
74816,note_on,32,0,2,,,,,,,,,,1,,81,0
74832,note_on,16,0,2,,,,,,,,,,1,,77,60
74854,note_on,0,0,1,,,,,,,,,,0,,70,0
74854,note_on,70,0,1,,,,,,,,,,0,,65,0
74856,note_on,2,0,1,,,,,,,,,,0,,72,110
74864,note_on,32,0,2,,,,,,,,,,1,,77,0
74878,note_on,22,0,1,,,,,,,,,,0,,72,0
74878,note_on,94,0,3,,,,,,,,,,2,,62,0
74878,note_on,94,0,4,,,,,,,,,,5,,62,0
74880,note_on,2,0,1,,,,,,,,,,0,,65,110
74880,note_on,0,0,1,,,,,,,,,,0,,72,110
74880,note_on,16,0,2,,,,,,,,,,1,,65,60
74902,note_on,22,0,1,,,,,,,,,,0,,65,0
74902,note_on,0,0,1,,,,,,,,,,0,,72,0
74904,note_on,2,0,1,,,,,,,,,,0,,70,110
74912,note_on,32,0,2,,,,,,,,,,1,,65,0
74926,note_on,22,0,1,,,,,,,,,,0,,70,0
74928,note_on,16,0,2,,,,,,,,,,1,,74,60
74928,note_on,2,0,1,,,,,,,,,,0,,72,110
74950,note_on,22,0,1,,,,,,,,,,0,,72,0
74952,note_on,2,0,1,,,,,,,,,,0,,70,110
74960,note_on,32,0,2,,,,,,,,,,1,,74,0
74974,note_on,22,0,1,,,,,,,,,,0,,70,0
74976,note_on,16,0,2,,,,,,,,,,1,,77,60
74976,note_on,98,0,4,,,,,,,,,,5,,62,127
74976,note_on,2,0,1,,,,,,,,,,0,,72,110
74976,note_on,98,0,3,,,,,,,,,,2,,62,127
74998,note_on,22,0,1,,,,,,,,,,0,,72,0
75000,note_on,2,0,1,,,,,,,,,,0,,70,110
75008,note_on,32,0,2,,,,,,,,,,1,,77,0
75022,note_on,22,0,1,,,,,,,,,,0,,70,0
75024,note_on,16,0,2,,,,,,,,,,1,,74,60
75024,note_on,2,0,1,,,,,,,,,,0,,72,110
75046,note_on,22,0,1,,,,,,,,,,0,,72,0
75048,note_on,2,0,1,,,,,,,,,,0,,70,110
75056,note_on,32,0,2,,,,,,,,,,1,,74,0
75070,note_on,22,0,1,,,,,,,,,,0,,70,0
75070,note_on,94,0,3,,,,,,,,,,2,,62,0
75070,note_on,94,0,4,,,,,,,,,,5,,62,0
75072,note_on,0,0,1,,,,,,,,,,0,,69,110
75072,note_on,2,0,1,,,,,,,,,,0,,65,110
75072,note_on,16,0,2,,,,,,,,,,1,,65,60
75072,note_on,2,0,3,,,,,,,,,,2,,62,127
75072,note_on,2,0,4,,,,,,,,,,5,,62,127
75104,note_on,32,0,2,,,,,,,,,,1,,65,0
75118,note_on,0,0,1,,,,,,,,,,0,,69,0
75118,note_on,46,0,1,,,,,,,,,,0,,65,0
75120,note_on,2,0,1,,,,,,,,,,0,,65,110
75120,note_on,16,0,2,,,,,,,,,,1,,74,60
75120,note_on,0,0,1,,,,,,,,,,0,,69,110
75152,note_on,32,0,2,,,,,,,,,,1,,74,0
75166,note_on,46,0,1,,,,,,,,,,0,,65,0
75166,note_on,94,0,3,,,,,,,,,,2,,62,0
75166,note_on,0,0,1,,,,,,,,,,0,,69,0
75166,note_on,94,0,4,,,,,,,,,,5,,62,0
75168,note_on,2,0,1,,,,,,,,,,0,,65,110
75168,note_on,2,0,3,,,,,,,,,,2,,62,127
75168,note_on,16,0,2,,,,,,,,,,1,,77,60
75168,note_on,0,0,1,,,,,,,,,,0,,70,110
75168,note_on,2,0,4,,,,,,,,,,5,,62,127
75200,note_on,32,0,2,,,,,,,,,,1,,77,0
75216,note_on,16,0,2,,,,,,,,,,1,,74,60
75238,note_on,70,0,1,,,,,,,,,,0,,65,0
75238,note_on,0,0,1,,,,,,,,,,0,,70,0
75240,note_on,2,0,1,,,,,,,,,,0,,72,110
75248,note_on,32,0,2,,,,,,,,,,1,,74,0
75262,note_on,94,0,3,,,,,,,,,,2,,62,0
75262,note_on,94,0,4,,,,,,,,,,5,,62,0
75262,note_on,22,0,1,,,,,,,,,,0,,72,0
75264,note_on,0,0,1,,,,,,,,,,0,,72,110
75264,note_on,16,0,2,,,,,,,,,,1,,65,60
75264,note_on,2,0,1,,,,,,,,,,0,,65,110
75286,note_on,0,0,1,,,,,,,,,,0,,72,0
75286,note_on,22,0,1,,,,,,,,,,0,,65,0
75288,note_on,2,0,1,,,,,,,,,,0,,70,110
75296,note_on,32,0,2,,,,,,,,,,1,,65,0
75310,note_on,22,0,1,,,,,,,,,,0,,70,0
75312,note_on,2,0,1,,,,,,,,,,0,,72,110
75312,note_on,16,0,2,,,,,,,,,,1,,74,60
75334,note_on,22,0,1,,,,,,,,,,0,,72,0
75336,note_on,2,0,1,,,,,,,,,,0,,70,110
75344,note_on,32,0,2,,,,,,,,,,1,,74,0
75358,note_on,22,0,1,,,,,,,,,,0,,70,0
75360,note_on,16,0,2,,,,,,,,,,1,,77,60
75360,note_on,98,0,3,,,,,,,,,,2,,62,127
75360,note_on,98,0,4,,,,,,,,,,5,,62,127
75360,note_on,2,0,1,,,,,,,,,,0,,72,110
75382,note_on,22,0,1,,,,,,,,,,0,,72,0
75384,note_on,2,0,1,,,,,,,,,,0,,70,110
75392,note_on,32,0,2,,,,,,,,,,1,,77,0
75406,note_on,22,0,1,,,,,,,,,,0,,70,0
75408,note_on,16,0,2,,,,,,,,,,1,,74,60
75408,note_on,2,0,1,,,,,,,,,,0,,72,110
75430,note_on,22,0,1,,,,,,,,,,0,,72,0
75432,note_on,2,0,1,,,,,,,,,,0,,70,110
75440,note_on,32,0,2,,,,,,,,,,1,,74,0
75454,note_on,22,0,1,,,,,,,,,,0,,70,0
75454,note_on,94,0,4,,,,,,,,,,5,,62,0
75454,note_on,94,0,3,,,,,,,,,,2,,62,0
75456,note_on,2,0,1,,,,,,,,,,0,,65,110
75456,note_on,2,0,3,,,,,,,,,,2,,62,127
75456,note_on,16,0,2,,,,,,,,,,1,,65,60
75456,note_on,0,0,1,,,,,,,,,,0,,69,110
75456,note_on,2,0,4,,,,,,,,,,5,,62,127
75488,note_on,32,0,2,,,,,,,,,,1,,65,0
75502,note_on,46,0,1,,,,,,,,,,0,,65,0
75502,note_on,0,0,1,,,,,,,,,,0,,69,0
75504,note_on,2,0,1,,,,,,,,,,0,,81,110
75504,note_on,16,0,2,,,,,,,,,,1,,74,60
75536,note_on,32,0,2,,,,,,,,,,1,,74,0
75550,note_on,46,0,1,,,,,,,,,,0,,81,0
75550,note_on,94,0,3,,,,,,,,,,2,,62,0
75550,note_on,94,0,4,,,,,,,,,,5,,62,0
75552,note_on,2,0,3,,,,,,,,,,2,,62,127
75552,note_on,2,0,1,,,,,,,,,,0,,77,110
75552,note_on,16,0,2,,,,,,,,,,1,,77,60
75552,note_on,2,0,4,,,,,,,,,,5,,62,127
75584,note_on,32,0,2,,,,,,,,,,1,,77,0
75598,note_on,46,0,1,,,,,,,,,,0,,77,0
75600,note_on,16,0,2,,,,,,,,,,1,,74,60
75600,note_on,2,0,1,,,,,,,,,,0,,74,110
75632,note_on,32,0,2,,,,,,,,,,1,,74,0
75646,note_on,94,0,4,,,,,,,,,,5,,62,0
75646,note_on,94,0,3,,,,,,,,,,2,,62,0
75646,note_on,46,0,1,,,,,,,,,,0,,74,0
75648,note_on,16,0,2,,,,,,,,,,1,,73,60
75648,note_on,2,0,1,,,,,,,,,,0,,73,110
75680,note_on,32,0,2,,,,,,,,,,1,,73,0
75696,note_on,16,0,2,,,,,,,,,,1,,76,60
75718,note_on,70,0,1,,,,,,,,,,0,,73,0
75720,note_on,2,0,1,,,,,,,,,,0,,74,110
75728,note_on,32,0,2,,,,,,,,,,1,,76,0
75742,note_on,22,0,1,,,,,,,,,,0,,74,0
75744,note_on,16,0,2,,,,,,,,,,1,,81,60
75744,note_on,98,0,3,,,,,,,,,,2,,69,127
75744,note_on,2,0,1,,,,,,,,,,0,,69,110
75744,note_on,98,0,4,,,,,,,,,,5,,69,127
75776,note_on,32,0,2,,,,,,,,,,1,,81,0
75792,note_on,16,0,2,,,,,,,,,,1,,76,60
75814,note_on,70,0,1,,,,,,,,,,0,,69,0
75816,note_on,2,0,1,,,,,,,,,,0,,79,110
75824,note_on,32,0,2,,,,,,,,,,1,,76,0
75838,note_on,94,0,4,,,,,,,,,,5,,69,0
75838,note_on,94,0,3,,,,,,,,,,2,,69,0
75838,note_on,22,0,1,,,,,,,,,,0,,79,0
75840,note_on,2,0,3,,,,,,,,,,2,,74,127
75840,note_on,16,0,2,,,,,,,,,,1,,74,60
75840,note_on,2,0,1,,,,,,,,,,0,,79,110
75840,note_on,2,0,4,,,,,,,,,,5,,74,127
75862,note_on,22,0,1,,,,,,,,,,0,,79,0
75864,note_on,2,0,1,,,,,,,,,,0,,77,110
75872,note_on,32,0,2,,,,,,,,,,1,,74,0
75886,note_on,22,0,1,,,,,,,,,,0,,77,0
75888,note_on,2,0,1,,,,,,,,,,0,,79,110
75888,note_on,16,0,2,,,,,,,,,,1,,77,60
75910,note_on,22,0,1,,,,,,,,,,0,,79,0
75912,note_on,2,0,1,,,,,,,,,,0,,77,110
75920,note_on,32,0,2,,,,,,,,,,1,,77,0
75934,note_on,22,0,1,,,,,,,,,,0,,77,0
75934,note_on,94,0,3,,,,,,,,,,2,,74,0
75934,note_on,94,0,4,,,,,,,,,,5,,74,0
75936,note_on,2,0,1,,,,,,,,,,0,,79,110
75936,note_on,2,0,3,,,,,,,,,,2,,62,127
75936,note_on,2,0,4,,,,,,,,,,5,,62,127
75936,note_on,16,0,2,,,,,,,,,,1,,81,60
75958,note_on,22,0,1,,,,,,,,,,0,,79,0
75960,note_on,2,0,1,,,,,,,,,,0,,77,110
75968,note_on,32,0,2,,,,,,,,,,1,,81,0
75982,note_on,22,0,1,,,,,,,,,,0,,77,0
75984,note_on,16,0,2,,,,,,,,,,1,,77,60
75984,note_on,2,0,1,,,,,,,,,,0,,79,110
76006,note_on,22,0,1,,,,,,,,,,0,,79,0
76008,note_on,2,0,1,,,,,,,,,,0,,77,110
76016,note_on,32,0,2,,,,,,,,,,1,,77,0
76030,note_on,94,0,4,,,,,,,,,,5,,62,0
76030,note_on,94,0,3,,,,,,,,,,2,,62,0
76030,note_on,22,0,1,,,,,,,,,,0,,77,0
76032,note_on,16,0,2,,,,,,,,,,1,,73,60
76032,note_on,2,0,1,,,,,,,,,,0,,79,110
76054,note_on,22,0,1,,,,,,,,,,0,,79,0
76056,note_on,2,0,1,,,,,,,,,,0,,77,110
76064,note_on,32,0,2,,,,,,,,,,1,,73,0
76078,note_on,22,0,1,,,,,,,,,,0,,77,0
76080,note_on,2,0,1,,,,,,,,,,0,,79,110
76080,note_on,16,0,2,,,,,,,,,,1,,76,60
76102,note_on,22,0,1,,,,,,,,,,0,,79,0
76104,note_on,2,0,1,,,,,,,,,,0,,77,110
76112,note_on,32,0,2,,,,,,,,,,1,,76,0
76126,note_on,22,0,1,,,,,,,,,,0,,77,0
76128,note_on,98,0,4,,,,,,,,,,5,,69,127
76128,note_on,2,0,1,,,,,,,,,,0,,79,110
76128,note_on,98,0,3,,,,,,,,,,2,,69,127
76128,note_on,16,0,2,,,,,,,,,,1,,81,60
76150,note_on,22,0,1,,,,,,,,,,0,,79,0
76152,note_on,2,0,1,,,,,,,,,,0,,77,110
76160,note_on,32,0,2,,,,,,,,,,1,,81,0
76174,note_on,22,0,1,,,,,,,,,,0,,77,0
76176,note_on,0,0,1,,,,,,,,,,0,,79,110
76176,note_on,2,0,1,,,,,,,,,,0,,77,110
76176,note_on,16,0,2,,,,,,,,,,1,,76,60
76198,note_on,22,0,1,,,,,,,,,,0,,77,0
76198,note_on,0,0,1,,,,,,,,,,0,,79,0
76200,note_on,2,0,1,,,,,,,,,,0,,76,110
76208,note_on,32,0,2,,,,,,,,,,1,,76,0
76222,note_on,22,0,1,,,,,,,,,,0,,76,0
76222,note_on,94,0,3,,,,,,,,,,2,,69,0
76222,note_on,94,0,4,,,,,,,,,,5,,69,0
76224,note_on,2,0,1,,,,,,,,,,0,,73,110
76224,note_on,2,0,3,,,,,,,,,,2,,69,127
76224,note_on,2,0,4,,,,,,,,,,5,,69,127
76224,note_on,16,0,2,,,,,,,,,,1,,73,60
76246,note_on,22,0,1,,,,,,,,,,0,,73,0
76248,note_on,2,0,1,,,,,,,,,,0,,69,110
76256,note_on,32,0,2,,,,,,,,,,1,,73,0
76270,note_on,22,0,1,,,,,,,,,,0,,69,0
76272,note_on,16,0,2,,,,,,,,,,1,,76,60
76272,note_on,2,0,1,,,,,,,,,,0,,79,110
76294,note_on,22,0,1,,,,,,,,,,0,,79,0
76296,note_on,2,0,1,,,,,,,,,,0,,77,110
76304,note_on,32,0,2,,,,,,,,,,1,,76,0
76318,note_on,22,0,1,,,,,,,,,,0,,77,0
76318,note_on,94,0,4,,,,,,,,,,5,,69,0
76318,note_on,94,0,3,,,,,,,,,,2,,69,0
76320,note_on,2,0,1,,,,,,,,,,0,,76,110
76320,note_on,2,0,3,,,,,,,,,,2,,57,127
76320,note_on,2,0,4,,,,,,,,,,5,,57,127
76320,note_on,16,0,2,,,,,,,,,,1,,81,60
76342,note_on,22,0,1,,,,,,,,,,0,,76,0
76344,note_on,2,0,1,,,,,,,,,,0,,77,110
76352,note_on,32,0,2,,,,,,,,,,1,,81,0
76366,note_on,22,0,1,,,,,,,,,,0,,77,0
76368,note_on,16,0,2,,,,,,,,,,1,,76,60
76368,note_on,2,0,1,,,,,,,,,,0,,76,110
76390,note_on,22,0,1,,,,,,,,,,0,,76,0
76392,note_on,2,0,1,,,,,,,,,,0,,77,110
76400,note_on,32,0,2,,,,,,,,,,1,,76,0
76414,note_on,22,0,1,,,,,,,,,,0,,77,0
76414,note_on,94,0,3,,,,,,,,,,2,,57,0
76414,note_on,94,0,4,,,,,,,,,,5,,57,0
76416,note_on,2,0,1,,,,,,,,,,0,,76,110
76416,note_on,2,0,3,,,,,,,,,,2,,62,127
76416,note_on,2,0,4,,,,,,,,,,5,,62,127
76416,note_on,16,0,2,,,,,,,,,,1,,74,60
76416,note_on,0,0,2,,,,,,,,,,1,,77,60
76416,note_on,0,0,2,,,,,,,,,,1,,81,60
76438,note_on,22,0,1,,,,,,,,,,0,,76,0
76440,note_on,2,0,1,,,,,,,,,,0,,77,110
76462,note_on,22,0,1,,,,,,,,,,0,,77,0
76464,note_on,2,0,1,,,,,,,,,,0,,76,110
76486,note_on,22,0,1,,,,,,,,,,0,,76,0
76488,note_on,2,0,1,,,,,,,,,,0,,77,110
76510,note_on,22,0,1,,,,,,,,,,0,,77,0
76512,note_on,2,0,1,,,,,,,,,,0,,76,110
76534,note_on,22,0,1,,,,,,,,,,0,,76,0
76536,note_on,2,0,1,,,,,,,,,,0,,74,110
76576,note_on,0,0,2,,,,,,,,,,1,,81,0
76576,note_on,0,0,2,,,,,,,,,,1,,77,0
76576,note_on,160,0,3,,,,,,,,,,2,,62,0
76576,note_on,160,0,2,,,,,,,,,,1,,74,0
76576,note_on,160,0,4,,,,,,,,,,5,,62,0
76702,note_on,166,0,1,,,,,,,,,,0,,74,0
76704,note_on,2,0,1,,,,,,,,,,0,,72,110
76798,note_on,94,0,1,,,,,,,,,,0,,72,0
76800,note_on,224,0,2,,,,,,,,,,1,,72,60
76800,note_on,2,0,1,,,,,,,,,,0,,77,110
76832,note_on,32,0,2,,,,,,,,,,1,,72,0
76846,note_on,46,0,1,,,,,,,,,,0,,77,0
76848,note_on,16,0,2,,,,,,,,,,1,,77,60
76848,note_on,2,0,1,,,,,,,,,,0,,79,110
76880,note_on,32,0,2,,,,,,,,,,1,,77,0
76894,note_on,46,0,1,,,,,,,,,,0,,79,0
76896,note_on,16,0,2,,,,,,,,,,1,,81,60
76896,note_on,320,0,3,,,,,,,,,,2,,65,127
76896,note_on,320,0,4,,,,,,,,,,5,,65,127
76896,note_on,2,0,1,,,,,,,,,,0,,81,110
76928,note_on,32,0,2,,,,,,,,,,1,,81,0
76944,note_on,16,0,2,,,,,,,,,,1,,77,60
76976,note_on,32,0,2,,,,,,,,,,1,,77,0
76990,note_on,94,0,4,,,,,,,,,,5,,65,0
76990,note_on,94,0,3,,,,,,,,,,2,,65,0
76992,note_on,2,0,3,,,,,,,,,,2,,65,127
76992,note_on,2,0,4,,,,,,,,,,5,,65,127
76992,note_on,16,0,2,,,,,,,,,,1,,72,60
77024,note_on,32,0,2,,,,,,,,,,1,,72,0
77040,note_on,16,0,2,,,,,,,,,,1,,77,60
77072,note_on,32,0,2,,,,,,,,,,1,,77,0
77086,note_on,94,0,3,,,,,,,,,,2,,65,0
77086,note_on,94,0,4,,,,,,,,,,5,,65,0
77086,note_on,190,0,1,,,,,,,,,,0,,81,0
77088,note_on,16,0,2,,,,,,,,,,1,,81,60
77088,note_on,2,0,3,,,,,,,,,,2,,65,127
77088,note_on,2,0,4,,,,,,,,,,5,,65,127
77088,note_on,2,0,1,,,,,,,,,,0,,77,110
77120,note_on,32,0,2,,,,,,,,,,1,,81,0
77136,note_on,16,0,2,,,,,,,,,,1,,77,60
77168,note_on,32,0,2,,,,,,,,,,1,,77,0
77182,note_on,94,0,1,,,,,,,,,,0,,77,0
77182,note_on,94,0,4,,,,,,,,,,5,,65,0
77182,note_on,94,0,3,,,,,,,,,,2,,65,0
77184,note_on,16,0,2,,,,,,,,,,1,,76,60
77184,note_on,2,0,1,,,,,,,,,,0,,79,110
77216,note_on,32,0,2,,,,,,,,,,1,,76,0
77230,note_on,46,0,1,,,,,,,,,,0,,79,0
77232,note_on,2,0,1,,,,,,,,,,0,,76,110
77232,note_on,16,0,2,,,,,,,,,,1,,79,60
77264,note_on,32,0,2,,,,,,,,,,1,,79,0
77278,note_on,46,0,1,,,,,,,,,,0,,76,0
77280,note_on,98,0,4,,,,,,,,,,5,,60,127
77280,note_on,16,0,2,,,,,,,,,,1,,82,60
77280,note_on,2,0,1,,,,,,,,,,0,,74,110
77280,note_on,98,0,3,,,,,,,,,,2,,60,127
77290,note_on,10,0,1,,,,,,,,,,0,,74,0
77292,note_on,2,0,1,,,,,,,,,,0,,72,110
77302,note_on,10,0,1,,,,,,,,,,0,,72,0
77304,note_on,2,0,1,,,,,,,,,,0,,74,110
77312,note_on,32,0,2,,,,,,,,,,1,,82,0
77314,note_on,10,0,1,,,,,,,,,,0,,74,0
77316,note_on,2,0,1,,,,,,,,,,0,,72,110
77326,note_on,10,0,1,,,,,,,,,,0,,72,0
77328,note_on,2,0,1,,,,,,,,,,0,,74,110
77328,note_on,16,0,2,,,,,,,,,,1,,79,60
77338,note_on,10,0,1,,,,,,,,,,0,,74,0
77340,note_on,2,0,1,,,,,,,,,,0,,72,110
77350,note_on,10,0,1,,,,,,,,,,0,,72,0
77352,note_on,2,0,1,,,,,,,,,,0,,74,110
77360,note_on,32,0,2,,,,,,,,,,1,,79,0
77362,note_on,10,0,1,,,,,,,,,,0,,74,0
77364,note_on,2,0,1,,,,,,,,,,0,,72,110
77374,note_on,94,0,4,,,,,,,,,,5,,60,0
77374,note_on,94,0,3,,,,,,,,,,2,,60,0
77374,note_on,10,0,1,,,,,,,,,,0,,72,0
77376,note_on,16,0,2,,,,,,,,,,1,,76,60
77376,note_on,2,0,4,,,,,,,,,,5,,60,127
77376,note_on,2,0,3,,,,,,,,,,2,,60,127
77376,note_on,2,0,1,,,,,,,,,,0,,74,110
77386,note_on,10,0,1,,,,,,,,,,0,,74,0
77388,note_on,2,0,1,,,,,,,,,,0,,72,110
77398,note_on,10,0,1,,,,,,,,,,0,,72,0
77400,note_on,2,0,1,,,,,,,,,,0,,74,110
77408,note_on,32,0,2,,,,,,,,,,1,,76,0
77410,note_on,10,0,1,,,,,,,,,,0,,74,0
77412,note_on,2,0,1,,,,,,,,,,0,,72,110
77422,note_on,10,0,1,,,,,,,,,,0,,72,0
77424,note_on,16,0,2,,,,,,,,,,1,,79,60
77424,note_on,2,0,1,,,,,,,,,,0,,74,110
77434,note_on,10,0,1,,,,,,,,,,0,,74,0
77436,note_on,2,0,1,,,,,,,,,,0,,72,110
77446,note_on,10,0,1,,,,,,,,,,0,,72,0
77448,note_on,2,0,1,,,,,,,,,,0,,74,110
77456,note_on,32,0,2,,,,,,,,,,1,,79,0
77458,note_on,10,0,1,,,,,,,,,,0,,74,0
77460,note_on,2,0,1,,,,,,,,,,0,,72,110
77470,note_on,10,0,1,,,,,,,,,,0,,72,0
77470,note_on,94,0,3,,,,,,,,,,2,,60,0
77470,note_on,94,0,4,,,,,,,,,,5,,60,0
77472,note_on,2,0,4,,,,,,,,,,5,,60,127
77472,note_on,2,0,1,,,,,,,,,,0,,72,110
77472,note_on,16,0,2,,,,,,,,,,1,,82,60
77472,note_on,2,0,3,,,,,,,,,,2,,60,127
77504,note_on,32,0,2,,,,,,,,,,1,,82,0
77520,note_on,16,0,2,,,,,,,,,,1,,79,60
77552,note_on,32,0,2,,,,,,,,,,1,,79,0
77566,note_on,94,0,4,,,,,,,,,,5,,60,0
77566,note_on,94,0,3,,,,,,,,,,2,,60,0
77566,note_on,94,0,1,,,,,,,,,,0,,72,0
77568,note_on,2,0,1,,,,,,,,,,0,,76,110
77568,note_on,16,0,2,,,,,,,,,,1,,76,60
77600,note_on,32,0,2,,,,,,,,,,1,,76,0
77616,note_on,16,0,2,,,,,,,,,,1,,79,60
77648,note_on,32,0,2,,,,,,,,,,1,,79,0
77664,note_on,98,0,3,,,,,,,,,,2,,60,127
77664,note_on,98,0,4,,,,,,,,,,5,,60,127
77664,note_on,16,0,2,,,,,,,,,,1,,82,60
77686,note_on,118,0,1,,,,,,,,,,0,,76,0
77688,note_on,2,0,1,,,,,,,,,,0,,77,110
77696,note_on,32,0,2,,,,,,,,,,1,,82,0
77710,note_on,22,0,1,,,,,,,,,,0,,77,0
77712,note_on,16,0,2,,,,,,,,,,1,,79,60
77712,note_on,2,0,1,,,,,,,,,,0,,79,110
77734,note_on,22,0,1,,,,,,,,,,0,,79,0
77736,note_on,2,0,1,,,,,,,,,,0,,81,110
77744,note_on,32,0,2,,,,,,,,,,1,,79,0
77758,note_on,22,0,1,,,,,,,,,,0,,81,0
77758,note_on,94,0,4,,,,,,,,,,5,,60,0
77758,note_on,94,0,3,,,,,,,,,,2,,60,0
77760,note_on,2,0,1,,,,,,,,,,0,,82,110
77760,note_on,2,0,4,,,,,,,,,,5,,60,127
77760,note_on,16,0,2,,,,,,,,,,1,,76,60
77760,note_on,2,0,3,,,,,,,,,,2,,60,127
77792,note_on,32,0,2,,,,,,,,,,1,,76,0
77808,note_on,16,0,2,,,,,,,,,,1,,79,60
77840,note_on,32,0,2,,,,,,,,,,1,,79,0
77854,note_on,94,0,4,,,,,,,,,,5,,60,0
77854,note_on,94,0,1,,,,,,,,,,0,,82,0
77854,note_on,94,0,3,,,,,,,,,,2,,60,0
77856,note_on,2,0,4,,,,,,,,,,5,,60,127
77856,note_on,2,0,3,,,,,,,,,,2,,60,127
77856,note_on,16,0,2,,,,,,,,,,1,,82,60
77856,note_on,2,0,1,,,,,,,,,,0,,79,110
77888,note_on,32,0,2,,,,,,,,,,1,,82,0
77904,note_on,16,0,2,,,,,,,,,,1,,79,60
77936,note_on,32,0,2,,,,,,,,,,1,,79,0
77950,note_on,94,0,4,,,,,,,,,,5,,60,0
77950,note_on,94,0,3,,,,,,,,,,2,,60,0
77950,note_on,94,0,1,,,,,,,,,,0,,79,0
77952,note_on,16,0,2,,,,,,,,,,1,,72,60
77952,note_on,2,0,1,,,,,,,,,,0,,81,110
77962,note_on,10,0,1,,,,,,,,,,0,,81,0
77964,note_on,2,0,1,,,,,,,,,,0,,79,110
77974,note_on,10,0,1,,,,,,,,,,0,,79,0
77976,note_on,2,0,1,,,,,,,,,,0,,81,110
77984,note_on,32,0,2,,,,,,,,,,1,,72,0
77986,note_on,10,0,1,,,,,,,,,,0,,81,0
77988,note_on,2,0,1,,,,,,,,,,0,,79,110
77998,note_on,10,0,1,,,,,,,,,,0,,79,0
78000,note_on,16,0,2,,,,,,,,,,1,,77,60
78000,note_on,2,0,1,,,,,,,,,,0,,81,110
78010,note_on,10,0,1,,,,,,,,,,0,,81,0
78012,note_on,2,0,1,,,,,,,,,,0,,79,110
78032,note_on,32,0,2,,,,,,,,,,1,,77,0
78046,note_on,34,0,1,,,,,,,,,,0,,79,0
78048,note_on,16,0,2,,,,,,,,,,1,,81,60
78048,note_on,98,0,3,,,,,,,,,,2,,65,127
78048,note_on,2,0,1,,,,,,,,,,0,,77,110
78048,note_on,98,0,4,,,,,,,,,,5,,65,127
78080,note_on,32,0,2,,,,,,,,,,1,,81,0
78096,note_on,16,0,2,,,,,,,,,,1,,77,60
78128,note_on,32,0,2,,,,,,,,,,1,,77,0
78142,note_on,94,0,3,,,,,,,,,,2,,65,0
78142,note_on,94,0,4,,,,,,,,,,5,,65,0
78142,note_on,94,0,1,,,,,,,,,,0,,77,0
78144,note_on,2,0,4,,,,,,,,,,5,,65,127
78144,note_on,2,0,3,,,,,,,,,,2,,65,127
78144,note_on,16,0,2,,,,,,,,,,1,,72,60
78176,note_on,32,0,2,,,,,,,,,,1,,72,0
78192,note_on,50,0,1,,,,,,,,,,0,,77,110
78192,note_on,16,0,2,,,,,,,,,,1,,77,60
78224,note_on,32,0,2,,,,,,,,,,1,,77,0
78238,note_on,46,0,1,,,,,,,,,,0,,77,0
78238,note_on,94,0,3,,,,,,,,,,2,,65,0
78238,note_on,94,0,4,,,,,,,,,,5,,65,0
78240,note_on,16,0,2,,,,,,,,,,1,,81,60
78240,note_on,2,0,1,,,,,,,,,,0,,79,110
78240,note_on,2,0,3,,,,,,,,,,2,,65,127
78240,note_on,2,0,4,,,,,,,,,,5,,65,127
78272,note_on,32,0,2,,,,,,,,,,1,,81,0
78288,note_on,16,0,2,,,,,,,,,,1,,77,60
78310,note_on,70,0,1,,,,,,,,,,0,,79,0
78312,note_on,2,0,1,,,,,,,,,,0,,81,110
78320,note_on,32,0,2,,,,,,,,,,1,,77,0
78334,note_on,94,0,3,,,,,,,,,,2,,65,0
78334,note_on,94,0,4,,,,,,,,,,5,,65,0
78334,note_on,22,0,1,,,,,,,,,,0,,81,0
78336,note_on,2,0,1,,,,,,,,,,0,,79,110
78336,note_on,16,0,2,,,,,,,,,,1,,76,60
78368,note_on,32,0,2,,,,,,,,,,1,,76,0
78384,note_on,16,0,2,,,,,,,,,,1,,79,60
78416,note_on,32,0,2,,,,,,,,,,1,,79,0
78430,note_on,94,0,1,,,,,,,,,,0,,79,0
78432,note_on,98,0,3,,,,,,,,,,2,,64,127
78432,note_on,16,0,2,,,,,,,,,,1,,84,60
78432,note_on,2,0,1,,,,,,,,,,0,,84,110
78432,note_on,98,0,4,,,,,,,,,,5,,64,127
78464,note_on,32,0,2,,,,,,,,,,1,,84,0
78480,note_on,16,0,2,,,,,,,,,,1,,79,60
78512,note_on,32,0,2,,,,,,,,,,1,,79,0
78526,note_on,94,0,3,,,,,,,,,,2,,64,0
78526,note_on,94,0,1,,,,,,,,,,0,,84,0
78526,note_on,94,0,4,,,,,,,,,,5,,64,0
78528,note_on,2,0,4,,,,,,,,,,5,,64,127
78528,note_on,2,0,3,,,,,,,,,,2,,64,127
78528,note_on,2,0,1,,,,,,,,,,0,,79,110
78528,note_on,16,0,2,,,,,,,,,,1,,76,60
78560,note_on,32,0,2,,,,,,,,,,1,,76,0
78576,note_on,16,0,2,,,,,,,,,,1,,79,60
78608,note_on,32,0,2,,,,,,,,,,1,,79,0
78622,note_on,94,0,3,,,,,,,,,,2,,64,0
78622,note_on,94,0,1,,,,,,,,,,0,,79,0
78622,note_on,94,0,4,,,,,,,,,,5,,64,0
78624,note_on,2,0,3,,,,,,,,,,2,,64,127
78624,note_on,2,0,1,,,,,,,,,,0,,76,110
78624,note_on,16,0,2,,,,,,,,,,1,,84,60
78624,note_on,2,0,4,,,,,,,,,,5,,64,127
78656,note_on,32,0,2,,,,,,,,,,1,,84,0
78672,note_on,16,0,2,,,,,,,,,,1,,79,60
78704,note_on,32,0,2,,,,,,,,,,1,,79,0
78718,note_on,94,0,3,,,,,,,,,,2,,64,0
78718,note_on,94,0,1,,,,,,,,,,0,,76,0
78718,note_on,94,0,4,,,,,,,,,,5,,64,0
78720,note_on,16,0,2,,,,,,,,,,1,,74,60
78720,note_on,2,0,1,,,,,,,,,,0,,77,110
78752,note_on,32,0,2,,,,,,,,,,1,,74,0
78768,note_on,16,0,2,,,,,,,,,,1,,77,60
78800,note_on,32,0,2,,,,,,,,,,1,,77,0
78814,note_on,94,0,1,,,,,,,,,,0,,77,0
78816,note_on,98,0,3,,,,,,,,,,2,,62,127
78816,note_on,16,0,2,,,,,,,,,,1,,82,60
78816,note_on,2,0,1,,,,,,,,,,0,,82,110
78816,note_on,98,0,4,,,,,,,,,,5,,62,127
78848,note_on,32,0,2,,,,,,,,,,1,,82,0
78864,note_on,16,0,2,,,,,,,,,,1,,77,60
78896,note_on,32,0,2,,,,,,,,,,1,,77,0
78910,note_on,94,0,4,,,,,,,,,,5,,62,0
78910,note_on,94,0,3,,,,,,,,,,2,,62,0
78910,note_on,94,0,1,,,,,,,,,,0,,82,0
78912,note_on,2,0,1,,,,,,,,,,0,,77,110
78912,note_on,16,0,2,,,,,,,,,,1,,74,60
78912,note_on,2,0,4,,,,,,,,,,5,,62,127
78912,note_on,2,0,3,,,,,,,,,,2,,62,127
78944,note_on,32,0,2,,,,,,,,,,1,,74,0
78960,note_on,16,0,2,,,,,,,,,,1,,77,60
78992,note_on,32,0,2,,,,,,,,,,1,,77,0
79006,note_on,94,0,3,,,,,,,,,,2,,62,0
79006,note_on,94,0,4,,,,,,,,,,5,,62,0
79006,note_on,94,0,1,,,,,,,,,,0,,77,0
79008,note_on,16,0,2,,,,,,,,,,1,,82,60
79008,note_on,2,0,3,,,,,,,,,,2,,62,127
79008,note_on,2,0,4,,,,,,,,,,5,,62,127
79008,note_on,2,0,1,,,,,,,,,,0,,74,110
79040,note_on,32,0,2,,,,,,,,,,1,,82,0
79056,note_on,16,0,2,,,,,,,,,,1,,77,60
79088,note_on,32,0,2,,,,,,,,,,1,,77,0
79102,note_on,94,0,4,,,,,,,,,,5,,62,0
79102,note_on,94,0,1,,,,,,,,,,0,,74,0
79102,note_on,94,0,3,,,,,,,,,,2,,62,0
79104,note_on,16,0,2,,,,,,,,,,1,,72,60
79104,note_on,2,0,1,,,,,,,,,,0,,76,110
79114,note_on,10,0,1,,,,,,,,,,0,,76,0
79116,note_on,2,0,1,,,,,,,,,,0,,74,110
79126,note_on,10,0,1,,,,,,,,,,0,,74,0
79128,note_on,2,0,1,,,,,,,,,,0,,76,110
79136,note_on,32,0,2,,,,,,,,,,1,,72,0
79138,note_on,10,0,1,,,,,,,,,,0,,76,0
79140,note_on,2,0,1,,,,,,,,,,0,,74,110
79150,note_on,10,0,1,,,,,,,,,,0,,74,0
79152,note_on,2,0,1,,,,,,,,,,0,,76,110
79152,note_on,16,0,2,,,,,,,,,,1,,76,60
79162,note_on,10,0,1,,,,,,,,,,0,,76,0
79164,note_on,2,0,1,,,,,,,,,,0,,74,110
79174,note_on,10,0,1,,,,,,,,,,0,,74,0
79176,note_on,2,0,1,,,,,,,,,,0,,76,110
79184,note_on,32,0,2,,,,,,,,,,1,,76,0
79186,note_on,10,0,1,,,,,,,,,,0,,76,0
79188,note_on,2,0,1,,,,,,,,,,0,,74,110
79198,note_on,10,0,1,,,,,,,,,,0,,74,0
79200,note_on,16,0,2,,,,,,,,,,1,,79,60
79200,note_on,98,0,3,,,,,,,,,,2,,60,127
79200,note_on,2,0,1,,,,,,,,,,0,,72,110
79200,note_on,98,0,4,,,,,,,,,,5,,60,127
79232,note_on,32,0,2,,,,,,,,,,1,,79,0
79248,note_on,16,0,2,,,,,,,,,,1,,76,60
79280,note_on,32,0,2,,,,,,,,,,1,,76,0
79294,note_on,94,0,3,,,,,,,,,,2,,60,0
79294,note_on,94,0,1,,,,,,,,,,0,,72,0
79294,note_on,94,0,4,,,,,,,,,,5,,60,0
79296,note_on,2,0,3,,,,,,,,,,2,,60,127
79296,note_on,2,0,4,,,,,,,,,,5,,60,127
79296,note_on,16,0,2,,,,,,,,,,1,,72,60
79328,note_on,32,0,2,,,,,,,,,,1,,72,0
79344,note_on,50,0,1,,,,,,,,,,0,,79,110
79344,note_on,16,0,2,,,,,,,,,,1,,76,60
79376,note_on,32,0,2,,,,,,,,,,1,,76,0
79390,note_on,94,0,4,,,,,,,,,,5,,60,0
79390,note_on,94,0,3,,,,,,,,,,2,,60,0
79390,note_on,46,0,1,,,,,,,,,,0,,79,0
79392,note_on,2,0,1,,,,,,,,,,0,,81,110
79392,note_on,2,0,3,,,,,,,,,,2,,60,127
79392,note_on,2,0,4,,,,,,,,,,5,,60,127
79392,note_on,16,0,2,,,,,,,,,,1,,79,60
79424,note_on,32,0,2,,,,,,,,,,1,,79,0
79440,note_on,16,0,2,,,,,,,,,,1,,76,60
79462,note_on,70,0,1,,,,,,,,,,0,,81,0
79464,note_on,2,0,1,,,,,,,,,,0,,82,110
79472,note_on,32,0,2,,,,,,,,,,1,,76,0
79486,note_on,22,0,1,,,,,,,,,,0,,82,0
79486,note_on,94,0,3,,,,,,,,,,2,,60,0
79486,note_on,94,0,4,,,,,,,,,,5,,60,0
79488,note_on,2,0,1,,,,,,,,,,0,,73,110
79488,note_on,16,0,2,,,,,,,,,,1,,73,60
79520,note_on,32,0,2,,,,,,,,,,1,,73,0
79536,note_on,16,0,2,,,,,,,,,,1,,76,60
79568,note_on,32,0,2,,,,,,,,,,1,,76,0
79584,note_on,16,0,2,,,,,,,,,,1,,81,60
79584,note_on,98,0,4,,,,,,,,,,5,,57,127
79584,note_on,98,0,3,,,,,,,,,,2,,57,127
79616,note_on,32,0,2,,,,,,,,,,1,,81,0
79630,note_on,142,0,1,,,,,,,,,,0,,73,0
79632,note_on,2,0,1,,,,,,,,,,0,,76,110
79632,note_on,16,0,2,,,,,,,,,,1,,76,60
79664,note_on,32,0,2,,,,,,,,,,1,,76,0
79678,note_on,94,0,4,,,,,,,,,,5,,57,0
79678,note_on,94,0,3,,,,,,,,,,2,,57,0
79678,note_on,46,0,1,,,,,,,,,,0,,76,0
79680,note_on,2,0,3,,,,,,,,,,2,,57,127
79680,note_on,2,0,4,,,,,,,,,,5,,57,127
79680,note_on,16,0,2,,,,,,,,,,1,,73,60
79680,note_on,2,0,1,,,,,,,,,,0,,81,110
79712,note_on,32,0,2,,,,,,,,,,1,,73,0
79726,note_on,46,0,1,,,,,,,,,,0,,81,0
79728,note_on,2,0,1,,,,,,,,,,0,,79,110
79728,note_on,16,0,2,,,,,,,,,,1,,76,60
79760,note_on,32,0,2,,,,,,,,,,1,,76,0
79774,note_on,46,0,1,,,,,,,,,,0,,79,0
79774,note_on,94,0,4,,,,,,,,,,5,,57,0
79774,note_on,94,0,3,,,,,,,,,,2,,57,0
79776,note_on,2,0,3,,,,,,,,,,2,,57,127
79776,note_on,16,0,2,,,,,,,,,,1,,81,60
79776,note_on,2,0,4,,,,,,,,,,5,,57,127
79776,note_on,2,0,1,,,,,,,,,,0,,81,110
79808,note_on,32,0,2,,,,,,,,,,1,,81,0
79822,note_on,46,0,1,,,,,,,,,,0,,81,0
79824,note_on,2,0,1,,,,,,,,,,0,,76,110
79824,note_on,16,0,2,,,,,,,,,,1,,76,60
79856,note_on,32,0,2,,,,,,,,,,1,,76,0
79870,note_on,94,0,4,,,,,,,,,,5,,57,0
79870,note_on,94,0,3,,,,,,,,,,2,,57,0
79870,note_on,46,0,1,,,,,,,,,,0,,76,0
79872,note_on,2,0,1,,,,,,,,,,0,,77,110
79872,note_on,16,0,2,,,,,,,,,,1,,74,60
79882,note_on,10,0,1,,,,,,,,,,0,,77,0
79884,note_on,2,0,1,,,,,,,,,,0,,76,110
79894,note_on,10,0,1,,,,,,,,,,0,,76,0
79896,note_on,2,0,1,,,,,,,,,,0,,77,110
79904,note_on,32,0,2,,,,,,,,,,1,,74,0
79906,note_on,10,0,1,,,,,,,,,,0,,77,0
79908,note_on,2,0,1,,,,,,,,,,0,,76,110
79918,note_on,10,0,1,,,,,,,,,,0,,76,0
79920,note_on,16,0,2,,,,,,,,,,1,,77,60
79920,note_on,2,0,1,,,,,,,,,,0,,77,110
79930,note_on,10,0,1,,,,,,,,,,0,,77,0
79932,note_on,2,0,1,,,,,,,,,,0,,76,110
79942,note_on,10,0,1,,,,,,,,,,0,,76,0
79944,note_on,2,0,1,,,,,,,,,,0,,77,110
79952,note_on,32,0,2,,,,,,,,,,1,,77,0
79954,note_on,10,0,1,,,,,,,,,,0,,77,0
79956,note_on,2,0,1,,,,,,,,,,0,,76,110
79966,note_on,10,0,1,,,,,,,,,,0,,76,0
79968,note_on,16,0,2,,,,,,,,,,1,,81,60
79968,note_on,98,0,3,,,,,,,,,,2,,62,127
79968,note_on,2,0,1,,,,,,,,,,0,,74,110
79968,note_on,98,0,4,,,,,,,,,,5,,62,127
80000,note_on,32,0,2,,,,,,,,,,1,,81,0
80016,note_on,16,0,2,,,,,,,,,,1,,77,60
80048,note_on,32,0,2,,,,,,,,,,1,,77,0
80062,note_on,94,0,4,,,,,,,,,,5,,62,0
80062,note_on,94,0,3,,,,,,,,,,2,,62,0
80062,note_on,94,0,1,,,,,,,,,,0,,74,0
80064,note_on,2,0,4,,,,,,,,,,5,,62,127
80064,note_on,2,0,3,,,,,,,,,,2,,62,127
80064,note_on,16,0,2,,,,,,,,,,1,,74,60
80096,note_on,32,0,2,,,,,,,,,,1,,74,0
80112,note_on,16,0,2,,,,,,,,,,1,,77,60
80112,note_on,50,0,1,,,,,,,,,,0,,65,110
80112,note_on,0,0,1,,,,,,,,,,0,,69,110
80144,note_on,32,0,2,,,,,,,,,,1,,77,0
80158,note_on,46,0,1,,,,,,,,,,0,,65,0
80158,note_on,0,0,1,,,,,,,,,,0,,69,0
80158,note_on,94,0,3,,,,,,,,,,2,,62,0
80158,note_on,94,0,4,,,,,,,,,,5,,62,0
80160,note_on,16,0,2,,,,,,,,,,1,,81,60
80160,note_on,2,0,4,,,,,,,,,,5,,62,127
80160,note_on,2,0,1,,,,,,,,,,0,,65,110
80160,note_on,0,0,1,,,,,,,,,,0,,70,110
80160,note_on,2,0,3,,,,,,,,,,2,,62,127
80192,note_on,32,0,2,,,,,,,,,,1,,81,0
80208,note_on,16,0,2,,,,,,,,,,1,,77,60
80230,note_on,70,0,1,,,,,,,,,,0,,65,0
80230,note_on,0,0,1,,,,,,,,,,0,,70,0
80232,note_on,2,0,1,,,,,,,,,,0,,72,110
80240,note_on,32,0,2,,,,,,,,,,1,,77,0
80254,note_on,22,0,1,,,,,,,,,,0,,72,0
80254,note_on,94,0,4,,,,,,,,,,5,,62,0
80254,note_on,94,0,3,,,,,,,,,,2,,62,0
80256,note_on,2,0,1,,,,,,,,,,0,,65,110
80256,note_on,0,0,1,,,,,,,,,,0,,72,110
80256,note_on,16,0,2,,,,,,,,,,1,,65,60
80278,note_on,0,0,1,,,,,,,,,,0,,72,0
80278,note_on,22,0,1,,,,,,,,,,0,,65,0
80280,note_on,2,0,1,,,,,,,,,,0,,70,110
80288,note_on,32,0,2,,,,,,,,,,1,,65,0
80302,note_on,22,0,1,,,,,,,,,,0,,70,0
80304,note_on,16,0,2,,,,,,,,,,1,,74,60
80304,note_on,2,0,1,,,,,,,,,,0,,72,110
80326,note_on,22,0,1,,,,,,,,,,0,,72,0
80328,note_on,2,0,1,,,,,,,,,,0,,70,110
80336,note_on,32,0,2,,,,,,,,,,1,,74,0
80350,note_on,22,0,1,,,,,,,,,,0,,70,0
80352,note_on,98,0,4,,,,,,,,,,5,,62,127
80352,note_on,98,0,3,,,,,,,,,,2,,62,127
80352,note_on,16,0,2,,,,,,,,,,1,,77,60
80352,note_on,2,0,1,,,,,,,,,,0,,72,110
80374,note_on,22,0,1,,,,,,,,,,0,,72,0
80376,note_on,2,0,1,,,,,,,,,,0,,70,110
80384,note_on,32,0,2,,,,,,,,,,1,,77,0
80398,note_on,22,0,1,,,,,,,,,,0,,70,0
80400,note_on,16,0,2,,,,,,,,,,1,,74,60
80400,note_on,2,0,1,,,,,,,,,,0,,72,110
80422,note_on,22,0,1,,,,,,,,,,0,,72,0
80424,note_on,2,0,1,,,,,,,,,,0,,70,110
80432,note_on,32,0,2,,,,,,,,,,1,,74,0
80446,note_on,94,0,4,,,,,,,,,,5,,62,0
80446,note_on,22,0,1,,,,,,,,,,0,,70,0
80446,note_on,94,0,3,,,,,,,,,,2,,62,0
80448,note_on,2,0,3,,,,,,,,,,2,,62,127
80448,note_on,0,0,1,,,,,,,,,,0,,69,110
80448,note_on,2,0,1,,,,,,,,,,0,,65,110
80448,note_on,2,0,4,,,,,,,,,,5,,62,127
80448,note_on,16,0,2,,,,,,,,,,1,,65,60
80480,note_on,32,0,2,,,,,,,,,,1,,65,0
80494,note_on,0,0,1,,,,,,,,,,0,,69,0
80494,note_on,46,0,1,,,,,,,,,,0,,65,0
80496,note_on,16,0,2,,,,,,,,,,1,,74,60
80496,note_on,0,0,1,,,,,,,,,,0,,69,110
80496,note_on,2,0,1,,,,,,,,,,0,,65,110
80528,note_on,32,0,2,,,,,,,,,,1,,74,0
80542,note_on,94,0,3,,,,,,,,,,2,,62,0
80542,note_on,0,0,1,,,,,,,,,,0,,69,0
80542,note_on,46,0,1,,,,,,,,,,0,,65,0
80542,note_on,94,0,4,,,,,,,,,,5,,62,0
80544,note_on,2,0,3,,,,,,,,,,2,,62,127
80544,note_on,2,0,1,,,,,,,,,,0,,65,110
80544,note_on,16,0,2,,,,,,,,,,1,,77,60
80544,note_on,0,0,1,,,,,,,,,,0,,70,110
80544,note_on,2,0,4,,,,,,,,,,5,,62,127
80576,note_on,32,0,2,,,,,,,,,,1,,77,0
80592,note_on,16,0,2,,,,,,,,,,1,,74,60
80614,note_on,70,0,1,,,,,,,,,,0,,65,0
80614,note_on,0,0,1,,,,,,,,,,0,,70,0
80616,note_on,2,0,1,,,,,,,,,,0,,72,110
80624,note_on,32,0,2,,,,,,,,,,1,,74,0
80638,note_on,94,0,3,,,,,,,,,,2,,62,0
80638,note_on,94,0,4,,,,,,,,,,5,,62,0
80638,note_on,22,0,1,,,,,,,,,,0,,72,0
80640,note_on,0,0,1,,,,,,,,,,0,,72,110
80640,note_on,2,0,1,,,,,,,,,,0,,65,110
80640,note_on,16,0,2,,,,,,,,,,1,,65,60
80662,note_on,22,0,1,,,,,,,,,,0,,65,0
80662,note_on,0,0,1,,,,,,,,,,0,,72,0
80664,note_on,2,0,1,,,,,,,,,,0,,70,110
80672,note_on,32,0,2,,,,,,,,,,1,,65,0
80686,note_on,22,0,1,,,,,,,,,,0,,70,0
80688,note_on,16,0,2,,,,,,,,,,1,,74,60
80688,note_on,2,0,1,,,,,,,,,,0,,72,110
80710,note_on,22,0,1,,,,,,,,,,0,,72,0
80712,note_on,2,0,1,,,,,,,,,,0,,70,110
80720,note_on,32,0,2,,,,,,,,,,1,,74,0
80734,note_on,22,0,1,,,,,,,,,,0,,70,0
80736,note_on,16,0,2,,,,,,,,,,1,,77,60
80736,note_on,98,0,3,,,,,,,,,,2,,62,127
80736,note_on,2,0,1,,,,,,,,,,0,,72,110
80736,note_on,98,0,4,,,,,,,,,,5,,62,127
80758,note_on,22,0,1,,,,,,,,,,0,,72,0
80760,note_on,2,0,1,,,,,,,,,,0,,70,110
80768,note_on,32,0,2,,,,,,,,,,1,,77,0
80782,note_on,22,0,1,,,,,,,,,,0,,70,0
80784,note_on,2,0,1,,,,,,,,,,0,,72,110
80784,note_on,16,0,2,,,,,,,,,,1,,74,60
80806,note_on,22,0,1,,,,,,,,,,0,,72,0
80808,note_on,2,0,1,,,,,,,,,,0,,70,110
80816,note_on,32,0,2,,,,,,,,,,1,,74,0
80830,note_on,94,0,3,,,,,,,,,,2,,62,0
80830,note_on,94,0,4,,,,,,,,,,5,,62,0
80830,note_on,22,0,1,,,,,,,,,,0,,70,0
80832,note_on,2,0,3,,,,,,,,,,2,,62,127
80832,note_on,2,0,4,,,,,,,,,,5,,62,127
80832,note_on,16,0,2,,,,,,,,,,1,,65,60
80832,note_on,2,0,1,,,,,,,,,,0,,65,110
80832,note_on,0,0,1,,,,,,,,,,0,,69,110
80864,note_on,32,0,2,,,,,,,,,,1,,65,0
80878,note_on,46,0,1,,,,,,,,,,0,,65,0
80878,note_on,0,0,1,,,,,,,,,,0,,69,0
80880,note_on,16,0,2,,,,,,,,,,1,,74,60
80880,note_on,2,0,1,,,,,,,,,,0,,81,110
80912,note_on,32,0,2,,,,,,,,,,1,,74,0
80926,note_on,94,0,4,,,,,,,,,,5,,62,0
80926,note_on,94,0,3,,,,,,,,,,2,,62,0
80926,note_on,46,0,1,,,,,,,,,,0,,81,0
80928,note_on,2,0,1,,,,,,,,,,0,,77,110
80928,note_on,2,0,4,,,,,,,,,,5,,62,127
80928,note_on,2,0,3,,,,,,,,,,2,,62,127
80928,note_on,16,0,2,,,,,,,,,,1,,77,60
80960,note_on,32,0,2,,,,,,,,,,1,,77,0
80974,note_on,46,0,1,,,,,,,,,,0,,77,0
80976,note_on,16,0,2,,,,,,,,,,1,,74,60
80976,note_on,2,0,1,,,,,,,,,,0,,74,110
81008,note_on,32,0,2,,,,,,,,,,1,,74,0
81022,note_on,94,0,4,,,,,,,,,,5,,62,0
81022,note_on,94,0,3,,,,,,,,,,2,,62,0
81022,note_on,46,0,1,,,,,,,,,,0,,74,0
81024,note_on,2,0,1,,,,,,,,,,0,,73,110
81024,note_on,16,0,2,,,,,,,,,,1,,73,60
81056,note_on,32,0,2,,,,,,,,,,1,,73,0
81072,note_on,16,0,2,,,,,,,,,,1,,76,60
81094,note_on,70,0,1,,,,,,,,,,0,,73,0
81096,note_on,2,0,1,,,,,,,,,,0,,74,110
81104,note_on,32,0,2,,,,,,,,,,1,,76,0
81118,note_on,22,0,1,,,,,,,,,,0,,74,0
81120,note_on,98,0,4,,,,,,,,,,5,,69,127
81120,note_on,16,0,2,,,,,,,,,,1,,81,60
81120,note_on,98,0,3,,,,,,,,,,2,,69,127
81120,note_on,2,0,1,,,,,,,,,,0,,69,110
81152,note_on,32,0,2,,,,,,,,,,1,,81,0
81168,note_on,16,0,2,,,,,,,,,,1,,76,60
81190,note_on,70,0,1,,,,,,,,,,0,,69,0
81192,note_on,2,0,1,,,,,,,,,,0,,79,110
81200,note_on,32,0,2,,,,,,,,,,1,,76,0
81214,note_on,94,0,4,,,,,,,,,,5,,69,0
81214,note_on,22,0,1,,,,,,,,,,0,,79,0
81214,note_on,94,0,3,,,,,,,,,,2,,69,0
81216,note_on,2,0,1,,,,,,,,,,0,,79,110
81216,note_on,2,0,4,,,,,,,,,,5,,74,127
81216,note_on,16,0,2,,,,,,,,,,1,,74,60
81216,note_on,2,0,3,,,,,,,,,,2,,74,127
81238,note_on,22,0,1,,,,,,,,,,0,,79,0
81240,note_on,2,0,1,,,,,,,,,,0,,77,110
81248,note_on,32,0,2,,,,,,,,,,1,,74,0
81262,note_on,22,0,1,,,,,,,,,,0,,77,0
81264,note_on,2,0,1,,,,,,,,,,0,,79,110
81264,note_on,16,0,2,,,,,,,,,,1,,77,60
81286,note_on,22,0,1,,,,,,,,,,0,,79,0
81288,note_on,2,0,1,,,,,,,,,,0,,77,110
81296,note_on,32,0,2,,,,,,,,,,1,,77,0
81310,note_on,22,0,1,,,,,,,,,,0,,77,0
81310,note_on,94,0,3,,,,,,,,,,2,,74,0
81310,note_on,94,0,4,,,,,,,,,,5,,74,0
81312,note_on,2,0,3,,,,,,,,,,2,,62,127
81312,note_on,2,0,1,,,,,,,,,,0,,79,110
81312,note_on,2,0,4,,,,,,,,,,5,,62,127
81312,note_on,16,0,2,,,,,,,,,,1,,81,60
81334,note_on,22,0,1,,,,,,,,,,0,,79,0
81336,note_on,2,0,1,,,,,,,,,,0,,77,110
81344,note_on,32,0,2,,,,,,,,,,1,,81,0
81358,note_on,22,0,1,,,,,,,,,,0,,77,0
81360,note_on,2,0,1,,,,,,,,,,0,,79,110
81360,note_on,16,0,2,,,,,,,,,,1,,77,60
81382,note_on,22,0,1,,,,,,,,,,0,,79,0
81384,note_on,2,0,1,,,,,,,,,,0,,77,110
81392,note_on,32,0,2,,,,,,,,,,1,,77,0
81406,note_on,94,0,4,,,,,,,,,,5,,62,0
81406,note_on,22,0,1,,,,,,,,,,0,,77,0
81406,note_on,94,0,3,,,,,,,,,,2,,62,0
81408,note_on,16,0,2,,,,,,,,,,1,,73,60
81408,note_on,2,0,1,,,,,,,,,,0,,79,110
81430,note_on,22,0,1,,,,,,,,,,0,,79,0
81432,note_on,2,0,1,,,,,,,,,,0,,77,110
81440,note_on,32,0,2,,,,,,,,,,1,,73,0
81454,note_on,22,0,1,,,,,,,,,,0,,77,0
81456,note_on,2,0,1,,,,,,,,,,0,,79,110
81456,note_on,16,0,2,,,,,,,,,,1,,76,60
81478,note_on,22,0,1,,,,,,,,,,0,,79,0
81480,note_on,2,0,1,,,,,,,,,,0,,77,110
81488,note_on,32,0,2,,,,,,,,,,1,,76,0
81502,note_on,22,0,1,,,,,,,,,,0,,77,0
81504,note_on,98,0,4,,,,,,,,,,5,,69,127
81504,note_on,16,0,2,,,,,,,,,,1,,81,60
81504,note_on,98,0,3,,,,,,,,,,2,,69,127
81504,note_on,2,0,1,,,,,,,,,,0,,79,110
81526,note_on,22,0,1,,,,,,,,,,0,,79,0
81528,note_on,2,0,1,,,,,,,,,,0,,77,110
81536,note_on,32,0,2,,,,,,,,,,1,,81,0
81550,note_on,22,0,1,,,,,,,,,,0,,77,0
81552,note_on,0,0,1,,,,,,,,,,0,,79,110
81552,note_on,2,0,1,,,,,,,,,,0,,77,110
81552,note_on,16,0,2,,,,,,,,,,1,,76,60
81574,note_on,0,0,1,,,,,,,,,,0,,79,0
81574,note_on,22,0,1,,,,,,,,,,0,,77,0
81576,note_on,2,0,1,,,,,,,,,,0,,76,110
81584,note_on,32,0,2,,,,,,,,,,1,,76,0
81598,note_on,22,0,1,,,,,,,,,,0,,76,0
81598,note_on,94,0,3,,,,,,,,,,2,,69,0
81598,note_on,94,0,4,,,,,,,,,,5,,69,0
81600,note_on,16,0,2,,,,,,,,,,1,,73,60
81600,note_on,2,0,4,,,,,,,,,,5,,69,127
81600,note_on,2,0,3,,,,,,,,,,2,,69,127
81600,note_on,2,0,1,,,,,,,,,,0,,73,110
81622,note_on,22,0,1,,,,,,,,,,0,,73,0
81624,note_on,2,0,1,,,,,,,,,,0,,69,110
81632,note_on,32,0,2,,,,,,,,,,1,,73,0
81646,note_on,22,0,1,,,,,,,,,,0,,69,0
81648,note_on,16,0,2,,,,,,,,,,1,,76,60
81648,note_on,2,0,1,,,,,,,,,,0,,79,110
81670,note_on,22,0,1,,,,,,,,,,0,,79,0
81672,note_on,2,0,1,,,,,,,,,,0,,77,110
81680,note_on,32,0,2,,,,,,,,,,1,,76,0
81694,note_on,94,0,3,,,,,,,,,,2,,69,0
81694,note_on,22,0,1,,,,,,,,,,0,,77,0
81694,note_on,94,0,4,,,,,,,,,,5,,69,0
81696,note_on,16,0,2,,,,,,,,,,1,,81,60
81696,note_on,2,0,4,,,,,,,,,,5,,57,127
81696,note_on,2,0,3,,,,,,,,,,2,,57,127
81696,note_on,2,0,1,,,,,,,,,,0,,76,110
81718,note_on,22,0,1,,,,,,,,,,0,,76,0
81720,note_on,2,0,1,,,,,,,,,,0,,77,110
81728,note_on,32,0,2,,,,,,,,,,1,,81,0
81742,note_on,22,0,1,,,,,,,,,,0,,77,0
81744,note_on,16,0,2,,,,,,,,,,1,,76,60
81744,note_on,2,0,1,,,,,,,,,,0,,76,110
81766,note_on,22,0,1,,,,,,,,,,0,,76,0
81768,note_on,2,0,1,,,,,,,,,,0,,77,110
81776,note_on,32,0,2,,,,,,,,,,1,,76,0
81790,note_on,22,0,1,,,,,,,,,,0,,77,0
81790,note_on,94,0,4,,,,,,,,,,5,,57,0
81790,note_on,94,0,3,,,,,,,,,,2,,57,0
81792,note_on,0,0,2,,,,,,,,,,1,,81,60
81792,note_on,0,0,2,,,,,,,,,,1,,77,60
81792,note_on,16,0,2,,,,,,,,,,1,,74,60
81792,note_on,2,0,4,,,,,,,,,,5,,62,127
81792,note_on,2,0,3,,,,,,,,,,2,,62,127
81792,note_on,2,0,1,,,,,,,,,,0,,76,110
81814,note_on,22,0,1,,,,,,,,,,0,,76,0
81816,note_on,2,0,1,,,,,,,,,,0,,77,110
81838,note_on,22,0,1,,,,,,,,,,0,,77,0
81840,note_on,2,0,1,,,,,,,,,,0,,76,110
81862,note_on,22,0,1,,,,,,,,,,0,,76,0
81864,note_on,2,0,1,,,,,,,,,,0,,77,110
81886,note_on,22,0,1,,,,,,,,,,0,,77,0
81888,note_on,2,0,1,,,,,,,,,,0,,76,110
81910,note_on,22,0,1,,,,,,,,,,0,,76,0
81912,note_on,2,0,1,,,,,,,,,,0,,74,110
81952,note_on,0,0,2,,,,,,,,,,1,,81,0
81952,note_on,160,0,3,,,,,,,,,,2,,62,0
81952,note_on,160,0,4,,,,,,,,,,5,,62,0
81952,note_on,0,0,2,,,,,,,,,,1,,77,0
81952,note_on,160,0,2,,,,,,,,,,1,,74,0
82078,note_on,166,0,1,,,,,,,,,,0,,74,0
82080,note_on,2,0,1,,,,,,,,,,0,,81,110
82102,note_on,22,0,1,,,,,,,,,,0,,81,0
82104,note_on,2,0,1,,,,,,,,,,0,,81,110
82150,note_on,46,0,1,,,,,,,,,,0,,81,0
82152,note_on,2,0,1,,,,,,,,,,0,,79,110
82174,note_on,22,0,1,,,,,,,,,,0,,79,0
82176,note_on,224,0,2,,,,,,,,,,1,,74,60
82176,note_on,2,0,1,,,,,,,,,,0,,78,110
82208,note_on,32,0,2,,,,,,,,,,1,,74,0
82224,note_on,16,0,2,,,,,,,,,,1,,78,60
82246,note_on,70,0,1,,,,,,,,,,0,,78,0
82248,note_on,2,0,1,,,,,,,,,,0,,78,110
82256,note_on,32,0,2,,,,,,,,,,1,,78,0
82270,note_on,22,0,1,,,,,,,,,,0,,78,0
82272,note_on,16,0,2,,,,,,,,,,1,,81,60
82272,note_on,2,0,1,,,,,,,,,,0,,79,110
82272,note_on,320,0,4,,,,,,,,,,5,,62,127
82272,note_on,320,0,3,,,,,,,,,,2,,62,127
82304,note_on,32,0,2,,,,,,,,,,1,,81,0
82320,note_on,16,0,2,,,,,,,,,,1,,78,60
82342,note_on,70,0,1,,,,,,,,,,0,,79,0
82344,note_on,2,0,1,,,,,,,,,,0,,81,110
82352,note_on,32,0,2,,,,,,,,,,1,,78,0
82366,note_on,94,0,4,,,,,,,,,,5,,62,0
82366,note_on,94,0,3,,,,,,,,,,2,,62,0
82366,note_on,22,0,1,,,,,,,,,,0,,81,0
82368,note_on,16,0,2,,,,,,,,,,1,,74,60
82368,note_on,2,0,4,,,,,,,,,,5,,62,127
82368,note_on,2,0,3,,,,,,,,,,2,,62,127
82368,note_on,2,0,1,,,,,,,,,,0,,74,110
82400,note_on,32,0,2,,,,,,,,,,1,,74,0
82416,note_on,16,0,2,,,,,,,,,,1,,78,60
82438,note_on,70,0,1,,,,,,,,,,0,,74,0
82440,note_on,2,0,1,,,,,,,,,,0,,75,110
82448,note_on,32,0,2,,,,,,,,,,1,,78,0
82462,note_on,22,0,1,,,,,,,,,,0,,75,0
82462,note_on,94,0,4,,,,,,,,,,5,,62,0
82462,note_on,94,0,3,,,,,,,,,,2,,62,0
82464,note_on,2,0,1,,,,,,,,,,0,,72,110
82464,note_on,2,0,3,,,,,,,,,,2,,62,127
82464,note_on,2,0,4,,,,,,,,,,5,,62,127
82464,note_on,16,0,2,,,,,,,,,,1,,81,60
82496,note_on,32,0,2,,,,,,,,,,1,,81,0
82512,note_on,16,0,2,,,,,,,,,,1,,78,60
82534,note_on,70,0,1,,,,,,,,,,0,,72,0
82536,note_on,2,0,1,,,,,,,,,,0,,74,110
82544,note_on,32,0,2,,,,,,,,,,1,,78,0
82558,note_on,94,0,4,,,,,,,,,,5,,62,0
82558,note_on,22,0,1,,,,,,,,,,0,,74,0
82558,note_on,94,0,3,,,,,,,,,,2,,62,0
82560,note_on,16,0,2,,,,,,,,,,1,,74,60
82560,note_on,2,0,1,,,,,,,,,,0,,70,110
82570,note_on,10,0,1,,,,,,,,,,0,,70,0
82572,note_on,2,0,1,,,,,,,,,,0,,69,110
82582,note_on,10,0,1,,,,,,,,,,0,,69,0
82584,note_on,2,0,1,,,,,,,,,,0,,70,110
82592,note_on,32,0,2,,,,,,,,,,1,,74,0
82594,note_on,10,0,1,,,,,,,,,,0,,70,0
82596,note_on,2,0,1,,,,,,,,,,0,,69,110
82606,note_on,10,0,1,,,,,,,,,,0,,69,0
82608,note_on,2,0,1,,,,,,,,,,0,,70,110
82608,note_on,16,0,2,,,,,,,,,,1,,79,60
82618,note_on,10,0,1,,,,,,,,,,0,,70,0
82620,note_on,2,0,1,,,,,,,,,,0,,69,110
82630,note_on,10,0,1,,,,,,,,,,0,,69,0
82632,note_on,2,0,1,,,,,,,,,,0,,70,110
82640,note_on,32,0,2,,,,,,,,,,1,,79,0
82642,note_on,10,0,1,,,,,,,,,,0,,70,0
82644,note_on,2,0,1,,,,,,,,,,0,,69,110
82654,note_on,10,0,1,,,,,,,,,,0,,69,0
82656,note_on,2,0,1,,,,,,,,,,0,,67,110
82656,note_on,98,0,3,,,,,,,,,,2,,67,127
82656,note_on,16,0,2,,,,,,,,,,1,,82,60
82656,note_on,98,0,4,,,,,,,,,,5,,67,127
82688,note_on,32,0,2,,,,,,,,,,1,,82,0
82704,note_on,16,0,2,,,,,,,,,,1,,79,60
82736,note_on,32,0,2,,,,,,,,,,1,,79,0
82750,note_on,94,0,3,,,,,,,,,,2,,67,0
82750,note_on,94,0,1,,,,,,,,,,0,,67,0
82750,note_on,94,0,4,,,,,,,,,,5,,67,0
82752,note_on,16,0,2,,,,,,,,,,1,,74,60
82752,note_on,2,0,3,,,,,,,,,,2,,67,127
82752,note_on,2,0,4,,,,,,,,,,5,,67,127
82784,note_on,32,0,2,,,,,,,,,,1,,74,0
82800,note_on,16,0,2,,,,,,,,,,1,,79,60
82800,note_on,50,0,1,,,,,,,,,,0,,79,110
82832,note_on,32,0,2,,,,,,,,,,1,,79,0
82846,note_on,94,0,3,,,,,,,,,,2,,67,0
82846,note_on,46,0,1,,,,,,,,,,0,,79,0
82846,note_on,94,0,4,,,,,,,,,,5,,67,0
82848,note_on,2,0,4,,,,,,,,,,5,,67,127
82848,note_on,16,0,2,,,,,,,,,,1,,82,60
82848,note_on,2,0,3,,,,,,,,,,2,,67,127
82848,note_on,2,0,1,,,,,,,,,,0,,79,110
82880,note_on,32,0,2,,,,,,,,,,1,,82,0
82896,note_on,16,0,2,,,,,,,,,,1,,79,60
82918,note_on,70,0,1,,,,,,,,,,0,,79,0
82920,note_on,2,0,1,,,,,,,,,,0,,77,110
82928,note_on,32,0,2,,,,,,,,,,1,,79,0
82942,note_on,94,0,4,,,,,,,,,,5,,67,0
82942,note_on,94,0,3,,,,,,,,,,2,,67,0
82942,note_on,22,0,1,,,,,,,,,,0,,77,0
82944,note_on,2,0,1,,,,,,,,,,0,,76,110
82944,note_on,16,0,2,,,,,,,,,,1,,76,60
82976,note_on,32,0,2,,,,,,,,,,1,,76,0
82992,note_on,16,0,2,,,,,,,,,,1,,79,60
83014,note_on,70,0,1,,,,,,,,,,0,,76,0
83016,note_on,2,0,1,,,,,,,,,,0,,76,110
83024,note_on,32,0,2,,,,,,,,,,1,,79,0
83038,note_on,22,0,1,,,,,,,,,,0,,76,0
83040,note_on,2,0,1,,,,,,,,,,0,,77,110
83040,note_on,98,0,3,,,,,,,,,,2,,60,127
83040,note_on,98,0,4,,,,,,,,,,5,,60,127
83040,note_on,16,0,2,,,,,,,,,,1,,82,60
83072,note_on,32,0,2,,,,,,,,,,1,,82,0
83088,note_on,16,0,2,,,,,,,,,,1,,79,60
83110,note_on,70,0,1,,,,,,,,,,0,,77,0
83112,note_on,2,0,1,,,,,,,,,,0,,79,110
83120,note_on,32,0,2,,,,,,,,,,1,,79,0
83134,note_on,94,0,3,,,,,,,,,,2,,60,0
83134,note_on,22,0,1,,,,,,,,,,0,,79,0
83134,note_on,94,0,4,,,,,,,,,,5,,60,0
83136,note_on,2,0,1,,,,,,,,,,0,,72,110
83136,note_on,2,0,3,,,,,,,,,,2,,60,127
83136,note_on,16,0,2,,,,,,,,,,1,,76,60
83136,note_on,2,0,4,,,,,,,,,,5,,60,127
83168,note_on,32,0,2,,,,,,,,,,1,,76,0
83184,note_on,16,0,2,,,,,,,,,,1,,79,60
83206,note_on,70,0,1,,,,,,,,,,0,,72,0
83208,note_on,2,0,1,,,,,,,,,,0,,74,110
83216,note_on,32,0,2,,,,,,,,,,1,,79,0
83230,note_on,94,0,3,,,,,,,,,,2,,60,0
83230,note_on,22,0,1,,,,,,,,,,0,,74,0
83230,note_on,94,0,4,,,,,,,,,,5,,60,0
83232,note_on,2,0,1,,,,,,,,,,0,,70,110
83232,note_on,2,0,3,,,,,,,,,,2,,60,127
83232,note_on,16,0,2,,,,,,,,,,1,,82,60
83232,note_on,2,0,4,,,,,,,,,,5,,60,127
83264,note_on,32,0,2,,,,,,,,,,1,,82,0
83280,note_on,16,0,2,,,,,,,,,,1,,79,60
83302,note_on,70,0,1,,,,,,,,,,0,,70,0
83304,note_on,2,0,1,,,,,,,,,,0,,72,110
83312,note_on,32,0,2,,,,,,,,,,1,,79,0
83326,note_on,94,0,4,,,,,,,,,,5,,60,0
83326,note_on,94,0,3,,,,,,,,,,2,,60,0
83326,note_on,22,0,1,,,,,,,,,,0,,72,0
83328,note_on,16,0,2,,,,,,,,,,1,,72,60
83328,note_on,2,0,1,,,,,,,,,,0,,69,110
83338,note_on,10,0,1,,,,,,,,,,0,,69,0
83340,note_on,2,0,1,,,,,,,,,,0,,67,110
83350,note_on,10,0,1,,,,,,,,,,0,,67,0
83352,note_on,2,0,1,,,,,,,,,,0,,69,110
83360,note_on,32,0,2,,,,,,,,,,1,,72,0
83362,note_on,10,0,1,,,,,,,,,,0,,69,0
83364,note_on,2,0,1,,,,,,,,,,0,,67,110
83374,note_on,10,0,1,,,,,,,,,,0,,67,0
83376,note_on,16,0,2,,,,,,,,,,1,,77,60
83376,note_on,2,0,1,,,,,,,,,,0,,69,110
83386,note_on,10,0,1,,,,,,,,,,0,,69,0
83388,note_on,2,0,1,,,,,,,,,,0,,67,110
83398,note_on,10,0,1,,,,,,,,,,0,,67,0
83400,note_on,2,0,1,,,,,,,,,,0,,69,110
83408,note_on,32,0,2,,,,,,,,,,1,,77,0
83410,note_on,10,0,1,,,,,,,,,,0,,69,0
83412,note_on,2,0,1,,,,,,,,,,0,,67,110
83422,note_on,10,0,1,,,,,,,,,,0,,67,0
83424,note_on,98,0,4,,,,,,,,,,5,,65,127
83424,note_on,98,0,3,,,,,,,,,,2,,65,127
83424,note_on,16,0,2,,,,,,,,,,1,,81,60
83424,note_on,2,0,1,,,,,,,,,,0,,65,110
83456,note_on,32,0,2,,,,,,,,,,1,,81,0
83472,note_on,16,0,2,,,,,,,,,,1,,77,60
83504,note_on,32,0,2,,,,,,,,,,1,,77,0
83518,note_on,94,0,4,,,,,,,,,,5,,65,0
83518,note_on,94,0,3,,,,,,,,,,2,,65,0
83518,note_on,94,0,1,,,,,,,,,,0,,65,0
83520,note_on,2,0,4,,,,,,,,,,5,,65,127
83520,note_on,16,0,2,,,,,,,,,,1,,72,60
83520,note_on,2,0,3,,,,,,,,,,2,,65,127
83552,note_on,32,0,2,,,,,,,,,,1,,72,0
83568,note_on,16,0,2,,,,,,,,,,1,,77,60
83600,note_on,32,0,2,,,,,,,,,,1,,77,0
83614,note_on,94,0,3,,,,,,,,,,2,,65,0
83614,note_on,94,0,4,,,,,,,,,,5,,65,0
83616,note_on,2,0,3,,,,,,,,,,2,,65,127
83616,note_on,98,0,1,,,,,,,,,,0,,72,110
83616,note_on,16,0,2,,,,,,,,,,1,,81,60
83616,note_on,2,0,4,,,,,,,,,,5,,65,127
83648,note_on,32,0,2,,,,,,,,,,1,,81,0
83664,note_on,16,0,2,,,,,,,,,,1,,77,60
83696,note_on,32,0,2,,,,,,,,,,1,,77,0
83710,note_on,94,0,1,,,,,,,,,,0,,72,0
83710,note_on,94,0,3,,,,,,,,,,2,,65,0
83710,note_on,94,0,4,,,,,,,,,,5,,65,0
83712,note_on,2,0,1,,,,,,,,,,0,,77,110
83712,note_on,16,0,2,,,,,,,,,,1,,72,60
83744,note_on,32,0,2,,,,,,,,,,1,,72,0
83758,note_on,46,0,1,,,,,,,,,,0,,77,0
83760,note_on,16,0,2,,,,,,,,,,1,,77,60
83760,note_on,2,0,1,,,,,,,,,,0,,79,110
83792,note_on,32,0,2,,,,,,,,,,1,,77,0
83806,note_on,46,0,1,,,,,,,,,,0,,79,0
83808,note_on,16,0,2,,,,,,,,,,1,,81,60
83808,note_on,98,0,4,,,,,,,,,,5,,65,127
83808,note_on,98,0,3,,,,,,,,,,2,,65,127
83808,note_on,2,0,1,,,,,,,,,,0,,81,110
83840,note_on,32,0,2,,,,,,,,,,1,,81,0
83856,note_on,16,0,2,,,,,,,,,,1,,77,60
83888,note_on,32,0,2,,,,,,,,,,1,,77,0
83902,note_on,94,0,4,,,,,,,,,,5,,65,0
83902,note_on,94,0,3,,,,,,,,,,2,,65,0
83904,note_on,2,0,4,,,,,,,,,,5,,65,127
83904,note_on,2,0,3,,,,,,,,,,2,,65,127
83904,note_on,16,0,2,,,,,,,,,,1,,72,60
83936,note_on,32,0,2,,,,,,,,,,1,,72,0
83952,note_on,16,0,2,,,,,,,,,,1,,77,60
83984,note_on,32,0,2,,,,,,,,,,1,,77,0
83998,note_on,190,0,1,,,,,,,,,,0,,81,0
83998,note_on,94,0,4,,,,,,,,,,5,,65,0
83998,note_on,94,0,3,,,,,,,,,,2,,65,0
84000,note_on,2,0,1,,,,,,,,,,0,,77,110
84000,note_on,2,0,3,,,,,,,,,,2,,65,127
84000,note_on,16,0,2,,,,,,,,,,1,,81,60
84000,note_on,2,0,4,,,,,,,,,,5,,65,127
84032,note_on,32,0,2,,,,,,,,,,1,,81,0
84048,note_on,16,0,2,,,,,,,,,,1,,77,60
84080,note_on,32,0,2,,,,,,,,,,1,,77,0
84094,note_on,94,0,4,,,,,,,,,,5,,65,0
84094,note_on,94,0,1,,,,,,,,,,0,,77,0
84094,note_on,94,0,3,,,,,,,,,,2,,65,0
84096,note_on,16,0,2,,,,,,,,,,1,,72,60
84096,note_on,2,0,1,,,,,,,,,,0,,76,110
84106,note_on,10,0,1,,,,,,,,,,0,,76,0
84108,note_on,2,0,1,,,,,,,,,,0,,77,110
84118,note_on,10,0,1,,,,,,,,,,0,,77,0
84120,note_on,2,0,1,,,,,,,,,,0,,76,110
84128,note_on,32,0,2,,,,,,,,,,1,,72,0
84130,note_on,10,0,1,,,,,,,,,,0,,76,0
84132,note_on,2,0,1,,,,,,,,,,0,,77,110
84142,note_on,10,0,1,,,,,,,,,,0,,77,0
84144,note_on,2,0,1,,,,,,,,,,0,,76,110
84144,note_on,16,0,2,,,,,,,,,,1,,76,60
84154,note_on,10,0,1,,,,,,,,,,0,,76,0
84156,note_on,2,0,1,,,,,,,,,,0,,77,110
84166,note_on,10,0,1,,,,,,,,,,0,,77,0
84168,note_on,2,0,1,,,,,,,,,,0,,76,110
84176,note_on,32,0,2,,,,,,,,,,1,,76,0
84178,note_on,10,0,1,,,,,,,,,,0,,76,0
84180,note_on,2,0,1,,,,,,,,,,0,,77,110
84190,note_on,10,0,1,,,,,,,,,,0,,77,0
84192,note_on,98,0,4,,,,,,,,,,5,,60,127
84192,note_on,16,0,2,,,,,,,,,,1,,79,60
84192,note_on,2,0,1,,,,,,,,,,0,,79,110
84192,note_on,98,0,3,,,,,,,,,,2,,60,127
84224,note_on,32,0,2,,,,,,,,,,1,,79,0
84240,note_on,16,0,2,,,,,,,,,,1,,76,60
84272,note_on,32,0,2,,,,,,,,,,1,,76,0
84286,note_on,94,0,3,,,,,,,,,,2,,60,0
84286,note_on,94,0,1,,,,,,,,,,0,,79,0
84286,note_on,94,0,4,,,,,,,,,,5,,60,0
84288,note_on,16,0,2,,,,,,,,,,1,,72,60
84288,note_on,2,0,3,,,,,,,,,,2,,60,127
84288,note_on,2,0,4,,,,,,,,,,5,,60,127
84320,note_on,32,0,2,,,,,,,,,,1,,72,0
84336,note_on,50,0,1,,,,,,,,,,0,,72,110
84336,note_on,16,0,2,,,,,,,,,,1,,76,60
84368,note_on,32,0,2,,,,,,,,,,1,,76,0
84382,note_on,94,0,3,,,,,,,,,,2,,60,0
84382,note_on,94,0,4,,,,,,,,,,5,,60,0
84382,note_on,46,0,1,,,,,,,,,,0,,72,0
84384,note_on,2,0,3,,,,,,,,,,2,,60,127
84384,note_on,2,0,1,,,,,,,,,,0,,76,110
84384,note_on,2,0,4,,,,,,,,,,5,,60,127
84384,note_on,16,0,2,,,,,,,,,,1,,79,60
84416,note_on,32,0,2,,,,,,,,,,1,,79,0
84430,note_on,46,0,1,,,,,,,,,,0,,76,0
84432,note_on,16,0,2,,,,,,,,,,1,,76,60
84432,note_on,2,0,1,,,,,,,,,,0,,79,110
84464,note_on,32,0,2,,,,,,,,,,1,,76,0
84478,note_on,94,0,3,,,,,,,,,,2,,60,0
84478,note_on,94,0,4,,,,,,,,,,5,,60,0
84478,note_on,46,0,1,,,,,,,,,,0,,79,0
84480,note_on,16,0,2,,,,,,,,,,1,,72,60
84480,note_on,2,0,1,,,,,,,,,,0,,77,110
84512,note_on,32,0,2,,,,,,,,,,1,,72,0
84526,note_on,46,0,1,,,,,,,,,,0,,77,0
84528,note_on,2,0,1,,,,,,,,,,0,,79,110
84528,note_on,16,0,2,,,,,,,,,,1,,77,60
84560,note_on,32,0,2,,,,,,,,,,1,,77,0
84574,note_on,46,0,1,,,,,,,,,,0,,79,0
84576,note_on,98,0,4,,,,,,,,,,5,,65,127
84576,note_on,2,0,1,,,,,,,,,,0,,81,110
84576,note_on,16,0,2,,,,,,,,,,1,,81,60
84576,note_on,98,0,3,,,,,,,,,,2,,65,127
84608,note_on,32,0,2,,,,,,,,,,1,,81,0
84624,note_on,16,0,2,,,,,,,,,,1,,77,60
84656,note_on,32,0,2,,,,,,,,,,1,,77,0
84670,note_on,94,0,3,,,,,,,,,,2,,65,0
84670,note_on,94,0,4,,,,,,,,,,5,,65,0
84672,note_on,2,0,4,,,,,,,,,,5,,65,127
84672,note_on,16,0,2,,,,,,,,,,1,,72,60
84672,note_on,2,0,3,,,,,,,,,,2,,65,127
84704,note_on,32,0,2,,,,,,,,,,1,,72,0
84720,note_on,16,0,2,,,,,,,,,,1,,77,60
84752,note_on,32,0,2,,,,,,,,,,1,,77,0
84766,note_on,94,0,3,,,,,,,,,,2,,65,0
84766,note_on,190,0,1,,,,,,,,,,0,,81,0
84766,note_on,94,0,4,,,,,,,,,,5,,65,0
84768,note_on,2,0,1,,,,,,,,,,0,,77,110
84768,note_on,16,0,2,,,,,,,,,,1,,81,60
84768,note_on,2,0,4,,,,,,,,,,5,,65,127
84768,note_on,2,0,3,,,,,,,,,,2,,65,127
84800,note_on,32,0,2,,,,,,,,,,1,,81,0
84816,note_on,16,0,2,,,,,,,,,,1,,77,60
84848,note_on,32,0,2,,,,,,,,,,1,,77,0
84862,note_on,94,0,4,,,,,,,,,,5,,65,0
84862,note_on,94,0,3,,,,,,,,,,2,,65,0
84862,note_on,94,0,1,,,,,,,,,,0,,77,0
84864,note_on,16,0,2,,,,,,,,,,1,,76,60
84864,note_on,2,0,1,,,,,,,,,,0,,76,110
84896,note_on,32,0,2,,,,,,,,,,1,,76,0
84910,note_on,46,0,1,,,,,,,,,,0,,76,0
84912,note_on,2,0,1,,,,,,,,,,0,,77,110
84912,note_on,16,0,2,,,,,,,,,,1,,79,60
84944,note_on,32,0,2,,,,,,,,,,1,,79,0
84958,note_on,46,0,1,,,,,,,,,,0,,77,0
84960,note_on,98,0,3,,,,,,,,,,2,,60,127
84960,note_on,2,0,1,,,,,,,,,,0,,79,110
84960,note_on,98,0,4,,,,,,,,,,5,,60,127
84960,note_on,16,0,2,,,,,,,,,,1,,82,60
84992,note_on,32,0,2,,,,,,,,,,1,,82,0
85008,note_on,16,0,2,,,,,,,,,,1,,79,60
85040,note_on,32,0,2,,,,,,,,,,1,,79,0
85054,note_on,94,0,4,,,,,,,,,,5,,60,0
85054,note_on,94,0,3,,,,,,,,,,2,,60,0
85056,note_on,2,0,3,,,,,,,,,,2,,60,127
85056,note_on,2,0,4,,,,,,,,,,5,,60,127
85056,note_on,16,0,2,,,,,,,,,,1,,76,60
85088,note_on,32,0,2,,,,,,,,,,1,,76,0
85104,note_on,16,0,2,,,,,,,,,,1,,79,60
85136,note_on,32,0,2,,,,,,,,,,1,,79,0
85150,note_on,94,0,3,,,,,,,,,,2,,60,0
85150,note_on,190,0,1,,,,,,,,,,0,,79,0
85150,note_on,94,0,4,,,,,,,,,,5,,60,0
85152,note_on,2,0,1,,,,,,,,,,0,,72,110
85152,note_on,16,0,2,,,,,,,,,,1,,82,60
85152,note_on,2,0,3,,,,,,,,,,2,,60,127
85152,note_on,2,0,4,,,,,,,,,,5,,60,127
85162,note_on,10,0,1,,,,,,,,,,0,,72,0
85164,note_on,2,0,1,,,,,,,,,,0,,74,110
85174,note_on,10,0,1,,,,,,,,,,0,,74,0
85176,note_on,2,0,1,,,,,,,,,,0,,72,110
85184,note_on,32,0,2,,,,,,,,,,1,,82,0
85200,note_on,16,0,2,,,,,,,,,,1,,79,60
85232,note_on,32,0,2,,,,,,,,,,1,,79,0
85246,note_on,70,0,1,,,,,,,,,,0,,72,0
85246,note_on,94,0,4,,,,,,,,,,5,,60,0
85246,note_on,94,0,3,,,,,,,,,,2,,60,0
85248,note_on,0,0,1,,,,,,,,,,0,,69,110
85248,note_on,2,0,1,,,,,,,,,,0,,65,110
85248,note_on,16,0,2,,,,,,,,,,1,,72,60
85280,note_on,32,0,2,,,,,,,,,,1,,72,0
85296,note_on,16,0,2,,,,,,,,,,1,,77,60
85318,note_on,70,0,1,,,,,,,,,,0,,65,0
85318,note_on,0,0,1,,,,,,,,,,0,,69,0
85320,note_on,2,0,1,,,,,,,,,,0,,70,110
85328,note_on,32,0,2,,,,,,,,,,1,,77,0
85342,note_on,22,0,1,,,,,,,,,,0,,70,0
85344,note_on,16,0,2,,,,,,,,,,1,,81,60
85344,note_on,98,0,3,,,,,,,,,,2,,60,127
85344,note_on,2,0,1,,,,,,,,,,0,,65,110
85344,note_on,0,0,1,,,,,,,,,,0,,72,110
85344,note_on,98,0,4,,,,,,,,,,5,,60,127
85376,note_on,32,0,2,,,,,,,,,,1,,81,0
85392,note_on,16,0,2,,,,,,,,,,1,,77,60
85424,note_on,32,0,2,,,,,,,,,,1,,77,0
85438,note_on,94,0,1,,,,,,,,,,0,,65,0
85438,note_on,0,0,1,,,,,,,,,,0,,72,0
85438,note_on,94,0,3,,,,,,,,,,2,,60,0
85438,note_on,94,0,4,,,,,,,,,,5,,60,0
85440,note_on,2,0,1,,,,,,,,,,0,,67,110
85440,note_on,16,0,2,,,,,,,,,,1,,72,60
85440,note_on,2,0,3,,,,,,,,,,2,,60,127
85440,note_on,2,0,4,,,,,,,,,,5,,60,127
85472,note_on,32,0,2,,,,,,,,,,1,,72,0
85488,note_on,16,0,2,,,,,,,,,,1,,76,60
85510,note_on,70,0,1,,,,,,,,,,0,,67,0
85512,note_on,2,0,1,,,,,,,,,,0,,79,110
85520,note_on,32,0,2,,,,,,,,,,1,,76,0
85534,note_on,94,0,3,,,,,,,,,,2,,60,0
85534,note_on,22,0,1,,,,,,,,,,0,,79,0
85534,note_on,94,0,4,,,,,,,,,,5,,60,0
85536,note_on,2,0,1,,,,,,,,,,0,,72,110
85536,note_on,2,0,4,,,,,,,,,,5,,60,127
85536,note_on,16,0,2,,,,,,,,,,1,,79,60
85536,note_on,2,0,3,,,,,,,,,,2,,60,127
85568,note_on,32,0,2,,,,,,,,,,1,,79,0
85584,note_on,16,0,2,,,,,,,,,,1,,76,60
85606,note_on,70,0,1,,,,,,,,,,0,,72,0
85608,note_on,2,0,1,,,,,,,,,,0,,70,110
85616,note_on,32,0,2,,,,,,,,,,1,,76,0
85630,note_on,94,0,3,,,,,,,,,,2,,60,0
85630,note_on,22,0,1,,,,,,,,,,0,,70,0
85630,note_on,94,0,4,,,,,,,,,,5,,60,0
85632,note_on,16,0,2,,,,,,,,,,1,,72,60
85632,note_on,0,0,1,,,,,,,,,,0,,69,110
85632,note_on,2,0,1,,,,,,,,,,0,,65,110
85664,note_on,32,0,2,,,,,,,,,,1,,72,0
85680,note_on,16,0,2,,,,,,,,,,1,,77,60
85702,note_on,0,0,1,,,,,,,,,,0,,69,0
85702,note_on,70,0,1,,,,,,,,,,0,,65,0
85704,note_on,2,0,1,,,,,,,,,,0,,70,110
85712,note_on,32,0,2,,,,,,,,,,1,,77,0
85726,note_on,22,0,1,,,,,,,,,,0,,70,0
85728,note_on,16,0,2,,,,,,,,,,1,,81,60
85728,note_on,0,0,1,,,,,,,,,,0,,72,110
85728,note_on,98,0,3,,,,,,,,,,2,,60,127
85728,note_on,2,0,1,,,,,,,,,,0,,65,110
85728,note_on,98,0,4,,,,,,,,,,5,,60,127
85760,note_on,32,0,2,,,,,,,,,,1,,81,0
85776,note_on,16,0,2,,,,,,,,,,1,,77,60
85808,note_on,32,0,2,,,,,,,,,,1,,77,0
85822,note_on,94,0,1,,,,,,,,,,0,,65,0
85822,note_on,0,0,1,,,,,,,,,,0,,72,0
85822,note_on,94,0,3,,,,,,,,,,2,,60,0
85822,note_on,94,0,4,,,,,,,,,,5,,60,0
85824,note_on,2,0,1,,,,,,,,,,0,,67,110
85824,note_on,16,0,2,,,,,,,,,,1,,72,60
85824,note_on,2,0,3,,,,,,,,,,2,,60,127
85824,note_on,2,0,4,,,,,,,,,,5,,60,127
85856,note_on,32,0,2,,,,,,,,,,1,,72,0
85872,note_on,16,0,2,,,,,,,,,,1,,76,60
85894,note_on,70,0,1,,,,,,,,,,0,,67,0
85896,note_on,2,0,1,,,,,,,,,,0,,79,110
85904,note_on,32,0,2,,,,,,,,,,1,,76,0
85918,note_on,22,0,1,,,,,,,,,,0,,79,0
85918,note_on,94,0,4,,,,,,,,,,5,,60,0
85918,note_on,94,0,3,,,,,,,,,,2,,60,0
85920,note_on,2,0,4,,,,,,,,,,5,,60,127
85920,note_on,2,0,3,,,,,,,,,,2,,60,127
85920,note_on,16,0,2,,,,,,,,,,1,,79,60
85920,note_on,2,0,1,,,,,,,,,,0,,72,110
85952,note_on,32,0,2,,,,,,,,,,1,,79,0
85968,note_on,16,0,2,,,,,,,,,,1,,76,60
85990,note_on,70,0,1,,,,,,,,,,0,,72,0
85992,note_on,2,0,1,,,,,,,,,,0,,70,110
86000,note_on,32,0,2,,,,,,,,,,1,,76,0
86014,note_on,94,0,4,,,,,,,,,,5,,60,0
86014,note_on,22,0,1,,,,,,,,,,0,,70,0
86014,note_on,94,0,3,,,,,,,,,,2,,60,0
86016,note_on,16,0,2,,,,,,,,,,1,,72,60
86016,note_on,2,0,1,,,,,,,,,,0,,69,110
86048,note_on,32,0,2,,,,,,,,,,1,,72,0
86064,note_on,16,0,2,,,,,,,,,,1,,77,60
86086,note_on,70,0,1,,,,,,,,,,0,,69,0
86088,note_on,2,0,1,,,,,,,,,,0,,72,110
86096,note_on,32,0,2,,,,,,,,,,1,,77,0
86110,note_on,22,0,1,,,,,,,,,,0,,72,0
86112,note_on,98,0,3,,,,,,,,,,2,,65,127
86112,note_on,2,0,1,,,,,,,,,,0,,77,110
86112,note_on,16,0,2,,,,,,,,,,1,,81,60
86112,note_on,98,0,4,,,,,,,,,,5,,65,127
86144,note_on,32,0,2,,,,,,,,,,1,,81,0
86160,note_on,16,0,2,,,,,,,,,,1,,77,60
86182,note_on,70,0,1,,,,,,,,,,0,,77,0
86184,note_on,2,0,1,,,,,,,,,,0,,79,110
86192,note_on,32,0,2,,,,,,,,,,1,,77,0
86206,note_on,22,0,1,,,,,,,,,,0,,79,0
86206,note_on,94,0,3,,,,,,,,,,2,,65,0
86206,note_on,94,0,4,,,,,,,,,,5,,65,0
86208,note_on,2,0,4,,,,,,,,,,5,,72,127
86208,note_on,16,0,2,,,,,,,,,,1,,72,60
86208,note_on,2,0,1,,,,,,,,,,0,,81,110
86208,note_on,2,0,3,,,,,,,,,,2,,72,127
86218,note_on,10,0,1,,,,,,,,,,0,,81,0
86220,note_on,2,0,1,,,,,,,,,,0,,79,110
86230,note_on,10,0,1,,,,,,,,,,0,,79,0
86232,note_on,2,0,1,,,,,,,,,,0,,81,92
86240,note_on,32,0,2,,,,,,,,,,1,,72,0
86242,note_on,10,0,1,,,,,,,,,,0,,81,0
86244,note_on,2,0,1,,,,,,,,,,0,,79,92
86254,note_on,10,0,1,,,,,,,,,,0,,79,0
86256,note_on,16,0,2,,,,,,,,,,1,,76,60
86256,note_on,2,0,1,,,,,,,,,,0,,81,75
86266,note_on,10,0,1,,,,,,,,,,0,,81,0
86268,note_on,2,0,1,,,,,,,,,,0,,79,75
86278,note_on,10,0,1,,,,,,,,,,0,,79,0
86280,note_on,2,0,1,,,,,,,,,,0,,81,60
86288,note_on,32,0,2,,,,,,,,,,1,,76,0
86290,note_on,10,0,1,,,,,,,,,,0,,81,0
86292,note_on,2,0,1,,,,,,,,,,0,,79,108
86302,note_on,94,0,4,,,,,,,,,,5,,72,0
86302,note_on,94,0,3,,,,,,,,,,2,,72,0
86304,note_on,2,0,4,,,,,,,,,,5,,60,127
86304,note_on,16,0,2,,,,,,,,,,1,,79,60
86304,note_on,2,0,3,,,,,,,,,,2,,60,127
86336,note_on,32,0,2,,,,,,,,,,1,,79,0
86350,note_on,58,0,1,,,,,,,,,,0,,79,0
86352,note_on,2,0,1,,,,,,,,,,0,,77,92
86352,note_on,16,0,2,,,,,,,,,,1,,76,60
86384,note_on,32,0,2,,,,,,,,,,1,,76,0
86398,note_on,94,0,3,,,,,,,,,,2,,60,0
86398,note_on,94,0,4,,,,,,,,,,5,,60,0
86398,note_on,46,0,1,,,,,,,,,,0,,77,0
86400,set_tempo,15744,1,0,1200000,,,,,,,,,,,,
86592,note_on,194,0,3,,,,,,,,,,2,,65,127
86592,note_on,194,0,1,,,,,,,,,,0,,77,92
86592,note_on,194,0,4,,,,,,,,,,5,,65,127
86592,note_on,0,0,2,,,,,,,,,,1,,81,60
86592,set_tempo,192,1,0,3000000,,,,,,,,,,,,
86592,note_on,0,0,2,,,,,,,,,,1,,72,60
86592,note_on,0,0,2,,,,,,,,,,1,,77,60
86592,note_on,208,0,2,,,,,,,,,,1,,69,60
86752,note_on,160,0,4,,,,,,,,,,5,,65,0
86752,note_on,0,0,2,,,,,,,,,,1,,77,0
86752,note_on,160,0,3,,,,,,,,,,2,,65,0
86752,note_on,0,0,2,,,,,,,,,,1,,81,0
86752,note_on,0,0,2,,,,,,,,,,1,,72,0
86752,note_on,160,0,2,,,,,,,,,,1,,69,0
86752,note_on,160,0,1,,,,,,,,,,0,,77,0
86784,set_tempo,192,1,0,1200000,,,,,,,,,,,,
87552,time_signature,800,1,2,,,3,8,24,8,,,,,,,
87552,note_on,0,0,4,,,,,,,,,,5,,74,127
87552,control_change,0,0,4,,,,,,,,10,64,5,,,
87552,set_tempo,768,1,0,769230,,,,,,,,,,,,
87552,time_signature,16896,1,7,,,3,8,24,8,,,,,,,
87552,note_on,0,0,5,,,,,,,,,,4,,69,60
87552,time_signature,16896,1,5,,,3,8,24,8,,,,,,,
87552,note_on,0,0,7,,,,,,,,,,7,,62,75
87552,time_signature,800,1,4,,,3,8,24,8,,,,,,,
87552,time_signature,800,1,3,,,3,8,24,8,,,,,,,
87552,time_signature,0,1,0,,,3,8,24,8,,,,,,,
87552,control_change,0,0,3,,,,,,,,10,64,2,,,
87552,note_on,0,0,3,,,,,,,,,,2,,74,127
87552,time_signature,16896,1,6,,,3,8,24,8,,,,,,,
87552,note_on,0,0,6,,,,,,,,,,6,,62,75
87552,control_change,0,0,1,,,,,,,,10,127,0,,,
87552,time_signature,800,1,1,,,3,8,24,8,,,,,,,
87646,note_on,94,0,6,,,,,,,,,,6,,62,0
87646,note_on,94,0,3,,,,,,,,,,2,,74,0
87646,note_on,94,0,7,,,,,,,,,,7,,62,0
87646,note_on,94,0,5,,,,,,,,,,4,,69,0
87646,note_on,94,0,4,,,,,,,,,,5,,74,0
87648,note_on,2,0,5,,,,,,,,,,4,,62,60
87648,note_on,2,0,3,,,,,,,,,,2,,62,127
87648,note_on,2,0,7,,,,,,,,,,7,,50,75
87648,note_on,2,0,4,,,,,,,,,,5,,62,127
87648,note_on,2,0,6,,,,,,,,,,6,,50,75
87694,note_on,46,0,4,,,,,,,,,,5,,62,0
87694,note_on,46,0,3,,,,,,,,,,2,,62,0
87696,note_on,2,0,3,,,,,,,,,,2,,79,127
87696,note_on,2,0,4,,,,,,,,,,5,,76,127
87742,note_on,94,0,5,,,,,,,,,,4,,62,0
87742,note_on,94,0,6,,,,,,,,,,6,,50,0
87742,note_on,94,0,7,,,,,,,,,,7,,50,0
87742,note_on,46,0,4,,,,,,,,,,5,,76,0
87742,note_on,46,0,3,,,,,,,,,,2,,79,0
87744,note_on,2,0,5,,,,,,,,,,4,,69,60
87744,note_on,2,0,7,,,,,,,,,,7,,57,75
87744,note_on,2,0,3,,,,,,,,,,2,,77,127
87744,note_on,2,0,4,,,,,,,,,,5,,74,127
87744,note_on,2,0,6,,,,,,,,,,6,,57,75
87790,note_on,46,0,4,,,,,,,,,,5,,74,0
87790,note_on,46,0,3,,,,,,,,,,2,,77,0
87792,note_on,2,0,3,,,,,,,,,,2,,76,127
87792,note_on,2,0,4,,,,,,,,,,5,,73,127
87838,note_on,46,0,4,,,,,,,,,,5,,73,0
87838,note_on,94,0,7,,,,,,,,,,7,,57,0
87838,note_on,94,0,6,,,,,,,,,,6,,57,0
87838,note_on,94,0,5,,,,,,,,,,4,,69,0
87838,note_on,46,0,3,,,,,,,,,,2,,76,0
87840,note_on,2,0,7,,,,,,,,,,7,,62,75
87840,note_on,2,0,6,,,,,,,,,,6,,62,75
87840,note_on,2,0,4,,,,,,,,,,5,,74,127
87840,note_on,2,0,3,,,,,,,,,,2,,74,127
87840,note_on,2,0,5,,,,,,,,,,4,,69,60
87934,note_on,94,0,3,,,,,,,,,,2,,74,0
87934,note_on,94,0,6,,,,,,,,,,6,,62,0
87934,note_on,94,0,5,,,,,,,,,,4,,69,0
87934,note_on,94,0,4,,,,,,,,,,5,,74,0
87934,note_on,94,0,7,,,,,,,,,,7,,62,0
87936,note_on,2,0,3,,,,,,,,,,2,,62,127
87936,note_on,2,0,6,,,,,,,,,,6,,50,75
87936,note_on,2,0,4,,,,,,,,,,5,,62,127
87936,note_on,2,0,5,,,,,,,,,,4,,62,60
87936,note_on,2,0,7,,,,,,,,,,7,,50,75
87982,note_on,46,0,3,,,,,,,,,,2,,62,0
87982,note_on,46,0,4,,,,,,,,,,5,,62,0
87984,note_on,2,0,4,,,,,,,,,,5,,76,127
87984,note_on,2,0,3,,,,,,,,,,2,,79,127
88030,note_on,94,0,7,,,,,,,,,,7,,50,0
88030,note_on,46,0,3,,,,,,,,,,2,,79,0
88030,note_on,46,0,4,,,,,,,,,,5,,76,0
88030,note_on,94,0,5,,,,,,,,,,4,,62,0
88030,note_on,94,0,6,,,,,,,,,,6,,50,0
88032,note_on,2,0,3,,,,,,,,,,2,,77,127
88032,note_on,2,0,7,,,,,,,,,,7,,57,75
88032,note_on,2,0,6,,,,,,,,,,6,,57,75
88032,note_on,2,0,5,,,,,,,,,,4,,69,60
88032,note_on,2,0,4,,,,,,,,,,5,,74,127
88078,note_on,46,0,4,,,,,,,,,,5,,74,0
88078,note_on,46,0,3,,,,,,,,,,2,,77,0
88080,note_on,2,0,4,,,,,,,,,,5,,73,127
88080,note_on,2,0,3,,,,,,,,,,2,,76,127
88126,note_on,46,0,3,,,,,,,,,,2,,76,0
88126,note_on,94,0,6,,,,,,,,,,6,,57,0
88126,note_on,94,0,5,,,,,,,,,,4,,69,0
88126,note_on,94,0,7,,,,,,,,,,7,,57,0
88126,note_on,46,0,4,,,,,,,,,,5,,73,0
88128,note_on,2,0,3,,,,,,,,,,2,,74,127
88128,note_on,2,0,5,,,,,,,,,,4,,69,60
88128,note_on,2,0,4,,,,,,,,,,5,,74,127
88128,note_on,2,0,7,,,,,,,,,,7,,62,75
88128,note_on,2,0,6,,,,,,,,,,6,,62,75
88174,note_on,46,0,6,,,,,,,,,,6,,62,0
88174,note_on,46,0,7,,,,,,,,,,7,,62,0
88174,note_on,46,0,3,,,,,,,,,,2,,74,0
88174,note_on,46,0,4,,,,,,,,,,5,,74,0
88176,note_on,2,0,3,,,,,,,,,,2,,76,127
88176,note_on,2,0,6,,,,,,,,,,6,,57,75
88176,note_on,2,0,7,,,,,,,,,,7,,57,75
88176,note_on,2,0,4,,,,,,,,,,5,,73,127
88222,note_on,46,0,6,,,,,,,,,,6,,57,0
88222,note_on,46,0,3,,,,,,,,,,2,,76,0
88222,note_on,46,0,4,,,,,,,,,,5,,73,0
88222,note_on,46,0,7,,,,,,,,,,7,,57,0
88224,note_on,2,0,7,,,,,,,,,,7,,53,75
88224,note_on,2,0,3,,,,,,,,,,2,,77,127
88224,note_on,2,0,6,,,,,,,,,,6,,53,75
88224,note_on,2,0,4,,,,,,,,,,5,,74,127
88270,note_on,46,0,6,,,,,,,,,,6,,53,0
88270,note_on,46,0,4,,,,,,,,,,5,,74,0
88270,note_on,46,0,7,,,,,,,,,,7,,53,0
88270,note_on,46,0,3,,,,,,,,,,2,,77,0
88272,note_on,2,0,4,,,,,,,,,,5,,76,127
88272,note_on,2,0,3,,,,,,,,,,2,,79,127
88272,note_on,2,0,7,,,,,,,,,,7,,52,75
88272,note_on,2,0,6,,,,,,,,,,6,,52,75
88288,note_on,160,0,5,,,,,,,,,,4,,69,0
88318,note_on,46,0,3,,,,,,,,,,2,,79,0
88318,note_on,46,0,7,,,,,,,,,,7,,52,0
88318,note_on,46,0,4,,,,,,,,,,5,,76,0
88318,note_on,46,0,6,,,,,,,,,,6,,52,0
88320,note_on,2,0,4,,,,,,,,,,5,,77,127
88320,note_on,2,0,6,,,,,,,,,,6,,50,75
88320,note_on,2,0,3,,,,,,,,,,2,,81,127
88320,note_on,2,0,7,,,,,,,,,,7,,50,75
88320,note_on,32,0,5,,,,,,,,,,4,,69,60
88366,note_on,46,0,3,,,,,,,,,,2,,81,0
88366,note_on,46,0,4,,,,,,,,,,5,,77,0
88368,note_on,2,0,4,,,,,,,,,,5,,74,127
88368,note_on,2,0,3,,,,,,,,,,2,,74,127
88414,note_on,46,0,4,,,,,,,,,,5,,74,0
88414,note_on,94,0,5,,,,,,,,,,4,,69,0
88414,note_on,94,0,7,,,,,,,,,,7,,50,0
88414,note_on,46,0,3,,,,,,,,,,2,,74,0
88414,note_on,94,0,6,,,,,,,,,,6,,50,0
88416,note_on,2,0,6,,,,,,,,,,6,,57,75
88416,note_on,2,0,7,,,,,,,,,,7,,57,75
88416,note_on,2,0,3,,,,,,,,,,2,,76,127
88416,note_on,2,0,4,,,,,,,,,,5,,73,127
88416,note_on,2,0,5,,,,,,,,,,4,,69,60
88510,note_on,94,0,6,,,,,,,,,,6,,57,0
88510,note_on,94,0,3,,,,,,,,,,2,,76,0
88510,note_on,94,0,4,,,,,,,,,,5,,73,0
88510,note_on,94,0,7,,,,,,,,,,7,,57,0
88512,note_on,2,0,4,,,,,,,,,,5,,69,127
88512,note_on,2,0,7,,,,,,,,,,7,,45,75
88512,note_on,2,0,6,,,,,,,,,,6,,45,75
88512,note_on,2,0,3,,,,,,,,,,2,,73,127
88558,note_on,46,0,3,,,,,,,,,,2,,73,0
88558,note_on,46,0,4,,,,,,,,,,5,,69,0
88560,note_on,2,0,3,,,,,,,,,,2,,79,127
88560,note_on,2,0,4,,,,,,,,,,5,,76,127
88576,note_on,160,0,5,,,,,,,,,,4,,69,0
88606,note_on,94,0,6,,,,,,,,,,6,,45,0
88606,note_on,94,0,7,,,,,,,,,,7,,45,0
88606,note_on,46,0,3,,,,,,,,,,2,,79,0
88606,note_on,46,0,4,,,,,,,,,,5,,76,0
88608,note_on,2,0,7,,,,,,,,,,7,,57,75
88608,note_on,2,0,6,,,,,,,,,,6,,57,75
88608,note_on,2,0,3,,,,,,,,,,2,,77,127
88608,note_on,2,0,4,,,,,,,,,,5,,74,127
88608,note_on,32,0,5,,,,,,,,,,4,,69,60
88654,note_on,46,0,4,,,,,,,,,,5,,74,0
88654,note_on,46,0,3,,,,,,,,,,2,,77,0
88656,note_on,2,0,3,,,,,,,,,,2,,76,127
88656,note_on,2,0,4,,,,,,,,,,5,,73,127
88702,note_on,46,0,4,,,,,,,,,,5,,73,0
88702,note_on,46,0,3,,,,,,,,,,2,,76,0
88702,note_on,94,0,5,,,,,,,,,,4,,69,0
88702,note_on,94,0,7,,,,,,,,,,7,,57,0
88702,note_on,94,0,6,,,,,,,,,,6,,57,0
88704,note_on,2,0,5,,,,,,,,,,4,,69,60
88704,note_on,2,0,6,,,,,,,,,,6,,62,75
88704,note_on,2,0,3,,,,,,,,,,2,,77,127
88704,note_on,2,0,7,,,,,,,,,,7,,62,75
88704,note_on,2,0,4,,,,,,,,,,5,,74,127
88798,note_on,94,0,4,,,,,,,,,,5,,74,0
88798,note_on,94,0,3,,,,,,,,,,2,,77,0
88798,note_on,94,0,7,,,,,,,,,,7,,62,0
88798,note_on,94,0,6,,,,,,,,,,6,,62,0
88800,note_on,2,0,4,,,,,,,,,,5,,69,127
88800,note_on,2,0,3,,,,,,,,,,2,,74,127
88800,note_on,2,0,7,,,,,,,,,,7,,50,75
88800,note_on,2,0,6,,,,,,,,,,6,,50,75
88846,note_on,46,0,3,,,,,,,,,,2,,74,0
88846,note_on,46,0,4,,,,,,,,,,5,,69,0
88848,note_on,2,0,4,,,,,,,,,,5,,77,127
88848,note_on,2,0,3,,,,,,,,,,2,,81,127
88864,note_on,160,0,5,,,,,,,,,,4,,69,0
88894,note_on,94,0,7,,,,,,,,,,7,,50,0
88894,note_on,94,0,6,,,,,,,,,,6,,50,0
88894,note_on,46,0,3,,,,,,,,,,2,,81,0
88894,note_on,46,0,4,,,,,,,,,,5,,77,0
88896,note_on,2,0,7,,,,,,,,,,7,,62,75
88896,note_on,2,0,4,,,,,,,,,,5,,76,127
88896,note_on,2,0,6,,,,,,,,,,6,,62,75
88896,note_on,32,0,5,,,,,,,,,,4,,69,60
88896,note_on,2,0,3,,,,,,,,,,2,,79,127
88942,note_on,46,0,4,,,,,,,,,,5,,76,0
88942,note_on,46,0,3,,,,,,,,,,2,,79,0
88944,note_on,2,0,4,,,,,,,,,,5,,74,127
88944,note_on,2,0,3,,,,,,,,,,2,,77,127
88990,note_on,94,0,7,,,,,,,,,,7,,62,0
88990,note_on,94,0,5,,,,,,,,,,4,,69,0
88990,note_on,94,0,6,,,,,,,,,,6,,62,0
88990,note_on,46,0,4,,,,,,,,,,5,,74,0
88990,note_on,46,0,3,,,,,,,,,,2,,77,0
88992,note_on,2,0,4,,,,,,,,,,5,,69,127
88992,note_on,2,0,7,,,,,,,,,,7,,57,75
88992,note_on,2,0,6,,,,,,,,,,6,,57,75
88992,note_on,2,0,3,,,,,,,,,,2,,79,127
88992,note_on,0,0,4,,,,,,,,,,5,,76,127
88992,note_on,2,0,5,,,,,,,,,,4,,69,60
89014,note_on,22,0,3,,,,,,,,,,2,,79,0
89014,note_on,0,0,4,,,,,,,,,,5,,76,0
89014,note_on,22,0,4,,,,,,,,,,5,,69,0
89016,note_on,2,0,4,,,,,,,,,,5,,74,127
89016,note_on,2,0,3,,,,,,,,,,2,,77,127
89038,note_on,22,0,4,,,,,,,,,,5,,74,0
89038,note_on,22,0,3,,,,,,,,,,2,,77,0
89040,note_on,2,0,3,,,,,,,,,,2,,79,127
89040,note_on,2,0,4,,,,,,,,,,5,,76,127
89062,note_on,22,0,4,,,,,,,,,,5,,76,0
89062,note_on,22,0,3,,,,,,,,,,2,,79,0
89064,note_on,2,0,4,,,,,,,,,,5,,74,127
89064,note_on,2,0,3,,,,,,,,,,2,,77,127
89086,note_on,22,0,4,,,,,,,,,,5,,74,0
89086,note_on,94,0,7,,,,,,,,,,7,,57,0
89086,note_on,94,0,6,,,,,,,,,,6,,57,0
89086,note_on,22,0,3,,,,,,,,,,2,,77,0
89086,note_on,94,0,5,,,,,,,,,,4,,69,0
89088,note_on,0,0,4,,,,,,,,,,5,,73,127
89088,note_on,2,0,7,,,,,,,,,,7,,45,75
89088,note_on,2,0,6,,,,,,,,,,6,,45,75
89088,note_on,2,0,3,,,,,,,,,,2,,76,127
89088,note_on,2,0,4,,,,,,,,,,5,,69,127
89088,note_on,2,0,5,,,,,,,,,,4,,69,60
89182,note_on,94,0,6,,,,,,,,,,6,,45,0
89182,note_on,94,0,3,,,,,,,,,,2,,76,0
89182,note_on,94,0,7,,,,,,,,,,7,,45,0
89182,note_on,0,0,4,,,,,,,,,,5,,73,0
89182,note_on,94,0,4,,,,,,,,,,5,,69,0
89182,note_on,94,0,5,,,,,,,,,,4,,69,0
89184,note_on,2,0,5,,,,,,,,,,4,,69,60
89184,note_on,2,0,7,,,,,,,,,,7,,61,75
89184,note_on,2,0,6,,,,,,,,,,6,,61,75
89278,note_on,94,0,5,,,,,,,,,,4,,69,0
89278,note_on,94,0,6,,,,,,,,,,6,,61,0
89278,note_on,94,0,7,,,,,,,,,,7,,61,0
89280,note_on,98,0,4,,,,,,,,,,5,,77,127
89280,note_on,98,0,3,,,,,,,,,,2,,81,127
89280,note_on,2,0,6,,,,,,,,,,6,,62,75
89280,note_on,2,0,5,,,,,,,,,,4,,69,60
89280,note_on,2,0,7,,,,,,,,,,7,,62,75
89374,note_on,94,0,6,,,,,,,,,,6,,62,0
89374,note_on,94,0,7,,,,,,,,,,7,,62,0
89374,note_on,94,0,4,,,,,,,,,,5,,77,0
89374,note_on,94,0,3,,,,,,,,,,2,,81,0
89374,note_on,94,0,5,,,,,,,,,,4,,69,0
89376,note_on,2,0,4,,,,,,,,,,5,,57,127
89376,note_on,2,0,7,,,,,,,,,,7,,45,75
89376,note_on,2,0,6,,,,,,,,,,6,,45,75
89376,note_on,2,0,5,,,,,,,,,,4,,57,60
89376,note_on,2,0,3,,,,,,,,,,2,,57,127
89422,note_on,46,0,4,,,,,,,,,,5,,57,0
89422,note_on,46,0,3,,,,,,,,,,2,,57,0
89424,note_on,2,0,4,,,,,,,,,,5,,77,127
89424,note_on,2,0,3,,,,,,,,,,2,,81,127
89470,note_on,46,0,4,,,,,,,,,,5,,77,0
89470,note_on,46,0,3,,,,,,,,,,2,,81,0
89470,note_on,94,0,7,,,,,,,,,,7,,45,0
89470,note_on,94,0,5,,,,,,,,,,4,,57,0
89470,note_on,94,0,6,,,,,,,,,,6,,45,0
89472,note_on,2,0,5,,,,,,,,,,4,,69,60
89472,note_on,2,0,6,,,,,,,,,,6,,62,75
89472,note_on,2,0,4,,,,,,,,,,5,,76,127
89472,note_on,2,0,7,,,,,,,,,,7,,62,75
89472,note_on,2,0,3,,,,,,,,,,2,,79,127
89518,note_on,46,0,4,,,,,,,,,,5,,76,0
89518,note_on,46,0,3,,,,,,,,,,2,,79,0
89520,note_on,2,0,3,,,,,,,,,,2,,77,127
89520,note_on,2,0,4,,,,,,,,,,5,,74,127
89566,note_on,94,0,6,,,,,,,,,,6,,62,0
89566,note_on,94,0,7,,,,,,,,,,7,,62,0
89566,note_on,46,0,3,,,,,,,,,,2,,77,0
89566,note_on,46,0,4,,,,,,,,,,5,,74,0
89566,note_on,94,0,5,,,,,,,,,,4,,69,0
89568,note_on,2,0,3,,,,,,,,,,2,,79,127
89568,note_on,2,0,7,,,,,,,,,,7,,57,75
89568,note_on,2,0,4,,,,,,,,,,5,,76,127
89568,note_on,2,0,6,,,,,,,,,,6,,57,75
89568,note_on,2,0,5,,,,,,,,,,4,,73,60
89662,note_on,94,0,7,,,,,,,,,,7,,57,0
89662,note_on,94,0,4,,,,,,,,,,5,,76,0
89662,note_on,94,0,5,,,,,,,,,,4,,73,0
89662,note_on,94,0,6,,,,,,,,,,6,,57,0
89662,note_on,94,0,3,,,,,,,,,,2,,79,0
89664,note_on,2,0,7,,,,,,,,,,7,,45,75
89664,note_on,2,0,5,,,,,,,,,,4,,69,60
89664,note_on,2,0,4,,,,,,,,,,5,,57,127
89664,note_on,2,0,3,,,,,,,,,,2,,57,127
89664,note_on,2,0,6,,,,,,,,,,6,,45,75
89710,note_on,46,0,4,,,,,,,,,,5,,57,0
89710,note_on,46,0,3,,,,,,,,,,2,,57,0
89712,note_on,2,0,4,,,,,,,,,,5,,76,127
89712,note_on,2,0,3,,,,,,,,,,2,,79,127
89758,note_on,94,0,5,,,,,,,,,,4,,69,0
89758,note_on,46,0,3,,,,,,,,,,2,,79,0
89758,note_on,94,0,7,,,,,,,,,,7,,45,0
89758,note_on,94,0,6,,,,,,,,,,6,,45,0
89758,note_on,46,0,4,,,,,,,,,,5,,76,0
89760,note_on,2,0,5,,,,,,,,,,4,,73,60
89760,note_on,2,0,3,,,,,,,,,,2,,77,127
89760,note_on,2,0,4,,,,,,,,,,5,,74,127
89760,note_on,2,0,7,,,,,,,,,,7,,57,75
89760,note_on,2,0,6,,,,,,,,,,6,,57,75
89806,note_on,46,0,3,,,,,,,,,,2,,77,0
89806,note_on,46,0,4,,,,,,,,,,5,,74,0
89808,note_on,2,0,3,,,,,,,,,,2,,76,127
89808,note_on,2,0,4,,,,,,,,,,5,,73,127
89854,note_on,94,0,5,,,,,,,,,,4,,73,0
89854,note_on,46,0,4,,,,,,,,,,5,,73,0
89854,note_on,94,0,6,,,,,,,,,,6,,57,0
89854,note_on,94,0,7,,,,,,,,,,7,,57,0
89854,note_on,46,0,3,,,,,,,,,,2,,76,0
89856,note_on,2,0,6,,,,,,,,,,6,,62,75
89856,note_on,2,0,4,,,,,,,,,,5,,74,127
89856,note_on,2,0,3,,,,,,,,,,2,,77,127
89856,note_on,2,0,7,,,,,,,,,,7,,62,75
89856,note_on,2,0,5,,,,,,,,,,4,,69,60
89950,note_on,94,0,5,,,,,,,,,,4,,69,0
89950,note_on,94,0,6,,,,,,,,,,6,,62,0
89950,note_on,94,0,4,,,,,,,,,,5,,74,0
89950,note_on,94,0,3,,,,,,,,,,2,,77,0
89950,note_on,94,0,7,,,,,,,,,,7,,62,0
89952,note_on,2,0,4,,,,,,,,,,5,,57,127
89952,note_on,2,0,3,,,,,,,,,,2,,57,127
89952,note_on,2,0,6,,,,,,,,,,6,,45,75
89952,note_on,2,0,7,,,,,,,,,,7,,45,75
89952,note_on,2,0,5,,,,,,,,,,4,,57,60
89998,note_on,46,0,3,,,,,,,,,,2,,57,0
89998,note_on,46,0,4,,,,,,,,,,5,,57,0
90000,note_on,2,0,4,,,,,,,,,,5,,77,127
90000,note_on,2,0,3,,,,,,,,,,2,,81,127
90046,note_on,94,0,7,,,,,,,,,,7,,45,0
90046,note_on,46,0,4,,,,,,,,,,5,,77,0
90046,note_on,94,0,6,,,,,,,,,,6,,45,0
90046,note_on,94,0,5,,,,,,,,,,4,,57,0
90046,note_on,46,0,3,,,,,,,,,,2,,81,0
90048,note_on,2,0,3,,,,,,,,,,2,,79,127
90048,note_on,2,0,4,,,,,,,,,,5,,76,127
90048,note_on,2,0,7,,,,,,,,,,7,,62,75
90048,note_on,2,0,5,,,,,,,,,,4,,69,60
90048,note_on,2,0,6,,,,,,,,,,6,,62,75
90094,note_on,46,0,4,,,,,,,,,,5,,76,0
90094,note_on,46,0,3,,,,,,,,,,2,,79,0
90096,note_on,2,0,4,,,,,,,,,,5,,74,127
90096,note_on,2,0,3,,,,,,,,,,2,,77,127
90142,note_on,94,0,7,,,,,,,,,,7,,62,0
90142,note_on,94,0,6,,,,,,,,,,6,,62,0
90142,note_on,46,0,4,,,,,,,,,,5,,74,0
90142,note_on,94,0,5,,,,,,,,,,4,,69,0
90142,note_on,46,0,3,,,,,,,,,,2,,77,0
90144,note_on,2,0,6,,,,,,,,,,6,,57,75
90144,note_on,2,0,3,,,,,,,,,,2,,76,127
90144,note_on,2,0,4,,,,,,,,,,5,,73,127
90144,note_on,2,0,7,,,,,,,,,,7,,57,75
90144,note_on,2,0,5,,,,,,,,,,4,,69,60
90190,note_on,46,0,3,,,,,,,,,,2,,76,0
90190,note_on,46,0,4,,,,,,,,,,5,,73,0
90192,note_on,2,0,3,,,,,,,,,,2,,73,127
90192,note_on,2,0,4,,,,,,,,,,5,,69,127
90238,note_on,46,0,4,,,,,,,,,,5,,69,0
90238,note_on,94,0,6,,,,,,,,,,6,,57,0
90238,note_on,94,0,5,,,,,,,,,,4,,69,0
90238,note_on,46,0,3,,,,,,,,,,2,,73,0
90238,note_on,94,0,7,,,,,,,,,,7,,57,0
90240,note_on,2,0,4,,,,,,,,,,5,,64,127
90240,note_on,2,0,6,,,,,,,,,,6,,45,75
90240,note_on,2,0,3,,,,,,,,,,2,,69,127
90240,note_on,2,0,5,,,,,,,,,,4,,57,60
90240,note_on,2,0,7,,,,,,,,,,7,,45,75
90286,note_on,46,0,4,,,,,,,,,,5,,64,0
90286,note_on,46,0,3,,,,,,,,,,2,,69,0
90288,note_on,2,0,4,,,,,,,,,,5,,61,127
90288,note_on,2,0,3,,,,,,,,,,2,,64,127
90334,note_on,46,0,4,,,,,,,,,,5,,61,0
90334,note_on,94,0,7,,,,,,,,,,7,,45,0
90334,note_on,94,0,6,,,,,,,,,,6,,45,0
90334,note_on,46,0,3,,,,,,,,,,2,,64,0
90334,note_on,94,0,5,,,,,,,,,,4,,57,0
90336,note_on,2,0,7,,,,,,,,,,7,,45,75
90336,note_on,2,0,3,,,,,,,,,,2,,61,127
90336,note_on,2,0,6,,,,,,,,,,6,,45,75
90336,note_on,2,0,5,,,,,,,,,,4,,57,60
90336,note_on,2,0,4,,,,,,,,,,5,,57,127
90430,note_on,94,0,5,,,,,,,,,,4,,57,0
90430,note_on,94,0,6,,,,,,,,,,6,,45,0
90430,note_on,94,0,3,,,,,,,,,,2,,61,0
90430,note_on,94,0,7,,,,,,,,,,7,,45,0
90430,note_on,94,0,4,,,,,,,,,,5,,57,0
90432,note_on,2,0,6,,,,,,,,,,6,,54,75
90432,note_on,2,0,7,,,,,,,,,,7,,54,75
90432,control_change,2,0,4,,,,,,,,10,0,5,,,
90432,note_on,2,0,5,,,,,,,,,,4,,62,60
90432,control_change,2,0,3,,,,,,,,10,127,2,,,
90432,note_on,0,0,3,,,,,,,,,,2,,81,127
90432,note_on,0,0,4,,,,,,,,,,5,,81,127
90478,note_on,46,0,4,,,,,,,,,,5,,81,0
90478,note_on,46,0,3,,,,,,,,,,2,,81,0
90480,note_on,2,0,4,,,,,,,,,,5,,69,127
90480,note_on,2,0,3,,,,,,,,,,2,,69,127
90526,note_on,94,0,7,,,,,,,,,,7,,54,0
90526,note_on,46,0,3,,,,,,,,,,2,,69,0
90526,note_on,94,0,6,,,,,,,,,,6,,54,0
90526,note_on,46,0,4,,,,,,,,,,5,,69,0
90528,note_on,2,0,7,,,,,,,,,,7,,54,75
90528,note_on,2,0,6,,,,,,,,,,6,,54,75
90528,note_on,2,0,4,,,,,,,,,,5,,69,127
90528,note_on,2,0,3,,,,,,,,,,2,,69,127
90622,note_on,94,0,3,,,,,,,,,,2,,69,0
90622,note_on,94,0,6,,,,,,,,,,6,,54,0
90622,note_on,94,0,4,,,,,,,,,,5,,69,0
90622,note_on,94,0,7,,,,,,,,,,7,,54,0
90624,note_on,2,0,7,,,,,,,,,,7,,55,75
90624,note_on,2,0,6,,,,,,,,,,6,,55,75
90624,note_on,2,0,3,,,,,,,,,,2,,70,127
90624,note_on,2,0,4,,,,,,,,,,5,,70,127
90688,note_on,256,0,5,,,,,,,,,,4,,62,0
90718,note_on,94,0,3,,,,,,,,,,2,,70,0
90718,note_on,94,0,7,,,,,,,,,,7,,55,0
90718,note_on,94,0,6,,,,,,,,,,6,,55,0
90718,note_on,94,0,4,,,,,,,,,,5,,70,0
90720,note_on,32,0,5,,,,,,,,,,4,,60,60
90720,note_on,2,0,4,,,,,,,,,,5,,79,127
90720,note_on,2,0,6,,,,,,,,,,6,,52,75
90720,note_on,2,0,7,,,,,,,,,,7,,52,75
90720,note_on,2,0,3,,,,,,,,,,2,,79,127
90766,note_on,46,0,4,,,,,,,,,,5,,79,0
90766,note_on,46,0,3,,,,,,,,,,2,,79,0
90768,note_on,2,0,4,,,,,,,,,,5,,67,127
90768,note_on,2,0,3,,,,,,,,,,2,,67,127
90814,note_on,94,0,7,,,,,,,,,,7,,52,0
90814,note_on,46,0,4,,,,,,,,,,5,,67,0
90814,note_on,46,0,3,,,,,,,,,,2,,67,0
90814,note_on,94,0,6,,,,,,,,,,6,,52,0
90816,note_on,2,0,3,,,,,,,,,,2,,67,127
90816,note_on,2,0,4,,,,,,,,,,5,,67,127
90816,note_on,2,0,6,,,,,,,,,,6,,52,75
90816,note_on,2,0,7,,,,,,,,,,7,,52,75
90910,note_on,94,0,3,,,,,,,,,,2,,67,0
90910,note_on,94,0,6,,,,,,,,,,6,,52,0
90910,note_on,94,0,7,,,,,,,,,,7,,52,0
90910,note_on,94,0,4,,,,,,,,,,5,,67,0
90912,note_on,2,0,6,,,,,,,,,,6,,53,75
90912,note_on,2,0,7,,,,,,,,,,7,,53,75
90912,note_on,2,0,4,,,,,,,,,,5,,69,127
90912,note_on,2,0,3,,,,,,,,,,2,,69,127
90976,note_on,256,0,5,,,,,,,,,,4,,60,0
91006,note_on,94,0,4,,,,,,,,,,5,,69,0
91006,note_on,94,0,6,,,,,,,,,,6,,53,0
91006,note_on,94,0,7,,,,,,,,,,7,,53,0
91006,note_on,94,0,3,,,,,,,,,,2,,69,0
91008,note_on,32,0,5,,,,,,,,,,4,,58,60
91008,note_on,2,0,6,,,,,,,,,,6,,50,75
91008,note_on,2,0,3,,,,,,,,,,2,,77,127
91008,note_on,2,0,4,,,,,,,,,,5,,77,127
91008,note_on,2,0,7,,,,,,,,,,7,,50,75
91054,note_on,46,0,4,,,,,,,,,,5,,77,0
91054,note_on,46,0,3,,,,,,,,,,2,,77,0
91056,note_on,2,0,4,,,,,,,,,,5,,65,127
91056,note_on,2,0,3,,,,,,,,,,2,,65,127
91102,note_on,94,0,6,,,,,,,,,,6,,50,0
91102,note_on,46,0,4,,,,,,,,,,5,,65,0
91102,note_on,46,0,3,,,,,,,,,,2,,65,0
91102,note_on,94,0,7,,,,,,,,,,7,,50,0
91104,note_on,2,0,3,,,,,,,,,,2,,65,127
91104,note_on,2,0,7,,,,,,,,,,7,,50,75
91104,note_on,2,0,4,,,,,,,,,,5,,65,127
91104,note_on,2,0,6,,,,,,,,,,6,,50,75
91198,note_on,94,0,6,,,,,,,,,,6,,50,0
91198,note_on,94,0,7,,,,,,,,,,7,,50,0
91198,note_on,94,0,3,,,,,,,,,,2,,65,0
91198,note_on,94,0,4,,,,,,,,,,5,,65,0
91200,note_on,2,0,6,,,,,,,,,,6,,52,75
91200,note_on,2,0,4,,,,,,,,,,5,,67,127
91200,note_on,2,0,3,,,,,,,,,,2,,67,127
91200,note_on,2,0,7,,,,,,,,,,7,,52,75
91264,note_on,256,0,5,,,,,,,,,,4,,58,0
91294,note_on,94,0,3,,,,,,,,,,2,,67,0
91294,note_on,94,0,7,,,,,,,,,,7,,52,0
91294,note_on,94,0,4,,,,,,,,,,5,,67,0
91294,note_on,94,0,6,,,,,,,,,,6,,52,0
91296,note_on,2,0,3,,,,,,,,,,2,,76,127
91296,note_on,2,0,7,,,,,,,,,,7,,49,75
91296,note_on,2,0,6,,,,,,,,,,6,,49,75
91296,note_on,32,0,5,,,,,,,,,,4,,57,60
91296,note_on,2,0,4,,,,,,,,,,5,,76,127
91342,note_on,46,0,4,,,,,,,,,,5,,76,0
91342,note_on,46,0,3,,,,,,,,,,2,,76,0
91344,note_on,2,0,3,,,,,,,,,,2,,64,127
91344,note_on,2,0,4,,,,,,,,,,5,,64,127
91390,note_on,46,0,4,,,,,,,,,,5,,64,0
91390,note_on,46,0,3,,,,,,,,,,2,,64,0
91390,note_on,94,0,7,,,,,,,,,,7,,49,0
91390,note_on,94,0,6,,,,,,,,,,6,,49,0
91392,note_on,2,0,7,,,,,,,,,,7,,49,75
91392,note_on,2,0,4,,,,,,,,,,5,,64,127
91392,note_on,2,0,3,,,,,,,,,,2,,64,127
91392,note_on,2,0,6,,,,,,,,,,6,,49,75
91486,note_on,94,0,3,,,,,,,,,,2,,64,0
91486,note_on,94,0,7,,,,,,,,,,7,,49,0
91486,note_on,94,0,4,,,,,,,,,,5,,64,0
91486,note_on,94,0,6,,,,,,,,,,6,,49,0
91488,note_on,2,0,3,,,,,,,,,,2,,65,127
91488,note_on,2,0,7,,,,,,,,,,7,,50,75
91488,note_on,2,0,6,,,,,,,,,,6,,50,75
91488,note_on,2,0,4,,,,,,,,,,5,,65,127
91552,note_on,256,0,5,,,,,,,,,,4,,57,0
91582,note_on,94,0,6,,,,,,,,,,6,,50,0
91582,note_on,94,0,4,,,,,,,,,,5,,65,0
91582,note_on,94,0,7,,,,,,,,,,7,,50,0
91582,note_on,94,0,3,,,,,,,,,,2,,65,0
91584,note_on,32,0,5,,,,,,,,,,4,,57,60
91584,note_on,2,0,4,,,,,,,,,,5,,74,127
91584,note_on,2,0,7,,,,,,,,,,7,,53,75
91584,note_on,2,0,3,,,,,,,,,,2,,74,127
91584,note_on,2,0,6,,,,,,,,,,6,,53,75
91630,note_on,46,0,5,,,,,,,,,,4,,57,0
91630,note_on,46,0,4,,,,,,,,,,5,,74,0
91630,note_on,46,0,7,,,,,,,,,,7,,53,0
91630,note_on,46,0,6,,,,,,,,,,6,,53,0
91630,note_on,46,0,3,,,,,,,,,,2,,74,0
91632,note_on,2,0,6,,,,,,,,,,6,,50,75
91632,note_on,2,0,5,,,,,,,,,,4,,62,60
91632,note_on,2,0,3,,,,,,,,,,2,,65,127
91632,note_on,2,0,7,,,,,,,,,,7,,50,75
91632,note_on,2,0,4,,,,,,,,,,5,,65,127
91678,note_on,46,0,6,,,,,,,,,,6,,50,0
91678,note_on,46,0,3,,,,,,,,,,2,,65,0
91678,note_on,46,0,5,,,,,,,,,,4,,62,0
91678,note_on,46,0,7,,,,,,,,,,7,,50,0
91678,note_on,46,0,4,,,,,,,,,,5,,65,0
91680,note_on,2,0,4,,,,,,,,,,5,,67,127
91680,note_on,2,0,5,,,,,,,,,,4,,62,60
91680,note_on,2,0,3,,,,,,,,,,2,,67,127
91680,note_on,2,0,6,,,,,,,,,,6,,55,75
91680,note_on,2,0,7,,,,,,,,,,7,,55,75
91726,note_on,46,0,4,,,,,,,,,,5,,67,0
91726,note_on,46,0,3,,,,,,,,,,2,,67,0
91728,note_on,2,0,3,,,,,,,,,,2,,70,127
91728,note_on,2,0,4,,,,,,,,,,5,,70,127
91774,note_on,46,0,4,,,,,,,,,,5,,70,0
91774,note_on,94,0,5,,,,,,,,,,4,,62,0
91774,note_on,46,0,3,,,,,,,,,,2,,70,0
91776,note_on,2,0,3,,,,,,,,,,2,,69,127
91776,note_on,2,0,5,,,,,,,,,,4,,64,60
91776,note_on,2,0,4,,,,,,,,,,5,,69,127
91822,note_on,46,0,3,,,,,,,,,,2,,69,0
91822,note_on,46,0,4,,,,,,,,,,5,,69,0
91824,note_on,2,0,3,,,,,,,,,,2,,73,127
91824,note_on,2,0,4,,,,,,,,,,5,,73,127
91840,note_on,160,0,7,,,,,,,,,,7,,55,0
91840,note_on,160,0,6,,,,,,,,,,6,,55,0
91870,note_on,46,0,4,,,,,,,,,,5,,73,0
91870,note_on,94,0,5,,,,,,,,,,4,,64,0
91870,note_on,46,0,3,,,,,,,,,,2,,73,0
91872,note_on,2,0,5,,,,,,,,,,4,,57,60
91872,note_on,32,0,6,,,,,,,,,,6,,53,75
91872,note_on,32,0,7,,,,,,,,,,7,,53,75
91872,note_on,2,0,3,,,,,,,,,,2,,74,127
91872,note_on,2,0,4,,,,,,,,,,5,,74,127
91918,note_on,46,0,4,,,,,,,,,,5,,74,0
91918,note_on,46,0,5,,,,,,,,,,4,,57,0
91918,note_on,46,0,7,,,,,,,,,,7,,53,0
91918,note_on,46,0,3,,,,,,,,,,2,,74,0
91918,note_on,46,0,6,,,,,,,,,,6,,53,0
91920,note_on,2,0,3,,,,,,,,,,2,,65,127
91920,note_on,2,0,7,,,,,,,,,,7,,50,75
91920,note_on,2,0,5,,,,,,,,,,4,,62,60
91920,note_on,2,0,6,,,,,,,,,,6,,50,75
91920,note_on,2,0,4,,,,,,,,,,5,,65,127
91966,note_on,46,0,3,,,,,,,,,,2,,65,0
91966,note_on,46,0,5,,,,,,,,,,4,,62,0
91966,note_on,46,0,7,,,,,,,,,,7,,50,0
91966,note_on,46,0,6,,,,,,,,,,6,,50,0
91966,note_on,46,0,4,,,,,,,,,,5,,65,0
91968,note_on,2,0,3,,,,,,,,,,2,,67,127
91968,note_on,2,0,5,,,,,,,,,,4,,62,60
91968,note_on,2,0,6,,,,,,,,,,6,,55,75
91968,note_on,2,0,4,,,,,,,,,,5,,67,127
91968,note_on,2,0,7,,,,,,,,,,7,,55,75
92014,note_on,46,0,4,,,,,,,,,,5,,67,0
92014,note_on,46,0,3,,,,,,,,,,2,,67,0
92016,note_on,2,0,3,,,,,,,,,,2,,70,127
92016,note_on,2,0,4,,,,,,,,,,5,,70,127
92062,note_on,94,0,5,,,,,,,,,,4,,62,0
92062,note_on,46,0,4,,,,,,,,,,5,,70,0
92062,note_on,46,0,3,,,,,,,,,,2,,70,0
92064,note_on,2,0,3,,,,,,,,,,2,,69,127
92064,note_on,2,0,5,,,,,,,,,,4,,64,60
92064,note_on,2,0,4,,,,,,,,,,5,,69,127
92110,note_on,46,0,4,,,,,,,,,,5,,69,0
92110,note_on,46,0,3,,,,,,,,,,2,,69,0
92112,note_on,2,0,4,,,,,,,,,,5,,73,127
92112,note_on,2,0,3,,,,,,,,,,2,,73,127
92128,note_on,160,0,6,,,,,,,,,,6,,55,0
92128,note_on,160,0,7,,,,,,,,,,7,,55,0
92158,note_on,46,0,3,,,,,,,,,,2,,73,0
92158,note_on,94,0,5,,,,,,,,,,4,,64,0
92158,note_on,46,0,4,,,,,,,,,,5,,73,0
92160,note_on,2,0,5,,,,,,,,,,4,,57,60
92160,note_on,2,0,3,,,,,,,,,,2,,74,127
92160,note_on,32,0,6,,,,,,,,,,6,,53,75
92160,note_on,32,0,7,,,,,,,,,,7,,53,75
92160,note_on,2,0,4,,,,,,,,,,5,,74,127
92206,note_on,46,0,7,,,,,,,,,,7,,53,0
92206,note_on,46,0,5,,,,,,,,,,4,,57,0
92206,note_on,46,0,3,,,,,,,,,,2,,74,0
92206,note_on,46,0,6,,,,,,,,,,6,,53,0
92206,note_on,46,0,4,,,,,,,,,,5,,74,0
92208,note_on,2,0,4,,,,,,,,,,5,,77,127
92208,note_on,2,0,3,,,,,,,,,,2,,77,127
92208,note_on,2,0,7,,,,,,,,,,7,,50,75
92208,note_on,2,0,6,,,,,,,,,,6,,50,75
92208,note_on,2,0,5,,,,,,,,,,4,,69,60
92254,note_on,46,0,3,,,,,,,,,,2,,77,0
92254,note_on,46,0,4,,,,,,,,,,5,,77,0
92254,note_on,46,0,6,,,,,,,,,,6,,50,0
92254,note_on,46,0,5,,,,,,,,,,4,,69,0
92254,note_on,46,0,7,,,,,,,,,,7,,50,0
92256,note_on,2,0,5,,,,,,,,,,4,,61,60
92256,note_on,2,0,3,,,,,,,,,,2,,76,127
92256,note_on,2,0,6,,,,,,,,,,6,,57,75
92256,note_on,2,0,4,,,,,,,,,,5,,76,127
92256,note_on,2,0,7,,,,,,,,,,7,,57,75
92302,note_on,46,0,3,,,,,,,,,,2,,76,0
92302,note_on,46,0,4,,,,,,,,,,5,,76,0
92304,note_on,2,0,3,,,,,,,,,,2,,81,127
92304,note_on,2,0,4,,,,,,,,,,5,,81,127
92350,note_on,46,0,3,,,,,,,,,,2,,81,0
92350,note_on,94,0,5,,,,,,,,,,4,,61,0
92350,note_on,46,0,4,,,,,,,,,,5,,81,0
92350,note_on,94,0,6,,,,,,,,,,6,,57,0
92350,note_on,94,0,7,,,,,,,,,,7,,57,0
92352,note_on,2,0,4,,,,,,,,,,5,,69,127
92352,note_on,2,0,3,,,,,,,,,,2,,69,127
92352,note_on,2,0,7,,,,,,,,,,7,,45,75
92352,note_on,2,0,5,,,,,,,,,,4,,61,60
92352,note_on,2,0,6,,,,,,,,,,6,,45,75
92398,note_on,46,0,3,,,,,,,,,,2,,69,0
92398,note_on,46,0,4,,,,,,,,,,5,,69,0
92400,note_on,2,0,4,,,,,,,,,,5,,73,127
92400,note_on,2,0,3,,,,,,,,,,2,,73,127
92446,note_on,94,0,5,,,,,,,,,,4,,61,0
92446,note_on,46,0,4,,,,,,,,,,5,,73,0
92446,note_on,46,0,3,,,,,,,,,,2,,73,0
92446,note_on,94,0,6,,,,,,,,,,6,,45,0
92446,note_on,94,0,7,,,,,,,,,,7,,45,0
92448,note_on,2,0,7,,,,,,,,,,7,,53,75
92448,note_on,2,0,4,,,,,,,,,,5,,74,127
92448,note_on,2,0,5,,,,,,,,,,4,,57,60
92448,note_on,2,0,6,,,,,,,,,,6,,53,75
92448,note_on,2,0,3,,,,,,,,,,2,,74,127
92494,note_on,46,0,6,,,,,,,,,,6,,53,0
92494,note_on,46,0,4,,,,,,,,,,5,,74,0
92494,note_on,46,0,5,,,,,,,,,,4,,57,0
92494,note_on,46,0,7,,,,,,,,,,7,,53,0
92494,note_on,46,0,3,,,,,,,,,,2,,74,0
92496,note_on,2,0,3,,,,,,,,,,2,,65,127
92496,note_on,2,0,4,,,,,,,,,,5,,65,127
92496,note_on,2,0,5,,,,,,,,,,4,,62,60
92496,note_on,2,0,7,,,,,,,,,,7,,50,75
92496,note_on,2,0,6,,,,,,,,,,6,,50,75
92542,note_on,46,0,5,,,,,,,,,,4,,62,0
92542,note_on,46,0,4,,,,,,,,,,5,,65,0
92542,note_on,46,0,6,,,,,,,,,,6,,50,0
92542,note_on,46,0,3,,,,,,,,,,2,,65,0
92542,note_on,46,0,7,,,,,,,,,,7,,50,0
92544,note_on,2,0,4,,,,,,,,,,5,,67,127
92544,note_on,2,0,3,,,,,,,,,,2,,67,127
92544,note_on,2,0,6,,,,,,,,,,6,,55,75
92544,note_on,2,0,5,,,,,,,,,,4,,62,60
92544,note_on,2,0,7,,,,,,,,,,7,,55,75
92590,note_on,46,0,4,,,,,,,,,,5,,67,0
92590,note_on,46,0,3,,,,,,,,,,2,,67,0
92592,note_on,2,0,3,,,,,,,,,,2,,70,127
92592,note_on,2,0,4,,,,,,,,,,5,,70,127
92638,note_on,46,0,3,,,,,,,,,,2,,70,0
92638,note_on,46,0,4,,,,,,,,,,5,,70,0
92638,note_on,94,0,5,,,,,,,,,,4,,62,0
92640,note_on,2,0,3,,,,,,,,,,2,,69,127
92640,note_on,2,0,5,,,,,,,,,,4,,64,60
92640,note_on,2,0,4,,,,,,,,,,5,,69,127
92686,note_on,46,0,3,,,,,,,,,,2,,69,0
92686,note_on,46,0,4,,,,,,,,,,5,,69,0
92688,note_on,2,0,4,,,,,,,,,,5,,73,127
92688,note_on,2,0,3,,,,,,,,,,2,,73,127
92704,note_on,160,0,7,,,,,,,,,,7,,55,0
92704,note_on,160,0,6,,,,,,,,,,6,,55,0
92734,note_on,46,0,3,,,,,,,,,,2,,73,0
92734,note_on,94,0,5,,,,,,,,,,4,,64,0
92734,note_on,46,0,4,,,,,,,,,,5,,73,0
92736,note_on,32,0,7,,,,,,,,,,7,,53,75
92736,note_on,2,0,3,,,,,,,,,,2,,74,127
92736,note_on,2,0,5,,,,,,,,,,4,,57,60
92736,note_on,32,0,6,,,,,,,,,,6,,53,75
92736,note_on,2,0,4,,,,,,,,,,5,,74,127
92782,note_on,46,0,3,,,,,,,,,,2,,74,0
92782,note_on,46,0,7,,,,,,,,,,7,,53,0
92782,note_on,46,0,6,,,,,,,,,,6,,53,0
92782,note_on,46,0,4,,,,,,,,,,5,,74,0
92782,note_on,46,0,5,,,,,,,,,,4,,57,0
92784,note_on,2,0,3,,,,,,,,,,2,,65,127
92784,note_on,2,0,7,,,,,,,,,,7,,50,75
92784,note_on,2,0,5,,,,,,,,,,4,,62,60
92784,note_on,2,0,6,,,,,,,,,,6,,50,75
92784,note_on,2,0,4,,,,,,,,,,5,,65,127
92830,note_on,46,0,6,,,,,,,,,,6,,50,0
92830,note_on,46,0,7,,,,,,,,,,7,,50,0
92830,note_on,46,0,3,,,,,,,,,,2,,65,0
92830,note_on,46,0,5,,,,,,,,,,4,,62,0
92830,note_on,46,0,4,,,,,,,,,,5,,65,0
92832,note_on,2,0,4,,,,,,,,,,5,,67,127
92832,note_on,2,0,6,,,,,,,,,,6,,55,75
92832,note_on,2,0,7,,,,,,,,,,7,,55,75
92832,note_on,2,0,3,,,,,,,,,,2,,67,127
92832,note_on,2,0,5,,,,,,,,,,4,,64,60
92878,note_on,46,0,4,,,,,,,,,,5,,67,0
92878,note_on,46,0,3,,,,,,,,,,2,,67,0
92880,note_on,2,0,4,,,,,,,,,,5,,70,127
92880,note_on,2,0,3,,,,,,,,,,2,,70,127
92926,note_on,46,0,4,,,,,,,,,,5,,70,0
92926,note_on,46,0,3,,,,,,,,,,2,,70,0
92926,note_on,94,0,5,,,,,,,,,,4,,64,0
92928,note_on,2,0,4,,,,,,,,,,5,,69,127
92928,note_on,2,0,3,,,,,,,,,,2,,69,127
92928,note_on,2,0,5,,,,,,,,,,4,,64,60
92974,note_on,46,0,3,,,,,,,,,,2,,69,0
92974,note_on,46,0,4,,,,,,,,,,5,,69,0
92976,note_on,2,0,3,,,,,,,,,,2,,73,127
92976,note_on,2,0,4,,,,,,,,,,5,,73,127
92992,note_on,160,0,6,,,,,,,,,,6,,55,0
92992,note_on,160,0,7,,,,,,,,,,7,,55,0
93022,note_on,46,0,4,,,,,,,,,,5,,73,0
93022,note_on,94,0,5,,,,,,,,,,4,,64,0
93022,note_on,46,0,3,,,,,,,,,,2,,73,0
93024,note_on,2,0,5,,,,,,,,,,4,,57,60
93024,note_on,2,0,4,,,,,,,,,,5,,74,127
93024,note_on,2,0,3,,,,,,,,,,2,,74,127
93024,note_on,32,0,7,,,,,,,,,,7,,53,75
93024,note_on,32,0,6,,,,,,,,,,6,,53,75
93070,note_on,46,0,7,,,,,,,,,,7,,53,0
93070,note_on,46,0,4,,,,,,,,,,5,,74,0
93070,note_on,46,0,3,,,,,,,,,,2,,74,0
93070,note_on,46,0,6,,,,,,,,,,6,,53,0
93070,note_on,46,0,5,,,,,,,,,,4,,57,0
93072,note_on,2,0,7,,,,,,,,,,7,,50,75
93072,note_on,2,0,3,,,,,,,,,,2,,77,127
93072,note_on,2,0,4,,,,,,,,,,5,,77,127
93072,note_on,2,0,6,,,,,,,,,,6,,50,75
93072,note_on,2,0,5,,,,,,,,,,4,,69,60
93118,note_on,46,0,7,,,,,,,,,,7,,50,0
93118,note_on,46,0,6,,,,,,,,,,6,,50,0
93118,note_on,46,0,4,,,,,,,,,,5,,77,0
93118,note_on,46,0,3,,,,,,,,,,2,,77,0
93118,note_on,46,0,5,,,,,,,,,,4,,69,0
93120,note_on,2,0,6,,,,,,,,,,6,,57,75
93120,note_on,2,0,7,,,,,,,,,,7,,57,75
93120,note_on,2,0,3,,,,,,,,,,2,,76,127
93120,note_on,2,0,4,,,,,,,,,,5,,76,127
93120,note_on,2,0,5,,,,,,,,,,4,,61,60
93166,note_on,46,0,3,,,,,,,,,,2,,76,0
93166,note_on,46,0,4,,,,,,,,,,5,,76,0
93168,note_on,2,0,3,,,,,,,,,,2,,81,127
93168,note_on,2,0,4,,,,,,,,,,5,,81,127
93214,note_on,94,0,7,,,,,,,,,,7,,57,0
93214,note_on,46,0,3,,,,,,,,,,2,,81,0
93214,note_on,94,0,5,,,,,,,,,,4,,61,0
93214,note_on,46,0,4,,,,,,,,,,5,,81,0
93214,note_on,94,0,6,,,,,,,,,,6,,57,0
93216,note_on,2,0,4,,,,,,,,,,5,,69,127
93216,note_on,2,0,6,,,,,,,,,,6,,45,75
93216,note_on,2,0,7,,,,,,,,,,7,,45,75
93216,note_on,2,0,3,,,,,,,,,,2,,69,127
93216,note_on,2,0,5,,,,,,,,,,4,,69,60
93262,note_on,46,0,4,,,,,,,,,,5,,69,0
93262,note_on,46,0,3,,,,,,,,,,2,,69,0
93264,note_on,2,0,3,,,,,,,,,,2,,73,127
93264,note_on,2,0,4,,,,,,,,,,5,,73,127
93310,note_on,46,0,4,,,,,,,,,,5,,73,0
93310,note_on,46,0,3,,,,,,,,,,2,,73,0
93310,note_on,94,0,5,,,,,,,,,,4,,69,0
93310,note_on,94,0,7,,,,,,,,,,7,,45,0
93310,note_on,94,0,6,,,,,,,,,,6,,45,0
93312,note_on,2,0,3,,,,,,,,,,2,,74,60
93312,note_on,2,0,6,,,,,,,,,,6,,53,75
93312,note_on,2,0,4,,,,,,,,,,5,,74,60
93312,note_on,2,0,7,,,,,,,,,,7,,53,75
93312,note_on,2,0,5,,,,,,,,,,4,,65,60
93312,note_on,5760,0,1,,,,,,,,,,0,,74,127
93334,note_on,22,0,1,,,,,,,,,,0,,74,0
93336,note_on,2,0,1,,,,,,,,,,0,,76,127
93358,note_on,22,0,1,,,,,,,,,,0,,76,0
93360,note_on,2,0,1,,,,,,,,,,0,,77,127
93382,note_on,22,0,1,,,,,,,,,,0,,77,0
93384,note_on,2,0,1,,,,,,,,,,0,,79,127
93406,note_on,22,0,1,,,,,,,,,,0,,79,0
93408,note_on,2,0,1,,,,,,,,,,0,,81,127
93454,note_on,46,0,1,,,,,,,,,,0,,81,0
93456,note_on,2,0,1,,,,,,,,,,0,,74,127
93472,note_on,160,0,4,,,,,,,,,,5,,74,0
93472,note_on,160,0,3,,,,,,,,,,2,,74,0
93502,note_on,46,0,1,,,,,,,,,,0,,74,0
93504,note_on,2,0,1,,,,,,,,,,0,,76,127
93504,note_on,32,0,3,,,,,,,,,,2,,69,60
93504,note_on,32,0,4,,,,,,,,,,5,,69,60
93550,note_on,46,0,1,,,,,,,,,,0,,76,0
93552,note_on,2,0,1,,,,,,,,,,0,,73,127
93568,note_on,256,0,6,,,,,,,,,,6,,53,0
93568,note_on,256,0,7,,,,,,,,,,7,,53,0
93568,note_on,256,0,5,,,,,,,,,,4,,65,0
93598,note_on,94,0,4,,,,,,,,,,5,,69,0
93598,note_on,46,0,1,,,,,,,,,,0,,73,0
93598,note_on,94,0,3,,,,,,,,,,2,,69,0
93600,note_on,2,0,3,,,,,,,,,,2,,74,60
93600,note_on,32,0,6,,,,,,,,,,6,,50,75
93600,note_on,2,0,4,,,,,,,,,,5,,74,60
93600,note_on,6048,0,2,,,,,,,,,,1,,62,92
93600,note_on,32,0,7,,,,,,,,,,7,,50,75
93600,note_on,2,0,1,,,,,,,,,,0,,74,127
93622,note_on,22,0,2,,,,,,,,,,1,,62,0
93624,note_on,2,0,2,,,,,,,,,,1,,64,92
93646,note_on,22,0,2,,,,,,,,,,1,,64,0
93648,note_on,2,0,2,,,,,,,,,,1,,65,92
93670,note_on,22,0,2,,,,,,,,,,1,,65,0
93672,note_on,2,0,2,,,,,,,,,,1,,67,92
93694,note_on,94,0,4,,,,,,,,,,5,,74,0
93694,note_on,94,0,3,,,,,,,,,,2,,74,0
93694,note_on,22,0,2,,,,,,,,,,1,,67,0
93696,note_on,2,0,2,,,,,,,,,,1,,69,92
93696,note_on,2,0,3,,,,,,,,,,2,,62,60
93696,note_on,2,0,4,,,,,,,,,,5,,62,60
93742,note_on,46,0,2,,,,,,,,,,1,,69,0
93744,note_on,2,0,2,,,,,,,,,,1,,62,92
93760,note_on,160,0,6,,,,,,,,,,6,,50,0
93760,note_on,160,0,7,,,,,,,,,,7,,50,0
93760,note_on,160,0,1,,,,,,,,,,0,,74,0
93790,note_on,94,0,4,,,,,,,,,,5,,62,0
93790,note_on,94,0,3,,,,,,,,,,2,,62,0
93790,note_on,46,0,2,,,,,,,,,,1,,62,0
93792,note_on,2,0,4,,,,,,,,,,5,,69,60
93792,note_on,2,0,2,,,,,,,,,,1,,64,92
93792,note_on,2,0,3,,,,,,,,,,2,,69,60
93838,note_on,46,0,2,,,,,,,,,,1,,64,0
93840,note_on,2,0,2,,,,,,,,,,1,,61,92
93886,note_on,94,0,4,,,,,,,,,,5,,69,0
93886,note_on,94,0,3,,,,,,,,,,2,,69,0
93886,note_on,46,0,2,,,,,,,,,,1,,61,0
93888,note_on,2,0,4,,,,,,,,,,5,,74,60
93888,note_on,2,0,2,,,,,,,,,,1,,62,92
93888,note_on,128,0,7,,,,,,,,,,7,,50,75
93888,note_on,128,0,1,,,,,,,,,,0,,74,127
93888,note_on,2,0,3,,,,,,,,,,2,,74,60
93888,note_on,128,0,6,,,,,,,,,,6,,50,75
93910,note_on,22,0,1,,,,,,,,,,0,,74,0
93912,note_on,2,0,1,,,,,,,,,,0,,76,127
93934,note_on,22,0,1,,,,,,,,,,0,,76,0
93936,note_on,2,0,1,,,,,,,,,,0,,77,127
93958,note_on,22,0,1,,,,,,,,,,0,,77,0
93960,note_on,2,0,1,,,,,,,,,,0,,79,127
93982,note_on,94,0,3,,,,,,,,,,2,,74,0
93982,note_on,22,0,1,,,,,,,,,,0,,79,0
93982,note_on,94,0,4,,,,,,,,,,5,,74,0
93984,note_on,2,0,4,,,,,,,,,,5,,69,60
93984,note_on,2,0,3,,,,,,,,,,2,,69,60
93984,note_on,2,0,1,,,,,,,,,,0,,81,127
94030,note_on,46,0,1,,,,,,,,,,0,,81,0
94032,note_on,2,0,1,,,,,,,,,,0,,79,127
94048,note_on,160,0,6,,,,,,,,,,6,,50,0
94048,note_on,160,0,2,,,,,,,,,,1,,62,0
94048,note_on,160,0,7,,,,,,,,,,7,,50,0
94054,note_on,22,0,1,,,,,,,,,,0,,79,0
94056,note_on,2,0,1,,,,,,,,,,0,,77,127
94078,note_on,94,0,3,,,,,,,,,,2,,69,0
94078,note_on,94,0,4,,,,,,,,,,5,,69,0
94078,note_on,22,0,1,,,,,,,,,,0,,77,0
94080,note_on,2,0,3,,,,,,,,,,2,,61,60
94080,note_on,2,0,4,,,,,,,,,,5,,61,60
94080,note_on,2,0,1,,,,,,,,,,0,,79,127
94126,note_on,46,0,1,,,,,,,,,,0,,79,0
94128,note_on,2,0,1,,,,,,,,,,0,,77,127
94150,note_on,22,0,1,,,,,,,,,,0,,77,0
94152,note_on,2,0,1,,,,,,,,,,0,,76,127
94174,note_on,94,0,3,,,,,,,,,,2,,61,0
94174,note_on,22,0,1,,,,,,,,,,0,,76,0
94174,note_on,94,0,4,,,,,,,,,,5,,61,0
94176,note_on,128,0,6,,,,,,,,,,6,,50,75
94176,note_on,128,0,7,,,,,,,,,,7,,50,75
94176,note_on,128,0,2,,,,,,,,,,1,,62,92
94176,note_on,2,0,4,,,,,,,,,,5,,62,60
94176,note_on,2,0,3,,,,,,,,,,2,,62,60
94176,note_on,2,0,1,,,,,,,,,,0,,77,127
94198,note_on,22,0,2,,,,,,,,,,1,,62,0
94200,note_on,2,0,2,,,,,,,,,,1,,64,92
94222,note_on,22,0,2,,,,,,,,,,1,,64,0
94224,note_on,2,0,2,,,,,,,,,,1,,65,92
94246,note_on,22,0,2,,,,,,,,,,1,,65,0
94248,note_on,2,0,2,,,,,,,,,,1,,67,92
94270,note_on,22,0,2,,,,,,,,,,1,,67,0
94270,note_on,94,0,3,,,,,,,,,,2,,62,0
94270,note_on,94,0,4,,,,,,,,,,5,,62,0
94272,note_on,2,0,3,,,,,,,,,,2,,65,60
94272,note_on,2,0,2,,,,,,,,,,1,,69,92
94272,note_on,2,0,4,,,,,,,,,,5,,65,60
94318,note_on,46,0,2,,,,,,,,,,1,,69,0
94320,note_on,2,0,2,,,,,,,,,,1,,67,92
94336,note_on,160,0,6,,,,,,,,,,6,,50,0
94336,note_on,160,0,7,,,,,,,,,,7,,50,0
94336,note_on,160,0,1,,,,,,,,,,0,,77,0
94342,note_on,22,0,2,,,,,,,,,,1,,67,0
94344,note_on,2,0,2,,,,,,,,,,1,,65,92
94366,note_on,94,0,4,,,,,,,,,,5,,65,0
94366,note_on,22,0,2,,,,,,,,,,1,,65,0
94366,note_on,94,0,3,,,,,,,,,,2,,65,0
94368,note_on,2,0,2,,,,,,,,,,1,,67,92
94368,note_on,2,0,3,,,,,,,,,,2,,61,60
94368,note_on,2,0,4,,,,,,,,,,5,,61,60
94414,note_on,46,0,2,,,,,,,,,,1,,67,0
94416,note_on,2,0,2,,,,,,,,,,1,,65,92
94438,note_on,22,0,2,,,,,,,,,,1,,65,0
94440,note_on,2,0,2,,,,,,,,,,1,,64,92
94462,note_on,22,0,2,,,,,,,,,,1,,64,0
94462,note_on,94,0,4,,,,,,,,,,5,,61,0
94462,note_on,94,0,3,,,,,,,,,,2,,61,0
94464,note_on,128,0,1,,,,,,,,,,0,,81,127
94464,note_on,2,0,2,,,,,,,,,,1,,65,92
94464,note_on,2,0,4,,,,,,,,,,5,,62,60
94464,note_on,2,0,3,,,,,,,,,,2,,62,60
94486,note_on,22,0,1,,,,,,,,,,0,,81,0
94488,note_on,2,0,1,,,,,,,,,,0,,81,127
94510,note_on,22,0,1,,,,,,,,,,0,,81,0
94512,note_on,2,0,1,,,,,,,,,,0,,81,127
94534,note_on,22,0,1,,,,,,,,,,0,,81,0
94536,note_on,2,0,1,,,,,,,,,,0,,81,127
94558,note_on,22,0,1,,,,,,,,,,0,,81,0
94558,note_on,94,0,4,,,,,,,,,,5,,62,0
94558,note_on,94,0,3,,,,,,,,,,2,,62,0
94560,note_on,2,0,4,,,,,,,,,,5,,73,60
94560,note_on,2,0,3,,,,,,,,,,2,,73,60
94560,note_on,2,0,1,,,,,,,,,,0,,81,127
94582,note_on,22,0,1,,,,,,,,,,0,,81,0
94584,note_on,2,0,1,,,,,,,,,,0,,81,127
94606,note_on,22,0,1,,,,,,,,,,0,,81,0
94608,note_on,2,0,1,,,,,,,,,,0,,81,127
94624,note_on,160,0,2,,,,,,,,,,1,,65,0
94630,note_on,22,0,1,,,,,,,,,,0,,81,0
94632,note_on,2,0,1,,,,,,,,,,0,,81,127
94654,note_on,22,0,1,,,,,,,,,,0,,81,0
94656,note_on,2,0,1,,,,,,,,,,0,,81,127
94678,note_on,22,0,1,,,,,,,,,,0,,81,0
94680,note_on,2,0,1,,,,,,,,,,0,,79,127
94702,note_on,22,0,1,,,,,,,,,,0,,79,0
94702,note_on,142,0,3,,,,,,,,,,2,,73,0
94702,note_on,142,0,4,,,,,,,,,,5,,73,0
94704,note_on,2,0,4,,,,,,,,,,5,,73,60
94704,note_on,2,0,3,,,,,,,,,,2,,73,60
94704,note_on,2,0,1,,,,,,,,,,0,,77,127
94726,note_on,22,0,1,,,,,,,,,,0,,77,0
94728,note_on,2,0,1,,,,,,,,,,0,,76,127
94750,note_on,22,0,1,,,,,,,,,,0,,76,0
94750,note_on,46,0,4,,,,,,,,,,5,,73,0
94750,note_on,46,0,3,,,,,,,,,,2,,73,0
94752,note_on,2,0,1,,,,,,,,,,0,,74,127
94752,note_on,2,0,4,,,,,,,,,,5,,74,60
94752,note_on,2,0,3,,,,,,,,,,2,,74,60
94752,note_on,128,0,2,,,,,,,,,,1,,74,92
94774,note_on,22,0,2,,,,,,,,,,1,,74,0
94776,note_on,2,0,2,,,,,,,,,,1,,74,92
94798,note_on,22,0,2,,,,,,,,,,1,,74,0
94798,note_on,46,0,1,,,,,,,,,,0,,74,0
94800,note_on,2,0,1,,,,,,,,,,0,,74,127
94800,note_on,2,0,2,,,,,,,,,,1,,74,92
94822,note_on,22,0,2,,,,,,,,,,1,,74,0
94824,note_on,2,0,2,,,,,,,,,,1,,74,92
94846,note_on,94,0,4,,,,,,,,,,5,,74,0
94846,note_on,46,0,1,,,,,,,,,,0,,74,0
94846,note_on,22,0,2,,,,,,,,,,1,,74,0
94846,note_on,94,0,3,,,,,,,,,,2,,74,0
94848,note_on,2,0,4,,,,,,,,,,5,,65,60
94848,note_on,2,0,3,,,,,,,,,,2,,65,60
94848,note_on,2,0,1,,,,,,,,,,0,,74,127
94848,note_on,2,0,2,,,,,,,,,,1,,74,92
94870,note_on,22,0,2,,,,,,,,,,1,,74,0
94872,note_on,2,0,2,,,,,,,,,,1,,74,92
94894,note_on,22,0,2,,,,,,,,,,1,,74,0
94894,note_on,46,0,1,,,,,,,,,,0,,74,0
94896,note_on,2,0,2,,,,,,,,,,1,,74,92
94896,note_on,2,0,1,,,,,,,,,,0,,74,127
94918,note_on,22,0,2,,,,,,,,,,1,,74,0
94920,note_on,2,0,2,,,,,,,,,,1,,74,92
94942,note_on,22,0,2,,,,,,,,,,1,,74,0
94942,note_on,46,0,1,,,,,,,,,,0,,74,0
94944,note_on,2,0,2,,,,,,,,,,1,,74,92
94944,note_on,2,0,1,,,,,,,,,,0,,74,127
94966,note_on,22,0,2,,,,,,,,,,1,,74,0
94968,note_on,2,0,2,,,,,,,,,,1,,72,92
94990,note_on,22,0,2,,,,,,,,,,1,,72,0
94990,note_on,142,0,3,,,,,,,,,,2,,65,0
94990,note_on,46,0,1,,,,,,,,,,0,,74,0
94990,note_on,142,0,4,,,,,,,,,,5,,65,0
94992,note_on,2,0,4,,,,,,,,,,5,,62,60
94992,note_on,2,0,2,,,,,,,,,,1,,70,92
94992,note_on,2,0,3,,,,,,,,,,2,,62,60
94992,note_on,2,0,1,,,,,,,,,,0,,76,127
95014,note_on,22,0,2,,,,,,,,,,1,,70,0
95014,note_on,22,0,1,,,,,,,,,,0,,76,0
95016,note_on,2,0,1,,,,,,,,,,0,,77,127
95016,note_on,2,0,2,,,,,,,,,,1,,69,92
95038,note_on,22,0,1,,,,,,,,,,0,,77,0
95038,note_on,22,0,2,,,,,,,,,,1,,69,0
95038,note_on,46,0,3,,,,,,,,,,2,,62,0
95038,note_on,46,0,4,,,,,,,,,,5,,62,0
95040,note_on,2,0,4,,,,,,,,,,5,,58,60
95040,note_on,2,0,3,,,,,,,,,,2,,58,60
95040,note_on,2,0,1,,,,,,,,,,0,,79,127
95040,note_on,2,0,2,,,,,,,,,,1,,67,92
95062,note_on,22,0,1,,,,,,,,,,0,,79,0
95064,note_on,2,0,1,,,,,,,,,,0,,79,127
95086,note_on,46,0,2,,,,,,,,,,1,,67,0
95086,note_on,22,0,1,,,,,,,,,,0,,79,0
95088,note_on,2,0,1,,,,,,,,,,0,,79,127
95088,note_on,2,0,2,,,,,,,,,,1,,67,92
95110,note_on,22,0,1,,,,,,,,,,0,,79,0
95112,note_on,2,0,1,,,,,,,,,,0,,79,127
95134,note_on,94,0,4,,,,,,,,,,5,,58,0
95134,note_on,94,0,3,,,,,,,,,,2,,58,0
95134,note_on,22,0,1,,,,,,,,,,0,,79,0
95134,note_on,46,0,2,,,,,,,,,,1,,67,0
95136,note_on,2,0,2,,,,,,,,,,1,,67,92
95136,note_on,2,0,3,,,,,,,,,,2,,70,60
95136,note_on,2,0,4,,,,,,,,,,5,,70,60
95136,note_on,2,0,1,,,,,,,,,,0,,79,127
95158,note_on,22,0,1,,,,,,,,,,0,,79,0
95160,note_on,2,0,1,,,,,,,,,,0,,79,127
95182,note_on,46,0,2,,,,,,,,,,1,,67,0
95182,note_on,22,0,1,,,,,,,,,,0,,79,0
95184,note_on,2,0,2,,,,,,,,,,1,,67,92
95184,note_on,2,0,1,,,,,,,,,,0,,79,127
95206,note_on,22,0,1,,,,,,,,,,0,,79,0
95208,note_on,2,0,1,,,,,,,,,,0,,79,127
95230,note_on,22,0,1,,,,,,,,,,0,,79,0
95230,note_on,46,0,2,,,,,,,,,,1,,67,0
95232,note_on,2,0,2,,,,,,,,,,1,,67,92
95232,note_on,2,0,1,,,,,,,,,,0,,79,127
95254,note_on,22,0,1,,,,,,,,,,0,,79,0
95256,note_on,2,0,1,,,,,,,,,,0,,77,127
95278,note_on,22,0,1,,,,,,,,,,0,,77,0
95278,note_on,46,0,2,,,,,,,,,,1,,67,0
95278,note_on,142,0,3,,,,,,,,,,2,,70,0
95278,note_on,142,0,4,,,,,,,,,,5,,70,0
95280,note_on,2,0,4,,,,,,,,,,5,,67,60
95280,note_on,2,0,3,,,,,,,,,,2,,67,60
95280,note_on,2,0,2,,,,,,,,,,1,,69,92
95280,note_on,2,0,1,,,,,,,,,,0,,76,127
95302,note_on,22,0,1,,,,,,,,,,0,,76,0
95302,note_on,22,0,2,,,,,,,,,,1,,69,0
95304,note_on,2,0,1,,,,,,,,,,0,,74,127
95304,note_on,2,0,2,,,,,,,,,,1,,70,92
95326,note_on,46,0,3,,,,,,,,,,2,,67,0
95326,note_on,22,0,2,,,,,,,,,,1,,70,0
95326,note_on,46,0,4,,,,,,,,,,5,,67,0
95326,note_on,22,0,1,,,,,,,,,,0,,74,0
95328,note_on,2,0,3,,,,,,,,,,2,,72,60
95328,note_on,2,0,4,,,,,,,,,,5,,72,60
95328,note_on,2,0,2,,,,,,,,,,1,,72,92
95328,note_on,2,0,1,,,,,,,,,,0,,72,127
95350,note_on,22,0,2,,,,,,,,,,1,,72,0
95352,note_on,2,0,2,,,,,,,,,,1,,72,92
95374,note_on,22,0,2,,,,,,,,,,1,,72,0
95374,note_on,46,0,1,,,,,,,,,,0,,72,0
95376,note_on,2,0,1,,,,,,,,,,0,,72,127
95376,note_on,2,0,2,,,,,,,,,,1,,72,92
95398,note_on,22,0,2,,,,,,,,,,1,,72,0
95400,note_on,2,0,2,,,,,,,,,,1,,72,92
95422,note_on,46,0,1,,,,,,,,,,0,,72,0
95422,note_on,22,0,2,,,,,,,,,,1,,72,0
95422,note_on,94,0,3,,,,,,,,,,2,,72,0
95422,note_on,94,0,4,,,,,,,,,,5,,72,0
95424,note_on,2,0,3,,,,,,,,,,2,,64,60
95424,note_on,2,0,1,,,,,,,,,,0,,72,127
95424,note_on,2,0,2,,,,,,,,,,1,,72,92
95424,note_on,2,0,4,,,,,,,,,,5,,64,60
95446,note_on,22,0,2,,,,,,,,,,1,,72,0
95448,note_on,2,0,2,,,,,,,,,,1,,72,92
95470,note_on,22,0,2,,,,,,,,,,1,,72,0
95470,note_on,46,0,1,,,,,,,,,,0,,72,0
95472,note_on,2,0,2,,,,,,,,,,1,,72,92
95472,note_on,2,0,1,,,,,,,,,,0,,72,127
95494,note_on,22,0,2,,,,,,,,,,1,,72,0
95496,note_on,2,0,2,,,,,,,,,,1,,72,92
95518,note_on,22,0,2,,,,,,,,,,1,,72,0
95518,note_on,46,0,1,,,,,,,,,,0,,72,0
95520,note_on,2,0,1,,,,,,,,,,0,,72,127
95520,note_on,2,0,2,,,,,,,,,,1,,72,92
95542,note_on,22,0,2,,,,,,,,,,1,,72,0
95544,note_on,2,0,2,,,,,,,,,,1,,70,92
95566,note_on,46,0,1,,,,,,,,,,0,,72,0
95566,note_on,22,0,2,,,,,,,,,,1,,70,0
95566,note_on,142,0,4,,,,,,,,,,5,,64,0
95566,note_on,142,0,3,,,,,,,,,,2,,64,0
95568,note_on,2,0,2,,,,,,,,,,1,,69,92
95568,note_on,2,0,4,,,,,,,,,,5,,60,60
95568,note_on,2,0,3,,,,,,,,,,2,,60,60
95568,note_on,2,0,1,,,,,,,,,,0,,74,127
95590,note_on,22,0,2,,,,,,,,,,1,,69,0
95590,note_on,22,0,1,,,,,,,,,,0,,74,0
95592,note_on,2,0,2,,,,,,,,,,1,,67,92
95592,note_on,2,0,1,,,,,,,,,,0,,76,127
95614,note_on,22,0,2,,,,,,,,,,1,,67,0
95614,note_on,46,0,3,,,,,,,,,,2,,60,0
95614,note_on,22,0,1,,,,,,,,,,0,,76,0
95614,note_on,46,0,4,,,,,,,,,,5,,60,0
95616,note_on,2,0,3,,,,,,,,,,2,,57,60
95616,note_on,2,0,2,,,,,,,,,,1,,65,92
95616,note_on,2,0,4,,,,,,,,,,5,,57,60
95616,note_on,2,0,1,,,,,,,,,,0,,77,127
95638,note_on,22,0,1,,,,,,,,,,0,,77,0
95640,note_on,2,0,1,,,,,,,,,,0,,77,127
95662,note_on,46,0,2,,,,,,,,,,1,,65,0
95662,note_on,22,0,1,,,,,,,,,,0,,77,0
95664,note_on,2,0,2,,,,,,,,,,1,,65,92
95664,note_on,2,0,1,,,,,,,,,,0,,77,127
95686,note_on,22,0,1,,,,,,,,,,0,,77,0
95688,note_on,2,0,1,,,,,,,,,,0,,77,127
95710,note_on,94,0,3,,,,,,,,,,2,,57,0
95710,note_on,46,0,2,,,,,,,,,,1,,65,0
95710,note_on,22,0,1,,,,,,,,,,0,,77,0
95710,note_on,94,0,4,,,,,,,,,,5,,57,0
95712,note_on,2,0,2,,,,,,,,,,1,,65,92
95712,note_on,2,0,1,,,,,,,,,,0,,77,127
95712,note_on,2,0,3,,,,,,,,,,2,,69,60
95712,note_on,2,0,4,,,,,,,,,,5,,69,60
95734,note_on,22,0,1,,,,,,,,,,0,,77,0
95736,note_on,2,0,1,,,,,,,,,,0,,77,127
95758,note_on,46,0,2,,,,,,,,,,1,,65,0
95758,note_on,22,0,1,,,,,,,,,,0,,77,0
95760,note_on,2,0,2,,,,,,,,,,1,,65,92
95760,note_on,2,0,1,,,,,,,,,,0,,77,127
95782,note_on,22,0,1,,,,,,,,,,0,,77,0
95784,note_on,2,0,1,,,,,,,,,,0,,77,127
95806,note_on,46,0,2,,,,,,,,,,1,,65,0
95806,note_on,22,0,1,,,,,,,,,,0,,77,0
95808,note_on,2,0,1,,,,,,,,,,0,,77,127
95808,note_on,2,0,2,,,,,,,,,,1,,65,92
95830,note_on,22,0,1,,,,,,,,,,0,,77,0
95832,note_on,2,0,1,,,,,,,,,,0,,76,127
95854,note_on,142,0,4,,,,,,,,,,5,,69,0
95854,note_on,142,0,3,,,,,,,,,,2,,69,0
95854,note_on,46,0,2,,,,,,,,,,1,,65,0
95854,note_on,22,0,1,,,,,,,,,,0,,76,0
95856,note_on,2,0,2,,,,,,,,,,1,,67,92
95856,note_on,2,0,4,,,,,,,,,,5,,65,60
95856,note_on,2,0,3,,,,,,,,,,2,,65,60
95856,note_on,2,0,1,,,,,,,,,,0,,74,127
95878,note_on,22,0,1,,,,,,,,,,0,,74,0
95878,note_on,22,0,2,,,,,,,,,,1,,67,0
95880,note_on,2,0,1,,,,,,,,,,0,,72,127
95880,note_on,2,0,2,,,,,,,,,,1,,69,92
95902,note_on,22,0,1,,,,,,,,,,0,,72,0
95902,note_on,46,0,4,,,,,,,,,,5,,65,0
95902,note_on,46,0,3,,,,,,,,,,2,,65,0
95902,note_on,22,0,2,,,,,,,,,,1,,69,0
95904,note_on,2,0,1,,,,,,,,,,0,,70,127
95904,note_on,2,0,4,,,,,,,,,,5,,70,60
95904,note_on,2,0,3,,,,,,,,,,2,,70,60
95904,note_on,2,0,2,,,,,,,,,,1,,70,92
95926,note_on,22,0,2,,,,,,,,,,1,,70,0
95928,note_on,2,0,2,,,,,,,,,,1,,70,92
95950,note_on,22,0,2,,,,,,,,,,1,,70,0
95950,note_on,46,0,1,,,,,,,,,,0,,70,0
95952,note_on,2,0,2,,,,,,,,,,1,,70,92
95952,note_on,2,0,1,,,,,,,,,,0,,70,127
95974,note_on,22,0,2,,,,,,,,,,1,,70,0
95976,note_on,2,0,2,,,,,,,,,,1,,70,92
95998,note_on,22,0,2,,,,,,,,,,1,,70,0
95998,note_on,46,0,1,,,,,,,,,,0,,70,0
95998,note_on,94,0,4,,,,,,,,,,5,,70,0
95998,note_on,94,0,3,,,,,,,,,,2,,70,0
96000,note_on,2,0,2,,,,,,,,,,1,,70,92
96000,note_on,2,0,3,,,,,,,,,,2,,62,60
96000,note_on,2,0,1,,,,,,,,,,0,,70,127
96000,note_on,2,0,4,,,,,,,,,,5,,62,60
96022,note_on,22,0,2,,,,,,,,,,1,,70,0
96024,note_on,2,0,2,,,,,,,,,,1,,70,92
96046,note_on,46,0,1,,,,,,,,,,0,,70,0
96046,note_on,22,0,2,,,,,,,,,,1,,70,0
96048,note_on,2,0,2,,,,,,,,,,1,,70,92
96048,note_on,2,0,1,,,,,,,,,,0,,70,127
96070,note_on,22,0,2,,,,,,,,,,1,,70,0
96072,note_on,2,0,2,,,,,,,,,,1,,70,92
96094,note_on,46,0,1,,,,,,,,,,0,,70,0
96094,note_on,22,0,2,,,,,,,,,,1,,70,0
96096,note_on,2,0,2,,,,,,,,,,1,,70,92
96096,note_on,2,0,1,,,,,,,,,,0,,70,127
96118,note_on,22,0,2,,,,,,,,,,1,,70,0
96120,note_on,2,0,2,,,,,,,,,,1,,69,92
96142,note_on,142,0,3,,,,,,,,,,2,,62,0
96142,note_on,142,0,4,,,,,,,,,,5,,62,0
96142,note_on,46,0,1,,,,,,,,,,0,,70,0
96142,note_on,22,0,2,,,,,,,,,,1,,69,0
96144,note_on,2,0,3,,,,,,,,,,2,,58,60
96144,note_on,2,0,2,,,,,,,,,,1,,67,92
96144,note_on,2,0,4,,,,,,,,,,5,,58,60
96144,note_on,2,0,1,,,,,,,,,,0,,72,127
96166,note_on,22,0,1,,,,,,,,,,0,,72,0
96166,note_on,22,0,2,,,,,,,,,,1,,67,0
96168,note_on,2,0,2,,,,,,,,,,1,,65,92
96168,note_on,2,0,1,,,,,,,,,,0,,74,127
96190,note_on,46,0,3,,,,,,,,,,2,,58,0
96190,note_on,46,0,4,,,,,,,,,,5,,58,0
96190,note_on,22,0,2,,,,,,,,,,1,,65,0
96190,note_on,22,0,1,,,,,,,,,,0,,74,0
96192,note_on,2,0,1,,,,,,,,,,0,,76,127
96192,note_on,2,0,4,,,,,,,,,,5,,55,60
96192,note_on,2,0,2,,,,,,,,,,1,,67,92
96192,note_on,2,0,3,,,,,,,,,,2,,55,60
96214,note_on,22,0,1,,,,,,,,,,0,,76,0
96214,note_on,22,0,2,,,,,,,,,,1,,67,0
96216,note_on,2,0,2,,,,,,,,,,1,,67,92
96216,note_on,2,0,1,,,,,,,,,,0,,76,127
96238,note_on,22,0,2,,,,,,,,,,1,,67,0
96238,note_on,22,0,1,,,,,,,,,,0,,76,0
96240,note_on,2,0,2,,,,,,,,,,1,,67,92
96240,note_on,2,0,1,,,,,,,,,,0,,76,127
96262,note_on,22,0,1,,,,,,,,,,0,,76,0
96262,note_on,22,0,2,,,,,,,,,,1,,67,0
96264,note_on,2,0,2,,,,,,,,,,1,,67,92
96264,note_on,2,0,1,,,,,,,,,,0,,76,127
96286,note_on,94,0,4,,,,,,,,,,5,,55,0
96286,note_on,94,0,3,,,,,,,,,,2,,55,0
96286,note_on,22,0,2,,,,,,,,,,1,,67,0
96286,note_on,22,0,1,,,,,,,,,,0,,76,0
96288,note_on,2,0,1,,,,,,,,,,0,,76,127
96288,note_on,2,0,3,,,,,,,,,,2,,67,60
96288,note_on,2,0,2,,,,,,,,,,1,,67,92
96288,note_on,2,0,4,,,,,,,,,,5,,67,60
96310,note_on,22,0,2,,,,,,,,,,1,,67,0
96310,note_on,22,0,1,,,,,,,,,,0,,76,0
96312,note_on,2,0,2,,,,,,,,,,1,,67,92
96312,note_on,2,0,1,,,,,,,,,,0,,76,127
96334,note_on,22,0,1,,,,,,,,,,0,,76,0
96334,note_on,22,0,2,,,,,,,,,,1,,67,0
96336,note_on,2,0,1,,,,,,,,,,0,,76,127
96336,note_on,2,0,2,,,,,,,,,,1,,67,92
96358,note_on,22,0,1,,,,,,,,,,0,,76,0
96358,note_on,22,0,2,,,,,,,,,,1,,67,0
96360,note_on,2,0,2,,,,,,,,,,1,,67,92
96360,note_on,2,0,1,,,,,,,,,,0,,76,127
96382,note_on,22,0,2,,,,,,,,,,1,,67,0
96382,note_on,22,0,1,,,,,,,,,,0,,76,0
96384,note_on,2,0,2,,,,,,,,,,1,,67,92
96384,note_on,2,0,1,,,,,,,,,,0,,76,127
96406,note_on,22,0,2,,,,,,,,,,1,,67,0
96406,note_on,22,0,1,,,,,,,,,,0,,76,0
96408,note_on,2,0,1,,,,,,,,,,0,,79,127
96408,note_on,2,0,2,,,,,,,,,,1,,70,92
96430,note_on,22,0,2,,,,,,,,,,1,,70,0
96430,note_on,142,0,4,,,,,,,,,,5,,67,0
96430,note_on,22,0,1,,,,,,,,,,0,,79,0
96430,note_on,142,0,3,,,,,,,,,,2,,67,0
96432,note_on,2,0,4,,,,,,,,,,5,,60,60
96432,note_on,2,0,3,,,,,,,,,,2,,60,60
96432,note_on,2,0,2,,,,,,,,,,1,,69,92
96432,note_on,2,0,1,,,,,,,,,,0,,77,127
96454,note_on,22,0,2,,,,,,,,,,1,,69,0
96454,note_on,22,0,1,,,,,,,,,,0,,77,0
96456,note_on,2,0,2,,,,,,,,,,1,,67,92
96456,note_on,2,0,1,,,,,,,,,,0,,76,127
96478,note_on,22,0,2,,,,,,,,,,1,,67,0
96478,note_on,46,0,3,,,,,,,,,,2,,60,0
96478,note_on,46,0,4,,,,,,,,,,5,,60,0
96478,note_on,22,0,1,,,,,,,,,,0,,76,0
96480,note_on,2,0,2,,,,,,,,,,1,,69,92
96480,note_on,2,0,4,,,,,,,,,,5,,65,60
96480,note_on,2,0,3,,,,,,,,,,2,,65,60
96480,note_on,2,0,1,,,,,,,,,,0,,77,127
96502,note_on,22,0,2,,,,,,,,,,1,,69,0
96502,note_on,22,0,1,,,,,,,,,,0,,77,0
96504,note_on,2,0,2,,,,,,,,,,1,,69,92
96504,note_on,2,0,1,,,,,,,,,,0,,77,127
96526,note_on,22,0,2,,,,,,,,,,1,,69,0
96526,note_on,22,0,1,,,,,,,,,,0,,77,0
96528,note_on,2,0,1,,,,,,,,,,0,,77,127
96528,note_on,2,0,2,,,,,,,,,,1,,69,92
96550,note_on,22,0,1,,,,,,,,,,0,,77,0
96550,note_on,22,0,2,,,,,,,,,,1,,69,0
96552,note_on,2,0,1,,,,,,,,,,0,,77,127
96552,note_on,2,0,2,,,,,,,,,,1,,69,92
96574,note_on,94,0,4,,,,,,,,,,5,,65,0
96574,note_on,22,0,1,,,,,,,,,,0,,77,0
96574,note_on,22,0,2,,,,,,,,,,1,,69,0
96574,note_on,94,0,3,,,,,,,,,,2,,65,0
96576,note_on,2,0,1,,,,,,,,,,0,,77,127
96576,note_on,2,0,4,,,,,,,,,,5,,65,60
96576,note_on,2,0,2,,,,,,,,,,1,,69,92
96576,note_on,2,0,3,,,,,,,,,,2,,65,60
96598,note_on,22,0,2,,,,,,,,,,1,,69,0
96598,note_on,22,0,1,,,,,,,,,,0,,77,0
96600,note_on,2,0,2,,,,,,,,,,1,,69,92
96600,note_on,2,0,1,,,,,,,,,,0,,77,127
96622,note_on,22,0,2,,,,,,,,,,1,,69,0
96622,note_on,22,0,1,,,,,,,,,,0,,77,0
96624,note_on,2,0,2,,,,,,,,,,1,,69,92
96624,note_on,2,0,1,,,,,,,,,,0,,77,127
96646,note_on,22,0,1,,,,,,,,,,0,,77,0
96646,note_on,22,0,2,,,,,,,,,,1,,69,0
96648,note_on,2,0,1,,,,,,,,,,0,,77,127
96648,note_on,2,0,2,,,,,,,,,,1,,69,92
96670,note_on,22,0,1,,,,,,,,,,0,,77,0
96670,note_on,22,0,2,,,,,,,,,,1,,69,0
96672,note_on,2,0,1,,,,,,,,,,0,,77,127
96672,note_on,2,0,2,,,,,,,,,,1,,69,92
96694,note_on,22,0,2,,,,,,,,,,1,,69,0
96694,note_on,22,0,1,,,,,,,,,,0,,77,0
96696,note_on,2,0,2,,,,,,,,,,1,,72,92
96696,note_on,2,0,1,,,,,,,,,,0,,81,127
96718,note_on,142,0,4,,,,,,,,,,5,,65,0
96718,note_on,22,0,2,,,,,,,,,,1,,72,0
96718,note_on,142,0,3,,,,,,,,,,2,,65,0
96718,note_on,22,0,1,,,,,,,,,,0,,81,0
96720,note_on,2,0,4,,,,,,,,,,5,,65,60
96720,note_on,2,0,2,,,,,,,,,,1,,70,92
96720,note_on,2,0,3,,,,,,,,,,2,,65,60
96720,note_on,2,0,1,,,,,,,,,,0,,79,127
96742,note_on,22,0,2,,,,,,,,,,1,,70,0
96742,note_on,22,0,1,,,,,,,,,,0,,79,0
96744,note_on,2,0,1,,,,,,,,,,0,,77,127
96744,note_on,2,0,2,,,,,,,,,,1,,69,92
96766,note_on,22,0,1,,,,,,,,,,0,,77,0
96766,note_on,46,0,3,,,,,,,,,,2,,65,0
96766,note_on,46,0,4,,,,,,,,,,5,,65,0
96766,note_on,22,0,2,,,,,,,,,,1,,69,0
96768,note_on,2,0,4,,,,,,,,,,5,,60,60
96768,note_on,2,0,3,,,,,,,,,,2,,60,60
96768,note_on,2,0,1,,,,,,,,,,0,,76,127
96768,note_on,2,0,2,,,,,,,,,,1,,67,92
96814,note_on,46,0,1,,,,,,,,,,0,,76,0
96814,note_on,46,0,2,,,,,,,,,,1,,67,0
96816,note_on,2,0,1,,,,,,,,,,0,,76,127
96816,note_on,2,0,2,,,,,,,,,,1,,67,92
96838,note_on,22,0,1,,,,,,,,,,0,,76,0
96838,note_on,22,0,2,,,,,,,,,,1,,67,0
96840,note_on,2,0,2,,,,,,,,,,1,,69,92
96840,note_on,2,0,1,,,,,,,,,,0,,77,127
96862,note_on,22,0,2,,,,,,,,,,1,,69,0
96862,note_on,94,0,4,,,,,,,,,,5,,60,0
96862,note_on,22,0,1,,,,,,,,,,0,,77,0
96862,note_on,94,0,3,,,,,,,,,,2,,60,0
96864,note_on,2,0,1,,,,,,,,,,0,,79,127
96864,note_on,2,0,2,,,,,,,,,,1,,70,92
96864,note_on,2,0,3,,,,,,,,,,2,,60,60
96864,note_on,2,0,4,,,,,,,,,,5,,60,60
96910,note_on,46,0,2,,,,,,,,,,1,,70,0
96910,note_on,46,0,1,,,,,,,,,,0,,79,0
96912,note_on,2,0,2,,,,,,,,,,1,,67,92
96912,note_on,2,0,1,,,,,,,,,,0,,76,127
96934,note_on,22,0,2,,,,,,,,,,1,,67,0
96934,note_on,22,0,1,,,,,,,,,,0,,76,0
96936,note_on,2,0,1,,,,,,,,,,0,,77,127
96936,note_on,2,0,2,,,,,,,,,,1,,69,92
96958,note_on,22,0,1,,,,,,,,,,0,,77,0
96958,note_on,22,0,2,,,,,,,,,,1,,69,0
96960,note_on,2,0,2,,,,,,,,,,1,,70,92
96960,note_on,2,0,1,,,,,,,,,,0,,79,127
97006,note_on,46,0,1,,,,,,,,,,0,,79,0
97006,note_on,142,0,3,,,,,,,,,,2,,60,0
97006,note_on,46,0,2,,,,,,,,,,1,,70,0
97006,note_on,142,0,4,,,,,,,,,,5,,60,0
97008,note_on,2,0,1,,,,,,,,,,0,,76,127
97008,note_on,2,0,3,,,,,,,,,,2,,60,60
97008,note_on,2,0,2,,,,,,,,,,1,,67,92
97008,note_on,2,0,4,,,,,,,,,,5,,60,60
97030,note_on,22,0,2,,,,,,,,,,1,,67,0
97030,note_on,22,0,1,,,,,,,,,,0,,76,0
97032,note_on,2,0,2,,,,,,,,,,1,,69,92
97032,note_on,2,0,1,,,,,,,,,,0,,77,127
97054,note_on,46,0,4,,,,,,,,,,5,,60,0
97054,note_on,22,0,2,,,,,,,,,,1,,69,0
97054,note_on,22,0,1,,,,,,,,,,0,,77,0
97054,note_on,46,0,3,,,,,,,,,,2,,60,0
97056,note_on,2,0,1,,,,,,,,,,0,,79,127
97056,note_on,2,0,3,,,,,,,,,,2,,65,60
97056,note_on,2,0,4,,,,,,,,,,5,,65,60
97056,note_on,2,0,2,,,,,,,,,,1,,70,92
97102,note_on,46,0,1,,,,,,,,,,0,,79,0
97102,note_on,46,0,2,,,,,,,,,,1,,70,0
97104,note_on,2,0,1,,,,,,,,,,0,,82,127
97104,note_on,2,0,2,,,,,,,,,,1,,67,92
97150,note_on,46,0,1,,,,,,,,,,0,,82,0
97150,note_on,94,0,3,,,,,,,,,,2,,65,0
97150,note_on,94,0,4,,,,,,,,,,5,,65,0
97150,note_on,46,0,2,,,,,,,,,,1,,67,0
97152,note_on,2,0,1,,,,,,,,,,0,,81,127
97152,note_on,2,0,2,,,,,,,,,,1,,65,92
97198,note_on,46,0,1,,,,,,,,,,0,,81,0
97198,note_on,46,0,2,,,,,,,,,,1,,65,0
97200,note_on,50,0,4,,,,,,,,,,5,,65,60
97200,note_on,2,0,2,,,,,,,,,,1,,69,92
97200,note_on,50,0,3,,,,,,,,,,2,,65,60
97200,note_on,2,0,1,,,,,,,,,,0,,77,127
97246,note_on,46,0,3,,,,,,,,,,2,,65,0
97246,note_on,46,0,1,,,,,,,,,,0,,77,0
97246,note_on,46,0,2,,,,,,,,,,1,,69,0
97246,note_on,46,0,4,,,,,,,,,,5,,65,0
97248,note_on,2,0,3,,,,,,,,,,2,,58,60
97248,note_on,2,0,2,,,,,,,,,,1,,70,92
97248,note_on,2,0,1,,,,,,,,,,0,,79,127
97248,note_on,2,0,4,,,,,,,,,,5,,58,60
97294,note_on,46,0,3,,,,,,,,,,2,,58,0
97294,note_on,46,0,2,,,,,,,,,,1,,70,0
97294,note_on,46,0,4,,,,,,,,,,5,,58,0
97294,note_on,46,0,1,,,,,,,,,,0,,79,0
97296,note_on,2,0,4,,,,,,,,,,5,,60,60
97296,note_on,2,0,2,,,,,,,,,,1,,67,92
97296,note_on,2,0,3,,,,,,,,,,2,,60,60
97296,note_on,2,0,1,,,,,,,,,,0,,76,127
97342,note_on,46,0,3,,,,,,,,,,2,,60,0
97342,note_on,46,0,2,,,,,,,,,,1,,67,0
97342,note_on,46,0,1,,,,,,,,,,0,,76,0
97342,note_on,46,0,4,,,,,,,,,,5,,60,0
97344,note_on,2,0,3,,,,,,,,,,2,,65,60
97344,note_on,2,0,4,,,,,,,,,,5,,65,60
97344,note_on,2,0,1,,,,,,,,,,0,,77,127
97344,note_on,2,0,2,,,,,,,,,,1,,69,92
97390,note_on,46,0,2,,,,,,,,,,1,,69,0
97390,note_on,46,0,1,,,,,,,,,,0,,77,0
97392,note_on,2,0,2,,,,,,,,,,1,,67,92
97392,note_on,2,0,1,,,,,,,,,,0,,81,127
97438,note_on,46,0,1,,,,,,,,,,0,,81,0
97438,note_on,46,0,2,,,,,,,,,,1,,67,0
97438,note_on,94,0,4,,,,,,,,,,5,,65,0
97438,note_on,94,0,3,,,,,,,,,,2,,65,0
97440,note_on,2,0,1,,,,,,,,,,0,,81,127
97440,note_on,2,0,2,,,,,,,,,,1,,65,92
97486,note_on,46,0,1,,,,,,,,,,0,,81,0
97486,note_on,46,0,2,,,,,,,,,,1,,65,0
97488,note_on,50,0,3,,,,,,,,,,2,,65,60
97488,note_on,50,0,4,,,,,,,,,,5,,65,60
97488,note_on,2,0,2,,,,,,,,,,1,,69,92
97488,note_on,2,0,1,,,,,,,,,,0,,77,127
97534,note_on,46,0,1,,,,,,,,,,0,,77,0
97534,note_on,46,0,4,,,,,,,,,,5,,65,0
97534,note_on,46,0,2,,,,,,,,,,1,,69,0
97534,note_on,46,0,3,,,,,,,,,,2,,65,0
97536,note_on,2,0,2,,,,,,,,,,1,,70,92
97536,note_on,2,0,1,,,,,,,,,,0,,79,127
97536,note_on,2,0,4,,,,,,,,,,5,,58,60
97536,note_on,2,0,3,,,,,,,,,,2,,58,60
97582,note_on,46,0,4,,,,,,,,,,5,,58,0
97582,note_on,46,0,1,,,,,,,,,,0,,79,0
97582,note_on,46,0,3,,,,,,,,,,2,,58,0
97582,note_on,46,0,2,,,,,,,,,,1,,70,0
97584,note_on,2,0,4,,,,,,,,,,5,,60,60
97584,note_on,2,0,2,,,,,,,,,,1,,67,92
97584,note_on,2,0,1,,,,,,,,,,0,,76,127
97584,note_on,2,0,3,,,,,,,,,,2,,60,60
97630,note_on,46,0,2,,,,,,,,,,1,,67,0
97630,note_on,46,0,3,,,,,,,,,,2,,60,0
97630,note_on,46,0,4,,,,,,,,,,5,,60,0
97630,note_on,46,0,1,,,,,,,,,,0,,76,0
97632,note_on,3296,0,7,,,,,,,,,,7,,53,75
97632,note_on,2,0,1,,,,,,,,,,0,,77,127
97632,note_on,2,0,2,,,,,,,,,,1,,65,92
97632,note_on,2,0,4,,,,,,,,,,5,,77,127
97632,note_on,2,0,3,,,,,,,,,,2,,77,127
97632,note_on,3296,0,6,,,,,,,,,,6,,53,75
97632,note_on,4064,0,5,,,,,,,,,,4,,60,60
97632,set_tempo,10080,1,0,750000,,,,,,,,,,,,
97726,note_on,94,0,4,,,,,,,,,,5,,77,0
97726,note_on,94,0,3,,,,,,,,,,2,,77,0
97726,note_on,94,0,5,,,,,,,,,,4,,60,0
97726,note_on,94,0,6,,,,,,,,,,6,,53,0
97726,note_on,94,0,2,,,,,,,,,,1,,65,0
97726,note_on,94,0,7,,,,,,,,,,7,,53,0
97726,note_on,94,0,1,,,,,,,,,,0,,77,0
97728,note_on,2,0,4,,,,,,,,,,5,,65,127
97728,note_on,2,0,7,,,,,,,,,,7,,41,75
97728,note_on,2,0,3,,,,,,,,,,2,,65,127
97728,note_on,2,0,6,,,,,,,,,,6,,41,75
97728,note_on,2,0,5,,,,,,,,,,4,,57,60
97774,note_on,46,0,4,,,,,,,,,,5,,65,0
97774,note_on,46,0,3,,,,,,,,,,2,,65,0
97776,note_on,2,0,4,,,,,,,,,,5,,79,127
97776,note_on,2,0,3,,,,,,,,,,2,,82,127
97822,note_on,94,0,7,,,,,,,,,,7,,41,0
97822,note_on,94,0,6,,,,,,,,,,6,,41,0
97822,note_on,94,0,5,,,,,,,,,,4,,57,0
97822,note_on,46,0,4,,,,,,,,,,5,,79,0
97822,note_on,46,0,3,,,,,,,,,,2,,82,0
97824,note_on,2,0,4,,,,,,,,,,5,,77,127
97824,note_on,2,0,5,,,,,,,,,,4,,64,60
97824,note_on,2,0,3,,,,,,,,,,2,,81,127
97824,note_on,2,0,6,,,,,,,,,,6,,48,75
97824,note_on,2,0,7,,,,,,,,,,7,,48,75
97870,note_on,46,0,3,,,,,,,,,,2,,81,0
97870,note_on,46,0,4,,,,,,,,,,5,,77,0
97872,note_on,2,0,4,,,,,,,,,,5,,76,127
97872,note_on,2,0,3,,,,,,,,,,2,,79,127
97918,note_on,46,0,3,,,,,,,,,,2,,79,0
97918,note_on,94,0,5,,,,,,,,,,4,,64,0
97918,note_on,94,0,7,,,,,,,,,,7,,48,0
97918,note_on,94,0,6,,,,,,,,,,6,,48,0
97918,note_on,46,0,4,,,,,,,,,,5,,76,0
97920,note_on,2,0,4,,,,,,,,,,5,,77,127
97920,note_on,2,0,7,,,,,,,,,,7,,53,75
97920,note_on,2,0,3,,,,,,,,,,2,,77,127
97920,note_on,2,0,5,,,,,,,,,,4,,60,60
97920,note_on,2,0,6,,,,,,,,,,6,,53,75
98014,note_on,94,0,6,,,,,,,,,,6,,53,0
98014,note_on,94,0,4,,,,,,,,,,5,,77,0
98014,note_on,94,0,5,,,,,,,,,,4,,60,0
98014,note_on,94,0,7,,,,,,,,,,7,,53,0
98014,note_on,94,0,3,,,,,,,,,,2,,77,0
98016,note_on,2,0,4,,,,,,,,,,5,,65,127
98016,note_on,2,0,7,,,,,,,,,,7,,41,75
98016,note_on,2,0,5,,,,,,,,,,4,,57,60
98016,note_on,2,0,6,,,,,,,,,,6,,41,75
98016,note_on,2,0,3,,,,,,,,,,2,,65,127
98062,note_on,46,0,4,,,,,,,,,,5,,65,0
98062,note_on,46,0,3,,,,,,,,,,2,,65,0
98064,note_on,2,0,3,,,,,,,,,,2,,82,127
98064,note_on,2,0,4,,,,,,,,,,5,,79,127
98110,note_on,46,0,3,,,,,,,,,,2,,82,0
98110,note_on,94,0,6,,,,,,,,,,6,,41,0
98110,note_on,46,0,4,,,,,,,,,,5,,79,0
98110,note_on,94,0,7,,,,,,,,,,7,,41,0
98110,note_on,94,0,5,,,,,,,,,,4,,57,0
98112,note_on,2,0,4,,,,,,,,,,5,,77,127
98112,note_on,2,0,6,,,,,,,,,,6,,48,75
98112,note_on,2,0,7,,,,,,,,,,7,,48,75
98112,note_on,2,0,5,,,,,,,,,,4,,64,60
98112,note_on,2,0,3,,,,,,,,,,2,,81,127
98158,note_on,46,0,4,,,,,,,,,,5,,77,0
98158,note_on,46,0,3,,,,,,,,,,2,,81,0
98160,note_on,2,0,4,,,,,,,,,,5,,76,127
98160,note_on,2,0,3,,,,,,,,,,2,,79,127
98206,note_on,46,0,3,,,,,,,,,,2,,79,0
98206,note_on,94,0,5,,,,,,,,,,4,,64,0
98206,note_on,94,0,6,,,,,,,,,,6,,48,0
98206,note_on,46,0,4,,,,,,,,,,5,,76,0
98206,note_on,94,0,7,,,,,,,,,,7,,48,0
98208,note_on,2,0,7,,,,,,,,,,7,,53,75
98208,note_on,2,0,3,,,,,,,,,,2,,77,127
98208,note_on,2,0,6,,,,,,,,,,6,,53,75
98208,note_on,2,0,4,,,,,,,,,,5,,77,127
98208,note_on,2,0,5,,,,,,,,,,4,,65,60
98254,note_on,46,0,4,,,,,,,,,,5,,77,0
98254,note_on,46,0,3,,,,,,,,,,2,,77,0
98256,note_on,2,0,4,,,,,,,,,,5,,79,127
98256,note_on,2,0,3,,,,,,,,,,2,,79,127
98302,note_on,94,0,6,,,,,,,,,,6,,53,0
98302,note_on,94,0,7,,,,,,,,,,7,,53,0
98302,note_on,46,0,4,,,,,,,,,,5,,79,0
98302,note_on,46,0,3,,,,,,,,,,2,,79,0
98304,note_on,2,0,3,,,,,,,,,,2,,81,127
98304,note_on,2,0,4,,,,,,,,,,5,,81,127
98304,note_on,2,0,6,,,,,,,,,,6,,41,75
98304,note_on,2,0,7,,,,,,,,,,7,,41,75
98350,note_on,46,0,4,,,,,,,,,,5,,81,0
98350,note_on,46,0,3,,,,,,,,,,2,,81,0
98352,note_on,2,0,3,,,,,,,,,,2,,82,127
98352,note_on,2,0,4,,,,,,,,,,5,,82,127
98368,note_on,160,0,5,,,,,,,,,,4,,65,0
98398,note_on,46,0,3,,,,,,,,,,2,,82,0
98398,note_on,94,0,6,,,,,,,,,,6,,41,0
98398,note_on,46,0,4,,,,,,,,,,5,,82,0
98398,note_on,94,0,7,,,,,,,,,,7,,41,0
98400,note_on,2,0,3,,,,,,,,,,2,,84,127
98400,note_on,2,0,4,,,,,,,,,,5,,84,127
98400,note_on,32,0,5,,,,,,,,,,4,,69,60
98400,note_on,2,0,7,,,,,,,,,,7,,53,75
98400,note_on,2,0,6,,,,,,,,,,6,,53,75
98446,note_on,46,0,3,,,,,,,,,,2,,84,0
98446,note_on,46,0,4,,,,,,,,,,5,,84,0
98448,note_on,2,0,3,,,,,,,,,,2,,77,127
98448,note_on,2,0,4,,,,,,,,,,5,,77,127
98494,note_on,46,0,3,,,,,,,,,,2,,77,0
98494,note_on,94,0,5,,,,,,,,,,4,,69,0
98494,note_on,46,0,4,,,,,,,,,,5,,77,0
98494,note_on,94,0,7,,,,,,,,,,7,,53,0
98494,note_on,94,0,6,,,,,,,,,,6,,53,0
98496,note_on,2,0,4,,,,,,,,,,5,,76,127
98496,note_on,2,0,3,,,,,,,,,,2,,76,127
98496,note_on,2,0,5,,,,,,,,,,4,,67,60
98496,note_on,2,0,7,,,,,,,,,,7,,60,75
98496,note_on,2,0,6,,,,,,,,,,6,,60,75
98590,note_on,94,0,3,,,,,,,,,,2,,76,0
98590,note_on,94,0,6,,,,,,,,,,6,,60,0
98590,note_on,94,0,4,,,,,,,,,,5,,76,0
98590,note_on,94,0,7,,,,,,,,,,7,,60,0
98590,note_on,94,0,5,,,,,,,,,,4,,67,0
98592,note_on,2,0,3,,,,,,,,,,2,,72,127
98592,note_on,2,0,4,,,,,,,,,,5,,72,127
98592,note_on,2,0,5,,,,,,,,,,4,,64,60
98592,note_on,2,0,7,,,,,,,,,,7,,48,75
98592,note_on,2,0,6,,,,,,,,,,6,,48,75
98638,note_on,46,0,4,,,,,,,,,,5,,72,0
98638,note_on,46,0,3,,,,,,,,,,2,,72,0
98640,note_on,2,0,4,,,,,,,,,,5,,82,127
98640,note_on,2,0,3,,,,,,,,,,2,,82,127
98686,note_on,46,0,3,,,,,,,,,,2,,82,0
98686,note_on,46,0,4,,,,,,,,,,5,,82,0
98686,note_on,94,0,7,,,,,,,,,,7,,48,0
98686,note_on,94,0,6,,,,,,,,,,6,,48,0
98688,note_on,2,0,3,,,,,,,,,,2,,81,127
98688,note_on,2,0,6,,,,,,,,,,6,,60,75
98688,note_on,2,0,7,,,,,,,,,,7,,60,75
98688,note_on,2,0,4,,,,,,,,,,5,,81,127
98734,note_on,46,0,4,,,,,,,,,,5,,81,0
98734,note_on,46,0,3,,,,,,,,,,2,,81,0
98736,note_on,2,0,3,,,,,,,,,,2,,79,127
98736,note_on,2,0,4,,,,,,,,,,5,,79,127
98752,note_on,160,0,5,,,,,,,,,,4,,64,0
98782,note_on,94,0,7,,,,,,,,,,7,,60,0
98782,note_on,94,0,6,,,,,,,,,,6,,60,0
98782,note_on,46,0,4,,,,,,,,,,5,,79,0
98782,note_on,46,0,3,,,,,,,,,,2,,79,0
98784,note_on,32,0,5,,,,,,,,,,4,,60,60
98784,note_on,2,0,7,,,,,,,,,,7,,53,75
98784,note_on,2,0,6,,,,,,,,,,6,,53,75
98784,note_on,2,0,3,,,,,,,,,,2,,81,127
98784,note_on,2,0,4,,,,,,,,,,5,,81,127
98830,note_on,46,0,3,,,,,,,,,,2,,81,0
98830,note_on,46,0,4,,,,,,,,,,5,,81,0
98832,note_on,2,0,3,,,,,,,,,,2,,72,127
98832,note_on,2,0,4,,,,,,,,,,5,,72,127
98878,note_on,94,0,5,,,,,,,,,,4,,60,0
98878,note_on,94,0,7,,,,,,,,,,7,,53,0
98878,note_on,94,0,6,,,,,,,,,,6,,53,0
98878,note_on,46,0,3,,,,,,,,,,2,,72,0
98878,note_on,46,0,4,,,,,,,,,,5,,72,0
98880,note_on,2,0,3,,,,,,,,,,2,,72,127
98880,note_on,2,0,5,,,,,,,,,,4,,65,60
98880,note_on,2,0,6,,,,,,,,,,6,,45,75
98880,note_on,2,0,7,,,,,,,,,,7,,45,75
98880,note_on,2,0,4,,,,,,,,,,5,,72,127
98974,note_on,94,0,7,,,,,,,,,,7,,45,0
98974,note_on,94,0,4,,,,,,,,,,5,,72,0
98974,note_on,94,0,3,,,,,,,,,,2,,72,0
98974,note_on,94,0,6,,,,,,,,,,6,,45,0
98976,note_on,2,0,4,,,,,,,,,,5,,74,127
98976,note_on,2,0,7,,,,,,,,,,7,,45,75
98976,note_on,2,0,6,,,,,,,,,,6,,45,75
98976,note_on,2,0,3,,,,,,,,,,2,,74,127
99040,note_on,160,0,5,,,,,,,,,,4,,65,0
99070,note_on,94,0,7,,,,,,,,,,7,,45,0
99070,note_on,94,0,6,,,,,,,,,,6,,45,0
99070,note_on,94,0,4,,,,,,,,,,5,,74,0
99070,note_on,94,0,3,,,,,,,,,,2,,74,0
99072,note_on,2,0,3,,,,,,,,,,2,,82,127
99072,note_on,2,0,7,,,,,,,,,,7,,52,75
99072,note_on,2,0,4,,,,,,,,,,5,,82,127
99072,note_on,32,0,5,,,,,,,,,,4,,67,60
99072,note_on,2,0,6,,,,,,,,,,6,,52,75
99118,note_on,46,0,4,,,,,,,,,,5,,82,0
99118,note_on,46,0,3,,,,,,,,,,2,,82,0
99120,note_on,2,0,3,,,,,,,,,,2,,70,127
99120,note_on,2,0,4,,,,,,,,,,5,,70,127
99166,note_on,94,0,5,,,,,,,,,,4,,67,0
99166,note_on,94,0,6,,,,,,,,,,6,,52,0
99166,note_on,46,0,4,,,,,,,,,,5,,70,0
99166,note_on,46,0,3,,,,,,,,,,2,,70,0
99166,note_on,94,0,7,,,,,,,,,,7,,52,0
99168,note_on,2,0,7,,,,,,,,,,7,,43,75
99168,note_on,2,0,4,,,,,,,,,,5,,70,127
99168,note_on,2,0,5,,,,,,,,,,4,,64,60
99168,note_on,2,0,3,,,,,,,,,,2,,70,127
99168,note_on,2,0,6,,,,,,,,,,6,,43,75
99262,note_on,94,0,7,,,,,,,,,,7,,43,0
99262,note_on,94,0,3,,,,,,,,,,2,,70,0
99262,note_on,94,0,6,,,,,,,,,,6,,43,0
99262,note_on,94,0,4,,,,,,,,,,5,,70,0
99264,note_on,2,0,7,,,,,,,,,,7,,45,75
99264,note_on,2,0,6,,,,,,,,,,6,,45,75
99264,note_on,2,0,4,,,,,,,,,,5,,72,127
99264,note_on,2,0,3,,,,,,,,,,2,,72,127
99328,note_on,160,0,5,,,,,,,,,,4,,64,0
99358,note_on,94,0,3,,,,,,,,,,2,,72,0
99358,note_on,94,0,7,,,,,,,,,,7,,45,0
99358,note_on,94,0,4,,,,,,,,,,5,,72,0
99358,note_on,94,0,6,,,,,,,,,,6,,45,0
99360,note_on,2,0,6,,,,,,,,,,6,,50,75
99360,note_on,2,0,4,,,,,,,,,,5,,81,127
99360,note_on,2,0,3,,,,,,,,,,2,,81,127
99360,note_on,2,0,7,,,,,,,,,,7,,50,75
99360,note_on,32,0,5,,,,,,,,,,4,,65,60
99406,note_on,46,0,4,,,,,,,,,,5,,81,0
99406,note_on,46,0,3,,,,,,,,,,2,,81,0
99408,note_on,2,0,4,,,,,,,,,,5,,69,127
99408,note_on,2,0,3,,,,,,,,,,2,,69,127
99454,note_on,94,0,6,,,,,,,,,,6,,50,0
99454,note_on,94,0,5,,,,,,,,,,4,,65,0
99454,note_on,94,0,7,,,,,,,,,,7,,50,0
99454,note_on,46,0,3,,,,,,,,,,2,,69,0
99454,note_on,46,0,4,,,,,,,,,,5,,69,0
99456,note_on,2,0,6,,,,,,,,,,6,,41,75
99456,note_on,2,0,7,,,,,,,,,,7,,41,75
99456,note_on,2,0,4,,,,,,,,,,5,,69,127
99456,note_on,2,0,3,,,,,,,,,,2,,69,127
99456,note_on,2,0,5,,,,,,,,,,4,,62,60
99550,note_on,94,0,7,,,,,,,,,,7,,41,0
99550,note_on,94,0,4,,,,,,,,,,5,,69,0
99550,note_on,94,0,6,,,,,,,,,,6,,41,0
99550,note_on,94,0,3,,,,,,,,,,2,,69,0
99552,note_on,2,0,6,,,,,,,,,,6,,43,75
99552,note_on,2,0,3,,,,,,,,,,2,,70,127
99552,note_on,2,0,7,,,,,,,,,,7,,43,75
99552,note_on,2,0,4,,,,,,,,,,5,,70,127
99616,note_on,160,0,5,,,,,,,,,,4,,62,0
99646,note_on,94,0,4,,,,,,,,,,5,,70,0
99646,note_on,94,0,3,,,,,,,,,,2,,70,0
99646,note_on,94,0,6,,,,,,,,,,6,,43,0
99646,note_on,94,0,7,,,,,,,,,,7,,43,0
99648,note_on,2,0,3,,,,,,,,,,2,,79,127
99648,note_on,2,0,6,,,,,,,,,,6,,48,75
99648,note_on,32,0,5,,,,,,,,,,4,,64,60
99648,note_on,2,0,4,,,,,,,,,,5,,79,127
99648,note_on,2,0,7,,,,,,,,,,7,,48,75
99694,note_on,46,0,4,,,,,,,,,,5,,79,0
99694,note_on,46,0,3,,,,,,,,,,2,,79,0
99696,note_on,2,0,3,,,,,,,,,,2,,67,127
99696,note_on,2,0,4,,,,,,,,,,5,,67,127
99742,note_on,94,0,7,,,,,,,,,,7,,48,0
99742,note_on,46,0,3,,,,,,,,,,2,,67,0
99742,note_on,94,0,5,,,,,,,,,,4,,64,0
99742,note_on,46,0,4,,,,,,,,,,5,,67,0
99742,note_on,94,0,6,,,,,,,,,,6,,48,0
99744,note_on,2,0,3,,,,,,,,,,2,,67,127
99744,note_on,2,0,4,,,,,,,,,,5,,67,127
99744,note_on,2,0,6,,,,,,,,,,6,,40,75
99744,note_on,2,0,7,,,,,,,,,,7,,40,75
99744,note_on,2,0,5,,,,,,,,,,4,,60,60
99838,note_on,94,0,3,,,,,,,,,,2,,67,0
99838,note_on,94,0,7,,,,,,,,,,7,,40,0
99838,note_on,94,0,6,,,,,,,,,,6,,40,0
99838,note_on,94,0,4,,,,,,,,,,5,,67,0
99840,note_on,2,0,3,,,,,,,,,,2,,69,127
99840,note_on,2,0,7,,,,,,,,,,7,,41,75
99840,note_on,2,0,4,,,,,,,,,,5,,69,127
99840,note_on,2,0,6,,,,,,,,,,6,,41,75
99904,note_on,160,0,5,,,,,,,,,,4,,60,0
99934,note_on,94,0,6,,,,,,,,,,6,,41,0
99934,note_on,94,0,3,,,,,,,,,,2,,69,0
99934,note_on,94,0,4,,,,,,,,,,5,,69,0
99934,note_on,94,0,7,,,,,,,,,,7,,41,0
99936,note_on,2,0,6,,,,,,,,,,6,,57,75
99936,note_on,32,0,5,,,,,,,,,,4,,60,60
99936,note_on,2,0,3,,,,,,,,,,2,,77,127
99936,note_on,2,0,4,,,,,,,,,,5,,77,127
99936,note_on,2,0,7,,,,,,,,,,7,,57,75
99982,note_on,46,0,5,,,,,,,,,,4,,60,0
99982,note_on,46,0,7,,,,,,,,,,7,,57,0
99982,note_on,46,0,3,,,,,,,,,,2,,77,0
99982,note_on,46,0,6,,,,,,,,,,6,,57,0
99982,note_on,46,0,4,,,,,,,,,,5,,77,0
99984,note_on,2,0,7,,,,,,,,,,7,,53,75
99984,note_on,2,0,3,,,,,,,,,,2,,69,127
99984,note_on,2,0,6,,,,,,,,,,6,,53,75
99984,note_on,2,0,5,,,,,,,,,,4,,65,60
99984,note_on,2,0,4,,,,,,,,,,5,,69,127
100030,note_on,46,0,5,,,,,,,,,,4,,65,0
100030,note_on,46,0,4,,,,,,,,,,5,,69,0
100030,note_on,46,0,7,,,,,,,,,,7,,53,0
100030,note_on,46,0,6,,,,,,,,,,6,,53,0
100030,note_on,46,0,3,,,,,,,,,,2,,69,0
100032,note_on,2,0,4,,,,,,,,,,5,,70,127
100032,note_on,2,0,7,,,,,,,,,,7,,58,75
100032,note_on,2,0,6,,,,,,,,,,6,,58,75
100032,note_on,2,0,3,,,,,,,,,,2,,70,127
100032,note_on,2,0,5,,,,,,,,,,4,,62,60
100078,note_on,46,0,4,,,,,,,,,,5,,70,0
100078,note_on,46,0,3,,,,,,,,,,2,,70,0
100080,note_on,2,0,4,,,,,,,,,,5,,74,127
100080,note_on,2,0,3,,,,,,,,,,2,,74,127
100126,note_on,46,0,4,,,,,,,,,,5,,74,0
100126,note_on,46,0,3,,,,,,,,,,2,,74,0
100126,note_on,94,0,5,,,,,,,,,,4,,62,0
100128,note_on,2,0,4,,,,,,,,,,5,,72,127
100128,note_on,2,0,5,,,,,,,,,,4,,67,60
100128,note_on,2,0,3,,,,,,,,,,2,,72,127
100174,note_on,46,0,3,,,,,,,,,,2,,72,0
100174,note_on,46,0,4,,,,,,,,,,5,,72,0
100176,note_on,2,0,3,,,,,,,,,,2,,76,127
100176,note_on,2,0,4,,,,,,,,,,5,,76,127
100192,note_on,160,0,7,,,,,,,,,,7,,58,0
100192,note_on,160,0,6,,,,,,,,,,6,,58,0
100222,note_on,94,0,5,,,,,,,,,,4,,67,0
100222,note_on,46,0,3,,,,,,,,,,2,,76,0
100222,note_on,46,0,4,,,,,,,,,,5,,76,0
100224,note_on,2,0,5,,,,,,,,,,4,,60,60
100224,note_on,32,0,6,,,,,,,,,,6,,57,75
100224,note_on,2,0,4,,,,,,,,,,5,,77,127
100224,note_on,2,0,3,,,,,,,,,,2,,77,127
100224,note_on,32,0,7,,,,,,,,,,7,,57,75
100270,note_on,46,0,5,,,,,,,,,,4,,60,0
100270,note_on,46,0,6,,,,,,,,,,6,,57,0
100270,note_on,46,0,7,,,,,,,,,,7,,57,0
100270,note_on,46,0,3,,,,,,,,,,2,,77,0
100270,note_on,46,0,4,,,,,,,,,,5,,77,0
100272,note_on,2,0,5,,,,,,,,,,4,,65,60
100272,note_on,2,0,6,,,,,,,,,,6,,53,75
100272,note_on,2,0,7,,,,,,,,,,7,,53,75
100272,note_on,2,0,4,,,,,,,,,,5,,69,127
100272,note_on,2,0,3,,,,,,,,,,2,,69,127
100318,note_on,46,0,4,,,,,,,,,,5,,69,0
100318,note_on,46,0,5,,,,,,,,,,4,,65,0
100318,note_on,46,0,6,,,,,,,,,,6,,53,0
100318,note_on,46,0,3,,,,,,,,,,2,,69,0
100318,note_on,46,0,7,,,,,,,,,,7,,53,0
100320,note_on,2,0,4,,,,,,,,,,5,,70,127
100320,note_on,2,0,6,,,,,,,,,,6,,58,75
100320,note_on,2,0,3,,,,,,,,,,2,,70,127
100320,note_on,2,0,5,,,,,,,,,,4,,62,60
100320,note_on,2,0,7,,,,,,,,,,7,,58,75
100366,note_on,46,0,3,,,,,,,,,,2,,70,0
100366,note_on,46,0,4,,,,,,,,,,5,,70,0
100368,note_on,2,0,4,,,,,,,,,,5,,74,127
100368,note_on,2,0,3,,,,,,,,,,2,,74,127
100414,note_on,46,0,3,,,,,,,,,,2,,74,0
100414,note_on,94,0,5,,,,,,,,,,4,,62,0
100414,note_on,46,0,4,,,,,,,,,,5,,74,0
100416,note_on,2,0,5,,,,,,,,,,4,,67,60
100416,note_on,2,0,3,,,,,,,,,,2,,72,127
100416,note_on,2,0,4,,,,,,,,,,5,,72,127
100462,note_on,46,0,4,,,,,,,,,,5,,72,0
100462,note_on,46,0,3,,,,,,,,,,2,,72,0
100464,note_on,2,0,3,,,,,,,,,,2,,76,127
100464,note_on,2,0,4,,,,,,,,,,5,,76,127
100480,note_on,160,0,6,,,,,,,,,,6,,58,0
100480,note_on,160,0,7,,,,,,,,,,7,,58,0
100510,note_on,46,0,4,,,,,,,,,,5,,76,0
100510,note_on,94,0,5,,,,,,,,,,4,,67,0
100510,note_on,46,0,3,,,,,,,,,,2,,76,0
100512,note_on,2,0,5,,,,,,,,,,4,,60,60
100512,note_on,2,0,3,,,,,,,,,,2,,77,127
100512,note_on,32,0,6,,,,,,,,,,6,,57,75
100512,note_on,2,0,4,,,,,,,,,,5,,77,127
100512,note_on,32,0,7,,,,,,,,,,7,,57,75
100558,note_on,46,0,6,,,,,,,,,,6,,57,0
100558,note_on,46,0,7,,,,,,,,,,7,,57,0
100558,note_on,46,0,4,,,,,,,,,,5,,77,0
100558,note_on,46,0,3,,,,,,,,,,2,,77,0
100560,note_on,2,0,6,,,,,,,,,,6,,53,75
100560,note_on,2,0,4,,,,,,,,,,5,,69,127
100560,note_on,2,0,7,,,,,,,,,,7,,53,75
100560,note_on,2,0,3,,,,,,,,,,2,,69,127
100606,note_on,46,0,3,,,,,,,,,,2,,69,0
100606,note_on,46,0,6,,,,,,,,,,6,,53,0
100606,note_on,46,0,4,,,,,,,,,,5,,69,0
100606,note_on,46,0,7,,,,,,,,,,7,,53,0
100606,note_on,94,0,5,,,,,,,,,,4,,60,0
100608,note_on,2,0,4,,,,,,,,,,5,,67,127
100608,note_on,2,0,6,,,,,,,,,,6,,60,75
100608,note_on,2,0,5,,,,,,,,,,4,,64,60
100608,note_on,2,0,7,,,,,,,,,,7,,60,75
100608,note_on,2,0,3,,,,,,,,,,2,,67,127
100654,note_on,46,0,3,,,,,,,,,,2,,67,0
100654,note_on,46,0,4,,,,,,,,,,5,,67,0
100656,note_on,2,0,4,,,,,,,,,,5,,72,127
100656,note_on,2,0,3,,,,,,,,,,2,,72,127
100702,note_on,46,0,4,,,,,,,,,,5,,72,0
100702,note_on,94,0,5,,,,,,,,,,4,,64,0
100702,note_on,46,0,3,,,,,,,,,,2,,72,0
100702,note_on,94,0,7,,,,,,,,,,7,,60,0
100702,note_on,94,0,6,,,,,,,,,,6,,60,0
100704,note_on,2,0,3,,,,,,,,,,2,,60,127
100704,note_on,2,0,6,,,,,,,,,,6,,48,75
100704,note_on,2,0,5,,,,,,,,,,4,,55,60
100704,note_on,2,0,7,,,,,,,,,,7,,48,75
100704,note_on,2,0,4,,,,,,,,,,5,,60,127
100750,note_on,46,0,3,,,,,,,,,,2,,60,0
100750,note_on,46,0,4,,,,,,,,,,5,,60,0
100752,note_on,2,0,4,,,,,,,,,,5,,72,127
100752,note_on,2,0,3,,,,,,,,,,2,,72,127
100798,note_on,46,0,3,,,,,,,,,,2,,72,0
100798,note_on,94,0,6,,,,,,,,,,6,,48,0
100798,note_on,46,0,4,,,,,,,,,,5,,72,0
100798,note_on,94,0,5,,,,,,,,,,4,,55,0
100798,note_on,94,0,7,,,,,,,,,,7,,48,0
100800,note_on,2,0,7,,,,,,,,,,7,,41,75
100800,note_on,2,0,6,,,,,,,,,,6,,41,75
100800,note_on,2,0,3,,,,,,,,,,2,,77,127
100800,note_on,2,0,5,,,,,,,,,,4,,57,60
100800,note_on,2,0,4,,,,,,,,,,5,,77,127
100846,note_on,46,0,3,,,,,,,,,,2,,77,0
100846,note_on,46,0,7,,,,,,,,,,7,,41,0
100846,note_on,46,0,6,,,,,,,,,,6,,41,0
100846,note_on,46,0,5,,,,,,,,,,4,,57,0
100846,note_on,46,0,4,,,,,,,,,,5,,77,0
100848,note_on,2,0,7,,,,,,,,,,7,,53,75
100848,note_on,2,0,6,,,,,,,,,,6,,53,75
100848,note_on,2,0,5,,,,,,,,,,4,,65,60
100848,note_on,2,0,3,,,,,,,,,,2,,69,127
100848,note_on,2,0,4,,,,,,,,,,5,,69,127
100894,note_on,46,0,6,,,,,,,,,,6,,53,0
100894,note_on,46,0,4,,,,,,,,,,5,,69,0
100894,note_on,46,0,7,,,,,,,,,,7,,53,0
100894,note_on,46,0,5,,,,,,,,,,4,,65,0
100894,note_on,46,0,3,,,,,,,,,,2,,69,0
100896,note_on,2,0,3,,,,,,,,,,2,,70,127
100896,note_on,2,0,4,,,,,,,,,,5,,70,127
100896,note_on,2,0,7,,,,,,,,,,7,,58,75
100896,note_on,2,0,6,,,,,,,,,,6,,58,75
100896,note_on,2,0,5,,,,,,,,,,4,,62,60
100942,note_on,46,0,4,,,,,,,,,,5,,70,0
100942,note_on,46,0,3,,,,,,,,,,2,,70,0
100944,note_on,2,0,3,,,,,,,,,,2,,74,127
100944,note_on,2,0,4,,,,,,,,,,5,,74,127
100990,note_on,94,0,5,,,,,,,,,,4,,62,0
100990,note_on,46,0,3,,,,,,,,,,2,,74,0
100990,note_on,46,0,4,,,,,,,,,,5,,74,0
100992,note_on,2,0,4,,,,,,,,,,5,,72,127
100992,note_on,2,0,5,,,,,,,,,,4,,67,60
100992,note_on,2,0,3,,,,,,,,,,2,,72,127
101038,note_on,46,0,3,,,,,,,,,,2,,72,0
101038,note_on,46,0,4,,,,,,,,,,5,,72,0
101040,note_on,2,0,4,,,,,,,,,,5,,76,127
101040,note_on,2,0,3,,,,,,,,,,2,,76,127
101056,note_on,160,0,7,,,,,,,,,,7,,58,0
101056,note_on,160,0,6,,,,,,,,,,6,,58,0
101086,note_on,94,0,5,,,,,,,,,,4,,67,0
101086,note_on,46,0,3,,,,,,,,,,2,,76,0
101086,note_on,46,0,4,,,,,,,,,,5,,76,0
101088,note_on,2,0,4,,,,,,,,,,5,,77,127
101088,note_on,32,0,6,,,,,,,,,,6,,57,75
101088,note_on,2,0,3,,,,,,,,,,2,,77,127
101088,note_on,32,0,7,,,,,,,,,,7,,57,75
101088,note_on,2,0,5,,,,,,,,,,4,,60,60
101134,note_on,46,0,5,,,,,,,,,,4,,60,0
101134,note_on,46,0,4,,,,,,,,,,5,,77,0
101134,note_on,46,0,6,,,,,,,,,,6,,57,0
101134,note_on,46,0,3,,,,,,,,,,2,,77,0
101134,note_on,46,0,7,,,,,,,,,,7,,57,0
101136,note_on,2,0,7,,,,,,,,,,7,,53,75
101136,note_on,2,0,4,,,,,,,,,,5,,69,127
101136,note_on,2,0,6,,,,,,,,,,6,,53,75
101136,note_on,2,0,5,,,,,,,,,,4,,65,60
101136,note_on,2,0,3,,,,,,,,,,2,,69,127
101182,note_on,46,0,3,,,,,,,,,,2,,69,0
101182,note_on,46,0,5,,,,,,,,,,4,,65,0
101182,note_on,46,0,7,,,,,,,,,,7,,53,0
101182,note_on,46,0,4,,,,,,,,,,5,,69,0
101182,note_on,46,0,6,,,,,,,,,,6,,53,0
101184,note_on,2,0,7,,,,,,,,,,7,,58,75
101184,note_on,2,0,4,,,,,,,,,,5,,70,127
101184,note_on,2,0,3,,,,,,,,,,2,,70,127
101184,note_on,2,0,5,,,,,,,,,,4,,62,60
101184,note_on,2,0,6,,,,,,,,,,6,,58,75
101230,note_on,46,0,4,,,,,,,,,,5,,70,0
101230,note_on,46,0,3,,,,,,,,,,2,,70,0
101232,note_on,2,0,3,,,,,,,,,,2,,74,127
101232,note_on,2,0,4,,,,,,,,,,5,,74,127
101278,note_on,94,0,5,,,,,,,,,,4,,62,0
101278,note_on,46,0,4,,,,,,,,,,5,,74,0
101278,note_on,46,0,3,,,,,,,,,,2,,74,0
101280,note_on,2,0,3,,,,,,,,,,2,,72,127
101280,note_on,2,0,4,,,,,,,,,,5,,72,127
101280,note_on,2,0,5,,,,,,,,,,4,,67,60
101326,note_on,46,0,3,,,,,,,,,,2,,72,0
101326,note_on,46,0,4,,,,,,,,,,5,,72,0
101328,note_on,2,0,4,,,,,,,,,,5,,76,127
101328,note_on,2,0,3,,,,,,,,,,2,,76,127
101344,note_on,160,0,7,,,,,,,,,,7,,58,0
101344,note_on,160,0,6,,,,,,,,,,6,,58,0
101374,note_on,46,0,4,,,,,,,,,,5,,76,0
101374,note_on,94,0,5,,,,,,,,,,4,,67,0
101374,note_on,46,0,3,,,,,,,,,,2,,76,0
101376,note_on,32,0,7,,,,,,,,,,7,,57,75
101376,note_on,2,0,5,,,,,,,,,,4,,60,60
101376,note_on,2,0,4,,,,,,,,,,5,,77,127
101376,note_on,32,0,6,,,,,,,,,,6,,57,75
101376,note_on,2,0,3,,,,,,,,,,2,,77,127
101422,note_on,46,0,6,,,,,,,,,,6,,57,0
101422,note_on,46,0,7,,,,,,,,,,7,,57,0
101422,note_on,46,0,4,,,,,,,,,,5,,77,0
101422,note_on,46,0,3,,,,,,,,,,2,,77,0
101424,note_on,2,0,4,,,,,,,,,,5,,69,127
101424,note_on,2,0,7,,,,,,,,,,7,,53,75
101424,note_on,2,0,3,,,,,,,,,,2,,69,127
101424,note_on,2,0,6,,,,,,,,,,6,,53,75
101470,note_on,46,0,6,,,,,,,,,,6,,53,0
101470,note_on,46,0,3,,,,,,,,,,2,,69,0
101470,note_on,94,0,5,,,,,,,,,,4,,60,0
101470,note_on,46,0,7,,,,,,,,,,7,,53,0
101470,note_on,46,0,4,,,,,,,,,,5,,69,0
101472,note_on,2,0,6,,,,,,,,,,6,,60,75
101472,note_on,2,0,3,,,,,,,,,,2,,67,127
101472,note_on,2,0,5,,,,,,,,,,4,,64,60
101472,note_on,2,0,7,,,,,,,,,,7,,60,75
101472,note_on,2,0,4,,,,,,,,,,5,,67,127
101518,note_on,46,0,3,,,,,,,,,,2,,67,0
101518,note_on,46,0,4,,,,,,,,,,5,,67,0
101520,note_on,2,0,4,,,,,,,,,,5,,72,127
101520,note_on,2,0,3,,,,,,,,,,2,,72,127
101566,note_on,46,0,4,,,,,,,,,,5,,72,0
101566,note_on,46,0,3,,,,,,,,,,2,,72,0
101566,note_on,94,0,5,,,,,,,,,,4,,64,0
101566,note_on,94,0,7,,,,,,,,,,7,,60,0
101566,note_on,94,0,6,,,,,,,,,,6,,60,0
101568,note_on,2,0,6,,,,,,,,,,6,,48,75
101568,note_on,2,0,4,,,,,,,,,,5,,60,127
101568,note_on,2,0,5,,,,,,,,,,4,,55,60
101568,note_on,2,0,3,,,,,,,,,,2,,60,127
101568,note_on,2,0,7,,,,,,,,,,7,,48,75
101614,note_on,46,0,4,,,,,,,,,,5,,60,0
101614,note_on,46,0,3,,,,,,,,,,2,,60,0
101616,note_on,2,0,4,,,,,,,,,,5,,76,127
101616,note_on,2,0,3,,,,,,,,,,2,,76,127
101662,note_on,94,0,5,,,,,,,,,,4,,55,0
101662,note_on,46,0,3,,,,,,,,,,2,,76,0
101662,note_on,46,0,4,,,,,,,,,,5,,76,0
101662,note_on,94,0,6,,,,,,,,,,6,,48,0
101662,note_on,94,0,7,,,,,,,,,,7,,48,0
101664,note_on,2,0,3,,,,,,,,,,2,,77,60
101664,note_on,2,0,7,,,,,,,,,,7,,41,75
101664,note_on,2,0,5,,,,,,,,,,4,,57,60
101664,note_on,3938,0,1,,,,,,,,,,0,,77,127
101664,note_on,2,0,4,,,,,,,,,,5,,77,60
101664,note_on,2,0,6,,,,,,,,,,6,,41,75
101664,set_tempo,4032,1,0,769230,,,,,,,,,,,,
101710,note_on,46,0,1,,,,,,,,,,0,,77,0
101712,note_on,2,0,1,,,,,,,,,,0,,72,127
101734,note_on,22,0,1,,,,,,,,,,0,,72,0
101736,note_on,2,0,1,,,,,,,,,,0,,70,127
101758,note_on,94,0,3,,,,,,,,,,2,,77,0
101758,note_on,22,0,1,,,,,,,,,,0,,70,0
101758,note_on,94,0,4,,,,,,,,,,5,,77,0
101760,note_on,2,0,3,,,,,,,,,,2,,65,60
101760,note_on,2,0,4,,,,,,,,,,5,,65,60
101760,note_on,2,0,1,,,,,,,,,,0,,69,127
101806,note_on,46,0,1,,,,,,,,,,0,,69,0
101808,note_on,2,0,1,,,,,,,,,,0,,81,127
101824,note_on,160,0,7,,,,,,,,,,7,,41,0
101824,note_on,160,0,6,,,,,,,,,,6,,41,0
101824,note_on,160,0,5,,,,,,,,,,4,,57,0
101830,note_on,22,0,1,,,,,,,,,,0,,81,0
101832,note_on,2,0,1,,,,,,,,,,0,,79,127
101854,note_on,22,0,1,,,,,,,,,,0,,79,0
101854,note_on,94,0,4,,,,,,,,,,5,,65,0
101854,note_on,94,0,3,,,,,,,,,,2,,65,0
101856,note_on,2,0,4,,,,,,,,,,5,,69,60
101856,note_on,2,0,1,,,,,,,,,,0,,77,127
101856,note_on,2,0,3,,,,,,,,,,2,,69,60
101902,note_on,46,0,1,,,,,,,,,,0,,77,0
101904,note_on,2,0,1,,,,,,,,,,0,,69,127
101950,note_on,46,0,1,,,,,,,,,,0,,69,0
101950,note_on,94,0,3,,,,,,,,,,2,,69,0
101950,note_on,94,0,4,,,,,,,,,,5,,69,0
101952,note_on,2,0,1,,,,,,,,,,0,,70,127
101952,note_on,2,0,3,,,,,,,,,,2,,67,60
101952,note_on,2,0,4,,,,,,,,,,5,,67,60
101998,note_on,46,0,1,,,,,,,,,,0,,70,0
102000,note_on,2,0,1,,,,,,,,,,0,,74,127
102022,note_on,22,0,1,,,,,,,,,,0,,74,0
102024,note_on,2,0,1,,,,,,,,,,0,,72,127
102046,note_on,22,0,1,,,,,,,,,,0,,72,0
102046,note_on,94,0,4,,,,,,,,,,5,,67,0
102046,note_on,94,0,3,,,,,,,,,,2,,67,0
102048,note_on,2,0,4,,,,,,,,,,5,,64,60
102048,note_on,2,0,1,,,,,,,,,,0,,70,127
102048,note_on,2,0,3,,,,,,,,,,2,,64,60
102094,note_on,46,0,1,,,,,,,,,,0,,70,0
102096,note_on,2,0,1,,,,,,,,,,0,,79,127
102118,note_on,22,0,1,,,,,,,,,,0,,79,0
102120,note_on,2,0,1,,,,,,,,,,0,,77,127
102142,note_on,94,0,3,,,,,,,,,,2,,64,0
102142,note_on,94,0,4,,,,,,,,,,5,,64,0
102142,note_on,22,0,1,,,,,,,,,,0,,77,0
102144,note_on,2,0,3,,,,,,,,,,2,,60,60
102144,note_on,2,0,4,,,,,,,,,,5,,60,60
102144,note_on,2,0,1,,,,,,,,,,0,,76,127
102190,note_on,46,0,1,,,,,,,,,,0,,76,0
102192,note_on,2,0,1,,,,,,,,,,0,,70,127
102238,note_on,46,0,1,,,,,,,,,,0,,70,0
102238,note_on,94,0,3,,,,,,,,,,2,,60,0
102238,note_on,94,0,4,,,,,,,,,,5,,60,0
102240,note_on,2,0,4,,,,,,,,,,5,,65,60
102240,note_on,2,0,3,,,,,,,,,,2,,65,60
102240,note_on,2,0,1,,,,,,,,,,0,,69,127
102286,note_on,46,0,1,,,,,,,,,,0,,69,0
102288,note_on,2,0,1,,,,,,,,,,0,,65,127
102334,note_on,46,0,1,,,,,,,,,,0,,65,0
102336,note_on,2,0,1,,,,,,,,,,0,,69,127
102382,note_on,46,0,1,,,,,,,,,,0,,69,0
102384,note_on,2,0,1,,,,,,,,,,0,,72,127
102400,note_on,160,0,3,,,,,,,,,,2,,65,0
102400,note_on,160,0,4,,,,,,,,,,5,,65,0
102430,note_on,46,0,1,,,,,,,,,,0,,72,0
102432,note_on,2,0,1,,,,,,,,,,0,,77,127
102478,note_on,46,0,1,,,,,,,,,,0,,77,0
102480,note_on,2,0,1,,,,,,,,,,0,,72,127
102526,note_on,46,0,1,,,,,,,,,,0,,72,0
102528,note_on,4802,0,2,,,,,,,,,,1,,57,92
102528,note_on,128,0,3,,,,,,,,,,2,,65,60
102528,note_on,2,0,1,,,,,,,,,,0,,65,127
102528,note_on,128,0,4,,,,,,,,,,5,,65,60
102574,note_on,46,0,2,,,,,,,,,,1,,57,0
102576,note_on,2,0,2,,,,,,,,,,1,,60,92
102598,note_on,22,0,2,,,,,,,,,,1,,60,0
102600,note_on,2,0,2,,,,,,,,,,1,,58,92
102622,note_on,94,0,3,,,,,,,,,,2,,65,0
102622,note_on,22,0,2,,,,,,,,,,1,,58,0
102622,note_on,94,0,4,,,,,,,,,,5,,65,0
102624,note_on,2,0,4,,,,,,,,,,5,,65,60
102624,note_on,2,0,2,,,,,,,,,,1,,57,92
102624,note_on,2,0,3,,,,,,,,,,2,,65,60
102670,note_on,46,0,2,,,,,,,,,,1,,57,0
102672,note_on,2,0,2,,,,,,,,,,1,,69,92
102688,note_on,160,0,1,,,,,,,,,,0,,65,0
102694,note_on,22,0,2,,,,,,,,,,1,,69,0
102696,note_on,2,0,2,,,,,,,,,,1,,67,92
102718,note_on,94,0,4,,,,,,,,,,5,,65,0
102718,note_on,94,0,3,,,,,,,,,,2,,65,0
102718,note_on,22,0,2,,,,,,,,,,1,,67,0
102720,note_on,2,0,3,,,,,,,,,,2,,69,60
102720,note_on,2,0,2,,,,,,,,,,1,,65,92
102720,note_on,2,0,4,,,,,,,,,,5,,69,60
102766,note_on,46,0,2,,,,,,,,,,1,,65,0
102768,note_on,2,0,2,,,,,,,,,,1,,57,92
102814,note_on,94,0,4,,,,,,,,,,5,,69,0
102814,note_on,46,0,2,,,,,,,,,,1,,57,0
102814,note_on,94,0,3,,,,,,,,,,2,,69,0
102816,note_on,2,0,2,,,,,,,,,,1,,58,92
102816,note_on,2,0,4,,,,,,,,,,5,,67,60
102816,note_on,2,0,3,,,,,,,,,,2,,67,60
102862,note_on,46,0,2,,,,,,,,,,1,,58,0
102864,note_on,2,0,2,,,,,,,,,,1,,62,92
102886,note_on,22,0,2,,,,,,,,,,1,,62,0
102888,note_on,2,0,2,,,,,,,,,,1,,60,92
102910,note_on,22,0,2,,,,,,,,,,1,,60,0
102910,note_on,94,0,3,,,,,,,,,,2,,67,0
102910,note_on,94,0,4,,,,,,,,,,5,,67,0
102912,note_on,2,0,3,,,,,,,,,,2,,64,60
102912,note_on,2,0,4,,,,,,,,,,5,,64,60
102912,note_on,2,0,2,,,,,,,,,,1,,58,92
102958,note_on,46,0,2,,,,,,,,,,1,,58,0
102960,note_on,2,0,2,,,,,,,,,,1,,67,92
102982,note_on,22,0,2,,,,,,,,,,1,,67,0
102984,note_on,2,0,2,,,,,,,,,,1,,65,92
103006,note_on,22,0,2,,,,,,,,,,1,,65,0
103006,note_on,94,0,4,,,,,,,,,,5,,64,0
103006,note_on,94,0,3,,,,,,,,,,2,,64,0
103008,note_on,2,0,2,,,,,,,,,,1,,64,92
103008,note_on,2,0,4,,,,,,,,,,5,,60,60
103008,note_on,2,0,3,,,,,,,,,,2,,60,60
103054,note_on,46,0,2,,,,,,,,,,1,,64,0
103056,note_on,2,0,2,,,,,,,,,,1,,58,92
103102,note_on,94,0,4,,,,,,,,,,5,,60,0
103102,note_on,94,0,3,,,,,,,,,,2,,60,0
103102,note_on,46,0,2,,,,,,,,,,1,,58,0
103104,note_on,2,0,2,,,,,,,,,,1,,57,92
103150,note_on,46,0,2,,,,,,,,,,1,,57,0
103152,note_on,2,0,2,,,,,,,,,,1,,53,92
103198,note_on,46,0,2,,,,,,,,,,1,,53,0
103200,note_on,2,0,2,,,,,,,,,,1,,57,92
103246,note_on,46,0,2,,,,,,,,,,1,,57,0
103248,note_on,2,0,2,,,,,,,,,,1,,60,92
103294,note_on,46,0,2,,,,,,,,,,1,,60,0
103296,note_on,2,0,2,,,,,,,,,,1,,65,92
103342,note_on,46,0,2,,,,,,,,,,1,,65,0
103344,note_on,2,0,2,,,,,,,,,,1,,60,92
103390,note_on,46,0,2,,,,,,,,,,1,,60,0
103392,note_on,290,0,4,,,,,,,,,,5,,65,60
103392,note_on,704,0,1,,,,,,,,,,0,,69,127
103392,note_on,2,0,2,,,,,,,,,,1,,53,92
103392,note_on,290,0,3,,,,,,,,,,2,,65,60
103438,note_on,46,0,1,,,,,,,,,,0,,69,0
103440,note_on,2,0,1,,,,,,,,,,0,,72,127
103462,note_on,22,0,1,,,,,,,,,,0,,72,0
103464,note_on,2,0,1,,,,,,,,,,0,,70,127
103486,note_on,94,0,4,,,,,,,,,,5,,65,0
103486,note_on,22,0,1,,,,,,,,,,0,,70,0
103486,note_on,94,0,3,,,,,,,,,,2,,65,0
103488,note_on,2,0,1,,,,,,,,,,0,,69,127
103488,note_on,2,0,3,,,,,,,,,,2,,66,60
103488,note_on,2,0,4,,,,,,,,,,5,,66,60
103534,note_on,46,0,1,,,,,,,,,,0,,69,0
103536,note_on,2,0,1,,,,,,,,,,0,,75,127
103552,note_on,160,0,2,,,,,,,,,,1,,53,0
103558,note_on,22,0,1,,,,,,,,,,0,,75,0
103560,note_on,2,0,1,,,,,,,,,,0,,74,127
103582,note_on,22,0,1,,,,,,,,,,0,,74,0
103584,note_on,2,0,1,,,,,,,,,,0,,72,127
103630,note_on,46,0,1,,,,,,,,,,0,,72,0
103632,note_on,2,0,1,,,,,,,,,,0,,70,127
103648,note_on,160,0,4,,,,,,,,,,5,,66,0
103648,note_on,160,0,3,,,,,,,,,,2,,66,0
103654,note_on,22,0,1,,,,,,,,,,0,,70,0
103656,note_on,2,0,1,,,,,,,,,,0,,69,127
103678,note_on,22,0,1,,,,,,,,,,0,,69,0
103680,note_on,2,0,1,,,,,,,,,,0,,70,127
103680,note_on,32,0,4,,,,,,,,,,5,,67,60
103680,note_on,32,0,3,,,,,,,,,,2,,67,60
103726,note_on,46,0,1,,,,,,,,,,0,,70,0
103728,note_on,2,0,1,,,,,,,,,,0,,67,127
103774,note_on,46,0,1,,,,,,,,,,0,,67,0
103774,note_on,94,0,3,,,,,,,,,,2,,67,0
103774,note_on,94,0,4,,,,,,,,,,5,,67,0
103776,note_on,2,0,1,,,,,,,,,,0,,70,127
103776,note_on,2,0,3,,,,,,,,,,2,,55,60
103776,note_on,2,0,4,,,,,,,,,,5,,55,60
103822,note_on,46,0,1,,,,,,,,,,0,,70,0
103824,note_on,2,0,1,,,,,,,,,,0,,74,127
103870,note_on,94,0,4,,,,,,,,,,5,,55,0
103870,note_on,46,0,1,,,,,,,,,,0,,74,0
103870,note_on,94,0,3,,,,,,,,,,2,,55,0
103872,note_on,2,0,1,,,,,,,,,,0,,79,127
103872,note_on,2,0,4,,,,,,,,,,5,,55,60
103872,note_on,2,0,3,,,,,,,,,,2,,55,60
103966,note_on,94,0,3,,,,,,,,,,2,,55,0
103966,note_on,94,0,1,,,,,,,,,,0,,79,0
103966,note_on,94,0,4,,,,,,,,,,5,,55,0
103968,note_on,2,0,3,,,,,,,,,,2,,66,60
103968,note_on,416,0,2,,,,,,,,,,1,,57,92
103968,note_on,2,0,4,,,,,,,,,,5,,66,60
104014,note_on,46,0,2,,,,,,,,,,1,,57,0
104016,note_on,2,0,2,,,,,,,,,,1,,60,92
104038,note_on,22,0,2,,,,,,,,,,1,,60,0
104040,note_on,2,0,2,,,,,,,,,,1,,58,92
104062,note_on,94,0,3,,,,,,,,,,2,,66,0
104062,note_on,94,0,4,,,,,,,,,,5,,66,0
104062,note_on,22,0,2,,,,,,,,,,1,,58,0
104064,note_on,2,0,3,,,,,,,,,,2,,66,60
104064,note_on,2,0,4,,,,,,,,,,5,,66,60
104064,note_on,2,0,2,,,,,,,,,,1,,57,92
104110,note_on,46,0,2,,,,,,,,,,1,,57,0
104112,note_on,2,0,2,,,,,,,,,,1,,63,92
104134,note_on,22,0,2,,,,,,,,,,1,,63,0
104136,note_on,2,0,2,,,,,,,,,,1,,62,92
104158,note_on,22,0,2,,,,,,,,,,1,,62,0
104160,note_on,2,0,2,,,,,,,,,,1,,60,92
104206,note_on,46,0,2,,,,,,,,,,1,,60,0
104208,note_on,2,0,2,,,,,,,,,,1,,58,92
104224,note_on,160,0,3,,,,,,,,,,2,,66,0
104224,note_on,160,0,4,,,,,,,,,,5,,66,0
104230,note_on,22,0,2,,,,,,,,,,1,,58,0
104232,note_on,2,0,2,,,,,,,,,,1,,57,92
104254,note_on,22,0,2,,,,,,,,,,1,,57,0
104256,note_on,32,0,4,,,,,,,,,,5,,67,60
104256,note_on,290,0,1,,,,,,,,,,0,,62,127
104256,note_on,0,0,1,,,,,,,,,,0,,67,127
104256,note_on,32,0,3,,,,,,,,,,2,,67,60
104256,note_on,2,0,2,,,,,,,,,,1,,58,75
104302,note_on,46,0,2,,,,,,,,,,1,,58,0
104304,note_on,2,0,2,,,,,,,,,,1,,55,75
104326,note_on,0,0,1,,,,,,,,,,0,,67,0
104326,note_on,70,0,1,,,,,,,,,,0,,62,0
104328,note_on,0,0,1,,,,,,,,,,0,,67,127
104328,note_on,2,0,1,,,,,,,,,,0,,62,127
104350,note_on,94,0,3,,,,,,,,,,2,,67,0
104350,note_on,0,0,1,,,,,,,,,,0,,67,0
104350,note_on,22,0,1,,,,,,,,,,0,,62,0
104350,note_on,46,0,2,,,,,,,,,,1,,55,0
104350,note_on,94,0,4,,,,,,,,,,5,,67,0
104352,note_on,2,0,2,,,,,,,,,,1,,58,75
104352,note_on,0,0,1,,,,,,,,,,0,,67,127
104352,note_on,2,0,3,,,,,,,,,,2,,55,60
104352,note_on,2,0,4,,,,,,,,,,5,,55,60
104352,note_on,2,0,1,,,,,,,,,,0,,62,127
104398,note_on,46,0,2,,,,,,,,,,1,,58,0
104400,note_on,2,0,2,,,,,,,,,,1,,62,75
104422,note_on,70,0,1,,,,,,,,,,0,,62,0
104422,note_on,0,0,1,,,,,,,,,,0,,67,0
104424,note_on,2,0,1,,,,,,,,,,0,,62,127
104424,note_on,0,0,1,,,,,,,,,,0,,67,127
104446,note_on,94,0,4,,,,,,,,,,5,,55,0
104446,note_on,22,0,1,,,,,,,,,,0,,62,0
104446,note_on,0,0,1,,,,,,,,,,0,,67,0
104446,note_on,94,0,3,,,,,,,,,,2,,55,0
104446,note_on,46,0,2,,,,,,,,,,1,,62,0
104448,note_on,2,0,3,,,,,,,,,,2,,55,60
104448,note_on,2,0,4,,,,,,,,,,5,,55,60
104448,note_on,2,0,1,,,,,,,,,,0,,62,127
104448,note_on,2,0,2,,,,,,,,,,1,,67,75
104448,note_on,0,0,1,,,,,,,,,,0,,69,127
104518,note_on,70,0,1,,,,,,,,,,0,,62,0
104518,note_on,0,0,1,,,,,,,,,,0,,69,0
104520,note_on,2,0,1,,,,,,,,,,0,,62,127
104520,note_on,0,0,1,,,,,,,,,,0,,67,127
104542,note_on,94,0,4,,,,,,,,,,5,,55,0
104542,note_on,22,0,1,,,,,,,,,,0,,62,0
104542,note_on,0,0,1,,,,,,,,,,0,,67,0
104542,note_on,94,0,2,,,,,,,,,,1,,67,0
104542,note_on,94,0,3,,,,,,,,,,2,,55,0
104544,note_on,2,0,4,,,,,,,,,,5,,62,60
104544,note_on,2,0,3,,,,,,,,,,2,,62,60
104544,note_on,0,0,1,,,,,,,,,,0,,66,127
104544,note_on,2,0,1,,,,,,,,,,0,,62,127
104614,note_on,70,0,1,,,,,,,,,,0,,62,0
104614,note_on,0,0,1,,,,,,,,,,0,,66,0
104616,note_on,2,0,1,,,,,,,,,,0,,62,127
104616,note_on,0,0,1,,,,,,,,,,0,,66,127
104638,note_on,0,0,1,,,,,,,,,,0,,66,0
104638,note_on,22,0,1,,,,,,,,,,0,,62,0
104638,note_on,94,0,4,,,,,,,,,,5,,62,0
104638,note_on,94,0,3,,,,,,,,,,2,,62,0
104640,note_on,2,0,4,,,,,,,,,,5,,66,60
104640,note_on,0,0,1,,,,,,,,,,0,,66,127
104640,note_on,2,0,1,,,,,,,,,,0,,62,127
104640,note_on,2,0,3,,,,,,,,,,2,,66,60
104710,note_on,0,0,1,,,,,,,,,,0,,66,0
104710,note_on,70,0,1,,,,,,,,,,0,,62,0
104712,note_on,0,0,1,,,,,,,,,,0,,66,127
104712,note_on,2,0,1,,,,,,,,,,0,,62,127
104734,note_on,0,0,1,,,,,,,,,,0,,66,0
104734,note_on,22,0,1,,,,,,,,,,0,,62,0
104734,note_on,94,0,4,,,,,,,,,,5,,66,0
104734,note_on,94,0,3,,,,,,,,,,2,,66,0
104736,note_on,2,0,4,,,,,,,,,,5,,62,60
104736,note_on,2,0,3,,,,,,,,,,2,,62,60
104736,note_on,0,0,1,,,,,,,,,,0,,67,127
104736,note_on,2,0,1,,,,,,,,,,0,,62,127
104806,note_on,70,0,1,,,,,,,,,,0,,62,0
104806,note_on,0,0,1,,,,,,,,,,0,,67,0
104808,note_on,0,0,1,,,,,,,,,,0,,69,127
104808,note_on,2,0,1,,,,,,,,,,0,,62,127
104830,note_on,94,0,4,,,,,,,,,,5,,62,0
104830,note_on,22,0,1,,,,,,,,,,0,,62,0
104830,note_on,0,0,1,,,,,,,,,,0,,69,0
104830,note_on,94,0,3,,,,,,,,,,2,,62,0
104832,note_on,0,0,1,,,,,,,,,,0,,70,127
104832,note_on,2,0,3,,,,,,,,,,2,,67,60
104832,note_on,2,0,1,,,,,,,,,,0,,62,127
104832,note_on,0,0,2,,,,,,,,,,1,,67,127
104832,note_on,290,0,2,,,,,,,,,,1,,62,127
104832,note_on,2,0,4,,,,,,,,,,5,,67,60
104902,note_on,0,0,2,,,,,,,,,,1,,67,0
104902,note_on,70,0,2,,,,,,,,,,1,,62,0
104904,note_on,2,0,2,,,,,,,,,,1,,62,127
104904,note_on,0,0,2,,,,,,,,,,1,,67,127
104926,note_on,94,0,1,,,,,,,,,,0,,62,0
104926,note_on,22,0,2,,,,,,,,,,1,,62,0
104926,note_on,0,0,2,,,,,,,,,,1,,67,0
104926,note_on,0,0,1,,,,,,,,,,0,,70,0
104926,note_on,94,0,3,,,,,,,,,,2,,67,0
104926,note_on,94,0,4,,,,,,,,,,5,,67,0
104928,note_on,2,0,1,,,,,,,,,,0,,62,127
104928,note_on,0,0,1,,,,,,,,,,0,,69,127
104928,note_on,2,0,3,,,,,,,,,,2,,55,60
104928,note_on,2,0,2,,,,,,,,,,1,,62,127
104928,note_on,2,0,4,,,,,,,,,,5,,55,60
104928,note_on,0,0,2,,,,,,,,,,1,,67,127
104998,note_on,0,0,2,,,,,,,,,,1,,67,0
104998,note_on,70,0,2,,,,,,,,,,1,,62,0
105000,note_on,2,0,2,,,,,,,,,,1,,62,127
105000,note_on,0,0,2,,,,,,,,,,1,,67,127
105022,note_on,94,0,4,,,,,,,,,,5,,55,0
105022,note_on,0,0,1,,,,,,,,,,0,,69,0
105022,note_on,94,0,3,,,,,,,,,,2,,55,0
105022,note_on,94,0,1,,,,,,,,,,0,,62,0
105022,note_on,0,0,2,,,,,,,,,,1,,67,0
105022,note_on,22,0,2,,,,,,,,,,1,,62,0
105024,note_on,2,0,3,,,,,,,,,,2,,55,60
105024,note_on,0,0,2,,,,,,,,,,1,,69,127
105024,note_on,2,0,4,,,,,,,,,,5,,55,60
105024,note_on,2,0,2,,,,,,,,,,1,,62,127
105094,note_on,0,0,2,,,,,,,,,,1,,69,0
105094,note_on,70,0,2,,,,,,,,,,1,,62,0
105096,note_on,0,0,2,,,,,,,,,,1,,67,127
105096,note_on,2,0,2,,,,,,,,,,1,,62,127
105118,note_on,94,0,4,,,,,,,,,,5,,55,0
105118,note_on,0,0,2,,,,,,,,,,1,,67,0
105118,note_on,22,0,2,,,,,,,,,,1,,62,0
105118,note_on,94,0,3,,,,,,,,,,2,,55,0
105120,note_on,0,0,2,,,,,,,,,,1,,66,127
105120,note_on,2,0,2,,,,,,,,,,1,,62,127
105120,note_on,2,0,3,,,,,,,,,,2,,62,60
105120,note_on,2,0,4,,,,,,,,,,5,,62,60
105190,note_on,0,0,2,,,,,,,,,,1,,66,0
105190,note_on,70,0,2,,,,,,,,,,1,,62,0
105192,note_on,2,0,2,,,,,,,,,,1,,62,127
105192,note_on,0,0,2,,,,,,,,,,1,,66,127
105214,note_on,94,0,4,,,,,,,,,,5,,62,0
105214,note_on,94,0,3,,,,,,,,,,2,,62,0
105214,note_on,22,0,2,,,,,,,,,,1,,62,0
105214,note_on,0,0,2,,,,,,,,,,1,,66,0
105216,note_on,2,0,4,,,,,,,,,,5,,66,60
105216,note_on,0,0,2,,,,,,,,,,1,,66,127
105216,note_on,2,0,2,,,,,,,,,,1,,62,127
105216,note_on,2,0,3,,,,,,,,,,2,,66,60
105286,note_on,0,0,2,,,,,,,,,,1,,66,0
105286,note_on,70,0,2,,,,,,,,,,1,,62,0
105288,note_on,2,0,2,,,,,,,,,,1,,62,127
105288,note_on,0,0,2,,,,,,,,,,1,,66,127
105310,note_on,94,0,3,,,,,,,,,,2,,66,0
105310,note_on,0,0,2,,,,,,,,,,1,,66,0
105310,note_on,22,0,2,,,,,,,,,,1,,62,0
105310,note_on,94,0,4,,,,,,,,,,5,,66,0
105312,note_on,2,0,3,,,,,,,,,,2,,62,60
105312,note_on,0,0,2,,,,,,,,,,1,,67,127
105312,note_on,2,0,2,,,,,,,,,,1,,62,127
105312,note_on,2,0,4,,,,,,,,,,5,,62,60
105382,note_on,70,0,2,,,,,,,,,,1,,62,0
105382,note_on,0,0,2,,,,,,,,,,1,,67,0
105384,note_on,2,0,2,,,,,,,,,,1,,62,127
105384,note_on,0,0,2,,,,,,,,,,1,,69,127
105406,note_on,94,0,4,,,,,,,,,,5,,62,0
105406,note_on,0,0,2,,,,,,,,,,1,,69,0
105406,note_on,94,0,3,,,,,,,,,,2,,62,0
105406,note_on,22,0,2,,,,,,,,,,1,,62,0
105408,note_on,2,0,4,,,,,,,,,,5,,67,60
105408,note_on,2,0,3,,,,,,,,,,2,,67,60
105408,note_on,0,0,2,,,,,,,,,,1,,70,127
105408,note_on,2,0,2,,,,,,,,,,1,,62,127
105408,note_on,386,0,1,,,,,,,,,,0,,70,127
105454,note_on,46,0,1,,,,,,,,,,0,,70,0
105456,note_on,2,0,1,,,,,,,,,,0,,74,127
105502,note_on,0,0,2,,,,,,,,,,1,,70,0
105502,note_on,94,0,2,,,,,,,,,,1,,62,0
105502,note_on,46,0,1,,,,,,,,,,0,,74,0
105502,note_on,94,0,4,,,,,,,,,,5,,67,0
105502,note_on,94,0,3,,,,,,,,,,2,,67,0
105504,note_on,2,0,1,,,,,,,,,,0,,79,127
105504,note_on,2,0,4,,,,,,,,,,5,,58,60
105504,note_on,2,0,2,,,,,,,,,,1,,62,127
105504,note_on,0,0,2,,,,,,,,,,1,,67,127
105504,note_on,2,0,3,,,,,,,,,,2,,58,60
105526,note_on,22,0,1,,,,,,,,,,0,,79,0
105528,note_on,2,0,1,,,,,,,,,,0,,77,127
105550,note_on,22,0,1,,,,,,,,,,0,,77,0
105552,note_on,2,0,1,,,,,,,,,,0,,75,127
105574,note_on,22,0,1,,,,,,,,,,0,,75,0
105576,note_on,2,0,1,,,,,,,,,,0,,74,127
105598,note_on,94,0,2,,,,,,,,,,1,,62,0
105598,note_on,94,0,4,,,,,,,,,,5,,58,0
105598,note_on,94,0,3,,,,,,,,,,2,,58,0
105598,note_on,0,0,2,,,,,,,,,,1,,67,0
105598,note_on,22,0,1,,,,,,,,,,0,,74,0
105600,note_on,2,0,3,,,,,,,,,,2,,55,60
105600,note_on,2,0,1,,,,,,,,,,0,,79,127
105600,note_on,2,0,4,,,,,,,,,,5,,55,60
105622,note_on,22,0,1,,,,,,,,,,0,,79,0
105624,note_on,2,0,1,,,,,,,,,,0,,77,127
105646,note_on,22,0,1,,,,,,,,,,0,,77,0
105648,note_on,2,0,1,,,,,,,,,,0,,75,127
105670,note_on,22,0,1,,,,,,,,,,0,,75,0
105672,note_on,2,0,1,,,,,,,,,,0,,74,127
105694,note_on,94,0,3,,,,,,,,,,2,,55,0
105694,note_on,22,0,1,,,,,,,,,,0,,74,0
105694,note_on,94,0,4,,,,,,,,,,5,,55,0
105696,note_on,2,0,1,,,,,,,,,,0,,75,127
105696,note_on,2,0,4,,,,,,,,,,5,,60,60
105696,note_on,2,0,3,,,,,,,,,,2,,60,60
105742,note_on,46,0,1,,,,,,,,,,0,,75,0
105744,note_on,2,0,1,,,,,,,,,,0,,72,127
105790,note_on,94,0,4,,,,,,,,,,5,,60,0
105790,note_on,46,0,1,,,,,,,,,,0,,72,0
105790,note_on,94,0,3,,,,,,,,,,2,,60,0
105792,note_on,2,0,4,,,,,,,,,,5,,72,60
105792,note_on,2,0,1,,,,,,,,,,0,,75,127
105792,note_on,2,0,3,,,,,,,,,,2,,72,60
105838,note_on,46,0,1,,,,,,,,,,0,,75,0
105840,note_on,2,0,1,,,,,,,,,,0,,79,127
105886,note_on,46,0,1,,,,,,,,,,0,,79,0
105888,note_on,2,0,1,,,,,,,,,,0,,75,127
105934,note_on,46,0,1,,,,,,,,,,0,,75,0
105936,note_on,2,0,1,,,,,,,,,,0,,72,127
105952,note_on,160,0,3,,,,,,,,,,2,,72,0
105952,note_on,160,0,4,,,,,,,,,,5,,72,0
105982,note_on,46,0,1,,,,,,,,,,0,,72,0
105984,note_on,2,0,1,,,,,,,,,,0,,78,127
105984,note_on,32,0,4,,,,,,,,,,5,,74,60
105984,note_on,32,0,3,,,,,,,,,,2,,74,60
106030,note_on,46,0,1,,,,,,,,,,0,,78,0
106032,note_on,2,0,1,,,,,,,,,,0,,81,127
106054,note_on,22,0,1,,,,,,,,,,0,,81,0
106056,note_on,2,0,1,,,,,,,,,,0,,79,127
106078,note_on,22,0,1,,,,,,,,,,0,,79,0
106078,note_on,94,0,3,,,,,,,,,,2,,74,0
106078,note_on,94,0,4,,,,,,,,,,5,,74,0
106080,note_on,2,0,1,,,,,,,,,,0,,78,127
106080,note_on,2,0,3,,,,,,,,,,2,,62,60
106080,note_on,2,0,4,,,,,,,,,,5,,62,60
106126,note_on,46,0,1,,,,,,,,,,0,,78,0
106128,note_on,2,0,1,,,,,,,,,,0,,76,127
106150,note_on,22,0,1,,,,,,,,,,0,,76,0
106152,note_on,2,0,1,,,,,,,,,,0,,74,127
106174,note_on,94,0,3,,,,,,,,,,2,,62,0
106174,note_on,94,0,4,,,,,,,,,,5,,62,0
106174,note_on,22,0,1,,,,,,,,,,0,,74,0
106176,note_on,2,0,3,,,,,,,,,,2,,66,60
106176,note_on,2,0,4,,,,,,,,,,5,,66,60
106176,note_on,2,0,1,,,,,,,,,,0,,72,127
106222,note_on,46,0,1,,,,,,,,,,0,,72,0
106224,note_on,2,0,1,,,,,,,,,,0,,70,127
106246,note_on,22,0,1,,,,,,,,,,0,,70,0
106248,note_on,2,0,1,,,,,,,,,,0,,69,127
106270,note_on,22,0,1,,,,,,,,,,0,,69,0
106270,note_on,94,0,3,,,,,,,,,,2,,66,0
106270,note_on,94,0,4,,,,,,,,,,5,,66,0
106272,note_on,2,0,1,,,,,,,,,,0,,70,127
106272,note_on,2,0,3,,,,,,,,,,2,,67,60
106272,note_on,2,0,4,,,,,,,,,,5,,67,60
106318,note_on,46,0,1,,,,,,,,,,0,,70,0
106320,note_on,2,0,1,,,,,,,,,,0,,74,127
106366,note_on,46,0,1,,,,,,,,,,0,,74,0
106366,note_on,94,0,3,,,,,,,,,,2,,67,0
106366,note_on,94,0,4,,,,,,,,,,5,,67,0
106368,note_on,2,0,1,,,,,,,,,,0,,79,127
106368,note_on,2,0,3,,,,,,,,,,2,,60,60
106368,note_on,2,0,4,,,,,,,,,,5,,60,60
106414,note_on,46,0,1,,,,,,,,,,0,,79,0
106416,note_on,2,0,1,,,,,,,,,,0,,70,127
106462,note_on,94,0,4,,,,,,,,,,5,,60,0
106462,note_on,46,0,1,,,,,,,,,,0,,70,0
106462,note_on,94,0,3,,,,,,,,,,2,,60,0
106464,note_on,2,0,1,,,,,,,,,,0,,69,127
106464,note_on,2,0,3,,,,,,,,,,2,,62,60
106464,note_on,2,0,4,,,,,,,,,,5,,62,60
106510,note_on,46,0,1,,,,,,,,,,0,,69,0
106512,note_on,2,0,1,,,,,,,,,,0,,78,127
106558,note_on,94,0,3,,,,,,,,,,2,,62,0
106558,note_on,94,0,4,,,,,,,,,,5,,62,0
106558,note_on,46,0,1,,,,,,,,,,0,,78,0
106560,note_on,2,0,1,,,,,,,,,,0,,79,127
106560,note_on,2,0,3,,,,,,,,,,2,,55,60
106560,note_on,962,0,2,,,,,,,,,,1,,58,127
106560,note_on,2,0,4,,,,,,,,,,5,,55,60
106606,note_on,46,0,2,,,,,,,,,,1,,58,0
106608,note_on,2,0,2,,,,,,,,,,1,,62,127
106654,note_on,94,0,3,,,,,,,,,,2,,55,0
106654,note_on,94,0,4,,,,,,,,,,5,,55,0
106654,note_on,46,0,2,,,,,,,,,,1,,62,0
106656,note_on,2,0,4,,,,,,,,,,5,,58,60
106656,note_on,2,0,3,,,,,,,,,,2,,58,60
106656,note_on,2,0,2,,,,,,,,,,1,,67,127
106678,note_on,22,0,2,,,,,,,,,,1,,67,0
106680,note_on,2,0,2,,,,,,,,,,1,,65,127
106702,note_on,22,0,2,,,,,,,,,,1,,65,0
106704,note_on,2,0,2,,,,,,,,,,1,,63,127
106720,note_on,160,0,1,,,,,,,,,,0,,79,0
106726,note_on,22,0,2,,,,,,,,,,1,,63,0
106728,note_on,2,0,2,,,,,,,,,,1,,62,127
106750,note_on,22,0,2,,,,,,,,,,1,,62,0
106750,note_on,94,0,4,,,,,,,,,,5,,58,0
106750,note_on,94,0,3,,,,,,,,,,2,,58,0
106752,note_on,2,0,2,,,,,,,,,,1,,67,127
106752,note_on,2,0,4,,,,,,,,,,5,,55,60
106752,note_on,2,0,3,,,,,,,,,,2,,55,60
106774,note_on,22,0,2,,,,,,,,,,1,,67,0
106776,note_on,2,0,2,,,,,,,,,,1,,65,127
106798,note_on,22,0,2,,,,,,,,,,1,,65,0
106800,note_on,2,0,2,,,,,,,,,,1,,63,127
106822,note_on,22,0,2,,,,,,,,,,1,,63,0
106824,note_on,2,0,2,,,,,,,,,,1,,62,127
106846,note_on,94,0,3,,,,,,,,,,2,,55,0
106846,note_on,22,0,2,,,,,,,,,,1,,62,0
106846,note_on,94,0,4,,,,,,,,,,5,,55,0
106848,note_on,2,0,4,,,,,,,,,,5,,60,60
106848,note_on,2,0,3,,,,,,,,,,2,,60,60
106848,note_on,2,0,2,,,,,,,,,,1,,63,127
106894,note_on,46,0,2,,,,,,,,,,1,,63,0
106896,note_on,2,0,2,,,,,,,,,,1,,60,127
106942,note_on,46,0,2,,,,,,,,,,1,,60,0
106944,note_on,2,0,2,,,,,,,,,,1,,63,127
106990,note_on,46,0,2,,,,,,,,,,1,,63,0
106992,note_on,2,0,2,,,,,,,,,,1,,67,127
107008,note_on,160,0,4,,,,,,,,,,5,,60,0
107008,note_on,160,0,3,,,,,,,,,,2,,60,0
107038,note_on,46,0,2,,,,,,,,,,1,,67,0
107040,note_on,32,0,4,,,,,,,,,,5,,72,60
107040,note_on,32,0,3,,,,,,,,,,2,,72,60
107040,note_on,2,0,2,,,,,,,,,,1,,63,127
107086,note_on,46,0,2,,,,,,,,,,1,,63,0
107088,note_on,2,0,2,,,,,,,,,,1,,60,127
107134,note_on,94,0,3,,,,,,,,,,2,,72,0
107134,note_on,46,0,2,,,,,,,,,,1,,60,0
107134,note_on,94,0,4,,,,,,,,,,5,,72,0
107136,note_on,2,0,4,,,,,,,,,,5,,74,60
107136,note_on,2,0,3,,,,,,,,,,2,,74,60
107136,note_on,2,0,2,,,,,,,,,,1,,66,127
107182,note_on,46,0,2,,,,,,,,,,1,,66,0
107184,note_on,2,0,2,,,,,,,,,,1,,69,127
107206,note_on,22,0,2,,,,,,,,,,1,,69,0
107208,note_on,2,0,2,,,,,,,,,,1,,67,127
107230,note_on,22,0,2,,,,,,,,,,1,,67,0
107230,note_on,94,0,4,,,,,,,,,,5,,74,0
107230,note_on,94,0,3,,,,,,,,,,2,,74,0
107232,note_on,2,0,2,,,,,,,,,,1,,66,127
107232,note_on,2,0,4,,,,,,,,,,5,,62,60
107232,note_on,2,0,3,,,,,,,,,,2,,62,60
107278,note_on,46,0,2,,,,,,,,,,1,,66,0
107280,note_on,2,0,2,,,,,,,,,,1,,64,127
107302,note_on,22,0,2,,,,,,,,,,1,,64,0
107304,note_on,2,0,2,,,,,,,,,,1,,62,127
107326,note_on,94,0,3,,,,,,,,,,2,,62,0
107326,note_on,22,0,2,,,,,,,,,,1,,62,0
107326,note_on,94,0,4,,,,,,,,,,5,,62,0
107328,note_on,2,0,3,,,,,,,,,,2,,66,60
107328,note_on,2,0,2,,,,,,,,,,1,,60,127
107328,note_on,2,0,4,,,,,,,,,,5,,66,60
107374,note_on,46,0,2,,,,,,,,,,1,,60,0
107376,note_on,2,0,2,,,,,,,,,,1,,58,127
107398,note_on,22,0,2,,,,,,,,,,1,,58,0
107400,note_on,2,0,2,,,,,,,,,,1,,57,127
107422,note_on,94,0,3,,,,,,,,,,2,,66,0
107422,note_on,94,0,4,,,,,,,,,,5,,66,0
107422,note_on,22,0,2,,,,,,,,,,1,,57,0
107424,note_on,2,0,4,,,,,,,,,,5,,67,60
107424,note_on,2,0,2,,,,,,,,,,1,,58,127
107424,note_on,2,0,3,,,,,,,,,,2,,67,60
107470,note_on,46,0,2,,,,,,,,,,1,,58,0
107472,note_on,2,0,2,,,,,,,,,,1,,62,127
107518,note_on,46,0,2,,,,,,,,,,1,,62,0
107518,note_on,94,0,3,,,,,,,,,,2,,67,0
107518,note_on,94,0,4,,,,,,,,,,5,,67,0
107520,note_on,2,0,2,,,,,,,,,,1,,67,127
107520,note_on,2,0,4,,,,,,,,,,5,,60,60
107520,note_on,2,0,3,,,,,,,,,,2,,60,60
107566,note_on,46,0,2,,,,,,,,,,1,,67,0
107568,note_on,2,0,2,,,,,,,,,,1,,58,127
107614,note_on,94,0,3,,,,,,,,,,2,,60,0
107614,note_on,94,0,4,,,,,,,,,,5,,60,0
107614,note_on,46,0,2,,,,,,,,,,1,,58,0
107616,note_on,2,0,2,,,,,,,,,,1,,57,127
107616,note_on,2,0,3,,,,,,,,,,2,,62,60
107616,note_on,2,0,4,,,,,,,,,,5,,62,60
107662,note_on,46,0,2,,,,,,,,,,1,,57,0
107664,note_on,2,0,2,,,,,,,,,,1,,66,127
107710,note_on,46,0,2,,,,,,,,,,1,,66,0
107710,note_on,94,0,3,,,,,,,,,,2,,62,0
107710,note_on,94,0,4,,,,,,,,,,5,,62,0
107712,note_on,2,0,4,,,,,,,,,,5,,79,127
107712,note_on,2,0,2,,,,,,,,,,1,,67,127
107712,note_on,5888,0,6,,,,,,,,,,6,,43,75
107712,note_on,5888,0,7,,,,,,,,,,7,,43,75
107712,note_on,2,0,3,,,,,,,,,,2,,79,127
107712,note_on,5888,0,5,,,,,,,,,,4,,62,60
107806,note_on,94,0,3,,,,,,,,,,2,,79,0
107806,note_on,94,0,7,,,,,,,,,,7,,43,0
107806,note_on,94,0,6,,,,,,,,,,6,,43,0
107806,note_on,94,0,4,,,,,,,,,,5,,79,0
107808,note_on,2,0,7,,,,,,,,,,7,,46,75
107808,note_on,2,0,6,,,,,,,,,,6,,46,75
107808,note_on,2,0,4,,,,,,,,,,5,,67,127
107808,note_on,2,0,3,,,,,,,,,,2,,67,127
107854,note_on,46,0,3,,,,,,,,,,2,,67,0
107854,note_on,46,0,4,,,,,,,,,,5,,67,0
107856,note_on,2,0,4,,,,,,,,,,5,,79,127
107856,note_on,2,0,3,,,,,,,,,,2,,79,127
107872,note_on,160,0,5,,,,,,,,,,4,,62,0
107872,note_on,160,0,2,,,,,,,,,,1,,67,0
107902,note_on,46,0,3,,,,,,,,,,2,,79,0
107902,note_on,94,0,7,,,,,,,,,,7,,46,0
107902,note_on,94,0,6,,,,,,,,,,6,,46,0
107902,note_on,46,0,4,,,,,,,,,,5,,79,0
107904,note_on,2,0,6,,,,,,,,,,6,,43,75
107904,note_on,32,0,5,,,,,,,,,,4,,62,60
107904,note_on,2,0,7,,,,,,,,,,7,,43,75
107904,note_on,2,0,3,,,,,,,,,,2,,81,127
107904,note_on,2,0,4,,,,,,,,,,5,,81,127
107950,note_on,46,0,3,,,,,,,,,,2,,81,0
107950,note_on,46,0,4,,,,,,,,,,5,,81,0
107952,note_on,2,0,3,,,,,,,,,,2,,82,127
107952,note_on,2,0,4,,,,,,,,,,5,,82,127
107998,note_on,94,0,7,,,,,,,,,,7,,43,0
107998,note_on,46,0,3,,,,,,,,,,2,,82,0
107998,note_on,46,0,4,,,,,,,,,,5,,82,0
107998,note_on,94,0,6,,,,,,,,,,6,,43,0
107998,note_on,94,0,5,,,,,,,,,,4,,62,0
108000,note_on,2,0,6,,,,,,,,,,6,,57,75
108000,note_on,2,0,3,,,,,,,,,,2,,76,127
108000,note_on,2,0,4,,,,,,,,,,5,,73,127
108000,note_on,2,0,7,,,,,,,,,,7,,57,75
108000,note_on,2,0,5,,,,,,,,,,4,,69,60
108094,note_on,94,0,4,,,,,,,,,,5,,73,0
108094,note_on,94,0,6,,,,,,,,,,6,,57,0
108094,note_on,94,0,7,,,,,,,,,,7,,57,0
108094,note_on,94,0,3,,,,,,,,,,2,,76,0
108096,note_on,2,0,4,,,,,,,,,,5,,57,127
108096,note_on,2,0,6,,,,,,,,,,6,,45,75
108096,note_on,2,0,7,,,,,,,,,,7,,45,75
108096,note_on,2,0,3,,,,,,,,,,2,,57,127
108142,note_on,46,0,3,,,,,,,,,,2,,57,0
108142,note_on,46,0,4,,,,,,,,,,5,,57,0
108144,note_on,2,0,3,,,,,,,,,,2,,79,127
108144,note_on,2,0,4,,,,,,,,,,5,,76,127
108160,note_on,160,0,5,,,,,,,,,,4,,69,0
108190,note_on,94,0,6,,,,,,,,,,6,,45,0
108190,note_on,46,0,4,,,,,,,,,,5,,76,0
108190,note_on,46,0,3,,,,,,,,,,2,,79,0
108190,note_on,94,0,7,,,,,,,,,,7,,45,0
108192,note_on,2,0,4,,,,,,,,,,5,,74,127
108192,note_on,2,0,6,,,,,,,,,,6,,57,75
108192,note_on,2,0,3,,,,,,,,,,2,,77,127
108192,note_on,2,0,7,,,,,,,,,,7,,57,75
108192,note_on,32,0,5,,,,,,,,,,4,,73,60
108238,note_on,46,0,4,,,,,,,,,,5,,74,0
108238,note_on,46,0,3,,,,,,,,,,2,,77,0
108240,note_on,2,0,4,,,,,,,,,,5,,73,127
108240,note_on,2,0,3,,,,,,,,,,2,,76,127
108286,note_on,94,0,6,,,,,,,,,,6,,57,0
108286,note_on,46,0,3,,,,,,,,,,2,,76,0
108286,note_on,46,0,4,,,,,,,,,,5,,73,0
108286,note_on,94,0,5,,,,,,,,,,4,,73,0
108286,note_on,94,0,7,,,,,,,,,,7,,57,0
108288,note_on,2,0,3,,,,,,,,,,2,,77,127
108288,note_on,2,0,5,,,,,,,,,,4,,69,60
108288,note_on,2,0,6,,,,,,,,,,6,,62,75
108288,note_on,2,0,4,,,,,,,,,,5,,77,127
108288,note_on,2,0,7,,,,,,,,,,7,,62,75
108382,note_on,94,0,4,,,,,,,,,,5,,77,0
108382,note_on,94,0,6,,,,,,,,,,6,,62,0
108382,note_on,94,0,3,,,,,,,,,,2,,77,0
108382,note_on,94,0,7,,,,,,,,,,7,,62,0
108384,note_on,2,0,6,,,,,,,,,,6,,50,75
108384,note_on,2,0,3,,,,,,,,,,2,,62,127
108384,note_on,2,0,7,,,,,,,,,,7,,50,75
108384,note_on,2,0,4,,,,,,,,,,5,,62,127
108430,note_on,46,0,3,,,,,,,,,,2,,62,0
108430,note_on,46,0,4,,,,,,,,,,5,,62,0
108432,note_on,2,0,4,,,,,,,,,,5,,77,127
108432,note_on,2,0,3,,,,,,,,,,2,,81,127
108448,note_on,160,0,5,,,,,,,,,,4,,69,0
108478,note_on,94,0,6,,,,,,,,,,6,,50,0
108478,note_on,46,0,3,,,,,,,,,,2,,81,0
108478,note_on,94,0,7,,,,,,,,,,7,,50,0
108478,note_on,46,0,4,,,,,,,,,,5,,77,0
108480,note_on,32,0,5,,,,,,,,,,4,,69,60
108480,note_on,2,0,4,,,,,,,,,,5,,76,127
108480,note_on,2,0,7,,,,,,,,,,7,,62,75
108480,note_on,2,0,6,,,,,,,,,,6,,62,75
108480,note_on,2,0,3,,,,,,,,,,2,,79,127
108526,note_on,46,0,3,,,,,,,,,,2,,79,0
108526,note_on,46,0,4,,,,,,,,,,5,,76,0
108528,note_on,2,0,3,,,,,,,,,,2,,77,127
108528,note_on,2,0,4,,,,,,,,,,5,,74,127
108574,note_on,46,0,3,,,,,,,,,,2,,77,0
108574,note_on,94,0,7,,,,,,,,,,7,,62,0
108574,note_on,94,0,6,,,,,,,,,,6,,62,0
108574,note_on,94,0,5,,,,,,,,,,4,,69,0
108574,note_on,46,0,4,,,,,,,,,,5,,74,0
108576,note_on,2,0,6,,,,,,,,,,6,,57,75
108576,note_on,2,0,3,,,,,,,,,,2,,77,127
108576,note_on,2,0,7,,,,,,,,,,7,,57,75
108576,note_on,0,0,4,,,,,,,,,,5,,74,127
108576,note_on,2,0,4,,,,,,,,,,5,,69,127
108576,note_on,2,0,5,,,,,,,,,,4,,69,60
108670,note_on,0,0,4,,,,,,,,,,5,,74,0
108670,note_on,94,0,4,,,,,,,,,,5,,69,0
108670,note_on,94,0,7,,,,,,,,,,7,,57,0
108670,note_on,94,0,6,,,,,,,,,,6,,57,0
108670,note_on,94,0,3,,,,,,,,,,2,,77,0
108672,note_on,2,0,3,,,,,,,,,,2,,76,127
108672,note_on,2,0,6,,,,,,,,,,6,,45,75
108672,note_on,2,0,7,,,,,,,,,,7,,45,75
108672,note_on,2,0,4,,,,,,,,,,5,,69,127
108672,note_on,0,0,4,,,,,,,,,,5,,73,127
108736,note_on,160,0,5,,,,,,,,,,4,,69,0
108766,note_on,0,0,4,,,,,,,,,,5,,73,0
108766,note_on,94,0,4,,,,,,,,,,5,,69,0
108766,note_on,94,0,3,,,,,,,,,,2,,76,0
108766,note_on,94,0,7,,,,,,,,,,7,,45,0
108766,note_on,94,0,6,,,,,,,,,,6,,45,0
108768,note_on,32,0,5,,,,,,,,,,4,,69,60
108768,note_on,2,0,7,,,,,,,,,,7,,61,75
108768,note_on,2,0,6,,,,,,,,,,6,,61,75
108862,note_on,94,0,7,,,,,,,,,,7,,61,0
108862,note_on,94,0,5,,,,,,,,,,4,,69,0
108862,note_on,94,0,6,,,,,,,,,,6,,61,0
108864,note_on,98,0,3,,,,,,,,,,2,,81,127
108864,note_on,2,0,7,,,,,,,,,,7,,62,75
108864,note_on,2,0,6,,,,,,,,,,6,,62,75
108864,note_on,2,0,5,,,,,,,,,,4,,69,60
108864,note_on,98,0,4,,,,,,,,,,5,,77,127
108958,note_on,94,0,5,,,,,,,,,,4,,69,0
108958,note_on,94,0,7,,,,,,,,,,7,,62,0
108958,note_on,94,0,4,,,,,,,,,,5,,77,0
108958,note_on,94,0,3,,,,,,,,,,2,,81,0
108958,note_on,94,0,6,,,,,,,,,,6,,62,0
108960,note_on,2,0,4,,,,,,,,,,5,,57,127
108960,note_on,2,0,3,,,,,,,,,,2,,57,127
108960,note_on,2,0,6,,,,,,,,,,6,,45,75
108960,note_on,2,0,5,,,,,,,,,,4,,57,60
108960,note_on,2,0,7,,,,,,,,,,7,,45,75
109006,note_on,46,0,3,,,,,,,,,,2,,57,0
109006,note_on,46,0,4,,,,,,,,,,5,,57,0
109008,note_on,2,0,4,,,,,,,,,,5,,77,127
109008,note_on,2,0,3,,,,,,,,,,2,,81,127
109054,note_on,46,0,3,,,,,,,,,,2,,81,0
109054,note_on,94,0,6,,,,,,,,,,6,,45,0
109054,note_on,94,0,7,,,,,,,,,,7,,45,0
109054,note_on,94,0,5,,,,,,,,,,4,,57,0
109054,note_on,46,0,4,,,,,,,,,,5,,77,0
109056,note_on,2,0,7,,,,,,,,,,7,,62,75
109056,note_on,2,0,5,,,,,,,,,,4,,69,60
109056,note_on,2,0,6,,,,,,,,,,6,,62,75
109056,note_on,2,0,3,,,,,,,,,,2,,79,127
109056,note_on,2,0,4,,,,,,,,,,5,,76,127
109102,note_on,46,0,4,,,,,,,,,,5,,76,0
109102,note_on,46,0,3,,,,,,,,,,2,,79,0
109104,note_on,2,0,3,,,,,,,,,,2,,77,127
109104,note_on,2,0,4,,,,,,,,,,5,,74,127
109150,note_on,46,0,3,,,,,,,,,,2,,77,0
109150,note_on,46,0,4,,,,,,,,,,5,,74,0
109150,note_on,94,0,5,,,,,,,,,,4,,69,0
109150,note_on,94,0,6,,,,,,,,,,6,,62,0
109150,note_on,94,0,7,,,,,,,,,,7,,62,0
109152,note_on,2,0,4,,,,,,,,,,5,,76,127
109152,note_on,2,0,7,,,,,,,,,,7,,57,75
109152,note_on,2,0,6,,,,,,,,,,6,,57,75
109152,note_on,2,0,3,,,,,,,,,,2,,79,127
109152,note_on,2,0,5,,,,,,,,,,4,,73,60
109246,note_on,94,0,5,,,,,,,,,,4,,73,0
109246,note_on,94,0,4,,,,,,,,,,5,,76,0
109246,note_on,94,0,7,,,,,,,,,,7,,57,0
109246,note_on,94,0,3,,,,,,,,,,2,,79,0
109246,note_on,94,0,6,,,,,,,,,,6,,57,0
109248,note_on,2,0,5,,,,,,,,,,4,,69,60
109248,note_on,2,0,6,,,,,,,,,,6,,45,75
109248,note_on,2,0,4,,,,,,,,,,5,,57,127
109248,note_on,2,0,7,,,,,,,,,,7,,45,75
109248,note_on,2,0,3,,,,,,,,,,2,,57,127
109294,note_on,46,0,3,,,,,,,,,,2,,57,0
109294,note_on,46,0,4,,,,,,,,,,5,,57,0
109296,note_on,2,0,3,,,,,,,,,,2,,79,127
109296,note_on,2,0,4,,,,,,,,,,5,,76,127
109342,note_on,94,0,7,,,,,,,,,,7,,45,0
109342,note_on,46,0,4,,,,,,,,,,5,,76,0
109342,note_on,94,0,6,,,,,,,,,,6,,45,0
109342,note_on,46,0,3,,,,,,,,,,2,,79,0
109342,note_on,94,0,5,,,,,,,,,,4,,69,0
109344,note_on,2,0,5,,,,,,,,,,4,,73,60
109344,note_on,2,0,6,,,,,,,,,,6,,57,75
109344,note_on,2,0,4,,,,,,,,,,5,,74,127
109344,note_on,2,0,3,,,,,,,,,,2,,77,127
109344,note_on,2,0,7,,,,,,,,,,7,,57,75
109390,note_on,46,0,3,,,,,,,,,,2,,77,0
109390,note_on,46,0,4,,,,,,,,,,5,,74,0
109392,note_on,2,0,4,,,,,,,,,,5,,73,127
109392,note_on,2,0,3,,,,,,,,,,2,,76,127
109438,note_on,46,0,3,,,,,,,,,,2,,76,0
109438,note_on,46,0,4,,,,,,,,,,5,,73,0
109438,note_on,94,0,7,,,,,,,,,,7,,57,0
109438,note_on,94,0,6,,,,,,,,,,6,,57,0
109438,note_on,94,0,5,,,,,,,,,,4,,73,0
109440,note_on,2,0,3,,,,,,,,,,2,,77,127
109440,note_on,2,0,6,,,,,,,,,,6,,62,75
109440,note_on,2,0,4,,,,,,,,,,5,,74,127
109440,note_on,2,0,7,,,,,,,,,,7,,62,75
109440,note_on,2,0,5,,,,,,,,,,4,,69,60
109534,note_on,94,0,6,,,,,,,,,,6,,62,0
109534,note_on,94,0,5,,,,,,,,,,4,,69,0
109534,note_on,94,0,7,,,,,,,,,,7,,62,0
109534,note_on,94,0,4,,,,,,,,,,5,,74,0
109534,note_on,94,0,3,,,,,,,,,,2,,77,0
109536,note_on,2,0,6,,,,,,,,,,6,,45,75
109536,note_on,2,0,7,,,,,,,,,,7,,45,75
109536,note_on,2,0,5,,,,,,,,,,4,,57,60
109536,note_on,2,0,3,,,,,,,,,,2,,57,127
109536,note_on,2,0,4,,,,,,,,,,5,,57,127
109582,note_on,46,0,3,,,,,,,,,,2,,57,0
109582,note_on,46,0,4,,,,,,,,,,5,,57,0
109584,note_on,2,0,3,,,,,,,,,,2,,81,127
109584,note_on,2,0,4,,,,,,,,,,5,,77,127
109630,note_on,94,0,6,,,,,,,,,,6,,45,0
109630,note_on,46,0,3,,,,,,,,,,2,,81,0
109630,note_on,94,0,7,,,,,,,,,,7,,45,0
109630,note_on,94,0,5,,,,,,,,,,4,,57,0
109630,note_on,46,0,4,,,,,,,,,,5,,77,0
109632,note_on,2,0,3,,,,,,,,,,2,,79,127
109632,note_on,2,0,7,,,,,,,,,,7,,62,75
109632,note_on,2,0,5,,,,,,,,,,4,,69,60
109632,note_on,2,0,4,,,,,,,,,,5,,76,127
109632,note_on,2,0,6,,,,,,,,,,6,,62,75
109678,note_on,46,0,3,,,,,,,,,,2,,79,0
109678,note_on,46,0,4,,,,,,,,,,5,,76,0
109680,note_on,2,0,3,,,,,,,,,,2,,77,127
109680,note_on,2,0,4,,,,,,,,,,5,,74,127
109726,note_on,94,0,5,,,,,,,,,,4,,69,0
109726,note_on,46,0,3,,,,,,,,,,2,,77,0
109726,note_on,94,0,6,,,,,,,,,,6,,62,0
109726,note_on,46,0,4,,,,,,,,,,5,,74,0
109726,note_on,94,0,7,,,,,,,,,,7,,62,0
109728,note_on,2,0,3,,,,,,,,,,2,,76,127
109728,note_on,2,0,6,,,,,,,,,,6,,57,75
109728,note_on,2,0,7,,,,,,,,,,7,,57,75
109728,note_on,2,0,5,,,,,,,,,,4,,69,60
109728,note_on,2,0,4,,,,,,,,,,5,,73,127
109774,note_on,46,0,4,,,,,,,,,,5,,73,0
109774,note_on,46,0,3,,,,,,,,,,2,,76,0
109776,note_on,2,0,4,,,,,,,,,,5,,69,127
109776,note_on,2,0,3,,,,,,,,,,2,,73,127
109822,note_on,46,0,3,,,,,,,,,,2,,73,0
109822,note_on,94,0,7,,,,,,,,,,7,,57,0
109822,note_on,94,0,6,,,,,,,,,,6,,57,0
109822,note_on,94,0,5,,,,,,,,,,4,,69,0
109822,note_on,46,0,4,,,,,,,,,,5,,69,0
109824,note_on,2,0,6,,,,,,,,,,6,,45,75
109824,note_on,2,0,4,,,,,,,,,,5,,64,127
109824,note_on,2,0,7,,,,,,,,,,7,,45,75
109824,note_on,2,0,3,,,,,,,,,,2,,69,127
109824,note_on,2,0,5,,,,,,,,,,4,,57,60
109870,note_on,46,0,3,,,,,,,,,,2,,69,0
109870,note_on,46,0,4,,,,,,,,,,5,,64,0
109872,note_on,2,0,4,,,,,,,,,,5,,61,127
109872,note_on,2,0,3,,,,,,,,,,2,,64,127
109918,note_on,94,0,7,,,,,,,,,,7,,45,0
109918,note_on,46,0,4,,,,,,,,,,5,,61,0
109918,note_on,46,0,3,,,,,,,,,,2,,64,0
109918,note_on,94,0,6,,,,,,,,,,6,,45,0
109918,note_on,94,0,5,,,,,,,,,,4,,57,0
109920,note_on,2,0,6,,,,,,,,,,6,,45,75
109920,note_on,2,0,3,,,,,,,,,,2,,61,127
109920,note_on,2,0,7,,,,,,,,,,7,,45,75
109920,note_on,2,0,4,,,,,,,,,,5,,57,127
109920,note_on,2,0,5,,,,,,,,,,4,,57,60
110014,note_on,94,0,5,,,,,,,,,,4,,57,0
110014,note_on,94,0,7,,,,,,,,,,7,,45,0
110014,note_on,94,0,6,,,,,,,,,,6,,45,0
110014,note_on,94,0,3,,,,,,,,,,2,,61,0
110014,note_on,94,0,4,,,,,,,,,,5,,57,0
110016,note_on,2,0,5,,,,,,,,,,4,,57,60
110016,note_on,2,0,3,,,,,,,,,,2,,74,127
110016,note_on,2,0,6,,,,,,,,,,6,,53,75
110016,note_on,2,0,4,,,,,,,,,,5,,74,127
110016,note_on,2,0,7,,,,,,,,,,7,,53,75
110062,note_on,46,0,3,,,,,,,,,,2,,74,0
110062,note_on,46,0,4,,,,,,,,,,5,,74,0
110062,note_on,46,0,6,,,,,,,,,,6,,53,0
110062,note_on,46,0,7,,,,,,,,,,7,,53,0
110062,note_on,46,0,5,,,,,,,,,,4,,57,0
110064,note_on,2,0,6,,,,,,,,,,6,,50,75
110064,note_on,2,0,4,,,,,,,,,,5,,65,127
110064,note_on,2,0,3,,,,,,,,,,2,,65,127
110064,note_on,2,0,5,,,,,,,,,,4,,62,60
110064,note_on,2,0,7,,,,,,,,,,7,,50,75
110110,note_on,46,0,7,,,,,,,,,,7,,50,0
110110,note_on,46,0,3,,,,,,,,,,2,,65,0
110110,note_on,46,0,6,,,,,,,,,,6,,50,0
110110,note_on,46,0,5,,,,,,,,,,4,,62,0
110110,note_on,46,0,4,,,,,,,,,,5,,65,0
110112,note_on,2,0,6,,,,,,,,,,6,,55,75
110112,note_on,2,0,3,,,,,,,,,,2,,67,127
110112,note_on,2,0,5,,,,,,,,,,4,,62,60
110112,note_on,2,0,4,,,,,,,,,,5,,67,127
110112,note_on,2,0,7,,,,,,,,,,7,,55,75
110158,note_on,46,0,4,,,,,,,,,,5,,67,0
110158,note_on,46,0,3,,,,,,,,,,2,,67,0
110160,note_on,2,0,4,,,,,,,,,,5,,70,127
110160,note_on,2,0,3,,,,,,,,,,2,,70,127
110206,note_on,46,0,3,,,,,,,,,,2,,70,0
110206,note_on,94,0,5,,,,,,,,,,4,,62,0
110206,note_on,46,0,4,,,,,,,,,,5,,70,0
110208,note_on,2,0,3,,,,,,,,,,2,,69,127
110208,note_on,2,0,4,,,,,,,,,,5,,69,127
110208,note_on,2,0,5,,,,,,,,,,4,,64,60
110254,note_on,46,0,4,,,,,,,,,,5,,69,0
110254,note_on,46,0,3,,,,,,,,,,2,,69,0
110256,note_on,2,0,4,,,,,,,,,,5,,73,127
110256,note_on,2,0,3,,,,,,,,,,2,,73,127
110272,note_on,160,0,7,,,,,,,,,,7,,55,0
110272,note_on,160,0,6,,,,,,,,,,6,,55,0
110302,note_on,46,0,3,,,,,,,,,,2,,73,0
110302,note_on,46,0,4,,,,,,,,,,5,,73,0
110302,note_on,94,0,5,,,,,,,,,,4,,64,0
110304,note_on,32,0,7,,,,,,,,,,7,,53,75
110304,note_on,2,0,3,,,,,,,,,,2,,74,127
110304,note_on,32,0,6,,,,,,,,,,6,,53,75
110304,note_on,2,0,4,,,,,,,,,,5,,74,127
110304,note_on,2,0,5,,,,,,,,,,4,,57,60
110350,note_on,46,0,7,,,,,,,,,,7,,53,0
110350,note_on,46,0,6,,,,,,,,,,6,,53,0
110350,note_on,46,0,5,,,,,,,,,,4,,57,0
110350,note_on,46,0,4,,,,,,,,,,5,,74,0
110350,note_on,46,0,3,,,,,,,,,,2,,74,0
110352,note_on,2,0,5,,,,,,,,,,4,,62,60
110352,note_on,2,0,7,,,,,,,,,,7,,50,75
110352,note_on,2,0,3,,,,,,,,,,2,,65,127
110352,note_on,2,0,4,,,,,,,,,,5,,65,127
110352,note_on,2,0,6,,,,,,,,,,6,,50,75
110398,note_on,46,0,6,,,,,,,,,,6,,50,0
110398,note_on,46,0,3,,,,,,,,,,2,,65,0
110398,note_on,46,0,4,,,,,,,,,,5,,65,0
110398,note_on,46,0,7,,,,,,,,,,7,,50,0
110398,note_on,46,0,5,,,,,,,,,,4,,62,0
110400,note_on,2,0,4,,,,,,,,,,5,,67,127
110400,note_on,2,0,3,,,,,,,,,,2,,67,127
110400,note_on,2,0,7,,,,,,,,,,7,,55,75
110400,note_on,2,0,6,,,,,,,,,,6,,55,75
110400,note_on,2,0,5,,,,,,,,,,4,,62,60
110446,note_on,46,0,4,,,,,,,,,,5,,67,0
110446,note_on,46,0,3,,,,,,,,,,2,,67,0
110448,note_on,2,0,4,,,,,,,,,,5,,70,127
110448,note_on,2,0,3,,,,,,,,,,2,,70,127
110494,note_on,46,0,3,,,,,,,,,,2,,70,0
110494,note_on,46,0,4,,,,,,,,,,5,,70,0
110494,note_on,94,0,5,,,,,,,,,,4,,62,0
110496,note_on,2,0,3,,,,,,,,,,2,,69,127
110496,note_on,2,0,4,,,,,,,,,,5,,69,127
110496,note_on,2,0,5,,,,,,,,,,4,,64,60
110542,note_on,46,0,4,,,,,,,,,,5,,69,0
110542,note_on,46,0,3,,,,,,,,,,2,,69,0
110544,note_on,2,0,4,,,,,,,,,,5,,73,127
110544,note_on,2,0,3,,,,,,,,,,2,,73,127
110560,note_on,160,0,6,,,,,,,,,,6,,55,0
110560,note_on,160,0,7,,,,,,,,,,7,,55,0
110590,note_on,46,0,4,,,,,,,,,,5,,73,0
110590,note_on,94,0,5,,,,,,,,,,4,,64,0
110590,note_on,46,0,3,,,,,,,,,,2,,73,0
110592,note_on,2,0,5,,,,,,,,,,4,,57,60
110592,note_on,2,0,3,,,,,,,,,,2,,74,127
110592,note_on,32,0,6,,,,,,,,,,6,,53,75
110592,note_on,2,0,4,,,,,,,,,,5,,74,127
110592,note_on,32,0,7,,,,,,,,,,7,,53,75
110638,note_on,46,0,5,,,,,,,,,,4,,57,0
110638,note_on,46,0,7,,,,,,,,,,7,,53,0
110638,note_on,46,0,4,,,,,,,,,,5,,74,0
110638,note_on,46,0,6,,,,,,,,,,6,,53,0
110638,note_on,46,0,3,,,,,,,,,,2,,74,0
110640,note_on,2,0,7,,,,,,,,,,7,,50,75
110640,note_on,2,0,3,,,,,,,,,,2,,77,127
110640,note_on,2,0,6,,,,,,,,,,6,,50,75
110640,note_on,2,0,4,,,,,,,,,,5,,77,127
110640,note_on,2,0,5,,,,,,,,,,4,,69,60
110686,note_on,46,0,5,,,,,,,,,,4,,69,0
110686,note_on,46,0,6,,,,,,,,,,6,,50,0
110686,note_on,46,0,4,,,,,,,,,,5,,77,0
110686,note_on,46,0,7,,,,,,,,,,7,,50,0
110686,note_on,46,0,3,,,,,,,,,,2,,77,0
110688,note_on,2,0,3,,,,,,,,,,2,,76,127
110688,note_on,2,0,5,,,,,,,,,,4,,61,60
110688,note_on,2,0,6,,,,,,,,,,6,,57,75
110688,note_on,2,0,7,,,,,,,,,,7,,57,75
110688,note_on,2,0,4,,,,,,,,,,5,,76,127
110734,note_on,46,0,3,,,,,,,,,,2,,76,0
110734,note_on,46,0,4,,,,,,,,,,5,,76,0
110736,note_on,2,0,4,,,,,,,,,,5,,81,127
110736,note_on,2,0,3,,,,,,,,,,2,,81,127
110782,note_on,46,0,3,,,,,,,,,,2,,81,0
110782,note_on,94,0,7,,,,,,,,,,7,,57,0
110782,note_on,46,0,4,,,,,,,,,,5,,81,0
110782,note_on,94,0,5,,,,,,,,,,4,,61,0
110782,note_on,94,0,6,,,,,,,,,,6,,57,0
110784,note_on,2,0,7,,,,,,,,,,7,,45,75
110784,note_on,2,0,6,,,,,,,,,,6,,45,75
110784,note_on,2,0,5,,,,,,,,,,4,,61,60
110784,note_on,2,0,3,,,,,,,,,,2,,69,127
110784,note_on,2,0,4,,,,,,,,,,5,,69,127
110830,note_on,46,0,3,,,,,,,,,,2,,69,0
110830,note_on,46,0,4,,,,,,,,,,5,,69,0
110832,note_on,2,0,3,,,,,,,,,,2,,73,127
110832,note_on,2,0,4,,,,,,,,,,5,,73,127
110878,note_on,94,0,6,,,,,,,,,,6,,45,0
110878,note_on,46,0,3,,,,,,,,,,2,,73,0
110878,note_on,46,0,4,,,,,,,,,,5,,73,0
110878,note_on,94,0,5,,,,,,,,,,4,,61,0
110878,note_on,94,0,7,,,,,,,,,,7,,45,0
110880,note_on,2,0,3,,,,,,,,,,2,,74,127
110880,note_on,2,0,5,,,,,,,,,,4,,57,60
110880,note_on,2,0,6,,,,,,,,,,6,,53,75
110880,note_on,2,0,7,,,,,,,,,,7,,53,75
110880,note_on,2,0,4,,,,,,,,,,5,,74,127
110926,note_on,46,0,5,,,,,,,,,,4,,57,0
110926,note_on,46,0,6,,,,,,,,,,6,,53,0
110926,note_on,46,0,7,,,,,,,,,,7,,53,0
110926,note_on,46,0,3,,,,,,,,,,2,,74,0
110926,note_on,46,0,4,,,,,,,,,,5,,74,0
110928,note_on,2,0,7,,,,,,,,,,7,,50,75
110928,note_on,2,0,4,,,,,,,,,,5,,65,127
110928,note_on,2,0,6,,,,,,,,,,6,,50,75
110928,note_on,2,0,3,,,,,,,,,,2,,65,127
110928,note_on,2,0,5,,,,,,,,,,4,,62,60
110974,note_on,46,0,6,,,,,,,,,,6,,50,0
110974,note_on,46,0,3,,,,,,,,,,2,,65,0
110974,note_on,46,0,5,,,,,,,,,,4,,62,0
110974,note_on,46,0,7,,,,,,,,,,7,,50,0
110974,note_on,46,0,4,,,,,,,,,,5,,65,0
110976,note_on,2,0,3,,,,,,,,,,2,,67,127
110976,note_on,2,0,7,,,,,,,,,,7,,55,75
110976,note_on,2,0,4,,,,,,,,,,5,,67,127
110976,note_on,2,0,6,,,,,,,,,,6,,55,75
110976,note_on,2,0,5,,,,,,,,,,4,,62,60
111022,note_on,46,0,4,,,,,,,,,,5,,67,0
111022,note_on,46,0,3,,,,,,,,,,2,,67,0
111024,note_on,2,0,4,,,,,,,,,,5,,70,127
111024,note_on,2,0,3,,,,,,,,,,2,,70,127
111070,note_on,46,0,4,,,,,,,,,,5,,70,0
111070,note_on,94,0,5,,,,,,,,,,4,,62,0
111070,note_on,46,0,3,,,,,,,,,,2,,70,0
111072,note_on,2,0,4,,,,,,,,,,5,,69,127
111072,note_on,2,0,3,,,,,,,,,,2,,69,127
111072,note_on,2,0,5,,,,,,,,,,4,,64,60
111118,note_on,46,0,3,,,,,,,,,,2,,69,0
111118,note_on,46,0,4,,,,,,,,,,5,,69,0
111120,note_on,2,0,3,,,,,,,,,,2,,73,127
111120,note_on,2,0,4,,,,,,,,,,5,,73,127
111136,note_on,160,0,7,,,,,,,,,,7,,55,0
111136,note_on,160,0,6,,,,,,,,,,6,,55,0
111166,note_on,46,0,3,,,,,,,,,,2,,73,0
111166,note_on,94,0,5,,,,,,,,,,4,,64,0
111166,note_on,46,0,4,,,,,,,,,,5,,73,0
111168,note_on,2,0,3,,,,,,,,,,2,,74,127
111168,note_on,32,0,6,,,,,,,,,,6,,53,75
111168,note_on,32,0,7,,,,,,,,,,7,,53,75
111168,note_on,2,0,4,,,,,,,,,,5,,74,127
111168,note_on,2,0,5,,,,,,,,,,4,,57,60
111214,note_on,46,0,3,,,,,,,,,,2,,74,0
111214,note_on,46,0,4,,,,,,,,,,5,,74,0
111214,note_on,46,0,6,,,,,,,,,,6,,53,0
111214,note_on,46,0,7,,,,,,,,,,7,,53,0
111214,note_on,46,0,5,,,,,,,,,,4,,57,0
111216,note_on,2,0,6,,,,,,,,,,6,,50,75
111216,note_on,2,0,3,,,,,,,,,,2,,65,127
111216,note_on,2,0,5,,,,,,,,,,4,,62,60
111216,note_on,2,0,4,,,,,,,,,,5,,65,127
111216,note_on,2,0,7,,,,,,,,,,7,,50,75
111262,note_on,46,0,3,,,,,,,,,,2,,65,0
111262,note_on,46,0,5,,,,,,,,,,4,,62,0
111262,note_on,46,0,6,,,,,,,,,,6,,50,0
111262,note_on,46,0,4,,,,,,,,,,5,,65,0
111262,note_on,46,0,7,,,,,,,,,,7,,50,0
111264,note_on,2,0,4,,,,,,,,,,5,,67,127
111264,note_on,2,0,5,,,,,,,,,,4,,64,60
111264,note_on,2,0,6,,,,,,,,,,6,,55,75
111264,note_on,2,0,7,,,,,,,,,,7,,55,75
111264,note_on,2,0,3,,,,,,,,,,2,,67,127
111310,note_on,46,0,3,,,,,,,,,,2,,67,0
111310,note_on,46,0,4,,,,,,,,,,5,,67,0
111312,note_on,2,0,4,,,,,,,,,,5,,70,127
111312,note_on,2,0,3,,,,,,,,,,2,,70,127
111358,note_on,94,0,5,,,,,,,,,,4,,64,0
111358,note_on,46,0,4,,,,,,,,,,5,,70,0
111358,note_on,46,0,3,,,,,,,,,,2,,70,0
111360,note_on,2,0,5,,,,,,,,,,4,,64,60
111360,note_on,2,0,4,,,,,,,,,,5,,69,127
111360,note_on,2,0,3,,,,,,,,,,2,,69,127
111406,note_on,46,0,3,,,,,,,,,,2,,69,0
111406,note_on,46,0,4,,,,,,,,,,5,,69,0
111408,note_on,2,0,3,,,,,,,,,,2,,73,127
111408,note_on,2,0,4,,,,,,,,,,5,,73,127
111424,note_on,160,0,7,,,,,,,,,,7,,55,0
111424,note_on,160,0,6,,,,,,,,,,6,,55,0
111454,note_on,46,0,4,,,,,,,,,,5,,73,0
111454,note_on,46,0,3,,,,,,,,,,2,,73,0
111454,note_on,94,0,5,,,,,,,,,,4,,64,0
111456,note_on,32,0,7,,,,,,,,,,7,,53,75
111456,note_on,2,0,4,,,,,,,,,,5,,74,127
111456,note_on,2,0,3,,,,,,,,,,2,,74,127
111456,note_on,2,0,5,,,,,,,,,,4,,57,60
111456,note_on,32,0,6,,,,,,,,,,6,,53,75
111502,note_on,46,0,6,,,,,,,,,,6,,53,0
111502,note_on,46,0,5,,,,,,,,,,4,,57,0
111502,note_on,46,0,3,,,,,,,,,,2,,74,0
111502,note_on,46,0,4,,,,,,,,,,5,,74,0
111502,note_on,46,0,7,,,,,,,,,,7,,53,0
111504,note_on,2,0,4,,,,,,,,,,5,,77,127
111504,note_on,2,0,5,,,,,,,,,,4,,69,60
111504,note_on,2,0,7,,,,,,,,,,7,,50,75
111504,note_on,2,0,6,,,,,,,,,,6,,50,75
111504,note_on,2,0,3,,,,,,,,,,2,,77,127
111550,note_on,46,0,4,,,,,,,,,,5,,77,0
111550,note_on,46,0,6,,,,,,,,,,6,,50,0
111550,note_on,46,0,3,,,,,,,,,,2,,77,0
111550,note_on,46,0,5,,,,,,,,,,4,,69,0
111550,note_on,46,0,7,,,,,,,,,,7,,50,0
111552,note_on,2,0,6,,,,,,,,,,6,,57,75
111552,note_on,2,0,4,,,,,,,,,,5,,76,127
111552,note_on,2,0,3,,,,,,,,,,2,,76,127
111552,note_on,2,0,5,,,,,,,,,,4,,61,60
111552,note_on,2,0,7,,,,,,,,,,7,,57,75
111598,note_on,46,0,4,,,,,,,,,,5,,76,0
111598,note_on,46,0,3,,,,,,,,,,2,,76,0
111600,note_on,2,0,4,,,,,,,,,,5,,81,127
111600,note_on,2,0,3,,,,,,,,,,2,,81,127
111646,note_on,46,0,4,,,,,,,,,,5,,81,0
111646,note_on,94,0,6,,,,,,,,,,6,,57,0
111646,note_on,46,0,3,,,,,,,,,,2,,81,0
111646,note_on,94,0,5,,,,,,,,,,4,,61,0
111646,note_on,94,0,7,,,,,,,,,,7,,57,0
111648,note_on,2,0,6,,,,,,,,,,6,,45,75
111648,note_on,2,0,5,,,,,,,,,,4,,69,60
111648,note_on,2,0,7,,,,,,,,,,7,,45,75
111648,note_on,2,0,4,,,,,,,,,,5,,69,127
111648,note_on,2,0,3,,,,,,,,,,2,,69,127
111694,note_on,46,0,3,,,,,,,,,,2,,69,0
111694,note_on,46,0,4,,,,,,,,,,5,,69,0
111696,note_on,2,0,3,,,,,,,,,,2,,73,127
111696,note_on,2,0,4,,,,,,,,,,5,,73,127
111742,note_on,94,0,5,,,,,,,,,,4,,69,0
111742,note_on,46,0,4,,,,,,,,,,5,,73,0
111742,note_on,94,0,6,,,,,,,,,,6,,45,0
111742,note_on,46,0,3,,,,,,,,,,2,,73,0
111742,note_on,94,0,7,,,,,,,,,,7,,45,0
111744,note_on,2,0,4,,,,,,,,,,5,,74,127
111744,note_on,2,0,6,,,,,,,,,,6,,50,75
111744,note_on,2,0,3,,,,,,,,,,2,,74,127
111744,note_on,5024,0,1,,,,,,,,,,0,,74,127
111744,note_on,2,0,5,,,,,,,,,,4,,62,60
111744,note_on,2,0,7,,,,,,,,,,7,,50,75
111766,note_on,22,0,1,,,,,,,,,,0,,74,0
111768,note_on,2,0,1,,,,,,,,,,0,,73,127
111790,note_on,22,0,1,,,,,,,,,,0,,73,0
111792,note_on,2,0,1,,,,,,,,,,0,,74,127
111814,note_on,22,0,1,,,,,,,,,,0,,74,0
111816,note_on,2,0,1,,,,,,,,,,0,,76,127
111838,note_on,22,0,1,,,,,,,,,,0,,76,0
111840,note_on,2,0,1,,,,,,,,,,0,,74,127
111862,note_on,22,0,1,,,,,,,,,,0,,74,0
111864,note_on,2,0,1,,,,,,,,,,0,,73,127
111886,note_on,22,0,1,,,,,,,,,,0,,73,0
111888,note_on,2,0,1,,,,,,,,,,0,,74,127
111904,note_on,160,0,4,,,,,,,,,,5,,74,0
111904,note_on,160,0,3,,,,,,,,,,2,,74,0
111904,note_on,160,0,5,,,,,,,,,,4,,62,0
111904,note_on,160,0,6,,,,,,,,,,6,,50,0
111904,note_on,160,0,7,,,,,,,,,,7,,50,0
111910,note_on,22,0,1,,,,,,,,,,0,,74,0
111912,note_on,2,0,1,,,,,,,,,,0,,76,127
111934,note_on,22,0,1,,,,,,,,,,0,,76,0
111936,note_on,2,0,1,,,,,,,,,,0,,77,127
111958,note_on,22,0,1,,,,,,,,,,0,,77,0
111960,note_on,2,0,1,,,,,,,,,,0,,76,127
111982,note_on,22,0,1,,,,,,,,,,0,,76,0
111984,note_on,2,0,1,,,,,,,,,,0,,77,127
112006,note_on,22,0,1,,,,,,,,,,0,,77,0
112008,note_on,2,0,1,,,,,,,,,,0,,79,127
112030,note_on,22,0,1,,,,,,,,,,0,,79,0
112032,note_on,128,0,6,,,,,,,,,,6,,50,75
112032,note_on,128,0,7,,,,,,,,,,7,,50,75
112032,note_on,2,0,1,,,,,,,,,,0,,81,127
112032,note_on,4160,0,2,,,,,,,,,,1,,62,127
112054,note_on,22,0,2,,,,,,,,,,1,,62,0
112056,note_on,2,0,2,,,,,,,,,,1,,61,127
112078,note_on,46,0,1,,,,,,,,,,0,,81,0
112078,note_on,22,0,2,,,,,,,,,,1,,61,0
112080,note_on,2,0,1,,,,,,,,,,0,,77,127
112080,note_on,2,0,2,,,,,,,,,,1,,62,127
112102,note_on,22,0,2,,,,,,,,,,1,,62,0
112104,note_on,2,0,2,,,,,,,,,,1,,64,127
112126,note_on,46,0,1,,,,,,,,,,0,,77,0
112126,note_on,22,0,2,,,,,,,,,,1,,64,0
112128,note_on,2,0,1,,,,,,,,,,0,,74,127
112128,note_on,2,0,2,,,,,,,,,,1,,62,127
112150,note_on,22,0,2,,,,,,,,,,1,,62,0
112152,note_on,2,0,2,,,,,,,,,,1,,61,127
112174,note_on,22,0,2,,,,,,,,,,1,,61,0
112174,note_on,46,0,1,,,,,,,,,,0,,74,0
112176,note_on,2,0,2,,,,,,,,,,1,,62,127
112176,note_on,2,0,1,,,,,,,,,,0,,69,127
112192,note_on,160,0,6,,,,,,,,,,6,,50,0
112192,note_on,160,0,7,,,,,,,,,,7,,50,0
112198,note_on,22,0,2,,,,,,,,,,1,,62,0
112200,note_on,2,0,2,,,,,,,,,,1,,64,127
112222,note_on,46,0,1,,,,,,,,,,0,,69,0
112222,note_on,22,0,2,,,,,,,,,,1,,64,0
112224,note_on,2,0,1,,,,,,,,,,0,,65,127
112224,note_on,2,0,2,,,,,,,,,,1,,65,127
112246,note_on,22,0,2,,,,,,,,,,1,,65,0
112248,note_on,2,0,2,,,,,,,,,,1,,64,127
112270,note_on,22,0,2,,,,,,,,,,1,,64,0
112270,note_on,46,0,1,,,,,,,,,,0,,65,0
112272,note_on,2,0,1,,,,,,,,,,0,,62,127
112272,note_on,2,0,2,,,,,,,,,,1,,65,127
112294,note_on,22,0,2,,,,,,,,,,1,,65,0
112296,note_on,2,0,2,,,,,,,,,,1,,67,127
112318,note_on,46,0,1,,,,,,,,,,0,,62,0
112318,note_on,22,0,2,,,,,,,,,,1,,67,0
112320,note_on,128,0,6,,,,,,,,,,6,,50,75
112320,note_on,2,0,1,,,,,,,,,,0,,77,127
112320,note_on,128,0,7,,,,,,,,,,7,,50,75
112320,note_on,2,0,2,,,,,,,,,,1,,69,127
112342,note_on,22,0,1,,,,,,,,,,0,,77,0
112344,note_on,2,0,1,,,,,,,,,,0,,76,127
112366,note_on,46,0,2,,,,,,,,,,1,,69,0
112366,note_on,22,0,1,,,,,,,,,,0,,76,0
112368,note_on,2,0,2,,,,,,,,,,1,,65,127
112368,note_on,2,0,1,,,,,,,,,,0,,77,127
112390,note_on,22,0,1,,,,,,,,,,0,,77,0
112392,note_on,2,0,1,,,,,,,,,,0,,79,127
112414,note_on,46,0,2,,,,,,,,,,1,,65,0
112414,note_on,22,0,1,,,,,,,,,,0,,79,0
112416,note_on,2,0,2,,,,,,,,,,1,,62,127
112416,note_on,2,0,1,,,,,,,,,,0,,77,127
112438,note_on,22,0,1,,,,,,,,,,0,,77,0
112440,note_on,2,0,1,,,,,,,,,,0,,76,127
112462,note_on,46,0,2,,,,,,,,,,1,,62,0
112462,note_on,22,0,1,,,,,,,,,,0,,76,0
112464,note_on,2,0,1,,,,,,,,,,0,,77,127
112464,note_on,2,0,2,,,,,,,,,,1,,57,127
112480,note_on,160,0,7,,,,,,,,,,7,,50,0
112480,note_on,160,0,6,,,,,,,,,,6,,50,0
112486,note_on,22,0,1,,,,,,,,,,0,,77,0
112488,note_on,2,0,1,,,,,,,,,,0,,79,127
112510,note_on,22,0,1,,,,,,,,,,0,,79,0
112510,note_on,46,0,2,,,,,,,,,,1,,57,0
112512,note_on,2,0,1,,,,,,,,,,0,,77,127
112512,note_on,2,0,2,,,,,,,,,,1,,53,127
112534,note_on,22,0,1,,,,,,,,,,0,,77,0
112536,note_on,2,0,1,,,,,,,,,,0,,76,127
112558,note_on,22,0,1,,,,,,,,,,0,,76,0
112558,note_on,46,0,2,,,,,,,,,,1,,53,0
112560,note_on,2,0,2,,,,,,,,,,1,,50,127
112560,note_on,2,0,1,,,,,,,,,,0,,77,127
112582,note_on,22,0,1,,,,,,,,,,0,,77,0
112584,note_on,2,0,1,,,,,,,,,,0,,79,127
112606,note_on,46,0,2,,,,,,,,,,1,,50,0
112606,note_on,22,0,1,,,,,,,,,,0,,79,0
112608,note_on,2,0,2,,,,,,,,,,1,,65,127
112608,note_on,2,0,1,,,,,,,,,,0,,81,127
112608,note_on,128,0,6,,,,,,,,,,6,,50,75
112608,note_on,128,0,7,,,,,,,,,,7,,50,75
112630,note_on,22,0,2,,,,,,,,,,1,,65,0
112632,note_on,2,0,2,,,,,,,,,,1,,64,127
112654,note_on,22,0,2,,,,,,,,,,1,,64,0
112656,note_on,2,0,2,,,,,,,,,,1,,65,127
112678,note_on,22,0,2,,,,,,,,,,1,,65,0
112680,note_on,2,0,2,,,,,,,,,,1,,67,127
112702,note_on,22,0,2,,,,,,,,,,1,,67,0
112704,note_on,2,0,2,,,,,,,,,,1,,65,127
112726,note_on,22,0,2,,,,,,,,,,1,,65,0
112728,note_on,2,0,2,,,,,,,,,,1,,64,127
112750,note_on,22,0,2,,,,,,,,,,1,,64,0
112752,note_on,2,0,2,,,,,,,,,,1,,65,127
112768,note_on,160,0,6,,,,,,,,,,6,,50,0
112768,note_on,160,0,7,,,,,,,,,,7,,50,0
112774,note_on,22,0,2,,,,,,,,,,1,,65,0
112776,note_on,2,0,2,,,,,,,,,,1,,67,127
112798,note_on,22,0,2,,,,,,,,,,1,,67,0
112800,note_on,2,0,2,,,,,,,,,,1,,65,127
112822,note_on,22,0,2,,,,,,,,,,1,,65,0
112824,note_on,2,0,2,,,,,,,,,,1,,64,127
112846,note_on,22,0,2,,,,,,,,,,1,,64,0
112848,note_on,2,0,2,,,,,,,,,,1,,65,127
112864,note_on,256,0,1,,,,,,,,,,0,,81,0
112870,note_on,22,0,2,,,,,,,,,,1,,65,0
112872,note_on,2,0,2,,,,,,,,,,1,,67,127
112894,note_on,22,0,2,,,,,,,,,,1,,67,0
112896,note_on,2,0,2,,,,,,,,,,1,,69,127
112896,note_on,128,0,7,,,,,,,,,,7,,50,75
112896,note_on,32,0,1,,,,,,,,,,0,,77,127
112896,note_on,128,0,6,,,,,,,,,,6,,50,75
112918,note_on,22,0,1,,,,,,,,,,0,,77,0
112918,note_on,22,0,2,,,,,,,,,,1,,69,0
112920,note_on,2,0,1,,,,,,,,,,0,,76,127
112920,note_on,2,0,2,,,,,,,,,,1,,67,127
112942,note_on,22,0,2,,,,,,,,,,1,,67,0
112942,note_on,22,0,1,,,,,,,,,,0,,76,0
112944,note_on,2,0,2,,,,,,,,,,1,,69,127
112944,note_on,2,0,1,,,,,,,,,,0,,77,127
112966,note_on,22,0,1,,,,,,,,,,0,,77,0
112966,note_on,22,0,2,,,,,,,,,,1,,69,0
112968,note_on,2,0,1,,,,,,,,,,0,,79,127
112968,note_on,2,0,2,,,,,,,,,,1,,70,127
112990,note_on,94,0,6,,,,,,,,,,6,,50,0
112990,note_on,94,0,7,,,,,,,,,,7,,50,0
112990,note_on,22,0,2,,,,,,,,,,1,,70,0
112990,note_on,22,0,1,,,,,,,,,,0,,79,0
112992,note_on,2,0,2,,,,,,,,,,1,,69,127
112992,note_on,2,0,6,,,,,,,,,,6,,50,75
112992,note_on,2,0,1,,,,,,,,,,0,,77,127
112992,note_on,2,0,7,,,,,,,,,,7,,50,75
113014,note_on,22,0,2,,,,,,,,,,1,,69,0
113014,note_on,22,0,1,,,,,,,,,,0,,77,0
113016,note_on,2,0,2,,,,,,,,,,1,,67,127
113016,note_on,2,0,1,,,,,,,,,,0,,76,127
113038,note_on,22,0,2,,,,,,,,,,1,,67,0
113038,note_on,22,0,1,,,,,,,,,,0,,76,0
113040,note_on,2,0,2,,,,,,,,,,1,,69,127
113040,note_on,2,0,1,,,,,,,,,,0,,77,127
113062,note_on,22,0,1,,,,,,,,,,0,,77,0
113062,note_on,22,0,2,,,,,,,,,,1,,69,0
113064,note_on,2,0,1,,,,,,,,,,0,,79,127
113064,note_on,2,0,2,,,,,,,,,,1,,70,127
113086,note_on,94,0,7,,,,,,,,,,7,,50,0
113086,note_on,22,0,1,,,,,,,,,,0,,79,0
113086,note_on,22,0,2,,,,,,,,,,1,,70,0
113086,note_on,94,0,6,,,,,,,,,,6,,50,0
113088,note_on,2,0,1,,,,,,,,,,0,,79,127
113088,note_on,2,0,2,,,,,,,,,,1,,70,127
113110,note_on,22,0,2,,,,,,,,,,1,,70,0
113110,note_on,22,0,1,,,,,,,,,,0,,79,0
113112,note_on,2,0,2,,,,,,,,,,1,,69,127
113112,note_on,2,0,1,,,,,,,,,,0,,77,127
113134,note_on,22,0,2,,,,,,,,,,1,,69,0
113134,note_on,22,0,1,,,,,,,,,,0,,77,0
113136,note_on,2,0,1,,,,,,,,,,0,,79,127
113136,note_on,50,0,6,,,,,,,,,,6,,50,75
113136,note_on,50,0,7,,,,,,,,,,7,,50,75
113136,note_on,2,0,2,,,,,,,,,,1,,70,127
113158,note_on,22,0,1,,,,,,,,,,0,,79,0
113158,note_on,22,0,2,,,,,,,,,,1,,70,0
113160,note_on,2,0,1,,,,,,,,,,0,,77,127
113160,note_on,2,0,2,,,,,,,,,,1,,69,127
113182,note_on,46,0,7,,,,,,,,,,7,,50,0
113182,note_on,46,0,6,,,,,,,,,,6,,50,0
113182,note_on,22,0,2,,,,,,,,,,1,,69,0
113182,note_on,22,0,1,,,,,,,,,,0,,77,0
113184,note_on,2,0,2,,,,,,,,,,1,,67,127
113184,note_on,2,0,1,,,,,,,,,,0,,76,127
113184,note_on,2,0,6,,,,,,,,,,6,,52,75
113184,note_on,2,0,7,,,,,,,,,,7,,52,75
113206,note_on,22,0,1,,,,,,,,,,0,,76,0
113206,note_on,22,0,2,,,,,,,,,,1,,67,0
113208,note_on,2,0,2,,,,,,,,,,1,,65,127
113208,note_on,2,0,1,,,,,,,,,,0,,74,127
113230,note_on,22,0,1,,,,,,,,,,0,,74,0
113230,note_on,22,0,2,,,,,,,,,,1,,65,0
113232,note_on,2,0,1,,,,,,,,,,0,,76,127
113232,note_on,2,0,2,,,,,,,,,,1,,67,127
113254,note_on,22,0,2,,,,,,,,,,1,,67,0
113254,note_on,22,0,1,,,,,,,,,,0,,76,0
113256,note_on,2,0,2,,,,,,,,,,1,,69,127
113256,note_on,2,0,1,,,,,,,,,,0,,77,127
113278,note_on,22,0,2,,,,,,,,,,1,,69,0
113278,note_on,94,0,7,,,,,,,,,,7,,52,0
113278,note_on,22,0,1,,,,,,,,,,0,,77,0
113278,note_on,94,0,6,,,,,,,,,,6,,52,0
113280,note_on,2,0,6,,,,,,,,,,6,,49,75
113280,note_on,2,0,2,,,,,,,,,,1,,67,127
113280,note_on,2,0,1,,,,,,,,,,0,,76,127
113280,note_on,2,0,7,,,,,,,,,,7,,49,75
113302,note_on,22,0,2,,,,,,,,,,1,,67,0
113302,note_on,22,0,1,,,,,,,,,,0,,76,0
113304,note_on,2,0,1,,,,,,,,,,0,,74,127
113304,note_on,2,0,2,,,,,,,,,,1,,65,127
113326,note_on,22,0,2,,,,,,,,,,1,,65,0
113326,note_on,22,0,1,,,,,,,,,,0,,74,0
113328,note_on,2,0,1,,,,,,,,,,0,,76,127
113328,note_on,2,0,2,,,,,,,,,,1,,67,127
113350,note_on,22,0,1,,,,,,,,,,0,,76,0
113350,note_on,22,0,2,,,,,,,,,,1,,67,0
113352,note_on,2,0,1,,,,,,,,,,0,,77,127
113352,note_on,2,0,2,,,,,,,,,,1,,69,127
113374,note_on,94,0,6,,,,,,,,,,6,,49,0
113374,note_on,22,0,1,,,,,,,,,,0,,77,0
113374,note_on,94,0,7,,,,,,,,,,7,,49,0
113374,note_on,22,0,2,,,,,,,,,,1,,69,0
113376,note_on,2,0,1,,,,,,,,,,0,,77,127
113376,note_on,2,0,2,,,,,,,,,,1,,69,127
113398,note_on,22,0,1,,,,,,,,,,0,,77,0
113398,note_on,22,0,2,,,,,,,,,,1,,69,0
113400,note_on,2,0,1,,,,,,,,,,0,,76,127
113400,note_on,2,0,2,,,,,,,,,,1,,67,127
113422,note_on,22,0,1,,,,,,,,,,0,,76,0
113422,note_on,22,0,2,,,,,,,,,,1,,67,0
113424,note_on,50,0,7,,,,,,,,,,7,,49,75
113424,note_on,2,0,1,,,,,,,,,,0,,77,127
113424,note_on,2,0,2,,,,,,,,,,1,,69,127
113424,note_on,50,0,6,,,,,,,,,,6,,49,75
113446,note_on,22,0,2,,,,,,,,,,1,,69,0
113446,note_on,22,0,1,,,,,,,,,,0,,77,0
113448,note_on,2,0,1,,,,,,,,,,0,,76,127
113448,note_on,2,0,2,,,,,,,,,,1,,67,127
113470,note_on,22,0,1,,,,,,,,,,0,,76,0
113470,note_on,46,0,7,,,,,,,,,,7,,49,0
113470,note_on,22,0,2,,,,,,,,,,1,,67,0
113470,note_on,46,0,6,,,,,,,,,,6,,49,0
113472,note_on,2,0,6,,,,,,,,,,6,,50,75
113472,note_on,2,0,7,,,,,,,,,,7,,50,75
113472,note_on,2,0,2,,,,,,,,,,1,,65,127
113472,note_on,2,0,1,,,,,,,,,,0,,74,127
113494,note_on,22,0,2,,,,,,,,,,1,,65,0
113494,note_on,22,0,1,,,,,,,,,,0,,74,0
113496,note_on,2,0,1,,,,,,,,,,0,,73,127
113496,note_on,2,0,2,,,,,,,,,,1,,64,127
113518,note_on,22,0,1,,,,,,,,,,0,,73,0
113518,note_on,22,0,2,,,,,,,,,,1,,64,0
113520,note_on,2,0,2,,,,,,,,,,1,,65,127
113520,note_on,2,0,1,,,,,,,,,,0,,74,127
113542,note_on,22,0,2,,,,,,,,,,1,,65,0
113542,note_on,22,0,1,,,,,,,,,,0,,74,0
113544,note_on,2,0,2,,,,,,,,,,1,,67,127
113544,note_on,2,0,1,,,,,,,,,,0,,76,127
113566,note_on,94,0,6,,,,,,,,,,6,,50,0
113566,note_on,94,0,7,,,,,,,,,,7,,50,0
113566,note_on,22,0,2,,,,,,,,,,1,,67,0
113566,note_on,22,0,1,,,,,,,,,,0,,76,0
113568,note_on,2,0,2,,,,,,,,,,1,,65,127
113568,note_on,2,0,6,,,,,,,,,,6,,44,75
113568,note_on,2,0,7,,,,,,,,,,7,,44,75
113568,note_on,2,0,1,,,,,,,,,,0,,74,127
113590,note_on,22,0,2,,,,,,,,,,1,,65,0
113590,note_on,22,0,1,,,,,,,,,,0,,74,0
113592,note_on,2,0,1,,,,,,,,,,0,,73,127
113592,note_on,2,0,2,,,,,,,,,,1,,64,127
113614,note_on,22,0,2,,,,,,,,,,1,,64,0
113614,note_on,22,0,1,,,,,,,,,,0,,73,0
113616,note_on,2,0,1,,,,,,,,,,0,,74,127
113616,note_on,2,0,2,,,,,,,,,,1,,65,127
113638,note_on,22,0,2,,,,,,,,,,1,,65,0
113638,note_on,22,0,1,,,,,,,,,,0,,74,0
113640,note_on,2,0,1,,,,,,,,,,0,,76,127
113640,note_on,2,0,2,,,,,,,,,,1,,67,127
113662,note_on,22,0,2,,,,,,,,,,1,,67,0
113662,note_on,22,0,1,,,,,,,,,,0,,76,0
113662,note_on,94,0,6,,,,,,,,,,6,,44,0
113662,note_on,94,0,7,,,,,,,,,,7,,44,0
113664,note_on,2,0,1,,,,,,,,,,0,,74,127
113664,note_on,2,0,2,,,,,,,,,,1,,65,127
113686,note_on,22,0,2,,,,,,,,,,1,,65,0
113686,note_on,22,0,1,,,,,,,,,,0,,74,0
113688,note_on,2,0,2,,,,,,,,,,1,,64,127
113688,note_on,2,0,1,,,,,,,,,,0,,73,127
113710,note_on,22,0,2,,,,,,,,,,1,,64,0
113710,note_on,22,0,1,,,,,,,,,,0,,73,0
113712,note_on,2,0,1,,,,,,,,,,0,,74,127
113712,note_on,50,0,7,,,,,,,,,,7,,44,75
113712,note_on,50,0,6,,,,,,,,,,6,,44,75
113712,note_on,2,0,2,,,,,,,,,,1,,65,127
113734,note_on,22,0,1,,,,,,,,,,0,,74,0
113734,note_on,22,0,2,,,,,,,,,,1,,65,0
113736,note_on,2,0,1,,,,,,,,,,0,,76,127
113736,note_on,2,0,2,,,,,,,,,,1,,67,127
113758,note_on,46,0,7,,,,,,,,,,7,,44,0
113758,note_on,46,0,6,,,,,,,,,,6,,44,0
113758,note_on,22,0,2,,,,,,,,,,1,,67,0
113758,note_on,22,0,1,,,,,,,,,,0,,76,0
113760,note_on,2,0,2,,,,,,,,,,1,,64,127
113760,note_on,2,0,6,,,,,,,,,,6,,45,75
113760,note_on,0,0,1,,,,,,,,,,0,,73,127
113760,note_on,2,0,1,,,,,,,,,,0,,69,127
113760,note_on,2,0,7,,,,,,,,,,7,,45,75
113806,note_on,0,0,1,,,,,,,,,,0,,73,0
113806,note_on,46,0,1,,,,,,,,,,0,,69,0
113808,note_on,2,0,1,,,,,,,,,,0,,81,127
113854,note_on,94,0,6,,,,,,,,,,6,,45,0
113854,note_on,94,0,7,,,,,,,,,,7,,45,0
113854,note_on,46,0,1,,,,,,,,,,0,,81,0
113856,note_on,2,0,7,,,,,,,,,,7,,49,75
113856,note_on,2,0,6,,,,,,,,,,6,,49,75
113856,note_on,2,0,1,,,,,,,,,,0,,81,127
113902,note_on,46,0,1,,,,,,,,,,0,,81,0
113904,note_on,0,0,1,,,,,,,,,,0,,73,127
113904,note_on,2,0,1,,,,,,,,,,0,,69,127
113920,note_on,160,0,2,,,,,,,,,,1,,64,0
113950,note_on,94,0,6,,,,,,,,,,6,,49,0
113950,note_on,0,0,1,,,,,,,,,,0,,73,0
113950,note_on,46,0,1,,,,,,,,,,0,,69,0
113950,note_on,94,0,7,,,,,,,,,,7,,49,0
113952,note_on,2,0,6,,,,,,,,,,6,,45,75
113952,note_on,0,0,1,,,,,,,,,,0,,73,127
113952,note_on,2,0,1,,,,,,,,,,0,,69,127
113952,note_on,2,0,7,,,,,,,,,,7,,45,75
113998,note_on,46,0,1,,,,,,,,,,0,,69,0
113998,note_on,0,0,1,,,,,,,,,,0,,73,0
114000,note_on,0,0,1,,,,,,,,,,0,,74,127
114000,note_on,2,0,1,,,,,,,,,,0,,69,127
114046,note_on,94,0,6,,,,,,,,,,6,,45,0
114046,note_on,0,0,1,,,,,,,,,,0,,74,0
114046,note_on,94,0,7,,,,,,,,,,7,,45,0
114046,note_on,46,0,1,,,,,,,,,,0,,69,0
114048,note_on,2,0,6,,,,,,,,,,6,,50,75
114048,note_on,2,0,1,,,,,,,,,,0,,69,127
114048,note_on,2,0,7,,,,,,,,,,7,,50,75
114048,note_on,0,0,1,,,,,,,,,,0,,74,127
114094,note_on,46,0,1,,,,,,,,,,0,,69,0
114094,note_on,0,0,1,,,,,,,,,,0,,74,0
114096,note_on,2,0,1,,,,,,,,,,0,,81,127
114142,note_on,94,0,7,,,,,,,,,,7,,50,0
114142,note_on,46,0,1,,,,,,,,,,0,,81,0
114142,note_on,94,0,6,,,,,,,,,,6,,50,0
114144,note_on,2,0,6,,,,,,,,,,6,,53,75
114144,note_on,2,0,7,,,,,,,,,,7,,53,75
114144,note_on,2,0,1,,,,,,,,,,0,,81,127
114190,note_on,46,0,1,,,,,,,,,,0,,81,0
114192,note_on,0,0,1,,,,,,,,,,0,,74,127
114192,note_on,2,0,1,,,,,,,,,,0,,69,127
114238,note_on,94,0,6,,,,,,,,,,6,,53,0
114238,note_on,0,0,1,,,,,,,,,,0,,74,0
114238,note_on,46,0,1,,,,,,,,,,0,,69,0
114238,note_on,94,0,7,,,,,,,,,,7,,53,0
114240,note_on,2,0,1,,,,,,,,,,0,,69,127
114240,note_on,2,0,6,,,,,,,,,,6,,55,75
114240,note_on,0,0,1,,,,,,,,,,0,,74,127
114240,note_on,2,0,7,,,,,,,,,,7,,55,75
114286,note_on,46,0,1,,,,,,,,,,0,,69,0
114286,note_on,0,0,1,,,,,,,,,,0,,74,0
114288,note_on,2,0,1,,,,,,,,,,0,,69,127
114288,note_on,0,0,1,,,,,,,,,,0,,73,127
114334,note_on,0,0,1,,,,,,,,,,0,,73,0
114334,note_on,94,0,7,,,,,,,,,,7,,55,0
114334,note_on,46,0,1,,,,,,,,,,0,,69,0
114334,note_on,94,0,6,,,,,,,,,,6,,55,0
114336,note_on,2,0,6,,,,,,,,,,6,,57,75
114336,note_on,2,0,1,,,,,,,,,,0,,69,127
114336,note_on,0,0,1,,,,,,,,,,0,,73,127
114336,note_on,2,0,7,,,,,,,,,,7,,57,75
114360,note_on,440,0,2,,,,,,,,,,1,,69,92
114382,note_on,22,0,2,,,,,,,,,,1,,69,0
114384,note_on,2,0,2,,,,,,,,,,1,,69,92
114406,note_on,22,0,2,,,,,,,,,,1,,69,0
114408,note_on,2,0,2,,,,,,,,,,1,,69,92
114430,note_on,94,0,6,,,,,,,,,,6,,57,0
114430,note_on,94,0,1,,,,,,,,,,0,,69,0
114430,note_on,94,0,7,,,,,,,,,,7,,57,0
114430,note_on,22,0,2,,,,,,,,,,1,,69,0
114430,note_on,0,0,1,,,,,,,,,,0,,73,0
114432,note_on,2,0,7,,,,,,,,,,7,,50,75
114432,note_on,2,0,2,,,,,,,,,,1,,65,92
114432,note_on,2,0,6,,,,,,,,,,6,,50,75
114454,note_on,22,0,2,,,,,,,,,,1,,65,0
114456,note_on,2,0,2,,,,,,,,,,1,,62,92
114478,note_on,22,0,2,,,,,,,,,,1,,62,0
114480,note_on,2,0,2,,,,,,,,,,1,,62,92
114502,note_on,22,0,2,,,,,,,,,,1,,62,0
114504,note_on,2,0,2,,,,,,,,,,1,,62,92
114526,note_on,94,0,7,,,,,,,,,,7,,50,0
114526,note_on,94,0,6,,,,,,,,,,6,,50,0
114526,note_on,22,0,2,,,,,,,,,,1,,62,0
114528,note_on,2,0,2,,,,,,,,,,1,,65,92
114528,note_on,2,0,7,,,,,,,,,,7,,50,75
114528,note_on,2,0,6,,,,,,,,,,6,,50,75
114550,note_on,22,0,2,,,,,,,,,,1,,65,0
114552,note_on,2,0,2,,,,,,,,,,1,,69,92
114574,note_on,22,0,2,,,,,,,,,,1,,69,0
114576,note_on,2,0,2,,,,,,,,,,1,,69,92
114598,note_on,22,0,2,,,,,,,,,,1,,69,0
114600,note_on,2,0,2,,,,,,,,,,1,,69,92
114622,note_on,94,0,6,,,,,,,,,,6,,50,0
114622,note_on,22,0,2,,,,,,,,,,1,,69,0
114622,note_on,94,0,7,,,,,,,,,,7,,50,0
114624,note_on,2,0,6,,,,,,,,,,6,,55,75
114624,note_on,2,0,7,,,,,,,,,,7,,55,75
114624,note_on,2,0,2,,,,,,,,,,1,,70,92
114648,note_on,218,0,1,,,,,,,,,,0,,74,127
114670,note_on,46,0,2,,,,,,,,,,1,,70,0
114670,note_on,22,0,1,,,,,,,,,,0,,74,0
114672,note_on,2,0,2,,,,,,,,,,1,,67,92
114672,note_on,2,0,1,,,,,,,,,,0,,74,127
114694,note_on,22,0,1,,,,,,,,,,0,,74,0
114696,note_on,2,0,1,,,,,,,,,,0,,74,127
114718,note_on,22,0,1,,,,,,,,,,0,,74,0
114718,note_on,94,0,7,,,,,,,,,,7,,55,0
114718,note_on,46,0,2,,,,,,,,,,1,,67,0
114718,note_on,94,0,6,,,,,,,,,,6,,55,0
114720,note_on,2,0,1,,,,,,,,,,0,,79,127
114720,note_on,2,0,6,,,,,,,,,,6,,55,75
114720,note_on,2,0,2,,,,,,,,,,1,,70,92
114720,note_on,2,0,7,,,,,,,,,,7,,55,75
114742,note_on,22,0,1,,,,,,,,,,0,,79,0
114744,note_on,2,0,1,,,,,,,,,,0,,74,127
114766,note_on,22,0,1,,,,,,,,,,0,,74,0
114766,note_on,46,0,2,,,,,,,,,,1,,70,0
114768,note_on,2,0,1,,,,,,,,,,0,,74,127
114768,note_on,2,0,2,,,,,,,,,,1,,67,92
114790,note_on,22,0,1,,,,,,,,,,0,,74,0
114792,note_on,2,0,1,,,,,,,,,,0,,74,127
114814,note_on,94,0,7,,,,,,,,,,7,,55,0
114814,note_on,46,0,2,,,,,,,,,,1,,67,0
114814,note_on,22,0,1,,,,,,,,,,0,,74,0
114814,note_on,94,0,6,,,,,,,,,,6,,55,0
114816,note_on,2,0,1,,,,,,,,,,0,,82,127
114816,note_on,2,0,2,,,,,,,,,,1,,62,92
114838,note_on,22,0,1,,,,,,,,,,0,,82,0
114840,note_on,2,0,1,,,,,,,,,,0,,74,127
114862,note_on,22,0,1,,,,,,,,,,0,,74,0
114862,note_on,46,0,2,,,,,,,,,,1,,62,0
114864,note_on,2,0,2,,,,,,,,,,1,,67,92
114864,note_on,2,0,1,,,,,,,,,,0,,74,127
114864,note_on,50,0,6,,,,,,,,,,6,,55,75
114864,note_on,50,0,7,,,,,,,,,,7,,55,75
114886,note_on,22,0,1,,,,,,,,,,0,,74,0
114888,note_on,2,0,1,,,,,,,,,,0,,74,127
114910,note_on,46,0,6,,,,,,,,,,6,,55,0
114910,note_on,22,0,1,,,,,,,,,,0,,74,0
114910,note_on,46,0,2,,,,,,,,,,1,,67,0
114910,note_on,46,0,7,,,,,,,,,,7,,55,0
114912,note_on,2,0,1,,,,,,,,,,0,,76,127
114912,note_on,2,0,6,,,,,,,,,,6,,48,75
114912,note_on,2,0,7,,,,,,,,,,7,,48,75
114936,note_on,26,0,2,,,,,,,,,,1,,67,92
114958,note_on,22,0,2,,,,,,,,,,1,,67,0
114958,note_on,46,0,1,,,,,,,,,,0,,76,0
114960,note_on,2,0,1,,,,,,,,,,0,,72,127
114960,note_on,2,0,2,,,,,,,,,,1,,67,92
114982,note_on,22,0,2,,,,,,,,,,1,,67,0
114984,note_on,2,0,2,,,,,,,,,,1,,67,92
115006,note_on,46,0,1,,,,,,,,,,0,,72,0
115006,note_on,94,0,6,,,,,,,,,,6,,48,0
115006,note_on,94,0,7,,,,,,,,,,7,,48,0
115006,note_on,22,0,2,,,,,,,,,,1,,67,0
115008,note_on,2,0,2,,,,,,,,,,1,,64,92
115008,note_on,2,0,1,,,,,,,,,,0,,76,127
115008,note_on,2,0,6,,,,,,,,,,6,,48,75
115008,note_on,2,0,7,,,,,,,,,,7,,48,75
115030,note_on,22,0,2,,,,,,,,,,1,,64,0
115032,note_on,2,0,2,,,,,,,,,,1,,60,92
115054,note_on,46,0,1,,,,,,,,,,0,,76,0
115054,note_on,22,0,2,,,,,,,,,,1,,60,0
115056,note_on,2,0,1,,,,,,,,,,0,,72,127
115056,note_on,2,0,2,,,,,,,,,,1,,60,92
115078,note_on,22,0,2,,,,,,,,,,1,,60,0
115080,note_on,2,0,2,,,,,,,,,,1,,60,92
115102,note_on,94,0,7,,,,,,,,,,7,,48,0
115102,note_on,46,0,1,,,,,,,,,,0,,72,0
115102,note_on,22,0,2,,,,,,,,,,1,,60,0
115102,note_on,94,0,6,,,,,,,,,,6,,48,0
115104,note_on,2,0,1,,,,,,,,,,0,,79,127
115104,note_on,2,0,2,,,,,,,,,,1,,64,92
115126,note_on,22,0,2,,,,,,,,,,1,,64,0
115128,note_on,2,0,2,,,,,,,,,,1,,67,92
115150,note_on,46,0,1,,,,,,,,,,0,,79,0
115150,note_on,22,0,2,,,,,,,,,,1,,67,0
115152,note_on,50,0,6,,,,,,,,,,6,,48,75
115152,note_on,50,0,7,,,,,,,,,,7,,48,75
115152,note_on,2,0,1,,,,,,,,,,0,,72,127
115152,note_on,2,0,2,,,,,,,,,,1,,67,92
115174,note_on,22,0,2,,,,,,,,,,1,,67,0
115176,note_on,2,0,2,,,,,,,,,,1,,67,92
115198,note_on,46,0,6,,,,,,,,,,6,,48,0
115198,note_on,22,0,2,,,,,,,,,,1,,67,0
115198,note_on,46,0,7,,,,,,,,,,7,,48,0
115198,note_on,46,0,1,,,,,,,,,,0,,72,0
115200,note_on,2,0,7,,,,,,,,,,7,,53,75
115200,note_on,2,0,2,,,,,,,,,,1,,69,92
115200,note_on,2,0,6,,,,,,,,,,6,,53,75
115224,note_on,26,0,1,,,,,,,,,,0,,72,127
115246,note_on,46,0,2,,,,,,,,,,1,,69,0
115246,note_on,22,0,1,,,,,,,,,,0,,72,0
115248,note_on,2,0,2,,,,,,,,,,1,,65,92
115248,note_on,2,0,1,,,,,,,,,,0,,72,127
115270,note_on,22,0,1,,,,,,,,,,0,,72,0
115272,note_on,2,0,1,,,,,,,,,,0,,72,127
115294,note_on,94,0,7,,,,,,,,,,7,,53,0
115294,note_on,46,0,2,,,,,,,,,,1,,65,0
115294,note_on,94,0,6,,,,,,,,,,6,,53,0
115294,note_on,22,0,1,,,,,,,,,,0,,72,0
115296,note_on,2,0,2,,,,,,,,,,1,,69,92
115296,note_on,2,0,1,,,,,,,,,,0,,77,127
115296,note_on,2,0,7,,,,,,,,,,7,,53,75
115296,note_on,2,0,6,,,,,,,,,,6,,53,75
115318,note_on,22,0,1,,,,,,,,,,0,,77,0
115320,note_on,2,0,1,,,,,,,,,,0,,72,127
115342,note_on,22,0,1,,,,,,,,,,0,,72,0
115342,note_on,46,0,2,,,,,,,,,,1,,69,0
115344,note_on,2,0,2,,,,,,,,,,1,,65,92
115344,note_on,2,0,1,,,,,,,,,,0,,72,127
115366,note_on,22,0,1,,,,,,,,,,0,,72,0
115368,note_on,2,0,1,,,,,,,,,,0,,72,127
115390,note_on,94,0,6,,,,,,,,,,6,,53,0
115390,note_on,22,0,1,,,,,,,,,,0,,72,0
115390,note_on,94,0,7,,,,,,,,,,7,,53,0
115390,note_on,46,0,2,,,,,,,,,,1,,65,0
115392,note_on,2,0,2,,,,,,,,,,1,,60,92
115392,note_on,2,0,1,,,,,,,,,,0,,81,127
115414,note_on,22,0,1,,,,,,,,,,0,,81,0
115416,note_on,2,0,1,,,,,,,,,,0,,72,127
115438,note_on,22,0,1,,,,,,,,,,0,,72,0
115438,note_on,46,0,2,,,,,,,,,,1,,60,0
115440,note_on,2,0,1,,,,,,,,,,0,,72,127
115440,note_on,50,0,6,,,,,,,,,,6,,53,75
115440,note_on,50,0,7,,,,,,,,,,7,,53,75
115440,note_on,2,0,2,,,,,,,,,,1,,65,92
115462,note_on,22,0,1,,,,,,,,,,0,,72,0
115464,note_on,2,0,1,,,,,,,,,,0,,72,127
115486,note_on,22,0,1,,,,,,,,,,0,,72,0
115486,note_on,46,0,6,,,,,,,,,,6,,53,0
115486,note_on,46,0,7,,,,,,,,,,7,,53,0
115486,note_on,46,0,2,,,,,,,,,,1,,65,0
115488,note_on,2,0,1,,,,,,,,,,0,,74,127
115488,note_on,2,0,7,,,,,,,,,,7,,46,75
115488,note_on,2,0,6,,,,,,,,,,6,,46,75
115512,note_on,26,0,2,,,,,,,,,,1,,65,92
115534,note_on,22,0,2,,,,,,,,,,1,,65,0
115534,note_on,46,0,1,,,,,,,,,,0,,74,0
115536,note_on,2,0,2,,,,,,,,,,1,,65,92
115536,note_on,2,0,1,,,,,,,,,,0,,70,127
115558,note_on,22,0,2,,,,,,,,,,1,,65,0
115560,note_on,2,0,2,,,,,,,,,,1,,65,92
115582,note_on,94,0,6,,,,,,,,,,6,,46,0
115582,note_on,22,0,2,,,,,,,,,,1,,65,0
115582,note_on,94,0,7,,,,,,,,,,7,,46,0
115582,note_on,46,0,1,,,,,,,,,,0,,70,0
115584,note_on,2,0,6,,,,,,,,,,6,,46,75
115584,note_on,2,0,1,,,,,,,,,,0,,74,127
115584,note_on,2,0,7,,,,,,,,,,7,,46,75
115584,note_on,2,0,2,,,,,,,,,,1,,62,92
115606,note_on,22,0,2,,,,,,,,,,1,,62,0
115608,note_on,2,0,2,,,,,,,,,,1,,58,92
115630,note_on,46,0,1,,,,,,,,,,0,,74,0
115630,note_on,22,0,2,,,,,,,,,,1,,58,0
115632,note_on,2,0,2,,,,,,,,,,1,,58,92
115632,note_on,2,0,1,,,,,,,,,,0,,70,127
115654,note_on,22,0,2,,,,,,,,,,1,,58,0
115656,note_on,2,0,2,,,,,,,,,,1,,58,92
115678,note_on,46,0,1,,,,,,,,,,0,,70,0
115678,note_on,94,0,6,,,,,,,,,,6,,46,0
115678,note_on,22,0,2,,,,,,,,,,1,,58,0
115678,note_on,94,0,7,,,,,,,,,,7,,46,0
115680,note_on,2,0,2,,,,,,,,,,1,,62,92
115680,note_on,2,0,1,,,,,,,,,,0,,79,127
115702,note_on,22,0,2,,,,,,,,,,1,,62,0
115704,note_on,2,0,2,,,,,,,,,,1,,65,92
115726,note_on,46,0,1,,,,,,,,,,0,,79,0
115726,note_on,22,0,2,,,,,,,,,,1,,65,0
115728,note_on,2,0,2,,,,,,,,,,1,,65,92
115728,note_on,2,0,1,,,,,,,,,,0,,70,127
115728,note_on,50,0,7,,,,,,,,,,7,,46,75
115728,note_on,50,0,6,,,,,,,,,,6,,46,75
115750,note_on,22,0,2,,,,,,,,,,1,,65,0
115752,note_on,2,0,2,,,,,,,,,,1,,65,92
115774,note_on,22,0,2,,,,,,,,,,1,,65,0
115774,note_on,46,0,1,,,,,,,,,,0,,70,0
115774,note_on,46,0,7,,,,,,,,,,7,,46,0
115774,note_on,46,0,6,,,,,,,,,,6,,46,0
115776,note_on,2,0,7,,,,,,,,,,7,,43,75
115776,note_on,2,0,6,,,,,,,,,,6,,43,75
115776,note_on,2,0,2,,,,,,,,,,1,,67,92
115800,note_on,26,0,1,,,,,,,,,,0,,70,127
115822,note_on,46,0,2,,,,,,,,,,1,,67,0
115822,note_on,22,0,1,,,,,,,,,,0,,70,0
115824,note_on,2,0,2,,,,,,,,,,1,,64,92
115824,note_on,2,0,1,,,,,,,,,,0,,70,127
115846,note_on,22,0,1,,,,,,,,,,0,,70,0
115848,note_on,2,0,1,,,,,,,,,,0,,70,127
115870,note_on,46,0,2,,,,,,,,,,1,,64,0
115870,note_on,22,0,1,,,,,,,,,,0,,70,0
115870,note_on,94,0,6,,,,,,,,,,6,,43,0
115870,note_on,94,0,7,,,,,,,,,,7,,43,0
115872,note_on,2,0,1,,,,,,,,,,0,,76,127
115872,note_on,2,0,2,,,,,,,,,,1,,67,92
115872,note_on,2,0,7,,,,,,,,,,7,,43,75
115872,note_on,2,0,6,,,,,,,,,,6,,43,75
115894,note_on,22,0,1,,,,,,,,,,0,,76,0
115896,note_on,2,0,1,,,,,,,,,,0,,70,127
115918,note_on,22,0,1,,,,,,,,,,0,,70,0
115918,note_on,46,0,2,,,,,,,,,,1,,67,0
115920,note_on,2,0,1,,,,,,,,,,0,,70,127
115920,note_on,2,0,2,,,,,,,,,,1,,64,92
115942,note_on,22,0,1,,,,,,,,,,0,,70,0
115944,note_on,2,0,1,,,,,,,,,,0,,70,127
115966,note_on,22,0,1,,,,,,,,,,0,,70,0
115966,note_on,46,0,2,,,,,,,,,,1,,64,0
115966,note_on,94,0,6,,,,,,,,,,6,,43,0
115966,note_on,94,0,7,,,,,,,,,,7,,43,0
115968,note_on,2,0,1,,,,,,,,,,0,,79,127
115968,note_on,2,0,2,,,,,,,,,,1,,58,92
115990,note_on,22,0,1,,,,,,,,,,0,,79,0
115992,note_on,2,0,1,,,,,,,,,,0,,76,127
116014,note_on,22,0,1,,,,,,,,,,0,,76,0
116014,note_on,46,0,2,,,,,,,,,,1,,58,0
116016,note_on,2,0,2,,,,,,,,,,1,,64,92
116016,note_on,50,0,7,,,,,,,,,,7,,43,75
116016,note_on,50,0,6,,,,,,,,,,6,,43,75
116016,note_on,2,0,1,,,,,,,,,,0,,76,127
116038,note_on,22,0,1,,,,,,,,,,0,,76,0
116040,note_on,2,0,1,,,,,,,,,,0,,76,127
116062,note_on,46,0,6,,,,,,,,,,6,,43,0
116062,note_on,22,0,1,,,,,,,,,,0,,76,0
116062,note_on,46,0,2,,,,,,,,,,1,,64,0
116062,note_on,46,0,7,,,,,,,,,,7,,43,0
116064,note_on,2,0,1,,,,,,,,,,0,,73,127
116064,note_on,4160,0,4,,,,,,,,,,5,,57,92
116064,note_on,4160,0,3,,,,,,,,,,2,,57,60
116064,note_on,2,0,2,,,,,,,,,,1,,64,92
116086,note_on,22,0,2,,,,,,,,,,1,,64,0
116086,note_on,22,0,1,,,,,,,,,,0,,73,0
116088,note_on,2,0,1,,,,,,,,,,0,,69,127
116088,note_on,2,0,2,,,,,,,,,,1,,61,92
116110,note_on,22,0,1,,,,,,,,,,0,,69,0
116110,note_on,22,0,2,,,,,,,,,,1,,61,0
116112,note_on,2,0,1,,,,,,,,,,0,,69,127
116112,note_on,2,0,2,,,,,,,,,,1,,61,92
116134,note_on,22,0,1,,,,,,,,,,0,,69,0
116134,note_on,22,0,2,,,,,,,,,,1,,61,0
116136,note_on,2,0,2,,,,,,,,,,1,,61,92
116136,note_on,2,0,1,,,,,,,,,,0,,69,127
116158,note_on,94,0,4,,,,,,,,,,5,,57,0
116158,note_on,22,0,2,,,,,,,,,,1,,61,0
116158,note_on,22,0,1,,,,,,,,,,0,,69,0
116158,note_on,94,0,3,,,,,,,,,,2,,57,0
116160,note_on,2,0,2,,,,,,,,,,1,,64,92
116160,note_on,2,0,4,,,,,,,,,,5,,57,92
116160,note_on,2,0,1,,,,,,,,,,0,,73,127
116160,note_on,2,0,3,,,,,,,,,,2,,57,60
116182,note_on,22,0,2,,,,,,,,,,1,,64,0
116182,note_on,22,0,1,,,,,,,,,,0,,73,0
116184,note_on,2,0,2,,,,,,,,,,1,,61,92
116184,note_on,2,0,1,,,,,,,,,,0,,69,127
116206,note_on,22,0,2,,,,,,,,,,1,,61,0
116206,note_on,22,0,1,,,,,,,,,,0,,69,0
116208,note_on,2,0,2,,,,,,,,,,1,,61,92
116208,note_on,2,0,1,,,,,,,,,,0,,69,127
116230,note_on,22,0,1,,,,,,,,,,0,,69,0
116230,note_on,22,0,2,,,,,,,,,,1,,61,0
116232,note_on,2,0,1,,,,,,,,,,0,,69,127
116232,note_on,2,0,2,,,,,,,,,,1,,61,92
116254,note_on,22,0,1,,,,,,,,,,0,,69,0
116254,note_on,94,0,4,,,,,,,,,,5,,57,0
116254,note_on,22,0,2,,,,,,,,,,1,,61,0
116254,note_on,94,0,3,,,,,,,,,,2,,57,0
116256,note_on,2,0,1,,,,,,,,,,0,,79,127
116256,note_on,2,0,2,,,,,,,,,,1,,64,92
116278,note_on,22,0,1,,,,,,,,,,0,,79,0
116278,note_on,22,0,2,,,,,,,,,,1,,64,0
116280,note_on,2,0,2,,,,,,,,,,1,,61,92
116280,note_on,2,0,1,,,,,,,,,,0,,76,127
116302,note_on,22,0,2,,,,,,,,,,1,,61,0
116302,note_on,22,0,1,,,,,,,,,,0,,76,0
116304,note_on,2,0,2,,,,,,,,,,1,,61,92
116304,note_on,2,0,1,,,,,,,,,,0,,76,127
116304,note_on,50,0,3,,,,,,,,,,2,,57,60
116304,note_on,50,0,4,,,,,,,,,,5,,57,92
116326,note_on,22,0,2,,,,,,,,,,1,,61,0
116326,note_on,22,0,1,,,,,,,,,,0,,76,0
116328,note_on,2,0,2,,,,,,,,,,1,,61,92
116328,note_on,2,0,1,,,,,,,,,,0,,76,127
116350,note_on,46,0,4,,,,,,,,,,5,,57,0
116350,note_on,46,0,3,,,,,,,,,,2,,57,0
116350,note_on,22,0,2,,,,,,,,,,1,,61,0
116350,note_on,22,0,1,,,,,,,,,,0,,76,0
116352,note_on,2,0,3,,,,,,,,,,2,,62,60
116352,note_on,2,0,4,,,,,,,,,,5,,62,92
116352,note_on,2,0,2,,,,,,,,,,1,,62,92
116352,note_on,2,0,1,,,,,,,,,,0,,77,127
116374,note_on,22,0,2,,,,,,,,,,1,,62,0
116374,note_on,22,0,1,,,,,,,,,,0,,77,0
116376,note_on,2,0,2,,,,,,,,,,1,,65,92
116376,note_on,2,0,1,,,,,,,,,,0,,81,127
116398,note_on,22,0,2,,,,,,,,,,1,,65,0
116398,note_on,22,0,1,,,,,,,,,,0,,81,0
116400,note_on,2,0,2,,,,,,,,,,1,,65,92
116400,note_on,2,0,1,,,,,,,,,,0,,81,127
116422,note_on,22,0,2,,,,,,,,,,1,,65,0
116422,note_on,22,0,1,,,,,,,,,,0,,81,0
116424,note_on,2,0,2,,,,,,,,,,1,,65,92
116424,note_on,2,0,1,,,,,,,,,,0,,81,127
116446,note_on,94,0,3,,,,,,,,,,2,,62,0
116446,note_on,22,0,2,,,,,,,,,,1,,65,0
116446,note_on,94,0,4,,,,,,,,,,5,,62,0
116446,note_on,22,0,1,,,,,,,,,,0,,81,0
116448,note_on,2,0,4,,,,,,,,,,5,,62,92
116448,note_on,2,0,1,,,,,,,,,,0,,77,127
116448,note_on,2,0,2,,,,,,,,,,1,,62,92
116448,note_on,2,0,3,,,,,,,,,,2,,62,60
116470,note_on,22,0,2,,,,,,,,,,1,,62,0
116470,note_on,22,0,1,,,,,,,,,,0,,77,0
116472,note_on,2,0,1,,,,,,,,,,0,,74,127
116472,note_on,2,0,2,,,,,,,,,,1,,65,92
116494,note_on,22,0,1,,,,,,,,,,0,,74,0
116494,note_on,22,0,2,,,,,,,,,,1,,65,0
116496,note_on,2,0,2,,,,,,,,,,1,,65,92
116496,note_on,2,0,1,,,,,,,,,,0,,74,127
116518,note_on,22,0,1,,,,,,,,,,0,,74,0
116518,note_on,22,0,2,,,,,,,,,,1,,65,0
116520,note_on,2,0,1,,,,,,,,,,0,,74,127
116520,note_on,2,0,2,,,,,,,,,,1,,65,92
116542,note_on,22,0,2,,,,,,,,,,1,,65,0
116542,note_on,94,0,3,,,,,,,,,,2,,62,0
116542,note_on,22,0,1,,,,,,,,,,0,,74,0
116542,note_on,94,0,4,,,,,,,,,,5,,62,0
116544,note_on,2,0,2,,,,,,,,,,1,,62,92
116544,note_on,2,0,1,,,,,,,,,,0,,69,127
116566,note_on,22,0,2,,,,,,,,,,1,,62,0
116566,note_on,22,0,1,,,,,,,,,,0,,69,0
116568,note_on,2,0,2,,,,,,,,,,1,,69,92
116568,note_on,2,0,1,,,,,,,,,,0,,77,127
116590,note_on,22,0,2,,,,,,,,,,1,,69,0
116590,note_on,22,0,1,,,,,,,,,,0,,77,0
116592,note_on,50,0,4,,,,,,,,,,5,,62,92
116592,note_on,2,0,2,,,,,,,,,,1,,69,92
116592,note_on,50,0,3,,,,,,,,,,2,,62,60
116592,note_on,2,0,1,,,,,,,,,,0,,77,127
116614,note_on,22,0,2,,,,,,,,,,1,,69,0
116614,note_on,22,0,1,,,,,,,,,,0,,77,0
116616,note_on,2,0,1,,,,,,,,,,0,,77,127
116616,note_on,2,0,2,,,,,,,,,,1,,69,92
116638,note_on,22,0,1,,,,,,,,,,0,,77,0
116638,note_on,22,0,2,,,,,,,,,,1,,69,0
116638,note_on,46,0,3,,,,,,,,,,2,,62,0
116638,note_on,46,0,4,,,,,,,,,,5,,62,0
116640,note_on,2,0,1,,,,,,,,,,0,,76,127
116640,note_on,2,0,4,,,,,,,,,,5,,57,92
116640,note_on,2,0,3,,,,,,,,,,2,,57,60
116640,note_on,2,0,2,,,,,,,,,,1,,61,92
116662,note_on,22,0,1,,,,,,,,,,0,,76,0
116662,note_on,22,0,2,,,,,,,,,,1,,61,0
116664,note_on,2,0,1,,,,,,,,,,0,,81,127
116664,note_on,2,0,2,,,,,,,,,,1,,64,92
116686,note_on,22,0,2,,,,,,,,,,1,,64,0
116686,note_on,22,0,1,,,,,,,,,,0,,81,0
116688,note_on,2,0,1,,,,,,,,,,0,,81,127
116688,note_on,2,0,2,,,,,,,,,,1,,64,92
116710,note_on,22,0,1,,,,,,,,,,0,,81,0
116710,note_on,22,0,2,,,,,,,,,,1,,64,0
116712,note_on,2,0,2,,,,,,,,,,1,,64,92
116712,note_on,2,0,1,,,,,,,,,,0,,81,127
116734,note_on,22,0,1,,,,,,,,,,0,,81,0
116734,note_on,94,0,3,,,,,,,,,,2,,57,0
116734,note_on,94,0,4,,,,,,,,,,5,,57,0
116734,note_on,22,0,2,,,,,,,,,,1,,64,0
116736,note_on,2,0,1,,,,,,,,,,0,,76,127
116736,note_on,2,0,2,,,,,,,,,,1,,61,92
116736,note_on,2,0,3,,,,,,,,,,2,,57,60
116736,note_on,2,0,4,,,,,,,,,,5,,57,92
116758,note_on,22,0,1,,,,,,,,,,0,,76,0
116758,note_on,22,0,2,,,,,,,,,,1,,61,0
116760,note_on,2,0,1,,,,,,,,,,0,,73,127
116760,note_on,2,0,2,,,,,,,,,,1,,69,92
116782,note_on,22,0,2,,,,,,,,,,1,,69,0
116782,note_on,22,0,1,,,,,,,,,,0,,73,0
116784,note_on,2,0,1,,,,,,,,,,0,,73,127
116784,note_on,2,0,2,,,,,,,,,,1,,69,92
116806,note_on,22,0,2,,,,,,,,,,1,,69,0
116806,note_on,22,0,1,,,,,,,,,,0,,73,0
116808,note_on,2,0,2,,,,,,,,,,1,,69,92
116808,note_on,2,0,1,,,,,,,,,,0,,73,127
116830,note_on,94,0,4,,,,,,,,,,5,,57,0
116830,note_on,22,0,1,,,,,,,,,,0,,73,0
116830,note_on,94,0,3,,,,,,,,,,2,,57,0
116830,note_on,22,0,2,,,,,,,,,,1,,69,0
116832,note_on,2,0,2,,,,,,,,,,1,,64,92
116832,note_on,2,0,1,,,,,,,,,,0,,69,127
116854,note_on,22,0,2,,,,,,,,,,1,,64,0
116854,note_on,22,0,1,,,,,,,,,,0,,69,0
116856,note_on,2,0,2,,,,,,,,,,1,,61,92
116856,note_on,2,0,1,,,,,,,,,,0,,76,127
116878,note_on,22,0,1,,,,,,,,,,0,,76,0
116878,note_on,22,0,2,,,,,,,,,,1,,61,0
116880,note_on,2,0,1,,,,,,,,,,0,,76,127
116880,note_on,50,0,3,,,,,,,,,,2,,57,60
116880,note_on,2,0,2,,,,,,,,,,1,,61,92
116880,note_on,50,0,4,,,,,,,,,,5,,57,92
116902,note_on,22,0,1,,,,,,,,,,0,,76,0
116902,note_on,22,0,2,,,,,,,,,,1,,61,0
116904,note_on,2,0,2,,,,,,,,,,1,,61,92
116904,note_on,2,0,1,,,,,,,,,,0,,76,127
116926,note_on,46,0,3,,,,,,,,,,2,,57,0
116926,note_on,22,0,1,,,,,,,,,,0,,76,0
116926,note_on,22,0,2,,,,,,,,,,1,,61,0
116926,note_on,46,0,4,,,,,,,,,,5,,57,0
116928,note_on,2,0,2,,,,,,,,,,1,,62,92
116928,note_on,2,0,3,,,,,,,,,,2,,62,60
116928,note_on,2,0,1,,,,,,,,,,0,,77,127
116928,note_on,2,0,4,,,,,,,,,,5,,62,92
116974,note_on,46,0,1,,,,,,,,,,0,,77,0
116976,note_on,2,0,1,,,,,,,,,,0,,74,127
116998,note_on,22,0,1,,,,,,,,,,0,,74,0
117000,note_on,2,0,1,,,,,,,,,,0,,76,127
117022,note_on,94,0,4,,,,,,,,,,5,,62,0
117022,note_on,22,0,1,,,,,,,,,,0,,76,0
117022,note_on,94,0,3,,,,,,,,,,2,,62,0
117024,note_on,2,0,3,,,,,,,,,,2,,62,60
117024,note_on,2,0,4,,,,,,,,,,5,,62,92
117024,note_on,2,0,1,,,,,,,,,,0,,77,127
117070,note_on,46,0,1,,,,,,,,,,0,,77,0
117072,note_on,2,0,1,,,,,,,,,,0,,77,127
117088,note_on,160,0,2,,,,,,,,,,1,,62,0
117094,note_on,22,0,1,,,,,,,,,,0,,77,0
117096,note_on,2,0,1,,,,,,,,,,0,,79,127
117118,note_on,22,0,1,,,,,,,,,,0,,79,0
117118,note_on,94,0,4,,,,,,,,,,5,,62,0
117118,note_on,94,0,3,,,,,,,,,,2,,62,0
117120,note_on,2,0,1,,,,,,,,,,0,,81,127
117168,note_on,50,0,3,,,,,,,,,,2,,62,60
117168,note_on,50,0,4,,,,,,,,,,5,,62,92
117214,note_on,46,0,4,,,,,,,,,,5,,62,0
117214,note_on,94,0,1,,,,,,,,,,0,,81,0
117214,note_on,46,0,3,,,,,,,,,,2,,62,0
117216,note_on,128,0,2,,,,,,,,,,1,,65,92
117216,note_on,2,0,4,,,,,,,,,,5,,62,92
117216,note_on,2,0,3,,,,,,,,,,2,,62,60
117262,note_on,46,0,2,,,,,,,,,,1,,65,0
117264,note_on,2,0,2,,,,,,,,,,1,,62,92
117286,note_on,22,0,2,,,,,,,,,,1,,62,0
117288,note_on,2,0,2,,,,,,,,,,1,,64,92
117310,note_on,94,0,3,,,,,,,,,,2,,62,0
117310,note_on,22,0,2,,,,,,,,,,1,,64,0
117310,note_on,94,0,4,,,,,,,,,,5,,62,0
117312,note_on,2,0,4,,,,,,,,,,5,,62,92
117312,note_on,2,0,2,,,,,,,,,,1,,65,92
117312,note_on,2,0,3,,,,,,,,,,2,,62,60
117358,note_on,46,0,2,,,,,,,,,,1,,65,0
117360,note_on,2,0,2,,,,,,,,,,1,,65,92
117382,note_on,22,0,2,,,,,,,,,,1,,65,0
117384,note_on,2,0,2,,,,,,,,,,1,,67,92
117406,note_on,22,0,2,,,,,,,,,,1,,67,0
117406,note_on,94,0,3,,,,,,,,,,2,,62,0
117406,note_on,94,0,4,,,,,,,,,,5,,62,0
117408,note_on,2,0,2,,,,,,,,,,1,,69,92
117456,note_on,50,0,3,,,,,,,,,,2,,62,60
117456,note_on,50,0,4,,,,,,,,,,5,,62,92
117502,note_on,94,0,2,,,,,,,,,,1,,69,0
117502,note_on,46,0,3,,,,,,,,,,2,,62,0
117502,note_on,46,0,4,,,,,,,,,,5,,62,0
117504,note_on,290,0,1,,,,,,,,,,0,,65,127
117504,note_on,2,0,4,,,,,,,,,,5,,62,92
117504,note_on,2,0,3,,,,,,,,,,2,,62,60
117550,note_on,46,0,1,,,,,,,,,,0,,65,0
117552,note_on,2,0,1,,,,,,,,,,0,,69,127
117598,note_on,46,0,1,,,,,,,,,,0,,69,0
117598,note_on,94,0,3,,,,,,,,,,2,,62,0
117598,note_on,94,0,4,,,,,,,,,,5,,62,0
117600,note_on,2,0,4,,,,,,,,,,5,,62,92
117600,note_on,2,0,3,,,,,,,,,,2,,62,60
117600,note_on,2,0,1,,,,,,,,,,0,,74,127
117646,note_on,46,0,1,,,,,,,,,,0,,74,0
117648,note_on,2,0,1,,,,,,,,,,0,,77,127
117694,note_on,94,0,4,,,,,,,,,,5,,62,0
117694,note_on,46,0,1,,,,,,,,,,0,,77,0
117694,note_on,94,0,3,,,,,,,,,,2,,62,0
117696,note_on,2,0,1,,,,,,,,,,0,,74,127
117742,note_on,46,0,1,,,,,,,,,,0,,74,0
117744,note_on,2,0,1,,,,,,,,,,0,,69,127
117744,note_on,50,0,3,,,,,,,,,,2,,62,60
117744,note_on,50,0,4,,,,,,,,,,5,,62,92
117790,note_on,46,0,3,,,,,,,,,,2,,62,0
117790,note_on,46,0,1,,,,,,,,,,0,,69,0
117790,note_on,46,0,4,,,,,,,,,,5,,62,0
117792,note_on,2,0,1,,,,,,,,,,0,,69,127
117792,note_on,2,0,3,,,,,,,,,,2,,57,60
117792,note_on,2,0,4,,,,,,,,,,5,,57,92
117838,note_on,46,0,1,,,,,,,,,,0,,69,0
117840,note_on,2,0,1,,,,,,,,,,0,,73,127
117886,note_on,94,0,3,,,,,,,,,,2,,57,0
117886,note_on,46,0,1,,,,,,,,,,0,,73,0
117886,note_on,94,0,4,,,,,,,,,,5,,57,0
117888,note_on,2,0,4,,,,,,,,,,5,,57,92
117888,note_on,2,0,3,,,,,,,,,,2,,57,60
117888,note_on,2,0,1,,,,,,,,,,0,,76,127
117934,note_on,46,0,1,,,,,,,,,,0,,76,0
117936,note_on,2,0,1,,,,,,,,,,0,,73,127
117982,note_on,46,0,1,,,,,,,,,,0,,73,0
117982,note_on,94,0,4,,,,,,,,,,5,,57,0
117982,note_on,94,0,3,,,,,,,,,,2,,57,0
117984,note_on,2,0,1,,,,,,,,,,0,,69,127
118032,note_on,50,0,4,,,,,,,,,,5,,57,92
118032,note_on,50,0,3,,,,,,,,,,2,,57,60
118078,note_on,46,0,3,,,,,,,,,,2,,57,0
118078,note_on,94,0,1,,,,,,,,,,0,,69,0
118078,note_on,46,0,4,,,,,,,,,,5,,57,0
118080,note_on,2,0,4,,,,,,,,,,5,,62,92
118080,note_on,2,0,1,,,,,,,,,,0,,65,127
118080,note_on,2,0,3,,,,,,,,,,2,,62,60
118102,note_on,22,0,1,,,,,,,,,,0,,65,0
118104,note_on,2,0,1,,,,,,,,,,0,,69,127
118126,note_on,22,0,1,,,,,,,,,,0,,69,0
118128,note_on,2,0,1,,,,,,,,,,0,,74,127
118150,note_on,22,0,1,,,,,,,,,,0,,74,0
118152,note_on,2,0,1,,,,,,,,,,0,,77,127
118174,note_on,94,0,3,,,,,,,,,,2,,62,0
118174,note_on,22,0,1,,,,,,,,,,0,,77,0
118174,note_on,94,0,4,,,,,,,,,,5,,62,0
118176,note_on,2,0,1,,,,,,,,,,0,,74,127
118176,note_on,2,0,3,,,,,,,,,,2,,62,60
118176,note_on,2,0,4,,,,,,,,,,5,,62,92
118198,note_on,22,0,1,,,,,,,,,,0,,74,0
118200,note_on,2,0,1,,,,,,,,,,0,,69,127
118222,note_on,22,0,1,,,,,,,,,,0,,69,0
118224,note_on,2,0,1,,,,,,,,,,0,,65,127
118246,note_on,22,0,1,,,,,,,,,,0,,65,0
118248,note_on,2,0,1,,,,,,,,,,0,,69,127
118270,note_on,94,0,4,,,,,,,,,,5,,62,0
118270,note_on,94,0,3,,,,,,,,,,2,,62,0
118270,note_on,22,0,1,,,,,,,,,,0,,69,0
118272,note_on,2,0,1,,,,,,,,,,0,,74,127
118294,note_on,22,0,1,,,,,,,,,,0,,74,0
118296,note_on,2,0,1,,,,,,,,,,0,,77,127
118318,note_on,22,0,1,,,,,,,,,,0,,77,0
118320,note_on,50,0,4,,,,,,,,,,5,,62,92
118320,note_on,2,0,1,,,,,,,,,,0,,74,127
118320,note_on,50,0,3,,,,,,,,,,2,,62,60
118342,note_on,22,0,1,,,,,,,,,,0,,74,0
118344,note_on,2,0,1,,,,,,,,,,0,,69,127
118366,note_on,22,0,1,,,,,,,,,,0,,69,0
118366,note_on,46,0,3,,,,,,,,,,2,,62,0
118366,note_on,46,0,4,,,,,,,,,,5,,62,0
118368,note_on,2,0,3,,,,,,,,,,2,,57,60
118368,note_on,2,0,1,,,,,,,,,,0,,69,127
118368,note_on,2,0,4,,,,,,,,,,5,,57,92
118390,note_on,22,0,1,,,,,,,,,,0,,69,0
118392,note_on,2,0,1,,,,,,,,,,0,,73,127
118414,note_on,22,0,1,,,,,,,,,,0,,73,0
118416,note_on,2,0,1,,,,,,,,,,0,,76,127
118438,note_on,22,0,1,,,,,,,,,,0,,76,0
118440,note_on,2,0,1,,,,,,,,,,0,,73,127
118462,note_on,22,0,1,,,,,,,,,,0,,73,0
118462,note_on,94,0,4,,,,,,,,,,5,,57,0
118462,note_on,94,0,3,,,,,,,,,,2,,57,0
118464,note_on,2,0,1,,,,,,,,,,0,,69,127
118464,note_on,2,0,4,,,,,,,,,,5,,57,92
118464,note_on,2,0,3,,,,,,,,,,2,,57,60
118486,note_on,22,0,1,,,,,,,,,,0,,69,0
118488,note_on,2,0,1,,,,,,,,,,0,,73,127
118510,note_on,22,0,1,,,,,,,,,,0,,73,0
118512,note_on,2,0,1,,,,,,,,,,0,,76,127
118534,note_on,22,0,1,,,,,,,,,,0,,76,0
118536,note_on,2,0,1,,,,,,,,,,0,,73,127
118558,note_on,94,0,4,,,,,,,,,,5,,57,0
118558,note_on,94,0,3,,,,,,,,,,2,,57,0
118558,note_on,22,0,1,,,,,,,,,,0,,73,0
118560,note_on,2,0,1,,,,,,,,,,0,,69,127
118608,note_on,50,0,4,,,,,,,,,,5,,57,92
118608,note_on,50,0,3,,,,,,,,,,2,,57,60
118654,note_on,94,0,1,,,,,,,,,,0,,69,0
118654,note_on,46,0,4,,,,,,,,,,5,,57,0
118654,note_on,46,0,3,,,,,,,,,,2,,57,0
118656,note_on,2594,0,7,,,,,,,,,,7,,50,75
118656,note_on,2,0,4,,,,,,,,,,5,,62,92
118656,note_on,2594,0,6,,,,,,,,,,6,,50,75
118656,note_on,1154,0,2,,,,,,,,,,1,,62,92
118656,note_on,2,0,3,,,,,,,,,,2,,62,60
118702,note_on,46,0,2,,,,,,,,,,1,,62,0
118704,note_on,2,0,2,,,,,,,,,,1,,65,92
118750,note_on,94,0,6,,,,,,,,,,6,,50,0
118750,note_on,94,0,7,,,,,,,,,,7,,50,0
118750,note_on,46,0,2,,,,,,,,,,1,,65,0
118752,note_on,2,0,6,,,,,,,,,,6,,50,75
118752,note_on,2,0,7,,,,,,,,,,7,,50,75
118752,note_on,2,0,2,,,,,,,,,,1,,69,92
118798,note_on,46,0,2,,,,,,,,,,1,,69,0
118800,note_on,2,0,2,,,,,,,,,,1,,65,92
118816,note_on,160,0,4,,,,,,,,,,5,,62,0
118816,note_on,160,0,3,,,,,,,,,,2,,62,0
118846,note_on,46,0,2,,,,,,,,,,1,,65,0
118846,note_on,94,0,6,,,,,,,,,,6,,50,0
118846,note_on,94,0,7,,,,,,,,,,7,,50,0
118848,note_on,2,0,2,,,,,,,,,,1,,62,92
118894,note_on,46,0,2,,,,,,,,,,1,,62,0
118896,note_on,50,0,6,,,,,,,,,,6,,50,75
118896,note_on,2,0,2,,,,,,,,,,1,,65,92
118896,note_on,50,0,7,,,,,,,,,,7,,50,75
118942,note_on,46,0,7,,,,,,,,,,7,,50,0
118942,note_on,46,0,2,,,,,,,,,,1,,65,0
118942,note_on,46,0,6,,,,,,,,,,6,,50,0
118944,note_on,2,0,6,,,,,,,,,,6,,45,75
118944,note_on,2,0,7,,,,,,,,,,7,,45,75
118944,note_on,2,0,2,,,,,,,,,,1,,61,92
118990,note_on,46,0,2,,,,,,,,,,1,,61,0
118992,note_on,2,0,2,,,,,,,,,,1,,64,92
119038,note_on,46,0,2,,,,,,,,,,1,,64,0
119038,note_on,94,0,6,,,,,,,,,,6,,45,0
119038,note_on,94,0,7,,,,,,,,,,7,,45,0
119040,note_on,2,0,2,,,,,,,,,,1,,69,92
119040,note_on,2,0,7,,,,,,,,,,7,,45,75
119040,note_on,2,0,6,,,,,,,,,,6,,45,75
119086,note_on,46,0,2,,,,,,,,,,1,,69,0
119088,note_on,2,0,2,,,,,,,,,,1,,64,92
119134,note_on,94,0,7,,,,,,,,,,7,,45,0
119134,note_on,94,0,6,,,,,,,,,,6,,45,0
119134,note_on,46,0,2,,,,,,,,,,1,,64,0
119136,note_on,2,0,2,,,,,,,,,,1,,61,92
119182,note_on,46,0,2,,,,,,,,,,1,,61,0
119184,note_on,2,0,2,,,,,,,,,,1,,64,92
119184,note_on,50,0,7,,,,,,,,,,7,,45,75
119184,note_on,50,0,6,,,,,,,,,,6,,45,75
119230,note_on,46,0,2,,,,,,,,,,1,,64,0
119230,note_on,46,0,7,,,,,,,,,,7,,45,0
119230,note_on,46,0,6,,,,,,,,,,6,,45,0
119232,note_on,2,0,7,,,,,,,,,,7,,50,75
119232,note_on,2,0,2,,,,,,,,,,1,,62,92
119232,note_on,2,0,6,,,,,,,,,,6,,50,75
119278,note_on,46,0,2,,,,,,,,,,1,,62,0
119280,note_on,2,0,2,,,,,,,,,,1,,65,92
119326,note_on,46,0,2,,,,,,,,,,1,,65,0
119326,note_on,94,0,6,,,,,,,,,,6,,50,0
119326,note_on,94,0,7,,,,,,,,,,7,,50,0
119328,note_on,2,0,7,,,,,,,,,,7,,50,75
119328,note_on,2,0,6,,,,,,,,,,6,,50,75
119328,note_on,2,0,2,,,,,,,,,,1,,69,92
119374,note_on,46,0,2,,,,,,,,,,1,,69,0
119376,note_on,2,0,2,,,,,,,,,,1,,65,92
119422,note_on,94,0,7,,,,,,,,,,7,,50,0
119422,note_on,94,0,6,,,,,,,,,,6,,50,0
119422,note_on,46,0,2,,,,,,,,,,1,,65,0
119424,note_on,2,0,2,,,,,,,,,,1,,62,92
119470,note_on,46,0,2,,,,,,,,,,1,,62,0
119472,note_on,50,0,6,,,,,,,,,,6,,50,75
119472,note_on,2,0,2,,,,,,,,,,1,,65,92
119472,note_on,50,0,7,,,,,,,,,,7,,50,75
119518,note_on,46,0,7,,,,,,,,,,7,,50,0
119518,note_on,46,0,2,,,,,,,,,,1,,65,0
119518,note_on,46,0,6,,,,,,,,,,6,,50,0
119520,note_on,2,0,2,,,,,,,,,,1,,61,92
119520,note_on,2,0,7,,,,,,,,,,7,,45,75
119520,note_on,2,0,6,,,,,,,,,,6,,45,75
119566,note_on,46,0,2,,,,,,,,,,1,,61,0
119568,note_on,2,0,2,,,,,,,,,,1,,64,92
119614,note_on,46,0,2,,,,,,,,,,1,,64,0
119614,note_on,94,0,7,,,,,,,,,,7,,45,0
119614,note_on,94,0,6,,,,,,,,,,6,,45,0
119616,note_on,2,0,2,,,,,,,,,,1,,69,92
119616,note_on,2,0,6,,,,,,,,,,6,,45,75
119616,note_on,2,0,7,,,,,,,,,,7,,45,75
119662,note_on,46,0,2,,,,,,,,,,1,,69,0
119664,note_on,2,0,2,,,,,,,,,,1,,64,92
119710,note_on,94,0,6,,,,,,,,,,6,,45,0
119710,note_on,94,0,7,,,,,,,,,,7,,45,0
119710,note_on,46,0,2,,,,,,,,,,1,,64,0
119712,note_on,2,0,2,,,,,,,,,,1,,61,92
119758,note_on,46,0,2,,,,,,,,,,1,,61,0
119760,note_on,50,0,6,,,,,,,,,,6,,45,75
119760,note_on,50,0,7,,,,,,,,,,7,,45,75
119760,note_on,2,0,2,,,,,,,,,,1,,64,92
119806,note_on,46,0,7,,,,,,,,,,7,,45,0
119806,note_on,46,0,2,,,,,,,,,,1,,64,0
119806,note_on,46,0,6,,,,,,,,,,6,,45,0
119808,note_on,1154,0,1,,,,,,,,,,0,,74,127
119808,note_on,2,0,6,,,,,,,,,,6,,50,75
119808,note_on,2,0,7,,,,,,,,,,7,,50,75
119808,note_on,2,0,2,,,,,,,,,,1,,62,92
119808,note_on,992,0,3,,,,,,,,,,2,,62,60
119808,note_on,992,0,4,,,,,,,,,,5,,62,92
119830,note_on,22,0,1,,,,,,,,,,0,,74,0
119832,note_on,2,0,1,,,,,,,,,,0,,73,127
119854,note_on,22,0,1,,,,,,,,,,0,,73,0
119856,note_on,2,0,1,,,,,,,,,,0,,74,127
119878,note_on,22,0,1,,,,,,,,,,0,,74,0
119880,note_on,2,0,1,,,,,,,,,,0,,76,127
119902,note_on,94,0,2,,,,,,,,,,1,,62,0
119902,note_on,22,0,1,,,,,,,,,,0,,76,0
119902,note_on,94,0,4,,,,,,,,,,5,,62,0
119902,note_on,94,0,3,,,,,,,,,,2,,62,0
119904,note_on,2,0,1,,,,,,,,,,0,,77,127
119904,note_on,2,0,3,,,,,,,,,,2,,62,60
119904,note_on,2,0,4,,,,,,,,,,5,,62,92
119926,note_on,22,0,1,,,,,,,,,,0,,77,0
119928,note_on,2,0,1,,,,,,,,,,0,,76,127
119950,note_on,22,0,1,,,,,,,,,,0,,76,0
119952,note_on,2,0,1,,,,,,,,,,0,,77,127
119968,note_on,160,0,7,,,,,,,,,,7,,50,0
119968,note_on,160,0,6,,,,,,,,,,6,,50,0
119974,note_on,22,0,1,,,,,,,,,,0,,77,0
119976,note_on,2,0,1,,,,,,,,,,0,,79,127
119998,note_on,94,0,3,,,,,,,,,,2,,62,0
119998,note_on,94,0,4,,,,,,,,,,5,,62,0
119998,note_on,22,0,1,,,,,,,,,,0,,79,0
120000,note_on,2,0,1,,,,,,,,,,0,,81,127
120000,note_on,2,0,3,,,,,,,,,,2,,62,60
120000,note_on,2,0,4,,,,,,,,,,5,,62,92
120094,note_on,94,0,1,,,,,,,,,,0,,81,0
120094,note_on,94,0,3,,,,,,,,,,2,,62,0
120094,note_on,94,0,4,,,,,,,,,,5,,62,0
120096,note_on,2,0,3,,,,,,,,,,2,,62,60
120096,note_on,2,0,4,,,,,,,,,,5,,62,92
120096,note_on,0,0,1,,,,,,,,,,0,,77,127
120096,note_on,2,0,1,,,,,,,,,,0,,69,127
120142,note_on,46,0,1,,,,,,,,,,0,,69,0
120142,note_on,0,0,1,,,,,,,,,,0,,77,0
120144,note_on,2,0,1,,,,,,,,,,0,,79,127
120190,note_on,94,0,3,,,,,,,,,,2,,62,0
120190,note_on,94,0,4,,,,,,,,,,5,,62,0
120190,note_on,46,0,1,,,,,,,,,,0,,79,0
120192,note_on,2,0,3,,,,,,,,,,2,,69,60
120192,note_on,0,0,1,,,,,,,,,,0,,77,127
120192,note_on,2,0,4,,,,,,,,,,5,,69,92
120192,note_on,2,0,1,,,,,,,,,,0,,69,127
120214,note_on,0,0,1,,,,,,,,,,0,,77,0
120214,note_on,22,0,1,,,,,,,,,,0,,69,0
120216,note_on,2,0,1,,,,,,,,,,0,,76,127
120238,note_on,22,0,1,,,,,,,,,,0,,76,0
120240,note_on,2,0,1,,,,,,,,,,0,,77,127
120262,note_on,22,0,1,,,,,,,,,,0,,77,0
120264,note_on,2,0,1,,,,,,,,,,0,,76,127
120286,note_on,94,0,3,,,,,,,,,,2,,69,0
120286,note_on,22,0,1,,,,,,,,,,0,,76,0
120286,note_on,94,0,4,,,,,,,,,,5,,69,0
120288,note_on,2,0,3,,,,,,,,,,2,,57,60
120288,note_on,2,0,1,,,,,,,,,,0,,77,127
120288,note_on,2,0,4,,,,,,,,,,5,,57,92
120310,note_on,22,0,1,,,,,,,,,,0,,77,0
120312,note_on,2,0,1,,,,,,,,,,0,,76,127
120334,note_on,22,0,1,,,,,,,,,,0,,76,0
120336,note_on,2,0,1,,,,,,,,,,0,,77,127
120358,note_on,22,0,1,,,,,,,,,,0,,77,0
120360,note_on,2,0,1,,,,,,,,,,0,,76,127
120382,note_on,94,0,3,,,,,,,,,,2,,57,0
120382,note_on,22,0,1,,,,,,,,,,0,,76,0
120382,note_on,94,0,4,,,,,,,,,,5,,57,0
120384,note_on,2,0,3,,,,,,,,,,2,,62,60
120384,note_on,2,0,4,,,,,,,,,,5,,62,92
120384,note_on,2,0,1,,,,,,,,,,0,,77,127
120384,note_on,482,0,2,,,,,,,,,,1,,62,92
120384,note_on,416,0,6,,,,,,,,,,6,,50,75
120384,note_on,416,0,7,,,,,,,,,,7,,50,75
120406,note_on,22,0,1,,,,,,,,,,0,,77,0
120406,note_on,22,0,2,,,,,,,,,,1,,62,0
120408,note_on,2,0,2,,,,,,,,,,1,,61,92
120408,note_on,2,0,1,,,,,,,,,,0,,76,127
120430,note_on,22,0,2,,,,,,,,,,1,,61,0
120430,note_on,22,0,1,,,,,,,,,,0,,76,0
120432,note_on,2,0,2,,,,,,,,,,1,,62,92
120432,note_on,2,0,1,,,,,,,,,,0,,77,127
120454,note_on,22,0,2,,,,,,,,,,1,,62,0
120454,note_on,22,0,1,,,,,,,,,,0,,77,0
120456,note_on,2,0,2,,,,,,,,,,1,,64,92
120456,note_on,2,0,1,,,,,,,,,,0,,76,127
120478,note_on,22,0,1,,,,,,,,,,0,,76,0
120478,note_on,94,0,6,,,,,,,,,,6,,50,0
120478,note_on,94,0,7,,,,,,,,,,7,,50,0
120478,note_on,22,0,2,,,,,,,,,,1,,64,0
120480,note_on,2,0,2,,,,,,,,,,1,,65,92
120480,note_on,0,0,1,,,,,,,,,,0,,74,127
120480,note_on,2,0,6,,,,,,,,,,6,,50,75
120480,note_on,0,0,1,,,,,,,,,,0,,65,127
120480,note_on,2,0,1,,,,,,,,,,0,,62,127
120480,note_on,2,0,7,,,,,,,,,,7,,50,75
120480,note_on,0,0,1,,,,,,,,,,0,,69,127
120502,note_on,22,0,2,,,,,,,,,,1,,65,0
120504,note_on,2,0,2,,,,,,,,,,1,,64,92
120526,note_on,22,0,2,,,,,,,,,,1,,64,0
120528,note_on,2,0,2,,,,,,,,,,1,,65,92
120544,note_on,160,0,3,,,,,,,,,,2,,62,0
120544,note_on,160,0,4,,,,,,,,,,5,,62,0
120550,note_on,22,0,2,,,,,,,,,,1,,65,0
120552,note_on,2,0,2,,,,,,,,,,1,,67,92
120574,note_on,94,0,7,,,,,,,,,,7,,50,0
120574,note_on,94,0,1,,,,,,,,,,0,,62,0
120574,note_on,22,0,2,,,,,,,,,,1,,67,0
120574,note_on,0,0,1,,,,,,,,,,0,,65,0
120574,note_on,0,0,1,,,,,,,,,,0,,69,0
120574,note_on,94,0,6,,,,,,,,,,6,,50,0
120574,note_on,0,0,1,,,,,,,,,,0,,74,0
120576,note_on,2,0,7,,,,,,,,,,7,,50,75
120576,note_on,2,0,2,,,,,,,,,,1,,69,92
120576,note_on,2,0,6,,,,,,,,,,6,,50,75
120670,note_on,94,0,2,,,,,,,,,,1,,69,0
120670,note_on,94,0,7,,,,,,,,,,7,,50,0
120670,note_on,94,0,6,,,,,,,,,,6,,50,0
120672,note_on,2,0,7,,,,,,,,,,7,,50,75
120672,note_on,2,0,2,,,,,,,,,,1,,65,92
120672,note_on,2,0,6,,,,,,,,,,6,,50,75
120718,note_on,46,0,2,,,,,,,,,,1,,65,0
120720,note_on,2,0,2,,,,,,,,,,1,,67,92
120766,note_on,94,0,6,,,,,,,,,,6,,50,0
120766,note_on,94,0,7,,,,,,,,,,7,,50,0
120766,note_on,46,0,2,,,,,,,,,,1,,67,0
120768,note_on,2,0,6,,,,,,,,,,6,,57,75
120768,note_on,2,0,7,,,,,,,,,,7,,57,75
120768,note_on,2,0,2,,,,,,,,,,1,,65,92
120790,note_on,22,0,2,,,,,,,,,,1,,65,0
120792,note_on,2,0,2,,,,,,,,,,1,,64,92
120814,note_on,22,0,2,,,,,,,,,,1,,64,0
120816,note_on,2,0,2,,,,,,,,,,1,,65,92
120838,note_on,22,0,2,,,,,,,,,,1,,65,0
120840,note_on,2,0,2,,,,,,,,,,1,,64,92
120862,note_on,22,0,2,,,,,,,,,,1,,64,0
120862,note_on,94,0,6,,,,,,,,,,6,,57,0
120862,note_on,94,0,7,,,,,,,,,,7,,57,0
120864,note_on,2,0,2,,,,,,,,,,1,,65,92
120864,note_on,2,0,6,,,,,,,,,,6,,45,75
120864,note_on,2,0,7,,,,,,,,,,7,,45,75
120886,note_on,22,0,2,,,,,,,,,,1,,65,0
120888,note_on,2,0,2,,,,,,,,,,1,,64,92
120910,note_on,22,0,2,,,,,,,,,,1,,64,0
120912,note_on,2,0,2,,,,,,,,,,1,,65,92
120934,note_on,22,0,2,,,,,,,,,,1,,65,0
120936,note_on,2,0,2,,,,,,,,,,1,,64,92
120958,note_on,94,0,7,,,,,,,,,,7,,45,0
120958,note_on,94,0,6,,,,,,,,,,6,,45,0
120958,note_on,22,0,2,,,,,,,,,,1,,64,0
120960,note_on,386,0,1,,,,,,,,,,0,,77,127
120960,note_on,2,0,7,,,,,,,,,,7,,50,75
120960,note_on,2,0,2,,,,,,,,,,1,,65,92
120960,note_on,2,0,6,,,,,,,,,,6,,50,75
120982,note_on,22,0,1,,,,,,,,,,0,,77,0
120982,note_on,22,0,2,,,,,,,,,,1,,65,0
120984,note_on,2,0,1,,,,,,,,,,0,,74,127
120984,note_on,2,0,2,,,,,,,,,,1,,62,92
121006,note_on,22,0,1,,,,,,,,,,0,,74,0
121006,note_on,22,0,2,,,,,,,,,,1,,62,0
121008,note_on,2,0,2,,,,,,,,,,1,,65,92
121008,note_on,2,0,1,,,,,,,,,,0,,77,127
121030,note_on,22,0,2,,,,,,,,,,1,,65,0
121030,note_on,22,0,1,,,,,,,,,,0,,77,0
121032,note_on,2,0,2,,,,,,,,,,1,,64,92
121032,note_on,2,0,1,,,,,,,,,,0,,81,127
121054,note_on,22,0,1,,,,,,,,,,0,,81,0
121054,note_on,94,0,6,,,,,,,,,,6,,50,0
121054,note_on,22,0,2,,,,,,,,,,1,,64,0
121054,note_on,94,0,7,,,,,,,,,,7,,50,0
121056,note_on,2,0,2,,,,,,,,,,1,,62,92
121056,note_on,2,0,1,,,,,,,,,,0,,77,127
121056,note_on,2,0,7,,,,,,,,,,7,,50,75
121056,note_on,2,0,6,,,,,,,,,,6,,50,75
121078,note_on,22,0,1,,,,,,,,,,0,,77,0
121078,note_on,22,0,2,,,,,,,,,,1,,62,0
121080,note_on,2,0,1,,,,,,,,,,0,,74,127
121080,note_on,2,0,2,,,,,,,,,,1,,62,92
121102,note_on,22,0,2,,,,,,,,,,1,,62,0
121102,note_on,22,0,1,,,,,,,,,,0,,74,0
121104,note_on,2,0,1,,,,,,,,,,0,,77,127
121104,note_on,2,0,2,,,,,,,,,,1,,57,92
121126,note_on,22,0,1,,,,,,,,,,0,,77,0
121126,note_on,22,0,2,,,,,,,,,,1,,57,0
121128,note_on,2,0,2,,,,,,,,,,1,,62,92
121128,note_on,2,0,1,,,,,,,,,,0,,81,127
121150,note_on,94,0,7,,,,,,,,,,7,,50,0
121150,note_on,22,0,2,,,,,,,,,,1,,62,0
121150,note_on,94,0,6,,,,,,,,,,6,,50,0
121150,note_on,22,0,1,,,,,,,,,,0,,81,0
121152,note_on,2,0,1,,,,,,,,,,0,,77,127
121152,note_on,2,0,2,,,,,,,,,,1,,65,92
121174,note_on,22,0,2,,,,,,,,,,1,,65,0
121174,note_on,22,0,1,,,,,,,,,,0,,77,0
121176,note_on,2,0,1,,,,,,,,,,0,,74,127
121176,note_on,2,0,2,,,,,,,,,,1,,62,92
121198,note_on,22,0,2,,,,,,,,,,1,,62,0
121198,note_on,22,0,1,,,,,,,,,,0,,74,0
121200,note_on,50,0,6,,,,,,,,,,6,,50,75
121200,note_on,2,0,1,,,,,,,,,,0,,77,127
121200,note_on,50,0,7,,,,,,,,,,7,,50,75
121200,note_on,2,0,2,,,,,,,,,,1,,57,92
121222,note_on,22,0,2,,,,,,,,,,1,,57,0
121222,note_on,22,0,1,,,,,,,,,,0,,77,0
121224,note_on,2,0,2,,,,,,,,,,1,,62,92
121224,note_on,2,0,1,,,,,,,,,,0,,81,127
121246,note_on,22,0,2,,,,,,,,,,1,,62,0
121246,note_on,46,0,6,,,,,,,,,,6,,50,0
121246,note_on,46,0,7,,,,,,,,,,7,,50,0
121246,note_on,22,0,1,,,,,,,,,,0,,81,0
121248,note_on,2,0,6,,,,,,,,,,6,,45,75
121248,note_on,2,0,7,,,,,,,,,,7,,45,75
121248,note_on,2,0,1,,,,,,,,,,0,,73,127
121248,note_on,2,0,2,,,,,,,,,,1,,64,92
121270,note_on,22,0,2,,,,,,,,,,1,,64,0
121270,note_on,22,0,1,,,,,,,,,,0,,73,0
121272,note_on,2,0,2,,,,,,,,,,1,,62,92
121272,note_on,2,0,1,,,,,,,,,,0,,69,127
121294,note_on,22,0,1,,,,,,,,,,0,,69,0
121294,note_on,22,0,2,,,,,,,,,,1,,62,0
121296,note_on,2,0,2,,,,,,,,,,1,,62,92
121296,note_on,2,0,1,,,,,,,,,,0,,73,127
121318,note_on,22,0,2,,,,,,,,,,1,,62,0
121318,note_on,22,0,1,,,,,,,,,,0,,73,0
121320,note_on,2,0,1,,,,,,,,,,0,,76,127
121320,note_on,2,0,2,,,,,,,,,,1,,62,92
121342,note_on,94,0,7,,,,,,,,,,7,,45,0
121342,note_on,22,0,1,,,,,,,,,,0,,76,0
121342,note_on,22,0,2,,,,,,,,,,1,,62,0
121342,note_on,94,0,6,,,,,,,,,,6,,45,0
121344,note_on,2,0,7,,,,,,,,,,7,,45,75
121344,note_on,2,0,1,,,,,,,,,,0,,73,127
121344,note_on,2,0,6,,,,,,,,,,6,,45,75
121344,note_on,2,0,2,,,,,,,,,,1,,64,92
121366,note_on,22,0,2,,,,,,,,,,1,,64,0
121366,note_on,22,0,1,,,,,,,,,,0,,73,0
121368,note_on,2,0,1,,,,,,,,,,0,,69,127
121368,note_on,2,0,2,,,,,,,,,,1,,61,92
121390,note_on,22,0,2,,,,,,,,,,1,,61,0
121390,note_on,22,0,1,,,,,,,,,,0,,69,0
121392,note_on,2,0,2,,,,,,,,,,1,,62,92
121392,note_on,2,0,1,,,,,,,,,,0,,73,127
121414,note_on,22,0,2,,,,,,,,,,1,,62,0
121414,note_on,22,0,1,,,,,,,,,,0,,73,0
121416,note_on,2,0,2,,,,,,,,,,1,,64,92
121416,note_on,2,0,1,,,,,,,,,,0,,76,127
121438,note_on,94,0,7,,,,,,,,,,7,,45,0
121438,note_on,22,0,1,,,,,,,,,,0,,76,0
121438,note_on,22,0,2,,,,,,,,,,1,,64,0
121438,note_on,94,0,6,,,,,,,,,,6,,45,0
121440,note_on,2,0,2,,,,,,,,,,1,,69,92
121440,note_on,2,0,1,,,,,,,,,,0,,73,127
121462,note_on,22,0,2,,,,,,,,,,1,,69,0
121462,note_on,22,0,1,,,,,,,,,,0,,73,0
121464,note_on,2,0,2,,,,,,,,,,1,,64,92
121464,note_on,2,0,1,,,,,,,,,,0,,69,127
121486,note_on,22,0,2,,,,,,,,,,1,,64,0
121486,note_on,22,0,1,,,,,,,,,,0,,69,0
121488,note_on,2,0,2,,,,,,,,,,1,,62,92
121488,note_on,50,0,6,,,,,,,,,,6,,45,75
121488,note_on,2,0,1,,,,,,,,,,0,,73,127
121488,note_on,50,0,7,,,,,,,,,,7,,45,75
121510,note_on,22,0,2,,,,,,,,,,1,,62,0
121510,note_on,22,0,1,,,,,,,,,,0,,73,0
121512,note_on,2,0,1,,,,,,,,,,0,,76,127
121512,note_on,2,0,2,,,,,,,,,,1,,64,92
121534,note_on,22,0,2,,,,,,,,,,1,,64,0
121534,note_on,22,0,1,,,,,,,,,,0,,76,0
121534,note_on,46,0,7,,,,,,,,,,7,,45,0
121534,note_on,46,0,6,,,,,,,,,,6,,45,0
121536,note_on,2,0,2,,,,,,,,,,1,,69,92
121536,note_on,2,0,6,,,,,,,,,,6,,50,75
121536,note_on,2,0,7,,,,,,,,,,7,,50,75
121536,note_on,2,0,1,,,,,,,,,,0,,77,127
121558,note_on,22,0,2,,,,,,,,,,1,,69,0
121558,note_on,22,0,1,,,,,,,,,,0,,77,0
121560,note_on,2,0,1,,,,,,,,,,0,,74,127
121560,note_on,2,0,2,,,,,,,,,,1,,65,92
121582,note_on,22,0,2,,,,,,,,,,1,,65,0
121582,note_on,22,0,1,,,,,,,,,,0,,74,0
121584,note_on,2,0,1,,,,,,,,,,0,,77,127
121584,note_on,2,0,2,,,,,,,,,,1,,62,92
121606,note_on,22,0,2,,,,,,,,,,1,,62,0
121606,note_on,22,0,1,,,,,,,,,,0,,77,0
121608,note_on,2,0,1,,,,,,,,,,0,,81,127
121608,note_on,2,0,2,,,,,,,,,,1,,64,92
121630,note_on,94,0,6,,,,,,,,,,6,,50,0
121630,note_on,22,0,1,,,,,,,,,,0,,81,0
121630,note_on,22,0,2,,,,,,,,,,1,,64,0
121630,note_on,94,0,7,,,,,,,,,,7,,50,0
121632,note_on,2,0,2,,,,,,,,,,1,,69,92
121632,note_on,2,0,6,,,,,,,,,,6,,50,75
121632,note_on,2,0,7,,,,,,,,,,7,,50,75
121632,note_on,2,0,1,,,,,,,,,,0,,77,127
121654,note_on,22,0,2,,,,,,,,,,1,,69,0
121654,note_on,22,0,1,,,,,,,,,,0,,77,0
121656,note_on,2,0,1,,,,,,,,,,0,,74,127
121656,note_on,2,0,2,,,,,,,,,,1,,69,92
121678,note_on,22,0,1,,,,,,,,,,0,,74,0
121678,note_on,22,0,2,,,,,,,,,,1,,69,0
121680,note_on,2,0,2,,,,,,,,,,1,,57,92
121680,note_on,2,0,1,,,,,,,,,,0,,77,127
121702,note_on,22,0,2,,,,,,,,,,1,,57,0
121702,note_on,22,0,1,,,,,,,,,,0,,77,0
121704,note_on,2,0,2,,,,,,,,,,1,,62,92
121704,note_on,2,0,1,,,,,,,,,,0,,81,127
121726,note_on,22,0,1,,,,,,,,,,0,,81,0
121726,note_on,94,0,6,,,,,,,,,,6,,50,0
121726,note_on,94,0,7,,,,,,,,,,7,,50,0
121726,note_on,22,0,2,,,,,,,,,,1,,62,0
121728,note_on,2,0,2,,,,,,,,,,1,,65,92
121728,note_on,2,0,1,,,,,,,,,,0,,77,127
121750,note_on,22,0,2,,,,,,,,,,1,,65,0
121750,note_on,22,0,1,,,,,,,,,,0,,77,0
121752,note_on,2,0,1,,,,,,,,,,0,,74,127
121752,note_on,2,0,2,,,,,,,,,,1,,62,92
121774,note_on,22,0,1,,,,,,,,,,0,,74,0
121774,note_on,22,0,2,,,,,,,,,,1,,62,0
121776,note_on,2,0,1,,,,,,,,,,0,,77,127
121776,note_on,50,0,7,,,,,,,,,,7,,50,75
121776,note_on,2,0,2,,,,,,,,,,1,,57,92
121776,note_on,50,0,6,,,,,,,,,,6,,50,75
121798,note_on,22,0,1,,,,,,,,,,0,,77,0
121798,note_on,22,0,2,,,,,,,,,,1,,57,0
121800,note_on,2,0,2,,,,,,,,,,1,,62,92
121800,note_on,2,0,1,,,,,,,,,,0,,81,127
121822,note_on,46,0,6,,,,,,,,,,6,,50,0
121822,note_on,46,0,7,,,,,,,,,,7,,50,0
121822,note_on,22,0,2,,,,,,,,,,1,,62,0
121822,note_on,22,0,1,,,,,,,,,,0,,81,0
121824,note_on,2,0,6,,,,,,,,,,6,,45,75
121824,note_on,2,0,2,,,,,,,,,,1,,64,92
121824,note_on,2,0,7,,,,,,,,,,7,,45,75
121824,note_on,2,0,1,,,,,,,,,,0,,73,127
121846,note_on,22,0,1,,,,,,,,,,0,,73,0
121846,note_on,22,0,2,,,,,,,,,,1,,64,0
121848,note_on,2,0,1,,,,,,,,,,0,,69,127
121848,note_on,2,0,2,,,,,,,,,,1,,62,92
121870,note_on,22,0,2,,,,,,,,,,1,,62,0
121870,note_on,22,0,1,,,,,,,,,,0,,69,0
121872,note_on,2,0,1,,,,,,,,,,0,,73,127
121872,note_on,2,0,2,,,,,,,,,,1,,57,92
121894,note_on,22,0,1,,,,,,,,,,0,,73,0
121894,note_on,22,0,2,,,,,,,,,,1,,57,0
121896,note_on,2,0,2,,,,,,,,,,1,,61,92
121896,note_on,2,0,1,,,,,,,,,,0,,76,127
121918,note_on,22,0,1,,,,,,,,,,0,,76,0
121918,note_on,94,0,6,,,,,,,,,,6,,45,0
121918,note_on,94,0,7,,,,,,,,,,7,,45,0
121918,note_on,22,0,2,,,,,,,,,,1,,61,0
121920,note_on,2,0,6,,,,,,,,,,6,,45,75
121920,note_on,2,0,7,,,,,,,,,,7,,45,75
121920,note_on,2,0,2,,,,,,,,,,1,,65,92
121920,note_on,2,0,1,,,,,,,,,,0,,73,127
121942,note_on,22,0,1,,,,,,,,,,0,,73,0
121942,note_on,22,0,2,,,,,,,,,,1,,65,0
121944,note_on,2,0,1,,,,,,,,,,0,,69,127
121944,note_on,2,0,2,,,,,,,,,,1,,64,92
121966,note_on,22,0,2,,,,,,,,,,1,,64,0
121966,note_on,22,0,1,,,,,,,,,,0,,69,0
121968,note_on,2,0,2,,,,,,,,,,1,,61,92
121968,note_on,2,0,1,,,,,,,,,,0,,73,127
121990,note_on,22,0,2,,,,,,,,,,1,,61,0
121990,note_on,22,0,1,,,,,,,,,,0,,73,0
121992,note_on,2,0,2,,,,,,,,,,1,,64,92
121992,note_on,2,0,1,,,,,,,,,,0,,76,127
122014,note_on,94,0,6,,,,,,,,,,6,,45,0
122014,note_on,94,0,7,,,,,,,,,,7,,45,0
122014,note_on,22,0,1,,,,,,,,,,0,,76,0
122014,note_on,22,0,2,,,,,,,,,,1,,64,0
122016,note_on,2,0,2,,,,,,,,,,1,,69,92
122016,note_on,2,0,1,,,,,,,,,,0,,73,127
122038,note_on,22,0,2,,,,,,,,,,1,,69,0
122038,note_on,22,0,1,,,,,,,,,,0,,73,0
122040,note_on,2,0,1,,,,,,,,,,0,,69,127
122040,note_on,2,0,2,,,,,,,,,,1,,64,92
122062,note_on,22,0,2,,,,,,,,,,1,,64,0
122062,note_on,22,0,1,,,,,,,,,,0,,69,0
122064,note_on,50,0,7,,,,,,,,,,7,,45,75
122064,note_on,2,0,2,,,,,,,,,,1,,62,92
122064,note_on,2,0,1,,,,,,,,,,0,,73,127
122064,note_on,50,0,6,,,,,,,,,,6,,45,75
122086,note_on,22,0,1,,,,,,,,,,0,,73,0
122086,note_on,22,0,2,,,,,,,,,,1,,62,0
122088,note_on,2,0,2,,,,,,,,,,1,,64,92
122088,note_on,2,0,1,,,,,,,,,,0,,76,127
122110,note_on,22,0,2,,,,,,,,,,1,,64,0
122110,note_on,46,0,7,,,,,,,,,,7,,45,0
122110,note_on,22,0,1,,,,,,,,,,0,,76,0
122110,note_on,46,0,6,,,,,,,,,,6,,45,0
122112,note_on,2,0,2,,,,,,,,,,1,,69,92
122112,note_on,2,0,1,,,,,,,,,,0,,77,127
122112,note_on,2,0,6,,,,,,,,,,6,,50,75
122112,note_on,1568,0,3,,,,,,,,,,2,,62,60
122112,note_on,1568,0,4,,,,,,,,,,5,,62,92
122112,note_on,2,0,7,,,,,,,,,,7,,50,75
122134,note_on,22,0,2,,,,,,,,,,1,,69,0
122134,note_on,22,0,1,,,,,,,,,,0,,77,0
122136,note_on,2,0,2,,,,,,,,,,1,,64,92
122136,note_on,2,0,1,,,,,,,,,,0,,76,127
122158,note_on,22,0,2,,,,,,,,,,1,,64,0
122158,note_on,22,0,1,,,,,,,,,,0,,76,0
122160,note_on,2,0,2,,,,,,,,,,1,,61,92
122160,note_on,2,0,1,,,,,,,,,,0,,77,127
122182,note_on,22,0,1,,,,,,,,,,0,,77,0
122182,note_on,22,0,2,,,,,,,,,,1,,61,0
122184,note_on,2,0,1,,,,,,,,,,0,,79,127
122184,note_on,2,0,2,,,,,,,,,,1,,64,92
122206,note_on,94,0,4,,,,,,,,,,5,,62,0
122206,note_on,22,0,2,,,,,,,,,,1,,64,0
122206,note_on,22,0,1,,,,,,,,,,0,,79,0
122206,note_on,94,0,3,,,,,,,,,,2,,62,0
122208,note_on,2,0,2,,,,,,,,,,1,,69,92
122208,note_on,2,0,3,,,,,,,,,,2,,62,60
122208,note_on,2,0,1,,,,,,,,,,0,,77,127
122208,note_on,2,0,4,,,,,,,,,,5,,62,92
122230,note_on,22,0,1,,,,,,,,,,0,,77,0
122230,note_on,22,0,2,,,,,,,,,,1,,69,0
122232,note_on,2,0,1,,,,,,,,,,0,,76,127
122232,note_on,2,0,2,,,,,,,,,,1,,62,92
122254,note_on,22,0,1,,,,,,,,,,0,,76,0
122254,note_on,22,0,2,,,,,,,,,,1,,62,0
122256,note_on,2,0,2,,,,,,,,,,1,,61,92
122256,note_on,2,0,1,,,,,,,,,,0,,77,127
122272,note_on,160,0,6,,,,,,,,,,6,,50,0
122272,note_on,160,0,7,,,,,,,,,,7,,50,0
122278,note_on,22,0,1,,,,,,,,,,0,,77,0
122278,note_on,22,0,2,,,,,,,,,,1,,61,0
122280,note_on,2,0,1,,,,,,,,,,0,,79,127
122280,note_on,2,0,2,,,,,,,,,,1,,62,92
122302,note_on,22,0,2,,,,,,,,,,1,,62,0
122302,note_on,94,0,3,,,,,,,,,,2,,62,0
122302,note_on,94,0,4,,,,,,,,,,5,,62,0
122302,note_on,22,0,1,,,,,,,,,,0,,79,0
122304,note_on,2,0,2,,,,,,,,,,1,,64,92
122304,note_on,2,0,1,,,,,,,,,,0,,77,127
122304,note_on,2,0,4,,,,,,,,,,5,,62,92
122304,note_on,2,0,3,,,,,,,,,,2,,62,60
122326,note_on,22,0,2,,,,,,,,,,1,,64,0
122326,note_on,22,0,1,,,,,,,,,,0,,77,0
122328,note_on,2,0,1,,,,,,,,,,0,,76,127
122328,note_on,2,0,2,,,,,,,,,,1,,62,92
122350,note_on,22,0,1,,,,,,,,,,0,,76,0
122350,note_on,22,0,2,,,,,,,,,,1,,62,0
122352,note_on,2,0,1,,,,,,,,,,0,,77,127
122352,note_on,2,0,2,,,,,,,,,,1,,61,92
122374,note_on,22,0,1,,,,,,,,,,0,,77,0
122374,note_on,22,0,2,,,,,,,,,,1,,61,0
122376,note_on,2,0,1,,,,,,,,,,0,,79,127
122376,note_on,2,0,2,,,,,,,,,,1,,62,92
122398,note_on,94,0,4,,,,,,,,,,5,,62,0
122398,note_on,22,0,1,,,,,,,,,,0,,79,0
122398,note_on,22,0,2,,,,,,,,,,1,,62,0
122398,note_on,94,0,3,,,,,,,,,,2,,62,0
122400,note_on,2,0,4,,,,,,,,,,5,,62,92
122400,note_on,2,0,1,,,,,,,,,,0,,81,127
122400,note_on,2,0,2,,,,,,,,,,1,,64,92
122400,note_on,128,0,6,,,,,,,,,,6,,50,75
122400,note_on,128,0,7,,,,,,,,,,7,,50,75
122400,note_on,2,0,3,,,,,,,,,,2,,62,60
122422,note_on,22,0,2,,,,,,,,,,1,,64,0
122424,note_on,2,0,2,,,,,,,,,,1,,62,92
122446,note_on,22,0,2,,,,,,,,,,1,,62,0
122448,note_on,2,0,2,,,,,,,,,,1,,61,92
122470,note_on,22,0,2,,,,,,,,,,1,,61,0
122470,note_on,70,0,1,,,,,,,,,,0,,81,0
122472,note_on,2,0,2,,,,,,,,,,1,,62,92
122472,note_on,2,0,1,,,,,,,,,,0,,82,127
122494,note_on,22,0,2,,,,,,,,,,1,,62,0
122494,note_on,94,0,3,,,,,,,,,,2,,62,0
122494,note_on,22,0,1,,,,,,,,,,0,,82,0
122494,note_on,94,0,4,,,,,,,,,,5,,62,0
122496,note_on,2,0,4,,,,,,,,,,5,,62,92
122496,note_on,2,0,1,,,,,,,,,,0,,81,127
122496,note_on,2,0,3,,,,,,,,,,2,,62,60
122496,note_on,2,0,2,,,,,,,,,,1,,64,92
122518,note_on,22,0,2,,,,,,,,,,1,,64,0
122520,note_on,2,0,2,,,,,,,,,,1,,65,92
122542,note_on,22,0,2,,,,,,,,,,1,,65,0
122544,note_on,2,0,2,,,,,,,,,,1,,67,92
122560,note_on,160,0,6,,,,,,,,,,6,,50,0
122560,note_on,160,0,7,,,,,,,,,,7,,50,0
122566,note_on,22,0,2,,,,,,,,,,1,,67,0
122566,note_on,70,0,1,,,,,,,,,,0,,81,0
122568,note_on,2,0,2,,,,,,,,,,1,,65,92
122568,note_on,2,0,1,,,,,,,,,,0,,82,127
122590,note_on,22,0,1,,,,,,,,,,0,,82,0
122590,note_on,94,0,4,,,,,,,,,,5,,62,0
122590,note_on,94,0,3,,,,,,,,,,2,,62,0
122590,note_on,22,0,2,,,,,,,,,,1,,65,0
122592,note_on,2,0,2,,,,,,,,,,1,,67,92
122592,note_on,2,0,4,,,,,,,,,,5,,62,92
122592,note_on,2,0,3,,,,,,,,,,2,,62,60
122592,note_on,2,0,1,,,,,,,,,,0,,81,127
122614,note_on,22,0,2,,,,,,,,,,1,,67,0
122616,note_on,2,0,2,,,,,,,,,,1,,65,92
122662,note_on,70,0,1,,,,,,,,,,0,,81,0
122662,note_on,46,0,2,,,,,,,,,,1,,65,0
122664,note_on,2,0,1,,,,,,,,,,0,,82,127
122664,note_on,2,0,2,,,,,,,,,,1,,67,92
122686,note_on,22,0,1,,,,,,,,,,0,,82,0
122686,note_on,94,0,4,,,,,,,,,,5,,62,0
122686,note_on,94,0,3,,,,,,,,,,2,,62,0
122686,note_on,22,0,2,,,,,,,,,,1,,67,0
122688,note_on,2,0,1,,,,,,,,,,0,,81,127
122688,note_on,128,0,6,,,,,,,,,,6,,50,75
122688,note_on,128,0,7,,,,,,,,,,7,,50,75
122688,note_on,2,0,4,,,,,,,,,,5,,62,92
122688,note_on,2,0,2,,,,,,,,,,1,,65,92
122688,note_on,2,0,3,,,,,,,,,,2,,62,60
122734,note_on,46,0,1,,,,,,,,,,0,,81,0
122734,note_on,46,0,2,,,,,,,,,,1,,65,0
122736,note_on,2,0,2,,,,,,,,,,1,,64,92
122736,note_on,2,0,1,,,,,,,,,,0,,79,127
122758,note_on,22,0,1,,,,,,,,,,0,,79,0
122758,note_on,22,0,2,,,,,,,,,,1,,64,0
122760,note_on,2,0,2,,,,,,,,,,1,,62,92
122760,note_on,2,0,1,,,,,,,,,,0,,77,127
122782,note_on,94,0,3,,,,,,,,,,2,,62,0
122782,note_on,94,0,4,,,,,,,,,,5,,62,0
122782,note_on,22,0,2,,,,,,,,,,1,,62,0
122782,note_on,22,0,1,,,,,,,,,,0,,77,0
122784,note_on,2,0,1,,,,,,,,,,0,,77,127
122784,note_on,2,0,2,,,,,,,,,,1,,62,92
122784,note_on,2,0,3,,,,,,,,,,2,,69,60
122784,note_on,2,0,4,,,,,,,,,,5,,69,92
122806,note_on,22,0,2,,,,,,,,,,1,,62,0
122806,note_on,22,0,1,,,,,,,,,,0,,77,0
122808,note_on,2,0,2,,,,,,,,,,1,,61,92
122808,note_on,2,0,1,,,,,,,,,,0,,76,127
122830,note_on,22,0,2,,,,,,,,,,1,,61,0
122830,note_on,22,0,1,,,,,,,,,,0,,76,0
122832,note_on,2,0,2,,,,,,,,,,1,,62,92
122832,note_on,2,0,1,,,,,,,,,,0,,77,127
122848,note_on,160,0,6,,,,,,,,,,6,,50,0
122848,note_on,160,0,7,,,,,,,,,,7,,50,0
122854,note_on,22,0,2,,,,,,,,,,1,,62,0
122854,note_on,22,0,1,,,,,,,,,,0,,77,0
122856,note_on,2,0,1,,,,,,,,,,0,,76,127
122856,note_on,2,0,2,,,,,,,,,,1,,61,92
122878,note_on,94,0,3,,,,,,,,,,2,,69,0
122878,note_on,22,0,1,,,,,,,,,,0,,76,0
122878,note_on,94,0,4,,,,,,,,,,5,,69,0
122878,note_on,22,0,2,,,,,,,,,,1,,61,0
122880,note_on,2,0,3,,,,,,,,,,2,,57,60
122880,note_on,2,0,2,,,,,,,,,,1,,62,92
122880,note_on,2,0,1,,,,,,,,,,0,,77,127
122880,note_on,2,0,4,,,,,,,,,,5,,57,92
122902,note_on,22,0,1,,,,,,,,,,0,,77,0
122902,note_on,22,0,2,,,,,,,,,,1,,62,0
122904,note_on,2,0,2,,,,,,,,,,1,,61,92
122904,note_on,2,0,1,,,,,,,,,,0,,76,127
122926,note_on,22,0,1,,,,,,,,,,0,,76,0
122926,note_on,22,0,2,,,,,,,,,,1,,61,0
122928,note_on,2,0,2,,,,,,,,,,1,,62,92
122928,note_on,2,0,1,,,,,,,,,,0,,77,127
122950,note_on,22,0,1,,,,,,,,,,0,,77,0
122950,note_on,22,0,2,,,,,,,,,,1,,62,0
122952,note_on,2,0,1,,,,,,,,,,0,,76,127
122952,note_on,2,0,2,,,,,,,,,,1,,61,92
122974,note_on,22,0,1,,,,,,,,,,0,,76,0
122974,note_on,94,0,3,,,,,,,,,,2,,57,0
122974,note_on,94,0,4,,,,,,,,,,5,,57,0
122974,note_on,22,0,2,,,,,,,,,,1,,61,0
122976,note_on,2,0,3,,,,,,,,,,2,,62,60
122976,note_on,2,0,2,,,,,,,,,,1,,62,92
122976,note_on,2,0,4,,,,,,,,,,5,,62,92
122976,note_on,2,0,1,,,,,,,,,,0,,77,127
122998,note_on,22,0,1,,,,,,,,,,0,,77,0
122998,note_on,22,0,2,,,,,,,,,,1,,62,0
123000,note_on,2,0,2,,,,,,,,,,1,,61,92
123000,note_on,2,0,1,,,,,,,,,,0,,76,127
123022,note_on,22,0,1,,,,,,,,,,0,,76,0
123022,note_on,22,0,2,,,,,,,,,,1,,61,0
123024,note_on,2,0,1,,,,,,,,,,0,,77,127
123024,note_on,2,0,2,,,,,,,,,,1,,62,92
123046,note_on,22,0,1,,,,,,,,,,0,,77,0
123046,note_on,22,0,2,,,,,,,,,,1,,62,0
123048,note_on,2,0,1,,,,,,,,,,0,,76,127
123048,note_on,2,0,2,,,,,,,,,,1,,61,92
123070,note_on,94,0,4,,,,,,,,,,5,,62,0
123070,note_on,94,0,3,,,,,,,,,,2,,62,0
123070,note_on,22,0,1,,,,,,,,,,0,,76,0
123070,note_on,22,0,2,,,,,,,,,,1,,61,0
123072,note_on,2,0,3,,,,,,,,,,2,,62,60
123072,note_on,2,0,1,,,,,,,,,,0,,74,127
123072,note_on,2,0,4,,,,,,,,,,5,,62,92
123072,note_on,2,0,2,,,,,,,,,,1,,69,92
123094,note_on,22,0,1,,,,,,,,,,0,,74,0
123094,note_on,22,0,2,,,,,,,,,,1,,69,0
123096,note_on,2,0,1,,,,,,,,,,0,,74,127
123096,note_on,2,0,2,,,,,,,,,,1,,65,92
123118,note_on,22,0,1,,,,,,,,,,0,,74,0
123118,note_on,22,0,2,,,,,,,,,,1,,65,0
123120,note_on,2,0,1,,,,,,,,,,0,,73,127
123120,note_on,2,0,2,,,,,,,,,,1,,64,92
123142,note_on,22,0,1,,,,,,,,,,0,,73,0
123142,note_on,22,0,2,,,,,,,,,,1,,64,0
123144,note_on,2,0,2,,,,,,,,,,1,,65,92
123144,note_on,2,0,1,,,,,,,,,,0,,74,127
123166,note_on,22,0,2,,,,,,,,,,1,,65,0
123166,note_on,22,0,1,,,,,,,,,,0,,74,0
123166,note_on,94,0,4,,,,,,,,,,5,,62,0
123166,note_on,94,0,3,,,,,,,,,,2,,62,0
123168,note_on,2,0,2,,,,,,,,,,1,,67,92
123168,note_on,2,0,4,,,,,,,,,,5,,62,92
123168,note_on,2,0,3,,,,,,,,,,2,,62,60
123168,note_on,2,0,1,,,,,,,,,,0,,76,127
123190,note_on,22,0,1,,,,,,,,,,0,,76,0
123190,note_on,22,0,2,,,,,,,,,,1,,67,0
123192,note_on,2,0,2,,,,,,,,,,1,,65,92
123192,note_on,2,0,1,,,,,,,,,,0,,74,127
123214,note_on,22,0,1,,,,,,,,,,0,,74,0
123214,note_on,22,0,2,,,,,,,,,,1,,65,0
123216,note_on,2,0,1,,,,,,,,,,0,,73,127
123216,note_on,2,0,2,,,,,,,,,,1,,64,92
123238,note_on,22,0,1,,,,,,,,,,0,,73,0
123238,note_on,22,0,2,,,,,,,,,,1,,64,0
123240,note_on,2,0,1,,,,,,,,,,0,,74,127
123240,note_on,2,0,2,,,,,,,,,,1,,65,92
123262,note_on,94,0,4,,,,,,,,,,5,,62,0
123262,note_on,22,0,1,,,,,,,,,,0,,74,0
123262,note_on,22,0,2,,,,,,,,,,1,,65,0
123262,note_on,94,0,3,,,,,,,,,,2,,62,0
123264,note_on,2,0,2,,,,,,,,,,1,,67,92
123264,note_on,2,0,3,,,,,,,,,,2,,62,60
123264,note_on,2,0,1,,,,,,,,,,0,,76,127
123264,note_on,2,0,4,,,,,,,,,,5,,62,92
123286,note_on,22,0,1,,,,,,,,,,0,,76,0
123286,note_on,22,0,2,,,,,,,,,,1,,67,0
123288,note_on,2,0,2,,,,,,,,,,1,,65,92
123288,note_on,2,0,1,,,,,,,,,,0,,74,127
123310,note_on,22,0,2,,,,,,,,,,1,,65,0
123310,note_on,22,0,1,,,,,,,,,,0,,74,0
123312,note_on,2,0,2,,,,,,,,,,1,,64,92
123312,note_on,2,0,1,,,,,,,,,,0,,73,127
123334,note_on,22,0,2,,,,,,,,,,1,,64,0
123334,note_on,22,0,1,,,,,,,,,,0,,73,0
123336,note_on,2,0,1,,,,,,,,,,0,,74,127
123336,note_on,2,0,2,,,,,,,,,,1,,65,92
123358,note_on,94,0,3,,,,,,,,,,2,,62,0
123358,note_on,22,0,1,,,,,,,,,,0,,74,0
123358,note_on,94,0,4,,,,,,,,,,5,,62,0
123358,note_on,22,0,2,,,,,,,,,,1,,65,0
123360,note_on,2,0,2,,,,,,,,,,1,,67,92
123360,note_on,2,0,3,,,,,,,,,,2,,62,60
123360,note_on,2,0,1,,,,,,,,,,0,,76,127
123360,note_on,2,0,4,,,,,,,,,,5,,62,92
123382,note_on,22,0,2,,,,,,,,,,1,,67,0
123382,note_on,22,0,1,,,,,,,,,,0,,76,0
123384,note_on,2,0,2,,,,,,,,,,1,,69,92
123384,note_on,2,0,1,,,,,,,,,,0,,77,127
123406,note_on,22,0,2,,,,,,,,,,1,,69,0
123406,note_on,22,0,1,,,,,,,,,,0,,77,0
123408,note_on,2,0,2,,,,,,,,,,1,,70,92
123408,note_on,2,0,1,,,,,,,,,,0,,79,127
123430,note_on,22,0,1,,,,,,,,,,0,,79,0
123430,note_on,22,0,2,,,,,,,,,,1,,70,0
123432,note_on,2,0,1,,,,,,,,,,0,,77,127
123432,note_on,2,0,2,,,,,,,,,,1,,69,92
123454,note_on,94,0,4,,,,,,,,,,5,,62,0
123454,note_on,22,0,1,,,,,,,,,,0,,77,0
123454,note_on,22,0,2,,,,,,,,,,1,,69,0
123454,note_on,94,0,3,,,,,,,,,,2,,62,0
123456,note_on,2,0,4,,,,,,,,,,5,,62,92
123456,note_on,2,0,1,,,,,,,,,,0,,79,127
123456,note_on,2,0,3,,,,,,,,,,2,,62,60
123456,note_on,2,0,2,,,,,,,,,,1,,70,92
123478,note_on,22,0,2,,,,,,,,,,1,,70,0
123478,note_on,22,0,1,,,,,,,,,,0,,79,0
123480,note_on,2,0,2,,,,,,,,,,1,,69,92
123480,note_on,2,0,1,,,,,,,,,,0,,77,127
123526,note_on,46,0,2,,,,,,,,,,1,,69,0
123526,note_on,46,0,1,,,,,,,,,,0,,77,0
123528,note_on,2,0,2,,,,,,,,,,1,,70,92
123528,note_on,2,0,1,,,,,,,,,,0,,79,127
123550,note_on,94,0,4,,,,,,,,,,5,,62,0
123550,note_on,22,0,2,,,,,,,,,,1,,70,0
123550,note_on,94,0,3,,,,,,,,,,2,,62,0
123550,note_on,22,0,1,,,,,,,,,,0,,79,0
123552,note_on,2,0,2,,,,,,,,,,1,,69,92
123552,note_on,2,0,3,,,,,,,,,,2,,62,60
123552,note_on,2,0,4,,,,,,,,,,5,,62,92
123552,note_on,2,0,1,,,,,,,,,,0,,77,127
123598,note_on,46,0,1,,,,,,,,,,0,,77,0
123598,note_on,46,0,2,,,,,,,,,,1,,69,0
123600,note_on,2,0,1,,,,,,,,,,0,,76,127
123600,note_on,2,0,2,,,,,,,,,,1,,67,92
123622,note_on,22,0,2,,,,,,,,,,1,,67,0
123622,note_on,22,0,1,,,,,,,,,,0,,76,0
123624,note_on,2,0,1,,,,,,,,,,0,,74,127
123624,note_on,2,0,2,,,,,,,,,,1,,65,92
123646,note_on,22,0,2,,,,,,,,,,1,,65,0
123646,note_on,22,0,1,,,,,,,,,,0,,74,0
123646,note_on,94,0,4,,,,,,,,,,5,,62,0
123646,note_on,94,0,3,,,,,,,,,,2,,62,0
123648,note_on,2,0,1,,,,,,,,,,0,,74,127
123648,note_on,2,0,4,,,,,,,,,,5,,69,92
123648,note_on,2,0,3,,,,,,,,,,2,,69,60
123648,note_on,2,0,2,,,,,,,,,,1,,65,92
123658,note_on,10,0,1,,,,,,,,,,0,,74,0
123658,note_on,10,0,2,,,,,,,,,,1,,65,0
123660,note_on,2,0,1,,,,,,,,,,0,,73,127
123660,note_on,2,0,2,,,,,,,,,,1,,64,92
123670,note_on,10,0,2,,,,,,,,,,1,,64,0
123670,note_on,10,0,1,,,,,,,,,,0,,73,0
123672,note_on,2,0,1,,,,,,,,,,0,,74,127
123672,note_on,2,0,2,,,,,,,,,,1,,65,92
123682,note_on,10,0,1,,,,,,,,,,0,,74,0
123682,note_on,10,0,2,,,,,,,,,,1,,65,0
123684,note_on,2,0,1,,,,,,,,,,0,,73,127
123684,note_on,2,0,2,,,,,,,,,,1,,64,92
123694,note_on,10,0,1,,,,,,,,,,0,,73,0
123694,note_on,10,0,2,,,,,,,,,,1,,64,0
123696,note_on,2,0,1,,,,,,,,,,0,,74,127
123696,note_on,2,0,2,,,,,,,,,,1,,65,92
123706,note_on,10,0,2,,,,,,,,,,1,,65,0
123706,note_on,10,0,1,,,,,,,,,,0,,74,0
123708,note_on,2,0,1,,,,,,,,,,0,,73,127
123708,note_on,2,0,2,,,,,,,,,,1,,64,92
123742,note_on,94,0,4,,,,,,,,,,5,,69,0
123742,note_on,94,0,3,,,,,,,,,,2,,69,0
123744,note_on,2,0,3,,,,,,,,,,2,,57,60
123744,note_on,2,0,4,,,,,,,,,,5,,57,92
123790,note_on,82,0,1,,,,,,,,,,0,,73,0
123790,note_on,82,0,2,,,,,,,,,,1,,64,0
123792,note_on,2,0,2,,,,,,,,,,1,,62,92
123792,note_on,2,0,1,,,,,,,,,,0,,74,127
123838,note_on,94,0,4,,,,,,,,,,5,,57,0
123838,note_on,46,0,2,,,,,,,,,,1,,62,0
123838,note_on,46,0,1,,,,,,,,,,0,,74,0
123838,note_on,94,0,3,,,,,,,,,,2,,57,0
123840,note_on,2,0,3,,,,,,,,,,2,,74,127
123840,note_on,992,0,6,,,,,,,,,,6,,53,75
123840,note_on,2,0,1,,,,,,,,,,0,,74,127
123840,note_on,11936,0,5,,,,,,,,,,4,,57,60
123840,note_on,2,0,2,,,,,,,,,,1,,62,92
123840,note_on,992,0,7,,,,,,,,,,7,,53,75
123840,note_on,2,0,4,,,,,,,,,,5,,74,127
123886,note_on,46,0,3,,,,,,,,,,2,,74,0
123886,note_on,46,0,6,,,,,,,,,,6,,53,0
123886,note_on,46,0,5,,,,,,,,,,4,,57,0
123886,note_on,46,0,7,,,,,,,,,,7,,53,0
123886,note_on,46,0,4,,,,,,,,,,5,,74,0
123888,note_on,2,0,6,,,,,,,,,,6,,50,75
123888,note_on,2,0,5,,,,,,,,,,4,,62,60
123888,note_on,2,0,4,,,,,,,,,,5,,65,127
123888,note_on,2,0,7,,,,,,,,,,7,,50,75
123888,note_on,2,0,3,,,,,,,,,,2,,65,127
123934,note_on,46,0,7,,,,,,,,,,7,,50,0
123934,note_on,46,0,5,,,,,,,,,,4,,62,0
123934,note_on,46,0,3,,,,,,,,,,2,,65,0
123934,note_on,46,0,4,,,,,,,,,,5,,65,0
123934,note_on,46,0,6,,,,,,,,,,6,,50,0
123936,note_on,2,0,4,,,,,,,,,,5,,67,127
123936,note_on,2,0,7,,,,,,,,,,7,,55,75
123936,note_on,2,0,5,,,,,,,,,,4,,62,60
123936,note_on,2,0,6,,,,,,,,,,6,,55,75
123936,note_on,2,0,3,,,,,,,,,,2,,67,127
123982,note_on,46,0,4,,,,,,,,,,5,,67,0
123982,note_on,46,0,3,,,,,,,,,,2,,67,0
123984,note_on,2,0,4,,,,,,,,,,5,,70,127
123984,note_on,2,0,3,,,,,,,,,,2,,70,127
124000,note_on,160,0,2,,,,,,,,,,1,,62,0
124000,end_of_track,0,1,2,,,,,,,,,,,,,
124000,note_on,160,0,1,,,,,,,,,,0,,74,0
124000,end_of_track,0,1,1,,,,,,,,,,,,,
124030,note_on,46,0,3,,,,,,,,,,2,,70,0
124030,note_on,94,0,5,,,,,,,,,,4,,62,0
124030,note_on,46,0,4,,,,,,,,,,5,,70,0
124032,note_on,2,0,3,,,,,,,,,,2,,69,127
124032,note_on,2,0,4,,,,,,,,,,5,,69,127
124032,note_on,2,0,5,,,,,,,,,,4,,64,60
124078,note_on,46,0,4,,,,,,,,,,5,,69,0
124078,note_on,46,0,3,,,,,,,,,,2,,69,0
124080,note_on,2,0,4,,,,,,,,,,5,,73,127
124080,note_on,2,0,3,,,,,,,,,,2,,73,127
124096,note_on,160,0,6,,,,,,,,,,6,,55,0
124096,note_on,160,0,7,,,,,,,,,,7,,55,0
124126,note_on,46,0,3,,,,,,,,,,2,,73,0
124126,note_on,46,0,4,,,,,,,,,,5,,73,0
124126,note_on,94,0,5,,,,,,,,,,4,,64,0
124128,note_on,32,0,6,,,,,,,,,,6,,53,75
124128,note_on,2,0,3,,,,,,,,,,2,,74,127
124128,note_on,2,0,5,,,,,,,,,,4,,57,60
124128,note_on,2,0,4,,,,,,,,,,5,,74,127
124128,note_on,32,0,7,,,,,,,,,,7,,53,75
124174,note_on,46,0,3,,,,,,,,,,2,,74,0
124174,note_on,46,0,7,,,,,,,,,,7,,53,0
124174,note_on,46,0,6,,,,,,,,,,6,,53,0
124174,note_on,46,0,4,,,,,,,,,,5,,74,0
124174,note_on,46,0,5,,,,,,,,,,4,,57,0
124176,note_on,2,0,6,,,,,,,,,,6,,50,75
124176,note_on,2,0,7,,,,,,,,,,7,,50,75
124176,note_on,2,0,4,,,,,,,,,,5,,65,127
124176,note_on,2,0,3,,,,,,,,,,2,,65,127
124176,note_on,2,0,5,,,,,,,,,,4,,62,60
124222,note_on,46,0,6,,,,,,,,,,6,,50,0
124222,note_on,46,0,5,,,,,,,,,,4,,62,0
124222,note_on,46,0,3,,,,,,,,,,2,,65,0
124222,note_on,46,0,7,,,,,,,,,,7,,50,0
124222,note_on,46,0,4,,,,,,,,,,5,,65,0
124224,note_on,2,0,3,,,,,,,,,,2,,67,127
124224,note_on,2,0,4,,,,,,,,,,5,,67,127
124224,note_on,2,0,5,,,,,,,,,,4,,62,60
124224,note_on,2,0,7,,,,,,,,,,7,,55,75
124224,note_on,2,0,6,,,,,,,,,,6,,55,75
124270,note_on,46,0,4,,,,,,,,,,5,,67,0
124270,note_on,46,0,3,,,,,,,,,,2,,67,0
124272,note_on,2,0,3,,,,,,,,,,2,,70,127
124272,note_on,2,0,4,,,,,,,,,,5,,70,127
124318,note_on,46,0,3,,,,,,,,,,2,,70,0
124318,note_on,94,0,5,,,,,,,,,,4,,62,0
124318,note_on,46,0,4,,,,,,,,,,5,,70,0
124320,note_on,2,0,3,,,,,,,,,,2,,69,127
124320,note_on,2,0,4,,,,,,,,,,5,,69,127
124320,note_on,2,0,5,,,,,,,,,,4,,64,60
124366,note_on,46,0,4,,,,,,,,,,5,,69,0
124366,note_on,46,0,3,,,,,,,,,,2,,69,0
124368,note_on,2,0,4,,,,,,,,,,5,,73,127
124368,note_on,2,0,3,,,,,,,,,,2,,73,127
124384,note_on,160,0,6,,,,,,,,,,6,,55,0
124384,note_on,160,0,7,,,,,,,,,,7,,55,0
124414,note_on,46,0,4,,,,,,,,,,5,,73,0
124414,note_on,46,0,3,,,,,,,,,,2,,73,0
124414,note_on,94,0,5,,,,,,,,,,4,,64,0
124416,note_on,32,0,6,,,,,,,,,,6,,53,75
124416,note_on,2,0,5,,,,,,,,,,4,,57,60
124416,note_on,32,0,7,,,,,,,,,,7,,53,75
124416,note_on,2,0,3,,,,,,,,,,2,,74,127
124416,note_on,2,0,4,,,,,,,,,,5,,74,127
124462,note_on,46,0,4,,,,,,,,,,5,,74,0
124462,note_on,46,0,3,,,,,,,,,,2,,74,0
124462,note_on,46,0,5,,,,,,,,,,4,,57,0
124462,note_on,46,0,7,,,,,,,,,,7,,53,0
124462,note_on,46,0,6,,,,,,,,,,6,,53,0
124464,note_on,2,0,5,,,,,,,,,,4,,69,60
124464,note_on,2,0,4,,,,,,,,,,5,,77,127
124464,note_on,2,0,6,,,,,,,,,,6,,50,75
124464,note_on,2,0,7,,,,,,,,,,7,,50,75
124464,note_on,2,0,3,,,,,,,,,,2,,77,127
124510,note_on,46,0,3,,,,,,,,,,2,,77,0
124510,note_on,46,0,6,,,,,,,,,,6,,50,0
124510,note_on,46,0,5,,,,,,,,,,4,,69,0
124510,note_on,46,0,7,,,,,,,,,,7,,50,0
124510,note_on,46,0,4,,,,,,,,,,5,,77,0
124512,note_on,2,0,3,,,,,,,,,,2,,76,127
124512,note_on,2,0,7,,,,,,,,,,7,,57,75
124512,note_on,2,0,4,,,,,,,,,,5,,76,127
124512,note_on,2,0,6,,,,,,,,,,6,,57,75
124512,note_on,2,0,5,,,,,,,,,,4,,61,60
124558,note_on,46,0,3,,,,,,,,,,2,,76,0
124558,note_on,46,0,4,,,,,,,,,,5,,76,0
124560,note_on,2,0,4,,,,,,,,,,5,,81,127
124560,note_on,2,0,3,,,,,,,,,,2,,81,127
124606,note_on,46,0,3,,,,,,,,,,2,,81,0
124606,note_on,94,0,6,,,,,,,,,,6,,57,0
124606,note_on,94,0,5,,,,,,,,,,4,,61,0
124606,note_on,46,0,4,,,,,,,,,,5,,81,0
124606,note_on,94,0,7,,,,,,,,,,7,,57,0
124608,note_on,2,0,4,,,,,,,,,,5,,69,127
124608,note_on,2,0,6,,,,,,,,,,6,,45,75
124608,note_on,2,0,5,,,,,,,,,,4,,61,60
124608,note_on,2,0,7,,,,,,,,,,7,,45,75
124608,note_on,2,0,3,,,,,,,,,,2,,69,127
124654,note_on,46,0,3,,,,,,,,,,2,,69,0
124654,note_on,46,0,4,,,,,,,,,,5,,69,0
124656,note_on,2,0,3,,,,,,,,,,2,,73,127
124656,note_on,2,0,4,,,,,,,,,,5,,73,127
124702,note_on,94,0,6,,,,,,,,,,6,,45,0
124702,note_on,46,0,4,,,,,,,,,,5,,73,0
124702,note_on,94,0,5,,,,,,,,,,4,,61,0
124702,note_on,94,0,7,,,,,,,,,,7,,45,0
124702,note_on,46,0,3,,,,,,,,,,2,,73,0
124704,note_on,2,0,6,,,,,,,,,,6,,53,75
124704,note_on,2,0,4,,,,,,,,,,5,,74,127
124704,note_on,2,0,7,,,,,,,,,,7,,53,75
124704,note_on,2,0,5,,,,,,,,,,4,,57,60
124704,note_on,2,0,3,,,,,,,,,,2,,74,127
124750,note_on,46,0,4,,,,,,,,,,5,,74,0
124750,note_on,46,0,3,,,,,,,,,,2,,74,0
124750,note_on,46,0,6,,,,,,,,,,6,,53,0
124750,note_on,46,0,5,,,,,,,,,,4,,57,0
124750,note_on,46,0,7,,,,,,,,,,7,,53,0
124752,note_on,2,0,6,,,,,,,,,,6,,50,75
124752,note_on,2,0,5,,,,,,,,,,4,,62,60
124752,note_on,2,0,3,,,,,,,,,,2,,65,127
124752,note_on,2,0,4,,,,,,,,,,5,,65,127
124752,note_on,2,0,7,,,,,,,,,,7,,50,75
124798,note_on,46,0,4,,,,,,,,,,5,,65,0
124798,note_on,46,0,5,,,,,,,,,,4,,62,0
124798,note_on,46,0,7,,,,,,,,,,7,,50,0
124798,note_on,46,0,3,,,,,,,,,,2,,65,0
124798,note_on,46,0,6,,,,,,,,,,6,,50,0
124800,note_on,2,0,5,,,,,,,,,,4,,62,60
124800,note_on,2,0,6,,,,,,,,,,6,,55,75
124800,note_on,2,0,7,,,,,,,,,,7,,55,75
124800,note_on,2,0,3,,,,,,,,,,2,,67,127
124800,note_on,2,0,4,,,,,,,,,,5,,67,127
124846,note_on,46,0,3,,,,,,,,,,2,,67,0
124846,note_on,46,0,4,,,,,,,,,,5,,67,0
124848,note_on,2,0,3,,,,,,,,,,2,,70,127
124848,note_on,2,0,4,,,,,,,,,,5,,70,127
124894,note_on,94,0,5,,,,,,,,,,4,,62,0
124894,note_on,46,0,4,,,,,,,,,,5,,70,0
124894,note_on,46,0,3,,,,,,,,,,2,,70,0
124896,note_on,2,0,4,,,,,,,,,,5,,69,127
124896,note_on,2,0,5,,,,,,,,,,4,,64,60
124896,note_on,2,0,3,,,,,,,,,,2,,69,127
124942,note_on,46,0,4,,,,,,,,,,5,,69,0
124942,note_on,46,0,3,,,,,,,,,,2,,69,0
124944,note_on,2,0,4,,,,,,,,,,5,,73,127
124944,note_on,2,0,3,,,,,,,,,,2,,73,127
124960,note_on,160,0,6,,,,,,,,,,6,,55,0
124960,note_on,160,0,7,,,,,,,,,,7,,55,0
124990,note_on,94,0,5,,,,,,,,,,4,,64,0
124990,note_on,46,0,4,,,,,,,,,,5,,73,0
124990,note_on,46,0,3,,,,,,,,,,2,,73,0
124992,note_on,2,0,5,,,,,,,,,,4,,57,60
124992,note_on,32,0,6,,,,,,,,,,6,,53,75
124992,note_on,32,0,7,,,,,,,,,,7,,53,75
124992,note_on,2,0,4,,,,,,,,,,5,,74,127
124992,note_on,2,0,3,,,,,,,,,,2,,74,127
125038,note_on,46,0,3,,,,,,,,,,2,,74,0
125038,note_on,46,0,6,,,,,,,,,,6,,53,0
125038,note_on,46,0,7,,,,,,,,,,7,,53,0
125038,note_on,46,0,4,,,,,,,,,,5,,74,0
125038,note_on,46,0,5,,,,,,,,,,4,,57,0
125040,note_on,2,0,7,,,,,,,,,,7,,50,75
125040,note_on,2,0,6,,,,,,,,,,6,,50,75
125040,note_on,2,0,4,,,,,,,,,,5,,65,127
125040,note_on,2,0,3,,,,,,,,,,2,,65,127
125040,note_on,2,0,5,,,,,,,,,,4,,62,60
125086,note_on,46,0,3,,,,,,,,,,2,,65,0
125086,note_on,46,0,6,,,,,,,,,,6,,50,0
125086,note_on,46,0,7,,,,,,,,,,7,,50,0
125086,note_on,46,0,4,,,,,,,,,,5,,65,0
125086,note_on,46,0,5,,,,,,,,,,4,,62,0
125088,note_on,2,0,4,,,,,,,,,,5,,67,127
125088,note_on,2,0,6,,,,,,,,,,6,,55,75
125088,note_on,2,0,7,,,,,,,,,,7,,55,75
125088,note_on,2,0,5,,,,,,,,,,4,,64,60
125088,note_on,2,0,3,,,,,,,,,,2,,67,127
125134,note_on,46,0,4,,,,,,,,,,5,,67,0
125134,note_on,46,0,3,,,,,,,,,,2,,67,0
125136,note_on,2,0,4,,,,,,,,,,5,,70,127
125136,note_on,2,0,3,,,,,,,,,,2,,70,127
125182,note_on,46,0,4,,,,,,,,,,5,,70,0
125182,note_on,46,0,3,,,,,,,,,,2,,70,0
125182,note_on,94,0,5,,,,,,,,,,4,,64,0
125184,note_on,2,0,3,,,,,,,,,,2,,69,127
125184,note_on,2,0,4,,,,,,,,,,5,,69,127
125184,note_on,2,0,5,,,,,,,,,,4,,64,60
125230,note_on,46,0,3,,,,,,,,,,2,,69,0
125230,note_on,46,0,4,,,,,,,,,,5,,69,0
125232,note_on,2,0,3,,,,,,,,,,2,,73,127
125232,note_on,2,0,4,,,,,,,,,,5,,73,127
125248,note_on,160,0,7,,,,,,,,,,7,,55,0
125248,note_on,160,0,6,,,,,,,,,,6,,55,0
125278,note_on,46,0,4,,,,,,,,,,5,,73,0
125278,note_on,94,0,5,,,,,,,,,,4,,64,0
125278,note_on,46,0,3,,,,,,,,,,2,,73,0
125280,note_on,32,0,6,,,,,,,,,,6,,53,75
125280,note_on,2,0,4,,,,,,,,,,5,,74,127
125280,note_on,2,0,5,,,,,,,,,,4,,57,60
125280,note_on,2,0,3,,,,,,,,,,2,,74,127
125280,note_on,32,0,7,,,,,,,,,,7,,53,75
125326,note_on,46,0,6,,,,,,,,,,6,,53,0
125326,note_on,46,0,7,,,,,,,,,,7,,53,0
125326,note_on,46,0,4,,,,,,,,,,5,,74,0
125326,note_on,46,0,5,,,,,,,,,,4,,57,0
125326,note_on,46,0,3,,,,,,,,,,2,,74,0
125328,note_on,2,0,4,,,,,,,,,,5,,77,127
125328,note_on,2,0,7,,,,,,,,,,7,,50,75
125328,note_on,2,0,5,,,,,,,,,,4,,69,60
125328,note_on,2,0,3,,,,,,,,,,2,,77,127
125328,note_on,2,0,6,,,,,,,,,,6,,50,75
125374,note_on,46,0,4,,,,,,,,,,5,,77,0
125374,note_on,46,0,6,,,,,,,,,,6,,50,0
125374,note_on,46,0,5,,,,,,,,,,4,,69,0
125374,note_on,46,0,3,,,,,,,,,,2,,77,0
125374,note_on,46,0,7,,,,,,,,,,7,,50,0
125376,note_on,2,0,4,,,,,,,,,,5,,76,127
125376,note_on,2,0,5,,,,,,,,,,4,,61,60
125376,note_on,2,0,7,,,,,,,,,,7,,57,75
125376,note_on,2,0,3,,,,,,,,,,2,,76,127
125376,note_on,2,0,6,,,,,,,,,,6,,57,75
125422,note_on,46,0,3,,,,,,,,,,2,,76,0
125422,note_on,46,0,4,,,,,,,,,,5,,76,0
125424,note_on,2,0,4,,,,,,,,,,5,,81,127
125424,note_on,2,0,3,,,,,,,,,,2,,81,127
125470,note_on,46,0,3,,,,,,,,,,2,,81,0
125470,note_on,94,0,7,,,,,,,,,,7,,57,0
125470,note_on,94,0,5,,,,,,,,,,4,,61,0
125470,note_on,46,0,4,,,,,,,,,,5,,81,0
125470,note_on,94,0,6,,,,,,,,,,6,,57,0
125472,note_on,2,0,3,,,,,,,,,,2,,69,127
125472,note_on,2,0,7,,,,,,,,,,7,,45,75
125472,note_on,2,0,6,,,,,,,,,,6,,45,75
125472,note_on,2,0,4,,,,,,,,,,5,,69,127
125472,note_on,2,0,5,,,,,,,,,,4,,69,60
125518,note_on,46,0,4,,,,,,,,,,5,,69,0
125518,note_on,46,0,3,,,,,,,,,,2,,69,0
125520,note_on,2,0,3,,,,,,,,,,2,,73,127
125520,note_on,2,0,4,,,,,,,,,,5,,73,127
125566,note_on,46,0,3,,,,,,,,,,2,,73,0
125566,note_on,94,0,7,,,,,,,,,,7,,45,0
125566,note_on,46,0,4,,,,,,,,,,5,,73,0
125566,note_on,94,0,6,,,,,,,,,,6,,45,0
125566,note_on,94,0,5,,,,,,,,,,4,,69,0
125568,note_on,2,0,7,,,,,,,,,,7,,53,75
125568,note_on,2,0,6,,,,,,,,,,6,,53,75
125568,note_on,2,0,4,,,,,,,,,,5,,74,127
125568,note_on,2,0,5,,,,,,,,,,4,,57,60
125568,note_on,2,0,3,,,,,,,,,,2,,74,127
125568,set_tempo,23904,1,0,857142,,,,,,,,,,,,
125614,note_on,46,0,7,,,,,,,,,,7,,53,0
125614,note_on,46,0,4,,,,,,,,,,5,,74,0
125614,note_on,46,0,3,,,,,,,,,,2,,74,0
125614,note_on,46,0,6,,,,,,,,,,6,,53,0
125614,note_on,46,0,5,,,,,,,,,,4,,57,0
125616,note_on,2,0,3,,,,,,,,,,2,,77,127
125616,note_on,2,0,6,,,,,,,,,,6,,50,75
125616,note_on,2,0,4,,,,,,,,,,5,,77,127
125616,note_on,2,0,7,,,,,,,,,,7,,50,75
125616,note_on,2,0,5,,,,,,,,,,4,,69,60
125662,note_on,46,0,6,,,,,,,,,,6,,50,0
125662,note_on,46,0,4,,,,,,,,,,5,,77,0
125662,note_on,46,0,5,,,,,,,,,,4,,69,0
125662,note_on,46,0,7,,,,,,,,,,7,,50,0
125662,note_on,46,0,3,,,,,,,,,,2,,77,0
125664,note_on,2,0,7,,,,,,,,,,7,,57,75
125664,set_tempo,96,1,0,923076,,,,,,,,,,,,
125664,note_on,2,0,3,,,,,,,,,,2,,76,127
125664,note_on,2,0,6,,,,,,,,,,6,,57,75
125664,note_on,2,0,4,,,,,,,,,,5,,76,127
125664,note_on,2,0,5,,,,,,,,,,4,,61,60
125710,note_on,46,0,3,,,,,,,,,,2,,76,0
125710,note_on,46,0,4,,,,,,,,,,5,,76,0
125712,note_on,2,0,3,,,,,,,,,,2,,81,127
125712,note_on,2,0,4,,,,,,,,,,5,,81,127
125758,note_on,94,0,7,,,,,,,,,,7,,57,0
125758,note_on,94,0,6,,,,,,,,,,6,,57,0
125758,note_on,46,0,4,,,,,,,,,,5,,81,0
125758,note_on,46,0,3,,,,,,,,,,2,,81,0
125758,note_on,94,0,5,,,,,,,,,,4,,61,0
125760,note_on,2,0,3,,,,,,,,,,2,,69,127
125760,note_on,2,0,7,,,,,,,,,,7,,45,75
125760,set_tempo,96,1,0,1000000,,,,,,,,,,,,
125760,note_on,2,0,6,,,,,,,,,,6,,45,75
125760,note_on,2,0,5,,,,,,,,,,4,,69,60
125760,note_on,2,0,4,,,,,,,,,,5,,69,127
125806,note_on,46,0,3,,,,,,,,,,2,,69,0
125806,note_on,46,0,4,,,,,,,,,,5,,69,0
125808,note_on,2,0,3,,,,,,,,,,2,,73,127
125808,set_tempo,48,1,0,1200000,,,,,,,,,,,,
125808,note_on,2,0,4,,,,,,,,,,5,,73,127
125854,note_on,46,0,4,,,,,,,,,,5,,73,0
125854,note_on,94,0,7,,,,,,,,,,7,,45,0
125854,note_on,94,0,5,,,,,,,,,,4,,69,0
125854,note_on,46,0,3,,,,,,,,,,2,,73,0
125854,note_on,94,0,6,,,,,,,,,,6,,45,0
125856,set_tempo,48,1,0,1500000,,,,,,,,,,,,
125856,end_of_track,0,1,0,,,,,,,,,,,,,
125952,note_on,98,0,7,,,,,,,,,,7,,38,75
125952,note_on,98,0,6,,,,,,,,,,6,,38,75
125952,note_on,98,0,3,,,,,,,,,,2,,62,127
125952,note_on,98,0,5,,,,,,,,,,4,,57,60
125952,note_on,98,0,4,,,,,,,,,,5,,65,127
126112,note_on,160,0,6,,,,,,,,,,6,,38,0
126112,end_of_track,0,1,6,,,,,,,,,,,,,
126112,end_of_track,0,1,3,,,,,,,,,,,,,
126112,end_of_track,0,1,5,,,,,,,,,,,,,
126112,note_on,160,0,5,,,,,,,,,,4,,57,0
126112,note_on,160,0,7,,,,,,,,,,7,,38,0
126112,end_of_track,0,1,4,,,,,,,,,,,,,
126112,note_on,160,0,4,,,,,,,,,,5,,65,0
126112,note_on,160,0,3,,,,,,,,,,2,,62,0
126112,end_of_track,0,1,7,,,,,,,,,,,,,
