tick,type,numerator,denominator,clocks_per_click,notated_32nd_notes_per_beat,time,meta,track,data,tempo,control,value,channel,program,key,note,velocity
0,time_signature,3,4,96,8,0,1,0,,,,,,,,,
0,control_change,,,,,0,0,6,,,0,0,0,,,,
0,program_change,,,,,0,0,6,,,,,0,48,,,
0,control_change,,,,,0,0,6,,,7,100,0,,,,
0,control_change,,,,,0,0,6,,,10,56,0,,,,
0,control_change,,,,,0,0,6,,,91,66,0,,,,
0,key_signature,,,,,0,1,6,,,,,,,Em,,
0,end_of_track,,,,,0,1,6,,,,,,,,,
0,track_name,,,,,0,1,7,,,,,,,,,
0,control_change,,,,,0,0,7,,,0,0,0,,,,
0,program_change,,,,,0,0,7,,,,,0,48,,,
0,track_name,,,,,0,1,6,,,,,,,,,
0,control_change,,,,,0,0,7,,,7,100,0,,,,
0,control_change,,,,,0,0,7,,,91,66,0,,,,
0,key_signature,,,,,0,1,7,,,,,,,Em,,
0,end_of_track,,,,,0,1,7,,,,,,,,,
0,track_name,,,,,0,1,8,,,,,,,,,
0,control_change,,,,,0,0,8,,,0,0,0,,,,
0,program_change,,,,,0,0,8,,,,,0,48,,,
0,control_change,,,,,0,0,8,,,7,100,0,,,,
0,control_change,,,,,0,0,8,,,10,56,0,,,,
0,control_change,,,,,0,0,8,,,91,66,0,,,,
0,key_signature,,,,,0,1,8,,,,,,,Em,,
0,control_change,,,,,0,0,7,,,10,56,0,,,,
0,end_of_track,,,,,0,1,5,,,,,,,,,
0,key_signature,,,,,0,1,5,,,,,,,Em,,
0,control_change,,,,,0,0,5,,,91,66,0,,,,
0,track_name,,,,,0,1,2,,,,,,,,,
0,end_of_track,,,,,0,1,2,,,,,,,,,
0,track_name,,,,,0,1,3,,,,,,,,,
0,control_change,,,,,0,0,3,,,0,0,0,,,,
0,control_change,,,,,0,0,3,,,7,100,0,,,,
0,control_change,,,,,0,0,3,,,10,56,0,,,,
0,control_change,,,,,0,0,3,,,91,66,0,,,,
0,program_change,,,,,0,0,3,,,,,0,48,,,
0,key_signature,,,,,0,1,3,,,,,,,Em,,
0,end_of_track,,,,,0,1,3,,,,,,,,,
0,track_name,,,,,0,1,4,,,,,,,,,
0,control_change,,,,,0,0,4,,,0,0,0,,,,
0,program_change,,,,,0,0,4,,,,,0,48,,,
0,control_change,,,,,0,0,4,,,7,100,0,,,,
0,control_change,,,,,0,0,4,,,10,56,0,,,,
0,control_change,,,,,0,0,4,,,91,66,0,,,,
0,key_signature,,,,,0,1,4,,,,,,,Em,,
0,end_of_track,,,,,0,1,4,,,,,,,,,
0,track_name,,,,,0,1,5,,,,,,,,,
0,control_change,,,,,0,0,5,,,0,0,0,,,,
0,program_change,,,,,0,0,5,,,,,0,48,,,
0,control_change,,,,,0,0,5,,,7,100,0,,,,
0,control_change,,,,,0,0,5,,,10,56,0,,,,
0,note_on,,,,,0,0,8,,,,,0,,,76,60
0,key_signature,,,,,0,1,16,,,,,,,Em,,
0,control_change,,,,,0,0,16,,,91,62,7,,,,
0,control_change,,,,,0,0,16,,,7,55,7,,,,
0,control_change,,,,,0,0,13,,,7,82,5,,,,
0,program_change,,,,,0,0,13,,,,,5,48,,,
0,control_change,,,,,0,0,13,,,0,0,5,,,,
0,track_name,,,,,0,1,13,,,,,,,,,
0,key_signature,,,,,0,1,12,,,,,,,Em,,
0,control_change,,,,,0,0,12,,,91,67,4,,,,
0,control_change,,,,,0,0,12,,,7,95,4,,,,
0,program_change,,,,,0,0,12,,,,,4,48,,,
0,control_change,,,,,0,0,12,,,0,0,4,,,,
0,track_name,,,,,0,1,12,,,,,,,,,
0,track_name,,,,,0,1,10,,,,,,,,,
0,control_change,,,,,0,0,10,,,0,0,2,,,,
0,program_change,,,,,0,0,10,,,,,2,48,,,
0,control_change,,,,,0,0,10,,,7,100,2,,,,
0,control_change,,,,,0,0,10,,,10,36,2,,,,
0,control_change,,,,,0,0,10,,,91,66,2,,,,
0,key_signature,,,,,0,1,10,,,,,,,Em,,
0,note_on,,,,,0,0,10,,,,,2,,,76,20
0,key_signature,,,,,0,1,11,,,,,,,Em,,
0,control_change,,,,,0,0,11,,,91,65,3,,,,
0,control_change,,,,,0,0,11,,,10,53,3,,,,
0,control_change,,,,,0,0,11,,,7,100,3,,,,
0,program_change,,,,,0,0,11,,,,,3,48,,,
0,control_change,,,,,0,0,13,,,10,86,5,,,,
0,end_of_track,,,,,0,1,1,,,,,,,,,
0,control_change,,,,,0,0,13,,,91,63,5,,,,
0,track_name,,,,,0,1,14,,,,,,,,,
0,program_change,,,,,0,0,16,,,,,7,6,,,
0,control_change,,,,,0,0,16,,,0,0,7,,,,
0,track_name,,,,,0,1,16,,,,,,,,,
0,key_signature,,,,,0,1,15,,,,,,,Em,,
0,control_change,,,,,0,0,15,,,91,62,7,,,,
0,control_change,,,,,0,0,15,,,7,55,7,,,,
0,program_change,,,,,0,0,15,,,,,7,6,,,
0,control_change,,,,,0,0,15,,,0,0,7,,,,
0,track_name,,,,,0,1,15,,,,,,,,,
0,control_change,,,,,0,0,11,,,0,0,3,,,,
0,track_name,,,,,0,1,9,,,,,,,,,
0,control_change,,,,,0,0,9,,,0,0,1,,,,
0,program_change,,,,,0,0,9,,,,,1,48,,,
0,control_change,,,,,0,0,9,,,7,100,1,,,,
0,control_change,,,,,0,0,9,,,10,40,1,,,,
0,control_change,,,,,0,0,9,,,91,65,1,,,,
0,key_signature,,,,,0,1,9,,,,,,,Em,,
0,key_signature,,,,,0,1,14,,,,,,,Em,,
0,control_change,,,,,0,0,14,,,91,60,6,,,,
0,control_change,,,,,0,0,14,,,10,97,6,,,,
0,control_change,,,,,0,0,14,,,7,77,6,,,,
0,program_change,,,,,0,0,14,,,,,6,48,,,
0,control_change,,,,,0,0,14,,,0,0,6,,,,
0,key_signature,,,,,0,1,13,,,,,,,Em,,
0,track_name,,,,,0,1,1,,,,,,,,,
0,track_name,,,,,0,1,11,,,,,,,,,
0,sequencer_specific,,,,,0,1,0,"(0, 0, 65)",,,,,,,,
0,sequencer_specific,,,,,0,1,0,"(0, 0, 119, 14, 1)",,,,,,,,
0,set_tempo,,,,,0,1,0,,1111111,,,,,,,
256,note_off,,,,,256,0,8,,,,,0,,,76,100
256,note_off,,,,,256,0,10,,,,,2,,,76,100
384,note_on,,,,,128,0,10,,,,,2,,,71,20
384,note_on,,,,,128,0,8,,,,,0,,,71,60
640,note_off,,,,,256,0,10,,,,,2,,,71,100
640,note_off,,,,,256,0,8,,,,,0,,,71,100
768,note_on,,,,,128,0,10,,,,,2,,,79,20
768,note_on,,,,,768,0,16,,,,,7,,,52,100
768,note_on,,,,,768,0,13,,,,,5,,,52,60
768,note_on,,,,,128,0,8,,,,,0,,,79,60
768,note_on,,,,,768,0,15,,,,,7,,,67,100
768,note_on,,,,,768,0,14,,,,,6,,,40,60
1024,note_off,,,,,256,0,10,,,,,2,,,79,100
1024,note_off,,,,,256,0,13,,,,,5,,,52,100
1024,note_off,,,,,256,0,16,,,,,7,,,52,100
1024,note_off,,,,,256,0,14,,,,,6,,,40,100
1024,note_off,,,,,256,0,15,,,,,7,,,67,100
1024,note_off,,,,,256,0,8,,,,,0,,,79,100
1152,note_on,,,,,128,0,15,,,,,7,,,58,100
1152,note_on,,,,,128,0,10,,,,,2,,,79,20
1152,note_on,,,,,128,0,8,,,,,0,,,79,60
1152,note_on,,,,,128,0,16,,,,,7,,,46,100
1152,note_on,,,,,1152,0,11,,,,,3,,,76,20
1152,note_on,,,,,1152,0,12,,,,,4,,,61,60
1152,note_on,,,,,128,0,14,,,,,6,,,34,60
1152,note_on,,,,,128,0,13,,,,,5,,,46,60
1152,note_on,,,,,1152,0,9,,,,,1,,,76,60
1180,note_on,,,,,28,0,15,,,,,7,,,64,100
1212,note_on,,,,,32,0,15,,,,,7,,,67,100
1408,note_off,,,,,256,0,11,,,,,3,,,76,100
1408,note_off,,,,,256,0,9,,,,,1,,,76,100
1536,note_on,,,,,128,0,11,,,,,3,,,70,20
1536,note_on,,,,,128,0,9,,,,,1,,,70,60
1664,note_off,,,,,512,0,12,,,,,4,,,61,100
1664,note_off,,,,,512,0,14,,,,,6,,,34,100
1664,note_off,,,,,512,0,16,,,,,7,,,46,100
1664,note_off,,,,,512,0,13,,,,,5,,,46,100
1664,note_off,,,,,452,0,15,,,,,7,,,58,100
1692,note_off,,,,,28,0,15,,,,,7,,,64,100
1724,note_off,,,,,32,0,15,,,,,7,,,67,100
1792,note_off,,,,,256,0,9,,,,,1,,,70,100
1792,note_off,,,,,256,0,11,,,,,3,,,70,100
1920,note_on,,,,,0,0,15,,,,,7,,,67,100
1920,note_on,,,,,128,0,9,,,,,1,,,76,60
1920,note_off,,,,,768,0,8,,,,,0,,,79,100
1920,note_on,,,,,256,0,16,,,,,7,,,46,100
1920,note_on,,,,,256,0,14,,,,,6,,,34,60
1920,note_on,,,,,256,0,13,,,,,5,,,46,60
1920,note_off,,,,,768,0,10,,,,,2,,,79,100
1920,note_on,,,,,256,0,12,,,,,4,,,73,60
1920,note_on,,,,,196,0,15,,,,,7,,,64,100
1920,note_on,,,,,128,0,11,,,,,3,,,76,20
2176,note_off,,,,,256,0,15,,,,,7,,,64,100
2176,note_off,,,,,0,0,15,,,,,7,,,67,100
2176,note_off,,,,,256,0,11,,,,,3,,,76,100
2176,note_off,,,,,256,0,9,,,,,1,,,76,100
2176,note_off,,,,,256,0,12,,,,,4,,,73,100
2176,note_off,,,,,256,0,13,,,,,5,,,46,100
2176,note_off,,,,,256,0,14,,,,,6,,,34,100
2176,note_off,,,,,256,0,16,,,,,7,,,46,100
2304,note_on,,,,,384,0,8,,,,,0,,,78,60
2304,note_on,,,,,128,0,13,,,,,5,,,47,60
2304,note_on,,,,,128,0,9,,,,,1,,,74,60
2304,note_on,,,,,384,0,10,,,,,2,,,78,20
2304,note_on,,,,,128,0,16,,,,,7,,,47,100
2304,note_on,,,,,128,0,14,,,,,6,,,35,60
2304,note_on,,,,,128,0,12,,,,,4,,,66,60
2304,note_on,,,,,0,0,15,,,,,7,,,66,100
2304,note_on,,,,,128,0,15,,,,,7,,,62,100
2304,note_on,,,,,128,0,11,,,,,3,,,74,20
2560,note_off,,,,,256,0,10,,,,,2,,,78,100
2560,note_off,,,,,256,0,8,,,,,0,,,78,100
2688,note_on,,,,,128,0,8,,,,,0,,,83,60
2688,note_on,,,,,128,0,10,,,,,2,,,83,20
2816,note_off,,,,,512,0,16,,,,,7,,,47,100
2816,note_off,,,,,512,0,14,,,,,6,,,35,100
2816,note_off,,,,,512,0,9,,,,,1,,,74,100
2816,note_off,,,,,512,0,13,,,,,5,,,47,100
2816,note_off,,,,,512,0,12,,,,,4,,,66,100
2816,note_off,,,,,0,0,15,,,,,7,,,66,100
2816,note_off,,,,,512,0,15,,,,,7,,,62,100
2816,note_off,,,,,512,0,11,,,,,3,,,74,100
3072,note_on,,,,,256,0,12,,,,,4,,,62,60
3072,note_on,,,,,256,0,16,,,,,7,,,47,100
3072,note_on,,,,,256,0,11,,,,,3,,,78,20
3072,note_on,,,,,256,0,14,,,,,6,,,35,60
3072,note_on,,,,,256,0,15,,,,,7,,,62,100
3072,note_on,,,,,0,0,15,,,,,7,,,66,100
3072,note_on,,,,,256,0,13,,,,,5,,,47,60
3072,note_on,,,,,256,0,9,,,,,1,,,78,60
3328,note_off,,,,,256,0,9,,,,,1,,,78,100
3328,note_off,,,,,256,0,16,,,,,7,,,47,100
3328,note_off,,,,,256,0,15,,,,,7,,,62,100
3328,note_off,,,,,0,0,15,,,,,7,,,66,100
3328,note_off,,,,,256,0,11,,,,,3,,,78,100
3328,note_off,,,,,256,0,13,,,,,5,,,47,100
3328,note_off,,,,,256,0,12,,,,,4,,,62,100
3328,note_off,,,,,256,0,14,,,,,6,,,35,100
3456,note_on,,,,,128,0,12,,,,,4,,,67,60
3456,note_on,,,,,128,0,15,,,,,7,,,64,100
3456,note_on,,,,,128,0,11,,,,,3,,,76,20
3456,note_on,,,,,128,0,13,,,,,5,,,49,60
3456,note_on,,,,,128,0,16,,,,,7,,,49,100
3456,note_on,,,,,128,0,9,,,,,1,,,76,60
3456,note_on,,,,,128,0,14,,,,,6,,,37,60
3484,note_on,,,,,28,0,15,,,,,7,,,67,100
3516,note_on,,,,,32,0,15,,,,,7,,,71,100
3708,note_off,,,,,192,0,15,,,,,7,,,71,100
3712,note_off,,,,,256,0,12,,,,,4,,,67,100
3716,note_off,,,,,1028,0,10,,,,,2,,,83,100
3716,note_off,,,,,1028,0,8,,,,,0,,,83,64
3840,note_on,,,,,132,0,15,,,,,7,,,69,100
3840,note_on,,,,,124,0,10,,,,,2,,,81,20
3840,note_on,,,,,128,0,12,,,,,4,,,61,60
3840,note_on,,,,,124,0,8,,,,,0,,,81,60
3968,note_off,,,,,512,0,13,,,,,5,,,49,100
3968,note_off,,,,,512,0,14,,,,,6,,,37,100
3968,note_off,,,,,128,0,15,,,,,7,,,64,100
3968,note_off,,,,,512,0,16,,,,,7,,,49,100
3996,note_off,,,,,28,0,15,,,,,7,,,67,100
4096,note_off,,,,,100,0,15,,,,,7,,,69,100
4224,note_on,,,,,256,0,14,,,,,6,,,37,60
4224,note_off,,,,,768,0,11,,,,,3,,,76,100
4224,note_off,,,,,768,0,9,,,,,1,,,76,100
4224,note_on,,,,,256,0,16,,,,,7,,,49,100
4224,note_on,,,,,128,0,15,,,,,7,,,64,100
4224,note_on,,,,,256,0,13,,,,,5,,,49,60
4260,note_on,,,,,36,0,15,,,,,7,,,69,100
4352,note_off,,,,,512,0,12,,,,,4,,,61,100
4480,note_off,,,,,256,0,14,,,,,6,,,37,100
4480,note_off,,,,,220,0,15,,,,,7,,,64,100
4480,note_off,,,,,256,0,16,,,,,7,,,49,100
4480,note_off,,,,,256,0,13,,,,,5,,,49,100
4516,note_off,,,,,36,0,15,,,,,7,,,69,100
4608,note_on,,,,,128,0,14,,,,,6,,,35,60
4608,note_on,,,,,256,0,12,,,,,4,,,66,60
4608,note_on,,,,,384,0,9,,,,,1,,,75,60
4608,note_on,,,,,128,0,13,,,,,5,,,47,60
4608,note_on,,,,,384,0,11,,,,,3,,,75,20
4608,note_on,,,,,128,0,16,,,,,7,,,47,100
4608,note_on,,,,,92,0,15,,,,,7,,,69,100
4608,note_on,,,,,0,0,15,,,,,7,,,63,100
4864,note_off,,,,,256,0,14,,,,,6,,,35,100
4864,note_off,,,,,256,0,15,,,,,7,,,69,100
4864,note_off,,,,,0,0,15,,,,,7,,,63,100
4864,note_off,,,,,256,0,12,,,,,4,,,66,100
4864,note_off,,,,,256,0,9,,,,,1,,,75,100
4864,note_off,,,,,256,0,11,,,,,3,,,75,100
4864,note_off,,,,,256,0,13,,,,,5,,,47,100
4864,note_off,,,,,256,0,16,,,,,7,,,47,100
4868,note_off,,,,,1028,0,10,,,,,2,,,81,100
4868,note_off,,,,,1028,0,8,,,,,0,,,81,64
4992,note_on,,,,,128,0,9,,,,,1,,,74,60
4992,note_on,,,,,0,0,15,,,,,7,,,68,100
4992,note_on,,,,,128,0,13,,,,,5,,,52,60
4992,note_on,,,,,128,0,15,,,,,7,,,74,100
4992,note_on,,,,,128,0,14,,,,,6,,,40,60
4992,note_on,,,,,124,0,10,,,,,2,,,80,20
4992,note_on,,,,,128,0,16,,,,,7,,,52,100
4992,note_on,,,,,128,0,11,,,,,3,,,74,20
4992,note_on,,,,,124,0,8,,,,,0,,,80,60
4992,note_on,,,,,128,0,12,,,,,4,,,59,60
5376,note_off,,,,,384,0,16,,,,,7,,,52,100
5376,note_off,,,,,384,0,9,,,,,1,,,74,100
5376,note_off,,,,,384,0,15,,,,,7,,,74,100
5376,note_off,,,,,0,0,15,,,,,7,,,68,100
5376,note_off,,,,,384,0,11,,,,,3,,,74,100
5376,note_off,,,,,384,0,10,,,,,2,,,80,100
5376,note_off,,,,,384,0,8,,,,,0,,,80,100
5376,note_off,,,,,384,0,13,,,,,5,,,52,100
5376,note_off,,,,,384,0,12,,,,,4,,,59,100
5376,note_off,,,,,384,0,14,,,,,6,,,40,100
5568,note_on,,,,,192,0,14,,,,,6,,,40,60
5568,note_on,,,,,192,0,13,,,,,5,,,52,60
5568,note_on,,,,,192,0,10,,,,,2,,,80,20
5568,note_on,,,,,192,0,16,,,,,7,,,52,100
5568,note_on,,,,,0,0,15,,,,,7,,,74,100
5568,note_on,,,,,192,0,9,,,,,1,,,74,60
5568,note_on,,,,,192,0,11,,,,,3,,,74,20
5568,note_on,,,,,192,0,12,,,,,4,,,59,60
5568,note_on,,,,,192,0,8,,,,,0,,,80,60
5568,note_on,,,,,192,0,15,,,,,7,,,68,100
5696,note_off,,,,,128,0,12,,,,,4,,,59,100
5696,note_off,,,,,128,0,9,,,,,1,,,74,100
5696,note_off,,,,,128,0,13,,,,,5,,,52,100
5696,note_off,,,,,128,0,16,,,,,7,,,52,100
5696,note_off,,,,,128,0,10,,,,,2,,,80,100
5696,note_off,,,,,128,0,11,,,,,3,,,74,100
5696,note_off,,,,,128,0,14,,,,,6,,,40,100
5696,note_off,,,,,0,0,15,,,,,7,,,74,100
5696,note_off,,,,,128,0,15,,,,,7,,,68,100
5696,note_off,,,,,128,0,8,,,,,0,,,80,100
5760,note_on,,,,,64,0,10,,,,,2,,,82,20
5760,note_on,,,,,64,0,14,,,,,6,,,40,60
5760,note_on,,,,,64,0,13,,,,,5,,,52,60
5760,note_on,,,,,0,0,15,,,,,7,,,66,100
5760,note_on,,,,,64,0,15,,,,,7,,,70,100
5760,note_on,,,,,64,0,11,,,,,3,,,73,20
5760,note_on,,,,,64,0,12,,,,,4,,,66,60
5760,set_tempo,,,,,5760,1,0,,1111111,,,,,,,
5760,note_on,,,,,64,0,8,,,,,0,,,82,60
5760,note_on,,,,,64,0,16,,,,,7,,,52,100
5760,note_on,,,,,64,0,9,,,,,1,,,73,60
6272,note_off,,,,,512,0,8,,,,,0,,,82,100
6272,note_off,,,,,512,0,16,,,,,7,,,52,100
6272,note_off,,,,,512,0,12,,,,,4,,,66,100
6272,note_off,,,,,512,0,10,,,,,2,,,82,100
6272,note_off,,,,,512,0,15,,,,,7,,,70,100
6272,note_off,,,,,0,0,15,,,,,7,,,66,100
6272,note_off,,,,,512,0,11,,,,,3,,,73,100
6272,note_off,,,,,512,0,9,,,,,1,,,73,100
6272,note_off,,,,,512,0,13,,,,,5,,,52,100
6272,note_off,,,,,512,0,14,,,,,6,,,40,100
6528,note_on,,,,,256,0,10,,,,,2,,,83,20
6528,note_on,,,,,256,0,11,,,,,3,,,74,20
6528,note_on,,,,,256,0,16,,,,,7,,,50,100
6528,note_on,,,,,256,0,8,,,,,0,,,83,60
6528,note_on,,,,,256,0,14,,,,,6,,,38,60
6528,note_on,,,,,256,0,13,,,,,5,,,50,60
6528,note_on,,,,,256,0,9,,,,,1,,,74,60
6528,note_on,,,,,256,0,12,,,,,4,,,66,60
6528,note_on,,,,,256,0,15,,,,,7,,,71,100
6528,note_on,,,,,0,0,15,,,,,7,,,66,100
6784,note_off,,,,,256,0,12,,,,,4,,,66,100
6784,note_off,,,,,256,0,13,,,,,5,,,50,100
6784,note_off,,,,,0,0,15,,,,,7,,,66,100
6784,note_off,,,,,256,0,15,,,,,7,,,71,100
6784,note_off,,,,,256,0,16,,,,,7,,,50,100
6784,note_off,,,,,256,0,14,,,,,6,,,38,100
6784,note_off,,,,,256,0,11,,,,,3,,,74,100
6784,note_off,,,,,256,0,9,,,,,1,,,74,100
6912,note_on,,,,,128,0,13,,,,,5,,,52,60
6912,note_on,,,,,128,0,16,,,,,7,,,52,100
6912,note_on,,,,,128,0,11,,,,,3,,,73,20
6912,note_on,,,,,0,0,15,,,,,7,,,73,100
6912,note_on,,,,,128,0,14,,,,,6,,,40,60
6912,note_on,,,,,128,0,15,,,,,7,,,71,100
6912,set_tempo,,,,,1152,1,0,,1111111,,,,,,,
6912,note_on,,,,,128,0,9,,,,,1,,,73,60
6912,note_on,,,,,128,0,12,,,,,4,,,67,60
6948,set_tempo,,,,,36,1,0,,1111111,,,,,,,
6988,set_tempo,,,,,40,1,0,,1132075,,,,,,,
7024,set_tempo,,,,,36,1,0,,1153846,,,,,,,
7064,set_tempo,,,,,40,1,0,,1176470,,,,,,,
7104,set_tempo,,,,,40,1,0,,1176470,,,,,,,
7140,set_tempo,,,,,36,1,0,,1200000,,,,,,,
7168,note_off,,,,,256,0,14,,,,,6,,,40,100
7168,note_off,,,,,256,0,13,,,,,5,,,52,100
7168,note_off,,,,,0,0,15,,,,,7,,,73,100
7168,note_off,,,,,256,0,15,,,,,7,,,71,100
7168,note_off,,,,,256,0,12,,,,,4,,,67,100
7168,note_off,,,,,256,0,16,,,,,7,,,52,100
7180,set_tempo,,,,,40,1,0,,1224489,,,,,,,
7216,set_tempo,,,,,36,1,0,,1250000,,,,,,,
7224,note_off,,,,,696,0,8,,,,,0,,,83,64
7224,note_off,,,,,696,0,10,,,,,2,,,83,64
7256,set_tempo,,,,,40,1,0,,1250000,,,,,,,
7296,note_on,,,,,128,0,12,,,,,4,,,66,60
7296,note_on,,,,,128,0,14,,,,,6,,,42,60
7296,note_on,,,,,72,0,10,,,,,2,,,82,20
7296,note_on,,,,,128,0,13,,,,,5,,,54,60
7296,note_on,,,,,0,0,15,,,,,7,,,70,100
7296,note_on,,,,,128,0,15,,,,,7,,,73,100
7296,set_tempo,,,,,40,1,0,,1276595,,,,,,,
7296,note_on,,,,,72,0,8,,,,,0,,,82,60
7296,note_on,,,,,128,0,16,,,,,7,,,54,100
7332,set_tempo,,,,,36,1,0,,1304347,,,,,,,
7372,set_tempo,,,,,40,1,0,,1333333,,,,,,,
7408,set_tempo,,,,,36,1,0,,1333333,,,,,,,
7448,set_tempo,,,,,40,1,0,,1363636,,,,,,,
7488,set_tempo,,,,,40,1,0,,1395348,,,,,,,
7524,set_tempo,,,,,36,1,0,,1428571,,,,,,,
7552,note_off,,,,,0,0,15,,,,,7,,,70,100
7552,note_off,,,,,256,0,13,,,,,5,,,54,100
7552,note_off,,,,,256,0,14,,,,,6,,,42,100
7552,note_off,,,,,256,0,16,,,,,7,,,54,100
7552,note_off,,,,,256,0,15,,,,,7,,,73,100
7564,set_tempo,,,,,40,1,0,,1428571,,,,,,,
7600,set_tempo,,,,,36,1,0,,1463414,,,,,,,
7640,set_tempo,,,,,40,1,0,,1500000,,,,,,,
7680,set_tempo,,,,,40,1,0,,1538461,,,,,,,
7680,note_on,,,,,128,0,16,,,,,7,,,42,100
7680,note_on,,,,,0,0,15,,,,,7,,,70,100
7680,note_on,,,,,128,0,14,,,,,6,,,42,60
7680,note_on,,,,,128,0,13,,,,,5,,,42,60
7680,note_on,,,,,128,0,15,,,,,7,,,61,100
7716,set_tempo,,,,,36,1,0,,1538461,,,,,,,
7756,set_tempo,,,,,40,1,0,,1578947,,,,,,,
7792,set_tempo,,,,,36,1,0,,1621621,,,,,,,
7808,note_off,,,,,512,0,12,,,,,4,,,66,100
7832,set_tempo,,,,,40,1,0,,1621621,,,,,,,
7872,set_tempo,,,,,40,1,0,,1666666,,,,,,,
7908,set_tempo,,,,,36,1,0,,1714285,,,,,,,
7936,note_off,,,,,256,0,15,,,,,7,,,61,100
7936,note_off,,,,,1024,0,11,,,,,3,,,73,100
7936,note_off,,,,,0,0,15,,,,,7,,,70,100
7936,note_off,,,,,256,0,13,,,,,5,,,42,100
7936,note_off,,,,,256,0,16,,,,,7,,,42,100
7936,note_off,,,,,1024,0,9,,,,,1,,,73,100
7936,note_off,,,,,640,0,10,,,,,2,,,82,100
7936,note_off,,,,,640,0,8,,,,,0,,,82,100
7936,note_off,,,,,256,0,14,,,,,6,,,42,100
7948,set_tempo,,,,,40,1,0,,1764705,,,,,,,
7984,set_tempo,,,,,36,1,0,,1764705,,,,,,,
8024,set_tempo,,,,,40,1,0,,1818181,,,,,,,
8064,set_tempo,,,,,40,1,0,,1818181,,,,,,,
8064,note_on,,,,,256,0,12,,,,,4,,,66,60
8064,note_on,,,,,128,0,16,,,,,7,,,47,100
8064,note_on,,,,,128,0,14,,,,,6,,,35,60
8064,note_on,,,,,128,0,9,,,,,1,,,74,60
8064,note_on,,,,,128,0,15,,,,,7,,,59,100
8064,note_on,,,,,128,0,11,,,,,3,,,74,20
8064,note_on,,,,,128,0,8,,,,,0,,,83,60
8064,note_on,,,,,128,0,10,,,,,2,,,83,20
8064,note_on,,,,,128,0,13,,,,,5,,,47,60
8092,note_on,,,,,28,0,15,,,,,7,,,62,100
8124,note_on,,,,,32,0,15,,,,,7,,,66,100
8156,note_on,,,,,32,0,15,,,,,7,,,71,100
8832,note_off,,,,,768,0,14,,,,,6,,,35,100
8832,note_off,,,,,768,0,11,,,,,3,,,74,100
8832,note_off,,,,,768,0,12,,,,,4,,,66,100
8832,note_off,,,,,768,0,9,,,,,1,,,74,100
8832,note_off,,,,,768,0,10,,,,,2,,,83,100
8832,note_off,,,,,768,0,8,,,,,0,,,83,100
8832,note_off,,,,,768,0,13,,,,,5,,,47,100
8832,note_off,,,,,768,0,16,,,,,7,,,47,100
8832,set_tempo,,,,,768,1,0,,3000000,,,,,,,
8832,note_off,,,,,676,0,15,,,,,7,,,59,100
8860,note_off,,,,,28,0,15,,,,,7,,,62,100
8892,note_off,,,,,32,0,15,,,,,7,,,66,100
8924,note_off,,,,,32,0,15,,,,,7,,,71,100
9212,set_tempo,,,,,380,1,0,,923076,,,,,,,
9216,note_on,,,,,384,0,12,,,,,4,,,71,85
9216,note_on,,,,,384,0,13,,,,,5,,,64,85
9216,note_on,,,,,384,0,16,,,,,7,,,64,100
9216,note_on,,,,,384,0,11,,,,,3,,,76,35
9216,set_tempo,,,,,0,1,0,,571428,,,,,,,
9216,note_on,,,,,384,0,10,,,,,2,,,79,35
9216,note_on,,,,,384,0,8,,,,,0,,,79,85
9216,note_on,,,,,0,0,15,,,,,7,,,71,100
9216,note_on,,,,,292,0,15,,,,,7,,,67,100
9216,note_on,,,,,384,0,9,,,,,1,,,76,85
9216,note_on,,,,,384,0,14,,,,,6,,,52,85
9216,time_signature,3,8,96,8,4,1,0,,,,,,,,,
9344,note_off,,,,,128,0,8,,,,,0,,,79,100
9344,note_off,,,,,128,0,14,,,,,6,,,52,100
9344,note_off,,,,,128,0,15,,,,,7,,,67,100
9344,note_off,,,,,128,0,12,,,,,4,,,71,100
9344,note_off,,,,,128,0,16,,,,,7,,,64,100
9344,note_off,,,,,128,0,13,,,,,5,,,64,100
9344,note_off,,,,,128,0,9,,,,,1,,,76,100
9344,note_off,,,,,128,0,11,,,,,3,,,76,100
9344,note_off,,,,,128,0,10,,,,,2,,,79,100
9344,note_off,,,,,0,0,15,,,,,7,,,71,100
9408,note_on,,,,,64,0,14,,,,,6,,,40,85
9408,note_on,,,,,64,0,16,,,,,7,,,52,100
9408,note_on,,,,,64,0,11,,,,,3,,,76,35
9408,note_on,,,,,64,0,12,,,,,4,,,67,85
9408,note_on,,,,,64,0,8,,,,,0,,,79,85
9408,note_on,,,,,64,0,15,,,,,7,,,59,100
9408,note_on,,,,,0,0,15,,,,,7,,,67,100
9408,note_on,,,,,64,0,10,,,,,2,,,79,35
9408,note_on,,,,,64,0,9,,,,,1,,,76,85
9408,note_on,,,,,64,0,13,,,,,5,,,52,85
9472,note_off,,,,,64,0,10,,,,,2,,,79,100
9472,note_off,,,,,64,0,8,,,,,0,,,79,100
9472,note_off,,,,,64,0,11,,,,,3,,,76,100
9472,note_off,,,,,64,0,9,,,,,1,,,76,100
9504,note_on,,,,,32,0,8,,,,,0,,,78,85
9504,note_on,,,,,32,0,11,,,,,3,,,75,35
9504,note_on,,,,,32,0,9,,,,,1,,,75,85
9504,note_on,,,,,32,0,10,,,,,2,,,78,35
9536,note_off,,,,,128,0,15,,,,,7,,,59,100
9536,note_off,,,,,128,0,13,,,,,5,,,52,100
9536,note_off,,,,,128,0,14,,,,,6,,,40,100
9536,note_off,,,,,128,0,16,,,,,7,,,52,100
9536,note_off,,,,,128,0,12,,,,,4,,,67,100
9536,note_off,,,,,0,0,15,,,,,7,,,67,100
9568,note_off,,,,,64,0,8,,,,,0,,,78,100
9568,note_off,,,,,64,0,11,,,,,3,,,75,100
9568,note_off,,,,,64,0,10,,,,,2,,,78,100
9568,note_off,,,,,64,0,9,,,,,1,,,75,100
9600,note_on,,,,,32,0,9,,,,,1,,,76,85
9600,note_on,,,,,64,0,16,,,,,7,,,64,100
9600,note_on,,,,,64,0,12,,,,,4,,,64,85
9600,note_on,,,,,64,0,14,,,,,6,,,52,85
9600,note_on,,,,,32,0,11,,,,,3,,,76,35
9600,note_on,,,,,0,0,15,,,,,7,,,71,100
9600,note_on,,,,,64,0,15,,,,,7,,,67,100
9600,note_on,,,,,32,0,10,,,,,2,,,79,35
9600,note_on,,,,,64,0,13,,,,,5,,,64,85
9600,note_on,,,,,32,0,8,,,,,0,,,79,85
9664,note_off,,,,,64,0,10,,,,,2,,,79,100
9664,note_off,,,,,64,0,9,,,,,1,,,76,100
9664,note_off,,,,,64,0,11,,,,,3,,,76,100
9664,note_off,,,,,64,0,8,,,,,0,,,79,100
9696,note_on,,,,,32,0,11,,,,,3,,,78,35
9696,note_on,,,,,32,0,10,,,,,2,,,81,35
9696,note_on,,,,,32,0,8,,,,,0,,,81,85
9696,note_on,,,,,32,0,9,,,,,1,,,78,85
9728,note_off,,,,,128,0,15,,,,,7,,,67,100
9728,note_off,,,,,128,0,12,,,,,4,,,64,100
9728,note_off,,,,,128,0,13,,,,,5,,,64,100
9728,note_off,,,,,0,0,15,,,,,7,,,71,100
9728,note_off,,,,,128,0,16,,,,,7,,,64,100
9728,note_off,,,,,128,0,14,,,,,6,,,52,100
9760,note_off,,,,,64,0,8,,,,,0,,,81,100
9760,note_off,,,,,64,0,9,,,,,1,,,78,100
9760,note_off,,,,,64,0,10,,,,,2,,,81,100
9760,note_off,,,,,64,0,11,,,,,3,,,78,100
9792,note_on,,,,,64,0,13,,,,,5,,,59,85
9792,note_on,,,,,32,0,11,,,,,3,,,75,35
9792,note_on,,,,,32,0,10,,,,,2,,,78,35
9792,note_on,,,,,64,0,16,,,,,7,,,59,100
9792,note_on,,,,,64,0,14,,,,,6,,,47,85
9792,note_on,,,,,32,0,8,,,,,0,,,78,85
9792,note_on,,,,,64,0,15,,,,,7,,,66,100
9792,note_on,,,,,0,0,15,,,,,7,,,75,100
9792,note_on,,,,,64,0,12,,,,,4,,,66,85
9792,note_on,,,,,32,0,9,,,,,1,,,75,85
9920,note_off,,,,,128,0,14,,,,,6,,,47,100
9920,note_off,,,,,0,0,15,,,,,7,,,75,100
9920,note_off,,,,,128,0,8,,,,,0,,,78,100
9920,note_off,,,,,128,0,11,,,,,3,,,75,100
9920,note_off,,,,,128,0,15,,,,,7,,,66,100
9920,note_off,,,,,128,0,9,,,,,1,,,75,100
9920,note_off,,,,,128,0,10,,,,,2,,,78,100
9920,note_off,,,,,128,0,16,,,,,7,,,59,100
9920,note_off,,,,,128,0,13,,,,,5,,,59,100
9920,note_off,,,,,128,0,12,,,,,4,,,66,100
9984,note_on,,,,,64,0,13,,,,,5,,,47,85
9984,note_on,,,,,64,0,10,,,,,2,,,78,35
9984,note_on,,,,,64,0,8,,,,,0,,,78,85
9984,note_on,,,,,64,0,15,,,,,7,,,63,100
9984,note_on,,,,,64,0,14,,,,,6,,,35,85
9984,note_on,,,,,64,0,9,,,,,1,,,75,85
9984,note_on,,,,,64,0,12,,,,,4,,,59,85
9984,note_on,,,,,0,0,15,,,,,7,,,66,100
9984,note_on,,,,,64,0,16,,,,,7,,,47,100
9984,note_on,,,,,64,0,11,,,,,3,,,75,35
10048,note_off,,,,,64,0,11,,,,,3,,,75,100
10048,note_off,,,,,64,0,8,,,,,0,,,78,100
10048,note_off,,,,,64,0,9,,,,,1,,,75,100
10048,note_off,,,,,64,0,10,,,,,2,,,78,100
10080,note_on,,,,,32,0,10,,,,,2,,,76,35
10080,note_on,,,,,32,0,8,,,,,0,,,76,85
10080,note_on,,,,,32,0,9,,,,,1,,,73,85
10080,note_on,,,,,32,0,11,,,,,3,,,73,35
10112,note_off,,,,,0,0,15,,,,,7,,,66,100
10112,note_off,,,,,128,0,16,,,,,7,,,47,100
10112,note_off,,,,,128,0,13,,,,,5,,,47,100
10112,note_off,,,,,128,0,14,,,,,6,,,35,100
10112,note_off,,,,,128,0,15,,,,,7,,,63,100
10144,note_off,,,,,64,0,10,,,,,2,,,76,100
10144,note_off,,,,,64,0,8,,,,,0,,,76,100
10144,note_off,,,,,64,0,9,,,,,1,,,73,100
10144,note_off,,,,,64,0,11,,,,,3,,,73,100
10176,note_on,,,,,0,0,15,,,,,7,,,75,100
10176,note_on,,,,,32,0,10,,,,,2,,,78,35
10176,note_on,,,,,32,0,8,,,,,0,,,78,85
10176,note_on,,,,,64,0,15,,,,,7,,,66,100
10176,note_on,,,,,64,0,13,,,,,5,,,59,85
10176,note_on,,,,,64,0,14,,,,,6,,,47,85
10176,note_on,,,,,64,0,16,,,,,7,,,59,100
10176,note_on,,,,,32,0,9,,,,,1,,,75,85
10176,note_on,,,,,32,0,11,,,,,3,,,75,35
10240,note_off,,,,,64,0,10,,,,,2,,,78,100
10240,note_off,,,,,64,0,8,,,,,0,,,78,100
10240,note_off,,,,,64,0,9,,,,,1,,,75,100
10240,note_off,,,,,256,0,12,,,,,4,,,59,100
10240,note_off,,,,,64,0,11,,,,,3,,,75,100
10272,note_on,,,,,32,0,9,,,,,1,,,76,85
10272,note_on,,,,,32,0,10,,,,,2,,,79,35
10272,note_on,,,,,32,0,8,,,,,0,,,79,85
10272,note_on,,,,,32,0,11,,,,,3,,,76,35
10304,note_off,,,,,128,0,13,,,,,5,,,59,100
10304,note_off,,,,,128,0,14,,,,,6,,,47,100
10304,note_off,,,,,0,0,15,,,,,7,,,75,100
10304,note_off,,,,,128,0,15,,,,,7,,,66,100
10304,note_off,,,,,128,0,16,,,,,7,,,59,100
10336,note_off,,,,,64,0,10,,,,,2,,,79,100
10336,note_off,,,,,64,0,8,,,,,0,,,79,100
10336,note_off,,,,,64,0,9,,,,,1,,,76,100
10336,note_off,,,,,64,0,11,,,,,3,,,76,100
10368,note_on,,,,,32,0,11,,,,,3,,,78,35
10368,note_on,,,,,32,0,9,,,,,1,,,78,85
10368,note_on,,,,,64,0,13,,,,,5,,,59,85
10368,note_on,,,,,64,0,14,,,,,6,,,47,85
10368,note_on,,,,,0,0,15,,,,,7,,,66,100
10368,note_on,,,,,0,0,15,,,,,7,,,69,100
10368,note_on,,,,,64,0,16,,,,,7,,,59,100
10368,note_on,,,,,32,0,10,,,,,2,,,81,35
10368,note_on,,,,,64,0,15,,,,,7,,,75,100
10368,note_on,,,,,32,0,8,,,,,0,,,81,85
10368,note_on,,,,,128,0,12,,,,,4,,,75,85
10496,note_off,,,,,128,0,16,,,,,7,,,59,100
10496,note_off,,,,,128,0,10,,,,,2,,,81,100
10496,note_off,,,,,128,0,13,,,,,5,,,59,100
10496,note_off,,,,,128,0,11,,,,,3,,,78,100
10496,note_off,,,,,128,0,12,,,,,4,,,75,100
10496,note_off,,,,,128,0,9,,,,,1,,,78,100
10496,note_off,,,,,128,0,15,,,,,7,,,75,100
10496,note_off,,,,,0,0,15,,,,,7,,,69,100
10496,note_off,,,,,0,0,15,,,,,7,,,66,100
10496,note_off,,,,,128,0,8,,,,,0,,,81,100
10496,note_off,,,,,128,0,14,,,,,6,,,47,100
10560,note_on,,,,,64,0,13,,,,,5,,,47,85
10560,note_on,,,,,64,0,12,,,,,4,,,71,85
10560,note_on,,,,,64,0,15,,,,,7,,,63,100
10560,note_on,,,,,0,0,15,,,,,7,,,66,100
10560,note_on,,,,,64,0,11,,,,,3,,,78,35
10560,note_on,,,,,64,0,16,,,,,7,,,47,100
10560,note_on,,,,,64,0,14,,,,,6,,,35,85
10560,note_on,,,,,64,0,8,,,,,0,,,81,85
10560,note_on,,,,,64,0,9,,,,,1,,,78,85
10560,note_on,,,,,64,0,10,,,,,2,,,81,35
10624,note_off,,,,,64,0,8,,,,,0,,,81,100
10624,note_off,,,,,64,0,11,,,,,3,,,78,100
10624,note_off,,,,,64,0,9,,,,,1,,,78,100
10624,note_off,,,,,64,0,10,,,,,2,,,81,100
10656,note_on,,,,,32,0,11,,,,,3,,,76,35
10656,note_on,,,,,32,0,8,,,,,0,,,79,85
10656,note_on,,,,,32,0,10,,,,,2,,,79,35
10656,note_on,,,,,32,0,9,,,,,1,,,76,85
10688,note_off,,,,,128,0,13,,,,,5,,,47,100
10688,note_off,,,,,128,0,14,,,,,6,,,35,100
10688,note_off,,,,,128,0,16,,,,,7,,,47,100
10688,note_off,,,,,0,0,15,,,,,7,,,66,100
10688,note_off,,,,,128,0,12,,,,,4,,,71,100
10688,note_off,,,,,128,0,15,,,,,7,,,63,100
10720,note_off,,,,,64,0,11,,,,,3,,,76,100
10720,note_off,,,,,64,0,9,,,,,1,,,76,100
10720,note_off,,,,,64,0,10,,,,,2,,,79,100
10720,note_off,,,,,64,0,8,,,,,0,,,79,100
10752,note_on,,,,,64,0,15,,,,,7,,,69,100
10752,note_on,,,,,0,0,15,,,,,7,,,75,100
10752,note_on,,,,,0,0,15,,,,,7,,,66,100
10752,note_on,,,,,32,0,9,,,,,1,,,78,85
10752,note_on,,,,,64,0,14,,,,,6,,,47,85
10752,note_on,,,,,32,0,8,,,,,0,,,81,85
10752,note_on,,,,,64,0,13,,,,,5,,,59,85
10752,note_on,,,,,32,0,10,,,,,2,,,81,35
10752,note_on,,,,,32,0,11,,,,,3,,,78,35
10752,note_on,,,,,64,0,16,,,,,7,,,59,100
10752,note_on,,,,,64,0,12,,,,,4,,,66,85
10816,note_off,,,,,64,0,9,,,,,1,,,78,100
10816,note_off,,,,,64,0,8,,,,,0,,,81,100
10816,note_off,,,,,64,0,11,,,,,3,,,78,100
10816,note_off,,,,,64,0,10,,,,,2,,,81,100
10848,note_on,,,,,32,0,10,,,,,2,,,83,35
10848,note_on,,,,,32,0,11,,,,,3,,,79,35
10848,note_on,,,,,32,0,9,,,,,1,,,79,85
10848,note_on,,,,,32,0,8,,,,,0,,,83,85
10880,note_off,,,,,0,0,15,,,,,7,,,66,100
10880,note_off,,,,,128,0,12,,,,,4,,,66,100
10880,note_off,,,,,128,0,13,,,,,5,,,59,100
10880,note_off,,,,,128,0,16,,,,,7,,,59,100
10880,note_off,,,,,0,0,15,,,,,7,,,75,100
10880,note_off,,,,,128,0,14,,,,,6,,,47,100
10880,note_off,,,,,128,0,15,,,,,7,,,69,100
10912,note_off,,,,,64,0,9,,,,,1,,,79,100
10912,note_off,,,,,64,0,11,,,,,3,,,79,100
10912,note_off,,,,,64,0,10,,,,,2,,,83,100
10912,note_off,,,,,64,0,8,,,,,0,,,83,100
10944,note_on,,,,,64,0,12,,,,,4,,,67,85
10944,note_on,,,,,32,0,9,,,,,1,,,76,85
10944,set_tempo,,,,,1728,1,0,,571428,,,,,,,
10944,note_on,,,,,32,0,8,,,,,0,,,79,85
10944,note_on,,,,,32,0,11,,,,,3,,,76,35
10944,note_on,,,,,0,0,15,,,,,7,,,71,100
10944,note_on,,,,,64,0,13,,,,,5,,,64,85
10944,note_on,,,,,32,0,10,,,,,2,,,79,35
10944,note_on,,,,,64,0,14,,,,,6,,,52,85
10944,note_on,,,,,64,0,16,,,,,7,,,64,100
10944,note_on,,,,,64,0,15,,,,,7,,,67,100
11072,note_off,,,,,128,0,9,,,,,1,,,76,100
11072,note_off,,,,,128,0,15,,,,,7,,,67,100
11072,note_off,,,,,0,0,15,,,,,7,,,71,100
11072,note_off,,,,,128,0,8,,,,,0,,,79,100
11072,note_off,,,,,128,0,10,,,,,2,,,79,100
11072,note_off,,,,,128,0,11,,,,,3,,,76,100
11072,note_off,,,,,128,0,12,,,,,4,,,67,100
11072,note_off,,,,,128,0,14,,,,,6,,,52,100
11072,note_off,,,,,128,0,16,,,,,7,,,64,100
11072,note_off,,,,,128,0,13,,,,,5,,,64,100
11136,note_on,,,,,64,0,12,,,,,4,,,59,85
11136,note_on,,,,,64,0,8,,,,,0,,,79,85
11136,note_on,,,,,64,0,16,,,,,7,,,52,100
11136,note_on,,,,,64,0,10,,,,,2,,,79,35
11136,note_on,,,,,0,0,15,,,,,7,,,67,100
11136,note_on,,,,,64,0,13,,,,,5,,,52,85
11136,note_on,,,,,64,0,9,,,,,1,,,76,85
11136,note_on,,,,,64,0,15,,,,,7,,,59,100
11136,note_on,,,,,64,0,14,,,,,6,,,40,85
11136,note_on,,,,,64,0,11,,,,,3,,,76,35
11200,note_off,,,,,64,0,9,,,,,1,,,76,100
11200,note_off,,,,,64,0,10,,,,,2,,,79,100
11200,note_off,,,,,64,0,8,,,,,0,,,79,100
11200,note_off,,,,,64,0,11,,,,,3,,,76,100
11232,note_on,,,,,32,0,9,,,,,1,,,75,85
11232,note_on,,,,,32,0,11,,,,,3,,,75,35
11232,note_on,,,,,32,0,10,,,,,2,,,78,35
11232,note_on,,,,,32,0,8,,,,,0,,,78,85
11264,note_off,,,,,0,0,15,,,,,7,,,67,100
11264,note_off,,,,,128,0,14,,,,,6,,,40,100
11264,note_off,,,,,128,0,15,,,,,7,,,59,100
11264,note_off,,,,,128,0,13,,,,,5,,,52,100
11264,note_off,,,,,128,0,16,,,,,7,,,52,100
11296,note_off,,,,,64,0,9,,,,,1,,,75,100
11296,note_off,,,,,64,0,8,,,,,0,,,78,100
11296,note_off,,,,,64,0,11,,,,,3,,,75,100
11296,note_off,,,,,64,0,10,,,,,2,,,78,100
11328,note_on,,,,,32,0,9,,,,,1,,,76,85
11328,note_on,,,,,32,0,10,,,,,2,,,79,35
11328,note_on,,,,,64,0,13,,,,,5,,,64,85
11328,note_on,,,,,64,0,15,,,,,7,,,71,100
11328,note_on,,,,,32,0,8,,,,,0,,,79,85
11328,note_on,,,,,0,0,15,,,,,7,,,67,100
11328,note_on,,,,,32,0,11,,,,,3,,,76,35
11328,note_on,,,,,64,0,14,,,,,6,,,52,85
11328,note_on,,,,,64,0,16,,,,,7,,,64,100
11392,note_off,,,,,256,0,12,,,,,4,,,59,100
11392,note_off,,,,,64,0,11,,,,,3,,,76,100
11392,note_off,,,,,64,0,8,,,,,0,,,79,100
11392,note_off,,,,,64,0,9,,,,,1,,,76,100
11392,note_off,,,,,64,0,10,,,,,2,,,79,100
11424,note_on,,,,,32,0,10,,,,,2,,,81,35
11424,note_on,,,,,32,0,8,,,,,0,,,81,85
11424,note_on,,,,,32,0,11,,,,,3,,,78,35
11424,note_on,,,,,32,0,9,,,,,1,,,78,85
11456,note_off,,,,,128,0,14,,,,,6,,,52,100
11456,note_off,,,,,128,0,13,,,,,5,,,64,100
11456,note_off,,,,,128,0,15,,,,,7,,,71,100
11456,note_off,,,,,128,0,16,,,,,7,,,64,100
11456,note_off,,,,,0,0,15,,,,,7,,,67,100
11488,note_off,,,,,64,0,9,,,,,1,,,78,100
11488,note_off,,,,,64,0,11,,,,,3,,,78,100
11488,note_off,,,,,64,0,8,,,,,0,,,81,100
11488,note_off,,,,,64,0,10,,,,,2,,,81,100
11520,note_on,,,,,32,0,11,,,,,3,,,79,35
11520,note_on,,,,,64,0,16,,,,,7,,,64,100
11520,note_on,,,,,32,0,10,,,,,2,,,83,35
11520,note_on,,,,,64,0,14,,,,,6,,,52,85
11520,note_on,,,,,0,0,15,,,,,7,,,71,100
11520,note_on,,,,,64,0,15,,,,,7,,,67,100
11520,note_on,,,,,128,0,12,,,,,4,,,71,85
11520,note_on,,,,,32,0,9,,,,,1,,,79,85
11520,note_on,,,,,64,0,13,,,,,5,,,64,85
11520,note_on,,,,,32,0,8,,,,,0,,,83,85
11648,note_off,,,,,128,0,10,,,,,2,,,83,100
11648,note_off,,,,,128,0,14,,,,,6,,,52,100
11648,note_off,,,,,128,0,11,,,,,3,,,79,100
11648,note_off,,,,,128,0,12,,,,,4,,,71,100
11648,note_off,,,,,128,0,16,,,,,7,,,64,100
11648,note_off,,,,,128,0,9,,,,,1,,,79,100
11648,note_off,,,,,128,0,13,,,,,5,,,64,100
11648,note_off,,,,,0,0,15,,,,,7,,,71,100
11648,note_off,,,,,128,0,15,,,,,7,,,67,100
11648,note_off,,,,,128,0,8,,,,,0,,,83,100
11712,note_on,,,,,64,0,13,,,,,5,,,52,85
11712,note_on,,,,,64,0,16,,,,,7,,,52,100
11712,note_on,,,,,64,0,9,,,,,1,,,78,85
11712,note_on,,,,,64,0,8,,,,,0,,,81,85
11712,note_on,,,,,64,0,14,,,,,6,,,40,85
11712,note_on,,,,,0,0,15,,,,,7,,,67,100
11712,note_on,,,,,64,0,15,,,,,7,,,59,100
11712,note_on,,,,,64,0,12,,,,,4,,,67,85
11712,note_on,,,,,64,0,10,,,,,2,,,81,35
11712,note_on,,,,,64,0,11,,,,,3,,,78,35
11776,note_off,,,,,64,0,10,,,,,2,,,81,100
11776,note_off,,,,,64,0,11,,,,,3,,,78,100
11776,note_off,,,,,64,0,8,,,,,0,,,81,100
11776,note_off,,,,,64,0,9,,,,,1,,,78,100
11808,note_on,,,,,32,0,10,,,,,2,,,83,35
11808,note_on,,,,,32,0,8,,,,,0,,,83,85
11808,note_on,,,,,32,0,11,,,,,3,,,79,35
11808,note_on,,,,,32,0,9,,,,,1,,,79,85
11840,note_off,,,,,128,0,12,,,,,4,,,67,100
11840,note_off,,,,,128,0,14,,,,,6,,,40,100
11840,note_off,,,,,128,0,15,,,,,7,,,59,100
11840,note_off,,,,,0,0,15,,,,,7,,,67,100
11840,note_off,,,,,128,0,16,,,,,7,,,52,100
11840,note_off,,,,,128,0,13,,,,,5,,,52,100
11872,note_off,,,,,64,0,10,,,,,2,,,83,100
11872,note_off,,,,,64,0,8,,,,,0,,,83,100
11872,note_off,,,,,64,0,9,,,,,1,,,79,100
11872,note_off,,,,,64,0,11,,,,,3,,,79,100
11904,note_on,,,,,32,0,9,,,,,1,,,78,85
11904,note_on,,,,,64,0,13,,,,,5,,,57,85
11904,note_on,,,,,0,0,15,,,,,7,,,64,100
11904,note_on,,,,,64,0,16,,,,,7,,,57,100
11904,note_on,,,,,64,0,14,,,,,6,,,45,85
11904,note_on,,,,,64,0,12,,,,,4,,,64,85
11904,note_on,,,,,32,0,11,,,,,3,,,78,35
11904,note_on,,,,,32,0,8,,,,,0,,,81,85
11904,note_on,,,,,64,0,15,,,,,7,,,67,100
11904,note_on,,,,,32,0,10,,,,,2,,,81,35
11968,note_off,,,,,64,0,10,,,,,2,,,81,100
11968,note_off,,,,,64,0,8,,,,,0,,,81,100
11968,note_off,,,,,64,0,9,,,,,1,,,78,100
11968,note_off,,,,,64,0,11,,,,,3,,,78,100
12000,note_on,,,,,32,0,10,,,,,2,,,79,35
12000,note_on,,,,,32,0,11,,,,,3,,,76,35
12000,note_on,,,,,32,0,8,,,,,0,,,79,85
12000,note_on,,,,,32,0,9,,,,,1,,,76,85
12032,note_off,,,,,128,0,15,,,,,7,,,67,100
12032,note_off,,,,,128,0,14,,,,,6,,,45,100
12032,note_off,,,,,0,0,15,,,,,7,,,64,100
12032,note_off,,,,,128,0,16,,,,,7,,,57,100
12032,note_off,,,,,128,0,13,,,,,5,,,57,100
12032,note_off,,,,,128,0,12,,,,,4,,,64,100
12064,note_off,,,,,64,0,11,,,,,3,,,76,100
12064,note_off,,,,,64,0,9,,,,,1,,,76,100
12064,note_off,,,,,64,0,8,,,,,0,,,79,100
12064,note_off,,,,,64,0,10,,,,,2,,,79,100
12096,note_on,,,,,32,0,10,,,,,2,,,78,35
12096,note_on,,,,,64,0,12,,,,,4,,,59,85
12096,note_on,,,,,64,0,13,,,,,5,,,59,85
12096,note_on,,,,,0,0,15,,,,,7,,,66,100
12096,note_on,,,,,64,0,15,,,,,7,,,75,100
12096,note_on,,,,,64,0,16,,,,,7,,,59,100
12096,note_on,,,,,64,0,14,,,,,6,,,47,85
12096,note_on,,,,,32,0,9,,,,,1,,,75,85
12096,note_on,,,,,32,0,11,,,,,3,,,75,35
12096,note_on,,,,,32,0,8,,,,,0,,,78,85
12160,note_off,,,,,64,0,8,,,,,0,,,78,100
12160,note_off,,,,,64,0,9,,,,,1,,,75,100
12160,note_off,,,,,64,0,10,,,,,2,,,78,100
12160,note_off,,,,,64,0,11,,,,,3,,,75,100
12192,note_on,,,,,32,0,8,,,,,0,,,76,85
12192,note_on,,,,,32,0,10,,,,,2,,,76,35
12192,note_on,,,,,32,0,9,,,,,1,,,73,85
12192,note_on,,,,,32,0,11,,,,,3,,,73,35
12224,note_off,,,,,128,0,16,,,,,7,,,59,100
12224,note_off,,,,,128,0,14,,,,,6,,,47,100
12224,note_off,,,,,128,0,13,,,,,5,,,59,100
12224,note_off,,,,,0,0,15,,,,,7,,,66,100
12224,note_off,,,,,128,0,15,,,,,7,,,75,100
12256,note_off,,,,,64,0,11,,,,,3,,,73,100
12256,note_off,,,,,64,0,10,,,,,2,,,76,100
12256,note_off,,,,,64,0,8,,,,,0,,,76,100
12256,note_off,,,,,64,0,9,,,,,1,,,73,100
12288,note_on,,,,,64,0,13,,,,,5,,,47,85
12288,note_on,,,,,32,0,9,,,,,1,,,75,85
12288,note_on,,,,,32,0,10,,,,,2,,,78,35
12288,note_on,,,,,64,0,14,,,,,6,,,35,85
12288,note_on,,,,,64,0,16,,,,,7,,,47,100
12288,note_on,,,,,32,0,8,,,,,0,,,78,85
12288,note_on,,,,,64,0,15,,,,,7,,,63,100
12288,note_on,,,,,0,0,15,,,,,7,,,66,100
12288,note_on,,,,,32,0,11,,,,,3,,,75,35
12352,note_off,,,,,64,0,9,,,,,1,,,75,100
12352,note_off,,,,,64,0,10,,,,,2,,,78,100
12352,note_off,,,,,64,0,11,,,,,3,,,75,100
12352,note_off,,,,,64,0,8,,,,,0,,,78,100
12384,note_on,,,,,32,0,10,,,,,2,,,79,35
12384,note_on,,,,,32,0,11,,,,,3,,,76,35
12384,note_on,,,,,32,0,9,,,,,1,,,76,85
12384,note_on,,,,,32,0,8,,,,,0,,,79,85
12448,note_off,,,,,64,0,10,,,,,2,,,79,100
12448,note_off,,,,,64,0,11,,,,,3,,,76,100
12448,note_off,,,,,64,0,8,,,,,0,,,79,100
12448,note_off,,,,,64,0,9,,,,,1,,,76,100
12480,note_on,,,,,32,0,9,,,,,1,,,75,85
12480,note_off,,,,,384,0,12,,,,,4,,,59,100
12480,note_on,,,,,32,0,11,,,,,3,,,75,35
12480,note_on,,,,,32,0,10,,,,,2,,,78,35
12480,note_on,,,,,32,0,8,,,,,0,,,78,85
12544,note_off,,,,,0,0,15,,,,,7,,,66,100
12544,note_off,,,,,256,0,15,,,,,7,,,63,100
12544,note_off,,,,,256,0,13,,,,,5,,,47,100
12544,note_off,,,,,256,0,14,,,,,6,,,35,100
12544,note_off,,,,,256,0,16,,,,,7,,,47,100
12608,note_off,,,,,128,0,8,,,,,0,,,78,100
12608,note_off,,,,,128,0,11,,,,,3,,,75,100
12608,note_off,,,,,128,0,9,,,,,1,,,75,100
12608,note_off,,,,,128,0,10,,,,,2,,,78,100
12672,note_on,,,,,128,0,16,,,,,7,,,64,100
12672,note_on,,,,,128,0,14,,,,,6,,,52,60
12672,note_on,,,,,128,0,13,,,,,5,,,64,60
12672,note_on,,,,,64,0,8,,,,,0,,,79,60
12672,note_on,,,,,64,0,9,,,,,1,,,76,60
12672,note_on,,,,,64,0,11,,,,,3,,,76,10
12672,note_on,,,,,192,0,12,,,,,4,,,71,60
12672,note_on,,,,,64,0,10,,,,,2,,,79,10
12672,note_on,,,,,0,0,15,,,,,7,,,71,100
12672,note_on,,,,,128,0,15,,,,,7,,,67,100
12800,note_off,,,,,128,0,13,,,,,5,,,64,100
12800,note_off,,,,,128,0,8,,,,,0,,,79,100
12800,note_off,,,,,128,0,15,,,,,7,,,67,100
12800,note_off,,,,,128,0,10,,,,,2,,,79,100
12800,note_off,,,,,128,0,11,,,,,3,,,76,100
12800,note_off,,,,,0,0,15,,,,,7,,,71,100
12800,note_off,,,,,128,0,16,,,,,7,,,64,100
12800,note_off,,,,,128,0,14,,,,,6,,,52,100
12800,note_off,,,,,128,0,12,,,,,4,,,71,100
12800,note_off,,,,,128,0,9,,,,,1,,,76,100
12864,note_on,,,,,0,0,15,,,,,7,,,67,100
12864,note_on,,,,,64,0,15,,,,,7,,,59,100
12864,note_on,,,,,64,0,10,,,,,2,,,79,10
12864,note_on,,,,,64,0,16,,,,,7,,,52,100
12864,note_on,,,,,64,0,9,,,,,1,,,76,60
12864,note_on,,,,,64,0,11,,,,,3,,,76,10
12864,note_on,,,,,64,0,12,,,,,4,,,67,60
12864,note_on,,,,,64,0,8,,,,,0,,,79,60
12864,note_on,,,,,64,0,13,,,,,5,,,52,60
12864,note_on,,,,,64,0,14,,,,,6,,,40,60
12928,note_off,,,,,64,0,8,,,,,0,,,79,100
12928,note_off,,,,,64,0,9,,,,,1,,,76,100
12928,note_off,,,,,64,0,10,,,,,2,,,79,100
12928,note_off,,,,,64,0,11,,,,,3,,,76,100
12960,note_on,,,,,32,0,9,,,,,1,,,75,60
12960,note_on,,,,,32,0,11,,,,,3,,,75,10
12960,note_on,,,,,32,0,8,,,,,0,,,78,60
12960,note_on,,,,,32,0,10,,,,,2,,,78,10
12992,note_off,,,,,128,0,14,,,,,6,,,40,100
12992,note_off,,,,,128,0,13,,,,,5,,,52,100
12992,note_off,,,,,128,0,16,,,,,7,,,52,100
12992,note_off,,,,,0,0,15,,,,,7,,,67,100
12992,note_off,,,,,128,0,12,,,,,4,,,67,100
12992,note_off,,,,,128,0,15,,,,,7,,,59,100
13024,note_off,,,,,64,0,10,,,,,2,,,78,100
13024,note_off,,,,,64,0,11,,,,,3,,,75,100
13024,note_off,,,,,64,0,8,,,,,0,,,78,100
13024,note_off,,,,,64,0,9,,,,,1,,,75,100
13056,note_on,,,,,64,0,16,,,,,7,,,64,100
13056,note_on,,,,,32,0,8,,,,,0,,,79,60
13056,note_on,,,,,64,0,15,,,,,7,,,67,100
13056,note_on,,,,,64,0,12,,,,,4,,,64,60
13056,note_on,,,,,64,0,13,,,,,5,,,64,60
13056,note_on,,,,,32,0,10,,,,,2,,,79,10
13056,note_on,,,,,64,0,14,,,,,6,,,52,60
13056,note_on,,,,,32,0,9,,,,,1,,,76,60
13056,note_on,,,,,32,0,11,,,,,3,,,76,10
13056,note_on,,,,,0,0,15,,,,,7,,,71,100
13120,note_off,,,,,64,0,9,,,,,1,,,76,100
13120,note_off,,,,,64,0,10,,,,,2,,,79,100
13120,note_off,,,,,64,0,8,,,,,0,,,79,100
13120,note_off,,,,,64,0,11,,,,,3,,,76,100
13152,note_on,,,,,32,0,9,,,,,1,,,78,60
13152,note_on,,,,,32,0,8,,,,,0,,,81,60
13152,note_on,,,,,32,0,10,,,,,2,,,81,10
13152,note_on,,,,,32,0,11,,,,,3,,,78,10
13184,note_off,,,,,128,0,16,,,,,7,,,64,100
13184,note_off,,,,,128,0,14,,,,,6,,,52,100
13184,note_off,,,,,0,0,15,,,,,7,,,71,100
13184,note_off,,,,,128,0,13,,,,,5,,,64,100
13184,note_off,,,,,128,0,12,,,,,4,,,64,100
13184,note_off,,,,,128,0,15,,,,,7,,,67,100
13216,note_off,,,,,64,0,10,,,,,2,,,81,100
13216,note_off,,,,,64,0,8,,,,,0,,,81,100
13216,note_off,,,,,64,0,9,,,,,1,,,78,100
13216,note_off,,,,,64,0,11,,,,,3,,,78,100
13248,note_on,,,,,32,0,11,,,,,3,,,75,10
13248,note_on,,,,,32,0,10,,,,,2,,,78,10
13248,note_on,,,,,64,0,14,,,,,6,,,47,60
13248,note_on,,,,,64,0,16,,,,,7,,,59,100
13248,note_on,,,,,32,0,8,,,,,0,,,78,60
13248,note_on,,,,,64,0,12,,,,,4,,,66,60
13248,note_on,,,,,32,0,9,,,,,1,,,75,60
13248,note_on,,,,,64,0,13,,,,,5,,,59,60
13248,note_on,,,,,0,0,15,,,,,7,,,75,100
13248,note_on,,,,,64,0,15,,,,,7,,,66,100
13376,note_off,,,,,128,0,9,,,,,1,,,75,100
13376,note_off,,,,,128,0,13,,,,,5,,,59,100
13376,note_off,,,,,128,0,14,,,,,6,,,47,100
13376,note_off,,,,,128,0,11,,,,,3,,,75,100
13376,note_off,,,,,128,0,16,,,,,7,,,59,100
13376,note_off,,,,,0,0,15,,,,,7,,,75,100
13376,note_off,,,,,128,0,15,,,,,7,,,66,100
13376,note_off,,,,,128,0,12,,,,,4,,,66,100
13376,note_off,,,,,128,0,8,,,,,0,,,78,100
13376,note_off,,,,,128,0,10,,,,,2,,,78,100
13440,note_on,,,,,64,0,14,,,,,6,,,35,60
13440,note_on,,,,,64,0,12,,,,,4,,,59,60
13440,note_on,,,,,64,0,8,,,,,0,,,78,60
13440,note_on,,,,,64,0,15,,,,,7,,,63,100
13440,note_on,,,,,64,0,11,,,,,3,,,75,10
13440,note_on,,,,,64,0,9,,,,,1,,,75,60
13440,note_on,,,,,64,0,13,,,,,5,,,47,60
13440,note_on,,,,,64,0,16,,,,,7,,,47,100
13440,note_on,,,,,64,0,10,,,,,2,,,78,10
13440,note_on,,,,,0,0,15,,,,,7,,,66,100
13504,note_off,,,,,64,0,9,,,,,1,,,75,100
13504,note_off,,,,,64,0,10,,,,,2,,,78,100
13504,note_off,,,,,64,0,11,,,,,3,,,75,100
13504,note_off,,,,,64,0,8,,,,,0,,,78,100
13536,note_on,,,,,32,0,10,,,,,2,,,76,10
13536,note_on,,,,,32,0,11,,,,,3,,,73,10
13536,note_on,,,,,32,0,9,,,,,1,,,73,60
13536,note_on,,,,,32,0,8,,,,,0,,,76,60
13568,note_off,,,,,0,0,15,,,,,7,,,66,100
13568,note_off,,,,,128,0,13,,,,,5,,,47,100
13568,note_off,,,,,128,0,16,,,,,7,,,47,100
13568,note_off,,,,,128,0,14,,,,,6,,,35,100
13568,note_off,,,,,128,0,15,,,,,7,,,63,100
13600,note_off,,,,,64,0,10,,,,,2,,,76,100
13600,note_off,,,,,64,0,8,,,,,0,,,76,100
13600,note_off,,,,,64,0,11,,,,,3,,,73,100
13600,note_off,,,,,64,0,9,,,,,1,,,73,100
13632,note_on,,,,,32,0,8,,,,,0,,,78,60
13632,note_on,,,,,64,0,15,,,,,7,,,66,100
13632,note_on,,,,,64,0,16,,,,,7,,,59,100
13632,note_on,,,,,32,0,9,,,,,1,,,75,60
13632,note_on,,,,,32,0,10,,,,,2,,,78,10
13632,note_on,,,,,32,0,11,,,,,3,,,75,10
13632,note_on,,,,,64,0,13,,,,,5,,,59,60
13632,note_on,,,,,0,0,15,,,,,7,,,75,100
13632,note_on,,,,,64,0,14,,,,,6,,,47,60
13696,note_off,,,,,64,0,9,,,,,1,,,75,100
13696,note_off,,,,,64,0,10,,,,,2,,,78,100
13696,note_off,,,,,256,0,12,,,,,4,,,59,100
13696,note_off,,,,,64,0,8,,,,,0,,,78,100
13696,note_off,,,,,64,0,11,,,,,3,,,75,100
13728,note_on,,,,,32,0,11,,,,,3,,,76,10
13728,note_on,,,,,32,0,9,,,,,1,,,76,60
13728,note_on,,,,,32,0,10,,,,,2,,,79,10
13728,note_on,,,,,32,0,8,,,,,0,,,79,60
13760,note_off,,,,,128,0,13,,,,,5,,,59,100
13760,note_off,,,,,128,0,16,,,,,7,,,59,100
13760,note_off,,,,,128,0,15,,,,,7,,,66,100
13760,note_off,,,,,0,0,15,,,,,7,,,75,100
13760,note_off,,,,,128,0,14,,,,,6,,,47,100
13792,note_off,,,,,64,0,11,,,,,3,,,76,100
13792,note_off,,,,,64,0,8,,,,,0,,,79,100
13792,note_off,,,,,64,0,10,,,,,2,,,79,100
13792,note_off,,,,,64,0,9,,,,,1,,,76,100
13824,note_on,,,,,32,0,8,,,,,0,,,81,60
13824,note_on,,,,,128,0,12,,,,,4,,,75,60
13824,note_on,,,,,32,0,11,,,,,3,,,78,10
13824,note_on,,,,,64,0,13,,,,,5,,,59,60
13824,note_on,,,,,64,0,16,,,,,7,,,59,100
13824,note_on,,,,,32,0,9,,,,,1,,,78,60
13824,note_on,,,,,0,0,15,,,,,7,,,69,100
13824,note_on,,,,,64,0,15,,,,,7,,,75,100
13824,note_on,,,,,64,0,14,,,,,6,,,47,60
13824,note_on,,,,,32,0,10,,,,,2,,,81,10
13824,note_on,,,,,0,0,15,,,,,7,,,66,100
13952,note_off,,,,,128,0,9,,,,,1,,,78,100
13952,note_off,,,,,128,0,12,,,,,4,,,75,100
13952,note_off,,,,,128,0,11,,,,,3,,,78,100
13952,note_off,,,,,128,0,14,,,,,6,,,47,100
13952,note_off,,,,,128,0,15,,,,,7,,,75,100
13952,note_off,,,,,0,0,15,,,,,7,,,69,100
13952,note_off,,,,,128,0,8,,,,,0,,,81,100
13952,note_off,,,,,128,0,16,,,,,7,,,59,100
13952,note_off,,,,,128,0,10,,,,,2,,,81,100
13952,note_off,,,,,0,0,15,,,,,7,,,66,100
13952,note_off,,,,,128,0,13,,,,,5,,,59,100
14016,note_on,,,,,64,0,10,,,,,2,,,81,10
14016,note_on,,,,,64,0,11,,,,,3,,,78,10
14016,note_on,,,,,64,0,15,,,,,7,,,63,100
14016,note_on,,,,,0,0,15,,,,,7,,,66,100
14016,note_on,,,,,64,0,9,,,,,1,,,78,60
14016,note_on,,,,,64,0,8,,,,,0,,,81,60
14016,note_on,,,,,64,0,16,,,,,7,,,47,100
14016,note_on,,,,,64,0,13,,,,,5,,,47,60
14016,note_on,,,,,64,0,12,,,,,4,,,71,60
14016,note_on,,,,,64,0,14,,,,,6,,,35,60
14080,note_off,,,,,64,0,8,,,,,0,,,81,100
14080,note_off,,,,,64,0,10,,,,,2,,,81,100
14080,note_off,,,,,64,0,11,,,,,3,,,78,100
14080,note_off,,,,,64,0,9,,,,,1,,,78,100
14112,note_on,,,,,32,0,8,,,,,0,,,79,60
14112,note_on,,,,,32,0,11,,,,,3,,,76,10
14112,note_on,,,,,32,0,9,,,,,1,,,76,60
14112,note_on,,,,,32,0,10,,,,,2,,,79,10
14144,note_off,,,,,128,0,15,,,,,7,,,63,100
14144,note_off,,,,,0,0,15,,,,,7,,,66,100
14144,note_off,,,,,128,0,12,,,,,4,,,71,100
14144,note_off,,,,,128,0,13,,,,,5,,,47,100
14144,note_off,,,,,128,0,14,,,,,6,,,35,100
14144,note_off,,,,,128,0,16,,,,,7,,,47,100
14176,note_off,,,,,64,0,8,,,,,0,,,79,100
14176,note_off,,,,,64,0,10,,,,,2,,,79,100
14176,note_off,,,,,64,0,9,,,,,1,,,76,100
14176,note_off,,,,,64,0,11,,,,,3,,,76,100
14208,note_on,,,,,32,0,10,,,,,2,,,81,10
14208,note_on,,,,,64,0,12,,,,,4,,,66,60
14208,note_on,,,,,64,0,13,,,,,5,,,59,60
14208,note_on,,,,,32,0,11,,,,,3,,,78,10
14208,note_on,,,,,32,0,9,,,,,1,,,78,60
14208,note_on,,,,,32,0,8,,,,,0,,,81,60
14208,note_on,,,,,0,0,15,,,,,7,,,66,100
14208,note_on,,,,,0,0,15,,,,,7,,,75,100
14208,note_on,,,,,64,0,15,,,,,7,,,69,100
14208,note_on,,,,,64,0,16,,,,,7,,,59,100
14208,note_on,,,,,64,0,14,,,,,6,,,47,60
14272,note_off,,,,,64,0,9,,,,,1,,,78,100
14272,note_off,,,,,64,0,10,,,,,2,,,81,100
14272,note_off,,,,,64,0,8,,,,,0,,,81,100
14272,note_off,,,,,64,0,11,,,,,3,,,78,100
14304,note_on,,,,,32,0,10,,,,,2,,,83,10
14304,note_on,,,,,32,0,11,,,,,3,,,79,10
14304,note_on,,,,,32,0,9,,,,,1,,,79,60
14304,note_on,,,,,32,0,8,,,,,0,,,83,60
14336,note_off,,,,,128,0,12,,,,,4,,,66,100
14336,note_off,,,,,0,0,15,,,,,7,,,66,100
14336,note_off,,,,,128,0,16,,,,,7,,,59,100
14336,note_off,,,,,0,0,15,,,,,7,,,75,100
14336,note_off,,,,,128,0,15,,,,,7,,,69,100
14336,note_off,,,,,128,0,13,,,,,5,,,59,100
14336,note_off,,,,,128,0,14,,,,,6,,,47,100
14368,note_off,,,,,64,0,9,,,,,1,,,79,100
14368,note_off,,,,,64,0,10,,,,,2,,,83,100
14368,note_off,,,,,64,0,11,,,,,3,,,79,100
14368,note_off,,,,,64,0,8,,,,,0,,,83,100
14400,note_on,,,,,64,0,14,,,,,6,,,52,60
14400,note_on,,,,,32,0,8,,,,,0,,,79,60
14400,note_on,,,,,64,0,16,,,,,7,,,64,100
14400,note_on,,,,,32,0,10,,,,,2,,,79,10
14400,note_on,,,,,64,0,12,,,,,4,,,67,60
14400,note_on,,,,,0,0,15,,,,,7,,,71,100
14400,note_on,,,,,64,0,15,,,,,7,,,67,100
14400,note_on,,,,,32,0,11,,,,,3,,,76,10
14400,note_on,,,,,64,0,13,,,,,5,,,64,60
14400,note_on,,,,,32,0,9,,,,,1,,,76,60
14528,note_off,,,,,128,0,13,,,,,5,,,64,100
14528,note_off,,,,,128,0,16,,,,,7,,,64,100
14528,note_off,,,,,128,0,11,,,,,3,,,76,100
14528,note_off,,,,,128,0,14,,,,,6,,,52,100
14528,note_off,,,,,128,0,9,,,,,1,,,76,100
14528,note_off,,,,,128,0,12,,,,,4,,,67,100
14528,note_off,,,,,128,0,8,,,,,0,,,79,100
14528,note_off,,,,,0,0,15,,,,,7,,,71,100
14528,note_off,,,,,128,0,15,,,,,7,,,67,100
14528,note_off,,,,,128,0,10,,,,,2,,,79,100
14592,note_on,,,,,64,0,13,,,,,5,,,52,60
14592,note_on,,,,,64,0,12,,,,,4,,,59,60
14592,note_on,,,,,0,0,15,,,,,7,,,67,100
14592,note_on,,,,,64,0,15,,,,,7,,,59,100
14592,note_on,,,,,64,0,14,,,,,6,,,40,60
14592,note_on,,,,,64,0,10,,,,,2,,,79,10
14592,note_on,,,,,64,0,11,,,,,3,,,76,10
14592,note_on,,,,,64,0,9,,,,,1,,,76,60
14592,note_on,,,,,64,0,16,,,,,7,,,52,100
14592,note_on,,,,,64,0,8,,,,,0,,,79,60
14656,note_off,,,,,64,0,10,,,,,2,,,79,100
14656,note_off,,,,,64,0,9,,,,,1,,,76,100
14656,note_off,,,,,64,0,11,,,,,3,,,76,100
14656,note_off,,,,,64,0,8,,,,,0,,,79,100
14688,note_on,,,,,32,0,11,,,,,3,,,75,10
14688,note_on,,,,,32,0,8,,,,,0,,,78,60
14688,note_on,,,,,32,0,9,,,,,1,,,75,60
14688,note_on,,,,,32,0,10,,,,,2,,,78,10
14720,note_off,,,,,128,0,14,,,,,6,,,40,100
14720,note_off,,,,,128,0,16,,,,,7,,,52,100
14720,note_off,,,,,128,0,15,,,,,7,,,59,100
14720,note_off,,,,,0,0,15,,,,,7,,,67,100
14720,note_off,,,,,128,0,13,,,,,5,,,52,100
14752,note_off,,,,,64,0,8,,,,,0,,,78,100
14752,note_off,,,,,64,0,10,,,,,2,,,78,100
14752,note_off,,,,,64,0,11,,,,,3,,,75,100
14752,note_off,,,,,64,0,9,,,,,1,,,75,100
14784,note_on,,,,,64,0,15,,,,,7,,,71,100
14784,note_on,,,,,32,0,11,,,,,3,,,76,10
14784,note_on,,,,,64,0,16,,,,,7,,,64,100
14784,note_on,,,,,64,0,14,,,,,6,,,52,60
14784,note_on,,,,,64,0,13,,,,,5,,,64,60
14784,note_on,,,,,32,0,8,,,,,0,,,79,60
14784,note_on,,,,,32,0,10,,,,,2,,,79,10
14784,note_on,,,,,0,0,15,,,,,7,,,67,100
14784,note_on,,,,,32,0,9,,,,,1,,,76,60
14848,note_off,,,,,64,0,11,,,,,3,,,76,100
14848,note_off,,,,,64,0,10,,,,,2,,,79,100
14848,note_off,,,,,64,0,9,,,,,1,,,76,100
14848,note_off,,,,,64,0,8,,,,,0,,,79,100
14848,note_off,,,,,256,0,12,,,,,4,,,59,100
14880,note_on,,,,,32,0,8,,,,,0,,,81,60
14880,note_on,,,,,32,0,11,,,,,3,,,78,10
14880,note_on,,,,,32,0,9,,,,,1,,,78,60
14880,note_on,,,,,32,0,10,,,,,2,,,81,10
14912,note_off,,,,,128,0,13,,,,,5,,,64,100
14912,note_off,,,,,128,0,14,,,,,6,,,52,100
14912,note_off,,,,,128,0,15,,,,,7,,,71,100
14912,note_off,,,,,0,0,15,,,,,7,,,67,100
14912,note_off,,,,,128,0,16,,,,,7,,,64,100
14944,note_off,,,,,64,0,10,,,,,2,,,81,100
14944,note_off,,,,,64,0,8,,,,,0,,,81,100
14944,note_off,,,,,64,0,11,,,,,3,,,78,100
14944,note_off,,,,,64,0,9,,,,,1,,,78,100
14976,note_on,,,,,32,0,8,,,,,0,,,83,60
14976,note_on,,,,,64,0,15,,,,,7,,,67,100
14976,note_on,,,,,0,0,15,,,,,7,,,71,100
14976,note_on,,,,,32,0,9,,,,,1,,,79,60
14976,note_on,,,,,32,0,10,,,,,2,,,83,10
14976,note_on,,,,,128,0,12,,,,,4,,,71,60
14976,note_on,,,,,32,0,11,,,,,3,,,79,10
14976,note_on,,,,,64,0,16,,,,,7,,,64,100
14976,note_on,,,,,64,0,14,,,,,6,,,52,60
14976,note_on,,,,,64,0,13,,,,,5,,,64,60
15104,note_off,,,,,128,0,15,,,,,7,,,67,100
15104,note_off,,,,,128,0,12,,,,,4,,,71,100
15104,note_off,,,,,128,0,11,,,,,3,,,79,100
15104,note_off,,,,,128,0,16,,,,,7,,,64,100
15104,note_off,,,,,128,0,8,,,,,0,,,83,100
15104,note_off,,,,,128,0,10,,,,,2,,,83,100
15104,note_off,,,,,128,0,13,,,,,5,,,64,100
15104,note_off,,,,,0,0,15,,,,,7,,,71,100
15104,note_off,,,,,128,0,14,,,,,6,,,52,100
15104,note_off,,,,,128,0,9,,,,,1,,,79,100
15168,note_on,,,,,64,0,9,,,,,1,,,78,60
15168,note_on,,,,,64,0,13,,,,,5,,,52,60
15168,note_on,,,,,64,0,14,,,,,6,,,40,60
15168,note_on,,,,,64,0,8,,,,,0,,,81,60
15168,note_on,,,,,0,0,15,,,,,7,,,67,100
15168,note_on,,,,,64,0,15,,,,,7,,,59,100
15168,note_on,,,,,64,0,12,,,,,4,,,67,60
15168,note_on,,,,,64,0,11,,,,,3,,,78,10
15168,note_on,,,,,64,0,10,,,,,2,,,81,10
15168,note_on,,,,,64,0,16,,,,,7,,,52,100
15232,note_off,,,,,64,0,9,,,,,1,,,78,100
15232,note_off,,,,,64,0,11,,,,,3,,,78,100
15232,note_off,,,,,64,0,10,,,,,2,,,81,100
15232,note_off,,,,,64,0,8,,,,,0,,,81,100
15264,note_on,,,,,32,0,11,,,,,3,,,79,10
15264,note_on,,,,,32,0,8,,,,,0,,,83,60
15264,note_on,,,,,32,0,10,,,,,2,,,83,10
15264,note_on,,,,,32,0,9,,,,,1,,,79,60
15296,note_off,,,,,128,0,16,,,,,7,,,52,100
15296,note_off,,,,,0,0,15,,,,,7,,,67,100
15296,note_off,,,,,128,0,13,,,,,5,,,52,100
15296,note_off,,,,,128,0,14,,,,,6,,,40,100
15296,note_off,,,,,128,0,15,,,,,7,,,59,100
15296,note_off,,,,,128,0,12,,,,,4,,,67,100
15328,note_off,,,,,64,0,8,,,,,0,,,83,100
15328,note_off,,,,,64,0,9,,,,,1,,,79,100
15328,note_off,,,,,64,0,10,,,,,2,,,83,100
15328,note_off,,,,,64,0,11,,,,,3,,,79,100
15360,note_on,,,,,32,0,8,,,,,0,,,81,60
15360,note_on,,,,,32,0,9,,,,,1,,,78,60
15360,note_on,,,,,0,0,15,,,,,7,,,64,100
15360,note_on,,,,,64,0,15,,,,,7,,,67,100
15360,note_on,,,,,64,0,12,,,,,4,,,64,60
15360,note_on,,,,,64,0,14,,,,,6,,,45,60
15360,note_on,,,,,32,0,10,,,,,2,,,81,10
15360,note_on,,,,,64,0,13,,,,,5,,,57,60
15360,note_on,,,,,32,0,11,,,,,3,,,78,10
15360,note_on,,,,,64,0,16,,,,,7,,,57,100
15424,note_off,,,,,64,0,9,,,,,1,,,78,100
15424,note_off,,,,,64,0,11,,,,,3,,,78,100
15424,note_off,,,,,64,0,10,,,,,2,,,81,100
15424,note_off,,,,,64,0,8,,,,,0,,,81,100
15456,note_on,,,,,32,0,10,,,,,2,,,79,10
15456,note_on,,,,,32,0,8,,,,,0,,,79,60
15456,note_on,,,,,32,0,9,,,,,1,,,76,60
15456,note_on,,,,,32,0,11,,,,,3,,,76,10
15488,note_off,,,,,128,0,16,,,,,7,,,57,100
15488,note_off,,,,,128,0,13,,,,,5,,,57,100
15488,note_off,,,,,128,0,14,,,,,6,,,45,100
15488,note_off,,,,,128,0,12,,,,,4,,,64,100
15488,note_off,,,,,0,0,15,,,,,7,,,64,100
15488,note_off,,,,,128,0,15,,,,,7,,,67,100
15520,note_off,,,,,64,0,10,,,,,2,,,79,100
15520,note_off,,,,,64,0,8,,,,,0,,,79,100
15520,note_off,,,,,64,0,11,,,,,3,,,76,100
15520,note_off,,,,,64,0,9,,,,,1,,,76,100
15552,note_on,,,,,64,0,15,,,,,7,,,75,100
15552,note_on,,,,,64,0,16,,,,,7,,,59,100
15552,note_on,,,,,64,0,12,,,,,4,,,59,60
15552,note_on,,,,,32,0,10,,,,,2,,,78,10
15552,note_on,,,,,0,0,15,,,,,7,,,66,100
15552,note_on,,,,,32,0,11,,,,,3,,,75,10
15552,note_on,,,,,64,0,13,,,,,5,,,59,60
15552,note_on,,,,,32,0,9,,,,,1,,,75,60
15552,note_on,,,,,64,0,14,,,,,6,,,47,60
15552,note_on,,,,,32,0,8,,,,,0,,,78,60
15616,note_off,,,,,64,0,9,,,,,1,,,75,100
15616,note_off,,,,,64,0,8,,,,,0,,,78,100
15616,note_off,,,,,64,0,11,,,,,3,,,75,100
15616,note_off,,,,,64,0,10,,,,,2,,,78,100
15648,note_on,,,,,32,0,8,,,,,0,,,76,60
15648,note_on,,,,,32,0,11,,,,,3,,,73,10
15648,note_on,,,,,32,0,10,,,,,2,,,76,10
15648,note_on,,,,,32,0,9,,,,,1,,,73,60
15680,note_off,,,,,128,0,14,,,,,6,,,47,100
15680,note_off,,,,,128,0,16,,,,,7,,,59,100
15680,note_off,,,,,128,0,15,,,,,7,,,75,100
15680,note_off,,,,,128,0,13,,,,,5,,,59,100
15680,note_off,,,,,0,0,15,,,,,7,,,66,100
15712,note_off,,,,,64,0,9,,,,,1,,,73,100
15712,note_off,,,,,64,0,8,,,,,0,,,76,100
15712,note_off,,,,,64,0,11,,,,,3,,,73,100
15712,note_off,,,,,64,0,10,,,,,2,,,76,100
15744,note_on,,,,,0,0,15,,,,,7,,,66,100
15744,note_on,,,,,64,0,16,,,,,7,,,47,100
15744,note_on,,,,,32,0,8,,,,,0,,,78,60
15744,note_on,,,,,64,0,15,,,,,7,,,63,100
15744,note_on,,,,,32,0,10,,,,,2,,,78,10
15744,note_on,,,,,64,0,13,,,,,5,,,47,60
15744,note_on,,,,,64,0,14,,,,,6,,,35,60
15744,note_on,,,,,32,0,11,,,,,3,,,75,10
15744,note_on,,,,,32,0,9,,,,,1,,,75,60
15808,note_off,,,,,64,0,8,,,,,0,,,78,100
15808,note_off,,,,,64,0,11,,,,,3,,,75,100
15808,note_off,,,,,64,0,10,,,,,2,,,78,100
15808,note_off,,,,,64,0,9,,,,,1,,,75,100
15840,note_on,,,,,32,0,8,,,,,0,,,79,60
15840,note_on,,,,,32,0,11,,,,,3,,,76,10
15840,note_on,,,,,32,0,10,,,,,2,,,79,10
15840,note_on,,,,,32,0,9,,,,,1,,,76,60
15904,note_off,,,,,64,0,8,,,,,0,,,79,100
15904,note_off,,,,,64,0,10,,,,,2,,,79,100
15904,note_off,,,,,64,0,11,,,,,3,,,76,100
15904,note_off,,,,,64,0,9,,,,,1,,,76,100
15936,note_on,,,,,32,0,8,,,,,0,,,78,60
15936,note_off,,,,,384,0,12,,,,,4,,,59,100
15936,note_on,,,,,32,0,11,,,,,3,,,75,10
15936,note_on,,,,,32,0,9,,,,,1,,,75,60
15936,note_on,,,,,32,0,10,,,,,2,,,78,10
16000,note_off,,,,,256,0,16,,,,,7,,,47,100
16000,note_off,,,,,256,0,13,,,,,5,,,47,100
16000,note_off,,,,,0,0,15,,,,,7,,,66,100
16000,note_off,,,,,256,0,15,,,,,7,,,63,100
16000,note_off,,,,,256,0,14,,,,,6,,,35,100
16064,note_off,,,,,128,0,10,,,,,2,,,78,100
16064,note_off,,,,,128,0,8,,,,,0,,,78,100
16064,note_off,,,,,128,0,9,,,,,1,,,75,100
16064,note_off,,,,,128,0,11,,,,,3,,,75,100
16128,note_on,,,,,128,0,13,,,,,5,,,59,100
16128,note_on,,,,,0,0,15,,,,,7,,,66,100
16128,note_on,,,,,128,0,16,,,,,7,,,59,100
16128,note_on,,,,,64,0,8,,,,,0,,,83,100
16128,note_on,,,,,128,0,15,,,,,7,,,75,100
16128,note_on,,,,,64,0,10,,,,,2,,,83,50
16128,note_on,,,,,192,0,12,,,,,4,,,75,100
16128,note_on,,,,,64,0,11,,,,,3,,,78,50
16128,note_on,,,,,128,0,14,,,,,6,,,47,100
16128,note_on,,,,,64,0,9,,,,,1,,,78,100
16256,note_off,,,,,128,0,14,,,,,6,,,47,100
16256,note_off,,,,,128,0,8,,,,,0,,,83,100
16256,note_off,,,,,128,0,13,,,,,5,,,59,100
16256,note_off,,,,,128,0,10,,,,,2,,,83,100
16256,note_off,,,,,128,0,16,,,,,7,,,59,100
16320,note_on,,,,,64,0,16,,,,,7,,,59,100
16320,note_on,,,,,64,0,13,,,,,5,,,59,100
16320,note_on,,,,,64,0,14,,,,,6,,,47,100
16320,note_on,,,,,64,0,8,,,,,0,,,71,100
16320,note_on,,,,,64,0,10,,,,,2,,,71,50
16384,note_off,,,,,64,0,14,,,,,6,,,47,100
16384,note_off,,,,,0,0,15,,,,,7,,,66,100
16384,note_off,,,,,256,0,15,,,,,7,,,75,100
16384,note_off,,,,,256,0,11,,,,,3,,,78,100
16384,note_off,,,,,64,0,16,,,,,7,,,59,100
16384,note_off,,,,,256,0,9,,,,,1,,,78,100
16384,note_off,,,,,64,0,13,,,,,5,,,59,100
16384,note_off,,,,,256,0,12,,,,,4,,,75,100
16416,note_on,,,,,32,0,13,,,,,5,,,61,100
16416,note_on,,,,,32,0,14,,,,,6,,,49,100
16416,note_on,,,,,32,0,16,,,,,7,,,61,100
16448,note_off,,,,,128,0,10,,,,,2,,,71,100
16448,note_off,,,,,128,0,8,,,,,0,,,71,100
16480,note_off,,,,,64,0,14,,,,,6,,,49,100
16480,note_off,,,,,64,0,16,,,,,7,,,61,100
16480,note_off,,,,,64,0,13,,,,,5,,,61,100
16512,note_on,,,,,64,0,8,,,,,0,,,83,100
16512,note_on,,,,,32,0,14,,,,,6,,,51,100
16512,note_on,,,,,32,0,13,,,,,5,,,63,100
16512,note_on,,,,,32,0,16,,,,,7,,,63,100
16512,note_on,,,,,64,0,10,,,,,2,,,83,50
16576,note_off,,,,,64,0,14,,,,,6,,,51,100
16576,note_off,,,,,64,0,13,,,,,5,,,63,100
16576,note_off,,,,,64,0,16,,,,,7,,,63,100
16608,note_on,,,,,32,0,13,,,,,5,,,59,100
16608,note_on,,,,,32,0,14,,,,,6,,,47,100
16608,note_on,,,,,32,0,16,,,,,7,,,59,100
16640,note_off,,,,,128,0,8,,,,,0,,,83,100
16640,note_off,,,,,128,0,10,,,,,2,,,83,100
16672,note_off,,,,,64,0,13,,,,,5,,,59,100
16672,note_off,,,,,64,0,16,,,,,7,,,59,100
16672,note_off,,,,,64,0,14,,,,,6,,,47,100
16704,note_on,,,,,320,0,11,,,,,3,,,79,50
16704,note_on,,,,,320,0,12,,,,,4,,,71,100
16704,note_on,,,,,32,0,14,,,,,6,,,52,100
16704,note_on,,,,,64,0,10,,,,,2,,,83,50
16704,note_on,,,,,320,0,9,,,,,1,,,79,100
16704,note_on,,,,,320,0,15,,,,,7,,,76,100
16704,note_on,,,,,0,0,15,,,,,7,,,67,100
16704,note_on,,,,,0,0,15,,,,,7,,,71,100
16704,note_on,,,,,32,0,16,,,,,7,,,64,100
16704,note_on,,,,,32,0,13,,,,,5,,,64,100
16704,note_on,,,,,64,0,8,,,,,0,,,83,100
16832,note_off,,,,,128,0,8,,,,,0,,,83,100
16832,note_off,,,,,128,0,10,,,,,2,,,83,100
16832,note_off,,,,,128,0,13,,,,,5,,,64,100
16832,note_off,,,,,128,0,16,,,,,7,,,64,100
16832,note_off,,,,,128,0,14,,,,,6,,,52,100
16896,note_on,,,,,64,0,13,,,,,5,,,52,100
16896,note_on,,,,,64,0,14,,,,,6,,,40,100
16896,note_on,,,,,64,0,10,,,,,2,,,71,50
16896,note_on,,,,,64,0,16,,,,,7,,,52,100
16896,note_on,,,,,64,0,8,,,,,0,,,71,100
16960,note_off,,,,,256,0,12,,,,,4,,,71,100
16960,note_off,,,,,64,0,16,,,,,7,,,52,100
16960,note_off,,,,,0,0,15,,,,,7,,,71,100
16960,note_off,,,,,0,0,15,,,,,7,,,67,100
16960,note_off,,,,,64,0,13,,,,,5,,,52,100
16960,note_off,,,,,64,0,14,,,,,6,,,40,100
16960,note_off,,,,,256,0,11,,,,,3,,,79,100
16960,note_off,,,,,256,0,15,,,,,7,,,76,100
16960,note_off,,,,,256,0,9,,,,,1,,,79,100
16992,note_on,,,,,32,0,13,,,,,5,,,54,100
16992,note_on,,,,,32,0,16,,,,,7,,,54,100
16992,note_on,,,,,32,0,14,,,,,6,,,42,100
17024,note_off,,,,,128,0,10,,,,,2,,,71,100
17024,note_off,,,,,128,0,8,,,,,0,,,71,100
17056,note_off,,,,,64,0,14,,,,,6,,,42,100
17056,note_off,,,,,64,0,16,,,,,7,,,54,100
17056,note_off,,,,,64,0,13,,,,,5,,,54,100
17088,note_on,,,,,32,0,13,,,,,5,,,55,100
17088,note_on,,,,,32,0,14,,,,,6,,,43,100
17088,note_on,,,,,32,0,16,,,,,7,,,55,100
17088,note_on,,,,,64,0,8,,,,,0,,,83,100
17088,note_on,,,,,64,0,10,,,,,2,,,83,50
17152,note_off,,,,,64,0,16,,,,,7,,,55,100
17152,note_off,,,,,64,0,13,,,,,5,,,55,100
17152,note_off,,,,,64,0,14,,,,,6,,,43,100
17184,note_on,,,,,32,0,13,,,,,5,,,52,100
17184,note_on,,,,,32,0,14,,,,,6,,,40,100
17184,note_on,,,,,32,0,16,,,,,7,,,52,100
17216,note_off,,,,,128,0,8,,,,,0,,,83,100
17216,note_off,,,,,128,0,10,,,,,2,,,83,100
17248,note_off,,,,,64,0,16,,,,,7,,,52,100
17248,note_off,,,,,64,0,13,,,,,5,,,52,100
17248,note_off,,,,,64,0,14,,,,,6,,,40,100
17280,note_on,,,,,320,0,9,,,,,1,,,78,100
17280,note_on,,,,,32,0,14,,,,,6,,,47,100
17280,note_on,,,,,64,0,8,,,,,0,,,83,100
17280,note_on,,,,,320,0,11,,,,,3,,,78,50
17280,note_on,,,,,320,0,12,,,,,4,,,75,100
17280,note_on,,,,,64,0,10,,,,,2,,,83,50
17280,note_on,,,,,0,0,15,,,,,7,,,66,100
17280,note_on,,,,,320,0,15,,,,,7,,,75,100
17280,note_on,,,,,32,0,16,,,,,7,,,59,100
17280,note_on,,,,,32,0,13,,,,,5,,,59,100
17408,note_off,,,,,128,0,8,,,,,0,,,83,100
17408,note_off,,,,,128,0,16,,,,,7,,,59,100
17408,note_off,,,,,128,0,13,,,,,5,,,59,100
17408,note_off,,,,,128,0,14,,,,,6,,,47,100
17408,note_off,,,,,128,0,10,,,,,2,,,83,100
17472,note_on,,,,,64,0,8,,,,,0,,,71,100
17472,note_on,,,,,64,0,16,,,,,7,,,59,100
17472,note_on,,,,,64,0,14,,,,,6,,,47,100
17472,note_on,,,,,64,0,13,,,,,5,,,59,100
17472,note_on,,,,,64,0,10,,,,,2,,,71,50
17536,note_off,,,,,64,0,13,,,,,5,,,59,100
17536,note_off,,,,,64,0,16,,,,,7,,,59,100
17536,note_off,,,,,256,0,11,,,,,3,,,78,100
17536,note_off,,,,,256,0,15,,,,,7,,,75,100
17536,note_off,,,,,64,0,14,,,,,6,,,47,100
17536,note_off,,,,,256,0,12,,,,,4,,,75,100
17536,note_off,,,,,0,0,15,,,,,7,,,66,100
17536,note_off,,,,,256,0,9,,,,,1,,,78,100
17568,note_on,,,,,32,0,13,,,,,5,,,61,100
17568,note_on,,,,,32,0,16,,,,,7,,,61,100
17568,note_on,,,,,32,0,14,,,,,6,,,49,100
17600,note_off,,,,,128,0,8,,,,,0,,,71,100
17600,note_off,,,,,128,0,10,,,,,2,,,71,100
17632,note_off,,,,,64,0,13,,,,,5,,,61,100
17632,note_off,,,,,64,0,14,,,,,6,,,49,100
17632,note_off,,,,,64,0,16,,,,,7,,,61,100
17664,note_on,,,,,32,0,13,,,,,5,,,63,100
17664,note_on,,,,,32,0,16,,,,,7,,,63,100
17664,note_on,,,,,32,0,14,,,,,6,,,51,100
17664,note_on,,,,,64,0,8,,,,,0,,,83,100
17664,note_on,,,,,64,0,10,,,,,2,,,83,50
17728,note_off,,,,,64,0,13,,,,,5,,,63,100
17728,note_off,,,,,64,0,16,,,,,7,,,63,100
17728,note_off,,,,,64,0,14,,,,,6,,,51,100
17760,note_on,,,,,32,0,14,,,,,6,,,47,100
17760,note_on,,,,,32,0,16,,,,,7,,,59,100
17760,note_on,,,,,32,0,13,,,,,5,,,59,100
17792,note_off,,,,,128,0,10,,,,,2,,,83,100
17792,note_off,,,,,128,0,8,,,,,0,,,83,100
17824,note_off,,,,,64,0,14,,,,,6,,,47,100
17824,note_off,,,,,64,0,16,,,,,7,,,59,100
17824,note_off,,,,,64,0,13,,,,,5,,,59,100
17856,note_on,,,,,64,0,8,,,,,0,,,83,100
17856,note_on,,,,,320,0,9,,,,,1,,,79,100
17856,note_on,,,,,64,0,10,,,,,2,,,83,50
17856,note_on,,,,,32,0,13,,,,,5,,,64,100
17856,note_on,,,,,320,0,12,,,,,4,,,71,100
17856,note_on,,,,,0,0,15,,,,,7,,,67,100
17856,note_on,,,,,32,0,16,,,,,7,,,64,100
17856,note_on,,,,,320,0,11,,,,,3,,,79,50
17856,note_on,,,,,0,0,15,,,,,7,,,71,100
17856,note_on,,,,,32,0,14,,,,,6,,,52,100
17856,note_on,,,,,320,0,15,,,,,7,,,76,100
17984,note_off,,,,,128,0,16,,,,,7,,,64,100
17984,note_off,,,,,128,0,13,,,,,5,,,64,100
17984,note_off,,,,,128,0,10,,,,,2,,,83,100
17984,note_off,,,,,128,0,8,,,,,0,,,83,100
17984,note_off,,,,,128,0,14,,,,,6,,,52,100
18048,note_on,,,,,64,0,13,,,,,5,,,52,100
18048,note_on,,,,,64,0,16,,,,,7,,,52,100
18048,note_on,,,,,64,0,8,,,,,0,,,71,100
18048,note_on,,,,,64,0,10,,,,,2,,,71,50
18048,note_on,,,,,64,0,14,,,,,6,,,40,100
18112,note_off,,,,,64,0,14,,,,,6,,,40,100
18112,note_off,,,,,64,0,13,,,,,5,,,52,100
18112,note_off,,,,,256,0,9,,,,,1,,,79,100
18112,note_off,,,,,256,0,12,,,,,4,,,71,100
18112,note_off,,,,,256,0,11,,,,,3,,,79,100
18112,note_off,,,,,256,0,15,,,,,7,,,76,100
18112,note_off,,,,,0,0,15,,,,,7,,,67,100
18112,note_off,,,,,0,0,15,,,,,7,,,71,100
18112,note_off,,,,,64,0,16,,,,,7,,,52,100
18144,note_on,,,,,32,0,16,,,,,7,,,54,100
18144,note_on,,,,,32,0,14,,,,,6,,,42,100
18144,note_on,,,,,32,0,13,,,,,5,,,54,100
18176,note_off,,,,,128,0,10,,,,,2,,,71,100
18176,note_off,,,,,128,0,8,,,,,0,,,71,100
18208,note_off,,,,,64,0,13,,,,,5,,,54,100
18208,note_off,,,,,64,0,14,,,,,6,,,42,100
18208,note_off,,,,,64,0,16,,,,,7,,,54,100
18240,note_on,,,,,64,0,10,,,,,2,,,83,50
18240,note_on,,,,,32,0,14,,,,,6,,,43,100
18240,note_on,,,,,64,0,8,,,,,0,,,83,100
18240,note_on,,,,,32,0,13,,,,,5,,,55,100
18240,note_on,,,,,32,0,16,,,,,7,,,55,100
18304,note_off,,,,,64,0,13,,,,,5,,,55,100
18304,note_off,,,,,64,0,14,,,,,6,,,43,100
18304,note_off,,,,,64,0,16,,,,,7,,,55,100
18336,note_on,,,,,32,0,13,,,,,5,,,52,100
18336,note_on,,,,,32,0,14,,,,,6,,,40,100
18336,note_on,,,,,32,0,16,,,,,7,,,52,100
18368,note_off,,,,,128,0,10,,,,,2,,,83,100
18368,note_off,,,,,128,0,8,,,,,0,,,83,100
18400,note_off,,,,,64,0,13,,,,,5,,,52,100
18400,note_off,,,,,64,0,14,,,,,6,,,40,100
18400,note_off,,,,,64,0,16,,,,,7,,,52,100
18432,note_on,,,,,320,0,12,,,,,4,,,75,100
18432,note_on,,,,,32,0,16,,,,,7,,,59,100
18432,note_on,,,,,320,0,9,,,,,1,,,78,100
18432,note_on,,,,,32,0,13,,,,,5,,,59,100
18432,note_on,,,,,64,0,10,,,,,2,,,83,50
18432,note_on,,,,,320,0,15,,,,,7,,,66,100
18432,note_on,,,,,0,0,15,,,,,7,,,75,100
18432,note_on,,,,,320,0,11,,,,,3,,,78,50
18432,note_on,,,,,64,0,8,,,,,0,,,83,100
18432,note_on,,,,,32,0,14,,,,,6,,,47,100
18560,note_off,,,,,128,0,16,,,,,7,,,59,100
18560,note_off,,,,,128,0,13,,,,,5,,,59,100
18560,note_off,,,,,128,0,10,,,,,2,,,83,100
18560,note_off,,,,,128,0,14,,,,,6,,,47,100
18560,note_off,,,,,128,0,8,,,,,0,,,83,100
18624,note_on,,,,,64,0,13,,,,,5,,,59,100
18624,note_on,,,,,64,0,10,,,,,2,,,71,50
18624,note_on,,,,,64,0,14,,,,,6,,,47,100
18624,note_on,,,,,64,0,16,,,,,7,,,59,100
18624,note_on,,,,,64,0,8,,,,,0,,,71,100
18688,note_off,,,,,64,0,16,,,,,7,,,59,100
18688,note_off,,,,,256,0,15,,,,,7,,,66,100
18688,note_off,,,,,64,0,13,,,,,5,,,59,100
18688,note_off,,,,,0,0,15,,,,,7,,,75,100
18688,note_off,,,,,64,0,14,,,,,6,,,47,100
18688,note_off,,,,,256,0,9,,,,,1,,,78,100
18688,note_off,,,,,256,0,12,,,,,4,,,75,100
18688,note_off,,,,,256,0,11,,,,,3,,,78,100
18720,note_on,,,,,32,0,13,,,,,5,,,61,100
18720,note_on,,,,,32,0,14,,,,,6,,,49,100
18720,note_on,,,,,32,0,16,,,,,7,,,61,100
18752,note_off,,,,,128,0,8,,,,,0,,,71,100
18752,note_off,,,,,128,0,10,,,,,2,,,71,100
18784,note_off,,,,,64,0,16,,,,,7,,,61,100
18784,note_off,,,,,64,0,14,,,,,6,,,49,100
18784,note_off,,,,,64,0,13,,,,,5,,,61,100
18816,note_on,,,,,64,0,8,,,,,0,,,83,100
18816,note_on,,,,,64,0,10,,,,,2,,,83,50
18816,note_on,,,,,32,0,14,,,,,6,,,51,100
18816,note_on,,,,,32,0,13,,,,,5,,,63,100
18816,note_on,,,,,32,0,16,,,,,7,,,63,100
18880,note_off,,,,,64,0,14,,,,,6,,,51,100
18880,note_off,,,,,64,0,13,,,,,5,,,63,100
18880,note_off,,,,,64,0,16,,,,,7,,,63,100
18912,note_on,,,,,32,0,14,,,,,6,,,47,100
18912,note_on,,,,,32,0,13,,,,,5,,,59,100
18912,note_on,,,,,32,0,16,,,,,7,,,59,100
18944,note_off,,,,,128,0,8,,,,,0,,,83,100
18944,note_off,,,,,128,0,10,,,,,2,,,83,100
18976,note_off,,,,,64,0,14,,,,,6,,,47,100
18976,note_off,,,,,64,0,13,,,,,5,,,59,100
18976,note_off,,,,,64,0,16,,,,,7,,,59,100
19008,note_on,,,,,64,0,8,,,,,0,,,79,100
19008,note_on,,,,,320,0,9,,,,,1,,,76,100
19008,note_on,,,,,64,0,10,,,,,2,,,79,50
19008,note_on,,,,,32,0,13,,,,,5,,,64,100
19008,note_on,,,,,0,0,15,,,,,7,,,71,100
19008,note_on,,,,,320,0,15,,,,,7,,,67,100
19008,note_on,,,,,32,0,16,,,,,7,,,64,100
19008,note_on,,,,,320,0,11,,,,,3,,,76,50
19008,note_on,,,,,32,0,14,,,,,6,,,52,100
19008,note_on,,,,,320,0,12,,,,,4,,,71,100
19072,note_off,,,,,64,0,13,,,,,5,,,64,100
19072,note_off,,,,,64,0,16,,,,,7,,,64,100
19072,note_off,,,,,64,0,14,,,,,6,,,52,100
19104,note_on,,,,,32,0,16,,,,,7,,,62,100
19104,note_on,,,,,32,0,13,,,,,5,,,62,100
19104,note_on,,,,,32,0,14,,,,,6,,,50,100
19168,note_off,,,,,64,0,14,,,,,6,,,50,100
19168,note_off,,,,,64,0,16,,,,,7,,,62,100
19168,note_off,,,,,64,0,13,,,,,5,,,62,100
19200,note_on,,,,,32,0,13,,,,,5,,,60,100
19200,note_on,,,,,32,0,14,,,,,6,,,48,100
19200,note_on,,,,,32,0,16,,,,,7,,,60,100
19264,note_off,,,,,256,0,8,,,,,0,,,79,100
19264,note_off,,,,,256,0,11,,,,,3,,,76,100
19264,note_off,,,,,64,0,14,,,,,6,,,48,100
19264,note_off,,,,,256,0,15,,,,,7,,,67,100
19264,note_off,,,,,64,0,16,,,,,7,,,60,100
19264,note_off,,,,,0,0,15,,,,,7,,,71,100
19264,note_off,,,,,256,0,10,,,,,2,,,79,100
19264,note_off,,,,,256,0,9,,,,,1,,,76,100
19264,note_off,,,,,64,0,13,,,,,5,,,60,100
19264,note_off,,,,,256,0,12,,,,,4,,,71,100
19296,note_on,,,,,32,0,14,,,,,6,,,47,100
19296,note_on,,,,,32,0,13,,,,,5,,,59,100
19296,note_on,,,,,32,0,16,,,,,7,,,59,100
19360,note_off,,,,,64,0,13,,,,,5,,,59,100
19360,note_off,,,,,64,0,14,,,,,6,,,47,100
19360,note_off,,,,,64,0,16,,,,,7,,,59,100
19392,note_on,,,,,32,0,16,,,,,7,,,57,100
19392,note_on,,,,,32,0,14,,,,,6,,,45,100
19392,note_on,,,,,32,0,13,,,,,5,,,57,100
19456,note_off,,,,,64,0,14,,,,,6,,,45,100
19456,note_off,,,,,64,0,16,,,,,7,,,57,100
19456,note_off,,,,,64,0,13,,,,,5,,,57,100
19488,note_on,,,,,32,0,16,,,,,7,,,55,100
19488,note_on,,,,,32,0,14,,,,,6,,,43,100
19488,note_on,,,,,32,0,13,,,,,5,,,55,100
19552,note_off,,,,,64,0,13,,,,,5,,,55,100
19552,note_off,,,,,64,0,14,,,,,6,,,43,100
19552,note_off,,,,,64,0,16,,,,,7,,,55,100
19584,note_on,,,,,32,0,16,,,,,7,,,60,100
19584,note_on,,,,,320,0,10,,,,,2,,,81,50
19584,note_on,,,,,320,0,11,,,,,3,,,76,50
19584,note_on,,,,,320,0,9,,,,,1,,,76,100
19584,note_on,,,,,320,0,8,,,,,0,,,81,100
19584,note_on,,,,,0,0,15,,,,,7,,,69,100
19584,note_on,,,,,320,0,15,,,,,7,,,64,100
19584,note_on,,,,,32,0,14,,,,,6,,,48,100
19584,note_on,,,,,32,0,13,,,,,5,,,60,100
19584,note_on,,,,,320,0,12,,,,,4,,,72,100
19648,note_off,,,,,64,0,14,,,,,6,,,48,100
19648,note_off,,,,,64,0,13,,,,,5,,,60,100
19648,note_off,,,,,64,0,16,,,,,7,,,60,100
19680,note_on,,,,,32,0,16,,,,,7,,,59,100
19680,note_on,,,,,32,0,13,,,,,5,,,59,100
19680,note_on,,,,,32,0,14,,,,,6,,,47,100
19712,note_off,,,,,128,0,8,,,,,0,,,81,100
19712,note_off,,,,,128,0,10,,,,,2,,,81,100
19744,note_off,,,,,64,0,16,,,,,7,,,59,100
19744,note_off,,,,,64,0,13,,,,,5,,,59,100
19744,note_off,,,,,64,0,14,,,,,6,,,47,100
19776,note_on,,,,,32,0,14,,,,,6,,,45,100
19776,note_on,,,,,64,0,10,,,,,2,,,69,50
19776,note_on,,,,,64,0,8,,,,,0,,,69,100
19776,note_on,,,,,32,0,13,,,,,5,,,57,100
19776,note_on,,,,,32,0,16,,,,,7,,,57,100
19840,note_off,,,,,256,0,9,,,,,1,,,76,100
19840,note_off,,,,,256,0,15,,,,,7,,,64,100
19840,note_off,,,,,0,0,15,,,,,7,,,69,100
19840,note_off,,,,,64,0,13,,,,,5,,,57,100
19840,note_off,,,,,256,0,12,,,,,4,,,72,100
19840,note_off,,,,,64,0,14,,,,,6,,,45,100
19840,note_off,,,,,64,0,16,,,,,7,,,57,100
19840,note_off,,,,,256,0,11,,,,,3,,,76,100
19872,note_on,,,,,32,0,14,,,,,6,,,43,100
19872,note_on,,,,,32,0,16,,,,,7,,,55,100
19872,note_on,,,,,32,0,13,,,,,5,,,55,100
19904,note_off,,,,,128,0,10,,,,,2,,,69,100
19904,note_off,,,,,128,0,8,,,,,0,,,69,100
19936,note_off,,,,,64,0,16,,,,,7,,,55,100
19936,note_off,,,,,64,0,14,,,,,6,,,43,100
19936,note_off,,,,,64,0,13,,,,,5,,,55,100
19968,note_on,,,,,32,0,14,,,,,6,,,42,100
19968,note_on,,,,,64,0,10,,,,,2,,,81,50
19968,note_on,,,,,32,0,13,,,,,5,,,54,100
19968,note_on,,,,,32,0,16,,,,,7,,,54,100
19968,note_on,,,,,64,0,8,,,,,0,,,81,100
20032,note_off,,,,,64,0,14,,,,,6,,,42,100
20032,note_off,,,,,64,0,16,,,,,7,,,54,100
20032,note_off,,,,,64,0,13,,,,,5,,,54,100
20064,note_on,,,,,32,0,14,,,,,6,,,40,100
20064,note_on,,,,,32,0,16,,,,,7,,,52,100
20064,note_on,,,,,32,0,13,,,,,5,,,52,100
20096,note_off,,,,,128,0,8,,,,,0,,,81,100
20096,note_off,,,,,128,0,10,,,,,2,,,81,100
20128,note_off,,,,,64,0,16,,,,,7,,,52,100
20128,note_off,,,,,64,0,13,,,,,5,,,52,100
20128,note_off,,,,,64,0,14,,,,,6,,,40,100
20160,note_on,,,,,320,0,15,,,,,7,,,64,100
20160,note_on,,,,,0,0,15,,,,,7,,,69,100
20160,note_on,,,,,64,0,10,,,,,2,,,81,50
20160,note_on,,,,,320,0,12,,,,,4,,,72,100
20160,note_on,,,,,32,0,13,,,,,5,,,60,100
20160,note_on,,,,,32,0,16,,,,,7,,,60,100
20160,note_on,,,,,320,0,9,,,,,1,,,76,100
20160,note_on,,,,,32,0,14,,,,,6,,,48,100
20160,note_on,,,,,64,0,8,,,,,0,,,81,100
20160,note_on,,,,,320,0,11,,,,,3,,,76,50
20224,note_off,,,,,64,0,13,,,,,5,,,60,100
20224,note_off,,,,,64,0,16,,,,,7,,,60,100
20224,note_off,,,,,64,0,14,,,,,6,,,48,100
20256,note_on,,,,,32,0,16,,,,,7,,,59,100
20256,note_on,,,,,32,0,13,,,,,5,,,59,100
20256,note_on,,,,,32,0,14,,,,,6,,,47,100
20288,note_off,,,,,128,0,8,,,,,0,,,81,100
20288,note_off,,,,,128,0,10,,,,,2,,,81,100
20320,note_off,,,,,64,0,14,,,,,6,,,47,100
20320,note_off,,,,,64,0,13,,,,,5,,,59,100
20320,note_off,,,,,64,0,16,,,,,7,,,59,100
20352,note_on,,,,,32,0,16,,,,,7,,,57,100
20352,note_on,,,,,32,0,13,,,,,5,,,57,100
20352,note_on,,,,,32,0,14,,,,,6,,,45,100
20352,note_on,,,,,64,0,8,,,,,0,,,69,100
20352,note_on,,,,,64,0,10,,,,,2,,,69,50
20416,note_off,,,,,64,0,16,,,,,7,,,57,100
20416,note_off,,,,,256,0,9,,,,,1,,,76,100
20416,note_off,,,,,64,0,14,,,,,6,,,45,100
20416,note_off,,,,,256,0,11,,,,,3,,,76,100
20416,note_off,,,,,256,0,15,,,,,7,,,64,100
20416,note_off,,,,,64,0,13,,,,,5,,,57,100
20416,note_off,,,,,256,0,12,,,,,4,,,72,100
20416,note_off,,,,,0,0,15,,,,,7,,,69,100
20448,note_on,,,,,32,0,14,,,,,6,,,43,100
20448,note_on,,,,,32,0,13,,,,,5,,,55,100
20448,note_on,,,,,32,0,16,,,,,7,,,55,100
20480,note_off,,,,,128,0,8,,,,,0,,,69,100
20480,note_off,,,,,128,0,10,,,,,2,,,69,100
20512,note_off,,,,,64,0,13,,,,,5,,,55,100
20512,note_off,,,,,64,0,16,,,,,7,,,55,100
20512,note_off,,,,,64,0,14,,,,,6,,,43,100
20544,note_on,,,,,32,0,13,,,,,5,,,54,100
20544,note_on,,,,,64,0,10,,,,,2,,,81,50
20544,note_on,,,,,32,0,16,,,,,7,,,54,100
20544,note_on,,,,,64,0,8,,,,,0,,,81,100
20544,note_on,,,,,32,0,14,,,,,6,,,42,100
20608,note_off,,,,,64,0,16,,,,,7,,,54,100
20608,note_off,,,,,64,0,14,,,,,6,,,42,100
20608,note_off,,,,,64,0,13,,,,,5,,,54,100
20640,note_on,,,,,32,0,13,,,,,5,,,52,100
20640,note_on,,,,,32,0,14,,,,,6,,,40,100
20640,note_on,,,,,32,0,16,,,,,7,,,52,100
20672,note_off,,,,,128,0,8,,,,,0,,,81,100
20672,note_off,,,,,128,0,10,,,,,2,,,81,100
20704,note_off,,,,,64,0,16,,,,,7,,,52,100
20704,note_off,,,,,64,0,13,,,,,5,,,52,100
20704,note_off,,,,,64,0,14,,,,,6,,,40,100
20736,note_on,,,,,64,0,8,,,,,0,,,81,100
20736,note_on,,,,,32,0,13,,,,,5,,,57,100
20736,note_on,,,,,320,0,9,,,,,1,,,76,100
20736,note_on,,,,,320,0,12,,,,,4,,,73,100
20736,note_on,,,,,32,0,16,,,,,7,,,57,100
20736,note_on,,,,,320,0,11,,,,,3,,,76,50
20736,note_on,,,,,320,0,15,,,,,7,,,61,100
20736,note_on,,,,,0,0,15,,,,,7,,,69,100
20736,note_on,,,,,32,0,14,,,,,6,,,45,100
20736,note_on,,,,,64,0,10,,,,,2,,,81,50
20800,note_off,,,,,64,0,14,,,,,6,,,45,100
20800,note_off,,,,,64,0,16,,,,,7,,,57,100
20800,note_off,,,,,64,0,13,,,,,5,,,57,100
20832,note_on,,,,,32,0,16,,,,,7,,,55,100
20832,note_on,,,,,32,0,14,,,,,6,,,43,100
20832,note_on,,,,,32,0,13,,,,,5,,,55,100
20864,note_off,,,,,128,0,10,,,,,2,,,81,100
20864,note_off,,,,,128,0,8,,,,,0,,,81,100
20896,note_off,,,,,64,0,16,,,,,7,,,55,100
20896,note_off,,,,,64,0,14,,,,,6,,,43,100
20896,note_off,,,,,64,0,13,,,,,5,,,55,100
20928,note_on,,,,,32,0,14,,,,,6,,,42,100
20928,note_on,,,,,64,0,8,,,,,0,,,69,100
20928,note_on,,,,,32,0,13,,,,,5,,,54,100
20928,note_on,,,,,64,0,10,,,,,2,,,69,50
20928,note_on,,,,,32,0,16,,,,,7,,,54,100
20992,note_off,,,,,64,0,14,,,,,6,,,42,100
20992,note_off,,,,,256,0,11,,,,,3,,,76,100
20992,note_off,,,,,0,0,15,,,,,7,,,69,100
20992,note_off,,,,,256,0,15,,,,,7,,,61,100
20992,note_off,,,,,256,0,12,,,,,4,,,73,100
20992,note_off,,,,,64,0,16,,,,,7,,,54,100
20992,note_off,,,,,256,0,9,,,,,1,,,76,100
20992,note_off,,,,,64,0,13,,,,,5,,,54,100
21024,note_on,,,,,32,0,14,,,,,6,,,40,100
21024,note_on,,,,,32,0,16,,,,,7,,,52,100
21024,note_on,,,,,32,0,13,,,,,5,,,52,100
21056,note_off,,,,,128,0,8,,,,,0,,,69,100
21056,note_off,,,,,128,0,10,,,,,2,,,69,100
21088,note_off,,,,,64,0,13,,,,,5,,,52,100
21088,note_off,,,,,64,0,14,,,,,6,,,40,100
21088,note_off,,,,,64,0,16,,,,,7,,,52,100
21120,note_on,,,,,32,0,14,,,,,6,,,39,100
21120,note_on,,,,,32,0,13,,,,,5,,,51,100
21120,note_on,,,,,32,0,16,,,,,7,,,51,100
21120,note_on,,,,,64,0,10,,,,,2,,,81,50
21120,note_on,,,,,64,0,8,,,,,0,,,81,100
21184,note_off,,,,,64,0,16,,,,,7,,,51,100
21184,note_off,,,,,64,0,13,,,,,5,,,51,100
21184,note_off,,,,,64,0,14,,,,,6,,,39,100
21216,note_on,,,,,32,0,14,,,,,6,,,37,100
21216,note_on,,,,,32,0,16,,,,,7,,,49,100
21216,note_on,,,,,32,0,13,,,,,5,,,49,100
21248,note_off,,,,,128,0,10,,,,,2,,,81,100
21248,note_off,,,,,128,0,8,,,,,0,,,81,100
21280,note_off,,,,,64,0,14,,,,,6,,,37,100
21280,note_off,,,,,64,0,16,,,,,7,,,49,100
21280,note_off,,,,,64,0,13,,,,,5,,,49,100
21312,note_on,,,,,64,0,8,,,,,0,,,81,100
21312,note_on,,,,,32,0,14,,,,,6,,,35,100
21312,note_on,,,,,32,0,13,,,,,5,,,47,100
21312,note_on,,,,,320,0,15,,,,,7,,,69,100
21312,note_on,,,,,0,0,15,,,,,7,,,66,100
21312,note_on,,,,,0,0,15,,,,,7,,,63,100
21312,note_on,,,,,64,0,10,,,,,2,,,81,50
21312,note_on,,,,,320,0,11,,,,,3,,,78,50
21312,note_on,,,,,32,0,16,,,,,7,,,47,100
21312,note_on,,,,,320,0,12,,,,,4,,,75,100
21312,note_on,,,,,320,0,9,,,,,1,,,78,100
21568,note_off,,,,,256,0,12,,,,,4,,,75,100
21568,note_off,,,,,256,0,14,,,,,6,,,35,100
21568,note_off,,,,,256,0,15,,,,,7,,,69,100
21568,note_off,,,,,0,0,15,,,,,7,,,66,100
21568,note_off,,,,,256,0,9,,,,,1,,,78,100
21568,note_off,,,,,256,0,11,,,,,3,,,78,100
21568,note_off,,,,,256,0,10,,,,,2,,,81,100
21568,note_off,,,,,256,0,8,,,,,0,,,81,100
21568,note_off,,,,,256,0,16,,,,,7,,,47,100
21568,note_off,,,,,256,0,13,,,,,5,,,47,100
21568,note_off,,,,,0,0,15,,,,,7,,,63,100
21696,note_on,,,,,128,0,10,,,,,2,,,79,50
21696,note_on,,,,,128,0,16,,,,,7,,,52,100
21696,note_on,,,,,0,0,15,,,,,7,,,71,100
21696,note_on,,,,,128,0,15,,,,,7,,,67,100
21696,note_on,,,,,128,0,13,,,,,5,,,52,100
21696,note_on,,,,,128,0,14,,,,,6,,,40,100
21696,note_on,,,,,128,0,11,,,,,3,,,76,50
21696,note_on,,,,,128,0,8,,,,,0,,,79,100
21696,note_on,,,,,128,0,9,,,,,1,,,76,100
21696,note_on,,,,,128,0,12,,,,,4,,,71,100
21824,note_off,,,,,128,0,14,,,,,6,,,40,100
21824,note_off,,,,,0,0,15,,,,,7,,,71,100
21824,note_off,,,,,128,0,15,,,,,7,,,67,100
21824,note_off,,,,,128,0,13,,,,,5,,,52,100
21824,note_off,,,,,128,0,12,,,,,4,,,71,100
21824,note_off,,,,,128,0,16,,,,,7,,,52,100
21888,note_on,,,,,64,0,14,,,,,6,,,45,100
21888,note_on,,,,,64,0,16,,,,,7,,,57,100
21888,note_on,,,,,64,0,15,,,,,7,,,64,100
21888,note_on,,,,,0,0,15,,,,,7,,,67,100
21888,note_on,,,,,64,0,12,,,,,4,,,72,100
21888,note_on,,,,,64,0,13,,,,,5,,,57,100
21952,note_off,,,,,256,0,11,,,,,3,,,76,100
21952,note_off,,,,,256,0,10,,,,,2,,,79,100
21952,note_off,,,,,256,0,8,,,,,0,,,79,64
21952,note_off,,,,,256,0,9,,,,,1,,,76,64
22016,note_off,,,,,128,0,13,,,,,5,,,57,100
22016,note_off,,,,,128,0,16,,,,,7,,,57,100
22016,note_off,,,,,128,0,12,,,,,4,,,72,100
22016,note_off,,,,,128,0,15,,,,,7,,,64,100
22016,note_off,,,,,128,0,14,,,,,6,,,45,100
22016,note_off,,,,,0,0,15,,,,,7,,,67,100
22080,note_on,,,,,64,0,16,,,,,7,,,59,100
22080,note_on,,,,,128,0,9,,,,,1,,,76,100
22080,note_on,,,,,64,0,15,,,,,7,,,64,100
22080,note_on,,,,,64,0,14,,,,,6,,,47,100
22080,note_on,,,,,0,0,15,,,,,7,,,66,100
22080,note_on,,,,,128,0,11,,,,,3,,,76,50
22080,note_on,,,,,128,0,8,,,,,0,,,78,100
22080,note_on,,,,,128,0,10,,,,,2,,,78,50
22080,note_on,,,,,64,0,12,,,,,4,,,66,100
22080,note_on,,,,,64,0,13,,,,,5,,,59,100
22208,note_off,,,,,128,0,15,,,,,7,,,64,100
22208,note_off,,,,,0,0,15,,,,,7,,,66,100
22208,note_off,,,,,128,0,9,,,,,1,,,76,100
22208,note_off,,,,,128,0,12,,,,,4,,,66,100
22208,note_off,,,,,128,0,14,,,,,6,,,47,100
22208,note_off,,,,,128,0,13,,,,,5,,,59,100
22208,note_off,,,,,128,0,11,,,,,3,,,76,100
22208,note_off,,,,,128,0,16,,,,,7,,,59,100
22272,note_on,,,,,64,0,11,,,,,3,,,75,50
22272,note_on,,,,,64,0,15,,,,,7,,,63,100
22272,note_on,,,,,0,0,15,,,,,7,,,66,100
22272,note_on,,,,,64,0,14,,,,,6,,,35,100
22272,note_off,,,,,192,0,8,,,,,0,,,78,100
22272,note_off,,,,,192,0,10,,,,,2,,,78,100
22272,note_on,,,,,64,0,16,,,,,7,,,47,100
22272,note_on,,,,,64,0,12,,,,,4,,,71,100
22272,note_on,,,,,64,0,13,,,,,5,,,47,100
22272,note_on,,,,,64,0,9,,,,,1,,,75,100
22368,note_on,,,,,96,0,8,,,,,0,,,78,100
22368,note_on,,,,,96,0,10,,,,,2,,,78,50
22400,note_off,,,,,128,0,15,,,,,7,,,63,100
22400,note_off,,,,,128,0,13,,,,,5,,,47,100
22400,note_off,,,,,128,0,11,,,,,3,,,75,100
22400,note_off,,,,,0,0,15,,,,,7,,,66,100
22400,note_off,,,,,128,0,14,,,,,6,,,35,100
22400,note_off,,,,,128,0,16,,,,,7,,,47,100
22400,note_off,,,,,128,0,9,,,,,1,,,75,100
22400,note_off,,,,,128,0,12,,,,,4,,,71,100
22432,note_off,,,,,64,0,10,,,,,2,,,78,100
22432,note_off,,,,,64,0,8,,,,,0,,,78,100
22462,program_change,,,,,30,0,8,,,,,0,40,,,
22464,note_on,,,,,0,0,15,,,,,7,,,67,100
22464,note_on,,,,,0,0,15,,,,,7,,,64,100
22464,note_on,,,,,64,0,15,,,,,7,,,59,100
22464,note_on,,,,,32,0,10,,,,,2,,,76,50
22464,note_on,,,,,64,0,11,,,,,3,,,76,50
22464,note_on,,,,,64,0,16,,,,,7,,,52,100
22464,note_on,,,,,64,0,14,,,,,6,,,40,100
22464,note_on,,,,,64,0,13,,,,,5,,,52,100
22464,note_on,,,,,64,0,9,,,,,1,,,76,100
22464,note_on,,,,,2,0,8,,,,,0,,,76,100
22464,note_on,,,,,64,0,12,,,,,4,,,67,100
22528,note_off,,,,,64,0,8,,,,,0,,,76,100
22560,note_on,,,,,32,0,8,,,,,0,,,71,100
22592,note_off,,,,,128,0,16,,,,,7,,,52,100
22592,note_off,,,,,0,0,15,,,,,7,,,64,100
22592,note_off,,,,,128,0,14,,,,,6,,,40,100
22592,note_off,,,,,128,0,13,,,,,5,,,52,100
22592,note_off,,,,,0,0,15,,,,,7,,,67,100
22592,note_off,,,,,128,0,15,,,,,7,,,59,100
22624,note_off,,,,,64,0,8,,,,,0,,,71,100
22656,note_on,,,,,64,0,14,,,,,6,,,52,85
22656,note_on,,,,,32,0,8,,,,,0,,,76,100
22656,note_on,,,,,64,0,15,,,,,7,,,79,100
22656,note_on,,,,,0,0,15,,,,,7,,,71,100
22656,note_on,,,,,64,0,13,,,,,5,,,64,85
22656,note_on,,,,,64,0,16,,,,,7,,,64,100
22720,note_off,,,,,256,0,10,,,,,2,,,76,100
22720,note_off,,,,,64,0,8,,,,,0,,,76,100
22720,note_off,,,,,256,0,12,,,,,4,,,67,100
22720,note_off,,,,,256,0,11,,,,,3,,,76,100
22720,note_off,,,,,256,0,9,,,,,1,,,76,100
22752,note_on,,,,,32,0,8,,,,,0,,,79,100
22816,note_off,,,,,64,0,8,,,,,0,,,79,100
22848,note_on,,,,,32,0,8,,,,,0,,,78,100
22912,note_off,,,,,64,0,8,,,,,0,,,78,100
22912,note_off,,,,,256,0,15,,,,,7,,,79,100
22912,note_off,,,,,0,0,15,,,,,7,,,71,100
22944,note_on,,,,,32,0,8,,,,,0,,,76,100
23008,note_off,,,,,64,0,8,,,,,0,,,76,100
23038,program_change,,,,,318,0,10,,,,,2,40,,,
23040,note_on,,,,,32,0,8,,,,,0,,,78,100
23040,note_on,,,,,128,0,15,,,,,7,,,69,100
23040,note_on,,,,,0,0,15,,,,,7,,,78,100
23104,note_off,,,,,64,0,8,,,,,0,,,78,100
23136,note_on,,,,,32,0,8,,,,,0,,,71,100
23168,note_off,,,,,512,0,13,,,,,5,,,64,100
23168,note_off,,,,,512,0,14,,,,,6,,,52,100
23168,note_off,,,,,512,0,16,,,,,7,,,64,100
23168,note_off,,,,,0,0,15,,,,,7,,,78,100
23168,note_off,,,,,128,0,15,,,,,7,,,69,100
23200,note_off,,,,,64,0,8,,,,,0,,,71,100
23232,note_on,,,,,32,0,8,,,,,0,,,78,100
23232,note_on,,,,,64,0,14,,,,,6,,,51,85
23232,note_on,,,,,64,0,15,,,,,7,,,78,100
23232,note_on,,,,,64,0,13,,,,,5,,,63,85
23232,note_on,,,,,0,0,15,,,,,7,,,69,100
23232,note_on,,,,,64,0,16,,,,,7,,,63,100
23296,note_off,,,,,64,0,8,,,,,0,,,78,100
23328,note_on,,,,,32,0,8,,,,,0,,,81,100
23392,note_off,,,,,64,0,8,,,,,0,,,81,100
23424,note_on,,,,,32,0,8,,,,,0,,,79,100
23488,note_off,,,,,256,0,14,,,,,6,,,51,100
23488,note_off,,,,,256,0,15,,,,,7,,,78,100
23488,note_off,,,,,64,0,8,,,,,0,,,79,100
23488,note_off,,,,,256,0,16,,,,,7,,,63,100
23488,note_off,,,,,256,0,13,,,,,5,,,63,100
23488,note_off,,,,,0,0,15,,,,,7,,,69,100
23520,note_on,,,,,32,0,8,,,,,0,,,78,100
23584,note_off,,,,,64,0,8,,,,,0,,,78,100
23616,note_on,,,,,128,0,16,,,,,7,,,64,100
23616,note_on,,,,,128,0,14,,,,,6,,,52,85
23616,note_on,,,,,128,0,13,,,,,5,,,64,85
23616,note_on,,,,,32,0,8,,,,,0,,,79,100
23616,note_on,,,,,0,0,15,,,,,7,,,71,100
23616,note_on,,,,,128,0,15,,,,,7,,,79,100
23680,note_off,,,,,64,0,8,,,,,0,,,79,100
23712,note_on,,,,,32,0,8,,,,,0,,,71,100
23744,note_off,,,,,0,0,15,,,,,7,,,71,100
23744,note_off,,,,,128,0,16,,,,,7,,,64,100
23744,note_off,,,,,128,0,14,,,,,6,,,52,100
23744,note_off,,,,,128,0,15,,,,,7,,,79,100
23744,note_off,,,,,128,0,13,,,,,5,,,64,100
23776,note_off,,,,,64,0,8,,,,,0,,,71,100
23808,note_on,,,,,64,0,14,,,,,6,,,40,85
23808,note_on,,,,,64,0,13,,,,,5,,,52,85
23808,note_on,,,,,64,0,15,,,,,7,,,67,100
23808,note_on,,,,,0,0,15,,,,,7,,,71,100
23808,note_on,,,,,64,0,16,,,,,7,,,52,100
23808,note_on,,,,,32,0,8,,,,,0,,,79,100
23872,note_off,,,,,64,0,8,,,,,0,,,79,100
23904,note_on,,,,,32,0,8,,,,,0,,,83,100
23936,note_off,,,,,128,0,14,,,,,6,,,40,100
23936,note_off,,,,,128,0,16,,,,,7,,,52,100
23936,note_off,,,,,128,0,15,,,,,7,,,67,100
23936,note_off,,,,,0,0,15,,,,,7,,,71,100
23936,note_off,,,,,128,0,13,,,,,5,,,52,100
23968,note_off,,,,,64,0,8,,,,,0,,,83,100
24000,note_on,,,,,64,0,14,,,,,6,,,45,85
24000,note_on,,,,,64,0,16,,,,,7,,,57,100
24000,note_on,,,,,0,0,15,,,,,7,,,72,100
24000,note_on,,,,,64,0,13,,,,,5,,,57,85
24000,note_on,,,,,64,0,15,,,,,7,,,76,100
24000,note_on,,,,,32,0,8,,,,,0,,,81,100
24064,note_off,,,,,64,0,8,,,,,0,,,81,100
24096,note_on,,,,,32,0,8,,,,,0,,,79,100
24128,note_off,,,,,128,0,13,,,,,5,,,57,100
24128,note_off,,,,,0,0,15,,,,,7,,,72,100
24128,note_off,,,,,128,0,15,,,,,7,,,76,100
24128,note_off,,,,,128,0,14,,,,,6,,,45,100
24128,note_off,,,,,128,0,16,,,,,7,,,57,100
24160,note_off,,,,,64,0,8,,,,,0,,,79,100
24192,note_on,,,,,64,0,16,,,,,7,,,59,100
24192,note_on,,,,,64,0,15,,,,,7,,,66,100
24192,note_on,,,,,0,0,15,,,,,7,,,75,100
24192,note_on,,,,,64,0,13,,,,,5,,,59,85
24192,note_on,,,,,32,0,8,,,,,0,,,78,100
24192,note_on,,,,,64,0,14,,,,,6,,,47,85
24256,note_off,,,,,64,0,8,,,,,0,,,78,100
24288,note_on,,,,,32,0,8,,,,,0,,,76,100
24352,note_off,,,,,64,0,8,,,,,0,,,76,100
24384,note_off,,,,,192,0,13,,,,,5,,,59,100
24384,note_on,,,,,32,0,8,,,,,0,,,75,100
24384,note_off,,,,,192,0,16,,,,,7,,,59,100
24384,note_off,,,,,192,0,14,,,,,6,,,47,100
24448,note_off,,,,,0,0,15,,,,,7,,,75,100
24448,note_off,,,,,64,0,8,,,,,0,,,75,100
24448,note_off,,,,,256,0,15,,,,,7,,,66,100
24480,note_on,,,,,96,0,13,,,,,5,,,57,85
24480,note_on,,,,,32,0,8,,,,,0,,,73,100
24480,note_on,,,,,96,0,16,,,,,7,,,57,100
24480,note_on,,,,,96,0,14,,,,,6,,,45,85
24544,note_off,,,,,64,0,14,,,,,6,,,45,100
24544,note_off,,,,,64,0,16,,,,,7,,,57,100
24544,note_off,,,,,64,0,13,,,,,5,,,57,100
24544,note_off,,,,,64,0,8,,,,,0,,,73,100
24576,note_on,,,,,32,0,14,,,,,6,,,43,85
24576,note_on,,,,,32,0,16,,,,,7,,,55,100
24576,note_on,,,,,32,0,13,,,,,5,,,55,85
24576,note_on,,,,,32,0,8,,,,,0,,,71,100
24576,note_on,,,,,128,0,15,,,,,7,,,64,100
24576,note_on,,,,,0,0,15,,,,,7,,,71,100
24640,note_off,,,,,64,0,14,,,,,6,,,43,100
24640,note_off,,,,,64,0,16,,,,,7,,,55,100
24640,note_off,,,,,64,0,13,,,,,5,,,55,100
24672,note_on,,,,,32,0,14,,,,,6,,,42,85
24672,note_on,,,,,32,0,16,,,,,7,,,54,100
24672,note_on,,,,,32,0,13,,,,,5,,,54,85
24704,note_off,,,,,0,0,15,,,,,7,,,71,100
24704,note_off,,,,,128,0,8,,,,,0,,,71,100
24704,note_off,,,,,128,0,15,,,,,7,,,64,100
24736,note_off,,,,,64,0,16,,,,,7,,,54,100
24736,note_off,,,,,64,0,14,,,,,6,,,42,100
24736,note_off,,,,,64,0,13,,,,,5,,,54,100
24768,note_on,,,,,64,0,15,,,,,7,,,71,100
24768,note_on,,,,,32,0,16,,,,,7,,,52,100
24768,note_on,,,,,1730,0,10,,,,,2,,,76,70
24768,note_on,,,,,32,0,14,,,,,6,,,40,60
24768,note_on,,,,,0,0,15,,,,,7,,,67,100
24768,note_on,,,,,32,0,13,,,,,5,,,52,60
24832,note_off,,,,,64,0,10,,,,,2,,,76,100
24864,note_on,,,,,32,0,10,,,,,2,,,71,70
24896,note_off,,,,,128,0,13,,,,,5,,,52,100
24896,note_off,,,,,128,0,15,,,,,7,,,71,100
24896,note_off,,,,,0,0,15,,,,,7,,,67,100
24896,note_off,,,,,128,0,14,,,,,6,,,40,100
24896,note_off,,,,,128,0,16,,,,,7,,,52,100
24928,note_off,,,,,64,0,10,,,,,2,,,71,100
24960,note_on,,,,,64,0,14,,,,,6,,,52,60
24960,note_on,,,,,64,0,13,,,,,5,,,64,60
24960,note_on,,,,,0,0,15,,,,,7,,,71,100
24960,note_on,,,,,64,0,15,,,,,7,,,79,100
24960,note_on,,,,,64,0,16,,,,,7,,,64,100
24960,note_on,,,,,32,0,10,,,,,2,,,76,70
25024,note_off,,,,,64,0,10,,,,,2,,,76,100
25056,note_on,,,,,32,0,10,,,,,2,,,79,70
25120,note_off,,,,,64,0,10,,,,,2,,,79,100
25152,note_on,,,,,32,0,10,,,,,2,,,78,70
25216,note_off,,,,,64,0,10,,,,,2,,,78,100
25216,note_off,,,,,256,0,15,,,,,7,,,79,100
25216,note_off,,,,,0,0,15,,,,,7,,,71,100
25248,note_on,,,,,32,0,10,,,,,2,,,76,70
25312,note_off,,,,,64,0,10,,,,,2,,,76,100
25344,note_on,,,,,32,0,10,,,,,2,,,78,70
25344,note_on,,,,,0,0,15,,,,,7,,,78,100
25344,note_on,,,,,128,0,15,,,,,7,,,69,100
25408,note_off,,,,,64,0,10,,,,,2,,,78,100
25440,note_on,,,,,32,0,10,,,,,2,,,71,70
25472,note_off,,,,,0,0,15,,,,,7,,,78,100
25472,note_off,,,,,512,0,14,,,,,6,,,52,100
25472,note_off,,,,,128,0,15,,,,,7,,,69,100
25472,note_off,,,,,512,0,16,,,,,7,,,64,100
25472,note_off,,,,,512,0,13,,,,,5,,,64,100
25504,note_off,,,,,64,0,10,,,,,2,,,71,100
25536,note_on,,,,,64,0,13,,,,,5,,,63,60
25536,note_on,,,,,64,0,14,,,,,6,,,51,60
25536,note_on,,,,,32,0,10,,,,,2,,,78,70
25536,note_on,,,,,64,0,15,,,,,7,,,78,100
25536,note_on,,,,,0,0,15,,,,,7,,,69,100
25536,note_on,,,,,64,0,16,,,,,7,,,63,100
25600,note_off,,,,,64,0,10,,,,,2,,,78,100
25632,note_on,,,,,32,0,10,,,,,2,,,81,70
25696,note_off,,,,,64,0,10,,,,,2,,,81,100
25728,note_on,,,,,32,0,10,,,,,2,,,79,70
25792,note_off,,,,,256,0,16,,,,,7,,,63,100
25792,note_off,,,,,256,0,14,,,,,6,,,51,100
25792,note_off,,,,,64,0,10,,,,,2,,,79,100
25792,note_off,,,,,0,0,15,,,,,7,,,69,100
25792,note_off,,,,,256,0,15,,,,,7,,,78,100
25792,note_off,,,,,256,0,13,,,,,5,,,63,100
25824,note_on,,,,,32,0,10,,,,,2,,,78,70
25888,note_off,,,,,64,0,10,,,,,2,,,78,100
25920,note_on,,,,,0,0,15,,,,,7,,,71,100
25920,note_on,,,,,128,0,13,,,,,5,,,64,60
25920,note_on,,,,,128,0,15,,,,,7,,,79,100
25920,note_on,,,,,128,0,16,,,,,7,,,64,100
25920,note_on,,,,,128,0,14,,,,,6,,,52,60
25920,note_on,,,,,32,0,10,,,,,2,,,79,70
25984,note_off,,,,,64,0,10,,,,,2,,,79,100
26016,note_on,,,,,32,0,10,,,,,2,,,71,70
26048,note_off,,,,,128,0,16,,,,,7,,,64,100
26048,note_off,,,,,0,0,15,,,,,7,,,71,100
26048,note_off,,,,,128,0,13,,,,,5,,,64,100
26048,note_off,,,,,128,0,15,,,,,7,,,79,100
26048,note_off,,,,,128,0,14,,,,,6,,,52,100
26080,note_off,,,,,64,0,10,,,,,2,,,71,100
26112,note_on,,,,,64,0,14,,,,,6,,,40,60
26112,note_on,,,,,64,0,13,,,,,5,,,52,60
26112,note_on,,,,,64,0,16,,,,,7,,,52,100
26112,note_on,,,,,64,0,15,,,,,7,,,67,100
26112,note_on,,,,,0,0,15,,,,,7,,,71,100
26112,note_on,,,,,32,0,10,,,,,2,,,79,70
26176,note_off,,,,,64,0,10,,,,,2,,,79,100
26208,note_on,,,,,32,0,10,,,,,2,,,83,70
26240,note_off,,,,,128,0,15,,,,,7,,,67,100
26240,note_off,,,,,0,0,15,,,,,7,,,71,100
26240,note_off,,,,,128,0,14,,,,,6,,,40,100
26240,note_off,,,,,128,0,16,,,,,7,,,52,100
26240,note_off,,,,,128,0,13,,,,,5,,,52,100
26272,note_off,,,,,64,0,10,,,,,2,,,83,100
26304,note_on,,,,,32,0,10,,,,,2,,,81,70
26304,note_on,,,,,64,0,16,,,,,7,,,57,100
26304,note_on,,,,,64,0,14,,,,,6,,,45,60
26304,note_on,,,,,64,0,15,,,,,7,,,76,100
26304,note_on,,,,,0,0,15,,,,,7,,,72,100
26304,note_on,,,,,64,0,13,,,,,5,,,57,60
26368,note_off,,,,,64,0,10,,,,,2,,,81,100
26400,note_on,,,,,32,0,10,,,,,2,,,79,70
26432,note_off,,,,,128,0,13,,,,,5,,,57,100
26432,note_off,,,,,128,0,16,,,,,7,,,57,100
26432,note_off,,,,,128,0,14,,,,,6,,,45,100
26432,note_off,,,,,0,0,15,,,,,7,,,72,100
26432,note_off,,,,,128,0,15,,,,,7,,,76,100
26464,note_off,,,,,64,0,10,,,,,2,,,79,100
26496,note_on,,,,,64,0,15,,,,,7,,,66,100
26496,note_on,,,,,0,0,15,,,,,7,,,75,100
26496,note_on,,,,,64,0,14,,,,,6,,,47,60
26496,note_on,,,,,32,0,10,,,,,2,,,78,70
26496,note_on,,,,,64,0,13,,,,,5,,,59,60
26496,note_on,,,,,64,0,16,,,,,7,,,59,100
26560,note_off,,,,,64,0,10,,,,,2,,,78,100
26592,note_on,,,,,32,0,10,,,,,2,,,76,70
26656,note_off,,,,,64,0,10,,,,,2,,,76,100
26688,note_on,,,,,32,0,10,,,,,2,,,75,70
26688,note_off,,,,,192,0,13,,,,,5,,,59,100
26688,note_off,,,,,192,0,16,,,,,7,,,59,100
26688,note_off,,,,,192,0,14,,,,,6,,,47,100
26752,note_off,,,,,64,0,10,,,,,2,,,75,100
26752,note_off,,,,,256,0,15,,,,,7,,,66,100
26752,note_off,,,,,0,0,15,,,,,7,,,75,100
26784,note_on,,,,,32,0,10,,,,,2,,,73,70
26784,note_on,,,,,96,0,13,,,,,5,,,57,60
26784,note_on,,,,,96,0,16,,,,,7,,,57,100
26784,note_on,,,,,96,0,14,,,,,6,,,45,60
26848,note_off,,,,,64,0,13,,,,,5,,,57,100
26848,note_off,,,,,64,0,10,,,,,2,,,73,100
26848,note_off,,,,,64,0,14,,,,,6,,,45,100
26848,note_off,,,,,64,0,16,,,,,7,,,57,100
26880,note_on,,,,,32,0,13,,,,,5,,,55,60
26880,note_on,,,,,128,0,15,,,,,7,,,64,100
26880,note_on,,,,,0,0,15,,,,,7,,,71,100
26880,note_on,,,,,32,0,16,,,,,7,,,55,100
26880,note_on,,,,,32,0,14,,,,,6,,,43,60
26880,note_on,,,,,32,0,10,,,,,2,,,71,70
26944,note_off,,,,,64,0,16,,,,,7,,,55,100
26944,note_off,,,,,64,0,14,,,,,6,,,43,100
26944,note_off,,,,,64,0,13,,,,,5,,,55,100
26976,note_on,,,,,32,0,13,,,,,5,,,54,60
26976,note_on,,,,,32,0,14,,,,,6,,,42,60
26976,note_on,,,,,32,0,16,,,,,7,,,54,100
27008,note_off,,,,,128,0,10,,,,,2,,,71,100
27008,note_off,,,,,128,0,15,,,,,7,,,64,100
27008,note_off,,,,,0,0,15,,,,,7,,,71,100
27040,note_off,,,,,64,0,16,,,,,7,,,54,100
27040,note_off,,,,,64,0,14,,,,,6,,,42,100
27040,note_off,,,,,64,0,13,,,,,5,,,54,100
27072,note_on,,,,,64,0,15,,,,,7,,,67,100
27072,note_on,,,,,0,0,15,,,,,7,,,71,100
27072,note_on,,,,,32,0,14,,,,,6,,,40,85
27072,note_on,,,,,32,0,16,,,,,7,,,52,100
27072,note_on,,,,,32,0,13,,,,,5,,,52,85
27168,note_on,,,,,2464,0,8,,,,,0,,,79,100
27200,note_off,,,,,0,0,15,,,,,7,,,71,100
27200,note_off,,,,,128,0,14,,,,,6,,,40,100
27200,note_off,,,,,128,0,15,,,,,7,,,67,100
27200,note_off,,,,,128,0,13,,,,,5,,,52,100
27200,note_off,,,,,128,0,16,,,,,7,,,52,100
27232,note_off,,,,,64,0,8,,,,,0,,,79,100
27264,note_on,,,,,32,0,8,,,,,0,,,79,100
27264,note_on,,,,,64,0,16,,,,,7,,,40,100
27264,note_on,,,,,64,0,14,,,,,6,,,40,85
27264,note_on,,,,,64,0,13,,,,,5,,,40,85
27264,note_on,,,,,64,0,15,,,,,7,,,59,100
27264,note_on,,,,,0,0,15,,,,,7,,,67,100
27328,note_off,,,,,64,0,8,,,,,0,,,79,100
27360,note_on,,,,,32,0,8,,,,,0,,,81,100
27392,note_off,,,,,0,0,15,,,,,7,,,67,100
27392,note_off,,,,,128,0,14,,,,,6,,,40,100
27392,note_off,,,,,128,0,16,,,,,7,,,40,100
27392,note_off,,,,,128,0,13,,,,,5,,,40,100
27392,note_off,,,,,128,0,15,,,,,7,,,59,100
27424,note_off,,,,,64,0,8,,,,,0,,,81,100
27456,note_on,,,,,32,0,8,,,,,0,,,83,100
27456,note_on,,,,,64,0,16,,,,,7,,,52,100
27456,note_on,,,,,0,0,15,,,,,7,,,67,100
27456,note_on,,,,,64,0,13,,,,,5,,,52,85
27456,note_on,,,,,64,0,14,,,,,6,,,40,85
27456,note_on,,,,,64,0,15,,,,,7,,,71,100
27520,note_off,,,,,64,0,8,,,,,0,,,83,100
27552,note_on,,,,,32,0,8,,,,,0,,,79,100
27584,note_off,,,,,128,0,15,,,,,7,,,71,100
27584,note_off,,,,,128,0,13,,,,,5,,,52,100
27584,note_off,,,,,128,0,16,,,,,7,,,52,100
27584,note_off,,,,,0,0,15,,,,,7,,,67,100
27584,note_off,,,,,128,0,14,,,,,6,,,40,100
27616,note_off,,,,,64,0,8,,,,,0,,,79,100
27648,note_on,,,,,64,0,16,,,,,7,,,45,100
27648,note_on,,,,,0,0,15,,,,,7,,,64,100
27648,note_on,,,,,64,0,13,,,,,5,,,45,85
27648,note_on,,,,,64,0,14,,,,,6,,,33,85
27648,note_on,,,,,64,0,15,,,,,7,,,60,100
27648,note_on,,,,,32,0,8,,,,,0,,,84,100
27712,note_off,,,,,64,0,8,,,,,0,,,84,100
27744,note_on,,,,,32,0,8,,,,,0,,,76,100
27808,note_off,,,,,64,0,8,,,,,0,,,76,100
27840,note_on,,,,,32,0,8,,,,,0,,,76,100
27904,note_off,,,,,256,0,16,,,,,7,,,45,100
27904,note_off,,,,,256,0,14,,,,,6,,,33,100
27904,note_off,,,,,256,0,13,,,,,5,,,45,100
27904,note_off,,,,,0,0,15,,,,,7,,,64,100
27904,note_off,,,,,64,0,8,,,,,0,,,76,100
27904,note_off,,,,,256,0,15,,,,,7,,,60,100
27936,note_on,,,,,32,0,8,,,,,0,,,78,100
28000,note_off,,,,,64,0,8,,,,,0,,,78,100
28032,note_on,,,,,32,0,8,,,,,0,,,79,100
28096,note_off,,,,,64,0,8,,,,,0,,,79,100
28128,note_on,,,,,32,0,8,,,,,0,,,81,100
28192,note_off,,,,,64,0,8,,,,,0,,,81,100
28224,note_on,,,,,0,0,15,,,,,7,,,72,100
28224,note_on,,,,,320,0,15,,,,,7,,,69,100
28224,note_on,,,,,32,0,8,,,,,0,,,78,100
28224,note_on,,,,,320,0,16,,,,,7,,,62,100
28224,note_on,,,,,320,0,13,,,,,5,,,62,85
28224,note_on,,,,,320,0,14,,,,,6,,,50,85
28316,note_off,,,,,92,0,8,,,,,0,,,78,100
28320,note_on,,,,,4,0,8,,,,,0,,,79,100
28352,note_off,,,,,128,0,13,,,,,5,,,62,100
28352,note_off,,,,,128,0,15,,,,,7,,,69,100
28352,note_off,,,,,0,0,15,,,,,7,,,72,100
28352,note_off,,,,,128,0,14,,,,,6,,,50,100
28352,note_off,,,,,128,0,16,,,,,7,,,62,100
28412,note_off,,,,,92,0,8,,,,,0,,,79,100
28416,note_on,,,,,64,0,13,,,,,5,,,50,85
28416,note_on,,,,,64,0,14,,,,,6,,,38,85
28416,note_on,,,,,4,0,8,,,,,0,,,81,100
28416,note_on,,,,,64,0,16,,,,,7,,,50,100
28416,note_on,,,,,64,0,15,,,,,7,,,66,100
28416,note_on,,,,,0,0,15,,,,,7,,,69,100
28480,note_off,,,,,64,0,8,,,,,0,,,81,100
28512,note_on,,,,,32,0,8,,,,,0,,,79,100
28544,note_off,,,,,128,0,13,,,,,5,,,50,100
28544,note_off,,,,,128,0,14,,,,,6,,,38,100
28544,note_off,,,,,128,0,16,,,,,7,,,50,100
28544,note_off,,,,,0,0,15,,,,,7,,,69,100
28544,note_off,,,,,128,0,15,,,,,7,,,66,100
28576,note_off,,,,,64,0,8,,,,,0,,,79,100
28608,note_on,,,,,64,0,14,,,,,6,,,50,85
28608,note_on,,,,,32,0,8,,,,,0,,,81,100
28608,note_on,,,,,0,0,15,,,,,7,,,72,100
28608,note_on,,,,,64,0,15,,,,,7,,,69,100
28608,note_on,,,,,64,0,13,,,,,5,,,62,85
28608,note_on,,,,,64,0,16,,,,,7,,,62,100
28672,note_off,,,,,64,0,8,,,,,0,,,81,100
28704,note_on,,,,,32,0,8,,,,,0,,,78,100
28736,note_off,,,,,128,0,16,,,,,7,,,62,100
28736,note_off,,,,,0,0,15,,,,,7,,,72,100
28736,note_off,,,,,128,0,15,,,,,7,,,69,100
28736,note_off,,,,,128,0,14,,,,,6,,,50,100
28736,note_off,,,,,128,0,13,,,,,5,,,62,100
28768,note_off,,,,,64,0,8,,,,,0,,,78,100
28800,note_on,,,,,64,0,15,,,,,7,,,62,100
28800,note_on,,,,,64,0,13,,,,,5,,,55,85
28800,note_on,,,,,32,0,8,,,,,0,,,83,100
28800,note_on,,,,,64,0,14,,,,,6,,,43,85
28800,note_on,,,,,64,0,16,,,,,7,,,55,100
28800,note_on,,,,,0,0,15,,,,,7,,,66,100
28864,note_off,,,,,64,0,8,,,,,0,,,83,100
28896,note_on,,,,,32,0,8,,,,,0,,,74,100
28960,note_off,,,,,64,0,8,,,,,0,,,74,100
28992,note_on,,,,,32,0,8,,,,,0,,,74,100
29056,note_off,,,,,64,0,8,,,,,0,,,74,100
29056,note_off,,,,,256,0,16,,,,,7,,,55,100
29056,note_off,,,,,256,0,14,,,,,6,,,43,100
29056,note_off,,,,,0,0,15,,,,,7,,,66,100
29056,note_off,,,,,256,0,15,,,,,7,,,62,100
29056,note_off,,,,,256,0,13,,,,,5,,,55,100
29088,note_on,,,,,32,0,8,,,,,0,,,76,100
29152,note_off,,,,,64,0,8,,,,,0,,,76,100
29184,note_on,,,,,32,0,8,,,,,0,,,78,100
29248,note_off,,,,,64,0,8,,,,,0,,,78,100
29280,note_on,,,,,32,0,8,,,,,0,,,79,100
29344,note_off,,,,,64,0,8,,,,,0,,,79,100
29376,note_on,,,,,320,0,13,,,,,5,,,60,85
29376,note_on,,,,,320,0,14,,,,,6,,,48,85
29376,note_on,,,,,320,0,15,,,,,7,,,67,100
29376,note_on,,,,,320,0,16,,,,,7,,,60,100
29376,note_on,,,,,0,0,15,,,,,7,,,71,100
29376,note_on,,,,,32,0,8,,,,,0,,,76,100
29468,note_off,,,,,92,0,8,,,,,0,,,76,100
29472,note_on,,,,,4,0,8,,,,,0,,,78,100
29504,note_off,,,,,0,0,15,,,,,7,,,71,100
29504,note_off,,,,,128,0,14,,,,,6,,,48,100
29504,note_off,,,,,128,0,16,,,,,7,,,60,100
29504,note_off,,,,,128,0,13,,,,,5,,,60,100
29504,note_off,,,,,128,0,15,,,,,7,,,67,100
29564,note_off,,,,,92,0,8,,,,,0,,,78,100
29568,note_on,,,,,64,0,13,,,,,5,,,48,85
29568,note_on,,,,,64,0,14,,,,,6,,,36,85
29568,note_on,,,,,4,0,8,,,,,0,,,79,100
29568,note_on,,,,,64,0,16,,,,,7,,,48,100
29568,note_on,,,,,0,0,15,,,,,7,,,67,100
29568,note_on,,,,,64,0,15,,,,,7,,,64,100
29632,note_off,,,,,64,0,8,,,,,0,,,79,100
29664,note_on,,,,,32,0,8,,,,,0,,,78,100
29696,note_off,,,,,0,0,15,,,,,7,,,67,100
29696,note_off,,,,,128,0,14,,,,,6,,,36,100
29696,note_off,,,,,128,0,15,,,,,7,,,64,100
29696,note_off,,,,,128,0,16,,,,,7,,,48,100
29696,note_off,,,,,128,0,13,,,,,5,,,48,100
29728,note_off,,,,,64,0,8,,,,,0,,,78,100
29760,note_on,,,,,64,0,16,,,,,7,,,60,100
29760,note_on,,,,,64,0,14,,,,,6,,,48,85
29760,note_on,,,,,64,0,13,,,,,5,,,60,85
29760,note_on,,,,,32,0,8,,,,,0,,,79,100
29760,note_on,,,,,0,0,15,,,,,7,,,71,100
29760,note_on,,,,,64,0,15,,,,,7,,,67,100
29824,note_off,,,,,64,0,8,,,,,0,,,79,100
29856,note_on,,,,,32,0,8,,,,,0,,,76,100
29888,note_off,,,,,128,0,13,,,,,5,,,60,100
29888,note_off,,,,,128,0,15,,,,,7,,,67,100
29888,note_off,,,,,0,0,15,,,,,7,,,71,100
29888,note_off,,,,,128,0,14,,,,,6,,,48,100
29888,note_off,,,,,128,0,16,,,,,7,,,60,100
29920,note_off,,,,,64,0,8,,,,,0,,,76,100
29952,note_on,,,,,64,0,14,,,,,6,,,42,85
29952,note_on,,,,,64,0,16,,,,,7,,,54,100
29952,note_on,,,,,64,0,13,,,,,5,,,54,85
29952,note_on,,,,,0,0,15,,,,,7,,,69,100
29952,note_on,,,,,64,0,15,,,,,7,,,60,100
29952,note_on,,,,,32,0,8,,,,,0,,,81,100
30016,note_off,,,,,64,0,8,,,,,0,,,81,100
30048,note_on,,,,,32,0,8,,,,,0,,,72,100
30112,note_off,,,,,64,0,8,,,,,0,,,72,100
30144,note_on,,,,,32,0,8,,,,,0,,,72,100
30208,note_off,,,,,0,0,15,,,,,7,,,69,100
30208,note_off,,,,,256,0,15,,,,,7,,,60,100
30208,note_off,,,,,256,0,14,,,,,6,,,42,100
30208,note_off,,,,,256,0,13,,,,,5,,,54,100
30208,note_off,,,,,256,0,16,,,,,7,,,54,100
30208,note_off,,,,,64,0,8,,,,,0,,,72,100
30240,note_on,,,,,32,0,8,,,,,0,,,74,100
30304,note_off,,,,,64,0,8,,,,,0,,,74,100
30336,note_on,,,,,32,0,8,,,,,0,,,76,100
30400,note_off,,,,,64,0,8,,,,,0,,,76,100
30432,note_on,,,,,32,0,8,,,,,0,,,78,100
30496,note_off,,,,,64,0,8,,,,,0,,,78,100
30528,note_on,,,,,0,0,15,,,,,7,,,71,100
30528,note_on,,,,,320,0,15,,,,,7,,,62,100
30528,note_on,,,,,32,0,8,,,,,0,,,74,100
30528,note_on,,,,,320,0,16,,,,,7,,,59,100
30528,note_on,,,,,320,0,13,,,,,5,,,59,85
30528,note_on,,,,,320,0,14,,,,,6,,,47,85
30592,note_off,,,,,64,0,8,,,,,0,,,74,100
30624,note_on,,,,,32,0,8,,,,,0,,,79,100
30656,note_off,,,,,128,0,14,,,,,6,,,47,100
30656,note_off,,,,,0,0,15,,,,,7,,,71,100
30656,note_off,,,,,128,0,13,,,,,5,,,59,100
30656,note_off,,,,,128,0,16,,,,,7,,,59,100
30656,note_off,,,,,128,0,15,,,,,7,,,62,100
30688,note_off,,,,,64,0,8,,,,,0,,,79,100
30720,note_on,,,,,64,0,16,,,,,7,,,47,100
30720,note_on,,,,,64,0,13,,,,,5,,,47,85
30720,note_on,,,,,32,0,8,,,,,0,,,79,100
30720,note_on,,,,,64,0,15,,,,,7,,,62,100
30720,note_on,,,,,0,0,15,,,,,7,,,66,100
30720,note_on,,,,,64,0,14,,,,,6,,,35,85
30812,note_off,,,,,92,0,8,,,,,0,,,79,100
30816,note_on,,,,,4,0,8,,,,,0,,,71,100
30848,note_off,,,,,128,0,16,,,,,7,,,47,100
30848,note_off,,,,,128,0,13,,,,,5,,,47,100
30848,note_off,,,,,128,0,14,,,,,6,,,35,100
30848,note_off,,,,,0,0,15,,,,,7,,,66,100
30848,note_off,,,,,128,0,15,,,,,7,,,62,100
30880,note_off,,,,,64,0,8,,,,,0,,,71,100
30912,note_on,,,,,64,0,14,,,,,6,,,43,85
30912,note_on,,,,,64,0,15,,,,,7,,,59,100
30912,note_on,,,,,64,0,16,,,,,7,,,43,100
30912,note_on,,,,,0,0,15,,,,,7,,,62,100
30912,note_on,,,,,32,0,8,,,,,0,,,71,100
30912,note_on,,,,,64,0,13,,,,,5,,,43,85
31004,note_off,,,,,92,0,8,,,,,0,,,71,100
31008,note_on,,,,,4,0,8,,,,,0,,,72,100
31040,note_off,,,,,128,0,14,,,,,6,,,43,100
31040,note_off,,,,,128,0,15,,,,,7,,,59,100
31040,note_off,,,,,128,0,13,,,,,5,,,43,100
31040,note_off,,,,,128,0,16,,,,,7,,,43,100
31040,note_off,,,,,0,0,15,,,,,7,,,62,100
31072,note_off,,,,,64,0,8,,,,,0,,,72,100
31104,note_on,,,,,64,0,13,,,,,5,,,45,85
31104,note_on,,,,,32,0,8,,,,,0,,,72,100
31104,note_on,,,,,64,0,14,,,,,6,,,45,85
31104,note_on,,,,,64,0,16,,,,,7,,,45,100
31104,note_on,,,,,64,0,15,,,,,7,,,64,100
31104,note_on,,,,,0,0,15,,,,,7,,,60,100
31168,note_off,,,,,64,0,8,,,,,0,,,72,100
31200,note_on,,,,,32,0,8,,,,,0,,,81,100
31232,note_off,,,,,0,0,15,,,,,7,,,60,100
31232,note_off,,,,,128,0,13,,,,,5,,,45,100
31232,note_off,,,,,128,0,14,,,,,6,,,45,100
31232,note_off,,,,,128,0,16,,,,,7,,,45,100
31232,note_off,,,,,128,0,15,,,,,7,,,64,100
31264,note_off,,,,,64,0,8,,,,,0,,,81,100
31296,note_on,,,,,64,0,15,,,,,7,,,74,100
31296,note_on,,,,,0,0,15,,,,,7,,,72,100
31296,note_on,,,,,64,0,14,,,,,6,,,42,85
31296,note_on,,,,,64,0,16,,,,,7,,,54,100
31296,note_on,,,,,32,0,8,,,,,0,,,81,100
31296,note_on,,,,,64,0,13,,,,,5,,,54,85
31388,note_off,,,,,92,0,8,,,,,0,,,81,100
31392,note_on,,,,,4,0,8,,,,,0,,,72,100
31424,note_off,,,,,0,0,15,,,,,7,,,72,100
31424,note_off,,,,,128,0,15,,,,,7,,,74,100
31424,note_off,,,,,128,0,14,,,,,6,,,42,100
31424,note_off,,,,,128,0,16,,,,,7,,,54,100
31424,note_off,,,,,128,0,13,,,,,5,,,54,100
31456,note_off,,,,,64,0,8,,,,,0,,,72,100
31488,note_on,,,,,64,0,15,,,,,7,,,69,100
31488,note_on,,,,,64,0,16,,,,,7,,,50,100
31488,note_on,,,,,64,0,13,,,,,5,,,50,85
31488,note_on,,,,,64,0,14,,,,,6,,,38,85
31488,note_on,,,,,32,0,8,,,,,0,,,72,100
31488,note_on,,,,,0,0,15,,,,,7,,,72,100
31580,note_off,,,,,92,0,8,,,,,0,,,72,100
31584,note_on,,,,,4,0,8,,,,,0,,,71,100
31616,note_off,,,,,128,0,13,,,,,5,,,50,100
31616,note_off,,,,,128,0,14,,,,,6,,,38,100
31616,note_off,,,,,0,0,15,,,,,7,,,72,100
31616,note_off,,,,,128,0,15,,,,,7,,,69,100
31616,note_off,,,,,128,0,16,,,,,7,,,50,100
31648,note_off,,,,,64,0,8,,,,,0,,,71,100
31680,note_on,,,,,64,0,14,,,,,6,,,43,85
31680,note_on,,,,,64,0,15,,,,,7,,,74,100
31680,note_on,,,,,32,0,8,,,,,0,,,71,100
31680,note_on,,,,,0,0,15,,,,,7,,,71,100
31680,note_on,,,,,64,0,16,,,,,7,,,55,100
31680,note_on,,,,,64,0,13,,,,,5,,,55,85
31772,note_off,,,,,92,0,8,,,,,0,,,71,100
31776,note_on,,,,,4,0,8,,,,,0,,,67,100
31808,note_off,,,,,128,0,14,,,,,6,,,43,100
31808,note_off,,,,,0,0,15,,,,,7,,,71,100
31808,note_off,,,,,128,0,16,,,,,7,,,55,100
31808,note_off,,,,,128,0,15,,,,,7,,,74,100
31808,note_off,,,,,128,0,13,,,,,5,,,55,100
31840,note_off,,,,,64,0,8,,,,,0,,,67,100
31872,note_on,,,,,64,0,14,,,,,6,,,43,85
31872,note_on,,,,,32,0,8,,,,,0,,,67,100
31872,note_on,,,,,0,0,15,,,,,7,,,71,100
31872,note_on,,,,,64,0,13,,,,,5,,,43,85
31872,note_on,,,,,64,0,16,,,,,7,,,43,100
31872,note_on,,,,,64,0,15,,,,,7,,,62,100
31964,note_off,,,,,92,0,8,,,,,0,,,67,100
31968,note_on,,,,,4,0,8,,,,,0,,,71,100
32000,note_off,,,,,128,0,16,,,,,7,,,43,100
32000,note_off,,,,,128,0,14,,,,,6,,,43,100
32000,note_off,,,,,128,0,13,,,,,5,,,43,100
32000,note_off,,,,,128,0,15,,,,,7,,,62,100
32000,note_off,,,,,0,0,15,,,,,7,,,71,100
32032,note_off,,,,,64,0,8,,,,,0,,,71,100
32064,note_on,,,,,64,0,15,,,,,7,,,74,100
32064,note_on,,,,,64,0,16,,,,,7,,,55,100
32064,note_on,,,,,64,0,13,,,,,5,,,55,85
32064,note_on,,,,,32,0,8,,,,,0,,,71,100
32064,note_on,,,,,64,0,14,,,,,6,,,43,85
32064,note_on,,,,,0,0,15,,,,,7,,,71,100
32156,note_off,,,,,92,0,8,,,,,0,,,71,100
32160,note_on,,,,,4,0,8,,,,,0,,,76,100
32192,note_off,,,,,128,0,16,,,,,7,,,55,100
32192,note_off,,,,,0,0,15,,,,,7,,,71,100
32192,note_off,,,,,128,0,15,,,,,7,,,74,100
32192,note_off,,,,,128,0,13,,,,,5,,,55,100
32192,note_off,,,,,128,0,14,,,,,6,,,43,100
32224,note_off,,,,,64,0,8,,,,,0,,,76,100
32256,note_on,,,,,64,0,14,,,,,6,,,43,85
32256,note_on,,,,,32,0,8,,,,,0,,,76,100
32256,note_on,,,,,64,0,15,,,,,7,,,76,100
32256,note_on,,,,,64,0,16,,,,,7,,,55,100
32256,note_on,,,,,64,0,13,,,,,5,,,55,85
32256,note_on,,,,,0,0,15,,,,,7,,,71,100
32348,note_off,,,,,92,0,8,,,,,0,,,76,100
32352,note_on,,,,,4,0,8,,,,,0,,,71,100
32384,note_off,,,,,128,0,16,,,,,7,,,55,100
32384,note_off,,,,,0,0,15,,,,,7,,,71,100
32384,note_off,,,,,128,0,14,,,,,6,,,43,100
32384,note_off,,,,,128,0,15,,,,,7,,,76,100
32384,note_off,,,,,128,0,13,,,,,5,,,55,100
32416,note_off,,,,,64,0,8,,,,,0,,,71,100
32448,note_on,,,,,64,0,16,,,,,7,,,43,100
32448,note_on,,,,,64,0,15,,,,,7,,,64,100
32448,note_on,,,,,64,0,14,,,,,6,,,43,85
32448,note_on,,,,,32,0,8,,,,,0,,,71,100
32448,note_on,,,,,0,0,15,,,,,7,,,71,100
32448,note_on,,,,,64,0,13,,,,,5,,,43,85
32540,note_off,,,,,92,0,8,,,,,0,,,71,100
32544,note_on,,,,,4,0,8,,,,,0,,,79,100
32576,note_off,,,,,128,0,15,,,,,7,,,64,100
32576,note_off,,,,,128,0,14,,,,,6,,,43,100
32576,note_off,,,,,0,0,15,,,,,7,,,71,100
32576,note_off,,,,,128,0,13,,,,,5,,,43,100
32576,note_off,,,,,128,0,16,,,,,7,,,43,100
32608,note_off,,,,,64,0,8,,,,,0,,,79,100
32640,note_on,,,,,32,0,8,,,,,0,,,79,100
32640,note_on,,,,,64,0,14,,,,,6,,,43,85
32640,note_on,,,,,0,0,15,,,,,7,,,71,100
32640,note_on,,,,,64,0,13,,,,,5,,,55,85
32640,note_on,,,,,64,0,15,,,,,7,,,76,100
32640,note_on,,,,,64,0,16,,,,,7,,,55,100
32732,note_off,,,,,92,0,8,,,,,0,,,79,100
32736,note_on,,,,,4,0,8,,,,,0,,,70,100
32768,note_off,,,,,128,0,13,,,,,5,,,55,100
32768,note_off,,,,,128,0,15,,,,,7,,,76,100
32768,note_off,,,,,128,0,16,,,,,7,,,55,100
32768,note_off,,,,,128,0,14,,,,,6,,,43,100
32768,note_off,,,,,0,0,15,,,,,7,,,71,100
32800,note_off,,,,,64,0,8,,,,,0,,,70,100
32832,note_on,,,,,64,0,14,,,,,6,,,42,85
32832,note_on,,,,,0,0,15,,,,,7,,,73,100
32832,note_on,,,,,64,0,15,,,,,7,,,70,100
32832,note_on,,,,,64,0,16,,,,,7,,,54,100
32832,note_on,,,,,32,0,8,,,,,0,,,70,100
32832,note_on,,,,,64,0,13,,,,,5,,,54,85
32924,note_off,,,,,92,0,8,,,,,0,,,70,100
32928,note_on,,,,,4,0,8,,,,,0,,,66,100
32992,note_off,,,,,64,0,8,,,,,0,,,66,100
33024,note_on,,,,,32,0,8,,,,,0,,,66,100
33088,note_off,,,,,256,0,16,,,,,7,,,54,100
33088,note_off,,,,,256,0,14,,,,,6,,,42,100
33088,note_off,,,,,256,0,15,,,,,7,,,70,100
33088,note_off,,,,,0,0,15,,,,,7,,,73,100
33088,note_off,,,,,256,0,13,,,,,5,,,54,100
33116,note_off,,,,,92,0,8,,,,,0,,,66,100
33120,note_on,,,,,4,0,8,,,,,0,,,73,100
33184,note_off,,,,,64,0,8,,,,,0,,,73,100
33216,note_on,,,,,32,0,8,,,,,0,,,73,100
33308,note_off,,,,,92,0,8,,,,,0,,,73,100
33312,note_on,,,,,4,0,8,,,,,0,,,70,100
33376,note_off,,,,,64,0,8,,,,,0,,,70,100
33408,note_on,,,,,320,0,15,,,,,7,,,76,100
33408,note_on,,,,,0,0,15,,,,,7,,,70,100
33408,note_on,,,,,320,0,14,,,,,6,,,42,85
33408,note_on,,,,,320,0,13,,,,,5,,,54,85
33408,note_on,,,,,320,0,16,,,,,7,,,54,100
33408,note_on,,,,,32,0,8,,,,,0,,,76,100
33500,note_off,,,,,92,0,8,,,,,0,,,76,100
33504,note_on,,,,,4,0,8,,,,,0,,,73,100
33568,note_off,,,,,64,0,8,,,,,0,,,73,100
33600,note_on,,,,,32,0,8,,,,,0,,,73,100
33664,note_off,,,,,256,0,13,,,,,5,,,54,100
33664,note_off,,,,,256,0,14,,,,,6,,,42,100
33664,note_off,,,,,0,0,15,,,,,7,,,70,100
33664,note_off,,,,,256,0,15,,,,,7,,,76,100
33664,note_off,,,,,256,0,16,,,,,7,,,54,100
33692,note_off,,,,,92,0,8,,,,,0,,,73,100
33696,note_on,,,,,4,0,8,,,,,0,,,79,100
33760,note_off,,,,,64,0,8,,,,,0,,,79,100
33792,note_on,,,,,32,0,8,,,,,0,,,79,100
33884,note_off,,,,,92,0,8,,,,,0,,,79,100
33888,note_on,,,,,4,0,8,,,,,0,,,76,100
33952,note_off,,,,,64,0,8,,,,,0,,,76,100
33984,note_on,,,,,320,0,15,,,,,7,,,70,100
33984,note_on,,,,,0,0,15,,,,,7,,,73,100
33984,note_on,,,,,320,0,14,,,,,6,,,42,85
33984,note_on,,,,,32,0,8,,,,,0,,,82,100
33984,note_on,,,,,320,0,13,,,,,5,,,54,85
33984,note_on,,,,,320,0,16,,,,,7,,,54,100
34076,note_off,,,,,92,0,8,,,,,0,,,82,100
34080,note_on,,,,,4,0,8,,,,,0,,,78,100
34144,note_off,,,,,64,0,8,,,,,0,,,78,100
34176,note_on,,,,,32,0,8,,,,,0,,,78,100
34240,note_off,,,,,256,0,14,,,,,6,,,42,100
34240,note_off,,,,,256,0,13,,,,,5,,,54,100
34240,note_off,,,,,256,0,16,,,,,7,,,54,100
34240,note_off,,,,,256,0,15,,,,,7,,,70,100
34240,note_off,,,,,0,0,15,,,,,7,,,73,100
34268,note_off,,,,,92,0,8,,,,,0,,,78,100
34272,note_on,,,,,4,0,8,,,,,0,,,82,100
34336,note_off,,,,,64,0,8,,,,,0,,,82,100
34368,note_on,,,,,128,0,13,,,,,5,,,52,85
34368,note_on,,,,,128,0,14,,,,,6,,,40,85
34368,note_on,,,,,32,0,8,,,,,0,,,82,100
34368,note_on,,,,,128,0,16,,,,,7,,,52,100
34368,note_on,,,,,0,0,15,,,,,7,,,66,100
34368,note_on,,,,,128,0,15,,,,,7,,,70,100
34460,note_off,,,,,92,0,8,,,,,0,,,82,100
34464,note_on,,,,,4,0,8,,,,,0,,,83,100
34496,note_off,,,,,128,0,15,,,,,7,,,70,100
34496,note_off,,,,,0,0,15,,,,,7,,,66,100
34496,note_off,,,,,128,0,13,,,,,5,,,52,100
34496,note_off,,,,,128,0,14,,,,,6,,,40,100
34496,note_off,,,,,128,0,16,,,,,7,,,52,100
34528,note_off,,,,,64,0,8,,,,,0,,,83,100
34560,note_on,,,,,64,0,14,,,,,6,,,38,85
34560,note_on,,,,,64,0,16,,,,,7,,,50,100
34560,note_on,,,,,0,0,15,,,,,7,,,66,100
34560,program_change,,,,,7552,0,10,,,,,2,48,,,
34560,note_on,,,,,64,0,15,,,,,7,,,71,100
34560,note_on,,,,,32,0,8,,,,,0,,,83,100
34560,note_on,,,,,64,0,13,,,,,5,,,50,85
34624,note_off,,,,,64,0,16,,,,,7,,,50,100
34624,note_off,,,,,64,0,14,,,,,6,,,38,100
34624,note_off,,,,,64,0,8,,,,,0,,,83,100
34624,note_off,,,,,64,0,13,,,,,5,,,50,100
34656,note_on,,,,,32,0,14,,,,,6,,,40,85
34656,note_on,,,,,32,0,16,,,,,7,,,52,100
34656,note_on,,,,,32,0,8,,,,,0,,,74,100
34656,note_on,,,,,32,0,13,,,,,5,,,52,85
34688,note_off,,,,,128,0,15,,,,,7,,,71,100
34688,note_off,,,,,0,0,15,,,,,7,,,66,100
34720,note_off,,,,,64,0,13,,,,,5,,,52,100
34720,note_off,,,,,64,0,8,,,,,0,,,74,100
34720,note_off,,,,,64,0,16,,,,,7,,,52,100
34720,note_off,,,,,64,0,14,,,,,6,,,40,100
34752,note_on,,,,,0,0,15,,,,,7,,,74,100
34752,note_on,,,,,32,0,16,,,,,7,,,54,100
34752,note_on,,,,,64,0,15,,,,,7,,,71,100
34752,note_on,,,,,32,0,14,,,,,6,,,42,85
34752,note_on,,,,,32,0,13,,,,,5,,,54,85
34752,note_on,,,,,32,0,8,,,,,0,,,73,100
34796,note_off,,,,,44,0,8,,,,,0,,,73,100
34800,note_on,,,,,4,0,8,,,,,0,,,74,100
34844,note_off,,,,,44,0,8,,,,,0,,,74,100
34848,note_on,,,,,4,0,8,,,,,0,,,73,100
34880,note_off,,,,,128,0,14,,,,,6,,,42,100
34880,note_off,,,,,0,0,15,,,,,7,,,74,100
34880,note_off,,,,,128,0,15,,,,,7,,,71,100
34880,note_off,,,,,128,0,16,,,,,7,,,54,100
34880,note_off,,,,,128,0,13,,,,,5,,,54,100
34892,note_off,,,,,44,0,8,,,,,0,,,73,100
34896,note_on,,,,,4,0,8,,,,,0,,,74,100
34940,note_off,,,,,44,0,8,,,,,0,,,74,100
34944,note_on,,,,,64,0,14,,,,,6,,,42,85
34944,note_on,,,,,64,0,13,,,,,5,,,42,85
34944,note_on,,,,,64,0,16,,,,,7,,,42,100
34944,note_on,,,,,4,0,8,,,,,0,,,73,100
34944,note_on,,,,,0,0,15,,,,,7,,,70,100
34944,note_on,,,,,64,0,15,,,,,7,,,73,100
35008,note_off,,,,,64,0,8,,,,,0,,,73,100
35040,note_on,,,,,32,0,8,,,,,0,,,71,100
35072,note_off,,,,,128,0,15,,,,,7,,,73,100
35072,note_off,,,,,0,0,15,,,,,7,,,70,100
35072,note_off,,,,,128,0,14,,,,,6,,,42,100
35072,note_off,,,,,128,0,13,,,,,5,,,42,100
35072,note_off,,,,,128,0,16,,,,,7,,,42,100
35104,note_off,,,,,64,0,8,,,,,0,,,71,100
35136,note_on,,,,,64,0,16,,,,,7,,,59,100
35136,note_on,,,,,32,0,8,,,,,0,,,71,85
35136,note_on,,,,,64,0,14,,,,,6,,,47,85
35136,note_on,,,,,12416,0,12,,,,,4,,,66,85
35136,note_on,,,,,0,0,15,,,,,7,,,66,100
35136,note_on,,,,,0,0,15,,,,,7,,,74,100
35136,note_on,,,,,64,0,15,,,,,7,,,71,100
35136,note_on,,,,,12416,0,9,,,,,1,,,71,85
35136,note_on,,,,,576,0,10,,,,,2,,,74,35
35136,note_on,,,,,12416,0,11,,,,,3,,,71,35
35136,note_on,,,,,64,0,13,,,,,5,,,59,85
35214,program_change,,,,,78,0,8,,,,,0,48,,,
35264,note_off,,,,,0,0,15,,,,,7,,,74,100
35264,note_off,,,,,0,0,15,,,,,7,,,66,100
35264,note_off,,,,,128,0,14,,,,,6,,,47,100
35264,note_off,,,,,128,0,16,,,,,7,,,59,100
35264,note_off,,,,,50,0,8,,,,,0,,,71,100
35264,note_off,,,,,128,0,15,,,,,7,,,71,100
35264,note_off,,,,,128,0,13,,,,,5,,,59,100
35264,note_off,,,,,128,0,9,,,,,1,,,71,100
35264,note_off,,,,,128,0,11,,,,,3,,,71,100
35264,note_off,,,,,128,0,10,,,,,2,,,74,100
35328,note_on,,,,,64,0,16,,,,,7,,,47,100
35328,note_on,,,,,64,0,11,,,,,3,,,71,35
35328,note_on,,,,,0,0,15,,,,,7,,,66,100
35328,note_on,,,,,64,0,9,,,,,1,,,71,85
35328,note_on,,,,,64,0,15,,,,,7,,,62,100
35328,note_on,,,,,64,0,10,,,,,2,,,74,35
35328,note_on,,,,,64,0,8,,,,,0,,,74,85
35328,note_on,,,,,64,0,13,,,,,5,,,47,85
35328,note_on,,,,,64,0,14,,,,,6,,,35,85
35392,note_off,,,,,256,0,12,,,,,4,,,66,100
35392,note_off,,,,,64,0,9,,,,,1,,,71,100
35392,note_off,,,,,64,0,8,,,,,0,,,74,100
35392,note_off,,,,,64,0,11,,,,,3,,,71,100
35392,note_off,,,,,64,0,10,,,,,2,,,74,100
35424,note_on,,,,,32,0,9,,,,,1,,,73,85
35424,note_on,,,,,32,0,8,,,,,0,,,76,85
35424,note_on,,,,,32,0,10,,,,,2,,,76,35
35424,note_on,,,,,32,0,11,,,,,3,,,73,35
35456,note_off,,,,,128,0,15,,,,,7,,,62,100
35456,note_off,,,,,128,0,13,,,,,5,,,47,100
35456,note_off,,,,,0,0,15,,,,,7,,,66,100
35456,note_off,,,,,128,0,16,,,,,7,,,47,100
35456,note_off,,,,,128,0,14,,,,,6,,,35,100
35488,note_off,,,,,64,0,8,,,,,0,,,76,100
35488,note_off,,,,,64,0,11,,,,,3,,,73,100
35488,note_off,,,,,64,0,10,,,,,2,,,76,100
35488,note_off,,,,,64,0,9,,,,,1,,,73,100
35520,note_on,,,,,32,0,10,,,,,2,,,74,35
35520,note_on,,,,,32,0,8,,,,,0,,,74,85
35520,note_on,,,,,32,0,11,,,,,3,,,71,35
35520,note_on,,,,,64,0,14,,,,,6,,,47,85
35520,note_on,,,,,64,0,15,,,,,7,,,66,100
35520,note_on,,,,,32,0,9,,,,,1,,,71,85
35520,note_on,,,,,0,0,15,,,,,7,,,74,100
35520,note_on,,,,,64,0,16,,,,,7,,,59,100
35520,note_on,,,,,64,0,13,,,,,5,,,59,85
35520,note_on,,,,,128,0,12,,,,,4,,,66,85
35584,note_off,,,,,64,0,9,,,,,1,,,71,100
35584,note_off,,,,,64,0,11,,,,,3,,,71,100
35584,note_off,,,,,64,0,8,,,,,0,,,74,100
35584,note_off,,,,,64,0,10,,,,,2,,,74,100
35616,note_on,,,,,32,0,11,,,,,3,,,73,35
35616,note_on,,,,,32,0,9,,,,,1,,,73,85
35616,note_on,,,,,32,0,8,,,,,0,,,76,85
35616,note_on,,,,,32,0,10,,,,,2,,,76,35
35648,note_off,,,,,128,0,16,,,,,7,,,59,100
35648,note_off,,,,,128,0,14,,,,,6,,,47,100
35648,note_off,,,,,0,0,15,,,,,7,,,74,100
35648,note_off,,,,,128,0,12,,,,,4,,,66,100
35648,note_off,,,,,128,0,13,,,,,5,,,59,100
35648,note_off,,,,,128,0,15,,,,,7,,,66,100
35680,note_off,,,,,64,0,10,,,,,2,,,76,100
35680,note_off,,,,,64,0,8,,,,,0,,,76,100
35680,note_off,,,,,64,0,9,,,,,1,,,73,100
35680,note_off,,,,,64,0,11,,,,,3,,,73,100
35712,note_on,,,,,64,0,15,,,,,7,,,66,100
35712,note_on,,,,,0,0,15,,,,,7,,,74,100
35712,note_on,,,,,32,0,10,,,,,2,,,78,35
35712,note_on,,,,,32,0,8,,,,,0,,,78,85
35712,note_on,,,,,32,0,9,,,,,1,,,74,85
35712,note_on,,,,,32,0,11,,,,,3,,,74,35
35712,note_on,,,,,64,0,13,,,,,5,,,59,85
35712,note_on,,,,,64,0,12,,,,,4,,,66,85
35712,note_on,,,,,64,0,16,,,,,7,,,59,100
35712,note_on,,,,,64,0,14,,,,,6,,,47,85
35840,note_off,,,,,128,0,9,,,,,1,,,74,100
35840,note_off,,,,,128,0,11,,,,,3,,,74,100
35840,note_off,,,,,128,0,13,,,,,5,,,59,100
35840,note_off,,,,,128,0,16,,,,,7,,,59,100
35840,note_off,,,,,128,0,15,,,,,7,,,66,100
35840,note_off,,,,,0,0,15,,,,,7,,,74,100
35840,note_off,,,,,128,0,8,,,,,0,,,78,100
35840,note_off,,,,,128,0,14,,,,,6,,,47,100
35840,note_off,,,,,128,0,10,,,,,2,,,78,100
35904,note_on,,,,,64,0,16,,,,,7,,,47,100
35904,note_on,,,,,64,0,13,,,,,5,,,47,85
35904,note_on,,,,,64,0,8,,,,,0,,,78,85
35904,note_on,,,,,64,0,9,,,,,1,,,74,85
35904,note_on,,,,,64,0,14,,,,,6,,,35,85
35904,note_on,,,,,64,0,10,,,,,2,,,78,35
35904,note_on,,,,,64,0,11,,,,,3,,,74,35
35904,note_on,,,,,0,0,15,,,,,7,,,66,100
35904,note_on,,,,,64,0,15,,,,,7,,,62,100
35968,note_off,,,,,64,0,9,,,,,1,,,74,100
35968,note_off,,,,,64,0,8,,,,,0,,,78,100
35968,note_off,,,,,64,0,10,,,,,2,,,78,100
35968,note_off,,,,,64,0,11,,,,,3,,,74,100
35968,note_off,,,,,256,0,12,,,,,4,,,66,100
36000,note_on,,,,,32,0,9,,,,,1,,,76,85
36000,note_on,,,,,32,0,10,,,,,2,,,79,35
36000,note_on,,,,,32,0,11,,,,,3,,,76,35
36000,note_on,,,,,32,0,8,,,,,0,,,79,85
36032,note_off,,,,,0,0,15,,,,,7,,,66,100
36032,note_off,,,,,128,0,16,,,,,7,,,47,100
36032,note_off,,,,,128,0,15,,,,,7,,,62,100
36032,note_off,,,,,128,0,14,,,,,6,,,35,100
36032,note_off,,,,,128,0,13,,,,,5,,,47,100
36064,note_off,,,,,64,0,9,,,,,1,,,76,100
36064,note_off,,,,,64,0,11,,,,,3,,,76,100
36064,note_off,,,,,64,0,10,,,,,2,,,79,100
36064,note_off,,,,,64,0,8,,,,,0,,,79,100
36096,note_on,,,,,64,0,16,,,,,7,,,59,100
36096,note_on,,,,,64,0,13,,,,,5,,,59,85
36096,note_on,,,,,32,0,8,,,,,0,,,78,85
36096,note_on,,,,,32,0,9,,,,,1,,,74,85
36096,note_on,,,,,128,0,12,,,,,4,,,66,85
36096,note_on,,,,,32,0,11,,,,,3,,,74,35
36096,note_on,,,,,64,0,14,,,,,6,,,47,85
36096,note_on,,,,,32,0,10,,,,,2,,,78,35
36096,note_on,,,,,0,0,15,,,,,7,,,66,100
36096,note_on,,,,,64,0,15,,,,,7,,,74,100
36160,note_off,,,,,64,0,11,,,,,3,,,74,100
36160,note_off,,,,,64,0,10,,,,,2,,,78,100
36160,note_off,,,,,64,0,8,,,,,0,,,78,100
36160,note_off,,,,,64,0,9,,,,,1,,,74,100
36192,note_on,,,,,32,0,9,,,,,1,,,76,85
36192,note_on,,,,,32,0,11,,,,,3,,,76,35
36192,note_on,,,,,32,0,8,,,,,0,,,79,85
36192,note_on,,,,,32,0,10,,,,,2,,,79,35
36224,note_off,,,,,128,0,16,,,,,7,,,59,100
36224,note_off,,,,,128,0,12,,,,,4,,,66,100
36224,note_off,,,,,128,0,14,,,,,6,,,47,100
36224,note_off,,,,,128,0,15,,,,,7,,,74,100
36224,note_off,,,,,0,0,15,,,,,7,,,66,100
36224,note_off,,,,,128,0,13,,,,,5,,,59,100
36256,note_off,,,,,64,0,9,,,,,1,,,76,100
36256,note_off,,,,,64,0,10,,,,,2,,,79,100
36256,note_off,,,,,64,0,8,,,,,0,,,79,100
36256,note_off,,,,,64,0,11,,,,,3,,,76,100
36288,note_on,,,,,64,0,12,,,,,4,,,70,85
36288,note_on,,,,,64,0,13,,,,,5,,,61,85
36288,note_on,,,,,64,0,14,,,,,6,,,49,85
36288,note_on,,,,,64,0,15,,,,,7,,,64,100
36288,note_on,,,,,64,0,16,,,,,7,,,61,100
36288,note_on,,,,,32,0,8,,,,,0,,,76,85
36288,note_on,,,,,32,0,9,,,,,1,,,73,85
36288,note_on,,,,,32,0,10,,,,,2,,,76,35
36288,note_on,,,,,32,0,11,,,,,3,,,73,35
36288,note_on,,,,,0,0,15,,,,,7,,,70,100
36416,note_off,,,,,0,0,15,,,,,7,,,70,100
36416,note_off,,,,,128,0,10,,,,,2,,,76,100
36416,note_off,,,,,128,0,13,,,,,5,,,61,100
36416,note_off,,,,,128,0,16,,,,,7,,,61,100
36416,note_off,,,,,128,0,11,,,,,3,,,73,100
36416,note_off,,,,,128,0,14,,,,,6,,,49,100
36416,note_off,,,,,128,0,8,,,,,0,,,76,100
36416,note_off,,,,,128,0,15,,,,,7,,,64,100
36416,note_off,,,,,128,0,9,,,,,1,,,73,100
36480,note_on,,,,,64,0,11,,,,,3,,,73,35
36480,note_on,,,,,64,0,16,,,,,7,,,49,100
36480,note_on,,,,,64,0,14,,,,,6,,,37,85
36480,note_on,,,,,0,0,15,,,,,7,,,64,100
36480,note_on,,,,,64,0,15,,,,,7,,,58,100
36480,note_on,,,,,64,0,10,,,,,2,,,76,35
36480,note_on,,,,,64,0,8,,,,,0,,,76,85
36480,note_on,,,,,64,0,13,,,,,5,,,49,85
36480,note_on,,,,,64,0,9,,,,,1,,,73,85
36544,note_off,,,,,64,0,9,,,,,1,,,73,100
36544,note_off,,,,,256,0,12,,,,,4,,,70,100
36544,note_off,,,,,64,0,11,,,,,3,,,73,100
36544,note_off,,,,,64,0,10,,,,,2,,,76,100
36544,note_off,,,,,64,0,8,,,,,0,,,76,100
36576,note_on,,,,,32,0,10,,,,,2,,,78,35
36576,note_on,,,,,32,0,8,,,,,0,,,78,85
36576,note_on,,,,,32,0,11,,,,,3,,,74,35
36576,note_on,,,,,32,0,9,,,,,1,,,74,85
36608,note_off,,,,,128,0,13,,,,,5,,,49,100
36608,note_off,,,,,128,0,16,,,,,7,,,49,100
36608,note_off,,,,,0,0,15,,,,,7,,,64,100
36608,note_off,,,,,128,0,14,,,,,6,,,37,100
36608,note_off,,,,,128,0,15,,,,,7,,,58,100
36640,note_off,,,,,64,0,11,,,,,3,,,74,100
36640,note_off,,,,,64,0,8,,,,,0,,,78,100
36640,note_off,,,,,64,0,10,,,,,2,,,78,100
36640,note_off,,,,,64,0,9,,,,,1,,,74,100
36672,note_on,,,,,32,0,9,,,,,1,,,73,85
36672,note_on,,,,,64,0,16,,,,,7,,,61,100
36672,note_on,,,,,0,0,15,,,,,7,,,64,100
36672,note_on,,,,,64,0,14,,,,,6,,,49,85
36672,note_on,,,,,64,0,15,,,,,7,,,70,100
36672,note_on,,,,,128,0,12,,,,,4,,,73,85
36672,note_on,,,,,64,0,13,,,,,5,,,61,85
36672,note_on,,,,,32,0,11,,,,,3,,,73,35
36672,note_on,,,,,32,0,8,,,,,0,,,76,85
36672,note_on,,,,,32,0,10,,,,,2,,,76,35
36736,note_off,,,,,64,0,10,,,,,2,,,76,100
36736,note_off,,,,,64,0,11,,,,,3,,,73,100
36736,note_off,,,,,64,0,8,,,,,0,,,76,100
36736,note_off,,,,,64,0,9,,,,,1,,,73,100
36768,note_on,,,,,32,0,9,,,,,1,,,74,85
36768,note_on,,,,,32,0,10,,,,,2,,,78,35
36768,note_on,,,,,32,0,11,,,,,3,,,74,35
36768,note_on,,,,,32,0,8,,,,,0,,,78,85
36800,note_off,,,,,128,0,13,,,,,5,,,61,100
36800,note_off,,,,,128,0,14,,,,,6,,,49,100
36800,note_off,,,,,0,0,15,,,,,7,,,64,100
36800,note_off,,,,,128,0,15,,,,,7,,,70,100
36800,note_off,,,,,128,0,16,,,,,7,,,61,100
36800,note_off,,,,,128,0,12,,,,,4,,,73,100
36832,note_off,,,,,64,0,8,,,,,0,,,78,100
36832,note_off,,,,,64,0,9,,,,,1,,,74,100
36832,note_off,,,,,64,0,11,,,,,3,,,74,100
36832,note_off,,,,,64,0,10,,,,,2,,,78,100
36864,note_on,,,,,32,0,8,,,,,0,,,79,85
36864,note_on,,,,,64,0,13,,,,,5,,,58,85
36864,note_on,,,,,64,0,14,,,,,6,,,46,85
36864,note_on,,,,,32,0,11,,,,,3,,,76,35
36864,note_on,,,,,32,0,10,,,,,2,,,79,35
36864,note_on,,,,,64,0,15,,,,,7,,,76,100
36864,note_on,,,,,64,0,12,,,,,4,,,73,85
36864,note_on,,,,,64,0,16,,,,,7,,,58,100
36864,note_on,,,,,32,0,9,,,,,1,,,76,85
36864,note_on,,,,,0,0,15,,,,,7,,,67,100
36992,note_off,,,,,128,0,10,,,,,2,,,79,100
36992,note_off,,,,,128,0,11,,,,,3,,,76,100
36992,note_off,,,,,0,0,15,,,,,7,,,67,100
36992,note_off,,,,,128,0,14,,,,,6,,,46,100
36992,note_off,,,,,128,0,15,,,,,7,,,76,100
36992,note_off,,,,,128,0,16,,,,,7,,,58,100
36992,note_off,,,,,128,0,9,,,,,1,,,76,100
36992,note_off,,,,,128,0,13,,,,,5,,,58,100
36992,note_off,,,,,128,0,8,,,,,0,,,79,100
37056,note_on,,,,,64,0,8,,,,,0,,,79,85
37056,note_on,,,,,64,0,10,,,,,2,,,79,35
37056,note_on,,,,,64,0,14,,,,,6,,,34,85
37056,note_on,,,,,0,0,15,,,,,7,,,67,100
37056,note_on,,,,,64,0,15,,,,,7,,,64,100
37056,note_on,,,,,64,0,9,,,,,1,,,76,85
37056,note_on,,,,,64,0,11,,,,,3,,,76,35
37056,note_on,,,,,64,0,13,,,,,5,,,46,85
37056,note_on,,,,,64,0,16,,,,,7,,,46,100
37120,note_off,,,,,64,0,8,,,,,0,,,79,100
37120,note_off,,,,,64,0,10,,,,,2,,,79,100
37120,note_off,,,,,64,0,11,,,,,3,,,76,100
37120,note_off,,,,,256,0,12,,,,,4,,,73,100
37120,note_off,,,,,64,0,9,,,,,1,,,76,100
37152,note_on,,,,,32,0,10,,,,,2,,,81,35
37152,note_on,,,,,32,0,8,,,,,0,,,81,85
37152,note_on,,,,,32,0,11,,,,,3,,,78,35
37152,note_on,,,,,32,0,9,,,,,1,,,78,85
37184,note_off,,,,,128,0,13,,,,,5,,,46,100
37184,note_off,,,,,128,0,16,,,,,7,,,46,100
37184,note_off,,,,,128,0,15,,,,,7,,,64,100
37184,note_off,,,,,128,0,14,,,,,6,,,34,100
37184,note_off,,,,,0,0,15,,,,,7,,,67,100
37216,note_off,,,,,64,0,9,,,,,1,,,78,100
37216,note_off,,,,,64,0,8,,,,,0,,,81,100
37216,note_off,,,,,64,0,10,,,,,2,,,81,100
37216,note_off,,,,,64,0,11,,,,,3,,,78,100
37248,note_on,,,,,64,0,16,,,,,7,,,58,100
37248,note_on,,,,,0,0,15,,,,,7,,,76,100
37248,note_on,,,,,64,0,13,,,,,5,,,58,85
37248,note_on,,,,,64,0,15,,,,,7,,,67,100
37248,note_on,,,,,32,0,11,,,,,3,,,76,35
37248,note_on,,,,,32,0,9,,,,,1,,,76,85
37248,note_on,,,,,32,0,10,,,,,2,,,79,35
37248,note_on,,,,,64,0,14,,,,,6,,,46,85
37248,note_on,,,,,32,0,8,,,,,0,,,79,85
37248,note_on,,,,,128,0,12,,,,,4,,,73,85
37312,note_off,,,,,64,0,10,,,,,2,,,79,100
37312,note_off,,,,,64,0,9,,,,,1,,,76,100
37312,note_off,,,,,64,0,11,,,,,3,,,76,100
37312,note_off,,,,,64,0,8,,,,,0,,,79,100
37344,note_on,,,,,32,0,9,,,,,1,,,78,85
37344,note_on,,,,,32,0,11,,,,,3,,,78,35
37344,note_on,,,,,32,0,8,,,,,0,,,81,85
37344,note_on,,,,,32,0,10,,,,,2,,,81,35
37376,note_off,,,,,128,0,12,,,,,4,,,73,100
37376,note_off,,,,,128,0,16,,,,,7,,,58,100
37376,note_off,,,,,0,0,15,,,,,7,,,76,100
37376,note_off,,,,,128,0,15,,,,,7,,,67,100
37376,note_off,,,,,128,0,13,,,,,5,,,58,100
37376,note_off,,,,,128,0,14,,,,,6,,,46,100
37408,note_off,,,,,64,0,11,,,,,3,,,78,100
37408,note_off,,,,,64,0,8,,,,,0,,,81,100
37408,note_off,,,,,64,0,10,,,,,2,,,81,100
37408,note_off,,,,,64,0,9,,,,,1,,,78,100
37440,note_on,,,,,64,0,15,,,,,7,,,66,100
37440,note_on,,,,,0,0,15,,,,,7,,,74,100
37440,note_on,,,,,64,0,14,,,,,6,,,47,85
37440,note_on,,,,,32,0,11,,,,,3,,,74,35
37440,note_on,,,,,64,0,13,,,,,5,,,59,85
37440,note_on,,,,,32,0,10,,,,,2,,,78,35
37440,note_on,,,,,32,0,9,,,,,1,,,74,85
37440,note_on,,,,,64,0,16,,,,,7,,,59,100
37440,note_on,,,,,32,0,8,,,,,0,,,78,85
37440,note_on,,,,,64,0,12,,,,,4,,,74,85
37568,note_off,,,,,128,0,16,,,,,7,,,59,100
37568,note_off,,,,,128,0,15,,,,,7,,,66,100
37568,note_off,,,,,0,0,15,,,,,7,,,74,100
37568,note_off,,,,,128,0,12,,,,,4,,,74,100
37568,note_off,,,,,128,0,13,,,,,5,,,59,100
37568,note_off,,,,,128,0,9,,,,,1,,,74,100
37568,note_off,,,,,128,0,14,,,,,6,,,47,100
37568,note_off,,,,,128,0,11,,,,,3,,,74,100
37568,note_off,,,,,128,0,8,,,,,0,,,78,100
37568,note_off,,,,,128,0,10,,,,,2,,,78,100
37632,note_on,,,,,64,0,11,,,,,3,,,74,35
37632,note_on,,,,,64,0,15,,,,,7,,,62,100
37632,note_on,,,,,0,0,15,,,,,7,,,66,100
37632,note_on,,,,,64,0,9,,,,,1,,,74,85
37632,note_on,,,,,64,0,13,,,,,5,,,47,85
37632,note_on,,,,,64,0,12,,,,,4,,,71,85
37632,note_on,,,,,64,0,14,,,,,6,,,35,85
37632,note_on,,,,,64,0,8,,,,,0,,,78,85
37632,note_on,,,,,64,0,10,,,,,2,,,78,35
37632,note_on,,,,,64,0,16,,,,,7,,,47,100
37696,note_off,,,,,64,0,8,,,,,0,,,78,100
37696,note_off,,,,,64,0,10,,,,,2,,,78,100
37696,note_off,,,,,64,0,11,,,,,3,,,74,100
37696,note_off,,,,,64,0,9,,,,,1,,,74,100
37728,note_on,,,,,32,0,11,,,,,3,,,76,35
37728,note_on,,,,,32,0,8,,,,,0,,,79,85
37728,note_on,,,,,32,0,9,,,,,1,,,76,85
37728,note_on,,,,,32,0,10,,,,,2,,,79,35
37760,note_off,,,,,128,0,14,,,,,6,,,35,100
37760,note_off,,,,,0,0,15,,,,,7,,,66,100
37760,note_off,,,,,128,0,15,,,,,7,,,62,100
37760,note_off,,,,,128,0,12,,,,,4,,,71,100
37760,note_off,,,,,128,0,16,,,,,7,,,47,100
37760,note_off,,,,,128,0,13,,,,,5,,,47,100
37792,note_off,,,,,64,0,11,,,,,3,,,76,100
37792,note_off,,,,,64,0,9,,,,,1,,,76,100
37792,note_off,,,,,64,0,8,,,,,0,,,79,100
37792,note_off,,,,,64,0,10,,,,,2,,,79,100
37824,note_on,,,,,64,0,12,,,,,4,,,74,85
37824,note_on,,,,,32,0,8,,,,,0,,,78,85
37824,note_on,,,,,32,0,11,,,,,3,,,74,35
37824,note_on,,,,,32,0,9,,,,,1,,,74,85
37824,note_on,,,,,0,0,15,,,,,7,,,66,100
37824,note_on,,,,,64,0,15,,,,,7,,,74,100
37824,note_on,,,,,64,0,14,,,,,6,,,47,85
37824,note_on,,,,,64,0,13,,,,,5,,,59,85
37824,note_on,,,,,64,0,16,,,,,7,,,59,100
37824,note_on,,,,,32,0,10,,,,,2,,,78,35
37888,note_off,,,,,64,0,9,,,,,1,,,74,100
37888,note_off,,,,,64,0,11,,,,,3,,,74,100
37888,note_off,,,,,64,0,8,,,,,0,,,78,100
37888,note_off,,,,,64,0,10,,,,,2,,,78,100
37920,note_on,,,,,32,0,10,,,,,2,,,79,35
37920,note_on,,,,,32,0,9,,,,,1,,,76,85
37920,note_on,,,,,32,0,11,,,,,3,,,76,35
37920,note_on,,,,,32,0,8,,,,,0,,,79,85
37952,note_off,,,,,128,0,16,,,,,7,,,59,100
37952,note_off,,,,,128,0,12,,,,,4,,,74,100
37952,note_off,,,,,128,0,14,,,,,6,,,47,100
37952,note_off,,,,,0,0,15,,,,,7,,,66,100
37952,note_off,,,,,128,0,15,,,,,7,,,74,100
37952,note_off,,,,,128,0,13,,,,,5,,,59,100
37984,note_off,,,,,64,0,10,,,,,2,,,79,100
37984,note_off,,,,,64,0,11,,,,,3,,,76,100
37984,note_off,,,,,64,0,8,,,,,0,,,79,100
37984,note_off,,,,,64,0,9,,,,,1,,,76,100
38016,note_on,,,,,64,0,15,,,,,7,,,70,100
38016,note_on,,,,,0,0,15,,,,,7,,,76,100
38016,note_on,,,,,32,0,11,,,,,3,,,73,35
38016,note_on,,,,,64,0,16,,,,,7,,,61,100
38016,note_on,,,,,64,0,13,,,,,5,,,61,85
38016,note_on,,,,,32,0,8,,,,,0,,,76,85
38016,note_on,,,,,32,0,9,,,,,1,,,73,85
38016,note_on,,,,,64,0,12,,,,,4,,,70,85
38016,note_on,,,,,64,0,14,,,,,6,,,49,85
38016,note_on,,,,,32,0,10,,,,,2,,,76,35
38144,note_off,,,,,128,0,13,,,,,5,,,61,100
38144,note_off,,,,,128,0,9,,,,,1,,,73,100
38144,note_off,,,,,128,0,8,,,,,0,,,76,100
38144,note_off,,,,,128,0,16,,,,,7,,,61,100
38144,note_off,,,,,128,0,11,,,,,3,,,73,100
38144,note_off,,,,,0,0,15,,,,,7,,,76,100
38144,note_off,,,,,128,0,15,,,,,7,,,70,100
38144,note_off,,,,,128,0,14,,,,,6,,,49,100
38144,note_off,,,,,128,0,10,,,,,2,,,76,100
38208,note_on,,,,,64,0,9,,,,,1,,,73,85
38208,note_on,,,,,64,0,14,,,,,6,,,46,85
38208,note_on,,,,,64,0,13,,,,,5,,,58,85
38208,note_on,,,,,64,0,16,,,,,7,,,58,100
38208,note_on,,,,,64,0,10,,,,,2,,,76,35
38208,note_on,,,,,64,0,11,,,,,3,,,73,35
38208,note_on,,,,,0,0,15,,,,,7,,,73,100
38208,note_on,,,,,64,0,15,,,,,7,,,64,100
38208,note_on,,,,,64,0,8,,,,,0,,,76,85
38272,note_off,,,,,64,0,10,,,,,2,,,76,100
38272,note_off,,,,,64,0,9,,,,,1,,,73,100
38272,note_off,,,,,64,0,11,,,,,3,,,73,100
38272,note_off,,,,,256,0,12,,,,,4,,,70,100
38272,note_off,,,,,64,0,8,,,,,0,,,76,100
38304,note_on,,,,,32,0,9,,,,,1,,,74,85
38304,note_on,,,,,32,0,8,,,,,0,,,78,85
38304,note_on,,,,,32,0,10,,,,,2,,,78,35
38304,note_on,,,,,32,0,11,,,,,3,,,74,35
38336,note_off,,,,,128,0,13,,,,,5,,,58,100
38336,note_off,,,,,128,0,16,,,,,7,,,58,100
38336,note_off,,,,,128,0,15,,,,,7,,,64,100
38336,note_off,,,,,0,0,15,,,,,7,,,73,100
38336,note_off,,,,,128,0,14,,,,,6,,,46,100
38368,note_off,,,,,64,0,10,,,,,2,,,78,100
38368,note_off,,,,,64,0,8,,,,,0,,,78,100
38368,note_off,,,,,64,0,9,,,,,1,,,74,100
38368,note_off,,,,,64,0,11,,,,,3,,,74,100
38400,note_on,,,,,64,0,14,,,,,6,,,42,85
38400,note_on,,,,,0,0,15,,,,,7,,,64,100
38400,note_on,,,,,64,0,13,,,,,5,,,54,85
38400,note_on,,,,,128,0,12,,,,,4,,,66,85
38400,note_on,,,,,32,0,11,,,,,3,,,73,35
38400,note_on,,,,,32,0,10,,,,,2,,,76,35
38400,note_on,,,,,64,0,16,,,,,7,,,54,100
38400,note_on,,,,,32,0,9,,,,,1,,,73,85
38400,note_on,,,,,32,0,8,,,,,0,,,76,85
38400,note_on,,,,,64,0,15,,,,,7,,,61,100
38464,note_off,,,,,64,0,11,,,,,3,,,73,100
38464,note_off,,,,,64,0,8,,,,,0,,,76,100
38464,note_off,,,,,64,0,10,,,,,2,,,76,100
38464,note_off,,,,,64,0,9,,,,,1,,,73,100
38496,note_on,,,,,32,0,8,,,,,0,,,78,85
38496,note_on,,,,,32,0,11,,,,,3,,,74,35
38496,note_on,,,,,32,0,9,,,,,1,,,74,85
38496,note_on,,,,,32,0,10,,,,,2,,,78,35
38528,note_off,,,,,128,0,16,,,,,7,,,54,100
38528,note_off,,,,,128,0,12,,,,,4,,,66,100
38528,note_off,,,,,128,0,15,,,,,7,,,61,100
38528,note_off,,,,,0,0,15,,,,,7,,,64,100
38528,note_off,,,,,128,0,13,,,,,5,,,54,100
38528,note_off,,,,,128,0,14,,,,,6,,,42,100
38560,note_off,,,,,64,0,9,,,,,1,,,74,100
38560,note_off,,,,,64,0,11,,,,,3,,,74,100
38560,note_off,,,,,64,0,8,,,,,0,,,78,100
38560,note_off,,,,,64,0,10,,,,,2,,,78,100
38592,note_on,,,,,32,0,11,,,,,3,,,71,35
38592,note_on,,,,,64,0,12,,,,,4,,,66,85
38592,note_on,,,,,64,0,14,,,,,6,,,47,85
38592,note_on,,,,,32,0,8,,,,,0,,,74,85
38592,note_on,,,,,64,0,13,,,,,5,,,59,85
38592,note_on,,,,,64,0,16,,,,,7,,,59,100
38592,note_on,,,,,32,0,9,,,,,1,,,71,85
38592,note_on,,,,,64,0,15,,,,,7,,,66,100
38592,note_on,,,,,0,0,15,,,,,7,,,62,100
38592,note_on,,,,,32,0,10,,,,,2,,,74,35
38720,note_off,,,,,128,0,13,,,,,5,,,59,100
38720,note_off,,,,,0,0,15,,,,,7,,,62,100
38720,note_off,,,,,128,0,15,,,,,7,,,66,100
38720,note_off,,,,,128,0,9,,,,,1,,,71,100
38720,note_off,,,,,128,0,14,,,,,6,,,47,100
38720,note_off,,,,,128,0,16,,,,,7,,,59,100
38720,note_off,,,,,128,0,10,,,,,2,,,74,100
38720,note_off,,,,,128,0,8,,,,,0,,,74,100
38720,note_off,,,,,128,0,11,,,,,3,,,71,100
38784,note_on,,,,,64,0,16,,,,,7,,,47,100
38784,note_on,,,,,0,0,15,,,,,7,,,66,100
38784,note_on,,,,,64,0,13,,,,,5,,,47,85
38784,note_on,,,,,64,0,10,,,,,2,,,74,35
38784,note_on,,,,,64,0,15,,,,,7,,,62,100
38784,note_on,,,,,64,0,9,,,,,1,,,71,85
38784,note_on,,,,,64,0,11,,,,,3,,,71,35
38784,note_on,,,,,64,0,8,,,,,0,,,74,85
38784,note_on,,,,,64,0,14,,,,,6,,,35,85
38848,note_off,,,,,64,0,11,,,,,3,,,71,100
38848,note_off,,,,,64,0,10,,,,,2,,,74,100
38848,note_off,,,,,64,0,9,,,,,1,,,71,100
38848,note_off,,,,,256,0,12,,,,,4,,,66,100
38848,note_off,,,,,64,0,8,,,,,0,,,74,100
38880,note_on,,,,,32,0,9,,,,,1,,,73,85
38880,note_on,,,,,32,0,8,,,,,0,,,76,85
38880,note_on,,,,,32,0,10,,,,,2,,,76,35
38880,note_on,,,,,32,0,11,,,,,3,,,73,35
38912,note_off,,,,,128,0,13,,,,,5,,,47,100
38912,note_off,,,,,128,0,14,,,,,6,,,35,100
38912,note_off,,,,,128,0,16,,,,,7,,,47,100
38912,note_off,,,,,0,0,15,,,,,7,,,66,100
38912,note_off,,,,,128,0,15,,,,,7,,,62,100
38944,note_off,,,,,64,0,9,,,,,1,,,73,100
38944,note_off,,,,,64,0,11,,,,,3,,,73,100
38944,note_off,,,,,64,0,8,,,,,0,,,76,100
38944,note_off,,,,,64,0,10,,,,,2,,,76,100
38976,note_on,,,,,0,0,15,,,,,7,,,67,100
38976,note_on,,,,,32,0,9,,,,,1,,,71,85
38976,note_on,,,,,64,0,15,,,,,7,,,71,100
38976,note_on,,,,,32,0,10,,,,,2,,,74,35
38976,note_on,,,,,64,0,14,,,,,6,,,40,85
38976,note_on,,,,,128,0,12,,,,,4,,,67,85
38976,note_on,,,,,32,0,8,,,,,0,,,74,85
38976,note_on,,,,,32,0,11,,,,,3,,,71,35
38976,note_on,,,,,64,0,13,,,,,5,,,52,85
38976,note_on,,,,,64,0,16,,,,,7,,,52,100
39040,note_off,,,,,64,0,8,,,,,0,,,74,100
39040,note_off,,,,,64,0,11,,,,,3,,,71,100
39040,note_off,,,,,64,0,10,,,,,2,,,74,100
39040,note_off,,,,,64,0,9,,,,,1,,,71,100
39072,note_on,,,,,32,0,8,,,,,0,,,76,85
39072,note_on,,,,,32,0,10,,,,,2,,,76,35
39072,note_on,,,,,32,0,11,,,,,3,,,73,35
39072,note_on,,,,,32,0,9,,,,,1,,,73,85
39104,note_off,,,,,128,0,13,,,,,5,,,52,100
39104,note_off,,,,,128,0,14,,,,,6,,,40,100
39104,note_off,,,,,128,0,16,,,,,7,,,52,100
39104,note_off,,,,,128,0,15,,,,,7,,,71,100
39104,note_off,,,,,0,0,15,,,,,7,,,67,100
39104,note_off,,,,,128,0,12,,,,,4,,,67,100
39136,note_off,,,,,64,0,8,,,,,0,,,76,100
39136,note_off,,,,,64,0,10,,,,,2,,,76,100
39136,note_off,,,,,64,0,11,,,,,3,,,73,100
39136,note_off,,,,,64,0,9,,,,,1,,,73,100
39168,note_on,,,,,64,0,12,,,,,4,,,61,85
39168,note_on,,,,,32,0,9,,,,,1,,,70,85
39168,note_on,,,,,64,0,13,,,,,5,,,54,85
39168,note_on,,,,,32,0,10,,,,,2,,,73,35
39168,note_on,,,,,32,0,11,,,,,3,,,70,35
39168,note_on,,,,,64,0,16,,,,,7,,,54,100
39168,note_on,,,,,32,0,8,,,,,0,,,73,85
39168,note_on,,,,,64,0,14,,,,,6,,,42,85
39168,note_on,,,,,0,0,15,,,,,7,,,73,100
39168,note_on,,,,,64,0,15,,,,,7,,,70,100
39296,note_off,,,,,128,0,10,,,,,2,,,73,100
39296,note_off,,,,,128,0,8,,,,,0,,,73,100
39360,note_on,,,,,64,0,10,,,,,2,,,66,35
39360,note_on,,,,,64,0,8,,,,,0,,,66,85
39424,note_off,,,,,256,0,15,,,,,7,,,70,100
39424,note_off,,,,,0,0,15,,,,,7,,,73,100
39488,note_off,,,,,128,0,8,,,,,0,,,66,100
39488,note_off,,,,,128,0,10,,,,,2,,,66,100
39552,note_off,,,,,384,0,12,,,,,4,,,61,100
39552,note_off,,,,,384,0,14,,,,,6,,,42,100
39552,note_off,,,,,384,0,11,,,,,3,,,70,100
39552,note_on,,,,,64,0,8,,,,,0,,,66,85
39552,note_off,,,,,384,0,13,,,,,5,,,54,100
39552,note_on,,,,,64,0,10,,,,,2,,,66,35
39552,note_off,,,,,384,0,9,,,,,1,,,70,100
39552,note_off,,,,,384,0,16,,,,,7,,,54,100
39680,note_off,,,,,128,0,8,,,,,0,,,66,100
39680,note_off,,,,,128,0,10,,,,,2,,,66,100
39744,note_on,,,,,64,0,8,,,,,0,,,78,85
39744,note_on,,,,,192,0,9,,,,,1,,,71,85
39744,note_on,,,,,192,0,16,,,,,7,,,51,100
39744,note_on,,,,,192,0,12,,,,,4,,,71,85
39744,note_on,,,,,192,0,14,,,,,6,,,39,85
39744,note_on,,,,,0,0,15,,,,,7,,,71,100
39744,note_on,,,,,64,0,10,,,,,2,,,78,35
39744,note_on,,,,,192,0,11,,,,,3,,,71,35
39744,note_on,,,,,320,0,15,,,,,7,,,66,100
39744,note_on,,,,,192,0,13,,,,,5,,,51,85
39872,note_off,,,,,128,0,10,,,,,2,,,78,100
39872,note_off,,,,,128,0,8,,,,,0,,,78,100
39932,note_off,,,,,188,0,9,,,,,1,,,71,100
39932,note_off,,,,,188,0,11,,,,,3,,,71,100
39936,note_on,,,,,4,0,11,,,,,3,,,75,35
39936,note_on,,,,,4,0,9,,,,,1,,,75,85
39936,note_on,,,,,64,0,8,,,,,0,,,78,85
39936,note_on,,,,,64,0,10,,,,,2,,,78,35
40000,note_off,,,,,256,0,16,,,,,7,,,51,100
40000,note_off,,,,,64,0,10,,,,,2,,,78,100
40000,note_off,,,,,256,0,15,,,,,7,,,66,100
40000,note_off,,,,,0,0,15,,,,,7,,,71,100
40000,note_off,,,,,256,0,12,,,,,4,,,71,100
40000,note_off,,,,,64,0,8,,,,,0,,,78,100
40000,note_off,,,,,256,0,13,,,,,5,,,51,100
40000,note_off,,,,,256,0,14,,,,,6,,,39,100
40032,note_on,,,,,32,0,8,,,,,0,,,79,85
40032,note_on,,,,,32,0,10,,,,,2,,,79,35
40064,note_off,,,,,128,0,9,,,,,1,,,75,100
40064,note_off,,,,,128,0,11,,,,,3,,,75,100
40096,note_off,,,,,64,0,8,,,,,0,,,79,100
40096,note_off,,,,,64,0,10,,,,,2,,,79,100
40128,note_on,,,,,32,0,10,,,,,2,,,78,35
40128,note_on,,,,,64,0,11,,,,,3,,,78,35
40128,note_on,,,,,64,0,9,,,,,1,,,78,85
40128,note_on,,,,,32,0,8,,,,,0,,,78,85
40192,note_off,,,,,64,0,8,,,,,0,,,78,100
40192,note_off,,,,,64,0,10,,,,,2,,,78,100
40224,note_on,,,,,32,0,10,,,,,2,,,79,35
40224,note_on,,,,,32,0,8,,,,,0,,,79,85
40256,note_off,,,,,128,0,9,,,,,1,,,78,100
40256,note_off,,,,,128,0,11,,,,,3,,,78,100
40288,note_off,,,,,64,0,8,,,,,0,,,79,100
40288,note_off,,,,,64,0,10,,,,,2,,,79,100
40320,note_on,,,,,320,0,15,,,,,7,,,69,100
40320,note_on,,,,,0,0,15,,,,,7,,,71,100
40320,note_on,,,,,64,0,9,,,,,1,,,78,85
40320,note_on,,,,,32,0,10,,,,,2,,,69,35
40320,note_on,,,,,320,0,16,,,,,7,,,51,100
40320,note_on,,,,,320,0,14,,,,,6,,,39,85
40320,note_on,,,,,32,0,8,,,,,0,,,69,85
40320,note_on,,,,,320,0,13,,,,,5,,,51,85
40320,note_on,,,,,64,0,11,,,,,3,,,78,35
40320,note_on,,,,,320,0,12,,,,,4,,,71,85
40448,note_off,,,,,128,0,8,,,,,0,,,69,100
40448,note_off,,,,,128,0,10,,,,,2,,,69,100
40508,note_off,,,,,188,0,11,,,,,3,,,78,100
40508,note_off,,,,,188,0,9,,,,,1,,,78,100
40512,note_on,,,,,4,0,11,,,,,3,,,75,35
40512,note_on,,,,,64,0,10,,,,,2,,,78,35
40512,note_on,,,,,64,0,8,,,,,0,,,78,85
40512,note_on,,,,,4,0,9,,,,,1,,,75,85
40576,note_off,,,,,256,0,12,,,,,4,,,71,100
40576,note_off,,,,,0,0,15,,,,,7,,,71,100
40576,note_off,,,,,256,0,16,,,,,7,,,51,100
40576,note_off,,,,,256,0,13,,,,,5,,,51,100
40576,note_off,,,,,256,0,15,,,,,7,,,69,100
40576,note_off,,,,,256,0,14,,,,,6,,,39,100
40576,note_off,,,,,64,0,10,,,,,2,,,78,100
40576,note_off,,,,,64,0,8,,,,,0,,,78,100
40608,note_on,,,,,32,0,8,,,,,0,,,79,85
40608,note_on,,,,,32,0,10,,,,,2,,,79,35
40640,note_off,,,,,128,0,11,,,,,3,,,75,100
40640,note_off,,,,,128,0,9,,,,,1,,,75,100
40672,note_off,,,,,64,0,8,,,,,0,,,79,100
40672,note_off,,,,,64,0,10,,,,,2,,,79,100
40704,note_on,,,,,64,0,9,,,,,1,,,71,85
40704,note_on,,,,,32,0,8,,,,,0,,,78,85
40704,note_on,,,,,64,0,11,,,,,3,,,71,35
40704,note_on,,,,,32,0,10,,,,,2,,,78,35
40768,note_off,,,,,64,0,10,,,,,2,,,78,100
40768,note_off,,,,,64,0,8,,,,,0,,,78,100
40800,note_on,,,,,32,0,10,,,,,2,,,79,35
40800,note_on,,,,,32,0,8,,,,,0,,,79,85
40832,note_off,,,,,128,0,9,,,,,1,,,71,100
40832,note_off,,,,,128,0,11,,,,,3,,,71,100
40864,note_off,,,,,64,0,10,,,,,2,,,79,100
40864,note_off,,,,,64,0,8,,,,,0,,,79,100
40896,note_on,,,,,64,0,9,,,,,1,,,71,85
40896,note_on,,,,,32,0,8,,,,,0,,,69,85
40896,note_on,,,,,32,0,10,,,,,2,,,69,35
40896,note_on,,,,,320,0,16,,,,,7,,,51,100
40896,note_on,,,,,0,0,15,,,,,7,,,69,100
40896,note_on,,,,,320,0,15,,,,,7,,,66,100
40896,note_on,,,,,320,0,12,,,,,4,,,66,85
40896,note_on,,,,,64,0,11,,,,,3,,,71,35
40896,note_on,,,,,320,0,14,,,,,6,,,39,85
40896,note_on,,,,,320,0,13,,,,,5,,,51,85
41024,note_off,,,,,128,0,10,,,,,2,,,69,100
41024,note_off,,,,,128,0,8,,,,,0,,,69,100
41084,note_off,,,,,188,0,9,,,,,1,,,71,100
41084,note_off,,,,,188,0,11,,,,,3,,,71,100
41088,note_on,,,,,64,0,8,,,,,0,,,78,85
41088,note_on,,,,,4,0,11,,,,,3,,,75,35
41088,note_on,,,,,4,0,9,,,,,1,,,75,85
41088,note_on,,,,,64,0,10,,,,,2,,,78,35
41152,note_off,,,,,256,0,12,,,,,4,,,66,100
41152,note_off,,,,,64,0,8,,,,,0,,,78,100
41152,note_off,,,,,0,0,15,,,,,7,,,69,100
41152,note_off,,,,,256,0,14,,,,,6,,,39,100
41152,note_off,,,,,64,0,10,,,,,2,,,78,100
41152,note_off,,,,,256,0,15,,,,,7,,,66,100
41152,note_off,,,,,256,0,13,,,,,5,,,51,100
41152,note_off,,,,,256,0,16,,,,,7,,,51,100
41184,note_on,,,,,32,0,10,,,,,2,,,81,35
41184,note_on,,,,,32,0,8,,,,,0,,,81,85
41216,note_off,,,,,128,0,9,,,,,1,,,75,100
41216,note_off,,,,,128,0,11,,,,,3,,,75,100
41248,note_off,,,,,64,0,8,,,,,0,,,81,100
41248,note_off,,,,,64,0,10,,,,,2,,,81,100
41280,note_on,,,,,64,0,9,,,,,1,,,78,85
41280,note_on,,,,,32,0,8,,,,,0,,,79,85
41280,note_on,,,,,32,0,10,,,,,2,,,79,35
41280,note_on,,,,,64,0,11,,,,,3,,,78,35
41344,note_off,,,,,64,0,8,,,,,0,,,79,100
41344,note_off,,,,,64,0,10,,,,,2,,,79,100
41376,note_on,,,,,32,0,10,,,,,2,,,78,35
41376,note_on,,,,,32,0,8,,,,,0,,,78,85
41408,note_off,,,,,128,0,9,,,,,1,,,78,100
41408,note_off,,,,,128,0,11,,,,,3,,,78,100
41440,note_off,,,,,64,0,8,,,,,0,,,78,100
41440,note_off,,,,,64,0,10,,,,,2,,,78,100
41472,note_on,,,,,32,0,8,,,,,0,,,79,85
41472,note_on,,,,,320,0,16,,,,,7,,,52,100
41472,note_on,,,,,32,0,10,,,,,2,,,79,35
41472,note_on,,,,,64,0,9,,,,,1,,,71,85
41472,note_on,,,,,320,0,13,,,,,5,,,52,85
41472,note_on,,,,,320,0,12,,,,,4,,,64,85
41472,note_on,,,,,64,0,11,,,,,3,,,71,35
41472,note_on,,,,,320,0,14,,,,,6,,,40,85
41472,note_on,,,,,0,0,15,,,,,7,,,67,100
41472,note_on,,,,,320,0,15,,,,,7,,,71,100
41600,note_off,,,,,128,0,8,,,,,0,,,79,100
41600,note_off,,,,,128,0,10,,,,,2,,,79,100
41664,note_on,,,,,64,0,10,,,,,2,,,76,35
41664,note_on,,,,,64,0,8,,,,,0,,,76,85
41728,note_off,,,,,256,0,15,,,,,7,,,71,100
41728,note_off,,,,,0,0,15,,,,,7,,,67,100
41792,note_off,,,,,128,0,8,,,,,0,,,76,100
41792,note_off,,,,,128,0,10,,,,,2,,,76,100
41856,note_off,,,,,384,0,13,,,,,5,,,52,100
41856,note_off,,,,,384,0,16,,,,,7,,,52,100
41856,note_off,,,,,384,0,9,,,,,1,,,71,100
41856,note_off,,,,,384,0,11,,,,,3,,,71,100
41856,note_on,,,,,64,0,8,,,,,0,,,64,85
41856,note_off,,,,,384,0,12,,,,,4,,,64,100
41856,note_off,,,,,384,0,14,,,,,6,,,40,100
41856,note_on,,,,,64,0,10,,,,,2,,,64,35
41984,note_off,,,,,128,0,10,,,,,2,,,64,100
41984,note_off,,,,,128,0,8,,,,,0,,,64,100
42048,note_on,,,,,0,0,15,,,,,7,,,68,100
42048,note_on,,,,,64,0,8,,,,,0,,,80,85
42048,note_on,,,,,192,0,14,,,,,6,,,41,85
42048,note_on,,,,,192,0,9,,,,,1,,,73,85
42048,note_on,,,,,192,0,11,,,,,3,,,73,35
42048,note_on,,,,,192,0,16,,,,,7,,,53,100
42048,note_on,,,,,192,0,13,,,,,5,,,53,85
42048,note_on,,,,,64,0,10,,,,,2,,,80,35
42048,note_on,,,,,192,0,12,,,,,4,,,73,85
42048,note_on,,,,,320,0,15,,,,,7,,,73,100
42176,note_off,,,,,128,0,8,,,,,0,,,80,100
42176,note_off,,,,,128,0,10,,,,,2,,,80,100
42236,note_off,,,,,188,0,9,,,,,1,,,73,100
42236,note_off,,,,,188,0,11,,,,,3,,,73,100
42240,note_on,,,,,4,0,11,,,,,3,,,77,35
42240,note_on,,,,,64,0,8,,,,,0,,,80,85
42240,note_on,,,,,4,0,9,,,,,1,,,77,85
42240,note_on,,,,,64,0,10,,,,,2,,,80,35
42304,note_off,,,,,256,0,13,,,,,5,,,53,100
42304,note_off,,,,,0,0,15,,,,,7,,,68,100
42304,note_off,,,,,256,0,14,,,,,6,,,41,100
42304,note_off,,,,,256,0,16,,,,,7,,,53,100
42304,note_off,,,,,64,0,10,,,,,2,,,80,100
42304,note_off,,,,,64,0,8,,,,,0,,,80,100
42304,note_off,,,,,256,0,12,,,,,4,,,73,100
42304,note_off,,,,,256,0,15,,,,,7,,,73,100
42336,note_on,,,,,32,0,10,,,,,2,,,81,35
42336,note_on,,,,,32,0,8,,,,,0,,,81,85
42368,note_off,,,,,128,0,11,,,,,3,,,77,100
42368,note_off,,,,,128,0,9,,,,,1,,,77,100
42400,note_off,,,,,64,0,10,,,,,2,,,81,100
42400,note_off,,,,,64,0,8,,,,,0,,,81,100
42432,note_on,,,,,32,0,10,,,,,2,,,80,35
42432,note_on,,,,,64,0,11,,,,,3,,,80,35
42432,note_on,,,,,32,0,8,,,,,0,,,80,85
42432,note_on,,,,,64,0,9,,,,,1,,,80,85
42496,note_off,,,,,64,0,8,,,,,0,,,80,100
42496,note_off,,,,,64,0,10,,,,,2,,,80,100
42528,note_on,,,,,32,0,8,,,,,0,,,81,85
42528,note_on,,,,,32,0,10,,,,,2,,,81,35
42560,note_off,,,,,128,0,11,,,,,3,,,80,100
42560,note_off,,,,,128,0,9,,,,,1,,,80,100
42592,note_off,,,,,64,0,10,,,,,2,,,81,100
42592,note_off,,,,,64,0,8,,,,,0,,,81,100
42624,note_on,,,,,320,0,15,,,,,7,,,71,100
42624,note_on,,,,,320,0,13,,,,,5,,,53,85
42624,note_on,,,,,64,0,9,,,,,1,,,80,85
42624,note_on,,,,,64,0,11,,,,,3,,,80,35
42624,note_on,,,,,320,0,14,,,,,6,,,41,85
42624,note_on,,,,,320,0,12,,,,,4,,,73,85
42624,note_on,,,,,320,0,16,,,,,7,,,53,100
42624,note_on,,,,,32,0,8,,,,,0,,,71,85
42624,note_on,,,,,0,0,15,,,,,7,,,73,100
42624,note_on,,,,,32,0,10,,,,,2,,,71,35
42752,note_off,,,,,128,0,10,,,,,2,,,71,100
42752,note_off,,,,,128,0,8,,,,,0,,,71,100
42812,note_off,,,,,188,0,9,,,,,1,,,80,100
42812,note_off,,,,,188,0,11,,,,,3,,,80,100
42816,note_on,,,,,64,0,10,,,,,2,,,80,35
42816,note_on,,,,,4,0,11,,,,,3,,,77,35
42816,note_on,,,,,64,0,8,,,,,0,,,80,85
42816,note_on,,,,,4,0,9,,,,,1,,,77,85
42880,note_off,,,,,0,0,15,,,,,7,,,73,100
42880,note_off,,,,,256,0,13,,,,,5,,,53,100
42880,note_off,,,,,256,0,16,,,,,7,,,53,100
42880,note_off,,,,,256,0,14,,,,,6,,,41,100
42880,note_off,,,,,256,0,12,,,,,4,,,73,100
42880,note_off,,,,,64,0,8,,,,,0,,,80,100
42880,note_off,,,,,256,0,15,,,,,7,,,71,100
42880,note_off,,,,,64,0,10,,,,,2,,,80,100
42912,note_on,,,,,32,0,8,,,,,0,,,81,85
42912,note_on,,,,,32,0,10,,,,,2,,,81,35
42944,note_off,,,,,128,0,9,,,,,1,,,77,100
42944,note_off,,,,,128,0,11,,,,,3,,,77,100
42976,note_off,,,,,64,0,10,,,,,2,,,81,100
42976,note_off,,,,,64,0,8,,,,,0,,,81,100
43008,note_on,,,,,32,0,8,,,,,0,,,80,85
43008,note_on,,,,,64,0,9,,,,,1,,,73,85
43008,note_on,,,,,64,0,11,,,,,3,,,73,35
43008,note_on,,,,,32,0,10,,,,,2,,,80,35
43072,note_off,,,,,64,0,8,,,,,0,,,80,100
43072,note_off,,,,,64,0,10,,,,,2,,,80,100
43104,note_on,,,,,32,0,10,,,,,2,,,81,35
43104,note_on,,,,,32,0,8,,,,,0,,,81,85
43136,note_off,,,,,128,0,9,,,,,1,,,73,100
43136,note_off,,,,,128,0,11,,,,,3,,,73,100
43168,note_off,,,,,64,0,10,,,,,2,,,81,100
43168,note_off,,,,,64,0,8,,,,,0,,,81,100
43200,note_on,,,,,64,0,9,,,,,1,,,73,85
43200,note_on,,,,,320,0,16,,,,,7,,,53,100
43200,note_on,,,,,32,0,8,,,,,0,,,71,85
43200,note_on,,,,,320,0,12,,,,,4,,,68,85
43200,note_on,,,,,64,0,11,,,,,3,,,73,35
43200,note_on,,,,,32,0,10,,,,,2,,,71,35
43200,note_on,,,,,320,0,15,,,,,7,,,68,100
43200,note_on,,,,,0,0,15,,,,,7,,,71,100
43200,note_on,,,,,320,0,13,,,,,5,,,53,85
43200,note_on,,,,,320,0,14,,,,,6,,,41,85
43328,note_off,,,,,128,0,10,,,,,2,,,71,100
43328,note_off,,,,,128,0,8,,,,,0,,,71,100
43388,note_off,,,,,188,0,9,,,,,1,,,73,100
43388,note_off,,,,,188,0,11,,,,,3,,,73,100
43392,note_on,,,,,4,0,9,,,,,1,,,77,85
43392,note_on,,,,,64,0,8,,,,,0,,,80,85
43392,note_on,,,,,64,0,10,,,,,2,,,80,35
43392,note_on,,,,,4,0,11,,,,,3,,,77,35
43456,note_off,,,,,256,0,15,,,,,7,,,68,100
43456,note_off,,,,,256,0,14,,,,,6,,,41,100
43456,note_off,,,,,0,0,15,,,,,7,,,71,100
43456,note_off,,,,,256,0,16,,,,,7,,,53,100
43456,note_off,,,,,256,0,13,,,,,5,,,53,100
43456,note_off,,,,,64,0,10,,,,,2,,,80,100
43456,note_off,,,,,256,0,12,,,,,4,,,68,100
43456,note_off,,,,,64,0,8,,,,,0,,,80,100
43488,note_on,,,,,32,0,8,,,,,0,,,83,85
43488,note_on,,,,,32,0,10,,,,,2,,,83,35
43520,note_off,,,,,128,0,11,,,,,3,,,77,100
43520,note_off,,,,,128,0,9,,,,,1,,,77,100
43552,note_off,,,,,64,0,10,,,,,2,,,83,100
43552,note_off,,,,,64,0,8,,,,,0,,,83,100
43584,note_on,,,,,32,0,10,,,,,2,,,82,35
43584,note_on,,,,,64,0,11,,,,,3,,,80,35
43584,note_on,,,,,32,0,8,,,,,0,,,82,85
43584,note_on,,,,,64,0,9,,,,,1,,,80,85
43648,note_off,,,,,64,0,8,,,,,0,,,82,100
43648,note_off,,,,,64,0,10,,,,,2,,,82,100
43680,note_on,,,,,32,0,8,,,,,0,,,80,85
43680,note_on,,,,,32,0,10,,,,,2,,,80,35
43712,note_off,,,,,128,0,9,,,,,1,,,80,100
43712,note_off,,,,,128,0,11,,,,,3,,,80,100
43744,note_off,,,,,64,0,10,,,,,2,,,80,100
43744,note_off,,,,,64,0,8,,,,,0,,,80,100
43776,note_on,,,,,320,0,14,,,,,6,,,42,85
43776,note_on,,,,,32,0,8,,,,,0,,,82,85
43776,note_on,,,,,32,0,10,,,,,2,,,82,35
43776,note_on,,,,,64,0,9,,,,,1,,,73,85
43776,note_on,,,,,320,0,16,,,,,7,,,54,100
43776,note_on,,,,,0,0,15,,,,,7,,,73,100
43776,note_on,,,,,320,0,15,,,,,7,,,70,100
43776,note_on,,,,,320,0,12,,,,,4,,,66,85
43776,note_on,,,,,64,0,11,,,,,3,,,73,35
43776,note_on,,,,,320,0,13,,,,,5,,,54,85
43904,note_off,,,,,128,0,8,,,,,0,,,82,100
43904,note_off,,,,,128,0,10,,,,,2,,,82,100
43968,note_on,,,,,64,0,8,,,,,0,,,78,85
43968,note_on,,,,,64,0,10,,,,,2,,,78,35
44096,note_off,,,,,128,0,10,,,,,2,,,78,100
44096,note_off,,,,,128,0,8,,,,,0,,,78,100
44160,note_off,,,,,384,0,13,,,,,5,,,54,100
44160,note_off,,,,,384,0,12,,,,,4,,,66,100
44160,note_off,,,,,384,0,16,,,,,7,,,54,100
44160,note_on,,,,,64,0,10,,,,,2,,,66,35
44160,note_off,,,,,384,0,11,,,,,3,,,73,100
44160,note_off,,,,,384,0,9,,,,,1,,,73,100
44160,note_off,,,,,0,0,15,,,,,7,,,73,100
44160,note_on,,,,,64,0,8,,,,,0,,,66,85
44160,note_off,,,,,384,0,14,,,,,6,,,42,100
44160,note_off,,,,,384,0,15,,,,,7,,,70,100
44288,note_off,,,,,128,0,10,,,,,2,,,66,100
44288,note_off,,,,,128,0,8,,,,,0,,,66,100
44352,note_on,,,,,64,0,10,,,,,2,,,78,35
44352,note_on,,,,,192,0,16,,,,,7,,,54,100
44352,note_on,,,,,192,0,15,,,,,7,,,73,100
44352,note_on,,,,,192,0,14,,,,,6,,,42,85
44352,note_on,,,,,0,0,15,,,,,7,,,70,100
44352,note_on,,,,,64,0,8,,,,,0,,,78,85
44352,note_on,,,,,192,0,9,,,,,1,,,73,85
44352,note_on,,,,,192,0,12,,,,,4,,,70,85
44352,note_on,,,,,192,0,11,,,,,3,,,73,35
44352,note_on,,,,,192,0,13,,,,,5,,,54,85
44480,note_off,,,,,128,0,14,,,,,6,,,42,100
44480,note_off,,,,,128,0,16,,,,,7,,,54,100
44480,note_off,,,,,128,0,8,,,,,0,,,78,100
44480,note_off,,,,,128,0,10,,,,,2,,,78,100
44480,note_off,,,,,128,0,13,,,,,5,,,54,100
44544,note_on,,,,,64,0,14,,,,,6,,,42,89
44544,note_on,,,,,64,0,8,,,,,0,,,66,89
44544,note_on,,,,,64,0,13,,,,,5,,,54,89
44544,note_on,,,,,64,0,16,,,,,7,,,54,100
44544,note_on,,,,,64,0,10,,,,,2,,,66,39
44608,note_off,,,,,256,0,11,,,,,3,,,73,100
44608,note_off,,,,,256,0,9,,,,,1,,,73,100
44608,note_off,,,,,256,0,12,,,,,4,,,70,100
44608,note_off,,,,,0,0,15,,,,,7,,,70,100
44608,note_off,,,,,64,0,13,,,,,5,,,54,100
44608,note_off,,,,,256,0,15,,,,,7,,,73,100
44608,note_off,,,,,64,0,16,,,,,7,,,54,100
44608,note_off,,,,,64,0,14,,,,,6,,,42,100
44640,note_on,,,,,32,0,16,,,,,7,,,56,100
44640,note_on,,,,,32,0,13,,,,,5,,,56,92
44640,note_on,,,,,32,0,14,,,,,6,,,44,92
44672,note_off,,,,,128,0,8,,,,,0,,,66,100
44672,note_off,,,,,128,0,10,,,,,2,,,66,100
44704,note_off,,,,,64,0,13,,,,,5,,,56,100
44704,note_off,,,,,64,0,16,,,,,7,,,56,100
44704,note_off,,,,,64,0,14,,,,,6,,,44,100
44736,note_on,,,,,32,0,13,,,,,5,,,58,94
44736,note_on,,,,,64,0,10,,,,,2,,,78,44
44736,note_on,,,,,64,0,8,,,,,0,,,78,94
44736,note_on,,,,,32,0,14,,,,,6,,,46,94
44736,note_on,,,,,32,0,16,,,,,7,,,58,100
44800,note_off,,,,,64,0,13,,,,,5,,,58,100
44800,note_off,,,,,64,0,16,,,,,7,,,58,100
44800,note_off,,,,,64,0,14,,,,,6,,,46,100
44832,note_on,,,,,32,0,13,,,,,5,,,54,97
44832,note_on,,,,,32,0,14,,,,,6,,,42,97
44832,note_on,,,,,32,0,16,,,,,7,,,54,100
44864,note_off,,,,,128,0,8,,,,,0,,,78,100
44864,note_off,,,,,128,0,10,,,,,2,,,78,100
44896,note_off,,,,,64,0,14,,,,,6,,,42,100
44896,note_off,,,,,64,0,16,,,,,7,,,54,100
44896,note_off,,,,,64,0,13,,,,,5,,,54,100
44928,note_on,,,,,32,0,13,,,,,5,,,59,99
44928,note_on,,,,,320,0,11,,,,,3,,,74,49
44928,note_on,,,,,320,0,12,,,,,4,,,66,99
44928,note_on,,,,,32,0,14,,,,,6,,,47,99
44928,note_on,,,,,0,0,15,,,,,7,,,74,99
44928,note_on,,,,,320,0,9,,,,,1,,,74,99
44928,note_on,,,,,64,0,8,,,,,0,,,78,99
44928,note_on,,,,,320,0,15,,,,,7,,,66,99
44928,note_on,,,,,64,0,10,,,,,2,,,78,49
44928,note_on,,,,,32,0,16,,,,,7,,,59,99
45056,note_off,,,,,128,0,16,,,,,7,,,59,100
45056,note_off,,,,,128,0,8,,,,,0,,,78,100
45056,note_off,,,,,128,0,13,,,,,5,,,59,100
45056,note_off,,,,,128,0,10,,,,,2,,,78,100
45056,note_off,,,,,128,0,14,,,,,6,,,47,100
45120,note_on,,,,,64,0,13,,,,,5,,,47,100
45120,note_on,,,,,64,0,8,,,,,0,,,66,100
45120,note_on,,,,,64,0,10,,,,,2,,,66,50
45120,note_on,,,,,64,0,14,,,,,6,,,35,100
45120,note_on,,,,,64,0,16,,,,,7,,,47,100
45184,note_off,,,,,256,0,11,,,,,3,,,74,100
45184,note_off,,,,,256,0,12,,,,,4,,,66,100
45184,note_off,,,,,64,0,14,,,,,6,,,35,100
45184,note_off,,,,,64,0,13,,,,,5,,,47,100
45184,note_off,,,,,256,0,9,,,,,1,,,74,100
45184,note_off,,,,,64,0,16,,,,,7,,,47,100
45184,note_off,,,,,256,0,15,,,,,7,,,66,100
45184,note_off,,,,,0,0,15,,,,,7,,,74,100
45216,note_on,,,,,32,0,13,,,,,5,,,49,100
45216,note_on,,,,,32,0,16,,,,,7,,,49,100
45216,note_on,,,,,32,0,14,,,,,6,,,37,100
45248,note_off,,,,,128,0,8,,,,,0,,,66,100
45248,note_off,,,,,128,0,10,,,,,2,,,66,100
45280,note_off,,,,,64,0,13,,,,,5,,,49,100
45280,note_off,,,,,64,0,16,,,,,7,,,49,100
45280,note_off,,,,,64,0,14,,,,,6,,,37,100
45312,note_on,,,,,32,0,13,,,,,5,,,50,100
45312,note_on,,,,,64,0,8,,,,,0,,,78,100
45312,note_on,,,,,64,0,10,,,,,2,,,78,50
45312,note_on,,,,,32,0,14,,,,,6,,,38,100
45312,note_on,,,,,32,0,16,,,,,7,,,50,100
45376,note_off,,,,,64,0,14,,,,,6,,,38,100
45376,note_off,,,,,64,0,13,,,,,5,,,50,100
45376,note_off,,,,,64,0,16,,,,,7,,,50,100
45408,note_on,,,,,32,0,13,,,,,5,,,47,100
45408,note_on,,,,,32,0,16,,,,,7,,,47,100
45408,note_on,,,,,32,0,14,,,,,6,,,35,100
45440,note_off,,,,,128,0,8,,,,,0,,,78,100
45440,note_off,,,,,128,0,10,,,,,2,,,78,100
45472,note_off,,,,,64,0,16,,,,,7,,,47,100
45472,note_off,,,,,64,0,14,,,,,6,,,35,100
45472,note_off,,,,,64,0,13,,,,,5,,,47,100
45504,note_on,,,,,64,0,8,,,,,0,,,78,100
45504,note_on,,,,,32,0,16,,,,,7,,,54,100
45504,note_on,,,,,32,0,13,,,,,5,,,54,100
45504,note_on,,,,,320,0,15,,,,,7,,,73,100
45504,note_on,,,,,0,0,15,,,,,7,,,70,100
45504,note_on,,,,,32,0,14,,,,,6,,,42,100
45504,note_on,,,,,320,0,9,,,,,1,,,73,100
45504,note_on,,,,,64,0,10,,,,,2,,,78,50
45504,note_on,,,,,320,0,11,,,,,3,,,73,50
45504,note_on,,,,,320,0,12,,,,,4,,,70,100
45632,note_off,,,,,128,0,13,,,,,5,,,54,100
45632,note_off,,,,,128,0,8,,,,,0,,,78,100
45632,note_off,,,,,128,0,16,,,,,7,,,54,100
45632,note_off,,,,,128,0,10,,,,,2,,,78,100
45632,note_off,,,,,128,0,14,,,,,6,,,42,100
45696,note_on,,,,,64,0,16,,,,,7,,,54,100
45696,note_on,,,,,64,0,10,,,,,2,,,66,50
45696,note_on,,,,,64,0,13,,,,,5,,,54,100
45696,note_on,,,,,64,0,14,,,,,6,,,42,100
45696,note_on,,,,,64,0,8,,,,,0,,,66,100
45760,note_off,,,,,64,0,16,,,,,7,,,54,100
45760,note_off,,,,,64,0,14,,,,,6,,,42,100
45760,note_off,,,,,256,0,12,,,,,4,,,70,100
45760,note_off,,,,,64,0,13,,,,,5,,,54,100
45760,note_off,,,,,256,0,15,,,,,7,,,73,100
45760,note_off,,,,,0,0,15,,,,,7,,,70,100
45760,note_off,,,,,256,0,9,,,,,1,,,73,100
45760,note_off,,,,,256,0,11,,,,,3,,,73,100
45792,note_on,,,,,32,0,13,,,,,5,,,56,100
45792,note_on,,,,,32,0,16,,,,,7,,,56,100
45792,note_on,,,,,32,0,14,,,,,6,,,44,100
45824,note_off,,,,,128,0,8,,,,,0,,,66,100
45824,note_off,,,,,128,0,10,,,,,2,,,66,100
45856,note_off,,,,,64,0,16,,,,,7,,,56,100
45856,note_off,,,,,64,0,13,,,,,5,,,56,100
45856,note_off,,,,,64,0,14,,,,,6,,,44,100
45888,note_on,,,,,64,0,8,,,,,0,,,78,100
45888,note_on,,,,,32,0,16,,,,,7,,,58,100
45888,note_on,,,,,64,0,10,,,,,2,,,78,50
45888,note_on,,,,,32,0,13,,,,,5,,,58,100
45888,note_on,,,,,32,0,14,,,,,6,,,46,100
45952,note_off,,,,,64,0,16,,,,,7,,,58,100
45952,note_off,,,,,64,0,14,,,,,6,,,46,100
45952,note_off,,,,,64,0,13,,,,,5,,,58,100
45984,note_on,,,,,32,0,14,,,,,6,,,42,100
45984,note_on,,,,,32,0,13,,,,,5,,,54,100
45984,note_on,,,,,32,0,16,,,,,7,,,54,100
46016,note_off,,,,,128,0,8,,,,,0,,,78,100
46016,note_off,,,,,128,0,10,,,,,2,,,78,100
46048,note_off,,,,,64,0,14,,,,,6,,,42,100
46048,note_off,,,,,64,0,16,,,,,7,,,54,100
46048,note_off,,,,,64,0,13,,,,,5,,,54,100
46080,note_on,,,,,64,0,8,,,,,0,,,78,100
46080,note_on,,,,,32,0,14,,,,,6,,,47,100
46080,note_on,,,,,64,0,10,,,,,2,,,78,50
46080,note_on,,,,,320,0,15,,,,,7,,,66,100
46080,note_on,,,,,320,0,11,,,,,3,,,74,50
46080,note_on,,,,,0,0,15,,,,,7,,,74,100
46080,note_on,,,,,32,0,16,,,,,7,,,59,100
46080,note_on,,,,,320,0,12,,,,,4,,,66,100
46080,note_on,,,,,320,0,9,,,,,1,,,74,100
46080,note_on,,,,,32,0,13,,,,,5,,,59,100
46208,note_off,,,,,128,0,13,,,,,5,,,59,100
46208,note_off,,,,,128,0,16,,,,,7,,,59,100
46208,note_off,,,,,128,0,14,,,,,6,,,47,100
46208,note_off,,,,,128,0,10,,,,,2,,,78,100
46208,note_off,,,,,128,0,8,,,,,0,,,78,100
46272,note_on,,,,,64,0,13,,,,,5,,,47,100
46272,note_on,,,,,64,0,10,,,,,2,,,66,50
46272,note_on,,,,,64,0,14,,,,,6,,,35,100
46272,note_on,,,,,64,0,8,,,,,0,,,66,100
46272,note_on,,,,,64,0,16,,,,,7,,,47,100
46336,note_off,,,,,256,0,15,,,,,7,,,66,100
46336,note_off,,,,,64,0,14,,,,,6,,,35,100
46336,note_off,,,,,256,0,12,,,,,4,,,66,100
46336,note_off,,,,,0,0,15,,,,,7,,,74,100
46336,note_off,,,,,64,0,13,,,,,5,,,47,100
46336,note_off,,,,,64,0,16,,,,,7,,,47,100
46336,note_off,,,,,256,0,11,,,,,3,,,74,100
46336,note_off,,,,,256,0,9,,,,,1,,,74,100
46368,note_on,,,,,32,0,13,,,,,5,,,49,100
46368,note_on,,,,,32,0,14,,,,,6,,,37,100
46368,note_on,,,,,32,0,16,,,,,7,,,49,100
46400,note_off,,,,,128,0,10,,,,,2,,,66,100
46400,note_off,,,,,128,0,8,,,,,0,,,66,100
46432,note_off,,,,,64,0,13,,,,,5,,,49,100
46432,note_off,,,,,64,0,14,,,,,6,,,37,100
46432,note_off,,,,,64,0,16,,,,,7,,,49,100
46464,note_on,,,,,32,0,16,,,,,7,,,50,100
46464,note_on,,,,,32,0,14,,,,,6,,,38,100
46464,note_on,,,,,64,0,10,,,,,2,,,78,50
46464,note_on,,,,,64,0,8,,,,,0,,,78,100
46464,note_on,,,,,32,0,13,,,,,5,,,50,100
46528,note_off,,,,,64,0,13,,,,,5,,,50,100
46528,note_off,,,,,64,0,14,,,,,6,,,38,100
46528,note_off,,,,,64,0,16,,,,,7,,,50,100
46560,note_on,,,,,32,0,13,,,,,5,,,47,100
46560,note_on,,,,,32,0,16,,,,,7,,,47,100
46560,note_on,,,,,32,0,14,,,,,6,,,35,100
46592,note_off,,,,,128,0,8,,,,,0,,,78,100
46592,note_off,,,,,128,0,10,,,,,2,,,78,100
46624,note_off,,,,,64,0,16,,,,,7,,,47,100
46624,note_off,,,,,64,0,14,,,,,6,,,35,100
46624,note_off,,,,,64,0,13,,,,,5,,,47,100
46656,note_on,,,,,320,0,9,,,,,1,,,73,100
46656,note_on,,,,,320,0,15,,,,,7,,,70,100
46656,note_on,,,,,320,0,12,,,,,4,,,70,100
46656,note_on,,,,,32,0,14,,,,,6,,,42,100
46656,note_on,,,,,64,0,8,,,,,0,,,78,100
46656,note_on,,,,,0,0,15,,,,,7,,,73,100
46656,note_on,,,,,32,0,13,,,,,5,,,54,100
46656,note_on,,,,,32,0,16,,,,,7,,,54,100
46656,note_on,,,,,320,0,11,,,,,3,,,73,50
46656,note_on,,,,,64,0,10,,,,,2,,,78,50
46784,note_off,,,,,128,0,8,,,,,0,,,78,100
46784,note_off,,,,,128,0,10,,,,,2,,,78,100
46784,note_off,,,,,128,0,13,,,,,5,,,54,100
46784,note_off,,,,,128,0,14,,,,,6,,,42,100
46784,note_off,,,,,128,0,16,,,,,7,,,54,100
46848,note_on,,,,,64,0,10,,,,,2,,,66,50
46848,note_on,,,,,64,0,8,,,,,0,,,66,100
46848,note_on,,,,,64,0,13,,,,,5,,,54,100
46848,note_on,,,,,64,0,14,,,,,6,,,42,100
46848,note_on,,,,,64,0,16,,,,,7,,,54,100
46912,note_off,,,,,256,0,11,,,,,3,,,73,100
46912,note_off,,,,,0,0,15,,,,,7,,,73,100
46912,note_off,,,,,256,0,9,,,,,1,,,73,100
46912,note_off,,,,,64,0,16,,,,,7,,,54,100
46912,note_off,,,,,64,0,13,,,,,5,,,54,100
46912,note_off,,,,,64,0,14,,,,,6,,,42,100
46912,note_off,,,,,256,0,15,,,,,7,,,70,100
46912,note_off,,,,,256,0,12,,,,,4,,,70,100
46944,note_on,,,,,32,0,13,,,,,5,,,56,100
46944,note_on,,,,,32,0,14,,,,,6,,,44,100
46944,note_on,,,,,32,0,16,,,,,7,,,56,100
46976,note_off,,,,,128,0,8,,,,,0,,,66,100
46976,note_off,,,,,128,0,10,,,,,2,,,66,100
47008,note_off,,,,,64,0,14,,,,,6,,,44,100
47008,note_off,,,,,64,0,16,,,,,7,,,56,100
47008,note_off,,,,,64,0,13,,,,,5,,,56,100
47040,note_on,,,,,32,0,14,,,,,6,,,46,100
47040,note_on,,,,,64,0,8,,,,,0,,,78,100
47040,note_on,,,,,32,0,13,,,,,5,,,58,100
47040,note_on,,,,,32,0,16,,,,,7,,,58,100
47040,note_on,,,,,64,0,10,,,,,2,,,78,50
47104,note_off,,,,,64,0,16,,,,,7,,,58,100
47104,note_off,,,,,64,0,13,,,,,5,,,58,100
47104,note_off,,,,,64,0,14,,,,,6,,,46,100
47136,note_on,,,,,32,0,13,,,,,5,,,54,100
47136,note_on,,,,,32,0,16,,,,,7,,,54,100
47136,note_on,,,,,32,0,14,,,,,6,,,42,100
47168,note_off,,,,,128,0,10,,,,,2,,,78,100
47168,note_off,,,,,128,0,8,,,,,0,,,78,100
47200,note_off,,,,,64,0,16,,,,,7,,,54,100
47200,note_off,,,,,64,0,14,,,,,6,,,42,100
47200,note_off,,,,,64,0,13,,,,,5,,,54,100
47232,note_on,,,,,32,0,16,,,,,7,,,59,100
47232,note_on,,,,,320,0,11,,,,,3,,,71,50
47232,note_on,,,,,64,0,8,,,,,0,,,74,100
47232,note_on,,,,,32,0,13,,,,,5,,,59,100
47232,note_on,,,,,320,0,9,,,,,1,,,71,100
47232,note_on,,,,,0,0,15,,,,,7,,,66,100
47232,note_on,,,,,320,0,15,,,,,7,,,74,100
47232,note_on,,,,,320,0,12,,,,,4,,,66,100
47232,note_on,,,,,32,0,14,,,,,6,,,47,100
47232,note_on,,,,,64,0,10,,,,,2,,,74,50
47296,note_off,,,,,64,0,16,,,,,7,,,59,100
47296,note_off,,,,,64,0,14,,,,,6,,,47,100
47296,note_off,,,,,64,0,13,,,,,5,,,59,100
47328,note_on,,,,,32,0,13,,,,,5,,,57,100
47328,note_on,,,,,32,0,14,,,,,6,,,45,100
47328,note_on,,,,,32,0,16,,,,,7,,,57,100
47392,note_off,,,,,64,0,16,,,,,7,,,57,100
47392,note_off,,,,,64,0,13,,,,,5,,,57,100
47392,note_off,,,,,64,0,14,,,,,6,,,45,100
47424,note_on,,,,,32,0,13,,,,,5,,,55,100
47424,note_on,,,,,32,0,14,,,,,6,,,43,100
47424,note_on,,,,,32,0,16,,,,,7,,,55,100
47488,note_off,,,,,64,0,14,,,,,6,,,43,100
47488,note_off,,,,,256,0,11,,,,,3,,,71,100
47488,note_off,,,,,64,0,16,,,,,7,,,55,100
47488,note_off,,,,,256,0,8,,,,,0,,,74,100
47488,note_off,,,,,0,0,15,,,,,7,,,66,100
47488,note_off,,,,,256,0,15,,,,,7,,,74,100
47488,note_off,,,,,64,0,13,,,,,5,,,55,100
47488,note_off,,,,,256,0,9,,,,,1,,,71,100
47488,note_off,,,,,256,0,12,,,,,4,,,66,100
47488,note_off,,,,,256,0,10,,,,,2,,,74,100
47520,note_on,,,,,32,0,16,,,,,7,,,54,100
47520,note_on,,,,,32,0,13,,,,,5,,,54,100
47520,note_on,,,,,32,0,14,,,,,6,,,42,100
47584,note_off,,,,,64,0,16,,,,,7,,,54,100
47584,note_off,,,,,64,0,13,,,,,5,,,54,100
47584,note_off,,,,,64,0,14,,,,,6,,,42,100
47616,note_on,,,,,32,0,14,,,,,6,,,40,100
47616,note_on,,,,,32,0,13,,,,,5,,,52,100
47616,note_on,,,,,32,0,16,,,,,7,,,52,100
47680,note_off,,,,,64,0,13,,,,,5,,,52,100
47680,note_off,,,,,64,0,14,,,,,6,,,40,100
47680,note_off,,,,,64,0,16,,,,,7,,,52,100
47712,note_on,,,,,32,0,14,,,,,6,,,38,100
47712,note_on,,,,,32,0,16,,,,,7,,,50,100
47712,note_on,,,,,32,0,13,,,,,5,,,50,100
47776,note_off,,,,,64,0,14,,,,,6,,,38,100
47776,note_off,,,,,64,0,16,,,,,7,,,50,100
47776,note_off,,,,,64,0,13,,,,,5,,,50,100
47808,note_on,,,,,320,0,12,,,,,4,,,67,100
47808,note_on,,,,,32,0,16,,,,,7,,,55,100
47808,note_on,,,,,32,0,13,,,,,5,,,55,100
47808,note_on,,,,,320,0,10,,,,,2,,,76,50
47808,note_on,,,,,320,0,9,,,,,1,,,71,100
47808,note_on,,,,,320,0,11,,,,,3,,,71,50
47808,note_on,,,,,0,0,15,,,,,7,,,71,100
47808,note_on,,,,,320,0,15,,,,,7,,,64,100
47808,note_on,,,,,32,0,14,,,,,6,,,43,100
47808,note_on,,,,,320,0,8,,,,,0,,,76,100
47872,note_off,,,,,64,0,14,,,,,6,,,43,100
47872,note_off,,,,,64,0,16,,,,,7,,,55,100
47872,note_off,,,,,64,0,13,,,,,5,,,55,100
47904,note_on,,,,,32,0,14,,,,,6,,,42,100
47904,note_on,,,,,32,0,13,,,,,5,,,54,100
47904,note_on,,,,,32,0,16,,,,,7,,,54,100
47936,note_off,,,,,128,0,10,,,,,2,,,76,100
47936,note_off,,,,,128,0,8,,,,,0,,,76,100
47968,note_off,,,,,64,0,13,,,,,5,,,54,100
47968,note_off,,,,,64,0,16,,,,,7,,,54,100
47968,note_off,,,,,64,0,14,,,,,6,,,42,100
48000,note_on,,,,,32,0,13,,,,,5,,,52,100
48000,note_on,,,,,64,0,10,,,,,2,,,64,50
48000,note_on,,,,,64,0,8,,,,,0,,,64,100
48000,note_on,,,,,32,0,16,,,,,7,,,52,100
48000,note_on,,,,,32,0,14,,,,,6,,,40,100
48064,note_off,,,,,256,0,9,,,,,1,,,71,100
48064,note_off,,,,,64,0,13,,,,,5,,,52,100
48064,note_off,,,,,0,0,15,,,,,7,,,71,100
48064,note_off,,,,,256,0,11,,,,,3,,,71,100
48064,note_off,,,,,64,0,14,,,,,6,,,40,100
48064,note_off,,,,,256,0,12,,,,,4,,,67,100
48064,note_off,,,,,256,0,15,,,,,7,,,64,100
48064,note_off,,,,,64,0,16,,,,,7,,,52,100
48096,note_on,,,,,32,0,13,,,,,5,,,50,100
48096,note_on,,,,,32,0,16,,,,,7,,,50,100
48096,note_on,,,,,32,0,14,,,,,6,,,38,100
48128,note_off,,,,,128,0,10,,,,,2,,,64,100
48128,note_off,,,,,128,0,8,,,,,0,,,64,100
48160,note_off,,,,,64,0,13,,,,,5,,,50,100
48160,note_off,,,,,64,0,14,,,,,6,,,38,100
48160,note_off,,,,,64,0,16,,,,,7,,,50,100
48192,note_on,,,,,32,0,14,,,,,6,,,37,100
48192,note_on,,,,,32,0,13,,,,,5,,,49,100
48192,note_on,,,,,64,0,10,,,,,2,,,76,50
48192,note_on,,,,,64,0,8,,,,,0,,,76,100
48192,note_on,,,,,32,0,16,,,,,7,,,49,100
48256,note_off,,,,,64,0,14,,,,,6,,,37,100
48256,note_off,,,,,64,0,13,,,,,5,,,49,100
48256,note_off,,,,,64,0,16,,,,,7,,,49,100
48288,note_on,,,,,32,0,14,,,,,6,,,35,100
48288,note_on,,,,,32,0,13,,,,,5,,,47,100
48288,note_on,,,,,32,0,16,,,,,7,,,47,100
48320,note_off,,,,,128,0,10,,,,,2,,,76,100
48320,note_off,,,,,128,0,8,,,,,0,,,76,100
48352,note_off,,,,,64,0,16,,,,,7,,,47,100
48352,note_off,,,,,64,0,14,,,,,6,,,35,100
48352,note_off,,,,,64,0,13,,,,,5,,,47,100
48384,note_on,,,,,320,0,12,,,,,4,,,67,100
48384,note_on,,,,,64,0,8,,,,,0,,,76,100
48384,note_on,,,,,0,0,15,,,,,7,,,71,100
48384,note_on,,,,,64,0,10,,,,,2,,,76,50
48384,note_on,,,,,320,0,15,,,,,7,,,64,100
48384,note_on,,,,,320,0,9,,,,,1,,,71,100
48384,note_on,,,,,32,0,13,,,,,5,,,55,100
48384,note_on,,,,,32,0,14,,,,,6,,,43,100
48384,note_on,,,,,320,0,11,,,,,3,,,71,50
48384,note_on,,,,,32,0,16,,,,,7,,,55,100
48448,note_off,,,,,64,0,13,,,,,5,,,55,100
48448,note_off,,,,,64,0,16,,,,,7,,,55,100
48448,note_off,,,,,64,0,14,,,,,6,,,43,100
48480,note_on,,,,,32,0,13,,,,,5,,,54,100
48480,note_on,,,,,32,0,16,,,,,7,,,54,100
48480,note_on,,,,,32,0,14,,,,,6,,,42,100
48512,note_off,,,,,128,0,8,,,,,0,,,76,100
48512,note_off,,,,,128,0,10,,,,,2,,,76,100
48544,note_off,,,,,64,0,16,,,,,7,,,54,100
48544,note_off,,,,,64,0,14,,,,,6,,,42,100
48544,note_off,,,,,64,0,13,,,,,5,,,54,100
48576,note_on,,,,,32,0,16,,,,,7,,,52,100
48576,note_on,,,,,64,0,8,,,,,0,,,64,100
48576,note_on,,,,,32,0,14,,,,,6,,,40,100
48576,note_on,,,,,64,0,10,,,,,2,,,64,50
48576,note_on,,,,,32,0,13,,,,,5,,,52,100
48640,note_off,,,,,64,0,14,,,,,6,,,40,100
48640,note_off,,,,,64,0,13,,,,,5,,,52,100
48640,note_off,,,,,256,0,15,,,,,7,,,64,100
48640,note_off,,,,,64,0,16,,,,,7,,,52,100
48640,note_off,,,,,256,0,11,,,,,3,,,71,100
48640,note_off,,,,,0,0,15,,,,,7,,,71,100
48640,note_off,,,,,256,0,12,,,,,4,,,67,100
48640,note_off,,,,,256,0,9,,,,,1,,,71,100
48672,note_on,,,,,32,0,13,,,,,5,,,50,100
48672,note_on,,,,,32,0,14,,,,,6,,,38,100
48672,note_on,,,,,32,0,16,,,,,7,,,50,100
48704,note_off,,,,,128,0,8,,,,,0,,,64,100
48704,note_off,,,,,128,0,10,,,,,2,,,64,100
48736,note_off,,,,,64,0,16,,,,,7,,,50,100
48736,note_off,,,,,64,0,14,,,,,6,,,38,100
48736,note_off,,,,,64,0,13,,,,,5,,,50,100
48768,note_on,,,,,32,0,14,,,,,6,,,37,100
48768,note_on,,,,,64,0,10,,,,,2,,,76,50
48768,note_on,,,,,64,0,8,,,,,0,,,76,100
48768,note_on,,,,,32,0,13,,,,,5,,,49,100
48768,note_on,,,,,32,0,16,,,,,7,,,49,100
48832,note_off,,,,,64,0,16,,,,,7,,,49,100
48832,note_off,,,,,64,0,14,,,,,6,,,37,100
48832,note_off,,,,,64,0,13,,,,,5,,,49,100
48864,note_on,,,,,32,0,14,,,,,6,,,35,100
48864,note_on,,,,,32,0,13,,,,,5,,,47,100
48864,note_on,,,,,32,0,16,,,,,7,,,47,100
48896,note_off,,,,,128,0,10,,,,,2,,,76,100
48896,note_off,,,,,128,0,8,,,,,0,,,76,100
48928,note_off,,,,,64,0,14,,,,,6,,,35,100
48928,note_off,,,,,64,0,16,,,,,7,,,47,100
48928,note_off,,,,,64,0,13,,,,,5,,,47,100
48960,note_on,,,,,64,0,10,,,,,2,,,76,50
48960,note_on,,,,,0,0,15,,,,,7,,,71,100
48960,note_on,,,,,320,0,11,,,,,3,,,71,50
48960,note_on,,,,,320,0,15,,,,,7,,,68,100
48960,note_on,,,,,320,0,9,,,,,1,,,71,100
48960,note_on,,,,,320,0,12,,,,,4,,,68,100
48960,note_on,,,,,32,0,14,,,,,6,,,40,100
48960,note_on,,,,,32,0,13,,,,,5,,,52,100
48960,note_on,,,,,64,0,8,,,,,0,,,76,100
48960,note_on,,,,,32,0,16,,,,,7,,,52,100
49024,note_off,,,,,64,0,14,,,,,6,,,40,100
49024,note_off,,,,,64,0,13,,,,,5,,,52,100
49024,note_off,,,,,64,0,16,,,,,7,,,52,100
49056,note_on,,,,,32,0,16,,,,,7,,,50,100
49056,note_on,,,,,32,0,13,,,,,5,,,50,100
49056,note_on,,,,,32,0,14,,,,,6,,,38,100
49088,note_off,,,,,128,0,10,,,,,2,,,76,100
49088,note_off,,,,,128,0,8,,,,,0,,,76,100
49120,note_off,,,,,64,0,13,,,,,5,,,50,100
49120,note_off,,,,,64,0,14,,,,,6,,,38,100
49120,note_off,,,,,64,0,16,,,,,7,,,50,100
49152,note_on,,,,,32,0,14,,,,,6,,,37,100
49152,note_on,,,,,32,0,16,,,,,7,,,49,100
49152,note_on,,,,,64,0,10,,,,,2,,,64,50
49152,note_on,,,,,32,0,13,,,,,5,,,49,100
49152,note_on,,,,,64,0,8,,,,,0,,,64,100
49216,note_off,,,,,64,0,14,,,,,6,,,37,100
49216,note_off,,,,,256,0,11,,,,,3,,,71,100
49216,note_off,,,,,0,0,15,,,,,7,,,71,100
49216,note_off,,,,,256,0,15,,,,,7,,,68,100
49216,note_off,,,,,64,0,16,,,,,7,,,49,100
49216,note_off,,,,,256,0,9,,,,,1,,,71,100
49216,note_off,,,,,256,0,12,,,,,4,,,68,100
49216,note_off,,,,,64,0,13,,,,,5,,,49,100
49248,note_on,,,,,32,0,13,,,,,5,,,47,100
49248,note_on,,,,,32,0,14,,,,,6,,,35,100
49248,note_on,,,,,32,0,16,,,,,7,,,47,100
49280,note_off,,,,,128,0,10,,,,,2,,,64,100
49280,note_off,,,,,128,0,8,,,,,0,,,64,100
49312,note_off,,,,,64,0,14,,,,,6,,,35,100
49312,note_off,,,,,64,0,16,,,,,7,,,47,100
49312,note_off,,,,,64,0,13,,,,,5,,,47,100
49344,note_on,,,,,32,0,16,,,,,7,,,46,100
49344,note_on,,,,,32,0,14,,,,,6,,,34,100
49344,note_on,,,,,32,0,13,,,,,5,,,46,100
49344,note_on,,,,,64,0,8,,,,,0,,,76,100
49344,note_on,,,,,64,0,10,,,,,2,,,76,50
49408,note_off,,,,,64,0,14,,,,,6,,,34,100
49408,note_off,,,,,64,0,13,,,,,5,,,46,100
49408,note_off,,,,,64,0,16,,,,,7,,,46,100
49440,note_on,,,,,32,0,13,,,,,5,,,44,100
49440,note_on,,,,,32,0,16,,,,,7,,,44,100
49440,note_on,,,,,32,0,14,,,,,6,,,32,100
49472,note_off,,,,,128,0,8,,,,,0,,,76,100
49472,note_off,,,,,128,0,10,,,,,2,,,76,100
49504,note_off,,,,,64,0,14,,,,,6,,,32,100
49504,note_off,,,,,64,0,13,,,,,5,,,44,100
49504,note_off,,,,,64,0,16,,,,,7,,,44,100
49536,note_on,,,,,32,0,16,,,,,7,,,42,100
49536,note_on,,,,,32,0,14,,,,,6,,,42,100
49536,note_on,,,,,64,0,10,,,,,2,,,76,50
49536,note_on,,,,,320,0,12,,,,,4,,,70,100
49536,note_on,,,,,0,0,15,,,,,7,,,70,100
49536,note_on,,,,,320,0,9,,,,,1,,,73,100
49536,note_on,,,,,64,0,8,,,,,0,,,76,100
49536,note_on,,,,,32,0,13,,,,,5,,,42,100
49536,note_on,,,,,320,0,11,,,,,3,,,73,50
49536,note_on,,,,,320,0,15,,,,,7,,,64,100
49792,note_off,,,,,256,0,16,,,,,7,,,42,100
49792,note_off,,,,,256,0,12,,,,,4,,,70,100
49792,note_off,,,,,256,0,10,,,,,2,,,76,100
49792,note_off,,,,,256,0,14,,,,,6,,,42,100
49792,note_off,,,,,256,0,15,,,,,7,,,64,100
49792,note_off,,,,,256,0,11,,,,,3,,,73,100
49792,note_off,,,,,0,0,15,,,,,7,,,70,100
49792,note_off,,,,,256,0,8,,,,,0,,,76,100
49792,note_off,,,,,256,0,13,,,,,5,,,42,100
49792,note_off,,,,,256,0,9,,,,,1,,,73,100
49920,note_on,,,,,128,0,12,,,,,4,,,66,100
49920,note_on,,,,,128,0,16,,,,,7,,,47,100
49920,note_on,,,,,128,0,11,,,,,3,,,71,50
49920,note_on,,,,,128,0,13,,,,,5,,,47,100
49920,note_on,,,,,128,0,15,,,,,7,,,74,100
49920,note_on,,,,,128,0,10,,,,,2,,,74,50
49920,note_on,,,,,128,0,14,,,,,6,,,35,100
49920,note_on,,,,,128,0,8,,,,,0,,,74,100
49920,note_on,,,,,128,0,9,,,,,1,,,71,100
49920,note_on,,,,,0,0,15,,,,,7,,,66,100
50048,note_off,,,,,128,0,15,,,,,7,,,74,100
50048,note_off,,,,,0,0,15,,,,,7,,,66,100
50048,note_off,,,,,128,0,12,,,,,4,,,66,100
50048,note_off,,,,,128,0,16,,,,,7,,,47,100
50048,note_off,,,,,128,0,13,,,,,5,,,47,100
50048,note_off,,,,,128,0,14,,,,,6,,,35,100
50112,note_on,,,,,64,0,15,,,,,7,,,74,100
50112,note_on,,,,,0,0,15,,,,,7,,,71,100
50112,note_on,,,,,64,0,16,,,,,7,,,52,100
50112,note_on,,,,,64,0,12,,,,,4,,,67,100
50112,note_on,,,,,64,0,13,,,,,5,,,52,100
50112,note_on,,,,,64,0,14,,,,,6,,,40,100
50176,note_off,,,,,256,0,9,,,,,1,,,71,64
50176,note_off,,,,,256,0,8,,,,,0,,,74,64
50176,note_off,,,,,256,0,10,,,,,2,,,74,100
50176,note_off,,,,,256,0,11,,,,,3,,,71,100
50240,note_off,,,,,128,0,14,,,,,6,,,40,100
50240,note_off,,,,,128,0,12,,,,,4,,,67,100
50240,note_off,,,,,128,0,13,,,,,5,,,52,100
50240,note_off,,,,,0,0,15,,,,,7,,,71,100
50240,note_off,,,,,128,0,15,,,,,7,,,74,100
50240,note_off,,,,,128,0,16,,,,,7,,,52,100
50304,note_on,,,,,64,0,12,,,,,4,,,61,100
50304,note_on,,,,,64,0,16,,,,,7,,,54,100
50304,note_on,,,,,128,0,10,,,,,2,,,73,50
50304,note_on,,,,,128,0,8,,,,,0,,,73,100
50304,note_on,,,,,0,0,15,,,,,7,,,73,100
50304,note_on,,,,,64,0,15,,,,,7,,,71,100
50304,note_on,,,,,128,0,9,,,,,1,,,71,100
50304,note_on,,,,,64,0,14,,,,,6,,,42,100
50304,note_on,,,,,64,0,13,,,,,5,,,54,100
50304,note_on,,,,,128,0,11,,,,,3,,,71,50
50432,note_off,,,,,128,0,16,,,,,7,,,54,100
50432,note_off,,,,,128,0,11,,,,,3,,,71,100
50432,note_off,,,,,0,0,15,,,,,7,,,73,100
50432,note_off,,,,,128,0,15,,,,,7,,,71,100
50432,note_off,,,,,128,0,13,,,,,5,,,54,100
50432,note_off,,,,,128,0,9,,,,,1,,,71,100
50432,note_off,,,,,128,0,14,,,,,6,,,42,100
50432,note_off,,,,,128,0,12,,,,,4,,,61,100
50496,note_on,,,,,64,0,16,,,,,7,,,42,100
50496,note_on,,,,,64,0,13,,,,,5,,,42,100
50496,note_on,,,,,64,0,14,,,,,6,,,42,100
50496,note_on,,,,,64,0,12,,,,,4,,,66,100
50496,note_off,,,,,192,0,8,,,,,0,,,73,100
50496,note_on,,,,,64,0,15,,,,,7,,,61,100
50496,note_on,,,,,0,0,15,,,,,7,,,70,100
50496,note_off,,,,,192,0,10,,,,,2,,,73,100
50496,note_on,,,,,64,0,11,,,,,3,,,70,50
50496,note_on,,,,,64,0,9,,,,,1,,,70,100
50592,note_on,,,,,96,0,8,,,,,0,,,73,100
50592,note_on,,,,,96,0,10,,,,,2,,,73,50
50624,note_off,,,,,128,0,12,,,,,4,,,66,100
50624,note_off,,,,,128,0,16,,,,,7,,,42,100
50624,note_off,,,,,128,0,9,,,,,1,,,70,100
50624,note_off,,,,,128,0,14,,,,,6,,,42,100
50624,note_off,,,,,0,0,15,,,,,7,,,70,100
50624,note_off,,,,,128,0,13,,,,,5,,,42,100
50624,note_off,,,,,128,0,15,,,,,7,,,61,100
50624,note_off,,,,,128,0,11,,,,,3,,,70,100
50656,note_off,,,,,64,0,8,,,,,0,,,73,100
50656,note_off,,,,,64,0,10,,,,,2,,,73,100
50686,program_change,,,,,62,0,9,,,,,1,40,,,
50688,note_on,,,,,2,0,9,,,,,1,,,71,100
50688,note_on,,,,,64,0,14,,,,,6,,,35,100
50688,note_on,,,,,32,0,8,,,,,0,,,71,100
50688,note_on,,,,,64,0,12,,,,,4,,,74,100
50688,note_on,,,,,32,0,10,,,,,2,,,71,50
50688,note_on,,,,,64,0,15,,,,,7,,,71,100
50688,note_on,,,,,0,0,15,,,,,7,,,66,100
50688,note_on,,,,,0,0,15,,,,,7,,,62,100
50688,note_on,,,,,64,0,11,,,,,3,,,71,50
50688,note_on,,,,,64,0,16,,,,,7,,,47,100
50688,note_on,,,,,64,0,13,,,,,5,,,47,100
50752,note_off,,,,,64,0,9,,,,,1,,,71,100
50784,note_on,,,,,32,0,9,,,,,1,,,83,100
50848,note_off,,,,,64,0,9,,,,,1,,,83,100
50880,note_on,,,,,32,0,9,,,,,1,,,81,100
50944,note_off,,,,,256,0,11,,,,,3,,,71,100
50944,note_off,,,,,256,0,16,,,,,7,,,47,100
50944,note_off,,,,,256,0,13,,,,,5,,,47,100
50944,note_off,,,,,0,0,15,,,,,7,,,62,100
50944,note_off,,,,,256,0,8,,,,,0,,,71,100
50944,note_off,,,,,256,0,14,,,,,6,,,35,100
50944,note_off,,,,,256,0,10,,,,,2,,,71,100
50944,note_off,,,,,64,0,9,,,,,1,,,81,100
50944,note_off,,,,,256,0,15,,,,,7,,,71,100
50944,note_off,,,,,0,0,15,,,,,7,,,66,100
50944,note_off,,,,,256,0,12,,,,,4,,,74,100
50976,note_on,,,,,32,0,9,,,,,1,,,79,100
51040,note_off,,,,,64,0,9,,,,,1,,,79,100
51072,note_on,,,,,32,0,9,,,,,1,,,78,100
51136,note_off,,,,,64,0,9,,,,,1,,,78,100
51168,note_on,,,,,32,0,9,,,,,1,,,76,100
51232,note_off,,,,,64,0,9,,,,,1,,,76,100
51264,note_on,,,,,320,0,16,,,,,7,,,47,100
51264,note_on,,,,,320,0,14,,,,,6,,,35,85
51264,note_on,,,,,0,0,15,,,,,7,,,66,100
51264,note_on,,,,,320,0,15,,,,,7,,,62,100
51264,note_on,,,,,320,0,13,,,,,5,,,47,85
51264,note_on,,,,,32,0,9,,,,,1,,,74,100
51328,note_off,,,,,64,0,9,,,,,1,,,74,100
51360,note_on,,,,,32,0,9,,,,,1,,,79,100
51424,note_off,,,,,64,0,9,,,,,1,,,79,100
51456,note_on,,,,,32,0,9,,,,,1,,,78,100
51520,note_off,,,,,256,0,14,,,,,6,,,35,100
51520,note_off,,,,,256,0,16,,,,,7,,,47,100
51520,note_off,,,,,0,0,15,,,,,7,,,66,100
51520,note_off,,,,,256,0,15,,,,,7,,,62,100
51520,note_off,,,,,64,0,9,,,,,1,,,78,100
51520,note_off,,,,,256,0,13,,,,,5,,,47,100
51552,note_on,,,,,32,0,9,,,,,1,,,76,100
51616,note_off,,,,,64,0,9,,,,,1,,,76,100
51648,note_on,,,,,32,0,9,,,,,1,,,74,100
51712,note_off,,,,,64,0,9,,,,,1,,,74,100
51744,note_on,,,,,32,0,9,,,,,1,,,73,100
51808,note_off,,,,,64,0,9,,,,,1,,,73,100
51840,note_on,,,,,320,0,13,,,,,5,,,47,85
51840,note_on,,,,,320,0,15,,,,,7,,,62,100
51840,note_on,,,,,0,0,15,,,,,7,,,66,100
51840,note_on,,,,,320,0,16,,,,,7,,,47,100
51840,note_on,,,,,320,0,14,,,,,6,,,35,85
51840,note_on,,,,,32,0,9,,,,,1,,,71,100
51904,note_off,,,,,64,0,9,,,,,1,,,71,100
51936,note_on,,,,,32,0,9,,,,,1,,,66,100
51968,note_off,,,,,128,0,16,,,,,7,,,47,100
51968,note_off,,,,,128,0,15,,,,,7,,,62,100
51968,note_off,,,,,0,0,15,,,,,7,,,66,100
51968,note_off,,,,,128,0,13,,,,,5,,,47,100
51968,note_off,,,,,128,0,14,,,,,6,,,35,100
52000,note_off,,,,,64,0,9,,,,,1,,,66,100
52032,note_on,,,,,64,0,16,,,,,7,,,59,100
52032,note_on,,,,,64,0,13,,,,,5,,,59,85
52032,note_on,,,,,32,0,9,,,,,1,,,71,100
52032,note_on,,,,,64,0,15,,,,,7,,,74,100
52032,note_on,,,,,64,0,14,,,,,6,,,47,85
52032,note_on,,,,,0,0,15,,,,,7,,,66,100
52096,note_off,,,,,64,0,9,,,,,1,,,71,100
52128,note_on,,,,,32,0,9,,,,,1,,,74,100
52192,note_off,,,,,64,0,9,,,,,1,,,74,100
52224,note_on,,,,,32,0,9,,,,,1,,,73,100
52288,note_off,,,,,256,0,15,,,,,7,,,74,100
52288,note_off,,,,,0,0,15,,,,,7,,,66,100
52288,note_off,,,,,64,0,9,,,,,1,,,73,100
52320,note_on,,,,,32,0,9,,,,,1,,,71,100
52384,note_off,,,,,64,0,9,,,,,1,,,71,100
52416,note_on,,,,,128,0,15,,,,,7,,,64,100
52416,note_on,,,,,0,0,15,,,,,7,,,73,100
52416,note_on,,,,,32,0,9,,,,,1,,,73,100
52480,note_off,,,,,64,0,9,,,,,1,,,73,100
52512,note_on,,,,,32,0,9,,,,,1,,,66,100
52544,note_off,,,,,512,0,13,,,,,5,,,59,100
52544,note_off,,,,,0,0,15,,,,,7,,,73,100
52544,note_off,,,,,512,0,16,,,,,7,,,59,100
52544,note_off,,,,,128,0,15,,,,,7,,,64,100
52544,note_off,,,,,512,0,14,,,,,6,,,47,100
52576,note_off,,,,,64,0,9,,,,,1,,,66,100
52608,note_on,,,,,0,0,15,,,,,7,,,73,100
52608,note_on,,,,,64,0,15,,,,,7,,,70,100
52608,note_on,,,,,64,0,13,,,,,5,,,58,85
52608,note_on,,,,,64,0,16,,,,,7,,,58,100
52608,note_on,,,,,32,0,9,,,,,1,,,73,100
52608,note_on,,,,,64,0,14,,,,,6,,,46,85
52672,note_off,,,,,64,0,9,,,,,1,,,73,100
52704,note_on,,,,,32,0,9,,,,,1,,,76,100
52768,note_off,,,,,64,0,9,,,,,1,,,76,100
52800,note_on,,,,,32,0,9,,,,,1,,,74,100
52864,note_off,,,,,256,0,16,,,,,7,,,58,100
52864,note_off,,,,,0,0,15,,,,,7,,,73,100
52864,note_off,,,,,256,0,15,,,,,7,,,70,100
52864,note_off,,,,,256,0,13,,,,,5,,,58,100
52864,note_off,,,,,64,0,9,,,,,1,,,74,100
52864,note_off,,,,,256,0,14,,,,,6,,,46,100
52896,note_on,,,,,32,0,9,,,,,1,,,73,100
52960,note_off,,,,,64,0,9,,,,,1,,,73,100
52992,note_on,,,,,128,0,13,,,,,5,,,59,85
52992,note_on,,,,,128,0,15,,,,,7,,,66,100
52992,note_on,,,,,0,0,15,,,,,7,,,74,100
52992,note_on,,,,,128,0,16,,,,,7,,,59,100
52992,note_on,,,,,128,0,14,,,,,6,,,47,85
52992,note_on,,,,,32,0,9,,,,,1,,,74,100
53056,note_off,,,,,64,0,9,,,,,1,,,74,100
53088,note_on,,,,,32,0,9,,,,,1,,,71,100
53120,note_off,,,,,0,0,15,,,,,7,,,74,100
53120,note_off,,,,,128,0,15,,,,,7,,,66,100
53120,note_off,,,,,128,0,13,,,,,5,,,59,100
53120,note_off,,,,,128,0,14,,,,,6,,,47,100
53120,note_off,,,,,128,0,16,,,,,7,,,59,100
53152,note_off,,,,,64,0,9,,,,,1,,,71,100
53184,note_on,,,,,64,0,14,,,,,6,,,35,85
53184,note_on,,,,,64,0,16,,,,,7,,,47,100
53184,note_on,,,,,64,0,13,,,,,5,,,47,85
53184,note_on,,,,,0,0,15,,,,,7,,,66,100
53184,note_on,,,,,64,0,15,,,,,7,,,62,100
53184,note_on,,,,,32,0,9,,,,,1,,,74,100
53248,note_off,,,,,64,0,9,,,,,1,,,74,100
53280,note_on,,,,,32,0,9,,,,,1,,,76,100
53312,note_off,,,,,128,0,15,,,,,7,,,62,100
53312,note_off,,,,,0,0,15,,,,,7,,,66,100
53312,note_off,,,,,128,0,13,,,,,5,,,47,100
53312,note_off,,,,,128,0,14,,,,,6,,,35,100
53312,note_off,,,,,128,0,16,,,,,7,,,47,100
53344,note_off,,,,,64,0,9,,,,,1,,,76,100
53376,note_on,,,,,64,0,16,,,,,7,,,59,100
53376,note_on,,,,,64,0,13,,,,,5,,,59,85
53376,note_on,,,,,64,0,15,,,,,7,,,74,100
53376,note_on,,,,,64,0,14,,,,,6,,,47,85
53376,note_on,,,,,32,0,9,,,,,1,,,78,100
53376,note_on,,,,,0,0,15,,,,,7,,,66,100
53440,note_off,,,,,64,0,9,,,,,1,,,78,100
53472,note_on,,,,,32,0,9,,,,,1,,,76,100
53504,note_off,,,,,128,0,13,,,,,5,,,59,100
53504,note_off,,,,,128,0,15,,,,,7,,,74,100
53504,note_off,,,,,128,0,14,,,,,6,,,47,100
53504,note_off,,,,,128,0,16,,,,,7,,,59,100
53504,note_off,,,,,0,0,15,,,,,7,,,66,100
53536,note_off,,,,,64,0,9,,,,,1,,,76,100
53568,note_on,,,,,64,0,13,,,,,5,,,57,85
53568,note_on,,,,,32,0,9,,,,,1,,,75,100
53568,note_on,,,,,0,0,15,,,,,7,,,75,100
53568,note_on,,,,,64,0,14,,,,,6,,,45,85
53568,note_on,,,,,64,0,16,,,,,7,,,57,100
53568,note_on,,,,,64,0,15,,,,,7,,,71,100
53632,note_off,,,,,64,0,9,,,,,1,,,75,100
53664,note_on,,,,,32,0,9,,,,,1,,,71,100
53696,note_off,,,,,128,0,16,,,,,7,,,57,100
53696,note_off,,,,,128,0,15,,,,,7,,,71,100
53696,note_off,,,,,0,0,15,,,,,7,,,75,100
53696,note_off,,,,,128,0,13,,,,,5,,,57,100
53696,note_off,,,,,128,0,14,,,,,6,,,45,100
53728,note_off,,,,,64,0,9,,,,,1,,,71,100
53760,note_on,,,,,64,0,14,,,,,6,,,33,85
53760,note_on,,,,,64,0,13,,,,,5,,,45,85
53760,note_on,,,,,64,0,16,,,,,7,,,45,100
53760,note_on,,,,,32,0,9,,,,,1,,,75,100
53760,note_on,,,,,0,0,15,,,,,7,,,71,100
53760,note_on,,,,,64,0,15,,,,,7,,,63,100
53824,note_off,,,,,64,0,9,,,,,1,,,75,100
53856,note_on,,,,,32,0,9,,,,,1,,,78,100
53888,note_off,,,,,128,0,15,,,,,7,,,63,100
53888,note_off,,,,,0,0,15,,,,,7,,,71,100
53888,note_off,,,,,128,0,14,,,,,6,,,33,100
53888,note_off,,,,,128,0,16,,,,,7,,,45,100
53888,note_off,,,,,128,0,13,,,,,5,,,45,100
53920,note_off,,,,,64,0,9,,,,,1,,,78,100
53952,note_on,,,,,0,0,15,,,,,7,,,71,100
53952,note_on,,,,,64,0,16,,,,,7,,,57,100
53952,note_on,,,,,64,0,15,,,,,7,,,75,100
53952,note_on,,,,,32,0,9,,,,,1,,,76,100
53952,note_on,,,,,64,0,14,,,,,6,,,45,85
53952,note_on,,,,,64,0,13,,,,,5,,,57,85
54016,note_off,,,,,64,0,9,,,,,1,,,76,100
54048,note_on,,,,,32,0,9,,,,,1,,,75,100
54080,note_off,,,,,128,0,16,,,,,7,,,57,100
54080,note_off,,,,,128,0,14,,,,,6,,,45,100
54080,note_off,,,,,128,0,15,,,,,7,,,75,100
54080,note_off,,,,,0,0,15,,,,,7,,,71,100
54080,note_off,,,,,128,0,13,,,,,5,,,57,100
54112,note_off,,,,,64,0,9,,,,,1,,,75,100
54144,note_on,,,,,64,0,13,,,,,5,,,52,100
54144,note_on,,,,,64,0,15,,,,,7,,,71,100
54144,note_on,,,,,0,0,15,,,,,7,,,67,100
54144,note_on,,,,,64,0,14,,,,,6,,,40,100
54144,note_on,,,,,64,0,16,,,,,7,,,52,100
54144,note_on,,,,,32,0,9,,,,,1,,,76,100
54208,note_off,,,,,64,0,9,,,,,1,,,76,100
54240,note_on,,,,,32,0,9,,,,,1,,,71,100
54272,note_off,,,,,0,0,15,,,,,7,,,67,100
54272,note_off,,,,,128,0,13,,,,,5,,,52,100
54272,note_off,,,,,128,0,14,,,,,6,,,40,100
54272,note_off,,,,,128,0,16,,,,,7,,,52,100
54272,note_off,,,,,128,0,15,,,,,7,,,71,100
54304,note_off,,,,,64,0,9,,,,,1,,,71,100
54336,note_on,,,,,0,0,15,,,,,7,,,71,100
54336,note_on,,,,,64,0,15,,,,,7,,,79,100
54336,note_on,,,,,64,0,14,,,,,6,,,52,85
54336,note_on,,,,,64,0,16,,,,,7,,,64,100
54336,note_on,,,,,64,0,13,,,,,5,,,64,85
54336,note_on,,,,,32,0,9,,,,,1,,,76,100
54400,note_off,,,,,64,0,9,,,,,1,,,76,100
54432,note_on,,,,,32,0,9,,,,,1,,,79,100
54496,note_off,,,,,64,0,9,,,,,1,,,79,100
54528,note_on,,,,,32,0,9,,,,,1,,,78,100
54592,note_off,,,,,256,0,15,,,,,7,,,79,100
54592,note_off,,,,,64,0,9,,,,,1,,,78,100
54592,note_off,,,,,0,0,15,,,,,7,,,71,100
54624,note_on,,,,,32,0,9,,,,,1,,,76,100
54688,note_off,,,,,64,0,9,,,,,1,,,76,100
54720,note_on,,,,,128,0,15,,,,,7,,,69,100
54720,note_on,,,,,32,0,9,,,,,1,,,78,100
54720,note_on,,,,,0,0,15,,,,,7,,,78,100
54784,note_off,,,,,64,0,9,,,,,1,,,78,100
54816,note_on,,,,,32,0,9,,,,,1,,,71,100
54848,note_off,,,,,0,0,15,,,,,7,,,78,100
54848,note_off,,,,,128,0,15,,,,,7,,,69,100
54848,note_off,,,,,512,0,16,,,,,7,,,64,100
54848,note_off,,,,,512,0,13,,,,,5,,,64,100
54848,note_off,,,,,512,0,14,,,,,6,,,52,100
54880,note_off,,,,,64,0,9,,,,,1,,,71,100
54912,note_on,,,,,0,0,15,,,,,7,,,69,100
54912,note_on,,,,,32,0,9,,,,,1,,,78,100
54912,note_on,,,,,64,0,13,,,,,5,,,63,85
54912,note_on,,,,,64,0,14,,,,,6,,,51,85
54912,note_on,,,,,64,0,15,,,,,7,,,78,100
54912,note_on,,,,,64,0,16,,,,,7,,,63,100
54976,note_off,,,,,64,0,9,,,,,1,,,78,100
55008,note_on,,,,,32,0,9,,,,,1,,,81,100
55072,note_off,,,,,64,0,9,,,,,1,,,81,100
55104,note_on,,,,,32,0,9,,,,,1,,,79,100
55168,note_off,,,,,256,0,15,,,,,7,,,78,100
55168,note_off,,,,,256,0,13,,,,,5,,,63,100
55168,note_off,,,,,0,0,15,,,,,7,,,69,100
55168,note_off,,,,,256,0,14,,,,,6,,,51,100
55168,note_off,,,,,64,0,9,,,,,1,,,79,100
55168,note_off,,,,,256,0,16,,,,,7,,,63,100
55200,note_on,,,,,32,0,9,,,,,1,,,78,100
55264,note_off,,,,,64,0,9,,,,,1,,,78,100
55296,note_on,,,,,128,0,14,,,,,6,,,52,85
55296,note_on,,,,,0,0,15,,,,,7,,,71,100
55296,note_on,,,,,32,0,9,,,,,1,,,79,100
55296,note_on,,,,,128,0,15,,,,,7,,,79,100
55296,note_on,,,,,128,0,16,,,,,7,,,64,100
55296,note_on,,,,,128,0,13,,,,,5,,,64,85
55360,note_off,,,,,64,0,9,,,,,1,,,79,100
55392,note_on,,,,,32,0,9,,,,,1,,,71,100
55424,note_off,,,,,128,0,13,,,,,5,,,64,100
55424,note_off,,,,,128,0,16,,,,,7,,,64,100
55424,note_off,,,,,128,0,14,,,,,6,,,52,100
55424,note_off,,,,,0,0,15,,,,,7,,,71,100
55424,note_off,,,,,128,0,15,,,,,7,,,79,100
55456,note_off,,,,,64,0,9,,,,,1,,,71,100
55488,note_on,,,,,64,0,16,,,,,7,,,52,100
55488,note_on,,,,,64,0,14,,,,,6,,,40,85
55488,note_on,,,,,32,0,9,,,,,1,,,79,100
55488,note_on,,,,,64,0,13,,,,,5,,,52,85
55488,note_on,,,,,64,0,15,,,,,7,,,67,100
55488,note_on,,,,,0,0,15,,,,,7,,,71,100
55552,note_off,,,,,64,0,9,,,,,1,,,79,100
55584,note_on,,,,,32,0,9,,,,,1,,,83,100
55616,note_off,,,,,128,0,13,,,,,5,,,52,100
55616,note_off,,,,,128,0,14,,,,,6,,,40,100
55616,note_off,,,,,0,0,15,,,,,7,,,71,100
55616,note_off,,,,,128,0,15,,,,,7,,,67,100
55616,note_off,,,,,128,0,16,,,,,7,,,52,100
55648,note_off,,,,,64,0,9,,,,,1,,,83,100
55680,note_on,,,,,64,0,13,,,,,5,,,57,85
55680,note_on,,,,,0,0,15,,,,,7,,,72,100
55680,note_on,,,,,32,0,9,,,,,1,,,81,100
55680,note_on,,,,,64,0,14,,,,,6,,,45,85
55680,note_on,,,,,64,0,16,,,,,7,,,57,100
55680,note_on,,,,,64,0,15,,,,,7,,,76,100
55744,note_off,,,,,64,0,9,,,,,1,,,81,100
55776,note_on,,,,,32,0,9,,,,,1,,,79,100
55808,note_off,,,,,128,0,16,,,,,7,,,57,100
55808,note_off,,,,,0,0,15,,,,,7,,,72,100
55808,note_off,,,,,128,0,14,,,,,6,,,45,100
55808,note_off,,,,,128,0,13,,,,,5,,,57,100
55808,note_off,,,,,128,0,15,,,,,7,,,76,100
55840,note_off,,,,,64,0,9,,,,,1,,,79,100
55872,note_on,,,,,64,0,15,,,,,7,,,66,100
55872,note_on,,,,,64,0,16,,,,,7,,,59,100
55872,note_on,,,,,32,0,9,,,,,1,,,78,100
55872,note_on,,,,,0,0,15,,,,,7,,,75,100
55872,program_change,,,,,4928,0,11,,,,,3,40,,,
55872,note_on,,,,,64,0,13,,,,,5,,,59,85
55872,note_on,,,,,64,0,14,,,,,6,,,47,85
55936,note_off,,,,,64,0,9,,,,,1,,,78,100
55968,note_on,,,,,32,0,9,,,,,1,,,76,100
56032,note_off,,,,,64,0,9,,,,,1,,,76,100
56064,note_off,,,,,192,0,14,,,,,6,,,47,100
56064,note_off,,,,,192,0,16,,,,,7,,,59,100
56064,note_on,,,,,32,0,9,,,,,1,,,75,100
56064,note_off,,,,,192,0,13,,,,,5,,,59,100
56128,note_off,,,,,0,0,15,,,,,7,,,75,100
56128,note_off,,,,,64,0,9,,,,,1,,,75,100
56128,note_off,,,,,256,0,15,,,,,7,,,66,100
56160,note_on,,,,,96,0,16,,,,,7,,,57,100
56160,note_on,,,,,96,0,14,,,,,6,,,45,85
56160,note_on,,,,,32,0,9,,,,,1,,,73,100
56160,note_on,,,,,96,0,13,,,,,5,,,57,85
56224,note_off,,,,,64,0,14,,,,,6,,,45,100
56224,note_off,,,,,64,0,13,,,,,5,,,57,100
56224,note_off,,,,,64,0,16,,,,,7,,,57,100
56224,note_off,,,,,64,0,9,,,,,1,,,73,100
56256,note_on,,,,,128,0,15,,,,,7,,,64,100
56256,note_on,,,,,0,0,15,,,,,7,,,71,100
56256,note_on,,,,,32,0,9,,,,,1,,,71,100
56256,note_on,,,,,32,0,14,,,,,6,,,43,85
56256,note_on,,,,,32,0,16,,,,,7,,,55,100
56256,note_on,,,,,32,0,13,,,,,5,,,55,85
56320,note_off,,,,,64,0,14,,,,,6,,,43,100
56320,note_off,,,,,64,0,13,,,,,5,,,55,100
56320,note_off,,,,,64,0,16,,,,,7,,,55,100
56352,note_on,,,,,32,0,14,,,,,6,,,42,85
56352,note_on,,,,,32,0,16,,,,,7,,,54,100
56352,note_on,,,,,32,0,13,,,,,5,,,54,85
56384,note_off,,,,,128,0,9,,,,,1,,,71,100
56384,note_off,,,,,128,0,15,,,,,7,,,64,100
56384,note_off,,,,,0,0,15,,,,,7,,,71,100
56416,note_off,,,,,64,0,14,,,,,6,,,42,100
56416,note_off,,,,,64,0,13,,,,,5,,,54,100
56416,note_off,,,,,64,0,16,,,,,7,,,54,100
56448,note_on,,,,,576,0,11,,,,,3,,,76,70
56448,note_on,,,,,32,0,13,,,,,5,,,52,60
56448,note_on,,,,,64,0,15,,,,,7,,,71,100
56448,note_on,,,,,32,0,14,,,,,6,,,40,60
56448,note_on,,,,,0,0,15,,,,,7,,,67,100
56448,note_on,,,,,32,0,16,,,,,7,,,52,100
56512,note_off,,,,,64,0,11,,,,,3,,,76,100
56544,note_on,,,,,32,0,11,,,,,3,,,71,70
56576,note_off,,,,,0,0,15,,,,,7,,,67,100
56576,note_off,,,,,128,0,15,,,,,7,,,71,100
56576,note_off,,,,,128,0,16,,,,,7,,,52,100
56576,note_off,,,,,128,0,14,,,,,6,,,40,100
56576,note_off,,,,,128,0,13,,,,,5,,,52,100
56608,note_off,,,,,64,0,11,,,,,3,,,71,100
56640,note_on,,,,,32,0,11,,,,,3,,,76,70
56640,note_on,,,,,64,0,14,,,,,6,,,52,60
56640,note_on,,,,,0,0,15,,,,,7,,,71,100
56640,note_on,,,,,64,0,16,,,,,7,,,64,100
56640,note_on,,,,,64,0,13,,,,,5,,,64,60
56640,note_on,,,,,64,0,15,,,,,7,,,79,100
56704,note_off,,,,,64,0,11,,,,,3,,,76,100
56736,note_on,,,,,32,0,11,,,,,3,,,79,70
56800,note_off,,,,,64,0,11,,,,,3,,,79,100
56832,note_on,,,,,32,0,11,,,,,3,,,78,70
56896,note_off,,,,,64,0,11,,,,,3,,,78,100
56896,note_off,,,,,0,0,15,,,,,7,,,71,100
56896,note_off,,,,,256,0,15,,,,,7,,,79,100
56928,note_on,,,,,32,0,11,,,,,3,,,76,70
56992,note_off,,,,,64,0,11,,,,,3,,,76,100
57024,note_on,,,,,0,0,15,,,,,7,,,78,100
57024,note_on,,,,,32,0,11,,,,,3,,,78,70
57024,note_on,,,,,128,0,15,,,,,7,,,69,100
57088,note_off,,,,,64,0,11,,,,,3,,,78,100
57120,note_on,,,,,32,0,11,,,,,3,,,71,70
57152,note_off,,,,,512,0,13,,,,,5,,,64,100
57152,note_off,,,,,512,0,16,,,,,7,,,64,100
57152,note_off,,,,,0,0,15,,,,,7,,,78,100
57152,note_off,,,,,128,0,15,,,,,7,,,69,100
57152,note_off,,,,,512,0,14,,,,,6,,,52,100
57184,note_off,,,,,64,0,11,,,,,3,,,71,100
57216,note_on,,,,,64,0,14,,,,,6,,,51,60
57216,note_on,,,,,64,0,15,,,,,7,,,78,100
57216,note_on,,,,,64,0,16,,,,,7,,,63,100
57216,note_on,,,,,0,0,15,,,,,7,,,69,100
57216,note_on,,,,,64,0,13,,,,,5,,,63,60
57216,note_on,,,,,32,0,11,,,,,3,,,78,70
57280,note_off,,,,,64,0,11,,,,,3,,,78,100
57312,note_on,,,,,32,0,11,,,,,3,,,81,70
57376,note_off,,,,,64,0,11,,,,,3,,,81,100
57408,note_on,,,,,32,0,11,,,,,3,,,79,70
57472,note_off,,,,,256,0,16,,,,,7,,,63,100
57472,note_off,,,,,256,0,13,,,,,5,,,63,100
57472,note_off,,,,,64,0,11,,,,,3,,,79,100
57472,note_off,,,,,0,0,15,,,,,7,,,69,100
57472,note_off,,,,,256,0,15,,,,,7,,,78,100
57472,note_off,,,,,256,0,14,,,,,6,,,51,100
57504,note_on,,,,,32,0,11,,,,,3,,,78,70
57568,note_off,,,,,64,0,11,,,,,3,,,78,100
57600,note_on,,,,,0,0,15,,,,,7,,,71,100
57600,note_on,,,,,128,0,15,,,,,7,,,79,100
57600,note_on,,,,,32,0,11,,,,,3,,,79,70
57600,note_on,,,,,128,0,16,,,,,7,,,64,100
57600,note_on,,,,,128,0,14,,,,,6,,,52,60
57600,note_on,,,,,128,0,13,,,,,5,,,64,60
57664,note_off,,,,,64,0,11,,,,,3,,,79,100
57696,note_on,,,,,32,0,11,,,,,3,,,71,70
57728,note_off,,,,,128,0,13,,,,,5,,,64,100
57728,note_off,,,,,128,0,16,,,,,7,,,64,100
57728,note_off,,,,,0,0,15,,,,,7,,,71,100
57728,note_off,,,,,128,0,14,,,,,6,,,52,100
57728,note_off,,,,,128,0,15,,,,,7,,,79,100
57760,note_off,,,,,64,0,11,,,,,3,,,71,100
57792,note_on,,,,,32,0,11,,,,,3,,,79,70
57792,note_on,,,,,64,0,14,,,,,6,,,40,60
57792,note_on,,,,,64,0,16,,,,,7,,,52,100
57792,note_on,,,,,0,0,15,,,,,7,,,71,100
57792,note_on,,,,,64,0,15,,,,,7,,,67,100
57792,note_on,,,,,64,0,13,,,,,5,,,52,60
57856,note_off,,,,,64,0,11,,,,,3,,,79,100
57888,note_on,,,,,32,0,11,,,,,3,,,83,70
57920,note_off,,,,,128,0,13,,,,,5,,,52,100
57920,note_off,,,,,128,0,14,,,,,6,,,40,100
57920,note_off,,,,,128,0,15,,,,,7,,,67,100
57920,note_off,,,,,128,0,16,,,,,7,,,52,100
57920,note_off,,,,,0,0,15,,,,,7,,,71,100
57952,note_off,,,,,64,0,11,,,,,3,,,83,100
57984,note_on,,,,,32,0,11,,,,,3,,,81,70
57984,note_on,,,,,64,0,14,,,,,6,,,45,60
57984,note_on,,,,,64,0,16,,,,,7,,,57,100
57984,note_on,,,,,64,0,13,,,,,5,,,57,60
57984,note_on,,,,,64,0,15,,,,,7,,,76,100
57984,note_on,,,,,0,0,15,,,,,7,,,72,100
58048,note_off,,,,,64,0,11,,,,,3,,,81,100
58080,note_on,,,,,32,0,11,,,,,3,,,79,70
58112,note_off,,,,,128,0,14,,,,,6,,,45,100
58112,note_off,,,,,128,0,16,,,,,7,,,57,100
58112,note_off,,,,,0,0,15,,,,,7,,,72,100
58112,note_off,,,,,128,0,13,,,,,5,,,57,100
58112,note_off,,,,,128,0,15,,,,,7,,,76,100
58144,note_off,,,,,64,0,11,,,,,3,,,79,100
58176,note_on,,,,,0,0,15,,,,,7,,,75,100
58176,note_on,,,,,32,0,11,,,,,3,,,78,70
58176,note_on,,,,,64,0,13,,,,,5,,,59,60
58176,note_on,,,,,64,0,16,,,,,7,,,59,100
58176,note_on,,,,,64,0,14,,,,,6,,,47,60
58176,note_on,,,,,64,0,15,,,,,7,,,66,100
58240,note_off,,,,,64,0,11,,,,,3,,,78,100
58272,note_on,,,,,32,0,11,,,,,3,,,76,70
58336,note_off,,,,,64,0,11,,,,,3,,,76,100
58368,note_off,,,,,192,0,16,,,,,7,,,59,100
58368,note_off,,,,,192,0,13,,,,,5,,,59,100
58368,note_on,,,,,32,0,11,,,,,3,,,75,70
58368,note_off,,,,,192,0,14,,,,,6,,,47,100
58432,note_off,,,,,64,0,11,,,,,3,,,75,100
58432,note_off,,,,,256,0,15,,,,,7,,,66,100
58432,note_off,,,,,0,0,15,,,,,7,,,75,100
58464,note_on,,,,,32,0,11,,,,,3,,,73,70
58464,note_on,,,,,96,0,14,,,,,6,,,45,60
58464,note_on,,,,,96,0,16,,,,,7,,,57,100
58464,note_on,,,,,96,0,13,,,,,5,,,57,60
58528,note_off,,,,,64,0,11,,,,,3,,,73,100
58528,note_off,,,,,64,0,16,,,,,7,,,57,100
58528,note_off,,,,,64,0,14,,,,,6,,,45,100
58528,note_off,,,,,64,0,13,,,,,5,,,57,100
58560,note_on,,,,,32,0,11,,,,,3,,,71,70
58560,note_on,,,,,32,0,16,,,,,7,,,55,100
58560,note_on,,,,,32,0,13,,,,,5,,,55,60
58560,note_on,,,,,128,0,15,,,,,7,,,64,100
58560,note_on,,,,,32,0,14,,,,,6,,,43,60
58560,note_on,,,,,0,0,15,,,,,7,,,71,100
58624,note_off,,,,,64,0,13,,,,,5,,,55,100
58624,note_off,,,,,64,0,16,,,,,7,,,55,100
58624,note_off,,,,,64,0,14,,,,,6,,,43,100
58656,note_on,,,,,32,0,14,,,,,6,,,42,60
58656,note_on,,,,,32,0,13,,,,,5,,,54,60
58656,note_on,,,,,32,0,16,,,,,7,,,54,100
58688,note_off,,,,,128,0,15,,,,,7,,,64,100
58688,note_off,,,,,0,0,15,,,,,7,,,71,100
58688,note_off,,,,,128,0,11,,,,,3,,,71,100
58720,note_off,,,,,64,0,14,,,,,6,,,42,100
58720,note_off,,,,,64,0,13,,,,,5,,,54,100
58720,note_off,,,,,64,0,16,,,,,7,,,54,100
58748,program_change,,,,,2364,0,9,,,,,1,48,,,
58750,program_change,,,,,62,0,11,,,,,3,48,,,
58752,note_on,,,,,32,0,14,,,,,6,,,52,85
58752,note_on,,,,,2,0,11,,,,,3,,,76,35
58752,note_on,,,,,7808,0,12,,,,,4,,,71,85
58752,note_on,,,,,7808,0,10,,,,,2,,,79,35
58752,note_on,,,,,7808,0,8,,,,,0,,,79,85
58752,note_on,,,,,64,0,15,,,,,7,,,67,100
58752,note_on,,,,,0,0,15,,,,,7,,,71,100
58752,note_on,,,,,32,0,16,,,,,7,,,64,100
58752,note_on,,,,,32,0,13,,,,,5,,,64,85
58752,note_on,,,,,4,0,9,,,,,1,,,76,85
58880,note_off,,,,,128,0,14,,,,,6,,,52,100
58880,note_off,,,,,128,0,16,,,,,7,,,64,100
58880,note_off,,,,,128,0,9,,,,,1,,,76,100
58880,note_off,,,,,128,0,15,,,,,7,,,67,100
58880,note_off,,,,,0,0,15,,,,,7,,,71,100
58880,note_off,,,,,128,0,12,,,,,4,,,71,100
58880,note_off,,,,,128,0,11,,,,,3,,,76,100
58880,note_off,,,,,128,0,13,,,,,5,,,64,100
58880,note_off,,,,,128,0,10,,,,,2,,,79,100
58880,note_off,,,,,128,0,8,,,,,0,,,79,100
58944,note_on,,,,,64,0,13,,,,,5,,,52,85
58944,note_on,,,,,64,0,16,,,,,7,,,52,100
58944,note_on,,,,,64,0,14,,,,,6,,,40,85
58944,note_on,,,,,64,0,9,,,,,1,,,76,85
58944,note_on,,,,,64,0,15,,,,,7,,,59,100
58944,note_on,,,,,0,0,15,,,,,7,,,67,100
58944,note_on,,,,,64,0,10,,,,,2,,,79,35
58944,note_on,,,,,64,0,8,,,,,0,,,79,85
58944,note_on,,,,,64,0,11,,,,,3,,,76,35
58944,note_on,,,,,64,0,12,,,,,4,,,67,85
59008,note_off,,,,,64,0,8,,,,,0,,,79,100
59008,note_off,,,,,64,0,9,,,,,1,,,76,100
59008,note_off,,,,,64,0,10,,,,,2,,,79,100
59008,note_off,,,,,64,0,11,,,,,3,,,76,100
59040,note_on,,,,,32,0,9,,,,,1,,,75,85
59040,note_on,,,,,32,0,8,,,,,0,,,78,85
59040,note_on,,,,,32,0,10,,,,,2,,,78,35
59040,note_on,,,,,32,0,11,,,,,3,,,75,35
59072,note_off,,,,,128,0,14,,,,,6,,,40,100
59072,note_off,,,,,0,0,15,,,,,7,,,67,100
59072,note_off,,,,,128,0,12,,,,,4,,,67,100
59072,note_off,,,,,128,0,13,,,,,5,,,52,100
59072,note_off,,,,,128,0,16,,,,,7,,,52,100
59072,note_off,,,,,128,0,15,,,,,7,,,59,100
59104,note_off,,,,,64,0,10,,,,,2,,,78,100
59104,note_off,,,,,64,0,11,,,,,3,,,75,100
59104,note_off,,,,,64,0,8,,,,,0,,,78,100
59104,note_off,,,,,64,0,9,,,,,1,,,75,100
59136,note_on,,,,,0,0,15,,,,,7,,,71,100
59136,note_on,,,,,64,0,15,,,,,7,,,67,100
59136,note_on,,,,,64,0,14,,,,,6,,,52,85
59136,note_on,,,,,64,0,13,,,,,5,,,64,85
59136,note_on,,,,,64,0,12,,,,,4,,,64,85
59136,note_on,,,,,32,0,10,,,,,2,,,79,35
59136,note_on,,,,,32,0,11,,,,,3,,,76,35
59136,note_on,,,,,32,0,8,,,,,0,,,79,85
59136,note_on,,,,,64,0,16,,,,,7,,,64,100
59136,note_on,,,,,32,0,9,,,,,1,,,76,85
59200,note_off,,,,,64,0,8,,,,,0,,,79,100
59200,note_off,,,,,64,0,11,,,,,3,,,76,100
59200,note_off,,,,,64,0,10,,,,,2,,,79,100
59200,note_off,,,,,64,0,9,,,,,1,,,76,100
59232,note_on,,,,,32,0,9,,,,,1,,,78,85
59232,note_on,,,,,32,0,8,,,,,0,,,81,85
59232,note_on,,,,,32,0,10,,,,,2,,,81,35
59232,note_on,,,,,32,0,11,,,,,3,,,78,35
59264,note_off,,,,,128,0,14,,,,,6,,,52,100
59264,note_off,,,,,128,0,12,,,,,4,,,64,100
59264,note_off,,,,,0,0,15,,,,,7,,,71,100
59264,note_off,,,,,128,0,16,,,,,7,,,64,100
59264,note_off,,,,,128,0,13,,,,,5,,,64,100
59264,note_off,,,,,128,0,15,,,,,7,,,67,100
59296,note_off,,,,,64,0,11,,,,,3,,,78,100
59296,note_off,,,,,64,0,9,,,,,1,,,78,100
59296,note_off,,,,,64,0,8,,,,,0,,,81,100
59296,note_off,,,,,64,0,10,,,,,2,,,81,100
59328,note_on,,,,,64,0,15,,,,,7,,,66,100
59328,note_on,,,,,64,0,13,,,,,5,,,59,85
59328,note_on,,,,,64,0,12,,,,,4,,,66,85
59328,note_on,,,,,32,0,10,,,,,2,,,78,35
59328,note_on,,,,,32,0,11,,,,,3,,,75,35
59328,note_on,,,,,64,0,14,,,,,6,,,47,85
59328,note_on,,,,,64,0,16,,,,,7,,,59,100
59328,note_on,,,,,32,0,8,,,,,0,,,78,85
59328,note_on,,,,,0,0,15,,,,,7,,,75,100
59328,note_on,,,,,32,0,9,,,,,1,,,75,85
59456,note_off,,,,,128,0,14,,,,,6,,,47,100
59456,note_off,,,,,128,0,10,,,,,2,,,78,100
59456,note_off,,,,,128,0,16,,,,,7,,,59,100
59456,note_off,,,,,128,0,12,,,,,4,,,66,100
59456,note_off,,,,,128,0,11,,,,,3,,,75,100
59456,note_off,,,,,128,0,8,,,,,0,,,78,100
59456,note_off,,,,,128,0,13,,,,,5,,,59,100
59456,note_off,,,,,128,0,15,,,,,7,,,66,100
59456,note_off,,,,,0,0,15,,,,,7,,,75,100
59456,note_off,,,,,128,0,9,,,,,1,,,75,100
59520,note_on,,,,,64,0,8,,,,,0,,,78,85
59520,note_on,,,,,64,0,16,,,,,7,,,47,100
59520,note_on,,,,,64,0,10,,,,,2,,,78,35
59520,note_on,,,,,64,0,14,,,,,6,,,35,85
59520,note_on,,,,,64,0,11,,,,,3,,,75,35
59520,note_on,,,,,0,0,15,,,,,7,,,66,100
59520,note_on,,,,,64,0,9,,,,,1,,,75,85
59520,note_on,,,,,64,0,13,,,,,5,,,47,85
59520,note_on,,,,,64,0,15,,,,,7,,,63,100
59520,note_on,,,,,64,0,12,,,,,4,,,59,85
59584,note_off,,,,,64,0,9,,,,,1,,,75,100
59584,note_off,,,,,64,0,11,,,,,3,,,75,100
59584,note_off,,,,,64,0,8,,,,,0,,,78,100
59584,note_off,,,,,64,0,10,,,,,2,,,78,100
59616,note_on,,,,,32,0,9,,,,,1,,,73,85
59616,note_on,,,,,32,0,10,,,,,2,,,76,35
59616,note_on,,,,,32,0,11,,,,,3,,,73,35
59616,note_on,,,,,32,0,8,,,,,0,,,76,85
59648,note_off,,,,,128,0,15,,,,,7,,,63,100
59648,note_off,,,,,128,0,13,,,,,5,,,47,100
59648,note_off,,,,,128,0,14,,,,,6,,,35,100
59648,note_off,,,,,0,0,15,,,,,7,,,66,100
59648,note_off,,,,,128,0,16,,,,,7,,,47,100
59680,note_off,,,,,64,0,8,,,,,0,,,76,100
59680,note_off,,,,,64,0,10,,,,,2,,,76,100
59680,note_off,,,,,64,0,11,,,,,3,,,73,100
59680,note_off,,,,,64,0,9,,,,,1,,,73,100
59712,note_on,,,,,64,0,14,,,,,6,,,47,85
59712,note_on,,,,,32,0,9,,,,,1,,,75,85
59712,note_on,,,,,32,0,11,,,,,3,,,75,35
59712,note_on,,,,,64,0,16,,,,,7,,,59,100
59712,note_on,,,,,0,0,15,,,,,7,,,75,100
59712,note_on,,,,,64,0,15,,,,,7,,,66,100
59712,note_on,,,,,32,0,10,,,,,2,,,78,35
59712,note_on,,,,,32,0,8,,,,,0,,,78,85
59712,note_on,,,,,64,0,13,,,,,5,,,59,85
59776,note_off,,,,,64,0,8,,,,,0,,,78,100
59776,note_off,,,,,64,0,11,,,,,3,,,75,100
59776,note_off,,,,,64,0,10,,,,,2,,,78,100
59776,note_off,,,,,256,0,12,,,,,4,,,59,100
59776,note_off,,,,,64,0,9,,,,,1,,,75,100
59808,note_on,,,,,32,0,11,,,,,3,,,76,35
59808,note_on,,,,,32,0,9,,,,,1,,,76,85
59808,note_on,,,,,32,0,10,,,,,2,,,79,35
59808,note_on,,,,,32,0,8,,,,,0,,,79,85
59840,note_off,,,,,128,0,13,,,,,5,,,59,100
59840,note_off,,,,,128,0,14,,,,,6,,,47,100
59840,note_off,,,,,128,0,16,,,,,7,,,59,100
59840,note_off,,,,,128,0,15,,,,,7,,,66,100
59840,note_off,,,,,0,0,15,,,,,7,,,75,100
59872,note_off,,,,,64,0,9,,,,,1,,,76,100
59872,note_off,,,,,64,0,10,,,,,2,,,79,100
59872,note_off,,,,,64,0,11,,,,,3,,,76,100
59872,note_off,,,,,64,0,8,,,,,0,,,79,100
59904,note_on,,,,,128,0,12,,,,,4,,,75,85
59904,note_on,,,,,32,0,9,,,,,1,,,78,85
59904,note_on,,,,,32,0,8,,,,,0,,,81,85
59904,note_on,,,,,64,0,16,,,,,7,,,59,100
59904,note_on,,,,,64,0,14,,,,,6,,,47,85
59904,note_on,,,,,64,0,13,,,,,5,,,59,85
59904,note_on,,,,,32,0,11,,,,,3,,,78,35
59904,note_on,,,,,32,0,10,,,,,2,,,81,35
59904,note_on,,,,,64,0,15,,,,,7,,,75,100
59904,note_on,,,,,0,0,15,,,,,7,,,69,100
59904,note_on,,,,,0,0,15,,,,,7,,,66,100
60032,note_off,,,,,0,0,15,,,,,7,,,69,100
60032,note_off,,,,,128,0,10,,,,,2,,,81,100
60032,note_off,,,,,128,0,9,,,,,1,,,78,100
60032,note_off,,,,,128,0,12,,,,,4,,,75,100
60032,note_off,,,,,128,0,11,,,,,3,,,78,100
60032,note_off,,,,,128,0,16,,,,,7,,,59,100
60032,note_off,,,,,0,0,15,,,,,7,,,66,100
60032,note_off,,,,,128,0,8,,,,,0,,,81,100
60032,note_off,,,,,128,0,14,,,,,6,,,47,100
60032,note_off,,,,,128,0,15,,,,,7,,,75,100
60032,note_off,,,,,128,0,13,,,,,5,,,59,100
60096,note_on,,,,,64,0,14,,,,,6,,,35,85
60096,note_on,,,,,64,0,8,,,,,0,,,81,85
60096,note_on,,,,,64,0,16,,,,,7,,,47,100
60096,note_on,,,,,64,0,13,,,,,5,,,47,85
60096,note_on,,,,,64,0,9,,,,,1,,,78,85
60096,note_on,,,,,0,0,15,,,,,7,,,66,100
60096,note_on,,,,,64,0,15,,,,,7,,,63,100
60096,note_on,,,,,64,0,12,,,,,4,,,71,85
60096,note_on,,,,,64,0,11,,,,,3,,,78,35
60096,note_on,,,,,64,0,10,,,,,2,,,81,35
60160,note_off,,,,,64,0,8,,,,,0,,,81,100
60160,note_off,,,,,64,0,9,,,,,1,,,78,100
60160,note_off,,,,,64,0,11,,,,,3,,,78,100
60160,note_off,,,,,64,0,10,,,,,2,,,81,100
60192,note_on,,,,,32,0,10,,,,,2,,,79,35
60192,note_on,,,,,32,0,9,,,,,1,,,76,85
60192,note_on,,,,,32,0,11,,,,,3,,,76,35
60192,note_on,,,,,32,0,8,,,,,0,,,79,85
60224,note_off,,,,,128,0,15,,,,,7,,,63,100
60224,note_off,,,,,128,0,16,,,,,7,,,47,100
60224,note_off,,,,,128,0,13,,,,,5,,,47,100
60224,note_off,,,,,0,0,15,,,,,7,,,66,100
60224,note_off,,,,,128,0,14,,,,,6,,,35,100
60224,note_off,,,,,128,0,12,,,,,4,,,71,100
60256,note_off,,,,,64,0,10,,,,,2,,,79,100
60256,note_off,,,,,64,0,11,,,,,3,,,76,100
60256,note_off,,,,,64,0,9,,,,,1,,,76,100
60256,note_off,,,,,64,0,8,,,,,0,,,79,100
60288,note_on,,,,,64,0,13,,,,,5,,,59,85
60288,note_on,,,,,64,0,14,,,,,6,,,47,85
60288,note_on,,,,,0,0,15,,,,,7,,,66,100
60288,note_on,,,,,64,0,15,,,,,7,,,69,100
60288,note_on,,,,,32,0,10,,,,,2,,,81,35
60288,note_on,,,,,32,0,9,,,,,1,,,78,85
60288,note_on,,,,,64,0,12,,,,,4,,,66,85
60288,note_on,,,,,32,0,8,,,,,0,,,81,85
60288,note_on,,,,,32,0,11,,,,,3,,,78,35
60288,note_on,,,,,0,0,15,,,,,7,,,75,100
60288,note_on,,,,,64,0,16,,,,,7,,,59,100
60352,note_off,,,,,64,0,9,,,,,1,,,78,100
60352,note_off,,,,,64,0,8,,,,,0,,,81,100
60352,note_off,,,,,64,0,10,,,,,2,,,81,100
60352,note_off,,,,,64,0,11,,,,,3,,,78,100
60384,note_on,,,,,32,0,8,,,,,0,,,83,85
60384,note_on,,,,,32,0,10,,,,,2,,,83,35
60384,note_on,,,,,32,0,11,,,,,3,,,79,35
60384,note_on,,,,,32,0,9,,,,,1,,,79,85
60416,note_off,,,,,128,0,12,,,,,4,,,66,100
60416,note_off,,,,,128,0,14,,,,,6,,,47,100
60416,note_off,,,,,0,0,15,,,,,7,,,66,100
60416,note_off,,,,,0,0,15,,,,,7,,,75,100
60416,note_off,,,,,128,0,15,,,,,7,,,69,100
60416,note_off,,,,,128,0,16,,,,,7,,,59,100
60416,note_off,,,,,128,0,13,,,,,5,,,59,100
60448,note_off,,,,,64,0,11,,,,,3,,,79,100
60448,note_off,,,,,64,0,9,,,,,1,,,79,100
60448,note_off,,,,,64,0,8,,,,,0,,,83,100
60448,note_off,,,,,64,0,10,,,,,2,,,83,100
60480,note_on,,,,,32,0,10,,,,,2,,,79,35
60480,note_on,,,,,64,0,15,,,,,7,,,67,100
60480,note_on,,,,,32,0,11,,,,,3,,,76,35
60480,note_on,,,,,64,0,14,,,,,6,,,52,85
60480,note_on,,,,,32,0,9,,,,,1,,,76,85
60480,note_on,,,,,64,0,12,,,,,4,,,67,85
60480,note_on,,,,,0,0,15,,,,,7,,,71,100
60480,note_on,,,,,64,0,16,,,,,7,,,64,100
60480,note_on,,,,,32,0,8,,,,,0,,,79,85
60480,note_on,,,,,64,0,13,,,,,5,,,64,85
60608,note_off,,,,,0,0,15,,,,,7,,,71,100
60608,note_off,,,,,128,0,15,,,,,7,,,67,100
60608,note_off,,,,,128,0,10,,,,,2,,,79,100
60608,note_off,,,,,128,0,16,,,,,7,,,64,100
60608,note_off,,,,,128,0,9,,,,,1,,,76,100
60608,note_off,,,,,128,0,13,,,,,5,,,64,100
60608,note_off,,,,,128,0,8,,,,,0,,,79,100
60608,note_off,,,,,128,0,14,,,,,6,,,52,100
60608,note_off,,,,,128,0,12,,,,,4,,,67,100
60608,note_off,,,,,128,0,11,,,,,3,,,76,100
60672,note_on,,,,,64,0,10,,,,,2,,,79,35
60672,note_on,,,,,64,0,8,,,,,0,,,79,85
60672,note_on,,,,,64,0,9,,,,,1,,,76,85
60672,note_on,,,,,64,0,11,,,,,3,,,76,35
60672,note_on,,,,,64,0,15,,,,,7,,,59,100
60672,note_on,,,,,64,0,12,,,,,4,,,59,85
60672,note_on,,,,,64,0,14,,,,,6,,,40,85
60672,note_on,,,,,64,0,13,,,,,5,,,52,85
60672,note_on,,,,,0,0,15,,,,,7,,,67,100
60672,note_on,,,,,64,0,16,,,,,7,,,52,100
60736,note_off,,,,,64,0,10,,,,,2,,,79,100
60736,note_off,,,,,64,0,9,,,,,1,,,76,100
60736,note_off,,,,,64,0,8,,,,,0,,,79,100
60736,note_off,,,,,64,0,11,,,,,3,,,76,100
60768,note_on,,,,,32,0,8,,,,,0,,,78,85
60768,note_on,,,,,32,0,9,,,,,1,,,75,85
60768,note_on,,,,,32,0,11,,,,,3,,,75,35
60768,note_on,,,,,32,0,10,,,,,2,,,78,35
60800,note_off,,,,,128,0,13,,,,,5,,,52,100
60800,note_off,,,,,128,0,14,,,,,6,,,40,100
60800,note_off,,,,,128,0,16,,,,,7,,,52,100
60800,note_off,,,,,128,0,15,,,,,7,,,59,100
60800,note_off,,,,,0,0,15,,,,,7,,,67,100
60832,note_off,,,,,64,0,11,,,,,3,,,75,100
60832,note_off,,,,,64,0,9,,,,,1,,,75,100
60832,note_off,,,,,64,0,8,,,,,0,,,78,100
60832,note_off,,,,,64,0,10,,,,,2,,,78,100
60864,note_on,,,,,32,0,11,,,,,3,,,76,35
60864,note_on,,,,,64,0,14,,,,,6,,,52,85
60864,note_on,,,,,32,0,10,,,,,2,,,79,35
60864,note_on,,,,,32,0,9,,,,,1,,,76,85
60864,note_on,,,,,32,0,8,,,,,0,,,79,85
60864,note_on,,,,,64,0,16,,,,,7,,,64,100
60864,note_on,,,,,64,0,13,,,,,5,,,64,85
60864,note_on,,,,,0,0,15,,,,,7,,,67,100
60864,note_on,,,,,64,0,15,,,,,7,,,71,100
60928,note_off,,,,,64,0,8,,,,,0,,,79,100
60928,note_off,,,,,64,0,9,,,,,1,,,76,100
60928,note_off,,,,,256,0,12,,,,,4,,,59,100
60928,note_off,,,,,64,0,11,,,,,3,,,76,100
60928,note_off,,,,,64,0,10,,,,,2,,,79,100
60960,note_on,,,,,32,0,8,,,,,0,,,81,85
60960,note_on,,,,,32,0,9,,,,,1,,,78,85
60960,note_on,,,,,32,0,11,,,,,3,,,78,35
60960,note_on,,,,,32,0,10,,,,,2,,,81,35
60992,note_off,,,,,128,0,14,,,,,6,,,52,100
60992,note_off,,,,,128,0,15,,,,,7,,,71,100
60992,note_off,,,,,0,0,15,,,,,7,,,67,100
60992,note_off,,,,,128,0,16,,,,,7,,,64,100
60992,note_off,,,,,128,0,13,,,,,5,,,64,100
61024,note_off,,,,,64,0,10,,,,,2,,,81,100
61024,note_off,,,,,64,0,8,,,,,0,,,81,100
61024,note_off,,,,,64,0,11,,,,,3,,,78,100
61024,note_off,,,,,64,0,9,,,,,1,,,78,100
61056,note_on,,,,,64,0,13,,,,,5,,,64,85
61056,note_on,,,,,0,0,15,,,,,7,,,71,100
61056,note_on,,,,,32,0,8,,,,,0,,,83,85
61056,note_on,,,,,32,0,9,,,,,1,,,79,85
61056,note_on,,,,,64,0,15,,,,,7,,,67,100
61056,note_on,,,,,32,0,11,,,,,3,,,79,35
61056,note_on,,,,,64,0,14,,,,,6,,,52,85
61056,note_on,,,,,128,0,12,,,,,4,,,71,85
61056,note_on,,,,,64,0,16,,,,,7,,,64,100
61056,note_on,,,,,32,0,10,,,,,2,,,83,35
61184,note_off,,,,,128,0,8,,,,,0,,,83,100
61184,note_off,,,,,128,0,13,,,,,5,,,64,100
61184,note_off,,,,,128,0,9,,,,,1,,,79,100
61184,note_off,,,,,128,0,12,,,,,4,,,71,100
61184,note_off,,,,,128,0,16,,,,,7,,,64,100
61184,note_off,,,,,128,0,11,,,,,3,,,79,100
61184,note_off,,,,,128,0,10,,,,,2,,,83,100
61184,note_off,,,,,0,0,15,,,,,7,,,71,100
61184,note_off,,,,,128,0,15,,,,,7,,,67,100
61184,note_off,,,,,128,0,14,,,,,6,,,52,100
61248,note_on,,,,,64,0,12,,,,,4,,,67,85
61248,note_on,,,,,64,0,14,,,,,6,,,40,85
61248,note_on,,,,,64,0,13,,,,,5,,,52,85
61248,note_on,,,,,0,0,15,,,,,7,,,67,100
61248,note_on,,,,,64,0,15,,,,,7,,,59,100
61248,note_on,,,,,64,0,10,,,,,2,,,81,35
61248,note_on,,,,,64,0,11,,,,,3,,,78,35
61248,note_on,,,,,64,0,16,,,,,7,,,52,100
61248,note_on,,,,,64,0,8,,,,,0,,,81,85
61248,note_on,,,,,64,0,9,,,,,1,,,78,85
61312,note_off,,,,,64,0,8,,,,,0,,,81,100
61312,note_off,,,,,64,0,10,,,,,2,,,81,100
61312,note_off,,,,,64,0,9,,,,,1,,,78,100
61312,note_off,,,,,64,0,11,,,,,3,,,78,100
61344,note_on,,,,,32,0,11,,,,,3,,,79,35
61344,note_on,,,,,32,0,8,,,,,0,,,83,85
61344,note_on,,,,,32,0,10,,,,,2,,,83,35
61344,note_on,,,,,32,0,9,,,,,1,,,79,85
61376,note_off,,,,,128,0,12,,,,,4,,,67,100
61376,note_off,,,,,128,0,13,,,,,5,,,52,100
61376,note_off,,,,,128,0,16,,,,,7,,,52,100
61376,note_off,,,,,128,0,14,,,,,6,,,40,100
61376,note_off,,,,,0,0,15,,,,,7,,,67,100
61376,note_off,,,,,128,0,15,,,,,7,,,59,100
61408,note_off,,,,,64,0,11,,,,,3,,,79,100
61408,note_off,,,,,64,0,8,,,,,0,,,83,100
61408,note_off,,,,,64,0,10,,,,,2,,,83,100
61408,note_off,,,,,64,0,9,,,,,1,,,79,100
61440,note_on,,,,,32,0,8,,,,,0,,,81,85
61440,note_on,,,,,32,0,10,,,,,2,,,81,35
61440,note_on,,,,,64,0,12,,,,,4,,,64,85
61440,note_on,,,,,32,0,9,,,,,1,,,78,85
61440,note_on,,,,,64,0,14,,,,,6,,,45,85
61440,note_on,,,,,64,0,15,,,,,7,,,67,100
61440,note_on,,,,,0,0,15,,,,,7,,,64,100
61440,note_on,,,,,64,0,16,,,,,7,,,57,100
61440,note_on,,,,,32,0,11,,,,,3,,,78,35
61440,note_on,,,,,64,0,13,,,,,5,,,57,85
61504,note_off,,,,,64,0,8,,,,,0,,,81,100
61504,note_off,,,,,64,0,11,,,,,3,,,78,100
61504,note_off,,,,,64,0,9,,,,,1,,,78,100
61504,note_off,,,,,64,0,10,,,,,2,,,81,100
61536,note_on,,,,,32,0,9,,,,,1,,,76,85
61536,note_on,,,,,32,0,8,,,,,0,,,79,85
61536,note_on,,,,,32,0,10,,,,,2,,,79,35
61536,note_on,,,,,32,0,11,,,,,3,,,76,35
61568,note_off,,,,,128,0,15,,,,,7,,,67,100
61568,note_off,,,,,128,0,16,,,,,7,,,57,100
61568,note_off,,,,,128,0,12,,,,,4,,,64,100
61568,note_off,,,,,0,0,15,,,,,7,,,64,100
61568,note_off,,,,,128,0,14,,,,,6,,,45,100
61568,note_off,,,,,128,0,13,,,,,5,,,57,100
61600,note_off,,,,,64,0,8,,,,,0,,,79,100
61600,note_off,,,,,64,0,10,,,,,2,,,79,100
61600,note_off,,,,,64,0,11,,,,,3,,,76,100
61600,note_off,,,,,64,0,9,,,,,1,,,76,100
61632,note_on,,,,,64,0,14,,,,,6,,,47,85
61632,note_on,,,,,32,0,8,,,,,0,,,78,85
61632,note_on,,,,,32,0,9,,,,,1,,,75,85
61632,note_on,,,,,32,0,10,,,,,2,,,78,35
61632,note_on,,,,,64,0,15,,,,,7,,,75,100
61632,note_on,,,,,0,0,15,,,,,7,,,66,100
61632,note_on,,,,,64,0,13,,,,,5,,,59,85
61632,note_on,,,,,32,0,11,,,,,3,,,75,35
61632,note_on,,,,,64,0,12,,,,,4,,,59,85
61632,note_on,,,,,64,0,16,,,,,7,,,59,100
61696,note_off,,,,,64,0,9,,,,,1,,,75,100
61696,note_off,,,,,64,0,8,,,,,0,,,78,100
61696,note_off,,,,,64,0,10,,,,,2,,,78,100
61696,note_off,,,,,64,0,11,,,,,3,,,75,100
61728,note_on,,,,,32,0,10,,,,,2,,,76,35
61728,note_on,,,,,32,0,11,,,,,3,,,73,35
61728,note_on,,,,,32,0,8,,,,,0,,,76,85
61728,note_on,,,,,32,0,9,,,,,1,,,73,85
61760,note_off,,,,,128,0,13,,,,,5,,,59,100
61760,note_off,,,,,128,0,14,,,,,6,,,47,100
61760,note_off,,,,,128,0,15,,,,,7,,,75,100
61760,note_off,,,,,0,0,15,,,,,7,,,66,100
61760,note_off,,,,,128,0,16,,,,,7,,,59,100
61792,note_off,,,,,64,0,9,,,,,1,,,73,100
61792,note_off,,,,,64,0,8,,,,,0,,,76,100
61792,note_off,,,,,64,0,10,,,,,2,,,76,100
61792,note_off,,,,,64,0,11,,,,,3,,,73,100
61824,note_on,,,,,32,0,11,,,,,3,,,75,35
61824,note_on,,,,,64,0,15,,,,,7,,,63,100
61824,note_on,,,,,0,0,15,,,,,7,,,66,100
61824,note_on,,,,,64,0,14,,,,,6,,,35,85
61824,note_on,,,,,64,0,13,,,,,5,,,47,85
61824,note_on,,,,,32,0,8,,,,,0,,,78,85
61824,note_on,,,,,32,0,9,,,,,1,,,75,85
61824,note_on,,,,,64,0,16,,,,,7,,,47,100
61824,note_on,,,,,32,0,10,,,,,2,,,78,35
61888,note_off,,,,,64,0,10,,,,,2,,,78,100
61888,note_off,,,,,64,0,8,,,,,0,,,78,100
61888,note_off,,,,,64,0,11,,,,,3,,,75,100
61888,note_off,,,,,64,0,9,,,,,1,,,75,100
61920,note_on,,,,,32,0,9,,,,,1,,,76,85
61920,note_on,,,,,32,0,11,,,,,3,,,76,35
61920,note_on,,,,,32,0,10,,,,,2,,,79,35
61920,note_on,,,,,32,0,8,,,,,0,,,79,85
61984,note_off,,,,,64,0,11,,,,,3,,,76,100
61984,note_off,,,,,64,0,8,,,,,0,,,79,100
61984,note_off,,,,,64,0,9,,,,,1,,,76,100
61984,note_off,,,,,64,0,10,,,,,2,,,79,100
62016,note_on,,,,,32,0,11,,,,,3,,,75,35
62016,note_on,,,,,32,0,8,,,,,0,,,78,85
62016,note_on,,,,,32,0,9,,,,,1,,,75,85
62016,note_on,,,,,32,0,10,,,,,2,,,78,35
62016,note_off,,,,,384,0,12,,,,,4,,,59,100
62080,note_off,,,,,256,0,13,,,,,5,,,47,100
62080,note_off,,,,,256,0,16,,,,,7,,,47,100
62080,note_off,,,,,0,0,15,,,,,7,,,66,100
62080,note_off,,,,,256,0,15,,,,,7,,,63,100
62080,note_off,,,,,256,0,14,,,,,6,,,35,100
62144,note_off,,,,,128,0,9,,,,,1,,,75,100
62144,note_off,,,,,128,0,8,,,,,0,,,78,100
62144,note_off,,,,,128,0,11,,,,,3,,,75,100
62144,note_off,,,,,128,0,10,,,,,2,,,78,100
62204,program_change,,,,,60,0,8,,,,,0,40,,,
62204,program_change,,,,,60,0,9,,,,,1,40,,,
62208,note_on,,,,,4,0,8,,,,,0,,,83,100
62208,note_on,,,,,128,0,14,,,,,6,,,40,85
62208,note_on,,,,,0,0,15,,,,,7,,,71,100
62208,note_on,,,,,128,0,15,,,,,7,,,67,100
62208,note_on,,,,,128,0,13,,,,,5,,,52,85
62208,note_on,,,,,128,0,16,,,,,7,,,52,100
62272,note_off,,,,,64,0,8,,,,,0,,,83,100
62304,note_on,,,,,32,0,8,,,,,0,,,81,100
62336,note_off,,,,,0,0,15,,,,,7,,,71,100
62336,note_off,,,,,128,0,15,,,,,7,,,67,100
62336,note_off,,,,,128,0,14,,,,,6,,,40,100
62336,note_off,,,,,128,0,16,,,,,7,,,52,100
62336,note_off,,,,,128,0,13,,,,,5,,,52,100
62368,note_off,,,,,64,0,8,,,,,0,,,81,100
62400,note_on,,,,,0,0,15,,,,,7,,,67,100
62400,note_on,,,,,64,0,15,,,,,7,,,59,100
62400,note_on,,,,,64,0,14,,,,,6,,,40,85
62400,note_on,,,,,32,0,8,,,,,0,,,79,100
62400,note_on,,,,,64,0,13,,,,,5,,,40,85
62400,note_on,,,,,64,0,16,,,,,7,,,40,100
62464,note_off,,,,,64,0,8,,,,,0,,,79,100
62496,note_on,,,,,32,0,8,,,,,0,,,78,100
62528,note_off,,,,,128,0,16,,,,,7,,,40,100
62528,note_off,,,,,128,0,13,,,,,5,,,40,100
62528,note_off,,,,,0,0,15,,,,,7,,,67,100
62528,note_off,,,,,128,0,15,,,,,7,,,59,100
62528,note_off,,,,,128,0,14,,,,,6,,,40,100
62560,note_off,,,,,64,0,8,,,,,0,,,78,100
62592,note_on,,,,,64,0,13,,,,,5,,,52,85
62592,note_on,,,,,64,0,16,,,,,7,,,52,100
62592,note_on,,,,,64,0,14,,,,,6,,,40,85
62592,note_on,,,,,32,0,8,,,,,0,,,76,100
62592,note_on,,,,,64,0,15,,,,,7,,,71,100
62592,note_on,,,,,0,0,15,,,,,7,,,67,100
62656,note_off,,,,,64,0,8,,,,,0,,,76,100
62688,note_on,,,,,32,0,8,,,,,0,,,74,100
62720,note_off,,,,,128,0,16,,,,,7,,,52,100
62720,note_off,,,,,128,0,13,,,,,5,,,52,100
62720,note_off,,,,,128,0,14,,,,,6,,,40,100
62720,note_off,,,,,0,0,15,,,,,7,,,67,100
62720,note_off,,,,,128,0,15,,,,,7,,,71,100
62752,note_off,,,,,64,0,8,,,,,0,,,74,100
62784,note_on,,,,,64,0,14,,,,,6,,,45,85
62784,note_on,,,,,64,0,15,,,,,7,,,72,100
62784,note_on,,,,,0,0,15,,,,,7,,,76,100
62784,note_on,,,,,580,0,9,,,,,1,,,76,100
62784,note_on,,,,,64,0,16,,,,,7,,,57,100
62784,note_on,,,,,64,0,13,,,,,5,,,57,85
62784,note_on,,,,,32,0,8,,,,,0,,,72,100
62848,note_off,,,,,64,0,9,,,,,1,,,76,100
62880,note_on,,,,,32,0,9,,,,,1,,,74,100
62912,note_off,,,,,128,0,13,,,,,5,,,57,100
62912,note_off,,,,,128,0,16,,,,,7,,,57,100
62912,note_off,,,,,128,0,8,,,,,0,,,72,100
62912,note_off,,,,,128,0,14,,,,,6,,,45,100
62912,note_off,,,,,0,0,15,,,,,7,,,76,100
62912,note_off,,,,,128,0,15,,,,,7,,,72,100
62944,note_off,,,,,64,0,9,,,,,1,,,74,100
62976,note_on,,,,,64,0,14,,,,,6,,,33,85
62976,note_on,,,,,32,0,9,,,,,1,,,72,100
62976,note_on,,,,,64,0,8,,,,,0,,,81,100
62976,note_on,,,,,64,0,15,,,,,7,,,64,100
62976,note_on,,,,,0,0,15,,,,,7,,,72,100
62976,note_on,,,,,64,0,16,,,,,7,,,45,100
62976,note_on,,,,,64,0,13,,,,,5,,,45,85
63040,note_off,,,,,64,0,9,,,,,1,,,72,100
63072,note_on,,,,,32,0,9,,,,,1,,,71,100
63104,note_off,,,,,128,0,13,,,,,5,,,45,100
63104,note_off,,,,,128,0,16,,,,,7,,,45,100
63104,note_off,,,,,128,0,14,,,,,6,,,33,100
63104,note_off,,,,,128,0,15,,,,,7,,,64,100
63104,note_off,,,,,0,0,15,,,,,7,,,72,100
63136,note_off,,,,,64,0,9,,,,,1,,,71,100
63168,note_on,,,,,64,0,15,,,,,7,,,72,100
63168,note_on,,,,,64,0,13,,,,,5,,,57,85
63168,note_on,,,,,64,0,14,,,,,6,,,45,85
63168,note_on,,,,,0,0,15,,,,,7,,,76,100
63168,note_on,,,,,32,0,9,,,,,1,,,69,100
63168,note_on,,,,,64,0,16,,,,,7,,,57,100
63232,note_off,,,,,64,0,9,,,,,1,,,69,100
63264,note_on,,,,,32,0,9,,,,,1,,,67,100
63296,note_off,,,,,128,0,13,,,,,5,,,57,100
63296,note_off,,,,,128,0,14,,,,,6,,,45,100
63296,note_off,,,,,128,0,15,,,,,7,,,72,100
63296,note_off,,,,,0,0,15,,,,,7,,,76,100
63296,note_off,,,,,128,0,16,,,,,7,,,57,100
63328,note_off,,,,,64,0,9,,,,,1,,,67,100
63360,note_on,,,,,32,0,9,,,,,1,,,66,100
63360,note_on,,,,,64,0,14,,,,,6,,,50,85
63360,note_on,,,,,64,0,15,,,,,7,,,69,100
63360,note_on,,,,,0,0,15,,,,,7,,,72,100
63360,note_on,,,,,64,0,13,,,,,5,,,62,85
63360,note_on,,,,,64,0,16,,,,,7,,,62,100
63456,note_on,,,,,480,0,8,,,,,0,,,79,100
63488,note_off,,,,,128,0,16,,,,,7,,,62,100
63488,note_off,,,,,128,0,13,,,,,5,,,62,100
63488,note_off,,,,,32,0,8,,,,,0,,,81,64
63488,note_off,,,,,128,0,15,,,,,7,,,69,100
63488,note_off,,,,,0,0,15,,,,,7,,,72,100
63488,note_off,,,,,128,0,14,,,,,6,,,50,100
63488,note_off,,,,,128,0,9,,,,,1,,,66,100
63520,note_off,,,,,32,0,8,,,,,0,,,79,100
63552,note_on,,,,,64,0,9,,,,,1,,,74,100
63552,note_on,,,,,64,0,13,,,,,5,,,50,85
63552,note_on,,,,,64,0,14,,,,,6,,,38,85
63552,note_on,,,,,64,0,15,,,,,7,,,60,100
63552,note_on,,,,,64,0,16,,,,,7,,,50,100
63552,note_on,,,,,32,0,8,,,,,0,,,78,100
63552,note_on,,,,,0,0,15,,,,,7,,,69,100
63616,note_off,,,,,64,0,8,,,,,0,,,78,100
63648,note_on,,,,,32,0,8,,,,,0,,,76,100
63680,note_off,,,,,128,0,15,,,,,7,,,60,100
63680,note_off,,,,,128,0,16,,,,,7,,,50,100
63680,note_off,,,,,0,0,15,,,,,7,,,69,100
63680,note_off,,,,,128,0,13,,,,,5,,,50,100
63680,note_off,,,,,128,0,14,,,,,6,,,38,100
63712,note_off,,,,,64,0,8,,,,,0,,,76,100
63744,note_on,,,,,64,0,16,,,,,7,,,62,100
63744,note_on,,,,,64,0,13,,,,,5,,,62,85
63744,note_on,,,,,64,0,15,,,,,7,,,72,100
63744,note_on,,,,,32,0,8,,,,,0,,,74,100
63744,note_on,,,,,0,0,15,,,,,7,,,69,100
63744,note_on,,,,,64,0,14,,,,,6,,,50,85
63808,note_off,,,,,64,0,8,,,,,0,,,74,100
63840,note_on,,,,,32,0,8,,,,,0,,,72,100
63872,note_off,,,,,128,0,16,,,,,7,,,62,100
63872,note_off,,,,,128,0,14,,,,,6,,,50,100
63872,note_off,,,,,128,0,13,,,,,5,,,62,100
63872,note_off,,,,,0,0,15,,,,,7,,,69,100
63872,note_off,,,,,128,0,15,,,,,7,,,72,100
63904,note_off,,,,,64,0,8,,,,,0,,,72,100
63936,note_on,,,,,64,0,14,,,,,6,,,43,85
63936,note_on,,,,,32,0,8,,,,,0,,,71,100
63936,note_on,,,,,0,0,15,,,,,7,,,66,100
63936,note_on,,,,,64,0,13,,,,,5,,,55,85
63936,note_on,,,,,64,0,15,,,,,7,,,62,100
63936,note_on,,,,,64,0,16,,,,,7,,,55,100
64032,note_on,,,,,480,0,9,,,,,1,,,72,100
64064,note_off,,,,,128,0,15,,,,,7,,,62,100
64064,note_off,,,,,32,0,9,,,,,1,,,74,64
64064,note_off,,,,,128,0,13,,,,,5,,,55,100
64064,note_off,,,,,128,0,16,,,,,7,,,55,100
64064,note_off,,,,,128,0,8,,,,,0,,,71,100
64064,note_off,,,,,128,0,14,,,,,6,,,43,100
64064,note_off,,,,,0,0,15,,,,,7,,,66,100
64096,note_off,,,,,32,0,9,,,,,1,,,72,100
64128,note_on,,,,,32,0,9,,,,,1,,,71,100
64128,note_on,,,,,64,0,13,,,,,5,,,43,85
64128,note_on,,,,,64,0,8,,,,,0,,,79,100
64128,note_on,,,,,64,0,14,,,,,6,,,43,85
64128,note_on,,,,,64,0,15,,,,,7,,,59,100
64128,note_on,,,,,64,0,16,,,,,7,,,43,100
64128,note_on,,,,,0,0,15,,,,,7,,,62,100
64192,note_off,,,,,64,0,9,,,,,1,,,71,100
64224,note_on,,,,,32,0,9,,,,,1,,,69,100
64256,note_off,,,,,128,0,15,,,,,7,,,59,100
64256,note_off,,,,,128,0,14,,,,,6,,,43,100
64256,note_off,,,,,128,0,16,,,,,7,,,43,100
64256,note_off,,,,,128,0,13,,,,,5,,,43,100
64256,note_off,,,,,0,0,15,,,,,7,,,62,100
64288,note_off,,,,,64,0,9,,,,,1,,,69,100
64320,note_on,,,,,0,0,15,,,,,7,,,66,100
64320,note_on,,,,,64,0,14,,,,,6,,,43,85
64320,note_on,,,,,32,0,9,,,,,1,,,67,100
64320,note_on,,,,,64,0,16,,,,,7,,,55,100
64320,note_on,,,,,64,0,13,,,,,5,,,55,85
64320,note_on,,,,,64,0,15,,,,,7,,,62,100
64384,note_off,,,,,64,0,9,,,,,1,,,67,100
64416,note_on,,,,,32,0,9,,,,,1,,,66,100
64448,note_off,,,,,128,0,16,,,,,7,,,55,100
64448,note_off,,,,,128,0,14,,,,,6,,,43,100
64448,note_off,,,,,128,0,15,,,,,7,,,62,100
64448,note_off,,,,,0,0,15,,,,,7,,,66,100
64448,note_off,,,,,128,0,13,,,,,5,,,55,100
64480,note_off,,,,,64,0,9,,,,,1,,,66,100
64512,note_on,,,,,64,0,16,,,,,7,,,60,100
64512,note_on,,,,,64,0,14,,,,,6,,,48,85
64512,note_on,,,,,32,0,9,,,,,1,,,64,100
64512,note_on,,,,,64,0,15,,,,,7,,,67,100
64512,note_on,,,,,64,0,13,,,,,5,,,60,85
64512,note_on,,,,,0,0,15,,,,,7,,,71,100
64608,note_on,,,,,480,0,8,,,,,0,,,78,100
64640,note_off,,,,,128,0,9,,,,,1,,,64,100
64640,note_off,,,,,0,0,15,,,,,7,,,71,100
64640,note_off,,,,,128,0,15,,,,,7,,,67,100
64640,note_off,,,,,128,0,13,,,,,5,,,60,100
64640,note_off,,,,,128,0,16,,,,,7,,,60,100
64640,note_off,,,,,32,0,8,,,,,0,,,79,64
64640,note_off,,,,,128,0,14,,,,,6,,,48,100
64672,note_off,,,,,32,0,8,,,,,0,,,78,100
64704,note_on,,,,,64,0,9,,,,,1,,,72,100
64704,note_on,,,,,32,0,8,,,,,0,,,76,100
64704,note_on,,,,,0,0,15,,,,,7,,,67,100
64704,note_on,,,,,64,0,15,,,,,7,,,64,100
64704,note_on,,,,,64,0,16,,,,,7,,,48,100
64704,note_on,,,,,64,0,13,,,,,5,,,48,85
64704,note_on,,,,,64,0,14,,,,,6,,,36,85
64768,note_off,,,,,64,0,8,,,,,0,,,76,100
64800,note_on,,,,,32,0,8,,,,,0,,,74,100
64832,note_off,,,,,128,0,14,,,,,6,,,36,100
64832,note_off,,,,,128,0,16,,,,,7,,,48,100
64832,note_off,,,,,0,0,15,,,,,7,,,67,100
64832,note_off,,,,,128,0,13,,,,,5,,,48,100
64832,note_off,,,,,128,0,15,,,,,7,,,64,100
64864,note_off,,,,,64,0,8,,,,,0,,,74,100
64896,note_on,,,,,32,0,8,,,,,0,,,72,100
64896,note_on,,,,,0,0,15,,,,,7,,,71,100
64896,note_on,,,,,64,0,14,,,,,6,,,48,85
64896,note_on,,,,,64,0,16,,,,,7,,,60,100
64896,note_on,,,,,64,0,13,,,,,5,,,60,85
64896,note_on,,,,,64,0,15,,,,,7,,,67,100
64960,note_off,,,,,64,0,8,,,,,0,,,72,100
64992,note_on,,,,,32,0,8,,,,,0,,,71,100
65024,note_off,,,,,128,0,14,,,,,6,,,48,100
65024,note_off,,,,,128,0,16,,,,,7,,,60,100
65024,note_off,,,,,0,0,15,,,,,7,,,71,100
65024,note_off,,,,,128,0,15,,,,,7,,,67,100
65024,note_off,,,,,128,0,13,,,,,5,,,60,100
65056,note_off,,,,,64,0,8,,,,,0,,,71,100
65088,note_on,,,,,64,0,16,,,,,7,,,54,100
65088,note_on,,,,,64,0,14,,,,,6,,,42,85
65088,note_on,,,,,64,0,13,,,,,5,,,54,85
65088,note_on,,,,,0,0,15,,,,,7,,,72,100
65088,note_on,,,,,64,0,15,,,,,7,,,64,100
65088,note_on,,,,,32,0,8,,,,,0,,,69,100
65184,note_on,,,,,480,0,9,,,,,1,,,71,100
65216,note_off,,,,,128,0,14,,,,,6,,,42,100
65216,note_off,,,,,128,0,8,,,,,0,,,69,100
65216,note_off,,,,,128,0,15,,,,,7,,,64,100
65216,note_off,,,,,0,0,15,,,,,7,,,72,100
65216,note_off,,,,,32,0,9,,,,,1,,,72,64
65216,note_off,,,,,128,0,16,,,,,7,,,54,100
65216,note_off,,,,,128,0,13,,,,,5,,,54,100
65248,note_off,,,,,32,0,9,,,,,1,,,71,100
65280,note_on,,,,,64,0,8,,,,,0,,,78,100
65280,note_on,,,,,64,0,14,,,,,6,,,42,85
65280,note_on,,,,,64,0,15,,,,,7,,,69,100
65280,note_on,,,,,64,0,16,,,,,7,,,42,100
65280,note_on,,,,,0,0,15,,,,,7,,,60,100
65280,note_on,,,,,32,0,9,,,,,1,,,69,100
65280,note_on,,,,,64,0,13,,,,,5,,,42,85
65344,note_off,,,,,64,0,9,,,,,1,,,69,100
65376,note_on,,,,,32,0,9,,,,,1,,,67,100
65408,note_off,,,,,128,0,15,,,,,7,,,69,100
65408,note_off,,,,,0,0,15,,,,,7,,,60,100
65408,note_off,,,,,128,0,14,,,,,6,,,42,100
65408,note_off,,,,,128,0,13,,,,,5,,,42,100
65408,note_off,,,,,128,0,16,,,,,7,,,42,100
65440,note_off,,,,,64,0,9,,,,,1,,,67,100
65472,note_on,,,,,64,0,14,,,,,6,,,42,85
65472,note_on,,,,,32,0,9,,,,,1,,,66,100
65472,note_on,,,,,64,0,13,,,,,5,,,54,85
65472,note_on,,,,,64,0,16,,,,,7,,,54,100
65472,note_on,,,,,64,0,15,,,,,7,,,64,100
65472,note_on,,,,,0,0,15,,,,,7,,,72,100
65536,note_off,,,,,64,0,9,,,,,1,,,66,100
65568,note_on,,,,,32,0,9,,,,,1,,,64,100
65600,note_off,,,,,128,0,16,,,,,7,,,54,100
65600,note_off,,,,,128,0,15,,,,,7,,,64,100
65600,note_off,,,,,128,0,14,,,,,6,,,42,100
65600,note_off,,,,,0,0,15,,,,,7,,,72,100
65600,note_off,,,,,128,0,13,,,,,5,,,54,100
65632,note_off,,,,,64,0,9,,,,,1,,,64,100
65664,note_on,,,,,64,0,16,,,,,7,,,59,100
65664,program_change,,,,,3520,0,10,,,,,2,40,,,
65664,program_change,,,,,0,0,10,,,,,2,40,,,
65664,note_on,,,,,32,0,9,,,,,1,,,63,100
65664,note_on,,,,,64,0,13,,,,,5,,,59,85
65664,program_change,,,,,3520,0,11,,,,,3,40,,,
65664,note_on,,,,,64,0,15,,,,,7,,,63,100
65664,note_on,,,,,0,0,15,,,,,7,,,69,100
65664,note_on,,,,,64,0,14,,,,,6,,,47,85
65760,note_on,,,,,480,0,8,,,,,0,,,76,100
65792,note_off,,,,,128,0,15,,,,,7,,,63,100
65792,note_off,,,,,128,0,13,,,,,5,,,59,100
65792,note_off,,,,,128,0,14,,,,,6,,,47,100
65792,note_off,,,,,128,0,16,,,,,7,,,59,100
65792,note_off,,,,,32,0,8,,,,,0,,,78,64
65792,note_off,,,,,128,0,9,,,,,1,,,63,100
65792,note_off,,,,,0,0,15,,,,,7,,,69,100
65824,note_off,,,,,32,0,8,,,,,0,,,76,100
65856,note_on,,,,,0,0,15,,,,,7,,,66,100
65856,note_on,,,,,32,0,8,,,,,0,,,75,100
65856,note_on,,,,,64,0,14,,,,,6,,,35,85
65856,note_on,,,,,64,0,16,,,,,7,,,47,100
65856,note_on,,,,,64,0,15,,,,,7,,,63,100
65856,note_on,,,,,64,0,9,,,,,1,,,66,100
65856,note_on,,,,,64,0,13,,,,,5,,,47,85
65920,note_off,,,,,64,0,8,,,,,0,,,75,100
65952,note_on,,,,,32,0,8,,,,,0,,,73,100
65984,note_off,,,,,128,0,15,,,,,7,,,63,100
65984,note_off,,,,,0,0,15,,,,,7,,,66,100
65984,note_off,,,,,128,0,9,,,,,1,,,66,100
65984,note_off,,,,,128,0,14,,,,,6,,,35,100
65984,note_off,,,,,128,0,16,,,,,7,,,47,100
65984,note_off,,,,,128,0,13,,,,,5,,,47,100
66016,note_off,,,,,64,0,8,,,,,0,,,73,100
66048,note_on,,,,,64,0,14,,,,,6,,,47,85
66048,note_on,,,,,0,0,15,,,,,7,,,69,100
66048,note_on,,,,,32,0,8,,,,,0,,,71,100
66048,note_on,,,,,64,0,16,,,,,7,,,59,100
66048,note_on,,,,,64,0,9,,,,,1,,,75,100
66048,note_on,,,,,64,0,15,,,,,7,,,63,100
66048,note_on,,,,,64,0,13,,,,,5,,,59,85
66112,note_off,,,,,64,0,8,,,,,0,,,71,100
66144,note_on,,,,,32,0,8,,,,,0,,,69,100
66176,note_off,,,,,128,0,14,,,,,6,,,47,100
66176,note_off,,,,,128,0,16,,,,,7,,,59,100
66176,note_off,,,,,128,0,9,,,,,1,,,75,100
66176,note_off,,,,,128,0,13,,,,,5,,,59,100
66176,note_off,,,,,128,0,15,,,,,7,,,63,100
66176,note_off,,,,,0,0,15,,,,,7,,,69,100
66208,note_off,,,,,64,0,8,,,,,0,,,69,100
66240,note_on,,,,,64,0,13,,,,,5,,,52,70
66240,note_on,,,,,64,0,15,,,,,7,,,67,100
66240,note_on,,,,,0,0,15,,,,,7,,,71,100
66240,note_on,,,,,64,0,16,,,,,7,,,52,100
66240,note_on,,,,,64,0,9,,,,,1,,,76,100
66240,note_on,,,,,64,0,14,,,,,6,,,40,70
66240,note_on,,,,,32,0,8,,,,,0,,,67,100
66240,note_on,,,,,576,0,10,,,,,2,,,83,85
66304,note_off,,,,,64,0,10,,,,,2,,,83,100
66304,note_off,,,,,64,0,8,,,,,0,,,67,100
66336,note_on,,,,,32,0,8,,,,,0,,,66,100
66336,note_on,,,,,32,0,10,,,,,2,,,81,85
66368,note_off,,,,,128,0,16,,,,,7,,,52,100
66368,note_off,,,,,128,0,14,,,,,6,,,40,100
66368,note_off,,,,,0,0,15,,,,,7,,,71,100
66368,note_off,,,,,128,0,9,,,,,1,,,76,100
66368,note_off,,,,,128,0,15,,,,,7,,,67,100
66368,note_off,,,,,128,0,13,,,,,5,,,52,100
66400,note_off,,,,,64,0,10,,,,,2,,,81,100
66400,note_off,,,,,64,0,8,,,,,0,,,66,100
66432,note_on,,,,,64,0,14,,,,,6,,,40,70
66432,note_on,,,,,64,0,9,,,,,1,,,64,100
66432,note_on,,,,,0,0,15,,,,,7,,,67,100
66432,note_on,,,,,64,0,16,,,,,7,,,40,100
66432,note_on,,,,,32,0,10,,,,,2,,,79,85
66432,note_on,,,,,64,0,15,,,,,7,,,59,100
66432,note_on,,,,,32,0,8,,,,,0,,,64,100
66432,note_on,,,,,64,0,13,,,,,5,,,40,70
66496,note_off,,,,,64,0,10,,,,,2,,,79,100
66528,note_on,,,,,32,0,10,,,,,2,,,78,85
66560,note_off,,,,,0,0,15,,,,,7,,,67,100
66560,note_off,,,,,128,0,15,,,,,7,,,59,100
66560,note_off,,,,,128,0,14,,,,,6,,,40,100
66560,note_off,,,,,128,0,9,,,,,1,,,64,100
66560,note_off,,,,,128,0,13,,,,,5,,,40,100
66560,note_off,,,,,128,0,8,,,,,0,,,64,100
66560,note_off,,,,,128,0,16,,,,,7,,,40,100
66592,note_off,,,,,64,0,10,,,,,2,,,78,100
66624,note_on,,,,,64,0,15,,,,,7,,,71,100
66624,note_on,,,,,64,0,14,,,,,6,,,40,70
66624,note_on,,,,,64,0,16,,,,,7,,,52,100
66624,note_on,,,,,32,0,10,,,,,2,,,76,85
66624,note_on,,,,,64,0,13,,,,,5,,,52,70
66624,note_on,,,,,0,0,15,,,,,7,,,67,100
66688,note_off,,,,,64,0,10,,,,,2,,,76,100
66720,note_on,,,,,32,0,10,,,,,2,,,74,85
66752,note_off,,,,,0,0,15,,,,,7,,,67,100
66752,note_off,,,,,128,0,16,,,,,7,,,52,100
66752,note_off,,,,,128,0,13,,,,,5,,,52,100
66752,note_off,,,,,128,0,14,,,,,6,,,40,100
66752,note_off,,,,,128,0,15,,,,,7,,,71,100
66784,note_off,,,,,64,0,10,,,,,2,,,74,100
66816,note_on,,,,,64,0,13,,,,,5,,,57,70
66816,note_on,,,,,0,0,15,,,,,7,,,76,100
66816,note_on,,,,,64,0,16,,,,,7,,,57,100
66816,note_on,,,,,1152,0,11,,,,,3,,,76,85
66816,note_on,,,,,64,0,15,,,,,7,,,72,100
66816,note_on,,,,,64,0,14,,,,,6,,,45,70
66816,note_on,,,,,32,0,10,,,,,2,,,72,85
66880,note_off,,,,,64,0,11,,,,,3,,,76,100
66912,note_on,,,,,32,0,11,,,,,3,,,74,85
66944,note_off,,,,,128,0,10,,,,,2,,,72,100
66944,note_off,,,,,128,0,14,,,,,6,,,45,100
66944,note_off,,,,,128,0,16,,,,,7,,,57,100
66944,note_off,,,,,0,0,15,,,,,7,,,76,100
66944,note_off,,,,,128,0,15,,,,,7,,,72,100
66944,note_off,,,,,128,0,13,,,,,5,,,57,100
66976,note_off,,,,,64,0,11,,,,,3,,,74,100
67008,note_on,,,,,64,0,13,,,,,5,,,45,70
67008,note_on,,,,,64,0,16,,,,,7,,,45,100
67008,note_on,,,,,64,0,14,,,,,6,,,33,70
67008,note_on,,,,,64,0,10,,,,,2,,,81,85
67008,note_on,,,,,0,0,15,,,,,7,,,72,100
67008,note_on,,,,,64,0,15,,,,,7,,,64,100
67008,note_on,,,,,32,0,11,,,,,3,,,72,85
67072,note_off,,,,,64,0,11,,,,,3,,,72,100
67104,note_on,,,,,32,0,11,,,,,3,,,71,85
67136,note_off,,,,,128,0,14,,,,,6,,,33,100
67136,note_off,,,,,0,0,15,,,,,7,,,72,100
67136,note_off,,,,,128,0,16,,,,,7,,,45,100
67136,note_off,,,,,128,0,15,,,,,7,,,64,100
67136,note_off,,,,,128,0,13,,,,,5,,,45,100
67168,note_off,,,,,64,0,11,,,,,3,,,71,100
67200,note_on,,,,,64,0,14,,,,,6,,,45,70
67200,note_on,,,,,64,0,16,,,,,7,,,57,100
67200,note_on,,,,,64,0,15,,,,,7,,,72,100
67200,note_on,,,,,0,0,15,,,,,7,,,76,100
67200,note_on,,,,,64,0,13,,,,,5,,,57,70
67200,note_on,,,,,32,0,11,,,,,3,,,69,85
67264,note_off,,,,,64,0,11,,,,,3,,,69,100
67296,note_on,,,,,32,0,11,,,,,3,,,67,85
67328,note_off,,,,,128,0,16,,,,,7,,,57,100
67328,note_off,,,,,128,0,13,,,,,5,,,57,100
67328,note_off,,,,,0,0,15,,,,,7,,,76,100
67328,note_off,,,,,128,0,15,,,,,7,,,72,100
67328,note_off,,,,,128,0,14,,,,,6,,,45,100
67360,note_off,,,,,64,0,11,,,,,3,,,67,100
67392,note_on,,,,,0,0,15,,,,,7,,,72,100
67392,note_on,,,,,64,0,16,,,,,7,,,62,100
67392,note_on,,,,,64,0,15,,,,,7,,,69,100
67392,note_on,,,,,32,0,11,,,,,3,,,66,85
67392,note_on,,,,,64,0,13,,,,,5,,,62,70
67392,note_on,,,,,64,0,14,,,,,6,,,50,70
67488,note_on,,,,,480,0,10,,,,,2,,,79,85
67520,note_off,,,,,32,0,10,,,,,2,,,81,100
67520,note_off,,,,,0,0,15,,,,,7,,,72,100
67520,note_off,,,,,128,0,11,,,,,3,,,66,100
67520,note_off,,,,,128,0,14,,,,,6,,,50,100
67520,note_off,,,,,128,0,15,,,,,7,,,69,100
67520,note_off,,,,,128,0,13,,,,,5,,,62,100
67520,note_off,,,,,128,0,16,,,,,7,,,62,100
67552,note_off,,,,,32,0,10,,,,,2,,,79,100
67584,note_on,,,,,64,0,16,,,,,7,,,50,100
67584,note_on,,,,,64,0,13,,,,,5,,,50,70
67584,note_on,,,,,64,0,11,,,,,3,,,74,85
67584,note_on,,,,,32,0,10,,,,,2,,,78,85
67584,note_on,,,,,64,0,14,,,,,6,,,38,70
67584,note_on,,,,,64,0,15,,,,,7,,,60,100
67584,note_on,,,,,0,0,15,,,,,7,,,69,100
67648,note_off,,,,,64,0,10,,,,,2,,,78,100
67680,note_on,,,,,32,0,10,,,,,2,,,76,85
67712,note_off,,,,,128,0,16,,,,,7,,,50,100
67712,note_off,,,,,128,0,14,,,,,6,,,38,100
67712,note_off,,,,,0,0,15,,,,,7,,,69,100
67712,note_off,,,,,128,0,15,,,,,7,,,60,100
67712,note_off,,,,,128,0,13,,,,,5,,,50,100
67744,note_off,,,,,64,0,10,,,,,2,,,76,100
67776,note_on,,,,,64,0,14,,,,,6,,,50,70
67776,note_on,,,,,64,0,16,,,,,7,,,62,100
67776,note_on,,,,,32,0,10,,,,,2,,,74,85
67776,note_on,,,,,0,0,15,,,,,7,,,69,100
67776,note_on,,,,,64,0,15,,,,,7,,,72,100
67776,note_on,,,,,64,0,13,,,,,5,,,62,70
67840,note_off,,,,,64,0,10,,,,,2,,,74,100
67872,note_on,,,,,32,0,10,,,,,2,,,72,85
67904,note_off,,,,,128,0,16,,,,,7,,,62,100
67904,note_off,,,,,128,0,15,,,,,7,,,72,100
67904,note_off,,,,,0,0,15,,,,,7,,,69,100
67904,note_off,,,,,128,0,13,,,,,5,,,62,100
67904,note_off,,,,,128,0,14,,,,,6,,,50,100
67936,note_off,,,,,64,0,10,,,,,2,,,72,100
67968,note_on,,,,,64,0,15,,,,,7,,,62,100
67968,note_on,,,,,0,0,15,,,,,7,,,66,100
67968,note_on,,,,,32,0,10,,,,,2,,,71,85
67968,note_on,,,,,64,0,14,,,,,6,,,43,70
67968,note_on,,,,,64,0,13,,,,,5,,,55,70
67968,note_on,,,,,64,0,16,,,,,7,,,55,100
68064,note_on,,,,,480,0,11,,,,,3,,,72,85
68096,note_off,,,,,128,0,10,,,,,2,,,71,100
68096,note_off,,,,,32,0,11,,,,,3,,,74,100
68096,note_off,,,,,128,0,13,,,,,5,,,55,100
68096,note_off,,,,,128,0,14,,,,,6,,,43,100
68096,note_off,,,,,128,0,16,,,,,7,,,55,100
68096,note_off,,,,,128,0,15,,,,,7,,,62,100
68096,note_off,,,,,0,0,15,,,,,7,,,66,100
68128,note_off,,,,,32,0,11,,,,,3,,,72,100
68160,note_on,,,,,32,0,11,,,,,3,,,71,85
68160,note_on,,,,,64,0,13,,,,,5,,,43,70
68160,note_on,,,,,0,0,15,,,,,7,,,62,100
68160,note_on,,,,,64,0,10,,,,,2,,,79,85
68160,note_on,,,,,64,0,15,,,,,7,,,59,100
68160,note_on,,,,,64,0,16,,,,,7,,,43,100
68160,note_on,,,,,64,0,14,,,,,6,,,43,70
68224,note_off,,,,,64,0,11,,,,,3,,,71,100
68256,note_on,,,,,32,0,11,,,,,3,,,69,85
68288,note_off,,,,,128,0,14,,,,,6,,,43,100
68288,note_off,,,,,0,0,15,,,,,7,,,62,100
68288,note_off,,,,,128,0,13,,,,,5,,,43,100
68288,note_off,,,,,128,0,16,,,,,7,,,43,100
68288,note_off,,,,,128,0,15,,,,,7,,,59,100
68320,note_off,,,,,64,0,11,,,,,3,,,69,100
68352,note_on,,,,,32,0,11,,,,,3,,,67,85
68352,note_on,,,,,64,0,16,,,,,7,,,55,100
68352,note_on,,,,,64,0,15,,,,,7,,,62,100
68352,note_on,,,,,0,0,15,,,,,7,,,66,100
68352,note_on,,,,,64,0,14,,,,,6,,,43,70
68352,note_on,,,,,64,0,13,,,,,5,,,55,70
68416,note_off,,,,,64,0,11,,,,,3,,,67,100
68448,note_on,,,,,32,0,11,,,,,3,,,66,85
68480,note_off,,,,,128,0,16,,,,,7,,,55,100
68480,note_off,,,,,0,0,15,,,,,7,,,66,100
68480,note_off,,,,,128,0,15,,,,,7,,,62,100
68480,note_off,,,,,128,0,14,,,,,6,,,43,100
68480,note_off,,,,,128,0,13,,,,,5,,,55,100
68512,note_off,,,,,64,0,11,,,,,3,,,66,100
68544,note_on,,,,,64,0,13,,,,,5,,,60,70
68544,note_on,,,,,0,0,15,,,,,7,,,71,100
68544,note_on,,,,,64,0,14,,,,,6,,,48,70
68544,note_on,,,,,64,0,16,,,,,7,,,60,100
68544,note_on,,,,,64,0,15,,,,,7,,,67,100
68544,note_on,,,,,32,0,11,,,,,3,,,64,85
68640,note_on,,,,,480,0,10,,,,,2,,,78,85
68672,note_off,,,,,128,0,16,,,,,7,,,60,100
68672,note_off,,,,,128,0,13,,,,,5,,,60,100
68672,note_off,,,,,128,0,15,,,,,7,,,67,100
68672,note_off,,,,,0,0,15,,,,,7,,,71,100
68672,note_off,,,,,128,0,11,,,,,3,,,64,100
68672,note_off,,,,,128,0,14,,,,,6,,,48,100
68672,note_off,,,,,32,0,10,,,,,2,,,79,100
68704,note_off,,,,,32,0,10,,,,,2,,,78,100
68736,note_on,,,,,64,0,13,,,,,5,,,48,70
68736,note_on,,,,,64,0,11,,,,,3,,,72,85
68736,note_on,,,,,64,0,14,,,,,6,,,36,70
68736,note_on,,,,,32,0,10,,,,,2,,,76,85
68736,note_on,,,,,0,0,15,,,,,7,,,67,100
68736,note_on,,,,,64,0,15,,,,,7,,,64,100
68736,note_on,,,,,64,0,16,,,,,7,,,48,100
68800,note_off,,,,,64,0,10,,,,,2,,,76,100
68832,note_on,,,,,32,0,10,,,,,2,,,74,85
68864,note_off,,,,,128,0,13,,,,,5,,,48,100
68864,note_off,,,,,128,0,15,,,,,7,,,64,100
68864,note_off,,,,,128,0,16,,,,,7,,,48,100
68864,note_off,,,,,0,0,15,,,,,7,,,67,100
68864,note_off,,,,,128,0,14,,,,,6,,,36,100
68896,note_off,,,,,64,0,10,,,,,2,,,74,100
68928,note_on,,,,,64,0,14,,,,,6,,,48,70
68928,note_on,,,,,32,0,10,,,,,2,,,72,85
68928,note_on,,,,,64,0,16,,,,,7,,,60,100
68928,note_on,,,,,64,0,15,,,,,7,,,67,100
68928,note_on,,,,,64,0,13,,,,,5,,,60,70
68928,note_on,,,,,0,0,15,,,,,7,,,71,100
68992,note_off,,,,,64,0,10,,,,,2,,,72,100
69024,note_on,,,,,32,0,10,,,,,2,,,71,85
69056,note_off,,,,,128,0,14,,,,,6,,,48,100
69056,note_off,,,,,0,0,15,,,,,7,,,71,100
69056,note_off,,,,,128,0,13,,,,,5,,,60,100
69056,note_off,,,,,128,0,15,,,,,7,,,67,100
69056,note_off,,,,,128,0,16,,,,,7,,,60,100
69088,note_off,,,,,64,0,10,,,,,2,,,71,100
69120,note_on,,,,,64,0,13,,,,,5,,,54,70
69120,note_on,,,,,64,0,15,,,,,7,,,64,100
69120,note_on,,,,,0,0,15,,,,,7,,,72,100
69120,note_on,,,,,64,0,14,,,,,6,,,42,70
69120,note_on,,,,,64,0,16,,,,,7,,,54,100
69120,note_on,,,,,32,0,10,,,,,2,,,69,85
69216,note_on,,,,,480,0,11,,,,,3,,,71,85
69248,note_off,,,,,128,0,10,,,,,2,,,69,100
69248,note_off,,,,,128,0,16,,,,,7,,,54,100
69248,note_off,,,,,128,0,13,,,,,5,,,54,100
69248,note_off,,,,,32,0,11,,,,,3,,,72,100
69248,note_off,,,,,128,0,14,,,,,6,,,42,100
69248,note_off,,,,,0,0,15,,,,,7,,,72,100
69248,note_off,,,,,128,0,15,,,,,7,,,64,100
69280,note_off,,,,,32,0,11,,,,,3,,,71,100
69312,note_on,,,,,64,0,13,,,,,5,,,42,70
69312,note_on,,,,,64,0,10,,,,,2,,,78,85
69312,note_on,,,,,32,0,11,,,,,3,,,69,85
69312,note_on,,,,,64,0,14,,,,,6,,,42,70
69312,note_on,,,,,64,0,15,,,,,7,,,69,100
69312,note_on,,,,,0,0,15,,,,,7,,,60,100
69312,note_on,,,,,64,0,16,,,,,7,,,42,100
69376,note_off,,,,,64,0,11,,,,,3,,,69,100
69408,note_on,,,,,32,0,11,,,,,3,,,67,85
69440,note_off,,,,,128,0,15,,,,,7,,,69,100
69440,note_off,,,,,0,0,15,,,,,7,,,60,100
69440,note_off,,,,,128,0,14,,,,,6,,,42,100
69440,note_off,,,,,128,0,16,,,,,7,,,42,100
69440,note_off,,,,,128,0,13,,,,,5,,,42,100
69472,note_off,,,,,64,0,11,,,,,3,,,67,100
69504,note_on,,,,,64,0,15,,,,,7,,,64,100
69504,note_on,,,,,32,0,11,,,,,3,,,66,85
69504,note_on,,,,,64,0,16,,,,,7,,,54,100
69504,note_on,,,,,64,0,13,,,,,5,,,54,70
69504,note_on,,,,,64,0,14,,,,,6,,,42,70
69504,note_on,,,,,0,0,15,,,,,7,,,72,100
69568,note_off,,,,,64,0,11,,,,,3,,,66,100
69600,note_on,,,,,32,0,11,,,,,3,,,64,85
69632,note_off,,,,,128,0,16,,,,,7,,,54,100
69632,note_off,,,,,0,0,15,,,,,7,,,72,100
69632,note_off,,,,,128,0,15,,,,,7,,,64,100
69632,note_off,,,,,128,0,14,,,,,6,,,42,100
69632,note_off,,,,,128,0,13,,,,,5,,,54,100
69664,note_off,,,,,64,0,11,,,,,3,,,64,100
69696,program_change,,,,,3136,0,9,,,,,1,48,,,
69696,note_on,,,,,0,0,15,,,,,7,,,69,100
69696,note_on,,,,,64,0,15,,,,,7,,,63,100
69696,note_on,,,,,64,0,13,,,,,5,,,59,70
69696,note_on,,,,,32,0,11,,,,,3,,,63,85
69696,note_on,,,,,64,0,14,,,,,6,,,47,70
69696,note_on,,,,,64,0,16,,,,,7,,,59,100
69696,program_change,,,,,3136,0,8,,,,,0,48,,,
69792,note_on,,,,,480,0,10,,,,,2,,,76,85
69824,note_off,,,,,128,0,13,,,,,5,,,59,100
69824,note_off,,,,,128,0,11,,,,,3,,,63,100
69824,note_off,,,,,128,0,14,,,,,6,,,47,100
69824,note_off,,,,,0,0,15,,,,,7,,,69,100
69824,note_off,,,,,128,0,16,,,,,7,,,59,100
69824,note_off,,,,,32,0,10,,,,,2,,,78,100
69824,note_off,,,,,128,0,15,,,,,7,,,63,100
69856,note_off,,,,,32,0,10,,,,,2,,,76,100
69888,note_on,,,,,64,0,13,,,,,5,,,47,70
69888,note_on,,,,,64,0,16,,,,,7,,,47,100
69888,note_on,,,,,64,0,11,,,,,3,,,66,85
69888,note_on,,,,,32,0,10,,,,,2,,,75,85
69888,note_on,,,,,64,0,15,,,,,7,,,63,100
69888,note_on,,,,,64,0,14,,,,,6,,,35,70
69888,note_on,,,,,0,0,15,,,,,7,,,66,100
69952,note_off,,,,,64,0,10,,,,,2,,,75,100
69984,note_on,,,,,32,0,10,,,,,2,,,73,85
70016,note_off,,,,,128,0,16,,,,,7,,,47,100
70016,note_off,,,,,0,0,15,,,,,7,,,66,100
70016,note_off,,,,,128,0,15,,,,,7,,,63,100
70016,note_off,,,,,128,0,11,,,,,3,,,66,100
70016,note_off,,,,,128,0,14,,,,,6,,,35,100
70016,note_off,,,,,128,0,13,,,,,5,,,47,100
70048,note_off,,,,,64,0,10,,,,,2,,,73,100
70080,note_on,,,,,64,0,14,,,,,6,,,47,70
70080,note_on,,,,,32,0,10,,,,,2,,,71,85
70080,note_on,,,,,64,0,13,,,,,5,,,59,70
70080,note_on,,,,,0,0,15,,,,,7,,,69,100
70080,note_on,,,,,64,0,11,,,,,3,,,75,85
70080,note_on,,,,,64,0,15,,,,,7,,,63,100
70080,note_on,,,,,64,0,16,,,,,7,,,59,100
70144,note_off,,,,,64,0,10,,,,,2,,,71,100
70176,note_on,,,,,32,0,10,,,,,2,,,69,85
70208,note_off,,,,,128,0,13,,,,,5,,,59,100
70208,note_off,,,,,128,0,16,,,,,7,,,59,100
70208,note_off,,,,,128,0,11,,,,,3,,,75,100
70208,note_off,,,,,128,0,14,,,,,6,,,47,100
70208,note_off,,,,,128,0,15,,,,,7,,,63,100
70208,note_off,,,,,0,0,15,,,,,7,,,69,100
70240,note_off,,,,,64,0,10,,,,,2,,,69,100
70272,note_on,,,,,576,0,8,,,,,0,,,79,85
70272,note_on,,,,,64,0,15,,,,,7,,,67,100
70272,note_on,,,,,0,0,15,,,,,7,,,71,100
70272,note_on,,,,,64,0,16,,,,,7,,,52,100
70272,note_on,,,,,32,0,10,,,,,2,,,67,70
70272,note_on,,,,,8256,0,12,,,,,4,,,71,85
70272,note_on,,,,,576,0,9,,,,,1,,,76,85
70272,note_on,,,,,64,0,13,,,,,5,,,52,85
70272,note_on,,,,,64,0,14,,,,,6,,,40,85
70272,note_on,,,,,64,0,11,,,,,3,,,76,85
70336,note_off,,,,,64,0,10,,,,,2,,,67,100
70368,note_on,,,,,32,0,10,,,,,2,,,66,70
70400,note_off,,,,,128,0,16,,,,,7,,,52,100
70400,note_off,,,,,0,0,15,,,,,7,,,71,100
70400,note_off,,,,,128,0,15,,,,,7,,,67,100
70400,note_off,,,,,128,0,9,,,,,1,,,76,100
70400,note_off,,,,,128,0,13,,,,,5,,,52,100
70400,note_off,,,,,128,0,14,,,,,6,,,40,100
70400,note_off,,,,,128,0,8,,,,,0,,,79,100
70432,note_off,,,,,64,0,10,,,,,2,,,66,100
70464,note_on,,,,,64,0,13,,,,,5,,,40,85
70464,note_on,,,,,64,0,16,,,,,7,,,40,100
70464,note_on,,,,,64,0,14,,,,,6,,,40,85
70464,note_on,,,,,64,0,9,,,,,1,,,76,85
70464,note_on,,,,,64,0,15,,,,,7,,,59,100
70464,note_on,,,,,0,0,15,,,,,7,,,67,100
70464,note_on,,,,,64,0,8,,,,,0,,,79,85
70464,note_on,,,,,32,0,10,,,,,2,,,64,70
70528,note_off,,,,,256,0,11,,,,,3,,,76,100
70528,note_off,,,,,64,0,9,,,,,1,,,76,100
70528,note_off,,,,,64,0,8,,,,,0,,,79,100
70528,note_off,,,,,256,0,12,,,,,4,,,71,100
70560,note_on,,,,,32,0,8,,,,,0,,,78,85
70560,note_on,,,,,32,0,9,,,,,1,,,75,85
70592,note_off,,,,,128,0,14,,,,,6,,,40,100
70592,note_off,,,,,128,0,16,,,,,7,,,40,100
70592,note_off,,,,,128,0,10,,,,,2,,,64,100
70592,note_off,,,,,128,0,13,,,,,5,,,40,100
70592,note_off,,,,,0,0,15,,,,,7,,,67,100
70592,note_off,,,,,128,0,15,,,,,7,,,59,100
70624,note_off,,,,,64,0,8,,,,,0,,,78,100
70624,note_off,,,,,64,0,9,,,,,1,,,75,100
70656,note_on,,,,,64,0,16,,,,,7,,,52,100
70656,note_on,,,,,32,0,9,,,,,1,,,76,85
70656,note_on,,,,,128,0,12,,,,,4,,,71,85
70656,note_on,,,,,64,0,13,,,,,5,,,52,85
70656,note_on,,,,,64,0,14,,,,,6,,,40,85
70656,note_on,,,,,64,0,15,,,,,7,,,71,100
70656,note_on,,,,,32,0,8,,,,,0,,,79,85
70656,note_on,,,,,0,0,15,,,,,7,,,67,100
70720,note_off,,,,,64,0,9,,,,,1,,,76,100
70720,note_off,,,,,64,0,8,,,,,0,,,79,100
70752,note_on,,,,,32,0,8,,,,,0,,,81,85
70752,note_on,,,,,32,0,9,,,,,1,,,78,85
70784,note_off,,,,,0,0,15,,,,,7,,,67,100
70784,note_off,,,,,128,0,15,,,,,7,,,71,100
70784,note_off,,,,,128,0,13,,,,,5,,,52,100
70784,note_off,,,,,128,0,14,,,,,6,,,40,100
70784,note_off,,,,,128,0,16,,,,,7,,,52,100
70784,note_off,,,,,128,0,12,,,,,4,,,71,100
70816,note_off,,,,,64,0,8,,,,,0,,,81,100
70816,note_off,,,,,64,0,9,,,,,1,,,78,100
70844,program_change,,,,,316,0,11,,,,,3,48,,,
70846,program_change,,,,,254,0,10,,,,,2,48,,,
70848,note_on,,,,,0,0,15,,,,,7,,,75,100
70848,note_on,,,,,64,0,15,,,,,7,,,66,100
70848,note_on,,,,,2,0,10,,,,,2,,,78,85
70848,note_on,,,,,32,0,9,,,,,1,,,75,85
70848,note_on,,,,,64,0,16,,,,,7,,,59,100
70848,note_on,,,,,64,0,13,,,,,5,,,59,85
70848,note_on,,,,,64,0,12,,,,,4,,,71,85
70848,note_on,,,,,64,0,14,,,,,6,,,47,85
70848,note_on,,,,,4,0,11,,,,,3,,,75,85
70848,note_on,,,,,32,0,8,,,,,0,,,78,85
70976,note_off,,,,,128,0,16,,,,,7,,,59,100
70976,note_off,,,,,128,0,11,,,,,3,,,75,100
70976,note_off,,,,,128,0,14,,,,,6,,,47,100
70976,note_off,,,,,128,0,15,,,,,7,,,66,100
70976,note_off,,,,,128,0,10,,,,,2,,,78,100
70976,note_off,,,,,0,0,15,,,,,7,,,75,100
70976,note_off,,,,,128,0,13,,,,,5,,,59,100
70976,note_off,,,,,128,0,12,,,,,4,,,71,100
71040,note_on,,,,,0,0,15,,,,,7,,,66,100
71040,note_on,,,,,64,0,13,,,,,5,,,47,85
71040,note_on,,,,,64,0,16,,,,,7,,,47,100
71040,note_on,,,,,64,0,15,,,,,7,,,63,100
71040,note_on,,,,,64,0,11,,,,,3,,,75,85
71040,note_on,,,,,64,0,10,,,,,2,,,78,85
71040,note_on,,,,,64,0,14,,,,,6,,,35,85
71040,note_on,,,,,64,0,12,,,,,4,,,66,85
71104,note_off,,,,,64,0,11,,,,,3,,,75,100
71104,note_off,,,,,256,0,9,,,,,1,,,75,100
71104,note_off,,,,,64,0,10,,,,,2,,,78,100
71104,note_off,,,,,256,0,8,,,,,0,,,78,100
71136,note_on,,,,,32,0,11,,,,,3,,,73,85
71136,note_on,,,,,32,0,10,,,,,2,,,76,85
71168,note_off,,,,,128,0,16,,,,,7,,,47,100
71168,note_off,,,,,128,0,12,,,,,4,,,66,100
71168,note_off,,,,,0,0,15,,,,,7,,,66,100
71168,note_off,,,,,128,0,15,,,,,7,,,63,100
71168,note_off,,,,,128,0,13,,,,,5,,,47,100
71168,note_off,,,,,128,0,14,,,,,6,,,35,100
71200,note_off,,,,,64,0,11,,,,,3,,,73,100
71200,note_off,,,,,64,0,10,,,,,2,,,76,100
71232,note_on,,,,,64,0,12,,,,,4,,,71,85
71232,note_on,,,,,32,0,11,,,,,3,,,75,85
71232,note_on,,,,,64,0,16,,,,,7,,,59,100
71232,note_on,,,,,0,0,15,,,,,7,,,66,100
71232,note_on,,,,,64,0,15,,,,,7,,,75,100
71232,note_on,,,,,32,0,10,,,,,2,,,78,85
71232,note_on,,,,,64,0,13,,,,,5,,,59,85
71232,note_on,,,,,64,0,14,,,,,6,,,47,85
71296,note_off,,,,,64,0,11,,,,,3,,,75,100
71296,note_off,,,,,64,0,10,,,,,2,,,78,100
71328,note_on,,,,,32,0,10,,,,,2,,,79,85
71328,note_on,,,,,32,0,11,,,,,3,,,76,85
71360,note_off,,,,,128,0,16,,,,,7,,,59,100
71360,note_off,,,,,128,0,12,,,,,4,,,71,100
71360,note_off,,,,,128,0,13,,,,,5,,,59,100
71360,note_off,,,,,128,0,14,,,,,6,,,47,100
71360,note_off,,,,,128,0,15,,,,,7,,,75,100
71360,note_off,,,,,0,0,15,,,,,7,,,66,100
71392,note_off,,,,,64,0,10,,,,,2,,,79,100
71392,note_off,,,,,64,0,11,,,,,3,,,76,100
71424,note_on,,,,,320,0,8,,,,,0,,,81,85
71424,note_on,,,,,320,0,9,,,,,1,,,78,85
71424,note_on,,,,,32,0,11,,,,,3,,,78,85
71424,note_on,,,,,64,0,12,,,,,4,,,63,85
71424,note_on,,,,,64,0,15,,,,,7,,,69,100
71424,note_on,,,,,0,0,15,,,,,7,,,75,100
71424,note_on,,,,,64,0,13,,,,,5,,,59,85
71424,note_on,,,,,32,0,10,,,,,2,,,81,85
71424,note_on,,,,,64,0,14,,,,,6,,,47,85
71424,note_on,,,,,64,0,16,,,,,7,,,59,100
71552,note_off,,,,,128,0,13,,,,,5,,,59,100
71552,note_off,,,,,128,0,14,,,,,6,,,47,100
71552,note_off,,,,,128,0,8,,,,,0,,,81,100
71552,note_off,,,,,128,0,15,,,,,7,,,69,100
71552,note_off,,,,,128,0,9,,,,,1,,,78,100
71552,note_off,,,,,0,0,15,,,,,7,,,75,100
71552,note_off,,,,,128,0,16,,,,,7,,,59,100
71616,note_on,,,,,64,0,16,,,,,7,,,47,100
71616,note_on,,,,,64,0,8,,,,,0,,,81,85
71616,note_on,,,,,0,0,15,,,,,7,,,66,100
71616,note_on,,,,,64,0,13,,,,,5,,,47,85
71616,note_on,,,,,64,0,9,,,,,1,,,78,85
71616,note_on,,,,,64,0,14,,,,,6,,,35,85
71616,note_on,,,,,64,0,15,,,,,7,,,69,100
71680,note_off,,,,,64,0,9,,,,,1,,,78,100
71680,note_off,,,,,64,0,8,,,,,0,,,81,100
71680,note_off,,,,,256,0,10,,,,,2,,,81,100
71680,note_off,,,,,256,0,12,,,,,4,,,63,100
71680,note_off,,,,,256,0,11,,,,,3,,,78,100
71712,note_on,,,,,32,0,8,,,,,0,,,79,85
71712,note_on,,,,,32,0,9,,,,,1,,,76,85
71744,note_off,,,,,128,0,13,,,,,5,,,47,100
71744,note_off,,,,,0,0,15,,,,,7,,,66,100
71744,note_off,,,,,128,0,14,,,,,6,,,35,100
71744,note_off,,,,,128,0,16,,,,,7,,,47,100
71744,note_off,,,,,128,0,15,,,,,7,,,69,100
71776,note_off,,,,,64,0,8,,,,,0,,,79,100
71776,note_off,,,,,64,0,9,,,,,1,,,76,100
71808,note_on,,,,,0,0,15,,,,,7,,,75,100
71808,note_on,,,,,64,0,15,,,,,7,,,69,100
71808,note_on,,,,,64,0,14,,,,,6,,,47,85
71808,note_on,,,,,64,0,13,,,,,5,,,59,85
71808,note_on,,,,,32,0,9,,,,,1,,,78,85
71808,note_on,,,,,32,0,8,,,,,0,,,81,85
71808,note_on,,,,,128,0,12,,,,,4,,,63,85
71808,note_on,,,,,64,0,16,,,,,7,,,59,100
71872,note_off,,,,,64,0,9,,,,,1,,,78,100
71872,note_off,,,,,64,0,8,,,,,0,,,81,100
71904,note_on,,,,,32,0,9,,,,,1,,,79,85
71904,note_on,,,,,32,0,8,,,,,0,,,83,85
71936,note_off,,,,,128,0,14,,,,,6,,,47,100
71936,note_off,,,,,128,0,12,,,,,4,,,63,100
71936,note_off,,,,,128,0,15,,,,,7,,,69,100
71936,note_off,,,,,0,0,15,,,,,7,,,75,100
71936,note_off,,,,,128,0,16,,,,,7,,,59,100
71936,note_off,,,,,128,0,13,,,,,5,,,59,100
71968,note_off,,,,,64,0,9,,,,,1,,,79,100
71968,note_off,,,,,64,0,8,,,,,0,,,83,100
72000,note_on,,,,,320,0,11,,,,,3,,,79,85
72000,note_on,,,,,64,0,13,,,,,5,,,52,85
72000,note_on,,,,,320,0,10,,,,,2,,,83,85
72000,note_on,,,,,32,0,8,,,,,0,,,83,85
72000,note_on,,,,,64,0,12,,,,,4,,,64,85
72000,note_on,,,,,64,0,14,,,,,6,,,40,85
72000,note_on,,,,,0,0,15,,,,,7,,,71,100
72000,note_on,,,,,64,0,15,,,,,7,,,67,100
72000,note_on,,,,,32,0,9,,,,,1,,,76,85
72000,note_on,,,,,64,0,16,,,,,7,,,52,100
72128,note_off,,,,,128,0,13,,,,,5,,,52,100
72128,note_off,,,,,128,0,10,,,,,2,,,83,100
72128,note_off,,,,,128,0,16,,,,,7,,,52,100
72128,note_off,,,,,128,0,14,,,,,6,,,40,100
72128,note_off,,,,,128,0,11,,,,,3,,,79,100
72128,note_off,,,,,128,0,15,,,,,7,,,67,100
72128,note_off,,,,,0,0,15,,,,,7,,,71,100
72192,note_on,,,,,64,0,11,,,,,3,,,79,85
72192,note_on,,,,,64,0,15,,,,,7,,,59,100
72192,note_on,,,,,64,0,10,,,,,2,,,83,85
72192,note_on,,,,,64,0,14,,,,,6,,,40,85
72192,note_on,,,,,0,0,15,,,,,7,,,67,100
72192,note_on,,,,,64,0,16,,,,,7,,,40,100
72192,note_on,,,,,64,0,13,,,,,5,,,40,85
72256,note_off,,,,,256,0,12,,,,,4,,,64,100
72256,note_off,,,,,64,0,10,,,,,2,,,83,100
72256,note_off,,,,,256,0,8,,,,,0,,,83,100
72256,note_off,,,,,256,0,9,,,,,1,,,76,100
72256,note_off,,,,,64,0,11,,,,,3,,,79,100
72288,note_on,,,,,32,0,11,,,,,3,,,81,85
72288,note_on,,,,,32,0,10,,,,,2,,,84,85
72320,note_off,,,,,128,0,13,,,,,5,,,40,100
72320,note_off,,,,,128,0,15,,,,,7,,,59,100
72320,note_off,,,,,128,0,16,,,,,7,,,40,100
72320,note_off,,,,,128,0,14,,,,,6,,,40,100
72320,note_off,,,,,0,0,15,,,,,7,,,67,100
72352,note_off,,,,,64,0,10,,,,,2,,,84,100
72352,note_off,,,,,64,0,11,,,,,3,,,81,100
72384,note_on,,,,,64,0,15,,,,,7,,,71,100
72384,note_on,,,,,0,0,15,,,,,7,,,67,100
72384,note_on,,,,,32,0,10,,,,,2,,,81,85
72384,note_on,,,,,64,0,14,,,,,6,,,40,85
72384,note_on,,,,,64,0,16,,,,,7,,,52,100
72384,note_on,,,,,64,0,13,,,,,5,,,52,85
72384,note_on,,,,,128,0,12,,,,,4,,,67,85
72384,note_on,,,,,32,0,11,,,,,3,,,78,85
72448,note_off,,,,,64,0,10,,,,,2,,,81,100
72448,note_off,,,,,64,0,11,,,,,3,,,78,100
72480,note_on,,,,,32,0,10,,,,,2,,,83,85
72480,note_on,,,,,32,0,11,,,,,3,,,79,85
72512,note_off,,,,,128,0,14,,,,,6,,,40,100
72512,note_off,,,,,0,0,15,,,,,7,,,67,100
72512,note_off,,,,,128,0,12,,,,,4,,,67,100
72512,note_off,,,,,128,0,16,,,,,7,,,52,100
72512,note_off,,,,,128,0,13,,,,,5,,,52,100
72512,note_off,,,,,128,0,15,,,,,7,,,71,100
72544,note_off,,,,,64,0,11,,,,,3,,,79,100
72544,note_off,,,,,64,0,10,,,,,2,,,83,100
72576,note_on,,,,,32,0,10,,,,,2,,,84,85
72576,note_on,,,,,320,0,8,,,,,0,,,84,85
72576,note_on,,,,,64,0,14,,,,,6,,,45,85
72576,note_on,,,,,64,0,13,,,,,5,,,57,85
72576,note_on,,,,,64,0,12,,,,,4,,,66,85
72576,note_on,,,,,64,0,16,,,,,7,,,57,100
72576,note_on,,,,,64,0,15,,,,,7,,,66,100
72576,note_on,,,,,32,0,11,,,,,3,,,81,85
72576,note_on,,,,,0,0,15,,,,,7,,,72,100
72576,note_on,,,,,320,0,9,,,,,1,,,81,85
72704,note_off,,,,,128,0,8,,,,,0,,,84,100
72704,note_off,,,,,128,0,9,,,,,1,,,81,100
72704,note_off,,,,,0,0,15,,,,,7,,,72,100
72704,note_off,,,,,128,0,15,,,,,7,,,66,100
72704,note_off,,,,,128,0,13,,,,,5,,,57,100
72704,note_off,,,,,128,0,16,,,,,7,,,57,100
72704,note_off,,,,,128,0,14,,,,,6,,,45,100
72704,note_off,,,,,128,0,12,,,,,4,,,66,100
72768,note_on,,,,,64,0,9,,,,,1,,,81,85
72768,note_on,,,,,64,0,12,,,,,4,,,69,85
72768,note_on,,,,,0,0,15,,,,,7,,,69,100
72768,note_on,,,,,64,0,8,,,,,0,,,84,85
72768,note_on,,,,,64,0,13,,,,,5,,,54,85
72768,note_on,,,,,64,0,16,,,,,7,,,54,100
72768,note_on,,,,,64,0,14,,,,,6,,,42,85
72768,note_on,,,,,64,0,15,,,,,7,,,60,100
72832,note_off,,,,,64,0,8,,,,,0,,,84,100
72832,note_off,,,,,256,0,10,,,,,2,,,84,100
72832,note_off,,,,,256,0,11,,,,,3,,,81,100
72832,note_off,,,,,64,0,9,,,,,1,,,81,100
72864,note_on,,,,,32,0,8,,,,,0,,,83,85
72864,note_on,,,,,32,0,9,,,,,1,,,79,85
72896,note_off,,,,,128,0,14,,,,,6,,,42,100
72896,note_off,,,,,128,0,12,,,,,4,,,69,100
72896,note_off,,,,,128,0,13,,,,,5,,,54,100
72896,note_off,,,,,0,0,15,,,,,7,,,69,100
72896,note_off,,,,,128,0,16,,,,,7,,,54,100
72896,note_off,,,,,128,0,15,,,,,7,,,60,100
72928,note_off,,,,,64,0,9,,,,,1,,,79,100
72928,note_off,,,,,64,0,8,,,,,0,,,83,100
72960,note_on,,,,,64,0,12,,,,,4,,,66,85
72960,note_on,,,,,32,0,9,,,,,1,,,81,85
72960,note_on,,,,,64,0,13,,,,,5,,,50,85
72960,note_on,,,,,0,0,15,,,,,7,,,69,100
72960,note_on,,,,,32,0,8,,,,,0,,,84,85
72960,note_on,,,,,64,0,14,,,,,6,,,38,85
72960,note_on,,,,,64,0,15,,,,,7,,,60,100
72960,note_on,,,,,64,0,16,,,,,7,,,50,100
73024,note_off,,,,,64,0,8,,,,,0,,,84,100
73024,note_off,,,,,64,0,9,,,,,1,,,81,100
73056,note_on,,,,,32,0,8,,,,,0,,,86,85
73056,note_on,,,,,32,0,9,,,,,1,,,83,85
73088,note_off,,,,,128,0,14,,,,,6,,,38,100
73088,note_off,,,,,128,0,13,,,,,5,,,50,100
73088,note_off,,,,,128,0,16,,,,,7,,,50,100
73088,note_off,,,,,128,0,12,,,,,4,,,66,100
73088,note_off,,,,,128,0,15,,,,,7,,,60,100
73088,note_off,,,,,0,0,15,,,,,7,,,69,100
73120,note_off,,,,,64,0,9,,,,,1,,,83,100
73120,note_off,,,,,64,0,8,,,,,0,,,86,100
73152,note_on,,,,,64,0,15,,,,,7,,,71,100
73152,note_on,,,,,32,0,9,,,,,1,,,79,85
73152,note_on,,,,,32,0,8,,,,,0,,,83,85
73152,note_on,,,,,320,0,11,,,,,3,,,79,85
73152,note_on,,,,,64,0,12,,,,,4,,,62,85
73152,note_on,,,,,64,0,16,,,,,7,,,55,100
73152,note_on,,,,,64,0,13,,,,,5,,,55,85
73152,note_on,,,,,320,0,10,,,,,2,,,83,85
73152,note_on,,,,,0,0,15,,,,,7,,,74,100
73152,note_on,,,,,64,0,14,,,,,6,,,43,85
73280,note_off,,,,,0,0,15,,,,,7,,,74,100
73280,note_off,,,,,128,0,15,,,,,7,,,71,100
73280,note_off,,,,,128,0,14,,,,,6,,,43,100
73280,note_off,,,,,128,0,16,,,,,7,,,55,100
73280,note_off,,,,,128,0,13,,,,,5,,,55,100
73344,note_on,,,,,0,0,15,,,,,7,,,71,100
73344,note_on,,,,,64,0,15,,,,,7,,,62,100
73344,note_on,,,,,64,0,13,,,,,5,,,43,85
73344,note_on,,,,,192,0,11,,,,,3,,,79,85
73344,note_on,,,,,192,0,10,,,,,2,,,83,85
73344,note_on,,,,,64,0,16,,,,,7,,,43,100
73344,note_on,,,,,64,0,14,,,,,6,,,43,85
73408,note_off,,,,,64,0,10,,,,,2,,,83,100
73408,note_off,,,,,64,0,11,,,,,3,,,79,100
73408,note_off,,,,,256,0,12,,,,,4,,,62,100
73408,note_off,,,,,256,0,9,,,,,1,,,79,100
73408,note_off,,,,,0,0,10,,,,,2,,,83,100
73408,note_off,,,,,0,0,11,,,,,3,,,79,100
73408,note_off,,,,,256,0,8,,,,,0,,,83,100
73440,note_on,,,,,32,0,10,,,,,2,,,81,85
73440,note_on,,,,,32,0,11,,,,,3,,,78,85
73472,note_off,,,,,128,0,13,,,,,5,,,43,100
73472,note_off,,,,,128,0,15,,,,,7,,,62,100
73472,note_off,,,,,0,0,15,,,,,7,,,71,100
73472,note_off,,,,,128,0,16,,,,,7,,,43,100
73472,note_off,,,,,128,0,14,,,,,6,,,43,100
73504,note_off,,,,,64,0,11,,,,,3,,,78,100
73504,note_off,,,,,64,0,10,,,,,2,,,81,100
73536,note_on,,,,,32,0,11,,,,,3,,,79,85
73536,note_on,,,,,32,0,10,,,,,2,,,83,85
73536,note_on,,,,,64,0,13,,,,,5,,,52,85
73536,note_on,,,,,64,0,16,,,,,7,,,52,100
73536,note_on,,,,,64,0,14,,,,,6,,,40,85
73536,note_on,,,,,128,0,12,,,,,4,,,64,85
73536,note_on,,,,,64,0,15,,,,,7,,,67,100
73536,note_on,,,,,0,0,15,,,,,7,,,71,100
73600,note_off,,,,,64,0,11,,,,,3,,,79,100
73600,note_off,,,,,64,0,10,,,,,2,,,83,100
73632,note_on,,,,,32,0,11,,,,,3,,,81,85
73632,note_on,,,,,32,0,10,,,,,2,,,84,85
73664,note_off,,,,,128,0,13,,,,,5,,,52,100
73664,note_off,,,,,128,0,15,,,,,7,,,67,100
73664,note_off,,,,,128,0,16,,,,,7,,,52,100
73664,note_off,,,,,0,0,15,,,,,7,,,71,100
73664,note_off,,,,,128,0,12,,,,,4,,,64,100
73664,note_off,,,,,128,0,14,,,,,6,,,40,100
73696,note_off,,,,,64,0,10,,,,,2,,,84,100
73696,note_off,,,,,64,0,11,,,,,3,,,81,100
73728,note_on,,,,,320,0,9,,,,,1,,,78,85
73728,note_on,,,,,64,0,14,,,,,6,,,42,85
73728,note_on,,,,,320,0,8,,,,,0,,,81,85
73728,note_on,,,,,32,0,11,,,,,3,,,78,85
73728,note_on,,,,,0,0,15,,,,,7,,,75,100
73728,note_on,,,,,64,0,13,,,,,5,,,54,85
73728,note_on,,,,,64,0,12,,,,,4,,,63,85
73728,note_on,,,,,64,0,15,,,,,7,,,69,100
73728,note_on,,,,,32,0,10,,,,,2,,,81,85
73728,note_on,,,,,64,0,16,,,,,7,,,54,100
73856,note_off,,,,,128,0,8,,,,,0,,,81,100
73856,note_off,,,,,0,0,15,,,,,7,,,75,100
73856,note_off,,,,,128,0,15,,,,,7,,,69,100
73856,note_off,,,,,128,0,13,,,,,5,,,54,100
73856,note_off,,,,,128,0,16,,,,,7,,,54,100
73856,note_off,,,,,128,0,14,,,,,6,,,42,100
73856,note_off,,,,,128,0,9,,,,,1,,,78,100
73856,note_off,,,,,128,0,12,,,,,4,,,63,100
73920,note_on,,,,,64,0,14,,,,,6,,,39,85
73920,note_on,,,,,0,0,15,,,,,7,,,69,100
73920,note_on,,,,,64,0,15,,,,,7,,,66,100
73920,note_on,,,,,64,0,13,,,,,5,,,51,85
73920,note_on,,,,,64,0,12,,,,,4,,,66,85
73920,note_on,,,,,64,0,8,,,,,0,,,81,85
73920,note_on,,,,,64,0,16,,,,,7,,,51,100
73920,note_on,,,,,64,0,9,,,,,1,,,78,85
73984,note_off,,,,,256,0,11,,,,,3,,,78,100
73984,note_off,,,,,64,0,8,,,,,0,,,81,100
73984,note_off,,,,,256,0,10,,,,,2,,,81,100
73984,note_off,,,,,64,0,9,,,,,1,,,78,100
74016,note_on,,,,,32,0,8,,,,,0,,,79,85
74016,note_on,,,,,32,0,9,,,,,1,,,76,85
74048,note_off,,,,,128,0,13,,,,,5,,,51,100
74048,note_off,,,,,0,0,15,,,,,7,,,69,100
74048,note_off,,,,,128,0,14,,,,,6,,,39,100
74048,note_off,,,,,128,0,16,,,,,7,,,51,100
74048,note_off,,,,,128,0,12,,,,,4,,,66,100
74048,note_off,,,,,128,0,15,,,,,7,,,66,100
74080,note_off,,,,,64,0,8,,,,,0,,,79,100
74080,note_off,,,,,64,0,9,,,,,1,,,76,100
74112,note_on,,,,,64,0,16,,,,,7,,,47,100
74112,note_on,,,,,64,0,13,,,,,5,,,47,85
74112,note_on,,,,,32,0,8,,,,,0,,,81,85
74112,note_on,,,,,32,0,9,,,,,1,,,78,85
74112,note_on,,,,,64,0,15,,,,,7,,,63,100
74112,note_on,,,,,0,0,15,,,,,7,,,69,100
74112,note_on,,,,,64,0,12,,,,,4,,,63,85
74112,note_on,,,,,64,0,14,,,,,6,,,35,85
74176,note_off,,,,,64,0,8,,,,,0,,,81,100
74176,note_off,,,,,64,0,9,,,,,1,,,78,100
74208,note_on,,,,,32,0,8,,,,,0,,,83,85
74208,note_on,,,,,32,0,9,,,,,1,,,79,85
74240,note_off,,,,,128,0,16,,,,,7,,,47,100
74240,note_off,,,,,128,0,14,,,,,6,,,35,100
74240,note_off,,,,,128,0,15,,,,,7,,,63,100
74240,note_off,,,,,0,0,15,,,,,7,,,69,100
74240,note_off,,,,,128,0,12,,,,,4,,,63,100
74240,note_off,,,,,128,0,13,,,,,5,,,47,100
74272,note_off,,,,,64,0,9,,,,,1,,,79,100
74272,note_off,,,,,64,0,8,,,,,0,,,83,100
74304,note_on,,,,,320,0,10,,,,,2,,,79,85
74304,note_on,,,,,64,0,14,,,,,6,,,40,85
74304,note_on,,,,,64,0,15,,,,,7,,,67,100
74304,note_on,,,,,64,0,12,,,,,4,,,59,85
74304,note_on,,,,,32,0,8,,,,,0,,,79,85
74304,note_on,,,,,0,0,15,,,,,7,,,71,100
74304,note_on,,,,,320,0,11,,,,,3,,,76,85
74304,note_on,,,,,64,0,13,,,,,5,,,52,85
74304,note_on,,,,,32,0,9,,,,,1,,,76,85
74304,note_on,,,,,64,0,16,,,,,7,,,52,100
74432,note_off,,,,,128,0,13,,,,,5,,,52,100
74432,note_off,,,,,128,0,12,,,,,4,,,59,100
74432,note_off,,,,,128,0,15,,,,,7,,,67,100
74432,note_off,,,,,128,0,16,,,,,7,,,52,100
74432,note_off,,,,,0,0,15,,,,,7,,,71,100
74432,note_off,,,,,128,0,14,,,,,6,,,40,100
74496,note_on,,,,,64,0,16,,,,,7,,,40,100
74496,note_on,,,,,64,0,14,,,,,6,,,40,85
74496,note_on,,,,,64,0,15,,,,,7,,,59,100
74496,note_on,,,,,0,0,15,,,,,7,,,67,100
74496,note_on,,,,,64,0,12,,,,,4,,,67,85
74496,note_on,,,,,192,0,10,,,,,2,,,79,85
74496,note_on,,,,,192,0,11,,,,,3,,,76,85
74496,note_on,,,,,64,0,13,,,,,5,,,40,85
74560,note_off,,,,,0,0,10,,,,,2,,,79,100
74560,note_off,,,,,256,0,9,,,,,1,,,76,100
74560,note_off,,,,,0,0,11,,,,,3,,,76,100
74560,note_off,,,,,64,0,11,,,,,3,,,76,100
74560,note_off,,,,,256,0,8,,,,,0,,,79,100
74560,note_off,,,,,64,0,10,,,,,2,,,79,100
74592,note_on,,,,,32,0,10,,,,,2,,,78,85
74592,note_on,,,,,32,0,11,,,,,3,,,75,85
74624,note_off,,,,,128,0,12,,,,,4,,,67,100
74624,note_off,,,,,128,0,14,,,,,6,,,40,100
74624,note_off,,,,,128,0,13,,,,,5,,,40,100
74624,note_off,,,,,128,0,16,,,,,7,,,40,100
74624,note_off,,,,,128,0,15,,,,,7,,,59,100
74624,note_off,,,,,0,0,15,,,,,7,,,67,100
74656,note_off,,,,,64,0,10,,,,,2,,,78,100
74656,note_off,,,,,64,0,11,,,,,3,,,75,100
74688,note_on,,,,,64,0,13,,,,,5,,,45,85
74688,note_on,,,,,64,0,14,,,,,6,,,33,85
74688,note_on,,,,,64,0,12,,,,,4,,,72,85
74688,note_on,,,,,64,0,16,,,,,7,,,45,100
74688,note_on,,,,,32,0,11,,,,,3,,,76,85
74688,note_on,,,,,0,0,15,,,,,7,,,67,100
74688,note_on,,,,,32,0,10,,,,,2,,,79,85
74688,note_on,,,,,64,0,15,,,,,7,,,64,100
74752,note_off,,,,,64,0,11,,,,,3,,,76,100
74752,note_off,,,,,64,0,10,,,,,2,,,79,100
74784,note_on,,,,,32,0,11,,,,,3,,,78,85
74784,note_on,,,,,32,0,10,,,,,2,,,81,85
74816,note_off,,,,,128,0,13,,,,,5,,,45,100
74816,note_off,,,,,128,0,14,,,,,6,,,33,100
74816,note_off,,,,,128,0,15,,,,,7,,,64,100
74816,note_off,,,,,128,0,12,,,,,4,,,72,100
74816,note_off,,,,,128,0,16,,,,,7,,,45,100
74816,note_off,,,,,0,0,15,,,,,7,,,67,100
74848,note_off,,,,,64,0,11,,,,,3,,,78,100
74848,note_off,,,,,64,0,10,,,,,2,,,81,100
74880,note_on,,,,,0,0,15,,,,,7,,,66,100
74880,note_on,,,,,64,0,15,,,,,7,,,75,100
74880,note_on,,,,,64,0,16,,,,,7,,,47,100
74880,note_on,,,,,32,0,11,,,,,3,,,75,85
74880,note_on,,,,,64,0,13,,,,,5,,,47,85
74880,note_on,,,,,64,0,12,,,,,4,,,66,85
74880,note_on,,,,,64,0,14,,,,,6,,,35,85
74880,note_on,,,,,32,0,10,,,,,2,,,78,85
75008,note_off,,,,,128,0,16,,,,,7,,,47,100
75008,note_off,,,,,128,0,14,,,,,6,,,35,100
75008,note_off,,,,,128,0,13,,,,,5,,,47,100
75072,note_on,,,,,64,0,13,,,,,5,,,47,85
75072,note_on,,,,,64,0,14,,,,,6,,,35,85
75072,note_on,,,,,64,0,16,,,,,7,,,47,100
75136,note_off,,,,,256,0,10,,,,,2,,,78,100
75136,note_off,,,,,256,0,15,,,,,7,,,75,100
75136,note_off,,,,,0,0,15,,,,,7,,,66,100
75136,note_off,,,,,256,0,12,,,,,4,,,66,100
75136,note_off,,,,,64,0,13,,,,,5,,,47,100
75136,note_off,,,,,64,0,14,,,,,6,,,35,100
75136,note_off,,,,,64,0,16,,,,,7,,,47,100
75136,note_off,,,,,256,0,11,,,,,3,,,75,100
75168,note_on,,,,,32,0,13,,,,,5,,,49,85
75168,note_on,,,,,32,0,14,,,,,6,,,37,85
75168,note_on,,,,,32,0,16,,,,,7,,,49,100
75232,note_off,,,,,64,0,13,,,,,5,,,49,100
75232,note_off,,,,,64,0,14,,,,,6,,,37,100
75232,note_off,,,,,64,0,16,,,,,7,,,49,100
75264,note_on,,,,,32,0,13,,,,,5,,,51,85
75264,note_on,,,,,32,0,14,,,,,6,,,39,85
75264,note_on,,,,,32,0,16,,,,,7,,,51,100
75328,note_off,,,,,64,0,16,,,,,7,,,51,100
75328,note_off,,,,,64,0,13,,,,,5,,,51,100
75328,note_off,,,,,64,0,14,,,,,6,,,39,100
75360,note_on,,,,,32,0,13,,,,,5,,,47,85
75360,note_on,,,,,32,0,16,,,,,7,,,47,100
75360,note_on,,,,,32,0,14,,,,,6,,,35,85
75424,note_off,,,,,64,0,14,,,,,6,,,35,100
75424,note_off,,,,,64,0,16,,,,,7,,,47,100
75424,note_off,,,,,64,0,13,,,,,5,,,47,100
75456,note_on,,,,,896,0,8,,,,,0,,,83,85
75456,note_on,,,,,0,0,15,,,,,7,,,76,100
75456,note_on,,,,,320,0,15,,,,,7,,,67,100
75456,note_on,,,,,320,0,10,,,,,2,,,83,35
75456,note_on,,,,,320,0,11,,,,,3,,,79,35
75456,note_on,,,,,32,0,16,,,,,7,,,52,100
75456,note_on,,,,,32,0,13,,,,,5,,,52,85
75456,note_on,,,,,320,0,12,,,,,4,,,64,85
75456,note_on,,,,,896,0,9,,,,,1,,,79,85
75456,note_on,,,,,32,0,14,,,,,6,,,40,85
75584,note_off,,,,,128,0,10,,,,,2,,,83,100
75584,note_off,,,,,128,0,16,,,,,7,,,52,100
75584,note_off,,,,,128,0,14,,,,,6,,,40,100
75584,note_off,,,,,128,0,8,,,,,0,,,83,100
75584,note_off,,,,,128,0,13,,,,,5,,,52,100
75648,note_on,,,,,64,0,14,,,,,6,,,40,85
75648,note_on,,,,,64,0,10,,,,,2,,,71,35
75648,note_on,,,,,64,0,16,,,,,7,,,52,100
75648,note_on,,,,,64,0,13,,,,,5,,,52,85
75648,note_on,,,,,64,0,8,,,,,0,,,71,85
75712,note_off,,,,,256,0,12,,,,,4,,,64,100
75712,note_off,,,,,64,0,13,,,,,5,,,52,100
75712,note_off,,,,,64,0,16,,,,,7,,,52,100
75712,note_off,,,,,256,0,15,,,,,7,,,67,100
75712,note_off,,,,,0,0,15,,,,,7,,,76,100
75712,note_off,,,,,64,0,14,,,,,6,,,40,100
75712,note_off,,,,,256,0,11,,,,,3,,,79,100
75712,note_off,,,,,256,0,9,,,,,1,,,79,100
75744,note_on,,,,,32,0,16,,,,,7,,,54,100
75744,note_on,,,,,32,0,14,,,,,6,,,42,85
75744,note_on,,,,,32,0,13,,,,,5,,,54,85
75776,note_off,,,,,128,0,10,,,,,2,,,71,100
75776,note_off,,,,,128,0,8,,,,,0,,,71,100
75808,note_off,,,,,64,0,13,,,,,5,,,54,100
75808,note_off,,,,,64,0,16,,,,,7,,,54,100
75808,note_off,,,,,64,0,14,,,,,6,,,42,100
75840,note_on,,,,,32,0,16,,,,,7,,,55,100
75840,note_on,,,,,32,0,13,,,,,5,,,55,85
75840,note_on,,,,,64,0,8,,,,,0,,,71,85
75840,note_on,,,,,64,0,10,,,,,2,,,71,35
75840,note_on,,,,,32,0,14,,,,,6,,,43,85
75904,note_off,,,,,64,0,13,,,,,5,,,55,100
75904,note_off,,,,,64,0,16,,,,,7,,,55,100
75904,note_off,,,,,64,0,14,,,,,6,,,43,100
75936,note_on,,,,,32,0,16,,,,,7,,,52,100
75936,note_on,,,,,32,0,14,,,,,6,,,40,85
75936,note_on,,,,,32,0,13,,,,,5,,,52,85
75968,note_off,,,,,128,0,10,,,,,2,,,71,100
75968,note_off,,,,,128,0,8,,,,,0,,,71,100
76000,note_off,,,,,64,0,14,,,,,6,,,40,100
76000,note_off,,,,,64,0,13,,,,,5,,,52,100
76000,note_off,,,,,64,0,16,,,,,7,,,52,100
76032,note_on,,,,,320,0,12,,,,,4,,,63,85
76032,note_on,,,,,32,0,14,,,,,6,,,35,85
76032,note_on,,,,,32,0,13,,,,,5,,,47,85
76032,note_on,,,,,320,0,9,,,,,1,,,78,85
76032,note_on,,,,,32,0,16,,,,,7,,,47,100
76032,note_on,,,,,320,0,11,,,,,3,,,78,35
76032,note_on,,,,,64,0,8,,,,,0,,,81,85
76032,note_on,,,,,320,0,15,,,,,7,,,66,100
76032,note_on,,,,,0,0,15,,,,,7,,,69,100
76032,note_on,,,,,64,0,10,,,,,2,,,81,35
76160,note_off,,,,,128,0,16,,,,,7,,,47,100
76160,note_off,,,,,128,0,8,,,,,0,,,81,100
76160,note_off,,,,,128,0,14,,,,,6,,,35,100
76160,note_off,,,,,128,0,13,,,,,5,,,47,100
76160,note_off,,,,,128,0,10,,,,,2,,,81,100
76224,note_on,,,,,64,0,10,,,,,2,,,71,35
76224,note_on,,,,,64,0,16,,,,,7,,,47,100
76224,note_on,,,,,64,0,14,,,,,6,,,35,85
76224,note_on,,,,,64,0,13,,,,,5,,,47,85
76224,note_on,,,,,64,0,8,,,,,0,,,71,85
76288,note_off,,,,,0,0,15,,,,,7,,,69,100
76288,note_off,,,,,256,0,9,,,,,1,,,78,100
76288,note_off,,,,,256,0,15,,,,,7,,,66,100
76288,note_off,,,,,256,0,12,,,,,4,,,63,100
76288,note_off,,,,,256,0,11,,,,,3,,,78,100
76288,note_off,,,,,64,0,16,,,,,7,,,47,100
76288,note_off,,,,,64,0,14,,,,,6,,,35,100
76288,note_off,,,,,64,0,13,,,,,5,,,47,100
76320,note_on,,,,,32,0,13,,,,,5,,,49,85
76320,note_on,,,,,32,0,16,,,,,7,,,49,100
76320,note_on,,,,,32,0,14,,,,,6,,,37,85
76352,note_off,,,,,128,0,8,,,,,0,,,71,100
76352,note_off,,,,,128,0,10,,,,,2,,,71,100
76384,note_off,,,,,64,0,13,,,,,5,,,49,100
76384,note_off,,,,,64,0,16,,,,,7,,,49,100
76384,note_off,,,,,64,0,14,,,,,6,,,37,100
76416,note_on,,,,,64,0,10,,,,,2,,,71,35
76416,note_on,,,,,64,0,8,,,,,0,,,71,85
76416,note_on,,,,,32,0,16,,,,,7,,,51,100
76416,note_on,,,,,32,0,14,,,,,6,,,39,85
76416,note_on,,,,,32,0,13,,,,,5,,,51,85
76480,note_off,,,,,64,0,13,,,,,5,,,51,100
76480,note_off,,,,,64,0,16,,,,,7,,,51,100
76480,note_off,,,,,64,0,14,,,,,6,,,39,100
76512,note_on,,,,,32,0,16,,,,,7,,,47,100
76512,note_on,,,,,32,0,13,,,,,5,,,47,85
76512,note_on,,,,,32,0,14,,,,,6,,,35,85
76544,note_off,,,,,128,0,10,,,,,2,,,71,100
76544,note_off,,,,,128,0,8,,,,,0,,,71,100
76576,note_off,,,,,64,0,16,,,,,7,,,47,100
76576,note_off,,,,,64,0,13,,,,,5,,,47,100
76576,note_off,,,,,64,0,14,,,,,6,,,35,100
76608,note_on,,,,,0,0,15,,,,,7,,,71,100
76608,note_on,,,,,64,0,8,,,,,0,,,79,85
76608,note_on,,,,,32,0,13,,,,,5,,,52,85
76608,note_on,,,,,320,0,9,,,,,1,,,76,85
76608,note_on,,,,,320,0,12,,,,,4,,,59,85
76608,note_on,,,,,32,0,16,,,,,7,,,52,100
76608,note_on,,,,,32,0,14,,,,,6,,,40,85
76608,note_on,,,,,320,0,11,,,,,3,,,76,35
76608,note_on,,,,,320,0,15,,,,,7,,,67,100
76608,note_on,,,,,64,0,10,,,,,2,,,79,35
76736,note_off,,,,,128,0,8,,,,,0,,,79,100
76736,note_off,,,,,128,0,13,,,,,5,,,52,100
76736,note_off,,,,,128,0,14,,,,,6,,,40,100
76736,note_off,,,,,128,0,16,,,,,7,,,52,100
76736,note_off,,,,,128,0,10,,,,,2,,,79,100
76800,note_on,,,,,64,0,10,,,,,2,,,71,35
76800,note_on,,,,,64,0,16,,,,,7,,,52,100
76800,note_on,,,,,64,0,14,,,,,6,,,40,85
76800,note_on,,,,,64,0,8,,,,,0,,,71,85
76800,note_on,,,,,64,0,13,,,,,5,,,52,85
76864,note_off,,,,,64,0,16,,,,,7,,,52,100
76864,note_off,,,,,64,0,14,,,,,6,,,40,100
76864,note_off,,,,,256,0,12,,,,,4,,,59,100
76864,note_off,,,,,0,0,15,,,,,7,,,71,100
76864,note_off,,,,,64,0,13,,,,,5,,,52,100
76864,note_off,,,,,256,0,11,,,,,3,,,76,100
76864,note_off,,,,,256,0,15,,,,,7,,,67,100
76864,note_off,,,,,256,0,9,,,,,1,,,76,100
76896,note_on,,,,,32,0,14,,,,,6,,,42,85
76896,note_on,,,,,32,0,13,,,,,5,,,54,85
76896,note_on,,,,,32,0,16,,,,,7,,,54,100
76928,note_off,,,,,128,0,8,,,,,0,,,71,100
76928,note_off,,,,,128,0,10,,,,,2,,,71,100
76960,note_off,,,,,64,0,13,,,,,5,,,54,100
76960,note_off,,,,,64,0,14,,,,,6,,,42,100
76960,note_off,,,,,64,0,16,,,,,7,,,54,100
76992,note_on,,,,,64,0,10,,,,,2,,,71,35
76992,note_on,,,,,64,0,8,,,,,0,,,71,85
76992,note_on,,,,,32,0,16,,,,,7,,,55,100
76992,note_on,,,,,32,0,14,,,,,6,,,43,85
76992,note_on,,,,,32,0,13,,,,,5,,,55,85
77056,note_off,,,,,64,0,16,,,,,7,,,55,100
77056,note_off,,,,,64,0,13,,,,,5,,,55,100
77056,note_off,,,,,64,0,14,,,,,6,,,43,100
77088,note_on,,,,,32,0,16,,,,,7,,,52,100
77088,note_on,,,,,32,0,13,,,,,5,,,52,85
77088,note_on,,,,,32,0,14,,,,,6,,,40,85
77120,note_off,,,,,128,0,10,,,,,2,,,71,100
77120,note_off,,,,,128,0,8,,,,,0,,,71,100
77152,note_off,,,,,64,0,16,,,,,7,,,52,100
77152,note_off,,,,,64,0,13,,,,,5,,,52,100
77152,note_off,,,,,64,0,14,,,,,6,,,40,100
77184,note_on,,,,,64,0,10,,,,,2,,,78,35
77184,note_on,,,,,320,0,12,,,,,4,,,66,85
77184,note_on,,,,,320,0,9,,,,,1,,,75,85
77184,note_on,,,,,0,0,15,,,,,7,,,69,100
77184,note_on,,,,,320,0,11,,,,,3,,,75,35
77184,note_on,,,,,32,0,14,,,,,6,,,35,85
77184,note_on,,,,,32,0,16,,,,,7,,,47,100
77184,note_on,,,,,64,0,8,,,,,0,,,78,85
77184,note_on,,,,,32,0,13,,,,,5,,,47,85
77184,note_on,,,,,320,0,15,,,,,7,,,66,100
77312,note_off,,,,,128,0,16,,,,,7,,,47,100
77312,note_off,,,,,128,0,8,,,,,0,,,78,100
77312,note_off,,,,,128,0,10,,,,,2,,,78,100
77312,note_off,,,,,128,0,13,,,,,5,,,47,100
77312,note_off,,,,,128,0,14,,,,,6,,,35,100
77376,note_on,,,,,64,0,14,,,,,6,,,35,85
77376,note_on,,,,,64,0,16,,,,,7,,,47,100
77376,note_on,,,,,64,0,10,,,,,2,,,71,35
77376,note_on,,,,,64,0,13,,,,,5,,,47,85
77376,note_on,,,,,64,0,8,,,,,0,,,71,85
77440,note_off,,,,,0,0,15,,,,,7,,,69,100
77440,note_off,,,,,256,0,15,,,,,7,,,66,100
77440,note_off,,,,,64,0,16,,,,,7,,,47,100
77440,note_off,,,,,256,0,11,,,,,3,,,75,100
77440,note_off,,,,,64,0,14,,,,,6,,,35,100
77440,note_off,,,,,256,0,9,,,,,1,,,75,100
77440,note_off,,,,,256,0,12,,,,,4,,,66,100
77440,note_off,,,,,64,0,13,,,,,5,,,47,100
77472,note_on,,,,,32,0,14,,,,,6,,,37,85
77472,note_on,,,,,32,0,16,,,,,7,,,49,100
77472,note_on,,,,,32,0,13,,,,,5,,,49,85
77504,note_off,,,,,128,0,10,,,,,2,,,71,100
77504,note_off,,,,,128,0,8,,,,,0,,,71,100
77536,note_off,,,,,64,0,16,,,,,7,,,49,100
77536,note_off,,,,,64,0,14,,,,,6,,,37,100
77536,note_off,,,,,64,0,13,,,,,5,,,49,100
77568,note_on,,,,,32,0,13,,,,,5,,,51,85
77568,note_on,,,,,32,0,14,,,,,6,,,39,85
77568,note_on,,,,,64,0,10,,,,,2,,,71,35
77568,note_on,,,,,32,0,16,,,,,7,,,51,100
77568,note_on,,,,,64,0,8,,,,,0,,,71,85
77632,note_off,,,,,64,0,13,,,,,5,,,51,100
77632,note_off,,,,,64,0,16,,,,,7,,,51,100
77632,note_off,,,,,64,0,14,,,,,6,,,39,100
77664,note_on,,,,,32,0,16,,,,,7,,,47,100
77664,note_on,,,,,32,0,14,,,,,6,,,35,85
77664,note_on,,,,,32,0,13,,,,,5,,,47,85
77696,note_off,,,,,128,0,8,,,,,0,,,71,100
77696,note_off,,,,,128,0,10,,,,,2,,,71,100
77728,note_off,,,,,64,0,13,,,,,5,,,47,100
77728,note_off,,,,,64,0,14,,,,,6,,,35,100
77728,note_off,,,,,64,0,16,,,,,7,,,47,100
77760,note_on,,,,,32,0,14,,,,,6,,,40,85
77760,note_on,,,,,32,0,13,,,,,5,,,52,85
77760,note_on,,,,,320,0,12,,,,,4,,,64,85
77760,note_on,,,,,64,0,10,,,,,2,,,79,35
77760,note_on,,,,,320,0,11,,,,,3,,,71,35
77760,note_on,,,,,0,0,15,,,,,7,,,71,100
77760,note_on,,,,,320,0,15,,,,,7,,,67,100
77760,note_on,,,,,32,0,16,,,,,7,,,52,100
77760,note_on,,,,,64,0,8,,,,,0,,,79,85
77760,note_on,,,,,320,0,9,,,,,1,,,71,85
77952,note_off,,,,,192,0,10,,,,,2,,,79,100
77952,note_off,,,,,192,0,14,,,,,6,,,40,100
77952,note_off,,,,,192,0,16,,,,,7,,,52,100
77952,note_off,,,,,0,0,15,,,,,7,,,71,100
77952,note_off,,,,,192,0,13,,,,,5,,,52,100
77952,note_off,,,,,192,0,9,,,,,1,,,71,100
77952,note_off,,,,,192,0,11,,,,,3,,,71,100
77952,note_off,,,,,192,0,15,,,,,7,,,67,100
77952,note_off,,,,,192,0,8,,,,,0,,,79,100
78016,note_off,,,,,256,0,12,,,,,4,,,64,100
78048,note_on,,,,,96,0,10,,,,,2,,,78,35
78048,note_on,,,,,96,0,13,,,,,5,,,54,85
78048,note_on,,,,,96,0,14,,,,,6,,,42,85
78048,note_on,,,,,0,0,15,,,,,7,,,72,100
78048,note_on,,,,,96,0,15,,,,,7,,,69,100
78048,note_on,,,,,96,0,8,,,,,0,,,78,85
78048,note_on,,,,,96,0,11,,,,,3,,,69,35
78048,note_on,,,,,96,0,9,,,,,1,,,69,85
78048,note_on,,,,,96,0,16,,,,,7,,,54,100
78112,note_off,,,,,64,0,9,,,,,1,,,69,100
78112,note_off,,,,,64,0,14,,,,,6,,,42,100
78112,note_off,,,,,64,0,13,,,,,5,,,54,100
78112,note_off,,,,,0,0,15,,,,,7,,,72,100
78112,note_off,,,,,64,0,15,,,,,7,,,69,100
78112,note_off,,,,,64,0,10,,,,,2,,,78,100
78112,note_off,,,,,64,0,8,,,,,0,,,78,100
78112,note_off,,,,,64,0,16,,,,,7,,,54,100
78112,note_off,,,,,64,0,11,,,,,3,,,69,100
78144,note_on,,,,,32,0,14,,,,,6,,,43,85
78144,note_on,,,,,32,0,15,,,,,7,,,76,100
78144,note_on,,,,,0,0,15,,,,,7,,,71,100
78144,note_on,,,,,32,0,16,,,,,7,,,55,100
78144,note_on,,,,,128,0,12,,,,,4,,,59,85
78144,note_on,,,,,32,0,9,,,,,1,,,67,85
78144,note_on,,,,,32,0,8,,,,,0,,,76,85
78144,note_on,,,,,32,0,10,,,,,2,,,76,35
78144,note_on,,,,,32,0,11,,,,,3,,,67,35
78144,note_on,,,,,32,0,13,,,,,5,,,55,85
78272,note_off,,,,,128,0,13,,,,,5,,,55,100
78272,note_off,,,,,128,0,11,,,,,3,,,67,100
78272,note_off,,,,,128,0,8,,,,,0,,,76,100
78272,note_off,,,,,128,0,15,,,,,7,,,76,100
78272,note_off,,,,,0,0,15,,,,,7,,,71,100
78272,note_off,,,,,128,0,10,,,,,2,,,76,100
78272,note_off,,,,,128,0,12,,,,,4,,,59,100
78272,note_off,,,,,128,0,16,,,,,7,,,55,100
78272,note_off,,,,,128,0,14,,,,,6,,,43,100
78272,note_off,,,,,128,0,9,,,,,1,,,67,100
78336,note_on,,,,,64,0,13,,,,,5,,,57,85
78336,note_on,,,,,64,0,15,,,,,7,,,76,100
78336,note_on,,,,,64,0,10,,,,,2,,,76,35
78336,note_on,,,,,64,0,11,,,,,3,,,66,35
78336,note_on,,,,,64,0,8,,,,,0,,,76,85
78336,note_on,,,,,0,0,15,,,,,7,,,66,100
78336,note_on,,,,,64,0,14,,,,,6,,,45,85
78336,note_on,,,,,64,0,16,,,,,7,,,57,100
78336,note_on,,,,,64,0,12,,,,,4,,,60,85
78336,note_on,,,,,64,0,9,,,,,1,,,66,85
78464,note_off,,,,,128,0,15,,,,,7,,,76,100
78464,note_off,,,,,128,0,10,,,,,2,,,76,100
78464,note_off,,,,,128,0,13,,,,,5,,,57,100
78464,note_off,,,,,128,0,12,,,,,4,,,60,100
78464,note_off,,,,,128,0,8,,,,,0,,,76,100
78464,note_off,,,,,128,0,16,,,,,7,,,57,100
78464,note_off,,,,,0,0,15,,,,,7,,,66,100
78464,note_off,,,,,128,0,14,,,,,6,,,45,100
78528,note_on,,,,,64,0,15,,,,,7,,,66,100
78528,note_on,,,,,64,0,10,,,,,2,,,71,35
78528,note_on,,,,,64,0,8,,,,,0,,,71,85
78528,note_on,,,,,64,0,12,,,,,4,,,59,85
78528,note_on,,,,,64,0,13,,,,,5,,,59,85
78528,note_on,,,,,0,0,15,,,,,7,,,75,100
78528,note_on,,,,,64,0,16,,,,,7,,,59,100
78528,note_on,,,,,64,0,14,,,,,6,,,47,85
78592,note_off,,,,,256,0,9,,,,,1,,,66,100
78592,note_off,,,,,256,0,11,,,,,3,,,66,100
78656,note_off,,,,,128,0,14,,,,,6,,,47,100
78656,note_off,,,,,128,0,10,,,,,2,,,71,100
78656,note_off,,,,,0,0,15,,,,,7,,,75,100
78656,note_off,,,,,128,0,15,,,,,7,,,66,100
78656,note_off,,,,,128,0,8,,,,,0,,,71,100
78656,note_off,,,,,128,0,13,,,,,5,,,59,100
78656,note_off,,,,,128,0,16,,,,,7,,,59,100
78720,note_on,,,,,64,0,8,,,,,0,,,75,85
78720,note_on,,,,,128,0,9,,,,,1,,,66,85
78720,note_on,,,,,64,0,13,,,,,5,,,47,85
78720,note_on,,,,,64,0,15,,,,,7,,,75,100
78720,note_on,,,,,0,0,15,,,,,7,,,71,100
78720,note_on,,,,,0,0,15,,,,,7,,,66,100
78720,note_on,,,,,128,0,11,,,,,3,,,66,35
78720,note_on,,,,,64,0,16,,,,,7,,,47,100
78720,note_on,,,,,64,0,14,,,,,6,,,35,85
78720,note_on,,,,,64,0,10,,,,,2,,,75,35
78784,note_off,,,,,256,0,12,,,,,4,,,59,100
78848,note_off,,,,,128,0,16,,,,,7,,,47,100
78848,note_off,,,,,128,0,11,,,,,3,,,66,100
78848,note_off,,,,,128,0,8,,,,,0,,,75,100
78848,note_off,,,,,128,0,13,,,,,5,,,47,100
78848,note_off,,,,,128,0,10,,,,,2,,,75,100
78848,note_off,,,,,128,0,14,,,,,6,,,35,100
78848,note_off,,,,,128,0,9,,,,,1,,,66,100
78848,note_off,,,,,0,0,15,,,,,7,,,66,100
78848,note_off,,,,,0,0,15,,,,,7,,,71,100
78848,note_off,,,,,128,0,15,,,,,7,,,75,100
78912,note_on,,,,,64,0,10,,,,,2,,,76,35
78912,note_on,,,,,64,0,14,,,,,6,,,40,85
78912,note_on,,,,,64,0,11,,,,,3,,,67,35
78912,note_on,,,,,128,0,12,,,,,4,,,59,85
78912,note_on,,,,,64,0,9,,,,,1,,,67,85
78912,note_on,,,,,64,0,8,,,,,0,,,76,85
78912,note_on,,,,,0,0,15,,,,,7,,,67,100
78912,note_on,,,,,64,0,13,,,,,5,,,52,85
78912,note_on,,,,,64,0,15,,,,,7,,,71,100
78912,note_on,,,,,0,0,15,,,,,7,,,76,100
78912,note_on,,,,,64,0,16,,,,,7,,,52,100
79040,note_off,,,,,128,0,13,,,,,5,,,52,100
79040,note_off,,,,,128,0,14,,,,,6,,,40,100
79040,note_off,,,,,128,0,16,,,,,7,,,52,100
79104,note_on,,,,,64,0,13,,,,,5,,,52,85
79104,note_on,,,,,64,0,14,,,,,6,,,40,85
79104,note_on,,,,,64,0,16,,,,,7,,,52,100
79168,note_off,,,,,256,0,9,,,,,1,,,67,100
79168,note_off,,,,,0,0,15,,,,,7,,,76,100
79168,note_off,,,,,256,0,15,,,,,7,,,71,100
79168,note_off,,,,,256,0,10,,,,,2,,,76,100
79168,note_off,,,,,0,0,15,,,,,7,,,67,100
79168,note_off,,,,,256,0,12,,,,,4,,,59,100
79168,note_off,,,,,64,0,16,,,,,7,,,52,100
79168,note_off,,,,,256,0,11,,,,,3,,,67,100
79168,note_off,,,,,64,0,14,,,,,6,,,40,100
79168,note_off,,,,,256,0,8,,,,,0,,,76,100
79168,note_off,,,,,64,0,13,,,,,5,,,52,100
79200,note_on,,,,,32,0,14,,,,,6,,,42,85
79200,note_on,,,,,32,0,13,,,,,5,,,54,85
79200,note_on,,,,,32,0,16,,,,,7,,,54,100
79264,note_off,,,,,64,0,13,,,,,5,,,54,100
79264,note_off,,,,,64,0,14,,,,,6,,,42,100
79264,note_off,,,,,64,0,16,,,,,7,,,54,100
79296,note_on,,,,,32,0,13,,,,,5,,,55,85
79296,note_on,,,,,32,0,16,,,,,7,,,55,100
79296,note_on,,,,,32,0,14,,,,,6,,,43,85
79360,note_off,,,,,64,0,16,,,,,7,,,55,100
79360,note_off,,,,,64,0,14,,,,,6,,,43,100
79360,note_off,,,,,64,0,13,,,,,5,,,55,100
79392,note_on,,,,,32,0,14,,,,,6,,,40,85
79392,note_on,,,,,32,0,16,,,,,7,,,52,100
79392,note_on,,,,,32,0,13,,,,,5,,,52,85
79456,note_off,,,,,64,0,16,,,,,7,,,52,100
79456,note_off,,,,,64,0,14,,,,,6,,,40,100
79456,note_off,,,,,64,0,13,,,,,5,,,52,100
79488,note_on,,,,,320,0,8,,,,,0,,,81,85
79488,note_on,,,,,0,0,15,,,,,7,,,69,100
79488,note_on,,,,,320,0,15,,,,,7,,,64,100
79488,note_on,,,,,320,0,12,,,,,4,,,72,85
79488,note_on,,,,,32,0,13,,,,,5,,,60,85
79488,note_on,,,,,320,0,10,,,,,2,,,81,35
79488,note_on,,,,,32,0,14,,,,,6,,,48,85
79488,note_on,,,,,32,0,16,,,,,7,,,60,100
79488,note_on,,,,,320,0,11,,,,,3,,,76,35
79488,note_on,,,,,320,0,9,,,,,1,,,76,85
79552,note_off,,,,,64,0,14,,,,,6,,,48,100
79552,note_off,,,,,64,0,13,,,,,5,,,60,100
79552,note_off,,,,,64,0,16,,,,,7,,,60,100
79584,note_on,,,,,32,0,14,,,,,6,,,47,85
79584,note_on,,,,,32,0,13,,,,,5,,,59,85
79584,note_on,,,,,32,0,16,,,,,7,,,59,100
79616,note_off,,,,,128,0,8,,,,,0,,,81,100
79616,note_off,,,,,128,0,10,,,,,2,,,81,100
79648,note_off,,,,,64,0,16,,,,,7,,,59,100
79648,note_off,,,,,64,0,13,,,,,5,,,59,100
79648,note_off,,,,,64,0,14,,,,,6,,,47,100
79680,note_on,,,,,32,0,14,,,,,6,,,45,86
79680,note_on,,,,,32,0,13,,,,,5,,,57,86
79680,note_on,,,,,64,0,10,,,,,2,,,69,36
79680,note_on,,,,,64,0,8,,,,,0,,,69,86
79680,note_on,,,,,32,0,16,,,,,7,,,57,100
79744,note_off,,,,,64,0,14,,,,,6,,,45,100
79744,note_off,,,,,0,0,15,,,,,7,,,69,100
79744,note_off,,,,,256,0,15,,,,,7,,,64,100
79744,note_off,,,,,64,0,13,,,,,5,,,57,100
79744,note_off,,,,,64,0,16,,,,,7,,,57,100
79744,note_off,,,,,256,0,11,,,,,3,,,76,100
79744,note_off,,,,,256,0,9,,,,,1,,,76,100
79744,note_off,,,,,256,0,12,,,,,4,,,72,100
79776,note_on,,,,,32,0,16,,,,,7,,,55,100
79776,note_on,,,,,32,0,13,,,,,5,,,55,87
79776,note_on,,,,,32,0,14,,,,,6,,,43,87
79808,note_off,,,,,128,0,8,,,,,0,,,69,100
79808,note_off,,,,,128,0,10,,,,,2,,,69,100
79840,note_off,,,,,64,0,14,,,,,6,,,43,100
79840,note_off,,,,,64,0,16,,,,,7,,,55,100
79840,note_off,,,,,64,0,13,,,,,5,,,55,100
79872,note_on,,,,,32,0,16,,,,,7,,,54,100
79872,note_on,,,,,32,0,13,,,,,5,,,54,87
79872,note_on,,,,,64,0,10,,,,,2,,,81,37
79872,note_on,,,,,32,0,14,,,,,6,,,42,87
79872,note_on,,,,,64,0,8,,,,,0,,,81,87
79936,note_off,,,,,64,0,16,,,,,7,,,54,100
79936,note_off,,,,,64,0,14,,,,,6,,,42,100
79936,note_off,,,,,64,0,13,,,,,5,,,54,100
79968,note_on,,,,,32,0,13,,,,,5,,,52,88
79968,note_on,,,,,32,0,16,,,,,7,,,52,100
79968,note_on,,,,,32,0,14,,,,,6,,,40,88
80000,note_off,,,,,128,0,10,,,,,2,,,81,100
80000,note_off,,,,,128,0,8,,,,,0,,,81,100
80032,note_off,,,,,64,0,13,,,,,5,,,52,100
80032,note_off,,,,,64,0,16,,,,,7,,,52,100
80032,note_off,,,,,64,0,14,,,,,6,,,40,100
80064,note_on,,,,,32,0,13,,,,,5,,,60,89
80064,note_on,,,,,320,0,11,,,,,3,,,76,39
80064,note_on,,,,,320,0,9,,,,,1,,,76,89
80064,note_on,,,,,32,0,14,,,,,6,,,48,89
80064,note_on,,,,,64,0,10,,,,,2,,,81,39
80064,note_on,,,,,32,0,16,,,,,7,,,60,100
80064,note_on,,,,,64,0,8,,,,,0,,,81,89
80064,note_on,,,,,320,0,15,,,,,7,,,64,100
80064,note_on,,,,,0,0,15,,,,,7,,,69,100
80064,note_on,,,,,320,0,12,,,,,4,,,72,89
80128,note_off,,,,,64,0,16,,,,,7,,,60,100
80128,note_off,,,,,64,0,13,,,,,5,,,60,100
80128,note_off,,,,,64,0,14,,,,,6,,,48,100
80160,note_on,,,,,32,0,16,,,,,7,,,59,100
80160,note_on,,,,,32,0,13,,,,,5,,,59,89
80160,note_on,,,,,32,0,14,,,,,6,,,47,89
80192,note_off,,,,,128,0,10,,,,,2,,,81,100
80192,note_off,,,,,128,0,8,,,,,0,,,81,100
80224,note_off,,,,,64,0,13,,,,,5,,,59,100
80224,note_off,,,,,64,0,16,,,,,7,,,59,100
80224,note_off,,,,,64,0,14,,,,,6,,,47,100
80256,note_on,,,,,64,0,8,,,,,0,,,69,90
80256,note_on,,,,,32,0,13,,,,,5,,,57,90
80256,note_on,,,,,32,0,16,,,,,7,,,57,100
80256,note_on,,,,,64,0,10,,,,,2,,,69,40
80256,note_on,,,,,32,0,14,,,,,6,,,45,90
80320,note_off,,,,,256,0,15,,,,,7,,,64,100
80320,note_off,,,,,0,0,15,,,,,7,,,69,100
80320,note_off,,,,,256,0,11,,,,,3,,,76,100
80320,note_off,,,,,256,0,9,,,,,1,,,76,100
80320,note_off,,,,,64,0,14,,,,,6,,,45,100
80320,note_off,,,,,256,0,12,,,,,4,,,72,100
80320,note_off,,,,,64,0,13,,,,,5,,,57,100
80320,note_off,,,,,64,0,16,,,,,7,,,57,100
80352,note_on,,,,,32,0,13,,,,,5,,,55,91
80352,note_on,,,,,32,0,16,,,,,7,,,55,100
80352,note_on,,,,,32,0,14,,,,,6,,,43,91
80384,note_off,,,,,128,0,10,,,,,2,,,69,100
80384,note_off,,,,,128,0,8,,,,,0,,,69,100
80416,note_off,,,,,64,0,13,,,,,5,,,55,100
80416,note_off,,,,,64,0,16,,,,,7,,,55,100
80416,note_off,,,,,64,0,14,,,,,6,,,43,100
80448,note_on,,,,,64,0,8,,,,,0,,,81,91
80448,note_on,,,,,64,0,10,,,,,2,,,81,41
80448,note_on,,,,,32,0,13,,,,,5,,,54,91
80448,note_on,,,,,32,0,14,,,,,6,,,42,91
80448,note_on,,,,,32,0,16,,,,,7,,,54,100
80512,note_off,,,,,64,0,14,,,,,6,,,42,100
80512,note_off,,,,,64,0,16,,,,,7,,,54,100
80512,note_off,,,,,64,0,13,,,,,5,,,54,100
80544,note_on,,,,,32,0,14,,,,,6,,,40,92
80544,note_on,,,,,32,0,16,,,,,7,,,52,100
80544,note_on,,,,,32,0,13,,,,,5,,,52,92
80576,note_off,,,,,128,0,10,,,,,2,,,81,100
80576,note_off,,,,,128,0,8,,,,,0,,,81,100
80608,note_off,,,,,64,0,14,,,,,6,,,40,100
80608,note_off,,,,,64,0,16,,,,,7,,,52,100
80608,note_off,,,,,64,0,13,,,,,5,,,52,100
80640,note_on,,,,,64,0,8,,,,,0,,,81,93
80640,note_on,,,,,32,0,13,,,,,5,,,57,93
80640,note_on,,,,,320,0,15,,,,,7,,,73,100
80640,note_on,,,,,320,0,9,,,,,1,,,76,93
80640,note_on,,,,,32,0,14,,,,,6,,,45,93
80640,note_on,,,,,320,0,11,,,,,3,,,76,43
80640,note_on,,,,,32,0,16,,,,,7,,,57,100
80640,note_on,,,,,320,0,12,,,,,4,,,73,93
80640,note_on,,,,,64,0,10,,,,,2,,,81,43
80640,note_on,,,,,0,0,15,,,,,7,,,64,100
80704,note_off,,,,,64,0,13,,,,,5,,,57,100
80704,note_off,,,,,64,0,14,,,,,6,,,45,100
80704,note_off,,,,,64,0,16,,,,,7,,,57,100
80736,note_on,,,,,32,0,16,,,,,7,,,55,100
80736,note_on,,,,,32,0,13,,,,,5,,,55,94
80736,note_on,,,,,32,0,14,,,,,6,,,43,94
80768,note_off,,,,,128,0,8,,,,,0,,,81,100
80768,note_off,,,,,128,0,10,,,,,2,,,81,100
80800,note_off,,,,,64,0,13,,,,,5,,,55,100
80800,note_off,,,,,64,0,14,,,,,6,,,43,100
80800,note_off,,,,,64,0,16,,,,,7,,,55,100
80832,note_on,,,,,64,0,8,,,,,0,,,69,94
80832,note_on,,,,,32,0,13,,,,,5,,,54,94
80832,note_on,,,,,64,0,10,,,,,2,,,69,44
80832,note_on,,,,,32,0,14,,,,,6,,,42,94
80832,note_on,,,,,32,0,16,,,,,7,,,54,100
80896,note_off,,,,,256,0,15,,,,,7,,,73,100
80896,note_off,,,,,256,0,11,,,,,3,,,76,100
80896,note_off,,,,,256,0,12,,,,,4,,,73,100
80896,note_off,,,,,64,0,16,,,,,7,,,54,100
80896,note_off,,,,,64,0,13,,,,,5,,,54,100
80896,note_off,,,,,0,0,15,,,,,7,,,64,100
80896,note_off,,,,,256,0,9,,,,,1,,,76,100
80896,note_off,,,,,64,0,14,,,,,6,,,42,100
80928,note_on,,,,,32,0,13,,,,,5,,,52,95
80928,note_on,,,,,32,0,14,,,,,6,,,40,95
80928,note_on,,,,,32,0,16,,,,,7,,,52,100
80960,note_off,,,,,128,0,10,,,,,2,,,69,100
80960,note_off,,,,,128,0,8,,,,,0,,,69,100
80992,note_off,,,,,64,0,14,,,,,6,,,40,100
80992,note_off,,,,,64,0,13,,,,,5,,,52,100
80992,note_off,,,,,64,0,16,,,,,7,,,52,100
81024,note_on,,,,,32,0,13,,,,,5,,,51,96
81024,note_on,,,,,32,0,16,,,,,7,,,51,100
81024,note_on,,,,,64,0,8,,,,,0,,,81,96
81024,note_on,,,,,64,0,10,,,,,2,,,81,46
81024,note_on,,,,,32,0,14,,,,,6,,,39,96
81088,note_off,,,,,64,0,16,,,,,7,,,51,100
81088,note_off,,,,,64,0,14,,,,,6,,,39,100
81088,note_off,,,,,64,0,13,,,,,5,,,51,100
81120,note_on,,,,,32,0,16,,,,,7,,,49,100
81120,note_on,,,,,32,0,13,,,,,5,,,49,96
81120,note_on,,,,,32,0,14,,,,,6,,,37,96
81152,note_off,,,,,128,0,8,,,,,0,,,81,100
81152,note_off,,,,,128,0,10,,,,,2,,,81,100
81184,note_off,,,,,64,0,13,,,,,5,,,49,100
81184,note_off,,,,,64,0,14,,,,,6,,,37,100
81184,note_off,,,,,64,0,16,,,,,7,,,49,100
81216,note_on,,,,,32,0,16,,,,,7,,,47,100
81216,note_on,,,,,64,0,8,,,,,0,,,81,97
81216,note_on,,,,,320,0,11,,,,,3,,,78,47
81216,note_on,,,,,320,0,9,,,,,1,,,78,97
81216,note_on,,,,,64,0,10,,,,,2,,,81,47
81216,note_on,,,,,0,0,15,,,,,7,,,75,100
81216,note_on,,,,,320,0,15,,,,,7,,,69,100
81216,note_on,,,,,320,0,12,,,,,4,,,75,97
81216,note_on,,,,,32,0,14,,,,,6,,,35,97
81216,note_on,,,,,32,0,13,,,,,5,,,47,97
81344,note_off,,,,,128,0,16,,,,,7,,,47,100
81344,note_off,,,,,128,0,13,,,,,5,,,47,100
81344,note_off,,,,,128,0,14,,,,,6,,,35,100
81344,note_off,,,,,128,0,10,,,,,2,,,81,100
81344,note_off,,,,,128,0,8,,,,,0,,,81,100
81408,note_on,,,,,64,0,10,,,,,2,,,69,48
81408,note_on,,,,,64,0,14,,,,,6,,,39,98
81408,note_on,,,,,64,0,16,,,,,7,,,51,100
81408,note_on,,,,,64,0,13,,,,,5,,,51,98
81408,note_on,,,,,64,0,8,,,,,0,,,69,98
81472,note_off,,,,,256,0,12,,,,,4,,,75,100
81472,note_off,,,,,0,0,15,,,,,7,,,75,100
81472,note_off,,,,,256,0,15,,,,,7,,,69,100
81472,note_off,,,,,256,0,9,,,,,1,,,78,100
81472,note_off,,,,,256,0,11,,,,,3,,,78,100
81536,note_off,,,,,128,0,8,,,,,0,,,69,100
81536,note_off,,,,,128,0,16,,,,,7,,,51,100
81536,note_off,,,,,128,0,14,,,,,6,,,39,100
81536,note_off,,,,,128,0,10,,,,,2,,,69,100
81536,note_off,,,,,128,0,13,,,,,5,,,51,100
81600,note_on,,,,,64,0,14,,,,,6,,,42,100
81600,note_on,,,,,64,0,10,,,,,2,,,81,50
81600,note_on,,,,,64,0,13,,,,,5,,,54,100
81600,note_on,,,,,64,0,8,,,,,0,,,81,100
81600,note_on,,,,,64,0,16,,,,,7,,,54,100
81728,note_off,,,,,128,0,8,,,,,0,,,81,100
81728,note_off,,,,,128,0,14,,,,,6,,,42,100
81728,note_off,,,,,128,0,10,,,,,2,,,81,100
81728,note_off,,,,,128,0,16,,,,,7,,,54,100
81728,note_off,,,,,128,0,13,,,,,5,,,54,100
81792,note_on,,,,,320,0,11,,,,,3,,,78,51
81792,note_on,,,,,64,0,14,,,,,6,,,35,101
81792,note_on,,,,,64,0,8,,,,,0,,,81,101
81792,note_on,,,,,320,0,9,,,,,1,,,78,101
81792,note_on,,,,,320,0,12,,,,,4,,,75,101
81792,note_on,,,,,320,0,15,,,,,7,,,69,100
81792,note_on,,,,,0,0,15,,,,,7,,,75,100
81792,note_on,,,,,64,0,13,,,,,5,,,47,101
81792,note_on,,,,,64,0,10,,,,,2,,,81,51
81792,note_on,,,,,64,0,16,,,,,7,,,47,100
81920,note_off,,,,,128,0,16,,,,,7,,,47,100
81920,note_off,,,,,128,0,13,,,,,5,,,47,100
81920,note_off,,,,,128,0,8,,,,,0,,,81,100
81920,note_off,,,,,128,0,10,,,,,2,,,81,100
81920,note_off,,,,,128,0,14,,,,,6,,,35,100
81984,note_on,,,,,64,0,8,,,,,0,,,69,103
81984,note_on,,,,,64,0,14,,,,,6,,,39,103
81984,note_on,,,,,64,0,10,,,,,2,,,69,53
81984,note_on,,,,,64,0,13,,,,,5,,,51,103
81984,note_on,,,,,64,0,16,,,,,7,,,51,100
82048,note_off,,,,,256,0,15,,,,,7,,,69,100
82048,note_off,,,,,0,0,15,,,,,7,,,75,100
82048,note_off,,,,,256,0,9,,,,,1,,,78,100
82048,note_off,,,,,256,0,11,,,,,3,,,78,100
82048,note_off,,,,,256,0,12,,,,,4,,,75,100
82112,note_off,,,,,128,0,14,,,,,6,,,39,100
82112,note_off,,,,,128,0,13,,,,,5,,,51,100
82112,note_off,,,,,128,0,8,,,,,0,,,69,100
82112,note_off,,,,,128,0,16,,,,,7,,,51,100
82112,note_off,,,,,128,0,10,,,,,2,,,69,100
82176,note_on,,,,,64,0,8,,,,,0,,,81,104
82176,note_on,,,,,64,0,14,,,,,6,,,42,104
82176,note_on,,,,,64,0,13,,,,,5,,,54,104
82176,note_on,,,,,64,0,16,,,,,7,,,54,100
82176,note_on,,,,,64,0,10,,,,,2,,,81,54
82304,note_off,,,,,128,0,13,,,,,5,,,54,100
82304,note_off,,,,,128,0,10,,,,,2,,,81,100
82304,note_off,,,,,128,0,16,,,,,7,,,54,100
82304,note_off,,,,,128,0,8,,,,,0,,,81,100
82304,note_off,,,,,128,0,14,,,,,6,,,42,100
82368,note_on,,,,,320,0,15,,,,,7,,,69,100
82368,note_on,,,,,64,0,10,,,,,2,,,81,55
82368,note_on,,,,,320,0,11,,,,,3,,,78,55
82368,note_on,,,,,320,0,9,,,,,1,,,78,105
82368,note_on,,,,,320,0,12,,,,,4,,,75,105
82368,note_on,,,,,0,0,15,,,,,7,,,75,100
82368,note_on,,,,,64,0,8,,,,,0,,,81,105
82368,note_on,,,,,64,0,13,,,,,5,,,47,105
82368,note_on,,,,,64,0,16,,,,,7,,,47,100
82368,note_on,,,,,64,0,14,,,,,6,,,35,105
82496,note_off,,,,,128,0,10,,,,,2,,,81,100
82496,note_off,,,,,128,0,16,,,,,7,,,47,100
82496,note_off,,,,,128,0,14,,,,,6,,,35,100
82496,note_off,,,,,128,0,13,,,,,5,,,47,100
82496,note_off,,,,,128,0,8,,,,,0,,,81,100
82560,note_on,,,,,64,0,16,,,,,7,,,51,100
82560,note_on,,,,,64,0,10,,,,,2,,,69,57
82560,note_on,,,,,64,0,13,,,,,5,,,51,107
82560,note_on,,,,,64,0,14,,,,,6,,,39,107
82560,note_on,,,,,64,0,8,,,,,0,,,69,107
82624,note_off,,,,,256,0,11,,,,,3,,,78,100
82624,note_off,,,,,256,0,12,,,,,4,,,75,100
82624,note_off,,,,,256,0,15,,,,,7,,,69,100
82624,note_off,,,,,0,0,15,,,,,7,,,75,100
82624,note_off,,,,,256,0,9,,,,,1,,,78,100
82688,note_off,,,,,128,0,10,,,,,2,,,69,100
82688,note_off,,,,,128,0,16,,,,,7,,,51,100
82688,note_off,,,,,128,0,8,,,,,0,,,69,100
82688,note_off,,,,,128,0,13,,,,,5,,,51,100
82688,note_off,,,,,128,0,14,,,,,6,,,39,100
82752,note_on,,,,,64,0,8,,,,,0,,,81,108
82752,note_on,,,,,64,0,16,,,,,7,,,54,100
82752,note_on,,,,,64,0,14,,,,,6,,,42,108
82752,note_on,,,,,64,0,13,,,,,5,,,54,108
82752,note_on,,,,,64,0,10,,,,,2,,,81,58
82880,note_off,,,,,128,0,13,,,,,5,,,54,100
82880,note_off,,,,,128,0,14,,,,,6,,,42,100
82880,note_off,,,,,128,0,8,,,,,0,,,81,100
82880,note_off,,,,,128,0,16,,,,,7,,,54,100
82880,note_off,,,,,128,0,10,,,,,2,,,81,100
82944,note_on,,,,,0,0,15,,,,,7,,,69,100
82944,note_on,,,,,64,0,10,,,,,2,,,81,59
82944,note_on,,,,,64,0,14,,,,,6,,,35,109
82944,set_tempo,,,,,72000,1,0,,571428,,,,,,,
82944,note_on,,,,,320,0,15,,,,,7,,,63,100
82944,note_on,,,,,320,0,9,,,,,1,,,78,109
82944,note_on,,,,,64,0,16,,,,,7,,,47,100
82944,note_on,,,,,64,0,8,,,,,0,,,81,109
82944,note_on,,,,,320,0,11,,,,,3,,,78,59
82944,note_on,,,,,320,0,12,,,,,4,,,75,109
82944,note_on,,,,,64,0,13,,,,,5,,,47,109
82972,set_tempo,,,,,28,1,0,,576923,,,,,,,
83000,set_tempo,,,,,28,1,0,,576923,,,,,,,
83030,set_tempo,,,,,30,1,0,,582524,,,,,,,
83058,set_tempo,,,,,28,1,0,,582524,,,,,,,
83088,set_tempo,,,,,30,1,0,,588235,,,,,,,
83116,set_tempo,,,,,28,1,0,,588235,,,,,,,
83144,set_tempo,,,,,28,1,0,,594059,,,,,,,
83174,set_tempo,,,,,30,1,0,,594059,,,,,,,
83200,note_off,,,,,256,0,11,,,,,3,,,78,100
83200,note_off,,,,,256,0,13,,,,,5,,,47,100
83200,note_off,,,,,256,0,14,,,,,6,,,35,100
83200,note_off,,,,,0,0,15,,,,,7,,,69,100
83200,note_off,,,,,256,0,8,,,,,0,,,81,100
83200,note_off,,,,,256,0,12,,,,,4,,,75,100
83200,note_off,,,,,256,0,10,,,,,2,,,81,100
83200,note_off,,,,,256,0,16,,,,,7,,,47,100
83200,note_off,,,,,256,0,9,,,,,1,,,78,100
83200,note_off,,,,,256,0,15,,,,,7,,,63,100
83202,set_tempo,,,,,28,1,0,,600000,,,,,,,
83232,set_tempo,,,,,30,1,0,,600000,,,,,,,
83260,set_tempo,,,,,28,1,0,,606060,,,,,,,
83288,set_tempo,,,,,28,1,0,,606060,,,,,,,
83318,set_tempo,,,,,30,1,0,,612244,,,,,,,
83328,note_on,,,,,128,0,8,,,,,0,,,79,100
83328,note_on,,,,,128,0,15,,,,,7,,,67,100
83328,note_on,,,,,0,0,15,,,,,7,,,71,100
83328,note_on,,,,,128,0,14,,,,,6,,,40,100
83328,note_on,,,,,128,0,9,,,,,1,,,76,100
83328,note_on,,,,,128,0,13,,,,,5,,,52,100
83328,note_on,,,,,128,0,11,,,,,3,,,76,50
83328,note_on,,,,,128,0,12,,,,,4,,,71,100
83328,note_on,,,,,128,0,16,,,,,7,,,52,100
83328,note_on,,,,,128,0,10,,,,,2,,,79,50
83346,set_tempo,,,,,28,1,0,,612244,,,,,,,
83376,set_tempo,,,,,30,1,0,,618556,,,,,,,
83404,set_tempo,,,,,28,1,0,,618556,,,,,,,
83432,set_tempo,,,,,28,1,0,,625000,,,,,,,
83456,note_off,,,,,128,0,14,,,,,6,,,40,100
83456,note_off,,,,,0,0,15,,,,,7,,,71,100
83456,note_off,,,,,128,0,15,,,,,7,,,67,100
83456,note_off,,,,,128,0,12,,,,,4,,,71,100
83456,note_off,,,,,128,0,16,,,,,7,,,52,100
83456,note_off,,,,,128,0,13,,,,,5,,,52,100
83462,set_tempo,,,,,30,1,0,,625000,,,,,,,
83490,set_tempo,,,,,28,1,0,,631578,,,,,,,
83520,note_on,,,,,0,0,15,,,,,7,,,76,100
83520,note_on,,,,,64,0,13,,,,,5,,,57,104
83520,set_tempo,,,,,30,1,0,,631578,,,,,,,
83520,note_on,,,,,64,0,16,,,,,7,,,57,100
83520,note_on,,,,,64,0,15,,,,,7,,,66,100
83520,note_on,,,,,64,0,12,,,,,4,,,72,104
83520,note_on,,,,,64,0,14,,,,,6,,,45,104
83532,set_tempo,,,,,12,1,0,,638297,,,,,,,
83544,set_tempo,,,,,12,1,0,,638297,,,,,,,
83558,set_tempo,,,,,14,1,0,,645161,,,,,,,
83570,set_tempo,,,,,12,1,0,,645161,,,,,,,
83584,note_off,,,,,256,0,9,,,,,1,,,76,64
83584,note_off,,,,,256,0,8,,,,,0,,,79,64
83584,note_off,,,,,256,0,10,,,,,2,,,79,100
83584,note_off,,,,,256,0,11,,,,,3,,,76,100
83584,set_tempo,,,,,14,1,0,,652173,,,,,,,
83596,set_tempo,,,,,12,1,0,,652173,,,,,,,
83608,set_tempo,,,,,12,1,0,,659340,,,,,,,
83622,set_tempo,,,,,14,1,0,,659340,,,,,,,
83634,set_tempo,,,,,12,1,0,,666666,,,,,,,
83648,note_off,,,,,128,0,14,,,,,6,,,45,100
83648,note_off,,,,,128,0,12,,,,,4,,,72,100
83648,note_off,,,,,128,0,13,,,,,5,,,57,100
83648,note_off,,,,,128,0,15,,,,,7,,,66,100
83648,note_off,,,,,0,0,15,,,,,7,,,76,100
83648,note_off,,,,,128,0,16,,,,,7,,,57,100
83648,set_tempo,,,,,14,1,0,,666666,,,,,,,
83660,set_tempo,,,,,12,1,0,,674157,,,,,,,
83672,set_tempo,,,,,12,1,0,,674157,,,,,,,
83686,set_tempo,,,,,14,1,0,,681818,,,,,,,
83698,set_tempo,,,,,12,1,0,,681818,,,,,,,
83712,note_on,,,,,128,0,9,,,,,1,,,76,109
83712,note_on,,,,,64,0,12,,,,,4,,,66,109
83712,note_on,,,,,64,0,14,,,,,6,,,47,109
83712,set_tempo,,,,,14,1,0,,689655,,,,,,,
83712,note_on,,,,,64,0,13,,,,,5,,,59,109
83712,note_on,,,,,128,0,8,,,,,0,,,78,109
83712,note_on,,,,,64,0,15,,,,,7,,,66,100
83712,note_on,,,,,0,0,15,,,,,7,,,76,100
83712,note_on,,,,,128,0,11,,,,,3,,,76,59
83712,note_on,,,,,64,0,16,,,,,7,,,59,100
83712,note_on,,,,,128,0,10,,,,,2,,,78,59
83724,set_tempo,,,,,12,1,0,,689655,,,,,,,
83736,set_tempo,,,,,12,1,0,,697674,,,,,,,
83750,set_tempo,,,,,14,1,0,,697674,,,,,,,
83756,note_off,,,,,44,0,8,,,,,0,,,78,100
83756,note_off,,,,,44,0,10,,,,,2,,,78,100
83760,note_on,,,,,4,0,10,,,,,2,,,79,61
83760,note_on,,,,,4,0,8,,,,,0,,,79,111
83762,set_tempo,,,,,12,1,0,,705882,,,,,,,
83776,set_tempo,,,,,14,1,0,,705882,,,,,,,
83788,set_tempo,,,,,12,1,0,,714285,,,,,,,
83800,set_tempo,,,,,12,1,0,,714285,,,,,,,
83804,note_off,,,,,44,0,10,,,,,2,,,79,100
83804,note_off,,,,,44,0,8,,,,,0,,,79,100
83808,note_on,,,,,4,0,10,,,,,2,,,78,62
83808,note_on,,,,,4,0,8,,,,,0,,,78,112
83814,set_tempo,,,,,14,1,0,,722891,,,,,,,
83826,set_tempo,,,,,12,1,0,,722891,,,,,,,
83840,note_off,,,,,128,0,16,,,,,7,,,59,100
83840,note_off,,,,,128,0,13,,,,,5,,,59,100
83840,note_off,,,,,128,0,15,,,,,7,,,66,100
83840,note_off,,,,,0,0,15,,,,,7,,,76,100
83840,set_tempo,,,,,14,1,0,,731707,,,,,,,
83840,note_off,,,,,128,0,12,,,,,4,,,66,100
83840,note_off,,,,,128,0,14,,,,,6,,,47,100
83852,set_tempo,,,,,12,1,0,,731707,,,,,,,
83852,note_off,,,,,44,0,10,,,,,2,,,78,100
83852,note_off,,,,,44,0,8,,,,,0,,,78,100
83856,note_on,,,,,4,0,10,,,,,2,,,79,63
83856,note_on,,,,,4,0,8,,,,,0,,,79,113
83864,set_tempo,,,,,12,1,0,,740740,,,,,,,
83878,set_tempo,,,,,14,1,0,,740740,,,,,,,
83890,set_tempo,,,,,12,1,0,,750000,,,,,,,
83900,note_off,,,,,44,0,8,,,,,0,,,79,100
83900,note_off,,,,,44,0,10,,,,,2,,,79,100
83904,note_on,,,,,0,0,15,,,,,7,,,75,100
83904,note_on,,,,,4,0,8,,,,,0,,,78,114
83904,note_off,,,,,192,0,9,,,,,1,,,76,100
83904,note_on,,,,,64,0,15,,,,,7,,,66,100
83904,note_off,,,,,192,0,11,,,,,3,,,76,100
83904,note_on,,,,,64,0,13,,,,,5,,,47,114
83904,note_on,,,,,64,0,12,,,,,4,,,71,114
83904,note_on,,,,,64,0,14,,,,,6,,,35,114
83904,set_tempo,,,,,14,1,0,,750000,,,,,,,
83904,note_on,,,,,64,0,16,,,,,7,,,47,100
83904,note_on,,,,,4,0,10,,,,,2,,,78,64
83910,set_tempo,,,,,6,1,0,,759493,,,,,,,
83916,set_tempo,,,,,6,1,0,,759493,,,,,,,
83922,set_tempo,,,,,6,1,0,,769230,,,,,,,
83928,set_tempo,,,,,6,1,0,,769230,,,,,,,
83936,set_tempo,,,,,8,1,0,,779220,,,,,,,
83942,set_tempo,,,,,6,1,0,,779220,,,,,,,
83948,set_tempo,,,,,6,1,0,,789473,,,,,,,
83954,set_tempo,,,,,6,1,0,,789473,,,,,,,
83960,set_tempo,,,,,6,1,0,,800000,,,,,,,
83968,note_off,,,,,64,0,10,,,,,2,,,78,100
83968,set_tempo,,,,,8,1,0,,800000,,,,,,,
83968,note_off,,,,,64,0,8,,,,,0,,,78,100
83974,set_tempo,,,,,6,1,0,,810810,,,,,,,
83980,set_tempo,,,,,6,1,0,,810810,,,,,,,
83986,set_tempo,,,,,6,1,0,,821917,,,,,,,
83992,set_tempo,,,,,6,1,0,,821917,,,,,,,
84000,note_on,,,,,96,0,11,,,,,3,,,75,67
84000,note_on,,,,,32,0,8,,,,,0,,,78,117
84000,set_tempo,,,,,8,1,0,,833333,,,,,,,
84000,note_on,,,,,96,0,9,,,,,1,,,75,117
84000,note_on,,,,,32,0,10,,,,,2,,,78,67
84006,set_tempo,,,,,6,1,0,,833333,,,,,,,
84012,set_tempo,,,,,6,1,0,,845070,,,,,,,
84018,set_tempo,,,,,6,1,0,,845070,,,,,,,
84024,set_tempo,,,,,6,1,0,,857142,,,,,,,
84032,note_off,,,,,128,0,14,,,,,6,,,35,100
84032,note_off,,,,,128,0,15,,,,,7,,,66,100
84032,note_off,,,,,128,0,16,,,,,7,,,47,100
84032,note_off,,,,,128,0,13,,,,,5,,,47,100
84032,note_off,,,,,0,0,15,,,,,7,,,75,100
84032,set_tempo,,,,,8,1,0,,857142,,,,,,,
84032,note_off,,,,,128,0,12,,,,,4,,,71,100
84038,set_tempo,,,,,6,1,0,,869565,,,,,,,
84044,set_tempo,,,,,6,1,0,,869565,,,,,,,
84050,set_tempo,,,,,6,1,0,,882352,,,,,,,
84056,set_tempo,,,,,6,1,0,,882352,,,,,,,
84064,note_off,,,,,64,0,9,,,,,1,,,75,100
84064,note_off,,,,,64,0,8,,,,,0,,,78,100
84064,note_off,,,,,64,0,10,,,,,2,,,78,100
84064,note_off,,,,,64,0,11,,,,,3,,,75,100
84064,set_tempo,,,,,8,1,0,,895522,,,,,,,
84070,set_tempo,,,,,6,1,0,,895522,,,,,,,
84076,set_tempo,,,,,6,1,0,,1714285,,,,,,,
84096,note_on,,,,,32,0,11,,,,,3,,,76,69
84096,note_on,,,,,64,0,14,,,,,6,,,40,119
84096,note_on,,,,,64,0,12,,,,,4,,,67,119
84096,note_on,,,,,32,0,8,,,,,0,,,76,119
84096,note_on,,,,,64,0,13,,,,,5,,,40,119
84096,note_on,,,,,64,0,16,,,,,7,,,40,100
84096,note_on,,,,,32,0,10,,,,,2,,,76,69
84096,set_tempo,,,,,20,1,0,,2666666,,,,,,,
84096,note_on,,,,,32,0,9,,,,,1,,,76,119
84096,end_of_track,,,,,0,1,0,,,,,,,,,
84096,note_on,,,,,64,0,15,,,,,7,,,64,100
84110,note_on,,,,,14,0,15,,,,,7,,,67,100
84126,note_on,,,,,16,0,15,,,,,7,,,71,100
84142,note_on,,,,,16,0,15,,,,,7,,,76,100
84480,note_off,,,,,384,0,10,,,,,2,,,76,100
84480,end_of_track,,,,,0,1,9,,,,,,,,,
84480,note_off,,,,,384,0,13,,,,,5,,,40,100
84480,end_of_track,,,,,0,1,13,,,,,,,,,
84480,note_off,,,,,384,0,16,,,,,7,,,40,100
84480,end_of_track,,,,,0,1,8,,,,,,,,,
84480,note_off,,,,,384,0,8,,,,,0,,,76,100
84480,note_off,,,,,384,0,9,,,,,1,,,76,100
84480,end_of_track,,,,,0,1,16,,,,,,,,,
84480,note_off,,,,,384,0,11,,,,,3,,,76,100
84480,end_of_track,,,,,0,1,11,,,,,,,,,
84480,end_of_track,,,,,0,1,14,,,,,,,,,
84480,note_off,,,,,384,0,14,,,,,6,,,40,100
84480,end_of_track,,,,,0,1,12,,,,,,,,,
84480,note_off,,,,,384,0,12,,,,,4,,,67,100
84480,note_off,,,,,338,0,15,,,,,7,,,64,100
84494,note_off,,,,,14,0,15,,,,,7,,,67,100
84510,note_off,,,,,16,0,15,,,,,7,,,71,100
84526,end_of_track,,,,,0,1,15,,,,,,,,,
84526,note_off,,,,,16,0,15,,,,,7,,,76,100
85248,end_of_track,,,,,0,1,10,,,,,,,,,
85248,program_change,,,,,768,0,10,,,,,2,48,,,
