tick,type,numerator,denominator,clocks_per_click,notated_32nd_notes_per_beat,time,meta,track,data,tempo,control,value,channel,program,note,velocity
0,time_signature,4,4,96,8,0,1,0,,,,,,,,
0,track_name,,,,,0,1,7,,,,,,,,
0,control_change,,,,,0,0,7,,,0,0,0,,,
0,program_change,,,,,0,0,7,,,,,0,40,,
0,control_change,,,,,0,0,7,,,7,100,0,,,
0,control_change,,,,,0,0,7,,,91,107,0,,,
0,control_change,,,,,0,0,16,,,91,105,7,,,
0,control_change,,,,,0,0,16,,,7,45,7,,,
0,program_change,,,,,0,0,16,,,,,7,19,,
0,control_change,,,,,0,0,16,,,0,0,7,,,
0,track_name,,,,,0,1,16,,,,,,,,
0,control_change,,,,,0,0,15,,,91,105,7,,,
0,control_change,,,,,0,0,15,,,7,45,7,,,
0,program_change,,,,,0,0,15,,,,,7,19,,
0,control_change,,,,,0,0,15,,,0,0,7,,,
0,track_name,,,,,0,1,15,,,,,,,,
0,end_of_track,,,,,0,1,6,,,,,,,,
0,control_change,,,,,0,0,6,,,91,107,0,,,
0,control_change,,,,,0,0,6,,,7,100,0,,,
0,program_change,,,,,0,0,6,,,,,0,40,,
0,program_change,,,,,0,0,3,,,,,0,40,,
0,end_of_track,,,,,0,1,3,,,,,,,,
0,track_name,,,,,0,1,4,,,,,,,,
0,control_change,,,,,0,0,4,,,0,0,0,,,
0,program_change,,,,,0,0,4,,,,,0,40,,
0,control_change,,,,,0,0,4,,,7,100,0,,,
0,control_change,,,,,0,0,4,,,91,107,0,,,
0,control_change,,,,,0,0,14,,,91,107,6,,,
0,end_of_track,,,,,0,1,4,,,,,,,,
0,control_change,,,,,0,0,5,,,0,0,0,,,
0,program_change,,,,,0,0,5,,,,,0,40,,
0,control_change,,,,,0,0,5,,,7,100,0,,,
0,control_change,,,,,0,0,5,,,91,107,0,,,
0,end_of_track,,,,,0,1,5,,,,,,,,
0,track_name,,,,,0,1,6,,,,,,,,
0,control_change,,,,,0,0,6,,,0,0,0,,,
0,track_name,,,,,0,1,5,,,,,,,,
0,control_change,,,,,0,0,14,,,10,77,6,,,
0,control_change,,,,,0,0,14,,,7,45,6,,,
0,program_change,,,,,0,0,14,,,,,6,6,,
0,track_name,,,,,0,1,11,,,,,,,,
0,control_change,,,,,0,0,10,,,91,108,3,,,
0,control_change,,,,,0,0,10,,,7,92,3,,,
0,program_change,,,,,0,0,10,,,,,3,48,,
0,control_change,,,,,0,0,10,,,0,0,3,,,
0,track_name,,,,,0,1,10,,,,,,,,
0,control_change,,,,,0,0,9,,,91,108,2,,,
0,control_change,,,,,0,0,11,,,0,0,4,,,
0,control_change,,,,,0,0,9,,,10,36,2,,,
0,program_change,,,,,0,0,9,,,,,2,48,,
0,control_change,,,,,0,0,9,,,0,0,2,,,
0,track_name,,,,,0,1,9,,,,,,,,
0,control_change,,,,,0,0,8,,,91,107,1,,,
0,control_change,,,,,0,0,8,,,10,49,1,,,
0,control_change,,,,,0,0,8,,,7,104,1,,,
0,program_change,,,,,0,0,8,,,,,1,48,,
0,control_change,,,,,0,0,9,,,7,96,2,,,
0,control_change,,,,,0,0,3,,,91,107,0,,,
0,program_change,,,,,0,0,11,,,,,4,48,,
0,control_change,,,,,0,0,11,,,10,79,4,,,
0,control_change,,,,,0,0,14,,,0,0,6,,,
0,track_name,,,,,0,1,14,,,,,,,,
0,control_change,,,,,0,0,13,,,91,107,6,,,
0,control_change,,,,,0,0,13,,,10,77,6,,,
0,control_change,,,,,0,0,13,,,7,45,6,,,
0,program_change,,,,,0,0,13,,,,,6,6,,
0,control_change,,,,,0,0,13,,,0,0,6,,,
0,control_change,,,,,0,0,11,,,7,82,4,,,
0,track_name,,,,,0,1,13,,,,,,,,
0,control_change,,,,,0,0,12,,,91,108,5,,,
0,control_change,,,,,0,0,12,,,10,90,5,,,
0,control_change,,,,,0,0,12,,,7,72,5,,,
0,program_change,,,,,0,0,12,,,,,5,48,,
0,control_change,,,,,0,0,12,,,0,0,5,,,
0,track_name,,,,,0,1,12,,,,,,,,
0,control_change,,,,,0,0,11,,,91,107,4,,,
0,control_change,,,,,0,0,8,,,0,0,1,,,
0,control_change,,,,,0,0,3,,,7,100,0,,,
0,track_name,,,,,0,1,8,,,,,,,,
0,track_name,,,,,0,1,3,,,,,,,,
0,end_of_track,,,,,0,1,2,,,,,,,,
0,track_name,,,,,0,1,2,,,,,,,,
0,end_of_track,,,,,0,1,1,,,,,,,,
0,track_name,,,,,0,1,1,,,,,,,,
0,set_tempo,,,,,0,1,0,,500000,,,,,,
0,sequencer_specific,,,,,0,1,0,"(0, 0, 119, 14, 1)",,,,,,,
0,sequencer_specific,,,,,0,1,0,"(0, 0, 65)",,,,,,,
0,control_change,,,,,0,0,3,,,0,0,0,,,
1344,note_on,,,,,1344,0,8,,,,,1,,76,100
1344,note_on,,,,,1344,0,9,,,,,2,,76,100
1424,note_off,,,,,80,0,8,,,,,1,,76,100
1424,note_off,,,,,80,0,9,,,,,2,,76,100
1536,note_on,,,,,1536,0,14,,,,,6,,45,100
1536,note_on,,,,,1536,0,11,,,,,4,,45,100
1536,note_on,,,,,1536,0,10,,,,,3,,60,100
1536,note_on,,,,,1536,0,16,,,,,7,,45,100
1536,note_on,,,,,1536,0,15,,,,,7,,60,100
1536,note_on,,,,,112,0,8,,,,,1,,69,100
1536,set_tempo,,,,,1536,1,0,,500000,,,,,,
1536,note_on,,,,,0,0,15,,,,,7,,69,100
1536,note_on,,,,,0,0,15,,,,,7,,64,100
1536,note_on,,,,,1536,0,13,,,,,6,,60,100
1536,note_on,,,,,0,0,13,,,,,6,,64,100
1536,note_on,,,,,0,0,13,,,,,6,,69,100
1536,note_on,,,,,112,0,9,,,,,2,,69,100
1536,note_on,,,,,1536,0,12,,,,,5,,33,100
1636,note_off,,,,,100,0,8,,,,,1,,69,100
1636,note_off,,,,,100,0,9,,,,,2,,69,100
1728,note_on,,,,,92,0,9,,,,,2,,81,100
1728,note_on,,,,,92,0,8,,,,,1,,81,100
1736,note_off,,,,,0,0,15,,,,,7,,64,100
1736,note_off,,,,,0,0,15,,,,,7,,69,100
1736,note_off,,,,,200,0,10,,,,,3,,60,100
1736,note_off,,,,,200,0,11,,,,,4,,45,100
1736,note_off,,,,,200,0,15,,,,,7,,60,100
1736,note_off,,,,,200,0,12,,,,,5,,33,100
1736,note_off,,,,,0,0,13,,,,,6,,69,100
1736,note_off,,,,,200,0,14,,,,,6,,45,100
1736,note_off,,,,,0,0,13,,,,,6,,64,100
1736,note_off,,,,,200,0,13,,,,,6,,60,100
1736,note_off,,,,,200,0,16,,,,,7,,45,100
1828,note_off,,,,,100,0,9,,,,,2,,81,100
1828,note_off,,,,,100,0,8,,,,,1,,81,100
1920,note_on,,,,,184,0,13,,,,,6,,60,100
1920,note_on,,,,,0,0,15,,,,,7,,69,100
1920,note_on,,,,,0,0,15,,,,,7,,64,100
1920,note_on,,,,,184,0,15,,,,,7,,60,100
1920,note_on,,,,,0,0,13,,,,,6,,69,100
1920,note_on,,,,,92,0,9,,,,,2,,69,100
1920,note_on,,,,,184,0,14,,,,,6,,45,100
1920,note_on,,,,,92,0,8,,,,,1,,69,100
1920,note_on,,,,,184,0,10,,,,,3,,60,100
1920,note_on,,,,,184,0,11,,,,,4,,45,100
1920,note_on,,,,,0,0,13,,,,,6,,64,100
1920,note_on,,,,,184,0,12,,,,,5,,33,100
1920,note_on,,,,,184,0,16,,,,,7,,45,100
2020,note_off,,,,,100,0,9,,,,,2,,69,100
2020,note_off,,,,,100,0,8,,,,,1,,69,100
2112,note_on,,,,,92,0,8,,,,,1,,81,100
2112,note_on,,,,,92,0,9,,,,,2,,81,100
2120,note_off,,,,,200,0,14,,,,,6,,45,100
2120,note_off,,,,,0,0,15,,,,,7,,64,100
2120,note_off,,,,,200,0,13,,,,,6,,60,100
2120,note_off,,,,,0,0,13,,,,,6,,69,100
2120,note_off,,,,,200,0,10,,,,,3,,60,100
2120,note_off,,,,,200,0,11,,,,,4,,45,100
2120,note_off,,,,,200,0,12,,,,,5,,33,100
2120,note_off,,,,,0,0,15,,,,,7,,69,100
2120,note_off,,,,,0,0,13,,,,,6,,64,100
2120,note_off,,,,,200,0,15,,,,,7,,60,100
2120,note_off,,,,,200,0,16,,,,,7,,45,100
2212,note_off,,,,,100,0,8,,,,,1,,81,100
2212,note_off,,,,,100,0,9,,,,,2,,81,100
2304,note_on,,,,,0,0,15,,,,,7,,64,100
2304,note_on,,,,,0,0,15,,,,,7,,69,100
2304,note_on,,,,,92,0,8,,,,,1,,81,100
2304,note_on,,,,,0,0,13,,,,,6,,69,100
2304,note_on,,,,,184,0,15,,,,,7,,60,100
2304,note_on,,,,,92,0,9,,,,,2,,81,100
2304,note_on,,,,,184,0,12,,,,,5,,33,100
2304,note_on,,,,,184,0,10,,,,,3,,60,100
2304,note_on,,,,,184,0,13,,,,,6,,60,100
2304,note_on,,,,,184,0,16,,,,,7,,45,100
2304,note_on,,,,,184,0,11,,,,,4,,45,100
2304,note_on,,,,,184,0,14,,,,,6,,45,100
2304,note_on,,,,,0,0,13,,,,,6,,64,100
2432,note_off,,,,,128,0,8,,,,,1,,81,100
2432,note_off,,,,,128,0,9,,,,,2,,81,100
2496,note_on,,,,,64,0,9,,,,,2,,79,100
2496,note_on,,,,,64,0,8,,,,,1,,79,100
2504,note_off,,,,,200,0,16,,,,,7,,45,100
2504,note_off,,,,,200,0,13,,,,,6,,60,100
2504,note_off,,,,,0,0,13,,,,,6,,64,100
2504,note_off,,,,,0,0,13,,,,,6,,69,100
2504,note_off,,,,,0,0,15,,,,,7,,69,100
2504,note_off,,,,,200,0,12,,,,,5,,33,100
2504,note_off,,,,,0,0,15,,,,,7,,64,100
2504,note_off,,,,,200,0,14,,,,,6,,45,100
2504,note_off,,,,,200,0,11,,,,,4,,45,100
2504,note_off,,,,,200,0,10,,,,,3,,60,100
2504,note_off,,,,,200,0,15,,,,,7,,60,100
2560,note_off,,,,,64,0,8,,,,,1,,79,100
2560,note_off,,,,,64,0,9,,,,,2,,79,100
2592,note_on,,,,,32,0,9,,,,,2,,77,100
2592,note_on,,,,,32,0,8,,,,,1,,77,100
2656,note_off,,,,,64,0,9,,,,,2,,77,100
2656,note_off,,,,,64,0,8,,,,,1,,77,100
2688,note_on,,,,,32,0,9,,,,,2,,76,100
2688,note_on,,,,,32,0,8,,,,,1,,76,100
2788,note_off,,,,,100,0,9,,,,,2,,76,100
2788,note_off,,,,,100,0,8,,,,,1,,76,100
2880,note_on,,,,,92,0,8,,,,,1,,76,100
2880,note_on,,,,,92,0,9,,,,,2,,76,100
2980,note_off,,,,,100,0,9,,,,,2,,76,100
2980,note_off,,,,,100,0,8,,,,,1,,76,100
3072,note_on,,,,,0,0,15,,,,,7,,69,100
3072,note_on,,,,,0,0,15,,,,,7,,64,100
3072,note_on,,,,,568,0,15,,,,,7,,60,100
3072,note_on,,,,,92,0,8,,,,,1,,81,100
3072,note_on,,,,,568,0,12,,,,,5,,33,100
3072,note_on,,,,,568,0,16,,,,,7,,45,100
3072,note_on,,,,,568,0,13,,,,,6,,60,100
3072,note_on,,,,,0,0,13,,,,,6,,64,100
3072,note_on,,,,,92,0,9,,,,,2,,81,100
3072,note_on,,,,,568,0,10,,,,,3,,64,100
3072,note_on,,,,,568,0,11,,,,,4,,45,100
3072,note_on,,,,,568,0,14,,,,,6,,45,100
3072,note_on,,,,,0,0,13,,,,,6,,69,100
3172,note_off,,,,,100,0,9,,,,,2,,81,100
3172,note_off,,,,,100,0,8,,,,,1,,81,100
3264,note_on,,,,,92,0,8,,,,,1,,72,100
3264,note_on,,,,,92,0,9,,,,,2,,72,100
3272,note_off,,,,,200,0,14,,,,,6,,45,100
3272,note_off,,,,,200,0,12,,,,,5,,33,100
3272,note_off,,,,,200,0,11,,,,,4,,45,100
3272,note_off,,,,,200,0,10,,,,,3,,64,100
3272,note_off,,,,,0,0,15,,,,,7,,64,100
3272,note_off,,,,,200,0,15,,,,,7,,60,100
3272,note_off,,,,,0,0,13,,,,,6,,64,100
3272,note_off,,,,,200,0,13,,,,,6,,60,100
3272,note_off,,,,,200,0,16,,,,,7,,45,100
3272,note_off,,,,,0,0,13,,,,,6,,69,100
3272,note_off,,,,,0,0,15,,,,,7,,69,100
3364,note_off,,,,,100,0,9,,,,,2,,72,100
3364,note_off,,,,,100,0,8,,,,,1,,72,100
3456,note_on,,,,,0,0,15,,,,,7,,62,100
3456,note_on,,,,,184,0,10,,,,,3,,59,100
3456,note_on,,,,,0,0,13,,,,,6,,64,100
3456,note_on,,,,,0,0,13,,,,,6,,62,100
3456,note_on,,,,,184,0,14,,,,,6,,44,100
3456,note_on,,,,,184,0,13,,,,,6,,68,100
3456,note_on,,,,,92,0,8,,,,,1,,74,100
3456,note_on,,,,,92,0,9,,,,,2,,74,100
3456,note_on,,,,,184,0,11,,,,,4,,44,100
3456,note_on,,,,,184,0,12,,,,,5,,32,100
3456,note_on,,,,,184,0,16,,,,,7,,44,100
3456,note_on,,,,,0,0,15,,,,,7,,64,100
3456,note_on,,,,,184,0,15,,,,,7,,68,100
3556,note_off,,,,,100,0,9,,,,,2,,74,100
3556,note_off,,,,,100,0,8,,,,,1,,74,100
3648,note_on,,,,,92,0,9,,,,,2,,76,100
3648,note_on,,,,,92,0,8,,,,,1,,76,100
3656,note_off,,,,,200,0,16,,,,,7,,44,100
3656,note_off,,,,,0,0,13,,,,,6,,64,100
3656,note_off,,,,,200,0,10,,,,,3,,59,100
3656,note_off,,,,,0,0,13,,,,,6,,62,100
3656,note_off,,,,,200,0,13,,,,,6,,68,100
3656,note_off,,,,,200,0,15,,,,,7,,68,100
3656,note_off,,,,,200,0,14,,,,,6,,44,100
3656,note_off,,,,,0,0,15,,,,,7,,64,100
3656,note_off,,,,,200,0,12,,,,,5,,32,100
3656,note_off,,,,,200,0,11,,,,,4,,44,100
3656,note_off,,,,,0,0,15,,,,,7,,62,100
3748,note_off,,,,,100,0,8,,,,,1,,76,100
3748,note_off,,,,,100,0,9,,,,,2,,76,100
3840,note_on,,,,,184,0,14,,,,,6,,45,100
3840,note_on,,,,,184,0,16,,,,,7,,45,100
3840,note_on,,,,,184,0,12,,,,,5,,33,100
3840,note_on,,,,,184,0,11,,,,,4,,45,100
3840,note_on,,,,,184,0,13,,,,,6,,60,100
3840,note_on,,,,,0,0,13,,,,,6,,64,100
3840,note_on,,,,,0,0,13,,,,,6,,69,100
3840,note_on,,,,,184,0,10,,,,,3,,64,100
3840,note_on,,,,,92,0,8,,,,,1,,72,100
3840,note_on,,,,,184,0,15,,,,,7,,60,100
3840,note_on,,,,,92,0,9,,,,,2,,72,100
3840,note_on,,,,,0,0,15,,,,,7,,69,100
3840,note_on,,,,,0,0,15,,,,,7,,64,100
3968,note_off,,,,,128,0,9,,,,,2,,72,100
3968,note_off,,,,,128,0,8,,,,,1,,72,100
4032,note_on,,,,,64,0,9,,,,,2,,71,93
4032,note_on,,,,,64,0,8,,,,,1,,71,93
4040,note_off,,,,,200,0,15,,,,,7,,60,100
4040,note_off,,,,,0,0,15,,,,,7,,64,100
4040,note_off,,,,,200,0,16,,,,,7,,45,100
4040,note_off,,,,,0,0,15,,,,,7,,69,100
4040,note_off,,,,,200,0,12,,,,,5,,33,100
4040,note_off,,,,,200,0,11,,,,,4,,45,100
4040,note_off,,,,,0,0,13,,,,,6,,69,100
4040,note_off,,,,,0,0,13,,,,,6,,64,100
4040,note_off,,,,,200,0,13,,,,,6,,60,100
4040,note_off,,,,,200,0,10,,,,,3,,64,100
4040,note_off,,,,,200,0,14,,,,,6,,45,100
4096,note_off,,,,,64,0,8,,,,,1,,71,100
4096,note_off,,,,,64,0,9,,,,,2,,71,100
4128,note_on,,,,,32,0,9,,,,,2,,72,89
4128,note_on,,,,,32,0,8,,,,,1,,72,89
4192,note_off,,,,,64,0,9,,,,,2,,72,100
4192,note_off,,,,,64,0,8,,,,,1,,72,100
4224,note_on,,,,,32,0,9,,,,,2,,69,86
4224,note_on,,,,,32,0,8,,,,,1,,69,86
4324,note_off,,,,,100,0,9,,,,,2,,69,100
4324,note_off,,,,,100,0,8,,,,,1,,69,100
4416,note_on,,,,,92,0,9,,,,,2,,81,70
4416,note_on,,,,,92,0,8,,,,,1,,81,70
4516,note_off,,,,,100,0,8,,,,,1,,81,100
4516,note_off,,,,,100,0,9,,,,,2,,81,100
4608,note_on,,,,,568,0,16,,,,,7,,45,100
4608,note_on,,,,,568,0,10,,,,,3,,60,70
4608,note_on,,,,,92,0,8,,,,,1,,69,70
4608,note_on,,,,,568,0,15,,,,,7,,60,100
4608,note_on,,,,,0,0,15,,,,,7,,64,100
4608,note_on,,,,,568,0,12,,,,,5,,33,70
4608,note_on,,,,,0,0,15,,,,,7,,69,100
4608,note_on,,,,,0,0,13,,,,,6,,69,100
4608,note_on,,,,,92,0,9,,,,,2,,69,70
4608,note_on,,,,,0,0,13,,,,,6,,64,100
4608,note_on,,,,,568,0,11,,,,,4,,45,70
4608,note_on,,,,,568,0,14,,,,,6,,45,100
4608,note_on,,,,,568,0,13,,,,,6,,60,100
4708,note_off,,,,,100,0,8,,,,,1,,69,100
4708,note_off,,,,,100,0,9,,,,,2,,69,100
4800,note_on,,,,,92,0,8,,,,,1,,81,70
4800,note_on,,,,,92,0,9,,,,,2,,81,70
4808,note_off,,,,,0,0,15,,,,,7,,69,100
4808,note_off,,,,,0,0,15,,,,,7,,64,100
4808,note_off,,,,,200,0,15,,,,,7,,60,100
4808,note_off,,,,,200,0,14,,,,,6,,45,100
4808,note_off,,,,,200,0,10,,,,,3,,60,100
4808,note_off,,,,,0,0,13,,,,,6,,69,100
4808,note_off,,,,,200,0,13,,,,,6,,60,100
4808,note_off,,,,,200,0,16,,,,,7,,45,100
4808,note_off,,,,,200,0,11,,,,,4,,45,100
4808,note_off,,,,,200,0,12,,,,,5,,33,100
4808,note_off,,,,,0,0,13,,,,,6,,64,100
4900,note_off,,,,,100,0,9,,,,,2,,81,100
4900,note_off,,,,,100,0,8,,,,,1,,81,100
4992,note_on,,,,,92,0,8,,,,,1,,69,70
4992,note_on,,,,,184,0,13,,,,,6,,60,100
4992,note_on,,,,,184,0,12,,,,,5,,33,70
4992,note_on,,,,,0,0,13,,,,,6,,69,100
4992,note_on,,,,,184,0,10,,,,,3,,60,70
4992,note_on,,,,,0,0,15,,,,,7,,69,100
4992,note_on,,,,,0,0,15,,,,,7,,64,100
4992,note_on,,,,,184,0,15,,,,,7,,60,100
4992,note_on,,,,,184,0,16,,,,,7,,45,100
4992,note_on,,,,,0,0,13,,,,,6,,64,100
4992,note_on,,,,,184,0,14,,,,,6,,45,100
4992,note_on,,,,,184,0,11,,,,,4,,45,70
4992,note_on,,,,,92,0,9,,,,,2,,69,70
5092,note_off,,,,,100,0,8,,,,,1,,69,100
5092,note_off,,,,,100,0,9,,,,,2,,69,100
5184,note_on,,,,,92,0,9,,,,,2,,81,70
5184,note_on,,,,,92,0,8,,,,,1,,81,70
5192,note_off,,,,,0,0,13,,,,,6,,69,100
5192,note_off,,,,,200,0,11,,,,,4,,45,100
5192,note_off,,,,,0,0,15,,,,,7,,64,100
5192,note_off,,,,,200,0,15,,,,,7,,60,100
5192,note_off,,,,,200,0,14,,,,,6,,45,100
5192,note_off,,,,,0,0,13,,,,,6,,64,100
5192,note_off,,,,,200,0,12,,,,,5,,33,100
5192,note_off,,,,,200,0,16,,,,,7,,45,100
5192,note_off,,,,,0,0,15,,,,,7,,69,100
5192,note_off,,,,,200,0,13,,,,,6,,60,100
5192,note_off,,,,,200,0,10,,,,,3,,60,100
5284,note_off,,,,,100,0,9,,,,,2,,81,100
5284,note_off,,,,,100,0,8,,,,,1,,81,100
5376,note_on,,,,,184,0,13,,,,,6,,60,100
5376,note_on,,,,,92,0,8,,,,,1,,81,70
5376,note_on,,,,,184,0,10,,,,,3,,60,70
5376,note_on,,,,,92,0,9,,,,,2,,81,70
5376,note_on,,,,,0,0,13,,,,,6,,64,100
5376,note_on,,,,,184,0,11,,,,,4,,45,70
5376,note_on,,,,,0,0,13,,,,,6,,69,100
5376,note_on,,,,,184,0,12,,,,,5,,33,70
5376,note_on,,,,,0,0,15,,,,,7,,64,100
5376,note_on,,,,,0,0,15,,,,,7,,69,100
5376,note_on,,,,,184,0,16,,,,,7,,45,100
5376,note_on,,,,,184,0,15,,,,,7,,60,100
5376,note_on,,,,,184,0,14,,,,,6,,45,100
5504,note_off,,,,,128,0,8,,,,,1,,81,100
5504,note_off,,,,,128,0,9,,,,,2,,81,100
5568,note_on,,,,,64,0,8,,,,,1,,79,70
5568,note_on,,,,,64,0,9,,,,,2,,79,70
5576,note_off,,,,,200,0,12,,,,,5,,33,100
5576,note_off,,,,,200,0,15,,,,,7,,60,100
5576,note_off,,,,,0,0,15,,,,,7,,64,100
5576,note_off,,,,,0,0,15,,,,,7,,69,100
5576,note_off,,,,,200,0,16,,,,,7,,45,100
5576,note_off,,,,,0,0,13,,,,,6,,64,100
5576,note_off,,,,,200,0,13,,,,,6,,60,100
5576,note_off,,,,,0,0,13,,,,,6,,69,100
5576,note_off,,,,,200,0,14,,,,,6,,45,100
5576,note_off,,,,,200,0,10,,,,,3,,60,100
5576,note_off,,,,,200,0,11,,,,,4,,45,100
5632,note_off,,,,,64,0,9,,,,,2,,79,100
5632,note_off,,,,,64,0,8,,,,,1,,79,100
5664,note_on,,,,,32,0,9,,,,,2,,77,70
5664,note_on,,,,,32,0,8,,,,,1,,77,70
5728,note_off,,,,,64,0,9,,,,,2,,77,100
5728,note_off,,,,,64,0,8,,,,,1,,77,100
5760,note_on,,,,,32,0,8,,,,,1,,76,70
5760,note_on,,,,,32,0,9,,,,,2,,76,70
5860,note_off,,,,,100,0,9,,,,,2,,76,100
5860,note_off,,,,,100,0,8,,,,,1,,76,100
5952,note_on,,,,,92,0,9,,,,,2,,76,70
5952,note_on,,,,,92,0,8,,,,,1,,76,70
6052,note_off,,,,,100,0,8,,,,,1,,76,100
6052,note_off,,,,,100,0,9,,,,,2,,76,100
6144,note_on,,,,,92,0,9,,,,,2,,81,70
6144,note_on,,,,,568,0,16,,,,,7,,45,100
6144,note_on,,,,,92,0,8,,,,,1,,81,70
6144,note_on,,,,,568,0,13,,,,,6,,60,100
6144,note_on,,,,,568,0,10,,,,,3,,64,70
6144,note_on,,,,,568,0,12,,,,,5,,33,70
6144,note_on,,,,,568,0,14,,,,,6,,45,100
6144,note_on,,,,,0,0,15,,,,,7,,69,100
6144,note_on,,,,,0,0,15,,,,,7,,64,100
6144,note_on,,,,,0,0,13,,,,,6,,69,100
6144,note_on,,,,,0,0,13,,,,,6,,64,100
6144,note_on,,,,,568,0,11,,,,,4,,45,70
6144,note_on,,,,,568,0,15,,,,,7,,60,100
6244,note_off,,,,,100,0,8,,,,,1,,81,100
6244,note_off,,,,,100,0,9,,,,,2,,81,100
6336,note_on,,,,,92,0,8,,,,,1,,72,70
6336,note_on,,,,,92,0,9,,,,,2,,72,70
6344,note_off,,,,,200,0,15,,,,,7,,60,100
6344,note_off,,,,,0,0,15,,,,,7,,64,100
6344,note_off,,,,,0,0,15,,,,,7,,69,100
6344,note_off,,,,,200,0,10,,,,,3,,64,100
6344,note_off,,,,,200,0,16,,,,,7,,45,100
6344,note_off,,,,,200,0,11,,,,,4,,45,100
6344,note_off,,,,,200,0,12,,,,,5,,33,100
6344,note_off,,,,,200,0,13,,,,,6,,60,100
6344,note_off,,,,,0,0,13,,,,,6,,64,100
6344,note_off,,,,,0,0,13,,,,,6,,69,100
6344,note_off,,,,,200,0,14,,,,,6,,45,100
6436,note_off,,,,,100,0,9,,,,,2,,72,100
6436,note_off,,,,,100,0,8,,,,,1,,72,100
6528,note_on,,,,,92,0,9,,,,,2,,74,70
6528,note_on,,,,,184,0,10,,,,,3,,59,70
6528,note_on,,,,,184,0,11,,,,,4,,44,70
6528,note_on,,,,,184,0,12,,,,,5,,32,70
6528,note_on,,,,,184,0,14,,,,,6,,44,100
6528,note_on,,,,,0,0,15,,,,,7,,62,100
6528,note_on,,,,,0,0,15,,,,,7,,64,100
6528,note_on,,,,,92,0,8,,,,,1,,74,70
6528,note_on,,,,,0,0,13,,,,,6,,64,100
6528,note_on,,,,,0,0,13,,,,,6,,62,100
6528,note_on,,,,,184,0,13,,,,,6,,68,100
6528,note_on,,,,,184,0,15,,,,,7,,68,100
6528,note_on,,,,,184,0,16,,,,,7,,44,100
6628,note_off,,,,,100,0,9,,,,,2,,74,100
6628,note_off,,,,,100,0,8,,,,,1,,74,100
6720,note_on,,,,,92,0,9,,,,,2,,76,70
6720,note_on,,,,,92,0,8,,,,,1,,76,70
6728,note_off,,,,,0,0,13,,,,,6,,64,100
6728,note_off,,,,,200,0,12,,,,,5,,32,100
6728,note_off,,,,,200,0,14,,,,,6,,44,100
6728,note_off,,,,,200,0,13,,,,,6,,68,100
6728,note_off,,,,,200,0,10,,,,,3,,59,100
6728,note_off,,,,,200,0,11,,,,,4,,44,100
6728,note_off,,,,,200,0,16,,,,,7,,44,100
6728,note_off,,,,,0,0,13,,,,,6,,62,100
6728,note_off,,,,,200,0,15,,,,,7,,68,100
6728,note_off,,,,,0,0,15,,,,,7,,62,100
6728,note_off,,,,,0,0,15,,,,,7,,64,100
6820,note_off,,,,,100,0,9,,,,,2,,76,100
6820,note_off,,,,,100,0,8,,,,,1,,76,100
6912,note_on,,,,,184,0,15,,,,,7,,60,100
6912,note_on,,,,,184,0,14,,,,,6,,45,100
6912,note_on,,,,,0,0,15,,,,,7,,64,100
6912,note_on,,,,,184,0,13,,,,,6,,60,100
6912,note_on,,,,,0,0,13,,,,,6,,64,100
6912,note_on,,,,,0,0,13,,,,,6,,69,100
6912,note_on,,,,,0,0,15,,,,,7,,69,100
6912,note_on,,,,,184,0,12,,,,,5,,33,70
6912,note_on,,,,,184,0,11,,,,,4,,45,70
6912,note_on,,,,,184,0,10,,,,,3,,64,70
6912,note_on,,,,,92,0,8,,,,,1,,69,70
6912,note_on,,,,,92,0,9,,,,,2,,69,70
6912,note_on,,,,,184,0,16,,,,,7,,45,100
7168,note_off,,,,,256,0,10,,,,,3,,64,100
7168,note_off,,,,,256,0,8,,,,,1,,69,100
7168,note_off,,,,,256,0,14,,,,,6,,45,100
7168,note_off,,,,,256,0,9,,,,,2,,69,100
7168,note_off,,,,,0,0,15,,,,,7,,69,100
7168,note_off,,,,,256,0,16,,,,,7,,45,100
7168,note_off,,,,,256,0,12,,,,,5,,33,100
7168,note_off,,,,,256,0,13,,,,,6,,60,100
7168,note_off,,,,,256,0,15,,,,,7,,60,100
7168,note_off,,,,,0,0,13,,,,,6,,64,100
7168,note_off,,,,,0,0,13,,,,,6,,69,100
7168,note_off,,,,,256,0,11,,,,,4,,45,100
7168,note_off,,,,,0,0,15,,,,,7,,64,100
7488,note_on,,,,,320,0,12,,,,,5,,36,100
7488,note_on,,,,,320,0,10,,,,,3,,60,100
7488,note_on,,,,,320,0,15,,,,,7,,60,100
7488,note_on,,,,,320,0,9,,,,,2,,60,100
7488,note_on,,,,,320,0,13,,,,,6,,60,100
7488,note_on,,,,,320,0,11,,,,,4,,48,100
7488,note_on,,,,,320,0,14,,,,,6,,48,100
7488,note_on,,,,,320,0,16,,,,,7,,48,100
7488,note_on,,,,,320,0,8,,,,,1,,60,100
7588,note_off,,,,,100,0,16,,,,,7,,48,100
7588,note_off,,,,,100,0,11,,,,,4,,48,100
7588,note_off,,,,,100,0,14,,,,,6,,48,100
7588,note_off,,,,,100,0,15,,,,,7,,60,100
7588,note_off,,,,,100,0,8,,,,,1,,60,100
7588,note_off,,,,,100,0,9,,,,,2,,60,100
7588,note_off,,,,,100,0,10,,,,,3,,60,100
7588,note_off,,,,,100,0,13,,,,,6,,60,100
7588,note_off,,,,,100,0,12,,,,,5,,36,100
7680,note_on,,,,,92,0,8,,,,,1,,62,100
7680,note_on,,,,,92,0,13,,,,,6,,62,100
7680,note_on,,,,,92,0,9,,,,,2,,62,100
7680,note_on,,,,,92,0,15,,,,,7,,62,100
7680,note_on,,,,,92,0,11,,,,,4,,50,100
7680,note_on,,,,,92,0,12,,,,,5,,38,100
7680,note_on,,,,,92,0,14,,,,,6,,50,100
7680,note_on,,,,,92,0,16,,,,,7,,50,100
7680,note_on,,,,,92,0,10,,,,,3,,62,100
7780,note_off,,,,,100,0,9,,,,,2,,62,100
7780,note_off,,,,,100,0,15,,,,,7,,62,100
7780,note_off,,,,,100,0,8,,,,,1,,62,100
7780,note_off,,,,,100,0,10,,,,,3,,62,100
7780,note_off,,,,,100,0,12,,,,,5,,38,100
7780,note_off,,,,,100,0,14,,,,,6,,50,100
7780,note_off,,,,,100,0,13,,,,,6,,62,100
7780,note_off,,,,,100,0,16,,,,,7,,50,100
7780,note_off,,,,,100,0,11,,,,,4,,50,100
7872,note_on,,,,,92,0,16,,,,,7,,52,100
7872,note_on,,,,,92,0,14,,,,,6,,52,100
7872,note_on,,,,,92,0,8,,,,,1,,64,101
7872,note_on,,,,,92,0,13,,,,,6,,64,100
7872,note_on,,,,,92,0,12,,,,,5,,40,101
7872,note_on,,,,,92,0,11,,,,,4,,52,101
7872,note_on,,,,,92,0,10,,,,,3,,64,101
7872,note_on,,,,,92,0,15,,,,,7,,64,100
7872,note_on,,,,,92,0,9,,,,,2,,64,101
7972,note_off,,,,,100,0,16,,,,,7,,52,100
7972,note_off,,,,,100,0,13,,,,,6,,64,100
7972,note_off,,,,,100,0,10,,,,,3,,64,100
7972,note_off,,,,,100,0,14,,,,,6,,52,100
7972,note_off,,,,,100,0,12,,,,,5,,40,100
7972,note_off,,,,,100,0,8,,,,,1,,64,100
7972,note_off,,,,,100,0,11,,,,,4,,52,100
7972,note_off,,,,,100,0,15,,,,,7,,64,100
7972,note_off,,,,,100,0,9,,,,,2,,64,100
8064,note_on,,,,,92,0,12,,,,,5,,41,102
8064,note_on,,,,,92,0,11,,,,,4,,53,102
8064,note_on,,,,,92,0,9,,,,,2,,65,102
8064,note_on,,,,,92,0,16,,,,,7,,53,100
8064,note_on,,,,,92,0,13,,,,,6,,65,100
8064,note_on,,,,,92,0,10,,,,,3,,65,102
8064,note_on,,,,,92,0,8,,,,,1,,65,102
8064,note_on,,,,,92,0,14,,,,,6,,53,100
8064,note_on,,,,,92,0,15,,,,,7,,65,100
8164,note_off,,,,,100,0,12,,,,,5,,41,100
8164,note_off,,,,,100,0,8,,,,,1,,65,100
8164,note_off,,,,,100,0,11,,,,,4,,53,100
8164,note_off,,,,,100,0,16,,,,,7,,53,100
8164,note_off,,,,,100,0,10,,,,,3,,65,100
8164,note_off,,,,,100,0,9,,,,,2,,65,100
8164,note_off,,,,,100,0,13,,,,,6,,65,100
8164,note_off,,,,,100,0,14,,,,,6,,53,100
8164,note_off,,,,,100,0,15,,,,,7,,65,100
8256,note_on,,,,,92,0,14,,,,,6,,53,100
8256,note_on,,,,,92,0,12,,,,,5,,41,103
8256,note_on,,,,,92,0,10,,,,,3,,65,103
8256,note_on,,,,,92,0,9,,,,,2,,65,103
8256,note_on,,,,,92,0,11,,,,,4,,53,103
8256,note_on,,,,,92,0,15,,,,,7,,65,100
8256,note_on,,,,,92,0,16,,,,,7,,53,100
8256,note_on,,,,,92,0,8,,,,,1,,65,103
8256,note_on,,,,,92,0,13,,,,,6,,65,100
8356,note_off,,,,,100,0,11,,,,,4,,53,100
8356,note_off,,,,,100,0,15,,,,,7,,65,100
8356,note_off,,,,,100,0,16,,,,,7,,53,100
8356,note_off,,,,,100,0,10,,,,,3,,65,100
8356,note_off,,,,,100,0,13,,,,,6,,65,100
8356,note_off,,,,,100,0,8,,,,,1,,65,100
8356,note_off,,,,,100,0,14,,,,,6,,53,100
8356,note_off,,,,,100,0,12,,,,,5,,41,100
8356,note_off,,,,,100,0,9,,,,,2,,65,100
8448,note_on,,,,,92,0,12,,,,,5,,41,104
8448,note_on,,,,,92,0,14,,,,,6,,53,100
8448,note_on,,,,,92,0,9,,,,,2,,65,104
8448,note_on,,,,,92,0,15,,,,,7,,65,100
8448,note_on,,,,,92,0,8,,,,,1,,65,104
8448,note_on,,,,,92,0,10,,,,,3,,65,104
8448,note_on,,,,,92,0,11,,,,,4,,53,104
8448,note_on,,,,,92,0,16,,,,,7,,53,100
8448,note_on,,,,,92,0,13,,,,,6,,65,100
8576,note_off,,,,,128,0,9,,,,,2,,65,100
8576,note_off,,,,,128,0,13,,,,,6,,65,100
8576,note_off,,,,,128,0,12,,,,,5,,41,100
8576,note_off,,,,,128,0,8,,,,,1,,65,100
8576,note_off,,,,,128,0,15,,,,,7,,65,100
8576,note_off,,,,,128,0,10,,,,,3,,65,100
8576,note_off,,,,,128,0,16,,,,,7,,53,100
8576,note_off,,,,,128,0,14,,,,,6,,53,100
8576,note_off,,,,,128,0,11,,,,,4,,53,100
8640,note_on,,,,,64,0,9,,,,,2,,64,99
8640,note_on,,,,,64,0,15,,,,,7,,64,100
8640,note_on,,,,,64,0,14,,,,,6,,52,100
8640,note_on,,,,,64,0,11,,,,,4,,52,99
8640,note_on,,,,,64,0,8,,,,,1,,64,99
8640,note_on,,,,,64,0,12,,,,,5,,40,99
8640,note_on,,,,,64,0,13,,,,,6,,64,100
8640,note_on,,,,,64,0,16,,,,,7,,52,100
8640,note_on,,,,,64,0,10,,,,,3,,64,99
8704,note_off,,,,,64,0,11,,,,,4,,52,100
8704,note_off,,,,,64,0,8,,,,,1,,64,100
8704,note_off,,,,,64,0,14,,,,,6,,52,100
8704,note_off,,,,,64,0,10,,,,,3,,64,100
8704,note_off,,,,,64,0,13,,,,,6,,64,100
8704,note_off,,,,,64,0,16,,,,,7,,52,100
8704,note_off,,,,,64,0,15,,,,,7,,64,100
8704,note_off,,,,,64,0,9,,,,,2,,64,100
8704,note_off,,,,,64,0,12,,,,,5,,40,100
8736,note_on,,,,,32,0,11,,,,,4,,50,99
8736,note_on,,,,,32,0,16,,,,,7,,50,100
8736,note_on,,,,,32,0,10,,,,,3,,62,99
8736,note_on,,,,,32,0,12,,,,,5,,38,99
8736,note_on,,,,,32,0,13,,,,,6,,62,100
8736,note_on,,,,,32,0,14,,,,,6,,50,100
8736,note_on,,,,,32,0,8,,,,,1,,62,99
8736,note_on,,,,,32,0,9,,,,,2,,62,99
8736,note_on,,,,,32,0,15,,,,,7,,62,100
8800,note_off,,,,,64,0,15,,,,,7,,62,100
8800,note_off,,,,,64,0,13,,,,,6,,62,100
8800,note_off,,,,,64,0,12,,,,,5,,38,100
8800,note_off,,,,,64,0,16,,,,,7,,50,100
8800,note_off,,,,,64,0,11,,,,,4,,50,100
8800,note_off,,,,,64,0,8,,,,,1,,62,100
8800,note_off,,,,,64,0,10,,,,,3,,62,100
8800,note_off,,,,,64,0,9,,,,,2,,62,100
8800,note_off,,,,,64,0,14,,,,,6,,50,100
8832,note_on,,,,,32,0,11,,,,,4,,52,98
8832,note_on,,,,,32,0,9,,,,,2,,64,98
8832,note_on,,,,,32,0,8,,,,,1,,64,98
8832,note_on,,,,,32,0,12,,,,,5,,40,98
8832,note_on,,,,,32,0,15,,,,,7,,64,100
8832,note_on,,,,,32,0,16,,,,,7,,52,100
8832,note_on,,,,,32,0,10,,,,,3,,64,98
8832,note_on,,,,,32,0,13,,,,,6,,64,100
8832,note_on,,,,,32,0,14,,,,,6,,52,100
8932,note_off,,,,,100,0,15,,,,,7,,64,100
8932,note_off,,,,,100,0,16,,,,,7,,52,100
8932,note_off,,,,,100,0,12,,,,,5,,40,100
8932,note_off,,,,,100,0,8,,,,,1,,64,100
8932,note_off,,,,,100,0,10,,,,,3,,64,100
8932,note_off,,,,,100,0,14,,,,,6,,52,100
8932,note_off,,,,,100,0,13,,,,,6,,64,100
8932,note_off,,,,,100,0,9,,,,,2,,64,100
8932,note_off,,,,,100,0,11,,,,,4,,52,100
9024,note_on,,,,,92,0,11,,,,,4,,48,97
9024,note_on,,,,,92,0,8,,,,,1,,60,97
9024,note_on,,,,,92,0,14,,,,,6,,48,100
9024,note_on,,,,,92,0,9,,,,,2,,60,97
9024,note_on,,,,,92,0,12,,,,,5,,36,97
9024,note_on,,,,,92,0,13,,,,,6,,60,100
9024,note_on,,,,,92,0,15,,,,,7,,60,100
9024,note_on,,,,,92,0,16,,,,,7,,48,100
9024,note_on,,,,,92,0,10,,,,,3,,60,97
9124,note_off,,,,,100,0,11,,,,,4,,48,100
9124,note_off,,,,,100,0,12,,,,,5,,36,100
9124,note_off,,,,,100,0,8,,,,,1,,60,100
9124,note_off,,,,,100,0,13,,,,,6,,60,100
9124,note_off,,,,,100,0,16,,,,,7,,48,100
9124,note_off,,,,,100,0,10,,,,,3,,60,100
9124,note_off,,,,,100,0,9,,,,,2,,60,100
9124,note_off,,,,,100,0,15,,,,,7,,60,100
9124,note_off,,,,,100,0,14,,,,,6,,48,100
9216,note_on,,,,,92,0,10,,,,,3,,62,96
9216,note_on,,,,,92,0,11,,,,,4,,50,96
9216,note_on,,,,,92,0,13,,,,,6,,62,100
9216,note_on,,,,,92,0,12,,,,,5,,38,96
9216,note_on,,,,,92,0,8,,,,,1,,62,96
9216,note_on,,,,,92,0,14,,,,,6,,50,100
9216,note_on,,,,,92,0,9,,,,,2,,62,96
9216,note_on,,,,,92,0,16,,,,,7,,50,100
9216,note_on,,,,,92,0,15,,,,,7,,62,100
9316,note_off,,,,,100,0,16,,,,,7,,50,100
9316,note_off,,,,,100,0,12,,,,,5,,38,100
9316,note_off,,,,,100,0,11,,,,,4,,50,100
9316,note_off,,,,,100,0,15,,,,,7,,62,100
9316,note_off,,,,,100,0,10,,,,,3,,62,100
9316,note_off,,,,,100,0,13,,,,,6,,62,100
9316,note_off,,,,,100,0,14,,,,,6,,50,100
9316,note_off,,,,,100,0,9,,,,,2,,62,100
9316,note_off,,,,,100,0,8,,,,,1,,62,100
9408,note_on,,,,,92,0,12,,,,,5,,40,98
9408,note_on,,,,,92,0,9,,,,,2,,64,98
9408,note_on,,,,,92,0,15,,,,,7,,64,100
9408,note_on,,,,,92,0,14,,,,,6,,52,100
9408,note_on,,,,,92,0,13,,,,,6,,64,100
9408,note_on,,,,,92,0,16,,,,,7,,52,100
9408,note_on,,,,,92,0,8,,,,,1,,64,98
9408,note_on,,,,,92,0,11,,,,,4,,52,98
9408,note_on,,,,,92,0,10,,,,,3,,64,98
9508,note_off,,,,,100,0,9,,,,,2,,64,100
9508,note_off,,,,,100,0,16,,,,,7,,52,100
9508,note_off,,,,,100,0,12,,,,,5,,40,100
9508,note_off,,,,,100,0,15,,,,,7,,64,100
9508,note_off,,,,,100,0,14,,,,,6,,52,100
9508,note_off,,,,,100,0,11,,,,,4,,52,100
9508,note_off,,,,,100,0,8,,,,,1,,64,100
9508,note_off,,,,,100,0,13,,,,,6,,64,100
9508,note_off,,,,,100,0,10,,,,,3,,64,100
9600,note_on,,,,,92,0,10,,,,,3,,65,100
9600,note_on,,,,,92,0,11,,,,,4,,53,100
9600,note_on,,,,,92,0,9,,,,,2,,65,100
9600,note_on,,,,,92,0,15,,,,,7,,65,100
9600,note_on,,,,,92,0,13,,,,,6,,65,100
9600,note_on,,,,,92,0,16,,,,,7,,53,100
9600,note_on,,,,,92,0,8,,,,,1,,65,100
9600,note_on,,,,,92,0,14,,,,,6,,53,100
9600,note_on,,,,,92,0,12,,,,,5,,41,100
9700,note_off,,,,,100,0,15,,,,,7,,65,100
9700,note_off,,,,,100,0,8,,,,,1,,65,100
9700,note_off,,,,,100,0,12,,,,,5,,41,100
9700,note_off,,,,,100,0,11,,,,,4,,53,100
9700,note_off,,,,,100,0,9,,,,,2,,65,100
9700,note_off,,,,,100,0,13,,,,,6,,65,100
9700,note_off,,,,,100,0,16,,,,,7,,53,100
9700,note_off,,,,,100,0,14,,,,,6,,53,100
9700,note_off,,,,,100,0,10,,,,,3,,65,100
9792,note_on,,,,,92,0,12,,,,,5,,41,102
9792,note_on,,,,,92,0,13,,,,,6,,65,100
9792,note_on,,,,,92,0,11,,,,,4,,53,102
9792,note_on,,,,,92,0,16,,,,,7,,53,100
9792,note_on,,,,,92,0,15,,,,,7,,65,100
9792,note_on,,,,,92,0,14,,,,,6,,53,100
9792,note_on,,,,,92,0,8,,,,,1,,65,102
9792,note_on,,,,,92,0,9,,,,,2,,65,102
9792,note_on,,,,,92,0,10,,,,,3,,65,102
9892,note_off,,,,,100,0,11,,,,,4,,53,100
9892,note_off,,,,,100,0,13,,,,,6,,65,100
9892,note_off,,,,,100,0,12,,,,,5,,41,100
9892,note_off,,,,,100,0,15,,,,,7,,65,100
9892,note_off,,,,,100,0,16,,,,,7,,53,100
9892,note_off,,,,,100,0,14,,,,,6,,53,100
9892,note_off,,,,,100,0,9,,,,,2,,65,100
9892,note_off,,,,,100,0,8,,,,,1,,65,100
9892,note_off,,,,,100,0,10,,,,,3,,65,100
9984,note_on,,,,,92,0,14,,,,,6,,53,100
9984,note_on,,,,,92,0,16,,,,,7,,53,100
9984,note_on,,,,,92,0,13,,,,,6,,65,100
9984,note_on,,,,,92,0,10,,,,,3,,65,104
9984,note_on,,,,,92,0,9,,,,,2,,65,104
9984,note_on,,,,,92,0,12,,,,,5,,41,104
9984,note_on,,,,,92,0,11,,,,,4,,53,104
9984,note_on,,,,,92,0,8,,,,,1,,65,104
9984,note_on,,,,,92,0,15,,,,,7,,65,100
10112,note_off,,,,,128,0,14,,,,,6,,53,100
10112,note_off,,,,,128,0,10,,,,,3,,65,100
10112,note_off,,,,,128,0,16,,,,,7,,53,100
10112,note_off,,,,,128,0,12,,,,,5,,41,100
10112,note_off,,,,,128,0,15,,,,,7,,65,100
10112,note_off,,,,,128,0,9,,,,,2,,65,100
10112,note_off,,,,,128,0,11,,,,,4,,53,100
10112,note_off,,,,,128,0,13,,,,,6,,65,100
10112,note_off,,,,,128,0,8,,,,,1,,65,100
10176,note_on,,,,,64,0,10,,,,,3,,64,100
10176,note_on,,,,,64,0,12,,,,,5,,40,100
10176,note_on,,,,,64,0,9,,,,,2,,64,100
10176,note_on,,,,,64,0,16,,,,,7,,52,100
10176,note_on,,,,,64,0,11,,,,,4,,52,100
10176,note_on,,,,,64,0,14,,,,,6,,52,100
10176,note_on,,,,,64,0,15,,,,,7,,64,100
10176,note_on,,,,,64,0,8,,,,,1,,64,100
10176,note_on,,,,,64,0,13,,,,,6,,64,100
10240,note_off,,,,,64,0,8,,,,,1,,64,100
10240,note_off,,,,,64,0,11,,,,,4,,52,100
10240,note_off,,,,,64,0,16,,,,,7,,52,100
10240,note_off,,,,,64,0,9,,,,,2,,64,100
10240,note_off,,,,,64,0,14,,,,,6,,52,100
10240,note_off,,,,,64,0,13,,,,,6,,64,100
10240,note_off,,,,,64,0,12,,,,,5,,40,100
10240,note_off,,,,,64,0,15,,,,,7,,64,100
10240,note_off,,,,,64,0,10,,,,,3,,64,100
10272,note_on,,,,,32,0,11,,,,,4,,50,100
10272,note_on,,,,,32,0,8,,,,,1,,62,100
10272,note_on,,,,,32,0,12,,,,,5,,38,100
10272,note_on,,,,,32,0,9,,,,,2,,62,100
10272,note_on,,,,,32,0,10,,,,,3,,62,100
10272,note_on,,,,,32,0,16,,,,,7,,50,100
10272,note_on,,,,,32,0,14,,,,,6,,50,100
10272,note_on,,,,,32,0,15,,,,,7,,62,100
10272,note_on,,,,,32,0,13,,,,,6,,62,100
10336,note_off,,,,,64,0,10,,,,,3,,62,100
10336,note_off,,,,,64,0,16,,,,,7,,50,100
10336,note_off,,,,,64,0,14,,,,,6,,50,100
10336,note_off,,,,,64,0,11,,,,,4,,50,100
10336,note_off,,,,,64,0,9,,,,,2,,62,100
10336,note_off,,,,,64,0,12,,,,,5,,38,100
10336,note_off,,,,,64,0,15,,,,,7,,62,100
10336,note_off,,,,,64,0,8,,,,,1,,62,100
10336,note_off,,,,,64,0,13,,,,,6,,62,100
10368,note_on,,,,,32,0,8,,,,,1,,64,100
10368,note_on,,,,,32,0,13,,,,,6,,64,100
10368,note_on,,,,,32,0,14,,,,,6,,52,100
10368,note_on,,,,,32,0,10,,,,,3,,64,100
10368,note_on,,,,,32,0,11,,,,,4,,52,100
10368,note_on,,,,,32,0,16,,,,,7,,52,100
10368,note_on,,,,,32,0,12,,,,,5,,40,100
10368,note_on,,,,,32,0,9,,,,,2,,64,100
10368,note_on,,,,,32,0,15,,,,,7,,64,100
10468,note_off,,,,,100,0,13,,,,,6,,64,100
10468,note_off,,,,,100,0,14,,,,,6,,52,100
10468,note_off,,,,,100,0,11,,,,,4,,52,100
10468,note_off,,,,,100,0,10,,,,,3,,64,100
10468,note_off,,,,,100,0,8,,,,,1,,64,100
10468,note_off,,,,,100,0,9,,,,,2,,64,100
10468,note_off,,,,,100,0,15,,,,,7,,64,100
10468,note_off,,,,,100,0,16,,,,,7,,52,100
10468,note_off,,,,,100,0,12,,,,,5,,40,100
10560,note_on,,,,,92,0,11,,,,,4,,48,100
10560,note_on,,,,,92,0,13,,,,,6,,60,100
10560,note_on,,,,,92,0,14,,,,,6,,48,100
10560,note_on,,,,,92,0,10,,,,,3,,60,100
10560,note_on,,,,,92,0,9,,,,,2,,60,100
10560,note_on,,,,,92,0,15,,,,,7,,60,100
10560,note_on,,,,,92,0,16,,,,,7,,48,100
10560,note_on,,,,,92,0,8,,,,,1,,60,100
10560,note_on,,,,,92,0,12,,,,,5,,36,100
10660,note_off,,,,,100,0,9,,,,,2,,60,100
10660,note_off,,,,,100,0,10,,,,,3,,60,100
10660,note_off,,,,,100,0,12,,,,,5,,36,100
10660,note_off,,,,,100,0,14,,,,,6,,48,100
10660,note_off,,,,,100,0,13,,,,,6,,60,100
10660,note_off,,,,,100,0,8,,,,,1,,60,100
10660,note_off,,,,,100,0,11,,,,,4,,48,100
10660,note_off,,,,,100,0,16,,,,,7,,48,100
10660,note_off,,,,,100,0,15,,,,,7,,60,100
10752,note_on,,,,,92,0,12,,,,,5,,38,100
10752,note_on,,,,,92,0,13,,,,,6,,62,100
10752,note_on,,,,,92,0,15,,,,,7,,62,100
10752,note_on,,,,,92,0,10,,,,,3,,62,100
10752,note_on,,,,,92,0,11,,,,,4,,50,100
10752,note_on,,,,,92,0,8,,,,,1,,62,100
10752,note_on,,,,,92,0,14,,,,,6,,50,100
10752,note_on,,,,,92,0,16,,,,,7,,50,100
10752,note_on,,,,,92,0,9,,,,,2,,62,100
10832,note_off,,,,,80,0,10,,,,,3,,62,100
10832,note_off,,,,,80,0,9,,,,,2,,62,100
10832,note_off,,,,,80,0,16,,,,,7,,50,100
10832,note_off,,,,,80,0,12,,,,,5,,38,100
10832,note_off,,,,,80,0,8,,,,,1,,62,100
10832,note_off,,,,,80,0,15,,,,,7,,62,100
10832,note_off,,,,,80,0,14,,,,,6,,50,100
10832,note_off,,,,,80,0,13,,,,,6,,62,100
10832,note_off,,,,,80,0,11,,,,,4,,50,100
10944,note_on,,,,,112,0,15,,,,,7,,59,100
10944,note_on,,,,,112,0,11,,,,,4,,47,100
10944,note_on,,,,,112,0,12,,,,,5,,35,100
10944,note_on,,,,,112,0,10,,,,,3,,59,100
10944,note_on,,,,,112,0,9,,,,,2,,59,100
10944,note_on,,,,,112,0,14,,,,,6,,47,100
10944,note_on,,,,,112,0,8,,,,,1,,59,100
10944,note_on,,,,,112,0,13,,,,,6,,59,100
10944,note_on,,,,,112,0,16,,,,,7,,47,100
11024,note_off,,,,,80,0,11,,,,,4,,47,100
11024,note_off,,,,,80,0,9,,,,,2,,59,100
11024,note_off,,,,,80,0,15,,,,,7,,59,100
11024,note_off,,,,,80,0,14,,,,,6,,47,100
11024,note_off,,,,,80,0,12,,,,,5,,35,100
11024,note_off,,,,,80,0,13,,,,,6,,59,100
11024,note_off,,,,,80,0,10,,,,,3,,59,100
11024,note_off,,,,,80,0,8,,,,,1,,59,100
11024,note_off,,,,,80,0,16,,,,,7,,47,100
11136,note_on,,,,,112,0,16,,,,,7,,52,100
11136,note_on,,,,,112,0,9,,,,,2,,64,100
11136,note_on,,,,,112,0,8,,,,,1,,64,100
11136,note_on,,,,,112,0,11,,,,,4,,52,100
11136,note_on,,,,,112,0,14,,,,,6,,52,100
11136,note_on,,,,,112,0,10,,,,,3,,64,100
11136,note_on,,,,,112,0,15,,,,,7,,64,100
11136,note_on,,,,,112,0,13,,,,,6,,64,100
11136,note_on,,,,,112,0,12,,,,,5,,40,100
11216,note_off,,,,,80,0,14,,,,,6,,52,100
11216,note_off,,,,,80,0,10,,,,,3,,64,100
11216,note_off,,,,,80,0,9,,,,,2,,64,100
11216,note_off,,,,,80,0,13,,,,,6,,64,100
11216,note_off,,,,,80,0,8,,,,,1,,64,100
11216,note_off,,,,,80,0,12,,,,,5,,40,100
11216,note_off,,,,,80,0,15,,,,,7,,64,100
11216,note_off,,,,,80,0,16,,,,,7,,52,100
11216,note_off,,,,,80,0,11,,,,,4,,52,100
11328,note_on,,,,,112,0,10,,,,,3,,64,100
11328,note_on,,,,,112,0,9,,,,,2,,64,100
11328,note_on,,,,,112,0,13,,,,,6,,64,100
11328,note_on,,,,,112,0,11,,,,,4,,52,100
11328,note_on,,,,,112,0,12,,,,,5,,40,100
11328,note_on,,,,,112,0,15,,,,,7,,64,100
11328,note_on,,,,,112,0,8,,,,,1,,64,100
11328,note_on,,,,,112,0,16,,,,,7,,52,100
11328,note_on,,,,,112,0,14,,,,,6,,52,100
11408,note_off,,,,,80,0,11,,,,,4,,52,100
11408,note_off,,,,,80,0,13,,,,,6,,64,100
11408,note_off,,,,,80,0,8,,,,,1,,64,100
11408,note_off,,,,,80,0,9,,,,,2,,64,100
11408,note_off,,,,,80,0,10,,,,,3,,64,100
11408,note_off,,,,,80,0,16,,,,,7,,52,100
11408,note_off,,,,,80,0,15,,,,,7,,64,100
11408,note_off,,,,,80,0,14,,,,,6,,52,100
11408,note_off,,,,,80,0,12,,,,,5,,40,100
11520,note_on,,,,,112,0,11,,,,,4,,45,100
11520,note_on,,,,,112,0,14,,,,,6,,45,100
11520,note_on,,,,,112,0,13,,,,,6,,57,100
11520,note_on,,,,,112,0,9,,,,,2,,57,100
11520,note_on,,,,,112,0,12,,,,,5,,33,100
11520,note_on,,,,,112,0,10,,,,,3,,57,100
11520,note_on,,,,,112,0,8,,,,,1,,57,100
11520,note_on,,,,,112,0,15,,,,,7,,57,100
11520,note_on,,,,,112,0,16,,,,,7,,45,100
11776,note_off,,,,,256,0,8,,,,,1,,57,100
11776,note_off,,,,,256,0,12,,,,,5,,33,100
11776,note_off,,,,,256,0,11,,,,,4,,45,100
11776,note_off,,,,,256,0,13,,,,,6,,57,100
11776,note_off,,,,,256,0,16,,,,,7,,45,100
11776,note_off,,,,,256,0,9,,,,,2,,57,100
11776,note_off,,,,,256,0,15,,,,,7,,57,100
11776,note_off,,,,,256,0,14,,,,,6,,45,100
11776,note_off,,,,,256,0,10,,,,,3,,57,100
11904,program_change,,,,,128,0,11,,,,,4,42,,
12000,note_on,,,,,12000,0,7,,,,,0,,69,100
12064,note_off,,,,,64,0,7,,,,,0,,69,100
12096,note_on,,,,,32,0,7,,,,,0,,72,100
12160,note_off,,,,,64,0,7,,,,,0,,72,100
12192,note_on,,,,,32,0,7,,,,,0,,76,100
12256,note_off,,,,,64,0,7,,,,,0,,76,100
12288,note_on,,,,,0,0,13,,,,,6,,64,100
12288,note_on,,,,,32,0,7,,,,,0,,81,100
12288,note_on,,,,,512,0,13,,,,,6,,69,100
12288,note_on,,,,,384,0,11,,,,,4,,48,85
12288,note_on,,,,,512,0,14,,,,,6,,48,100
12288,note_on,,,,,0,0,13,,,,,6,,60,100
12388,note_off,,,,,100,0,14,,,,,6,,48,100
12388,note_off,,,,,100,0,7,,,,,0,,81,100
12388,note_off,,,,,100,0,11,,,,,4,,48,100
12480,note_on,,,,,92,0,14,,,,,6,,57,100
12480,note_on,,,,,92,0,11,,,,,4,,57,85
12480,note_on,,,,,92,0,7,,,,,0,,81,99
12580,note_off,,,,,100,0,7,,,,,0,,81,100
12580,note_off,,,,,100,0,11,,,,,4,,57,100
12580,note_off,,,,,100,0,14,,,,,6,,57,100
12672,note_on,,,,,92,0,11,,,,,4,,48,85
12672,note_on,,,,,92,0,14,,,,,6,,48,100
12672,note_on,,,,,92,0,7,,,,,0,,81,98
12772,note_off,,,,,100,0,14,,,,,6,,48,100
12772,note_off,,,,,100,0,7,,,,,0,,81,100
12772,note_off,,,,,100,0,11,,,,,4,,48,100
12800,note_off,,,,,0,0,13,,,,,6,,64,100
12800,note_off,,,,,0,0,13,,,,,6,,60,100
12800,note_off,,,,,512,0,13,,,,,6,,69,100
12864,note_on,,,,,92,0,14,,,,,6,,57,100
12864,note_on,,,,,92,0,7,,,,,0,,72,97
12864,note_on,,,,,92,0,11,,,,,4,,57,85
12964,note_off,,,,,100,0,7,,,,,0,,72,100
12964,note_off,,,,,100,0,14,,,,,6,,57,100
12964,note_off,,,,,100,0,11,,,,,4,,57,100
13056,note_on,,,,,0,0,13,,,,,6,,62,100
13056,note_on,,,,,92,0,7,,,,,0,,74,96
13056,note_on,,,,,0,0,13,,,,,6,,65,100
13056,note_on,,,,,92,0,11,,,,,4,,47,85
13056,note_on,,,,,256,0,13,,,,,6,,69,100
13056,note_on,,,,,92,0,14,,,,,6,,47,100
13184,note_off,,,,,128,0,7,,,,,0,,74,100
13248,note_on,,,,,64,0,7,,,,,0,,71,95
13312,note_off,,,,,256,0,11,,,,,4,,47,100
13312,note_off,,,,,0,0,13,,,,,6,,62,100
13312,note_off,,,,,0,0,13,,,,,6,,65,100
13312,note_off,,,,,256,0,14,,,,,6,,47,100
13312,note_off,,,,,64,0,7,,,,,0,,71,100
13312,note_off,,,,,256,0,13,,,,,6,,69,100
13344,note_on,,,,,32,0,7,,,,,0,,72,95
13408,note_off,,,,,64,0,7,,,,,0,,72,100
13440,note_on,,,,,32,0,7,,,,,0,,74,96
13504,note_off,,,,,64,0,7,,,,,0,,74,100
13536,note_on,,,,,32,0,7,,,,,0,,76,97
13600,note_off,,,,,64,0,7,,,,,0,,76,100
13632,note_on,,,,,32,0,7,,,,,0,,77,98
13696,note_off,,,,,64,0,7,,,,,0,,77,100
13728,note_on,,,,,32,0,7,,,,,0,,74,99
13792,note_off,,,,,64,0,7,,,,,0,,74,100
13824,note_on,,,,,0,0,13,,,,,6,,62,100
13824,note_on,,,,,512,0,14,,,,,6,,47,100
13824,note_on,,,,,0,0,13,,,,,6,,59,100
13824,note_on,,,,,512,0,11,,,,,4,,47,85
13824,note_on,,,,,32,0,7,,,,,0,,79,100
13824,note_on,,,,,512,0,13,,,,,6,,67,100
13924,note_off,,,,,100,0,14,,,,,6,,47,100
13924,note_off,,,,,100,0,11,,,,,4,,47,100
13924,note_off,,,,,100,0,7,,,,,0,,79,100
14016,note_on,,,,,92,0,14,,,,,6,,55,100
14016,note_on,,,,,92,0,7,,,,,0,,79,99
14016,note_on,,,,,92,0,11,,,,,4,,55,85
14116,note_off,,,,,100,0,14,,,,,6,,55,100
14116,note_off,,,,,100,0,7,,,,,0,,79,100
14116,note_off,,,,,100,0,11,,,,,4,,55,100
14208,note_on,,,,,92,0,14,,,,,6,,47,100
14208,note_on,,,,,92,0,7,,,,,0,,79,97
14208,note_on,,,,,92,0,11,,,,,4,,47,85
14308,note_off,,,,,100,0,14,,,,,6,,47,100
14308,note_off,,,,,100,0,7,,,,,0,,79,100
14308,note_off,,,,,100,0,11,,,,,4,,47,100
14336,note_off,,,,,512,0,13,,,,,6,,67,100
14336,note_off,,,,,0,0,13,,,,,6,,59,100
14336,note_off,,,,,0,0,13,,,,,6,,62,100
14400,note_on,,,,,92,0,14,,,,,6,,55,100
14400,note_on,,,,,92,0,7,,,,,0,,71,95
14400,note_on,,,,,92,0,11,,,,,4,,55,85
14500,note_off,,,,,100,0,14,,,,,6,,55,100
14500,note_off,,,,,100,0,11,,,,,4,,55,100
14500,note_off,,,,,100,0,7,,,,,0,,71,100
14592,note_on,,,,,0,0,13,,,,,6,,67,100
14592,note_on,,,,,92,0,11,,,,,4,,45,85
14592,note_on,,,,,256,0,13,,,,,6,,60,100
14592,note_on,,,,,0,0,13,,,,,6,,64,100
14592,note_on,,,,,92,0,14,,,,,6,,45,100
14592,note_on,,,,,92,0,7,,,,,0,,72,93
14720,note_off,,,,,128,0,7,,,,,0,,72,100
14784,note_on,,,,,64,0,7,,,,,0,,69,92
14848,note_off,,,,,256,0,11,,,,,4,,45,100
14848,note_off,,,,,256,0,13,,,,,6,,60,100
14848,note_off,,,,,0,0,13,,,,,6,,64,100
14848,note_off,,,,,0,0,13,,,,,6,,67,100
14848,note_off,,,,,64,0,7,,,,,0,,69,100
14848,note_off,,,,,256,0,14,,,,,6,,45,100
14880,note_on,,,,,32,0,7,,,,,0,,71,92
14944,note_off,,,,,64,0,7,,,,,0,,71,100
14976,note_on,,,,,32,0,7,,,,,0,,72,93
15040,note_off,,,,,64,0,7,,,,,0,,72,100
15072,note_on,,,,,32,0,7,,,,,0,,74,94
15136,note_off,,,,,64,0,7,,,,,0,,74,100
15168,note_on,,,,,32,0,7,,,,,0,,76,95
15232,note_off,,,,,64,0,7,,,,,0,,76,100
15264,note_on,,,,,32,0,7,,,,,0,,72,96
15328,note_off,,,,,64,0,7,,,,,0,,72,100
15360,note_on,,,,,32,0,7,,,,,0,,77,97
15360,note_on,,,,,512,0,14,,,,,6,,45,100
15360,note_on,,,,,512,0,13,,,,,6,,65,100
15360,note_on,,,,,0,0,13,,,,,6,,60,100
15360,note_on,,,,,0,0,13,,,,,6,,57,100
15360,note_on,,,,,512,0,11,,,,,4,,45,85
15460,note_off,,,,,100,0,11,,,,,4,,45,100
15460,note_off,,,,,100,0,7,,,,,0,,77,100
15460,note_off,,,,,100,0,14,,,,,6,,45,100
15552,note_on,,,,,92,0,7,,,,,0,,77,96
15552,note_on,,,,,92,0,14,,,,,6,,53,100
15552,note_on,,,,,92,0,11,,,,,4,,53,85
15652,note_off,,,,,100,0,7,,,,,0,,77,100
15652,note_off,,,,,100,0,14,,,,,6,,53,100
15652,note_off,,,,,100,0,11,,,,,4,,53,100
15744,note_on,,,,,92,0,7,,,,,0,,77,95
15744,note_on,,,,,92,0,11,,,,,4,,45,85
15744,note_on,,,,,92,0,14,,,,,6,,45,100
15844,note_off,,,,,100,0,11,,,,,4,,45,100
15844,note_off,,,,,100,0,7,,,,,0,,77,100
15844,note_off,,,,,100,0,14,,,,,6,,45,100
15872,note_off,,,,,0,0,13,,,,,6,,57,100
15872,note_off,,,,,0,0,13,,,,,6,,60,100
15872,note_off,,,,,512,0,13,,,,,6,,65,100
15936,note_on,,,,,92,0,7,,,,,0,,69,94
15936,note_on,,,,,92,0,14,,,,,6,,53,100
15936,note_on,,,,,92,0,11,,,,,4,,53,85
16036,note_off,,,,,100,0,7,,,,,0,,69,100
16036,note_off,,,,,100,0,11,,,,,4,,53,100
16036,note_off,,,,,100,0,14,,,,,6,,53,100
16128,note_on,,,,,0,0,13,,,,,6,,65,100
16128,note_on,,,,,92,0,14,,,,,6,,44,100
16128,note_on,,,,,92,0,7,,,,,0,,71,93
16128,note_on,,,,,0,0,13,,,,,6,,62,100
16128,note_on,,,,,256,0,13,,,,,6,,59,100
16128,note_on,,,,,92,0,11,,,,,4,,44,85
16256,note_off,,,,,128,0,7,,,,,0,,71,100
16320,note_on,,,,,64,0,7,,,,,0,,68,92
16384,note_off,,,,,0,0,13,,,,,6,,62,100
16384,note_off,,,,,256,0,13,,,,,6,,59,100
16384,note_off,,,,,0,0,13,,,,,6,,65,100
16384,note_off,,,,,256,0,14,,,,,6,,44,100
16384,note_off,,,,,64,0,7,,,,,0,,68,100
16384,note_off,,,,,256,0,11,,,,,4,,44,100
16416,note_on,,,,,32,0,7,,,,,0,,69,92
16480,note_off,,,,,64,0,7,,,,,0,,69,100
16512,note_on,,,,,32,0,7,,,,,0,,71,93
16576,note_off,,,,,64,0,7,,,,,0,,71,100
16608,note_on,,,,,32,0,7,,,,,0,,72,94
16672,note_off,,,,,64,0,7,,,,,0,,72,100
16704,note_on,,,,,32,0,7,,,,,0,,74,95
16768,note_off,,,,,64,0,7,,,,,0,,74,100
16800,note_on,,,,,32,0,7,,,,,0,,71,96
16864,note_off,,,,,64,0,7,,,,,0,,71,100
16896,note_on,,,,,32,0,7,,,,,0,,76,92
16896,note_on,,,,,512,0,11,,,,,4,,44,85
16896,note_on,,,,,512,0,13,,,,,6,,64,100
16896,note_on,,,,,0,0,13,,,,,6,,59,100
16896,note_on,,,,,0,0,13,,,,,6,,56,100
16896,note_on,,,,,512,0,14,,,,,6,,44,100
16996,note_off,,,,,100,0,7,,,,,0,,76,100
16996,note_off,,,,,100,0,11,,,,,4,,44,100
16996,note_off,,,,,100,0,14,,,,,6,,44,100
17088,note_on,,,,,92,0,7,,,,,0,,76,94
17088,note_on,,,,,92,0,14,,,,,6,,52,100
17088,note_on,,,,,92,0,11,,,,,4,,52,85
17188,note_off,,,,,100,0,7,,,,,0,,76,100
17188,note_off,,,,,100,0,14,,,,,6,,52,100
17188,note_off,,,,,100,0,11,,,,,4,,52,100
17280,note_on,,,,,92,0,11,,,,,4,,44,85
17280,note_on,,,,,92,0,7,,,,,0,,76,97
17280,note_on,,,,,92,0,14,,,,,6,,44,100
17380,note_off,,,,,100,0,11,,,,,4,,44,100
17380,note_off,,,,,100,0,7,,,,,0,,76,100
17380,note_off,,,,,100,0,14,,,,,6,,44,100
17408,note_off,,,,,0,0,13,,,,,6,,56,100
17408,note_off,,,,,0,0,13,,,,,6,,59,100
17408,note_off,,,,,512,0,13,,,,,6,,64,100
17472,note_on,,,,,92,0,7,,,,,0,,71,100
17472,note_on,,,,,92,0,11,,,,,4,,52,85
17472,note_on,,,,,92,0,14,,,,,6,,52,100
17572,note_off,,,,,100,0,11,,,,,4,,52,100
17572,note_off,,,,,100,0,14,,,,,6,,52,100
17572,note_off,,,,,100,0,7,,,,,0,,71,100
17664,note_on,,,,,92,0,7,,,,,0,,74,104
17664,note_on,,,,,92,0,14,,,,,6,,45,100
17664,note_on,,,,,256,0,13,,,,,6,,57,100
17664,note_on,,,,,0,0,13,,,,,6,,60,100
17664,note_on,,,,,0,0,13,,,,,6,,64,100
17664,note_on,,,,,92,0,11,,,,,4,,45,85
17708,note_off,,,,,44,0,7,,,,,0,,74,100
17712,note_on,,,,,4,0,7,,,,,0,,72,104
17756,note_off,,,,,44,0,7,,,,,0,,72,100
17760,note_on,,,,,4,0,7,,,,,0,,74,103
17804,note_off,,,,,44,0,7,,,,,0,,74,100
17808,note_on,,,,,4,0,7,,,,,0,,72,102
17852,note_off,,,,,44,0,7,,,,,0,,72,100
17856,note_on,,,,,4,0,7,,,,,0,,71,102
17920,note_off,,,,,64,0,7,,,,,0,,71,100
17920,note_off,,,,,0,0,13,,,,,6,,64,100
17920,note_off,,,,,256,0,11,,,,,4,,45,100
17920,note_off,,,,,0,0,13,,,,,6,,60,100
17920,note_off,,,,,256,0,13,,,,,6,,57,100
17920,note_off,,,,,256,0,14,,,,,6,,45,100
17952,note_on,,,,,32,0,7,,,,,0,,72,100
18016,note_off,,,,,64,0,7,,,,,0,,72,100
18048,program_change,,,,,128,0,11,,,,,4,48,,
18048,note_on,,,,,32,0,7,,,,,0,,69,99
18176,note_off,,,,,128,0,7,,,,,0,,69,100
18240,note_on,,,,,6464,0,16,,,,,7,,48,100
18240,note_on,,,,,320,0,13,,,,,6,,60,100
18240,note_on,,,,,6464,0,12,,,,,5,,36,100
18240,note_on,,,,,6464,0,8,,,,,1,,60,100
18240,note_on,,,,,320,0,14,,,,,6,,48,100
18240,note_on,,,,,6464,0,9,,,,,2,,60,100
18240,note_on,,,,,6464,0,10,,,,,3,,60,100
18240,note_on,,,,,192,0,11,,,,,4,,48,100
18240,note_on,,,,,6464,0,15,,,,,7,,60,100
18340,note_off,,,,,100,0,9,,,,,2,,60,100
18340,note_off,,,,,100,0,16,,,,,7,,48,100
18340,note_off,,,,,100,0,11,,,,,4,,48,100
18340,note_off,,,,,100,0,13,,,,,6,,60,100
18340,note_off,,,,,100,0,12,,,,,5,,36,100
18340,note_off,,,,,100,0,10,,,,,3,,60,100
18340,note_off,,,,,100,0,15,,,,,7,,60,100
18340,note_off,,,,,100,0,8,,,,,1,,60,100
18340,note_off,,,,,100,0,14,,,,,6,,48,100
18432,note_on,,,,,92,0,14,,,,,6,,50,100
18432,note_on,,,,,92,0,16,,,,,7,,50,100
18432,note_on,,,,,92,0,11,,,,,4,,50,100
18432,note_on,,,,,92,0,10,,,,,3,,62,100
18432,note_on,,,,,92,0,13,,,,,6,,62,100
18432,note_on,,,,,92,0,15,,,,,7,,62,100
18432,note_on,,,,,92,0,9,,,,,2,,62,100
18432,note_on,,,,,92,0,8,,,,,1,,62,100
18432,note_on,,,,,92,0,12,,,,,5,,38,100
18532,note_off,,,,,100,0,9,,,,,2,,62,100
18532,note_off,,,,,100,0,14,,,,,6,,50,100
18532,note_off,,,,,100,0,13,,,,,6,,62,100
18532,note_off,,,,,100,0,8,,,,,1,,62,100
18532,note_off,,,,,100,0,11,,,,,4,,50,100
18532,note_off,,,,,100,0,10,,,,,3,,62,100
18532,note_off,,,,,100,0,15,,,,,7,,62,100
18532,note_off,,,,,100,0,12,,,,,5,,38,100
18532,note_off,,,,,100,0,16,,,,,7,,50,100
18624,note_on,,,,,92,0,8,,,,,1,,64,101
18624,note_on,,,,,92,0,13,,,,,6,,64,100
18624,note_on,,,,,92,0,14,,,,,6,,52,100
18624,note_on,,,,,92,0,9,,,,,2,,64,101
18624,note_on,,,,,92,0,15,,,,,7,,64,100
18624,note_on,,,,,92,0,16,,,,,7,,52,100
18624,note_on,,,,,92,0,11,,,,,4,,52,101
18624,note_on,,,,,92,0,10,,,,,3,,64,101
18624,note_on,,,,,92,0,12,,,,,5,,40,101
18724,note_off,,,,,100,0,8,,,,,1,,64,100
18724,note_off,,,,,100,0,13,,,,,6,,64,100
18724,note_off,,,,,100,0,10,,,,,3,,64,100
18724,note_off,,,,,100,0,15,,,,,7,,64,100
18724,note_off,,,,,100,0,11,,,,,4,,52,100
18724,note_off,,,,,100,0,14,,,,,6,,52,100
18724,note_off,,,,,100,0,12,,,,,5,,40,100
18724,note_off,,,,,100,0,16,,,,,7,,52,100
18724,note_off,,,,,100,0,9,,,,,2,,64,100
18816,note_on,,,,,92,0,15,,,,,7,,65,100
18816,note_on,,,,,92,0,8,,,,,1,,65,102
18816,note_on,,,,,92,0,11,,,,,4,,53,102
18816,note_on,,,,,92,0,12,,,,,5,,41,102
18816,note_on,,,,,92,0,13,,,,,6,,65,100
18816,note_on,,,,,92,0,16,,,,,7,,53,100
18816,note_on,,,,,92,0,9,,,,,2,,65,102
18816,note_on,,,,,92,0,14,,,,,6,,53,100
18816,note_on,,,,,92,0,10,,,,,3,,65,102
18916,note_off,,,,,100,0,13,,,,,6,,65,100
18916,note_off,,,,,100,0,16,,,,,7,,53,100
18916,note_off,,,,,100,0,10,,,,,3,,65,100
18916,note_off,,,,,100,0,8,,,,,1,,65,100
18916,note_off,,,,,100,0,14,,,,,6,,53,100
18916,note_off,,,,,100,0,9,,,,,2,,65,100
18916,note_off,,,,,100,0,12,,,,,5,,41,100
18916,note_off,,,,,100,0,15,,,,,7,,65,100
18916,note_off,,,,,100,0,11,,,,,4,,53,100
19008,note_on,,,,,92,0,16,,,,,7,,53,100
19008,note_on,,,,,92,0,8,,,,,1,,65,103
19008,note_on,,,,,92,0,14,,,,,6,,53,100
19008,note_on,,,,,92,0,11,,,,,4,,53,103
19008,note_on,,,,,92,0,12,,,,,5,,41,103
19008,note_on,,,,,92,0,9,,,,,2,,65,103
19008,note_on,,,,,92,0,10,,,,,3,,65,103
19008,note_on,,,,,92,0,13,,,,,6,,65,100
19008,note_on,,,,,92,0,15,,,,,7,,65,100
19108,note_off,,,,,100,0,12,,,,,5,,41,100
19108,note_off,,,,,100,0,10,,,,,3,,65,100
19108,note_off,,,,,100,0,11,,,,,4,,53,100
19108,note_off,,,,,100,0,8,,,,,1,,65,100
19108,note_off,,,,,100,0,9,,,,,2,,65,100
19108,note_off,,,,,100,0,16,,,,,7,,53,100
19108,note_off,,,,,100,0,14,,,,,6,,53,100
19108,note_off,,,,,100,0,15,,,,,7,,65,100
19108,note_off,,,,,100,0,13,,,,,6,,65,100
19200,note_on,,,,,92,0,16,,,,,7,,53,100
19200,note_on,,,,,92,0,14,,,,,6,,53,100
19200,note_on,,,,,92,0,10,,,,,3,,65,104
19200,note_on,,,,,92,0,9,,,,,2,,65,104
19200,note_on,,,,,92,0,11,,,,,4,,53,104
19200,note_on,,,,,92,0,15,,,,,7,,65,100
19200,note_on,,,,,92,0,8,,,,,1,,65,104
19200,note_on,,,,,92,0,13,,,,,6,,65,100
19200,note_on,,,,,92,0,12,,,,,5,,41,104
19328,note_off,,,,,128,0,9,,,,,2,,65,100
19328,note_off,,,,,128,0,14,,,,,6,,53,100
19328,note_off,,,,,128,0,15,,,,,7,,65,100
19328,note_off,,,,,128,0,11,,,,,4,,53,100
19328,note_off,,,,,128,0,13,,,,,6,,65,100
19328,note_off,,,,,128,0,12,,,,,5,,41,100
19328,note_off,,,,,128,0,10,,,,,3,,65,100
19328,note_off,,,,,128,0,16,,,,,7,,53,100
19328,note_off,,,,,128,0,8,,,,,1,,65,100
19392,note_on,,,,,64,0,14,,,,,6,,52,100
19392,note_on,,,,,64,0,12,,,,,5,,40,100
19392,note_on,,,,,64,0,13,,,,,6,,64,100
19392,note_on,,,,,64,0,9,,,,,2,,64,100
19392,note_on,,,,,64,0,11,,,,,4,,52,100
19392,note_on,,,,,64,0,10,,,,,3,,64,100
19392,note_on,,,,,64,0,16,,,,,7,,52,100
19392,note_on,,,,,64,0,8,,,,,1,,64,100
19392,note_on,,,,,64,0,15,,,,,7,,64,100
19456,note_off,,,,,64,0,12,,,,,5,,40,100
19456,note_off,,,,,64,0,8,,,,,1,,64,100
19456,note_off,,,,,64,0,15,,,,,7,,64,100
19456,note_off,,,,,64,0,13,,,,,6,,64,100
19456,note_off,,,,,64,0,14,,,,,6,,52,100
19456,note_off,,,,,64,0,9,,,,,2,,64,100
19456,note_off,,,,,64,0,16,,,,,7,,52,100
19456,note_off,,,,,64,0,10,,,,,3,,64,100
19456,note_off,,,,,64,0,11,,,,,4,,52,100
19488,note_on,,,,,32,0,14,,,,,6,,50,100
19488,note_on,,,,,32,0,8,,,,,1,,62,100
19488,note_on,,,,,32,0,16,,,,,7,,50,100
19488,note_on,,,,,32,0,15,,,,,7,,62,100
19488,note_on,,,,,32,0,9,,,,,2,,62,100
19488,note_on,,,,,32,0,12,,,,,5,,38,100
19488,note_on,,,,,32,0,13,,,,,6,,62,100
19488,note_on,,,,,32,0,11,,,,,4,,50,100
19488,note_on,,,,,32,0,10,,,,,3,,62,100
19552,note_off,,,,,64,0,12,,,,,5,,38,100
19552,note_off,,,,,64,0,14,,,,,6,,50,100
19552,note_off,,,,,64,0,16,,,,,7,,50,100
19552,note_off,,,,,64,0,13,,,,,6,,62,100
19552,note_off,,,,,64,0,8,,,,,1,,62,100
19552,note_off,,,,,64,0,11,,,,,4,,50,100
19552,note_off,,,,,64,0,15,,,,,7,,62,100
19552,note_off,,,,,64,0,10,,,,,3,,62,100
19552,note_off,,,,,64,0,9,,,,,2,,62,100
19584,note_on,,,,,32,0,16,,,,,7,,52,100
19584,note_on,,,,,32,0,12,,,,,5,,40,100
19584,note_on,,,,,32,0,14,,,,,6,,52,100
19584,note_on,,,,,32,0,11,,,,,4,,52,100
19584,note_on,,,,,32,0,15,,,,,7,,64,100
19584,note_on,,,,,32,0,8,,,,,1,,64,100
19584,note_on,,,,,32,0,9,,,,,2,,64,100
19584,note_on,,,,,32,0,13,,,,,6,,64,100
19584,note_on,,,,,32,0,10,,,,,3,,64,100
19684,note_off,,,,,100,0,12,,,,,5,,40,100
19684,note_off,,,,,100,0,9,,,,,2,,64,100
19684,note_off,,,,,100,0,15,,,,,7,,64,100
19684,note_off,,,,,100,0,14,,,,,6,,52,100
19684,note_off,,,,,100,0,16,,,,,7,,52,100
19684,note_off,,,,,100,0,13,,,,,6,,64,100
19684,note_off,,,,,100,0,10,,,,,3,,64,100
19684,note_off,,,,,100,0,11,,,,,4,,52,100
19684,note_off,,,,,100,0,8,,,,,1,,64,100
19776,note_on,,,,,92,0,13,,,,,6,,60,100
19776,note_on,,,,,92,0,12,,,,,5,,36,100
19776,note_on,,,,,92,0,9,,,,,2,,60,100
19776,note_on,,,,,92,0,11,,,,,4,,48,100
19776,note_on,,,,,92,0,8,,,,,1,,60,100
19776,note_on,,,,,92,0,15,,,,,7,,60,100
19776,note_on,,,,,92,0,16,,,,,7,,48,100
19776,note_on,,,,,92,0,14,,,,,6,,48,100
19776,note_on,,,,,92,0,10,,,,,3,,60,100
19876,note_off,,,,,100,0,13,,,,,6,,60,100
19876,note_off,,,,,100,0,16,,,,,7,,48,100
19876,note_off,,,,,100,0,8,,,,,1,,60,100
19876,note_off,,,,,100,0,12,,,,,5,,36,100
19876,note_off,,,,,100,0,10,,,,,3,,60,100
19876,note_off,,,,,100,0,15,,,,,7,,60,100
19876,note_off,,,,,100,0,9,,,,,2,,60,100
19876,note_off,,,,,100,0,11,,,,,4,,48,100
19876,note_off,,,,,100,0,14,,,,,6,,48,100
19968,note_on,,,,,92,0,8,,,,,1,,62,100
19968,note_on,,,,,92,0,12,,,,,5,,38,100
19968,note_on,,,,,92,0,16,,,,,7,,50,100
19968,note_on,,,,,92,0,14,,,,,6,,50,100
19968,note_on,,,,,92,0,15,,,,,7,,62,100
19968,note_on,,,,,92,0,11,,,,,4,,50,100
19968,note_on,,,,,92,0,9,,,,,2,,62,100
19968,note_on,,,,,92,0,13,,,,,6,,62,100
19968,note_on,,,,,92,0,10,,,,,3,,62,100
20048,note_off,,,,,80,0,16,,,,,7,,50,100
20048,note_off,,,,,80,0,9,,,,,2,,62,100
20048,note_off,,,,,80,0,8,,,,,1,,62,100
20048,note_off,,,,,80,0,12,,,,,5,,38,100
20048,note_off,,,,,80,0,13,,,,,6,,62,100
20048,note_off,,,,,80,0,11,,,,,4,,50,100
20048,note_off,,,,,80,0,15,,,,,7,,62,100
20048,note_off,,,,,80,0,14,,,,,6,,50,100
20048,note_off,,,,,80,0,10,,,,,3,,62,100
20160,note_on,,,,,112,0,8,,,,,1,,59,99
20160,note_on,,,,,112,0,14,,,,,6,,47,100
20160,note_on,,,,,112,0,12,,,,,5,,35,99
20160,note_on,,,,,112,0,10,,,,,3,,59,99
20160,note_on,,,,,112,0,9,,,,,2,,59,99
20160,note_on,,,,,112,0,15,,,,,7,,59,100
20160,note_on,,,,,112,0,13,,,,,6,,59,100
20160,note_on,,,,,112,0,11,,,,,4,,47,99
20160,note_on,,,,,112,0,16,,,,,7,,47,100
20240,note_off,,,,,80,0,16,,,,,7,,47,100
20240,note_off,,,,,80,0,8,,,,,1,,59,100
20240,note_off,,,,,80,0,11,,,,,4,,47,100
20240,note_off,,,,,80,0,14,,,,,6,,47,100
20240,note_off,,,,,80,0,9,,,,,2,,59,100
20240,note_off,,,,,80,0,15,,,,,7,,59,100
20240,note_off,,,,,80,0,12,,,,,5,,35,100
20240,note_off,,,,,80,0,10,,,,,3,,59,100
20240,note_off,,,,,80,0,13,,,,,6,,59,100
20352,note_on,,,,,112,0,14,,,,,6,,52,100
20352,note_on,,,,,112,0,11,,,,,4,,52,98
20352,note_on,,,,,112,0,10,,,,,3,,64,98
20352,note_on,,,,,112,0,16,,,,,7,,52,100
20352,note_on,,,,,112,0,12,,,,,5,,40,98
20352,note_on,,,,,112,0,8,,,,,1,,64,98
20352,note_on,,,,,112,0,13,,,,,6,,64,100
20352,note_on,,,,,112,0,9,,,,,2,,64,98
20352,note_on,,,,,112,0,15,,,,,7,,64,100
20432,note_off,,,,,80,0,12,,,,,5,,40,100
20432,note_off,,,,,80,0,13,,,,,6,,64,100
20432,note_off,,,,,80,0,11,,,,,4,,52,100
20432,note_off,,,,,80,0,14,,,,,6,,52,100
20432,note_off,,,,,80,0,16,,,,,7,,52,100
20432,note_off,,,,,80,0,9,,,,,2,,64,100
20432,note_off,,,,,80,0,15,,,,,7,,64,100
20432,note_off,,,,,80,0,10,,,,,3,,64,100
20432,note_off,,,,,80,0,8,,,,,1,,64,100
20544,note_on,,,,,112,0,12,,,,,5,,40,97
20544,note_on,,,,,112,0,13,,,,,6,,64,100
20544,note_on,,,,,112,0,14,,,,,6,,52,100
20544,note_on,,,,,112,0,10,,,,,3,,64,97
20544,note_on,,,,,112,0,11,,,,,4,,52,97
20544,note_on,,,,,112,0,9,,,,,2,,64,97
20544,note_on,,,,,112,0,15,,,,,7,,64,100
20544,note_on,,,,,112,0,8,,,,,1,,64,97
20544,note_on,,,,,112,0,16,,,,,7,,52,100
20624,note_off,,,,,80,0,14,,,,,6,,52,100
20624,note_off,,,,,80,0,10,,,,,3,,64,100
20624,note_off,,,,,80,0,9,,,,,2,,64,100
20624,note_off,,,,,80,0,8,,,,,1,,64,100
20624,note_off,,,,,80,0,16,,,,,7,,52,100
20624,note_off,,,,,80,0,13,,,,,6,,64,100
20624,note_off,,,,,80,0,15,,,,,7,,64,100
20624,note_off,,,,,80,0,11,,,,,4,,52,100
20624,note_off,,,,,80,0,12,,,,,5,,40,100
20732,program_change,,,,,108,0,11,,,,,4,42,,
20736,note_on,,,,,112,0,14,,,,,6,,45,100
20736,note_on,,,,,112,0,15,,,,,7,,57,100
20736,note_on,,,,,112,0,10,,,,,3,,57,96
20736,note_on,,,,,112,0,9,,,,,2,,57,96
20736,note_on,,,,,112,0,12,,,,,5,,33,96
20736,note_on,,,,,4,0,11,,,,,4,,45,96
20736,note_on,,,,,112,0,13,,,,,6,,57,100
20736,note_on,,,,,112,0,8,,,,,1,,57,96
20736,note_on,,,,,112,0,16,,,,,7,,45,100
20836,note_off,,,,,100,0,11,,,,,4,,45,100
20836,note_off,,,,,100,0,14,,,,,6,,45,100
20928,note_on,,,,,92,0,11,,,,,4,,45,85
20928,note_on,,,,,92,0,14,,,,,6,,45,100
20992,note_off,,,,,256,0,8,,,,,1,,57,100
20992,note_off,,,,,256,0,16,,,,,7,,45,100
20992,note_off,,,,,256,0,12,,,,,5,,33,100
20992,note_off,,,,,256,0,9,,,,,2,,57,100
20992,note_off,,,,,256,0,10,,,,,3,,57,100
20992,note_off,,,,,256,0,15,,,,,7,,57,100
20992,note_off,,,,,64,0,11,,,,,4,,45,100
20992,note_off,,,,,64,0,14,,,,,6,,45,100
20992,note_off,,,,,256,0,13,,,,,6,,57,100
21024,note_on,,,,,32,0,14,,,,,6,,47,100
21024,note_on,,,,,32,0,11,,,,,4,,47,85
21088,note_off,,,,,64,0,11,,,,,4,,47,100
21088,note_off,,,,,64,0,14,,,,,6,,47,100
21120,note_on,,,,,32,0,11,,,,,4,,48,85
21120,note_on,,,,,32,0,14,,,,,6,,48,100
21220,note_off,,,,,100,0,11,,,,,4,,48,100
21220,note_off,,,,,100,0,14,,,,,6,,48,100
21312,note_on,,,,,3136,0,7,,,,,0,,76,100
21312,note_on,,,,,92,0,14,,,,,6,,47,100
21312,note_on,,,,,92,0,11,,,,,4,,47,85
21312,note_on,,,,,320,0,13,,,,,6,,71,100
21392,note_off,,,,,80,0,7,,,,,0,,76,100
21412,note_off,,,,,100,0,11,,,,,4,,47,100
21412,note_off,,,,,100,0,14,,,,,6,,47,100
21412,note_off,,,,,100,0,13,,,,,6,,71,100
21504,note_on,,,,,92,0,11,,,,,4,,45,85
21504,note_on,,,,,112,0,7,,,,,0,,69,100
21504,note_on,,,,,92,0,13,,,,,6,,72,100
21504,note_on,,,,,0,0,13,,,,,6,,64,100
21504,note_on,,,,,92,0,14,,,,,6,,45,100
21568,note_off,,,,,64,0,7,,,,,0,,69,100
21600,note_on,,,,,32,0,7,,,,,0,,72,100
21604,note_off,,,,,0,0,13,,,,,6,,64,100
21604,note_off,,,,,100,0,11,,,,,4,,45,100
21604,note_off,,,,,100,0,13,,,,,6,,72,100
21604,note_off,,,,,100,0,14,,,,,6,,45,100
21664,note_off,,,,,64,0,7,,,,,0,,72,100
21696,note_on,,,,,92,0,13,,,,,6,,59,100
21696,note_on,,,,,92,0,14,,,,,6,,52,100
21696,note_on,,,,,0,0,13,,,,,6,,68,100
21696,note_on,,,,,32,0,7,,,,,0,,71,100
21696,note_on,,,,,92,0,11,,,,,4,,52,85
21760,note_off,,,,,64,0,7,,,,,0,,71,100
21792,note_on,,,,,32,0,7,,,,,0,,72,100
21796,note_off,,,,,0,0,13,,,,,6,,68,100
21796,note_off,,,,,100,0,14,,,,,6,,52,100
21796,note_off,,,,,100,0,11,,,,,4,,52,100
21796,note_off,,,,,100,0,13,,,,,6,,59,100
21856,note_off,,,,,64,0,7,,,,,0,,72,100
21888,note_on,,,,,92,0,11,,,,,4,,48,85
21888,note_on,,,,,92,0,13,,,,,6,,64,100
21888,note_on,,,,,32,0,7,,,,,0,,69,100
21888,note_on,,,,,92,0,14,,,,,6,,48,100
21888,note_on,,,,,0,0,13,,,,,6,,69,100
21988,note_off,,,,,0,0,13,,,,,6,,69,100
21988,note_off,,,,,100,0,7,,,,,0,,69,100
21988,note_off,,,,,100,0,14,,,,,6,,48,100
21988,note_off,,,,,100,0,13,,,,,6,,64,100
21988,note_off,,,,,100,0,11,,,,,4,,48,100
22080,note_on,,,,,92,0,11,,,,,4,,47,85
22080,note_on,,,,,92,0,13,,,,,6,,71,100
22080,note_on,,,,,92,0,14,,,,,6,,47,100
22080,note_on,,,,,92,0,7,,,,,0,,81,85
22180,note_off,,,,,100,0,14,,,,,6,,47,100
22180,note_off,,,,,100,0,11,,,,,4,,47,100
22180,note_off,,,,,100,0,7,,,,,0,,81,100
22180,note_off,,,,,100,0,13,,,,,6,,71,100
22272,note_on,,,,,92,0,7,,,,,0,,69,85
22272,note_on,,,,,92,0,11,,,,,4,,45,85
22272,note_on,,,,,92,0,13,,,,,6,,72,100
22272,note_on,,,,,92,0,14,,,,,6,,45,100
22272,note_on,,,,,0,0,13,,,,,6,,64,100
22336,note_off,,,,,64,0,7,,,,,0,,69,100
22368,note_on,,,,,32,0,7,,,,,0,,72,85
22372,note_off,,,,,100,0,11,,,,,4,,45,100
22372,note_off,,,,,100,0,13,,,,,6,,72,100
22372,note_off,,,,,0,0,13,,,,,6,,64,100
22372,note_off,,,,,100,0,14,,,,,6,,45,100
22432,note_off,,,,,64,0,7,,,,,0,,72,100
22464,note_on,,,,,92,0,13,,,,,6,,59,100
22464,note_on,,,,,0,0,13,,,,,6,,68,100
22464,note_on,,,,,32,0,7,,,,,0,,71,85
22464,note_on,,,,,92,0,14,,,,,6,,52,100
22464,note_on,,,,,92,0,11,,,,,4,,52,85
22528,note_off,,,,,64,0,7,,,,,0,,71,100
22560,note_on,,,,,32,0,7,,,,,0,,72,87
22564,note_off,,,,,100,0,13,,,,,6,,59,100
22564,note_off,,,,,100,0,11,,,,,4,,52,100
22564,note_off,,,,,0,0,13,,,,,6,,68,100
22564,note_off,,,,,100,0,14,,,,,6,,52,100
22624,note_off,,,,,64,0,7,,,,,0,,72,100
22656,note_on,,,,,92,0,14,,,,,6,,48,100
22656,note_on,,,,,0,0,13,,,,,6,,69,100
22656,note_on,,,,,32,0,7,,,,,0,,69,90
22656,note_on,,,,,92,0,13,,,,,6,,64,100
22656,note_on,,,,,92,0,11,,,,,4,,48,85
22756,note_off,,,,,100,0,7,,,,,0,,69,100
22756,note_off,,,,,100,0,11,,,,,4,,48,100
22756,note_off,,,,,0,0,13,,,,,6,,69,100
22756,note_off,,,,,100,0,14,,,,,6,,48,100
22756,note_off,,,,,100,0,13,,,,,6,,64,100
22848,note_on,,,,,92,0,14,,,,,6,,45,100
22848,note_on,,,,,92,0,13,,,,,6,,72,100
22848,note_on,,,,,92,0,11,,,,,4,,45,85
22848,note_on,,,,,0,0,13,,,,,6,,76,100
22848,note_on,,,,,92,0,7,,,,,0,,81,96
22948,note_off,,,,,100,0,11,,,,,4,,45,100
22948,note_off,,,,,100,0,13,,,,,6,,72,100
22948,note_off,,,,,100,0,7,,,,,0,,81,100
22948,note_off,,,,,0,0,13,,,,,6,,76,100
22948,note_off,,,,,100,0,14,,,,,6,,45,100
23040,note_on,,,,,92,0,14,,,,,6,,50,100
23040,note_on,,,,,92,0,7,,,,,0,,81,101
23040,note_on,,,,,92,0,13,,,,,6,,69,100
23040,note_on,,,,,92,0,11,,,,,4,,50,85
23040,note_on,,,,,0,0,13,,,,,6,,77,100
23132,note_off,,,,,92,0,7,,,,,0,,81,100
23136,note_on,,,,,4,0,7,,,,,0,,77,100
23140,note_off,,,,,100,0,11,,,,,4,,50,100
23140,note_off,,,,,100,0,14,,,,,6,,50,100
23140,note_off,,,,,0,0,13,,,,,6,,77,100
23140,note_off,,,,,100,0,13,,,,,6,,69,100
23200,note_off,,,,,64,0,7,,,,,0,,77,100
23232,note_on,,,,,92,0,11,,,,,4,,62,85
23232,note_on,,,,,32,0,7,,,,,0,,79,100
23232,note_on,,,,,92,0,14,,,,,6,,62,100
23232,note_on,,,,,92,0,13,,,,,6,,69,100
23232,note_on,,,,,0,0,13,,,,,6,,76,100
23324,note_off,,,,,92,0,7,,,,,0,,79,100
23328,note_on,,,,,4,0,7,,,,,0,,76,100
23332,note_off,,,,,100,0,13,,,,,6,,69,100
23332,note_off,,,,,100,0,14,,,,,6,,62,100
23332,note_off,,,,,100,0,11,,,,,4,,62,100
23332,note_off,,,,,0,0,13,,,,,6,,76,100
23392,note_off,,,,,64,0,7,,,,,0,,76,100
23424,note_on,,,,,92,0,14,,,,,6,,50,100
23424,note_on,,,,,0,0,13,,,,,6,,74,100
23424,note_on,,,,,92,0,11,,,,,4,,50,85
23424,note_on,,,,,32,0,7,,,,,0,,77,100
23424,note_on,,,,,92,0,13,,,,,6,,69,100
23516,note_off,,,,,92,0,7,,,,,0,,77,100
23520,note_on,,,,,4,0,7,,,,,0,,74,100
23524,note_off,,,,,0,0,13,,,,,6,,74,100
23524,note_off,,,,,100,0,13,,,,,6,,69,100
23524,note_off,,,,,100,0,11,,,,,4,,50,100
23524,note_off,,,,,100,0,14,,,,,6,,50,100
23584,note_off,,,,,64,0,7,,,,,0,,74,100
23616,note_on,,,,,92,0,11,,,,,4,,62,85
23616,note_on,,,,,92,0,13,,,,,6,,69,100
23616,note_on,,,,,92,0,14,,,,,6,,62,100
23616,note_on,,,,,32,0,7,,,,,0,,76,100
23616,note_on,,,,,0,0,13,,,,,6,,72,100
23708,note_off,,,,,92,0,7,,,,,0,,76,100
23712,note_on,,,,,4,0,7,,,,,0,,72,100
23716,note_off,,,,,0,0,13,,,,,6,,72,100
23716,note_off,,,,,100,0,13,,,,,6,,69,100
23716,note_off,,,,,100,0,14,,,,,6,,62,100
23716,note_off,,,,,100,0,11,,,,,4,,62,100
23776,note_off,,,,,64,0,7,,,,,0,,72,100
23808,note_on,,,,,92,0,13,,,,,6,,65,100
23808,note_on,,,,,92,0,14,,,,,6,,50,100
23808,note_on,,,,,92,0,11,,,,,4,,50,85
23808,note_on,,,,,0,0,13,,,,,6,,71,100
23808,note_on,,,,,32,0,7,,,,,0,,74,100
23900,note_off,,,,,92,0,7,,,,,0,,74,100
23904,note_on,,,,,4,0,7,,,,,0,,71,100
23968,note_off,,,,,64,0,7,,,,,0,,71,100
24000,note_on,,,,,32,0,7,,,,,0,,72,100
24064,note_off,,,,,256,0,11,,,,,4,,50,100
24064,note_off,,,,,256,0,14,,,,,6,,50,100
24064,note_off,,,,,0,0,13,,,,,6,,71,100
24064,note_off,,,,,256,0,13,,,,,6,,65,100
24092,note_off,,,,,92,0,7,,,,,0,,72,100
24096,note_on,,,,,4,0,7,,,,,0,,69,100
24160,note_off,,,,,64,0,7,,,,,0,,69,100
24192,note_on,,,,,32,0,7,,,,,0,,71,100
24284,note_off,,,,,92,0,7,,,,,0,,71,100
24288,note_on,,,,,4,0,7,,,,,0,,68,100
24352,note_off,,,,,64,0,7,,,,,0,,68,100
24384,note_on,,,,,32,0,7,,,,,0,,69,100
24476,note_off,,,,,92,0,7,,,,,0,,69,100
24480,note_on,,,,,4,0,7,,,,,0,,66,100
24544,note_off,,,,,64,0,7,,,,,0,,66,100
24576,note_on,,,,,512,0,11,,,,,4,,52,85
24576,note_on,,,,,0,0,13,,,,,6,,59,100
24576,note_on,,,,,512,0,14,,,,,6,,52,100
24576,note_on,,,,,32,0,7,,,,,0,,64,100
24576,note_on,,,,,512,0,13,,,,,6,,68,100
24676,note_off,,,,,100,0,14,,,,,6,,52,100
24676,note_off,,,,,100,0,11,,,,,4,,52,100
24768,note_on,,,,,92,0,14,,,,,6,,64,100
24768,note_on,,,,,92,0,11,,,,,4,,64,85
24832,note_off,,,,,256,0,7,,,,,0,,64,100
24868,note_off,,,,,100,0,11,,,,,4,,64,100
24868,note_off,,,,,100,0,14,,,,,6,,64,100
24960,note_on,,,,,92,0,11,,,,,4,,52,85
24960,note_on,,,,,92,0,14,,,,,6,,52,100
25060,note_off,,,,,100,0,14,,,,,6,,52,100
25060,note_off,,,,,100,0,11,,,,,4,,52,100
25088,note_off,,,,,0,0,13,,,,,6,,59,100
25088,note_off,,,,,512,0,13,,,,,6,,68,100
25152,note_on,,,,,92,0,11,,,,,4,,64,85
25152,note_on,,,,,92,0,14,,,,,6,,64,100
25152,note_on,,,,,320,0,7,,,,,0,,64,92
25216,note_off,,,,,64,0,7,,,,,0,,64,100
25248,note_on,,,,,32,0,7,,,,,0,,66,92
25252,note_off,,,,,100,0,14,,,,,6,,64,100
25252,note_off,,,,,100,0,11,,,,,4,,64,100
25312,note_off,,,,,64,0,7,,,,,0,,66,100
25344,note_on,,,,,0,0,13,,,,,6,,68,100
25344,note_on,,,,,256,0,13,,,,,6,,71,100
25344,note_on,,,,,92,0,14,,,,,6,,52,100
25344,note_on,,,,,32,0,7,,,,,0,,68,93
25344,note_on,,,,,92,0,11,,,,,4,,52,85
25408,note_off,,,,,64,0,7,,,,,0,,68,100
25440,note_on,,,,,32,0,7,,,,,0,,69,94
25504,note_off,,,,,64,0,7,,,,,0,,69,100
25536,note_on,,,,,32,0,7,,,,,0,,71,95
25600,note_off,,,,,64,0,7,,,,,0,,71,100
25600,note_off,,,,,256,0,13,,,,,6,,71,100
25600,note_off,,,,,256,0,14,,,,,6,,52,100
25600,note_off,,,,,256,0,11,,,,,4,,52,100
25600,note_off,,,,,0,0,13,,,,,6,,68,100
25632,note_on,,,,,32,0,7,,,,,0,,72,95
25696,note_off,,,,,64,0,7,,,,,0,,72,100
25728,note_on,,,,,32,0,7,,,,,0,,74,96
25828,note_off,,,,,100,0,7,,,,,0,,74,100
25920,note_on,,,,,92,0,7,,,,,0,,71,98
25920,note_on,,,,,320,0,13,,,,,6,,74,100
25920,note_on,,,,,0,0,13,,,,,6,,68,100
25920,note_on,,,,,0,0,13,,,,,6,,71,100
25920,note_on,,,,,320,0,11,,,,,4,,52,85
25920,note_on,,,,,320,0,14,,,,,6,,52,100
26020,note_off,,,,,100,0,14,,,,,6,,52,100
26020,note_off,,,,,100,0,11,,,,,4,,52,100
26020,note_off,,,,,100,0,13,,,,,6,,74,100
26020,note_off,,,,,0,0,13,,,,,6,,68,100
26020,note_off,,,,,0,0,13,,,,,6,,71,100
26020,note_off,,,,,100,0,7,,,,,0,,71,100
26112,note_on,,,,,92,0,7,,,,,0,,72,100
26112,note_on,,,,,92,0,14,,,,,6,,45,100
26112,note_on,,,,,92,0,11,,,,,4,,45,85
26112,note_on,,,,,92,0,13,,,,,6,,64,100
26112,note_on,,,,,0,0,13,,,,,6,,69,100
26112,note_on,,,,,0,0,13,,,,,6,,72,100
26212,note_off,,,,,100,0,14,,,,,6,,45,100
26212,note_off,,,,,100,0,11,,,,,4,,45,100
26300,note_off,,,,,188,0,7,,,,,0,,72,100
26304,note_on,,,,,92,0,11,,,,,4,,57,85
26304,note_on,,,,,4,0,7,,,,,0,,71,98
26304,note_on,,,,,92,0,14,,,,,6,,57,100
26404,note_off,,,,,100,0,14,,,,,6,,57,100
26404,note_off,,,,,100,0,11,,,,,4,,57,100
26492,note_off,,,,,188,0,7,,,,,0,,71,100
26496,note_on,,,,,92,0,11,,,,,4,,45,85
26496,note_on,,,,,92,0,14,,,,,6,,45,100
26496,note_on,,,,,4,0,7,,,,,0,,69,96
26596,note_off,,,,,100,0,11,,,,,4,,45,100
26596,note_off,,,,,100,0,14,,,,,6,,45,100
26624,note_off,,,,,0,0,13,,,,,6,,69,100
26624,note_off,,,,,128,0,7,,,,,0,,69,100
26624,note_off,,,,,0,0,13,,,,,6,,72,100
26624,note_off,,,,,512,0,13,,,,,6,,64,100
26688,note_on,,,,,64,0,7,,,,,0,,69,95
26688,note_on,,,,,92,0,14,,,,,6,,57,100
26688,note_on,,,,,92,0,11,,,,,4,,57,85
26752,note_off,,,,,64,0,7,,,,,0,,69,100
26784,note_on,,,,,32,0,7,,,,,0,,71,95
26788,note_off,,,,,100,0,14,,,,,6,,57,100
26788,note_off,,,,,100,0,11,,,,,4,,57,100
26848,note_off,,,,,64,0,7,,,,,0,,71,100
26880,note_on,,,,,256,0,13,,,,,6,,69,100
26880,note_on,,,,,92,0,11,,,,,4,,45,85
26880,note_on,,,,,0,0,13,,,,,6,,76,100
26880,note_on,,,,,0,0,13,,,,,6,,73,100
26880,note_on,,,,,32,0,7,,,,,0,,73,96
26880,note_on,,,,,92,0,14,,,,,6,,45,100
26944,note_off,,,,,64,0,7,,,,,0,,73,100
26976,note_on,,,,,32,0,7,,,,,0,,74,97
27040,note_off,,,,,64,0,7,,,,,0,,74,100
27072,note_on,,,,,32,0,7,,,,,0,,76,98
27136,note_off,,,,,64,0,7,,,,,0,,76,100
27136,note_off,,,,,256,0,14,,,,,6,,45,100
27136,note_off,,,,,256,0,13,,,,,6,,69,100
27136,note_off,,,,,0,0,13,,,,,6,,73,100
27136,note_off,,,,,0,0,13,,,,,6,,76,100
27136,note_off,,,,,256,0,11,,,,,4,,45,100
27168,note_on,,,,,32,0,7,,,,,0,,77,98
27232,note_off,,,,,64,0,7,,,,,0,,77,100
27264,note_on,,,,,32,0,7,,,,,0,,79,99
27364,note_off,,,,,100,0,7,,,,,0,,79,100
27456,note_on,,,,,320,0,13,,,,,6,,73,100
27456,note_on,,,,,0,0,13,,,,,6,,76,100
27456,note_on,,,,,92,0,7,,,,,0,,76,101
27456,note_on,,,,,320,0,11,,,,,4,,57,85
27456,note_on,,,,,0,0,13,,,,,6,,79,100
27456,note_on,,,,,320,0,14,,,,,6,,57,100
27556,note_off,,,,,100,0,14,,,,,6,,57,100
27556,note_off,,,,,100,0,7,,,,,0,,76,100
27556,note_off,,,,,100,0,11,,,,,4,,57,100
27584,note_off,,,,,128,0,13,,,,,6,,73,100
27584,note_off,,,,,0,0,13,,,,,6,,76,100
27584,note_off,,,,,0,0,13,,,,,6,,79,100
27648,note_on,,,,,92,0,14,,,,,6,,50,100
27648,note_on,,,,,92,0,11,,,,,4,,50,85
27648,note_on,,,,,92,0,7,,,,,0,,77,103
27648,note_on,,,,,64,0,13,,,,,6,,69,100
27648,note_on,,,,,0,0,13,,,,,6,,74,100
27648,note_on,,,,,0,0,13,,,,,6,,77,100
27748,note_off,,,,,100,0,14,,,,,6,,50,100
27748,note_off,,,,,100,0,11,,,,,4,,50,100
27836,note_off,,,,,188,0,7,,,,,0,,77,100
27840,note_on,,,,,92,0,11,,,,,4,,62,85
27840,note_on,,,,,4,0,7,,,,,0,,76,101
27840,note_on,,,,,92,0,14,,,,,6,,62,100
27904,note_off,,,,,256,0,13,,,,,6,,69,100
27904,note_off,,,,,0,0,13,,,,,6,,77,100
27904,note_off,,,,,0,0,13,,,,,6,,74,100
27940,note_off,,,,,100,0,11,,,,,4,,62,100
27940,note_off,,,,,100,0,14,,,,,6,,62,100
28028,note_off,,,,,188,0,7,,,,,0,,76,100
28032,note_on,,,,,92,0,11,,,,,4,,50,85
28032,note_on,,,,,92,0,14,,,,,6,,50,100
28032,note_on,,,,,128,0,13,,,,,6,,74,100
28032,note_on,,,,,4,0,7,,,,,0,,74,98
28032,note_on,,,,,0,0,13,,,,,6,,69,100
28032,note_on,,,,,0,0,13,,,,,6,,65,100
28132,note_off,,,,,100,0,14,,,,,6,,50,100
28132,note_off,,,,,100,0,11,,,,,4,,50,100
28160,note_off,,,,,128,0,7,,,,,0,,74,100
28224,note_on,,,,,92,0,11,,,,,4,,62,85
28224,note_on,,,,,92,0,14,,,,,6,,62,100
28224,note_on,,,,,64,0,7,,,,,0,,77,100
28288,note_off,,,,,256,0,13,,,,,6,,74,100
28288,note_off,,,,,0,0,13,,,,,6,,65,100
28288,note_off,,,,,0,0,13,,,,,6,,69,100
28324,note_off,,,,,100,0,7,,,,,0,,77,100
28324,note_off,,,,,100,0,14,,,,,6,,62,100
28324,note_off,,,,,100,0,11,,,,,4,,62,100
28416,note_on,,,,,92,0,11,,,,,4,,43,85
28416,note_on,,,,,128,0,13,,,,,6,,67,100
28416,note_on,,,,,0,0,13,,,,,6,,70,100
28416,note_on,,,,,0,0,13,,,,,6,,63,100
28416,note_on,,,,,92,0,7,,,,,0,,75,100
28416,note_on,,,,,92,0,14,,,,,6,,43,100
28480,note_off,,,,,64,0,7,,,,,0,,75,100
28512,note_on,,,,,32,0,7,,,,,0,,77,100
28516,note_off,,,,,100,0,11,,,,,4,,43,100
28516,note_off,,,,,100,0,14,,,,,6,,43,100
28576,note_off,,,,,64,0,7,,,,,0,,77,100
28608,note_on,,,,,92,0,11,,,,,4,,55,85
28608,note_on,,,,,32,0,7,,,,,0,,79,100
28608,note_on,,,,,92,0,14,,,,,6,,55,100
28672,note_off,,,,,0,0,13,,,,,6,,70,100
28672,note_off,,,,,0,0,13,,,,,6,,63,100
28672,note_off,,,,,64,0,7,,,,,0,,79,100
28672,note_off,,,,,256,0,13,,,,,6,,67,100
28704,note_on,,,,,32,0,7,,,,,0,,81,100
28708,note_off,,,,,100,0,11,,,,,4,,55,100
28708,note_off,,,,,100,0,14,,,,,6,,55,100
28768,note_off,,,,,64,0,7,,,,,0,,81,100
28800,note_on,,,,,32,0,7,,,,,0,,82,101
28800,note_on,,,,,92,0,14,,,,,6,,43,100
28800,note_on,,,,,92,0,11,,,,,4,,43,85
28800,note_on,,,,,128,0,13,,,,,6,,67,100
28800,note_on,,,,,0,0,13,,,,,6,,70,100
28800,note_on,,,,,0,0,13,,,,,6,,63,100
28900,note_off,,,,,100,0,14,,,,,6,,43,100
28900,note_off,,,,,100,0,11,,,,,4,,43,100
28900,note_off,,,,,100,0,7,,,,,0,,82,100
28992,note_on,,,,,92,0,14,,,,,6,,55,100
28992,note_on,,,,,92,0,11,,,,,4,,55,85
28992,note_on,,,,,92,0,7,,,,,0,,70,100
29056,note_off,,,,,0,0,13,,,,,6,,63,100
29056,note_off,,,,,256,0,13,,,,,6,,67,100
29056,note_off,,,,,0,0,13,,,,,6,,70,100
29092,note_off,,,,,100,0,7,,,,,0,,70,100
29092,note_off,,,,,100,0,11,,,,,4,,55,100
29092,note_off,,,,,100,0,14,,,,,6,,55,100
29184,note_on,,,,,92,0,7,,,,,0,,70,98
29184,note_on,,,,,0,0,13,,,,,6,,69,100
29184,note_on,,,,,92,0,11,,,,,4,,41,85
29184,note_on,,,,,0,0,13,,,,,6,,65,100
29184,note_on,,,,,128,0,13,,,,,6,,62,100
29184,note_on,,,,,92,0,14,,,,,6,,41,100
29284,note_off,,,,,100,0,11,,,,,4,,41,100
29284,note_off,,,,,100,0,14,,,,,6,,41,100
29372,note_off,,,,,188,0,7,,,,,0,,70,100
29376,note_on,,,,,4,0,7,,,,,0,,69,97
29376,note_on,,,,,92,0,11,,,,,4,,53,85
29376,note_on,,,,,92,0,14,,,,,6,,53,100
29440,note_off,,,,,256,0,13,,,,,6,,62,100
29440,note_off,,,,,0,0,13,,,,,6,,65,100
29440,note_off,,,,,0,0,13,,,,,6,,69,100
29476,note_off,,,,,100,0,14,,,,,6,,53,100
29476,note_off,,,,,100,0,11,,,,,4,,53,100
29568,note_on,,,,,128,0,13,,,,,6,,62,100
29568,note_on,,,,,0,0,13,,,,,6,,65,100
29568,note_on,,,,,0,0,13,,,,,6,,69,100
29568,note_on,,,,,92,0,14,,,,,6,,41,100
29568,note_on,,,,,92,0,11,,,,,4,,41,85
29632,note_off,,,,,256,0,7,,,,,0,,69,100
29668,note_off,,,,,100,0,14,,,,,6,,41,100
29668,note_off,,,,,100,0,11,,,,,4,,41,100
29760,note_on,,,,,92,0,14,,,,,6,,53,100
29760,note_on,,,,,128,0,7,,,,,0,,77,95
29760,note_on,,,,,92,0,11,,,,,4,,53,85
29824,note_off,,,,,256,0,13,,,,,6,,62,100
29824,note_off,,,,,0,0,13,,,,,6,,65,100
29824,note_off,,,,,0,0,13,,,,,6,,69,100
29860,note_off,,,,,100,0,14,,,,,6,,53,100
29860,note_off,,,,,100,0,11,,,,,4,,53,100
29860,note_off,,,,,100,0,7,,,,,0,,77,100
29952,note_on,,,,,92,0,11,,,,,4,,43,85
29952,note_on,,,,,92,0,14,,,,,6,,43,100
29952,note_on,,,,,92,0,7,,,,,0,,75,96
29952,note_on,,,,,0,0,13,,,,,6,,63,100
29952,note_on,,,,,0,0,13,,,,,6,,70,100
29952,note_on,,,,,128,0,13,,,,,6,,67,100
30016,note_off,,,,,64,0,7,,,,,0,,75,100
30048,note_on,,,,,32,0,7,,,,,0,,77,97
30052,note_off,,,,,100,0,11,,,,,4,,43,100
30052,note_off,,,,,100,0,14,,,,,6,,43,100
30112,note_off,,,,,64,0,7,,,,,0,,77,100
30144,note_on,,,,,92,0,11,,,,,4,,55,85
30144,note_on,,,,,32,0,7,,,,,0,,79,98
30144,note_on,,,,,92,0,14,,,,,6,,55,100
30208,note_off,,,,,0,0,13,,,,,6,,70,100
30208,note_off,,,,,64,0,7,,,,,0,,79,100
30208,note_off,,,,,256,0,13,,,,,6,,67,100
30208,note_off,,,,,0,0,13,,,,,6,,63,100
30240,note_on,,,,,32,0,7,,,,,0,,81,99
30244,note_off,,,,,100,0,11,,,,,4,,55,100
30244,note_off,,,,,100,0,14,,,,,6,,55,100
30304,note_off,,,,,64,0,7,,,,,0,,81,100
30336,note_on,,,,,128,0,13,,,,,6,,67,100
30336,note_on,,,,,0,0,13,,,,,6,,70,100
30336,note_on,,,,,0,0,13,,,,,6,,63,100
30336,note_on,,,,,92,0,14,,,,,6,,43,100
30336,note_on,,,,,92,0,11,,,,,4,,43,85
30336,note_on,,,,,32,0,7,,,,,0,,82,100
30436,note_off,,,,,100,0,14,,,,,6,,43,100
30436,note_off,,,,,100,0,11,,,,,4,,43,100
30436,note_off,,,,,100,0,7,,,,,0,,82,100
30528,note_on,,,,,92,0,14,,,,,6,,55,100
30528,note_on,,,,,92,0,11,,,,,4,,55,85
30528,note_on,,,,,92,0,7,,,,,0,,73,100
30592,note_off,,,,,0,0,13,,,,,6,,70,100
30592,note_off,,,,,0,0,13,,,,,6,,63,100
30592,note_off,,,,,256,0,13,,,,,6,,67,100
30628,note_off,,,,,100,0,11,,,,,4,,55,100
30628,note_off,,,,,100,0,7,,,,,0,,73,100
30628,note_off,,,,,100,0,14,,,,,6,,55,100
30720,note_on,,,,,128,0,13,,,,,6,,73,100
30720,note_on,,,,,0,0,13,,,,,6,,64,100
30720,note_on,,,,,92,0,14,,,,,6,,45,100
30720,note_on,,,,,92,0,11,,,,,4,,45,85
30720,note_on,,,,,0,0,13,,,,,6,,67,100
30720,note_on,,,,,92,0,7,,,,,0,,67,100
30820,note_off,,,,,100,0,11,,,,,4,,45,100
30820,note_off,,,,,100,0,14,,,,,6,,45,100
30912,note_on,,,,,92,0,14,,,,,6,,57,100
30912,note_on,,,,,92,0,11,,,,,4,,57,85
31012,note_off,,,,,100,0,11,,,,,4,,57,100
31012,note_off,,,,,100,0,14,,,,,6,,57,100
31104,note_on,,,,,92,0,11,,,,,4,,45,85
31104,note_on,,,,,92,0,14,,,,,6,,45,100
31180,note_off,,,,,460,0,7,,,,,0,,67,100
31200,note_on,,,,,20,0,7,,,,,0,,70,95
31204,note_off,,,,,100,0,11,,,,,4,,45,100
31204,note_off,,,,,100,0,14,,,,,6,,45,100
31232,note_off,,,,,512,0,13,,,,,6,,73,100
31232,note_off,,,,,0,0,13,,,,,6,,64,100
31232,note_off,,,,,0,0,13,,,,,6,,67,100
31264,note_off,,,,,64,0,7,,,,,0,,70,100
31296,note_on,,,,,92,0,14,,,,,6,,57,100
31296,note_on,,,,,92,0,11,,,,,4,,57,85
31296,note_on,,,,,32,0,7,,,,,0,,69,95
31360,note_off,,,,,64,0,7,,,,,0,,69,100
31392,note_on,,,,,32,0,7,,,,,0,,67,96
31396,note_off,,,,,100,0,14,,,,,6,,57,100
31396,note_off,,,,,100,0,11,,,,,4,,57,100
31456,note_off,,,,,64,0,7,,,,,0,,67,100
31488,note_on,,,,,0,0,13,,,,,6,,76,100
31488,note_on,,,,,0,0,13,,,,,6,,73,100
31488,note_on,,,,,256,0,13,,,,,6,,69,100
31488,note_on,,,,,92,0,14,,,,,6,,45,100
31488,note_on,,,,,32,0,7,,,,,0,,76,96
31488,note_on,,,,,92,0,11,,,,,4,,45,85
31580,note_off,,,,,92,0,7,,,,,0,,76,100
31584,note_on,,,,,4,0,7,,,,,0,,73,97
31676,note_off,,,,,92,0,7,,,,,0,,73,100
31680,note_on,,,,,4,0,7,,,,,0,,71,97
31744,note_off,,,,,256,0,13,,,,,6,,69,100
31744,note_off,,,,,0,0,13,,,,,6,,73,100
31744,note_off,,,,,64,0,7,,,,,0,,71,100
31744,note_off,,,,,256,0,14,,,,,6,,45,100
31744,note_off,,,,,0,0,13,,,,,6,,76,100
31744,note_off,,,,,256,0,11,,,,,4,,45,100
31776,note_on,,,,,32,0,7,,,,,0,,69,98
31840,note_off,,,,,64,0,7,,,,,0,,69,100
31872,note_on,,,,,32,0,7,,,,,0,,81,99
31964,note_off,,,,,92,0,7,,,,,0,,81,100
31968,note_on,,,,,4,0,7,,,,,0,,76,99
32060,note_off,,,,,92,0,7,,,,,0,,76,100
32064,note_on,,,,,320,0,13,,,,,6,,73,100
32064,note_on,,,,,0,0,13,,,,,6,,76,100
32064,note_on,,,,,320,0,14,,,,,6,,57,100
32064,note_on,,,,,320,0,11,,,,,4,,57,85
32064,note_on,,,,,4,0,7,,,,,0,,74,100
32128,note_off,,,,,64,0,7,,,,,0,,74,100
32160,note_on,,,,,32,0,7,,,,,0,,73,100
32164,note_off,,,,,100,0,11,,,,,4,,57,100
32164,note_off,,,,,100,0,13,,,,,6,,73,100
32164,note_off,,,,,100,0,14,,,,,6,,57,100
32164,note_off,,,,,0,0,13,,,,,6,,76,100
32224,note_off,,,,,64,0,7,,,,,0,,73,100
32256,note_on,,,,,92,0,11,,,,,4,,50,85
32256,note_on,,,,,0,0,13,,,,,6,,74,100
32256,note_on,,,,,32,0,7,,,,,0,,77,101
32256,note_on,,,,,0,0,13,,,,,6,,65,100
32256,note_on,,,,,92,0,14,,,,,6,,50,100
32256,note_on,,,,,92,0,13,,,,,6,,69,100
32348,note_off,,,,,92,0,7,,,,,0,,77,100
32352,note_on,,,,,4,0,7,,,,,0,,81,102
32356,note_off,,,,,100,0,14,,,,,6,,50,100
32356,note_off,,,,,100,0,11,,,,,4,,50,100
32444,note_off,,,,,92,0,7,,,,,0,,81,100
32448,note_on,,,,,4,0,7,,,,,0,,79,102
32448,note_on,,,,,92,0,11,,,,,4,,62,85
32448,note_on,,,,,92,0,14,,,,,6,,62,100
32512,note_off,,,,,64,0,7,,,,,0,,79,100
32544,note_on,,,,,32,0,7,,,,,0,,77,103
32548,note_off,,,,,100,0,11,,,,,4,,62,100
32548,note_off,,,,,100,0,14,,,,,6,,62,100
32608,note_off,,,,,64,0,7,,,,,0,,77,100
32636,note_off,,,,,380,0,13,,,,,6,,69,100
32640,note_on,,,,,4,0,13,,,,,6,,70,100
32640,note_on,,,,,92,0,11,,,,,4,,50,85
32640,note_on,,,,,32,0,7,,,,,0,,82,104
32640,note_on,,,,,92,0,14,,,,,6,,50,100
32740,note_off,,,,,100,0,14,,,,,6,,50,100
32740,note_off,,,,,100,0,11,,,,,4,,50,100
32768,note_off,,,,,128,0,13,,,,,6,,65,100
32768,note_off,,,,,0,0,13,,,,,6,,74,100
32828,note_off,,,,,188,0,7,,,,,0,,82,100
32832,note_on,,,,,92,0,11,,,,,4,,62,85
32832,note_on,,,,,4,0,7,,,,,0,,80,103
32832,note_on,,,,,92,0,14,,,,,6,,62,100
32896,note_off,,,,,128,0,13,,,,,6,,70,100
32896,note_off,,,,,64,0,7,,,,,0,,80,100
32928,note_on,,,,,32,0,7,,,,,0,,81,102
32932,note_off,,,,,100,0,11,,,,,4,,62,100
32932,note_off,,,,,100,0,14,,,,,6,,62,100
32992,note_off,,,,,64,0,7,,,,,0,,81,100
33024,note_on,,,,,92,0,14,,,,,6,,44,100
33024,note_on,,,,,0,0,13,,,,,6,,74,100
33024,note_on,,,,,0,0,13,,,,,6,,77,100
33024,note_on,,,,,92,0,11,,,,,4,,44,85
33024,note_on,,,,,128,0,13,,,,,6,,71,100
33024,note_on,,,,,32,0,7,,,,,0,,77,100
33212,note_off,,,,,188,0,7,,,,,0,,77,100
33216,note_on,,,,,4,0,7,,,,,0,,76,99
33280,note_off,,,,,256,0,11,,,,,4,,44,100
33280,note_off,,,,,0,0,13,,,,,6,,77,100
33280,note_off,,,,,256,0,14,,,,,6,,44,100
33280,note_off,,,,,0,0,13,,,,,6,,74,100
33280,note_off,,,,,256,0,13,,,,,6,,71,100
33280,note_off,,,,,64,0,7,,,,,0,,76,100
33312,note_on,,,,,32,0,7,,,,,0,,77,98
33376,note_off,,,,,64,0,7,,,,,0,,77,100
33408,note_on,,,,,32,0,7,,,,,0,,74,98
33596,note_off,,,,,188,0,7,,,,,0,,74,100
33600,note_on,,,,,320,0,14,,,,,6,,56,100
33600,note_on,,,,,0,0,13,,,,,6,,77,100
33600,note_on,,,,,320,0,13,,,,,6,,74,100
33600,note_on,,,,,4,0,7,,,,,0,,73,96
33600,note_on,,,,,320,0,11,,,,,4,,56,85
33664,note_off,,,,,64,0,7,,,,,0,,73,100
33696,note_on,,,,,32,0,7,,,,,0,,74,96
33700,note_off,,,,,100,0,13,,,,,6,,74,100
33700,note_off,,,,,100,0,14,,,,,6,,56,100
33700,note_off,,,,,0,0,13,,,,,6,,77,100
33700,note_off,,,,,100,0,11,,,,,4,,56,100
33760,note_off,,,,,64,0,7,,,,,0,,74,100
33792,note_on,,,,,0,0,13,,,,,6,,76,100
33792,note_on,,,,,32,0,7,,,,,0,,73,92
33792,note_on,,,,,92,0,14,,,,,6,,45,100
33792,note_on,,,,,92,0,13,,,,,6,,69,100
33792,note_on,,,,,0,0,13,,,,,6,,73,100
33792,note_on,,,,,92,0,11,,,,,4,,45,85
33884,note_off,,,,,92,0,7,,,,,0,,73,100
33888,note_on,,,,,4,0,7,,,,,0,,76,92
33892,note_off,,,,,100,0,11,,,,,4,,45,100
33892,note_off,,,,,100,0,14,,,,,6,,45,100
33952,note_off,,,,,64,0,7,,,,,0,,76,100
33984,note_on,,,,,92,0,14,,,,,6,,57,100
33984,note_on,,,,,92,0,11,,,,,4,,57,85
33984,note_on,,,,,32,0,7,,,,,0,,73,93
34048,note_off,,,,,0,0,13,,,,,6,,76,100
34048,note_off,,,,,0,0,13,,,,,6,,73,100
34048,note_off,,,,,256,0,13,,,,,6,,69,100
34076,note_off,,,,,92,0,7,,,,,0,,73,100
34080,note_on,,,,,4,0,7,,,,,0,,69,94
34084,note_off,,,,,100,0,14,,,,,6,,57,100
34084,note_off,,,,,100,0,11,,,,,4,,57,100
34144,note_off,,,,,64,0,7,,,,,0,,69,100
34176,note_on,,,,,92,0,11,,,,,4,,49,85
34176,note_on,,,,,32,0,7,,,,,0,,76,95
34176,note_on,,,,,92,0,14,,,,,6,,49,100
34176,note_on,,,,,0,0,13,,,,,6,,69,100
34176,note_on,,,,,0,0,13,,,,,6,,67,100
34176,note_on,,,,,128,0,13,,,,,6,,76,100
34268,note_off,,,,,92,0,7,,,,,0,,76,100
34272,note_on,,,,,4,0,7,,,,,0,,67,96
34276,note_off,,,,,100,0,11,,,,,4,,49,100
34276,note_off,,,,,100,0,14,,,,,6,,49,100
34336,note_off,,,,,64,0,7,,,,,0,,67,100
34368,note_on,,,,,92,0,11,,,,,4,,57,85
34368,note_on,,,,,92,0,14,,,,,6,,57,100
34368,note_on,,,,,32,0,7,,,,,0,,76,97
34432,note_off,,,,,0,0,13,,,,,6,,69,100
34432,note_off,,,,,0,0,13,,,,,6,,67,100
34432,note_off,,,,,256,0,13,,,,,6,,76,100
34460,note_off,,,,,92,0,7,,,,,0,,76,100
34464,note_on,,,,,4,0,7,,,,,0,,67,98
34468,note_off,,,,,100,0,11,,,,,4,,57,100
34468,note_off,,,,,100,0,14,,,,,6,,57,100
34528,note_off,,,,,64,0,7,,,,,0,,67,100
34560,note_on,,,,,92,0,14,,,,,6,,50,100
34560,note_on,,,,,32,0,7,,,,,0,,65,99
34560,note_on,,,,,0,0,13,,,,,6,,74,100
34560,note_on,,,,,0,0,13,,,,,6,,69,100
34560,note_on,,,,,128,0,13,,,,,6,,65,100
34560,note_on,,,,,92,0,11,,,,,4,,50,85
34652,note_off,,,,,92,0,7,,,,,0,,65,100
34656,note_on,,,,,4,0,7,,,,,0,,69,100
34660,note_off,,,,,100,0,14,,,,,6,,50,100
34660,note_off,,,,,100,0,11,,,,,4,,50,100
34660,note_off,,,,,0,0,13,,,,,6,,74,100
34660,note_off,,,,,0,0,13,,,,,6,,69,100
34660,note_off,,,,,100,0,13,,,,,6,,65,100
34720,note_off,,,,,64,0,7,,,,,0,,69,100
34752,note_on,,,,,92,0,14,,,,,6,,53,100
34752,note_on,,,,,0,0,13,,,,,6,,69,100
34752,note_on,,,,,32,0,7,,,,,0,,74,101
34752,note_on,,,,,92,0,11,,,,,4,,53,89
34752,note_on,,,,,0,0,13,,,,,6,,74,100
34752,note_on,,,,,92,0,13,,,,,6,,62,100
34844,note_off,,,,,92,0,7,,,,,0,,74,100
34848,note_on,,,,,4,0,7,,,,,0,,65,102
34852,note_off,,,,,0,0,13,,,,,6,,74,100
34852,note_off,,,,,100,0,11,,,,,4,,53,100
34852,note_off,,,,,100,0,14,,,,,6,,53,100
34852,note_off,,,,,100,0,13,,,,,6,,62,100
34852,note_off,,,,,0,0,13,,,,,6,,69,100
34912,note_off,,,,,64,0,7,,,,,0,,65,100
34944,note_on,,,,,92,0,11,,,,,4,,55,94
34944,note_on,,,,,92,0,13,,,,,6,,64,100
34944,note_on,,,,,32,0,7,,,,,0,,64,103
34944,note_on,,,,,92,0,14,,,,,6,,55,100
34944,note_on,,,,,0,0,13,,,,,6,,69,100
34944,note_on,,,,,0,0,13,,,,,6,,74,100
35036,note_off,,,,,92,0,7,,,,,0,,64,100
35040,note_on,,,,,4,0,7,,,,,0,,74,104
35044,note_off,,,,,100,0,14,,,,,6,,55,100
35044,note_off,,,,,100,0,11,,,,,4,,55,100
35044,note_off,,,,,100,0,13,,,,,6,,64,100
35044,note_off,,,,,0,0,13,,,,,6,,74,100
35044,note_off,,,,,0,0,13,,,,,6,,69,100
35104,note_off,,,,,64,0,7,,,,,0,,74,100
35132,program_change,,,,,88,0,11,,,,,4,48,,
35136,note_on,,,,,92,0,14,,,,,6,,57,100
35136,note_on,,,,,14144,0,9,,,,,2,,69,100
35136,note_on,,,,,14144,0,10,,,,,3,,69,100
35136,note_on,,,,,14144,0,8,,,,,1,,69,100
35136,note_on,,,,,32,0,7,,,,,0,,64,105
35136,note_on,,,,,14144,0,16,,,,,7,,57,100
35136,note_on,,,,,0,0,13,,,,,6,,73,100
35136,note_on,,,,,0,0,13,,,,,6,,64,100
35136,note_on,,,,,4,0,11,,,,,4,,57,99
35136,note_on,,,,,14144,0,12,,,,,5,,45,100
35136,note_on,,,,,92,0,13,,,,,6,,69,100
35136,note_on,,,,,14144,0,15,,,,,7,,69,100
35216,note_off,,,,,80,0,9,,,,,2,,69,100
35216,note_off,,,,,80,0,10,,,,,3,,69,100
35216,note_off,,,,,80,0,8,,,,,1,,69,100
35216,note_off,,,,,80,0,15,,,,,7,,69,100
35228,note_off,,,,,92,0,7,,,,,0,,64,100
35232,note_on,,,,,4,0,7,,,,,0,,73,106
35236,note_off,,,,,100,0,16,,,,,7,,57,100
35236,note_off,,,,,0,0,13,,,,,6,,73,100
35236,note_off,,,,,100,0,11,,,,,4,,57,100
35236,note_off,,,,,100,0,13,,,,,6,,69,100
35236,note_off,,,,,100,0,12,,,,,5,,45,100
35236,note_off,,,,,100,0,14,,,,,6,,57,100
35236,note_off,,,,,0,0,13,,,,,6,,64,100
35296,note_off,,,,,64,0,7,,,,,0,,73,100
35328,note_on,,,,,92,0,16,,,,,7,,50,100
35328,note_on,,,,,112,0,10,,,,,3,,62,100
35328,note_on,,,,,92,0,11,,,,,4,,50,100
35328,note_on,,,,,112,0,8,,,,,1,,62,100
35328,note_on,,,,,92,0,14,,,,,6,,50,100
35328,note_on,,,,,32,0,7,,,,,0,,62,107
35328,note_on,,,,,0,0,13,,,,,6,,74,100
35328,note_on,,,,,0,0,13,,,,,6,,69,100
35328,note_on,,,,,92,0,13,,,,,6,,65,100
35328,note_on,,,,,92,0,12,,,,,5,,38,100
35328,note_on,,,,,112,0,15,,,,,7,,62,100
35328,note_on,,,,,112,0,9,,,,,2,,62,100
35428,note_off,,,,,100,0,14,,,,,6,,50,100
35428,note_off,,,,,100,0,8,,,,,1,,62,100
35428,note_off,,,,,100,0,15,,,,,7,,62,100
35428,note_off,,,,,100,0,10,,,,,3,,62,100
35428,note_off,,,,,100,0,9,,,,,2,,62,100
35428,note_off,,,,,0,0,13,,,,,6,,69,100
35428,note_off,,,,,100,0,16,,,,,7,,50,100
35428,note_off,,,,,0,0,13,,,,,6,,74,100
35428,note_off,,,,,100,0,12,,,,,5,,38,100
35428,note_off,,,,,100,0,13,,,,,6,,65,100
35428,note_off,,,,,100,0,11,,,,,4,,50,100
35456,note_off,,,,,128,0,7,,,,,0,,62,100
35520,note_on,,,,,92,0,11,,,,,4,,62,100
35520,note_on,,,,,92,0,13,,,,,6,,74,100
35520,note_on,,,,,92,0,10,,,,,3,,74,100
35520,note_on,,,,,92,0,14,,,,,6,,62,100
35520,note_on,,,,,92,0,12,,,,,5,,50,100
35520,note_on,,,,,92,0,8,,,,,1,,74,100
35520,note_on,,,,,92,0,15,,,,,7,,74,100
35520,note_on,,,,,92,0,9,,,,,2,,74,100
35520,note_on,,,,,92,0,16,,,,,7,,62,100
35620,note_off,,,,,100,0,11,,,,,4,,62,100
35620,note_off,,,,,100,0,12,,,,,5,,50,100
35620,note_off,,,,,100,0,9,,,,,2,,74,100
35620,note_off,,,,,100,0,14,,,,,6,,62,100
35620,note_off,,,,,100,0,15,,,,,7,,74,100
35620,note_off,,,,,100,0,8,,,,,1,,74,100
35620,note_off,,,,,100,0,13,,,,,6,,74,100
35620,note_off,,,,,100,0,16,,,,,7,,62,100
35620,note_off,,,,,100,0,10,,,,,3,,74,100
35712,note_on,,,,,92,0,15,,,,,7,,62,100
35712,note_on,,,,,92,0,8,,,,,1,,62,100
35712,note_on,,,,,92,0,12,,,,,5,,38,100
35712,note_on,,,,,92,0,10,,,,,3,,62,100
35712,note_on,,,,,92,0,14,,,,,6,,50,100
35712,note_on,,,,,92,0,11,,,,,4,,50,100
35712,note_on,,,,,92,0,9,,,,,2,,62,100
35712,note_on,,,,,92,0,16,,,,,7,,50,100
35712,note_on,,,,,92,0,13,,,,,6,,62,100
35812,note_off,,,,,100,0,13,,,,,6,,62,100
35812,note_off,,,,,100,0,9,,,,,2,,62,100
35812,note_off,,,,,100,0,16,,,,,7,,50,100
35812,note_off,,,,,100,0,15,,,,,7,,62,100
35812,note_off,,,,,100,0,12,,,,,5,,38,100
35812,note_off,,,,,100,0,10,,,,,3,,62,100
35812,note_off,,,,,100,0,8,,,,,1,,62,100
35812,note_off,,,,,100,0,11,,,,,4,,50,100
35812,note_off,,,,,100,0,14,,,,,6,,50,100
35904,note_on,,,,,92,0,15,,,,,7,,74,100
35904,note_on,,,,,92,0,8,,,,,1,,74,100
35904,note_on,,,,,92,0,14,,,,,6,,62,100
35904,note_on,,,,,92,0,9,,,,,2,,74,100
35904,note_on,,,,,92,0,11,,,,,4,,62,100
35904,note_on,,,,,92,0,10,,,,,3,,74,100
35904,note_on,,,,,92,0,16,,,,,7,,62,100
35904,note_on,,,,,92,0,13,,,,,6,,74,100
35904,note_on,,,,,92,0,12,,,,,5,,50,100
36004,note_off,,,,,100,0,15,,,,,7,,74,100
36004,note_off,,,,,100,0,14,,,,,6,,62,100
36004,note_off,,,,,100,0,9,,,,,2,,74,100
36004,note_off,,,,,100,0,10,,,,,3,,74,100
36004,note_off,,,,,100,0,16,,,,,7,,62,100
36004,note_off,,,,,100,0,13,,,,,6,,74,100
36004,note_off,,,,,100,0,8,,,,,1,,74,100
36004,note_off,,,,,100,0,11,,,,,4,,62,100
36004,note_off,,,,,100,0,12,,,,,5,,50,100
36096,note_on,,,,,92,0,14,,,,,6,,62,100
36096,note_on,,,,,92,0,15,,,,,7,,74,100
36096,note_on,,,,,92,0,12,,,,,5,,50,100
36096,note_on,,,,,92,0,11,,,,,4,,62,100
36096,note_on,,,,,92,0,8,,,,,1,,74,100
36096,note_on,,,,,92,0,10,,,,,3,,74,100
36096,note_on,,,,,92,0,9,,,,,2,,74,100
36096,note_on,,,,,92,0,16,,,,,7,,62,100
36096,note_on,,,,,92,0,13,,,,,6,,74,100
36224,note_off,,,,,128,0,12,,,,,5,,50,100
36224,note_off,,,,,128,0,9,,,,,2,,74,100
36224,note_off,,,,,128,0,16,,,,,7,,62,100
36224,note_off,,,,,128,0,14,,,,,6,,62,100
36224,note_off,,,,,128,0,13,,,,,6,,74,100
36224,note_off,,,,,128,0,15,,,,,7,,74,100
36224,note_off,,,,,128,0,10,,,,,3,,74,100
36224,note_off,,,,,128,0,8,,,,,1,,74,100
36224,note_off,,,,,128,0,11,,,,,4,,62,100
36288,note_on,,,,,64,0,10,,,,,3,,72,100
36288,note_on,,,,,64,0,11,,,,,4,,60,100
36288,note_on,,,,,64,0,16,,,,,7,,60,100
36288,note_on,,,,,64,0,13,,,,,6,,72,100
36288,note_on,,,,,64,0,9,,,,,2,,72,100
36288,note_on,,,,,64,0,14,,,,,6,,60,100
36288,note_on,,,,,64,0,8,,,,,1,,72,100
36288,note_on,,,,,64,0,12,,,,,5,,48,100
36288,note_on,,,,,64,0,15,,,,,7,,72,100
36352,note_off,,,,,64,0,16,,,,,7,,60,100
36352,note_off,,,,,64,0,15,,,,,7,,72,100
36352,note_off,,,,,64,0,9,,,,,2,,72,100
36352,note_off,,,,,64,0,8,,,,,1,,72,100
36352,note_off,,,,,64,0,12,,,,,5,,48,100
36352,note_off,,,,,64,0,14,,,,,6,,60,100
36352,note_off,,,,,64,0,13,,,,,6,,72,100
36352,note_off,,,,,64,0,11,,,,,4,,60,100
36352,note_off,,,,,64,0,10,,,,,3,,72,100
36384,note_on,,,,,32,0,10,,,,,3,,70,100
36384,note_on,,,,,32,0,12,,,,,5,,46,100
36384,note_on,,,,,32,0,9,,,,,2,,70,100
36384,note_on,,,,,32,0,14,,,,,6,,58,100
36384,note_on,,,,,32,0,13,,,,,6,,70,100
36384,note_on,,,,,32,0,16,,,,,7,,58,100
36384,note_on,,,,,32,0,11,,,,,4,,58,100
36384,note_on,,,,,32,0,15,,,,,7,,70,100
36384,note_on,,,,,32,0,8,,,,,1,,70,100
36448,note_off,,,,,64,0,9,,,,,2,,70,100
36448,note_off,,,,,64,0,12,,,,,5,,46,100
36448,note_off,,,,,64,0,10,,,,,3,,70,100
36448,note_off,,,,,64,0,15,,,,,7,,70,100
36448,note_off,,,,,64,0,14,,,,,6,,58,100
36448,note_off,,,,,64,0,13,,,,,6,,70,100
36448,note_off,,,,,64,0,11,,,,,4,,58,100
36448,note_off,,,,,64,0,16,,,,,7,,58,100
36448,note_off,,,,,64,0,8,,,,,1,,70,100
36480,note_on,,,,,32,0,9,,,,,2,,69,100
36480,note_on,,,,,32,0,13,,,,,6,,69,100
36480,note_on,,,,,32,0,8,,,,,1,,69,100
36480,note_on,,,,,32,0,12,,,,,5,,45,100
36480,note_on,,,,,32,0,10,,,,,3,,69,100
36480,note_on,,,,,32,0,14,,,,,6,,57,100
36480,note_on,,,,,32,0,16,,,,,7,,57,100
36480,note_on,,,,,32,0,11,,,,,4,,57,100
36480,note_on,,,,,32,0,15,,,,,7,,69,100
36580,note_off,,,,,100,0,9,,,,,2,,69,100
36580,note_off,,,,,100,0,12,,,,,5,,45,100
36580,note_off,,,,,100,0,11,,,,,4,,57,100
36580,note_off,,,,,100,0,14,,,,,6,,57,100
36580,note_off,,,,,100,0,8,,,,,1,,69,100
36580,note_off,,,,,100,0,13,,,,,6,,69,100
36580,note_off,,,,,100,0,15,,,,,7,,69,100
36580,note_off,,,,,100,0,16,,,,,7,,57,100
36580,note_off,,,,,100,0,10,,,,,3,,69,100
36672,note_on,,,,,92,0,12,,,,,5,,45,100
36672,note_on,,,,,92,0,15,,,,,7,,69,100
36672,note_on,,,,,92,0,14,,,,,6,,57,100
36672,note_on,,,,,92,0,8,,,,,1,,69,100
36672,note_on,,,,,92,0,11,,,,,4,,57,100
36672,note_on,,,,,92,0,10,,,,,3,,69,100
36672,note_on,,,,,92,0,16,,,,,7,,57,100
36672,note_on,,,,,92,0,13,,,,,6,,69,100
36672,note_on,,,,,92,0,9,,,,,2,,69,100
36772,note_off,,,,,100,0,16,,,,,7,,57,100
36772,note_off,,,,,100,0,12,,,,,5,,45,100
36772,note_off,,,,,100,0,13,,,,,6,,69,100
36772,note_off,,,,,100,0,10,,,,,3,,69,100
36772,note_off,,,,,100,0,11,,,,,4,,57,100
36772,note_off,,,,,100,0,15,,,,,7,,69,100
36772,note_off,,,,,100,0,9,,,,,2,,69,100
36772,note_off,,,,,100,0,8,,,,,1,,69,100
36772,note_off,,,,,100,0,14,,,,,6,,57,100
36864,note_on,,,,,92,0,16,,,,,7,,62,100
36864,note_on,,,,,92,0,8,,,,,1,,74,100
36864,note_on,,,,,92,0,10,,,,,3,,74,100
36864,note_on,,,,,92,0,12,,,,,5,,50,100
36864,note_on,,,,,92,0,15,,,,,7,,74,100
36864,note_on,,,,,92,0,9,,,,,2,,74,100
36864,note_on,,,,,92,0,14,,,,,6,,62,100
36864,note_on,,,,,92,0,11,,,,,4,,62,100
36864,note_on,,,,,92,0,13,,,,,6,,74,100
36964,note_off,,,,,100,0,9,,,,,2,,74,100
36964,note_off,,,,,100,0,16,,,,,7,,62,100
36964,note_off,,,,,100,0,15,,,,,7,,74,100
36964,note_off,,,,,100,0,10,,,,,3,,74,100
36964,note_off,,,,,100,0,14,,,,,6,,62,100
36964,note_off,,,,,100,0,13,,,,,6,,74,100
36964,note_off,,,,,100,0,8,,,,,1,,74,100
36964,note_off,,,,,100,0,12,,,,,5,,50,100
36964,note_off,,,,,100,0,11,,,,,4,,62,100
37056,note_on,,,,,92,0,10,,,,,3,,65,100
37056,note_on,,,,,92,0,12,,,,,5,,41,100
37056,note_on,,,,,92,0,13,,,,,6,,65,100
37056,note_on,,,,,92,0,9,,,,,2,,65,100
37056,note_on,,,,,92,0,8,,,,,1,,65,100
37056,note_on,,,,,92,0,11,,,,,4,,53,100
37056,note_on,,,,,92,0,15,,,,,7,,65,100
37056,note_on,,,,,92,0,16,,,,,7,,53,100
37056,note_on,,,,,92,0,14,,,,,6,,53,100
37156,note_off,,,,,100,0,14,,,,,6,,53,100
37156,note_off,,,,,100,0,15,,,,,7,,65,100
37156,note_off,,,,,100,0,9,,,,,2,,65,100
37156,note_off,,,,,100,0,13,,,,,6,,65,100
37156,note_off,,,,,100,0,12,,,,,5,,41,100
37156,note_off,,,,,100,0,16,,,,,7,,53,100
37156,note_off,,,,,100,0,8,,,,,1,,65,100
37156,note_off,,,,,100,0,11,,,,,4,,53,100
37156,note_off,,,,,100,0,10,,,,,3,,65,100
37248,note_on,,,,,92,0,11,,,,,4,,55,100
37248,note_on,,,,,92,0,9,,,,,2,,67,100
37248,note_on,,,,,92,0,16,,,,,7,,55,100
37248,note_on,,,,,92,0,13,,,,,6,,67,100
37248,note_on,,,,,92,0,14,,,,,6,,55,100
37248,note_on,,,,,92,0,8,,,,,1,,67,100
37248,note_on,,,,,92,0,10,,,,,3,,67,100
37248,note_on,,,,,92,0,15,,,,,7,,67,100
37248,note_on,,,,,92,0,12,,,,,5,,43,100
37348,note_off,,,,,100,0,9,,,,,2,,67,100
37348,note_off,,,,,100,0,13,,,,,6,,67,100
37348,note_off,,,,,100,0,14,,,,,6,,55,100
37348,note_off,,,,,100,0,15,,,,,7,,67,100
37348,note_off,,,,,100,0,12,,,,,5,,43,100
37348,note_off,,,,,100,0,11,,,,,4,,55,100
37348,note_off,,,,,100,0,10,,,,,3,,67,100
37348,note_off,,,,,100,0,16,,,,,7,,55,100
37348,note_off,,,,,100,0,8,,,,,1,,67,100
37440,note_on,,,,,92,0,8,,,,,1,,69,100
37440,note_on,,,,,92,0,14,,,,,6,,57,100
37440,note_on,,,,,92,0,13,,,,,6,,69,100
37440,note_on,,,,,92,0,15,,,,,7,,69,100
37440,note_on,,,,,92,0,9,,,,,2,,69,100
37440,note_on,,,,,92,0,12,,,,,5,,45,100
37440,note_on,,,,,92,0,11,,,,,4,,57,100
37440,note_on,,,,,92,0,16,,,,,7,,57,100
37440,note_on,,,,,92,0,10,,,,,3,,69,100
37540,note_off,,,,,100,0,16,,,,,7,,57,100
37540,note_off,,,,,100,0,9,,,,,2,,69,100
37540,note_off,,,,,100,0,10,,,,,3,,69,100
37540,note_off,,,,,100,0,13,,,,,6,,69,100
37540,note_off,,,,,100,0,11,,,,,4,,57,100
37540,note_off,,,,,100,0,15,,,,,7,,69,100
37540,note_off,,,,,100,0,14,,,,,6,,57,100
37540,note_off,,,,,100,0,12,,,,,5,,45,100
37540,note_off,,,,,100,0,8,,,,,1,,69,100
37632,note_on,,,,,92,0,13,,,,,6,,65,100
37632,note_on,,,,,92,0,15,,,,,7,,65,100
37632,note_on,,,,,92,0,10,,,,,3,,65,100
37632,note_on,,,,,92,0,11,,,,,4,,53,100
37632,note_on,,,,,92,0,16,,,,,7,,53,100
37632,note_on,,,,,92,0,9,,,,,2,,65,100
37632,note_on,,,,,92,0,12,,,,,5,,41,100
37632,note_on,,,,,92,0,14,,,,,6,,53,100
37632,note_on,,,,,92,0,8,,,,,1,,65,100
37760,note_off,,,,,128,0,15,,,,,7,,65,100
37760,note_off,,,,,128,0,10,,,,,3,,65,100
37760,note_off,,,,,128,0,14,,,,,6,,53,100
37760,note_off,,,,,128,0,16,,,,,7,,53,100
37760,note_off,,,,,128,0,9,,,,,2,,65,100
37760,note_off,,,,,128,0,12,,,,,5,,41,100
37760,note_off,,,,,128,0,13,,,,,6,,65,100
37760,note_off,,,,,128,0,8,,,,,1,,65,100
37760,note_off,,,,,128,0,11,,,,,4,,53,100
37824,note_on,,,,,64,0,11,,,,,4,,52,100
37824,note_on,,,,,64,0,15,,,,,7,,64,100
37824,note_on,,,,,64,0,9,,,,,2,,64,100
37824,note_on,,,,,64,0,10,,,,,3,,64,100
37824,note_on,,,,,64,0,14,,,,,6,,52,100
37824,note_on,,,,,64,0,13,,,,,6,,64,100
37824,note_on,,,,,64,0,16,,,,,7,,52,100
37824,note_on,,,,,64,0,8,,,,,1,,64,100
37824,note_on,,,,,64,0,12,,,,,5,,40,100
37888,note_off,,,,,64,0,16,,,,,7,,52,100
37888,note_off,,,,,64,0,9,,,,,2,,64,100
37888,note_off,,,,,64,0,8,,,,,1,,64,100
37888,note_off,,,,,64,0,14,,,,,6,,52,100
37888,note_off,,,,,64,0,10,,,,,3,,64,100
37888,note_off,,,,,64,0,15,,,,,7,,64,100
37888,note_off,,,,,64,0,13,,,,,6,,64,100
37888,note_off,,,,,64,0,12,,,,,5,,40,100
37888,note_off,,,,,64,0,11,,,,,4,,52,100
37920,note_on,,,,,32,0,12,,,,,5,,41,100
37920,note_on,,,,,32,0,8,,,,,1,,65,100
37920,note_on,,,,,32,0,10,,,,,3,,65,100
37920,note_on,,,,,32,0,16,,,,,7,,53,100
37920,note_on,,,,,32,0,13,,,,,6,,65,100
37920,note_on,,,,,32,0,11,,,,,4,,53,100
37920,note_on,,,,,32,0,14,,,,,6,,53,100
37920,note_on,,,,,32,0,9,,,,,2,,65,100
37920,note_on,,,,,32,0,15,,,,,7,,65,100
37984,note_off,,,,,64,0,13,,,,,6,,65,100
37984,note_off,,,,,64,0,8,,,,,1,,65,100
37984,note_off,,,,,64,0,12,,,,,5,,41,100
37984,note_off,,,,,64,0,9,,,,,2,,65,100
37984,note_off,,,,,64,0,11,,,,,4,,53,100
37984,note_off,,,,,64,0,10,,,,,3,,65,100
37984,note_off,,,,,64,0,14,,,,,6,,53,100
37984,note_off,,,,,64,0,15,,,,,7,,65,100
37984,note_off,,,,,64,0,16,,,,,7,,53,100
38016,note_on,,,,,32,0,10,,,,,3,,62,100
38016,note_on,,,,,32,0,9,,,,,2,,62,100
38016,note_on,,,,,32,0,8,,,,,1,,62,100
38016,note_on,,,,,32,0,11,,,,,4,,50,100
38016,note_on,,,,,32,0,15,,,,,7,,62,100
38016,note_on,,,,,32,0,12,,,,,5,,38,100
38016,note_on,,,,,32,0,14,,,,,6,,50,100
38016,note_on,,,,,32,0,13,,,,,6,,62,100
38016,note_on,,,,,32,0,16,,,,,7,,50,100
38116,note_off,,,,,100,0,14,,,,,6,,50,100
38116,note_off,,,,,100,0,16,,,,,7,,50,100
38116,note_off,,,,,100,0,9,,,,,2,,62,100
38116,note_off,,,,,100,0,10,,,,,3,,62,100
38116,note_off,,,,,100,0,12,,,,,5,,38,100
38116,note_off,,,,,100,0,13,,,,,6,,62,100
38116,note_off,,,,,100,0,11,,,,,4,,50,100
38116,note_off,,,,,100,0,8,,,,,1,,62,100
38116,note_off,,,,,100,0,15,,,,,7,,62,100
38208,note_on,,,,,92,0,12,,,,,5,,50,100
38208,note_on,,,,,92,0,15,,,,,7,,74,100
38208,note_on,,,,,92,0,13,,,,,6,,74,100
38208,note_on,,,,,92,0,14,,,,,6,,62,100
38208,note_on,,,,,92,0,16,,,,,7,,62,100
38208,note_on,,,,,92,0,11,,,,,4,,62,100
38208,note_on,,,,,92,0,10,,,,,3,,74,100
38208,note_on,,,,,92,0,8,,,,,1,,74,100
38208,note_on,,,,,92,0,9,,,,,2,,74,100
38308,note_off,,,,,100,0,12,,,,,5,,50,100
38308,note_off,,,,,100,0,10,,,,,3,,74,100
38308,note_off,,,,,100,0,8,,,,,1,,74,100
38308,note_off,,,,,100,0,16,,,,,7,,62,100
38308,note_off,,,,,100,0,15,,,,,7,,74,100
38308,note_off,,,,,100,0,13,,,,,6,,74,100
38308,note_off,,,,,100,0,14,,,,,6,,62,100
38308,note_off,,,,,100,0,9,,,,,2,,74,100
38308,note_off,,,,,100,0,11,,,,,4,,62,100
38400,note_on,,,,,92,0,13,,,,,6,,62,100
38400,note_on,,,,,92,0,15,,,,,7,,62,100
38400,note_on,,,,,92,0,14,,,,,6,,50,100
38400,note_on,,,,,92,0,16,,,,,7,,50,100
38400,note_on,,,,,92,0,11,,,,,4,,50,100
38400,note_on,,,,,92,0,9,,,,,2,,62,100
38400,note_on,,,,,92,0,10,,,,,3,,62,100
38400,note_on,,,,,92,0,8,,,,,1,,62,100
38400,note_on,,,,,92,0,12,,,,,5,,38,100
38500,note_off,,,,,100,0,11,,,,,4,,50,100
38500,note_off,,,,,100,0,12,,,,,5,,38,100
38500,note_off,,,,,100,0,8,,,,,1,,62,100
38500,note_off,,,,,100,0,13,,,,,6,,62,100
38500,note_off,,,,,100,0,10,,,,,3,,62,100
38500,note_off,,,,,100,0,16,,,,,7,,50,100
38500,note_off,,,,,100,0,14,,,,,6,,50,100
38500,note_off,,,,,100,0,15,,,,,7,,62,100
38500,note_off,,,,,100,0,9,,,,,2,,62,100
38592,note_on,,,,,92,0,8,,,,,1,,74,100
38592,note_on,,,,,92,0,9,,,,,2,,74,100
38592,note_on,,,,,92,0,10,,,,,3,,74,100
38592,note_on,,,,,92,0,16,,,,,7,,62,100
38592,note_on,,,,,92,0,12,,,,,5,,50,100
38592,note_on,,,,,92,0,13,,,,,6,,74,100
38592,note_on,,,,,92,0,15,,,,,7,,74,100
38592,note_on,,,,,92,0,14,,,,,6,,62,100
38592,note_on,,,,,92,0,11,,,,,4,,62,100
38692,note_off,,,,,100,0,12,,,,,5,,50,100
38692,note_off,,,,,100,0,13,,,,,6,,74,100
38692,note_off,,,,,100,0,15,,,,,7,,74,100
38692,note_off,,,,,100,0,16,,,,,7,,62,100
38692,note_off,,,,,100,0,8,,,,,1,,74,100
38692,note_off,,,,,100,0,9,,,,,2,,74,100
38692,note_off,,,,,100,0,14,,,,,6,,62,100
38692,note_off,,,,,100,0,10,,,,,3,,74,100
38692,note_off,,,,,100,0,11,,,,,4,,62,100
38784,note_on,,,,,92,0,12,,,,,5,,38,100
38784,note_on,,,,,92,0,16,,,,,7,,50,100
38784,note_on,,,,,92,0,14,,,,,6,,50,100
38784,note_on,,,,,92,0,11,,,,,4,,50,100
38784,note_on,,,,,92,0,8,,,,,1,,62,100
38784,note_on,,,,,92,0,13,,,,,6,,62,100
38784,note_on,,,,,92,0,10,,,,,3,,62,100
38784,note_on,,,,,92,0,15,,,,,7,,62,100
38784,note_on,,,,,92,0,9,,,,,2,,62,100
38884,note_off,,,,,100,0,8,,,,,1,,62,100
38884,note_off,,,,,100,0,12,,,,,5,,38,100
38884,note_off,,,,,100,0,13,,,,,6,,62,100
38884,note_off,,,,,100,0,15,,,,,7,,62,100
38884,note_off,,,,,100,0,11,,,,,4,,50,100
38884,note_off,,,,,100,0,14,,,,,6,,50,100
38884,note_off,,,,,100,0,16,,,,,7,,50,100
38884,note_off,,,,,100,0,9,,,,,2,,62,100
38884,note_off,,,,,100,0,10,,,,,3,,62,100
38976,note_on,,,,,92,0,16,,,,,7,,62,100
38976,note_on,,,,,92,0,15,,,,,7,,74,100
38976,note_on,,,,,92,0,13,,,,,6,,74,100
38976,note_on,,,,,92,0,12,,,,,5,,50,100
38976,note_on,,,,,92,0,10,,,,,3,,74,100
38976,note_on,,,,,92,0,11,,,,,4,,62,100
38976,note_on,,,,,92,0,14,,,,,6,,62,100
38976,note_on,,,,,92,0,8,,,,,1,,74,100
38976,note_on,,,,,92,0,9,,,,,2,,74,100
39076,note_off,,,,,100,0,16,,,,,7,,62,100
39076,note_off,,,,,100,0,12,,,,,5,,50,100
39076,note_off,,,,,100,0,13,,,,,6,,74,100
39076,note_off,,,,,100,0,11,,,,,4,,62,100
39076,note_off,,,,,100,0,15,,,,,7,,74,100
39076,note_off,,,,,100,0,9,,,,,2,,74,100
39076,note_off,,,,,100,0,14,,,,,6,,62,100
39076,note_off,,,,,100,0,8,,,,,1,,74,100
39076,note_off,,,,,100,0,10,,,,,3,,74,100
39168,note_on,,,,,92,0,11,,,,,4,,62,100
39168,note_on,,,,,92,0,12,,,,,5,,50,100
39168,note_on,,,,,92,0,10,,,,,3,,74,100
39168,note_on,,,,,92,0,8,,,,,1,,74,100
39168,note_on,,,,,92,0,9,,,,,2,,74,100
39168,note_on,,,,,92,0,13,,,,,6,,74,100
39168,note_on,,,,,92,0,16,,,,,7,,62,100
39168,note_on,,,,,92,0,14,,,,,6,,62,100
39168,note_on,,,,,92,0,15,,,,,7,,74,100
39296,note_off,,,,,128,0,8,,,,,1,,74,100
39296,note_off,,,,,128,0,9,,,,,2,,74,100
39296,note_off,,,,,128,0,12,,,,,5,,50,100
39296,note_off,,,,,128,0,11,,,,,4,,62,100
39296,note_off,,,,,128,0,14,,,,,6,,62,100
39296,note_off,,,,,128,0,16,,,,,7,,62,100
39296,note_off,,,,,128,0,15,,,,,7,,74,100
39296,note_off,,,,,128,0,10,,,,,3,,74,100
39296,note_off,,,,,128,0,13,,,,,6,,74,100
39360,note_on,,,,,64,0,15,,,,,7,,72,100
39360,note_on,,,,,64,0,10,,,,,3,,72,100
39360,note_on,,,,,64,0,12,,,,,5,,48,100
39360,note_on,,,,,64,0,14,,,,,6,,60,100
39360,note_on,,,,,64,0,9,,,,,2,,72,100
39360,note_on,,,,,64,0,11,,,,,4,,60,100
39360,note_on,,,,,64,0,13,,,,,6,,72,100
39360,note_on,,,,,64,0,8,,,,,1,,72,100
39360,note_on,,,,,64,0,16,,,,,7,,60,100
39424,note_off,,,,,64,0,15,,,,,7,,72,100
39424,note_off,,,,,64,0,12,,,,,5,,48,100
39424,note_off,,,,,64,0,13,,,,,6,,72,100
39424,note_off,,,,,64,0,10,,,,,3,,72,100
39424,note_off,,,,,64,0,14,,,,,6,,60,100
39424,note_off,,,,,64,0,11,,,,,4,,60,100
39424,note_off,,,,,64,0,9,,,,,2,,72,100
39424,note_off,,,,,64,0,8,,,,,1,,72,100
39424,note_off,,,,,64,0,16,,,,,7,,60,100
39456,note_on,,,,,32,0,10,,,,,3,,70,100
39456,note_on,,,,,32,0,16,,,,,7,,58,100
39456,note_on,,,,,32,0,8,,,,,1,,70,100
39456,note_on,,,,,32,0,12,,,,,5,,46,100
39456,note_on,,,,,32,0,15,,,,,7,,70,100
39456,note_on,,,,,32,0,9,,,,,2,,70,100
39456,note_on,,,,,32,0,14,,,,,6,,58,100
39456,note_on,,,,,32,0,11,,,,,4,,58,100
39456,note_on,,,,,32,0,13,,,,,6,,70,100
39520,note_off,,,,,64,0,12,,,,,5,,46,100
39520,note_off,,,,,64,0,16,,,,,7,,58,100
39520,note_off,,,,,64,0,10,,,,,3,,70,100
39520,note_off,,,,,64,0,13,,,,,6,,70,100
39520,note_off,,,,,64,0,9,,,,,2,,70,100
39520,note_off,,,,,64,0,15,,,,,7,,70,100
39520,note_off,,,,,64,0,8,,,,,1,,70,100
39520,note_off,,,,,64,0,14,,,,,6,,58,100
39520,note_off,,,,,64,0,11,,,,,4,,58,100
39552,note_on,,,,,32,0,9,,,,,2,,69,100
39552,note_on,,,,,32,0,10,,,,,3,,69,100
39552,note_on,,,,,32,0,15,,,,,7,,69,100
39552,note_on,,,,,32,0,16,,,,,7,,57,100
39552,note_on,,,,,32,0,13,,,,,6,,69,100
39552,note_on,,,,,32,0,12,,,,,5,,45,100
39552,note_on,,,,,32,0,14,,,,,6,,57,100
39552,note_on,,,,,32,0,11,,,,,4,,57,100
39552,note_on,,,,,32,0,8,,,,,1,,69,100
39652,note_off,,,,,100,0,11,,,,,4,,57,100
39652,note_off,,,,,100,0,12,,,,,5,,45,100
39652,note_off,,,,,100,0,13,,,,,6,,69,100
39652,note_off,,,,,100,0,10,,,,,3,,69,100
39652,note_off,,,,,100,0,9,,,,,2,,69,100
39652,note_off,,,,,100,0,16,,,,,7,,57,100
39652,note_off,,,,,100,0,15,,,,,7,,69,100
39652,note_off,,,,,100,0,14,,,,,6,,57,100
39652,note_off,,,,,100,0,8,,,,,1,,69,100
39744,note_on,,,,,92,0,11,,,,,4,,57,100
39744,note_on,,,,,92,0,8,,,,,1,,69,100
39744,note_on,,,,,92,0,15,,,,,7,,69,100
39744,note_on,,,,,92,0,14,,,,,6,,57,100
39744,note_on,,,,,92,0,16,,,,,7,,57,100
39744,note_on,,,,,92,0,10,,,,,3,,69,100
39744,note_on,,,,,92,0,13,,,,,6,,69,100
39744,note_on,,,,,92,0,9,,,,,2,,69,100
39744,note_on,,,,,92,0,12,,,,,5,,45,100
39844,note_off,,,,,100,0,14,,,,,6,,57,100
39844,note_off,,,,,100,0,16,,,,,7,,57,100
39844,note_off,,,,,100,0,11,,,,,4,,57,100
39844,note_off,,,,,100,0,15,,,,,7,,69,100
39844,note_off,,,,,100,0,9,,,,,2,,69,100
39844,note_off,,,,,100,0,12,,,,,5,,45,100
39844,note_off,,,,,100,0,8,,,,,1,,69,100
39844,note_off,,,,,100,0,10,,,,,3,,69,100
39844,note_off,,,,,100,0,13,,,,,6,,69,100
39936,note_on,,,,,92,0,14,,,,,6,,62,100
39936,note_on,,,,,92,0,16,,,,,7,,62,100
39936,note_on,,,,,92,0,12,,,,,5,,50,100
39936,note_on,,,,,92,0,10,,,,,3,,74,100
39936,note_on,,,,,92,0,15,,,,,7,,74,100
39936,note_on,,,,,92,0,8,,,,,1,,74,100
39936,note_on,,,,,92,0,11,,,,,4,,62,100
39936,note_on,,,,,92,0,9,,,,,2,,74,100
39936,note_on,,,,,92,0,13,,,,,6,,74,100
40036,note_off,,,,,100,0,16,,,,,7,,62,100
40036,note_off,,,,,100,0,11,,,,,4,,62,100
40036,note_off,,,,,100,0,12,,,,,5,,50,100
40036,note_off,,,,,100,0,14,,,,,6,,62,100
40036,note_off,,,,,100,0,13,,,,,6,,74,100
40036,note_off,,,,,100,0,8,,,,,1,,74,100
40036,note_off,,,,,100,0,10,,,,,3,,74,100
40036,note_off,,,,,100,0,15,,,,,7,,74,100
40036,note_off,,,,,100,0,9,,,,,2,,74,100
40128,note_on,,,,,92,0,13,,,,,6,,65,100
40128,note_on,,,,,92,0,11,,,,,4,,53,100
40128,note_on,,,,,92,0,9,,,,,2,,65,100
40128,note_on,,,,,92,0,14,,,,,6,,53,100
40128,note_on,,,,,92,0,12,,,,,5,,41,100
40128,note_on,,,,,92,0,10,,,,,3,,65,100
40128,note_on,,,,,92,0,16,,,,,7,,53,100
40128,note_on,,,,,92,0,15,,,,,7,,65,100
40128,note_on,,,,,92,0,8,,,,,1,,65,100
40228,note_off,,,,,100,0,12,,,,,5,,41,100
40228,note_off,,,,,100,0,11,,,,,4,,53,100
40228,note_off,,,,,100,0,8,,,,,1,,65,100
40228,note_off,,,,,100,0,15,,,,,7,,65,100
40228,note_off,,,,,100,0,13,,,,,6,,65,100
40228,note_off,,,,,100,0,9,,,,,2,,65,100
40228,note_off,,,,,100,0,14,,,,,6,,53,100
40228,note_off,,,,,100,0,10,,,,,3,,65,100
40228,note_off,,,,,100,0,16,,,,,7,,53,100
40320,note_on,,,,,92,0,9,,,,,2,,67,100
40320,note_on,,,,,92,0,13,,,,,6,,67,100
40320,note_on,,,,,92,0,11,,,,,4,,55,100
40320,note_on,,,,,92,0,15,,,,,7,,67,100
40320,note_on,,,,,92,0,14,,,,,6,,55,100
40320,note_on,,,,,92,0,12,,,,,5,,43,100
40320,note_on,,,,,92,0,10,,,,,3,,67,100
40320,note_on,,,,,92,0,16,,,,,7,,55,100
40320,note_on,,,,,92,0,8,,,,,1,,67,100
40420,note_off,,,,,100,0,9,,,,,2,,67,100
40420,note_off,,,,,100,0,11,,,,,4,,55,100
40420,note_off,,,,,100,0,8,,,,,1,,67,100
40420,note_off,,,,,100,0,10,,,,,3,,67,100
40420,note_off,,,,,100,0,12,,,,,5,,43,100
40420,note_off,,,,,100,0,14,,,,,6,,55,100
40420,note_off,,,,,100,0,13,,,,,6,,67,100
40420,note_off,,,,,100,0,16,,,,,7,,55,100
40420,note_off,,,,,100,0,15,,,,,7,,67,100
40512,note_on,,,,,92,0,15,,,,,7,,69,100
40512,note_on,,,,,92,0,10,,,,,3,,69,100
40512,note_on,,,,,92,0,14,,,,,6,,57,100
40512,note_on,,,,,92,0,13,,,,,6,,69,100
40512,note_on,,,,,92,0,8,,,,,1,,69,100
40512,note_on,,,,,92,0,11,,,,,4,,57,100
40512,note_on,,,,,92,0,12,,,,,5,,45,100
40512,note_on,,,,,92,0,9,,,,,2,,69,100
40512,note_on,,,,,92,0,16,,,,,7,,57,100
40612,note_off,,,,,100,0,8,,,,,1,,69,100
40612,note_off,,,,,100,0,14,,,,,6,,57,100
40612,note_off,,,,,100,0,15,,,,,7,,69,100
40612,note_off,,,,,100,0,13,,,,,6,,69,100
40612,note_off,,,,,100,0,9,,,,,2,,69,100
40612,note_off,,,,,100,0,10,,,,,3,,69,100
40612,note_off,,,,,100,0,16,,,,,7,,57,100
40612,note_off,,,,,100,0,11,,,,,4,,57,100
40612,note_off,,,,,100,0,12,,,,,5,,45,100
40700,program_change,,,,,88,0,11,,,,,4,42,,
40704,note_on,,,,,92,0,16,,,,,7,,50,100
40704,note_on,,,,,92,0,13,,,,,6,,62,100
40704,note_on,,,,,92,0,14,,,,,6,,50,100
40704,note_on,,,,,4,0,11,,,,,4,,50,100
40704,note_on,,,,,92,0,8,,,,,1,,62,100
40704,note_on,,,,,92,0,15,,,,,7,,62,100
40704,note_on,,,,,92,0,12,,,,,5,,38,100
40704,note_on,,,,,92,0,10,,,,,3,,62,100
40704,note_on,,,,,92,0,9,,,,,2,,62,100
40804,note_off,,,,,100,0,14,,,,,6,,50,100
40804,note_off,,,,,100,0,11,,,,,4,,50,100
40804,note_off,,,,,100,0,9,,,,,2,,62,100
40892,program_change,,,,,88,0,9,,,,,2,40,,
40896,note_on,,,,,4,0,9,,,,,2,,74,95
40896,note_on,,,,,92,0,11,,,,,4,,62,75
40896,note_on,,,,,92,0,14,,,,,6,,62,100
40960,note_off,,,,,256,0,16,,,,,7,,50,100
40960,note_off,,,,,256,0,10,,,,,3,,62,100
40960,note_off,,,,,256,0,15,,,,,7,,62,100
40960,note_off,,,,,256,0,8,,,,,1,,62,100
40960,note_off,,,,,256,0,13,,,,,6,,62,100
40960,note_off,,,,,256,0,12,,,,,5,,38,100
40996,note_off,,,,,100,0,14,,,,,6,,62,100
40996,note_off,,,,,100,0,11,,,,,4,,62,100
40996,note_off,,,,,100,0,9,,,,,2,,74,100
41088,note_on,,,,,92,0,9,,,,,2,,84,95
41088,note_on,,,,,92,0,11,,,,,4,,50,75
41088,note_on,,,,,92,0,14,,,,,6,,50,100
41088,note_on,,,,,128,0,13,,,,,6,,69,100
41088,note_on,,,,,0,0,13,,,,,6,,72,100
41188,note_off,,,,,100,0,11,,,,,4,,50,100
41188,note_off,,,,,100,0,14,,,,,6,,50,100
41280,note_on,,,,,92,0,11,,,,,4,,62,75
41280,note_on,,,,,92,0,14,,,,,6,,62,100
41280,note_on,,,,,5824,0,7,,,,,0,,81,95
41344,note_off,,,,,0,0,13,,,,,6,,72,100
41344,note_off,,,,,256,0,13,,,,,6,,69,100
41360,note_off,,,,,80,0,7,,,,,0,,81,100
41380,note_off,,,,,100,0,14,,,,,6,,62,100
41380,note_off,,,,,100,0,11,,,,,4,,62,100
41472,note_on,,,,,92,0,11,,,,,4,,54,75
41472,note_on,,,,,0,0,13,,,,,6,,62,100
41472,note_on,,,,,92,0,14,,,,,6,,54,100
41472,note_on,,,,,128,0,13,,,,,6,,72,100
41472,note_on,,,,,112,0,7,,,,,0,,69,95
41572,note_off,,,,,100,0,7,,,,,0,,69,100
41600,note_off,,,,,512,0,9,,,,,2,,84,100
41664,note_on,,,,,92,0,7,,,,,0,,81,95
41664,note_on,,,,,64,0,9,,,,,2,,82,90
41728,note_off,,,,,256,0,14,,,,,6,,54,100
41728,note_off,,,,,0,0,13,,,,,6,,62,100
41728,note_off,,,,,256,0,13,,,,,6,,72,100
41728,note_off,,,,,256,0,11,,,,,4,,54,100
41728,note_off,,,,,64,0,9,,,,,2,,82,100
41760,note_on,,,,,32,0,9,,,,,2,,81,90
41764,note_off,,,,,100,0,7,,,,,0,,81,100
41824,note_off,,,,,64,0,9,,,,,2,,81,100
41856,note_on,,,,,92,0,7,,,,,0,,69,95
41856,note_on,,,,,32,0,9,,,,,2,,84,90
41956,note_off,,,,,100,0,7,,,,,0,,69,100
41956,note_off,,,,,100,0,9,,,,,2,,84,100
42048,note_on,,,,,92,0,7,,,,,0,,81,95
42048,note_on,,,,,92,0,9,,,,,2,,74,90
42148,note_off,,,,,100,0,7,,,,,0,,81,100
42148,note_off,,,,,100,0,9,,,,,2,,74,100
42240,note_on,,,,,0,0,13,,,,,6,,69,100
42240,note_on,,,,,512,0,13,,,,,6,,72,100
42240,note_on,,,,,512,0,11,,,,,4,,54,75
42240,note_on,,,,,92,0,7,,,,,0,,72,92
42240,note_on,,,,,512,0,14,,,,,6,,54,100
42240,note_on,,,,,92,0,9,,,,,2,,74,90
42332,note_off,,,,,92,0,7,,,,,0,,72,100
42336,note_on,,,,,4,0,7,,,,,0,,71,92
42340,note_off,,,,,100,0,14,,,,,6,,54,100
42340,note_off,,,,,100,0,11,,,,,4,,54,100
42428,note_off,,,,,92,0,7,,,,,0,,71,100
42428,note_off,,,,,188,0,13,,,,,6,,69,100
42432,note_on,,,,,4,0,7,,,,,0,,72,93
42432,note_on,,,,,4,0,13,,,,,6,,67,100
42432,note_on,,,,,92,0,14,,,,,6,,62,100
42432,note_on,,,,,92,0,11,,,,,4,,62,75
42496,note_off,,,,,64,0,7,,,,,0,,72,100
42524,note_off,,,,,92,0,13,,,,,6,,67,100
42528,note_on,,,,,4,0,13,,,,,6,,66,100
42528,note_on,,,,,32,0,7,,,,,0,,81,94
42532,note_off,,,,,100,0,14,,,,,6,,62,100
42532,note_off,,,,,100,0,11,,,,,4,,62,100
42592,note_off,,,,,64,0,7,,,,,0,,81,100
42620,note_off,,,,,92,0,13,,,,,6,,66,100
42624,note_on,,,,,32,0,7,,,,,0,,72,95
42624,note_on,,,,,4,0,13,,,,,6,,69,100
42624,note_on,,,,,92,0,14,,,,,6,,54,100
42624,note_on,,,,,92,0,11,,,,,4,,54,75
42716,note_off,,,,,92,0,7,,,,,0,,72,100
42720,note_on,,,,,4,0,7,,,,,0,,71,96
42724,note_off,,,,,100,0,11,,,,,4,,54,100
42724,note_off,,,,,100,0,14,,,,,6,,54,100
42812,note_off,,,,,188,0,13,,,,,6,,69,100
42812,note_off,,,,,92,0,7,,,,,0,,71,100
42816,note_on,,,,,4,0,13,,,,,6,,67,100
42816,note_on,,,,,4,0,7,,,,,0,,72,97
42816,note_on,,,,,92,0,14,,,,,6,,62,100
42816,note_on,,,,,92,0,11,,,,,4,,62,75
42852,note_off,,,,,36,0,13,,,,,6,,72,100
42880,note_off,,,,,64,0,7,,,,,0,,72,100
42908,note_off,,,,,56,0,13,,,,,6,,67,100
42912,note_on,,,,,32,0,7,,,,,0,,81,98
42912,note_on,,,,,4,0,13,,,,,6,,66,100
42916,note_off,,,,,100,0,11,,,,,4,,62,100
42916,note_off,,,,,100,0,14,,,,,6,,62,100
42928,note_off,,,,,688,0,9,,,,,2,,74,100
42976,note_off,,,,,64,0,13,,,,,6,,66,100
42976,note_off,,,,,64,0,7,,,,,0,,81,100
43008,note_on,,,,,92,0,14,,,,,6,,54,100
43008,note_on,,,,,92,0,11,,,,,4,,54,75
43008,note_on,,,,,0,0,13,,,,,6,,72,100
43008,note_on,,,,,32,0,7,,,,,0,,72,100
43008,note_on,,,,,32,0,13,,,,,6,,69,100
43100,note_off,,,,,92,0,7,,,,,0,,72,100
43104,note_on,,,,,4,0,7,,,,,0,,71,100
43196,note_off,,,,,92,0,7,,,,,0,,71,100
43200,note_on,,,,,4,0,7,,,,,0,,72,99
43264,note_off,,,,,256,0,14,,,,,6,,54,100
43264,note_off,,,,,0,0,13,,,,,6,,72,100
43264,note_off,,,,,256,0,13,,,,,6,,69,100
43264,note_off,,,,,256,0,11,,,,,4,,54,100
43264,note_off,,,,,64,0,7,,,,,0,,72,100
43296,note_on,,,,,32,0,7,,,,,0,,81,98
43360,note_off,,,,,64,0,7,,,,,0,,81,100
43392,note_on,,,,,32,0,7,,,,,0,,72,97
43484,note_off,,,,,92,0,7,,,,,0,,72,100
43488,note_on,,,,,4,0,7,,,,,0,,70,96
43580,note_off,,,,,92,0,7,,,,,0,,70,100
43584,note_on,,,,,320,0,11,,,,,4,,50,75
43584,note_on,,,,,320,0,14,,,,,6,,50,100
43584,note_on,,,,,320,0,13,,,,,6,,69,100
43584,note_on,,,,,0,0,13,,,,,6,,72,100
43584,note_on,,,,,4,0,7,,,,,0,,72,95
43648,note_off,,,,,64,0,7,,,,,0,,72,100
43680,note_on,,,,,32,0,7,,,,,0,,69,94
43684,note_off,,,,,100,0,13,,,,,6,,69,100
43684,note_off,,,,,100,0,14,,,,,6,,50,100
43684,note_off,,,,,100,0,11,,,,,4,,50,100
43684,note_off,,,,,0,0,13,,,,,6,,72,100
43744,note_off,,,,,64,0,7,,,,,0,,69,100
43776,note_on,,,,,32,0,7,,,,,0,,70,93
43776,note_on,,,,,0,0,13,,,,,6,,70,100
43776,note_on,,,,,92,0,11,,,,,4,,43,75
43776,note_on,,,,,92,0,13,,,,,6,,62,100
43776,note_on,,,,,0,0,13,,,,,6,,67,100
43776,note_on,,,,,92,0,14,,,,,6,,43,100
43876,note_off,,,,,100,0,11,,,,,4,,43,100
43876,note_off,,,,,100,0,14,,,,,6,,43,100
43968,note_on,,,,,92,0,11,,,,,4,,55,75
43968,note_on,,,,,92,0,14,,,,,6,,55,100
43968,note_on,,,,,1040,0,9,,,,,2,,74,95
44032,note_off,,,,,256,0,7,,,,,0,,70,100
44068,note_off,,,,,100,0,14,,,,,6,,55,100
44068,note_off,,,,,100,0,9,,,,,2,,74,100
44068,note_off,,,,,100,0,11,,,,,4,,55,100
44160,note_on,,,,,92,0,14,,,,,6,,43,100
44160,note_on,,,,,92,0,9,,,,,2,,82,95
44160,note_on,,,,,92,0,11,,,,,4,,43,75
44260,note_off,,,,,100,0,11,,,,,4,,43,100
44260,note_off,,,,,100,0,14,,,,,6,,43,100
44352,note_on,,,,,320,0,7,,,,,0,,79,95
44352,note_on,,,,,92,0,11,,,,,4,,55,75
44352,note_on,,,,,92,0,14,,,,,6,,55,100
44388,note_off,,,,,0,0,13,,,,,6,,67,100
44388,note_off,,,,,0,0,13,,,,,6,,70,100
44388,note_off,,,,,612,0,13,,,,,6,,62,100
44432,note_off,,,,,80,0,7,,,,,0,,79,100
44452,note_off,,,,,100,0,11,,,,,4,,55,100
44452,note_off,,,,,100,0,14,,,,,6,,55,100
44544,note_on,,,,,92,0,14,,,,,6,,52,100
44544,note_on,,,,,0,0,13,,,,,6,,70,100
44544,note_on,,,,,156,0,13,,,,,6,,60,100
44544,note_on,,,,,112,0,7,,,,,0,,67,95
44544,note_on,,,,,92,0,11,,,,,4,,52,75
44644,note_off,,,,,100,0,7,,,,,0,,67,100
44672,note_off,,,,,512,0,9,,,,,2,,82,100
44736,note_on,,,,,64,0,9,,,,,2,,81,90
44736,note_on,,,,,92,0,7,,,,,0,,79,95
44800,note_off,,,,,0,0,13,,,,,6,,70,100
44800,note_off,,,,,256,0,11,,,,,4,,52,100
44800,note_off,,,,,256,0,13,,,,,6,,60,100
44800,note_off,,,,,64,0,9,,,,,2,,81,100
44800,note_off,,,,,256,0,14,,,,,6,,52,100
44832,note_on,,,,,32,0,9,,,,,2,,79,90
44836,note_off,,,,,100,0,7,,,,,0,,79,100
44896,note_off,,,,,64,0,9,,,,,2,,79,100
44928,note_on,,,,,32,0,9,,,,,2,,82,90
44928,note_on,,,,,92,0,7,,,,,0,,67,95
45028,note_off,,,,,100,0,9,,,,,2,,82,100
45028,note_off,,,,,100,0,7,,,,,0,,67,100
45120,note_on,,,,,92,0,7,,,,,0,,79,95
45120,note_on,,,,,92,0,9,,,,,2,,72,90
45220,note_off,,,,,100,0,7,,,,,0,,79,100
45220,note_off,,,,,100,0,9,,,,,2,,72,100
45312,note_on,,,,,92,0,9,,,,,2,,72,90
45312,note_on,,,,,0,0,13,,,,,6,,67,100
45312,note_on,,,,,512,0,13,,,,,6,,70,100
45312,note_on,,,,,512,0,11,,,,,4,,52,75
45312,note_on,,,,,92,0,7,,,,,0,,70,92
45312,note_on,,,,,512,0,14,,,,,6,,52,100
45404,note_off,,,,,92,0,7,,,,,0,,70,100
45408,note_on,,,,,4,0,7,,,,,0,,69,92
45412,note_off,,,,,100,0,14,,,,,6,,52,100
45412,note_off,,,,,100,0,11,,,,,4,,52,100
45500,note_off,,,,,92,0,7,,,,,0,,69,100
45500,note_off,,,,,188,0,13,,,,,6,,67,100
45504,note_on,,,,,4,0,7,,,,,0,,70,93
45504,note_on,,,,,92,0,14,,,,,6,,60,100
45504,note_on,,,,,92,0,11,,,,,4,,60,75
45504,note_on,,,,,4,0,13,,,,,6,,65,100
45568,note_off,,,,,64,0,7,,,,,0,,70,100
45596,note_off,,,,,92,0,13,,,,,6,,65,100
45600,note_on,,,,,32,0,7,,,,,0,,79,94
45600,note_on,,,,,4,0,13,,,,,6,,64,100
45604,note_off,,,,,100,0,14,,,,,6,,60,100
45604,note_off,,,,,100,0,11,,,,,4,,60,100
45664,note_off,,,,,64,0,7,,,,,0,,79,100
45692,note_off,,,,,92,0,13,,,,,6,,64,100
45696,note_on,,,,,92,0,14,,,,,6,,52,100
45696,note_on,,,,,32,0,7,,,,,0,,70,95
45696,note_on,,,,,4,0,13,,,,,6,,67,100
45696,note_on,,,,,92,0,11,,,,,4,,52,75
45788,note_off,,,,,92,0,7,,,,,0,,70,100
45792,note_on,,,,,4,0,7,,,,,0,,69,96
45796,note_off,,,,,100,0,11,,,,,4,,52,100
45796,note_off,,,,,100,0,14,,,,,6,,52,100
45884,note_off,,,,,188,0,13,,,,,6,,67,100
45884,note_off,,,,,92,0,7,,,,,0,,69,100
45888,note_on,,,,,4,0,13,,,,,6,,65,100
45888,note_on,,,,,4,0,7,,,,,0,,70,97
45888,note_on,,,,,92,0,11,,,,,4,,60,75
45888,note_on,,,,,92,0,14,,,,,6,,60,100
45924,note_off,,,,,36,0,13,,,,,6,,70,100
45952,note_off,,,,,64,0,7,,,,,0,,70,100
45980,note_off,,,,,56,0,13,,,,,6,,65,100
45984,note_on,,,,,32,0,7,,,,,0,,79,98
45984,note_on,,,,,4,0,13,,,,,6,,64,100
45988,note_off,,,,,100,0,14,,,,,6,,60,100
45988,note_off,,,,,100,0,11,,,,,4,,60,100
46000,note_off,,,,,688,0,9,,,,,2,,72,100
46048,note_off,,,,,64,0,13,,,,,6,,64,100
46048,note_off,,,,,64,0,7,,,,,0,,79,100
46080,note_on,,,,,92,0,14,,,,,6,,52,100
46080,note_on,,,,,0,0,13,,,,,6,,70,100
46080,note_on,,,,,32,0,13,,,,,6,,67,100
46080,note_on,,,,,92,0,11,,,,,4,,52,75
46080,note_on,,,,,32,0,7,,,,,0,,70,100
46172,note_off,,,,,92,0,7,,,,,0,,70,100
46176,note_on,,,,,4,0,7,,,,,0,,69,100
46268,note_off,,,,,92,0,7,,,,,0,,69,100
46272,note_on,,,,,4,0,7,,,,,0,,70,99
46336,note_off,,,,,64,0,7,,,,,0,,70,100
46336,note_off,,,,,256,0,11,,,,,4,,52,100
46336,note_off,,,,,0,0,13,,,,,6,,70,100
46336,note_off,,,,,256,0,13,,,,,6,,67,100
46336,note_off,,,,,256,0,14,,,,,6,,52,100
46368,note_on,,,,,32,0,7,,,,,0,,79,98
46432,note_off,,,,,64,0,7,,,,,0,,79,100
46464,note_on,,,,,32,0,7,,,,,0,,70,97
46556,note_off,,,,,92,0,7,,,,,0,,70,100
46560,note_on,,,,,4,0,7,,,,,0,,69,96
46652,note_off,,,,,92,0,7,,,,,0,,69,100
46656,note_on,,,,,4,0,7,,,,,0,,70,95
46656,note_on,,,,,0,0,13,,,,,6,,70,100
46656,note_on,,,,,320,0,13,,,,,6,,67,100
46656,note_on,,,,,320,0,11,,,,,4,,48,75
46656,note_on,,,,,320,0,14,,,,,6,,48,100
46720,note_off,,,,,64,0,7,,,,,0,,70,100
46752,note_on,,,,,32,0,7,,,,,0,,67,94
46756,note_off,,,,,0,0,13,,,,,6,,70,100
46756,note_off,,,,,100,0,13,,,,,6,,67,100
46756,note_off,,,,,100,0,14,,,,,6,,48,100
46756,note_off,,,,,100,0,11,,,,,4,,48,100
46816,note_off,,,,,64,0,7,,,,,0,,67,100
46848,note_on,,,,,32,0,7,,,,,0,,69,93
46848,note_on,,,,,0,0,13,,,,,6,,69,100
46848,note_on,,,,,92,0,14,,,,,6,,41,100
46848,note_on,,,,,92,0,13,,,,,6,,60,100
46848,note_on,,,,,92,0,11,,,,,4,,41,75
46848,note_on,,,,,0,0,13,,,,,6,,65,100
46948,note_off,,,,,100,0,11,,,,,4,,41,100
46948,note_off,,,,,100,0,14,,,,,6,,41,100
47040,note_on,,,,,92,0,11,,,,,4,,53,76
47040,note_on,,,,,92,0,14,,,,,6,,53,100
47104,note_off,,,,,256,0,7,,,,,0,,69,100
47104,note_off,,,,,256,0,13,,,,,6,,60,100
47104,note_off,,,,,0,0,13,,,,,6,,69,100
47104,note_off,,,,,0,0,13,,,,,6,,65,100
47140,note_off,,,,,100,0,11,,,,,4,,53,100
47140,note_off,,,,,100,0,14,,,,,6,,53,100
47232,note_on,,,,,0,0,13,,,,,6,,65,100
47232,note_on,,,,,128,0,13,,,,,6,,72,100
47232,note_on,,,,,0,0,13,,,,,6,,69,100
47232,note_on,,,,,92,0,14,,,,,6,,41,100
47232,note_on,,,,,92,0,11,,,,,4,,41,76
47328,note_on,,,,,224,0,7,,,,,0,,65,85
47332,note_off,,,,,100,0,14,,,,,6,,41,100
47332,note_off,,,,,100,0,11,,,,,4,,41,100
47392,note_off,,,,,64,0,7,,,,,0,,65,100
47424,note_on,,,,,92,0,11,,,,,4,,53,77
47424,note_on,,,,,32,0,7,,,,,0,,69,85
47424,note_on,,,,,92,0,14,,,,,6,,53,100
47488,note_off,,,,,256,0,13,,,,,6,,72,100
47488,note_off,,,,,64,0,7,,,,,0,,69,100
47488,note_off,,,,,0,0,13,,,,,6,,69,100
47488,note_off,,,,,0,0,13,,,,,6,,65,100
47520,note_on,,,,,32,0,7,,,,,0,,72,86
47524,note_off,,,,,100,0,11,,,,,4,,53,100
47524,note_off,,,,,100,0,14,,,,,6,,53,100
47584,note_off,,,,,64,0,7,,,,,0,,72,100
47616,note_on,,,,,32,0,7,,,,,0,,70,86
47616,note_on,,,,,92,0,11,,,,,4,,43,77
47616,note_on,,,,,0,0,13,,,,,6,,70,100
47616,note_on,,,,,0,0,13,,,,,6,,62,100
47616,note_on,,,,,128,0,13,,,,,6,,67,100
47616,note_on,,,,,92,0,14,,,,,6,,43,100
47680,note_off,,,,,64,0,7,,,,,0,,70,100
47712,note_on,,,,,32,0,7,,,,,0,,67,87
47716,note_off,,,,,100,0,14,,,,,6,,43,100
47716,note_off,,,,,100,0,11,,,,,4,,43,100
47776,note_off,,,,,64,0,7,,,,,0,,67,100
47804,note_off,,,,,188,0,13,,,,,6,,62,100
47808,note_on,,,,,32,0,7,,,,,0,,70,88
47808,note_on,,,,,4,0,13,,,,,6,,64,100
47808,note_on,,,,,92,0,14,,,,,6,,55,100
47808,note_on,,,,,92,0,11,,,,,4,,55,78
47872,note_off,,,,,64,0,7,,,,,0,,70,100
47872,note_off,,,,,64,0,13,,,,,6,,67,100
47872,note_off,,,,,0,0,13,,,,,6,,70,100
47904,note_on,,,,,32,0,7,,,,,0,,76,88
47908,note_off,,,,,100,0,11,,,,,4,,55,100
47908,note_off,,,,,100,0,14,,,,,6,,55,100
47968,note_off,,,,,64,0,7,,,,,0,,76,100
48000,note_on,,,,,92,0,11,,,,,4,,45,79
48000,note_on,,,,,128,0,13,,,,,6,,69,100
48000,note_on,,,,,0,0,13,,,,,6,,72,100
48000,note_on,,,,,92,0,14,,,,,6,,45,100
48000,note_on,,,,,32,0,7,,,,,0,,72,89
48064,note_off,,,,,64,0,7,,,,,0,,72,100
48096,note_on,,,,,32,0,7,,,,,0,,69,90
48100,note_off,,,,,100,0,11,,,,,4,,45,100
48100,note_off,,,,,100,0,14,,,,,6,,45,100
48160,note_off,,,,,64,0,7,,,,,0,,69,100
48188,note_off,,,,,188,0,13,,,,,6,,64,100
48192,note_on,,,,,92,0,14,,,,,6,,57,100
48192,note_on,,,,,4,0,13,,,,,6,,65,100
48192,note_on,,,,,92,0,11,,,,,4,,57,79
48192,note_on,,,,,32,0,7,,,,,0,,72,90
48256,note_off,,,,,64,0,7,,,,,0,,72,100
48256,note_off,,,,,0,0,13,,,,,6,,72,100
48256,note_off,,,,,64,0,13,,,,,6,,69,100
48288,note_on,,,,,32,0,7,,,,,0,,77,91
48292,note_off,,,,,100,0,14,,,,,6,,57,100
48292,note_off,,,,,100,0,11,,,,,4,,57,100
48352,note_off,,,,,64,0,7,,,,,0,,77,100
48384,note_on,,,,,32,0,7,,,,,0,,74,92
48384,note_on,,,,,128,0,13,,,,,6,,70,100
48384,note_on,,,,,0,0,13,,,,,6,,74,100
48384,note_on,,,,,92,0,14,,,,,6,,46,100
48384,note_on,,,,,92,0,11,,,,,4,,46,80
48448,note_off,,,,,64,0,7,,,,,0,,74,100
48480,note_on,,,,,32,0,7,,,,,0,,70,92
48484,note_off,,,,,100,0,14,,,,,6,,46,100
48484,note_off,,,,,100,0,11,,,,,4,,46,100
48544,note_off,,,,,64,0,7,,,,,0,,70,100
48572,note_off,,,,,188,0,13,,,,,6,,65,100
48576,note_on,,,,,4,0,13,,,,,6,,67,100
48576,note_on,,,,,32,0,7,,,,,0,,74,93
48576,note_on,,,,,92,0,11,,,,,4,,58,80
48576,note_on,,,,,92,0,14,,,,,6,,58,100
48640,note_off,,,,,64,0,7,,,,,0,,74,100
48640,note_off,,,,,64,0,13,,,,,6,,70,100
48640,note_off,,,,,0,0,13,,,,,6,,74,100
48672,note_on,,,,,32,0,7,,,,,0,,79,94
48676,note_off,,,,,100,0,14,,,,,6,,58,100
48676,note_off,,,,,100,0,11,,,,,4,,58,100
48736,note_off,,,,,64,0,7,,,,,0,,79,100
48768,note_on,,,,,128,0,13,,,,,6,,72,100
48768,note_on,,,,,32,0,7,,,,,0,,76,94
48768,note_on,,,,,92,0,11,,,,,4,,48,81
48768,note_on,,,,,92,0,14,,,,,6,,48,100
48768,note_on,,,,,0,0,13,,,,,6,,76,100
48832,note_off,,,,,64,0,7,,,,,0,,76,100
48864,note_on,,,,,32,0,7,,,,,0,,72,95
48868,note_off,,,,,100,0,11,,,,,4,,48,100
48868,note_off,,,,,100,0,14,,,,,6,,48,100
48928,note_off,,,,,64,0,7,,,,,0,,72,100
48956,note_off,,,,,188,0,13,,,,,6,,67,100
48960,note_on,,,,,4,0,13,,,,,6,,69,100
48960,note_on,,,,,92,0,14,,,,,6,,60,100
48960,note_on,,,,,32,0,7,,,,,0,,76,96
48960,note_on,,,,,92,0,11,,,,,4,,60,82
49024,note_off,,,,,0,0,13,,,,,6,,76,100
49024,note_off,,,,,64,0,7,,,,,0,,76,100
49024,note_off,,,,,64,0,13,,,,,6,,72,100
49056,note_on,,,,,32,0,7,,,,,0,,81,96
49060,note_off,,,,,100,0,14,,,,,6,,60,100
49060,note_off,,,,,100,0,11,,,,,4,,60,100
49120,note_off,,,,,64,0,7,,,,,0,,81,100
49152,note_on,,,,,92,0,14,,,,,6,,50,100
49152,note_on,,,,,32,0,7,,,,,0,,77,97
49152,note_on,,,,,0,0,13,,,,,6,,77,100
49152,note_on,,,,,128,0,13,,,,,6,,74,100
49152,note_on,,,,,92,0,11,,,,,4,,50,82
49216,note_off,,,,,64,0,7,,,,,0,,77,100
49248,note_on,,,,,32,0,7,,,,,0,,74,98
49252,note_off,,,,,100,0,11,,,,,4,,50,100
49252,note_off,,,,,100,0,14,,,,,6,,50,100
49312,note_off,,,,,64,0,7,,,,,0,,74,100
49340,note_off,,,,,188,0,13,,,,,6,,69,100
49344,note_on,,,,,92,0,14,,,,,6,,62,100
49344,note_on,,,,,32,0,7,,,,,0,,77,98
49344,note_on,,,,,4,0,13,,,,,6,,70,100
49344,note_on,,,,,92,0,11,,,,,4,,62,83
49408,note_off,,,,,64,0,7,,,,,0,,77,100
49408,note_off,,,,,64,0,13,,,,,6,,74,100
49408,note_off,,,,,0,0,13,,,,,6,,77,100
49440,note_on,,,,,32,0,7,,,,,0,,82,99
49444,note_off,,,,,100,0,14,,,,,6,,62,100
49444,note_off,,,,,100,0,11,,,,,4,,62,100
49504,note_off,,,,,64,0,7,,,,,0,,82,100
49532,note_off,,,,,124,0,13,,,,,6,,70,100
49536,note_on,,,,,32,0,7,,,,,0,,77,100
49536,note_on,,,,,4,0,13,,,,,6,,69,100
49536,note_on,,,,,0,0,13,,,,,6,,74,100
49536,note_on,,,,,92,0,11,,,,,4,,50,83
49536,note_on,,,,,0,0,13,,,,,6,,77,100
49536,note_on,,,,,92,0,14,,,,,6,,50,100
49600,note_off,,,,,64,0,7,,,,,0,,77,100
49632,note_on,,,,,32,0,7,,,,,0,,74,100
49636,note_off,,,,,100,0,14,,,,,6,,50,100
49636,note_off,,,,,100,0,11,,,,,4,,50,100
49696,note_off,,,,,64,0,7,,,,,0,,74,100
49724,note_off,,,,,188,0,13,,,,,6,,69,100
49728,note_on,,,,,4,0,13,,,,,6,,70,100
49728,note_on,,,,,92,0,11,,,,,4,,62,84
49728,note_on,,,,,32,0,7,,,,,0,,77,101
49728,note_on,,,,,92,0,14,,,,,6,,62,100
49728,note_on,,,,,3728,0,9,,,,,2,,74,100
49792,note_off,,,,,0,0,13,,,,,6,,77,100
49792,note_off,,,,,64,0,13,,,,,6,,74,100
49792,note_off,,,,,64,0,7,,,,,0,,77,100
49824,note_on,,,,,32,0,7,,,,,0,,82,101
49828,note_off,,,,,100,0,14,,,,,6,,62,100
49828,note_off,,,,,100,0,9,,,,,2,,74,100
49828,note_off,,,,,100,0,11,,,,,4,,62,100
49856,note_off,,,,,64,0,13,,,,,6,,70,100
49888,note_off,,,,,64,0,7,,,,,0,,82,100
49920,note_on,,,,,64,0,13,,,,,6,,70,100
49920,note_on,,,,,92,0,9,,,,,2,,82,100
49920,note_on,,,,,0,0,13,,,,,6,,72,100
49920,note_on,,,,,0,0,13,,,,,6,,79,100
49920,note_on,,,,,92,0,14,,,,,6,,52,100
49920,note_on,,,,,32,0,7,,,,,0,,72,100
49920,note_on,,,,,92,0,11,,,,,4,,52,85
50020,note_off,,,,,100,0,11,,,,,4,,52,100
50020,note_off,,,,,100,0,14,,,,,6,,52,100
50048,note_off,,,,,128,0,9,,,,,2,,82,100
50112,note_on,,,,,92,0,11,,,,,4,,60,85
50112,note_on,,,,,92,0,14,,,,,6,,60,100
50112,note_on,,,,,64,0,9,,,,,2,,80,100
50176,note_off,,,,,64,0,9,,,,,2,,80,100
50208,note_on,,,,,32,0,9,,,,,2,,79,100
50212,note_off,,,,,100,0,11,,,,,4,,60,100
50212,note_off,,,,,100,0,14,,,,,6,,60,100
50272,note_off,,,,,64,0,9,,,,,2,,79,100
50304,note_on,,,,,92,0,14,,,,,6,,52,100
50304,note_on,,,,,32,0,9,,,,,2,,82,100
50304,note_on,,,,,92,0,11,,,,,4,,52,85
50304,note_off,,,,,384,0,7,,,,,0,,72,100
50404,note_off,,,,,100,0,14,,,,,6,,52,100
50404,note_off,,,,,100,0,9,,,,,2,,82,100
50404,note_off,,,,,100,0,11,,,,,4,,52,100
50496,note_on,,,,,92,0,14,,,,,6,,60,100
50496,note_on,,,,,92,0,11,,,,,4,,60,85
50496,note_on,,,,,192,0,7,,,,,0,,82,100
50496,note_on,,,,,92,0,9,,,,,2,,72,98
50532,note_off,,,,,0,0,13,,,,,6,,79,100
50532,note_off,,,,,612,0,13,,,,,6,,70,100
50532,note_off,,,,,0,0,13,,,,,6,,72,100
50596,note_off,,,,,100,0,14,,,,,6,,60,100
50596,note_off,,,,,100,0,11,,,,,4,,60,100
50596,note_off,,,,,100,0,9,,,,,2,,72,100
50596,note_off,,,,,100,0,7,,,,,0,,82,100
50688,note_on,,,,,156,0,13,,,,,6,,70,100
50688,note_on,,,,,0,0,13,,,,,6,,79,100
50688,note_on,,,,,0,0,13,,,,,6,,72,100
50688,note_on,,,,,92,0,14,,,,,6,,52,100
50688,note_on,,,,,92,0,11,,,,,4,,52,85
50688,note_on,,,,,92,0,7,,,,,0,,82,100
50688,note_on,,,,,92,0,9,,,,,2,,72,96
50816,note_off,,,,,128,0,7,,,,,0,,82,100
50880,note_on,,,,,64,0,7,,,,,0,,80,100
50944,note_off,,,,,64,0,7,,,,,0,,80,100
50944,note_off,,,,,0,0,13,,,,,6,,72,100
50944,note_off,,,,,0,0,13,,,,,6,,79,100
50944,note_off,,,,,256,0,11,,,,,4,,52,100
50944,note_off,,,,,256,0,13,,,,,6,,70,100
50944,note_off,,,,,256,0,14,,,,,6,,52,100
50976,note_on,,,,,32,0,7,,,,,0,,79,100
51040,note_off,,,,,64,0,7,,,,,0,,79,100
51072,note_on,,,,,32,0,7,,,,,0,,80,100
51072,note_off,,,,,384,0,9,,,,,2,,72,100
51172,note_off,,,,,100,0,7,,,,,0,,80,100
51264,note_on,,,,,320,0,11,,,,,4,,53,85
51264,note_on,,,,,92,0,7,,,,,0,,77,100
51264,note_on,,,,,320,0,14,,,,,6,,53,100
51264,note_on,,,,,0,0,13,,,,,6,,77,100
51264,note_on,,,,,320,0,13,,,,,6,,72,100
51264,note_on,,,,,192,0,9,,,,,2,,72,100
51264,note_on,,,,,0,0,13,,,,,6,,80,100
51364,note_off,,,,,100,0,13,,,,,6,,72,100
51364,note_off,,,,,100,0,14,,,,,6,,53,100
51364,note_off,,,,,100,0,11,,,,,4,,53,100
51364,note_off,,,,,100,0,9,,,,,2,,72,100
51364,note_off,,,,,100,0,7,,,,,0,,77,100
51364,note_off,,,,,0,0,13,,,,,6,,80,100
51364,note_off,,,,,0,0,13,,,,,6,,77,100
51456,note_on,,,,,92,0,7,,,,,0,,72,100
51456,note_on,,,,,92,0,14,,,,,6,,52,100
51456,note_on,,,,,92,0,9,,,,,2,,82,100
51456,note_on,,,,,0,0,13,,,,,6,,79,100
51456,note_on,,,,,0,0,13,,,,,6,,72,100
51456,note_on,,,,,92,0,13,,,,,6,,70,100
51456,note_on,,,,,92,0,11,,,,,4,,52,85
51556,note_off,,,,,100,0,11,,,,,4,,52,100
51556,note_off,,,,,100,0,14,,,,,6,,52,100
51584,note_off,,,,,128,0,9,,,,,2,,82,100
51648,note_on,,,,,64,0,9,,,,,2,,80,100
51648,note_on,,,,,92,0,11,,,,,4,,60,85
51648,note_on,,,,,92,0,14,,,,,6,,60,100
51712,note_off,,,,,64,0,9,,,,,2,,80,100
51744,note_on,,,,,32,0,9,,,,,2,,79,100
51748,note_off,,,,,100,0,11,,,,,4,,60,100
51748,note_off,,,,,100,0,14,,,,,6,,60,100
51808,note_off,,,,,64,0,9,,,,,2,,79,100
51840,note_on,,,,,92,0,14,,,,,6,,52,100
51840,note_off,,,,,384,0,7,,,,,0,,72,100
51840,note_on,,,,,32,0,9,,,,,2,,82,100
51840,note_on,,,,,92,0,11,,,,,4,,52,85
51940,note_off,,,,,100,0,14,,,,,6,,52,100
51940,note_off,,,,,100,0,11,,,,,4,,52,100
51940,note_off,,,,,100,0,9,,,,,2,,82,100
52032,note_on,,,,,92,0,14,,,,,6,,60,100
52032,note_on,,,,,192,0,7,,,,,0,,82,100
52032,note_on,,,,,92,0,11,,,,,4,,60,85
52032,note_on,,,,,92,0,9,,,,,2,,72,98
52068,note_off,,,,,0,0,13,,,,,6,,79,100
52068,note_off,,,,,0,0,13,,,,,6,,72,100
52068,note_off,,,,,612,0,13,,,,,6,,70,100
52132,note_off,,,,,100,0,7,,,,,0,,82,100
52132,note_off,,,,,100,0,9,,,,,2,,72,100
52132,note_off,,,,,100,0,14,,,,,6,,60,100
52132,note_off,,,,,100,0,11,,,,,4,,60,100
52224,note_on,,,,,92,0,14,,,,,6,,52,100
52224,note_on,,,,,92,0,9,,,,,2,,72,96
52224,note_on,,,,,156,0,13,,,,,6,,70,100
52224,note_on,,,,,0,0,13,,,,,6,,72,100
52224,note_on,,,,,0,0,13,,,,,6,,79,100
52224,note_on,,,,,92,0,11,,,,,4,,52,85
52224,note_on,,,,,92,0,7,,,,,0,,82,100
52352,note_off,,,,,128,0,7,,,,,0,,82,100
52416,note_on,,,,,64,0,7,,,,,0,,80,100
52480,note_off,,,,,0,0,13,,,,,6,,79,100
52480,note_off,,,,,0,0,13,,,,,6,,72,100
52480,note_off,,,,,64,0,7,,,,,0,,80,100
52480,note_off,,,,,256,0,13,,,,,6,,70,100
52480,note_off,,,,,256,0,14,,,,,6,,52,100
52480,note_off,,,,,256,0,11,,,,,4,,52,100
52512,note_on,,,,,32,0,7,,,,,0,,79,100
52576,note_off,,,,,64,0,7,,,,,0,,79,100
52608,note_off,,,,,384,0,9,,,,,2,,72,100
52608,note_on,,,,,32,0,7,,,,,0,,80,100
52708,note_off,,,,,100,0,7,,,,,0,,80,100
52800,note_on,,,,,92,0,7,,,,,0,,77,100
52800,note_on,,,,,320,0,13,,,,,6,,72,100
52800,note_on,,,,,320,0,14,,,,,6,,53,100
52800,note_on,,,,,320,0,11,,,,,4,,53,85
52800,note_on,,,,,192,0,9,,,,,2,,72,100
52800,note_on,,,,,0,0,13,,,,,6,,80,100
52800,note_on,,,,,0,0,13,,,,,6,,77,100
52900,note_off,,,,,100,0,13,,,,,6,,72,100
52900,note_off,,,,,0,0,13,,,,,6,,77,100
52900,note_off,,,,,0,0,13,,,,,6,,80,100
52900,note_off,,,,,100,0,11,,,,,4,,53,100
52900,note_off,,,,,100,0,7,,,,,0,,77,100
52900,note_off,,,,,100,0,14,,,,,6,,53,100
52900,note_off,,,,,100,0,9,,,,,2,,72,100
52992,note_on,,,,,92,0,11,,,,,4,,52,85
52992,note_on,,,,,92,0,14,,,,,6,,52,100
52992,note_on,,,,,92,0,7,,,,,0,,70,100
52992,note_on,,,,,92,0,9,,,,,2,,79,100
52992,note_on,,,,,92,0,13,,,,,6,,70,100
52992,note_on,,,,,0,0,13,,,,,6,,72,100
52992,note_on,,,,,0,0,13,,,,,6,,79,100
53092,note_off,,,,,100,0,14,,,,,6,,52,100
53092,note_off,,,,,100,0,11,,,,,4,,52,100
53120,note_off,,,,,128,0,9,,,,,2,,79,100
53184,note_on,,,,,92,0,11,,,,,4,,60,85
53184,note_on,,,,,64,0,9,,,,,2,,77,100
53184,note_on,,,,,92,0,14,,,,,6,,60,100
53248,note_off,,,,,64,0,9,,,,,2,,77,100
53280,note_on,,,,,32,0,9,,,,,2,,76,100
53284,note_off,,,,,100,0,14,,,,,6,,60,100
53284,note_off,,,,,100,0,11,,,,,4,,60,100
53344,note_off,,,,,64,0,9,,,,,2,,76,100
53376,note_on,,,,,32,0,9,,,,,2,,79,100
53376,note_on,,,,,92,0,14,,,,,6,,52,100
53376,note_on,,,,,92,0,11,,,,,4,,52,85
53452,note_off,,,,,460,0,7,,,,,0,,70,100
53472,note_on,,,,,20,0,7,,,,,0,,73,95
53476,note_off,,,,,100,0,11,,,,,4,,52,100
53476,note_off,,,,,100,0,9,,,,,2,,79,100
53476,note_off,,,,,100,0,14,,,,,6,,52,100
53564,note_off,,,,,92,0,7,,,,,0,,73,100
53568,note_on,,,,,92,0,14,,,,,6,,60,100
53568,note_on,,,,,4,0,7,,,,,0,,72,95
53568,note_on,,,,,92,0,11,,,,,4,,60,85
53568,note_on,,,,,92,0,9,,,,,2,,70,100
53604,note_off,,,,,0,0,13,,,,,6,,72,100
53604,note_off,,,,,0,0,13,,,,,6,,79,100
53604,note_off,,,,,612,0,13,,,,,6,,70,100
53660,note_off,,,,,92,0,7,,,,,0,,72,100
53664,note_on,,,,,4,0,7,,,,,0,,70,95
53668,note_off,,,,,100,0,14,,,,,6,,60,100
53668,note_off,,,,,100,0,9,,,,,2,,70,100
53668,note_off,,,,,100,0,11,,,,,4,,60,100
53728,note_off,,,,,64,0,7,,,,,0,,70,100
53760,note_on,,,,,92,0,9,,,,,2,,70,100
53760,note_on,,,,,92,0,11,,,,,4,,48,85
53760,note_on,,,,,92,0,14,,,,,6,,48,100
53760,note_on,,,,,32,0,7,,,,,0,,76,97
53760,note_on,,,,,0,0,13,,,,,6,,79,100
53760,note_on,,,,,0,0,13,,,,,6,,76,100
53760,note_on,,,,,156,0,13,,,,,6,,70,100
53824,note_off,,,,,64,0,7,,,,,0,,76,100
53856,note_on,,,,,32,0,7,,,,,0,,73,95
53948,note_off,,,,,92,0,7,,,,,0,,73,100
53952,note_on,,,,,4,0,7,,,,,0,,72,95
54016,note_off,,,,,256,0,11,,,,,4,,48,100
54016,note_off,,,,,0,0,13,,,,,6,,76,100
54016,note_off,,,,,256,0,13,,,,,6,,70,100
54016,note_off,,,,,256,0,9,,,,,2,,70,100
54016,note_off,,,,,0,0,13,,,,,6,,79,100
54016,note_off,,,,,256,0,14,,,,,6,,48,100
54044,note_off,,,,,92,0,7,,,,,0,,72,100
54048,note_on,,,,,4,0,7,,,,,0,,70,95
54112,note_off,,,,,64,0,7,,,,,0,,70,100
54144,note_on,,,,,32,0,7,,,,,0,,76,97
54144,program_change,,,,,128,0,9,,,,,2,48,,
54208,note_off,,,,,64,0,7,,,,,0,,76,100
54240,note_on,,,,,32,0,7,,,,,0,,73,95
54332,note_off,,,,,92,0,7,,,,,0,,73,100
54336,note_on,,,,,320,0,11,,,,,4,,55,85
54336,note_on,,,,,320,0,14,,,,,6,,55,100
54336,note_on,,,,,0,0,13,,,,,6,,76,100
54336,note_on,,,,,0,0,13,,,,,6,,70,100
54336,note_on,,,,,4,0,7,,,,,0,,72,95
54336,note_on,,,,,320,0,13,,,,,6,,79,100
54428,note_off,,,,,92,0,7,,,,,0,,72,100
54432,note_on,,,,,4,0,7,,,,,0,,70,95
54436,note_off,,,,,0,0,13,,,,,6,,76,100
54436,note_off,,,,,0,0,13,,,,,6,,70,100
54436,note_off,,,,,100,0,11,,,,,4,,55,100
54436,note_off,,,,,100,0,14,,,,,6,,55,100
54436,note_off,,,,,100,0,13,,,,,6,,79,100
54496,note_off,,,,,64,0,7,,,,,0,,70,100
54528,note_on,,,,,0,0,13,,,,,6,,72,100
54528,note_on,,,,,92,0,13,,,,,6,,67,100
54528,note_on,,,,,92,0,11,,,,,4,,52,85
54528,note_on,,,,,92,0,14,,,,,6,,52,100
54528,note_on,,,,,0,0,13,,,,,6,,76,100
54528,note_on,,,,,32,0,7,,,,,0,,79,97
54592,note_off,,,,,64,0,7,,,,,0,,79,100
54624,note_on,,,,,32,0,7,,,,,0,,73,95
54628,note_off,,,,,100,0,14,,,,,6,,52,100
54628,note_off,,,,,100,0,11,,,,,4,,52,100
54716,note_off,,,,,92,0,7,,,,,0,,73,100
54720,note_on,,,,,4,0,7,,,,,0,,72,96
54720,note_on,,,,,92,0,11,,,,,4,,60,85
54720,note_on,,,,,92,0,14,,,,,6,,60,100
54812,note_off,,,,,92,0,7,,,,,0,,72,100
54816,note_on,,,,,4,0,7,,,,,0,,70,97
54820,note_off,,,,,100,0,11,,,,,4,,60,100
54820,note_off,,,,,100,0,14,,,,,6,,60,100
54880,note_off,,,,,64,0,7,,,,,0,,70,100
54912,note_on,,,,,92,0,14,,,,,6,,55,100
54912,note_on,,,,,92,0,11,,,,,4,,55,85
54912,note_on,,,,,32,0,7,,,,,0,,76,100
54976,note_off,,,,,64,0,7,,,,,0,,76,100
55008,note_on,,,,,32,0,7,,,,,0,,73,99
55012,note_off,,,,,100,0,14,,,,,6,,55,100
55012,note_off,,,,,100,0,11,,,,,4,,55,100
55100,note_off,,,,,92,0,7,,,,,0,,73,100
55104,note_on,,,,,92,0,11,,,,,4,,52,85
55104,note_on,,,,,92,0,14,,,,,6,,52,100
55104,note_on,,,,,4,0,7,,,,,0,,72,99
55140,note_off,,,,,612,0,13,,,,,6,,67,100
55140,note_off,,,,,0,0,13,,,,,6,,72,100
55140,note_off,,,,,0,0,13,,,,,6,,76,100
55196,note_off,,,,,92,0,7,,,,,0,,72,100
55200,note_on,,,,,4,0,7,,,,,0,,70,100
55204,note_off,,,,,100,0,11,,,,,4,,52,100
55204,note_off,,,,,100,0,14,,,,,6,,52,100
55264,note_off,,,,,64,0,7,,,,,0,,70,100
55296,note_on,,,,,0,0,13,,,,,6,,76,100
55296,note_on,,,,,92,0,11,,,,,4,,48,85
55296,note_on,,,,,156,0,13,,,,,6,,70,100
55296,note_on,,,,,92,0,14,,,,,6,,48,100
55296,note_on,,,,,32,0,7,,,,,0,,79,103
55296,note_on,,,,,0,0,13,,,,,6,,79,100
55360,note_off,,,,,64,0,7,,,,,0,,79,100
55392,note_on,,,,,32,0,7,,,,,0,,73,102
55484,note_off,,,,,92,0,7,,,,,0,,73,100
55488,note_on,,,,,4,0,7,,,,,0,,72,103
55552,note_off,,,,,256,0,14,,,,,6,,48,100
55552,note_off,,,,,256,0,13,,,,,6,,70,100
55552,note_off,,,,,256,0,11,,,,,4,,48,100
55552,note_off,,,,,0,0,13,,,,,6,,76,100
55552,note_off,,,,,0,0,13,,,,,6,,79,100
55580,note_off,,,,,92,0,7,,,,,0,,72,100
55584,note_on,,,,,4,0,7,,,,,0,,70,103
55648,note_off,,,,,64,0,7,,,,,0,,70,100
55680,note_on,,,,,32,0,7,,,,,0,,76,106
55744,note_off,,,,,64,0,7,,,,,0,,76,100
55776,note_on,,,,,32,0,7,,,,,0,,73,105
55868,note_off,,,,,92,0,7,,,,,0,,73,100
55872,note_on,,,,,0,0,13,,,,,6,,76,100
55872,note_on,,,,,0,0,13,,,,,6,,70,100
55872,note_on,,,,,320,0,13,,,,,6,,79,100
55872,note_on,,,,,4,0,7,,,,,0,,72,106
55872,note_on,,,,,320,0,11,,,,,4,,55,85
55872,note_on,,,,,320,0,14,,,,,6,,55,100
55964,note_off,,,,,92,0,7,,,,,0,,72,100
55968,note_on,,,,,4,0,7,,,,,0,,70,107
55972,note_off,,,,,0,0,13,,,,,6,,76,100
55972,note_off,,,,,100,0,13,,,,,6,,79,100
55972,note_off,,,,,100,0,11,,,,,4,,55,100
55972,note_off,,,,,0,0,13,,,,,6,,70,100
55972,note_off,,,,,100,0,14,,,,,6,,55,100
56032,note_off,,,,,64,0,7,,,,,0,,70,100
56064,note_on,,,,,0,0,13,,,,,6,,72,100
56064,note_on,,,,,92,0,13,,,,,6,,67,100
56064,note_on,,,,,92,0,14,,,,,6,,52,100
56064,note_on,,,,,0,0,13,,,,,6,,76,100
56064,note_on,,,,,92,0,11,,,,,4,,52,85
56064,note_on,,,,,32,0,7,,,,,0,,82,107
56164,note_off,,,,,100,0,11,,,,,4,,52,100
56164,note_off,,,,,100,0,14,,,,,6,,52,100
56256,note_on,,,,,92,0,14,,,,,6,,60,100
56256,note_on,,,,,92,0,11,,,,,4,,60,85
56356,note_off,,,,,100,0,11,,,,,4,,60,100
56356,note_off,,,,,100,0,14,,,,,6,,60,100
56448,note_on,,,,,92,0,14,,,,,6,,55,100
56448,note_on,,,,,92,0,11,,,,,4,,55,85
56524,note_off,,,,,460,0,7,,,,,0,,82,100
56548,note_off,,,,,100,0,11,,,,,4,,55,100
56548,note_off,,,,,100,0,14,,,,,6,,55,100
56640,note_on,,,,,92,0,11,,,,,4,,52,85
56640,note_on,,,,,92,0,14,,,,,6,,52,100
56640,note_on,,,,,116,0,7,,,,,0,,80,103
56676,note_off,,,,,612,0,13,,,,,6,,67,100
56676,note_off,,,,,0,0,13,,,,,6,,72,100
56676,note_off,,,,,0,0,13,,,,,6,,76,100
56704,note_off,,,,,64,0,7,,,,,0,,80,100
56736,note_on,,,,,32,0,7,,,,,0,,79,103
56740,note_off,,,,,100,0,11,,,,,4,,52,100
56740,note_off,,,,,100,0,14,,,,,6,,52,100
56800,note_off,,,,,64,0,7,,,,,0,,79,100
56832,note_on,,,,,156,0,13,,,,,6,,68,100
56832,note_on,,,,,0,0,13,,,,,6,,65,100
56832,note_on,,,,,92,0,11,,,,,4,,53,85
56832,note_on,,,,,32,0,7,,,,,0,,80,103
56832,note_on,,,,,92,0,14,,,,,6,,53,100
56932,note_off,,,,,0,0,13,,,,,6,,65,100
56932,note_off,,,,,100,0,11,,,,,4,,53,100
56932,note_off,,,,,100,0,7,,,,,0,,80,100
56932,note_off,,,,,100,0,14,,,,,6,,53,100
56932,note_off,,,,,100,0,13,,,,,6,,68,100
57024,note_on,,,,,92,0,14,,,,,6,,58,100
57024,note_on,,,,,92,0,11,,,,,4,,58,88
57024,note_on,,,,,92,0,13,,,,,6,,65,100
57024,note_on,,,,,92,0,7,,,,,0,,77,104
57024,note_on,,,,,0,0,13,,,,,6,,73,100
57124,note_off,,,,,100,0,7,,,,,0,,77,100
57124,note_off,,,,,100,0,14,,,,,6,,58,100
57124,note_off,,,,,100,0,13,,,,,6,,65,100
57124,note_off,,,,,100,0,11,,,,,4,,58,100
57124,note_off,,,,,0,0,13,,,,,6,,73,100
57216,note_on,,,,,92,0,13,,,,,6,,64,100
57216,note_on,,,,,0,0,13,,,,,6,,72,100
57216,note_on,,,,,92,0,7,,,,,0,,67,105
57216,note_on,,,,,92,0,14,,,,,6,,60,100
57216,note_on,,,,,92,0,11,,,,,4,,60,92
57296,note_off,,,,,80,0,7,,,,,0,,67,100
57316,note_off,,,,,100,0,13,,,,,6,,64,100
57316,note_off,,,,,0,0,13,,,,,6,,72,100
57316,note_off,,,,,100,0,11,,,,,4,,60,100
57316,note_off,,,,,100,0,14,,,,,6,,60,100
57408,note_on,,,,,112,0,7,,,,,0,,76,106
57408,note_on,,,,,0,0,13,,,,,6,,67,100
57408,note_on,,,,,92,0,11,,,,,4,,48,96
57408,note_on,,,,,92,0,14,,,,,6,,48,100
57408,note_on,,,,,92,0,13,,,,,6,,64,100
57488,note_off,,,,,80,0,7,,,,,0,,76,100
57508,note_off,,,,,100,0,11,,,,,4,,48,100
57508,note_off,,,,,100,0,14,,,,,6,,48,100
57508,note_off,,,,,100,0,13,,,,,6,,64,100
57508,note_off,,,,,0,0,13,,,,,6,,67,100
57596,program_change,,,,,88,0,11,,,,,4,48,,
57600,note_on,,,,,4,0,11,,,,,4,,53,99
57600,note_on,,,,,92,0,13,,,,,6,,60,100
57600,note_on,,,,,0,0,13,,,,,6,,65,100
57600,note_on,,,,,0,0,13,,,,,6,,69,100
57600,note_on,,,,,16640,0,16,,,,,7,,53,100
57600,note_on,,,,,16640,0,10,,,,,3,,69,100
57600,note_on,,,,,16640,0,12,,,,,5,,41,100
57600,note_on,,,,,16640,0,15,,,,,7,,65,100
57600,note_on,,,,,112,0,7,,,,,0,,77,107
57600,note_on,,,,,0,0,15,,,,,7,,69,100
57600,note_on,,,,,92,0,14,,,,,6,,53,100
57700,note_off,,,,,100,0,12,,,,,5,,41,100
57700,note_off,,,,,100,0,14,,,,,6,,53,100
57700,note_off,,,,,100,0,11,,,,,4,,53,100
57700,note_off,,,,,100,0,16,,,,,7,,53,100
57700,note_off,,,,,100,0,10,,,,,3,,69,100
57728,note_off,,,,,128,0,7,,,,,0,,77,100
57792,note_on,,,,,92,0,10,,,,,3,,72,95
57792,note_on,,,,,92,0,14,,,,,6,,57,100
57792,note_on,,,,,92,0,12,,,,,5,,45,95
57792,note_on,,,,,92,0,16,,,,,7,,57,100
57792,note_on,,,,,92,0,11,,,,,4,,57,95
57792,note_on,,,,,16832,0,8,,,,,1,,72,95
57800,note_off,,,,,0,0,13,,,,,6,,69,100
57800,note_off,,,,,200,0,13,,,,,6,,60,100
57800,note_off,,,,,0,0,13,,,,,6,,65,100
57856,note_off,,,,,64,0,11,,,,,4,,57,100
57856,note_off,,,,,64,0,10,,,,,3,,72,100
57856,note_off,,,,,64,0,16,,,,,7,,57,100
57856,note_off,,,,,64,0,12,,,,,5,,45,100
57856,note_off,,,,,64,0,14,,,,,6,,57,100
57888,note_on,,,,,32,0,12,,,,,5,,43,95
57888,note_on,,,,,32,0,10,,,,,3,,70,95
57888,note_on,,,,,32,0,14,,,,,6,,55,100
57888,note_on,,,,,32,0,16,,,,,7,,55,100
57888,note_on,,,,,32,0,11,,,,,4,,55,95
57892,note_off,,,,,100,0,8,,,,,1,,72,100
57952,note_off,,,,,64,0,12,,,,,5,,43,100
57952,note_off,,,,,64,0,14,,,,,6,,55,100
57952,note_off,,,,,64,0,10,,,,,3,,70,100
57952,note_off,,,,,64,0,11,,,,,4,,55,100
57952,note_off,,,,,64,0,16,,,,,7,,55,100
57984,note_on,,,,,32,0,11,,,,,4,,53,95
57984,note_on,,,,,32,0,16,,,,,7,,53,100
57984,note_on,,,,,32,0,10,,,,,3,,69,95
57984,note_on,,,,,32,0,14,,,,,6,,53,100
57984,note_on,,,,,32,0,12,,,,,5,,41,95
57984,note_on,,,,,92,0,8,,,,,1,,77,95
58084,note_off,,,,,100,0,10,,,,,3,,69,100
58084,note_off,,,,,100,0,14,,,,,6,,53,100
58084,note_off,,,,,100,0,16,,,,,7,,53,100
58084,note_off,,,,,100,0,11,,,,,4,,53,100
58084,note_off,,,,,100,0,12,,,,,5,,41,100
58176,note_on,,,,,92,0,11,,,,,4,,52,96
58176,note_on,,,,,92,0,14,,,,,6,,52,100
58176,note_on,,,,,92,0,10,,,,,3,,67,96
58176,note_on,,,,,4032,0,9,,,,,2,,72,96
58176,note_on,,,,,92,0,16,,,,,7,,52,100
58176,note_on,,,,,92,0,12,,,,,5,,40,96
58240,note_off,,,,,64,0,16,,,,,7,,52,100
58240,note_off,,,,,64,0,11,,,,,4,,52,100
58240,note_off,,,,,64,0,12,,,,,5,,40,100
58240,note_off,,,,,64,0,10,,,,,3,,67,100
58240,note_off,,,,,64,0,14,,,,,6,,52,100
58272,note_on,,,,,32,0,11,,,,,4,,50,96
58272,note_on,,,,,32,0,12,,,,,5,,38,96
58272,note_on,,,,,32,0,10,,,,,3,,65,96
58272,note_on,,,,,32,0,16,,,,,7,,50,100
58272,note_on,,,,,32,0,14,,,,,6,,50,100
58276,note_off,,,,,100,0,9,,,,,2,,72,100
58288,note_off,,,,,688,0,15,,,,,7,,65,100
58288,note_off,,,,,0,0,15,,,,,7,,69,100
58336,note_off,,,,,64,0,14,,,,,6,,50,100
58336,note_off,,,,,64,0,11,,,,,4,,50,100
58336,note_off,,,,,64,0,16,,,,,7,,50,100
58336,note_off,,,,,64,0,12,,,,,5,,38,100
58336,note_off,,,,,64,0,10,,,,,3,,65,100
58368,note_on,,,,,32,0,16,,,,,7,,48,100
58368,note_on,,,,,32,0,10,,,,,3,,60,96
58368,note_on,,,,,0,0,16,,,,,7,,36,100
58368,note_on,,,,,32,0,11,,,,,4,,48,96
58368,note_on,,,,,0,0,15,,,,,7,,67,100
58368,note_on,,,,,32,0,14,,,,,6,,48,100
58368,note_on,,,,,0,0,15,,,,,7,,64,100
58368,note_on,,,,,0,0,13,,,,,6,,64,100
58368,note_on,,,,,0,0,13,,,,,6,,67,100
58368,note_on,,,,,568,0,13,,,,,6,,72,100
58368,note_on,,,,,32,0,12,,,,,5,,36,96
58368,note_on,,,,,92,0,9,,,,,2,,79,96
58368,note_on,,,,,80,0,15,,,,,7,,72,100
58468,note_off,,,,,100,0,10,,,,,3,,60,100
58496,note_off,,,,,512,0,8,,,,,1,,77,100
58560,note_on,,,,,92,0,10,,,,,3,,72,97
58560,note_on,,,,,64,0,8,,,,,1,,76,97
58624,note_off,,,,,64,0,8,,,,,1,,76,100
58656,note_on,,,,,32,0,8,,,,,1,,74,97
58660,note_off,,,,,100,0,10,,,,,3,,72,100
58720,note_off,,,,,64,0,8,,,,,1,,74,100
58752,note_on,,,,,32,0,8,,,,,1,,76,97
58752,note_on,,,,,92,0,10,,,,,3,,60,97
58852,note_off,,,,,100,0,8,,,,,1,,76,100
58852,note_off,,,,,100,0,10,,,,,3,,60,100
58944,note_on,,,,,92,0,8,,,,,1,,72,98
58944,note_on,,,,,92,0,10,,,,,3,,72,98
58980,note_off,,,,,0,0,13,,,,,6,,64,100
58980,note_off,,,,,0,0,13,,,,,6,,67,100
58980,note_off,,,,,612,0,13,,,,,6,,72,100
59044,note_off,,,,,100,0,8,,,,,1,,72,100
59044,note_off,,,,,100,0,10,,,,,3,,72,100
59080,note_off,,,,,0,0,15,,,,,7,,64,100
59080,note_off,,,,,0,0,15,,,,,7,,67,100
59080,note_off,,,,,712,0,15,,,,,7,,72,100
59136,note_on,,,,,156,0,13,,,,,6,,65,100
59136,note_on,,,,,0,0,15,,,,,7,,72,100
59136,note_on,,,,,0,0,15,,,,,7,,69,100
59136,note_on,,,,,56,0,15,,,,,7,,65,100
59136,note_on,,,,,0,0,13,,,,,6,,72,100
59136,note_on,,,,,92,0,10,,,,,3,,60,98
59136,note_on,,,,,92,0,8,,,,,1,,81,98
59136,note_on,,,,,0,0,13,,,,,6,,69,100
59264,note_off,,,,,896,0,14,,,,,6,,48,100
59264,note_off,,,,,896,0,16,,,,,7,,48,100
59264,note_off,,,,,896,0,12,,,,,5,,36,100
59264,note_off,,,,,896,0,9,,,,,2,,79,100
59264,note_off,,,,,896,0,11,,,,,4,,48,100
59328,note_on,,,,,64,0,16,,,,,7,,60,100
59328,note_on,,,,,64,0,12,,,,,5,,48,99
59328,note_on,,,,,64,0,14,,,,,6,,60,100
59328,note_on,,,,,64,0,9,,,,,2,,77,99
59328,note_on,,,,,64,0,11,,,,,4,,60,99
59392,note_off,,,,,64,0,9,,,,,2,,77,100
59424,note_on,,,,,32,0,9,,,,,2,,76,99
59428,note_off,,,,,100,0,14,,,,,6,,60,100
59428,note_off,,,,,100,0,16,,,,,7,,60,100
59428,note_off,,,,,100,0,11,,,,,4,,60,100
59428,note_off,,,,,100,0,12,,,,,5,,48,100
59488,note_off,,,,,64,0,9,,,,,2,,76,100
59520,note_on,,,,,32,0,9,,,,,2,,77,99
59520,note_on,,,,,92,0,12,,,,,5,,36,99
59520,note_on,,,,,92,0,11,,,,,4,,48,99
59520,note_on,,,,,92,0,14,,,,,6,,48,100
59520,note_on,,,,,92,0,16,,,,,7,,48,100
59620,note_off,,,,,100,0,9,,,,,2,,77,100
59620,note_off,,,,,100,0,16,,,,,7,,48,100
59620,note_off,,,,,100,0,14,,,,,6,,48,100
59620,note_off,,,,,100,0,11,,,,,4,,48,100
59620,note_off,,,,,100,0,12,,,,,5,,36,100
59712,note_on,,,,,92,0,12,,,,,5,,48,100
59712,note_on,,,,,92,0,11,,,,,4,,60,100
59712,note_on,,,,,92,0,14,,,,,6,,60,100
59712,note_on,,,,,92,0,9,,,,,2,,72,100
59712,note_on,,,,,92,0,16,,,,,7,,60,100
59748,note_off,,,,,0,0,13,,,,,6,,72,100
59748,note_off,,,,,0,0,13,,,,,6,,69,100
59748,note_off,,,,,612,0,13,,,,,6,,65,100
59812,note_off,,,,,100,0,11,,,,,4,,60,100
59812,note_off,,,,,100,0,9,,,,,2,,72,100
59812,note_off,,,,,100,0,16,,,,,7,,60,100
59812,note_off,,,,,100,0,14,,,,,6,,60,100
59812,note_off,,,,,100,0,12,,,,,5,,48,100
59848,note_off,,,,,0,0,15,,,,,7,,72,100
59848,note_off,,,,,0,0,15,,,,,7,,69,100
59848,note_off,,,,,712,0,15,,,,,7,,65,100
59904,note_on,,,,,0,0,15,,,,,7,,72,100
59904,note_on,,,,,92,0,12,,,,,5,,36,100
59904,note_on,,,,,92,0,9,,,,,2,,82,100
59904,note_on,,,,,0,0,15,,,,,7,,70,100
59904,note_on,,,,,0,0,13,,,,,6,,72,100
59904,note_on,,,,,156,0,13,,,,,6,,67,100
59904,note_on,,,,,0,0,13,,,,,6,,70,100
59904,note_on,,,,,92,0,16,,,,,7,,48,100
59904,note_on,,,,,92,0,11,,,,,4,,48,100
59904,note_on,,,,,92,0,14,,,,,6,,48,100
59904,note_on,,,,,56,0,15,,,,,7,,67,100
60032,note_off,,,,,896,0,8,,,,,1,,81,100
60032,note_off,,,,,896,0,10,,,,,3,,60,100
60096,note_on,,,,,64,0,10,,,,,3,,72,101
60096,note_on,,,,,64,0,8,,,,,1,,79,101
60160,note_off,,,,,64,0,8,,,,,1,,79,100
60192,note_on,,,,,32,0,8,,,,,1,,77,101
60196,note_off,,,,,100,0,10,,,,,3,,72,100
60256,note_off,,,,,64,0,8,,,,,1,,77,100
60288,note_on,,,,,32,0,8,,,,,1,,79,101
60288,note_on,,,,,92,0,10,,,,,3,,60,101
60388,note_off,,,,,100,0,10,,,,,3,,60,100
60388,note_off,,,,,100,0,8,,,,,1,,79,100
60480,note_on,,,,,92,0,10,,,,,3,,72,102
60480,note_on,,,,,92,0,8,,,,,1,,72,102
60516,note_off,,,,,0,0,13,,,,,6,,70,100
60516,note_off,,,,,612,0,13,,,,,6,,67,100
60516,note_off,,,,,0,0,13,,,,,6,,72,100
60580,note_off,,,,,100,0,8,,,,,1,,72,100
60580,note_off,,,,,100,0,10,,,,,3,,72,100
60616,note_off,,,,,712,0,15,,,,,7,,67,100
60616,note_off,,,,,0,0,15,,,,,7,,70,100
60616,note_off,,,,,0,0,15,,,,,7,,72,100
60672,note_on,,,,,92,0,8,,,,,1,,84,102
60672,note_on,,,,,0,0,13,,,,,6,,69,100
60672,note_on,,,,,56,0,15,,,,,7,,65,100
60672,note_on,,,,,0,0,15,,,,,7,,69,100
60672,note_on,,,,,0,0,15,,,,,7,,72,100
60672,note_on,,,,,0,0,13,,,,,6,,72,100
60672,note_on,,,,,92,0,10,,,,,3,,60,102
60672,note_on,,,,,156,0,13,,,,,6,,65,100
60800,note_off,,,,,896,0,9,,,,,2,,82,100
60800,note_off,,,,,896,0,12,,,,,5,,36,100
60800,note_off,,,,,896,0,14,,,,,6,,48,100
60800,note_off,,,,,896,0,11,,,,,4,,48,100
60800,note_off,,,,,896,0,16,,,,,7,,48,100
60864,note_on,,,,,64,0,12,,,,,5,,48,103
60864,note_on,,,,,64,0,9,,,,,2,,81,103
60864,note_on,,,,,64,0,14,,,,,6,,60,100
60864,note_on,,,,,64,0,11,,,,,4,,60,103
60864,note_on,,,,,64,0,16,,,,,7,,60,100
60928,note_off,,,,,64,0,9,,,,,2,,81,100
60960,note_on,,,,,32,0,9,,,,,2,,79,103
60964,note_off,,,,,100,0,16,,,,,7,,60,100
60964,note_off,,,,,100,0,12,,,,,5,,48,100
60964,note_off,,,,,100,0,14,,,,,6,,60,100
60964,note_off,,,,,100,0,11,,,,,4,,60,100
61024,note_off,,,,,64,0,9,,,,,2,,79,100
61056,note_on,,,,,92,0,12,,,,,5,,36,103
61056,note_on,,,,,92,0,16,,,,,7,,48,100
61056,note_on,,,,,92,0,14,,,,,6,,48,100
61056,note_on,,,,,32,0,9,,,,,2,,81,103
61056,note_on,,,,,92,0,11,,,,,4,,48,103
61156,note_off,,,,,100,0,12,,,,,5,,36,100
61156,note_off,,,,,100,0,14,,,,,6,,48,100
61156,note_off,,,,,100,0,9,,,,,2,,81,100
61156,note_off,,,,,100,0,11,,,,,4,,48,100
61156,note_off,,,,,100,0,16,,,,,7,,48,100
61248,note_on,,,,,92,0,9,,,,,2,,72,104
61248,note_on,,,,,92,0,12,,,,,5,,48,104
61248,note_on,,,,,92,0,16,,,,,7,,60,100
61248,note_on,,,,,92,0,14,,,,,6,,60,100
61248,note_on,,,,,92,0,11,,,,,4,,60,104
61284,note_off,,,,,612,0,13,,,,,6,,65,100
61284,note_off,,,,,0,0,13,,,,,6,,72,100
61284,note_off,,,,,0,0,13,,,,,6,,69,100
61348,note_off,,,,,100,0,9,,,,,2,,72,100
61348,note_off,,,,,100,0,16,,,,,7,,60,100
61348,note_off,,,,,100,0,11,,,,,4,,60,100
61348,note_off,,,,,100,0,14,,,,,6,,60,100
61348,note_off,,,,,100,0,12,,,,,5,,48,100
61384,note_off,,,,,0,0,15,,,,,7,,72,100
61384,note_off,,,,,0,0,15,,,,,7,,69,100
61384,note_off,,,,,712,0,15,,,,,7,,65,100
61440,note_on,,,,,92,0,16,,,,,7,,48,100
61440,note_on,,,,,92,0,9,,,,,2,,86,105
61440,note_on,,,,,92,0,11,,,,,4,,48,105
61440,note_on,,,,,0,0,15,,,,,7,,67,100
61440,note_on,,,,,0,0,13,,,,,6,,70,100
61440,note_on,,,,,0,0,13,,,,,6,,74,100
61440,note_on,,,,,156,0,13,,,,,6,,67,100
61440,note_on,,,,,92,0,14,,,,,6,,48,100
61440,note_on,,,,,92,0,12,,,,,5,,36,105
61440,note_on,,,,,56,0,15,,,,,7,,74,100
61440,note_on,,,,,0,0,15,,,,,7,,70,100
61568,note_off,,,,,896,0,10,,,,,3,,60,100
61568,note_off,,,,,896,0,8,,,,,1,,84,100
61632,note_on,,,,,64,0,10,,,,,3,,72,105
61632,note_on,,,,,64,0,8,,,,,1,,82,105
61696,note_off,,,,,64,0,8,,,,,1,,82,100
61728,note_on,,,,,32,0,8,,,,,1,,81,104
61732,note_off,,,,,100,0,10,,,,,3,,72,100
61792,note_off,,,,,64,0,8,,,,,1,,81,100
61824,note_on,,,,,92,0,10,,,,,3,,60,104
61824,note_on,,,,,32,0,8,,,,,1,,82,104
61900,note_off,,,,,460,0,9,,,,,2,,86,100
61924,note_off,,,,,100,0,10,,,,,3,,60,100
62016,note_on,,,,,92,0,10,,,,,3,,72,103
62016,note_on,,,,,116,0,9,,,,,2,,84,103
62052,note_off,,,,,0,0,13,,,,,6,,70,100
62052,note_off,,,,,612,0,13,,,,,6,,67,100
62052,note_off,,,,,0,0,13,,,,,6,,74,100
62080,note_off,,,,,64,0,9,,,,,2,,84,100
62112,note_on,,,,,32,0,9,,,,,2,,82,103
62116,note_off,,,,,100,0,10,,,,,3,,72,100
62152,note_off,,,,,0,0,15,,,,,7,,67,100
62152,note_off,,,,,712,0,15,,,,,7,,74,100
62152,note_off,,,,,0,0,15,,,,,7,,70,100
62176,note_off,,,,,64,0,9,,,,,2,,82,100
62208,note_on,,,,,156,0,13,,,,,6,,65,100
62208,note_on,,,,,0,0,15,,,,,7,,69,100
62208,note_on,,,,,32,0,9,,,,,2,,84,102
62208,note_on,,,,,0,0,15,,,,,7,,72,100
62208,note_on,,,,,56,0,15,,,,,7,,65,100
62208,note_on,,,,,0,0,13,,,,,6,,69,100
62208,note_on,,,,,0,0,13,,,,,6,,72,100
62208,note_on,,,,,92,0,10,,,,,3,,60,102
62284,note_off,,,,,460,0,8,,,,,1,,82,100
62336,note_off,,,,,896,0,16,,,,,7,,48,100
62336,note_off,,,,,896,0,14,,,,,6,,48,100
62336,note_off,,,,,896,0,11,,,,,4,,48,100
62336,note_off,,,,,896,0,12,,,,,5,,36,100
62400,note_on,,,,,64,0,14,,,,,6,,60,100
62400,note_on,,,,,116,0,8,,,,,1,,72,101
62400,note_on,,,,,64,0,16,,,,,7,,60,100
62400,note_on,,,,,64,0,11,,,,,4,,60,101
62400,note_on,,,,,64,0,12,,,,,5,,48,101
62500,note_off,,,,,100,0,16,,,,,7,,60,100
62500,note_off,,,,,100,0,11,,,,,4,,60,100
62500,note_off,,,,,100,0,14,,,,,6,,60,100
62500,note_off,,,,,100,0,8,,,,,1,,72,100
62500,note_off,,,,,100,0,12,,,,,5,,48,100
62592,note_on,,,,,92,0,14,,,,,6,,48,100
62592,note_on,,,,,92,0,11,,,,,4,,48,101
62592,note_on,,,,,92,0,16,,,,,7,,48,100
62592,note_on,,,,,92,0,12,,,,,5,,36,101
62592,note_on,,,,,92,0,8,,,,,1,,81,101
62668,note_off,,,,,460,0,9,,,,,2,,84,100
62692,note_off,,,,,100,0,11,,,,,4,,48,100
62692,note_off,,,,,100,0,14,,,,,6,,48,100
62692,note_off,,,,,100,0,16,,,,,7,,48,100
62692,note_off,,,,,100,0,12,,,,,5,,36,100
62784,note_on,,,,,92,0,11,,,,,4,,60,100
62784,note_on,,,,,92,0,16,,,,,7,,60,100
62784,note_on,,,,,116,0,9,,,,,2,,72,100
62784,note_on,,,,,92,0,12,,,,,5,,48,100
62784,note_on,,,,,92,0,14,,,,,6,,60,100
62820,note_off,,,,,612,0,13,,,,,6,,65,100
62820,note_off,,,,,0,0,13,,,,,6,,69,100
62820,note_off,,,,,0,0,13,,,,,6,,72,100
62884,note_off,,,,,100,0,12,,,,,5,,48,100
62884,note_off,,,,,100,0,14,,,,,6,,60,100
62884,note_off,,,,,100,0,16,,,,,7,,60,100
62884,note_off,,,,,100,0,11,,,,,4,,60,100
62884,note_off,,,,,100,0,9,,,,,2,,72,100
62920,note_off,,,,,0,0,15,,,,,7,,72,100
62920,note_off,,,,,0,0,15,,,,,7,,69,100
62920,note_off,,,,,712,0,15,,,,,7,,65,100
62976,note_on,,,,,156,0,13,,,,,6,,67,100
62976,note_on,,,,,0,0,13,,,,,6,,70,100
62976,note_on,,,,,0,0,13,,,,,6,,72,100
62976,note_on,,,,,0,0,15,,,,,7,,72,100
62976,note_on,,,,,92,0,16,,,,,7,,48,100
62976,note_on,,,,,0,0,15,,,,,7,,70,100
62976,note_on,,,,,92,0,12,,,,,5,,36,99
62976,note_on,,,,,92,0,11,,,,,4,,48,99
62976,note_on,,,,,92,0,14,,,,,6,,48,100
62976,note_on,,,,,92,0,9,,,,,2,,82,99
62976,note_on,,,,,56,0,15,,,,,7,,67,100
63052,note_off,,,,,460,0,8,,,,,1,,81,100
63104,note_off,,,,,896,0,10,,,,,3,,60,100
63168,note_on,,,,,64,0,10,,,,,3,,72,98
63168,note_on,,,,,116,0,8,,,,,1,,79,98
63232,note_off,,,,,64,0,8,,,,,1,,79,100
63264,note_on,,,,,32,0,8,,,,,1,,77,98
63268,note_off,,,,,100,0,10,,,,,3,,72,100
63328,note_off,,,,,64,0,8,,,,,1,,77,100
63360,note_on,,,,,32,0,8,,,,,1,,79,97
63360,note_on,,,,,92,0,10,,,,,3,,60,97
63436,note_off,,,,,460,0,9,,,,,2,,82,100
63460,note_off,,,,,100,0,10,,,,,3,,60,100
63552,note_on,,,,,92,0,10,,,,,3,,72,96
63552,note_on,,,,,116,0,9,,,,,2,,81,96
63588,note_off,,,,,612,0,13,,,,,6,,67,100
63588,note_off,,,,,0,0,13,,,,,6,,70,100
63588,note_off,,,,,0,0,13,,,,,6,,72,100
63616,note_off,,,,,64,0,9,,,,,2,,81,100
63648,note_on,,,,,32,0,9,,,,,2,,79,96
63652,note_off,,,,,100,0,10,,,,,3,,72,100
63688,note_off,,,,,0,0,15,,,,,7,,70,100
63688,note_off,,,,,712,0,15,,,,,7,,67,100
63688,note_off,,,,,0,0,15,,,,,7,,72,100
63712,note_off,,,,,64,0,9,,,,,2,,79,100
63744,note_on,,,,,92,0,10,,,,,3,,60,94
63744,note_on,,,,,32,0,9,,,,,2,,81,94
63744,note_on,,,,,156,0,13,,,,,6,,65,100
63744,note_on,,,,,0,0,13,,,,,6,,72,100
63744,note_on,,,,,0,0,13,,,,,6,,69,100
63744,note_on,,,,,0,0,15,,,,,7,,69,100
63744,note_on,,,,,0,0,15,,,,,7,,72,100
63744,note_on,,,,,56,0,15,,,,,7,,65,100
63820,note_off,,,,,460,0,8,,,,,1,,79,100
63872,note_off,,,,,896,0,11,,,,,4,,48,100
63872,note_off,,,,,896,0,12,,,,,5,,36,100
63872,note_off,,,,,896,0,16,,,,,7,,48,100
63872,note_off,,,,,896,0,14,,,,,6,,48,100
63936,note_on,,,,,116,0,8,,,,,1,,72,95
63936,note_on,,,,,64,0,12,,,,,5,,48,95
63936,note_on,,,,,64,0,16,,,,,7,,60,100
63936,note_on,,,,,64,0,14,,,,,6,,60,100
63936,note_on,,,,,64,0,11,,,,,4,,60,95
64036,note_off,,,,,100,0,14,,,,,6,,60,100
64036,note_off,,,,,100,0,12,,,,,5,,48,100
64036,note_off,,,,,100,0,11,,,,,4,,60,100
64036,note_off,,,,,100,0,8,,,,,1,,72,100
64036,note_off,,,,,100,0,16,,,,,7,,60,100
64128,note_on,,,,,92,0,8,,,,,1,,77,97
64128,note_on,,,,,92,0,14,,,,,6,,48,100
64128,note_on,,,,,92,0,12,,,,,5,,36,97
64128,note_on,,,,,92,0,11,,,,,4,,48,97
64128,note_on,,,,,92,0,16,,,,,7,,48,100
64204,note_off,,,,,460,0,9,,,,,2,,81,100
64228,note_off,,,,,100,0,12,,,,,5,,36,100
64228,note_off,,,,,100,0,14,,,,,6,,48,100
64228,note_off,,,,,100,0,16,,,,,7,,48,100
64228,note_off,,,,,100,0,11,,,,,4,,48,100
64320,note_on,,,,,92,0,16,,,,,7,,60,100
64320,note_on,,,,,92,0,11,,,,,4,,60,99
64320,note_on,,,,,116,0,9,,,,,2,,72,99
64320,note_on,,,,,92,0,12,,,,,5,,48,99
64320,note_on,,,,,92,0,14,,,,,6,,60,100
64356,note_off,,,,,612,0,13,,,,,6,,65,100
64356,note_off,,,,,0,0,13,,,,,6,,69,100
64356,note_off,,,,,0,0,13,,,,,6,,72,100
64420,note_off,,,,,100,0,12,,,,,5,,48,100
64420,note_off,,,,,100,0,16,,,,,7,,60,100
64420,note_off,,,,,100,0,9,,,,,2,,72,100
64420,note_off,,,,,100,0,14,,,,,6,,60,100
64420,note_off,,,,,100,0,11,,,,,4,,60,100
64456,note_off,,,,,0,0,15,,,,,7,,72,100
64456,note_off,,,,,0,0,15,,,,,7,,69,100
64456,note_off,,,,,712,0,15,,,,,7,,65,100
64512,note_on,,,,,0,0,15,,,,,7,,72,100
64512,note_on,,,,,92,0,16,,,,,7,,48,100
64512,note_on,,,,,92,0,11,,,,,4,,48,101
64512,note_on,,,,,56,0,15,,,,,7,,64,100
64512,note_on,,,,,92,0,9,,,,,2,,79,101
64512,note_on,,,,,92,0,12,,,,,5,,36,101
64512,note_on,,,,,92,0,14,,,,,6,,48,100
64512,note_on,,,,,156,0,13,,,,,6,,64,100
64512,note_on,,,,,0,0,13,,,,,6,,72,100
64512,note_on,,,,,0,0,13,,,,,6,,67,100
64512,note_on,,,,,0,0,15,,,,,7,,67,100
64588,note_off,,,,,460,0,8,,,,,1,,77,100
64640,note_off,,,,,896,0,10,,,,,3,,60,100
64704,note_on,,,,,64,0,10,,,,,3,,72,99
64704,note_on,,,,,116,0,8,,,,,1,,76,99
64768,note_off,,,,,64,0,8,,,,,1,,76,100
64800,note_on,,,,,32,0,8,,,,,1,,74,99
64804,note_off,,,,,100,0,10,,,,,3,,72,100
64864,note_off,,,,,64,0,8,,,,,1,,74,100
64896,note_on,,,,,92,0,10,,,,,3,,60,98
64896,note_on,,,,,32,0,8,,,,,1,,76,98
64972,note_off,,,,,0,0,15,,,,,7,,67,100
64972,note_off,,,,,460,0,13,,,,,6,,64,100
64972,note_off,,,,,460,0,14,,,,,6,,48,100
64972,note_off,,,,,460,0,9,,,,,2,,79,100
64972,note_off,,,,,0,0,15,,,,,7,,72,100
64972,note_off,,,,,460,0,16,,,,,7,,48,100
64972,note_off,,,,,0,0,13,,,,,6,,72,100
64972,note_off,,,,,460,0,12,,,,,5,,36,100
64972,note_off,,,,,0,0,13,,,,,6,,67,100
64972,note_off,,,,,460,0,15,,,,,7,,64,100
64972,note_off,,,,,460,0,11,,,,,4,,48,100
64996,note_off,,,,,100,0,10,,,,,3,,60,100
64996,note_off,,,,,100,0,8,,,,,1,,76,100
65024,note_off,,,,,52,0,16,,,,,7,,36,100
65088,note_on,,,,,116,0,11,,,,,4,,48,97
65088,note_on,,,,,116,0,9,,,,,2,,77,97
65088,note_on,,,,,116,0,12,,,,,5,,36,97
65088,note_on,,,,,116,0,14,,,,,6,,48,100
65088,note_on,,,,,116,0,15,,,,,7,,65,100
65088,note_on,,,,,92,0,10,,,,,3,,72,97
65088,note_on,,,,,0,0,15,,,,,7,,72,100
65088,note_on,,,,,0,0,15,,,,,7,,70,100
65088,note_on,,,,,64,0,16,,,,,7,,48,100
65088,note_on,,,,,0,0,13,,,,,6,,70,100
65088,note_on,,,,,116,0,13,,,,,6,,65,100
65088,note_on,,,,,92,0,8,,,,,1,,82,97
65088,note_on,,,,,0,0,13,,,,,6,,72,100
65152,note_off,,,,,64,0,9,,,,,2,,77,100
65184,note_on,,,,,32,0,9,,,,,2,,76,96
65188,note_off,,,,,0,0,13,,,,,6,,70,100
65188,note_off,,,,,100,0,12,,,,,5,,36,100
65188,note_off,,,,,100,0,13,,,,,6,,65,100
65188,note_off,,,,,100,0,11,,,,,4,,48,100
65188,note_off,,,,,0,0,13,,,,,6,,72,100
65188,note_off,,,,,100,0,10,,,,,3,,72,100
65188,note_off,,,,,100,0,14,,,,,6,,48,100
65188,note_off,,,,,100,0,16,,,,,7,,48,100
65188,note_off,,,,,100,0,8,,,,,1,,82,100
65188,note_off,,,,,100,0,15,,,,,7,,65,100
65188,note_off,,,,,0,0,15,,,,,7,,70,100
65188,note_off,,,,,0,0,15,,,,,7,,72,100
65248,note_off,,,,,64,0,9,,,,,2,,76,100
65280,note_on,,,,,92,0,8,,,,,1,,81,96
65280,note_on,,,,,92,0,12,,,,,5,,41,96
65280,note_on,,,,,92,0,11,,,,,4,,53,96
65280,note_on,,,,,92,0,15,,,,,7,,65,100
65280,note_on,,,,,0,0,15,,,,,7,,69,100
65280,note_on,,,,,32,0,9,,,,,2,,77,96
65280,note_on,,,,,0,0,13,,,,,6,,72,100
65280,note_on,,,,,92,0,14,,,,,6,,53,100
65280,note_on,,,,,0,0,15,,,,,7,,72,100
65280,note_on,,,,,92,0,13,,,,,6,,65,100
65280,note_on,,,,,92,0,10,,,,,3,,60,96
65280,note_on,,,,,92,0,16,,,,,7,,53,100
65280,note_on,,,,,0,0,13,,,,,6,,69,100
65536,note_off,,,,,256,0,12,,,,,5,,41,100
65536,note_off,,,,,0,0,15,,,,,7,,72,100
65536,note_off,,,,,256,0,15,,,,,7,,65,100
65536,note_off,,,,,256,0,14,,,,,6,,53,100
65536,note_off,,,,,256,0,9,,,,,2,,77,100
65536,note_off,,,,,0,0,13,,,,,6,,72,100
65536,note_off,,,,,0,0,13,,,,,6,,69,100
65536,note_off,,,,,256,0,13,,,,,6,,65,100
65536,note_off,,,,,0,0,15,,,,,7,,69,100
65536,note_off,,,,,256,0,8,,,,,1,,81,100
65536,note_off,,,,,256,0,11,,,,,4,,53,100
65536,note_off,,,,,256,0,16,,,,,7,,53,100
65536,note_off,,,,,256,0,10,,,,,3,,60,100
65856,note_on,,,,,320,0,14,,,,,6,,57,100
65856,note_on,,,,,320,0,12,,,,,5,,45,94
65856,note_on,,,,,320,0,9,,,,,2,,69,94
65856,note_on,,,,,320,0,8,,,,,1,,69,94
65856,note_on,,,,,320,0,16,,,,,7,,57,100
65856,note_on,,,,,320,0,15,,,,,7,,69,100
65856,note_on,,,,,320,0,10,,,,,3,,69,94
65856,note_on,,,,,320,0,13,,,,,6,,69,100
65856,note_on,,,,,320,0,11,,,,,4,,57,94
65956,note_off,,,,,100,0,15,,,,,7,,69,100
65956,note_off,,,,,100,0,9,,,,,2,,69,100
65956,note_off,,,,,100,0,8,,,,,1,,69,100
65956,note_off,,,,,100,0,14,,,,,6,,57,100
65956,note_off,,,,,100,0,12,,,,,5,,45,100
65956,note_off,,,,,100,0,11,,,,,4,,57,100
65956,note_off,,,,,100,0,13,,,,,6,,69,100
65956,note_off,,,,,100,0,16,,,,,7,,57,100
65956,note_off,,,,,100,0,10,,,,,3,,69,100
66048,note_on,,,,,92,0,13,,,,,6,,70,100
66048,note_on,,,,,92,0,14,,,,,6,,58,100
66048,note_on,,,,,92,0,11,,,,,4,,58,95
66048,note_on,,,,,92,0,9,,,,,2,,70,95
66048,note_on,,,,,92,0,16,,,,,7,,58,100
66048,note_on,,,,,92,0,15,,,,,7,,70,100
66048,note_on,,,,,92,0,10,,,,,3,,70,95
66048,note_on,,,,,92,0,8,,,,,1,,70,95
66048,note_on,,,,,92,0,12,,,,,5,,46,95
66148,note_off,,,,,100,0,14,,,,,6,,58,100
66148,note_off,,,,,100,0,9,,,,,2,,70,100
66148,note_off,,,,,100,0,10,,,,,3,,70,100
66148,note_off,,,,,100,0,8,,,,,1,,70,100
66148,note_off,,,,,100,0,15,,,,,7,,70,100
66148,note_off,,,,,100,0,13,,,,,6,,70,100
66148,note_off,,,,,100,0,12,,,,,5,,46,100
66148,note_off,,,,,100,0,11,,,,,4,,58,100
66148,note_off,,,,,100,0,16,,,,,7,,58,100
66240,note_on,,,,,92,0,14,,,,,6,,60,100
66240,note_on,,,,,92,0,11,,,,,4,,60,97
66240,note_on,,,,,92,0,16,,,,,7,,60,100
66240,note_on,,,,,92,0,12,,,,,5,,48,97
66240,note_on,,,,,92,0,13,,,,,6,,72,100
66240,note_on,,,,,92,0,10,,,,,3,,72,97
66240,note_on,,,,,92,0,8,,,,,1,,72,97
66240,note_on,,,,,92,0,15,,,,,7,,72,100
66240,note_on,,,,,92,0,9,,,,,2,,72,97
66340,note_off,,,,,100,0,11,,,,,4,,60,100
66340,note_off,,,,,100,0,10,,,,,3,,72,100
66340,note_off,,,,,100,0,8,,,,,1,,72,100
66340,note_off,,,,,100,0,9,,,,,2,,72,100
66340,note_off,,,,,100,0,15,,,,,7,,72,100
66340,note_off,,,,,100,0,14,,,,,6,,60,100
66340,note_off,,,,,100,0,13,,,,,6,,72,100
66340,note_off,,,,,100,0,12,,,,,5,,48,100
66340,note_off,,,,,100,0,16,,,,,7,,60,100
66432,note_on,,,,,92,0,9,,,,,2,,74,98
66432,note_on,,,,,92,0,10,,,,,3,,74,98
66432,note_on,,,,,92,0,8,,,,,1,,74,98
66432,note_on,,,,,92,0,14,,,,,6,,62,100
66432,note_on,,,,,92,0,13,,,,,6,,74,100
66432,note_on,,,,,92,0,12,,,,,5,,50,98
66432,note_on,,,,,92,0,16,,,,,7,,62,100
66432,note_on,,,,,92,0,15,,,,,7,,74,100
66432,note_on,,,,,92,0,11,,,,,4,,62,98
66532,note_off,,,,,100,0,8,,,,,1,,74,100
66532,note_off,,,,,100,0,10,,,,,3,,74,100
66532,note_off,,,,,100,0,15,,,,,7,,74,100
66532,note_off,,,,,100,0,13,,,,,6,,74,100
66532,note_off,,,,,100,0,11,,,,,4,,62,100
66532,note_off,,,,,100,0,12,,,,,5,,50,100
66532,note_off,,,,,100,0,14,,,,,6,,62,100
66532,note_off,,,,,100,0,9,,,,,2,,74,100
66532,note_off,,,,,100,0,16,,,,,7,,62,100
66624,note_on,,,,,92,0,11,,,,,4,,62,100
66624,note_on,,,,,92,0,16,,,,,7,,62,100
66624,note_on,,,,,92,0,8,,,,,1,,74,100
66624,note_on,,,,,92,0,10,,,,,3,,74,100
66624,note_on,,,,,92,0,9,,,,,2,,74,100
66624,note_on,,,,,92,0,14,,,,,6,,62,100
66624,note_on,,,,,92,0,12,,,,,5,,50,100
66624,note_on,,,,,92,0,13,,,,,6,,74,100
66624,note_on,,,,,92,0,15,,,,,7,,74,100
66724,note_off,,,,,100,0,10,,,,,3,,74,100
66724,note_off,,,,,100,0,12,,,,,5,,50,100
66724,note_off,,,,,100,0,13,,,,,6,,74,100
66724,note_off,,,,,100,0,14,,,,,6,,62,100
66724,note_off,,,,,100,0,9,,,,,2,,74,100
66724,note_off,,,,,100,0,11,,,,,4,,62,100
66724,note_off,,,,,100,0,15,,,,,7,,74,100
66724,note_off,,,,,100,0,16,,,,,7,,62,100
66724,note_off,,,,,100,0,8,,,,,1,,74,100
66816,note_on,,,,,92,0,12,,,,,5,,50,101
66816,note_on,,,,,92,0,9,,,,,2,,74,101
66816,note_on,,,,,92,0,10,,,,,3,,74,101
66816,note_on,,,,,92,0,16,,,,,7,,62,100
66816,note_on,,,,,92,0,14,,,,,6,,62,100
66816,note_on,,,,,92,0,8,,,,,1,,74,101
66816,note_on,,,,,92,0,15,,,,,7,,74,100
66816,note_on,,,,,92,0,13,,,,,6,,74,100
66816,note_on,,,,,92,0,11,,,,,4,,62,101
66944,note_off,,,,,128,0,14,,,,,6,,62,100
66944,note_off,,,,,128,0,10,,,,,3,,74,100
66944,note_off,,,,,128,0,11,,,,,4,,62,100
66944,note_off,,,,,128,0,8,,,,,1,,74,100
66944,note_off,,,,,128,0,16,,,,,7,,62,100
66944,note_off,,,,,128,0,13,,,,,6,,74,100
66944,note_off,,,,,128,0,9,,,,,2,,74,100
66944,note_off,,,,,128,0,12,,,,,5,,50,100
66944,note_off,,,,,128,0,15,,,,,7,,74,100
67008,note_on,,,,,64,0,11,,,,,4,,60,100
67008,note_on,,,,,64,0,9,,,,,2,,72,100
67008,note_on,,,,,64,0,10,,,,,3,,72,100
67008,note_on,,,,,64,0,16,,,,,7,,60,100
67008,note_on,,,,,64,0,14,,,,,6,,60,100
67008,note_on,,,,,64,0,12,,,,,5,,48,100
67008,note_on,,,,,64,0,15,,,,,7,,72,100
67008,note_on,,,,,64,0,13,,,,,6,,72,100
67008,note_on,,,,,64,0,8,,,,,1,,72,100
67072,note_off,,,,,64,0,10,,,,,3,,72,100
67072,note_off,,,,,64,0,15,,,,,7,,72,100
67072,note_off,,,,,64,0,8,,,,,1,,72,100
67072,note_off,,,,,64,0,14,,,,,6,,60,100
67072,note_off,,,,,64,0,9,,,,,2,,72,100
67072,note_off,,,,,64,0,13,,,,,6,,72,100
67072,note_off,,,,,64,0,12,,,,,5,,48,100
67072,note_off,,,,,64,0,11,,,,,4,,60,100
67072,note_off,,,,,64,0,16,,,,,7,,60,100
67104,note_on,,,,,32,0,12,,,,,5,,46,100
67104,note_on,,,,,32,0,15,,,,,7,,70,100
67104,note_on,,,,,32,0,10,,,,,3,,70,100
67104,note_on,,,,,32,0,9,,,,,2,,70,100
67104,note_on,,,,,32,0,8,,,,,1,,70,100
67104,note_on,,,,,32,0,11,,,,,4,,58,100
67104,note_on,,,,,32,0,13,,,,,6,,70,100
67104,note_on,,,,,32,0,14,,,,,6,,58,100
67104,note_on,,,,,32,0,16,,,,,7,,58,100
67168,note_off,,,,,64,0,15,,,,,7,,70,100
67168,note_off,,,,,64,0,13,,,,,6,,70,100
67168,note_off,,,,,64,0,10,,,,,3,,70,100
67168,note_off,,,,,64,0,11,,,,,4,,58,100
67168,note_off,,,,,64,0,9,,,,,2,,70,100
67168,note_off,,,,,64,0,16,,,,,7,,58,100
67168,note_off,,,,,64,0,12,,,,,5,,46,100
67168,note_off,,,,,64,0,14,,,,,6,,58,100
67168,note_off,,,,,64,0,8,,,,,1,,70,100
67200,note_on,,,,,32,0,15,,,,,7,,72,100
67200,note_on,,,,,32,0,13,,,,,6,,72,100
67200,note_on,,,,,32,0,12,,,,,5,,48,100
67200,note_on,,,,,32,0,8,,,,,1,,72,100
67200,note_on,,,,,32,0,14,,,,,6,,60,100
67200,note_on,,,,,32,0,16,,,,,7,,60,100
67200,note_on,,,,,32,0,9,,,,,2,,72,100
67200,note_on,,,,,32,0,11,,,,,4,,60,100
67200,note_on,,,,,32,0,10,,,,,3,,72,100
67300,note_off,,,,,100,0,8,,,,,1,,72,100
67300,note_off,,,,,100,0,16,,,,,7,,60,100
67300,note_off,,,,,100,0,9,,,,,2,,72,100
67300,note_off,,,,,100,0,11,,,,,4,,60,100
67300,note_off,,,,,100,0,10,,,,,3,,72,100
67300,note_off,,,,,100,0,13,,,,,6,,72,100
67300,note_off,,,,,100,0,15,,,,,7,,72,100
67300,note_off,,,,,100,0,12,,,,,5,,48,100
67300,note_off,,,,,100,0,14,,,,,6,,60,100
67392,note_on,,,,,92,0,16,,,,,7,,57,100
67392,note_on,,,,,92,0,15,,,,,7,,69,100
67392,note_on,,,,,92,0,14,,,,,6,,57,100
67392,note_on,,,,,92,0,11,,,,,4,,57,100
67392,note_on,,,,,92,0,10,,,,,3,,69,100
67392,note_on,,,,,92,0,9,,,,,2,,69,100
67392,note_on,,,,,92,0,8,,,,,1,,69,100
67392,note_on,,,,,92,0,13,,,,,6,,69,100
67392,note_on,,,,,92,0,12,,,,,5,,45,100
67492,note_off,,,,,100,0,8,,,,,1,,69,100
67492,note_off,,,,,100,0,14,,,,,6,,57,100
67492,note_off,,,,,100,0,11,,,,,4,,57,100
67492,note_off,,,,,100,0,13,,,,,6,,69,100
67492,note_off,,,,,100,0,15,,,,,7,,69,100
67492,note_off,,,,,100,0,16,,,,,7,,57,100
67492,note_off,,,,,100,0,9,,,,,2,,69,100
67492,note_off,,,,,100,0,10,,,,,3,,69,100
67492,note_off,,,,,100,0,12,,,,,5,,45,100
67584,note_on,,,,,92,0,8,,,,,1,,70,102
67584,note_on,,,,,92,0,16,,,,,7,,58,100
67584,note_on,,,,,92,0,12,,,,,5,,46,102
67584,note_on,,,,,92,0,14,,,,,6,,58,100
67584,note_on,,,,,92,0,11,,,,,4,,58,102
67584,note_on,,,,,92,0,15,,,,,7,,70,100
67584,note_on,,,,,92,0,13,,,,,6,,70,100
67584,note_on,,,,,92,0,10,,,,,3,,70,102
67584,note_on,,,,,92,0,9,,,,,2,,70,102
67664,note_off,,,,,80,0,14,,,,,6,,58,100
67664,note_off,,,,,80,0,16,,,,,7,,58,100
67664,note_off,,,,,80,0,15,,,,,7,,70,100
67664,note_off,,,,,80,0,12,,,,,5,,46,100
67664,note_off,,,,,80,0,10,,,,,3,,70,100
67664,note_off,,,,,80,0,8,,,,,1,,70,100
67664,note_off,,,,,80,0,9,,,,,2,,70,100
67664,note_off,,,,,80,0,13,,,,,6,,70,100
67664,note_off,,,,,80,0,11,,,,,4,,58,100
67776,note_on,,,,,112,0,13,,,,,6,,67,100
67776,note_on,,,,,112,0,8,,,,,1,,67,101
67776,note_on,,,,,112,0,16,,,,,7,,55,100
67776,note_on,,,,,112,0,9,,,,,2,,67,101
67776,note_on,,,,,112,0,11,,,,,4,,55,101
67776,note_on,,,,,112,0,14,,,,,6,,55,100
67776,note_on,,,,,112,0,10,,,,,3,,67,101
67776,note_on,,,,,112,0,12,,,,,5,,43,101
67776,note_on,,,,,112,0,15,,,,,7,,67,100
67856,note_off,,,,,80,0,12,,,,,5,,43,100
67856,note_off,,,,,80,0,9,,,,,2,,67,100
67856,note_off,,,,,80,0,10,,,,,3,,67,100
67856,note_off,,,,,80,0,8,,,,,1,,67,100
67856,note_off,,,,,80,0,16,,,,,7,,55,100
67856,note_off,,,,,80,0,15,,,,,7,,67,100
67856,note_off,,,,,80,0,11,,,,,4,,55,100
67856,note_off,,,,,80,0,13,,,,,6,,67,100
67856,note_off,,,,,80,0,14,,,,,6,,55,100
67968,note_on,,,,,112,0,9,,,,,2,,72,99
67968,note_on,,,,,112,0,12,,,,,5,,48,99
67968,note_on,,,,,112,0,8,,,,,1,,72,99
67968,note_on,,,,,112,0,15,,,,,7,,72,100
67968,note_on,,,,,112,0,11,,,,,4,,60,99
67968,note_on,,,,,112,0,14,,,,,6,,60,100
67968,note_on,,,,,112,0,10,,,,,3,,72,99
67968,note_on,,,,,112,0,16,,,,,7,,60,100
67968,note_on,,,,,112,0,13,,,,,6,,72,100
68048,note_off,,,,,80,0,15,,,,,7,,72,100
68048,note_off,,,,,80,0,11,,,,,4,,60,100
68048,note_off,,,,,80,0,9,,,,,2,,72,100
68048,note_off,,,,,80,0,8,,,,,1,,72,100
68048,note_off,,,,,80,0,13,,,,,6,,72,100
68048,note_off,,,,,80,0,10,,,,,3,,72,100
68048,note_off,,,,,80,0,14,,,,,6,,60,100
68048,note_off,,,,,80,0,12,,,,,5,,48,100
68048,note_off,,,,,80,0,16,,,,,7,,60,100
68160,note_on,,,,,112,0,11,,,,,4,,48,97
68160,note_on,,,,,112,0,13,,,,,6,,60,100
68160,note_on,,,,,112,0,12,,,,,5,,36,97
68160,note_on,,,,,112,0,8,,,,,1,,60,97
68160,note_on,,,,,112,0,14,,,,,6,,48,100
68160,note_on,,,,,112,0,16,,,,,7,,48,100
68160,note_on,,,,,112,0,15,,,,,7,,60,100
68160,note_on,,,,,112,0,10,,,,,3,,60,97
68160,note_on,,,,,112,0,9,,,,,2,,60,97
68240,note_off,,,,,80,0,12,,,,,5,,36,100
68240,note_off,,,,,80,0,16,,,,,7,,48,100
68240,note_off,,,,,80,0,11,,,,,4,,48,100
68240,note_off,,,,,80,0,15,,,,,7,,60,100
68240,note_off,,,,,80,0,10,,,,,3,,60,100
68240,note_off,,,,,80,0,8,,,,,1,,60,100
68240,note_off,,,,,80,0,13,,,,,6,,60,100
68240,note_off,,,,,80,0,9,,,,,2,,60,100
68240,note_off,,,,,80,0,14,,,,,6,,48,100
68348,program_change,,,,,108,0,11,,,,,4,42,,
68352,note_on,,,,,112,0,14,,,,,6,,53,100
68352,note_on,,,,,4,0,11,,,,,4,,53,95
68352,note_on,,,,,112,0,12,,,,,5,,41,95
68352,note_on,,,,,112,0,9,,,,,2,,65,95
68352,note_on,,,,,112,0,8,,,,,1,,65,95
68352,note_on,,,,,112,0,15,,,,,7,,65,100
68352,note_on,,,,,112,0,13,,,,,6,,65,100
68352,note_on,,,,,112,0,10,,,,,3,,65,95
68352,note_on,,,,,112,0,16,,,,,7,,53,100
68452,note_off,,,,,100,0,13,,,,,6,,65,100
68480,note_off,,,,,128,0,14,,,,,6,,53,100
68480,note_off,,,,,128,0,11,,,,,4,,53,100
68544,note_on,,,,,64,0,14,,,,,6,,57,100
68544,note_on,,,,,64,0,11,,,,,4,,57,75
68544,note_on,,,,,92,0,13,,,,,6,,69,100
68608,note_off,,,,,64,0,11,,,,,4,,57,100
68608,note_off,,,,,256,0,9,,,,,2,,65,100
68608,note_off,,,,,64,0,14,,,,,6,,57,100
68608,note_off,,,,,256,0,15,,,,,7,,65,100
68608,note_off,,,,,256,0,16,,,,,7,,53,100
68608,note_off,,,,,256,0,10,,,,,3,,65,100
68608,note_off,,,,,256,0,8,,,,,1,,65,100
68608,note_off,,,,,256,0,12,,,,,5,,41,100
68608,note_off,,,,,64,0,13,,,,,6,,69,100
68640,note_on,,,,,32,0,13,,,,,6,,67,100
68640,note_on,,,,,32,0,11,,,,,4,,55,75
68640,note_on,,,,,32,0,14,,,,,6,,55,100
68704,note_off,,,,,64,0,14,,,,,6,,55,100
68704,note_off,,,,,64,0,11,,,,,4,,55,100
68704,note_off,,,,,64,0,13,,,,,6,,67,100
68736,note_on,,,,,32,0,13,,,,,6,,65,100
68736,note_on,,,,,32,0,11,,,,,4,,53,75
68736,note_on,,,,,32,0,14,,,,,6,,53,100
68836,note_off,,,,,100,0,14,,,,,6,,53,100
68836,note_off,,,,,100,0,13,,,,,6,,65,100
68836,note_off,,,,,100,0,11,,,,,4,,53,100
68928,note_on,,,,,92,0,14,,,,,6,,52,100
68928,note_on,,,,,92,0,13,,,,,6,,69,100
68928,note_on,,,,,92,0,11,,,,,4,,52,75
68928,note_on,,,,,11200,0,7,,,,,0,,69,90
68928,note_on,,,,,0,0,13,,,,,6,,64,100
69028,note_off,,,,,100,0,14,,,,,6,,52,100
69028,note_off,,,,,100,0,13,,,,,6,,69,100
69028,note_off,,,,,100,0,11,,,,,4,,52,100
69028,note_off,,,,,100,0,7,,,,,0,,69,100
69028,note_off,,,,,0,0,13,,,,,6,,64,100
69120,note_on,,,,,92,0,14,,,,,6,,53,100
69120,note_on,,,,,0,0,13,,,,,6,,62,100
69120,note_on,,,,,92,0,11,,,,,4,,53,75
69120,note_on,,,,,0,0,13,,,,,6,,69,100
69120,note_on,,,,,92,0,7,,,,,0,,74,90
69120,note_on,,,,,92,0,13,,,,,6,,74,100
69184,note_off,,,,,64,0,7,,,,,0,,74,100
69216,note_on,,,,,32,0,7,,,,,0,,69,90
69280,note_off,,,,,64,0,7,,,,,0,,69,100
69312,note_on,,,,,32,0,7,,,,,0,,74,90
69376,note_off,,,,,256,0,13,,,,,6,,74,100
69376,note_off,,,,,0,0,13,,,,,6,,62,100
69376,note_off,,,,,256,0,14,,,,,6,,53,100
69376,note_off,,,,,0,0,13,,,,,6,,69,100
69376,note_off,,,,,64,0,7,,,,,0,,74,100
69376,note_off,,,,,256,0,11,,,,,4,,53,100
69408,note_on,,,,,32,0,7,,,,,0,,76,91
69472,note_off,,,,,64,0,7,,,,,0,,76,100
69504,note_on,,,,,32,0,7,,,,,0,,74,91
69504,note_on,,,,,128,0,11,,,,,4,,54,76
69504,note_on,,,,,128,0,14,,,,,6,,54,100
69504,note_on,,,,,128,0,13,,,,,6,,74,100
69504,note_on,,,,,0,0,13,,,,,6,,62,100
69504,note_on,,,,,0,0,13,,,,,6,,69,100
69568,note_off,,,,,64,0,7,,,,,0,,74,100
69600,note_on,,,,,32,0,7,,,,,0,,69,91
69664,note_off,,,,,64,0,7,,,,,0,,69,100
69696,note_on,,,,,32,0,7,,,,,0,,74,91
69760,note_off,,,,,64,0,7,,,,,0,,74,100
69760,note_off,,,,,0,0,13,,,,,6,,69,100
69760,note_off,,,,,256,0,13,,,,,6,,74,100
69760,note_off,,,,,0,0,13,,,,,6,,62,100
69760,note_off,,,,,256,0,14,,,,,6,,54,100
69760,note_off,,,,,256,0,11,,,,,4,,54,100
69792,note_on,,,,,32,0,7,,,,,0,,76,91
69856,note_off,,,,,64,0,7,,,,,0,,76,100
69888,note_on,,,,,128,0,13,,,,,6,,67,100
69888,note_on,,,,,0,0,13,,,,,6,,71,100
69888,note_on,,,,,0,0,13,,,,,6,,74,100
69888,note_on,,,,,128,0,14,,,,,6,,55,100
69888,note_on,,,,,128,0,11,,,,,4,,55,76
69888,note_on,,,,,32,0,7,,,,,0,,74,92
69980,note_off,,,,,92,0,7,,,,,0,,74,100
69984,note_on,,,,,4,0,7,,,,,0,,72,92
69988,note_off,,,,,100,0,14,,,,,6,,55,100
69988,note_off,,,,,100,0,11,,,,,4,,55,100
70016,note_off,,,,,0,0,13,,,,,6,,71,100
70016,note_off,,,,,128,0,13,,,,,6,,67,100
70076,note_off,,,,,92,0,7,,,,,0,,72,100
70080,note_on,,,,,4,0,7,,,,,0,,71,92
70080,note_on,,,,,92,0,11,,,,,4,,43,76
70080,note_on,,,,,92,0,14,,,,,6,,43,100
70080,note_on,,,,,64,0,13,,,,,6,,71,100
70144,note_off,,,,,64,0,7,,,,,0,,71,100
70172,note_off,,,,,92,0,13,,,,,6,,71,100
70176,note_on,,,,,32,0,7,,,,,0,,69,92
70176,note_on,,,,,4,0,13,,,,,6,,69,100
70180,note_off,,,,,100,0,14,,,,,6,,43,100
70180,note_off,,,,,100,0,11,,,,,4,,43,100
70240,note_off,,,,,64,0,7,,,,,0,,69,100
70268,note_off,,,,,92,0,13,,,,,6,,69,100
70272,note_on,,,,,4,0,13,,,,,6,,67,100
70272,note_on,,,,,92,0,11,,,,,4,,55,77
70272,note_on,,,,,32,0,7,,,,,0,,71,92
70272,note_on,,,,,92,0,14,,,,,6,,55,100
70336,note_off,,,,,64,0,7,,,,,0,,71,100
70368,note_on,,,,,32,0,7,,,,,0,,72,93
70372,note_off,,,,,100,0,11,,,,,4,,55,100
70372,note_off,,,,,100,0,14,,,,,6,,55,100
70372,note_off,,,,,100,0,13,,,,,6,,67,100
70400,note_off,,,,,28,0,13,,,,,6,,74,100
70432,note_off,,,,,64,0,7,,,,,0,,72,100
70464,note_on,,,,,32,0,7,,,,,0,,74,93
70464,note_on,,,,,64,0,13,,,,,6,,71,100
70464,note_on,,,,,92,0,14,,,,,6,,43,100
70464,note_on,,,,,92,0,11,,,,,4,,43,77
70528,note_off,,,,,64,0,7,,,,,0,,74,100
70560,note_on,,,,,32,0,7,,,,,0,,71,93
70564,note_off,,,,,100,0,13,,,,,6,,71,100
70564,note_off,,,,,100,0,14,,,,,6,,43,100
70564,note_off,,,,,100,0,11,,,,,4,,43,100
70624,note_off,,,,,64,0,7,,,,,0,,71,100
70656,note_on,,,,,92,0,14,,,,,6,,55,100
70656,note_on,,,,,0,0,13,,,,,6,,71,100
70656,note_on,,,,,0,0,13,,,,,6,,64,100
70656,note_on,,,,,92,0,11,,,,,4,,55,77
70656,note_on,,,,,32,0,7,,,,,0,,76,93
70656,note_on,,,,,92,0,13,,,,,6,,76,100
70720,note_off,,,,,64,0,7,,,,,0,,76,100
70752,note_on,,,,,32,0,7,,,,,0,,71,93
70816,note_off,,,,,64,0,7,,,,,0,,71,100
70848,note_on,,,,,32,0,7,,,,,0,,76,94
70912,note_off,,,,,256,0,14,,,,,6,,55,100
70912,note_off,,,,,64,0,7,,,,,0,,76,100
70912,note_off,,,,,0,0,13,,,,,6,,71,100
70912,note_off,,,,,0,0,13,,,,,6,,64,100
70912,note_off,,,,,256,0,13,,,,,6,,76,100
70912,note_off,,,,,256,0,11,,,,,4,,55,100
70944,note_on,,,,,32,0,7,,,,,0,,77,94
71008,note_off,,,,,64,0,7,,,,,0,,77,100
71040,note_on,,,,,32,0,7,,,,,0,,76,94
71040,note_on,,,,,128,0,14,,,,,6,,56,100
71040,note_on,,,,,128,0,11,,,,,4,,56,78
71040,note_on,,,,,128,0,13,,,,,6,,76,100
71040,note_on,,,,,0,0,13,,,,,6,,64,100
71040,note_on,,,,,0,0,13,,,,,6,,71,100
71104,note_off,,,,,64,0,7,,,,,0,,76,100
71136,note_on,,,,,32,0,7,,,,,0,,71,94
71200,note_off,,,,,64,0,7,,,,,0,,71,100
71232,note_on,,,,,32,0,7,,,,,0,,76,94
71296,note_off,,,,,256,0,13,,,,,6,,76,100
71296,note_off,,,,,256,0,14,,,,,6,,56,100
71296,note_off,,,,,64,0,7,,,,,0,,76,100
71296,note_off,,,,,256,0,11,,,,,4,,56,100
71296,note_off,,,,,0,0,13,,,,,6,,64,100
71296,note_off,,,,,0,0,13,,,,,6,,71,100
71328,note_on,,,,,32,0,7,,,,,0,,77,95
71392,note_off,,,,,64,0,7,,,,,0,,77,100
71424,note_on,,,,,0,0,13,,,,,6,,76,100
71424,note_on,,,,,32,0,7,,,,,0,,76,95
71424,note_on,,,,,0,0,13,,,,,6,,73,100
71424,note_on,,,,,128,0,13,,,,,6,,69,100
71424,note_on,,,,,128,0,14,,,,,6,,57,100
71424,note_on,,,,,128,0,11,,,,,4,,57,78
71516,note_off,,,,,92,0,7,,,,,0,,76,100
71520,note_on,,,,,4,0,7,,,,,0,,74,95
71524,note_off,,,,,100,0,11,,,,,4,,57,100
71524,note_off,,,,,100,0,14,,,,,6,,57,100
71552,note_off,,,,,0,0,13,,,,,6,,73,100
71552,note_off,,,,,128,0,13,,,,,6,,69,100
71612,note_off,,,,,92,0,7,,,,,0,,74,100
71616,note_on,,,,,4,0,7,,,,,0,,73,95
71616,note_on,,,,,92,0,11,,,,,4,,45,78
71616,note_on,,,,,92,0,14,,,,,6,,45,100
71616,note_on,,,,,64,0,13,,,,,6,,73,100
71680,note_off,,,,,64,0,7,,,,,0,,73,100
71708,note_off,,,,,92,0,13,,,,,6,,73,100
71712,note_on,,,,,32,0,7,,,,,0,,71,95
71712,note_on,,,,,4,0,13,,,,,6,,71,100
71716,note_off,,,,,100,0,14,,,,,6,,45,100
71716,note_off,,,,,100,0,11,,,,,4,,45,100
71776,note_off,,,,,64,0,7,,,,,0,,71,100
71804,note_off,,,,,92,0,13,,,,,6,,71,100
71808,note_on,,,,,92,0,11,,,,,4,,57,78
71808,note_on,,,,,32,0,7,,,,,0,,73,96
71808,note_on,,,,,92,0,14,,,,,6,,57,100
71808,note_on,,,,,4,0,13,,,,,6,,69,100
71872,note_off,,,,,64,0,7,,,,,0,,73,100
71904,note_on,,,,,32,0,7,,,,,0,,74,96
71908,note_off,,,,,100,0,13,,,,,6,,69,100
71908,note_off,,,,,100,0,11,,,,,4,,57,100
71908,note_off,,,,,100,0,14,,,,,6,,57,100
71936,note_off,,,,,28,0,13,,,,,6,,76,100
71968,note_off,,,,,64,0,7,,,,,0,,74,100
72000,note_on,,,,,92,0,14,,,,,6,,45,100
72000,note_on,,,,,92,0,11,,,,,4,,45,79
72000,note_on,,,,,32,0,7,,,,,0,,76,96
72000,note_on,,,,,64,0,13,,,,,6,,73,100
72064,note_off,,,,,64,0,7,,,,,0,,76,100
72096,note_on,,,,,32,0,7,,,,,0,,73,96
72100,note_off,,,,,100,0,11,,,,,4,,45,100
72100,note_off,,,,,100,0,14,,,,,6,,45,100
72100,note_off,,,,,100,0,13,,,,,6,,73,100
72160,note_off,,,,,64,0,7,,,,,0,,73,100
72192,note_on,,,,,92,0,13,,,,,6,,73,100
72192,note_on,,,,,0,0,13,,,,,6,,77,100
72192,note_on,,,,,0,0,13,,,,,6,,65,100
72192,note_on,,,,,32,0,7,,,,,0,,77,96
72192,note_on,,,,,92,0,14,,,,,6,,57,100
72192,note_on,,,,,92,0,11,,,,,4,,57,79
72256,note_off,,,,,64,0,7,,,,,0,,77,100
72288,note_on,,,,,32,0,7,,,,,0,,73,97
72352,note_off,,,,,64,0,7,,,,,0,,73,100
72384,note_on,,,,,32,0,7,,,,,0,,77,97
72448,note_off,,,,,256,0,11,,,,,4,,57,100
72448,note_off,,,,,64,0,7,,,,,0,,77,100
72448,note_off,,,,,0,0,13,,,,,6,,65,100
72448,note_off,,,,,256,0,13,,,,,6,,73,100
72448,note_off,,,,,256,0,14,,,,,6,,57,100
72448,note_off,,,,,0,0,13,,,,,6,,77,100
72480,note_on,,,,,32,0,7,,,,,0,,79,97
72544,note_off,,,,,64,0,7,,,,,0,,79,100
72576,note_on,,,,,32,0,7,,,,,0,,77,97
72576,note_on,,,,,0,0,13,,,,,6,,65,100
72576,note_on,,,,,0,0,13,,,,,6,,77,100
72576,note_on,,,,,128,0,14,,,,,6,,57,100
72576,note_on,,,,,128,0,13,,,,,6,,73,100
72576,note_on,,,,,128,0,11,,,,,4,,57,79
72640,note_off,,,,,64,0,7,,,,,0,,77,100
72672,note_on,,,,,32,0,7,,,,,0,,73,97
72736,note_off,,,,,64,0,7,,,,,0,,73,100
72768,note_on,,,,,32,0,7,,,,,0,,77,98
72832,note_off,,,,,256,0,13,,,,,6,,73,100
72832,note_off,,,,,256,0,14,,,,,6,,57,100
72832,note_off,,,,,0,0,13,,,,,6,,65,100
72832,note_off,,,,,256,0,11,,,,,4,,57,100
72832,note_off,,,,,0,0,13,,,,,6,,77,100
72832,note_off,,,,,64,0,7,,,,,0,,77,100
72864,note_on,,,,,32,0,7,,,,,0,,79,98
72928,note_off,,,,,64,0,7,,,,,0,,79,100
72960,note_on,,,,,128,0,14,,,,,6,,58,100
72960,note_on,,,,,0,0,13,,,,,6,,74,100
72960,note_on,,,,,128,0,13,,,,,6,,70,100
72960,note_on,,,,,0,0,13,,,,,6,,77,100
72960,note_on,,,,,32,0,7,,,,,0,,77,98
72960,note_on,,,,,128,0,11,,,,,4,,58,80
73052,note_off,,,,,92,0,7,,,,,0,,77,100
73056,note_on,,,,,4,0,7,,,,,0,,76,98
73060,note_off,,,,,100,0,11,,,,,4,,58,100
73060,note_off,,,,,100,0,14,,,,,6,,58,100
73088,note_off,,,,,128,0,13,,,,,6,,70,100
73088,note_off,,,,,0,0,13,,,,,6,,74,100
73148,note_off,,,,,92,0,7,,,,,0,,76,100
73152,note_on,,,,,92,0,11,,,,,4,,46,80
73152,note_on,,,,,64,0,13,,,,,6,,74,100
73152,note_on,,,,,92,0,14,,,,,6,,46,100
73152,note_on,,,,,4,0,7,,,,,0,,74,98
73216,note_off,,,,,64,0,7,,,,,0,,74,100
73244,note_off,,,,,92,0,13,,,,,6,,74,100
73248,note_on,,,,,32,0,7,,,,,0,,73,99
73248,note_on,,,,,4,0,13,,,,,6,,73,100
73252,note_off,,,,,100,0,14,,,,,6,,46,100
73252,note_off,,,,,100,0,11,,,,,4,,46,100
73312,note_off,,,,,64,0,7,,,,,0,,73,100
73340,note_off,,,,,92,0,13,,,,,6,,73,100
73344,note_on,,,,,32,0,7,,,,,0,,74,99
73344,note_on,,,,,92,0,14,,,,,6,,58,100
73344,note_on,,,,,4,0,13,,,,,6,,70,100
73344,note_on,,,,,92,0,11,,,,,4,,58,80
73408,note_off,,,,,64,0,7,,,,,0,,74,100
73440,note_on,,,,,32,0,7,,,,,0,,76,99
73444,note_off,,,,,100,0,13,,,,,6,,70,100
73444,note_off,,,,,100,0,11,,,,,4,,58,100
73444,note_off,,,,,100,0,14,,,,,6,,58,100
73472,note_off,,,,,28,0,13,,,,,6,,77,100
73504,note_off,,,,,64,0,7,,,,,0,,76,100
73536,note_on,,,,,92,0,14,,,,,6,,46,100
73536,note_on,,,,,32,0,7,,,,,0,,77,99
73536,note_on,,,,,92,0,11,,,,,4,,46,81
73536,note_on,,,,,64,0,13,,,,,6,,74,100
73600,note_off,,,,,64,0,7,,,,,0,,77,100
73632,note_on,,,,,32,0,7,,,,,0,,74,99
73636,note_off,,,,,100,0,13,,,,,6,,74,100
73636,note_off,,,,,100,0,14,,,,,6,,46,100
73636,note_off,,,,,100,0,11,,,,,4,,46,100
73696,note_off,,,,,64,0,7,,,,,0,,74,100
73728,note_on,,,,,92,0,14,,,,,6,,58,100
73728,note_on,,,,,32,0,7,,,,,0,,79,100
73728,note_on,,,,,92,0,11,,,,,4,,58,81
73728,note_on,,,,,0,0,13,,,,,6,,67,100
73728,note_on,,,,,0,0,13,,,,,6,,74,100
73728,note_on,,,,,92,0,13,,,,,6,,79,100
73792,note_off,,,,,64,0,7,,,,,0,,79,100
73824,note_on,,,,,32,0,7,,,,,0,,74,100
73888,note_off,,,,,64,0,7,,,,,0,,74,100
73920,note_on,,,,,32,0,7,,,,,0,,79,100
73984,note_off,,,,,64,0,7,,,,,0,,79,100
73984,note_off,,,,,256,0,14,,,,,6,,58,100
73984,note_off,,,,,256,0,11,,,,,4,,58,100
73984,note_off,,,,,256,0,13,,,,,6,,79,100
73984,note_off,,,,,0,0,13,,,,,6,,67,100
73984,note_off,,,,,0,0,13,,,,,6,,74,100
74016,note_on,,,,,32,0,7,,,,,0,,81,100
74080,note_off,,,,,64,0,7,,,,,0,,81,100
74112,note_on,,,,,128,0,11,,,,,4,,59,81
74112,note_on,,,,,32,0,7,,,,,0,,79,100
74112,note_on,,,,,0,0,13,,,,,6,,74,100
74112,note_on,,,,,0,0,13,,,,,6,,67,100
74112,note_on,,,,,128,0,14,,,,,6,,59,100
74112,note_on,,,,,128,0,13,,,,,6,,79,100
74176,note_off,,,,,64,0,7,,,,,0,,79,100
74208,note_on,,,,,32,0,7,,,,,0,,74,101
74272,note_off,,,,,64,0,7,,,,,0,,74,100
74304,note_on,,,,,32,0,7,,,,,0,,79,101
74368,note_off,,,,,256,0,11,,,,,4,,59,100
74368,note_off,,,,,256,0,14,,,,,6,,59,100
74368,note_off,,,,,64,0,7,,,,,0,,79,100
74368,note_off,,,,,256,0,13,,,,,6,,79,100
74368,note_off,,,,,0,0,13,,,,,6,,67,100
74368,note_off,,,,,0,0,13,,,,,6,,74,100
74400,note_on,,,,,32,0,7,,,,,0,,81,101
74464,note_off,,,,,64,0,7,,,,,0,,81,100
74496,note_on,,,,,128,0,11,,,,,4,,60,82
74496,note_on,,,,,128,0,13,,,,,6,,72,100
74496,note_on,,,,,128,0,14,,,,,6,,60,100
74496,note_on,,,,,0,0,13,,,,,6,,79,100
74496,note_on,,,,,32,0,7,,,,,0,,79,101
74496,note_on,,,,,0,0,13,,,,,6,,76,100
74588,note_off,,,,,92,0,7,,,,,0,,79,100
74592,note_on,,,,,4,0,7,,,,,0,,77,101
74596,note_off,,,,,100,0,14,,,,,6,,60,100
74596,note_off,,,,,100,0,11,,,,,4,,60,100
74624,note_off,,,,,128,0,13,,,,,6,,72,100
74624,note_off,,,,,0,0,13,,,,,6,,76,100
74684,note_off,,,,,92,0,7,,,,,0,,77,100
74688,note_on,,,,,92,0,11,,,,,4,,48,82
74688,note_on,,,,,4,0,7,,,,,0,,76,102
74688,note_on,,,,,64,0,13,,,,,6,,76,100
74688,note_on,,,,,92,0,14,,,,,6,,48,100
74752,note_off,,,,,64,0,7,,,,,0,,76,100
74780,note_off,,,,,92,0,13,,,,,6,,76,100
74784,note_on,,,,,32,0,7,,,,,0,,74,102
74784,note_on,,,,,4,0,13,,,,,6,,74,100
74788,note_off,,,,,100,0,14,,,,,6,,48,100
74788,note_off,,,,,100,0,11,,,,,4,,48,100
74848,note_off,,,,,64,0,7,,,,,0,,74,100
74876,note_off,,,,,92,0,13,,,,,6,,74,100
74880,note_on,,,,,92,0,14,,,,,6,,60,100
74880,note_on,,,,,32,0,7,,,,,0,,76,102
74880,note_on,,,,,4,0,13,,,,,6,,72,100
74880,note_on,,,,,92,0,11,,,,,4,,60,82
74944,note_off,,,,,64,0,7,,,,,0,,76,100
74976,note_on,,,,,32,0,7,,,,,0,,77,102
74980,note_off,,,,,100,0,11,,,,,4,,60,100
74980,note_off,,,,,100,0,13,,,,,6,,72,100
74980,note_off,,,,,100,0,14,,,,,6,,60,100
75008,note_off,,,,,28,0,13,,,,,6,,79,100
75040,note_off,,,,,64,0,7,,,,,0,,77,100
75072,note_on,,,,,92,0,14,,,,,6,,48,100
75072,note_on,,,,,32,0,7,,,,,0,,79,102
75072,note_on,,,,,92,0,11,,,,,4,,48,82
75072,note_on,,,,,64,0,13,,,,,6,,76,100
75136,note_off,,,,,64,0,7,,,,,0,,79,100
75168,note_on,,,,,32,0,7,,,,,0,,76,103
75172,note_off,,,,,100,0,13,,,,,6,,76,100
75172,note_off,,,,,100,0,11,,,,,4,,48,100
75172,note_off,,,,,100,0,14,,,,,6,,48,100
75232,note_off,,,,,64,0,7,,,,,0,,76,100
75264,note_on,,,,,92,0,13,,,,,6,,81,100
75264,note_on,,,,,0,0,13,,,,,6,,69,100
75264,note_on,,,,,0,0,13,,,,,6,,76,100
75264,note_on,,,,,92,0,14,,,,,6,,60,100
75264,note_on,,,,,32,0,7,,,,,0,,81,103
75264,note_on,,,,,92,0,11,,,,,4,,60,83
75328,note_off,,,,,64,0,7,,,,,0,,81,100
75360,note_on,,,,,32,0,7,,,,,0,,76,103
75424,note_off,,,,,64,0,7,,,,,0,,76,100
75456,note_on,,,,,32,0,7,,,,,0,,81,103
75520,note_off,,,,,64,0,7,,,,,0,,81,100
75520,note_off,,,,,0,0,13,,,,,6,,69,100
75520,note_off,,,,,256,0,11,,,,,4,,60,100
75520,note_off,,,,,256,0,13,,,,,6,,81,100
75520,note_off,,,,,256,0,14,,,,,6,,60,100
75520,note_off,,,,,0,0,13,,,,,6,,76,100
75552,note_on,,,,,32,0,7,,,,,0,,82,103
75616,note_off,,,,,64,0,7,,,,,0,,82,100
75648,note_on,,,,,128,0,11,,,,,4,,61,83
75648,note_on,,,,,128,0,13,,,,,6,,81,100
75648,note_on,,,,,0,0,13,,,,,6,,69,100
75648,note_on,,,,,0,0,13,,,,,6,,76,100
75648,note_on,,,,,32,0,7,,,,,0,,81,104
75648,note_on,,,,,128,0,14,,,,,6,,61,100
75712,note_off,,,,,64,0,7,,,,,0,,81,100
75744,note_on,,,,,32,0,7,,,,,0,,76,104
75808,note_off,,,,,64,0,7,,,,,0,,76,100
75840,note_on,,,,,32,0,7,,,,,0,,81,104
75904,note_off,,,,,256,0,14,,,,,6,,61,100
75904,note_off,,,,,256,0,13,,,,,6,,81,100
75904,note_off,,,,,0,0,13,,,,,6,,69,100
75904,note_off,,,,,0,0,13,,,,,6,,76,100
75904,note_off,,,,,64,0,7,,,,,0,,81,100
75904,note_off,,,,,256,0,11,,,,,4,,61,100
75936,note_on,,,,,32,0,7,,,,,0,,82,104
76000,note_off,,,,,64,0,7,,,,,0,,82,100
76032,note_on,,,,,32,0,7,,,,,0,,81,105
76032,note_on,,,,,128,0,14,,,,,6,,62,100
76032,note_on,,,,,128,0,11,,,,,4,,62,84
76032,note_on,,,,,0,0,13,,,,,6,,81,100
76032,note_on,,,,,0,0,13,,,,,6,,77,100
76032,note_on,,,,,128,0,13,,,,,6,,74,100
76124,note_off,,,,,92,0,7,,,,,0,,81,100
76128,note_on,,,,,4,0,7,,,,,0,,77,105
76132,note_off,,,,,100,0,14,,,,,6,,62,100
76132,note_off,,,,,100,0,11,,,,,4,,62,100
76160,note_off,,,,,128,0,13,,,,,6,,74,100
76160,note_off,,,,,0,0,13,,,,,6,,77,100
76192,note_off,,,,,64,0,7,,,,,0,,77,100
76224,note_on,,,,,64,0,13,,,,,6,,77,100
76224,note_on,,,,,92,0,11,,,,,4,,50,84
76224,note_on,,,,,32,0,7,,,,,0,,79,104
76224,note_on,,,,,92,0,14,,,,,6,,50,100
76316,note_off,,,,,92,0,7,,,,,0,,79,100
76316,note_off,,,,,92,0,13,,,,,6,,77,100
76320,note_on,,,,,4,0,13,,,,,6,,76,100
76320,note_on,,,,,4,0,7,,,,,0,,76,104
76324,note_off,,,,,100,0,11,,,,,4,,50,100
76324,note_off,,,,,100,0,14,,,,,6,,50,100
76384,note_off,,,,,64,0,7,,,,,0,,76,100
76412,note_off,,,,,92,0,13,,,,,6,,76,100
76416,note_on,,,,,92,0,11,,,,,4,,62,84
76416,note_on,,,,,92,0,14,,,,,6,,62,100
76416,note_on,,,,,4,0,13,,,,,6,,74,100
76416,note_on,,,,,32,0,7,,,,,0,,77,103
76508,note_off,,,,,92,0,7,,,,,0,,77,100
76512,note_on,,,,,4,0,7,,,,,0,,74,102
76516,note_off,,,,,100,0,13,,,,,6,,74,100
76516,note_off,,,,,100,0,14,,,,,6,,62,100
76516,note_off,,,,,100,0,11,,,,,4,,62,100
76544,note_off,,,,,28,0,13,,,,,6,,81,100
76576,note_off,,,,,64,0,7,,,,,0,,74,100
76608,note_on,,,,,92,0,14,,,,,6,,50,100
76608,note_on,,,,,64,0,13,,,,,6,,72,100
76608,note_on,,,,,32,0,7,,,,,0,,76,102
76608,note_on,,,,,92,0,11,,,,,4,,50,84
76700,note_off,,,,,92,0,7,,,,,0,,76,100
76704,note_on,,,,,4,0,7,,,,,0,,72,101
76708,note_off,,,,,100,0,11,,,,,4,,50,100
76708,note_off,,,,,100,0,13,,,,,6,,72,100
76708,note_off,,,,,100,0,14,,,,,6,,50,100
76768,note_off,,,,,64,0,7,,,,,0,,72,100
76800,note_on,,,,,92,0,14,,,,,6,,50,100
76800,note_on,,,,,32,0,7,,,,,0,,74,101
76800,note_on,,,,,92,0,11,,,,,4,,50,84
76800,note_on,,,,,0,0,13,,,,,6,,65,100
76800,note_on,,,,,92,0,13,,,,,6,,71,100
76892,note_off,,,,,92,0,7,,,,,0,,74,100
76896,note_on,,,,,4,0,7,,,,,0,,71,100
76960,note_off,,,,,64,0,7,,,,,0,,71,100
76992,note_on,,,,,32,0,7,,,,,0,,72,99
77056,note_off,,,,,256,0,14,,,,,6,,50,100
77056,note_off,,,,,256,0,11,,,,,4,,50,100
77056,note_off,,,,,256,0,13,,,,,6,,71,100
77056,note_off,,,,,0,0,13,,,,,6,,65,100
77084,note_off,,,,,92,0,7,,,,,0,,72,100
77088,note_on,,,,,4,0,7,,,,,0,,69,99
77152,note_off,,,,,64,0,7,,,,,0,,69,100
77184,note_on,,,,,32,0,7,,,,,0,,71,98
77276,note_off,,,,,92,0,7,,,,,0,,71,100
77280,note_on,,,,,4,0,7,,,,,0,,68,97
77344,note_off,,,,,64,0,7,,,,,0,,68,100
77376,note_on,,,,,32,0,7,,,,,0,,69,97
77468,note_off,,,,,92,0,7,,,,,0,,69,100
77472,note_on,,,,,4,0,7,,,,,0,,66,96
77536,note_off,,,,,64,0,7,,,,,0,,66,100
77568,note_on,,,,,32,0,7,,,,,0,,64,94
77568,note_on,,,,,512,0,14,,,,,6,,52,100
77568,note_on,,,,,0,0,13,,,,,6,,76,100
77568,note_on,,,,,0,0,13,,,,,6,,71,100
77568,note_on,,,,,512,0,13,,,,,6,,68,100
77568,note_on,,,,,512,0,11,,,,,4,,52,85
77632,note_off,,,,,64,0,7,,,,,0,,64,100
77664,note_on,,,,,32,0,7,,,,,0,,68,94
77668,note_off,,,,,100,0,11,,,,,4,,52,100
77668,note_off,,,,,100,0,14,,,,,6,,52,100
77728,note_off,,,,,64,0,7,,,,,0,,68,100
77760,note_on,,,,,92,0,14,,,,,6,,64,100
77760,note_on,,,,,32,0,7,,,,,0,,66,95
77760,note_on,,,,,92,0,11,,,,,4,,64,85
77824,note_off,,,,,0,0,13,,,,,6,,76,100
77824,note_off,,,,,64,0,7,,,,,0,,66,100
77824,note_off,,,,,0,0,13,,,,,6,,71,100
77824,note_off,,,,,256,0,13,,,,,6,,68,100
77856,note_on,,,,,32,0,7,,,,,0,,64,95
77860,note_off,,,,,100,0,11,,,,,4,,64,100
77860,note_off,,,,,100,0,14,,,,,6,,64,100
77920,note_off,,,,,64,0,7,,,,,0,,64,100
77952,note_on,,,,,92,0,14,,,,,6,,56,100
77952,note_on,,,,,0,0,13,,,,,6,,68,100
77952,note_on,,,,,0,0,13,,,,,6,,71,100
77952,note_on,,,,,128,0,13,,,,,6,,64,100
77952,note_on,,,,,32,0,7,,,,,0,,76,96
77952,note_on,,,,,92,0,11,,,,,4,,56,85
78016,note_off,,,,,64,0,7,,,,,0,,76,100
78048,note_on,,,,,32,0,7,,,,,0,,74,96
78052,note_off,,,,,100,0,14,,,,,6,,56,100
78052,note_off,,,,,100,0,11,,,,,4,,56,100
78112,note_off,,,,,64,0,7,,,,,0,,74,100
78144,note_on,,,,,32,0,7,,,,,0,,72,97
78144,note_on,,,,,92,0,14,,,,,6,,52,100
78144,note_on,,,,,92,0,11,,,,,4,,52,85
78208,note_off,,,,,256,0,13,,,,,6,,64,100
78208,note_off,,,,,0,0,13,,,,,6,,68,100
78208,note_off,,,,,0,0,13,,,,,6,,71,100
78208,note_off,,,,,64,0,7,,,,,0,,72,100
78240,note_on,,,,,32,0,7,,,,,0,,71,98
78244,note_off,,,,,100,0,11,,,,,4,,52,100
78244,note_off,,,,,100,0,14,,,,,6,,52,100
78304,note_off,,,,,64,0,7,,,,,0,,71,100
78336,note_on,,,,,32,0,7,,,,,0,,72,98
78336,note_on,,,,,128,0,13,,,,,6,,64,100
78336,note_on,,,,,92,0,11,,,,,4,,45,85
78336,note_on,,,,,0,0,13,,,,,6,,69,100
78336,note_on,,,,,0,0,13,,,,,6,,72,100
78336,note_on,,,,,92,0,14,,,,,6,,45,100
78428,note_off,,,,,92,0,7,,,,,0,,72,100
78432,note_on,,,,,4,0,7,,,,,0,,69,99
78436,note_off,,,,,100,0,14,,,,,6,,45,100
78436,note_off,,,,,100,0,11,,,,,4,,45,100
78524,note_off,,,,,92,0,7,,,,,0,,69,100
78528,note_on,,,,,4,0,7,,,,,0,,72,99
78528,note_on,,,,,92,0,11,,,,,4,,57,85
78528,note_on,,,,,92,0,14,,,,,6,,57,100
78592,note_off,,,,,64,0,7,,,,,0,,72,100
78592,note_off,,,,,0,0,13,,,,,6,,72,100
78592,note_off,,,,,256,0,13,,,,,6,,64,100
78592,note_off,,,,,0,0,13,,,,,6,,69,100
78624,note_on,,,,,32,0,7,,,,,0,,76,100
78628,note_off,,,,,100,0,14,,,,,6,,57,100
78628,note_off,,,,,100,0,11,,,,,4,,57,100
78688,note_off,,,,,64,0,7,,,,,0,,76,100
78720,note_on,,,,,92,0,14,,,,,6,,60,100
78720,note_on,,,,,32,0,7,,,,,0,,81,100
78720,note_on,,,,,128,0,13,,,,,6,,76,100
78720,note_on,,,,,0,0,13,,,,,6,,72,100
78720,note_on,,,,,0,0,13,,,,,6,,69,100
78720,note_on,,,,,92,0,11,,,,,4,,60,85
78784,note_off,,,,,64,0,7,,,,,0,,81,100
78816,note_on,,,,,32,0,7,,,,,0,,79,101
78820,note_off,,,,,100,0,11,,,,,4,,60,100
78820,note_off,,,,,100,0,14,,,,,6,,60,100
78880,note_off,,,,,64,0,7,,,,,0,,79,100
78912,note_on,,,,,92,0,11,,,,,4,,57,85
78912,note_on,,,,,92,0,14,,,,,6,,57,100
78912,note_on,,,,,32,0,7,,,,,0,,78,102
78976,note_off,,,,,64,0,7,,,,,0,,78,100
78976,note_off,,,,,256,0,13,,,,,6,,76,100
78976,note_off,,,,,0,0,13,,,,,6,,72,100
78976,note_off,,,,,0,0,13,,,,,6,,69,100
79008,note_on,,,,,32,0,7,,,,,0,,76,102
79012,note_off,,,,,100,0,14,,,,,6,,57,100
79012,note_off,,,,,100,0,11,,,,,4,,57,100
79072,note_off,,,,,64,0,7,,,,,0,,76,100
79104,note_on,,,,,32,0,7,,,,,0,,75,103
79104,note_on,,,,,92,0,14,,,,,6,,47,100
79104,note_on,,,,,92,0,11,,,,,4,,47,85
79104,note_on,,,,,0,0,13,,,,,6,,71,100
79104,note_on,,,,,128,0,13,,,,,6,,66,100
79104,note_on,,,,,0,0,13,,,,,6,,75,100
79196,note_off,,,,,92,0,7,,,,,0,,75,100
79200,note_on,,,,,4,0,7,,,,,0,,71,103
79204,note_off,,,,,100,0,11,,,,,4,,47,100
79204,note_off,,,,,100,0,14,,,,,6,,47,100
79292,note_off,,,,,92,0,7,,,,,0,,71,100
79296,note_on,,,,,92,0,14,,,,,6,,59,100
79296,note_on,,,,,92,0,11,,,,,4,,59,88
79296,note_on,,,,,4,0,7,,,,,0,,75,104
79360,note_off,,,,,256,0,13,,,,,6,,66,100
79360,note_off,,,,,0,0,13,,,,,6,,71,100
79360,note_off,,,,,0,0,13,,,,,6,,75,100
79360,note_off,,,,,64,0,7,,,,,0,,75,100
79392,note_on,,,,,32,0,7,,,,,0,,78,105
79396,note_off,,,,,100,0,14,,,,,6,,59,100
79396,note_off,,,,,100,0,11,,,,,4,,59,100
79456,note_off,,,,,64,0,7,,,,,0,,78,100
79488,note_on,,,,,32,0,7,,,,,0,,83,105
79488,note_on,,,,,128,0,13,,,,,6,,69,100
79488,note_on,,,,,0,0,13,,,,,6,,75,100
79488,note_on,,,,,0,0,13,,,,,6,,78,100
79488,note_on,,,,,92,0,11,,,,,4,,63,92
79488,note_on,,,,,92,0,14,,,,,6,,63,100
79552,note_off,,,,,64,0,7,,,,,0,,83,100
79584,note_on,,,,,32,0,7,,,,,0,,81,106
79588,note_off,,,,,100,0,11,,,,,4,,63,100
79588,note_off,,,,,100,0,14,,,,,6,,63,100
79648,note_off,,,,,64,0,7,,,,,0,,81,100
79680,note_on,,,,,92,0,11,,,,,4,,59,96
79680,note_on,,,,,32,0,7,,,,,0,,79,106
79680,note_on,,,,,92,0,14,,,,,6,,59,100
79744,note_off,,,,,0,0,13,,,,,6,,78,100
79744,note_off,,,,,0,0,13,,,,,6,,75,100
79744,note_off,,,,,256,0,13,,,,,6,,69,100
79744,note_off,,,,,64,0,7,,,,,0,,79,100
79776,note_on,,,,,32,0,7,,,,,0,,78,107
79780,note_off,,,,,100,0,14,,,,,6,,59,100
79780,note_off,,,,,100,0,11,,,,,4,,59,100
79840,note_off,,,,,64,0,7,,,,,0,,78,100
79868,program_change,,,,,88,0,11,,,,,4,48,,
79872,note_on,,,,,0,0,15,,,,,7,,64,100
79872,note_on,,,,,32,0,7,,,,,0,,79,107
79872,note_on,,,,,11264,0,10,,,,,3,,67,100
79872,note_on,,,,,92,0,14,,,,,6,,52,100
79872,note_on,,,,,11264,0,16,,,,,7,,52,100
79872,note_on,,,,,4,0,11,,,,,4,,52,99
79872,note_on,,,,,11264,0,15,,,,,7,,67,100
79872,note_on,,,,,11264,0,12,,,,,5,,40,100
79872,note_on,,,,,128,0,13,,,,,6,,67,100
79872,note_on,,,,,0,0,13,,,,,6,,76,100
79872,note_on,,,,,0,0,13,,,,,6,,71,100
79972,note_off,,,,,100,0,16,,,,,7,,52,100
79972,note_off,,,,,100,0,10,,,,,3,,67,100
79972,note_off,,,,,100,0,12,,,,,5,,40,100
79972,note_off,,,,,100,0,14,,,,,6,,52,100
79972,note_off,,,,,100,0,11,,,,,4,,52,100
80000,note_off,,,,,128,0,7,,,,,0,,79,100
80064,note_on,,,,,92,0,11,,,,,4,,55,93
80064,note_on,,,,,92,0,10,,,,,3,,71,93
80064,note_on,,,,,92,0,16,,,,,7,,55,100
80064,note_on,,,,,92,0,14,,,,,6,,55,100
80064,note_on,,,,,92,0,12,,,,,5,,43,93
80064,note_on,,,,,11456,0,8,,,,,1,,71,93
80072,note_off,,,,,200,0,13,,,,,6,,67,100
80072,note_off,,,,,0,0,13,,,,,6,,71,100
80072,note_off,,,,,0,0,13,,,,,6,,76,100
80128,note_off,,,,,64,0,11,,,,,4,,55,100
80128,note_off,,,,,64,0,10,,,,,3,,71,100
80128,note_off,,,,,64,0,14,,,,,6,,55,100
80128,note_off,,,,,64,0,16,,,,,7,,55,100
80128,note_off,,,,,64,0,12,,,,,5,,43,100
80160,note_on,,,,,32,0,16,,,,,7,,54,100
80160,note_on,,,,,32,0,14,,,,,6,,54,100
80160,note_on,,,,,32,0,12,,,,,5,,42,93
80160,note_on,,,,,32,0,10,,,,,3,,69,93
80160,note_on,,,,,32,0,11,,,,,4,,54,93
80164,note_off,,,,,100,0,8,,,,,1,,71,100
80224,note_off,,,,,64,0,11,,,,,4,,54,100
80224,note_off,,,,,64,0,14,,,,,6,,54,100
80224,note_off,,,,,64,0,10,,,,,3,,69,100
80224,note_off,,,,,64,0,16,,,,,7,,54,100
80224,note_off,,,,,64,0,12,,,,,5,,42,100
80256,note_on,,,,,32,0,14,,,,,6,,52,100
80256,note_on,,,,,32,0,16,,,,,7,,52,100
80256,note_on,,,,,32,0,11,,,,,4,,52,93
80256,note_on,,,,,32,0,12,,,,,5,,40,93
80256,note_on,,,,,92,0,8,,,,,1,,76,93
80256,note_on,,,,,32,0,10,,,,,3,,67,93
80356,note_off,,,,,100,0,11,,,,,4,,52,100
80356,note_off,,,,,100,0,12,,,,,5,,40,100
80356,note_off,,,,,100,0,14,,,,,6,,52,100
80356,note_off,,,,,100,0,10,,,,,3,,67,100
80356,note_off,,,,,100,0,16,,,,,7,,52,100
80448,note_on,,,,,92,0,12,,,,,5,,38,94
80448,note_on,,,,,92,0,14,,,,,6,,50,100
80448,note_on,,,,,92,0,11,,,,,4,,50,94
80448,note_on,,,,,92,0,10,,,,,3,,66,94
80448,note_on,,,,,11840,0,9,,,,,2,,71,94
80448,note_on,,,,,92,0,16,,,,,7,,50,100
80512,note_off,,,,,64,0,11,,,,,4,,50,100
80512,note_off,,,,,64,0,14,,,,,6,,50,100
80512,note_off,,,,,64,0,10,,,,,3,,66,100
80512,note_off,,,,,64,0,12,,,,,5,,38,100
80512,note_off,,,,,64,0,16,,,,,7,,50,100
80544,note_on,,,,,32,0,14,,,,,6,,48,100
80544,note_on,,,,,32,0,16,,,,,7,,48,100
80544,note_on,,,,,32,0,11,,,,,4,,48,94
80544,note_on,,,,,32,0,12,,,,,5,,36,94
80544,note_on,,,,,32,0,10,,,,,3,,64,94
80548,note_off,,,,,100,0,9,,,,,2,,71,100
80560,note_off,,,,,0,0,15,,,,,7,,64,100
80560,note_off,,,,,688,0,15,,,,,7,,67,100
80608,note_off,,,,,64,0,16,,,,,7,,48,100
80608,note_off,,,,,64,0,14,,,,,6,,48,100
80608,note_off,,,,,64,0,11,,,,,4,,48,100
80608,note_off,,,,,64,0,12,,,,,5,,36,100
80608,note_off,,,,,64,0,10,,,,,3,,64,100
80640,note_on,,,,,0,0,13,,,,,6,,66,100
80640,note_on,,,,,32,0,11,,,,,4,,47,94
80640,note_on,,,,,92,0,9,,,,,2,,78,94
80640,note_on,,,,,32,0,16,,,,,7,,47,100
80640,note_on,,,,,568,0,13,,,,,6,,71,100
80640,note_on,,,,,0,0,13,,,,,6,,63,100
80640,note_on,,,,,0,0,16,,,,,7,,35,100
80640,note_on,,,,,32,0,14,,,,,6,,47,100
80640,note_on,,,,,32,0,12,,,,,5,,35,94
80640,note_on,,,,,0,0,15,,,,,7,,63,100
80640,note_on,,,,,32,0,10,,,,,3,,59,94
80640,note_on,,,,,0,0,15,,,,,7,,66,100
80640,note_on,,,,,80,0,15,,,,,7,,71,100
80740,note_off,,,,,100,0,10,,,,,3,,59,100
80768,note_off,,,,,512,0,8,,,,,1,,76,100
80832,note_on,,,,,92,0,10,,,,,3,,71,95
80832,note_on,,,,,64,0,8,,,,,1,,75,95
80896,note_off,,,,,64,0,8,,,,,1,,75,100
80928,note_on,,,,,32,0,8,,,,,1,,73,95
80932,note_off,,,,,100,0,10,,,,,3,,71,100
80992,note_off,,,,,64,0,8,,,,,1,,73,100
81024,note_on,,,,,92,0,10,,,,,3,,59,96
81024,note_on,,,,,32,0,8,,,,,1,,75,96
81124,note_off,,,,,100,0,10,,,,,3,,59,100
81124,note_off,,,,,100,0,8,,,,,1,,75,100
81216,note_on,,,,,92,0,10,,,,,3,,71,96
81216,note_on,,,,,92,0,8,,,,,1,,71,96
81252,note_off,,,,,612,0,13,,,,,6,,71,100
81252,note_off,,,,,0,0,13,,,,,6,,66,100
81252,note_off,,,,,0,0,13,,,,,6,,63,100
81316,note_off,,,,,100,0,10,,,,,3,,71,100
81316,note_off,,,,,100,0,8,,,,,1,,71,100
81352,note_off,,,,,0,0,15,,,,,7,,66,100
81352,note_off,,,,,0,0,15,,,,,7,,63,100
81352,note_off,,,,,712,0,15,,,,,7,,71,100
81408,note_on,,,,,92,0,10,,,,,3,,59,97
81408,note_on,,,,,0,0,15,,,,,7,,64,100
81408,note_on,,,,,56,0,15,,,,,7,,67,100
81408,note_on,,,,,156,0,13,,,,,6,,67,100
81408,note_on,,,,,0,0,13,,,,,6,,64,100
81408,note_on,,,,,0,0,13,,,,,6,,71,100
81408,note_on,,,,,92,0,8,,,,,1,,79,97
81408,note_on,,,,,0,0,15,,,,,7,,71,100
81536,note_off,,,,,896,0,9,,,,,2,,78,100
81536,note_off,,,,,896,0,11,,,,,4,,47,100
81536,note_off,,,,,896,0,14,,,,,6,,47,100
81536,note_off,,,,,896,0,16,,,,,7,,47,100
81536,note_off,,,,,896,0,12,,,,,5,,35,100
81600,note_on,,,,,64,0,9,,,,,2,,76,98
81600,note_on,,,,,64,0,14,,,,,6,,59,100
81600,note_on,,,,,64,0,11,,,,,4,,59,98
81600,note_on,,,,,64,0,16,,,,,7,,59,100
81600,note_on,,,,,64,0,12,,,,,5,,47,98
81664,note_off,,,,,64,0,9,,,,,2,,76,100
81696,note_on,,,,,32,0,9,,,,,2,,75,98
81700,note_off,,,,,100,0,11,,,,,4,,59,100
81700,note_off,,,,,100,0,14,,,,,6,,59,100
81700,note_off,,,,,100,0,12,,,,,5,,47,100
81700,note_off,,,,,100,0,16,,,,,7,,59,100
81760,note_off,,,,,64,0,9,,,,,2,,75,100
81792,note_on,,,,,92,0,11,,,,,4,,47,98
81792,note_on,,,,,92,0,12,,,,,5,,35,98
81792,note_on,,,,,92,0,14,,,,,6,,47,100
81792,note_on,,,,,92,0,16,,,,,7,,47,100
81792,note_on,,,,,32,0,9,,,,,2,,76,98
81892,note_off,,,,,100,0,9,,,,,2,,76,100
81892,note_off,,,,,100,0,12,,,,,5,,35,100
81892,note_off,,,,,100,0,14,,,,,6,,47,100
81892,note_off,,,,,100,0,11,,,,,4,,47,100
81892,note_off,,,,,100,0,16,,,,,7,,47,100
81984,note_on,,,,,92,0,16,,,,,7,,59,100
81984,note_on,,,,,92,0,14,,,,,6,,59,100
81984,note_on,,,,,92,0,9,,,,,2,,71,99
81984,note_on,,,,,92,0,12,,,,,5,,47,99
81984,note_on,,,,,92,0,11,,,,,4,,59,99
82020,note_off,,,,,0,0,13,,,,,6,,71,100
82020,note_off,,,,,0,0,13,,,,,6,,64,100
82020,note_off,,,,,612,0,13,,,,,6,,67,100
82084,note_off,,,,,100,0,16,,,,,7,,59,100
82084,note_off,,,,,100,0,11,,,,,4,,59,100
82084,note_off,,,,,100,0,12,,,,,5,,47,100
82084,note_off,,,,,100,0,14,,,,,6,,59,100
82084,note_off,,,,,100,0,9,,,,,2,,71,100
82120,note_off,,,,,0,0,15,,,,,7,,71,100
82120,note_off,,,,,712,0,15,,,,,7,,67,100
82120,note_off,,,,,0,0,15,,,,,7,,64,100
82176,note_on,,,,,0,0,15,,,,,7,,71,100
82176,note_on,,,,,0,0,13,,,,,6,,71,100
82176,note_on,,,,,92,0,11,,,,,4,,47,99
82176,note_on,,,,,0,0,13,,,,,6,,69,100
82176,note_on,,,,,56,0,15,,,,,7,,66,100
82176,note_on,,,,,156,0,13,,,,,6,,66,100
82176,note_on,,,,,92,0,14,,,,,6,,47,100
82176,note_on,,,,,92,0,9,,,,,2,,81,99
82176,note_on,,,,,92,0,16,,,,,7,,47,100
82176,note_on,,,,,0,0,15,,,,,7,,69,100
82176,note_on,,,,,92,0,12,,,,,5,,35,99
82304,note_off,,,,,896,0,10,,,,,3,,59,100
82304,note_off,,,,,896,0,8,,,,,1,,79,100
82368,note_on,,,,,64,0,10,,,,,3,,71,100
82368,note_on,,,,,64,0,8,,,,,1,,78,100
82432,note_off,,,,,64,0,8,,,,,1,,78,100
82464,note_on,,,,,32,0,8,,,,,1,,76,100
82468,note_off,,,,,100,0,10,,,,,3,,71,100
82528,note_off,,,,,64,0,8,,,,,1,,76,100
82560,note_on,,,,,92,0,10,,,,,3,,59,101
82560,note_on,,,,,32,0,8,,,,,1,,78,101
82660,note_off,,,,,100,0,8,,,,,1,,78,100
82660,note_off,,,,,100,0,10,,,,,3,,59,100
82752,note_on,,,,,92,0,10,,,,,3,,71,101
82752,note_on,,,,,92,0,8,,,,,1,,71,101
82788,note_off,,,,,0,0,13,,,,,6,,71,100
82788,note_off,,,,,0,0,13,,,,,6,,69,100
82788,note_off,,,,,612,0,13,,,,,6,,66,100
82852,note_off,,,,,100,0,10,,,,,3,,71,100
82852,note_off,,,,,100,0,8,,,,,1,,71,100
82888,note_off,,,,,712,0,15,,,,,7,,66,100
82888,note_off,,,,,0,0,15,,,,,7,,71,100
82888,note_off,,,,,0,0,15,,,,,7,,69,100
82944,note_on,,,,,92,0,10,,,,,3,,59,102
82944,note_on,,,,,56,0,15,,,,,7,,67,100
82944,note_on,,,,,92,0,8,,,,,1,,83,102
82944,note_on,,,,,0,0,15,,,,,7,,64,100
82944,note_on,,,,,0,0,15,,,,,7,,71,100
82944,note_on,,,,,0,0,13,,,,,6,,71,100
82944,note_on,,,,,0,0,13,,,,,6,,64,100
82944,note_on,,,,,156,0,13,,,,,6,,67,100
83072,note_off,,,,,896,0,9,,,,,2,,81,100
83072,note_off,,,,,896,0,12,,,,,5,,35,100
83072,note_off,,,,,896,0,14,,,,,6,,47,100
83072,note_off,,,,,896,0,11,,,,,4,,47,100
83072,note_off,,,,,896,0,16,,,,,7,,47,100
83136,note_on,,,,,64,0,9,,,,,2,,79,103
83136,note_on,,,,,64,0,11,,,,,4,,59,103
83136,note_on,,,,,64,0,12,,,,,5,,47,103
83136,note_on,,,,,64,0,14,,,,,6,,59,100
83136,note_on,,,,,64,0,16,,,,,7,,59,100
83200,note_off,,,,,64,0,9,,,,,2,,79,100
83232,note_on,,,,,32,0,9,,,,,2,,78,103
83236,note_off,,,,,100,0,16,,,,,7,,59,100
83236,note_off,,,,,100,0,12,,,,,5,,47,100
83236,note_off,,,,,100,0,14,,,,,6,,59,100
83236,note_off,,,,,100,0,11,,,,,4,,59,100
83296,note_off,,,,,64,0,9,,,,,2,,78,100
83328,note_on,,,,,92,0,16,,,,,7,,47,100
83328,note_on,,,,,92,0,14,,,,,6,,47,100
83328,note_on,,,,,32,0,9,,,,,2,,79,103
83328,note_on,,,,,92,0,12,,,,,5,,35,103
83328,note_on,,,,,92,0,11,,,,,4,,47,103
83428,note_off,,,,,100,0,16,,,,,7,,47,100
83428,note_off,,,,,100,0,11,,,,,4,,47,100
83428,note_off,,,,,100,0,9,,,,,2,,79,100
83428,note_off,,,,,100,0,14,,,,,6,,47,100
83428,note_off,,,,,100,0,12,,,,,5,,35,100
83520,note_on,,,,,92,0,9,,,,,2,,71,104
83520,note_on,,,,,92,0,11,,,,,4,,59,104
83520,note_on,,,,,92,0,16,,,,,7,,59,100
83520,note_on,,,,,92,0,14,,,,,6,,59,100
83520,note_on,,,,,92,0,12,,,,,5,,47,104
83556,note_off,,,,,612,0,13,,,,,6,,67,100
83556,note_off,,,,,0,0,13,,,,,6,,71,100
83556,note_off,,,,,0,0,13,,,,,6,,64,100
83620,note_off,,,,,100,0,11,,,,,4,,59,100
83620,note_off,,,,,100,0,14,,,,,6,,59,100
83620,note_off,,,,,100,0,16,,,,,7,,59,100
83620,note_off,,,,,100,0,9,,,,,2,,71,100
83620,note_off,,,,,100,0,12,,,,,5,,47,100
83656,note_off,,,,,712,0,15,,,,,7,,67,100
83656,note_off,,,,,0,0,15,,,,,7,,64,100
83656,note_off,,,,,0,0,15,,,,,7,,71,100
83712,note_on,,,,,92,0,12,,,,,5,,35,105
83712,note_on,,,,,92,0,9,,,,,2,,84,105
83712,note_on,,,,,56,0,15,,,,,7,,72,100
83712,note_on,,,,,156,0,13,,,,,6,,66,100
83712,note_on,,,,,0,0,15,,,,,7,,66,100
83712,note_on,,,,,0,0,13,,,,,6,,69,100
83712,note_on,,,,,0,0,15,,,,,7,,69,100
83712,note_on,,,,,0,0,13,,,,,6,,72,100
83712,note_on,,,,,92,0,16,,,,,7,,47,100
83712,note_on,,,,,92,0,14,,,,,6,,47,100
83712,note_on,,,,,92,0,11,,,,,4,,47,105
83840,note_off,,,,,896,0,8,,,,,1,,83,100
83840,note_off,,,,,896,0,10,,,,,3,,59,100
83904,note_on,,,,,64,0,8,,,,,1,,81,105
83904,note_on,,,,,64,0,10,,,,,3,,71,105
83968,note_off,,,,,64,0,8,,,,,1,,81,100
84000,note_on,,,,,32,0,8,,,,,1,,79,105
84004,note_off,,,,,100,0,10,,,,,3,,71,100
84064,note_off,,,,,64,0,8,,,,,1,,79,100
84096,note_on,,,,,32,0,8,,,,,1,,81,104
84096,note_on,,,,,92,0,10,,,,,3,,59,104
84172,note_off,,,,,460,0,9,,,,,2,,84,100
84196,note_off,,,,,100,0,10,,,,,3,,59,100
84288,note_on,,,,,116,0,9,,,,,2,,83,104
84288,note_on,,,,,92,0,10,,,,,3,,71,104
84324,note_off,,,,,612,0,13,,,,,6,,66,100
84324,note_off,,,,,0,0,13,,,,,6,,69,100
84324,note_off,,,,,0,0,13,,,,,6,,72,100
84352,note_off,,,,,64,0,9,,,,,2,,83,100
84384,note_on,,,,,32,0,9,,,,,2,,81,103
84388,note_off,,,,,100,0,10,,,,,3,,71,100
84424,note_off,,,,,0,0,15,,,,,7,,66,100
84424,note_off,,,,,0,0,15,,,,,7,,69,100
84424,note_off,,,,,712,0,15,,,,,7,,72,100
84448,note_off,,,,,64,0,9,,,,,2,,81,100
84480,note_on,,,,,156,0,13,,,,,6,,67,100
84480,note_on,,,,,0,0,15,,,,,7,,71,100
84480,note_on,,,,,56,0,15,,,,,7,,67,100
84480,note_on,,,,,32,0,9,,,,,2,,83,103
84480,note_on,,,,,0,0,13,,,,,6,,71,100
84480,note_on,,,,,92,0,10,,,,,3,,59,103
84480,note_on,,,,,0,0,15,,,,,7,,64,100
84480,note_on,,,,,0,0,13,,,,,6,,64,100
84556,note_off,,,,,460,0,8,,,,,1,,81,100
84608,note_off,,,,,896,0,11,,,,,4,,47,100
84608,note_off,,,,,896,0,16,,,,,7,,47,100
84608,note_off,,,,,896,0,14,,,,,6,,47,100
84608,note_off,,,,,896,0,12,,,,,5,,35,100
84672,note_on,,,,,64,0,12,,,,,5,,47,102
84672,note_on,,,,,64,0,16,,,,,7,,59,100
84672,note_on,,,,,64,0,11,,,,,4,,59,102
84672,note_on,,,,,64,0,14,,,,,6,,59,100
84672,note_on,,,,,116,0,8,,,,,1,,71,102
84772,note_off,,,,,100,0,11,,,,,4,,59,100
84772,note_off,,,,,100,0,16,,,,,7,,59,100
84772,note_off,,,,,100,0,14,,,,,6,,59,100
84772,note_off,,,,,100,0,12,,,,,5,,47,100
84772,note_off,,,,,100,0,8,,,,,1,,71,100
84864,note_on,,,,,92,0,12,,,,,5,,35,102
84864,note_on,,,,,92,0,11,,,,,4,,47,102
84864,note_on,,,,,92,0,8,,,,,1,,79,102
84864,note_on,,,,,92,0,14,,,,,6,,47,100
84864,note_on,,,,,92,0,16,,,,,7,,47,100
84940,note_off,,,,,460,0,9,,,,,2,,83,100
84964,note_off,,,,,100,0,16,,,,,7,,47,100
84964,note_off,,,,,100,0,11,,,,,4,,47,100
84964,note_off,,,,,100,0,14,,,,,6,,47,100
84964,note_off,,,,,100,0,12,,,,,5,,35,100
85056,note_on,,,,,92,0,11,,,,,4,,59,101
85056,note_on,,,,,92,0,14,,,,,6,,59,100
85056,note_on,,,,,92,0,12,,,,,5,,47,101
85056,note_on,,,,,92,0,16,,,,,7,,59,100
85056,note_on,,,,,116,0,9,,,,,2,,71,101
85092,note_off,,,,,612,0,13,,,,,6,,67,100
85092,note_off,,,,,0,0,13,,,,,6,,71,100
85092,note_off,,,,,0,0,13,,,,,6,,64,100
85156,note_off,,,,,100,0,12,,,,,5,,47,100
85156,note_off,,,,,100,0,16,,,,,7,,59,100
85156,note_off,,,,,100,0,9,,,,,2,,71,100
85156,note_off,,,,,100,0,11,,,,,4,,59,100
85156,note_off,,,,,100,0,14,,,,,6,,59,100
85192,note_off,,,,,712,0,15,,,,,7,,67,100
85192,note_off,,,,,0,0,15,,,,,7,,64,100
85192,note_off,,,,,0,0,15,,,,,7,,71,100
85248,note_on,,,,,92,0,12,,,,,5,,35,100
85248,note_on,,,,,0,0,15,,,,,7,,71,100
85248,note_on,,,,,0,0,13,,,,,6,,69,100
85248,note_on,,,,,92,0,16,,,,,7,,47,100
85248,note_on,,,,,56,0,15,,,,,7,,66,100
85248,note_on,,,,,92,0,11,,,,,4,,47,100
85248,note_on,,,,,92,0,9,,,,,2,,81,100
85248,note_on,,,,,156,0,13,,,,,6,,66,100
85248,note_on,,,,,92,0,14,,,,,6,,47,100
85248,note_on,,,,,0,0,15,,,,,7,,69,100
85248,note_on,,,,,0,0,13,,,,,6,,71,100
85324,note_off,,,,,460,0,8,,,,,1,,79,100
85376,note_off,,,,,896,0,10,,,,,3,,59,100
85440,note_on,,,,,64,0,10,,,,,3,,71,100
85440,note_on,,,,,116,0,8,,,,,1,,78,100
85504,note_off,,,,,64,0,8,,,,,1,,78,100
85536,note_on,,,,,32,0,8,,,,,1,,76,99
85540,note_off,,,,,100,0,10,,,,,3,,71,100
85600,note_off,,,,,64,0,8,,,,,1,,76,100
85632,note_on,,,,,92,0,10,,,,,3,,59,99
85632,note_on,,,,,32,0,8,,,,,1,,78,99
85708,note_off,,,,,460,0,9,,,,,2,,81,100
85732,note_off,,,,,100,0,10,,,,,3,,59,100
85824,note_on,,,,,92,0,10,,,,,3,,71,98
85824,note_on,,,,,116,0,9,,,,,2,,79,98
85860,note_off,,,,,0,0,13,,,,,6,,69,100
85860,note_off,,,,,0,0,13,,,,,6,,71,100
85860,note_off,,,,,612,0,13,,,,,6,,66,100
85888,note_off,,,,,64,0,9,,,,,2,,79,100
85920,note_on,,,,,32,0,9,,,,,2,,78,98
85924,note_off,,,,,100,0,10,,,,,3,,71,100
85960,note_off,,,,,0,0,15,,,,,7,,71,100
85960,note_off,,,,,0,0,15,,,,,7,,69,100
85960,note_off,,,,,712,0,15,,,,,7,,66,100
85984,note_off,,,,,64,0,9,,,,,2,,78,100
86016,note_on,,,,,0,0,15,,,,,7,,71,100
86016,note_on,,,,,0,0,15,,,,,7,,64,100
86016,note_on,,,,,56,0,15,,,,,7,,67,100
86016,note_on,,,,,0,0,13,,,,,6,,71,100
86016,note_on,,,,,156,0,13,,,,,6,,67,100
86016,note_on,,,,,32,0,9,,,,,2,,79,94
86016,note_on,,,,,92,0,10,,,,,3,,59,94
86016,note_on,,,,,0,0,13,,,,,6,,64,100
86092,note_off,,,,,460,0,8,,,,,1,,78,100
86144,note_off,,,,,896,0,16,,,,,7,,47,100
86144,note_off,,,,,896,0,14,,,,,6,,47,100
86144,note_off,,,,,896,0,11,,,,,4,,47,100
86144,note_off,,,,,896,0,12,,,,,5,,35,100
86208,note_on,,,,,64,0,12,,,,,5,,47,95
86208,note_on,,,,,116,0,8,,,,,1,,71,95
86208,note_on,,,,,64,0,14,,,,,6,,59,100
86208,note_on,,,,,64,0,16,,,,,7,,59,100
86208,note_on,,,,,64,0,11,,,,,4,,59,95
86308,note_off,,,,,100,0,8,,,,,1,,71,100
86308,note_off,,,,,100,0,14,,,,,6,,59,100
86308,note_off,,,,,100,0,11,,,,,4,,59,100
86308,note_off,,,,,100,0,16,,,,,7,,59,100
86308,note_off,,,,,100,0,12,,,,,5,,47,100
86400,note_on,,,,,92,0,16,,,,,7,,47,100
86400,note_on,,,,,92,0,8,,,,,1,,76,97
86400,note_on,,,,,92,0,12,,,,,5,,35,97
86400,note_on,,,,,92,0,11,,,,,4,,47,97
86400,note_on,,,,,92,0,14,,,,,6,,47,100
86476,note_off,,,,,460,0,9,,,,,2,,79,100
86500,note_off,,,,,100,0,16,,,,,7,,47,100
86500,note_off,,,,,100,0,11,,,,,4,,47,100
86500,note_off,,,,,100,0,12,,,,,5,,35,100
86500,note_off,,,,,100,0,14,,,,,6,,47,100
86592,note_on,,,,,92,0,16,,,,,7,,59,100
86592,note_on,,,,,92,0,12,,,,,5,,47,99
86592,note_on,,,,,92,0,11,,,,,4,,59,99
86592,note_on,,,,,116,0,9,,,,,2,,71,99
86592,note_on,,,,,92,0,14,,,,,6,,59,100
86628,note_off,,,,,612,0,13,,,,,6,,67,100
86628,note_off,,,,,0,0,13,,,,,6,,71,100
86628,note_off,,,,,0,0,13,,,,,6,,64,100
86692,note_off,,,,,100,0,16,,,,,7,,59,100
86692,note_off,,,,,100,0,9,,,,,2,,71,100
86692,note_off,,,,,100,0,12,,,,,5,,47,100
86692,note_off,,,,,100,0,14,,,,,6,,59,100
86692,note_off,,,,,100,0,11,,,,,4,,59,100
86728,note_off,,,,,0,0,15,,,,,7,,64,100
86728,note_off,,,,,0,0,15,,,,,7,,71,100
86728,note_off,,,,,712,0,15,,,,,7,,67,100
86784,note_on,,,,,92,0,12,,,,,5,,35,102
86784,note_on,,,,,156,0,13,,,,,6,,63,100
86784,note_on,,,,,0,0,13,,,,,6,,66,100
86784,note_on,,,,,0,0,13,,,,,6,,71,100
86784,note_on,,,,,92,0,11,,,,,4,,47,102
86784,note_on,,,,,56,0,15,,,,,7,,63,100
86784,note_on,,,,,0,0,15,,,,,7,,66,100
86784,note_on,,,,,0,0,15,,,,,7,,71,100
86784,note_on,,,,,92,0,16,,,,,7,,47,100
86784,note_on,,,,,92,0,9,,,,,2,,78,102
86784,note_on,,,,,92,0,14,,,,,6,,47,100
86860,note_off,,,,,460,0,8,,,,,1,,76,100
86912,note_off,,,,,896,0,10,,,,,3,,59,100
86976,note_on,,,,,64,0,10,,,,,3,,71,101
86976,note_on,,,,,116,0,8,,,,,1,,75,101
87040,note_off,,,,,64,0,8,,,,,1,,75,100
87072,note_on,,,,,32,0,8,,,,,1,,73,100
87076,note_off,,,,,100,0,10,,,,,3,,71,100
87136,note_off,,,,,64,0,8,,,,,1,,73,100
87168,note_on,,,,,92,0,10,,,,,3,,59,99
87168,note_on,,,,,32,0,8,,,,,1,,75,99
87244,note_off,,,,,460,0,9,,,,,2,,78,100
87268,note_off,,,,,100,0,10,,,,,3,,59,100
87268,note_off,,,,,100,0,8,,,,,1,,75,100
87296,note_off,,,,,512,0,16,,,,,7,,35,100
87360,note_on,,,,,92,0,10,,,,,3,,71,97
87360,note_on,,,,,116,0,9,,,,,2,,76,97
87360,note_on,,,,,92,0,8,,,,,1,,81,97
87424,note_off,,,,,64,0,9,,,,,2,,76,100
87456,note_on,,,,,32,0,9,,,,,2,,75,96
87460,note_off,,,,,100,0,8,,,,,1,,81,100
87460,note_off,,,,,100,0,10,,,,,3,,71,100
87472,note_off,,,,,176,0,16,,,,,7,,47,100
87472,note_off,,,,,688,0,13,,,,,6,,63,100
87472,note_off,,,,,0,0,13,,,,,6,,66,100
87472,note_off,,,,,0,0,13,,,,,6,,71,100
87472,note_off,,,,,688,0,12,,,,,5,,35,100
87472,note_off,,,,,688,0,11,,,,,4,,47,100
87472,note_off,,,,,688,0,14,,,,,6,,47,100
87472,note_off,,,,,688,0,15,,,,,7,,63,100
87472,note_off,,,,,0,0,15,,,,,7,,66,100
87472,note_off,,,,,0,0,15,,,,,7,,71,100
87520,note_off,,,,,64,0,9,,,,,2,,75,100
87552,note_on,,,,,0,0,13,,,,,6,,64,100
87552,note_on,,,,,0,0,15,,,,,7,,64,100
87552,note_on,,,,,0,0,15,,,,,7,,71,100
87552,note_on,,,,,0,0,13,,,,,6,,71,100
87552,note_on,,,,,80,0,13,,,,,6,,67,100
87552,note_on,,,,,80,0,15,,,,,7,,67,100
87552,note_on,,,,,80,0,16,,,,,7,,52,100
87552,note_on,,,,,32,0,9,,,,,2,,76,95
87552,note_on,,,,,80,0,14,,,,,6,,52,100
87552,note_on,,,,,92,0,8,,,,,1,,79,95
87552,note_on,,,,,92,0,10,,,,,3,,71,95
87552,note_on,,,,,80,0,12,,,,,5,,40,95
87552,note_on,,,,,80,0,11,,,,,4,,52,95
87808,note_off,,,,,256,0,9,,,,,2,,76,100
87808,note_off,,,,,0,0,15,,,,,7,,64,100
87808,note_off,,,,,256,0,15,,,,,7,,67,100
87808,note_off,,,,,256,0,12,,,,,5,,40,100
87808,note_off,,,,,256,0,11,,,,,4,,52,100
87808,note_off,,,,,256,0,13,,,,,6,,67,100
87808,note_off,,,,,0,0,13,,,,,6,,64,100
87808,note_off,,,,,0,0,13,,,,,6,,71,100
87808,note_off,,,,,256,0,8,,,,,1,,79,100
87808,note_off,,,,,256,0,10,,,,,3,,71,100
87808,note_off,,,,,0,0,15,,,,,7,,71,100
87808,note_off,,,,,256,0,14,,,,,6,,52,100
87808,note_off,,,,,256,0,16,,,,,7,,52,100
88128,note_on,,,,,320,0,11,,,,,4,,64,100
88128,note_on,,,,,320,0,12,,,,,5,,52,100
88128,note_on,,,,,320,0,16,,,,,7,,64,100
88128,note_on,,,,,320,0,15,,,,,7,,76,100
88128,note_on,,,,,320,0,8,,,,,1,,76,100
88128,note_on,,,,,320,0,10,,,,,3,,76,100
88128,note_on,,,,,320,0,14,,,,,6,,64,100
88128,note_on,,,,,320,0,9,,,,,2,,76,100
88128,note_on,,,,,320,0,13,,,,,6,,76,100
88208,note_off,,,,,80,0,8,,,,,1,,76,100
88208,note_off,,,,,80,0,11,,,,,4,,64,100
88208,note_off,,,,,80,0,16,,,,,7,,64,100
88208,note_off,,,,,80,0,14,,,,,6,,64,100
88208,note_off,,,,,80,0,13,,,,,6,,76,100
88208,note_off,,,,,80,0,10,,,,,3,,76,100
88208,note_off,,,,,80,0,9,,,,,2,,76,100
88208,note_off,,,,,80,0,15,,,,,7,,76,100
88208,note_off,,,,,80,0,12,,,,,5,,52,100
88320,note_on,,,,,112,0,10,,,,,3,,64,100
88320,note_on,,,,,112,0,14,,,,,6,,52,100
88320,note_on,,,,,112,0,12,,,,,5,,40,100
88320,note_on,,,,,112,0,16,,,,,7,,52,100
88320,note_on,,,,,112,0,13,,,,,6,,64,100
88320,note_on,,,,,112,0,9,,,,,2,,64,100
88320,note_on,,,,,112,0,11,,,,,4,,52,100
88320,note_on,,,,,112,0,15,,,,,7,,64,100
88320,note_on,,,,,112,0,8,,,,,1,,64,100
88420,note_off,,,,,100,0,8,,,,,1,,64,100
88420,note_off,,,,,100,0,13,,,,,6,,64,100
88420,note_off,,,,,100,0,9,,,,,2,,64,100
88420,note_off,,,,,100,0,12,,,,,5,,40,100
88420,note_off,,,,,100,0,11,,,,,4,,52,100
88420,note_off,,,,,100,0,10,,,,,3,,64,100
88420,note_off,,,,,100,0,14,,,,,6,,52,100
88420,note_off,,,,,100,0,15,,,,,7,,64,100
88420,note_off,,,,,100,0,16,,,,,7,,52,100
88512,note_on,,,,,92,0,9,,,,,2,,76,100
88512,note_on,,,,,92,0,12,,,,,5,,52,100
88512,note_on,,,,,92,0,11,,,,,4,,64,100
88512,note_on,,,,,92,0,14,,,,,6,,64,100
88512,note_on,,,,,92,0,15,,,,,7,,76,100
88512,note_on,,,,,92,0,10,,,,,3,,76,100
88512,note_on,,,,,92,0,13,,,,,6,,76,100
88512,note_on,,,,,92,0,16,,,,,7,,64,100
88512,note_on,,,,,92,0,8,,,,,1,,76,100
88612,note_off,,,,,100,0,16,,,,,7,,64,100
88612,note_off,,,,,100,0,9,,,,,2,,76,100
88612,note_off,,,,,100,0,13,,,,,6,,76,100
88612,note_off,,,,,100,0,11,,,,,4,,64,100
88612,note_off,,,,,100,0,15,,,,,7,,76,100
88612,note_off,,,,,100,0,8,,,,,1,,76,100
88612,note_off,,,,,100,0,14,,,,,6,,64,100
88612,note_off,,,,,100,0,10,,,,,3,,76,100
88612,note_off,,,,,100,0,12,,,,,5,,52,100
88704,note_on,,,,,92,0,13,,,,,6,,64,100
88704,note_on,,,,,92,0,12,,,,,5,,40,100
88704,note_on,,,,,92,0,16,,,,,7,,52,100
88704,note_on,,,,,92,0,11,,,,,4,,52,100
88704,note_on,,,,,92,0,8,,,,,1,,64,100
88704,note_on,,,,,92,0,15,,,,,7,,64,100
88704,note_on,,,,,92,0,14,,,,,6,,52,100
88704,note_on,,,,,92,0,9,,,,,2,,64,100
88704,note_on,,,,,92,0,10,,,,,3,,64,100
88804,note_off,,,,,100,0,9,,,,,2,,64,100
88804,note_off,,,,,100,0,10,,,,,3,,64,100
88804,note_off,,,,,100,0,12,,,,,5,,40,100
88804,note_off,,,,,100,0,15,,,,,7,,64,100
88804,note_off,,,,,100,0,11,,,,,4,,52,100
88804,note_off,,,,,100,0,16,,,,,7,,52,100
88804,note_off,,,,,100,0,14,,,,,6,,52,100
88804,note_off,,,,,100,0,13,,,,,6,,64,100
88804,note_off,,,,,100,0,8,,,,,1,,64,100
88896,note_on,,,,,92,0,15,,,,,7,,76,100
88896,note_on,,,,,92,0,14,,,,,6,,64,100
88896,note_on,,,,,92,0,8,,,,,1,,76,100
88896,note_on,,,,,92,0,16,,,,,7,,64,100
88896,note_on,,,,,92,0,12,,,,,5,,52,100
88896,note_on,,,,,92,0,11,,,,,4,,64,100
88896,note_on,,,,,92,0,9,,,,,2,,76,100
88896,note_on,,,,,92,0,10,,,,,3,,76,100
88896,note_on,,,,,92,0,13,,,,,6,,76,100
88996,note_off,,,,,100,0,11,,,,,4,,64,100
88996,note_off,,,,,100,0,9,,,,,2,,76,100
88996,note_off,,,,,100,0,14,,,,,6,,64,100
88996,note_off,,,,,100,0,16,,,,,7,,64,100
88996,note_off,,,,,100,0,13,,,,,6,,76,100
88996,note_off,,,,,100,0,12,,,,,5,,52,100
88996,note_off,,,,,100,0,15,,,,,7,,76,100
88996,note_off,,,,,100,0,8,,,,,1,,76,100
88996,note_off,,,,,100,0,10,,,,,3,,76,100
89088,note_on,,,,,92,0,16,,,,,7,,64,100
89088,note_on,,,,,92,0,13,,,,,6,,76,100
89088,note_on,,,,,92,0,11,,,,,4,,64,100
89088,note_on,,,,,92,0,9,,,,,2,,76,100
89088,note_on,,,,,92,0,10,,,,,3,,76,100
89088,note_on,,,,,92,0,12,,,,,5,,52,100
89088,note_on,,,,,92,0,15,,,,,7,,76,100
89088,note_on,,,,,92,0,14,,,,,6,,64,100
89088,note_on,,,,,92,0,8,,,,,1,,76,100
89216,note_off,,,,,128,0,13,,,,,6,,76,100
89216,note_off,,,,,128,0,11,,,,,4,,64,100
89216,note_off,,,,,128,0,10,,,,,3,,76,100
89216,note_off,,,,,128,0,16,,,,,7,,64,100
89216,note_off,,,,,128,0,8,,,,,1,,76,100
89216,note_off,,,,,128,0,15,,,,,7,,76,100
89216,note_off,,,,,128,0,12,,,,,5,,52,100
89216,note_off,,,,,128,0,14,,,,,6,,64,100
89216,note_off,,,,,128,0,9,,,,,2,,76,100
89280,note_on,,,,,64,0,10,,,,,3,,74,100
89280,note_on,,,,,64,0,13,,,,,6,,74,100
89280,note_on,,,,,64,0,16,,,,,7,,62,100
89280,note_on,,,,,64,0,8,,,,,1,,74,100
89280,note_on,,,,,64,0,14,,,,,6,,62,100
89280,note_on,,,,,64,0,9,,,,,2,,74,100
89280,note_on,,,,,64,0,15,,,,,7,,74,100
89280,note_on,,,,,64,0,12,,,,,5,,50,100
89280,note_on,,,,,64,0,11,,,,,4,,62,100
89344,note_off,,,,,64,0,16,,,,,7,,62,100
89344,note_off,,,,,64,0,12,,,,,5,,50,100
89344,note_off,,,,,64,0,15,,,,,7,,74,100
89344,note_off,,,,,64,0,13,,,,,6,,74,100
89344,note_off,,,,,64,0,10,,,,,3,,74,100
89344,note_off,,,,,64,0,14,,,,,6,,62,100
89344,note_off,,,,,64,0,8,,,,,1,,74,100
89344,note_off,,,,,64,0,9,,,,,2,,74,100
89344,note_off,,,,,64,0,11,,,,,4,,62,100
89376,note_on,,,,,32,0,14,,,,,6,,60,100
89376,note_on,,,,,32,0,16,,,,,7,,60,100
89376,note_on,,,,,32,0,9,,,,,2,,72,100
89376,note_on,,,,,32,0,10,,,,,3,,72,100
89376,note_on,,,,,32,0,13,,,,,6,,72,100
89376,note_on,,,,,32,0,11,,,,,4,,60,100
89376,note_on,,,,,32,0,15,,,,,7,,72,100
89376,note_on,,,,,32,0,8,,,,,1,,72,100
89376,note_on,,,,,32,0,12,,,,,5,,48,100
89440,note_off,,,,,64,0,13,,,,,6,,72,100
89440,note_off,,,,,64,0,8,,,,,1,,72,100
89440,note_off,,,,,64,0,16,,,,,7,,60,100
89440,note_off,,,,,64,0,15,,,,,7,,72,100
89440,note_off,,,,,64,0,11,,,,,4,,60,100
89440,note_off,,,,,64,0,9,,,,,2,,72,100
89440,note_off,,,,,64,0,14,,,,,6,,60,100
89440,note_off,,,,,64,0,10,,,,,3,,72,100
89440,note_off,,,,,64,0,12,,,,,5,,48,100
89472,note_on,,,,,32,0,16,,,,,7,,59,100
89472,note_on,,,,,32,0,9,,,,,2,,71,100
89472,note_on,,,,,32,0,8,,,,,1,,71,100
89472,note_on,,,,,32,0,13,,,,,6,,71,100
89472,note_on,,,,,32,0,11,,,,,4,,59,100
89472,note_on,,,,,32,0,15,,,,,7,,71,100
89472,note_on,,,,,32,0,14,,,,,6,,59,100
89472,note_on,,,,,32,0,10,,,,,3,,71,100
89472,note_on,,,,,32,0,12,,,,,5,,47,100
89572,note_off,,,,,100,0,8,,,,,1,,71,100
89572,note_off,,,,,100,0,16,,,,,7,,59,100
89572,note_off,,,,,100,0,9,,,,,2,,71,100
89572,note_off,,,,,100,0,12,,,,,5,,47,100
89572,note_off,,,,,100,0,15,,,,,7,,71,100
89572,note_off,,,,,100,0,13,,,,,6,,71,100
89572,note_off,,,,,100,0,10,,,,,3,,71,100
89572,note_off,,,,,100,0,14,,,,,6,,59,100
89572,note_off,,,,,100,0,11,,,,,4,,59,100
89664,note_on,,,,,92,0,13,,,,,6,,71,100
89664,note_on,,,,,92,0,10,,,,,3,,71,100
89664,note_on,,,,,92,0,8,,,,,1,,71,100
89664,note_on,,,,,92,0,9,,,,,2,,71,100
89664,note_on,,,,,92,0,12,,,,,5,,47,100
89664,note_on,,,,,92,0,11,,,,,4,,59,100
89664,note_on,,,,,92,0,15,,,,,7,,71,100
89664,note_on,,,,,92,0,16,,,,,7,,59,100
89664,note_on,,,,,92,0,14,,,,,6,,59,100
89764,note_off,,,,,100,0,11,,,,,4,,59,100
89764,note_off,,,,,100,0,13,,,,,6,,71,100
89764,note_off,,,,,100,0,14,,,,,6,,59,100
89764,note_off,,,,,100,0,12,,,,,5,,47,100
89764,note_off,,,,,100,0,9,,,,,2,,71,100
89764,note_off,,,,,100,0,8,,,,,1,,71,100
89764,note_off,,,,,100,0,16,,,,,7,,59,100
89764,note_off,,,,,100,0,15,,,,,7,,71,100
89764,note_off,,,,,100,0,10,,,,,3,,71,100
89856,note_on,,,,,92,0,15,,,,,7,,76,100
89856,note_on,,,,,92,0,9,,,,,2,,76,100
89856,note_on,,,,,92,0,10,,,,,3,,76,100
89856,note_on,,,,,92,0,14,,,,,6,,64,100
89856,note_on,,,,,92,0,16,,,,,7,,64,100
89856,note_on,,,,,92,0,11,,,,,4,,64,100
89856,note_on,,,,,92,0,12,,,,,5,,52,100
89856,note_on,,,,,92,0,13,,,,,6,,76,100
89856,note_on,,,,,92,0,8,,,,,1,,76,100
89956,note_off,,,,,100,0,16,,,,,7,,64,100
89956,note_off,,,,,100,0,11,,,,,4,,64,100
89956,note_off,,,,,100,0,12,,,,,5,,52,100
89956,note_off,,,,,100,0,14,,,,,6,,64,100
89956,note_off,,,,,100,0,8,,,,,1,,76,100
89956,note_off,,,,,100,0,15,,,,,7,,76,100
89956,note_off,,,,,100,0,10,,,,,3,,76,100
89956,note_off,,,,,100,0,13,,,,,6,,76,100
89956,note_off,,,,,100,0,9,,,,,2,,76,100
90048,note_on,,,,,92,0,14,,,,,6,,55,100
90048,note_on,,,,,92,0,11,,,,,4,,55,100
90048,note_on,,,,,92,0,8,,,,,1,,67,100
90048,note_on,,,,,92,0,9,,,,,2,,67,100
90048,note_on,,,,,92,0,12,,,,,5,,43,100
90048,note_on,,,,,92,0,16,,,,,7,,55,100
90048,note_on,,,,,92,0,15,,,,,7,,67,100
90048,note_on,,,,,92,0,13,,,,,6,,67,100
90048,note_on,,,,,92,0,10,,,,,3,,67,100
90148,note_off,,,,,100,0,9,,,,,2,,67,100
90148,note_off,,,,,100,0,16,,,,,7,,55,100
90148,note_off,,,,,100,0,8,,,,,1,,67,100
90148,note_off,,,,,100,0,10,,,,,3,,67,100
90148,note_off,,,,,100,0,14,,,,,6,,55,100
90148,note_off,,,,,100,0,15,,,,,7,,67,100
90148,note_off,,,,,100,0,13,,,,,6,,67,100
90148,note_off,,,,,100,0,11,,,,,4,,55,100
90148,note_off,,,,,100,0,12,,,,,5,,43,100
90240,note_on,,,,,92,0,14,,,,,6,,57,100
90240,note_on,,,,,92,0,16,,,,,7,,57,100
90240,note_on,,,,,92,0,10,,,,,3,,69,100
90240,note_on,,,,,92,0,9,,,,,2,,69,100
90240,note_on,,,,,92,0,8,,,,,1,,69,100
90240,note_on,,,,,92,0,11,,,,,4,,57,100
90240,note_on,,,,,92,0,12,,,,,5,,45,100
90240,note_on,,,,,92,0,13,,,,,6,,69,100
90240,note_on,,,,,92,0,15,,,,,7,,69,100
90340,note_off,,,,,100,0,16,,,,,7,,57,100
90340,note_off,,,,,100,0,9,,,,,2,,69,100
90340,note_off,,,,,100,0,15,,,,,7,,69,100
90340,note_off,,,,,100,0,12,,,,,5,,45,100
90340,note_off,,,,,100,0,8,,,,,1,,69,100
90340,note_off,,,,,100,0,10,,,,,3,,69,100
90340,note_off,,,,,100,0,14,,,,,6,,57,100
90340,note_off,,,,,100,0,11,,,,,4,,57,100
90340,note_off,,,,,100,0,13,,,,,6,,69,100
90432,note_on,,,,,92,0,8,,,,,1,,71,100
90432,note_on,,,,,92,0,9,,,,,2,,71,100
90432,note_on,,,,,92,0,10,,,,,3,,71,100
90432,note_on,,,,,92,0,11,,,,,4,,59,100
90432,note_on,,,,,92,0,13,,,,,6,,71,100
90432,note_on,,,,,92,0,15,,,,,7,,71,100
90432,note_on,,,,,92,0,14,,,,,6,,59,100
90432,note_on,,,,,92,0,16,,,,,7,,59,100
90432,note_on,,,,,92,0,12,,,,,5,,47,100
90532,note_off,,,,,100,0,13,,,,,6,,71,100
90532,note_off,,,,,100,0,12,,,,,5,,47,100
90532,note_off,,,,,100,0,11,,,,,4,,59,100
90532,note_off,,,,,100,0,14,,,,,6,,59,100
90532,note_off,,,,,100,0,10,,,,,3,,71,100
90532,note_off,,,,,100,0,15,,,,,7,,71,100
90532,note_off,,,,,100,0,9,,,,,2,,71,100
90532,note_off,,,,,100,0,8,,,,,1,,71,100
90532,note_off,,,,,100,0,16,,,,,7,,59,100
90624,note_on,,,,,92,0,14,,,,,6,,55,100
90624,note_on,,,,,92,0,10,,,,,3,,67,100
90624,note_on,,,,,92,0,8,,,,,1,,67,100
90624,note_on,,,,,92,0,16,,,,,7,,55,100
90624,note_on,,,,,92,0,12,,,,,5,,43,100
90624,note_on,,,,,92,0,9,,,,,2,,67,100
90624,note_on,,,,,92,0,11,,,,,4,,55,100
90624,note_on,,,,,92,0,15,,,,,7,,67,100
90624,note_on,,,,,92,0,13,,,,,6,,67,100
90752,note_off,,,,,128,0,16,,,,,7,,55,100
90752,note_off,,,,,128,0,12,,,,,5,,43,100
90752,note_off,,,,,128,0,13,,,,,6,,67,100
90752,note_off,,,,,128,0,15,,,,,7,,67,100
90752,note_off,,,,,128,0,10,,,,,3,,67,100
90752,note_off,,,,,128,0,8,,,,,1,,67,100
90752,note_off,,,,,128,0,9,,,,,2,,67,100
90752,note_off,,,,,128,0,14,,,,,6,,55,100
90752,note_off,,,,,128,0,11,,,,,4,,55,100
90816,note_on,,,,,64,0,10,,,,,3,,66,96
90816,note_on,,,,,64,0,8,,,,,1,,66,96
90816,note_on,,,,,64,0,9,,,,,2,,66,96
90816,note_on,,,,,64,0,11,,,,,4,,54,96
90816,note_on,,,,,64,0,12,,,,,5,,42,96
90816,note_on,,,,,64,0,13,,,,,6,,66,100
90816,note_on,,,,,64,0,14,,,,,6,,54,100
90816,note_on,,,,,64,0,16,,,,,7,,54,100
90816,note_on,,,,,64,0,15,,,,,7,,66,100
90880,note_off,,,,,64,0,8,,,,,1,,66,100
90880,note_off,,,,,64,0,14,,,,,6,,54,100
90880,note_off,,,,,64,0,10,,,,,3,,66,100
90880,note_off,,,,,64,0,12,,,,,5,,42,100
90880,note_off,,,,,64,0,13,,,,,6,,66,100
90880,note_off,,,,,64,0,11,,,,,4,,54,100
90880,note_off,,,,,64,0,15,,,,,7,,66,100
90880,note_off,,,,,64,0,16,,,,,7,,54,100
90880,note_off,,,,,64,0,9,,,,,2,,66,100
90912,note_on,,,,,32,0,16,,,,,7,,55,100
90912,note_on,,,,,32,0,8,,,,,1,,67,93
90912,note_on,,,,,32,0,10,,,,,3,,67,93
90912,note_on,,,,,32,0,13,,,,,6,,67,100
90912,note_on,,,,,32,0,9,,,,,2,,67,93
90912,note_on,,,,,32,0,14,,,,,6,,55,100
90912,note_on,,,,,32,0,15,,,,,7,,67,100
90912,note_on,,,,,32,0,11,,,,,4,,55,93
90912,note_on,,,,,32,0,12,,,,,5,,43,93
90976,note_off,,,,,64,0,14,,,,,6,,55,100
90976,note_off,,,,,64,0,9,,,,,2,,67,100
90976,note_off,,,,,64,0,12,,,,,5,,43,100
90976,note_off,,,,,64,0,13,,,,,6,,67,100
90976,note_off,,,,,64,0,8,,,,,1,,67,100
90976,note_off,,,,,64,0,10,,,,,3,,67,100
90976,note_off,,,,,64,0,15,,,,,7,,67,100
90976,note_off,,,,,64,0,16,,,,,7,,55,100
90976,note_off,,,,,64,0,11,,,,,4,,55,100
91008,note_on,,,,,32,0,8,,,,,1,,64,91
91008,note_on,,,,,32,0,16,,,,,7,,52,100
91008,note_on,,,,,32,0,9,,,,,2,,64,91
91008,note_on,,,,,32,0,14,,,,,6,,52,100
91008,note_on,,,,,32,0,10,,,,,3,,64,91
91008,note_on,,,,,32,0,15,,,,,7,,64,100
91008,note_on,,,,,32,0,13,,,,,6,,64,100
91008,note_on,,,,,32,0,12,,,,,5,,40,91
91008,note_on,,,,,32,0,11,,,,,4,,52,91
91108,note_off,,,,,100,0,16,,,,,7,,52,100
91108,note_off,,,,,100,0,10,,,,,3,,64,100
91108,note_off,,,,,100,0,13,,,,,6,,64,100
91108,note_off,,,,,100,0,14,,,,,6,,52,100
91108,note_off,,,,,100,0,12,,,,,5,,40,100
91108,note_off,,,,,100,0,9,,,,,2,,64,100
91108,note_off,,,,,100,0,11,,,,,4,,52,100
91108,note_off,,,,,100,0,8,,,,,1,,64,100
91108,note_off,,,,,100,0,15,,,,,7,,64,100
91200,note_on,,,,,92,0,14,,,,,6,,64,100
91200,note_on,,,,,92,0,16,,,,,7,,64,100
91200,note_on,,,,,92,0,12,,,,,5,,52,86
91200,note_on,,,,,92,0,13,,,,,6,,76,100
91200,note_on,,,,,92,0,15,,,,,7,,76,100
91200,note_on,,,,,92,0,9,,,,,2,,76,86
91200,note_on,,,,,92,0,10,,,,,3,,76,86
91200,note_on,,,,,92,0,8,,,,,1,,76,86
91200,note_on,,,,,92,0,11,,,,,4,,64,86
91300,note_off,,,,,100,0,15,,,,,7,,76,100
91300,note_off,,,,,100,0,10,,,,,3,,76,100
91300,note_off,,,,,100,0,13,,,,,6,,76,100
91300,note_off,,,,,100,0,12,,,,,5,,52,100
91300,note_off,,,,,100,0,14,,,,,6,,64,100
91300,note_off,,,,,100,0,11,,,,,4,,64,100
91300,note_off,,,,,100,0,8,,,,,1,,76,100
91300,note_off,,,,,100,0,9,,,,,2,,76,100
91300,note_off,,,,,100,0,16,,,,,7,,64,100
91392,note_on,,,,,92,0,8,,,,,1,,64,85
91392,note_on,,,,,92,0,11,,,,,4,,52,85
91392,note_on,,,,,92,0,9,,,,,2,,64,85
91392,note_on,,,,,92,0,13,,,,,6,,64,100
91392,note_on,,,,,92,0,12,,,,,5,,40,85
91392,note_on,,,,,92,0,16,,,,,7,,52,100
91392,note_on,,,,,92,0,10,,,,,3,,64,85
91392,note_on,,,,,92,0,15,,,,,7,,64,100
91392,note_on,,,,,92,0,14,,,,,6,,52,100
91492,note_off,,,,,100,0,12,,,,,5,,40,100
91492,note_off,,,,,100,0,11,,,,,4,,52,100
91492,note_off,,,,,100,0,9,,,,,2,,64,100
91492,note_off,,,,,100,0,15,,,,,7,,64,100
91492,note_off,,,,,100,0,16,,,,,7,,52,100
91492,note_off,,,,,100,0,8,,,,,1,,64,100
91492,note_off,,,,,100,0,10,,,,,3,,64,100
91492,note_off,,,,,100,0,13,,,,,6,,64,100
91492,note_off,,,,,100,0,14,,,,,6,,52,100
91584,note_on,,,,,92,0,13,,,,,6,,76,100
91584,note_on,,,,,92,0,15,,,,,7,,76,100
91584,note_on,,,,,92,0,16,,,,,7,,64,100
91584,note_on,,,,,92,0,9,,,,,2,,76,85
91584,note_on,,,,,92,0,8,,,,,1,,76,85
91584,note_on,,,,,92,0,10,,,,,3,,76,85
91584,note_on,,,,,92,0,12,,,,,5,,52,85
91584,note_on,,,,,92,0,14,,,,,6,,64,100
91584,note_on,,,,,92,0,11,,,,,4,,64,85
91684,note_off,,,,,100,0,8,,,,,1,,76,100
91684,note_off,,,,,100,0,11,,,,,4,,64,100
91684,note_off,,,,,100,0,14,,,,,6,,64,100
91684,note_off,,,,,100,0,16,,,,,7,,64,100
91684,note_off,,,,,100,0,12,,,,,5,,52,100
91684,note_off,,,,,100,0,15,,,,,7,,76,100
91684,note_off,,,,,100,0,9,,,,,2,,76,100
91684,note_off,,,,,100,0,10,,,,,3,,76,100
91684,note_off,,,,,100,0,13,,,,,6,,76,100
91776,note_on,,,,,92,0,13,,,,,6,,64,100
91776,note_on,,,,,92,0,9,,,,,2,,64,85
91776,note_on,,,,,92,0,8,,,,,1,,64,85
91776,note_on,,,,,92,0,15,,,,,7,,64,100
91776,note_on,,,,,92,0,12,,,,,5,,40,85
91776,note_on,,,,,92,0,11,,,,,4,,52,85
91776,note_on,,,,,92,0,10,,,,,3,,64,85
91776,note_on,,,,,92,0,16,,,,,7,,52,100
91776,note_on,,,,,92,0,14,,,,,6,,52,100
91876,note_off,,,,,100,0,16,,,,,7,,52,100
91876,note_off,,,,,100,0,8,,,,,1,,64,100
91876,note_off,,,,,100,0,11,,,,,4,,52,100
91876,note_off,,,,,100,0,15,,,,,7,,64,100
91876,note_off,,,,,100,0,10,,,,,3,,64,100
91876,note_off,,,,,100,0,9,,,,,2,,64,100
91876,note_off,,,,,100,0,14,,,,,6,,52,100
91876,note_off,,,,,100,0,13,,,,,6,,64,100
91876,note_off,,,,,100,0,12,,,,,5,,40,100
91968,note_on,,,,,92,0,8,,,,,1,,76,85
91968,note_on,,,,,92,0,13,,,,,6,,76,100
91968,note_on,,,,,92,0,14,,,,,6,,64,100
91968,note_on,,,,,92,0,15,,,,,7,,76,100
91968,note_on,,,,,92,0,10,,,,,3,,76,85
91968,note_on,,,,,92,0,12,,,,,5,,52,85
91968,note_on,,,,,92,0,16,,,,,7,,64,100
91968,note_on,,,,,92,0,11,,,,,4,,64,85
91968,note_on,,,,,92,0,9,,,,,2,,76,85
92068,note_off,,,,,100,0,16,,,,,7,,64,100
92068,note_off,,,,,100,0,14,,,,,6,,64,100
92068,note_off,,,,,100,0,11,,,,,4,,64,100
92068,note_off,,,,,100,0,12,,,,,5,,52,100
92068,note_off,,,,,100,0,9,,,,,2,,76,100
92068,note_off,,,,,100,0,10,,,,,3,,76,100
92068,note_off,,,,,100,0,15,,,,,7,,76,100
92068,note_off,,,,,100,0,8,,,,,1,,76,100
92068,note_off,,,,,100,0,13,,,,,6,,76,100
92160,note_on,,,,,92,0,10,,,,,3,,76,85
92160,note_on,,,,,92,0,8,,,,,1,,76,85
92160,note_on,,,,,92,0,11,,,,,4,,64,85
92160,note_on,,,,,92,0,16,,,,,7,,64,100
92160,note_on,,,,,92,0,12,,,,,5,,52,85
92160,note_on,,,,,92,0,13,,,,,6,,76,100
92160,note_on,,,,,92,0,15,,,,,7,,76,100
92160,note_on,,,,,92,0,14,,,,,6,,64,100
92160,note_on,,,,,92,0,9,,,,,2,,76,85
92288,note_off,,,,,128,0,16,,,,,7,,64,100
92288,note_off,,,,,128,0,13,,,,,6,,76,100
92288,note_off,,,,,128,0,10,,,,,3,,76,100
92288,note_off,,,,,128,0,15,,,,,7,,76,100
92288,note_off,,,,,128,0,12,,,,,5,,52,100
92288,note_off,,,,,128,0,9,,,,,2,,76,100
92288,note_off,,,,,128,0,8,,,,,1,,76,100
92288,note_off,,,,,128,0,14,,,,,6,,64,100
92288,note_off,,,,,128,0,11,,,,,4,,64,100
92352,note_on,,,,,64,0,12,,,,,5,,50,86
92352,note_on,,,,,64,0,11,,,,,4,,62,86
92352,note_on,,,,,64,0,14,,,,,6,,62,100
92352,note_on,,,,,64,0,10,,,,,3,,74,86
92352,note_on,,,,,64,0,15,,,,,7,,74,100
92352,note_on,,,,,64,0,13,,,,,6,,74,100
92352,note_on,,,,,64,0,16,,,,,7,,62,100
92352,note_on,,,,,64,0,8,,,,,1,,74,86
92352,note_on,,,,,64,0,9,,,,,2,,74,86
92416,note_off,,,,,64,0,16,,,,,7,,62,100
92416,note_off,,,,,64,0,15,,,,,7,,74,100
92416,note_off,,,,,64,0,8,,,,,1,,74,100
92416,note_off,,,,,64,0,10,,,,,3,,74,100
92416,note_off,,,,,64,0,13,,,,,6,,74,100
92416,note_off,,,,,64,0,11,,,,,4,,62,100
92416,note_off,,,,,64,0,14,,,,,6,,62,100
92416,note_off,,,,,64,0,12,,,,,5,,50,100
92416,note_off,,,,,64,0,9,,,,,2,,74,100
92448,note_on,,,,,32,0,16,,,,,7,,60,100
92448,note_on,,,,,32,0,11,,,,,4,,60,87
92448,note_on,,,,,32,0,10,,,,,3,,72,87
92448,note_on,,,,,32,0,8,,,,,1,,72,87
92448,note_on,,,,,32,0,13,,,,,6,,72,100
92448,note_on,,,,,32,0,9,,,,,2,,72,87
92448,note_on,,,,,32,0,12,,,,,5,,48,87
92448,note_on,,,,,32,0,14,,,,,6,,60,100
92448,note_on,,,,,32,0,15,,,,,7,,72,100
92512,note_off,,,,,64,0,9,,,,,2,,72,100
92512,note_off,,,,,64,0,11,,,,,4,,60,100
92512,note_off,,,,,64,0,14,,,,,6,,60,100
92512,note_off,,,,,64,0,10,,,,,3,,72,100
92512,note_off,,,,,64,0,8,,,,,1,,72,100
92512,note_off,,,,,64,0,15,,,,,7,,72,100
92512,note_off,,,,,64,0,16,,,,,7,,60,100
92512,note_off,,,,,64,0,12,,,,,5,,48,100
92512,note_off,,,,,64,0,13,,,,,6,,72,100
92544,note_on,,,,,32,0,13,,,,,6,,71,100
92544,note_on,,,,,32,0,9,,,,,2,,71,88
92544,note_on,,,,,32,0,8,,,,,1,,71,88
92544,note_on,,,,,32,0,16,,,,,7,,59,100
92544,note_on,,,,,32,0,15,,,,,7,,71,100
92544,note_on,,,,,32,0,10,,,,,3,,71,88
92544,note_on,,,,,32,0,11,,,,,4,,59,88
92544,note_on,,,,,32,0,14,,,,,6,,59,100
92544,note_on,,,,,32,0,12,,,,,5,,47,88
92644,note_off,,,,,100,0,9,,,,,2,,71,100
92644,note_off,,,,,100,0,15,,,,,7,,71,100
92644,note_off,,,,,100,0,10,,,,,3,,71,100
92644,note_off,,,,,100,0,8,,,,,1,,71,100
92644,note_off,,,,,100,0,14,,,,,6,,59,100
92644,note_off,,,,,100,0,11,,,,,4,,59,100
92644,note_off,,,,,100,0,16,,,,,7,,59,100
92644,note_off,,,,,100,0,12,,,,,5,,47,100
92644,note_off,,,,,100,0,13,,,,,6,,71,100
92736,note_on,,,,,92,0,15,,,,,7,,71,100
92736,note_on,,,,,92,0,14,,,,,6,,59,100
92736,note_on,,,,,92,0,16,,,,,7,,59,100
92736,note_on,,,,,92,0,11,,,,,4,,59,90
92736,note_on,,,,,92,0,9,,,,,2,,71,90
92736,note_on,,,,,92,0,12,,,,,5,,47,90
92736,note_on,,,,,92,0,8,,,,,1,,71,90
92736,note_on,,,,,92,0,10,,,,,3,,71,90
92736,note_on,,,,,92,0,13,,,,,6,,71,100
92836,note_off,,,,,100,0,9,,,,,2,,71,100
92836,note_off,,,,,100,0,14,,,,,6,,59,100
92836,note_off,,,,,100,0,11,,,,,4,,59,100
92836,note_off,,,,,100,0,12,,,,,5,,47,100
92836,note_off,,,,,100,0,16,,,,,7,,59,100
92836,note_off,,,,,100,0,13,,,,,6,,71,100
92836,note_off,,,,,100,0,10,,,,,3,,71,100
92836,note_off,,,,,100,0,8,,,,,1,,71,100
92836,note_off,,,,,100,0,15,,,,,7,,71,100
92928,note_on,,,,,92,0,16,,,,,7,,64,100
92928,note_on,,,,,92,0,10,,,,,3,,76,92
92928,note_on,,,,,92,0,11,,,,,4,,64,92
92928,note_on,,,,,92,0,13,,,,,6,,76,100
92928,note_on,,,,,92,0,15,,,,,7,,76,100
92928,note_on,,,,,92,0,12,,,,,5,,52,92
92928,note_on,,,,,92,0,8,,,,,1,,76,92
92928,note_on,,,,,92,0,9,,,,,2,,76,92
92928,note_on,,,,,92,0,14,,,,,6,,64,100
93028,note_off,,,,,100,0,9,,,,,2,,76,100
93028,note_off,,,,,100,0,12,,,,,5,,52,100
93028,note_off,,,,,100,0,13,,,,,6,,76,100
93028,note_off,,,,,100,0,11,,,,,4,,64,100
93028,note_off,,,,,100,0,10,,,,,3,,76,100
93028,note_off,,,,,100,0,8,,,,,1,,76,100
93028,note_off,,,,,100,0,15,,,,,7,,76,100
93028,note_off,,,,,100,0,16,,,,,7,,64,100
93028,note_off,,,,,100,0,14,,,,,6,,64,100
93120,note_on,,,,,92,0,11,,,,,4,,55,94
93120,note_on,,,,,92,0,12,,,,,5,,43,94
93120,note_on,,,,,92,0,14,,,,,6,,55,100
93120,note_on,,,,,92,0,13,,,,,6,,67,100
93120,note_on,,,,,92,0,10,,,,,3,,67,94
93120,note_on,,,,,92,0,9,,,,,2,,67,94
93120,note_on,,,,,92,0,15,,,,,7,,67,100
93120,note_on,,,,,92,0,16,,,,,7,,55,100
93120,note_on,,,,,92,0,8,,,,,1,,67,94
93220,note_off,,,,,100,0,12,,,,,5,,43,100
93220,note_off,,,,,100,0,10,,,,,3,,67,100
93220,note_off,,,,,100,0,13,,,,,6,,67,100
93220,note_off,,,,,100,0,14,,,,,6,,55,100
93220,note_off,,,,,100,0,9,,,,,2,,67,100
93220,note_off,,,,,100,0,15,,,,,7,,67,100
93220,note_off,,,,,100,0,11,,,,,4,,55,100
93220,note_off,,,,,100,0,16,,,,,7,,55,100
93220,note_off,,,,,100,0,8,,,,,1,,67,100
93312,note_on,,,,,92,0,16,,,,,7,,57,100
93312,note_on,,,,,92,0,14,,,,,6,,57,100
93312,note_on,,,,,92,0,10,,,,,3,,69,96
93312,note_on,,,,,92,0,15,,,,,7,,69,100
93312,note_on,,,,,92,0,12,,,,,5,,45,96
93312,note_on,,,,,92,0,8,,,,,1,,69,96
93312,note_on,,,,,92,0,13,,,,,6,,69,100
93312,note_on,,,,,92,0,9,,,,,2,,69,96
93312,note_on,,,,,92,0,11,,,,,4,,57,96
93412,note_off,,,,,100,0,13,,,,,6,,69,100
93412,note_off,,,,,100,0,10,,,,,3,,69,100
93412,note_off,,,,,100,0,14,,,,,6,,57,100
93412,note_off,,,,,100,0,8,,,,,1,,69,100
93412,note_off,,,,,100,0,12,,,,,5,,45,100
93412,note_off,,,,,100,0,11,,,,,4,,57,100
93412,note_off,,,,,100,0,9,,,,,2,,69,100
93412,note_off,,,,,100,0,15,,,,,7,,69,100
93412,note_off,,,,,100,0,16,,,,,7,,57,100
93504,note_on,,,,,92,0,11,,,,,4,,59,98
93504,note_on,,,,,92,0,13,,,,,6,,71,100
93504,note_on,,,,,92,0,15,,,,,7,,71,100
93504,note_on,,,,,92,0,16,,,,,7,,59,100
93504,note_on,,,,,92,0,9,,,,,2,,71,98
93504,note_on,,,,,92,0,10,,,,,3,,71,98
93504,note_on,,,,,92,0,8,,,,,1,,71,98
93504,note_on,,,,,92,0,12,,,,,5,,47,98
93504,note_on,,,,,92,0,14,,,,,6,,59,100
93604,note_off,,,,,100,0,14,,,,,6,,59,100
93604,note_off,,,,,100,0,8,,,,,1,,71,100
93604,note_off,,,,,100,0,13,,,,,6,,71,100
93604,note_off,,,,,100,0,9,,,,,2,,71,100
93604,note_off,,,,,100,0,16,,,,,7,,59,100
93604,note_off,,,,,100,0,12,,,,,5,,47,100
93604,note_off,,,,,100,0,10,,,,,3,,71,100
93604,note_off,,,,,100,0,15,,,,,7,,71,100
93604,note_off,,,,,100,0,11,,,,,4,,59,100
93696,note_on,,,,,92,0,16,,,,,7,,52,100
93696,note_on,,,,,92,0,14,,,,,6,,52,100
93696,note_on,,,,,92,0,11,,,,,4,,52,99
93696,note_on,,,,,92,0,15,,,,,7,,64,100
93696,note_on,,,,,92,0,8,,,,,1,,64,99
93696,note_on,,,,,92,0,10,,,,,3,,64,99
93696,note_on,,,,,92,0,9,,,,,2,,64,99
93696,note_on,,,,,92,0,12,,,,,5,,40,99
93696,note_on,,,,,92,0,13,,,,,6,,64,100
93888,note_on,,,,,13888,0,7,,,,,0,,76,100
93952,note_off,,,,,256,0,8,,,,,1,,64,100
93952,note_off,,,,,256,0,10,,,,,3,,64,100
93952,note_off,,,,,256,0,9,,,,,2,,64,100
93952,note_off,,,,,256,0,15,,,,,7,,64,100
93952,note_off,,,,,256,0,12,,,,,5,,40,100
93952,note_off,,,,,256,0,11,,,,,4,,52,100
93952,note_off,,,,,256,0,13,,,,,6,,64,100
93952,note_off,,,,,256,0,14,,,,,6,,52,100
93952,note_off,,,,,256,0,16,,,,,7,,52,100
93988,note_off,,,,,100,0,7,,,,,0,,76,100
94080,program_change,,,,,128,0,11,,,,,4,42,,
94080,note_on,,,,,92,0,7,,,,,0,,79,100
94272,note_on,,,,,192,0,11,,,,,4,,52,75
94272,note_on,,,,,320,0,14,,,,,6,,52,100
94272,note_on,,,,,320,0,13,,,,,6,,76,100
94372,note_off,,,,,100,0,11,,,,,4,,52,100
94372,note_off,,,,,100,0,14,,,,,6,,52,100
94372,note_off,,,,,100,0,13,,,,,6,,76,100
94464,note_on,,,,,92,0,13,,,,,6,,67,100
94464,note_on,,,,,92,0,14,,,,,6,,57,100
94464,note_on,,,,,92,0,11,,,,,4,,57,75
94464,note_on,,,,,0,0,13,,,,,6,,73,100
94540,note_off,,,,,460,0,7,,,,,0,,79,100
94564,note_off,,,,,100,0,14,,,,,6,,57,100
94564,note_off,,,,,100,0,13,,,,,6,,67,100
94564,note_off,,,,,0,0,13,,,,,6,,73,100
94564,note_off,,,,,100,0,11,,,,,4,,57,100
94656,note_on,,,,,0,0,13,,,,,6,,74,100
94656,note_on,,,,,92,0,11,,,,,4,,45,75
94656,note_on,,,,,92,0,14,,,,,6,,45,100
94656,note_on,,,,,116,0,7,,,,,0,,77,100
94656,note_on,,,,,92,0,13,,,,,6,,67,100
94720,note_off,,,,,64,0,7,,,,,0,,77,100
94752,note_on,,,,,32,0,7,,,,,0,,76,100
94756,note_off,,,,,100,0,14,,,,,6,,45,100
94756,note_off,,,,,0,0,13,,,,,6,,74,100
94756,note_off,,,,,100,0,13,,,,,6,,67,100
94756,note_off,,,,,100,0,11,,,,,4,,45,100
94816,note_off,,,,,64,0,7,,,,,0,,76,100
94848,note_on,,,,,0,0,13,,,,,6,,76,100
94848,note_on,,,,,92,0,13,,,,,6,,67,100
94848,note_on,,,,,92,0,14,,,,,6,,49,100
94848,note_on,,,,,32,0,7,,,,,0,,82,100
94848,note_on,,,,,92,0,11,,,,,4,,49,75
94940,note_off,,,,,92,0,7,,,,,0,,82,100
94944,note_on,,,,,4,0,7,,,,,0,,81,99
94948,note_off,,,,,100,0,14,,,,,6,,49,100
94948,note_off,,,,,100,0,11,,,,,4,,49,100
94948,note_off,,,,,0,0,13,,,,,6,,76,100
94948,note_off,,,,,100,0,13,,,,,6,,67,100
95036,note_off,,,,,92,0,7,,,,,0,,81,100
95040,note_on,,,,,0,0,13,,,,,6,,73,100
95040,note_on,,,,,92,0,13,,,,,6,,67,100
95040,note_on,,,,,92,0,14,,,,,6,,45,100
95040,note_on,,,,,92,0,11,,,,,4,,45,75
95040,note_on,,,,,4,0,7,,,,,0,,82,98
95104,note_off,,,,,64,0,7,,,,,0,,82,100
95136,note_on,,,,,32,0,7,,,,,0,,73,97
95140,note_off,,,,,100,0,11,,,,,4,,45,100
95140,note_off,,,,,100,0,14,,,,,6,,45,100
95140,note_off,,,,,0,0,13,,,,,6,,73,100
95140,note_off,,,,,100,0,13,,,,,6,,67,100
95200,note_off,,,,,64,0,7,,,,,0,,73,100
95232,note_on,,,,,0,0,13,,,,,6,,74,100
95232,note_on,,,,,0,0,13,,,,,6,,65,100
95232,note_on,,,,,92,0,13,,,,,6,,69,100
95232,note_on,,,,,92,0,14,,,,,6,,50,100
95232,note_on,,,,,32,0,7,,,,,0,,74,96
95232,note_on,,,,,92,0,11,,,,,4,,50,75
95332,note_off,,,,,100,0,7,,,,,0,,74,100
95424,note_on,,,,,92,0,7,,,,,0,,62,94
95488,note_off,,,,,0,0,13,,,,,6,,65,100
95488,note_off,,,,,0,0,13,,,,,6,,74,100
95488,note_off,,,,,256,0,13,,,,,6,,69,100
95488,note_off,,,,,256,0,11,,,,,4,,50,100
95488,note_off,,,,,256,0,14,,,,,6,,50,100
95524,note_off,,,,,100,0,7,,,,,0,,62,100
95616,note_on,,,,,92,0,7,,,,,0,,77,100
95808,note_on,,,,,320,0,11,,,,,4,,50,75
95808,note_on,,,,,320,0,14,,,,,6,,50,100
95808,note_on,,,,,320,0,13,,,,,6,,74,100
95908,note_off,,,,,100,0,11,,,,,4,,50,100
95908,note_off,,,,,100,0,14,,,,,6,,50,100
95908,note_off,,,,,100,0,13,,,,,6,,74,100
96000,note_on,,,,,92,0,14,,,,,6,,55,100
96000,note_on,,,,,92,0,11,,,,,4,,55,75
96000,note_on,,,,,92,0,13,,,,,6,,65,100
96000,note_on,,,,,0,0,13,,,,,6,,71,100
96076,note_off,,,,,460,0,7,,,,,0,,77,100
96100,note_off,,,,,100,0,11,,,,,4,,55,100
96100,note_off,,,,,100,0,13,,,,,6,,65,100
96100,note_off,,,,,0,0,13,,,,,6,,71,100
96100,note_off,,,,,100,0,14,,,,,6,,55,100
96192,note_on,,,,,92,0,11,,,,,4,,43,75
96192,note_on,,,,,92,0,13,,,,,6,,65,100
96192,note_on,,,,,92,0,14,,,,,6,,43,100
96192,note_on,,,,,116,0,7,,,,,0,,76,100
96192,note_on,,,,,0,0,13,,,,,6,,72,100
96256,note_off,,,,,64,0,7,,,,,0,,76,100
96288,note_on,,,,,32,0,7,,,,,0,,74,100
96292,note_off,,,,,100,0,11,,,,,4,,43,100
96292,note_off,,,,,100,0,13,,,,,6,,65,100
96292,note_off,,,,,100,0,14,,,,,6,,43,100
96292,note_off,,,,,0,0,13,,,,,6,,72,100
96352,note_off,,,,,64,0,7,,,,,0,,74,100
96384,note_on,,,,,32,0,7,,,,,0,,79,100
96384,note_on,,,,,92,0,11,,,,,4,,47,75
96384,note_on,,,,,0,0,13,,,,,6,,74,100
96384,note_on,,,,,92,0,13,,,,,6,,65,100
96384,note_on,,,,,92,0,14,,,,,6,,47,100
96476,note_off,,,,,92,0,7,,,,,0,,79,100
96480,note_on,,,,,4,0,7,,,,,0,,77,99
96484,note_off,,,,,100,0,14,,,,,6,,47,100
96484,note_off,,,,,0,0,13,,,,,6,,74,100
96484,note_off,,,,,100,0,11,,,,,4,,47,100
96484,note_off,,,,,100,0,13,,,,,6,,65,100
96572,note_off,,,,,92,0,7,,,,,0,,77,100
96576,note_on,,,,,92,0,13,,,,,6,,65,100
96576,note_on,,,,,4,0,7,,,,,0,,79,98
96576,note_on,,,,,92,0,11,,,,,4,,43,75
96576,note_on,,,,,92,0,14,,,,,6,,43,100
96576,note_on,,,,,0,0,13,,,,,6,,71,100
96640,note_off,,,,,64,0,7,,,,,0,,79,100
96672,note_on,,,,,32,0,7,,,,,0,,71,97
96676,note_off,,,,,100,0,14,,,,,6,,43,100
96676,note_off,,,,,100,0,11,,,,,4,,43,100
96676,note_off,,,,,0,0,13,,,,,6,,71,100
96676,note_off,,,,,100,0,13,,,,,6,,65,100
96736,note_off,,,,,64,0,7,,,,,0,,71,100
96768,note_on,,,,,0,0,13,,,,,6,,72,100
96768,note_on,,,,,0,0,13,,,,,6,,67,100
96768,note_on,,,,,92,0,13,,,,,6,,64,100
96768,note_on,,,,,32,0,7,,,,,0,,72,96
96768,note_on,,,,,92,0,14,,,,,6,,48,100
96768,note_on,,,,,92,0,11,,,,,4,,48,75
96868,note_off,,,,,100,0,7,,,,,0,,72,100
96960,note_on,,,,,92,0,7,,,,,0,,60,94
97024,note_off,,,,,0,0,13,,,,,6,,72,100
97024,note_off,,,,,256,0,11,,,,,4,,48,100
97024,note_off,,,,,256,0,14,,,,,6,,48,100
97024,note_off,,,,,256,0,13,,,,,6,,64,100
97024,note_off,,,,,0,0,13,,,,,6,,67,100
97060,note_off,,,,,100,0,7,,,,,0,,60,100
97152,note_on,,,,,92,0,7,,,,,0,,76,100
97344,note_on,,,,,0,0,13,,,,,6,,64,100
97344,note_on,,,,,320,0,11,,,,,4,,60,70
97344,note_on,,,,,320,0,13,,,,,6,,67,100
97344,note_on,,,,,320,0,14,,,,,6,,60,100
97444,note_off,,,,,100,0,11,,,,,4,,60,100
97444,note_off,,,,,100,0,14,,,,,6,,60,100
97444,note_off,,,,,100,0,13,,,,,6,,67,100
97444,note_off,,,,,0,0,13,,,,,6,,64,100
97536,note_on,,,,,92,0,11,,,,,4,,57,70
97536,note_on,,,,,92,0,13,,,,,6,,69,100
97536,note_on,,,,,0,0,13,,,,,6,,65,100
97536,note_on,,,,,92,0,14,,,,,6,,57,100
97612,note_off,,,,,460,0,7,,,,,0,,76,100
97728,note_on,,,,,192,0,13,,,,,6,,74,100
97728,note_on,,,,,116,0,7,,,,,0,,74,100
97820,note_off,,,,,92,0,7,,,,,0,,74,100
97824,note_on,,,,,4,0,7,,,,,0,,72,100
97888,note_off,,,,,64,0,7,,,,,0,,72,100
97920,note_off,,,,,192,0,13,,,,,6,,69,100
97920,note_off,,,,,0,0,13,,,,,6,,65,100
97920,note_off,,,,,384,0,11,,,,,4,,57,100
97920,note_off,,,,,384,0,14,,,,,6,,57,100
97920,note_on,,,,,32,0,7,,,,,0,,79,99
97984,note_off,,,,,64,0,13,,,,,6,,74,100
98012,note_off,,,,,92,0,7,,,,,0,,79,100
98016,note_on,,,,,4,0,7,,,,,0,,77,99
98080,note_off,,,,,64,0,7,,,,,0,,77,100
98112,note_on,,,,,0,0,13,,,,,6,,65,100
98112,note_on,,,,,128,0,13,,,,,6,,71,100
98112,note_on,,,,,192,0,14,,,,,6,,62,100
98112,note_on,,,,,32,0,7,,,,,0,,76,98
98112,note_on,,,,,192,0,11,,,,,4,,62,70
98204,note_off,,,,,92,0,7,,,,,0,,76,100
98208,note_on,,,,,4,0,7,,,,,0,,74,98
98212,note_off,,,,,100,0,11,,,,,4,,62,100
98212,note_off,,,,,100,0,14,,,,,6,,62,100
98240,note_off,,,,,128,0,13,,,,,6,,71,100
98240,note_off,,,,,0,0,13,,,,,6,,65,100
98272,note_off,,,,,64,0,7,,,,,0,,74,100
98304,note_on,,,,,64,0,13,,,,,6,,68,100
98304,note_on,,,,,0,0,13,,,,,6,,62,100
98304,note_on,,,,,0,0,13,,,,,6,,65,100
98304,note_on,,,,,92,0,14,,,,,6,,56,100
98304,note_on,,,,,32,0,7,,,,,0,,72,97
98304,note_on,,,,,92,0,11,,,,,4,,56,70
98396,note_off,,,,,92,0,7,,,,,0,,72,100
98400,note_on,,,,,4,0,7,,,,,0,,71,97
98464,note_off,,,,,64,0,7,,,,,0,,71,100
98496,note_on,,,,,32,0,7,,,,,0,,72,96
98560,note_off,,,,,256,0,14,,,,,6,,56,100
98560,note_off,,,,,256,0,11,,,,,4,,56,100
98560,note_off,,,,,0,0,13,,,,,6,,62,100
98560,note_off,,,,,256,0,13,,,,,6,,68,100
98560,note_off,,,,,0,0,13,,,,,6,,65,100
98588,note_off,,,,,92,0,7,,,,,0,,72,100
98592,note_on,,,,,4,0,7,,,,,0,,71,96
98656,note_off,,,,,64,0,7,,,,,0,,71,100
98688,note_on,,,,,0,0,13,,,,,6,,64,100
98688,note_on,,,,,32,0,7,,,,,0,,77,95
98688,note_on,,,,,0,0,13,,,,,6,,59,100
98688,note_on,,,,,128,0,13,,,,,6,,71,100
98688,note_on,,,,,128,0,14,,,,,6,,55,100
98688,note_on,,,,,128,0,11,,,,,4,,55,70
98780,note_off,,,,,92,0,7,,,,,0,,77,100
98784,note_on,,,,,4,0,7,,,,,0,,76,95
98848,note_off,,,,,64,0,7,,,,,0,,76,100
98880,note_on,,,,,32,0,7,,,,,0,,74,94
98944,note_off,,,,,256,0,11,,,,,4,,55,100
98944,note_off,,,,,0,0,13,,,,,6,,59,100
98944,note_off,,,,,0,0,13,,,,,6,,64,100
98944,note_off,,,,,256,0,13,,,,,6,,71,100
98944,note_off,,,,,256,0,14,,,,,6,,55,100
98972,note_off,,,,,92,0,7,,,,,0,,74,100
98976,note_on,,,,,4,0,7,,,,,0,,72,93
99040,note_off,,,,,64,0,7,,,,,0,,72,100
99072,note_on,,,,,32,0,7,,,,,0,,71,93
99072,note_on,,,,,0,0,13,,,,,6,,64,100
99072,note_on,,,,,0,0,13,,,,,6,,60,100
99072,note_on,,,,,128,0,13,,,,,6,,69,100
99072,note_on,,,,,128,0,11,,,,,4,,54,70
99072,note_on,,,,,128,0,14,,,,,6,,54,100
99164,note_off,,,,,92,0,7,,,,,0,,71,100
99168,note_on,,,,,4,0,7,,,,,0,,69,92
99232,note_off,,,,,64,0,7,,,,,0,,69,100
99264,note_on,,,,,32,0,7,,,,,0,,71,92
99328,note_off,,,,,256,0,13,,,,,6,,69,100
99328,note_off,,,,,0,0,13,,,,,6,,64,100
99328,note_off,,,,,0,0,13,,,,,6,,60,100
99328,note_off,,,,,256,0,14,,,,,6,,54,100
99328,note_off,,,,,256,0,11,,,,,4,,54,100
99356,note_off,,,,,92,0,7,,,,,0,,71,100
99360,note_on,,,,,4,0,7,,,,,0,,69,91
99424,note_off,,,,,64,0,7,,,,,0,,69,100
99456,note_on,,,,,128,0,14,,,,,6,,53,100
99456,note_on,,,,,128,0,13,,,,,6,,57,100
99456,note_on,,,,,0,0,13,,,,,6,,62,100
99456,note_on,,,,,0,0,13,,,,,6,,69,100
99456,note_on,,,,,128,0,11,,,,,4,,53,70
99456,note_on,,,,,32,0,7,,,,,0,,76,91
99548,note_off,,,,,92,0,7,,,,,0,,76,100
99552,note_on,,,,,4,0,7,,,,,0,,74,90
99616,note_off,,,,,64,0,7,,,,,0,,74,100
99648,note_on,,,,,32,0,7,,,,,0,,72,90
99712,note_off,,,,,256,0,11,,,,,4,,53,100
99712,note_off,,,,,0,0,13,,,,,6,,62,100
99712,note_off,,,,,256,0,13,,,,,6,,57,100
99712,note_off,,,,,0,0,13,,,,,6,,69,100
99712,note_off,,,,,256,0,14,,,,,6,,53,100
99740,note_off,,,,,92,0,7,,,,,0,,72,100
99744,note_on,,,,,4,0,7,,,,,0,,71,89
99808,note_off,,,,,64,0,7,,,,,0,,71,100
99840,note_on,,,,,128,0,13,,,,,6,,59,100
99840,note_on,,,,,0,0,13,,,,,6,,68,100
99840,note_on,,,,,128,0,11,,,,,4,,52,70
99840,note_on,,,,,128,0,14,,,,,6,,52,100
99840,note_on,,,,,32,0,7,,,,,0,,69,88
99840,note_on,,,,,0,0,13,,,,,6,,64,100
99932,note_off,,,,,92,0,7,,,,,0,,69,100
99936,note_on,,,,,4,0,7,,,,,0,,68,88
99940,note_off,,,,,100,0,11,,,,,4,,52,100
99940,note_off,,,,,100,0,14,,,,,6,,52,100
99940,note_off,,,,,0,0,13,,,,,6,,64,100
99940,note_off,,,,,0,0,13,,,,,6,,68,100
99940,note_off,,,,,100,0,13,,,,,6,,59,100
100000,note_off,,,,,64,0,7,,,,,0,,68,100
100032,note_on,,,,,92,0,14,,,,,6,,57,100
100032,note_on,,,,,0,0,13,,,,,6,,72,100
100032,note_on,,,,,92,0,13,,,,,6,,69,100
100032,note_on,,,,,92,0,11,,,,,4,,57,70
100032,note_on,,,,,32,0,7,,,,,0,,71,89
100124,note_off,,,,,92,0,7,,,,,0,,71,100
100128,note_on,,,,,4,0,7,,,,,0,,69,90
100132,note_off,,,,,100,0,14,,,,,6,,57,100
100132,note_off,,,,,0,0,13,,,,,6,,72,100
100132,note_off,,,,,100,0,13,,,,,6,,69,100
100132,note_off,,,,,100,0,11,,,,,4,,57,100
100192,note_off,,,,,64,0,7,,,,,0,,69,100
100224,note_on,,,,,92,0,13,,,,,6,,64,100
100224,note_on,,,,,0,0,13,,,,,6,,71,100
100224,note_on,,,,,92,0,11,,,,,4,,56,70
100224,note_on,,,,,92,0,14,,,,,6,,56,100
100224,note_on,,,,,32,0,7,,,,,0,,72,91
100316,note_off,,,,,92,0,7,,,,,0,,72,100
100320,note_on,,,,,4,0,7,,,,,0,,71,92
100324,note_off,,,,,100,0,11,,,,,4,,56,100
100324,note_off,,,,,100,0,14,,,,,6,,56,100
100324,note_off,,,,,100,0,13,,,,,6,,64,100
100324,note_off,,,,,0,0,13,,,,,6,,71,100
100384,note_off,,,,,64,0,7,,,,,0,,71,100
100416,note_on,,,,,92,0,13,,,,,6,,69,100
100416,note_on,,,,,92,0,14,,,,,6,,55,100
100416,note_on,,,,,32,0,7,,,,,0,,74,92
100416,note_on,,,,,92,0,11,,,,,4,,55,70
100416,note_on,,,,,0,0,13,,,,,6,,73,100
100508,note_off,,,,,92,0,7,,,,,0,,74,100
100512,note_on,,,,,4,0,7,,,,,0,,73,93
100516,note_off,,,,,100,0,14,,,,,6,,55,100
100516,note_off,,,,,0,0,13,,,,,6,,73,100
100516,note_off,,,,,100,0,13,,,,,6,,69,100
100516,note_off,,,,,100,0,11,,,,,4,,55,100
100576,note_off,,,,,64,0,7,,,,,0,,73,100
100608,note_on,,,,,32,0,7,,,,,0,,76,94
100608,note_on,,,,,0,0,13,,,,,6,,74,100
100608,note_on,,,,,92,0,13,,,,,6,,69,100
100608,note_on,,,,,92,0,14,,,,,6,,53,100
100608,note_on,,,,,92,0,11,,,,,4,,53,70
100700,note_off,,,,,92,0,7,,,,,0,,76,100
100704,note_on,,,,,4,0,7,,,,,0,,74,95
100708,note_off,,,,,100,0,14,,,,,6,,53,100
100708,note_off,,,,,100,0,11,,,,,4,,53,100
100708,note_off,,,,,100,0,13,,,,,6,,74,100
100768,note_off,,,,,64,0,7,,,,,0,,74,100
100800,note_on,,,,,92,0,14,,,,,6,,48,100
100800,note_on,,,,,32,0,7,,,,,0,,77,96
100800,note_on,,,,,92,0,13,,,,,6,,76,100
100800,note_on,,,,,92,0,11,,,,,4,,48,70
100892,note_off,,,,,92,0,7,,,,,0,,77,100
100896,note_on,,,,,4,0,7,,,,,0,,76,96
100900,note_off,,,,,100,0,11,,,,,4,,48,100
100900,note_off,,,,,100,0,14,,,,,6,,48,100
100900,note_off,,,,,100,0,13,,,,,6,,76,100
100912,note_off,,,,,12,0,13,,,,,6,,69,100
100960,note_off,,,,,64,0,7,,,,,0,,76,100
100992,note_on,,,,,0,0,13,,,,,6,,77,100
100992,note_on,,,,,92,0,11,,,,,4,,50,70
100992,note_on,,,,,80,0,13,,,,,6,,69,100
100992,note_on,,,,,92,0,14,,,,,6,,50,100
100992,note_on,,,,,32,0,7,,,,,0,,79,97
101084,note_off,,,,,92,0,7,,,,,0,,79,100
101088,note_on,,,,,4,0,7,,,,,0,,77,98
101092,note_off,,,,,100,0,11,,,,,4,,50,100
101092,note_off,,,,,0,0,13,,,,,6,,77,100
101092,note_off,,,,,100,0,14,,,,,6,,50,100
101092,note_off,,,,,100,0,13,,,,,6,,69,100
101152,note_off,,,,,64,0,7,,,,,0,,77,100
101184,note_on,,,,,92,0,11,,,,,4,,52,70
101184,note_on,,,,,92,0,13,,,,,6,,68,100
101184,note_on,,,,,0,0,13,,,,,6,,76,100
101184,note_on,,,,,32,0,7,,,,,0,,81,99
101184,note_on,,,,,92,0,14,,,,,6,,52,100
101276,note_off,,,,,92,0,7,,,,,0,,81,100
101280,note_on,,,,,4,0,7,,,,,0,,80,100
101284,note_off,,,,,100,0,13,,,,,6,,68,100
101284,note_off,,,,,0,0,13,,,,,6,,76,100
101284,note_off,,,,,100,0,14,,,,,6,,52,100
101284,note_off,,,,,100,0,11,,,,,4,,52,100
101344,note_off,,,,,64,0,7,,,,,0,,80,100
101376,note_on,,,,,0,0,13,,,,,6,,68,100
101376,note_on,,,,,32,0,7,,,,,0,,83,102
101376,note_on,,,,,92,0,13,,,,,6,,64,100
101376,note_on,,,,,0,0,13,,,,,6,,74,100
101376,note_on,,,,,92,0,11,,,,,4,,52,70
101376,note_on,,,,,92,0,14,,,,,6,,52,100
101468,note_off,,,,,92,0,7,,,,,0,,83,100
101472,note_on,,,,,4,0,7,,,,,0,,80,101
101476,note_off,,,,,0,0,13,,,,,6,,74,100
101476,note_off,,,,,100,0,11,,,,,4,,52,100
101476,note_off,,,,,100,0,14,,,,,6,,52,100
101476,note_off,,,,,0,0,13,,,,,6,,68,100
101476,note_off,,,,,100,0,13,,,,,6,,64,100
101536,note_off,,,,,64,0,7,,,,,0,,80,100
101568,note_on,,,,,32,0,7,,,,,0,,77,99
101568,note_on,,,,,92,0,14,,,,,6,,64,100
101568,note_on,,,,,92,0,13,,,,,6,,68,100
101568,note_on,,,,,0,0,13,,,,,6,,71,100
101568,note_on,,,,,92,0,11,,,,,4,,64,70
101660,note_off,,,,,92,0,7,,,,,0,,77,100
101664,note_on,,,,,4,0,7,,,,,0,,76,97
101668,note_off,,,,,100,0,11,,,,,4,,64,100
101668,note_off,,,,,100,0,14,,,,,6,,64,100
101668,note_off,,,,,0,0,13,,,,,6,,71,100
101668,note_off,,,,,100,0,13,,,,,6,,68,100
101728,note_off,,,,,64,0,7,,,,,0,,76,100
101760,note_on,,,,,92,0,11,,,,,4,,52,70
101760,note_on,,,,,32,0,7,,,,,0,,74,95
101760,note_on,,,,,0,0,13,,,,,6,,68,100
101760,note_on,,,,,0,0,13,,,,,6,,64,100
101760,note_on,,,,,92,0,13,,,,,6,,59,100
101760,note_on,,,,,92,0,14,,,,,6,,52,100
101852,note_off,,,,,92,0,7,,,,,0,,74,100
101856,note_on,,,,,4,0,7,,,,,0,,73,93
101920,note_off,,,,,64,0,7,,,,,0,,73,100
101952,note_on,,,,,32,0,7,,,,,0,,74,91
101960,note_off,,,,,200,0,11,,,,,4,,52,100
101960,note_off,,,,,200,0,14,,,,,6,,52,100
102016,note_off,,,,,256,0,13,,,,,6,,59,100
102016,note_off,,,,,0,0,13,,,,,6,,64,100
102016,note_off,,,,,0,0,13,,,,,6,,68,100
102052,note_off,,,,,100,0,7,,,,,0,,74,100
102144,note_on,,,,,92,0,7,,,,,0,,64,90
102336,note_on,,,,,320,0,13,,,,,6,,68,100
102336,note_on,,,,,376,0,11,,,,,4,,64,70
102336,note_on,,,,,0,0,13,,,,,6,,71,100
102336,note_on,,,,,376,0,14,,,,,6,,64,100
102436,note_off,,,,,100,0,13,,,,,6,,68,100
102436,note_off,,,,,100,0,14,,,,,6,,64,100
102436,note_off,,,,,0,0,13,,,,,6,,71,100
102436,note_off,,,,,100,0,11,,,,,4,,64,100
102528,note_on,,,,,92,0,13,,,,,6,,59,100
102528,note_on,,,,,0,0,13,,,,,6,,68,100
102528,note_on,,,,,0,0,13,,,,,6,,64,100
102528,note_on,,,,,92,0,14,,,,,6,,52,100
102528,note_on,,,,,92,0,11,,,,,4,,52,70
102544,note_off,,,,,400,0,7,,,,,0,,64,100
102624,note_on,,,,,80,0,7,,,,,0,,68,92
102716,note_off,,,,,92,0,7,,,,,0,,68,100
102720,note_on,,,,,4,0,7,,,,,0,,66,92
102728,note_off,,,,,200,0,11,,,,,4,,52,100
102728,note_off,,,,,200,0,14,,,,,6,,52,100
102784,note_off,,,,,0,0,13,,,,,6,,64,100
102784,note_off,,,,,256,0,13,,,,,6,,59,100
102784,note_off,,,,,0,0,13,,,,,6,,68,100
102812,note_off,,,,,92,0,7,,,,,0,,66,100
102816,note_on,,,,,4,0,7,,,,,0,,64,92
102880,note_off,,,,,64,0,7,,,,,0,,64,100
102912,note_on,,,,,32,0,7,,,,,0,,74,93
103104,note_on,,,,,0,0,13,,,,,6,,71,100
103104,note_on,,,,,376,0,14,,,,,6,,64,100
103104,note_on,,,,,320,0,13,,,,,6,,68,100
103104,note_on,,,,,376,0,11,,,,,4,,64,70
103204,note_off,,,,,100,0,14,,,,,6,,64,100
103204,note_off,,,,,0,0,13,,,,,6,,71,100
103204,note_off,,,,,100,0,11,,,,,4,,64,100
103204,note_off,,,,,100,0,13,,,,,6,,68,100
103296,note_on,,,,,0,0,13,,,,,6,,68,100
103296,note_on,,,,,92,0,13,,,,,6,,59,100
103296,note_on,,,,,92,0,11,,,,,4,,52,70
103296,note_on,,,,,92,0,14,,,,,6,,52,100
103296,note_on,,,,,0,0,13,,,,,6,,64,100
103312,note_off,,,,,400,0,7,,,,,0,,74,100
103392,note_on,,,,,80,0,7,,,,,0,,72,95
103484,note_off,,,,,92,0,7,,,,,0,,72,100
103488,note_on,,,,,4,0,7,,,,,0,,71,95
103496,note_off,,,,,200,0,14,,,,,6,,52,100
103496,note_off,,,,,200,0,11,,,,,4,,52,100
103552,note_off,,,,,0,0,13,,,,,6,,68,100
103552,note_off,,,,,0,0,13,,,,,6,,64,100
103552,note_off,,,,,256,0,13,,,,,6,,59,100
103580,note_off,,,,,92,0,7,,,,,0,,71,100
103584,note_on,,,,,4,0,7,,,,,0,,69,96
103648,note_off,,,,,64,0,7,,,,,0,,69,100
103680,note_on,,,,,32,0,7,,,,,0,,80,96
103872,note_on,,,,,0,0,13,,,,,6,,71,100
103872,note_on,,,,,376,0,11,,,,,4,,64,70
103872,note_on,,,,,376,0,14,,,,,6,,64,100
103872,note_on,,,,,320,0,13,,,,,6,,68,100
103972,note_off,,,,,0,0,13,,,,,6,,71,100
103972,note_off,,,,,100,0,14,,,,,6,,64,100
103972,note_off,,,,,100,0,13,,,,,6,,68,100
103972,note_off,,,,,100,0,11,,,,,4,,64,100
104064,note_on,,,,,0,0,13,,,,,6,,64,100
104064,note_on,,,,,92,0,11,,,,,4,,52,70
104064,note_on,,,,,0,0,13,,,,,6,,68,100
104064,note_on,,,,,92,0,14,,,,,6,,52,100
104064,note_on,,,,,92,0,13,,,,,6,,59,100
104080,note_off,,,,,400,0,7,,,,,0,,80,100
104160,note_on,,,,,80,0,7,,,,,0,,77,98
104252,note_off,,,,,92,0,7,,,,,0,,77,100
104256,note_on,,,,,4,0,7,,,,,0,,76,99
104264,note_off,,,,,200,0,14,,,,,6,,52,100
104264,note_off,,,,,200,0,11,,,,,4,,52,100
104320,note_off,,,,,256,0,13,,,,,6,,59,100
104320,note_off,,,,,0,0,13,,,,,6,,64,100
104320,note_off,,,,,0,0,13,,,,,6,,68,100
104348,note_off,,,,,92,0,7,,,,,0,,76,100
104352,note_on,,,,,4,0,7,,,,,0,,74,99
104416,note_off,,,,,64,0,7,,,,,0,,74,100
104448,note_on,,,,,32,0,7,,,,,0,,83,100
104640,note_on,,,,,376,0,11,,,,,4,,64,70
104640,note_on,,,,,376,0,14,,,,,6,,64,100
104640,note_on,,,,,0,0,13,,,,,6,,71,100
104640,note_on,,,,,320,0,13,,,,,6,,68,100
104740,note_off,,,,,0,0,13,,,,,6,,71,100
104740,note_off,,,,,100,0,14,,,,,6,,64,100
104740,note_off,,,,,100,0,13,,,,,6,,68,100
104740,note_off,,,,,100,0,11,,,,,4,,64,100
104832,note_on,,,,,92,0,14,,,,,6,,52,100
104832,note_on,,,,,92,0,13,,,,,6,,59,100
104832,note_on,,,,,92,0,11,,,,,4,,52,70
104832,note_on,,,,,0,0,13,,,,,6,,64,100
104832,note_on,,,,,0,0,13,,,,,6,,68,100
104848,note_off,,,,,400,0,7,,,,,0,,83,100
104928,note_on,,,,,80,0,7,,,,,0,,80,100
105020,note_off,,,,,92,0,7,,,,,0,,80,100
105024,note_on,,,,,4,0,7,,,,,0,,81,100
105032,note_off,,,,,200,0,14,,,,,6,,52,100
105032,note_off,,,,,200,0,11,,,,,4,,52,100
105088,note_off,,,,,0,0,13,,,,,6,,64,100
105088,note_off,,,,,0,0,13,,,,,6,,68,100
105088,note_off,,,,,256,0,13,,,,,6,,59,100
105116,note_off,,,,,92,0,7,,,,,0,,81,100
105120,note_on,,,,,4,0,7,,,,,0,,83,100
105184,note_off,,,,,64,0,7,,,,,0,,83,100
105216,note_on,,,,,32,0,7,,,,,0,,74,100
105408,note_on,,,,,376,0,14,,,,,6,,64,100
105408,note_on,,,,,0,0,13,,,,,6,,71,100
105408,note_on,,,,,320,0,13,,,,,6,,68,100
105408,note_on,,,,,376,0,11,,,,,4,,64,70
105508,note_off,,,,,0,0,13,,,,,6,,71,100
105508,note_off,,,,,100,0,13,,,,,6,,68,100
105508,note_off,,,,,100,0,14,,,,,6,,64,100
105508,note_off,,,,,100,0,11,,,,,4,,64,100
105600,note_on,,,,,92,0,11,,,,,4,,52,70
105600,note_on,,,,,92,0,14,,,,,6,,52,100
105600,note_on,,,,,0,0,13,,,,,6,,68,100
105600,note_on,,,,,0,0,13,,,,,6,,64,100
105600,note_on,,,,,92,0,13,,,,,6,,59,100
105616,note_off,,,,,400,0,7,,,,,0,,74,100
105696,note_on,,,,,80,0,7,,,,,0,,80,92
105788,note_off,,,,,92,0,7,,,,,0,,80,100
105792,note_on,,,,,4,0,7,,,,,0,,81,92
105800,note_off,,,,,200,0,14,,,,,6,,52,100
105800,note_off,,,,,200,0,11,,,,,4,,52,100
105856,note_off,,,,,0,0,13,,,,,6,,68,100
105856,note_off,,,,,256,0,13,,,,,6,,59,100
105856,note_off,,,,,0,0,13,,,,,6,,64,100
105884,note_off,,,,,92,0,7,,,,,0,,81,100
105888,note_on,,,,,4,0,7,,,,,0,,83,93
105952,note_off,,,,,64,0,7,,,,,0,,83,100
105984,note_on,,,,,32,0,7,,,,,0,,74,94
106076,note_off,,,,,92,0,7,,,,,0,,74,100
106080,note_on,,,,,4,0,7,,,,,0,,80,94
106172,note_off,,,,,92,0,7,,,,,0,,80,100
106176,note_on,,,,,4,0,7,,,,,0,,81,95
106176,note_on,,,,,376,0,14,,,,,6,,64,100
106176,note_on,,,,,0,0,13,,,,,6,,71,100
106176,note_on,,,,,320,0,13,,,,,6,,68,100
106176,note_on,,,,,376,0,11,,,,,4,,64,70
106268,note_off,,,,,92,0,7,,,,,0,,81,100
106272,note_on,,,,,4,0,7,,,,,0,,83,96
106276,note_off,,,,,100,0,11,,,,,4,,64,100
106276,note_off,,,,,100,0,14,,,,,6,,64,100
106276,note_off,,,,,100,0,13,,,,,6,,68,100
106276,note_off,,,,,0,0,13,,,,,6,,71,100
106336,note_off,,,,,64,0,7,,,,,0,,83,100
106368,note_on,,,,,92,0,14,,,,,6,,52,100
106368,note_on,,,,,0,0,13,,,,,6,,68,100
106368,note_on,,,,,92,0,13,,,,,6,,59,100
106368,note_on,,,,,92,0,11,,,,,4,,52,70
106368,note_on,,,,,0,0,13,,,,,6,,64,100
106368,note_on,,,,,32,0,7,,,,,0,,74,97
106460,note_off,,,,,92,0,7,,,,,0,,74,100
106464,note_on,,,,,4,0,7,,,,,0,,80,97
106556,note_off,,,,,92,0,7,,,,,0,,80,100
106560,note_on,,,,,4,0,7,,,,,0,,81,98
106568,note_off,,,,,200,0,14,,,,,6,,52,100
106568,note_off,,,,,200,0,11,,,,,4,,52,100
106624,note_off,,,,,256,0,13,,,,,6,,59,100
106624,note_off,,,,,0,0,13,,,,,6,,64,100
106624,note_off,,,,,0,0,13,,,,,6,,68,100
106652,note_off,,,,,92,0,7,,,,,0,,81,100
106656,note_on,,,,,4,0,7,,,,,0,,83,99
106720,note_off,,,,,64,0,7,,,,,0,,83,100
106752,note_on,,,,,32,0,7,,,,,0,,74,99
106844,note_off,,,,,92,0,7,,,,,0,,74,100
106848,note_on,,,,,4,0,7,,,,,0,,80,100
106940,note_off,,,,,92,0,7,,,,,0,,80,100
106944,note_on,,,,,376,0,14,,,,,6,,64,100
106944,note_on,,,,,376,0,11,,,,,4,,64,70
106944,note_on,,,,,0,0,13,,,,,6,,71,100
106944,note_on,,,,,320,0,13,,,,,6,,68,100
106944,note_on,,,,,4,0,7,,,,,0,,81,100
107036,note_off,,,,,92,0,7,,,,,0,,81,100
107040,note_on,,,,,4,0,7,,,,,0,,83,101
107044,note_off,,,,,0,0,13,,,,,6,,71,100
107044,note_off,,,,,100,0,13,,,,,6,,68,100
107044,note_off,,,,,100,0,14,,,,,6,,64,100
107044,note_off,,,,,100,0,11,,,,,4,,64,100
107104,note_off,,,,,64,0,7,,,,,0,,83,100
107136,note_on,,,,,92,0,11,,,,,4,,52,70
107136,note_on,,,,,0,0,13,,,,,6,,64,100
107136,note_on,,,,,0,0,13,,,,,6,,68,100
107136,note_on,,,,,92,0,14,,,,,6,,52,100
107136,note_on,,,,,92,0,13,,,,,6,,59,100
107136,note_on,,,,,32,0,7,,,,,0,,80,102
107228,note_off,,,,,92,0,7,,,,,0,,80,100
107232,note_on,,,,,4,0,7,,,,,0,,77,102
107324,note_off,,,,,92,0,7,,,,,0,,77,100
107328,note_on,,,,,4,0,7,,,,,0,,76,103
107336,note_off,,,,,200,0,11,,,,,4,,52,100
107336,note_off,,,,,200,0,14,,,,,6,,52,100
107392,note_off,,,,,0,0,13,,,,,6,,64,100
107392,note_off,,,,,256,0,13,,,,,6,,59,100
107392,note_off,,,,,0,0,13,,,,,6,,68,100
107420,note_off,,,,,92,0,7,,,,,0,,76,100
107424,note_on,,,,,4,0,7,,,,,0,,74,104
107488,note_off,,,,,64,0,7,,,,,0,,74,100
107516,program_change,,,,,180,0,11,,,,,4,48,,
107520,note_on,,,,,4,0,11,,,,,4,,45,100
107520,note_on,,,,,184,0,14,,,,,6,,45,100
107520,note_on,,,,,13568,0,12,,,,,5,,33,100
107520,note_on,,,,,13568,0,10,,,,,3,,60,100
107520,note_on,,,,,0,0,15,,,,,7,,57,100
107520,note_on,,,,,0,0,13,,,,,6,,69,100
107520,note_on,,,,,0,0,13,,,,,6,,64,100
107520,note_on,,,,,128,0,13,,,,,6,,60,100
107520,note_on,,,,,13568,0,15,,,,,7,,60,100
107520,note_on,,,,,13568,0,16,,,,,7,,45,100
107520,note_on,,,,,32,0,7,,,,,0,,72,104
107620,note_off,,,,,100,0,11,,,,,4,,45,100
107620,note_off,,,,,100,0,7,,,,,0,,72,100
107620,note_off,,,,,100,0,14,,,,,6,,45,100
107620,note_off,,,,,100,0,12,,,,,5,,33,100
107620,note_off,,,,,100,0,16,,,,,7,,45,100
107620,note_off,,,,,100,0,10,,,,,3,,60,100
107712,note_on,,,,,92,0,14,,,,,6,,48,100
107712,note_on,,,,,92,0,16,,,,,7,,48,100
107712,note_on,,,,,92,0,11,,,,,4,,48,93
107712,note_on,,,,,92,0,10,,,,,3,,64,93
107712,note_on,,,,,92,0,12,,,,,5,,36,93
107712,note_on,,,,,13760,0,8,,,,,1,,64,93
107720,note_off,,,,,200,0,13,,,,,6,,60,100
107720,note_off,,,,,0,0,13,,,,,6,,64,100
107720,note_off,,,,,0,0,13,,,,,6,,69,100
107776,note_off,,,,,64,0,16,,,,,7,,48,100
107776,note_off,,,,,64,0,11,,,,,4,,48,100
107776,note_off,,,,,64,0,14,,,,,6,,48,100
107776,note_off,,,,,64,0,10,,,,,3,,64,100
107776,note_off,,,,,64,0,12,,,,,5,,36,100
107808,note_on,,,,,32,0,10,,,,,3,,62,93
107808,note_on,,,,,32,0,16,,,,,7,,47,100
107808,note_on,,,,,32,0,14,,,,,6,,47,100
107808,note_on,,,,,32,0,11,,,,,4,,47,93
107808,note_on,,,,,32,0,12,,,,,5,,35,93
107812,note_off,,,,,100,0,8,,,,,1,,64,100
107872,note_off,,,,,64,0,16,,,,,7,,47,100
107872,note_off,,,,,64,0,12,,,,,5,,35,100
107872,note_off,,,,,64,0,11,,,,,4,,47,100
107872,note_off,,,,,64,0,10,,,,,3,,62,100
107872,note_off,,,,,64,0,14,,,,,6,,47,100
107904,note_on,,,,,32,0,11,,,,,4,,45,93
107904,note_on,,,,,32,0,16,,,,,7,,45,100
107904,note_on,,,,,92,0,8,,,,,1,,69,93
107904,note_on,,,,,32,0,12,,,,,5,,33,93
107904,note_on,,,,,32,0,14,,,,,6,,45,100
107904,note_on,,,,,32,0,10,,,,,3,,60,93
108004,note_off,,,,,100,0,14,,,,,6,,45,100
108004,note_off,,,,,100,0,10,,,,,3,,60,100
108004,note_off,,,,,100,0,16,,,,,7,,45,100
108004,note_off,,,,,100,0,11,,,,,4,,45,100
108004,note_off,,,,,100,0,12,,,,,5,,33,100
108096,note_on,,,,,92,0,16,,,,,7,,43,100
108096,note_on,,,,,92,0,11,,,,,4,,43,94
108096,note_on,,,,,92,0,10,,,,,3,,59,94
108096,note_on,,,,,92,0,12,,,,,5,,43,94
108096,note_on,,,,,14144,0,9,,,,,2,,64,94
108096,note_on,,,,,92,0,14,,,,,6,,43,100
108160,note_off,,,,,64,0,11,,,,,4,,43,100
108160,note_off,,,,,64,0,10,,,,,3,,59,100
108160,note_off,,,,,64,0,12,,,,,5,,43,100
108160,note_off,,,,,64,0,14,,,,,6,,43,100
108160,note_off,,,,,64,0,16,,,,,7,,43,100
108192,note_on,,,,,32,0,16,,,,,7,,41,100
108192,note_on,,,,,32,0,12,,,,,5,,41,94
108192,note_on,,,,,32,0,10,,,,,3,,57,94
108192,note_on,,,,,32,0,14,,,,,6,,41,100
108192,note_on,,,,,32,0,11,,,,,4,,41,94
108196,note_off,,,,,100,0,9,,,,,2,,64,100
108208,note_off,,,,,688,0,15,,,,,7,,60,100
108208,note_off,,,,,0,0,15,,,,,7,,57,100
108256,note_off,,,,,64,0,12,,,,,5,,41,100
108256,note_off,,,,,64,0,16,,,,,7,,41,100
108256,note_off,,,,,64,0,11,,,,,4,,41,100
108256,note_off,,,,,64,0,14,,,,,6,,41,100
108256,note_off,,,,,64,0,10,,,,,3,,57,100
108288,note_on,,,,,32,0,12,,,,,5,,40,94
108288,note_on,,,,,32,0,11,,,,,4,,40,94
108288,note_on,,,,,0,0,15,,,,,7,,56,100
108288,note_on,,,,,568,0,13,,,,,6,,64,100
108288,note_on,,,,,0,0,13,,,,,6,,56,100
108288,note_on,,,,,32,0,14,,,,,6,,40,100
108288,note_on,,,,,92,0,9,,,,,2,,71,94
108288,note_on,,,,,0,0,13,,,,,6,,59,100
108288,note_on,,,,,32,0,16,,,,,7,,40,100
108288,note_on,,,,,80,0,15,,,,,7,,64,100
108288,note_on,,,,,0,0,15,,,,,7,,59,100
108288,note_on,,,,,32,0,10,,,,,3,,52,94
108388,note_off,,,,,100,0,10,,,,,3,,52,100
108416,note_off,,,,,512,0,8,,,,,1,,69,100
108480,note_on,,,,,64,0,8,,,,,1,,68,95
108480,note_on,,,,,92,0,10,,,,,3,,64,95
108544,note_off,,,,,64,0,8,,,,,1,,68,100
108576,note_on,,,,,32,0,8,,,,,1,,66,95
108580,note_off,,,,,100,0,10,,,,,3,,64,100
108640,note_off,,,,,64,0,8,,,,,1,,66,100
108672,note_on,,,,,32,0,8,,,,,1,,68,96
108672,note_on,,,,,92,0,10,,,,,3,,52,96
108772,note_off,,,,,100,0,10,,,,,3,,52,100
108772,note_off,,,,,100,0,8,,,,,1,,68,100
108864,note_on,,,,,92,0,10,,,,,3,,64,96
108864,note_on,,,,,92,0,8,,,,,1,,64,96
108900,note_off,,,,,0,0,13,,,,,6,,59,100
108900,note_off,,,,,0,0,13,,,,,6,,56,100
108900,note_off,,,,,612,0,13,,,,,6,,64,100
108964,note_off,,,,,100,0,8,,,,,1,,64,100
108964,note_off,,,,,100,0,10,,,,,3,,64,100
109000,note_off,,,,,0,0,15,,,,,7,,59,100
109000,note_off,,,,,712,0,15,,,,,7,,64,100
109000,note_off,,,,,0,0,15,,,,,7,,56,100
109056,note_on,,,,,0,0,13,,,,,6,,64,100
109056,note_on,,,,,0,0,13,,,,,6,,57,100
109056,note_on,,,,,156,0,13,,,,,6,,60,100
109056,note_on,,,,,0,0,15,,,,,7,,64,100
109056,note_on,,,,,0,0,15,,,,,7,,57,100
109056,note_on,,,,,56,0,15,,,,,7,,60,100
109056,note_on,,,,,92,0,8,,,,,1,,72,97
109056,note_on,,,,,92,0,10,,,,,3,,52,97
109184,note_off,,,,,896,0,14,,,,,6,,40,100
109184,note_off,,,,,896,0,12,,,,,5,,40,100
109184,note_off,,,,,896,0,11,,,,,4,,40,100
109184,note_off,,,,,896,0,16,,,,,7,,40,100
109184,note_off,,,,,896,0,9,,,,,2,,71,100
109248,note_on,,,,,64,0,12,,,,,5,,40,98
109248,note_on,,,,,64,0,16,,,,,7,,52,100
109248,note_on,,,,,64,0,11,,,,,4,,52,98
109248,note_on,,,,,64,0,9,,,,,2,,69,98
109248,note_on,,,,,64,0,14,,,,,6,,52,100
109312,note_off,,,,,64,0,9,,,,,2,,69,100
109344,note_on,,,,,32,0,9,,,,,2,,68,98
109348,note_off,,,,,100,0,12,,,,,5,,40,100
109348,note_off,,,,,100,0,11,,,,,4,,52,100
109348,note_off,,,,,100,0,16,,,,,7,,52,100
109348,note_off,,,,,100,0,14,,,,,6,,52,100
109408,note_off,,,,,64,0,9,,,,,2,,68,100
109440,note_on,,,,,32,0,9,,,,,2,,69,98
109440,note_on,,,,,92,0,11,,,,,4,,40,98
109440,note_on,,,,,92,0,14,,,,,6,,40,100
109440,note_on,,,,,92,0,12,,,,,5,,40,98
109440,note_on,,,,,92,0,16,,,,,7,,40,100
109540,note_off,,,,,100,0,12,,,,,5,,40,100
109540,note_off,,,,,100,0,11,,,,,4,,40,100
109540,note_off,,,,,100,0,14,,,,,6,,40,100
109540,note_off,,,,,100,0,16,,,,,7,,40,100
109540,note_off,,,,,100,0,9,,,,,2,,69,100
109632,note_on,,,,,92,0,14,,,,,6,,52,100
109632,note_on,,,,,92,0,12,,,,,5,,40,99
109632,note_on,,,,,92,0,9,,,,,2,,64,99
109632,note_on,,,,,92,0,11,,,,,4,,52,99
109632,note_on,,,,,92,0,16,,,,,7,,52,100
109668,note_off,,,,,0,0,13,,,,,6,,57,100
109668,note_off,,,,,612,0,13,,,,,6,,60,100
109668,note_off,,,,,0,0,13,,,,,6,,64,100
109732,note_off,,,,,100,0,11,,,,,4,,52,100
109732,note_off,,,,,100,0,9,,,,,2,,64,100
109732,note_off,,,,,100,0,12,,,,,5,,40,100
109732,note_off,,,,,100,0,14,,,,,6,,52,100
109732,note_off,,,,,100,0,16,,,,,7,,52,100
109768,note_off,,,,,0,0,15,,,,,7,,64,100
109768,note_off,,,,,0,0,15,,,,,7,,57,100
109768,note_off,,,,,712,0,15,,,,,7,,60,100
109824,note_on,,,,,56,0,15,,,,,7,,59,100
109824,note_on,,,,,92,0,14,,,,,6,,40,100
109824,note_on,,,,,92,0,9,,,,,2,,74,99
109824,note_on,,,,,92,0,11,,,,,4,,40,99
109824,note_on,,,,,92,0,12,,,,,5,,40,99
109824,note_on,,,,,156,0,13,,,,,6,,59,100
109824,note_on,,,,,0,0,15,,,,,7,,62,100
109824,note_on,,,,,0,0,13,,,,,6,,62,100
109824,note_on,,,,,0,0,13,,,,,6,,64,100
109824,note_on,,,,,92,0,16,,,,,7,,40,100
109824,note_on,,,,,0,0,15,,,,,7,,64,100
109952,note_off,,,,,896,0,10,,,,,3,,52,100
109952,note_off,,,,,896,0,8,,,,,1,,72,100
110016,note_on,,,,,64,0,8,,,,,1,,71,100
110016,note_on,,,,,64,0,10,,,,,3,,64,100
110080,note_off,,,,,64,0,8,,,,,1,,71,100
110112,note_on,,,,,32,0,8,,,,,1,,69,100
110116,note_off,,,,,100,0,10,,,,,3,,64,100
110176,note_off,,,,,64,0,8,,,,,1,,69,100
110208,note_on,,,,,32,0,8,,,,,1,,71,101
110208,note_on,,,,,92,0,10,,,,,3,,52,101
110308,note_off,,,,,100,0,8,,,,,1,,71,100
110308,note_off,,,,,100,0,10,,,,,3,,52,100
110400,note_on,,,,,92,0,8,,,,,1,,64,101
110400,note_on,,,,,92,0,10,,,,,3,,64,101
110436,note_off,,,,,0,0,13,,,,,6,,64,100
110436,note_off,,,,,0,0,13,,,,,6,,62,100
110436,note_off,,,,,612,0,13,,,,,6,,59,100
110500,note_off,,,,,100,0,10,,,,,3,,64,100
110500,note_off,,,,,100,0,8,,,,,1,,64,100
110536,note_off,,,,,0,0,15,,,,,7,,62,100
110536,note_off,,,,,0,0,15,,,,,7,,64,100
110536,note_off,,,,,712,0,15,,,,,7,,59,100
110592,note_on,,,,,92,0,8,,,,,1,,76,102
110592,note_on,,,,,0,0,13,,,,,6,,57,100
110592,note_on,,,,,56,0,15,,,,,7,,60,100
110592,note_on,,,,,0,0,15,,,,,7,,64,100
110592,note_on,,,,,0,0,15,,,,,7,,57,100
110592,note_on,,,,,92,0,10,,,,,3,,52,102
110592,note_on,,,,,156,0,13,,,,,6,,60,100
110592,note_on,,,,,0,0,13,,,,,6,,64,100
110720,note_off,,,,,896,0,12,,,,,5,,40,100
110720,note_off,,,,,896,0,9,,,,,2,,74,100
110720,note_off,,,,,896,0,11,,,,,4,,40,100
110720,note_off,,,,,896,0,14,,,,,6,,40,100
110720,note_off,,,,,896,0,16,,,,,7,,40,100
110784,note_on,,,,,64,0,16,,,,,7,,52,100
110784,note_on,,,,,64,0,11,,,,,4,,52,103
110784,note_on,,,,,64,0,12,,,,,5,,40,103
110784,note_on,,,,,64,0,14,,,,,6,,52,100
110784,note_on,,,,,64,0,9,,,,,2,,72,103
110848,note_off,,,,,64,0,9,,,,,2,,72,100
110880,note_on,,,,,32,0,9,,,,,2,,71,103
110884,note_off,,,,,100,0,14,,,,,6,,52,100
110884,note_off,,,,,100,0,12,,,,,5,,40,100
110884,note_off,,,,,100,0,16,,,,,7,,52,100
110884,note_off,,,,,100,0,11,,,,,4,,52,100
110944,note_off,,,,,64,0,9,,,,,2,,71,100
110976,note_on,,,,,92,0,12,,,,,5,,40,103
110976,note_on,,,,,92,0,16,,,,,7,,40,100
110976,note_on,,,,,32,0,9,,,,,2,,72,103
110976,note_on,,,,,92,0,11,,,,,4,,40,103
110976,note_on,,,,,92,0,14,,,,,6,,40,100
111076,note_off,,,,,100,0,12,,,,,5,,40,100
111076,note_off,,,,,100,0,16,,,,,7,,40,100
111076,note_off,,,,,100,0,9,,,,,2,,72,100
111076,note_off,,,,,100,0,11,,,,,4,,40,100
111076,note_off,,,,,100,0,14,,,,,6,,40,100
111168,note_on,,,,,92,0,12,,,,,5,,40,104
111168,note_on,,,,,92,0,16,,,,,7,,52,100
111168,note_on,,,,,92,0,9,,,,,2,,64,104
111168,note_on,,,,,92,0,11,,,,,4,,52,104
111168,note_on,,,,,92,0,14,,,,,6,,52,100
111204,note_off,,,,,0,0,13,,,,,6,,64,100
111204,note_off,,,,,0,0,13,,,,,6,,57,100
111204,note_off,,,,,612,0,13,,,,,6,,60,100
111268,note_off,,,,,100,0,9,,,,,2,,64,100
111268,note_off,,,,,100,0,12,,,,,5,,40,100
111268,note_off,,,,,100,0,11,,,,,4,,52,100
111268,note_off,,,,,100,0,14,,,,,6,,52,100
111268,note_off,,,,,100,0,16,,,,,7,,52,100
111304,note_off,,,,,0,0,15,,,,,7,,64,100
111304,note_off,,,,,0,0,15,,,,,7,,57,100
111304,note_off,,,,,712,0,15,,,,,7,,60,100
111360,note_on,,,,,56,0,15,,,,,7,,65,100
111360,note_on,,,,,0,0,15,,,,,7,,62,100
111360,note_on,,,,,0,0,15,,,,,7,,59,100
111360,note_on,,,,,92,0,9,,,,,2,,77,105
111360,note_on,,,,,92,0,16,,,,,7,,40,100
111360,note_on,,,,,92,0,12,,,,,5,,40,105
111360,note_on,,,,,0,0,13,,,,,6,,62,100
111360,note_on,,,,,0,0,13,,,,,6,,65,100
111360,note_on,,,,,156,0,13,,,,,6,,59,100
111360,note_on,,,,,92,0,14,,,,,6,,40,100
111360,note_on,,,,,92,0,11,,,,,4,,40,105
111488,note_off,,,,,896,0,10,,,,,3,,52,100
111488,note_off,,,,,896,0,8,,,,,1,,76,100
111552,note_on,,,,,64,0,10,,,,,3,,64,104
111552,note_on,,,,,64,0,8,,,,,1,,74,104
111616,note_off,,,,,64,0,8,,,,,1,,74,100
111648,note_on,,,,,32,0,8,,,,,1,,72,104
111652,note_off,,,,,100,0,10,,,,,3,,64,100
111712,note_off,,,,,64,0,8,,,,,1,,72,100
111744,note_on,,,,,92,0,10,,,,,3,,52,103
111744,note_on,,,,,32,0,8,,,,,1,,74,103
111820,note_off,,,,,460,0,9,,,,,2,,77,100
111844,note_off,,,,,100,0,10,,,,,3,,52,100
111936,note_on,,,,,92,0,10,,,,,3,,64,102
111936,note_on,,,,,116,0,9,,,,,2,,76,102
111972,note_off,,,,,0,0,13,,,,,6,,62,100
111972,note_off,,,,,0,0,13,,,,,6,,65,100
111972,note_off,,,,,612,0,13,,,,,6,,59,100
112000,note_off,,,,,64,0,9,,,,,2,,76,100
112032,note_on,,,,,32,0,9,,,,,2,,74,102
112036,note_off,,,,,100,0,10,,,,,3,,64,100
112072,note_off,,,,,0,0,15,,,,,7,,59,100
112072,note_off,,,,,712,0,15,,,,,7,,65,100
112072,note_off,,,,,0,0,15,,,,,7,,62,100
112096,note_off,,,,,64,0,9,,,,,2,,74,100
112128,note_on,,,,,0,0,13,,,,,6,,57,100
112128,note_on,,,,,56,0,15,,,,,7,,60,100
112128,note_on,,,,,0,0,15,,,,,7,,57,100
112128,note_on,,,,,32,0,9,,,,,2,,76,101
112128,note_on,,,,,0,0,15,,,,,7,,64,100
112128,note_on,,,,,0,0,13,,,,,6,,64,100
112128,note_on,,,,,156,0,13,,,,,6,,60,100
112128,note_on,,,,,92,0,10,,,,,3,,52,101
112204,note_off,,,,,460,0,8,,,,,1,,74,100
112256,note_off,,,,,896,0,12,,,,,5,,40,100
112256,note_off,,,,,896,0,11,,,,,4,,40,100
112256,note_off,,,,,896,0,16,,,,,7,,40,100
112256,note_off,,,,,896,0,14,,,,,6,,40,100
112320,note_on,,,,,64,0,12,,,,,5,,40,100
112320,note_on,,,,,64,0,14,,,,,6,,52,100
112320,note_on,,,,,116,0,8,,,,,1,,64,100
112320,note_on,,,,,64,0,11,,,,,4,,52,100
112320,note_on,,,,,64,0,16,,,,,7,,52,100
112420,note_off,,,,,100,0,16,,,,,7,,52,100
112420,note_off,,,,,100,0,12,,,,,5,,40,100
112420,note_off,,,,,100,0,14,,,,,6,,52,100
112420,note_off,,,,,100,0,8,,,,,1,,64,100
112420,note_off,,,,,100,0,11,,,,,4,,52,100
112512,note_on,,,,,92,0,8,,,,,1,,72,99
112512,note_on,,,,,92,0,11,,,,,4,,40,99
112512,note_on,,,,,92,0,16,,,,,7,,40,100
112512,note_on,,,,,92,0,14,,,,,6,,40,100
112512,note_on,,,,,92,0,12,,,,,5,,40,99
112588,note_off,,,,,460,0,9,,,,,2,,76,100
112612,note_off,,,,,100,0,16,,,,,7,,40,100
112612,note_off,,,,,100,0,11,,,,,4,,40,100
112612,note_off,,,,,100,0,14,,,,,6,,40,100
112612,note_off,,,,,100,0,12,,,,,5,,40,100
112704,note_on,,,,,92,0,16,,,,,7,,52,100
112704,note_on,,,,,92,0,14,,,,,6,,52,100
112704,note_on,,,,,92,0,11,,,,,4,,52,98
112704,note_on,,,,,92,0,12,,,,,5,,40,98
112704,note_on,,,,,116,0,9,,,,,2,,64,98
112740,note_off,,,,,612,0,13,,,,,6,,60,100
112740,note_off,,,,,0,0,13,,,,,6,,57,100
112740,note_off,,,,,0,0,13,,,,,6,,64,100
112804,note_off,,,,,100,0,16,,,,,7,,52,100
112804,note_off,,,,,100,0,9,,,,,2,,64,100
112804,note_off,,,,,100,0,11,,,,,4,,52,100
112804,note_off,,,,,100,0,12,,,,,5,,40,100
112804,note_off,,,,,100,0,14,,,,,6,,52,100
112840,note_off,,,,,0,0,15,,,,,7,,64,100
112840,note_off,,,,,0,0,15,,,,,7,,57,100
112840,note_off,,,,,712,0,15,,,,,7,,60,100
112896,note_on,,,,,92,0,12,,,,,5,,40,97
112896,note_on,,,,,156,0,13,,,,,6,,59,100
112896,note_on,,,,,0,0,13,,,,,6,,62,100
112896,note_on,,,,,92,0,11,,,,,4,,40,97
112896,note_on,,,,,92,0,14,,,,,6,,40,100
112896,note_on,,,,,0,0,15,,,,,7,,64,100
112896,note_on,,,,,92,0,9,,,,,2,,74,97
112896,note_on,,,,,92,0,16,,,,,7,,40,100
112896,note_on,,,,,0,0,15,,,,,7,,62,100
112896,note_on,,,,,56,0,15,,,,,7,,59,100
112896,note_on,,,,,0,0,13,,,,,6,,64,100
112972,note_off,,,,,460,0,8,,,,,1,,72,100
113024,note_off,,,,,896,0,10,,,,,3,,52,100
113088,note_on,,,,,116,0,8,,,,,1,,71,96
113088,note_on,,,,,64,0,10,,,,,3,,64,96
113152,note_off,,,,,64,0,8,,,,,1,,71,100
113184,note_on,,,,,32,0,8,,,,,1,,69,95
113188,note_off,,,,,100,0,10,,,,,3,,64,100
113248,note_off,,,,,64,0,8,,,,,1,,69,100
113280,note_on,,,,,92,0,10,,,,,3,,52,95
113280,note_on,,,,,32,0,8,,,,,1,,71,95
113356,note_off,,,,,460,0,9,,,,,2,,74,100
113380,note_off,,,,,100,0,10,,,,,3,,52,100
113472,note_on,,,,,116,0,9,,,,,2,,72,94
113472,note_on,,,,,92,0,10,,,,,3,,64,94
113508,note_off,,,,,0,0,13,,,,,6,,62,100
113508,note_off,,,,,612,0,13,,,,,6,,59,100
113508,note_off,,,,,0,0,13,,,,,6,,64,100
113536,note_off,,,,,64,0,9,,,,,2,,72,100
113568,note_on,,,,,32,0,9,,,,,2,,71,93
113572,note_off,,,,,100,0,10,,,,,3,,64,100
113608,note_off,,,,,712,0,15,,,,,7,,59,100
113608,note_off,,,,,0,0,15,,,,,7,,64,100
113608,note_off,,,,,0,0,15,,,,,7,,62,100
113632,note_off,,,,,64,0,9,,,,,2,,71,100
113664,note_on,,,,,0,0,13,,,,,6,,64,100
113664,note_on,,,,,156,0,13,,,,,6,,60,100
113664,note_on,,,,,0,0,15,,,,,7,,64,100
113664,note_on,,,,,0,0,15,,,,,7,,57,100
113664,note_on,,,,,92,0,10,,,,,3,,52,92
113664,note_on,,,,,32,0,9,,,,,2,,72,92
113664,note_on,,,,,56,0,15,,,,,7,,60,100
113664,note_on,,,,,0,0,13,,,,,6,,57,100
113740,note_off,,,,,460,0,8,,,,,1,,71,100
113792,note_off,,,,,896,0,16,,,,,7,,40,100
113792,note_off,,,,,896,0,14,,,,,6,,40,100
113792,note_off,,,,,896,0,12,,,,,5,,40,100
113792,note_off,,,,,896,0,11,,,,,4,,40,100
113856,note_on,,,,,64,0,14,,,,,6,,52,100
113856,note_on,,,,,64,0,11,,,,,4,,52,93
113856,note_on,,,,,64,0,16,,,,,7,,52,100
113856,note_on,,,,,116,0,8,,,,,1,,64,93
113856,note_on,,,,,64,0,12,,,,,5,,40,93
113956,note_off,,,,,100,0,16,,,,,7,,52,100
113956,note_off,,,,,100,0,14,,,,,6,,52,100
113956,note_off,,,,,100,0,11,,,,,4,,52,100
113956,note_off,,,,,100,0,8,,,,,1,,64,100
113956,note_off,,,,,100,0,12,,,,,5,,40,100
114048,note_on,,,,,92,0,14,,,,,6,,40,100
114048,note_on,,,,,92,0,8,,,,,1,,69,95
114048,note_on,,,,,92,0,16,,,,,7,,40,100
114048,note_on,,,,,92,0,12,,,,,5,,40,95
114048,note_on,,,,,92,0,11,,,,,4,,40,95
114124,note_off,,,,,460,0,9,,,,,2,,72,100
114148,note_off,,,,,100,0,12,,,,,5,,40,100
114148,note_off,,,,,100,0,14,,,,,6,,40,100
114148,note_off,,,,,100,0,16,,,,,7,,40,100
114148,note_off,,,,,100,0,11,,,,,4,,40,100
114240,note_on,,,,,116,0,9,,,,,2,,64,97
114240,note_on,,,,,92,0,16,,,,,7,,52,100
114240,note_on,,,,,92,0,11,,,,,4,,52,97
114240,note_on,,,,,92,0,12,,,,,5,,40,97
114240,note_on,,,,,92,0,14,,,,,6,,52,100
114276,note_off,,,,,0,0,13,,,,,6,,64,100
114276,note_off,,,,,612,0,13,,,,,6,,60,100
114276,note_off,,,,,0,0,13,,,,,6,,57,100
114340,note_off,,,,,100,0,11,,,,,4,,52,100
114340,note_off,,,,,100,0,16,,,,,7,,52,100
114340,note_off,,,,,100,0,14,,,,,6,,52,100
114340,note_off,,,,,100,0,12,,,,,5,,40,100
114340,note_off,,,,,100,0,9,,,,,2,,64,100
114376,note_off,,,,,0,0,15,,,,,7,,57,100
114376,note_off,,,,,712,0,15,,,,,7,,60,100
114376,note_off,,,,,0,0,15,,,,,7,,64,100
114432,note_on,,,,,56,0,15,,,,,7,,56,100
114432,note_on,,,,,0,0,15,,,,,7,,59,100
114432,note_on,,,,,0,0,15,,,,,7,,64,100
114432,note_on,,,,,92,0,9,,,,,2,,71,100
114432,note_on,,,,,92,0,12,,,,,5,,40,100
114432,note_on,,,,,0,0,13,,,,,6,,59,100
114432,note_on,,,,,0,0,13,,,,,6,,64,100
114432,note_on,,,,,92,0,11,,,,,4,,40,100
114432,note_on,,,,,92,0,14,,,,,6,,40,100
114432,note_on,,,,,156,0,13,,,,,6,,56,100
114432,note_on,,,,,92,0,16,,,,,7,,40,100
114508,note_off,,,,,460,0,8,,,,,1,,69,100
114560,note_off,,,,,896,0,10,,,,,3,,52,100
114624,note_on,,,,,64,0,10,,,,,3,,64,99
114624,note_on,,,,,116,0,8,,,,,1,,68,99
114688,note_off,,,,,64,0,8,,,,,1,,68,100
114720,note_on,,,,,32,0,8,,,,,1,,66,98
114724,note_off,,,,,100,0,10,,,,,3,,64,100
114784,note_off,,,,,64,0,8,,,,,1,,66,100
114816,note_on,,,,,92,0,10,,,,,3,,52,98
114816,note_on,,,,,32,0,8,,,,,1,,68,98
114892,note_off,,,,,460,0,9,,,,,2,,71,100
114916,note_off,,,,,100,0,10,,,,,3,,52,100
114916,note_off,,,,,100,0,8,,,,,1,,68,100
115008,note_on,,,,,92,0,8,,,,,1,,74,96
115008,note_on,,,,,92,0,10,,,,,3,,64,96
115008,note_on,,,,,116,0,9,,,,,2,,69,96
115072,note_off,,,,,64,0,9,,,,,2,,69,100
115104,note_on,,,,,32,0,9,,,,,2,,68,95
115108,note_off,,,,,100,0,10,,,,,3,,64,100
115108,note_off,,,,,100,0,8,,,,,1,,74,100
115120,note_off,,,,,688,0,11,,,,,4,,40,100
115120,note_off,,,,,0,0,15,,,,,7,,64,100
115120,note_off,,,,,688,0,16,,,,,7,,40,100
115120,note_off,,,,,688,0,14,,,,,6,,40,100
115120,note_off,,,,,688,0,15,,,,,7,,56,100
115120,note_off,,,,,0,0,15,,,,,7,,59,100
115120,note_off,,,,,688,0,12,,,,,5,,40,100
115120,note_off,,,,,688,0,13,,,,,6,,56,100
115120,note_off,,,,,0,0,13,,,,,6,,59,100
115120,note_off,,,,,0,0,13,,,,,6,,64,100
115168,note_off,,,,,64,0,9,,,,,2,,68,100
115200,note_on,,,,,92,0,10,,,,,3,,64,95
115200,note_on,,,,,80,0,12,,,,,5,,33,95
115200,note_on,,,,,7580,0,7,,,,,0,,72,95
115200,note_on,,,,,80,0,14,,,,,6,,45,100
115200,note_on,,,,,80,0,16,,,,,7,,45,100
115200,note_on,,,,,92,0,8,,,,,1,,72,95
115200,note_on,,,,,80,0,15,,,,,7,,60,100
115200,note_on,,,,,80,0,11,,,,,4,,45,95
115200,note_on,,,,,0,0,15,,,,,7,,57,100
115200,note_on,,,,,0,0,15,,,,,7,,64,100
115200,note_on,,,,,80,0,13,,,,,6,,60,100
115200,note_on,,,,,0,0,13,,,,,6,,57,100
115200,note_on,,,,,0,0,13,,,,,6,,64,100
115200,note_on,,,,,32,0,9,,,,,2,,69,95
115264,note_off,,,,,64,0,7,,,,,0,,72,100
115296,note_on,,,,,32,0,7,,,,,0,,76,100
115360,note_off,,,,,64,0,7,,,,,0,,76,100
115392,note_on,,,,,32,0,7,,,,,0,,81,100
115456,note_off,,,,,256,0,13,,,,,6,,60,100
115456,note_off,,,,,256,0,16,,,,,7,,45,100
115456,note_off,,,,,256,0,12,,,,,5,,33,100
115456,note_off,,,,,256,0,10,,,,,3,,64,100
115456,note_off,,,,,0,0,13,,,,,6,,64,100
115456,note_off,,,,,0,0,13,,,,,6,,57,100
115456,note_off,,,,,256,0,11,,,,,4,,45,100
115456,note_off,,,,,256,0,8,,,,,1,,72,100
115456,note_off,,,,,0,0,15,,,,,7,,57,100
115456,note_off,,,,,0,0,15,,,,,7,,64,100
115456,note_off,,,,,256,0,15,,,,,7,,60,100
115456,note_off,,,,,256,0,9,,,,,2,,69,100
115456,note_off,,,,,256,0,14,,,,,6,,45,100
115456,note_off,,,,,64,0,7,,,,,0,,81,100
115488,note_on,,,,,32,0,7,,,,,0,,76,100
115552,note_off,,,,,64,0,7,,,,,0,,76,100
115584,note_on,,,,,32,0,7,,,,,0,,72,100
115648,note_off,,,,,64,0,7,,,,,0,,72,100
115680,note_on,,,,,32,0,7,,,,,0,,76,100
115744,note_off,,,,,64,0,7,,,,,0,,76,100
115776,note_on,,,,,32,0,7,,,,,0,,81,100
115840,note_off,,,,,64,0,7,,,,,0,,81,100
115872,note_on,,,,,32,0,7,,,,,0,,76,100
115936,note_off,,,,,64,0,7,,,,,0,,76,100
115968,note_on,,,,,32,0,7,,,,,0,,69,100
116032,note_off,,,,,64,0,7,,,,,0,,69,100
116064,note_on,,,,,32,0,7,,,,,0,,76,100
116128,note_off,,,,,64,0,7,,,,,0,,76,100
116160,note_on,,,,,32,0,7,,,,,0,,81,100
116224,note_off,,,,,64,0,7,,,,,0,,81,100
116256,note_on,,,,,32,0,7,,,,,0,,76,100
116320,note_off,,,,,64,0,7,,,,,0,,76,100
116352,note_on,,,,,32,0,7,,,,,0,,72,100
116416,note_off,,,,,64,0,7,,,,,0,,72,100
116448,note_on,,,,,32,0,7,,,,,0,,76,100
116512,note_off,,,,,64,0,7,,,,,0,,76,100
116544,note_on,,,,,32,0,7,,,,,0,,81,100
116608,note_off,,,,,64,0,7,,,,,0,,81,100
116640,note_on,,,,,32,0,7,,,,,0,,76,100
116704,note_off,,,,,64,0,7,,,,,0,,76,100
116736,note_on,,,,,32,0,7,,,,,0,,69,100
116800,note_off,,,,,64,0,7,,,,,0,,69,100
116832,note_on,,,,,32,0,7,,,,,0,,76,100
116896,note_off,,,,,64,0,7,,,,,0,,76,100
116928,note_on,,,,,32,0,7,,,,,0,,81,100
116992,note_off,,,,,64,0,7,,,,,0,,81,100
117024,note_on,,,,,32,0,7,,,,,0,,76,100
117088,note_off,,,,,64,0,7,,,,,0,,76,100
117120,note_on,,,,,32,0,7,,,,,0,,72,100
117184,note_off,,,,,64,0,7,,,,,0,,72,100
117216,note_on,,,,,32,0,7,,,,,0,,76,100
117280,note_off,,,,,64,0,7,,,,,0,,76,100
117312,note_on,,,,,32,0,7,,,,,0,,81,100
117376,note_off,,,,,64,0,7,,,,,0,,81,100
117408,note_on,,,,,32,0,7,,,,,0,,76,100
117472,note_off,,,,,64,0,7,,,,,0,,76,100
117504,note_on,,,,,32,0,7,,,,,0,,69,100
117568,note_off,,,,,64,0,7,,,,,0,,69,100
117600,note_on,,,,,32,0,7,,,,,0,,64,100
117664,note_off,,,,,64,0,7,,,,,0,,64,100
117696,note_on,,,,,32,0,7,,,,,0,,60,100
117760,note_off,,,,,64,0,7,,,,,0,,60,100
117792,note_on,,,,,32,0,7,,,,,0,,64,100
117856,note_off,,,,,64,0,7,,,,,0,,64,100
117888,note_on,,,,,32,0,7,,,,,0,,57,100
117988,note_off,,,,,100,0,7,,,,,0,,57,100
118080,note_on,,,,,2624,0,12,,,,,5,,36,100
118080,note_on,,,,,2624,0,8,,,,,1,,60,100
118080,note_on,,,,,2624,0,13,,,,,6,,60,100
118080,note_on,,,,,2624,0,10,,,,,3,,60,100
118080,note_on,,,,,2624,0,9,,,,,2,,60,100
118080,note_on,,,,,2624,0,16,,,,,7,,48,100
118080,note_on,,,,,2624,0,11,,,,,4,,48,100
118080,note_on,,,,,2624,0,15,,,,,7,,60,100
118080,note_on,,,,,2624,0,14,,,,,6,,48,100
118180,note_off,,,,,100,0,11,,,,,4,,48,100
118180,note_off,,,,,100,0,12,,,,,5,,36,100
118180,note_off,,,,,100,0,10,,,,,3,,60,100
118180,note_off,,,,,100,0,14,,,,,6,,48,100
118180,note_off,,,,,100,0,8,,,,,1,,60,100
118180,note_off,,,,,100,0,16,,,,,7,,48,100
118180,note_off,,,,,100,0,13,,,,,6,,60,100
118180,note_off,,,,,100,0,9,,,,,2,,60,100
118180,note_off,,,,,100,0,15,,,,,7,,60,100
118272,note_on,,,,,92,0,9,,,,,2,,62,100
118272,note_on,,,,,92,0,13,,,,,6,,62,100
118272,note_on,,,,,92,0,14,,,,,6,,50,100
118272,note_on,,,,,92,0,10,,,,,3,,62,100
118272,note_on,,,,,92,0,16,,,,,7,,50,100
118272,note_on,,,,,92,0,11,,,,,4,,50,100
118272,note_on,,,,,92,0,12,,,,,5,,38,100
118272,note_on,,,,,92,0,15,,,,,7,,62,100
118272,note_on,,,,,92,0,8,,,,,1,,62,100
118372,note_off,,,,,100,0,10,,,,,3,,62,100
118372,note_off,,,,,100,0,12,,,,,5,,38,100
118372,note_off,,,,,100,0,14,,,,,6,,50,100
118372,note_off,,,,,100,0,13,,,,,6,,62,100
118372,note_off,,,,,100,0,16,,,,,7,,50,100
118372,note_off,,,,,100,0,11,,,,,4,,50,100
118372,note_off,,,,,100,0,15,,,,,7,,62,100
118372,note_off,,,,,100,0,8,,,,,1,,62,100
118372,note_off,,,,,100,0,9,,,,,2,,62,100
118464,note_on,,,,,92,0,14,,,,,6,,52,100
118464,note_on,,,,,92,0,12,,,,,5,,40,101
118464,note_on,,,,,92,0,16,,,,,7,,52,100
118464,note_on,,,,,92,0,9,,,,,2,,64,101
118464,note_on,,,,,92,0,13,,,,,6,,64,100
118464,note_on,,,,,92,0,10,,,,,3,,64,101
118464,note_on,,,,,92,0,8,,,,,1,,64,101
118464,note_on,,,,,92,0,11,,,,,4,,52,101
118464,note_on,,,,,92,0,15,,,,,7,,64,100
118564,note_off,,,,,100,0,16,,,,,7,,52,100
118564,note_off,,,,,100,0,10,,,,,3,,64,100
118564,note_off,,,,,100,0,8,,,,,1,,64,100
118564,note_off,,,,,100,0,14,,,,,6,,52,100
118564,note_off,,,,,100,0,13,,,,,6,,64,100
118564,note_off,,,,,100,0,11,,,,,4,,52,100
118564,note_off,,,,,100,0,15,,,,,7,,64,100
118564,note_off,,,,,100,0,12,,,,,5,,40,100
118564,note_off,,,,,100,0,9,,,,,2,,64,100
118656,note_on,,,,,92,0,16,,,,,7,,53,100
118656,note_on,,,,,92,0,8,,,,,1,,65,102
118656,note_on,,,,,92,0,9,,,,,2,,65,102
118656,note_on,,,,,92,0,10,,,,,3,,65,102
118656,note_on,,,,,92,0,13,,,,,6,,65,100
118656,note_on,,,,,92,0,15,,,,,7,,65,100
118656,note_on,,,,,92,0,11,,,,,4,,53,102
118656,note_on,,,,,92,0,12,,,,,5,,41,102
118656,note_on,,,,,92,0,14,,,,,6,,53,100
118756,note_off,,,,,100,0,15,,,,,7,,65,100
118756,note_off,,,,,100,0,10,,,,,3,,65,100
118756,note_off,,,,,100,0,12,,,,,5,,41,100
118756,note_off,,,,,100,0,9,,,,,2,,65,100
118756,note_off,,,,,100,0,13,,,,,6,,65,100
118756,note_off,,,,,100,0,14,,,,,6,,53,100
118756,note_off,,,,,100,0,16,,,,,7,,53,100
118756,note_off,,,,,100,0,11,,,,,4,,53,100
118756,note_off,,,,,100,0,8,,,,,1,,65,100
118848,note_on,,,,,92,0,16,,,,,7,,53,100
118848,note_on,,,,,92,0,10,,,,,3,,65,103
118848,note_on,,,,,92,0,13,,,,,6,,65,100
118848,note_on,,,,,92,0,12,,,,,5,,41,103
118848,note_on,,,,,92,0,11,,,,,4,,53,103
118848,note_on,,,,,92,0,15,,,,,7,,65,100
118848,note_on,,,,,92,0,8,,,,,1,,65,103
118848,note_on,,,,,92,0,14,,,,,6,,53,100
118848,note_on,,,,,92,0,9,,,,,2,,65,103
118948,note_off,,,,,100,0,14,,,,,6,,53,100
118948,note_off,,,,,100,0,15,,,,,7,,65,100
118948,note_off,,,,,100,0,8,,,,,1,,65,100
118948,note_off,,,,,100,0,13,,,,,6,,65,100
118948,note_off,,,,,100,0,10,,,,,3,,65,100
118948,note_off,,,,,100,0,16,,,,,7,,53,100
118948,note_off,,,,,100,0,9,,,,,2,,65,100
118948,note_off,,,,,100,0,11,,,,,4,,53,100
118948,note_off,,,,,100,0,12,,,,,5,,41,100
119040,note_on,,,,,92,0,15,,,,,7,,65,100
119040,note_on,,,,,92,0,16,,,,,7,,53,100
119040,note_on,,,,,92,0,12,,,,,5,,41,104
119040,note_on,,,,,92,0,10,,,,,3,,65,104
119040,note_on,,,,,92,0,9,,,,,2,,65,104
119040,note_on,,,,,92,0,11,,,,,4,,53,104
119040,note_on,,,,,92,0,14,,,,,6,,53,100
119040,note_on,,,,,92,0,8,,,,,1,,65,104
119040,note_on,,,,,92,0,13,,,,,6,,65,100
119168,note_off,,,,,128,0,11,,,,,4,,53,100
119168,note_off,,,,,128,0,9,,,,,2,,65,100
119168,note_off,,,,,128,0,10,,,,,3,,65,100
119168,note_off,,,,,128,0,15,,,,,7,,65,100
119168,note_off,,,,,128,0,13,,,,,6,,65,100
119168,note_off,,,,,128,0,8,,,,,1,,65,100
119168,note_off,,,,,128,0,12,,,,,5,,41,100
119168,note_off,,,,,128,0,16,,,,,7,,53,100
119168,note_off,,,,,128,0,14,,,,,6,,53,100
119232,note_on,,,,,64,0,14,,,,,6,,52,100
119232,note_on,,,,,64,0,11,,,,,4,,52,100
119232,note_on,,,,,64,0,9,,,,,2,,64,100
119232,note_on,,,,,64,0,12,,,,,5,,40,100
119232,note_on,,,,,64,0,8,,,,,1,,64,100
119232,note_on,,,,,64,0,15,,,,,7,,64,100
119232,note_on,,,,,64,0,13,,,,,6,,64,100
119232,note_on,,,,,64,0,16,,,,,7,,52,100
119232,note_on,,,,,64,0,10,,,,,3,,64,100
119296,note_off,,,,,64,0,14,,,,,6,,52,100
119296,note_off,,,,,64,0,15,,,,,7,,64,100
119296,note_off,,,,,64,0,13,,,,,6,,64,100
119296,note_off,,,,,64,0,16,,,,,7,,52,100
119296,note_off,,,,,64,0,9,,,,,2,,64,100
119296,note_off,,,,,64,0,8,,,,,1,,64,100
119296,note_off,,,,,64,0,12,,,,,5,,40,100
119296,note_off,,,,,64,0,10,,,,,3,,64,100
119296,note_off,,,,,64,0,11,,,,,4,,52,100
119328,note_on,,,,,32,0,8,,,,,1,,62,100
119328,note_on,,,,,32,0,12,,,,,5,,38,100
119328,note_on,,,,,32,0,11,,,,,4,,50,100
119328,note_on,,,,,32,0,14,,,,,6,,50,100
119328,note_on,,,,,32,0,15,,,,,7,,62,100
119328,note_on,,,,,32,0,16,,,,,7,,50,100
119328,note_on,,,,,32,0,9,,,,,2,,62,100
119328,note_on,,,,,32,0,13,,,,,6,,62,100
119328,note_on,,,,,32,0,10,,,,,3,,62,100
119392,note_off,,,,,64,0,15,,,,,7,,62,100
119392,note_off,,,,,64,0,8,,,,,1,,62,100
119392,note_off,,,,,64,0,16,,,,,7,,50,100
119392,note_off,,,,,64,0,10,,,,,3,,62,100
119392,note_off,,,,,64,0,9,,,,,2,,62,100
119392,note_off,,,,,64,0,14,,,,,6,,50,100
119392,note_off,,,,,64,0,11,,,,,4,,50,100
119392,note_off,,,,,64,0,12,,,,,5,,38,100
119392,note_off,,,,,64,0,13,,,,,6,,62,100
119424,note_on,,,,,32,0,15,,,,,7,,64,100
119424,note_on,,,,,32,0,14,,,,,6,,52,100
119424,note_on,,,,,32,0,11,,,,,4,,52,99
119424,note_on,,,,,32,0,10,,,,,3,,64,99
119424,note_on,,,,,32,0,12,,,,,5,,40,99
119424,note_on,,,,,32,0,13,,,,,6,,64,100
119424,note_on,,,,,32,0,8,,,,,1,,64,99
119424,note_on,,,,,32,0,16,,,,,7,,52,100
119424,note_on,,,,,32,0,9,,,,,2,,64,99
119524,note_off,,,,,100,0,11,,,,,4,,52,100
119524,note_off,,,,,100,0,14,,,,,6,,52,100
119524,note_off,,,,,100,0,8,,,,,1,,64,100
119524,note_off,,,,,100,0,13,,,,,6,,64,100
119524,note_off,,,,,100,0,16,,,,,7,,52,100
119524,note_off,,,,,100,0,10,,,,,3,,64,100
119524,note_off,,,,,100,0,15,,,,,7,,64,100
119524,note_off,,,,,100,0,9,,,,,2,,64,100
119524,note_off,,,,,100,0,12,,,,,5,,40,100
119616,note_on,,,,,92,0,9,,,,,2,,60,97
119616,note_on,,,,,92,0,14,,,,,6,,48,100
119616,note_on,,,,,92,0,16,,,,,7,,48,100
119616,note_on,,,,,92,0,10,,,,,3,,60,97
119616,note_on,,,,,92,0,15,,,,,7,,60,100
119616,note_on,,,,,92,0,13,,,,,6,,60,100
119616,note_on,,,,,92,0,8,,,,,1,,60,97
119616,note_on,,,,,92,0,11,,,,,4,,48,97
119616,note_on,,,,,92,0,12,,,,,5,,36,97
119716,note_off,,,,,100,0,10,,,,,3,,60,100
119716,note_off,,,,,100,0,12,,,,,5,,36,100
119716,note_off,,,,,100,0,11,,,,,4,,48,100
119716,note_off,,,,,100,0,13,,,,,6,,60,100
119716,note_off,,,,,100,0,8,,,,,1,,60,100
119716,note_off,,,,,100,0,16,,,,,7,,48,100
119716,note_off,,,,,100,0,9,,,,,2,,60,100
119716,note_off,,,,,100,0,14,,,,,6,,48,100
119716,note_off,,,,,100,0,15,,,,,7,,60,100
119808,note_on,,,,,92,0,9,,,,,2,,62,95
119808,note_on,,,,,92,0,15,,,,,7,,62,100
119808,note_on,,,,,92,0,12,,,,,5,,38,95
119808,note_on,,,,,92,0,10,,,,,3,,62,95
119808,note_on,,,,,92,0,14,,,,,6,,50,100
119808,note_on,,,,,92,0,16,,,,,7,,50,100
119808,note_on,,,,,92,0,8,,,,,1,,62,95
119808,note_on,,,,,92,0,13,,,,,6,,62,100
119808,note_on,,,,,92,0,11,,,,,4,,50,95
119908,note_off,,,,,100,0,10,,,,,3,,62,100
119908,note_off,,,,,100,0,9,,,,,2,,62,100
119908,note_off,,,,,100,0,8,,,,,1,,62,100
119908,note_off,,,,,100,0,11,,,,,4,,50,100
119908,note_off,,,,,100,0,13,,,,,6,,62,100
119908,note_off,,,,,100,0,12,,,,,5,,38,100
119908,note_off,,,,,100,0,15,,,,,7,,62,100
119908,note_off,,,,,100,0,16,,,,,7,,50,100
119908,note_off,,,,,100,0,14,,,,,6,,50,100
120000,note_on,,,,,92,0,10,,,,,3,,64,97
120000,note_on,,,,,92,0,15,,,,,7,,64,100
120000,note_on,,,,,92,0,8,,,,,1,,64,97
120000,note_on,,,,,92,0,14,,,,,6,,52,100
120000,note_on,,,,,92,0,9,,,,,2,,64,97
120000,note_on,,,,,92,0,16,,,,,7,,52,100
120000,note_on,,,,,92,0,12,,,,,5,,40,97
120000,note_on,,,,,92,0,11,,,,,4,,52,97
120000,note_on,,,,,92,0,13,,,,,6,,64,100
120100,note_off,,,,,100,0,13,,,,,6,,64,100
120100,note_off,,,,,100,0,12,,,,,5,,40,100
120100,note_off,,,,,100,0,16,,,,,7,,52,100
120100,note_off,,,,,100,0,15,,,,,7,,64,100
120100,note_off,,,,,100,0,14,,,,,6,,52,100
120100,note_off,,,,,100,0,11,,,,,4,,52,100
120100,note_off,,,,,100,0,10,,,,,3,,64,100
120100,note_off,,,,,100,0,8,,,,,1,,64,100
120100,note_off,,,,,100,0,9,,,,,2,,64,100
120192,note_on,,,,,92,0,15,,,,,7,,65,100
120192,note_on,,,,,92,0,13,,,,,6,,65,100
120192,note_on,,,,,92,0,14,,,,,6,,53,100
120192,note_on,,,,,92,0,12,,,,,5,,41,99
120192,note_on,,,,,92,0,9,,,,,2,,65,99
120192,note_on,,,,,92,0,8,,,,,1,,65,99
120192,note_on,,,,,92,0,16,,,,,7,,53,100
120192,note_on,,,,,92,0,10,,,,,3,,65,99
120192,note_on,,,,,92,0,11,,,,,4,,53,99
120292,note_off,,,,,100,0,12,,,,,5,,41,100
120292,note_off,,,,,100,0,14,,,,,6,,53,100
120292,note_off,,,,,100,0,13,,,,,6,,65,100
120292,note_off,,,,,100,0,15,,,,,7,,65,100
120292,note_off,,,,,100,0,11,,,,,4,,53,100
120292,note_off,,,,,100,0,9,,,,,2,,65,100
120292,note_off,,,,,100,0,8,,,,,1,,65,100
120292,note_off,,,,,100,0,10,,,,,3,,65,100
120292,note_off,,,,,100,0,16,,,,,7,,53,100
120384,note_on,,,,,92,0,9,,,,,2,,65,102
120384,note_on,,,,,92,0,13,,,,,6,,65,100
120384,note_on,,,,,92,0,8,,,,,1,,65,102
120384,note_on,,,,,92,0,15,,,,,7,,65,100
120384,note_on,,,,,92,0,12,,,,,5,,41,102
120384,note_on,,,,,92,0,14,,,,,6,,53,100
120384,note_on,,,,,92,0,10,,,,,3,,65,102
120384,note_on,,,,,92,0,16,,,,,7,,53,100
120384,note_on,,,,,92,0,11,,,,,4,,53,102
120484,note_off,,,,,100,0,13,,,,,6,,65,100
120484,note_off,,,,,100,0,12,,,,,5,,41,100
120484,note_off,,,,,100,0,10,,,,,3,,65,100
120484,note_off,,,,,100,0,11,,,,,4,,53,100
120484,note_off,,,,,100,0,16,,,,,7,,53,100
120484,note_off,,,,,100,0,14,,,,,6,,53,100
120484,note_off,,,,,100,0,15,,,,,7,,65,100
120484,note_off,,,,,100,0,8,,,,,1,,65,100
120484,note_off,,,,,100,0,9,,,,,2,,65,100
120576,note_on,,,,,92,0,11,,,,,4,,53,104
120576,note_on,,,,,92,0,10,,,,,3,,65,104
120576,note_on,,,,,92,0,16,,,,,7,,53,100
120576,note_on,,,,,92,0,9,,,,,2,,65,104
120576,note_on,,,,,92,0,14,,,,,6,,53,100
120576,note_on,,,,,92,0,15,,,,,7,,65,100
120576,note_on,,,,,92,0,12,,,,,5,,41,104
120576,note_on,,,,,92,0,8,,,,,1,,65,104
120576,note_on,,,,,92,0,13,,,,,6,,65,100
120704,note_off,,,,,128,0,9,,,,,2,,65,100
120704,note_off,,,,,128,0,14,,,,,6,,53,100
120704,note_off,,,,,128,0,16,,,,,7,,53,100
120704,note_off,,,,,128,0,10,,,,,3,,65,100
120704,note_off,,,,,128,0,13,,,,,6,,65,100
120704,note_off,,,,,128,0,12,,,,,5,,41,100
120704,note_off,,,,,128,0,15,,,,,7,,65,100
120704,note_off,,,,,128,0,8,,,,,1,,65,100
120704,note_off,,,,,128,0,11,,,,,4,,53,100
120768,note_on,,,,,64,0,14,,,,,6,,52,100
120768,note_on,,,,,64,0,16,,,,,7,,52,100
120768,note_on,,,,,64,0,10,,,,,3,,64,100
120768,note_on,,,,,64,0,12,,,,,5,,40,100
120768,note_on,,,,,64,0,11,,,,,4,,52,100
120768,note_on,,,,,64,0,9,,,,,2,,64,100
120768,note_on,,,,,64,0,8,,,,,1,,64,100
120768,note_on,,,,,64,0,13,,,,,6,,64,100
120768,note_on,,,,,64,0,15,,,,,7,,64,100
120832,note_off,,,,,64,0,14,,,,,6,,52,100
120832,note_off,,,,,64,0,10,,,,,3,,64,100
120832,note_off,,,,,64,0,9,,,,,2,,64,100
120832,note_off,,,,,64,0,16,,,,,7,,52,100
120832,note_off,,,,,64,0,13,,,,,6,,64,100
120832,note_off,,,,,64,0,15,,,,,7,,64,100
120832,note_off,,,,,64,0,11,,,,,4,,52,100
120832,note_off,,,,,64,0,8,,,,,1,,64,100
120832,note_off,,,,,64,0,12,,,,,5,,40,100
120864,note_on,,,,,32,0,12,,,,,5,,38,100
120864,note_on,,,,,32,0,11,,,,,4,,50,100
120864,note_on,,,,,32,0,15,,,,,7,,62,100
120864,note_on,,,,,32,0,13,,,,,6,,62,100
120864,note_on,,,,,32,0,14,,,,,6,,50,100
120864,note_on,,,,,32,0,16,,,,,7,,50,100
120864,note_on,,,,,32,0,8,,,,,1,,62,100
120864,note_on,,,,,32,0,10,,,,,3,,62,100
120864,note_on,,,,,32,0,9,,,,,2,,62,100
120928,note_off,,,,,64,0,11,,,,,4,,50,100
120928,note_off,,,,,64,0,8,,,,,1,,62,100
120928,note_off,,,,,64,0,14,,,,,6,,50,100
120928,note_off,,,,,64,0,16,,,,,7,,50,100
120928,note_off,,,,,64,0,10,,,,,3,,62,100
120928,note_off,,,,,64,0,15,,,,,7,,62,100
120928,note_off,,,,,64,0,13,,,,,6,,62,100
120928,note_off,,,,,64,0,12,,,,,5,,38,100
120928,note_off,,,,,64,0,9,,,,,2,,62,100
120960,note_on,,,,,32,0,10,,,,,3,,64,100
120960,note_on,,,,,32,0,14,,,,,6,,52,100
120960,note_on,,,,,32,0,13,,,,,6,,64,100
120960,note_on,,,,,32,0,16,,,,,7,,52,100
120960,note_on,,,,,32,0,9,,,,,2,,64,100
120960,note_on,,,,,32,0,12,,,,,5,,40,100
120960,note_on,,,,,32,0,8,,,,,1,,64,100
120960,note_on,,,,,32,0,11,,,,,4,,52,100
120960,note_on,,,,,32,0,15,,,,,7,,64,100
121060,note_off,,,,,100,0,10,,,,,3,,64,100
121060,note_off,,,,,100,0,16,,,,,7,,52,100
121060,note_off,,,,,100,0,11,,,,,4,,52,100
121060,note_off,,,,,100,0,13,,,,,6,,64,100
121060,note_off,,,,,100,0,8,,,,,1,,64,100
121060,note_off,,,,,100,0,14,,,,,6,,52,100
121060,note_off,,,,,100,0,15,,,,,7,,64,100
121060,note_off,,,,,100,0,12,,,,,5,,40,100
121060,note_off,,,,,100,0,9,,,,,2,,64,100
121152,note_on,,,,,92,0,10,,,,,3,,60,100
121152,note_on,,,,,92,0,16,,,,,7,,48,100
121152,note_on,,,,,92,0,13,,,,,6,,60,100
121152,note_on,,,,,92,0,12,,,,,5,,36,100
121152,note_on,,,,,92,0,8,,,,,1,,60,100
121152,note_on,,,,,92,0,15,,,,,7,,60,100
121152,note_on,,,,,92,0,11,,,,,4,,48,100
121152,note_on,,,,,92,0,14,,,,,6,,48,100
121152,note_on,,,,,92,0,9,,,,,2,,60,100
121252,note_off,,,,,100,0,15,,,,,7,,60,100
121252,note_off,,,,,100,0,12,,,,,5,,36,100
121252,note_off,,,,,100,0,16,,,,,7,,48,100
121252,note_off,,,,,100,0,10,,,,,3,,60,100
121252,note_off,,,,,100,0,13,,,,,6,,60,100
121252,note_off,,,,,100,0,9,,,,,2,,60,100
121252,note_off,,,,,100,0,11,,,,,4,,48,100
121252,note_off,,,,,100,0,8,,,,,1,,60,100
121252,note_off,,,,,100,0,14,,,,,6,,48,100
121344,note_on,,,,,92,0,8,,,,,1,,62,100
121344,note_on,,,,,92,0,9,,,,,2,,62,100
121344,note_on,,,,,92,0,14,,,,,6,,50,100
121344,note_on,,,,,92,0,15,,,,,7,,62,100
121344,note_on,,,,,92,0,16,,,,,7,,50,100
121344,note_on,,,,,92,0,12,,,,,5,,38,100
121344,note_on,,,,,92,0,11,,,,,4,,50,100
121344,note_on,,,,,92,0,10,,,,,3,,62,100
121344,note_on,,,,,92,0,13,,,,,6,,62,100
121424,note_off,,,,,80,0,8,,,,,1,,62,100
121424,note_off,,,,,80,0,11,,,,,4,,50,100
121424,note_off,,,,,80,0,16,,,,,7,,50,100
121424,note_off,,,,,80,0,10,,,,,3,,62,100
121424,note_off,,,,,80,0,14,,,,,6,,50,100
121424,note_off,,,,,80,0,13,,,,,6,,62,100
121424,note_off,,,,,80,0,15,,,,,7,,62,100
121424,note_off,,,,,80,0,9,,,,,2,,62,100
121424,note_off,,,,,80,0,12,,,,,5,,38,100
121536,note_on,,,,,112,0,13,,,,,6,,59,100
121536,note_on,,,,,112,0,9,,,,,2,,59,99
121536,note_on,,,,,112,0,14,,,,,6,,47,100
121536,note_on,,,,,112,0,16,,,,,7,,47,100
121536,note_on,,,,,112,0,12,,,,,5,,35,99
121536,note_on,,,,,112,0,8,,,,,1,,59,99
121536,note_on,,,,,112,0,11,,,,,4,,47,99
121536,note_on,,,,,112,0,10,,,,,3,,59,99
121536,note_on,,,,,112,0,15,,,,,7,,59,100
121616,note_off,,,,,80,0,14,,,,,6,,47,100
121616,note_off,,,,,80,0,15,,,,,7,,59,100
121616,note_off,,,,,80,0,13,,,,,6,,59,100
121616,note_off,,,,,80,0,12,,,,,5,,35,100
121616,note_off,,,,,80,0,11,,,,,4,,47,100
121616,note_off,,,,,80,0,9,,,,,2,,59,100
121616,note_off,,,,,80,0,16,,,,,7,,47,100
121616,note_off,,,,,80,0,8,,,,,1,,59,100
121616,note_off,,,,,80,0,10,,,,,3,,59,100
121728,note_on,,,,,112,0,12,,,,,5,,40,98
121728,note_on,,,,,112,0,14,,,,,6,,52,100
121728,note_on,,,,,112,0,15,,,,,7,,64,100
121728,note_on,,,,,112,0,13,,,,,6,,64,100
121728,note_on,,,,,112,0,8,,,,,1,,64,98
121728,note_on,,,,,112,0,16,,,,,7,,52,100
121728,note_on,,,,,112,0,10,,,,,3,,64,98
121728,note_on,,,,,112,0,9,,,,,2,,64,98
121728,note_on,,,,,112,0,11,,,,,4,,52,98
121808,note_off,,,,,80,0,10,,,,,3,,64,100
121808,note_off,,,,,80,0,13,,,,,6,,64,100
121808,note_off,,,,,80,0,15,,,,,7,,64,100
121808,note_off,,,,,80,0,8,,,,,1,,64,100
121808,note_off,,,,,80,0,16,,,,,7,,52,100
121808,note_off,,,,,80,0,12,,,,,5,,40,100
121808,note_off,,,,,80,0,14,,,,,6,,52,100
121808,note_off,,,,,80,0,9,,,,,2,,64,100
121808,note_off,,,,,80,0,11,,,,,4,,52,100
121920,note_on,,,,,112,0,9,,,,,2,,64,97
121920,note_on,,,,,112,0,11,,,,,4,,52,97
121920,note_on,,,,,112,0,12,,,,,5,,40,97
121920,note_on,,,,,112,0,10,,,,,3,,64,97
121920,note_on,,,,,112,0,15,,,,,7,,64,100
121920,note_on,,,,,112,0,8,,,,,1,,64,97
121920,note_on,,,,,112,0,16,,,,,7,,52,100
121920,note_on,,,,,112,0,13,,,,,6,,64,100
121920,note_on,,,,,112,0,14,,,,,6,,52,100
122000,note_off,,,,,80,0,9,,,,,2,,64,100
122000,note_off,,,,,80,0,10,,,,,3,,64,100
122000,note_off,,,,,80,0,8,,,,,1,,64,100
122000,note_off,,,,,80,0,15,,,,,7,,64,100
122000,note_off,,,,,80,0,12,,,,,5,,40,100
122000,note_off,,,,,80,0,13,,,,,6,,64,100
122000,note_off,,,,,80,0,14,,,,,6,,52,100
122000,note_off,,,,,80,0,11,,,,,4,,52,100
122000,note_off,,,,,80,0,16,,,,,7,,52,100
122112,note_on,,,,,112,0,14,,,,,6,,45,100
122112,note_on,,,,,112,0,11,,,,,4,,45,96
122112,note_on,,,,,112,0,16,,,,,7,,45,100
122112,note_on,,,,,112,0,13,,,,,6,,57,100
122112,note_on,,,,,112,0,8,,,,,1,,57,96
122112,note_on,,,,,112,0,15,,,,,7,,57,100
122112,note_on,,,,,112,0,9,,,,,2,,57,96
122112,note_on,,,,,4124,0,7,,,,,0,,57,96
122112,note_on,,,,,112,0,12,,,,,5,,33,96
122112,note_on,,,,,112,0,10,,,,,3,,57,96
122176,note_off,,,,,64,0,7,,,,,0,,57,100
122208,note_on,,,,,32,0,7,,,,,0,,76,75
122272,note_off,,,,,64,0,7,,,,,0,,76,100
122304,note_on,,,,,32,0,7,,,,,0,,81,75
122368,note_off,,,,,256,0,15,,,,,7,,57,100
122368,note_off,,,,,64,0,7,,,,,0,,81,100
122368,note_off,,,,,256,0,16,,,,,7,,45,100
122368,note_off,,,,,256,0,13,,,,,6,,57,100
122368,note_off,,,,,256,0,11,,,,,4,,45,100
122368,note_off,,,,,256,0,8,,,,,1,,57,100
122368,note_off,,,,,256,0,9,,,,,2,,57,100
122368,note_off,,,,,256,0,12,,,,,5,,33,100
122368,note_off,,,,,256,0,14,,,,,6,,45,100
122368,note_off,,,,,256,0,10,,,,,3,,57,100
122400,note_on,,,,,32,0,7,,,,,0,,76,75
122464,note_off,,,,,64,0,7,,,,,0,,76,100
122496,note_on,,,,,32,0,7,,,,,0,,72,75
122560,note_off,,,,,64,0,7,,,,,0,,72,100
122592,note_on,,,,,32,0,7,,,,,0,,76,75
122656,note_off,,,,,64,0,7,,,,,0,,76,100
122688,note_on,,,,,32,0,7,,,,,0,,81,75
122752,note_off,,,,,64,0,7,,,,,0,,81,100
122784,note_on,,,,,32,0,7,,,,,0,,76,75
122848,note_off,,,,,64,0,7,,,,,0,,76,100
122880,note_on,,,,,32,0,7,,,,,0,,69,75
122944,note_off,,,,,64,0,7,,,,,0,,69,100
122976,note_on,,,,,32,0,7,,,,,0,,76,75
123040,note_off,,,,,64,0,7,,,,,0,,76,100
123072,note_on,,,,,32,0,7,,,,,0,,81,75
123136,note_off,,,,,64,0,7,,,,,0,,81,100
123168,note_on,,,,,32,0,7,,,,,0,,76,75
123232,note_off,,,,,64,0,7,,,,,0,,76,100
123264,note_on,,,,,32,0,7,,,,,0,,72,75
123328,note_off,,,,,64,0,7,,,,,0,,72,100
123360,note_on,,,,,32,0,7,,,,,0,,76,75
123424,note_off,,,,,64,0,7,,,,,0,,76,100
123456,note_on,,,,,32,0,7,,,,,0,,81,75
123520,note_off,,,,,64,0,7,,,,,0,,81,100
123552,note_on,,,,,32,0,7,,,,,0,,76,75
123616,note_off,,,,,64,0,7,,,,,0,,76,100
123648,note_on,,,,,32,0,7,,,,,0,,69,75
123712,note_off,,,,,64,0,7,,,,,0,,69,100
123744,note_on,,,,,32,0,7,,,,,0,,76,75
123808,note_off,,,,,64,0,7,,,,,0,,76,100
123840,note_on,,,,,32,0,7,,,,,0,,81,75
123904,note_off,,,,,64,0,7,,,,,0,,81,100
123936,note_on,,,,,32,0,7,,,,,0,,76,75
124000,note_off,,,,,64,0,7,,,,,0,,76,100
124032,note_on,,,,,32,0,7,,,,,0,,72,75
124096,note_off,,,,,64,0,7,,,,,0,,72,100
124128,note_on,,,,,32,0,7,,,,,0,,76,75
124192,note_off,,,,,64,0,7,,,,,0,,76,100
124224,note_on,,,,,32,0,7,,,,,0,,81,75
124288,note_off,,,,,64,0,7,,,,,0,,81,100
124320,note_on,,,,,32,0,7,,,,,0,,76,75
124384,note_off,,,,,64,0,7,,,,,0,,76,100
124416,note_on,,,,,32,0,7,,,,,0,,69,75
124480,note_off,,,,,64,0,7,,,,,0,,69,100
124512,note_on,,,,,32,0,7,,,,,0,,64,75
124576,note_off,,,,,64,0,7,,,,,0,,64,100
124608,note_on,,,,,32,0,7,,,,,0,,60,75
124672,note_off,,,,,64,0,7,,,,,0,,60,100
124704,note_on,,,,,32,0,7,,,,,0,,64,75
124768,note_off,,,,,64,0,7,,,,,0,,64,100
124800,note_on,,,,,32,0,7,,,,,0,,57,75
124900,note_off,,,,,100,0,7,,,,,0,,57,100
124900,end_of_track,,,,,0,1,7,,,,,,,,
124992,note_on,,,,,2624,0,12,,,,,5,,36,70
124992,note_on,,,,,2624,0,14,,,,,6,,48,100
124992,note_on,,,,,2624,0,15,,,,,7,,60,100
124992,note_on,,,,,2624,0,9,,,,,2,,60,70
124992,note_on,,,,,2624,0,8,,,,,1,,60,70
124992,note_on,,,,,2624,0,13,,,,,6,,60,100
124992,note_on,,,,,2624,0,11,,,,,4,,48,70
124992,note_on,,,,,2624,0,16,,,,,7,,48,100
124992,note_on,,,,,2624,0,10,,,,,3,,60,70
125092,note_off,,,,,100,0,15,,,,,7,,60,100
125092,note_off,,,,,100,0,8,,,,,1,,60,100
125092,note_off,,,,,100,0,12,,,,,5,,36,100
125092,note_off,,,,,100,0,10,,,,,3,,60,100
125092,note_off,,,,,100,0,14,,,,,6,,48,100
125092,note_off,,,,,100,0,11,,,,,4,,48,100
125092,note_off,,,,,100,0,13,,,,,6,,60,100
125092,note_off,,,,,100,0,16,,,,,7,,48,100
125092,note_off,,,,,100,0,9,,,,,2,,60,100
125184,note_on,,,,,92,0,11,,,,,4,,50,70
125184,note_on,,,,,92,0,14,,,,,6,,50,100
125184,note_on,,,,,92,0,9,,,,,2,,62,70
125184,note_on,,,,,92,0,13,,,,,6,,62,100
125184,note_on,,,,,92,0,8,,,,,1,,62,70
125184,note_on,,,,,92,0,12,,,,,5,,38,70
125184,note_on,,,,,92,0,16,,,,,7,,50,100
125184,note_on,,,,,92,0,10,,,,,3,,62,70
125184,note_on,,,,,92,0,15,,,,,7,,62,100
125284,note_off,,,,,100,0,9,,,,,2,,62,100
125284,note_off,,,,,100,0,14,,,,,6,,50,100
125284,note_off,,,,,100,0,12,,,,,5,,38,100
125284,note_off,,,,,100,0,8,,,,,1,,62,100
125284,note_off,,,,,100,0,11,,,,,4,,50,100
125284,note_off,,,,,100,0,15,,,,,7,,62,100
125284,note_off,,,,,100,0,13,,,,,6,,62,100
125284,note_off,,,,,100,0,16,,,,,7,,50,100
125284,note_off,,,,,100,0,10,,,,,3,,62,100
125376,note_on,,,,,92,0,14,,,,,6,,52,100
125376,note_on,,,,,92,0,15,,,,,7,,64,100
125376,note_on,,,,,92,0,8,,,,,1,,64,71
125376,note_on,,,,,92,0,12,,,,,5,,40,71
125376,note_on,,,,,92,0,10,,,,,3,,64,71
125376,note_on,,,,,92,0,9,,,,,2,,64,71
125376,note_on,,,,,92,0,13,,,,,6,,64,100
125376,note_on,,,,,92,0,11,,,,,4,,52,71
125376,note_on,,,,,92,0,16,,,,,7,,52,100
125476,note_off,,,,,100,0,11,,,,,4,,52,100
125476,note_off,,,,,100,0,10,,,,,3,,64,100
125476,note_off,,,,,100,0,8,,,,,1,,64,100
125476,note_off,,,,,100,0,13,,,,,6,,64,100
125476,note_off,,,,,100,0,9,,,,,2,,64,100
125476,note_off,,,,,100,0,12,,,,,5,,40,100
125476,note_off,,,,,100,0,14,,,,,6,,52,100
125476,note_off,,,,,100,0,15,,,,,7,,64,100
125476,note_off,,,,,100,0,16,,,,,7,,52,100
125568,note_on,,,,,92,0,8,,,,,1,,65,72
125568,note_on,,,,,92,0,10,,,,,3,,65,72
125568,note_on,,,,,92,0,15,,,,,7,,65,100
125568,note_on,,,,,92,0,16,,,,,7,,53,100
125568,note_on,,,,,92,0,12,,,,,5,,41,72
125568,note_on,,,,,92,0,14,,,,,6,,53,100
125568,note_on,,,,,92,0,9,,,,,2,,65,72
125568,note_on,,,,,92,0,13,,,,,6,,65,100
125568,note_on,,,,,92,0,11,,,,,4,,53,72
125668,note_off,,,,,100,0,12,,,,,5,,41,100
125668,note_off,,,,,100,0,14,,,,,6,,53,100
125668,note_off,,,,,100,0,8,,,,,1,,65,100
125668,note_off,,,,,100,0,16,,,,,7,,53,100
125668,note_off,,,,,100,0,15,,,,,7,,65,100
125668,note_off,,,,,100,0,13,,,,,6,,65,100
125668,note_off,,,,,100,0,11,,,,,4,,53,100
125668,note_off,,,,,100,0,10,,,,,3,,65,100
125668,note_off,,,,,100,0,9,,,,,2,,65,100
125760,note_on,,,,,92,0,15,,,,,7,,65,100
125760,note_on,,,,,92,0,12,,,,,5,,41,73
125760,note_on,,,,,92,0,8,,,,,1,,65,73
125760,note_on,,,,,92,0,14,,,,,6,,53,100
125760,note_on,,,,,92,0,16,,,,,7,,53,100
125760,note_on,,,,,92,0,13,,,,,6,,65,100
125760,note_on,,,,,92,0,10,,,,,3,,65,73
125760,note_on,,,,,92,0,11,,,,,4,,53,73
125760,note_on,,,,,92,0,9,,,,,2,,65,73
125860,note_off,,,,,100,0,12,,,,,5,,41,100
125860,note_off,,,,,100,0,16,,,,,7,,53,100
125860,note_off,,,,,100,0,9,,,,,2,,65,100
125860,note_off,,,,,100,0,11,,,,,4,,53,100
125860,note_off,,,,,100,0,15,,,,,7,,65,100
125860,note_off,,,,,100,0,10,,,,,3,,65,100
125860,note_off,,,,,100,0,13,,,,,6,,65,100
125860,note_off,,,,,100,0,14,,,,,6,,53,100
125860,note_off,,,,,100,0,8,,,,,1,,65,100
125952,note_on,,,,,92,0,9,,,,,2,,65,74
125952,note_on,,,,,92,0,15,,,,,7,,65,100
125952,note_on,,,,,92,0,10,,,,,3,,65,74
125952,note_on,,,,,92,0,12,,,,,5,,41,74
125952,note_on,,,,,92,0,8,,,,,1,,65,74
125952,note_on,,,,,92,0,11,,,,,4,,53,74
125952,note_on,,,,,92,0,14,,,,,6,,53,100
125952,note_on,,,,,92,0,13,,,,,6,,65,100
125952,note_on,,,,,92,0,16,,,,,7,,53,100
126080,note_off,,,,,128,0,11,,,,,4,,53,100
126080,note_off,,,,,128,0,15,,,,,7,,65,100
126080,note_off,,,,,128,0,14,,,,,6,,53,100
126080,note_off,,,,,128,0,9,,,,,2,,65,100
126080,note_off,,,,,128,0,13,,,,,6,,65,100
126080,note_off,,,,,128,0,10,,,,,3,,65,100
126080,note_off,,,,,128,0,8,,,,,1,,65,100
126080,note_off,,,,,128,0,12,,,,,5,,41,100
126080,note_off,,,,,128,0,16,,,,,7,,53,100
126144,note_on,,,,,64,0,9,,,,,2,,64,70
126144,note_on,,,,,64,0,14,,,,,6,,52,100
126144,note_on,,,,,64,0,10,,,,,3,,64,70
126144,note_on,,,,,64,0,12,,,,,5,,40,70
126144,note_on,,,,,64,0,16,,,,,7,,52,100
126144,note_on,,,,,64,0,11,,,,,4,,52,70
126144,note_on,,,,,64,0,13,,,,,6,,64,100
126144,note_on,,,,,64,0,8,,,,,1,,64,70
126144,note_on,,,,,64,0,15,,,,,7,,64,100
126208,note_off,,,,,64,0,16,,,,,7,,52,100
126208,note_off,,,,,64,0,11,,,,,4,,52,100
126208,note_off,,,,,64,0,9,,,,,2,,64,100
126208,note_off,,,,,64,0,13,,,,,6,,64,100
126208,note_off,,,,,64,0,14,,,,,6,,52,100
126208,note_off,,,,,64,0,10,,,,,3,,64,100
126208,note_off,,,,,64,0,15,,,,,7,,64,100
126208,note_off,,,,,64,0,8,,,,,1,,64,100
126208,note_off,,,,,64,0,12,,,,,5,,40,100
126240,note_on,,,,,32,0,14,,,,,6,,50,100
126240,note_on,,,,,32,0,10,,,,,3,,62,70
126240,note_on,,,,,32,0,8,,,,,1,,62,70
126240,note_on,,,,,32,0,15,,,,,7,,62,100
126240,note_on,,,,,32,0,16,,,,,7,,50,100
126240,note_on,,,,,32,0,11,,,,,4,,50,70
126240,note_on,,,,,32,0,13,,,,,6,,62,100
126240,note_on,,,,,32,0,12,,,,,5,,38,70
126240,note_on,,,,,32,0,9,,,,,2,,62,70
126304,note_off,,,,,64,0,11,,,,,4,,50,100
126304,note_off,,,,,64,0,15,,,,,7,,62,100
126304,note_off,,,,,64,0,16,,,,,7,,50,100
126304,note_off,,,,,64,0,10,,,,,3,,62,100
126304,note_off,,,,,64,0,12,,,,,5,,38,100
126304,note_off,,,,,64,0,8,,,,,1,,62,100
126304,note_off,,,,,64,0,9,,,,,2,,62,100
126304,note_off,,,,,64,0,14,,,,,6,,50,100
126304,note_off,,,,,64,0,13,,,,,6,,62,100
126336,note_on,,,,,32,0,12,,,,,5,,40,69
126336,note_on,,,,,32,0,10,,,,,3,,64,69
126336,note_on,,,,,32,0,9,,,,,2,,64,69
126336,note_on,,,,,32,0,16,,,,,7,,52,100
126336,note_on,,,,,32,0,11,,,,,4,,52,69
126336,note_on,,,,,32,0,15,,,,,7,,64,100
126336,note_on,,,,,32,0,13,,,,,6,,64,100
126336,note_on,,,,,32,0,14,,,,,6,,52,100
126336,note_on,,,,,32,0,8,,,,,1,,64,69
126436,note_off,,,,,100,0,14,,,,,6,,52,100
126436,note_off,,,,,100,0,11,,,,,4,,52,100
126436,note_off,,,,,100,0,15,,,,,7,,64,100
126436,note_off,,,,,100,0,13,,,,,6,,64,100
126436,note_off,,,,,100,0,16,,,,,7,,52,100
126436,note_off,,,,,100,0,10,,,,,3,,64,100
126436,note_off,,,,,100,0,12,,,,,5,,40,100
126436,note_off,,,,,100,0,8,,,,,1,,64,100
126436,note_off,,,,,100,0,9,,,,,2,,64,100
126528,note_on,,,,,92,0,15,,,,,7,,60,100
126528,note_on,,,,,92,0,10,,,,,3,,60,67
126528,note_on,,,,,92,0,12,,,,,5,,36,67
126528,note_on,,,,,92,0,14,,,,,6,,48,100
126528,note_on,,,,,92,0,9,,,,,2,,60,67
126528,note_on,,,,,92,0,16,,,,,7,,48,100
126528,note_on,,,,,92,0,13,,,,,6,,60,100
126528,note_on,,,,,92,0,8,,,,,1,,60,67
126528,note_on,,,,,92,0,11,,,,,4,,48,67
126628,note_off,,,,,100,0,14,,,,,6,,48,100
126628,note_off,,,,,100,0,12,,,,,5,,36,100
126628,note_off,,,,,100,0,16,,,,,7,,48,100
126628,note_off,,,,,100,0,15,,,,,7,,60,100
126628,note_off,,,,,100,0,10,,,,,3,,60,100
126628,note_off,,,,,100,0,9,,,,,2,,60,100
126628,note_off,,,,,100,0,13,,,,,6,,60,100
126628,note_off,,,,,100,0,8,,,,,1,,60,100
126628,note_off,,,,,100,0,11,,,,,4,,48,100
126720,note_on,,,,,92,0,10,,,,,3,,62,65
126720,note_on,,,,,92,0,9,,,,,2,,62,65
126720,note_on,,,,,92,0,11,,,,,4,,50,65
126720,note_on,,,,,92,0,15,,,,,7,,62,100
126720,set_tempo,,,,,125184,1,0,,500000,,,,,,
126720,note_on,,,,,92,0,13,,,,,6,,62,100
126720,note_on,,,,,92,0,8,,,,,1,,62,65
126720,note_on,,,,,92,0,12,,,,,5,,38,65
126720,note_on,,,,,92,0,14,,,,,6,,50,100
126720,note_on,,,,,92,0,16,,,,,7,,50,100
126820,note_off,,,,,100,0,11,,,,,4,,50,100
126820,note_off,,,,,100,0,14,,,,,6,,50,100
126820,note_off,,,,,100,0,15,,,,,7,,62,100
126820,note_off,,,,,100,0,12,,,,,5,,38,100
126820,note_off,,,,,100,0,13,,,,,6,,62,100
126820,note_off,,,,,100,0,9,,,,,2,,62,100
126820,note_off,,,,,100,0,10,,,,,3,,62,100
126820,note_off,,,,,100,0,16,,,,,7,,50,100
126820,note_off,,,,,100,0,8,,,,,1,,62,100
126912,note_on,,,,,92,0,10,,,,,3,,64,67
126912,note_on,,,,,92,0,14,,,,,6,,52,100
126912,note_on,,,,,92,0,13,,,,,6,,64,100
126912,note_on,,,,,92,0,11,,,,,4,,52,67
126912,note_on,,,,,92,0,12,,,,,5,,40,67
126912,note_on,,,,,92,0,16,,,,,7,,52,100
126912,note_on,,,,,92,0,9,,,,,2,,64,67
126912,note_on,,,,,92,0,8,,,,,1,,64,67
126912,note_on,,,,,92,0,15,,,,,7,,64,100
127012,note_off,,,,,100,0,8,,,,,1,,64,100
127012,note_off,,,,,100,0,11,,,,,4,,52,100
127012,note_off,,,,,100,0,13,,,,,6,,64,100
127012,note_off,,,,,100,0,16,,,,,7,,52,100
127012,note_off,,,,,100,0,9,,,,,2,,64,100
127012,note_off,,,,,100,0,10,,,,,3,,64,100
127012,note_off,,,,,100,0,14,,,,,6,,52,100
127012,note_off,,,,,100,0,12,,,,,5,,40,100
127012,note_off,,,,,100,0,15,,,,,7,,64,100
127104,note_on,,,,,92,0,13,,,,,6,,65,100
127104,note_on,,,,,92,0,14,,,,,6,,53,100
127104,note_on,,,,,92,0,8,,,,,1,,65,69
127104,note_on,,,,,92,0,10,,,,,3,,65,69
127104,note_on,,,,,92,0,11,,,,,4,,53,69
127104,note_on,,,,,92,0,16,,,,,7,,53,100
127104,note_on,,,,,92,0,12,,,,,5,,41,69
127104,note_on,,,,,92,0,15,,,,,7,,65,100
127104,set_tempo,,,,,384,1,0,,504201,,,,,,
127104,note_on,,,,,92,0,9,,,,,2,,65,69
127204,note_off,,,,,100,0,11,,,,,4,,53,100
127204,note_off,,,,,100,0,8,,,,,1,,65,100
127204,note_off,,,,,100,0,16,,,,,7,,53,100
127204,note_off,,,,,100,0,10,,,,,3,,65,100
127204,note_off,,,,,100,0,12,,,,,5,,41,100
127204,note_off,,,,,100,0,13,,,,,6,,65,100
127204,note_off,,,,,100,0,14,,,,,6,,53,100
127204,note_off,,,,,100,0,15,,,,,7,,65,100
127204,note_off,,,,,100,0,9,,,,,2,,65,100
127296,note_on,,,,,92,0,13,,,,,6,,65,100
127296,note_on,,,,,92,0,15,,,,,7,,65,100
127296,note_on,,,,,92,0,8,,,,,1,,65,72
127296,note_on,,,,,92,0,16,,,,,7,,53,100
127296,note_on,,,,,92,0,11,,,,,4,,53,72
127296,note_on,,,,,92,0,9,,,,,2,,65,72
127296,note_on,,,,,92,0,12,,,,,5,,41,72
127296,note_on,,,,,92,0,14,,,,,6,,53,100
127296,note_on,,,,,92,0,10,,,,,3,,65,72
127396,note_off,,,,,100,0,13,,,,,6,,65,100
127396,note_off,,,,,100,0,11,,,,,4,,53,100
127396,note_off,,,,,100,0,12,,,,,5,,41,100
127396,note_off,,,,,100,0,9,,,,,2,,65,100
127396,note_off,,,,,100,0,8,,,,,1,,65,100
127396,note_off,,,,,100,0,15,,,,,7,,65,100
127396,note_off,,,,,100,0,16,,,,,7,,53,100
127396,note_off,,,,,100,0,14,,,,,6,,53,100
127396,note_off,,,,,100,0,10,,,,,3,,65,100
127488,note_on,,,,,92,0,16,,,,,7,,53,100
127488,note_on,,,,,92,0,8,,,,,1,,65,74
127488,note_on,,,,,92,0,11,,,,,4,,53,74
127488,note_on,,,,,92,0,12,,,,,5,,41,74
127488,note_on,,,,,92,0,9,,,,,2,,65,74
127488,note_on,,,,,92,0,13,,,,,6,,65,100
127488,set_tempo,,,,,384,1,0,,508474,,,,,,
127488,note_on,,,,,92,0,14,,,,,6,,53,100
127488,note_on,,,,,92,0,15,,,,,7,,65,100
127488,note_on,,,,,92,0,10,,,,,3,,65,74
127616,note_off,,,,,128,0,8,,,,,1,,65,100
127616,note_off,,,,,128,0,12,,,,,5,,41,100
127616,note_off,,,,,128,0,13,,,,,6,,65,100
127616,note_off,,,,,128,0,9,,,,,2,,65,100
127616,note_off,,,,,128,0,16,,,,,7,,53,100
127616,note_off,,,,,128,0,14,,,,,6,,53,100
127616,note_off,,,,,128,0,10,,,,,3,,65,100
127616,note_off,,,,,128,0,15,,,,,7,,65,100
127616,note_off,,,,,128,0,11,,,,,4,,53,100
127680,note_on,,,,,64,0,10,,,,,3,,64,70
127680,note_on,,,,,64,0,8,,,,,1,,64,70
127680,note_on,,,,,64,0,13,,,,,6,,64,100
127680,note_on,,,,,64,0,9,,,,,2,,64,70
127680,set_tempo,,,,,192,1,0,,512820,,,,,,
127680,note_on,,,,,64,0,11,,,,,4,,52,70
127680,note_on,,,,,64,0,15,,,,,7,,64,100
127680,note_on,,,,,64,0,16,,,,,7,,52,100
127680,note_on,,,,,64,0,14,,,,,6,,52,100
127680,note_on,,,,,64,0,12,,,,,5,,40,70
127744,note_off,,,,,64,0,11,,,,,4,,52,100
127744,note_off,,,,,64,0,10,,,,,3,,64,100
127744,note_off,,,,,64,0,15,,,,,7,,64,100
127744,note_off,,,,,64,0,12,,,,,5,,40,100
127744,note_off,,,,,64,0,13,,,,,6,,64,100
127744,note_off,,,,,64,0,14,,,,,6,,52,100
127744,note_off,,,,,64,0,16,,,,,7,,52,100
127744,note_off,,,,,64,0,9,,,,,2,,64,100
127744,note_off,,,,,64,0,8,,,,,1,,64,100
127776,note_on,,,,,32,0,11,,,,,4,,50,70
127776,note_on,,,,,32,0,12,,,,,5,,38,70
127776,note_on,,,,,32,0,13,,,,,6,,62,100
127776,note_on,,,,,32,0,14,,,,,6,,50,100
127776,note_on,,,,,32,0,10,,,,,3,,62,70
127776,note_on,,,,,32,0,15,,,,,7,,62,100
127776,note_on,,,,,32,0,9,,,,,2,,62,70
127776,note_on,,,,,32,0,16,,,,,7,,50,100
127776,note_on,,,,,32,0,8,,,,,1,,62,70
127840,note_off,,,,,64,0,13,,,,,6,,62,100
127840,note_off,,,,,64,0,9,,,,,2,,62,100
127840,note_off,,,,,64,0,12,,,,,5,,38,100
127840,note_off,,,,,64,0,15,,,,,7,,62,100
127840,note_off,,,,,64,0,11,,,,,4,,50,100
127840,note_off,,,,,64,0,14,,,,,6,,50,100
127840,note_off,,,,,64,0,16,,,,,7,,50,100
127840,note_off,,,,,64,0,8,,,,,1,,62,100
127840,note_off,,,,,64,0,10,,,,,3,,62,100
127872,note_on,,,,,32,0,14,,,,,6,,52,100
127872,note_on,,,,,32,0,10,,,,,3,,64,70
127872,note_on,,,,,32,0,15,,,,,7,,64,100
127872,set_tempo,,,,,192,1,0,,517241,,,,,,
127872,note_on,,,,,32,0,9,,,,,2,,64,70
127872,note_on,,,,,32,0,16,,,,,7,,52,100
127872,note_on,,,,,32,0,13,,,,,6,,64,100
127872,note_on,,,,,32,0,12,,,,,5,,40,70
127872,note_on,,,,,32,0,8,,,,,1,,64,70
127872,note_on,,,,,32,0,11,,,,,4,,52,70
127972,note_off,,,,,100,0,8,,,,,1,,64,100
127972,note_off,,,,,100,0,12,,,,,5,,40,100
127972,note_off,,,,,100,0,15,,,,,7,,64,100
127972,note_off,,,,,100,0,14,,,,,6,,52,100
127972,note_off,,,,,100,0,16,,,,,7,,52,100
127972,note_off,,,,,100,0,11,,,,,4,,52,100
127972,note_off,,,,,100,0,9,,,,,2,,64,100
127972,note_off,,,,,100,0,10,,,,,3,,64,100
127972,note_off,,,,,100,0,13,,,,,6,,64,100
128064,note_on,,,,,92,0,10,,,,,3,,60,70
128064,note_on,,,,,92,0,15,,,,,7,,60,100
128064,note_on,,,,,92,0,9,,,,,2,,60,70
128064,note_on,,,,,92,0,13,,,,,6,,60,100
128064,note_on,,,,,92,0,8,,,,,1,,60,70
128064,note_on,,,,,92,0,11,,,,,4,,48,70
128064,note_on,,,,,92,0,12,,,,,5,,36,70
128064,note_on,,,,,92,0,14,,,,,6,,48,100
128064,set_tempo,,,,,192,1,0,,521739,,,,,,
128064,note_on,,,,,92,0,16,,,,,7,,48,100
128164,note_off,,,,,100,0,8,,,,,1,,60,100
128164,note_off,,,,,100,0,15,,,,,7,,60,100
128164,note_off,,,,,100,0,9,,,,,2,,60,100
128164,note_off,,,,,100,0,14,,,,,6,,48,100
128164,note_off,,,,,100,0,12,,,,,5,,36,100
128164,note_off,,,,,100,0,13,,,,,6,,60,100
128164,note_off,,,,,100,0,10,,,,,3,,60,100
128164,note_off,,,,,100,0,11,,,,,4,,48,100
128164,note_off,,,,,100,0,16,,,,,7,,48,100
128256,note_on,,,,,92,0,14,,,,,6,,50,100
128256,note_on,,,,,92,0,15,,,,,7,,62,100
128256,note_on,,,,,92,0,9,,,,,2,,62,70
128256,note_on,,,,,92,0,8,,,,,1,,62,70
128256,note_on,,,,,92,0,11,,,,,4,,50,70
128256,note_on,,,,,92,0,16,,,,,7,,50,100
128256,set_tempo,,,,,192,1,0,,526315,,,,,,
128256,note_on,,,,,92,0,10,,,,,3,,62,70
128256,note_on,,,,,92,0,13,,,,,6,,62,100
128256,note_on,,,,,92,0,12,,,,,5,,38,70
128304,set_tempo,,,,,48,1,0,,521739,,,,,,
128336,note_off,,,,,80,0,8,,,,,1,,62,100
128336,note_off,,,,,80,0,9,,,,,2,,62,100
128336,note_off,,,,,80,0,10,,,,,3,,62,100
128336,note_off,,,,,80,0,13,,,,,6,,62,100
128336,note_off,,,,,80,0,11,,,,,4,,50,100
128336,note_off,,,,,80,0,16,,,,,7,,50,100
128336,note_off,,,,,80,0,12,,,,,5,,38,100
128336,note_off,,,,,80,0,14,,,,,6,,50,100
128336,note_off,,,,,80,0,15,,,,,7,,62,100
128352,set_tempo,,,,,48,1,0,,526315,,,,,,
128400,set_tempo,,,,,48,1,0,,530973,,,,,,
128448,set_tempo,,,,,48,1,0,,535714,,,,,,
128448,note_on,,,,,112,0,8,,,,,1,,59,69
128448,note_on,,,,,112,0,13,,,,,6,,59,100
128448,note_on,,,,,112,0,15,,,,,7,,59,100
128448,note_on,,,,,112,0,14,,,,,6,,47,100
128448,note_on,,,,,112,0,16,,,,,7,,47,100
128448,note_on,,,,,112,0,9,,,,,2,,59,69
128448,note_on,,,,,112,0,10,,,,,3,,59,69
128448,note_on,,,,,112,0,12,,,,,5,,35,69
128448,note_on,,,,,112,0,11,,,,,4,,47,69
128472,set_tempo,,,,,24,1,0,,540540,,,,,,
128496,set_tempo,,,,,24,1,0,,545454,,,,,,
128520,set_tempo,,,,,24,1,0,,550458,,,,,,
128528,note_off,,,,,80,0,14,,,,,6,,47,100
128528,note_off,,,,,80,0,16,,,,,7,,47,100
128528,note_off,,,,,80,0,8,,,,,1,,59,100
128528,note_off,,,,,80,0,13,,,,,6,,59,100
128528,note_off,,,,,80,0,9,,,,,2,,59,100
128528,note_off,,,,,80,0,10,,,,,3,,59,100
128528,note_off,,,,,80,0,12,,,,,5,,35,100
128528,note_off,,,,,80,0,11,,,,,4,,47,100
128528,note_off,,,,,80,0,15,,,,,7,,59,100
128544,set_tempo,,,,,24,1,0,,555555,,,,,,
128568,set_tempo,,,,,24,1,0,,560747,,,,,,
128592,set_tempo,,,,,24,1,0,,566037,,,,,,
128616,set_tempo,,,,,24,1,0,,571428,,,,,,
128640,note_on,,,,,112,0,14,,,,,6,,52,100
128640,note_on,,,,,112,0,11,,,,,4,,52,68
128640,note_on,,,,,112,0,16,,,,,7,,52,100
128640,note_on,,,,,112,0,8,,,,,1,,64,68
128640,note_on,,,,,112,0,13,,,,,6,,64,100
128640,note_on,,,,,112,0,15,,,,,7,,64,100
128640,note_on,,,,,112,0,9,,,,,2,,64,68
128640,note_on,,,,,112,0,12,,,,,5,,40,68
128640,note_on,,,,,112,0,10,,,,,3,,64,68
128640,set_tempo,,,,,24,1,0,,576923,,,,,,
128652,set_tempo,,,,,12,1,0,,582524,,,,,,
128664,set_tempo,,,,,12,1,0,,588235,,,,,,
128676,set_tempo,,,,,12,1,0,,594059,,,,,,
128688,set_tempo,,,,,12,1,0,,600000,,,,,,
128700,set_tempo,,,,,12,1,0,,606060,,,,,,
128712,set_tempo,,,,,12,1,0,,612244,,,,,,
128720,note_off,,,,,80,0,8,,,,,1,,64,100
128720,note_off,,,,,80,0,10,,,,,3,,64,100
128720,note_off,,,,,80,0,9,,,,,2,,64,100
128720,note_off,,,,,80,0,14,,,,,6,,52,100
128720,note_off,,,,,80,0,16,,,,,7,,52,100
128720,note_off,,,,,80,0,11,,,,,4,,52,100
128720,note_off,,,,,80,0,12,,,,,5,,40,100
128720,note_off,,,,,80,0,13,,,,,6,,64,100
128720,note_off,,,,,80,0,15,,,,,7,,64,100
128724,set_tempo,,,,,12,1,0,,618556,,,,,,
128736,set_tempo,,,,,12,1,0,,625000,,,,,,
128748,set_tempo,,,,,12,1,0,,631578,,,,,,
128760,set_tempo,,,,,12,1,0,,638297,,,,,,
128772,set_tempo,,,,,12,1,0,,645161,,,,,,
128784,set_tempo,,,,,12,1,0,,652173,,,,,,
128796,set_tempo,,,,,12,1,0,,659340,,,,,,
128808,set_tempo,,,,,12,1,0,,666666,,,,,,
128820,set_tempo,,,,,12,1,0,,674157,,,,,,
128832,note_on,,,,,112,0,11,,,,,4,,52,66
128832,set_tempo,,,,,12,1,0,,681818,,,,,,
128832,note_on,,,,,112,0,16,,,,,7,,52,100
128832,note_on,,,,,112,0,15,,,,,7,,64,100
128832,note_on,,,,,112,0,13,,,,,6,,64,100
128832,note_on,,,,,112,0,14,,,,,6,,52,100
128832,note_on,,,,,112,0,10,,,,,3,,64,66
128832,note_on,,,,,112,0,8,,,,,1,,64,66
128832,note_on,,,,,112,0,9,,,,,2,,64,66
128832,note_on,,,,,112,0,12,,,,,5,,40,66
128836,set_tempo,,,,,4,1,0,,689655,,,,,,
128844,set_tempo,,,,,8,1,0,,697674,,,,,,
128848,set_tempo,,,,,4,1,0,,705882,,,,,,
128856,set_tempo,,,,,8,1,0,,714285,,,,,,
128860,set_tempo,,,,,4,1,0,,722891,,,,,,
128868,set_tempo,,,,,8,1,0,,731707,,,,,,
128872,set_tempo,,,,,4,1,0,,740740,,,,,,
128880,set_tempo,,,,,8,1,0,,750000,,,,,,
128884,set_tempo,,,,,4,1,0,,759493,,,,,,
128892,set_tempo,,,,,8,1,0,,769230,,,,,,
128896,set_tempo,,,,,4,1,0,,779220,,,,,,
128904,set_tempo,,,,,8,1,0,,789473,,,,,,
128908,set_tempo,,,,,4,1,0,,800000,,,,,,
128912,note_off,,,,,80,0,14,,,,,6,,52,100
128912,note_off,,,,,80,0,15,,,,,7,,64,100
128912,note_off,,,,,80,0,16,,,,,7,,52,100
128912,note_off,,,,,80,0,12,,,,,5,,40,100
128912,note_off,,,,,80,0,10,,,,,3,,64,100
128912,note_off,,,,,80,0,9,,,,,2,,64,100
128912,note_off,,,,,80,0,8,,,,,1,,64,100
128912,note_off,,,,,80,0,13,,,,,6,,64,100
128912,note_off,,,,,80,0,11,,,,,4,,52,100
128916,set_tempo,,,,,8,1,0,,810810,,,,,,
128920,set_tempo,,,,,4,1,0,,821917,,,,,,
128928,set_tempo,,,,,8,1,0,,833333,,,,,,
128932,set_tempo,,,,,4,1,0,,845070,,,,,,
128940,set_tempo,,,,,8,1,0,,857142,,,,,,
128944,set_tempo,,,,,4,1,0,,869565,,,,,,
128952,set_tempo,,,,,8,1,0,,882352,,,,,,
128956,set_tempo,,,,,4,1,0,,895522,,,,,,
128964,set_tempo,,,,,8,1,0,,909090,,,,,,
128968,set_tempo,,,,,4,1,0,,923076,,,,,,
128976,set_tempo,,,,,8,1,0,,937500,,,,,,
128980,set_tempo,,,,,4,1,0,,952380,,,,,,
128988,set_tempo,,,,,8,1,0,,967741,,,,,,
128992,set_tempo,,,,,4,1,0,,983606,,,,,,
129000,set_tempo,,,,,8,1,0,,1000000,,,,,,
129004,set_tempo,,,,,4,1,0,,1016949,,,,,,
129012,set_tempo,,,,,8,1,0,,1034482,,,,,,
129016,set_tempo,,,,,4,1,0,,1052631,,,,,,
129024,set_tempo,,,,,8,1,0,,1071428,,,,,,
129024,end_of_track,,,,,0,1,0,,,,,,,,
129024,note_on,,,,,112,0,12,,,,,5,,33,65
129024,note_on,,,,,112,0,13,,,,,6,,57,100
129024,note_on,,,,,112,0,15,,,,,7,,57,100
129024,note_on,,,,,112,0,11,,,,,4,,45,65
129024,note_on,,,,,112,0,16,,,,,7,,45,100
129024,note_on,,,,,112,0,14,,,,,6,,45,100
129024,note_on,,,,,112,0,9,,,,,2,,57,65
129024,note_on,,,,,112,0,10,,,,,3,,57,65
129024,note_on,,,,,112,0,8,,,,,1,,57,65
130404,note_off,,,,,1380,0,13,,,,,6,,57,100
130404,note_off,,,,,1380,0,15,,,,,7,,57,100
130404,end_of_track,,,,,0,1,12,,,,,,,,
130404,note_off,,,,,1380,0,12,,,,,5,,33,100
130404,note_off,,,,,1380,0,16,,,,,7,,45,100
130404,end_of_track,,,,,0,1,11,,,,,,,,
130404,note_off,,,,,1380,0,11,,,,,4,,45,100
130404,end_of_track,,,,,0,1,10,,,,,,,,
130404,note_off,,,,,1380,0,10,,,,,3,,57,100
130404,note_off,,,,,1380,0,14,,,,,6,,45,100
130404,end_of_track,,,,,0,1,14,,,,,,,,
130404,end_of_track,,,,,0,1,13,,,,,,,,
130404,end_of_track,,,,,0,1,9,,,,,,,,
130404,note_off,,,,,1380,0,9,,,,,2,,57,100
130404,note_off,,,,,1380,0,8,,,,,1,,57,100
130404,end_of_track,,,,,0,1,15,,,,,,,,
130404,end_of_track,,,,,0,1,16,,,,,,,,
131712,end_of_track,,,,,0,1,8,,,,,,,,
131712,program_change,,,,,1308,0,8,,,,,1,48,,
