tick,type,numerator,denominator,clocks_per_click,notated_32nd_notes_per_beat,time,meta,track,data,tempo,control,value,channel,program,key,note,velocity
0,time_signature,4,4,96,8,0,1,0,,,,,,,,,
0,key_signature,,,,,0,1,5,,,,,,,E,,
0,control_change,,,,,0,0,5,,,91,60,0,,,,
0,control_change,,,,,0,0,5,,,7,100,0,,,,
0,program_change,,,,,0,0,5,,,,,0,40,,,
0,control_change,,,,,0,0,5,,,0,0,0,,,,
0,track_name,,,,,0,1,5,,,,,,,,,
0,end_of_track,,,,,0,1,4,,,,,,,,,
0,key_signature,,,,,0,1,4,,,,,,,E,,
0,control_change,,,,,0,0,4,,,91,60,0,,,,
0,control_change,,,,,0,0,4,,,7,100,0,,,,
0,end_of_track,,,,,0,1,5,,,,,,,,,
0,program_change,,,,,0,0,4,,,,,0,40,,,
0,track_name,,,,,0,1,4,,,,,,,,,
0,end_of_track,,,,,0,1,3,,,,,,,,,
0,key_signature,,,,,0,1,3,,,,,,,E,,
0,program_change,,,,,0,0,3,,,,,0,40,,,
0,control_change,,,,,0,0,3,,,91,60,0,,,,
0,control_change,,,,,0,0,3,,,7,100,0,,,,
0,control_change,,,,,0,0,3,,,0,0,0,,,,
0,track_name,,,,,0,1,3,,,,,,,,,
0,end_of_track,,,,,0,1,2,,,,,,,,,
0,track_name,,,,,0,1,2,,,,,,,,,
0,control_change,,,,,0,0,4,,,0,0,0,,,,
0,end_of_track,,,,,0,1,1,,,,,,,,,
0,track_name,,,,,0,1,6,,,,,,,,,
0,program_change,,,,,0,0,6,,,,,0,40,,,
0,control_change,,,,,0,0,11,,,10,72,4,,,,
0,control_change,,,,,0,0,11,,,7,82,4,,,,
0,program_change,,,,,0,0,11,,,,,4,48,,,
0,control_change,,,,,0,0,11,,,0,0,4,,,,
0,track_name,,,,,0,1,11,,,,,,,,,
0,track_name,,,,,0,1,12,,,,,,,,,
0,control_change,,,,,0,0,12,,,0,0,5,,,,
0,program_change,,,,,0,0,12,,,,,5,48,,,
0,control_change,,,,,0,0,12,,,7,77,5,,,,
0,control_change,,,,,0,0,12,,,10,84,5,,,,
0,control_change,,,,,0,0,6,,,0,0,0,,,,
0,control_change,,,,,0,0,12,,,91,60,5,,,,
0,key_signature,,,,,0,1,7,,,,,,,E,,
0,control_change,,,,,0,0,7,,,91,60,0,,,,
0,control_change,,,,,0,0,7,,,7,100,0,,,,
0,program_change,,,,,0,0,7,,,,,0,40,,,
0,control_change,,,,,0,0,7,,,0,0,0,,,,
0,track_name,,,,,0,1,7,,,,,,,,,
0,end_of_track,,,,,0,1,6,,,,,,,,,
0,key_signature,,,,,0,1,6,,,,,,,E,,
0,control_change,,,,,0,0,6,,,91,60,0,,,,
0,control_change,,,,,0,0,6,,,7,100,0,,,,
0,key_signature,,,,,0,1,12,,,,,,,E,,
0,control_change,,,,,0,0,11,,,91,62,4,,,,
0,track_name,,,,,0,1,1,,,,,,,,,
0,control_change,,,,,0,0,10,,,91,64,3,,,,
0,control_change,,,,,0,0,8,,,7,100,1,,,,
0,control_change,,,,,0,0,8,,,10,52,1,,,,
0,control_change,,,,,0,0,8,,,91,61,1,,,,
0,key_signature,,,,,0,1,8,,,,,,,E,,
0,key_signature,,,,,0,1,10,,,,,,,E,,
0,track_name,,,,,0,1,9,,,,,,,,,
0,control_change,,,,,0,0,9,,,0,0,2,,,,
0,program_change,,,,,0,0,9,,,,,2,48,,,
0,control_change,,,,,0,0,9,,,7,100,2,,,,
0,control_change,,,,,0,0,9,,,10,42,2,,,,
0,control_change,,,,,0,0,9,,,91,62,2,,,,
0,key_signature,,,,,0,1,9,,,,,,,E,,
0,set_tempo,,,,,0,1,0,,1153846,,,,,,,
0,sequencer_specific,,,,,0,1,0,"(0, 0, 119, 14, 1)",,,,,,,,
0,sequencer_specific,,,,,0,1,0,"(0, 0, 65)",,,,,,,,
0,program_change,,,,,0,0,8,,,,,1,48,,,
0,control_change,,,,,0,0,8,,,0,0,1,,,,
0,note_on,,,,,0,0,8,,,,,1,,,76,70
0,track_name,,,,,0,1,14,,,,,,,,,
0,control_change,,,,,0,0,10,,,7,95,3,,,,
0,program_change,,,,,0,0,10,,,,,3,48,,,
0,control_change,,,,,0,0,10,,,0,0,3,,,,
0,track_name,,,,,0,1,10,,,,,,,,,
0,track_name,,,,,0,1,13,,,,,,,,,
0,control_change,,,,,0,0,13,,,0,0,6,,,,
0,program_change,,,,,0,0,13,,,,,6,6,,,
0,control_change,,,,,0,0,13,,,7,55,6,,,,
0,control_change,,,,,0,0,13,,,91,61,6,,,,
0,key_signature,,,,,0,1,13,,,,,,,E,,
0,track_name,,,,,0,1,8,,,,,,,,,
0,key_signature,,,,,0,1,11,,,,,,,E,,
0,control_change,,,,,0,0,14,,,91,61,6,,,,
0,control_change,,,,,0,0,14,,,0,0,6,,,,
0,program_change,,,,,0,0,14,,,,,6,6,,,
0,key_signature,,,,,0,1,14,,,,,,,E,,
0,control_change,,,,,0,0,14,,,7,55,6,,,,
256,note_off,,,,,256,0,8,,,,,1,,,76,100
384,note_on,,,,,128,0,8,,,,,1,,,80,70
576,note_off,,,,,192,0,8,,,,,1,,,80,100
672,note_on,,,,,96,0,8,,,,,1,,,81,70
736,note_off,,,,,64,0,8,,,,,1,,,81,100
768,note_on,,,,,32,0,8,,,,,1,,,83,60
768,note_on,,,,,768,0,9,,,,,2,,,71,60
1024,note_off,,,,,256,0,9,,,,,2,,,71,100
1152,note_off,,,,,384,0,8,,,,,1,,,83,100
1152,note_on,,,,,128,0,9,,,,,2,,,73,63
1344,note_on,,,,,192,0,8,,,,,1,,,81,64
1344,note_off,,,,,192,0,9,,,,,2,,,73,100
1440,note_on,,,,,96,0,9,,,,,2,,,75,65
1472,note_off,,,,,128,0,8,,,,,1,,,81,100
1504,note_off,,,,,64,0,9,,,,,2,,,75,100
1536,note_on,,,,,1536,0,12,,,,,5,,,40,66
1536,note_on,,,,,1536,0,13,,,,,6,,,68,100
1536,note_on,,,,,1536,0,11,,,,,4,,,52,66
1536,note_on,,,,,64,0,8,,,,,1,,,80,66
1536,note_on,,,,,0,0,13,,,,,6,,,71,100
1536,note_on,,,,,1536,0,14,,,,,6,,,52,100
1536,note_on,,,,,32,0,9,,,,,2,,,76,66
1664,note_off,,,,,128,0,8,,,,,1,,,80,100
1728,note_on,,,,,64,0,8,,,,,1,,,80,68
1792,note_off,,,,,256,0,13,,,,,6,,,68,100
1792,note_off,,,,,0,0,13,,,,,6,,,71,100
1792,note_off,,,,,256,0,14,,,,,6,,,52,100
1792,note_off,,,,,64,0,8,,,,,1,,,80,100
1792,note_off,,,,,256,0,12,,,,,5,,,40,100
1792,note_off,,,,,256,0,11,,,,,4,,,52,100
1824,note_on,,,,,32,0,8,,,,,1,,,81,69
1888,note_off,,,,,64,0,8,,,,,1,,,81,100
1920,note_off,,,,,384,0,9,,,,,2,,,76,100
1920,note_on,,,,,32,0,8,,,,,1,,,83,70
1920,note_on,,,,,128,0,12,,,,,5,,,44,70
1920,note_on,,,,,128,0,14,,,,,6,,,56,100
1920,note_on,,,,,0,0,13,,,,,6,,,71,100
1920,note_on,,,,,128,0,13,,,,,6,,,64,100
1920,note_on,,,,,128,0,11,,,,,4,,,56,70
2048,note_off,,,,,128,0,8,,,,,1,,,83,100
2112,note_on,,,,,192,0,9,,,,,2,,,76,67
2112,note_off,,,,,192,0,12,,,,,5,,,44,100
2112,note_off,,,,,192,0,14,,,,,6,,,56,100
2112,note_on,,,,,64,0,8,,,,,1,,,81,67
2112,note_off,,,,,192,0,13,,,,,6,,,64,100
2112,note_off,,,,,0,0,13,,,,,6,,,71,100
2112,note_off,,,,,192,0,11,,,,,4,,,56,100
2176,note_off,,,,,64,0,8,,,,,1,,,81,100
2208,note_on,,,,,96,0,14,,,,,6,,,57,100
2208,note_on,,,,,96,0,12,,,,,5,,,45,66
2208,note_on,,,,,96,0,13,,,,,6,,,64,100
2208,note_on,,,,,0,0,13,,,,,6,,,73,100
2208,note_on,,,,,96,0,11,,,,,4,,,57,66
2208,note_on,,,,,32,0,8,,,,,1,,,80,66
2240,note_off,,,,,128,0,9,,,,,2,,,76,100
2272,note_off,,,,,64,0,11,,,,,4,,,57,100
2272,note_off,,,,,0,0,13,,,,,6,,,73,100
2272,note_off,,,,,64,0,12,,,,,5,,,45,100
2272,note_off,,,,,64,0,14,,,,,6,,,57,100
2272,note_off,,,,,64,0,13,,,,,6,,,64,100
2272,note_off,,,,,64,0,8,,,,,1,,,80,100
2304,note_on,,,,,32,0,13,,,,,6,,,66,100
2304,note_on,,,,,0,0,13,,,,,6,,,75,100
2304,note_on,,,,,32,0,14,,,,,6,,,59,100
2304,note_on,,,,,2304,0,10,,,,,3,,,59,70
2304,note_on,,,,,64,0,9,,,,,2,,,75,69
2304,note_on,,,,,32,0,12,,,,,5,,,47,70
2304,note_on,,,,,32,0,8,,,,,1,,,78,69
2304,note_on,,,,,32,0,11,,,,,4,,,59,70
2396,note_off,,,,,92,0,8,,,,,1,,,78,100
2396,note_off,,,,,92,0,9,,,,,2,,,75,100
2400,note_on,,,,,4,0,8,,,,,1,,,76,62
2400,note_on,,,,,4,0,9,,,,,2,,,73,62
2464,note_off,,,,,64,0,9,,,,,2,,,73,100
2464,note_off,,,,,64,0,8,,,,,1,,,76,100
2496,note_on,,,,,32,0,9,,,,,2,,,75,61
2496,note_on,,,,,32,0,8,,,,,1,,,78,61
2560,note_off,,,,,256,0,13,,,,,6,,,66,100
2560,note_off,,,,,256,0,10,,,,,3,,,59,100
2560,note_off,,,,,0,0,13,,,,,6,,,75,100
2624,note_off,,,,,128,0,8,,,,,1,,,78,100
2624,note_off,,,,,128,0,9,,,,,2,,,75,100
2688,note_on,,,,,0,0,13,,,,,6,,,73,100
2688,note_on,,,,,128,0,13,,,,,6,,,64,100
2688,note_on,,,,,128,0,10,,,,,3,,,61,66
2688,note_off,,,,,384,0,11,,,,,4,,,59,100
2688,note_off,,,,,384,0,12,,,,,5,,,47,100
2688,note_off,,,,,384,0,14,,,,,6,,,59,100
2816,note_off,,,,,0,0,13,,,,,6,,,73,100
2816,note_off,,,,,128,0,13,,,,,6,,,64,100
2880,note_on,,,,,192,0,11,,,,,4,,,57,65
2880,note_off,,,,,192,0,10,,,,,3,,,61,100
2880,note_on,,,,,192,0,12,,,,,5,,,45,65
2880,note_on,,,,,192,0,14,,,,,6,,,57,100
2880,note_on,,,,,0,0,13,,,,,6,,,71,100
2880,note_on,,,,,64,0,13,,,,,6,,,63,100
2976,note_on,,,,,96,0,10,,,,,3,,,63,62
3008,note_off,,,,,0,0,13,,,,,6,,,71,100
3008,note_off,,,,,128,0,13,,,,,6,,,63,100
3008,note_off,,,,,128,0,11,,,,,4,,,57,100
3008,note_off,,,,,128,0,14,,,,,6,,,57,100
3008,note_off,,,,,128,0,12,,,,,5,,,45,100
3040,note_off,,,,,64,0,10,,,,,3,,,63,100
3072,note_on,,,,,448,0,8,,,,,1,,,80,60
3072,note_on,,,,,64,0,12,,,,,5,,,44,63
3072,note_on,,,,,448,0,9,,,,,2,,,76,60
3072,note_on,,,,,64,0,11,,,,,4,,,56,63
3072,note_on,,,,,32,0,10,,,,,3,,,64,61
3072,note_on,,,,,64,0,14,,,,,6,,,56,100
3072,note_on,,,,,64,0,13,,,,,6,,,71,100
3072,note_on,,,,,0,0,13,,,,,6,,,64,100
3200,note_off,,,,,128,0,11,,,,,4,,,56,100
3200,note_off,,,,,0,0,13,,,,,6,,,64,100
3200,note_off,,,,,128,0,14,,,,,6,,,56,100
3200,note_off,,,,,128,0,12,,,,,5,,,44,100
3200,note_off,,,,,128,0,13,,,,,6,,,71,100
3264,note_on,,,,,64,0,14,,,,,6,,,52,100
3264,note_on,,,,,64,0,13,,,,,6,,,59,100
3264,note_on,,,,,64,0,11,,,,,4,,,52,61
3264,note_on,,,,,0,0,13,,,,,6,,,68,100
3264,note_on,,,,,64,0,12,,,,,5,,,40,61
3328,note_off,,,,,256,0,8,,,,,1,,,80,100
3328,note_off,,,,,256,0,9,,,,,2,,,76,100
3328,note_off,,,,,256,0,10,,,,,3,,,64,100
3392,note_off,,,,,128,0,13,,,,,6,,,59,100
3392,note_off,,,,,0,0,13,,,,,6,,,68,100
3392,note_off,,,,,128,0,12,,,,,5,,,40,100
3392,note_off,,,,,128,0,11,,,,,4,,,52,100
3392,note_off,,,,,128,0,14,,,,,6,,,52,100
3456,note_on,,,,,128,0,8,,,,,1,,,83,64
3456,note_on,,,,,128,0,9,,,,,2,,,80,64
3648,note_off,,,,,192,0,8,,,,,1,,,83,100
3648,note_off,,,,,192,0,9,,,,,2,,,80,100
3744,note_on,,,,,96,0,8,,,,,1,,,85,68
3744,note_on,,,,,96,0,9,,,,,2,,,81,68
3808,note_off,,,,,64,0,8,,,,,1,,,85,100
3808,note_off,,,,,64,0,9,,,,,2,,,81,100
3840,note_on,,,,,32,0,8,,,,,1,,,86,69
3840,note_on,,,,,448,0,14,,,,,6,,,52,100
3840,note_on,,,,,448,0,13,,,,,6,,,71,100
3840,note_on,,,,,0,0,13,,,,,6,,,74,100
3840,note_on,,,,,32,0,9,,,,,2,,,83,69
3840,note_on,,,,,448,0,12,,,,,5,,,40,69
3840,note_on,,,,,448,0,11,,,,,4,,,52,69
3840,note_on,,,,,512,0,10,,,,,3,,,68,69
4096,note_off,,,,,256,0,10,,,,,3,,,68,100
4096,note_off,,,,,256,0,14,,,,,6,,,52,100
4096,note_off,,,,,256,0,11,,,,,4,,,52,100
4096,note_off,,,,,0,0,13,,,,,6,,,74,100
4096,note_off,,,,,256,0,12,,,,,5,,,40,100
4096,note_off,,,,,256,0,13,,,,,6,,,71,100
4224,note_on,,,,,128,0,12,,,,,5,,,44,70
4224,note_on,,,,,128,0,14,,,,,6,,,56,100
4224,note_off,,,,,384,0,8,,,,,1,,,86,100
4224,note_on,,,,,128,0,10,,,,,3,,,71,70
4224,note_on,,,,,0,0,13,,,,,6,,,74,100
4224,note_off,,,,,384,0,9,,,,,2,,,83,100
4224,note_on,,,,,128,0,13,,,,,6,,,71,100
4224,note_on,,,,,128,0,11,,,,,4,,,56,70
4416,note_off,,,,,192,0,10,,,,,3,,,71,100
4416,note_off,,,,,192,0,14,,,,,6,,,56,100
4416,note_off,,,,,0,0,13,,,,,6,,,74,100
4416,note_off,,,,,192,0,12,,,,,5,,,44,100
4416,note_on,,,,,192,0,9,,,,,2,,,83,70
4416,note_off,,,,,192,0,11,,,,,4,,,56,100
4416,note_off,,,,,192,0,13,,,,,6,,,71,100
4416,note_on,,,,,192,0,8,,,,,1,,,86,70
4512,note_on,,,,,96,0,12,,,,,5,,,40,70
4512,note_on,,,,,96,0,14,,,,,6,,,52,100
4512,note_on,,,,,0,0,13,,,,,6,,,74,100
4512,note_on,,,,,96,0,10,,,,,3,,,68,70
4512,note_on,,,,,96,0,11,,,,,4,,,52,70
4512,note_on,,,,,96,0,13,,,,,6,,,71,100
4544,note_off,,,,,128,0,9,,,,,2,,,83,100
4544,note_off,,,,,128,0,8,,,,,1,,,86,100
4576,note_off,,,,,0,0,13,,,,,6,,,74,100
4576,note_off,,,,,64,0,13,,,,,6,,,71,100
4576,note_off,,,,,64,0,12,,,,,5,,,40,100
4576,note_off,,,,,64,0,11,,,,,4,,,52,100
4576,note_off,,,,,64,0,10,,,,,3,,,68,100
4576,note_off,,,,,64,0,14,,,,,6,,,52,100
4608,note_on,,,,,32,0,12,,,,,5,,,45,70
4608,note_on,,,,,32,0,10,,,,,3,,,64,70
4608,note_on,,,,,32,0,14,,,,,6,,,57,100
4608,note_on,,,,,0,0,13,,,,,6,,,76,100
4608,note_on,,,,,64,0,9,,,,,2,,,81,70
4608,note_on,,,,,32,0,13,,,,,6,,,73,100
4608,note_on,,,,,32,0,11,,,,,4,,,57,70
4608,note_on,,,,,64,0,8,,,,,1,,,85,70
4800,note_off,,,,,192,0,8,,,,,1,,,85,100
4800,note_off,,,,,192,0,9,,,,,2,,,81,100
4864,note_off,,,,,0,0,13,,,,,6,,,76,100
4864,note_off,,,,,256,0,13,,,,,6,,,73,100
4896,note_on,,,,,96,0,9,,,,,2,,,80,60
4896,note_on,,,,,96,0,8,,,,,1,,,83,60
4960,note_off,,,,,64,0,9,,,,,2,,,80,100
4960,note_off,,,,,64,0,8,,,,,1,,,83,100
4992,note_on,,,,,128,0,13,,,,,6,,,64,100
4992,set_tempo,,,,,4992,1,0,,1153846,,,,,,,
4992,note_off,,,,,384,0,10,,,,,3,,,64,100
4992,note_on,,,,,32,0,9,,,,,2,,,78,61
4992,note_on,,,,,0,0,13,,,,,6,,,73,100
4992,note_on,,,,,32,0,8,,,,,1,,,81,61
5068,set_tempo,,,,,76,1,0,,1176470,,,,,,,
5084,note_off,,,,,92,0,9,,,,,2,,,78,100
5084,note_off,,,,,92,0,8,,,,,1,,,81,100
5088,note_on,,,,,4,0,8,,,,,1,,,80,63
5088,note_on,,,,,4,0,9,,,,,2,,,76,63
5144,set_tempo,,,,,76,1,0,,1200000,,,,,,,
5152,note_off,,,,,64,0,8,,,,,1,,,80,100
5152,note_off,,,,,64,0,9,,,,,2,,,76,100
5184,note_on,,,,,32,0,9,,,,,2,,,75,65
5184,note_on,,,,,32,0,8,,,,,1,,,78,65
5184,note_on,,,,,192,0,10,,,,,3,,,64,65
5220,set_tempo,,,,,76,1,0,,1224489,,,,,,,
5248,note_off,,,,,256,0,13,,,,,6,,,64,100
5248,note_off,,,,,0,0,13,,,,,6,,,73,100
5276,note_off,,,,,92,0,8,,,,,1,,,78,100
5276,note_off,,,,,92,0,9,,,,,2,,,75,100
5280,note_on,,,,,4,0,9,,,,,2,,,73,67
5280,note_on,,,,,4,0,8,,,,,1,,,76,67
5296,set_tempo,,,,,76,1,0,,1250000,,,,,,,
5312,note_off,,,,,128,0,10,,,,,3,,,64,100
5344,note_off,,,,,64,0,9,,,,,2,,,73,100
5344,note_off,,,,,64,0,8,,,,,1,,,76,100
5376,note_on,,,,,64,0,10,,,,,3,,,66,69
5376,note_on,,,,,32,0,9,,,,,2,,,71,69
5376,note_on,,,,,32,0,8,,,,,1,,,75,69
5376,note_on,,,,,0,0,13,,,,,6,,,75,100
5376,set_tempo,,,,,80,1,0,,1153846,,,,,,,
5376,note_on,,,,,128,0,13,,,,,6,,,66,100
5376,note_on,,,,,0,0,13,,,,,6,,,71,100
6016,note_off,,,,,640,0,10,,,,,3,,,66,100
6016,note_off,,,,,1408,0,11,,,,,4,,,57,100
6016,note_off,,,,,0,0,13,,,,,6,,,75,100
6016,note_off,,,,,0,0,13,,,,,6,,,71,100
6016,note_off,,,,,1408,0,14,,,,,6,,,57,100
6016,note_off,,,,,640,0,13,,,,,6,,,66,100
6016,note_off,,,,,640,0,8,,,,,1,,,75,100
6016,note_off,,,,,1408,0,12,,,,,5,,,45,100
6016,note_off,,,,,640,0,9,,,,,2,,,71,100
6144,note_on,,,,,0,0,13,,,,,6,,,71,100
6144,note_on,,,,,128,0,10,,,,,3,,,68,65
6144,note_on,,,,,128,0,11,,,,,4,,,56,65
6144,note_on,,,,,128,0,12,,,,,5,,,44,65
6144,note_on,,,,,128,0,9,,,,,2,,,71,65
6144,note_on,,,,,128,0,8,,,,,1,,,76,65
6144,note_on,,,,,128,0,13,,,,,6,,,76,100
6144,note_on,,,,,128,0,14,,,,,6,,,56,100
6400,note_off,,,,,256,0,9,,,,,2,,,71,100
6400,note_off,,,,,0,0,13,,,,,6,,,71,100
6400,note_off,,,,,256,0,8,,,,,1,,,76,100
6400,note_off,,,,,256,0,12,,,,,5,,,44,100
6400,note_off,,,,,256,0,11,,,,,4,,,56,100
6400,note_off,,,,,256,0,13,,,,,6,,,76,100
6400,note_off,,,,,256,0,10,,,,,3,,,68,100
6400,note_off,,,,,256,0,14,,,,,6,,,56,100
6528,note_on,,,,,128,0,9,,,,,2,,,76,63
6528,note_on,,,,,128,0,13,,,,,6,,,73,100
6528,note_on,,,,,0,0,13,,,,,6,,,68,100
6528,note_on,,,,,128,0,11,,,,,4,,,52,63
6528,note_on,,,,,128,0,14,,,,,6,,,52,100
6528,note_on,,,,,128,0,10,,,,,3,,,68,63
6528,note_on,,,,,128,0,8,,,,,1,,,85,63
6528,note_on,,,,,128,0,12,,,,,5,,,40,63
6720,note_off,,,,,192,0,13,,,,,6,,,73,100
6720,note_off,,,,,192,0,10,,,,,3,,,68,100
6720,note_off,,,,,0,0,13,,,,,6,,,68,100
6720,note_off,,,,,192,0,11,,,,,4,,,52,100
6720,note_off,,,,,192,0,8,,,,,1,,,85,100
6720,note_off,,,,,192,0,12,,,,,5,,,40,100
6720,note_off,,,,,192,0,9,,,,,2,,,76,100
6720,note_off,,,,,192,0,14,,,,,6,,,52,100
6816,note_on,,,,,96,0,10,,,,,3,,,68,65
6816,note_on,,,,,96,0,13,,,,,6,,,68,100
6816,note_on,,,,,96,0,9,,,,,2,,,80,65
6816,note_on,,,,,96,0,8,,,,,1,,,83,65
6816,note_on,,,,,96,0,11,,,,,4,,,52,65
6816,note_on,,,,,0,0,13,,,,,6,,,71,100
6816,note_on,,,,,96,0,12,,,,,5,,,40,65
6816,note_on,,,,,96,0,14,,,,,6,,,52,100
6880,note_off,,,,,64,0,11,,,,,4,,,52,100
6880,note_off,,,,,0,0,13,,,,,6,,,71,100
6880,note_off,,,,,64,0,12,,,,,5,,,40,100
6880,note_off,,,,,64,0,10,,,,,3,,,68,100
6880,note_off,,,,,64,0,9,,,,,2,,,80,100
6880,note_off,,,,,64,0,8,,,,,1,,,83,100
6880,note_off,,,,,64,0,14,,,,,6,,,52,100
6880,note_off,,,,,64,0,13,,,,,6,,,68,100
6912,note_on,,,,,32,0,14,,,,,6,,,52,100
6912,note_on,,,,,32,0,13,,,,,6,,,73,100
6912,note_on,,,,,0,0,13,,,,,6,,,70,100
6912,note_on,,,,,32,0,12,,,,,5,,,40,66
6912,note_on,,,,,32,0,10,,,,,3,,,73,66
6912,note_on,,,,,32,0,9,,,,,2,,,78,66
6912,note_on,,,,,32,0,8,,,,,1,,,82,66
6912,note_on,,,,,32,0,11,,,,,4,,,52,66
6912,note_on,,,,,0,0,13,,,,,6,,,66,100
7168,note_off,,,,,256,0,13,,,,,6,,,73,100
7168,note_off,,,,,0,0,13,,,,,6,,,70,100
7168,note_off,,,,,0,0,13,,,,,6,,,66,100
7168,note_off,,,,,256,0,10,,,,,3,,,73,100
7168,note_off,,,,,256,0,12,,,,,5,,,40,100
7168,note_off,,,,,256,0,9,,,,,2,,,78,100
7168,note_off,,,,,256,0,11,,,,,4,,,52,100
7168,note_off,,,,,256,0,14,,,,,6,,,52,100
7168,note_off,,,,,256,0,8,,,,,1,,,82,100
7296,note_on,,,,,128,0,10,,,,,3,,,75,70
7296,note_on,,,,,0,0,13,,,,,6,,,66,100
7296,note_on,,,,,128,0,14,,,,,6,,,51,100
7296,note_on,,,,,128,0,12,,,,,5,,,39,70
7296,note_on,,,,,128,0,9,,,,,2,,,78,70
7296,set_tempo,,,,,1920,1,0,,1153846,,,,,,,
7296,note_on,,,,,128,0,11,,,,,4,,,51,70
7296,note_on,,,,,128,0,13,,,,,6,,,71,100
7296,note_on,,,,,128,0,8,,,,,1,,,83,70
7448,set_tempo,,,,,152,1,0,,1176470,,,,,,,
7488,note_off,,,,,192,0,14,,,,,6,,,51,100
7488,note_off,,,,,192,0,9,,,,,2,,,78,100
7488,note_off,,,,,192,0,10,,,,,3,,,75,100
7488,note_off,,,,,192,0,13,,,,,6,,,71,100
7488,note_off,,,,,192,0,12,,,,,5,,,39,100
7488,note_off,,,,,192,0,11,,,,,4,,,51,100
7488,note_off,,,,,0,0,13,,,,,6,,,66,100
7584,note_on,,,,,96,0,14,,,,,6,,,51,100
7584,note_on,,,,,96,0,10,,,,,3,,,66,70
7584,note_on,,,,,96,0,11,,,,,4,,,51,70
7584,note_on,,,,,96,0,9,,,,,2,,,78,70
7584,note_on,,,,,0,0,13,,,,,6,,,66,100
7584,note_on,,,,,96,0,12,,,,,5,,,39,70
7584,note_on,,,,,96,0,13,,,,,6,,,71,100
7600,set_tempo,,,,,152,1,0,,1200000,,,,,,,
7648,note_off,,,,,64,0,11,,,,,4,,,51,100
7648,note_off,,,,,64,0,10,,,,,3,,,66,100
7648,note_off,,,,,64,0,12,,,,,5,,,39,100
7648,note_off,,,,,64,0,9,,,,,2,,,78,100
7648,note_off,,,,,64,0,13,,,,,6,,,71,100
7648,note_off,,,,,0,0,13,,,,,6,,,66,100
7648,note_off,,,,,64,0,14,,,,,6,,,51,100
7680,note_on,,,,,32,0,10,,,,,3,,,68,70
7680,note_on,,,,,32,0,9,,,,,2,,,73,70
7680,note_on,,,,,0,0,13,,,,,6,,,73,100
7680,note_on,,,,,32,0,13,,,,,6,,,71,100
7680,note_on,,,,,32,0,11,,,,,4,,,52,70
7680,note_on,,,,,32,0,12,,,,,5,,,40,70
7680,note_on,,,,,32,0,14,,,,,6,,,52,100
7756,set_tempo,,,,,156,1,0,,1224489,,,,,,,
7872,note_off,,,,,192,0,14,,,,,6,,,52,100
7872,note_off,,,,,192,0,11,,,,,4,,,52,100
7872,note_off,,,,,192,0,13,,,,,6,,,71,100
7872,note_off,,,,,0,0,13,,,,,6,,,73,100
7872,note_off,,,,,192,0,9,,,,,2,,,73,100
7872,note_off,,,,,192,0,12,,,,,5,,,40,100
7872,note_off,,,,,192,0,10,,,,,3,,,68,100
7908,set_tempo,,,,,152,1,0,,1250000,,,,,,,
7968,note_on,,,,,0,0,13,,,,,6,,,73,100
7968,note_on,,,,,96,0,12,,,,,5,,,40,67
7968,note_on,,,,,96,0,13,,,,,6,,,71,100
7968,note_on,,,,,96,0,9,,,,,2,,,73,67
7968,note_on,,,,,96,0,10,,,,,3,,,68,67
7968,note_on,,,,,96,0,11,,,,,4,,,52,67
7968,note_on,,,,,96,0,14,,,,,6,,,52,100
7984,note_off,,,,,688,0,8,,,,,1,,,83,100
8032,note_off,,,,,64,0,11,,,,,4,,,52,100
8032,note_off,,,,,0,0,13,,,,,6,,,73,100
8032,note_off,,,,,64,0,13,,,,,6,,,71,100
8032,note_off,,,,,64,0,10,,,,,3,,,68,100
8032,note_off,,,,,64,0,9,,,,,2,,,73,100
8032,note_off,,,,,64,0,14,,,,,6,,,52,100
8032,note_off,,,,,64,0,12,,,,,5,,,40,100
8064,note_on,,,,,32,0,10,,,,,3,,,66,66
8064,note_on,,,,,32,0,14,,,,,6,,,54,100
8064,note_on,,,,,0,0,13,,,,,6,,,73,100
8064,set_tempo,,,,,156,1,0,,1276595,,,,,,,
8064,note_on,,,,,32,0,9,,,,,2,,,73,66
8064,note_on,,,,,32,0,11,,,,,4,,,54,66
8064,note_on,,,,,32,0,13,,,,,6,,,70,100
8064,note_on,,,,,32,0,12,,,,,5,,,42,66
8064,note_on,,,,,80,0,8,,,,,1,,,82,66
8140,set_tempo,,,,,76,1,0,,1304347,,,,,,,
8216,set_tempo,,,,,76,1,0,,1333333,,,,,,,
8256,note_off,,,,,192,0,14,,,,,6,,,54,100
8256,note_off,,,,,0,0,13,,,,,6,,,73,100
8256,note_off,,,,,192,0,11,,,,,4,,,54,100
8256,note_off,,,,,192,0,13,,,,,6,,,70,100
8256,note_off,,,,,192,0,10,,,,,3,,,66,100
8256,note_off,,,,,192,0,12,,,,,5,,,42,100
8256,note_off,,,,,192,0,9,,,,,2,,,73,100
8292,set_tempo,,,,,76,1,0,,1363636,,,,,,,
8320,note_off,,,,,256,0,8,,,,,1,,,82,100
8352,note_on,,,,,0,0,13,,,,,6,,,73,100
8352,note_on,,,,,96,0,12,,,,,5,,,42,62
8352,note_on,,,,,96,0,14,,,,,6,,,54,100
8352,note_on,,,,,96,0,9,,,,,2,,,73,62
8352,note_on,,,,,96,0,10,,,,,3,,,66,62
8352,note_on,,,,,96,0,11,,,,,4,,,54,62
8352,note_on,,,,,96,0,13,,,,,6,,,70,100
8368,set_tempo,,,,,76,1,0,,1395348,,,,,,,
8416,note_off,,,,,64,0,10,,,,,3,,,66,100
8416,note_off,,,,,64,0,12,,,,,5,,,42,100
8416,note_off,,,,,0,0,13,,,,,6,,,73,100
8416,note_off,,,,,64,0,13,,,,,6,,,70,100
8416,note_off,,,,,64,0,11,,,,,4,,,54,100
8416,note_off,,,,,64,0,14,,,,,6,,,54,100
8416,note_off,,,,,64,0,9,,,,,2,,,73,100
8448,note_on,,,,,32,0,9,,,,,2,,,75,61
8448,note_on,,,,,128,0,8,,,,,1,,,83,61
8448,note_on,,,,,32,0,11,,,,,4,,,47,61
8448,note_on,,,,,32,0,14,,,,,6,,,47,100
8448,set_tempo,,,,,80,1,0,,1153846,,,,,,,
8448,note_on,,,,,32,0,12,,,,,5,,,35,61
8448,note_on,,,,,32,0,10,,,,,3,,,66,61
8476,note_on,,,,,60,0,13,,,,,6,,,66,100
8508,note_on,,,,,32,0,13,,,,,6,,,71,100
8540,note_on,,,,,32,0,13,,,,,6,,,75,100
8988,note_off,,,,,448,0,13,,,,,6,,,66,100
9020,note_off,,,,,32,0,13,,,,,6,,,71,100
9052,note_off,,,,,32,0,13,,,,,6,,,75,100
9120,set_tempo,,,,,672,1,0,,2727272,,,,,,,
9136,note_off,,,,,688,0,11,,,,,4,,,47,100
9136,note_off,,,,,688,0,8,,,,,1,,,83,100
9136,note_off,,,,,688,0,10,,,,,3,,,66,100
9136,note_off,,,,,688,0,12,,,,,5,,,35,100
9136,note_off,,,,,688,0,14,,,,,6,,,47,100
9136,note_off,,,,,688,0,9,,,,,2,,,75,100
9216,set_tempo,,,,,96,1,0,,1153846,,,,,,,
9216,note_on,,,,,80,0,8,,,,,1,,,80,60
9216,note_on,,,,,80,0,10,,,,,3,,,76,60
9216,note_on,,,,,80,0,9,,,,,2,,,80,20
9216,note_on,,,,,9216,0,7,,,,,0,,,76,80
9344,note_off,,,,,128,0,7,,,,,0,,,76,100
9408,note_on,,,,,64,0,7,,,,,0,,,80,79
9408,note_off,,,,,192,0,8,,,,,1,,,80,100
9408,note_off,,,,,192,0,9,,,,,2,,,80,100
9408,note_off,,,,,192,0,10,,,,,3,,,76,100
9472,note_off,,,,,64,0,7,,,,,0,,,80,100
9504,note_on,,,,,96,0,10,,,,,3,,,76,60
9504,note_on,,,,,32,0,7,,,,,0,,,81,79
9504,note_on,,,,,96,0,9,,,,,2,,,80,20
9504,note_on,,,,,96,0,8,,,,,1,,,80,60
9568,note_off,,,,,64,0,7,,,,,0,,,81,100
9568,note_off,,,,,64,0,8,,,,,1,,,80,100
9568,note_off,,,,,64,0,10,,,,,3,,,76,100
9568,note_off,,,,,64,0,9,,,,,2,,,80,100
9600,note_on,,,,,32,0,7,,,,,0,,,83,78
9600,note_on,,,,,32,0,9,,,,,2,,,78,20
9600,note_on,,,,,32,0,8,,,,,1,,,78,60
9600,note_on,,,,,32,0,10,,,,,3,,,75,60
9728,note_off,,,,,128,0,7,,,,,0,,,83,100
9792,note_off,,,,,192,0,9,,,,,2,,,78,100
9792,note_off,,,,,192,0,8,,,,,1,,,78,100
9792,note_off,,,,,192,0,10,,,,,3,,,75,100
9792,note_on,,,,,64,0,7,,,,,0,,,75,77
9888,note_on,,,,,96,0,8,,,,,1,,,78,60
9888,note_on,,,,,96,0,9,,,,,2,,,78,20
9888,note_on,,,,,96,0,10,,,,,3,,,75,60
9920,note_off,,,,,128,0,7,,,,,0,,,75,100
9952,note_off,,,,,64,0,9,,,,,2,,,78,100
9952,note_off,,,,,64,0,10,,,,,3,,,75,100
9952,note_off,,,,,64,0,8,,,,,1,,,78,100
9984,note_on,,,,,64,0,7,,,,,0,,,76,76
9984,note_on,,,,,32,0,8,,,,,1,,,76,60
9984,note_on,,,,,32,0,9,,,,,2,,,76,20
9984,note_on,,,,,32,0,10,,,,,3,,,73,60
10240,note_off,,,,,256,0,10,,,,,3,,,73,100
10240,note_off,,,,,256,0,7,,,,,0,,,76,100
10240,note_off,,,,,256,0,9,,,,,2,,,76,100
10240,note_off,,,,,256,0,8,,,,,1,,,76,100
10560,note_on,,,,,320,0,10,,,,,3,,,64,50
10560,note_on,,,,,320,0,8,,,,,1,,,71,50
10560,note_on,,,,,320,0,7,,,,,0,,,76,60
10560,note_on,,,,,320,0,9,,,,,2,,,68,50
10688,note_off,,,,,128,0,8,,,,,1,,,71,100
10688,note_off,,,,,128,0,7,,,,,0,,,76,100
10688,note_off,,,,,128,0,9,,,,,2,,,68,100
10688,note_off,,,,,128,0,10,,,,,3,,,64,100
10752,note_on,,,,,64,0,10,,,,,3,,,63,50
10752,note_on,,,,,64,0,7,,,,,0,,,78,60
10752,note_on,,,,,64,0,8,,,,,1,,,71,50
10752,note_on,,,,,64,0,9,,,,,2,,,66,50
10880,note_off,,,,,128,0,7,,,,,0,,,78,100
10944,note_off,,,,,192,0,8,,,,,1,,,71,100
10944,note_off,,,,,192,0,10,,,,,3,,,63,100
10944,note_off,,,,,192,0,9,,,,,2,,,66,100
10944,note_on,,,,,64,0,7,,,,,0,,,80,60
11040,note_on,,,,,96,0,9,,,,,2,,,66,50
11040,note_on,,,,,96,0,8,,,,,1,,,71,50
11040,note_on,,,,,96,0,10,,,,,3,,,63,50
11072,note_off,,,,,128,0,7,,,,,0,,,80,100
11104,note_off,,,,,64,0,10,,,,,3,,,63,100
11104,note_off,,,,,64,0,8,,,,,1,,,71,100
11104,note_off,,,,,64,0,9,,,,,2,,,66,100
11136,note_on,,,,,64,0,7,,,,,0,,,81,60
11136,note_on,,,,,32,0,8,,,,,1,,,71,50
11136,note_on,,,,,32,0,9,,,,,2,,,66,50
11136,note_on,,,,,32,0,10,,,,,3,,,63,50
11264,note_off,,,,,128,0,7,,,,,0,,,81,100
11328,note_on,,,,,64,0,7,,,,,0,,,83,60
11328,note_off,,,,,192,0,9,,,,,2,,,66,100
11328,note_off,,,,,192,0,8,,,,,1,,,71,100
11328,note_off,,,,,192,0,10,,,,,3,,,63,100
11392,note_off,,,,,64,0,7,,,,,0,,,83,100
11424,note_on,,,,,96,0,9,,,,,2,,,66,50
11424,note_on,,,,,32,0,7,,,,,0,,,81,60
11424,note_on,,,,,96,0,10,,,,,3,,,63,50
11424,note_on,,,,,96,0,8,,,,,1,,,71,50
11488,note_off,,,,,64,0,9,,,,,2,,,66,100
11488,note_off,,,,,64,0,10,,,,,3,,,63,100
11488,note_off,,,,,64,0,7,,,,,0,,,81,100
11488,note_off,,,,,64,0,8,,,,,1,,,71,100
11520,note_on,,,,,32,0,7,,,,,0,,,80,60
11520,note_on,,,,,2468,0,13,,,,,6,,,68,100
11520,note_on,,,,,2384,0,11,,,,,4,,,52,60
11520,note_on,,,,,2384,0,14,,,,,6,,,52,100
11520,note_on,,,,,32,0,8,,,,,1,,,71,50
11520,note_on,,,,,32,0,10,,,,,3,,,64,50
11520,note_on,,,,,2384,0,12,,,,,5,,,40,60
11520,note_on,,,,,32,0,9,,,,,2,,,68,50
11520,note_on,,,,,0,0,13,,,,,6,,,71,100
11584,note_off,,,,,64,0,7,,,,,0,,,80,100
11616,note_on,,,,,32,0,7,,,,,0,,,78,60
11680,note_off,,,,,64,0,7,,,,,0,,,78,100
11712,note_on,,,,,32,0,7,,,,,0,,,76,60
11776,note_off,,,,,256,0,13,,,,,6,,,68,100
11776,note_off,,,,,256,0,11,,,,,4,,,52,100
11776,note_off,,,,,256,0,10,,,,,3,,,64,100
11776,note_off,,,,,256,0,9,,,,,2,,,68,100
11776,note_off,,,,,256,0,14,,,,,6,,,52,100
11776,note_off,,,,,256,0,12,,,,,5,,,40,100
11776,note_off,,,,,256,0,8,,,,,1,,,71,100
11776,note_off,,,,,0,0,13,,,,,6,,,71,100
11840,note_off,,,,,128,0,7,,,,,0,,,76,100
11904,note_on,,,,,128,0,12,,,,,5,,,44,60
11904,note_on,,,,,128,0,13,,,,,6,,,71,100
11904,note_on,,,,,128,0,11,,,,,4,,,56,60
11904,note_on,,,,,128,0,14,,,,,6,,,56,100
12096,note_off,,,,,192,0,11,,,,,4,,,56,100
12096,note_off,,,,,192,0,12,,,,,5,,,44,100
12096,note_off,,,,,192,0,13,,,,,6,,,71,100
12096,note_off,,,,,192,0,14,,,,,6,,,56,100
12192,note_on,,,,,96,0,14,,,,,6,,,57,100
12192,note_on,,,,,96,0,11,,,,,4,,,57,60
12192,note_on,,,,,96,0,13,,,,,6,,,73,100
12192,note_on,,,,,96,0,12,,,,,5,,,45,60
12256,note_off,,,,,64,0,12,,,,,5,,,45,100
12256,note_off,,,,,64,0,11,,,,,4,,,57,100
12256,note_off,,,,,64,0,14,,,,,6,,,57,100
12256,note_off,,,,,64,0,13,,,,,6,,,73,100
12288,note_on,,,,,512,0,8,,,,,1,,,78,60
12288,note_on,,,,,512,0,9,,,,,2,,,78,60
12288,note_on,,,,,32,0,13,,,,,6,,,75,100
12288,note_on,,,,,32,0,12,,,,,5,,,47,60
12288,note_on,,,,,448,0,7,,,,,0,,,78,85
12288,note_on,,,,,32,0,11,,,,,4,,,59,60
12288,note_on,,,,,512,0,10,,,,,3,,,75,60
12288,note_on,,,,,32,0,14,,,,,6,,,59,100
12416,note_off,,,,,128,0,11,,,,,4,,,59,100
12416,note_off,,,,,128,0,14,,,,,6,,,59,100
12416,note_off,,,,,128,0,12,,,,,5,,,47,100
12416,note_off,,,,,128,0,7,,,,,0,,,78,100
12416,note_off,,,,,128,0,13,,,,,6,,,75,100
12480,note_on,,,,,64,0,7,,,,,0,,,80,85
12480,note_off,,,,,192,0,9,,,,,2,,,78,100
12480,note_on,,,,,0,0,13,,,,,6,,,66,100
12480,note_off,,,,,192,0,8,,,,,1,,,78,100
12480,note_off,,,,,192,0,10,,,,,3,,,75,100
12480,note_on,,,,,64,0,12,,,,,5,,,35,60
12480,note_on,,,,,64,0,13,,,,,6,,,63,100
12480,note_on,,,,,64,0,11,,,,,4,,,47,60
12480,note_on,,,,,64,0,14,,,,,6,,,47,100
12544,note_off,,,,,64,0,7,,,,,0,,,80,100
12576,note_on,,,,,32,0,7,,,,,0,,,81,85
12576,note_on,,,,,96,0,9,,,,,2,,,78,60
12576,note_on,,,,,96,0,8,,,,,1,,,78,60
12576,note_on,,,,,96,0,10,,,,,3,,,75,60
12608,note_off,,,,,128,0,14,,,,,6,,,47,100
12608,note_off,,,,,128,0,12,,,,,5,,,35,100
12608,note_off,,,,,128,0,11,,,,,4,,,47,100
12608,note_off,,,,,128,0,13,,,,,6,,,63,100
12608,note_off,,,,,0,0,13,,,,,6,,,66,100
12640,note_off,,,,,64,0,10,,,,,3,,,75,100
12640,note_off,,,,,64,0,9,,,,,2,,,78,100
12640,note_off,,,,,64,0,7,,,,,0,,,81,100
12640,note_off,,,,,64,0,8,,,,,1,,,78,100
12672,note_on,,,,,32,0,9,,,,,2,,,78,60
12672,note_on,,,,,32,0,10,,,,,3,,,75,60
12672,note_on,,,,,32,0,7,,,,,0,,,83,85
12672,note_on,,,,,32,0,8,,,,,1,,,78,60
12800,note_off,,,,,128,0,7,,,,,0,,,83,100
12864,note_off,,,,,192,0,10,,,,,3,,,75,100
12864,note_off,,,,,192,0,9,,,,,2,,,78,100
12864,note_off,,,,,192,0,8,,,,,1,,,78,100
12864,note_on,,,,,64,0,7,,,,,0,,,75,85
12960,note_on,,,,,96,0,9,,,,,2,,,78,60
12960,note_on,,,,,96,0,10,,,,,3,,,75,60
12960,note_on,,,,,96,0,8,,,,,1,,,78,60
12992,note_off,,,,,128,0,7,,,,,0,,,75,100
13024,note_off,,,,,64,0,9,,,,,2,,,78,100
13024,note_off,,,,,64,0,10,,,,,3,,,75,100
13024,note_off,,,,,64,0,8,,,,,1,,,78,100
13056,note_on,,,,,32,0,9,,,,,2,,,76,60
13056,note_on,,,,,32,0,8,,,,,1,,,80,60
13056,note_on,,,,,32,0,10,,,,,3,,,73,60
13056,note_on,,,,,64,0,7,,,,,0,,,76,85
13248,note_off,,,,,192,0,7,,,,,0,,,76,100
13312,note_off,,,,,256,0,10,,,,,3,,,73,100
13312,note_off,,,,,256,0,9,,,,,2,,,76,100
13312,note_off,,,,,256,0,8,,,,,1,,,80,100
13344,note_on,,,,,96,0,7,,,,,0,,,75,85
13436,note_off,,,,,92,0,7,,,,,0,,,75,100
13440,note_on,,,,,4,0,7,,,,,0,,,76,85
13532,note_off,,,,,92,0,7,,,,,0,,,76,100
13536,note_on,,,,,4,0,7,,,,,0,,,78,84
13628,note_off,,,,,92,0,7,,,,,0,,,78,100
13632,note_on,,,,,4,0,7,,,,,0,,,80,84
13724,note_off,,,,,92,0,7,,,,,0,,,80,100
13728,note_on,,,,,4,0,7,,,,,0,,,81,83
13792,note_off,,,,,64,0,7,,,,,0,,,81,100
13824,note_on,,,,,512,0,8,,,,,1,,,75,60
13824,note_on,,,,,32,0,7,,,,,0,,,75,82
13824,note_on,,,,,512,0,10,,,,,3,,,71,60
13824,note_on,,,,,512,0,9,,,,,2,,,75,60
13952,note_off,,,,,128,0,7,,,,,0,,,75,100
14016,note_on,,,,,64,0,7,,,,,0,,,76,81
14016,note_off,,,,,192,0,8,,,,,1,,,75,100
14016,note_off,,,,,192,0,9,,,,,2,,,75,100
14016,note_off,,,,,192,0,10,,,,,3,,,71,100
14080,note_off,,,,,64,0,7,,,,,0,,,76,100
14112,note_on,,,,,96,0,8,,,,,1,,,75,60
14112,note_on,,,,,32,0,7,,,,,0,,,78,81
14112,note_on,,,,,96,0,9,,,,,2,,,75,60
14112,note_on,,,,,96,0,10,,,,,3,,,71,60
14176,note_off,,,,,64,0,8,,,,,1,,,75,100
14176,note_off,,,,,64,0,10,,,,,3,,,71,100
14176,note_off,,,,,64,0,7,,,,,0,,,78,100
14176,note_off,,,,,64,0,9,,,,,2,,,75,100
14208,note_on,,,,,32,0,10,,,,,3,,,71,60
14208,note_on,,,,,32,0,7,,,,,0,,,80,80
14208,note_on,,,,,32,0,8,,,,,1,,,75,60
14208,note_on,,,,,32,0,9,,,,,2,,,75,60
14336,note_off,,,,,128,0,7,,,,,0,,,80,100
14400,note_on,,,,,64,0,7,,,,,0,,,71,79
14400,note_off,,,,,192,0,10,,,,,3,,,71,100
14400,note_off,,,,,192,0,8,,,,,1,,,75,100
14400,note_off,,,,,192,0,9,,,,,2,,,75,100
14496,note_on,,,,,96,0,8,,,,,1,,,75,60
14496,note_on,,,,,96,0,9,,,,,2,,,75,60
14496,note_on,,,,,96,0,10,,,,,3,,,71,60
14528,note_off,,,,,128,0,7,,,,,0,,,71,100
14560,note_off,,,,,64,0,8,,,,,1,,,75,100
14560,note_off,,,,,64,0,9,,,,,2,,,75,100
14560,note_off,,,,,64,0,10,,,,,3,,,71,100
14592,note_on,,,,,32,0,10,,,,,3,,,69,60
14592,note_on,,,,,64,0,7,,,,,0,,,73,78
14592,note_on,,,,,32,0,8,,,,,1,,,76,60
14592,note_on,,,,,32,0,9,,,,,2,,,73,60
14784,note_off,,,,,192,0,7,,,,,0,,,73,100
14848,note_off,,,,,256,0,10,,,,,3,,,69,100
14848,note_off,,,,,256,0,8,,,,,1,,,76,100
14848,note_off,,,,,256,0,9,,,,,2,,,73,100
14880,note_on,,,,,96,0,7,,,,,0,,,71,75
14972,note_off,,,,,92,0,7,,,,,0,,,71,100
14976,note_on,,,,,4,0,7,,,,,0,,,69,76
15068,note_off,,,,,92,0,7,,,,,0,,,69,100
15072,note_on,,,,,4,0,7,,,,,0,,,71,77
15164,note_off,,,,,92,0,7,,,,,0,,,71,100
15168,note_on,,,,,4,0,7,,,,,0,,,73,78
15260,note_off,,,,,92,0,7,,,,,0,,,73,100
15264,note_on,,,,,4,0,7,,,,,0,,,75,79
15328,note_off,,,,,64,0,7,,,,,0,,,75,100
15360,note_on,,,,,512,0,8,,,,,1,,,73,60
15360,note_on,,,,,512,0,9,,,,,2,,,73,60
15360,note_on,,,,,512,0,10,,,,,3,,,70,60
15360,note_on,,,,,32,0,7,,,,,0,,,76,80
15488,note_off,,,,,128,0,7,,,,,0,,,76,100
15552,note_off,,,,,192,0,8,,,,,1,,,73,100
15552,note_on,,,,,64,0,7,,,,,0,,,78,82
15552,note_off,,,,,192,0,10,,,,,3,,,70,100
15552,note_off,,,,,192,0,9,,,,,2,,,73,100
15616,note_off,,,,,64,0,7,,,,,0,,,78,100
15648,note_on,,,,,96,0,8,,,,,1,,,73,60
15648,note_on,,,,,32,0,7,,,,,0,,,80,83
15648,note_on,,,,,96,0,9,,,,,2,,,73,60
15648,note_on,,,,,96,0,10,,,,,3,,,70,60
15712,note_off,,,,,64,0,7,,,,,0,,,80,100
15712,note_off,,,,,64,0,10,,,,,3,,,70,100
15712,note_off,,,,,64,0,8,,,,,1,,,73,100
15712,note_off,,,,,64,0,9,,,,,2,,,73,100
15744,note_on,,,,,32,0,8,,,,,1,,,73,60
15744,note_on,,,,,32,0,7,,,,,0,,,78,84
15744,note_on,,,,,32,0,10,,,,,3,,,66,60
15744,note_on,,,,,32,0,9,,,,,2,,,70,60
15872,note_off,,,,,128,0,7,,,,,0,,,78,100
15936,note_off,,,,,192,0,8,,,,,1,,,73,100
15936,note_off,,,,,192,0,9,,,,,2,,,70,100
15936,note_off,,,,,192,0,10,,,,,3,,,66,100
15936,note_on,,,,,64,0,7,,,,,0,,,76,85
16032,note_on,,,,,96,0,8,,,,,1,,,73,60
16032,note_on,,,,,96,0,10,,,,,3,,,66,60
16032,note_on,,,,,96,0,9,,,,,2,,,70,60
16064,note_off,,,,,128,0,7,,,,,0,,,76,100
16096,note_off,,,,,64,0,10,,,,,3,,,66,100
16096,note_off,,,,,64,0,8,,,,,1,,,73,100
16096,note_off,,,,,64,0,9,,,,,2,,,70,100
16128,note_on,,,,,32,0,10,,,,,3,,,59,60
16128,note_on,,,,,32,0,8,,,,,1,,,71,60
16128,note_on,,,,,32,0,9,,,,,2,,,66,60
16128,note_on,,,,,64,0,7,,,,,0,,,75,85
16256,note_off,,,,,128,0,7,,,,,0,,,75,100
16320,note_on,,,,,64,0,7,,,,,0,,,73,85
16320,note_off,,,,,192,0,8,,,,,1,,,71,100
16320,note_off,,,,,192,0,9,,,,,2,,,66,100
16320,note_off,,,,,192,0,10,,,,,3,,,59,100
16384,note_off,,,,,64,0,7,,,,,0,,,73,100
16416,note_on,,,,,96,0,9,,,,,2,,,66,60
16416,note_on,,,,,32,0,7,,,,,0,,,71,85
16416,note_on,,,,,96,0,10,,,,,3,,,59,60
16416,note_on,,,,,96,0,8,,,,,1,,,71,60
16480,note_off,,,,,64,0,10,,,,,3,,,59,100
16480,note_off,,,,,64,0,7,,,,,0,,,71,100
16480,note_off,,,,,64,0,8,,,,,1,,,71,100
16480,note_off,,,,,64,0,9,,,,,2,,,66,100
16512,note_on,,,,,32,0,9,,,,,2,,,71,60
16512,note_on,,,,,32,0,7,,,,,0,,,83,85
16512,note_on,,,,,32,0,10,,,,,3,,,63,60
16512,note_on,,,,,32,0,8,,,,,1,,,71,60
16640,note_off,,,,,128,0,7,,,,,0,,,83,100
16704,note_on,,,,,64,0,7,,,,,0,,,81,85
16704,note_off,,,,,192,0,9,,,,,2,,,71,100
16704,note_off,,,,,192,0,10,,,,,3,,,63,100
16704,note_off,,,,,192,0,8,,,,,1,,,71,100
16768,note_off,,,,,64,0,7,,,,,0,,,81,100
16800,note_on,,,,,96,0,10,,,,,3,,,63,60
16800,note_on,,,,,96,0,9,,,,,2,,,71,60
16800,note_on,,,,,32,0,7,,,,,0,,,80,85
16800,note_on,,,,,96,0,8,,,,,1,,,71,60
16864,note_off,,,,,64,0,9,,,,,2,,,71,100
16864,note_off,,,,,64,0,8,,,,,1,,,71,100
16864,note_off,,,,,64,0,7,,,,,0,,,80,100
16864,note_off,,,,,64,0,10,,,,,3,,,63,100
16896,note_on,,,,,32,0,10,,,,,3,,,64,60
16896,note_on,,,,,32,0,9,,,,,2,,,71,60
16896,note_on,,,,,32,0,8,,,,,1,,,71,60
16896,note_on,,,,,32,0,7,,,,,0,,,78,85
17024,note_off,,,,,128,0,7,,,,,0,,,78,100
17088,note_off,,,,,192,0,10,,,,,3,,,64,100
17088,note_on,,,,,64,0,7,,,,,0,,,76,85
17088,note_off,,,,,192,0,9,,,,,2,,,71,100
17088,note_off,,,,,192,0,8,,,,,1,,,71,100
17152,note_off,,,,,64,0,7,,,,,0,,,76,100
17184,note_on,,,,,96,0,9,,,,,2,,,71,60
17184,note_on,,,,,96,0,8,,,,,1,,,71,60
17184,note_on,,,,,96,0,10,,,,,3,,,64,60
17184,note_on,,,,,32,0,7,,,,,0,,,75,85
17248,note_off,,,,,64,0,9,,,,,2,,,71,100
17248,note_off,,,,,64,0,10,,,,,3,,,64,100
17248,note_off,,,,,64,0,8,,,,,1,,,71,100
17248,note_off,,,,,64,0,7,,,,,0,,,75,100
17280,note_on,,,,,32,0,9,,,,,2,,,70,60
17280,note_on,,,,,32,0,8,,,,,1,,,70,60
17280,note_on,,,,,32,0,7,,,,,0,,,75,85
17280,note_on,,,,,32,0,10,,,,,3,,,66,60
17324,note_off,,,,,44,0,7,,,,,0,,,75,100
17328,note_on,,,,,4,0,7,,,,,0,,,73,85
17348,note_off,,,,,20,0,7,,,,,0,,,73,100
17352,note_on,,,,,4,0,7,,,,,0,,,75,85
17372,note_off,,,,,20,0,7,,,,,0,,,75,100
17376,note_on,,,,,4,0,7,,,,,0,,,73,85
17396,note_off,,,,,20,0,7,,,,,0,,,73,100
17400,note_on,,,,,4,0,7,,,,,0,,,75,85
17420,note_off,,,,,20,0,7,,,,,0,,,75,100
17424,note_on,,,,,4,0,7,,,,,0,,,73,85
17444,note_off,,,,,20,0,7,,,,,0,,,73,100
17448,note_on,,,,,4,0,7,,,,,0,,,75,85
17468,note_off,,,,,20,0,7,,,,,0,,,75,100
17472,note_on,,,,,4,0,7,,,,,0,,,73,85
17472,note_off,,,,,192,0,8,,,,,1,,,70,100
17472,note_off,,,,,192,0,9,,,,,2,,,70,100
17472,note_off,,,,,192,0,10,,,,,3,,,66,100
17536,note_off,,,,,64,0,7,,,,,0,,,73,100
17568,note_on,,,,,96,0,10,,,,,3,,,66,60
17568,note_on,,,,,32,0,7,,,,,0,,,71,85
17568,note_on,,,,,96,0,8,,,,,1,,,70,60
17568,note_on,,,,,96,0,9,,,,,2,,,70,60
17632,note_off,,,,,64,0,8,,,,,1,,,70,100
17632,note_off,,,,,64,0,7,,,,,0,,,71,100
17632,note_off,,,,,64,0,10,,,,,3,,,66,100
17632,note_off,,,,,64,0,9,,,,,2,,,70,100
17664,note_on,,,,,5056,0,12,,,,,5,,,35,60
17664,note_on,,,,,32,0,8,,,,,1,,,71,60
17664,note_on,,,,,32,0,7,,,,,0,,,71,85
17664,note_on,,,,,32,0,10,,,,,3,,,59,60
17664,note_on,,,,,0,0,13,,,,,6,,,66,100
17664,note_on,,,,,32,0,9,,,,,2,,,71,60
17664,note_on,,,,,5056,0,13,,,,,6,,,63,100
17664,note_on,,,,,5056,0,14,,,,,6,,,47,100
17664,note_on,,,,,5056,0,11,,,,,4,,,47,60
17920,note_off,,,,,256,0,11,,,,,4,,,47,100
17920,note_off,,,,,0,0,13,,,,,6,,,66,100
17920,note_off,,,,,256,0,14,,,,,6,,,47,100
17920,note_off,,,,,256,0,8,,,,,1,,,71,100
17920,note_off,,,,,256,0,10,,,,,3,,,59,100
17920,note_off,,,,,256,0,9,,,,,2,,,71,100
17920,note_off,,,,,256,0,13,,,,,6,,,63,100
17920,note_off,,,,,256,0,7,,,,,0,,,71,100
17920,note_off,,,,,256,0,12,,,,,5,,,35,100
18048,note_on,,,,,128,0,14,,,,,6,,,49,100
18048,note_on,,,,,128,0,13,,,,,6,,,64,100
18048,note_on,,,,,128,0,11,,,,,4,,,49,60
18048,note_on,,,,,128,0,12,,,,,5,,,37,60
18240,note_off,,,,,192,0,11,,,,,4,,,49,100
18240,note_off,,,,,192,0,13,,,,,6,,,64,100
18240,note_off,,,,,192,0,12,,,,,5,,,37,100
18240,note_off,,,,,192,0,14,,,,,6,,,49,100
18336,note_on,,,,,96,0,12,,,,,5,,,39,60
18336,note_on,,,,,96,0,13,,,,,6,,,66,100
18336,note_on,,,,,96,0,11,,,,,4,,,51,60
18336,note_on,,,,,96,0,14,,,,,6,,,51,100
18400,note_off,,,,,64,0,14,,,,,6,,,51,100
18400,note_off,,,,,64,0,13,,,,,6,,,66,100
18400,note_off,,,,,64,0,11,,,,,4,,,51,100
18400,note_off,,,,,64,0,12,,,,,5,,,39,100
18432,note_on,,,,,512,0,7,,,,,0,,,76,85
18432,note_on,,,,,512,0,8,,,,,1,,,80,60
18432,note_on,,,,,32,0,14,,,,,6,,,52,100
18432,note_on,,,,,512,0,9,,,,,2,,,80,20
18432,note_on,,,,,32,0,11,,,,,4,,,52,60
18432,note_on,,,,,512,0,10,,,,,3,,,76,60
18432,note_on,,,,,32,0,12,,,,,5,,,40,60
18432,note_on,,,,,32,0,13,,,,,6,,,68,100
18560,note_off,,,,,128,0,11,,,,,4,,,52,100
18560,note_off,,,,,128,0,7,,,,,0,,,76,100
18560,note_off,,,,,128,0,13,,,,,6,,,68,100
18560,note_off,,,,,128,0,14,,,,,6,,,52,100
18560,note_off,,,,,128,0,12,,,,,5,,,40,100
18624,note_on,,,,,64,0,13,,,,,6,,,56,100
18624,note_on,,,,,64,0,7,,,,,0,,,80,84
18624,note_on,,,,,64,0,11,,,,,4,,,40,60
18624,note_on,,,,,64,0,12,,,,,5,,,40,60
18624,note_on,,,,,64,0,14,,,,,6,,,40,100
18624,note_off,,,,,192,0,8,,,,,1,,,80,100
18624,note_off,,,,,192,0,9,,,,,2,,,80,100
18624,note_off,,,,,192,0,10,,,,,3,,,76,100
18624,note_on,,,,,0,0,13,,,,,6,,,59,100
18688,note_off,,,,,64,0,7,,,,,0,,,80,100
18720,note_on,,,,,96,0,8,,,,,1,,,80,60
18720,note_on,,,,,96,0,10,,,,,3,,,76,60
18720,note_on,,,,,96,0,9,,,,,2,,,80,20
18720,note_on,,,,,32,0,7,,,,,0,,,81,84
18752,note_off,,,,,128,0,12,,,,,5,,,40,100
18752,note_off,,,,,128,0,11,,,,,4,,,40,100
18752,note_off,,,,,0,0,13,,,,,6,,,59,100
18752,note_off,,,,,128,0,14,,,,,6,,,40,100
18752,note_off,,,,,128,0,13,,,,,6,,,56,100
18784,note_off,,,,,64,0,10,,,,,3,,,76,100
18784,note_off,,,,,64,0,8,,,,,1,,,80,100
18784,note_off,,,,,64,0,7,,,,,0,,,81,100
18784,note_off,,,,,64,0,9,,,,,2,,,80,100
18816,note_on,,,,,32,0,7,,,,,0,,,83,83
18816,note_on,,,,,32,0,10,,,,,3,,,75,60
18816,note_on,,,,,32,0,8,,,,,1,,,78,60
18816,note_on,,,,,32,0,9,,,,,2,,,78,20
18944,note_off,,,,,128,0,7,,,,,0,,,83,100
19008,note_on,,,,,64,0,7,,,,,0,,,75,82
19008,note_off,,,,,192,0,10,,,,,3,,,75,100
19008,note_off,,,,,192,0,9,,,,,2,,,78,100
19008,note_off,,,,,192,0,8,,,,,1,,,78,100
19104,note_on,,,,,96,0,8,,,,,1,,,78,60
19104,note_on,,,,,96,0,9,,,,,2,,,78,20
19104,note_on,,,,,96,0,10,,,,,3,,,75,60
19136,note_off,,,,,128,0,7,,,,,0,,,75,100
19168,note_off,,,,,64,0,9,,,,,2,,,78,100
19168,note_off,,,,,64,0,8,,,,,1,,,78,100
19168,note_off,,,,,64,0,10,,,,,3,,,75,100
19200,note_on,,,,,64,0,7,,,,,0,,,76,81
19200,note_on,,,,,32,0,9,,,,,2,,,76,20
19200,note_on,,,,,32,0,8,,,,,1,,,76,60
19200,note_on,,,,,32,0,10,,,,,3,,,73,60
19456,note_off,,,,,256,0,10,,,,,3,,,73,100
19456,note_off,,,,,256,0,9,,,,,2,,,76,100
19456,note_off,,,,,256,0,8,,,,,1,,,76,100
19456,note_off,,,,,256,0,7,,,,,0,,,76,100
19776,note_on,,,,,320,0,10,,,,,3,,,64,50
19776,note_on,,,,,320,0,9,,,,,2,,,68,50
19776,note_on,,,,,320,0,8,,,,,1,,,71,50
19776,note_on,,,,,320,0,7,,,,,0,,,76,60
19904,note_off,,,,,128,0,7,,,,,0,,,76,100
19904,note_off,,,,,128,0,10,,,,,3,,,64,100
19904,note_off,,,,,128,0,8,,,,,1,,,71,100
19904,note_off,,,,,128,0,9,,,,,2,,,68,100
19968,note_on,,,,,64,0,7,,,,,0,,,78,60
19968,note_on,,,,,64,0,8,,,,,1,,,71,50
19968,note_on,,,,,64,0,10,,,,,3,,,63,50
19968,note_on,,,,,64,0,9,,,,,2,,,66,50
20096,note_off,,,,,128,0,7,,,,,0,,,78,100
20160,note_off,,,,,192,0,9,,,,,2,,,66,100
20160,note_off,,,,,192,0,8,,,,,1,,,71,100
20160,note_off,,,,,192,0,10,,,,,3,,,63,100
20160,note_on,,,,,64,0,7,,,,,0,,,80,60
20256,note_on,,,,,96,0,9,,,,,2,,,66,50
20256,note_on,,,,,96,0,10,,,,,3,,,63,50
20256,note_on,,,,,96,0,8,,,,,1,,,71,50
20288,note_off,,,,,128,0,7,,,,,0,,,80,100
20320,note_off,,,,,64,0,10,,,,,3,,,63,100
20320,note_off,,,,,64,0,8,,,,,1,,,71,100
20320,note_off,,,,,64,0,9,,,,,2,,,66,100
20352,note_on,,,,,32,0,10,,,,,3,,,63,50
20352,note_on,,,,,64,0,7,,,,,0,,,81,60
20352,note_on,,,,,32,0,9,,,,,2,,,66,50
20352,note_on,,,,,32,0,8,,,,,1,,,71,50
20480,note_off,,,,,128,0,7,,,,,0,,,81,100
20544,note_off,,,,,192,0,9,,,,,2,,,66,100
20544,note_on,,,,,64,0,7,,,,,0,,,83,60
20544,note_off,,,,,192,0,8,,,,,1,,,71,100
20544,note_off,,,,,192,0,10,,,,,3,,,63,100
20608,note_off,,,,,64,0,7,,,,,0,,,83,100
20640,note_on,,,,,32,0,7,,,,,0,,,81,60
20640,note_on,,,,,96,0,9,,,,,2,,,66,50
20640,note_on,,,,,96,0,8,,,,,1,,,71,50
20640,note_on,,,,,96,0,10,,,,,3,,,63,50
20704,note_off,,,,,64,0,7,,,,,0,,,81,100
20704,note_off,,,,,64,0,8,,,,,1,,,71,100
20704,note_off,,,,,64,0,10,,,,,3,,,63,100
20704,note_off,,,,,64,0,9,,,,,2,,,66,100
20736,note_on,,,,,1984,0,11,,,,,4,,,52,60
20736,note_on,,,,,1984,0,13,,,,,6,,,68,100
20736,note_on,,,,,1984,0,14,,,,,6,,,52,100
20736,note_on,,,,,32,0,10,,,,,3,,,64,50
20736,note_on,,,,,32,0,7,,,,,0,,,80,60
20736,note_on,,,,,32,0,8,,,,,1,,,71,50
20736,note_on,,,,,1984,0,12,,,,,5,,,40,60
20736,note_on,,,,,32,0,9,,,,,2,,,68,50
20736,note_on,,,,,0,0,13,,,,,6,,,71,100
20800,note_off,,,,,64,0,7,,,,,0,,,80,100
20832,note_on,,,,,32,0,7,,,,,0,,,78,60
20896,note_off,,,,,64,0,7,,,,,0,,,78,100
20928,note_on,,,,,32,0,7,,,,,0,,,76,60
20992,note_off,,,,,256,0,14,,,,,6,,,52,100
20992,note_off,,,,,256,0,9,,,,,2,,,68,100
20992,note_off,,,,,256,0,10,,,,,3,,,64,100
20992,note_off,,,,,256,0,8,,,,,1,,,71,100
20992,note_off,,,,,256,0,12,,,,,5,,,40,100
20992,note_off,,,,,256,0,13,,,,,6,,,68,100
20992,note_off,,,,,256,0,11,,,,,4,,,52,100
20992,note_off,,,,,0,0,13,,,,,6,,,71,100
21056,note_off,,,,,128,0,7,,,,,0,,,76,100
21120,note_on,,,,,128,0,11,,,,,4,,,56,60
21120,note_on,,,,,128,0,14,,,,,6,,,56,100
21120,note_on,,,,,128,0,13,,,,,6,,,71,100
21120,note_on,,,,,128,0,12,,,,,5,,,44,60
21312,note_off,,,,,192,0,14,,,,,6,,,56,100
21312,note_off,,,,,192,0,13,,,,,6,,,71,100
21312,note_off,,,,,192,0,12,,,,,5,,,44,100
21312,note_off,,,,,192,0,11,,,,,4,,,56,100
21408,note_on,,,,,96,0,14,,,,,6,,,57,100
21408,note_on,,,,,96,0,13,,,,,6,,,73,100
21408,note_on,,,,,96,0,12,,,,,5,,,45,60
21408,note_on,,,,,96,0,11,,,,,4,,,57,60
21472,note_off,,,,,64,0,14,,,,,6,,,57,100
21472,note_off,,,,,64,0,11,,,,,4,,,57,100
21472,note_off,,,,,64,0,12,,,,,5,,,45,100
21472,note_off,,,,,64,0,13,,,,,6,,,73,100
21504,note_on,,,,,512,0,8,,,,,1,,,78,60
21504,note_on,,,,,32,0,11,,,,,4,,,59,60
21504,note_on,,,,,448,0,7,,,,,0,,,78,85
21504,note_on,,,,,512,0,10,,,,,3,,,59,60
21504,note_on,,,,,512,0,9,,,,,2,,,75,60
21504,note_on,,,,,32,0,12,,,,,5,,,47,60
21504,note_on,,,,,32,0,14,,,,,6,,,59,100
21504,note_on,,,,,32,0,13,,,,,6,,,75,100
21632,note_off,,,,,128,0,7,,,,,0,,,78,100
21632,note_off,,,,,128,0,14,,,,,6,,,59,100
21632,note_off,,,,,128,0,13,,,,,6,,,75,100
21632,note_off,,,,,128,0,12,,,,,5,,,47,100
21632,note_off,,,,,128,0,11,,,,,4,,,59,100
21696,note_on,,,,,64,0,11,,,,,4,,,47,60
21696,note_on,,,,,64,0,13,,,,,6,,,63,100
21696,note_on,,,,,64,0,7,,,,,0,,,80,85
21696,note_on,,,,,0,0,13,,,,,6,,,66,100
21696,note_off,,,,,192,0,9,,,,,2,,,75,100
21696,note_on,,,,,64,0,12,,,,,5,,,35,60
21696,note_off,,,,,192,0,8,,,,,1,,,78,100
21696,note_on,,,,,64,0,14,,,,,6,,,47,100
21696,note_off,,,,,192,0,10,,,,,3,,,59,100
21788,note_off,,,,,92,0,7,,,,,0,,,80,100
21792,note_on,,,,,4,0,7,,,,,0,,,81,85
21792,note_on,,,,,96,0,8,,,,,1,,,78,60
21792,note_on,,,,,96,0,9,,,,,2,,,75,60
21792,note_on,,,,,96,0,10,,,,,3,,,59,60
21824,note_off,,,,,128,0,14,,,,,6,,,47,100
21824,note_off,,,,,0,0,13,,,,,6,,,66,100
21824,note_off,,,,,128,0,13,,,,,6,,,63,100
21824,note_off,,,,,128,0,11,,,,,4,,,47,100
21824,note_off,,,,,128,0,12,,,,,5,,,35,100
21856,note_off,,,,,64,0,10,,,,,3,,,59,100
21856,note_off,,,,,64,0,8,,,,,1,,,78,100
21856,note_off,,,,,64,0,9,,,,,2,,,75,100
21856,note_off,,,,,64,0,7,,,,,0,,,81,100
21888,note_on,,,,,32,0,7,,,,,0,,,80,85
21888,note_on,,,,,32,0,10,,,,,3,,,60,60
21888,note_on,,,,,32,0,9,,,,,2,,,75,60
21888,note_on,,,,,32,0,8,,,,,1,,,78,60
21980,note_off,,,,,92,0,7,,,,,0,,,80,100
21984,note_on,,,,,4,0,7,,,,,0,,,78,85
22048,note_off,,,,,64,0,7,,,,,0,,,78,100
22080,note_off,,,,,192,0,9,,,,,2,,,75,100
22080,note_off,,,,,192,0,8,,,,,1,,,78,100
22080,note_on,,,,,32,0,7,,,,,0,,,76,85
22080,note_off,,,,,192,0,10,,,,,3,,,60,100
22172,note_off,,,,,92,0,7,,,,,0,,,76,100
22176,note_on,,,,,96,0,9,,,,,2,,,75,60
22176,note_on,,,,,4,0,7,,,,,0,,,75,85
22176,note_on,,,,,96,0,8,,,,,1,,,78,60
22176,note_on,,,,,96,0,10,,,,,3,,,60,60
22240,note_off,,,,,64,0,10,,,,,3,,,60,100
22240,note_off,,,,,64,0,8,,,,,1,,,78,100
22240,note_off,,,,,64,0,9,,,,,2,,,75,100
22240,note_off,,,,,64,0,7,,,,,0,,,75,100
22272,note_on,,,,,32,0,10,,,,,3,,,61,60
22272,note_on,,,,,32,0,9,,,,,2,,,68,60
22272,note_on,,,,,32,0,7,,,,,0,,,76,85
22272,note_on,,,,,32,0,8,,,,,1,,,76,60
22400,note_off,,,,,128,0,7,,,,,0,,,76,100
22464,note_on,,,,,64,0,7,,,,,0,,,75,85
22528,note_off,,,,,256,0,10,,,,,3,,,61,100
22528,note_off,,,,,256,0,9,,,,,2,,,68,100
22528,note_off,,,,,256,0,8,,,,,1,,,76,100
22556,note_off,,,,,92,0,7,,,,,0,,,75,100
22560,note_on,,,,,4,0,7,,,,,0,,,73,85
22624,note_off,,,,,64,0,7,,,,,0,,,73,100
22656,note_on,,,,,32,0,7,,,,,0,,,81,85
22748,note_off,,,,,92,0,7,,,,,0,,,81,100
22752,note_on,,,,,4,0,7,,,,,0,,,78,85
22816,note_off,,,,,64,0,7,,,,,0,,,78,100
22848,note_on,,,,,32,0,7,,,,,0,,,80,85
22940,note_off,,,,,92,0,7,,,,,0,,,80,100
22944,note_on,,,,,4,0,7,,,,,0,,,76,85
22944,note_on,,,,,416,0,10,,,,,3,,,73,60
22944,note_on,,,,,416,0,9,,,,,2,,,76,60
22944,note_on,,,,,416,0,8,,,,,1,,,81,60
23008,note_off,,,,,64,0,7,,,,,0,,,76,100
23008,note_off,,,,,64,0,9,,,,,2,,,76,100
23008,note_off,,,,,64,0,10,,,,,3,,,73,100
23008,note_off,,,,,64,0,8,,,,,1,,,81,100
23040,note_on,,,,,32,0,8,,,,,1,,,81,60
23040,note_on,,,,,32,0,7,,,,,0,,,75,85
23040,note_on,,,,,32,0,9,,,,,2,,,78,60
23040,note_on,,,,,32,0,10,,,,,3,,,71,60
23168,note_off,,,,,128,0,7,,,,,0,,,75,100
23232,note_off,,,,,192,0,8,,,,,1,,,81,100
23232,note_off,,,,,192,0,9,,,,,2,,,78,100
23232,note_off,,,,,192,0,10,,,,,3,,,71,100
23232,note_on,,,,,64,0,7,,,,,0,,,76,84
23324,note_off,,,,,92,0,7,,,,,0,,,76,100
23328,note_on,,,,,96,0,8,,,,,1,,,81,60
23328,note_on,,,,,96,0,9,,,,,2,,,78,60
23328,note_on,,,,,96,0,10,,,,,3,,,71,60
23328,note_on,,,,,4,0,7,,,,,0,,,78,83
23392,note_off,,,,,64,0,7,,,,,0,,,78,100
23392,note_off,,,,,64,0,9,,,,,2,,,78,100
23392,note_off,,,,,64,0,8,,,,,1,,,81,100
23392,note_off,,,,,64,0,10,,,,,3,,,71,100
23424,note_on,,,,,32,0,8,,,,,1,,,80,60
23424,note_on,,,,,32,0,7,,,,,0,,,80,82
23424,note_on,,,,,32,0,9,,,,,2,,,75,60
23424,note_on,,,,,32,0,10,,,,,3,,,71,60
23516,note_off,,,,,92,0,7,,,,,0,,,80,100
23520,note_on,,,,,4,0,7,,,,,0,,,78,81
23584,note_off,,,,,64,0,7,,,,,0,,,78,100
23616,note_off,,,,,192,0,10,,,,,3,,,71,100
23616,note_off,,,,,192,0,9,,,,,2,,,75,100
23616,note_off,,,,,192,0,8,,,,,1,,,80,100
23616,note_on,,,,,32,0,7,,,,,0,,,76,80
23708,note_off,,,,,92,0,7,,,,,0,,,76,100
23712,note_on,,,,,96,0,9,,,,,2,,,75,60
23712,note_on,,,,,96,0,8,,,,,1,,,80,60
23712,note_on,,,,,96,0,10,,,,,3,,,71,60
23712,note_on,,,,,4,0,7,,,,,0,,,75,79
23776,note_off,,,,,64,0,9,,,,,2,,,75,100
23776,note_off,,,,,64,0,8,,,,,1,,,80,100
23776,note_off,,,,,64,0,7,,,,,0,,,75,100
23776,note_off,,,,,64,0,10,,,,,3,,,71,100
23808,note_on,,,,,32,0,7,,,,,0,,,73,78
23808,note_on,,,,,32,0,8,,,,,1,,,80,60
23808,note_on,,,,,32,0,9,,,,,2,,,76,60
23808,note_on,,,,,32,0,10,,,,,3,,,69,60
23936,note_off,,,,,128,0,7,,,,,0,,,73,100
24000,note_off,,,,,192,0,8,,,,,1,,,80,100
24000,note_off,,,,,192,0,9,,,,,2,,,76,100
24000,note_on,,,,,64,0,7,,,,,0,,,75,82
24000,note_off,,,,,192,0,10,,,,,3,,,69,100
24092,note_off,,,,,92,0,7,,,,,0,,,75,100
24096,note_on,,,,,96,0,10,,,,,3,,,69,60
24096,note_on,,,,,96,0,8,,,,,1,,,80,60
24096,note_on,,,,,96,0,9,,,,,2,,,76,60
24096,note_on,,,,,4,0,7,,,,,0,,,76,82
24160,note_off,,,,,64,0,8,,,,,1,,,80,100
24160,note_off,,,,,64,0,10,,,,,3,,,69,100
24160,note_off,,,,,64,0,9,,,,,2,,,76,100
24160,note_off,,,,,64,0,7,,,,,0,,,76,100
24192,note_on,,,,,32,0,9,,,,,2,,,73,60
24192,note_on,,,,,32,0,10,,,,,3,,,69,60
24192,note_on,,,,,32,0,8,,,,,1,,,78,60
24192,note_on,,,,,32,0,7,,,,,0,,,78,81
24284,note_off,,,,,92,0,7,,,,,0,,,78,100
24288,note_on,,,,,4,0,7,,,,,0,,,75,80
24352,note_off,,,,,64,0,7,,,,,0,,,75,100
24384,note_off,,,,,192,0,8,,,,,1,,,78,100
24384,note_off,,,,,192,0,10,,,,,3,,,69,100
24384,note_on,,,,,32,0,7,,,,,0,,,76,79
24384,note_off,,,,,192,0,9,,,,,2,,,73,100
24476,note_off,,,,,92,0,7,,,,,0,,,76,100
24480,note_on,,,,,96,0,10,,,,,3,,,69,60
24480,note_on,,,,,4,0,7,,,,,0,,,73,78
24480,note_on,,,,,96,0,9,,,,,2,,,73,60
24480,note_on,,,,,96,0,8,,,,,1,,,78,60
24544,note_off,,,,,64,0,9,,,,,2,,,73,100
24544,note_off,,,,,64,0,8,,,,,1,,,78,100
24544,note_off,,,,,64,0,10,,,,,3,,,69,100
24544,note_off,,,,,64,0,7,,,,,0,,,73,100
24576,note_on,,,,,32,0,8,,,,,1,,,78,60
24576,note_on,,,,,32,0,10,,,,,3,,,68,60
24576,note_on,,,,,32,0,9,,,,,2,,,75,60
24576,note_on,,,,,32,0,7,,,,,0,,,72,77
24704,note_off,,,,,128,0,7,,,,,0,,,72,100
24768,note_on,,,,,64,0,7,,,,,0,,,68,79
24832,note_off,,,,,256,0,8,,,,,1,,,78,100
24832,note_off,,,,,256,0,10,,,,,3,,,68,100
24832,note_off,,,,,256,0,9,,,,,2,,,75,100
24896,note_off,,,,,128,0,7,,,,,0,,,68,100
24960,note_on,,,,,128,0,10,,,,,3,,,60,60
24960,note_on,,,,,64,0,7,,,,,0,,,81,85
24960,note_on,,,,,128,0,9,,,,,2,,,68,60
24960,note_on,,,,,128,0,8,,,,,1,,,75,60
25004,note_off,,,,,44,0,7,,,,,0,,,81,100
25008,note_on,,,,,4,0,7,,,,,0,,,80,85
25028,note_off,,,,,20,0,7,,,,,0,,,80,100
25032,note_on,,,,,4,0,7,,,,,0,,,81,84
25052,note_off,,,,,20,0,7,,,,,0,,,81,100
25056,note_on,,,,,4,0,7,,,,,0,,,80,84
25076,note_off,,,,,20,0,7,,,,,0,,,80,100
25080,note_on,,,,,4,0,7,,,,,0,,,81,83
25100,note_off,,,,,20,0,7,,,,,0,,,81,100
25104,note_on,,,,,4,0,7,,,,,0,,,80,83
25124,note_off,,,,,20,0,7,,,,,0,,,80,100
25128,note_on,,,,,4,0,7,,,,,0,,,81,82
25148,note_off,,,,,20,0,7,,,,,0,,,81,100
25152,note_off,,,,,192,0,10,,,,,3,,,60,100
25152,note_on,,,,,4,0,7,,,,,0,,,80,82
25152,note_off,,,,,192,0,8,,,,,1,,,75,100
25152,note_off,,,,,192,0,9,,,,,2,,,68,100
25216,note_off,,,,,64,0,7,,,,,0,,,80,100
25248,note_on,,,,,32,0,7,,,,,0,,,78,80
25248,note_on,,,,,96,0,8,,,,,1,,,75,60
25248,note_on,,,,,96,0,10,,,,,3,,,60,60
25248,note_on,,,,,96,0,9,,,,,2,,,68,60
25312,note_off,,,,,64,0,7,,,,,0,,,78,100
25312,note_off,,,,,64,0,10,,,,,3,,,60,100
25312,note_off,,,,,64,0,9,,,,,2,,,68,100
25312,note_off,,,,,64,0,8,,,,,1,,,75,100
25344,note_on,,,,,32,0,10,,,,,3,,,61,60
25344,note_on,,,,,32,0,9,,,,,2,,,68,60
25344,note_on,,,,,32,0,8,,,,,1,,,73,60
25344,note_on,,,,,32,0,7,,,,,0,,,76,78
25472,note_off,,,,,128,0,7,,,,,0,,,76,100
25536,note_on,,,,,64,0,7,,,,,0,,,75,77
25536,note_off,,,,,192,0,10,,,,,3,,,61,100
25536,note_off,,,,,192,0,8,,,,,1,,,73,100
25536,note_off,,,,,192,0,9,,,,,2,,,68,100
25600,note_off,,,,,64,0,7,,,,,0,,,75,100
25632,note_on,,,,,32,0,7,,,,,0,,,73,78
25632,note_on,,,,,96,0,9,,,,,2,,,69,60
25632,note_on,,,,,96,0,8,,,,,1,,,69,60
25632,note_on,,,,,96,0,10,,,,,3,,,66,60
25696,note_off,,,,,64,0,9,,,,,2,,,69,100
25696,note_off,,,,,64,0,8,,,,,1,,,69,100
25696,note_off,,,,,64,0,7,,,,,0,,,73,100
25696,note_off,,,,,64,0,10,,,,,3,,,66,100
25728,note_on,,,,,32,0,9,,,,,2,,,68,60
25728,note_on,,,,,32,0,10,,,,,3,,,68,60
25728,note_on,,,,,32,0,7,,,,,0,,,73,79
25728,note_on,,,,,32,0,8,,,,,1,,,68,60
25772,note_off,,,,,44,0,7,,,,,0,,,73,100
25776,note_on,,,,,4,0,7,,,,,0,,,72,80
25796,note_off,,,,,20,0,7,,,,,0,,,72,100
25800,note_on,,,,,4,0,7,,,,,0,,,73,81
25820,note_off,,,,,20,0,7,,,,,0,,,73,100
25824,note_on,,,,,4,0,7,,,,,0,,,72,81
25844,note_off,,,,,20,0,7,,,,,0,,,72,100
25848,note_on,,,,,4,0,7,,,,,0,,,73,81
25868,note_off,,,,,20,0,7,,,,,0,,,73,100
25872,note_on,,,,,4,0,7,,,,,0,,,72,82
25892,note_off,,,,,20,0,7,,,,,0,,,72,100
25896,note_on,,,,,4,0,7,,,,,0,,,73,82
25916,note_off,,,,,20,0,7,,,,,0,,,73,100
25920,note_off,,,,,192,0,8,,,,,1,,,68,100
25920,note_on,,,,,4,0,7,,,,,0,,,72,82
25920,note_off,,,,,192,0,10,,,,,3,,,68,100
25920,note_off,,,,,192,0,9,,,,,2,,,68,100
25984,note_off,,,,,64,0,7,,,,,0,,,72,100
26016,note_on,,,,,96,0,8,,,,,1,,,68,60
26016,note_on,,,,,32,0,7,,,,,0,,,73,84
26016,note_on,,,,,96,0,10,,,,,3,,,56,60
26016,note_on,,,,,96,0,9,,,,,2,,,68,60
26080,note_off,,,,,64,0,7,,,,,0,,,73,100
26080,note_off,,,,,64,0,9,,,,,2,,,68,100
26080,note_off,,,,,64,0,10,,,,,3,,,56,100
26080,note_off,,,,,64,0,8,,,,,1,,,68,100
26112,note_on,,,,,4288,0,13,,,,,6,,,64,100
26112,note_on,,,,,0,0,13,,,,,6,,,68,100
26112,note_on,,,,,32,0,8,,,,,1,,,68,60
26112,note_on,,,,,4288,0,12,,,,,5,,,37,60
26112,note_on,,,,,32,0,7,,,,,0,,,73,85
26112,note_on,,,,,32,0,9,,,,,2,,,68,60
26112,note_on,,,,,32,0,10,,,,,3,,,61,60
26112,note_on,,,,,4288,0,14,,,,,6,,,49,100
26112,note_on,,,,,4288,0,11,,,,,4,,,49,60
26368,note_off,,,,,256,0,14,,,,,6,,,49,100
26368,note_off,,,,,256,0,7,,,,,0,,,73,100
26368,note_off,,,,,0,0,13,,,,,6,,,68,100
26368,note_off,,,,,256,0,13,,,,,6,,,64,100
26368,note_off,,,,,256,0,8,,,,,1,,,68,100
26368,note_off,,,,,256,0,12,,,,,5,,,37,100
26368,note_off,,,,,256,0,10,,,,,3,,,61,100
26368,note_off,,,,,256,0,11,,,,,4,,,49,100
26368,note_off,,,,,256,0,9,,,,,2,,,68,100
26496,note_on,,,,,128,0,11,,,,,4,,,52,60
26496,note_on,,,,,128,0,14,,,,,6,,,52,100
26496,note_on,,,,,128,0,13,,,,,6,,,68,100
26496,note_on,,,,,128,0,12,,,,,5,,,40,60
26688,note_off,,,,,192,0,13,,,,,6,,,68,100
26688,note_off,,,,,192,0,11,,,,,4,,,52,100
26688,note_off,,,,,192,0,14,,,,,6,,,52,100
26688,note_off,,,,,192,0,12,,,,,5,,,40,100
26784,note_on,,,,,96,0,14,,,,,6,,,54,100
26784,note_on,,,,,96,0,13,,,,,6,,,69,100
26784,note_on,,,,,96,0,12,,,,,5,,,42,60
26784,note_on,,,,,96,0,11,,,,,4,,,54,60
26848,note_off,,,,,64,0,14,,,,,6,,,54,100
26848,note_off,,,,,64,0,13,,,,,6,,,69,100
26848,note_off,,,,,64,0,12,,,,,5,,,42,100
26848,note_off,,,,,64,0,11,,,,,4,,,54,100
26880,note_on,,,,,512,0,10,,,,,3,,,60,60
26880,note_on,,,,,32,0,13,,,,,6,,,72,100
26880,note_on,,,,,0,0,13,,,,,6,,,63,100
26880,note_on,,,,,512,0,8,,,,,1,,,75,60
26880,note_on,,,,,512,0,9,,,,,2,,,68,60
26880,note_on,,,,,32,0,11,,,,,4,,,56,60
26880,note_on,,,,,512,0,7,,,,,0,,,75,85
26880,note_on,,,,,32,0,14,,,,,6,,,56,100
26880,note_on,,,,,32,0,12,,,,,5,,,44,60
27008,note_off,,,,,128,0,14,,,,,6,,,56,100
27008,note_off,,,,,128,0,7,,,,,0,,,75,100
27008,note_off,,,,,128,0,13,,,,,6,,,72,100
27008,note_off,,,,,0,0,13,,,,,6,,,63,100
27008,note_off,,,,,128,0,12,,,,,5,,,44,100
27008,note_off,,,,,128,0,11,,,,,4,,,56,100
27072,note_on,,,,,0,0,13,,,,,6,,,63,100
27072,note_on,,,,,64,0,12,,,,,5,,,44,60
27072,note_off,,,,,192,0,8,,,,,1,,,75,100
27072,note_off,,,,,192,0,9,,,,,2,,,68,100
27072,note_on,,,,,64,0,11,,,,,4,,,44,60
27072,note_on,,,,,64,0,7,,,,,0,,,76,85
27072,note_on,,,,,64,0,14,,,,,6,,,44,100
27072,note_off,,,,,192,0,10,,,,,3,,,60,100
27072,note_on,,,,,64,0,13,,,,,6,,,60,100
27136,note_off,,,,,64,0,7,,,,,0,,,76,100
27168,note_on,,,,,96,0,10,,,,,3,,,60,60
27168,note_on,,,,,32,0,7,,,,,0,,,78,85
27168,note_on,,,,,96,0,8,,,,,1,,,75,60
27168,note_on,,,,,96,0,9,,,,,2,,,68,60
27200,note_off,,,,,128,0,14,,,,,6,,,44,100
27200,note_off,,,,,128,0,12,,,,,5,,,44,100
27200,note_off,,,,,128,0,11,,,,,4,,,44,100
27200,note_off,,,,,128,0,13,,,,,6,,,60,100
27200,note_off,,,,,0,0,13,,,,,6,,,63,100
27232,note_off,,,,,64,0,7,,,,,0,,,78,100
27232,note_off,,,,,64,0,8,,,,,1,,,75,100
27232,note_off,,,,,64,0,9,,,,,2,,,68,100
27232,note_off,,,,,64,0,10,,,,,3,,,60,100
27264,note_on,,,,,32,0,9,,,,,2,,,68,60
27264,note_on,,,,,32,0,10,,,,,3,,,60,60
27264,note_on,,,,,32,0,7,,,,,0,,,80,85
27264,note_on,,,,,32,0,8,,,,,1,,,75,60
27456,note_off,,,,,192,0,8,,,,,1,,,75,100
27456,note_off,,,,,192,0,9,,,,,2,,,68,100
27456,note_off,,,,,192,0,10,,,,,3,,,60,100
27456,note_off,,,,,192,0,7,,,,,0,,,80,100
27552,note_on,,,,,96,0,10,,,,,3,,,60,60
27552,note_on,,,,,96,0,8,,,,,1,,,75,60
27552,note_on,,,,,96,0,9,,,,,2,,,68,60
27552,note_on,,,,,96,0,7,,,,,0,,,78,85
27616,note_off,,,,,64,0,8,,,,,1,,,75,100
27616,note_off,,,,,64,0,10,,,,,3,,,60,100
27616,note_off,,,,,64,0,9,,,,,2,,,68,100
27616,note_off,,,,,64,0,7,,,,,0,,,78,100
27648,note_on,,,,,32,0,10,,,,,3,,,61,60
27648,note_on,,,,,32,0,7,,,,,0,,,76,85
27648,note_on,,,,,32,0,8,,,,,1,,,76,60
27648,note_on,,,,,32,0,9,,,,,2,,,68,60
27712,note_off,,,,,64,0,7,,,,,0,,,76,100
27744,note_on,,,,,32,0,7,,,,,0,,,75,85
27808,note_off,,,,,64,0,7,,,,,0,,,75,100
27840,note_on,,,,,32,0,7,,,,,0,,,73,85
27904,note_off,,,,,256,0,8,,,,,1,,,76,100
27904,note_off,,,,,256,0,9,,,,,2,,,68,100
27904,note_off,,,,,256,0,10,,,,,3,,,61,100
27968,note_off,,,,,128,0,7,,,,,0,,,73,100
28416,note_on,,,,,512,0,10,,,,,3,,,61,60
28416,note_on,,,,,512,0,9,,,,,2,,,69,60
28416,note_on,,,,,448,0,7,,,,,0,,,76,85
28416,note_on,,,,,512,0,8,,,,,1,,,76,60
28544,note_off,,,,,128,0,7,,,,,0,,,76,100
28608,note_off,,,,,192,0,8,,,,,1,,,76,100
28608,note_off,,,,,192,0,9,,,,,2,,,69,100
28608,note_on,,,,,64,0,7,,,,,0,,,78,85
28608,note_off,,,,,192,0,10,,,,,3,,,61,100
28700,note_off,,,,,92,0,7,,,,,0,,,78,100
28704,note_on,,,,,96,0,9,,,,,2,,,69,60
28704,note_on,,,,,96,0,10,,,,,3,,,61,60
28704,note_on,,,,,96,0,8,,,,,1,,,76,60
28704,note_on,,,,,4,0,7,,,,,0,,,80,85
28768,note_off,,,,,64,0,9,,,,,2,,,69,100
28768,note_off,,,,,64,0,10,,,,,3,,,61,100
28768,note_off,,,,,64,0,8,,,,,1,,,76,100
28768,note_off,,,,,64,0,7,,,,,0,,,80,100
28800,note_on,,,,,32,0,10,,,,,3,,,61,60
28800,note_on,,,,,32,0,8,,,,,1,,,76,60
28800,note_on,,,,,32,0,9,,,,,2,,,69,60
28800,note_on,,,,,32,0,7,,,,,0,,,81,85
28892,note_off,,,,,92,0,7,,,,,0,,,81,100
28896,note_on,,,,,4,0,7,,,,,0,,,80,85
28960,note_off,,,,,64,0,7,,,,,0,,,80,100
28992,note_off,,,,,192,0,9,,,,,2,,,69,100
28992,note_off,,,,,192,0,8,,,,,1,,,76,100
28992,note_off,,,,,192,0,10,,,,,3,,,61,100
28992,note_on,,,,,32,0,7,,,,,0,,,78,85
29084,note_off,,,,,92,0,7,,,,,0,,,78,100
29088,note_on,,,,,96,0,10,,,,,3,,,61,60
29088,note_on,,,,,96,0,9,,,,,2,,,73,60
29088,note_on,,,,,4,0,7,,,,,0,,,76,85
29088,note_on,,,,,96,0,8,,,,,1,,,81,60
29152,note_off,,,,,64,0,10,,,,,3,,,61,100
29152,note_off,,,,,64,0,7,,,,,0,,,76,100
29152,note_off,,,,,64,0,9,,,,,2,,,73,100
29152,note_off,,,,,64,0,8,,,,,1,,,81,100
29184,note_on,,,,,32,0,9,,,,,2,,,71,60
29184,note_on,,,,,32,0,7,,,,,0,,,78,85
29184,note_on,,,,,32,0,10,,,,,3,,,63,60
29184,note_on,,,,,32,0,8,,,,,1,,,78,60
29248,note_off,,,,,64,0,7,,,,,0,,,78,100
29280,note_on,,,,,32,0,7,,,,,0,,,76,85
29344,note_off,,,,,64,0,7,,,,,0,,,76,100
29376,note_on,,,,,32,0,7,,,,,0,,,75,85
29440,note_off,,,,,256,0,9,,,,,2,,,71,100
29440,note_off,,,,,256,0,8,,,,,1,,,78,100
29440,note_off,,,,,256,0,10,,,,,3,,,63,100
29504,note_off,,,,,128,0,7,,,,,0,,,75,100
29952,note_on,,,,,512,0,8,,,,,1,,,78,50
29952,note_on,,,,,512,0,9,,,,,2,,,71,50
29952,note_on,,,,,448,0,7,,,,,0,,,78,60
29952,note_on,,,,,512,0,10,,,,,3,,,63,50
30080,note_off,,,,,128,0,7,,,,,0,,,78,100
30144,note_off,,,,,192,0,8,,,,,1,,,78,100
30144,note_off,,,,,192,0,9,,,,,2,,,71,100
30144,note_on,,,,,64,0,7,,,,,0,,,80,60
30144,note_off,,,,,192,0,10,,,,,3,,,63,100
30236,note_off,,,,,92,0,7,,,,,0,,,80,100
30240,note_on,,,,,96,0,9,,,,,2,,,71,50
30240,note_on,,,,,4,0,7,,,,,0,,,81,60
30240,note_on,,,,,96,0,8,,,,,1,,,78,50
30240,note_on,,,,,96,0,10,,,,,3,,,63,50
30304,note_off,,,,,64,0,10,,,,,3,,,63,100
30304,note_off,,,,,64,0,7,,,,,0,,,81,100
30304,note_off,,,,,64,0,9,,,,,2,,,71,100
30304,note_off,,,,,64,0,8,,,,,1,,,78,100
30336,note_on,,,,,32,0,10,,,,,3,,,63,50
30336,note_on,,,,,32,0,9,,,,,2,,,71,50
30336,note_on,,,,,32,0,7,,,,,0,,,83,60
30336,note_on,,,,,32,0,8,,,,,1,,,78,50
30428,note_off,,,,,92,0,7,,,,,0,,,83,100
30432,note_on,,,,,4,0,7,,,,,0,,,81,60
30496,note_off,,,,,64,0,7,,,,,0,,,81,100
30528,note_off,,,,,192,0,9,,,,,2,,,71,100
30528,note_off,,,,,192,0,8,,,,,1,,,78,100
30528,note_off,,,,,192,0,10,,,,,3,,,63,100
30528,note_on,,,,,32,0,7,,,,,0,,,80,60
30620,note_off,,,,,92,0,7,,,,,0,,,80,100
30624,note_on,,,,,96,0,8,,,,,1,,,83,50
30624,note_on,,,,,96,0,9,,,,,2,,,71,50
30624,note_on,,,,,4,0,7,,,,,0,,,78,60
30624,note_on,,,,,96,0,10,,,,,3,,,63,50
30688,note_off,,,,,64,0,8,,,,,1,,,83,100
30688,note_off,,,,,64,0,7,,,,,0,,,78,100
30688,note_off,,,,,64,0,10,,,,,3,,,63,100
30688,note_off,,,,,64,0,9,,,,,2,,,71,100
30720,note_on,,,,,32,0,10,,,,,3,,,64,50
30720,note_on,,,,,32,0,9,,,,,2,,,71,50
30720,note_on,,,,,3520,0,13,,,,,6,,,68,100
30720,note_on,,,,,3520,0,14,,,,,6,,,52,100
30720,note_on,,,,,3520,0,12,,,,,5,,,40,60
30720,note_on,,,,,32,0,7,,,,,0,,,80,60
30720,note_on,,,,,3520,0,11,,,,,4,,,52,60
30720,note_on,,,,,0,0,13,,,,,6,,,71,100
30720,note_on,,,,,32,0,8,,,,,1,,,80,50
30784,note_off,,,,,64,0,7,,,,,0,,,80,100
30816,note_on,,,,,32,0,7,,,,,0,,,78,60
30880,note_off,,,,,64,0,7,,,,,0,,,78,100
30912,note_on,,,,,32,0,7,,,,,0,,,76,60
30976,note_off,,,,,256,0,12,,,,,5,,,40,100
30976,note_off,,,,,256,0,9,,,,,2,,,71,100
30976,note_off,,,,,256,0,13,,,,,6,,,68,100
30976,note_off,,,,,256,0,11,,,,,4,,,52,100
30976,note_off,,,,,256,0,14,,,,,6,,,52,100
30976,note_off,,,,,256,0,8,,,,,1,,,80,100
30976,note_off,,,,,0,0,13,,,,,6,,,71,100
30976,note_off,,,,,256,0,10,,,,,3,,,64,100
31040,note_off,,,,,128,0,7,,,,,0,,,76,100
31104,note_on,,,,,128,0,13,,,,,6,,,71,100
31104,note_on,,,,,128,0,14,,,,,6,,,56,100
31104,note_on,,,,,128,0,12,,,,,5,,,44,60
31104,note_on,,,,,128,0,11,,,,,4,,,56,60
31296,note_off,,,,,192,0,14,,,,,6,,,56,100
31296,note_off,,,,,192,0,11,,,,,4,,,56,100
31296,note_off,,,,,192,0,12,,,,,5,,,44,100
31296,note_off,,,,,192,0,13,,,,,6,,,71,100
31392,note_on,,,,,96,0,12,,,,,5,,,45,60
31392,note_on,,,,,96,0,14,,,,,6,,,57,100
31392,note_on,,,,,96,0,11,,,,,4,,,57,60
31392,note_on,,,,,96,0,13,,,,,6,,,73,100
31456,note_off,,,,,64,0,14,,,,,6,,,57,100
31456,note_off,,,,,64,0,13,,,,,6,,,73,100
31456,note_off,,,,,64,0,12,,,,,5,,,45,100
31456,note_off,,,,,64,0,11,,,,,4,,,57,100
31488,note_on,,,,,32,0,13,,,,,6,,,75,100
31488,note_on,,,,,512,0,10,,,,,3,,,75,60
31488,note_on,,,,,448,0,7,,,,,0,,,78,85
31488,note_on,,,,,512,0,9,,,,,2,,,78,60
31488,note_on,,,,,32,0,14,,,,,6,,,59,100
31488,note_on,,,,,32,0,12,,,,,5,,,47,60
31488,note_on,,,,,32,0,11,,,,,4,,,59,60
31488,note_on,,,,,512,0,8,,,,,1,,,83,60
31616,note_off,,,,,128,0,14,,,,,6,,,59,100
31616,note_off,,,,,128,0,13,,,,,6,,,75,100
31616,note_off,,,,,128,0,7,,,,,0,,,78,100
31616,note_off,,,,,128,0,11,,,,,4,,,59,100
31616,note_off,,,,,128,0,12,,,,,5,,,47,100
31680,note_on,,,,,64,0,13,,,,,6,,,63,100
31680,note_on,,,,,64,0,7,,,,,0,,,80,85
31680,note_on,,,,,64,0,11,,,,,4,,,47,60
31680,note_on,,,,,64,0,12,,,,,5,,,35,60
31680,note_on,,,,,0,0,13,,,,,6,,,66,100
31680,note_off,,,,,192,0,10,,,,,3,,,75,100
31680,note_on,,,,,64,0,14,,,,,6,,,47,100
31680,note_off,,,,,192,0,8,,,,,1,,,83,100
31680,note_off,,,,,192,0,9,,,,,2,,,78,100
31772,note_off,,,,,92,0,7,,,,,0,,,80,100
31776,note_on,,,,,96,0,8,,,,,1,,,83,60
31776,note_on,,,,,96,0,10,,,,,3,,,75,60
31776,note_on,,,,,96,0,9,,,,,2,,,78,60
31776,note_on,,,,,4,0,7,,,,,0,,,81,85
31808,note_off,,,,,128,0,13,,,,,6,,,63,100
31808,note_off,,,,,128,0,11,,,,,4,,,47,100
31808,note_off,,,,,128,0,14,,,,,6,,,47,100
31808,note_off,,,,,128,0,12,,,,,5,,,35,100
31808,note_off,,,,,0,0,13,,,,,6,,,66,100
31840,note_off,,,,,64,0,8,,,,,1,,,83,100
31840,note_off,,,,,64,0,7,,,,,0,,,81,100
31840,note_off,,,,,64,0,9,,,,,2,,,78,100
31840,note_off,,,,,64,0,10,,,,,3,,,75,100
31872,note_on,,,,,32,0,8,,,,,1,,,83,60
31872,note_on,,,,,32,0,9,,,,,2,,,78,60
31872,note_on,,,,,32,0,10,,,,,3,,,75,60
31872,note_on,,,,,32,0,7,,,,,0,,,83,85
31964,note_off,,,,,92,0,7,,,,,0,,,83,100
31968,note_on,,,,,4,0,7,,,,,0,,,81,85
32032,note_off,,,,,64,0,7,,,,,0,,,81,100
32064,note_off,,,,,192,0,8,,,,,1,,,83,100
32064,note_off,,,,,192,0,10,,,,,3,,,75,100
32064,note_on,,,,,32,0,7,,,,,0,,,80,85
32064,note_off,,,,,192,0,9,,,,,2,,,78,100
32156,note_off,,,,,92,0,7,,,,,0,,,80,100
32160,note_on,,,,,4,0,7,,,,,0,,,78,85
32160,note_on,,,,,96,0,8,,,,,1,,,83,60
32160,note_on,,,,,96,0,9,,,,,2,,,78,60
32160,note_on,,,,,96,0,10,,,,,3,,,75,60
32224,note_off,,,,,64,0,10,,,,,3,,,75,100
32224,note_off,,,,,64,0,9,,,,,2,,,78,100
32224,note_off,,,,,64,0,8,,,,,1,,,83,100
32224,note_off,,,,,64,0,7,,,,,0,,,78,100
32256,note_on,,,,,32,0,9,,,,,2,,,80,60
32256,note_on,,,,,32,0,8,,,,,1,,,83,60
32256,note_on,,,,,32,0,7,,,,,0,,,76,85
32256,note_on,,,,,32,0,10,,,,,3,,,73,60
32384,note_off,,,,,128,0,7,,,,,0,,,76,100
32448,note_on,,,,,64,0,7,,,,,0,,,78,84
32512,note_off,,,,,256,0,9,,,,,2,,,80,100
32512,note_off,,,,,256,0,8,,,,,1,,,83,100
32512,note_off,,,,,256,0,10,,,,,3,,,73,100
32540,note_off,,,,,92,0,7,,,,,0,,,78,100
32544,note_on,,,,,4,0,7,,,,,0,,,80,83
32608,note_off,,,,,64,0,7,,,,,0,,,80,100
32640,note_on,,,,,32,0,7,,,,,0,,,81,82
32732,note_off,,,,,92,0,7,,,,,0,,,81,100
32736,note_on,,,,,4,0,7,,,,,0,,,80,81
32800,note_off,,,,,64,0,7,,,,,0,,,80,100
32832,note_on,,,,,32,0,7,,,,,0,,,78,80
32924,note_off,,,,,92,0,7,,,,,0,,,78,100
32928,note_on,,,,,416,0,8,,,,,1,,,81,60
32928,note_on,,,,,416,0,10,,,,,3,,,73,60
32928,note_on,,,,,4,0,7,,,,,0,,,76,79
32928,note_on,,,,,416,0,9,,,,,2,,,76,60
32992,note_off,,,,,64,0,9,,,,,2,,,76,100
32992,note_off,,,,,64,0,7,,,,,0,,,76,100
32992,note_off,,,,,64,0,8,,,,,1,,,81,100
32992,note_off,,,,,64,0,10,,,,,3,,,73,100
33024,note_on,,,,,32,0,10,,,,,3,,,71,60
33024,note_on,,,,,32,0,8,,,,,1,,,81,60
33024,note_on,,,,,32,0,7,,,,,0,,,75,79
33024,note_on,,,,,32,0,9,,,,,2,,,78,60
33152,note_off,,,,,128,0,7,,,,,0,,,75,100
33216,note_off,,,,,192,0,8,,,,,1,,,81,100
33216,note_on,,,,,64,0,7,,,,,0,,,76,77
33216,note_off,,,,,192,0,9,,,,,2,,,78,100
33216,note_off,,,,,192,0,10,,,,,3,,,71,100
33308,note_off,,,,,92,0,7,,,,,0,,,76,100
33312,note_on,,,,,96,0,9,,,,,2,,,78,60
33312,note_on,,,,,96,0,8,,,,,1,,,81,60
33312,note_on,,,,,96,0,10,,,,,3,,,71,60
33312,note_on,,,,,4,0,7,,,,,0,,,78,76
33376,note_off,,,,,64,0,9,,,,,2,,,78,100
33376,note_off,,,,,64,0,8,,,,,1,,,81,100
33376,note_off,,,,,64,0,7,,,,,0,,,78,100
33376,note_off,,,,,64,0,10,,,,,3,,,71,100
33408,note_on,,,,,32,0,10,,,,,3,,,71,60
33408,note_on,,,,,32,0,7,,,,,0,,,80,75
33408,note_on,,,,,32,0,9,,,,,2,,,75,60
33408,note_on,,,,,32,0,8,,,,,1,,,80,60
33500,note_off,,,,,92,0,7,,,,,0,,,80,100
33504,note_on,,,,,4,0,7,,,,,0,,,78,74
33568,note_off,,,,,64,0,7,,,,,0,,,78,100
33600,note_off,,,,,192,0,8,,,,,1,,,80,100
33600,note_on,,,,,32,0,7,,,,,0,,,76,73
33600,note_off,,,,,192,0,9,,,,,2,,,75,100
33600,note_off,,,,,192,0,10,,,,,3,,,71,100
33692,note_off,,,,,92,0,7,,,,,0,,,76,100
33696,note_on,,,,,96,0,8,,,,,1,,,80,60
33696,note_on,,,,,96,0,9,,,,,2,,,75,60
33696,note_on,,,,,96,0,10,,,,,3,,,71,60
33696,note_on,,,,,4,0,7,,,,,0,,,75,73
33760,note_off,,,,,64,0,9,,,,,2,,,75,100
33760,note_off,,,,,64,0,8,,,,,1,,,80,100
33760,note_off,,,,,64,0,10,,,,,3,,,71,100
33760,note_off,,,,,64,0,7,,,,,0,,,75,100
33792,note_on,,,,,32,0,9,,,,,2,,,76,60
33792,note_on,,,,,32,0,7,,,,,0,,,73,72
33792,note_on,,,,,32,0,10,,,,,3,,,69,60
33792,note_on,,,,,32,0,8,,,,,1,,,80,60
33920,note_off,,,,,128,0,7,,,,,0,,,73,100
33984,note_on,,,,,64,0,7,,,,,0,,,75,74
34048,note_off,,,,,64,0,7,,,,,0,,,75,100
34048,note_off,,,,,256,0,10,,,,,3,,,69,100
34048,note_off,,,,,256,0,8,,,,,1,,,80,100
34048,note_off,,,,,256,0,9,,,,,2,,,76,100
34080,note_on,,,,,32,0,7,,,,,0,,,76,76
34144,note_off,,,,,64,0,7,,,,,0,,,76,100
34176,note_on,,,,,32,0,7,,,,,0,,,78,77
34304,note_off,,,,,128,0,7,,,,,0,,,78,100
34368,note_on,,,,,64,0,7,,,,,0,,,80,80
34432,note_off,,,,,64,0,7,,,,,0,,,80,100
34464,note_on,,,,,32,0,7,,,,,0,,,81,82
34464,note_on,,,,,416,0,8,,,,,1,,,78,60
34464,note_on,,,,,416,0,9,,,,,2,,,73,60
34464,note_on,,,,,416,0,10,,,,,3,,,69,60
34528,note_off,,,,,64,0,8,,,,,1,,,78,100
34528,note_off,,,,,64,0,10,,,,,3,,,69,100
34528,note_off,,,,,64,0,9,,,,,2,,,73,100
34528,note_off,,,,,64,0,7,,,,,0,,,81,100
34560,note_on,,,,,32,0,7,,,,,0,,,75,83
34560,note_on,,,,,32,0,8,,,,,1,,,78,60
34560,note_on,,,,,32,0,10,,,,,3,,,71,60
34560,note_on,,,,,32,0,9,,,,,2,,,75,60
34688,note_off,,,,,128,0,7,,,,,0,,,75,100
34752,note_off,,,,,192,0,8,,,,,1,,,78,100
34752,note_off,,,,,192,0,10,,,,,3,,,71,100
34752,note_on,,,,,64,0,7,,,,,0,,,73,85
34752,note_off,,,,,192,0,9,,,,,2,,,75,100
34816,note_off,,,,,64,0,7,,,,,0,,,73,100
34848,note_on,,,,,96,0,8,,,,,1,,,78,60
34848,note_on,,,,,96,0,9,,,,,2,,,75,60
34848,note_on,,,,,96,0,10,,,,,3,,,71,60
34848,note_on,,,,,32,0,7,,,,,0,,,71,85
34912,note_off,,,,,64,0,8,,,,,1,,,78,100
34912,note_off,,,,,64,0,9,,,,,2,,,75,100
34912,note_off,,,,,64,0,10,,,,,3,,,71,100
34912,note_off,,,,,64,0,7,,,,,0,,,71,100
34944,note_on,,,,,32,0,7,,,,,0,,,76,85
34944,note_on,,,,,32,0,10,,,,,3,,,68,60
34944,note_on,,,,,32,0,8,,,,,1,,,71,60
34944,note_on,,,,,32,0,9,,,,,2,,,71,60
35136,note_off,,,,,192,0,8,,,,,1,,,71,100
35136,note_off,,,,,192,0,10,,,,,3,,,68,100
35136,note_off,,,,,192,0,9,,,,,2,,,71,100
35232,note_on,,,,,96,0,10,,,,,3,,,68,60
35232,note_on,,,,,96,0,8,,,,,1,,,71,60
35232,note_on,,,,,96,0,9,,,,,2,,,71,60
35296,note_off,,,,,64,0,8,,,,,1,,,71,100
35296,note_off,,,,,64,0,10,,,,,3,,,68,100
35296,note_off,,,,,64,0,9,,,,,2,,,71,100
35328,note_on,,,,,32,0,8,,,,,1,,,73,60
35328,note_on,,,,,32,0,10,,,,,3,,,69,60
35328,note_on,,,,,32,0,9,,,,,2,,,73,60
35392,note_off,,,,,448,0,7,,,,,0,,,76,100
35424,note_on,,,,,32,0,7,,,,,0,,,80,85
35488,note_off,,,,,64,0,7,,,,,0,,,80,100
35520,note_off,,,,,192,0,8,,,,,1,,,73,100
35520,note_off,,,,,192,0,9,,,,,2,,,73,100
35520,note_off,,,,,192,0,10,,,,,3,,,69,100
35520,note_on,,,,,32,0,7,,,,,0,,,78,85
35584,note_off,,,,,64,0,7,,,,,0,,,78,100
35616,note_on,,,,,96,0,9,,,,,2,,,73,60
35616,note_on,,,,,96,0,10,,,,,3,,,69,60
35616,note_on,,,,,96,0,8,,,,,1,,,73,60
35616,note_on,,,,,32,0,7,,,,,0,,,76,85
35680,note_off,,,,,64,0,9,,,,,2,,,73,100
35680,note_off,,,,,64,0,10,,,,,3,,,69,100
35680,note_off,,,,,64,0,7,,,,,0,,,76,100
35680,note_off,,,,,64,0,8,,,,,1,,,73,100
35712,note_on,,,,,32,0,9,,,,,2,,,71,60
35712,note_on,,,,,32,0,8,,,,,1,,,71,60
35712,note_on,,,,,32,0,7,,,,,0,,,76,85
35712,note_on,,,,,32,0,10,,,,,3,,,71,60
35756,note_off,,,,,44,0,7,,,,,0,,,76,100
35760,note_on,,,,,4,0,7,,,,,0,,,75,85
35780,note_off,,,,,20,0,7,,,,,0,,,75,100
35784,note_on,,,,,4,0,7,,,,,0,,,76,85
35804,note_off,,,,,20,0,7,,,,,0,,,76,100
35808,note_on,,,,,4,0,7,,,,,0,,,75,85
35828,note_off,,,,,20,0,7,,,,,0,,,75,100
35832,note_on,,,,,4,0,7,,,,,0,,,76,85
35852,note_off,,,,,20,0,7,,,,,0,,,76,100
35856,note_on,,,,,4,0,7,,,,,0,,,75,85
35876,note_off,,,,,20,0,7,,,,,0,,,75,100
35880,note_on,,,,,4,0,7,,,,,0,,,76,85
35900,note_off,,,,,20,0,7,,,,,0,,,76,100
35904,note_off,,,,,192,0,10,,,,,3,,,71,100
35904,note_off,,,,,192,0,8,,,,,1,,,71,100
35904,note_on,,,,,4,0,7,,,,,0,,,75,85
35904,note_off,,,,,192,0,9,,,,,2,,,71,100
35968,note_off,,,,,64,0,7,,,,,0,,,75,100
36000,note_on,,,,,96,0,9,,,,,2,,,71,60
36000,note_on,,,,,96,0,10,,,,,3,,,71,60
36000,note_on,,,,,96,0,8,,,,,1,,,71,60
36000,note_on,,,,,32,0,7,,,,,0,,,76,85
36064,note_off,,,,,64,0,7,,,,,0,,,76,100
36064,note_off,,,,,64,0,9,,,,,2,,,71,100
36064,note_off,,,,,64,0,10,,,,,3,,,71,100
36064,note_off,,,,,64,0,8,,,,,1,,,71,100
36096,note_on,,,,,4288,0,12,,,,,5,,,40,60
36096,note_on,,,,,32,0,9,,,,,2,,,68,60
36096,note_on,,,,,32,0,10,,,,,3,,,64,60
36096,note_on,,,,,4288,0,14,,,,,6,,,52,100
36096,note_on,,,,,32,0,7,,,,,0,,,76,85
36096,note_on,,,,,4288,0,11,,,,,4,,,52,60
36096,note_on,,,,,32,0,8,,,,,1,,,71,60
36096,note_on,,,,,4288,0,13,,,,,6,,,68,100
36096,note_on,,,,,0,0,13,,,,,6,,,71,100
36352,note_off,,,,,256,0,11,,,,,4,,,52,100
36352,note_off,,,,,256,0,9,,,,,2,,,68,100
36352,note_off,,,,,256,0,7,,,,,0,,,76,100
36352,note_off,,,,,256,0,12,,,,,5,,,40,100
36352,note_off,,,,,256,0,8,,,,,1,,,71,100
36352,note_off,,,,,256,0,10,,,,,3,,,64,100
36352,note_off,,,,,256,0,14,,,,,6,,,52,100
36352,note_off,,,,,0,0,13,,,,,6,,,71,100
36352,note_off,,,,,256,0,13,,,,,6,,,68,100
36480,note_on,,,,,128,0,12,,,,,5,,,44,60
36480,note_on,,,,,128,0,11,,,,,4,,,56,60
36480,note_on,,,,,128,0,14,,,,,6,,,56,100
36480,note_on,,,,,128,0,13,,,,,6,,,71,100
36672,note_off,,,,,192,0,11,,,,,4,,,56,100
36672,note_off,,,,,192,0,13,,,,,6,,,71,100
36672,note_off,,,,,192,0,12,,,,,5,,,44,100
36672,note_off,,,,,192,0,14,,,,,6,,,56,100
36768,note_on,,,,,96,0,12,,,,,5,,,45,60
36768,note_on,,,,,96,0,14,,,,,6,,,57,100
36768,note_on,,,,,96,0,13,,,,,6,,,73,100
36768,note_on,,,,,96,0,11,,,,,4,,,57,60
36832,note_off,,,,,64,0,14,,,,,6,,,57,100
36832,note_off,,,,,64,0,13,,,,,6,,,73,100
36832,note_off,,,,,64,0,11,,,,,4,,,57,100
36832,note_off,,,,,64,0,12,,,,,5,,,45,100
36864,note_on,,,,,32,0,13,,,,,6,,,75,100
36864,note_on,,,,,32,0,14,,,,,6,,,59,100
36864,note_on,,,,,512,0,10,,,,,3,,,75,50
36864,note_on,,,,,32,0,12,,,,,5,,,47,60
36864,note_on,,,,,512,0,7,,,,,0,,,78,60
36864,note_on,,,,,512,0,8,,,,,1,,,83,50
36864,note_on,,,,,512,0,9,,,,,2,,,78,50
36864,note_on,,,,,32,0,11,,,,,4,,,59,60
36992,note_off,,,,,128,0,7,,,,,0,,,78,100
36992,note_off,,,,,128,0,13,,,,,6,,,75,100
36992,note_off,,,,,128,0,11,,,,,4,,,59,100
36992,note_off,,,,,128,0,14,,,,,6,,,59,100
36992,note_off,,,,,128,0,12,,,,,5,,,47,100
37056,note_on,,,,,0,0,13,,,,,6,,,66,100
37056,note_off,,,,,192,0,10,,,,,3,,,75,100
37056,note_on,,,,,64,0,11,,,,,4,,,47,60
37056,note_on,,,,,64,0,13,,,,,6,,,63,100
37056,note_off,,,,,192,0,9,,,,,2,,,78,100
37056,note_on,,,,,64,0,14,,,,,6,,,47,100
37056,note_off,,,,,192,0,8,,,,,1,,,83,100
37056,note_on,,,,,64,0,7,,,,,0,,,80,60
37056,note_on,,,,,64,0,12,,,,,5,,,35,60
37148,note_off,,,,,92,0,7,,,,,0,,,80,100
37152,note_on,,,,,4,0,7,,,,,0,,,81,60
37152,note_on,,,,,96,0,10,,,,,3,,,75,50
37152,note_on,,,,,96,0,9,,,,,2,,,78,50
37152,note_on,,,,,96,0,8,,,,,1,,,83,50
37184,note_off,,,,,128,0,14,,,,,6,,,47,100
37184,note_off,,,,,128,0,11,,,,,4,,,47,100
37184,note_off,,,,,128,0,12,,,,,5,,,35,100
37184,note_off,,,,,0,0,13,,,,,6,,,66,100
37184,note_off,,,,,128,0,13,,,,,6,,,63,100
37216,note_off,,,,,64,0,8,,,,,1,,,83,100
37216,note_off,,,,,64,0,9,,,,,2,,,78,100
37216,note_off,,,,,64,0,10,,,,,3,,,75,100
37216,note_off,,,,,64,0,7,,,,,0,,,81,100
37248,note_on,,,,,32,0,7,,,,,0,,,83,60
37248,note_on,,,,,32,0,10,,,,,3,,,75,50
37248,note_on,,,,,32,0,8,,,,,1,,,83,50
37248,note_on,,,,,32,0,9,,,,,2,,,78,50
37340,note_off,,,,,92,0,7,,,,,0,,,83,100
37344,note_on,,,,,4,0,7,,,,,0,,,81,60
37408,note_off,,,,,64,0,7,,,,,0,,,81,100
37440,note_off,,,,,192,0,8,,,,,1,,,83,100
37440,note_off,,,,,192,0,10,,,,,3,,,75,100
37440,note_off,,,,,192,0,9,,,,,2,,,78,100
37440,note_on,,,,,32,0,7,,,,,0,,,80,60
37532,note_off,,,,,92,0,7,,,,,0,,,80,100
37536,note_on,,,,,96,0,8,,,,,1,,,83,50
37536,note_on,,,,,4,0,7,,,,,0,,,78,60
37536,note_on,,,,,96,0,10,,,,,3,,,75,50
37536,note_on,,,,,96,0,9,,,,,2,,,78,50
37600,note_off,,,,,64,0,9,,,,,2,,,78,100
37600,note_off,,,,,64,0,7,,,,,0,,,78,100
37600,note_off,,,,,64,0,8,,,,,1,,,83,100
37600,note_off,,,,,64,0,10,,,,,3,,,75,100
37632,note_on,,,,,32,0,7,,,,,0,,,76,60
37632,note_on,,,,,32,0,9,,,,,2,,,80,50
37632,note_on,,,,,32,0,8,,,,,1,,,83,50
37632,note_on,,,,,32,0,10,,,,,3,,,73,50
37760,note_off,,,,,128,0,7,,,,,0,,,76,100
37824,note_on,,,,,64,0,7,,,,,0,,,78,60
37888,note_off,,,,,256,0,9,,,,,2,,,80,100
37888,note_off,,,,,256,0,8,,,,,1,,,83,100
37888,note_off,,,,,256,0,10,,,,,3,,,73,100
37916,note_off,,,,,92,0,7,,,,,0,,,78,100
37920,note_on,,,,,4,0,7,,,,,0,,,80,60
37984,note_off,,,,,64,0,7,,,,,0,,,80,100
38016,note_on,,,,,32,0,7,,,,,0,,,81,60
38108,note_off,,,,,92,0,7,,,,,0,,,81,100
38112,note_on,,,,,4,0,7,,,,,0,,,80,60
38176,note_off,,,,,64,0,7,,,,,0,,,80,100
38208,note_on,,,,,32,0,7,,,,,0,,,78,60
38300,note_off,,,,,92,0,7,,,,,0,,,78,100
38304,note_on,,,,,416,0,10,,,,,3,,,73,50
38304,note_on,,,,,4,0,7,,,,,0,,,76,60
38304,note_on,,,,,416,0,9,,,,,2,,,76,50
38304,note_on,,,,,416,0,8,,,,,1,,,81,50
38368,note_off,,,,,64,0,9,,,,,2,,,76,100
38368,note_off,,,,,64,0,7,,,,,0,,,76,100
38368,note_off,,,,,64,0,8,,,,,1,,,81,100
38368,note_off,,,,,64,0,10,,,,,3,,,73,100
38400,note_on,,,,,32,0,8,,,,,1,,,81,50
38400,note_on,,,,,32,0,7,,,,,0,,,75,60
38400,note_on,,,,,32,0,10,,,,,3,,,71,50
38400,note_on,,,,,32,0,9,,,,,2,,,78,50
38528,note_off,,,,,128,0,7,,,,,0,,,75,100
38592,note_off,,,,,192,0,10,,,,,3,,,71,100
38592,note_off,,,,,192,0,8,,,,,1,,,81,100
38592,note_on,,,,,64,0,7,,,,,0,,,73,60
38592,note_off,,,,,192,0,9,,,,,2,,,78,100
38656,note_off,,,,,64,0,7,,,,,0,,,73,100
38688,note_on,,,,,96,0,9,,,,,2,,,78,50
38688,note_on,,,,,96,0,8,,,,,1,,,81,50
38688,note_on,,,,,96,0,10,,,,,3,,,71,50
38688,note_on,,,,,32,0,7,,,,,0,,,71,60
38752,note_off,,,,,64,0,9,,,,,2,,,78,100
38752,note_off,,,,,64,0,10,,,,,3,,,71,100
38752,note_off,,,,,64,0,7,,,,,0,,,71,100
38752,note_off,,,,,64,0,8,,,,,1,,,81,100
38784,note_on,,,,,32,0,9,,,,,2,,,71,50
38784,note_on,,,,,32,0,7,,,,,0,,,76,60
38784,note_on,,,,,32,0,10,,,,,3,,,64,50
38784,note_on,,,,,32,0,8,,,,,1,,,80,50
38976,note_off,,,,,192,0,9,,,,,2,,,71,100
38976,note_off,,,,,192,0,10,,,,,3,,,64,100
38976,note_off,,,,,192,0,8,,,,,1,,,80,100
39072,note_on,,,,,96,0,9,,,,,2,,,71,50
39072,note_on,,,,,96,0,10,,,,,3,,,64,50
39072,note_on,,,,,96,0,8,,,,,1,,,80,50
39136,note_off,,,,,64,0,8,,,,,1,,,80,100
39136,note_off,,,,,64,0,9,,,,,2,,,71,100
39136,note_off,,,,,64,0,10,,,,,3,,,64,100
39168,note_on,,,,,32,0,9,,,,,2,,,73,50
39168,note_on,,,,,32,0,10,,,,,3,,,69,50
39168,note_on,,,,,32,0,8,,,,,1,,,78,50
39232,note_off,,,,,448,0,7,,,,,0,,,76,100
39264,note_on,,,,,32,0,7,,,,,0,,,80,60
39328,note_off,,,,,64,0,7,,,,,0,,,80,100
39360,note_off,,,,,192,0,10,,,,,3,,,69,100
39360,note_on,,,,,32,0,7,,,,,0,,,78,60
39360,note_off,,,,,192,0,8,,,,,1,,,78,100
39360,note_off,,,,,192,0,9,,,,,2,,,73,100
39424,note_off,,,,,64,0,7,,,,,0,,,78,100
39456,note_on,,,,,96,0,8,,,,,1,,,78,50
39456,note_on,,,,,96,0,10,,,,,3,,,69,50
39456,note_on,,,,,32,0,7,,,,,0,,,76,60
39456,note_on,,,,,96,0,9,,,,,2,,,73,50
39520,note_off,,,,,64,0,7,,,,,0,,,76,100
39520,note_off,,,,,64,0,9,,,,,2,,,73,100
39520,note_off,,,,,64,0,10,,,,,3,,,69,100
39520,note_off,,,,,64,0,8,,,,,1,,,78,100
39552,note_on,,,,,32,0,10,,,,,3,,,71,50
39552,note_on,,,,,32,0,8,,,,,1,,,78,50
39552,note_on,,,,,32,0,7,,,,,0,,,76,60
39552,note_on,,,,,32,0,9,,,,,2,,,71,50
39596,note_off,,,,,44,0,7,,,,,0,,,76,100
39600,note_on,,,,,4,0,7,,,,,0,,,75,60
39620,note_off,,,,,20,0,7,,,,,0,,,75,100
39624,note_on,,,,,4,0,7,,,,,0,,,76,60
39644,note_off,,,,,20,0,7,,,,,0,,,76,100
39648,note_on,,,,,4,0,7,,,,,0,,,75,60
39668,note_off,,,,,20,0,7,,,,,0,,,75,100
39672,note_on,,,,,4,0,7,,,,,0,,,76,60
39692,note_off,,,,,20,0,7,,,,,0,,,76,100
39696,note_on,,,,,4,0,7,,,,,0,,,75,60
39716,note_off,,,,,20,0,7,,,,,0,,,75,100
39720,note_on,,,,,4,0,7,,,,,0,,,76,60
39740,note_off,,,,,20,0,7,,,,,0,,,76,100
39744,note_on,,,,,4,0,7,,,,,0,,,75,60
39744,note_off,,,,,192,0,8,,,,,1,,,78,100
39744,note_off,,,,,192,0,10,,,,,3,,,71,100
39744,note_off,,,,,192,0,9,,,,,2,,,71,100
39808,note_off,,,,,64,0,7,,,,,0,,,75,100
39840,note_on,,,,,32,0,7,,,,,0,,,76,60
39840,note_on,,,,,96,0,9,,,,,2,,,71,50
39840,note_on,,,,,96,0,8,,,,,1,,,78,50
39840,note_on,,,,,96,0,10,,,,,3,,,71,50
39904,note_off,,,,,64,0,10,,,,,3,,,71,100
39904,note_off,,,,,64,0,7,,,,,0,,,76,100
39904,note_off,,,,,64,0,8,,,,,1,,,78,100
39904,note_off,,,,,64,0,9,,,,,2,,,71,100
39936,note_on,,,,,32,0,7,,,,,0,,,76,60
39936,note_on,,,,,32,0,10,,,,,3,,,64,60
39936,note_on,,,,,32,0,9,,,,,2,,,68,60
39936,note_on,,,,,32,0,8,,,,,1,,,76,60
40192,note_off,,,,,256,0,7,,,,,0,,,76,100
40192,note_off,,,,,256,0,10,,,,,3,,,64,100
40192,note_off,,,,,256,0,9,,,,,2,,,68,100
40192,note_off,,,,,256,0,8,,,,,1,,,76,100
40320,note_on,,,,,128,0,8,,,,,1,,,80,62
40512,note_off,,,,,192,0,8,,,,,1,,,80,100
40608,note_on,,,,,96,0,8,,,,,1,,,81,64
40672,note_off,,,,,64,0,8,,,,,1,,,81,100
40704,note_on,,,,,32,0,8,,,,,1,,,83,64
40704,note_on,,,,,512,0,9,,,,,2,,,71,64
40960,note_off,,,,,256,0,9,,,,,2,,,71,100
41088,note_off,,,,,384,0,8,,,,,1,,,83,100
41088,note_on,,,,,128,0,9,,,,,2,,,73,67
41280,note_on,,,,,192,0,8,,,,,1,,,81,68
41280,note_off,,,,,192,0,9,,,,,2,,,73,100
41376,note_on,,,,,96,0,9,,,,,2,,,75,69
41408,note_off,,,,,128,0,8,,,,,1,,,81,100
41440,note_off,,,,,64,0,9,,,,,2,,,75,100
41472,note_on,,,,,4288,0,11,,,,,4,,,52,66
41472,note_on,,,,,64,0,8,,,,,1,,,80,66
41472,note_on,,,,,4288,0,14,,,,,6,,,52,100
41472,note_on,,,,,4288,0,13,,,,,6,,,68,100
41472,note_on,,,,,4288,0,12,,,,,5,,,40,66
41472,note_on,,,,,32,0,9,,,,,2,,,76,66
41472,note_on,,,,,0,0,13,,,,,6,,,71,100
41600,note_off,,,,,128,0,8,,,,,1,,,80,100
41664,note_on,,,,,64,0,8,,,,,1,,,80,68
41728,note_off,,,,,256,0,13,,,,,6,,,68,100
41728,note_off,,,,,0,0,13,,,,,6,,,71,100
41728,note_off,,,,,256,0,14,,,,,6,,,52,100
41728,note_off,,,,,256,0,12,,,,,5,,,40,100
41728,note_off,,,,,64,0,8,,,,,1,,,80,100
41728,note_off,,,,,256,0,11,,,,,4,,,52,100
41760,note_on,,,,,32,0,8,,,,,1,,,81,69
41824,note_off,,,,,64,0,8,,,,,1,,,81,100
41856,note_on,,,,,0,0,13,,,,,6,,,71,100
41856,note_on,,,,,128,0,11,,,,,4,,,56,70
41856,note_off,,,,,384,0,9,,,,,2,,,76,100
41856,note_on,,,,,128,0,13,,,,,6,,,64,100
41856,note_on,,,,,128,0,14,,,,,6,,,56,100
41856,note_on,,,,,128,0,12,,,,,5,,,44,70
41856,note_on,,,,,32,0,8,,,,,1,,,83,70
41984,note_off,,,,,128,0,8,,,,,1,,,83,100
42048,note_on,,,,,64,0,8,,,,,1,,,81,67
42048,note_off,,,,,0,0,13,,,,,6,,,71,100
42048,note_off,,,,,192,0,14,,,,,6,,,56,100
42048,note_on,,,,,192,0,9,,,,,2,,,76,67
42048,note_off,,,,,192,0,12,,,,,5,,,44,100
42048,note_off,,,,,192,0,13,,,,,6,,,64,100
42048,note_off,,,,,192,0,11,,,,,4,,,56,100
42112,note_off,,,,,64,0,8,,,,,1,,,81,100
42144,note_on,,,,,96,0,11,,,,,4,,,57,66
42144,note_on,,,,,96,0,14,,,,,6,,,57,100
42144,note_on,,,,,0,0,13,,,,,6,,,73,100
42144,note_on,,,,,96,0,12,,,,,5,,,45,66
42144,note_on,,,,,32,0,8,,,,,1,,,80,66
42144,note_on,,,,,96,0,13,,,,,6,,,64,100
42176,note_off,,,,,128,0,9,,,,,2,,,76,100
42208,note_off,,,,,64,0,8,,,,,1,,,80,100
42208,note_off,,,,,64,0,13,,,,,6,,,64,100
42208,note_off,,,,,0,0,13,,,,,6,,,73,100
42208,note_off,,,,,64,0,14,,,,,6,,,57,100
42208,note_off,,,,,64,0,12,,,,,5,,,45,100
42208,note_off,,,,,64,0,11,,,,,4,,,57,100
42240,note_on,,,,,32,0,14,,,,,6,,,59,100
42240,note_on,,,,,0,0,13,,,,,6,,,75,100
42240,note_on,,,,,2048,0,10,,,,,3,,,59,70
42240,note_on,,,,,32,0,13,,,,,6,,,66,100
42240,note_on,,,,,32,0,12,,,,,5,,,47,70
42240,note_on,,,,,64,0,9,,,,,2,,,75,69
42240,note_on,,,,,32,0,11,,,,,4,,,59,70
42240,note_on,,,,,32,0,8,,,,,1,,,78,69
42332,note_off,,,,,92,0,8,,,,,1,,,78,100
42332,note_off,,,,,92,0,9,,,,,2,,,75,100
42336,note_on,,,,,4,0,9,,,,,2,,,73,62
42336,note_on,,,,,4,0,8,,,,,1,,,76,62
42400,note_off,,,,,64,0,9,,,,,2,,,73,100
42400,note_off,,,,,64,0,8,,,,,1,,,76,100
42432,note_on,,,,,32,0,9,,,,,2,,,75,61
42432,note_on,,,,,32,0,8,,,,,1,,,78,61
42496,note_off,,,,,256,0,10,,,,,3,,,59,100
42496,note_off,,,,,256,0,13,,,,,6,,,66,100
42496,note_off,,,,,0,0,13,,,,,6,,,75,100
42560,note_off,,,,,128,0,9,,,,,2,,,75,100
42560,note_off,,,,,128,0,8,,,,,1,,,78,100
42624,note_on,,,,,128,0,13,,,,,6,,,64,100
42624,note_off,,,,,384,0,11,,,,,4,,,59,100
42624,note_on,,,,,128,0,10,,,,,3,,,61,66
42624,note_off,,,,,384,0,12,,,,,5,,,47,100
42624,note_on,,,,,0,0,13,,,,,6,,,73,100
42624,note_off,,,,,384,0,14,,,,,6,,,59,100
42752,note_off,,,,,0,0,13,,,,,6,,,73,100
42752,note_off,,,,,128,0,13,,,,,6,,,64,100
42816,note_on,,,,,192,0,12,,,,,5,,,45,65
42816,note_off,,,,,192,0,10,,,,,3,,,61,100
42816,note_on,,,,,192,0,14,,,,,6,,,57,100
42816,note_on,,,,,64,0,13,,,,,6,,,63,100
42816,note_on,,,,,0,0,13,,,,,6,,,71,100
42816,note_on,,,,,192,0,11,,,,,4,,,57,65
42912,note_on,,,,,96,0,10,,,,,3,,,63,62
42944,note_off,,,,,128,0,12,,,,,5,,,45,100
42944,note_off,,,,,128,0,11,,,,,4,,,57,100
42944,note_off,,,,,128,0,13,,,,,6,,,63,100
42944,note_off,,,,,0,0,13,,,,,6,,,71,100
42944,note_off,,,,,128,0,14,,,,,6,,,57,100
42976,note_off,,,,,64,0,10,,,,,3,,,63,100
43008,note_on,,,,,32,0,10,,,,,3,,,64,61
43008,note_on,,,,,64,0,12,,,,,5,,,44,63
43008,note_on,,,,,448,0,8,,,,,1,,,80,60
43008,note_on,,,,,64,0,13,,,,,6,,,71,100
43008,note_on,,,,,0,0,13,,,,,6,,,64,100
43008,note_on,,,,,64,0,14,,,,,6,,,56,100
43008,note_on,,,,,448,0,9,,,,,2,,,76,60
43008,note_on,,,,,64,0,11,,,,,4,,,56,63
43136,note_off,,,,,0,0,13,,,,,6,,,64,100
43136,note_off,,,,,128,0,12,,,,,5,,,44,100
43136,note_off,,,,,128,0,14,,,,,6,,,56,100
43136,note_off,,,,,128,0,13,,,,,6,,,71,100
43136,note_off,,,,,128,0,11,,,,,4,,,56,100
43200,note_on,,,,,64,0,11,,,,,4,,,52,61
43200,note_on,,,,,64,0,12,,,,,5,,,40,61
43200,note_on,,,,,64,0,13,,,,,6,,,59,100
43200,note_on,,,,,0,0,13,,,,,6,,,68,100
43200,note_on,,,,,64,0,14,,,,,6,,,52,100
43264,note_off,,,,,256,0,10,,,,,3,,,64,100
43264,note_off,,,,,256,0,9,,,,,2,,,76,100
43264,note_off,,,,,256,0,8,,,,,1,,,80,100
43328,note_off,,,,,128,0,11,,,,,4,,,52,100
43328,note_off,,,,,0,0,13,,,,,6,,,68,100
43328,note_off,,,,,128,0,13,,,,,6,,,59,100
43328,note_off,,,,,128,0,12,,,,,5,,,40,100
43328,note_off,,,,,128,0,14,,,,,6,,,52,100
43392,note_on,,,,,128,0,8,,,,,1,,,83,64
43392,note_on,,,,,128,0,9,,,,,2,,,80,64
43584,note_off,,,,,192,0,8,,,,,1,,,83,100
43584,note_off,,,,,192,0,9,,,,,2,,,80,100
43680,note_on,,,,,96,0,8,,,,,1,,,85,68
43680,note_on,,,,,96,0,9,,,,,2,,,81,68
43744,note_off,,,,,64,0,8,,,,,1,,,85,100
43744,note_off,,,,,64,0,9,,,,,2,,,81,100
43776,note_on,,,,,448,0,12,,,,,5,,,40,69
43776,note_on,,,,,32,0,8,,,,,1,,,86,69
43776,note_on,,,,,448,0,11,,,,,4,,,52,69
43776,note_on,,,,,448,0,13,,,,,6,,,71,100
43776,note_on,,,,,0,0,13,,,,,6,,,74,100
43776,note_on,,,,,448,0,14,,,,,6,,,52,100
43776,note_on,,,,,512,0,10,,,,,3,,,68,69
43776,note_on,,,,,32,0,9,,,,,2,,,83,69
44032,note_off,,,,,256,0,13,,,,,6,,,71,100
44032,note_off,,,,,256,0,12,,,,,5,,,40,100
44032,note_off,,,,,256,0,10,,,,,3,,,68,100
44032,note_off,,,,,256,0,11,,,,,4,,,52,100
44032,note_off,,,,,256,0,14,,,,,6,,,52,100
44032,note_off,,,,,0,0,13,,,,,6,,,74,100
44160,note_on,,,,,0,0,13,,,,,6,,,74,100
44160,note_off,,,,,384,0,8,,,,,1,,,86,100
44160,note_on,,,,,128,0,14,,,,,6,,,56,100
44160,note_on,,,,,128,0,11,,,,,4,,,56,70
44160,note_off,,,,,384,0,9,,,,,2,,,83,100
44160,note_on,,,,,128,0,10,,,,,3,,,71,70
44160,note_on,,,,,128,0,12,,,,,5,,,44,70
44160,note_on,,,,,128,0,13,,,,,6,,,71,100
44352,note_on,,,,,192,0,8,,,,,1,,,86,70
44352,note_off,,,,,192,0,13,,,,,6,,,71,100
44352,note_off,,,,,0,0,13,,,,,6,,,74,100
44352,note_off,,,,,192,0,10,,,,,3,,,71,100
44352,note_off,,,,,192,0,12,,,,,5,,,44,100
44352,note_on,,,,,192,0,9,,,,,2,,,83,70
44352,note_off,,,,,192,0,11,,,,,4,,,56,100
44352,note_off,,,,,192,0,14,,,,,6,,,56,100
44448,note_on,,,,,96,0,11,,,,,4,,,52,70
44448,note_on,,,,,96,0,12,,,,,5,,,40,70
44448,note_on,,,,,96,0,14,,,,,6,,,52,100
44448,note_on,,,,,96,0,10,,,,,3,,,68,70
44448,note_on,,,,,96,0,13,,,,,6,,,71,100
44448,note_on,,,,,0,0,13,,,,,6,,,74,100
44480,note_off,,,,,128,0,9,,,,,2,,,83,100
44480,note_off,,,,,128,0,8,,,,,1,,,86,100
44512,note_off,,,,,64,0,14,,,,,6,,,52,100
44512,note_off,,,,,64,0,11,,,,,4,,,52,100
44512,note_off,,,,,0,0,13,,,,,6,,,74,100
44512,note_off,,,,,64,0,13,,,,,6,,,71,100
44512,note_off,,,,,64,0,12,,,,,5,,,40,100
44512,note_off,,,,,64,0,10,,,,,3,,,68,100
44544,note_on,,,,,32,0,12,,,,,5,,,45,70
44544,note_on,,,,,0,0,13,,,,,6,,,76,100
44544,note_on,,,,,32,0,13,,,,,6,,,73,100
44544,note_on,,,,,32,0,14,,,,,6,,,57,100
44544,note_on,,,,,64,0,9,,,,,2,,,81,70
44544,note_on,,,,,32,0,10,,,,,3,,,64,70
44544,note_on,,,,,64,0,8,,,,,1,,,85,70
44544,note_on,,,,,32,0,11,,,,,4,,,57,70
44736,note_off,,,,,192,0,9,,,,,2,,,81,100
44736,note_off,,,,,192,0,8,,,,,1,,,85,100
44800,note_off,,,,,256,0,13,,,,,6,,,73,100
44800,note_off,,,,,0,0,13,,,,,6,,,76,100
44832,note_on,,,,,96,0,9,,,,,2,,,80,60
44832,set_tempo,,,,,35616,1,0,,1153846,,,,,,,
44832,note_on,,,,,96,0,8,,,,,1,,,83,60
44896,note_off,,,,,64,0,9,,,,,2,,,80,100
44896,note_off,,,,,64,0,8,,,,,1,,,83,100
44928,note_on,,,,,32,0,8,,,,,1,,,81,61
44928,note_off,,,,,384,0,10,,,,,3,,,64,100
44928,note_on,,,,,0,0,13,,,,,6,,,73,100
44928,note_on,,,,,128,0,13,,,,,6,,,64,100
44928,note_on,,,,,32,0,9,,,,,2,,,78,61
44928,set_tempo,,,,,96,1,0,,1176470,,,,,,,
45020,note_off,,,,,92,0,9,,,,,2,,,78,100
45020,note_off,,,,,92,0,8,,,,,1,,,81,100
45024,note_on,,,,,4,0,9,,,,,2,,,76,63
45024,note_on,,,,,4,0,8,,,,,1,,,80,63
45024,set_tempo,,,,,96,1,0,,1200000,,,,,,,
45088,note_off,,,,,64,0,9,,,,,2,,,76,100
45088,note_off,,,,,64,0,8,,,,,1,,,80,100
45120,set_tempo,,,,,96,1,0,,1224489,,,,,,,
45120,note_on,,,,,192,0,10,,,,,3,,,64,65
45120,note_on,,,,,32,0,8,,,,,1,,,78,65
45120,note_on,,,,,32,0,9,,,,,2,,,75,65
45184,note_off,,,,,0,0,13,,,,,6,,,73,100
45184,note_off,,,,,256,0,13,,,,,6,,,64,100
45212,note_off,,,,,92,0,8,,,,,1,,,78,100
45212,note_off,,,,,92,0,9,,,,,2,,,75,100
45216,set_tempo,,,,,96,1,0,,1250000,,,,,,,
45216,note_on,,,,,4,0,9,,,,,2,,,73,67
45216,note_on,,,,,4,0,8,,,,,1,,,76,67
45248,note_off,,,,,128,0,10,,,,,3,,,64,100
45280,note_off,,,,,64,0,8,,,,,1,,,76,100
45280,note_off,,,,,64,0,9,,,,,2,,,73,100
45312,note_on,,,,,128,0,13,,,,,6,,,66,100
45312,note_on,,,,,0,0,13,,,,,6,,,75,100
45312,note_on,,,,,64,0,10,,,,,3,,,66,69
45312,note_on,,,,,0,0,13,,,,,6,,,71,100
45312,set_tempo,,,,,96,1,0,,1153846,,,,,,,
45312,note_on,,,,,32,0,8,,,,,1,,,75,69
45312,note_on,,,,,32,0,9,,,,,2,,,71,69
45952,note_off,,,,,640,0,10,,,,,3,,,66,100
45952,note_off,,,,,1408,0,14,,,,,6,,,57,100
45952,note_off,,,,,0,0,13,,,,,6,,,71,100
45952,note_off,,,,,640,0,13,,,,,6,,,66,100
45952,note_off,,,,,0,0,13,,,,,6,,,75,100
45952,note_off,,,,,640,0,8,,,,,1,,,75,100
45952,note_off,,,,,1408,0,11,,,,,4,,,57,100
45952,note_off,,,,,640,0,9,,,,,2,,,71,100
45952,note_off,,,,,1408,0,12,,,,,5,,,45,100
46080,note_on,,,,,128,0,14,,,,,6,,,56,100
46080,note_on,,,,,128,0,9,,,,,2,,,71,65
46080,note_on,,,,,128,0,12,,,,,5,,,44,65
46080,note_on,,,,,128,0,11,,,,,4,,,56,65
46080,note_on,,,,,128,0,8,,,,,1,,,76,65
46080,note_on,,,,,128,0,10,,,,,3,,,68,65
46080,note_on,,,,,128,0,13,,,,,6,,,76,100
46080,note_on,,,,,0,0,13,,,,,6,,,71,100
46336,note_off,,,,,256,0,11,,,,,4,,,56,100
46336,note_off,,,,,256,0,14,,,,,6,,,56,100
46336,note_off,,,,,256,0,9,,,,,2,,,71,100
46336,note_off,,,,,256,0,8,,,,,1,,,76,100
46336,note_off,,,,,256,0,10,,,,,3,,,68,100
46336,note_off,,,,,256,0,12,,,,,5,,,44,100
46336,note_off,,,,,256,0,13,,,,,6,,,76,100
46336,note_off,,,,,0,0,13,,,,,6,,,71,100
46464,note_on,,,,,128,0,13,,,,,6,,,73,100
46464,note_on,,,,,0,0,13,,,,,6,,,68,100
46464,note_on,,,,,128,0,9,,,,,2,,,76,63
46464,note_on,,,,,128,0,14,,,,,6,,,52,100
46464,note_on,,,,,128,0,11,,,,,4,,,52,63
46464,note_on,,,,,128,0,8,,,,,1,,,85,63
46464,note_on,,,,,128,0,10,,,,,3,,,68,63
46464,note_on,,,,,128,0,12,,,,,5,,,40,63
46656,note_off,,,,,192,0,9,,,,,2,,,76,100
46656,note_off,,,,,192,0,8,,,,,1,,,85,100
46656,note_off,,,,,192,0,14,,,,,6,,,52,100
46656,note_off,,,,,192,0,10,,,,,3,,,68,100
46656,note_off,,,,,192,0,11,,,,,4,,,52,100
46656,note_off,,,,,0,0,13,,,,,6,,,68,100
46656,note_off,,,,,192,0,13,,,,,6,,,73,100
46656,note_off,,,,,192,0,12,,,,,5,,,40,100
46752,note_on,,,,,96,0,10,,,,,3,,,68,65
46752,note_on,,,,,96,0,11,,,,,4,,,52,65
46752,note_on,,,,,96,0,14,,,,,6,,,52,100
46752,note_on,,,,,0,0,13,,,,,6,,,71,100
46752,note_on,,,,,96,0,13,,,,,6,,,68,100
46752,note_on,,,,,96,0,9,,,,,2,,,80,65
46752,note_on,,,,,96,0,8,,,,,1,,,83,65
46752,note_on,,,,,96,0,12,,,,,5,,,40,65
46816,note_off,,,,,0,0,13,,,,,6,,,71,100
46816,note_off,,,,,64,0,9,,,,,2,,,80,100
46816,note_off,,,,,64,0,12,,,,,5,,,40,100
46816,note_off,,,,,64,0,13,,,,,6,,,68,100
46816,note_off,,,,,64,0,10,,,,,3,,,68,100
46816,note_off,,,,,64,0,11,,,,,4,,,52,100
46816,note_off,,,,,64,0,8,,,,,1,,,83,100
46816,note_off,,,,,64,0,14,,,,,6,,,52,100
46848,note_on,,,,,0,0,13,,,,,6,,,70,100
46848,note_on,,,,,32,0,12,,,,,5,,,40,66
46848,note_on,,,,,32,0,8,,,,,1,,,82,66
46848,note_on,,,,,0,0,13,,,,,6,,,66,100
46848,note_on,,,,,32,0,9,,,,,2,,,78,66
46848,note_on,,,,,32,0,11,,,,,4,,,52,66
46848,set_tempo,,,,,1536,1,0,,1153846,,,,,,,
46848,note_on,,,,,32,0,14,,,,,6,,,52,100
46848,note_on,,,,,32,0,13,,,,,6,,,73,100
46848,note_on,,,,,32,0,10,,,,,3,,,73,66
47000,set_tempo,,,,,152,1,0,,1176470,,,,,,,
47104,note_off,,,,,0,0,13,,,,,6,,,66,100
47104,note_off,,,,,256,0,9,,,,,2,,,78,100
47104,note_off,,,,,256,0,11,,,,,4,,,52,100
47104,note_off,,,,,256,0,10,,,,,3,,,73,100
47104,note_off,,,,,256,0,12,,,,,5,,,40,100
47104,note_off,,,,,256,0,8,,,,,1,,,82,100
47104,note_off,,,,,256,0,14,,,,,6,,,52,100
47104,note_off,,,,,256,0,13,,,,,6,,,73,100
47104,note_off,,,,,0,0,13,,,,,6,,,70,100
47152,set_tempo,,,,,152,1,0,,1200000,,,,,,,
47232,note_on,,,,,128,0,11,,,,,4,,,51,70
47232,note_on,,,,,128,0,10,,,,,3,,,75,70
47232,note_on,,,,,128,0,12,,,,,5,,,39,70
47232,note_on,,,,,128,0,8,,,,,1,,,83,70
47232,note_on,,,,,128,0,9,,,,,2,,,78,70
47232,note_on,,,,,128,0,13,,,,,6,,,71,100
47232,note_on,,,,,128,0,14,,,,,6,,,51,100
47232,note_on,,,,,0,0,13,,,,,6,,,66,100
47308,set_tempo,,,,,156,1,0,,1224489,,,,,,,
47424,note_off,,,,,192,0,9,,,,,2,,,78,100
47424,note_off,,,,,192,0,14,,,,,6,,,51,100
47424,note_off,,,,,192,0,12,,,,,5,,,39,100
47424,note_off,,,,,192,0,11,,,,,4,,,51,100
47424,note_off,,,,,192,0,10,,,,,3,,,75,100
47424,note_off,,,,,192,0,13,,,,,6,,,71,100
47424,note_off,,,,,0,0,13,,,,,6,,,66,100
47460,set_tempo,,,,,152,1,0,,1250000,,,,,,,
47520,note_on,,,,,96,0,9,,,,,2,,,78,70
47520,note_on,,,,,96,0,11,,,,,4,,,51,70
47520,note_on,,,,,96,0,10,,,,,3,,,66,70
47520,note_on,,,,,0,0,13,,,,,6,,,66,100
47520,note_on,,,,,96,0,12,,,,,5,,,39,70
47520,note_on,,,,,96,0,14,,,,,6,,,51,100
47520,note_on,,,,,96,0,13,,,,,6,,,71,100
47584,note_off,,,,,0,0,13,,,,,6,,,66,100
47584,note_off,,,,,64,0,11,,,,,4,,,51,100
47584,note_off,,,,,64,0,12,,,,,5,,,39,100
47584,note_off,,,,,64,0,9,,,,,2,,,78,100
47584,note_off,,,,,64,0,13,,,,,6,,,71,100
47584,note_off,,,,,64,0,14,,,,,6,,,51,100
47584,note_off,,,,,64,0,10,,,,,3,,,66,100
47616,note_on,,,,,32,0,9,,,,,2,,,73,70
47616,set_tempo,,,,,156,1,0,,1395348,,,,,,,
47616,note_on,,,,,32,0,10,,,,,3,,,68,70
47616,note_on,,,,,0,0,13,,,,,6,,,73,100
47616,note_on,,,,,32,0,11,,,,,4,,,52,70
47616,note_on,,,,,32,0,13,,,,,6,,,71,100
47616,note_on,,,,,32,0,14,,,,,6,,,52,100
47616,note_on,,,,,32,0,12,,,,,5,,,40,70
47692,set_tempo,,,,,76,1,0,,1304347,,,,,,,
47768,set_tempo,,,,,76,1,0,,1333333,,,,,,,
47808,note_off,,,,,192,0,9,,,,,2,,,73,100
47808,note_off,,,,,192,0,13,,,,,6,,,71,100
47808,note_off,,,,,192,0,12,,,,,5,,,40,100
47808,note_off,,,,,192,0,14,,,,,6,,,52,100
47808,note_off,,,,,192,0,10,,,,,3,,,68,100
47808,note_off,,,,,0,0,13,,,,,6,,,73,100
47808,note_off,,,,,192,0,11,,,,,4,,,52,100
47844,set_tempo,,,,,76,1,0,,1363636,,,,,,,
47904,note_on,,,,,96,0,11,,,,,4,,,52,67
47904,note_on,,,,,96,0,9,,,,,2,,,73,67
47904,note_on,,,,,96,0,12,,,,,5,,,40,67
47904,note_on,,,,,96,0,14,,,,,6,,,52,100
47904,note_on,,,,,96,0,10,,,,,3,,,68,67
47904,note_on,,,,,96,0,13,,,,,6,,,71,100
47904,note_on,,,,,0,0,13,,,,,6,,,73,100
47920,note_off,,,,,688,0,8,,,,,1,,,83,64
47920,set_tempo,,,,,76,1,0,,1395348,,,,,,,
47968,note_off,,,,,64,0,13,,,,,6,,,71,100
47968,note_off,,,,,64,0,12,,,,,5,,,40,100
47968,note_off,,,,,64,0,10,,,,,3,,,68,100
47968,note_off,,,,,0,0,13,,,,,6,,,73,100
47968,note_off,,,,,64,0,14,,,,,6,,,52,100
47968,note_off,,,,,64,0,9,,,,,2,,,73,100
47968,note_off,,,,,64,0,11,,,,,4,,,52,100
48000,note_on,,,,,32,0,9,,,,,2,,,73,66
48000,note_on,,,,,0,0,13,,,,,6,,,73,100
48000,note_on,,,,,32,0,13,,,,,6,,,70,100
48000,note_on,,,,,32,0,12,,,,,5,,,42,66
48000,note_on,,,,,32,0,14,,,,,6,,,54,100
48000,note_on,,,,,32,0,10,,,,,3,,,66,66
48000,set_tempo,,,,,80,1,0,,1428571,,,,,,,
48000,note_on,,,,,80,0,8,,,,,1,,,82,66
48000,note_on,,,,,32,0,11,,,,,4,,,54,66
48036,set_tempo,,,,,36,1,0,,1463414,,,,,,,
48076,set_tempo,,,,,40,1,0,,1500000,,,,,,,
48112,set_tempo,,,,,36,1,0,,1538461,,,,,,,
48152,set_tempo,,,,,40,1,0,,1578947,,,,,,,
48192,set_tempo,,,,,40,1,0,,1621621,,,,,,,
48192,note_off,,,,,192,0,12,,,,,5,,,42,100
48192,note_off,,,,,192,0,11,,,,,4,,,54,100
48192,note_off,,,,,192,0,10,,,,,3,,,66,100
48192,note_off,,,,,0,0,13,,,,,6,,,73,100
48192,note_off,,,,,192,0,13,,,,,6,,,70,100
48192,note_off,,,,,192,0,9,,,,,2,,,73,100
48192,note_off,,,,,192,0,14,,,,,6,,,54,100
48228,set_tempo,,,,,36,1,0,,1666666,,,,,,,
48256,note_off,,,,,256,0,8,,,,,1,,,82,100
48268,set_tempo,,,,,40,1,0,,1714285,,,,,,,
48288,note_on,,,,,96,0,11,,,,,4,,,54,62
48288,note_on,,,,,96,0,13,,,,,6,,,70,100
48288,note_on,,,,,96,0,14,,,,,6,,,54,100
48288,note_on,,,,,96,0,9,,,,,2,,,73,62
48288,note_on,,,,,0,0,13,,,,,6,,,73,100
48288,note_on,,,,,96,0,10,,,,,3,,,66,62
48288,note_on,,,,,96,0,12,,,,,5,,,42,62
48304,set_tempo,,,,,36,1,0,,1764705,,,,,,,
48344,set_tempo,,,,,40,1,0,,1818181,,,,,,,
48352,note_off,,,,,64,0,12,,,,,5,,,42,100
48352,note_off,,,,,64,0,11,,,,,4,,,54,100
48352,note_off,,,,,64,0,13,,,,,6,,,70,100
48352,note_off,,,,,0,0,13,,,,,6,,,73,100
48352,note_off,,,,,64,0,9,,,,,2,,,73,100
48352,note_off,,,,,64,0,14,,,,,6,,,54,100
48352,note_off,,,,,64,0,10,,,,,3,,,66,100
48384,end_of_track,,,,,0,1,0,,,,,,,,,
48384,note_on,,,,,32,0,9,,,,,2,,,75,61
48384,note_on,,,,,128,0,8,,,,,1,,,83,61
48384,note_on,,,,,32,0,14,,,,,6,,,47,100
48384,note_on,,,,,32,0,11,,,,,4,,,47,61
48384,set_tempo,,,,,40,1,0,,1875000,,,,,,,
48384,note_on,,,,,32,0,12,,,,,5,,,35,61
48384,note_on,,,,,32,0,10,,,,,3,,,66,61
48412,note_on,,,,,60,0,13,,,,,6,,,63,100
48444,note_on,,,,,32,0,13,,,,,6,,,66,100
48476,note_on,,,,,32,0,13,,,,,6,,,71,100
48924,note_off,,,,,448,0,13,,,,,6,,,63,100
48956,note_off,,,,,32,0,13,,,,,6,,,66,100
48988,note_off,,,,,32,0,13,,,,,6,,,71,100
48988,end_of_track,,,,,0,1,13,,,,,,,,,
49072,note_off,,,,,688,0,10,,,,,3,,,66,100
49072,end_of_track,,,,,0,1,10,,,,,,,,,
49072,note_off,,,,,688,0,8,,,,,1,,,83,100
49072,end_of_track,,,,,0,1,8,,,,,,,,,
49072,note_off,,,,,688,0,14,,,,,6,,,47,100
49072,end_of_track,,,,,0,1,12,,,,,,,,,
49072,note_off,,,,,688,0,12,,,,,5,,,35,100
49072,note_off,,,,,688,0,9,,,,,2,,,75,100
49072,end_of_track,,,,,0,1,9,,,,,,,,,
49072,end_of_track,,,,,0,1,11,,,,,,,,,
49072,note_off,,,,,688,0,11,,,,,4,,,47,100
49072,end_of_track,,,,,0,1,14,,,,,,,,,
49724,end_of_track,,,,,0,1,7,,,,,,,,,
49724,program_change,,,,,9532,0,7,,,,,0,40,,,
