tick,type,numerator,denominator,clocks_per_click,notated_32nd_notes_per_beat,time,meta,track,data,tempo,control,value,channel,program,key,note,velocity
0,time_signature,4,4,96,8,0,1,0,,,,,,,,,
0,end_of_track,,,,,0,1,6,,,,,,,,,
0,track_name,,,,,0,1,7,,,,,,,,,
0,control_change,,,,,0,0,7,,,0,0,0,,,,
0,program_change,,,,,0,0,7,,,,,0,40,,,
0,control_change,,,,,0,0,7,,,7,100,0,,,,
0,control_change,,,,,0,0,7,,,91,65,0,,,,
0,key_signature,,,,,0,1,6,,,,,,,E,,
0,key_signature,,,,,0,1,7,,,,,,,E,,
0,key_signature,,,,,0,1,13,,,,,,,E,,
0,control_change,,,,,0,0,13,,,91,62,5,,,,
0,control_change,,,,,0,0,13,,,7,55,5,,,,
0,program_change,,,,,0,0,13,,,,,5,6,,,
0,control_change,,,,,0,0,13,,,0,0,5,,,,
0,track_name,,,,,0,1,13,,,,,,,,,
0,note_on,,,,,0,0,13,,,,,5,,,52,100
0,control_change,,,,,0,0,6,,,91,65,0,,,,
0,control_change,,,,,0,0,6,,,7,100,0,,,,
0,program_change,,,,,0,0,6,,,,,0,40,,,
0,control_change,,,,,0,0,4,,,0,0,0,,,,
0,program_change,,,,,0,0,4,,,,,0,40,,,
0,control_change,,,,,0,0,4,,,7,100,0,,,,
0,control_change,,,,,0,0,4,,,91,65,0,,,,
0,key_signature,,,,,0,1,4,,,,,,,E,,
0,end_of_track,,,,,0,1,4,,,,,,,,,
0,track_name,,,,,0,1,5,,,,,,,,,
0,control_change,,,,,0,0,5,,,0,0,0,,,,
0,program_change,,,,,0,0,5,,,,,0,40,,,
0,control_change,,,,,0,0,5,,,7,100,0,,,,
0,control_change,,,,,0,0,5,,,91,65,0,,,,
0,key_signature,,,,,0,1,5,,,,,,,E,,
0,end_of_track,,,,,0,1,5,,,,,,,,,
0,track_name,,,,,0,1,6,,,,,,,,,
0,control_change,,,,,0,0,6,,,0,0,0,,,,
0,control_change,,,,,0,0,10,,,0,0,3,,,,
0,note_on,,,,,0,0,12,,,,,5,,,68,100
0,note_on,,,,,0,0,12,,,,,5,,,71,100
0,key_signature,,,,,0,1,12,,,,,,,E,,
0,control_change,,,,,0,0,11,,,0,0,4,,,,
0,track_name,,,,,0,1,11,,,,,,,,,
0,track_name,,,,,0,1,9,,,,,,,,,
0,control_change,,,,,0,0,9,,,0,0,2,,,,
0,program_change,,,,,0,0,9,,,,,2,48,,,
0,control_change,,,,,0,0,9,,,7,95,2,,,,
0,control_change,,,,,0,0,9,,,91,63,2,,,,
0,key_signature,,,,,0,1,9,,,,,,,E,,
0,note_on,,,,,0,0,9,,,,,2,,,68,100
0,note_on,,,,,0,0,10,,,,,3,,,52,100
0,key_signature,,,,,0,1,10,,,,,,,E,,
0,control_change,,,,,0,0,10,,,91,67,3,,,,
0,control_change,,,,,0,0,10,,,10,71,3,,,,
0,control_change,,,,,0,0,10,,,7,82,3,,,,
0,program_change,,,,,0,0,10,,,,,3,48,,,
0,program_change,,,,,0,0,11,,,,,4,48,,,
0,track_name,,,,,0,1,4,,,,,,,,,
0,control_change,,,,,0,0,11,,,7,77,4,,,,
0,control_change,,,,,0,0,11,,,91,66,4,,,,
0,control_change,,,,,0,0,12,,,91,62,5,,,,
0,control_change,,,,,0,0,12,,,7,55,5,,,,
0,program_change,,,,,0,0,12,,,,,5,6,,,
0,control_change,,,,,0,0,12,,,0,0,5,,,,
0,track_name,,,,,0,1,12,,,,,,,,,
0,track_name,,,,,0,1,8,,,,,,,,,
0,control_change,,,,,0,0,8,,,0,0,1,,,,
0,program_change,,,,,0,0,8,,,,,1,48,,,
0,control_change,,,,,0,0,8,,,7,100,1,,,,
0,control_change,,,,,0,0,8,,,10,50,1,,,,
0,control_change,,,,,0,0,8,,,91,67,1,,,,
0,key_signature,,,,,0,1,8,,,,,,,E,,
0,note_on,,,,,0,0,8,,,,,1,,,76,100
0,note_on,,,,,0,0,11,,,,,4,,,40,100
0,key_signature,,,,,0,1,11,,,,,,,E,,
0,control_change,,,,,0,0,11,,,10,88,4,,,,
0,end_of_track,,,,,0,1,3,,,,,,,,,
0,track_name,,,,,0,1,10,,,,,,,,,
0,program_change,,,,,0,0,3,,,,,0,40,,,
0,key_signature,,,,,0,1,3,,,,,,,E,,
0,set_tempo,,,,,0,1,0,,555555,,,,,,,
0,sequencer_specific,,,,,0,1,0,"(0, 0, 65)",,,,,,,,
0,track_name,,,,,0,1,1,,,,,,,,,
0,end_of_track,,,,,0,1,1,,,,,,,,,
0,sequencer_specific,,,,,0,1,0,"(0, 0, 119, 14, 1)",,,,,,,,
0,end_of_track,,,,,0,1,2,,,,,,,,,
0,track_name,,,,,0,1,3,,,,,,,,,
0,control_change,,,,,0,0,3,,,0,0,0,,,,
0,control_change,,,,,0,0,3,,,7,100,0,,,,
0,control_change,,,,,0,0,3,,,91,65,0,,,,
0,track_name,,,,,0,1,2,,,,,,,,,
128,note_off,,,,,128,0,9,,,,,2,,,68,100
128,note_off,,,,,128,0,12,,,,,5,,,68,100
128,note_off,,,,,128,0,10,,,,,3,,,52,100
128,note_off,,,,,128,0,11,,,,,4,,,40,100
128,note_off,,,,,128,0,13,,,,,5,,,52,100
192,note_on,,,,,64,0,11,,,,,4,,,42,100
192,note_on,,,,,64,0,13,,,,,5,,,54,100
192,note_on,,,,,64,0,9,,,,,2,,,69,100
192,note_on,,,,,64,0,12,,,,,5,,,69,100
192,note_on,,,,,64,0,10,,,,,3,,,54,100
256,note_off,,,,,256,0,8,,,,,1,,,76,100
256,note_off,,,,,64,0,12,,,,,5,,,71,100
320,note_off,,,,,128,0,10,,,,,3,,,54,100
320,note_off,,,,,128,0,11,,,,,4,,,42,100
320,note_off,,,,,128,0,9,,,,,2,,,69,100
320,note_off,,,,,64,0,12,,,,,5,,,69,100
320,note_off,,,,,128,0,13,,,,,5,,,54,100
384,note_on,,,,,0,0,12,,,,,5,,,76,100
384,note_on,,,,,0,0,12,,,,,5,,,64,100
384,note_on,,,,,64,0,12,,,,,5,,,71,100
384,note_on,,,,,64,0,10,,,,,3,,,56,100
384,note_on,,,,,64,0,13,,,,,5,,,56,100
384,note_on,,,,,64,0,11,,,,,4,,,44,100
384,note_on,,,,,64,0,9,,,,,2,,,71,100
480,note_on,,,,,224,0,8,,,,,1,,,76,100
512,note_off,,,,,128,0,10,,,,,3,,,56,100
512,note_off,,,,,128,0,9,,,,,2,,,71,100
512,note_off,,,,,128,0,11,,,,,4,,,44,100
512,note_off,,,,,0,0,12,,,,,5,,,76,100
512,note_off,,,,,128,0,12,,,,,5,,,64,100
512,note_off,,,,,128,0,13,,,,,5,,,56,100
544,note_off,,,,,64,0,8,,,,,1,,,76,100
576,note_on,,,,,32,0,8,,,,,1,,,80,100
576,note_on,,,,,64,0,11,,,,,4,,,40,100
576,note_on,,,,,64,0,10,,,,,3,,,52,100
576,note_on,,,,,64,0,12,,,,,5,,,64,100
576,note_on,,,,,64,0,13,,,,,5,,,52,100
576,note_on,,,,,0,0,12,,,,,5,,,68,100
576,note_on,,,,,64,0,9,,,,,2,,,68,100
640,note_off,,,,,64,0,8,,,,,1,,,80,100
640,note_off,,,,,64,0,12,,,,,5,,,71,100
672,note_on,,,,,32,0,8,,,,,1,,,81,100
704,note_off,,,,,128,0,9,,,,,2,,,68,100
704,note_off,,,,,128,0,13,,,,,5,,,52,100
704,note_off,,,,,128,0,10,,,,,3,,,52,100
704,note_off,,,,,128,0,11,,,,,4,,,40,100
704,note_off,,,,,0,0,12,,,,,5,,,68,100
704,note_off,,,,,64,0,12,,,,,5,,,64,100
736,note_off,,,,,64,0,8,,,,,1,,,81,100
768,note_on,,,,,64,0,12,,,,,5,,,71,100
768,note_on,,,,,64,0,10,,,,,3,,,51,100
768,note_on,,,,,0,0,12,,,,,5,,,66,100
768,note_on,,,,,0,0,12,,,,,5,,,63,100
768,note_on,,,,,64,0,9,,,,,2,,,66,100
768,note_on,,,,,32,0,8,,,,,1,,,83,100
768,note_on,,,,,64,0,11,,,,,4,,,39,100
768,note_on,,,,,64,0,13,,,,,5,,,51,100
896,note_off,,,,,128,0,10,,,,,3,,,51,100
896,note_off,,,,,128,0,11,,,,,4,,,39,100
896,note_off,,,,,128,0,9,,,,,2,,,66,100
896,note_off,,,,,0,0,12,,,,,5,,,66,100
896,note_off,,,,,128,0,12,,,,,5,,,63,100
896,note_off,,,,,128,0,8,,,,,1,,,83,100
896,note_off,,,,,128,0,13,,,,,5,,,51,100
960,note_on,,,,,64,0,13,,,,,5,,,49,100
960,note_on,,,,,64,0,11,,,,,4,,,37,100
960,note_on,,,,,64,0,12,,,,,5,,,64,100
960,note_on,,,,,64,0,8,,,,,1,,,83,98
960,note_on,,,,,64,0,9,,,,,2,,,64,100
960,note_on,,,,,64,0,10,,,,,3,,,49,100
1024,note_off,,,,,64,0,12,,,,,5,,,71,100
1088,note_off,,,,,128,0,9,,,,,2,,,64,100
1088,note_off,,,,,64,0,12,,,,,5,,,64,100
1088,note_off,,,,,128,0,13,,,,,5,,,49,100
1088,note_off,,,,,128,0,8,,,,,1,,,83,100
1088,note_off,,,,,128,0,11,,,,,4,,,37,100
1088,note_off,,,,,128,0,10,,,,,3,,,49,100
1152,note_on,,,,,64,0,12,,,,,5,,,66,100
1152,note_on,,,,,0,0,12,,,,,5,,,71,100
1152,note_on,,,,,64,0,9,,,,,2,,,66,100
1152,note_on,,,,,64,0,8,,,,,1,,,83,95
1152,note_on,,,,,64,0,10,,,,,3,,,51,100
1152,note_on,,,,,64,0,13,,,,,5,,,51,100
1152,note_on,,,,,64,0,11,,,,,4,,,39,100
1280,note_off,,,,,128,0,12,,,,,5,,,66,100
1280,note_off,,,,,128,0,9,,,,,2,,,66,100
1280,note_off,,,,,128,0,8,,,,,1,,,83,100
1280,note_off,,,,,128,0,13,,,,,5,,,51,100
1280,note_off,,,,,128,0,10,,,,,3,,,51,100
1280,note_off,,,,,128,0,11,,,,,4,,,39,100
1344,note_on,,,,,64,0,9,,,,,2,,,63,100
1344,note_on,,,,,64,0,13,,,,,5,,,47,100
1344,note_on,,,,,64,0,11,,,,,4,,,35,100
1344,note_on,,,,,64,0,12,,,,,5,,,63,100
1344,note_on,,,,,0,0,12,,,,,5,,,66,100
1344,note_on,,,,,64,0,10,,,,,3,,,47,100
1344,note_on,,,,,64,0,8,,,,,1,,,83,92
1408,note_off,,,,,64,0,12,,,,,5,,,71,100
1472,note_off,,,,,128,0,10,,,,,3,,,47,100
1472,note_off,,,,,128,0,11,,,,,4,,,35,100
1472,note_off,,,,,0,0,12,,,,,5,,,66,100
1472,note_off,,,,,64,0,12,,,,,5,,,63,100
1472,note_off,,,,,128,0,13,,,,,5,,,47,100
1472,note_off,,,,,128,0,9,,,,,2,,,63,100
1472,note_off,,,,,128,0,8,,,,,1,,,83,100
1536,note_on,,,,,0,0,12,,,,,5,,,68,100
1536,note_on,,,,,64,0,13,,,,,5,,,52,100
1536,note_on,,,,,64,0,12,,,,,5,,,64,100
1536,set_tempo,,,,,1536,1,0,,555555,,,,,,,
1536,note_on,,,,,0,0,12,,,,,5,,,71,100
1536,note_on,,,,,64,0,8,,,,,1,,,80,89
1536,note_on,,,,,64,0,9,,,,,2,,,59,70
1536,note_on,,,,,64,0,11,,,,,4,,,40,70
1536,note_on,,,,,64,0,10,,,,,3,,,52,70
1664,note_off,,,,,128,0,9,,,,,2,,,59,100
1664,note_off,,,,,0,0,12,,,,,5,,,68,100
1664,note_off,,,,,128,0,13,,,,,5,,,52,100
1664,note_off,,,,,128,0,12,,,,,5,,,64,100
1664,note_off,,,,,128,0,11,,,,,4,,,40,100
1664,note_off,,,,,128,0,8,,,,,1,,,80,100
1664,note_off,,,,,128,0,10,,,,,3,,,52,100
1728,note_on,,,,,64,0,9,,,,,2,,,69,70
1728,note_on,,,,,64,0,13,,,,,5,,,54,100
1728,note_on,,,,,64,0,12,,,,,5,,,69,100
1728,note_on,,,,,64,0,11,,,,,4,,,42,70
1728,note_on,,,,,64,0,8,,,,,1,,,76,86
1728,note_on,,,,,64,0,10,,,,,3,,,54,70
1792,note_off,,,,,64,0,12,,,,,5,,,71,100
1856,note_off,,,,,128,0,9,,,,,2,,,69,100
1856,note_off,,,,,64,0,12,,,,,5,,,69,100
1856,note_off,,,,,128,0,8,,,,,1,,,76,100
1856,note_off,,,,,128,0,10,,,,,3,,,54,100
1856,note_off,,,,,128,0,13,,,,,5,,,54,100
1856,note_off,,,,,128,0,11,,,,,4,,,42,100
1920,note_on,,,,,64,0,10,,,,,3,,,56,70
1920,note_on,,,,,64,0,9,,,,,2,,,71,70
1920,note_on,,,,,64,0,13,,,,,5,,,56,100
1920,note_on,,,,,64,0,11,,,,,4,,,44,70
1920,note_on,,,,,64,0,12,,,,,5,,,71,100
1920,note_on,,,,,0,0,12,,,,,5,,,76,100
1920,note_on,,,,,0,0,12,,,,,5,,,64,100
2016,note_on,,,,,160,0,8,,,,,1,,,76,70
2048,note_off,,,,,128,0,12,,,,,5,,,64,100
2048,note_off,,,,,128,0,13,,,,,5,,,56,100
2048,note_off,,,,,128,0,11,,,,,4,,,44,100
2048,note_off,,,,,0,0,12,,,,,5,,,76,100
2048,note_off,,,,,128,0,10,,,,,3,,,56,100
2048,note_off,,,,,128,0,9,,,,,2,,,71,100
2080,note_off,,,,,64,0,8,,,,,1,,,76,100
2112,note_on,,,,,0,0,12,,,,,5,,,68,100
2112,note_on,,,,,64,0,11,,,,,4,,,40,70
2112,note_on,,,,,32,0,8,,,,,1,,,80,70
2112,note_on,,,,,64,0,12,,,,,5,,,64,100
2112,note_on,,,,,64,0,9,,,,,2,,,68,70
2112,note_on,,,,,64,0,10,,,,,3,,,52,70
2112,note_on,,,,,64,0,13,,,,,5,,,52,100
2176,note_off,,,,,64,0,12,,,,,5,,,71,100
2176,note_off,,,,,64,0,8,,,,,1,,,80,100
2208,note_on,,,,,32,0,8,,,,,1,,,81,70
2240,note_off,,,,,0,0,12,,,,,5,,,68,100
2240,note_off,,,,,64,0,12,,,,,5,,,64,100
2240,note_off,,,,,128,0,13,,,,,5,,,52,100
2240,note_off,,,,,128,0,10,,,,,3,,,52,100
2240,note_off,,,,,128,0,11,,,,,4,,,40,100
2240,note_off,,,,,128,0,9,,,,,2,,,68,100
2272,note_off,,,,,64,0,8,,,,,1,,,81,100
2304,note_on,,,,,32,0,8,,,,,1,,,83,70
2304,note_on,,,,,64,0,12,,,,,5,,,71,100
2304,note_on,,,,,64,0,9,,,,,2,,,66,70
2304,note_on,,,,,64,0,10,,,,,3,,,51,70
2304,note_on,,,,,64,0,11,,,,,4,,,39,70
2304,note_on,,,,,0,0,12,,,,,5,,,63,100
2304,note_on,,,,,64,0,13,,,,,5,,,51,100
2304,note_on,,,,,0,0,12,,,,,5,,,66,100
2432,note_off,,,,,128,0,13,,,,,5,,,51,100
2432,note_off,,,,,0,0,12,,,,,5,,,66,100
2432,note_off,,,,,128,0,9,,,,,2,,,66,100
2432,note_off,,,,,128,0,12,,,,,5,,,63,100
2432,note_off,,,,,128,0,8,,,,,1,,,83,100
2432,note_off,,,,,128,0,11,,,,,4,,,39,100
2432,note_off,,,,,128,0,10,,,,,3,,,51,100
2496,note_on,,,,,64,0,12,,,,,5,,,64,100
2496,note_on,,,,,64,0,9,,,,,2,,,64,70
2496,note_on,,,,,64,0,13,,,,,5,,,49,100
2496,note_on,,,,,64,0,11,,,,,4,,,37,70
2496,note_on,,,,,64,0,8,,,,,1,,,83,70
2496,note_on,,,,,64,0,10,,,,,3,,,49,70
2560,note_off,,,,,64,0,12,,,,,5,,,71,100
2624,note_off,,,,,128,0,13,,,,,5,,,49,100
2624,note_off,,,,,128,0,11,,,,,4,,,37,100
2624,note_off,,,,,128,0,9,,,,,2,,,64,100
2624,note_off,,,,,128,0,8,,,,,1,,,83,100
2624,note_off,,,,,128,0,10,,,,,3,,,49,100
2624,note_off,,,,,64,0,12,,,,,5,,,64,100
2688,note_on,,,,,64,0,11,,,,,4,,,39,70
2688,note_on,,,,,64,0,9,,,,,2,,,66,70
2688,note_on,,,,,0,0,12,,,,,5,,,71,100
2688,note_on,,,,,64,0,12,,,,,5,,,66,100
2688,note_on,,,,,64,0,13,,,,,5,,,51,100
2688,note_on,,,,,64,0,10,,,,,3,,,51,70
2688,note_on,,,,,64,0,8,,,,,1,,,83,70
2816,note_off,,,,,128,0,12,,,,,5,,,66,100
2816,note_off,,,,,128,0,10,,,,,3,,,51,100
2816,note_off,,,,,128,0,8,,,,,1,,,83,100
2816,note_off,,,,,128,0,9,,,,,2,,,66,100
2816,note_off,,,,,128,0,13,,,,,5,,,51,100
2816,note_off,,,,,128,0,11,,,,,4,,,39,100
2880,note_on,,,,,64,0,12,,,,,5,,,63,100
2880,note_on,,,,,64,0,11,,,,,4,,,35,70
2880,note_on,,,,,0,0,12,,,,,5,,,66,100
2880,note_on,,,,,64,0,9,,,,,2,,,63,70
2880,note_on,,,,,64,0,8,,,,,1,,,83,70
2880,note_on,,,,,64,0,13,,,,,5,,,47,100
2880,note_on,,,,,64,0,10,,,,,3,,,47,70
2944,note_off,,,,,64,0,12,,,,,5,,,71,100
3008,note_off,,,,,128,0,10,,,,,3,,,47,100
3008,note_off,,,,,128,0,8,,,,,1,,,83,100
3008,note_off,,,,,128,0,13,,,,,5,,,47,100
3008,note_off,,,,,128,0,9,,,,,2,,,63,100
3008,note_off,,,,,128,0,11,,,,,4,,,35,100
3008,note_off,,,,,64,0,12,,,,,5,,,63,100
3008,note_off,,,,,0,0,12,,,,,5,,,66,100
3072,note_on,,,,,64,0,12,,,,,5,,,64,100
3072,note_on,,,,,64,0,9,,,,,2,,,59,100
3072,note_on,,,,,64,0,13,,,,,5,,,52,100
3072,note_on,,,,,64,0,10,,,,,3,,,52,100
3072,note_on,,,,,64,0,11,,,,,4,,,40,100
3072,note_on,,,,,0,0,12,,,,,5,,,68,100
3072,note_on,,,,,64,0,8,,,,,1,,,80,70
3072,note_on,,,,,0,0,12,,,,,5,,,71,100
3200,note_off,,,,,128,0,13,,,,,5,,,52,100
3200,note_off,,,,,128,0,8,,,,,1,,,80,100
3200,note_off,,,,,128,0,10,,,,,3,,,52,100
3200,note_off,,,,,128,0,11,,,,,4,,,40,100
3200,note_off,,,,,0,0,12,,,,,5,,,68,100
3200,note_off,,,,,128,0,9,,,,,2,,,59,100
3200,note_off,,,,,128,0,12,,,,,5,,,64,100
3264,note_on,,,,,64,0,13,,,,,5,,,54,100
3264,note_on,,,,,64,0,9,,,,,2,,,69,100
3264,note_on,,,,,64,0,11,,,,,4,,,42,100
3264,note_on,,,,,64,0,12,,,,,5,,,69,100
3264,note_on,,,,,64,0,10,,,,,3,,,54,100
3264,note_on,,,,,64,0,8,,,,,1,,,76,70
3328,note_off,,,,,64,0,12,,,,,5,,,71,100
3392,note_off,,,,,128,0,9,,,,,2,,,69,100
3392,note_off,,,,,128,0,10,,,,,3,,,54,100
3392,note_off,,,,,128,0,8,,,,,1,,,76,100
3392,note_off,,,,,128,0,11,,,,,4,,,42,100
3392,note_off,,,,,64,0,12,,,,,5,,,69,100
3392,note_off,,,,,128,0,13,,,,,5,,,54,100
3456,note_on,,,,,64,0,11,,,,,4,,,44,100
3456,note_on,,,,,64,0,10,,,,,3,,,56,100
3456,note_on,,,,,64,0,13,,,,,5,,,56,100
3456,note_on,,,,,0,0,12,,,,,5,,,64,100
3456,note_on,,,,,64,0,12,,,,,5,,,71,100
3456,note_on,,,,,64,0,9,,,,,2,,,71,100
3456,note_on,,,,,0,0,12,,,,,5,,,76,100
3552,note_on,,,,,160,0,8,,,,,1,,,76,100
3584,note_off,,,,,128,0,10,,,,,3,,,56,100
3584,note_off,,,,,128,0,12,,,,,5,,,64,100
3584,note_off,,,,,128,0,11,,,,,4,,,44,100
3584,note_off,,,,,128,0,13,,,,,5,,,56,100
3584,note_off,,,,,128,0,9,,,,,2,,,71,100
3584,note_off,,,,,0,0,12,,,,,5,,,76,100
3616,note_off,,,,,64,0,8,,,,,1,,,76,100
3648,note_on,,,,,64,0,13,,,,,5,,,52,100
3648,note_on,,,,,32,0,8,,,,,1,,,80,100
3648,note_on,,,,,64,0,12,,,,,5,,,64,100
3648,note_on,,,,,0,0,12,,,,,5,,,68,100
3648,note_on,,,,,64,0,11,,,,,4,,,40,100
3648,note_on,,,,,64,0,9,,,,,2,,,68,100
3648,note_on,,,,,64,0,10,,,,,3,,,52,100
3712,note_off,,,,,64,0,8,,,,,1,,,80,100
3712,note_off,,,,,64,0,12,,,,,5,,,71,100
3744,note_on,,,,,32,0,8,,,,,1,,,81,100
3776,note_off,,,,,128,0,11,,,,,4,,,40,100
3776,note_off,,,,,128,0,10,,,,,3,,,52,100
3776,note_off,,,,,128,0,13,,,,,5,,,52,100
3776,note_off,,,,,0,0,12,,,,,5,,,68,100
3776,note_off,,,,,64,0,12,,,,,5,,,64,100
3776,note_off,,,,,128,0,9,,,,,2,,,68,100
3808,note_off,,,,,64,0,8,,,,,1,,,81,100
3840,note_on,,,,,64,0,9,,,,,2,,,66,100
3840,note_on,,,,,0,0,12,,,,,5,,,66,100
3840,note_on,,,,,0,0,12,,,,,5,,,71,100
3840,note_on,,,,,64,0,12,,,,,5,,,75,100
3840,note_on,,,,,32,0,8,,,,,1,,,83,100
3840,note_on,,,,,64,0,10,,,,,3,,,51,100
3840,note_on,,,,,64,0,11,,,,,4,,,39,100
3840,note_on,,,,,64,0,13,,,,,5,,,51,100
3968,note_off,,,,,128,0,9,,,,,2,,,66,100
3968,note_off,,,,,128,0,11,,,,,4,,,39,100
3968,note_off,,,,,128,0,13,,,,,5,,,51,100
3968,note_off,,,,,128,0,8,,,,,1,,,83,100
3968,note_off,,,,,128,0,10,,,,,3,,,51,100
3968,note_off,,,,,128,0,12,,,,,5,,,75,100
3968,note_off,,,,,0,0,12,,,,,5,,,71,100
3968,note_off,,,,,0,0,12,,,,,5,,,66,100
4032,note_on,,,,,64,0,13,,,,,5,,,52,100
4032,note_on,,,,,64,0,10,,,,,3,,,52,100
4032,note_on,,,,,64,0,11,,,,,4,,,40,100
4032,note_on,,,,,64,0,12,,,,,5,,,73,100
4032,note_on,,,,,64,0,8,,,,,1,,,81,100
4032,note_on,,,,,64,0,9,,,,,2,,,68,100
4032,note_on,,,,,0,0,12,,,,,5,,,68,100
4096,note_off,,,,,64,0,12,,,,,5,,,73,100
4096,note_off,,,,,64,0,8,,,,,1,,,81,100
4128,note_on,,,,,32,0,12,,,,,5,,,71,100
4128,note_on,,,,,32,0,8,,,,,1,,,80,100
4160,note_off,,,,,128,0,13,,,,,5,,,52,100
4160,note_off,,,,,32,0,12,,,,,5,,,68,100
4160,note_off,,,,,128,0,11,,,,,4,,,40,100
4160,note_off,,,,,128,0,9,,,,,2,,,68,100
4160,note_off,,,,,128,0,10,,,,,3,,,52,100
4192,note_off,,,,,32,0,12,,,,,5,,,71,100
4192,note_off,,,,,64,0,8,,,,,1,,,80,100
4224,note_on,,,,,32,0,8,,,,,1,,,78,100
4224,note_on,,,,,64,0,13,,,,,5,,,57,100
4224,note_on,,,,,64,0,11,,,,,4,,,45,100
4224,note_on,,,,,64,0,10,,,,,3,,,57,100
4224,note_on,,,,,32,0,12,,,,,5,,,66,100
4224,note_on,,,,,0,0,12,,,,,5,,,73,100
4224,note_on,,,,,64,0,9,,,,,2,,,73,100
4352,note_off,,,,,128,0,10,,,,,3,,,57,100
4352,note_off,,,,,128,0,11,,,,,4,,,45,100
4352,note_off,,,,,128,0,12,,,,,5,,,66,100
4352,note_off,,,,,0,0,12,,,,,5,,,73,100
4352,note_off,,,,,128,0,9,,,,,2,,,73,100
4352,note_off,,,,,128,0,13,,,,,5,,,57,100
4352,note_off,,,,,128,0,8,,,,,1,,,78,100
4416,note_on,,,,,64,0,8,,,,,1,,,76,100
4416,note_on,,,,,64,0,11,,,,,4,,,42,100
4416,note_on,,,,,0,0,12,,,,,5,,,73,100
4416,note_on,,,,,64,0,13,,,,,5,,,54,100
4416,note_on,,,,,64,0,9,,,,,2,,,70,100
4416,note_on,,,,,64,0,12,,,,,5,,,70,100
4416,note_on,,,,,64,0,10,,,,,3,,,54,100
4544,note_off,,,,,128,0,11,,,,,4,,,42,100
4544,note_off,,,,,128,0,9,,,,,2,,,70,100
4544,note_off,,,,,128,0,13,,,,,5,,,54,100
4544,note_off,,,,,128,0,10,,,,,3,,,54,100
4544,note_off,,,,,0,0,12,,,,,5,,,73,100
4544,note_off,,,,,128,0,12,,,,,5,,,70,100
4544,note_off,,,,,128,0,8,,,,,1,,,76,100
4608,note_on,,,,,64,0,10,,,,,3,,,59,100
4608,note_on,,,,,64,0,11,,,,,4,,,47,100
4608,note_on,,,,,64,0,8,,,,,1,,,75,100
4608,note_on,,,,,0,0,12,,,,,5,,,75,100
4608,note_on,,,,,64,0,13,,,,,5,,,59,100
4608,note_on,,,,,0,0,12,,,,,5,,,66,100
4608,note_on,,,,,64,0,12,,,,,5,,,71,100
4608,note_on,,,,,64,0,9,,,,,2,,,66,100
4736,note_off,,,,,128,0,10,,,,,3,,,59,100
4736,note_off,,,,,128,0,13,,,,,5,,,59,100
4736,note_off,,,,,128,0,11,,,,,4,,,47,100
4736,note_off,,,,,128,0,8,,,,,1,,,75,100
4736,note_off,,,,,128,0,9,,,,,2,,,66,100
4736,note_off,,,,,128,0,12,,,,,5,,,75,100
4800,note_on,,,,,64,0,12,,,,,5,,,76,100
4800,note_on,,,,,64,0,13,,,,,5,,,61,100
4800,note_on,,,,,64,0,9,,,,,2,,,64,100
4800,note_on,,,,,64,0,10,,,,,3,,,61,100
4800,note_on,,,,,64,0,11,,,,,4,,,49,100
4800,note_on,,,,,64,0,8,,,,,1,,,71,100
4864,note_off,,,,,0,0,12,,,,,5,,,66,100
4864,note_off,,,,,64,0,12,,,,,5,,,71,100
4928,note_off,,,,,128,0,11,,,,,4,,,49,100
4928,note_off,,,,,128,0,13,,,,,5,,,61,100
4928,note_off,,,,,128,0,10,,,,,3,,,61,100
4928,note_off,,,,,64,0,12,,,,,5,,,76,100
4928,note_off,,,,,128,0,8,,,,,1,,,71,100
4928,note_off,,,,,128,0,9,,,,,2,,,64,100
4992,note_on,,,,,64,0,10,,,,,3,,,63,100
4992,note_on,,,,,64,0,13,,,,,5,,,63,100
4992,note_on,,,,,64,0,9,,,,,2,,,66,100
4992,note_on,,,,,64,0,11,,,,,4,,,51,100
4992,note_on,,,,,64,0,12,,,,,5,,,78,100
4992,note_on,,,,,0,0,12,,,,,5,,,71,100
5088,note_on,,,,,160,0,8,,,,,1,,,71,100
5120,note_off,,,,,128,0,11,,,,,4,,,51,100
5120,note_off,,,,,128,0,13,,,,,5,,,63,100
5120,note_off,,,,,128,0,9,,,,,2,,,66,100
5120,note_off,,,,,128,0,10,,,,,3,,,63,100
5120,note_off,,,,,128,0,12,,,,,5,,,71,100
5152,note_off,,,,,64,0,8,,,,,1,,,71,100
5184,note_on,,,,,64,0,12,,,,,5,,,71,100
5184,note_on,,,,,32,0,8,,,,,1,,,75,100
5184,note_on,,,,,64,0,10,,,,,3,,,59,100
5184,note_on,,,,,64,0,11,,,,,4,,,47,100
5184,note_on,,,,,0,0,12,,,,,5,,,75,100
5184,note_on,,,,,64,0,13,,,,,5,,,59,100
5184,note_on,,,,,64,0,9,,,,,2,,,71,100
5248,note_off,,,,,64,0,8,,,,,1,,,75,100
5248,note_off,,,,,64,0,12,,,,,5,,,78,100
5280,note_on,,,,,32,0,8,,,,,1,,,76,100
5312,note_off,,,,,0,0,12,,,,,5,,,75,100
5312,note_off,,,,,128,0,10,,,,,3,,,59,100
5312,note_off,,,,,128,0,11,,,,,4,,,47,100
5312,note_off,,,,,128,0,9,,,,,2,,,71,100
5312,note_off,,,,,128,0,13,,,,,5,,,59,100
5312,note_off,,,,,64,0,12,,,,,5,,,71,100
5344,note_off,,,,,64,0,8,,,,,1,,,76,100
5376,note_on,,,,,0,0,12,,,,,5,,,73,100
5376,note_on,,,,,64,0,10,,,,,3,,,58,100
5376,note_on,,,,,64,0,9,,,,,2,,,73,100
5376,note_on,,,,,0,0,12,,,,,5,,,70,100
5376,note_on,,,,,32,0,8,,,,,1,,,78,100
5376,note_on,,,,,64,0,13,,,,,5,,,58,100
5376,note_on,,,,,64,0,12,,,,,5,,,78,100
5376,note_on,,,,,64,0,11,,,,,4,,,46,100
5504,note_off,,,,,128,0,10,,,,,3,,,58,100
5504,note_off,,,,,128,0,8,,,,,1,,,78,100
5504,note_off,,,,,128,0,12,,,,,5,,,70,100
5504,note_off,,,,,0,0,12,,,,,5,,,73,100
5504,note_off,,,,,128,0,13,,,,,5,,,58,100
5504,note_off,,,,,128,0,9,,,,,2,,,73,100
5504,note_off,,,,,128,0,11,,,,,4,,,46,100
5568,note_on,,,,,64,0,8,,,,,1,,,78,98
5568,note_on,,,,,64,0,13,,,,,5,,,56,100
5568,note_on,,,,,64,0,11,,,,,4,,,44,100
5568,note_on,,,,,64,0,9,,,,,2,,,71,100
5568,note_on,,,,,64,0,12,,,,,5,,,71,100
5568,note_on,,,,,64,0,10,,,,,3,,,56,100
5632,note_off,,,,,64,0,12,,,,,5,,,78,100
5696,note_off,,,,,128,0,11,,,,,4,,,44,100
5696,note_off,,,,,64,0,12,,,,,5,,,71,100
5696,note_off,,,,,128,0,13,,,,,5,,,56,100
5696,note_off,,,,,128,0,9,,,,,2,,,71,100
5696,note_off,,,,,128,0,8,,,,,1,,,78,100
5696,note_off,,,,,128,0,10,,,,,3,,,56,100
5760,note_on,,,,,64,0,11,,,,,4,,,46,100
5760,note_on,,,,,64,0,13,,,,,5,,,58,100
5760,note_on,,,,,64,0,9,,,,,2,,,73,100
5760,note_on,,,,,64,0,8,,,,,1,,,78,95
5760,note_on,,,,,64,0,12,,,,,5,,,73,100
5760,note_on,,,,,0,0,12,,,,,5,,,78,100
5760,note_on,,,,,64,0,10,,,,,3,,,58,100
5888,note_off,,,,,128,0,8,,,,,1,,,78,100
5888,note_off,,,,,128,0,10,,,,,3,,,58,100
5888,note_off,,,,,128,0,13,,,,,5,,,58,100
5888,note_off,,,,,128,0,11,,,,,4,,,46,100
5888,note_off,,,,,128,0,12,,,,,5,,,73,100
5888,note_off,,,,,128,0,9,,,,,2,,,73,100
5952,note_on,,,,,64,0,11,,,,,4,,,42,100
5952,note_on,,,,,64,0,12,,,,,5,,,70,100
5952,note_on,,,,,0,0,12,,,,,5,,,73,100
5952,note_on,,,,,64,0,8,,,,,1,,,78,92
5952,note_on,,,,,64,0,9,,,,,2,,,70,100
5952,note_on,,,,,64,0,10,,,,,3,,,54,100
5952,note_on,,,,,64,0,13,,,,,5,,,54,100
6016,note_off,,,,,64,0,12,,,,,5,,,78,100
6080,note_off,,,,,128,0,9,,,,,2,,,70,100
6080,note_off,,,,,64,0,12,,,,,5,,,70,100
6080,note_off,,,,,128,0,10,,,,,3,,,54,100
6080,note_off,,,,,128,0,11,,,,,4,,,42,100
6080,note_off,,,,,128,0,13,,,,,5,,,54,100
6080,note_off,,,,,128,0,8,,,,,1,,,78,100
6080,note_off,,,,,0,0,12,,,,,5,,,73,100
6144,note_on,,,,,0,0,12,,,,,5,,,78,100
6144,note_on,,,,,0,0,12,,,,,5,,,75,100
6144,note_on,,,,,64,0,13,,,,,5,,,59,100
6144,note_on,,,,,64,0,12,,,,,5,,,71,100
6144,note_on,,,,,64,0,8,,,,,1,,,75,89
6144,note_on,,,,,64,0,11,,,,,4,,,47,70
6144,note_on,,,,,64,0,10,,,,,3,,,59,70
6144,note_on,,,,,64,0,9,,,,,2,,,66,70
6272,note_off,,,,,128,0,8,,,,,1,,,75,100
6272,note_off,,,,,128,0,11,,,,,4,,,47,100
6272,note_off,,,,,0,0,12,,,,,5,,,75,100
6272,note_off,,,,,128,0,10,,,,,3,,,59,100
6272,note_off,,,,,128,0,9,,,,,2,,,66,100
6272,note_off,,,,,128,0,13,,,,,5,,,59,100
6272,note_off,,,,,128,0,12,,,,,5,,,71,100
6336,note_on,,,,,64,0,12,,,,,5,,,76,100
6336,note_on,,,,,64,0,13,,,,,5,,,61,100
6336,note_on,,,,,64,0,8,,,,,1,,,71,86
6336,note_on,,,,,64,0,11,,,,,4,,,49,70
6336,note_on,,,,,64,0,9,,,,,2,,,64,70
6336,note_on,,,,,64,0,10,,,,,3,,,61,70
6400,note_off,,,,,64,0,12,,,,,5,,,78,100
6464,note_off,,,,,128,0,9,,,,,2,,,64,100
6464,note_off,,,,,64,0,12,,,,,5,,,76,100
6464,note_off,,,,,128,0,13,,,,,5,,,61,100
6464,note_off,,,,,128,0,8,,,,,1,,,71,100
6464,note_off,,,,,128,0,11,,,,,4,,,49,100
6464,note_off,,,,,128,0,10,,,,,3,,,61,100
6528,note_on,,,,,64,0,9,,,,,2,,,66,70
6528,note_on,,,,,64,0,13,,,,,5,,,63,100
6528,note_on,,,,,64,0,11,,,,,4,,,51,70
6528,note_on,,,,,0,0,12,,,,,5,,,71,100
6528,note_on,,,,,64,0,12,,,,,5,,,78,100
6528,note_on,,,,,64,0,10,,,,,3,,,63,70
6624,note_on,,,,,160,0,8,,,,,1,,,71,70
6656,note_off,,,,,128,0,9,,,,,2,,,66,100
6656,note_off,,,,,128,0,11,,,,,4,,,51,100
6656,note_off,,,,,128,0,13,,,,,5,,,63,100
6656,note_off,,,,,128,0,12,,,,,5,,,71,100
6656,note_off,,,,,128,0,10,,,,,3,,,63,100
6688,note_off,,,,,64,0,8,,,,,1,,,71,100
6720,note_on,,,,,64,0,10,,,,,3,,,59,70
6720,note_on,,,,,32,0,8,,,,,1,,,75,70
6720,note_on,,,,,64,0,9,,,,,2,,,71,70
6720,note_on,,,,,0,0,12,,,,,5,,,75,100
6720,note_on,,,,,64,0,12,,,,,5,,,71,100
6720,note_on,,,,,64,0,13,,,,,5,,,59,100
6720,note_on,,,,,64,0,11,,,,,4,,,47,70
6784,note_off,,,,,64,0,8,,,,,1,,,75,100
6784,note_off,,,,,64,0,12,,,,,5,,,78,100
6816,note_on,,,,,32,0,8,,,,,1,,,76,70
6848,note_off,,,,,64,0,12,,,,,5,,,71,100
6848,note_off,,,,,128,0,9,,,,,2,,,71,100
6848,note_off,,,,,128,0,11,,,,,4,,,47,100
6848,note_off,,,,,0,0,12,,,,,5,,,75,100
6848,note_off,,,,,128,0,13,,,,,5,,,59,100
6848,note_off,,,,,128,0,10,,,,,3,,,59,100
6880,note_off,,,,,64,0,8,,,,,1,,,76,100
6912,note_on,,,,,0,0,12,,,,,5,,,70,100
6912,note_on,,,,,64,0,10,,,,,3,,,58,70
6912,note_on,,,,,32,0,8,,,,,1,,,78,70
6912,note_on,,,,,0,0,12,,,,,5,,,73,100
6912,note_on,,,,,64,0,12,,,,,5,,,78,100
6912,note_on,,,,,64,0,11,,,,,4,,,46,70
6912,note_on,,,,,64,0,9,,,,,2,,,73,70
6912,note_on,,,,,64,0,13,,,,,5,,,58,100
7040,note_off,,,,,128,0,11,,,,,4,,,46,100
7040,note_off,,,,,128,0,12,,,,,5,,,70,100
7040,note_off,,,,,0,0,12,,,,,5,,,73,100
7040,note_off,,,,,128,0,8,,,,,1,,,78,100
7040,note_off,,,,,128,0,9,,,,,2,,,73,100
7040,note_off,,,,,128,0,13,,,,,5,,,58,100
7040,note_off,,,,,128,0,10,,,,,3,,,58,100
7104,note_on,,,,,64,0,8,,,,,1,,,78,70
7104,note_on,,,,,64,0,13,,,,,5,,,56,100
7104,note_on,,,,,64,0,11,,,,,4,,,44,70
7104,note_on,,,,,64,0,9,,,,,2,,,71,70
7104,note_on,,,,,64,0,10,,,,,3,,,56,70
7104,note_on,,,,,64,0,12,,,,,5,,,71,100
7168,note_off,,,,,64,0,12,,,,,5,,,78,100
7232,note_off,,,,,128,0,13,,,,,5,,,56,100
7232,note_off,,,,,128,0,11,,,,,4,,,44,100
7232,note_off,,,,,128,0,9,,,,,2,,,71,100
7232,note_off,,,,,128,0,10,,,,,3,,,56,100
7232,note_off,,,,,128,0,8,,,,,1,,,78,100
7232,note_off,,,,,64,0,12,,,,,5,,,71,100
7296,note_on,,,,,64,0,12,,,,,5,,,73,100
7296,note_on,,,,,64,0,13,,,,,5,,,58,100
7296,note_on,,,,,64,0,10,,,,,3,,,58,70
7296,note_on,,,,,0,0,12,,,,,5,,,78,100
7296,note_on,,,,,64,0,8,,,,,1,,,78,70
7296,note_on,,,,,64,0,11,,,,,4,,,46,70
7296,note_on,,,,,64,0,9,,,,,2,,,73,70
7424,note_off,,,,,128,0,8,,,,,1,,,78,100
7424,note_off,,,,,128,0,11,,,,,4,,,46,100
7424,note_off,,,,,128,0,9,,,,,2,,,73,100
7424,note_off,,,,,128,0,13,,,,,5,,,58,100
7424,note_off,,,,,128,0,12,,,,,5,,,73,100
7424,note_off,,,,,128,0,10,,,,,3,,,58,100
7488,note_on,,,,,64,0,11,,,,,4,,,42,70
7488,note_on,,,,,0,0,12,,,,,5,,,73,100
7488,note_on,,,,,64,0,8,,,,,1,,,78,70
7488,note_on,,,,,64,0,9,,,,,2,,,70,70
7488,note_on,,,,,64,0,12,,,,,5,,,70,100
7488,note_on,,,,,64,0,10,,,,,3,,,54,70
7488,note_on,,,,,64,0,13,,,,,5,,,54,100
7552,note_off,,,,,64,0,12,,,,,5,,,78,100
7616,note_off,,,,,128,0,8,,,,,1,,,78,100
7616,note_off,,,,,128,0,13,,,,,5,,,54,100
7616,note_off,,,,,128,0,10,,,,,3,,,54,100
7616,note_off,,,,,128,0,9,,,,,2,,,70,100
7616,note_off,,,,,64,0,12,,,,,5,,,70,100
7616,note_off,,,,,0,0,12,,,,,5,,,73,100
7616,note_off,,,,,128,0,11,,,,,4,,,42,100
7680,note_on,,,,,64,0,13,,,,,5,,,59,100
7680,note_on,,,,,0,0,12,,,,,5,,,78,100
7680,note_on,,,,,0,0,12,,,,,5,,,75,100
7680,note_on,,,,,64,0,10,,,,,3,,,59,100
7680,note_on,,,,,64,0,9,,,,,2,,,66,100
7680,note_on,,,,,64,0,12,,,,,5,,,71,100
7680,note_on,,,,,64,0,8,,,,,1,,,75,70
7680,note_on,,,,,64,0,11,,,,,4,,,47,100
7808,note_off,,,,,0,0,12,,,,,5,,,75,100
7808,note_off,,,,,128,0,12,,,,,5,,,71,100
7808,note_off,,,,,128,0,8,,,,,1,,,75,100
7808,note_off,,,,,128,0,9,,,,,2,,,66,100
7808,note_off,,,,,128,0,13,,,,,5,,,59,100
7808,note_off,,,,,128,0,11,,,,,4,,,47,100
7808,note_off,,,,,128,0,10,,,,,3,,,59,100
7872,note_on,,,,,64,0,8,,,,,1,,,71,70
7872,note_on,,,,,64,0,10,,,,,3,,,61,100
7872,note_on,,,,,64,0,9,,,,,2,,,64,100
7872,note_on,,,,,64,0,13,,,,,5,,,61,100
7872,note_on,,,,,64,0,12,,,,,5,,,76,100
7872,note_on,,,,,64,0,11,,,,,4,,,49,100
7936,note_off,,,,,64,0,12,,,,,5,,,78,100
8000,note_off,,,,,128,0,8,,,,,1,,,71,100
8000,note_off,,,,,128,0,11,,,,,4,,,49,100
8000,note_off,,,,,128,0,13,,,,,5,,,61,100
8000,note_off,,,,,128,0,9,,,,,2,,,64,100
8000,note_off,,,,,128,0,10,,,,,3,,,61,100
8000,note_off,,,,,64,0,12,,,,,5,,,76,100
8064,note_on,,,,,64,0,10,,,,,3,,,63,100
8064,note_on,,,,,64,0,9,,,,,2,,,66,100
8064,note_on,,,,,64,0,12,,,,,5,,,78,100
8064,note_on,,,,,0,0,12,,,,,5,,,71,100
8064,note_on,,,,,64,0,13,,,,,5,,,63,100
8064,note_on,,,,,64,0,11,,,,,4,,,51,100
8160,note_on,,,,,160,0,8,,,,,1,,,71,100
8192,note_off,,,,,128,0,13,,,,,5,,,63,100
8192,note_off,,,,,128,0,10,,,,,3,,,63,100
8192,note_off,,,,,128,0,9,,,,,2,,,66,100
8192,note_off,,,,,128,0,12,,,,,5,,,71,100
8192,note_off,,,,,128,0,11,,,,,4,,,51,100
8224,note_off,,,,,64,0,8,,,,,1,,,71,100
8256,note_on,,,,,0,0,12,,,,,5,,,75,100
8256,note_on,,,,,64,0,9,,,,,2,,,63,100
8256,note_on,,,,,64,0,13,,,,,5,,,59,100
8256,note_on,,,,,64,0,10,,,,,3,,,59,100
8256,note_on,,,,,32,0,8,,,,,1,,,75,100
8256,note_on,,,,,64,0,12,,,,,5,,,71,100
8256,note_on,,,,,64,0,11,,,,,4,,,47,100
8320,note_off,,,,,64,0,8,,,,,1,,,75,100
8320,note_off,,,,,64,0,12,,,,,5,,,78,100
8352,note_on,,,,,32,0,8,,,,,1,,,78,100
8384,note_off,,,,,128,0,10,,,,,3,,,59,100
8384,note_off,,,,,128,0,11,,,,,4,,,47,100
8384,note_off,,,,,0,0,12,,,,,5,,,75,100
8384,note_off,,,,,128,0,13,,,,,5,,,59,100
8384,note_off,,,,,64,0,12,,,,,5,,,71,100
8384,note_off,,,,,128,0,9,,,,,2,,,63,100
8416,note_off,,,,,64,0,8,,,,,1,,,78,100
8448,note_on,,,,,64,0,12,,,,,5,,,71,100
8448,note_on,,,,,0,0,12,,,,,5,,,66,100
8448,note_on,,,,,0,0,12,,,,,5,,,75,100
8448,note_on,,,,,32,0,8,,,,,1,,,83,100
8448,note_on,,,,,64,0,9,,,,,2,,,66,100
8448,note_on,,,,,64,0,13,,,,,5,,,47,100
8448,note_on,,,,,64,0,10,,,,,3,,,47,100
8448,note_on,,,,,64,0,11,,,,,4,,,35,100
8512,note_off,,,,,64,0,8,,,,,1,,,83,100
8544,note_on,,,,,32,0,8,,,,,1,,,71,100
8576,note_off,,,,,128,0,11,,,,,4,,,35,100
8576,note_off,,,,,128,0,13,,,,,5,,,47,100
8576,note_off,,,,,128,0,9,,,,,2,,,66,100
8576,note_off,,,,,128,0,10,,,,,3,,,47,100
8576,note_off,,,,,128,0,12,,,,,5,,,75,100
8608,note_off,,,,,64,0,8,,,,,1,,,71,100
8640,note_on,,,,,64,0,13,,,,,5,,,49,100
8640,note_on,,,,,32,0,8,,,,,1,,,75,100
8640,note_on,,,,,64,0,10,,,,,3,,,49,100
8640,note_on,,,,,64,0,11,,,,,4,,,37,100
8640,note_on,,,,,64,0,12,,,,,5,,,64,100
8640,note_on,,,,,64,0,9,,,,,2,,,64,100
8704,note_off,,,,,64,0,12,,,,,5,,,71,100
8704,note_off,,,,,64,0,8,,,,,1,,,75,100
8704,note_off,,,,,0,0,12,,,,,5,,,66,100
8736,note_on,,,,,32,0,8,,,,,1,,,78,100
8768,note_off,,,,,128,0,13,,,,,5,,,49,100
8768,note_off,,,,,64,0,12,,,,,5,,,64,100
8768,note_off,,,,,128,0,11,,,,,4,,,37,100
8768,note_off,,,,,128,0,10,,,,,3,,,49,100
8768,note_off,,,,,128,0,9,,,,,2,,,64,100
8800,note_off,,,,,64,0,8,,,,,1,,,78,100
8832,note_on,,,,,64,0,10,,,,,3,,,51,100
8832,note_on,,,,,32,0,8,,,,,1,,,83,100
8832,note_on,,,,,64,0,9,,,,,2,,,66,100
8832,note_on,,,,,64,0,13,,,,,5,,,51,100
8832,note_on,,,,,64,0,12,,,,,5,,,71,100
8832,note_on,,,,,64,0,11,,,,,4,,,39,100
8832,note_on,,,,,0,0,12,,,,,5,,,66,100
8896,note_off,,,,,64,0,8,,,,,1,,,83,100
8928,note_on,,,,,32,0,8,,,,,1,,,71,100
8960,note_off,,,,,128,0,9,,,,,2,,,66,100
8960,note_off,,,,,128,0,13,,,,,5,,,51,100
8960,note_off,,,,,128,0,11,,,,,4,,,39,100
8960,note_off,,,,,128,0,10,,,,,3,,,51,100
8992,note_off,,,,,64,0,8,,,,,1,,,71,100
9024,note_on,,,,,64,0,10,,,,,3,,,47,100
9024,note_on,,,,,32,0,8,,,,,1,,,75,100
9024,note_on,,,,,64,0,11,,,,,4,,,35,100
9024,note_on,,,,,64,0,9,,,,,2,,,63,100
9024,note_on,,,,,192,0,12,,,,,5,,,63,100
9024,note_on,,,,,64,0,13,,,,,5,,,47,100
9088,note_off,,,,,0,0,12,,,,,5,,,66,100
9088,note_off,,,,,64,0,12,,,,,5,,,71,100
9088,note_off,,,,,64,0,8,,,,,1,,,75,100
9120,note_on,,,,,32,0,8,,,,,1,,,78,100
9152,note_off,,,,,128,0,10,,,,,3,,,47,100
9152,note_off,,,,,128,0,13,,,,,5,,,47,100
9152,note_off,,,,,128,0,11,,,,,4,,,35,100
9152,note_off,,,,,64,0,12,,,,,5,,,63,100
9152,note_off,,,,,128,0,9,,,,,2,,,63,100
9184,note_off,,,,,64,0,8,,,,,1,,,78,100
9216,note_on,,,,,64,0,9,,,,,2,,,66,100
9216,note_on,,,,,32,0,8,,,,,1,,,83,100
9216,note_on,,,,,0,0,12,,,,,5,,,75,100
9216,note_on,,,,,64,0,13,,,,,5,,,59,100
9216,note_on,,,,,0,0,12,,,,,5,,,71,100
9216,note_on,,,,,64,0,11,,,,,4,,,47,100
9216,note_on,,,,,64,0,10,,,,,3,,,59,100
9216,note_on,,,,,64,0,12,,,,,5,,,66,100
9344,note_off,,,,,128,0,11,,,,,4,,,47,100
9344,note_off,,,,,128,0,8,,,,,1,,,83,100
9344,note_off,,,,,128,0,13,,,,,5,,,59,100
9344,note_off,,,,,128,0,12,,,,,5,,,71,100
9344,note_off,,,,,128,0,9,,,,,2,,,66,100
9344,note_off,,,,,128,0,10,,,,,3,,,59,100
9344,note_off,,,,,0,0,12,,,,,5,,,75,100
9408,note_on,,,,,64,0,8,,,,,1,,,82,100
9408,note_on,,,,,64,0,13,,,,,5,,,61,100
9408,note_on,,,,,64,0,9,,,,,2,,,64,100
9408,note_on,,,,,64,0,11,,,,,4,,,49,100
9408,note_on,,,,,64,0,10,,,,,3,,,61,100
9408,note_on,,,,,64,0,12,,,,,5,,,76,100
9472,note_off,,,,,64,0,8,,,,,1,,,82,100
9472,note_off,,,,,64,0,12,,,,,5,,,66,100
9504,note_on,,,,,32,0,8,,,,,1,,,80,100
9536,note_off,,,,,128,0,11,,,,,4,,,49,100
9536,note_off,,,,,128,0,9,,,,,2,,,64,100
9536,note_off,,,,,128,0,10,,,,,3,,,61,100
9536,note_off,,,,,64,0,12,,,,,5,,,76,100
9536,note_off,,,,,128,0,13,,,,,5,,,61,100
9568,note_off,,,,,64,0,8,,,,,1,,,80,100
9600,note_on,,,,,64,0,13,,,,,5,,,63,100
9600,note_on,,,,,64,0,9,,,,,2,,,66,100
9600,note_on,,,,,64,0,10,,,,,3,,,63,100
9600,note_on,,,,,32,0,8,,,,,1,,,78,100
9600,note_on,,,,,64,0,11,,,,,4,,,51,100
9600,note_on,,,,,64,0,12,,,,,5,,,78,100
9600,note_on,,,,,0,0,12,,,,,5,,,71,100
9728,note_off,,,,,128,0,8,,,,,1,,,78,100
9728,note_off,,,,,128,0,10,,,,,3,,,63,100
9728,note_off,,,,,128,0,13,,,,,5,,,63,100
9728,note_off,,,,,128,0,11,,,,,4,,,51,100
9728,note_off,,,,,128,0,12,,,,,5,,,71,100
9728,note_off,,,,,128,0,9,,,,,2,,,66,100
9792,note_on,,,,,64,0,13,,,,,5,,,58,100
9792,note_on,,,,,64,0,12,,,,,5,,,76,100
9792,note_on,,,,,64,0,11,,,,,4,,,46,100
9792,note_on,,,,,64,0,10,,,,,3,,,58,100
9792,note_on,,,,,64,0,8,,,,,1,,,76,100
9792,note_on,,,,,64,0,9,,,,,2,,,73,100
9856,note_off,,,,,64,0,12,,,,,5,,,78,100
9920,note_off,,,,,128,0,11,,,,,4,,,46,100
9920,note_off,,,,,128,0,10,,,,,3,,,58,100
9920,note_off,,,,,128,0,13,,,,,5,,,58,100
9920,note_off,,,,,64,0,12,,,,,5,,,76,100
9920,note_off,,,,,128,0,8,,,,,1,,,76,100
9920,note_off,,,,,128,0,9,,,,,2,,,73,100
9984,note_on,,,,,64,0,10,,,,,3,,,59,100
9984,note_on,,,,,64,0,13,,,,,5,,,59,100
9984,note_on,,,,,64,0,12,,,,,5,,,66,100
9984,note_on,,,,,0,0,12,,,,,5,,,75,100
9984,note_on,,,,,64,0,11,,,,,4,,,47,100
9984,note_on,,,,,64,0,8,,,,,1,,,75,100
9984,note_on,,,,,64,0,9,,,,,2,,,66,100
10112,note_off,,,,,128,0,8,,,,,1,,,75,100
10112,note_off,,,,,128,0,11,,,,,4,,,47,100
10112,note_off,,,,,128,0,9,,,,,2,,,66,100
10112,note_off,,,,,0,0,12,,,,,5,,,75,100
10112,note_off,,,,,128,0,12,,,,,5,,,66,100
10112,note_off,,,,,128,0,13,,,,,5,,,59,100
10112,note_off,,,,,128,0,10,,,,,3,,,59,100
10176,note_on,,,,,0,0,12,,,,,5,,,66,100
10176,note_on,,,,,64,0,13,,,,,5,,,51,100
10176,note_on,,,,,64,0,11,,,,,4,,,39,100
10176,note_on,,,,,64,0,10,,,,,3,,,51,100
10176,note_on,,,,,64,0,12,,,,,5,,,71,100
10176,note_on,,,,,64,0,8,,,,,1,,,83,100
10176,note_on,,,,,64,0,9,,,,,2,,,66,100
10240,note_off,,,,,64,0,10,,,,,3,,,51,100
10240,note_off,,,,,64,0,9,,,,,2,,,66,100
10240,note_off,,,,,64,0,13,,,,,5,,,51,100
10240,note_off,,,,,64,0,12,,,,,5,,,66,100
10240,note_off,,,,,64,0,11,,,,,4,,,39,100
10272,note_on,,,,,32,0,13,,,,,5,,,52,100
10272,note_on,,,,,32,0,11,,,,,4,,,40,100
10272,note_on,,,,,32,0,12,,,,,5,,,68,100
10272,note_on,,,,,32,0,9,,,,,2,,,68,100
10272,note_on,,,,,32,0,10,,,,,3,,,52,100
10304,note_off,,,,,32,0,12,,,,,5,,,71,100
10304,note_off,,,,,128,0,8,,,,,1,,,83,100
10336,note_off,,,,,32,0,12,,,,,5,,,68,100
10336,note_off,,,,,64,0,9,,,,,2,,,68,100
10336,note_off,,,,,64,0,11,,,,,4,,,40,100
10336,note_off,,,,,64,0,10,,,,,3,,,52,100
10336,note_off,,,,,64,0,13,,,,,5,,,52,100
10368,note_on,,,,,0,0,12,,,,,5,,,73,100
10368,note_on,,,,,64,0,8,,,,,1,,,66,100
10368,note_on,,,,,32,0,11,,,,,4,,,42,100
10368,note_on,,,,,32,0,9,,,,,2,,,61,100
10368,note_on,,,,,32,0,10,,,,,3,,,54,100
10368,note_on,,,,,32,0,12,,,,,5,,,71,100
10368,note_on,,,,,32,0,13,,,,,5,,,54,100
10496,note_off,,,,,128,0,13,,,,,5,,,54,100
10496,note_off,,,,,128,0,10,,,,,3,,,54,100
10496,note_off,,,,,128,0,8,,,,,1,,,66,100
10496,note_off,,,,,128,0,12,,,,,5,,,71,100
10496,note_off,,,,,0,0,12,,,,,5,,,73,100
10496,note_off,,,,,128,0,9,,,,,2,,,61,100
10496,note_off,,,,,128,0,11,,,,,4,,,42,100
10560,note_on,,,,,64,0,12,,,,,5,,,61,100
10560,note_on,,,,,64,0,9,,,,,2,,,61,100
10560,note_on,,,,,64,0,11,,,,,4,,,42,100
10560,note_on,,,,,64,0,10,,,,,3,,,42,100
10560,note_on,,,,,64,0,13,,,,,5,,,42,100
10560,note_on,,,,,0,0,12,,,,,5,,,70,100
10560,note_on,,,,,64,0,8,,,,,1,,,82,100
10688,note_off,,,,,0,0,12,,,,,5,,,70,100
10688,note_off,,,,,128,0,12,,,,,5,,,61,100
10688,note_off,,,,,128,0,9,,,,,2,,,61,100
10688,note_off,,,,,128,0,13,,,,,5,,,42,100
10688,note_off,,,,,128,0,10,,,,,3,,,42,100
10688,note_off,,,,,128,0,11,,,,,4,,,42,100
10688,note_off,,,,,128,0,8,,,,,1,,,82,100
10752,note_on,,,,,64,0,13,,,,,5,,,59,100
10752,note_on,,,,,64,0,8,,,,,1,,,71,100
10752,note_on,,,,,64,0,10,,,,,3,,,59,100
10752,note_on,,,,,64,0,11,,,,,4,,,47,100
10752,note_on,,,,,0,0,12,,,,,5,,,66,100
10752,note_on,,,,,0,0,12,,,,,5,,,71,100
10752,note_on,,,,,64,0,9,,,,,2,,,63,100
10752,note_on,,,,,64,0,12,,,,,5,,,63,100
10880,note_off,,,,,128,0,13,,,,,5,,,59,100
10880,note_off,,,,,128,0,10,,,,,3,,,59,100
10880,note_off,,,,,128,0,11,,,,,4,,,47,100
10944,note_on,,,,,64,0,11,,,,,4,,,49,96
10944,note_on,,,,,64,0,13,,,,,5,,,61,100
10944,note_on,,,,,64,0,10,,,,,3,,,61,96
11008,note_off,,,,,256,0,12,,,,,5,,,63,100
11008,note_off,,,,,0,0,12,,,,,5,,,66,100
11008,note_off,,,,,0,0,12,,,,,5,,,71,100
11008,note_off,,,,,256,0,9,,,,,2,,,63,100
11008,note_off,,,,,256,0,8,,,,,1,,,71,100
11072,note_off,,,,,128,0,13,,,,,5,,,61,100
11072,note_off,,,,,128,0,10,,,,,3,,,61,100
11072,note_off,,,,,128,0,11,,,,,4,,,49,100
11136,note_on,,,,,64,0,10,,,,,3,,,59,91
11136,note_on,,,,,64,0,13,,,,,5,,,59,100
11136,note_on,,,,,64,0,11,,,,,4,,,47,91
11232,note_on,,,,,11232,0,7,,,,,0,,,71,100
11264,note_off,,,,,128,0,10,,,,,3,,,59,100
11264,note_off,,,,,128,0,13,,,,,5,,,59,100
11264,note_off,,,,,128,0,11,,,,,4,,,47,100
11296,note_off,,,,,64,0,7,,,,,0,,,71,100
11328,note_on,,,,,64,0,10,,,,,3,,,57,86
11328,note_on,,,,,64,0,11,,,,,4,,,45,86
11328,note_on,,,,,64,0,13,,,,,5,,,57,100
11328,note_on,,,,,32,0,7,,,,,0,,,75,100
11392,note_off,,,,,64,0,7,,,,,0,,,75,100
11424,note_on,,,,,32,0,7,,,,,0,,,78,100
11456,note_off,,,,,128,0,10,,,,,3,,,57,100
11456,note_off,,,,,128,0,13,,,,,5,,,57,100
11456,note_off,,,,,128,0,11,,,,,4,,,45,100
11488,note_off,,,,,64,0,7,,,,,0,,,78,100
11520,note_on,,,,,64,0,10,,,,,3,,,56,85
11520,note_on,,,,,32,0,7,,,,,0,,,83,100
11520,note_on,,,,,512,0,12,,,,,5,,,64,100
11520,note_on,,,,,64,0,13,,,,,5,,,56,100
11520,note_on,,,,,0,0,12,,,,,5,,,71,100
11520,note_on,,,,,64,0,11,,,,,4,,,44,85
11648,note_off,,,,,128,0,7,,,,,0,,,83,100
11648,note_off,,,,,128,0,10,,,,,3,,,56,100
11648,note_off,,,,,128,0,11,,,,,4,,,44,100
11648,note_off,,,,,128,0,13,,,,,5,,,56,100
11708,note_off,,,,,188,0,12,,,,,5,,,64,100
11712,note_on,,,,,4,0,12,,,,,5,,,63,100
11712,note_on,,,,,64,0,10,,,,,3,,,54,85
11712,note_on,,,,,64,0,7,,,,,0,,,83,100
11712,note_on,,,,,64,0,13,,,,,5,,,54,100
11712,note_on,,,,,64,0,11,,,,,4,,,42,85
11776,note_off,,,,,64,0,12,,,,,5,,,71,100
11840,note_off,,,,,64,0,12,,,,,5,,,63,100
11840,note_off,,,,,128,0,10,,,,,3,,,54,100
11840,note_off,,,,,128,0,11,,,,,4,,,42,100
11840,note_off,,,,,128,0,7,,,,,0,,,83,100
11840,note_off,,,,,128,0,13,,,,,5,,,54,100
11904,note_on,,,,,0,0,12,,,,,5,,,64,100
11904,note_on,,,,,64,0,11,,,,,4,,,44,85
11904,note_on,,,,,64,0,12,,,,,5,,,59,100
11904,note_on,,,,,64,0,10,,,,,3,,,56,85
11904,note_on,,,,,64,0,13,,,,,5,,,56,100
11904,note_on,,,,,64,0,7,,,,,0,,,83,100
12032,note_off,,,,,128,0,7,,,,,0,,,83,100
12032,note_off,,,,,128,0,13,,,,,5,,,56,100
12032,note_off,,,,,128,0,10,,,,,3,,,56,100
12032,note_off,,,,,128,0,11,,,,,4,,,44,100
12092,note_off,,,,,188,0,12,,,,,5,,,64,100
12096,note_on,,,,,64,0,10,,,,,3,,,52,85
12096,note_on,,,,,64,0,7,,,,,0,,,83,100
12096,note_on,,,,,64,0,13,,,,,5,,,52,100
12096,note_on,,,,,64,0,11,,,,,4,,,40,85
12096,note_on,,,,,4,0,12,,,,,5,,,68,100
12160,note_off,,,,,64,0,12,,,,,5,,,59,100
12224,note_off,,,,,128,0,10,,,,,3,,,52,100
12224,note_off,,,,,128,0,7,,,,,0,,,83,100
12224,note_off,,,,,128,0,13,,,,,5,,,52,100
12224,note_off,,,,,128,0,11,,,,,4,,,40,100
12224,note_off,,,,,64,0,12,,,,,5,,,68,100
12288,note_on,,,,,64,0,10,,,,,3,,,49,85
12288,note_on,,,,,64,0,11,,,,,4,,,37,85
12288,note_on,,,,,64,0,12,,,,,5,,,71,100
12288,note_on,,,,,0,0,12,,,,,5,,,64,100
12288,note_on,,,,,64,0,13,,,,,5,,,49,100
12288,note_on,,,,,0,0,12,,,,,5,,,68,100
12288,note_on,,,,,64,0,7,,,,,0,,,83,100
12416,note_off,,,,,128,0,7,,,,,0,,,83,100
12480,note_on,,,,,64,0,7,,,,,0,,,81,100
12544,note_off,,,,,256,0,11,,,,,4,,,37,100
12544,note_off,,,,,256,0,12,,,,,5,,,71,100
12544,note_off,,,,,256,0,13,,,,,5,,,49,100
12544,note_off,,,,,0,0,12,,,,,5,,,64,100
12544,note_off,,,,,0,0,12,,,,,5,,,68,100
12544,note_off,,,,,256,0,10,,,,,3,,,49,100
12572,note_off,,,,,92,0,7,,,,,0,,,81,100
12576,note_on,,,,,4,0,7,,,,,0,,,80,100
12640,note_off,,,,,64,0,7,,,,,0,,,80,100
12672,note_on,,,,,32,0,7,,,,,0,,,81,100
12736,note_off,,,,,64,0,7,,,,,0,,,81,100
12768,note_on,,,,,32,0,7,,,,,0,,,71,100
12832,note_off,,,,,64,0,7,,,,,0,,,71,100
12864,note_on,,,,,32,0,7,,,,,0,,,75,100
12928,note_off,,,,,64,0,7,,,,,0,,,75,100
12960,note_on,,,,,32,0,7,,,,,0,,,78,100
13024,note_off,,,,,64,0,7,,,,,0,,,78,100
13056,note_on,,,,,0,0,12,,,,,5,,,69,100
13056,note_on,,,,,512,0,12,,,,,5,,,63,100
13056,note_on,,,,,512,0,10,,,,,3,,,54,85
13056,note_on,,,,,32,0,7,,,,,0,,,81,100
13056,note_on,,,,,512,0,11,,,,,4,,,42,85
13056,note_on,,,,,512,0,13,,,,,5,,,54,100
13184,note_off,,,,,128,0,11,,,,,4,,,42,100
13184,note_off,,,,,128,0,10,,,,,3,,,54,100
13184,note_off,,,,,128,0,13,,,,,5,,,54,100
13184,note_off,,,,,128,0,7,,,,,0,,,81,100
13244,note_off,,,,,188,0,12,,,,,5,,,63,100
13248,note_on,,,,,64,0,10,,,,,3,,,52,85
13248,note_on,,,,,64,0,13,,,,,5,,,52,100
13248,note_on,,,,,64,0,11,,,,,4,,,40,85
13248,note_on,,,,,64,0,7,,,,,0,,,81,100
13248,note_on,,,,,4,0,12,,,,,5,,,61,100
13312,note_off,,,,,64,0,12,,,,,5,,,69,100
13376,note_off,,,,,64,0,12,,,,,5,,,61,100
13376,note_off,,,,,128,0,10,,,,,3,,,52,100
13376,note_off,,,,,128,0,13,,,,,5,,,52,100
13376,note_off,,,,,128,0,11,,,,,4,,,40,100
13376,note_off,,,,,128,0,7,,,,,0,,,81,100
13440,note_on,,,,,64,0,10,,,,,3,,,54,85
13440,note_on,,,,,64,0,7,,,,,0,,,81,100
13440,note_on,,,,,64,0,11,,,,,4,,,42,85
13440,note_on,,,,,0,0,12,,,,,5,,,63,100
13440,note_on,,,,,64,0,12,,,,,5,,,57,100
13440,note_on,,,,,64,0,13,,,,,5,,,54,100
13568,note_off,,,,,128,0,10,,,,,3,,,54,100
13568,note_off,,,,,128,0,11,,,,,4,,,42,100
13568,note_off,,,,,128,0,13,,,,,5,,,54,100
13568,note_off,,,,,128,0,7,,,,,0,,,81,100
13628,note_off,,,,,188,0,12,,,,,5,,,63,100
13632,note_on,,,,,64,0,13,,,,,5,,,51,100
13632,note_on,,,,,4,0,12,,,,,5,,,66,100
13632,note_on,,,,,64,0,10,,,,,3,,,51,85
13632,note_on,,,,,64,0,11,,,,,4,,,39,85
13632,note_on,,,,,64,0,7,,,,,0,,,81,100
13696,note_off,,,,,64,0,12,,,,,5,,,57,100
13760,note_off,,,,,128,0,10,,,,,3,,,51,100
13760,note_off,,,,,128,0,11,,,,,4,,,39,100
13760,note_off,,,,,64,0,12,,,,,5,,,66,100
13760,note_off,,,,,128,0,13,,,,,5,,,51,100
13760,note_off,,,,,128,0,7,,,,,0,,,81,100
13824,note_on,,,,,64,0,11,,,,,4,,,35,85
13824,note_on,,,,,64,0,7,,,,,0,,,83,100
13824,note_on,,,,,64,0,13,,,,,5,,,47,100
13824,note_on,,,,,64,0,10,,,,,3,,,47,85
13824,note_on,,,,,0,0,12,,,,,5,,,66,100
13824,note_on,,,,,0,0,12,,,,,5,,,63,100
13824,note_on,,,,,64,0,12,,,,,5,,,69,100
13868,note_off,,,,,44,0,7,,,,,0,,,83,100
13872,note_on,,,,,4,0,7,,,,,0,,,81,100
13916,note_off,,,,,44,0,7,,,,,0,,,81,100
13920,note_on,,,,,4,0,7,,,,,0,,,83,100
13964,note_off,,,,,44,0,7,,,,,0,,,83,100
13968,note_on,,,,,4,0,7,,,,,0,,,81,100
14000,note_off,,,,,32,0,7,,,,,0,,,81,100
14016,note_on,,,,,16,0,7,,,,,0,,,80,100
14080,note_off,,,,,256,0,13,,,,,5,,,47,100
14080,note_off,,,,,256,0,10,,,,,3,,,47,100
14080,note_off,,,,,256,0,12,,,,,5,,,69,100
14080,note_off,,,,,0,0,12,,,,,5,,,63,100
14080,note_off,,,,,0,0,12,,,,,5,,,66,100
14080,note_off,,,,,256,0,11,,,,,4,,,35,100
14108,note_off,,,,,92,0,7,,,,,0,,,80,100
14112,note_on,,,,,4,0,7,,,,,0,,,78,100
14176,note_off,,,,,64,0,7,,,,,0,,,78,100
14208,note_on,,,,,32,0,7,,,,,0,,,80,99
14272,note_off,,,,,64,0,7,,,,,0,,,80,100
14304,note_on,,,,,32,0,7,,,,,0,,,71,99
14368,note_off,,,,,64,0,7,,,,,0,,,71,100
14400,note_on,,,,,32,0,7,,,,,0,,,76,99
14464,note_off,,,,,64,0,7,,,,,0,,,76,100
14496,note_on,,,,,32,0,7,,,,,0,,,78,98
14560,note_off,,,,,64,0,7,,,,,0,,,78,100
14592,note_on,,,,,512,0,13,,,,,5,,,52,100
14592,note_on,,,,,512,0,10,,,,,3,,,52,85
14592,note_on,,,,,512,0,11,,,,,4,,,40,85
14592,note_on,,,,,512,0,12,,,,,5,,,61,100
14592,note_on,,,,,32,0,7,,,,,0,,,80,98
14592,note_on,,,,,0,0,12,,,,,5,,,68,100
14720,note_off,,,,,128,0,7,,,,,0,,,80,100
14720,note_off,,,,,128,0,11,,,,,4,,,40,100
14720,note_off,,,,,128,0,13,,,,,5,,,52,100
14720,note_off,,,,,128,0,10,,,,,3,,,52,100
14780,note_off,,,,,188,0,12,,,,,5,,,61,100
14784,note_on,,,,,64,0,10,,,,,3,,,51,85
14784,note_on,,,,,64,0,11,,,,,4,,,39,85
14784,note_on,,,,,64,0,7,,,,,0,,,80,97
14784,note_on,,,,,64,0,13,,,,,5,,,51,100
14784,note_on,,,,,4,0,12,,,,,5,,,59,100
14848,note_off,,,,,64,0,12,,,,,5,,,68,100
14912,note_off,,,,,128,0,11,,,,,4,,,39,100
14912,note_off,,,,,128,0,10,,,,,3,,,51,100
14912,note_off,,,,,128,0,13,,,,,5,,,51,100
14912,note_off,,,,,64,0,12,,,,,5,,,59,100
14912,note_off,,,,,128,0,7,,,,,0,,,80,100
14976,note_on,,,,,0,0,12,,,,,5,,,61,100
14976,note_on,,,,,64,0,10,,,,,3,,,52,85
14976,note_on,,,,,64,0,13,,,,,5,,,52,100
14976,note_on,,,,,64,0,11,,,,,4,,,40,85
14976,note_on,,,,,64,0,12,,,,,5,,,56,100
14976,note_on,,,,,64,0,7,,,,,0,,,80,97
15104,note_off,,,,,128,0,10,,,,,3,,,52,100
15104,note_off,,,,,128,0,11,,,,,4,,,40,100
15104,note_off,,,,,128,0,7,,,,,0,,,80,100
15104,note_off,,,,,128,0,13,,,,,5,,,52,100
15164,note_off,,,,,188,0,12,,,,,5,,,61,100
15168,note_on,,,,,64,0,11,,,,,4,,,37,85
15168,note_on,,,,,64,0,13,,,,,5,,,49,100
15168,note_on,,,,,64,0,7,,,,,0,,,80,96
15168,note_on,,,,,64,0,10,,,,,3,,,49,85
15168,note_on,,,,,4,0,12,,,,,5,,,64,100
15232,note_off,,,,,64,0,12,,,,,5,,,56,100
15296,note_off,,,,,128,0,7,,,,,0,,,80,100
15296,note_off,,,,,128,0,10,,,,,3,,,49,100
15296,note_off,,,,,128,0,11,,,,,4,,,37,100
15296,note_off,,,,,64,0,12,,,,,5,,,64,100
15296,note_off,,,,,128,0,13,,,,,5,,,49,100
15360,note_on,,,,,64,0,10,,,,,3,,,45,85
15360,note_on,,,,,0,0,12,,,,,5,,,68,100
15360,note_on,,,,,0,0,12,,,,,5,,,64,100
15360,note_on,,,,,64,0,13,,,,,5,,,45,100
15360,note_on,,,,,64,0,7,,,,,0,,,81,95
15360,note_on,,,,,64,0,11,,,,,4,,,33,85
15360,note_on,,,,,64,0,12,,,,,5,,,61,100
15404,note_off,,,,,44,0,7,,,,,0,,,81,100
15408,note_on,,,,,4,0,7,,,,,0,,,80,95
15452,note_off,,,,,44,0,7,,,,,0,,,80,100
15456,note_on,,,,,4,0,7,,,,,0,,,81,95
15500,note_off,,,,,44,0,7,,,,,0,,,81,100
15504,note_on,,,,,4,0,7,,,,,0,,,80,95
15536,note_off,,,,,32,0,7,,,,,0,,,80,100
15552,note_on,,,,,16,0,7,,,,,0,,,78,95
15616,note_off,,,,,256,0,11,,,,,4,,,33,100
15616,note_off,,,,,256,0,10,,,,,3,,,45,100
15616,note_off,,,,,0,0,12,,,,,5,,,68,100
15616,note_off,,,,,0,0,12,,,,,5,,,64,100
15616,note_off,,,,,256,0,12,,,,,5,,,61,100
15616,note_off,,,,,256,0,13,,,,,5,,,45,100
15644,note_off,,,,,92,0,7,,,,,0,,,78,100
15648,note_on,,,,,4,0,7,,,,,0,,,76,94
15712,note_off,,,,,64,0,7,,,,,0,,,76,100
15744,note_on,,,,,32,0,7,,,,,0,,,78,94
15808,note_off,,,,,64,0,7,,,,,0,,,78,100
15840,note_on,,,,,32,0,7,,,,,0,,,71,94
15904,note_off,,,,,64,0,7,,,,,0,,,71,100
15936,note_on,,,,,32,0,7,,,,,0,,,75,93
16000,note_off,,,,,64,0,7,,,,,0,,,75,100
16032,note_on,,,,,32,0,7,,,,,0,,,76,93
16096,note_off,,,,,64,0,7,,,,,0,,,76,100
16128,note_on,,,,,512,0,13,,,,,5,,,51,100
16128,note_on,,,,,512,0,12,,,,,5,,,59,100
16128,note_on,,,,,0,0,12,,,,,5,,,66,100
16128,note_on,,,,,32,0,7,,,,,0,,,78,93
16128,note_on,,,,,512,0,10,,,,,3,,,51,85
16128,note_on,,,,,512,0,11,,,,,4,,,39,85
16256,note_off,,,,,128,0,13,,,,,5,,,51,100
16256,note_off,,,,,128,0,10,,,,,3,,,51,100
16256,note_off,,,,,128,0,7,,,,,0,,,78,100
16256,note_off,,,,,128,0,11,,,,,4,,,39,100
16316,note_off,,,,,188,0,12,,,,,5,,,59,100
16320,note_on,,,,,64,0,11,,,,,4,,,37,85
16320,note_on,,,,,64,0,10,,,,,3,,,49,85
16320,note_on,,,,,4,0,12,,,,,5,,,57,100
16320,note_on,,,,,64,0,13,,,,,5,,,49,100
16320,note_on,,,,,64,0,7,,,,,0,,,78,92
16384,note_off,,,,,64,0,12,,,,,5,,,66,100
16448,note_off,,,,,128,0,11,,,,,4,,,37,100
16448,note_off,,,,,128,0,10,,,,,3,,,49,100
16448,note_off,,,,,64,0,12,,,,,5,,,57,100
16448,note_off,,,,,128,0,13,,,,,5,,,49,100
16448,note_off,,,,,128,0,7,,,,,0,,,78,100
16512,note_on,,,,,0,0,12,,,,,5,,,59,100
16512,note_on,,,,,64,0,12,,,,,5,,,54,100
16512,note_on,,,,,64,0,11,,,,,4,,,39,85
16512,note_on,,,,,64,0,13,,,,,5,,,51,100
16512,note_on,,,,,64,0,10,,,,,3,,,51,85
16512,note_on,,,,,64,0,7,,,,,0,,,78,91
16640,note_off,,,,,128,0,7,,,,,0,,,78,100
16640,note_off,,,,,128,0,13,,,,,5,,,51,100
16640,note_off,,,,,128,0,11,,,,,4,,,39,100
16640,note_off,,,,,128,0,10,,,,,3,,,51,100
16700,note_off,,,,,188,0,12,,,,,5,,,59,100
16704,note_on,,,,,64,0,7,,,,,0,,,78,91
16704,note_on,,,,,64,0,11,,,,,4,,,35,85
16704,note_on,,,,,64,0,10,,,,,3,,,47,85
16704,note_on,,,,,4,0,12,,,,,5,,,63,100
16704,note_on,,,,,64,0,13,,,,,5,,,47,100
16768,note_off,,,,,64,0,12,,,,,5,,,54,100
16832,note_off,,,,,128,0,11,,,,,4,,,35,100
16832,note_off,,,,,64,0,12,,,,,5,,,63,100
16832,note_off,,,,,128,0,7,,,,,0,,,78,100
16832,note_off,,,,,128,0,10,,,,,3,,,47,100
16832,note_off,,,,,128,0,13,,,,,5,,,47,100
16896,note_on,,,,,64,0,7,,,,,0,,,80,90
16896,note_on,,,,,64,0,12,,,,,5,,,59,100
16896,note_on,,,,,0,0,12,,,,,5,,,66,100
16896,note_on,,,,,0,0,12,,,,,5,,,63,100
16896,note_on,,,,,64,0,10,,,,,3,,,44,85
16896,note_on,,,,,64,0,13,,,,,5,,,44,100
16896,note_on,,,,,64,0,11,,,,,4,,,32,85
16940,note_off,,,,,44,0,7,,,,,0,,,80,100
16944,note_on,,,,,4,0,7,,,,,0,,,78,90
16988,note_off,,,,,44,0,7,,,,,0,,,78,100
16992,note_on,,,,,4,0,7,,,,,0,,,80,90
17036,note_off,,,,,44,0,7,,,,,0,,,80,100
17040,note_on,,,,,4,0,7,,,,,0,,,78,90
17072,note_off,,,,,32,0,7,,,,,0,,,78,100
17088,note_on,,,,,16,0,7,,,,,0,,,76,90
17152,note_off,,,,,256,0,13,,,,,5,,,44,100
17152,note_off,,,,,0,0,12,,,,,5,,,63,100
17152,note_off,,,,,256,0,10,,,,,3,,,44,100
17152,note_off,,,,,256,0,12,,,,,5,,,59,100
17152,note_off,,,,,256,0,11,,,,,4,,,32,100
17152,note_off,,,,,0,0,12,,,,,5,,,66,100
17180,note_off,,,,,92,0,7,,,,,0,,,76,100
17184,note_on,,,,,4,0,7,,,,,0,,,75,90
17248,note_off,,,,,64,0,7,,,,,0,,,75,100
17280,note_on,,,,,32,0,7,,,,,0,,,76,90
17344,note_off,,,,,64,0,7,,,,,0,,,76,100
17376,note_on,,,,,32,0,7,,,,,0,,,71,90
17440,note_off,,,,,64,0,7,,,,,0,,,71,100
17472,note_on,,,,,32,0,7,,,,,0,,,73,90
17536,note_off,,,,,64,0,7,,,,,0,,,73,100
17568,note_on,,,,,32,0,7,,,,,0,,,75,91
17632,note_off,,,,,64,0,7,,,,,0,,,75,100
17664,note_on,,,,,512,0,10,,,,,3,,,49,85
17664,note_on,,,,,512,0,11,,,,,4,,,37,85
17664,note_on,,,,,512,0,13,,,,,5,,,49,100
17664,note_on,,,,,0,0,12,,,,,5,,,68,100
17664,note_on,,,,,32,0,7,,,,,0,,,76,92
17664,note_on,,,,,512,0,12,,,,,5,,,64,100
17792,note_off,,,,,128,0,13,,,,,5,,,49,100
17792,note_off,,,,,128,0,10,,,,,3,,,49,100
17792,note_off,,,,,128,0,12,,,,,5,,,64,100
17792,note_off,,,,,128,0,7,,,,,0,,,76,100
17792,note_off,,,,,128,0,11,,,,,4,,,37,100
17792,note_off,,,,,0,0,12,,,,,5,,,68,100
17856,note_on,,,,,64,0,12,,,,,5,,,63,100
17856,note_on,,,,,64,0,10,,,,,3,,,47,85
17856,note_on,,,,,64,0,13,,,,,5,,,47,100
17856,note_on,,,,,64,0,7,,,,,0,,,78,94
17856,note_on,,,,,64,0,11,,,,,4,,,35,85
17856,note_on,,,,,0,0,12,,,,,5,,,66,100
17920,note_off,,,,,64,0,7,,,,,0,,,78,100
17952,note_on,,,,,32,0,7,,,,,0,,,80,95
17984,note_off,,,,,128,0,11,,,,,4,,,35,100
17984,note_off,,,,,128,0,13,,,,,5,,,47,100
17984,note_off,,,,,128,0,10,,,,,3,,,47,100
17984,note_off,,,,,128,0,12,,,,,5,,,63,100
17984,note_off,,,,,0,0,12,,,,,5,,,66,100
18016,note_off,,,,,64,0,7,,,,,0,,,80,100
18048,note_on,,,,,64,0,10,,,,,3,,,46,85
18048,note_on,,,,,64,0,12,,,,,5,,,64,100
18048,note_on,,,,,0,0,12,,,,,5,,,61,100
18048,note_on,,,,,32,0,7,,,,,0,,,78,95
18048,note_on,,,,,64,0,11,,,,,4,,,34,85
18048,note_on,,,,,64,0,13,,,,,5,,,46,100
18176,note_off,,,,,128,0,12,,,,,5,,,64,100
18176,note_off,,,,,128,0,11,,,,,4,,,34,100
18176,note_off,,,,,128,0,13,,,,,5,,,46,100
18176,note_off,,,,,128,0,10,,,,,3,,,46,100
18176,note_off,,,,,0,0,12,,,,,5,,,61,100
18176,note_off,,,,,128,0,7,,,,,0,,,78,100
18240,note_on,,,,,0,0,12,,,,,5,,,64,100
18240,note_on,,,,,64,0,12,,,,,5,,,70,100
18240,note_on,,,,,64,0,7,,,,,0,,,76,93
18240,note_on,,,,,64,0,10,,,,,3,,,42,85
18240,note_on,,,,,64,0,13,,,,,5,,,42,100
18240,note_on,,,,,64,0,11,,,,,4,,,42,85
18368,note_off,,,,,128,0,11,,,,,4,,,42,100
18368,note_off,,,,,128,0,7,,,,,0,,,76,100
18368,note_off,,,,,128,0,12,,,,,5,,,70,100
18368,note_off,,,,,0,0,12,,,,,5,,,64,100
18368,note_off,,,,,128,0,13,,,,,5,,,42,100
18368,note_off,,,,,128,0,10,,,,,3,,,42,100
18432,note_on,,,,,0,0,12,,,,,5,,,71,100
18432,note_on,,,,,0,0,12,,,,,5,,,63,100
18432,note_on,,,,,64,0,12,,,,,5,,,66,100
18432,note_on,,,,,64,0,7,,,,,0,,,75,90
18432,note_on,,,,,64,0,13,,,,,5,,,47,100
18432,note_on,,,,,64,0,11,,,,,4,,,35,85
18432,note_on,,,,,64,0,10,,,,,3,,,47,85
18524,note_off,,,,,92,0,7,,,,,0,,,75,100
18528,note_on,,,,,4,0,7,,,,,0,,,71,90
18592,note_off,,,,,64,0,7,,,,,0,,,71,100
18624,note_on,,,,,32,0,7,,,,,0,,,75,89
18688,note_off,,,,,0,0,12,,,,,5,,,63,100
18688,note_off,,,,,0,0,12,,,,,5,,,71,100
18688,note_off,,,,,256,0,10,,,,,3,,,47,100
18688,note_off,,,,,256,0,11,,,,,4,,,35,100
18688,note_off,,,,,256,0,13,,,,,5,,,47,100
18688,note_off,,,,,256,0,12,,,,,5,,,66,100
18716,note_off,,,,,92,0,7,,,,,0,,,75,100
18720,note_on,,,,,4,0,7,,,,,0,,,71,88
18784,note_off,,,,,64,0,7,,,,,0,,,71,100
18816,note_on,,,,,32,0,7,,,,,0,,,75,88
18908,note_off,,,,,92,0,7,,,,,0,,,75,100
18912,note_on,,,,,4,0,7,,,,,0,,,71,87
18976,note_off,,,,,64,0,7,,,,,0,,,71,100
19008,note_on,,,,,32,0,7,,,,,0,,,75,86
19100,note_off,,,,,92,0,7,,,,,0,,,75,100
19104,note_on,,,,,4,0,7,,,,,0,,,71,86
19168,note_off,,,,,64,0,7,,,,,0,,,71,100
19200,note_on,,,,,0,0,12,,,,,5,,,66,100
19200,note_on,,,,,512,0,12,,,,,5,,,63,100
19200,note_on,,,,,512,0,11,,,,,4,,,35,85
19200,note_on,,,,,512,0,13,,,,,5,,,47,100
19200,note_on,,,,,512,0,10,,,,,3,,,47,85
19200,note_on,,,,,32,0,7,,,,,0,,,78,95
19292,note_off,,,,,92,0,7,,,,,0,,,78,100
19296,note_on,,,,,4,0,7,,,,,0,,,71,90
19360,note_off,,,,,64,0,7,,,,,0,,,71,100
19392,note_on,,,,,32,0,7,,,,,0,,,75,90
19456,note_off,,,,,256,0,11,,,,,4,,,35,100
19456,note_off,,,,,256,0,13,,,,,5,,,47,100
19456,note_off,,,,,256,0,10,,,,,3,,,47,100
19456,note_off,,,,,256,0,12,,,,,5,,,63,100
19456,note_off,,,,,0,0,12,,,,,5,,,66,100
19484,note_off,,,,,92,0,7,,,,,0,,,75,100
19488,note_on,,,,,4,0,7,,,,,0,,,71,90
19552,note_off,,,,,64,0,7,,,,,0,,,71,100
19584,note_on,,,,,32,0,7,,,,,0,,,75,90
19676,note_off,,,,,92,0,7,,,,,0,,,75,100
19680,note_on,,,,,4,0,7,,,,,0,,,71,90
19744,note_off,,,,,64,0,7,,,,,0,,,71,100
19776,note_on,,,,,32,0,7,,,,,0,,,75,90
19868,note_off,,,,,92,0,7,,,,,0,,,75,100
19872,note_on,,,,,4,0,7,,,,,0,,,71,90
19936,note_off,,,,,64,0,7,,,,,0,,,71,100
19968,note_on,,,,,512,0,13,,,,,5,,,47,100
19968,note_on,,,,,0,0,12,,,,,5,,,69,100
19968,note_on,,,,,512,0,10,,,,,3,,,47,85
19968,note_on,,,,,32,0,7,,,,,0,,,81,95
19968,note_on,,,,,512,0,11,,,,,4,,,35,85
19968,note_on,,,,,512,0,12,,,,,5,,,66,100
20060,note_off,,,,,92,0,7,,,,,0,,,81,100
20064,note_on,,,,,4,0,7,,,,,0,,,71,85
20128,note_off,,,,,64,0,7,,,,,0,,,71,100
20160,note_on,,,,,32,0,7,,,,,0,,,75,85
20224,note_off,,,,,256,0,12,,,,,5,,,66,100
20224,note_off,,,,,256,0,10,,,,,3,,,47,100
20224,note_off,,,,,256,0,11,,,,,4,,,35,100
20224,note_off,,,,,256,0,13,,,,,5,,,47,100
20224,note_off,,,,,0,0,12,,,,,5,,,69,100
20252,note_off,,,,,92,0,7,,,,,0,,,75,100
20256,note_on,,,,,4,0,7,,,,,0,,,71,86
20320,note_off,,,,,64,0,7,,,,,0,,,71,100
20352,note_on,,,,,32,0,7,,,,,0,,,75,87
20444,note_off,,,,,92,0,7,,,,,0,,,75,100
20448,note_on,,,,,4,0,7,,,,,0,,,71,88
20512,note_off,,,,,64,0,7,,,,,0,,,71,100
20544,note_on,,,,,32,0,7,,,,,0,,,75,89
20636,note_off,,,,,92,0,7,,,,,0,,,75,100
20640,note_on,,,,,4,0,7,,,,,0,,,71,90
20704,note_off,,,,,64,0,7,,,,,0,,,71,100
20736,note_on,,,,,512,0,10,,,,,3,,,47,85
20736,note_on,,,,,0,0,12,,,,,5,,,66,100
20736,note_on,,,,,512,0,11,,,,,4,,,35,85
20736,note_on,,,,,512,0,13,,,,,5,,,47,100
20736,note_on,,,,,32,0,7,,,,,0,,,78,91
20736,note_on,,,,,512,0,12,,,,,5,,,63,100
20828,note_off,,,,,92,0,7,,,,,0,,,78,100
20832,note_on,,,,,4,0,7,,,,,0,,,71,92
20896,note_off,,,,,64,0,7,,,,,0,,,71,100
20928,note_on,,,,,32,0,7,,,,,0,,,75,93
20992,note_off,,,,,256,0,10,,,,,3,,,47,100
20992,note_off,,,,,0,0,12,,,,,5,,,66,100
20992,note_off,,,,,256,0,12,,,,,5,,,63,100
20992,note_off,,,,,256,0,13,,,,,5,,,47,100
20992,note_off,,,,,256,0,11,,,,,4,,,35,100
21020,note_off,,,,,92,0,7,,,,,0,,,75,100
21024,note_on,,,,,4,0,7,,,,,0,,,71,94
21088,note_off,,,,,64,0,7,,,,,0,,,71,100
21120,note_on,,,,,32,0,7,,,,,0,,,75,95
21212,note_off,,,,,92,0,7,,,,,0,,,75,100
21216,note_on,,,,,4,0,7,,,,,0,,,71,96
21280,note_off,,,,,64,0,7,,,,,0,,,71,100
21312,note_on,,,,,32,0,7,,,,,0,,,75,97
21404,note_off,,,,,92,0,7,,,,,0,,,75,100
21408,note_on,,,,,4,0,7,,,,,0,,,71,98
21472,note_off,,,,,64,0,7,,,,,0,,,71,100
21504,note_on,,,,,512,0,11,,,,,4,,,40,100
21504,note_on,,,,,512,0,13,,,,,5,,,52,100
21504,note_on,,,,,32,0,7,,,,,0,,,80,99
21504,note_on,,,,,10496,0,9,,,,,2,,,71,100
21504,note_on,,,,,10496,0,8,,,,,1,,,80,100
21504,note_on,,,,,512,0,12,,,,,5,,,71,100
21504,note_on,,,,,512,0,10,,,,,3,,,52,100
21504,note_on,,,,,0,0,12,,,,,5,,,68,100
21632,note_off,,,,,128,0,9,,,,,2,,,71,100
21632,note_off,,,,,128,0,8,,,,,1,,,80,100
21632,note_off,,,,,128,0,12,,,,,5,,,71,100
21692,note_off,,,,,188,0,7,,,,,0,,,80,100
21696,note_on,,,,,64,0,9,,,,,2,,,69,100
21696,note_on,,,,,64,0,12,,,,,5,,,73,100
21696,note_on,,,,,64,0,8,,,,,1,,,78,100
21760,note_off,,,,,64,0,12,,,,,5,,,68,100
21760,note_off,,,,,64,0,9,,,,,2,,,69,100
21760,note_off,,,,,256,0,11,,,,,4,,,40,100
21760,note_off,,,,,256,0,10,,,,,3,,,52,100
21760,note_off,,,,,64,0,8,,,,,1,,,78,100
21760,note_off,,,,,256,0,13,,,,,5,,,52,100
21792,note_on,,,,,32,0,9,,,,,2,,,68,100
21792,note_on,,,,,32,0,8,,,,,1,,,76,100
21824,note_off,,,,,64,0,12,,,,,5,,,73,100
21856,note_off,,,,,64,0,8,,,,,1,,,76,100
21856,note_off,,,,,64,0,9,,,,,2,,,68,100
21888,note_on,,,,,0,0,12,,,,,5,,,69,100
21888,note_on,,,,,128,0,10,,,,,3,,,54,100
21888,note_on,,,,,32,0,8,,,,,1,,,81,100
21888,note_on,,,,,128,0,11,,,,,4,,,42,100
21888,note_on,,,,,32,0,9,,,,,2,,,73,100
21888,note_on,,,,,128,0,13,,,,,5,,,54,100
21888,note_on,,,,,64,0,12,,,,,5,,,73,100
22016,note_off,,,,,128,0,12,,,,,5,,,73,100
22016,note_off,,,,,128,0,9,,,,,2,,,73,100
22016,note_off,,,,,128,0,8,,,,,1,,,81,100
22080,note_on,,,,,64,0,12,,,,,5,,,75,100
22080,note_on,,,,,64,0,8,,,,,1,,,78,100
22080,note_on,,,,,64,0,9,,,,,2,,,69,100
22144,note_off,,,,,256,0,13,,,,,5,,,54,100
22144,note_off,,,,,64,0,8,,,,,1,,,78,100
22144,note_off,,,,,256,0,11,,,,,4,,,42,100
22144,note_off,,,,,64,0,12,,,,,5,,,69,100
22144,note_off,,,,,256,0,10,,,,,3,,,54,100
22144,note_off,,,,,64,0,9,,,,,2,,,69,100
22176,note_on,,,,,32,0,8,,,,,1,,,76,100
22176,note_on,,,,,32,0,9,,,,,2,,,68,100
22208,note_off,,,,,64,0,12,,,,,5,,,75,100
22240,note_off,,,,,64,0,8,,,,,1,,,76,100
22240,note_off,,,,,64,0,9,,,,,2,,,68,100
22272,note_on,,,,,128,0,13,,,,,5,,,56,100
22272,note_on,,,,,128,0,10,,,,,3,,,56,100
22272,note_on,,,,,32,0,8,,,,,1,,,83,100
22272,note_on,,,,,32,0,9,,,,,2,,,75,100
22272,note_on,,,,,128,0,11,,,,,4,,,44,100
22272,note_on,,,,,0,0,12,,,,,5,,,75,100
22272,note_on,,,,,64,0,12,,,,,5,,,71,100
22336,note_off,,,,,64,0,9,,,,,2,,,75,100
22368,note_on,,,,,32,0,9,,,,,2,,,73,100
22400,note_off,,,,,128,0,12,,,,,5,,,71,100
22400,note_off,,,,,0,0,12,,,,,5,,,75,100
22400,note_off,,,,,128,0,8,,,,,1,,,83,100
22400,note_off,,,,,128,0,10,,,,,3,,,56,100
22400,note_off,,,,,128,0,13,,,,,5,,,56,100
22400,note_off,,,,,128,0,11,,,,,4,,,44,100
22432,note_off,,,,,64,0,9,,,,,2,,,73,100
22464,note_on,,,,,64,0,13,,,,,5,,,59,100
22464,note_on,,,,,32,0,9,,,,,2,,,71,100
22464,note_on,,,,,64,0,10,,,,,3,,,59,100
22464,note_on,,,,,64,0,8,,,,,1,,,75,100
22464,note_on,,,,,0,0,12,,,,,5,,,75,100
22464,note_on,,,,,64,0,12,,,,,5,,,66,100
22464,note_on,,,,,64,0,11,,,,,4,,,47,100
22528,note_off,,,,,64,0,9,,,,,2,,,71,100
22560,note_on,,,,,32,0,9,,,,,2,,,69,100
22592,note_off,,,,,0,0,12,,,,,5,,,75,100
22592,note_off,,,,,128,0,13,,,,,5,,,59,100
22592,note_off,,,,,128,0,12,,,,,5,,,66,100
22592,note_off,,,,,128,0,10,,,,,3,,,59,100
22592,note_off,,,,,128,0,8,,,,,1,,,75,100
22592,note_off,,,,,128,0,11,,,,,4,,,47,100
22624,note_off,,,,,64,0,9,,,,,2,,,69,100
22656,note_on,,,,,64,0,8,,,,,1,,,76,100
22656,note_on,,,,,32,0,9,,,,,2,,,68,100
22656,note_on,,,,,64,0,11,,,,,4,,,49,100
22656,note_on,,,,,64,0,12,,,,,5,,,68,100
22656,note_on,,,,,64,0,10,,,,,3,,,61,100
22656,note_on,,,,,64,0,13,,,,,5,,,61,100
22656,note_on,,,,,0,0,12,,,,,5,,,76,100
22784,note_off,,,,,128,0,8,,,,,1,,,76,100
22784,note_off,,,,,128,0,10,,,,,3,,,61,100
22784,note_off,,,,,128,0,9,,,,,2,,,68,100
22784,note_off,,,,,128,0,11,,,,,4,,,49,100
22784,note_off,,,,,0,0,12,,,,,5,,,76,100
22784,note_off,,,,,128,0,13,,,,,5,,,61,100
22784,note_off,,,,,128,0,12,,,,,5,,,68,100
22848,note_on,,,,,64,0,12,,,,,5,,,68,100
22848,note_on,,,,,64,0,11,,,,,4,,,40,100
22848,note_on,,,,,64,0,10,,,,,3,,,52,100
22848,note_on,,,,,0,0,12,,,,,5,,,71,100
22848,note_on,,,,,64,0,9,,,,,2,,,68,100
22848,note_on,,,,,64,0,13,,,,,5,,,52,100
22848,note_on,,,,,64,0,8,,,,,1,,,68,100
22976,note_off,,,,,128,0,12,,,,,5,,,68,100
22976,note_off,,,,,0,0,12,,,,,5,,,71,100
22976,note_off,,,,,128,0,8,,,,,1,,,68,100
22976,note_off,,,,,128,0,10,,,,,3,,,52,100
22976,note_off,,,,,128,0,11,,,,,4,,,40,100
22976,note_off,,,,,128,0,13,,,,,5,,,52,100
22976,note_off,,,,,128,0,9,,,,,2,,,68,100
23040,note_on,,,,,0,0,12,,,,,5,,,73,100
23040,note_on,,,,,0,0,12,,,,,5,,,69,100
23040,note_on,,,,,64,0,11,,,,,4,,,42,100
23040,note_on,,,,,64,0,10,,,,,3,,,54,100
23040,note_on,,,,,64,0,9,,,,,2,,,61,100
23040,note_on,,,,,64,0,13,,,,,5,,,54,100
23040,note_on,,,,,64,0,8,,,,,1,,,69,100
23040,note_on,,,,,64,0,12,,,,,5,,,64,100
23168,note_off,,,,,128,0,13,,,,,5,,,54,100
23168,note_off,,,,,128,0,11,,,,,4,,,42,100
23168,note_off,,,,,0,0,12,,,,,5,,,73,100
23168,note_off,,,,,0,0,12,,,,,5,,,69,100
23168,note_off,,,,,128,0,9,,,,,2,,,61,100
23168,note_off,,,,,128,0,10,,,,,3,,,54,100
23168,note_off,,,,,128,0,12,,,,,5,,,64,100
23168,note_off,,,,,128,0,8,,,,,1,,,69,100
23232,note_on,,,,,64,0,11,,,,,4,,,44,100
23232,note_on,,,,,64,0,10,,,,,3,,,56,100
23232,note_on,,,,,64,0,12,,,,,5,,,71,100
23232,note_on,,,,,64,0,8,,,,,1,,,76,100
23232,note_on,,,,,64,0,13,,,,,5,,,56,100
23232,note_on,,,,,64,0,9,,,,,2,,,68,100
23296,note_off,,,,,64,0,12,,,,,5,,,71,100
23296,note_off,,,,,64,0,11,,,,,4,,,44,100
23296,note_off,,,,,64,0,10,,,,,3,,,56,100
23296,note_off,,,,,64,0,13,,,,,5,,,56,100
23328,note_on,,,,,32,0,10,,,,,3,,,57,100
23328,note_on,,,,,32,0,11,,,,,4,,,45,100
23328,note_on,,,,,32,0,12,,,,,5,,,73,100
23328,note_on,,,,,32,0,13,,,,,5,,,57,100
23360,note_off,,,,,128,0,9,,,,,2,,,68,100
23360,note_off,,,,,128,0,8,,,,,1,,,76,100
23392,note_off,,,,,64,0,12,,,,,5,,,73,100
23392,note_off,,,,,64,0,13,,,,,5,,,57,100
23392,note_off,,,,,64,0,11,,,,,4,,,45,100
23392,note_off,,,,,64,0,10,,,,,3,,,57,100
23424,note_on,,,,,32,0,12,,,,,5,,,66,100
23424,note_on,,,,,0,0,12,,,,,5,,,71,100
23424,note_on,,,,,0,0,12,,,,,5,,,76,100
23424,note_on,,,,,32,0,10,,,,,3,,,59,100
23424,note_on,,,,,32,0,13,,,,,5,,,59,100
23424,note_on,,,,,64,0,9,,,,,2,,,66,100
23424,note_on,,,,,64,0,8,,,,,1,,,59,100
23424,note_on,,,,,32,0,11,,,,,4,,,47,100
23552,note_off,,,,,128,0,10,,,,,3,,,59,100
23552,note_off,,,,,128,0,11,,,,,4,,,47,100
23552,note_off,,,,,128,0,9,,,,,2,,,66,100
23552,note_off,,,,,128,0,13,,,,,5,,,59,100
23552,note_off,,,,,128,0,8,,,,,1,,,59,100
23552,note_off,,,,,128,0,12,,,,,5,,,76,100
23616,note_on,,,,,64,0,11,,,,,4,,,35,100
23616,note_on,,,,,64,0,10,,,,,3,,,47,100
23616,note_on,,,,,64,0,9,,,,,2,,,71,100
23616,note_on,,,,,64,0,12,,,,,5,,,75,100
23616,note_on,,,,,64,0,8,,,,,1,,,75,100
23616,note_on,,,,,64,0,13,,,,,5,,,47,100
23680,note_off,,,,,64,0,12,,,,,5,,,66,100
23680,note_off,,,,,0,0,12,,,,,5,,,71,100
23744,note_off,,,,,128,0,8,,,,,1,,,75,100
23744,note_off,,,,,64,0,12,,,,,5,,,75,100
23744,note_off,,,,,128,0,13,,,,,5,,,47,100
23744,note_off,,,,,128,0,9,,,,,2,,,71,100
23744,note_off,,,,,128,0,10,,,,,3,,,47,100
23744,note_off,,,,,128,0,11,,,,,4,,,35,100
23808,note_on,,,,,64,0,11,,,,,4,,,40,100
23808,note_on,,,,,64,0,9,,,,,2,,,68,100
23808,note_on,,,,,0,0,12,,,,,5,,,71,100
23808,note_on,,,,,0,0,12,,,,,5,,,68,100
23808,note_on,,,,,64,0,10,,,,,3,,,52,100
23808,note_on,,,,,64,0,12,,,,,5,,,76,100
23808,note_on,,,,,64,0,13,,,,,5,,,52,100
23808,note_on,,,,,64,0,8,,,,,1,,,76,100
23936,note_off,,,,,128,0,12,,,,,5,,,76,100
23936,note_off,,,,,128,0,13,,,,,5,,,52,100
23936,note_off,,,,,0,0,12,,,,,5,,,68,100
23936,note_off,,,,,128,0,11,,,,,4,,,40,100
23936,note_off,,,,,128,0,10,,,,,3,,,52,100
23936,note_off,,,,,128,0,9,,,,,2,,,68,100
24000,note_on,,,,,64,0,11,,,,,4,,,42,100
24000,note_on,,,,,64,0,12,,,,,5,,,69,100
24000,note_on,,,,,64,0,10,,,,,3,,,54,100
24000,note_on,,,,,64,0,13,,,,,5,,,54,100
24000,note_on,,,,,64,0,9,,,,,2,,,69,100
24064,note_off,,,,,256,0,8,,,,,1,,,76,100
24064,note_off,,,,,64,0,12,,,,,5,,,71,100
24128,note_off,,,,,128,0,10,,,,,3,,,54,100
24128,note_off,,,,,128,0,13,,,,,5,,,54,100
24128,note_off,,,,,128,0,11,,,,,4,,,42,100
24128,note_off,,,,,64,0,12,,,,,5,,,69,100
24128,note_off,,,,,128,0,9,,,,,2,,,69,100
24192,note_on,,,,,64,0,11,,,,,4,,,44,100
24192,note_on,,,,,64,0,10,,,,,3,,,56,100
24192,note_on,,,,,0,0,12,,,,,5,,,64,100
24192,note_on,,,,,64,0,12,,,,,5,,,71,100
24192,note_on,,,,,64,0,13,,,,,5,,,56,100
24192,note_on,,,,,0,0,12,,,,,5,,,76,100
24192,note_on,,,,,64,0,9,,,,,2,,,71,100
24288,note_on,,,,,224,0,8,,,,,1,,,76,100
24320,note_off,,,,,128,0,9,,,,,2,,,71,100
24320,note_off,,,,,0,0,12,,,,,5,,,76,100
24320,note_off,,,,,128,0,13,,,,,5,,,56,100
24320,note_off,,,,,128,0,11,,,,,4,,,44,100
24320,note_off,,,,,128,0,10,,,,,3,,,56,100
24320,note_off,,,,,128,0,12,,,,,5,,,64,100
24352,note_off,,,,,64,0,8,,,,,1,,,76,100
24384,note_on,,,,,64,0,13,,,,,5,,,52,100
24384,note_on,,,,,64,0,10,,,,,3,,,52,100
24384,note_on,,,,,32,0,8,,,,,1,,,80,100
24384,note_on,,,,,64,0,11,,,,,4,,,40,100
24384,note_on,,,,,64,0,9,,,,,2,,,68,100
24384,note_on,,,,,0,0,12,,,,,5,,,68,100
24384,note_on,,,,,64,0,12,,,,,5,,,64,100
24448,note_off,,,,,64,0,8,,,,,1,,,80,100
24448,note_off,,,,,64,0,12,,,,,5,,,71,100
24480,note_on,,,,,32,0,8,,,,,1,,,81,100
24512,note_off,,,,,128,0,10,,,,,3,,,52,100
24512,note_off,,,,,128,0,13,,,,,5,,,52,100
24512,note_off,,,,,0,0,12,,,,,5,,,68,100
24512,note_off,,,,,64,0,12,,,,,5,,,64,100
24512,note_off,,,,,128,0,11,,,,,4,,,40,100
24512,note_off,,,,,128,0,9,,,,,2,,,68,100
24544,note_off,,,,,64,0,8,,,,,1,,,81,100
24576,note_on,,,,,32,0,8,,,,,1,,,83,100
24576,note_on,,,,,64,0,12,,,,,5,,,71,100
24576,note_on,,,,,0,0,12,,,,,5,,,63,100
24576,note_on,,,,,0,0,12,,,,,5,,,66,100
24576,note_on,,,,,64,0,11,,,,,4,,,39,100
24576,note_on,,,,,64,0,9,,,,,2,,,66,100
24576,note_on,,,,,64,0,13,,,,,5,,,51,100
24576,note_on,,,,,64,0,10,,,,,3,,,51,100
24704,note_off,,,,,128,0,8,,,,,1,,,83,100
24704,note_off,,,,,128,0,11,,,,,4,,,39,100
24704,note_off,,,,,128,0,13,,,,,5,,,51,100
24704,note_off,,,,,128,0,9,,,,,2,,,66,100
24704,note_off,,,,,128,0,10,,,,,3,,,51,100
24704,note_off,,,,,128,0,12,,,,,5,,,63,100
24704,note_off,,,,,0,0,12,,,,,5,,,66,100
24768,note_on,,,,,64,0,10,,,,,3,,,49,100
24768,note_on,,,,,64,0,8,,,,,1,,,83,98
24768,note_on,,,,,64,0,9,,,,,2,,,64,100
24768,note_on,,,,,64,0,11,,,,,4,,,37,100
24768,note_on,,,,,64,0,12,,,,,5,,,64,100
24768,note_on,,,,,64,0,13,,,,,5,,,49,100
24832,note_off,,,,,64,0,12,,,,,5,,,71,100
24896,note_off,,,,,128,0,11,,,,,4,,,37,100
24896,note_off,,,,,128,0,10,,,,,3,,,49,100
24896,note_off,,,,,128,0,8,,,,,1,,,83,100
24896,note_off,,,,,128,0,9,,,,,2,,,64,100
24896,note_off,,,,,128,0,13,,,,,5,,,49,100
24896,note_off,,,,,64,0,12,,,,,5,,,64,100
24960,note_on,,,,,0,0,12,,,,,5,,,71,100
24960,note_on,,,,,64,0,13,,,,,5,,,51,100
24960,note_on,,,,,64,0,12,,,,,5,,,66,100
24960,note_on,,,,,64,0,10,,,,,3,,,51,100
24960,note_on,,,,,64,0,9,,,,,2,,,66,100
24960,note_on,,,,,64,0,11,,,,,4,,,39,100
24960,note_on,,,,,64,0,8,,,,,1,,,83,95
25088,note_off,,,,,128,0,9,,,,,2,,,66,100
25088,note_off,,,,,128,0,10,,,,,3,,,51,100
25088,note_off,,,,,128,0,8,,,,,1,,,83,100
25088,note_off,,,,,128,0,13,,,,,5,,,51,100
25088,note_off,,,,,128,0,12,,,,,5,,,66,100
25088,note_off,,,,,128,0,11,,,,,4,,,39,100
25152,note_on,,,,,64,0,12,,,,,5,,,63,100
25152,note_on,,,,,64,0,8,,,,,1,,,83,92
25152,note_on,,,,,64,0,9,,,,,2,,,63,100
25152,note_on,,,,,64,0,13,,,,,5,,,47,100
25152,note_on,,,,,0,0,12,,,,,5,,,66,100
25152,note_on,,,,,64,0,11,,,,,4,,,35,100
25152,note_on,,,,,64,0,10,,,,,3,,,47,100
25216,note_off,,,,,64,0,12,,,,,5,,,71,100
25280,note_off,,,,,128,0,9,,,,,2,,,63,100
25280,note_off,,,,,128,0,13,,,,,5,,,47,100
25280,note_off,,,,,64,0,12,,,,,5,,,63,100
25280,note_off,,,,,128,0,11,,,,,4,,,35,100
25280,note_off,,,,,128,0,8,,,,,1,,,83,100
25280,note_off,,,,,128,0,10,,,,,3,,,47,100
25280,note_off,,,,,0,0,12,,,,,5,,,66,100
25344,note_on,,,,,0,0,12,,,,,5,,,68,100
25344,note_on,,,,,64,0,11,,,,,4,,,40,70
25344,note_on,,,,,64,0,12,,,,,5,,,64,100
25344,note_on,,,,,0,0,12,,,,,5,,,71,100
25344,note_on,,,,,64,0,10,,,,,3,,,52,70
25344,note_on,,,,,64,0,8,,,,,1,,,80,89
25344,note_on,,,,,64,0,13,,,,,5,,,52,100
25344,note_on,,,,,64,0,9,,,,,2,,,59,70
25472,note_off,,,,,128,0,8,,,,,1,,,80,100
25472,note_off,,,,,128,0,10,,,,,3,,,52,100
25472,note_off,,,,,128,0,9,,,,,2,,,59,100
25472,note_off,,,,,0,0,12,,,,,5,,,68,100
25472,note_off,,,,,128,0,12,,,,,5,,,64,100
25472,note_off,,,,,128,0,13,,,,,5,,,52,100
25472,note_off,,,,,128,0,11,,,,,4,,,40,100
25536,note_on,,,,,64,0,11,,,,,4,,,42,70
25536,note_on,,,,,64,0,10,,,,,3,,,54,70
25536,note_on,,,,,64,0,12,,,,,5,,,69,100
25536,note_on,,,,,64,0,8,,,,,1,,,76,86
25536,note_on,,,,,64,0,9,,,,,2,,,69,70
25536,note_on,,,,,64,0,13,,,,,5,,,54,100
25600,note_off,,,,,64,0,12,,,,,5,,,71,100
25664,note_off,,,,,64,0,12,,,,,5,,,69,100
25664,note_off,,,,,128,0,10,,,,,3,,,54,100
25664,note_off,,,,,128,0,9,,,,,2,,,69,100
25664,note_off,,,,,128,0,11,,,,,4,,,42,100
25664,note_off,,,,,128,0,8,,,,,1,,,76,100
25664,note_off,,,,,128,0,13,,,,,5,,,54,100
25728,note_on,,,,,64,0,9,,,,,2,,,71,70
25728,note_on,,,,,0,0,12,,,,,5,,,76,100
25728,note_on,,,,,0,0,12,,,,,5,,,64,100
25728,note_on,,,,,64,0,12,,,,,5,,,71,100
25728,note_on,,,,,64,0,11,,,,,4,,,44,70
25728,note_on,,,,,64,0,10,,,,,3,,,56,70
25728,note_on,,,,,64,0,13,,,,,5,,,56,100
25824,note_on,,,,,160,0,8,,,,,1,,,76,70
25856,note_off,,,,,128,0,9,,,,,2,,,71,100
25856,note_off,,,,,128,0,11,,,,,4,,,44,100
25856,note_off,,,,,128,0,12,,,,,5,,,64,100
25856,note_off,,,,,0,0,12,,,,,5,,,76,100
25856,note_off,,,,,128,0,10,,,,,3,,,56,100
25856,note_off,,,,,128,0,13,,,,,5,,,56,100
25888,note_off,,,,,64,0,8,,,,,1,,,76,100
25920,note_on,,,,,64,0,12,,,,,5,,,64,100
25920,note_on,,,,,64,0,13,,,,,5,,,52,100
25920,note_on,,,,,32,0,8,,,,,1,,,80,70
25920,note_on,,,,,64,0,11,,,,,4,,,40,70
25920,note_on,,,,,64,0,10,,,,,3,,,52,70
25920,note_on,,,,,0,0,12,,,,,5,,,68,100
25920,note_on,,,,,64,0,9,,,,,2,,,68,70
25984,note_off,,,,,64,0,8,,,,,1,,,80,100
25984,note_off,,,,,64,0,12,,,,,5,,,71,100
26016,note_on,,,,,32,0,8,,,,,1,,,81,70
26048,note_off,,,,,128,0,9,,,,,2,,,68,100
26048,note_off,,,,,128,0,10,,,,,3,,,52,100
26048,note_off,,,,,128,0,13,,,,,5,,,52,100
26048,note_off,,,,,0,0,12,,,,,5,,,68,100
26048,note_off,,,,,64,0,12,,,,,5,,,64,100
26048,note_off,,,,,128,0,11,,,,,4,,,40,100
26080,note_off,,,,,64,0,8,,,,,1,,,81,100
26112,note_on,,,,,64,0,11,,,,,4,,,39,70
26112,note_on,,,,,64,0,12,,,,,5,,,71,100
26112,note_on,,,,,0,0,12,,,,,5,,,63,100
26112,note_on,,,,,64,0,10,,,,,3,,,51,70
26112,note_on,,,,,64,0,9,,,,,2,,,66,70
26112,note_on,,,,,0,0,12,,,,,5,,,66,100
26112,note_on,,,,,64,0,13,,,,,5,,,51,100
26112,note_on,,,,,32,0,8,,,,,1,,,83,70
26240,note_off,,,,,128,0,9,,,,,2,,,66,100
26240,note_off,,,,,128,0,8,,,,,1,,,83,100
26240,note_off,,,,,128,0,12,,,,,5,,,63,100
26240,note_off,,,,,128,0,11,,,,,4,,,39,100
26240,note_off,,,,,128,0,10,,,,,3,,,51,100
26240,note_off,,,,,128,0,13,,,,,5,,,51,100
26240,note_off,,,,,0,0,12,,,,,5,,,66,100
26304,note_on,,,,,64,0,11,,,,,4,,,37,70
26304,note_on,,,,,64,0,10,,,,,3,,,49,70
26304,note_on,,,,,64,0,12,,,,,5,,,64,100
26304,note_on,,,,,64,0,13,,,,,5,,,49,100
26304,note_on,,,,,64,0,8,,,,,1,,,83,70
26304,note_on,,,,,64,0,9,,,,,2,,,64,70
26368,note_off,,,,,64,0,12,,,,,5,,,71,100
26432,note_off,,,,,128,0,11,,,,,4,,,37,100
26432,note_off,,,,,128,0,13,,,,,5,,,49,100
26432,note_off,,,,,128,0,8,,,,,1,,,83,100
26432,note_off,,,,,128,0,10,,,,,3,,,49,100
26432,note_off,,,,,128,0,9,,,,,2,,,64,100
26432,note_off,,,,,64,0,12,,,,,5,,,64,100
26496,note_on,,,,,64,0,9,,,,,2,,,66,70
26496,note_on,,,,,64,0,13,,,,,5,,,51,100
26496,note_on,,,,,64,0,12,,,,,5,,,66,100
26496,note_on,,,,,64,0,10,,,,,3,,,51,70
26496,note_on,,,,,64,0,11,,,,,4,,,39,70
26496,note_on,,,,,0,0,12,,,,,5,,,71,100
26496,note_on,,,,,64,0,8,,,,,1,,,83,70
26624,note_off,,,,,128,0,8,,,,,1,,,83,100
26624,note_off,,,,,128,0,13,,,,,5,,,51,100
26624,note_off,,,,,128,0,9,,,,,2,,,66,100
26624,note_off,,,,,128,0,11,,,,,4,,,39,100
26624,note_off,,,,,128,0,12,,,,,5,,,66,100
26624,note_off,,,,,128,0,10,,,,,3,,,51,100
26688,note_on,,,,,64,0,9,,,,,2,,,63,70
26688,note_on,,,,,64,0,10,,,,,3,,,47,70
26688,note_on,,,,,64,0,8,,,,,1,,,83,70
26688,note_on,,,,,64,0,11,,,,,4,,,35,70
26688,note_on,,,,,64,0,12,,,,,5,,,63,100
26688,note_on,,,,,0,0,12,,,,,5,,,66,100
26688,note_on,,,,,64,0,13,,,,,5,,,47,100
26752,note_off,,,,,64,0,12,,,,,5,,,71,100
26816,note_off,,,,,128,0,13,,,,,5,,,47,100
26816,note_off,,,,,0,0,12,,,,,5,,,66,100
26816,note_off,,,,,128,0,11,,,,,4,,,35,100
26816,note_off,,,,,128,0,9,,,,,2,,,63,100
26816,note_off,,,,,128,0,8,,,,,1,,,83,100
26816,note_off,,,,,64,0,12,,,,,5,,,63,100
26816,note_off,,,,,128,0,10,,,,,3,,,47,100
26880,note_on,,,,,64,0,10,,,,,3,,,52,95
26880,note_on,,,,,64,0,13,,,,,5,,,52,100
26880,note_on,,,,,64,0,11,,,,,4,,,40,95
26880,note_on,,,,,0,0,12,,,,,5,,,68,100
26880,note_on,,,,,0,0,12,,,,,5,,,71,100
26880,note_on,,,,,64,0,12,,,,,5,,,64,100
26880,note_on,,,,,64,0,8,,,,,1,,,80,70
26880,note_on,,,,,64,0,9,,,,,2,,,59,100
27008,note_off,,,,,128,0,10,,,,,3,,,52,100
27008,note_off,,,,,128,0,8,,,,,1,,,80,100
27008,note_off,,,,,128,0,12,,,,,5,,,64,100
27008,note_off,,,,,0,0,12,,,,,5,,,68,100
27008,note_off,,,,,128,0,11,,,,,4,,,40,100
27008,note_off,,,,,128,0,13,,,,,5,,,52,100
27072,note_on,,,,,64,0,12,,,,,5,,,69,100
27072,note_on,,,,,64,0,8,,,,,1,,,76,70
27072,note_on,,,,,64,0,10,,,,,3,,,54,93
27072,note_on,,,,,64,0,13,,,,,5,,,54,100
27072,note_on,,,,,64,0,11,,,,,4,,,42,93
27136,note_off,,,,,64,0,12,,,,,5,,,71,100
27136,note_off,,,,,256,0,9,,,,,2,,,59,100
27200,note_off,,,,,128,0,8,,,,,1,,,76,100
27200,note_off,,,,,128,0,13,,,,,5,,,54,100
27200,note_off,,,,,128,0,10,,,,,3,,,54,100
27200,note_off,,,,,64,0,12,,,,,5,,,69,100
27200,note_off,,,,,128,0,11,,,,,4,,,42,100
27264,note_on,,,,,64,0,13,,,,,5,,,56,100
27264,note_on,,,,,64,0,12,,,,,5,,,71,100
27264,note_on,,,,,64,0,10,,,,,3,,,56,91
27264,note_on,,,,,64,0,11,,,,,4,,,44,91
27360,note_on,,,,,5668,0,7,,,,,0,,,83,100
27392,note_off,,,,,128,0,11,,,,,4,,,44,100
27392,note_off,,,,,128,0,10,,,,,3,,,56,100
27392,note_off,,,,,128,0,13,,,,,5,,,56,100
27392,note_off,,,,,128,0,12,,,,,5,,,71,100
27424,note_off,,,,,64,0,7,,,,,0,,,83,100
27456,note_on,,,,,64,0,12,,,,,5,,,73,100
27456,note_on,,,,,32,0,7,,,,,0,,,85,100
27456,note_on,,,,,64,0,13,,,,,5,,,57,100
27456,note_on,,,,,64,0,11,,,,,4,,,45,88
27456,note_on,,,,,64,0,10,,,,,3,,,57,88
27520,note_off,,,,,64,0,7,,,,,0,,,85,100
27552,note_on,,,,,32,0,7,,,,,0,,,83,100
27584,note_off,,,,,128,0,13,,,,,5,,,57,100
27584,note_off,,,,,128,0,11,,,,,4,,,45,100
27584,note_off,,,,,128,0,10,,,,,3,,,57,100
27584,note_off,,,,,128,0,12,,,,,5,,,73,100
27616,note_off,,,,,64,0,7,,,,,0,,,83,100
27648,note_on,,,,,0,0,12,,,,,5,,,71,100
27648,note_on,,,,,64,0,13,,,,,5,,,56,100
27648,note_on,,,,,32,0,7,,,,,0,,,88,100
27648,note_on,,,,,64,0,11,,,,,4,,,44,86
27648,note_on,,,,,64,0,12,,,,,5,,,64,100
27648,note_on,,,,,64,0,10,,,,,3,,,56,86
27740,note_off,,,,,92,0,7,,,,,0,,,88,100
27744,note_on,,,,,4,0,7,,,,,0,,,83,100
27836,note_off,,,,,92,0,7,,,,,0,,,83,100
27840,note_on,,,,,4,0,7,,,,,0,,,85,100
27904,note_off,,,,,256,0,10,,,,,3,,,56,100
27904,note_off,,,,,64,0,7,,,,,0,,,85,100
27904,note_off,,,,,0,0,12,,,,,5,,,71,100
27904,note_off,,,,,256,0,12,,,,,5,,,64,100
27904,note_off,,,,,256,0,11,,,,,4,,,44,100
27904,note_off,,,,,256,0,13,,,,,5,,,56,100
27936,note_on,,,,,32,0,7,,,,,0,,,83,100
28000,note_off,,,,,64,0,7,,,,,0,,,83,100
28032,note_on,,,,,32,0,7,,,,,0,,,88,100
28124,note_off,,,,,92,0,7,,,,,0,,,88,100
28128,note_on,,,,,4,0,7,,,,,0,,,83,100
28220,note_off,,,,,92,0,7,,,,,0,,,83,100
28224,note_on,,,,,320,0,10,,,,,3,,,64,85
28224,note_on,,,,,0,0,12,,,,,5,,,71,100
28224,note_on,,,,,320,0,12,,,,,5,,,68,100
28224,note_on,,,,,4,0,7,,,,,0,,,85,100
28224,note_on,,,,,320,0,13,,,,,5,,,64,100
28224,note_on,,,,,320,0,11,,,,,4,,,52,85
28288,note_off,,,,,64,0,7,,,,,0,,,85,100
28320,note_on,,,,,32,0,7,,,,,0,,,83,100
28352,note_off,,,,,128,0,13,,,,,5,,,64,100
28352,note_off,,,,,0,0,12,,,,,5,,,71,100
28352,note_off,,,,,128,0,12,,,,,5,,,68,100
28352,note_off,,,,,128,0,10,,,,,3,,,64,100
28352,note_off,,,,,128,0,11,,,,,4,,,52,100
28384,note_off,,,,,64,0,7,,,,,0,,,83,100
28416,note_on,,,,,32,0,7,,,,,0,,,88,100
28416,note_on,,,,,64,0,10,,,,,3,,,56,84
28416,note_on,,,,,64,0,13,,,,,5,,,56,100
28416,note_on,,,,,0,0,12,,,,,5,,,71,100
28416,note_on,,,,,64,0,12,,,,,5,,,64,100
28416,note_on,,,,,64,0,11,,,,,4,,,44,84
28508,note_off,,,,,92,0,7,,,,,0,,,88,100
28512,note_on,,,,,4,0,7,,,,,0,,,83,100
28604,note_off,,,,,92,0,7,,,,,0,,,83,100
28608,note_on,,,,,4,0,7,,,,,0,,,85,100
28672,note_off,,,,,64,0,7,,,,,0,,,85,100
28672,note_off,,,,,256,0,13,,,,,5,,,56,100
28672,note_off,,,,,256,0,11,,,,,4,,,44,100
28672,note_off,,,,,0,0,12,,,,,5,,,71,100
28672,note_off,,,,,256,0,12,,,,,5,,,64,100
28672,note_off,,,,,256,0,10,,,,,3,,,56,100
28704,note_on,,,,,32,0,7,,,,,0,,,83,100
28768,note_off,,,,,64,0,7,,,,,0,,,83,100
28800,note_on,,,,,32,0,7,,,,,0,,,88,100
28892,note_off,,,,,92,0,7,,,,,0,,,88,100
28896,note_on,,,,,4,0,7,,,,,0,,,87,100
28988,note_off,,,,,92,0,7,,,,,0,,,87,100
28992,note_on,,,,,320,0,10,,,,,3,,,64,81
28992,note_on,,,,,0,0,12,,,,,5,,,71,100
28992,note_on,,,,,320,0,12,,,,,5,,,68,100
28992,note_on,,,,,320,0,13,,,,,5,,,64,100
28992,note_on,,,,,320,0,11,,,,,4,,,52,81
28992,note_on,,,,,4,0,7,,,,,0,,,85,100
29056,note_off,,,,,64,0,7,,,,,0,,,85,100
29088,note_on,,,,,32,0,7,,,,,0,,,83,100
29120,note_off,,,,,128,0,10,,,,,3,,,64,100
29120,note_off,,,,,128,0,13,,,,,5,,,64,100
29120,note_off,,,,,128,0,11,,,,,4,,,52,100
29120,note_off,,,,,128,0,12,,,,,5,,,68,100
29120,note_off,,,,,0,0,12,,,,,5,,,71,100
29152,note_off,,,,,64,0,7,,,,,0,,,83,100
29184,note_on,,,,,0,0,12,,,,,5,,,73,100
29184,note_on,,,,,64,0,12,,,,,5,,,76,100
29184,note_on,,,,,32,0,7,,,,,0,,,87,100
29184,note_on,,,,,64,0,13,,,,,5,,,57,100
29184,note_on,,,,,64,0,10,,,,,3,,,57,80
29184,note_on,,,,,64,0,11,,,,,4,,,45,80
29228,note_off,,,,,44,0,7,,,,,0,,,87,100
29232,note_on,,,,,4,0,7,,,,,0,,,85,100
29276,note_off,,,,,44,0,7,,,,,0,,,85,100
29280,note_on,,,,,4,0,7,,,,,0,,,87,100
29312,note_off,,,,,128,0,12,,,,,5,,,73,100
29312,note_off,,,,,128,0,13,,,,,5,,,57,100
29312,note_off,,,,,128,0,11,,,,,4,,,45,100
29312,note_off,,,,,128,0,10,,,,,3,,,57,100
29324,note_off,,,,,44,0,7,,,,,0,,,87,100
29328,note_on,,,,,4,0,7,,,,,0,,,85,100
29372,note_off,,,,,44,0,7,,,,,0,,,85,100
29376,note_on,,,,,64,0,12,,,,,5,,,71,100
29376,note_on,,,,,64,0,13,,,,,5,,,56,100
29376,note_on,,,,,64,0,10,,,,,3,,,56,79
29376,note_on,,,,,4,0,7,,,,,0,,,87,100
29376,note_on,,,,,64,0,11,,,,,4,,,44,79
29420,note_off,,,,,44,0,7,,,,,0,,,87,100
29424,note_on,,,,,4,0,7,,,,,0,,,85,100
29440,note_off,,,,,64,0,12,,,,,5,,,76,100
29504,note_off,,,,,128,0,13,,,,,5,,,56,100
29504,note_off,,,,,128,0,11,,,,,4,,,44,100
29504,note_off,,,,,64,0,12,,,,,5,,,71,100
29504,note_off,,,,,128,0,10,,,,,3,,,56,100
29520,note_off,,,,,96,0,7,,,,,0,,,85,100
29568,note_on,,,,,64,0,10,,,,,3,,,54,78
29568,note_on,,,,,0,0,12,,,,,5,,,73,100
29568,note_on,,,,,64,0,12,,,,,5,,,69,100
29568,note_on,,,,,64,0,13,,,,,5,,,54,100
29568,note_on,,,,,64,0,11,,,,,4,,,42,78
29664,note_on,,,,,144,0,7,,,,,0,,,78,95
29696,note_off,,,,,0,0,12,,,,,5,,,73,100
29696,note_off,,,,,128,0,11,,,,,4,,,42,100
29696,note_off,,,,,128,0,12,,,,,5,,,69,100
29696,note_off,,,,,128,0,10,,,,,3,,,54,100
29696,note_off,,,,,128,0,13,,,,,5,,,54,100
29728,note_off,,,,,64,0,7,,,,,0,,,78,100
29760,note_on,,,,,64,0,11,,,,,4,,,40,77
29760,note_on,,,,,64,0,13,,,,,5,,,52,100
29760,note_on,,,,,0,0,12,,,,,5,,,71,100
29760,note_on,,,,,32,0,7,,,,,0,,,80,95
29760,note_on,,,,,64,0,12,,,,,5,,,68,100
29760,note_on,,,,,64,0,10,,,,,3,,,52,77
29824,note_off,,,,,64,0,7,,,,,0,,,80,100
29856,note_on,,,,,32,0,7,,,,,0,,,78,95
29888,note_off,,,,,128,0,12,,,,,5,,,68,100
29888,note_off,,,,,0,0,12,,,,,5,,,71,100
29888,note_off,,,,,128,0,13,,,,,5,,,52,100
29888,note_off,,,,,128,0,11,,,,,4,,,40,100
29888,note_off,,,,,128,0,10,,,,,3,,,52,100
29920,note_off,,,,,64,0,7,,,,,0,,,78,100
29952,note_on,,,,,32,0,7,,,,,0,,,83,95
29952,note_on,,,,,64,0,10,,,,,3,,,51,76
29952,note_on,,,,,64,0,11,,,,,4,,,39,76
29952,note_on,,,,,64,0,13,,,,,5,,,51,100
29952,note_on,,,,,0,0,12,,,,,5,,,66,100
29952,note_on,,,,,64,0,12,,,,,5,,,71,100
30044,note_off,,,,,92,0,7,,,,,0,,,83,100
30048,note_on,,,,,4,0,7,,,,,0,,,78,95
30140,note_off,,,,,92,0,7,,,,,0,,,78,100
30144,note_on,,,,,4,0,7,,,,,0,,,80,95
30208,note_off,,,,,64,0,7,,,,,0,,,80,100
30208,note_off,,,,,0,0,12,,,,,5,,,66,100
30208,note_off,,,,,256,0,12,,,,,5,,,71,100
30208,note_off,,,,,256,0,10,,,,,3,,,51,100
30208,note_off,,,,,256,0,13,,,,,5,,,51,100
30208,note_off,,,,,256,0,11,,,,,4,,,39,100
30240,note_on,,,,,32,0,7,,,,,0,,,78,95
30304,note_off,,,,,64,0,7,,,,,0,,,78,100
30336,note_on,,,,,32,0,7,,,,,0,,,83,95
30428,note_off,,,,,92,0,7,,,,,0,,,83,100
30432,note_on,,,,,4,0,7,,,,,0,,,78,95
30524,note_off,,,,,92,0,7,,,,,0,,,78,100
30528,note_on,,,,,320,0,11,,,,,4,,,47,75
30528,note_on,,,,,4,0,7,,,,,0,,,80,95
30528,note_on,,,,,320,0,12,,,,,5,,,66,100
30528,note_on,,,,,0,0,12,,,,,5,,,75,100
30528,note_on,,,,,320,0,10,,,,,3,,,59,75
30528,note_on,,,,,320,0,13,,,,,5,,,59,100
30592,note_off,,,,,64,0,7,,,,,0,,,80,100
30624,note_on,,,,,32,0,7,,,,,0,,,78,95
30656,note_off,,,,,128,0,10,,,,,3,,,59,100
30656,note_off,,,,,128,0,12,,,,,5,,,66,100
30656,note_off,,,,,0,0,12,,,,,5,,,75,100
30656,note_off,,,,,128,0,13,,,,,5,,,59,100
30656,note_off,,,,,128,0,11,,,,,4,,,47,100
30688,note_off,,,,,64,0,7,,,,,0,,,78,100
30720,note_on,,,,,64,0,13,,,,,5,,,51,100
30720,note_on,,,,,64,0,10,,,,,3,,,51,75
30720,note_on,,,,,0,0,12,,,,,5,,,66,100
30720,note_on,,,,,64,0,12,,,,,5,,,71,100
30720,note_on,,,,,32,0,7,,,,,0,,,83,95
30720,note_on,,,,,64,0,11,,,,,4,,,39,75
30812,note_off,,,,,92,0,7,,,,,0,,,83,100
30816,note_on,,,,,4,0,7,,,,,0,,,78,95
30908,note_off,,,,,92,0,7,,,,,0,,,78,100
30912,note_on,,,,,4,0,7,,,,,0,,,80,95
30976,note_off,,,,,256,0,11,,,,,4,,,39,100
30976,note_off,,,,,0,0,12,,,,,5,,,66,100
30976,note_off,,,,,256,0,10,,,,,3,,,51,100
30976,note_off,,,,,256,0,12,,,,,5,,,71,100
30976,note_off,,,,,64,0,7,,,,,0,,,80,100
30976,note_off,,,,,256,0,13,,,,,5,,,51,100
31008,note_on,,,,,32,0,7,,,,,0,,,78,95
31072,note_off,,,,,64,0,7,,,,,0,,,78,100
31104,note_on,,,,,32,0,7,,,,,0,,,83,95
31196,note_off,,,,,92,0,7,,,,,0,,,83,100
31200,note_on,,,,,4,0,7,,,,,0,,,81,95
31292,note_off,,,,,92,0,7,,,,,0,,,81,100
31296,note_on,,,,,0,0,12,,,,,5,,,75,100
31296,note_on,,,,,320,0,10,,,,,3,,,59,75
31296,note_on,,,,,320,0,11,,,,,4,,,47,75
31296,note_on,,,,,4,0,7,,,,,0,,,80,95
31296,note_on,,,,,320,0,13,,,,,5,,,59,100
31296,note_on,,,,,320,0,12,,,,,5,,,66,100
31360,note_off,,,,,64,0,7,,,,,0,,,80,100
31392,note_on,,,,,32,0,7,,,,,0,,,78,95
31424,note_off,,,,,128,0,12,,,,,5,,,66,100
31424,note_off,,,,,0,0,12,,,,,5,,,75,100
31424,note_off,,,,,128,0,10,,,,,3,,,59,100
31424,note_off,,,,,128,0,11,,,,,4,,,47,100
31424,note_off,,,,,128,0,13,,,,,5,,,59,100
31456,note_off,,,,,64,0,7,,,,,0,,,78,100
31488,note_on,,,,,64,0,11,,,,,4,,,40,75
31488,note_on,,,,,32,0,7,,,,,0,,,81,95
31488,note_on,,,,,64,0,12,,,,,5,,,68,100
31488,note_on,,,,,64,0,10,,,,,3,,,52,75
31488,note_on,,,,,64,0,13,,,,,5,,,52,100
31488,note_on,,,,,0,0,12,,,,,5,,,71,100
31532,note_off,,,,,44,0,7,,,,,0,,,81,100
31536,note_on,,,,,4,0,7,,,,,0,,,80,95
31580,note_off,,,,,44,0,7,,,,,0,,,80,100
31584,note_on,,,,,4,0,7,,,,,0,,,81,95
31616,note_off,,,,,128,0,12,,,,,5,,,68,100
31616,note_off,,,,,0,0,12,,,,,5,,,71,100
31616,note_off,,,,,128,0,10,,,,,3,,,52,100
31616,note_off,,,,,128,0,11,,,,,4,,,40,100
31616,note_off,,,,,128,0,13,,,,,5,,,52,100
31628,note_off,,,,,44,0,7,,,,,0,,,81,100
31632,note_on,,,,,4,0,7,,,,,0,,,80,95
31676,note_off,,,,,44,0,7,,,,,0,,,80,100
31680,note_on,,,,,4,0,7,,,,,0,,,81,95
31680,note_on,,,,,64,0,11,,,,,4,,,42,75
31680,note_on,,,,,64,0,10,,,,,3,,,54,75
31680,note_on,,,,,64,0,13,,,,,5,,,54,100
31680,note_on,,,,,64,0,12,,,,,5,,,69,100
31724,note_off,,,,,44,0,7,,,,,0,,,81,100
31728,note_on,,,,,4,0,7,,,,,0,,,80,95
31808,note_off,,,,,128,0,11,,,,,4,,,42,100
31808,note_off,,,,,128,0,13,,,,,5,,,54,100
31808,note_off,,,,,128,0,10,,,,,3,,,54,100
31808,note_off,,,,,128,0,12,,,,,5,,,69,100
31824,note_off,,,,,96,0,7,,,,,0,,,80,100
31872,note_on,,,,,64,0,11,,,,,4,,,44,75
31872,note_on,,,,,64,0,13,,,,,5,,,56,100
31872,note_on,,,,,64,0,10,,,,,3,,,56,75
31872,note_on,,,,,64,0,12,,,,,5,,,71,100
31968,note_on,,,,,144,0,7,,,,,0,,,71,90
32000,note_off,,,,,128,0,11,,,,,4,,,44,100
32000,note_off,,,,,128,0,10,,,,,3,,,56,100
32000,note_off,,,,,128,0,13,,,,,5,,,56,100
32000,note_off,,,,,128,0,12,,,,,5,,,71,100
32032,note_off,,,,,64,0,7,,,,,0,,,71,100
32064,note_on,,,,,64,0,10,,,,,3,,,57,75
32064,note_on,,,,,64,0,12,,,,,5,,,73,100
32064,note_on,,,,,64,0,11,,,,,4,,,45,75
32064,note_on,,,,,32,0,7,,,,,0,,,73,90
32064,note_on,,,,,64,0,13,,,,,5,,,57,100
32128,note_off,,,,,64,0,7,,,,,0,,,73,100
32160,note_on,,,,,32,0,7,,,,,0,,,71,90
32192,note_off,,,,,128,0,12,,,,,5,,,73,100
32192,note_off,,,,,128,0,11,,,,,4,,,45,100
32192,note_off,,,,,128,0,13,,,,,5,,,57,100
32192,note_off,,,,,128,0,10,,,,,3,,,57,100
32224,note_off,,,,,64,0,7,,,,,0,,,71,100
32256,note_on,,,,,64,0,13,,,,,5,,,56,100
32256,note_on,,,,,0,0,12,,,,,5,,,71,100
32256,note_on,,,,,64,0,12,,,,,5,,,76,100
32256,note_on,,,,,32,0,7,,,,,0,,,76,90
32256,note_on,,,,,64,0,11,,,,,4,,,44,75
32256,note_on,,,,,64,0,10,,,,,3,,,56,75
32348,note_off,,,,,92,0,7,,,,,0,,,76,100
32352,note_on,,,,,4,0,7,,,,,0,,,71,90
32444,note_off,,,,,92,0,7,,,,,0,,,71,100
32448,note_on,,,,,4,0,7,,,,,0,,,73,90
32512,note_off,,,,,0,0,12,,,,,5,,,71,100
32512,note_off,,,,,256,0,11,,,,,4,,,44,100
32512,note_off,,,,,256,0,13,,,,,5,,,56,100
32512,note_off,,,,,256,0,10,,,,,3,,,56,100
32512,note_off,,,,,256,0,12,,,,,5,,,76,100
32512,note_off,,,,,64,0,7,,,,,0,,,73,100
32544,note_on,,,,,32,0,7,,,,,0,,,71,91
32608,note_off,,,,,64,0,7,,,,,0,,,71,100
32640,note_on,,,,,32,0,7,,,,,0,,,76,91
32732,note_off,,,,,92,0,7,,,,,0,,,76,100
32736,note_on,,,,,4,0,7,,,,,0,,,71,92
32828,note_off,,,,,92,0,7,,,,,0,,,71,100
32832,note_on,,,,,320,0,13,,,,,5,,,64,100
32832,note_on,,,,,320,0,10,,,,,3,,,64,75
32832,note_on,,,,,4,0,7,,,,,0,,,73,92
32832,note_on,,,,,0,0,12,,,,,5,,,71,100
32832,note_on,,,,,320,0,12,,,,,5,,,68,100
32832,note_on,,,,,320,0,11,,,,,4,,,52,75
32896,note_off,,,,,64,0,7,,,,,0,,,73,100
32928,note_on,,,,,32,0,7,,,,,0,,,71,93
32960,note_off,,,,,128,0,12,,,,,5,,,68,100
32960,note_off,,,,,0,0,12,,,,,5,,,71,100
32960,note_off,,,,,128,0,10,,,,,3,,,64,100
32960,note_off,,,,,128,0,13,,,,,5,,,64,100
32960,note_off,,,,,128,0,11,,,,,4,,,52,100
32992,note_off,,,,,64,0,7,,,,,0,,,71,100
33024,note_on,,,,,64,0,12,,,,,5,,,64,100
33024,note_on,,,,,0,0,12,,,,,5,,,71,100
33024,note_on,,,,,64,0,11,,,,,4,,,44,75
33024,note_on,,,,,64,0,10,,,,,3,,,56,75
33024,note_on,,,,,64,0,13,,,,,5,,,56,100
33024,note_on,,,,,32,0,7,,,,,0,,,76,93
33116,note_off,,,,,92,0,7,,,,,0,,,76,100
33120,note_on,,,,,4,0,7,,,,,0,,,71,94
33212,note_off,,,,,92,0,7,,,,,0,,,71,100
33216,note_on,,,,,4,0,7,,,,,0,,,73,94
33280,note_off,,,,,64,0,7,,,,,0,,,73,100
33280,note_off,,,,,0,0,12,,,,,5,,,71,100
33280,note_off,,,,,256,0,10,,,,,3,,,56,100
33280,note_off,,,,,256,0,12,,,,,5,,,64,100
33280,note_off,,,,,256,0,13,,,,,5,,,56,100
33280,note_off,,,,,256,0,11,,,,,4,,,44,100
33312,note_on,,,,,32,0,7,,,,,0,,,71,94
33376,note_off,,,,,64,0,7,,,,,0,,,71,100
33408,note_on,,,,,32,0,7,,,,,0,,,76,95
33500,note_off,,,,,92,0,7,,,,,0,,,76,100
33504,note_on,,,,,4,0,7,,,,,0,,,75,94
33596,note_off,,,,,92,0,7,,,,,0,,,75,100
33600,note_on,,,,,320,0,11,,,,,4,,,52,75
33600,note_on,,,,,320,0,10,,,,,3,,,64,75
33600,note_on,,,,,320,0,12,,,,,5,,,68,100
33600,note_on,,,,,0,0,12,,,,,5,,,71,100
33600,note_on,,,,,320,0,13,,,,,5,,,64,100
33600,note_on,,,,,4,0,7,,,,,0,,,73,92
33664,note_off,,,,,64,0,7,,,,,0,,,73,100
33696,note_on,,,,,32,0,7,,,,,0,,,71,91
33728,note_off,,,,,0,0,12,,,,,5,,,71,100
33728,note_off,,,,,128,0,12,,,,,5,,,68,100
33728,note_off,,,,,128,0,13,,,,,5,,,64,100
33728,note_off,,,,,128,0,10,,,,,3,,,64,100
33728,note_off,,,,,128,0,11,,,,,4,,,52,100
33760,note_off,,,,,64,0,7,,,,,0,,,71,100
33792,note_on,,,,,0,0,12,,,,,5,,,64,100
33792,note_on,,,,,64,0,12,,,,,5,,,61,100
33792,note_on,,,,,64,0,13,,,,,5,,,45,100
33792,note_on,,,,,64,0,10,,,,,3,,,45,75
33792,note_on,,,,,32,0,7,,,,,0,,,75,89
33792,note_on,,,,,64,0,11,,,,,4,,,33,75
33836,note_off,,,,,44,0,7,,,,,0,,,75,100
33840,note_on,,,,,4,0,7,,,,,0,,,73,89
33884,note_off,,,,,44,0,7,,,,,0,,,73,100
33888,note_on,,,,,4,0,7,,,,,0,,,75,88
33920,note_off,,,,,0,0,12,,,,,5,,,64,100
33920,note_off,,,,,128,0,13,,,,,5,,,45,100
33920,note_off,,,,,128,0,10,,,,,3,,,45,100
33920,note_off,,,,,128,0,12,,,,,5,,,61,100
33920,note_off,,,,,128,0,11,,,,,4,,,33,100
33932,note_off,,,,,44,0,7,,,,,0,,,75,100
33936,note_on,,,,,4,0,7,,,,,0,,,73,87
33980,note_off,,,,,44,0,7,,,,,0,,,73,100
33984,note_on,,,,,4,0,7,,,,,0,,,75,86
33984,note_on,,,,,64,0,12,,,,,5,,,63,100
33984,note_on,,,,,64,0,11,,,,,4,,,35,75
33984,note_on,,,,,64,0,10,,,,,3,,,47,75
33984,note_on,,,,,64,0,13,,,,,5,,,47,100
34028,note_off,,,,,44,0,7,,,,,0,,,75,100
34032,note_on,,,,,4,0,7,,,,,0,,,73,86
34112,note_off,,,,,128,0,12,,,,,5,,,63,100
34112,note_off,,,,,128,0,10,,,,,3,,,47,100
34112,note_off,,,,,128,0,11,,,,,4,,,35,100
34112,note_off,,,,,128,0,13,,,,,5,,,47,100
34128,note_off,,,,,96,0,7,,,,,0,,,73,100
34176,note_on,,,,,64,0,10,,,,,3,,,49,75
34176,note_on,,,,,64,0,12,,,,,5,,,64,100
34176,note_on,,,,,64,0,11,,,,,4,,,37,75
34176,note_on,,,,,64,0,13,,,,,5,,,49,100
34272,note_on,,,,,144,0,7,,,,,0,,,73,80
34304,note_off,,,,,128,0,12,,,,,5,,,64,100
34304,note_off,,,,,128,0,10,,,,,3,,,49,100
34304,note_off,,,,,128,0,13,,,,,5,,,49,100
34304,note_off,,,,,128,0,11,,,,,4,,,37,100
34336,note_off,,,,,64,0,7,,,,,0,,,73,100
34368,note_on,,,,,64,0,10,,,,,3,,,47,76
34368,note_on,,,,,64,0,13,,,,,5,,,47,100
34368,note_on,,,,,64,0,11,,,,,4,,,35,76
34368,note_on,,,,,32,0,7,,,,,0,,,75,80
34368,note_on,,,,,64,0,12,,,,,5,,,63,100
34368,note_on,,,,,0,0,12,,,,,5,,,66,100
34432,note_off,,,,,64,0,7,,,,,0,,,75,100
34464,note_on,,,,,32,0,7,,,,,0,,,73,81
34496,note_off,,,,,128,0,13,,,,,5,,,47,100
34496,note_off,,,,,128,0,11,,,,,4,,,35,100
34496,note_off,,,,,128,0,10,,,,,3,,,47,100
34496,note_off,,,,,128,0,12,,,,,5,,,63,100
34496,note_off,,,,,0,0,12,,,,,5,,,66,100
34528,note_off,,,,,64,0,7,,,,,0,,,73,100
34560,note_on,,,,,0,0,12,,,,,5,,,61,100
34560,note_on,,,,,64,0,11,,,,,4,,,34,76
34560,note_on,,,,,64,0,13,,,,,5,,,46,100
34560,note_on,,,,,64,0,12,,,,,5,,,66,100
34560,note_on,,,,,64,0,10,,,,,3,,,46,76
34560,note_on,,,,,32,0,7,,,,,0,,,78,81
34652,note_off,,,,,92,0,7,,,,,0,,,78,100
34656,note_on,,,,,4,0,7,,,,,0,,,73,82
34748,note_off,,,,,92,0,7,,,,,0,,,73,100
34752,note_on,,,,,4,0,7,,,,,0,,,75,83
34816,note_off,,,,,256,0,12,,,,,5,,,66,100
34816,note_off,,,,,256,0,13,,,,,5,,,46,100
34816,note_off,,,,,256,0,10,,,,,3,,,46,100
34816,note_off,,,,,0,0,12,,,,,5,,,61,100
34816,note_off,,,,,256,0,11,,,,,4,,,34,100
34816,note_off,,,,,64,0,7,,,,,0,,,75,100
34848,note_on,,,,,32,0,7,,,,,0,,,73,83
34912,note_off,,,,,64,0,7,,,,,0,,,73,100
34944,note_on,,,,,32,0,7,,,,,0,,,78,84
35036,note_off,,,,,92,0,7,,,,,0,,,78,100
35040,note_on,,,,,4,0,7,,,,,0,,,73,85
35132,note_off,,,,,92,0,7,,,,,0,,,73,100
35136,note_on,,,,,4,0,7,,,,,0,,,75,85
35136,note_on,,,,,320,0,13,,,,,5,,,54,100
35136,note_on,,,,,320,0,11,,,,,4,,,42,77
35136,note_on,,,,,320,0,10,,,,,3,,,54,77
35136,note_on,,,,,320,0,12,,,,,5,,,61,100
35136,note_on,,,,,0,0,12,,,,,5,,,70,100
35200,note_off,,,,,64,0,7,,,,,0,,,75,100
35232,note_on,,,,,32,0,7,,,,,0,,,73,86
35264,note_off,,,,,128,0,12,,,,,5,,,61,100
35264,note_off,,,,,0,0,12,,,,,5,,,70,100
35264,note_off,,,,,128,0,13,,,,,5,,,54,100
35264,note_off,,,,,128,0,11,,,,,4,,,42,100
35264,note_off,,,,,128,0,10,,,,,3,,,54,100
35296,note_off,,,,,64,0,7,,,,,0,,,73,100
35328,note_on,,,,,0,0,12,,,,,5,,,66,100
35328,note_on,,,,,64,0,11,,,,,4,,,34,78
35328,note_on,,,,,64,0,13,,,,,5,,,46,100
35328,note_on,,,,,64,0,12,,,,,5,,,61,100
35328,note_on,,,,,32,0,7,,,,,0,,,78,87
35328,note_on,,,,,64,0,10,,,,,3,,,46,78
35420,note_off,,,,,92,0,7,,,,,0,,,78,100
35424,note_on,,,,,4,0,7,,,,,0,,,73,87
35516,note_off,,,,,92,0,7,,,,,0,,,73,100
35520,note_on,,,,,4,0,7,,,,,0,,,75,88
35584,note_off,,,,,256,0,10,,,,,3,,,46,100
35584,note_off,,,,,64,0,7,,,,,0,,,75,100
35584,note_off,,,,,256,0,11,,,,,4,,,34,100
35584,note_off,,,,,0,0,12,,,,,5,,,66,100
35584,note_off,,,,,256,0,13,,,,,5,,,46,100
35584,note_off,,,,,256,0,12,,,,,5,,,61,100
35616,note_on,,,,,32,0,7,,,,,0,,,73,89
35680,note_off,,,,,64,0,7,,,,,0,,,73,100
35712,note_on,,,,,32,0,7,,,,,0,,,78,90
35804,note_off,,,,,92,0,7,,,,,0,,,78,100
35808,note_on,,,,,4,0,7,,,,,0,,,76,90
35900,note_off,,,,,92,0,7,,,,,0,,,76,100
35904,note_on,,,,,0,0,12,,,,,5,,,70,100
35904,note_on,,,,,320,0,12,,,,,5,,,61,100
35904,note_on,,,,,320,0,10,,,,,3,,,54,79
35904,note_on,,,,,320,0,11,,,,,4,,,42,79
35904,note_on,,,,,4,0,7,,,,,0,,,75,89
35904,note_on,,,,,320,0,13,,,,,5,,,54,100
35968,note_off,,,,,64,0,7,,,,,0,,,75,100
36000,note_on,,,,,32,0,7,,,,,0,,,73,88
36032,note_off,,,,,128,0,13,,,,,5,,,54,100
36032,note_off,,,,,128,0,11,,,,,4,,,42,100
36032,note_off,,,,,128,0,10,,,,,3,,,54,100
36032,note_off,,,,,128,0,12,,,,,5,,,61,100
36032,note_off,,,,,0,0,12,,,,,5,,,70,100
36064,note_off,,,,,64,0,7,,,,,0,,,73,100
36096,note_on,,,,,64,0,12,,,,,5,,,63,100
36096,note_on,,,,,64,0,11,,,,,4,,,35,79
36096,note_on,,,,,64,0,13,,,,,5,,,47,100
36096,note_on,,,,,32,0,7,,,,,0,,,76,87
36096,note_on,,,,,64,0,10,,,,,3,,,47,79
36096,note_on,,,,,0,0,12,,,,,5,,,66,100
36140,note_off,,,,,44,0,7,,,,,0,,,76,100
36144,note_on,,,,,4,0,7,,,,,0,,,75,87
36188,note_off,,,,,44,0,7,,,,,0,,,75,100
36192,note_on,,,,,4,0,7,,,,,0,,,76,87
36224,note_off,,,,,128,0,10,,,,,3,,,47,100
36224,note_off,,,,,128,0,13,,,,,5,,,47,100
36224,note_off,,,,,128,0,11,,,,,4,,,35,100
36224,note_off,,,,,0,0,12,,,,,5,,,66,100
36224,note_off,,,,,128,0,12,,,,,5,,,63,100
36236,note_off,,,,,44,0,7,,,,,0,,,76,100
36240,note_on,,,,,4,0,7,,,,,0,,,75,86
36284,note_off,,,,,44,0,7,,,,,0,,,75,100
36288,note_on,,,,,64,0,13,,,,,5,,,49,100
36288,note_on,,,,,4,0,7,,,,,0,,,76,86
36288,note_on,,,,,64,0,11,,,,,4,,,37,80
36288,note_on,,,,,64,0,10,,,,,3,,,49,80
36288,note_on,,,,,64,0,12,,,,,5,,,64,100
36332,note_off,,,,,44,0,7,,,,,0,,,76,100
36336,note_on,,,,,4,0,7,,,,,0,,,75,86
36416,note_off,,,,,128,0,10,,,,,3,,,49,100
36416,note_off,,,,,128,0,13,,,,,5,,,49,100
36416,note_off,,,,,128,0,12,,,,,5,,,64,100
36416,note_off,,,,,128,0,11,,,,,4,,,37,100
36432,note_off,,,,,96,0,7,,,,,0,,,75,100
36480,note_on,,,,,64,0,13,,,,,5,,,51,100
36480,note_on,,,,,64,0,10,,,,,3,,,51,80
36480,note_on,,,,,64,0,11,,,,,4,,,39,80
36480,note_on,,,,,64,0,12,,,,,5,,,66,100
36576,note_on,,,,,144,0,7,,,,,0,,,75,85
36608,note_off,,,,,128,0,12,,,,,5,,,66,100
36608,note_off,,,,,128,0,13,,,,,5,,,51,100
36608,note_off,,,,,128,0,11,,,,,4,,,39,100
36608,note_off,,,,,128,0,10,,,,,3,,,51,100
36640,note_off,,,,,64,0,7,,,,,0,,,75,100
36672,note_on,,,,,64,0,10,,,,,3,,,49,81
36672,note_on,,,,,32,0,7,,,,,0,,,76,85
36672,note_on,,,,,0,0,12,,,,,5,,,64,100
36672,note_on,,,,,64,0,13,,,,,5,,,49,100
36672,note_on,,,,,64,0,11,,,,,4,,,37,81
36672,note_on,,,,,64,0,12,,,,,5,,,68,100
36736,note_off,,,,,64,0,7,,,,,0,,,76,100
36768,note_on,,,,,32,0,7,,,,,0,,,75,86
36800,note_off,,,,,0,0,12,,,,,5,,,64,100
36800,note_off,,,,,128,0,11,,,,,4,,,37,100
36800,note_off,,,,,128,0,13,,,,,5,,,49,100
36800,note_off,,,,,128,0,12,,,,,5,,,68,100
36800,note_off,,,,,128,0,10,,,,,3,,,49,100
36832,note_off,,,,,64,0,7,,,,,0,,,75,100
36864,note_on,,,,,64,0,13,,,,,5,,,48,100
36864,note_on,,,,,64,0,10,,,,,3,,,48,81
36864,note_on,,,,,64,0,11,,,,,4,,,36,81
36864,note_on,,,,,64,0,12,,,,,5,,,68,100
36864,note_on,,,,,0,0,12,,,,,5,,,63,100
36864,note_on,,,,,32,0,7,,,,,0,,,80,87
36956,note_off,,,,,92,0,7,,,,,0,,,80,100
36960,note_on,,,,,4,0,7,,,,,0,,,75,87
37052,note_off,,,,,92,0,7,,,,,0,,,75,100
37056,note_on,,,,,4,0,7,,,,,0,,,76,88
37120,note_off,,,,,256,0,11,,,,,4,,,36,100
37120,note_off,,,,,256,0,10,,,,,3,,,48,100
37120,note_off,,,,,0,0,12,,,,,5,,,63,100
37120,note_off,,,,,256,0,12,,,,,5,,,68,100
37120,note_off,,,,,64,0,7,,,,,0,,,76,100
37120,note_off,,,,,256,0,13,,,,,5,,,48,100
37152,note_on,,,,,32,0,7,,,,,0,,,75,89
37216,note_off,,,,,64,0,7,,,,,0,,,75,100
37248,note_on,,,,,32,0,7,,,,,0,,,80,89
37340,note_off,,,,,92,0,7,,,,,0,,,80,100
37344,note_on,,,,,4,0,7,,,,,0,,,75,90
37436,note_off,,,,,92,0,7,,,,,0,,,75,100
37440,note_on,,,,,320,0,12,,,,,5,,,63,100
37440,note_on,,,,,0,0,12,,,,,5,,,72,100
37440,note_on,,,,,320,0,13,,,,,5,,,56,100
37440,note_on,,,,,4,0,7,,,,,0,,,76,91
37440,note_on,,,,,320,0,10,,,,,3,,,56,82
37440,note_on,,,,,320,0,11,,,,,4,,,44,82
37504,note_off,,,,,64,0,7,,,,,0,,,76,100
37536,note_on,,,,,32,0,7,,,,,0,,,75,92
37568,note_off,,,,,128,0,11,,,,,4,,,44,100
37568,note_off,,,,,128,0,12,,,,,5,,,63,100
37568,note_off,,,,,128,0,13,,,,,5,,,56,100
37568,note_off,,,,,0,0,12,,,,,5,,,72,100
37568,note_off,,,,,128,0,10,,,,,3,,,56,100
37600,note_off,,,,,64,0,7,,,,,0,,,75,100
37632,note_on,,,,,64,0,13,,,,,5,,,48,100
37632,note_on,,,,,32,0,7,,,,,0,,,80,92
37632,note_on,,,,,64,0,10,,,,,3,,,48,83
37632,note_on,,,,,64,0,12,,,,,5,,,63,100
37632,note_on,,,,,0,0,12,,,,,5,,,68,100
37632,note_on,,,,,64,0,11,,,,,4,,,36,83
37724,note_off,,,,,92,0,7,,,,,0,,,80,100
37728,note_on,,,,,4,0,7,,,,,0,,,75,93
37820,note_off,,,,,92,0,7,,,,,0,,,75,100
37824,note_on,,,,,4,0,7,,,,,0,,,76,94
37888,note_off,,,,,64,0,7,,,,,0,,,76,100
37888,note_off,,,,,256,0,10,,,,,3,,,48,100
37888,note_off,,,,,256,0,13,,,,,5,,,48,100
37888,note_off,,,,,256,0,12,,,,,5,,,63,100
37888,note_off,,,,,256,0,11,,,,,4,,,36,100
37888,note_off,,,,,0,0,12,,,,,5,,,68,100
37920,note_on,,,,,32,0,7,,,,,0,,,75,94
37984,note_off,,,,,64,0,7,,,,,0,,,75,100
38016,note_on,,,,,32,0,7,,,,,0,,,80,90
38108,note_off,,,,,92,0,7,,,,,0,,,80,100
38112,note_on,,,,,4,0,7,,,,,0,,,78,89
38204,note_off,,,,,92,0,7,,,,,0,,,78,100
38208,note_on,,,,,320,0,11,,,,,4,,,44,84
38208,note_on,,,,,320,0,13,,,,,5,,,56,100
38208,note_on,,,,,0,0,12,,,,,5,,,72,100
38208,note_on,,,,,320,0,12,,,,,5,,,63,100
38208,note_on,,,,,320,0,10,,,,,3,,,56,84
38208,note_on,,,,,4,0,7,,,,,0,,,76,88
38272,note_off,,,,,64,0,7,,,,,0,,,76,100
38304,note_on,,,,,32,0,7,,,,,0,,,75,87
38336,note_off,,,,,128,0,10,,,,,3,,,56,100
38336,note_off,,,,,0,0,12,,,,,5,,,72,100
38336,note_off,,,,,128,0,13,,,,,5,,,56,100
38336,note_off,,,,,128,0,12,,,,,5,,,63,100
38336,note_off,,,,,128,0,11,,,,,4,,,44,100
38368,note_off,,,,,64,0,7,,,,,0,,,75,100
38400,note_on,,,,,64,0,10,,,,,3,,,49,84
38400,note_on,,,,,64,0,13,,,,,5,,,49,100
38400,note_on,,,,,0,0,12,,,,,5,,,68,100
38400,note_on,,,,,64,0,11,,,,,4,,,37,84
38400,note_on,,,,,32,0,7,,,,,0,,,76,85
38400,note_on,,,,,64,0,12,,,,,5,,,64,100
38492,note_off,,,,,92,0,7,,,,,0,,,76,100
38496,note_on,,,,,4,0,7,,,,,0,,,73,85
38588,note_off,,,,,92,0,7,,,,,0,,,73,100
38592,note_on,,,,,4,0,7,,,,,0,,,72,85
38656,note_off,,,,,256,0,13,,,,,5,,,49,100
38656,note_off,,,,,256,0,10,,,,,3,,,49,100
38656,note_off,,,,,256,0,11,,,,,4,,,37,100
38656,note_off,,,,,0,0,12,,,,,5,,,68,100
38656,note_off,,,,,256,0,12,,,,,5,,,64,100
38684,note_off,,,,,92,0,7,,,,,0,,,72,100
38688,note_on,,,,,4,0,7,,,,,0,,,73,85
38752,note_off,,,,,64,0,7,,,,,0,,,73,100
38784,note_on,,,,,32,0,7,,,,,0,,,76,85
38876,note_off,,,,,92,0,7,,,,,0,,,76,100
38880,note_on,,,,,4,0,7,,,,,0,,,73,85
38972,note_off,,,,,92,0,7,,,,,0,,,73,100
38976,note_on,,,,,4,0,7,,,,,0,,,72,85
39068,note_off,,,,,92,0,7,,,,,0,,,72,100
39072,note_on,,,,,4,0,7,,,,,0,,,73,85
39136,note_off,,,,,64,0,7,,,,,0,,,73,100
39168,note_on,,,,,512,0,11,,,,,4,,,40,80
39168,note_on,,,,,512,0,13,,,,,5,,,52,100
39168,note_on,,,,,512,0,10,,,,,3,,,52,80
39168,note_on,,,,,0,0,12,,,,,5,,,68,100
39168,note_on,,,,,512,0,12,,,,,5,,,73,100
39168,note_on,,,,,32,0,7,,,,,0,,,68,85
39260,note_off,,,,,92,0,7,,,,,0,,,68,100
39264,note_on,,,,,4,0,7,,,,,0,,,73,85
39356,note_off,,,,,92,0,7,,,,,0,,,73,100
39360,note_on,,,,,4,0,7,,,,,0,,,72,85
39424,note_off,,,,,256,0,13,,,,,5,,,52,100
39424,note_off,,,,,0,0,12,,,,,5,,,68,100
39424,note_off,,,,,256,0,11,,,,,4,,,40,100
39424,note_off,,,,,256,0,12,,,,,5,,,73,100
39424,note_off,,,,,256,0,10,,,,,3,,,52,100
39452,note_off,,,,,92,0,7,,,,,0,,,72,100
39456,note_on,,,,,4,0,7,,,,,0,,,73,85
39520,note_off,,,,,64,0,7,,,,,0,,,73,100
39552,note_on,,,,,32,0,7,,,,,0,,,76,85
39644,note_off,,,,,92,0,7,,,,,0,,,76,100
39648,note_on,,,,,4,0,7,,,,,0,,,73,85
39740,note_off,,,,,92,0,7,,,,,0,,,73,100
39744,note_on,,,,,4,0,7,,,,,0,,,72,85
39836,note_off,,,,,92,0,7,,,,,0,,,72,100
39840,note_on,,,,,4,0,7,,,,,0,,,73,85
39904,note_off,,,,,64,0,7,,,,,0,,,73,100
39936,note_on,,,,,512,0,11,,,,,4,,,42,80
39936,note_on,,,,,512,0,10,,,,,3,,,54,80
39936,note_on,,,,,512,0,12,,,,,5,,,69,100
39936,note_on,,,,,32,0,7,,,,,0,,,69,85
39936,note_on,,,,,0,0,12,,,,,5,,,73,100
39936,note_on,,,,,512,0,13,,,,,5,,,54,100
40028,note_off,,,,,92,0,7,,,,,0,,,69,100
40032,note_on,,,,,4,0,7,,,,,0,,,73,85
40124,note_off,,,,,92,0,7,,,,,0,,,73,100
40128,note_on,,,,,4,0,7,,,,,0,,,72,85
40192,note_off,,,,,256,0,11,,,,,4,,,42,100
40192,note_off,,,,,256,0,12,,,,,5,,,69,100
40192,note_off,,,,,0,0,12,,,,,5,,,73,100
40192,note_off,,,,,256,0,10,,,,,3,,,54,100
40192,note_off,,,,,256,0,13,,,,,5,,,54,100
40220,note_off,,,,,92,0,7,,,,,0,,,72,100
40224,note_on,,,,,4,0,7,,,,,0,,,73,85
40288,note_off,,,,,64,0,7,,,,,0,,,73,100
40320,note_on,,,,,32,0,7,,,,,0,,,76,85
40412,note_off,,,,,92,0,7,,,,,0,,,76,100
40416,note_on,,,,,4,0,7,,,,,0,,,73,85
40508,note_off,,,,,92,0,7,,,,,0,,,73,100
40512,note_on,,,,,4,0,7,,,,,0,,,72,85
40604,note_off,,,,,92,0,7,,,,,0,,,72,100
40608,note_on,,,,,4,0,7,,,,,0,,,73,85
40672,note_off,,,,,64,0,7,,,,,0,,,73,100
40704,note_on,,,,,512,0,11,,,,,4,,,40,80
40704,note_on,,,,,512,0,12,,,,,5,,,73,100
40704,note_on,,,,,512,0,13,,,,,5,,,52,100
40704,note_on,,,,,32,0,7,,,,,0,,,68,85
40704,note_on,,,,,0,0,12,,,,,5,,,68,100
40704,note_on,,,,,512,0,10,,,,,3,,,52,80
40796,note_off,,,,,92,0,7,,,,,0,,,68,100
40800,note_on,,,,,4,0,7,,,,,0,,,73,85
40892,note_off,,,,,92,0,7,,,,,0,,,73,100
40896,note_on,,,,,4,0,7,,,,,0,,,72,85
40960,note_off,,,,,256,0,10,,,,,3,,,52,100
40960,note_off,,,,,256,0,13,,,,,5,,,52,100
40960,note_off,,,,,256,0,11,,,,,4,,,40,100
40960,note_off,,,,,256,0,12,,,,,5,,,73,100
40960,note_off,,,,,0,0,12,,,,,5,,,68,100
40988,note_off,,,,,92,0,7,,,,,0,,,72,100
40992,note_on,,,,,4,0,7,,,,,0,,,73,85
41056,note_off,,,,,64,0,7,,,,,0,,,73,100
41088,note_on,,,,,32,0,7,,,,,0,,,76,85
41180,note_off,,,,,92,0,7,,,,,0,,,76,100
41184,note_on,,,,,4,0,7,,,,,0,,,73,85
41276,note_off,,,,,92,0,7,,,,,0,,,73,100
41280,note_on,,,,,4,0,7,,,,,0,,,72,85
41372,note_off,,,,,92,0,7,,,,,0,,,72,100
41376,note_on,,,,,4,0,7,,,,,0,,,73,85
41440,note_off,,,,,64,0,7,,,,,0,,,73,100
41472,note_on,,,,,512,0,12,,,,,5,,,73,100
41472,note_on,,,,,0,0,12,,,,,5,,,66,100
41472,note_on,,,,,512,0,11,,,,,4,,,39,80
41472,note_on,,,,,512,0,10,,,,,3,,,51,80
41472,note_on,,,,,32,0,7,,,,,0,,,66,85
41472,note_on,,,,,512,0,13,,,,,5,,,51,100
41564,note_off,,,,,92,0,7,,,,,0,,,66,100
41568,note_on,,,,,4,0,7,,,,,0,,,73,85
41660,note_off,,,,,92,0,7,,,,,0,,,73,100
41664,note_on,,,,,4,0,7,,,,,0,,,72,85
41728,note_off,,,,,256,0,10,,,,,3,,,51,100
41728,note_off,,,,,256,0,13,,,,,5,,,51,100
41728,note_off,,,,,0,0,12,,,,,5,,,66,100
41728,note_off,,,,,256,0,11,,,,,4,,,39,100
41728,note_off,,,,,256,0,12,,,,,5,,,73,100
41756,note_off,,,,,92,0,7,,,,,0,,,72,100
41760,note_on,,,,,4,0,7,,,,,0,,,73,85
41824,note_off,,,,,64,0,7,,,,,0,,,73,100
41856,note_on,,,,,32,0,7,,,,,0,,,76,85
41856,note_on,,,,,128,0,12,,,,,5,,,73,100
41856,note_on,,,,,128,0,13,,,,,5,,,49,100
41856,note_on,,,,,128,0,10,,,,,3,,,49,78
41856,note_on,,,,,0,0,12,,,,,5,,,64,100
41856,note_on,,,,,128,0,11,,,,,4,,,37,78
41948,note_off,,,,,92,0,7,,,,,0,,,76,100
41952,note_on,,,,,4,0,7,,,,,0,,,73,85
42044,note_off,,,,,92,0,7,,,,,0,,,73,100
42048,note_on,,,,,4,0,7,,,,,0,,,72,85
42112,note_off,,,,,256,0,12,,,,,5,,,73,100
42112,note_off,,,,,256,0,10,,,,,3,,,49,100
42112,note_off,,,,,0,0,12,,,,,5,,,64,100
42112,note_off,,,,,256,0,11,,,,,4,,,37,100
42112,note_off,,,,,256,0,13,,,,,5,,,49,100
42140,note_off,,,,,92,0,7,,,,,0,,,72,100
42144,note_on,,,,,4,0,7,,,,,0,,,73,85
42208,note_off,,,,,64,0,7,,,,,0,,,73,100
42240,note_on,,,,,128,0,10,,,,,3,,,54,76
42240,note_on,,,,,128,0,12,,,,,5,,,74,100
42240,note_on,,,,,0,0,12,,,,,5,,,69,100
42240,note_on,,,,,128,0,13,,,,,5,,,54,100
42240,note_on,,,,,32,0,7,,,,,0,,,74,80
42240,note_on,,,,,128,0,11,,,,,4,,,42,76
42332,note_off,,,,,92,0,7,,,,,0,,,74,100
42336,note_on,,,,,4,0,7,,,,,0,,,73,81
42428,note_off,,,,,92,0,7,,,,,0,,,73,100
42432,note_on,,,,,4,0,7,,,,,0,,,74,82
42496,note_off,,,,,256,0,10,,,,,3,,,54,100
42496,note_off,,,,,256,0,11,,,,,4,,,42,100
42496,note_off,,,,,0,0,12,,,,,5,,,69,100
42496,note_off,,,,,256,0,13,,,,,5,,,54,100
42496,note_off,,,,,256,0,12,,,,,5,,,74,100
42524,note_off,,,,,92,0,7,,,,,0,,,74,100
42528,note_on,,,,,4,0,7,,,,,0,,,78,84
42592,note_off,,,,,64,0,7,,,,,0,,,78,100
42624,note_on,,,,,32,0,7,,,,,0,,,78,85
42716,note_off,,,,,92,0,7,,,,,0,,,78,100
42720,note_on,,,,,4,0,7,,,,,0,,,80,87
42812,note_off,,,,,92,0,7,,,,,0,,,80,100
42816,note_on,,,,,4,0,7,,,,,0,,,81,88
42908,note_off,,,,,92,0,7,,,,,0,,,81,100
42912,note_on,,,,,4,0,7,,,,,0,,,78,89
42976,note_off,,,,,64,0,7,,,,,0,,,78,100
43008,note_on,,,,,512,0,13,,,,,5,,,54,100
43008,note_on,,,,,512,0,10,,,,,3,,,54,70
43008,note_on,,,,,512,0,11,,,,,4,,,42,70
43008,note_on,,,,,512,0,12,,,,,5,,,74,100
43008,note_on,,,,,0,0,12,,,,,5,,,69,100
43008,note_on,,,,,32,0,7,,,,,0,,,74,85
43100,note_off,,,,,92,0,7,,,,,0,,,74,100
43104,note_on,,,,,4,0,7,,,,,0,,,73,86
43196,note_off,,,,,92,0,7,,,,,0,,,73,100
43200,note_on,,,,,4,0,7,,,,,0,,,74,87
43264,note_off,,,,,256,0,13,,,,,5,,,54,100
43264,note_off,,,,,256,0,12,,,,,5,,,74,100
43264,note_off,,,,,0,0,12,,,,,5,,,69,100
43264,note_off,,,,,256,0,10,,,,,3,,,54,100
43264,note_off,,,,,256,0,11,,,,,4,,,42,100
43292,note_off,,,,,92,0,7,,,,,0,,,74,100
43296,note_on,,,,,4,0,7,,,,,0,,,78,89
43360,note_off,,,,,64,0,7,,,,,0,,,78,100
43392,note_on,,,,,32,0,7,,,,,0,,,78,90
43484,note_off,,,,,92,0,7,,,,,0,,,78,100
43488,note_on,,,,,4,0,7,,,,,0,,,80,92
43580,note_off,,,,,92,0,7,,,,,0,,,80,100
43584,note_on,,,,,4,0,7,,,,,0,,,81,93
43676,note_off,,,,,92,0,7,,,,,0,,,81,100
43680,note_on,,,,,4,0,7,,,,,0,,,78,94
43744,note_off,,,,,64,0,7,,,,,0,,,78,100
43776,note_on,,,,,32,0,7,,,,,0,,,74,90
43776,note_on,,,,,512,0,13,,,,,5,,,54,100
43776,note_on,,,,,512,0,11,,,,,4,,,42,77
43776,note_on,,,,,512,0,12,,,,,5,,,69,100
43776,note_on,,,,,0,0,12,,,,,5,,,74,100
43776,note_on,,,,,512,0,10,,,,,3,,,54,77
43868,note_off,,,,,92,0,7,,,,,0,,,74,100
43872,note_on,,,,,4,0,7,,,,,0,,,73,91
43964,note_off,,,,,92,0,7,,,,,0,,,73,100
43968,note_on,,,,,4,0,7,,,,,0,,,74,92
44032,note_off,,,,,256,0,13,,,,,5,,,54,100
44032,note_off,,,,,256,0,10,,,,,3,,,54,100
44032,note_off,,,,,256,0,11,,,,,4,,,42,100
44032,note_off,,,,,256,0,12,,,,,5,,,69,100
44032,note_off,,,,,0,0,12,,,,,5,,,74,100
44060,note_off,,,,,92,0,7,,,,,0,,,74,100
44064,note_on,,,,,4,0,7,,,,,0,,,78,94
44128,note_off,,,,,64,0,7,,,,,0,,,78,100
44160,note_on,,,,,32,0,7,,,,,0,,,78,95
44252,note_off,,,,,92,0,7,,,,,0,,,78,100
44256,note_on,,,,,4,0,7,,,,,0,,,80,92
44348,note_off,,,,,92,0,7,,,,,0,,,80,100
44352,note_on,,,,,4,0,7,,,,,0,,,81,88
44444,note_off,,,,,92,0,7,,,,,0,,,81,100
44448,note_on,,,,,4,0,7,,,,,0,,,78,84
44512,note_off,,,,,64,0,7,,,,,0,,,78,100
44544,note_on,,,,,512,0,13,,,,,5,,,54,100
44544,note_on,,,,,0,0,12,,,,,5,,,69,100
44544,note_on,,,,,32,0,7,,,,,0,,,74,80
44544,note_on,,,,,512,0,10,,,,,3,,,54,84
44544,note_on,,,,,512,0,12,,,,,5,,,74,100
44544,note_on,,,,,512,0,11,,,,,4,,,42,84
44636,note_off,,,,,92,0,7,,,,,0,,,74,100
44640,note_on,,,,,4,0,7,,,,,0,,,73,80
44732,note_off,,,,,92,0,7,,,,,0,,,73,100
44736,note_on,,,,,4,0,7,,,,,0,,,74,81
44800,note_off,,,,,256,0,10,,,,,3,,,54,100
44800,note_off,,,,,256,0,11,,,,,4,,,42,100
44800,note_off,,,,,0,0,12,,,,,5,,,69,100
44800,note_off,,,,,256,0,12,,,,,5,,,74,100
44800,note_off,,,,,256,0,13,,,,,5,,,54,100
44828,note_off,,,,,92,0,7,,,,,0,,,74,100
44832,note_on,,,,,4,0,7,,,,,0,,,74,82
44896,note_off,,,,,64,0,7,,,,,0,,,74,100
44928,note_on,,,,,32,0,7,,,,,0,,,74,83
45020,note_off,,,,,92,0,7,,,,,0,,,74,100
45024,note_on,,,,,4,0,7,,,,,0,,,73,84
45116,note_off,,,,,92,0,7,,,,,0,,,73,100
45120,note_on,,,,,320,0,10,,,,,3,,,54,85
45120,note_on,,,,,0,0,12,,,,,5,,,75,100
45120,note_on,,,,,320,0,12,,,,,5,,,73,100
45120,note_on,,,,,320,0,13,,,,,5,,,54,100
45120,note_on,,,,,320,0,11,,,,,4,,,42,85
45120,note_on,,,,,4,0,7,,,,,0,,,72,85
45212,note_off,,,,,92,0,7,,,,,0,,,72,100
45216,note_on,,,,,4,0,7,,,,,0,,,73,86
45248,note_off,,,,,128,0,12,,,,,5,,,73,100
45248,note_off,,,,,128,0,10,,,,,3,,,54,100
45248,note_off,,,,,0,0,12,,,,,5,,,75,100
45248,note_off,,,,,128,0,11,,,,,4,,,42,100
45248,note_off,,,,,128,0,13,,,,,5,,,54,100
45280,note_off,,,,,64,0,7,,,,,0,,,73,100
45312,note_on,,,,,64,0,12,,,,,5,,,75,100
45312,note_on,,,,,64,0,11,,,,,4,,,44,87
45312,note_on,,,,,64,0,10,,,,,3,,,56,87
45312,note_on,,,,,32,0,7,,,,,0,,,72,87
45312,note_on,,,,,64,0,13,,,,,5,,,56,100
45312,note_on,,,,,0,0,12,,,,,5,,,72,100
45404,note_off,,,,,92,0,7,,,,,0,,,72,100
45408,note_on,,,,,4,0,7,,,,,0,,,73,88
45440,note_off,,,,,128,0,12,,,,,5,,,72,100
45440,note_off,,,,,128,0,13,,,,,5,,,56,100
45440,note_off,,,,,128,0,10,,,,,3,,,56,100
45440,note_off,,,,,128,0,11,,,,,4,,,44,100
45500,note_off,,,,,92,0,7,,,,,0,,,73,100
45504,note_on,,,,,64,0,10,,,,,3,,,54,89
45504,note_on,,,,,64,0,12,,,,,5,,,70,100
45504,note_on,,,,,64,0,13,,,,,5,,,54,100
45504,note_on,,,,,64,0,11,,,,,4,,,42,89
45504,note_on,,,,,4,0,7,,,,,0,,,75,89
45568,note_off,,,,,64,0,12,,,,,5,,,75,100
45596,note_off,,,,,92,0,7,,,,,0,,,75,100
45600,note_on,,,,,4,0,7,,,,,0,,,73,90
45632,note_off,,,,,128,0,11,,,,,4,,,42,100
45632,note_off,,,,,64,0,12,,,,,5,,,70,100
45632,note_off,,,,,128,0,10,,,,,3,,,54,100
45632,note_off,,,,,128,0,13,,,,,5,,,54,100
45664,note_off,,,,,64,0,7,,,,,0,,,73,100
45696,note_on,,,,,64,0,10,,,,,3,,,56,91
45696,note_on,,,,,32,0,7,,,,,0,,,72,91
45696,note_on,,,,,64,0,12,,,,,5,,,72,100
45696,note_on,,,,,0,0,12,,,,,5,,,75,100
45696,note_on,,,,,64,0,13,,,,,5,,,56,100
45696,note_on,,,,,64,0,11,,,,,4,,,44,91
45760,note_off,,,,,64,0,7,,,,,0,,,72,100
45792,note_on,,,,,32,0,7,,,,,0,,,70,92
45824,note_off,,,,,128,0,10,,,,,3,,,56,100
45824,note_off,,,,,128,0,12,,,,,5,,,72,100
45824,note_off,,,,,128,0,11,,,,,4,,,44,100
45824,note_off,,,,,0,0,12,,,,,5,,,75,100
45824,note_off,,,,,128,0,13,,,,,5,,,56,100
45856,note_off,,,,,64,0,7,,,,,0,,,70,100
45888,note_on,,,,,64,0,13,,,,,5,,,48,100
45888,note_on,,,,,32,0,7,,,,,0,,,68,93
45888,note_on,,,,,64,0,12,,,,,5,,,68,100
45888,note_on,,,,,0,0,12,,,,,5,,,66,100
45888,note_on,,,,,64,0,11,,,,,4,,,36,93
45888,note_on,,,,,64,0,10,,,,,3,,,48,93
45952,note_off,,,,,64,0,7,,,,,0,,,68,100
45984,note_on,,,,,32,0,7,,,,,0,,,66,94
46016,note_off,,,,,128,0,13,,,,,5,,,48,100
46016,note_off,,,,,0,0,12,,,,,5,,,66,100
46016,note_off,,,,,128,0,12,,,,,5,,,68,100
46016,note_off,,,,,128,0,10,,,,,3,,,48,100
46016,note_off,,,,,128,0,11,,,,,4,,,36,100
46048,note_off,,,,,64,0,7,,,,,0,,,66,100
46080,note_on,,,,,32,0,7,,,,,0,,,64,95
46080,note_on,,,,,64,0,10,,,,,3,,,49,96
46080,note_on,,,,,64,0,12,,,,,5,,,64,100
46080,note_on,,,,,0,0,12,,,,,5,,,68,100
46080,note_on,,,,,64,0,11,,,,,4,,,37,96
46080,note_on,,,,,64,0,13,,,,,5,,,49,100
46208,note_off,,,,,128,0,11,,,,,4,,,37,100
46208,note_off,,,,,128,0,13,,,,,5,,,49,100
46208,note_off,,,,,128,0,10,,,,,3,,,49,100
46208,note_off,,,,,128,0,7,,,,,0,,,64,100
46208,note_off,,,,,128,0,12,,,,,5,,,64,100
46208,note_off,,,,,0,0,12,,,,,5,,,68,100
46272,note_on,,,,,0,0,12,,,,,5,,,73,100
46272,note_on,,,,,64,0,10,,,,,3,,,52,98
46272,note_on,,,,,64,0,11,,,,,4,,,40,98
46272,note_on,,,,,64,0,12,,,,,5,,,68,100
46272,note_on,,,,,64,0,7,,,,,0,,,73,97
46272,note_on,,,,,64,0,13,,,,,5,,,52,100
46336,note_off,,,,,64,0,13,,,,,5,,,52,100
46336,note_off,,,,,64,0,11,,,,,4,,,40,100
46336,note_off,,,,,64,0,10,,,,,3,,,52,100
46364,note_off,,,,,92,0,12,,,,,5,,,68,100
46368,note_on,,,,,32,0,10,,,,,3,,,54,99
46368,note_on,,,,,32,0,11,,,,,4,,,42,99
46368,note_on,,,,,32,0,13,,,,,5,,,54,100
46368,note_on,,,,,4,0,12,,,,,5,,,69,100
46400,note_off,,,,,128,0,7,,,,,0,,,73,100
46400,note_off,,,,,32,0,12,,,,,5,,,73,100
46432,note_off,,,,,64,0,10,,,,,3,,,54,100
46432,note_off,,,,,64,0,13,,,,,5,,,54,100
46432,note_off,,,,,64,0,11,,,,,4,,,42,100
46432,note_off,,,,,32,0,12,,,,,5,,,69,100
46464,note_on,,,,,32,0,11,,,,,4,,,44,100
46464,note_on,,,,,32,0,12,,,,,5,,,75,100
46464,note_on,,,,,0,0,12,,,,,5,,,68,100
46464,note_on,,,,,32,0,10,,,,,3,,,56,100
46464,note_on,,,,,32,0,13,,,,,5,,,56,100
46464,note_on,,,,,0,0,12,,,,,5,,,73,100
46464,note_on,,,,,64,0,7,,,,,0,,,68,99
46592,note_off,,,,,128,0,11,,,,,4,,,44,100
46592,note_off,,,,,128,0,12,,,,,5,,,68,100
46592,note_off,,,,,128,0,13,,,,,5,,,56,100
46592,note_off,,,,,0,0,12,,,,,5,,,73,100
46592,note_off,,,,,128,0,10,,,,,3,,,56,100
46592,note_off,,,,,128,0,7,,,,,0,,,68,100
46656,note_on,,,,,64,0,10,,,,,3,,,44,102
46656,note_on,,,,,64,0,13,,,,,5,,,44,100
46656,note_on,,,,,64,0,12,,,,,5,,,72,100
46656,note_on,,,,,64,0,7,,,,,0,,,72,102
46656,note_on,,,,,64,0,11,,,,,4,,,32,102
46720,note_off,,,,,64,0,12,,,,,5,,,75,100
46784,note_off,,,,,128,0,7,,,,,0,,,72,100
46784,note_off,,,,,128,0,13,,,,,5,,,44,100
46784,note_off,,,,,128,0,10,,,,,3,,,44,100
46784,note_off,,,,,128,0,11,,,,,4,,,32,100
46784,note_off,,,,,64,0,12,,,,,5,,,72,100
46848,note_on,,,,,19712,0,9,,,,,2,,,64,100
46848,note_on,,,,,64,0,11,,,,,4,,,49,104
46848,note_on,,,,,64,0,10,,,,,3,,,61,104
46848,note_on,,,,,64,0,12,,,,,5,,,73,100
46848,note_on,,,,,64,0,13,,,,,5,,,61,100
46848,note_on,,,,,0,0,12,,,,,5,,,68,100
46848,note_on,,,,,19648,0,8,,,,,1,,,73,100
46848,note_on,,,,,64,0,7,,,,,0,,,73,104
46848,note_on,,,,,0,0,12,,,,,5,,,64,100
46976,note_off,,,,,128,0,9,,,,,2,,,64,100
46976,note_off,,,,,0,0,12,,,,,5,,,68,100
46976,note_off,,,,,0,0,12,,,,,5,,,64,100
46976,note_off,,,,,128,0,10,,,,,3,,,61,100
46976,note_off,,,,,128,0,13,,,,,5,,,61,100
46976,note_off,,,,,128,0,12,,,,,5,,,73,100
46976,note_off,,,,,128,0,11,,,,,4,,,49,100
47040,note_on,,,,,64,0,10,,,,,3,,,63,100
47040,note_on,,,,,64,0,11,,,,,4,,,51,100
47040,note_on,,,,,64,0,12,,,,,5,,,66,100
47040,note_on,,,,,64,0,9,,,,,2,,,66,100
47040,note_on,,,,,64,0,13,,,,,5,,,63,100
47104,note_off,,,,,256,0,8,,,,,1,,,73,100
47104,note_off,,,,,256,0,7,,,,,0,,,73,100
47168,note_off,,,,,128,0,10,,,,,3,,,63,100
47168,note_off,,,,,128,0,12,,,,,5,,,66,100
47168,note_off,,,,,128,0,9,,,,,2,,,66,100
47168,note_off,,,,,128,0,13,,,,,5,,,63,100
47168,note_off,,,,,128,0,11,,,,,4,,,51,100
47232,note_on,,,,,0,0,12,,,,,5,,,73,100
47232,note_on,,,,,64,0,13,,,,,5,,,64,100
47232,note_on,,,,,64,0,9,,,,,2,,,68,100
47232,note_on,,,,,64,0,10,,,,,3,,,64,100
47232,note_on,,,,,64,0,11,,,,,4,,,52,100
47232,note_on,,,,,64,0,12,,,,,5,,,68,100
47328,note_on,,,,,224,0,8,,,,,1,,,73,100
47360,note_off,,,,,128,0,10,,,,,3,,,64,100
47360,note_off,,,,,128,0,12,,,,,5,,,73,100
47360,note_off,,,,,128,0,13,,,,,5,,,64,100
47360,note_off,,,,,128,0,11,,,,,4,,,52,100
47360,note_off,,,,,128,0,9,,,,,2,,,68,100
47392,note_off,,,,,64,0,8,,,,,1,,,73,100
47424,note_on,,,,,64,0,12,,,,,5,,,66,100
47424,note_on,,,,,32,0,8,,,,,1,,,76,100
47424,note_on,,,,,64,0,11,,,,,4,,,49,100
47424,note_on,,,,,64,0,10,,,,,3,,,61,100
47424,note_on,,,,,64,0,9,,,,,2,,,64,100
47424,note_on,,,,,64,0,13,,,,,5,,,61,100
47488,note_off,,,,,64,0,12,,,,,5,,,68,100
47488,note_off,,,,,64,0,8,,,,,1,,,76,100
47520,note_on,,,,,32,0,8,,,,,1,,,78,100
47552,note_off,,,,,128,0,13,,,,,5,,,61,100
47552,note_off,,,,,128,0,9,,,,,2,,,64,100
47552,note_off,,,,,128,0,10,,,,,3,,,61,100
47552,note_off,,,,,128,0,11,,,,,4,,,49,100
47552,note_off,,,,,64,0,12,,,,,5,,,66,100
47584,note_off,,,,,64,0,8,,,,,1,,,78,100
47616,note_on,,,,,64,0,12,,,,,5,,,68,100
47616,note_on,,,,,0,0,12,,,,,5,,,63,100
47616,note_on,,,,,64,0,9,,,,,2,,,75,100
47616,note_on,,,,,32,0,8,,,,,1,,,80,100
47616,note_on,,,,,64,0,11,,,,,4,,,48,100
47616,note_on,,,,,64,0,10,,,,,3,,,60,100
47616,note_on,,,,,64,0,13,,,,,5,,,60,100
47744,note_off,,,,,128,0,13,,,,,5,,,60,100
47744,note_off,,,,,128,0,8,,,,,1,,,80,100
47744,note_off,,,,,128,0,9,,,,,2,,,75,100
47744,note_off,,,,,128,0,10,,,,,3,,,60,100
47744,note_off,,,,,128,0,12,,,,,5,,,63,100
47744,note_off,,,,,128,0,11,,,,,4,,,48,100
47808,note_on,,,,,64,0,9,,,,,2,,,73,100
47808,note_on,,,,,64,0,11,,,,,4,,,46,100
47808,note_on,,,,,64,0,8,,,,,1,,,80,98
47808,note_on,,,,,64,0,12,,,,,5,,,61,100
47808,note_on,,,,,64,0,13,,,,,5,,,58,100
47808,note_on,,,,,64,0,10,,,,,3,,,58,100
47872,note_off,,,,,64,0,12,,,,,5,,,68,100
47936,note_off,,,,,64,0,12,,,,,5,,,61,100
47936,note_off,,,,,128,0,9,,,,,2,,,73,100
47936,note_off,,,,,128,0,8,,,,,1,,,80,100
47936,note_off,,,,,128,0,13,,,,,5,,,58,100
47936,note_off,,,,,128,0,10,,,,,3,,,58,100
47936,note_off,,,,,128,0,11,,,,,4,,,46,100
48000,note_on,,,,,64,0,12,,,,,5,,,63,100
48000,note_on,,,,,64,0,8,,,,,1,,,80,95
48000,note_on,,,,,64,0,13,,,,,5,,,60,100
48000,note_on,,,,,64,0,11,,,,,4,,,48,100
48000,note_on,,,,,0,0,12,,,,,5,,,68,100
48000,note_on,,,,,64,0,10,,,,,3,,,60,100
48000,note_on,,,,,64,0,9,,,,,2,,,75,100
48128,note_off,,,,,128,0,12,,,,,5,,,63,100
48128,note_off,,,,,128,0,13,,,,,5,,,60,100
48128,note_off,,,,,128,0,11,,,,,4,,,48,100
48128,note_off,,,,,128,0,10,,,,,3,,,60,100
48128,note_off,,,,,128,0,9,,,,,2,,,75,100
48128,note_off,,,,,128,0,8,,,,,1,,,80,100
48192,note_on,,,,,64,0,10,,,,,3,,,56,100
48192,note_on,,,,,64,0,12,,,,,5,,,60,100
48192,note_on,,,,,0,0,12,,,,,5,,,63,100
48192,note_on,,,,,64,0,13,,,,,5,,,56,100
48192,note_on,,,,,64,0,9,,,,,2,,,72,100
48192,note_on,,,,,64,0,8,,,,,1,,,80,92
48192,note_on,,,,,64,0,11,,,,,4,,,44,100
48256,note_off,,,,,64,0,12,,,,,5,,,68,100
48320,note_off,,,,,0,0,12,,,,,5,,,63,100
48320,note_off,,,,,128,0,8,,,,,1,,,80,100
48320,note_off,,,,,64,0,12,,,,,5,,,60,100
48320,note_off,,,,,128,0,11,,,,,4,,,44,100
48320,note_off,,,,,128,0,10,,,,,3,,,56,100
48320,note_off,,,,,128,0,13,,,,,5,,,56,100
48320,note_off,,,,,128,0,9,,,,,2,,,72,100
48384,note_on,,,,,64,0,9,,,,,2,,,68,70
48384,note_on,,,,,64,0,13,,,,,5,,,61,100
48384,note_on,,,,,64,0,11,,,,,4,,,49,70
48384,note_on,,,,,64,0,12,,,,,5,,,68,100
48384,note_on,,,,,0,0,12,,,,,5,,,64,100
48384,note_on,,,,,64,0,10,,,,,3,,,61,70
48384,note_on,,,,,64,0,8,,,,,1,,,76,89
48512,note_off,,,,,128,0,12,,,,,5,,,68,100
48512,note_off,,,,,128,0,9,,,,,2,,,68,100
48512,note_off,,,,,128,0,11,,,,,4,,,49,100
48512,note_off,,,,,128,0,10,,,,,3,,,61,100
48512,note_off,,,,,128,0,13,,,,,5,,,61,100
48512,note_off,,,,,128,0,8,,,,,1,,,76,100
48512,note_off,,,,,0,0,12,,,,,5,,,64,100
48576,note_on,,,,,64,0,12,,,,,5,,,66,100
48576,note_on,,,,,64,0,10,,,,,3,,,63,70
48576,note_on,,,,,64,0,13,,,,,5,,,63,100
48576,note_on,,,,,64,0,11,,,,,4,,,51,70
48576,note_on,,,,,64,0,8,,,,,1,,,73,86
48576,note_on,,,,,64,0,9,,,,,2,,,66,70
48704,note_off,,,,,128,0,10,,,,,3,,,63,100
48704,note_off,,,,,128,0,13,,,,,5,,,63,100
48704,note_off,,,,,128,0,8,,,,,1,,,73,100
48704,note_off,,,,,128,0,9,,,,,2,,,66,100
48704,note_off,,,,,128,0,12,,,,,5,,,66,100
48704,note_off,,,,,128,0,11,,,,,4,,,51,100
48768,note_on,,,,,64,0,9,,,,,2,,,68,70
48768,note_on,,,,,0,0,12,,,,,5,,,73,100
48768,note_on,,,,,64,0,10,,,,,3,,,64,70
48768,note_on,,,,,64,0,12,,,,,5,,,68,100
48768,note_on,,,,,64,0,13,,,,,5,,,64,100
48768,note_on,,,,,64,0,11,,,,,4,,,52,70
48864,note_on,,,,,160,0,8,,,,,1,,,73,70
48896,note_off,,,,,128,0,13,,,,,5,,,64,100
48896,note_off,,,,,128,0,11,,,,,4,,,52,100
48896,note_off,,,,,128,0,12,,,,,5,,,73,100
48896,note_off,,,,,128,0,9,,,,,2,,,68,100
48896,note_off,,,,,128,0,10,,,,,3,,,64,100
48928,note_off,,,,,64,0,8,,,,,1,,,73,100
48960,note_on,,,,,64,0,9,,,,,2,,,64,70
48960,note_on,,,,,64,0,12,,,,,5,,,66,100
48960,note_on,,,,,32,0,8,,,,,1,,,76,70
48960,note_on,,,,,64,0,11,,,,,4,,,49,70
48960,note_on,,,,,64,0,10,,,,,3,,,61,70
48960,note_on,,,,,64,0,13,,,,,5,,,61,100
49024,note_off,,,,,64,0,12,,,,,5,,,68,100
49024,note_off,,,,,64,0,8,,,,,1,,,76,100
49056,note_on,,,,,32,0,8,,,,,1,,,78,70
49088,note_off,,,,,128,0,9,,,,,2,,,64,100
49088,note_off,,,,,128,0,11,,,,,4,,,49,100
49088,note_off,,,,,64,0,12,,,,,5,,,66,100
49088,note_off,,,,,128,0,10,,,,,3,,,61,100
49088,note_off,,,,,128,0,13,,,,,5,,,61,100
49120,note_off,,,,,64,0,8,,,,,1,,,78,100
49152,note_on,,,,,64,0,12,,,,,5,,,68,100
49152,note_on,,,,,64,0,9,,,,,2,,,75,70
49152,note_on,,,,,64,0,10,,,,,3,,,60,70
49152,note_on,,,,,0,0,12,,,,,5,,,63,100
49152,note_on,,,,,64,0,11,,,,,4,,,48,70
49152,note_on,,,,,64,0,13,,,,,5,,,60,100
49152,note_on,,,,,32,0,8,,,,,1,,,80,70
49280,note_off,,,,,128,0,9,,,,,2,,,75,100
49280,note_off,,,,,128,0,11,,,,,4,,,48,100
49280,note_off,,,,,128,0,8,,,,,1,,,80,100
49280,note_off,,,,,128,0,10,,,,,3,,,60,100
49280,note_off,,,,,128,0,12,,,,,5,,,63,100
49280,note_off,,,,,128,0,13,,,,,5,,,60,100
49344,note_on,,,,,64,0,10,,,,,3,,,58,70
49344,note_on,,,,,64,0,11,,,,,4,,,46,70
49344,note_on,,,,,64,0,12,,,,,5,,,61,100
49344,note_on,,,,,64,0,8,,,,,1,,,80,70
49344,note_on,,,,,64,0,9,,,,,2,,,73,70
49344,note_on,,,,,64,0,13,,,,,5,,,58,100
49408,note_off,,,,,64,0,12,,,,,5,,,68,100
49472,note_off,,,,,128,0,8,,,,,1,,,80,100
49472,note_off,,,,,128,0,10,,,,,3,,,58,100
49472,note_off,,,,,128,0,11,,,,,4,,,46,100
49472,note_off,,,,,64,0,12,,,,,5,,,61,100
49472,note_off,,,,,128,0,13,,,,,5,,,58,100
49472,note_off,,,,,128,0,9,,,,,2,,,73,100
49536,note_on,,,,,64,0,13,,,,,5,,,60,100
49536,note_on,,,,,64,0,11,,,,,4,,,48,70
49536,note_on,,,,,64,0,9,,,,,2,,,75,70
49536,note_on,,,,,64,0,12,,,,,5,,,63,100
49536,note_on,,,,,0,0,12,,,,,5,,,68,100
49536,note_on,,,,,64,0,8,,,,,1,,,80,70
49536,note_on,,,,,64,0,10,,,,,3,,,60,70
49664,note_off,,,,,128,0,11,,,,,4,,,48,100
49664,note_off,,,,,128,0,8,,,,,1,,,80,100
49664,note_off,,,,,128,0,12,,,,,5,,,63,100
49664,note_off,,,,,128,0,10,,,,,3,,,60,100
49664,note_off,,,,,128,0,9,,,,,2,,,75,100
49664,note_off,,,,,128,0,13,,,,,5,,,60,100
49728,note_on,,,,,0,0,12,,,,,5,,,63,100
49728,note_on,,,,,64,0,8,,,,,1,,,80,70
49728,note_on,,,,,64,0,9,,,,,2,,,72,70
49728,note_on,,,,,64,0,12,,,,,5,,,60,100
49728,note_on,,,,,64,0,10,,,,,3,,,56,70
49728,note_on,,,,,64,0,13,,,,,5,,,56,100
49728,note_on,,,,,64,0,11,,,,,4,,,44,70
49792,note_off,,,,,64,0,12,,,,,5,,,68,100
49856,note_off,,,,,0,0,12,,,,,5,,,63,100
49856,note_off,,,,,128,0,11,,,,,4,,,44,100
49856,note_off,,,,,128,0,13,,,,,5,,,56,100
49856,note_off,,,,,128,0,9,,,,,2,,,72,100
49856,note_off,,,,,64,0,12,,,,,5,,,60,100
49856,note_off,,,,,128,0,10,,,,,3,,,56,100
49856,note_off,,,,,128,0,8,,,,,1,,,80,100
49920,note_on,,,,,64,0,11,,,,,4,,,49,70
49920,note_on,,,,,64,0,8,,,,,1,,,76,70
49920,note_on,,,,,64,0,9,,,,,2,,,68,70
49920,note_on,,,,,0,0,12,,,,,5,,,68,100
49920,note_on,,,,,64,0,12,,,,,5,,,64,100
49920,note_on,,,,,64,0,10,,,,,3,,,61,70
49920,note_on,,,,,64,0,13,,,,,5,,,61,100
50048,note_off,,,,,128,0,8,,,,,1,,,76,100
50048,note_off,,,,,128,0,10,,,,,3,,,61,100
50048,note_off,,,,,128,0,13,,,,,5,,,61,100
50048,note_off,,,,,128,0,9,,,,,2,,,68,100
50048,note_off,,,,,128,0,11,,,,,4,,,49,100
50112,note_on,,,,,64,0,8,,,,,1,,,73,77
50112,note_on,,,,,64,0,10,,,,,3,,,63,77
50112,note_on,,,,,64,0,9,,,,,2,,,66,77
50112,note_on,,,,,64,0,11,,,,,4,,,51,77
50112,note_on,,,,,64,0,13,,,,,5,,,63,100
50176,note_off,,,,,0,0,12,,,,,5,,,68,100
50176,note_off,,,,,256,0,12,,,,,5,,,64,100
50240,note_off,,,,,128,0,10,,,,,3,,,63,100
50240,note_off,,,,,128,0,9,,,,,2,,,66,100
50240,note_off,,,,,128,0,13,,,,,5,,,63,100
50240,note_off,,,,,128,0,11,,,,,4,,,51,100
50240,note_off,,,,,128,0,8,,,,,1,,,73,100
50304,note_on,,,,,64,0,9,,,,,2,,,68,84
50304,note_on,,,,,64,0,13,,,,,5,,,64,100
50304,note_on,,,,,64,0,11,,,,,4,,,52,84
50304,note_on,,,,,64,0,10,,,,,3,,,64,84
50304,note_on,,,,,128,0,12,,,,,5,,,68,100
50348,note_off,,,,,44,0,12,,,,,5,,,68,100
50352,note_on,,,,,4,0,12,,,,,5,,,66,100
50396,note_off,,,,,44,0,12,,,,,5,,,66,100
50400,note_on,,,,,4,0,12,,,,,5,,,68,100
50432,note_off,,,,,128,0,9,,,,,2,,,68,100
50432,note_off,,,,,128,0,11,,,,,4,,,52,100
50432,note_off,,,,,128,0,13,,,,,5,,,64,100
50432,note_off,,,,,128,0,10,,,,,3,,,64,100
50444,note_off,,,,,44,0,12,,,,,5,,,68,100
50448,note_on,,,,,4,0,12,,,,,5,,,69,100
50492,note_off,,,,,44,0,12,,,,,5,,,69,100
50496,note_on,,,,,4,0,12,,,,,5,,,71,100
50496,note_on,,,,,64,0,13,,,,,5,,,57,100
50496,note_on,,,,,64,0,10,,,,,3,,,57,92
50496,note_on,,,,,64,0,9,,,,,2,,,73,92
50496,note_on,,,,,64,0,11,,,,,4,,,45,92
50624,note_off,,,,,128,0,10,,,,,3,,,57,100
50624,note_off,,,,,128,0,13,,,,,5,,,57,100
50624,note_off,,,,,128,0,12,,,,,5,,,71,100
50624,note_off,,,,,128,0,9,,,,,2,,,73,100
50624,note_off,,,,,128,0,11,,,,,4,,,45,100
50688,note_on,,,,,448,0,8,,,,,1,,,76,99
50688,note_on,,,,,64,0,9,,,,,2,,,71,99
50688,note_on,,,,,64,0,10,,,,,3,,,56,99
50688,note_on,,,,,0,0,12,,,,,5,,,68,100
50688,note_on,,,,,64,0,11,,,,,4,,,44,99
50688,note_on,,,,,64,0,12,,,,,5,,,71,100
50688,note_on,,,,,64,0,13,,,,,5,,,56,100
50816,note_off,,,,,128,0,9,,,,,2,,,71,100
50816,note_off,,,,,128,0,11,,,,,4,,,44,100
50816,note_off,,,,,128,0,10,,,,,3,,,56,100
50816,note_off,,,,,128,0,12,,,,,5,,,68,100
50816,note_off,,,,,128,0,13,,,,,5,,,56,100
50880,note_on,,,,,64,0,10,,,,,3,,,54,100
50880,note_on,,,,,64,0,9,,,,,2,,,69,100
50880,note_on,,,,,64,0,13,,,,,5,,,54,100
50880,note_on,,,,,64,0,12,,,,,5,,,69,100
50880,note_on,,,,,64,0,11,,,,,4,,,42,100
50944,note_off,,,,,64,0,12,,,,,5,,,71,100
50944,note_off,,,,,256,0,8,,,,,1,,,76,100
51008,note_off,,,,,128,0,11,,,,,4,,,42,100
51008,note_off,,,,,128,0,13,,,,,5,,,54,100
51008,note_off,,,,,128,0,9,,,,,2,,,69,100
51008,note_off,,,,,64,0,12,,,,,5,,,69,100
51008,note_off,,,,,128,0,10,,,,,3,,,54,100
51072,note_on,,,,,64,0,13,,,,,5,,,56,100
51072,note_on,,,,,0,0,12,,,,,5,,,64,100
51072,note_on,,,,,64,0,11,,,,,4,,,44,100
51072,note_on,,,,,64,0,12,,,,,5,,,71,100
51072,note_on,,,,,0,0,12,,,,,5,,,76,100
51072,note_on,,,,,64,0,9,,,,,2,,,71,100
51072,note_on,,,,,64,0,10,,,,,3,,,56,100
51168,note_on,,,,,224,0,8,,,,,1,,,76,100
51200,note_off,,,,,128,0,12,,,,,5,,,64,100
51200,note_off,,,,,128,0,10,,,,,3,,,56,100
51200,note_off,,,,,0,0,12,,,,,5,,,76,100
51200,note_off,,,,,128,0,11,,,,,4,,,44,100
51200,note_off,,,,,128,0,13,,,,,5,,,56,100
51200,note_off,,,,,128,0,9,,,,,2,,,71,100
51232,note_off,,,,,64,0,8,,,,,1,,,76,100
51264,note_on,,,,,0,0,12,,,,,5,,,68,100
51264,note_on,,,,,64,0,11,,,,,4,,,40,100
51264,note_on,,,,,64,0,13,,,,,5,,,52,100
51264,note_on,,,,,32,0,8,,,,,1,,,80,100
51264,note_on,,,,,64,0,10,,,,,3,,,52,100
51264,note_on,,,,,64,0,12,,,,,5,,,64,100
51264,note_on,,,,,64,0,9,,,,,2,,,68,100
51328,note_off,,,,,64,0,12,,,,,5,,,71,100
51328,note_off,,,,,64,0,8,,,,,1,,,80,100
51360,note_on,,,,,32,0,8,,,,,1,,,81,100
51392,note_off,,,,,128,0,13,,,,,5,,,52,100
51392,note_off,,,,,128,0,10,,,,,3,,,52,100
51392,note_off,,,,,128,0,11,,,,,4,,,40,100
51392,note_off,,,,,64,0,12,,,,,5,,,64,100
51392,note_off,,,,,0,0,12,,,,,5,,,68,100
51392,note_off,,,,,128,0,9,,,,,2,,,68,100
51424,note_off,,,,,64,0,8,,,,,1,,,81,100
51456,note_on,,,,,32,0,8,,,,,1,,,83,100
51456,note_on,,,,,64,0,13,,,,,5,,,51,100
51456,note_on,,,,,64,0,11,,,,,4,,,39,100
51456,note_on,,,,,0,0,12,,,,,5,,,66,100
51456,note_on,,,,,64,0,9,,,,,2,,,66,100
51456,note_on,,,,,0,0,12,,,,,5,,,63,100
51456,note_on,,,,,64,0,10,,,,,3,,,51,100
51456,note_on,,,,,64,0,12,,,,,5,,,71,100
51584,note_off,,,,,128,0,13,,,,,5,,,51,100
51584,note_off,,,,,128,0,9,,,,,2,,,66,100
51584,note_off,,,,,128,0,11,,,,,4,,,39,100
51584,note_off,,,,,0,0,12,,,,,5,,,66,100
51584,note_off,,,,,128,0,12,,,,,5,,,63,100
51584,note_off,,,,,128,0,10,,,,,3,,,51,100
51584,note_off,,,,,128,0,8,,,,,1,,,83,100
51648,note_on,,,,,64,0,12,,,,,5,,,64,100
51648,note_on,,,,,64,0,10,,,,,3,,,49,100
51648,note_on,,,,,64,0,13,,,,,5,,,49,100
51648,note_on,,,,,64,0,11,,,,,4,,,37,100
51648,note_on,,,,,64,0,8,,,,,1,,,83,98
51648,note_on,,,,,64,0,9,,,,,2,,,64,100
51712,note_off,,,,,64,0,12,,,,,5,,,71,100
51776,note_off,,,,,128,0,10,,,,,3,,,49,100
51776,note_off,,,,,128,0,8,,,,,1,,,83,100
51776,note_off,,,,,128,0,9,,,,,2,,,64,100
51776,note_off,,,,,128,0,13,,,,,5,,,49,100
51776,note_off,,,,,64,0,12,,,,,5,,,64,100
51776,note_off,,,,,128,0,11,,,,,4,,,37,100
51840,note_on,,,,,64,0,13,,,,,5,,,51,100
51840,note_on,,,,,64,0,9,,,,,2,,,66,100
51840,note_on,,,,,0,0,12,,,,,5,,,71,100
51840,note_on,,,,,64,0,12,,,,,5,,,66,100
51840,note_on,,,,,64,0,8,,,,,1,,,83,95
51840,note_on,,,,,64,0,10,,,,,3,,,51,100
51840,note_on,,,,,64,0,11,,,,,4,,,39,100
51968,note_off,,,,,128,0,10,,,,,3,,,51,100
51968,note_off,,,,,128,0,8,,,,,1,,,83,100
51968,note_off,,,,,128,0,12,,,,,5,,,66,100
51968,note_off,,,,,128,0,9,,,,,2,,,66,100
51968,note_off,,,,,128,0,13,,,,,5,,,51,100
51968,note_off,,,,,128,0,11,,,,,4,,,39,100
52032,note_on,,,,,64,0,13,,,,,5,,,47,100
52032,note_on,,,,,64,0,10,,,,,3,,,47,100
52032,note_on,,,,,64,0,8,,,,,1,,,83,92
52032,note_on,,,,,64,0,9,,,,,2,,,63,100
52032,note_on,,,,,0,0,12,,,,,5,,,66,100
52032,note_on,,,,,64,0,12,,,,,5,,,63,100
52032,note_on,,,,,64,0,11,,,,,4,,,35,100
52096,note_off,,,,,64,0,12,,,,,5,,,71,100
52160,note_off,,,,,128,0,8,,,,,1,,,83,100
52160,note_off,,,,,0,0,12,,,,,5,,,66,100
52160,note_off,,,,,64,0,12,,,,,5,,,63,100
52160,note_off,,,,,128,0,10,,,,,3,,,47,100
52160,note_off,,,,,128,0,11,,,,,4,,,35,100
52160,note_off,,,,,128,0,9,,,,,2,,,63,100
52160,note_off,,,,,128,0,13,,,,,5,,,47,100
52224,note_on,,,,,64,0,10,,,,,3,,,52,70
52224,note_on,,,,,64,0,9,,,,,2,,,59,70
52224,note_on,,,,,64,0,11,,,,,4,,,40,70
52224,note_on,,,,,0,0,12,,,,,5,,,68,100
52224,note_on,,,,,64,0,12,,,,,5,,,64,100
52224,note_on,,,,,0,0,12,,,,,5,,,71,100
52224,note_on,,,,,64,0,8,,,,,1,,,80,89
52224,note_on,,,,,64,0,13,,,,,5,,,52,100
52352,note_off,,,,,0,0,12,,,,,5,,,68,100
52352,note_off,,,,,128,0,12,,,,,5,,,64,100
52352,note_off,,,,,128,0,10,,,,,3,,,52,100
52352,note_off,,,,,128,0,11,,,,,4,,,40,100
52352,note_off,,,,,128,0,13,,,,,5,,,52,100
52352,note_off,,,,,128,0,9,,,,,2,,,59,100
52352,note_off,,,,,128,0,8,,,,,1,,,80,100
52416,note_on,,,,,64,0,8,,,,,1,,,76,86
52416,note_on,,,,,64,0,9,,,,,2,,,69,70
52416,note_on,,,,,64,0,10,,,,,3,,,54,70
52416,note_on,,,,,64,0,12,,,,,5,,,69,100
52416,note_on,,,,,64,0,13,,,,,5,,,54,100
52416,note_on,,,,,64,0,11,,,,,4,,,42,70
52480,note_off,,,,,64,0,12,,,,,5,,,71,100
52544,note_off,,,,,64,0,12,,,,,5,,,69,100
52544,note_off,,,,,128,0,11,,,,,4,,,42,100
52544,note_off,,,,,128,0,9,,,,,2,,,69,100
52544,note_off,,,,,128,0,8,,,,,1,,,76,100
52544,note_off,,,,,128,0,10,,,,,3,,,54,100
52544,note_off,,,,,128,0,13,,,,,5,,,54,100
52608,note_on,,,,,64,0,12,,,,,5,,,71,100
52608,note_on,,,,,64,0,11,,,,,4,,,44,70
52608,note_on,,,,,64,0,9,,,,,2,,,71,70
52608,note_on,,,,,0,0,12,,,,,5,,,64,100
52608,note_on,,,,,64,0,13,,,,,5,,,56,100
52608,note_on,,,,,0,0,12,,,,,5,,,76,100
52608,note_on,,,,,64,0,10,,,,,3,,,56,70
52704,note_on,,,,,160,0,8,,,,,1,,,76,70
52736,note_off,,,,,0,0,12,,,,,5,,,76,100
52736,note_off,,,,,128,0,10,,,,,3,,,56,100
52736,note_off,,,,,128,0,9,,,,,2,,,71,100
52736,note_off,,,,,128,0,11,,,,,4,,,44,100
52736,note_off,,,,,128,0,12,,,,,5,,,64,100
52736,note_off,,,,,128,0,13,,,,,5,,,56,100
52768,note_off,,,,,64,0,8,,,,,1,,,76,100
52800,note_on,,,,,0,0,12,,,,,5,,,68,100
52800,note_on,,,,,64,0,10,,,,,3,,,52,70
52800,note_on,,,,,64,0,13,,,,,5,,,52,100
52800,note_on,,,,,64,0,9,,,,,2,,,68,70
52800,note_on,,,,,64,0,12,,,,,5,,,64,100
52800,note_on,,,,,32,0,8,,,,,1,,,80,70
52800,note_on,,,,,64,0,11,,,,,4,,,40,70
52864,note_off,,,,,64,0,12,,,,,5,,,71,100
52864,note_off,,,,,64,0,8,,,,,1,,,80,100
52896,note_on,,,,,32,0,8,,,,,1,,,81,70
52928,note_off,,,,,128,0,11,,,,,4,,,40,100
52928,note_off,,,,,128,0,9,,,,,2,,,68,100
52928,note_off,,,,,128,0,10,,,,,3,,,52,100
52928,note_off,,,,,64,0,12,,,,,5,,,64,100
52928,note_off,,,,,0,0,12,,,,,5,,,68,100
52928,note_off,,,,,128,0,13,,,,,5,,,52,100
52960,note_off,,,,,64,0,8,,,,,1,,,81,100
52992,note_on,,,,,0,0,12,,,,,5,,,66,100
52992,note_on,,,,,64,0,12,,,,,5,,,71,100
52992,note_on,,,,,0,0,12,,,,,5,,,63,100
52992,note_on,,,,,32,0,8,,,,,1,,,83,70
52992,note_on,,,,,64,0,9,,,,,2,,,66,70
52992,note_on,,,,,64,0,10,,,,,3,,,51,70
52992,note_on,,,,,64,0,13,,,,,5,,,51,100
52992,note_on,,,,,64,0,11,,,,,4,,,39,70
53120,note_off,,,,,0,0,12,,,,,5,,,66,100
53120,note_off,,,,,128,0,10,,,,,3,,,51,100
53120,note_off,,,,,128,0,12,,,,,5,,,63,100
53120,note_off,,,,,128,0,13,,,,,5,,,51,100
53120,note_off,,,,,128,0,8,,,,,1,,,83,100
53120,note_off,,,,,128,0,9,,,,,2,,,66,100
53120,note_off,,,,,128,0,11,,,,,4,,,39,100
53184,note_on,,,,,64,0,11,,,,,4,,,37,70
53184,note_on,,,,,64,0,13,,,,,5,,,49,100
53184,note_on,,,,,64,0,9,,,,,2,,,64,70
53184,note_on,,,,,64,0,10,,,,,3,,,49,70
53184,note_on,,,,,64,0,12,,,,,5,,,64,100
53184,note_on,,,,,64,0,8,,,,,1,,,83,70
53248,note_off,,,,,64,0,12,,,,,5,,,71,100
53312,note_off,,,,,128,0,13,,,,,5,,,49,100
53312,note_off,,,,,128,0,9,,,,,2,,,64,100
53312,note_off,,,,,128,0,11,,,,,4,,,37,100
53312,note_off,,,,,128,0,8,,,,,1,,,83,100
53312,note_off,,,,,128,0,10,,,,,3,,,49,100
53312,note_off,,,,,64,0,12,,,,,5,,,64,100
53376,note_on,,,,,64,0,8,,,,,1,,,83,70
53376,note_on,,,,,64,0,10,,,,,3,,,51,70
53376,note_on,,,,,64,0,11,,,,,4,,,39,70
53376,note_on,,,,,64,0,13,,,,,5,,,51,100
53376,note_on,,,,,64,0,12,,,,,5,,,66,100
53376,note_on,,,,,0,0,12,,,,,5,,,71,100
53376,note_on,,,,,64,0,9,,,,,2,,,66,70
53504,note_off,,,,,128,0,8,,,,,1,,,83,100
53504,note_off,,,,,128,0,11,,,,,4,,,39,100
53504,note_off,,,,,128,0,13,,,,,5,,,51,100
53504,note_off,,,,,128,0,9,,,,,2,,,66,100
53504,note_off,,,,,128,0,10,,,,,3,,,51,100
53504,note_off,,,,,128,0,12,,,,,5,,,66,100
53568,note_on,,,,,64,0,8,,,,,1,,,83,70
53568,note_on,,,,,64,0,12,,,,,5,,,63,100
53568,note_on,,,,,64,0,13,,,,,5,,,47,100
53568,note_on,,,,,64,0,11,,,,,4,,,35,70
53568,note_on,,,,,64,0,9,,,,,2,,,63,70
53568,note_on,,,,,0,0,12,,,,,5,,,66,100
53568,note_on,,,,,64,0,10,,,,,3,,,47,70
53632,note_off,,,,,64,0,12,,,,,5,,,71,100
53696,note_off,,,,,64,0,12,,,,,5,,,63,100
53696,note_off,,,,,0,0,12,,,,,5,,,66,100
53696,note_off,,,,,128,0,8,,,,,1,,,83,100
53696,note_off,,,,,128,0,11,,,,,4,,,35,100
53696,note_off,,,,,128,0,10,,,,,3,,,47,100
53696,note_off,,,,,128,0,9,,,,,2,,,63,100
53696,note_off,,,,,128,0,13,,,,,5,,,47,100
53760,note_on,,,,,64,0,11,,,,,4,,,40,100
53760,note_on,,,,,0,0,12,,,,,5,,,68,100
53760,note_on,,,,,0,0,12,,,,,5,,,71,100
53760,note_on,,,,,64,0,12,,,,,5,,,64,100
53760,note_on,,,,,64,0,9,,,,,2,,,59,100
53760,note_on,,,,,64,0,10,,,,,3,,,52,100
53760,note_on,,,,,64,0,13,,,,,5,,,52,100
53760,note_on,,,,,64,0,8,,,,,1,,,80,70
53888,note_off,,,,,128,0,8,,,,,1,,,80,100
53888,note_off,,,,,128,0,11,,,,,4,,,40,100
53888,note_off,,,,,128,0,9,,,,,2,,,59,100
53888,note_off,,,,,128,0,12,,,,,5,,,64,100
53888,note_off,,,,,0,0,12,,,,,5,,,68,100
53888,note_off,,,,,128,0,13,,,,,5,,,52,100
53888,note_off,,,,,128,0,10,,,,,3,,,52,100
53952,note_on,,,,,64,0,11,,,,,4,,,42,100
53952,note_on,,,,,64,0,13,,,,,5,,,54,100
53952,note_on,,,,,64,0,8,,,,,1,,,76,70
53952,note_on,,,,,64,0,9,,,,,2,,,69,100
53952,note_on,,,,,64,0,12,,,,,5,,,69,100
53952,note_on,,,,,64,0,10,,,,,3,,,54,100
54016,note_off,,,,,64,0,12,,,,,5,,,71,100
54080,note_off,,,,,128,0,10,,,,,3,,,54,100
54080,note_off,,,,,128,0,13,,,,,5,,,54,100
54080,note_off,,,,,64,0,12,,,,,5,,,69,100
54080,note_off,,,,,128,0,11,,,,,4,,,42,100
54080,note_off,,,,,128,0,8,,,,,1,,,76,100
54080,note_off,,,,,128,0,9,,,,,2,,,69,100
54144,note_on,,,,,0,0,12,,,,,5,,,64,100
54144,note_on,,,,,0,0,12,,,,,5,,,76,100
54144,note_on,,,,,64,0,10,,,,,3,,,56,100
54144,note_on,,,,,64,0,11,,,,,4,,,44,100
54144,note_on,,,,,64,0,12,,,,,5,,,71,100
54144,note_on,,,,,64,0,13,,,,,5,,,56,100
54144,note_on,,,,,64,0,9,,,,,2,,,71,100
54240,note_on,,,,,160,0,8,,,,,1,,,76,100
54272,note_off,,,,,128,0,10,,,,,3,,,56,100
54272,note_off,,,,,128,0,11,,,,,4,,,44,100
54272,note_off,,,,,128,0,9,,,,,2,,,71,100
54272,note_off,,,,,128,0,13,,,,,5,,,56,100
54272,note_off,,,,,128,0,12,,,,,5,,,64,100
54272,note_off,,,,,0,0,12,,,,,5,,,76,100
54304,note_off,,,,,64,0,8,,,,,1,,,76,100
54336,note_on,,,,,64,0,13,,,,,5,,,52,100
54336,note_on,,,,,64,0,10,,,,,3,,,52,100
54336,note_on,,,,,64,0,12,,,,,5,,,64,100
54336,note_on,,,,,0,0,12,,,,,5,,,68,100
54336,note_on,,,,,64,0,11,,,,,4,,,40,100
54336,note_on,,,,,64,0,9,,,,,2,,,68,100
54336,note_on,,,,,32,0,8,,,,,1,,,80,100
54400,note_off,,,,,64,0,12,,,,,5,,,71,100
54400,note_off,,,,,64,0,8,,,,,1,,,80,100
54432,note_on,,,,,32,0,8,,,,,1,,,81,100
54464,note_off,,,,,0,0,12,,,,,5,,,68,100
54464,note_off,,,,,64,0,12,,,,,5,,,64,100
54464,note_off,,,,,128,0,9,,,,,2,,,68,100
54464,note_off,,,,,128,0,13,,,,,5,,,52,100
54464,note_off,,,,,128,0,10,,,,,3,,,52,100
54464,note_off,,,,,128,0,11,,,,,4,,,40,100
54496,note_off,,,,,64,0,8,,,,,1,,,81,100
54528,note_on,,,,,64,0,13,,,,,5,,,51,100
54528,note_on,,,,,0,0,12,,,,,5,,,66,100
54528,note_on,,,,,64,0,9,,,,,2,,,66,100
54528,note_on,,,,,0,0,12,,,,,5,,,71,100
54528,note_on,,,,,64,0,11,,,,,4,,,39,100
54528,note_on,,,,,64,0,10,,,,,3,,,51,100
54528,note_on,,,,,64,0,12,,,,,5,,,75,100
54528,note_on,,,,,32,0,8,,,,,1,,,83,100
54656,note_off,,,,,128,0,11,,,,,4,,,39,100
54656,note_off,,,,,128,0,10,,,,,3,,,51,100
54656,note_off,,,,,128,0,12,,,,,5,,,75,100
54656,note_off,,,,,0,0,12,,,,,5,,,66,100
54656,note_off,,,,,128,0,13,,,,,5,,,51,100
54656,note_off,,,,,128,0,8,,,,,1,,,83,100
54656,note_off,,,,,128,0,9,,,,,2,,,66,100
54656,note_off,,,,,0,0,12,,,,,5,,,71,100
54720,note_on,,,,,64,0,12,,,,,5,,,73,100
54720,note_on,,,,,0,0,12,,,,,5,,,68,100
54720,note_on,,,,,64,0,11,,,,,4,,,40,100
54720,note_on,,,,,64,0,8,,,,,1,,,81,100
54720,note_on,,,,,64,0,10,,,,,3,,,52,100
54720,note_on,,,,,64,0,9,,,,,2,,,68,100
54720,note_on,,,,,64,0,13,,,,,5,,,52,100
54784,note_off,,,,,64,0,8,,,,,1,,,81,100
54784,note_off,,,,,64,0,12,,,,,5,,,73,100
54816,note_on,,,,,32,0,12,,,,,5,,,71,100
54816,note_on,,,,,32,0,8,,,,,1,,,80,100
54848,note_off,,,,,128,0,9,,,,,2,,,68,100
54848,note_off,,,,,128,0,10,,,,,3,,,52,100
54848,note_off,,,,,32,0,12,,,,,5,,,68,100
54848,note_off,,,,,128,0,13,,,,,5,,,52,100
54848,note_off,,,,,128,0,11,,,,,4,,,40,100
54880,note_off,,,,,64,0,8,,,,,1,,,80,100
54880,note_off,,,,,32,0,12,,,,,5,,,71,100
54912,note_on,,,,,32,0,8,,,,,1,,,78,100
54912,note_on,,,,,0,0,12,,,,,5,,,73,100
54912,note_on,,,,,64,0,10,,,,,3,,,57,100
54912,note_on,,,,,64,0,11,,,,,4,,,45,100
54912,note_on,,,,,64,0,9,,,,,2,,,73,100
54912,note_on,,,,,64,0,13,,,,,5,,,57,100
54912,note_on,,,,,32,0,12,,,,,5,,,66,100
55040,note_off,,,,,128,0,11,,,,,4,,,45,100
55040,note_off,,,,,128,0,9,,,,,2,,,73,100
55040,note_off,,,,,128,0,13,,,,,5,,,57,100
55040,note_off,,,,,0,0,12,,,,,5,,,73,100
55040,note_off,,,,,128,0,12,,,,,5,,,66,100
55040,note_off,,,,,128,0,10,,,,,3,,,57,100
55040,note_off,,,,,128,0,8,,,,,1,,,78,100
55104,note_on,,,,,64,0,13,,,,,5,,,54,100
55104,note_on,,,,,64,0,8,,,,,1,,,76,100
55104,note_on,,,,,64,0,12,,,,,5,,,70,100
55104,note_on,,,,,0,0,12,,,,,5,,,73,100
55104,note_on,,,,,64,0,11,,,,,4,,,42,100
55104,note_on,,,,,64,0,10,,,,,3,,,54,100
55104,note_on,,,,,64,0,9,,,,,2,,,70,100
55232,note_off,,,,,128,0,13,,,,,5,,,54,100
55232,note_off,,,,,128,0,11,,,,,4,,,42,100
55232,note_off,,,,,128,0,10,,,,,3,,,54,100
55232,note_off,,,,,128,0,9,,,,,2,,,70,100
55232,note_off,,,,,128,0,8,,,,,1,,,76,100
55232,note_off,,,,,0,0,12,,,,,5,,,73,100
55232,note_off,,,,,128,0,12,,,,,5,,,70,100
55296,note_on,,,,,64,0,8,,,,,1,,,75,100
55296,note_on,,,,,64,0,10,,,,,3,,,59,100
55296,note_on,,,,,0,0,12,,,,,5,,,75,100
55296,note_on,,,,,0,0,12,,,,,5,,,66,100
55296,note_on,,,,,64,0,9,,,,,2,,,66,100
55296,note_on,,,,,64,0,12,,,,,5,,,71,100
55296,note_on,,,,,64,0,11,,,,,4,,,47,100
55296,note_on,,,,,64,0,13,,,,,5,,,59,100
55424,note_off,,,,,128,0,8,,,,,1,,,75,100
55424,note_off,,,,,128,0,9,,,,,2,,,66,100
55424,note_off,,,,,128,0,13,,,,,5,,,59,100
55424,note_off,,,,,128,0,11,,,,,4,,,47,100
55424,note_off,,,,,128,0,12,,,,,5,,,75,100
55424,note_off,,,,,128,0,10,,,,,3,,,59,100
55488,note_on,,,,,64,0,12,,,,,5,,,76,100
55488,note_on,,,,,64,0,10,,,,,3,,,61,100
55488,note_on,,,,,64,0,9,,,,,2,,,64,100
55488,note_on,,,,,64,0,8,,,,,1,,,71,100
55488,note_on,,,,,64,0,13,,,,,5,,,61,100
55488,note_on,,,,,64,0,11,,,,,4,,,49,100
55552,note_off,,,,,64,0,12,,,,,5,,,71,100
55552,note_off,,,,,0,0,12,,,,,5,,,66,100
55616,note_off,,,,,128,0,10,,,,,3,,,61,100
55616,note_off,,,,,128,0,8,,,,,1,,,71,100
55616,note_off,,,,,128,0,13,,,,,5,,,61,100
55616,note_off,,,,,128,0,9,,,,,2,,,64,100
55616,note_off,,,,,128,0,11,,,,,4,,,49,100
55616,note_off,,,,,64,0,12,,,,,5,,,76,100
55680,note_on,,,,,64,0,9,,,,,2,,,66,100
55680,note_on,,,,,64,0,10,,,,,3,,,63,100
55680,note_on,,,,,64,0,13,,,,,5,,,63,100
55680,note_on,,,,,64,0,11,,,,,4,,,51,100
55680,note_on,,,,,0,0,12,,,,,5,,,71,100
55680,note_on,,,,,64,0,12,,,,,5,,,78,100
55776,note_on,,,,,160,0,8,,,,,1,,,71,100
55808,note_off,,,,,128,0,9,,,,,2,,,66,100
55808,note_off,,,,,128,0,11,,,,,4,,,51,100
55808,note_off,,,,,128,0,13,,,,,5,,,63,100
55808,note_off,,,,,128,0,10,,,,,3,,,63,100
55808,note_off,,,,,128,0,12,,,,,5,,,71,100
55840,note_off,,,,,64,0,8,,,,,1,,,71,100
55872,note_on,,,,,32,0,8,,,,,1,,,75,100
55872,note_on,,,,,64,0,13,,,,,5,,,59,100
55872,note_on,,,,,64,0,11,,,,,4,,,47,100
55872,note_on,,,,,0,0,12,,,,,5,,,75,100
55872,note_on,,,,,64,0,9,,,,,2,,,63,100
55872,note_on,,,,,64,0,12,,,,,5,,,71,100
55872,note_on,,,,,64,0,10,,,,,3,,,59,100
55936,note_off,,,,,64,0,8,,,,,1,,,75,100
55936,note_off,,,,,64,0,12,,,,,5,,,78,100
55968,note_on,,,,,32,0,8,,,,,1,,,76,100
56000,note_off,,,,,0,0,12,,,,,5,,,75,100
56000,note_off,,,,,64,0,12,,,,,5,,,71,100
56000,note_off,,,,,128,0,10,,,,,3,,,59,100
56000,note_off,,,,,128,0,9,,,,,2,,,63,100
56000,note_off,,,,,128,0,11,,,,,4,,,47,100
56000,note_off,,,,,128,0,13,,,,,5,,,59,100
56032,note_off,,,,,64,0,8,,,,,1,,,76,100
56064,note_on,,,,,64,0,11,,,,,4,,,46,100
56064,note_on,,,,,64,0,10,,,,,3,,,58,100
56064,note_on,,,,,64,0,9,,,,,2,,,61,100
56064,note_on,,,,,64,0,13,,,,,5,,,58,100
56064,note_on,,,,,32,0,8,,,,,1,,,78,100
56064,note_on,,,,,0,0,12,,,,,5,,,73,100
56064,note_on,,,,,0,0,12,,,,,5,,,70,100
56064,note_on,,,,,64,0,12,,,,,5,,,78,100
56128,note_off,,,,,64,0,8,,,,,1,,,78,100
56160,note_on,,,,,32,0,8,,,,,1,,,80,97
56192,note_off,,,,,128,0,13,,,,,5,,,58,100
56192,note_off,,,,,128,0,11,,,,,4,,,46,100
56192,note_off,,,,,0,0,12,,,,,5,,,73,100
56192,note_off,,,,,128,0,12,,,,,5,,,70,100
56192,note_off,,,,,128,0,10,,,,,3,,,58,100
56192,note_off,,,,,128,0,9,,,,,2,,,61,100
56224,note_off,,,,,64,0,8,,,,,1,,,80,100
56256,note_on,,,,,64,0,13,,,,,5,,,56,100
56256,note_on,,,,,64,0,12,,,,,5,,,71,100
56256,note_on,,,,,64,0,11,,,,,4,,,44,93
56256,note_on,,,,,64,0,10,,,,,3,,,56,93
56256,note_on,,,,,32,0,8,,,,,1,,,78,93
56256,note_on,,,,,64,0,9,,,,,2,,,59,93
56320,note_off,,,,,64,0,8,,,,,1,,,78,100
56320,note_off,,,,,64,0,12,,,,,5,,,78,100
56352,note_on,,,,,32,0,8,,,,,1,,,80,89
56384,note_off,,,,,64,0,12,,,,,5,,,71,100
56384,note_off,,,,,128,0,9,,,,,2,,,59,100
56384,note_off,,,,,128,0,11,,,,,4,,,44,100
56384,note_off,,,,,128,0,13,,,,,5,,,56,100
56384,note_off,,,,,128,0,10,,,,,3,,,56,100
56416,note_off,,,,,64,0,8,,,,,1,,,80,100
56448,note_on,,,,,64,0,12,,,,,5,,,73,100
56448,note_on,,,,,0,0,12,,,,,5,,,78,100
56448,note_on,,,,,64,0,9,,,,,2,,,61,86
56448,note_on,,,,,64,0,11,,,,,4,,,46,86
56448,note_on,,,,,64,0,10,,,,,3,,,58,86
56448,note_on,,,,,64,0,13,,,,,5,,,58,100
56448,note_on,,,,,32,0,8,,,,,1,,,78,86
56512,note_off,,,,,64,0,8,,,,,1,,,78,100
56544,note_on,,,,,32,0,8,,,,,1,,,80,82
56576,note_off,,,,,128,0,11,,,,,4,,,46,100
56576,note_off,,,,,128,0,10,,,,,3,,,58,100
56576,note_off,,,,,128,0,13,,,,,5,,,58,100
56576,note_off,,,,,128,0,9,,,,,2,,,61,100
56576,note_off,,,,,128,0,12,,,,,5,,,73,100
56608,note_off,,,,,64,0,8,,,,,1,,,80,100
56640,note_on,,,,,32,0,8,,,,,1,,,78,78
56640,note_on,,,,,64,0,10,,,,,3,,,54,78
56640,note_on,,,,,64,0,9,,,,,2,,,58,78
56640,note_on,,,,,64,0,12,,,,,5,,,70,100
56640,note_on,,,,,64,0,11,,,,,4,,,42,78
56640,note_on,,,,,64,0,13,,,,,5,,,54,100
56640,note_on,,,,,0,0,12,,,,,5,,,73,100
56704,note_off,,,,,64,0,12,,,,,5,,,78,100
56704,note_off,,,,,64,0,8,,,,,1,,,78,100
56736,note_on,,,,,32,0,8,,,,,1,,,80,74
56768,note_off,,,,,128,0,11,,,,,4,,,42,100
56768,note_off,,,,,0,0,12,,,,,5,,,73,100
56768,note_off,,,,,64,0,12,,,,,5,,,70,100
56768,note_off,,,,,128,0,13,,,,,5,,,54,100
56768,note_off,,,,,128,0,9,,,,,2,,,58,100
56768,note_off,,,,,128,0,10,,,,,3,,,54,100
56800,note_off,,,,,64,0,8,,,,,1,,,80,100
56832,note_on,,,,,0,0,12,,,,,5,,,75,100
56832,note_on,,,,,0,0,12,,,,,5,,,78,100
56832,note_on,,,,,64,0,12,,,,,5,,,71,100
56832,note_on,,,,,32,0,8,,,,,1,,,78,71
56832,note_on,,,,,64,0,13,,,,,5,,,59,100
56832,note_on,,,,,64,0,10,,,,,3,,,59,71
56832,note_on,,,,,64,0,9,,,,,2,,,63,71
56832,note_on,,,,,64,0,11,,,,,4,,,47,71
56896,note_off,,,,,64,0,8,,,,,1,,,78,100
56928,note_on,,,,,32,0,8,,,,,1,,,76,70
56960,note_off,,,,,128,0,10,,,,,3,,,59,100
56960,note_off,,,,,128,0,12,,,,,5,,,71,100
56960,note_off,,,,,128,0,11,,,,,4,,,47,100
56960,note_off,,,,,128,0,13,,,,,5,,,59,100
56960,note_off,,,,,0,0,12,,,,,5,,,75,100
56960,note_off,,,,,128,0,9,,,,,2,,,63,100
56992,note_off,,,,,64,0,8,,,,,1,,,76,100
57024,note_on,,,,,64,0,10,,,,,3,,,61,70
57024,note_on,,,,,64,0,12,,,,,5,,,76,100
57024,note_on,,,,,32,0,8,,,,,1,,,75,70
57024,note_on,,,,,64,0,11,,,,,4,,,49,70
57024,note_on,,,,,64,0,13,,,,,5,,,61,100
57024,note_on,,,,,64,0,9,,,,,2,,,64,70
57088,note_off,,,,,64,0,8,,,,,1,,,75,100
57088,note_off,,,,,64,0,12,,,,,5,,,78,100
57120,note_on,,,,,32,0,8,,,,,1,,,73,70
57152,note_off,,,,,128,0,9,,,,,2,,,64,100
57152,note_off,,,,,128,0,11,,,,,4,,,49,100
57152,note_off,,,,,64,0,12,,,,,5,,,76,100
57152,note_off,,,,,128,0,10,,,,,3,,,61,100
57152,note_off,,,,,128,0,13,,,,,5,,,61,100
57184,note_off,,,,,64,0,8,,,,,1,,,73,100
57216,note_on,,,,,64,0,10,,,,,3,,,63,70
57216,note_on,,,,,64,0,9,,,,,2,,,66,70
57216,note_on,,,,,0,0,12,,,,,5,,,71,100
57216,note_on,,,,,64,0,11,,,,,4,,,51,70
57216,note_on,,,,,64,0,12,,,,,5,,,78,100
57216,note_on,,,,,32,0,8,,,,,1,,,71,70
57216,note_on,,,,,64,0,13,,,,,5,,,63,100
57280,note_off,,,,,64,0,8,,,,,1,,,71,100
57312,note_on,,,,,32,0,8,,,,,1,,,73,70
57344,note_off,,,,,128,0,11,,,,,4,,,51,100
57344,note_off,,,,,128,0,12,,,,,5,,,71,100
57344,note_off,,,,,128,0,10,,,,,3,,,63,100
57344,note_off,,,,,128,0,9,,,,,2,,,66,100
57344,note_off,,,,,128,0,13,,,,,5,,,63,100
57376,note_off,,,,,64,0,8,,,,,1,,,73,100
57408,note_on,,,,,64,0,9,,,,,2,,,63,70
57408,note_on,,,,,32,0,8,,,,,1,,,75,70
57408,note_on,,,,,64,0,11,,,,,4,,,47,70
57408,note_on,,,,,64,0,12,,,,,5,,,71,100
57408,note_on,,,,,64,0,10,,,,,3,,,59,70
57408,note_on,,,,,64,0,13,,,,,5,,,59,100
57408,note_on,,,,,0,0,12,,,,,5,,,75,100
57472,note_off,,,,,64,0,8,,,,,1,,,75,100
57472,note_off,,,,,64,0,12,,,,,5,,,78,100
57504,note_on,,,,,32,0,8,,,,,1,,,76,70
57536,note_off,,,,,128,0,13,,,,,5,,,59,100
57536,note_off,,,,,0,0,12,,,,,5,,,75,100
57536,note_off,,,,,64,0,12,,,,,5,,,71,100
57536,note_off,,,,,128,0,9,,,,,2,,,63,100
57536,note_off,,,,,128,0,10,,,,,3,,,59,100
57536,note_off,,,,,128,0,11,,,,,4,,,47,100
57568,note_off,,,,,64,0,8,,,,,1,,,76,100
57600,note_on,,,,,64,0,12,,,,,5,,,78,100
57600,note_on,,,,,0,0,12,,,,,5,,,70,100
57600,note_on,,,,,0,0,12,,,,,5,,,73,100
57600,note_on,,,,,64,0,10,,,,,3,,,58,70
57600,note_on,,,,,64,0,13,,,,,5,,,58,100
57600,note_on,,,,,64,0,11,,,,,4,,,46,70
57600,note_on,,,,,64,0,9,,,,,2,,,61,70
57600,note_on,,,,,32,0,8,,,,,1,,,78,70
57664,note_off,,,,,64,0,8,,,,,1,,,78,100
57696,note_on,,,,,32,0,8,,,,,1,,,80,72
57728,note_off,,,,,0,0,12,,,,,5,,,73,100
57728,note_off,,,,,128,0,10,,,,,3,,,58,100
57728,note_off,,,,,128,0,12,,,,,5,,,70,100
57728,note_off,,,,,128,0,13,,,,,5,,,58,100
57728,note_off,,,,,128,0,11,,,,,4,,,46,100
57728,note_off,,,,,128,0,9,,,,,2,,,61,100
57760,note_off,,,,,64,0,8,,,,,1,,,80,100
57792,note_on,,,,,32,0,8,,,,,1,,,78,74
57792,note_on,,,,,64,0,11,,,,,4,,,44,74
57792,note_on,,,,,64,0,10,,,,,3,,,56,74
57792,note_on,,,,,64,0,9,,,,,2,,,59,74
57792,note_on,,,,,64,0,13,,,,,5,,,56,100
57792,note_on,,,,,64,0,12,,,,,5,,,71,100
57856,note_off,,,,,64,0,12,,,,,5,,,78,100
57856,note_off,,,,,64,0,8,,,,,1,,,78,100
57888,note_on,,,,,32,0,8,,,,,1,,,80,76
57920,note_off,,,,,128,0,13,,,,,5,,,56,100
57920,note_off,,,,,128,0,9,,,,,2,,,59,100
57920,note_off,,,,,128,0,11,,,,,4,,,44,100
57920,note_off,,,,,64,0,12,,,,,5,,,71,100
57920,note_off,,,,,128,0,10,,,,,3,,,56,100
57952,note_off,,,,,64,0,8,,,,,1,,,80,100
57984,note_on,,,,,64,0,13,,,,,5,,,58,100
57984,note_on,,,,,32,0,8,,,,,1,,,78,78
57984,note_on,,,,,64,0,9,,,,,2,,,61,78
57984,note_on,,,,,64,0,11,,,,,4,,,46,78
57984,note_on,,,,,64,0,10,,,,,3,,,58,78
57984,note_on,,,,,64,0,12,,,,,5,,,73,100
57984,note_on,,,,,0,0,12,,,,,5,,,78,100
58048,note_off,,,,,64,0,8,,,,,1,,,78,100
58080,note_on,,,,,32,0,8,,,,,1,,,80,80
58112,note_off,,,,,128,0,12,,,,,5,,,73,100
58112,note_off,,,,,128,0,9,,,,,2,,,61,100
58112,note_off,,,,,128,0,11,,,,,4,,,46,100
58112,note_off,,,,,128,0,13,,,,,5,,,58,100
58112,note_off,,,,,128,0,10,,,,,3,,,58,100
58144,note_off,,,,,64,0,8,,,,,1,,,80,100
58176,note_on,,,,,64,0,13,,,,,5,,,54,100
58176,note_on,,,,,64,0,10,,,,,3,,,54,82
58176,note_on,,,,,64,0,11,,,,,4,,,42,82
58176,note_on,,,,,0,0,12,,,,,5,,,73,100
58176,note_on,,,,,64,0,12,,,,,5,,,70,100
58176,note_on,,,,,64,0,9,,,,,2,,,58,82
58176,note_on,,,,,32,0,8,,,,,1,,,78,82
58240,note_off,,,,,64,0,12,,,,,5,,,78,100
58240,note_off,,,,,64,0,8,,,,,1,,,78,100
58272,note_on,,,,,32,0,8,,,,,1,,,80,84
58304,note_off,,,,,128,0,11,,,,,4,,,42,100
58304,note_off,,,,,128,0,9,,,,,2,,,58,100
58304,note_off,,,,,64,0,12,,,,,5,,,70,100
58304,note_off,,,,,0,0,12,,,,,5,,,73,100
58304,note_off,,,,,128,0,13,,,,,5,,,54,100
58304,note_off,,,,,128,0,10,,,,,3,,,54,100
58336,note_off,,,,,64,0,8,,,,,1,,,80,100
58368,note_on,,,,,64,0,9,,,,,2,,,63,99
58368,note_on,,,,,0,0,12,,,,,5,,,75,100
58368,note_on,,,,,0,0,12,,,,,5,,,78,100
58368,note_on,,,,,64,0,10,,,,,3,,,59,99
58368,note_on,,,,,64,0,12,,,,,5,,,71,100
58368,note_on,,,,,32,0,8,,,,,1,,,78,71
58368,note_on,,,,,64,0,11,,,,,4,,,47,99
58368,note_on,,,,,64,0,13,,,,,5,,,59,100
58432,note_off,,,,,64,0,8,,,,,1,,,78,100
58464,note_on,,,,,32,0,8,,,,,1,,,76,100
58496,note_off,,,,,128,0,12,,,,,5,,,71,100
58496,note_off,,,,,0,0,12,,,,,5,,,75,100
58496,note_off,,,,,128,0,9,,,,,2,,,63,100
58496,note_off,,,,,128,0,10,,,,,3,,,59,100
58496,note_off,,,,,128,0,11,,,,,4,,,47,100
58496,note_off,,,,,128,0,13,,,,,5,,,59,100
58528,note_off,,,,,64,0,8,,,,,1,,,76,100
58560,note_on,,,,,64,0,13,,,,,5,,,61,100
58560,note_on,,,,,32,0,8,,,,,1,,,75,100
58560,note_on,,,,,64,0,12,,,,,5,,,76,100
58560,note_on,,,,,64,0,10,,,,,3,,,61,100
58560,note_on,,,,,64,0,11,,,,,4,,,49,100
58560,note_on,,,,,64,0,9,,,,,2,,,64,100
58624,note_off,,,,,64,0,12,,,,,5,,,78,100
58624,note_off,,,,,64,0,8,,,,,1,,,75,100
58656,note_on,,,,,32,0,8,,,,,1,,,73,100
58688,note_off,,,,,128,0,11,,,,,4,,,49,100
58688,note_off,,,,,128,0,9,,,,,2,,,64,100
58688,note_off,,,,,128,0,13,,,,,5,,,61,100
58688,note_off,,,,,128,0,10,,,,,3,,,61,100
58688,note_off,,,,,64,0,12,,,,,5,,,76,100
58720,note_off,,,,,64,0,8,,,,,1,,,73,100
58752,note_on,,,,,64,0,9,,,,,2,,,66,100
58752,note_on,,,,,64,0,11,,,,,4,,,51,100
58752,note_on,,,,,64,0,13,,,,,5,,,63,100
58752,note_on,,,,,32,0,8,,,,,1,,,71,100
58752,note_on,,,,,64,0,12,,,,,5,,,78,100
58752,note_on,,,,,0,0,12,,,,,5,,,71,100
58752,note_on,,,,,64,0,10,,,,,3,,,63,100
58816,note_off,,,,,64,0,8,,,,,1,,,71,100
58848,note_on,,,,,32,0,8,,,,,1,,,73,100
58880,note_off,,,,,128,0,10,,,,,3,,,63,100
58880,note_off,,,,,128,0,11,,,,,4,,,51,100
58880,note_off,,,,,128,0,9,,,,,2,,,66,100
58880,note_off,,,,,128,0,12,,,,,5,,,71,100
58880,note_off,,,,,128,0,13,,,,,5,,,63,100
58912,note_off,,,,,64,0,8,,,,,1,,,73,100
58944,note_on,,,,,64,0,9,,,,,2,,,63,100
58944,note_on,,,,,0,0,12,,,,,5,,,75,100
58944,note_on,,,,,64,0,12,,,,,5,,,71,100
58944,note_on,,,,,64,0,10,,,,,3,,,59,100
58944,note_on,,,,,32,0,8,,,,,1,,,75,100
58944,note_on,,,,,64,0,13,,,,,5,,,59,100
58944,note_on,,,,,64,0,11,,,,,4,,,47,100
59008,note_off,,,,,64,0,8,,,,,1,,,75,100
59008,note_off,,,,,64,0,12,,,,,5,,,78,100
59040,note_on,,,,,32,0,8,,,,,1,,,76,100
59072,note_off,,,,,128,0,11,,,,,4,,,47,100
59072,note_off,,,,,128,0,10,,,,,3,,,59,100
59072,note_off,,,,,0,0,12,,,,,5,,,75,100
59072,note_off,,,,,128,0,9,,,,,2,,,63,100
59072,note_off,,,,,128,0,13,,,,,5,,,59,100
59072,note_off,,,,,64,0,12,,,,,5,,,71,100
59104,note_off,,,,,64,0,8,,,,,1,,,76,100
59136,note_on,,,,,64,0,9,,,,,2,,,61,100
59136,note_on,,,,,32,0,8,,,,,1,,,78,100
59136,note_on,,,,,64,0,10,,,,,3,,,58,100
59136,note_on,,,,,64,0,12,,,,,5,,,78,100
59136,note_on,,,,,0,0,12,,,,,5,,,70,100
59136,note_on,,,,,0,0,12,,,,,5,,,73,100
59136,note_on,,,,,64,0,13,,,,,5,,,58,100
59136,note_on,,,,,64,0,11,,,,,4,,,46,100
59200,note_off,,,,,64,0,8,,,,,1,,,78,100
59232,note_on,,,,,32,0,8,,,,,1,,,80,100
59264,note_off,,,,,128,0,13,,,,,5,,,58,100
59264,note_off,,,,,0,0,12,,,,,5,,,73,100
59264,note_off,,,,,128,0,12,,,,,5,,,70,100
59264,note_off,,,,,128,0,10,,,,,3,,,58,100
59264,note_off,,,,,128,0,11,,,,,4,,,46,100
59264,note_off,,,,,128,0,9,,,,,2,,,61,100
59296,note_off,,,,,64,0,8,,,,,1,,,80,100
59328,note_on,,,,,64,0,11,,,,,4,,,44,100
59328,note_on,,,,,64,0,13,,,,,5,,,56,100
59328,note_on,,,,,64,0,12,,,,,5,,,71,100
59328,note_on,,,,,64,0,9,,,,,2,,,59,100
59328,note_on,,,,,64,0,10,,,,,3,,,56,100
59328,note_on,,,,,32,0,8,,,,,1,,,78,100
59392,note_off,,,,,64,0,8,,,,,1,,,78,100
59392,note_off,,,,,64,0,12,,,,,5,,,78,100
59424,note_on,,,,,32,0,8,,,,,1,,,80,100
59456,note_off,,,,,64,0,12,,,,,5,,,71,100
59456,note_off,,,,,128,0,11,,,,,4,,,44,100
59456,note_off,,,,,128,0,13,,,,,5,,,56,100
59456,note_off,,,,,128,0,9,,,,,2,,,59,100
59456,note_off,,,,,128,0,10,,,,,3,,,56,100
59488,note_off,,,,,64,0,8,,,,,1,,,80,100
59520,note_on,,,,,64,0,11,,,,,4,,,46,100
59520,note_on,,,,,0,0,12,,,,,5,,,78,100
59520,note_on,,,,,64,0,10,,,,,3,,,58,100
59520,note_on,,,,,32,0,8,,,,,1,,,78,100
59520,note_on,,,,,64,0,9,,,,,2,,,61,100
59520,note_on,,,,,64,0,12,,,,,5,,,73,100
59520,note_on,,,,,64,0,13,,,,,5,,,58,100
59584,note_off,,,,,64,0,8,,,,,1,,,78,100
59616,note_on,,,,,32,0,8,,,,,1,,,80,99
59648,note_off,,,,,128,0,12,,,,,5,,,73,100
59648,note_off,,,,,128,0,10,,,,,3,,,58,100
59648,note_off,,,,,128,0,11,,,,,4,,,46,100
59648,note_off,,,,,128,0,13,,,,,5,,,58,100
59648,note_off,,,,,128,0,9,,,,,2,,,61,100
59680,note_off,,,,,64,0,8,,,,,1,,,80,100
59712,note_on,,,,,64,0,13,,,,,5,,,54,100
59712,note_on,,,,,32,0,8,,,,,1,,,78,97
59712,note_on,,,,,64,0,10,,,,,3,,,54,97
59712,note_on,,,,,64,0,12,,,,,5,,,70,100
59712,note_on,,,,,64,0,9,,,,,2,,,58,97
59712,note_on,,,,,64,0,11,,,,,4,,,42,97
59712,note_on,,,,,0,0,12,,,,,5,,,73,100
59776,note_off,,,,,64,0,8,,,,,1,,,78,100
59776,note_off,,,,,64,0,12,,,,,5,,,78,100
59808,note_on,,,,,32,0,8,,,,,1,,,80,96
59840,note_off,,,,,128,0,10,,,,,3,,,54,100
59840,note_off,,,,,128,0,13,,,,,5,,,54,100
59840,note_off,,,,,128,0,11,,,,,4,,,42,100
59840,note_off,,,,,128,0,9,,,,,2,,,58,100
59840,note_off,,,,,0,0,12,,,,,5,,,73,100
59840,note_off,,,,,64,0,12,,,,,5,,,70,100
59872,note_off,,,,,64,0,8,,,,,1,,,80,100
59904,note_on,,,,,64,0,13,,,,,5,,,59,100
59904,note_on,,,,,32,0,8,,,,,1,,,78,94
59904,note_on,,,,,64,0,11,,,,,4,,,47,94
59904,note_on,,,,,64,0,9,,,,,2,,,63,94
59904,note_on,,,,,0,0,12,,,,,5,,,75,100
59904,note_on,,,,,64,0,10,,,,,3,,,59,94
59904,note_on,,,,,64,0,12,,,,,5,,,71,100
59904,note_on,,,,,0,0,12,,,,,5,,,78,100
60032,note_off,,,,,128,0,11,,,,,4,,,47,100
60032,note_off,,,,,128,0,10,,,,,3,,,59,100
60032,note_off,,,,,128,0,9,,,,,2,,,63,100
60032,note_off,,,,,128,0,13,,,,,5,,,59,100
60032,note_off,,,,,128,0,12,,,,,5,,,71,100
60032,note_off,,,,,0,0,12,,,,,5,,,75,100
60032,note_off,,,,,128,0,8,,,,,1,,,78,100
60096,note_on,,,,,64,0,11,,,,,4,,,49,91
60096,note_on,,,,,64,0,12,,,,,5,,,76,100
60096,note_on,,,,,64,0,13,,,,,5,,,61,100
60096,note_on,,,,,64,0,9,,,,,2,,,64,91
60096,note_on,,,,,64,0,8,,,,,1,,,71,91
60096,note_on,,,,,64,0,10,,,,,3,,,61,91
60160,note_off,,,,,64,0,12,,,,,5,,,78,100
60224,note_off,,,,,128,0,10,,,,,3,,,61,100
60224,note_off,,,,,128,0,8,,,,,1,,,71,100
60224,note_off,,,,,64,0,12,,,,,5,,,76,100
60224,note_off,,,,,128,0,9,,,,,2,,,64,100
60224,note_off,,,,,128,0,11,,,,,4,,,49,100
60224,note_off,,,,,128,0,13,,,,,5,,,61,100
60288,note_on,,,,,64,0,12,,,,,5,,,78,100
60288,note_on,,,,,64,0,13,,,,,5,,,63,100
60288,note_on,,,,,64,0,9,,,,,2,,,66,90
60288,note_on,,,,,0,0,12,,,,,5,,,71,100
60288,note_on,,,,,64,0,10,,,,,3,,,63,90
60288,note_on,,,,,64,0,11,,,,,4,,,51,90
60384,note_on,,,,,160,0,8,,,,,1,,,75,92
60416,note_off,,,,,128,0,11,,,,,4,,,51,100
60416,note_off,,,,,128,0,9,,,,,2,,,66,100
60416,note_off,,,,,128,0,13,,,,,5,,,63,100
60416,note_off,,,,,128,0,10,,,,,3,,,63,100
60416,note_off,,,,,128,0,12,,,,,5,,,71,100
60448,note_off,,,,,64,0,8,,,,,1,,,75,100
60480,note_on,,,,,64,0,9,,,,,2,,,64,94
60480,note_on,,,,,0,0,12,,,,,5,,,76,100
60480,note_on,,,,,64,0,12,,,,,5,,,73,100
60480,note_on,,,,,64,0,13,,,,,5,,,61,100
60480,note_on,,,,,64,0,11,,,,,4,,,49,94
60480,note_on,,,,,64,0,10,,,,,3,,,61,94
60480,note_on,,,,,32,0,8,,,,,1,,,76,94
60544,note_off,,,,,64,0,8,,,,,1,,,76,100
60544,note_off,,,,,64,0,12,,,,,5,,,78,100
60576,note_on,,,,,32,0,8,,,,,1,,,78,97
60608,note_off,,,,,128,0,10,,,,,3,,,61,100
60608,note_off,,,,,128,0,11,,,,,4,,,49,100
60608,note_off,,,,,128,0,13,,,,,5,,,61,100
60608,note_off,,,,,64,0,12,,,,,5,,,73,100
60608,note_off,,,,,0,0,12,,,,,5,,,76,100
60608,note_off,,,,,128,0,9,,,,,2,,,64,100
60640,note_off,,,,,64,0,8,,,,,1,,,78,100
60672,note_on,,,,,32,0,8,,,,,1,,,80,99
60672,note_on,,,,,0,0,12,,,,,5,,,75,100
60672,note_on,,,,,64,0,9,,,,,2,,,63,99
60672,note_on,,,,,64,0,10,,,,,3,,,60,99
60672,note_on,,,,,64,0,13,,,,,5,,,60,100
60672,note_on,,,,,64,0,12,,,,,5,,,80,100
60672,note_on,,,,,0,0,12,,,,,5,,,72,100
60672,note_on,,,,,64,0,11,,,,,4,,,48,99
60736,note_off,,,,,64,0,8,,,,,1,,,80,100
60768,note_on,,,,,32,0,8,,,,,1,,,81,100
60800,note_off,,,,,128,0,10,,,,,3,,,60,100
60800,note_off,,,,,128,0,9,,,,,2,,,63,100
60800,note_off,,,,,128,0,11,,,,,4,,,48,100
60800,note_off,,,,,128,0,13,,,,,5,,,60,100
60800,note_off,,,,,128,0,12,,,,,5,,,72,100
60800,note_off,,,,,0,0,12,,,,,5,,,75,100
60832,note_off,,,,,64,0,8,,,,,1,,,81,100
60864,note_on,,,,,64,0,11,,,,,4,,,46,96
60864,note_on,,,,,64,0,13,,,,,5,,,58,100
60864,note_on,,,,,64,0,9,,,,,2,,,61,96
60864,note_on,,,,,64,0,10,,,,,3,,,58,96
60864,note_on,,,,,32,0,8,,,,,1,,,80,96
60864,note_on,,,,,64,0,12,,,,,5,,,73,100
60928,note_off,,,,,64,0,12,,,,,5,,,80,100
60928,note_off,,,,,64,0,8,,,,,1,,,80,100
60960,note_on,,,,,32,0,8,,,,,1,,,81,92
60992,note_off,,,,,128,0,10,,,,,3,,,58,100
60992,note_off,,,,,128,0,9,,,,,2,,,61,100
60992,note_off,,,,,128,0,13,,,,,5,,,58,100
60992,note_off,,,,,64,0,12,,,,,5,,,73,100
60992,note_off,,,,,128,0,11,,,,,4,,,46,100
61024,note_off,,,,,64,0,8,,,,,1,,,81,100
61056,note_on,,,,,32,0,8,,,,,1,,,80,88
61056,note_on,,,,,0,0,12,,,,,5,,,80,100
61056,note_on,,,,,64,0,11,,,,,4,,,48,88
61056,note_on,,,,,64,0,13,,,,,5,,,60,100
61056,note_on,,,,,64,0,10,,,,,3,,,60,88
61056,note_on,,,,,64,0,12,,,,,5,,,75,100
61056,note_on,,,,,64,0,9,,,,,2,,,63,88
61120,note_off,,,,,64,0,8,,,,,1,,,80,100
61152,note_on,,,,,32,0,8,,,,,1,,,81,83
61184,note_off,,,,,128,0,13,,,,,5,,,60,100
61184,note_off,,,,,128,0,12,,,,,5,,,75,100
61184,note_off,,,,,128,0,10,,,,,3,,,60,100
61184,note_off,,,,,128,0,9,,,,,2,,,63,100
61184,note_off,,,,,128,0,11,,,,,4,,,48,100
61216,note_off,,,,,64,0,8,,,,,1,,,81,100
61248,note_on,,,,,64,0,9,,,,,2,,,60,79
61248,note_on,,,,,64,0,13,,,,,5,,,56,100
61248,note_on,,,,,64,0,12,,,,,5,,,72,100
61248,note_on,,,,,64,0,11,,,,,4,,,44,79
61248,note_on,,,,,64,0,10,,,,,3,,,56,79
61248,note_on,,,,,0,0,12,,,,,5,,,75,100
61248,note_on,,,,,32,0,8,,,,,1,,,80,79
61312,note_off,,,,,64,0,12,,,,,5,,,80,100
61312,note_off,,,,,64,0,8,,,,,1,,,80,100
61344,note_on,,,,,32,0,8,,,,,1,,,81,75
61376,note_off,,,,,128,0,10,,,,,3,,,56,100
61376,note_off,,,,,64,0,12,,,,,5,,,72,100
61376,note_off,,,,,128,0,13,,,,,5,,,56,100
61376,note_off,,,,,0,0,12,,,,,5,,,75,100
61376,note_off,,,,,128,0,9,,,,,2,,,60,100
61376,note_off,,,,,128,0,11,,,,,4,,,44,100
61408,note_off,,,,,64,0,8,,,,,1,,,81,100
61440,note_on,,,,,64,0,12,,,,,5,,,73,100
61440,note_on,,,,,0,0,12,,,,,5,,,76,100
61440,note_on,,,,,64,0,9,,,,,2,,,64,71
61440,note_on,,,,,32,0,8,,,,,1,,,80,71
61440,note_on,,,,,64,0,13,,,,,5,,,61,100
61440,note_on,,,,,64,0,11,,,,,4,,,49,71
61440,note_on,,,,,64,0,10,,,,,3,,,61,71
61440,note_on,,,,,0,0,12,,,,,5,,,80,100
61504,note_off,,,,,64,0,8,,,,,1,,,80,100
61536,note_on,,,,,32,0,8,,,,,1,,,78,70
61568,note_off,,,,,128,0,12,,,,,5,,,73,100
61568,note_off,,,,,0,0,12,,,,,5,,,76,100
61568,note_off,,,,,128,0,11,,,,,4,,,49,100
61568,note_off,,,,,128,0,9,,,,,2,,,64,100
61568,note_off,,,,,128,0,10,,,,,3,,,61,100
61568,note_off,,,,,128,0,13,,,,,5,,,61,100
61600,note_off,,,,,64,0,8,,,,,1,,,78,100
61632,note_on,,,,,32,0,8,,,,,1,,,76,70
61632,note_on,,,,,64,0,10,,,,,3,,,63,70
61632,note_on,,,,,64,0,9,,,,,2,,,66,70
61632,note_on,,,,,64,0,13,,,,,5,,,63,100
61632,note_on,,,,,64,0,12,,,,,5,,,78,100
61632,note_on,,,,,64,0,11,,,,,4,,,51,70
61696,note_off,,,,,64,0,8,,,,,1,,,76,100
61696,note_off,,,,,64,0,12,,,,,5,,,80,100
61728,note_on,,,,,32,0,8,,,,,1,,,75,70
61760,note_off,,,,,128,0,13,,,,,5,,,63,100
61760,note_off,,,,,64,0,12,,,,,5,,,78,100
61760,note_off,,,,,128,0,10,,,,,3,,,63,100
61760,note_off,,,,,128,0,9,,,,,2,,,66,100
61760,note_off,,,,,128,0,11,,,,,4,,,51,100
61792,note_off,,,,,64,0,8,,,,,1,,,75,100
61824,note_on,,,,,64,0,9,,,,,2,,,68,70
61824,note_on,,,,,64,0,11,,,,,4,,,52,70
61824,note_on,,,,,64,0,10,,,,,3,,,64,70
61824,note_on,,,,,0,0,12,,,,,5,,,73,100
61824,note_on,,,,,64,0,12,,,,,5,,,80,100
61824,note_on,,,,,32,0,8,,,,,1,,,73,70
61824,note_on,,,,,64,0,13,,,,,5,,,64,100
61888,note_off,,,,,64,0,8,,,,,1,,,73,100
61920,note_on,,,,,32,0,8,,,,,1,,,75,70
61952,note_off,,,,,128,0,9,,,,,2,,,68,100
61952,note_off,,,,,128,0,12,,,,,5,,,73,100
61952,note_off,,,,,128,0,13,,,,,5,,,64,100
61952,note_off,,,,,128,0,11,,,,,4,,,52,100
61952,note_off,,,,,128,0,10,,,,,3,,,64,100
61984,note_off,,,,,64,0,8,,,,,1,,,75,100
62016,note_on,,,,,64,0,9,,,,,2,,,64,70
62016,note_on,,,,,32,0,8,,,,,1,,,76,70
62016,note_on,,,,,64,0,10,,,,,3,,,61,70
62016,note_on,,,,,64,0,11,,,,,4,,,49,70
62016,note_on,,,,,64,0,13,,,,,5,,,61,100
62016,note_on,,,,,0,0,12,,,,,5,,,73,100
62016,note_on,,,,,64,0,12,,,,,5,,,76,100
62080,note_off,,,,,64,0,8,,,,,1,,,76,100
62080,note_off,,,,,64,0,12,,,,,5,,,80,100
62112,note_on,,,,,32,0,8,,,,,1,,,78,70
62144,note_off,,,,,128,0,9,,,,,2,,,64,100
62144,note_off,,,,,128,0,11,,,,,4,,,49,100
62144,note_off,,,,,0,0,12,,,,,5,,,73,100
62144,note_off,,,,,128,0,10,,,,,3,,,61,100
62144,note_off,,,,,64,0,12,,,,,5,,,76,100
62144,note_off,,,,,128,0,13,,,,,5,,,61,100
62176,note_off,,,,,64,0,8,,,,,1,,,78,100
62208,note_on,,,,,64,0,11,,,,,4,,,48,70
62208,note_on,,,,,64,0,9,,,,,2,,,63,70
62208,note_on,,,,,0,0,12,,,,,5,,,75,100
62208,note_on,,,,,0,0,12,,,,,5,,,72,100
62208,note_on,,,,,64,0,12,,,,,5,,,80,100
62208,note_on,,,,,32,0,8,,,,,1,,,80,70
62208,note_on,,,,,64,0,13,,,,,5,,,60,100
62208,note_on,,,,,64,0,10,,,,,3,,,60,70
62272,note_off,,,,,64,0,8,,,,,1,,,80,100
62304,note_on,,,,,32,0,8,,,,,1,,,81,73
62336,note_off,,,,,128,0,13,,,,,5,,,60,100
62336,note_off,,,,,128,0,11,,,,,4,,,48,100
62336,note_off,,,,,128,0,10,,,,,3,,,60,100
62336,note_off,,,,,0,0,12,,,,,5,,,75,100
62336,note_off,,,,,128,0,9,,,,,2,,,63,100
62336,note_off,,,,,128,0,12,,,,,5,,,72,100
62368,note_off,,,,,64,0,8,,,,,1,,,81,100
62400,note_on,,,,,64,0,12,,,,,5,,,73,100
62400,note_on,,,,,32,0,8,,,,,1,,,80,77
62400,note_on,,,,,64,0,9,,,,,2,,,61,77
62400,note_on,,,,,64,0,13,,,,,5,,,58,100
62400,note_on,,,,,64,0,10,,,,,3,,,58,77
62400,note_on,,,,,64,0,11,,,,,4,,,46,77
62464,note_off,,,,,64,0,8,,,,,1,,,80,100
62464,note_off,,,,,64,0,12,,,,,5,,,80,100
62496,note_on,,,,,32,0,8,,,,,1,,,81,81
62528,note_off,,,,,128,0,11,,,,,4,,,46,100
62528,note_off,,,,,64,0,12,,,,,5,,,73,100
62528,note_off,,,,,128,0,10,,,,,3,,,58,100
62528,note_off,,,,,128,0,13,,,,,5,,,58,100
62528,note_off,,,,,128,0,9,,,,,2,,,61,100
62560,note_off,,,,,64,0,8,,,,,1,,,81,100
62592,note_on,,,,,64,0,9,,,,,2,,,63,84
62592,note_on,,,,,32,0,8,,,,,1,,,80,84
62592,note_on,,,,,64,0,10,,,,,3,,,60,84
62592,note_on,,,,,64,0,11,,,,,4,,,48,84
62592,note_on,,,,,64,0,13,,,,,5,,,60,100
62592,note_on,,,,,64,0,12,,,,,5,,,75,100
62592,note_on,,,,,0,0,12,,,,,5,,,80,100
62656,note_off,,,,,64,0,8,,,,,1,,,80,100
62688,note_on,,,,,32,0,8,,,,,1,,,81,88
62720,note_off,,,,,128,0,11,,,,,4,,,48,100
62720,note_off,,,,,128,0,9,,,,,2,,,63,100
62720,note_off,,,,,128,0,10,,,,,3,,,60,100
62720,note_off,,,,,128,0,13,,,,,5,,,60,100
62720,note_off,,,,,128,0,12,,,,,5,,,75,100
62752,note_off,,,,,64,0,8,,,,,1,,,81,100
62784,note_on,,,,,0,0,12,,,,,5,,,75,100
62784,note_on,,,,,64,0,9,,,,,2,,,60,92
62784,note_on,,,,,32,0,8,,,,,1,,,80,92
62784,note_on,,,,,64,0,10,,,,,3,,,56,92
62784,note_on,,,,,64,0,12,,,,,5,,,72,100
62784,note_on,,,,,64,0,13,,,,,5,,,56,100
62784,note_on,,,,,64,0,11,,,,,4,,,44,92
62848,note_off,,,,,64,0,12,,,,,5,,,80,100
62848,note_off,,,,,64,0,8,,,,,1,,,80,100
62880,note_on,,,,,32,0,8,,,,,1,,,81,96
62912,note_off,,,,,64,0,12,,,,,5,,,72,100
62912,note_off,,,,,0,0,12,,,,,5,,,75,100
62912,note_off,,,,,128,0,10,,,,,3,,,56,100
62912,note_off,,,,,128,0,13,,,,,5,,,56,100
62912,note_off,,,,,128,0,11,,,,,4,,,44,100
62912,note_off,,,,,128,0,9,,,,,2,,,60,100
62944,note_off,,,,,64,0,8,,,,,1,,,81,100
62976,note_on,,,,,64,0,10,,,,,3,,,61,99
62976,note_on,,,,,32,0,8,,,,,1,,,80,99
62976,note_on,,,,,64,0,9,,,,,2,,,64,99
62976,note_on,,,,,64,0,13,,,,,5,,,61,100
62976,note_on,,,,,64,0,11,,,,,4,,,49,99
62976,note_on,,,,,0,0,12,,,,,5,,,80,100
62976,note_on,,,,,0,0,12,,,,,5,,,76,100
62976,note_on,,,,,64,0,12,,,,,5,,,73,100
63040,note_off,,,,,64,0,8,,,,,1,,,80,100
63072,note_on,,,,,32,0,8,,,,,1,,,78,100
63104,note_off,,,,,128,0,11,,,,,4,,,49,100
63104,note_off,,,,,0,0,12,,,,,5,,,76,100
63104,note_off,,,,,128,0,13,,,,,5,,,61,100
63104,note_off,,,,,128,0,9,,,,,2,,,64,100
63104,note_off,,,,,128,0,12,,,,,5,,,73,100
63104,note_off,,,,,128,0,10,,,,,3,,,61,100
63136,note_off,,,,,64,0,8,,,,,1,,,78,100
63168,note_on,,,,,64,0,9,,,,,2,,,66,100
63168,note_on,,,,,64,0,11,,,,,4,,,51,100
63168,note_on,,,,,64,0,13,,,,,5,,,63,100
63168,note_on,,,,,32,0,8,,,,,1,,,76,100
63168,note_on,,,,,64,0,12,,,,,5,,,78,100
63168,note_on,,,,,64,0,10,,,,,3,,,63,100
63232,note_off,,,,,64,0,8,,,,,1,,,76,100
63232,note_off,,,,,64,0,12,,,,,5,,,80,100
63264,note_on,,,,,32,0,8,,,,,1,,,75,100
63296,note_off,,,,,128,0,10,,,,,3,,,63,100
63296,note_off,,,,,128,0,11,,,,,4,,,51,100
63296,note_off,,,,,128,0,9,,,,,2,,,66,100
63296,note_off,,,,,128,0,13,,,,,5,,,63,100
63296,note_off,,,,,64,0,12,,,,,5,,,78,100
63328,note_off,,,,,64,0,8,,,,,1,,,75,100
63360,note_on,,,,,64,0,9,,,,,2,,,68,100
63360,note_on,,,,,64,0,10,,,,,3,,,64,100
63360,note_on,,,,,64,0,12,,,,,5,,,80,100
63360,note_on,,,,,0,0,12,,,,,5,,,73,100
63360,note_on,,,,,32,0,8,,,,,1,,,73,100
63360,note_on,,,,,64,0,13,,,,,5,,,64,100
63360,note_on,,,,,64,0,11,,,,,4,,,52,100
63424,note_off,,,,,64,0,8,,,,,1,,,73,100
63456,note_on,,,,,32,0,8,,,,,1,,,75,100
63488,note_off,,,,,128,0,9,,,,,2,,,68,100
63488,note_off,,,,,128,0,10,,,,,3,,,64,100
63488,note_off,,,,,128,0,12,,,,,5,,,73,100
63488,note_off,,,,,128,0,13,,,,,5,,,64,100
63488,note_off,,,,,128,0,11,,,,,4,,,52,100
63520,note_off,,,,,64,0,8,,,,,1,,,75,100
63552,note_on,,,,,64,0,11,,,,,4,,,49,100
63552,note_on,,,,,64,0,10,,,,,3,,,61,100
63552,note_on,,,,,64,0,13,,,,,5,,,61,100
63552,note_on,,,,,64,0,12,,,,,5,,,76,100
63552,note_on,,,,,0,0,12,,,,,5,,,73,100
63552,note_on,,,,,32,0,8,,,,,1,,,76,100
63552,note_on,,,,,64,0,9,,,,,2,,,64,100
63616,note_off,,,,,64,0,8,,,,,1,,,76,100
63616,note_off,,,,,64,0,12,,,,,5,,,80,100
63648,note_on,,,,,32,0,8,,,,,1,,,78,100
63680,note_off,,,,,128,0,9,,,,,2,,,64,100
63680,note_off,,,,,128,0,11,,,,,4,,,49,100
63680,note_off,,,,,128,0,13,,,,,5,,,61,100
63680,note_off,,,,,128,0,10,,,,,3,,,61,100
63680,note_off,,,,,64,0,12,,,,,5,,,76,100
63680,note_off,,,,,0,0,12,,,,,5,,,73,100
63712,note_off,,,,,64,0,8,,,,,1,,,78,100
63744,note_on,,,,,0,0,12,,,,,5,,,72,100
63744,note_on,,,,,0,0,12,,,,,5,,,75,100
63744,note_on,,,,,64,0,11,,,,,4,,,48,100
63744,note_on,,,,,64,0,12,,,,,5,,,80,100
63744,note_on,,,,,64,0,13,,,,,5,,,60,100
63744,note_on,,,,,64,0,9,,,,,2,,,63,100
63744,note_on,,,,,64,0,10,,,,,3,,,60,100
63744,note_on,,,,,32,0,8,,,,,1,,,80,100
63808,note_off,,,,,64,0,8,,,,,1,,,80,100
63840,note_on,,,,,32,0,8,,,,,1,,,81,100
63872,note_off,,,,,0,0,12,,,,,5,,,75,100
63872,note_off,,,,,128,0,10,,,,,3,,,60,100
63872,note_off,,,,,128,0,12,,,,,5,,,72,100
63872,note_off,,,,,128,0,9,,,,,2,,,63,100
63872,note_off,,,,,128,0,11,,,,,4,,,48,100
63872,note_off,,,,,128,0,13,,,,,5,,,60,100
63904,note_off,,,,,64,0,8,,,,,1,,,81,100
63936,note_on,,,,,32,0,8,,,,,1,,,80,100
63936,note_on,,,,,64,0,12,,,,,5,,,73,100
63936,note_on,,,,,64,0,11,,,,,4,,,46,100
63936,note_on,,,,,64,0,13,,,,,5,,,58,100
63936,note_on,,,,,64,0,10,,,,,3,,,58,100
63936,note_on,,,,,64,0,9,,,,,2,,,61,100
64000,note_off,,,,,64,0,8,,,,,1,,,80,100
64000,note_off,,,,,64,0,12,,,,,5,,,80,100
64032,note_on,,,,,32,0,8,,,,,1,,,81,100
64064,note_off,,,,,64,0,12,,,,,5,,,73,100
64064,note_off,,,,,128,0,11,,,,,4,,,46,100
64064,note_off,,,,,128,0,13,,,,,5,,,58,100
64064,note_off,,,,,128,0,10,,,,,3,,,58,100
64064,note_off,,,,,128,0,9,,,,,2,,,61,100
64096,note_off,,,,,64,0,8,,,,,1,,,81,100
64128,note_on,,,,,64,0,11,,,,,4,,,48,100
64128,note_on,,,,,0,0,12,,,,,5,,,80,100
64128,note_on,,,,,64,0,12,,,,,5,,,75,100
64128,note_on,,,,,32,0,8,,,,,1,,,80,100
64128,note_on,,,,,64,0,10,,,,,3,,,60,100
64128,note_on,,,,,64,0,9,,,,,2,,,63,100
64128,note_on,,,,,64,0,13,,,,,5,,,60,100
64192,note_off,,,,,64,0,8,,,,,1,,,80,100
64224,note_on,,,,,32,0,8,,,,,1,,,81,100
64256,note_off,,,,,128,0,12,,,,,5,,,75,100
64256,note_off,,,,,128,0,11,,,,,4,,,48,100
64256,note_off,,,,,128,0,13,,,,,5,,,60,100
64256,note_off,,,,,128,0,10,,,,,3,,,60,100
64256,note_off,,,,,128,0,9,,,,,2,,,63,100
64288,note_off,,,,,64,0,8,,,,,1,,,81,100
64320,note_on,,,,,64,0,10,,,,,3,,,56,100
64320,note_on,,,,,64,0,11,,,,,4,,,44,100
64320,note_on,,,,,64,0,12,,,,,5,,,72,100
64320,note_on,,,,,64,0,9,,,,,2,,,60,100
64320,note_on,,,,,64,0,13,,,,,5,,,56,100
64320,note_on,,,,,32,0,8,,,,,1,,,80,100
64320,note_on,,,,,0,0,12,,,,,5,,,75,100
64384,note_off,,,,,64,0,12,,,,,5,,,80,100
64384,note_off,,,,,64,0,8,,,,,1,,,80,100
64416,note_on,,,,,32,0,8,,,,,1,,,81,100
64448,note_off,,,,,64,0,12,,,,,5,,,72,100
64448,note_off,,,,,0,0,12,,,,,5,,,75,100
64448,note_off,,,,,128,0,9,,,,,2,,,60,100
64448,note_off,,,,,128,0,11,,,,,4,,,44,100
64448,note_off,,,,,128,0,10,,,,,3,,,56,100
64448,note_off,,,,,128,0,13,,,,,5,,,56,100
64480,note_off,,,,,64,0,8,,,,,1,,,81,100
64512,note_on,,,,,64,0,12,,,,,5,,,73,100
64512,note_on,,,,,0,0,12,,,,,5,,,80,100
64512,note_on,,,,,0,0,12,,,,,5,,,76,100
64512,note_on,,,,,64,0,11,,,,,4,,,49,100
64512,note_on,,,,,32,0,8,,,,,1,,,80,100
64512,note_on,,,,,64,0,9,,,,,2,,,64,100
64512,note_on,,,,,64,0,13,,,,,5,,,61,100
64512,note_on,,,,,64,0,10,,,,,3,,,61,100
64640,note_off,,,,,128,0,9,,,,,2,,,64,100
64640,note_off,,,,,128,0,11,,,,,4,,,49,100
64640,note_off,,,,,0,0,12,,,,,5,,,76,100
64640,note_off,,,,,128,0,8,,,,,1,,,80,100
64640,note_off,,,,,128,0,12,,,,,5,,,73,100
64640,note_off,,,,,128,0,13,,,,,5,,,61,100
64640,note_off,,,,,128,0,10,,,,,3,,,61,100
64704,note_on,,,,,64,0,11,,,,,4,,,51,93
64704,note_on,,,,,64,0,10,,,,,3,,,63,93
64704,note_on,,,,,64,0,13,,,,,5,,,63,100
64704,note_on,,,,,64,0,12,,,,,5,,,78,100
64704,note_on,,,,,64,0,8,,,,,1,,,73,93
64704,note_on,,,,,64,0,9,,,,,2,,,66,93
64768,note_off,,,,,64,0,12,,,,,5,,,80,100
64832,note_off,,,,,64,0,12,,,,,5,,,78,100
64832,note_off,,,,,128,0,10,,,,,3,,,63,100
64832,note_off,,,,,128,0,8,,,,,1,,,73,100
64832,note_off,,,,,128,0,13,,,,,5,,,63,100
64832,note_off,,,,,128,0,11,,,,,4,,,51,100
64832,note_off,,,,,128,0,9,,,,,2,,,66,100
64896,note_on,,,,,64,0,10,,,,,3,,,64,86
64896,note_on,,,,,64,0,13,,,,,5,,,64,100
64896,note_on,,,,,64,0,11,,,,,4,,,52,86
64896,note_on,,,,,0,0,12,,,,,5,,,73,100
64896,note_on,,,,,64,0,12,,,,,5,,,80,100
64896,note_on,,,,,64,0,9,,,,,2,,,68,86
64992,note_on,,,,,160,0,8,,,,,1,,,76,85
65024,note_off,,,,,128,0,11,,,,,4,,,52,100
65024,note_off,,,,,128,0,13,,,,,5,,,64,100
65024,note_off,,,,,128,0,10,,,,,3,,,64,100
65024,note_off,,,,,128,0,9,,,,,2,,,68,100
65024,note_off,,,,,128,0,12,,,,,5,,,73,100
65056,note_off,,,,,64,0,8,,,,,1,,,76,100
65088,note_on,,,,,64,0,13,,,,,5,,,61,100
65088,note_on,,,,,64,0,10,,,,,3,,,61,85
65088,note_on,,,,,64,0,9,,,,,2,,,64,85
65088,note_on,,,,,0,0,12,,,,,5,,,76,100
65088,note_on,,,,,64,0,11,,,,,4,,,49,85
65088,note_on,,,,,64,0,12,,,,,5,,,73,100
65088,note_on,,,,,32,0,8,,,,,1,,,78,85
65152,note_off,,,,,64,0,8,,,,,1,,,78,100
65152,note_off,,,,,64,0,12,,,,,5,,,80,100
65184,note_on,,,,,32,0,8,,,,,1,,,80,86
65216,note_off,,,,,64,0,12,,,,,5,,,73,100
65216,note_off,,,,,128,0,13,,,,,5,,,61,100
65216,note_off,,,,,128,0,9,,,,,2,,,64,100
65216,note_off,,,,,128,0,10,,,,,3,,,61,100
65216,note_off,,,,,0,0,12,,,,,5,,,76,100
65216,note_off,,,,,128,0,11,,,,,4,,,49,100
65248,note_off,,,,,64,0,8,,,,,1,,,80,100
65280,note_on,,,,,32,0,8,,,,,1,,,81,87
65280,note_on,,,,,0,0,12,,,,,5,,,69,100
65280,note_on,,,,,0,0,12,,,,,5,,,73,100
65280,note_on,,,,,64,0,9,,,,,2,,,63,87
65280,note_on,,,,,64,0,12,,,,,5,,,66,100
65280,note_on,,,,,64,0,10,,,,,3,,,54,87
65280,note_on,,,,,64,0,11,,,,,4,,,42,87
65280,note_on,,,,,64,0,13,,,,,5,,,54,100
65408,note_off,,,,,128,0,11,,,,,4,,,42,100
65408,note_off,,,,,128,0,9,,,,,2,,,63,100
65408,note_off,,,,,128,0,8,,,,,1,,,81,100
65408,note_off,,,,,128,0,12,,,,,5,,,66,100
65408,note_off,,,,,0,0,12,,,,,5,,,69,100
65408,note_off,,,,,128,0,13,,,,,5,,,54,100
65408,note_off,,,,,128,0,10,,,,,3,,,54,100
65472,note_on,,,,,64,0,13,,,,,5,,,52,100
65472,note_on,,,,,64,0,12,,,,,5,,,68,100
65472,note_on,,,,,64,0,8,,,,,1,,,75,89
65472,note_on,,,,,64,0,9,,,,,2,,,61,89
65472,note_on,,,,,64,0,10,,,,,3,,,52,89
65472,note_on,,,,,64,0,11,,,,,4,,,40,89
65536,note_off,,,,,64,0,12,,,,,5,,,73,100
65600,note_off,,,,,128,0,13,,,,,5,,,52,100
65600,note_off,,,,,64,0,12,,,,,5,,,68,100
65600,note_off,,,,,128,0,10,,,,,3,,,52,100
65600,note_off,,,,,128,0,11,,,,,4,,,40,100
65600,note_off,,,,,128,0,8,,,,,1,,,75,100
65600,note_off,,,,,128,0,9,,,,,2,,,61,100
65664,note_on,,,,,64,0,8,,,,,1,,,75,91
65664,note_on,,,,,64,0,9,,,,,2,,,63,91
65664,note_on,,,,,64,0,13,,,,,5,,,54,100
65664,note_on,,,,,64,0,12,,,,,5,,,69,100
65664,note_on,,,,,0,0,12,,,,,5,,,73,100
65664,note_on,,,,,64,0,11,,,,,4,,,42,91
65664,note_on,,,,,64,0,10,,,,,3,,,54,91
65728,note_off,,,,,64,0,8,,,,,1,,,75,100
65760,note_on,,,,,32,0,8,,,,,1,,,78,92
65792,note_off,,,,,128,0,9,,,,,2,,,63,100
65792,note_off,,,,,128,0,12,,,,,5,,,69,100
65792,note_off,,,,,128,0,10,,,,,3,,,54,100
65792,note_off,,,,,128,0,11,,,,,4,,,42,100
65792,note_off,,,,,128,0,13,,,,,5,,,54,100
65824,note_off,,,,,64,0,8,,,,,1,,,78,100
65856,note_on,,,,,64,0,11,,,,,4,,,39,93
65856,note_on,,,,,64,0,10,,,,,3,,,51,93
65856,note_on,,,,,0,0,12,,,,,5,,,69,100
65856,note_on,,,,,64,0,12,,,,,5,,,66,100
65856,note_on,,,,,32,0,8,,,,,1,,,80,93
65856,note_on,,,,,64,0,9,,,,,2,,,59,93
65856,note_on,,,,,64,0,13,,,,,5,,,51,100
65920,note_off,,,,,64,0,12,,,,,5,,,73,100
65920,note_off,,,,,64,0,8,,,,,1,,,80,100
65952,note_on,,,,,32,0,8,,,,,1,,,81,94
65984,note_off,,,,,128,0,10,,,,,3,,,51,100
65984,note_off,,,,,128,0,13,,,,,5,,,51,100
65984,note_off,,,,,0,0,12,,,,,5,,,69,100
65984,note_off,,,,,64,0,12,,,,,5,,,66,100
65984,note_off,,,,,128,0,9,,,,,2,,,59,100
65984,note_off,,,,,128,0,11,,,,,4,,,39,100
66016,note_off,,,,,64,0,8,,,,,1,,,81,100
66048,note_on,,,,,0,0,12,,,,,5,,,75,100
66048,note_on,,,,,0,0,12,,,,,5,,,71,100
66048,note_on,,,,,64,0,12,,,,,5,,,68,100
66048,note_on,,,,,64,0,11,,,,,4,,,44,95
66048,note_on,,,,,64,0,10,,,,,3,,,56,95
66048,note_on,,,,,64,0,9,,,,,2,,,64,95
66048,note_on,,,,,32,0,8,,,,,1,,,83,95
66048,note_on,,,,,64,0,13,,,,,5,,,56,100
66176,note_off,,,,,128,0,11,,,,,4,,,44,100
66176,note_off,,,,,128,0,10,,,,,3,,,56,100
66176,note_off,,,,,128,0,9,,,,,2,,,64,100
66176,note_off,,,,,128,0,12,,,,,5,,,68,100
66176,note_off,,,,,0,0,12,,,,,5,,,71,100
66176,note_off,,,,,128,0,8,,,,,1,,,83,100
66176,note_off,,,,,128,0,13,,,,,5,,,56,100
66240,note_on,,,,,64,0,10,,,,,3,,,54,97
66240,note_on,,,,,64,0,12,,,,,5,,,69,100
66240,note_on,,,,,64,0,8,,,,,1,,,76,97
66240,note_on,,,,,64,0,11,,,,,4,,,42,97
66240,note_on,,,,,64,0,9,,,,,2,,,69,97
66240,note_on,,,,,64,0,13,,,,,5,,,54,100
66304,note_off,,,,,64,0,12,,,,,5,,,75,100
66368,note_off,,,,,128,0,13,,,,,5,,,54,100
66368,note_off,,,,,128,0,8,,,,,1,,,76,100
66368,note_off,,,,,128,0,10,,,,,3,,,54,100
66368,note_off,,,,,128,0,9,,,,,2,,,69,100
66368,note_off,,,,,128,0,11,,,,,4,,,42,100
66368,note_off,,,,,64,0,12,,,,,5,,,69,100
66432,note_on,,,,,64,0,10,,,,,3,,,56,98
66432,note_on,,,,,64,0,13,,,,,5,,,56,100
66432,note_on,,,,,64,0,12,,,,,5,,,71,100
66432,note_on,,,,,64,0,11,,,,,4,,,44,98
66432,note_on,,,,,64,0,9,,,,,2,,,71,98
66432,note_on,,,,,64,0,8,,,,,1,,,76,98
66432,note_on,,,,,0,0,12,,,,,5,,,75,100
66560,note_off,,,,,128,0,9,,,,,2,,,71,100
66560,note_off,,,,,128,0,8,,,,,1,,,76,100
66560,note_off,,,,,128,0,10,,,,,3,,,56,100
66560,note_off,,,,,128,0,13,,,,,5,,,56,100
66560,note_off,,,,,128,0,12,,,,,5,,,71,100
66560,note_off,,,,,128,0,11,,,,,4,,,44,100
66624,note_on,,,,,64,0,11,,,,,4,,,40,100
66624,note_on,,,,,64,0,10,,,,,3,,,52,100
66624,note_on,,,,,0,0,12,,,,,5,,,71,100
66624,note_on,,,,,64,0,8,,,,,1,,,83,100
66624,note_on,,,,,64,0,9,,,,,2,,,68,100
66624,note_on,,,,,64,0,12,,,,,5,,,68,100
66624,note_on,,,,,64,0,13,,,,,5,,,52,100
66688,note_off,,,,,64,0,12,,,,,5,,,75,100
66752,note_off,,,,,128,0,13,,,,,5,,,52,100
66752,note_off,,,,,128,0,8,,,,,1,,,83,100
66752,note_off,,,,,128,0,9,,,,,2,,,68,100
66752,note_off,,,,,128,0,10,,,,,3,,,52,100
66752,note_off,,,,,128,0,11,,,,,4,,,40,100
66752,note_off,,,,,64,0,12,,,,,5,,,68,100
66752,note_off,,,,,0,0,12,,,,,5,,,71,100
66816,note_on,,,,,64,0,9,,,,,2,,,64,102
66816,note_on,,,,,64,0,10,,,,,3,,,57,102
66816,note_on,,,,,64,0,8,,,,,1,,,85,102
66816,note_on,,,,,64,0,11,,,,,4,,,45,102
66816,note_on,,,,,64,0,13,,,,,5,,,57,100
66816,note_on,,,,,0,0,12,,,,,5,,,73,100
66816,note_on,,,,,64,0,12,,,,,5,,,64,100
66944,note_off,,,,,0,0,12,,,,,5,,,73,100
66944,note_off,,,,,128,0,12,,,,,5,,,64,100
66944,note_off,,,,,128,0,10,,,,,3,,,57,100
66944,note_off,,,,,128,0,9,,,,,2,,,64,100
66944,note_off,,,,,128,0,13,,,,,5,,,57,100
66944,note_off,,,,,128,0,11,,,,,4,,,45,100
66944,note_off,,,,,128,0,8,,,,,1,,,85,100
67008,note_on,,,,,64,0,10,,,,,3,,,61,104
67008,note_on,,,,,64,0,11,,,,,4,,,49,104
67008,note_on,,,,,64,0,9,,,,,2,,,64,104
67008,note_on,,,,,64,0,8,,,,,1,,,81,104
67008,note_on,,,,,0,0,12,,,,,5,,,76,100
67008,note_on,,,,,64,0,12,,,,,5,,,69,100
67008,note_on,,,,,64,0,13,,,,,5,,,61,100
67136,note_off,,,,,128,0,10,,,,,3,,,61,100
67136,note_off,,,,,0,0,12,,,,,5,,,76,100
67136,note_off,,,,,128,0,11,,,,,4,,,49,100
67136,note_off,,,,,128,0,13,,,,,5,,,61,100
67136,note_off,,,,,128,0,12,,,,,5,,,69,100
67136,note_off,,,,,128,0,9,,,,,2,,,64,100
67136,note_off,,,,,128,0,8,,,,,1,,,81,100
67200,note_on,,,,,64,0,9,,,,,2,,,66,106
67200,note_on,,,,,64,0,11,,,,,4,,,47,106
67200,note_on,,,,,64,0,13,,,,,5,,,59,100
67200,note_on,,,,,64,0,10,,,,,3,,,59,106
67200,note_on,,,,,64,0,8,,,,,1,,,87,106
67200,note_on,,,,,0,0,12,,,,,5,,,75,100
67200,note_on,,,,,64,0,12,,,,,5,,,66,100
67328,note_off,,,,,128,0,11,,,,,4,,,47,100
67328,note_off,,,,,128,0,13,,,,,5,,,59,100
67328,note_off,,,,,128,0,10,,,,,3,,,59,100
67328,note_off,,,,,128,0,9,,,,,2,,,66,100
67328,note_off,,,,,128,0,8,,,,,1,,,87,100
67328,note_off,,,,,0,0,12,,,,,5,,,75,100
67328,note_off,,,,,128,0,12,,,,,5,,,66,100
67392,note_on,,,,,64,0,13,,,,,5,,,57,100
67392,note_on,,,,,64,0,9,,,,,2,,,66,108
67392,note_on,,,,,64,0,10,,,,,3,,,57,108
67392,note_on,,,,,0,0,12,,,,,5,,,73,100
67392,note_on,,,,,64,0,8,,,,,1,,,83,108
67392,note_on,,,,,64,0,12,,,,,5,,,64,100
67392,note_on,,,,,64,0,11,,,,,4,,,45,108
67520,note_off,,,,,128,0,10,,,,,3,,,57,100
67520,note_off,,,,,0,0,12,,,,,5,,,73,100
67520,note_off,,,,,128,0,11,,,,,4,,,45,100
67520,note_off,,,,,128,0,9,,,,,2,,,66,100
67520,note_off,,,,,128,0,13,,,,,5,,,57,100
67520,note_off,,,,,128,0,12,,,,,5,,,64,100
67520,note_off,,,,,128,0,8,,,,,1,,,83,100
67584,note_on,,,,,64,0,11,,,,,4,,,44,109
67584,note_on,,,,,64,0,12,,,,,5,,,64,100
67584,note_on,,,,,64,0,9,,,,,2,,,71,109
67584,note_on,,,,,64,0,10,,,,,3,,,56,109
67584,note_on,,,,,64,0,13,,,,,5,,,56,100
67584,note_on,,,,,0,0,12,,,,,5,,,71,100
67584,note_on,,,,,64,0,8,,,,,1,,,88,109
67712,note_off,,,,,128,0,12,,,,,5,,,64,100
67712,note_off,,,,,0,0,12,,,,,5,,,71,100
67712,note_off,,,,,128,0,11,,,,,4,,,44,100
67712,note_off,,,,,128,0,8,,,,,1,,,88,100
67712,note_off,,,,,128,0,10,,,,,3,,,56,100
67712,note_off,,,,,128,0,13,,,,,5,,,56,100
67776,note_on,,,,,64,0,12,,,,,5,,,69,100
67776,note_on,,,,,0,0,12,,,,,5,,,73,100
67776,note_on,,,,,64,0,11,,,,,4,,,42,100
67776,note_on,,,,,64,0,8,,,,,1,,,76,100
67776,note_on,,,,,64,0,13,,,,,5,,,54,100
67776,note_on,,,,,64,0,10,,,,,3,,,54,100
67840,note_off,,,,,256,0,9,,,,,2,,,71,100
67904,note_off,,,,,128,0,13,,,,,5,,,54,100
67904,note_off,,,,,0,0,12,,,,,5,,,73,100
67904,note_off,,,,,128,0,12,,,,,5,,,69,100
67904,note_off,,,,,128,0,10,,,,,3,,,54,100
67904,note_off,,,,,128,0,11,,,,,4,,,42,100
67968,note_on,,,,,64,0,12,,,,,5,,,68,100
67968,note_off,,,,,192,0,8,,,,,1,,,76,100
67968,note_on,,,,,64,0,13,,,,,5,,,52,100
67968,note_on,,,,,64,0,11,,,,,4,,,40,96
67968,note_on,,,,,64,0,10,,,,,3,,,52,96
67968,note_on,,,,,0,0,12,,,,,5,,,71,100
68064,note_on,,,,,20960,0,7,,,,,0,,,76,100
68096,note_off,,,,,128,0,11,,,,,4,,,40,100
68096,note_off,,,,,0,0,12,,,,,5,,,71,100
68096,note_off,,,,,128,0,12,,,,,5,,,68,100
68096,note_off,,,,,128,0,13,,,,,5,,,52,100
68096,note_off,,,,,128,0,10,,,,,3,,,52,100
68128,note_off,,,,,64,0,7,,,,,0,,,76,100
68160,note_on,,,,,64,0,11,,,,,4,,,38,91
68160,note_on,,,,,64,0,10,,,,,3,,,50,91
68160,note_on,,,,,64,0,13,,,,,5,,,50,100
68160,note_on,,,,,64,0,12,,,,,5,,,66,100
68160,note_on,,,,,32,0,7,,,,,0,,,80,100
68160,note_on,,,,,0,0,12,,,,,5,,,69,100
68224,note_off,,,,,64,0,7,,,,,0,,,80,100
68256,note_on,,,,,32,0,7,,,,,0,,,76,100
68288,note_off,,,,,128,0,12,,,,,5,,,66,100
68288,note_off,,,,,0,0,12,,,,,5,,,69,100
68288,note_off,,,,,128,0,11,,,,,4,,,38,100
68288,note_off,,,,,128,0,10,,,,,3,,,50,100
68288,note_off,,,,,128,0,13,,,,,5,,,50,100
68320,note_off,,,,,64,0,7,,,,,0,,,76,100
68352,note_on,,,,,64,0,13,,,,,5,,,49,100
68352,note_on,,,,,64,0,12,,,,,5,,,64,100
68352,note_on,,,,,0,0,12,,,,,5,,,69,100
68352,note_on,,,,,64,0,11,,,,,4,,,37,86
68352,note_on,,,,,32,0,7,,,,,0,,,81,100
68352,note_on,,,,,64,0,10,,,,,3,,,49,86
68416,note_off,,,,,64,0,7,,,,,0,,,81,100
68448,note_on,,,,,32,0,7,,,,,0,,,69,100
68512,note_off,,,,,64,0,7,,,,,0,,,69,100
68544,note_on,,,,,32,0,7,,,,,0,,,73,100
68608,note_off,,,,,256,0,10,,,,,3,,,49,100
68608,note_off,,,,,0,0,12,,,,,5,,,69,100
68608,note_off,,,,,256,0,12,,,,,5,,,64,100
68608,note_off,,,,,64,0,7,,,,,0,,,73,100
68608,note_off,,,,,256,0,13,,,,,5,,,49,100
68608,note_off,,,,,256,0,11,,,,,4,,,37,100
68640,note_on,,,,,32,0,7,,,,,0,,,69,100
68704,note_off,,,,,64,0,7,,,,,0,,,69,100
68736,note_on,,,,,32,0,7,,,,,0,,,76,100
68800,note_off,,,,,64,0,7,,,,,0,,,76,100
68832,note_on,,,,,32,0,7,,,,,0,,,64,100
68896,note_off,,,,,64,0,7,,,,,0,,,64,100
68928,note_on,,,,,32,0,7,,,,,0,,,68,100
68992,note_off,,,,,64,0,7,,,,,0,,,68,100
69024,note_on,,,,,32,0,7,,,,,0,,,64,100
69088,note_off,,,,,64,0,7,,,,,0,,,64,100
69120,note_on,,,,,0,0,12,,,,,5,,,69,100
69120,note_on,,,,,512,0,12,,,,,5,,,64,100
69120,note_on,,,,,512,0,13,,,,,5,,,49,100
69120,note_on,,,,,512,0,10,,,,,3,,,49,85
69120,note_on,,,,,32,0,7,,,,,0,,,69,100
69120,note_on,,,,,512,0,11,,,,,4,,,37,85
69184,note_off,,,,,64,0,7,,,,,0,,,69,100
69216,note_on,,,,,32,0,7,,,,,0,,,57,100
69280,note_off,,,,,64,0,7,,,,,0,,,57,100
69312,note_on,,,,,32,0,7,,,,,0,,,61,100
69376,note_off,,,,,256,0,11,,,,,4,,,37,100
69376,note_off,,,,,256,0,12,,,,,5,,,64,100
69376,note_off,,,,,256,0,13,,,,,5,,,49,100
69376,note_off,,,,,0,0,12,,,,,5,,,69,100
69376,note_off,,,,,256,0,10,,,,,3,,,49,100
69376,note_off,,,,,64,0,7,,,,,0,,,61,100
69408,note_on,,,,,32,0,7,,,,,0,,,57,100
69472,note_off,,,,,64,0,7,,,,,0,,,57,100
69504,note_on,,,,,32,0,7,,,,,0,,,64,100
69568,note_off,,,,,64,0,7,,,,,0,,,64,100
69600,note_on,,,,,32,0,7,,,,,0,,,68,100
69664,note_off,,,,,64,0,7,,,,,0,,,68,100
69696,note_on,,,,,32,0,7,,,,,0,,,66,100
69760,note_off,,,,,64,0,7,,,,,0,,,66,100
69792,note_on,,,,,32,0,7,,,,,0,,,64,100
69856,note_off,,,,,64,0,7,,,,,0,,,64,100
69888,note_on,,,,,512,0,13,,,,,5,,,49,100
69888,note_on,,,,,0,0,12,,,,,5,,,69,100
69888,note_on,,,,,512,0,11,,,,,4,,,37,85
69888,note_on,,,,,512,0,10,,,,,3,,,49,85
69888,note_on,,,,,32,0,7,,,,,0,,,69,100
69888,note_on,,,,,512,0,12,,,,,5,,,64,100
69952,note_off,,,,,64,0,7,,,,,0,,,69,100
69984,note_on,,,,,32,0,7,,,,,0,,,73,100
70048,note_off,,,,,64,0,7,,,,,0,,,73,100
70080,note_on,,,,,32,0,7,,,,,0,,,71,100
70144,note_off,,,,,0,0,12,,,,,5,,,69,100
70144,note_off,,,,,64,0,7,,,,,0,,,71,100
70144,note_off,,,,,256,0,13,,,,,5,,,49,100
70144,note_off,,,,,256,0,11,,,,,4,,,37,100
70144,note_off,,,,,256,0,12,,,,,5,,,64,100
70144,note_off,,,,,256,0,10,,,,,3,,,49,100
70176,note_on,,,,,32,0,7,,,,,0,,,69,100
70240,note_off,,,,,64,0,7,,,,,0,,,69,100
70272,note_on,,,,,32,0,7,,,,,0,,,76,100
70336,note_off,,,,,64,0,7,,,,,0,,,76,100
70368,note_on,,,,,32,0,7,,,,,0,,,80,100
70432,note_off,,,,,64,0,7,,,,,0,,,80,100
70464,note_on,,,,,32,0,7,,,,,0,,,78,100
70528,note_off,,,,,64,0,7,,,,,0,,,78,100
70560,note_on,,,,,32,0,7,,,,,0,,,76,100
70624,note_off,,,,,64,0,7,,,,,0,,,76,100
70656,note_on,,,,,512,0,13,,,,,5,,,49,100
70656,note_on,,,,,32,0,7,,,,,0,,,81,100
70656,note_on,,,,,0,0,12,,,,,5,,,69,100
70656,note_on,,,,,512,0,12,,,,,5,,,64,100
70656,note_on,,,,,512,0,11,,,,,4,,,37,85
70656,note_on,,,,,512,0,10,,,,,3,,,49,85
70720,note_off,,,,,64,0,7,,,,,0,,,81,100
70752,note_on,,,,,32,0,7,,,,,0,,,73,100
70816,note_off,,,,,64,0,7,,,,,0,,,73,100
70848,note_on,,,,,32,0,7,,,,,0,,,64,100
70912,note_off,,,,,256,0,11,,,,,4,,,37,100
70912,note_off,,,,,0,0,12,,,,,5,,,69,100
70912,note_off,,,,,256,0,12,,,,,5,,,64,100
70912,note_off,,,,,256,0,10,,,,,3,,,49,100
70912,note_off,,,,,256,0,13,,,,,5,,,49,100
70940,note_off,,,,,92,0,7,,,,,0,,,64,100
70944,note_on,,,,,4,0,7,,,,,0,,,73,100
71036,note_off,,,,,92,0,7,,,,,0,,,73,100
71040,note_on,,,,,4,0,7,,,,,0,,,81,100
71104,note_off,,,,,64,0,7,,,,,0,,,81,100
71136,note_on,,,,,32,0,7,,,,,0,,,79,100
71200,note_off,,,,,64,0,7,,,,,0,,,79,100
71232,note_on,,,,,32,0,7,,,,,0,,,78,100
71296,note_off,,,,,64,0,7,,,,,0,,,78,100
71328,note_on,,,,,32,0,7,,,,,0,,,76,100
71392,note_off,,,,,64,0,7,,,,,0,,,76,100
71424,note_on,,,,,512,0,13,,,,,5,,,50,100
71424,note_on,,,,,0,0,12,,,,,5,,,69,100
71424,note_on,,,,,32,0,7,,,,,0,,,78,100
71424,note_on,,,,,512,0,10,,,,,3,,,50,85
71424,note_on,,,,,512,0,11,,,,,4,,,38,85
71424,note_on,,,,,512,0,12,,,,,5,,,66,100
71488,note_off,,,,,64,0,7,,,,,0,,,78,100
71520,note_on,,,,,32,0,7,,,,,0,,,69,100
71584,note_off,,,,,64,0,7,,,,,0,,,69,100
71616,note_on,,,,,32,0,7,,,,,0,,,62,100
71680,note_off,,,,,0,0,12,,,,,5,,,69,100
71680,note_off,,,,,256,0,12,,,,,5,,,66,100
71680,note_off,,,,,256,0,11,,,,,4,,,38,100
71680,note_off,,,,,256,0,10,,,,,3,,,50,100
71680,note_off,,,,,256,0,13,,,,,5,,,50,100
71708,note_off,,,,,92,0,7,,,,,0,,,62,100
71712,note_on,,,,,4,0,7,,,,,0,,,69,100
71804,note_off,,,,,92,0,7,,,,,0,,,69,100
71808,note_on,,,,,4,0,7,,,,,0,,,78,100
71872,note_off,,,,,64,0,7,,,,,0,,,78,100
71904,note_on,,,,,32,0,7,,,,,0,,,76,100
71968,note_off,,,,,64,0,7,,,,,0,,,76,100
72000,note_on,,,,,32,0,7,,,,,0,,,74,100
72064,note_off,,,,,64,0,7,,,,,0,,,74,100
72096,note_on,,,,,32,0,7,,,,,0,,,73,100
72160,note_off,,,,,64,0,7,,,,,0,,,73,100
72192,note_on,,,,,32,0,7,,,,,0,,,71,100
72192,note_on,,,,,0,0,12,,,,,5,,,63,100
72192,note_on,,,,,512,0,11,,,,,4,,,32,85
72192,note_on,,,,,512,0,10,,,,,3,,,44,85
72192,note_on,,,,,512,0,13,,,,,5,,,44,100
72192,note_on,,,,,512,0,12,,,,,5,,,59,100
72256,note_off,,,,,64,0,7,,,,,0,,,71,100
72288,note_on,,,,,32,0,7,,,,,0,,,69,100
72352,note_off,,,,,64,0,7,,,,,0,,,69,100
72384,note_on,,,,,32,0,7,,,,,0,,,68,100
72448,note_off,,,,,256,0,11,,,,,4,,,32,100
72448,note_off,,,,,256,0,10,,,,,3,,,44,100
72448,note_off,,,,,256,0,13,,,,,5,,,44,100
72448,note_off,,,,,0,0,12,,,,,5,,,63,100
72448,note_off,,,,,256,0,12,,,,,5,,,59,100
72476,note_off,,,,,92,0,7,,,,,0,,,68,100
72480,note_on,,,,,4,0,7,,,,,0,,,71,100
72572,note_off,,,,,92,0,7,,,,,0,,,71,100
72576,note_on,,,,,4,0,7,,,,,0,,,76,100
72640,note_off,,,,,64,0,7,,,,,0,,,76,100
72672,note_on,,,,,32,0,7,,,,,0,,,74,100
72736,note_off,,,,,64,0,7,,,,,0,,,74,100
72768,note_on,,,,,32,0,7,,,,,0,,,73,100
72832,note_off,,,,,64,0,7,,,,,0,,,73,100
72864,note_on,,,,,32,0,7,,,,,0,,,71,100
72928,note_off,,,,,64,0,7,,,,,0,,,71,100
72960,note_on,,,,,32,0,7,,,,,0,,,73,100
72960,note_on,,,,,512,0,12,,,,,5,,,61,100
72960,note_on,,,,,0,0,12,,,,,5,,,64,100
72960,note_on,,,,,512,0,10,,,,,3,,,45,85
72960,note_on,,,,,512,0,11,,,,,4,,,33,85
72960,note_on,,,,,512,0,13,,,,,5,,,45,100
73024,note_off,,,,,64,0,7,,,,,0,,,73,100
73056,note_on,,,,,32,0,7,,,,,0,,,64,100
73120,note_off,,,,,64,0,7,,,,,0,,,64,100
73152,note_on,,,,,32,0,7,,,,,0,,,57,100
73216,note_off,,,,,0,0,12,,,,,5,,,64,100
73216,note_off,,,,,256,0,12,,,,,5,,,61,100
73216,note_off,,,,,256,0,10,,,,,3,,,45,100
73216,note_off,,,,,256,0,11,,,,,4,,,33,100
73216,note_off,,,,,256,0,13,,,,,5,,,45,100
73244,note_off,,,,,92,0,7,,,,,0,,,57,100
73248,note_on,,,,,4,0,7,,,,,0,,,64,100
73340,note_off,,,,,92,0,7,,,,,0,,,64,100
73344,note_on,,,,,4,0,7,,,,,0,,,73,100
73408,note_off,,,,,64,0,7,,,,,0,,,73,100
73440,note_on,,,,,32,0,7,,,,,0,,,71,100
73504,note_off,,,,,64,0,7,,,,,0,,,71,100
73536,note_on,,,,,32,0,7,,,,,0,,,69,100
73600,note_off,,,,,64,0,7,,,,,0,,,69,100
73632,note_on,,,,,32,0,7,,,,,0,,,68,100
73696,note_off,,,,,64,0,7,,,,,0,,,68,100
73728,note_on,,,,,512,0,11,,,,,4,,,39,85
73728,note_on,,,,,0,0,12,,,,,5,,,69,100
73728,note_on,,,,,512,0,10,,,,,3,,,51,85
73728,note_on,,,,,32,0,7,,,,,0,,,66,100
73728,note_on,,,,,512,0,12,,,,,5,,,66,100
73728,note_on,,,,,512,0,13,,,,,5,,,51,100
73792,note_off,,,,,64,0,7,,,,,0,,,66,100
73824,note_on,,,,,32,0,7,,,,,0,,,63,100
73888,note_off,,,,,64,0,7,,,,,0,,,63,100
73920,note_on,,,,,32,0,7,,,,,0,,,59,100
73984,note_off,,,,,256,0,11,,,,,4,,,39,100
73984,note_off,,,,,256,0,10,,,,,3,,,51,100
73984,note_off,,,,,256,0,13,,,,,5,,,51,100
73984,note_off,,,,,0,0,12,,,,,5,,,69,100
73984,note_off,,,,,256,0,12,,,,,5,,,66,100
74012,note_off,,,,,92,0,7,,,,,0,,,59,100
74016,note_on,,,,,4,0,7,,,,,0,,,63,100
74108,note_off,,,,,92,0,7,,,,,0,,,63,100
74112,note_on,,,,,4,0,7,,,,,0,,,69,99
74176,note_off,,,,,64,0,7,,,,,0,,,69,100
74208,note_on,,,,,32,0,7,,,,,0,,,73,99
74272,note_off,,,,,64,0,7,,,,,0,,,73,100
74304,note_on,,,,,32,0,7,,,,,0,,,71,99
74368,note_off,,,,,64,0,7,,,,,0,,,71,100
74400,note_on,,,,,32,0,7,,,,,0,,,69,98
74464,note_off,,,,,64,0,7,,,,,0,,,69,100
74496,note_on,,,,,512,0,11,,,,,4,,,40,85
74496,note_on,,,,,512,0,12,,,,,5,,,68,100
74496,note_on,,,,,0,0,12,,,,,5,,,71,100
74496,note_on,,,,,512,0,10,,,,,3,,,52,85
74496,note_on,,,,,512,0,13,,,,,5,,,52,100
74496,note_on,,,,,32,0,7,,,,,0,,,68,98
74560,note_off,,,,,64,0,7,,,,,0,,,68,100
74592,note_on,,,,,32,0,7,,,,,0,,,66,98
74656,note_off,,,,,64,0,7,,,,,0,,,66,100
74688,note_on,,,,,32,0,7,,,,,0,,,64,97
74752,note_off,,,,,256,0,10,,,,,3,,,52,100
74752,note_off,,,,,256,0,12,,,,,5,,,68,100
74752,note_off,,,,,0,0,12,,,,,5,,,71,100
74752,note_off,,,,,256,0,11,,,,,4,,,40,100
74752,note_off,,,,,256,0,13,,,,,5,,,52,100
74780,note_off,,,,,92,0,7,,,,,0,,,64,100
74784,note_on,,,,,4,0,7,,,,,0,,,71,97
74876,note_off,,,,,92,0,7,,,,,0,,,71,100
74880,note_on,,,,,4,0,7,,,,,0,,,76,97
74944,note_off,,,,,64,0,7,,,,,0,,,76,100
74976,note_on,,,,,32,0,7,,,,,0,,,71,96
75040,note_off,,,,,64,0,7,,,,,0,,,71,100
75072,note_on,,,,,32,0,7,,,,,0,,,73,96
75136,note_off,,,,,64,0,7,,,,,0,,,73,100
75168,note_on,,,,,32,0,7,,,,,0,,,74,96
75232,note_off,,,,,64,0,7,,,,,0,,,74,100
75264,note_on,,,,,32,0,7,,,,,0,,,76,95
75264,note_on,,,,,512,0,10,,,,,3,,,46,85
75264,note_on,,,,,512,0,13,,,,,5,,,46,100
75264,note_on,,,,,512,0,11,,,,,4,,,34,85
75264,note_on,,,,,512,0,12,,,,,5,,,64,100
75264,note_on,,,,,0,0,12,,,,,5,,,66,100
75328,note_off,,,,,64,0,7,,,,,0,,,76,100
75360,note_on,,,,,32,0,7,,,,,0,,,70,95
75424,note_off,,,,,64,0,7,,,,,0,,,70,100
75456,note_on,,,,,32,0,7,,,,,0,,,66,95
75520,note_off,,,,,256,0,13,,,,,5,,,46,100
75520,note_off,,,,,256,0,10,,,,,3,,,46,100
75520,note_off,,,,,256,0,12,,,,,5,,,64,100
75520,note_off,,,,,0,0,12,,,,,5,,,66,100
75520,note_off,,,,,256,0,11,,,,,4,,,34,100
75548,note_off,,,,,92,0,7,,,,,0,,,66,100
75552,note_on,,,,,4,0,7,,,,,0,,,70,94
75644,note_off,,,,,92,0,7,,,,,0,,,70,100
75648,note_on,,,,,4,0,7,,,,,0,,,76,94
75712,note_off,,,,,64,0,7,,,,,0,,,76,100
75744,note_on,,,,,32,0,7,,,,,0,,,80,94
75808,note_off,,,,,64,0,7,,,,,0,,,80,100
75840,note_on,,,,,32,0,7,,,,,0,,,78,93
75904,note_off,,,,,64,0,7,,,,,0,,,78,100
75936,note_on,,,,,32,0,7,,,,,0,,,76,93
76000,note_off,,,,,64,0,7,,,,,0,,,76,100
76032,note_on,,,,,512,0,12,,,,,5,,,63,100
76032,note_on,,,,,512,0,10,,,,,3,,,47,85
76032,note_on,,,,,512,0,13,,,,,5,,,47,100
76032,note_on,,,,,512,0,11,,,,,4,,,35,85
76032,note_on,,,,,0,0,12,,,,,5,,,66,100
76032,note_on,,,,,32,0,7,,,,,0,,,75,93
76096,note_off,,,,,64,0,7,,,,,0,,,75,100
76128,note_on,,,,,32,0,7,,,,,0,,,73,92
76192,note_off,,,,,64,0,7,,,,,0,,,73,100
76224,note_on,,,,,32,0,7,,,,,0,,,71,92
76288,note_off,,,,,256,0,10,,,,,3,,,47,100
76288,note_off,,,,,256,0,13,,,,,5,,,47,100
76288,note_off,,,,,256,0,11,,,,,4,,,35,100
76288,note_off,,,,,0,0,12,,,,,5,,,66,100
76288,note_off,,,,,256,0,12,,,,,5,,,63,100
76316,note_off,,,,,92,0,7,,,,,0,,,71,100
76320,note_on,,,,,4,0,7,,,,,0,,,75,92
76412,note_off,,,,,92,0,7,,,,,0,,,75,100
76416,note_on,,,,,4,0,7,,,,,0,,,78,91
76480,note_off,,,,,64,0,7,,,,,0,,,78,100
76512,note_on,,,,,32,0,7,,,,,0,,,81,91
76576,note_off,,,,,64,0,7,,,,,0,,,81,100
76608,note_on,,,,,32,0,7,,,,,0,,,83,91
76672,note_off,,,,,64,0,7,,,,,0,,,83,100
76704,note_on,,,,,32,0,7,,,,,0,,,81,91
76768,note_off,,,,,64,0,7,,,,,0,,,81,100
76800,note_on,,,,,512,0,11,,,,,4,,,35,85
76800,note_on,,,,,512,0,10,,,,,3,,,47,85
76800,note_on,,,,,512,0,12,,,,,5,,,66,100
76800,note_on,,,,,0,0,12,,,,,5,,,69,100
76800,note_on,,,,,512,0,13,,,,,5,,,47,100
76800,note_on,,,,,32,0,7,,,,,0,,,75,90
76864,note_off,,,,,64,0,7,,,,,0,,,75,100
76896,note_on,,,,,32,0,7,,,,,0,,,81,90
76960,note_off,,,,,64,0,7,,,,,0,,,81,100
76992,note_on,,,,,32,0,7,,,,,0,,,73,91
77056,note_off,,,,,256,0,11,,,,,4,,,35,100
77056,note_off,,,,,256,0,12,,,,,5,,,66,100
77056,note_off,,,,,0,0,12,,,,,5,,,69,100
77056,note_off,,,,,256,0,13,,,,,5,,,47,100
77056,note_off,,,,,64,0,7,,,,,0,,,73,100
77056,note_off,,,,,256,0,10,,,,,3,,,47,100
77088,note_on,,,,,32,0,7,,,,,0,,,81,91
77152,note_off,,,,,64,0,7,,,,,0,,,81,100
77184,note_on,,,,,32,0,7,,,,,0,,,71,92
77248,note_off,,,,,64,0,7,,,,,0,,,71,100
77280,note_on,,,,,32,0,7,,,,,0,,,81,93
77344,note_off,,,,,64,0,7,,,,,0,,,81,100
77376,note_on,,,,,32,0,7,,,,,0,,,73,93
77440,note_off,,,,,64,0,7,,,,,0,,,73,100
77472,note_on,,,,,32,0,7,,,,,0,,,81,94
77536,note_off,,,,,64,0,7,,,,,0,,,81,100
77568,note_on,,,,,32,0,7,,,,,0,,,75,95
77568,note_on,,,,,0,0,12,,,,,5,,,69,100
77568,note_on,,,,,512,0,12,,,,,5,,,66,100
77568,note_on,,,,,512,0,13,,,,,5,,,47,100
77568,note_on,,,,,512,0,10,,,,,3,,,47,85
77568,note_on,,,,,512,0,11,,,,,4,,,35,85
77632,note_off,,,,,64,0,7,,,,,0,,,75,100
77664,note_on,,,,,32,0,7,,,,,0,,,81,95
77728,note_off,,,,,64,0,7,,,,,0,,,81,100
77760,note_on,,,,,32,0,7,,,,,0,,,73,96
77824,note_off,,,,,256,0,13,,,,,5,,,47,100
77824,note_off,,,,,0,0,12,,,,,5,,,69,100
77824,note_off,,,,,256,0,10,,,,,3,,,47,100
77824,note_off,,,,,256,0,12,,,,,5,,,66,100
77824,note_off,,,,,64,0,7,,,,,0,,,73,100
77824,note_off,,,,,256,0,11,,,,,4,,,35,100
77856,note_on,,,,,32,0,7,,,,,0,,,81,97
77920,note_off,,,,,64,0,7,,,,,0,,,81,100
77952,note_on,,,,,32,0,7,,,,,0,,,71,97
78016,note_off,,,,,64,0,7,,,,,0,,,71,100
78048,note_on,,,,,32,0,7,,,,,0,,,81,98
78112,note_off,,,,,64,0,7,,,,,0,,,81,100
78144,note_on,,,,,32,0,7,,,,,0,,,73,99
78208,note_off,,,,,64,0,7,,,,,0,,,73,100
78240,note_on,,,,,32,0,7,,,,,0,,,81,99
78304,note_off,,,,,64,0,7,,,,,0,,,81,100
78336,note_on,,,,,32,0,7,,,,,0,,,75,85
78336,note_on,,,,,512,0,11,,,,,4,,,35,85
78336,note_on,,,,,512,0,12,,,,,5,,,66,100
78336,note_on,,,,,0,0,12,,,,,5,,,69,100
78336,note_on,,,,,512,0,10,,,,,3,,,47,85
78336,note_on,,,,,512,0,13,,,,,5,,,47,100
78400,note_off,,,,,64,0,7,,,,,0,,,75,100
78432,note_on,,,,,32,0,7,,,,,0,,,81,85
78496,note_off,,,,,64,0,7,,,,,0,,,81,100
78528,note_on,,,,,32,0,7,,,,,0,,,73,85
78592,note_off,,,,,256,0,13,,,,,5,,,47,100
78592,note_off,,,,,256,0,11,,,,,4,,,35,100
78592,note_off,,,,,64,0,7,,,,,0,,,73,100
78592,note_off,,,,,256,0,10,,,,,3,,,47,100
78592,note_off,,,,,256,0,12,,,,,5,,,66,100
78592,note_off,,,,,0,0,12,,,,,5,,,69,100
78624,note_on,,,,,32,0,7,,,,,0,,,81,85
78688,note_off,,,,,64,0,7,,,,,0,,,81,100
78720,note_on,,,,,32,0,7,,,,,0,,,71,85
78784,note_off,,,,,64,0,7,,,,,0,,,71,100
78816,note_on,,,,,32,0,7,,,,,0,,,81,85
78880,note_off,,,,,64,0,7,,,,,0,,,81,100
78912,note_on,,,,,32,0,7,,,,,0,,,73,85
78976,note_off,,,,,64,0,7,,,,,0,,,73,100
79008,note_on,,,,,32,0,7,,,,,0,,,81,85
79072,note_off,,,,,64,0,7,,,,,0,,,81,100
79104,note_on,,,,,512,0,11,,,,,4,,,35,85
79104,note_on,,,,,32,0,7,,,,,0,,,75,85
79104,note_on,,,,,512,0,12,,,,,5,,,66,100
79104,note_on,,,,,512,0,10,,,,,3,,,47,85
79104,note_on,,,,,0,0,12,,,,,5,,,69,100
79104,note_on,,,,,512,0,13,,,,,5,,,47,100
79168,note_off,,,,,64,0,7,,,,,0,,,75,100
79200,note_on,,,,,32,0,7,,,,,0,,,81,85
79264,note_off,,,,,64,0,7,,,,,0,,,81,100
79296,note_on,,,,,32,0,7,,,,,0,,,73,85
79360,note_off,,,,,64,0,7,,,,,0,,,73,100
79360,note_off,,,,,256,0,10,,,,,3,,,47,100
79360,note_off,,,,,256,0,11,,,,,4,,,35,100
79360,note_off,,,,,256,0,13,,,,,5,,,47,100
79360,note_off,,,,,256,0,12,,,,,5,,,66,100
79360,note_off,,,,,0,0,12,,,,,5,,,69,100
79392,note_on,,,,,32,0,7,,,,,0,,,81,85
79456,note_off,,,,,64,0,7,,,,,0,,,81,100
79488,note_on,,,,,32,0,7,,,,,0,,,75,85
79552,note_off,,,,,64,0,7,,,,,0,,,75,100
79584,note_on,,,,,32,0,7,,,,,0,,,81,85
79648,note_off,,,,,64,0,7,,,,,0,,,81,100
79680,note_on,,,,,32,0,7,,,,,0,,,71,85
79744,note_off,,,,,64,0,7,,,,,0,,,71,100
79776,note_on,,,,,32,0,7,,,,,0,,,81,85
79840,note_off,,,,,64,0,7,,,,,0,,,81,100
79872,note_on,,,,,512,0,10,,,,,3,,,52,85
79872,note_on,,,,,512,0,13,,,,,5,,,52,100
79872,note_on,,,,,0,0,12,,,,,5,,,71,100
79872,note_on,,,,,512,0,12,,,,,5,,,68,100
79872,note_on,,,,,32,0,7,,,,,0,,,64,100
79872,note_on,,,,,512,0,11,,,,,4,,,40,85
79936,note_off,,,,,64,0,7,,,,,0,,,64,100
79968,note_on,,,,,32,0,7,,,,,0,,,76,100
80000,note_off,,,,,128,0,10,,,,,3,,,52,100
80000,note_off,,,,,128,0,13,,,,,5,,,52,100
80000,note_off,,,,,128,0,12,,,,,5,,,68,100
80000,note_off,,,,,0,0,12,,,,,5,,,71,100
80000,note_off,,,,,128,0,11,,,,,4,,,40,100
80032,note_off,,,,,64,0,7,,,,,0,,,76,100
80064,note_on,,,,,64,0,10,,,,,3,,,59,85
80064,note_on,,,,,64,0,13,,,,,5,,,59,100
80064,note_on,,,,,32,0,7,,,,,0,,,75,100
80064,note_on,,,,,64,0,12,,,,,5,,,66,100
80064,note_on,,,,,64,0,11,,,,,4,,,47,85
80064,note_on,,,,,0,0,12,,,,,5,,,75,100
80128,note_off,,,,,64,0,7,,,,,0,,,75,100
80160,note_on,,,,,32,0,7,,,,,0,,,76,100
80192,note_off,,,,,128,0,12,,,,,5,,,66,100
80192,note_off,,,,,128,0,11,,,,,4,,,47,100
80192,note_off,,,,,128,0,10,,,,,3,,,59,100
80192,note_off,,,,,0,0,12,,,,,5,,,75,100
80192,note_off,,,,,128,0,13,,,,,5,,,59,100
80224,note_off,,,,,64,0,7,,,,,0,,,76,100
80256,note_on,,,,,64,0,11,,,,,4,,,44,85
80256,note_on,,,,,32,0,7,,,,,0,,,71,100
80256,note_on,,,,,64,0,10,,,,,3,,,56,85
80256,note_on,,,,,0,0,12,,,,,5,,,64,100
80256,note_on,,,,,64,0,12,,,,,5,,,71,100
80256,note_on,,,,,64,0,13,,,,,5,,,56,100
80320,note_off,,,,,64,0,7,,,,,0,,,71,100
80352,note_on,,,,,32,0,7,,,,,0,,,76,100
80384,note_off,,,,,128,0,10,,,,,3,,,56,100
80384,note_off,,,,,128,0,13,,,,,5,,,56,100
80384,note_off,,,,,128,0,11,,,,,4,,,44,100
80384,note_off,,,,,0,0,12,,,,,5,,,64,100
80384,note_off,,,,,128,0,12,,,,,5,,,71,100
80416,note_off,,,,,64,0,7,,,,,0,,,76,100
80448,note_on,,,,,64,0,11,,,,,4,,,42,85
80448,note_on,,,,,0,0,12,,,,,5,,,69,100
80448,note_on,,,,,64,0,13,,,,,5,,,54,100
80448,note_on,,,,,64,0,12,,,,,5,,,64,100
80448,note_on,,,,,64,0,10,,,,,3,,,54,85
80448,note_on,,,,,32,0,7,,,,,0,,,69,100
80512,note_off,,,,,64,0,7,,,,,0,,,69,100
80544,note_on,,,,,32,0,7,,,,,0,,,76,100
80576,note_off,,,,,128,0,10,,,,,3,,,54,100
80576,note_off,,,,,128,0,11,,,,,4,,,42,100
80576,note_off,,,,,128,0,13,,,,,5,,,54,100
80576,note_off,,,,,0,0,12,,,,,5,,,69,100
80576,note_off,,,,,128,0,12,,,,,5,,,64,100
80608,note_off,,,,,64,0,7,,,,,0,,,76,100
80640,note_on,,,,,32,0,7,,,,,0,,,68,100
80640,note_on,,,,,64,0,10,,,,,3,,,52,85
80640,note_on,,,,,64,0,11,,,,,4,,,40,85
80640,note_on,,,,,64,0,12,,,,,5,,,64,100
80640,note_on,,,,,0,0,12,,,,,5,,,68,100
80640,note_on,,,,,0,0,12,,,,,5,,,71,100
80640,note_on,,,,,64,0,13,,,,,5,,,52,100
80704,note_off,,,,,64,0,7,,,,,0,,,68,100
80736,note_on,,,,,32,0,7,,,,,0,,,76,100
80800,note_off,,,,,64,0,7,,,,,0,,,76,100
80832,note_on,,,,,32,0,7,,,,,0,,,66,100
80896,note_off,,,,,0,0,12,,,,,5,,,68,100
80896,note_off,,,,,256,0,11,,,,,4,,,40,100
80896,note_off,,,,,0,0,12,,,,,5,,,71,100
80896,note_off,,,,,256,0,12,,,,,5,,,64,100
80896,note_off,,,,,64,0,7,,,,,0,,,66,100
80896,note_off,,,,,256,0,10,,,,,3,,,52,100
80896,note_off,,,,,256,0,13,,,,,5,,,52,100
80928,note_on,,,,,32,0,7,,,,,0,,,76,100
80992,note_off,,,,,64,0,7,,,,,0,,,76,100
81024,note_on,,,,,32,0,7,,,,,0,,,64,100
81088,note_off,,,,,64,0,7,,,,,0,,,64,100
81120,note_on,,,,,32,0,7,,,,,0,,,76,100
81184,note_off,,,,,64,0,7,,,,,0,,,76,100
81216,note_on,,,,,32,0,7,,,,,0,,,66,100
81280,note_off,,,,,64,0,7,,,,,0,,,66,100
81312,note_on,,,,,32,0,7,,,,,0,,,76,100
81376,note_off,,,,,64,0,7,,,,,0,,,76,100
81408,note_on,,,,,512,0,11,,,,,4,,,40,85
81408,note_on,,,,,512,0,10,,,,,3,,,52,85
81408,note_on,,,,,32,0,7,,,,,0,,,68,100
81408,note_on,,,,,512,0,12,,,,,5,,,68,100
81408,note_on,,,,,512,0,13,,,,,5,,,52,100
81408,note_on,,,,,0,0,12,,,,,5,,,71,100
81472,note_off,,,,,64,0,7,,,,,0,,,68,100
81504,note_on,,,,,32,0,7,,,,,0,,,76,100
81568,note_off,,,,,64,0,7,,,,,0,,,76,100
81600,note_on,,,,,32,0,7,,,,,0,,,66,100
81664,note_off,,,,,256,0,10,,,,,3,,,52,100
81664,note_off,,,,,256,0,12,,,,,5,,,68,100
81664,note_off,,,,,0,0,12,,,,,5,,,71,100
81664,note_off,,,,,64,0,7,,,,,0,,,66,100
81664,note_off,,,,,256,0,11,,,,,4,,,40,100
81664,note_off,,,,,256,0,13,,,,,5,,,52,100
81696,note_on,,,,,32,0,7,,,,,0,,,76,100
81760,note_off,,,,,64,0,7,,,,,0,,,76,100
81792,note_on,,,,,32,0,7,,,,,0,,,64,100
81856,note_off,,,,,64,0,7,,,,,0,,,64,100
81888,note_on,,,,,32,0,7,,,,,0,,,76,100
81952,note_off,,,,,64,0,7,,,,,0,,,76,100
81984,note_on,,,,,32,0,7,,,,,0,,,66,100
82048,note_off,,,,,64,0,7,,,,,0,,,66,100
82080,note_on,,,,,32,0,7,,,,,0,,,76,100
82144,note_off,,,,,64,0,7,,,,,0,,,76,100
82176,note_on,,,,,32,0,7,,,,,0,,,68,85
82176,note_on,,,,,512,0,12,,,,,5,,,68,100
82176,note_on,,,,,512,0,11,,,,,4,,,40,85
82176,note_on,,,,,512,0,13,,,,,5,,,52,100
82176,note_on,,,,,0,0,12,,,,,5,,,71,100
82176,note_on,,,,,512,0,10,,,,,3,,,52,85
82240,note_off,,,,,64,0,7,,,,,0,,,68,100
82272,note_on,,,,,32,0,7,,,,,0,,,76,85
82336,note_off,,,,,64,0,7,,,,,0,,,76,100
82368,note_on,,,,,32,0,7,,,,,0,,,66,85
82432,note_off,,,,,256,0,13,,,,,5,,,52,100
82432,note_off,,,,,0,0,12,,,,,5,,,71,100
82432,note_off,,,,,256,0,12,,,,,5,,,68,100
82432,note_off,,,,,256,0,11,,,,,4,,,40,100
82432,note_off,,,,,256,0,10,,,,,3,,,52,100
82432,note_off,,,,,64,0,7,,,,,0,,,66,100
82464,note_on,,,,,32,0,7,,,,,0,,,76,85
82528,note_off,,,,,64,0,7,,,,,0,,,76,100
82560,note_on,,,,,32,0,7,,,,,0,,,64,85
82624,note_off,,,,,64,0,7,,,,,0,,,64,100
82656,note_on,,,,,32,0,7,,,,,0,,,76,85
82720,note_off,,,,,64,0,7,,,,,0,,,76,100
82752,note_on,,,,,32,0,7,,,,,0,,,66,85
82816,note_off,,,,,64,0,7,,,,,0,,,66,100
82848,note_on,,,,,32,0,7,,,,,0,,,76,85
82912,note_off,,,,,64,0,7,,,,,0,,,76,100
82944,note_on,,,,,0,0,12,,,,,5,,,71,100
82944,note_on,,,,,512,0,12,,,,,5,,,68,100
82944,note_on,,,,,512,0,13,,,,,5,,,52,100
82944,note_on,,,,,32,0,7,,,,,0,,,68,85
82944,note_on,,,,,512,0,11,,,,,4,,,40,85
82944,note_on,,,,,512,0,10,,,,,3,,,52,85
83008,note_off,,,,,64,0,7,,,,,0,,,68,100
83040,note_on,,,,,32,0,7,,,,,0,,,76,85
83104,note_off,,,,,64,0,7,,,,,0,,,76,100
83136,note_on,,,,,32,0,7,,,,,0,,,66,85
83200,note_off,,,,,256,0,10,,,,,3,,,52,100
83200,note_off,,,,,256,0,12,,,,,5,,,68,100
83200,note_off,,,,,64,0,7,,,,,0,,,66,100
83200,note_off,,,,,0,0,12,,,,,5,,,71,100
83200,note_off,,,,,256,0,11,,,,,4,,,40,100
83200,note_off,,,,,256,0,13,,,,,5,,,52,100
83232,note_on,,,,,32,0,7,,,,,0,,,76,85
83296,note_off,,,,,64,0,7,,,,,0,,,76,100
83328,note_on,,,,,32,0,7,,,,,0,,,68,85
83392,note_off,,,,,64,0,7,,,,,0,,,68,100
83424,note_on,,,,,32,0,7,,,,,0,,,76,85
83488,note_off,,,,,64,0,7,,,,,0,,,76,100
83520,note_on,,,,,32,0,7,,,,,0,,,64,85
83584,note_off,,,,,64,0,7,,,,,0,,,64,100
83616,note_on,,,,,32,0,7,,,,,0,,,76,85
83680,note_off,,,,,64,0,7,,,,,0,,,76,100
83712,note_on,,,,,512,0,11,,,,,4,,,33,85
83712,note_on,,,,,512,0,10,,,,,3,,,45,85
83712,note_on,,,,,32,0,7,,,,,0,,,69,100
83712,note_on,,,,,0,0,12,,,,,5,,,64,100
83712,note_on,,,,,512,0,13,,,,,5,,,45,100
83712,note_on,,,,,512,0,12,,,,,5,,,61,100
83776,note_off,,,,,64,0,7,,,,,0,,,69,100
83808,note_on,,,,,32,0,7,,,,,0,,,81,100
83840,note_off,,,,,128,0,12,,,,,5,,,61,100
83840,note_off,,,,,128,0,10,,,,,3,,,45,100
83840,note_off,,,,,128,0,13,,,,,5,,,45,100
83840,note_off,,,,,0,0,12,,,,,5,,,64,100
83840,note_off,,,,,128,0,11,,,,,4,,,33,100
83872,note_off,,,,,64,0,7,,,,,0,,,81,100
83904,note_on,,,,,32,0,7,,,,,0,,,80,100
83904,note_on,,,,,64,0,12,,,,,5,,,71,100
83904,note_on,,,,,0,0,12,,,,,5,,,68,100
83904,note_on,,,,,64,0,11,,,,,4,,,52,85
83904,note_on,,,,,64,0,10,,,,,3,,,64,85
83904,note_on,,,,,64,0,13,,,,,5,,,64,100
83968,note_off,,,,,64,0,7,,,,,0,,,80,100
84000,note_on,,,,,32,0,7,,,,,0,,,81,100
84032,note_off,,,,,128,0,11,,,,,4,,,52,100
84032,note_off,,,,,128,0,10,,,,,3,,,64,100
84032,note_off,,,,,0,0,12,,,,,5,,,68,100
84032,note_off,,,,,128,0,12,,,,,5,,,71,100
84032,note_off,,,,,128,0,13,,,,,5,,,64,100
84064,note_off,,,,,64,0,7,,,,,0,,,81,100
84096,note_on,,,,,64,0,10,,,,,3,,,61,85
84096,note_on,,,,,64,0,11,,,,,4,,,49,85
84096,note_on,,,,,32,0,7,,,,,0,,,76,100
84096,note_on,,,,,64,0,13,,,,,5,,,61,100
84096,note_on,,,,,64,0,12,,,,,5,,,69,100
84096,note_on,,,,,0,0,12,,,,,5,,,64,100
84160,note_off,,,,,64,0,7,,,,,0,,,76,100
84192,note_on,,,,,32,0,7,,,,,0,,,81,100
84224,note_off,,,,,128,0,11,,,,,4,,,49,100
84224,note_off,,,,,128,0,13,,,,,5,,,61,100
84224,note_off,,,,,0,0,12,,,,,5,,,64,100
84224,note_off,,,,,128,0,10,,,,,3,,,61,100
84224,note_off,,,,,128,0,12,,,,,5,,,69,100
84256,note_off,,,,,64,0,7,,,,,0,,,81,100
84288,note_on,,,,,64,0,10,,,,,3,,,59,85
84288,note_on,,,,,64,0,13,,,,,5,,,59,100
84288,note_on,,,,,0,0,12,,,,,5,,,62,100
84288,note_on,,,,,64,0,12,,,,,5,,,66,100
84288,note_on,,,,,32,0,7,,,,,0,,,74,100
84288,note_on,,,,,64,0,11,,,,,4,,,47,85
84352,note_off,,,,,64,0,7,,,,,0,,,74,100
84384,note_on,,,,,32,0,7,,,,,0,,,81,100
84416,note_off,,,,,128,0,11,,,,,4,,,47,100
84416,note_off,,,,,128,0,10,,,,,3,,,59,100
84416,note_off,,,,,128,0,13,,,,,5,,,59,100
84416,note_off,,,,,128,0,12,,,,,5,,,66,100
84416,note_off,,,,,0,0,12,,,,,5,,,62,100
84448,note_off,,,,,64,0,7,,,,,0,,,81,100
84480,note_on,,,,,64,0,10,,,,,3,,,57,85
84480,note_on,,,,,64,0,13,,,,,5,,,57,100
84480,note_on,,,,,64,0,12,,,,,5,,,61,100
84480,note_on,,,,,0,0,12,,,,,5,,,64,100
84480,note_on,,,,,64,0,11,,,,,4,,,45,85
84480,note_on,,,,,32,0,7,,,,,0,,,73,100
84544,note_off,,,,,64,0,7,,,,,0,,,73,100
84576,note_on,,,,,32,0,7,,,,,0,,,81,100
84640,note_off,,,,,64,0,7,,,,,0,,,81,100
84672,note_on,,,,,32,0,7,,,,,0,,,71,100
84736,note_off,,,,,256,0,13,,,,,5,,,57,100
84736,note_off,,,,,256,0,12,,,,,5,,,61,100
84736,note_off,,,,,0,0,12,,,,,5,,,64,100
84736,note_off,,,,,256,0,11,,,,,4,,,45,100
84736,note_off,,,,,64,0,7,,,,,0,,,71,100
84736,note_off,,,,,256,0,10,,,,,3,,,57,100
84768,note_on,,,,,32,0,7,,,,,0,,,81,100
84832,note_off,,,,,64,0,7,,,,,0,,,81,100
84864,note_on,,,,,32,0,7,,,,,0,,,69,100
84928,note_off,,,,,64,0,7,,,,,0,,,69,100
84960,note_on,,,,,32,0,7,,,,,0,,,81,100
85024,note_off,,,,,64,0,7,,,,,0,,,81,100
85056,note_on,,,,,32,0,7,,,,,0,,,71,100
85120,note_off,,,,,64,0,7,,,,,0,,,71,100
85152,note_on,,,,,32,0,7,,,,,0,,,81,100
85216,note_off,,,,,64,0,7,,,,,0,,,81,100
85248,note_on,,,,,512,0,11,,,,,4,,,33,85
85248,note_on,,,,,512,0,12,,,,,5,,,61,100
85248,note_on,,,,,32,0,7,,,,,0,,,73,100
85248,note_on,,,,,512,0,13,,,,,5,,,45,100
85248,note_on,,,,,0,0,12,,,,,5,,,64,100
85248,note_on,,,,,512,0,10,,,,,3,,,45,85
85312,note_off,,,,,64,0,7,,,,,0,,,73,100
85344,note_on,,,,,32,0,7,,,,,0,,,81,100
85408,note_off,,,,,64,0,7,,,,,0,,,81,100
85440,note_on,,,,,32,0,7,,,,,0,,,71,100
85504,note_off,,,,,256,0,13,,,,,5,,,45,100
85504,note_off,,,,,256,0,11,,,,,4,,,33,100
85504,note_off,,,,,64,0,7,,,,,0,,,71,100
85504,note_off,,,,,256,0,12,,,,,5,,,61,100
85504,note_off,,,,,0,0,12,,,,,5,,,64,100
85504,note_off,,,,,256,0,10,,,,,3,,,45,100
85536,note_on,,,,,32,0,7,,,,,0,,,81,100
85600,note_off,,,,,64,0,7,,,,,0,,,81,100
85632,note_on,,,,,32,0,7,,,,,0,,,69,100
85696,note_off,,,,,64,0,7,,,,,0,,,69,100
85728,note_on,,,,,32,0,7,,,,,0,,,81,100
85792,note_off,,,,,64,0,7,,,,,0,,,81,100
85824,note_on,,,,,32,0,7,,,,,0,,,71,100
85888,note_off,,,,,64,0,7,,,,,0,,,71,100
85920,note_on,,,,,32,0,7,,,,,0,,,81,100
85984,note_off,,,,,64,0,7,,,,,0,,,81,100
86016,note_on,,,,,512,0,11,,,,,4,,,33,85
86016,note_on,,,,,512,0,13,,,,,5,,,45,100
86016,note_on,,,,,32,0,7,,,,,0,,,73,85
86016,note_on,,,,,0,0,12,,,,,5,,,64,100
86016,note_on,,,,,512,0,12,,,,,5,,,61,100
86016,note_on,,,,,512,0,10,,,,,3,,,45,85
86080,note_off,,,,,64,0,7,,,,,0,,,73,100
86112,note_on,,,,,32,0,7,,,,,0,,,81,85
86176,note_off,,,,,64,0,7,,,,,0,,,81,100
86208,note_on,,,,,32,0,7,,,,,0,,,71,85
86272,note_off,,,,,64,0,7,,,,,0,,,71,100
86272,note_off,,,,,256,0,10,,,,,3,,,45,100
86272,note_off,,,,,256,0,12,,,,,5,,,61,100
86272,note_off,,,,,0,0,12,,,,,5,,,64,100
86272,note_off,,,,,256,0,11,,,,,4,,,33,100
86272,note_off,,,,,256,0,13,,,,,5,,,45,100
86304,note_on,,,,,32,0,7,,,,,0,,,81,85
86368,note_off,,,,,64,0,7,,,,,0,,,81,100
86400,note_on,,,,,32,0,7,,,,,0,,,69,85
86464,note_off,,,,,64,0,7,,,,,0,,,69,100
86496,note_on,,,,,32,0,7,,,,,0,,,81,85
86560,note_off,,,,,64,0,7,,,,,0,,,81,100
86592,note_on,,,,,32,0,7,,,,,0,,,71,85
86656,note_off,,,,,64,0,7,,,,,0,,,71,100
86688,note_on,,,,,32,0,7,,,,,0,,,81,85
86752,note_off,,,,,64,0,7,,,,,0,,,81,100
86784,note_on,,,,,512,0,12,,,,,5,,,61,100
86784,note_on,,,,,0,0,12,,,,,5,,,64,100
86784,note_on,,,,,512,0,10,,,,,3,,,45,85
86784,note_on,,,,,512,0,13,,,,,5,,,45,100
86784,note_on,,,,,512,0,11,,,,,4,,,33,85
86784,note_on,,,,,32,0,7,,,,,0,,,73,85
86848,note_off,,,,,64,0,7,,,,,0,,,73,100
86880,note_on,,,,,32,0,7,,,,,0,,,81,85
86944,note_off,,,,,64,0,7,,,,,0,,,81,100
86976,note_on,,,,,32,0,7,,,,,0,,,71,85
87040,note_off,,,,,64,0,7,,,,,0,,,71,100
87040,note_off,,,,,256,0,13,,,,,5,,,45,100
87040,note_off,,,,,256,0,10,,,,,3,,,45,100
87040,note_off,,,,,256,0,11,,,,,4,,,33,100
87040,note_off,,,,,0,0,12,,,,,5,,,64,100
87040,note_off,,,,,256,0,12,,,,,5,,,61,100
87072,note_on,,,,,32,0,7,,,,,0,,,81,85
87136,note_off,,,,,64,0,7,,,,,0,,,81,100
87168,note_on,,,,,32,0,7,,,,,0,,,73,85
87232,note_off,,,,,64,0,7,,,,,0,,,73,100
87264,note_on,,,,,32,0,7,,,,,0,,,81,85
87328,note_off,,,,,64,0,7,,,,,0,,,81,100
87360,note_on,,,,,32,0,7,,,,,0,,,69,85
87424,note_off,,,,,64,0,7,,,,,0,,,69,100
87456,note_on,,,,,32,0,7,,,,,0,,,81,85
87520,note_off,,,,,64,0,7,,,,,0,,,81,100
87552,note_on,,,,,512,0,12,,,,,5,,,66,100
87552,note_on,,,,,512,0,10,,,,,3,,,50,85
87552,note_on,,,,,512,0,11,,,,,4,,,38,85
87552,note_on,,,,,512,0,13,,,,,5,,,50,100
87552,note_on,,,,,0,0,12,,,,,5,,,69,100
87552,note_on,,,,,32,0,7,,,,,0,,,74,100
87616,note_off,,,,,64,0,7,,,,,0,,,74,100
87648,note_on,,,,,32,0,7,,,,,0,,,78,100
87712,note_off,,,,,64,0,7,,,,,0,,,78,100
87744,note_on,,,,,32,0,7,,,,,0,,,73,100
87808,note_off,,,,,256,0,12,,,,,5,,,66,100
87808,note_off,,,,,256,0,11,,,,,4,,,38,100
87808,note_off,,,,,256,0,13,,,,,5,,,50,100
87808,note_off,,,,,256,0,10,,,,,3,,,50,100
87808,note_off,,,,,64,0,7,,,,,0,,,73,100
87808,note_off,,,,,0,0,12,,,,,5,,,69,100
87840,note_on,,,,,32,0,7,,,,,0,,,76,100
87904,note_off,,,,,64,0,7,,,,,0,,,76,100
87936,note_on,,,,,32,0,7,,,,,0,,,74,100
88000,note_off,,,,,64,0,7,,,,,0,,,74,100
88032,note_on,,,,,32,0,7,,,,,0,,,78,100
88096,note_off,,,,,64,0,7,,,,,0,,,78,100
88128,note_on,,,,,32,0,7,,,,,0,,,73,100
88192,note_off,,,,,64,0,7,,,,,0,,,73,100
88224,note_on,,,,,32,0,7,,,,,0,,,76,100
88288,note_off,,,,,64,0,7,,,,,0,,,76,100
88320,note_on,,,,,512,0,13,,,,,5,,,50,100
88320,note_on,,,,,512,0,10,,,,,3,,,50,85
88320,note_on,,,,,32,0,7,,,,,0,,,74,100
88320,note_on,,,,,0,0,12,,,,,5,,,69,100
88320,note_on,,,,,512,0,12,,,,,5,,,66,100
88320,note_on,,,,,512,0,11,,,,,4,,,38,85
88384,note_off,,,,,64,0,7,,,,,0,,,74,100
88416,note_on,,,,,32,0,7,,,,,0,,,78,100
88480,note_off,,,,,64,0,7,,,,,0,,,78,100
88512,note_on,,,,,32,0,7,,,,,0,,,73,100
88576,note_off,,,,,0,0,12,,,,,5,,,69,100
88576,note_off,,,,,256,0,10,,,,,3,,,50,100
88576,note_off,,,,,256,0,11,,,,,4,,,38,100
88576,note_off,,,,,64,0,7,,,,,0,,,73,100
88576,note_off,,,,,256,0,13,,,,,5,,,50,100
88576,note_off,,,,,256,0,12,,,,,5,,,66,100
88608,note_on,,,,,32,0,7,,,,,0,,,76,100
88672,note_off,,,,,64,0,7,,,,,0,,,76,100
88704,note_on,,,,,32,0,7,,,,,0,,,74,100
88768,note_off,,,,,64,0,7,,,,,0,,,74,100
88800,note_on,,,,,32,0,7,,,,,0,,,78,100
88864,note_off,,,,,64,0,7,,,,,0,,,78,100
88896,note_on,,,,,32,0,7,,,,,0,,,73,100
88960,note_off,,,,,64,0,7,,,,,0,,,73,100
88992,note_on,,,,,32,0,7,,,,,0,,,76,100
89056,note_off,,,,,64,0,7,,,,,0,,,76,100
89088,note_on,,,,,512,0,11,,,,,4,,,38,85
89088,note_on,,,,,512,0,13,,,,,5,,,50,100
89088,note_on,,,,,512,0,10,,,,,3,,,50,85
89088,note_on,,,,,0,0,12,,,,,5,,,69,100
89088,note_on,,,,,512,0,12,,,,,5,,,66,100
89088,note_on,,,,,32,0,7,,,,,0,,,74,100
89152,note_off,,,,,64,0,7,,,,,0,,,74,100
89184,note_on,,,,,32,0,7,,,,,0,,,69,100
89248,note_off,,,,,64,0,7,,,,,0,,,69,100
89280,note_on,,,,,32,0,7,,,,,0,,,74,100
89344,note_off,,,,,64,0,7,,,,,0,,,74,100
89344,note_off,,,,,256,0,10,,,,,3,,,50,100
89344,note_off,,,,,256,0,13,,,,,5,,,50,100
89344,note_off,,,,,0,0,12,,,,,5,,,69,100
89344,note_off,,,,,256,0,11,,,,,4,,,38,100
89344,note_off,,,,,256,0,12,,,,,5,,,66,100
89376,note_on,,,,,32,0,7,,,,,0,,,78,100
89440,note_off,,,,,64,0,7,,,,,0,,,78,100
89472,note_on,,,,,32,0,7,,,,,0,,,81,100
89536,note_off,,,,,64,0,7,,,,,0,,,81,100
89568,note_on,,,,,32,0,7,,,,,0,,,69,100
89632,note_off,,,,,64,0,7,,,,,0,,,69,100
89664,note_on,,,,,32,0,7,,,,,0,,,74,100
89728,note_off,,,,,64,0,7,,,,,0,,,74,100
89760,note_on,,,,,32,0,7,,,,,0,,,78,100
89824,note_off,,,,,64,0,7,,,,,0,,,78,100
89856,note_on,,,,,32,0,7,,,,,0,,,81,100
89856,note_on,,,,,0,0,12,,,,,5,,,69,100
89856,note_on,,,,,512,0,13,,,,,5,,,50,100
89856,note_on,,,,,512,0,12,,,,,5,,,66,100
89856,note_on,,,,,512,0,10,,,,,3,,,50,85
89856,note_on,,,,,512,0,11,,,,,4,,,38,85
89920,note_off,,,,,64,0,7,,,,,0,,,81,100
89952,note_on,,,,,32,0,7,,,,,0,,,69,100
90016,note_off,,,,,64,0,7,,,,,0,,,69,100
90048,note_on,,,,,32,0,7,,,,,0,,,74,100
90112,note_off,,,,,64,0,7,,,,,0,,,74,100
90112,note_off,,,,,256,0,13,,,,,5,,,50,100
90112,note_off,,,,,256,0,10,,,,,3,,,50,100
90112,note_off,,,,,256,0,12,,,,,5,,,66,100
90112,note_off,,,,,256,0,11,,,,,4,,,38,100
90112,note_off,,,,,0,0,12,,,,,5,,,69,100
90144,note_on,,,,,32,0,7,,,,,0,,,78,100
90208,note_off,,,,,64,0,7,,,,,0,,,78,100
90240,note_on,,,,,32,0,7,,,,,0,,,81,100
90304,note_off,,,,,64,0,7,,,,,0,,,81,100
90336,note_on,,,,,32,0,7,,,,,0,,,78,100
90400,note_off,,,,,64,0,7,,,,,0,,,78,100
90432,note_on,,,,,32,0,7,,,,,0,,,79,100
90496,note_off,,,,,64,0,7,,,,,0,,,79,100
90528,note_on,,,,,32,0,7,,,,,0,,,76,100
90592,note_off,,,,,64,0,7,,,,,0,,,76,100
90624,note_on,,,,,512,0,10,,,,,3,,,47,85
90624,note_on,,,,,32,0,7,,,,,0,,,75,100
90624,note_on,,,,,512,0,11,,,,,4,,,35,85
90624,note_on,,,,,512,0,12,,,,,5,,,63,100
90624,note_on,,,,,0,0,12,,,,,5,,,66,100
90624,note_on,,,,,512,0,13,,,,,5,,,47,100
90688,note_off,,,,,64,0,7,,,,,0,,,75,100
90720,note_on,,,,,32,0,7,,,,,0,,,83,100
90784,note_off,,,,,64,0,7,,,,,0,,,83,100
90816,note_on,,,,,32,0,7,,,,,0,,,73,100
90880,note_off,,,,,64,0,7,,,,,0,,,73,100
90880,note_off,,,,,256,0,11,,,,,4,,,35,100
90880,note_off,,,,,0,0,12,,,,,5,,,66,100
90880,note_off,,,,,256,0,10,,,,,3,,,47,100
90880,note_off,,,,,256,0,13,,,,,5,,,47,100
90880,note_off,,,,,256,0,12,,,,,5,,,63,100
90912,note_on,,,,,32,0,7,,,,,0,,,83,100
90976,note_off,,,,,64,0,7,,,,,0,,,83,100
91008,note_on,,,,,32,0,7,,,,,0,,,71,100
91072,note_off,,,,,64,0,7,,,,,0,,,71,100
91104,note_on,,,,,32,0,7,,,,,0,,,83,100
91168,note_off,,,,,64,0,7,,,,,0,,,83,100
91200,note_on,,,,,32,0,7,,,,,0,,,73,100
91264,note_off,,,,,64,0,7,,,,,0,,,73,100
91296,note_on,,,,,32,0,7,,,,,0,,,83,100
91360,note_off,,,,,64,0,7,,,,,0,,,83,100
91392,note_on,,,,,32,0,7,,,,,0,,,75,100
91392,note_on,,,,,0,0,12,,,,,5,,,66,100
91392,note_on,,,,,512,0,11,,,,,4,,,35,85
91392,note_on,,,,,512,0,13,,,,,5,,,47,100
91392,note_on,,,,,512,0,12,,,,,5,,,63,100
91392,note_on,,,,,512,0,10,,,,,3,,,47,85
91456,note_off,,,,,64,0,7,,,,,0,,,75,100
91488,note_on,,,,,32,0,7,,,,,0,,,83,100
91552,note_off,,,,,64,0,7,,,,,0,,,83,100
91584,note_on,,,,,32,0,7,,,,,0,,,73,100
91648,note_off,,,,,64,0,7,,,,,0,,,73,100
91648,note_off,,,,,256,0,10,,,,,3,,,47,100
91648,note_off,,,,,256,0,12,,,,,5,,,63,100
91648,note_off,,,,,256,0,11,,,,,4,,,35,100
91648,note_off,,,,,256,0,13,,,,,5,,,47,100
91648,note_off,,,,,0,0,12,,,,,5,,,66,100
91680,note_on,,,,,32,0,7,,,,,0,,,83,100
91744,note_off,,,,,64,0,7,,,,,0,,,83,100
91776,note_on,,,,,32,0,7,,,,,0,,,71,100
91840,note_off,,,,,64,0,7,,,,,0,,,71,100
91872,note_on,,,,,32,0,7,,,,,0,,,83,100
91936,note_off,,,,,64,0,7,,,,,0,,,83,100
91968,note_on,,,,,32,0,7,,,,,0,,,73,100
92032,note_off,,,,,64,0,7,,,,,0,,,73,100
92064,note_on,,,,,32,0,7,,,,,0,,,83,100
92128,note_off,,,,,64,0,7,,,,,0,,,83,100
92160,note_on,,,,,512,0,13,,,,,5,,,47,100
92160,note_on,,,,,0,0,12,,,,,5,,,66,100
92160,note_on,,,,,512,0,12,,,,,5,,,63,100
92160,note_on,,,,,512,0,10,,,,,3,,,47,85
92160,note_on,,,,,512,0,11,,,,,4,,,35,85
92160,note_on,,,,,32,0,7,,,,,0,,,75,85
92224,note_off,,,,,64,0,7,,,,,0,,,75,100
92256,note_on,,,,,32,0,7,,,,,0,,,83,85
92320,note_off,,,,,64,0,7,,,,,0,,,83,100
92352,note_on,,,,,32,0,7,,,,,0,,,73,85
92416,note_off,,,,,64,0,7,,,,,0,,,73,100
92416,note_off,,,,,256,0,12,,,,,5,,,63,100
92416,note_off,,,,,0,0,12,,,,,5,,,66,100
92416,note_off,,,,,256,0,11,,,,,4,,,35,100
92416,note_off,,,,,256,0,10,,,,,3,,,47,100
92416,note_off,,,,,256,0,13,,,,,5,,,47,100
92448,note_on,,,,,32,0,7,,,,,0,,,83,85
92512,note_off,,,,,64,0,7,,,,,0,,,83,100
92544,note_on,,,,,32,0,7,,,,,0,,,71,85
92608,note_off,,,,,64,0,7,,,,,0,,,71,100
92640,note_on,,,,,32,0,7,,,,,0,,,83,85
92704,note_off,,,,,64,0,7,,,,,0,,,83,100
92736,note_on,,,,,32,0,7,,,,,0,,,73,85
92800,note_off,,,,,64,0,7,,,,,0,,,73,100
92832,note_on,,,,,32,0,7,,,,,0,,,83,85
92896,note_off,,,,,64,0,7,,,,,0,,,83,100
92928,note_on,,,,,32,0,7,,,,,0,,,75,85
92928,note_on,,,,,512,0,12,,,,,5,,,63,100
92928,note_on,,,,,512,0,13,,,,,5,,,47,100
92928,note_on,,,,,0,0,12,,,,,5,,,66,100
92928,note_on,,,,,512,0,11,,,,,4,,,35,85
92928,note_on,,,,,512,0,10,,,,,3,,,47,85
92992,note_off,,,,,64,0,7,,,,,0,,,75,100
93024,note_on,,,,,32,0,7,,,,,0,,,83,85
93088,note_off,,,,,64,0,7,,,,,0,,,83,100
93120,note_on,,,,,32,0,7,,,,,0,,,73,85
93184,note_off,,,,,256,0,12,,,,,5,,,63,100
93184,note_off,,,,,0,0,12,,,,,5,,,66,100
93184,note_off,,,,,256,0,10,,,,,3,,,47,100
93184,note_off,,,,,256,0,11,,,,,4,,,35,100
93184,note_off,,,,,256,0,13,,,,,5,,,47,100
93184,note_off,,,,,64,0,7,,,,,0,,,73,100
93216,note_on,,,,,32,0,7,,,,,0,,,83,85
93280,note_off,,,,,64,0,7,,,,,0,,,83,100
93312,note_on,,,,,32,0,7,,,,,0,,,71,85
93376,note_off,,,,,64,0,7,,,,,0,,,71,100
93408,note_on,,,,,32,0,7,,,,,0,,,83,85
93472,note_off,,,,,64,0,7,,,,,0,,,83,100
93504,note_on,,,,,32,0,7,,,,,0,,,73,85
93568,note_off,,,,,64,0,7,,,,,0,,,73,100
93600,note_on,,,,,32,0,7,,,,,0,,,83,85
93664,note_off,,,,,64,0,7,,,,,0,,,83,100
93696,note_on,,,,,512,0,13,,,,,5,,,52,100
93696,note_on,,,,,512,0,12,,,,,5,,,68,100
93696,note_on,,,,,0,0,12,,,,,5,,,71,100
93696,note_on,,,,,32,0,7,,,,,0,,,80,100
93696,note_on,,,,,512,0,11,,,,,4,,,40,85
93696,note_on,,,,,512,0,10,,,,,3,,,52,85
93760,note_off,,,,,64,0,7,,,,,0,,,80,100
93792,note_on,,,,,32,0,7,,,,,0,,,76,100
93856,note_off,,,,,64,0,7,,,,,0,,,76,100
93888,note_on,,,,,32,0,7,,,,,0,,,78,100
93952,note_off,,,,,256,0,11,,,,,4,,,40,100
93952,note_off,,,,,0,0,12,,,,,5,,,71,100
93952,note_off,,,,,256,0,12,,,,,5,,,68,100
93952,note_off,,,,,64,0,7,,,,,0,,,78,100
93952,note_off,,,,,256,0,10,,,,,3,,,52,100
93952,note_off,,,,,256,0,13,,,,,5,,,52,100
93984,note_on,,,,,32,0,7,,,,,0,,,76,100
94048,note_off,,,,,64,0,7,,,,,0,,,76,100
94080,note_on,,,,,32,0,7,,,,,0,,,80,100
94144,note_off,,,,,64,0,7,,,,,0,,,80,100
94176,note_on,,,,,32,0,7,,,,,0,,,76,100
94240,note_off,,,,,64,0,7,,,,,0,,,76,100
94272,note_on,,,,,32,0,7,,,,,0,,,81,100
94336,note_off,,,,,64,0,7,,,,,0,,,81,100
94368,note_on,,,,,32,0,7,,,,,0,,,76,100
94432,note_off,,,,,64,0,7,,,,,0,,,76,100
94464,note_on,,,,,512,0,13,,,,,5,,,52,100
94464,note_on,,,,,32,0,7,,,,,0,,,80,100
94464,note_on,,,,,0,0,12,,,,,5,,,71,100
94464,note_on,,,,,512,0,11,,,,,4,,,40,85
94464,note_on,,,,,512,0,10,,,,,3,,,52,85
94464,note_on,,,,,512,0,12,,,,,5,,,68,100
94528,note_off,,,,,64,0,7,,,,,0,,,80,100
94560,note_on,,,,,32,0,7,,,,,0,,,76,100
94624,note_off,,,,,64,0,7,,,,,0,,,76,100
94656,note_on,,,,,32,0,7,,,,,0,,,78,100
94720,note_off,,,,,256,0,13,,,,,5,,,52,100
94720,note_off,,,,,256,0,11,,,,,4,,,40,100
94720,note_off,,,,,256,0,12,,,,,5,,,68,100
94720,note_off,,,,,0,0,12,,,,,5,,,71,100
94720,note_off,,,,,64,0,7,,,,,0,,,78,100
94720,note_off,,,,,256,0,10,,,,,3,,,52,100
94752,note_on,,,,,32,0,7,,,,,0,,,76,100
94816,note_off,,,,,64,0,7,,,,,0,,,76,100
94848,note_on,,,,,32,0,7,,,,,0,,,80,100
94912,note_off,,,,,64,0,7,,,,,0,,,80,100
94944,note_on,,,,,32,0,7,,,,,0,,,76,100
95008,note_off,,,,,64,0,7,,,,,0,,,76,100
95040,note_on,,,,,32,0,7,,,,,0,,,81,100
95104,note_off,,,,,64,0,7,,,,,0,,,81,100
95136,note_on,,,,,32,0,7,,,,,0,,,76,100
95200,note_off,,,,,64,0,7,,,,,0,,,76,100
95232,note_on,,,,,0,0,12,,,,,5,,,71,100
95232,note_on,,,,,512,0,10,,,,,3,,,52,85
95232,note_on,,,,,32,0,7,,,,,0,,,79,100
95232,note_on,,,,,512,0,12,,,,,5,,,67,100
95232,note_on,,,,,512,0,13,,,,,5,,,52,100
95232,note_on,,,,,512,0,11,,,,,4,,,40,85
95296,note_off,,,,,64,0,7,,,,,0,,,79,100
95328,note_on,,,,,32,0,7,,,,,0,,,76,100
95392,note_off,,,,,64,0,7,,,,,0,,,76,100
95424,note_on,,,,,32,0,7,,,,,0,,,78,100
95488,note_off,,,,,256,0,13,,,,,5,,,52,100
95488,note_off,,,,,256,0,11,,,,,4,,,40,100
95488,note_off,,,,,256,0,10,,,,,3,,,52,100
95488,note_off,,,,,0,0,12,,,,,5,,,71,100
95488,note_off,,,,,256,0,12,,,,,5,,,67,100
95488,note_off,,,,,64,0,7,,,,,0,,,78,100
95520,note_on,,,,,32,0,7,,,,,0,,,76,100
95584,note_off,,,,,64,0,7,,,,,0,,,76,100
95616,note_on,,,,,32,0,7,,,,,0,,,79,100
95680,note_off,,,,,64,0,7,,,,,0,,,79,100
95712,note_on,,,,,32,0,7,,,,,0,,,76,100
95776,note_off,,,,,64,0,7,,,,,0,,,76,100
95808,note_on,,,,,32,0,7,,,,,0,,,81,100
95872,note_off,,,,,64,0,7,,,,,0,,,81,100
95904,note_on,,,,,32,0,7,,,,,0,,,76,100
95968,note_off,,,,,64,0,7,,,,,0,,,76,100
96000,note_on,,,,,0,0,12,,,,,5,,,67,100
96000,note_on,,,,,512,0,13,,,,,5,,,52,100
96000,note_on,,,,,32,0,7,,,,,0,,,79,100
96000,note_on,,,,,512,0,11,,,,,4,,,40,85
96000,note_on,,,,,512,0,12,,,,,5,,,71,100
96000,note_on,,,,,512,0,10,,,,,3,,,52,85
96064,note_off,,,,,64,0,7,,,,,0,,,79,100
96096,note_on,,,,,32,0,7,,,,,0,,,76,100
96160,note_off,,,,,64,0,7,,,,,0,,,76,100
96192,note_on,,,,,32,0,7,,,,,0,,,78,100
96256,note_off,,,,,256,0,11,,,,,4,,,40,100
96256,note_off,,,,,256,0,12,,,,,5,,,71,100
96256,note_off,,,,,256,0,13,,,,,5,,,52,100
96256,note_off,,,,,64,0,7,,,,,0,,,78,100
96256,note_off,,,,,0,0,12,,,,,5,,,67,100
96256,note_off,,,,,256,0,10,,,,,3,,,52,100
96288,note_on,,,,,32,0,7,,,,,0,,,76,100
96352,note_off,,,,,64,0,7,,,,,0,,,76,100
96384,note_on,,,,,32,0,7,,,,,0,,,79,100
96448,note_off,,,,,64,0,7,,,,,0,,,79,100
96480,note_on,,,,,32,0,7,,,,,0,,,76,100
96544,note_off,,,,,64,0,7,,,,,0,,,76,100
96576,note_on,,,,,32,0,7,,,,,0,,,76,100
96640,note_off,,,,,64,0,7,,,,,0,,,76,100
96672,note_on,,,,,32,0,7,,,,,0,,,76,100
96736,note_off,,,,,64,0,7,,,,,0,,,76,100
96768,note_on,,,,,512,0,11,,,,,4,,,42,85
96768,note_on,,,,,512,0,13,,,,,5,,,54,100
96768,note_on,,,,,32,0,7,,,,,0,,,70,100
96768,note_on,,,,,512,0,12,,,,,5,,,70,100
96768,note_on,,,,,512,0,10,,,,,3,,,54,85
96768,note_on,,,,,0,0,12,,,,,5,,,76,100
96832,note_off,,,,,64,0,7,,,,,0,,,70,100
96864,note_on,,,,,32,0,7,,,,,0,,,76,100
96928,note_off,,,,,64,0,7,,,,,0,,,76,100
96960,note_on,,,,,32,0,7,,,,,0,,,73,100
97024,note_off,,,,,256,0,13,,,,,5,,,54,100
97024,note_off,,,,,256,0,11,,,,,4,,,42,100
97024,note_off,,,,,0,0,12,,,,,5,,,76,100
97024,note_off,,,,,64,0,7,,,,,0,,,73,100
97024,note_off,,,,,256,0,10,,,,,3,,,54,100
97024,note_off,,,,,256,0,12,,,,,5,,,70,100
97056,note_on,,,,,32,0,7,,,,,0,,,76,100
97120,note_off,,,,,64,0,7,,,,,0,,,76,100
97152,note_on,,,,,32,0,7,,,,,0,,,70,100
97216,note_off,,,,,64,0,7,,,,,0,,,70,100
97248,note_on,,,,,32,0,7,,,,,0,,,76,100
97312,note_off,,,,,64,0,7,,,,,0,,,76,100
97344,note_on,,,,,32,0,7,,,,,0,,,73,100
97408,note_off,,,,,64,0,7,,,,,0,,,73,100
97440,note_on,,,,,32,0,7,,,,,0,,,76,100
97504,note_off,,,,,64,0,7,,,,,0,,,76,100
97536,note_on,,,,,512,0,10,,,,,3,,,54,85
97536,note_on,,,,,512,0,12,,,,,5,,,70,100
97536,note_on,,,,,512,0,11,,,,,4,,,42,85
97536,note_on,,,,,0,0,12,,,,,5,,,76,100
97536,note_on,,,,,32,0,7,,,,,0,,,70,100
97536,note_on,,,,,512,0,13,,,,,5,,,54,100
97600,note_off,,,,,64,0,7,,,,,0,,,70,100
97632,note_on,,,,,32,0,7,,,,,0,,,76,100
97696,note_off,,,,,64,0,7,,,,,0,,,76,100
97728,note_on,,,,,32,0,7,,,,,0,,,73,100
97792,note_off,,,,,256,0,13,,,,,5,,,54,100
97792,note_off,,,,,64,0,7,,,,,0,,,73,100
97792,note_off,,,,,0,0,12,,,,,5,,,76,100
97792,note_off,,,,,256,0,12,,,,,5,,,70,100
97792,note_off,,,,,256,0,10,,,,,3,,,54,100
97792,note_off,,,,,256,0,11,,,,,4,,,42,100
97824,note_on,,,,,32,0,7,,,,,0,,,76,100
97888,note_off,,,,,64,0,7,,,,,0,,,76,100
97920,note_on,,,,,32,0,7,,,,,0,,,70,100
97984,note_off,,,,,64,0,7,,,,,0,,,70,100
98016,note_on,,,,,32,0,7,,,,,0,,,76,100
98080,note_off,,,,,64,0,7,,,,,0,,,76,100
98112,note_on,,,,,32,0,7,,,,,0,,,73,100
98176,note_off,,,,,64,0,7,,,,,0,,,73,100
98208,note_on,,,,,32,0,7,,,,,0,,,76,100
98272,note_off,,,,,64,0,7,,,,,0,,,76,100
98304,note_on,,,,,512,0,11,,,,,4,,,42,85
98304,note_on,,,,,0,0,12,,,,,5,,,76,100
98304,note_on,,,,,32,0,7,,,,,0,,,70,100
98304,note_on,,,,,512,0,10,,,,,3,,,54,85
98304,note_on,,,,,512,0,13,,,,,5,,,54,100
98304,note_on,,,,,512,0,12,,,,,5,,,70,100
98368,note_off,,,,,64,0,7,,,,,0,,,70,100
98400,note_on,,,,,32,0,7,,,,,0,,,66,100
98464,note_off,,,,,64,0,7,,,,,0,,,66,100
98496,note_on,,,,,32,0,7,,,,,0,,,70,100
98560,note_off,,,,,256,0,12,,,,,5,,,70,100
98560,note_off,,,,,64,0,7,,,,,0,,,70,100
98560,note_off,,,,,0,0,12,,,,,5,,,76,100
98560,note_off,,,,,256,0,13,,,,,5,,,54,100
98560,note_off,,,,,256,0,10,,,,,3,,,54,100
98560,note_off,,,,,256,0,11,,,,,4,,,42,100
98592,note_on,,,,,32,0,7,,,,,0,,,76,100
98656,note_off,,,,,64,0,7,,,,,0,,,76,100
98688,note_on,,,,,32,0,7,,,,,0,,,70,100
98752,note_off,,,,,64,0,7,,,,,0,,,70,100
98784,note_on,,,,,32,0,7,,,,,0,,,66,100
98848,note_off,,,,,64,0,7,,,,,0,,,66,100
98880,note_on,,,,,32,0,7,,,,,0,,,70,100
98944,note_off,,,,,64,0,7,,,,,0,,,70,100
98976,note_on,,,,,32,0,7,,,,,0,,,76,100
99040,note_off,,,,,64,0,7,,,,,0,,,76,100
99072,note_on,,,,,32,0,7,,,,,0,,,70,100
99072,note_on,,,,,512,0,13,,,,,5,,,54,100
99072,note_on,,,,,512,0,12,,,,,5,,,70,100
99072,note_on,,,,,512,0,11,,,,,4,,,42,85
99072,note_on,,,,,0,0,12,,,,,5,,,76,100
99072,note_on,,,,,512,0,10,,,,,3,,,54,85
99136,note_off,,,,,64,0,7,,,,,0,,,70,100
99168,note_on,,,,,32,0,7,,,,,0,,,66,100
99232,note_off,,,,,64,0,7,,,,,0,,,66,100
99264,note_on,,,,,32,0,7,,,,,0,,,70,100
99328,note_off,,,,,256,0,12,,,,,5,,,70,100
99328,note_off,,,,,256,0,10,,,,,3,,,54,100
99328,note_off,,,,,256,0,13,,,,,5,,,54,100
99328,note_off,,,,,0,0,12,,,,,5,,,76,100
99328,note_off,,,,,64,0,7,,,,,0,,,70,100
99328,note_off,,,,,256,0,11,,,,,4,,,42,100
99360,note_on,,,,,32,0,7,,,,,0,,,76,100
99424,note_off,,,,,64,0,7,,,,,0,,,76,100
99456,note_on,,,,,32,0,7,,,,,0,,,70,100
99520,note_off,,,,,64,0,7,,,,,0,,,70,100
99552,note_on,,,,,32,0,7,,,,,0,,,66,100
99616,note_off,,,,,64,0,7,,,,,0,,,66,100
99648,note_on,,,,,32,0,7,,,,,0,,,70,100
99712,note_off,,,,,64,0,7,,,,,0,,,70,100
99744,note_on,,,,,32,0,7,,,,,0,,,76,100
99808,note_off,,,,,64,0,7,,,,,0,,,76,100
99840,note_on,,,,,512,0,11,,,,,4,,,47,85
99840,note_on,,,,,32,0,7,,,,,0,,,75,100
99840,note_on,,,,,512,0,10,,,,,3,,,59,85
99840,note_on,,,,,512,0,13,,,,,5,,,59,100
99840,note_on,,,,,0,0,12,,,,,5,,,75,100
99840,note_on,,,,,512,0,12,,,,,5,,,66,100
99932,note_off,,,,,92,0,7,,,,,0,,,75,100
99936,note_on,,,,,4,0,7,,,,,0,,,71,100
99968,note_off,,,,,128,0,11,,,,,4,,,47,100
99968,note_off,,,,,128,0,13,,,,,5,,,59,100
99968,note_off,,,,,128,0,10,,,,,3,,,59,100
99968,note_off,,,,,128,0,12,,,,,5,,,75,100
100028,note_off,,,,,92,0,7,,,,,0,,,71,100
100032,note_on,,,,,64,0,13,,,,,5,,,57,100
100032,note_on,,,,,64,0,11,,,,,4,,,45,85
100032,note_on,,,,,4,0,7,,,,,0,,,73,100
100032,note_on,,,,,64,0,12,,,,,5,,,73,100
100032,note_on,,,,,64,0,10,,,,,3,,,57,85
100096,note_off,,,,,64,0,7,,,,,0,,,73,100
100096,note_off,,,,,64,0,12,,,,,5,,,66,100
100128,note_on,,,,,32,0,7,,,,,0,,,75,100
100160,note_off,,,,,128,0,13,,,,,5,,,57,100
100160,note_off,,,,,128,0,10,,,,,3,,,57,100
100160,note_off,,,,,128,0,11,,,,,4,,,45,100
100160,note_off,,,,,64,0,12,,,,,5,,,73,100
100192,note_off,,,,,64,0,7,,,,,0,,,75,100
100224,note_on,,,,,32,0,7,,,,,0,,,76,100
100224,note_on,,,,,64,0,11,,,,,4,,,44,85
100224,note_on,,,,,64,0,13,,,,,5,,,56,100
100224,note_on,,,,,64,0,10,,,,,3,,,56,85
100224,note_on,,,,,64,0,12,,,,,5,,,64,100
100224,note_on,,,,,0,0,12,,,,,5,,,71,100
100288,note_off,,,,,64,0,7,,,,,0,,,76,100
100320,note_on,,,,,32,0,7,,,,,0,,,78,100
100352,note_off,,,,,128,0,11,,,,,4,,,44,100
100352,note_off,,,,,0,0,12,,,,,5,,,71,100
100352,note_off,,,,,128,0,12,,,,,5,,,64,100
100352,note_off,,,,,128,0,10,,,,,3,,,56,100
100352,note_off,,,,,128,0,13,,,,,5,,,56,100
100384,note_off,,,,,64,0,7,,,,,0,,,78,100
100416,note_on,,,,,64,0,13,,,,,5,,,54,100
100416,note_on,,,,,32,0,7,,,,,0,,,80,100
100416,note_on,,,,,64,0,12,,,,,5,,,70,100
100416,note_on,,,,,64,0,11,,,,,4,,,42,85
100416,note_on,,,,,64,0,10,,,,,3,,,54,85
100480,note_off,,,,,64,0,7,,,,,0,,,80,100
100480,note_off,,,,,64,0,12,,,,,5,,,70,100
100480,note_off,,,,,64,0,10,,,,,3,,,54,100
100480,note_off,,,,,64,0,13,,,,,5,,,54,100
100480,note_off,,,,,64,0,11,,,,,4,,,42,100
100512,note_on,,,,,32,0,11,,,,,4,,,40,85
100512,note_on,,,,,32,0,13,,,,,5,,,52,100
100512,note_on,,,,,32,0,7,,,,,0,,,82,100
100512,note_on,,,,,32,0,12,,,,,5,,,71,100
100512,note_on,,,,,32,0,10,,,,,3,,,52,85
100576,note_off,,,,,64,0,13,,,,,5,,,52,100
100576,note_off,,,,,64,0,12,,,,,5,,,71,100
100576,note_off,,,,,64,0,10,,,,,3,,,52,100
100576,note_off,,,,,64,0,11,,,,,4,,,40,100
100576,note_off,,,,,64,0,7,,,,,0,,,82,100
100608,note_on,,,,,32,0,11,,,,,4,,,39,85
100608,note_on,,,,,32,0,13,,,,,5,,,51,100
100608,note_on,,,,,32,0,10,,,,,3,,,51,85
100608,note_on,,,,,0,0,12,,,,,5,,,71,100
100608,note_on,,,,,32,0,12,,,,,5,,,66,100
100608,note_on,,,,,32,0,7,,,,,0,,,83,100
100700,note_off,,,,,92,0,7,,,,,0,,,83,100
100704,note_on,,,,,4,0,7,,,,,0,,,75,100
100736,note_off,,,,,128,0,12,,,,,5,,,66,100
100736,note_off,,,,,128,0,13,,,,,5,,,51,100
100736,note_off,,,,,128,0,11,,,,,4,,,39,100
100736,note_off,,,,,128,0,10,,,,,3,,,51,100
100796,note_off,,,,,92,0,7,,,,,0,,,75,100
100800,note_on,,,,,64,0,13,,,,,5,,,49,100
100800,note_on,,,,,4,0,7,,,,,0,,,73,100
100800,note_on,,,,,64,0,11,,,,,4,,,37,85
100800,note_on,,,,,64,0,10,,,,,3,,,49,85
100800,note_on,,,,,64,0,12,,,,,5,,,64,100
100864,note_off,,,,,64,0,12,,,,,5,,,71,100
100892,note_off,,,,,92,0,7,,,,,0,,,73,100
100896,note_on,,,,,4,0,7,,,,,0,,,75,100
100928,note_off,,,,,64,0,12,,,,,5,,,64,100
100928,note_off,,,,,128,0,10,,,,,3,,,49,100
100928,note_off,,,,,128,0,11,,,,,4,,,37,100
100928,note_off,,,,,128,0,13,,,,,5,,,49,100
100960,note_off,,,,,64,0,7,,,,,0,,,75,100
100992,note_on,,,,,32,0,7,,,,,0,,,83,100
100992,note_on,,,,,64,0,12,,,,,5,,,66,100
100992,note_on,,,,,64,0,11,,,,,4,,,39,85
100992,note_on,,,,,64,0,10,,,,,3,,,51,85
100992,note_on,,,,,64,0,13,,,,,5,,,51,100
100992,note_on,,,,,0,0,12,,,,,5,,,71,100
101084,note_off,,,,,92,0,7,,,,,0,,,83,100
101088,note_on,,,,,4,0,7,,,,,0,,,75,100
101120,note_off,,,,,128,0,12,,,,,5,,,66,100
101120,note_off,,,,,128,0,13,,,,,5,,,51,100
101120,note_off,,,,,128,0,11,,,,,4,,,39,100
101120,note_off,,,,,128,0,10,,,,,3,,,51,100
101180,note_off,,,,,92,0,7,,,,,0,,,75,100
101184,note_on,,,,,64,0,11,,,,,4,,,35,85
101184,note_on,,,,,64,0,10,,,,,3,,,47,85
101184,note_on,,,,,64,0,13,,,,,5,,,47,100
101184,note_on,,,,,4,0,7,,,,,0,,,73,100
101184,note_on,,,,,64,0,12,,,,,5,,,63,100
101248,note_off,,,,,64,0,12,,,,,5,,,71,100
101276,note_off,,,,,92,0,7,,,,,0,,,73,100
101280,note_on,,,,,4,0,7,,,,,0,,,75,100
101312,note_off,,,,,128,0,10,,,,,3,,,47,100
101312,note_off,,,,,128,0,11,,,,,4,,,35,100
101312,note_off,,,,,64,0,12,,,,,5,,,63,100
101312,note_off,,,,,128,0,13,,,,,5,,,47,100
101344,note_off,,,,,64,0,7,,,,,0,,,75,100
101376,note_on,,,,,32,0,7,,,,,0,,,83,100
101376,note_on,,,,,64,0,12,,,,,5,,,61,100
101376,note_on,,,,,0,0,12,,,,,5,,,71,100
101376,note_on,,,,,64,0,13,,,,,5,,,52,100
101376,note_on,,,,,64,0,11,,,,,4,,,40,85
101376,note_on,,,,,64,0,10,,,,,3,,,52,85
101468,note_off,,,,,92,0,7,,,,,0,,,83,100
101472,note_on,,,,,4,0,7,,,,,0,,,73,100
101504,note_off,,,,,128,0,12,,,,,5,,,61,100
101504,note_off,,,,,128,0,13,,,,,5,,,52,100
101504,note_off,,,,,128,0,10,,,,,3,,,52,100
101504,note_off,,,,,128,0,11,,,,,4,,,40,100
101564,note_off,,,,,92,0,7,,,,,0,,,73,100
101568,note_on,,,,,64,0,10,,,,,3,,,51,85
101568,note_on,,,,,64,0,13,,,,,5,,,51,100
101568,note_on,,,,,4,0,7,,,,,0,,,71,100
101568,note_on,,,,,64,0,12,,,,,5,,,66,100
101568,note_on,,,,,64,0,11,,,,,4,,,39,85
101632,note_off,,,,,64,0,12,,,,,5,,,71,100
101660,note_off,,,,,92,0,7,,,,,0,,,71,100
101664,note_on,,,,,4,0,7,,,,,0,,,73,101
101696,note_off,,,,,128,0,11,,,,,4,,,39,100
101696,note_off,,,,,128,0,10,,,,,3,,,51,100
101696,note_off,,,,,128,0,13,,,,,5,,,51,100
101696,note_off,,,,,64,0,12,,,,,5,,,66,100
101728,note_off,,,,,64,0,7,,,,,0,,,73,100
101760,note_on,,,,,64,0,11,,,,,4,,,40,85
101760,note_on,,,,,32,0,7,,,,,0,,,83,101
101760,note_on,,,,,64,0,10,,,,,3,,,52,85
101760,note_on,,,,,0,0,12,,,,,5,,,71,100
101760,note_on,,,,,64,0,12,,,,,5,,,61,100
101760,note_on,,,,,64,0,13,,,,,5,,,52,100
101852,note_off,,,,,92,0,7,,,,,0,,,83,100
101856,note_on,,,,,4,0,7,,,,,0,,,73,102
101888,note_off,,,,,128,0,11,,,,,4,,,40,100
101888,note_off,,,,,128,0,10,,,,,3,,,52,100
101888,note_off,,,,,128,0,13,,,,,5,,,52,100
101888,note_off,,,,,128,0,12,,,,,5,,,61,100
101948,note_off,,,,,92,0,7,,,,,0,,,73,100
101952,note_on,,,,,4,0,7,,,,,0,,,71,102
101952,note_on,,,,,64,0,10,,,,,3,,,49,85
101952,note_on,,,,,64,0,13,,,,,5,,,49,100
101952,note_on,,,,,64,0,12,,,,,5,,,66,100
101952,note_on,,,,,64,0,11,,,,,4,,,37,85
102016,note_off,,,,,64,0,12,,,,,5,,,71,100
102044,note_off,,,,,92,0,7,,,,,0,,,71,100
102048,note_on,,,,,4,0,7,,,,,0,,,73,102
102080,note_off,,,,,64,0,12,,,,,5,,,66,100
102080,note_off,,,,,128,0,13,,,,,5,,,49,100
102080,note_off,,,,,128,0,10,,,,,3,,,49,100
102080,note_off,,,,,128,0,11,,,,,4,,,37,100
102112,note_off,,,,,64,0,7,,,,,0,,,73,100
102144,note_on,,,,,64,0,11,,,,,4,,,42,85
102144,note_on,,,,,64,0,12,,,,,5,,,61,100
102144,note_on,,,,,64,0,10,,,,,3,,,54,85
102144,note_on,,,,,64,0,13,,,,,5,,,54,100
102144,note_on,,,,,32,0,7,,,,,0,,,82,103
102144,note_on,,,,,0,0,12,,,,,5,,,70,100
102236,note_off,,,,,92,0,7,,,,,0,,,82,100
102240,note_on,,,,,4,0,7,,,,,0,,,73,103
102272,note_off,,,,,128,0,12,,,,,5,,,61,100
102272,note_off,,,,,128,0,10,,,,,3,,,54,100
102272,note_off,,,,,128,0,11,,,,,4,,,42,100
102272,note_off,,,,,128,0,13,,,,,5,,,54,100
102332,note_off,,,,,92,0,7,,,,,0,,,73,100
102336,note_on,,,,,64,0,11,,,,,4,,,40,85
102336,note_on,,,,,4,0,7,,,,,0,,,71,104
102336,note_on,,,,,64,0,10,,,,,3,,,52,85
102336,note_on,,,,,64,0,13,,,,,5,,,52,100
102336,note_on,,,,,64,0,12,,,,,5,,,66,100
102400,note_off,,,,,64,0,12,,,,,5,,,70,100
102428,note_off,,,,,92,0,7,,,,,0,,,71,100
102432,note_on,,,,,4,0,7,,,,,0,,,73,104
102464,note_off,,,,,128,0,11,,,,,4,,,40,100
102464,note_off,,,,,64,0,12,,,,,5,,,66,100
102464,note_off,,,,,128,0,10,,,,,3,,,52,100
102464,note_off,,,,,128,0,13,,,,,5,,,52,100
102496,note_off,,,,,64,0,7,,,,,0,,,73,100
102528,note_on,,,,,64,0,13,,,,,5,,,54,100
102528,note_on,,,,,0,0,12,,,,,5,,,70,100
102528,note_on,,,,,64,0,12,,,,,5,,,61,100
102528,note_on,,,,,64,0,11,,,,,4,,,42,85
102528,note_on,,,,,64,0,10,,,,,3,,,54,85
102528,note_on,,,,,32,0,7,,,,,0,,,82,104
102620,note_off,,,,,92,0,7,,,,,0,,,82,100
102624,note_on,,,,,4,0,7,,,,,0,,,73,105
102656,note_off,,,,,128,0,11,,,,,4,,,42,100
102656,note_off,,,,,128,0,12,,,,,5,,,61,100
102656,note_off,,,,,128,0,10,,,,,3,,,54,100
102656,note_off,,,,,128,0,13,,,,,5,,,54,100
102716,note_off,,,,,92,0,7,,,,,0,,,73,100
102720,note_on,,,,,64,0,11,,,,,4,,,42,85
102720,note_on,,,,,64,0,12,,,,,5,,,66,100
102720,note_on,,,,,4,0,7,,,,,0,,,71,105
102720,note_on,,,,,64,0,10,,,,,3,,,42,85
102720,note_on,,,,,64,0,13,,,,,5,,,42,100
102784,note_off,,,,,64,0,12,,,,,5,,,70,100
102812,note_off,,,,,92,0,7,,,,,0,,,71,100
102816,note_on,,,,,4,0,7,,,,,0,,,73,106
102848,note_off,,,,,128,0,11,,,,,4,,,42,100
102848,note_off,,,,,128,0,10,,,,,3,,,42,100
102848,note_off,,,,,64,0,12,,,,,5,,,66,100
102848,note_off,,,,,128,0,13,,,,,5,,,42,100
102880,note_off,,,,,64,0,7,,,,,0,,,73,100
102912,note_on,,,,,0,0,12,,,,,5,,,63,100
102912,note_on,,,,,64,0,13,,,,,5,,,47,100
102912,note_on,,,,,0,0,12,,,,,5,,,71,100
102912,note_on,,,,,64,0,12,,,,,5,,,66,100
102912,note_on,,,,,64,0,10,,,,,3,,,47,85
102912,note_on,,,,,32,0,7,,,,,0,,,71,106
102912,note_on,,,,,64,0,11,,,,,4,,,35,85
103004,note_off,,,,,92,0,7,,,,,0,,,71,100
103008,note_on,,,,,4,0,7,,,,,0,,,83,107
103100,note_off,,,,,92,0,7,,,,,0,,,83,100
103104,note_on,,,,,4,0,7,,,,,0,,,82,107
103168,note_off,,,,,256,0,10,,,,,3,,,47,100
103168,note_off,,,,,0,0,12,,,,,5,,,71,100
103168,note_off,,,,,64,0,7,,,,,0,,,82,100
103168,note_off,,,,,256,0,11,,,,,4,,,35,100
103168,note_off,,,,,0,0,12,,,,,5,,,63,100
103168,note_off,,,,,256,0,13,,,,,5,,,47,100
103168,note_off,,,,,256,0,12,,,,,5,,,66,100
103200,note_on,,,,,32,0,7,,,,,0,,,80,107
103264,note_off,,,,,64,0,7,,,,,0,,,80,100
103296,note_on,,,,,32,0,7,,,,,0,,,78,108
103360,note_off,,,,,64,0,7,,,,,0,,,78,100
103392,note_on,,,,,32,0,7,,,,,0,,,76,108
103456,note_off,,,,,64,0,7,,,,,0,,,76,100
103488,note_on,,,,,32,0,7,,,,,0,,,75,109
103552,note_off,,,,,64,0,7,,,,,0,,,75,100
103584,note_on,,,,,32,0,7,,,,,0,,,73,109
103648,note_off,,,,,64,0,7,,,,,0,,,73,100
103680,note_on,,,,,0,0,12,,,,,5,,,75,100
103680,note_on,,,,,512,0,12,,,,,5,,,71,100
103680,note_on,,,,,32,0,7,,,,,0,,,71,109
103680,note_on,,,,,0,0,12,,,,,5,,,66,100
103680,note_on,,,,,512,0,13,,,,,5,,,59,100
103680,note_on,,,,,512,0,11,,,,,4,,,47,100
103680,note_on,,,,,512,0,10,,,,,3,,,59,100
103680,note_on,,,,,35840,0,9,,,,,2,,,63,100
103680,note_on,,,,,35712,0,8,,,,,1,,,71,100
103808,note_off,,,,,128,0,12,,,,,5,,,75,100
103808,note_off,,,,,128,0,13,,,,,5,,,59,100
103808,note_off,,,,,128,0,11,,,,,4,,,47,100
103808,note_off,,,,,128,0,10,,,,,3,,,59,100
103808,note_off,,,,,128,0,9,,,,,2,,,63,100
103872,note_on,,,,,64,0,11,,,,,4,,,49,100
103872,note_on,,,,,64,0,9,,,,,2,,,64,100
103872,note_on,,,,,64,0,13,,,,,5,,,61,100
103872,note_on,,,,,64,0,12,,,,,5,,,76,100
103872,note_on,,,,,64,0,10,,,,,3,,,61,100
103936,note_off,,,,,256,0,7,,,,,0,,,71,100
103936,note_off,,,,,256,0,8,,,,,1,,,71,100
103936,note_off,,,,,0,0,12,,,,,5,,,66,100
103936,note_off,,,,,64,0,12,,,,,5,,,71,100
104000,note_off,,,,,128,0,13,,,,,5,,,61,100
104000,note_off,,,,,128,0,11,,,,,4,,,49,100
104000,note_off,,,,,128,0,9,,,,,2,,,64,100
104000,note_off,,,,,128,0,10,,,,,3,,,61,100
104000,note_off,,,,,64,0,12,,,,,5,,,76,100
104064,note_on,,,,,64,0,10,,,,,3,,,63,100
104064,note_on,,,,,0,0,12,,,,,5,,,71,100
104064,note_on,,,,,64,0,12,,,,,5,,,78,100
104064,note_on,,,,,64,0,9,,,,,2,,,66,100
104064,note_on,,,,,64,0,13,,,,,5,,,63,100
104064,note_on,,,,,64,0,11,,,,,4,,,51,100
104160,note_on,,,,,224,0,8,,,,,1,,,71,100
104192,note_off,,,,,128,0,13,,,,,5,,,63,100
104192,note_off,,,,,128,0,11,,,,,4,,,51,100
104192,note_off,,,,,128,0,9,,,,,2,,,66,100
104192,note_off,,,,,128,0,12,,,,,5,,,71,100
104192,note_off,,,,,128,0,10,,,,,3,,,63,100
104224,note_off,,,,,64,0,8,,,,,1,,,71,100
104256,note_on,,,,,32,0,8,,,,,1,,,75,100
104256,note_on,,,,,64,0,9,,,,,2,,,63,100
104256,note_on,,,,,64,0,12,,,,,5,,,71,100
104256,note_on,,,,,0,0,12,,,,,5,,,75,100
104256,note_on,,,,,64,0,11,,,,,4,,,47,100
104256,note_on,,,,,64,0,10,,,,,3,,,59,100
104256,note_on,,,,,64,0,13,,,,,5,,,59,100
104320,note_off,,,,,64,0,12,,,,,5,,,78,100
104320,note_off,,,,,64,0,8,,,,,1,,,75,100
104352,note_on,,,,,32,0,8,,,,,1,,,76,100
104384,note_off,,,,,64,0,12,,,,,5,,,71,100
104384,note_off,,,,,128,0,9,,,,,2,,,63,100
104384,note_off,,,,,128,0,13,,,,,5,,,59,100
104384,note_off,,,,,128,0,11,,,,,4,,,47,100
104384,note_off,,,,,0,0,12,,,,,5,,,75,100
104384,note_off,,,,,128,0,10,,,,,3,,,59,100
104416,note_off,,,,,64,0,8,,,,,1,,,76,100
104448,note_on,,,,,64,0,10,,,,,3,,,58,100
104448,note_on,,,,,64,0,9,,,,,2,,,73,100
104448,note_on,,,,,64,0,13,,,,,5,,,58,100
104448,note_on,,,,,0,0,12,,,,,5,,,73,100
104448,note_on,,,,,64,0,11,,,,,4,,,46,100
104448,note_on,,,,,64,0,12,,,,,5,,,78,100
104448,note_on,,,,,0,0,12,,,,,5,,,70,100
104448,note_on,,,,,32,0,8,,,,,1,,,78,100
104576,note_off,,,,,128,0,11,,,,,4,,,46,100
104576,note_off,,,,,128,0,9,,,,,2,,,73,100
104576,note_off,,,,,128,0,8,,,,,1,,,78,100
104576,note_off,,,,,128,0,12,,,,,5,,,70,100
104576,note_off,,,,,128,0,10,,,,,3,,,58,100
104576,note_off,,,,,0,0,12,,,,,5,,,73,100
104576,note_off,,,,,128,0,13,,,,,5,,,58,100
104640,note_on,,,,,64,0,8,,,,,1,,,78,98
104640,note_on,,,,,64,0,10,,,,,3,,,56,100
104640,note_on,,,,,64,0,9,,,,,2,,,71,100
104640,note_on,,,,,64,0,12,,,,,5,,,71,100
104640,note_on,,,,,64,0,13,,,,,5,,,56,100
104640,note_on,,,,,64,0,11,,,,,4,,,44,100
104704,note_off,,,,,64,0,12,,,,,5,,,78,100
104768,note_off,,,,,128,0,13,,,,,5,,,56,100
104768,note_off,,,,,128,0,10,,,,,3,,,56,100
104768,note_off,,,,,128,0,9,,,,,2,,,71,100
104768,note_off,,,,,128,0,11,,,,,4,,,44,100
104768,note_off,,,,,64,0,12,,,,,5,,,71,100
104768,note_off,,,,,128,0,8,,,,,1,,,78,100
104832,note_on,,,,,64,0,10,,,,,3,,,58,100
104832,note_on,,,,,64,0,11,,,,,4,,,46,100
104832,note_on,,,,,64,0,13,,,,,5,,,58,100
104832,note_on,,,,,64,0,8,,,,,1,,,78,95
104832,note_on,,,,,64,0,9,,,,,2,,,73,100
104832,note_on,,,,,64,0,12,,,,,5,,,73,100
104832,note_on,,,,,0,0,12,,,,,5,,,78,100
104960,note_off,,,,,128,0,13,,,,,5,,,58,100
104960,note_off,,,,,128,0,8,,,,,1,,,78,100
104960,note_off,,,,,128,0,9,,,,,2,,,73,100
104960,note_off,,,,,128,0,10,,,,,3,,,58,100
104960,note_off,,,,,128,0,11,,,,,4,,,46,100
104960,note_off,,,,,128,0,12,,,,,5,,,73,100
105024,note_on,,,,,64,0,12,,,,,5,,,70,100
105024,note_on,,,,,0,0,12,,,,,5,,,73,100
105024,note_on,,,,,64,0,9,,,,,2,,,70,100
105024,note_on,,,,,64,0,11,,,,,4,,,42,100
105024,note_on,,,,,64,0,8,,,,,1,,,78,92
105024,note_on,,,,,64,0,13,,,,,5,,,54,100
105024,note_on,,,,,64,0,10,,,,,3,,,54,100
105088,note_off,,,,,64,0,12,,,,,5,,,78,100
105152,note_off,,,,,128,0,9,,,,,2,,,70,100
105152,note_off,,,,,0,0,12,,,,,5,,,73,100
105152,note_off,,,,,64,0,12,,,,,5,,,70,100
105152,note_off,,,,,128,0,10,,,,,3,,,54,100
105152,note_off,,,,,128,0,13,,,,,5,,,54,100
105152,note_off,,,,,128,0,11,,,,,4,,,42,100
105152,note_off,,,,,128,0,8,,,,,1,,,78,100
105216,note_on,,,,,64,0,10,,,,,3,,,59,70
105216,note_on,,,,,64,0,11,,,,,4,,,47,70
105216,note_on,,,,,0,0,12,,,,,5,,,75,100
105216,note_on,,,,,0,0,12,,,,,5,,,78,100
105216,note_on,,,,,64,0,12,,,,,5,,,71,100
105216,note_on,,,,,64,0,9,,,,,2,,,66,70
105216,note_on,,,,,64,0,13,,,,,5,,,59,100
105216,note_on,,,,,64,0,8,,,,,1,,,75,89
105344,note_off,,,,,0,0,12,,,,,5,,,75,100
105344,note_off,,,,,128,0,13,,,,,5,,,59,100
105344,note_off,,,,,128,0,11,,,,,4,,,47,100
105344,note_off,,,,,128,0,12,,,,,5,,,71,100
105344,note_off,,,,,128,0,10,,,,,3,,,59,100
105344,note_off,,,,,128,0,9,,,,,2,,,66,100
105344,note_off,,,,,128,0,8,,,,,1,,,75,100
105408,note_on,,,,,64,0,13,,,,,5,,,61,100
105408,note_on,,,,,64,0,8,,,,,1,,,71,86
105408,note_on,,,,,64,0,11,,,,,4,,,49,70
105408,note_on,,,,,64,0,12,,,,,5,,,76,100
105408,note_on,,,,,64,0,9,,,,,2,,,64,70
105408,note_on,,,,,64,0,10,,,,,3,,,61,70
105472,note_off,,,,,64,0,12,,,,,5,,,78,100
105536,note_off,,,,,128,0,13,,,,,5,,,61,100
105536,note_off,,,,,64,0,12,,,,,5,,,76,100
105536,note_off,,,,,128,0,9,,,,,2,,,64,100
105536,note_off,,,,,128,0,8,,,,,1,,,71,100
105536,note_off,,,,,128,0,11,,,,,4,,,49,100
105536,note_off,,,,,128,0,10,,,,,3,,,61,100
105600,note_on,,,,,64,0,10,,,,,3,,,63,70
105600,note_on,,,,,64,0,12,,,,,5,,,78,100
105600,note_on,,,,,0,0,12,,,,,5,,,71,100
105600,note_on,,,,,64,0,9,,,,,2,,,66,70
105600,note_on,,,,,64,0,11,,,,,4,,,51,70
105600,note_on,,,,,64,0,13,,,,,5,,,63,100
105696,note_on,,,,,160,0,8,,,,,1,,,71,70
105728,note_off,,,,,128,0,12,,,,,5,,,71,100
105728,note_off,,,,,128,0,13,,,,,5,,,63,100
105728,note_off,,,,,128,0,11,,,,,4,,,51,100
105728,note_off,,,,,128,0,9,,,,,2,,,66,100
105728,note_off,,,,,128,0,10,,,,,3,,,63,100
105760,note_off,,,,,64,0,8,,,,,1,,,71,100
105792,note_on,,,,,32,0,8,,,,,1,,,75,70
105792,note_on,,,,,64,0,13,,,,,5,,,59,100
105792,note_on,,,,,64,0,11,,,,,4,,,47,70
105792,note_on,,,,,64,0,10,,,,,3,,,59,70
105792,note_on,,,,,0,0,12,,,,,5,,,75,100
105792,note_on,,,,,64,0,12,,,,,5,,,71,100
105792,note_on,,,,,64,0,9,,,,,2,,,63,70
105856,note_off,,,,,64,0,8,,,,,1,,,75,100
105856,note_off,,,,,64,0,12,,,,,5,,,78,100
105888,note_on,,,,,32,0,8,,,,,1,,,76,70
105920,note_off,,,,,128,0,10,,,,,3,,,59,100
105920,note_off,,,,,0,0,12,,,,,5,,,75,100
105920,note_off,,,,,128,0,11,,,,,4,,,47,100
105920,note_off,,,,,128,0,9,,,,,2,,,63,100
105920,note_off,,,,,64,0,12,,,,,5,,,71,100
105920,note_off,,,,,128,0,13,,,,,5,,,59,100
105952,note_off,,,,,64,0,8,,,,,1,,,76,100
105984,note_on,,,,,64,0,12,,,,,5,,,78,100
105984,note_on,,,,,64,0,11,,,,,4,,,46,70
105984,note_on,,,,,64,0,10,,,,,3,,,58,70
105984,note_on,,,,,64,0,9,,,,,2,,,73,70
105984,note_on,,,,,64,0,13,,,,,5,,,58,100
105984,note_on,,,,,0,0,12,,,,,5,,,70,100
105984,note_on,,,,,0,0,12,,,,,5,,,73,100
105984,note_on,,,,,32,0,8,,,,,1,,,78,70
106112,note_off,,,,,128,0,13,,,,,5,,,58,100
106112,note_off,,,,,128,0,11,,,,,4,,,46,100
106112,note_off,,,,,128,0,10,,,,,3,,,58,100
106112,note_off,,,,,128,0,12,,,,,5,,,70,100
106112,note_off,,,,,128,0,9,,,,,2,,,73,100
106112,note_off,,,,,0,0,12,,,,,5,,,73,100
106112,note_off,,,,,128,0,8,,,,,1,,,78,100
106176,note_on,,,,,64,0,12,,,,,5,,,71,100
106176,note_on,,,,,64,0,11,,,,,4,,,44,70
106176,note_on,,,,,64,0,8,,,,,1,,,78,70
106176,note_on,,,,,64,0,10,,,,,3,,,56,70
106176,note_on,,,,,64,0,9,,,,,2,,,71,70
106176,note_on,,,,,64,0,13,,,,,5,,,56,100
106240,note_off,,,,,64,0,12,,,,,5,,,78,100
106304,note_off,,,,,128,0,9,,,,,2,,,71,100
106304,note_off,,,,,64,0,12,,,,,5,,,71,100
106304,note_off,,,,,128,0,11,,,,,4,,,44,100
106304,note_off,,,,,128,0,8,,,,,1,,,78,100
106304,note_off,,,,,128,0,10,,,,,3,,,56,100
106304,note_off,,,,,128,0,13,,,,,5,,,56,100
106368,note_on,,,,,0,0,12,,,,,5,,,78,100
106368,note_on,,,,,64,0,9,,,,,2,,,73,70
106368,note_on,,,,,64,0,12,,,,,5,,,73,100
106368,note_on,,,,,64,0,13,,,,,5,,,58,100
106368,note_on,,,,,64,0,10,,,,,3,,,58,70
106368,note_on,,,,,64,0,11,,,,,4,,,46,70
106368,note_on,,,,,64,0,8,,,,,1,,,78,70
106496,note_off,,,,,128,0,8,,,,,1,,,78,100
106496,note_off,,,,,128,0,12,,,,,5,,,73,100
106496,note_off,,,,,128,0,10,,,,,3,,,58,100
106496,note_off,,,,,128,0,13,,,,,5,,,58,100
106496,note_off,,,,,128,0,9,,,,,2,,,73,100
106496,note_off,,,,,128,0,11,,,,,4,,,46,100
106560,note_on,,,,,64,0,8,,,,,1,,,78,70
106560,note_on,,,,,64,0,11,,,,,4,,,42,70
106560,note_on,,,,,64,0,12,,,,,5,,,70,100
106560,note_on,,,,,0,0,12,,,,,5,,,73,100
106560,note_on,,,,,64,0,13,,,,,5,,,54,100
106560,note_on,,,,,64,0,10,,,,,3,,,54,70
106560,note_on,,,,,64,0,9,,,,,2,,,70,70
106624,note_off,,,,,64,0,12,,,,,5,,,78,100
106688,note_off,,,,,128,0,10,,,,,3,,,54,100
106688,note_off,,,,,128,0,11,,,,,4,,,42,100
106688,note_off,,,,,64,0,12,,,,,5,,,70,100
106688,note_off,,,,,0,0,12,,,,,5,,,73,100
106688,note_off,,,,,128,0,13,,,,,5,,,54,100
106688,note_off,,,,,128,0,9,,,,,2,,,70,100
106688,note_off,,,,,128,0,8,,,,,1,,,78,100
106752,note_on,,,,,0,0,12,,,,,5,,,75,100
106752,note_on,,,,,64,0,10,,,,,3,,,59,100
106752,note_on,,,,,64,0,11,,,,,4,,,47,100
106752,note_on,,,,,64,0,8,,,,,1,,,75,70
106752,note_on,,,,,64,0,13,,,,,5,,,59,100
106752,note_on,,,,,64,0,12,,,,,5,,,66,100
106752,note_on,,,,,64,0,9,,,,,2,,,66,100
106880,note_off,,,,,128,0,9,,,,,2,,,66,100
106880,note_off,,,,,128,0,13,,,,,5,,,59,100
106880,note_off,,,,,128,0,8,,,,,1,,,75,100
106880,note_off,,,,,128,0,10,,,,,3,,,59,100
106880,note_off,,,,,128,0,12,,,,,5,,,66,100
106880,note_off,,,,,0,0,12,,,,,5,,,75,100
106880,note_off,,,,,128,0,11,,,,,4,,,47,100
106944,note_on,,,,,0,0,12,,,,,5,,,76,100
106944,note_on,,,,,64,0,12,,,,,5,,,71,100
106944,note_on,,,,,64,0,10,,,,,3,,,61,100
106944,note_on,,,,,64,0,13,,,,,5,,,61,100
106944,note_on,,,,,64,0,8,,,,,1,,,71,70
106944,note_on,,,,,64,0,9,,,,,2,,,64,100
106944,note_on,,,,,64,0,11,,,,,4,,,49,100
107072,note_off,,,,,128,0,11,,,,,4,,,49,100
107072,note_off,,,,,128,0,10,,,,,3,,,61,100
107072,note_off,,,,,0,0,12,,,,,5,,,76,100
107072,note_off,,,,,128,0,13,,,,,5,,,61,100
107072,note_off,,,,,128,0,8,,,,,1,,,71,100
107072,note_off,,,,,128,0,9,,,,,2,,,64,100
107072,note_off,,,,,128,0,12,,,,,5,,,71,100
107136,note_on,,,,,64,0,11,,,,,4,,,47,100
107136,note_on,,,,,0,0,12,,,,,5,,,75,100
107136,note_on,,,,,64,0,9,,,,,2,,,63,100
107136,note_on,,,,,64,0,12,,,,,5,,,66,100
107136,note_on,,,,,64,0,10,,,,,3,,,59,100
107136,note_on,,,,,64,0,13,,,,,5,,,59,100
107264,note_off,,,,,128,0,12,,,,,5,,,66,100
107264,note_off,,,,,0,0,12,,,,,5,,,75,100
107264,note_off,,,,,128,0,9,,,,,2,,,63,100
107264,note_off,,,,,128,0,13,,,,,5,,,59,100
107264,note_off,,,,,128,0,11,,,,,4,,,47,100
107264,note_off,,,,,128,0,10,,,,,3,,,59,100
107328,note_on,,,,,64,0,13,,,,,5,,,57,100
107328,note_on,,,,,0,0,12,,,,,5,,,64,100
107328,note_on,,,,,64,0,11,,,,,4,,,45,100
107328,note_on,,,,,64,0,9,,,,,2,,,61,100
107328,note_on,,,,,64,0,12,,,,,5,,,73,100
107328,note_on,,,,,64,0,10,,,,,3,,,57,100
107456,note_off,,,,,128,0,10,,,,,3,,,57,100
107456,note_off,,,,,128,0,11,,,,,4,,,45,100
107456,note_off,,,,,128,0,9,,,,,2,,,61,100
107456,note_off,,,,,128,0,13,,,,,5,,,57,100
107456,note_off,,,,,128,0,12,,,,,5,,,73,100
107456,note_off,,,,,0,0,12,,,,,5,,,64,100
107520,note_on,,,,,448,0,8,,,,,1,,,76,100
107520,note_on,,,,,64,0,13,,,,,5,,,56,100
107520,note_on,,,,,64,0,9,,,,,2,,,59,100
107520,note_on,,,,,64,0,12,,,,,5,,,64,100
107520,note_on,,,,,64,0,11,,,,,4,,,44,100
107520,note_on,,,,,0,0,12,,,,,5,,,68,100
107520,note_on,,,,,64,0,10,,,,,3,,,56,100
107520,note_on,,,,,0,0,12,,,,,5,,,71,100
107648,note_off,,,,,0,0,12,,,,,5,,,68,100
107648,note_off,,,,,128,0,11,,,,,4,,,44,100
107648,note_off,,,,,128,0,13,,,,,5,,,56,100
107648,note_off,,,,,128,0,12,,,,,5,,,64,100
107648,note_off,,,,,128,0,10,,,,,3,,,56,100
107648,note_off,,,,,128,0,9,,,,,2,,,59,100
107712,note_on,,,,,64,0,9,,,,,2,,,69,100
107712,note_on,,,,,64,0,11,,,,,4,,,42,100
107712,note_on,,,,,64,0,10,,,,,3,,,54,100
107712,note_on,,,,,64,0,13,,,,,5,,,54,100
107712,note_on,,,,,64,0,12,,,,,5,,,69,100
107776,note_off,,,,,256,0,8,,,,,1,,,76,100
107776,note_off,,,,,64,0,12,,,,,5,,,71,100
107840,note_off,,,,,64,0,12,,,,,5,,,69,100
107840,note_off,,,,,128,0,9,,,,,2,,,69,100
107840,note_off,,,,,128,0,13,,,,,5,,,54,100
107840,note_off,,,,,128,0,10,,,,,3,,,54,100
107840,note_off,,,,,128,0,11,,,,,4,,,42,100
107904,note_on,,,,,0,0,12,,,,,5,,,76,100
107904,note_on,,,,,64,0,13,,,,,5,,,56,100
107904,note_on,,,,,64,0,9,,,,,2,,,71,100
107904,note_on,,,,,0,0,12,,,,,5,,,64,100
107904,note_on,,,,,64,0,10,,,,,3,,,56,100
107904,note_on,,,,,64,0,11,,,,,4,,,44,100
107904,note_on,,,,,64,0,12,,,,,5,,,71,100
108000,note_on,,,,,224,0,8,,,,,1,,,76,100
108032,note_off,,,,,128,0,12,,,,,5,,,64,100
108032,note_off,,,,,128,0,10,,,,,3,,,56,100
108032,note_off,,,,,128,0,9,,,,,2,,,71,100
108032,note_off,,,,,128,0,13,,,,,5,,,56,100
108032,note_off,,,,,128,0,11,,,,,4,,,44,100
108032,note_off,,,,,0,0,12,,,,,5,,,76,100
108064,note_off,,,,,64,0,8,,,,,1,,,76,100
108096,note_on,,,,,64,0,9,,,,,2,,,68,100
108096,note_on,,,,,64,0,11,,,,,4,,,40,100
108096,note_on,,,,,0,0,12,,,,,5,,,68,100
108096,note_on,,,,,64,0,10,,,,,3,,,52,100
108096,note_on,,,,,64,0,13,,,,,5,,,52,100
108096,note_on,,,,,64,0,12,,,,,5,,,64,100
108096,note_on,,,,,32,0,8,,,,,1,,,80,100
108160,note_off,,,,,64,0,8,,,,,1,,,80,100
108160,note_off,,,,,64,0,12,,,,,5,,,71,100
108192,note_on,,,,,32,0,8,,,,,1,,,81,100
108224,note_off,,,,,128,0,13,,,,,5,,,52,100
108224,note_off,,,,,128,0,11,,,,,4,,,40,100
108224,note_off,,,,,128,0,9,,,,,2,,,68,100
108224,note_off,,,,,64,0,12,,,,,5,,,64,100
108224,note_off,,,,,128,0,10,,,,,3,,,52,100
108224,note_off,,,,,0,0,12,,,,,5,,,68,100
108256,note_off,,,,,64,0,8,,,,,1,,,81,100
108288,note_on,,,,,32,0,8,,,,,1,,,83,100
108288,note_on,,,,,64,0,13,,,,,5,,,51,100
108288,note_on,,,,,64,0,10,,,,,3,,,51,100
108288,note_on,,,,,64,0,9,,,,,2,,,66,100
108288,note_on,,,,,64,0,11,,,,,4,,,39,100
108288,note_on,,,,,0,0,12,,,,,5,,,63,100
108288,note_on,,,,,0,0,12,,,,,5,,,66,100
108288,note_on,,,,,64,0,12,,,,,5,,,71,100
108416,note_off,,,,,128,0,8,,,,,1,,,83,100
108416,note_off,,,,,128,0,11,,,,,4,,,39,100
108416,note_off,,,,,128,0,13,,,,,5,,,51,100
108416,note_off,,,,,128,0,10,,,,,3,,,51,100
108416,note_off,,,,,0,0,12,,,,,5,,,66,100
108416,note_off,,,,,128,0,12,,,,,5,,,63,100
108416,note_off,,,,,128,0,9,,,,,2,,,66,100
108480,note_on,,,,,64,0,9,,,,,2,,,64,100
108480,note_on,,,,,64,0,10,,,,,3,,,49,100
108480,note_on,,,,,64,0,11,,,,,4,,,37,100
108480,note_on,,,,,64,0,8,,,,,1,,,83,100
108480,note_on,,,,,64,0,12,,,,,5,,,64,100
108480,note_on,,,,,64,0,13,,,,,5,,,49,100
108544,note_off,,,,,64,0,12,,,,,5,,,71,100
108608,note_off,,,,,128,0,13,,,,,5,,,49,100
108608,note_off,,,,,64,0,12,,,,,5,,,64,100
108608,note_off,,,,,128,0,10,,,,,3,,,49,100
108608,note_off,,,,,128,0,8,,,,,1,,,83,100
108608,note_off,,,,,128,0,9,,,,,2,,,64,100
108608,note_off,,,,,128,0,11,,,,,4,,,37,100
108672,note_on,,,,,64,0,10,,,,,3,,,51,100
108672,note_on,,,,,64,0,13,,,,,5,,,51,100
108672,note_on,,,,,0,0,12,,,,,5,,,71,100
108672,note_on,,,,,64,0,12,,,,,5,,,66,100
108672,note_on,,,,,64,0,9,,,,,2,,,66,100
108672,note_on,,,,,64,0,11,,,,,4,,,39,100
108672,note_on,,,,,64,0,8,,,,,1,,,83,100
108800,note_off,,,,,128,0,11,,,,,4,,,39,100
108800,note_off,,,,,128,0,9,,,,,2,,,66,100
108800,note_off,,,,,128,0,10,,,,,3,,,51,100
108800,note_off,,,,,128,0,13,,,,,5,,,51,100
108800,note_off,,,,,128,0,12,,,,,5,,,66,100
108800,note_off,,,,,128,0,8,,,,,1,,,83,100
108864,note_on,,,,,64,0,13,,,,,5,,,47,100
108864,note_on,,,,,64,0,9,,,,,2,,,63,100
108864,note_on,,,,,64,0,8,,,,,1,,,83,100
108864,note_on,,,,,0,0,12,,,,,5,,,66,100
108864,note_on,,,,,64,0,12,,,,,5,,,63,100
108864,note_on,,,,,64,0,10,,,,,3,,,47,100
108864,note_on,,,,,64,0,11,,,,,4,,,35,100
108928,note_off,,,,,64,0,12,,,,,5,,,71,100
108992,note_off,,,,,64,0,12,,,,,5,,,63,100
108992,note_off,,,,,0,0,12,,,,,5,,,66,100
108992,note_off,,,,,128,0,11,,,,,4,,,35,100
108992,note_off,,,,,128,0,9,,,,,2,,,63,100
108992,note_off,,,,,128,0,10,,,,,3,,,47,100
108992,note_off,,,,,128,0,13,,,,,5,,,47,100
108992,note_off,,,,,128,0,8,,,,,1,,,83,100
109056,note_on,,,,,64,0,8,,,,,1,,,80,100
109056,note_on,,,,,0,0,12,,,,,5,,,71,100
109056,note_on,,,,,0,0,12,,,,,5,,,68,100
109056,note_on,,,,,64,0,9,,,,,2,,,59,70
109056,note_on,,,,,64,0,11,,,,,4,,,40,70
109056,note_on,,,,,64,0,10,,,,,3,,,52,70
109056,note_on,,,,,64,0,13,,,,,5,,,52,100
109056,note_on,,,,,64,0,12,,,,,5,,,64,100
109184,note_off,,,,,128,0,12,,,,,5,,,64,100
109184,note_off,,,,,0,0,12,,,,,5,,,68,100
109184,note_off,,,,,128,0,9,,,,,2,,,59,100
109184,note_off,,,,,128,0,11,,,,,4,,,40,100
109184,note_off,,,,,128,0,10,,,,,3,,,52,100
109184,note_off,,,,,128,0,8,,,,,1,,,80,100
109184,note_off,,,,,128,0,13,,,,,5,,,52,100
109248,note_on,,,,,64,0,10,,,,,3,,,54,70
109248,note_on,,,,,64,0,13,,,,,5,,,54,100
109248,note_on,,,,,64,0,9,,,,,2,,,69,70
109248,note_on,,,,,64,0,11,,,,,4,,,42,70
109248,note_on,,,,,64,0,8,,,,,1,,,76,100
109248,note_on,,,,,64,0,12,,,,,5,,,69,100
109312,note_off,,,,,64,0,12,,,,,5,,,71,100
109376,note_off,,,,,64,0,12,,,,,5,,,69,100
109376,note_off,,,,,128,0,9,,,,,2,,,69,100
109376,note_off,,,,,128,0,10,,,,,3,,,54,100
109376,note_off,,,,,128,0,11,,,,,4,,,42,100
109376,note_off,,,,,128,0,8,,,,,1,,,76,100
109376,note_off,,,,,128,0,13,,,,,5,,,54,100
109440,note_on,,,,,64,0,13,,,,,5,,,56,100
109440,note_on,,,,,64,0,10,,,,,3,,,56,70
109440,note_on,,,,,64,0,12,,,,,5,,,71,100
109440,note_on,,,,,0,0,12,,,,,5,,,64,100
109440,note_on,,,,,64,0,11,,,,,4,,,44,70
109440,note_on,,,,,0,0,12,,,,,5,,,76,100
109440,note_on,,,,,64,0,9,,,,,2,,,71,70
109536,note_on,,,,,160,0,8,,,,,1,,,76,70
109568,note_off,,,,,0,0,12,,,,,5,,,76,100
109568,note_off,,,,,128,0,12,,,,,5,,,64,100
109568,note_off,,,,,128,0,10,,,,,3,,,56,100
109568,note_off,,,,,128,0,9,,,,,2,,,71,100
109568,note_off,,,,,128,0,13,,,,,5,,,56,100
109568,note_off,,,,,128,0,11,,,,,4,,,44,100
109600,note_off,,,,,64,0,8,,,,,1,,,76,100
109632,note_on,,,,,32,0,8,,,,,1,,,80,70
109632,note_on,,,,,64,0,12,,,,,5,,,64,100
109632,note_on,,,,,64,0,10,,,,,3,,,52,70
109632,note_on,,,,,64,0,11,,,,,4,,,40,70
109632,note_on,,,,,0,0,12,,,,,5,,,68,100
109632,note_on,,,,,64,0,9,,,,,2,,,68,70
109632,note_on,,,,,64,0,13,,,,,5,,,52,100
109696,note_off,,,,,64,0,8,,,,,1,,,80,100
109696,note_off,,,,,64,0,12,,,,,5,,,71,100
109728,note_on,,,,,32,0,8,,,,,1,,,81,70
109760,note_off,,,,,128,0,10,,,,,3,,,52,100
109760,note_off,,,,,128,0,11,,,,,4,,,40,100
109760,note_off,,,,,0,0,12,,,,,5,,,68,100
109760,note_off,,,,,64,0,12,,,,,5,,,64,100
109760,note_off,,,,,128,0,13,,,,,5,,,52,100
109760,note_off,,,,,128,0,9,,,,,2,,,68,100
109792,note_off,,,,,64,0,8,,,,,1,,,81,100
109824,note_on,,,,,64,0,13,,,,,5,,,51,100
109824,note_on,,,,,64,0,10,,,,,3,,,51,70
109824,note_on,,,,,64,0,11,,,,,4,,,39,70
109824,note_on,,,,,64,0,12,,,,,5,,,71,100
109824,note_on,,,,,0,0,12,,,,,5,,,63,100
109824,note_on,,,,,0,0,12,,,,,5,,,66,100
109824,note_on,,,,,64,0,9,,,,,2,,,66,70
109824,note_on,,,,,32,0,8,,,,,1,,,83,70
109952,note_off,,,,,128,0,10,,,,,3,,,51,100
109952,note_off,,,,,128,0,13,,,,,5,,,51,100
109952,note_off,,,,,128,0,9,,,,,2,,,66,100
109952,note_off,,,,,128,0,8,,,,,1,,,83,100
109952,note_off,,,,,0,0,12,,,,,5,,,66,100
109952,note_off,,,,,128,0,12,,,,,5,,,63,100
109952,note_off,,,,,128,0,11,,,,,4,,,39,100
110016,note_on,,,,,64,0,8,,,,,1,,,83,70
110016,note_on,,,,,64,0,10,,,,,3,,,49,70
110016,note_on,,,,,64,0,13,,,,,5,,,49,100
110016,note_on,,,,,64,0,12,,,,,5,,,64,100
110016,note_on,,,,,64,0,9,,,,,2,,,64,70
110016,note_on,,,,,64,0,11,,,,,4,,,37,70
110080,note_off,,,,,64,0,12,,,,,5,,,71,100
110144,note_off,,,,,128,0,11,,,,,4,,,37,100
110144,note_off,,,,,128,0,10,,,,,3,,,49,100
110144,note_off,,,,,128,0,8,,,,,1,,,83,100
110144,note_off,,,,,128,0,9,,,,,2,,,64,100
110144,note_off,,,,,64,0,12,,,,,5,,,64,100
110144,note_off,,,,,128,0,13,,,,,5,,,49,100
110208,note_on,,,,,64,0,9,,,,,2,,,66,70
110208,note_on,,,,,64,0,11,,,,,4,,,39,70
110208,note_on,,,,,64,0,10,,,,,3,,,51,70
110208,note_on,,,,,64,0,8,,,,,1,,,83,70
110208,note_on,,,,,64,0,13,,,,,5,,,51,100
110208,note_on,,,,,0,0,12,,,,,5,,,71,100
110208,note_on,,,,,64,0,12,,,,,5,,,66,100
110336,note_off,,,,,128,0,12,,,,,5,,,66,100
110336,note_off,,,,,128,0,10,,,,,3,,,51,100
110336,note_off,,,,,128,0,13,,,,,5,,,51,100
110336,note_off,,,,,128,0,11,,,,,4,,,39,100
110336,note_off,,,,,128,0,9,,,,,2,,,66,100
110336,note_off,,,,,128,0,8,,,,,1,,,83,100
110400,note_on,,,,,64,0,9,,,,,2,,,63,70
110400,note_on,,,,,64,0,11,,,,,4,,,35,70
110400,note_on,,,,,0,0,12,,,,,5,,,66,100
110400,note_on,,,,,64,0,10,,,,,3,,,47,70
110400,note_on,,,,,64,0,13,,,,,5,,,47,100
110400,note_on,,,,,64,0,8,,,,,1,,,83,70
110400,note_on,,,,,64,0,12,,,,,5,,,63,100
110464,note_off,,,,,64,0,12,,,,,5,,,71,100
110528,note_off,,,,,128,0,8,,,,,1,,,83,100
110528,note_off,,,,,128,0,11,,,,,4,,,35,100
110528,note_off,,,,,128,0,9,,,,,2,,,63,100
110528,note_off,,,,,128,0,10,,,,,3,,,47,100
110528,note_off,,,,,128,0,13,,,,,5,,,47,100
110528,note_off,,,,,64,0,12,,,,,5,,,63,100
110528,note_off,,,,,0,0,12,,,,,5,,,66,100
110592,note_on,,,,,64,0,12,,,,,5,,,64,100
110592,note_on,,,,,64,0,9,,,,,2,,,59,100
110592,note_on,,,,,64,0,11,,,,,4,,,40,100
110592,note_on,,,,,0,0,12,,,,,5,,,71,100
110592,note_on,,,,,0,0,12,,,,,5,,,68,100
110592,note_on,,,,,64,0,8,,,,,1,,,80,70
110592,note_on,,,,,64,0,13,,,,,5,,,52,100
110592,note_on,,,,,64,0,10,,,,,3,,,52,100
110720,note_off,,,,,128,0,11,,,,,4,,,40,100
110720,note_off,,,,,128,0,8,,,,,1,,,80,100
110720,note_off,,,,,128,0,12,,,,,5,,,64,100
110720,note_off,,,,,0,0,12,,,,,5,,,68,100
110720,note_off,,,,,128,0,9,,,,,2,,,59,100
110720,note_off,,,,,128,0,13,,,,,5,,,52,100
110720,note_off,,,,,128,0,10,,,,,3,,,52,100
110784,note_on,,,,,64,0,11,,,,,4,,,42,100
110784,note_on,,,,,64,0,13,,,,,5,,,54,100
110784,note_on,,,,,64,0,8,,,,,1,,,76,70
110784,note_on,,,,,64,0,10,,,,,3,,,54,100
110784,note_on,,,,,64,0,9,,,,,2,,,69,100
110784,note_on,,,,,64,0,12,,,,,5,,,69,100
110848,note_off,,,,,64,0,12,,,,,5,,,71,100
110912,note_off,,,,,128,0,8,,,,,1,,,76,100
110912,note_off,,,,,128,0,9,,,,,2,,,69,100
110912,note_off,,,,,128,0,11,,,,,4,,,42,100
110912,note_off,,,,,128,0,13,,,,,5,,,54,100
110912,note_off,,,,,128,0,10,,,,,3,,,54,100
110912,note_off,,,,,64,0,12,,,,,5,,,69,100
110976,note_on,,,,,0,0,12,,,,,5,,,64,100
110976,note_on,,,,,0,0,12,,,,,5,,,76,100
110976,note_on,,,,,64,0,9,,,,,2,,,71,100
110976,note_on,,,,,64,0,13,,,,,5,,,56,100
110976,note_on,,,,,64,0,12,,,,,5,,,71,100
110976,note_on,,,,,64,0,11,,,,,4,,,44,100
110976,note_on,,,,,64,0,10,,,,,3,,,56,100
111072,note_on,,,,,160,0,8,,,,,1,,,76,100
111104,note_off,,,,,0,0,12,,,,,5,,,76,100
111104,note_off,,,,,128,0,11,,,,,4,,,44,100
111104,note_off,,,,,128,0,12,,,,,5,,,64,100
111104,note_off,,,,,128,0,9,,,,,2,,,71,100
111104,note_off,,,,,128,0,13,,,,,5,,,56,100
111104,note_off,,,,,128,0,10,,,,,3,,,56,100
111136,note_off,,,,,64,0,8,,,,,1,,,76,100
111168,note_on,,,,,64,0,10,,,,,3,,,52,100
111168,note_on,,,,,0,0,12,,,,,5,,,68,100
111168,note_on,,,,,64,0,12,,,,,5,,,64,100
111168,note_on,,,,,64,0,13,,,,,5,,,52,100
111168,note_on,,,,,64,0,9,,,,,2,,,68,100
111168,note_on,,,,,64,0,11,,,,,4,,,40,100
111168,note_on,,,,,32,0,8,,,,,1,,,80,100
111232,note_off,,,,,64,0,8,,,,,1,,,80,100
111232,note_off,,,,,64,0,12,,,,,5,,,71,100
111264,note_on,,,,,32,0,8,,,,,1,,,81,100
111296,note_off,,,,,128,0,10,,,,,3,,,52,100
111296,note_off,,,,,128,0,13,,,,,5,,,52,100
111296,note_off,,,,,0,0,12,,,,,5,,,68,100
111296,note_off,,,,,64,0,12,,,,,5,,,64,100
111296,note_off,,,,,128,0,9,,,,,2,,,68,100
111296,note_off,,,,,128,0,11,,,,,4,,,40,100
111328,note_off,,,,,64,0,8,,,,,1,,,81,100
111360,note_on,,,,,0,0,12,,,,,5,,,66,100
111360,note_on,,,,,64,0,11,,,,,4,,,39,100
111360,note_on,,,,,32,0,8,,,,,1,,,83,100
111360,note_on,,,,,64,0,12,,,,,5,,,75,100
111360,note_on,,,,,64,0,9,,,,,2,,,66,100
111360,note_on,,,,,64,0,13,,,,,5,,,51,100
111360,note_on,,,,,64,0,10,,,,,3,,,51,100
111360,note_on,,,,,0,0,12,,,,,5,,,71,100
111488,note_off,,,,,128,0,9,,,,,2,,,66,100
111488,note_off,,,,,128,0,12,,,,,5,,,75,100
111488,note_off,,,,,0,0,12,,,,,5,,,71,100
111488,note_off,,,,,0,0,12,,,,,5,,,66,100
111488,note_off,,,,,128,0,11,,,,,4,,,39,100
111488,note_off,,,,,128,0,8,,,,,1,,,83,100
111488,note_off,,,,,128,0,10,,,,,3,,,51,100
111488,note_off,,,,,128,0,13,,,,,5,,,51,100
111552,note_on,,,,,64,0,12,,,,,5,,,73,100
111552,note_on,,,,,0,0,12,,,,,5,,,68,100
111552,note_on,,,,,64,0,9,,,,,2,,,68,100
111552,note_on,,,,,64,0,10,,,,,3,,,52,100
111552,note_on,,,,,64,0,13,,,,,5,,,52,100
111552,note_on,,,,,64,0,8,,,,,1,,,81,100
111552,note_on,,,,,64,0,11,,,,,4,,,40,100
111616,note_off,,,,,64,0,8,,,,,1,,,81,100
111616,note_off,,,,,64,0,12,,,,,5,,,73,100
111648,note_on,,,,,32,0,12,,,,,5,,,71,100
111648,note_on,,,,,32,0,8,,,,,1,,,80,100
111680,note_off,,,,,32,0,12,,,,,5,,,68,100
111680,note_off,,,,,128,0,10,,,,,3,,,52,100
111680,note_off,,,,,128,0,11,,,,,4,,,40,100
111680,note_off,,,,,128,0,9,,,,,2,,,68,100
111680,note_off,,,,,128,0,13,,,,,5,,,52,100
111712,note_off,,,,,32,0,12,,,,,5,,,71,100
111712,note_off,,,,,64,0,8,,,,,1,,,80,100
111744,note_on,,,,,64,0,11,,,,,4,,,45,100
111744,note_on,,,,,32,0,8,,,,,1,,,78,100
111744,note_on,,,,,64,0,9,,,,,2,,,73,100
111744,note_on,,,,,64,0,13,,,,,5,,,57,100
111744,note_on,,,,,64,0,10,,,,,3,,,57,100
111744,note_on,,,,,32,0,12,,,,,5,,,66,100
111744,note_on,,,,,0,0,12,,,,,5,,,73,100
111872,note_off,,,,,128,0,13,,,,,5,,,57,100
111872,note_off,,,,,128,0,12,,,,,5,,,66,100
111872,note_off,,,,,128,0,11,,,,,4,,,45,100
111872,note_off,,,,,128,0,10,,,,,3,,,57,100
111872,note_off,,,,,0,0,12,,,,,5,,,73,100
111872,note_off,,,,,128,0,9,,,,,2,,,73,100
111872,note_off,,,,,128,0,8,,,,,1,,,78,100
111936,note_on,,,,,0,0,12,,,,,5,,,73,100
111936,note_on,,,,,64,0,10,,,,,3,,,54,100
111936,note_on,,,,,64,0,8,,,,,1,,,76,100
111936,note_on,,,,,64,0,13,,,,,5,,,54,100
111936,note_on,,,,,64,0,12,,,,,5,,,70,100
111936,note_on,,,,,64,0,9,,,,,2,,,70,100
111936,note_on,,,,,64,0,11,,,,,4,,,42,100
112064,note_off,,,,,128,0,12,,,,,5,,,70,100
112064,note_off,,,,,128,0,10,,,,,3,,,54,100
112064,note_off,,,,,128,0,13,,,,,5,,,54,100
112064,note_off,,,,,128,0,11,,,,,4,,,42,100
112064,note_off,,,,,128,0,9,,,,,2,,,70,100
112064,note_off,,,,,128,0,8,,,,,1,,,76,100
112064,note_off,,,,,0,0,12,,,,,5,,,73,100
112128,note_on,,,,,0,0,12,,,,,5,,,71,100
112128,note_on,,,,,64,0,12,,,,,5,,,75,100
112128,note_on,,,,,0,0,12,,,,,5,,,66,100
112128,note_on,,,,,64,0,9,,,,,2,,,66,100
112128,note_on,,,,,64,0,10,,,,,3,,,59,100
112128,note_on,,,,,64,0,11,,,,,4,,,47,100
112128,note_on,,,,,64,0,13,,,,,5,,,59,100
112128,note_on,,,,,64,0,8,,,,,1,,,75,100
112256,note_off,,,,,128,0,8,,,,,1,,,75,100
112256,note_off,,,,,128,0,13,,,,,5,,,59,100
112256,note_off,,,,,128,0,11,,,,,4,,,47,100
112256,note_off,,,,,128,0,10,,,,,3,,,59,100
112320,note_on,,,,,64,0,8,,,,,1,,,71,100
112320,note_on,,,,,64,0,13,,,,,5,,,61,100
112320,note_on,,,,,64,0,11,,,,,4,,,49,97
112320,note_on,,,,,64,0,10,,,,,3,,,61,97
112384,note_off,,,,,0,0,12,,,,,5,,,71,100
112384,note_off,,,,,0,0,12,,,,,5,,,66,100
112384,note_off,,,,,256,0,9,,,,,2,,,66,100
112384,note_off,,,,,256,0,12,,,,,5,,,75,100
112448,note_off,,,,,128,0,11,,,,,4,,,49,100
112448,note_off,,,,,128,0,10,,,,,3,,,61,100
112448,note_off,,,,,128,0,13,,,,,5,,,61,100
112448,note_off,,,,,128,0,8,,,,,1,,,71,100
112512,note_on,,,,,64,0,13,,,,,5,,,59,100
112512,note_on,,,,,64,0,10,,,,,3,,,59,93
112512,note_on,,,,,64,0,11,,,,,4,,,47,93
112608,note_on,,,,,8672,0,7,,,,,0,,,71,100
112640,note_off,,,,,128,0,11,,,,,4,,,47,100
112640,note_off,,,,,128,0,10,,,,,3,,,59,100
112640,note_off,,,,,128,0,13,,,,,5,,,59,100
112672,note_off,,,,,64,0,7,,,,,0,,,71,100
112704,note_on,,,,,32,0,7,,,,,0,,,75,100
112704,note_on,,,,,64,0,10,,,,,3,,,57,89
112704,note_on,,,,,64,0,11,,,,,4,,,45,89
112704,note_on,,,,,64,0,13,,,,,5,,,57,100
112768,note_off,,,,,64,0,7,,,,,0,,,75,100
112800,note_on,,,,,32,0,7,,,,,0,,,78,100
112832,note_off,,,,,128,0,10,,,,,3,,,57,100
112832,note_off,,,,,128,0,11,,,,,4,,,45,100
112832,note_off,,,,,128,0,13,,,,,5,,,57,100
112864,note_off,,,,,64,0,7,,,,,0,,,78,100
112896,note_on,,,,,512,0,12,,,,,5,,,64,100
112896,note_on,,,,,64,0,13,,,,,5,,,56,100
112896,note_on,,,,,0,0,12,,,,,5,,,71,100
112896,note_on,,,,,32,0,7,,,,,0,,,83,100
112896,note_on,,,,,64,0,11,,,,,4,,,44,86
112896,note_on,,,,,64,0,10,,,,,3,,,56,86
112988,note_off,,,,,92,0,7,,,,,0,,,83,100
112992,note_on,,,,,4,0,7,,,,,0,,,81,100
113024,note_off,,,,,128,0,13,,,,,5,,,56,100
113024,note_off,,,,,128,0,11,,,,,4,,,44,100
113024,note_off,,,,,128,0,10,,,,,3,,,56,100
113056,note_off,,,,,64,0,7,,,,,0,,,81,100
113084,note_off,,,,,188,0,12,,,,,5,,,64,100
113088,note_on,,,,,64,0,13,,,,,5,,,54,100
113088,note_on,,,,,64,0,11,,,,,4,,,42,85
113088,note_on,,,,,4,0,12,,,,,5,,,63,100
113088,note_on,,,,,64,0,10,,,,,3,,,54,85
113088,note_on,,,,,32,0,7,,,,,0,,,83,100
113152,note_off,,,,,64,0,12,,,,,5,,,71,100
113216,note_off,,,,,128,0,11,,,,,4,,,42,100
113216,note_off,,,,,128,0,10,,,,,3,,,54,100
113216,note_off,,,,,64,0,12,,,,,5,,,63,100
113216,note_off,,,,,128,0,13,,,,,5,,,54,100
113216,note_off,,,,,128,0,7,,,,,0,,,83,100
113280,note_on,,,,,64,0,11,,,,,4,,,44,85
113280,note_on,,,,,64,0,12,,,,,5,,,59,100
113280,note_on,,,,,64,0,10,,,,,3,,,56,85
113280,note_on,,,,,64,0,13,,,,,5,,,56,100
113280,note_on,,,,,0,0,12,,,,,5,,,64,100
113376,note_on,,,,,160,0,7,,,,,0,,,83,100
113408,note_off,,,,,128,0,10,,,,,3,,,56,100
113408,note_off,,,,,128,0,11,,,,,4,,,44,100
113408,note_off,,,,,128,0,13,,,,,5,,,56,100
113440,note_off,,,,,64,0,7,,,,,0,,,83,100
113468,note_off,,,,,188,0,12,,,,,5,,,64,100
113472,note_on,,,,,64,0,13,,,,,5,,,52,100
113472,note_on,,,,,4,0,12,,,,,5,,,68,100
113472,note_on,,,,,32,0,7,,,,,0,,,85,100
113472,note_on,,,,,64,0,10,,,,,3,,,52,85
113472,note_on,,,,,64,0,11,,,,,4,,,40,85
113536,note_off,,,,,64,0,12,,,,,5,,,59,100
113536,note_off,,,,,64,0,7,,,,,0,,,85,100
113568,note_on,,,,,32,0,7,,,,,0,,,83,100
113600,note_off,,,,,64,0,12,,,,,5,,,68,100
113600,note_off,,,,,128,0,11,,,,,4,,,40,100
113600,note_off,,,,,128,0,10,,,,,3,,,52,100
113600,note_off,,,,,128,0,13,,,,,5,,,52,100
113632,note_off,,,,,64,0,7,,,,,0,,,83,100
113664,note_on,,,,,32,0,7,,,,,0,,,88,100
113664,note_on,,,,,64,0,11,,,,,4,,,37,85
113664,note_on,,,,,0,0,12,,,,,5,,,68,100
113664,note_on,,,,,64,0,10,,,,,3,,,49,85
113664,note_on,,,,,0,0,12,,,,,5,,,64,100
113664,note_on,,,,,64,0,12,,,,,5,,,71,100
113664,note_on,,,,,64,0,13,,,,,5,,,49,100
113792,note_off,,,,,128,0,7,,,,,0,,,88,100
113856,note_on,,,,,64,0,7,,,,,0,,,81,100
113920,note_off,,,,,256,0,12,,,,,5,,,71,100
113920,note_off,,,,,256,0,11,,,,,4,,,37,100
113920,note_off,,,,,256,0,13,,,,,5,,,49,100
113920,note_off,,,,,0,0,12,,,,,5,,,68,100
113920,note_off,,,,,0,0,12,,,,,5,,,64,100
113920,note_off,,,,,256,0,10,,,,,3,,,49,100
113948,note_off,,,,,92,0,7,,,,,0,,,81,100
113952,note_on,,,,,4,0,7,,,,,0,,,80,100
114016,note_off,,,,,64,0,7,,,,,0,,,80,100
114048,note_on,,,,,32,0,7,,,,,0,,,81,100
114140,note_off,,,,,92,0,7,,,,,0,,,81,100
114144,note_on,,,,,4,0,7,,,,,0,,,71,100
114236,note_off,,,,,92,0,7,,,,,0,,,71,100
114240,note_on,,,,,4,0,7,,,,,0,,,75,100
114304,note_off,,,,,64,0,7,,,,,0,,,75,100
114336,note_on,,,,,32,0,7,,,,,0,,,78,100
114400,note_off,,,,,64,0,7,,,,,0,,,78,100
114432,note_on,,,,,0,0,12,,,,,5,,,69,100
114432,note_on,,,,,512,0,11,,,,,4,,,42,85
114432,note_on,,,,,512,0,13,,,,,5,,,54,100
114432,note_on,,,,,32,0,7,,,,,0,,,81,100
114432,note_on,,,,,512,0,10,,,,,3,,,54,85
114432,note_on,,,,,512,0,12,,,,,5,,,63,100
114524,note_off,,,,,92,0,7,,,,,0,,,81,100
114528,note_on,,,,,4,0,7,,,,,0,,,80,100
114560,note_off,,,,,128,0,11,,,,,4,,,42,100
114560,note_off,,,,,128,0,13,,,,,5,,,54,100
114560,note_off,,,,,128,0,10,,,,,3,,,54,100
114592,note_off,,,,,64,0,7,,,,,0,,,80,100
114620,note_off,,,,,188,0,12,,,,,5,,,63,100
114624,note_on,,,,,64,0,11,,,,,4,,,40,85
114624,note_on,,,,,64,0,13,,,,,5,,,52,100
114624,note_on,,,,,4,0,12,,,,,5,,,61,100
114624,note_on,,,,,64,0,10,,,,,3,,,52,85
114624,note_on,,,,,32,0,7,,,,,0,,,81,100
114688,note_off,,,,,64,0,12,,,,,5,,,69,100
114752,note_off,,,,,128,0,10,,,,,3,,,52,100
114752,note_off,,,,,128,0,11,,,,,4,,,40,100
114752,note_off,,,,,64,0,12,,,,,5,,,61,100
114752,note_off,,,,,128,0,13,,,,,5,,,52,100
114752,note_off,,,,,128,0,7,,,,,0,,,81,100
114816,note_on,,,,,64,0,10,,,,,3,,,54,84
114816,note_on,,,,,0,0,12,,,,,5,,,63,100
114816,note_on,,,,,64,0,12,,,,,5,,,57,100
114816,note_on,,,,,64,0,11,,,,,4,,,42,84
114816,note_on,,,,,64,0,13,,,,,5,,,54,100
114912,note_on,,,,,160,0,7,,,,,0,,,81,100
114944,note_off,,,,,128,0,13,,,,,5,,,54,100
114944,note_off,,,,,128,0,10,,,,,3,,,54,100
114944,note_off,,,,,128,0,11,,,,,4,,,42,100
114976,note_off,,,,,64,0,7,,,,,0,,,81,100
115004,note_off,,,,,188,0,12,,,,,5,,,63,100
115008,note_on,,,,,64,0,13,,,,,5,,,51,100
115008,note_on,,,,,64,0,11,,,,,4,,,39,83
115008,note_on,,,,,4,0,12,,,,,5,,,66,100
115008,note_on,,,,,32,0,7,,,,,0,,,83,100
115008,note_on,,,,,64,0,10,,,,,3,,,51,83
115072,note_off,,,,,64,0,12,,,,,5,,,57,100
115072,note_off,,,,,64,0,7,,,,,0,,,83,100
115104,note_on,,,,,32,0,7,,,,,0,,,81,100
115136,note_off,,,,,64,0,12,,,,,5,,,66,100
115136,note_off,,,,,128,0,11,,,,,4,,,39,100
115136,note_off,,,,,128,0,13,,,,,5,,,51,100
115136,note_off,,,,,128,0,10,,,,,3,,,51,100
115168,note_off,,,,,64,0,7,,,,,0,,,81,100
115200,note_on,,,,,0,0,12,,,,,5,,,66,100
115200,note_on,,,,,64,0,12,,,,,5,,,69,100
115200,note_on,,,,,0,0,12,,,,,5,,,63,100
115200,note_on,,,,,64,0,11,,,,,4,,,35,83
115200,note_on,,,,,64,0,10,,,,,3,,,47,83
115200,note_on,,,,,64,0,13,,,,,5,,,47,100
115200,note_on,,,,,32,0,7,,,,,0,,,87,100
115328,note_off,,,,,128,0,7,,,,,0,,,87,100
115392,note_on,,,,,64,0,7,,,,,0,,,80,100
115456,note_off,,,,,0,0,12,,,,,5,,,66,100
115456,note_off,,,,,0,0,12,,,,,5,,,63,100
115456,note_off,,,,,256,0,12,,,,,5,,,69,100
115456,note_off,,,,,256,0,10,,,,,3,,,47,100
115456,note_off,,,,,256,0,13,,,,,5,,,47,100
115456,note_off,,,,,256,0,11,,,,,4,,,35,100
115484,note_off,,,,,92,0,7,,,,,0,,,80,100
115488,note_on,,,,,4,0,7,,,,,0,,,78,100
115552,note_off,,,,,64,0,7,,,,,0,,,78,100
115584,note_on,,,,,32,0,7,,,,,0,,,80,100
115676,note_off,,,,,92,0,7,,,,,0,,,80,100
115680,note_on,,,,,4,0,7,,,,,0,,,71,99
115772,note_off,,,,,92,0,7,,,,,0,,,71,100
115776,note_on,,,,,4,0,7,,,,,0,,,75,99
115840,note_off,,,,,64,0,7,,,,,0,,,75,100
115872,note_on,,,,,32,0,7,,,,,0,,,78,98
115936,note_off,,,,,64,0,7,,,,,0,,,78,100
115968,note_on,,,,,0,0,12,,,,,5,,,68,100
115968,note_on,,,,,512,0,12,,,,,5,,,61,100
115968,note_on,,,,,512,0,11,,,,,4,,,40,80
115968,note_on,,,,,512,0,10,,,,,3,,,52,80
115968,note_on,,,,,512,0,13,,,,,5,,,52,100
115968,note_on,,,,,32,0,7,,,,,0,,,80,98
116060,note_off,,,,,92,0,7,,,,,0,,,80,100
116064,note_on,,,,,4,0,7,,,,,0,,,78,97
116096,note_off,,,,,128,0,13,,,,,5,,,52,100
116096,note_off,,,,,128,0,10,,,,,3,,,52,100
116096,note_off,,,,,128,0,11,,,,,4,,,40,100
116128,note_off,,,,,64,0,7,,,,,0,,,78,100
116156,note_off,,,,,188,0,12,,,,,5,,,61,100
116160,note_on,,,,,64,0,13,,,,,5,,,51,100
116160,note_on,,,,,64,0,11,,,,,4,,,39,79
116160,note_on,,,,,64,0,10,,,,,3,,,51,79
116160,note_on,,,,,4,0,12,,,,,5,,,59,100
116160,note_on,,,,,32,0,7,,,,,0,,,80,97
116224,note_off,,,,,64,0,12,,,,,5,,,68,100
116288,note_off,,,,,128,0,13,,,,,5,,,51,100
116288,note_off,,,,,64,0,12,,,,,5,,,59,100
116288,note_off,,,,,128,0,11,,,,,4,,,39,100
116288,note_off,,,,,128,0,10,,,,,3,,,51,100
116288,note_off,,,,,128,0,7,,,,,0,,,80,100
116352,note_on,,,,,64,0,10,,,,,3,,,52,78
116352,note_on,,,,,64,0,12,,,,,5,,,56,100
116352,note_on,,,,,64,0,13,,,,,5,,,52,100
116352,note_on,,,,,64,0,11,,,,,4,,,40,78
116352,note_on,,,,,0,0,12,,,,,5,,,61,100
116448,note_on,,,,,160,0,7,,,,,0,,,80,96
116480,note_off,,,,,128,0,10,,,,,3,,,52,100
116480,note_off,,,,,128,0,11,,,,,4,,,40,100
116480,note_off,,,,,128,0,13,,,,,5,,,52,100
116512,note_off,,,,,64,0,7,,,,,0,,,80,100
116540,note_off,,,,,188,0,12,,,,,5,,,61,100
116544,note_on,,,,,64,0,13,,,,,5,,,49,100
116544,note_on,,,,,64,0,11,,,,,4,,,37,77
116544,note_on,,,,,64,0,10,,,,,3,,,49,77
116544,note_on,,,,,4,0,12,,,,,5,,,64,100
116544,note_on,,,,,32,0,7,,,,,0,,,81,95
116608,note_off,,,,,64,0,7,,,,,0,,,81,100
116608,note_off,,,,,64,0,12,,,,,5,,,56,100
116640,note_on,,,,,32,0,7,,,,,0,,,80,95
116672,note_off,,,,,128,0,11,,,,,4,,,37,100
116672,note_off,,,,,128,0,13,,,,,5,,,49,100
116672,note_off,,,,,64,0,12,,,,,5,,,64,100
116672,note_off,,,,,128,0,10,,,,,3,,,49,100
116704,note_off,,,,,64,0,7,,,,,0,,,80,100
116736,note_on,,,,,64,0,12,,,,,5,,,61,100
116736,note_on,,,,,0,0,12,,,,,5,,,68,100
116736,note_on,,,,,64,0,11,,,,,4,,,33,77
116736,note_on,,,,,32,0,7,,,,,0,,,85,94
116736,note_on,,,,,64,0,13,,,,,5,,,45,100
116736,note_on,,,,,64,0,10,,,,,3,,,45,77
116736,note_on,,,,,0,0,12,,,,,5,,,64,100
116864,note_off,,,,,128,0,7,,,,,0,,,85,100
116928,note_on,,,,,64,0,7,,,,,0,,,78,93
116992,note_off,,,,,256,0,11,,,,,4,,,33,100
116992,note_off,,,,,0,0,12,,,,,5,,,68,100
116992,note_off,,,,,256,0,10,,,,,3,,,45,100
116992,note_off,,,,,256,0,13,,,,,5,,,45,100
116992,note_off,,,,,256,0,12,,,,,5,,,61,100
116992,note_off,,,,,0,0,12,,,,,5,,,64,100
117020,note_off,,,,,92,0,7,,,,,0,,,78,100
117024,note_on,,,,,4,0,7,,,,,0,,,76,93
117088,note_off,,,,,64,0,7,,,,,0,,,76,100
117120,note_on,,,,,32,0,7,,,,,0,,,78,93
117212,note_off,,,,,92,0,7,,,,,0,,,78,100
117216,note_on,,,,,4,0,7,,,,,0,,,71,92
117308,note_off,,,,,92,0,7,,,,,0,,,71,100
117312,note_on,,,,,4,0,7,,,,,0,,,75,92
117376,note_off,,,,,64,0,7,,,,,0,,,75,100
117408,note_on,,,,,32,0,7,,,,,0,,,76,91
117472,note_off,,,,,64,0,7,,,,,0,,,76,100
117504,note_on,,,,,512,0,11,,,,,4,,,39,74
117504,note_on,,,,,0,0,12,,,,,5,,,66,100
117504,note_on,,,,,512,0,12,,,,,5,,,59,100
117504,note_on,,,,,512,0,13,,,,,5,,,51,100
117504,note_on,,,,,32,0,7,,,,,0,,,78,91
117504,note_on,,,,,512,0,10,,,,,3,,,51,74
117596,note_off,,,,,92,0,7,,,,,0,,,78,100
117600,note_on,,,,,4,0,7,,,,,0,,,76,90
117632,note_off,,,,,128,0,13,,,,,5,,,51,100
117632,note_off,,,,,128,0,10,,,,,3,,,51,100
117632,note_off,,,,,128,0,11,,,,,4,,,39,100
117664,note_off,,,,,64,0,7,,,,,0,,,76,100
117692,note_off,,,,,188,0,12,,,,,5,,,59,100
117696,note_on,,,,,64,0,11,,,,,4,,,37,73
117696,note_on,,,,,4,0,12,,,,,5,,,57,100
117696,note_on,,,,,64,0,13,,,,,5,,,49,100
117696,note_on,,,,,32,0,7,,,,,0,,,78,90
117696,note_on,,,,,64,0,10,,,,,3,,,49,73
117760,note_off,,,,,64,0,12,,,,,5,,,66,100
117824,note_off,,,,,128,0,13,,,,,5,,,49,100
117824,note_off,,,,,128,0,7,,,,,0,,,78,100
117824,note_off,,,,,128,0,11,,,,,4,,,37,100
117824,note_off,,,,,64,0,12,,,,,5,,,57,100
117824,note_off,,,,,128,0,10,,,,,3,,,49,100
117888,note_on,,,,,64,0,11,,,,,4,,,39,72
117888,note_on,,,,,64,0,12,,,,,5,,,54,100
117888,note_on,,,,,64,0,13,,,,,5,,,51,100
117888,note_on,,,,,64,0,10,,,,,3,,,51,72
117888,note_on,,,,,0,0,12,,,,,5,,,59,100
117984,note_on,,,,,160,0,7,,,,,0,,,78,90
118016,note_off,,,,,128,0,11,,,,,4,,,39,100
118016,note_off,,,,,128,0,10,,,,,3,,,51,100
118016,note_off,,,,,128,0,13,,,,,5,,,51,100
118048,note_off,,,,,64,0,7,,,,,0,,,78,100
118076,note_off,,,,,188,0,12,,,,,5,,,59,100
118080,note_on,,,,,64,0,11,,,,,4,,,35,71
118080,note_on,,,,,4,0,12,,,,,5,,,63,100
118080,note_on,,,,,64,0,13,,,,,5,,,47,100
118080,note_on,,,,,64,0,10,,,,,3,,,47,71
118080,note_on,,,,,32,0,7,,,,,0,,,80,90
118144,note_off,,,,,64,0,12,,,,,5,,,54,100
118144,note_off,,,,,64,0,7,,,,,0,,,80,100
118176,note_on,,,,,32,0,7,,,,,0,,,78,90
118208,note_off,,,,,128,0,10,,,,,3,,,47,100
118208,note_off,,,,,64,0,12,,,,,5,,,63,100
118208,note_off,,,,,128,0,13,,,,,5,,,47,100
118208,note_off,,,,,128,0,11,,,,,4,,,35,100
118240,note_off,,,,,64,0,7,,,,,0,,,78,100
118272,note_on,,,,,64,0,13,,,,,5,,,44,100
118272,note_on,,,,,64,0,10,,,,,3,,,44,71
118272,note_on,,,,,32,0,7,,,,,0,,,83,90
118272,note_on,,,,,0,0,12,,,,,5,,,63,100
118272,note_on,,,,,0,0,12,,,,,5,,,66,100
118272,note_on,,,,,64,0,12,,,,,5,,,59,100
118272,note_on,,,,,64,0,11,,,,,4,,,32,71
118400,note_off,,,,,128,0,7,,,,,0,,,83,100
118464,note_on,,,,,64,0,7,,,,,0,,,76,90
118528,note_off,,,,,256,0,11,,,,,4,,,32,100
118528,note_off,,,,,256,0,13,,,,,5,,,44,100
118528,note_off,,,,,256,0,12,,,,,5,,,59,100
118528,note_off,,,,,0,0,12,,,,,5,,,63,100
118528,note_off,,,,,256,0,10,,,,,3,,,44,100
118528,note_off,,,,,0,0,12,,,,,5,,,66,100
118556,note_off,,,,,92,0,7,,,,,0,,,76,100
118560,note_on,,,,,4,0,7,,,,,0,,,75,90
118624,note_off,,,,,64,0,7,,,,,0,,,75,100
118656,note_on,,,,,32,0,7,,,,,0,,,76,90
118748,note_off,,,,,92,0,7,,,,,0,,,76,100
118752,note_on,,,,,4,0,7,,,,,0,,,71,90
118844,note_off,,,,,92,0,7,,,,,0,,,71,100
118848,note_on,,,,,4,0,7,,,,,0,,,73,90
118912,note_off,,,,,64,0,7,,,,,0,,,73,100
118944,note_on,,,,,32,0,7,,,,,0,,,75,90
119008,note_off,,,,,64,0,7,,,,,0,,,75,100
119040,note_on,,,,,512,0,13,,,,,5,,,49,100
119040,note_on,,,,,512,0,12,,,,,5,,,64,100
119040,note_on,,,,,32,0,7,,,,,0,,,76,90
119040,note_on,,,,,512,0,11,,,,,4,,,37,70
119040,note_on,,,,,0,0,12,,,,,5,,,68,100
119040,note_on,,,,,512,0,10,,,,,3,,,49,70
119168,note_off,,,,,128,0,13,,,,,5,,,49,100
119168,note_off,,,,,128,0,12,,,,,5,,,64,100
119168,note_off,,,,,0,0,12,,,,,5,,,68,100
119168,note_off,,,,,128,0,10,,,,,3,,,49,100
119168,note_off,,,,,128,0,7,,,,,0,,,76,100
119168,note_off,,,,,128,0,11,,,,,4,,,37,100
119232,note_on,,,,,64,0,10,,,,,3,,,47,73
119232,note_on,,,,,64,0,12,,,,,5,,,63,100
119232,note_on,,,,,0,0,12,,,,,5,,,66,100
119232,note_on,,,,,64,0,13,,,,,5,,,47,100
119232,note_on,,,,,64,0,7,,,,,0,,,78,92
119232,note_on,,,,,64,0,11,,,,,4,,,35,73
119296,note_off,,,,,64,0,7,,,,,0,,,78,100
119328,note_on,,,,,32,0,7,,,,,0,,,80,93
119360,note_off,,,,,0,0,12,,,,,5,,,66,100
119360,note_off,,,,,128,0,12,,,,,5,,,63,100
119360,note_off,,,,,128,0,11,,,,,4,,,35,100
119360,note_off,,,,,128,0,13,,,,,5,,,47,100
119360,note_off,,,,,128,0,10,,,,,3,,,47,100
119392,note_off,,,,,64,0,7,,,,,0,,,80,100
119424,note_on,,,,,32,0,7,,,,,0,,,78,94
119424,note_on,,,,,64,0,10,,,,,3,,,46,77
119424,note_on,,,,,64,0,13,,,,,5,,,46,100
119424,note_on,,,,,0,0,12,,,,,5,,,61,100
119424,note_on,,,,,64,0,12,,,,,5,,,64,100
119424,note_on,,,,,64,0,11,,,,,4,,,34,77
119552,note_off,,,,,0,0,12,,,,,5,,,61,100
119552,note_off,,,,,128,0,12,,,,,5,,,64,100
119552,note_off,,,,,128,0,13,,,,,5,,,46,100
119552,note_off,,,,,128,0,10,,,,,3,,,46,100
119552,note_off,,,,,128,0,7,,,,,0,,,78,100
119552,note_off,,,,,128,0,11,,,,,4,,,34,100
119616,note_on,,,,,0,0,12,,,,,5,,,64,100
119616,note_on,,,,,64,0,10,,,,,3,,,42,81
119616,note_on,,,,,64,0,7,,,,,0,,,76,97
119616,note_on,,,,,64,0,13,,,,,5,,,42,100
119616,note_on,,,,,64,0,12,,,,,5,,,70,100
119616,note_on,,,,,64,0,11,,,,,4,,,42,81
119744,note_off,,,,,128,0,11,,,,,4,,,42,100
119744,note_off,,,,,128,0,10,,,,,3,,,42,100
119744,note_off,,,,,128,0,13,,,,,5,,,42,100
119744,note_off,,,,,0,0,12,,,,,5,,,64,100
119744,note_off,,,,,128,0,12,,,,,5,,,70,100
119744,note_off,,,,,128,0,7,,,,,0,,,76,100
119808,note_on,,,,,64,0,10,,,,,3,,,47,84
119808,note_on,,,,,64,0,13,,,,,5,,,47,100
119808,note_on,,,,,64,0,7,,,,,0,,,75,99
119808,note_on,,,,,0,0,12,,,,,5,,,71,100
119808,note_on,,,,,0,0,12,,,,,5,,,63,100
119808,note_on,,,,,64,0,11,,,,,4,,,35,84
119808,note_on,,,,,64,0,12,,,,,5,,,66,100
119900,note_off,,,,,92,0,7,,,,,0,,,75,100
119904,note_on,,,,,4,0,7,,,,,0,,,73,90
119996,note_off,,,,,92,0,7,,,,,0,,,73,100
120000,note_on,,,,,4,0,7,,,,,0,,,71,90
120064,note_off,,,,,0,0,12,,,,,5,,,63,100
120064,note_off,,,,,0,0,12,,,,,5,,,71,100
120064,note_off,,,,,256,0,10,,,,,3,,,47,100
120064,note_off,,,,,256,0,13,,,,,5,,,47,100
120064,note_off,,,,,256,0,12,,,,,5,,,66,100
120064,note_off,,,,,256,0,11,,,,,4,,,35,100
120092,note_off,,,,,92,0,7,,,,,0,,,71,100
120096,note_on,,,,,4,0,7,,,,,0,,,69,90
120188,note_off,,,,,92,0,7,,,,,0,,,69,100
120192,note_on,,,,,4,0,7,,,,,0,,,71,91
120256,note_off,,,,,64,0,7,,,,,0,,,71,100
120288,note_on,,,,,32,0,7,,,,,0,,,75,91
120352,note_off,,,,,64,0,7,,,,,0,,,75,100
120384,note_on,,,,,32,0,7,,,,,0,,,73,92
120448,note_off,,,,,64,0,7,,,,,0,,,73,100
120480,note_on,,,,,32,0,7,,,,,0,,,75,92
120544,note_off,,,,,64,0,7,,,,,0,,,75,100
120576,note_on,,,,,512,0,12,,,,,5,,,64,100
120576,note_on,,,,,512,0,11,,,,,4,,,37,85
120576,note_on,,,,,0,0,12,,,,,5,,,68,100
120576,note_on,,,,,512,0,10,,,,,3,,,49,85
120576,note_on,,,,,512,0,13,,,,,5,,,49,100
120576,note_on,,,,,32,0,7,,,,,0,,,76,93
120668,note_off,,,,,92,0,7,,,,,0,,,76,100
120672,note_on,,,,,4,0,7,,,,,0,,,73,93
120764,note_off,,,,,92,0,7,,,,,0,,,73,100
120768,note_on,,,,,4,0,7,,,,,0,,,71,93
120832,note_off,,,,,256,0,13,,,,,5,,,49,100
120832,note_off,,,,,256,0,10,,,,,3,,,49,100
120832,note_off,,,,,0,0,12,,,,,5,,,68,100
120832,note_off,,,,,256,0,12,,,,,5,,,64,100
120832,note_off,,,,,256,0,11,,,,,4,,,37,100
120860,note_off,,,,,92,0,7,,,,,0,,,71,100
120864,note_on,,,,,4,0,7,,,,,0,,,69,94
120956,note_off,,,,,92,0,7,,,,,0,,,69,100
120960,note_on,,,,,4,0,7,,,,,0,,,71,94
121024,note_off,,,,,64,0,7,,,,,0,,,71,100
121056,note_on,,,,,32,0,7,,,,,0,,,76,95
121120,note_off,,,,,64,0,7,,,,,0,,,76,100
121152,note_on,,,,,32,0,7,,,,,0,,,75,95
121216,note_off,,,,,64,0,7,,,,,0,,,75,100
121248,note_on,,,,,32,0,7,,,,,0,,,76,96
121312,note_off,,,,,64,0,7,,,,,0,,,76,100
121344,note_on,,,,,512,0,11,,,,,4,,,39,85
121344,note_on,,,,,512,0,10,,,,,3,,,51,85
121344,note_on,,,,,0,0,12,,,,,5,,,66,100
121344,note_on,,,,,512,0,12,,,,,5,,,71,100
121344,note_on,,,,,512,0,13,,,,,5,,,51,100
121344,note_on,,,,,32,0,7,,,,,0,,,78,96
121436,note_off,,,,,92,0,7,,,,,0,,,78,100
121440,note_on,,,,,4,0,7,,,,,0,,,73,96
121532,note_off,,,,,92,0,7,,,,,0,,,73,100
121536,note_on,,,,,4,0,7,,,,,0,,,71,97
121600,note_off,,,,,256,0,12,,,,,5,,,71,100
121600,note_off,,,,,0,0,12,,,,,5,,,66,100
121600,note_off,,,,,256,0,13,,,,,5,,,51,100
121600,note_off,,,,,256,0,10,,,,,3,,,51,100
121600,note_off,,,,,256,0,11,,,,,4,,,39,100
121628,note_off,,,,,92,0,7,,,,,0,,,71,100
121632,note_on,,,,,4,0,7,,,,,0,,,69,97
121724,note_off,,,,,92,0,7,,,,,0,,,69,100
121728,note_on,,,,,4,0,7,,,,,0,,,71,98
121792,note_off,,,,,64,0,7,,,,,0,,,71,100
121824,note_on,,,,,32,0,7,,,,,0,,,78,98
121888,note_off,,,,,64,0,7,,,,,0,,,78,100
121920,note_on,,,,,32,0,7,,,,,0,,,76,99
121984,note_off,,,,,64,0,7,,,,,0,,,76,100
122016,note_on,,,,,32,0,7,,,,,0,,,78,99
122080,note_off,,,,,64,0,7,,,,,0,,,78,100
122112,note_on,,,,,512,0,10,,,,,3,,,52,85
122112,note_on,,,,,512,0,11,,,,,4,,,40,85
122112,note_on,,,,,512,0,12,,,,,5,,,68,100
122112,note_on,,,,,512,0,13,,,,,5,,,52,100
122112,note_on,,,,,0,0,12,,,,,5,,,71,100
122112,note_on,,,,,32,0,7,,,,,0,,,80,99
122204,note_off,,,,,92,0,7,,,,,0,,,80,100
122208,note_on,,,,,4,0,7,,,,,0,,,73,100
122300,note_off,,,,,92,0,7,,,,,0,,,73,100
122304,note_on,,,,,4,0,7,,,,,0,,,71,100
122368,note_off,,,,,256,0,12,,,,,5,,,68,100
122368,note_off,,,,,256,0,13,,,,,5,,,52,100
122368,note_off,,,,,256,0,11,,,,,4,,,40,100
122368,note_off,,,,,256,0,10,,,,,3,,,52,100
122368,note_off,,,,,0,0,12,,,,,5,,,71,100
122396,note_off,,,,,92,0,7,,,,,0,,,71,100
122400,note_on,,,,,4,0,7,,,,,0,,,69,100
122492,note_off,,,,,92,0,7,,,,,0,,,69,100
122496,note_on,,,,,4,0,7,,,,,0,,,71,100
122560,note_off,,,,,64,0,7,,,,,0,,,71,100
122592,note_on,,,,,32,0,7,,,,,0,,,80,100
122656,note_off,,,,,64,0,7,,,,,0,,,80,100
122688,note_on,,,,,32,0,7,,,,,0,,,78,100
122752,note_off,,,,,64,0,7,,,,,0,,,78,100
122784,note_on,,,,,32,0,7,,,,,0,,,80,100
122848,note_off,,,,,64,0,7,,,,,0,,,80,100
122880,note_on,,,,,0,0,12,,,,,5,,,73,100
122880,note_on,,,,,512,0,12,,,,,5,,,69,100
122880,note_on,,,,,512,0,11,,,,,4,,,42,85
122880,note_on,,,,,512,0,10,,,,,3,,,54,85
122880,note_on,,,,,32,0,7,,,,,0,,,81,100
122880,note_on,,,,,512,0,13,,,,,5,,,54,100
122972,note_off,,,,,92,0,7,,,,,0,,,81,100
122976,note_on,,,,,4,0,7,,,,,0,,,73,100
123068,note_off,,,,,92,0,7,,,,,0,,,73,100
123072,note_on,,,,,4,0,7,,,,,0,,,71,100
123136,note_off,,,,,256,0,13,,,,,5,,,54,100
123136,note_off,,,,,256,0,10,,,,,3,,,54,100
123136,note_off,,,,,256,0,12,,,,,5,,,69,100
123136,note_off,,,,,0,0,12,,,,,5,,,73,100
123136,note_off,,,,,256,0,11,,,,,4,,,42,100
123164,note_off,,,,,92,0,7,,,,,0,,,71,100
123168,note_on,,,,,4,0,7,,,,,0,,,69,100
123260,note_off,,,,,92,0,7,,,,,0,,,69,100
123264,note_on,,,,,4,0,7,,,,,0,,,71,100
123328,note_off,,,,,64,0,7,,,,,0,,,71,100
123360,note_on,,,,,32,0,7,,,,,0,,,81,100
123424,note_off,,,,,64,0,7,,,,,0,,,81,100
123456,note_on,,,,,32,0,7,,,,,0,,,80,100
123520,note_off,,,,,64,0,7,,,,,0,,,80,100
123552,note_on,,,,,32,0,7,,,,,0,,,81,100
123616,note_off,,,,,64,0,7,,,,,0,,,81,100
123648,note_on,,,,,0,0,12,,,,,5,,,75,100
123648,note_on,,,,,512,0,13,,,,,5,,,56,100
123648,note_on,,,,,32,0,7,,,,,0,,,83,100
123648,note_on,,,,,512,0,10,,,,,3,,,56,85
123648,note_on,,,,,512,0,12,,,,,5,,,71,100
123648,note_on,,,,,512,0,11,,,,,4,,,44,85
123740,note_off,,,,,92,0,7,,,,,0,,,83,100
123744,note_on,,,,,4,0,7,,,,,0,,,73,100
123836,note_off,,,,,92,0,7,,,,,0,,,73,100
123840,note_on,,,,,4,0,7,,,,,0,,,71,100
123904,note_off,,,,,256,0,13,,,,,5,,,56,100
123904,note_off,,,,,256,0,10,,,,,3,,,56,100
123904,note_off,,,,,0,0,12,,,,,5,,,75,100
123904,note_off,,,,,256,0,11,,,,,4,,,44,100
123904,note_off,,,,,256,0,12,,,,,5,,,71,100
123932,note_off,,,,,92,0,7,,,,,0,,,71,100
123936,note_on,,,,,4,0,7,,,,,0,,,69,100
124028,note_off,,,,,92,0,7,,,,,0,,,69,100
124032,note_on,,,,,4,0,7,,,,,0,,,71,100
124096,note_off,,,,,64,0,7,,,,,0,,,71,100
124128,note_on,,,,,32,0,7,,,,,0,,,83,100
124192,note_off,,,,,64,0,7,,,,,0,,,83,100
124224,note_on,,,,,32,0,7,,,,,0,,,81,100
124288,note_off,,,,,64,0,7,,,,,0,,,81,100
124320,note_on,,,,,32,0,7,,,,,0,,,80,100
124384,note_off,,,,,64,0,7,,,,,0,,,80,100
124416,note_on,,,,,512,0,10,,,,,3,,,54,85
124416,note_on,,,,,512,0,11,,,,,4,,,42,85
124416,note_on,,,,,0,0,12,,,,,5,,,73,100
124416,note_on,,,,,512,0,12,,,,,5,,,69,100
124416,note_on,,,,,512,0,13,,,,,5,,,54,100
124416,note_on,,,,,32,0,7,,,,,0,,,81,100
124508,note_off,,,,,92,0,7,,,,,0,,,81,100
124512,note_on,,,,,4,0,7,,,,,0,,,78,100
124544,note_off,,,,,128,0,11,,,,,4,,,42,100
124544,note_off,,,,,128,0,10,,,,,3,,,54,100
124544,note_off,,,,,128,0,13,,,,,5,,,54,100
124544,note_off,,,,,128,0,12,,,,,5,,,69,100
124544,note_off,,,,,0,0,12,,,,,5,,,73,100
124604,note_off,,,,,92,0,7,,,,,0,,,78,100
124608,note_on,,,,,64,0,10,,,,,3,,,59,85
124608,note_on,,,,,4,0,7,,,,,0,,,76,100
124608,note_on,,,,,64,0,12,,,,,5,,,78,100
124608,note_on,,,,,64,0,11,,,,,4,,,47,85
124608,note_on,,,,,64,0,13,,,,,5,,,59,100
124608,note_on,,,,,0,0,12,,,,,5,,,69,100
124700,note_off,,,,,92,0,7,,,,,0,,,76,100
124704,note_on,,,,,4,0,7,,,,,0,,,78,99
124736,note_off,,,,,128,0,13,,,,,5,,,59,100
124736,note_off,,,,,128,0,11,,,,,4,,,47,100
124736,note_off,,,,,128,0,12,,,,,5,,,78,100
124736,note_off,,,,,0,0,12,,,,,5,,,69,100
124736,note_off,,,,,128,0,10,,,,,3,,,59,100
124768,note_off,,,,,64,0,7,,,,,0,,,78,100
124800,note_on,,,,,0,0,12,,,,,5,,,71,100
124800,note_on,,,,,64,0,10,,,,,3,,,52,84
124800,note_on,,,,,64,0,11,,,,,4,,,40,84
124800,note_on,,,,,64,0,13,,,,,5,,,52,100
124800,note_on,,,,,32,0,7,,,,,0,,,80,99
124800,note_on,,,,,64,0,12,,,,,5,,,68,100
124892,note_off,,,,,92,0,7,,,,,0,,,80,100
124896,note_on,,,,,4,0,7,,,,,0,,,76,98
124928,note_off,,,,,128,0,11,,,,,4,,,40,100
124928,note_off,,,,,128,0,12,,,,,5,,,68,100
124928,note_off,,,,,0,0,12,,,,,5,,,71,100
124928,note_off,,,,,128,0,10,,,,,3,,,52,100
124928,note_off,,,,,128,0,13,,,,,5,,,52,100
124988,note_off,,,,,92,0,7,,,,,0,,,76,100
124992,note_on,,,,,64,0,10,,,,,3,,,57,84
124992,note_on,,,,,64,0,11,,,,,4,,,45,84
124992,note_on,,,,,0,0,12,,,,,5,,,68,100
124992,note_on,,,,,64,0,12,,,,,5,,,76,100
124992,note_on,,,,,64,0,13,,,,,5,,,57,100
124992,note_on,,,,,4,0,7,,,,,0,,,75,98
125084,note_off,,,,,92,0,7,,,,,0,,,75,100
125088,note_on,,,,,4,0,7,,,,,0,,,76,97
125120,note_off,,,,,128,0,13,,,,,5,,,57,100
125120,note_off,,,,,0,0,12,,,,,5,,,68,100
125120,note_off,,,,,128,0,12,,,,,5,,,76,100
125120,note_off,,,,,128,0,10,,,,,3,,,57,100
125120,note_off,,,,,128,0,11,,,,,4,,,45,100
125152,note_off,,,,,64,0,7,,,,,0,,,76,100
125184,note_on,,,,,0,0,12,,,,,5,,,69,100
125184,note_on,,,,,64,0,12,,,,,5,,,66,100
125184,note_on,,,,,32,0,7,,,,,0,,,78,97
125184,note_on,,,,,64,0,11,,,,,4,,,39,83
125184,note_on,,,,,64,0,13,,,,,5,,,51,100
125184,note_on,,,,,64,0,10,,,,,3,,,51,83
125276,note_off,,,,,92,0,7,,,,,0,,,78,100
125280,note_on,,,,,4,0,7,,,,,0,,,75,96
125312,note_off,,,,,128,0,11,,,,,4,,,39,100
125312,note_off,,,,,0,0,12,,,,,5,,,69,100
125312,note_off,,,,,128,0,12,,,,,5,,,66,100
125312,note_off,,,,,128,0,10,,,,,3,,,51,100
125312,note_off,,,,,128,0,13,,,,,5,,,51,100
125372,note_off,,,,,92,0,7,,,,,0,,,75,100
125376,note_on,,,,,64,0,10,,,,,3,,,56,82
125376,note_on,,,,,64,0,12,,,,,5,,,75,100
125376,note_on,,,,,0,0,12,,,,,5,,,66,100
125376,note_on,,,,,4,0,7,,,,,0,,,73,96
125376,note_on,,,,,64,0,13,,,,,5,,,56,100
125376,note_on,,,,,64,0,11,,,,,4,,,44,82
125468,note_off,,,,,92,0,7,,,,,0,,,73,100
125472,note_on,,,,,4,0,7,,,,,0,,,75,95
125504,note_off,,,,,128,0,12,,,,,5,,,75,100
125504,note_off,,,,,0,0,12,,,,,5,,,66,100
125504,note_off,,,,,128,0,13,,,,,5,,,56,100
125504,note_off,,,,,128,0,11,,,,,4,,,44,100
125504,note_off,,,,,128,0,10,,,,,3,,,56,100
125536,note_off,,,,,64,0,7,,,,,0,,,75,100
125568,note_on,,,,,64,0,12,,,,,5,,,64,100
125568,note_on,,,,,0,0,12,,,,,5,,,68,100
125568,note_on,,,,,64,0,11,,,,,4,,,37,82
125568,note_on,,,,,64,0,10,,,,,3,,,49,82
125568,note_on,,,,,64,0,13,,,,,5,,,49,100
125568,note_on,,,,,32,0,7,,,,,0,,,76,95
125660,note_off,,,,,92,0,7,,,,,0,,,76,100
125664,note_on,,,,,4,0,7,,,,,0,,,73,94
125696,note_off,,,,,128,0,10,,,,,3,,,49,100
125696,note_off,,,,,128,0,13,,,,,5,,,49,100
125696,note_off,,,,,128,0,11,,,,,4,,,37,100
125696,note_off,,,,,0,0,12,,,,,5,,,68,100
125696,note_off,,,,,128,0,12,,,,,5,,,64,100
125756,note_off,,,,,92,0,7,,,,,0,,,73,100
125760,note_on,,,,,64,0,13,,,,,5,,,54,100
125760,note_on,,,,,4,0,7,,,,,0,,,71,94
125760,note_on,,,,,64,0,10,,,,,3,,,54,81
125760,note_on,,,,,64,0,11,,,,,4,,,42,81
125760,note_on,,,,,0,0,12,,,,,5,,,64,100
125760,note_on,,,,,64,0,12,,,,,5,,,73,100
125852,note_off,,,,,92,0,7,,,,,0,,,71,100
125856,note_on,,,,,4,0,7,,,,,0,,,73,93
125888,note_off,,,,,128,0,10,,,,,3,,,54,100
125888,note_off,,,,,128,0,11,,,,,4,,,42,100
125888,note_off,,,,,128,0,13,,,,,5,,,54,100
125888,note_off,,,,,128,0,12,,,,,5,,,73,100
125888,note_off,,,,,0,0,12,,,,,5,,,64,100
125920,note_off,,,,,64,0,7,,,,,0,,,73,100
125952,note_on,,,,,32,0,7,,,,,0,,,75,93
125952,note_on,,,,,64,0,13,,,,,5,,,47,100
125952,note_on,,,,,64,0,11,,,,,4,,,35,81
125952,note_on,,,,,64,0,10,,,,,3,,,47,81
125952,note_on,,,,,64,0,12,,,,,5,,,63,100
125952,note_on,,,,,0,0,12,,,,,5,,,66,100
126044,note_off,,,,,92,0,7,,,,,0,,,75,100
126048,note_on,,,,,4,0,7,,,,,0,,,71,92
126080,note_off,,,,,0,0,12,,,,,5,,,66,100
126080,note_off,,,,,128,0,10,,,,,3,,,47,100
126080,note_off,,,,,128,0,11,,,,,4,,,35,100
126080,note_off,,,,,128,0,13,,,,,5,,,47,100
126080,note_off,,,,,128,0,12,,,,,5,,,63,100
126140,note_off,,,,,92,0,7,,,,,0,,,71,100
126144,note_on,,,,,64,0,13,,,,,5,,,52,100
126144,note_on,,,,,64,0,10,,,,,3,,,52,80
126144,note_on,,,,,4,0,7,,,,,0,,,69,92
126144,note_on,,,,,64,0,11,,,,,4,,,40,80
126144,note_on,,,,,0,0,12,,,,,5,,,63,100
126144,note_on,,,,,64,0,12,,,,,5,,,71,100
126236,note_off,,,,,92,0,7,,,,,0,,,69,100
126240,note_on,,,,,4,0,7,,,,,0,,,71,91
126272,note_off,,,,,128,0,11,,,,,4,,,40,100
126272,note_off,,,,,128,0,12,,,,,5,,,71,100
126272,note_off,,,,,128,0,10,,,,,3,,,52,100
126272,note_off,,,,,128,0,13,,,,,5,,,52,100
126272,note_off,,,,,0,0,12,,,,,5,,,63,100
126304,note_off,,,,,64,0,7,,,,,0,,,71,100
126336,note_on,,,,,64,0,11,,,,,4,,,33,79
126336,note_on,,,,,0,0,12,,,,,5,,,64,100
126336,note_on,,,,,64,0,12,,,,,5,,,61,100
126336,note_on,,,,,64,0,13,,,,,5,,,45,100
126336,note_on,,,,,32,0,7,,,,,0,,,73,91
126336,note_on,,,,,64,0,10,,,,,3,,,45,79
126428,note_off,,,,,92,0,7,,,,,0,,,73,100
126432,note_on,,,,,4,0,7,,,,,0,,,69,90
126464,note_off,,,,,128,0,13,,,,,5,,,45,100
126464,note_off,,,,,128,0,10,,,,,3,,,45,100
126464,note_off,,,,,0,0,12,,,,,5,,,64,100
126464,note_off,,,,,128,0,12,,,,,5,,,61,100
126464,note_off,,,,,128,0,11,,,,,4,,,33,100
126524,note_off,,,,,92,0,7,,,,,0,,,69,100
126528,note_on,,,,,64,0,11,,,,,4,,,39,79
126528,note_on,,,,,64,0,10,,,,,3,,,51,79
126528,note_on,,,,,4,0,7,,,,,0,,,68,90
126528,note_on,,,,,64,0,13,,,,,5,,,51,100
126528,note_on,,,,,64,0,12,,,,,5,,,69,100
126528,note_on,,,,,0,0,12,,,,,5,,,61,100
126620,note_off,,,,,92,0,7,,,,,0,,,68,100
126624,note_on,,,,,4,0,7,,,,,0,,,69,89
126656,note_off,,,,,128,0,10,,,,,3,,,51,100
126656,note_off,,,,,0,0,12,,,,,5,,,61,100
126656,note_off,,,,,128,0,12,,,,,5,,,69,100
126656,note_off,,,,,128,0,13,,,,,5,,,51,100
126656,note_off,,,,,128,0,11,,,,,4,,,39,100
126688,note_off,,,,,64,0,7,,,,,0,,,69,100
126720,note_on,,,,,0,0,12,,,,,5,,,63,100
126720,note_on,,,,,32,0,7,,,,,0,,,71,89
126720,note_on,,,,,64,0,13,,,,,5,,,44,100
126720,note_on,,,,,64,0,11,,,,,4,,,32,78
126720,note_on,,,,,64,0,10,,,,,3,,,44,78
126720,note_on,,,,,64,0,12,,,,,5,,,59,100
126812,note_off,,,,,92,0,7,,,,,0,,,71,100
126816,note_on,,,,,4,0,7,,,,,0,,,68,88
126848,note_off,,,,,128,0,13,,,,,5,,,44,100
126848,note_off,,,,,128,0,12,,,,,5,,,59,100
126848,note_off,,,,,128,0,11,,,,,4,,,32,100
126848,note_off,,,,,128,0,10,,,,,3,,,44,100
126848,note_off,,,,,0,0,12,,,,,5,,,63,100
126908,note_off,,,,,92,0,7,,,,,0,,,68,100
126912,note_on,,,,,4,0,7,,,,,0,,,66,88
126912,note_on,,,,,0,0,12,,,,,5,,,59,100
126912,note_on,,,,,64,0,11,,,,,4,,,37,77
126912,note_on,,,,,64,0,10,,,,,3,,,49,77
126912,note_on,,,,,64,0,13,,,,,5,,,49,100
126912,note_on,,,,,64,0,12,,,,,5,,,68,100
127004,note_off,,,,,92,0,7,,,,,0,,,66,100
127008,note_on,,,,,4,0,7,,,,,0,,,68,87
127040,note_off,,,,,128,0,13,,,,,5,,,49,100
127040,note_off,,,,,128,0,11,,,,,4,,,37,100
127040,note_off,,,,,128,0,12,,,,,5,,,68,100
127040,note_off,,,,,0,0,12,,,,,5,,,59,100
127040,note_off,,,,,128,0,10,,,,,3,,,49,100
127072,note_off,,,,,64,0,7,,,,,0,,,68,100
127104,note_on,,,,,64,0,12,,,,,5,,,57,100
127104,note_on,,,,,64,0,11,,,,,4,,,42,77
127104,note_on,,,,,0,0,12,,,,,5,,,61,100
127104,note_on,,,,,64,0,10,,,,,3,,,42,77
127104,note_on,,,,,32,0,7,,,,,0,,,69,87
127104,note_on,,,,,64,0,13,,,,,5,,,42,100
127196,note_off,,,,,92,0,7,,,,,0,,,69,100
127200,note_on,,,,,4,0,7,,,,,0,,,66,86
127232,note_off,,,,,128,0,10,,,,,3,,,42,100
127232,note_off,,,,,128,0,12,,,,,5,,,57,100
127232,note_off,,,,,0,0,12,,,,,5,,,61,100
127232,note_off,,,,,128,0,11,,,,,4,,,42,100
127232,note_off,,,,,128,0,13,,,,,5,,,42,100
127292,note_off,,,,,92,0,7,,,,,0,,,66,100
127296,note_on,,,,,64,0,13,,,,,5,,,47,100
127296,note_on,,,,,64,0,10,,,,,3,,,47,76
127296,note_on,,,,,64,0,12,,,,,5,,,66,100
127296,note_on,,,,,0,0,12,,,,,5,,,57,100
127296,note_on,,,,,64,0,11,,,,,4,,,35,76
127296,note_on,,,,,4,0,7,,,,,0,,,64,86
127388,note_off,,,,,92,0,7,,,,,0,,,64,100
127392,note_on,,,,,4,0,7,,,,,0,,,66,86
127424,note_off,,,,,128,0,11,,,,,4,,,35,100
127424,note_off,,,,,128,0,13,,,,,5,,,47,100
127424,note_off,,,,,128,0,10,,,,,3,,,47,100
127424,note_off,,,,,128,0,12,,,,,5,,,66,100
127424,note_off,,,,,0,0,12,,,,,5,,,57,100
127456,note_off,,,,,64,0,7,,,,,0,,,66,100
127488,note_on,,,,,0,0,12,,,,,5,,,59,100
127488,note_on,,,,,64,0,12,,,,,5,,,68,100
127488,note_on,,,,,64,0,13,,,,,5,,,52,100
127488,note_on,,,,,64,0,10,,,,,3,,,52,75
127488,note_on,,,,,64,0,11,,,,,4,,,40,75
127488,note_on,,,,,32,0,7,,,,,0,,,68,85
127552,note_off,,,,,64,0,7,,,,,0,,,68,100
127584,note_on,,,,,32,0,7,,,,,0,,,64,85
127648,note_off,,,,,64,0,7,,,,,0,,,64,100
127680,note_on,,,,,32,0,7,,,,,0,,,68,86
127744,note_off,,,,,64,0,7,,,,,0,,,68,100
127744,note_off,,,,,256,0,12,,,,,5,,,68,100
127744,note_off,,,,,256,0,13,,,,,5,,,52,100
127744,note_off,,,,,256,0,10,,,,,3,,,52,100
127744,note_off,,,,,0,0,12,,,,,5,,,59,100
127744,note_off,,,,,256,0,11,,,,,4,,,40,100
127776,note_on,,,,,32,0,7,,,,,0,,,71,87
127840,note_off,,,,,64,0,7,,,,,0,,,71,100
127872,note_on,,,,,32,0,7,,,,,0,,,76,87
128064,note_on,,,,,320,0,11,,,,,4,,,52,76
128064,note_on,,,,,320,0,12,,,,,5,,,68,100
128064,note_on,,,,,0,0,12,,,,,5,,,71,100
128064,note_on,,,,,320,0,13,,,,,5,,,64,100
128064,note_on,,,,,320,0,10,,,,,3,,,64,76
128128,note_off,,,,,256,0,7,,,,,0,,,76,100
128192,note_off,,,,,128,0,12,,,,,5,,,68,100
128192,note_off,,,,,0,0,12,,,,,5,,,71,100
128192,note_off,,,,,128,0,13,,,,,5,,,64,100
128192,note_off,,,,,128,0,10,,,,,3,,,64,100
128192,note_off,,,,,128,0,11,,,,,4,,,52,100
128256,note_on,,,,,64,0,11,,,,,4,,,40,77
128256,note_on,,,,,64,0,12,,,,,5,,,59,100
128256,note_on,,,,,64,0,10,,,,,3,,,52,77
128256,note_on,,,,,64,0,13,,,,,5,,,52,100
128256,note_on,,,,,0,0,12,,,,,5,,,68,100
128352,note_on,,,,,224,0,7,,,,,0,,,68,91
128416,note_off,,,,,64,0,7,,,,,0,,,68,100
128448,note_on,,,,,32,0,7,,,,,0,,,71,92
128512,note_off,,,,,256,0,11,,,,,4,,,40,100
128512,note_off,,,,,64,0,7,,,,,0,,,71,100
128512,note_off,,,,,256,0,12,,,,,5,,,59,100
128512,note_off,,,,,256,0,13,,,,,5,,,52,100
128512,note_off,,,,,256,0,10,,,,,3,,,52,100
128512,note_off,,,,,0,0,12,,,,,5,,,68,100
128544,note_on,,,,,32,0,7,,,,,0,,,76,92
128608,note_off,,,,,64,0,7,,,,,0,,,76,100
128640,note_on,,,,,32,0,7,,,,,0,,,80,93
128832,note_on,,,,,320,0,11,,,,,4,,,52,79
128832,note_on,,,,,320,0,10,,,,,3,,,64,79
128832,note_on,,,,,0,0,12,,,,,5,,,71,100
128832,note_on,,,,,320,0,12,,,,,5,,,68,100
128832,note_on,,,,,320,0,13,,,,,5,,,64,100
128896,note_off,,,,,256,0,7,,,,,0,,,80,100
128960,note_off,,,,,0,0,12,,,,,5,,,71,100
128960,note_off,,,,,128,0,11,,,,,4,,,52,100
128960,note_off,,,,,128,0,10,,,,,3,,,64,100
128960,note_off,,,,,128,0,12,,,,,5,,,68,100
128960,note_off,,,,,128,0,13,,,,,5,,,64,100
129024,note_on,,,,,64,0,13,,,,,5,,,52,100
129024,note_on,,,,,64,0,11,,,,,4,,,40,80
129024,note_on,,,,,0,0,12,,,,,5,,,59,100
129024,note_on,,,,,64,0,12,,,,,5,,,68,100
129024,note_on,,,,,64,0,10,,,,,3,,,52,80
129120,note_on,,,,,224,0,7,,,,,0,,,71,97
129184,note_off,,,,,64,0,7,,,,,0,,,71,100
129216,note_on,,,,,32,0,7,,,,,0,,,76,97
129280,note_off,,,,,256,0,13,,,,,5,,,52,100
129280,note_off,,,,,256,0,10,,,,,3,,,52,100
129280,note_off,,,,,0,0,12,,,,,5,,,59,100
129280,note_off,,,,,256,0,11,,,,,4,,,40,100
129280,note_off,,,,,64,0,7,,,,,0,,,76,100
129280,note_off,,,,,256,0,12,,,,,5,,,68,100
129312,note_on,,,,,32,0,7,,,,,0,,,80,98
129376,note_off,,,,,64,0,7,,,,,0,,,80,100
129408,note_on,,,,,32,0,7,,,,,0,,,83,99
129600,note_on,,,,,0,0,12,,,,,5,,,71,100
129600,note_on,,,,,320,0,12,,,,,5,,,68,100
129600,note_on,,,,,320,0,11,,,,,4,,,52,82
129600,note_on,,,,,320,0,13,,,,,5,,,64,100
129600,note_on,,,,,320,0,10,,,,,3,,,64,82
129664,note_off,,,,,256,0,7,,,,,0,,,83,100
129728,note_off,,,,,128,0,13,,,,,5,,,64,100
129728,note_off,,,,,0,0,12,,,,,5,,,71,100
129728,note_off,,,,,128,0,11,,,,,4,,,52,100
129728,note_off,,,,,128,0,12,,,,,5,,,68,100
129728,note_off,,,,,128,0,10,,,,,3,,,64,100
129792,note_on,,,,,64,0,12,,,,,5,,,59,100
129792,note_on,,,,,0,0,12,,,,,5,,,68,100
129792,note_on,,,,,64,0,11,,,,,4,,,40,82
129792,note_on,,,,,64,0,13,,,,,5,,,52,100
129792,note_on,,,,,64,0,10,,,,,3,,,52,82
129888,note_on,,,,,224,0,7,,,,,0,,,76,102
129952,note_off,,,,,64,0,7,,,,,0,,,76,100
129984,note_on,,,,,32,0,7,,,,,0,,,80,103
130048,note_off,,,,,256,0,12,,,,,5,,,59,100
130048,note_off,,,,,256,0,10,,,,,3,,,52,100
130048,note_off,,,,,0,0,12,,,,,5,,,68,100
130048,note_off,,,,,256,0,11,,,,,4,,,40,100
130048,note_off,,,,,256,0,13,,,,,5,,,52,100
130048,note_off,,,,,64,0,7,,,,,0,,,80,100
130080,note_on,,,,,32,0,7,,,,,0,,,83,104
130144,note_off,,,,,64,0,7,,,,,0,,,83,100
130176,note_on,,,,,32,0,7,,,,,0,,,88,104
130368,note_on,,,,,320,0,13,,,,,5,,,64,100
130368,note_on,,,,,320,0,11,,,,,4,,,52,84
130368,note_on,,,,,320,0,12,,,,,5,,,68,100
130368,note_on,,,,,0,0,12,,,,,5,,,71,100
130368,note_on,,,,,320,0,10,,,,,3,,,64,84
130432,note_off,,,,,256,0,7,,,,,0,,,88,100
130496,note_off,,,,,128,0,13,,,,,5,,,64,100
130496,note_off,,,,,128,0,10,,,,,3,,,64,100
130496,note_off,,,,,128,0,12,,,,,5,,,68,100
130496,note_off,,,,,128,0,11,,,,,4,,,52,100
130496,note_off,,,,,0,0,12,,,,,5,,,71,100
130560,note_on,,,,,64,0,10,,,,,3,,,52,85
130560,note_on,,,,,64,0,13,,,,,5,,,52,100
130560,note_on,,,,,64,0,12,,,,,5,,,68,100
130560,note_on,,,,,0,0,12,,,,,5,,,59,100
130560,note_on,,,,,64,0,11,,,,,4,,,40,85
130656,note_on,,,,,224,0,7,,,,,0,,,76,100
130720,note_off,,,,,64,0,7,,,,,0,,,76,100
130752,note_on,,,,,32,0,7,,,,,0,,,80,100
130816,note_off,,,,,64,0,7,,,,,0,,,80,100
130816,note_off,,,,,256,0,11,,,,,4,,,40,100
130816,note_off,,,,,256,0,13,,,,,5,,,52,100
130816,note_off,,,,,256,0,10,,,,,3,,,52,100
130816,note_off,,,,,256,0,12,,,,,5,,,68,100
130816,note_off,,,,,0,0,12,,,,,5,,,59,100
130848,note_on,,,,,32,0,7,,,,,0,,,83,100
130912,note_off,,,,,64,0,7,,,,,0,,,83,100
130944,note_on,,,,,32,0,7,,,,,0,,,88,100
131008,note_off,,,,,64,0,7,,,,,0,,,88,100
131040,note_on,,,,,32,0,7,,,,,0,,,76,100
131104,note_off,,,,,64,0,7,,,,,0,,,76,100
131136,note_on,,,,,320,0,13,,,,,5,,,64,100
131136,note_on,,,,,320,0,10,,,,,3,,,64,85
131136,note_on,,,,,32,0,7,,,,,0,,,80,100
131136,note_on,,,,,320,0,11,,,,,4,,,52,85
131136,note_on,,,,,320,0,12,,,,,5,,,68,100
131136,note_on,,,,,0,0,12,,,,,5,,,71,100
131200,note_off,,,,,64,0,7,,,,,0,,,80,100
131232,note_on,,,,,32,0,7,,,,,0,,,83,100
131264,note_off,,,,,0,0,12,,,,,5,,,71,100
131264,note_off,,,,,128,0,12,,,,,5,,,68,100
131264,note_off,,,,,128,0,11,,,,,4,,,52,100
131264,note_off,,,,,128,0,10,,,,,3,,,64,100
131264,note_off,,,,,128,0,13,,,,,5,,,64,100
131296,note_off,,,,,64,0,7,,,,,0,,,83,100
131328,note_on,,,,,0,0,12,,,,,5,,,68,100
131328,note_on,,,,,64,0,10,,,,,3,,,52,85
131328,note_on,,,,,64,0,11,,,,,4,,,40,85
131328,note_on,,,,,64,0,13,,,,,5,,,52,100
131328,note_on,,,,,64,0,12,,,,,5,,,59,100
131328,note_on,,,,,32,0,7,,,,,0,,,88,100
131392,note_off,,,,,64,0,7,,,,,0,,,88,100
131424,note_on,,,,,32,0,7,,,,,0,,,76,95
131488,note_off,,,,,64,0,7,,,,,0,,,76,100
131520,note_on,,,,,32,0,7,,,,,0,,,80,92
131584,note_off,,,,,64,0,7,,,,,0,,,80,100
131584,note_off,,,,,0,0,12,,,,,5,,,68,100
131584,note_off,,,,,256,0,13,,,,,5,,,52,100
131584,note_off,,,,,256,0,10,,,,,3,,,52,100
131584,note_off,,,,,256,0,12,,,,,5,,,59,100
131584,note_off,,,,,256,0,11,,,,,4,,,40,100
131616,note_on,,,,,32,0,7,,,,,0,,,83,89
131680,note_off,,,,,64,0,7,,,,,0,,,83,100
131712,note_on,,,,,32,0,7,,,,,0,,,88,86
131776,note_off,,,,,64,0,7,,,,,0,,,88,100
131808,note_on,,,,,32,0,7,,,,,0,,,76,85
131872,note_off,,,,,64,0,7,,,,,0,,,76,100
131904,note_on,,,,,320,0,13,,,,,5,,,64,100
131904,note_on,,,,,32,0,7,,,,,0,,,80,88
131904,note_on,,,,,320,0,11,,,,,4,,,52,85
131904,note_on,,,,,320,0,10,,,,,3,,,64,85
131904,note_on,,,,,320,0,12,,,,,5,,,68,100
131904,note_on,,,,,0,0,12,,,,,5,,,71,100
131968,note_off,,,,,64,0,7,,,,,0,,,80,100
132000,note_on,,,,,32,0,7,,,,,0,,,83,91
132032,note_off,,,,,128,0,12,,,,,5,,,68,100
132032,note_off,,,,,0,0,12,,,,,5,,,71,100
132032,note_off,,,,,128,0,11,,,,,4,,,52,100
132032,note_off,,,,,128,0,13,,,,,5,,,64,100
132032,note_off,,,,,128,0,10,,,,,3,,,64,100
132064,note_off,,,,,64,0,7,,,,,0,,,83,100
132096,note_on,,,,,64,0,12,,,,,5,,,59,100
132096,note_on,,,,,0,0,12,,,,,5,,,68,100
132096,note_on,,,,,64,0,13,,,,,5,,,52,100
132096,note_on,,,,,64,0,10,,,,,3,,,52,85
132096,note_on,,,,,64,0,11,,,,,4,,,40,85
132096,note_on,,,,,32,0,7,,,,,0,,,88,94
132160,note_off,,,,,64,0,7,,,,,0,,,88,100
132192,note_on,,,,,32,0,7,,,,,0,,,76,100
132256,note_off,,,,,64,0,7,,,,,0,,,76,100
132288,note_on,,,,,32,0,7,,,,,0,,,80,100
132352,note_off,,,,,64,0,7,,,,,0,,,80,100
132352,note_off,,,,,256,0,13,,,,,5,,,52,100
132352,note_off,,,,,256,0,10,,,,,3,,,52,100
132352,note_off,,,,,256,0,11,,,,,4,,,40,100
132352,note_off,,,,,256,0,12,,,,,5,,,59,100
132352,note_off,,,,,0,0,12,,,,,5,,,68,100
132384,note_on,,,,,32,0,7,,,,,0,,,83,101
132448,note_off,,,,,64,0,7,,,,,0,,,83,100
132480,note_on,,,,,32,0,7,,,,,0,,,88,102
132544,note_off,,,,,64,0,7,,,,,0,,,88,100
132576,note_on,,,,,32,0,7,,,,,0,,,80,102
132640,note_off,,,,,64,0,7,,,,,0,,,80,100
132672,note_on,,,,,320,0,10,,,,,3,,,64,85
132672,note_on,,,,,32,0,7,,,,,0,,,83,103
132672,note_on,,,,,0,0,12,,,,,5,,,71,100
132672,note_on,,,,,320,0,11,,,,,4,,,52,85
132672,note_on,,,,,320,0,12,,,,,5,,,68,100
132672,note_on,,,,,320,0,13,,,,,5,,,64,100
132736,note_off,,,,,64,0,7,,,,,0,,,83,100
132768,note_on,,,,,32,0,7,,,,,0,,,88,104
132800,note_off,,,,,0,0,12,,,,,5,,,71,100
132800,note_off,,,,,128,0,12,,,,,5,,,68,100
132800,note_off,,,,,128,0,11,,,,,4,,,52,100
132800,note_off,,,,,128,0,10,,,,,3,,,64,100
132800,note_off,,,,,128,0,13,,,,,5,,,64,100
132832,note_off,,,,,64,0,7,,,,,0,,,88,100
132864,note_on,,,,,64,0,13,,,,,5,,,59,100
132864,note_on,,,,,0,0,12,,,,,5,,,75,100
132864,note_on,,,,,64,0,12,,,,,5,,,66,100
132864,note_on,,,,,0,0,12,,,,,5,,,71,100
132864,note_on,,,,,64,0,10,,,,,3,,,59,100
132864,note_on,,,,,20480,0,9,,,,,2,,,63,100
132864,note_on,,,,,64,0,11,,,,,4,,,47,100
132864,note_on,,,,,32,0,7,,,,,0,,,87,104
132992,note_off,,,,,128,0,7,,,,,0,,,87,100
132992,note_off,,,,,128,0,9,,,,,2,,,63,100
132992,note_off,,,,,128,0,12,,,,,5,,,71,100
132992,note_off,,,,,128,0,10,,,,,3,,,59,100
132992,note_off,,,,,128,0,13,,,,,5,,,59,100
132992,note_off,,,,,0,0,12,,,,,5,,,75,100
132992,note_off,,,,,128,0,11,,,,,4,,,47,100
133056,note_on,,,,,64,0,13,,,,,5,,,61,100
133056,note_on,,,,,64,0,10,,,,,3,,,61,100
133056,note_on,,,,,64,0,12,,,,,5,,,76,100
133056,note_on,,,,,64,0,11,,,,,4,,,49,100
133056,note_on,,,,,64,0,9,,,,,2,,,64,100
133056,note_on,,,,,64,0,7,,,,,0,,,83,100
133120,note_off,,,,,64,0,12,,,,,5,,,66,100
133184,note_off,,,,,128,0,11,,,,,4,,,49,100
133184,note_off,,,,,128,0,13,,,,,5,,,61,100
133184,note_off,,,,,128,0,10,,,,,3,,,61,100
133184,note_off,,,,,128,0,7,,,,,0,,,83,100
133184,note_off,,,,,128,0,9,,,,,2,,,64,100
133184,note_off,,,,,64,0,12,,,,,5,,,76,100
133248,note_on,,,,,64,0,10,,,,,3,,,63,100
133248,note_on,,,,,64,0,13,,,,,5,,,63,100
133248,note_on,,,,,64,0,9,,,,,2,,,66,100
133248,note_on,,,,,64,0,12,,,,,5,,,78,100
133248,note_on,,,,,64,0,11,,,,,4,,,51,100
133248,note_on,,,,,0,0,12,,,,,5,,,71,100
133344,note_on,,,,,20896,0,8,,,,,1,,,71,100
133376,note_off,,,,,128,0,12,,,,,5,,,71,100
133376,note_off,,,,,128,0,10,,,,,3,,,63,100
133376,note_off,,,,,128,0,13,,,,,5,,,63,100
133376,note_off,,,,,128,0,11,,,,,4,,,51,100
133376,note_off,,,,,128,0,9,,,,,2,,,66,100
133408,note_off,,,,,64,0,8,,,,,1,,,71,100
133440,note_on,,,,,64,0,11,,,,,4,,,47,100
133440,note_on,,,,,32,0,8,,,,,1,,,75,100
133440,note_on,,,,,64,0,10,,,,,3,,,59,100
133440,note_on,,,,,0,0,12,,,,,5,,,75,100
133440,note_on,,,,,64,0,12,,,,,5,,,71,100
133440,note_on,,,,,64,0,13,,,,,5,,,59,100
133440,note_on,,,,,64,0,9,,,,,2,,,63,100
133504,note_off,,,,,64,0,8,,,,,1,,,75,100
133504,note_off,,,,,64,0,12,,,,,5,,,78,100
133536,note_on,,,,,32,0,8,,,,,1,,,76,100
133568,note_off,,,,,128,0,13,,,,,5,,,59,100
133568,note_off,,,,,128,0,10,,,,,3,,,59,100
133568,note_off,,,,,0,0,12,,,,,5,,,75,100
133568,note_off,,,,,128,0,9,,,,,2,,,63,100
133568,note_off,,,,,64,0,12,,,,,5,,,71,100
133568,note_off,,,,,128,0,11,,,,,4,,,47,100
133600,note_off,,,,,64,0,8,,,,,1,,,76,100
133632,note_on,,,,,64,0,10,,,,,3,,,58,100
133632,note_on,,,,,64,0,13,,,,,5,,,58,100
133632,note_on,,,,,64,0,12,,,,,5,,,78,100
133632,note_on,,,,,0,0,12,,,,,5,,,73,100
133632,note_on,,,,,64,0,9,,,,,2,,,73,100
133632,note_on,,,,,0,0,12,,,,,5,,,70,100
133632,note_on,,,,,64,0,11,,,,,4,,,46,100
133632,note_on,,,,,32,0,8,,,,,1,,,78,100
133760,note_off,,,,,128,0,11,,,,,4,,,46,100
133760,note_off,,,,,128,0,10,,,,,3,,,58,100
133760,note_off,,,,,0,0,12,,,,,5,,,73,100
133760,note_off,,,,,128,0,9,,,,,2,,,73,100
133760,note_off,,,,,128,0,12,,,,,5,,,70,100
133760,note_off,,,,,128,0,8,,,,,1,,,78,100
133760,note_off,,,,,128,0,13,,,,,5,,,58,100
133824,note_on,,,,,64,0,11,,,,,4,,,44,100
133824,note_on,,,,,64,0,10,,,,,3,,,56,100
133824,note_on,,,,,64,0,9,,,,,2,,,71,100
133824,note_on,,,,,64,0,12,,,,,5,,,71,100
133824,note_on,,,,,64,0,8,,,,,1,,,78,100
133824,note_on,,,,,64,0,13,,,,,5,,,56,100
133888,note_off,,,,,64,0,12,,,,,5,,,78,100
133952,note_off,,,,,128,0,8,,,,,1,,,78,100
133952,note_off,,,,,128,0,13,,,,,5,,,56,100
133952,note_off,,,,,128,0,10,,,,,3,,,56,100
133952,note_off,,,,,128,0,11,,,,,4,,,44,100
133952,note_off,,,,,64,0,12,,,,,5,,,71,100
133952,note_off,,,,,128,0,9,,,,,2,,,71,100
134016,note_on,,,,,64,0,11,,,,,4,,,46,100
134016,note_on,,,,,64,0,8,,,,,1,,,78,100
134016,note_on,,,,,64,0,13,,,,,5,,,58,100
134016,note_on,,,,,0,0,12,,,,,5,,,78,100
134016,note_on,,,,,64,0,9,,,,,2,,,73,100
134016,note_on,,,,,64,0,10,,,,,3,,,58,100
134016,note_on,,,,,64,0,12,,,,,5,,,73,100
134144,note_off,,,,,128,0,13,,,,,5,,,58,100
134144,note_off,,,,,128,0,9,,,,,2,,,73,100
134144,note_off,,,,,128,0,8,,,,,1,,,78,100
134144,note_off,,,,,128,0,11,,,,,4,,,46,100
134144,note_off,,,,,128,0,12,,,,,5,,,73,100
134144,note_off,,,,,128,0,10,,,,,3,,,58,100
134208,note_on,,,,,64,0,9,,,,,2,,,70,100
134208,note_on,,,,,64,0,8,,,,,1,,,78,100
134208,note_on,,,,,64,0,10,,,,,3,,,54,100
134208,note_on,,,,,64,0,11,,,,,4,,,42,100
134208,note_on,,,,,0,0,12,,,,,5,,,73,100
134208,note_on,,,,,64,0,12,,,,,5,,,70,100
134208,note_on,,,,,64,0,13,,,,,5,,,54,100
134272,note_off,,,,,64,0,12,,,,,5,,,78,100
134336,note_off,,,,,128,0,8,,,,,1,,,78,100
134336,note_off,,,,,128,0,9,,,,,2,,,70,100
134336,note_off,,,,,128,0,10,,,,,3,,,54,100
134336,note_off,,,,,128,0,11,,,,,4,,,42,100
134336,note_off,,,,,0,0,12,,,,,5,,,73,100
134336,note_off,,,,,64,0,12,,,,,5,,,70,100
134336,note_off,,,,,128,0,13,,,,,5,,,54,100
134400,note_on,,,,,64,0,11,,,,,4,,,47,100
134400,note_on,,,,,0,0,12,,,,,5,,,75,100
134400,note_on,,,,,0,0,12,,,,,5,,,78,100
134400,note_on,,,,,64,0,12,,,,,5,,,71,100
134400,note_on,,,,,64,0,8,,,,,1,,,75,100
134400,note_on,,,,,64,0,10,,,,,3,,,59,100
134400,note_on,,,,,64,0,13,,,,,5,,,59,100
134400,note_on,,,,,64,0,9,,,,,2,,,66,100
134528,note_off,,,,,128,0,9,,,,,2,,,66,100
134528,note_off,,,,,128,0,8,,,,,1,,,75,100
134528,note_off,,,,,128,0,12,,,,,5,,,71,100
134528,note_off,,,,,128,0,13,,,,,5,,,59,100
134528,note_off,,,,,128,0,10,,,,,3,,,59,100
134528,note_off,,,,,0,0,12,,,,,5,,,75,100
134528,note_off,,,,,128,0,11,,,,,4,,,47,100
134592,note_on,,,,,64,0,10,,,,,3,,,61,100
134592,note_on,,,,,64,0,12,,,,,5,,,76,100
134592,note_on,,,,,64,0,13,,,,,5,,,61,100
134592,note_on,,,,,64,0,11,,,,,4,,,49,100
134592,note_on,,,,,64,0,8,,,,,1,,,71,100
134592,note_on,,,,,64,0,9,,,,,2,,,64,100
134656,note_off,,,,,64,0,12,,,,,5,,,78,100
134720,note_off,,,,,128,0,11,,,,,4,,,49,100
134720,note_off,,,,,64,0,12,,,,,5,,,76,100
134720,note_off,,,,,128,0,10,,,,,3,,,61,100
134720,note_off,,,,,128,0,13,,,,,5,,,61,100
134720,note_off,,,,,128,0,8,,,,,1,,,71,100
134720,note_off,,,,,128,0,9,,,,,2,,,64,100
134784,note_on,,,,,64,0,11,,,,,4,,,51,100
134784,note_on,,,,,64,0,10,,,,,3,,,63,100
134784,note_on,,,,,64,0,9,,,,,2,,,66,100
134784,note_on,,,,,64,0,12,,,,,5,,,78,100
134784,note_on,,,,,64,0,13,,,,,5,,,63,100
134784,note_on,,,,,0,0,12,,,,,5,,,71,100
134880,note_on,,,,,160,0,8,,,,,1,,,71,100
134912,note_off,,,,,128,0,10,,,,,3,,,63,100
134912,note_off,,,,,128,0,9,,,,,2,,,66,100
134912,note_off,,,,,128,0,13,,,,,5,,,63,100
134912,note_off,,,,,128,0,12,,,,,5,,,71,100
134912,note_off,,,,,128,0,11,,,,,4,,,51,100
134944,note_off,,,,,64,0,8,,,,,1,,,71,100
134976,note_on,,,,,64,0,12,,,,,5,,,71,100
134976,note_on,,,,,0,0,12,,,,,5,,,75,100
134976,note_on,,,,,64,0,9,,,,,2,,,63,100
134976,note_on,,,,,32,0,8,,,,,1,,,75,100
134976,note_on,,,,,64,0,13,,,,,5,,,59,100
134976,note_on,,,,,64,0,10,,,,,3,,,59,100
134976,note_on,,,,,64,0,11,,,,,4,,,47,100
135040,note_off,,,,,64,0,12,,,,,5,,,78,100
135040,note_off,,,,,64,0,8,,,,,1,,,75,100
135072,note_on,,,,,32,0,8,,,,,1,,,78,100
135104,note_off,,,,,128,0,9,,,,,2,,,63,100
135104,note_off,,,,,128,0,13,,,,,5,,,59,100
135104,note_off,,,,,128,0,11,,,,,4,,,47,100
135104,note_off,,,,,64,0,12,,,,,5,,,71,100
135104,note_off,,,,,0,0,12,,,,,5,,,75,100
135104,note_off,,,,,128,0,10,,,,,3,,,59,100
135136,note_off,,,,,64,0,8,,,,,1,,,78,100
135168,note_on,,,,,64,0,13,,,,,5,,,47,100
135168,note_on,,,,,64,0,11,,,,,4,,,35,100
135168,note_on,,,,,64,0,12,,,,,5,,,71,100
135168,note_on,,,,,0,0,12,,,,,5,,,66,100
135168,note_on,,,,,0,0,12,,,,,5,,,75,100
135168,note_on,,,,,64,0,9,,,,,2,,,66,100
135168,note_on,,,,,64,0,10,,,,,3,,,47,100
135168,note_on,,,,,32,0,8,,,,,1,,,81,100
135296,note_off,,,,,128,0,8,,,,,1,,,81,100
135296,note_off,,,,,128,0,10,,,,,3,,,47,100
135296,note_off,,,,,128,0,13,,,,,5,,,47,100
135296,note_off,,,,,128,0,9,,,,,2,,,66,100
135296,note_off,,,,,128,0,11,,,,,4,,,35,100
135296,note_off,,,,,128,0,12,,,,,5,,,75,100
135360,note_on,,,,,64,0,10,,,,,3,,,49,100
135360,note_on,,,,,64,0,9,,,,,2,,,64,100
135360,note_on,,,,,64,0,11,,,,,4,,,37,100
135360,note_on,,,,,64,0,12,,,,,5,,,64,100
135360,note_on,,,,,64,0,13,,,,,5,,,49,100
135360,note_on,,,,,64,0,8,,,,,1,,,81,100
135424,note_off,,,,,0,0,12,,,,,5,,,66,100
135424,note_off,,,,,64,0,12,,,,,5,,,71,100
135488,note_off,,,,,128,0,9,,,,,2,,,64,100
135488,note_off,,,,,64,0,12,,,,,5,,,64,100
135488,note_off,,,,,128,0,13,,,,,5,,,49,100
135488,note_off,,,,,128,0,10,,,,,3,,,49,100
135488,note_off,,,,,128,0,11,,,,,4,,,37,100
135488,note_off,,,,,128,0,8,,,,,1,,,81,100
135552,note_on,,,,,64,0,8,,,,,1,,,81,100
135552,note_on,,,,,64,0,10,,,,,3,,,51,100
135552,note_on,,,,,64,0,11,,,,,4,,,39,100
135552,note_on,,,,,0,0,12,,,,,5,,,66,100
135552,note_on,,,,,64,0,12,,,,,5,,,71,100
135552,note_on,,,,,64,0,13,,,,,5,,,51,100
135552,note_on,,,,,64,0,9,,,,,2,,,66,100
135680,note_off,,,,,128,0,10,,,,,3,,,51,100
135680,note_off,,,,,128,0,8,,,,,1,,,81,100
135680,note_off,,,,,128,0,13,,,,,5,,,51,100
135680,note_off,,,,,128,0,11,,,,,4,,,39,100
135680,note_off,,,,,128,0,9,,,,,2,,,66,100
135744,note_on,,,,,64,0,13,,,,,5,,,47,100
135744,note_on,,,,,192,0,12,,,,,5,,,63,100
135744,note_on,,,,,64,0,8,,,,,1,,,81,100
135744,note_on,,,,,64,0,9,,,,,2,,,63,100
135744,note_on,,,,,64,0,11,,,,,4,,,35,100
135744,note_on,,,,,64,0,10,,,,,3,,,47,100
135808,note_off,,,,,64,0,12,,,,,5,,,71,100
135808,note_off,,,,,0,0,12,,,,,5,,,66,100
135872,note_off,,,,,128,0,9,,,,,2,,,63,100
135872,note_off,,,,,128,0,10,,,,,3,,,47,100
135872,note_off,,,,,128,0,13,,,,,5,,,47,100
135872,note_off,,,,,64,0,12,,,,,5,,,63,100
135872,note_off,,,,,128,0,11,,,,,4,,,35,100
135872,note_off,,,,,128,0,8,,,,,1,,,81,100
135936,note_on,,,,,64,0,10,,,,,3,,,59,100
135936,note_on,,,,,64,0,13,,,,,5,,,59,100
135936,note_on,,,,,64,0,9,,,,,2,,,66,100
135936,note_on,,,,,64,0,12,,,,,5,,,66,100
135936,note_on,,,,,64,0,11,,,,,4,,,47,100
135936,note_on,,,,,0,0,12,,,,,5,,,71,100
135936,note_on,,,,,0,0,12,,,,,5,,,75,100
135936,note_on,,,,,64,0,8,,,,,1,,,75,100
136064,note_off,,,,,128,0,8,,,,,1,,,75,100
136064,note_off,,,,,128,0,10,,,,,3,,,59,100
136064,note_off,,,,,128,0,11,,,,,4,,,47,100
136064,note_off,,,,,128,0,13,,,,,5,,,59,100
136064,note_off,,,,,128,0,12,,,,,5,,,71,100
136064,note_off,,,,,128,0,9,,,,,2,,,66,100
136064,note_off,,,,,0,0,12,,,,,5,,,75,100
136128,note_on,,,,,64,0,9,,,,,2,,,64,100
136128,note_on,,,,,64,0,12,,,,,5,,,76,100
136128,note_on,,,,,64,0,13,,,,,5,,,61,100
136128,note_on,,,,,64,0,10,,,,,3,,,61,100
136128,note_on,,,,,64,0,11,,,,,4,,,49,100
136128,note_on,,,,,64,0,8,,,,,1,,,71,100
136192,note_off,,,,,64,0,12,,,,,5,,,66,100
136256,note_off,,,,,128,0,8,,,,,1,,,71,100
136256,note_off,,,,,128,0,13,,,,,5,,,61,100
136256,note_off,,,,,128,0,11,,,,,4,,,49,100
136256,note_off,,,,,64,0,12,,,,,5,,,76,100
136256,note_off,,,,,128,0,9,,,,,2,,,64,100
136256,note_off,,,,,128,0,10,,,,,3,,,61,100
136320,note_on,,,,,64,0,12,,,,,5,,,78,100
136320,note_on,,,,,0,0,12,,,,,5,,,71,100
136320,note_on,,,,,64,0,13,,,,,5,,,63,100
136320,note_on,,,,,64,0,11,,,,,4,,,51,100
136320,note_on,,,,,64,0,9,,,,,2,,,66,100
136320,note_on,,,,,64,0,10,,,,,3,,,63,100
136416,note_on,,,,,160,0,8,,,,,1,,,71,100
136448,note_off,,,,,128,0,11,,,,,4,,,51,100
136448,note_off,,,,,128,0,12,,,,,5,,,71,100
136448,note_off,,,,,128,0,10,,,,,3,,,63,100
136448,note_off,,,,,128,0,9,,,,,2,,,66,100
136448,note_off,,,,,128,0,13,,,,,5,,,63,100
136480,note_off,,,,,64,0,8,,,,,1,,,71,100
136512,note_on,,,,,64,0,13,,,,,5,,,59,100
136512,note_on,,,,,64,0,9,,,,,2,,,71,100
136512,note_on,,,,,64,0,12,,,,,5,,,75,100
136512,note_on,,,,,32,0,8,,,,,1,,,75,100
136512,note_on,,,,,64,0,10,,,,,3,,,59,100
136512,note_on,,,,,64,0,11,,,,,4,,,47,100
136576,note_off,,,,,64,0,8,,,,,1,,,75,100
136576,note_off,,,,,64,0,12,,,,,5,,,78,100
136608,note_on,,,,,32,0,8,,,,,1,,,78,100
136640,note_off,,,,,128,0,9,,,,,2,,,71,100
136640,note_off,,,,,128,0,10,,,,,3,,,59,100
136640,note_off,,,,,64,0,12,,,,,5,,,75,100
136640,note_off,,,,,128,0,11,,,,,4,,,47,100
136640,note_off,,,,,128,0,13,,,,,5,,,59,100
136672,note_off,,,,,64,0,8,,,,,1,,,78,100
136704,note_on,,,,,32,0,8,,,,,1,,,80,100
136704,note_on,,,,,64,0,12,,,,,5,,,71,100
136704,note_on,,,,,0,0,12,,,,,5,,,68,100
136704,note_on,,,,,64,0,13,,,,,5,,,52,100
136704,note_on,,,,,64,0,11,,,,,4,,,40,100
136704,note_on,,,,,64,0,9,,,,,2,,,71,100
136704,note_on,,,,,64,0,10,,,,,3,,,52,100
136832,note_off,,,,,128,0,12,,,,,5,,,71,100
136832,note_off,,,,,128,0,9,,,,,2,,,71,100
136832,note_off,,,,,128,0,8,,,,,1,,,80,100
136896,note_on,,,,,64,0,9,,,,,2,,,69,100
136896,note_on,,,,,64,0,8,,,,,1,,,78,100
136896,note_on,,,,,64,0,12,,,,,5,,,73,100
136960,note_off,,,,,256,0,13,,,,,5,,,52,100
136960,note_off,,,,,64,0,9,,,,,2,,,69,100
136960,note_off,,,,,256,0,11,,,,,4,,,40,100
136960,note_off,,,,,64,0,12,,,,,5,,,68,100
136960,note_off,,,,,64,0,8,,,,,1,,,78,100
136960,note_off,,,,,256,0,10,,,,,3,,,52,100
136992,note_on,,,,,32,0,8,,,,,1,,,76,100
136992,note_on,,,,,32,0,9,,,,,2,,,68,100
137024,note_off,,,,,64,0,12,,,,,5,,,73,100
137056,note_off,,,,,64,0,9,,,,,2,,,68,100
137056,note_off,,,,,64,0,8,,,,,1,,,76,100
137088,note_on,,,,,128,0,10,,,,,3,,,54,100
137088,note_on,,,,,0,0,12,,,,,5,,,69,100
137088,note_on,,,,,64,0,12,,,,,5,,,73,100
137088,note_on,,,,,128,0,13,,,,,5,,,54,100
137088,note_on,,,,,32,0,9,,,,,2,,,73,100
137088,note_on,,,,,32,0,8,,,,,1,,,81,100
137088,note_on,,,,,128,0,11,,,,,4,,,42,100
137216,note_off,,,,,128,0,8,,,,,1,,,81,100
137216,note_off,,,,,128,0,9,,,,,2,,,73,100
137216,note_off,,,,,128,0,12,,,,,5,,,73,100
137280,note_on,,,,,64,0,8,,,,,1,,,80,100
137280,note_on,,,,,64,0,9,,,,,2,,,71,100
137280,set_tempo,,,,,135744,1,0,,555555,,,,,,,
137280,note_on,,,,,64,0,12,,,,,5,,,75,100
137336,set_tempo,,,,,56,1,0,,560747,,,,,,,
137344,note_off,,,,,256,0,13,,,,,5,,,54,100
137344,note_off,,,,,256,0,10,,,,,3,,,54,100
137344,note_off,,,,,64,0,8,,,,,1,,,80,100
137344,note_off,,,,,256,0,11,,,,,4,,,42,100
137344,note_off,,,,,64,0,9,,,,,2,,,71,100
137344,note_off,,,,,64,0,12,,,,,5,,,69,100
137376,note_on,,,,,32,0,8,,,,,1,,,78,100
137376,note_on,,,,,32,0,9,,,,,2,,,69,100
137392,set_tempo,,,,,56,1,0,,566037,,,,,,,
137408,note_off,,,,,64,0,12,,,,,5,,,75,100
137440,note_off,,,,,64,0,8,,,,,1,,,78,100
137440,note_off,,,,,64,0,9,,,,,2,,,69,100
137452,set_tempo,,,,,60,1,0,,571428,,,,,,,
137472,note_on,,,,,128,0,10,,,,,3,,,56,100
137472,note_on,,,,,64,0,12,,,,,5,,,71,100
137472,note_on,,,,,128,0,13,,,,,5,,,56,100
137472,note_on,,,,,32,0,8,,,,,1,,,83,100
137472,note_on,,,,,32,0,9,,,,,2,,,75,100
137472,note_on,,,,,0,0,12,,,,,5,,,75,100
137472,note_on,,,,,128,0,11,,,,,4,,,44,100
137508,set_tempo,,,,,56,1,0,,576923,,,,,,,
137536,note_off,,,,,64,0,9,,,,,2,,,75,100
137568,note_on,,,,,32,0,9,,,,,2,,,73,100
137568,set_tempo,,,,,60,1,0,,582524,,,,,,,
137600,note_off,,,,,128,0,13,,,,,5,,,56,100
137600,note_off,,,,,128,0,10,,,,,3,,,56,100
137600,note_off,,,,,128,0,12,,,,,5,,,71,100
137600,note_off,,,,,128,0,8,,,,,1,,,83,100
137600,note_off,,,,,128,0,11,,,,,4,,,44,100
137600,note_off,,,,,0,0,12,,,,,5,,,75,100
137624,set_tempo,,,,,56,1,0,,588235,,,,,,,
137632,note_off,,,,,64,0,9,,,,,2,,,73,100
137664,note_on,,,,,32,0,9,,,,,2,,,71,100
137664,note_on,,,,,64,0,11,,,,,4,,,47,100
137664,note_on,,,,,64,0,10,,,,,3,,,59,100
137664,note_on,,,,,0,0,12,,,,,5,,,75,100
137664,note_on,,,,,64,0,8,,,,,1,,,75,100
137664,note_on,,,,,64,0,13,,,,,5,,,59,100
137664,note_on,,,,,64,0,12,,,,,5,,,66,100
137680,set_tempo,,,,,56,1,0,,594059,,,,,,,
137728,note_off,,,,,64,0,9,,,,,2,,,71,100
137740,set_tempo,,,,,60,1,0,,600000,,,,,,,
137760,note_on,,,,,32,0,9,,,,,2,,,69,100
137792,note_off,,,,,128,0,10,,,,,3,,,59,100
137792,note_off,,,,,128,0,8,,,,,1,,,75,100
137792,note_off,,,,,0,0,12,,,,,5,,,75,100
137792,note_off,,,,,128,0,12,,,,,5,,,66,100
137792,note_off,,,,,128,0,11,,,,,4,,,47,100
137792,note_off,,,,,128,0,13,,,,,5,,,59,100
137796,set_tempo,,,,,56,1,0,,606060,,,,,,,
137824,note_off,,,,,64,0,9,,,,,2,,,69,100
137856,note_on,,,,,0,0,12,,,,,5,,,76,100
137856,note_on,,,,,64,0,12,,,,,5,,,68,100
137856,note_on,,,,,64,0,11,,,,,4,,,49,100
137856,note_on,,,,,64,0,10,,,,,3,,,61,100
137856,note_on,,,,,32,0,9,,,,,2,,,68,100
137856,note_on,,,,,64,0,8,,,,,1,,,76,100
137856,set_tempo,,,,,60,1,0,,612244,,,,,,,
137856,note_on,,,,,64,0,13,,,,,5,,,61,100
137912,set_tempo,,,,,56,1,0,,618556,,,,,,,
137968,set_tempo,,,,,56,1,0,,625000,,,,,,,
137984,note_off,,,,,128,0,9,,,,,2,,,68,100
137984,note_off,,,,,128,0,13,,,,,5,,,61,100
137984,note_off,,,,,128,0,10,,,,,3,,,61,100
137984,note_off,,,,,128,0,11,,,,,4,,,49,100
137984,note_off,,,,,128,0,8,,,,,1,,,76,100
137984,note_off,,,,,128,0,12,,,,,5,,,68,100
137984,note_off,,,,,0,0,12,,,,,5,,,76,100
138028,set_tempo,,,,,60,1,0,,631578,,,,,,,
138048,note_on,,,,,64,0,9,,,,,2,,,64,100
138048,note_on,,,,,64,0,8,,,,,1,,,68,100
138048,note_on,,,,,0,0,12,,,,,5,,,71,100
138048,note_on,,,,,64,0,12,,,,,5,,,68,100
138048,note_on,,,,,64,0,10,,,,,3,,,49,100
138048,note_on,,,,,64,0,13,,,,,5,,,49,100
138048,note_on,,,,,64,0,11,,,,,4,,,37,100
138084,set_tempo,,,,,56,1,0,,638297,,,,,,,
138144,set_tempo,,,,,60,1,0,,645161,,,,,,,
138176,note_off,,,,,128,0,13,,,,,5,,,49,100
138176,note_off,,,,,0,0,12,,,,,5,,,71,100
138176,note_off,,,,,128,0,12,,,,,5,,,68,100
138176,note_off,,,,,128,0,9,,,,,2,,,64,100
138176,note_off,,,,,128,0,11,,,,,4,,,37,100
138176,note_off,,,,,128,0,10,,,,,3,,,49,100
138176,note_off,,,,,128,0,8,,,,,1,,,68,100
138200,set_tempo,,,,,56,1,0,,652173,,,,,,,
138240,set_tempo,,,,,40,1,0,,800000,,,,,,,
138240,note_on,,,,,64,0,11,,,,,4,,,42,100
138240,note_on,,,,,64,0,12,,,,,5,,,61,100
138240,note_on,,,,,0,0,12,,,,,5,,,64,100
138240,note_on,,,,,0,0,12,,,,,5,,,69,100
138240,note_on,,,,,64,0,8,,,,,1,,,69,100
138240,note_on,,,,,64,0,13,,,,,5,,,54,100
138240,note_on,,,,,64,0,9,,,,,2,,,61,100
138240,note_on,,,,,64,0,10,,,,,3,,,54,100
138256,set_tempo,,,,,16,1,0,,659340,,,,,,,
138316,set_tempo,,,,,60,1,0,,666666,,,,,,,
138368,note_off,,,,,128,0,8,,,,,1,,,69,100
138368,note_off,,,,,128,0,9,,,,,2,,,61,100
138368,note_off,,,,,128,0,11,,,,,4,,,42,100
138368,note_off,,,,,0,0,12,,,,,5,,,69,100
138368,note_off,,,,,0,0,12,,,,,5,,,64,100
138368,note_off,,,,,128,0,12,,,,,5,,,61,100
138368,note_off,,,,,128,0,13,,,,,5,,,54,100
138368,note_off,,,,,128,0,10,,,,,3,,,54,100
138372,set_tempo,,,,,56,1,0,,674157,,,,,,,
138432,note_on,,,,,64,0,9,,,,,2,,,68,100
138432,set_tempo,,,,,60,1,0,,681818,,,,,,,
138432,note_on,,,,,64,0,13,,,,,5,,,56,100
138432,note_on,,,,,64,0,12,,,,,5,,,71,100
138432,note_on,,,,,64,0,10,,,,,3,,,56,100
138432,note_on,,,,,64,0,8,,,,,1,,,76,100
138432,note_on,,,,,64,0,11,,,,,4,,,44,100
138488,set_tempo,,,,,56,1,0,,689655,,,,,,,
138496,note_off,,,,,64,0,10,,,,,3,,,56,100
138496,note_off,,,,,64,0,13,,,,,5,,,56,100
138496,note_off,,,,,64,0,12,,,,,5,,,71,100
138496,note_off,,,,,64,0,11,,,,,4,,,44,100
138528,note_on,,,,,32,0,11,,,,,4,,,45,100
138528,note_on,,,,,32,0,13,,,,,5,,,57,100
138528,note_on,,,,,32,0,10,,,,,3,,,57,100
138528,note_on,,,,,32,0,12,,,,,5,,,73,100
138544,set_tempo,,,,,56,1,0,,697674,,,,,,,
138560,note_off,,,,,128,0,9,,,,,2,,,68,100
138560,note_off,,,,,128,0,8,,,,,1,,,76,100
138592,note_off,,,,,64,0,11,,,,,4,,,45,100
138592,note_off,,,,,64,0,10,,,,,3,,,57,100
138592,note_off,,,,,64,0,12,,,,,5,,,73,100
138592,note_off,,,,,64,0,13,,,,,5,,,57,100
138604,set_tempo,,,,,60,1,0,,705882,,,,,,,
138624,note_on,,,,,32,0,11,,,,,4,,,47,100
138624,note_on,,,,,0,0,12,,,,,5,,,66,100
138624,note_on,,,,,32,0,12,,,,,5,,,64,100
138624,note_on,,,,,32,0,10,,,,,3,,,59,100
138624,note_on,,,,,0,0,12,,,,,5,,,71,100
138624,note_on,,,,,32,0,13,,,,,5,,,59,100
138624,note_on,,,,,64,0,9,,,,,2,,,66,100
138624,note_on,,,,,64,0,8,,,,,1,,,59,100
138624,set_tempo,,,,,20,1,0,,714285,,,,,,,
138640,set_tempo,,,,,16,1,0,,722891,,,,,,,
138660,set_tempo,,,,,20,1,0,,731707,,,,,,,
138680,set_tempo,,,,,20,1,0,,740740,,,,,,,
138700,set_tempo,,,,,20,1,0,,750000,,,,,,,
138720,set_tempo,,,,,20,1,0,,759493,,,,,,,
138736,set_tempo,,,,,16,1,0,,769230,,,,,,,
138752,note_off,,,,,128,0,11,,,,,4,,,47,100
138752,note_off,,,,,128,0,8,,,,,1,,,59,100
138752,note_off,,,,,128,0,10,,,,,3,,,59,100
138752,note_off,,,,,128,0,13,,,,,5,,,59,100
138752,note_off,,,,,128,0,9,,,,,2,,,66,100
138752,note_off,,,,,128,0,12,,,,,5,,,64,100
138756,set_tempo,,,,,20,1,0,,779220,,,,,,,
138776,set_tempo,,,,,20,1,0,,789473,,,,,,,
138796,set_tempo,,,,,20,1,0,,800000,,,,,,,
138816,note_on,,,,,64,0,11,,,,,4,,,35,100
138816,note_on,,,,,64,0,12,,,,,5,,,63,100
138816,note_on,,,,,64,0,8,,,,,1,,,75,100
138816,note_on,,,,,64,0,9,,,,,2,,,71,100
138816,set_tempo,,,,,20,1,0,,833333,,,,,,,
138816,note_on,,,,,64,0,13,,,,,5,,,47,100
138816,note_on,,,,,64,0,10,,,,,3,,,47,100
138824,set_tempo,,,,,8,1,0,,845070,,,,,,,
138832,set_tempo,,,,,8,1,0,,857142,,,,,,,
138840,set_tempo,,,,,8,1,0,,869565,,,,,,,
138848,set_tempo,,,,,8,1,0,,882352,,,,,,,
138856,set_tempo,,,,,8,1,0,,895522,,,,,,,
138868,set_tempo,,,,,12,1,0,,909090,,,,,,,
138876,set_tempo,,,,,8,1,0,,923076,,,,,,,
138880,note_off,,,,,0,0,12,,,,,5,,,71,100
138880,note_off,,,,,64,0,12,,,,,5,,,66,100
138884,set_tempo,,,,,8,1,0,,937500,,,,,,,
138892,set_tempo,,,,,8,1,0,,952380,,,,,,,
138900,set_tempo,,,,,8,1,0,,967741,,,,,,,
138912,set_tempo,,,,,12,1,0,,983606,,,,,,,
138920,set_tempo,,,,,8,1,0,,1000000,,,,,,,
138928,set_tempo,,,,,8,1,0,,1016949,,,,,,,
138936,set_tempo,,,,,8,1,0,,1034482,,,,,,,
138944,note_off,,,,,128,0,10,,,,,3,,,47,100
138944,note_off,,,,,128,0,13,,,,,5,,,47,100
138944,note_off,,,,,128,0,8,,,,,1,,,75,100
138944,note_off,,,,,64,0,12,,,,,5,,,63,100
138944,note_off,,,,,128,0,11,,,,,4,,,35,100
138944,note_off,,,,,128,0,9,,,,,2,,,71,100
138944,set_tempo,,,,,8,1,0,,1052631,,,,,,,
138952,set_tempo,,,,,8,1,0,,1071428,,,,,,,
138964,set_tempo,,,,,12,1,0,,1090909,,,,,,,
138972,set_tempo,,,,,8,1,0,,1111111,,,,,,,
138980,set_tempo,,,,,8,1,0,,1132075,,,,,,,
138988,set_tempo,,,,,8,1,0,,1153846,,,,,,,
138996,set_tempo,,,,,8,1,0,,1176470,,,,,,,
139008,note_on,,,,,64,0,13,,,,,5,,,40,100
139008,note_on,,,,,64,0,9,,,,,2,,,68,100
139008,set_tempo,,,,,12,1,0,,1333333,,,,,,,
139008,note_on,,,,,64,0,10,,,,,3,,,40,100
139008,note_on,,,,,64,0,8,,,,,1,,,76,100
139008,end_of_track,,,,,0,1,0,,,,,,,,,
139008,note_on,,,,,64,0,11,,,,,4,,,40,100
139036,note_on,,,,,92,0,12,,,,,5,,,59,100
139068,note_on,,,,,32,0,12,,,,,5,,,64,100
139100,note_on,,,,,32,0,12,,,,,5,,,68,100
139520,end_of_track,,,,,0,1,13,,,,,,,,,
139520,note_off,,,,,512,0,8,,,,,1,,,76,100
139520,end_of_track,,,,,0,1,8,,,,,,,,,
139520,note_off,,,,,512,0,9,,,,,2,,,68,100
139520,end_of_track,,,,,0,1,9,,,,,,,,,
139520,note_off,,,,,512,0,13,,,,,5,,,40,100
139520,note_off,,,,,512,0,10,,,,,3,,,40,100
139520,end_of_track,,,,,0,1,10,,,,,,,,,
139520,note_off,,,,,512,0,11,,,,,4,,,40,100
139520,end_of_track,,,,,0,1,11,,,,,,,,,
139548,note_off,,,,,448,0,12,,,,,5,,,59,100
139580,note_off,,,,,32,0,12,,,,,5,,,64,100
139612,end_of_track,,,,,0,1,12,,,,,,,,,
139612,note_off,,,,,32,0,12,,,,,5,,,68,100
140544,end_of_track,,,,,0,1,7,,,,,,,,,
140544,program_change,,,,,7360,0,7,,,,,0,40,,,
