tick,type,numerator,denominator,clocks_per_click,notated_32nd_notes_per_beat,time,meta,track,data,tempo,control,value,channel,program,key,note,velocity
0,time_signature,3,4,96,8,0,1,0,,,,,,,,,
0,note_on,,,,,0,0,15,,,,,7,,,63,100
0,key_signature,,,,,0,1,15,,,,,,,Bm,,
0,control_change,,,,,0,0,15,,,91,64,7,,,,
0,control_change,,,,,0,0,15,,,7,55,7,,,,
0,program_change,,,,,0,0,15,,,,,7,6,,,
0,control_change,,,,,0,0,15,,,0,0,7,,,,
0,track_name,,,,,0,1,15,,,,,,,,,
0,note_on,,,,,0,0,14,,,,,6,,,35,70
0,key_signature,,,,,0,1,14,,,,,,,Bm,,
0,control_change,,,,,0,0,14,,,91,65,6,,,,
0,control_change,,,,,0,0,14,,,10,90,6,,,,
0,track_name,,,,,0,1,9,,,,,,,,,
0,program_change,,,,,0,0,9,,,,,1,48,,,
0,control_change,,,,,0,0,9,,,7,100,1,,,,
0,control_change,,,,,0,0,9,,,10,51,1,,,,
0,control_change,,,,,0,0,9,,,91,69,1,,,,
0,key_signature,,,,,0,1,9,,,,,,,Bm,,
0,note_on,,,,,0,0,9,,,,,1,,,78,70
0,control_change,,,,,0,0,14,,,7,85,6,,,,
0,program_change,,,,,0,0,14,,,,,6,48,,,
0,control_change,,,,,0,0,14,,,0,0,6,,,,
0,track_name,,,,,0,1,14,,,,,,,,,
0,note_on,,,,,0,0,8,,,,,0,,,81,70
0,key_signature,,,,,0,1,8,,,,,,,Bm,,
0,control_change,,,,,0,0,8,,,91,64,0,,,,
0,control_change,,,,,0,0,8,,,10,58,0,,,,
0,control_change,,,,,0,0,8,,,7,100,0,,,,
0,note_on,,,,,0,0,15,,,,,7,,,69,100
0,track_name,,,,,0,1,16,,,,,,,,,
0,control_change,,,,,0,0,16,,,0,0,7,,,,
0,program_change,,,,,0,0,16,,,,,7,6,,,
0,note_on,,,,,0,0,12,,,,,4,,,71,70
0,note_on,,,,,0,0,12,,,,,4,,,75,70
0,key_signature,,,,,0,1,12,,,,,,,Bm,,
0,control_change,,,,,0,0,12,,,91,65,4,,,,
0,control_change,,,,,0,0,12,,,7,95,4,,,,
0,program_change,,,,,0,0,12,,,,,4,48,,,
0,control_change,,,,,0,0,12,,,0,0,4,,,,
0,track_name,,,,,0,1,12,,,,,,,,,
0,note_on,,,,,0,0,11,,,,,3,,,78,70
0,key_signature,,,,,0,1,11,,,,,,,Bm,,
0,control_change,,,,,0,0,11,,,91,67,3,,,,
0,control_change,,,,,0,0,11,,,10,31,3,,,,
0,control_change,,,,,0,0,11,,,7,100,3,,,,
0,program_change,,,,,0,0,8,,,,,0,48,,,
0,program_change,,,,,0,0,11,,,,,3,48,,,
0,track_name,,,,,0,1,11,,,,,,,,,
0,track_name,,,,,0,1,13,,,,,,,,,
0,control_change,,,,,0,0,13,,,0,0,5,,,,
0,program_change,,,,,0,0,13,,,,,5,48,,,
0,control_change,,,,,0,0,13,,,7,90,5,,,,
0,control_change,,,,,0,0,13,,,10,76,5,,,,
0,control_change,,,,,0,0,13,,,91,63,5,,,,
0,key_signature,,,,,0,1,13,,,,,,,Bm,,
0,note_on,,,,,0,0,13,,,,,5,,,47,70
0,note_on,,,,,0,0,16,,,,,7,,,47,100
0,key_signature,,,,,0,1,16,,,,,,,Bm,,
0,control_change,,,,,0,0,16,,,91,64,7,,,,
0,control_change,,,,,0,0,16,,,7,55,7,,,,
0,control_change,,,,,0,0,11,,,0,0,3,,,,
0,control_change,,,,,0,0,8,,,0,0,0,,,,
0,control_change,,,,,0,0,9,,,0,0,1,,,,
0,end_of_track,,,,,0,1,7,,,,,,,,,
0,end_of_track,,,,,0,1,5,,,,,,,,,
0,track_name,,,,,0,1,6,,,,,,,,,
0,control_change,,,,,0,0,6,,,0,0,0,,,,
0,program_change,,,,,0,0,6,,,,,0,48,,,
0,control_change,,,,,0,0,6,,,7,100,0,,,,
0,control_change,,,,,0,0,6,,,10,58,0,,,,
0,key_signature,,,,,0,1,5,,,,,,,Bm,,
0,control_change,,,,,0,0,6,,,91,64,0,,,,
0,control_change,,,,,0,0,3,,,7,100,0,,,,
0,control_change,,,,,0,0,3,,,0,0,0,,,,
0,track_name,,,,,0,1,3,,,,,,,,,
0,end_of_track,,,,,0,1,2,,,,,,,,,
0,track_name,,,,,0,1,2,,,,,,,,,
0,end_of_track,,,,,0,1,1,,,,,,,,,
0,control_change,,,,,0,0,4,,,0,0,0,,,,
0,track_name,,,,,0,1,1,,,,,,,,,
0,control_change,,,,,0,0,5,,,91,64,0,,,,
0,control_change,,,,,0,0,5,,,7,100,0,,,,
0,track_name,,,,,0,1,4,,,,,,,,,
0,track_name,,,,,0,1,8,,,,,,,,,
0,end_of_track,,,,,0,1,3,,,,,,,,,
0,control_change,,,,,0,0,4,,,7,100,0,,,,
0,control_change,,,,,0,0,4,,,10,58,0,,,,
0,control_change,,,,,0,0,4,,,91,64,0,,,,
0,control_change,,,,,0,0,5,,,10,58,0,,,,
0,key_signature,,,,,0,1,4,,,,,,,Bm,,
0,track_name,,,,,0,1,5,,,,,,,,,
0,control_change,,,,,0,0,5,,,0,0,0,,,,
0,program_change,,,,,0,0,5,,,,,0,48,,,
0,key_signature,,,,,0,1,3,,,,,,,Bm,,
0,program_change,,,,,0,0,3,,,,,0,48,,,
0,control_change,,,,,0,0,3,,,91,64,0,,,,
0,end_of_track,,,,,0,1,4,,,,,,,,,
0,key_signature,,,,,0,1,6,,,,,,,Bm,,
0,control_change,,,,,0,0,3,,,10,58,0,,,,
0,track_name,,,,,0,1,7,,,,,,,,,
0,key_signature,,,,,0,1,7,,,,,,,Bm,,
0,control_change,,,,,0,0,7,,,91,64,0,,,,
0,control_change,,,,,0,0,7,,,10,58,0,,,,
0,control_change,,,,,0,0,7,,,7,100,0,,,,
0,program_change,,,,,0,0,7,,,,,0,48,,,
0,end_of_track,,,,,0,1,6,,,,,,,,,
0,sequencer_specific,,,,,0,1,0,"(0, 0, 65)",,,,,,,,
0,sequencer_specific,,,,,0,1,0,"(0, 0, 119, 14, 1)",,,,,,,,
0,set_tempo,,,,,0,1,0,,1333333,,,,,,,
0,track_name,,,,,0,1,10,,,,,,,,,
0,control_change,,,,,0,0,10,,,0,0,2,,,,
0,program_change,,,,,0,0,10,,,,,2,48,,,
0,control_change,,,,,0,0,10,,,7,100,2,,,,
0,control_change,,,,,0,0,10,,,10,47,2,,,,
0,program_change,,,,,0,0,4,,,,,0,48,,,
0,note_on,,,,,0,0,10,,,,,2,,,81,70
0,key_signature,,,,,0,1,10,,,,,,,Bm,,
0,control_change,,,,,0,0,10,,,91,64,2,,,,
0,control_change,,,,,0,0,7,,,0,0,0,,,,
256,note_off,,,,,0,0,12,,,,,4,,,71,100
256,note_off,,,,,256,0,8,,,,,0,,,81,100
256,note_off,,,,,256,0,10,,,,,2,,,81,100
256,note_off,,,,,256,0,14,,,,,6,,,35,100
256,note_off,,,,,256,0,12,,,,,4,,,75,100
256,note_off,,,,,256,0,11,,,,,3,,,78,100
256,note_off,,,,,256,0,15,,,,,7,,,63,100
256,note_off,,,,,0,0,15,,,,,7,,,69,100
256,note_off,,,,,256,0,13,,,,,5,,,47,100
256,note_off,,,,,256,0,9,,,,,1,,,78,100
256,note_off,,,,,256,0,16,,,,,7,,,47,100
384,note_on,,,,,128,0,15,,,,,7,,,69,100
384,note_on,,,,,0,0,15,,,,,7,,,63,100
384,note_on,,,,,128,0,10,,,,,2,,,81,70
384,note_on,,,,,128,0,8,,,,,0,,,81,70
384,note_on,,,,,0,0,12,,,,,4,,,75,70
384,note_on,,,,,128,0,9,,,,,1,,,78,70
384,note_on,,,,,128,0,12,,,,,4,,,71,70
384,note_on,,,,,128,0,13,,,,,5,,,47,70
384,note_on,,,,,128,0,11,,,,,3,,,78,70
384,note_on,,,,,128,0,16,,,,,7,,,47,100
384,note_on,,,,,128,0,14,,,,,6,,,35,70
768,note_off,,,,,384,0,10,,,,,2,,,81,100
768,note_off,,,,,0,0,15,,,,,7,,,63,100
768,note_off,,,,,384,0,15,,,,,7,,,69,100
768,note_off,,,,,384,0,13,,,,,5,,,47,100
768,note_off,,,,,384,0,11,,,,,3,,,78,100
768,note_off,,,,,384,0,9,,,,,1,,,78,100
768,note_off,,,,,384,0,8,,,,,0,,,81,100
768,note_off,,,,,0,0,12,,,,,4,,,75,100
768,note_off,,,,,384,0,12,,,,,4,,,71,100
768,note_off,,,,,384,0,16,,,,,7,,,47,100
768,note_off,,,,,384,0,14,,,,,6,,,35,100
960,note_on,,,,,192,0,16,,,,,7,,,47,100
960,note_on,,,,,0,0,12,,,,,4,,,75,70
960,note_on,,,,,192,0,12,,,,,4,,,71,70
960,note_on,,,,,192,0,10,,,,,2,,,81,70
960,note_on,,,,,192,0,11,,,,,3,,,78,70
960,note_on,,,,,192,0,13,,,,,5,,,47,70
960,note_on,,,,,0,0,15,,,,,7,,,69,100
960,note_on,,,,,192,0,9,,,,,1,,,78,70
960,note_on,,,,,192,0,14,,,,,6,,,35,70
960,note_on,,,,,192,0,8,,,,,0,,,81,70
960,note_on,,,,,192,0,15,,,,,7,,,63,100
1088,note_off,,,,,128,0,13,,,,,5,,,47,100
1088,note_off,,,,,128,0,11,,,,,3,,,78,100
1088,note_off,,,,,128,0,16,,,,,7,,,47,100
1088,note_off,,,,,128,0,14,,,,,6,,,35,100
1088,note_off,,,,,128,0,9,,,,,1,,,78,100
1088,note_off,,,,,128,0,8,,,,,0,,,81,100
1088,note_off,,,,,128,0,10,,,,,2,,,81,100
1088,note_off,,,,,0,0,15,,,,,7,,,69,100
1088,note_off,,,,,128,0,12,,,,,4,,,71,100
1088,note_off,,,,,0,0,12,,,,,4,,,75,100
1088,note_off,,,,,128,0,15,,,,,7,,,63,100
1152,note_on,,,,,64,0,13,,,,,5,,,47,70
1152,note_on,,,,,64,0,9,,,,,1,,,78,70
1152,note_on,,,,,0,0,15,,,,,7,,,69,100
1152,note_on,,,,,64,0,10,,,,,2,,,81,70
1152,note_on,,,,,64,0,16,,,,,7,,,47,100
1152,note_on,,,,,64,0,11,,,,,3,,,78,70
1152,note_on,,,,,64,0,12,,,,,4,,,75,70
1152,note_on,,,,,64,0,8,,,,,0,,,81,70
1152,note_on,,,,,64,0,15,,,,,7,,,63,100
1152,note_on,,,,,0,0,12,,,,,4,,,71,70
1152,note_on,,,,,64,0,14,,,,,6,,,35,70
1156,program_change,,,,,4,0,10,,,,,2,40,,,
1408,note_off,,,,,256,0,12,,,,,4,,,75,100
1408,note_off,,,,,256,0,11,,,,,3,,,78,100
1408,note_off,,,,,252,0,10,,,,,2,,,81,100
1408,note_off,,,,,256,0,8,,,,,0,,,81,100
1408,note_off,,,,,256,0,9,,,,,1,,,78,100
1408,note_off,,,,,0,0,12,,,,,4,,,71,100
1408,note_off,,,,,256,0,15,,,,,7,,,63,100
1408,note_off,,,,,256,0,13,,,,,5,,,47,100
1408,note_off,,,,,0,0,15,,,,,7,,,69,100
1408,note_off,,,,,256,0,14,,,,,6,,,35,100
1408,note_off,,,,,256,0,16,,,,,7,,,47,100
1440,note_on,,,,,32,0,10,,,,,2,,,71,70
1504,note_off,,,,,64,0,10,,,,,2,,,71,100
1536,note_on,,,,,32,0,10,,,,,2,,,71,70
1728,note_off,,,,,192,0,10,,,,,2,,,71,100
1824,note_on,,,,,96,0,10,,,,,2,,,73,70
1888,note_off,,,,,64,0,10,,,,,2,,,73,100
1920,note_on,,,,,32,0,10,,,,,2,,,75,70
2112,note_off,,,,,192,0,10,,,,,2,,,75,100
2208,note_on,,,,,96,0,10,,,,,2,,,76,70
2272,note_off,,,,,64,0,10,,,,,2,,,76,100
2304,note_on,,,,,32,0,10,,,,,2,,,78,70
2304,program_change,,,,,896,0,8,,,,,0,40,,,
2592,note_on,,,,,288,0,8,,,,,0,,,75,70
2656,note_off,,,,,64,0,8,,,,,0,,,75,99
2688,note_on,,,,,32,0,8,,,,,0,,,75,70
2880,note_off,,,,,192,0,8,,,,,0,,,75,100
2976,note_on,,,,,96,0,8,,,,,0,,,76,70
3040,note_off,,,,,64,0,8,,,,,0,,,76,100
3072,note_on,,,,,32,0,8,,,,,0,,,78,70
3264,note_off,,,,,192,0,8,,,,,0,,,78,100
3360,note_on,,,,,96,0,8,,,,,0,,,79,70
3424,note_off,,,,,64,0,8,,,,,0,,,79,100
3456,note_on,,,,,32,0,8,,,,,0,,,81,70
3744,note_on,,,,,2336,0,12,,,,,4,,,71,70
3744,note_on,,,,,2336,0,11,,,,,3,,,78,70
3744,note_on,,,,,2336,0,16,,,,,7,,,47,100
3744,note_on,,,,,0,0,15,,,,,7,,,63,100
3744,note_on,,,,,2336,0,15,,,,,7,,,69,100
3744,note_on,,,,,2336,0,13,,,,,5,,,47,70
3744,note_on,,,,,0,0,12,,,,,4,,,75,70
3744,note_on,,,,,2336,0,14,,,,,6,,,35,70
3744,note_on,,,,,2336,0,9,,,,,1,,,81,70
3808,note_off,,,,,64,0,14,,,,,6,,,35,100
3808,note_off,,,,,64,0,11,,,,,3,,,78,100
3808,note_off,,,,,0,0,15,,,,,7,,,63,100
3808,note_off,,,,,64,0,13,,,,,5,,,47,100
3808,note_off,,,,,64,0,12,,,,,4,,,71,100
3808,note_off,,,,,0,0,12,,,,,4,,,75,100
3808,note_off,,,,,64,0,16,,,,,7,,,47,100
3808,note_off,,,,,64,0,9,,,,,1,,,81,100
3808,note_off,,,,,64,0,15,,,,,7,,,69,100
3840,note_on,,,,,32,0,14,,,,,6,,,35,70
3840,note_on,,,,,0,0,15,,,,,7,,,63,100
3840,note_on,,,,,32,0,12,,,,,4,,,75,70
3840,note_on,,,,,32,0,9,,,,,1,,,81,70
3840,program_change,,,,,1536,0,10,,,,,2,48,,,
3840,note_on,,,,,32,0,13,,,,,5,,,47,70
3840,note_on,,,,,32,0,16,,,,,7,,,47,100
3840,note_on,,,,,32,0,15,,,,,7,,,69,100
3840,note_on,,,,,0,0,12,,,,,4,,,71,70
3840,note_on,,,,,32,0,11,,,,,3,,,78,70
3840,program_change,,,,,384,0,8,,,,,0,48,,,
3968,note_off,,,,,128,0,8,,,,,0,,,81,100
3968,note_off,,,,,128,0,10,,,,,2,,,78,100
4032,note_off,,,,,0,0,12,,,,,4,,,71,100
4032,note_off,,,,,192,0,15,,,,,7,,,69,100
4032,note_off,,,,,192,0,16,,,,,7,,,47,100
4032,note_off,,,,,192,0,13,,,,,5,,,47,100
4032,note_off,,,,,192,0,11,,,,,3,,,78,100
4032,note_off,,,,,192,0,14,,,,,6,,,35,100
4032,note_off,,,,,192,0,9,,,,,1,,,81,100
4032,note_off,,,,,0,0,15,,,,,7,,,63,100
4032,note_off,,,,,192,0,12,,,,,4,,,75,100
4128,note_on,,,,,160,0,8,,,,,0,,,81,70
4128,note_on,,,,,96,0,9,,,,,1,,,81,70
4128,note_on,,,,,96,0,15,,,,,7,,,63,100
4128,note_on,,,,,96,0,16,,,,,7,,,47,100
4128,note_on,,,,,160,0,10,,,,,2,,,78,70
4128,note_on,,,,,96,0,13,,,,,5,,,47,70
4128,note_on,,,,,96,0,14,,,,,6,,,35,70
4128,note_on,,,,,0,0,15,,,,,7,,,69,100
4128,note_on,,,,,96,0,11,,,,,3,,,78,70
4128,note_on,,,,,96,0,12,,,,,4,,,71,70
4128,note_on,,,,,0,0,12,,,,,4,,,75,70
4192,note_off,,,,,64,0,10,,,,,2,,,78,100
4192,note_off,,,,,0,0,12,,,,,4,,,75,100
4192,note_off,,,,,0,0,15,,,,,7,,,69,100
4192,note_off,,,,,64,0,15,,,,,7,,,63,100
4192,note_off,,,,,64,0,9,,,,,1,,,81,100
4192,note_off,,,,,64,0,8,,,,,0,,,81,100
4192,note_off,,,,,64,0,16,,,,,7,,,47,100
4192,note_off,,,,,64,0,14,,,,,6,,,35,100
4192,note_off,,,,,64,0,11,,,,,3,,,78,100
4192,note_off,,,,,64,0,13,,,,,5,,,47,100
4192,note_off,,,,,64,0,12,,,,,4,,,71,100
4224,note_on,,,,,32,0,12,,,,,4,,,71,70
4224,note_on,,,,,0,0,12,,,,,4,,,75,70
4224,note_on,,,,,32,0,14,,,,,6,,,35,70
4224,note_on,,,,,32,0,13,,,,,5,,,47,70
4224,note_on,,,,,32,0,10,,,,,2,,,78,70
4224,note_on,,,,,32,0,15,,,,,7,,,63,100
4224,note_on,,,,,32,0,16,,,,,7,,,47,100
4224,note_on,,,,,32,0,11,,,,,3,,,78,70
4224,note_on,,,,,32,0,9,,,,,1,,,81,70
4224,note_on,,,,,0,0,15,,,,,7,,,69,100
4224,note_on,,,,,32,0,8,,,,,0,,,81,70
4416,note_off,,,,,192,0,15,,,,,7,,,63,100
4416,note_off,,,,,192,0,13,,,,,5,,,47,100
4416,note_off,,,,,0,0,12,,,,,4,,,75,100
4416,note_off,,,,,192,0,12,,,,,4,,,71,100
4416,note_off,,,,,0,0,15,,,,,7,,,69,100
4416,note_off,,,,,192,0,16,,,,,7,,,47,100
4416,note_off,,,,,192,0,11,,,,,3,,,78,100
4416,note_off,,,,,192,0,14,,,,,6,,,35,100
4416,note_off,,,,,192,0,10,,,,,2,,,78,100
4416,note_off,,,,,192,0,8,,,,,0,,,81,100
4416,note_off,,,,,192,0,9,,,,,1,,,81,100
4512,note_on,,,,,96,0,11,,,,,3,,,78,70
4512,note_on,,,,,96,0,13,,,,,5,,,47,70
4512,note_on,,,,,96,0,16,,,,,7,,,47,100
4512,note_on,,,,,96,0,14,,,,,6,,,35,70
4512,note_on,,,,,96,0,9,,,,,1,,,81,70
4512,note_on,,,,,0,0,12,,,,,4,,,75,70
4512,note_on,,,,,96,0,12,,,,,4,,,71,70
4512,note_on,,,,,96,0,8,,,,,0,,,81,70
4512,note_on,,,,,96,0,15,,,,,7,,,69,100
4512,note_on,,,,,0,0,15,,,,,7,,,63,100
4512,note_on,,,,,96,0,10,,,,,2,,,78,70
4576,note_off,,,,,0,0,12,,,,,4,,,75,100
4576,note_off,,,,,64,0,12,,,,,4,,,71,100
4576,note_off,,,,,64,0,13,,,,,5,,,47,100
4576,note_off,,,,,64,0,11,,,,,3,,,78,100
4576,note_off,,,,,64,0,14,,,,,6,,,35,100
4576,note_off,,,,,0,0,15,,,,,7,,,63,100
4576,note_off,,,,,64,0,8,,,,,0,,,81,100
4576,note_off,,,,,64,0,16,,,,,7,,,47,100
4576,note_off,,,,,64,0,9,,,,,1,,,81,100
4576,note_off,,,,,64,0,10,,,,,2,,,78,100
4576,note_off,,,,,64,0,15,,,,,7,,,69,100
4608,note_on,,,,,0,0,15,,,,,7,,,71,100
4608,note_on,,,,,32,0,15,,,,,7,,,67,100
4608,note_on,,,,,32,0,11,,,,,3,,,76,70
4608,note_on,,,,,32,0,16,,,,,7,,,52,100
4608,note_on,,,,,32,0,9,,,,,1,,,79,70
4608,note_on,,,,,32,0,13,,,,,5,,,52,70
4608,note_on,,,,,32,0,14,,,,,6,,,40,70
4608,note_on,,,,,32,0,10,,,,,2,,,76,70
4608,note_on,,,,,32,0,12,,,,,4,,,71,70
4608,note_on,,,,,32,0,8,,,,,0,,,79,70
4612,program_change,,,,,4,0,12,,,,,4,41,,,
4864,note_off,,,,,256,0,16,,,,,7,,,52,100
4864,note_off,,,,,0,0,15,,,,,7,,,71,100
4864,note_off,,,,,256,0,15,,,,,7,,,67,100
4864,note_off,,,,,256,0,9,,,,,1,,,79,100
4864,note_off,,,,,256,0,11,,,,,3,,,76,100
4864,note_off,,,,,256,0,8,,,,,0,,,79,100
4864,note_off,,,,,256,0,13,,,,,5,,,52,100
4864,note_off,,,,,252,0,12,,,,,4,,,71,100
4864,note_off,,,,,256,0,10,,,,,2,,,76,100
4864,note_off,,,,,256,0,14,,,,,6,,,40,100
4896,note_on,,,,,32,0,12,,,,,4,,,64,70
4960,note_off,,,,,64,0,12,,,,,4,,,64,100
4992,note_on,,,,,32,0,12,,,,,4,,,64,70
5184,note_off,,,,,192,0,12,,,,,4,,,64,100
5280,note_on,,,,,96,0,12,,,,,4,,,66,70
5344,note_off,,,,,64,0,12,,,,,4,,,66,100
5376,note_on,,,,,32,0,12,,,,,4,,,68,70
5568,note_off,,,,,192,0,12,,,,,4,,,68,100
5664,note_on,,,,,96,0,12,,,,,4,,,69,70
5728,note_off,,,,,64,0,12,,,,,4,,,69,100
5760,note_on,,,,,32,0,12,,,,,4,,,71,70
6048,note_on,,,,,288,0,12,,,,,4,,,68,70
6112,note_off,,,,,64,0,12,,,,,4,,,68,100
6144,note_on,,,,,32,0,12,,,,,4,,,68,70
6336,note_off,,,,,192,0,12,,,,,4,,,68,100
6432,note_on,,,,,96,0,12,,,,,4,,,69,70
6496,note_off,,,,,64,0,12,,,,,4,,,69,100
6528,note_on,,,,,0,0,12,,,,,4,,,71,70
6528,note_off,,,,,32,0,12,,,,,4,,,71,100
6720,note_off,,,,,192,0,12,,,,,4,,,71,100
6724,note_on,,,,,4,0,12,,,,,4,,,71,70
6816,note_on,,,,,92,0,12,,,,,4,,,73,70
6880,note_off,,,,,64,0,12,,,,,4,,,73,100
6912,note_on,,,,,0,0,12,,,,,4,,,74,70
6912,set_tempo,,,,,6912,1,0,,1333333,,,,,,,
6912,note_off,,,,,32,0,12,,,,,4,,,71,100
6912,note_on,,,,,0,0,12,,,,,4,,,71,70
7200,note_on,,,,,2336,0,13,,,,,5,,,52,70
7200,note_on,,,,,2336,0,14,,,,,6,,,40,70
7200,note_on,,,,,2336,0,10,,,,,2,,,80,70
7200,note_on,,,,,2336,0,15,,,,,7,,,74,100
7200,note_on,,,,,0,0,15,,,,,7,,,68,100
7200,note_on,,,,,2336,0,8,,,,,0,,,80,70
7200,note_on,,,,,2336,0,9,,,,,1,,,76,70
7200,note_on,,,,,2336,0,16,,,,,7,,,52,100
7200,note_on,,,,,2336,0,11,,,,,3,,,76,70
7264,note_off,,,,,64,0,14,,,,,6,,,40,100
7264,note_off,,,,,64,0,13,,,,,5,,,52,100
7264,note_off,,,,,64,0,16,,,,,7,,,52,100
7264,note_off,,,,,64,0,9,,,,,1,,,76,100
7264,note_off,,,,,64,0,11,,,,,3,,,76,100
7264,note_off,,,,,64,0,8,,,,,0,,,80,100
7264,note_off,,,,,64,0,10,,,,,2,,,80,100
7264,note_off,,,,,64,0,15,,,,,7,,,74,100
7264,note_off,,,,,0,0,15,,,,,7,,,68,100
7296,note_on,,,,,32,0,13,,,,,5,,,52,70
7296,note_on,,,,,32,0,9,,,,,1,,,76,70
7296,program_change,,,,,384,0,12,,,,,4,48,,,
7296,note_on,,,,,32,0,10,,,,,2,,,80,70
7296,note_on,,,,,32,0,11,,,,,3,,,76,70
7296,note_on,,,,,32,0,14,,,,,6,,,40,70
7296,note_on,,,,,0,0,15,,,,,7,,,74,100
7296,note_on,,,,,32,0,15,,,,,7,,,68,100
7296,note_on,,,,,32,0,16,,,,,7,,,52,100
7296,note_on,,,,,32,0,8,,,,,0,,,80,70
7408,note_off,,,,,112,0,12,,,,,4,,,71,100
7424,note_off,,,,,16,0,12,,,,,4,,,74,100
7488,note_off,,,,,192,0,14,,,,,6,,,40,100
7488,note_off,,,,,192,0,15,,,,,7,,,68,100
7488,note_off,,,,,192,0,13,,,,,5,,,52,100
7488,note_off,,,,,192,0,9,,,,,1,,,76,100
7488,note_off,,,,,192,0,16,,,,,7,,,52,100
7488,note_off,,,,,192,0,11,,,,,3,,,76,100
7488,note_off,,,,,192,0,10,,,,,2,,,80,100
7488,note_off,,,,,0,0,15,,,,,7,,,74,100
7488,note_off,,,,,192,0,8,,,,,0,,,80,100
7584,note_on,,,,,96,0,11,,,,,3,,,76,70
7584,note_on,,,,,0,0,15,,,,,7,,,68,100
7584,note_on,,,,,96,0,14,,,,,6,,,40,70
7584,note_on,,,,,96,0,13,,,,,5,,,52,70
7584,note_on,,,,,96,0,9,,,,,1,,,76,70
7584,note_on,,,,,96,0,16,,,,,7,,,52,100
7584,note_on,,,,,96,0,15,,,,,7,,,74,100
7584,note_on,,,,,160,0,12,,,,,4,,,71,70
7584,note_on,,,,,96,0,8,,,,,0,,,80,70
7584,note_on,,,,,0,0,12,,,,,4,,,74,70
7584,note_on,,,,,96,0,10,,,,,2,,,80,70
7648,note_off,,,,,0,0,12,,,,,4,,,74,100
7648,note_off,,,,,64,0,11,,,,,3,,,76,100
7648,note_off,,,,,64,0,14,,,,,6,,,40,100
7648,note_off,,,,,64,0,10,,,,,2,,,80,100
7648,note_off,,,,,0,0,15,,,,,7,,,68,100
7648,note_off,,,,,64,0,15,,,,,7,,,74,100
7648,note_off,,,,,64,0,16,,,,,7,,,52,100
7648,note_off,,,,,64,0,9,,,,,1,,,76,100
7648,note_off,,,,,64,0,8,,,,,0,,,80,100
7648,note_off,,,,,64,0,12,,,,,4,,,71,100
7648,note_off,,,,,64,0,13,,,,,5,,,52,100
7680,note_on,,,,,32,0,11,,,,,3,,,76,70
7680,note_on,,,,,32,0,14,,,,,6,,,40,70
7680,note_on,,,,,32,0,8,,,,,0,,,80,70
7680,note_on,,,,,32,0,9,,,,,1,,,76,70
7680,note_on,,,,,32,0,13,,,,,5,,,52,70
7680,note_on,,,,,0,0,15,,,,,7,,,68,100
7680,note_on,,,,,32,0,10,,,,,2,,,80,70
7680,note_on,,,,,0,0,12,,,,,4,,,74,70
7680,note_on,,,,,32,0,12,,,,,4,,,71,70
7680,note_on,,,,,32,0,16,,,,,7,,,52,100
7680,note_on,,,,,32,0,15,,,,,7,,,74,100
7872,note_off,,,,,192,0,8,,,,,0,,,80,100
7872,note_off,,,,,192,0,9,,,,,1,,,76,100
7872,note_off,,,,,192,0,10,,,,,2,,,80,100
7872,note_off,,,,,0,0,15,,,,,7,,,68,100
7872,note_off,,,,,192,0,15,,,,,7,,,74,100
7872,note_off,,,,,192,0,13,,,,,5,,,52,100
7872,note_off,,,,,192,0,14,,,,,6,,,40,100
7872,note_off,,,,,192,0,11,,,,,3,,,76,100
7872,note_off,,,,,192,0,16,,,,,7,,,52,100
7872,note_off,,,,,0,0,12,,,,,4,,,74,100
7872,note_off,,,,,192,0,12,,,,,4,,,71,100
7968,note_on,,,,,0,0,12,,,,,4,,,74,70
7968,note_on,,,,,96,0,12,,,,,4,,,71,70
7968,note_on,,,,,96,0,10,,,,,2,,,80,70
7968,note_on,,,,,0,0,15,,,,,7,,,68,100
7968,note_on,,,,,96,0,15,,,,,7,,,74,100
7968,note_on,,,,,96,0,16,,,,,7,,,52,100
7968,note_on,,,,,96,0,11,,,,,3,,,76,70
7968,note_on,,,,,96,0,9,,,,,1,,,76,70
7968,note_on,,,,,96,0,14,,,,,6,,,40,70
7968,note_on,,,,,96,0,8,,,,,0,,,80,70
7968,note_on,,,,,96,0,13,,,,,5,,,52,70
8032,note_off,,,,,64,0,12,,,,,4,,,71,100
8032,note_off,,,,,64,0,16,,,,,7,,,52,100
8032,note_off,,,,,64,0,9,,,,,1,,,76,100
8032,note_off,,,,,0,0,15,,,,,7,,,68,100
8032,note_off,,,,,64,0,14,,,,,6,,,40,100
8032,note_off,,,,,64,0,15,,,,,7,,,74,100
8032,note_off,,,,,64,0,13,,,,,5,,,52,100
8032,note_off,,,,,64,0,11,,,,,3,,,76,100
8032,note_off,,,,,64,0,10,,,,,2,,,80,100
8032,note_off,,,,,64,0,8,,,,,0,,,80,100
8032,note_off,,,,,0,0,12,,,,,4,,,74,100
8064,note_on,,,,,32,0,14,,,,,6,,,33,70
8064,note_on,,,,,32,0,13,,,,,5,,,45,70
8064,note_on,,,,,32,0,8,,,,,0,,,81,70
8064,note_on,,,,,32,0,9,,,,,1,,,76,70
8064,note_on,,,,,0,0,15,,,,,7,,,73,100
8064,note_on,,,,,0,0,12,,,,,4,,,73,70
8064,note_on,,,,,32,0,10,,,,,2,,,81,70
8064,note_on,,,,,32,0,11,,,,,3,,,76,70
8064,note_on,,,,,32,0,16,,,,,7,,,45,100
8064,note_on,,,,,32,0,15,,,,,7,,,64,100
8064,note_on,,,,,32,0,12,,,,,4,,,69,70
8068,program_change,,,,,4,0,11,,,,,3,40,,,
8320,note_off,,,,,256,0,9,,,,,1,,,76,100
8320,note_off,,,,,0,0,12,,,,,4,,,73,100
8320,note_off,,,,,256,0,10,,,,,2,,,81,100
8320,note_off,,,,,256,0,8,,,,,0,,,81,100
8320,note_off,,,,,256,0,13,,,,,5,,,45,100
8320,note_off,,,,,256,0,14,,,,,6,,,33,100
8320,note_off,,,,,256,0,15,,,,,7,,,64,100
8320,note_off,,,,,0,0,15,,,,,7,,,73,100
8320,note_off,,,,,256,0,12,,,,,4,,,69,100
8320,note_off,,,,,256,0,16,,,,,7,,,45,100
8320,note_off,,,,,252,0,11,,,,,3,,,76,100
8352,note_on,,,,,32,0,11,,,,,3,,,69,70
8416,note_off,,,,,64,0,11,,,,,3,,,69,100
8448,note_on,,,,,32,0,11,,,,,3,,,69,70
8640,note_off,,,,,192,0,11,,,,,3,,,69,100
8736,note_on,,,,,96,0,11,,,,,3,,,71,70
8800,note_off,,,,,64,0,11,,,,,3,,,71,100
8832,note_on,,,,,32,0,11,,,,,3,,,73,70
9024,note_off,,,,,192,0,11,,,,,3,,,73,100
9120,note_on,,,,,96,0,11,,,,,3,,,74,70
9184,note_off,,,,,64,0,11,,,,,3,,,74,100
9216,program_change,,,,,896,0,9,,,,,1,40,,,
9216,note_on,,,,,32,0,11,,,,,3,,,76,70
9504,note_on,,,,,288,0,9,,,,,1,,,73,70
9568,note_off,,,,,64,0,9,,,,,1,,,73,100
9600,note_on,,,,,32,0,9,,,,,1,,,73,70
9792,note_off,,,,,192,0,9,,,,,1,,,73,100
9888,note_on,,,,,96,0,9,,,,,1,,,74,70
9952,note_off,,,,,64,0,9,,,,,1,,,74,100
9984,note_on,,,,,32,0,9,,,,,1,,,76,70
10176,note_off,,,,,192,0,9,,,,,1,,,76,100
10272,note_on,,,,,96,0,9,,,,,1,,,78,70
10336,note_off,,,,,64,0,9,,,,,1,,,78,100
10368,note_on,,,,,32,0,9,,,,,1,,,79,70
10656,note_on,,,,,2336,0,16,,,,,7,,,45,100
10656,note_on,,,,,0,0,15,,,,,7,,,67,100
10656,note_on,,,,,2336,0,10,,,,,2,,,76,70
10656,note_on,,,,,2336,0,13,,,,,5,,,45,70
10656,note_on,,,,,2336,0,8,,,,,0,,,79,70
10656,note_on,,,,,0,0,12,,,,,4,,,69,70
10656,note_on,,,,,2336,0,12,,,,,4,,,61,70
10656,note_on,,,,,2336,0,14,,,,,6,,,33,70
10656,note_on,,,,,2336,0,15,,,,,7,,,64,100
10720,note_off,,,,,64,0,14,,,,,6,,,33,100
10720,note_off,,,,,64,0,8,,,,,0,,,79,100
10720,note_off,,,,,0,0,15,,,,,7,,,67,100
10720,note_off,,,,,64,0,10,,,,,2,,,76,100
10720,note_off,,,,,0,0,12,,,,,4,,,69,100
10720,note_off,,,,,64,0,12,,,,,4,,,61,100
10720,note_off,,,,,64,0,15,,,,,7,,,64,100
10720,note_off,,,,,64,0,13,,,,,5,,,45,100
10720,note_off,,,,,64,0,16,,,,,7,,,45,100
10752,note_on,,,,,32,0,16,,,,,7,,,45,100
10752,note_on,,,,,32,0,10,,,,,2,,,76,70
10752,note_on,,,,,32,0,13,,,,,5,,,45,70
10752,note_on,,,,,32,0,12,,,,,4,,,61,70
10752,note_on,,,,,0,0,12,,,,,4,,,69,70
10752,program_change,,,,,1536,0,11,,,,,3,48,,,
10752,note_on,,,,,32,0,8,,,,,0,,,79,70
10752,note_on,,,,,32,0,14,,,,,6,,,33,70
10752,note_on,,,,,32,0,15,,,,,7,,,64,100
10752,note_on,,,,,0,0,15,,,,,7,,,67,100
10752,program_change,,,,,384,0,9,,,,,1,48,,,
10880,note_off,,,,,128,0,9,,,,,1,,,79,100
10880,note_off,,,,,128,0,11,,,,,3,,,76,100
10944,note_off,,,,,192,0,8,,,,,0,,,79,100
10944,note_off,,,,,192,0,12,,,,,4,,,61,100
10944,note_off,,,,,0,0,12,,,,,4,,,69,100
10944,note_off,,,,,192,0,16,,,,,7,,,45,100
10944,note_off,,,,,0,0,15,,,,,7,,,67,100
10944,note_off,,,,,192,0,13,,,,,5,,,45,100
10944,note_off,,,,,192,0,15,,,,,7,,,64,100
10944,note_off,,,,,192,0,14,,,,,6,,,33,100
10944,note_off,,,,,192,0,10,,,,,2,,,76,100
11040,note_on,,,,,96,0,8,,,,,0,,,79,70
11040,note_on,,,,,96,0,15,,,,,7,,,64,100
11040,note_on,,,,,0,0,15,,,,,7,,,67,100
11040,note_on,,,,,96,0,14,,,,,6,,,33,70
11040,note_on,,,,,0,0,12,,,,,4,,,69,70
11040,note_on,,,,,96,0,12,,,,,4,,,61,70
11040,note_on,,,,,96,0,10,,,,,2,,,76,70
11040,note_on,,,,,96,0,13,,,,,5,,,45,70
11040,note_on,,,,,160,0,9,,,,,1,,,79,70
11040,note_on,,,,,160,0,11,,,,,3,,,76,70
11040,note_on,,,,,96,0,16,,,,,7,,,45,100
11104,note_off,,,,,64,0,13,,,,,5,,,45,100
11104,note_off,,,,,64,0,10,,,,,2,,,76,100
11104,note_off,,,,,0,0,15,,,,,7,,,67,100
11104,note_off,,,,,64,0,14,,,,,6,,,33,100
11104,note_off,,,,,64,0,11,,,,,3,,,76,100
11104,note_off,,,,,64,0,16,,,,,7,,,45,100
11104,note_off,,,,,64,0,9,,,,,1,,,79,100
11104,note_off,,,,,64,0,8,,,,,0,,,79,100
11104,note_off,,,,,64,0,15,,,,,7,,,64,100
11104,note_off,,,,,64,0,12,,,,,4,,,61,100
11104,note_off,,,,,0,0,12,,,,,4,,,69,100
11136,note_on,,,,,32,0,10,,,,,2,,,76,70
11136,note_on,,,,,32,0,9,,,,,1,,,79,70
11136,note_on,,,,,32,0,16,,,,,7,,,45,100
11136,note_on,,,,,32,0,12,,,,,4,,,61,70
11136,note_on,,,,,0,0,12,,,,,4,,,69,70
11136,note_on,,,,,32,0,13,,,,,5,,,45,70
11136,note_on,,,,,32,0,11,,,,,3,,,76,70
11136,note_on,,,,,32,0,8,,,,,0,,,79,70
11136,note_on,,,,,32,0,14,,,,,6,,,33,70
11136,note_on,,,,,0,0,15,,,,,7,,,67,100
11136,note_on,,,,,32,0,15,,,,,7,,,64,100
11328,note_off,,,,,192,0,16,,,,,7,,,45,100
11328,note_off,,,,,192,0,13,,,,,5,,,45,100
11328,note_off,,,,,192,0,11,,,,,3,,,76,100
11328,note_off,,,,,192,0,8,,,,,0,,,79,100
11328,note_off,,,,,192,0,15,,,,,7,,,64,100
11328,note_off,,,,,0,0,12,,,,,4,,,69,100
11328,note_off,,,,,192,0,12,,,,,4,,,61,100
11328,note_off,,,,,0,0,15,,,,,7,,,67,100
11328,note_off,,,,,192,0,9,,,,,1,,,79,100
11328,note_off,,,,,192,0,10,,,,,2,,,76,100
11328,note_off,,,,,192,0,14,,,,,6,,,33,100
11424,note_on,,,,,96,0,10,,,,,2,,,76,70
11424,note_on,,,,,0,0,12,,,,,4,,,69,70
11424,note_on,,,,,96,0,14,,,,,6,,,33,70
11424,note_on,,,,,96,0,16,,,,,7,,,45,100
11424,note_on,,,,,96,0,13,,,,,5,,,45,70
11424,note_on,,,,,96,0,15,,,,,7,,,64,100
11424,note_on,,,,,96,0,11,,,,,3,,,76,70
11424,note_on,,,,,0,0,15,,,,,7,,,67,100
11424,note_on,,,,,96,0,9,,,,,1,,,79,70
11424,note_on,,,,,96,0,8,,,,,0,,,79,70
11424,note_on,,,,,96,0,12,,,,,4,,,61,70
11488,note_off,,,,,64,0,12,,,,,4,,,61,100
11488,note_off,,,,,64,0,16,,,,,7,,,45,100
11488,note_off,,,,,64,0,11,,,,,3,,,76,100
11488,note_off,,,,,0,0,15,,,,,7,,,67,100
11488,note_off,,,,,64,0,14,,,,,6,,,33,100
11488,note_off,,,,,64,0,9,,,,,1,,,79,100
11488,note_off,,,,,64,0,8,,,,,0,,,79,100
11488,note_off,,,,,64,0,10,,,,,2,,,76,100
11488,note_off,,,,,64,0,13,,,,,5,,,45,100
11488,note_off,,,,,64,0,15,,,,,7,,,64,100
11488,note_off,,,,,0,0,12,,,,,4,,,69,100
11520,note_on,,,,,32,0,14,,,,,6,,,38,70
11520,note_on,,,,,32,0,13,,,,,5,,,50,70
11520,note_on,,,,,32,0,11,,,,,3,,,74,70
11520,note_on,,,,,32,0,8,,,,,0,,,78,70
11520,note_on,,,,,32,0,12,,,,,4,,,57,70
11520,note_on,,,,,32,0,9,,,,,1,,,78,70
11520,note_on,,,,,32,0,15,,,,,7,,,69,100
11520,note_on,,,,,32,0,10,,,,,2,,,74,70
11520,note_on,,,,,0,0,15,,,,,7,,,66,100
11520,note_on,,,,,0,0,12,,,,,4,,,69,70
11520,note_on,,,,,32,0,16,,,,,7,,,50,100
11524,program_change,,,,,4,0,8,,,,,0,40,,,
11776,note_off,,,,,256,0,11,,,,,3,,,74,100
11776,note_off,,,,,252,0,8,,,,,0,,,78,100
11776,note_off,,,,,256,0,15,,,,,7,,,69,100
11776,note_off,,,,,0,0,15,,,,,7,,,66,100
11776,note_off,,,,,0,0,12,,,,,4,,,69,100
11776,note_off,,,,,256,0,12,,,,,4,,,57,100
11776,note_off,,,,,256,0,10,,,,,2,,,74,100
11776,note_off,,,,,256,0,9,,,,,1,,,78,100
11808,note_on,,,,,32,0,8,,,,,0,,,74,70
11872,note_off,,,,,64,0,8,,,,,0,,,74,100
11904,note_on,,,,,32,0,8,,,,,0,,,74,71
11904,note_on,,,,,0,0,15,,,,,7,,,69,100
11904,note_on,,,,,128,0,15,,,,,7,,,66,100
12096,note_off,,,,,192,0,8,,,,,0,,,74,100
12160,note_off,,,,,0,0,15,,,,,7,,,69,100
12160,note_off,,,,,256,0,15,,,,,7,,,66,100
12192,note_on,,,,,96,0,8,,,,,0,,,78,74
12256,note_off,,,,,64,0,8,,,,,0,,,78,100
12288,note_on,,,,,0,0,15,,,,,7,,,69,100
12288,note_on,,,,,128,0,15,,,,,7,,,66,100
12288,note_on,,,,,32,0,8,,,,,0,,,78,75
12480,note_off,,,,,192,0,8,,,,,0,,,78,100
12544,note_off,,,,,256,0,15,,,,,7,,,66,100
12544,note_off,,,,,0,0,15,,,,,7,,,69,100
12576,note_on,,,,,96,0,8,,,,,0,,,83,78
12640,note_off,,,,,64,0,8,,,,,0,,,83,100
12672,note_on,,,,,32,0,8,,,,,0,,,83,79
12700,note_on,,,,,156,0,15,,,,,7,,,62,100
12732,note_on,,,,,32,0,15,,,,,7,,,66,100
12764,note_on,,,,,32,0,15,,,,,7,,,71,100
12864,note_off,,,,,192,0,8,,,,,0,,,83,100
12960,note_on,,,,,96,0,8,,,,,0,,,78,70
13024,note_off,,,,,64,0,8,,,,,0,,,78,100
13056,note_on,,,,,32,0,8,,,,,0,,,78,71
13248,note_off,,,,,192,0,8,,,,,0,,,78,100
13344,note_on,,,,,96,0,8,,,,,0,,,83,74
13408,note_off,,,,,64,0,8,,,,,0,,,83,100
13440,note_on,,,,,32,0,8,,,,,0,,,83,75
13468,note_off,,,,,704,0,15,,,,,7,,,62,100
13500,note_off,,,,,32,0,15,,,,,7,,,66,100
13532,note_off,,,,,32,0,15,,,,,7,,,71,100
13632,note_off,,,,,192,0,8,,,,,0,,,83,100
13708,note_off,,,,,2188,0,14,,,,,6,,,38,100
13708,note_off,,,,,2188,0,13,,,,,5,,,50,100
13708,note_off,,,,,2188,0,16,,,,,7,,,50,100
13728,note_on,,,,,96,0,8,,,,,0,,,86,78
13792,note_off,,,,,64,0,8,,,,,0,,,86,100
13820,program_change,,,,,0,0,8,,,,,0,48,,,
13820,program_change,,,,,28,0,8,,,,,0,48,,,
13824,note_on,,,,,2048,0,9,,,,,1,,,80,80
13824,note_on,,,,,292,0,15,,,,,7,,,65,100
13824,note_on,,,,,116,0,14,,,,,6,,,37,70
13824,note_on,,,,,116,0,13,,,,,5,,,49,70
13824,note_on,,,,,2048,0,10,,,,,2,,,77,80
13824,note_on,,,,,2048,0,11,,,,,3,,,80,80
13824,note_on,,,,,0,0,15,,,,,7,,,68,100
13824,note_on,,,,,0,0,12,,,,,4,,,61,70
13824,note_on,,,,,2048,0,12,,,,,4,,,68,70
13824,note_on,,,,,116,0,16,,,,,7,,,49,100
13824,note_on,,,,,4,0,8,,,,,0,,,77,80
14016,note_off,,,,,192,0,14,,,,,6,,,37,100
14016,note_off,,,,,192,0,13,,,,,5,,,49,100
14016,note_off,,,,,192,0,16,,,,,7,,,49,100
14016,note_off,,,,,0,0,15,,,,,7,,,68,100
14016,note_off,,,,,192,0,12,,,,,4,,,68,100
14016,note_off,,,,,0,0,12,,,,,4,,,61,100
14016,note_off,,,,,192,0,15,,,,,7,,,65,100
14112,note_on,,,,,96,0,16,,,,,7,,,49,100
14112,note_on,,,,,0,0,15,,,,,7,,,68,100
14112,note_on,,,,,96,0,14,,,,,6,,,37,70
14112,note_on,,,,,96,0,12,,,,,4,,,61,70
14112,note_on,,,,,0,0,12,,,,,4,,,68,70
14112,note_on,,,,,96,0,15,,,,,7,,,65,100
14112,note_on,,,,,96,0,13,,,,,5,,,49,70
14176,note_off,,,,,64,0,15,,,,,7,,,65,100
14176,note_off,,,,,0,0,15,,,,,7,,,68,100
14176,note_off,,,,,64,0,13,,,,,5,,,49,100
14176,note_off,,,,,0,0,12,,,,,4,,,68,100
14176,note_off,,,,,64,0,14,,,,,6,,,37,100
14176,note_off,,,,,64,0,12,,,,,4,,,61,100
14176,note_off,,,,,64,0,16,,,,,7,,,49,100
14208,note_on,,,,,32,0,13,,,,,5,,,47,70
14208,note_on,,,,,0,0,12,,,,,4,,,61,70
14208,note_on,,,,,0,0,15,,,,,7,,,68,100
14208,note_on,,,,,32,0,15,,,,,7,,,65,100
14208,note_on,,,,,32,0,12,,,,,4,,,68,70
14208,note_on,,,,,32,0,14,,,,,6,,,35,70
14208,note_on,,,,,32,0,16,,,,,7,,,47,100
14336,note_off,,,,,512,0,8,,,,,0,,,77,100
14400,note_off,,,,,0,0,15,,,,,7,,,68,100
14400,note_off,,,,,192,0,13,,,,,5,,,47,100
14400,note_off,,,,,192,0,15,,,,,7,,,65,100
14400,note_off,,,,,192,0,16,,,,,7,,,47,100
14400,note_off,,,,,0,0,12,,,,,4,,,61,100
14400,note_off,,,,,192,0,12,,,,,4,,,68,100
14400,note_off,,,,,192,0,14,,,,,6,,,35,100
14464,note_off,,,,,640,0,11,,,,,3,,,80,100
14464,note_off,,,,,640,0,9,,,,,1,,,80,100
14464,note_off,,,,,640,0,10,,,,,2,,,77,100
14496,note_on,,,,,96,0,16,,,,,7,,,47,100
14496,note_on,,,,,0,0,12,,,,,4,,,68,70
14496,note_on,,,,,96,0,12,,,,,4,,,61,70
14496,note_on,,,,,96,0,13,,,,,5,,,47,70
14496,note_on,,,,,96,0,15,,,,,7,,,65,100
14496,note_on,,,,,0,0,15,,,,,7,,,68,100
14496,note_on,,,,,96,0,14,,,,,6,,,35,70
14560,note_off,,,,,64,0,16,,,,,7,,,47,100
14560,note_off,,,,,64,0,13,,,,,5,,,47,100
14560,note_off,,,,,64,0,15,,,,,7,,,65,100
14560,note_off,,,,,0,0,15,,,,,7,,,68,100
14560,note_off,,,,,64,0,12,,,,,4,,,61,100
14560,note_off,,,,,0,0,12,,,,,4,,,68,100
14560,note_off,,,,,64,0,14,,,,,6,,,35,100
14592,note_on,,,,,32,0,16,,,,,7,,,45,100
14592,note_on,,,,,128,0,10,,,,,2,,,78,70
14592,note_on,,,,,32,0,13,,,,,5,,,45,70
14592,note_on,,,,,32,0,14,,,,,6,,,33,70
14592,note_on,,,,,256,0,8,,,,,0,,,78,70
14592,note_on,,,,,0,0,12,,,,,4,,,61,70
14592,note_on,,,,,128,0,11,,,,,3,,,81,70
14592,note_on,,,,,32,0,15,,,,,7,,,61,100
14592,note_on,,,,,0,0,15,,,,,7,,,66,100
14592,note_on,,,,,32,0,12,,,,,4,,,66,70
14592,note_on,,,,,128,0,9,,,,,1,,,81,70
14784,note_off,,,,,192,0,13,,,,,5,,,45,100
14784,note_off,,,,,0,0,12,,,,,4,,,61,100
14784,note_off,,,,,192,0,16,,,,,7,,,45,100
14784,note_off,,,,,192,0,15,,,,,7,,,61,100
14784,note_off,,,,,0,0,15,,,,,7,,,66,100
14784,note_off,,,,,192,0,12,,,,,4,,,66,100
14784,note_off,,,,,192,0,14,,,,,6,,,33,100
14880,note_on,,,,,96,0,15,,,,,7,,,61,100
14880,note_on,,,,,0,0,15,,,,,7,,,66,100
14880,note_on,,,,,96,0,12,,,,,4,,,61,70
14880,note_on,,,,,0,0,12,,,,,4,,,66,70
14880,note_on,,,,,96,0,13,,,,,5,,,45,70
14880,note_on,,,,,96,0,14,,,,,6,,,33,70
14880,note_on,,,,,96,0,16,,,,,7,,,45,100
14944,note_off,,,,,64,0,14,,,,,6,,,33,100
14944,note_off,,,,,64,0,13,,,,,5,,,45,100
14944,note_off,,,,,0,0,12,,,,,4,,,66,100
14944,note_off,,,,,64,0,15,,,,,7,,,61,100
14944,note_off,,,,,0,0,15,,,,,7,,,66,100
14944,note_off,,,,,64,0,16,,,,,7,,,45,100
14944,note_off,,,,,64,0,12,,,,,4,,,61,100
14976,note_on,,,,,0,0,12,,,,,4,,,71,70
14976,note_on,,,,,32,0,13,,,,,5,,,47,70
14976,note_on,,,,,32,0,14,,,,,6,,,35,70
14976,note_on,,,,,32,0,16,,,,,7,,,47,100
14976,note_on,,,,,32,0,12,,,,,4,,,62,70
14976,note_on,,,,,32,0,15,,,,,7,,,66,100
14976,note_on,,,,,0,0,15,,,,,7,,,69,100
15168,note_off,,,,,0,0,15,,,,,7,,,69,100
15168,note_off,,,,,192,0,15,,,,,7,,,66,100
15232,note_off,,,,,256,0,14,,,,,6,,,35,100
15232,note_off,,,,,256,0,16,,,,,7,,,47,100
15232,note_off,,,,,256,0,13,,,,,5,,,47,100
15232,note_off,,,,,256,0,12,,,,,4,,,62,100
15232,note_off,,,,,0,0,12,,,,,4,,,71,100
15264,note_on,,,,,32,0,12,,,,,4,,,62,70
15264,note_on,,,,,96,0,15,,,,,7,,,66,100
15264,note_on,,,,,0,0,15,,,,,7,,,69,100
15264,note_on,,,,,32,0,16,,,,,7,,,47,100
15264,note_on,,,,,32,0,14,,,,,6,,,35,70
15264,note_on,,,,,32,0,13,,,,,5,,,47,70
15264,note_on,,,,,0,0,12,,,,,4,,,71,70
15328,note_off,,,,,64,0,12,,,,,4,,,62,100
15328,note_off,,,,,0,0,15,,,,,7,,,69,100
15328,note_off,,,,,64,0,15,,,,,7,,,66,100
15328,note_off,,,,,64,0,16,,,,,7,,,47,100
15328,note_off,,,,,64,0,14,,,,,6,,,35,100
15328,note_off,,,,,64,0,13,,,,,5,,,47,100
15328,note_off,,,,,0,0,12,,,,,4,,,71,100
15356,note_off,,,,,764,0,9,,,,,1,,,81,100
15356,note_off,,,,,764,0,11,,,,,3,,,81,100
15356,note_off,,,,,764,0,8,,,,,0,,,78,100
15356,note_off,,,,,764,0,10,,,,,2,,,78,100
15360,note_on,,,,,32,0,15,,,,,7,,,65,100
15360,note_on,,,,,4,0,11,,,,,3,,,80,70
15360,set_tempo,,,,,8448,1,0,,1333333,,,,,,,
15360,note_on,,,,,32,0,16,,,,,7,,,49,100
15360,note_on,,,,,0,0,15,,,,,7,,,68,100
15360,note_on,,,,,4,0,10,,,,,2,,,77,70
15360,note_on,,,,,4,0,9,,,,,1,,,80,70
15360,note_on,,,,,0,0,12,,,,,4,,,65,70
15360,note_on,,,,,32,0,12,,,,,4,,,56,70
15360,note_on,,,,,4,0,8,,,,,0,,,77,70
15360,note_on,,,,,32,0,14,,,,,6,,,37,70
15360,note_on,,,,,32,0,13,,,,,5,,,49,70
15468,set_tempo,,,,,108,1,0,,1363636,,,,,,,
15552,note_off,,,,,0,0,15,,,,,7,,,68,100
15552,note_off,,,,,192,0,15,,,,,7,,,65,100
15576,set_tempo,,,,,108,1,0,,1395348,,,,,,,
15616,note_off,,,,,256,0,16,,,,,7,,,49,100
15616,note_off,,,,,0,0,12,,,,,4,,,65,100
15616,note_off,,,,,256,0,13,,,,,5,,,49,100
15616,note_off,,,,,256,0,14,,,,,6,,,37,100
15616,note_off,,,,,256,0,12,,,,,4,,,56,100
15648,note_on,,,,,0,0,15,,,,,7,,,68,100
15648,note_on,,,,,96,0,15,,,,,7,,,65,100
15648,note_on,,,,,32,0,14,,,,,6,,,37,70
15648,note_on,,,,,0,0,12,,,,,4,,,65,70
15648,note_on,,,,,32,0,16,,,,,7,,,49,100
15648,note_on,,,,,32,0,13,,,,,5,,,49,70
15648,note_on,,,,,32,0,12,,,,,4,,,56,70
15688,set_tempo,,,,,112,1,0,,1428571,,,,,,,
15712,note_off,,,,,64,0,15,,,,,7,,,65,100
15712,note_off,,,,,64,0,16,,,,,7,,,49,100
15712,note_off,,,,,64,0,14,,,,,6,,,37,100
15712,note_off,,,,,0,0,15,,,,,7,,,68,100
15712,note_off,,,,,0,0,12,,,,,4,,,65,100
15712,note_off,,,,,64,0,13,,,,,5,,,49,100
15712,note_off,,,,,64,0,12,,,,,4,,,56,100
15744,note_on,,,,,32,0,14,,,,,6,,,37,70
15744,note_on,,,,,32,0,12,,,,,4,,,68,70
15744,note_on,,,,,0,0,15,,,,,7,,,68,100
15744,note_on,,,,,32,0,15,,,,,7,,,65,100
15744,note_on,,,,,0,0,12,,,,,4,,,61,70
15744,note_on,,,,,32,0,13,,,,,5,,,49,70
15744,note_on,,,,,32,0,16,,,,,7,,,49,100
15796,set_tempo,,,,,108,1,0,,1463414,,,,,,,
15908,set_tempo,,,,,112,1,0,,1500000,,,,,,,
15936,note_off,,,,,0,0,15,,,,,7,,,68,100
15936,note_off,,,,,192,0,15,,,,,7,,,65,100
16000,note_off,,,,,0,0,12,,,,,4,,,61,100
16000,note_off,,,,,256,0,13,,,,,5,,,49,100
16000,note_off,,,,,256,0,12,,,,,4,,,68,100
16000,note_off,,,,,256,0,14,,,,,6,,,37,100
16000,note_off,,,,,256,0,16,,,,,7,,,49,100
16016,set_tempo,,,,,108,1,0,,1538461,,,,,,,
16032,note_on,,,,,0,0,12,,,,,4,,,68,70
16032,note_on,,,,,96,0,15,,,,,7,,,65,100
16032,note_on,,,,,0,0,15,,,,,7,,,68,100
16032,note_on,,,,,32,0,12,,,,,4,,,61,70
16032,note_on,,,,,32,0,13,,,,,5,,,49,70
16032,note_on,,,,,32,0,16,,,,,7,,,49,100
16032,note_on,,,,,32,0,14,,,,,6,,,37,70
16048,note_off,,,,,688,0,11,,,,,3,,,80,100
16048,note_off,,,,,688,0,10,,,,,2,,,77,100
16048,note_off,,,,,688,0,9,,,,,1,,,80,100
16048,note_off,,,,,688,0,8,,,,,0,,,77,100
16096,note_off,,,,,0,0,15,,,,,7,,,68,100
16096,note_off,,,,,64,0,13,,,,,5,,,49,100
16096,note_off,,,,,64,0,14,,,,,6,,,37,100
16096,note_off,,,,,64,0,12,,,,,4,,,61,100
16096,note_off,,,,,64,0,15,,,,,7,,,65,100
16096,note_off,,,,,0,0,12,,,,,4,,,68,100
16096,note_off,,,,,64,0,16,,,,,7,,,49,100
16128,set_tempo,,,,,112,1,0,,1333333,,,,,,,
16128,note_on,,,,,80,0,10,,,,,2,,,78,70
16128,note_on,,,,,80,0,9,,,,,1,,,81,70
16128,note_on,,,,,32,0,13,,,,,5,,,54,70
16128,note_on,,,,,32,0,12,,,,,4,,,66,70
16128,note_on,,,,,80,0,11,,,,,3,,,81,70
16128,note_on,,,,,0,0,12,,,,,4,,,61,70
16128,note_on,,,,,80,0,8,,,,,0,,,78,70
16128,note_on,,,,,32,0,16,,,,,7,,,54,100
16128,note_on,,,,,32,0,14,,,,,6,,,42,70
16156,note_on,,,,,60,0,15,,,,,7,,,66,100
16188,note_on,,,,,32,0,15,,,,,7,,,69,100
16220,note_on,,,,,32,0,15,,,,,7,,,73,100
16896,note_off,,,,,768,0,8,,,,,0,,,78,100
16896,note_off,,,,,768,0,13,,,,,5,,,54,100
16896,end_of_track,,,,,0,1,14,,,,,,,,,
16896,note_off,,,,,768,0,12,,,,,4,,,66,100
16896,note_off,,,,,768,0,9,,,,,1,,,81,100
16896,note_off,,,,,768,0,16,,,,,7,,,54,100
16896,note_off,,,,,768,0,11,,,,,3,,,81,100
16896,note_off,,,,,768,0,10,,,,,2,,,78,100
16896,note_off,,,,,768,0,14,,,,,6,,,42,100
16896,note_off,,,,,0,0,12,,,,,4,,,61,100
16924,note_off,,,,,704,0,15,,,,,7,,,66,100
16956,note_off,,,,,32,0,15,,,,,7,,,69,100
16988,note_off,,,,,32,0,15,,,,,7,,,73,100
17280,set_tempo,,,,,1152,1,0,,857142,,,,,,,
17280,note_on,,,,,384,0,8,,,,,0,,,66,70
17280,note_on,,,,,0,0,12,,,,,4,,,71,60
17280,note_on,,,,,384,0,13,,,,,5,,,47,100
17280,note_on,,,,,384,0,11,,,,,3,,,74,70
17280,note_on,,,,,384,0,12,,,,,4,,,66,60
17280,note_on,,,,,384,0,9,,,,,1,,,78,70
17280,note_on,,,,,384,0,10,,,,,2,,,71,70
17312,note_off,,,,,32,0,8,,,,,0,,,66,100
17328,note_on,,,,,16,0,8,,,,,0,,,74,70
17344,note_off,,,,,64,0,10,,,,,2,,,71,100
17360,note_off,,,,,32,0,8,,,,,0,,,74,100
17372,note_off,,,,,92,0,11,,,,,3,,,74,100
17372,note_off,,,,,92,0,9,,,,,1,,,78,100
17376,note_on,,,,,16,0,8,,,,,0,,,83,70
17376,note_on,,,,,32,0,10,,,,,2,,,74,70
17376,note_on,,,,,4,0,11,,,,,3,,,71,70
17376,note_on,,,,,4,0,9,,,,,1,,,74,70
17408,note_off,,,,,128,0,12,,,,,4,,,66,100
17408,note_off,,,,,128,0,13,,,,,5,,,47,100
17408,note_off,,,,,32,0,8,,,,,0,,,83,100
17408,note_off,,,,,0,0,12,,,,,4,,,71,100
17424,note_on,,,,,16,0,8,,,,,0,,,74,70
17440,note_off,,,,,64,0,10,,,,,2,,,74,100
17440,note_off,,,,,64,0,11,,,,,3,,,71,100
17456,note_off,,,,,32,0,8,,,,,0,,,74,100
17468,note_off,,,,,92,0,9,,,,,1,,,74,100
17472,note_on,,,,,32,0,11,,,,,3,,,74,70
17472,note_on,,,,,16,0,8,,,,,0,,,66,70
17472,note_on,,,,,4,0,9,,,,,1,,,71,70
17472,note_on,,,,,64,0,12,,,,,4,,,66,60
17472,note_on,,,,,0,0,12,,,,,4,,,71,60
17472,note_on,,,,,64,0,13,,,,,5,,,47,100
17472,note_on,,,,,32,0,10,,,,,2,,,78,70
17504,note_off,,,,,32,0,8,,,,,0,,,66,100
17520,note_on,,,,,16,0,8,,,,,0,,,74,70
17536,note_off,,,,,64,0,10,,,,,2,,,78,100
17536,note_off,,,,,64,0,9,,,,,1,,,71,100
17552,note_off,,,,,32,0,8,,,,,0,,,74,100
17564,note_off,,,,,92,0,11,,,,,3,,,74,100
17568,note_on,,,,,32,0,10,,,,,2,,,74,70
17568,note_on,,,,,32,0,9,,,,,1,,,78,70
17568,note_on,,,,,4,0,11,,,,,3,,,71,70
17568,note_on,,,,,16,0,8,,,,,0,,,83,70
17600,note_off,,,,,32,0,8,,,,,0,,,83,100
17600,note_off,,,,,0,0,12,,,,,4,,,71,100
17600,note_off,,,,,128,0,12,,,,,4,,,66,100
17600,note_off,,,,,128,0,13,,,,,5,,,47,100
17616,note_on,,,,,16,0,8,,,,,0,,,74,70
17632,note_off,,,,,64,0,10,,,,,2,,,74,100
17632,note_off,,,,,64,0,11,,,,,3,,,71,100
17632,note_off,,,,,64,0,9,,,,,1,,,78,100
17648,note_off,,,,,32,0,8,,,,,0,,,74,100
17664,note_on,,,,,64,0,12,,,,,4,,,66,60
17664,note_on,,,,,0,0,12,,,,,4,,,71,60
17664,note_on,,,,,16,0,8,,,,,0,,,66,70
17664,note_on,,,,,32,0,11,,,,,3,,,74,70
17664,note_on,,,,,32,0,10,,,,,2,,,71,70
17664,note_on,,,,,32,0,9,,,,,1,,,78,70
17664,note_on,,,,,64,0,13,,,,,5,,,47,100
17696,note_off,,,,,32,0,8,,,,,0,,,66,100
17712,note_on,,,,,16,0,8,,,,,0,,,74,70
17728,note_off,,,,,64,0,10,,,,,2,,,71,100
17744,note_off,,,,,32,0,8,,,,,0,,,74,100
17756,note_off,,,,,92,0,11,,,,,3,,,74,100
17756,note_off,,,,,92,0,9,,,,,1,,,78,100
17760,note_on,,,,,16,0,8,,,,,0,,,83,70
17760,note_on,,,,,32,0,10,,,,,2,,,74,70
17760,note_on,,,,,4,0,11,,,,,3,,,71,70
17760,note_on,,,,,4,0,9,,,,,1,,,74,70
17792,note_off,,,,,0,0,12,,,,,4,,,71,100
17792,note_off,,,,,32,0,8,,,,,0,,,83,100
17792,note_off,,,,,128,0,13,,,,,5,,,47,100
17792,note_off,,,,,128,0,12,,,,,4,,,66,100
17808,note_on,,,,,16,0,8,,,,,0,,,74,70
17824,note_off,,,,,64,0,10,,,,,2,,,74,100
17824,note_off,,,,,64,0,11,,,,,3,,,71,100
17840,note_off,,,,,32,0,8,,,,,0,,,74,100
17852,note_off,,,,,92,0,9,,,,,1,,,74,100
17856,note_on,,,,,4,0,9,,,,,1,,,71,70
17856,note_on,,,,,32,0,10,,,,,2,,,78,70
17856,note_on,,,,,0,0,12,,,,,4,,,71,60
17856,note_on,,,,,64,0,12,,,,,4,,,66,60
17856,note_on,,,,,16,0,8,,,,,0,,,66,70
17856,note_on,,,,,32,0,11,,,,,3,,,74,70
17856,note_on,,,,,64,0,13,,,,,5,,,47,100
17888,note_off,,,,,32,0,8,,,,,0,,,66,100
17904,note_on,,,,,16,0,8,,,,,0,,,74,70
17920,note_off,,,,,64,0,10,,,,,2,,,78,100
17920,note_off,,,,,64,0,9,,,,,1,,,71,100
17936,note_off,,,,,32,0,8,,,,,0,,,74,100
17948,note_off,,,,,92,0,11,,,,,3,,,74,100
17952,note_on,,,,,32,0,10,,,,,2,,,74,70
17952,note_on,,,,,32,0,9,,,,,1,,,78,70
17952,note_on,,,,,16,0,8,,,,,0,,,83,70
17952,note_on,,,,,4,0,11,,,,,3,,,71,70
17984,note_off,,,,,0,0,12,,,,,4,,,71,100
17984,note_off,,,,,32,0,8,,,,,0,,,83,100
17984,note_off,,,,,128,0,13,,,,,5,,,47,100
17984,note_off,,,,,128,0,12,,,,,4,,,66,100
18000,note_on,,,,,16,0,8,,,,,0,,,74,70
18016,note_off,,,,,64,0,10,,,,,2,,,74,100
18016,note_off,,,,,64,0,11,,,,,3,,,71,100
18016,note_off,,,,,64,0,9,,,,,1,,,78,100
18032,note_off,,,,,32,0,8,,,,,0,,,74,100
18048,note_on,,,,,32,0,10,,,,,2,,,71,70
18048,note_on,,,,,16,0,8,,,,,0,,,66,70
18048,note_on,,,,,64,0,13,,,,,5,,,47,100
18048,note_on,,,,,32,0,11,,,,,3,,,74,70
18048,note_on,,,,,64,0,12,,,,,4,,,66,60
18048,note_on,,,,,0,0,12,,,,,4,,,71,60
18048,note_on,,,,,32,0,9,,,,,1,,,78,70
18080,note_off,,,,,32,0,8,,,,,0,,,66,100
18096,note_on,,,,,16,0,8,,,,,0,,,74,70
18112,note_off,,,,,64,0,10,,,,,2,,,71,100
18128,note_off,,,,,32,0,8,,,,,0,,,74,100
18140,note_off,,,,,92,0,9,,,,,1,,,78,100
18140,note_off,,,,,92,0,11,,,,,3,,,74,100
18144,note_on,,,,,32,0,10,,,,,2,,,74,70
18144,note_on,,,,,4,0,9,,,,,1,,,74,70
18144,note_on,,,,,16,0,8,,,,,0,,,83,70
18144,note_on,,,,,4,0,11,,,,,3,,,71,70
18176,note_off,,,,,0,0,12,,,,,4,,,71,100
18176,note_off,,,,,128,0,12,,,,,4,,,66,100
18176,note_off,,,,,128,0,13,,,,,5,,,47,100
18176,note_off,,,,,32,0,8,,,,,0,,,83,100
18192,note_on,,,,,16,0,8,,,,,0,,,74,70
18208,note_off,,,,,64,0,10,,,,,2,,,74,100
18208,note_off,,,,,64,0,11,,,,,3,,,71,100
18224,note_off,,,,,32,0,8,,,,,0,,,74,100
18236,note_off,,,,,92,0,9,,,,,1,,,74,100
18240,note_on,,,,,16,0,8,,,,,0,,,66,70
18240,note_on,,,,,32,0,10,,,,,2,,,78,70
18240,note_on,,,,,64,0,13,,,,,5,,,47,100
18240,note_on,,,,,64,0,12,,,,,4,,,66,60
18240,note_on,,,,,4,0,9,,,,,1,,,71,70
18240,note_on,,,,,0,0,12,,,,,4,,,71,60
18240,note_on,,,,,32,0,11,,,,,3,,,74,70
18272,note_off,,,,,32,0,8,,,,,0,,,66,100
18288,note_on,,,,,16,0,8,,,,,0,,,74,70
18288,note_on,,,,,48,0,11,,,,,3,,,71,70
18304,note_off,,,,,64,0,9,,,,,1,,,71,100
18304,note_off,,,,,64,0,10,,,,,2,,,78,100
18320,note_off,,,,,32,0,8,,,,,0,,,74,100
18332,note_off,,,,,44,0,11,,,,,3,,,74,100
18336,note_on,,,,,32,0,9,,,,,1,,,78,70
18336,note_on,,,,,16,0,8,,,,,0,,,83,70
18336,note_on,,,,,32,0,10,,,,,2,,,74,70
18352,note_off,,,,,20,0,11,,,,,3,,,71,100
18368,note_off,,,,,0,0,12,,,,,4,,,71,100
18368,note_off,,,,,128,0,12,,,,,4,,,66,100
18368,note_off,,,,,128,0,13,,,,,5,,,47,100
18368,note_off,,,,,32,0,8,,,,,0,,,83,100
18384,note_on,,,,,16,0,8,,,,,0,,,74,70
18400,note_off,,,,,64,0,10,,,,,2,,,74,100
18400,note_off,,,,,64,0,9,,,,,1,,,78,100
18416,note_off,,,,,32,0,8,,,,,0,,,74,100
18432,note_on,,,,,0,0,12,,,,,4,,,70,60
18432,note_on,,,,,64,0,12,,,,,4,,,66,60
18432,note_on,,,,,16,0,8,,,,,0,,,66,70
18432,note_on,,,,,32,0,10,,,,,2,,,70,70
18432,note_on,,,,,32,0,9,,,,,1,,,78,70
18432,note_on,,,,,80,0,11,,,,,3,,,73,70
18432,note_on,,,,,64,0,13,,,,,5,,,54,100
18464,note_off,,,,,32,0,8,,,,,0,,,66,100
18480,note_on,,,,,16,0,8,,,,,0,,,73,70
18496,note_off,,,,,64,0,10,,,,,2,,,70,100
18512,note_off,,,,,32,0,8,,,,,0,,,73,100
18524,note_off,,,,,92,0,9,,,,,1,,,78,100
18524,note_off,,,,,92,0,11,,,,,3,,,73,100
18528,note_on,,,,,16,0,8,,,,,0,,,82,70
18528,note_on,,,,,4,0,9,,,,,1,,,73,70
18528,note_on,,,,,32,0,10,,,,,2,,,73,70
18528,note_on,,,,,4,0,11,,,,,3,,,70,70
18560,note_off,,,,,32,0,8,,,,,0,,,82,100
18560,note_off,,,,,0,0,12,,,,,4,,,70,100
18560,note_off,,,,,128,0,12,,,,,4,,,66,100
18560,note_off,,,,,128,0,13,,,,,5,,,54,100
18576,note_on,,,,,16,0,8,,,,,0,,,73,70
18592,note_off,,,,,64,0,10,,,,,2,,,73,100
18592,note_off,,,,,64,0,11,,,,,3,,,70,100
18608,note_off,,,,,32,0,8,,,,,0,,,73,100
18620,note_off,,,,,92,0,9,,,,,1,,,73,100
18624,note_on,,,,,64,0,13,,,,,5,,,54,100
18624,note_on,,,,,4,0,9,,,,,1,,,70,70
18624,note_on,,,,,16,0,8,,,,,0,,,66,70
18624,note_on,,,,,0,0,12,,,,,4,,,70,60
18624,note_on,,,,,64,0,12,,,,,4,,,66,60
18624,note_on,,,,,32,0,11,,,,,3,,,73,70
18624,note_on,,,,,32,0,10,,,,,2,,,78,70
18656,note_off,,,,,32,0,8,,,,,0,,,66,100
18672,note_on,,,,,16,0,8,,,,,0,,,73,70
18688,note_off,,,,,64,0,9,,,,,1,,,70,100
18688,note_off,,,,,64,0,10,,,,,2,,,78,100
18704,note_off,,,,,32,0,8,,,,,0,,,73,100
18716,note_off,,,,,92,0,11,,,,,3,,,73,100
18720,note_on,,,,,4,0,11,,,,,3,,,70,70
18720,note_on,,,,,16,0,8,,,,,0,,,82,70
18720,note_on,,,,,32,0,10,,,,,2,,,73,70
18720,note_on,,,,,32,0,9,,,,,1,,,78,70
18752,note_off,,,,,0,0,12,,,,,4,,,70,100
18752,note_off,,,,,32,0,8,,,,,0,,,82,100
18752,note_off,,,,,128,0,12,,,,,4,,,66,100
18752,note_off,,,,,128,0,13,,,,,5,,,54,100
18768,note_on,,,,,16,0,8,,,,,0,,,73,70
18784,note_off,,,,,64,0,11,,,,,3,,,70,100
18784,note_off,,,,,64,0,9,,,,,1,,,78,100
18784,note_off,,,,,64,0,10,,,,,2,,,73,100
18800,note_off,,,,,32,0,8,,,,,0,,,73,100
18816,note_on,,,,,32,0,10,,,,,2,,,70,70
18816,note_on,,,,,64,0,12,,,,,4,,,66,60
18816,note_on,,,,,0,0,12,,,,,4,,,70,60
18816,note_on,,,,,32,0,9,,,,,1,,,78,70
18816,note_on,,,,,32,0,11,,,,,3,,,73,70
18816,note_on,,,,,16,0,8,,,,,0,,,66,70
18816,note_on,,,,,64,0,13,,,,,5,,,54,100
18848,note_off,,,,,32,0,8,,,,,0,,,66,100
18864,note_on,,,,,16,0,8,,,,,0,,,73,70
18880,note_off,,,,,64,0,10,,,,,2,,,70,100
18896,note_off,,,,,32,0,8,,,,,0,,,73,100
18908,note_off,,,,,92,0,9,,,,,1,,,78,100
18908,note_off,,,,,92,0,11,,,,,3,,,73,100
18912,note_on,,,,,32,0,10,,,,,2,,,73,70
18912,note_on,,,,,4,0,11,,,,,3,,,70,70
18912,note_on,,,,,16,0,8,,,,,0,,,82,70
18912,note_on,,,,,4,0,9,,,,,1,,,73,70
18944,note_off,,,,,128,0,13,,,,,5,,,54,100
18944,note_off,,,,,128,0,12,,,,,4,,,66,100
18944,note_off,,,,,0,0,12,,,,,4,,,70,100
18944,note_off,,,,,32,0,8,,,,,0,,,82,100
18960,note_on,,,,,16,0,8,,,,,0,,,73,70
18976,note_off,,,,,64,0,10,,,,,2,,,73,100
18976,note_off,,,,,64,0,11,,,,,3,,,70,100
18992,note_off,,,,,32,0,8,,,,,0,,,73,100
19004,note_off,,,,,92,0,9,,,,,1,,,73,100
19008,note_on,,,,,64,0,12,,,,,4,,,66,60
19008,note_on,,,,,16,0,8,,,,,0,,,66,70
19008,note_on,,,,,0,0,12,,,,,4,,,70,60
19008,note_on,,,,,32,0,10,,,,,2,,,78,70
19008,note_on,,,,,32,0,11,,,,,3,,,73,70
19008,note_on,,,,,4,0,9,,,,,1,,,70,70
19008,note_on,,,,,64,0,13,,,,,5,,,54,100
19040,note_off,,,,,32,0,8,,,,,0,,,66,100
19056,note_on,,,,,16,0,8,,,,,0,,,73,70
19072,note_off,,,,,64,0,9,,,,,1,,,70,100
19072,note_off,,,,,64,0,10,,,,,2,,,78,100
19088,note_off,,,,,32,0,8,,,,,0,,,73,100
19100,note_off,,,,,92,0,11,,,,,3,,,73,100
19104,note_on,,,,,16,0,8,,,,,0,,,82,70
19104,note_on,,,,,4,0,11,,,,,3,,,70,70
19104,note_on,,,,,32,0,9,,,,,1,,,78,70
19104,note_on,,,,,32,0,10,,,,,2,,,73,70
19136,note_off,,,,,32,0,8,,,,,0,,,82,100
19136,note_off,,,,,128,0,12,,,,,4,,,66,100
19136,note_off,,,,,0,0,12,,,,,4,,,70,100
19136,note_off,,,,,128,0,13,,,,,5,,,54,100
19152,note_on,,,,,16,0,8,,,,,0,,,73,70
19168,note_off,,,,,64,0,9,,,,,1,,,78,100
19168,note_off,,,,,64,0,10,,,,,2,,,73,100
19168,note_off,,,,,64,0,11,,,,,3,,,70,100
19184,note_off,,,,,32,0,8,,,,,0,,,73,100
19200,note_on,,,,,32,0,11,,,,,3,,,73,70
19200,note_on,,,,,64,0,13,,,,,5,,,54,100
19200,note_on,,,,,16,0,8,,,,,0,,,66,70
19200,note_on,,,,,32,0,10,,,,,2,,,70,70
19200,note_on,,,,,32,0,9,,,,,1,,,78,70
19200,note_on,,,,,0,0,12,,,,,4,,,70,60
19200,note_on,,,,,64,0,12,,,,,4,,,66,60
19232,note_off,,,,,32,0,8,,,,,0,,,66,100
19248,note_on,,,,,16,0,8,,,,,0,,,73,70
19264,note_off,,,,,64,0,10,,,,,2,,,70,100
19280,note_off,,,,,32,0,8,,,,,0,,,73,100
19292,note_off,,,,,92,0,11,,,,,3,,,73,100
19292,note_off,,,,,92,0,9,,,,,1,,,78,100
19296,note_on,,,,,4,0,11,,,,,3,,,70,70
19296,note_on,,,,,16,0,8,,,,,0,,,82,70
19296,note_on,,,,,4,0,9,,,,,1,,,73,70
19296,note_on,,,,,32,0,10,,,,,2,,,73,70
19328,note_off,,,,,128,0,13,,,,,5,,,54,100
19328,note_off,,,,,128,0,12,,,,,4,,,66,100
19328,note_off,,,,,32,0,8,,,,,0,,,82,100
19328,note_off,,,,,0,0,12,,,,,4,,,70,100
19344,note_on,,,,,16,0,8,,,,,0,,,73,70
19360,note_off,,,,,64,0,11,,,,,3,,,70,100
19360,note_off,,,,,64,0,10,,,,,2,,,73,100
19376,note_off,,,,,32,0,8,,,,,0,,,73,100
19388,note_off,,,,,92,0,9,,,,,1,,,73,100
19392,note_on,,,,,4,0,9,,,,,1,,,70,70
19392,note_on,,,,,0,0,12,,,,,4,,,70,60
19392,note_on,,,,,16,0,8,,,,,0,,,66,70
19392,note_on,,,,,64,0,12,,,,,4,,,66,60
19392,note_on,,,,,64,0,13,,,,,5,,,54,100
19392,note_on,,,,,32,0,10,,,,,2,,,78,70
19392,note_on,,,,,32,0,11,,,,,3,,,73,70
19424,note_off,,,,,32,0,8,,,,,0,,,66,100
19440,note_on,,,,,16,0,8,,,,,0,,,73,70
19456,note_off,,,,,64,0,10,,,,,2,,,78,100
19456,note_off,,,,,64,0,9,,,,,1,,,70,100
19472,note_off,,,,,32,0,8,,,,,0,,,73,100
19484,note_off,,,,,92,0,11,,,,,3,,,73,100
19488,note_on,,,,,32,0,10,,,,,2,,,73,70
19488,note_on,,,,,16,0,8,,,,,0,,,82,70
19488,note_on,,,,,32,0,9,,,,,1,,,78,70
19488,note_on,,,,,4,0,11,,,,,3,,,70,70
19520,note_off,,,,,128,0,13,,,,,5,,,54,100
19520,note_off,,,,,32,0,8,,,,,0,,,82,100
19520,note_off,,,,,0,0,12,,,,,4,,,70,100
19520,note_off,,,,,128,0,12,,,,,4,,,66,100
19536,note_on,,,,,16,0,8,,,,,0,,,73,70
19552,note_off,,,,,64,0,11,,,,,3,,,70,100
19552,note_off,,,,,64,0,10,,,,,2,,,73,100
19552,note_off,,,,,64,0,9,,,,,1,,,78,100
19568,note_off,,,,,32,0,8,,,,,0,,,73,100
19584,note_on,,,,,32,0,11,,,,,3,,,74,70
19584,note_on,,,,,32,0,9,,,,,1,,,78,70
19584,note_on,,,,,0,0,12,,,,,4,,,71,60
19584,note_on,,,,,64,0,12,,,,,4,,,66,60
19584,note_on,,,,,64,0,13,,,,,5,,,47,100
19584,note_on,,,,,32,0,10,,,,,2,,,71,70
19584,note_on,,,,,16,0,8,,,,,0,,,66,70
19616,note_off,,,,,32,0,8,,,,,0,,,66,100
19632,note_on,,,,,16,0,8,,,,,0,,,74,70
19648,note_off,,,,,64,0,10,,,,,2,,,71,100
19664,note_off,,,,,32,0,8,,,,,0,,,74,100
19676,note_off,,,,,92,0,9,,,,,1,,,78,100
19676,note_off,,,,,92,0,11,,,,,3,,,74,100
19680,note_on,,,,,16,0,8,,,,,0,,,83,70
19680,note_on,,,,,4,0,9,,,,,1,,,74,70
19680,note_on,,,,,32,0,10,,,,,2,,,74,70
19680,note_on,,,,,4,0,11,,,,,3,,,71,70
19712,note_off,,,,,128,0,13,,,,,5,,,47,100
19712,note_off,,,,,32,0,8,,,,,0,,,83,100
19712,note_off,,,,,0,0,12,,,,,4,,,71,100
19712,note_off,,,,,128,0,12,,,,,4,,,66,100
19728,note_on,,,,,16,0,8,,,,,0,,,74,70
19744,note_off,,,,,64,0,10,,,,,2,,,74,100
19744,note_off,,,,,64,0,11,,,,,3,,,71,100
19760,note_off,,,,,32,0,8,,,,,0,,,74,100
19772,note_off,,,,,92,0,9,,,,,1,,,74,100
19776,note_on,,,,,32,0,10,,,,,2,,,78,70
19776,note_on,,,,,4,0,9,,,,,1,,,71,70
19776,note_on,,,,,32,0,11,,,,,3,,,74,70
19776,note_on,,,,,16,0,8,,,,,0,,,66,70
19776,note_on,,,,,0,0,12,,,,,4,,,71,60
19776,note_on,,,,,64,0,13,,,,,5,,,47,100
19776,note_on,,,,,64,0,12,,,,,4,,,66,60
19808,note_off,,,,,32,0,8,,,,,0,,,66,100
19824,note_on,,,,,16,0,8,,,,,0,,,74,70
19840,note_off,,,,,64,0,10,,,,,2,,,78,100
19840,note_off,,,,,64,0,9,,,,,1,,,71,100
19856,note_off,,,,,32,0,8,,,,,0,,,74,100
19868,note_off,,,,,92,0,11,,,,,3,,,74,100
19872,note_on,,,,,16,0,8,,,,,0,,,83,70
19872,note_on,,,,,32,0,10,,,,,2,,,74,70
19872,note_on,,,,,32,0,9,,,,,1,,,78,70
19872,note_on,,,,,4,0,11,,,,,3,,,71,70
19904,note_off,,,,,32,0,8,,,,,0,,,83,100
19904,note_off,,,,,128,0,13,,,,,5,,,47,100
19904,note_off,,,,,0,0,12,,,,,4,,,71,100
19904,note_off,,,,,128,0,12,,,,,4,,,66,100
19920,note_on,,,,,16,0,8,,,,,0,,,74,70
19936,note_off,,,,,64,0,9,,,,,1,,,78,100
19936,note_off,,,,,64,0,10,,,,,2,,,74,100
19936,note_off,,,,,64,0,11,,,,,3,,,71,100
19952,note_off,,,,,32,0,8,,,,,0,,,74,100
19968,note_on,,,,,0,0,12,,,,,4,,,71,60
19968,note_on,,,,,64,0,12,,,,,4,,,66,60
19968,note_on,,,,,64,0,13,,,,,5,,,47,100
19968,note_on,,,,,16,0,8,,,,,0,,,66,70
19968,note_on,,,,,32,0,9,,,,,1,,,78,70
19968,note_on,,,,,32,0,11,,,,,3,,,74,70
19968,note_on,,,,,32,0,10,,,,,2,,,71,70
20000,note_off,,,,,32,0,8,,,,,0,,,66,100
20016,note_on,,,,,16,0,8,,,,,0,,,74,70
20032,note_off,,,,,64,0,10,,,,,2,,,71,100
20048,note_off,,,,,32,0,8,,,,,0,,,74,100
20060,note_off,,,,,92,0,11,,,,,3,,,74,100
20060,note_off,,,,,92,0,9,,,,,1,,,78,100
20064,note_on,,,,,4,0,9,,,,,1,,,74,70
20064,note_on,,,,,16,0,8,,,,,0,,,83,70
20064,note_on,,,,,4,0,11,,,,,3,,,71,70
20064,note_on,,,,,32,0,10,,,,,2,,,74,70
20096,note_off,,,,,0,0,12,,,,,4,,,71,100
20096,note_off,,,,,32,0,8,,,,,0,,,83,100
20096,note_off,,,,,128,0,12,,,,,4,,,66,100
20096,note_off,,,,,128,0,13,,,,,5,,,47,100
20112,note_on,,,,,16,0,8,,,,,0,,,74,70
20128,note_off,,,,,64,0,10,,,,,2,,,74,100
20128,note_off,,,,,64,0,11,,,,,3,,,71,100
20144,note_off,,,,,32,0,8,,,,,0,,,74,100
20156,note_off,,,,,92,0,9,,,,,1,,,74,100
20160,note_on,,,,,32,0,10,,,,,2,,,78,70
20160,note_on,,,,,64,0,13,,,,,5,,,47,100
20160,note_on,,,,,0,0,12,,,,,4,,,71,60
20160,note_on,,,,,4,0,9,,,,,1,,,71,70
20160,note_on,,,,,64,0,12,,,,,4,,,66,60
20160,note_on,,,,,16,0,8,,,,,0,,,66,70
20160,note_on,,,,,32,0,11,,,,,3,,,74,70
20192,note_off,,,,,32,0,8,,,,,0,,,66,100
20208,note_on,,,,,16,0,8,,,,,0,,,74,70
20224,note_off,,,,,64,0,9,,,,,1,,,71,100
20224,note_off,,,,,64,0,10,,,,,2,,,78,100
20240,note_off,,,,,32,0,8,,,,,0,,,74,100
20252,note_off,,,,,92,0,11,,,,,3,,,74,100
20256,note_on,,,,,32,0,9,,,,,1,,,78,70
20256,note_on,,,,,4,0,11,,,,,3,,,71,70
20256,note_on,,,,,32,0,10,,,,,2,,,74,70
20256,note_on,,,,,16,0,8,,,,,0,,,83,70
20288,note_off,,,,,128,0,12,,,,,4,,,66,100
20288,note_off,,,,,0,0,12,,,,,4,,,71,100
20288,note_off,,,,,32,0,8,,,,,0,,,83,100
20288,note_off,,,,,128,0,13,,,,,5,,,47,100
20304,note_on,,,,,16,0,8,,,,,0,,,74,70
20320,note_off,,,,,64,0,9,,,,,1,,,78,100
20320,note_off,,,,,64,0,11,,,,,3,,,71,100
20320,note_off,,,,,64,0,10,,,,,2,,,74,100
20336,note_off,,,,,32,0,8,,,,,0,,,74,100
20352,note_on,,,,,16,0,8,,,,,0,,,66,70
20352,note_on,,,,,64,0,13,,,,,5,,,47,100
20352,note_on,,,,,32,0,9,,,,,1,,,78,70
20352,note_on,,,,,64,0,12,,,,,4,,,66,60
20352,note_on,,,,,0,0,12,,,,,4,,,71,60
20352,note_on,,,,,32,0,10,,,,,2,,,71,70
20352,note_on,,,,,32,0,11,,,,,3,,,74,70
20384,note_off,,,,,32,0,8,,,,,0,,,66,100
20400,note_on,,,,,16,0,8,,,,,0,,,74,70
20416,note_off,,,,,64,0,10,,,,,2,,,71,100
20432,note_off,,,,,32,0,8,,,,,0,,,74,100
20444,note_off,,,,,92,0,9,,,,,1,,,78,100
20444,note_off,,,,,92,0,11,,,,,3,,,74,100
20448,note_on,,,,,4,0,11,,,,,3,,,71,70
20448,note_on,,,,,4,0,9,,,,,1,,,74,70
20448,note_on,,,,,16,0,8,,,,,0,,,83,70
20448,note_on,,,,,32,0,10,,,,,2,,,74,70
20480,note_off,,,,,32,0,8,,,,,0,,,83,100
20480,note_off,,,,,0,0,12,,,,,4,,,71,100
20480,note_off,,,,,128,0,12,,,,,4,,,66,100
20480,note_off,,,,,128,0,13,,,,,5,,,47,100
20496,note_on,,,,,16,0,8,,,,,0,,,74,70
20512,note_off,,,,,64,0,10,,,,,2,,,74,100
20512,note_off,,,,,64,0,11,,,,,3,,,71,100
20528,note_off,,,,,32,0,8,,,,,0,,,74,100
20540,note_off,,,,,92,0,9,,,,,1,,,74,100
20544,note_on,,,,,32,0,10,,,,,2,,,78,70
20544,note_on,,,,,32,0,11,,,,,3,,,74,70
20544,note_on,,,,,0,0,12,,,,,4,,,71,60
20544,note_on,,,,,64,0,12,,,,,4,,,66,60
20544,note_on,,,,,64,0,13,,,,,5,,,47,100
20544,note_on,,,,,4,0,9,,,,,1,,,71,70
20544,note_on,,,,,16,0,8,,,,,0,,,66,70
20576,note_off,,,,,32,0,8,,,,,0,,,66,100
20592,note_on,,,,,48,0,11,,,,,3,,,71,70
20592,note_on,,,,,16,0,8,,,,,0,,,74,70
20608,note_off,,,,,64,0,10,,,,,2,,,78,100
20608,note_off,,,,,64,0,9,,,,,1,,,71,100
20624,note_off,,,,,32,0,8,,,,,0,,,74,100
20636,note_off,,,,,44,0,11,,,,,3,,,74,100
20640,note_on,,,,,16,0,8,,,,,0,,,83,70
20640,note_on,,,,,32,0,9,,,,,1,,,78,70
20640,note_on,,,,,32,0,10,,,,,2,,,74,70
20656,note_off,,,,,20,0,11,,,,,3,,,71,100
20672,note_off,,,,,128,0,13,,,,,5,,,47,100
20672,note_off,,,,,32,0,8,,,,,0,,,83,100
20672,note_off,,,,,0,0,12,,,,,4,,,71,100
20672,note_off,,,,,128,0,12,,,,,4,,,66,100
20688,note_on,,,,,16,0,8,,,,,0,,,74,70
20704,note_off,,,,,64,0,10,,,,,2,,,74,100
20704,note_off,,,,,64,0,9,,,,,1,,,78,100
20720,note_off,,,,,32,0,8,,,,,0,,,74,100
20736,note_on,,,,,32,0,10,,,,,2,,,71,70
20736,note_on,,,,,16,0,8,,,,,0,,,66,70
20736,note_on,,,,,32,0,9,,,,,1,,,78,70
20736,note_on,,,,,64,0,12,,,,,4,,,71,60
20736,note_on,,,,,0,0,12,,,,,4,,,66,60
20736,note_on,,,,,64,0,13,,,,,5,,,45,100
20736,note_on,,,,,80,0,11,,,,,3,,,75,70
20768,note_off,,,,,32,0,8,,,,,0,,,66,100
20784,note_on,,,,,16,0,8,,,,,0,,,75,70
20800,note_off,,,,,64,0,10,,,,,2,,,71,100
20816,note_off,,,,,32,0,8,,,,,0,,,75,100
20828,note_off,,,,,92,0,11,,,,,3,,,75,100
20828,note_off,,,,,92,0,9,,,,,1,,,78,100
20832,note_on,,,,,4,0,11,,,,,3,,,71,70
20832,note_on,,,,,4,0,9,,,,,1,,,75,70
20832,note_on,,,,,32,0,10,,,,,2,,,75,70
20832,note_on,,,,,16,0,8,,,,,0,,,83,70
20864,note_off,,,,,32,0,8,,,,,0,,,83,100
20864,note_off,,,,,128,0,13,,,,,5,,,45,100
20864,note_off,,,,,0,0,12,,,,,4,,,66,100
20864,note_off,,,,,128,0,12,,,,,4,,,71,100
20880,note_on,,,,,16,0,8,,,,,0,,,75,70
20896,note_off,,,,,64,0,11,,,,,3,,,71,100
20896,note_off,,,,,64,0,10,,,,,2,,,75,100
20912,note_off,,,,,32,0,8,,,,,0,,,75,100
20924,note_off,,,,,92,0,9,,,,,1,,,75,100
20928,note_on,,,,,0,0,12,,,,,4,,,66,60
20928,note_on,,,,,4,0,9,,,,,1,,,69,70
20928,note_on,,,,,32,0,10,,,,,2,,,78,70
20928,note_on,,,,,64,0,13,,,,,5,,,45,100
20928,note_on,,,,,16,0,8,,,,,0,,,66,70
20928,note_on,,,,,64,0,12,,,,,4,,,71,60
20928,note_on,,,,,32,0,11,,,,,3,,,75,70
20960,note_off,,,,,32,0,8,,,,,0,,,66,100
20976,note_on,,,,,16,0,8,,,,,0,,,75,70
20992,note_off,,,,,64,0,10,,,,,2,,,78,100
20992,note_off,,,,,64,0,9,,,,,1,,,69,100
21008,note_off,,,,,32,0,8,,,,,0,,,75,100
21020,note_off,,,,,92,0,11,,,,,3,,,75,100
21024,note_on,,,,,32,0,10,,,,,2,,,75,70
21024,note_on,,,,,32,0,9,,,,,1,,,78,70
21024,note_on,,,,,16,0,8,,,,,0,,,83,70
21024,note_on,,,,,4,0,11,,,,,3,,,71,70
21056,note_off,,,,,32,0,8,,,,,0,,,83,100
21056,note_off,,,,,128,0,13,,,,,5,,,45,100
21056,note_off,,,,,128,0,12,,,,,4,,,71,100
21056,note_off,,,,,0,0,12,,,,,4,,,66,100
21072,note_on,,,,,16,0,8,,,,,0,,,75,70
21088,note_off,,,,,64,0,11,,,,,3,,,71,100
21088,note_off,,,,,64,0,9,,,,,1,,,78,100
21088,note_off,,,,,64,0,10,,,,,2,,,75,100
21104,note_off,,,,,32,0,8,,,,,0,,,75,100
21120,note_on,,,,,32,0,11,,,,,3,,,75,70
21120,note_on,,,,,64,0,13,,,,,5,,,45,100
21120,note_on,,,,,64,0,12,,,,,4,,,71,60
21120,note_on,,,,,0,0,12,,,,,4,,,66,60
21120,note_on,,,,,32,0,10,,,,,2,,,71,70
21120,note_on,,,,,32,0,9,,,,,1,,,78,70
21120,note_on,,,,,16,0,8,,,,,0,,,66,70
21152,note_off,,,,,32,0,8,,,,,0,,,66,100
21168,note_on,,,,,16,0,8,,,,,0,,,75,70
21184,note_off,,,,,64,0,10,,,,,2,,,71,100
21200,note_off,,,,,32,0,8,,,,,0,,,75,100
21212,note_off,,,,,92,0,9,,,,,1,,,78,100
21212,note_off,,,,,92,0,11,,,,,3,,,75,100
21216,note_on,,,,,32,0,10,,,,,2,,,75,70
21216,note_on,,,,,16,0,8,,,,,0,,,83,70
21216,note_on,,,,,4,0,9,,,,,1,,,75,70
21216,note_on,,,,,4,0,11,,,,,3,,,71,70
21248,note_off,,,,,128,0,13,,,,,5,,,45,100
21248,note_off,,,,,32,0,8,,,,,0,,,83,100
21248,note_off,,,,,0,0,12,,,,,4,,,66,100
21248,note_off,,,,,128,0,12,,,,,4,,,71,100
21264,note_on,,,,,16,0,8,,,,,0,,,75,70
21280,note_off,,,,,64,0,10,,,,,2,,,75,100
21280,note_off,,,,,64,0,11,,,,,3,,,71,100
21296,note_off,,,,,32,0,8,,,,,0,,,75,100
21308,note_off,,,,,92,0,9,,,,,1,,,75,100
21312,note_on,,,,,16,0,8,,,,,0,,,66,70
21312,note_on,,,,,32,0,10,,,,,2,,,78,70
21312,note_on,,,,,64,0,13,,,,,5,,,45,100
21312,note_on,,,,,64,0,12,,,,,4,,,71,60
21312,note_on,,,,,4,0,9,,,,,1,,,69,70
21312,note_on,,,,,0,0,12,,,,,4,,,66,60
21312,note_on,,,,,32,0,11,,,,,3,,,75,70
21344,note_off,,,,,32,0,8,,,,,0,,,66,100
21360,note_on,,,,,16,0,8,,,,,0,,,75,70
21376,note_off,,,,,64,0,9,,,,,1,,,69,100
21376,note_off,,,,,64,0,10,,,,,2,,,78,100
21392,note_off,,,,,32,0,8,,,,,0,,,75,100
21404,note_off,,,,,92,0,11,,,,,3,,,75,100
21408,note_on,,,,,32,0,10,,,,,2,,,75,70
21408,note_on,,,,,4,0,11,,,,,3,,,71,70
21408,note_on,,,,,32,0,9,,,,,1,,,78,70
21408,note_on,,,,,16,0,8,,,,,0,,,83,70
21440,note_off,,,,,128,0,12,,,,,4,,,71,100
21440,note_off,,,,,128,0,13,,,,,5,,,45,100
21440,note_off,,,,,0,0,12,,,,,4,,,66,100
21440,note_off,,,,,32,0,8,,,,,0,,,83,100
21456,note_on,,,,,16,0,8,,,,,0,,,75,70
21472,note_off,,,,,64,0,10,,,,,2,,,75,100
21472,note_off,,,,,64,0,11,,,,,3,,,71,100
21472,note_off,,,,,64,0,9,,,,,1,,,78,100
21488,note_off,,,,,32,0,8,,,,,0,,,75,100
21504,note_on,,,,,16,0,8,,,,,0,,,66,70
21504,note_on,,,,,0,0,12,,,,,4,,,66,60
21504,note_on,,,,,32,0,11,,,,,3,,,75,70
21504,note_on,,,,,32,0,9,,,,,1,,,78,70
21504,note_on,,,,,64,0,13,,,,,5,,,45,100
21504,note_on,,,,,32,0,10,,,,,2,,,71,70
21504,note_on,,,,,64,0,12,,,,,4,,,71,60
21536,note_off,,,,,32,0,8,,,,,0,,,66,100
21552,note_on,,,,,16,0,8,,,,,0,,,75,70
21568,note_off,,,,,64,0,10,,,,,2,,,71,100
21584,note_off,,,,,32,0,8,,,,,0,,,75,100
21596,note_off,,,,,92,0,9,,,,,1,,,78,100
21596,note_off,,,,,92,0,11,,,,,3,,,75,100
21600,note_on,,,,,16,0,8,,,,,0,,,83,70
21600,note_on,,,,,4,0,9,,,,,1,,,75,70
21600,note_on,,,,,32,0,10,,,,,2,,,75,70
21600,note_on,,,,,4,0,11,,,,,3,,,71,70
21632,note_off,,,,,128,0,13,,,,,5,,,45,100
21632,note_off,,,,,128,0,12,,,,,4,,,71,100
21632,note_off,,,,,0,0,12,,,,,4,,,66,100
21632,note_off,,,,,32,0,8,,,,,0,,,83,100
21648,note_on,,,,,16,0,8,,,,,0,,,75,70
21664,note_off,,,,,64,0,10,,,,,2,,,75,100
21664,note_off,,,,,64,0,11,,,,,3,,,71,100
21680,note_off,,,,,32,0,8,,,,,0,,,75,100
21692,note_off,,,,,92,0,9,,,,,1,,,75,100
21696,note_on,,,,,32,0,10,,,,,2,,,78,70
21696,note_on,,,,,32,0,11,,,,,3,,,75,70
21696,note_on,,,,,64,0,12,,,,,4,,,71,60
21696,note_on,,,,,4,0,9,,,,,1,,,69,70
21696,note_on,,,,,64,0,13,,,,,5,,,45,100
21696,note_on,,,,,16,0,8,,,,,0,,,66,70
21696,note_on,,,,,0,0,12,,,,,4,,,66,60
21728,note_off,,,,,32,0,8,,,,,0,,,66,100
21744,note_on,,,,,16,0,8,,,,,0,,,75,70
21760,note_off,,,,,64,0,10,,,,,2,,,78,100
21760,note_off,,,,,64,0,9,,,,,1,,,69,100
21776,note_off,,,,,32,0,8,,,,,0,,,75,100
21788,note_off,,,,,92,0,11,,,,,3,,,75,100
21792,note_on,,,,,16,0,8,,,,,0,,,83,70
21792,note_on,,,,,32,0,9,,,,,1,,,78,70
21792,note_on,,,,,4,0,11,,,,,3,,,71,70
21792,note_on,,,,,32,0,10,,,,,2,,,75,70
21824,note_off,,,,,128,0,12,,,,,4,,,71,100
21824,note_off,,,,,128,0,13,,,,,5,,,45,100
21824,note_off,,,,,32,0,8,,,,,0,,,83,100
21824,note_off,,,,,0,0,12,,,,,4,,,66,100
21840,note_on,,,,,16,0,8,,,,,0,,,75,70
21856,note_off,,,,,64,0,9,,,,,1,,,78,100
21856,note_off,,,,,64,0,11,,,,,3,,,71,100
21856,note_off,,,,,64,0,10,,,,,2,,,75,100
21872,note_off,,,,,32,0,8,,,,,0,,,75,100
21888,note_on,,,,,16,0,8,,,,,0,,,64,70
21888,note_on,,,,,0,0,12,,,,,4,,,71,60
21888,note_on,,,,,64,0,12,,,,,4,,,64,60
21888,note_on,,,,,32,0,10,,,,,2,,,71,70
21888,note_on,,,,,64,0,13,,,,,5,,,43,100
21888,note_on,,,,,32,0,11,,,,,3,,,76,70
21888,note_on,,,,,32,0,9,,,,,1,,,79,70
21920,note_off,,,,,32,0,8,,,,,0,,,64,100
21936,note_on,,,,,16,0,8,,,,,0,,,71,70
21952,note_off,,,,,64,0,10,,,,,2,,,71,100
21968,note_off,,,,,32,0,8,,,,,0,,,71,100
21980,note_off,,,,,92,0,9,,,,,1,,,79,100
21980,note_off,,,,,92,0,11,,,,,3,,,76,100
21984,note_on,,,,,4,0,9,,,,,1,,,76,70
21984,note_on,,,,,4,0,11,,,,,3,,,71,70
21984,note_on,,,,,32,0,10,,,,,2,,,76,70
21984,note_on,,,,,16,0,8,,,,,0,,,79,70
22016,note_off,,,,,128,0,13,,,,,5,,,43,100
22016,note_off,,,,,0,0,12,,,,,4,,,71,100
22016,note_off,,,,,128,0,12,,,,,4,,,64,100
22016,note_off,,,,,32,0,8,,,,,0,,,79,100
22032,note_on,,,,,16,0,8,,,,,0,,,71,70
22048,note_off,,,,,64,0,10,,,,,2,,,76,100
22048,note_off,,,,,64,0,11,,,,,3,,,71,100
22064,note_off,,,,,32,0,8,,,,,0,,,71,100
22076,note_off,,,,,92,0,9,,,,,1,,,76,100
22080,note_on,,,,,32,0,11,,,,,3,,,76,70
22080,note_on,,,,,64,0,12,,,,,4,,,64,60
22080,note_on,,,,,4,0,9,,,,,1,,,71,70
22080,note_on,,,,,64,0,13,,,,,5,,,43,100
22080,note_on,,,,,0,0,12,,,,,4,,,71,60
22080,note_on,,,,,32,0,10,,,,,2,,,79,70
22080,note_on,,,,,16,0,8,,,,,0,,,64,70
22112,note_off,,,,,32,0,8,,,,,0,,,64,100
22128,note_on,,,,,16,0,8,,,,,0,,,71,70
22144,note_off,,,,,64,0,9,,,,,1,,,71,100
22144,note_off,,,,,64,0,10,,,,,2,,,79,100
22160,note_off,,,,,32,0,8,,,,,0,,,71,100
22172,note_off,,,,,92,0,11,,,,,3,,,76,100
22176,note_on,,,,,32,0,9,,,,,1,,,79,70
22176,note_on,,,,,4,0,11,,,,,3,,,71,70
22176,note_on,,,,,32,0,10,,,,,2,,,76,70
22176,note_on,,,,,16,0,8,,,,,0,,,79,70
22208,note_off,,,,,0,0,12,,,,,4,,,71,100
22208,note_off,,,,,32,0,8,,,,,0,,,79,100
22208,note_off,,,,,128,0,12,,,,,4,,,64,100
22208,note_off,,,,,128,0,13,,,,,5,,,43,100
22224,note_on,,,,,16,0,8,,,,,0,,,71,70
22240,note_off,,,,,64,0,11,,,,,3,,,71,100
22240,note_off,,,,,64,0,9,,,,,1,,,79,100
22240,note_off,,,,,64,0,10,,,,,2,,,76,100
22256,note_off,,,,,32,0,8,,,,,0,,,71,100
22272,note_on,,,,,32,0,11,,,,,3,,,76,70
22272,note_on,,,,,32,0,9,,,,,1,,,79,70
22272,note_on,,,,,16,0,8,,,,,0,,,64,70
22272,note_on,,,,,64,0,12,,,,,4,,,64,60
22272,note_on,,,,,0,0,12,,,,,4,,,71,60
22272,note_on,,,,,64,0,13,,,,,5,,,52,100
22272,note_on,,,,,32,0,10,,,,,2,,,71,70
22304,note_off,,,,,32,0,8,,,,,0,,,64,100
22320,note_on,,,,,16,0,8,,,,,0,,,71,70
22336,note_off,,,,,64,0,10,,,,,2,,,71,100
22352,note_off,,,,,32,0,8,,,,,0,,,71,100
22364,note_off,,,,,92,0,11,,,,,3,,,76,100
22364,note_off,,,,,92,0,9,,,,,1,,,79,100
22368,note_on,,,,,4,0,11,,,,,3,,,71,70
22368,note_on,,,,,4,0,9,,,,,1,,,76,70
22368,note_on,,,,,32,0,10,,,,,2,,,76,70
22368,note_on,,,,,16,0,8,,,,,0,,,79,70
22400,note_off,,,,,128,0,12,,,,,4,,,64,100
22400,note_off,,,,,0,0,12,,,,,4,,,71,100
22400,note_off,,,,,32,0,8,,,,,0,,,79,100
22400,note_off,,,,,128,0,13,,,,,5,,,52,100
22416,note_on,,,,,16,0,8,,,,,0,,,71,70
22432,note_off,,,,,64,0,10,,,,,2,,,76,100
22432,note_off,,,,,64,0,11,,,,,3,,,71,100
22448,note_off,,,,,32,0,8,,,,,0,,,71,100
22460,note_off,,,,,92,0,9,,,,,1,,,76,100
22464,note_on,,,,,32,0,11,,,,,3,,,76,70
22464,note_on,,,,,32,0,10,,,,,2,,,79,70
22464,note_on,,,,,64,0,13,,,,,5,,,52,100
22464,note_on,,,,,4,0,9,,,,,1,,,71,70
22464,note_on,,,,,0,0,12,,,,,4,,,71,60
22464,note_on,,,,,64,0,12,,,,,4,,,64,60
22464,note_on,,,,,16,0,8,,,,,0,,,64,70
22496,note_off,,,,,32,0,8,,,,,0,,,64,100
22512,note_on,,,,,16,0,8,,,,,0,,,71,70
22528,note_off,,,,,64,0,9,,,,,1,,,71,100
22528,note_off,,,,,64,0,10,,,,,2,,,79,100
22544,note_off,,,,,32,0,8,,,,,0,,,71,100
22556,note_off,,,,,92,0,11,,,,,3,,,76,100
22560,note_on,,,,,16,0,8,,,,,0,,,79,70
22560,note_on,,,,,32,0,10,,,,,2,,,76,70
22560,note_on,,,,,4,0,11,,,,,3,,,71,70
22560,note_on,,,,,32,0,9,,,,,1,,,79,70
22592,note_off,,,,,32,0,8,,,,,0,,,79,100
22592,note_off,,,,,0,0,12,,,,,4,,,71,100
22592,note_off,,,,,128,0,12,,,,,4,,,64,100
22592,note_off,,,,,128,0,13,,,,,5,,,52,100
22608,note_on,,,,,16,0,8,,,,,0,,,71,70
22624,note_off,,,,,64,0,10,,,,,2,,,76,100
22624,note_off,,,,,64,0,11,,,,,3,,,71,100
22624,note_off,,,,,64,0,9,,,,,1,,,79,100
22640,note_off,,,,,32,0,8,,,,,0,,,71,100
22656,note_on,,,,,0,0,12,,,,,4,,,71,60
22656,note_on,,,,,64,0,12,,,,,4,,,64,60
22656,note_on,,,,,16,0,8,,,,,0,,,64,70
22656,note_on,,,,,32,0,10,,,,,2,,,71,70
22656,note_on,,,,,32,0,11,,,,,3,,,76,70
22656,note_on,,,,,64,0,13,,,,,5,,,52,100
22656,note_on,,,,,32,0,9,,,,,1,,,79,70
22688,note_off,,,,,32,0,8,,,,,0,,,64,100
22704,note_on,,,,,16,0,8,,,,,0,,,71,70
22720,note_off,,,,,64,0,10,,,,,2,,,71,100
22736,note_off,,,,,32,0,8,,,,,0,,,71,100
22748,note_off,,,,,92,0,9,,,,,1,,,79,100
22748,note_off,,,,,92,0,11,,,,,3,,,76,100
22752,note_on,,,,,32,0,10,,,,,2,,,76,70
22752,note_on,,,,,16,0,8,,,,,0,,,79,70
22752,note_on,,,,,4,0,9,,,,,1,,,76,70
22752,note_on,,,,,4,0,11,,,,,3,,,71,70
22784,note_off,,,,,32,0,8,,,,,0,,,79,100
22784,note_off,,,,,0,0,12,,,,,4,,,71,100
22784,note_off,,,,,128,0,12,,,,,4,,,64,100
22784,note_off,,,,,128,0,13,,,,,5,,,52,100
22800,note_on,,,,,16,0,8,,,,,0,,,71,70
22816,note_off,,,,,64,0,10,,,,,2,,,76,100
22816,note_off,,,,,64,0,11,,,,,3,,,71,100
22832,note_off,,,,,32,0,8,,,,,0,,,71,100
22844,note_off,,,,,92,0,9,,,,,1,,,76,100
22848,note_on,,,,,32,0,10,,,,,2,,,79,70
22848,note_on,,,,,32,0,11,,,,,3,,,76,70
22848,note_on,,,,,64,0,13,,,,,5,,,52,100
22848,note_on,,,,,0,0,12,,,,,4,,,71,60
22848,note_on,,,,,64,0,12,,,,,4,,,64,60
22848,note_on,,,,,16,0,8,,,,,0,,,64,70
22848,note_on,,,,,4,0,9,,,,,1,,,71,70
22880,note_off,,,,,32,0,8,,,,,0,,,64,100
22896,note_on,,,,,48,0,11,,,,,3,,,71,70
22896,note_on,,,,,16,0,8,,,,,0,,,71,70
22912,note_off,,,,,64,0,10,,,,,2,,,79,100
22912,note_off,,,,,64,0,9,,,,,1,,,71,100
22928,note_off,,,,,32,0,8,,,,,0,,,71,100
22940,note_off,,,,,44,0,11,,,,,3,,,76,100
22944,note_on,,,,,32,0,10,,,,,2,,,76,70
22944,note_on,,,,,32,0,9,,,,,1,,,79,70
22944,note_on,,,,,16,0,8,,,,,0,,,79,70
22960,note_off,,,,,20,0,11,,,,,3,,,71,100
22976,note_off,,,,,0,0,12,,,,,4,,,71,100
22976,note_off,,,,,128,0,12,,,,,4,,,64,100
22976,note_off,,,,,32,0,8,,,,,0,,,79,100
22976,note_off,,,,,128,0,13,,,,,5,,,52,100
22992,note_on,,,,,16,0,8,,,,,0,,,71,70
23008,note_off,,,,,64,0,9,,,,,1,,,79,100
23008,note_off,,,,,64,0,10,,,,,2,,,76,100
23024,note_off,,,,,32,0,8,,,,,0,,,71,100
23040,note_on,,,,,32,0,10,,,,,2,,,71,70
23040,note_on,,,,,32,0,9,,,,,1,,,80,70
23040,note_on,,,,,64,0,13,,,,,5,,,50,100
23040,note_on,,,,,16,0,8,,,,,0,,,64,70
23040,note_on,,,,,0,0,12,,,,,4,,,71,60
23040,note_on,,,,,64,0,12,,,,,4,,,64,60
23040,note_on,,,,,80,0,11,,,,,3,,,76,70
23072,note_off,,,,,32,0,8,,,,,0,,,64,100
23088,note_on,,,,,16,0,8,,,,,0,,,71,70
23104,note_off,,,,,64,0,10,,,,,2,,,71,100
23120,note_off,,,,,32,0,8,,,,,0,,,71,100
23132,note_off,,,,,92,0,11,,,,,3,,,76,100
23132,note_off,,,,,92,0,9,,,,,1,,,80,100
23136,note_on,,,,,4,0,9,,,,,1,,,76,70
23136,note_on,,,,,4,0,11,,,,,3,,,71,70
23136,note_on,,,,,32,0,10,,,,,2,,,76,70
23136,note_on,,,,,16,0,8,,,,,0,,,80,70
23168,note_off,,,,,32,0,8,,,,,0,,,80,100
23168,note_off,,,,,128,0,13,,,,,5,,,50,100
23168,note_off,,,,,0,0,12,,,,,4,,,71,100
23168,note_off,,,,,128,0,12,,,,,4,,,64,100
23184,note_on,,,,,16,0,8,,,,,0,,,71,70
23200,note_off,,,,,64,0,10,,,,,2,,,76,100
23200,note_off,,,,,64,0,11,,,,,3,,,71,100
23216,note_off,,,,,32,0,8,,,,,0,,,71,100
23228,note_off,,,,,92,0,9,,,,,1,,,76,100
23232,note_on,,,,,32,0,10,,,,,2,,,80,70
23232,note_on,,,,,16,0,8,,,,,0,,,64,70
23232,note_on,,,,,0,0,12,,,,,4,,,71,60
23232,note_on,,,,,64,0,12,,,,,4,,,64,60
23232,note_on,,,,,4,0,9,,,,,1,,,71,70
23232,note_on,,,,,32,0,11,,,,,3,,,76,70
23232,note_on,,,,,64,0,13,,,,,5,,,50,100
23264,note_off,,,,,32,0,8,,,,,0,,,64,100
23280,note_on,,,,,16,0,8,,,,,0,,,71,70
23296,note_off,,,,,64,0,9,,,,,1,,,71,100
23296,note_off,,,,,64,0,10,,,,,2,,,80,100
23312,note_off,,,,,32,0,8,,,,,0,,,71,100
23324,note_off,,,,,92,0,11,,,,,3,,,76,100
23328,note_on,,,,,32,0,9,,,,,1,,,80,70
23328,note_on,,,,,4,0,11,,,,,3,,,71,70
23328,note_on,,,,,16,0,8,,,,,0,,,80,70
23328,note_on,,,,,32,0,10,,,,,2,,,76,70
23360,note_off,,,,,0,0,12,,,,,4,,,71,100
23360,note_off,,,,,32,0,8,,,,,0,,,80,100
23360,note_off,,,,,128,0,13,,,,,5,,,50,100
23360,note_off,,,,,128,0,12,,,,,4,,,64,100
23376,note_on,,,,,16,0,8,,,,,0,,,71,70
23392,note_off,,,,,64,0,10,,,,,2,,,76,100
23392,note_off,,,,,64,0,9,,,,,1,,,80,100
23392,note_off,,,,,64,0,11,,,,,3,,,71,100
23408,note_off,,,,,32,0,8,,,,,0,,,71,100
23424,note_on,,,,,64,0,13,,,,,5,,,50,100
23424,note_on,,,,,32,0,11,,,,,3,,,76,70
23424,note_on,,,,,64,0,12,,,,,4,,,64,60
23424,note_on,,,,,32,0,9,,,,,1,,,80,70
23424,note_on,,,,,0,0,12,,,,,4,,,71,60
23424,note_on,,,,,16,0,8,,,,,0,,,64,70
23424,note_on,,,,,32,0,10,,,,,2,,,71,70
23456,note_off,,,,,32,0,8,,,,,0,,,64,100
23472,note_on,,,,,16,0,8,,,,,0,,,71,70
23488,note_off,,,,,64,0,10,,,,,2,,,71,100
23504,note_off,,,,,32,0,8,,,,,0,,,71,100
23516,note_off,,,,,92,0,9,,,,,1,,,80,100
23516,note_off,,,,,92,0,11,,,,,3,,,76,100
23520,note_on,,,,,4,0,11,,,,,3,,,71,70
23520,note_on,,,,,4,0,9,,,,,1,,,76,70
23520,note_on,,,,,16,0,8,,,,,0,,,80,70
23520,note_on,,,,,32,0,10,,,,,2,,,76,70
23552,note_off,,,,,128,0,13,,,,,5,,,50,100
23552,note_off,,,,,32,0,8,,,,,0,,,80,100
23552,note_off,,,,,128,0,12,,,,,4,,,64,100
23552,note_off,,,,,0,0,12,,,,,4,,,71,100
23568,note_on,,,,,16,0,8,,,,,0,,,71,70
23584,note_off,,,,,64,0,10,,,,,2,,,76,100
23584,note_off,,,,,64,0,11,,,,,3,,,71,100
23600,note_off,,,,,32,0,8,,,,,0,,,71,100
23612,note_off,,,,,92,0,9,,,,,1,,,76,100
23616,note_on,,,,,4,0,9,,,,,1,,,71,70
23616,note_on,,,,,32,0,10,,,,,2,,,80,70
23616,note_on,,,,,64,0,13,,,,,5,,,50,100
23616,note_on,,,,,16,0,8,,,,,0,,,64,70
23616,note_on,,,,,0,0,12,,,,,4,,,71,60
23616,note_on,,,,,32,0,11,,,,,3,,,76,70
23616,note_on,,,,,64,0,12,,,,,4,,,64,60
23648,note_off,,,,,32,0,8,,,,,0,,,64,100
23664,note_on,,,,,16,0,8,,,,,0,,,71,70
23680,note_off,,,,,64,0,10,,,,,2,,,80,100
23680,note_off,,,,,64,0,9,,,,,1,,,71,100
23696,note_off,,,,,32,0,8,,,,,0,,,71,100
23708,note_off,,,,,92,0,11,,,,,3,,,76,100
23712,note_on,,,,,16,0,8,,,,,0,,,80,70
23712,note_on,,,,,32,0,9,,,,,1,,,80,70
23712,note_on,,,,,4,0,11,,,,,3,,,71,70
23712,note_on,,,,,32,0,10,,,,,2,,,76,70
23744,note_off,,,,,0,0,12,,,,,4,,,71,100
23744,note_off,,,,,128,0,12,,,,,4,,,64,100
23744,note_off,,,,,128,0,13,,,,,5,,,50,100
23744,note_off,,,,,32,0,8,,,,,0,,,80,100
23760,note_on,,,,,16,0,8,,,,,0,,,71,70
23776,note_off,,,,,64,0,9,,,,,1,,,80,100
23776,note_off,,,,,64,0,10,,,,,2,,,76,100
23776,note_off,,,,,64,0,11,,,,,3,,,71,100
23792,note_off,,,,,32,0,8,,,,,0,,,71,100
23808,note_on,,,,,64,0,13,,,,,5,,,50,100
23808,note_on,,,,,32,0,9,,,,,1,,,80,70
23808,note_on,,,,,16,0,8,,,,,0,,,64,70
23808,note_on,,,,,32,0,11,,,,,3,,,76,70
23808,note_on,,,,,64,0,12,,,,,4,,,64,60
23808,note_on,,,,,32,0,10,,,,,2,,,71,70
23808,note_on,,,,,0,0,12,,,,,4,,,71,60
23840,note_off,,,,,32,0,8,,,,,0,,,64,100
23856,note_on,,,,,16,0,8,,,,,0,,,71,70
23872,note_off,,,,,64,0,10,,,,,2,,,71,100
23888,note_off,,,,,32,0,8,,,,,0,,,71,100
23900,note_off,,,,,92,0,11,,,,,3,,,76,100
23900,note_off,,,,,92,0,9,,,,,1,,,80,100
23904,note_on,,,,,4,0,11,,,,,3,,,71,70
23904,note_on,,,,,16,0,8,,,,,0,,,80,70
23904,note_on,,,,,32,0,10,,,,,2,,,76,70
23904,note_on,,,,,4,0,9,,,,,1,,,76,70
23936,note_off,,,,,128,0,13,,,,,5,,,50,100
23936,note_off,,,,,128,0,12,,,,,4,,,64,100
23936,note_off,,,,,32,0,8,,,,,0,,,80,100
23936,note_off,,,,,0,0,12,,,,,4,,,71,100
23952,note_on,,,,,16,0,8,,,,,0,,,71,70
23968,note_off,,,,,64,0,11,,,,,3,,,71,100
23968,note_off,,,,,64,0,10,,,,,2,,,76,100
23984,note_off,,,,,32,0,8,,,,,0,,,71,100
23996,note_off,,,,,92,0,9,,,,,1,,,76,100
24000,note_on,,,,,64,0,12,,,,,4,,,64,60
24000,note_on,,,,,4,0,9,,,,,1,,,71,70
24000,note_on,,,,,64,0,13,,,,,5,,,50,100
24000,note_on,,,,,32,0,10,,,,,2,,,80,70
24000,note_on,,,,,32,0,11,,,,,3,,,76,70
24000,note_on,,,,,0,0,12,,,,,4,,,71,60
24000,note_on,,,,,16,0,8,,,,,0,,,64,70
24032,note_off,,,,,32,0,8,,,,,0,,,64,100
24048,note_on,,,,,16,0,8,,,,,0,,,71,70
24064,note_off,,,,,64,0,10,,,,,2,,,80,100
24064,note_off,,,,,64,0,9,,,,,1,,,71,100
24080,note_off,,,,,32,0,8,,,,,0,,,71,100
24092,note_off,,,,,92,0,11,,,,,3,,,76,100
24096,note_on,,,,,4,0,11,,,,,3,,,71,70
24096,note_on,,,,,32,0,9,,,,,1,,,80,70
24096,note_on,,,,,32,0,10,,,,,2,,,76,70
24096,note_on,,,,,16,0,8,,,,,0,,,80,70
24128,note_off,,,,,128,0,12,,,,,4,,,64,100
24128,note_off,,,,,0,0,12,,,,,4,,,71,100
24128,note_off,,,,,128,0,13,,,,,5,,,50,100
24128,note_off,,,,,32,0,8,,,,,0,,,80,100
24144,note_on,,,,,16,0,8,,,,,0,,,71,70
24160,note_off,,,,,64,0,10,,,,,2,,,76,100
24160,note_off,,,,,64,0,11,,,,,3,,,71,100
24160,note_off,,,,,64,0,9,,,,,1,,,80,100
24176,note_off,,,,,32,0,8,,,,,0,,,71,100
24192,note_on,,,,,16,0,8,,,,,0,,,64,70
24192,note_on,,,,,64,0,13,,,,,5,,,49,100
24192,note_on,,,,,32,0,9,,,,,1,,,81,70
24192,note_on,,,,,32,0,11,,,,,3,,,76,70
24192,note_on,,,,,32,0,10,,,,,2,,,73,70
24192,note_on,,,,,0,0,12,,,,,4,,,73,60
24192,note_on,,,,,64,0,12,,,,,4,,,64,60
24224,note_off,,,,,32,0,8,,,,,0,,,64,100
24240,note_on,,,,,16,0,8,,,,,0,,,72,70
24256,note_off,,,,,64,0,10,,,,,2,,,73,100
24272,note_off,,,,,32,0,8,,,,,0,,,72,100
24284,note_off,,,,,92,0,11,,,,,3,,,76,100
24284,note_off,,,,,92,0,9,,,,,1,,,81,100
24288,note_on,,,,,16,0,8,,,,,0,,,81,70
24288,note_on,,,,,4,0,9,,,,,1,,,76,70
24288,note_on,,,,,32,0,10,,,,,2,,,76,70
24288,note_on,,,,,4,0,11,,,,,3,,,73,70
24320,note_off,,,,,32,0,8,,,,,0,,,81,100
24320,note_off,,,,,128,0,12,,,,,4,,,64,100
24320,note_off,,,,,128,0,13,,,,,5,,,49,100
24320,note_off,,,,,0,0,12,,,,,4,,,73,100
24336,note_on,,,,,16,0,8,,,,,0,,,72,70
24352,note_off,,,,,64,0,10,,,,,2,,,76,100
24352,note_off,,,,,64,0,11,,,,,3,,,73,100
24368,note_off,,,,,32,0,8,,,,,0,,,72,100
24380,note_off,,,,,92,0,9,,,,,1,,,76,100
24384,note_on,,,,,32,0,11,,,,,3,,,76,70
24384,note_on,,,,,0,0,12,,,,,4,,,73,60
24384,note_on,,,,,64,0,12,,,,,4,,,64,60
24384,note_on,,,,,32,0,10,,,,,2,,,81,70
24384,note_on,,,,,4,0,9,,,,,1,,,73,70
24384,note_on,,,,,64,0,13,,,,,5,,,49,100
24384,note_on,,,,,16,0,8,,,,,0,,,64,70
24416,note_off,,,,,32,0,8,,,,,0,,,64,100
24432,note_on,,,,,16,0,8,,,,,0,,,72,70
24448,note_off,,,,,64,0,9,,,,,1,,,73,100
24448,note_off,,,,,64,0,10,,,,,2,,,81,100
24464,note_off,,,,,32,0,8,,,,,0,,,72,100
24476,note_off,,,,,92,0,11,,,,,3,,,76,100
24480,note_on,,,,,4,0,11,,,,,3,,,73,70
24480,note_on,,,,,32,0,9,,,,,1,,,81,70
24480,note_on,,,,,16,0,8,,,,,0,,,81,70
24480,note_on,,,,,32,0,10,,,,,2,,,76,70
24512,note_off,,,,,32,0,8,,,,,0,,,81,100
24512,note_off,,,,,128,0,13,,,,,5,,,49,100
24512,note_off,,,,,128,0,12,,,,,4,,,64,100
24512,note_off,,,,,0,0,12,,,,,4,,,73,100
24528,note_on,,,,,16,0,8,,,,,0,,,72,70
24544,note_off,,,,,64,0,9,,,,,1,,,81,100
24544,note_off,,,,,64,0,10,,,,,2,,,76,100
24544,note_off,,,,,64,0,11,,,,,3,,,73,100
24560,note_off,,,,,32,0,8,,,,,0,,,72,100
24576,note_on,,,,,0,0,12,,,,,4,,,73,60
24576,note_on,,,,,32,0,9,,,,,1,,,81,70
24576,note_on,,,,,32,0,11,,,,,3,,,76,70
24576,note_on,,,,,64,0,13,,,,,5,,,49,100
24576,note_on,,,,,64,0,12,,,,,4,,,64,60
24576,note_on,,,,,32,0,10,,,,,2,,,73,70
24576,note_on,,,,,16,0,8,,,,,0,,,64,70
24608,note_off,,,,,32,0,8,,,,,0,,,64,100
24624,note_on,,,,,16,0,8,,,,,0,,,72,70
24640,note_off,,,,,64,0,10,,,,,2,,,73,100
24656,note_off,,,,,32,0,8,,,,,0,,,72,100
24668,note_off,,,,,92,0,9,,,,,1,,,81,100
24668,note_off,,,,,92,0,11,,,,,3,,,76,100
24672,note_on,,,,,4,0,9,,,,,1,,,76,70
24672,note_on,,,,,16,0,8,,,,,0,,,81,70
24672,note_on,,,,,32,0,10,,,,,2,,,76,70
24672,note_on,,,,,4,0,11,,,,,3,,,73,70
24704,note_off,,,,,0,0,12,,,,,4,,,73,100
24704,note_off,,,,,32,0,8,,,,,0,,,81,100
24704,note_off,,,,,128,0,13,,,,,5,,,49,100
24704,note_off,,,,,128,0,12,,,,,4,,,64,100
24720,note_on,,,,,16,0,8,,,,,0,,,72,70
24736,note_off,,,,,64,0,11,,,,,3,,,73,100
24736,note_off,,,,,64,0,10,,,,,2,,,76,100
24752,note_off,,,,,32,0,8,,,,,0,,,72,100
24764,note_off,,,,,92,0,9,,,,,1,,,76,100
24768,note_on,,,,,32,0,10,,,,,2,,,81,70
24768,note_on,,,,,16,0,8,,,,,0,,,64,70
24768,note_on,,,,,0,0,12,,,,,4,,,73,60
24768,note_on,,,,,64,0,12,,,,,4,,,64,60
24768,note_on,,,,,4,0,9,,,,,1,,,73,70
24768,note_on,,,,,32,0,11,,,,,3,,,76,70
24768,note_on,,,,,64,0,13,,,,,5,,,49,100
24800,note_off,,,,,32,0,8,,,,,0,,,64,100
24816,note_on,,,,,16,0,8,,,,,0,,,72,70
24832,note_off,,,,,64,0,10,,,,,2,,,81,100
24832,note_off,,,,,64,0,9,,,,,1,,,73,100
24848,note_off,,,,,32,0,8,,,,,0,,,72,100
24860,note_off,,,,,92,0,11,,,,,3,,,76,100
24864,note_on,,,,,16,0,8,,,,,0,,,81,70
24864,note_on,,,,,4,0,11,,,,,3,,,73,70
24864,note_on,,,,,32,0,9,,,,,1,,,81,70
24864,note_on,,,,,32,0,10,,,,,2,,,76,70
24896,note_off,,,,,32,0,8,,,,,0,,,81,100
24896,note_off,,,,,128,0,13,,,,,5,,,49,100
24896,note_off,,,,,128,0,12,,,,,4,,,64,100
24896,note_off,,,,,0,0,12,,,,,4,,,73,100
24912,note_on,,,,,16,0,8,,,,,0,,,72,70
24928,note_off,,,,,64,0,9,,,,,1,,,81,100
24928,note_off,,,,,64,0,11,,,,,3,,,73,100
24928,note_off,,,,,64,0,10,,,,,2,,,76,100
24944,note_off,,,,,32,0,8,,,,,0,,,72,100
24960,note_on,,,,,32,0,10,,,,,2,,,73,70
24960,note_on,,,,,16,0,8,,,,,0,,,64,70
24960,note_on,,,,,32,0,9,,,,,1,,,81,70
24960,note_on,,,,,0,0,12,,,,,4,,,73,60
24960,note_on,,,,,32,0,11,,,,,3,,,76,70
24960,note_on,,,,,64,0,12,,,,,4,,,64,60
24960,note_on,,,,,64,0,13,,,,,5,,,49,100
24992,note_off,,,,,32,0,8,,,,,0,,,64,100
25008,note_on,,,,,16,0,8,,,,,0,,,72,70
25024,note_off,,,,,64,0,10,,,,,2,,,73,100
25040,note_off,,,,,32,0,8,,,,,0,,,72,100
25052,note_off,,,,,92,0,11,,,,,3,,,76,100
25052,note_off,,,,,92,0,9,,,,,1,,,81,100
25056,note_on,,,,,32,0,10,,,,,2,,,76,70
25056,note_on,,,,,4,0,11,,,,,3,,,73,70
25056,note_on,,,,,4,0,9,,,,,1,,,76,70
25056,note_on,,,,,16,0,8,,,,,0,,,81,70
25088,note_off,,,,,128,0,12,,,,,4,,,64,100
25088,note_off,,,,,0,0,12,,,,,4,,,73,100
25088,note_off,,,,,32,0,8,,,,,0,,,81,100
25088,note_off,,,,,128,0,13,,,,,5,,,49,100
25104,note_on,,,,,16,0,8,,,,,0,,,72,70
25120,note_off,,,,,64,0,10,,,,,2,,,76,100
25120,note_off,,,,,64,0,11,,,,,3,,,73,100
25136,note_off,,,,,32,0,8,,,,,0,,,72,100
25148,note_off,,,,,92,0,9,,,,,1,,,76,100
25152,note_on,,,,,0,0,12,,,,,4,,,73,60
25152,note_on,,,,,32,0,10,,,,,2,,,81,70
25152,note_on,,,,,16,0,8,,,,,0,,,64,70
25152,note_on,,,,,64,0,12,,,,,4,,,64,60
25152,note_on,,,,,32,0,11,,,,,3,,,76,70
25152,note_on,,,,,64,0,13,,,,,5,,,49,100
25152,note_on,,,,,4,0,9,,,,,1,,,73,70
25184,note_off,,,,,32,0,8,,,,,0,,,64,100
25200,note_on,,,,,48,0,11,,,,,3,,,73,70
25200,note_on,,,,,16,0,8,,,,,0,,,72,70
25216,note_off,,,,,64,0,9,,,,,1,,,73,100
25216,note_off,,,,,64,0,10,,,,,2,,,81,100
25232,note_off,,,,,32,0,8,,,,,0,,,72,100
25244,note_off,,,,,44,0,11,,,,,3,,,76,100
25248,note_on,,,,,32,0,10,,,,,2,,,76,70
25248,note_on,,,,,32,0,9,,,,,1,,,81,70
25248,note_on,,,,,16,0,8,,,,,0,,,81,70
25264,note_off,,,,,20,0,11,,,,,3,,,73,100
25280,note_off,,,,,128,0,12,,,,,4,,,64,100
25280,note_off,,,,,0,0,12,,,,,4,,,73,100
25280,note_off,,,,,32,0,8,,,,,0,,,81,100
25280,note_off,,,,,128,0,13,,,,,5,,,49,100
25296,note_on,,,,,16,0,8,,,,,0,,,72,70
25312,note_off,,,,,64,0,9,,,,,1,,,81,100
25312,note_off,,,,,64,0,10,,,,,2,,,76,100
25328,note_off,,,,,32,0,8,,,,,0,,,72,100
25344,note_on,,,,,80,0,11,,,,,3,,,76,70
25344,note_on,,,,,32,0,9,,,,,1,,,82,70
25344,note_on,,,,,16,0,8,,,,,0,,,64,70
25344,note_on,,,,,64,0,12,,,,,4,,,66,60
25344,note_on,,,,,0,0,12,,,,,4,,,70,60
25344,note_on,,,,,64,0,13,,,,,5,,,54,100
25344,note_on,,,,,32,0,10,,,,,2,,,73,70
25376,note_off,,,,,32,0,8,,,,,0,,,64,100
25392,note_on,,,,,16,0,8,,,,,0,,,72,70
25408,note_off,,,,,64,0,10,,,,,2,,,73,100
25424,note_off,,,,,32,0,8,,,,,0,,,72,100
25436,note_off,,,,,92,0,11,,,,,3,,,76,100
25436,note_off,,,,,92,0,9,,,,,1,,,82,100
25440,note_on,,,,,16,0,8,,,,,0,,,82,70
25440,note_on,,,,,4,0,9,,,,,1,,,76,70
25440,note_on,,,,,4,0,11,,,,,3,,,73,70
25440,note_on,,,,,32,0,10,,,,,2,,,76,70
25472,note_off,,,,,32,0,8,,,,,0,,,82,100
25472,note_off,,,,,128,0,13,,,,,5,,,54,100
25472,note_off,,,,,128,0,12,,,,,4,,,66,100
25472,note_off,,,,,0,0,12,,,,,4,,,70,100
25488,note_on,,,,,16,0,8,,,,,0,,,72,70
25504,note_off,,,,,64,0,11,,,,,3,,,73,100
25504,note_off,,,,,64,0,10,,,,,2,,,76,100
25520,note_off,,,,,32,0,8,,,,,0,,,72,100
25532,note_off,,,,,92,0,9,,,,,1,,,76,100
25536,note_on,,,,,64,0,12,,,,,4,,,66,60
25536,note_on,,,,,16,0,8,,,,,0,,,64,70
25536,note_on,,,,,32,0,10,,,,,2,,,82,70
25536,note_on,,,,,32,0,11,,,,,3,,,76,70
25536,note_on,,,,,0,0,12,,,,,4,,,70,60
25536,note_on,,,,,64,0,13,,,,,5,,,54,100
25536,note_on,,,,,4,0,9,,,,,1,,,73,70
25568,note_off,,,,,32,0,8,,,,,0,,,64,100
25584,note_on,,,,,16,0,8,,,,,0,,,72,70
25600,note_off,,,,,64,0,10,,,,,2,,,82,100
25600,note_off,,,,,64,0,9,,,,,1,,,73,100
25616,note_off,,,,,32,0,8,,,,,0,,,72,100
25628,note_off,,,,,92,0,11,,,,,3,,,76,100
25632,note_on,,,,,16,0,8,,,,,0,,,82,70
25632,note_on,,,,,4,0,11,,,,,3,,,73,70
25632,note_on,,,,,32,0,10,,,,,2,,,76,70
25632,note_on,,,,,32,0,9,,,,,1,,,82,70
25664,note_off,,,,,32,0,8,,,,,0,,,82,100
25664,note_off,,,,,128,0,12,,,,,4,,,66,100
25664,note_off,,,,,128,0,13,,,,,5,,,54,100
25664,note_off,,,,,0,0,12,,,,,4,,,70,100
25680,note_on,,,,,16,0,8,,,,,0,,,72,70
25696,note_off,,,,,64,0,11,,,,,3,,,73,100
25696,note_off,,,,,64,0,10,,,,,2,,,76,100
25696,note_off,,,,,64,0,9,,,,,1,,,82,100
25712,note_off,,,,,32,0,8,,,,,0,,,72,100
25728,note_on,,,,,16,0,8,,,,,0,,,64,70
25728,note_on,,,,,32,0,11,,,,,3,,,76,70
25728,note_on,,,,,32,0,9,,,,,1,,,82,70
25728,note_on,,,,,0,0,12,,,,,4,,,70,60
25728,note_on,,,,,32,0,10,,,,,2,,,73,70
25728,note_on,,,,,64,0,12,,,,,4,,,66,60
25728,note_on,,,,,64,0,13,,,,,5,,,54,100
25760,note_off,,,,,32,0,8,,,,,0,,,64,100
25776,note_on,,,,,16,0,8,,,,,0,,,72,70
25792,note_off,,,,,64,0,10,,,,,2,,,73,100
25808,note_off,,,,,32,0,8,,,,,0,,,72,100
25820,note_off,,,,,92,0,11,,,,,3,,,76,100
25820,note_off,,,,,92,0,9,,,,,1,,,82,100
25824,note_on,,,,,32,0,10,,,,,2,,,76,70
25824,note_on,,,,,4,0,9,,,,,1,,,76,70
25824,note_on,,,,,4,0,11,,,,,3,,,73,70
25824,note_on,,,,,16,0,8,,,,,0,,,82,70
25856,note_off,,,,,128,0,13,,,,,5,,,54,100
25856,note_off,,,,,128,0,12,,,,,4,,,66,100
25856,note_off,,,,,0,0,12,,,,,4,,,70,100
25856,note_off,,,,,32,0,8,,,,,0,,,82,100
25872,note_on,,,,,16,0,8,,,,,0,,,72,70
25888,note_off,,,,,64,0,11,,,,,3,,,73,100
25888,note_off,,,,,64,0,10,,,,,2,,,76,100
25904,note_off,,,,,32,0,8,,,,,0,,,72,100
25916,note_off,,,,,92,0,9,,,,,1,,,76,100
25920,note_on,,,,,16,0,8,,,,,0,,,64,70
25920,note_on,,,,,64,0,13,,,,,5,,,54,100
25920,note_on,,,,,32,0,10,,,,,2,,,82,70
25920,note_on,,,,,4,0,9,,,,,1,,,73,70
25920,note_on,,,,,64,0,12,,,,,4,,,66,60
25920,note_on,,,,,0,0,12,,,,,4,,,70,60
25920,note_on,,,,,32,0,11,,,,,3,,,76,70
25952,note_off,,,,,32,0,8,,,,,0,,,64,100
25968,note_on,,,,,16,0,8,,,,,0,,,72,70
25984,note_off,,,,,64,0,10,,,,,2,,,82,100
25984,note_off,,,,,64,0,9,,,,,1,,,73,100
26000,note_off,,,,,32,0,8,,,,,0,,,72,100
26012,note_off,,,,,92,0,11,,,,,3,,,76,100
26016,note_on,,,,,16,0,8,,,,,0,,,82,70
26016,note_on,,,,,32,0,10,,,,,2,,,76,70
26016,note_on,,,,,32,0,9,,,,,1,,,82,70
26016,note_on,,,,,4,0,11,,,,,3,,,73,70
26048,note_off,,,,,128,0,12,,,,,4,,,66,100
26048,note_off,,,,,128,0,13,,,,,5,,,54,100
26048,note_off,,,,,0,0,12,,,,,4,,,70,100
26048,note_off,,,,,32,0,8,,,,,0,,,82,100
26064,note_on,,,,,16,0,8,,,,,0,,,72,70
26080,note_off,,,,,64,0,9,,,,,1,,,82,100
26080,note_off,,,,,64,0,11,,,,,3,,,73,100
26080,note_off,,,,,64,0,10,,,,,2,,,76,100
26096,note_off,,,,,32,0,8,,,,,0,,,72,100
26112,note_on,,,,,64,0,12,,,,,4,,,66,60
26112,note_on,,,,,32,0,9,,,,,1,,,82,70
26112,note_on,,,,,32,0,10,,,,,2,,,73,70
26112,note_on,,,,,64,0,13,,,,,5,,,54,100
26112,note_on,,,,,32,0,11,,,,,3,,,76,70
26112,note_on,,,,,0,0,12,,,,,4,,,70,60
26112,note_on,,,,,16,0,8,,,,,0,,,64,70
26144,note_off,,,,,32,0,8,,,,,0,,,64,100
26160,note_on,,,,,16,0,8,,,,,0,,,72,70
26176,note_off,,,,,64,0,10,,,,,2,,,73,100
26192,note_off,,,,,32,0,8,,,,,0,,,72,100
26204,note_off,,,,,92,0,9,,,,,1,,,82,100
26204,note_off,,,,,92,0,11,,,,,3,,,76,100
26208,note_on,,,,,4,0,9,,,,,1,,,76,70
26208,note_on,,,,,4,0,11,,,,,3,,,73,70
26208,note_on,,,,,16,0,8,,,,,0,,,82,70
26208,note_on,,,,,32,0,10,,,,,2,,,76,70
26240,note_off,,,,,128,0,12,,,,,4,,,66,100
26240,note_off,,,,,0,0,12,,,,,4,,,70,100
26240,note_off,,,,,128,0,13,,,,,5,,,54,100
26240,note_off,,,,,32,0,8,,,,,0,,,82,100
26256,note_on,,,,,16,0,8,,,,,0,,,72,70
26272,note_off,,,,,64,0,10,,,,,2,,,76,100
26272,note_off,,,,,64,0,11,,,,,3,,,73,100
26288,note_off,,,,,32,0,8,,,,,0,,,72,100
26300,note_off,,,,,92,0,9,,,,,1,,,76,100
26304,note_on,,,,,64,0,13,,,,,5,,,54,100
26304,note_on,,,,,4,0,9,,,,,1,,,73,70
26304,note_on,,,,,32,0,10,,,,,2,,,82,70
26304,note_on,,,,,16,0,8,,,,,0,,,64,70
26304,note_on,,,,,0,0,12,,,,,4,,,70,60
26304,note_on,,,,,64,0,12,,,,,4,,,66,60
26304,note_on,,,,,32,0,11,,,,,3,,,76,70
26336,note_off,,,,,32,0,8,,,,,0,,,64,100
26352,note_on,,,,,16,0,8,,,,,0,,,72,70
26368,note_off,,,,,64,0,9,,,,,1,,,73,100
26368,note_off,,,,,64,0,10,,,,,2,,,82,100
26384,note_off,,,,,32,0,8,,,,,0,,,72,100
26396,note_off,,,,,92,0,11,,,,,3,,,76,100
26400,note_on,,,,,32,0,10,,,,,2,,,76,70
26400,note_on,,,,,4,0,11,,,,,3,,,73,70
26400,note_on,,,,,16,0,8,,,,,0,,,82,70
26400,note_on,,,,,32,0,9,,,,,1,,,82,70
26432,note_off,,,,,0,0,12,,,,,4,,,70,100
26432,note_off,,,,,128,0,13,,,,,5,,,54,100
26432,note_off,,,,,32,0,8,,,,,0,,,82,100
26432,note_off,,,,,128,0,12,,,,,4,,,66,100
26448,note_on,,,,,16,0,8,,,,,0,,,72,70
26464,note_off,,,,,64,0,10,,,,,2,,,76,100
26464,note_off,,,,,64,0,11,,,,,3,,,73,100
26464,note_off,,,,,64,0,9,,,,,1,,,82,100
26480,note_off,,,,,32,0,8,,,,,0,,,72,100
26496,note_on,,,,,64,0,13,,,,,5,,,47,100
26496,note_on,,,,,32,0,9,,,,,1,,,83,70
26496,note_on,,,,,32,0,10,,,,,2,,,74,70
26496,note_on,,,,,64,0,12,,,,,4,,,62,60
26496,note_on,,,,,32,0,11,,,,,3,,,78,70
26496,note_on,,,,,16,0,8,,,,,0,,,66,70
26496,note_on,,,,,0,0,12,,,,,4,,,66,60
26528,note_off,,,,,32,0,8,,,,,0,,,66,100
26544,note_on,,,,,16,0,8,,,,,0,,,74,70
26560,note_off,,,,,64,0,10,,,,,2,,,74,100
26576,note_off,,,,,32,0,8,,,,,0,,,74,100
26588,note_off,,,,,92,0,9,,,,,1,,,83,100
26588,note_off,,,,,92,0,11,,,,,3,,,78,100
26592,note_on,,,,,4,0,11,,,,,3,,,74,70
26592,note_on,,,,,32,0,10,,,,,2,,,78,70
26592,note_on,,,,,4,0,9,,,,,1,,,78,70
26592,note_on,,,,,16,0,8,,,,,0,,,83,70
26624,note_off,,,,,32,0,8,,,,,0,,,83,100
26624,note_off,,,,,0,0,12,,,,,4,,,66,100
26624,note_off,,,,,128,0,12,,,,,4,,,62,100
26624,note_off,,,,,128,0,13,,,,,5,,,47,100
26640,note_on,,,,,16,0,8,,,,,0,,,74,70
26656,note_off,,,,,64,0,10,,,,,2,,,78,100
26656,note_off,,,,,64,0,11,,,,,3,,,74,100
26672,note_off,,,,,32,0,8,,,,,0,,,74,100
26684,note_off,,,,,92,0,9,,,,,1,,,78,100
26688,note_on,,,,,0,0,12,,,,,4,,,66,60
26688,note_on,,,,,4,0,9,,,,,1,,,74,70
26688,note_on,,,,,16,0,8,,,,,0,,,66,70
26688,note_on,,,,,32,0,10,,,,,2,,,83,70
26688,note_on,,,,,32,0,11,,,,,3,,,78,70
26688,note_on,,,,,64,0,12,,,,,4,,,62,60
26688,note_on,,,,,64,0,13,,,,,5,,,47,100
26720,note_off,,,,,32,0,8,,,,,0,,,66,100
26736,note_on,,,,,16,0,8,,,,,0,,,74,70
26752,note_off,,,,,64,0,9,,,,,1,,,74,100
26752,note_off,,,,,64,0,10,,,,,2,,,83,100
26768,note_off,,,,,32,0,8,,,,,0,,,74,100
26780,note_off,,,,,92,0,11,,,,,3,,,78,100
26784,note_on,,,,,4,0,11,,,,,3,,,74,70
26784,note_on,,,,,32,0,9,,,,,1,,,83,70
26784,note_on,,,,,16,0,8,,,,,0,,,83,70
26784,note_on,,,,,32,0,10,,,,,2,,,78,70
26816,note_off,,,,,128,0,13,,,,,5,,,47,100
26816,note_off,,,,,0,0,12,,,,,4,,,66,100
26816,note_off,,,,,128,0,12,,,,,4,,,62,100
26816,note_off,,,,,32,0,8,,,,,0,,,83,100
26832,note_on,,,,,16,0,8,,,,,0,,,74,70
26848,note_off,,,,,64,0,9,,,,,1,,,83,100
26848,note_off,,,,,64,0,10,,,,,2,,,78,100
26848,note_off,,,,,64,0,11,,,,,3,,,74,100
26864,note_off,,,,,32,0,8,,,,,0,,,74,100
26880,note_on,,,,,32,0,10,,,,,2,,,74,70
26880,note_on,,,,,0,0,12,,,,,4,,,66,60
26880,note_on,,,,,64,0,12,,,,,4,,,62,60
26880,note_on,,,,,32,0,11,,,,,3,,,78,70
26880,note_on,,,,,32,0,9,,,,,1,,,83,70
26880,note_on,,,,,64,0,13,,,,,5,,,47,100
26880,note_on,,,,,16,0,8,,,,,0,,,66,70
26912,note_off,,,,,32,0,8,,,,,0,,,66,100
26928,note_on,,,,,16,0,8,,,,,0,,,74,70
26944,note_off,,,,,64,0,10,,,,,2,,,74,100
26960,note_off,,,,,32,0,8,,,,,0,,,74,100
26972,note_off,,,,,92,0,9,,,,,1,,,83,100
26972,note_off,,,,,92,0,11,,,,,3,,,78,100
26976,note_on,,,,,16,0,8,,,,,0,,,83,70
26976,note_on,,,,,4,0,11,,,,,3,,,74,70
26976,note_on,,,,,32,0,10,,,,,2,,,78,70
26976,note_on,,,,,4,0,9,,,,,1,,,78,70
27008,note_off,,,,,128,0,13,,,,,5,,,47,100
27008,note_off,,,,,0,0,12,,,,,4,,,66,100
27008,note_off,,,,,32,0,8,,,,,0,,,83,100
27008,note_off,,,,,128,0,12,,,,,4,,,62,100
27024,note_on,,,,,16,0,8,,,,,0,,,74,70
27040,note_off,,,,,64,0,11,,,,,3,,,74,100
27040,note_off,,,,,64,0,10,,,,,2,,,78,100
27056,note_off,,,,,32,0,8,,,,,0,,,74,100
27068,note_off,,,,,92,0,9,,,,,1,,,78,100
27072,note_on,,,,,32,0,10,,,,,2,,,83,70
27072,note_on,,,,,32,0,11,,,,,3,,,78,70
27072,note_on,,,,,64,0,13,,,,,5,,,47,100
27072,note_on,,,,,16,0,8,,,,,0,,,66,70
27072,note_on,,,,,0,0,12,,,,,4,,,66,60
27072,note_on,,,,,4,0,9,,,,,1,,,74,70
27072,note_on,,,,,64,0,12,,,,,4,,,62,60
27104,note_off,,,,,32,0,8,,,,,0,,,66,100
27120,note_on,,,,,16,0,8,,,,,0,,,74,70
27136,note_off,,,,,64,0,10,,,,,2,,,83,100
27136,note_off,,,,,64,0,9,,,,,1,,,74,100
27152,note_off,,,,,32,0,8,,,,,0,,,74,100
27164,note_off,,,,,92,0,11,,,,,3,,,78,100
27168,note_on,,,,,16,0,8,,,,,0,,,83,70
27168,note_on,,,,,4,0,11,,,,,3,,,74,70
27168,note_on,,,,,32,0,9,,,,,1,,,83,70
27168,note_on,,,,,32,0,10,,,,,2,,,78,70
27200,note_off,,,,,32,0,8,,,,,0,,,83,100
27200,note_off,,,,,128,0,12,,,,,4,,,62,100
27200,note_off,,,,,0,0,12,,,,,4,,,66,100
27200,note_off,,,,,128,0,13,,,,,5,,,47,100
27216,note_on,,,,,16,0,8,,,,,0,,,74,70
27232,note_off,,,,,64,0,11,,,,,3,,,74,100
27232,note_off,,,,,64,0,10,,,,,2,,,78,100
27232,note_off,,,,,64,0,9,,,,,1,,,83,100
27248,note_off,,,,,32,0,8,,,,,0,,,74,100
27264,note_on,,,,,32,0,9,,,,,1,,,83,70
27264,note_on,,,,,16,0,8,,,,,0,,,66,70
27264,note_on,,,,,32,0,11,,,,,3,,,78,70
27264,note_on,,,,,64,0,13,,,,,5,,,59,100
27264,note_on,,,,,32,0,10,,,,,2,,,74,70
27264,note_on,,,,,64,0,12,,,,,4,,,62,60
27264,note_on,,,,,0,0,12,,,,,4,,,66,60
27296,note_off,,,,,32,0,8,,,,,0,,,66,100
27312,note_on,,,,,16,0,8,,,,,0,,,74,70
27328,note_off,,,,,64,0,10,,,,,2,,,74,100
27344,note_off,,,,,32,0,8,,,,,0,,,74,100
27356,note_off,,,,,92,0,11,,,,,3,,,78,100
27356,note_off,,,,,92,0,9,,,,,1,,,83,100
27360,note_on,,,,,4,0,11,,,,,3,,,74,70
27360,note_on,,,,,4,0,9,,,,,1,,,78,70
27360,note_on,,,,,16,0,8,,,,,0,,,83,70
27360,note_on,,,,,32,0,10,,,,,2,,,78,70
27392,note_off,,,,,128,0,12,,,,,4,,,62,100
27392,note_off,,,,,0,0,12,,,,,4,,,66,100
27392,note_off,,,,,32,0,8,,,,,0,,,83,100
27392,note_off,,,,,128,0,13,,,,,5,,,59,100
27408,note_on,,,,,16,0,8,,,,,0,,,74,70
27424,note_off,,,,,64,0,10,,,,,2,,,78,100
27424,note_off,,,,,64,0,11,,,,,3,,,74,100
27440,note_off,,,,,32,0,8,,,,,0,,,74,100
27452,note_off,,,,,92,0,9,,,,,1,,,78,100
27456,note_on,,,,,16,0,8,,,,,0,,,66,70
27456,note_on,,,,,64,0,13,,,,,5,,,59,100
27456,note_on,,,,,64,0,12,,,,,4,,,62,60
27456,note_on,,,,,0,0,12,,,,,4,,,66,60
27456,note_on,,,,,4,0,9,,,,,1,,,74,70
27456,note_on,,,,,32,0,10,,,,,2,,,83,70
27456,note_on,,,,,32,0,11,,,,,3,,,78,70
27488,note_off,,,,,32,0,8,,,,,0,,,66,100
27504,note_on,,,,,16,0,8,,,,,0,,,74,70
27504,note_on,,,,,48,0,11,,,,,3,,,74,70
27520,note_off,,,,,64,0,10,,,,,2,,,83,100
27520,note_off,,,,,64,0,9,,,,,1,,,74,100
27536,note_off,,,,,32,0,8,,,,,0,,,74,100
27548,note_off,,,,,44,0,11,,,,,3,,,78,100
27552,note_on,,,,,32,0,10,,,,,2,,,78,70
27552,note_on,,,,,16,0,8,,,,,0,,,83,70
27552,note_on,,,,,32,0,9,,,,,1,,,83,70
27568,note_off,,,,,20,0,11,,,,,3,,,74,100
27584,note_off,,,,,32,0,8,,,,,0,,,83,100
27584,note_off,,,,,128,0,12,,,,,4,,,62,100
27584,note_off,,,,,0,0,12,,,,,4,,,66,100
27584,note_off,,,,,128,0,13,,,,,5,,,59,100
27600,note_on,,,,,16,0,8,,,,,0,,,74,70
27616,note_off,,,,,64,0,9,,,,,1,,,83,100
27616,note_off,,,,,64,0,10,,,,,2,,,78,100
27632,note_off,,,,,32,0,8,,,,,0,,,74,100
27648,note_on,,,,,16,0,8,,,,,0,,,65,70
27648,note_on,,,,,64,0,12,,,,,4,,,65,60
27648,note_on,,,,,0,0,12,,,,,4,,,71,60
27648,note_on,,,,,32,0,10,,,,,2,,,74,70
27648,note_on,,,,,32,0,9,,,,,1,,,83,70
27648,note_on,,,,,64,0,13,,,,,5,,,53,100
27648,note_on,,,,,80,0,11,,,,,3,,,80,70
27680,note_off,,,,,32,0,8,,,,,0,,,65,100
27696,note_on,,,,,16,0,8,,,,,0,,,74,70
27712,note_off,,,,,64,0,10,,,,,2,,,74,100
27728,note_off,,,,,32,0,8,,,,,0,,,74,100
27740,note_off,,,,,92,0,11,,,,,3,,,80,100
27740,note_off,,,,,92,0,9,,,,,1,,,83,100
27744,note_on,,,,,4,0,11,,,,,3,,,77,70
27744,note_on,,,,,16,0,8,,,,,0,,,83,70
27744,note_on,,,,,32,0,10,,,,,2,,,80,70
27744,note_on,,,,,4,0,9,,,,,1,,,80,70
27776,note_off,,,,,0,0,12,,,,,4,,,71,100
27776,note_off,,,,,32,0,8,,,,,0,,,83,100
27776,note_off,,,,,128,0,13,,,,,5,,,53,100
27776,note_off,,,,,128,0,12,,,,,4,,,65,100
27792,note_on,,,,,16,0,8,,,,,0,,,74,70
27808,note_off,,,,,64,0,11,,,,,3,,,77,100
27808,note_off,,,,,64,0,10,,,,,2,,,80,100
27824,note_off,,,,,32,0,8,,,,,0,,,74,100
27836,note_off,,,,,92,0,9,,,,,1,,,80,100
27840,note_on,,,,,16,0,8,,,,,0,,,65,70
27840,note_on,,,,,4,0,9,,,,,1,,,74,70
27840,note_on,,,,,64,0,13,,,,,5,,,53,100
27840,note_on,,,,,32,0,10,,,,,2,,,83,70
27840,note_on,,,,,32,0,11,,,,,3,,,80,70
27840,note_on,,,,,64,0,12,,,,,4,,,65,60
27840,note_on,,,,,0,0,12,,,,,4,,,71,60
27872,note_off,,,,,32,0,8,,,,,0,,,65,100
27888,note_on,,,,,16,0,8,,,,,0,,,74,70
27904,note_off,,,,,64,0,10,,,,,2,,,83,100
27904,note_off,,,,,64,0,9,,,,,1,,,74,100
27920,note_off,,,,,32,0,8,,,,,0,,,74,100
27932,note_off,,,,,92,0,11,,,,,3,,,80,100
27936,note_on,,,,,32,0,9,,,,,1,,,83,70
27936,note_on,,,,,32,0,10,,,,,2,,,80,70
27936,note_on,,,,,16,0,8,,,,,0,,,83,70
27936,note_on,,,,,4,0,11,,,,,3,,,77,70
27968,note_off,,,,,32,0,8,,,,,0,,,83,100
27968,note_off,,,,,128,0,13,,,,,5,,,53,100
27968,note_off,,,,,0,0,12,,,,,4,,,71,100
27968,note_off,,,,,128,0,12,,,,,4,,,65,100
27984,note_on,,,,,16,0,8,,,,,0,,,74,70
28000,note_off,,,,,64,0,9,,,,,1,,,83,100
28000,note_off,,,,,64,0,10,,,,,2,,,80,100
28000,note_off,,,,,64,0,11,,,,,3,,,77,100
28016,note_off,,,,,32,0,8,,,,,0,,,74,100
28032,note_on,,,,,16,0,8,,,,,0,,,65,70
28032,note_on,,,,,32,0,11,,,,,3,,,80,70
28032,note_on,,,,,32,0,9,,,,,1,,,83,70
28032,note_on,,,,,0,0,12,,,,,4,,,71,60
28032,note_on,,,,,64,0,12,,,,,4,,,65,60
28032,note_on,,,,,32,0,10,,,,,2,,,74,70
28032,note_on,,,,,64,0,13,,,,,5,,,53,100
28064,note_off,,,,,32,0,8,,,,,0,,,65,100
28080,note_on,,,,,16,0,8,,,,,0,,,74,70
28096,note_off,,,,,64,0,10,,,,,2,,,74,100
28112,note_off,,,,,32,0,8,,,,,0,,,74,100
28124,note_off,,,,,92,0,9,,,,,1,,,83,100
28124,note_off,,,,,92,0,11,,,,,3,,,80,100
28128,note_on,,,,,4,0,11,,,,,3,,,77,70
28128,note_on,,,,,16,0,8,,,,,0,,,83,70
28128,note_on,,,,,4,0,9,,,,,1,,,80,70
28128,note_on,,,,,32,0,10,,,,,2,,,80,70
28160,note_off,,,,,128,0,13,,,,,5,,,53,100
28160,note_off,,,,,128,0,12,,,,,4,,,65,100
28160,note_off,,,,,0,0,12,,,,,4,,,71,100
28160,note_off,,,,,32,0,8,,,,,0,,,83,100
28176,note_on,,,,,16,0,8,,,,,0,,,74,70
28192,note_off,,,,,64,0,10,,,,,2,,,80,100
28192,note_off,,,,,64,0,11,,,,,3,,,77,100
28208,note_off,,,,,32,0,8,,,,,0,,,74,100
28220,note_off,,,,,92,0,9,,,,,1,,,80,100
28224,note_on,,,,,64,0,12,,,,,4,,,65,60
28224,note_on,,,,,4,0,9,,,,,1,,,74,70
28224,note_on,,,,,64,0,13,,,,,5,,,53,100
28224,note_on,,,,,0,0,12,,,,,4,,,71,60
28224,note_on,,,,,32,0,10,,,,,2,,,83,70
28224,note_on,,,,,16,0,8,,,,,0,,,65,70
28224,note_on,,,,,32,0,11,,,,,3,,,80,70
28256,note_off,,,,,32,0,8,,,,,0,,,65,100
28272,note_on,,,,,16,0,8,,,,,0,,,74,70
28288,note_off,,,,,64,0,9,,,,,1,,,74,100
28288,note_off,,,,,64,0,10,,,,,2,,,83,100
28304,note_off,,,,,32,0,8,,,,,0,,,74,100
28316,note_off,,,,,92,0,11,,,,,3,,,80,100
28320,note_on,,,,,4,0,11,,,,,3,,,77,70
28320,note_on,,,,,32,0,10,,,,,2,,,80,70
28320,note_on,,,,,16,0,8,,,,,0,,,83,70
28320,note_on,,,,,32,0,9,,,,,1,,,83,70
28352,note_off,,,,,128,0,12,,,,,4,,,65,100
28352,note_off,,,,,0,0,12,,,,,4,,,71,100
28352,note_off,,,,,128,0,13,,,,,5,,,53,100
28352,note_off,,,,,32,0,8,,,,,0,,,83,100
28368,note_on,,,,,16,0,8,,,,,0,,,74,70
28384,note_off,,,,,64,0,9,,,,,1,,,83,100
28384,note_off,,,,,64,0,10,,,,,2,,,80,100
28384,note_off,,,,,64,0,11,,,,,3,,,77,100
28400,note_off,,,,,32,0,8,,,,,0,,,74,100
28416,note_on,,,,,0,0,12,,,,,4,,,71,60
28416,note_on,,,,,32,0,10,,,,,2,,,74,70
28416,note_on,,,,,32,0,11,,,,,3,,,80,70
28416,note_on,,,,,64,0,12,,,,,4,,,65,60
28416,note_on,,,,,16,0,8,,,,,0,,,65,70
28416,note_on,,,,,64,0,13,,,,,5,,,53,100
28416,note_on,,,,,32,0,9,,,,,1,,,83,70
28448,note_off,,,,,32,0,8,,,,,0,,,65,100
28464,note_on,,,,,16,0,8,,,,,0,,,74,70
28480,note_off,,,,,64,0,10,,,,,2,,,74,100
28496,note_off,,,,,32,0,8,,,,,0,,,74,100
28508,note_off,,,,,92,0,9,,,,,1,,,83,100
28508,note_off,,,,,92,0,11,,,,,3,,,80,100
28512,note_on,,,,,16,0,8,,,,,0,,,83,70
28512,note_on,,,,,4,0,9,,,,,1,,,80,70
28512,note_on,,,,,32,0,10,,,,,2,,,80,70
28512,note_on,,,,,4,0,11,,,,,3,,,77,70
28544,note_off,,,,,128,0,13,,,,,5,,,53,100
28544,note_off,,,,,32,0,8,,,,,0,,,83,100
28544,note_off,,,,,0,0,12,,,,,4,,,71,100
28544,note_off,,,,,128,0,12,,,,,4,,,65,100
28560,note_on,,,,,16,0,8,,,,,0,,,74,70
28576,note_off,,,,,64,0,10,,,,,2,,,80,100
28576,note_off,,,,,64,0,11,,,,,3,,,77,100
28592,note_off,,,,,32,0,8,,,,,0,,,74,100
28604,note_off,,,,,92,0,9,,,,,1,,,80,100
28608,note_on,,,,,16,0,8,,,,,0,,,65,70
28608,note_on,,,,,32,0,11,,,,,3,,,80,70
28608,note_on,,,,,32,0,10,,,,,2,,,83,70
28608,note_on,,,,,4,0,9,,,,,1,,,74,70
28608,note_on,,,,,0,0,12,,,,,4,,,71,60
28608,note_on,,,,,64,0,12,,,,,4,,,65,60
28608,note_on,,,,,64,0,13,,,,,5,,,53,100
28640,note_off,,,,,32,0,8,,,,,0,,,65,100
28656,note_on,,,,,16,0,8,,,,,0,,,74,70
28672,note_off,,,,,64,0,10,,,,,2,,,83,100
28672,note_off,,,,,64,0,9,,,,,1,,,74,100
28688,note_off,,,,,32,0,8,,,,,0,,,74,100
28700,note_off,,,,,92,0,11,,,,,3,,,80,100
28704,note_on,,,,,4,0,11,,,,,3,,,77,70
28704,note_on,,,,,32,0,9,,,,,1,,,83,70
28704,note_on,,,,,32,0,10,,,,,2,,,80,70
28704,note_on,,,,,16,0,8,,,,,0,,,83,70
28736,note_off,,,,,32,0,8,,,,,0,,,83,100
28736,note_off,,,,,128,0,13,,,,,5,,,53,100
28736,note_off,,,,,128,0,12,,,,,4,,,65,100
28736,note_off,,,,,0,0,12,,,,,4,,,71,100
28752,note_on,,,,,16,0,8,,,,,0,,,74,70
28768,note_off,,,,,64,0,10,,,,,2,,,80,100
28768,note_off,,,,,64,0,9,,,,,1,,,83,100
28768,note_off,,,,,64,0,11,,,,,3,,,77,100
28784,note_off,,,,,32,0,8,,,,,0,,,74,100
28800,note_on,,,,,32,0,11,,,,,3,,,80,70
28800,note_on,,,,,32,0,10,,,,,2,,,74,70
28800,note_on,,,,,16,0,8,,,,,0,,,64,70
28800,note_on,,,,,0,0,12,,,,,4,,,71,60
28800,note_on,,,,,64,0,13,,,,,5,,,52,100
28800,note_on,,,,,32,0,9,,,,,1,,,83,70
28800,note_on,,,,,64,0,12,,,,,4,,,64,60
28832,note_off,,,,,32,0,8,,,,,0,,,64,100
28848,note_on,,,,,16,0,8,,,,,0,,,74,70
28864,note_off,,,,,64,0,10,,,,,2,,,74,100
28880,note_off,,,,,32,0,8,,,,,0,,,74,100
28892,note_off,,,,,92,0,9,,,,,1,,,83,100
28892,note_off,,,,,92,0,11,,,,,3,,,80,100
28896,note_on,,,,,4,0,11,,,,,3,,,74,70
28896,note_on,,,,,16,0,8,,,,,0,,,83,70
28896,note_on,,,,,4,0,9,,,,,1,,,76,70
28896,note_on,,,,,32,0,10,,,,,2,,,80,70
28928,note_off,,,,,32,0,8,,,,,0,,,83,100
28928,note_off,,,,,128,0,13,,,,,5,,,52,100
28928,note_off,,,,,128,0,12,,,,,4,,,64,100
28928,note_off,,,,,0,0,12,,,,,4,,,71,100
28944,note_on,,,,,16,0,8,,,,,0,,,74,70
28960,note_off,,,,,64,0,11,,,,,3,,,74,100
28960,note_off,,,,,64,0,10,,,,,2,,,80,100
28976,note_off,,,,,32,0,8,,,,,0,,,74,100
28988,note_off,,,,,92,0,9,,,,,1,,,76,100
28992,note_on,,,,,32,0,11,,,,,3,,,80,70
28992,note_on,,,,,64,0,12,,,,,4,,,64,60
28992,note_on,,,,,16,0,8,,,,,0,,,64,70
28992,note_on,,,,,32,0,10,,,,,2,,,83,70
28992,note_on,,,,,64,0,13,,,,,5,,,52,100
28992,note_on,,,,,0,0,12,,,,,4,,,71,60
28992,note_on,,,,,4,0,9,,,,,1,,,74,70
29024,note_off,,,,,32,0,8,,,,,0,,,64,100
29040,note_on,,,,,16,0,8,,,,,0,,,74,70
29056,note_off,,,,,64,0,9,,,,,1,,,74,100
29056,note_off,,,,,64,0,10,,,,,2,,,83,100
29072,note_off,,,,,32,0,8,,,,,0,,,74,100
29084,note_off,,,,,92,0,11,,,,,3,,,80,100
29088,note_on,,,,,32,0,9,,,,,1,,,83,70
29088,note_on,,,,,16,0,8,,,,,0,,,83,70
29088,note_on,,,,,32,0,10,,,,,2,,,80,70
29088,note_on,,,,,4,0,11,,,,,3,,,74,70
29120,note_off,,,,,0,0,12,,,,,4,,,71,100
29120,note_off,,,,,32,0,8,,,,,0,,,83,100
29120,note_off,,,,,128,0,12,,,,,4,,,64,100
29120,note_off,,,,,128,0,13,,,,,5,,,52,100
29136,note_on,,,,,16,0,8,,,,,0,,,74,70
29152,note_off,,,,,64,0,11,,,,,3,,,74,100
29152,note_off,,,,,64,0,9,,,,,1,,,83,100
29152,note_off,,,,,64,0,10,,,,,2,,,80,100
29168,note_off,,,,,32,0,8,,,,,0,,,74,100
29184,note_on,,,,,16,0,8,,,,,0,,,64,70
29184,note_on,,,,,0,0,12,,,,,4,,,71,60
29184,note_on,,,,,32,0,9,,,,,1,,,83,70
29184,note_on,,,,,32,0,10,,,,,2,,,74,70
29184,note_on,,,,,64,0,13,,,,,5,,,52,100
29184,note_on,,,,,64,0,12,,,,,4,,,64,60
29184,note_on,,,,,32,0,11,,,,,3,,,80,70
29216,note_off,,,,,32,0,8,,,,,0,,,64,100
29232,note_on,,,,,16,0,8,,,,,0,,,74,70
29248,note_off,,,,,64,0,10,,,,,2,,,74,100
29264,note_off,,,,,32,0,8,,,,,0,,,74,100
29276,note_off,,,,,92,0,11,,,,,3,,,80,100
29276,note_off,,,,,92,0,9,,,,,1,,,83,100
29280,note_on,,,,,16,0,8,,,,,0,,,83,70
29280,note_on,,,,,4,0,11,,,,,3,,,74,70
29280,note_on,,,,,4,0,9,,,,,1,,,76,70
29280,note_on,,,,,32,0,10,,,,,2,,,80,70
29312,note_off,,,,,128,0,12,,,,,4,,,64,100
29312,note_off,,,,,0,0,12,,,,,4,,,71,100
29312,note_off,,,,,128,0,13,,,,,5,,,52,100
29312,note_off,,,,,32,0,8,,,,,0,,,83,100
29328,note_on,,,,,16,0,8,,,,,0,,,74,70
29344,note_off,,,,,64,0,10,,,,,2,,,80,100
29344,note_off,,,,,64,0,11,,,,,3,,,74,100
29360,note_off,,,,,32,0,8,,,,,0,,,74,100
29372,note_off,,,,,92,0,9,,,,,1,,,76,100
29376,note_on,,,,,64,0,12,,,,,4,,,64,60
29376,note_on,,,,,16,0,8,,,,,0,,,64,70
29376,note_on,,,,,4,0,9,,,,,1,,,74,70
29376,note_on,,,,,64,0,13,,,,,5,,,52,100
29376,note_on,,,,,0,0,12,,,,,4,,,71,60
29376,note_on,,,,,32,0,10,,,,,2,,,83,70
29376,note_on,,,,,32,0,11,,,,,3,,,80,70
29408,note_off,,,,,32,0,8,,,,,0,,,64,100
29424,note_on,,,,,16,0,8,,,,,0,,,74,70
29440,note_off,,,,,64,0,10,,,,,2,,,83,100
29440,note_off,,,,,64,0,9,,,,,1,,,74,100
29456,note_off,,,,,32,0,8,,,,,0,,,74,100
29468,note_off,,,,,92,0,11,,,,,3,,,80,100
29472,note_on,,,,,4,0,11,,,,,3,,,74,70
29472,note_on,,,,,32,0,10,,,,,2,,,80,70
29472,note_on,,,,,32,0,9,,,,,1,,,83,70
29472,note_on,,,,,16,0,8,,,,,0,,,83,70
29504,note_off,,,,,128,0,13,,,,,5,,,52,100
29504,note_off,,,,,32,0,8,,,,,0,,,83,100
29504,note_off,,,,,0,0,12,,,,,4,,,71,100
29504,note_off,,,,,128,0,12,,,,,4,,,64,100
29520,note_on,,,,,16,0,8,,,,,0,,,74,70
29536,note_off,,,,,64,0,11,,,,,3,,,74,100
29536,note_off,,,,,64,0,9,,,,,1,,,83,100
29536,note_off,,,,,64,0,10,,,,,2,,,80,100
29552,note_off,,,,,32,0,8,,,,,0,,,74,100
29568,note_on,,,,,32,0,10,,,,,2,,,74,70
29568,note_on,,,,,32,0,9,,,,,1,,,83,70
29568,note_on,,,,,64,0,12,,,,,4,,,64,60
29568,note_on,,,,,32,0,11,,,,,3,,,80,70
29568,note_on,,,,,64,0,13,,,,,5,,,52,100
29568,note_on,,,,,0,0,12,,,,,4,,,71,60
29568,note_on,,,,,16,0,8,,,,,0,,,64,70
29600,note_off,,,,,32,0,8,,,,,0,,,64,100
29616,note_on,,,,,16,0,8,,,,,0,,,74,70
29632,note_off,,,,,64,0,10,,,,,2,,,74,100
29648,note_off,,,,,32,0,8,,,,,0,,,74,100
29660,note_off,,,,,92,0,9,,,,,1,,,83,100
29660,note_off,,,,,92,0,11,,,,,3,,,80,100
29664,note_on,,,,,4,0,11,,,,,3,,,74,70
29664,note_on,,,,,16,0,8,,,,,0,,,83,70
29664,note_on,,,,,32,0,10,,,,,2,,,80,70
29664,note_on,,,,,4,0,9,,,,,1,,,76,70
29696,note_off,,,,,0,0,12,,,,,4,,,71,100
29696,note_off,,,,,128,0,12,,,,,4,,,64,100
29696,note_off,,,,,32,0,8,,,,,0,,,83,100
29696,note_off,,,,,128,0,13,,,,,5,,,52,100
29712,note_on,,,,,16,0,8,,,,,0,,,74,70
29728,note_off,,,,,64,0,11,,,,,3,,,74,100
29728,note_off,,,,,64,0,10,,,,,2,,,80,100
29744,note_off,,,,,32,0,8,,,,,0,,,74,100
29756,note_off,,,,,92,0,9,,,,,1,,,76,100
29760,note_on,,,,,0,0,12,,,,,4,,,71,60
29760,note_on,,,,,16,0,8,,,,,0,,,64,70
29760,note_on,,,,,64,0,13,,,,,5,,,52,100
29760,note_on,,,,,32,0,10,,,,,2,,,83,70
29760,note_on,,,,,32,0,11,,,,,3,,,80,70
29760,note_on,,,,,4,0,9,,,,,1,,,74,70
29760,note_on,,,,,64,0,12,,,,,4,,,64,60
29792,note_off,,,,,32,0,8,,,,,0,,,64,100
29808,note_on,,,,,16,0,8,,,,,0,,,74,70
29808,note_on,,,,,48,0,11,,,,,3,,,74,70
29824,note_off,,,,,64,0,10,,,,,2,,,83,100
29824,note_off,,,,,64,0,9,,,,,1,,,74,100
29840,note_off,,,,,32,0,8,,,,,0,,,74,100
29852,note_off,,,,,44,0,11,,,,,3,,,80,100
29856,note_on,,,,,32,0,10,,,,,2,,,80,70
29856,note_on,,,,,16,0,8,,,,,0,,,83,70
29856,note_on,,,,,32,0,9,,,,,1,,,83,70
29872,note_off,,,,,20,0,11,,,,,3,,,74,100
29888,note_off,,,,,32,0,8,,,,,0,,,83,100
29888,note_off,,,,,128,0,13,,,,,5,,,52,100
29888,note_off,,,,,0,0,12,,,,,4,,,71,100
29888,note_off,,,,,128,0,12,,,,,4,,,64,100
29904,note_on,,,,,16,0,8,,,,,0,,,74,70
29920,note_off,,,,,64,0,10,,,,,2,,,80,100
29920,note_off,,,,,64,0,9,,,,,1,,,83,100
29936,note_off,,,,,32,0,8,,,,,0,,,74,100
29952,note_on,,,,,32,0,10,,,,,2,,,73,70
29952,note_on,,,,,64,0,12,,,,,4,,,64,60
29952,note_on,,,,,0,0,12,,,,,4,,,68,60
29952,note_on,,,,,16,0,8,,,,,0,,,64,70
29952,note_on,,,,,64,0,13,,,,,5,,,52,100
29952,note_on,,,,,80,0,11,,,,,3,,,76,70
29952,note_on,,,,,32,0,9,,,,,1,,,83,70
29984,note_off,,,,,32,0,8,,,,,0,,,64,100
30000,note_on,,,,,16,0,8,,,,,0,,,73,70
30016,note_off,,,,,64,0,10,,,,,2,,,73,100
30032,note_off,,,,,32,0,8,,,,,0,,,73,100
30044,note_off,,,,,92,0,9,,,,,1,,,83,100
30044,note_off,,,,,92,0,11,,,,,3,,,76,100
30048,note_on,,,,,32,0,10,,,,,2,,,76,70
30048,note_on,,,,,16,0,8,,,,,0,,,83,70
30048,note_on,,,,,4,0,11,,,,,3,,,73,70
30048,note_on,,,,,4,0,9,,,,,1,,,76,70
30080,note_off,,,,,128,0,12,,,,,4,,,64,100
30080,note_off,,,,,32,0,8,,,,,0,,,83,100
30080,note_off,,,,,128,0,13,,,,,5,,,52,100
30080,note_off,,,,,0,0,12,,,,,4,,,68,100
30096,note_on,,,,,16,0,8,,,,,0,,,73,70
30112,note_off,,,,,64,0,10,,,,,2,,,76,100
30112,note_off,,,,,64,0,11,,,,,3,,,73,100
30128,note_off,,,,,32,0,8,,,,,0,,,73,100
30140,note_off,,,,,92,0,9,,,,,1,,,76,100
30144,note_on,,,,,32,0,10,,,,,2,,,83,70
30144,note_on,,,,,4,0,9,,,,,1,,,73,70
30144,note_on,,,,,64,0,13,,,,,5,,,52,100
30144,note_on,,,,,64,0,12,,,,,4,,,64,60
30144,note_on,,,,,16,0,8,,,,,0,,,64,70
30144,note_on,,,,,32,0,11,,,,,3,,,76,70
30144,note_on,,,,,0,0,12,,,,,4,,,68,60
30176,note_off,,,,,32,0,8,,,,,0,,,64,100
30192,note_on,,,,,16,0,8,,,,,0,,,73,70
30208,note_off,,,,,64,0,9,,,,,1,,,73,100
30208,note_off,,,,,64,0,10,,,,,2,,,83,100
30224,note_off,,,,,32,0,8,,,,,0,,,73,100
30236,note_off,,,,,92,0,11,,,,,3,,,76,100
30240,note_on,,,,,16,0,8,,,,,0,,,83,70
30240,note_on,,,,,32,0,9,,,,,1,,,83,70
30240,note_on,,,,,4,0,11,,,,,3,,,73,70
30240,note_on,,,,,32,0,10,,,,,2,,,76,70
30272,note_off,,,,,128,0,13,,,,,5,,,52,100
30272,note_off,,,,,32,0,8,,,,,0,,,83,100
30272,note_off,,,,,0,0,12,,,,,4,,,68,100
30272,note_off,,,,,128,0,12,,,,,4,,,64,100
30288,note_on,,,,,16,0,8,,,,,0,,,73,70
30304,note_off,,,,,64,0,11,,,,,3,,,73,100
30304,note_off,,,,,64,0,9,,,,,1,,,83,100
30304,note_off,,,,,64,0,10,,,,,2,,,76,100
30320,note_off,,,,,32,0,8,,,,,0,,,73,100
30336,note_on,,,,,64,0,13,,,,,5,,,52,100
30336,note_on,,,,,0,0,12,,,,,4,,,68,60
30336,note_on,,,,,64,0,12,,,,,4,,,64,60
30336,note_on,,,,,32,0,9,,,,,1,,,83,70
30336,note_on,,,,,32,0,10,,,,,2,,,73,70
30336,note_on,,,,,16,0,8,,,,,0,,,64,70
30336,note_on,,,,,32,0,11,,,,,3,,,76,70
30368,note_off,,,,,32,0,8,,,,,0,,,64,100
30384,note_on,,,,,16,0,8,,,,,0,,,73,70
30400,note_off,,,,,64,0,10,,,,,2,,,73,100
30416,note_off,,,,,32,0,8,,,,,0,,,73,100
30428,note_off,,,,,92,0,9,,,,,1,,,83,100
30428,note_off,,,,,92,0,11,,,,,3,,,76,100
30432,note_on,,,,,4,0,9,,,,,1,,,76,70
30432,note_on,,,,,32,0,10,,,,,2,,,76,70
30432,note_on,,,,,4,0,11,,,,,3,,,73,70
30432,note_on,,,,,16,0,8,,,,,0,,,83,70
30464,note_off,,,,,128,0,13,,,,,5,,,52,100
30464,note_off,,,,,128,0,12,,,,,4,,,64,100
30464,note_off,,,,,0,0,12,,,,,4,,,68,100
30464,note_off,,,,,32,0,8,,,,,0,,,83,100
30480,note_on,,,,,16,0,8,,,,,0,,,73,70
30496,note_off,,,,,64,0,10,,,,,2,,,76,100
30496,note_off,,,,,64,0,11,,,,,3,,,73,100
30512,note_off,,,,,32,0,8,,,,,0,,,73,100
30524,note_off,,,,,92,0,9,,,,,1,,,76,100
30528,note_on,,,,,32,0,10,,,,,2,,,83,70
30528,note_on,,,,,32,0,11,,,,,3,,,76,70
30528,note_on,,,,,4,0,9,,,,,1,,,73,70
30528,note_on,,,,,64,0,12,,,,,4,,,64,60
30528,note_on,,,,,0,0,12,,,,,4,,,68,60
30528,note_on,,,,,16,0,8,,,,,0,,,64,70
30528,note_on,,,,,64,0,13,,,,,5,,,52,100
30560,note_off,,,,,32,0,8,,,,,0,,,64,100
30576,note_on,,,,,16,0,8,,,,,0,,,73,70
30592,note_off,,,,,64,0,9,,,,,1,,,73,100
30592,note_off,,,,,64,0,10,,,,,2,,,83,100
30608,note_off,,,,,32,0,8,,,,,0,,,73,100
30620,note_off,,,,,92,0,11,,,,,3,,,76,100
30624,note_on,,,,,4,0,11,,,,,3,,,73,70
30624,note_on,,,,,32,0,9,,,,,1,,,83,70
30624,note_on,,,,,16,0,8,,,,,0,,,83,70
30624,note_on,,,,,32,0,10,,,,,2,,,76,70
30656,note_off,,,,,128,0,13,,,,,5,,,52,100
30656,note_off,,,,,128,0,12,,,,,4,,,64,100
30656,note_off,,,,,32,0,8,,,,,0,,,83,100
30656,note_off,,,,,0,0,12,,,,,4,,,68,100
30672,note_on,,,,,16,0,8,,,,,0,,,73,70
30688,note_off,,,,,64,0,11,,,,,3,,,73,100
30688,note_off,,,,,64,0,10,,,,,2,,,76,100
30688,note_off,,,,,64,0,9,,,,,1,,,83,100
30704,note_off,,,,,32,0,8,,,,,0,,,73,100
30720,note_on,,,,,32,0,9,,,,,1,,,83,70
30720,note_on,,,,,32,0,11,,,,,3,,,76,70
30720,note_on,,,,,32,0,10,,,,,2,,,73,70
30720,note_on,,,,,64,0,12,,,,,4,,,64,60
30720,note_on,,,,,64,0,13,,,,,5,,,52,100
30720,note_on,,,,,0,0,12,,,,,4,,,68,60
30720,note_on,,,,,16,0,8,,,,,0,,,64,70
30752,note_off,,,,,32,0,8,,,,,0,,,64,100
30768,note_on,,,,,16,0,8,,,,,0,,,73,70
30784,note_off,,,,,64,0,10,,,,,2,,,73,100
30800,note_off,,,,,32,0,8,,,,,0,,,73,100
30812,note_off,,,,,92,0,11,,,,,3,,,76,100
30812,note_off,,,,,92,0,9,,,,,1,,,83,100
30816,note_on,,,,,4,0,11,,,,,3,,,73,70
30816,note_on,,,,,4,0,9,,,,,1,,,76,70
30816,note_on,,,,,32,0,10,,,,,2,,,76,70
30816,note_on,,,,,16,0,8,,,,,0,,,83,70
30848,note_off,,,,,128,0,13,,,,,5,,,52,100
30848,note_off,,,,,32,0,8,,,,,0,,,83,100
30848,note_off,,,,,0,0,12,,,,,4,,,68,100
30848,note_off,,,,,128,0,12,,,,,4,,,64,100
30864,note_on,,,,,16,0,8,,,,,0,,,73,70
30880,note_off,,,,,64,0,10,,,,,2,,,76,100
30880,note_off,,,,,64,0,11,,,,,3,,,73,100
30896,note_off,,,,,32,0,8,,,,,0,,,73,100
30908,note_off,,,,,92,0,9,,,,,1,,,76,100
30912,note_on,,,,,4,0,9,,,,,1,,,73,70
30912,note_on,,,,,16,0,8,,,,,0,,,64,70
30912,note_on,,,,,64,0,12,,,,,4,,,64,60
30912,note_on,,,,,0,0,12,,,,,4,,,68,60
30912,note_on,,,,,64,0,13,,,,,5,,,52,100
30912,note_on,,,,,32,0,11,,,,,3,,,76,70
30912,note_on,,,,,32,0,10,,,,,2,,,83,70
30944,note_off,,,,,32,0,8,,,,,0,,,64,100
30960,note_on,,,,,16,0,8,,,,,0,,,73,70
30976,note_off,,,,,64,0,10,,,,,2,,,83,100
30976,note_off,,,,,64,0,9,,,,,1,,,73,100
30992,note_off,,,,,32,0,8,,,,,0,,,73,100
31004,note_off,,,,,92,0,11,,,,,3,,,76,100
31008,note_on,,,,,16,0,8,,,,,0,,,83,70
31008,note_on,,,,,32,0,9,,,,,1,,,83,70
31008,note_on,,,,,32,0,10,,,,,2,,,76,70
31008,note_on,,,,,4,0,11,,,,,3,,,73,70
31040,note_off,,,,,0,0,12,,,,,4,,,68,100
31040,note_off,,,,,128,0,12,,,,,4,,,64,100
31040,note_off,,,,,32,0,8,,,,,0,,,83,100
31040,note_off,,,,,128,0,13,,,,,5,,,52,100
31056,note_on,,,,,16,0,8,,,,,0,,,73,70
31072,note_off,,,,,64,0,10,,,,,2,,,76,100
31072,note_off,,,,,64,0,9,,,,,1,,,83,100
31072,note_off,,,,,64,0,11,,,,,3,,,73,100
31088,note_off,,,,,32,0,8,,,,,0,,,73,100
31104,note_on,,,,,32,0,9,,,,,1,,,81,70
31104,note_on,,,,,32,0,10,,,,,2,,,73,70
31104,note_on,,,,,0,0,12,,,,,4,,,73,60
31104,note_on,,,,,64,0,12,,,,,4,,,64,60
31104,note_on,,,,,16,0,8,,,,,0,,,64,70
31104,note_on,,,,,64,0,13,,,,,5,,,45,100
31104,note_on,,,,,32,0,11,,,,,3,,,76,70
31136,note_off,,,,,32,0,8,,,,,0,,,64,100
31152,note_on,,,,,16,0,8,,,,,0,,,73,70
31168,note_off,,,,,64,0,10,,,,,2,,,73,100
31184,note_off,,,,,32,0,8,,,,,0,,,73,100
31196,note_off,,,,,92,0,9,,,,,1,,,81,100
31196,note_off,,,,,92,0,11,,,,,3,,,76,100
31200,note_on,,,,,4,0,11,,,,,3,,,73,70
31200,note_on,,,,,16,0,8,,,,,0,,,81,70
31200,note_on,,,,,32,0,10,,,,,2,,,76,70
31200,note_on,,,,,4,0,9,,,,,1,,,76,70
31232,note_off,,,,,128,0,12,,,,,4,,,64,100
31232,note_off,,,,,32,0,8,,,,,0,,,81,100
31232,note_off,,,,,128,0,13,,,,,5,,,45,100
31232,note_off,,,,,0,0,12,,,,,4,,,73,100
31248,note_on,,,,,16,0,8,,,,,0,,,73,70
31264,note_off,,,,,64,0,10,,,,,2,,,76,100
31264,note_off,,,,,64,0,11,,,,,3,,,73,100
31280,note_off,,,,,32,0,8,,,,,0,,,73,100
31292,note_off,,,,,92,0,9,,,,,1,,,76,100
31296,note_on,,,,,16,0,8,,,,,0,,,64,70
31296,note_on,,,,,4,0,9,,,,,1,,,73,70
31296,note_on,,,,,32,0,11,,,,,3,,,76,70
31296,note_on,,,,,32,0,10,,,,,2,,,81,70
31296,note_on,,,,,64,0,13,,,,,5,,,45,100
31296,note_on,,,,,64,0,12,,,,,4,,,64,60
31296,note_on,,,,,0,0,12,,,,,4,,,73,60
31328,note_off,,,,,32,0,8,,,,,0,,,64,100
31344,note_on,,,,,16,0,8,,,,,0,,,73,70
31360,note_off,,,,,64,0,10,,,,,2,,,81,100
31360,note_off,,,,,64,0,9,,,,,1,,,73,100
31376,note_off,,,,,32,0,8,,,,,0,,,73,100
31388,note_off,,,,,92,0,11,,,,,3,,,76,100
31392,note_on,,,,,4,0,11,,,,,3,,,73,70
31392,note_on,,,,,32,0,9,,,,,1,,,81,70
31392,note_on,,,,,16,0,8,,,,,0,,,81,70
31392,note_on,,,,,32,0,10,,,,,2,,,76,70
31424,note_off,,,,,128,0,13,,,,,5,,,45,100
31424,note_off,,,,,32,0,8,,,,,0,,,81,100
31424,note_off,,,,,0,0,12,,,,,4,,,73,100
31424,note_off,,,,,128,0,12,,,,,4,,,64,100
31440,note_on,,,,,16,0,8,,,,,0,,,73,70
31456,note_off,,,,,64,0,11,,,,,3,,,73,100
31456,note_off,,,,,64,0,9,,,,,1,,,81,100
31456,note_off,,,,,64,0,10,,,,,2,,,76,100
31472,note_off,,,,,32,0,8,,,,,0,,,73,100
31488,note_on,,,,,64,0,12,,,,,4,,,64,60
31488,note_on,,,,,0,0,12,,,,,4,,,73,60
31488,note_on,,,,,32,0,9,,,,,1,,,81,70
31488,note_on,,,,,64,0,13,,,,,5,,,45,100
31488,note_on,,,,,32,0,11,,,,,3,,,76,70
31488,note_on,,,,,16,0,8,,,,,0,,,64,70
31488,note_on,,,,,32,0,10,,,,,2,,,73,70
31520,note_off,,,,,32,0,8,,,,,0,,,64,100
31536,note_on,,,,,16,0,8,,,,,0,,,73,70
31552,note_off,,,,,64,0,10,,,,,2,,,73,100
31568,note_off,,,,,32,0,8,,,,,0,,,73,100
31580,note_off,,,,,92,0,9,,,,,1,,,81,100
31580,note_off,,,,,92,0,11,,,,,3,,,76,100
31584,note_on,,,,,4,0,11,,,,,3,,,73,70
31584,note_on,,,,,32,0,10,,,,,2,,,76,70
31584,note_on,,,,,16,0,8,,,,,0,,,81,70
31584,note_on,,,,,4,0,9,,,,,1,,,76,70
31616,note_off,,,,,32,0,8,,,,,0,,,81,100
31616,note_off,,,,,128,0,12,,,,,4,,,64,100
31616,note_off,,,,,0,0,12,,,,,4,,,73,100
31616,note_off,,,,,128,0,13,,,,,5,,,45,100
31632,note_on,,,,,16,0,8,,,,,0,,,73,70
31648,note_off,,,,,64,0,11,,,,,3,,,73,100
31648,note_off,,,,,64,0,10,,,,,2,,,76,100
31664,note_off,,,,,32,0,8,,,,,0,,,73,100
31676,note_off,,,,,92,0,9,,,,,1,,,76,100
31680,note_on,,,,,32,0,10,,,,,2,,,81,70
31680,note_on,,,,,32,0,11,,,,,3,,,76,70
31680,note_on,,,,,0,0,12,,,,,4,,,73,60
31680,note_on,,,,,64,0,12,,,,,4,,,64,60
31680,note_on,,,,,64,0,13,,,,,5,,,45,100
31680,note_on,,,,,4,0,9,,,,,1,,,73,70
31680,note_on,,,,,16,0,8,,,,,0,,,64,70
31712,note_off,,,,,32,0,8,,,,,0,,,64,100
31728,note_on,,,,,16,0,8,,,,,0,,,73,70
31744,note_off,,,,,64,0,9,,,,,1,,,73,100
31744,note_off,,,,,64,0,10,,,,,2,,,81,100
31760,note_off,,,,,32,0,8,,,,,0,,,73,100
31772,note_off,,,,,92,0,11,,,,,3,,,76,100
31776,note_on,,,,,32,0,9,,,,,1,,,81,70
31776,note_on,,,,,32,0,10,,,,,2,,,76,70
31776,note_on,,,,,4,0,11,,,,,3,,,73,70
31776,note_on,,,,,16,0,8,,,,,0,,,81,70
31808,note_off,,,,,128,0,12,,,,,4,,,64,100
31808,note_off,,,,,32,0,8,,,,,0,,,81,100
31808,note_off,,,,,128,0,13,,,,,5,,,45,100
31808,note_off,,,,,0,0,12,,,,,4,,,73,100
31824,note_on,,,,,16,0,8,,,,,0,,,73,70
31840,note_off,,,,,64,0,11,,,,,3,,,73,100
31840,note_off,,,,,64,0,10,,,,,2,,,76,100
31840,note_off,,,,,64,0,9,,,,,1,,,81,100
31856,note_off,,,,,32,0,8,,,,,0,,,73,100
31872,note_on,,,,,32,0,10,,,,,2,,,73,70
31872,note_on,,,,,16,0,8,,,,,0,,,64,70
31872,note_on,,,,,32,0,11,,,,,3,,,76,70
31872,note_on,,,,,64,0,12,,,,,4,,,64,60
31872,note_on,,,,,32,0,9,,,,,1,,,81,70
31872,note_on,,,,,0,0,12,,,,,4,,,73,60
31872,note_on,,,,,64,0,13,,,,,5,,,57,100
31904,note_off,,,,,32,0,8,,,,,0,,,64,100
31920,note_on,,,,,16,0,8,,,,,0,,,73,70
31936,note_off,,,,,64,0,10,,,,,2,,,73,100
31952,note_off,,,,,32,0,8,,,,,0,,,73,100
31964,note_off,,,,,92,0,11,,,,,3,,,76,100
31964,note_off,,,,,92,0,9,,,,,1,,,81,100
31968,note_on,,,,,4,0,11,,,,,3,,,73,70
31968,note_on,,,,,4,0,9,,,,,1,,,76,70
31968,note_on,,,,,32,0,10,,,,,2,,,76,70
31968,note_on,,,,,16,0,8,,,,,0,,,81,70
32000,note_off,,,,,32,0,8,,,,,0,,,81,100
32000,note_off,,,,,128,0,12,,,,,4,,,64,100
32000,note_off,,,,,0,0,12,,,,,4,,,73,100
32000,note_off,,,,,128,0,13,,,,,5,,,57,100
32016,note_on,,,,,16,0,8,,,,,0,,,73,70
32032,note_off,,,,,64,0,10,,,,,2,,,76,100
32032,note_off,,,,,64,0,11,,,,,3,,,73,100
32048,note_off,,,,,32,0,8,,,,,0,,,73,100
32060,note_off,,,,,92,0,9,,,,,1,,,76,100
32064,note_on,,,,,0,0,12,,,,,4,,,73,60
32064,note_on,,,,,4,0,9,,,,,1,,,73,70
32064,note_on,,,,,32,0,11,,,,,3,,,76,70
32064,note_on,,,,,32,0,10,,,,,2,,,81,70
32064,note_on,,,,,64,0,12,,,,,4,,,64,60
32064,note_on,,,,,64,0,13,,,,,5,,,57,100
32064,note_on,,,,,16,0,8,,,,,0,,,64,70
32096,note_off,,,,,32,0,8,,,,,0,,,64,100
32112,note_on,,,,,48,0,11,,,,,3,,,73,70
32112,note_on,,,,,16,0,8,,,,,0,,,73,70
32128,note_off,,,,,64,0,10,,,,,2,,,81,100
32128,note_off,,,,,64,0,9,,,,,1,,,73,100
32144,note_off,,,,,32,0,8,,,,,0,,,73,100
32156,note_off,,,,,44,0,11,,,,,3,,,76,100
32160,note_on,,,,,32,0,9,,,,,1,,,81,70
32160,note_on,,,,,32,0,10,,,,,2,,,76,70
32160,note_on,,,,,16,0,8,,,,,0,,,81,70
32176,note_off,,,,,20,0,11,,,,,3,,,73,100
32192,note_off,,,,,32,0,8,,,,,0,,,81,100
32192,note_off,,,,,128,0,13,,,,,5,,,57,100
32192,note_off,,,,,128,0,12,,,,,4,,,64,100
32192,note_off,,,,,0,0,12,,,,,4,,,73,100
32208,note_on,,,,,16,0,8,,,,,0,,,73,70
32224,note_off,,,,,64,0,10,,,,,2,,,76,100
32224,note_off,,,,,64,0,9,,,,,1,,,81,100
32240,note_off,,,,,32,0,8,,,,,0,,,73,100
32256,note_on,,,,,32,0,10,,,,,2,,,72,70
32256,note_on,,,,,64,0,13,,,,,5,,,48,100
32256,note_on,,,,,32,0,9,,,,,1,,,81,70
32256,note_on,,,,,64,0,12,,,,,4,,,66,60
32256,note_on,,,,,16,0,8,,,,,0,,,66,70
32256,note_on,,,,,80,0,11,,,,,3,,,75,70
32288,note_off,,,,,32,0,8,,,,,0,,,66,100
32304,note_on,,,,,16,0,8,,,,,0,,,72,70
32320,note_off,,,,,64,0,10,,,,,2,,,72,100
32336,note_off,,,,,32,0,8,,,,,0,,,72,100
32348,note_off,,,,,92,0,9,,,,,1,,,81,100
32348,note_off,,,,,92,0,11,,,,,3,,,75,100
32352,note_on,,,,,4,0,11,,,,,3,,,72,70
32352,note_on,,,,,4,0,9,,,,,1,,,78,70
32352,note_on,,,,,32,0,10,,,,,2,,,75,70
32352,note_on,,,,,16,0,8,,,,,0,,,81,70
32384,note_off,,,,,128,0,12,,,,,4,,,66,100
32384,note_off,,,,,128,0,13,,,,,5,,,48,100
32384,note_off,,,,,32,0,8,,,,,0,,,81,100
32400,note_on,,,,,16,0,8,,,,,0,,,72,70
32416,note_off,,,,,64,0,11,,,,,3,,,72,100
32416,note_off,,,,,64,0,10,,,,,2,,,75,100
32432,note_off,,,,,32,0,8,,,,,0,,,72,100
32444,note_off,,,,,92,0,9,,,,,1,,,78,100
32448,note_on,,,,,16,0,8,,,,,0,,,66,70
32448,note_on,,,,,64,0,12,,,,,4,,,66,60
32448,note_on,,,,,32,0,10,,,,,2,,,78,70
32448,note_on,,,,,32,0,11,,,,,3,,,75,70
32448,note_on,,,,,64,0,13,,,,,5,,,48,100
32448,note_on,,,,,4,0,9,,,,,1,,,75,70
32480,note_off,,,,,32,0,8,,,,,0,,,66,100
32496,note_on,,,,,16,0,8,,,,,0,,,72,70
32512,note_off,,,,,64,0,10,,,,,2,,,78,100
32512,note_off,,,,,64,0,9,,,,,1,,,75,100
32528,note_off,,,,,32,0,8,,,,,0,,,72,100
32540,note_off,,,,,92,0,11,,,,,3,,,75,100
32544,note_on,,,,,32,0,9,,,,,1,,,81,70
32544,note_on,,,,,4,0,11,,,,,3,,,72,70
32544,note_on,,,,,32,0,10,,,,,2,,,75,70
32544,note_on,,,,,16,0,8,,,,,0,,,81,70
32576,note_off,,,,,128,0,12,,,,,4,,,66,100
32576,note_off,,,,,128,0,13,,,,,5,,,48,100
32576,note_off,,,,,32,0,8,,,,,0,,,81,100
32592,note_on,,,,,16,0,8,,,,,0,,,72,70
32608,note_off,,,,,64,0,9,,,,,1,,,81,100
32608,note_off,,,,,64,0,10,,,,,2,,,75,100
32608,note_off,,,,,64,0,11,,,,,3,,,72,100
32624,note_off,,,,,32,0,8,,,,,0,,,72,100
32640,note_on,,,,,32,0,10,,,,,2,,,72,70
32640,note_on,,,,,32,0,11,,,,,3,,,75,70
32640,note_on,,,,,16,0,8,,,,,0,,,66,70
32640,note_on,,,,,64,0,12,,,,,4,,,66,60
32640,note_on,,,,,64,0,13,,,,,5,,,48,100
32640,note_on,,,,,32,0,9,,,,,1,,,81,70
32672,note_off,,,,,32,0,8,,,,,0,,,66,100
32688,note_on,,,,,16,0,8,,,,,0,,,72,70
32704,note_off,,,,,64,0,10,,,,,2,,,72,100
32720,note_off,,,,,32,0,8,,,,,0,,,72,100
32732,note_off,,,,,92,0,11,,,,,3,,,75,100
32732,note_off,,,,,92,0,9,,,,,1,,,81,100
32736,note_on,,,,,4,0,11,,,,,3,,,72,70
32736,note_on,,,,,16,0,8,,,,,0,,,81,70
32736,note_on,,,,,32,0,10,,,,,2,,,75,70
32736,note_on,,,,,4,0,9,,,,,1,,,78,70
32768,note_off,,,,,128,0,13,,,,,5,,,48,100
32768,note_off,,,,,128,0,12,,,,,4,,,66,100
32768,note_off,,,,,32,0,8,,,,,0,,,81,100
32784,note_on,,,,,16,0,8,,,,,0,,,72,70
32800,note_off,,,,,64,0,10,,,,,2,,,75,100
32800,note_off,,,,,64,0,11,,,,,3,,,72,100
32816,note_off,,,,,32,0,8,,,,,0,,,72,100
32828,note_off,,,,,92,0,9,,,,,1,,,78,100
32832,note_on,,,,,16,0,8,,,,,0,,,66,70
32832,note_on,,,,,64,0,13,,,,,5,,,48,100
32832,note_on,,,,,32,0,10,,,,,2,,,78,70
32832,note_on,,,,,64,0,12,,,,,4,,,66,60
32832,note_on,,,,,32,0,11,,,,,3,,,75,70
32832,note_on,,,,,4,0,9,,,,,1,,,75,70
32864,note_off,,,,,32,0,8,,,,,0,,,66,100
32880,note_on,,,,,16,0,8,,,,,0,,,72,70
32896,note_off,,,,,64,0,10,,,,,2,,,78,100
32896,note_off,,,,,64,0,9,,,,,1,,,75,100
32912,note_off,,,,,32,0,8,,,,,0,,,72,100
32924,note_off,,,,,92,0,11,,,,,3,,,75,100
32928,note_on,,,,,32,0,10,,,,,2,,,75,70
32928,note_on,,,,,4,0,11,,,,,3,,,72,70
32928,note_on,,,,,32,0,9,,,,,1,,,81,70
32928,note_on,,,,,16,0,8,,,,,0,,,81,70
32960,note_off,,,,,32,0,8,,,,,0,,,81,100
32960,note_off,,,,,128,0,13,,,,,5,,,48,100
32960,note_off,,,,,128,0,12,,,,,4,,,66,100
32976,note_on,,,,,16,0,8,,,,,0,,,72,70
32992,note_off,,,,,64,0,10,,,,,2,,,75,100
32992,note_off,,,,,64,0,11,,,,,3,,,72,100
32992,note_off,,,,,64,0,9,,,,,1,,,81,100
33008,note_off,,,,,32,0,8,,,,,0,,,72,100
33024,note_on,,,,,64,0,12,,,,,4,,,66,60
33024,note_on,,,,,32,0,11,,,,,3,,,75,70
33024,note_on,,,,,16,0,8,,,,,0,,,66,70
33024,note_on,,,,,32,0,10,,,,,2,,,72,70
33024,note_on,,,,,32,0,9,,,,,1,,,81,70
33024,note_on,,,,,64,0,13,,,,,5,,,48,100
33056,note_off,,,,,32,0,8,,,,,0,,,66,100
33072,note_on,,,,,16,0,8,,,,,0,,,72,70
33088,note_off,,,,,64,0,10,,,,,2,,,72,100
33104,note_off,,,,,32,0,8,,,,,0,,,72,100
33116,note_off,,,,,92,0,9,,,,,1,,,81,100
33116,note_off,,,,,92,0,11,,,,,3,,,75,100
33120,note_on,,,,,4,0,9,,,,,1,,,78,70
33120,note_on,,,,,32,0,10,,,,,2,,,75,70
33120,note_on,,,,,16,0,8,,,,,0,,,81,70
33120,note_on,,,,,4,0,11,,,,,3,,,72,70
33152,note_off,,,,,128,0,12,,,,,4,,,66,100
33152,note_off,,,,,32,0,8,,,,,0,,,81,100
33152,note_off,,,,,128,0,13,,,,,5,,,48,100
33168,note_on,,,,,16,0,8,,,,,0,,,72,70
33184,note_off,,,,,64,0,10,,,,,2,,,75,100
33184,note_off,,,,,64,0,11,,,,,3,,,72,100
33200,note_off,,,,,32,0,8,,,,,0,,,72,100
33212,note_off,,,,,92,0,9,,,,,1,,,78,100
33216,note_on,,,,,32,0,10,,,,,2,,,78,70
33216,note_on,,,,,64,0,13,,,,,5,,,48,100
33216,note_on,,,,,4,0,9,,,,,1,,,75,70
33216,note_on,,,,,32,0,11,,,,,3,,,75,70
33216,note_on,,,,,64,0,12,,,,,4,,,66,60
33216,note_on,,,,,16,0,8,,,,,0,,,66,70
33248,note_off,,,,,32,0,8,,,,,0,,,66,100
33264,note_on,,,,,16,0,8,,,,,0,,,72,70
33280,note_off,,,,,64,0,10,,,,,2,,,78,100
33280,note_off,,,,,64,0,9,,,,,1,,,75,100
33296,note_off,,,,,32,0,8,,,,,0,,,72,100
33308,note_off,,,,,92,0,11,,,,,3,,,75,100
33312,note_on,,,,,16,0,8,,,,,0,,,81,70
33312,note_on,,,,,32,0,9,,,,,1,,,81,70
33312,note_on,,,,,4,0,11,,,,,3,,,72,70
33312,note_on,,,,,32,0,10,,,,,2,,,75,70
33344,note_off,,,,,128,0,12,,,,,4,,,66,100
33344,note_off,,,,,32,0,8,,,,,0,,,81,100
33344,note_off,,,,,128,0,13,,,,,5,,,48,100
33360,note_on,,,,,16,0,8,,,,,0,,,72,70
33376,note_off,,,,,64,0,10,,,,,2,,,75,100
33376,note_off,,,,,64,0,11,,,,,3,,,72,100
33376,note_off,,,,,64,0,9,,,,,1,,,81,100
33392,note_off,,,,,32,0,8,,,,,0,,,72,100
33408,note_on,,,,,32,0,11,,,,,3,,,75,70
33408,note_on,,,,,32,0,10,,,,,2,,,72,70
33408,note_on,,,,,64,0,13,,,,,5,,,48,100
33408,note_on,,,,,16,0,8,,,,,0,,,66,70
33408,note_on,,,,,64,0,12,,,,,4,,,68,60
33408,note_on,,,,,0,0,12,,,,,4,,,66,60
33408,note_on,,,,,32,0,9,,,,,1,,,80,70
33440,note_off,,,,,32,0,8,,,,,0,,,66,100
33456,note_on,,,,,16,0,8,,,,,0,,,72,70
33472,note_off,,,,,64,0,10,,,,,2,,,72,100
33488,note_off,,,,,32,0,8,,,,,0,,,72,100
33500,note_off,,,,,92,0,9,,,,,1,,,80,100
33500,note_off,,,,,92,0,11,,,,,3,,,75,100
33504,note_on,,,,,16,0,8,,,,,0,,,80,70
33504,note_on,,,,,32,0,10,,,,,2,,,75,70
33504,note_on,,,,,4,0,11,,,,,3,,,72,70
33504,note_on,,,,,4,0,9,,,,,1,,,75,70
33536,note_off,,,,,128,0,13,,,,,5,,,48,100
33536,note_off,,,,,128,0,12,,,,,4,,,68,100
33536,note_off,,,,,0,0,12,,,,,4,,,66,100
33536,note_off,,,,,32,0,8,,,,,0,,,80,100
33552,note_on,,,,,16,0,8,,,,,0,,,72,70
33568,note_off,,,,,64,0,10,,,,,2,,,75,100
33568,note_off,,,,,64,0,11,,,,,3,,,72,100
33584,note_off,,,,,32,0,8,,,,,0,,,72,100
33596,note_off,,,,,92,0,9,,,,,1,,,75,100
33600,note_on,,,,,64,0,12,,,,,4,,,68,60
33600,note_on,,,,,4,0,9,,,,,1,,,72,70
33600,note_on,,,,,32,0,10,,,,,2,,,80,70
33600,note_on,,,,,64,0,13,,,,,5,,,48,100
33600,note_on,,,,,32,0,11,,,,,3,,,75,70
33600,note_on,,,,,0,0,12,,,,,4,,,66,60
33600,note_on,,,,,16,0,8,,,,,0,,,66,70
33632,note_off,,,,,32,0,8,,,,,0,,,66,100
33648,note_on,,,,,16,0,8,,,,,0,,,72,70
33664,note_off,,,,,64,0,10,,,,,2,,,80,100
33664,note_off,,,,,64,0,9,,,,,1,,,72,100
33680,note_off,,,,,32,0,8,,,,,0,,,72,100
33692,note_off,,,,,92,0,11,,,,,3,,,75,100
33696,note_on,,,,,32,0,10,,,,,2,,,75,70
33696,note_on,,,,,32,0,9,,,,,1,,,80,70
33696,note_on,,,,,16,0,8,,,,,0,,,80,70
33696,note_on,,,,,4,0,11,,,,,3,,,72,70
33728,note_off,,,,,0,0,12,,,,,4,,,66,100
33728,note_off,,,,,32,0,8,,,,,0,,,80,100
33728,note_off,,,,,128,0,13,,,,,5,,,48,100
33728,note_off,,,,,128,0,12,,,,,4,,,68,100
33744,note_on,,,,,16,0,8,,,,,0,,,72,70
33760,note_off,,,,,64,0,11,,,,,3,,,72,100
33760,note_off,,,,,64,0,9,,,,,1,,,80,100
33760,note_off,,,,,64,0,10,,,,,2,,,75,100
33776,note_off,,,,,32,0,8,,,,,0,,,72,100
33792,note_on,,,,,32,0,11,,,,,3,,,75,70
33792,note_on,,,,,16,0,8,,,,,0,,,66,70
33792,note_on,,,,,32,0,10,,,,,2,,,72,70
33792,note_on,,,,,0,0,12,,,,,4,,,66,60
33792,note_on,,,,,64,0,13,,,,,5,,,48,100
33792,note_on,,,,,32,0,9,,,,,1,,,80,70
33792,note_on,,,,,64,0,12,,,,,4,,,68,60
33824,note_off,,,,,32,0,8,,,,,0,,,66,100
33840,note_on,,,,,16,0,8,,,,,0,,,72,70
33856,note_off,,,,,64,0,10,,,,,2,,,72,100
33872,note_off,,,,,32,0,8,,,,,0,,,72,100
33884,note_off,,,,,92,0,9,,,,,1,,,80,100
33884,note_off,,,,,92,0,11,,,,,3,,,75,100
33888,note_on,,,,,4,0,9,,,,,1,,,75,70
33888,note_on,,,,,32,0,10,,,,,2,,,75,70
33888,note_on,,,,,4,0,11,,,,,3,,,72,70
33888,note_on,,,,,16,0,8,,,,,0,,,80,70
33920,note_off,,,,,128,0,13,,,,,5,,,48,100
33920,note_off,,,,,32,0,8,,,,,0,,,80,100
33920,note_off,,,,,128,0,12,,,,,4,,,68,100
33920,note_off,,,,,0,0,12,,,,,4,,,66,100
33936,note_on,,,,,16,0,8,,,,,0,,,72,70
33952,note_off,,,,,64,0,11,,,,,3,,,72,100
33952,note_off,,,,,64,0,10,,,,,2,,,75,100
33968,note_off,,,,,32,0,8,,,,,0,,,72,100
33980,note_off,,,,,92,0,9,,,,,1,,,75,100
33984,note_on,,,,,32,0,10,,,,,2,,,80,70
33984,note_on,,,,,32,0,11,,,,,3,,,75,70
33984,note_on,,,,,16,0,8,,,,,0,,,66,70
33984,note_on,,,,,64,0,13,,,,,5,,,48,100
33984,note_on,,,,,4,0,9,,,,,1,,,72,70
33984,note_on,,,,,0,0,12,,,,,4,,,66,60
33984,note_on,,,,,64,0,12,,,,,4,,,68,60
34016,note_off,,,,,32,0,8,,,,,0,,,66,100
34032,note_on,,,,,16,0,8,,,,,0,,,72,70
34048,note_off,,,,,64,0,9,,,,,1,,,72,100
34048,note_off,,,,,64,0,10,,,,,2,,,80,100
34064,note_off,,,,,32,0,8,,,,,0,,,72,100
34076,note_off,,,,,92,0,11,,,,,3,,,75,100
34080,note_on,,,,,32,0,9,,,,,1,,,80,70
34080,note_on,,,,,4,0,11,,,,,3,,,72,70
34080,note_on,,,,,16,0,8,,,,,0,,,80,70
34080,note_on,,,,,32,0,10,,,,,2,,,75,70
34112,note_off,,,,,32,0,8,,,,,0,,,80,100
34112,note_off,,,,,128,0,12,,,,,4,,,68,100
34112,note_off,,,,,0,0,12,,,,,4,,,66,100
34112,note_off,,,,,128,0,13,,,,,5,,,48,100
34128,note_on,,,,,16,0,8,,,,,0,,,72,70
34144,note_off,,,,,64,0,11,,,,,3,,,72,100
34144,note_off,,,,,64,0,10,,,,,2,,,75,100
34144,note_off,,,,,64,0,9,,,,,1,,,80,100
34160,note_off,,,,,32,0,8,,,,,0,,,72,100
34176,note_on,,,,,64,0,12,,,,,4,,,68,60
34176,note_on,,,,,0,0,12,,,,,4,,,66,60
34176,note_on,,,,,32,0,10,,,,,2,,,72,70
34176,note_on,,,,,64,0,13,,,,,5,,,48,100
34176,note_on,,,,,32,0,11,,,,,3,,,75,70
34176,note_on,,,,,16,0,8,,,,,0,,,66,70
34176,note_on,,,,,32,0,9,,,,,1,,,80,70
34208,note_off,,,,,32,0,8,,,,,0,,,66,100
34224,note_on,,,,,16,0,8,,,,,0,,,72,70
34240,note_off,,,,,64,0,10,,,,,2,,,72,100
34256,note_off,,,,,32,0,8,,,,,0,,,72,100
34268,note_off,,,,,92,0,9,,,,,1,,,80,100
34268,note_off,,,,,92,0,11,,,,,3,,,75,100
34272,note_on,,,,,4,0,11,,,,,3,,,72,70
34272,note_on,,,,,4,0,9,,,,,1,,,75,70
34272,note_on,,,,,32,0,10,,,,,2,,,75,70
34272,note_on,,,,,16,0,8,,,,,0,,,80,70
34304,note_off,,,,,128,0,12,,,,,4,,,68,100
34304,note_off,,,,,0,0,12,,,,,4,,,66,100
34304,note_off,,,,,32,0,8,,,,,0,,,80,100
34304,note_off,,,,,128,0,13,,,,,5,,,48,100
34320,note_on,,,,,16,0,8,,,,,0,,,72,70
34336,note_off,,,,,64,0,10,,,,,2,,,75,100
34336,note_off,,,,,64,0,11,,,,,3,,,72,100
34352,note_off,,,,,32,0,8,,,,,0,,,72,100
34364,note_off,,,,,92,0,9,,,,,1,,,75,100
34368,note_on,,,,,32,0,11,,,,,3,,,75,70
34368,note_on,,,,,0,0,12,,,,,4,,,66,60
34368,note_on,,,,,32,0,10,,,,,2,,,80,70
34368,note_on,,,,,64,0,12,,,,,4,,,68,60
34368,note_on,,,,,4,0,9,,,,,1,,,72,70
34368,note_on,,,,,16,0,8,,,,,0,,,66,70
34368,note_on,,,,,64,0,13,,,,,5,,,48,100
34400,note_off,,,,,32,0,8,,,,,0,,,66,100
34416,note_on,,,,,48,0,11,,,,,3,,,72,70
34416,note_on,,,,,16,0,8,,,,,0,,,72,70
34432,note_off,,,,,64,0,10,,,,,2,,,80,100
34432,note_off,,,,,64,0,9,,,,,1,,,72,100
34448,note_off,,,,,32,0,8,,,,,0,,,72,100
34460,note_off,,,,,44,0,11,,,,,3,,,75,100
34464,note_on,,,,,32,0,9,,,,,1,,,80,70
34464,note_on,,,,,32,0,10,,,,,2,,,75,70
34464,note_on,,,,,16,0,8,,,,,0,,,80,70
34480,note_off,,,,,20,0,11,,,,,3,,,72,100
34496,note_off,,,,,128,0,13,,,,,5,,,48,100
34496,note_off,,,,,32,0,8,,,,,0,,,80,100
34496,note_off,,,,,128,0,12,,,,,4,,,68,100
34496,note_off,,,,,0,0,12,,,,,4,,,66,100
34512,note_on,,,,,16,0,8,,,,,0,,,72,70
34528,note_off,,,,,64,0,10,,,,,2,,,75,100
34528,note_off,,,,,64,0,9,,,,,1,,,80,100
34544,note_off,,,,,32,0,8,,,,,0,,,72,100
34560,note_on,,,,,64,0,13,,,,,5,,,49,100
34560,note_on,,,,,0,0,12,,,,,4,,,68,60
34560,note_on,,,,,32,0,10,,,,,2,,,73,70
34560,note_on,,,,,64,0,12,,,,,4,,,64,60
34560,note_on,,,,,32,0,9,,,,,1,,,80,70
34560,note_on,,,,,80,0,11,,,,,3,,,76,70
34560,note_on,,,,,16,0,8,,,,,0,,,64,70
34592,note_off,,,,,32,0,8,,,,,0,,,64,100
34608,note_on,,,,,16,0,8,,,,,0,,,73,70
34624,note_off,,,,,64,0,10,,,,,2,,,73,100
34640,note_off,,,,,32,0,8,,,,,0,,,73,100
34652,note_off,,,,,92,0,11,,,,,3,,,76,100
34652,note_off,,,,,92,0,9,,,,,1,,,80,100
34656,note_on,,,,,32,0,10,,,,,2,,,76,70
34656,note_on,,,,,4,0,11,,,,,3,,,73,70
34656,note_on,,,,,4,0,9,,,,,1,,,76,70
34656,note_on,,,,,16,0,8,,,,,0,,,80,70
34688,note_off,,,,,32,0,8,,,,,0,,,80,100
34688,note_off,,,,,128,0,13,,,,,5,,,49,100
34688,note_off,,,,,128,0,12,,,,,4,,,64,100
34688,note_off,,,,,0,0,12,,,,,4,,,68,100
34704,note_on,,,,,16,0,8,,,,,0,,,73,70
34720,note_off,,,,,64,0,11,,,,,3,,,73,100
34720,note_off,,,,,64,0,10,,,,,2,,,76,100
34736,note_off,,,,,32,0,8,,,,,0,,,73,100
34748,note_off,,,,,92,0,9,,,,,1,,,76,100
34752,note_on,,,,,64,0,13,,,,,5,,,49,100
34752,note_on,,,,,4,0,9,,,,,1,,,73,70
34752,note_on,,,,,0,0,12,,,,,4,,,68,60
34752,note_on,,,,,64,0,12,,,,,4,,,64,60
34752,note_on,,,,,32,0,10,,,,,2,,,80,70
34752,note_on,,,,,32,0,11,,,,,3,,,76,70
34752,note_on,,,,,16,0,8,,,,,0,,,64,70
34784,note_off,,,,,32,0,8,,,,,0,,,64,100
34800,note_on,,,,,16,0,8,,,,,0,,,73,70
34816,note_off,,,,,64,0,9,,,,,1,,,73,100
34816,note_off,,,,,64,0,10,,,,,2,,,80,100
34832,note_off,,,,,32,0,8,,,,,0,,,73,100
34844,note_off,,,,,92,0,11,,,,,3,,,76,100
34848,note_on,,,,,32,0,10,,,,,2,,,76,70
34848,note_on,,,,,4,0,11,,,,,3,,,73,70
34848,note_on,,,,,16,0,8,,,,,0,,,80,70
34848,note_on,,,,,32,0,9,,,,,1,,,80,70
34880,note_off,,,,,128,0,12,,,,,4,,,64,100
34880,note_off,,,,,0,0,12,,,,,4,,,68,100
34880,note_off,,,,,128,0,13,,,,,5,,,49,100
34880,note_off,,,,,32,0,8,,,,,0,,,80,100
34896,note_on,,,,,16,0,8,,,,,0,,,73,70
34912,note_off,,,,,64,0,10,,,,,2,,,76,100
34912,note_off,,,,,64,0,9,,,,,1,,,80,100
34912,note_off,,,,,64,0,11,,,,,3,,,73,100
34928,note_off,,,,,32,0,8,,,,,0,,,73,100
34944,note_on,,,,,64,0,12,,,,,4,,,64,60
34944,note_on,,,,,0,0,12,,,,,4,,,68,60
34944,note_on,,,,,32,0,10,,,,,2,,,73,70
34944,note_on,,,,,64,0,13,,,,,5,,,49,100
34944,note_on,,,,,32,0,11,,,,,3,,,76,70
34944,note_on,,,,,16,0,8,,,,,0,,,64,70
34944,note_on,,,,,32,0,9,,,,,1,,,80,70
34976,note_off,,,,,32,0,8,,,,,0,,,64,100
34992,note_on,,,,,16,0,8,,,,,0,,,73,70
35008,note_off,,,,,64,0,10,,,,,2,,,73,100
35024,note_off,,,,,32,0,8,,,,,0,,,73,100
35036,note_off,,,,,92,0,9,,,,,1,,,80,100
35036,note_off,,,,,92,0,11,,,,,3,,,76,100
35040,note_on,,,,,16,0,8,,,,,0,,,80,70
35040,note_on,,,,,32,0,10,,,,,2,,,76,70
35040,note_on,,,,,4,0,9,,,,,1,,,76,70
35040,note_on,,,,,4,0,11,,,,,3,,,73,70
35072,note_off,,,,,128,0,13,,,,,5,,,49,100
35072,note_off,,,,,0,0,12,,,,,4,,,68,100
35072,note_off,,,,,128,0,12,,,,,4,,,64,100
35072,note_off,,,,,32,0,8,,,,,0,,,80,100
35088,note_on,,,,,16,0,8,,,,,0,,,73,70
35104,note_off,,,,,64,0,10,,,,,2,,,76,100
35104,note_off,,,,,64,0,11,,,,,3,,,73,100
35120,note_off,,,,,32,0,8,,,,,0,,,73,100
35132,note_off,,,,,92,0,9,,,,,1,,,76,100
35136,note_on,,,,,32,0,10,,,,,2,,,80,70
35136,note_on,,,,,64,0,13,,,,,5,,,49,100
35136,note_on,,,,,16,0,8,,,,,0,,,64,70
35136,note_on,,,,,0,0,12,,,,,4,,,68,60
35136,note_on,,,,,32,0,11,,,,,3,,,76,70
35136,note_on,,,,,64,0,12,,,,,4,,,64,60
35136,note_on,,,,,4,0,9,,,,,1,,,73,70
35168,note_off,,,,,32,0,8,,,,,0,,,64,100
35184,note_on,,,,,16,0,8,,,,,0,,,73,70
35200,note_off,,,,,64,0,10,,,,,2,,,80,100
35200,note_off,,,,,64,0,9,,,,,1,,,73,100
35216,note_off,,,,,32,0,8,,,,,0,,,73,100
35228,note_off,,,,,92,0,11,,,,,3,,,76,100
35232,note_on,,,,,4,0,11,,,,,3,,,73,70
35232,note_on,,,,,32,0,9,,,,,1,,,80,70
35232,note_on,,,,,16,0,8,,,,,0,,,80,70
35232,note_on,,,,,32,0,10,,,,,2,,,76,70
35264,note_off,,,,,128,0,12,,,,,4,,,64,100
35264,note_off,,,,,0,0,12,,,,,4,,,68,100
35264,note_off,,,,,128,0,13,,,,,5,,,49,100
35264,note_off,,,,,32,0,8,,,,,0,,,80,100
35280,note_on,,,,,16,0,8,,,,,0,,,73,70
35296,note_off,,,,,64,0,10,,,,,2,,,76,100
35296,note_off,,,,,64,0,11,,,,,3,,,73,100
35296,note_off,,,,,64,0,9,,,,,1,,,80,100
35312,note_off,,,,,32,0,8,,,,,0,,,73,100
35328,note_on,,,,,0,0,12,,,,,4,,,68,60
35328,note_on,,,,,64,0,12,,,,,4,,,64,60
35328,note_on,,,,,32,0,11,,,,,3,,,76,70
35328,note_on,,,,,64,0,13,,,,,5,,,49,100
35328,note_on,,,,,32,0,10,,,,,2,,,73,70
35328,note_on,,,,,32,0,9,,,,,1,,,80,70
35328,note_on,,,,,16,0,8,,,,,0,,,64,70
35360,note_off,,,,,32,0,8,,,,,0,,,64,100
35376,note_on,,,,,16,0,8,,,,,0,,,73,70
35392,note_off,,,,,64,0,10,,,,,2,,,73,100
35408,note_off,,,,,32,0,8,,,,,0,,,73,100
35420,note_off,,,,,92,0,11,,,,,3,,,76,100
35420,note_off,,,,,92,0,9,,,,,1,,,80,100
35424,note_on,,,,,4,0,9,,,,,1,,,76,70
35424,note_on,,,,,32,0,10,,,,,2,,,76,70
35424,note_on,,,,,16,0,8,,,,,0,,,80,70
35424,note_on,,,,,4,0,11,,,,,3,,,73,70
35456,note_off,,,,,32,0,8,,,,,0,,,80,100
35456,note_off,,,,,0,0,12,,,,,4,,,68,100
35456,note_off,,,,,128,0,13,,,,,5,,,49,100
35456,note_off,,,,,128,0,12,,,,,4,,,64,100
35472,note_on,,,,,16,0,8,,,,,0,,,73,70
35488,note_off,,,,,64,0,11,,,,,3,,,73,100
35488,note_off,,,,,64,0,10,,,,,2,,,76,100
35504,note_off,,,,,32,0,8,,,,,0,,,73,100
35516,note_off,,,,,92,0,9,,,,,1,,,76,100
35520,note_on,,,,,32,0,11,,,,,3,,,76,70
35520,note_on,,,,,64,0,13,,,,,5,,,49,100
35520,note_on,,,,,64,0,12,,,,,4,,,64,60
35520,note_on,,,,,0,0,12,,,,,4,,,68,60
35520,note_on,,,,,16,0,8,,,,,0,,,64,70
35520,note_on,,,,,32,0,10,,,,,2,,,80,70
35520,note_on,,,,,4,0,9,,,,,1,,,73,70
35552,note_off,,,,,32,0,8,,,,,0,,,64,100
35568,note_on,,,,,16,0,8,,,,,0,,,73,70
35584,note_off,,,,,64,0,10,,,,,2,,,80,100
35584,note_off,,,,,64,0,9,,,,,1,,,73,100
35600,note_off,,,,,32,0,8,,,,,0,,,73,100
35612,note_off,,,,,92,0,11,,,,,3,,,76,100
35616,note_on,,,,,16,0,8,,,,,0,,,80,70
35616,note_on,,,,,32,0,10,,,,,2,,,76,70
35616,note_on,,,,,32,0,9,,,,,1,,,80,70
35616,note_on,,,,,4,0,11,,,,,3,,,73,70
35648,note_off,,,,,128,0,13,,,,,5,,,49,100
35648,note_off,,,,,32,0,8,,,,,0,,,80,100
35648,note_off,,,,,128,0,12,,,,,4,,,64,100
35648,note_off,,,,,0,0,12,,,,,4,,,68,100
35664,note_on,,,,,16,0,8,,,,,0,,,73,70
35680,note_off,,,,,64,0,11,,,,,3,,,73,100
35680,note_off,,,,,64,0,10,,,,,2,,,76,100
35680,note_off,,,,,64,0,9,,,,,1,,,80,100
35696,note_off,,,,,32,0,8,,,,,0,,,73,100
35712,note_on,,,,,32,0,10,,,,,2,,,74,70
35712,note_on,,,,,32,0,9,,,,,1,,,83,70
35712,note_on,,,,,64,0,12,,,,,4,,,65,60
35712,note_on,,,,,0,0,12,,,,,4,,,68,60
35712,note_on,,,,,32,0,11,,,,,3,,,80,70
35712,note_on,,,,,64,0,13,,,,,5,,,53,100
35712,note_on,,,,,16,0,8,,,,,0,,,65,70
35744,note_off,,,,,32,0,8,,,,,0,,,65,100
35760,note_on,,,,,16,0,8,,,,,0,,,74,70
35776,note_off,,,,,64,0,10,,,,,2,,,74,100
35792,note_off,,,,,32,0,8,,,,,0,,,74,100
35804,note_off,,,,,92,0,9,,,,,1,,,83,100
35804,note_off,,,,,92,0,11,,,,,3,,,80,100
35808,note_on,,,,,32,0,10,,,,,2,,,80,70
35808,note_on,,,,,4,0,9,,,,,1,,,80,70
35808,note_on,,,,,4,0,11,,,,,3,,,74,70
35808,note_on,,,,,16,0,8,,,,,0,,,83,70
35840,note_off,,,,,32,0,8,,,,,0,,,83,100
35840,note_off,,,,,128,0,13,,,,,5,,,53,100
35840,note_off,,,,,0,0,12,,,,,4,,,68,100
35840,note_off,,,,,128,0,12,,,,,4,,,65,100
35856,note_on,,,,,16,0,8,,,,,0,,,74,70
35872,note_off,,,,,64,0,11,,,,,3,,,74,100
35872,note_off,,,,,64,0,10,,,,,2,,,80,100
35888,note_off,,,,,32,0,8,,,,,0,,,74,100
35900,note_off,,,,,92,0,9,,,,,1,,,80,100
35904,note_on,,,,,64,0,13,,,,,5,,,53,100
35904,note_on,,,,,16,0,8,,,,,0,,,65,70
35904,note_on,,,,,64,0,12,,,,,4,,,65,60
35904,note_on,,,,,0,0,12,,,,,4,,,68,60
35904,note_on,,,,,32,0,11,,,,,3,,,80,70
35904,note_on,,,,,32,0,10,,,,,2,,,83,70
35904,note_on,,,,,4,0,9,,,,,1,,,77,70
35936,note_off,,,,,32,0,8,,,,,0,,,65,100
35952,note_on,,,,,16,0,8,,,,,0,,,74,70
35968,note_off,,,,,64,0,10,,,,,2,,,83,100
35968,note_off,,,,,64,0,9,,,,,1,,,77,100
35984,note_off,,,,,32,0,8,,,,,0,,,74,100
35996,note_off,,,,,92,0,11,,,,,3,,,80,100
36000,note_on,,,,,16,0,8,,,,,0,,,83,70
36000,note_on,,,,,32,0,9,,,,,1,,,83,70
36000,note_on,,,,,32,0,10,,,,,2,,,80,70
36000,note_on,,,,,4,0,11,,,,,3,,,74,70
36032,note_off,,,,,128,0,13,,,,,5,,,53,100
36032,note_off,,,,,128,0,12,,,,,4,,,65,100
36032,note_off,,,,,32,0,8,,,,,0,,,83,100
36032,note_off,,,,,0,0,12,,,,,4,,,68,100
36048,note_on,,,,,16,0,8,,,,,0,,,74,70
36064,note_off,,,,,64,0,11,,,,,3,,,74,100
36064,note_off,,,,,64,0,9,,,,,1,,,83,100
36064,note_off,,,,,64,0,10,,,,,2,,,80,100
36080,note_off,,,,,32,0,8,,,,,0,,,74,100
36096,note_on,,,,,32,0,10,,,,,2,,,74,70
36096,note_on,,,,,32,0,11,,,,,3,,,80,70
36096,note_on,,,,,64,0,13,,,,,5,,,53,100
36096,note_on,,,,,16,0,8,,,,,0,,,65,70
36096,note_on,,,,,64,0,12,,,,,4,,,65,60
36096,note_on,,,,,0,0,12,,,,,4,,,68,60
36096,note_on,,,,,32,0,9,,,,,1,,,83,70
36128,note_off,,,,,32,0,8,,,,,0,,,65,100
36144,note_on,,,,,16,0,8,,,,,0,,,74,70
36160,note_off,,,,,64,0,10,,,,,2,,,74,100
36176,note_off,,,,,32,0,8,,,,,0,,,74,100
36188,note_off,,,,,92,0,9,,,,,1,,,83,100
36188,note_off,,,,,92,0,11,,,,,3,,,80,100
36192,note_on,,,,,32,0,10,,,,,2,,,80,70
36192,note_on,,,,,4,0,11,,,,,3,,,74,70
36192,note_on,,,,,4,0,9,,,,,1,,,80,70
36192,note_on,,,,,16,0,8,,,,,0,,,83,70
36224,note_off,,,,,0,0,12,,,,,4,,,68,100
36224,note_off,,,,,128,0,12,,,,,4,,,65,100
36224,note_off,,,,,32,0,8,,,,,0,,,83,100
36224,note_off,,,,,128,0,13,,,,,5,,,53,100
36240,note_on,,,,,16,0,8,,,,,0,,,74,70
36256,note_off,,,,,64,0,10,,,,,2,,,80,100
36256,note_off,,,,,64,0,11,,,,,3,,,74,100
36272,note_off,,,,,32,0,8,,,,,0,,,74,100
36284,note_off,,,,,92,0,9,,,,,1,,,80,100
36288,note_on,,,,,64,0,13,,,,,5,,,53,100
36288,note_on,,,,,0,0,12,,,,,4,,,68,60
36288,note_on,,,,,64,0,12,,,,,4,,,65,60
36288,note_on,,,,,16,0,8,,,,,0,,,65,70
36288,note_on,,,,,32,0,10,,,,,2,,,83,70
36288,note_on,,,,,32,0,11,,,,,3,,,80,70
36288,note_on,,,,,4,0,9,,,,,1,,,77,70
36320,note_off,,,,,32,0,8,,,,,0,,,65,100
36336,note_on,,,,,16,0,8,,,,,0,,,74,70
36352,note_off,,,,,64,0,9,,,,,1,,,77,100
36352,note_off,,,,,64,0,10,,,,,2,,,83,100
36368,note_off,,,,,32,0,8,,,,,0,,,74,100
36380,note_off,,,,,92,0,11,,,,,3,,,80,100
36384,note_on,,,,,4,0,11,,,,,3,,,74,70
36384,note_on,,,,,32,0,10,,,,,2,,,80,70
36384,note_on,,,,,32,0,9,,,,,1,,,83,70
36384,note_on,,,,,16,0,8,,,,,0,,,83,70
36416,note_off,,,,,128,0,12,,,,,4,,,65,100
36416,note_off,,,,,128,0,13,,,,,5,,,53,100
36416,note_off,,,,,32,0,8,,,,,0,,,83,100
36416,note_off,,,,,0,0,12,,,,,4,,,68,100
36432,note_on,,,,,16,0,8,,,,,0,,,74,70
36448,note_off,,,,,64,0,11,,,,,3,,,74,100
36448,note_off,,,,,64,0,10,,,,,2,,,80,100
36448,note_off,,,,,64,0,9,,,,,1,,,83,100
36464,note_off,,,,,32,0,8,,,,,0,,,74,100
36480,note_on,,,,,16,0,8,,,,,0,,,65,70
36480,note_on,,,,,0,0,12,,,,,4,,,68,60
36480,note_on,,,,,32,0,9,,,,,1,,,83,70
36480,note_on,,,,,32,0,11,,,,,3,,,80,70
36480,note_on,,,,,64,0,13,,,,,5,,,53,100
36480,note_on,,,,,32,0,10,,,,,2,,,74,70
36480,note_on,,,,,64,0,12,,,,,4,,,65,60
36512,note_off,,,,,32,0,8,,,,,0,,,65,100
36528,note_on,,,,,16,0,8,,,,,0,,,74,70
36544,note_off,,,,,64,0,10,,,,,2,,,74,100
36560,note_off,,,,,32,0,8,,,,,0,,,74,100
36572,note_off,,,,,92,0,11,,,,,3,,,80,100
36572,note_off,,,,,92,0,9,,,,,1,,,83,100
36576,note_on,,,,,32,0,10,,,,,2,,,80,70
36576,note_on,,,,,4,0,9,,,,,1,,,80,70
36576,note_on,,,,,16,0,8,,,,,0,,,83,70
36576,note_on,,,,,4,0,11,,,,,3,,,74,70
36608,note_off,,,,,0,0,12,,,,,4,,,68,100
36608,note_off,,,,,128,0,12,,,,,4,,,65,100
36608,note_off,,,,,128,0,13,,,,,5,,,53,100
36608,note_off,,,,,32,0,8,,,,,0,,,83,100
36624,note_on,,,,,16,0,8,,,,,0,,,74,70
36640,note_off,,,,,64,0,10,,,,,2,,,80,100
36640,note_off,,,,,64,0,11,,,,,3,,,74,100
36656,note_off,,,,,32,0,8,,,,,0,,,74,100
36668,note_off,,,,,92,0,9,,,,,1,,,80,100
36672,note_on,,,,,32,0,10,,,,,2,,,83,70
36672,note_on,,,,,16,0,8,,,,,0,,,65,70
36672,note_on,,,,,64,0,12,,,,,4,,,65,60
36672,note_on,,,,,0,0,12,,,,,4,,,68,60
36672,note_on,,,,,4,0,9,,,,,1,,,77,70
36672,note_on,,,,,64,0,13,,,,,5,,,53,100
36672,note_on,,,,,32,0,11,,,,,3,,,80,70
36704,note_off,,,,,32,0,8,,,,,0,,,65,100
36720,note_on,,,,,48,0,11,,,,,3,,,74,70
36720,note_on,,,,,16,0,8,,,,,0,,,74,70
36736,note_off,,,,,64,0,9,,,,,1,,,77,100
36736,note_off,,,,,64,0,10,,,,,2,,,83,100
36752,note_off,,,,,32,0,8,,,,,0,,,74,100
36764,note_off,,,,,44,0,11,,,,,3,,,80,100
36768,note_on,,,,,16,0,8,,,,,0,,,83,70
36768,note_on,,,,,32,0,9,,,,,1,,,83,70
36768,note_on,,,,,32,0,10,,,,,2,,,80,70
36784,note_off,,,,,20,0,11,,,,,3,,,74,100
36800,note_off,,,,,0,0,12,,,,,4,,,68,100
36800,note_off,,,,,128,0,12,,,,,4,,,65,100
36800,note_off,,,,,32,0,8,,,,,0,,,83,100
36800,note_off,,,,,128,0,13,,,,,5,,,53,100
36816,note_on,,,,,16,0,8,,,,,0,,,74,70
36832,note_off,,,,,64,0,9,,,,,1,,,83,100
36832,note_off,,,,,64,0,10,,,,,2,,,80,100
36848,note_off,,,,,32,0,8,,,,,0,,,74,100
36864,note_on,,,,,16,0,8,,,,,0,,,66,70
36864,note_on,,,,,32,0,10,,,,,2,,,73,70
36864,note_on,,,,,64,0,13,,,,,5,,,54,100
36864,note_on,,,,,80,0,11,,,,,3,,,78,70
36864,note_on,,,,,32,0,9,,,,,1,,,83,70
36864,note_on,,,,,64,0,12,,,,,4,,,73,60
36864,note_on,,,,,0,0,12,,,,,4,,,61,60
36896,note_off,,,,,32,0,8,,,,,0,,,66,100
36912,note_on,,,,,16,0,8,,,,,0,,,73,70
36928,note_off,,,,,64,0,10,,,,,2,,,73,100
36944,note_off,,,,,32,0,8,,,,,0,,,73,100
36956,note_off,,,,,92,0,11,,,,,3,,,78,100
36956,note_off,,,,,92,0,9,,,,,1,,,83,100
36960,note_on,,,,,32,0,10,,,,,2,,,78,70
36960,note_on,,,,,16,0,8,,,,,0,,,83,70
36960,note_on,,,,,4,0,9,,,,,1,,,78,70
36960,note_on,,,,,4,0,11,,,,,3,,,73,70
36992,note_off,,,,,0,0,12,,,,,4,,,61,100
36992,note_off,,,,,128,0,12,,,,,4,,,73,100
36992,note_off,,,,,32,0,8,,,,,0,,,83,100
36992,note_off,,,,,128,0,13,,,,,5,,,54,100
37008,note_on,,,,,16,0,8,,,,,0,,,73,70
37024,note_off,,,,,64,0,11,,,,,3,,,73,100
37024,note_off,,,,,64,0,10,,,,,2,,,78,100
37040,note_off,,,,,32,0,8,,,,,0,,,73,100
37052,note_off,,,,,92,0,9,,,,,1,,,78,100
37056,note_on,,,,,16,0,8,,,,,0,,,66,70
37056,note_on,,,,,32,0,10,,,,,2,,,83,70
37056,note_on,,,,,4,0,9,,,,,1,,,73,70
37056,note_on,,,,,0,0,12,,,,,4,,,61,60
37056,note_on,,,,,64,0,12,,,,,4,,,73,60
37056,note_on,,,,,64,0,13,,,,,5,,,54,100
37056,note_on,,,,,32,0,11,,,,,3,,,78,70
37088,note_off,,,,,32,0,8,,,,,0,,,66,100
37104,note_on,,,,,16,0,8,,,,,0,,,73,70
37120,note_off,,,,,64,0,9,,,,,1,,,73,100
37120,note_off,,,,,64,0,10,,,,,2,,,83,100
37136,note_off,,,,,32,0,8,,,,,0,,,73,100
37148,note_off,,,,,92,0,11,,,,,3,,,78,100
37152,note_on,,,,,32,0,10,,,,,2,,,78,70
37152,note_on,,,,,32,0,9,,,,,1,,,83,70
37152,note_on,,,,,16,0,8,,,,,0,,,83,70
37152,note_on,,,,,4,0,11,,,,,3,,,73,70
37184,note_off,,,,,32,0,8,,,,,0,,,83,100
37184,note_off,,,,,128,0,12,,,,,4,,,73,100
37184,note_off,,,,,0,0,12,,,,,4,,,61,100
37184,note_off,,,,,128,0,13,,,,,5,,,54,100
37200,note_on,,,,,16,0,8,,,,,0,,,73,70
37216,note_off,,,,,64,0,9,,,,,1,,,83,100
37216,note_off,,,,,64,0,11,,,,,3,,,73,100
37216,note_off,,,,,64,0,10,,,,,2,,,78,100
37232,note_off,,,,,32,0,8,,,,,0,,,73,100
37248,note_on,,,,,64,0,13,,,,,5,,,54,100
37248,note_on,,,,,0,0,12,,,,,4,,,66,60
37248,note_on,,,,,64,0,12,,,,,4,,,73,60
37248,note_on,,,,,16,0,8,,,,,0,,,66,70
37248,note_on,,,,,32,0,10,,,,,2,,,73,70
37248,note_on,,,,,32,0,11,,,,,3,,,78,70
37248,note_on,,,,,32,0,9,,,,,1,,,83,70
37280,note_off,,,,,32,0,8,,,,,0,,,66,100
37296,note_on,,,,,16,0,8,,,,,0,,,73,70
37312,note_off,,,,,64,0,10,,,,,2,,,73,100
37328,note_off,,,,,32,0,8,,,,,0,,,73,100
37340,note_off,,,,,92,0,11,,,,,3,,,78,100
37340,note_off,,,,,92,0,9,,,,,1,,,83,100
37344,note_on,,,,,32,0,10,,,,,2,,,78,70
37344,note_on,,,,,4,0,9,,,,,1,,,78,70
37344,note_on,,,,,16,0,8,,,,,0,,,83,70
37344,note_on,,,,,4,0,11,,,,,3,,,73,70
37376,note_off,,,,,128,0,13,,,,,5,,,54,100
37376,note_off,,,,,32,0,8,,,,,0,,,83,100
37376,note_off,,,,,0,0,12,,,,,4,,,66,100
37376,note_off,,,,,128,0,12,,,,,4,,,73,100
37392,note_on,,,,,16,0,8,,,,,0,,,73,70
37408,note_off,,,,,64,0,11,,,,,3,,,73,100
37408,note_off,,,,,64,0,10,,,,,2,,,78,100
37424,note_off,,,,,32,0,8,,,,,0,,,73,100
37436,note_off,,,,,92,0,9,,,,,1,,,78,100
37440,note_on,,,,,32,0,11,,,,,3,,,78,70
37440,note_on,,,,,16,0,8,,,,,0,,,66,70
37440,note_on,,,,,0,0,12,,,,,4,,,66,60
37440,note_on,,,,,64,0,12,,,,,4,,,73,60
37440,note_on,,,,,4,0,9,,,,,1,,,73,70
37440,note_on,,,,,32,0,10,,,,,2,,,83,70
37440,note_on,,,,,64,0,13,,,,,5,,,54,100
37472,note_off,,,,,32,0,8,,,,,0,,,66,100
37488,note_on,,,,,16,0,8,,,,,0,,,73,70
37504,note_off,,,,,64,0,9,,,,,1,,,73,100
37504,note_off,,,,,64,0,10,,,,,2,,,83,100
37520,note_off,,,,,32,0,8,,,,,0,,,73,100
37532,note_off,,,,,92,0,11,,,,,3,,,78,100
37536,note_on,,,,,32,0,10,,,,,2,,,78,70
37536,note_on,,,,,4,0,11,,,,,3,,,73,70
37536,note_on,,,,,32,0,9,,,,,1,,,83,70
37536,note_on,,,,,16,0,8,,,,,0,,,83,70
37568,note_off,,,,,32,0,8,,,,,0,,,83,100
37568,note_off,,,,,128,0,12,,,,,4,,,73,100
37568,note_off,,,,,0,0,12,,,,,4,,,66,100
37568,note_off,,,,,128,0,13,,,,,5,,,54,100
37584,note_on,,,,,16,0,8,,,,,0,,,73,70
37600,note_off,,,,,64,0,9,,,,,1,,,83,100
37600,note_off,,,,,64,0,11,,,,,3,,,73,100
37600,note_off,,,,,64,0,10,,,,,2,,,78,100
37616,note_off,,,,,32,0,8,,,,,0,,,73,100
37632,note_on,,,,,64,0,12,,,,,4,,,73,60
37632,note_on,,,,,64,0,13,,,,,5,,,54,100
37632,note_on,,,,,16,0,8,,,,,0,,,66,70
37632,note_on,,,,,0,0,12,,,,,4,,,66,60
37632,note_on,,,,,32,0,10,,,,,2,,,73,70
37632,note_on,,,,,32,0,9,,,,,1,,,83,70
37632,note_on,,,,,32,0,11,,,,,3,,,78,70
37664,note_off,,,,,32,0,8,,,,,0,,,66,100
37680,note_on,,,,,16,0,8,,,,,0,,,73,70
37696,note_off,,,,,64,0,10,,,,,2,,,73,100
37712,note_off,,,,,32,0,8,,,,,0,,,73,100
37724,note_off,,,,,92,0,11,,,,,3,,,78,100
37724,note_off,,,,,92,0,9,,,,,1,,,83,100
37728,note_on,,,,,4,0,11,,,,,3,,,73,70
37728,note_on,,,,,4,0,9,,,,,1,,,78,70
37728,note_on,,,,,16,0,8,,,,,0,,,83,70
37728,note_on,,,,,32,0,10,,,,,2,,,78,70
37760,note_off,,,,,0,0,12,,,,,4,,,66,100
37760,note_off,,,,,128,0,12,,,,,4,,,73,100
37760,note_off,,,,,128,0,13,,,,,5,,,54,100
37760,note_off,,,,,32,0,8,,,,,0,,,83,100
37776,note_on,,,,,16,0,8,,,,,0,,,73,70
37792,note_off,,,,,64,0,11,,,,,3,,,73,100
37792,note_off,,,,,64,0,10,,,,,2,,,78,100
37808,note_off,,,,,32,0,8,,,,,0,,,73,100
37820,note_off,,,,,92,0,9,,,,,1,,,78,100
37824,note_on,,,,,32,0,11,,,,,3,,,78,70
37824,note_on,,,,,32,0,10,,,,,2,,,83,70
37824,note_on,,,,,64,0,13,,,,,5,,,54,100
37824,note_on,,,,,4,0,9,,,,,1,,,73,70
37824,note_on,,,,,64,0,12,,,,,4,,,73,60
37824,note_on,,,,,16,0,8,,,,,0,,,66,70
37824,note_on,,,,,0,0,12,,,,,4,,,66,60
37856,note_off,,,,,32,0,8,,,,,0,,,66,100
37872,note_on,,,,,16,0,8,,,,,0,,,73,70
37888,note_off,,,,,64,0,10,,,,,2,,,83,100
37888,note_off,,,,,64,0,9,,,,,1,,,73,100
37904,note_off,,,,,32,0,8,,,,,0,,,73,100
37916,note_off,,,,,92,0,11,,,,,3,,,78,100
37920,note_on,,,,,32,0,10,,,,,2,,,78,70
37920,note_on,,,,,16,0,8,,,,,0,,,83,70
37920,note_on,,,,,4,0,11,,,,,3,,,73,70
37920,note_on,,,,,32,0,9,,,,,1,,,83,70
37952,note_off,,,,,0,0,12,,,,,4,,,66,100
37952,note_off,,,,,32,0,8,,,,,0,,,83,100
37952,note_off,,,,,128,0,12,,,,,4,,,73,100
37952,note_off,,,,,128,0,13,,,,,5,,,54,100
37968,note_on,,,,,16,0,8,,,,,0,,,73,70
37984,note_off,,,,,64,0,9,,,,,1,,,83,100
37984,note_off,,,,,64,0,11,,,,,3,,,73,100
37984,note_off,,,,,64,0,10,,,,,2,,,78,100
38000,note_off,,,,,32,0,8,,,,,0,,,73,100
38016,note_on,,,,,64,0,13,,,,,5,,,54,100
38016,note_on,,,,,32,0,11,,,,,3,,,78,70
38016,note_on,,,,,32,0,10,,,,,2,,,73,70
38016,note_on,,,,,0,0,12,,,,,4,,,66,60
38016,note_on,,,,,64,0,12,,,,,4,,,73,60
38016,note_on,,,,,16,0,8,,,,,0,,,66,70
38016,note_on,,,,,32,0,9,,,,,1,,,81,70
38048,note_off,,,,,32,0,8,,,,,0,,,66,100
38064,note_on,,,,,16,0,8,,,,,0,,,73,70
38080,note_off,,,,,64,0,10,,,,,2,,,73,100
38096,note_off,,,,,32,0,8,,,,,0,,,73,100
38108,note_off,,,,,92,0,9,,,,,1,,,81,100
38108,note_off,,,,,92,0,11,,,,,3,,,78,100
38112,note_on,,,,,4,0,9,,,,,1,,,78,70
38112,note_on,,,,,32,0,10,,,,,2,,,78,70
38112,note_on,,,,,16,0,8,,,,,0,,,81,70
38112,note_on,,,,,4,0,11,,,,,3,,,73,70
38144,note_off,,,,,0,0,12,,,,,4,,,66,100
38144,note_off,,,,,128,0,12,,,,,4,,,73,100
38144,note_off,,,,,32,0,8,,,,,0,,,81,100
38144,note_off,,,,,128,0,13,,,,,5,,,54,100
38160,note_on,,,,,16,0,8,,,,,0,,,73,70
38176,note_off,,,,,64,0,10,,,,,2,,,78,100
38176,note_off,,,,,64,0,11,,,,,3,,,73,100
38192,note_off,,,,,32,0,8,,,,,0,,,73,100
38204,note_off,,,,,92,0,9,,,,,1,,,78,100
38208,note_on,,,,,4,0,9,,,,,1,,,73,70
38208,note_on,,,,,16,0,8,,,,,0,,,66,70
38208,note_on,,,,,0,0,12,,,,,4,,,66,60
38208,note_on,,,,,32,0,11,,,,,3,,,78,70
38208,note_on,,,,,64,0,12,,,,,4,,,73,60
38208,note_on,,,,,64,0,13,,,,,5,,,54,100
38208,note_on,,,,,32,0,10,,,,,2,,,81,70
38240,note_off,,,,,32,0,8,,,,,0,,,66,100
38256,note_on,,,,,16,0,8,,,,,0,,,73,70
38272,note_off,,,,,64,0,10,,,,,2,,,81,100
38272,note_off,,,,,64,0,9,,,,,1,,,73,100
38288,note_off,,,,,32,0,8,,,,,0,,,73,100
38300,note_off,,,,,92,0,11,,,,,3,,,78,100
38304,note_on,,,,,32,0,10,,,,,2,,,78,70
38304,note_on,,,,,32,0,9,,,,,1,,,81,70
38304,note_on,,,,,4,0,11,,,,,3,,,73,70
38304,note_on,,,,,16,0,8,,,,,0,,,81,70
38336,note_off,,,,,0,0,12,,,,,4,,,66,100
38336,note_off,,,,,128,0,13,,,,,5,,,54,100
38336,note_off,,,,,128,0,12,,,,,4,,,73,100
38336,note_off,,,,,32,0,8,,,,,0,,,81,100
38352,note_on,,,,,16,0,8,,,,,0,,,73,70
38368,note_off,,,,,64,0,11,,,,,3,,,73,100
38368,note_off,,,,,64,0,9,,,,,1,,,81,100
38368,note_off,,,,,64,0,10,,,,,2,,,78,100
38384,note_off,,,,,32,0,8,,,,,0,,,73,100
38400,note_on,,,,,32,0,9,,,,,1,,,81,70
38400,note_on,,,,,64,0,13,,,,,5,,,54,100
38400,note_on,,,,,32,0,10,,,,,2,,,73,70
38400,note_on,,,,,32,0,11,,,,,3,,,78,70
38400,note_on,,,,,64,0,12,,,,,4,,,73,60
38400,note_on,,,,,0,0,12,,,,,4,,,66,60
38400,note_on,,,,,16,0,8,,,,,0,,,66,70
38432,note_off,,,,,32,0,8,,,,,0,,,66,100
38448,note_on,,,,,16,0,8,,,,,0,,,73,70
38464,note_off,,,,,64,0,10,,,,,2,,,73,100
38480,note_off,,,,,32,0,8,,,,,0,,,73,100
38492,note_off,,,,,92,0,9,,,,,1,,,81,100
38492,note_off,,,,,92,0,11,,,,,3,,,78,100
38496,note_on,,,,,4,0,9,,,,,1,,,78,70
38496,note_on,,,,,32,0,10,,,,,2,,,78,70
38496,note_on,,,,,16,0,8,,,,,0,,,81,70
38496,note_on,,,,,4,0,11,,,,,3,,,73,70
38528,note_off,,,,,32,0,8,,,,,0,,,81,100
38528,note_off,,,,,128,0,13,,,,,5,,,54,100
38528,note_off,,,,,0,0,12,,,,,4,,,66,100
38528,note_off,,,,,128,0,12,,,,,4,,,73,100
38544,note_on,,,,,16,0,8,,,,,0,,,73,70
38560,note_off,,,,,64,0,11,,,,,3,,,73,100
38560,note_off,,,,,64,0,10,,,,,2,,,78,100
38576,note_off,,,,,32,0,8,,,,,0,,,73,100
38588,note_off,,,,,92,0,9,,,,,1,,,78,100
38592,note_on,,,,,4,0,9,,,,,1,,,73,70
38592,note_on,,,,,64,0,12,,,,,4,,,73,60
38592,note_on,,,,,32,0,10,,,,,2,,,81,70
38592,note_on,,,,,16,0,8,,,,,0,,,66,70
38592,note_on,,,,,32,0,11,,,,,3,,,78,70
38592,note_on,,,,,0,0,12,,,,,4,,,66,60
38592,note_on,,,,,64,0,13,,,,,5,,,54,100
38624,note_off,,,,,32,0,8,,,,,0,,,66,100
38640,note_on,,,,,16,0,8,,,,,0,,,73,70
38656,note_off,,,,,64,0,10,,,,,2,,,81,100
38656,note_off,,,,,64,0,9,,,,,1,,,73,100
38672,note_off,,,,,32,0,8,,,,,0,,,73,100
38684,note_off,,,,,92,0,11,,,,,3,,,78,100
38688,note_on,,,,,32,0,9,,,,,1,,,81,70
38688,note_on,,,,,16,0,8,,,,,0,,,81,70
38688,note_on,,,,,4,0,11,,,,,3,,,73,70
38688,note_on,,,,,32,0,10,,,,,2,,,78,70
38720,note_off,,,,,0,0,12,,,,,4,,,66,100
38720,note_off,,,,,32,0,8,,,,,0,,,81,100
38720,note_off,,,,,128,0,13,,,,,5,,,54,100
38720,note_off,,,,,128,0,12,,,,,4,,,73,100
38736,note_on,,,,,16,0,8,,,,,0,,,73,70
38752,note_off,,,,,64,0,9,,,,,1,,,81,100
38752,note_off,,,,,64,0,11,,,,,3,,,73,100
38752,note_off,,,,,64,0,10,,,,,2,,,78,100
38768,note_off,,,,,32,0,8,,,,,0,,,73,100
38784,note_on,,,,,16,0,8,,,,,0,,,66,70
38784,note_on,,,,,32,0,11,,,,,3,,,78,70
38784,note_on,,,,,0,0,12,,,,,4,,,66,60
38784,note_on,,,,,64,0,12,,,,,4,,,73,60
38784,note_on,,,,,32,0,9,,,,,1,,,81,70
38784,note_on,,,,,32,0,10,,,,,2,,,73,70
38784,note_on,,,,,64,0,13,,,,,5,,,54,100
38816,note_off,,,,,32,0,8,,,,,0,,,66,100
38832,note_on,,,,,16,0,8,,,,,0,,,73,70
38848,note_off,,,,,64,0,10,,,,,2,,,73,100
38864,note_off,,,,,32,0,8,,,,,0,,,73,100
38876,note_off,,,,,92,0,9,,,,,1,,,81,100
38876,note_off,,,,,92,0,11,,,,,3,,,78,100
38880,note_on,,,,,4,0,9,,,,,1,,,78,70
38880,note_on,,,,,4,0,11,,,,,3,,,73,70
38880,note_on,,,,,32,0,10,,,,,2,,,78,70
38880,note_on,,,,,16,0,8,,,,,0,,,81,70
38912,note_off,,,,,128,0,13,,,,,5,,,54,100
38912,note_off,,,,,128,0,12,,,,,4,,,73,100
38912,note_off,,,,,32,0,8,,,,,0,,,81,100
38912,note_off,,,,,0,0,12,,,,,4,,,66,100
38928,note_on,,,,,16,0,8,,,,,0,,,73,70
38944,note_off,,,,,64,0,10,,,,,2,,,78,100
38944,note_off,,,,,64,0,11,,,,,3,,,73,100
38960,note_off,,,,,32,0,8,,,,,0,,,73,100
38972,note_off,,,,,92,0,9,,,,,1,,,78,100
38976,note_on,,,,,32,0,11,,,,,3,,,78,70
38976,note_on,,,,,64,0,13,,,,,5,,,54,100
38976,note_on,,,,,0,0,12,,,,,4,,,66,60
38976,note_on,,,,,64,0,12,,,,,4,,,73,60
38976,note_on,,,,,32,0,10,,,,,2,,,81,70
38976,note_on,,,,,4,0,9,,,,,1,,,73,70
38976,note_on,,,,,16,0,8,,,,,0,,,66,70
39008,note_off,,,,,32,0,8,,,,,0,,,66,100
39024,note_on,,,,,48,0,11,,,,,3,,,73,70
39024,note_on,,,,,16,0,8,,,,,0,,,73,70
39040,note_off,,,,,64,0,9,,,,,1,,,73,100
39040,note_off,,,,,64,0,10,,,,,2,,,81,100
39056,note_off,,,,,32,0,8,,,,,0,,,73,100
39068,note_off,,,,,44,0,11,,,,,3,,,78,100
39072,note_on,,,,,16,0,8,,,,,0,,,81,70
39072,note_on,,,,,32,0,9,,,,,1,,,81,70
39072,note_on,,,,,32,0,10,,,,,2,,,78,70
39088,note_off,,,,,20,0,11,,,,,3,,,73,100
39104,note_off,,,,,32,0,8,,,,,0,,,81,100
39104,note_off,,,,,0,0,12,,,,,4,,,66,100
39104,note_off,,,,,128,0,12,,,,,4,,,73,100
39104,note_off,,,,,128,0,13,,,,,5,,,54,100
39120,note_on,,,,,16,0,8,,,,,0,,,73,70
39136,note_off,,,,,64,0,9,,,,,1,,,81,100
39136,note_off,,,,,64,0,10,,,,,2,,,78,100
39152,note_off,,,,,32,0,8,,,,,0,,,73,100
39168,note_on,,,,,64,0,13,,,,,5,,,47,100
39168,note_on,,,,,16,0,8,,,,,0,,,66,70
39168,note_on,,,,,32,0,9,,,,,1,,,81,70
39168,note_on,,,,,32,0,10,,,,,2,,,75,70
39168,note_on,,,,,64,0,12,,,,,4,,,71,60
39168,note_on,,,,,0,0,12,,,,,4,,,66,60
39168,note_on,,,,,80,0,11,,,,,3,,,78,70
39200,note_off,,,,,32,0,8,,,,,0,,,66,100
39216,note_on,,,,,16,0,8,,,,,0,,,75,70
39232,note_off,,,,,64,0,10,,,,,2,,,75,100
39248,note_off,,,,,32,0,8,,,,,0,,,75,100
39260,note_off,,,,,92,0,9,,,,,1,,,81,100
39260,note_off,,,,,92,0,11,,,,,3,,,78,100
39264,note_on,,,,,16,0,8,,,,,0,,,81,70
39264,note_on,,,,,4,0,11,,,,,3,,,75,70
39264,note_on,,,,,32,0,10,,,,,2,,,78,70
39264,note_on,,,,,4,0,9,,,,,1,,,78,70
39296,note_off,,,,,128,0,13,,,,,5,,,47,100
39296,note_off,,,,,128,0,12,,,,,4,,,71,100
39296,note_off,,,,,0,0,12,,,,,4,,,66,100
39296,note_off,,,,,32,0,8,,,,,0,,,81,100
39312,note_on,,,,,16,0,8,,,,,0,,,75,70
39328,note_off,,,,,64,0,10,,,,,2,,,78,100
39328,note_off,,,,,64,0,11,,,,,3,,,75,100
39344,note_off,,,,,32,0,8,,,,,0,,,75,100
39356,note_off,,,,,92,0,9,,,,,1,,,78,100
39360,note_on,,,,,32,0,11,,,,,3,,,78,70
39360,note_on,,,,,32,0,10,,,,,2,,,81,70
39360,note_on,,,,,16,0,8,,,,,0,,,66,70
39360,note_on,,,,,4,0,9,,,,,1,,,71,70
39360,note_on,,,,,64,0,13,,,,,5,,,47,100
39360,note_on,,,,,64,0,12,,,,,4,,,71,60
39360,note_on,,,,,0,0,12,,,,,4,,,66,60
39392,note_off,,,,,32,0,8,,,,,0,,,66,100
39408,note_on,,,,,16,0,8,,,,,0,,,75,70
39424,note_off,,,,,64,0,10,,,,,2,,,81,100
39424,note_off,,,,,64,0,9,,,,,1,,,71,100
39440,note_off,,,,,32,0,8,,,,,0,,,75,100
39452,note_off,,,,,92,0,11,,,,,3,,,78,100
39456,note_on,,,,,32,0,10,,,,,2,,,78,70
39456,note_on,,,,,16,0,8,,,,,0,,,81,70
39456,note_on,,,,,4,0,11,,,,,3,,,75,70
39456,note_on,,,,,32,0,9,,,,,1,,,81,70
39488,note_off,,,,,32,0,8,,,,,0,,,81,100
39488,note_off,,,,,128,0,12,,,,,4,,,71,100
39488,note_off,,,,,0,0,12,,,,,4,,,66,100
39488,note_off,,,,,128,0,13,,,,,5,,,47,100
39504,note_on,,,,,16,0,8,,,,,0,,,75,70
39520,note_off,,,,,64,0,11,,,,,3,,,75,100
39520,note_off,,,,,64,0,9,,,,,1,,,81,100
39520,note_off,,,,,64,0,10,,,,,2,,,78,100
39536,note_off,,,,,32,0,8,,,,,0,,,75,100
39552,note_on,,,,,16,0,8,,,,,0,,,66,70
39552,note_on,,,,,32,0,10,,,,,2,,,75,70
39552,note_on,,,,,0,0,12,,,,,4,,,66,60
39552,note_on,,,,,64,0,13,,,,,5,,,47,100
39552,note_on,,,,,32,0,11,,,,,3,,,78,70
39552,note_on,,,,,64,0,12,,,,,4,,,71,60
39552,note_on,,,,,32,0,9,,,,,1,,,81,70
39584,note_off,,,,,32,0,8,,,,,0,,,66,100
39600,note_on,,,,,16,0,8,,,,,0,,,75,70
39616,note_off,,,,,64,0,10,,,,,2,,,75,100
39632,note_off,,,,,32,0,8,,,,,0,,,75,100
39644,note_off,,,,,92,0,11,,,,,3,,,78,100
39644,note_off,,,,,92,0,9,,,,,1,,,81,100
39648,note_on,,,,,4,0,11,,,,,3,,,75,70
39648,note_on,,,,,16,0,8,,,,,0,,,81,70
39648,note_on,,,,,32,0,10,,,,,2,,,78,70
39648,note_on,,,,,4,0,9,,,,,1,,,78,70
39680,note_off,,,,,32,0,8,,,,,0,,,81,100
39680,note_off,,,,,128,0,13,,,,,5,,,47,100
39680,note_off,,,,,0,0,12,,,,,4,,,66,100
39680,note_off,,,,,128,0,12,,,,,4,,,71,100
39696,note_on,,,,,16,0,8,,,,,0,,,75,70
39712,note_off,,,,,64,0,10,,,,,2,,,78,100
39712,note_off,,,,,64,0,11,,,,,3,,,75,100
39728,note_off,,,,,32,0,8,,,,,0,,,75,100
39740,note_off,,,,,92,0,9,,,,,1,,,78,100
39744,note_on,,,,,64,0,13,,,,,5,,,47,100
39744,note_on,,,,,0,0,12,,,,,4,,,66,60
39744,note_on,,,,,64,0,12,,,,,4,,,71,60
39744,note_on,,,,,32,0,11,,,,,3,,,78,70
39744,note_on,,,,,4,0,9,,,,,1,,,71,70
39744,note_on,,,,,32,0,10,,,,,2,,,81,70
39744,note_on,,,,,16,0,8,,,,,0,,,66,70
39776,note_off,,,,,32,0,8,,,,,0,,,66,100
39792,note_on,,,,,16,0,8,,,,,0,,,75,70
39808,note_off,,,,,64,0,10,,,,,2,,,81,100
39808,note_off,,,,,64,0,9,,,,,1,,,71,100
39824,note_off,,,,,32,0,8,,,,,0,,,75,100
39836,note_off,,,,,92,0,11,,,,,3,,,78,100
39840,note_on,,,,,4,0,11,,,,,3,,,75,70
39840,note_on,,,,,16,0,8,,,,,0,,,81,70
39840,note_on,,,,,32,0,10,,,,,2,,,78,70
39840,note_on,,,,,32,0,9,,,,,1,,,81,70
39872,note_off,,,,,32,0,8,,,,,0,,,81,100
39872,note_off,,,,,128,0,12,,,,,4,,,71,100
39872,note_off,,,,,0,0,12,,,,,4,,,66,100
39872,note_off,,,,,128,0,13,,,,,5,,,47,100
39888,note_on,,,,,16,0,8,,,,,0,,,75,70
39904,note_off,,,,,64,0,9,,,,,1,,,81,100
39904,note_off,,,,,64,0,11,,,,,3,,,75,100
39904,note_off,,,,,64,0,10,,,,,2,,,78,100
39920,note_off,,,,,32,0,8,,,,,0,,,75,100
39936,note_on,,,,,0,0,12,,,,,4,,,66,60
39936,note_on,,,,,32,0,11,,,,,3,,,78,70
39936,note_on,,,,,16,0,8,,,,,0,,,66,70
39936,note_on,,,,,64,0,12,,,,,4,,,71,60
39936,note_on,,,,,32,0,9,,,,,1,,,81,70
39936,note_on,,,,,64,0,13,,,,,5,,,47,100
39936,note_on,,,,,32,0,10,,,,,2,,,75,70
39968,note_off,,,,,32,0,8,,,,,0,,,66,100
39984,note_on,,,,,16,0,8,,,,,0,,,75,70
40000,note_off,,,,,64,0,10,,,,,2,,,75,100
40016,note_off,,,,,32,0,8,,,,,0,,,75,100
40028,note_off,,,,,92,0,11,,,,,3,,,78,100
40028,note_off,,,,,92,0,9,,,,,1,,,81,100
40032,note_on,,,,,4,0,9,,,,,1,,,78,70
40032,note_on,,,,,4,0,11,,,,,3,,,75,70
40032,note_on,,,,,32,0,10,,,,,2,,,78,70
40032,note_on,,,,,16,0,8,,,,,0,,,81,70
40064,note_off,,,,,128,0,12,,,,,4,,,71,100
40064,note_off,,,,,0,0,12,,,,,4,,,66,100
40064,note_off,,,,,128,0,13,,,,,5,,,47,100
40064,note_off,,,,,32,0,8,,,,,0,,,81,100
40080,note_on,,,,,16,0,8,,,,,0,,,75,70
40096,note_off,,,,,64,0,10,,,,,2,,,78,100
40096,note_off,,,,,64,0,11,,,,,3,,,75,100
40112,note_off,,,,,32,0,8,,,,,0,,,75,100
40124,note_off,,,,,92,0,9,,,,,1,,,78,100
40128,note_on,,,,,16,0,8,,,,,0,,,66,70
40128,note_on,,,,,32,0,10,,,,,2,,,81,70
40128,note_on,,,,,0,0,12,,,,,4,,,66,60
40128,note_on,,,,,64,0,12,,,,,4,,,71,60
40128,note_on,,,,,32,0,11,,,,,3,,,78,70
40128,note_on,,,,,64,0,13,,,,,5,,,47,100
40128,note_on,,,,,4,0,9,,,,,1,,,71,70
40160,note_off,,,,,32,0,8,,,,,0,,,66,100
40176,note_on,,,,,16,0,8,,,,,0,,,75,70
40192,note_off,,,,,64,0,10,,,,,2,,,81,100
40192,note_off,,,,,64,0,9,,,,,1,,,71,100
40208,note_off,,,,,32,0,8,,,,,0,,,75,100
40220,note_off,,,,,92,0,11,,,,,3,,,78,100
40224,note_on,,,,,16,0,8,,,,,0,,,81,70
40224,note_on,,,,,32,0,9,,,,,1,,,81,70
40224,note_on,,,,,32,0,10,,,,,2,,,78,70
40224,note_on,,,,,4,0,11,,,,,3,,,75,70
40256,note_off,,,,,0,0,12,,,,,4,,,66,100
40256,note_off,,,,,128,0,13,,,,,5,,,47,100
40256,note_off,,,,,32,0,8,,,,,0,,,81,100
40256,note_off,,,,,128,0,12,,,,,4,,,71,100
40272,note_on,,,,,16,0,8,,,,,0,,,75,70
40288,note_off,,,,,64,0,10,,,,,2,,,78,100
40288,note_off,,,,,64,0,9,,,,,1,,,81,100
40288,note_off,,,,,64,0,11,,,,,3,,,75,100
40304,note_off,,,,,32,0,8,,,,,0,,,75,100
40320,note_on,,,,,64,0,13,,,,,5,,,52,100
40320,note_on,,,,,32,0,9,,,,,1,,,79,70
40320,note_on,,,,,16,0,8,,,,,0,,,64,70
40320,note_on,,,,,0,0,12,,,,,4,,,71,60
40320,note_on,,,,,64,0,12,,,,,4,,,67,60
40320,note_on,,,,,32,0,11,,,,,3,,,76,70
40320,note_on,,,,,32,0,10,,,,,2,,,71,70
40352,note_off,,,,,32,0,8,,,,,0,,,64,100
40368,note_on,,,,,16,0,8,,,,,0,,,71,70
40384,note_off,,,,,64,0,10,,,,,2,,,71,100
40400,note_off,,,,,32,0,8,,,,,0,,,71,100
40412,note_off,,,,,92,0,9,,,,,1,,,79,100
40412,note_off,,,,,92,0,11,,,,,3,,,76,100
40416,note_on,,,,,4,0,11,,,,,3,,,71,70
40416,note_on,,,,,4,0,9,,,,,1,,,76,70
40416,note_on,,,,,32,0,10,,,,,2,,,76,70
40416,note_on,,,,,16,0,8,,,,,0,,,79,70
40448,note_off,,,,,32,0,8,,,,,0,,,79,100
40448,note_off,,,,,0,0,12,,,,,4,,,71,100
40448,note_off,,,,,128,0,12,,,,,4,,,67,100
40448,note_off,,,,,128,0,13,,,,,5,,,52,100
40464,note_on,,,,,16,0,8,,,,,0,,,71,70
40480,note_off,,,,,64,0,11,,,,,3,,,71,100
40480,note_off,,,,,64,0,10,,,,,2,,,76,100
40496,note_off,,,,,32,0,8,,,,,0,,,71,100
40508,note_off,,,,,92,0,9,,,,,1,,,76,100
40512,note_on,,,,,32,0,11,,,,,3,,,76,70
40512,note_on,,,,,4,0,9,,,,,1,,,71,70
40512,note_on,,,,,0,0,12,,,,,4,,,71,60
40512,note_on,,,,,64,0,12,,,,,4,,,67,60
40512,note_on,,,,,64,0,13,,,,,5,,,52,100
40512,note_on,,,,,16,0,8,,,,,0,,,64,70
40512,note_on,,,,,32,0,10,,,,,2,,,79,70
40544,note_off,,,,,32,0,8,,,,,0,,,64,100
40560,note_on,,,,,16,0,8,,,,,0,,,71,70
40576,note_off,,,,,64,0,10,,,,,2,,,79,100
40576,note_off,,,,,64,0,9,,,,,1,,,71,100
40592,note_off,,,,,32,0,8,,,,,0,,,71,100
40604,note_off,,,,,92,0,11,,,,,3,,,76,100
40608,note_on,,,,,4,0,11,,,,,3,,,71,70
40608,note_on,,,,,16,0,8,,,,,0,,,79,70
40608,note_on,,,,,32,0,10,,,,,2,,,76,70
40608,note_on,,,,,32,0,9,,,,,1,,,79,70
40640,note_off,,,,,128,0,12,,,,,4,,,67,100
40640,note_off,,,,,0,0,12,,,,,4,,,71,100
40640,note_off,,,,,128,0,13,,,,,5,,,52,100
40640,note_off,,,,,32,0,8,,,,,0,,,79,100
40656,note_on,,,,,16,0,8,,,,,0,,,71,70
40672,note_off,,,,,64,0,10,,,,,2,,,76,100
40672,note_off,,,,,64,0,9,,,,,1,,,79,100
40672,note_off,,,,,64,0,11,,,,,3,,,71,100
40688,note_off,,,,,32,0,8,,,,,0,,,71,100
40704,note_on,,,,,32,0,9,,,,,1,,,79,70
40704,note_on,,,,,32,0,10,,,,,2,,,71,70
40704,note_on,,,,,16,0,8,,,,,0,,,64,70
40704,note_on,,,,,32,0,11,,,,,3,,,76,70
40704,note_on,,,,,64,0,12,,,,,4,,,67,60
40704,note_on,,,,,0,0,12,,,,,4,,,71,60
40704,note_on,,,,,64,0,13,,,,,5,,,52,100
40736,note_off,,,,,32,0,8,,,,,0,,,64,100
40752,note_on,,,,,16,0,8,,,,,0,,,71,70
40768,note_off,,,,,64,0,10,,,,,2,,,71,100
40784,note_off,,,,,32,0,8,,,,,0,,,71,100
40796,note_off,,,,,92,0,9,,,,,1,,,79,100
40796,note_off,,,,,92,0,11,,,,,3,,,76,100
40800,note_on,,,,,4,0,11,,,,,3,,,71,70
40800,note_on,,,,,32,0,10,,,,,2,,,76,70
40800,note_on,,,,,4,0,9,,,,,1,,,76,70
40800,note_on,,,,,16,0,8,,,,,0,,,79,70
40832,note_off,,,,,128,0,13,,,,,5,,,52,100
40832,note_off,,,,,0,0,12,,,,,4,,,71,100
40832,note_off,,,,,128,0,12,,,,,4,,,67,100
40832,note_off,,,,,32,0,8,,,,,0,,,79,100
40848,note_on,,,,,16,0,8,,,,,0,,,71,70
40864,note_off,,,,,64,0,10,,,,,2,,,76,100
40864,note_off,,,,,64,0,11,,,,,3,,,71,100
40880,note_off,,,,,32,0,8,,,,,0,,,71,100
40892,note_off,,,,,92,0,9,,,,,1,,,76,100
40896,note_on,,,,,4,0,9,,,,,1,,,71,70
40896,note_on,,,,,32,0,11,,,,,3,,,76,70
40896,note_on,,,,,64,0,12,,,,,4,,,67,60
40896,note_on,,,,,0,0,12,,,,,4,,,71,60
40896,note_on,,,,,16,0,8,,,,,0,,,64,70
40896,note_on,,,,,64,0,13,,,,,5,,,52,100
40896,note_on,,,,,32,0,10,,,,,2,,,79,70
40928,note_off,,,,,32,0,8,,,,,0,,,64,100
40944,note_on,,,,,16,0,8,,,,,0,,,71,70
40960,note_off,,,,,64,0,10,,,,,2,,,79,100
40960,note_off,,,,,64,0,9,,,,,1,,,71,100
40976,note_off,,,,,32,0,8,,,,,0,,,71,100
40988,note_off,,,,,92,0,11,,,,,3,,,76,100
40992,note_on,,,,,32,0,10,,,,,2,,,76,70
40992,note_on,,,,,32,0,9,,,,,1,,,79,70
40992,note_on,,,,,4,0,11,,,,,3,,,71,70
40992,note_on,,,,,16,0,8,,,,,0,,,79,70
41024,note_off,,,,,128,0,12,,,,,4,,,67,100
41024,note_off,,,,,128,0,13,,,,,5,,,52,100
41024,note_off,,,,,0,0,12,,,,,4,,,71,100
41024,note_off,,,,,32,0,8,,,,,0,,,79,100
41040,note_on,,,,,16,0,8,,,,,0,,,71,70
41056,note_off,,,,,64,0,9,,,,,1,,,79,100
41056,note_off,,,,,64,0,10,,,,,2,,,76,100
41056,note_off,,,,,64,0,11,,,,,3,,,71,100
41072,note_off,,,,,32,0,8,,,,,0,,,71,100
41088,note_on,,,,,32,0,11,,,,,3,,,76,70
41088,note_on,,,,,32,0,9,,,,,1,,,79,70
41088,note_on,,,,,64,0,12,,,,,4,,,67,60
41088,note_on,,,,,32,0,10,,,,,2,,,71,70
41088,note_on,,,,,16,0,8,,,,,0,,,64,70
41088,note_on,,,,,64,0,13,,,,,5,,,52,100
41088,note_on,,,,,0,0,12,,,,,4,,,71,60
41120,note_off,,,,,32,0,8,,,,,0,,,64,100
41136,note_on,,,,,16,0,8,,,,,0,,,71,70
41152,note_off,,,,,64,0,10,,,,,2,,,71,100
41168,note_off,,,,,32,0,8,,,,,0,,,71,100
41180,note_off,,,,,92,0,9,,,,,1,,,79,100
41180,note_off,,,,,92,0,11,,,,,3,,,76,100
41184,note_on,,,,,32,0,10,,,,,2,,,76,70
41184,note_on,,,,,16,0,8,,,,,0,,,79,70
41184,note_on,,,,,4,0,9,,,,,1,,,76,70
41184,note_on,,,,,4,0,11,,,,,3,,,71,70
41216,note_off,,,,,128,0,12,,,,,4,,,67,100
41216,note_off,,,,,32,0,8,,,,,0,,,79,100
41216,note_off,,,,,128,0,13,,,,,5,,,52,100
41216,note_off,,,,,0,0,12,,,,,4,,,71,100
41232,note_on,,,,,16,0,8,,,,,0,,,71,70
41248,note_off,,,,,64,0,11,,,,,3,,,71,100
41248,note_off,,,,,64,0,10,,,,,2,,,76,100
41264,note_off,,,,,32,0,8,,,,,0,,,71,100
41276,note_off,,,,,92,0,9,,,,,1,,,76,100
41280,note_on,,,,,16,0,8,,,,,0,,,64,70
41280,note_on,,,,,64,0,13,,,,,5,,,52,100
41280,note_on,,,,,32,0,10,,,,,2,,,79,70
41280,note_on,,,,,0,0,12,,,,,4,,,71,60
41280,note_on,,,,,64,0,12,,,,,4,,,67,60
41280,note_on,,,,,4,0,9,,,,,1,,,71,70
41280,note_on,,,,,32,0,11,,,,,3,,,76,70
41312,note_off,,,,,32,0,8,,,,,0,,,64,100
41328,note_on,,,,,16,0,8,,,,,0,,,71,70
41328,note_on,,,,,48,0,11,,,,,3,,,71,70
41344,note_off,,,,,64,0,9,,,,,1,,,71,100
41344,note_off,,,,,64,0,10,,,,,2,,,79,100
41360,note_off,,,,,32,0,8,,,,,0,,,71,100
41372,note_off,,,,,44,0,11,,,,,3,,,76,100
41376,note_on,,,,,32,0,9,,,,,1,,,79,70
41376,note_on,,,,,16,0,8,,,,,0,,,79,70
41376,note_on,,,,,32,0,10,,,,,2,,,76,70
41392,note_off,,,,,20,0,11,,,,,3,,,71,100
41408,note_off,,,,,0,0,12,,,,,4,,,71,100
41408,note_off,,,,,128,0,12,,,,,4,,,67,100
41408,note_off,,,,,128,0,13,,,,,5,,,52,100
41408,note_off,,,,,32,0,8,,,,,0,,,79,100
41424,note_on,,,,,16,0,8,,,,,0,,,71,70
41440,note_off,,,,,64,0,10,,,,,2,,,76,100
41440,note_off,,,,,64,0,9,,,,,1,,,79,100
41444,set_tempo,,,,,24164,1,0,,2000000,,,,,,,
41456,note_off,,,,,32,0,8,,,,,0,,,71,100
41472,note_on,,,,,16,0,8,,,,,0,,,76,70
41472,note_on,,,,,80,0,11,,,,,3,,,61,70
41472,note_on,,,,,32,0,9,,,,,1,,,70,70
41472,note_on,,,,,0,0,12,,,,,4,,,61,70
41472,note_on,,,,,64,0,12,,,,,4,,,70,70
41472,note_on,,,,,64,0,13,,,,,5,,,54,70
41472,note_on,,,,,32,0,10,,,,,2,,,66,70
42240,note_off,,,,,768,0,10,,,,,2,,,66,100
42240,note_off,,,,,768,0,11,,,,,3,,,61,100
42240,note_off,,,,,768,0,12,,,,,4,,,70,100
42240,note_off,,,,,0,0,12,,,,,4,,,61,100
42240,note_off,,,,,768,0,9,,,,,1,,,70,100
42240,note_off,,,,,768,0,13,,,,,5,,,54,100
42240,note_off,,,,,768,0,8,,,,,0,,,76,100
42624,set_tempo,,,,,1180,1,0,,1333333,,,,,,,
42624,end_of_track,,,,,0,1,0,,,,,,,,,
42624,note_on,,,,,384,0,11,,,,,3,,,74,70
42624,note_on,,,,,384,0,9,,,,,1,,,74,70
42624,note_on,,,,,384,0,13,,,,,5,,,47,70
42624,note_on,,,,,0,0,15,,,,,7,,,66,100
42624,note_on,,,,,25636,0,15,,,,,7,,,62,100
42624,note_on,,,,,384,0,10,,,,,2,,,83,70
42624,note_on,,,,,25728,0,16,,,,,7,,,47,100
42624,note_on,,,,,384,0,8,,,,,0,,,83,70
42624,note_on,,,,,0,0,12,,,,,4,,,66,70
42624,note_on,,,,,384,0,12,,,,,4,,,62,70
42816,note_off,,,,,192,0,8,,,,,0,,,83,100
42816,note_off,,,,,192,0,16,,,,,7,,,47,100
42816,note_off,,,,,192,0,12,,,,,4,,,62,100
42816,note_off,,,,,0,0,12,,,,,4,,,66,100
42816,note_off,,,,,192,0,10,,,,,2,,,83,100
42816,note_off,,,,,192,0,9,,,,,1,,,74,100
42816,note_off,,,,,192,0,15,,,,,7,,,62,100
42816,note_off,,,,,0,0,15,,,,,7,,,66,100
42816,note_off,,,,,192,0,13,,,,,5,,,47,100
42816,note_off,,,,,192,0,11,,,,,3,,,74,100
42912,note_on,,,,,96,0,10,,,,,2,,,83,70
42912,note_on,,,,,96,0,15,,,,,7,,,62,100
42912,note_on,,,,,0,0,15,,,,,7,,,66,100
42912,note_on,,,,,96,0,13,,,,,5,,,47,70
42912,note_on,,,,,96,0,11,,,,,3,,,74,70
42912,note_on,,,,,0,0,12,,,,,4,,,66,70
42912,note_on,,,,,96,0,12,,,,,4,,,62,70
42912,note_on,,,,,96,0,8,,,,,0,,,83,70
42912,note_on,,,,,96,0,9,,,,,1,,,74,70
42912,note_on,,,,,96,0,16,,,,,7,,,47,100
42976,note_off,,,,,64,0,15,,,,,7,,,62,100
42976,note_off,,,,,0,0,15,,,,,7,,,66,100
42976,note_off,,,,,64,0,10,,,,,2,,,83,100
42976,note_off,,,,,64,0,12,,,,,4,,,62,100
42976,note_off,,,,,0,0,12,,,,,4,,,66,100
42976,note_off,,,,,64,0,13,,,,,5,,,47,100
42976,note_off,,,,,64,0,11,,,,,3,,,74,100
42976,note_off,,,,,64,0,8,,,,,0,,,83,100
42976,note_off,,,,,64,0,16,,,,,7,,,47,100
42976,note_off,,,,,64,0,9,,,,,1,,,74,100
43008,note_on,,,,,32,0,9,,,,,1,,,74,70
43008,note_on,,,,,0,0,15,,,,,7,,,66,100
43008,note_on,,,,,32,0,15,,,,,7,,,62,100
43008,note_on,,,,,32,0,8,,,,,0,,,83,70
43008,note_on,,,,,32,0,13,,,,,5,,,47,70
43008,note_on,,,,,0,0,12,,,,,4,,,66,70
43008,note_on,,,,,32,0,12,,,,,4,,,62,70
43008,note_on,,,,,32,0,16,,,,,7,,,47,100
43008,note_on,,,,,32,0,11,,,,,3,,,74,70
43008,note_on,,,,,32,0,10,,,,,2,,,83,70
43200,note_off,,,,,192,0,9,,,,,1,,,74,100
43200,note_off,,,,,192,0,16,,,,,7,,,47,100
43200,note_off,,,,,192,0,11,,,,,3,,,74,100
43200,note_off,,,,,192,0,13,,,,,5,,,47,100
43200,note_off,,,,,0,0,15,,,,,7,,,66,100
43200,note_off,,,,,192,0,15,,,,,7,,,62,100
43200,note_off,,,,,192,0,10,,,,,2,,,83,100
43200,note_off,,,,,192,0,8,,,,,0,,,83,100
43200,note_off,,,,,0,0,12,,,,,4,,,66,100
43200,note_off,,,,,192,0,12,,,,,4,,,62,100
43296,note_on,,,,,96,0,11,,,,,3,,,74,70
43296,note_on,,,,,96,0,16,,,,,7,,,47,100
43296,note_on,,,,,96,0,13,,,,,5,,,47,70
43296,note_on,,,,,96,0,9,,,,,1,,,74,70
43296,note_on,,,,,96,0,12,,,,,4,,,62,70
43296,note_on,,,,,96,0,8,,,,,0,,,83,70
43296,note_on,,,,,96,0,15,,,,,7,,,62,100
43296,note_on,,,,,0,0,12,,,,,4,,,66,70
43296,note_on,,,,,96,0,10,,,,,2,,,83,70
43296,note_on,,,,,0,0,15,,,,,7,,,66,100
43360,note_off,,,,,64,0,15,,,,,7,,,62,100
43360,note_off,,,,,0,0,15,,,,,7,,,66,100
43360,note_off,,,,,64,0,9,,,,,1,,,74,100
43360,note_off,,,,,64,0,10,,,,,2,,,83,100
43360,note_off,,,,,64,0,16,,,,,7,,,47,100
43360,note_off,,,,,64,0,12,,,,,4,,,62,100
43360,note_off,,,,,0,0,12,,,,,4,,,66,100
43360,note_off,,,,,64,0,11,,,,,3,,,74,100
43360,note_off,,,,,64,0,8,,,,,0,,,83,100
43360,note_off,,,,,64,0,13,,,,,5,,,47,100
43392,note_on,,,,,32,0,11,,,,,3,,,74,70
43392,note_on,,,,,32,0,9,,,,,1,,,74,70
43392,note_on,,,,,32,0,8,,,,,0,,,83,70
43392,note_on,,,,,0,0,15,,,,,7,,,66,100
43392,note_on,,,,,32,0,16,,,,,7,,,47,100
43392,note_on,,,,,0,0,12,,,,,4,,,66,70
43392,note_on,,,,,32,0,12,,,,,4,,,62,70
43392,note_on,,,,,32,0,10,,,,,2,,,83,70
43392,note_on,,,,,32,0,15,,,,,7,,,62,100
43392,note_on,,,,,32,0,13,,,,,5,,,47,70
43584,note_off,,,,,192,0,16,,,,,7,,,47,100
43584,note_off,,,,,192,0,10,,,,,2,,,83,100
43584,note_off,,,,,192,0,9,,,,,1,,,74,100
43584,note_off,,,,,192,0,13,,,,,5,,,47,100
43584,note_off,,,,,192,0,15,,,,,7,,,62,100
43584,note_off,,,,,0,0,15,,,,,7,,,66,100
43584,note_off,,,,,192,0,11,,,,,3,,,74,100
43584,note_off,,,,,192,0,8,,,,,0,,,83,100
43584,note_off,,,,,192,0,12,,,,,4,,,62,100
43584,note_off,,,,,0,0,12,,,,,4,,,66,100
43680,note_on,,,,,96,0,8,,,,,0,,,83,70
43680,note_on,,,,,96,0,16,,,,,7,,,47,100
43680,note_on,,,,,0,0,15,,,,,7,,,66,100
43680,note_on,,,,,96,0,11,,,,,3,,,74,70
43680,note_on,,,,,96,0,10,,,,,2,,,83,70
43680,note_on,,,,,96,0,15,,,,,7,,,62,100
43680,note_on,,,,,96,0,9,,,,,1,,,74,70
43680,note_on,,,,,96,0,13,,,,,5,,,47,70
43680,note_on,,,,,96,0,12,,,,,4,,,62,70
43680,note_on,,,,,0,0,12,,,,,4,,,66,70
43744,note_off,,,,,64,0,12,,,,,4,,,62,100
43744,note_off,,,,,64,0,9,,,,,1,,,74,100
43744,note_off,,,,,0,0,12,,,,,4,,,66,100
43744,note_off,,,,,64,0,10,,,,,2,,,83,100
43744,note_off,,,,,64,0,16,,,,,7,,,47,100
43744,note_off,,,,,0,0,15,,,,,7,,,66,100
43744,note_off,,,,,64,0,8,,,,,0,,,83,100
43744,note_off,,,,,64,0,11,,,,,3,,,74,100
43744,note_off,,,,,64,0,13,,,,,5,,,47,100
43744,note_off,,,,,64,0,15,,,,,7,,,62,100
43776,note_on,,,,,32,0,8,,,,,0,,,83,70
43776,note_on,,,,,32,0,11,,,,,3,,,74,70
43776,note_on,,,,,32,0,10,,,,,2,,,83,70
43776,note_on,,,,,0,0,12,,,,,4,,,65,70
43776,note_on,,,,,32,0,12,,,,,4,,,68,70
43776,note_on,,,,,32,0,9,,,,,1,,,74,70
43776,note_on,,,,,32,0,13,,,,,5,,,41,70
43776,note_on,,,,,32,0,16,,,,,7,,,41,100
43804,note_on,,,,,60,0,15,,,,,7,,,68,100
43836,note_on,,,,,32,0,15,,,,,7,,,71,100
43964,note_off,,,,,128,0,15,,,,,7,,,71,100
44064,note_on,,,,,100,0,15,,,,,7,,,73,100
44108,note_off,,,,,44,0,15,,,,,7,,,73,100
44112,note_on,,,,,4,0,15,,,,,7,,,71,100
44156,note_off,,,,,44,0,15,,,,,7,,,71,100
44160,note_on,,,,,4,0,15,,,,,7,,,73,100
44180,note_off,,,,,20,0,15,,,,,7,,,73,100
44184,note_on,,,,,4,0,15,,,,,7,,,71,100
44204,note_off,,,,,20,0,15,,,,,7,,,71,100
44208,note_on,,,,,4,0,15,,,,,7,,,73,100
44228,note_off,,,,,20,0,15,,,,,7,,,73,100
44232,note_on,,,,,4,0,15,,,,,7,,,71,100
44252,note_off,,,,,20,0,15,,,,,7,,,71,100
44256,note_on,,,,,4,0,15,,,,,7,,,73,100
44276,note_off,,,,,20,0,15,,,,,7,,,73,100
44280,note_on,,,,,4,0,15,,,,,7,,,71,100
44300,note_off,,,,,20,0,15,,,,,7,,,71,100
44304,note_on,,,,,4,0,15,,,,,7,,,73,100
44324,note_off,,,,,20,0,15,,,,,7,,,73,100
44328,note_on,,,,,4,0,15,,,,,7,,,71,100
44348,note_off,,,,,20,0,15,,,,,7,,,71,100
44352,note_on,,,,,4,0,15,,,,,7,,,73,100
44372,note_off,,,,,20,0,15,,,,,7,,,73,100
44376,note_on,,,,,4,0,15,,,,,7,,,71,100
44396,note_off,,,,,20,0,15,,,,,7,,,71,100
44400,note_on,,,,,4,0,15,,,,,7,,,73,100
44420,note_off,,,,,20,0,15,,,,,7,,,73,100
44424,note_on,,,,,4,0,15,,,,,7,,,71,100
44444,note_off,,,,,20,0,15,,,,,7,,,71,100
44448,note_on,,,,,4,0,15,,,,,7,,,73,100
44468,note_off,,,,,20,0,15,,,,,7,,,73,100
44472,note_on,,,,,4,0,15,,,,,7,,,71,100
44492,note_off,,,,,20,0,15,,,,,7,,,71,100
44496,note_on,,,,,4,0,15,,,,,7,,,73,100
44516,note_off,,,,,20,0,15,,,,,7,,,73,100
44520,note_on,,,,,4,0,15,,,,,7,,,71,100
44572,note_off,,,,,52,0,15,,,,,7,,,68,100
44708,note_off,,,,,136,0,15,,,,,7,,,71,100
44736,note_on,,,,,28,0,15,,,,,7,,,70,100
44812,note_off,,,,,1036,0,8,,,,,0,,,83,100
44812,note_off,,,,,1036,0,11,,,,,3,,,74,100
44812,note_off,,,,,1036,0,13,,,,,5,,,41,100
44812,note_off,,,,,1036,0,10,,,,,2,,,83,100
44812,note_off,,,,,0,0,12,,,,,4,,,65,100
44812,note_off,,,,,1036,0,16,,,,,7,,,41,100
44812,note_off,,,,,1036,0,12,,,,,4,,,68,100
44812,note_off,,,,,1036,0,9,,,,,1,,,74,100
44924,note_off,,,,,188,0,15,,,,,7,,,70,100
44928,note_on,,,,,116,0,16,,,,,7,,,42,100
44928,note_on,,,,,116,0,8,,,,,0,,,82,70
44928,note_on,,,,,116,0,11,,,,,3,,,73,70
44928,note_on,,,,,116,0,13,,,,,5,,,42,70
44928,note_on,,,,,116,0,12,,,,,4,,,66,70
44928,note_on,,,,,116,0,10,,,,,2,,,82,70
44928,note_on,,,,,0,0,12,,,,,4,,,61,70
44928,note_on,,,,,116,0,9,,,,,1,,,73,70
44956,note_on,,,,,32,0,15,,,,,7,,,66,100
44988,note_on,,,,,32,0,15,,,,,7,,,70,100
45020,note_on,,,,,32,0,15,,,,,7,,,73,100
45724,note_off,,,,,704,0,15,,,,,7,,,66,100
45756,note_off,,,,,32,0,15,,,,,7,,,70,100
45788,end_of_track,,,,,0,1,15,,,,,,,,,
45788,note_off,,,,,32,0,15,,,,,7,,,73,100
45964,note_off,,,,,1036,0,11,,,,,3,,,73,100
45964,end_of_track,,,,,0,1,13,,,,,,,,,
45964,note_off,,,,,1036,0,13,,,,,5,,,42,100
45964,end_of_track,,,,,0,1,11,,,,,,,,,
45964,note_off,,,,,1036,0,9,,,,,1,,,73,100
45964,end_of_track,,,,,0,1,9,,,,,,,,,
45964,note_off,,,,,1036,0,16,,,,,7,,,42,100
45964,end_of_track,,,,,0,1,12,,,,,,,,,
45964,note_off,,,,,0,0,12,,,,,4,,,61,100
45964,note_off,,,,,1036,0,12,,,,,4,,,66,100
45964,note_off,,,,,1036,0,10,,,,,2,,,82,100
45964,end_of_track,,,,,0,1,10,,,,,,,,,
45964,note_off,,,,,1036,0,8,,,,,0,,,82,100
45964,end_of_track,,,,,0,1,16,,,,,,,,,
46848,program_change,,,,,884,0,8,,,,,0,48,,,
46848,end_of_track,,,,,0,1,8,,,,,,,,,
