tick,type,numerator,denominator,clocks_per_click,notated_32nd_notes_per_beat,time,meta,track,data,tempo,control,value,channel,program,key,note,velocity
0,time_signature,3,4,96,8,0,1,0,,,,,,,,,
0,control_change,,,,,0,0,16,,,7,55,7,,,,
0,program_change,,,,,0,0,16,,,,,7,6,,,
0,control_change,,,,,0,0,16,,,0,0,7,,,,
0,track_name,,,,,0,1,16,,,,,,,,,
0,track_name,,,,,0,1,9,,,,,,,,,
0,control_change,,,,,0,0,9,,,0,0,1,,,,
0,program_change,,,,,0,0,9,,,,,1,48,,,
0,control_change,,,,,0,0,9,,,7,100,1,,,,
0,control_change,,,,,0,0,9,,,10,45,1,,,,
0,control_change,,,,,0,0,9,,,91,60,1,,,,
0,key_signature,,,,,0,1,9,,,,,,,D,,
0,control_change,,,,,0,0,12,,,0,0,4,,,,
0,note_on,,,,,0,0,15,,,,,7,,,66,100
0,note_on,,,,,0,0,15,,,,,7,,,69,100
0,key_signature,,,,,0,1,15,,,,,,,D,,
0,control_change,,,,,0,0,16,,,91,62,7,,,,
0,key_signature,,,,,0,1,16,,,,,,,D,,
0,note_on,,,,,0,0,16,,,,,7,,,50,100
0,key_signature,,,,,0,1,8,,,,,,,D,,
0,key_signature,,,,,0,1,6,,,,,,,D,,
0,end_of_track,,,,,0,1,6,,,,,,,,,
0,track_name,,,,,0,1,7,,,,,,,,,
0,control_change,,,,,0,0,7,,,0,0,0,,,,
0,program_change,,,,,0,0,7,,,,,0,48,,,
0,control_change,,,,,0,0,7,,,7,100,0,,,,
0,control_change,,,,,0,0,7,,,10,54,0,,,,
0,control_change,,,,,0,0,15,,,91,62,7,,,,
0,control_change,,,,,0,0,7,,,91,61,0,,,,
0,end_of_track,,,,,0,1,7,,,,,,,,,
0,track_name,,,,,0,1,8,,,,,,,,,
0,control_change,,,,,0,0,8,,,0,0,0,,,,
0,program_change,,,,,0,0,8,,,,,0,48,,,
0,control_change,,,,,0,0,8,,,7,100,0,,,,
0,control_change,,,,,0,0,8,,,10,54,0,,,,
0,control_change,,,,,0,0,8,,,91,61,0,,,,
0,key_signature,,,,,0,1,7,,,,,,,D,,
0,control_change,,,,,0,0,6,,,91,61,0,,,,
0,control_change,,,,,0,0,15,,,7,55,7,,,,
0,control_change,,,,,0,0,15,,,0,0,7,,,,
0,control_change,,,,,0,0,13,,,7,77,5,,,,
0,program_change,,,,,0,0,13,,,,,5,48,,,
0,control_change,,,,,0,0,13,,,0,0,5,,,,
0,track_name,,,,,0,1,13,,,,,,,,,
0,track_name,,,,,0,1,11,,,,,,,,,
0,control_change,,,,,0,0,11,,,0,0,3,,,,
0,program_change,,,,,0,0,11,,,,,3,48,,,
0,control_change,,,,,0,0,11,,,7,100,3,,,,
0,control_change,,,,,0,0,11,,,10,36,3,,,,
0,control_change,,,,,0,0,11,,,91,65,3,,,,
0,key_signature,,,,,0,1,11,,,,,,,D,,
0,key_signature,,,,,0,1,12,,,,,,,D,,
0,control_change,,,,,0,0,12,,,91,66,4,,,,
0,control_change,,,,,0,0,12,,,7,92,4,,,,
0,program_change,,,,,0,0,12,,,,,4,48,,,
0,control_change,,,,,0,0,13,,,10,82,5,,,,
0,control_change,,,,,0,0,13,,,91,66,5,,,,
0,key_signature,,,,,0,1,13,,,,,,,D,,
0,note_on,,,,,0,0,13,,,,,5,,,50,85
0,track_name,,,,,0,1,15,,,,,,,,,
0,track_name,,,,,0,1,10,,,,,,,,,
0,control_change,,,,,0,0,10,,,0,0,2,,,,
0,program_change,,,,,0,0,10,,,,,2,48,,,
0,control_change,,,,,0,0,10,,,7,100,2,,,,
0,control_change,,,,,0,0,10,,,10,55,2,,,,
0,control_change,,,,,0,0,10,,,91,61,2,,,,
0,program_change,,,,,0,0,15,,,,,7,6,,,
0,key_signature,,,,,0,1,10,,,,,,,D,,
0,key_signature,,,,,0,1,14,,,,,,,D,,
0,control_change,,,,,0,0,14,,,91,65,6,,,,
0,control_change,,,,,0,0,14,,,10,89,6,,,,
0,control_change,,,,,0,0,14,,,7,72,6,,,,
0,program_change,,,,,0,0,14,,,,,6,48,,,
0,control_change,,,,,0,0,14,,,0,0,6,,,,
0,track_name,,,,,0,1,14,,,,,,,,,
0,note_on,,,,,0,0,14,,,,,6,,,38,85
0,control_change,,,,,0,0,6,,,10,54,0,,,,
0,track_name,,,,,0,1,12,,,,,,,,,
0,program_change,,,,,0,0,6,,,,,0,48,,,
0,sequencer_specific,,,,,0,1,0,"(0, 0, 119, 14, 1)",,,,,,,,
0,set_tempo,,,,,0,1,0,,500000,,,,,,,
0,end_of_track,,,,,0,1,2,,,,,,,,,
0,control_change,,,,,0,0,6,,,7,100,0,,,,
0,end_of_track,,,,,0,1,3,,,,,,,,,
0,key_signature,,,,,0,1,3,,,,,,,D,,
0,sequencer_specific,,,,,0,1,0,"(0, 0, 65)",,,,,,,,
0,program_change,,,,,0,0,3,,,,,0,48,,,
0,control_change,,,,,0,0,3,,,10,54,0,,,,
0,control_change,,,,,0,0,3,,,7,100,0,,,,
0,control_change,,,,,0,0,3,,,0,0,0,,,,
0,track_name,,,,,0,1,1,,,,,,,,,
0,end_of_track,,,,,0,1,1,,,,,,,,,
0,track_name,,,,,0,1,2,,,,,,,,,
0,control_change,,,,,0,0,3,,,91,61,0,,,,
0,track_name,,,,,0,1,4,,,,,,,,,
0,track_name,,,,,0,1,3,,,,,,,,,
0,program_change,,,,,0,0,4,,,,,0,48,,,
0,control_change,,,,,0,0,4,,,91,61,0,,,,
0,end_of_track,,,,,0,1,5,,,,,,,,,
0,track_name,,,,,0,1,6,,,,,,,,,
0,control_change,,,,,0,0,6,,,0,0,0,,,,
0,control_change,,,,,0,0,4,,,10,54,0,,,,
0,key_signature,,,,,0,1,5,,,,,,,D,,
0,control_change,,,,,0,0,5,,,91,61,0,,,,
0,control_change,,,,,0,0,5,,,10,54,0,,,,
0,control_change,,,,,0,0,5,,,7,100,0,,,,
0,program_change,,,,,0,0,5,,,,,0,48,,,
0,control_change,,,,,0,0,5,,,0,0,0,,,,
0,end_of_track,,,,,0,1,4,,,,,,,,,
0,track_name,,,,,0,1,5,,,,,,,,,
0,control_change,,,,,0,0,4,,,0,0,0,,,,
0,key_signature,,,,,0,1,4,,,,,,,D,,
0,control_change,,,,,0,0,4,,,7,100,0,,,,
96,program_change,,,,,96,0,10,,,,,2,40,,,
128,note_on,,,,,32,0,10,,,,,2,,,81,85
212,note_off,,,,,84,0,10,,,,,2,,,81,100
256,note_on,,,,,44,0,10,,,,,2,,,79,85
340,note_off,,,,,84,0,10,,,,,2,,,79,100
384,note_on,,,,,44,0,10,,,,,2,,,78,85
508,note_off,,,,,124,0,10,,,,,2,,,78,100
512,note_off,,,,,0,0,15,,,,,7,,,66,100
512,note_off,,,,,512,0,13,,,,,5,,,50,100
512,note_off,,,,,512,0,15,,,,,7,,,69,100
512,note_on,,,,,4,0,10,,,,,2,,,76,85
512,note_off,,,,,512,0,14,,,,,6,,,38,100
512,note_off,,,,,512,0,16,,,,,7,,,50,100
596,note_off,,,,,84,0,10,,,,,2,,,76,100
640,note_on,,,,,44,0,10,,,,,2,,,74,85
724,note_off,,,,,84,0,10,,,,,2,,,74,100
768,note_on,,,,,256,0,16,,,,,7,,,55,100
768,note_on,,,,,256,0,13,,,,,5,,,55,85
768,note_on,,,,,44,0,10,,,,,2,,,83,85
768,note_on,,,,,256,0,14,,,,,6,,,43,85
768,note_on,,,,,256,0,15,,,,,7,,,74,100
768,note_on,,,,,0,0,15,,,,,7,,,71,100
892,note_off,,,,,124,0,10,,,,,2,,,83,100
896,note_on,,,,,4,0,10,,,,,2,,,81,85
980,note_off,,,,,84,0,10,,,,,2,,,81,100
1024,note_off,,,,,256,0,16,,,,,7,,,55,100
1024,note_off,,,,,256,0,14,,,,,6,,,43,100
1024,note_on,,,,,44,0,10,,,,,2,,,79,85
1024,note_off,,,,,256,0,13,,,,,5,,,55,100
1024,note_off,,,,,256,0,15,,,,,7,,,74,100
1024,note_off,,,,,0,0,15,,,,,7,,,71,100
1108,note_off,,,,,84,0,10,,,,,2,,,79,100
1152,note_on,,,,,0,0,15,,,,,7,,,69,100
1152,note_on,,,,,128,0,13,,,,,5,,,54,85
1152,note_on,,,,,128,0,14,,,,,6,,,42,85
1152,note_on,,,,,128,0,15,,,,,7,,,74,100
1152,note_on,,,,,44,0,10,,,,,2,,,81,85
1152,note_on,,,,,128,0,16,,,,,7,,,54,100
1236,note_off,,,,,84,0,10,,,,,2,,,81,100
1280,note_on,,,,,44,0,10,,,,,2,,,78,85
1364,note_off,,,,,84,0,10,,,,,2,,,78,100
1408,note_on,,,,,44,0,10,,,,,2,,,76,85
1492,note_off,,,,,84,0,10,,,,,2,,,76,100
1536,note_on,,,,,44,0,10,,,,,2,,,74,85
1620,note_off,,,,,84,0,10,,,,,2,,,74,100
1664,note_off,,,,,0,0,15,,,,,7,,,69,100
1664,note_off,,,,,512,0,15,,,,,7,,,74,100
1664,note_on,,,,,44,0,10,,,,,2,,,81,85
1664,note_off,,,,,512,0,14,,,,,6,,,42,100
1664,note_off,,,,,512,0,16,,,,,7,,,54,100
1664,note_off,,,,,512,0,13,,,,,5,,,54,100
1748,note_off,,,,,84,0,10,,,,,2,,,81,100
1792,note_on,,,,,44,0,10,,,,,2,,,79,85
1876,note_off,,,,,84,0,10,,,,,2,,,79,100
1920,note_on,,,,,44,0,10,,,,,2,,,78,85
1920,note_on,,,,,256,0,14,,,,,6,,,38,85
1920,note_on,,,,,0,0,15,,,,,7,,,66,100
1920,note_on,,,,,256,0,15,,,,,7,,,69,100
1920,note_on,,,,,256,0,13,,,,,5,,,50,85
1920,note_on,,,,,256,0,16,,,,,7,,,50,100
2044,note_off,,,,,124,0,10,,,,,2,,,78,100
2048,note_on,,,,,4,0,10,,,,,2,,,79,85
2132,note_off,,,,,84,0,10,,,,,2,,,79,100
2176,note_on,,,,,44,0,10,,,,,2,,,81,85
2176,note_off,,,,,0,0,15,,,,,7,,,66,100
2176,note_off,,,,,256,0,14,,,,,6,,,38,100
2176,note_off,,,,,256,0,16,,,,,7,,,50,100
2176,note_off,,,,,256,0,13,,,,,5,,,50,100
2176,note_off,,,,,256,0,15,,,,,7,,,69,100
2260,note_off,,,,,84,0,10,,,,,2,,,81,100
2304,note_on,,,,,128,0,14,,,,,6,,,40,85
2304,note_on,,,,,128,0,16,,,,,7,,,52,100
2304,note_on,,,,,44,0,10,,,,,2,,,79,85
2304,note_on,,,,,128,0,13,,,,,5,,,52,85
2304,note_on,,,,,0,0,15,,,,,7,,,67,100
2304,note_on,,,,,128,0,15,,,,,7,,,71,100
2388,note_off,,,,,84,0,10,,,,,2,,,79,100
2432,note_on,,,,,44,0,10,,,,,2,,,76,85
2516,note_off,,,,,84,0,10,,,,,2,,,76,100
2560,note_off,,,,,256,0,13,,,,,5,,,52,100
2560,note_on,,,,,44,0,10,,,,,2,,,74,85
2560,note_off,,,,,256,0,16,,,,,7,,,52,100
2560,note_off,,,,,0,0,15,,,,,7,,,67,100
2560,note_off,,,,,256,0,15,,,,,7,,,71,100
2560,note_off,,,,,256,0,14,,,,,6,,,40,100
2644,note_off,,,,,84,0,10,,,,,2,,,74,100
2688,note_on,,,,,128,0,16,,,,,7,,,45,100
2688,note_on,,,,,0,0,15,,,,,7,,,64,100
2688,note_on,,,,,128,0,15,,,,,7,,,67,100
2688,note_on,,,,,128,0,13,,,,,5,,,45,85
2688,note_on,,,,,44,0,10,,,,,2,,,73,85
2688,note_on,,,,,128,0,14,,,,,6,,,33,85
2772,note_off,,,,,84,0,10,,,,,2,,,73,100
2816,note_on,,,,,44,0,10,,,,,2,,,81,85
2900,note_off,,,,,84,0,10,,,,,2,,,81,100
2944,note_off,,,,,256,0,14,,,,,6,,,33,100
2944,note_off,,,,,256,0,13,,,,,5,,,45,100
2944,note_on,,,,,44,0,10,,,,,2,,,79,85
2944,note_off,,,,,256,0,15,,,,,7,,,67,100
2944,note_off,,,,,0,0,15,,,,,7,,,64,100
2944,note_off,,,,,256,0,16,,,,,7,,,45,100
3028,note_off,,,,,84,0,10,,,,,2,,,79,100
3072,note_on,,,,,0,0,15,,,,,7,,,67,100
3072,note_on,,,,,128,0,16,,,,,7,,,49,100
3072,note_on,,,,,128,0,14,,,,,6,,,37,85
3072,note_on,,,,,44,0,10,,,,,2,,,81,85
3072,note_on,,,,,128,0,13,,,,,5,,,49,85
3072,note_on,,,,,128,0,15,,,,,7,,,69,100
3196,note_off,,,,,124,0,10,,,,,2,,,81,100
3200,note_on,,,,,4,0,10,,,,,2,,,76,85
3284,note_off,,,,,84,0,10,,,,,2,,,76,100
3328,note_off,,,,,256,0,16,,,,,7,,,49,100
3328,note_off,,,,,256,0,15,,,,,7,,,69,100
3328,note_off,,,,,0,0,15,,,,,7,,,67,100
3328,note_off,,,,,256,0,14,,,,,6,,,37,100
3328,note_off,,,,,256,0,13,,,,,5,,,49,100
3328,note_on,,,,,44,0,10,,,,,2,,,79,85
3412,note_off,,,,,84,0,10,,,,,2,,,79,100
3456,note_on,,,,,128,0,14,,,,,6,,,38,85
3456,note_on,,,,,128,0,16,,,,,7,,,50,100
3456,note_on,,,,,3456,0,12,,,,,4,,,69,85
3456,note_on,,,,,0,0,12,,,,,4,,,66,85
3456,note_on,,,,,0,0,15,,,,,7,,,66,100
3456,note_on,,,,,128,0,15,,,,,7,,,69,100
3456,note_on,,,,,44,0,10,,,,,2,,,78,85
3456,note_on,,,,,128,0,13,,,,,5,,,50,85
3540,note_off,,,,,84,0,10,,,,,2,,,78,100
3540,program_change,,,,,3540,0,11,,,,,3,48,,,
3552,program_change,,,,,3552,0,8,,,,,0,48,,,
3552,program_change,,,,,12,0,10,,,,,2,48,,,
3552,program_change,,,,,3552,0,9,,,,,1,48,,,
3584,note_on,,,,,32,0,10,,,,,2,,,81,35
3584,note_on,,,,,32,0,9,,,,,1,,,81,35
3584,note_on,,,,,44,0,11,,,,,3,,,81,35
3584,note_on,,,,,32,0,8,,,,,0,,,81,85
3668,note_off,,,,,84,0,11,,,,,3,,,81,100
3668,note_off,,,,,84,0,10,,,,,2,,,81,100
3668,note_off,,,,,84,0,9,,,,,1,,,81,100
3668,note_off,,,,,84,0,8,,,,,0,,,81,100
3712,note_on,,,,,44,0,11,,,,,3,,,79,35
3712,note_on,,,,,44,0,10,,,,,2,,,79,35
3712,note_off,,,,,256,0,13,,,,,5,,,50,100
3712,note_off,,,,,0,0,15,,,,,7,,,66,100
3712,note_off,,,,,256,0,12,,,,,4,,,69,100
3712,note_off,,,,,0,0,12,,,,,4,,,66,100
3712,note_on,,,,,44,0,8,,,,,0,,,79,85
3712,note_off,,,,,256,0,15,,,,,7,,,69,100
3712,note_on,,,,,44,0,9,,,,,1,,,79,35
3712,note_off,,,,,256,0,16,,,,,7,,,50,100
3712,note_off,,,,,256,0,14,,,,,6,,,38,100
3796,note_off,,,,,84,0,9,,,,,1,,,79,100
3796,note_off,,,,,84,0,10,,,,,2,,,79,100
3796,note_off,,,,,84,0,8,,,,,0,,,79,100
3796,note_off,,,,,84,0,11,,,,,3,,,79,100
3840,note_on,,,,,44,0,8,,,,,0,,,78,86
3840,note_on,,,,,44,0,9,,,,,1,,,78,35
3840,note_on,,,,,44,0,11,,,,,3,,,78,35
3840,note_on,,,,,44,0,10,,,,,2,,,78,35
3924,note_off,,,,,84,0,9,,,,,1,,,78,100
3924,note_off,,,,,84,0,8,,,,,0,,,78,100
3924,note_off,,,,,84,0,11,,,,,3,,,78,100
3924,note_off,,,,,84,0,10,,,,,2,,,78,100
3968,note_on,,,,,44,0,10,,,,,2,,,79,35
3968,note_on,,,,,44,0,9,,,,,1,,,79,35
3968,note_on,,,,,44,0,11,,,,,3,,,79,35
3968,note_on,,,,,44,0,8,,,,,0,,,79,86
4052,note_off,,,,,84,0,10,,,,,2,,,79,100
4052,note_off,,,,,84,0,8,,,,,0,,,79,100
4052,note_off,,,,,84,0,9,,,,,1,,,79,100
4052,note_off,,,,,84,0,11,,,,,3,,,79,100
4096,note_on,,,,,44,0,9,,,,,1,,,76,35
4096,note_on,,,,,44,0,11,,,,,3,,,76,35
4096,note_on,,,,,44,0,10,,,,,2,,,76,35
4096,note_on,,,,,44,0,8,,,,,0,,,76,87
4180,note_off,,,,,84,0,8,,,,,0,,,76,100
4180,note_off,,,,,84,0,9,,,,,1,,,76,100
4180,note_off,,,,,84,0,11,,,,,3,,,76,100
4180,note_off,,,,,84,0,10,,,,,2,,,76,100
4224,note_on,,,,,512,0,13,,,,,5,,,54,85
4224,note_on,,,,,512,0,16,,,,,7,,,54,100
4224,note_on,,,,,44,0,11,,,,,3,,,74,35
4224,note_on,,,,,44,0,9,,,,,1,,,74,35
4224,note_on,,,,,44,0,8,,,,,0,,,74,87
4224,note_on,,,,,512,0,14,,,,,6,,,42,85
4224,note_on,,,,,0,0,12,,,,,4,,,69,85
4224,note_on,,,,,512,0,12,,,,,4,,,62,85
4224,note_on,,,,,512,0,15,,,,,7,,,62,100
4224,note_on,,,,,0,0,15,,,,,7,,,69,100
4224,note_on,,,,,44,0,10,,,,,2,,,74,35
4308,note_off,,,,,84,0,9,,,,,1,,,74,100
4308,note_off,,,,,84,0,10,,,,,2,,,74,100
4308,note_off,,,,,84,0,8,,,,,0,,,74,100
4308,note_off,,,,,84,0,11,,,,,3,,,74,100
4352,note_on,,,,,44,0,9,,,,,1,,,76,35
4352,note_on,,,,,44,0,8,,,,,0,,,76,88
4352,note_on,,,,,44,0,10,,,,,2,,,76,35
4352,note_on,,,,,44,0,11,,,,,3,,,76,35
4436,note_off,,,,,84,0,11,,,,,3,,,76,100
4436,note_off,,,,,84,0,8,,,,,0,,,76,100
4436,note_off,,,,,84,0,10,,,,,2,,,76,100
4436,note_off,,,,,84,0,9,,,,,1,,,76,100
4480,note_on,,,,,44,0,11,,,,,3,,,73,35
4480,note_off,,,,,0,0,12,,,,,4,,,69,100
4480,note_off,,,,,256,0,12,,,,,4,,,62,100
4480,note_off,,,,,256,0,14,,,,,6,,,42,100
4480,note_on,,,,,44,0,8,,,,,0,,,73,88
4480,note_off,,,,,0,0,15,,,,,7,,,69,100
4480,note_on,,,,,44,0,9,,,,,1,,,73,35
4480,note_off,,,,,256,0,15,,,,,7,,,62,100
4480,note_off,,,,,256,0,16,,,,,7,,,54,100
4480,note_off,,,,,256,0,13,,,,,5,,,54,100
4480,note_on,,,,,44,0,10,,,,,2,,,73,35
4564,note_off,,,,,84,0,10,,,,,2,,,73,100
4564,note_off,,,,,84,0,8,,,,,0,,,73,100
4564,note_off,,,,,84,0,11,,,,,3,,,73,100
4564,note_off,,,,,84,0,9,,,,,1,,,73,100
4608,note_on,,,,,0,0,15,,,,,7,,,71,100
4608,note_on,,,,,128,0,15,,,,,7,,,67,100
4608,note_on,,,,,44,0,10,,,,,2,,,71,35
4608,note_on,,,,,44,0,11,,,,,3,,,71,35
4608,note_on,,,,,128,0,12,,,,,4,,,62,85
4608,note_on,,,,,44,0,9,,,,,1,,,71,35
4608,note_on,,,,,44,0,8,,,,,0,,,71,89
4608,note_on,,,,,128,0,16,,,,,7,,,55,100
4608,note_on,,,,,128,0,13,,,,,5,,,55,85
4608,note_on,,,,,128,0,14,,,,,6,,,43,85
4692,note_off,,,,,84,0,9,,,,,1,,,71,100
4692,note_off,,,,,84,0,10,,,,,2,,,71,100
4692,note_off,,,,,84,0,11,,,,,3,,,71,100
4692,note_off,,,,,84,0,8,,,,,0,,,71,100
4736,note_on,,,,,44,0,9,,,,,1,,,83,35
4736,note_on,,,,,44,0,11,,,,,3,,,83,35
4736,note_on,,,,,44,0,10,,,,,2,,,83,35
4736,note_on,,,,,44,0,8,,,,,0,,,83,90
4820,note_off,,,,,84,0,11,,,,,3,,,83,100
4820,note_off,,,,,84,0,8,,,,,0,,,83,100
4820,note_off,,,,,84,0,10,,,,,2,,,83,100
4820,note_off,,,,,84,0,9,,,,,1,,,83,100
4864,note_off,,,,,256,0,12,,,,,4,,,62,100
4864,note_on,,,,,44,0,9,,,,,1,,,81,35
4864,note_on,,,,,44,0,11,,,,,3,,,81,35
4864,note_off,,,,,0,0,15,,,,,7,,,71,100
4864,note_off,,,,,256,0,14,,,,,6,,,43,100
4864,note_on,,,,,44,0,10,,,,,2,,,81,35
4864,note_off,,,,,256,0,15,,,,,7,,,67,100
4864,note_on,,,,,44,0,8,,,,,0,,,81,90
4864,note_off,,,,,256,0,16,,,,,7,,,55,100
4864,note_off,,,,,256,0,13,,,,,5,,,55,100
4948,note_off,,,,,84,0,9,,,,,1,,,81,100
4948,note_off,,,,,84,0,11,,,,,3,,,81,100
4948,note_off,,,,,84,0,8,,,,,0,,,81,100
4948,note_off,,,,,84,0,10,,,,,2,,,81,100
4992,note_on,,,,,44,0,11,,,,,3,,,79,35
4992,note_on,,,,,44,0,8,,,,,0,,,79,91
4992,note_on,,,,,44,0,9,,,,,1,,,79,35
4992,note_on,,,,,44,0,10,,,,,2,,,79,35
5076,note_off,,,,,84,0,8,,,,,0,,,79,100
5076,note_off,,,,,84,0,11,,,,,3,,,79,100
5076,note_off,,,,,84,0,10,,,,,2,,,79,100
5076,note_off,,,,,84,0,9,,,,,1,,,79,100
5120,note_on,,,,,44,0,11,,,,,3,,,81,35
5120,note_on,,,,,44,0,8,,,,,0,,,81,91
5120,note_on,,,,,44,0,9,,,,,1,,,81,35
5120,note_on,,,,,44,0,10,,,,,2,,,81,35
5204,note_off,,,,,84,0,11,,,,,3,,,81,100
5204,note_off,,,,,84,0,9,,,,,1,,,81,100
5204,note_off,,,,,84,0,8,,,,,0,,,81,100
5204,note_off,,,,,84,0,10,,,,,2,,,81,100
5248,note_on,,,,,44,0,9,,,,,1,,,78,35
5248,note_on,,,,,44,0,11,,,,,3,,,78,35
5248,note_on,,,,,44,0,8,,,,,0,,,78,92
5248,note_on,,,,,44,0,10,,,,,2,,,78,35
5332,note_off,,,,,84,0,8,,,,,0,,,78,100
5332,note_off,,,,,84,0,10,,,,,2,,,78,100
5332,note_off,,,,,84,0,9,,,,,1,,,78,100
5332,note_off,,,,,84,0,11,,,,,3,,,78,100
5376,note_on,,,,,44,0,10,,,,,2,,,76,35
5376,note_on,,,,,44,0,11,,,,,3,,,76,35
5376,note_on,,,,,0,0,15,,,,,7,,,71,100
5376,note_on,,,,,512,0,15,,,,,7,,,64,100
5376,note_on,,,,,0,0,12,,,,,4,,,64,85
5376,note_on,,,,,512,0,12,,,,,4,,,71,85
5376,note_on,,,,,512,0,16,,,,,7,,,56,100
5376,note_on,,,,,44,0,8,,,,,0,,,76,92
5376,note_on,,,,,44,0,9,,,,,1,,,76,35
5376,note_on,,,,,512,0,14,,,,,6,,,44,85
5376,note_on,,,,,512,0,13,,,,,5,,,56,85
5460,note_off,,,,,84,0,8,,,,,0,,,76,100
5460,note_off,,,,,84,0,9,,,,,1,,,76,100
5460,note_off,,,,,84,0,10,,,,,2,,,76,100
5460,note_off,,,,,84,0,11,,,,,3,,,76,100
5504,note_on,,,,,44,0,8,,,,,0,,,78,93
5504,note_on,,,,,44,0,10,,,,,2,,,78,35
5504,note_on,,,,,44,0,9,,,,,1,,,78,35
5504,note_on,,,,,44,0,11,,,,,3,,,78,35
5588,note_off,,,,,84,0,9,,,,,1,,,78,100
5588,note_off,,,,,84,0,8,,,,,0,,,78,100
5588,note_off,,,,,84,0,11,,,,,3,,,78,100
5588,note_off,,,,,84,0,10,,,,,2,,,78,100
5632,note_off,,,,,0,0,12,,,,,4,,,64,100
5632,note_off,,,,,256,0,12,,,,,4,,,71,100
5632,note_off,,,,,256,0,13,,,,,5,,,56,100
5632,note_on,,,,,44,0,11,,,,,3,,,74,35
5632,note_off,,,,,256,0,15,,,,,7,,,64,100
5632,note_off,,,,,0,0,15,,,,,7,,,71,100
5632,note_on,,,,,44,0,10,,,,,2,,,74,35
5632,note_off,,,,,256,0,16,,,,,7,,,56,100
5632,note_off,,,,,256,0,14,,,,,6,,,44,100
5632,note_on,,,,,44,0,9,,,,,1,,,74,35
5632,note_on,,,,,44,0,8,,,,,0,,,74,93
5716,note_off,,,,,84,0,10,,,,,2,,,74,100
5716,note_off,,,,,84,0,11,,,,,3,,,74,100
5716,note_off,,,,,84,0,9,,,,,1,,,74,100
5716,note_off,,,,,84,0,8,,,,,0,,,74,100
5760,note_on,,,,,128,0,16,,,,,7,,,57,100
5760,note_on,,,,,44,0,8,,,,,0,,,73,94
5760,note_on,,,,,0,0,15,,,,,7,,,64,100
5760,note_on,,,,,128,0,12,,,,,4,,,64,85
5760,note_on,,,,,128,0,13,,,,,5,,,57,85
5760,note_on,,,,,44,0,9,,,,,1,,,73,35
5760,note_on,,,,,44,0,10,,,,,2,,,73,35
5760,note_on,,,,,128,0,15,,,,,7,,,73,100
5760,note_on,,,,,44,0,11,,,,,3,,,73,35
5760,note_on,,,,,128,0,14,,,,,6,,,45,85
5844,note_off,,,,,84,0,11,,,,,3,,,73,100
5844,note_off,,,,,84,0,9,,,,,1,,,73,100
5844,note_off,,,,,84,0,10,,,,,2,,,73,100
5844,note_off,,,,,84,0,8,,,,,0,,,73,100
5888,note_on,,,,,44,0,9,,,,,1,,,85,35
5888,note_on,,,,,44,0,11,,,,,3,,,85,35
5888,note_on,,,,,44,0,10,,,,,2,,,85,35
5888,note_on,,,,,44,0,8,,,,,0,,,85,95
5972,note_off,,,,,84,0,10,,,,,2,,,85,100
5972,note_off,,,,,84,0,9,,,,,1,,,85,100
5972,note_off,,,,,84,0,11,,,,,3,,,85,100
5972,note_off,,,,,84,0,8,,,,,0,,,85,100
6016,note_off,,,,,256,0,13,,,,,5,,,57,100
6016,note_off,,,,,0,0,15,,,,,7,,,64,100
6016,note_off,,,,,256,0,15,,,,,7,,,73,100
6016,note_on,,,,,44,0,10,,,,,2,,,83,35
6016,note_on,,,,,44,0,9,,,,,1,,,83,35
6016,note_off,,,,,256,0,14,,,,,6,,,45,100
6016,note_off,,,,,256,0,16,,,,,7,,,57,100
6016,note_off,,,,,256,0,12,,,,,4,,,64,100
6016,note_on,,,,,44,0,11,,,,,3,,,83,35
6016,note_on,,,,,44,0,8,,,,,0,,,83,95
6100,note_off,,,,,84,0,9,,,,,1,,,83,100
6100,note_off,,,,,84,0,10,,,,,2,,,83,100
6100,note_off,,,,,84,0,11,,,,,3,,,83,100
6100,note_off,,,,,84,0,8,,,,,0,,,83,100
6144,note_on,,,,,44,0,9,,,,,1,,,81,35
6144,note_on,,,,,44,0,11,,,,,3,,,81,35
6144,note_on,,,,,44,0,10,,,,,2,,,81,35
6144,note_on,,,,,44,0,8,,,,,0,,,81,96
6228,note_off,,,,,84,0,8,,,,,0,,,81,100
6228,note_off,,,,,84,0,9,,,,,1,,,81,100
6228,note_off,,,,,84,0,10,,,,,2,,,81,100
6228,note_off,,,,,84,0,11,,,,,3,,,81,100
6272,note_on,,,,,44,0,8,,,,,0,,,83,96
6272,note_on,,,,,44,0,10,,,,,2,,,83,35
6272,note_on,,,,,44,0,9,,,,,1,,,83,35
6272,note_on,,,,,44,0,11,,,,,3,,,83,35
6356,note_off,,,,,84,0,9,,,,,1,,,83,100
6356,note_off,,,,,84,0,8,,,,,0,,,83,100
6356,note_off,,,,,84,0,11,,,,,3,,,83,100
6356,note_off,,,,,84,0,10,,,,,2,,,83,100
6400,note_on,,,,,44,0,11,,,,,3,,,79,35
6400,note_on,,,,,44,0,10,,,,,2,,,79,35
6400,note_on,,,,,44,0,9,,,,,1,,,79,35
6400,note_on,,,,,44,0,8,,,,,0,,,79,97
6484,note_off,,,,,84,0,10,,,,,2,,,79,100
6484,note_off,,,,,84,0,9,,,,,1,,,79,100
6484,note_off,,,,,84,0,11,,,,,3,,,79,100
6484,note_off,,,,,84,0,8,,,,,0,,,79,100
6528,note_on,,,,,512,0,13,,,,,5,,,58,85
6528,note_on,,,,,512,0,15,,,,,7,,,66,100
6528,note_on,,,,,44,0,8,,,,,0,,,78,97
6528,note_on,,,,,44,0,10,,,,,2,,,78,35
6528,note_on,,,,,512,0,12,,,,,4,,,73,85
6528,note_on,,,,,0,0,12,,,,,4,,,66,85
6528,note_on,,,,,44,0,9,,,,,1,,,78,35
6528,note_on,,,,,512,0,14,,,,,6,,,46,85
6528,note_on,,,,,0,0,15,,,,,7,,,73,100
6528,note_on,,,,,44,0,11,,,,,3,,,78,35
6528,note_on,,,,,512,0,16,,,,,7,,,58,100
6612,note_off,,,,,84,0,8,,,,,0,,,78,100
6612,note_off,,,,,84,0,10,,,,,2,,,78,100
6612,note_off,,,,,84,0,11,,,,,3,,,78,100
6612,note_off,,,,,84,0,9,,,,,1,,,78,100
6656,note_on,,,,,44,0,10,,,,,2,,,79,35
6656,note_on,,,,,44,0,9,,,,,1,,,79,35
6656,note_on,,,,,44,0,11,,,,,3,,,79,35
6656,note_on,,,,,44,0,8,,,,,0,,,79,98
6740,note_off,,,,,84,0,9,,,,,1,,,79,100
6740,note_off,,,,,84,0,8,,,,,0,,,79,100
6740,note_off,,,,,84,0,11,,,,,3,,,79,100
6740,note_off,,,,,84,0,10,,,,,2,,,79,100
6784,note_off,,,,,0,0,15,,,,,7,,,73,100
6784,note_off,,,,,256,0,15,,,,,7,,,66,100
6784,note_off,,,,,256,0,16,,,,,7,,,58,100
6784,note_on,,,,,44,0,9,,,,,1,,,76,35
6784,note_on,,,,,44,0,11,,,,,3,,,76,35
6784,note_off,,,,,256,0,14,,,,,6,,,46,100
6784,note_off,,,,,0,0,12,,,,,4,,,66,100
6784,note_off,,,,,256,0,12,,,,,4,,,73,100
6784,note_off,,,,,256,0,13,,,,,5,,,58,100
6784,note_on,,,,,44,0,10,,,,,2,,,76,35
6784,note_on,,,,,44,0,8,,,,,0,,,76,98
6868,note_off,,,,,84,0,8,,,,,0,,,76,100
6868,note_off,,,,,84,0,9,,,,,1,,,76,100
6868,note_off,,,,,84,0,10,,,,,2,,,76,100
6868,note_off,,,,,84,0,11,,,,,3,,,76,100
6912,note_on,,,,,128,0,13,,,,,5,,,59,85
6912,note_on,,,,,128,0,15,,,,,7,,,74,100
6912,note_on,,,,,44,0,9,,,,,1,,,74,35
6912,note_on,,,,,44,0,10,,,,,2,,,74,35
6912,note_on,,,,,44,0,8,,,,,0,,,74,99
6912,note_on,,,,,128,0,16,,,,,7,,,59,100
6912,note_on,,,,,0,0,15,,,,,7,,,66,100
6912,note_on,,,,,128,0,12,,,,,4,,,66,85
6912,note_on,,,,,128,0,14,,,,,6,,,47,85
6912,note_on,,,,,44,0,11,,,,,3,,,74,35
6996,note_off,,,,,84,0,8,,,,,0,,,74,100
6996,note_off,,,,,84,0,11,,,,,3,,,74,100
6996,note_off,,,,,84,0,9,,,,,1,,,74,100
6996,note_off,,,,,84,0,10,,,,,2,,,74,100
7040,note_on,,,,,44,0,10,,,,,2,,,86,35
7040,note_on,,,,,44,0,11,,,,,3,,,86,35
7040,note_on,,,,,44,0,9,,,,,1,,,86,35
7040,note_on,,,,,44,0,8,,,,,0,,,86,100
7124,note_off,,,,,84,0,8,,,,,0,,,86,100
7124,note_off,,,,,84,0,10,,,,,2,,,86,100
7124,note_off,,,,,84,0,9,,,,,1,,,86,100
7124,note_off,,,,,84,0,11,,,,,3,,,86,100
7168,note_off,,,,,0,0,15,,,,,7,,,66,100
7168,note_off,,,,,256,0,14,,,,,6,,,47,100
7168,note_off,,,,,256,0,15,,,,,7,,,74,100
7168,note_on,,,,,44,0,10,,,,,2,,,85,35
7168,note_on,,,,,44,0,8,,,,,0,,,85,99
7168,note_on,,,,,44,0,11,,,,,3,,,85,35
7168,note_off,,,,,256,0,12,,,,,4,,,66,100
7168,note_off,,,,,256,0,13,,,,,5,,,59,100
7168,note_off,,,,,256,0,16,,,,,7,,,59,100
7168,note_on,,,,,44,0,9,,,,,1,,,85,35
7252,note_off,,,,,84,0,11,,,,,3,,,85,100
7252,note_off,,,,,84,0,8,,,,,0,,,85,100
7252,note_off,,,,,84,0,9,,,,,1,,,85,100
7252,note_off,,,,,84,0,10,,,,,2,,,85,100
7296,note_on,,,,,44,0,9,,,,,1,,,83,35
7296,note_on,,,,,44,0,11,,,,,3,,,83,35
7296,note_on,,,,,44,0,10,,,,,2,,,83,35
7296,note_on,,,,,44,0,8,,,,,0,,,83,97
7380,note_off,,,,,84,0,8,,,,,0,,,83,100
7380,note_off,,,,,84,0,9,,,,,1,,,83,100
7380,note_off,,,,,84,0,10,,,,,2,,,83,100
7380,note_off,,,,,84,0,11,,,,,3,,,83,100
7424,note_on,,,,,44,0,10,,,,,2,,,85,35
7424,note_on,,,,,44,0,9,,,,,1,,,85,35
7424,note_on,,,,,44,0,8,,,,,0,,,85,95
7424,note_on,,,,,44,0,11,,,,,3,,,85,35
7508,note_off,,,,,84,0,11,,,,,3,,,85,100
7508,note_off,,,,,84,0,9,,,,,1,,,85,100
7508,note_off,,,,,84,0,8,,,,,0,,,85,100
7508,note_off,,,,,84,0,10,,,,,2,,,85,100
7552,note_on,,,,,44,0,9,,,,,1,,,81,35
7552,note_on,,,,,44,0,8,,,,,0,,,81,93
7552,note_on,,,,,44,0,10,,,,,2,,,81,35
7552,note_on,,,,,44,0,11,,,,,3,,,81,35
7636,note_off,,,,,84,0,9,,,,,1,,,81,100
7636,note_off,,,,,84,0,8,,,,,0,,,81,100
7636,note_off,,,,,84,0,11,,,,,3,,,81,100
7636,note_off,,,,,84,0,10,,,,,2,,,81,100
7680,note_on,,,,,512,0,12,,,,,4,,,74,85
7680,note_on,,,,,44,0,8,,,,,0,,,79,91
7680,note_on,,,,,0,0,12,,,,,4,,,71,85
7680,note_on,,,,,512,0,13,,,,,5,,,55,85
7680,note_on,,,,,44,0,10,,,,,2,,,79,35
7680,note_on,,,,,512,0,14,,,,,6,,,43,85
7680,note_on,,,,,44,0,11,,,,,3,,,79,35
7680,note_on,,,,,0,0,15,,,,,7,,,71,100
7680,note_on,,,,,44,0,9,,,,,1,,,79,35
7680,note_on,,,,,512,0,16,,,,,7,,,55,100
7680,note_on,,,,,512,0,15,,,,,7,,,62,100
7764,note_off,,,,,84,0,10,,,,,2,,,79,100
7764,note_off,,,,,84,0,8,,,,,0,,,79,100
7764,note_off,,,,,84,0,9,,,,,1,,,79,100
7764,note_off,,,,,84,0,11,,,,,3,,,79,100
7808,note_on,,,,,44,0,11,,,,,3,,,81,35
7808,note_on,,,,,44,0,9,,,,,1,,,81,35
7808,note_on,,,,,44,0,10,,,,,2,,,81,35
7808,note_on,,,,,44,0,8,,,,,0,,,81,89
7892,note_off,,,,,84,0,10,,,,,2,,,81,100
7892,note_off,,,,,84,0,11,,,,,3,,,81,100
7892,note_off,,,,,84,0,9,,,,,1,,,81,100
7892,note_off,,,,,84,0,8,,,,,0,,,81,100
7936,note_off,,,,,256,0,16,,,,,7,,,55,100
7936,note_on,,,,,44,0,11,,,,,3,,,78,35
7936,note_off,,,,,256,0,14,,,,,6,,,43,100
7936,note_off,,,,,256,0,15,,,,,7,,,62,100
7936,note_off,,,,,256,0,13,,,,,5,,,55,100
7936,note_on,,,,,44,0,10,,,,,2,,,78,35
7936,note_off,,,,,0,0,15,,,,,7,,,71,100
7936,note_on,,,,,44,0,8,,,,,0,,,78,87
7936,note_on,,,,,44,0,9,,,,,1,,,78,35
7936,note_off,,,,,0,0,12,,,,,4,,,71,100
7936,note_off,,,,,256,0,12,,,,,4,,,74,100
8020,note_off,,,,,84,0,10,,,,,2,,,78,100
8020,note_off,,,,,84,0,8,,,,,0,,,78,100
8020,note_off,,,,,84,0,11,,,,,3,,,78,100
8020,note_off,,,,,84,0,9,,,,,1,,,78,100
8064,note_on,,,,,44,0,11,,,,,3,,,76,35
8064,note_on,,,,,44,0,9,,,,,1,,,76,35
8064,note_on,,,,,128,0,13,,,,,5,,,57,85
8064,note_on,,,,,44,0,8,,,,,0,,,76,86
8064,note_on,,,,,128,0,14,,,,,6,,,45,85
8064,note_on,,,,,0,0,15,,,,,7,,,67,100
8064,note_on,,,,,128,0,15,,,,,7,,,64,100
8064,note_on,,,,,128,0,12,,,,,4,,,64,85
8064,note_on,,,,,0,0,12,,,,,4,,,73,85
8064,note_on,,,,,44,0,10,,,,,2,,,76,35
8064,note_on,,,,,128,0,16,,,,,7,,,57,100
8148,note_off,,,,,84,0,10,,,,,2,,,76,100
8148,note_off,,,,,84,0,8,,,,,0,,,76,100
8148,note_off,,,,,84,0,11,,,,,3,,,76,100
8148,note_off,,,,,84,0,9,,,,,1,,,76,100
8192,note_on,,,,,44,0,9,,,,,1,,,69,35
8192,note_on,,,,,44,0,10,,,,,2,,,69,35
8192,note_on,,,,,44,0,11,,,,,3,,,69,35
8192,note_on,,,,,44,0,8,,,,,0,,,69,85
8276,note_off,,,,,84,0,9,,,,,1,,,69,100
8276,note_off,,,,,84,0,10,,,,,2,,,69,100
8276,note_off,,,,,84,0,11,,,,,3,,,69,100
8276,note_off,,,,,84,0,8,,,,,0,,,69,100
8320,note_on,,,,,44,0,8,,,,,0,,,71,85
8320,note_off,,,,,256,0,14,,,,,6,,,45,100
8320,note_off,,,,,0,0,15,,,,,7,,,67,100
8320,note_on,,,,,44,0,11,,,,,3,,,71,35
8320,note_on,,,,,44,0,10,,,,,2,,,71,35
8320,note_off,,,,,256,0,15,,,,,7,,,64,100
8320,note_off,,,,,256,0,12,,,,,4,,,73,100
8320,note_on,,,,,44,0,9,,,,,1,,,71,35
8320,note_off,,,,,256,0,13,,,,,5,,,57,100
8320,note_off,,,,,256,0,16,,,,,7,,,57,100
8404,note_off,,,,,84,0,11,,,,,3,,,71,100
8404,note_off,,,,,84,0,9,,,,,1,,,71,100
8404,note_off,,,,,84,0,8,,,,,0,,,71,100
8404,note_off,,,,,84,0,10,,,,,2,,,71,100
8448,note_on,,,,,128,0,16,,,,,7,,,45,100
8448,note_on,,,,,128,0,12,,,,,4,,,69,85
8448,note_on,,,,,44,0,8,,,,,0,,,73,85
8448,note_on,,,,,44,0,9,,,,,1,,,73,35
8448,note_on,,,,,128,0,15,,,,,7,,,64,100
8448,note_on,,,,,44,0,11,,,,,3,,,73,35
8448,note_on,,,,,128,0,14,,,,,6,,,33,85
8448,note_on,,,,,0,0,15,,,,,7,,,61,100
8448,note_on,,,,,128,0,13,,,,,5,,,45,85
8448,note_on,,,,,44,0,10,,,,,2,,,73,35
8532,note_off,,,,,84,0,9,,,,,1,,,73,100
8532,note_off,,,,,84,0,10,,,,,2,,,73,100
8532,note_off,,,,,84,0,8,,,,,0,,,73,100
8532,note_off,,,,,84,0,11,,,,,3,,,73,100
8576,note_on,,,,,44,0,8,,,,,0,,,74,85
8576,note_off,,,,,128,0,12,,,,,4,,,64,100
8576,note_on,,,,,44,0,10,,,,,2,,,74,35
8576,note_on,,,,,44,0,11,,,,,3,,,74,35
8576,note_on,,,,,44,0,9,,,,,1,,,74,35
8660,note_off,,,,,84,0,11,,,,,3,,,74,100
8660,note_off,,,,,84,0,8,,,,,0,,,74,100
8660,note_off,,,,,84,0,9,,,,,1,,,74,100
8660,note_off,,,,,84,0,10,,,,,2,,,74,100
8704,note_off,,,,,128,0,12,,,,,4,,,69,100
8704,note_on,,,,,44,0,10,,,,,2,,,76,35
8704,note_off,,,,,256,0,16,,,,,7,,,45,100
8704,note_on,,,,,44,0,9,,,,,1,,,76,35
8704,note_off,,,,,256,0,15,,,,,7,,,64,100
8704,note_on,,,,,44,0,8,,,,,0,,,76,85
8704,note_off,,,,,256,0,13,,,,,5,,,45,100
8704,note_on,,,,,44,0,11,,,,,3,,,76,35
8704,note_off,,,,,0,0,15,,,,,7,,,61,100
8704,note_off,,,,,256,0,14,,,,,6,,,33,100
8788,note_off,,,,,84,0,8,,,,,0,,,76,100
8788,note_off,,,,,84,0,9,,,,,1,,,76,100
8788,note_off,,,,,84,0,10,,,,,2,,,76,100
8788,note_off,,,,,84,0,11,,,,,3,,,76,100
8832,note_on,,,,,44,0,9,,,,,1,,,78,35
8832,note_on,,,,,44,0,10,,,,,2,,,78,35
8832,note_on,,,,,44,0,11,,,,,3,,,78,35
8832,note_on,,,,,44,0,8,,,,,0,,,78,85
8916,note_off,,,,,84,0,8,,,,,0,,,78,100
8916,note_off,,,,,84,0,9,,,,,1,,,78,100
8916,note_off,,,,,84,0,11,,,,,3,,,78,100
8916,note_off,,,,,84,0,10,,,,,2,,,78,100
8960,note_on,,,,,44,0,10,,,,,2,,,79,35
8960,note_on,,,,,44,0,11,,,,,3,,,79,35
8960,note_on,,,,,44,0,9,,,,,1,,,79,35
8960,note_on,,,,,44,0,8,,,,,0,,,79,85
9044,note_off,,,,,84,0,9,,,,,1,,,79,100
9044,note_off,,,,,84,0,8,,,,,0,,,79,100
9044,note_off,,,,,84,0,10,,,,,2,,,79,100
9044,note_off,,,,,84,0,11,,,,,3,,,79,100
9088,note_on,,,,,44,0,8,,,,,0,,,81,85
9088,note_on,,,,,44,0,9,,,,,1,,,81,35
9088,note_on,,,,,44,0,11,,,,,3,,,81,35
9088,note_on,,,,,44,0,10,,,,,2,,,81,35
9172,note_off,,,,,84,0,11,,,,,3,,,81,100
9172,note_off,,,,,84,0,8,,,,,0,,,81,100
9172,note_off,,,,,84,0,9,,,,,1,,,81,100
9172,note_off,,,,,84,0,10,,,,,2,,,81,100
9216,note_on,,,,,512,0,14,,,,,6,,,45,60
9216,note_on,,,,,512,0,15,,,,,7,,,64,100
9216,note_on,,,,,512,0,12,,,,,4,,,64,60
9216,note_on,,,,,44,0,10,,,,,2,,,76,35
9216,note_on,,,,,44,0,11,,,,,3,,,76,35
9216,note_on,,,,,0,0,15,,,,,7,,,67,100
9216,note_on,,,,,44,0,8,,,,,0,,,76,85
9216,note_on,,,,,0,0,12,,,,,4,,,73,60
9216,note_on,,,,,44,0,9,,,,,1,,,76,35
9216,note_on,,,,,512,0,13,,,,,5,,,57,60
9216,note_on,,,,,512,0,16,,,,,7,,,57,100
9300,note_off,,,,,84,0,8,,,,,0,,,76,100
9300,note_off,,,,,84,0,11,,,,,3,,,76,100
9300,note_off,,,,,84,0,10,,,,,2,,,76,100
9300,note_off,,,,,84,0,9,,,,,1,,,76,100
9344,note_on,,,,,44,0,10,,,,,2,,,69,10
9344,note_on,,,,,44,0,9,,,,,1,,,69,10
9344,note_on,,,,,44,0,8,,,,,0,,,69,60
9344,note_on,,,,,44,0,11,,,,,3,,,69,10
9428,note_off,,,,,84,0,9,,,,,1,,,69,100
9428,note_off,,,,,84,0,11,,,,,3,,,69,100
9428,note_off,,,,,84,0,8,,,,,0,,,69,100
9428,note_off,,,,,84,0,10,,,,,2,,,69,100
9472,note_off,,,,,256,0,12,,,,,4,,,73,100
9472,note_on,,,,,44,0,9,,,,,1,,,71,10
9472,note_on,,,,,44,0,11,,,,,3,,,71,10
9472,note_on,,,,,44,0,10,,,,,2,,,71,10
9472,note_off,,,,,256,0,14,,,,,6,,,45,100
9472,note_on,,,,,44,0,8,,,,,0,,,71,60
9472,note_off,,,,,256,0,13,,,,,5,,,57,100
9472,note_off,,,,,256,0,15,,,,,7,,,64,100
9472,note_off,,,,,0,0,15,,,,,7,,,67,100
9472,note_off,,,,,256,0,16,,,,,7,,,57,100
9556,note_off,,,,,84,0,9,,,,,1,,,71,100
9556,note_off,,,,,84,0,11,,,,,3,,,71,100
9556,note_off,,,,,84,0,8,,,,,0,,,71,100
9556,note_off,,,,,84,0,10,,,,,2,,,71,100
9600,note_on,,,,,128,0,12,,,,,4,,,69,60
9600,note_on,,,,,44,0,9,,,,,1,,,73,10
9600,note_on,,,,,44,0,10,,,,,2,,,73,10
9600,note_on,,,,,128,0,14,,,,,6,,,33,60
9600,note_on,,,,,44,0,11,,,,,3,,,73,10
9600,note_on,,,,,0,0,15,,,,,7,,,64,100
9600,note_on,,,,,128,0,15,,,,,7,,,61,100
9600,note_on,,,,,128,0,16,,,,,7,,,45,100
9600,note_on,,,,,44,0,8,,,,,0,,,73,60
9600,note_on,,,,,128,0,13,,,,,5,,,45,60
9684,note_off,,,,,84,0,9,,,,,1,,,73,100
9684,note_off,,,,,84,0,10,,,,,2,,,73,100
9684,note_off,,,,,84,0,11,,,,,3,,,73,100
9684,note_off,,,,,84,0,8,,,,,0,,,73,100
9728,note_on,,,,,44,0,11,,,,,3,,,74,10
9728,note_on,,,,,44,0,9,,,,,1,,,74,10
9728,note_off,,,,,128,0,12,,,,,4,,,64,100
9728,note_on,,,,,44,0,10,,,,,2,,,74,10
9728,note_on,,,,,44,0,8,,,,,0,,,74,60
9812,note_off,,,,,84,0,11,,,,,3,,,74,100
9812,note_off,,,,,84,0,9,,,,,1,,,74,100
9812,note_off,,,,,84,0,10,,,,,2,,,74,100
9812,note_off,,,,,84,0,8,,,,,0,,,74,100
9856,note_off,,,,,256,0,15,,,,,7,,,61,100
9856,note_off,,,,,0,0,15,,,,,7,,,64,100
9856,note_off,,,,,256,0,14,,,,,6,,,33,100
9856,note_off,,,,,128,0,12,,,,,4,,,69,100
9856,note_off,,,,,256,0,13,,,,,5,,,45,100
9856,note_off,,,,,256,0,16,,,,,7,,,45,100
9856,note_on,,,,,44,0,10,,,,,2,,,76,10
9856,note_on,,,,,44,0,9,,,,,1,,,76,10
9856,note_on,,,,,44,0,11,,,,,3,,,76,10
9856,note_on,,,,,44,0,8,,,,,0,,,76,60
9940,note_off,,,,,84,0,8,,,,,0,,,76,100
9940,note_off,,,,,84,0,9,,,,,1,,,76,100
9940,note_off,,,,,84,0,11,,,,,3,,,76,100
9940,note_off,,,,,84,0,10,,,,,2,,,76,100
9984,note_on,,,,,44,0,8,,,,,0,,,78,60
9984,note_on,,,,,44,0,9,,,,,1,,,78,10
9984,note_on,,,,,44,0,11,,,,,3,,,78,10
9984,note_on,,,,,44,0,10,,,,,2,,,78,10
10068,note_off,,,,,84,0,11,,,,,3,,,78,100
10068,note_off,,,,,84,0,10,,,,,2,,,78,100
10068,note_off,,,,,84,0,9,,,,,1,,,78,100
10068,note_off,,,,,84,0,8,,,,,0,,,78,100
10112,note_on,,,,,44,0,9,,,,,1,,,79,10
10112,note_on,,,,,44,0,10,,,,,2,,,79,10
10112,note_on,,,,,44,0,8,,,,,0,,,79,60
10112,note_on,,,,,44,0,11,,,,,3,,,79,10
10196,note_off,,,,,84,0,9,,,,,1,,,79,100
10196,note_off,,,,,84,0,11,,,,,3,,,79,100
10196,note_off,,,,,84,0,10,,,,,2,,,79,100
10196,note_off,,,,,84,0,8,,,,,0,,,79,100
10240,note_on,,,,,44,0,8,,,,,0,,,81,60
10240,note_on,,,,,44,0,11,,,,,3,,,81,10
10240,note_on,,,,,44,0,9,,,,,1,,,81,10
10240,note_on,,,,,44,0,10,,,,,2,,,81,10
10324,note_off,,,,,84,0,8,,,,,0,,,81,100
10324,note_off,,,,,84,0,11,,,,,3,,,81,100
10324,note_off,,,,,84,0,9,,,,,1,,,81,100
10324,note_off,,,,,84,0,10,,,,,2,,,81,100
10368,note_on,,,,,512,0,14,,,,,6,,,45,100
10368,note_on,,,,,44,0,11,,,,,3,,,76,10
10368,note_on,,,,,44,0,8,,,,,0,,,76,60
10368,note_on,,,,,512,0,15,,,,,7,,,64,100
10368,note_on,,,,,0,0,15,,,,,7,,,67,100
10368,note_on,,,,,44,0,10,,,,,2,,,76,10
10368,note_on,,,,,44,0,9,,,,,1,,,76,10
10368,note_on,,,,,512,0,12,,,,,4,,,64,100
10368,note_on,,,,,512,0,16,,,,,7,,,57,100
10368,note_on,,,,,0,0,12,,,,,4,,,73,100
10368,note_on,,,,,512,0,13,,,,,5,,,57,100
10452,note_off,,,,,84,0,9,,,,,1,,,76,100
10452,note_off,,,,,84,0,11,,,,,3,,,76,100
10452,note_off,,,,,84,0,10,,,,,2,,,76,100
10452,note_off,,,,,84,0,8,,,,,0,,,76,100
10496,note_on,,,,,44,0,10,,,,,2,,,69,50
10496,note_on,,,,,44,0,11,,,,,3,,,69,50
10496,note_on,,,,,44,0,9,,,,,1,,,69,50
10496,note_on,,,,,44,0,8,,,,,0,,,69,100
10580,note_off,,,,,84,0,8,,,,,0,,,69,100
10580,note_off,,,,,84,0,11,,,,,3,,,69,100
10580,note_off,,,,,84,0,9,,,,,1,,,69,100
10580,note_off,,,,,84,0,10,,,,,2,,,69,100
10624,note_off,,,,,0,0,15,,,,,7,,,67,100
10624,note_off,,,,,256,0,13,,,,,5,,,57,100
10624,note_on,,,,,44,0,9,,,,,1,,,71,50
10624,note_off,,,,,256,0,15,,,,,7,,,64,100
10624,note_off,,,,,256,0,12,,,,,4,,,73,100
10624,note_on,,,,,44,0,11,,,,,3,,,71,50
10624,note_off,,,,,256,0,14,,,,,6,,,45,100
10624,note_off,,,,,256,0,16,,,,,7,,,57,100
10624,note_on,,,,,44,0,10,,,,,2,,,71,50
10624,note_on,,,,,44,0,8,,,,,0,,,71,100
10708,note_off,,,,,84,0,9,,,,,1,,,71,100
10708,note_off,,,,,84,0,10,,,,,2,,,71,100
10708,note_off,,,,,84,0,11,,,,,3,,,71,100
10708,note_off,,,,,84,0,8,,,,,0,,,71,100
10752,note_on,,,,,128,0,13,,,,,5,,,45,100
10752,note_on,,,,,128,0,12,,,,,4,,,69,100
10752,note_on,,,,,0,0,15,,,,,7,,,64,100
10752,note_on,,,,,128,0,15,,,,,7,,,61,100
10752,note_on,,,,,128,0,16,,,,,7,,,45,100
10752,note_on,,,,,44,0,8,,,,,0,,,73,100
10752,note_on,,,,,128,0,14,,,,,6,,,33,100
10752,note_on,,,,,44,0,9,,,,,1,,,73,50
10752,note_on,,,,,44,0,11,,,,,3,,,73,50
10752,note_on,,,,,44,0,10,,,,,2,,,73,50
10836,note_off,,,,,84,0,8,,,,,0,,,73,100
10836,note_off,,,,,84,0,10,,,,,2,,,73,100
10836,note_off,,,,,84,0,11,,,,,3,,,73,100
10836,note_off,,,,,84,0,9,,,,,1,,,73,100
10880,note_on,,,,,44,0,11,,,,,3,,,74,50
10880,note_on,,,,,44,0,9,,,,,1,,,74,50
10880,note_off,,,,,128,0,12,,,,,4,,,64,100
10880,note_on,,,,,44,0,10,,,,,2,,,74,50
10880,note_on,,,,,44,0,8,,,,,0,,,74,100
10964,note_off,,,,,84,0,11,,,,,3,,,74,100
10964,note_off,,,,,84,0,10,,,,,2,,,74,100
10964,note_off,,,,,84,0,8,,,,,0,,,74,100
10964,note_off,,,,,84,0,9,,,,,1,,,74,100
11008,note_off,,,,,256,0,13,,,,,5,,,45,100
11008,note_off,,,,,256,0,16,,,,,7,,,45,100
11008,note_on,,,,,44,0,10,,,,,2,,,76,50
11008,note_off,,,,,256,0,15,,,,,7,,,61,100
11008,note_off,,,,,256,0,14,,,,,6,,,33,100
11008,note_off,,,,,0,0,15,,,,,7,,,64,100
11008,note_on,,,,,44,0,9,,,,,1,,,76,50
11008,note_on,,,,,44,0,11,,,,,3,,,76,50
11008,note_on,,,,,44,0,8,,,,,0,,,76,100
11008,note_off,,,,,128,0,12,,,,,4,,,69,100
11092,note_off,,,,,84,0,9,,,,,1,,,76,100
11092,note_off,,,,,84,0,8,,,,,0,,,76,100
11092,note_off,,,,,84,0,10,,,,,2,,,76,100
11092,note_off,,,,,84,0,11,,,,,3,,,76,100
11136,note_on,,,,,44,0,9,,,,,1,,,78,50
11136,note_on,,,,,44,0,8,,,,,0,,,78,100
11136,note_on,,,,,44,0,11,,,,,3,,,78,50
11136,note_on,,,,,44,0,10,,,,,2,,,78,50
11220,note_off,,,,,84,0,10,,,,,2,,,78,100
11220,note_off,,,,,84,0,9,,,,,1,,,78,100
11220,note_off,,,,,84,0,11,,,,,3,,,78,100
11220,note_off,,,,,84,0,8,,,,,0,,,78,100
11264,note_on,,,,,44,0,11,,,,,3,,,79,50
11264,note_on,,,,,44,0,8,,,,,0,,,79,100
11264,note_on,,,,,44,0,10,,,,,2,,,79,50
11264,note_on,,,,,44,0,9,,,,,1,,,79,50
11348,note_off,,,,,84,0,9,,,,,1,,,79,100
11348,note_off,,,,,84,0,10,,,,,2,,,79,100
11348,note_off,,,,,84,0,8,,,,,0,,,79,100
11348,note_off,,,,,84,0,11,,,,,3,,,79,100
11392,note_on,,,,,44,0,10,,,,,2,,,81,50
11392,note_on,,,,,44,0,9,,,,,1,,,81,50
11392,note_on,,,,,44,0,8,,,,,0,,,81,100
11392,note_on,,,,,44,0,11,,,,,3,,,81,50
11476,note_off,,,,,84,0,8,,,,,0,,,81,100
11476,note_off,,,,,84,0,10,,,,,2,,,81,100
11476,note_off,,,,,84,0,9,,,,,1,,,81,100
11476,note_off,,,,,84,0,11,,,,,3,,,81,100
11520,note_on,,,,,512,0,14,,,,,6,,,38,100
11520,note_on,,,,,512,0,13,,,,,5,,,50,100
11520,note_on,,,,,512,0,15,,,,,7,,,62,100
11520,note_on,,,,,512,0,16,,,,,7,,,50,100
11520,note_on,,,,,0,0,12,,,,,4,,,69,100
11520,note_on,,,,,512,0,12,,,,,4,,,57,100
11520,note_on,,,,,44,0,8,,,,,0,,,78,100
11520,note_on,,,,,44,0,9,,,,,1,,,78,50
11520,note_on,,,,,44,0,10,,,,,2,,,78,50
11520,note_on,,,,,44,0,11,,,,,3,,,78,50
11584,note_off,,,,,64,0,14,,,,,6,,,38,100
11584,note_off,,,,,64,0,13,,,,,5,,,50,100
11584,note_off,,,,,64,0,16,,,,,7,,,50,100
11584,note_off,,,,,64,0,15,,,,,7,,,62,100
11604,note_off,,,,,84,0,9,,,,,1,,,78,100
11604,note_off,,,,,84,0,8,,,,,0,,,78,100
11604,note_off,,,,,84,0,11,,,,,3,,,78,100
11604,note_off,,,,,84,0,10,,,,,2,,,78,100
11616,note_on,,,,,32,0,13,,,,,5,,,52,100
11616,note_on,,,,,32,0,16,,,,,7,,,52,100
11616,note_on,,,,,32,0,15,,,,,7,,,64,100
11616,note_on,,,,,32,0,14,,,,,6,,,40,100
11648,note_on,,,,,44,0,10,,,,,2,,,76,50
11648,note_on,,,,,44,0,8,,,,,0,,,76,100
11648,note_on,,,,,44,0,9,,,,,1,,,76,50
11648,note_on,,,,,44,0,11,,,,,3,,,76,50
11648,note_off,,,,,128,0,12,,,,,4,,,69,100
11680,note_off,,,,,64,0,16,,,,,7,,,52,100
11680,note_off,,,,,64,0,13,,,,,5,,,52,100
11680,note_off,,,,,64,0,14,,,,,6,,,40,100
11680,note_off,,,,,64,0,15,,,,,7,,,64,100
11712,note_on,,,,,64,0,12,,,,,4,,,66,100
11712,note_on,,,,,32,0,14,,,,,6,,,42,100
11712,note_on,,,,,32,0,15,,,,,7,,,66,100
11712,note_on,,,,,32,0,16,,,,,7,,,54,100
11712,note_on,,,,,32,0,13,,,,,5,,,54,100
11732,note_off,,,,,84,0,9,,,,,1,,,76,100
11732,note_off,,,,,84,0,10,,,,,2,,,76,100
11732,note_off,,,,,84,0,8,,,,,0,,,76,100
11732,note_off,,,,,84,0,11,,,,,3,,,76,100
11776,note_on,,,,,44,0,9,,,,,1,,,74,50
11776,note_off,,,,,64,0,16,,,,,7,,,54,100
11776,note_off,,,,,64,0,13,,,,,5,,,54,100
11776,note_off,,,,,64,0,12,,,,,4,,,57,100
11776,note_on,,,,,44,0,10,,,,,2,,,74,50
11776,note_off,,,,,64,0,14,,,,,6,,,42,100
11776,note_on,,,,,44,0,8,,,,,0,,,74,100
11776,note_on,,,,,44,0,11,,,,,3,,,74,50
11776,note_off,,,,,64,0,15,,,,,7,,,66,100
11808,note_on,,,,,32,0,16,,,,,7,,,55,100
11808,note_on,,,,,32,0,15,,,,,7,,,67,100
11808,note_on,,,,,32,0,13,,,,,5,,,55,100
11808,note_on,,,,,32,0,14,,,,,6,,,43,100
11840,note_off,,,,,64,0,12,,,,,4,,,66,100
11860,note_off,,,,,84,0,8,,,,,0,,,74,100
11860,note_off,,,,,84,0,10,,,,,2,,,74,100
11860,note_off,,,,,84,0,9,,,,,1,,,74,100
11860,note_off,,,,,84,0,11,,,,,3,,,74,100
11872,note_off,,,,,64,0,14,,,,,6,,,43,100
11872,note_off,,,,,64,0,15,,,,,7,,,67,100
11872,note_off,,,,,64,0,13,,,,,5,,,55,100
11872,note_off,,,,,64,0,16,,,,,7,,,55,100
11904,note_on,,,,,32,0,16,,,,,7,,,57,100
11904,note_on,,,,,0,0,12,,,,,4,,,64,100
11904,note_on,,,,,44,0,10,,,,,2,,,73,50
11904,note_on,,,,,32,0,15,,,,,7,,,64,100
11904,note_on,,,,,44,0,8,,,,,0,,,73,100
11904,note_on,,,,,44,0,9,,,,,1,,,73,50
11904,note_on,,,,,64,0,12,,,,,4,,,57,100
11904,note_on,,,,,44,0,11,,,,,3,,,73,50
11904,note_on,,,,,32,0,13,,,,,5,,,57,100
11904,note_on,,,,,0,0,15,,,,,7,,,69,100
11904,note_on,,,,,32,0,14,,,,,6,,,45,100
11988,note_off,,,,,84,0,11,,,,,3,,,73,100
11988,note_off,,,,,84,0,9,,,,,1,,,73,100
11988,note_off,,,,,84,0,8,,,,,0,,,73,100
11988,note_off,,,,,84,0,10,,,,,2,,,73,100
12032,note_on,,,,,44,0,10,,,,,2,,,69,50
12032,note_off,,,,,128,0,13,,,,,5,,,57,100
12032,note_on,,,,,44,0,9,,,,,1,,,69,50
12032,note_off,,,,,128,0,12,,,,,4,,,64,100
12032,note_off,,,,,128,0,14,,,,,6,,,45,100
12032,note_off,,,,,128,0,15,,,,,7,,,64,100
12032,note_off,,,,,0,0,15,,,,,7,,,69,100
12032,note_on,,,,,44,0,11,,,,,3,,,69,50
12032,note_off,,,,,128,0,16,,,,,7,,,57,100
12032,note_on,,,,,44,0,8,,,,,0,,,69,100
12096,note_on,,,,,64,0,14,,,,,6,,,42,100
12096,note_on,,,,,64,0,16,,,,,7,,,54,100
12096,note_on,,,,,64,0,13,,,,,5,,,54,100
12096,note_on,,,,,64,0,15,,,,,7,,,62,100
12096,note_on,,,,,0,0,15,,,,,7,,,69,100
12096,note_on,,,,,64,0,12,,,,,4,,,66,100
12116,note_off,,,,,84,0,9,,,,,1,,,69,100
12116,note_off,,,,,84,0,10,,,,,2,,,69,100
12116,note_off,,,,,84,0,11,,,,,3,,,69,100
12116,note_off,,,,,84,0,8,,,,,0,,,69,100
12160,note_off,,,,,64,0,12,,,,,4,,,57,100
12160,note_on,,,,,44,0,11,,,,,3,,,74,50
12160,note_on,,,,,44,0,10,,,,,2,,,74,50
12160,note_on,,,,,44,0,9,,,,,1,,,74,50
12160,note_on,,,,,44,0,8,,,,,0,,,74,100
12224,note_off,,,,,128,0,15,,,,,7,,,62,100
12224,note_off,,,,,64,0,12,,,,,4,,,66,100
12224,note_off,,,,,128,0,16,,,,,7,,,54,100
12224,note_off,,,,,128,0,13,,,,,5,,,54,100
12224,note_off,,,,,128,0,14,,,,,6,,,42,100
12224,note_off,,,,,0,0,15,,,,,7,,,69,100
12244,note_off,,,,,84,0,9,,,,,1,,,74,100
12244,note_off,,,,,84,0,8,,,,,0,,,74,100
12244,note_off,,,,,84,0,10,,,,,2,,,74,100
12244,note_off,,,,,84,0,11,,,,,3,,,74,100
12288,note_on,,,,,64,0,13,,,,,5,,,55,100
12288,note_on,,,,,44,0,9,,,,,1,,,64,50
12288,note_on,,,,,64,0,15,,,,,7,,,64,100
12288,note_on,,,,,44,0,11,,,,,3,,,64,50
12288,note_on,,,,,0,0,12,,,,,4,,,64,100
12288,note_on,,,,,64,0,12,,,,,4,,,59,100
12288,note_on,,,,,64,0,14,,,,,6,,,43,100
12288,note_on,,,,,44,0,10,,,,,2,,,64,50
12288,note_on,,,,,0,0,15,,,,,7,,,62,100
12288,note_on,,,,,64,0,16,,,,,7,,,55,100
12288,note_on,,,,,44,0,8,,,,,0,,,64,100
12372,note_off,,,,,84,0,8,,,,,0,,,64,100
12372,note_off,,,,,84,0,9,,,,,1,,,64,100
12372,note_off,,,,,84,0,10,,,,,2,,,64,100
12372,note_off,,,,,84,0,11,,,,,3,,,64,100
12416,note_on,,,,,44,0,9,,,,,1,,,74,50
12416,note_off,,,,,0,0,15,,,,,7,,,62,100
12416,note_off,,,,,128,0,15,,,,,7,,,64,100
12416,note_on,,,,,44,0,10,,,,,2,,,74,50
12416,note_off,,,,,128,0,16,,,,,7,,,55,100
12416,note_off,,,,,128,0,13,,,,,5,,,55,100
12416,note_on,,,,,44,0,11,,,,,3,,,74,50
12416,note_off,,,,,0,0,12,,,,,4,,,64,100
12416,note_off,,,,,128,0,12,,,,,4,,,59,100
12416,note_off,,,,,128,0,14,,,,,6,,,43,100
12416,note_on,,,,,44,0,8,,,,,0,,,74,100
12480,note_on,,,,,64,0,16,,,,,7,,,57,100
12480,note_on,,,,,0,0,15,,,,,7,,,61,100
12480,note_on,,,,,64,0,14,,,,,6,,,45,100
12480,note_on,,,,,64,0,13,,,,,5,,,57,100
12480,note_on,,,,,64,0,12,,,,,4,,,57,100
12480,note_on,,,,,64,0,15,,,,,7,,,64,100
12480,note_on,,,,,0,0,12,,,,,4,,,69,100
12500,note_off,,,,,84,0,8,,,,,0,,,74,100
12500,note_off,,,,,84,0,9,,,,,1,,,74,100
12500,note_off,,,,,84,0,11,,,,,3,,,74,100
12500,note_off,,,,,84,0,10,,,,,2,,,74,100
12544,note_on,,,,,44,0,11,,,,,3,,,73,50
12544,note_on,,,,,44,0,8,,,,,0,,,73,100
12544,note_on,,,,,44,0,9,,,,,1,,,73,50
12544,note_on,,,,,44,0,10,,,,,2,,,73,50
12608,note_off,,,,,128,0,13,,,,,5,,,57,100
12608,note_off,,,,,128,0,14,,,,,6,,,45,100
12608,note_off,,,,,0,0,15,,,,,7,,,61,100
12608,note_off,,,,,128,0,15,,,,,7,,,64,100
12608,note_off,,,,,128,0,16,,,,,7,,,57,100
12608,note_off,,,,,0,0,12,,,,,4,,,69,100
12608,note_off,,,,,128,0,12,,,,,4,,,57,100
12628,note_off,,,,,84,0,10,,,,,2,,,73,100
12628,note_off,,,,,84,0,11,,,,,3,,,73,100
12628,note_off,,,,,84,0,9,,,,,1,,,73,100
12628,note_off,,,,,84,0,8,,,,,0,,,73,100
12668,program_change,,,,,40,0,8,,,,,0,40,,,
12672,note_on,,,,,64,0,12,,,,,4,,,57,100
12672,note_on,,,,,64,0,13,,,,,5,,,50,100
12672,note_on,,,,,0,0,12,,,,,4,,,66,100
12672,note_on,,,,,64,0,14,,,,,6,,,38,100
12672,note_on,,,,,44,0,10,,,,,2,,,74,50
12672,note_on,,,,,64,0,16,,,,,7,,,50,100
12672,note_on,,,,,44,0,11,,,,,3,,,74,50
12672,note_on,,,,,4,0,8,,,,,0,,,74,100
12672,note_on,,,,,64,0,15,,,,,7,,,69,100
12672,note_on,,,,,44,0,9,,,,,1,,,74,100
12672,note_on,,,,,0,0,15,,,,,7,,,66,100
12672,note_on,,,,,0,0,15,,,,,7,,,62,100
12756,note_off,,,,,84,0,8,,,,,0,,,74,100
12800,note_on,,,,,44,0,8,,,,,0,,,81,85
12884,note_off,,,,,84,0,8,,,,,0,,,81,100
12928,note_off,,,,,256,0,12,,,,,4,,,57,100
12928,note_off,,,,,256,0,11,,,,,3,,,74,100
12928,note_off,,,,,0,0,12,,,,,4,,,66,100
12928,note_off,,,,,256,0,10,,,,,2,,,74,100
12928,note_on,,,,,44,0,8,,,,,0,,,79,85
12928,note_off,,,,,256,0,9,,,,,1,,,74,100
13012,note_off,,,,,84,0,8,,,,,0,,,79,100
13056,note_on,,,,,44,0,8,,,,,0,,,78,85
13180,note_off,,,,,124,0,8,,,,,0,,,78,100
13184,note_off,,,,,512,0,16,,,,,7,,,50,100
13184,note_off,,,,,0,0,15,,,,,7,,,62,100
13184,note_off,,,,,512,0,14,,,,,6,,,38,100
13184,note_off,,,,,512,0,13,,,,,5,,,50,100
13184,note_off,,,,,0,0,15,,,,,7,,,66,100
13184,note_off,,,,,512,0,15,,,,,7,,,69,100
13184,note_on,,,,,4,0,8,,,,,0,,,76,85
13268,note_off,,,,,84,0,8,,,,,0,,,76,100
13312,note_on,,,,,44,0,8,,,,,0,,,74,85
13396,note_off,,,,,84,0,8,,,,,0,,,74,100
13440,note_on,,,,,44,0,8,,,,,0,,,83,85
13440,note_on,,,,,256,0,16,,,,,7,,,55,100
13440,note_on,,,,,256,0,13,,,,,5,,,55,85
13440,note_on,,,,,256,0,15,,,,,7,,,74,100
13440,note_on,,,,,0,0,15,,,,,7,,,71,100
13440,note_on,,,,,256,0,14,,,,,6,,,43,85
13564,note_off,,,,,124,0,8,,,,,0,,,83,100
13568,note_on,,,,,4,0,8,,,,,0,,,81,85
13652,note_off,,,,,84,0,8,,,,,0,,,81,100
13696,note_off,,,,,256,0,16,,,,,7,,,55,100
13696,note_off,,,,,256,0,13,,,,,5,,,55,100
13696,note_off,,,,,256,0,15,,,,,7,,,74,100
13696,note_on,,,,,44,0,8,,,,,0,,,79,85
13696,note_off,,,,,256,0,14,,,,,6,,,43,100
13696,note_off,,,,,0,0,15,,,,,7,,,71,100
13780,note_off,,,,,84,0,8,,,,,0,,,79,100
13824,note_on,,,,,44,0,8,,,,,0,,,81,85
13824,note_on,,,,,128,0,15,,,,,7,,,74,100
13824,note_on,,,,,128,0,13,,,,,5,,,54,85
13824,note_on,,,,,128,0,14,,,,,6,,,42,85
13824,note_on,,,,,128,0,16,,,,,7,,,54,100
13824,note_on,,,,,0,0,15,,,,,7,,,69,100
13908,note_off,,,,,84,0,8,,,,,0,,,81,100
13952,note_on,,,,,44,0,8,,,,,0,,,78,85
14036,note_off,,,,,84,0,8,,,,,0,,,78,100
14080,note_on,,,,,44,0,8,,,,,0,,,76,85
14164,note_off,,,,,84,0,8,,,,,0,,,76,100
14208,note_on,,,,,44,0,8,,,,,0,,,74,85
14292,note_off,,,,,84,0,8,,,,,0,,,74,100
14336,note_off,,,,,0,0,15,,,,,7,,,69,100
14336,note_off,,,,,512,0,16,,,,,7,,,54,100
14336,note_off,,,,,512,0,15,,,,,7,,,74,100
14336,note_on,,,,,44,0,8,,,,,0,,,81,85
14336,note_off,,,,,512,0,14,,,,,6,,,42,100
14336,note_off,,,,,512,0,13,,,,,5,,,54,100
14420,note_off,,,,,84,0,8,,,,,0,,,81,100
14464,note_on,,,,,44,0,8,,,,,0,,,79,85
14548,note_off,,,,,84,0,8,,,,,0,,,79,100
14592,note_on,,,,,256,0,16,,,,,7,,,50,100
14592,note_on,,,,,44,0,8,,,,,0,,,78,85
14592,note_on,,,,,256,0,13,,,,,5,,,50,85
14592,note_on,,,,,256,0,14,,,,,6,,,38,85
14592,note_on,,,,,0,0,15,,,,,7,,,66,100
14592,note_on,,,,,256,0,15,,,,,7,,,69,100
14716,note_off,,,,,124,0,8,,,,,0,,,78,100
14720,note_on,,,,,4,0,8,,,,,0,,,79,85
14804,note_off,,,,,84,0,8,,,,,0,,,79,100
14848,note_on,,,,,44,0,8,,,,,0,,,81,85
14848,note_off,,,,,256,0,15,,,,,7,,,69,100
14848,note_off,,,,,256,0,14,,,,,6,,,38,100
14848,note_off,,,,,256,0,13,,,,,5,,,50,100
14848,note_off,,,,,256,0,16,,,,,7,,,50,100
14848,note_off,,,,,0,0,15,,,,,7,,,66,100
14932,note_off,,,,,84,0,8,,,,,0,,,81,100
14976,note_on,,,,,128,0,15,,,,,7,,,71,100
14976,note_on,,,,,128,0,13,,,,,5,,,52,85
14976,note_on,,,,,128,0,16,,,,,7,,,52,100
14976,note_on,,,,,128,0,14,,,,,6,,,40,85
14976,note_on,,,,,0,0,15,,,,,7,,,74,100
14976,note_on,,,,,44,0,8,,,,,0,,,79,85
15060,note_off,,,,,84,0,8,,,,,0,,,79,100
15104,note_on,,,,,44,0,8,,,,,0,,,76,85
15188,note_off,,,,,84,0,8,,,,,0,,,76,100
15232,note_on,,,,,44,0,8,,,,,0,,,74,85
15232,note_off,,,,,256,0,15,,,,,7,,,71,100
15232,note_off,,,,,256,0,14,,,,,6,,,40,100
15232,note_off,,,,,256,0,16,,,,,7,,,52,100
15232,note_off,,,,,0,0,15,,,,,7,,,74,100
15232,note_off,,,,,256,0,13,,,,,5,,,52,100
15316,note_off,,,,,84,0,8,,,,,0,,,74,100
15360,note_on,,,,,128,0,16,,,,,7,,,45,100
15360,note_on,,,,,0,0,15,,,,,7,,,64,100
15360,note_on,,,,,128,0,14,,,,,6,,,33,85
15360,note_on,,,,,128,0,15,,,,,7,,,67,100
15360,note_on,,,,,44,0,8,,,,,0,,,73,85
15360,note_on,,,,,128,0,13,,,,,5,,,45,85
15444,note_off,,,,,84,0,8,,,,,0,,,73,100
15488,note_on,,,,,44,0,8,,,,,0,,,81,85
15572,note_off,,,,,84,0,8,,,,,0,,,81,100
15616,note_off,,,,,256,0,16,,,,,7,,,45,100
15616,note_off,,,,,0,0,15,,,,,7,,,64,100
15616,note_off,,,,,256,0,15,,,,,7,,,67,100
15616,note_on,,,,,44,0,8,,,,,0,,,79,85
15616,note_off,,,,,256,0,14,,,,,6,,,33,100
15616,note_off,,,,,256,0,13,,,,,5,,,45,100
15700,note_off,,,,,84,0,8,,,,,0,,,79,100
15744,note_on,,,,,128,0,16,,,,,7,,,49,100
15744,note_on,,,,,128,0,14,,,,,6,,,37,85
15744,note_on,,,,,128,0,13,,,,,5,,,49,85
15744,note_on,,,,,0,0,15,,,,,7,,,67,100
15744,note_on,,,,,128,0,15,,,,,7,,,69,100
15744,note_on,,,,,44,0,8,,,,,0,,,81,85
15828,note_off,,,,,84,0,8,,,,,0,,,81,100
15872,note_on,,,,,44,0,8,,,,,0,,,76,85
15956,note_off,,,,,84,0,8,,,,,0,,,76,100
16000,note_off,,,,,0,0,15,,,,,7,,,67,100
16000,note_off,,,,,256,0,13,,,,,5,,,49,100
16000,note_off,,,,,256,0,16,,,,,7,,,49,100
16000,note_on,,,,,44,0,8,,,,,0,,,79,85
16000,note_off,,,,,256,0,15,,,,,7,,,69,100
16000,note_off,,,,,256,0,14,,,,,6,,,37,100
16084,note_off,,,,,84,0,8,,,,,0,,,79,100
16124,program_change,,,,,3196,0,10,,,,,2,40,,,
16124,program_change,,,,,3196,0,9,,,,,1,40,,,
16124,program_change,,,,,3196,0,11,,,,,3,40,,,
16128,note_on,,,,,128,0,13,,,,,5,,,50,85
16128,note_on,,,,,4,0,10,,,,,2,,,78,85
16128,note_on,,,,,128,0,14,,,,,6,,,38,85
16128,note_on,,,,,128,0,15,,,,,7,,,66,100
16128,note_on,,,,,44,0,8,,,,,0,,,78,85
16128,note_on,,,,,0,0,15,,,,,7,,,69,100
16128,note_on,,,,,128,0,16,,,,,7,,,50,100
16128,note_on,,,,,4,0,9,,,,,1,,,81,85
16252,note_off,,,,,124,0,10,,,,,2,,,78,100
16252,note_off,,,,,124,0,9,,,,,1,,,81,100
16256,note_on,,,,,4,0,9,,,,,1,,,79,85
16256,note_on,,,,,4,0,10,,,,,2,,,76,85
16380,note_off,,,,,124,0,9,,,,,1,,,79,100
16380,note_off,,,,,124,0,10,,,,,2,,,76,100
16384,note_off,,,,,256,0,13,,,,,5,,,50,100
16384,note_off,,,,,256,0,14,,,,,6,,,38,100
16384,note_on,,,,,4,0,10,,,,,2,,,78,85
16384,note_on,,,,,4,0,9,,,,,1,,,81,85
16384,note_off,,,,,256,0,16,,,,,7,,,50,100
16384,note_off,,,,,256,0,8,,,,,0,,,78,100
16384,note_off,,,,,0,0,15,,,,,7,,,69,100
16384,note_off,,,,,256,0,15,,,,,7,,,66,100
16468,note_off,,,,,84,0,10,,,,,2,,,78,100
16468,note_off,,,,,84,0,9,,,,,1,,,81,100
16512,note_on,,,,,44,0,9,,,,,1,,,81,85
16512,note_on,,,,,44,0,10,,,,,2,,,78,85
16512,note_on,,,,,0,0,15,,,,,7,,,74,100
16512,note_on,,,,,128,0,15,,,,,7,,,66,100
16512,note_on,,,,,128,0,13,,,,,5,,,62,85
16512,note_on,,,,,128,0,14,,,,,6,,,50,85
16512,note_on,,,,,128,0,16,,,,,7,,,62,100
16636,note_off,,,,,124,0,10,,,,,2,,,78,100
16636,note_off,,,,,124,0,9,,,,,1,,,81,100
16640,note_on,,,,,4,0,10,,,,,2,,,76,85
16640,note_on,,,,,4,0,9,,,,,1,,,79,85
16764,note_off,,,,,124,0,10,,,,,2,,,76,100
16764,note_off,,,,,124,0,9,,,,,1,,,79,100
16768,note_off,,,,,256,0,15,,,,,7,,,66,100
16768,note_off,,,,,256,0,13,,,,,5,,,62,100
16768,note_off,,,,,256,0,14,,,,,6,,,50,100
16768,note_on,,,,,4,0,10,,,,,2,,,78,85
16768,note_off,,,,,256,0,16,,,,,7,,,62,100
16768,note_off,,,,,0,0,15,,,,,7,,,74,100
16768,note_on,,,,,4,0,9,,,,,1,,,81,85
16852,note_off,,,,,84,0,10,,,,,2,,,78,100
16852,note_off,,,,,84,0,9,,,,,1,,,81,100
16896,note_on,,,,,128,0,14,,,,,6,,,38,85
16896,note_on,,,,,44,0,10,,,,,2,,,78,85
16896,note_on,,,,,128,0,15,,,,,7,,,66,100
16896,note_on,,,,,44,0,9,,,,,1,,,81,85
16896,note_on,,,,,128,0,16,,,,,7,,,50,100
16896,note_on,,,,,0,0,15,,,,,7,,,69,100
16896,note_on,,,,,128,0,13,,,,,5,,,50,85
17020,note_off,,,,,124,0,10,,,,,2,,,78,100
17020,note_off,,,,,124,0,9,,,,,1,,,81,100
17024,note_on,,,,,4,0,10,,,,,2,,,79,85
17024,note_on,,,,,4,0,9,,,,,1,,,83,85
17148,note_off,,,,,124,0,9,,,,,1,,,83,100
17148,note_off,,,,,124,0,10,,,,,2,,,79,100
17152,note_on,,,,,4,0,10,,,,,2,,,78,85
17152,note_off,,,,,256,0,16,,,,,7,,,50,100
17152,note_off,,,,,256,0,14,,,,,6,,,38,100
17152,note_on,,,,,4,0,9,,,,,1,,,81,85
17152,note_off,,,,,256,0,15,,,,,7,,,66,100
17152,note_off,,,,,0,0,15,,,,,7,,,69,100
17152,note_off,,,,,256,0,13,,,,,5,,,50,100
17236,note_off,,,,,84,0,10,,,,,2,,,78,100
17236,note_off,,,,,84,0,9,,,,,1,,,81,100
17280,note_on,,,,,128,0,13,,,,,5,,,52,85
17280,note_on,,,,,128,0,16,,,,,7,,,52,100
17280,note_on,,,,,44,0,10,,,,,2,,,76,85
17280,note_on,,,,,44,0,9,,,,,1,,,79,85
17280,note_on,,,,,128,0,15,,,,,7,,,62,100
17280,note_on,,,,,128,0,14,,,,,6,,,40,85
17280,note_on,,,,,0,0,15,,,,,7,,,71,100
17404,note_off,,,,,124,0,10,,,,,2,,,76,100
17404,note_off,,,,,124,0,9,,,,,1,,,79,100
17408,note_on,,,,,4,0,10,,,,,2,,,74,85
17408,note_on,,,,,4,0,9,,,,,1,,,78,85
17532,note_off,,,,,124,0,10,,,,,2,,,74,100
17532,note_off,,,,,124,0,9,,,,,1,,,78,100
17536,note_on,,,,,4,0,9,,,,,1,,,79,85
17536,note_off,,,,,256,0,13,,,,,5,,,52,100
17536,note_off,,,,,0,0,15,,,,,7,,,71,100
17536,note_off,,,,,256,0,16,,,,,7,,,52,100
17536,note_on,,,,,4,0,10,,,,,2,,,76,85
17536,note_off,,,,,256,0,14,,,,,6,,,40,100
17536,note_off,,,,,256,0,15,,,,,7,,,62,100
17620,note_off,,,,,84,0,9,,,,,1,,,79,100
17620,note_off,,,,,84,0,10,,,,,2,,,76,100
17664,note_on,,,,,128,0,16,,,,,7,,,49,100
17664,note_on,,,,,128,0,13,,,,,5,,,49,85
17664,note_on,,,,,44,0,10,,,,,2,,,76,85
17664,note_on,,,,,128,0,15,,,,,7,,,64,100
17664,note_on,,,,,128,0,14,,,,,6,,,37,85
17664,note_on,,,,,44,0,9,,,,,1,,,79,85
17664,note_on,,,,,0,0,15,,,,,7,,,67,100
17788,note_off,,,,,124,0,9,,,,,1,,,79,100
17788,note_off,,,,,124,0,10,,,,,2,,,76,100
17792,note_on,,,,,4,0,10,,,,,2,,,74,85
17792,note_on,,,,,4,0,9,,,,,1,,,78,85
17916,note_off,,,,,124,0,9,,,,,1,,,78,100
17916,note_off,,,,,124,0,10,,,,,2,,,74,100
17920,note_off,,,,,256,0,14,,,,,6,,,37,100
17920,note_off,,,,,256,0,16,,,,,7,,,49,100
17920,note_on,,,,,4,0,9,,,,,1,,,79,85
17920,note_on,,,,,4,0,10,,,,,2,,,76,85
17920,note_off,,,,,256,0,13,,,,,5,,,49,100
17920,note_off,,,,,256,0,15,,,,,7,,,64,100
17920,note_off,,,,,0,0,15,,,,,7,,,67,100
18004,note_off,,,,,84,0,10,,,,,2,,,76,100
18004,note_off,,,,,84,0,9,,,,,1,,,79,100
18048,note_on,,,,,44,0,9,,,,,1,,,79,85
18048,note_on,,,,,128,0,14,,,,,6,,,33,85
18048,note_on,,,,,128,0,13,,,,,5,,,45,85
18048,note_on,,,,,0,0,15,,,,,7,,,64,100
18048,note_on,,,,,128,0,15,,,,,7,,,67,100
18048,note_on,,,,,44,0,10,,,,,2,,,76,85
18048,note_on,,,,,128,0,16,,,,,7,,,45,100
18172,note_off,,,,,124,0,9,,,,,1,,,79,100
18172,note_off,,,,,124,0,10,,,,,2,,,76,100
18176,note_on,,,,,4,0,10,,,,,2,,,78,85
18176,note_on,,,,,4,0,9,,,,,1,,,81,85
18300,note_off,,,,,124,0,10,,,,,2,,,78,100
18300,note_off,,,,,124,0,9,,,,,1,,,81,100
18304,note_off,,,,,256,0,16,,,,,7,,,45,100
18304,note_off,,,,,256,0,14,,,,,6,,,33,100
18304,note_off,,,,,0,0,15,,,,,7,,,64,100
18304,note_off,,,,,256,0,15,,,,,7,,,67,100
18304,note_on,,,,,4,0,9,,,,,1,,,79,85
18304,note_on,,,,,4,0,10,,,,,2,,,76,85
18304,note_off,,,,,256,0,13,,,,,5,,,45,100
18388,note_off,,,,,84,0,9,,,,,1,,,79,100
18388,note_off,,,,,84,0,10,,,,,2,,,76,100
18432,note_on,,,,,128,0,13,,,,,5,,,50,85
18432,note_on,,,,,128,0,15,,,,,7,,,66,100
18432,note_on,,,,,128,0,14,,,,,6,,,38,85
18432,note_on,,,,,0,0,15,,,,,7,,,69,100
18432,note_on,,,,,44,0,9,,,,,1,,,78,85
18432,note_on,,,,,44,0,10,,,,,2,,,74,85
18432,note_on,,,,,128,0,16,,,,,7,,,50,100
18556,note_off,,,,,124,0,10,,,,,2,,,74,100
18556,note_off,,,,,124,0,9,,,,,1,,,78,100
18560,note_on,,,,,4,0,9,,,,,1,,,76,85
18560,note_on,,,,,4,0,10,,,,,2,,,73,85
18684,note_off,,,,,124,0,9,,,,,1,,,76,100
18684,note_off,,,,,124,0,10,,,,,2,,,73,100
18688,note_on,,,,,4,0,9,,,,,1,,,78,85
18688,note_on,,,,,4,0,10,,,,,2,,,74,85
18688,note_off,,,,,256,0,16,,,,,7,,,50,100
18688,note_off,,,,,0,0,15,,,,,7,,,69,100
18688,note_off,,,,,256,0,13,,,,,5,,,50,100
18688,note_off,,,,,256,0,15,,,,,7,,,66,100
18688,note_off,,,,,256,0,14,,,,,6,,,38,100
18772,note_off,,,,,84,0,10,,,,,2,,,74,100
18772,note_off,,,,,84,0,9,,,,,1,,,78,100
18816,note_on,,,,,128,0,14,,,,,6,,,50,85
18816,note_on,,,,,44,0,9,,,,,1,,,78,85
18816,note_on,,,,,44,0,10,,,,,2,,,74,85
18816,note_on,,,,,128,0,13,,,,,5,,,62,85
18816,note_on,,,,,128,0,15,,,,,7,,,66,100
18816,note_on,,,,,0,0,15,,,,,7,,,74,100
18816,note_on,,,,,128,0,16,,,,,7,,,62,100
18940,note_off,,,,,124,0,10,,,,,2,,,74,100
18940,note_off,,,,,124,0,9,,,,,1,,,78,100
18944,note_on,,,,,4,0,10,,,,,2,,,73,85
18944,note_on,,,,,4,0,9,,,,,1,,,76,85
19068,note_off,,,,,124,0,10,,,,,2,,,73,100
19068,note_off,,,,,124,0,9,,,,,1,,,76,100
19072,note_off,,,,,256,0,14,,,,,6,,,50,100
19072,note_off,,,,,256,0,15,,,,,7,,,66,100
19072,note_off,,,,,0,0,15,,,,,7,,,74,100
19072,note_on,,,,,4,0,10,,,,,2,,,74,85
19072,note_off,,,,,256,0,13,,,,,5,,,62,100
19072,note_off,,,,,256,0,16,,,,,7,,,62,100
19072,note_on,,,,,4,0,9,,,,,1,,,78,85
19156,note_off,,,,,84,0,9,,,,,1,,,78,100
19156,note_off,,,,,84,0,10,,,,,2,,,74,100
19200,note_on,,,,,0,0,15,,,,,7,,,69,100
19200,note_on,,,,,44,0,10,,,,,2,,,74,85
19200,note_on,,,,,128,0,13,,,,,5,,,50,85
19200,note_on,,,,,128,0,14,,,,,6,,,38,85
19200,note_on,,,,,128,0,15,,,,,7,,,66,100
19200,note_on,,,,,128,0,16,,,,,7,,,50,100
19200,note_on,,,,,44,0,9,,,,,1,,,78,85
19324,note_off,,,,,124,0,9,,,,,1,,,78,100
19324,note_off,,,,,124,0,10,,,,,2,,,74,100
19328,note_on,,,,,4,0,9,,,,,1,,,79,85
19328,note_on,,,,,4,0,10,,,,,2,,,76,85
19452,note_off,,,,,124,0,9,,,,,1,,,79,100
19452,note_off,,,,,124,0,10,,,,,2,,,76,100
19456,note_on,,,,,4,0,9,,,,,1,,,78,85
19456,note_off,,,,,256,0,13,,,,,5,,,50,100
19456,note_off,,,,,0,0,15,,,,,7,,,69,100
19456,note_off,,,,,256,0,14,,,,,6,,,38,100
19456,note_off,,,,,256,0,15,,,,,7,,,66,100
19456,note_on,,,,,4,0,10,,,,,2,,,74,85
19456,note_off,,,,,256,0,16,,,,,7,,,50,100
19540,note_off,,,,,84,0,10,,,,,2,,,74,100
19540,note_off,,,,,84,0,9,,,,,1,,,78,100
19584,note_on,,,,,44,0,9,,,,,1,,,76,85
19584,note_on,,,,,128,0,14,,,,,6,,,45,85
19584,note_on,,,,,128,0,13,,,,,5,,,57,85
19584,note_on,,,,,128,0,16,,,,,7,,,57,100
19584,note_on,,,,,128,0,15,,,,,7,,,64,100
19584,note_on,,,,,0,0,15,,,,,7,,,73,100
19584,note_on,,,,,44,0,10,,,,,2,,,73,85
19708,note_off,,,,,124,0,9,,,,,1,,,76,100
19708,note_off,,,,,124,0,10,,,,,2,,,73,100
19712,note_on,,,,,4,0,9,,,,,1,,,74,85
19712,note_on,,,,,4,0,10,,,,,2,,,71,85
19836,note_off,,,,,124,0,9,,,,,1,,,74,100
19836,note_off,,,,,124,0,10,,,,,2,,,71,100
19840,note_off,,,,,256,0,14,,,,,6,,,45,100
19840,note_on,,,,,4,0,10,,,,,2,,,73,85
19840,note_off,,,,,256,0,15,,,,,7,,,64,100
19840,note_off,,,,,256,0,13,,,,,5,,,57,100
19840,note_off,,,,,256,0,16,,,,,7,,,57,100
19840,note_off,,,,,0,0,15,,,,,7,,,73,100
19840,note_on,,,,,4,0,9,,,,,1,,,76,85
19924,note_off,,,,,84,0,10,,,,,2,,,73,100
19924,note_off,,,,,84,0,9,,,,,1,,,76,100
19968,note_on,,,,,44,0,9,,,,,1,,,76,85
19968,note_on,,,,,128,0,16,,,,,7,,,45,100
19968,note_on,,,,,128,0,13,,,,,5,,,45,85
19968,note_on,,,,,44,0,10,,,,,2,,,73,85
19968,note_on,,,,,0,0,15,,,,,7,,,64,100
19968,note_on,,,,,128,0,14,,,,,6,,,33,85
19968,note_on,,,,,128,0,15,,,,,7,,,61,100
20092,note_off,,,,,124,0,9,,,,,1,,,76,100
20092,note_off,,,,,124,0,10,,,,,2,,,73,100
20096,note_on,,,,,4,0,10,,,,,2,,,71,85
20096,note_on,,,,,4,0,9,,,,,1,,,74,85
20220,note_off,,,,,124,0,10,,,,,2,,,71,100
20220,note_off,,,,,124,0,9,,,,,1,,,74,100
20224,note_off,,,,,256,0,14,,,,,6,,,33,100
20224,note_off,,,,,256,0,15,,,,,7,,,61,100
20224,note_off,,,,,0,0,15,,,,,7,,,64,100
20224,note_off,,,,,256,0,16,,,,,7,,,45,100
20224,note_off,,,,,256,0,13,,,,,5,,,45,100
20224,note_on,,,,,4,0,10,,,,,2,,,73,85
20224,note_on,,,,,4,0,9,,,,,1,,,76,85
20308,note_off,,,,,84,0,10,,,,,2,,,73,100
20308,note_off,,,,,84,0,9,,,,,1,,,76,100
20352,note_on,,,,,128,0,14,,,,,6,,,45,85
20352,note_on,,,,,44,0,10,,,,,2,,,73,85
20352,note_on,,,,,128,0,16,,,,,7,,,57,100
20352,note_on,,,,,0,0,15,,,,,7,,,73,100
20352,note_on,,,,,128,0,15,,,,,7,,,64,100
20352,note_on,,,,,44,0,9,,,,,1,,,76,85
20352,note_on,,,,,128,0,13,,,,,5,,,57,85
20476,note_off,,,,,124,0,10,,,,,2,,,73,100
20476,note_off,,,,,124,0,9,,,,,1,,,76,100
20480,note_on,,,,,4,0,9,,,,,1,,,78,85
20480,note_on,,,,,4,0,10,,,,,2,,,74,85
20604,note_off,,,,,124,0,10,,,,,2,,,74,100
20604,note_off,,,,,124,0,9,,,,,1,,,78,100
20608,note_off,,,,,256,0,15,,,,,7,,,64,100
20608,note_off,,,,,0,0,15,,,,,7,,,73,100
20608,note_on,,,,,4,0,9,,,,,1,,,76,85
20608,note_off,,,,,256,0,16,,,,,7,,,57,100
20608,note_on,,,,,4,0,10,,,,,2,,,73,85
20608,note_off,,,,,256,0,14,,,,,6,,,45,100
20608,note_off,,,,,256,0,13,,,,,5,,,57,100
20692,note_off,,,,,84,0,10,,,,,2,,,73,100
20692,note_off,,,,,84,0,9,,,,,1,,,76,100
20736,note_on,,,,,44,0,9,,,,,1,,,74,85
20736,note_on,,,,,128,0,15,,,,,7,,,74,100
20736,note_on,,,,,44,0,10,,,,,2,,,71,85
20736,note_on,,,,,0,0,15,,,,,7,,,66,100
20736,note_on,,,,,128,0,13,,,,,5,,,59,85
20736,note_on,,,,,128,0,16,,,,,7,,,59,100
20736,note_on,,,,,128,0,14,,,,,6,,,47,85
20860,note_off,,,,,124,0,10,,,,,2,,,71,100
20860,note_off,,,,,124,0,9,,,,,1,,,74,100
20864,note_on,,,,,4,0,10,,,,,2,,,69,85
20864,note_on,,,,,4,0,9,,,,,1,,,73,85
20988,note_off,,,,,124,0,10,,,,,2,,,69,100
20988,note_off,,,,,124,0,9,,,,,1,,,73,100
20992,note_off,,,,,256,0,15,,,,,7,,,74,100
20992,note_on,,,,,4,0,9,,,,,1,,,74,85
20992,note_off,,,,,256,0,16,,,,,7,,,59,100
20992,note_off,,,,,0,0,15,,,,,7,,,66,100
20992,note_off,,,,,256,0,13,,,,,5,,,59,100
20992,note_off,,,,,256,0,14,,,,,6,,,47,100
20992,note_on,,,,,4,0,10,,,,,2,,,71,85
21076,note_off,,,,,84,0,9,,,,,1,,,74,100
21076,note_off,,,,,84,0,10,,,,,2,,,71,100
21120,note_on,,,,,44,0,9,,,,,1,,,74,85
21120,note_on,,,,,128,0,16,,,,,7,,,56,100
21120,note_on,,,,,128,0,14,,,,,6,,,44,85
21120,note_on,,,,,128,0,13,,,,,5,,,56,85
21120,note_on,,,,,44,0,10,,,,,2,,,71,85
21120,note_on,,,,,0,0,15,,,,,7,,,74,100
21120,note_on,,,,,128,0,15,,,,,7,,,71,100
21244,note_off,,,,,124,0,9,,,,,1,,,74,100
21244,note_off,,,,,124,0,10,,,,,2,,,71,100
21248,note_on,,,,,4,0,9,,,,,1,,,73,85
21248,note_on,,,,,4,0,10,,,,,2,,,69,85
21372,note_off,,,,,124,0,10,,,,,2,,,69,100
21372,note_off,,,,,124,0,9,,,,,1,,,73,100
21376,note_off,,,,,256,0,14,,,,,6,,,44,100
21376,note_off,,,,,0,0,15,,,,,7,,,74,100
21376,note_off,,,,,256,0,16,,,,,7,,,56,100
21376,note_on,,,,,4,0,9,,,,,1,,,74,85
21376,note_off,,,,,256,0,15,,,,,7,,,71,100
21376,note_on,,,,,4,0,10,,,,,2,,,71,85
21376,note_off,,,,,256,0,13,,,,,5,,,56,100
21460,note_off,,,,,84,0,10,,,,,2,,,71,100
21460,note_off,,,,,84,0,9,,,,,1,,,74,100
21504,note_on,,,,,128,0,14,,,,,6,,,40,85
21504,note_on,,,,,128,0,16,,,,,7,,,52,100
21504,note_on,,,,,44,0,10,,,,,2,,,71,85
21504,note_on,,,,,0,0,15,,,,,7,,,68,100
21504,note_on,,,,,44,0,9,,,,,1,,,74,85
21504,note_on,,,,,128,0,15,,,,,7,,,66,100
21504,note_on,,,,,128,0,13,,,,,5,,,52,85
21628,note_off,,,,,124,0,9,,,,,1,,,74,100
21628,note_off,,,,,124,0,10,,,,,2,,,71,100
21632,note_on,,,,,4,0,9,,,,,1,,,76,85
21632,note_on,,,,,4,0,10,,,,,2,,,73,85
21756,note_off,,,,,124,0,10,,,,,2,,,73,100
21756,note_off,,,,,124,0,9,,,,,1,,,76,100
21760,note_off,,,,,0,0,15,,,,,7,,,68,100
21760,note_off,,,,,256,0,16,,,,,7,,,52,100
21760,note_off,,,,,256,0,13,,,,,5,,,52,100
21760,note_on,,,,,4,0,9,,,,,1,,,74,85
21760,note_off,,,,,256,0,15,,,,,7,,,66,100
21760,note_off,,,,,256,0,14,,,,,6,,,40,100
21760,note_on,,,,,4,0,10,,,,,2,,,71,85
21844,note_off,,,,,84,0,10,,,,,2,,,71,100
21844,note_off,,,,,84,0,9,,,,,1,,,74,100
21888,note_on,,,,,128,0,15,,,,,7,,,61,100
21888,note_on,,,,,128,0,16,,,,,7,,,45,100
21888,note_on,,,,,128,0,14,,,,,6,,,33,85
21888,note_on,,,,,8960,0,12,,,,,4,,,64,85
21888,note_on,,,,,128,0,13,,,,,5,,,45,85
21888,note_on,,,,,44,0,9,,,,,1,,,73,85
21888,note_on,,,,,0,0,15,,,,,7,,,69,100
21888,note_on,,,,,44,0,10,,,,,2,,,69,85
21888,note_on,,,,,0,0,12,,,,,4,,,61,85
21972,note_off,,,,,84,0,9,,,,,1,,,73,100
21972,program_change,,,,,0,0,9,,,,,1,48,,,
21972,program_change,,,,,0,0,10,,,,,2,48,,,
21972,program_change,,,,,5588,0,8,,,,,0,48,,,
21972,program_change,,,,,5848,0,11,,,,,3,48,,,
21972,note_off,,,,,84,0,10,,,,,2,,,69,100
22016,note_on,,,,,44,0,9,,,,,1,,,76,35
22016,note_on,,,,,44,0,8,,,,,0,,,76,85
22016,note_on,,,,,44,0,10,,,,,2,,,76,35
22016,note_on,,,,,44,0,11,,,,,3,,,76,35
22100,note_off,,,,,84,0,8,,,,,0,,,76,100
22100,note_off,,,,,84,0,11,,,,,3,,,76,100
22100,note_off,,,,,84,0,9,,,,,1,,,76,100
22100,note_off,,,,,84,0,10,,,,,2,,,76,100
22144,note_off,,,,,0,0,15,,,,,7,,,69,100
22144,note_off,,,,,256,0,14,,,,,6,,,33,100
22144,note_off,,,,,256,0,15,,,,,7,,,61,100
22144,note_on,,,,,44,0,9,,,,,1,,,74,35
22144,note_on,,,,,44,0,11,,,,,3,,,74,35
22144,note_on,,,,,44,0,8,,,,,0,,,74,85
22144,note_off,,,,,256,0,12,,,,,4,,,64,100
22144,note_off,,,,,256,0,16,,,,,7,,,45,100
22144,note_on,,,,,44,0,10,,,,,2,,,74,35
22144,note_off,,,,,256,0,13,,,,,5,,,45,100
22144,note_off,,,,,0,0,12,,,,,4,,,61,100
22228,note_off,,,,,84,0,9,,,,,1,,,74,100
22228,note_off,,,,,84,0,10,,,,,2,,,74,100
22228,note_off,,,,,84,0,8,,,,,0,,,74,100
22228,note_off,,,,,84,0,11,,,,,3,,,74,100
22272,note_on,,,,,44,0,10,,,,,2,,,73,36
22272,note_on,,,,,44,0,9,,,,,1,,,73,36
22272,note_on,,,,,44,0,11,,,,,3,,,73,36
22272,note_on,,,,,44,0,8,,,,,0,,,73,86
22356,note_off,,,,,84,0,10,,,,,2,,,73,100
22356,note_off,,,,,84,0,11,,,,,3,,,73,100
22356,note_off,,,,,84,0,9,,,,,1,,,73,100
22356,note_off,,,,,84,0,8,,,,,0,,,73,100
22400,note_on,,,,,44,0,11,,,,,3,,,74,36
22400,note_on,,,,,44,0,9,,,,,1,,,74,36
22400,note_on,,,,,44,0,8,,,,,0,,,74,86
22400,note_on,,,,,44,0,10,,,,,2,,,74,36
22484,note_off,,,,,84,0,8,,,,,0,,,74,100
22484,note_off,,,,,84,0,10,,,,,2,,,74,100
22484,note_off,,,,,84,0,11,,,,,3,,,74,100
22484,note_off,,,,,84,0,9,,,,,1,,,74,100
22528,note_on,,,,,44,0,10,,,,,2,,,71,37
22528,note_on,,,,,44,0,8,,,,,0,,,71,87
22528,note_on,,,,,44,0,11,,,,,3,,,71,37
22528,note_on,,,,,44,0,9,,,,,1,,,71,37
22612,note_off,,,,,84,0,11,,,,,3,,,71,100
22612,note_off,,,,,84,0,10,,,,,2,,,71,100
22612,note_off,,,,,84,0,9,,,,,1,,,71,100
22612,note_off,,,,,84,0,8,,,,,0,,,71,100
22656,note_on,,,,,44,0,10,,,,,2,,,69,37
22656,note_on,,,,,512,0,13,,,,,5,,,49,87
22656,note_on,,,,,512,0,12,,,,,4,,,64,87
22656,note_on,,,,,0,0,12,,,,,4,,,57,87
22656,note_on,,,,,0,0,15,,,,,7,,,64,100
22656,note_on,,,,,512,0,15,,,,,7,,,67,100
22656,note_on,,,,,44,0,11,,,,,3,,,69,37
22656,note_on,,,,,512,0,14,,,,,6,,,37,87
22656,note_on,,,,,44,0,8,,,,,0,,,69,87
22656,note_on,,,,,512,0,16,,,,,7,,,49,100
22656,note_on,,,,,44,0,9,,,,,1,,,69,37
22740,note_off,,,,,84,0,10,,,,,2,,,69,100
22740,note_off,,,,,84,0,8,,,,,0,,,69,100
22740,note_off,,,,,84,0,11,,,,,3,,,69,100
22740,note_off,,,,,84,0,9,,,,,1,,,69,100
22784,note_on,,,,,44,0,8,,,,,0,,,71,87
22784,note_on,,,,,44,0,9,,,,,1,,,71,37
22784,note_on,,,,,44,0,11,,,,,3,,,71,37
22784,note_on,,,,,44,0,10,,,,,2,,,71,37
22868,note_off,,,,,84,0,10,,,,,2,,,71,100
22868,note_off,,,,,84,0,8,,,,,0,,,71,100
22868,note_off,,,,,84,0,11,,,,,3,,,71,100
22868,note_off,,,,,84,0,9,,,,,1,,,71,100
22912,note_on,,,,,44,0,11,,,,,3,,,68,38
22912,note_off,,,,,256,0,12,,,,,4,,,64,100
22912,note_on,,,,,44,0,8,,,,,0,,,68,88
22912,note_on,,,,,44,0,9,,,,,1,,,68,38
22912,note_off,,,,,0,0,12,,,,,4,,,57,100
22912,note_off,,,,,256,0,16,,,,,7,,,49,100
22912,note_off,,,,,256,0,14,,,,,6,,,37,100
22912,note_off,,,,,256,0,15,,,,,7,,,67,100
22912,note_off,,,,,0,0,15,,,,,7,,,64,100
22912,note_on,,,,,44,0,10,,,,,2,,,68,38
22912,note_off,,,,,256,0,13,,,,,5,,,49,100
22996,note_off,,,,,84,0,11,,,,,3,,,68,100
22996,note_off,,,,,84,0,8,,,,,0,,,68,100
22996,note_off,,,,,84,0,9,,,,,1,,,68,100
22996,note_off,,,,,84,0,10,,,,,2,,,68,100
23040,note_on,,,,,44,0,8,,,,,0,,,66,88
23040,note_on,,,,,128,0,16,,,,,7,,,50,100
23040,note_on,,,,,128,0,14,,,,,6,,,38,88
23040,note_on,,,,,128,0,13,,,,,5,,,50,88
23040,note_on,,,,,44,0,9,,,,,1,,,66,38
23040,note_on,,,,,44,0,11,,,,,3,,,66,38
23040,note_on,,,,,128,0,15,,,,,7,,,69,100
23040,note_on,,,,,0,0,15,,,,,7,,,66,100
23040,note_on,,,,,44,0,10,,,,,2,,,66,38
23040,note_on,,,,,128,0,12,,,,,4,,,57,88
23124,note_off,,,,,84,0,10,,,,,2,,,66,100
23124,note_off,,,,,84,0,9,,,,,1,,,66,100
23124,note_off,,,,,84,0,11,,,,,3,,,66,100
23124,note_off,,,,,84,0,8,,,,,0,,,66,100
23168,note_on,,,,,44,0,10,,,,,2,,,78,39
23168,note_on,,,,,44,0,8,,,,,0,,,78,89
23168,note_on,,,,,44,0,11,,,,,3,,,78,39
23168,note_on,,,,,44,0,9,,,,,1,,,78,39
23252,note_off,,,,,84,0,9,,,,,1,,,78,100
23252,note_off,,,,,84,0,10,,,,,2,,,78,100
23252,note_off,,,,,84,0,8,,,,,0,,,78,100
23252,note_off,,,,,84,0,11,,,,,3,,,78,100
23296,note_off,,,,,256,0,15,,,,,7,,,69,100
23296,note_off,,,,,256,0,16,,,,,7,,,50,100
23296,note_on,,,,,44,0,8,,,,,0,,,76,89
23296,note_off,,,,,256,0,13,,,,,5,,,50,100
23296,note_on,,,,,44,0,11,,,,,3,,,76,39
23296,note_off,,,,,256,0,14,,,,,6,,,38,100
23296,note_on,,,,,44,0,10,,,,,2,,,76,39
23296,note_off,,,,,256,0,12,,,,,4,,,57,100
23296,note_off,,,,,0,0,15,,,,,7,,,66,100
23296,note_on,,,,,44,0,9,,,,,1,,,76,39
23380,note_off,,,,,84,0,8,,,,,0,,,76,100
23380,note_off,,,,,84,0,9,,,,,1,,,76,100
23380,note_off,,,,,84,0,10,,,,,2,,,76,100
23380,note_off,,,,,84,0,11,,,,,3,,,76,100
23424,note_on,,,,,44,0,11,,,,,3,,,74,39
23424,note_on,,,,,44,0,9,,,,,1,,,74,39
23424,note_on,,,,,44,0,10,,,,,2,,,74,39
23424,note_on,,,,,44,0,8,,,,,0,,,74,89
23508,note_off,,,,,84,0,8,,,,,0,,,74,100
23508,note_off,,,,,84,0,11,,,,,3,,,74,100
23508,note_off,,,,,84,0,9,,,,,1,,,74,100
23508,note_off,,,,,84,0,10,,,,,2,,,74,100
23552,note_on,,,,,44,0,10,,,,,2,,,76,40
23552,note_on,,,,,44,0,11,,,,,3,,,76,40
23552,note_on,,,,,44,0,8,,,,,0,,,76,90
23552,note_on,,,,,44,0,9,,,,,1,,,76,40
23636,note_off,,,,,84,0,8,,,,,0,,,76,100
23636,note_off,,,,,84,0,9,,,,,1,,,76,100
23636,note_off,,,,,84,0,10,,,,,2,,,76,100
23636,note_off,,,,,84,0,11,,,,,3,,,76,100
23680,note_on,,,,,44,0,10,,,,,2,,,73,40
23680,note_on,,,,,44,0,9,,,,,1,,,73,40
23680,note_on,,,,,44,0,8,,,,,0,,,73,90
23680,note_on,,,,,44,0,11,,,,,3,,,73,40
23764,note_off,,,,,84,0,10,,,,,2,,,73,100
23764,note_off,,,,,84,0,9,,,,,1,,,73,100
23764,note_off,,,,,84,0,8,,,,,0,,,73,100
23764,note_off,,,,,84,0,11,,,,,3,,,73,100
23808,note_on,,,,,512,0,16,,,,,7,,,51,100
23808,note_on,,,,,512,0,12,,,,,4,,,66,91
23808,note_on,,,,,512,0,13,,,,,5,,,51,91
23808,note_on,,,,,512,0,14,,,,,6,,,39,91
23808,note_on,,,,,0,0,12,,,,,4,,,59,91
23808,note_on,,,,,0,0,15,,,,,7,,,66,100
23808,note_on,,,,,44,0,9,,,,,1,,,71,41
23808,note_on,,,,,44,0,10,,,,,2,,,71,41
23808,note_on,,,,,44,0,8,,,,,0,,,71,91
23808,note_on,,,,,512,0,15,,,,,7,,,71,100
23808,note_on,,,,,44,0,11,,,,,3,,,71,41
23892,note_off,,,,,84,0,11,,,,,3,,,71,100
23892,note_off,,,,,84,0,8,,,,,0,,,71,100
23892,note_off,,,,,84,0,9,,,,,1,,,71,100
23892,note_off,,,,,84,0,10,,,,,2,,,71,100
23936,note_on,,,,,44,0,9,,,,,1,,,73,41
23936,note_on,,,,,44,0,8,,,,,0,,,73,91
23936,note_on,,,,,44,0,10,,,,,2,,,73,41
23936,note_on,,,,,44,0,11,,,,,3,,,73,41
24020,note_off,,,,,84,0,9,,,,,1,,,73,100
24020,note_off,,,,,84,0,8,,,,,0,,,73,100
24020,note_off,,,,,84,0,10,,,,,2,,,73,100
24020,note_off,,,,,84,0,11,,,,,3,,,73,100
24064,note_off,,,,,0,0,15,,,,,7,,,66,100
24064,note_off,,,,,256,0,14,,,,,6,,,39,100
24064,note_off,,,,,256,0,16,,,,,7,,,51,100
24064,note_off,,,,,256,0,13,,,,,5,,,51,100
24064,note_on,,,,,44,0,11,,,,,3,,,69,42
24064,note_on,,,,,44,0,10,,,,,2,,,69,42
24064,note_on,,,,,44,0,8,,,,,0,,,69,92
24064,note_off,,,,,256,0,12,,,,,4,,,66,100
24064,note_on,,,,,44,0,9,,,,,1,,,69,42
24064,note_off,,,,,256,0,15,,,,,7,,,71,100
24064,note_off,,,,,0,0,12,,,,,4,,,59,100
24148,note_off,,,,,84,0,11,,,,,3,,,69,100
24148,note_off,,,,,84,0,8,,,,,0,,,69,100
24148,note_off,,,,,84,0,10,,,,,2,,,69,100
24148,note_off,,,,,84,0,9,,,,,1,,,69,100
24192,note_on,,,,,128,0,12,,,,,4,,,59,92
24192,note_on,,,,,128,0,14,,,,,6,,,40,92
24192,note_on,,,,,128,0,13,,,,,5,,,52,92
24192,note_on,,,,,128,0,15,,,,,7,,,71,100
24192,note_on,,,,,0,0,15,,,,,7,,,68,100
24192,note_on,,,,,44,0,11,,,,,3,,,68,42
24192,note_on,,,,,44,0,8,,,,,0,,,68,92
24192,note_on,,,,,44,0,10,,,,,2,,,68,42
24192,note_on,,,,,128,0,16,,,,,7,,,52,100
24192,note_on,,,,,44,0,9,,,,,1,,,68,42
24276,note_off,,,,,84,0,11,,,,,3,,,68,100
24276,note_off,,,,,84,0,8,,,,,0,,,68,100
24276,note_off,,,,,84,0,10,,,,,2,,,68,100
24276,note_off,,,,,84,0,9,,,,,1,,,68,100
24320,note_on,,,,,44,0,9,,,,,1,,,80,42
24320,note_on,,,,,44,0,10,,,,,2,,,80,42
24320,note_on,,,,,44,0,11,,,,,3,,,80,42
24320,note_on,,,,,44,0,8,,,,,0,,,80,92
24404,note_off,,,,,84,0,11,,,,,3,,,80,100
24404,note_off,,,,,84,0,8,,,,,0,,,80,100
24404,note_off,,,,,84,0,9,,,,,1,,,80,100
24404,note_off,,,,,84,0,10,,,,,2,,,80,100
24448,note_off,,,,,256,0,16,,,,,7,,,52,100
24448,note_off,,,,,256,0,15,,,,,7,,,71,100
24448,note_off,,,,,0,0,15,,,,,7,,,68,100
24448,note_off,,,,,256,0,14,,,,,6,,,40,100
24448,note_on,,,,,44,0,10,,,,,2,,,78,43
24448,note_on,,,,,44,0,9,,,,,1,,,78,43
24448,note_off,,,,,256,0,13,,,,,5,,,52,100
24448,note_off,,,,,256,0,12,,,,,4,,,59,100
24448,note_on,,,,,44,0,11,,,,,3,,,78,43
24448,note_on,,,,,44,0,8,,,,,0,,,78,93
24532,note_off,,,,,84,0,10,,,,,2,,,78,100
24532,note_off,,,,,84,0,11,,,,,3,,,78,100
24532,note_off,,,,,84,0,8,,,,,0,,,78,100
24532,note_off,,,,,84,0,9,,,,,1,,,78,100
24576,note_on,,,,,44,0,8,,,,,0,,,76,93
24576,note_on,,,,,44,0,9,,,,,1,,,76,43
24576,note_on,,,,,44,0,11,,,,,3,,,76,43
24576,note_on,,,,,44,0,10,,,,,2,,,76,43
24660,note_off,,,,,84,0,10,,,,,2,,,76,100
24660,note_off,,,,,84,0,9,,,,,1,,,76,100
24660,note_off,,,,,84,0,11,,,,,3,,,76,100
24660,note_off,,,,,84,0,8,,,,,0,,,76,100
24704,note_on,,,,,44,0,11,,,,,3,,,78,44
24704,note_on,,,,,44,0,9,,,,,1,,,78,44
24704,note_on,,,,,44,0,8,,,,,0,,,78,94
24704,note_on,,,,,44,0,10,,,,,2,,,78,44
24788,note_off,,,,,84,0,11,,,,,3,,,78,100
24788,note_off,,,,,84,0,8,,,,,0,,,78,100
24788,note_off,,,,,84,0,9,,,,,1,,,78,100
24788,note_off,,,,,84,0,10,,,,,2,,,78,100
24832,note_on,,,,,44,0,8,,,,,0,,,74,94
24832,note_on,,,,,44,0,11,,,,,3,,,74,44
24832,note_on,,,,,44,0,10,,,,,2,,,74,44
24832,note_on,,,,,44,0,9,,,,,1,,,74,44
24916,note_off,,,,,84,0,8,,,,,0,,,74,100
24916,note_off,,,,,84,0,10,,,,,2,,,74,100
24916,note_off,,,,,84,0,11,,,,,3,,,74,100
24916,note_off,,,,,84,0,9,,,,,1,,,74,100
24960,note_on,,,,,44,0,11,,,,,3,,,73,44
24960,note_on,,,,,44,0,10,,,,,2,,,73,44
24960,note_on,,,,,512,0,13,,,,,5,,,53,94
24960,note_on,,,,,0,0,12,,,,,4,,,68,94
24960,note_on,,,,,512,0,12,,,,,4,,,61,94
24960,note_on,,,,,44,0,8,,,,,0,,,73,94
24960,note_on,,,,,512,0,16,,,,,7,,,53,100
24960,note_on,,,,,44,0,9,,,,,1,,,73,44
24960,note_on,,,,,512,0,14,,,,,6,,,41,94
24960,note_on,,,,,512,0,15,,,,,7,,,71,100
24960,note_on,,,,,0,0,15,,,,,7,,,73,100
25044,note_off,,,,,84,0,8,,,,,0,,,73,100
25044,note_off,,,,,84,0,9,,,,,1,,,73,100
25044,note_off,,,,,84,0,10,,,,,2,,,73,100
25044,note_off,,,,,84,0,11,,,,,3,,,73,100
25088,note_on,,,,,44,0,8,,,,,0,,,74,95
25088,note_on,,,,,44,0,9,,,,,1,,,74,45
25088,note_on,,,,,44,0,10,,,,,2,,,74,45
25088,note_on,,,,,44,0,11,,,,,3,,,74,45
25172,note_off,,,,,84,0,10,,,,,2,,,74,100
25172,note_off,,,,,84,0,8,,,,,0,,,74,100
25172,note_off,,,,,84,0,9,,,,,1,,,74,100
25172,note_off,,,,,84,0,11,,,,,3,,,74,100
25216,note_on,,,,,44,0,10,,,,,2,,,71,45
25216,note_on,,,,,44,0,11,,,,,3,,,71,45
25216,note_off,,,,,256,0,15,,,,,7,,,71,100
25216,note_off,,,,,0,0,15,,,,,7,,,73,100
25216,note_off,,,,,0,0,12,,,,,4,,,68,100
25216,note_off,,,,,256,0,12,,,,,4,,,61,100
25216,note_on,,,,,44,0,9,,,,,1,,,71,45
25216,note_off,,,,,256,0,14,,,,,6,,,41,100
25216,note_on,,,,,44,0,8,,,,,0,,,71,95
25216,note_off,,,,,256,0,16,,,,,7,,,53,100
25216,note_off,,,,,256,0,13,,,,,5,,,53,100
25300,note_off,,,,,84,0,9,,,,,1,,,71,100
25300,note_off,,,,,84,0,11,,,,,3,,,71,100
25300,note_off,,,,,84,0,10,,,,,2,,,71,100
25300,note_off,,,,,84,0,8,,,,,0,,,71,100
25344,note_on,,,,,44,0,9,,,,,1,,,69,46
25344,note_on,,,,,128,0,12,,,,,4,,,61,96
25344,note_on,,,,,44,0,11,,,,,3,,,69,46
25344,note_on,,,,,128,0,14,,,,,6,,,42,96
25344,note_on,,,,,0,0,15,,,,,7,,,74,100
25344,note_on,,,,,128,0,15,,,,,7,,,66,100
25344,note_on,,,,,128,0,16,,,,,7,,,54,100
25344,note_on,,,,,44,0,8,,,,,0,,,69,96
25344,note_on,,,,,44,0,10,,,,,2,,,69,46
25344,note_on,,,,,128,0,13,,,,,5,,,54,96
25428,note_off,,,,,84,0,8,,,,,0,,,69,100
25428,note_off,,,,,84,0,10,,,,,2,,,69,100
25428,note_off,,,,,84,0,9,,,,,1,,,69,100
25428,note_off,,,,,84,0,11,,,,,3,,,69,100
25472,note_on,,,,,44,0,8,,,,,0,,,81,96
25472,note_on,,,,,44,0,9,,,,,1,,,81,46
25472,note_on,,,,,44,0,11,,,,,3,,,81,46
25472,note_on,,,,,44,0,10,,,,,2,,,81,46
25556,note_off,,,,,84,0,8,,,,,0,,,81,100
25556,note_off,,,,,84,0,11,,,,,3,,,81,100
25556,note_off,,,,,84,0,10,,,,,2,,,81,100
25556,note_off,,,,,84,0,9,,,,,1,,,81,100
25600,note_off,,,,,256,0,14,,,,,6,,,42,100
25600,note_on,,,,,44,0,9,,,,,1,,,80,47
25600,note_off,,,,,256,0,16,,,,,7,,,54,100
25600,note_off,,,,,256,0,12,,,,,4,,,61,100
25600,note_on,,,,,44,0,8,,,,,0,,,80,97
25600,note_off,,,,,256,0,15,,,,,7,,,66,100
25600,note_on,,,,,44,0,10,,,,,2,,,80,47
25600,note_off,,,,,256,0,13,,,,,5,,,54,100
25600,note_off,,,,,0,0,15,,,,,7,,,74,100
25600,note_on,,,,,44,0,11,,,,,3,,,80,47
25684,note_off,,,,,84,0,8,,,,,0,,,80,100
25684,note_off,,,,,84,0,10,,,,,2,,,80,100
25684,note_off,,,,,84,0,11,,,,,3,,,80,100
25684,note_off,,,,,84,0,9,,,,,1,,,80,100
25728,note_on,,,,,44,0,9,,,,,1,,,78,47
25728,note_on,,,,,44,0,11,,,,,3,,,78,47
25728,note_on,,,,,44,0,10,,,,,2,,,78,47
25728,note_on,,,,,44,0,8,,,,,0,,,78,97
25812,note_off,,,,,84,0,10,,,,,2,,,78,100
25812,note_off,,,,,84,0,11,,,,,3,,,78,100
25812,note_off,,,,,84,0,9,,,,,1,,,78,100
25812,note_off,,,,,84,0,8,,,,,0,,,78,100
25856,note_on,,,,,44,0,10,,,,,2,,,80,47
25856,note_on,,,,,44,0,11,,,,,3,,,80,47
25856,note_on,,,,,44,0,9,,,,,1,,,80,47
25856,note_on,,,,,44,0,8,,,,,0,,,80,97
25940,note_off,,,,,84,0,10,,,,,2,,,80,100
25940,note_off,,,,,84,0,11,,,,,3,,,80,100
25940,note_off,,,,,84,0,9,,,,,1,,,80,100
25940,note_off,,,,,84,0,8,,,,,0,,,80,100
25984,note_on,,,,,44,0,10,,,,,2,,,76,48
25984,note_on,,,,,44,0,11,,,,,3,,,76,48
25984,note_on,,,,,44,0,8,,,,,0,,,76,98
25984,note_on,,,,,44,0,9,,,,,1,,,76,48
26068,note_off,,,,,84,0,10,,,,,2,,,76,100
26068,note_off,,,,,84,0,11,,,,,3,,,76,100
26068,note_off,,,,,84,0,8,,,,,0,,,76,100
26068,note_off,,,,,84,0,9,,,,,1,,,76,100
26112,note_on,,,,,512,0,15,,,,,7,,,69,100
26112,note_on,,,,,0,0,15,,,,,7,,,66,100
26112,note_on,,,,,44,0,9,,,,,1,,,74,48
26112,note_on,,,,,512,0,13,,,,,5,,,50,98
26112,note_on,,,,,0,0,12,,,,,4,,,66,98
26112,note_on,,,,,512,0,12,,,,,4,,,69,98
26112,note_on,,,,,512,0,14,,,,,6,,,38,98
26112,note_on,,,,,44,0,8,,,,,0,,,74,98
26112,note_on,,,,,44,0,11,,,,,3,,,74,48
26112,note_on,,,,,512,0,16,,,,,7,,,50,100
26112,note_on,,,,,44,0,10,,,,,2,,,74,48
26196,note_off,,,,,84,0,9,,,,,1,,,74,100
26196,note_off,,,,,84,0,11,,,,,3,,,74,100
26196,note_off,,,,,84,0,10,,,,,2,,,74,100
26196,note_off,,,,,84,0,8,,,,,0,,,74,100
26240,note_on,,,,,44,0,9,,,,,1,,,76,49
26240,note_on,,,,,44,0,10,,,,,2,,,76,49
26240,note_on,,,,,44,0,11,,,,,3,,,76,49
26240,note_on,,,,,44,0,8,,,,,0,,,76,99
26324,note_off,,,,,84,0,10,,,,,2,,,76,100
26324,note_off,,,,,84,0,8,,,,,0,,,76,100
26324,note_off,,,,,84,0,9,,,,,1,,,76,100
26324,note_off,,,,,84,0,11,,,,,3,,,76,100
26368,note_off,,,,,256,0,15,,,,,7,,,69,100
26368,note_on,,,,,44,0,10,,,,,2,,,73,49
26368,note_on,,,,,44,0,8,,,,,0,,,73,99
26368,note_off,,,,,256,0,14,,,,,6,,,38,100
26368,note_off,,,,,0,0,12,,,,,4,,,66,100
26368,note_on,,,,,44,0,9,,,,,1,,,73,49
26368,note_off,,,,,256,0,13,,,,,5,,,50,100
26368,note_off,,,,,256,0,12,,,,,4,,,69,100
26368,note_off,,,,,256,0,16,,,,,7,,,50,100
26368,note_off,,,,,0,0,15,,,,,7,,,66,100
26368,note_on,,,,,44,0,11,,,,,3,,,73,49
26452,note_off,,,,,84,0,11,,,,,3,,,73,100
26452,note_off,,,,,84,0,9,,,,,1,,,73,100
26452,note_off,,,,,84,0,10,,,,,2,,,73,100
26452,note_off,,,,,84,0,8,,,,,0,,,73,100
26496,note_on,,,,,44,0,11,,,,,3,,,71,49
26496,note_on,,,,,128,0,12,,,,,4,,,59,99
26496,note_on,,,,,0,0,12,,,,,4,,,68,99
26496,note_on,,,,,0,0,15,,,,,7,,,68,100
26496,note_on,,,,,128,0,15,,,,,7,,,71,100
26496,note_on,,,,,44,0,10,,,,,2,,,71,49
26496,note_on,,,,,128,0,13,,,,,5,,,52,99
26496,note_on,,,,,44,0,8,,,,,0,,,71,99
26496,note_on,,,,,128,0,16,,,,,7,,,52,100
26496,note_on,,,,,128,0,14,,,,,6,,,40,99
26496,note_on,,,,,44,0,9,,,,,1,,,71,49
26580,note_off,,,,,84,0,10,,,,,2,,,71,100
26580,note_off,,,,,84,0,8,,,,,0,,,71,100
26580,note_off,,,,,84,0,11,,,,,3,,,71,100
26580,note_off,,,,,84,0,9,,,,,1,,,71,100
26624,note_on,,,,,44,0,10,,,,,2,,,64,35
26624,note_on,,,,,44,0,11,,,,,3,,,64,35
26624,note_on,,,,,44,0,9,,,,,1,,,64,35
26624,note_on,,,,,44,0,8,,,,,0,,,64,85
26708,note_off,,,,,84,0,9,,,,,1,,,64,100
26708,note_off,,,,,84,0,11,,,,,3,,,64,100
26708,note_off,,,,,84,0,8,,,,,0,,,64,100
26708,note_off,,,,,84,0,10,,,,,2,,,64,100
26752,note_on,,,,,44,0,11,,,,,3,,,66,35
26752,note_on,,,,,44,0,10,,,,,2,,,66,35
26752,note_off,,,,,256,0,16,,,,,7,,,52,100
26752,note_on,,,,,44,0,8,,,,,0,,,66,85
26752,note_on,,,,,44,0,9,,,,,1,,,66,35
26752,note_off,,,,,256,0,14,,,,,6,,,40,100
26752,note_off,,,,,256,0,12,,,,,4,,,68,100
26752,note_off,,,,,256,0,13,,,,,5,,,52,100
26752,note_off,,,,,0,0,15,,,,,7,,,68,100
26752,note_off,,,,,256,0,15,,,,,7,,,71,100
26836,note_off,,,,,84,0,8,,,,,0,,,66,100
26836,note_off,,,,,84,0,9,,,,,1,,,66,100
26836,note_off,,,,,84,0,11,,,,,3,,,66,100
26836,note_off,,,,,84,0,10,,,,,2,,,66,100
26880,note_on,,,,,128,0,13,,,,,5,,,40,85
26880,note_on,,,,,44,0,9,,,,,1,,,68,35
26880,note_on,,,,,128,0,16,,,,,7,,,40,100
26880,note_on,,,,,44,0,8,,,,,0,,,68,85
26880,note_on,,,,,0,0,15,,,,,7,,,68,100
26880,note_on,,,,,44,0,10,,,,,2,,,68,35
26880,note_on,,,,,44,0,11,,,,,3,,,68,35
26880,note_on,,,,,128,0,14,,,,,6,,,40,85
26880,note_on,,,,,128,0,12,,,,,4,,,64,85
26880,note_on,,,,,128,0,15,,,,,7,,,59,100
26964,note_off,,,,,84,0,8,,,,,0,,,68,100
26964,note_off,,,,,84,0,11,,,,,3,,,68,100
26964,note_off,,,,,84,0,10,,,,,2,,,68,100
26964,note_off,,,,,84,0,9,,,,,1,,,68,100
27008,note_on,,,,,44,0,11,,,,,3,,,69,35
27008,note_off,,,,,128,0,12,,,,,4,,,59,100
27008,note_on,,,,,44,0,9,,,,,1,,,69,35
27008,note_on,,,,,44,0,10,,,,,2,,,69,35
27008,note_on,,,,,44,0,8,,,,,0,,,69,85
27092,note_off,,,,,84,0,9,,,,,1,,,69,100
27092,note_off,,,,,84,0,8,,,,,0,,,69,100
27092,note_off,,,,,84,0,10,,,,,2,,,69,100
27092,note_off,,,,,84,0,11,,,,,3,,,69,100
27136,note_on,,,,,44,0,10,,,,,2,,,71,35
27136,note_on,,,,,44,0,8,,,,,0,,,71,85
27136,note_off,,,,,256,0,16,,,,,7,,,40,100
27136,note_on,,,,,44,0,9,,,,,1,,,71,35
27136,note_off,,,,,256,0,14,,,,,6,,,40,100
27136,note_off,,,,,256,0,13,,,,,5,,,40,100
27136,note_off,,,,,0,0,15,,,,,7,,,68,100
27136,note_off,,,,,128,0,12,,,,,4,,,64,100
27136,note_off,,,,,256,0,15,,,,,7,,,59,100
27136,note_on,,,,,44,0,11,,,,,3,,,71,35
27220,note_off,,,,,84,0,11,,,,,3,,,71,100
27220,note_off,,,,,84,0,10,,,,,2,,,71,100
27220,note_off,,,,,84,0,8,,,,,0,,,71,100
27220,note_off,,,,,84,0,9,,,,,1,,,71,100
27264,note_on,,,,,44,0,9,,,,,1,,,73,35
27264,note_on,,,,,44,0,11,,,,,3,,,73,35
27264,note_on,,,,,44,0,8,,,,,0,,,73,85
27264,note_on,,,,,44,0,10,,,,,2,,,73,35
27348,note_off,,,,,84,0,9,,,,,1,,,73,100
27348,note_off,,,,,84,0,8,,,,,0,,,73,100
27348,note_off,,,,,84,0,10,,,,,2,,,73,100
27348,note_off,,,,,84,0,11,,,,,3,,,73,100
27392,note_on,,,,,44,0,10,,,,,2,,,74,35
27392,note_on,,,,,44,0,11,,,,,3,,,74,35
27392,note_on,,,,,44,0,8,,,,,0,,,74,85
27392,note_on,,,,,44,0,9,,,,,1,,,74,35
27476,note_off,,,,,84,0,9,,,,,1,,,74,100
27476,note_off,,,,,84,0,10,,,,,2,,,74,100
27476,note_off,,,,,84,0,11,,,,,3,,,74,100
27476,note_off,,,,,84,0,8,,,,,0,,,74,100
27520,note_on,,,,,44,0,10,,,,,2,,,76,35
27520,note_on,,,,,44,0,11,,,,,3,,,76,35
27520,note_on,,,,,44,0,8,,,,,0,,,76,85
27520,note_on,,,,,44,0,9,,,,,1,,,76,35
27604,note_off,,,,,84,0,8,,,,,0,,,76,100
27604,note_off,,,,,84,0,11,,,,,3,,,76,100
27604,note_off,,,,,84,0,9,,,,,1,,,76,100
27604,note_off,,,,,84,0,10,,,,,2,,,76,100
27648,note_on,,,,,512,0,14,,,,,6,,,40,60
27648,note_on,,,,,44,0,9,,,,,1,,,71,35
27648,note_on,,,,,512,0,16,,,,,7,,,52,100
27648,note_on,,,,,44,0,8,,,,,0,,,71,85
27648,note_on,,,,,44,0,11,,,,,3,,,71,35
27648,note_on,,,,,512,0,15,,,,,7,,,71,100
27648,note_on,,,,,0,0,12,,,,,4,,,59,60
27648,note_on,,,,,512,0,13,,,,,5,,,52,60
27648,note_on,,,,,512,0,12,,,,,4,,,68,60
27648,note_on,,,,,44,0,10,,,,,2,,,71,35
27648,note_on,,,,,0,0,15,,,,,7,,,68,100
27732,note_off,,,,,84,0,9,,,,,1,,,71,100
27732,note_off,,,,,84,0,11,,,,,3,,,71,100
27732,note_off,,,,,84,0,10,,,,,2,,,71,100
27732,note_off,,,,,84,0,8,,,,,0,,,71,100
27776,note_on,,,,,44,0,9,,,,,1,,,64,10
27776,note_on,,,,,44,0,11,,,,,3,,,64,10
27776,note_on,,,,,44,0,10,,,,,2,,,64,10
27776,note_on,,,,,44,0,8,,,,,0,,,64,60
27860,note_off,,,,,84,0,10,,,,,2,,,64,100
27860,note_off,,,,,84,0,9,,,,,1,,,64,100
27860,note_off,,,,,84,0,11,,,,,3,,,64,100
27860,note_off,,,,,84,0,8,,,,,0,,,64,100
27904,note_off,,,,,256,0,12,,,,,4,,,68,100
27904,note_off,,,,,256,0,16,,,,,7,,,52,100
27904,note_on,,,,,44,0,11,,,,,3,,,66,10
27904,note_on,,,,,44,0,9,,,,,1,,,66,10
27904,note_on,,,,,44,0,8,,,,,0,,,66,60
27904,note_off,,,,,256,0,15,,,,,7,,,71,100
27904,note_off,,,,,0,0,15,,,,,7,,,68,100
27904,note_off,,,,,256,0,14,,,,,6,,,40,100
27904,note_off,,,,,256,0,13,,,,,5,,,52,100
27904,note_on,,,,,44,0,10,,,,,2,,,66,10
27988,note_off,,,,,84,0,8,,,,,0,,,66,100
27988,note_off,,,,,84,0,11,,,,,3,,,66,100
27988,note_off,,,,,84,0,10,,,,,2,,,66,100
27988,note_off,,,,,84,0,9,,,,,1,,,66,100
28032,note_on,,,,,44,0,10,,,,,2,,,68,10
28032,note_on,,,,,128,0,13,,,,,5,,,40,60
28032,note_on,,,,,44,0,8,,,,,0,,,68,60
28032,note_on,,,,,128,0,16,,,,,7,,,40,100
28032,note_on,,,,,128,0,12,,,,,4,,,64,60
28032,note_on,,,,,128,0,14,,,,,6,,,40,60
28032,note_on,,,,,128,0,15,,,,,7,,,59,100
28032,note_on,,,,,0,0,15,,,,,7,,,68,100
28032,note_on,,,,,44,0,9,,,,,1,,,68,10
28032,note_on,,,,,44,0,11,,,,,3,,,68,10
28116,note_off,,,,,84,0,11,,,,,3,,,68,100
28116,note_off,,,,,84,0,10,,,,,2,,,68,100
28116,note_off,,,,,84,0,8,,,,,0,,,68,100
28116,note_off,,,,,84,0,9,,,,,1,,,68,100
28160,note_on,,,,,44,0,8,,,,,0,,,69,60
28160,note_off,,,,,128,0,12,,,,,4,,,59,100
28160,note_on,,,,,44,0,11,,,,,3,,,69,10
28160,note_on,,,,,44,0,10,,,,,2,,,69,10
28160,note_on,,,,,44,0,9,,,,,1,,,69,10
28244,note_off,,,,,84,0,9,,,,,1,,,69,100
28244,note_off,,,,,84,0,8,,,,,0,,,69,100
28244,note_off,,,,,84,0,11,,,,,3,,,69,100
28244,note_off,,,,,84,0,10,,,,,2,,,69,100
28288,note_off,,,,,128,0,12,,,,,4,,,64,100
28288,note_on,,,,,44,0,8,,,,,0,,,71,60
28288,note_on,,,,,44,0,9,,,,,1,,,71,10
28288,note_on,,,,,44,0,11,,,,,3,,,71,10
28288,note_off,,,,,256,0,15,,,,,7,,,59,100
28288,note_off,,,,,256,0,13,,,,,5,,,40,100
28288,note_off,,,,,0,0,15,,,,,7,,,68,100
28288,note_off,,,,,256,0,14,,,,,6,,,40,100
28288,note_off,,,,,256,0,16,,,,,7,,,40,100
28288,note_on,,,,,44,0,10,,,,,2,,,71,10
28372,note_off,,,,,84,0,9,,,,,1,,,71,100
28372,note_off,,,,,84,0,11,,,,,3,,,71,100
28372,note_off,,,,,84,0,10,,,,,2,,,71,100
28372,note_off,,,,,84,0,8,,,,,0,,,71,100
28416,note_on,,,,,44,0,11,,,,,3,,,73,10
28416,note_on,,,,,44,0,10,,,,,2,,,73,10
28416,note_on,,,,,44,0,9,,,,,1,,,73,10
28416,note_on,,,,,44,0,8,,,,,0,,,73,60
28500,note_off,,,,,84,0,9,,,,,1,,,73,100
28500,note_off,,,,,84,0,8,,,,,0,,,73,100
28500,note_off,,,,,84,0,11,,,,,3,,,73,100
28500,note_off,,,,,84,0,10,,,,,2,,,73,100
28544,note_on,,,,,44,0,9,,,,,1,,,74,10
28544,note_on,,,,,44,0,10,,,,,2,,,74,10
28544,note_on,,,,,44,0,8,,,,,0,,,74,60
28544,note_on,,,,,44,0,11,,,,,3,,,74,10
28628,note_off,,,,,84,0,9,,,,,1,,,74,100
28628,note_off,,,,,84,0,10,,,,,2,,,74,100
28628,note_off,,,,,84,0,8,,,,,0,,,74,100
28628,note_off,,,,,84,0,11,,,,,3,,,74,100
28672,note_on,,,,,44,0,8,,,,,0,,,76,60
28672,note_on,,,,,44,0,9,,,,,1,,,76,10
28672,note_on,,,,,44,0,11,,,,,3,,,76,10
28672,note_on,,,,,44,0,10,,,,,2,,,76,10
28756,note_off,,,,,84,0,9,,,,,1,,,76,100
28756,note_off,,,,,84,0,8,,,,,0,,,76,100
28756,note_off,,,,,84,0,11,,,,,3,,,76,100
28756,note_off,,,,,84,0,10,,,,,2,,,76,100
28800,note_on,,,,,0,0,15,,,,,7,,,68,100
28800,note_on,,,,,44,0,9,,,,,1,,,71,10
28800,note_on,,,,,44,0,11,,,,,3,,,71,10
28800,note_on,,,,,512,0,16,,,,,7,,,52,100
28800,note_on,,,,,512,0,15,,,,,7,,,71,100
28800,note_on,,,,,44,0,8,,,,,0,,,71,60
28800,note_on,,,,,512,0,14,,,,,6,,,40,100
28800,note_on,,,,,512,0,12,,,,,4,,,59,100
28800,note_on,,,,,0,0,12,,,,,4,,,68,100
28800,note_on,,,,,512,0,13,,,,,5,,,52,100
28800,note_on,,,,,44,0,10,,,,,2,,,71,10
28884,note_off,,,,,84,0,10,,,,,2,,,71,100
28884,note_off,,,,,84,0,11,,,,,3,,,71,100
28884,note_off,,,,,84,0,9,,,,,1,,,71,100
28884,note_off,,,,,84,0,8,,,,,0,,,71,100
28928,note_on,,,,,44,0,8,,,,,0,,,64,100
28928,note_on,,,,,44,0,11,,,,,3,,,64,50
28928,note_on,,,,,44,0,10,,,,,2,,,64,50
28928,note_on,,,,,44,0,9,,,,,1,,,64,50
29012,note_off,,,,,84,0,9,,,,,1,,,64,100
29012,note_off,,,,,84,0,11,,,,,3,,,64,100
29012,note_off,,,,,84,0,8,,,,,0,,,64,100
29012,note_off,,,,,84,0,10,,,,,2,,,64,100
29056,note_off,,,,,256,0,16,,,,,7,,,52,100
29056,note_on,,,,,44,0,9,,,,,1,,,66,50
29056,note_off,,,,,256,0,12,,,,,4,,,68,100
29056,note_on,,,,,44,0,10,,,,,2,,,66,50
29056,note_off,,,,,256,0,15,,,,,7,,,71,100
29056,note_off,,,,,0,0,15,,,,,7,,,68,100
29056,note_off,,,,,256,0,14,,,,,6,,,40,100
29056,note_off,,,,,256,0,13,,,,,5,,,52,100
29056,note_on,,,,,44,0,11,,,,,3,,,66,50
29056,note_on,,,,,44,0,8,,,,,0,,,66,100
29140,note_off,,,,,84,0,9,,,,,1,,,66,100
29140,note_off,,,,,84,0,10,,,,,2,,,66,100
29140,note_off,,,,,84,0,11,,,,,3,,,66,100
29140,note_off,,,,,84,0,8,,,,,0,,,66,100
29184,note_on,,,,,128,0,14,,,,,6,,,40,100
29184,note_on,,,,,44,0,9,,,,,1,,,68,50
29184,note_on,,,,,44,0,11,,,,,3,,,68,50
29184,note_on,,,,,44,0,8,,,,,0,,,68,100
29184,note_on,,,,,128,0,16,,,,,7,,,40,100
29184,note_on,,,,,44,0,10,,,,,2,,,68,50
29184,note_on,,,,,0,0,15,,,,,7,,,68,100
29184,note_on,,,,,128,0,15,,,,,7,,,59,100
29184,note_on,,,,,128,0,13,,,,,5,,,40,100
29184,note_on,,,,,128,0,12,,,,,4,,,64,100
29268,note_off,,,,,84,0,11,,,,,3,,,68,100
29268,note_off,,,,,84,0,10,,,,,2,,,68,100
29268,note_off,,,,,84,0,8,,,,,0,,,68,100
29268,note_off,,,,,84,0,9,,,,,1,,,68,100
29312,note_on,,,,,44,0,9,,,,,1,,,69,50
29312,note_off,,,,,128,0,12,,,,,4,,,59,100
29312,note_on,,,,,44,0,11,,,,,3,,,69,50
29312,note_on,,,,,44,0,10,,,,,2,,,69,50
29312,note_on,,,,,44,0,8,,,,,0,,,69,100
29396,note_off,,,,,84,0,9,,,,,1,,,69,100
29396,note_off,,,,,84,0,8,,,,,0,,,69,100
29396,note_off,,,,,84,0,11,,,,,3,,,69,100
29396,note_off,,,,,84,0,10,,,,,2,,,69,100
29440,note_on,,,,,44,0,8,,,,,0,,,71,100
29440,note_off,,,,,256,0,14,,,,,6,,,40,100
29440,note_off,,,,,256,0,13,,,,,5,,,40,100
29440,note_on,,,,,44,0,11,,,,,3,,,71,50
29440,note_off,,,,,256,0,15,,,,,7,,,59,100
29440,note_off,,,,,0,0,15,,,,,7,,,68,100
29440,note_on,,,,,44,0,10,,,,,2,,,71,50
29440,note_off,,,,,128,0,12,,,,,4,,,64,100
29440,note_on,,,,,44,0,9,,,,,1,,,71,50
29440,note_off,,,,,256,0,16,,,,,7,,,40,100
29524,note_off,,,,,84,0,10,,,,,2,,,71,100
29524,note_off,,,,,84,0,11,,,,,3,,,71,100
29524,note_off,,,,,84,0,8,,,,,0,,,71,100
29524,note_off,,,,,84,0,9,,,,,1,,,71,100
29568,note_on,,,,,44,0,9,,,,,1,,,73,50
29568,note_on,,,,,44,0,10,,,,,2,,,73,50
29568,note_on,,,,,44,0,11,,,,,3,,,73,50
29568,note_on,,,,,44,0,8,,,,,0,,,73,100
29652,note_off,,,,,84,0,10,,,,,2,,,73,100
29652,note_off,,,,,84,0,11,,,,,3,,,73,100
29652,note_off,,,,,84,0,8,,,,,0,,,73,100
29652,note_off,,,,,84,0,9,,,,,1,,,73,100
29696,note_on,,,,,44,0,11,,,,,3,,,74,50
29696,note_on,,,,,44,0,9,,,,,1,,,74,50
29696,note_on,,,,,44,0,10,,,,,2,,,74,50
29696,note_on,,,,,44,0,8,,,,,0,,,74,100
29780,note_off,,,,,84,0,8,,,,,0,,,74,100
29780,note_off,,,,,84,0,9,,,,,1,,,74,100
29780,note_off,,,,,84,0,10,,,,,2,,,74,100
29780,note_off,,,,,84,0,11,,,,,3,,,74,100
29824,note_on,,,,,44,0,8,,,,,0,,,76,100
29824,note_on,,,,,44,0,10,,,,,2,,,76,50
29824,note_on,,,,,44,0,11,,,,,3,,,76,50
29824,note_on,,,,,44,0,9,,,,,1,,,76,50
29908,note_off,,,,,84,0,11,,,,,3,,,76,100
29908,note_off,,,,,84,0,8,,,,,0,,,76,100
29908,note_off,,,,,84,0,10,,,,,2,,,76,100
29908,note_off,,,,,84,0,9,,,,,1,,,76,100
29952,note_on,,,,,44,0,9,,,,,1,,,73,50
29952,note_on,,,,,512,0,16,,,,,7,,,45,100
29952,note_on,,,,,512,0,13,,,,,5,,,45,100
29952,note_on,,,,,44,0,8,,,,,0,,,73,100
29952,note_on,,,,,44,0,10,,,,,2,,,73,50
29952,note_on,,,,,512,0,15,,,,,7,,,57,100
29952,note_on,,,,,0,0,12,,,,,4,,,61,100
29952,note_on,,,,,512,0,12,,,,,4,,,64,100
29952,note_on,,,,,512,0,14,,,,,6,,,33,100
29952,note_on,,,,,44,0,11,,,,,3,,,73,50
30016,note_off,,,,,64,0,13,,,,,5,,,45,100
30016,note_off,,,,,64,0,15,,,,,7,,,57,100
30016,note_off,,,,,64,0,16,,,,,7,,,45,100
30016,note_off,,,,,64,0,14,,,,,6,,,33,100
30036,note_off,,,,,84,0,10,,,,,2,,,73,100
30036,note_off,,,,,84,0,9,,,,,1,,,73,100
30036,note_off,,,,,84,0,8,,,,,0,,,73,100
30036,note_off,,,,,84,0,11,,,,,3,,,73,100
30048,note_on,,,,,32,0,13,,,,,5,,,47,100
30048,note_on,,,,,32,0,14,,,,,6,,,35,100
30048,note_on,,,,,32,0,15,,,,,7,,,59,100
30048,note_on,,,,,32,0,16,,,,,7,,,47,100
30080,note_on,,,,,44,0,11,,,,,3,,,71,50
30080,note_on,,,,,44,0,8,,,,,0,,,71,100
30080,note_on,,,,,44,0,10,,,,,2,,,71,50
30080,note_on,,,,,44,0,9,,,,,1,,,71,50
30112,note_off,,,,,64,0,16,,,,,7,,,47,100
30112,note_off,,,,,64,0,13,,,,,5,,,47,100
30112,note_off,,,,,64,0,15,,,,,7,,,59,100
30112,note_off,,,,,64,0,14,,,,,6,,,35,100
30144,note_on,,,,,32,0,16,,,,,7,,,49,100
30144,note_on,,,,,32,0,15,,,,,7,,,61,100
30144,note_on,,,,,32,0,14,,,,,6,,,37,100
30144,note_on,,,,,32,0,13,,,,,5,,,49,100
30164,note_off,,,,,84,0,9,,,,,1,,,71,100
30164,note_off,,,,,84,0,10,,,,,2,,,71,100
30164,note_off,,,,,84,0,11,,,,,3,,,71,100
30164,note_off,,,,,84,0,8,,,,,0,,,71,100
30208,note_off,,,,,64,0,14,,,,,6,,,37,100
30208,note_on,,,,,44,0,8,,,,,0,,,69,100
30208,note_on,,,,,44,0,10,,,,,2,,,69,50
30208,note_off,,,,,256,0,12,,,,,4,,,64,100
30208,note_off,,,,,64,0,16,,,,,7,,,49,100
30208,note_off,,,,,64,0,13,,,,,5,,,49,100
30208,note_off,,,,,0,0,12,,,,,4,,,61,100
30208,note_on,,,,,44,0,11,,,,,3,,,69,50
30208,note_off,,,,,64,0,15,,,,,7,,,61,100
30208,note_on,,,,,44,0,9,,,,,1,,,69,50
30240,note_on,,,,,32,0,13,,,,,5,,,50,100
30240,note_on,,,,,32,0,15,,,,,7,,,62,100
30240,note_on,,,,,32,0,16,,,,,7,,,50,100
30240,note_on,,,,,32,0,14,,,,,6,,,38,100
30292,note_off,,,,,84,0,8,,,,,0,,,69,100
30292,note_off,,,,,84,0,10,,,,,2,,,69,100
30292,note_off,,,,,84,0,11,,,,,3,,,69,100
30292,note_off,,,,,84,0,9,,,,,1,,,69,100
30304,note_off,,,,,64,0,16,,,,,7,,,50,100
30304,note_off,,,,,64,0,15,,,,,7,,,62,100
30304,note_off,,,,,64,0,13,,,,,5,,,50,100
30304,note_off,,,,,64,0,14,,,,,6,,,38,100
30336,note_on,,,,,44,0,8,,,,,0,,,68,100
30336,note_on,,,,,44,0,11,,,,,3,,,68,50
30336,note_on,,,,,32,0,13,,,,,5,,,52,100
30336,note_on,,,,,32,0,16,,,,,7,,,52,100
30336,note_on,,,,,32,0,14,,,,,6,,,40,100
30336,note_on,,,,,44,0,9,,,,,1,,,68,50
30336,note_on,,,,,44,0,10,,,,,2,,,68,50
30336,note_on,,,,,32,0,15,,,,,7,,,67,100
30336,note_on,,,,,0,0,15,,,,,7,,,64,100
30336,note_on,,,,,0,0,12,,,,,4,,,64,100
30336,note_on,,,,,128,0,12,,,,,4,,,59,100
30420,note_off,,,,,84,0,8,,,,,0,,,68,100
30420,note_off,,,,,84,0,9,,,,,1,,,68,100
30420,note_off,,,,,84,0,11,,,,,3,,,68,100
30420,note_off,,,,,84,0,10,,,,,2,,,68,100
30464,note_on,,,,,44,0,8,,,,,0,,,64,100
30464,note_off,,,,,128,0,14,,,,,6,,,40,100
30464,note_off,,,,,0,0,15,,,,,7,,,64,100
30464,note_on,,,,,44,0,9,,,,,1,,,64,50
30464,note_on,,,,,44,0,11,,,,,3,,,64,50
30464,note_off,,,,,128,0,13,,,,,5,,,52,100
30464,note_off,,,,,128,0,16,,,,,7,,,52,100
30464,note_off,,,,,128,0,12,,,,,4,,,59,100
30464,note_on,,,,,44,0,10,,,,,2,,,64,50
30464,note_off,,,,,128,0,15,,,,,7,,,67,100
30528,note_on,,,,,64,0,16,,,,,7,,,49,100
30528,note_on,,,,,64,0,14,,,,,6,,,37,100
30528,note_on,,,,,0,0,15,,,,,7,,,69,100
30528,note_on,,,,,64,0,15,,,,,7,,,64,100
30528,note_on,,,,,64,0,13,,,,,5,,,49,100
30528,note_on,,,,,64,0,12,,,,,4,,,61,100
30548,note_off,,,,,84,0,11,,,,,3,,,64,100
30548,note_off,,,,,84,0,8,,,,,0,,,64,100
30548,note_off,,,,,84,0,9,,,,,1,,,64,100
30548,note_off,,,,,84,0,10,,,,,2,,,64,100
30592,note_on,,,,,44,0,9,,,,,1,,,69,50
30592,note_on,,,,,44,0,8,,,,,0,,,69,100
30592,note_off,,,,,64,0,12,,,,,4,,,64,100
30592,note_on,,,,,44,0,11,,,,,3,,,69,50
30592,note_on,,,,,44,0,10,,,,,2,,,69,50
30656,note_off,,,,,128,0,16,,,,,7,,,49,100
30656,note_off,,,,,128,0,14,,,,,6,,,37,100
30656,note_off,,,,,64,0,12,,,,,4,,,61,100
30656,note_off,,,,,128,0,13,,,,,5,,,49,100
30656,note_off,,,,,0,0,15,,,,,7,,,69,100
30656,note_off,,,,,128,0,15,,,,,7,,,64,100
30676,note_off,,,,,84,0,9,,,,,1,,,69,100
30676,note_off,,,,,84,0,11,,,,,3,,,69,100
30676,note_off,,,,,84,0,10,,,,,2,,,69,100
30676,note_off,,,,,84,0,8,,,,,0,,,69,100
30720,note_on,,,,,44,0,10,,,,,2,,,59,50
30720,note_on,,,,,64,0,16,,,,,7,,,50,100
30720,note_on,,,,,44,0,9,,,,,1,,,59,50
30720,note_on,,,,,64,0,14,,,,,6,,,38,100
30720,note_on,,,,,44,0,8,,,,,0,,,59,100
30720,note_on,,,,,44,0,11,,,,,3,,,59,50
30720,note_on,,,,,0,0,15,,,,,7,,,69,100
30720,note_on,,,,,64,0,15,,,,,7,,,71,100
30720,note_on,,,,,64,0,12,,,,,4,,,66,100
30720,note_on,,,,,64,0,13,,,,,5,,,50,100
30720,note_on,,,,,0,0,12,,,,,4,,,59,100
30804,note_off,,,,,84,0,11,,,,,3,,,59,100
30804,note_off,,,,,84,0,8,,,,,0,,,59,100
30804,note_off,,,,,84,0,10,,,,,2,,,59,100
30804,note_off,,,,,84,0,9,,,,,1,,,59,100
30848,note_off,,,,,128,0,12,,,,,4,,,66,100
30848,note_off,,,,,0,0,12,,,,,4,,,59,100
30848,note_on,,,,,44,0,10,,,,,2,,,69,50
30848,note_off,,,,,128,0,13,,,,,5,,,50,100
30848,note_on,,,,,44,0,8,,,,,0,,,69,100
30848,note_on,,,,,44,0,9,,,,,1,,,69,50
30848,note_on,,,,,44,0,11,,,,,3,,,69,50
30848,note_off,,,,,0,0,15,,,,,7,,,69,100
30848,note_off,,,,,128,0,16,,,,,7,,,50,100
30848,note_off,,,,,128,0,14,,,,,6,,,38,100
30848,note_off,,,,,128,0,15,,,,,7,,,71,100
30912,note_on,,,,,64,0,12,,,,,4,,,64,100
30912,note_on,,,,,64,0,15,,,,,7,,,71,100
30912,note_on,,,,,64,0,14,,,,,6,,,40,100
30912,note_on,,,,,64,0,16,,,,,7,,,52,100
30912,note_on,,,,,0,0,15,,,,,7,,,68,100
30912,note_on,,,,,64,0,13,,,,,5,,,52,100
30932,note_off,,,,,84,0,10,,,,,2,,,69,100
30932,note_off,,,,,84,0,9,,,,,1,,,69,100
30932,note_off,,,,,84,0,8,,,,,0,,,69,100
30932,note_off,,,,,84,0,11,,,,,3,,,69,100
30976,note_on,,,,,44,0,9,,,,,1,,,68,50
30976,note_on,,,,,44,0,8,,,,,0,,,68,100
30976,note_on,,,,,44,0,10,,,,,2,,,68,50
30976,note_on,,,,,44,0,11,,,,,3,,,68,50
31040,note_off,,,,,128,0,13,,,,,5,,,52,100
31040,note_off,,,,,128,0,12,,,,,4,,,64,100
31040,note_off,,,,,128,0,15,,,,,7,,,71,100
31040,note_off,,,,,0,0,15,,,,,7,,,68,100
31040,note_off,,,,,128,0,16,,,,,7,,,52,100
31040,note_off,,,,,128,0,14,,,,,6,,,40,100
31060,note_off,,,,,84,0,10,,,,,2,,,68,100
31060,note_off,,,,,84,0,8,,,,,0,,,68,100
31060,note_off,,,,,84,0,11,,,,,3,,,68,100
31060,note_off,,,,,84,0,9,,,,,1,,,68,100
31100,program_change,,,,,40,0,8,,,,,0,40,,,
31104,note_on,,,,,44,0,9,,,,,1,,,69,100
31104,note_on,,,,,64,0,16,,,,,7,,,45,100
31104,note_on,,,,,0,0,15,,,,,7,,,73,100
31104,note_on,,,,,0,0,15,,,,,7,,,69,100
31104,note_on,,,,,64,0,15,,,,,7,,,64,100
31104,note_on,,,,,64,0,13,,,,,5,,,45,100
31104,note_on,,,,,44,0,10,,,,,2,,,69,50
31104,note_on,,,,,4,0,8,,,,,0,,,69,100
31104,note_on,,,,,44,0,11,,,,,3,,,69,50
31104,note_on,,,,,64,0,12,,,,,4,,,64,100
31104,note_on,,,,,0,0,12,,,,,4,,,61,100
31104,note_on,,,,,64,0,14,,,,,6,,,33,100
31188,note_off,,,,,84,0,8,,,,,0,,,69,100
31232,note_on,,,,,44,0,8,,,,,0,,,81,85
31316,note_off,,,,,84,0,8,,,,,0,,,81,100
31360,note_off,,,,,0,0,15,,,,,7,,,73,100
31360,note_off,,,,,256,0,13,,,,,5,,,45,100
31360,note_off,,,,,256,0,12,,,,,4,,,64,100
31360,note_off,,,,,256,0,14,,,,,6,,,33,100
31360,note_off,,,,,256,0,11,,,,,3,,,69,100
31360,note_on,,,,,44,0,8,,,,,0,,,79,85
31360,note_off,,,,,256,0,9,,,,,1,,,69,100
31360,note_off,,,,,0,0,15,,,,,7,,,69,100
31360,note_off,,,,,256,0,10,,,,,2,,,69,100
31360,note_off,,,,,256,0,15,,,,,7,,,64,100
31360,note_off,,,,,0,0,12,,,,,4,,,61,100
31360,note_off,,,,,256,0,16,,,,,7,,,45,100
31444,note_off,,,,,84,0,8,,,,,0,,,79,100
31488,note_on,,,,,44,0,8,,,,,0,,,78,85
31612,note_off,,,,,124,0,8,,,,,0,,,78,100
31616,note_on,,,,,4,0,8,,,,,0,,,79,85
31740,note_off,,,,,124,0,8,,,,,0,,,79,100
31744,note_on,,,,,4,0,8,,,,,0,,,81,85
31828,note_off,,,,,84,0,8,,,,,0,,,81,100
31872,note_on,,,,,44,0,8,,,,,0,,,78,85
31996,note_off,,,,,124,0,8,,,,,0,,,78,100
32000,note_on,,,,,4,0,8,,,,,0,,,79,85
32124,note_off,,,,,124,0,8,,,,,0,,,79,100
32128,note_on,,,,,4,0,8,,,,,0,,,81,85
32212,note_off,,,,,84,0,8,,,,,0,,,81,100
32256,note_on,,,,,44,0,8,,,,,0,,,72,85
32256,note_on,,,,,896,0,14,,,,,6,,,45,85
32256,note_on,,,,,896,0,13,,,,,5,,,57,85
32256,note_on,,,,,896,0,16,,,,,7,,,57,100
32256,note_on,,,,,0,0,15,,,,,7,,,60,100
32256,note_on,,,,,896,0,15,,,,,7,,,64,100
32380,note_off,,,,,124,0,8,,,,,0,,,72,100
32384,note_on,,,,,4,0,8,,,,,0,,,71,85
32508,note_off,,,,,124,0,8,,,,,0,,,71,100
32512,note_off,,,,,256,0,14,,,,,6,,,45,100
32512,note_off,,,,,0,0,15,,,,,7,,,60,100
32512,note_off,,,,,256,0,15,,,,,7,,,64,100
32512,note_on,,,,,4,0,8,,,,,0,,,72,85
32512,note_off,,,,,256,0,13,,,,,5,,,57,100
32512,note_off,,,,,256,0,16,,,,,7,,,57,100
32596,note_off,,,,,84,0,8,,,,,0,,,72,100
32640,note_on,,,,,128,0,16,,,,,7,,,54,100
32640,note_on,,,,,44,0,8,,,,,0,,,81,85
32640,note_on,,,,,128,0,13,,,,,5,,,54,85
32640,note_on,,,,,128,0,15,,,,,7,,,62,100
32640,note_on,,,,,0,0,15,,,,,7,,,57,100
32640,note_on,,,,,128,0,14,,,,,6,,,42,85
32764,note_off,,,,,124,0,8,,,,,0,,,81,100
32768,note_on,,,,,4,0,8,,,,,0,,,79,85
32892,note_off,,,,,124,0,8,,,,,0,,,79,100
32896,note_on,,,,,4,0,8,,,,,0,,,81,85
32896,note_off,,,,,256,0,14,,,,,6,,,42,100
32896,note_off,,,,,0,0,15,,,,,7,,,57,100
32896,note_off,,,,,256,0,15,,,,,7,,,62,100
32896,note_off,,,,,256,0,16,,,,,7,,,54,100
32896,note_off,,,,,256,0,13,,,,,5,,,54,100
32980,note_off,,,,,84,0,8,,,,,0,,,81,100
33024,note_on,,,,,0,0,15,,,,,7,,,57,100
33024,note_on,,,,,128,0,15,,,,,7,,,60,100
33024,note_on,,,,,44,0,8,,,,,0,,,72,85
33024,note_on,,,,,128,0,14,,,,,6,,,38,85
33024,note_on,,,,,128,0,16,,,,,7,,,50,100
33024,note_on,,,,,128,0,13,,,,,5,,,50,85
33148,note_off,,,,,124,0,8,,,,,0,,,72,100
33152,note_on,,,,,4,0,8,,,,,0,,,71,85
33276,note_off,,,,,124,0,8,,,,,0,,,71,100
33280,note_on,,,,,4,0,8,,,,,0,,,72,85
33280,note_off,,,,,256,0,16,,,,,7,,,50,100
33280,note_off,,,,,256,0,13,,,,,5,,,50,100
33280,note_off,,,,,0,0,15,,,,,7,,,57,100
33280,note_off,,,,,256,0,14,,,,,6,,,38,100
33280,note_off,,,,,256,0,15,,,,,7,,,60,100
33364,note_off,,,,,84,0,8,,,,,0,,,72,100
33408,note_on,,,,,44,0,8,,,,,0,,,71,85
33408,note_on,,,,,128,0,16,,,,,7,,,55,100
33408,note_on,,,,,128,0,15,,,,,7,,,67,100
33408,note_on,,,,,0,0,15,,,,,7,,,59,100
33408,note_on,,,,,128,0,14,,,,,6,,,43,85
33408,note_on,,,,,128,0,13,,,,,5,,,55,85
33492,note_off,,,,,84,0,8,,,,,0,,,71,100
33536,note_on,,,,,44,0,8,,,,,0,,,83,85
33620,note_off,,,,,84,0,8,,,,,0,,,83,100
33664,note_on,,,,,44,0,8,,,,,0,,,81,85
33664,note_off,,,,,256,0,16,,,,,7,,,55,100
33664,note_off,,,,,256,0,15,,,,,7,,,67,100
33664,note_off,,,,,0,0,15,,,,,7,,,59,100
33664,note_off,,,,,256,0,13,,,,,5,,,55,100
33664,note_off,,,,,256,0,14,,,,,6,,,43,100
33748,note_off,,,,,84,0,8,,,,,0,,,81,100
33792,note_on,,,,,44,0,8,,,,,0,,,79,85
33916,note_off,,,,,124,0,8,,,,,0,,,79,100
33920,note_on,,,,,4,0,8,,,,,0,,,81,85
34044,note_off,,,,,124,0,8,,,,,0,,,81,100
34048,note_on,,,,,4,0,8,,,,,0,,,83,85
34132,note_off,,,,,84,0,8,,,,,0,,,83,100
34176,note_on,,,,,44,0,8,,,,,0,,,79,85
34300,note_off,,,,,124,0,8,,,,,0,,,79,100
34304,note_on,,,,,4,0,8,,,,,0,,,81,85
34428,note_off,,,,,124,0,8,,,,,0,,,81,100
34432,note_on,,,,,4,0,8,,,,,0,,,83,85
34516,note_off,,,,,84,0,8,,,,,0,,,83,100
34560,note_on,,,,,896,0,14,,,,,6,,,47,85
34560,note_on,,,,,896,0,13,,,,,5,,,59,85
34560,note_on,,,,,44,0,8,,,,,0,,,74,85
34560,note_on,,,,,896,0,16,,,,,7,,,59,100
34560,note_on,,,,,0,0,15,,,,,7,,,62,100
34560,note_on,,,,,896,0,15,,,,,7,,,66,100
34684,note_off,,,,,124,0,8,,,,,0,,,74,100
34688,note_on,,,,,4,0,8,,,,,0,,,73,85
34812,note_off,,,,,124,0,8,,,,,0,,,73,100
34816,note_off,,,,,256,0,15,,,,,7,,,66,100
34816,note_off,,,,,0,0,15,,,,,7,,,62,100
34816,note_off,,,,,256,0,14,,,,,6,,,47,100
34816,note_on,,,,,4,0,8,,,,,0,,,74,85
34816,note_off,,,,,256,0,13,,,,,5,,,59,100
34816,note_off,,,,,256,0,16,,,,,7,,,59,100
34900,note_off,,,,,84,0,8,,,,,0,,,74,100
34944,note_on,,,,,128,0,13,,,,,5,,,56,85
34944,note_on,,,,,0,0,15,,,,,7,,,59,100
34944,note_on,,,,,128,0,15,,,,,7,,,64,100
34944,note_on,,,,,128,0,14,,,,,6,,,44,85
34944,note_on,,,,,128,0,16,,,,,7,,,56,100
34944,note_on,,,,,44,0,8,,,,,0,,,83,85
35068,note_off,,,,,124,0,8,,,,,0,,,83,100
35072,note_on,,,,,4,0,8,,,,,0,,,81,85
35196,note_off,,,,,124,0,8,,,,,0,,,81,100
35200,note_off,,,,,256,0,13,,,,,5,,,56,100
35200,note_off,,,,,256,0,16,,,,,7,,,56,100
35200,note_on,,,,,4,0,8,,,,,0,,,83,85
35200,note_off,,,,,256,0,14,,,,,6,,,44,100
35200,note_off,,,,,256,0,15,,,,,7,,,64,100
35200,note_off,,,,,0,0,15,,,,,7,,,59,100
35284,note_off,,,,,84,0,8,,,,,0,,,83,100
35328,note_on,,,,,128,0,13,,,,,5,,,52,85
35328,note_on,,,,,128,0,15,,,,,7,,,63,100
35328,note_on,,,,,128,0,16,,,,,7,,,52,100
35328,note_on,,,,,44,0,8,,,,,0,,,74,85
35328,note_on,,,,,0,0,15,,,,,7,,,59,100
35328,note_on,,,,,128,0,14,,,,,6,,,40,85
35452,note_off,,,,,124,0,8,,,,,0,,,74,100
35456,note_on,,,,,4,0,8,,,,,0,,,73,85
35580,note_off,,,,,124,0,8,,,,,0,,,73,100
35584,note_off,,,,,256,0,14,,,,,6,,,40,100
35584,note_off,,,,,256,0,13,,,,,5,,,52,100
35584,note_on,,,,,4,0,8,,,,,0,,,74,85
35584,note_off,,,,,256,0,15,,,,,7,,,63,100
35584,note_off,,,,,0,0,15,,,,,7,,,59,100
35584,note_off,,,,,256,0,16,,,,,7,,,52,100
35668,note_off,,,,,84,0,8,,,,,0,,,74,100
35712,note_on,,,,,128,0,16,,,,,7,,,57,100
35712,note_on,,,,,0,0,15,,,,,7,,,61,100
35712,note_on,,,,,44,0,8,,,,,0,,,73,85
35712,note_on,,,,,128,0,13,,,,,5,,,57,85
35712,note_on,,,,,128,0,14,,,,,6,,,45,85
35712,note_on,,,,,128,0,15,,,,,7,,,64,100
35796,note_off,,,,,84,0,8,,,,,0,,,73,100
35840,note_on,,,,,44,0,8,,,,,0,,,85,85
35924,note_off,,,,,84,0,8,,,,,0,,,85,100
35968,note_off,,,,,0,0,15,,,,,7,,,61,100
35968,note_on,,,,,44,0,8,,,,,0,,,83,85
35968,note_off,,,,,256,0,14,,,,,6,,,45,100
35968,note_off,,,,,256,0,15,,,,,7,,,64,100
35968,note_off,,,,,256,0,13,,,,,5,,,57,100
35968,note_off,,,,,256,0,16,,,,,7,,,57,100
36052,note_off,,,,,84,0,8,,,,,0,,,83,100
36096,note_on,,,,,44,0,8,,,,,0,,,81,85
36220,note_off,,,,,124,0,8,,,,,0,,,81,100
36224,note_on,,,,,4,0,8,,,,,0,,,83,85
36348,note_off,,,,,124,0,8,,,,,0,,,83,100
36352,note_on,,,,,4,0,8,,,,,0,,,85,85
36436,note_off,,,,,84,0,8,,,,,0,,,85,100
36480,note_on,,,,,44,0,8,,,,,0,,,81,85
36604,note_off,,,,,124,0,8,,,,,0,,,81,100
36608,note_on,,,,,4,0,8,,,,,0,,,83,85
36732,note_off,,,,,124,0,8,,,,,0,,,83,100
36736,note_on,,,,,4,0,8,,,,,0,,,85,85
36820,note_off,,,,,84,0,8,,,,,0,,,85,100
36864,note_on,,,,,896,0,14,,,,,6,,,49,85
36864,note_on,,,,,0,0,15,,,,,7,,,64,100
36864,note_on,,,,,44,0,8,,,,,0,,,76,85
36864,note_on,,,,,896,0,15,,,,,7,,,67,100
36864,note_on,,,,,896,0,13,,,,,5,,,61,85
36864,note_on,,,,,896,0,16,,,,,7,,,61,100
36988,note_off,,,,,124,0,8,,,,,0,,,76,100
36992,note_on,,,,,4,0,8,,,,,0,,,74,85
37116,note_off,,,,,124,0,8,,,,,0,,,74,100
37120,note_off,,,,,0,0,15,,,,,7,,,64,100
37120,note_on,,,,,4,0,8,,,,,0,,,76,85
37120,note_off,,,,,256,0,15,,,,,7,,,67,100
37120,note_off,,,,,256,0,14,,,,,6,,,49,100
37120,note_off,,,,,256,0,16,,,,,7,,,61,100
37120,note_off,,,,,256,0,13,,,,,5,,,61,100
37204,note_off,,,,,84,0,8,,,,,0,,,76,100
37248,note_on,,,,,128,0,15,,,,,7,,,66,100
37248,note_on,,,,,128,0,14,,,,,6,,,46,85
37248,note_on,,,,,128,0,16,,,,,7,,,58,100
37248,note_on,,,,,44,0,8,,,,,0,,,85,85
37248,note_on,,,,,128,0,13,,,,,5,,,58,85
37248,note_on,,,,,0,0,15,,,,,7,,,61,100
37372,note_off,,,,,124,0,8,,,,,0,,,85,100
37376,note_on,,,,,4,0,8,,,,,0,,,83,85
37500,note_off,,,,,124,0,8,,,,,0,,,83,100
37504,note_on,,,,,4,0,8,,,,,0,,,85,85
37504,note_off,,,,,256,0,15,,,,,7,,,66,100
37504,note_off,,,,,256,0,14,,,,,6,,,46,100
37504,note_off,,,,,0,0,15,,,,,7,,,61,100
37504,note_off,,,,,256,0,13,,,,,5,,,58,100
37504,note_off,,,,,256,0,16,,,,,7,,,58,100
37588,note_off,,,,,84,0,8,,,,,0,,,85,100
37632,note_on,,,,,128,0,14,,,,,6,,,42,85
37632,note_on,,,,,128,0,15,,,,,7,,,64,100
37632,note_on,,,,,0,0,15,,,,,7,,,61,100
37632,note_on,,,,,44,0,8,,,,,0,,,76,85
37632,note_on,,,,,128,0,16,,,,,7,,,54,100
37632,note_on,,,,,128,0,13,,,,,5,,,54,85
37756,note_off,,,,,124,0,8,,,,,0,,,76,100
37760,note_on,,,,,4,0,8,,,,,0,,,74,85
37884,note_off,,,,,124,0,8,,,,,0,,,74,100
37888,note_off,,,,,256,0,16,,,,,7,,,54,100
37888,note_off,,,,,0,0,15,,,,,7,,,61,100
37888,note_off,,,,,256,0,15,,,,,7,,,64,100
37888,note_off,,,,,256,0,13,,,,,5,,,54,100
37888,note_on,,,,,4,0,8,,,,,0,,,76,85
37888,note_off,,,,,256,0,14,,,,,6,,,42,100
37972,note_off,,,,,84,0,8,,,,,0,,,76,100
38016,note_on,,,,,128,0,16,,,,,7,,,59,100
38016,note_on,,,,,128,0,13,,,,,5,,,59,85
38016,note_on,,,,,128,0,14,,,,,6,,,47,85
38016,note_on,,,,,44,0,8,,,,,0,,,74,85
38016,note_on,,,,,128,0,15,,,,,7,,,66,100
38016,note_on,,,,,0,0,15,,,,,7,,,62,100
38100,note_off,,,,,84,0,8,,,,,0,,,74,100
38144,note_on,,,,,44,0,8,,,,,0,,,83,85
38228,note_off,,,,,84,0,8,,,,,0,,,83,100
38272,note_on,,,,,44,0,8,,,,,0,,,81,85
38272,note_off,,,,,256,0,13,,,,,5,,,59,100
38272,note_off,,,,,256,0,15,,,,,7,,,66,100
38272,note_off,,,,,0,0,15,,,,,7,,,62,100
38272,note_off,,,,,256,0,16,,,,,7,,,59,100
38272,note_off,,,,,256,0,14,,,,,6,,,47,100
38356,note_off,,,,,84,0,8,,,,,0,,,81,100
38400,note_on,,,,,44,0,8,,,,,0,,,79,85
38524,note_off,,,,,124,0,8,,,,,0,,,79,100
38528,note_on,,,,,4,0,8,,,,,0,,,81,85
38652,note_off,,,,,124,0,8,,,,,0,,,81,100
38656,note_on,,,,,4,0,8,,,,,0,,,83,85
38740,note_off,,,,,84,0,8,,,,,0,,,83,100
38784,note_on,,,,,44,0,8,,,,,0,,,79,85
38908,note_off,,,,,124,0,8,,,,,0,,,79,100
38912,note_on,,,,,4,0,8,,,,,0,,,78,85
39036,note_off,,,,,124,0,8,,,,,0,,,78,100
39040,note_on,,,,,4,0,8,,,,,0,,,79,85
39124,note_off,,,,,84,0,8,,,,,0,,,79,100
39168,note_on,,,,,896,0,13,,,,,5,,,55,85
39168,note_on,,,,,896,0,16,,,,,7,,,55,100
39168,note_on,,,,,0,0,15,,,,,7,,,59,100
39168,note_on,,,,,896,0,14,,,,,6,,,43,85
39168,note_on,,,,,44,0,8,,,,,0,,,76,85
39168,note_on,,,,,896,0,15,,,,,7,,,64,100
39252,note_off,,,,,84,0,8,,,,,0,,,76,100
39296,note_on,,,,,44,0,8,,,,,0,,,71,85
39380,note_off,,,,,84,0,8,,,,,0,,,71,100
39424,note_off,,,,,256,0,13,,,,,5,,,55,100
39424,note_on,,,,,44,0,8,,,,,0,,,76,85
39424,note_off,,,,,256,0,15,,,,,7,,,64,100
39424,note_off,,,,,0,0,15,,,,,7,,,59,100
39424,note_off,,,,,256,0,14,,,,,6,,,43,100
39424,note_off,,,,,256,0,16,,,,,7,,,55,100
39508,note_off,,,,,84,0,8,,,,,0,,,76,100
39552,note_on,,,,,128,0,15,,,,,7,,,62,100
39552,note_on,,,,,44,0,8,,,,,0,,,76,85
39552,note_on,,,,,128,0,14,,,,,6,,,44,85
39552,note_on,,,,,128,0,16,,,,,7,,,56,100
39552,note_on,,,,,128,0,13,,,,,5,,,56,85
39552,note_on,,,,,0,0,15,,,,,7,,,59,100
39636,note_off,,,,,84,0,8,,,,,0,,,76,100
39680,note_on,,,,,44,0,8,,,,,0,,,78,85
39764,note_off,,,,,84,0,8,,,,,0,,,78,100
39808,note_on,,,,,44,0,8,,,,,0,,,76,85
39808,note_off,,,,,256,0,13,,,,,5,,,56,100
39808,note_off,,,,,256,0,14,,,,,6,,,44,100
39808,note_off,,,,,256,0,16,,,,,7,,,56,100
39808,note_off,,,,,256,0,15,,,,,7,,,62,100
39808,note_off,,,,,0,0,15,,,,,7,,,59,100
39892,note_off,,,,,84,0,8,,,,,0,,,76,100
39936,note_on,,,,,128,0,13,,,,,5,,,52,85
39936,note_on,,,,,128,0,14,,,,,6,,,40,85
39936,note_on,,,,,128,0,16,,,,,7,,,52,100
39936,note_on,,,,,128,0,15,,,,,7,,,62,100
39936,note_on,,,,,44,0,8,,,,,0,,,74,85
39936,note_on,,,,,0,0,15,,,,,7,,,59,100
40020,note_off,,,,,84,0,8,,,,,0,,,74,100
40064,note_on,,,,,44,0,8,,,,,0,,,73,85
40148,note_off,,,,,84,0,8,,,,,0,,,73,100
40192,note_off,,,,,256,0,14,,,,,6,,,40,100
40192,note_off,,,,,0,0,15,,,,,7,,,59,100
40192,note_off,,,,,256,0,15,,,,,7,,,62,100
40192,note_off,,,,,256,0,13,,,,,5,,,52,100
40192,note_off,,,,,256,0,16,,,,,7,,,52,100
40192,note_on,,,,,44,0,8,,,,,0,,,74,85
40276,note_off,,,,,84,0,8,,,,,0,,,74,100
40320,note_on,,,,,0,0,15,,,,,7,,,61,100
40320,note_on,,,,,0,0,12,,,,,4,,,64,85
40320,note_on,,,,,128,0,14,,,,,6,,,45,85
40320,note_on,,,,,128,0,15,,,,,7,,,69,100
40320,note_on,,,,,44,0,8,,,,,0,,,73,85
40320,note_on,,,,,8960,0,11,,,,,3,,,73,75
40320,note_on,,,,,8960,0,12,,,,,4,,,69,85
40320,note_on,,,,,128,0,13,,,,,5,,,57,85
40320,note_on,,,,,8960,0,9,,,,,1,,,81,75
40320,note_on,,,,,128,0,16,,,,,7,,,57,100
40320,note_on,,,,,8960,0,10,,,,,2,,,73,75
40404,note_off,,,,,84,0,8,,,,,0,,,73,100
40448,note_on,,,,,44,0,8,,,,,0,,,81,85
40532,note_off,,,,,84,0,8,,,,,0,,,81,100
40576,note_off,,,,,256,0,13,,,,,5,,,57,100
40576,note_on,,,,,44,0,8,,,,,0,,,80,85
40576,note_off,,,,,256,0,14,,,,,6,,,45,100
40576,note_off,,,,,256,0,12,,,,,4,,,69,100
40576,note_off,,,,,256,0,11,,,,,3,,,73,100
40576,note_off,,,,,0,0,12,,,,,4,,,64,100
40576,note_off,,,,,256,0,16,,,,,7,,,57,100
40576,note_off,,,,,256,0,9,,,,,1,,,81,100
40576,note_off,,,,,256,0,10,,,,,2,,,73,100
40576,note_off,,,,,256,0,15,,,,,7,,,69,100
40576,note_off,,,,,0,0,15,,,,,7,,,61,100
40660,note_off,,,,,84,0,8,,,,,0,,,80,100
40704,note_on,,,,,128,0,13,,,,,5,,,45,85
40704,note_on,,,,,44,0,8,,,,,0,,,81,85
40704,note_on,,,,,128,0,14,,,,,6,,,33,85
40704,note_on,,,,,128,0,16,,,,,7,,,45,100
40704,note_on,,,,,128,0,15,,,,,7,,,64,100
40704,note_on,,,,,0,0,15,,,,,7,,,61,100
40788,note_off,,,,,84,0,8,,,,,0,,,81,100
40832,note_on,,,,,44,0,8,,,,,0,,,69,85
40916,note_off,,,,,84,0,8,,,,,0,,,69,100
40960,note_off,,,,,256,0,14,,,,,6,,,33,100
40960,note_off,,,,,256,0,16,,,,,7,,,45,100
40960,note_off,,,,,256,0,13,,,,,5,,,45,100
40960,note_off,,,,,256,0,15,,,,,7,,,64,100
40960,note_on,,,,,44,0,8,,,,,0,,,81,85
40960,note_off,,,,,0,0,15,,,,,7,,,61,100
41044,note_off,,,,,84,0,8,,,,,0,,,81,100
41088,note_on,,,,,128,0,16,,,,,7,,,45,100
41088,note_on,,,,,128,0,14,,,,,6,,,33,85
41088,note_on,,,,,128,0,13,,,,,5,,,45,85
41088,note_on,,,,,128,0,15,,,,,7,,,64,100
41088,note_on,,,,,0,0,15,,,,,7,,,61,100
41088,note_on,,,,,44,0,8,,,,,0,,,81,85
41172,note_off,,,,,84,0,8,,,,,0,,,81,100
41216,note_on,,,,,44,0,8,,,,,0,,,69,85
41300,note_off,,,,,84,0,8,,,,,0,,,69,100
41344,note_off,,,,,256,0,16,,,,,7,,,45,100
41344,note_off,,,,,256,0,15,,,,,7,,,64,100
41344,note_off,,,,,0,0,15,,,,,7,,,61,100
41344,note_off,,,,,256,0,13,,,,,5,,,45,100
41344,note_on,,,,,44,0,8,,,,,0,,,81,85
41344,note_off,,,,,256,0,14,,,,,6,,,33,100
41428,note_off,,,,,84,0,8,,,,,0,,,81,100
41472,note_on,,,,,128,0,15,,,,,7,,,66,100
41472,note_on,,,,,0,0,15,,,,,7,,,69,100
41472,note_on,,,,,896,0,10,,,,,2,,,74,75
41472,note_on,,,,,128,0,14,,,,,6,,,35,85
41472,note_on,,,,,896,0,12,,,,,4,,,62,85
41472,note_on,,,,,0,0,12,,,,,4,,,66,85
41472,note_on,,,,,896,0,9,,,,,1,,,81,75
41472,note_on,,,,,128,0,16,,,,,7,,,47,100
41472,note_on,,,,,896,0,11,,,,,3,,,74,75
41472,note_on,,,,,128,0,13,,,,,5,,,47,85
41472,note_on,,,,,44,0,8,,,,,0,,,81,85
41556,note_off,,,,,84,0,8,,,,,0,,,81,100
41600,note_on,,,,,44,0,8,,,,,0,,,74,85
41684,note_off,,,,,84,0,8,,,,,0,,,74,100
41728,note_off,,,,,256,0,14,,,,,6,,,35,100
41728,note_off,,,,,256,0,13,,,,,5,,,47,100
41728,note_off,,,,,256,0,15,,,,,7,,,66,100
41728,note_off,,,,,0,0,15,,,,,7,,,69,100
41728,note_off,,,,,256,0,10,,,,,2,,,74,100
41728,note_off,,,,,256,0,11,,,,,3,,,74,100
41728,note_off,,,,,256,0,12,,,,,4,,,62,100
41728,note_off,,,,,0,0,12,,,,,4,,,66,100
41728,note_off,,,,,256,0,16,,,,,7,,,47,100
41728,note_off,,,,,256,0,9,,,,,1,,,81,100
41728,note_on,,,,,44,0,8,,,,,0,,,81,85
41812,note_off,,,,,84,0,8,,,,,0,,,81,100
41856,note_on,,,,,128,0,16,,,,,7,,,47,100
41856,note_on,,,,,128,0,13,,,,,5,,,47,85
41856,note_on,,,,,44,0,8,,,,,0,,,81,85
41856,note_on,,,,,0,0,15,,,,,7,,,62,100
41856,note_on,,,,,128,0,14,,,,,6,,,35,85
41856,note_on,,,,,128,0,15,,,,,7,,,66,100
41940,note_off,,,,,84,0,8,,,,,0,,,81,100
41984,note_on,,,,,44,0,8,,,,,0,,,74,85
42068,note_off,,,,,84,0,8,,,,,0,,,74,100
42112,note_on,,,,,44,0,8,,,,,0,,,81,85
42112,note_off,,,,,0,0,15,,,,,7,,,62,100
42112,note_off,,,,,256,0,16,,,,,7,,,47,100
42112,note_off,,,,,256,0,15,,,,,7,,,66,100
42112,note_off,,,,,256,0,13,,,,,5,,,47,100
42112,note_off,,,,,256,0,14,,,,,6,,,35,100
42196,note_off,,,,,84,0,8,,,,,0,,,81,100
42240,note_on,,,,,128,0,13,,,,,5,,,47,85
42240,note_on,,,,,0,0,15,,,,,7,,,62,100
42240,note_on,,,,,128,0,16,,,,,7,,,47,100
42240,note_on,,,,,44,0,8,,,,,0,,,81,85
42240,note_on,,,,,128,0,15,,,,,7,,,66,100
42240,note_on,,,,,128,0,14,,,,,6,,,35,85
42324,note_off,,,,,84,0,8,,,,,0,,,81,100
42368,note_on,,,,,44,0,8,,,,,0,,,74,85
42452,note_off,,,,,84,0,8,,,,,0,,,74,100
42496,note_on,,,,,44,0,8,,,,,0,,,81,85
42496,note_off,,,,,0,0,15,,,,,7,,,62,100
42496,note_off,,,,,256,0,13,,,,,5,,,47,100
42496,note_off,,,,,256,0,16,,,,,7,,,47,100
42496,note_off,,,,,256,0,14,,,,,6,,,35,100
42496,note_off,,,,,256,0,15,,,,,7,,,66,100
42580,note_off,,,,,84,0,8,,,,,0,,,81,100
42624,note_on,,,,,0,0,15,,,,,7,,,69,100
42624,note_on,,,,,128,0,15,,,,,7,,,67,100
42624,note_on,,,,,896,0,9,,,,,1,,,81,75
42624,note_on,,,,,0,0,12,,,,,4,,,64,85
42624,note_on,,,,,896,0,12,,,,,4,,,61,85
42624,note_on,,,,,896,0,11,,,,,3,,,76,75
42624,note_on,,,,,128,0,16,,,,,7,,,49,100
42624,note_on,,,,,44,0,8,,,,,0,,,81,85
42624,note_on,,,,,896,0,10,,,,,2,,,76,75
42624,note_on,,,,,128,0,14,,,,,6,,,37,85
42624,note_on,,,,,128,0,13,,,,,5,,,49,85
42708,note_off,,,,,84,0,8,,,,,0,,,81,100
42752,note_on,,,,,44,0,8,,,,,0,,,76,85
42836,note_off,,,,,84,0,8,,,,,0,,,76,100
42880,note_off,,,,,256,0,15,,,,,7,,,67,100
42880,note_off,,,,,0,0,15,,,,,7,,,69,100
42880,note_off,,,,,256,0,16,,,,,7,,,49,100
42880,note_off,,,,,256,0,14,,,,,6,,,37,100
42880,note_off,,,,,0,0,12,,,,,4,,,64,100
42880,note_off,,,,,256,0,12,,,,,4,,,61,100
42880,note_off,,,,,256,0,11,,,,,3,,,76,100
42880,note_off,,,,,256,0,13,,,,,5,,,49,100
42880,note_off,,,,,256,0,9,,,,,1,,,81,100
42880,note_on,,,,,44,0,8,,,,,0,,,81,85
42880,note_off,,,,,256,0,10,,,,,2,,,76,100
42964,note_off,,,,,84,0,8,,,,,0,,,81,100
43008,note_on,,,,,128,0,13,,,,,5,,,49,85
43008,note_on,,,,,128,0,14,,,,,6,,,37,85
43008,note_on,,,,,128,0,16,,,,,7,,,49,100
43008,note_on,,,,,0,0,15,,,,,7,,,69,100
43008,note_on,,,,,44,0,8,,,,,0,,,81,85
43008,note_on,,,,,128,0,15,,,,,7,,,64,100
43092,note_off,,,,,84,0,8,,,,,0,,,81,100
43136,note_on,,,,,44,0,8,,,,,0,,,76,85
43220,note_off,,,,,84,0,8,,,,,0,,,76,100
43264,note_off,,,,,256,0,14,,,,,6,,,37,100
43264,note_off,,,,,256,0,15,,,,,7,,,64,100
43264,note_off,,,,,0,0,15,,,,,7,,,69,100
43264,note_on,,,,,44,0,8,,,,,0,,,81,85
43264,note_off,,,,,256,0,16,,,,,7,,,49,100
43264,note_off,,,,,256,0,13,,,,,5,,,49,100
43348,note_off,,,,,84,0,8,,,,,0,,,81,100
43392,note_on,,,,,128,0,14,,,,,6,,,37,85
43392,note_on,,,,,128,0,16,,,,,7,,,49,100
43392,note_on,,,,,128,0,15,,,,,7,,,64,100
43392,note_on,,,,,0,0,15,,,,,7,,,69,100
43392,note_on,,,,,128,0,13,,,,,5,,,49,85
43392,note_on,,,,,44,0,8,,,,,0,,,81,85
43476,note_off,,,,,84,0,8,,,,,0,,,81,100
43520,note_on,,,,,44,0,8,,,,,0,,,76,85
43604,note_off,,,,,84,0,8,,,,,0,,,76,100
43648,note_off,,,,,0,0,15,,,,,7,,,69,100
43648,note_off,,,,,256,0,15,,,,,7,,,64,100
43648,note_off,,,,,256,0,14,,,,,6,,,37,100
43648,note_off,,,,,256,0,16,,,,,7,,,49,100
43648,note_on,,,,,44,0,8,,,,,0,,,81,85
43648,note_off,,,,,256,0,13,,,,,5,,,49,100
43732,note_off,,,,,84,0,8,,,,,0,,,81,100
43776,note_on,,,,,896,0,9,,,,,1,,,81,75
43776,note_on,,,,,896,0,12,,,,,4,,,62,85
43776,note_on,,,,,128,0,14,,,,,6,,,38,85
43776,note_on,,,,,128,0,16,,,,,7,,,50,100
43776,note_on,,,,,44,0,8,,,,,0,,,81,85
43776,note_on,,,,,128,0,13,,,,,5,,,50,85
43776,note_on,,,,,0,0,12,,,,,4,,,57,85
43776,note_on,,,,,896,0,11,,,,,3,,,78,75
43776,note_on,,,,,896,0,10,,,,,2,,,78,75
43776,note_on,,,,,128,0,15,,,,,7,,,69,100
43776,note_on,,,,,0,0,15,,,,,7,,,74,100
43860,note_off,,,,,84,0,8,,,,,0,,,81,100
43904,note_on,,,,,44,0,8,,,,,0,,,78,85
43988,note_off,,,,,84,0,8,,,,,0,,,78,100
44032,note_off,,,,,0,0,15,,,,,7,,,74,100
44032,note_off,,,,,256,0,9,,,,,1,,,81,100
44032,note_off,,,,,256,0,14,,,,,6,,,38,100
44032,note_off,,,,,256,0,15,,,,,7,,,69,100
44032,note_off,,,,,256,0,12,,,,,4,,,62,100
44032,note_off,,,,,0,0,12,,,,,4,,,57,100
44032,note_off,,,,,256,0,10,,,,,2,,,78,100
44032,note_off,,,,,256,0,11,,,,,3,,,78,100
44032,note_on,,,,,44,0,8,,,,,0,,,81,85
44032,note_off,,,,,256,0,16,,,,,7,,,50,100
44032,note_off,,,,,256,0,13,,,,,5,,,50,100
44116,note_off,,,,,84,0,8,,,,,0,,,81,100
44160,note_on,,,,,128,0,13,,,,,5,,,50,85
44160,note_on,,,,,44,0,8,,,,,0,,,81,85
44160,note_on,,,,,128,0,14,,,,,6,,,38,85
44160,note_on,,,,,0,0,15,,,,,7,,,69,100
44160,note_on,,,,,128,0,15,,,,,7,,,66,100
44160,note_on,,,,,128,0,16,,,,,7,,,50,100
44244,note_off,,,,,84,0,8,,,,,0,,,81,100
44288,note_on,,,,,44,0,8,,,,,0,,,78,85
44372,note_off,,,,,84,0,8,,,,,0,,,78,100
44416,note_off,,,,,256,0,15,,,,,7,,,66,100
44416,note_off,,,,,256,0,13,,,,,5,,,50,100
44416,note_off,,,,,256,0,16,,,,,7,,,50,100
44416,note_off,,,,,0,0,15,,,,,7,,,69,100
44416,note_off,,,,,256,0,14,,,,,6,,,38,100
44416,note_on,,,,,44,0,8,,,,,0,,,81,85
44500,note_off,,,,,84,0,8,,,,,0,,,81,100
44544,note_on,,,,,128,0,14,,,,,6,,,38,85
44544,note_on,,,,,128,0,16,,,,,7,,,50,100
44544,note_on,,,,,128,0,15,,,,,7,,,66,100
44544,note_on,,,,,0,0,15,,,,,7,,,69,100
44544,note_on,,,,,44,0,8,,,,,0,,,81,85
44544,note_on,,,,,128,0,13,,,,,5,,,50,85
44628,note_off,,,,,84,0,8,,,,,0,,,81,100
44672,note_on,,,,,44,0,8,,,,,0,,,78,85
44756,note_off,,,,,84,0,8,,,,,0,,,78,100
44800,note_on,,,,,44,0,8,,,,,0,,,81,85
44800,note_off,,,,,256,0,16,,,,,7,,,50,100
44800,note_off,,,,,0,0,15,,,,,7,,,69,100
44800,note_off,,,,,256,0,15,,,,,7,,,66,100
44800,note_off,,,,,256,0,14,,,,,6,,,38,100
44800,note_off,,,,,256,0,13,,,,,5,,,50,100
44884,note_off,,,,,84,0,8,,,,,0,,,81,100
44928,note_on,,,,,128,0,13,,,,,5,,,45,85
44928,note_on,,,,,128,0,16,,,,,7,,,45,100
44928,note_on,,,,,896,0,12,,,,,4,,,64,85
44928,note_on,,,,,128,0,14,,,,,6,,,33,85
44928,note_on,,,,,896,0,10,,,,,2,,,73,75
44928,note_on,,,,,44,0,8,,,,,0,,,81,85
44928,note_on,,,,,0,0,15,,,,,7,,,69,100
44928,note_on,,,,,0,0,12,,,,,4,,,61,85
44928,note_on,,,,,896,0,11,,,,,3,,,73,75
44928,note_on,,,,,896,0,9,,,,,1,,,81,75
44928,note_on,,,,,128,0,15,,,,,7,,,64,100
45012,note_off,,,,,84,0,8,,,,,0,,,81,100
45056,note_on,,,,,44,0,8,,,,,0,,,73,85
45140,note_off,,,,,84,0,8,,,,,0,,,73,100
45184,note_off,,,,,256,0,16,,,,,7,,,45,100
45184,note_off,,,,,256,0,14,,,,,6,,,33,100
45184,note_off,,,,,0,0,15,,,,,7,,,69,100
45184,note_off,,,,,256,0,15,,,,,7,,,64,100
45184,note_off,,,,,256,0,12,,,,,4,,,64,100
45184,note_off,,,,,0,0,12,,,,,4,,,61,100
45184,note_off,,,,,256,0,11,,,,,3,,,73,100
45184,note_off,,,,,256,0,13,,,,,5,,,45,100
45184,note_off,,,,,256,0,10,,,,,2,,,73,100
45184,note_on,,,,,44,0,8,,,,,0,,,81,85
45184,note_off,,,,,256,0,9,,,,,1,,,81,100
45268,note_off,,,,,84,0,8,,,,,0,,,81,100
45312,note_on,,,,,128,0,13,,,,,5,,,45,85
45312,note_on,,,,,0,0,15,,,,,7,,,64,100
45312,note_on,,,,,128,0,15,,,,,7,,,61,100
45312,note_on,,,,,128,0,14,,,,,6,,,33,85
45312,note_on,,,,,44,0,8,,,,,0,,,81,85
45312,note_on,,,,,128,0,16,,,,,7,,,45,100
45396,note_off,,,,,84,0,8,,,,,0,,,81,100
45440,note_on,,,,,44,0,8,,,,,0,,,73,85
45524,note_off,,,,,84,0,8,,,,,0,,,73,100
45568,note_off,,,,,256,0,14,,,,,6,,,33,100
45568,note_off,,,,,0,0,15,,,,,7,,,64,100
45568,note_off,,,,,256,0,15,,,,,7,,,61,100
45568,note_off,,,,,256,0,16,,,,,7,,,45,100
45568,note_off,,,,,256,0,13,,,,,5,,,45,100
45568,note_on,,,,,44,0,8,,,,,0,,,81,85
45652,note_off,,,,,84,0,8,,,,,0,,,81,100
45696,note_on,,,,,128,0,14,,,,,6,,,33,85
45696,note_on,,,,,44,0,8,,,,,0,,,81,85
45696,note_on,,,,,0,0,15,,,,,7,,,64,100
45696,note_on,,,,,128,0,16,,,,,7,,,45,100
45696,note_on,,,,,128,0,13,,,,,5,,,45,85
45696,note_on,,,,,128,0,15,,,,,7,,,61,100
45780,note_off,,,,,84,0,8,,,,,0,,,81,100
45824,note_on,,,,,44,0,8,,,,,0,,,73,85
45908,note_off,,,,,84,0,8,,,,,0,,,73,100
45952,note_off,,,,,256,0,15,,,,,7,,,61,100
45952,note_off,,,,,0,0,15,,,,,7,,,64,100
45952,note_off,,,,,256,0,14,,,,,6,,,33,100
45952,note_on,,,,,44,0,8,,,,,0,,,81,85
45952,note_off,,,,,256,0,13,,,,,5,,,45,100
45952,note_off,,,,,256,0,16,,,,,7,,,45,100
46036,note_off,,,,,84,0,8,,,,,0,,,81,100
46080,note_on,,,,,44,0,8,,,,,0,,,81,85
46080,note_on,,,,,896,0,9,,,,,1,,,81,75
46080,note_on,,,,,128,0,13,,,,,5,,,50,85
46080,note_on,,,,,128,0,15,,,,,7,,,69,100
46080,note_on,,,,,128,0,14,,,,,6,,,38,85
46080,note_on,,,,,896,0,12,,,,,4,,,66,85
46080,note_on,,,,,896,0,10,,,,,2,,,71,75
46080,note_on,,,,,0,0,15,,,,,7,,,71,100
46080,note_on,,,,,128,0,16,,,,,7,,,50,100
46080,note_on,,,,,896,0,11,,,,,3,,,71,75
46080,note_on,,,,,0,0,12,,,,,4,,,62,85
46164,note_off,,,,,84,0,8,,,,,0,,,81,100
46208,note_on,,,,,44,0,8,,,,,0,,,71,85
46292,note_off,,,,,84,0,8,,,,,0,,,71,100
46336,note_off,,,,,256,0,15,,,,,7,,,69,100
46336,note_off,,,,,0,0,15,,,,,7,,,71,100
46336,note_on,,,,,44,0,8,,,,,0,,,81,85
46336,note_off,,,,,256,0,13,,,,,5,,,50,100
46336,note_off,,,,,256,0,16,,,,,7,,,50,100
46336,note_off,,,,,256,0,14,,,,,6,,,38,100
46336,note_off,,,,,256,0,11,,,,,3,,,71,100
46336,note_off,,,,,256,0,9,,,,,1,,,81,100
46336,note_off,,,,,256,0,12,,,,,4,,,66,100
46336,note_off,,,,,0,0,12,,,,,4,,,62,100
46336,note_off,,,,,256,0,10,,,,,2,,,71,100
46420,note_off,,,,,84,0,8,,,,,0,,,81,100
46464,note_on,,,,,44,0,8,,,,,0,,,81,85
46464,note_on,,,,,128,0,14,,,,,6,,,38,85
46464,note_on,,,,,128,0,16,,,,,7,,,50,100
46464,note_on,,,,,128,0,13,,,,,5,,,50,85
46464,note_on,,,,,0,0,15,,,,,7,,,69,100
46464,note_on,,,,,128,0,15,,,,,7,,,66,100
46548,note_off,,,,,84,0,8,,,,,0,,,81,100
46592,note_on,,,,,44,0,8,,,,,0,,,71,85
46676,note_off,,,,,84,0,8,,,,,0,,,71,100
46720,note_off,,,,,256,0,13,,,,,5,,,50,100
46720,note_off,,,,,256,0,15,,,,,7,,,66,100
46720,note_off,,,,,0,0,15,,,,,7,,,69,100
46720,note_off,,,,,256,0,14,,,,,6,,,38,100
46720,note_off,,,,,256,0,16,,,,,7,,,50,100
46720,note_on,,,,,44,0,8,,,,,0,,,81,85
46804,note_off,,,,,84,0,8,,,,,0,,,81,100
46848,note_on,,,,,44,0,8,,,,,0,,,81,85
46848,note_on,,,,,128,0,14,,,,,6,,,38,85
46848,note_on,,,,,128,0,13,,,,,5,,,50,85
46848,note_on,,,,,0,0,15,,,,,7,,,69,100
46848,note_on,,,,,128,0,16,,,,,7,,,50,100
46848,note_on,,,,,128,0,15,,,,,7,,,66,100
46932,note_off,,,,,84,0,8,,,,,0,,,81,100
46976,note_on,,,,,44,0,8,,,,,0,,,71,85
47060,note_off,,,,,84,0,8,,,,,0,,,71,100
47104,note_off,,,,,256,0,13,,,,,5,,,50,100
47104,note_off,,,,,256,0,14,,,,,6,,,38,100
47104,note_off,,,,,256,0,16,,,,,7,,,50,100
47104,note_on,,,,,44,0,8,,,,,0,,,81,85
47104,note_off,,,,,0,0,15,,,,,7,,,69,100
47104,note_off,,,,,256,0,15,,,,,7,,,66,100
47188,note_off,,,,,84,0,8,,,,,0,,,81,100
47232,note_on,,,,,0,0,12,,,,,4,,,59,85
47232,note_on,,,,,896,0,12,,,,,4,,,64,85
47232,note_on,,,,,44,0,8,,,,,0,,,80,85
47232,note_on,,,,,128,0,14,,,,,6,,,40,85
47232,note_on,,,,,128,0,13,,,,,5,,,52,85
47232,note_on,,,,,896,0,11,,,,,3,,,71,75
47232,note_on,,,,,896,0,9,,,,,1,,,80,75
47232,note_on,,,,,896,0,10,,,,,2,,,71,75
47232,note_on,,,,,128,0,16,,,,,7,,,52,100
47232,note_on,,,,,128,0,15,,,,,7,,,68,100
47232,note_on,,,,,0,0,15,,,,,7,,,76,100
47316,note_off,,,,,84,0,8,,,,,0,,,80,100
47360,note_on,,,,,44,0,8,,,,,0,,,71,85
47444,note_off,,,,,84,0,8,,,,,0,,,71,100
47488,note_on,,,,,44,0,8,,,,,0,,,80,85
47488,note_off,,,,,256,0,10,,,,,2,,,71,100
47488,note_off,,,,,256,0,14,,,,,6,,,40,100
47488,note_off,,,,,0,0,15,,,,,7,,,76,100
47488,note_off,,,,,256,0,15,,,,,7,,,68,100
47488,note_off,,,,,256,0,16,,,,,7,,,52,100
47488,note_off,,,,,256,0,11,,,,,3,,,71,100
47488,note_off,,,,,256,0,9,,,,,1,,,80,100
47488,note_off,,,,,256,0,12,,,,,4,,,64,100
47488,note_off,,,,,0,0,12,,,,,4,,,59,100
47488,note_off,,,,,256,0,13,,,,,5,,,52,100
47572,note_off,,,,,84,0,8,,,,,0,,,80,100
47616,note_on,,,,,128,0,15,,,,,7,,,68,100
47616,note_on,,,,,128,0,14,,,,,6,,,40,85
47616,note_on,,,,,0,0,15,,,,,7,,,71,100
47616,note_on,,,,,44,0,8,,,,,0,,,80,85
47616,note_on,,,,,128,0,16,,,,,7,,,52,100
47616,note_on,,,,,128,0,13,,,,,5,,,52,85
47700,note_off,,,,,84,0,8,,,,,0,,,80,100
47744,note_on,,,,,44,0,8,,,,,0,,,71,85
47828,note_off,,,,,84,0,8,,,,,0,,,71,100
47872,note_off,,,,,256,0,16,,,,,7,,,52,100
47872,note_off,,,,,256,0,13,,,,,5,,,52,100
47872,note_on,,,,,44,0,8,,,,,0,,,80,85
47872,note_off,,,,,256,0,14,,,,,6,,,40,100
47872,note_off,,,,,0,0,15,,,,,7,,,71,100
47872,note_off,,,,,256,0,15,,,,,7,,,68,100
47956,note_off,,,,,84,0,8,,,,,0,,,80,100
48000,note_on,,,,,128,0,14,,,,,6,,,40,85
48000,note_on,,,,,128,0,15,,,,,7,,,68,100
48000,note_on,,,,,0,0,15,,,,,7,,,71,100
48000,note_on,,,,,128,0,13,,,,,5,,,52,85
48000,note_on,,,,,128,0,16,,,,,7,,,52,100
48000,note_on,,,,,44,0,8,,,,,0,,,80,85
48084,note_off,,,,,84,0,8,,,,,0,,,80,100
48128,note_on,,,,,44,0,8,,,,,0,,,71,85
48212,note_off,,,,,84,0,8,,,,,0,,,71,100
48256,note_off,,,,,256,0,13,,,,,5,,,52,100
48256,note_off,,,,,0,0,15,,,,,7,,,71,100
48256,note_off,,,,,256,0,15,,,,,7,,,68,100
48256,note_off,,,,,256,0,14,,,,,6,,,40,100
48256,note_on,,,,,44,0,8,,,,,0,,,80,85
48256,note_off,,,,,256,0,16,,,,,7,,,52,100
48340,note_off,,,,,84,0,8,,,,,0,,,80,100
48384,note_on,,,,,896,0,12,,,,,4,,,64,85
48384,note_on,,,,,128,0,15,,,,,7,,,69,100
48384,note_on,,,,,0,0,15,,,,,7,,,73,100
48384,note_on,,,,,128,0,13,,,,,5,,,45,85
48384,note_on,,,,,44,0,8,,,,,0,,,81,85
48384,note_on,,,,,896,0,11,,,,,3,,,73,75
48384,note_on,,,,,128,0,16,,,,,7,,,45,100
48384,note_on,,,,,896,0,10,,,,,2,,,73,75
48384,note_on,,,,,128,0,14,,,,,6,,,33,85
48384,note_on,,,,,0,0,12,,,,,4,,,57,85
48384,note_on,,,,,896,0,9,,,,,1,,,81,75
48468,note_off,,,,,84,0,8,,,,,0,,,81,100
48512,note_on,,,,,44,0,8,,,,,0,,,76,85
48596,note_off,,,,,84,0,8,,,,,0,,,76,100
48640,note_off,,,,,256,0,16,,,,,7,,,45,100
48640,note_off,,,,,0,0,12,,,,,4,,,57,100
48640,note_off,,,,,0,0,15,,,,,7,,,73,100
48640,note_on,,,,,44,0,8,,,,,0,,,81,85
48640,note_off,,,,,256,0,14,,,,,6,,,33,100
48640,note_off,,,,,256,0,12,,,,,4,,,64,100
48640,note_off,,,,,256,0,13,,,,,5,,,45,100
48640,note_off,,,,,256,0,10,,,,,2,,,73,100
48640,note_off,,,,,256,0,11,,,,,3,,,73,100
48640,note_off,,,,,256,0,9,,,,,1,,,81,100
48640,note_off,,,,,256,0,15,,,,,7,,,69,100
48724,note_off,,,,,84,0,8,,,,,0,,,81,100
48768,note_on,,,,,44,0,8,,,,,0,,,73,85
48852,note_off,,,,,84,0,8,,,,,0,,,73,100
48896,note_on,,,,,44,0,8,,,,,0,,,76,85
48980,note_off,,,,,84,0,8,,,,,0,,,76,100
49024,note_on,,,,,44,0,8,,,,,0,,,73,85
49108,note_off,,,,,84,0,8,,,,,0,,,73,100
49152,note_on,,,,,44,0,8,,,,,0,,,69,85
49236,note_off,,,,,84,0,8,,,,,0,,,69,100
49280,note_on,,,,,44,0,8,,,,,0,,,73,85
49364,note_off,,,,,84,0,8,,,,,0,,,73,100
49408,note_on,,,,,44,0,8,,,,,0,,,69,85
49492,note_off,,,,,84,0,8,,,,,0,,,69,100
49536,note_on,,,,,896,0,9,,,,,1,,,81,75
49536,note_on,,,,,896,0,14,,,,,6,,,33,85
49536,note_on,,,,,896,0,12,,,,,4,,,57,85
49536,note_on,,,,,896,0,16,,,,,7,,,45,100
49536,note_on,,,,,896,0,13,,,,,5,,,45,85
49536,note_on,,,,,896,0,10,,,,,2,,,73,75
49536,note_on,,,,,896,0,11,,,,,3,,,73,75
49536,note_on,,,,,44,0,8,,,,,0,,,64,85
49536,note_on,,,,,0,0,15,,,,,7,,,73,100
49536,note_on,,,,,896,0,15,,,,,7,,,69,100
49536,note_on,,,,,0,0,12,,,,,4,,,64,85
49620,note_off,,,,,84,0,8,,,,,0,,,64,100
49664,note_on,,,,,44,0,8,,,,,0,,,73,85
49748,note_off,,,,,84,0,8,,,,,0,,,73,100
49792,note_off,,,,,256,0,10,,,,,2,,,73,100
49792,note_on,,,,,44,0,8,,,,,0,,,69,85
49792,note_off,,,,,256,0,11,,,,,3,,,73,100
49792,note_off,,,,,256,0,14,,,,,6,,,33,100
49792,note_off,,,,,0,0,15,,,,,7,,,73,100
49792,note_off,,,,,256,0,15,,,,,7,,,69,100
49792,note_off,,,,,256,0,13,,,,,5,,,45,100
49792,note_off,,,,,256,0,12,,,,,4,,,57,100
49792,note_off,,,,,0,0,12,,,,,4,,,64,100
49792,note_off,,,,,256,0,9,,,,,1,,,81,100
49792,note_off,,,,,256,0,16,,,,,7,,,45,100
49876,note_off,,,,,84,0,8,,,,,0,,,69,100
49920,note_on,,,,,44,0,8,,,,,0,,,64,85
50004,note_off,,,,,84,0,8,,,,,0,,,64,100
50048,note_on,,,,,44,0,8,,,,,0,,,69,85
50132,note_off,,,,,84,0,8,,,,,0,,,69,100
50176,note_on,,,,,44,0,8,,,,,0,,,64,85
50260,note_off,,,,,84,0,8,,,,,0,,,64,100
50304,note_on,,,,,44,0,8,,,,,0,,,61,85
50388,note_off,,,,,84,0,8,,,,,0,,,61,100
50432,note_on,,,,,44,0,8,,,,,0,,,64,85
50516,note_off,,,,,84,0,8,,,,,0,,,64,100
50560,note_on,,,,,44,0,8,,,,,0,,,61,85
50644,note_off,,,,,84,0,8,,,,,0,,,61,100
50684,program_change,,,,,40,0,8,,,,,0,48,,,
50684,program_change,,,,,892,0,11,,,,,3,40,,,
50688,note_on,,,,,896,0,16,,,,,7,,,45,100
50688,note_on,,,,,896,0,9,,,,,1,,,81,50
50688,note_on,,,,,896,0,10,,,,,2,,,73,50
50688,note_on,,,,,896,0,14,,,,,6,,,33,60
50688,note_on,,,,,0,0,12,,,,,4,,,64,60
50688,note_on,,,,,896,0,12,,,,,4,,,69,60
50688,note_on,,,,,896,0,13,,,,,5,,,45,60
50688,note_on,,,,,896,0,15,,,,,7,,,69,100
50688,note_on,,,,,0,0,15,,,,,7,,,61,100
50688,note_on,,,,,4,0,11,,,,,3,,,73,60
50692,program_change,,,,,4,0,10,,,,,2,40,,,
50696,note_on,,,,,12,0,8,,,,,0,,,57,70
50736,note_on,,,,,40,0,8,,,,,0,,,59,70
50740,note_off,,,,,4,0,8,,,,,0,,,57,100
50772,note_off,,,,,84,0,11,,,,,3,,,73,100
50780,note_off,,,,,40,0,8,,,,,0,,,59,100
50784,note_on,,,,,4,0,8,,,,,0,,,57,70
50816,note_on,,,,,44,0,11,,,,,3,,,81,60
50828,note_off,,,,,44,0,8,,,,,0,,,57,100
50832,note_on,,,,,4,0,8,,,,,0,,,59,70
50876,note_off,,,,,44,0,8,,,,,0,,,59,100
50880,note_on,,,,,4,0,8,,,,,0,,,57,70
50900,note_off,,,,,84,0,11,,,,,3,,,81,100
50944,note_on,,,,,44,0,11,,,,,3,,,80,60
50944,note_off,,,,,256,0,15,,,,,7,,,69,100
50944,note_off,,,,,252,0,10,,,,,2,,,73,100
50944,note_off,,,,,0,0,15,,,,,7,,,61,100
50944,note_off,,,,,256,0,13,,,,,5,,,45,100
50944,note_off,,,,,256,0,16,,,,,7,,,45,100
50944,note_off,,,,,256,0,14,,,,,6,,,33,100
50944,note_off,,,,,0,0,12,,,,,4,,,64,100
50944,note_off,,,,,256,0,12,,,,,4,,,69,100
50944,note_off,,,,,256,0,9,,,,,1,,,81,100
51028,note_off,,,,,84,0,11,,,,,3,,,80,100
51068,note_off,,,,,188,0,8,,,,,0,,,57,100
51072,note_on,,,,,128,0,14,,,,,6,,,33,60
51072,note_on,,,,,128,0,13,,,,,5,,,45,60
51072,note_on,,,,,44,0,11,,,,,3,,,81,60
51072,note_on,,,,,128,0,16,,,,,7,,,45,100
51072,note_on,,,,,128,0,15,,,,,7,,,64,100
51072,note_on,,,,,0,0,15,,,,,7,,,61,100
51072,program_change,,,,,128,0,10,,,,,2,48,,,
51156,note_off,,,,,84,0,11,,,,,3,,,81,100
51200,note_on,,,,,44,0,11,,,,,3,,,69,60
51284,note_off,,,,,84,0,11,,,,,3,,,69,100
51328,note_on,,,,,44,0,11,,,,,3,,,81,60
51328,note_off,,,,,256,0,16,,,,,7,,,45,100
51328,note_off,,,,,256,0,15,,,,,7,,,64,100
51328,note_off,,,,,256,0,14,,,,,6,,,33,100
51328,note_off,,,,,256,0,13,,,,,5,,,45,100
51328,note_off,,,,,0,0,15,,,,,7,,,61,100
51412,note_off,,,,,84,0,11,,,,,3,,,81,100
51456,note_on,,,,,128,0,15,,,,,7,,,64,100
51456,note_on,,,,,128,0,13,,,,,5,,,45,60
51456,note_on,,,,,44,0,11,,,,,3,,,81,60
51456,note_on,,,,,128,0,14,,,,,6,,,33,60
51456,program_change,,,,,388,0,8,,,,,0,48,,,
51456,note_on,,,,,128,0,16,,,,,7,,,45,100
51456,note_on,,,,,0,0,15,,,,,7,,,61,100
51540,note_off,,,,,84,0,11,,,,,3,,,81,100
51584,note_on,,,,,44,0,11,,,,,3,,,69,60
51668,note_off,,,,,84,0,11,,,,,3,,,69,100
51712,note_off,,,,,256,0,15,,,,,7,,,64,100
51712,note_off,,,,,256,0,16,,,,,7,,,45,100
51712,note_off,,,,,0,0,15,,,,,7,,,61,100
51712,note_off,,,,,256,0,14,,,,,6,,,33,100
51712,note_off,,,,,256,0,13,,,,,5,,,45,100
51712,note_on,,,,,44,0,11,,,,,3,,,81,60
51796,note_off,,,,,84,0,11,,,,,3,,,81,100
51840,note_on,,,,,128,0,15,,,,,7,,,66,100
51840,note_on,,,,,0,0,15,,,,,7,,,69,100
51840,note_on,,,,,128,0,14,,,,,6,,,35,60
51840,note_on,,,,,44,0,11,,,,,3,,,81,60
51840,note_on,,,,,128,0,13,,,,,5,,,47,60
51840,note_on,,,,,768,0,10,,,,,2,,,74,50
51840,note_on,,,,,896,0,9,,,,,1,,,74,50
51840,note_on,,,,,896,0,12,,,,,4,,,62,60
51840,note_on,,,,,0,0,12,,,,,4,,,66,60
51840,note_on,,,,,128,0,16,,,,,7,,,47,100
51840,note_on,,,,,384,0,8,,,,,0,,,81,50
51924,note_off,,,,,84,0,11,,,,,3,,,81,100
51968,note_on,,,,,44,0,11,,,,,3,,,74,60
52052,note_off,,,,,84,0,11,,,,,3,,,74,100
52096,note_on,,,,,44,0,11,,,,,3,,,81,60
52096,note_off,,,,,256,0,13,,,,,5,,,47,100
52096,note_off,,,,,256,0,12,,,,,4,,,62,100
52096,note_off,,,,,0,0,12,,,,,4,,,66,100
52096,note_off,,,,,256,0,14,,,,,6,,,35,100
52096,note_off,,,,,256,0,9,,,,,1,,,74,100
52096,note_off,,,,,256,0,8,,,,,0,,,81,100
52096,note_off,,,,,0,0,15,,,,,7,,,69,100
52096,note_off,,,,,256,0,15,,,,,7,,,66,100
52096,note_off,,,,,256,0,16,,,,,7,,,47,100
52096,note_off,,,,,256,0,10,,,,,2,,,74,100
52180,note_off,,,,,84,0,11,,,,,3,,,81,100
52224,note_on,,,,,128,0,13,,,,,5,,,47,60
52224,note_on,,,,,128,0,14,,,,,6,,,35,60
52224,note_on,,,,,0,0,15,,,,,7,,,62,100
52224,note_on,,,,,128,0,16,,,,,7,,,47,100
52224,note_on,,,,,44,0,11,,,,,3,,,81,60
52224,note_on,,,,,128,0,15,,,,,7,,,66,100
52308,note_off,,,,,84,0,11,,,,,3,,,81,100
52352,note_on,,,,,44,0,11,,,,,3,,,74,60
52436,note_off,,,,,84,0,11,,,,,3,,,74,100
52480,note_off,,,,,256,0,15,,,,,7,,,66,100
52480,note_off,,,,,256,0,16,,,,,7,,,47,100
52480,note_on,,,,,44,0,11,,,,,3,,,81,60
52480,note_off,,,,,0,0,15,,,,,7,,,62,100
52480,note_off,,,,,256,0,14,,,,,6,,,35,100
52480,note_off,,,,,256,0,13,,,,,5,,,47,100
52564,note_off,,,,,84,0,11,,,,,3,,,81,100
52608,note_on,,,,,44,0,11,,,,,3,,,81,60
52608,note_on,,,,,0,0,15,,,,,7,,,62,100
52608,note_on,,,,,128,0,15,,,,,7,,,66,100
52608,note_on,,,,,128,0,16,,,,,7,,,47,100
52608,note_on,,,,,128,0,14,,,,,6,,,35,60
52608,note_on,,,,,128,0,13,,,,,5,,,47,60
52692,note_off,,,,,84,0,11,,,,,3,,,81,100
52736,note_on,,,,,44,0,11,,,,,3,,,74,60
52820,note_off,,,,,84,0,11,,,,,3,,,74,100
52864,note_off,,,,,256,0,16,,,,,7,,,47,100
52864,note_on,,,,,44,0,11,,,,,3,,,81,60
52864,note_off,,,,,0,0,15,,,,,7,,,62,100
52864,note_off,,,,,256,0,15,,,,,7,,,66,100
52864,note_off,,,,,256,0,14,,,,,6,,,35,100
52864,note_off,,,,,256,0,13,,,,,5,,,47,100
52948,note_off,,,,,84,0,11,,,,,3,,,81,100
52992,note_on,,,,,128,0,16,,,,,7,,,49,100
52992,note_on,,,,,0,0,15,,,,,7,,,69,100
52992,note_on,,,,,896,0,10,,,,,2,,,76,50
52992,note_on,,,,,896,0,12,,,,,4,,,61,60
52992,note_on,,,,,0,0,12,,,,,4,,,64,60
52992,note_on,,,,,128,0,13,,,,,5,,,49,60
52992,note_on,,,,,896,0,8,,,,,0,,,81,50
52992,note_on,,,,,128,0,15,,,,,7,,,67,100
52992,note_on,,,,,128,0,14,,,,,6,,,37,60
52992,note_on,,,,,44,0,11,,,,,3,,,81,60
52992,note_on,,,,,896,0,9,,,,,1,,,76,50
53076,note_off,,,,,84,0,11,,,,,3,,,81,100
53120,note_on,,,,,44,0,11,,,,,3,,,76,60
53204,note_off,,,,,84,0,11,,,,,3,,,76,100
53248,note_off,,,,,256,0,12,,,,,4,,,61,100
53248,note_off,,,,,256,0,8,,,,,0,,,81,100
53248,note_off,,,,,0,0,12,,,,,4,,,64,100
53248,note_off,,,,,256,0,14,,,,,6,,,37,100
53248,note_off,,,,,0,0,15,,,,,7,,,69,100
53248,note_off,,,,,256,0,9,,,,,1,,,76,100
53248,note_off,,,,,256,0,15,,,,,7,,,67,100
53248,note_on,,,,,44,0,11,,,,,3,,,81,60
53248,note_off,,,,,256,0,10,,,,,2,,,76,100
53248,note_off,,,,,256,0,16,,,,,7,,,49,100
53248,note_off,,,,,256,0,13,,,,,5,,,49,100
53332,note_off,,,,,84,0,11,,,,,3,,,81,100
53376,note_on,,,,,128,0,15,,,,,7,,,64,100
53376,note_on,,,,,128,0,16,,,,,7,,,49,100
53376,note_on,,,,,128,0,13,,,,,5,,,49,60
53376,note_on,,,,,0,0,15,,,,,7,,,69,100
53376,note_on,,,,,128,0,14,,,,,6,,,37,60
53376,note_on,,,,,44,0,11,,,,,3,,,81,60
53460,note_off,,,,,84,0,11,,,,,3,,,81,100
53504,note_on,,,,,44,0,11,,,,,3,,,76,60
53588,note_off,,,,,84,0,11,,,,,3,,,76,100
53632,note_off,,,,,0,0,15,,,,,7,,,69,100
53632,note_off,,,,,256,0,13,,,,,5,,,49,100
53632,note_on,,,,,44,0,11,,,,,3,,,81,60
53632,note_off,,,,,256,0,14,,,,,6,,,37,100
53632,note_off,,,,,256,0,16,,,,,7,,,49,100
53632,note_off,,,,,256,0,15,,,,,7,,,64,100
53716,note_off,,,,,84,0,11,,,,,3,,,81,100
53760,note_on,,,,,128,0,16,,,,,7,,,49,100
53760,note_on,,,,,128,0,13,,,,,5,,,49,60
53760,note_on,,,,,128,0,14,,,,,6,,,37,60
53760,note_on,,,,,44,0,11,,,,,3,,,81,60
53760,note_on,,,,,0,0,15,,,,,7,,,69,100
53760,note_on,,,,,128,0,15,,,,,7,,,64,100
53844,note_off,,,,,84,0,11,,,,,3,,,81,100
53888,note_on,,,,,44,0,11,,,,,3,,,76,60
53972,note_off,,,,,84,0,11,,,,,3,,,76,100
54016,note_on,,,,,44,0,11,,,,,3,,,81,60
54016,note_off,,,,,256,0,13,,,,,5,,,49,100
54016,note_off,,,,,256,0,16,,,,,7,,,49,100
54016,note_off,,,,,0,0,15,,,,,7,,,69,100
54016,note_off,,,,,256,0,14,,,,,6,,,37,100
54016,note_off,,,,,256,0,15,,,,,7,,,64,100
54100,note_off,,,,,84,0,11,,,,,3,,,81,100
54144,note_on,,,,,44,0,11,,,,,3,,,81,60
54144,note_on,,,,,0,0,15,,,,,7,,,74,100
54144,note_on,,,,,128,0,15,,,,,7,,,69,100
54144,note_on,,,,,128,0,13,,,,,5,,,50,60
54144,note_on,,,,,896,0,12,,,,,4,,,62,60
54144,note_on,,,,,0,0,12,,,,,4,,,57,60
54144,note_on,,,,,128,0,16,,,,,7,,,50,100
54144,note_on,,,,,896,0,10,,,,,2,,,78,50
54144,note_on,,,,,896,0,9,,,,,1,,,78,50
54144,note_on,,,,,896,0,8,,,,,0,,,81,50
54144,note_on,,,,,128,0,14,,,,,6,,,38,60
54228,note_off,,,,,84,0,11,,,,,3,,,81,100
54272,note_on,,,,,44,0,11,,,,,3,,,78,60
54356,note_off,,,,,84,0,11,,,,,3,,,78,100
54400,note_off,,,,,256,0,13,,,,,5,,,50,100
54400,note_off,,,,,256,0,10,,,,,2,,,78,100
54400,note_off,,,,,256,0,9,,,,,1,,,78,100
54400,note_off,,,,,256,0,8,,,,,0,,,81,100
54400,note_off,,,,,256,0,14,,,,,6,,,38,100
54400,note_on,,,,,44,0,11,,,,,3,,,81,60
54400,note_off,,,,,256,0,16,,,,,7,,,50,100
54400,note_off,,,,,256,0,12,,,,,4,,,62,100
54400,note_off,,,,,256,0,15,,,,,7,,,69,100
54400,note_off,,,,,0,0,15,,,,,7,,,74,100
54400,note_off,,,,,0,0,12,,,,,4,,,57,100
54484,note_off,,,,,84,0,11,,,,,3,,,81,100
54528,note_on,,,,,44,0,11,,,,,3,,,81,60
54528,note_on,,,,,128,0,13,,,,,5,,,50,60
54528,note_on,,,,,0,0,15,,,,,7,,,69,100
54528,note_on,,,,,128,0,15,,,,,7,,,66,100
54528,note_on,,,,,128,0,16,,,,,7,,,50,100
54528,note_on,,,,,128,0,14,,,,,6,,,38,60
54612,note_off,,,,,84,0,11,,,,,3,,,81,100
54656,note_on,,,,,44,0,11,,,,,3,,,78,60
54740,note_off,,,,,84,0,11,,,,,3,,,78,100
54784,note_off,,,,,256,0,14,,,,,6,,,38,100
54784,note_off,,,,,256,0,13,,,,,5,,,50,100
54784,note_off,,,,,256,0,15,,,,,7,,,66,100
54784,note_off,,,,,0,0,15,,,,,7,,,69,100
54784,note_off,,,,,256,0,16,,,,,7,,,50,100
54784,note_on,,,,,44,0,11,,,,,3,,,81,60
54868,note_off,,,,,84,0,11,,,,,3,,,81,100
54912,note_on,,,,,44,0,11,,,,,3,,,81,60
54912,note_on,,,,,128,0,14,,,,,6,,,38,60
54912,note_on,,,,,128,0,13,,,,,5,,,50,60
54912,note_on,,,,,128,0,15,,,,,7,,,66,100
54912,note_on,,,,,0,0,15,,,,,7,,,69,100
54912,note_on,,,,,128,0,16,,,,,7,,,50,100
54996,note_off,,,,,84,0,11,,,,,3,,,81,100
55040,note_on,,,,,44,0,11,,,,,3,,,78,60
55124,note_off,,,,,84,0,11,,,,,3,,,78,100
55168,note_off,,,,,256,0,16,,,,,7,,,50,100
55168,note_off,,,,,256,0,14,,,,,6,,,38,100
55168,note_off,,,,,256,0,15,,,,,7,,,66,100
55168,note_off,,,,,0,0,15,,,,,7,,,69,100
55168,note_on,,,,,44,0,11,,,,,3,,,81,60
55168,note_off,,,,,256,0,13,,,,,5,,,50,100
55252,note_off,,,,,84,0,11,,,,,3,,,81,100
55296,note_on,,,,,896,0,8,,,,,0,,,81,50
55296,note_on,,,,,128,0,15,,,,,7,,,64,100
55296,note_on,,,,,128,0,13,,,,,5,,,45,60
55296,note_on,,,,,128,0,14,,,,,6,,,33,60
55296,note_on,,,,,896,0,12,,,,,4,,,64,60
55296,note_on,,,,,128,0,16,,,,,7,,,45,100
55296,note_on,,,,,896,0,9,,,,,1,,,73,50
55296,note_on,,,,,0,0,15,,,,,7,,,69,100
55296,note_on,,,,,0,0,12,,,,,4,,,61,60
55296,note_on,,,,,896,0,10,,,,,2,,,73,50
55296,note_on,,,,,44,0,11,,,,,3,,,81,60
55380,note_off,,,,,84,0,11,,,,,3,,,81,100
55424,note_on,,,,,44,0,11,,,,,3,,,73,60
55508,note_off,,,,,84,0,11,,,,,3,,,73,100
55552,note_off,,,,,0,0,15,,,,,7,,,69,100
55552,note_off,,,,,256,0,13,,,,,5,,,45,100
55552,note_off,,,,,256,0,16,,,,,7,,,45,100
55552,note_off,,,,,256,0,10,,,,,2,,,73,100
55552,note_off,,,,,256,0,12,,,,,4,,,64,100
55552,note_off,,,,,256,0,14,,,,,6,,,33,100
55552,note_off,,,,,0,0,12,,,,,4,,,61,100
55552,note_off,,,,,256,0,15,,,,,7,,,64,100
55552,note_off,,,,,256,0,9,,,,,1,,,73,100
55552,note_off,,,,,256,0,8,,,,,0,,,81,100
55552,note_on,,,,,44,0,11,,,,,3,,,81,60
55636,note_off,,,,,84,0,11,,,,,3,,,81,100
55680,note_on,,,,,128,0,16,,,,,7,,,45,100
55680,note_on,,,,,128,0,14,,,,,6,,,33,60
55680,note_on,,,,,128,0,13,,,,,5,,,45,60
55680,note_on,,,,,0,0,15,,,,,7,,,64,100
55680,note_on,,,,,44,0,11,,,,,3,,,81,60
55680,note_on,,,,,128,0,15,,,,,7,,,61,100
55764,note_off,,,,,84,0,11,,,,,3,,,81,100
55808,note_on,,,,,44,0,11,,,,,3,,,73,60
55892,note_off,,,,,84,0,11,,,,,3,,,73,100
55936,note_off,,,,,256,0,15,,,,,7,,,61,100
55936,note_off,,,,,0,0,15,,,,,7,,,64,100
55936,note_off,,,,,256,0,14,,,,,6,,,33,100
55936,note_off,,,,,256,0,13,,,,,5,,,45,100
55936,note_off,,,,,256,0,16,,,,,7,,,45,100
55936,note_on,,,,,44,0,11,,,,,3,,,81,60
56020,note_off,,,,,84,0,11,,,,,3,,,81,100
56064,note_on,,,,,128,0,13,,,,,5,,,45,60
56064,note_on,,,,,128,0,14,,,,,6,,,33,60
56064,note_on,,,,,0,0,15,,,,,7,,,64,100
56064,note_on,,,,,128,0,15,,,,,7,,,61,100
56064,note_on,,,,,44,0,11,,,,,3,,,81,60
56064,note_on,,,,,128,0,16,,,,,7,,,45,100
56148,note_off,,,,,84,0,11,,,,,3,,,81,100
56192,note_on,,,,,44,0,11,,,,,3,,,73,60
56276,note_off,,,,,84,0,11,,,,,3,,,73,100
56320,note_off,,,,,256,0,13,,,,,5,,,45,100
56320,note_off,,,,,0,0,15,,,,,7,,,64,100
56320,note_off,,,,,256,0,16,,,,,7,,,45,100
56320,note_off,,,,,256,0,15,,,,,7,,,61,100
56320,note_off,,,,,256,0,14,,,,,6,,,33,100
56320,note_on,,,,,44,0,11,,,,,3,,,81,60
56404,note_off,,,,,84,0,11,,,,,3,,,81,100
56448,note_on,,,,,128,0,14,,,,,6,,,38,60
56448,note_on,,,,,896,0,8,,,,,0,,,81,50
56448,note_on,,,,,896,0,12,,,,,4,,,66,60
56448,note_on,,,,,0,0,12,,,,,4,,,62,60
56448,note_on,,,,,896,0,9,,,,,1,,,71,50
56448,note_on,,,,,896,0,10,,,,,2,,,71,50
56448,note_on,,,,,128,0,13,,,,,5,,,50,60
56448,note_on,,,,,128,0,15,,,,,7,,,69,100
56448,note_on,,,,,128,0,16,,,,,7,,,50,100
56448,note_on,,,,,44,0,11,,,,,3,,,81,60
56448,note_on,,,,,0,0,15,,,,,7,,,71,100
56532,note_off,,,,,84,0,11,,,,,3,,,81,100
56576,note_on,,,,,44,0,11,,,,,3,,,71,60
56660,note_off,,,,,84,0,11,,,,,3,,,71,100
56704,note_off,,,,,0,0,12,,,,,4,,,62,100
56704,note_off,,,,,256,0,16,,,,,7,,,50,100
56704,note_off,,,,,0,0,15,,,,,7,,,71,100
56704,note_off,,,,,256,0,9,,,,,1,,,71,100
56704,note_off,,,,,256,0,12,,,,,4,,,66,100
56704,note_off,,,,,256,0,10,,,,,2,,,71,100
56704,note_off,,,,,256,0,8,,,,,0,,,81,100
56704,note_off,,,,,256,0,15,,,,,7,,,69,100
56704,note_on,,,,,44,0,11,,,,,3,,,81,60
56704,note_off,,,,,256,0,13,,,,,5,,,50,100
56704,note_off,,,,,256,0,14,,,,,6,,,38,100
56788,note_off,,,,,84,0,11,,,,,3,,,81,100
56832,note_on,,,,,44,0,11,,,,,3,,,81,60
56832,note_on,,,,,128,0,15,,,,,7,,,66,100
56832,note_on,,,,,0,0,15,,,,,7,,,69,100
56832,note_on,,,,,128,0,16,,,,,7,,,50,100
56832,note_on,,,,,128,0,13,,,,,5,,,50,60
56832,note_on,,,,,128,0,14,,,,,6,,,38,60
56916,note_off,,,,,84,0,11,,,,,3,,,81,100
56960,note_on,,,,,44,0,11,,,,,3,,,71,60
57044,note_off,,,,,84,0,11,,,,,3,,,71,100
57088,note_off,,,,,256,0,13,,,,,5,,,50,100
57088,note_off,,,,,256,0,16,,,,,7,,,50,100
57088,note_off,,,,,256,0,14,,,,,6,,,38,100
57088,note_on,,,,,44,0,11,,,,,3,,,81,60
57088,note_off,,,,,256,0,15,,,,,7,,,66,100
57088,note_off,,,,,0,0,15,,,,,7,,,69,100
57172,note_off,,,,,84,0,11,,,,,3,,,81,100
57216,note_on,,,,,128,0,15,,,,,7,,,66,100
57216,note_on,,,,,0,0,15,,,,,7,,,69,100
57216,note_on,,,,,128,0,13,,,,,5,,,50,60
57216,note_on,,,,,128,0,16,,,,,7,,,50,100
57216,note_on,,,,,128,0,14,,,,,6,,,38,60
57216,note_on,,,,,44,0,11,,,,,3,,,81,60
57300,note_off,,,,,84,0,11,,,,,3,,,81,100
57344,note_on,,,,,44,0,11,,,,,3,,,71,60
57428,note_off,,,,,84,0,11,,,,,3,,,71,100
57472,note_on,,,,,44,0,11,,,,,3,,,81,60
57472,note_off,,,,,256,0,14,,,,,6,,,38,100
57472,note_off,,,,,256,0,15,,,,,7,,,66,100
57472,note_off,,,,,0,0,15,,,,,7,,,69,100
57472,note_off,,,,,256,0,13,,,,,5,,,50,100
57472,note_off,,,,,256,0,16,,,,,7,,,50,100
57556,note_off,,,,,84,0,11,,,,,3,,,81,100
57600,note_on,,,,,128,0,15,,,,,7,,,68,100
57600,note_on,,,,,0,0,15,,,,,7,,,76,100
57600,note_on,,,,,128,0,13,,,,,5,,,52,60
57600,note_on,,,,,128,0,16,,,,,7,,,52,100
57600,note_on,,,,,128,0,14,,,,,6,,,40,60
57600,note_on,,,,,896,0,12,,,,,4,,,64,60
57600,note_on,,,,,0,0,12,,,,,4,,,59,60
57600,note_on,,,,,44,0,11,,,,,3,,,80,60
57600,note_on,,,,,896,0,8,,,,,0,,,80,50
57600,note_on,,,,,896,0,10,,,,,2,,,71,50
57600,note_on,,,,,896,0,9,,,,,1,,,71,50
57684,note_off,,,,,84,0,11,,,,,3,,,80,100
57728,note_on,,,,,44,0,11,,,,,3,,,71,60
57812,note_off,,,,,84,0,11,,,,,3,,,71,100
57856,note_off,,,,,256,0,8,,,,,0,,,80,100
57856,note_off,,,,,256,0,16,,,,,7,,,52,100
57856,note_off,,,,,256,0,9,,,,,1,,,71,100
57856,note_off,,,,,256,0,13,,,,,5,,,52,100
57856,note_off,,,,,256,0,12,,,,,4,,,64,100
57856,note_off,,,,,0,0,12,,,,,4,,,59,100
57856,note_on,,,,,44,0,11,,,,,3,,,80,60
57856,note_off,,,,,256,0,10,,,,,2,,,71,100
57856,note_off,,,,,256,0,15,,,,,7,,,68,100
57856,note_off,,,,,256,0,14,,,,,6,,,40,100
57856,note_off,,,,,0,0,15,,,,,7,,,76,100
57940,note_off,,,,,84,0,11,,,,,3,,,80,100
57984,note_on,,,,,128,0,14,,,,,6,,,40,60
57984,note_on,,,,,128,0,16,,,,,7,,,52,100
57984,note_on,,,,,44,0,11,,,,,3,,,80,60
57984,note_on,,,,,128,0,15,,,,,7,,,68,100
57984,note_on,,,,,0,0,15,,,,,7,,,71,100
57984,note_on,,,,,128,0,13,,,,,5,,,52,60
58068,note_off,,,,,84,0,11,,,,,3,,,80,100
58112,note_on,,,,,44,0,11,,,,,3,,,71,60
58196,note_off,,,,,84,0,11,,,,,3,,,71,100
58240,note_on,,,,,44,0,11,,,,,3,,,80,60
58240,note_off,,,,,256,0,15,,,,,7,,,68,100
58240,note_off,,,,,256,0,14,,,,,6,,,40,100
58240,note_off,,,,,0,0,15,,,,,7,,,71,100
58240,note_off,,,,,256,0,13,,,,,5,,,52,100
58240,note_off,,,,,256,0,16,,,,,7,,,52,100
58324,note_off,,,,,84,0,11,,,,,3,,,80,100
58368,note_on,,,,,128,0,13,,,,,5,,,52,60
58368,note_on,,,,,128,0,16,,,,,7,,,52,100
58368,note_on,,,,,128,0,14,,,,,6,,,40,60
58368,note_on,,,,,0,0,15,,,,,7,,,71,100
58368,note_on,,,,,128,0,15,,,,,7,,,68,100
58368,note_on,,,,,44,0,11,,,,,3,,,80,60
58452,note_off,,,,,84,0,11,,,,,3,,,80,100
58496,note_on,,,,,44,0,11,,,,,3,,,71,60
58580,note_off,,,,,84,0,11,,,,,3,,,71,100
58624,note_off,,,,,0,0,15,,,,,7,,,71,100
58624,note_on,,,,,44,0,11,,,,,3,,,80,60
58624,note_off,,,,,256,0,15,,,,,7,,,68,100
58624,note_off,,,,,256,0,16,,,,,7,,,52,100
58624,note_off,,,,,256,0,14,,,,,6,,,40,100
58624,note_off,,,,,256,0,13,,,,,5,,,52,100
58708,note_off,,,,,84,0,11,,,,,3,,,80,100
58752,note_on,,,,,896,0,12,,,,,4,,,64,60
58752,note_on,,,,,128,0,13,,,,,5,,,45,60
58752,note_on,,,,,896,0,9,,,,,1,,,73,50
58752,note_on,,,,,128,0,14,,,,,6,,,33,60
58752,note_on,,,,,896,0,10,,,,,2,,,73,50
58752,note_on,,,,,128,0,16,,,,,7,,,45,100
58752,note_on,,,,,128,0,15,,,,,7,,,69,100
58752,note_on,,,,,896,0,8,,,,,0,,,81,50
58752,note_on,,,,,44,0,11,,,,,3,,,81,60
58752,note_on,,,,,0,0,15,,,,,7,,,73,100
58752,note_on,,,,,0,0,12,,,,,4,,,57,60
58836,note_off,,,,,84,0,11,,,,,3,,,81,100
58880,note_on,,,,,44,0,11,,,,,3,,,76,60
58964,note_off,,,,,84,0,11,,,,,3,,,76,100
59008,note_off,,,,,0,0,12,,,,,4,,,57,100
59008,note_off,,,,,0,0,15,,,,,7,,,73,100
59008,note_off,,,,,256,0,9,,,,,1,,,73,100
59008,note_off,,,,,256,0,15,,,,,7,,,69,100
59008,note_off,,,,,256,0,12,,,,,4,,,64,100
59008,note_off,,,,,256,0,8,,,,,0,,,81,100
59008,note_off,,,,,256,0,16,,,,,7,,,45,64
59008,note_off,,,,,256,0,10,,,,,2,,,73,100
59008,note_off,,,,,256,0,14,,,,,6,,,33,100
59008,note_off,,,,,256,0,13,,,,,5,,,45,64
59008,note_on,,,,,44,0,11,,,,,3,,,81,60
59092,note_off,,,,,84,0,11,,,,,3,,,81,100
59136,note_on,,,,,44,0,11,,,,,3,,,73,60
59220,note_off,,,,,84,0,11,,,,,3,,,73,100
59264,note_on,,,,,44,0,11,,,,,3,,,76,60
59348,note_off,,,,,84,0,11,,,,,3,,,76,100
59392,note_on,,,,,44,0,11,,,,,3,,,73,60
59476,note_off,,,,,84,0,11,,,,,3,,,73,100
59520,note_on,,,,,44,0,11,,,,,3,,,69,60
59604,note_off,,,,,84,0,11,,,,,3,,,69,100
59648,note_on,,,,,44,0,11,,,,,3,,,73,60
59732,note_off,,,,,84,0,11,,,,,3,,,73,100
59776,note_on,,,,,44,0,11,,,,,3,,,69,60
59860,note_off,,,,,84,0,11,,,,,3,,,69,100
59904,note_on,,,,,44,0,11,,,,,3,,,64,60
59904,note_on,,,,,896,0,8,,,,,0,,,81,50
59904,note_on,,,,,896,0,15,,,,,7,,,69,100
59904,note_on,,,,,0,0,15,,,,,7,,,73,100
59904,note_on,,,,,896,0,13,,,,,5,,,45,60
59904,note_on,,,,,896,0,9,,,,,1,,,73,50
59904,note_on,,,,,896,0,10,,,,,2,,,73,50
59904,note_on,,,,,896,0,16,,,,,7,,,45,100
59904,note_on,,,,,896,0,14,,,,,6,,,33,60
59904,note_on,,,,,0,0,12,,,,,4,,,57,60
59904,note_on,,,,,896,0,12,,,,,4,,,64,60
59988,note_off,,,,,84,0,11,,,,,3,,,64,100
60032,note_on,,,,,44,0,11,,,,,3,,,73,60
60116,note_off,,,,,84,0,11,,,,,3,,,73,100
60160,note_off,,,,,256,0,16,,,,,7,,,45,100
60160,note_off,,,,,256,0,13,,,,,5,,,45,100
60160,note_off,,,,,256,0,12,,,,,4,,,64,100
60160,note_off,,,,,256,0,14,,,,,6,,,33,100
60160,note_off,,,,,0,0,12,,,,,4,,,57,100
60160,note_off,,,,,0,0,15,,,,,7,,,73,100
60160,note_on,,,,,44,0,11,,,,,3,,,69,60
60160,note_off,,,,,256,0,15,,,,,7,,,69,100
60160,note_off,,,,,256,0,10,,,,,2,,,73,100
60160,note_off,,,,,256,0,8,,,,,0,,,81,100
60160,note_off,,,,,256,0,9,,,,,1,,,73,100
60244,note_off,,,,,84,0,11,,,,,3,,,69,100
60288,note_on,,,,,44,0,11,,,,,3,,,64,60
60372,note_off,,,,,84,0,11,,,,,3,,,64,100
60416,note_on,,,,,44,0,11,,,,,3,,,69,60
60500,note_off,,,,,84,0,11,,,,,3,,,69,100
60544,note_on,,,,,44,0,11,,,,,3,,,64,60
60628,note_off,,,,,84,0,11,,,,,3,,,64,100
60672,note_on,,,,,44,0,11,,,,,3,,,61,60
60756,note_off,,,,,84,0,11,,,,,3,,,61,100
60800,note_on,,,,,44,0,11,,,,,3,,,64,60
60884,note_off,,,,,84,0,11,,,,,3,,,64,100
60928,note_on,,,,,44,0,11,,,,,3,,,61,60
61012,note_off,,,,,84,0,11,,,,,3,,,61,100
61056,note_on,,,,,896,0,14,,,,,6,,,33,60
61056,note_on,,,,,896,0,13,,,,,5,,,45,60
61056,note_on,,,,,0,0,15,,,,,7,,,73,100
61056,note_on,,,,,896,0,15,,,,,7,,,69,100
61056,note_on,,,,,896,0,8,,,,,0,,,81,90
61056,note_on,,,,,44,0,11,,,,,3,,,57,60
61056,note_on,,,,,896,0,12,,,,,4,,,64,60
61056,note_on,,,,,0,0,12,,,,,4,,,57,60
61056,note_on,,,,,896,0,16,,,,,7,,,45,100
61056,note_on,,,,,896,0,9,,,,,1,,,73,50
61056,note_on,,,,,896,0,10,,,,,2,,,73,50
61100,note_off,,,,,44,0,11,,,,,3,,,57,100
61104,note_on,,,,,4,0,11,,,,,3,,,59,60
61148,note_off,,,,,44,0,11,,,,,3,,,59,100
61152,note_on,,,,,4,0,11,,,,,3,,,57,60
61196,note_off,,,,,44,0,11,,,,,3,,,57,100
61200,note_on,,,,,4,0,11,,,,,3,,,59,60
61224,note_off,,,,,168,0,10,,,,,2,,,73,100
61224,note_off,,,,,168,0,9,,,,,1,,,73,100
61224,note_off,,,,,168,0,8,,,,,0,,,81,100
61244,note_off,,,,,44,0,11,,,,,3,,,59,100
61248,note_on,,,,,4,0,11,,,,,3,,,57,60
61312,note_off,,,,,256,0,14,,,,,6,,,33,100
61312,note_on,,,,,88,0,8,,,,,0,,,81,100
61312,note_off,,,,,0,0,12,,,,,4,,,57,100
61312,note_off,,,,,256,0,16,,,,,7,,,45,100
61312,note_off,,,,,256,0,12,,,,,4,,,64,100
61312,note_on,,,,,88,0,10,,,,,2,,,81,50
61312,note_off,,,,,0,0,15,,,,,7,,,73,100
61312,note_off,,,,,256,0,13,,,,,5,,,45,100
61312,note_off,,,,,256,0,15,,,,,7,,,69,100
61396,note_off,,,,,84,0,10,,,,,2,,,81,100
61396,note_off,,,,,84,0,8,,,,,0,,,81,100
61436,note_off,,,,,188,0,11,,,,,3,,,57,100
61440,note_on,,,,,44,0,10,,,,,2,,,81,40
61440,note_on,,,,,44,0,8,,,,,0,,,81,90
61608,note_off,,,,,168,0,10,,,,,2,,,81,100
61608,note_off,,,,,168,0,8,,,,,0,,,81,100
61696,note_on,,,,,88,0,10,,,,,2,,,81,40
61696,note_on,,,,,88,0,8,,,,,0,,,81,90
61780,note_off,,,,,84,0,8,,,,,0,,,81,100
61780,note_off,,,,,84,0,10,,,,,2,,,81,100
61820,program_change,,,,,384,0,11,,,,,3,48,,,
61824,note_on,,,,,44,0,8,,,,,0,,,81,90
61824,note_on,,,,,44,0,10,,,,,2,,,81,40
61992,note_off,,,,,168,0,8,,,,,0,,,81,100
61992,note_off,,,,,168,0,10,,,,,2,,,81,100
62080,note_on,,,,,88,0,10,,,,,2,,,81,40
62080,note_on,,,,,88,0,8,,,,,0,,,81,90
62164,note_off,,,,,84,0,10,,,,,2,,,81,100
62164,note_off,,,,,84,0,8,,,,,0,,,81,100
62208,note_on,,,,,44,0,10,,,,,2,,,81,41
62208,note_on,,,,,44,0,8,,,,,0,,,81,91
62208,note_on,,,,,896,0,14,,,,,6,,,50,91
62208,note_on,,,,,0,0,12,,,,,4,,,66,91
62208,note_on,,,,,896,0,12,,,,,4,,,62,91
62208,note_on,,,,,896,0,13,,,,,5,,,62,91
62208,note_on,,,,,896,0,15,,,,,7,,,66,100
62208,note_on,,,,,0,0,15,,,,,7,,,74,100
62208,note_on,,,,,896,0,16,,,,,7,,,62,100
62292,note_off,,,,,84,0,8,,,,,0,,,81,100
62292,note_off,,,,,84,0,10,,,,,2,,,81,100
62336,note_on,,,,,44,0,8,,,,,0,,,83,91
62336,note_on,,,,,44,0,10,,,,,2,,,83,41
62420,note_off,,,,,84,0,8,,,,,0,,,83,100
62420,note_off,,,,,84,0,10,,,,,2,,,83,100
62464,note_off,,,,,256,0,13,,,,,5,,,62,100
62464,note_on,,,,,644,0,11,,,,,3,,,74,41
62464,note_on,,,,,1240,0,9,,,,,1,,,74,91
62464,note_on,,,,,44,0,8,,,,,0,,,79,91
62464,note_off,,,,,256,0,12,,,,,4,,,62,100
62464,note_off,,,,,256,0,15,,,,,7,,,66,100
62464,note_off,,,,,0,0,15,,,,,7,,,74,100
62464,note_on,,,,,44,0,10,,,,,2,,,79,41
62464,note_off,,,,,256,0,14,,,,,6,,,50,100
62464,note_off,,,,,256,0,16,,,,,7,,,62,100
62464,note_off,,,,,0,0,12,,,,,4,,,66,100
62548,note_off,,,,,84,0,9,,,,,1,,,74,100
62548,note_off,,,,,84,0,10,,,,,2,,,79,100
62548,note_off,,,,,84,0,8,,,,,0,,,79,100
62548,note_off,,,,,84,0,11,,,,,3,,,74,100
62592,note_on,,,,,44,0,10,,,,,2,,,78,41
62592,note_on,,,,,128,0,13,,,,,5,,,50,91
62592,note_on,,,,,128,0,14,,,,,6,,,38,91
62592,note_on,,,,,0,0,12,,,,,4,,,66,91
62592,note_on,,,,,128,0,12,,,,,4,,,69,91
62592,note_on,,,,,0,0,15,,,,,7,,,69,100
62592,note_on,,,,,44,0,11,,,,,3,,,74,41
62592,note_on,,,,,128,0,15,,,,,7,,,66,100
62592,note_on,,,,,128,0,16,,,,,7,,,50,100
62592,note_on,,,,,44,0,9,,,,,1,,,74,91
62592,note_on,,,,,44,0,8,,,,,0,,,78,91
62676,note_off,,,,,84,0,8,,,,,0,,,78,100
62676,note_off,,,,,84,0,10,,,,,2,,,78,100
62720,note_on,,,,,44,0,8,,,,,0,,,79,91
62720,note_on,,,,,44,0,10,,,,,2,,,79,41
62760,note_off,,,,,168,0,9,,,,,1,,,74,100
62760,note_off,,,,,168,0,11,,,,,3,,,74,100
62804,note_off,,,,,84,0,8,,,,,0,,,79,100
62804,note_off,,,,,84,0,10,,,,,2,,,79,100
62848,note_on,,,,,44,0,10,,,,,2,,,76,41
62848,note_off,,,,,0,0,15,,,,,7,,,69,100
62848,note_off,,,,,256,0,15,,,,,7,,,66,100
62848,note_on,,,,,44,0,8,,,,,0,,,76,91
62848,note_off,,,,,256,0,16,,,,,7,,,50,100
62848,note_on,,,,,88,0,9,,,,,1,,,74,91
62848,note_on,,,,,88,0,11,,,,,3,,,74,41
62848,note_off,,,,,256,0,12,,,,,4,,,69,100
62848,note_off,,,,,0,0,12,,,,,4,,,66,100
62848,note_off,,,,,256,0,14,,,,,6,,,38,100
62848,note_off,,,,,256,0,13,,,,,5,,,50,100
62932,note_off,,,,,84,0,9,,,,,1,,,74,100
62932,note_off,,,,,84,0,10,,,,,2,,,76,100
62932,note_off,,,,,84,0,11,,,,,3,,,74,100
62932,note_off,,,,,84,0,8,,,,,0,,,76,100
62976,note_on,,,,,0,0,12,,,,,4,,,66,92
62976,note_on,,,,,128,0,16,,,,,7,,,62,100
62976,note_on,,,,,128,0,15,,,,,7,,,66,100
62976,note_on,,,,,0,0,15,,,,,7,,,74,100
62976,note_on,,,,,44,0,11,,,,,3,,,74,42
62976,note_on,,,,,44,0,10,,,,,2,,,74,42
62976,note_on,,,,,128,0,14,,,,,6,,,50,92
62976,note_on,,,,,128,0,13,,,,,5,,,62,92
62976,note_on,,,,,44,0,8,,,,,0,,,74,92
62976,note_on,,,,,44,0,9,,,,,1,,,74,92
62976,note_on,,,,,128,0,12,,,,,4,,,69,92
63060,note_off,,,,,84,0,10,,,,,2,,,74,100
63060,note_off,,,,,84,0,8,,,,,0,,,74,100
63104,note_on,,,,,44,0,8,,,,,0,,,76,92
63104,note_on,,,,,44,0,10,,,,,2,,,76,42
63144,note_off,,,,,168,0,9,,,,,1,,,74,100
63144,note_off,,,,,168,0,11,,,,,3,,,74,100
63188,note_off,,,,,84,0,8,,,,,0,,,76,100
63188,note_off,,,,,84,0,10,,,,,2,,,76,100
63232,note_off,,,,,0,0,12,,,,,4,,,66,100
63232,note_on,,,,,44,0,10,,,,,2,,,73,42
63232,note_off,,,,,256,0,12,,,,,4,,,69,100
63232,note_on,,,,,44,0,8,,,,,0,,,73,92
63232,note_off,,,,,256,0,16,,,,,7,,,62,100
63232,note_on,,,,,88,0,11,,,,,3,,,74,42
63232,note_off,,,,,256,0,15,,,,,7,,,66,100
63232,note_on,,,,,88,0,9,,,,,1,,,74,92
63232,note_off,,,,,256,0,14,,,,,6,,,50,100
63232,note_off,,,,,0,0,15,,,,,7,,,74,100
63232,note_off,,,,,256,0,13,,,,,5,,,62,100
63316,note_off,,,,,84,0,10,,,,,2,,,73,100
63316,note_off,,,,,84,0,8,,,,,0,,,73,100
63316,note_off,,,,,84,0,11,,,,,3,,,74,100
63316,note_off,,,,,84,0,9,,,,,1,,,74,100
63360,note_on,,,,,128,0,15,,,,,7,,,74,100
63360,note_on,,,,,44,0,9,,,,,1,,,74,92
63360,note_on,,,,,128,0,16,,,,,7,,,55,100
63360,note_on,,,,,128,0,13,,,,,5,,,55,92
63360,note_on,,,,,44,0,10,,,,,2,,,71,42
63360,note_on,,,,,128,0,14,,,,,6,,,43,92
63360,note_on,,,,,44,0,8,,,,,0,,,71,92
63360,note_on,,,,,128,0,12,,,,,4,,,59,92
63360,note_on,,,,,44,0,11,,,,,3,,,74,42
63360,note_on,,,,,0,0,15,,,,,7,,,71,100
63360,note_on,,,,,0,0,12,,,,,4,,,62,92
63444,note_off,,,,,84,0,9,,,,,1,,,74,100
63444,note_off,,,,,84,0,11,,,,,3,,,74,100
63488,note_on,,,,,44,0,9,,,,,1,,,76,92
63488,note_on,,,,,44,0,11,,,,,3,,,76,42
63528,note_off,,,,,168,0,8,,,,,0,,,71,100
63528,note_off,,,,,168,0,10,,,,,2,,,71,100
63572,note_off,,,,,84,0,11,,,,,3,,,76,100
63572,note_off,,,,,84,0,9,,,,,1,,,76,100
63616,note_on,,,,,88,0,10,,,,,2,,,83,42
63616,note_off,,,,,256,0,14,,,,,6,,,43,100
63616,note_off,,,,,256,0,13,,,,,5,,,55,100
63616,note_on,,,,,88,0,8,,,,,0,,,83,92
63616,note_off,,,,,0,0,12,,,,,4,,,62,100
63616,note_on,,,,,44,0,9,,,,,1,,,73,92
63616,note_off,,,,,256,0,12,,,,,4,,,59,100
63616,note_off,,,,,0,0,15,,,,,7,,,71,100
63616,note_off,,,,,256,0,16,,,,,7,,,55,100
63616,note_off,,,,,256,0,15,,,,,7,,,74,100
63616,note_on,,,,,44,0,11,,,,,3,,,73,42
63700,note_off,,,,,84,0,10,,,,,2,,,83,100
63700,note_off,,,,,84,0,9,,,,,1,,,73,100
63700,note_off,,,,,84,0,11,,,,,3,,,73,100
63700,note_off,,,,,84,0,8,,,,,0,,,83,100
63744,note_on,,,,,128,0,16,,,,,7,,,43,100
63744,note_on,,,,,0,0,15,,,,,7,,,62,100
63744,note_on,,,,,0,0,12,,,,,4,,,62,93
63744,note_on,,,,,44,0,11,,,,,3,,,71,43
63744,note_on,,,,,44,0,9,,,,,1,,,71,93
63744,note_on,,,,,128,0,13,,,,,5,,,43,93
63744,note_on,,,,,44,0,8,,,,,0,,,83,93
63744,note_on,,,,,128,0,14,,,,,6,,,43,93
63744,note_on,,,,,128,0,12,,,,,4,,,59,93
63744,note_on,,,,,44,0,10,,,,,2,,,83,43
63744,note_on,,,,,128,0,15,,,,,7,,,59,100
63828,note_off,,,,,84,0,11,,,,,3,,,71,100
63828,note_off,,,,,84,0,9,,,,,1,,,71,100
63872,note_on,,,,,44,0,11,,,,,3,,,73,43
63872,note_on,,,,,44,0,9,,,,,1,,,73,93
63912,note_off,,,,,168,0,8,,,,,0,,,83,100
63912,note_off,,,,,168,0,10,,,,,2,,,83,100
63956,note_off,,,,,84,0,11,,,,,3,,,73,100
63956,note_off,,,,,84,0,9,,,,,1,,,73,100
64000,note_off,,,,,0,0,12,,,,,4,,,62,100
64000,note_off,,,,,256,0,12,,,,,4,,,59,100
64000,note_off,,,,,256,0,13,,,,,5,,,43,100
64000,note_off,,,,,0,0,15,,,,,7,,,62,100
64000,note_on,,,,,88,0,10,,,,,2,,,83,43
64000,note_on,,,,,44,0,11,,,,,3,,,69,43
64000,note_on,,,,,88,0,8,,,,,0,,,83,93
64000,note_off,,,,,256,0,16,,,,,7,,,43,100
64000,note_off,,,,,256,0,14,,,,,6,,,43,100
64000,note_off,,,,,256,0,15,,,,,7,,,59,100
64000,note_on,,,,,44,0,9,,,,,1,,,69,93
64084,note_off,,,,,84,0,9,,,,,1,,,69,100
64084,note_off,,,,,84,0,8,,,,,0,,,83,100
64084,note_off,,,,,84,0,10,,,,,2,,,83,100
64084,note_off,,,,,84,0,11,,,,,3,,,69,100
64096,note_on,,,,,96,0,12,,,,,4,,,62,93
64128,note_on,,,,,44,0,9,,,,,1,,,67,93
64128,note_on,,,,,32,0,12,,,,,4,,,59,93
64128,note_on,,,,,44,0,8,,,,,0,,,83,93
64128,note_on,,,,,44,0,10,,,,,2,,,83,43
64128,note_on,,,,,44,0,11,,,,,3,,,67,43
64212,note_off,,,,,84,0,11,,,,,3,,,67,100
64212,note_off,,,,,84,0,9,,,,,1,,,67,100
64256,note_on,,,,,44,0,9,,,,,1,,,69,93
64256,note_on,,,,,44,0,11,,,,,3,,,69,43
64296,note_off,,,,,168,0,10,,,,,2,,,83,100
64296,note_off,,,,,168,0,8,,,,,0,,,83,100
64340,note_off,,,,,84,0,9,,,,,1,,,69,100
64340,note_off,,,,,84,0,11,,,,,3,,,69,100
64352,note_off,,,,,224,0,12,,,,,4,,,62,100
64384,note_on,,,,,88,0,10,,,,,2,,,83,43
64384,note_on,,,,,44,0,9,,,,,1,,,66,93
64384,note_on,,,,,44,0,11,,,,,3,,,66,43
64384,note_on,,,,,88,0,8,,,,,0,,,83,93
64384,note_off,,,,,32,0,12,,,,,4,,,59,100
64468,note_off,,,,,84,0,10,,,,,2,,,83,100
64468,note_off,,,,,84,0,8,,,,,0,,,83,100
64468,note_off,,,,,84,0,9,,,,,1,,,66,100
64468,note_off,,,,,84,0,11,,,,,3,,,66,100
64512,note_on,,,,,0,0,12,,,,,4,,,59,94
64512,note_on,,,,,512,0,14,,,,,6,,,44,94
64512,note_on,,,,,44,0,9,,,,,1,,,64,94
64512,note_on,,,,,44,0,10,,,,,2,,,83,44
64512,note_on,,,,,0,0,15,,,,,7,,,71,100
64512,note_on,,,,,128,0,12,,,,,4,,,64,94
64512,note_on,,,,,44,0,11,,,,,3,,,64,44
64512,note_on,,,,,512,0,16,,,,,7,,,56,100
64512,note_on,,,,,512,0,13,,,,,5,,,56,94
64512,note_on,,,,,44,0,8,,,,,0,,,83,94
64512,note_on,,,,,512,0,15,,,,,7,,,64,100
64596,note_off,,,,,84,0,10,,,,,2,,,83,100
64596,note_off,,,,,84,0,8,,,,,0,,,83,100
64640,note_on,,,,,44,0,8,,,,,0,,,85,94
64640,note_on,,,,,44,0,10,,,,,2,,,85,44
64680,note_off,,,,,168,0,9,,,,,1,,,64,100
64680,note_off,,,,,168,0,11,,,,,3,,,64,100
64724,note_off,,,,,84,0,10,,,,,2,,,85,100
64724,note_off,,,,,84,0,8,,,,,0,,,85,100
64768,note_on,,,,,44,0,10,,,,,2,,,81,44
64768,note_on,,,,,88,0,9,,,,,1,,,76,94
64768,note_off,,,,,256,0,14,,,,,6,,,44,100
64768,note_off,,,,,256,0,16,,,,,7,,,56,100
64768,note_off,,,,,0,0,15,,,,,7,,,71,100
64768,note_off,,,,,256,0,15,,,,,7,,,64,100
64768,note_off,,,,,256,0,13,,,,,5,,,56,100
64768,note_off,,,,,256,0,12,,,,,4,,,64,100
64768,note_off,,,,,0,0,12,,,,,4,,,59,100
64768,note_on,,,,,88,0,11,,,,,3,,,76,44
64768,note_on,,,,,44,0,8,,,,,0,,,81,94
64852,note_off,,,,,84,0,11,,,,,3,,,76,100
64852,note_off,,,,,84,0,10,,,,,2,,,81,100
64852,note_off,,,,,84,0,9,,,,,1,,,76,100
64852,note_off,,,,,84,0,8,,,,,0,,,81,100
64896,note_on,,,,,128,0,16,,,,,7,,,44,100
64896,note_on,,,,,44,0,9,,,,,1,,,76,94
64896,note_on,,,,,0,0,15,,,,,7,,,64,100
64896,note_on,,,,,44,0,8,,,,,0,,,80,94
64896,note_on,,,,,128,0,15,,,,,7,,,59,100
64896,note_on,,,,,128,0,13,,,,,5,,,44,94
64896,note_on,,,,,44,0,11,,,,,3,,,76,44
64896,note_on,,,,,128,0,12,,,,,4,,,64,94
64896,note_on,,,,,44,0,10,,,,,2,,,80,44
64896,note_on,,,,,0,0,12,,,,,4,,,59,94
64896,note_on,,,,,128,0,14,,,,,6,,,44,94
64980,note_off,,,,,84,0,8,,,,,0,,,80,100
64980,note_off,,,,,84,0,10,,,,,2,,,80,100
65024,note_on,,,,,44,0,8,,,,,0,,,81,94
65024,note_on,,,,,44,0,10,,,,,2,,,81,44
65064,note_off,,,,,168,0,9,,,,,1,,,76,100
65064,note_off,,,,,168,0,11,,,,,3,,,76,100
65108,note_off,,,,,84,0,8,,,,,0,,,81,100
65108,note_off,,,,,84,0,10,,,,,2,,,81,100
65152,note_off,,,,,256,0,13,,,,,5,,,44,100
65152,note_off,,,,,256,0,12,,,,,4,,,64,100
65152,note_off,,,,,0,0,12,,,,,4,,,59,100
65152,note_on,,,,,88,0,9,,,,,1,,,76,94
65152,note_off,,,,,256,0,14,,,,,6,,,44,100
65152,note_off,,,,,256,0,15,,,,,7,,,59,100
65152,note_off,,,,,0,0,15,,,,,7,,,64,100
65152,note_on,,,,,44,0,8,,,,,0,,,78,94
65152,note_off,,,,,256,0,16,,,,,7,,,44,100
65152,note_on,,,,,88,0,11,,,,,3,,,76,44
65152,note_on,,,,,44,0,10,,,,,2,,,78,44
65236,note_off,,,,,84,0,11,,,,,3,,,76,100
65236,note_off,,,,,84,0,8,,,,,0,,,78,100
65236,note_off,,,,,84,0,9,,,,,1,,,76,100
65236,note_off,,,,,84,0,10,,,,,2,,,78,100
65280,note_on,,,,,44,0,11,,,,,3,,,76,45
65280,note_on,,,,,44,0,8,,,,,0,,,76,92
65280,note_on,,,,,128,0,14,,,,,6,,,44,95
65280,note_on,,,,,44,0,9,,,,,1,,,76,95
65280,note_on,,,,,128,0,13,,,,,5,,,56,95
65280,note_on,,,,,128,0,12,,,,,4,,,64,95
65280,note_on,,,,,0,0,12,,,,,4,,,59,95
65280,note_on,,,,,128,0,16,,,,,7,,,56,100
65280,note_on,,,,,44,0,10,,,,,2,,,76,42
65280,note_on,,,,,128,0,15,,,,,7,,,64,100
65280,note_on,,,,,0,0,15,,,,,7,,,71,100
65364,note_off,,,,,84,0,10,,,,,2,,,76,100
65364,note_off,,,,,84,0,8,,,,,0,,,76,100
65408,note_on,,,,,44,0,10,,,,,2,,,78,45
65408,note_on,,,,,44,0,8,,,,,0,,,78,95
65448,note_off,,,,,168,0,11,,,,,3,,,76,100
65448,note_off,,,,,168,0,9,,,,,1,,,76,100
65492,note_off,,,,,84,0,10,,,,,2,,,78,100
65492,note_off,,,,,84,0,8,,,,,0,,,78,100
65536,note_off,,,,,256,0,13,,,,,5,,,56,100
65536,note_off,,,,,256,0,16,,,,,7,,,56,100
65536,note_on,,,,,88,0,11,,,,,3,,,76,45
65536,note_off,,,,,0,0,15,,,,,7,,,71,100
65536,note_off,,,,,256,0,15,,,,,7,,,64,100
65536,note_on,,,,,44,0,10,,,,,2,,,74,45
65536,note_off,,,,,256,0,14,,,,,6,,,44,100
65536,note_off,,,,,0,0,12,,,,,4,,,59,100
65536,note_off,,,,,256,0,12,,,,,4,,,64,100
65536,note_on,,,,,44,0,8,,,,,0,,,74,95
65536,note_on,,,,,88,0,9,,,,,1,,,76,95
65620,note_off,,,,,84,0,9,,,,,1,,,76,100
65620,note_off,,,,,84,0,10,,,,,2,,,74,100
65620,note_off,,,,,84,0,11,,,,,3,,,76,100
65620,note_off,,,,,84,0,8,,,,,0,,,74,100
65664,note_on,,,,,44,0,11,,,,,3,,,76,45
65664,note_on,,,,,128,0,14,,,,,6,,,45,95
65664,note_on,,,,,128,0,16,,,,,7,,,57,100
65664,note_on,,,,,44,0,10,,,,,2,,,73,45
65664,note_on,,,,,0,0,15,,,,,7,,,73,100
65664,note_on,,,,,44,0,9,,,,,1,,,76,95
65664,note_on,,,,,128,0,15,,,,,7,,,64,100
65664,note_on,,,,,0,0,12,,,,,4,,,61,95
65664,note_on,,,,,128,0,12,,,,,4,,,64,95
65664,note_on,,,,,44,0,8,,,,,0,,,73,95
65664,note_on,,,,,128,0,13,,,,,5,,,57,95
65748,note_off,,,,,84,0,9,,,,,1,,,76,100
65748,note_off,,,,,84,0,11,,,,,3,,,76,100
65792,note_on,,,,,44,0,9,,,,,1,,,78,95
65792,note_on,,,,,44,0,11,,,,,3,,,78,45
65832,note_off,,,,,168,0,10,,,,,2,,,73,100
65832,note_off,,,,,168,0,8,,,,,0,,,73,100
65876,note_off,,,,,84,0,11,,,,,3,,,78,100
65876,note_off,,,,,84,0,9,,,,,1,,,78,100
65920,note_off,,,,,0,0,12,,,,,4,,,61,100
65920,note_off,,,,,256,0,14,,,,,6,,,45,100
65920,note_off,,,,,256,0,12,,,,,4,,,64,100
65920,note_on,,,,,88,0,10,,,,,2,,,85,45
65920,note_off,,,,,256,0,13,,,,,5,,,57,100
65920,note_on,,,,,44,0,9,,,,,1,,,74,95
65920,note_off,,,,,0,0,15,,,,,7,,,73,100
65920,note_off,,,,,256,0,15,,,,,7,,,64,100
65920,note_on,,,,,44,0,11,,,,,3,,,74,45
65920,note_on,,,,,88,0,8,,,,,0,,,85,95
65920,note_off,,,,,256,0,16,,,,,7,,,57,100
66004,note_off,,,,,84,0,10,,,,,2,,,85,100
66004,note_off,,,,,84,0,9,,,,,1,,,74,100
66004,note_off,,,,,84,0,11,,,,,3,,,74,100
66004,note_off,,,,,84,0,8,,,,,0,,,85,100
66048,note_on,,,,,128,0,14,,,,,6,,,33,96
66048,note_on,,,,,44,0,10,,,,,2,,,85,46
66048,note_on,,,,,128,0,12,,,,,4,,,64,96
66048,note_on,,,,,44,0,11,,,,,3,,,73,46
66048,note_on,,,,,44,0,9,,,,,1,,,73,96
66048,note_on,,,,,128,0,13,,,,,5,,,45,96
66048,note_on,,,,,0,0,12,,,,,4,,,61,96
66048,note_on,,,,,44,0,8,,,,,0,,,85,96
66048,note_on,,,,,128,0,15,,,,,7,,,64,100
66048,note_on,,,,,0,0,15,,,,,7,,,61,100
66048,note_on,,,,,128,0,16,,,,,7,,,45,100
66132,note_off,,,,,84,0,9,,,,,1,,,73,100
66132,note_off,,,,,84,0,11,,,,,3,,,73,100
66176,note_on,,,,,44,0,9,,,,,1,,,74,96
66176,note_on,,,,,44,0,11,,,,,3,,,74,46
66216,note_off,,,,,168,0,8,,,,,0,,,85,100
66216,note_off,,,,,168,0,10,,,,,2,,,85,100
66260,note_off,,,,,84,0,9,,,,,1,,,74,100
66260,note_off,,,,,84,0,11,,,,,3,,,74,100
66304,note_off,,,,,0,0,15,,,,,7,,,61,100
66304,note_on,,,,,88,0,10,,,,,2,,,85,46
66304,note_on,,,,,44,0,9,,,,,1,,,71,96
66304,note_off,,,,,256,0,13,,,,,5,,,45,100
66304,note_off,,,,,256,0,12,,,,,4,,,64,100
66304,note_off,,,,,256,0,15,,,,,7,,,64,100
66304,note_off,,,,,0,0,12,,,,,4,,,61,100
66304,note_off,,,,,256,0,14,,,,,6,,,33,100
66304,note_on,,,,,44,0,11,,,,,3,,,71,46
66304,note_on,,,,,88,0,8,,,,,0,,,85,96
66304,note_off,,,,,256,0,16,,,,,7,,,45,100
66388,note_off,,,,,84,0,10,,,,,2,,,85,100
66388,note_off,,,,,84,0,9,,,,,1,,,71,100
66388,note_off,,,,,84,0,11,,,,,3,,,71,100
66388,note_off,,,,,84,0,8,,,,,0,,,85,100
66432,note_on,,,,,44,0,8,,,,,0,,,85,96
66432,note_on,,,,,128,0,12,,,,,4,,,64,96
66432,note_on,,,,,44,0,10,,,,,2,,,85,46
66432,note_on,,,,,44,0,11,,,,,3,,,69,46
66432,note_on,,,,,44,0,9,,,,,1,,,69,96
66432,note_on,,,,,0,0,12,,,,,4,,,61,96
66516,note_off,,,,,84,0,11,,,,,3,,,69,100
66516,note_off,,,,,84,0,9,,,,,1,,,69,100
66560,note_on,,,,,44,0,9,,,,,1,,,71,96
66560,note_on,,,,,44,0,11,,,,,3,,,71,46
66600,note_off,,,,,168,0,8,,,,,0,,,85,100
66600,note_off,,,,,168,0,10,,,,,2,,,85,100
66644,note_off,,,,,84,0,11,,,,,3,,,71,100
66644,note_off,,,,,84,0,9,,,,,1,,,71,100
66688,note_on,,,,,44,0,11,,,,,3,,,67,46
66688,note_off,,,,,256,0,12,,,,,4,,,64,100
66688,note_off,,,,,0,0,12,,,,,4,,,61,100
66688,note_on,,,,,88,0,10,,,,,2,,,85,46
66688,note_on,,,,,44,0,9,,,,,1,,,67,96
66688,note_on,,,,,88,0,8,,,,,0,,,85,96
66772,note_off,,,,,84,0,11,,,,,3,,,67,100
66772,note_off,,,,,84,0,9,,,,,1,,,67,100
66772,note_off,,,,,84,0,8,,,,,0,,,85,100
66772,note_off,,,,,84,0,10,,,,,2,,,85,100
66816,note_on,,,,,0,0,12,,,,,4,,,61,97
66816,note_on,,,,,512,0,15,,,,,7,,,66,100
66816,note_on,,,,,0,0,15,,,,,7,,,73,100
66816,note_on,,,,,44,0,10,,,,,2,,,85,47
66816,note_on,,,,,512,0,13,,,,,5,,,58,97
66816,note_on,,,,,44,0,9,,,,,1,,,66,97
66816,note_on,,,,,44,0,8,,,,,0,,,85,97
66816,note_on,,,,,512,0,16,,,,,7,,,58,100
66816,note_on,,,,,44,0,11,,,,,3,,,66,47
66816,note_on,,,,,512,0,14,,,,,6,,,46,97
66816,note_on,,,,,128,0,12,,,,,4,,,66,97
66900,note_off,,,,,84,0,8,,,,,0,,,85,100
66900,note_off,,,,,84,0,10,,,,,2,,,85,100
66944,note_on,,,,,44,0,8,,,,,0,,,86,97
66944,note_on,,,,,44,0,10,,,,,2,,,86,47
66984,note_off,,,,,168,0,9,,,,,1,,,66,100
66984,note_off,,,,,168,0,11,,,,,3,,,66,100
67028,note_off,,,,,84,0,8,,,,,0,,,86,100
67028,note_off,,,,,84,0,10,,,,,2,,,86,100
67072,note_on,,,,,44,0,8,,,,,0,,,83,97
67072,note_off,,,,,256,0,16,,,,,7,,,58,100
67072,note_on,,,,,88,0,9,,,,,1,,,78,97
67072,note_on,,,,,44,0,10,,,,,2,,,83,47
67072,note_on,,,,,88,0,11,,,,,3,,,78,47
67072,note_off,,,,,256,0,13,,,,,5,,,58,100
67072,note_off,,,,,256,0,15,,,,,7,,,66,100
67072,note_off,,,,,0,0,15,,,,,7,,,73,100
67072,note_off,,,,,256,0,14,,,,,6,,,46,100
67072,note_off,,,,,256,0,12,,,,,4,,,66,100
67072,note_off,,,,,0,0,12,,,,,4,,,61,100
67156,note_off,,,,,84,0,8,,,,,0,,,83,100
67156,note_off,,,,,84,0,11,,,,,3,,,78,100
67156,note_off,,,,,84,0,10,,,,,2,,,83,100
67156,note_off,,,,,84,0,9,,,,,1,,,78,100
67200,note_on,,,,,44,0,11,,,,,3,,,78,47
67200,note_on,,,,,128,0,16,,,,,7,,,46,100
67200,note_on,,,,,44,0,8,,,,,0,,,82,97
67200,note_on,,,,,128,0,13,,,,,5,,,46,97
67200,note_on,,,,,44,0,10,,,,,2,,,82,47
67200,note_on,,,,,0,0,12,,,,,4,,,61,97
67200,note_on,,,,,128,0,12,,,,,4,,,66,97
67200,note_on,,,,,44,0,9,,,,,1,,,78,97
67200,note_on,,,,,128,0,14,,,,,6,,,34,97
67200,note_on,,,,,128,0,15,,,,,7,,,61,100
67200,note_on,,,,,0,0,15,,,,,7,,,66,100
67284,note_off,,,,,84,0,10,,,,,2,,,82,100
67284,note_off,,,,,84,0,8,,,,,0,,,82,100
67328,note_on,,,,,44,0,8,,,,,0,,,83,97
67328,note_on,,,,,44,0,10,,,,,2,,,83,47
67368,note_off,,,,,168,0,9,,,,,1,,,78,100
67368,note_off,,,,,168,0,11,,,,,3,,,78,100
67412,note_off,,,,,84,0,8,,,,,0,,,83,100
67412,note_off,,,,,84,0,10,,,,,2,,,83,100
67456,note_on,,,,,44,0,8,,,,,0,,,79,97
67456,note_on,,,,,44,0,10,,,,,2,,,79,47
67456,note_off,,,,,256,0,14,,,,,6,,,34,100
67456,note_off,,,,,256,0,12,,,,,4,,,66,100
67456,note_off,,,,,0,0,12,,,,,4,,,61,100
67456,note_on,,,,,88,0,9,,,,,1,,,78,97
67456,note_off,,,,,0,0,15,,,,,7,,,66,100
67456,note_off,,,,,256,0,15,,,,,7,,,61,100
67456,note_on,,,,,88,0,11,,,,,3,,,78,47
67456,note_off,,,,,256,0,16,,,,,7,,,46,100
67456,note_off,,,,,256,0,13,,,,,5,,,46,100
67540,note_off,,,,,84,0,10,,,,,2,,,79,100
67540,note_off,,,,,84,0,11,,,,,3,,,78,100
67540,note_off,,,,,84,0,8,,,,,0,,,79,100
67540,note_off,,,,,84,0,9,,,,,1,,,78,100
67584,note_on,,,,,128,0,13,,,,,5,,,58,98
67584,note_on,,,,,44,0,10,,,,,2,,,78,45
67584,note_on,,,,,44,0,8,,,,,0,,,78,95
67584,note_on,,,,,128,0,14,,,,,6,,,46,98
67584,note_on,,,,,44,0,11,,,,,3,,,78,48
67584,note_on,,,,,0,0,12,,,,,4,,,61,98
67584,note_on,,,,,0,0,15,,,,,7,,,73,100
67584,note_on,,,,,128,0,12,,,,,4,,,66,98
67584,note_on,,,,,44,0,9,,,,,1,,,78,98
67584,note_on,,,,,128,0,16,,,,,7,,,58,100
67584,note_on,,,,,128,0,15,,,,,7,,,66,100
67668,note_off,,,,,84,0,8,,,,,0,,,78,100
67668,note_off,,,,,84,0,10,,,,,2,,,78,100
67712,note_on,,,,,44,0,8,,,,,0,,,79,98
67712,note_on,,,,,44,0,10,,,,,2,,,79,48
67752,note_off,,,,,168,0,9,,,,,1,,,78,100
67752,note_off,,,,,168,0,11,,,,,3,,,78,100
67796,note_off,,,,,84,0,10,,,,,2,,,79,100
67796,note_off,,,,,84,0,8,,,,,0,,,79,100
67840,note_on,,,,,88,0,9,,,,,1,,,78,98
67840,note_on,,,,,88,0,11,,,,,3,,,78,48
67840,note_on,,,,,44,0,10,,,,,2,,,76,48
67840,note_off,,,,,0,0,15,,,,,7,,,73,100
67840,note_on,,,,,44,0,8,,,,,0,,,76,98
67840,note_off,,,,,256,0,15,,,,,7,,,66,100
67840,note_off,,,,,256,0,13,,,,,5,,,58,100
67840,note_off,,,,,0,0,12,,,,,4,,,61,100
67840,note_off,,,,,256,0,12,,,,,4,,,66,100
67840,note_off,,,,,256,0,16,,,,,7,,,58,100
67840,note_off,,,,,256,0,14,,,,,6,,,46,100
67924,note_off,,,,,84,0,10,,,,,2,,,76,100
67924,note_off,,,,,84,0,8,,,,,0,,,76,100
67924,note_off,,,,,84,0,11,,,,,3,,,78,100
67924,note_off,,,,,84,0,9,,,,,1,,,78,100
67968,note_on,,,,,128,0,12,,,,,4,,,62,98
67968,note_on,,,,,0,0,12,,,,,4,,,66,98
67968,note_on,,,,,128,0,16,,,,,7,,,59,100
67968,note_on,,,,,44,0,9,,,,,1,,,83,98
67968,note_on,,,,,44,0,8,,,,,0,,,74,98
67968,note_on,,,,,128,0,15,,,,,7,,,66,100
67968,note_on,,,,,0,0,15,,,,,7,,,74,100
67968,note_on,,,,,44,0,10,,,,,2,,,74,48
67968,note_on,,,,,128,0,13,,,,,5,,,59,98
67968,note_on,,,,,128,0,14,,,,,6,,,47,98
67968,note_on,,,,,44,0,11,,,,,3,,,83,48
68136,note_off,,,,,168,0,10,,,,,2,,,74,100
68136,note_off,,,,,168,0,11,,,,,3,,,83,100
68136,note_off,,,,,168,0,8,,,,,0,,,74,100
68136,note_off,,,,,168,0,9,,,,,1,,,83,100
68224,note_on,,,,,88,0,9,,,,,1,,,83,98
68224,note_off,,,,,256,0,12,,,,,4,,,62,100
68224,note_off,,,,,0,0,12,,,,,4,,,66,100
68224,note_on,,,,,88,0,11,,,,,3,,,83,48
68224,note_on,,,,,88,0,10,,,,,2,,,86,48
68224,note_off,,,,,256,0,13,,,,,5,,,59,100
68224,note_off,,,,,256,0,14,,,,,6,,,47,100
68224,note_on,,,,,88,0,8,,,,,0,,,86,98
68224,note_off,,,,,0,0,15,,,,,7,,,74,100
68224,note_off,,,,,256,0,15,,,,,7,,,66,100
68224,note_off,,,,,256,0,16,,,,,7,,,59,100
68308,note_off,,,,,84,0,11,,,,,3,,,83,100
68308,note_off,,,,,84,0,9,,,,,1,,,83,100
68308,note_off,,,,,84,0,8,,,,,0,,,86,100
68308,note_off,,,,,84,0,10,,,,,2,,,86,100
68352,note_on,,,,,128,0,16,,,,,7,,,47,100
68352,note_on,,,,,128,0,14,,,,,6,,,35,99
68352,note_on,,,,,44,0,8,,,,,0,,,86,99
68352,note_on,,,,,44,0,11,,,,,3,,,83,49
68352,note_on,,,,,128,0,13,,,,,5,,,47,99
68352,note_on,,,,,128,0,12,,,,,4,,,62,99
68352,note_on,,,,,0,0,15,,,,,7,,,66,100
68352,note_on,,,,,0,0,12,,,,,4,,,66,99
68352,note_on,,,,,128,0,15,,,,,7,,,62,100
68352,note_on,,,,,44,0,9,,,,,1,,,83,99
68352,note_on,,,,,44,0,10,,,,,2,,,86,49
68520,note_off,,,,,168,0,9,,,,,1,,,83,100
68520,note_off,,,,,168,0,10,,,,,2,,,86,100
68520,note_off,,,,,168,0,8,,,,,0,,,86,100
68520,note_off,,,,,168,0,11,,,,,3,,,83,100
68608,note_off,,,,,256,0,14,,,,,6,,,35,100
68608,note_off,,,,,256,0,16,,,,,7,,,47,100
68608,note_off,,,,,256,0,13,,,,,5,,,47,100
68608,note_on,,,,,88,0,9,,,,,1,,,83,99
68608,note_on,,,,,88,0,8,,,,,0,,,86,99
68608,note_off,,,,,256,0,15,,,,,7,,,62,100
68608,note_off,,,,,0,0,12,,,,,4,,,66,100
68608,note_off,,,,,256,0,12,,,,,4,,,62,100
68608,note_on,,,,,88,0,10,,,,,2,,,86,49
68608,note_on,,,,,88,0,11,,,,,3,,,83,49
68608,note_off,,,,,0,0,15,,,,,7,,,66,100
68692,note_off,,,,,84,0,9,,,,,1,,,83,100
68692,note_off,,,,,84,0,8,,,,,0,,,86,100
68692,note_off,,,,,84,0,10,,,,,2,,,86,100
68692,note_off,,,,,84,0,11,,,,,3,,,83,100
68736,note_on,,,,,128,0,13,,,,,5,,,59,99
68736,note_on,,,,,128,0,15,,,,,7,,,66,100
68736,note_on,,,,,0,0,15,,,,,7,,,74,100
68736,note_on,,,,,44,0,11,,,,,3,,,83,49
68736,note_on,,,,,44,0,8,,,,,0,,,86,99
68736,note_on,,,,,128,0,16,,,,,7,,,59,100
68736,note_on,,,,,44,0,10,,,,,2,,,86,49
68736,note_on,,,,,128,0,12,,,,,4,,,66,99
68736,note_on,,,,,128,0,14,,,,,6,,,47,99
68736,note_on,,,,,44,0,9,,,,,1,,,83,99
68904,note_off,,,,,168,0,9,,,,,1,,,83,100
68904,note_off,,,,,168,0,10,,,,,2,,,86,100
68904,note_off,,,,,168,0,8,,,,,0,,,86,100
68904,note_off,,,,,168,0,11,,,,,3,,,83,100
68992,note_off,,,,,256,0,15,,,,,7,,,66,100
68992,note_off,,,,,0,0,15,,,,,7,,,74,100
68992,note_on,,,,,88,0,10,,,,,2,,,86,49
68992,note_on,,,,,88,0,8,,,,,0,,,86,99
68992,note_on,,,,,88,0,11,,,,,3,,,83,49
68992,note_off,,,,,256,0,13,,,,,5,,,59,100
68992,note_on,,,,,88,0,9,,,,,1,,,83,99
68992,note_off,,,,,256,0,12,,,,,4,,,66,100
68992,note_off,,,,,256,0,16,,,,,7,,,59,100
68992,note_off,,,,,256,0,14,,,,,6,,,47,100
69076,note_off,,,,,84,0,10,,,,,2,,,86,100
69076,note_off,,,,,84,0,9,,,,,1,,,83,100
69076,note_off,,,,,84,0,11,,,,,3,,,83,100
69076,note_off,,,,,84,0,8,,,,,0,,,86,100
69120,note_on,,,,,44,0,9,,,,,1,,,83,100
69120,note_on,,,,,0,0,12,,,,,4,,,65,100
69120,note_on,,,,,128,0,12,,,,,4,,,68,100
69120,note_on,,,,,44,0,10,,,,,2,,,86,50
69120,note_on,,,,,44,0,11,,,,,3,,,83,50
69120,note_on,,,,,128,0,13,,,,,5,,,53,100
69120,note_on,,,,,44,0,8,,,,,0,,,86,100
69120,note_on,,,,,128,0,16,,,,,7,,,53,100
69120,note_on,,,,,0,0,15,,,,,7,,,62,100
69120,note_on,,,,,128,0,15,,,,,7,,,71,100
69120,note_on,,,,,128,0,14,,,,,6,,,41,100
69504,note_off,,,,,384,0,13,,,,,5,,,53,100
69504,note_off,,,,,0,0,12,,,,,4,,,65,100
69504,note_off,,,,,384,0,16,,,,,7,,,53,100
69504,note_off,,,,,384,0,14,,,,,6,,,41,100
69504,note_off,,,,,0,0,15,,,,,7,,,62,100
69504,note_off,,,,,384,0,12,,,,,4,,,68,100
69504,note_off,,,,,384,0,15,,,,,7,,,71,100
69544,note_off,,,,,424,0,8,,,,,0,,,86,100
69544,note_off,,,,,424,0,11,,,,,3,,,83,100
69544,note_off,,,,,424,0,9,,,,,1,,,83,100
69544,note_off,,,,,424,0,10,,,,,2,,,86,100
69696,note_on,,,,,192,0,15,,,,,7,,,71,100
69696,note_on,,,,,192,0,13,,,,,5,,,53,100
69696,note_on,,,,,0,0,15,,,,,7,,,62,100
69696,note_on,,,,,192,0,14,,,,,6,,,41,100
69696,note_on,,,,,192,0,16,,,,,7,,,53,100
69696,note_on,,,,,0,0,12,,,,,4,,,65,100
69696,note_on,,,,,192,0,12,,,,,4,,,68,100
69760,note_on,,,,,216,0,9,,,,,1,,,83,100
69760,note_on,,,,,216,0,10,,,,,2,,,86,50
69760,note_on,,,,,216,0,11,,,,,3,,,83,50
69760,note_on,,,,,216,0,8,,,,,0,,,86,100
69824,note_off,,,,,0,0,12,,,,,4,,,65,100
69824,note_off,,,,,128,0,12,,,,,4,,,68,100
69824,note_off,,,,,128,0,16,,,,,7,,,53,100
69824,note_off,,,,,128,0,13,,,,,5,,,53,100
69824,note_off,,,,,0,0,15,,,,,7,,,62,100
69824,note_off,,,,,128,0,14,,,,,6,,,41,100
69824,note_off,,,,,128,0,15,,,,,7,,,71,100
69844,note_off,,,,,84,0,11,,,,,3,,,83,100
69844,note_off,,,,,84,0,10,,,,,2,,,86,100
69844,note_off,,,,,84,0,8,,,,,0,,,86,100
69844,note_off,,,,,84,0,9,,,,,1,,,83,100
69888,note_on,,,,,64,0,12,,,,,4,,,61,100
69888,note_on,,,,,64,0,14,,,,,6,,,42,100
69888,note_on,,,,,64,0,16,,,,,7,,,54,100
69888,note_on,,,,,44,0,10,,,,,2,,,85,50
69888,note_on,,,,,44,0,9,,,,,1,,,81,100
69888,note_on,,,,,64,0,13,,,,,5,,,54,100
69888,note_on,,,,,44,0,8,,,,,0,,,85,100
69888,note_on,,,,,44,0,11,,,,,3,,,81,50
69888,note_on,,,,,0,0,15,,,,,7,,,69,100
69888,note_on,,,,,0,0,12,,,,,4,,,69,100
69888,note_on,,,,,64,0,15,,,,,7,,,61,100
70144,note_off,,,,,256,0,9,,,,,1,,,81,100
70144,note_off,,,,,256,0,14,,,,,6,,,42,100
70144,note_off,,,,,256,0,15,,,,,7,,,61,100
70144,note_off,,,,,256,0,10,,,,,2,,,85,100
70144,note_off,,,,,0,0,15,,,,,7,,,69,100
70144,note_off,,,,,256,0,16,,,,,7,,,54,100
70144,note_off,,,,,256,0,8,,,,,0,,,85,100
70144,note_off,,,,,256,0,12,,,,,4,,,61,100
70144,note_off,,,,,0,0,12,,,,,4,,,69,100
70144,note_off,,,,,256,0,13,,,,,5,,,54,100
70144,note_off,,,,,256,0,11,,,,,3,,,81,100
70272,note_on,,,,,128,0,11,,,,,3,,,80,50
70272,note_on,,,,,128,0,8,,,,,0,,,83,100
70272,note_on,,,,,0,0,15,,,,,7,,,66,100
70272,note_on,,,,,128,0,10,,,,,2,,,83,50
70272,note_on,,,,,128,0,15,,,,,7,,,68,100
70272,note_on,,,,,128,0,12,,,,,4,,,71,100
70272,note_on,,,,,128,0,13,,,,,5,,,59,100
70272,note_on,,,,,128,0,9,,,,,1,,,80,100
70272,note_on,,,,,128,0,14,,,,,6,,,47,100
70272,note_on,,,,,0,0,12,,,,,4,,,62,100
70272,note_on,,,,,128,0,16,,,,,7,,,59,100
70400,note_off,,,,,0,0,12,,,,,4,,,62,100
70400,note_off,,,,,128,0,12,,,,,4,,,71,100
70440,note_off,,,,,168,0,9,,,,,1,,,80,100
70440,note_off,,,,,168,0,10,,,,,2,,,83,100
70440,note_off,,,,,168,0,11,,,,,3,,,80,100
70440,note_off,,,,,168,0,8,,,,,0,,,83,100
70464,note_on,,,,,0,0,12,,,,,4,,,71,100
70464,note_on,,,,,64,0,12,,,,,4,,,74,100
70528,note_off,,,,,256,0,14,,,,,6,,,47,100
70528,note_on,,,,,88,0,10,,,,,2,,,81,50
70528,note_on,,,,,88,0,9,,,,,1,,,78,100
70528,note_off,,,,,256,0,13,,,,,5,,,59,100
70528,note_off,,,,,0,0,15,,,,,7,,,66,100
70528,note_off,,,,,256,0,15,,,,,7,,,68,100
70528,note_off,,,,,256,0,16,,,,,7,,,59,100
70528,note_on,,,,,88,0,11,,,,,3,,,78,50
70528,note_on,,,,,88,0,8,,,,,0,,,81,100
70592,note_off,,,,,0,0,12,,,,,4,,,71,100
70592,note_off,,,,,128,0,12,,,,,4,,,74,100
70612,note_off,,,,,84,0,11,,,,,3,,,78,100
70612,note_off,,,,,84,0,8,,,,,0,,,81,100
70612,note_off,,,,,84,0,10,,,,,2,,,81,100
70612,note_off,,,,,84,0,9,,,,,1,,,78,100
70656,note_on,,,,,44,0,10,,,,,2,,,80,50
70656,note_on,,,,,64,0,12,,,,,4,,,65,100
70656,note_on,,,,,0,0,12,,,,,4,,,68,100
70656,note_on,,,,,44,0,9,,,,,1,,,77,100
70656,note_on,,,,,44,0,11,,,,,3,,,77,50
70656,note_on,,,,,128,0,14,,,,,6,,,49,100
70656,note_on,,,,,128,0,13,,,,,5,,,61,100
70656,note_on,,,,,0,0,15,,,,,7,,,68,100
70656,note_on,,,,,128,0,15,,,,,7,,,66,100
70656,note_on,,,,,44,0,8,,,,,0,,,80,100
70656,note_on,,,,,128,0,16,,,,,7,,,61,100
70748,note_off,,,,,92,0,10,,,,,2,,,80,100
70748,note_off,,,,,92,0,11,,,,,3,,,77,100
70748,note_off,,,,,92,0,8,,,,,0,,,80,100
70748,note_off,,,,,92,0,9,,,,,1,,,77,100
70752,note_on,,,,,4,0,10,,,,,2,,,81,50
70752,note_on,,,,,4,0,8,,,,,0,,,81,100
70752,note_on,,,,,4,0,11,,,,,3,,,78,50
70752,note_on,,,,,4,0,9,,,,,1,,,78,100
70844,note_off,,,,,92,0,9,,,,,1,,,78,100
70844,note_off,,,,,92,0,8,,,,,0,,,81,100
70844,note_off,,,,,92,0,10,,,,,2,,,81,100
70844,note_off,,,,,92,0,11,,,,,3,,,78,100
70848,note_on,,,,,4,0,10,,,,,2,,,80,50
70848,note_on,,,,,4,0,9,,,,,1,,,77,100
70848,note_on,,,,,4,0,8,,,,,0,,,80,100
70848,note_on,,,,,4,0,11,,,,,3,,,77,50
70892,note_off,,,,,44,0,11,,,,,3,,,77,100
70892,note_off,,,,,44,0,10,,,,,2,,,80,100
70892,note_off,,,,,44,0,8,,,,,0,,,80,100
70892,note_off,,,,,44,0,9,,,,,1,,,77,100
70896,note_on,,,,,4,0,10,,,,,2,,,81,50
70896,note_on,,,,,4,0,8,,,,,0,,,81,100
70896,note_on,,,,,4,0,11,,,,,3,,,78,50
70896,note_on,,,,,4,0,9,,,,,1,,,78,100
70912,note_off,,,,,256,0,13,,,,,5,,,61,100
70912,note_off,,,,,256,0,16,,,,,7,,,61,100
70912,note_off,,,,,256,0,12,,,,,4,,,65,100
70912,note_off,,,,,0,0,15,,,,,7,,,68,100
70912,note_off,,,,,256,0,15,,,,,7,,,66,100
70912,note_off,,,,,256,0,14,,,,,6,,,49,100
70940,note_off,,,,,44,0,9,,,,,1,,,78,100
70940,note_off,,,,,44,0,11,,,,,3,,,78,100
70940,note_off,,,,,44,0,8,,,,,0,,,81,100
70940,note_off,,,,,44,0,10,,,,,2,,,81,100
70944,note_on,,,,,4,0,10,,,,,2,,,80,50
70944,note_on,,,,,4,0,8,,,,,0,,,80,100
70944,note_on,,,,,4,0,9,,,,,1,,,77,100
70944,note_on,,,,,4,0,11,,,,,3,,,77,50
70988,note_off,,,,,44,0,9,,,,,1,,,77,100
70988,note_off,,,,,44,0,8,,,,,0,,,80,100
70988,note_off,,,,,44,0,11,,,,,3,,,77,100
70988,note_off,,,,,44,0,10,,,,,2,,,80,100
70992,note_on,,,,,4,0,9,,,,,1,,,78,100
70992,note_on,,,,,4,0,8,,,,,0,,,81,100
70992,note_on,,,,,4,0,11,,,,,3,,,78,50
70992,note_on,,,,,4,0,10,,,,,2,,,81,50
71036,note_off,,,,,44,0,9,,,,,1,,,78,100
71036,note_off,,,,,44,0,8,,,,,0,,,81,100
71036,note_off,,,,,44,0,11,,,,,3,,,78,100
71036,note_off,,,,,44,0,10,,,,,2,,,81,100
71040,note_off,,,,,128,0,12,,,,,4,,,68,100
71040,note_on,,,,,0,0,12,,,,,4,,,61,100
71040,note_on,,,,,4,0,8,,,,,0,,,80,100
71040,note_on,,,,,0,0,15,,,,,7,,,64,100
71040,note_on,,,,,4,0,9,,,,,1,,,77,100
71040,note_on,,,,,128,0,14,,,,,6,,,37,100
71040,note_on,,,,,4,0,11,,,,,3,,,77,50
71040,note_on,,,,,128,0,13,,,,,5,,,49,100
71040,note_on,,,,,128,0,16,,,,,7,,,49,100
71040,note_on,,,,,4,0,10,,,,,2,,,80,50
71040,note_on,,,,,128,0,15,,,,,7,,,56,100
71228,note_off,,,,,188,0,11,,,,,3,,,77,100
71228,note_off,,,,,188,0,8,,,,,0,,,80,100
71228,note_off,,,,,188,0,10,,,,,2,,,80,100
71228,note_off,,,,,188,0,9,,,,,1,,,77,100
71232,note_on,,,,,192,0,12,,,,,4,,,73,100
71292,note_on,,,,,64,0,8,,,,,0,,,78,100
71292,note_on,,,,,64,0,10,,,,,2,,,78,50
71296,note_on,,,,,68,0,9,,,,,1,,,78,100
71296,note_off,,,,,0,0,15,,,,,7,,,64,100
71296,note_off,,,,,256,0,16,,,,,7,,,49,100
71296,note_off,,,,,256,0,13,,,,,5,,,49,100
71296,note_off,,,,,64,0,12,,,,,4,,,61,100
71296,note_off,,,,,256,0,15,,,,,7,,,56,100
71296,note_on,,,,,68,0,11,,,,,3,,,78,50
71296,note_off,,,,,256,0,14,,,,,6,,,37,100
71360,note_off,,,,,64,0,12,,,,,4,,,73,100
71376,note_off,,,,,84,0,8,,,,,0,,,78,100
71376,note_off,,,,,84,0,10,,,,,2,,,78,100
71380,note_off,,,,,84,0,11,,,,,3,,,78,100
71380,note_off,,,,,84,0,9,,,,,1,,,78,100
71420,program_change,,,,,40,0,9,,,,,1,40,,,
71424,note_on,,,,,0,0,15,,,,,7,,,57,100
71424,note_on,,,,,128,0,15,,,,,7,,,61,100
71424,note_on,,,,,128,0,13,,,,,5,,,54,100
71424,note_on,,,,,128,0,14,,,,,6,,,42,100
71424,note_on,,,,,64,0,12,,,,,4,,,69,100
71424,note_on,,,,,0,0,12,,,,,4,,,61,100
71424,note_on,,,,,44,0,11,,,,,3,,,78,50
71424,note_on,,,,,48,0,8,,,,,0,,,78,100
71424,note_on,,,,,48,0,10,,,,,2,,,78,50
71424,note_on,,,,,128,0,16,,,,,7,,,54,100
71424,note_on,,,,,4,0,9,,,,,1,,,78,85
71548,note_off,,,,,124,0,9,,,,,1,,,78,100
71552,note_on,,,,,4,0,9,,,,,1,,,79,85
71676,note_off,,,,,124,0,9,,,,,1,,,79,100
71680,note_off,,,,,0,0,15,,,,,7,,,57,100
71680,note_off,,,,,256,0,15,,,,,7,,,61,100
71680,note_off,,,,,256,0,11,,,,,3,,,78,100
71680,note_off,,,,,256,0,8,,,,,0,,,78,100
71680,note_off,,,,,256,0,10,,,,,2,,,78,100
71680,note_off,,,,,256,0,13,,,,,5,,,54,100
71680,note_off,,,,,256,0,14,,,,,6,,,42,100
71680,note_off,,,,,256,0,16,,,,,7,,,54,100
71680,note_off,,,,,0,0,12,,,,,4,,,61,100
71680,note_off,,,,,256,0,12,,,,,4,,,69,100
71680,note_on,,,,,4,0,9,,,,,1,,,81,85
71764,note_off,,,,,84,0,9,,,,,1,,,81,100
71808,note_on,,,,,128,0,16,,,,,7,,,54,100
71808,note_on,,,,,128,0,13,,,,,5,,,54,85
71808,note_on,,,,,128,0,15,,,,,7,,,61,100
71808,note_on,,,,,44,0,9,,,,,1,,,78,85
71808,note_on,,,,,128,0,14,,,,,6,,,42,85
71808,note_on,,,,,0,0,15,,,,,7,,,57,100
71932,note_off,,,,,124,0,9,,,,,1,,,78,100
71936,note_on,,,,,4,0,9,,,,,1,,,76,85
72060,note_off,,,,,124,0,9,,,,,1,,,76,100
72064,note_off,,,,,256,0,13,,,,,5,,,54,100
72064,note_on,,,,,4,0,9,,,,,1,,,78,85
72064,note_off,,,,,0,0,15,,,,,7,,,57,100
72064,note_off,,,,,256,0,15,,,,,7,,,61,100
72064,note_off,,,,,256,0,14,,,,,6,,,42,100
72064,note_off,,,,,256,0,16,,,,,7,,,54,100
72148,note_off,,,,,84,0,9,,,,,1,,,78,100
72192,note_on,,,,,0,0,15,,,,,7,,,61,100
72192,note_on,,,,,128,0,16,,,,,7,,,54,100
72192,note_on,,,,,128,0,14,,,,,6,,,42,85
72192,note_on,,,,,44,0,9,,,,,1,,,76,85
72192,note_on,,,,,128,0,15,,,,,7,,,64,100
72192,note_on,,,,,128,0,13,,,,,5,,,54,85
72316,note_off,,,,,124,0,9,,,,,1,,,76,100
72320,note_on,,,,,4,0,9,,,,,1,,,75,85
72444,note_off,,,,,124,0,9,,,,,1,,,75,100
72448,note_off,,,,,256,0,14,,,,,6,,,42,100
72448,note_on,,,,,4,0,9,,,,,1,,,76,85
72448,note_off,,,,,256,0,16,,,,,7,,,54,100
72448,note_off,,,,,256,0,13,,,,,5,,,54,100
72448,note_off,,,,,256,0,15,,,,,7,,,64,100
72448,note_off,,,,,0,0,15,,,,,7,,,61,100
72532,note_off,,,,,84,0,9,,,,,1,,,76,100
72576,note_on,,,,,44,0,9,,,,,1,,,75,85
72576,note_on,,,,,0,0,15,,,,,7,,,66,100
72576,note_on,,,,,128,0,13,,,,,5,,,59,85
72576,note_on,,,,,128,0,16,,,,,7,,,59,100
72576,note_on,,,,,128,0,14,,,,,6,,,47,85
72576,note_on,,,,,128,0,15,,,,,7,,,57,100
72700,note_off,,,,,124,0,9,,,,,1,,,75,100
72704,note_on,,,,,4,0,9,,,,,1,,,76,85
72828,note_off,,,,,124,0,9,,,,,1,,,76,100
72832,note_off,,,,,0,0,15,,,,,7,,,66,100
72832,note_off,,,,,256,0,15,,,,,7,,,57,100
72832,note_off,,,,,256,0,14,,,,,6,,,47,100
72832,note_off,,,,,256,0,13,,,,,5,,,59,100
72832,note_off,,,,,256,0,16,,,,,7,,,59,100
72832,note_on,,,,,4,0,9,,,,,1,,,78,85
72916,note_off,,,,,84,0,9,,,,,1,,,78,100
72960,note_on,,,,,0,0,15,,,,,7,,,66,100
72960,note_on,,,,,128,0,14,,,,,6,,,47,85
72960,note_on,,,,,128,0,16,,,,,7,,,59,100
72960,note_on,,,,,128,0,13,,,,,5,,,59,85
72960,note_on,,,,,128,0,15,,,,,7,,,63,100
72960,note_on,,,,,44,0,9,,,,,1,,,75,85
73084,note_off,,,,,124,0,9,,,,,1,,,75,100
73088,note_on,,,,,4,0,9,,,,,1,,,76,85
73212,note_off,,,,,124,0,9,,,,,1,,,76,100
73216,note_off,,,,,256,0,16,,,,,7,,,59,100
73216,note_off,,,,,256,0,15,,,,,7,,,63,100
73216,note_off,,,,,256,0,14,,,,,6,,,47,100
73216,note_off,,,,,256,0,13,,,,,5,,,59,100
73216,note_on,,,,,4,0,9,,,,,1,,,78,85
73216,note_off,,,,,0,0,15,,,,,7,,,66,100
73300,note_off,,,,,84,0,9,,,,,1,,,78,100
73344,note_on,,,,,128,0,15,,,,,7,,,63,100
73344,note_on,,,,,0,0,15,,,,,7,,,66,100
73344,note_on,,,,,128,0,14,,,,,6,,,47,85
73344,note_on,,,,,128,0,13,,,,,5,,,59,85
73344,note_on,,,,,128,0,16,,,,,7,,,59,100
73344,note_on,,,,,44,0,9,,,,,1,,,75,85
73468,note_off,,,,,124,0,9,,,,,1,,,75,100
73472,note_on,,,,,4,0,9,,,,,1,,,76,85
73596,note_off,,,,,124,0,9,,,,,1,,,76,100
73600,note_on,,,,,4,0,9,,,,,1,,,78,85
73600,note_off,,,,,256,0,15,,,,,7,,,63,100
73600,note_off,,,,,256,0,13,,,,,5,,,59,100
73600,note_off,,,,,0,0,15,,,,,7,,,66,100
73600,note_off,,,,,256,0,16,,,,,7,,,59,100
73600,note_off,,,,,256,0,14,,,,,6,,,47,100
73684,note_off,,,,,84,0,9,,,,,1,,,78,100
73728,note_on,,,,,44,0,9,,,,,1,,,79,85
73728,note_on,,,,,128,0,13,,,,,5,,,52,85
73728,note_on,,,,,128,0,16,,,,,7,,,52,100
73728,note_on,,,,,128,0,15,,,,,7,,,59,100
73728,note_on,,,,,0,0,15,,,,,7,,,67,100
73728,note_on,,,,,128,0,14,,,,,6,,,40,85
73852,note_off,,,,,124,0,9,,,,,1,,,79,100
73856,note_on,,,,,4,0,9,,,,,1,,,81,85
73980,note_off,,,,,124,0,9,,,,,1,,,81,100
73984,note_on,,,,,4,0,9,,,,,1,,,83,85
73984,note_off,,,,,256,0,16,,,,,7,,,52,100
73984,note_off,,,,,256,0,13,,,,,5,,,52,100
73984,note_off,,,,,256,0,14,,,,,6,,,40,100
73984,note_off,,,,,256,0,15,,,,,7,,,59,100
73984,note_off,,,,,0,0,15,,,,,7,,,67,100
74068,note_off,,,,,84,0,9,,,,,1,,,83,100
74112,note_on,,,,,128,0,13,,,,,5,,,52,85
74112,note_on,,,,,0,0,15,,,,,7,,,67,100
74112,note_on,,,,,128,0,14,,,,,6,,,40,85
74112,note_on,,,,,128,0,16,,,,,7,,,52,100
74112,note_on,,,,,44,0,9,,,,,1,,,76,85
74112,note_on,,,,,128,0,15,,,,,7,,,59,100
74236,note_off,,,,,124,0,9,,,,,1,,,76,100
74240,note_on,,,,,4,0,9,,,,,1,,,78,85
74364,note_off,,,,,124,0,9,,,,,1,,,78,100
74368,note_off,,,,,256,0,16,,,,,7,,,52,100
74368,note_off,,,,,256,0,13,,,,,5,,,52,100
74368,note_off,,,,,256,0,14,,,,,6,,,40,100
74368,note_on,,,,,4,0,9,,,,,1,,,76,85
74368,note_off,,,,,256,0,15,,,,,7,,,59,100
74368,note_off,,,,,0,0,15,,,,,7,,,67,100
74452,note_off,,,,,84,0,9,,,,,1,,,76,100
74496,note_on,,,,,0,0,15,,,,,7,,,59,100
74496,note_on,,,,,44,0,9,,,,,1,,,74,85
74496,note_on,,,,,128,0,15,,,,,7,,,66,100
74496,note_on,,,,,128,0,16,,,,,7,,,52,100
74496,note_on,,,,,128,0,14,,,,,6,,,40,85
74496,note_on,,,,,128,0,13,,,,,5,,,52,85
74620,note_off,,,,,124,0,9,,,,,1,,,74,100
74624,note_on,,,,,4,0,9,,,,,1,,,73,85
74748,note_off,,,,,124,0,9,,,,,1,,,73,100
74752,note_on,,,,,4,0,9,,,,,1,,,74,85
74752,note_off,,,,,0,0,15,,,,,7,,,59,100
74752,note_off,,,,,256,0,15,,,,,7,,,66,100
74752,note_off,,,,,256,0,14,,,,,6,,,40,100
74752,note_off,,,,,256,0,13,,,,,5,,,52,100
74752,note_off,,,,,256,0,16,,,,,7,,,52,100
74836,note_off,,,,,84,0,9,,,,,1,,,74,100
74880,note_on,,,,,0,0,15,,,,,7,,,67,100
74880,note_on,,,,,44,0,9,,,,,1,,,73,85
74880,note_on,,,,,128,0,13,,,,,5,,,57,85
74880,note_on,,,,,128,0,15,,,,,7,,,64,100
74880,note_on,,,,,128,0,14,,,,,6,,,45,85
74880,note_on,,,,,128,0,16,,,,,7,,,57,100
75004,note_off,,,,,124,0,9,,,,,1,,,73,100
75008,note_on,,,,,4,0,9,,,,,1,,,74,85
75132,note_off,,,,,124,0,9,,,,,1,,,74,100
75136,note_off,,,,,256,0,13,,,,,5,,,57,100
75136,note_off,,,,,256,0,15,,,,,7,,,64,100
75136,note_off,,,,,0,0,15,,,,,7,,,67,100
75136,note_off,,,,,256,0,16,,,,,7,,,57,100
75136,note_off,,,,,256,0,14,,,,,6,,,45,100
75136,note_on,,,,,4,0,9,,,,,1,,,76,85
75220,note_off,,,,,84,0,9,,,,,1,,,76,100
75264,note_on,,,,,44,0,9,,,,,1,,,73,85
75264,note_on,,,,,0,0,15,,,,,7,,,64,100
75264,note_on,,,,,128,0,14,,,,,6,,,45,85
75264,note_on,,,,,128,0,15,,,,,7,,,61,100
75264,note_on,,,,,128,0,16,,,,,7,,,57,100
75264,note_on,,,,,128,0,13,,,,,5,,,57,85
75388,note_off,,,,,124,0,9,,,,,1,,,73,100
75392,note_on,,,,,4,0,9,,,,,1,,,74,85
75516,note_off,,,,,124,0,9,,,,,1,,,74,100
75520,note_off,,,,,256,0,16,,,,,7,,,57,100
75520,note_off,,,,,0,0,15,,,,,7,,,64,100
75520,note_off,,,,,256,0,13,,,,,5,,,57,100
75520,note_off,,,,,256,0,14,,,,,6,,,45,100
75520,note_on,,,,,4,0,9,,,,,1,,,76,85
75520,note_off,,,,,256,0,15,,,,,7,,,61,100
75604,note_off,,,,,84,0,9,,,,,1,,,76,100
75648,note_on,,,,,128,0,14,,,,,6,,,45,85
75648,note_on,,,,,0,0,15,,,,,7,,,64,100
75648,note_on,,,,,128,0,15,,,,,7,,,61,100
75648,note_on,,,,,128,0,13,,,,,5,,,57,85
75648,note_on,,,,,44,0,9,,,,,1,,,73,85
75648,note_on,,,,,128,0,16,,,,,7,,,57,100
75772,note_off,,,,,124,0,9,,,,,1,,,73,100
75776,note_on,,,,,4,0,9,,,,,1,,,74,85
75900,note_off,,,,,124,0,9,,,,,1,,,74,100
75904,note_off,,,,,256,0,16,,,,,7,,,57,100
75904,note_off,,,,,256,0,14,,,,,6,,,45,100
75904,note_on,,,,,4,0,9,,,,,1,,,76,85
75904,note_off,,,,,256,0,15,,,,,7,,,61,100
75904,note_off,,,,,0,0,15,,,,,7,,,64,100
75904,note_off,,,,,256,0,13,,,,,5,,,57,100
75988,note_off,,,,,84,0,9,,,,,1,,,76,100
76032,note_on,,,,,128,0,16,,,,,7,,,50,100
76032,note_on,,,,,44,0,9,,,,,1,,,78,85
76032,note_on,,,,,0,0,15,,,,,7,,,66,100
76032,note_on,,,,,128,0,15,,,,,7,,,69,100
76032,note_on,,,,,128,0,13,,,,,5,,,50,85
76032,note_on,,,,,128,0,14,,,,,6,,,38,85
76156,note_off,,,,,124,0,9,,,,,1,,,78,100
76160,note_on,,,,,4,0,9,,,,,1,,,79,85
76284,note_off,,,,,124,0,9,,,,,1,,,79,100
76288,note_off,,,,,0,0,15,,,,,7,,,66,100
76288,note_off,,,,,256,0,15,,,,,7,,,69,100
76288,note_off,,,,,256,0,13,,,,,5,,,50,100
76288,note_off,,,,,256,0,14,,,,,6,,,38,100
76288,note_off,,,,,256,0,16,,,,,7,,,50,100
76288,note_on,,,,,4,0,9,,,,,1,,,81,85
76372,note_off,,,,,84,0,9,,,,,1,,,81,100
76416,note_on,,,,,128,0,15,,,,,7,,,66,100
76416,note_on,,,,,128,0,13,,,,,5,,,50,85
76416,note_on,,,,,128,0,14,,,,,6,,,38,85
76416,note_on,,,,,128,0,16,,,,,7,,,50,100
76416,note_on,,,,,44,0,9,,,,,1,,,74,85
76416,note_on,,,,,0,0,15,,,,,7,,,69,100
76540,note_off,,,,,124,0,9,,,,,1,,,74,100
76544,note_on,,,,,4,0,9,,,,,1,,,76,85
76668,note_off,,,,,124,0,9,,,,,1,,,76,100
76672,note_off,,,,,256,0,14,,,,,6,,,38,100
76672,note_off,,,,,256,0,13,,,,,5,,,50,100
76672,note_off,,,,,256,0,15,,,,,7,,,66,100
76672,note_off,,,,,0,0,15,,,,,7,,,69,100
76672,note_on,,,,,4,0,9,,,,,1,,,74,85
76672,note_off,,,,,256,0,16,,,,,7,,,50,100
76756,note_off,,,,,84,0,9,,,,,1,,,74,100
76800,note_on,,,,,0,0,15,,,,,7,,,69,100
76800,note_on,,,,,44,0,9,,,,,1,,,72,85
76800,note_on,,,,,128,0,14,,,,,6,,,38,85
76800,note_on,,,,,128,0,15,,,,,7,,,60,100
76800,note_on,,,,,128,0,16,,,,,7,,,50,100
76800,note_on,,,,,128,0,13,,,,,5,,,50,85
76924,note_off,,,,,124,0,9,,,,,1,,,72,100
76928,note_on,,,,,4,0,9,,,,,1,,,71,85
77052,note_off,,,,,124,0,9,,,,,1,,,71,100
77056,note_off,,,,,256,0,13,,,,,5,,,50,100
77056,note_off,,,,,256,0,16,,,,,7,,,50,100
77056,note_on,,,,,4,0,9,,,,,1,,,72,85
77056,note_off,,,,,256,0,15,,,,,7,,,60,100
77056,note_off,,,,,0,0,15,,,,,7,,,69,100
77056,note_off,,,,,256,0,14,,,,,6,,,38,100
77140,note_off,,,,,84,0,9,,,,,1,,,72,100
77184,note_on,,,,,128,0,13,,,,,5,,,55,85
77184,note_on,,,,,44,0,9,,,,,1,,,71,85
77184,note_on,,,,,128,0,15,,,,,7,,,62,100
77184,note_on,,,,,128,0,16,,,,,7,,,55,100
77184,note_on,,,,,0,0,15,,,,,7,,,59,100
77184,note_on,,,,,128,0,14,,,,,6,,,43,85
77268,note_off,,,,,84,0,9,,,,,1,,,71,100
77312,note_on,,,,,44,0,9,,,,,1,,,83,85
77396,note_off,,,,,84,0,9,,,,,1,,,83,100
77440,note_off,,,,,256,0,16,,,,,7,,,55,100
77440,note_off,,,,,256,0,14,,,,,6,,,43,100
77440,note_on,,,,,44,0,9,,,,,1,,,81,85
77440,note_off,,,,,256,0,15,,,,,7,,,62,100
77440,note_off,,,,,256,0,13,,,,,5,,,55,100
77440,note_off,,,,,0,0,15,,,,,7,,,59,100
77524,note_off,,,,,84,0,9,,,,,1,,,81,100
77568,note_on,,,,,128,0,14,,,,,6,,,43,85
77568,note_on,,,,,128,0,16,,,,,7,,,55,100
77568,note_on,,,,,0,0,15,,,,,7,,,59,100
77568,note_on,,,,,128,0,15,,,,,7,,,62,100
77568,note_on,,,,,44,0,9,,,,,1,,,79,85
77568,note_on,,,,,128,0,13,,,,,5,,,55,85
77652,note_off,,,,,84,0,9,,,,,1,,,79,100
77696,note_on,,,,,44,0,9,,,,,1,,,81,85
77780,note_off,,,,,84,0,9,,,,,1,,,81,100
77824,note_off,,,,,256,0,13,,,,,5,,,55,100
77824,note_off,,,,,256,0,16,,,,,7,,,55,100
77824,note_off,,,,,256,0,14,,,,,6,,,43,100
77824,note_on,,,,,44,0,9,,,,,1,,,78,85
77824,note_off,,,,,256,0,15,,,,,7,,,62,100
77824,note_off,,,,,0,0,15,,,,,7,,,59,100
77908,note_off,,,,,84,0,9,,,,,1,,,78,100
77952,note_on,,,,,128,0,16,,,,,7,,,56,100
77952,note_on,,,,,44,0,9,,,,,1,,,76,85
77952,note_on,,,,,128,0,14,,,,,6,,,44,85
77952,note_on,,,,,128,0,13,,,,,5,,,56,85
77952,program_change,,,,,6272,0,10,,,,,2,40,,,
77952,note_on,,,,,0,0,15,,,,,7,,,62,100
77952,note_on,,,,,128,0,15,,,,,7,,,64,100
78036,note_off,,,,,84,0,9,,,,,1,,,76,100
78080,note_on,,,,,44,0,9,,,,,1,,,78,85
78164,note_off,,,,,84,0,9,,,,,1,,,78,100
78208,note_off,,,,,256,0,15,,,,,7,,,64,100
78208,note_off,,,,,256,0,13,,,,,5,,,56,100
78208,note_off,,,,,256,0,16,,,,,7,,,56,100
78208,note_on,,,,,44,0,9,,,,,1,,,74,85
78208,note_off,,,,,0,0,15,,,,,7,,,62,100
78208,note_off,,,,,256,0,14,,,,,6,,,44,100
78292,note_off,,,,,84,0,9,,,,,1,,,74,100
78336,note_on,,,,,128,0,15,,,,,7,,,64,100
78336,note_on,,,,,0,0,15,,,,,7,,,61,100
78336,note_on,,,,,128,0,14,,,,,6,,,45,85
78336,note_on,,,,,384,0,10,,,,,2,,,69,85
78336,note_on,,,,,128,0,13,,,,,5,,,57,85
78336,note_on,,,,,44,0,9,,,,,1,,,73,85
78336,note_on,,,,,128,0,16,,,,,7,,,57,100
78420,note_off,,,,,84,0,10,,,,,2,,,69,100
78460,note_off,,,,,124,0,9,,,,,1,,,73,100
78464,note_on,,,,,44,0,10,,,,,2,,,71,85
78464,note_on,,,,,4,0,9,,,,,1,,,74,85
78548,note_off,,,,,84,0,9,,,,,1,,,74,100
78548,note_off,,,,,84,0,10,,,,,2,,,71,100
78592,note_off,,,,,0,0,15,,,,,7,,,61,100
78592,note_on,,,,,44,0,10,,,,,2,,,73,85
78592,note_off,,,,,256,0,16,,,,,7,,,57,100
78592,note_on,,,,,44,0,9,,,,,1,,,76,85
78592,note_off,,,,,256,0,13,,,,,5,,,57,100
78592,note_off,,,,,256,0,14,,,,,6,,,45,100
78592,note_off,,,,,256,0,15,,,,,7,,,64,100
78676,note_off,,,,,84,0,9,,,,,1,,,76,100
78676,note_off,,,,,84,0,10,,,,,2,,,73,100
78720,note_on,,,,,44,0,9,,,,,1,,,69,85
78720,note_on,,,,,44,0,10,,,,,2,,,74,85
78720,note_on,,,,,0,0,15,,,,,7,,,57,100
78720,note_on,,,,,128,0,15,,,,,7,,,62,100
78720,note_on,,,,,128,0,13,,,,,5,,,54,85
78720,note_on,,,,,128,0,16,,,,,7,,,54,100
78720,note_on,,,,,128,0,14,,,,,6,,,42,85
78804,note_off,,,,,84,0,10,,,,,2,,,74,100
78848,note_on,,,,,44,0,10,,,,,2,,,69,85
78932,note_off,,,,,84,0,10,,,,,2,,,69,100
78976,note_off,,,,,256,0,14,,,,,6,,,42,100
78976,note_off,,,,,256,0,9,,,,,1,,,69,100
78976,note_off,,,,,256,0,13,,,,,5,,,54,100
78976,note_on,,,,,44,0,10,,,,,2,,,74,85
78976,note_off,,,,,256,0,15,,,,,7,,,62,100
78976,note_off,,,,,256,0,16,,,,,7,,,54,100
78976,note_off,,,,,0,0,15,,,,,7,,,57,100
79060,note_off,,,,,84,0,10,,,,,2,,,74,100
79104,note_on,,,,,44,0,10,,,,,2,,,74,85
79104,note_on,,,,,128,0,14,,,,,6,,,38,85
79104,note_on,,,,,128,0,13,,,,,5,,,50,85
79104,note_on,,,,,0,0,15,,,,,7,,,66,100
79104,note_on,,,,,128,0,16,,,,,7,,,50,100
79104,note_on,,,,,128,0,15,,,,,7,,,62,100
79188,note_off,,,,,84,0,10,,,,,2,,,74,100
79232,note_on,,,,,44,0,10,,,,,2,,,69,85
79316,note_off,,,,,84,0,10,,,,,2,,,69,100
79360,note_on,,,,,44,0,10,,,,,2,,,74,85
79360,note_off,,,,,256,0,16,,,,,7,,,50,100
79360,note_off,,,,,256,0,13,,,,,5,,,50,100
79360,note_off,,,,,256,0,14,,,,,6,,,38,100
79360,note_on,,,,,384,0,9,,,,,1,,,78,85
79360,note_off,,,,,256,0,15,,,,,7,,,62,100
79360,note_off,,,,,0,0,15,,,,,7,,,66,100
79444,note_off,,,,,84,0,10,,,,,2,,,74,100
79444,note_off,,,,,84,0,9,,,,,1,,,78,100
79488,note_on,,,,,44,0,10,,,,,2,,,71,85
79488,note_on,,,,,44,0,9,,,,,1,,,74,85
79488,note_on,,,,,128,0,15,,,,,7,,,59,100
79488,note_on,,,,,128,0,16,,,,,7,,,55,100
79488,note_on,,,,,128,0,13,,,,,5,,,55,85
79488,note_on,,,,,128,0,14,,,,,6,,,43,85
79488,note_on,,,,,0,0,15,,,,,7,,,67,100
79572,note_off,,,,,84,0,9,,,,,1,,,74,100
79572,note_off,,,,,84,0,10,,,,,2,,,71,100
79616,note_on,,,,,44,0,10,,,,,2,,,73,85
79616,note_on,,,,,44,0,9,,,,,1,,,73,85
79700,note_off,,,,,84,0,9,,,,,1,,,73,100
79700,note_off,,,,,84,0,10,,,,,2,,,73,100
79744,note_off,,,,,256,0,14,,,,,6,,,43,100
79744,note_off,,,,,256,0,16,,,,,7,,,55,100
79744,note_off,,,,,256,0,13,,,,,5,,,55,100
79744,note_off,,,,,256,0,15,,,,,7,,,59,100
79744,note_off,,,,,0,0,15,,,,,7,,,67,100
79744,note_on,,,,,44,0,10,,,,,2,,,74,85
79744,note_on,,,,,44,0,9,,,,,1,,,71,85
79828,note_off,,,,,84,0,9,,,,,1,,,71,100
79828,note_off,,,,,84,0,10,,,,,2,,,74,100
79872,note_on,,,,,44,0,10,,,,,2,,,76,85
79872,note_on,,,,,44,0,9,,,,,1,,,79,85
79956,note_off,,,,,84,0,10,,,,,2,,,76,100
80000,note_on,,,,,44,0,10,,,,,2,,,71,85
80084,note_off,,,,,84,0,10,,,,,2,,,71,100
80128,note_on,,,,,44,0,10,,,,,2,,,76,85
80128,note_off,,,,,256,0,9,,,,,1,,,79,100
80212,note_off,,,,,84,0,10,,,,,2,,,76,100
80256,note_on,,,,,44,0,10,,,,,2,,,76,85
80256,note_on,,,,,512,0,13,,,,,5,,,52,85
80256,note_on,,,,,512,0,16,,,,,7,,,52,100
80256,note_on,,,,,512,0,15,,,,,7,,,71,100
80256,note_on,,,,,512,0,14,,,,,6,,,40,85
80256,note_on,,,,,0,0,15,,,,,7,,,68,100
80340,note_off,,,,,84,0,10,,,,,2,,,76,100
80384,note_on,,,,,44,0,10,,,,,2,,,71,85
80468,note_off,,,,,84,0,10,,,,,2,,,71,100
80512,note_on,,,,,44,0,10,,,,,2,,,76,85
80512,note_off,,,,,256,0,13,,,,,5,,,52,100
80512,note_on,,,,,384,0,9,,,,,1,,,80,85
80512,note_off,,,,,0,0,15,,,,,7,,,68,100
80512,note_off,,,,,256,0,15,,,,,7,,,71,100
80512,note_off,,,,,256,0,14,,,,,6,,,40,100
80512,note_off,,,,,256,0,16,,,,,7,,,52,100
80596,note_off,,,,,84,0,9,,,,,1,,,80,100
80596,note_off,,,,,84,0,10,,,,,2,,,76,100
80640,note_on,,,,,128,0,14,,,,,6,,,45,85
80640,note_on,,,,,128,0,16,,,,,7,,,57,100
80640,note_on,,,,,44,0,10,,,,,2,,,73,85
80640,note_on,,,,,128,0,15,,,,,7,,,64,100
80640,note_on,,,,,0,0,15,,,,,7,,,73,100
80640,note_on,,,,,128,0,13,,,,,5,,,57,85
80640,note_on,,,,,44,0,9,,,,,1,,,76,85
80724,note_off,,,,,84,0,9,,,,,1,,,76,100
80724,note_off,,,,,84,0,10,,,,,2,,,73,100
80768,note_on,,,,,44,0,9,,,,,1,,,74,85
80768,note_on,,,,,44,0,10,,,,,2,,,74,85
80852,note_off,,,,,84,0,10,,,,,2,,,74,100
80852,note_off,,,,,84,0,9,,,,,1,,,74,100
80896,note_on,,,,,44,0,10,,,,,2,,,76,85
80896,note_off,,,,,256,0,16,,,,,7,,,57,100
80896,note_off,,,,,256,0,14,,,,,6,,,45,100
80896,note_on,,,,,44,0,9,,,,,1,,,73,85
80896,note_off,,,,,256,0,13,,,,,5,,,57,100
80896,note_off,,,,,0,0,15,,,,,7,,,73,100
80896,note_off,,,,,256,0,15,,,,,7,,,64,100
80980,note_off,,,,,84,0,9,,,,,1,,,73,100
80980,note_off,,,,,84,0,10,,,,,2,,,76,100
81024,note_on,,,,,44,0,9,,,,,1,,,81,85
81024,note_on,,,,,44,0,10,,,,,2,,,78,85
81108,note_off,,,,,84,0,10,,,,,2,,,78,100
81152,note_on,,,,,44,0,10,,,,,2,,,73,85
81236,note_off,,,,,84,0,10,,,,,2,,,73,100
81280,note_off,,,,,256,0,9,,,,,1,,,81,100
81280,note_on,,,,,44,0,10,,,,,2,,,78,85
81364,note_off,,,,,84,0,10,,,,,2,,,78,100
81408,note_on,,,,,0,0,15,,,,,7,,,61,100
81408,note_on,,,,,512,0,14,,,,,6,,,42,85
81408,note_on,,,,,512,0,15,,,,,7,,,70,100
81408,note_on,,,,,44,0,10,,,,,2,,,78,85
81408,note_on,,,,,512,0,13,,,,,5,,,54,85
81408,note_on,,,,,512,0,16,,,,,7,,,54,100
81492,note_off,,,,,84,0,10,,,,,2,,,78,100
81536,note_on,,,,,44,0,10,,,,,2,,,73,85
81620,note_off,,,,,84,0,10,,,,,2,,,73,100
81664,note_off,,,,,0,0,15,,,,,7,,,61,100
81664,note_off,,,,,256,0,15,,,,,7,,,70,100
81664,note_off,,,,,256,0,13,,,,,5,,,54,100
81664,note_on,,,,,384,0,9,,,,,1,,,82,85
81664,note_off,,,,,256,0,14,,,,,6,,,42,100
81664,note_off,,,,,256,0,16,,,,,7,,,54,100
81664,note_on,,,,,44,0,10,,,,,2,,,78,85
81748,note_off,,,,,84,0,9,,,,,1,,,82,100
81748,note_off,,,,,84,0,10,,,,,2,,,78,100
81792,note_on,,,,,0,0,15,,,,,7,,,62,100
81792,note_on,,,,,128,0,16,,,,,7,,,59,100
81792,note_on,,,,,44,0,9,,,,,1,,,78,85
81792,note_on,,,,,128,0,15,,,,,7,,,66,100
81792,note_on,,,,,128,0,14,,,,,6,,,47,85
81792,note_on,,,,,44,0,10,,,,,2,,,74,85
81792,note_on,,,,,128,0,13,,,,,5,,,59,85
81876,note_off,,,,,84,0,10,,,,,2,,,74,100
81876,note_off,,,,,84,0,9,,,,,1,,,78,100
81920,note_on,,,,,44,0,10,,,,,2,,,76,85
81920,note_on,,,,,44,0,9,,,,,1,,,76,85
82004,note_off,,,,,84,0,10,,,,,2,,,76,100
82004,note_off,,,,,84,0,9,,,,,1,,,76,100
82048,note_on,,,,,44,0,9,,,,,1,,,74,85
82048,note_off,,,,,0,0,15,,,,,7,,,62,100
82048,note_off,,,,,256,0,15,,,,,7,,,66,100
82048,note_off,,,,,256,0,14,,,,,6,,,47,100
82048,note_on,,,,,44,0,10,,,,,2,,,78,85
82048,note_off,,,,,256,0,13,,,,,5,,,59,100
82048,note_off,,,,,256,0,16,,,,,7,,,59,100
82132,note_off,,,,,84,0,10,,,,,2,,,78,100
82132,note_off,,,,,84,0,9,,,,,1,,,74,100
82176,note_on,,,,,44,0,9,,,,,1,,,83,85
82176,note_on,,,,,44,0,10,,,,,2,,,79,85
82260,note_off,,,,,84,0,10,,,,,2,,,79,100
82304,note_on,,,,,44,0,10,,,,,2,,,74,85
82388,note_off,,,,,84,0,10,,,,,2,,,74,100
82432,note_on,,,,,44,0,10,,,,,2,,,79,85
82432,note_off,,,,,256,0,9,,,,,1,,,83,100
82516,note_off,,,,,84,0,10,,,,,2,,,79,100
82560,note_on,,,,,44,0,10,,,,,2,,,79,85
82560,note_on,,,,,512,0,16,,,,,7,,,55,100
82560,note_on,,,,,512,0,13,,,,,5,,,55,85
82560,note_on,,,,,512,0,14,,,,,6,,,43,85
82560,note_on,,,,,512,0,15,,,,,7,,,62,100
82560,note_on,,,,,0,0,15,,,,,7,,,71,100
82644,note_off,,,,,84,0,10,,,,,2,,,79,100
82688,note_on,,,,,44,0,10,,,,,2,,,74,85
82772,note_off,,,,,84,0,10,,,,,2,,,74,100
82816,note_off,,,,,0,0,15,,,,,7,,,71,100
82816,note_off,,,,,256,0,15,,,,,7,,,62,100
82816,note_off,,,,,256,0,14,,,,,6,,,43,100
82816,note_on,,,,,44,0,10,,,,,2,,,79,85
82816,note_on,,,,,384,0,9,,,,,1,,,83,85
82816,note_off,,,,,256,0,16,,,,,7,,,55,100
82816,note_off,,,,,256,0,13,,,,,5,,,55,100
82900,note_off,,,,,84,0,9,,,,,1,,,83,100
82900,note_off,,,,,84,0,10,,,,,2,,,79,100
82944,note_on,,,,,44,0,10,,,,,2,,,76,85
82944,note_on,,,,,128,0,16,,,,,7,,,49,100
82944,note_on,,,,,128,0,13,,,,,5,,,49,85
82944,note_on,,,,,44,0,9,,,,,1,,,79,85
82944,note_on,,,,,128,0,14,,,,,6,,,37,85
82944,note_on,,,,,0,0,15,,,,,7,,,67,100
82944,note_on,,,,,128,0,15,,,,,7,,,64,100
83028,note_off,,,,,84,0,9,,,,,1,,,79,100
83028,note_off,,,,,84,0,10,,,,,2,,,76,100
83072,note_on,,,,,44,0,10,,,,,2,,,78,85
83072,note_on,,,,,44,0,9,,,,,1,,,78,85
83156,note_off,,,,,84,0,9,,,,,1,,,78,100
83156,note_off,,,,,84,0,10,,,,,2,,,78,100
83200,note_off,,,,,256,0,16,,,,,7,,,49,100
83200,note_off,,,,,256,0,15,,,,,7,,,64,100
83200,note_off,,,,,0,0,15,,,,,7,,,67,100
83200,note_off,,,,,256,0,13,,,,,5,,,49,100
83200,note_on,,,,,44,0,10,,,,,2,,,79,85
83200,note_off,,,,,256,0,14,,,,,6,,,37,100
83200,note_on,,,,,44,0,9,,,,,1,,,76,85
83284,note_off,,,,,84,0,9,,,,,1,,,76,100
83284,note_off,,,,,84,0,10,,,,,2,,,79,100
83328,note_on,,,,,44,0,9,,,,,1,,,85,85
83328,note_on,,,,,44,0,10,,,,,2,,,81,85
83412,note_off,,,,,84,0,10,,,,,2,,,81,100
83456,note_on,,,,,44,0,10,,,,,2,,,76,85
83540,note_off,,,,,84,0,10,,,,,2,,,76,100
83584,note_off,,,,,256,0,9,,,,,1,,,85,100
83584,note_on,,,,,44,0,10,,,,,2,,,73,85
83668,note_off,,,,,84,0,10,,,,,2,,,73,100
83712,note_on,,,,,512,0,13,,,,,5,,,57,85
83712,program_change,,,,,12032,0,8,,,,,0,40,,,
83712,note_on,,,,,512,0,16,,,,,7,,,57,100
83712,note_on,,,,,512,0,15,,,,,7,,,64,100
83712,note_on,,,,,512,0,14,,,,,6,,,45,85
83712,note_on,,,,,44,0,10,,,,,2,,,69,85
83712,note_on,,,,,0,0,15,,,,,7,,,67,100
83796,note_off,,,,,84,0,10,,,,,2,,,69,100
83840,note_on,,,,,44,0,10,,,,,2,,,81,85
83924,note_off,,,,,84,0,10,,,,,2,,,81,100
83968,note_off,,,,,256,0,16,,,,,7,,,57,100
83968,note_off,,,,,256,0,15,,,,,7,,,64,100
83968,note_off,,,,,256,0,13,,,,,5,,,57,100
83968,note_off,,,,,0,0,15,,,,,7,,,67,100
83968,note_on,,,,,384,0,9,,,,,1,,,85,85
83968,note_off,,,,,256,0,14,,,,,6,,,45,100
83968,note_on,,,,,44,0,10,,,,,2,,,79,85
84052,note_off,,,,,84,0,9,,,,,1,,,85,100
84052,note_off,,,,,84,0,10,,,,,2,,,79,100
84096,note_on,,,,,128,0,15,,,,,7,,,69,100
84096,note_on,,,,,0,0,15,,,,,7,,,66,100
84096,note_on,,,,,44,0,10,,,,,2,,,78,85
84096,note_on,,,,,128,0,13,,,,,5,,,50,85
84096,note_on,,,,,384,0,8,,,,,0,,,78,85
84096,note_on,,,,,128,0,16,,,,,7,,,50,100
84096,note_on,,,,,128,0,14,,,,,6,,,38,85
84096,note_on,,,,,44,0,9,,,,,1,,,86,85
84220,note_off,,,,,124,0,8,,,,,0,,,78,100
84224,note_on,,,,,4,0,8,,,,,0,,,74,85
84348,note_off,,,,,124,0,8,,,,,0,,,74,100
84352,note_off,,,,,256,0,15,,,,,7,,,69,100
84352,note_off,,,,,0,0,15,,,,,7,,,66,100
84352,note_off,,,,,256,0,9,,,,,1,,,86,100
84352,note_off,,,,,256,0,13,,,,,5,,,50,100
84352,note_off,,,,,256,0,14,,,,,6,,,38,100
84352,note_off,,,,,256,0,10,,,,,2,,,78,100
84352,note_off,,,,,256,0,16,,,,,7,,,50,100
84352,note_on,,,,,4,0,8,,,,,0,,,76,85
84436,note_off,,,,,84,0,8,,,,,0,,,76,100
84480,note_on,,,,,128,0,9,,,,,1,,,74,85
84480,note_on,,,,,44,0,8,,,,,0,,,78,85
84604,note_off,,,,,124,0,8,,,,,0,,,78,100
84608,note_on,,,,,4,0,8,,,,,0,,,79,85
84732,note_off,,,,,124,0,8,,,,,0,,,79,100
84736,note_off,,,,,256,0,9,,,,,1,,,74,100
84736,note_on,,,,,4,0,8,,,,,0,,,81,85
84820,note_off,,,,,84,0,8,,,,,0,,,81,100
84864,note_on,,,,,512,0,13,,,,,5,,,62,85
84864,note_on,,,,,512,0,14,,,,,6,,,50,85
84864,note_on,,,,,512,0,15,,,,,7,,,71,100
84864,note_on,,,,,0,0,15,,,,,7,,,66,100
84864,note_on,,,,,44,0,8,,,,,0,,,83,85
84864,note_on,,,,,512,0,16,,,,,7,,,62,100
84988,note_off,,,,,124,0,8,,,,,0,,,83,100
84992,note_on,,,,,4,0,8,,,,,0,,,81,85
85116,note_off,,,,,124,0,8,,,,,0,,,81,100
85120,note_off,,,,,256,0,16,,,,,7,,,62,100
85120,note_off,,,,,0,0,15,,,,,7,,,66,100
85120,note_off,,,,,256,0,15,,,,,7,,,71,100
85120,note_on,,,,,4,0,8,,,,,0,,,83,85
85120,note_off,,,,,256,0,14,,,,,6,,,50,100
85120,note_on,,,,,768,0,10,,,,,2,,,78,85
85120,note_off,,,,,256,0,13,,,,,5,,,62,100
85204,note_off,,,,,84,0,10,,,,,2,,,78,100
85204,note_off,,,,,84,0,8,,,,,0,,,83,100
85248,note_on,,,,,128,0,15,,,,,7,,,67,100
85248,note_on,,,,,128,0,14,,,,,6,,,49,85
85248,note_on,,,,,128,0,13,,,,,5,,,61,85
85248,note_on,,,,,0,0,15,,,,,7,,,71,100
85248,note_on,,,,,44,0,10,,,,,2,,,79,85
85248,note_on,,,,,128,0,16,,,,,7,,,61,100
85248,note_on,,,,,44,0,8,,,,,0,,,76,85
85372,note_off,,,,,124,0,8,,,,,0,,,76,100
85372,note_off,,,,,124,0,10,,,,,2,,,79,100
85376,note_on,,,,,4,0,8,,,,,0,,,73,85
85376,note_on,,,,,4,0,10,,,,,2,,,76,85
85460,note_off,,,,,84,0,10,,,,,2,,,76,100
85500,note_off,,,,,124,0,8,,,,,0,,,73,100
85504,note_off,,,,,256,0,13,,,,,5,,,61,100
85504,note_off,,,,,256,0,14,,,,,6,,,49,100
85504,note_off,,,,,0,0,15,,,,,7,,,71,100
85504,note_off,,,,,256,0,15,,,,,7,,,67,100
85504,note_on,,,,,44,0,10,,,,,2,,,78,85
85504,note_off,,,,,256,0,16,,,,,7,,,61,100
85504,note_on,,,,,4,0,8,,,,,0,,,74,85
85588,note_off,,,,,84,0,8,,,,,0,,,74,100
85588,note_off,,,,,84,0,10,,,,,2,,,78,100
85632,note_on,,,,,0,0,15,,,,,7,,,67,100
85632,note_on,,,,,128,0,13,,,,,5,,,49,85
85632,note_on,,,,,128,0,14,,,,,6,,,37,85
85632,note_on,,,,,128,0,15,,,,,7,,,64,100
85632,note_on,,,,,44,0,8,,,,,0,,,76,85
85632,note_on,,,,,44,0,10,,,,,2,,,79,85
85632,note_on,,,,,128,0,16,,,,,7,,,49,100
85756,note_off,,,,,124,0,8,,,,,0,,,76,100
85760,note_on,,,,,4,0,8,,,,,0,,,78,85
85884,note_off,,,,,124,0,8,,,,,0,,,78,100
85888,note_off,,,,,256,0,13,,,,,5,,,49,100
85888,note_off,,,,,256,0,14,,,,,6,,,37,100
85888,note_off,,,,,256,0,10,,,,,2,,,79,100
85888,note_off,,,,,0,0,15,,,,,7,,,67,100
85888,note_off,,,,,256,0,16,,,,,7,,,49,100
85888,note_on,,,,,4,0,8,,,,,0,,,79,85
85888,note_off,,,,,256,0,15,,,,,7,,,64,100
85972,note_off,,,,,84,0,8,,,,,0,,,79,100
86016,note_on,,,,,128,0,15,,,,,7,,,69,100
86016,note_on,,,,,0,0,15,,,,,7,,,64,100
86016,note_on,,,,,128,0,16,,,,,7,,,61,100
86016,note_on,,,,,128,0,14,,,,,6,,,49,85
86016,note_on,,,,,128,0,13,,,,,5,,,61,85
86016,note_on,,,,,44,0,8,,,,,0,,,81,85
86140,note_off,,,,,124,0,8,,,,,0,,,81,100
86144,note_on,,,,,4,0,8,,,,,0,,,79,85
86268,note_off,,,,,124,0,8,,,,,0,,,79,100
86272,note_off,,,,,256,0,16,,,,,7,,,61,100
86272,note_off,,,,,256,0,13,,,,,5,,,61,100
86272,note_on,,,,,384,0,10,,,,,2,,,76,85
86272,note_on,,,,,4,0,8,,,,,0,,,81,85
86272,note_off,,,,,0,0,15,,,,,7,,,64,100
86272,note_off,,,,,256,0,14,,,,,6,,,49,100
86272,note_off,,,,,256,0,15,,,,,7,,,69,100
86356,note_off,,,,,84,0,8,,,,,0,,,81,100
86356,note_off,,,,,84,0,10,,,,,2,,,76,100
86400,note_on,,,,,128,0,14,,,,,6,,,47,85
86400,note_on,,,,,128,0,13,,,,,5,,,59,85
86400,note_on,,,,,128,0,15,,,,,7,,,66,100
86400,note_on,,,,,128,0,16,,,,,7,,,59,100
86400,note_on,,,,,44,0,8,,,,,0,,,74,85
86400,note_on,,,,,0,0,15,,,,,7,,,69,100
86400,note_on,,,,,44,0,10,,,,,2,,,78,85
86524,note_off,,,,,124,0,8,,,,,0,,,74,100
86524,note_off,,,,,124,0,10,,,,,2,,,78,100
86528,note_on,,,,,4,0,10,,,,,2,,,74,85
86528,note_on,,,,,4,0,8,,,,,0,,,71,85
86612,note_off,,,,,84,0,10,,,,,2,,,74,100
86652,note_off,,,,,124,0,8,,,,,0,,,71,100
86656,note_on,,,,,4,0,8,,,,,0,,,73,85
86656,note_off,,,,,256,0,14,,,,,6,,,47,100
86656,note_off,,,,,256,0,16,,,,,7,,,59,100
86656,note_off,,,,,256,0,13,,,,,5,,,59,100
86656,note_off,,,,,256,0,15,,,,,7,,,66,100
86656,note_off,,,,,0,0,15,,,,,7,,,69,100
86656,note_on,,,,,44,0,10,,,,,2,,,76,85
86740,note_off,,,,,84,0,8,,,,,0,,,73,100
86740,note_off,,,,,84,0,10,,,,,2,,,76,100
86784,note_on,,,,,128,0,15,,,,,7,,,62,100
86784,note_on,,,,,0,0,15,,,,,7,,,66,100
86784,note_on,,,,,128,0,16,,,,,7,,,47,100
86784,note_on,,,,,128,0,13,,,,,5,,,47,85
86784,note_on,,,,,44,0,8,,,,,0,,,74,85
86784,note_on,,,,,128,0,14,,,,,6,,,35,85
86784,note_on,,,,,44,0,10,,,,,2,,,78,85
86908,note_off,,,,,124,0,8,,,,,0,,,74,100
86912,note_on,,,,,4,0,8,,,,,0,,,76,85
87036,note_off,,,,,124,0,8,,,,,0,,,76,100
87040,note_off,,,,,256,0,15,,,,,7,,,62,100
87040,note_on,,,,,4,0,8,,,,,0,,,78,85
87040,note_off,,,,,0,0,15,,,,,7,,,66,100
87040,note_off,,,,,256,0,16,,,,,7,,,47,100
87040,note_off,,,,,256,0,13,,,,,5,,,47,100
87040,note_off,,,,,256,0,10,,,,,2,,,78,100
87040,note_off,,,,,256,0,14,,,,,6,,,35,100
87124,note_off,,,,,84,0,8,,,,,0,,,78,100
87168,note_on,,,,,44,0,8,,,,,0,,,79,85
87168,note_on,,,,,128,0,14,,,,,6,,,47,85
87168,note_on,,,,,128,0,16,,,,,7,,,59,100
87168,note_on,,,,,128,0,15,,,,,7,,,67,100
87168,note_on,,,,,128,0,13,,,,,5,,,59,85
87168,note_on,,,,,0,0,15,,,,,7,,,62,100
87292,note_off,,,,,124,0,8,,,,,0,,,79,100
87296,note_on,,,,,4,0,8,,,,,0,,,78,85
87420,note_off,,,,,124,0,8,,,,,0,,,78,100
87424,note_on,,,,,384,0,10,,,,,2,,,74,85
87424,note_off,,,,,256,0,16,,,,,7,,,59,100
87424,note_off,,,,,256,0,14,,,,,6,,,47,100
87424,note_off,,,,,256,0,13,,,,,5,,,59,100
87424,note_on,,,,,4,0,8,,,,,0,,,79,85
87424,note_off,,,,,0,0,15,,,,,7,,,62,100
87424,note_off,,,,,256,0,15,,,,,7,,,67,100
87508,note_off,,,,,84,0,8,,,,,0,,,79,100
87508,note_off,,,,,84,0,10,,,,,2,,,74,100
87552,note_on,,,,,44,0,8,,,,,0,,,73,85
87552,note_on,,,,,128,0,14,,,,,6,,,45,85
87552,note_on,,,,,128,0,13,,,,,5,,,57,85
87552,note_on,,,,,128,0,16,,,,,7,,,57,100
87552,note_on,,,,,0,0,15,,,,,7,,,67,100
87552,note_on,,,,,128,0,15,,,,,7,,,64,100
87552,note_on,,,,,44,0,10,,,,,2,,,76,85
87676,note_off,,,,,124,0,10,,,,,2,,,76,100
87676,note_off,,,,,124,0,8,,,,,0,,,73,100
87680,note_on,,,,,4,0,8,,,,,0,,,69,85
87680,note_on,,,,,4,0,10,,,,,2,,,73,85
87764,note_off,,,,,84,0,10,,,,,2,,,73,100
87804,note_off,,,,,124,0,8,,,,,0,,,69,100
87808,note_on,,,,,4,0,8,,,,,0,,,71,85
87808,note_off,,,,,256,0,15,,,,,7,,,64,100
87808,note_off,,,,,0,0,15,,,,,7,,,67,100
87808,note_off,,,,,256,0,16,,,,,7,,,57,100
87808,note_on,,,,,44,0,10,,,,,2,,,74,85
87808,note_off,,,,,256,0,13,,,,,5,,,57,100
87808,note_off,,,,,256,0,14,,,,,6,,,45,100
87892,note_off,,,,,84,0,10,,,,,2,,,74,100
87892,note_off,,,,,84,0,8,,,,,0,,,71,100
87936,note_on,,,,,128,0,15,,,,,7,,,61,100
87936,note_on,,,,,128,0,13,,,,,5,,,45,85
87936,note_on,,,,,128,0,16,,,,,7,,,45,100
87936,note_on,,,,,44,0,8,,,,,0,,,73,85
87936,note_on,,,,,0,0,15,,,,,7,,,64,100
87936,note_on,,,,,128,0,14,,,,,6,,,33,85
87936,note_on,,,,,44,0,10,,,,,2,,,76,85
88060,note_off,,,,,124,0,8,,,,,0,,,73,100
88064,note_on,,,,,4,0,8,,,,,0,,,74,85
88188,note_off,,,,,124,0,8,,,,,0,,,74,100
88192,note_off,,,,,256,0,15,,,,,7,,,61,100
88192,note_off,,,,,256,0,16,,,,,7,,,45,100
88192,note_off,,,,,256,0,14,,,,,6,,,33,100
88192,note_off,,,,,0,0,15,,,,,7,,,64,100
88192,note_off,,,,,256,0,13,,,,,5,,,45,100
88192,note_on,,,,,4,0,8,,,,,0,,,76,85
88192,note_off,,,,,256,0,10,,,,,2,,,76,100
88276,note_off,,,,,84,0,8,,,,,0,,,76,100
88320,note_on,,,,,128,0,16,,,,,7,,,57,100
88320,note_on,,,,,128,0,14,,,,,6,,,45,85
88320,note_on,,,,,44,0,8,,,,,0,,,78,85
88320,note_on,,,,,0,0,15,,,,,7,,,61,100
88320,note_on,,,,,128,0,15,,,,,7,,,66,100
88320,note_on,,,,,128,0,13,,,,,5,,,57,85
88444,note_off,,,,,124,0,8,,,,,0,,,78,100
88448,note_on,,,,,4,0,8,,,,,0,,,76,85
88572,note_off,,,,,124,0,8,,,,,0,,,76,100
88576,note_off,,,,,256,0,13,,,,,5,,,57,100
88576,note_off,,,,,256,0,15,,,,,7,,,66,100
88576,note_off,,,,,256,0,14,,,,,6,,,45,100
88576,note_on,,,,,384,0,10,,,,,2,,,73,85
88576,note_off,,,,,256,0,16,,,,,7,,,57,100
88576,note_off,,,,,0,0,15,,,,,7,,,61,100
88576,note_on,,,,,4,0,8,,,,,0,,,78,85
88660,note_off,,,,,84,0,8,,,,,0,,,78,100
88660,note_off,,,,,84,0,10,,,,,2,,,73,100
88704,note_on,,,,,128,0,15,,,,,7,,,62,100
88704,note_on,,,,,128,0,14,,,,,6,,,43,85
88704,note_on,,,,,0,0,15,,,,,7,,,66,100
88704,note_on,,,,,44,0,8,,,,,0,,,71,85
88704,note_on,,,,,128,0,16,,,,,7,,,55,100
88704,note_on,,,,,128,0,13,,,,,5,,,55,85
88704,note_on,,,,,44,0,10,,,,,2,,,74,85
88828,note_off,,,,,124,0,10,,,,,2,,,74,100
88828,note_off,,,,,124,0,8,,,,,0,,,71,100
88832,note_on,,,,,4,0,8,,,,,0,,,67,85
88832,note_on,,,,,4,0,10,,,,,2,,,71,85
88916,note_off,,,,,84,0,10,,,,,2,,,71,100
88916,note_off,,,,,84,0,8,,,,,0,,,67,100
88960,note_on,,,,,44,0,8,,,,,0,,,69,85
88960,note_off,,,,,256,0,14,,,,,6,,,43,100
88960,note_on,,,,,44,0,10,,,,,2,,,73,85
88960,note_off,,,,,256,0,13,,,,,5,,,55,100
88960,note_off,,,,,256,0,15,,,,,7,,,62,100
88960,note_off,,,,,0,0,15,,,,,7,,,66,100
88960,note_off,,,,,256,0,16,,,,,7,,,55,100
89044,note_off,,,,,84,0,10,,,,,2,,,73,100
89044,note_off,,,,,84,0,8,,,,,0,,,69,100
89088,note_on,,,,,128,0,14,,,,,6,,,43,85
89088,note_on,,,,,128,0,16,,,,,7,,,43,100
89088,note_on,,,,,128,0,15,,,,,7,,,59,100
89088,note_on,,,,,44,0,10,,,,,2,,,74,85
89088,note_on,,,,,128,0,13,,,,,5,,,43,85
89088,note_on,,,,,44,0,8,,,,,0,,,71,85
89088,note_on,,,,,0,0,15,,,,,7,,,62,100
89212,note_off,,,,,124,0,8,,,,,0,,,71,100
89216,note_on,,,,,4,0,8,,,,,0,,,73,85
89300,note_off,,,,,84,0,8,,,,,0,,,73,100
89344,note_off,,,,,256,0,15,,,,,7,,,59,100
89344,note_off,,,,,256,0,14,,,,,6,,,43,100
89344,note_on,,,,,44,0,8,,,,,0,,,74,85
89344,note_off,,,,,256,0,13,,,,,5,,,43,100
89344,note_off,,,,,0,0,15,,,,,7,,,62,100
89344,note_off,,,,,256,0,10,,,,,2,,,74,100
89344,note_off,,,,,256,0,16,,,,,7,,,43,100
89428,note_off,,,,,84,0,8,,,,,0,,,74,100
89472,note_on,,,,,128,0,10,,,,,2,,,71,85
89472,note_on,,,,,128,0,13,,,,,5,,,44,85
89472,note_on,,,,,128,0,15,,,,,7,,,64,100
89472,note_on,,,,,128,0,14,,,,,6,,,44,85
89472,note_on,,,,,0,0,15,,,,,7,,,62,100
89472,note_on,,,,,44,0,8,,,,,0,,,76,85
89472,note_on,,,,,128,0,16,,,,,7,,,44,100
89596,note_off,,,,,124,0,8,,,,,0,,,76,100
89600,note_on,,,,,4,0,8,,,,,0,,,74,85
89684,note_off,,,,,84,0,8,,,,,0,,,74,100
89728,note_off,,,,,256,0,16,,,,,7,,,44,100
89728,note_off,,,,,256,0,14,,,,,6,,,44,100
89728,note_off,,,,,0,0,15,,,,,7,,,62,100
89728,note_on,,,,,44,0,8,,,,,0,,,76,85
89728,note_off,,,,,256,0,13,,,,,5,,,44,100
89728,note_off,,,,,256,0,10,,,,,2,,,71,100
89728,note_off,,,,,256,0,15,,,,,7,,,64,100
89812,note_off,,,,,84,0,8,,,,,0,,,76,100
89856,note_on,,,,,128,0,10,,,,,2,,,64,85
89856,note_on,,,,,128,0,16,,,,,7,,,45,100
89856,note_on,,,,,44,0,8,,,,,0,,,73,85
89856,note_on,,,,,0,0,15,,,,,7,,,64,100
89856,note_on,,,,,128,0,15,,,,,7,,,61,100
89856,note_on,,,,,128,0,14,,,,,6,,,33,85
89856,note_on,,,,,128,0,13,,,,,5,,,45,85
89856,program_change,,,,,18176,0,11,,,,,3,40,,,
89940,note_off,,,,,84,0,8,,,,,0,,,73,100
89984,note_on,,,,,44,0,8,,,,,0,,,71,85
89984,note_on,,,,,128,0,11,,,,,3,,,76,85
90068,note_off,,,,,84,0,11,,,,,3,,,76,100
90068,note_off,,,,,84,0,8,,,,,0,,,71,100
90112,note_off,,,,,256,0,16,,,,,7,,,45,100
90112,note_on,,,,,44,0,8,,,,,0,,,73,85
90112,note_off,,,,,256,0,14,,,,,6,,,33,100
90112,note_off,,,,,0,0,15,,,,,7,,,64,100
90112,note_off,,,,,256,0,15,,,,,7,,,61,100
90112,note_on,,,,,44,0,11,,,,,3,,,74,85
90112,note_off,,,,,256,0,10,,,,,2,,,64,100
90112,note_off,,,,,256,0,13,,,,,5,,,45,100
90196,note_off,,,,,84,0,11,,,,,3,,,74,100
90196,note_off,,,,,84,0,8,,,,,0,,,73,100
90240,note_on,,,,,128,0,15,,,,,7,,,61,100
90240,note_on,,,,,0,0,15,,,,,7,,,69,100
90240,note_on,,,,,44,0,11,,,,,3,,,73,85
90240,note_on,,,,,128,0,16,,,,,7,,,57,100
90240,note_on,,,,,44,0,8,,,,,0,,,69,85
90240,note_on,,,,,128,0,13,,,,,5,,,57,85
90240,note_on,,,,,128,0,14,,,,,6,,,45,85
90364,note_off,,,,,124,0,11,,,,,3,,,73,100
90368,note_on,,,,,4,0,11,,,,,3,,,71,85
90492,note_off,,,,,124,0,11,,,,,3,,,71,100
90496,note_off,,,,,256,0,8,,,,,0,,,69,100
90496,note_off,,,,,256,0,13,,,,,5,,,57,100
90496,note_on,,,,,4,0,11,,,,,3,,,69,85
90496,note_off,,,,,256,0,15,,,,,7,,,61,100
90496,note_off,,,,,256,0,14,,,,,6,,,45,100
90496,note_off,,,,,0,0,15,,,,,7,,,69,100
90496,note_off,,,,,256,0,16,,,,,7,,,57,100
90580,note_off,,,,,84,0,11,,,,,3,,,69,100
90624,note_on,,,,,128,0,13,,,,,5,,,57,85
90624,note_on,,,,,128,0,16,,,,,7,,,57,100
90624,note_on,,,,,128,0,14,,,,,6,,,45,85
90624,note_on,,,,,44,0,11,,,,,3,,,79,85
90624,note_on,,,,,0,0,15,,,,,7,,,67,100
90624,note_on,,,,,128,0,15,,,,,7,,,64,100
90748,note_off,,,,,124,0,11,,,,,3,,,79,100
90752,note_on,,,,,4,0,11,,,,,3,,,78,85
90876,note_off,,,,,124,0,11,,,,,3,,,78,100
90880,note_off,,,,,0,0,15,,,,,7,,,67,100
90880,note_off,,,,,256,0,13,,,,,5,,,57,100
90880,note_off,,,,,256,0,16,,,,,7,,,57,100
90880,note_off,,,,,256,0,15,,,,,7,,,64,100
90880,note_on,,,,,4,0,11,,,,,3,,,76,85
90880,note_off,,,,,256,0,14,,,,,6,,,45,100
90964,note_off,,,,,84,0,11,,,,,3,,,76,100
91008,note_on,,,,,128,0,14,,,,,6,,,50,85
91008,note_on,,,,,128,0,16,,,,,7,,,62,100
91008,note_on,,,,,44,0,11,,,,,3,,,78,85
91008,note_on,,,,,0,0,15,,,,,7,,,69,100
91008,note_on,,,,,128,0,15,,,,,7,,,66,100
91008,note_on,,,,,128,0,13,,,,,5,,,62,85
91008,program_change,,,,,896,0,10,,,,,2,48,,,
91132,note_off,,,,,124,0,11,,,,,3,,,78,100
91136,note_on,,,,,4,0,11,,,,,3,,,79,85
91260,note_off,,,,,124,0,11,,,,,3,,,79,100
91264,note_on,,,,,4,0,11,,,,,3,,,81,85
91264,note_off,,,,,256,0,15,,,,,7,,,66,100
91264,note_off,,,,,0,0,15,,,,,7,,,69,100
91264,note_off,,,,,256,0,14,,,,,6,,,50,100
91264,note_off,,,,,256,0,13,,,,,5,,,62,100
91264,note_off,,,,,256,0,16,,,,,7,,,62,100
91348,note_off,,,,,84,0,11,,,,,3,,,81,100
91392,note_on,,,,,128,0,14,,,,,6,,,50,85
91392,note_on,,,,,44,0,11,,,,,3,,,81,85
91392,note_on,,,,,128,0,13,,,,,5,,,62,85
91392,note_on,,,,,128,0,15,,,,,7,,,66,100
91392,note_on,,,,,128,0,16,,,,,7,,,62,100
91392,note_on,,,,,0,0,15,,,,,7,,,69,100
91516,note_off,,,,,124,0,11,,,,,3,,,81,100
91520,note_on,,,,,4,0,11,,,,,3,,,79,85
91644,note_off,,,,,124,0,11,,,,,3,,,79,100
91648,note_off,,,,,256,0,16,,,,,7,,,62,100
91648,note_off,,,,,256,0,15,,,,,7,,,66,100
91648,note_off,,,,,0,0,15,,,,,7,,,69,100
91648,note_off,,,,,256,0,14,,,,,6,,,50,100
91648,note_on,,,,,4,0,11,,,,,3,,,78,85
91648,note_off,,,,,256,0,13,,,,,5,,,62,100
91732,note_off,,,,,84,0,11,,,,,3,,,78,100
91776,note_on,,,,,44,0,11,,,,,3,,,76,85
91776,note_on,,,,,128,0,16,,,,,7,,,56,100
91776,note_on,,,,,128,0,14,,,,,6,,,44,85
91776,note_on,,,,,128,0,13,,,,,5,,,56,85
91776,note_on,,,,,128,0,15,,,,,7,,,64,100
91776,note_on,,,,,0,0,15,,,,,7,,,62,100
91900,note_off,,,,,124,0,11,,,,,3,,,76,100
91904,note_on,,,,,4,0,11,,,,,3,,,78,85
92028,note_off,,,,,124,0,11,,,,,3,,,78,100
92032,note_off,,,,,256,0,13,,,,,5,,,56,100
92032,note_on,,,,,4,0,11,,,,,3,,,74,85
92032,note_off,,,,,0,0,15,,,,,7,,,62,100
92032,note_off,,,,,256,0,15,,,,,7,,,64,100
92032,note_off,,,,,256,0,14,,,,,6,,,44,100
92032,note_off,,,,,256,0,16,,,,,7,,,56,100
92116,note_off,,,,,84,0,11,,,,,3,,,74,100
92160,note_on,,,,,44,0,11,,,,,3,,,73,85
92160,note_on,,,,,0,0,15,,,,,7,,,64,100
92160,note_on,,,,,128,0,15,,,,,7,,,61,100
92160,note_on,,,,,128,0,16,,,,,7,,,57,100
92160,note_on,,,,,128,0,14,,,,,6,,,45,85
92160,note_on,,,,,128,0,13,,,,,5,,,57,85
92284,note_off,,,,,124,0,11,,,,,3,,,73,100
92288,note_on,,,,,4,0,11,,,,,3,,,76,85
92412,note_off,,,,,124,0,11,,,,,3,,,76,100
92416,note_off,,,,,256,0,16,,,,,7,,,57,100
92416,note_off,,,,,256,0,14,,,,,6,,,45,100
92416,note_off,,,,,0,0,15,,,,,7,,,64,100
92416,note_off,,,,,256,0,13,,,,,5,,,57,100
92416,note_off,,,,,256,0,15,,,,,7,,,61,100
92416,note_on,,,,,4,0,11,,,,,3,,,74,85
92500,note_off,,,,,84,0,11,,,,,3,,,74,100
92544,note_on,,,,,128,0,15,,,,,7,,,61,100
92544,note_on,,,,,128,0,14,,,,,6,,,45,85
92544,note_on,,,,,44,0,11,,,,,3,,,73,85
92544,note_on,,,,,128,0,16,,,,,7,,,57,100
92544,note_on,,,,,0,0,15,,,,,7,,,64,100
92544,note_on,,,,,128,0,13,,,,,5,,,57,85
92668,note_off,,,,,124,0,11,,,,,3,,,73,100
92672,note_on,,,,,4,0,11,,,,,3,,,71,85
92796,note_off,,,,,124,0,11,,,,,3,,,71,100
92800,note_on,,,,,4,0,11,,,,,3,,,69,85
92800,note_off,,,,,256,0,13,,,,,5,,,57,100
92800,note_off,,,,,256,0,15,,,,,7,,,61,100
92800,note_off,,,,,0,0,15,,,,,7,,,64,100
92800,note_off,,,,,256,0,14,,,,,6,,,45,100
92800,note_off,,,,,256,0,16,,,,,7,,,57,100
92884,note_off,,,,,84,0,11,,,,,3,,,69,100
92928,note_on,,,,,128,0,14,,,,,6,,,45,85
92928,note_on,,,,,44,0,11,,,,,3,,,79,85
92928,note_on,,,,,128,0,15,,,,,7,,,64,100
92928,note_on,,,,,128,0,13,,,,,5,,,57,85
92928,note_on,,,,,0,0,15,,,,,7,,,67,100
92928,note_on,,,,,128,0,16,,,,,7,,,57,100
93052,note_off,,,,,124,0,11,,,,,3,,,79,100
93056,note_on,,,,,4,0,11,,,,,3,,,78,85
93180,note_off,,,,,124,0,11,,,,,3,,,78,100
93184,note_on,,,,,4,0,11,,,,,3,,,76,85
93184,note_off,,,,,256,0,15,,,,,7,,,64,100
93184,note_off,,,,,0,0,15,,,,,7,,,67,100
93184,note_off,,,,,256,0,14,,,,,6,,,45,100
93184,note_off,,,,,256,0,16,,,,,7,,,57,100
93184,note_off,,,,,256,0,13,,,,,5,,,57,100
93268,note_off,,,,,84,0,11,,,,,3,,,76,100
93312,note_on,,,,,128,0,14,,,,,6,,,50,85
93312,note_on,,,,,44,0,11,,,,,3,,,78,85
93312,note_on,,,,,128,0,16,,,,,7,,,62,100
93312,note_on,,,,,0,0,15,,,,,7,,,66,100
93312,note_on,,,,,128,0,15,,,,,7,,,69,100
93312,note_on,,,,,128,0,13,,,,,5,,,62,85
93436,note_off,,,,,124,0,11,,,,,3,,,78,100
93440,note_on,,,,,4,0,11,,,,,3,,,79,85
93564,note_off,,,,,124,0,11,,,,,3,,,79,100
93568,note_off,,,,,256,0,16,,,,,7,,,62,100
93568,note_off,,,,,0,0,15,,,,,7,,,66,100
93568,note_off,,,,,256,0,15,,,,,7,,,69,100
93568,note_off,,,,,256,0,14,,,,,6,,,50,100
93568,note_off,,,,,256,0,13,,,,,5,,,62,100
93568,note_on,,,,,4,0,11,,,,,3,,,81,85
93652,note_off,,,,,84,0,11,,,,,3,,,81,100
93696,note_on,,,,,128,0,16,,,,,7,,,62,100
93696,note_on,,,,,0,0,15,,,,,7,,,66,100
93696,note_on,,,,,128,0,15,,,,,7,,,69,100
93696,note_on,,,,,44,0,11,,,,,3,,,81,85
93696,note_on,,,,,128,0,13,,,,,5,,,62,85
93696,note_on,,,,,128,0,14,,,,,6,,,50,85
93820,note_off,,,,,124,0,11,,,,,3,,,81,100
93824,note_on,,,,,4,0,11,,,,,3,,,79,85
93948,note_off,,,,,124,0,11,,,,,3,,,79,100
93952,note_off,,,,,256,0,14,,,,,6,,,50,100
93952,note_off,,,,,256,0,13,,,,,5,,,62,100
93952,note_off,,,,,256,0,15,,,,,7,,,69,100
93952,note_off,,,,,0,0,15,,,,,7,,,66,100
93952,note_on,,,,,4,0,11,,,,,3,,,78,85
93952,note_off,,,,,256,0,16,,,,,7,,,62,100
94036,note_off,,,,,84,0,11,,,,,3,,,78,100
94080,note_on,,,,,128,0,13,,,,,5,,,56,85
94080,note_on,,,,,128,0,15,,,,,7,,,64,100
94080,note_on,,,,,0,0,15,,,,,7,,,62,100
94080,note_on,,,,,128,0,14,,,,,6,,,44,85
94080,note_on,,,,,128,0,16,,,,,7,,,56,100
94080,note_on,,,,,44,0,11,,,,,3,,,76,85
94204,note_off,,,,,124,0,11,,,,,3,,,76,100
94208,note_on,,,,,4,0,11,,,,,3,,,78,85
94332,note_off,,,,,124,0,11,,,,,3,,,78,100
94336,note_off,,,,,256,0,16,,,,,7,,,56,100
94336,note_on,,,,,4,0,11,,,,,3,,,74,85
94336,note_off,,,,,256,0,13,,,,,5,,,56,100
94336,note_off,,,,,256,0,15,,,,,7,,,64,100
94336,note_off,,,,,0,0,15,,,,,7,,,62,100
94336,note_off,,,,,256,0,14,,,,,6,,,44,100
94420,note_off,,,,,84,0,11,,,,,3,,,74,100
94464,note_on,,,,,0,0,15,,,,,7,,,61,100
94464,note_on,,,,,128,0,14,,,,,6,,,45,85
94464,note_on,,,,,128,0,16,,,,,7,,,57,100
94464,note_on,,,,,128,0,15,,,,,7,,,64,100
94464,note_on,,,,,44,0,11,,,,,3,,,73,85
94464,note_on,,,,,128,0,13,,,,,5,,,57,85
94548,note_off,,,,,84,0,11,,,,,3,,,73,100
94592,note_on,,,,,44,0,11,,,,,3,,,69,85
94676,note_off,,,,,84,0,11,,,,,3,,,69,100
94720,note_off,,,,,256,0,16,,,,,7,,,57,100
94720,note_off,,,,,256,0,13,,,,,5,,,57,100
94720,note_off,,,,,256,0,15,,,,,7,,,64,100
94720,note_off,,,,,256,0,14,,,,,6,,,45,100
94720,note_on,,,,,44,0,11,,,,,3,,,73,85
94720,note_off,,,,,0,0,15,,,,,7,,,61,100
94804,note_off,,,,,84,0,11,,,,,3,,,73,100
94848,note_on,,,,,128,0,13,,,,,5,,,57,85
94848,note_on,,,,,128,0,15,,,,,7,,,64,100
94848,note_on,,,,,0,0,15,,,,,7,,,61,100
94848,note_on,,,,,128,0,16,,,,,7,,,57,100
94848,note_on,,,,,128,0,14,,,,,6,,,45,85
94848,note_on,,,,,44,0,11,,,,,3,,,73,85
94932,note_off,,,,,84,0,11,,,,,3,,,73,100
94976,note_on,,,,,44,0,11,,,,,3,,,69,85
95060,note_off,,,,,84,0,11,,,,,3,,,69,100
95104,note_on,,,,,44,0,11,,,,,3,,,73,85
95104,note_off,,,,,256,0,15,,,,,7,,,64,100
95104,note_off,,,,,256,0,13,,,,,5,,,57,100
95104,note_off,,,,,0,0,15,,,,,7,,,61,100
95104,note_off,,,,,256,0,16,,,,,7,,,57,100
95104,note_off,,,,,256,0,14,,,,,6,,,45,100
95188,note_off,,,,,84,0,11,,,,,3,,,73,100
95232,note_on,,,,,44,0,11,,,,,3,,,73,85
95232,note_on,,,,,128,0,13,,,,,5,,,55,85
95232,note_on,,,,,128,0,14,,,,,6,,,43,85
95232,note_on,,,,,128,0,15,,,,,7,,,69,100
95232,note_on,,,,,128,0,16,,,,,7,,,55,100
95232,note_on,,,,,0,0,15,,,,,7,,,61,100
95316,note_off,,,,,84,0,11,,,,,3,,,73,100
95360,note_on,,,,,44,0,11,,,,,3,,,69,85
95444,note_off,,,,,84,0,11,,,,,3,,,69,100
95488,note_off,,,,,256,0,13,,,,,5,,,55,100
95488,note_on,,,,,44,0,11,,,,,3,,,73,85
95488,note_off,,,,,256,0,16,,,,,7,,,55,100
95488,note_off,,,,,256,0,14,,,,,6,,,43,100
95488,note_off,,,,,0,0,15,,,,,7,,,61,100
95488,note_off,,,,,256,0,15,,,,,7,,,69,100
95572,note_off,,,,,84,0,11,,,,,3,,,73,100
95616,note_on,,,,,128,0,15,,,,,7,,,59,100
95616,note_on,,,,,128,0,13,,,,,5,,,54,85
95616,note_on,,,,,0,0,15,,,,,7,,,69,100
95616,note_on,,,,,128,0,16,,,,,7,,,54,100
95616,note_on,,,,,128,0,14,,,,,6,,,42,85
95616,note_on,,,,,44,0,11,,,,,3,,,74,85
95700,note_off,,,,,84,0,11,,,,,3,,,74,100
95744,note_on,,,,,44,0,11,,,,,3,,,66,85
95828,note_off,,,,,84,0,11,,,,,3,,,66,100
95872,note_off,,,,,256,0,14,,,,,6,,,42,100
95872,note_off,,,,,256,0,16,,,,,7,,,54,100
95872,note_off,,,,,0,0,15,,,,,7,,,69,100
95872,note_on,,,,,44,0,11,,,,,3,,,74,85
95872,note_off,,,,,256,0,15,,,,,7,,,59,100
95872,note_off,,,,,256,0,13,,,,,5,,,54,100
95956,note_off,,,,,84,0,11,,,,,3,,,74,100
96000,note_on,,,,,128,0,15,,,,,7,,,59,100
96000,note_on,,,,,0,0,15,,,,,7,,,57,100
96000,note_on,,,,,128,0,16,,,,,7,,,54,100
96000,note_on,,,,,128,0,14,,,,,6,,,42,85
96000,note_on,,,,,44,0,11,,,,,3,,,74,85
96000,note_on,,,,,128,0,13,,,,,5,,,54,85
96084,note_off,,,,,84,0,11,,,,,3,,,74,100
96128,note_on,,,,,44,0,11,,,,,3,,,66,85
96212,note_off,,,,,84,0,11,,,,,3,,,66,100
96256,note_off,,,,,256,0,14,,,,,6,,,42,100
96256,note_off,,,,,256,0,15,,,,,7,,,59,100
96256,note_on,,,,,44,0,11,,,,,3,,,74,85
96256,note_off,,,,,256,0,16,,,,,7,,,54,100
96256,note_off,,,,,256,0,13,,,,,5,,,54,100
96256,note_off,,,,,0,0,15,,,,,7,,,57,100
96340,note_off,,,,,84,0,11,,,,,3,,,74,100
96384,note_on,,,,,128,0,14,,,,,6,,,42,85
96384,note_on,,,,,128,0,15,,,,,7,,,59,100
96384,note_on,,,,,128,0,13,,,,,5,,,54,85
96384,note_on,,,,,128,0,16,,,,,7,,,54,100
96384,note_on,,,,,44,0,11,,,,,3,,,74,85
96384,note_on,,,,,0,0,15,,,,,7,,,57,100
96468,note_off,,,,,84,0,11,,,,,3,,,74,100
96512,note_on,,,,,44,0,11,,,,,3,,,66,85
96596,note_off,,,,,84,0,11,,,,,3,,,66,100
96640,note_off,,,,,256,0,16,,,,,7,,,54,100
96640,note_off,,,,,256,0,15,,,,,7,,,59,100
96640,note_off,,,,,0,0,15,,,,,7,,,57,100
96640,note_off,,,,,256,0,13,,,,,5,,,54,100
96640,note_off,,,,,256,0,14,,,,,6,,,42,100
96640,note_on,,,,,44,0,11,,,,,3,,,74,85
96724,note_off,,,,,84,0,11,,,,,3,,,74,100
96768,note_on,,,,,44,0,11,,,,,3,,,74,85
96768,note_on,,,,,128,0,13,,,,,5,,,56,85
96768,note_on,,,,,0,0,15,,,,,7,,,65,100
96768,note_on,,,,,128,0,15,,,,,7,,,62,100
96768,note_on,,,,,128,0,16,,,,,7,,,56,100
96768,note_on,,,,,128,0,14,,,,,6,,,44,85
96852,note_off,,,,,84,0,11,,,,,3,,,74,100
96896,note_on,,,,,44,0,11,,,,,3,,,65,85
96980,note_off,,,,,84,0,11,,,,,3,,,65,100
97024,note_off,,,,,256,0,16,,,,,7,,,56,100
97024,note_off,,,,,256,0,14,,,,,6,,,44,100
97024,note_on,,,,,44,0,11,,,,,3,,,74,85
97024,note_off,,,,,256,0,13,,,,,5,,,56,100
97024,note_off,,,,,256,0,15,,,,,7,,,62,100
97024,note_off,,,,,0,0,15,,,,,7,,,65,100
97108,note_off,,,,,84,0,11,,,,,3,,,74,100
97152,note_on,,,,,0,0,15,,,,,7,,,62,100
97152,note_on,,,,,128,0,13,,,,,5,,,56,85
97152,note_on,,,,,128,0,15,,,,,7,,,59,100
97152,note_on,,,,,44,0,11,,,,,3,,,74,85
97152,note_on,,,,,128,0,16,,,,,7,,,56,100
97152,note_on,,,,,128,0,14,,,,,6,,,44,85
97236,note_off,,,,,84,0,11,,,,,3,,,74,100
97280,note_on,,,,,44,0,11,,,,,3,,,65,85
97364,note_off,,,,,84,0,11,,,,,3,,,65,100
97408,note_off,,,,,256,0,13,,,,,5,,,56,100
97408,note_on,,,,,44,0,11,,,,,3,,,74,85
97408,note_off,,,,,0,0,15,,,,,7,,,62,100
97408,note_off,,,,,256,0,16,,,,,7,,,56,100
97408,note_off,,,,,256,0,15,,,,,7,,,59,100
97408,note_off,,,,,256,0,14,,,,,6,,,44,100
97492,note_off,,,,,84,0,11,,,,,3,,,74,100
97536,note_on,,,,,0,0,15,,,,,7,,,62,100
97536,note_on,,,,,128,0,15,,,,,7,,,59,100
97536,note_on,,,,,128,0,13,,,,,5,,,56,85
97536,note_on,,,,,128,0,16,,,,,7,,,56,100
97536,note_on,,,,,44,0,11,,,,,3,,,74,85
97536,note_on,,,,,128,0,14,,,,,6,,,44,85
97620,note_off,,,,,84,0,11,,,,,3,,,74,100
97664,note_on,,,,,44,0,11,,,,,3,,,65,85
97748,note_off,,,,,84,0,11,,,,,3,,,65,100
97792,note_on,,,,,44,0,11,,,,,3,,,74,85
97792,note_off,,,,,256,0,16,,,,,7,,,56,100
97792,note_off,,,,,256,0,13,,,,,5,,,56,100
97792,note_off,,,,,0,0,15,,,,,7,,,62,100
97792,note_off,,,,,256,0,15,,,,,7,,,59,100
97792,note_off,,,,,256,0,14,,,,,6,,,44,100
97876,note_off,,,,,84,0,11,,,,,3,,,74,100
97920,note_on,,,,,128,0,13,,,,,5,,,57,85
97920,note_on,,,,,128,0,14,,,,,6,,,45,85
97920,note_on,,,,,0,0,15,,,,,7,,,66,100
97920,note_on,,,,,128,0,16,,,,,7,,,57,100
97920,note_on,,,,,44,0,11,,,,,3,,,74,85
97920,note_on,,,,,128,0,15,,,,,7,,,64,100
98004,note_off,,,,,84,0,11,,,,,3,,,74,100
98048,note_on,,,,,44,0,11,,,,,3,,,64,85
98132,note_off,,,,,84,0,11,,,,,3,,,64,100
98176,note_off,,,,,256,0,16,,,,,7,,,57,100
98176,note_off,,,,,256,0,14,,,,,6,,,45,100
98176,note_off,,,,,256,0,15,,,,,7,,,64,100
98176,note_off,,,,,0,0,15,,,,,7,,,66,100
98176,note_off,,,,,256,0,13,,,,,5,,,57,100
98176,note_on,,,,,44,0,11,,,,,3,,,74,85
98260,note_off,,,,,84,0,11,,,,,3,,,74,100
98304,note_on,,,,,128,0,14,,,,,6,,,45,85
98304,note_on,,,,,128,0,13,,,,,5,,,57,85
98304,note_on,,,,,44,0,11,,,,,3,,,74,85
98304,note_on,,,,,128,0,15,,,,,7,,,66,100
98304,note_on,,,,,128,0,16,,,,,7,,,57,100
98304,note_on,,,,,0,0,15,,,,,7,,,64,100
98388,note_off,,,,,84,0,11,,,,,3,,,74,100
98432,note_on,,,,,44,0,11,,,,,3,,,64,85
98516,note_off,,,,,84,0,11,,,,,3,,,64,100
98560,note_off,,,,,256,0,13,,,,,5,,,57,100
98560,note_off,,,,,256,0,15,,,,,7,,,66,100
98560,note_off,,,,,0,0,15,,,,,7,,,64,100
98560,note_off,,,,,256,0,14,,,,,6,,,45,100
98560,note_off,,,,,256,0,16,,,,,7,,,57,100
98560,note_on,,,,,44,0,11,,,,,3,,,74,85
98644,note_off,,,,,84,0,11,,,,,3,,,74,100
98688,note_on,,,,,128,0,15,,,,,7,,,66,100
98688,note_on,,,,,44,0,11,,,,,3,,,74,85
98688,note_on,,,,,128,0,13,,,,,5,,,57,85
98688,note_on,,,,,128,0,16,,,,,7,,,57,100
98688,note_on,,,,,0,0,15,,,,,7,,,64,100
98688,note_on,,,,,128,0,14,,,,,6,,,45,85
98772,note_off,,,,,84,0,11,,,,,3,,,74,100
98816,note_on,,,,,44,0,11,,,,,3,,,64,85
98900,note_off,,,,,84,0,11,,,,,3,,,64,100
98944,note_off,,,,,256,0,16,,,,,7,,,57,100
98944,note_off,,,,,256,0,15,,,,,7,,,66,100
98944,note_on,,,,,44,0,11,,,,,3,,,74,85
98944,note_off,,,,,0,0,15,,,,,7,,,64,100
98944,note_off,,,,,256,0,14,,,,,6,,,45,100
98944,note_off,,,,,256,0,13,,,,,5,,,57,100
99028,note_off,,,,,84,0,11,,,,,3,,,74,100
99072,note_on,,,,,128,0,14,,,,,6,,,33,85
99072,note_on,,,,,0,0,15,,,,,7,,,61,100
99072,note_on,,,,,128,0,15,,,,,7,,,64,100
99072,note_on,,,,,44,0,11,,,,,3,,,73,85
99072,note_on,,,,,128,0,13,,,,,5,,,45,85
99072,note_on,,,,,128,0,16,,,,,7,,,45,100
99156,note_off,,,,,84,0,11,,,,,3,,,73,100
99200,note_on,,,,,44,0,11,,,,,3,,,64,85
99284,note_off,,,,,84,0,11,,,,,3,,,64,100
99328,note_off,,,,,256,0,15,,,,,7,,,64,100
99328,note_off,,,,,256,0,14,,,,,6,,,33,100
99328,note_off,,,,,256,0,13,,,,,5,,,45,100
99328,note_on,,,,,44,0,11,,,,,3,,,73,85
99328,note_off,,,,,256,0,16,,,,,7,,,45,100
99328,note_off,,,,,0,0,15,,,,,7,,,61,100
99412,note_off,,,,,84,0,11,,,,,3,,,73,100
99456,note_on,,,,,128,0,15,,,,,7,,,64,100
99456,note_on,,,,,128,0,14,,,,,6,,,33,85
99456,note_on,,,,,128,0,13,,,,,5,,,45,85
99456,note_on,,,,,44,0,11,,,,,3,,,73,85
99456,note_on,,,,,128,0,16,,,,,7,,,45,100
99456,note_on,,,,,0,0,15,,,,,7,,,61,100
99540,note_off,,,,,84,0,11,,,,,3,,,73,100
99584,note_on,,,,,44,0,11,,,,,3,,,64,85
99668,note_off,,,,,84,0,11,,,,,3,,,64,100
99712,note_on,,,,,44,0,11,,,,,3,,,73,85
99712,note_off,,,,,256,0,16,,,,,7,,,45,100
99712,note_off,,,,,0,0,15,,,,,7,,,61,100
99712,note_off,,,,,256,0,14,,,,,6,,,33,100
99712,note_off,,,,,256,0,13,,,,,5,,,45,100
99712,note_off,,,,,256,0,15,,,,,7,,,64,100
99796,note_off,,,,,84,0,11,,,,,3,,,73,100
99840,note_on,,,,,128,0,16,,,,,7,,,45,100
99840,note_on,,,,,128,0,15,,,,,7,,,64,100
99840,note_on,,,,,128,0,14,,,,,6,,,33,85
99840,note_on,,,,,128,0,13,,,,,5,,,45,85
99840,note_on,,,,,0,0,15,,,,,7,,,61,100
99840,note_on,,,,,44,0,11,,,,,3,,,73,85
99924,note_off,,,,,84,0,11,,,,,3,,,73,100
99968,note_on,,,,,44,0,11,,,,,3,,,64,85
100052,note_off,,,,,84,0,11,,,,,3,,,64,100
100096,note_off,,,,,256,0,14,,,,,6,,,33,100
100096,note_on,,,,,44,0,11,,,,,3,,,73,85
100096,note_off,,,,,256,0,15,,,,,7,,,64,100
100096,note_off,,,,,256,0,13,,,,,5,,,45,100
100096,note_off,,,,,256,0,16,,,,,7,,,45,100
100096,note_off,,,,,0,0,15,,,,,7,,,61,100
100180,note_off,,,,,84,0,11,,,,,3,,,73,100
100224,note_on,,,,,128,0,16,,,,,7,,,50,100
100224,note_on,,,,,128,0,14,,,,,6,,,38,85
100224,note_on,,,,,128,0,13,,,,,5,,,50,85
100224,note_on,,,,,28544,0,12,,,,,4,,,69,85
100224,program_change,,,,,15488,0,9,,,,,1,48,,,
100224,note_on,,,,,0,0,12,,,,,4,,,66,85
100224,note_on,,,,,44,0,11,,,,,3,,,74,85
100224,note_on,,,,,128,0,15,,,,,7,,,66,100
100224,note_on,,,,,0,0,15,,,,,7,,,62,100
100224,program_change,,,,,9728,0,8,,,,,0,48,,,
100308,program_change,,,,,0,0,11,,,,,3,48,,,
100308,note_off,,,,,84,0,11,,,,,3,,,74,100
100352,note_on,,,,,128,0,8,,,,,0,,,81,85
100352,note_on,,,,,44,0,11,,,,,3,,,81,35
100352,note_on,,,,,9344,0,10,,,,,2,,,81,35
100352,note_on,,,,,128,0,9,,,,,1,,,81,35
100436,note_off,,,,,84,0,11,,,,,3,,,81,100
100436,note_off,,,,,84,0,10,,,,,2,,,81,100
100436,note_off,,,,,84,0,8,,,,,0,,,81,100
100436,note_off,,,,,84,0,9,,,,,1,,,81,100
100480,note_off,,,,,256,0,15,,,,,7,,,66,100
100480,note_on,,,,,44,0,10,,,,,2,,,79,35
100480,note_off,,,,,256,0,16,,,,,7,,,50,100
100480,note_off,,,,,0,0,15,,,,,7,,,62,100
100480,note_off,,,,,256,0,13,,,,,5,,,50,100
100480,note_off,,,,,256,0,12,,,,,4,,,69,100
100480,note_on,,,,,44,0,11,,,,,3,,,79,35
100480,note_off,,,,,0,0,12,,,,,4,,,66,100
100480,note_off,,,,,256,0,14,,,,,6,,,38,100
100480,note_on,,,,,44,0,8,,,,,0,,,79,85
100480,note_on,,,,,44,0,9,,,,,1,,,79,35
100564,note_off,,,,,84,0,11,,,,,3,,,79,100
100564,note_off,,,,,84,0,9,,,,,1,,,79,100
100564,note_off,,,,,84,0,10,,,,,2,,,79,100
100564,note_off,,,,,84,0,8,,,,,0,,,79,100
100608,note_on,,,,,44,0,11,,,,,3,,,78,35
100608,note_on,,,,,44,0,9,,,,,1,,,78,35
100608,note_on,,,,,44,0,10,,,,,2,,,78,35
100608,note_on,,,,,44,0,8,,,,,0,,,78,85
100692,note_off,,,,,84,0,11,,,,,3,,,78,100
100692,note_off,,,,,84,0,8,,,,,0,,,78,100
100692,note_off,,,,,84,0,9,,,,,1,,,78,100
100692,note_off,,,,,84,0,10,,,,,2,,,78,100
100736,note_on,,,,,44,0,11,,,,,3,,,79,35
100736,note_on,,,,,44,0,8,,,,,0,,,79,85
100736,note_on,,,,,44,0,9,,,,,1,,,79,35
100736,note_on,,,,,44,0,10,,,,,2,,,79,35
100820,note_off,,,,,84,0,10,,,,,2,,,79,100
100820,note_off,,,,,84,0,11,,,,,3,,,79,100
100820,note_off,,,,,84,0,8,,,,,0,,,79,100
100820,note_off,,,,,84,0,9,,,,,1,,,79,100
100864,note_on,,,,,44,0,11,,,,,3,,,76,35
100864,note_on,,,,,44,0,8,,,,,0,,,76,85
100864,note_on,,,,,44,0,10,,,,,2,,,76,35
100864,note_on,,,,,44,0,9,,,,,1,,,76,35
100948,note_off,,,,,84,0,9,,,,,1,,,76,100
100948,note_off,,,,,84,0,11,,,,,3,,,76,100
100948,note_off,,,,,84,0,10,,,,,2,,,76,100
100948,note_off,,,,,84,0,8,,,,,0,,,76,100
100992,note_on,,,,,0,0,15,,,,,7,,,69,100
100992,note_on,,,,,44,0,9,,,,,1,,,74,35
100992,note_on,,,,,0,0,12,,,,,4,,,62,85
100992,note_on,,,,,44,0,10,,,,,2,,,74,35
100992,note_on,,,,,512,0,12,,,,,4,,,69,85
100992,note_on,,,,,512,0,15,,,,,7,,,62,100
100992,note_on,,,,,512,0,13,,,,,5,,,54,85
100992,note_on,,,,,512,0,14,,,,,6,,,42,85
100992,note_on,,,,,44,0,8,,,,,0,,,74,85
100992,note_on,,,,,512,0,16,,,,,7,,,54,100
100992,note_on,,,,,44,0,11,,,,,3,,,74,35
101076,note_off,,,,,84,0,11,,,,,3,,,74,100
101076,note_off,,,,,84,0,10,,,,,2,,,74,100
101076,note_off,,,,,84,0,8,,,,,0,,,74,100
101076,note_off,,,,,84,0,9,,,,,1,,,74,100
101120,note_on,,,,,44,0,8,,,,,0,,,76,85
101120,note_on,,,,,44,0,11,,,,,3,,,76,35
101120,note_on,,,,,44,0,9,,,,,1,,,76,35
101120,note_on,,,,,44,0,10,,,,,2,,,76,35
101204,note_off,,,,,84,0,9,,,,,1,,,76,100
101204,note_off,,,,,84,0,8,,,,,0,,,76,100
101204,note_off,,,,,84,0,10,,,,,2,,,76,100
101204,note_off,,,,,84,0,11,,,,,3,,,76,100
101248,note_off,,,,,256,0,14,,,,,6,,,42,100
101248,note_on,,,,,44,0,8,,,,,0,,,73,85
101248,note_off,,,,,256,0,13,,,,,5,,,54,100
101248,note_off,,,,,0,0,15,,,,,7,,,69,100
101248,note_off,,,,,256,0,15,,,,,7,,,62,100
101248,note_on,,,,,44,0,9,,,,,1,,,73,35
101248,note_off,,,,,256,0,16,,,,,7,,,54,100
101248,note_on,,,,,44,0,11,,,,,3,,,73,35
101248,note_off,,,,,0,0,12,,,,,4,,,62,100
101248,note_off,,,,,256,0,12,,,,,4,,,69,100
101248,note_on,,,,,44,0,10,,,,,2,,,73,35
101332,note_off,,,,,84,0,11,,,,,3,,,73,100
101332,note_off,,,,,84,0,9,,,,,1,,,73,100
101332,note_off,,,,,84,0,8,,,,,0,,,73,100
101332,note_off,,,,,84,0,10,,,,,2,,,73,100
101376,note_on,,,,,44,0,9,,,,,1,,,71,35
101376,note_on,,,,,128,0,15,,,,,7,,,71,100
101376,note_on,,,,,0,0,15,,,,,7,,,62,100
101376,note_on,,,,,128,0,13,,,,,5,,,55,85
101376,note_on,,,,,44,0,8,,,,,0,,,71,85
101376,note_on,,,,,128,0,12,,,,,4,,,62,85
101376,note_on,,,,,44,0,10,,,,,2,,,71,35
101376,note_on,,,,,128,0,16,,,,,7,,,55,100
101376,note_on,,,,,128,0,14,,,,,6,,,43,85
101376,note_on,,,,,44,0,11,,,,,3,,,71,35
101460,note_off,,,,,84,0,11,,,,,3,,,71,100
101460,note_off,,,,,84,0,9,,,,,1,,,71,100
101460,note_off,,,,,84,0,8,,,,,0,,,71,100
101460,note_off,,,,,84,0,10,,,,,2,,,71,100
101504,note_on,,,,,44,0,10,,,,,2,,,83,35
101504,note_on,,,,,44,0,8,,,,,0,,,83,85
101504,note_on,,,,,44,0,11,,,,,3,,,83,35
101504,note_on,,,,,44,0,9,,,,,1,,,83,35
101588,note_off,,,,,84,0,8,,,,,0,,,83,100
101588,note_off,,,,,84,0,10,,,,,2,,,83,100
101588,note_off,,,,,84,0,11,,,,,3,,,83,100
101588,note_off,,,,,84,0,9,,,,,1,,,83,100
101632,note_off,,,,,256,0,14,,,,,6,,,43,100
101632,note_on,,,,,44,0,9,,,,,1,,,81,35
101632,note_off,,,,,256,0,16,,,,,7,,,55,100
101632,note_off,,,,,256,0,13,,,,,5,,,55,100
101632,note_off,,,,,0,0,15,,,,,7,,,62,100
101632,note_off,,,,,256,0,15,,,,,7,,,71,100
101632,note_on,,,,,44,0,10,,,,,2,,,81,35
101632,note_off,,,,,256,0,12,,,,,4,,,62,100
101632,note_on,,,,,44,0,11,,,,,3,,,81,35
101632,note_on,,,,,44,0,8,,,,,0,,,81,85
101716,note_off,,,,,84,0,8,,,,,0,,,81,100
101716,note_off,,,,,84,0,9,,,,,1,,,81,100
101716,note_off,,,,,84,0,11,,,,,3,,,81,100
101716,note_off,,,,,84,0,10,,,,,2,,,81,100
101760,note_on,,,,,44,0,9,,,,,1,,,79,35
101760,note_on,,,,,44,0,8,,,,,0,,,79,85
101760,note_on,,,,,44,0,10,,,,,2,,,79,35
101760,note_on,,,,,44,0,11,,,,,3,,,79,35
101844,note_off,,,,,84,0,11,,,,,3,,,79,100
101844,note_off,,,,,84,0,8,,,,,0,,,79,100
101844,note_off,,,,,84,0,10,,,,,2,,,79,100
101844,note_off,,,,,84,0,9,,,,,1,,,79,100
101888,note_on,,,,,44,0,8,,,,,0,,,81,85
101888,note_on,,,,,44,0,11,,,,,3,,,81,35
101888,note_on,,,,,44,0,9,,,,,1,,,81,35
101888,note_on,,,,,44,0,10,,,,,2,,,81,35
101972,note_off,,,,,84,0,10,,,,,2,,,81,100
101972,note_off,,,,,84,0,11,,,,,3,,,81,100
101972,note_off,,,,,84,0,9,,,,,1,,,81,100
101972,note_off,,,,,84,0,8,,,,,0,,,81,100
102016,note_on,,,,,44,0,10,,,,,2,,,78,35
102016,note_on,,,,,44,0,9,,,,,1,,,78,35
102016,note_on,,,,,44,0,8,,,,,0,,,78,85
102016,note_on,,,,,44,0,11,,,,,3,,,78,35
102100,note_off,,,,,84,0,11,,,,,3,,,78,100
102100,note_off,,,,,84,0,10,,,,,2,,,78,100
102100,note_off,,,,,84,0,8,,,,,0,,,78,100
102100,note_off,,,,,84,0,9,,,,,1,,,78,100
102144,note_on,,,,,512,0,16,,,,,7,,,56,100
102144,note_on,,,,,44,0,10,,,,,2,,,76,35
102144,note_on,,,,,512,0,13,,,,,5,,,56,85
102144,note_on,,,,,512,0,12,,,,,4,,,71,85
102144,note_on,,,,,44,0,8,,,,,0,,,76,85
102144,note_on,,,,,0,0,12,,,,,4,,,64,85
102144,note_on,,,,,0,0,15,,,,,7,,,62,100
102144,note_on,,,,,512,0,14,,,,,6,,,44,85
102144,note_on,,,,,44,0,11,,,,,3,,,76,35
102144,note_on,,,,,44,0,9,,,,,1,,,76,35
102144,note_on,,,,,512,0,15,,,,,7,,,64,100
102228,note_off,,,,,84,0,8,,,,,0,,,76,100
102228,note_off,,,,,84,0,11,,,,,3,,,76,100
102228,note_off,,,,,84,0,9,,,,,1,,,76,100
102228,note_off,,,,,84,0,10,,,,,2,,,76,100
102272,note_on,,,,,44,0,10,,,,,2,,,78,35
102272,note_on,,,,,44,0,8,,,,,0,,,78,85
102272,note_on,,,,,44,0,11,,,,,3,,,78,35
102272,note_on,,,,,44,0,9,,,,,1,,,78,35
102356,note_off,,,,,84,0,11,,,,,3,,,78,100
102356,note_off,,,,,84,0,8,,,,,0,,,78,100
102356,note_off,,,,,84,0,10,,,,,2,,,78,100
102356,note_off,,,,,84,0,9,,,,,1,,,78,100
102400,note_on,,,,,44,0,11,,,,,3,,,74,35
102400,note_off,,,,,0,0,12,,,,,4,,,64,100
102400,note_off,,,,,256,0,12,,,,,4,,,71,100
102400,note_off,,,,,0,0,15,,,,,7,,,62,100
102400,note_off,,,,,256,0,14,,,,,6,,,44,100
102400,note_off,,,,,256,0,15,,,,,7,,,64,100
102400,note_on,,,,,44,0,8,,,,,0,,,74,85
102400,note_on,,,,,44,0,9,,,,,1,,,74,35
102400,note_off,,,,,256,0,16,,,,,7,,,56,100
102400,note_on,,,,,44,0,10,,,,,2,,,74,35
102400,note_off,,,,,256,0,13,,,,,5,,,56,100
102484,note_off,,,,,84,0,11,,,,,3,,,74,100
102484,note_off,,,,,84,0,9,,,,,1,,,74,100
102484,note_off,,,,,84,0,8,,,,,0,,,74,100
102484,note_off,,,,,84,0,10,,,,,2,,,74,100
102524,program_change,,,,,40,0,8,,,,,0,40,,,
102528,note_on,,,,,44,0,9,,,,,1,,,73,85
102528,note_on,,,,,0,0,15,,,,,7,,,61,100
102528,note_on,,,,,4,0,8,,,,,0,,,73,85
102528,note_on,,,,,128,0,14,,,,,6,,,45,85
102528,note_on,,,,,44,0,10,,,,,2,,,73,35
102528,note_on,,,,,128,0,15,,,,,7,,,69,100
102528,note_on,,,,,128,0,16,,,,,7,,,57,100
102528,note_on,,,,,128,0,13,,,,,5,,,57,85
102528,note_on,,,,,128,0,12,,,,,4,,,64,85
102528,note_on,,,,,44,0,11,,,,,3,,,73,35
102612,note_off,,,,,84,0,8,,,,,0,,,73,100
102656,note_on,,,,,44,0,8,,,,,0,,,76,85
102740,note_off,,,,,84,0,8,,,,,0,,,76,100
102784,note_off,,,,,256,0,11,,,,,3,,,73,100
102784,note_off,,,,,256,0,13,,,,,5,,,57,100
102784,note_off,,,,,256,0,12,,,,,4,,,64,100
102784,note_off,,,,,256,0,14,,,,,6,,,45,100
102784,note_off,,,,,256,0,16,,,,,7,,,57,100
102784,note_off,,,,,256,0,10,,,,,2,,,73,100
102784,note_off,,,,,0,0,15,,,,,7,,,61,100
102784,note_off,,,,,256,0,15,,,,,7,,,69,100
102784,note_off,,,,,256,0,9,,,,,1,,,73,100
102784,note_on,,,,,44,0,8,,,,,0,,,74,85
102868,note_off,,,,,84,0,8,,,,,0,,,74,100
102912,note_on,,,,,128,0,16,,,,,7,,,45,100
102912,note_on,,,,,44,0,8,,,,,0,,,73,85
102912,note_on,,,,,128,0,13,,,,,5,,,45,85
102912,note_on,,,,,128,0,14,,,,,6,,,33,85
103036,note_off,,,,,124,0,8,,,,,0,,,73,100
103040,note_on,,,,,4,0,8,,,,,0,,,71,85
103164,note_off,,,,,124,0,8,,,,,0,,,71,100
103168,note_on,,,,,4,0,8,,,,,0,,,69,85
103252,note_off,,,,,84,0,8,,,,,0,,,69,100
103296,note_on,,,,,44,0,8,,,,,0,,,67,85
103420,note_off,,,,,124,0,8,,,,,0,,,67,100
103424,note_on,,,,,4,0,8,,,,,0,,,66,85
103548,note_off,,,,,124,0,8,,,,,0,,,66,100
103552,note_on,,,,,4,0,8,,,,,0,,,67,85
103636,note_off,,,,,84,0,8,,,,,0,,,67,100
103680,note_on,,,,,44,0,8,,,,,0,,,67,85
103804,note_off,,,,,124,0,8,,,,,0,,,67,100
103808,note_on,,,,,4,0,8,,,,,0,,,76,85
103932,note_off,,,,,124,0,8,,,,,0,,,76,100
103936,note_on,,,,,4,0,8,,,,,0,,,74,85
104020,note_off,,,,,84,0,8,,,,,0,,,74,100
104064,note_on,,,,,44,0,8,,,,,0,,,73,85
104188,note_off,,,,,124,0,8,,,,,0,,,73,100
104192,note_on,,,,,4,0,8,,,,,0,,,71,85
104316,note_off,,,,,124,0,8,,,,,0,,,71,100
104320,note_on,,,,,4,0,8,,,,,0,,,69,85
104404,note_off,,,,,84,0,8,,,,,0,,,69,100
104448,note_on,,,,,44,0,8,,,,,0,,,67,85
104572,note_off,,,,,124,0,8,,,,,0,,,67,100
104576,note_on,,,,,4,0,8,,,,,0,,,66,85
104700,note_off,,,,,124,0,8,,,,,0,,,66,100
104704,note_on,,,,,4,0,8,,,,,0,,,67,85
104788,note_off,,,,,84,0,8,,,,,0,,,67,100
104832,note_on,,,,,44,0,8,,,,,0,,,67,85
104956,note_off,,,,,124,0,8,,,,,0,,,67,100
104960,note_on,,,,,4,0,8,,,,,0,,,76,85
105084,note_off,,,,,124,0,8,,,,,0,,,76,100
105088,note_on,,,,,4,0,8,,,,,0,,,74,85
105172,note_off,,,,,84,0,8,,,,,0,,,74,100
105216,note_on,,,,,44,0,8,,,,,0,,,73,85
105340,note_off,,,,,124,0,8,,,,,0,,,73,100
105344,note_on,,,,,4,0,8,,,,,0,,,71,85
105468,note_off,,,,,124,0,8,,,,,0,,,71,100
105472,note_on,,,,,4,0,8,,,,,0,,,69,85
105556,note_off,,,,,84,0,8,,,,,0,,,69,100
105600,note_on,,,,,44,0,8,,,,,0,,,79,85
105724,note_off,,,,,124,0,8,,,,,0,,,79,100
105728,note_on,,,,,4,0,8,,,,,0,,,77,85
105852,note_off,,,,,124,0,8,,,,,0,,,77,100
105856,note_on,,,,,4,0,8,,,,,0,,,76,85
105940,note_off,,,,,84,0,8,,,,,0,,,76,100
105984,note_on,,,,,44,0,8,,,,,0,,,77,85
106364,note_off,,,,,380,0,8,,,,,0,,,77,100
106496,note_on,,,,,132,0,8,,,,,0,,,76,85
106620,note_off,,,,,124,0,8,,,,,0,,,76,100
106624,note_on,,,,,4,0,8,,,,,0,,,74,86
106708,note_off,,,,,84,0,8,,,,,0,,,74,100
106752,note_on,,,,,44,0,8,,,,,0,,,75,87
106876,note_off,,,,,124,0,8,,,,,0,,,75,100
106880,note_on,,,,,4,0,8,,,,,0,,,74,88
107004,note_off,,,,,124,0,8,,,,,0,,,74,100
107008,note_on,,,,,4,0,8,,,,,0,,,73,89
107092,note_off,,,,,84,0,8,,,,,0,,,73,100
107136,note_on,,,,,44,0,8,,,,,0,,,79,90
107516,note_off,,,,,380,0,8,,,,,0,,,79,100
107648,note_on,,,,,132,0,8,,,,,0,,,77,94
107772,note_off,,,,,124,0,8,,,,,0,,,77,100
107776,note_on,,,,,4,0,8,,,,,0,,,76,95
107860,note_off,,,,,84,0,8,,,,,0,,,76,100
107904,note_on,,,,,44,0,8,,,,,0,,,81,96
108028,note_off,,,,,124,0,8,,,,,0,,,81,100
108032,note_on,,,,,4,0,8,,,,,0,,,79,97
108156,note_off,,,,,124,0,8,,,,,0,,,79,100
108160,note_on,,,,,4,0,8,,,,,0,,,77,98
108244,note_off,,,,,84,0,8,,,,,0,,,77,100
108288,note_on,,,,,44,0,8,,,,,0,,,82,99
108668,note_off,,,,,380,0,8,,,,,0,,,82,100
108800,note_on,,,,,132,0,8,,,,,0,,,81,85
108924,note_off,,,,,124,0,8,,,,,0,,,81,100
108928,note_on,,,,,4,0,8,,,,,0,,,80,85
109012,note_off,,,,,84,0,8,,,,,0,,,80,100
109056,note_on,,,,,44,0,8,,,,,0,,,81,85
109180,note_off,,,,,124,0,8,,,,,0,,,81,100
109184,note_on,,,,,4,0,8,,,,,0,,,79,85
109308,note_off,,,,,124,0,8,,,,,0,,,79,100
109312,note_on,,,,,4,0,8,,,,,0,,,78,85
109396,note_off,,,,,84,0,8,,,,,0,,,78,100
109440,note_on,,,,,44,0,8,,,,,0,,,79,85
109564,note_off,,,,,124,0,8,,,,,0,,,79,100
109568,note_on,,,,,4,0,8,,,,,0,,,77,85
109692,note_off,,,,,124,0,8,,,,,0,,,77,100
109696,note_on,,,,,4,0,8,,,,,0,,,76,85
109780,note_off,,,,,84,0,8,,,,,0,,,76,100
109824,note_on,,,,,44,0,8,,,,,0,,,77,85
109948,note_off,,,,,124,0,8,,,,,0,,,77,100
109952,note_on,,,,,4,0,8,,,,,0,,,76,85
110076,note_off,,,,,124,0,8,,,,,0,,,76,100
110080,note_on,,,,,4,0,8,,,,,0,,,74,85
110164,note_off,,,,,84,0,8,,,,,0,,,74,100
110208,note_on,,,,,44,0,8,,,,,0,,,75,85
110332,note_off,,,,,124,0,8,,,,,0,,,75,100
110336,note_on,,,,,4,0,8,,,,,0,,,74,85
110460,note_off,,,,,124,0,8,,,,,0,,,74,100
110464,note_on,,,,,4,0,8,,,,,0,,,73,85
110548,note_off,,,,,84,0,8,,,,,0,,,73,100
110592,note_on,,,,,44,0,8,,,,,0,,,74,85
110716,note_off,,,,,124,0,8,,,,,0,,,74,100
110720,note_on,,,,,4,0,8,,,,,0,,,72,85
110844,note_off,,,,,124,0,8,,,,,0,,,72,100
110848,note_on,,,,,4,0,8,,,,,0,,,71,85
110932,note_off,,,,,84,0,8,,,,,0,,,71,100
110976,note_on,,,,,44,0,8,,,,,0,,,72,85
111100,note_off,,,,,124,0,8,,,,,0,,,72,100
111104,note_on,,,,,4,0,8,,,,,0,,,70,85
111228,note_off,,,,,124,0,8,,,,,0,,,70,100
111232,note_on,,,,,4,0,8,,,,,0,,,69,85
111316,note_off,,,,,84,0,8,,,,,0,,,69,100
111360,note_on,,,,,44,0,8,,,,,0,,,70,85
111484,note_off,,,,,124,0,8,,,,,0,,,70,100
111488,note_on,,,,,4,0,8,,,,,0,,,69,85
111612,note_off,,,,,124,0,8,,,,,0,,,69,100
111616,note_on,,,,,4,0,8,,,,,0,,,67,85
111700,note_off,,,,,84,0,8,,,,,0,,,67,100
111744,note_on,,,,,44,0,8,,,,,0,,,69,85
111868,note_off,,,,,124,0,8,,,,,0,,,69,100
111872,note_on,,,,,4,0,8,,,,,0,,,67,85
111996,note_off,,,,,124,0,8,,,,,0,,,67,100
112000,note_on,,,,,4,0,8,,,,,0,,,65,85
112084,note_off,,,,,84,0,8,,,,,0,,,65,100
112128,note_on,,,,,44,0,8,,,,,0,,,67,85
112252,note_off,,,,,124,0,8,,,,,0,,,67,100
112256,note_on,,,,,4,0,8,,,,,0,,,65,85
112380,note_off,,,,,124,0,8,,,,,0,,,65,100
112384,note_on,,,,,4,0,8,,,,,0,,,64,85
112468,note_off,,,,,84,0,8,,,,,0,,,64,100
112512,note_on,,,,,44,0,8,,,,,0,,,65,85
112636,note_off,,,,,124,0,8,,,,,0,,,65,100
112640,note_on,,,,,4,0,8,,,,,0,,,64,85
112764,note_off,,,,,124,0,8,,,,,0,,,64,100
112768,note_on,,,,,4,0,8,,,,,0,,,62,85
112852,note_off,,,,,84,0,8,,,,,0,,,62,100
112896,note_on,,,,,44,0,8,,,,,0,,,57,85
112980,program_change,,,,,84,0,8,,,,,0,48,,,
112980,program_change,,,,,10196,0,11,,,,,3,48,,,
113088,note_off,,,,,10176,0,14,,,,,6,,,33,100
113152,note_on,,,,,172,0,11,,,,,3,,,76,35
113152,note_off,,,,,10240,0,13,,,,,5,,,45,100
113152,note_on,,,,,10368,0,9,,,,,1,,,76,35
113152,note_off,,,,,10240,0,16,,,,,7,,,45,100
113152,note_on,,,,,0,0,8,,,,,0,,,76,85
113152,note_off,,,,,172,0,8,,,,,0,,,57,100
113152,note_on,,,,,10368,0,10,,,,,2,,,76,35
113236,note_off,,,,,84,0,8,,,,,0,,,76,100
113236,note_off,,,,,84,0,11,,,,,3,,,76,100
113236,note_off,,,,,84,0,9,,,,,1,,,76,100
113236,note_off,,,,,84,0,10,,,,,2,,,76,100
113280,note_on,,,,,44,0,9,,,,,1,,,81,35
113280,note_on,,,,,44,0,8,,,,,0,,,81,85
113280,note_on,,,,,44,0,11,,,,,3,,,81,35
113280,note_on,,,,,44,0,10,,,,,2,,,81,35
113364,note_off,,,,,84,0,8,,,,,0,,,81,100
113364,note_off,,,,,84,0,10,,,,,2,,,81,100
113364,note_off,,,,,84,0,11,,,,,3,,,81,100
113364,note_off,,,,,84,0,9,,,,,1,,,81,100
113408,note_on,,,,,44,0,10,,,,,2,,,76,35
113408,note_on,,,,,44,0,11,,,,,3,,,76,35
113408,note_on,,,,,44,0,9,,,,,1,,,76,35
113408,note_on,,,,,44,0,8,,,,,0,,,76,85
113492,note_off,,,,,84,0,11,,,,,3,,,76,100
113492,note_off,,,,,84,0,10,,,,,2,,,76,100
113492,note_off,,,,,84,0,9,,,,,1,,,76,100
113492,note_off,,,,,84,0,8,,,,,0,,,76,100
113536,note_on,,,,,44,0,11,,,,,3,,,74,35
113536,note_on,,,,,44,0,10,,,,,2,,,74,35
113536,note_on,,,,,44,0,9,,,,,1,,,74,35
113536,note_on,,,,,44,0,8,,,,,0,,,74,85
113620,note_off,,,,,84,0,8,,,,,0,,,74,100
113620,note_off,,,,,84,0,11,,,,,3,,,74,100
113620,note_off,,,,,84,0,9,,,,,1,,,74,100
113620,note_off,,,,,84,0,10,,,,,2,,,74,100
113664,note_on,,,,,44,0,8,,,,,0,,,73,85
113664,note_on,,,,,44,0,11,,,,,3,,,73,35
113664,note_on,,,,,44,0,10,,,,,2,,,73,35
113664,note_on,,,,,44,0,9,,,,,1,,,73,35
113748,note_off,,,,,84,0,11,,,,,3,,,73,100
113748,note_off,,,,,84,0,9,,,,,1,,,73,100
113748,note_off,,,,,84,0,8,,,,,0,,,73,100
113748,note_off,,,,,84,0,10,,,,,2,,,73,100
113792,note_on,,,,,44,0,9,,,,,1,,,74,35
113792,note_on,,,,,44,0,8,,,,,0,,,74,85
113792,note_on,,,,,44,0,11,,,,,3,,,74,35
113792,note_on,,,,,44,0,10,,,,,2,,,74,35
113876,note_off,,,,,84,0,11,,,,,3,,,74,100
113876,note_off,,,,,84,0,9,,,,,1,,,74,100
113876,note_off,,,,,84,0,8,,,,,0,,,74,100
113876,note_off,,,,,84,0,10,,,,,2,,,74,100
113920,note_on,,,,,44,0,9,,,,,1,,,76,35
113920,note_on,,,,,44,0,8,,,,,0,,,76,85
113920,note_on,,,,,44,0,11,,,,,3,,,76,35
113920,note_on,,,,,44,0,10,,,,,2,,,76,35
114004,note_off,,,,,84,0,8,,,,,0,,,76,100
114004,note_off,,,,,84,0,11,,,,,3,,,76,100
114004,note_off,,,,,84,0,9,,,,,1,,,76,100
114004,note_off,,,,,84,0,10,,,,,2,,,76,100
114048,note_on,,,,,44,0,10,,,,,2,,,73,35
114048,note_on,,,,,11264,0,15,,,,,7,,,64,100
114048,note_on,,,,,0,0,15,,,,,7,,,73,100
114048,note_on,,,,,960,0,14,,,,,6,,,45,60
114048,note_on,,,,,44,0,11,,,,,3,,,73,35
114048,note_on,,,,,896,0,13,,,,,5,,,57,60
114048,note_on,,,,,896,0,16,,,,,7,,,57,100
114048,note_on,,,,,11264,0,12,,,,,4,,,64,60
114048,note_on,,,,,0,0,12,,,,,4,,,73,60
114048,note_on,,,,,44,0,9,,,,,1,,,73,35
114048,note_on,,,,,44,0,8,,,,,0,,,73,85
114132,note_off,,,,,84,0,11,,,,,3,,,73,100
114132,note_off,,,,,84,0,9,,,,,1,,,73,100
114132,note_off,,,,,84,0,10,,,,,2,,,73,100
114132,note_off,,,,,84,0,8,,,,,0,,,73,100
114176,note_on,,,,,44,0,9,,,,,1,,,69,10
114176,note_on,,,,,44,0,11,,,,,3,,,69,10
114176,note_on,,,,,44,0,8,,,,,0,,,69,60
114176,note_on,,,,,44,0,10,,,,,2,,,69,10
114260,note_off,,,,,84,0,8,,,,,0,,,69,100
114260,note_off,,,,,84,0,11,,,,,3,,,69,100
114260,note_off,,,,,84,0,9,,,,,1,,,69,100
114260,note_off,,,,,84,0,10,,,,,2,,,69,100
114304,note_off,,,,,256,0,16,,,,,7,,,57,100
114304,note_off,,,,,256,0,14,,,,,6,,,45,100
114304,note_on,,,,,44,0,8,,,,,0,,,71,60
114304,note_off,,,,,256,0,13,,,,,5,,,57,100
114304,note_off,,,,,256,0,12,,,,,4,,,73,100
114304,note_on,,,,,44,0,10,,,,,2,,,71,10
114304,note_off,,,,,256,0,15,,,,,7,,,64,100
114304,note_off,,,,,0,0,15,,,,,7,,,73,100
114304,note_on,,,,,44,0,9,,,,,1,,,71,10
114304,note_on,,,,,44,0,11,,,,,3,,,71,10
114388,note_off,,,,,84,0,9,,,,,1,,,71,100
114388,note_off,,,,,84,0,8,,,,,0,,,71,100
114388,note_off,,,,,84,0,11,,,,,3,,,71,100
114388,note_off,,,,,84,0,10,,,,,2,,,71,100
114432,note_on,,,,,128,0,15,,,,,7,,,61,100
114432,note_on,,,,,128,0,14,,,,,6,,,33,60
114432,note_on,,,,,0,0,15,,,,,7,,,64,100
114432,note_on,,,,,128,0,16,,,,,7,,,45,100
114432,note_on,,,,,44,0,11,,,,,3,,,73,10
114432,note_on,,,,,44,0,10,,,,,2,,,73,10
114432,note_on,,,,,128,0,13,,,,,5,,,45,60
114432,note_on,,,,,44,0,9,,,,,1,,,73,10
114432,note_on,,,,,44,0,8,,,,,0,,,73,60
114432,note_on,,,,,128,0,12,,,,,4,,,69,60
114516,note_off,,,,,84,0,9,,,,,1,,,73,100
114516,note_off,,,,,84,0,11,,,,,3,,,73,100
114516,note_off,,,,,84,0,10,,,,,2,,,73,100
114516,note_off,,,,,84,0,8,,,,,0,,,73,100
114560,note_on,,,,,44,0,11,,,,,3,,,74,10
114560,note_on,,,,,44,0,10,,,,,2,,,74,10
114560,note_on,,,,,44,0,9,,,,,1,,,74,10
114560,note_on,,,,,44,0,8,,,,,0,,,74,60
114560,note_off,,,,,128,0,12,,,,,4,,,64,100
114644,note_off,,,,,84,0,10,,,,,2,,,74,100
114644,note_off,,,,,84,0,9,,,,,1,,,74,100
114644,note_off,,,,,84,0,11,,,,,3,,,74,100
114644,note_off,,,,,84,0,8,,,,,0,,,74,100
114688,note_on,,,,,44,0,10,,,,,2,,,76,10
114688,note_on,,,,,44,0,11,,,,,3,,,76,10
114688,note_on,,,,,44,0,9,,,,,1,,,76,10
114688,note_off,,,,,256,0,14,,,,,6,,,33,100
114688,note_on,,,,,44,0,8,,,,,0,,,76,60
114688,note_off,,,,,0,0,15,,,,,7,,,64,100
114688,note_off,,,,,256,0,15,,,,,7,,,61,100
114688,note_off,,,,,256,0,13,,,,,5,,,45,100
114688,note_off,,,,,256,0,16,,,,,7,,,45,100
114688,note_off,,,,,128,0,12,,,,,4,,,69,100
114772,note_off,,,,,84,0,8,,,,,0,,,76,100
114772,note_off,,,,,84,0,10,,,,,2,,,76,100
114772,note_off,,,,,84,0,9,,,,,1,,,76,100
114772,note_off,,,,,84,0,11,,,,,3,,,76,100
114816,note_on,,,,,44,0,10,,,,,2,,,78,10
114816,note_on,,,,,44,0,8,,,,,0,,,78,60
114816,note_on,,,,,44,0,11,,,,,3,,,78,10
114816,note_on,,,,,44,0,9,,,,,1,,,78,10
114900,note_off,,,,,84,0,8,,,,,0,,,78,100
114900,note_off,,,,,84,0,9,,,,,1,,,78,100
114900,note_off,,,,,84,0,11,,,,,3,,,78,100
114900,note_off,,,,,84,0,10,,,,,2,,,78,100
114944,note_on,,,,,44,0,8,,,,,0,,,79,60
114944,note_on,,,,,44,0,9,,,,,1,,,79,10
114944,note_on,,,,,44,0,11,,,,,3,,,79,10
114944,note_on,,,,,44,0,10,,,,,2,,,79,10
115028,note_off,,,,,84,0,10,,,,,2,,,79,100
115028,note_off,,,,,84,0,8,,,,,0,,,79,100
115028,note_off,,,,,84,0,11,,,,,3,,,79,100
115028,note_off,,,,,84,0,9,,,,,1,,,79,100
115072,note_on,,,,,44,0,8,,,,,0,,,81,60
115072,note_on,,,,,44,0,11,,,,,3,,,81,10
115072,note_on,,,,,44,0,9,,,,,1,,,81,10
115072,note_on,,,,,44,0,10,,,,,2,,,81,10
115156,note_off,,,,,84,0,8,,,,,0,,,81,100
115156,note_off,,,,,84,0,10,,,,,2,,,81,100
115156,note_off,,,,,84,0,11,,,,,3,,,81,100
115156,note_off,,,,,84,0,9,,,,,1,,,81,100
115200,note_on,,,,,44,0,11,,,,,3,,,76,10
115200,note_on,,,,,512,0,15,,,,,7,,,64,100
115200,note_on,,,,,512,0,13,,,,,5,,,57,100
115200,note_on,,,,,512,0,12,,,,,4,,,64,100
115200,note_on,,,,,0,0,12,,,,,4,,,73,100
115200,note_on,,,,,44,0,10,,,,,2,,,76,10
115200,note_on,,,,,512,0,16,,,,,7,,,57,100
115200,note_on,,,,,512,0,14,,,,,6,,,45,100
115200,note_on,,,,,44,0,9,,,,,1,,,76,10
115200,note_on,,,,,0,0,15,,,,,7,,,73,100
115200,note_on,,,,,44,0,8,,,,,0,,,76,60
115284,note_off,,,,,84,0,10,,,,,2,,,76,100
115284,note_off,,,,,84,0,8,,,,,0,,,76,100
115284,note_off,,,,,84,0,9,,,,,1,,,76,100
115284,note_off,,,,,84,0,11,,,,,3,,,76,100
115328,note_on,,,,,44,0,10,,,,,2,,,69,50
115328,note_on,,,,,44,0,8,,,,,0,,,69,100
115328,note_on,,,,,44,0,9,,,,,1,,,69,50
115328,note_on,,,,,44,0,11,,,,,3,,,69,50
115412,note_off,,,,,84,0,10,,,,,2,,,69,100
115412,note_off,,,,,84,0,11,,,,,3,,,69,100
115412,note_off,,,,,84,0,9,,,,,1,,,69,100
115412,note_off,,,,,84,0,8,,,,,0,,,69,100
115456,note_off,,,,,256,0,12,,,,,4,,,73,100
115456,note_on,,,,,44,0,10,,,,,2,,,71,50
115456,note_off,,,,,256,0,14,,,,,6,,,45,100
115456,note_off,,,,,256,0,15,,,,,7,,,64,100
115456,note_off,,,,,0,0,15,,,,,7,,,73,100
115456,note_on,,,,,44,0,8,,,,,0,,,71,100
115456,note_off,,,,,256,0,13,,,,,5,,,57,100
115456,note_off,,,,,256,0,16,,,,,7,,,57,100
115456,note_on,,,,,44,0,11,,,,,3,,,71,50
115456,note_on,,,,,44,0,9,,,,,1,,,71,50
115540,note_off,,,,,84,0,11,,,,,3,,,71,100
115540,note_off,,,,,84,0,8,,,,,0,,,71,100
115540,note_off,,,,,84,0,9,,,,,1,,,71,100
115540,note_off,,,,,84,0,10,,,,,2,,,71,100
115584,note_on,,,,,0,0,15,,,,,7,,,64,100
115584,note_on,,,,,128,0,15,,,,,7,,,61,100
115584,note_on,,,,,128,0,16,,,,,7,,,45,100
115584,note_on,,,,,44,0,8,,,,,0,,,73,100
115584,note_on,,,,,128,0,14,,,,,6,,,33,100
115584,note_on,,,,,44,0,9,,,,,1,,,73,50
115584,note_on,,,,,128,0,13,,,,,5,,,45,100
115584,note_on,,,,,44,0,10,,,,,2,,,73,50
115584,note_on,,,,,128,0,12,,,,,4,,,69,100
115584,note_on,,,,,44,0,11,,,,,3,,,73,50
115668,note_off,,,,,84,0,11,,,,,3,,,73,100
115668,note_off,,,,,84,0,10,,,,,2,,,73,100
115668,note_off,,,,,84,0,8,,,,,0,,,73,100
115668,note_off,,,,,84,0,9,,,,,1,,,73,100
115712,note_on,,,,,44,0,11,,,,,3,,,74,50
115712,note_on,,,,,44,0,8,,,,,0,,,74,100
115712,note_off,,,,,128,0,12,,,,,4,,,64,100
115712,note_on,,,,,44,0,10,,,,,2,,,74,50
115712,note_on,,,,,44,0,9,,,,,1,,,74,50
115796,note_off,,,,,84,0,11,,,,,3,,,74,100
115796,note_off,,,,,84,0,10,,,,,2,,,74,100
115796,note_off,,,,,84,0,8,,,,,0,,,74,100
115796,note_off,,,,,84,0,9,,,,,1,,,74,100
115840,note_off,,,,,256,0,13,,,,,5,,,45,100
115840,note_on,,,,,44,0,11,,,,,3,,,76,50
115840,note_off,,,,,256,0,15,,,,,7,,,61,100
115840,note_off,,,,,0,0,15,,,,,7,,,64,100
115840,note_on,,,,,44,0,10,,,,,2,,,76,50
115840,note_on,,,,,44,0,9,,,,,1,,,76,50
115840,note_on,,,,,44,0,8,,,,,0,,,76,100
115840,note_off,,,,,128,0,12,,,,,4,,,69,100
115840,note_off,,,,,256,0,14,,,,,6,,,33,100
115840,note_off,,,,,256,0,16,,,,,7,,,45,100
115924,note_off,,,,,84,0,9,,,,,1,,,76,100
115924,note_off,,,,,84,0,8,,,,,0,,,76,100
115924,note_off,,,,,84,0,10,,,,,2,,,76,100
115924,note_off,,,,,84,0,11,,,,,3,,,76,100
115968,note_on,,,,,44,0,9,,,,,1,,,78,50
115968,note_on,,,,,44,0,8,,,,,0,,,78,100
115968,note_on,,,,,44,0,11,,,,,3,,,78,50
115968,note_on,,,,,44,0,10,,,,,2,,,78,50
116052,note_off,,,,,84,0,10,,,,,2,,,78,100
116052,note_off,,,,,84,0,9,,,,,1,,,78,100
116052,note_off,,,,,84,0,8,,,,,0,,,78,100
116052,note_off,,,,,84,0,11,,,,,3,,,78,100
116096,note_on,,,,,44,0,9,,,,,1,,,79,50
116096,note_on,,,,,44,0,10,,,,,2,,,79,50
116096,note_on,,,,,44,0,8,,,,,0,,,79,100
116096,note_on,,,,,44,0,11,,,,,3,,,79,50
116180,note_off,,,,,84,0,9,,,,,1,,,79,100
116180,note_off,,,,,84,0,10,,,,,2,,,79,100
116180,note_off,,,,,84,0,8,,,,,0,,,79,100
116180,note_off,,,,,84,0,11,,,,,3,,,79,100
116224,note_on,,,,,44,0,11,,,,,3,,,81,50
116224,note_on,,,,,44,0,10,,,,,2,,,81,50
116224,note_on,,,,,44,0,9,,,,,1,,,81,50
116224,note_on,,,,,44,0,8,,,,,0,,,81,100
116308,note_off,,,,,84,0,10,,,,,2,,,81,100
116308,note_off,,,,,84,0,8,,,,,0,,,81,100
116308,note_off,,,,,84,0,9,,,,,1,,,81,100
116308,note_off,,,,,84,0,11,,,,,3,,,81,100
116352,note_on,,,,,44,0,9,,,,,1,,,78,60
116352,note_on,,,,,0,0,12,,,,,4,,,69,110
116352,note_on,,,,,512,0,12,,,,,4,,,57,110
116352,note_on,,,,,512,0,14,,,,,6,,,38,110
116352,note_on,,,,,44,0,8,,,,,0,,,78,110
116352,note_on,,,,,44,0,10,,,,,2,,,78,60
116352,note_on,,,,,512,0,15,,,,,7,,,62,100
116352,note_on,,,,,512,0,13,,,,,5,,,50,110
116352,note_on,,,,,512,0,16,,,,,7,,,50,100
116352,note_on,,,,,44,0,11,,,,,3,,,78,60
116416,note_off,,,,,64,0,15,,,,,7,,,62,100
116416,note_off,,,,,64,0,16,,,,,7,,,50,100
116416,note_off,,,,,64,0,13,,,,,5,,,50,100
116416,note_off,,,,,64,0,14,,,,,6,,,38,100
116436,note_off,,,,,84,0,11,,,,,3,,,78,100
116436,note_off,,,,,84,0,10,,,,,2,,,78,100
116436,note_off,,,,,84,0,8,,,,,0,,,78,100
116436,note_off,,,,,84,0,9,,,,,1,,,78,100
116448,note_on,,,,,32,0,13,,,,,5,,,52,110
116448,note_on,,,,,32,0,15,,,,,7,,,64,100
116448,note_on,,,,,32,0,14,,,,,6,,,40,110
116448,note_on,,,,,32,0,16,,,,,7,,,52,100
116480,note_on,,,,,44,0,11,,,,,3,,,76,60
116480,note_on,,,,,44,0,8,,,,,0,,,76,110
116480,note_on,,,,,44,0,9,,,,,1,,,76,60
116480,note_on,,,,,44,0,10,,,,,2,,,76,60
116480,note_off,,,,,128,0,12,,,,,4,,,69,100
116512,note_off,,,,,64,0,15,,,,,7,,,64,100
116512,note_off,,,,,64,0,16,,,,,7,,,52,100
116512,note_off,,,,,64,0,14,,,,,6,,,40,100
116512,note_off,,,,,64,0,13,,,,,5,,,52,100
116544,note_on,,,,,32,0,15,,,,,7,,,66,100
116544,note_on,,,,,64,0,12,,,,,4,,,66,110
116544,note_on,,,,,32,0,16,,,,,7,,,54,100
116544,note_on,,,,,32,0,13,,,,,5,,,54,110
116544,note_on,,,,,32,0,14,,,,,6,,,42,110
116564,note_off,,,,,84,0,9,,,,,1,,,76,100
116564,note_off,,,,,84,0,10,,,,,2,,,76,100
116564,note_off,,,,,84,0,8,,,,,0,,,76,100
116564,note_off,,,,,84,0,11,,,,,3,,,76,100
116608,note_off,,,,,64,0,15,,,,,7,,,66,100
116608,note_off,,,,,64,0,13,,,,,5,,,54,100
116608,note_on,,,,,44,0,9,,,,,1,,,74,60
116608,note_on,,,,,44,0,8,,,,,0,,,74,110
116608,note_off,,,,,64,0,14,,,,,6,,,42,100
116608,note_on,,,,,44,0,10,,,,,2,,,74,60
116608,note_off,,,,,64,0,16,,,,,7,,,54,100
116608,note_off,,,,,64,0,12,,,,,4,,,57,100
116608,note_on,,,,,44,0,11,,,,,3,,,74,60
116640,note_on,,,,,32,0,15,,,,,7,,,67,100
116640,note_on,,,,,32,0,14,,,,,6,,,43,110
116640,note_on,,,,,32,0,16,,,,,7,,,55,100
116640,note_on,,,,,32,0,13,,,,,5,,,55,110
116672,note_off,,,,,64,0,12,,,,,4,,,66,100
116692,note_off,,,,,84,0,8,,,,,0,,,74,100
116692,note_off,,,,,84,0,11,,,,,3,,,74,100
116692,note_off,,,,,84,0,10,,,,,2,,,74,100
116692,note_off,,,,,84,0,9,,,,,1,,,74,100
116704,note_off,,,,,64,0,15,,,,,7,,,67,100
116704,note_off,,,,,64,0,16,,,,,7,,,55,100
116704,note_off,,,,,64,0,13,,,,,5,,,55,100
116704,note_off,,,,,64,0,14,,,,,6,,,43,100
116736,note_on,,,,,44,0,10,,,,,2,,,73,60
116736,note_on,,,,,0,0,15,,,,,7,,,73,100
116736,note_on,,,,,32,0,14,,,,,6,,,45,110
116736,note_on,,,,,32,0,16,,,,,7,,,57,100
116736,note_on,,,,,32,0,13,,,,,5,,,57,110
116736,note_on,,,,,32,0,15,,,,,7,,,69,100
116736,note_on,,,,,44,0,8,,,,,0,,,73,110
116736,note_on,,,,,0,0,12,,,,,4,,,64,110
116736,note_on,,,,,64,0,12,,,,,4,,,57,110
116736,note_on,,,,,44,0,11,,,,,3,,,73,60
116736,note_on,,,,,44,0,9,,,,,1,,,73,60
116820,note_off,,,,,84,0,11,,,,,3,,,73,100
116820,note_off,,,,,84,0,10,,,,,2,,,73,100
116820,note_off,,,,,84,0,8,,,,,0,,,73,100
116820,note_off,,,,,84,0,9,,,,,1,,,73,100
116864,note_on,,,,,44,0,9,,,,,1,,,69,60
116864,note_on,,,,,44,0,10,,,,,2,,,69,60
116864,note_on,,,,,44,0,11,,,,,3,,,69,60
116864,note_off,,,,,128,0,16,,,,,7,,,57,100
116864,note_off,,,,,128,0,14,,,,,6,,,45,100
116864,note_off,,,,,128,0,13,,,,,5,,,57,100
116864,note_on,,,,,44,0,8,,,,,0,,,69,110
116864,note_off,,,,,0,0,15,,,,,7,,,73,100
116864,note_off,,,,,128,0,12,,,,,4,,,64,100
116864,note_off,,,,,128,0,15,,,,,7,,,69,100
116928,note_on,,,,,64,0,12,,,,,4,,,66,110
116928,note_on,,,,,64,0,15,,,,,7,,,74,100
116928,note_on,,,,,64,0,16,,,,,7,,,54,100
116928,note_on,,,,,64,0,14,,,,,6,,,42,110
116928,note_on,,,,,0,0,15,,,,,7,,,69,100
116928,note_on,,,,,64,0,13,,,,,5,,,54,110
116948,note_off,,,,,84,0,9,,,,,1,,,69,100
116948,note_off,,,,,84,0,8,,,,,0,,,69,100
116948,note_off,,,,,84,0,10,,,,,2,,,69,100
116948,note_off,,,,,84,0,11,,,,,3,,,69,100
116992,note_on,,,,,44,0,8,,,,,0,,,74,110
116992,note_on,,,,,44,0,11,,,,,3,,,74,60
116992,note_on,,,,,44,0,10,,,,,2,,,74,60
116992,note_on,,,,,44,0,9,,,,,1,,,74,60
116992,note_off,,,,,64,0,12,,,,,4,,,57,100
117056,note_off,,,,,128,0,14,,,,,6,,,42,100
117056,note_off,,,,,128,0,13,,,,,5,,,54,100
117056,note_off,,,,,64,0,12,,,,,4,,,66,100
117056,note_off,,,,,128,0,16,,,,,7,,,54,100
117056,note_off,,,,,0,0,15,,,,,7,,,69,100
117056,note_off,,,,,128,0,15,,,,,7,,,74,100
117076,note_off,,,,,84,0,10,,,,,2,,,74,100
117076,note_off,,,,,84,0,8,,,,,0,,,74,100
117076,note_off,,,,,84,0,11,,,,,3,,,74,100
117076,note_off,,,,,84,0,9,,,,,1,,,74,100
117120,note_on,,,,,44,0,11,,,,,3,,,64,60
117120,note_on,,,,,64,0,14,,,,,6,,,43,110
117120,note_on,,,,,44,0,8,,,,,0,,,64,110
117120,note_on,,,,,64,0,13,,,,,5,,,55,110
117120,note_on,,,,,0,0,15,,,,,7,,,74,100
117120,note_on,,,,,44,0,10,,,,,2,,,64,60
117120,note_on,,,,,64,0,15,,,,,7,,,64,100
117120,note_on,,,,,64,0,16,,,,,7,,,55,100
117120,note_on,,,,,44,0,9,,,,,1,,,64,60
117120,note_on,,,,,64,0,12,,,,,4,,,64,110
117120,note_on,,,,,0,0,12,,,,,4,,,59,110
117204,note_off,,,,,84,0,9,,,,,1,,,64,100
117204,note_off,,,,,84,0,10,,,,,2,,,64,100
117204,note_off,,,,,84,0,8,,,,,0,,,64,100
117204,note_off,,,,,84,0,11,,,,,3,,,64,100
117248,note_on,,,,,44,0,8,,,,,0,,,74,110
117248,note_on,,,,,44,0,11,,,,,3,,,74,60
117248,note_off,,,,,128,0,14,,,,,6,,,43,100
117248,note_on,,,,,44,0,10,,,,,2,,,74,60
117248,note_off,,,,,0,0,12,,,,,4,,,59,100
117248,note_off,,,,,128,0,15,,,,,7,,,64,100
117248,note_off,,,,,0,0,15,,,,,7,,,74,100
117248,note_off,,,,,128,0,16,,,,,7,,,55,100
117248,note_off,,,,,128,0,13,,,,,5,,,55,100
117248,note_on,,,,,44,0,9,,,,,1,,,74,60
117248,note_off,,,,,128,0,12,,,,,4,,,64,100
117312,note_on,,,,,64,0,15,,,,,7,,,64,100
117312,note_on,,,,,0,0,15,,,,,7,,,73,100
117312,note_on,,,,,64,0,13,,,,,5,,,57,110
117312,note_on,,,,,0,0,12,,,,,4,,,57,110
117312,note_on,,,,,64,0,14,,,,,6,,,45,110
117312,note_on,,,,,64,0,16,,,,,7,,,57,100
117312,note_on,,,,,64,0,12,,,,,4,,,69,110
117332,note_off,,,,,84,0,8,,,,,0,,,74,100
117332,note_off,,,,,84,0,10,,,,,2,,,74,100
117332,note_off,,,,,84,0,9,,,,,1,,,74,100
117332,note_off,,,,,84,0,11,,,,,3,,,74,100
117376,note_on,,,,,44,0,8,,,,,0,,,73,110
117376,note_on,,,,,44,0,11,,,,,3,,,73,60
117376,note_on,,,,,44,0,9,,,,,1,,,73,60
117376,note_on,,,,,44,0,10,,,,,2,,,73,60
117440,note_off,,,,,128,0,16,,,,,7,,,57,100
117440,note_off,,,,,128,0,13,,,,,5,,,57,100
117440,note_off,,,,,128,0,14,,,,,6,,,45,100
117440,note_off,,,,,128,0,15,,,,,7,,,64,100
117440,note_off,,,,,0,0,15,,,,,7,,,73,100
117440,note_off,,,,,128,0,12,,,,,4,,,69,100
117440,note_off,,,,,0,0,12,,,,,4,,,57,100
117460,note_off,,,,,84,0,11,,,,,3,,,73,100
117460,note_off,,,,,84,0,9,,,,,1,,,73,100
117460,note_off,,,,,84,0,8,,,,,0,,,73,100
117460,note_off,,,,,84,0,10,,,,,2,,,73,100
117504,note_on,,,,,64,0,13,,,,,5,,,50,110
117504,note_on,,,,,44,0,9,,,,,1,,,74,60
117504,note_on,,,,,64,0,15,,,,,7,,,66,100
117504,note_on,,,,,64,0,16,,,,,7,,,50,100
117504,set_tempo,,,,,117504,1,0,,500000,,,,,,,
117504,note_on,,,,,44,0,11,,,,,3,,,74,60
117504,note_on,,,,,44,0,10,,,,,2,,,74,60
117504,note_on,,,,,0,0,15,,,,,7,,,74,100
117504,note_on,,,,,64,0,14,,,,,6,,,38,110
117504,note_on,,,,,0,0,12,,,,,4,,,66,110
117504,note_on,,,,,64,0,12,,,,,4,,,57,110
117504,note_on,,,,,44,0,8,,,,,0,,,74,110
117560,set_tempo,,,,,56,1,0,,504201,,,,,,,
117588,note_off,,,,,84,0,8,,,,,0,,,74,100
117588,note_off,,,,,84,0,16,,,,,7,,,50,100
117588,note_off,,,,,84,0,14,,,,,6,,,38,100
117588,note_off,,,,,0,0,12,,,,,4,,,66,100
117588,note_off,,,,,84,0,12,,,,,4,,,57,100
117588,note_off,,,,,84,0,9,,,,,1,,,74,100
117588,note_off,,,,,84,0,13,,,,,5,,,50,100
117588,note_off,,,,,84,0,11,,,,,3,,,74,100
117588,note_off,,,,,84,0,10,,,,,2,,,74,100
117588,note_off,,,,,84,0,15,,,,,7,,,66,100
117588,note_off,,,,,0,0,15,,,,,7,,,74,100
117616,set_tempo,,,,,56,1,0,,508474,,,,,,,
117632,note_on,,,,,44,0,14,,,,,6,,,38,110
117632,note_on,,,,,44,0,13,,,,,5,,,50,110
117632,note_on,,,,,44,0,15,,,,,7,,,66,100
117632,note_on,,,,,44,0,8,,,,,0,,,62,110
117632,note_on,,,,,44,0,12,,,,,4,,,62,110
117632,note_on,,,,,44,0,10,,,,,2,,,62,60
117632,note_on,,,,,44,0,9,,,,,1,,,62,60
117632,note_on,,,,,44,0,11,,,,,3,,,62,60
117632,note_on,,,,,44,0,16,,,,,7,,,50,100
117676,set_tempo,,,,,60,1,0,,512820,,,,,,,
117716,note_off,,,,,84,0,10,,,,,2,,,62,100
117716,note_off,,,,,84,0,14,,,,,6,,,38,100
117716,note_off,,,,,84,0,13,,,,,5,,,50,100
117716,note_off,,,,,84,0,12,,,,,4,,,62,100
117716,note_off,,,,,84,0,9,,,,,1,,,62,100
117716,note_off,,,,,84,0,8,,,,,0,,,62,100
117716,note_off,,,,,84,0,16,,,,,7,,,50,100
117716,note_off,,,,,84,0,11,,,,,3,,,62,100
117716,note_off,,,,,84,0,15,,,,,7,,,66,100
117732,set_tempo,,,,,56,1,0,,517241,,,,,,,
117760,note_on,,,,,44,0,12,,,,,4,,,64,110
117760,note_on,,,,,44,0,11,,,,,3,,,64,60
117760,note_on,,,,,44,0,9,,,,,1,,,64,60
117760,note_on,,,,,44,0,14,,,,,6,,,40,110
117760,note_on,,,,,44,0,8,,,,,0,,,64,110
117760,note_on,,,,,44,0,16,,,,,7,,,52,100
117760,note_on,,,,,44,0,15,,,,,7,,,67,100
117760,note_on,,,,,44,0,10,,,,,2,,,64,60
117760,note_on,,,,,44,0,13,,,,,5,,,52,110
117792,set_tempo,,,,,60,1,0,,521739,,,,,,,
117844,note_off,,,,,84,0,11,,,,,3,,,64,100
117844,note_off,,,,,84,0,15,,,,,7,,,67,100
117844,note_off,,,,,84,0,16,,,,,7,,,52,100
117844,note_off,,,,,84,0,9,,,,,1,,,64,100
117844,note_off,,,,,84,0,13,,,,,5,,,52,100
117844,note_off,,,,,84,0,14,,,,,6,,,40,100
117844,note_off,,,,,84,0,8,,,,,0,,,64,100
117844,note_off,,,,,84,0,12,,,,,4,,,64,100
117844,note_off,,,,,84,0,10,,,,,2,,,64,100
117848,set_tempo,,,,,56,1,0,,526315,,,,,,,
117888,note_on,,,,,44,0,12,,,,,4,,,66,110
117888,note_on,,,,,44,0,16,,,,,7,,,54,100
117888,note_on,,,,,44,0,9,,,,,1,,,66,60
117888,note_on,,,,,44,0,8,,,,,0,,,66,110
117888,note_on,,,,,44,0,10,,,,,2,,,66,60
117888,note_on,,,,,44,0,15,,,,,7,,,73,100
117888,note_on,,,,,0,0,15,,,,,7,,,69,100
117888,note_on,,,,,44,0,13,,,,,5,,,54,110
117888,note_on,,,,,44,0,14,,,,,6,,,42,110
117888,note_on,,,,,44,0,11,,,,,3,,,66,60
117904,set_tempo,,,,,56,1,0,,530973,,,,,,,
117964,set_tempo,,,,,60,1,0,,535714,,,,,,,
117972,note_off,,,,,84,0,10,,,,,2,,,66,100
117972,note_off,,,,,84,0,12,,,,,4,,,66,100
117972,note_off,,,,,0,0,15,,,,,7,,,69,100
117972,note_off,,,,,84,0,11,,,,,3,,,66,100
117972,note_off,,,,,84,0,13,,,,,5,,,54,100
117972,note_off,,,,,84,0,16,,,,,7,,,54,100
117972,note_off,,,,,84,0,9,,,,,1,,,66,100
117972,note_off,,,,,84,0,8,,,,,0,,,66,100
117972,note_off,,,,,84,0,15,,,,,7,,,73,100
117972,note_off,,,,,84,0,14,,,,,6,,,42,100
118016,note_on,,,,,44,0,15,,,,,7,,,67,100
118016,note_on,,,,,44,0,10,,,,,2,,,64,60
118016,note_on,,,,,44,0,8,,,,,0,,,64,110
118016,note_on,,,,,44,0,16,,,,,7,,,52,100
118016,note_on,,,,,44,0,11,,,,,3,,,64,60
118016,note_on,,,,,44,0,13,,,,,5,,,52,110
118016,note_on,,,,,44,0,14,,,,,6,,,40,110
118016,note_on,,,,,44,0,12,,,,,4,,,64,110
118016,note_on,,,,,44,0,9,,,,,1,,,64,60
118020,set_tempo,,,,,56,1,0,,540540,,,,,,,
118080,set_tempo,,,,,60,1,0,,545454,,,,,,,
118100,note_off,,,,,84,0,15,,,,,7,,,67,100
118100,note_off,,,,,84,0,13,,,,,5,,,52,100
118100,note_off,,,,,84,0,10,,,,,2,,,64,100
118100,note_off,,,,,84,0,14,,,,,6,,,40,100
118100,note_off,,,,,84,0,9,,,,,1,,,64,100
118100,note_off,,,,,84,0,16,,,,,7,,,52,100
118100,note_off,,,,,84,0,12,,,,,4,,,64,100
118100,note_off,,,,,84,0,11,,,,,3,,,64,100
118100,note_off,,,,,84,0,8,,,,,0,,,64,100
118136,set_tempo,,,,,56,1,0,,550458,,,,,,,
118144,note_on,,,,,44,0,12,,,,,4,,,62,110
118144,note_on,,,,,44,0,11,,,,,3,,,62,60
118144,note_on,,,,,44,0,15,,,,,7,,,66,100
118144,note_on,,,,,44,0,13,,,,,5,,,50,110
118144,note_on,,,,,44,0,14,,,,,6,,,38,110
118144,note_on,,,,,44,0,9,,,,,1,,,62,60
118144,note_on,,,,,44,0,10,,,,,2,,,62,60
118144,note_on,,,,,44,0,16,,,,,7,,,50,100
118144,note_on,,,,,44,0,8,,,,,0,,,62,110
118192,set_tempo,,,,,56,1,0,,555555,,,,,,,
118228,note_off,,,,,84,0,9,,,,,1,,,62,100
118228,note_off,,,,,84,0,16,,,,,7,,,50,100
118228,note_off,,,,,84,0,15,,,,,7,,,66,100
118228,note_off,,,,,84,0,8,,,,,0,,,62,100
118228,note_off,,,,,84,0,14,,,,,6,,,38,100
118228,note_off,,,,,84,0,11,,,,,3,,,62,100
118228,note_off,,,,,84,0,10,,,,,2,,,62,100
118228,note_off,,,,,84,0,13,,,,,5,,,50,100
118228,note_off,,,,,84,0,12,,,,,4,,,62,100
118252,set_tempo,,,,,60,1,0,,560747,,,,,,,
118272,note_on,,,,,44,0,8,,,,,0,,,69,110
118272,note_on,,,,,44,0,12,,,,,4,,,69,110
118272,note_on,,,,,44,0,14,,,,,6,,,45,110
118272,note_on,,,,,44,0,10,,,,,2,,,69,60
118272,note_on,,,,,44,0,11,,,,,3,,,69,60
118272,note_on,,,,,44,0,16,,,,,7,,,57,100
118272,note_on,,,,,44,0,9,,,,,1,,,69,60
118272,note_on,,,,,0,0,15,,,,,7,,,64,100
118272,note_on,,,,,44,0,15,,,,,7,,,74,100
118272,note_on,,,,,44,0,13,,,,,5,,,57,110
118308,set_tempo,,,,,56,1,0,,566037,,,,,,,
118368,set_tempo,,,,,60,1,0,,571428,,,,,,,
118424,set_tempo,,,,,56,1,0,,576923,,,,,,,
118440,note_off,,,,,168,0,16,,,,,7,,,57,100
118440,note_off,,,,,168,0,9,,,,,1,,,69,100
118440,note_off,,,,,168,0,14,,,,,6,,,45,100
118440,note_off,,,,,168,0,12,,,,,4,,,69,100
118440,note_off,,,,,168,0,13,,,,,5,,,57,100
118440,note_off,,,,,168,0,8,,,,,0,,,69,100
118440,note_off,,,,,168,0,11,,,,,3,,,69,100
118440,note_off,,,,,0,0,15,,,,,7,,,64,100
118440,note_off,,,,,168,0,15,,,,,7,,,74,100
118440,note_off,,,,,168,0,10,,,,,2,,,69,100
118480,set_tempo,,,,,56,1,0,,582524,,,,,,,
118528,note_on,,,,,88,0,11,,,,,3,,,57,60
118528,note_on,,,,,88,0,14,,,,,6,,,33,110
118528,note_on,,,,,88,0,10,,,,,2,,,57,60
118528,note_on,,,,,88,0,12,,,,,4,,,57,110
118528,note_on,,,,,88,0,15,,,,,7,,,73,100
118528,note_on,,,,,0,0,15,,,,,7,,,64,100
118528,note_on,,,,,88,0,16,,,,,7,,,45,100
118528,note_on,,,,,88,0,8,,,,,0,,,57,110
118528,note_on,,,,,88,0,13,,,,,5,,,45,110
118528,note_on,,,,,88,0,9,,,,,1,,,57,60
118540,set_tempo,,,,,60,1,0,,588235,,,,,,,
118596,set_tempo,,,,,56,1,0,,594059,,,,,,,
118612,note_off,,,,,0,0,15,,,,,7,,,64,100
118612,note_off,,,,,84,0,9,,,,,1,,,57,100
118612,note_off,,,,,84,0,13,,,,,5,,,45,100
118612,note_off,,,,,84,0,14,,,,,6,,,33,100
118612,note_off,,,,,84,0,12,,,,,4,,,57,100
118612,note_off,,,,,84,0,10,,,,,2,,,57,100
118612,note_off,,,,,84,0,15,,,,,7,,,73,100
118612,note_off,,,,,84,0,8,,,,,0,,,57,100
118612,note_off,,,,,84,0,16,,,,,7,,,45,100
118612,note_off,,,,,84,0,11,,,,,3,,,57,100
118656,note_on,,,,,44,0,8,,,,,0,,,62,110
118656,note_on,,,,,44,0,11,,,,,3,,,62,60
118656,note_on,,,,,44,0,13,,,,,5,,,50,110
118656,note_on,,,,,44,0,15,,,,,7,,,66,100
118656,note_on,,,,,44,0,14,,,,,6,,,38,110
118656,note_on,,,,,44,0,16,,,,,7,,,50,100
118656,note_on,,,,,44,0,10,,,,,2,,,62,60
118656,set_tempo,,,,,60,1,0,,600000,,,,,,,
118656,note_on,,,,,44,0,12,,,,,4,,,62,110
118656,note_on,,,,,44,0,9,,,,,1,,,62,60
118684,note_on,,,,,28,0,15,,,,,7,,,69,100
118712,set_tempo,,,,,56,1,0,,606060,,,,,,,
118716,note_on,,,,,32,0,15,,,,,7,,,74,100
118768,set_tempo,,,,,56,1,0,,612244,,,,,,,
118828,set_tempo,,,,,60,1,0,,618556,,,,,,,
118884,set_tempo,,,,,56,1,0,,625000,,,,,,,
118944,set_tempo,,,,,60,1,0,,631578,,,,,,,
119000,set_tempo,,,,,56,1,0,,638297,,,,,,,
119056,set_tempo,,,,,56,1,0,,645161,,,,,,,
119116,set_tempo,,,,,60,1,0,,652173,,,,,,,
119172,set_tempo,,,,,56,1,0,,659340,,,,,,,
119232,set_tempo,,,,,60,1,0,,666666,,,,,,,
119288,set_tempo,,,,,56,1,0,,674157,,,,,,,
119344,set_tempo,,,,,56,1,0,,681818,,,,,,,
119404,set_tempo,,,,,60,1,0,,689655,,,,,,,
119424,note_off,,,,,768,0,14,,,,,6,,,38,100
119424,end_of_track,,,,,0,1,12,,,,,,,,,
119424,note_off,,,,,768,0,8,,,,,0,,,62,100
119424,note_off,,,,,768,0,9,,,,,1,,,62,100
119424,end_of_track,,,,,0,1,9,,,,,,,,,
119424,end_of_track,,,,,0,1,13,,,,,,,,,
119424,note_off,,,,,768,0,13,,,,,5,,,50,100
119424,end_of_track,,,,,0,1,14,,,,,,,,,
119424,note_off,,,,,708,0,15,,,,,7,,,66,100
119424,note_off,,,,,768,0,12,,,,,4,,,62,100
119424,note_off,,,,,768,0,10,,,,,2,,,62,100
119424,end_of_track,,,,,0,1,16,,,,,,,,,
119424,note_off,,,,,768,0,16,,,,,7,,,50,100
119424,end_of_track,,,,,0,1,11,,,,,,,,,
119424,note_off,,,,,768,0,11,,,,,3,,,62,100
119424,end_of_track,,,,,0,1,10,,,,,,,,,
119456,note_off,,,,,32,0,15,,,,,7,,,69,100
119460,set_tempo,,,,,56,1,0,,697674,,,,,,,
119488,end_of_track,,,,,0,1,15,,,,,,,,,
119488,note_off,,,,,32,0,15,,,,,7,,,74,100
119520,set_tempo,,,,,60,1,0,,705882,,,,,,,
119576,set_tempo,,,,,56,1,0,,714285,,,,,,,
119632,set_tempo,,,,,56,1,0,,722891,,,,,,,
119692,set_tempo,,,,,60,1,0,,731707,,,,,,,
119748,set_tempo,,,,,56,1,0,,740740,,,,,,,
119808,end_of_track,,,,,0,1,0,,,,,,,,,
119808,set_tempo,,,,,60,1,0,,750000,,,,,,,
120960,program_change,,,,,1536,0,8,,,,,0,48,,,
120960,end_of_track,,,,,0,1,8,,,,,,,,,
