tick,type,numerator,denominator,clocks_per_click,notated_32nd_notes_per_beat,time,meta,track,data,tempo,control,value,channel,program,key,note,velocity
0,time_signature,2,4,96,8,0,1,0,,,,,,,,,
0,key_signature,,,,,0,1,6,,,,,,,Bb,,
0,control_change,,,,,0,0,6,,,91,107,0,,,,
0,control_change,,,,,0,0,6,,,7,100,0,,,,
0,program_change,,,,,0,0,6,,,,,0,40,,,
0,control_change,,,,,0,0,6,,,0,0,0,,,,
0,track_name,,,,,0,1,6,,,,,,,,,
0,end_of_track,,,,,0,1,5,,,,,,,,,
0,key_signature,,,,,0,1,5,,,,,,,Bb,,
0,control_change,,,,,0,0,5,,,91,107,0,,,,
0,control_change,,,,,0,0,5,,,7,100,0,,,,
0,program_change,,,,,0,0,5,,,,,0,40,,,
0,control_change,,,,,0,0,5,,,0,0,0,,,,
0,track_name,,,,,0,1,5,,,,,,,,,
0,end_of_track,,,,,0,1,4,,,,,,,,,
0,key_signature,,,,,0,1,4,,,,,,,Bb,,
0,control_change,,,,,0,0,4,,,91,107,0,,,,
0,control_change,,,,,0,0,4,,,7,100,0,,,,
0,program_change,,,,,0,0,4,,,,,0,40,,,
0,control_change,,,,,0,0,4,,,0,0,0,,,,
0,track_name,,,,,0,1,4,,,,,,,,,
0,end_of_track,,,,,0,1,3,,,,,,,,,
0,key_signature,,,,,0,1,3,,,,,,,Bb,,
0,program_change,,,,,0,0,3,,,,,0,40,,,
0,control_change,,,,,0,0,3,,,7,100,0,,,,
0,control_change,,,,,0,0,3,,,0,0,0,,,,
0,track_name,,,,,0,1,3,,,,,,,,,
0,end_of_track,,,,,0,1,2,,,,,,,,,
0,end_of_track,,,,,0,1,6,,,,,,,,,
0,track_name,,,,,0,1,2,,,,,,,,,
0,track_name,,,,,0,1,7,,,,,,,,,
0,program_change,,,,,0,0,7,,,,,0,40,,,
0,track_name,,,,,0,1,16,,,,,,,,,
0,control_change,,,,,0,0,16,,,0,0,7,,,,
0,program_change,,,,,0,0,16,,,,,7,19,,,
0,key_signature,,,,,0,1,8,,,,,,,Bb,,
0,note_on,,,,,0,0,13,,,,,6,,,70,100
0,key_signature,,,,,0,1,9,,,,,,,Bb,,
0,control_change,,,,,0,0,9,,,91,108,2,,,,
0,control_change,,,,,0,0,9,,,10,36,2,,,,
0,control_change,,,,,0,0,9,,,7,96,2,,,,
0,program_change,,,,,0,0,9,,,,,2,48,,,
0,control_change,,,,,0,0,9,,,0,0,2,,,,
0,track_name,,,,,0,1,9,,,,,,,,,
0,note_on,,,,,0,0,15,,,,,7,,,62,100
0,key_signature,,,,,0,1,15,,,,,,,Bb,,
0,control_change,,,,,0,0,15,,,91,105,7,,,,
0,control_change,,,,,0,0,15,,,7,45,7,,,,
0,program_change,,,,,0,0,15,,,,,7,19,,,
0,control_change,,,,,0,0,15,,,0,0,7,,,,
0,track_name,,,,,0,1,15,,,,,,,,,
0,control_change,,,,,0,0,16,,,7,45,7,,,,
0,control_change,,,,,0,0,16,,,91,105,7,,,,
0,key_signature,,,,,0,1,16,,,,,,,Bb,,
0,note_on,,,,,0,0,16,,,,,7,,,46,100
0,track_name,,,,,0,1,11,,,,,,,,,
0,key_signature,,,,,0,1,7,,,,,,,Bb,,
0,control_change,,,,,0,0,7,,,91,107,0,,,,
0,control_change,,,,,0,0,7,,,7,100,0,,,,
0,control_change,,,,,0,0,7,,,0,0,0,,,,
0,end_of_track,,,,,0,1,1,,,,,,,,,
0,control_change,,,,,0,0,3,,,91,107,0,,,,
0,note_on,,,,,0,0,13,,,,,6,,,62,100
0,control_change,,,,,0,0,14,,,91,107,6,,,,
0,control_change,,,,,0,0,14,,,10,77,6,,,,
0,control_change,,,,,0,0,14,,,7,45,6,,,,
0,program_change,,,,,0,0,14,,,,,6,6,,,
0,control_change,,,,,0,0,14,,,0,0,6,,,,
0,track_name,,,,,0,1,14,,,,,,,,,
0,track_name,,,,,0,1,12,,,,,,,,,
0,track_name,,,,,0,1,1,,,,,,,,,
0,program_change,,,,,0,0,12,,,,,5,48,,,
0,control_change,,,,,0,0,12,,,7,72,5,,,,
0,control_change,,,,,0,0,12,,,10,90,5,,,,
0,key_signature,,,,,0,1,14,,,,,,,Bb,,
0,control_change,,,,,0,0,12,,,91,108,5,,,,
0,note_on,,,,,0,0,12,,,,,5,,,34,100
0,note_on,,,,,0,0,11,,,,,4,,,46,100
0,key_signature,,,,,0,1,11,,,,,,,Bb,,
0,control_change,,,,,0,0,11,,,91,107,4,,,,
0,control_change,,,,,0,0,11,,,10,79,4,,,,
0,control_change,,,,,0,0,11,,,7,82,4,,,,
0,program_change,,,,,0,0,11,,,,,4,48,,,
0,control_change,,,,,0,0,11,,,0,0,4,,,,
0,set_tempo,,,,,0,1,0,,465116,,,,,,,
0,sequencer_specific,,,,,0,1,0,"(0, 0, 119, 14, 1)",,,,,,,,
0,sequencer_specific,,,,,0,1,0,"(0, 0, 65)",,,,,,,,
0,key_signature,,,,,0,1,12,,,,,,,Bb,,
0,note_on,,,,,0,0,14,,,,,6,,,46,100
0,control_change,,,,,0,0,12,,,0,0,5,,,,
0,note_on,,,,,0,0,8,,,,,1,,,70,100
0,track_name,,,,,0,1,13,,,,,,,,,
0,track_name,,,,,0,1,8,,,,,,,,,
0,control_change,,,,,0,0,8,,,0,0,1,,,,
0,control_change,,,,,0,0,13,,,7,45,6,,,,
0,program_change,,,,,0,0,8,,,,,1,48,,,
0,control_change,,,,,0,0,8,,,7,104,1,,,,
0,control_change,,,,,0,0,8,,,10,49,1,,,,
0,control_change,,,,,0,0,13,,,0,0,6,,,,
0,track_name,,,,,0,1,10,,,,,,,,,
0,control_change,,,,,0,0,10,,,0,0,3,,,,
0,control_change,,,,,0,0,8,,,91,107,1,,,,
0,program_change,,,,,0,0,13,,,,,6,6,,,
0,control_change,,,,,0,0,13,,,10,77,6,,,,
0,program_change,,,,,0,0,10,,,,,3,48,,,
0,control_change,,,,,0,0,10,,,7,92,3,,,,
0,control_change,,,,,0,0,10,,,91,108,3,,,,
0,key_signature,,,,,0,1,10,,,,,,,Bb,,
0,key_signature,,,,,0,1,13,,,,,,,Bb,,
0,control_change,,,,,0,0,13,,,91,107,6,,,,
0,note_on,,,,,0,0,10,,,,,3,,,62,100
100,note_off,,,,,100,0,12,,,,,5,,,34,100
100,note_off,,,,,100,0,14,,,,,6,,,46,100
100,note_off,,,,,100,0,8,,,,,1,,,70,100
100,note_off,,,,,100,0,11,,,,,4,,,46,100
128,note_off,,,,,128,0,13,,,,,6,,,62,100
128,note_off,,,,,0,0,13,,,,,6,,,70,100
136,note_off,,,,,136,0,16,,,,,7,,,46,100
192,note_on,,,,,92,0,8,,,,,1,,,65,100
192,note_on,,,,,64,0,13,,,,,6,,,65,100
192,note_on,,,,,92,0,14,,,,,6,,,58,100
192,note_on,,,,,92,0,12,,,,,5,,,46,100
192,note_on,,,,,56,0,16,,,,,7,,,58,100
192,note_on,,,,,92,0,11,,,,,4,,,58,100
256,note_off,,,,,256,0,10,,,,,3,,,62,100
292,note_off,,,,,100,0,11,,,,,4,,,58,100
292,note_off,,,,,100,0,12,,,,,5,,,46,100
292,note_off,,,,,100,0,8,,,,,1,,,65,100
292,note_off,,,,,100,0,14,,,,,6,,,58,100
304,note_off,,,,,304,0,15,,,,,7,,,62,100
320,note_off,,,,,128,0,13,,,,,6,,,65,100
328,note_off,,,,,136,0,16,,,,,7,,,58,100
384,note_on,,,,,64,0,13,,,,,6,,,72,100
384,note_on,,,,,92,0,12,,,,,5,,,45,100
384,note_on,,,,,92,0,14,,,,,6,,,57,100
384,note_on,,,,,0,0,15,,,,,7,,,60,100
384,note_on,,,,,128,0,10,,,,,3,,,65,100
384,note_on,,,,,56,0,16,,,,,7,,,57,100
384,note_on,,,,,80,0,15,,,,,7,,,69,100
384,note_on,,,,,92,0,11,,,,,4,,,57,100
384,note_on,,,,,92,0,8,,,,,1,,,72,100
484,note_off,,,,,100,0,8,,,,,1,,,72,100
484,note_off,,,,,100,0,12,,,,,5,,,45,100
484,note_off,,,,,100,0,11,,,,,4,,,57,100
484,note_off,,,,,100,0,14,,,,,6,,,57,100
512,note_off,,,,,128,0,13,,,,,6,,,72,100
520,note_off,,,,,136,0,16,,,,,7,,,57,100
576,note_on,,,,,92,0,12,,,,,5,,,41,100
576,note_on,,,,,56,0,16,,,,,7,,,53,100
576,note_on,,,,,64,0,13,,,,,6,,,69,100
576,note_on,,,,,92,0,11,,,,,4,,,53,100
576,note_on,,,,,92,0,14,,,,,6,,,53,100
576,note_on,,,,,92,0,8,,,,,1,,,65,100
640,note_off,,,,,256,0,10,,,,,3,,,65,100
676,note_off,,,,,100,0,14,,,,,6,,,53,100
676,note_off,,,,,100,0,12,,,,,5,,,41,100
676,note_off,,,,,100,0,8,,,,,1,,,65,100
676,note_off,,,,,100,0,11,,,,,4,,,53,100
688,note_off,,,,,304,0,15,,,,,7,,,69,100
688,note_off,,,,,0,0,15,,,,,7,,,60,100
704,note_off,,,,,128,0,13,,,,,6,,,69,100
712,note_off,,,,,136,0,16,,,,,7,,,53,100
768,note_on,,,,,56,0,16,,,,,7,,,46,100
768,note_on,,,,,0,0,13,,,,,6,,,74,100
768,note_on,,,,,92,0,12,,,,,5,,,34,100
768,note_on,,,,,64,0,13,,,,,6,,,70,100
768,note_on,,,,,92,0,8,,,,,1,,,74,100
768,note_on,,,,,80,0,15,,,,,7,,,65,100
768,note_on,,,,,128,0,10,,,,,3,,,65,100
768,note_on,,,,,0,0,15,,,,,7,,,70,100
768,note_on,,,,,768,0,9,,,,,2,,,70,100
768,note_on,,,,,92,0,14,,,,,6,,,46,100
768,note_on,,,,,92,0,11,,,,,4,,,46,100
768,note_on,,,,,0,0,15,,,,,7,,,62,100
768,set_tempo,,,,,768,1,0,,465116,,,,,,,
868,note_off,,,,,100,0,12,,,,,5,,,34,100
868,note_off,,,,,100,0,9,,,,,2,,,70,100
868,note_off,,,,,100,0,11,,,,,4,,,46,100
868,note_off,,,,,100,0,14,,,,,6,,,46,100
896,note_off,,,,,128,0,13,,,,,6,,,70,100
896,note_off,,,,,0,0,13,,,,,6,,,74,100
904,note_off,,,,,136,0,16,,,,,7,,,46,100
960,note_on,,,,,92,0,11,,,,,4,,,58,100
960,note_on,,,,,92,0,14,,,,,6,,,58,100
960,note_on,,,,,92,0,12,,,,,5,,,46,100
960,note_on,,,,,92,0,9,,,,,2,,,65,100
960,note_on,,,,,64,0,13,,,,,6,,,65,100
960,note_on,,,,,56,0,16,,,,,7,,,58,100
1024,note_off,,,,,256,0,8,,,,,1,,,74,100
1024,note_off,,,,,256,0,10,,,,,3,,,65,100
1060,note_off,,,,,100,0,11,,,,,4,,,58,100
1060,note_off,,,,,100,0,12,,,,,5,,,46,100
1060,note_off,,,,,100,0,9,,,,,2,,,65,100
1060,note_off,,,,,100,0,14,,,,,6,,,58,100
1072,note_off,,,,,0,0,15,,,,,7,,,70,100
1072,note_off,,,,,304,0,15,,,,,7,,,62,100
1088,note_off,,,,,128,0,13,,,,,6,,,65,100
1096,note_off,,,,,136,0,16,,,,,7,,,58,100
1152,note_on,,,,,92,0,14,,,,,6,,,57,100
1152,note_on,,,,,56,0,16,,,,,7,,,57,100
1152,note_on,,,,,92,0,9,,,,,2,,,72,100
1152,note_on,,,,,92,0,12,,,,,5,,,45,100
1152,note_on,,,,,80,0,15,,,,,7,,,60,100
1152,note_on,,,,,92,0,11,,,,,4,,,57,100
1152,note_on,,,,,128,0,10,,,,,3,,,65,100
1152,note_on,,,,,128,0,8,,,,,1,,,72,100
1152,note_on,,,,,64,0,13,,,,,6,,,72,100
1152,note_on,,,,,0,0,15,,,,,7,,,69,100
1252,note_off,,,,,100,0,14,,,,,6,,,57,100
1252,note_off,,,,,100,0,9,,,,,2,,,72,100
1252,note_off,,,,,100,0,12,,,,,5,,,45,100
1252,note_off,,,,,100,0,11,,,,,4,,,57,100
1280,note_off,,,,,128,0,13,,,,,6,,,72,100
1288,note_off,,,,,136,0,16,,,,,7,,,57,100
1344,note_on,,,,,92,0,12,,,,,5,,,41,100
1344,note_on,,,,,92,0,9,,,,,2,,,65,100
1344,note_on,,,,,92,0,14,,,,,6,,,53,100
1344,note_on,,,,,64,0,13,,,,,6,,,69,100
1344,note_on,,,,,56,0,16,,,,,7,,,53,100
1344,note_on,,,,,92,0,11,,,,,4,,,53,100
1408,note_off,,,,,256,0,10,,,,,3,,,65,100
1408,note_off,,,,,256,0,8,,,,,1,,,72,100
1444,note_off,,,,,100,0,12,,,,,5,,,41,100
1444,note_off,,,,,100,0,11,,,,,4,,,53,100
1444,note_off,,,,,100,0,9,,,,,2,,,65,100
1444,note_off,,,,,100,0,14,,,,,6,,,53,100
1456,note_off,,,,,0,0,15,,,,,7,,,69,100
1456,note_off,,,,,304,0,15,,,,,7,,,60,100
1472,note_off,,,,,128,0,13,,,,,6,,,69,100
1480,note_off,,,,,136,0,16,,,,,7,,,53,100
1536,note_on,,,,,128,0,8,,,,,1,,,70,100
1536,note_on,,,,,92,0,12,,,,,5,,,34,100
1536,note_on,,,,,0,0,15,,,,,7,,,70,100
1536,note_on,,,,,92,0,9,,,,,2,,,74,100
1536,note_on,,,,,64,0,13,,,,,6,,,70,100
1536,note_on,,,,,0,0,13,,,,,6,,,74,100
1536,note_on,,,,,56,0,16,,,,,7,,,46,100
1536,note_on,,,,,92,0,14,,,,,6,,,46,100
1536,note_on,,,,,80,0,15,,,,,7,,,62,100
1536,note_on,,,,,128,0,10,,,,,3,,,65,100
1536,note_on,,,,,92,0,11,,,,,4,,,46,100
1636,note_off,,,,,100,0,14,,,,,6,,,46,100
1636,note_off,,,,,100,0,8,,,,,1,,,70,100
1636,note_off,,,,,100,0,12,,,,,5,,,34,100
1636,note_off,,,,,100,0,11,,,,,4,,,46,100
1664,note_off,,,,,128,0,13,,,,,6,,,70,100
1664,note_off,,,,,0,0,13,,,,,6,,,74,100
1672,note_off,,,,,136,0,16,,,,,7,,,46,100
1728,note_on,,,,,56,0,16,,,,,7,,,58,100
1728,note_on,,,,,92,0,8,,,,,1,,,65,99
1728,note_on,,,,,64,0,13,,,,,6,,,65,100
1728,note_on,,,,,92,0,12,,,,,5,,,46,99
1728,note_on,,,,,92,0,14,,,,,6,,,58,100
1728,note_on,,,,,92,0,11,,,,,4,,,58,99
1792,note_off,,,,,256,0,10,,,,,3,,,65,100
1792,note_off,,,,,256,0,9,,,,,2,,,74,100
1828,note_off,,,,,100,0,8,,,,,1,,,65,100
1828,note_off,,,,,100,0,14,,,,,6,,,58,100
1828,note_off,,,,,100,0,12,,,,,5,,,46,100
1828,note_off,,,,,100,0,11,,,,,4,,,58,100
1840,note_off,,,,,0,0,15,,,,,7,,,70,100
1840,note_off,,,,,304,0,15,,,,,7,,,62,100
1856,note_off,,,,,128,0,13,,,,,6,,,65,100
1864,note_off,,,,,136,0,16,,,,,7,,,58,100
1920,note_on,,,,,92,0,14,,,,,6,,,57,100
1920,note_on,,,,,56,0,16,,,,,7,,,57,100
1920,note_on,,,,,92,0,12,,,,,5,,,45,97
1920,note_on,,,,,128,0,9,,,,,2,,,72,97
1920,note_on,,,,,128,0,10,,,,,3,,,65,97
1920,note_on,,,,,92,0,11,,,,,4,,,57,97
1920,note_on,,,,,80,0,15,,,,,7,,,60,100
1920,note_on,,,,,0,0,15,,,,,7,,,69,100
1920,note_on,,,,,92,0,8,,,,,1,,,72,97
1920,note_on,,,,,64,0,13,,,,,6,,,72,100
2020,note_off,,,,,100,0,8,,,,,1,,,72,100
2020,note_off,,,,,100,0,12,,,,,5,,,45,100
2020,note_off,,,,,100,0,14,,,,,6,,,57,100
2020,note_off,,,,,100,0,11,,,,,4,,,57,100
2048,note_off,,,,,128,0,13,,,,,6,,,72,100
2056,note_off,,,,,136,0,16,,,,,7,,,57,100
2112,note_on,,,,,56,0,16,,,,,7,,,53,100
2112,note_on,,,,,92,0,14,,,,,6,,,53,100
2112,note_on,,,,,92,0,11,,,,,4,,,53,95
2112,note_on,,,,,92,0,12,,,,,5,,,41,95
2112,note_on,,,,,92,0,8,,,,,1,,,65,95
2112,note_on,,,,,64,0,13,,,,,6,,,69,100
2176,note_off,,,,,256,0,9,,,,,2,,,72,100
2176,note_off,,,,,256,0,10,,,,,3,,,65,100
2212,note_off,,,,,100,0,8,,,,,1,,,65,100
2212,note_off,,,,,100,0,12,,,,,5,,,41,100
2212,note_off,,,,,100,0,14,,,,,6,,,53,100
2212,note_off,,,,,100,0,11,,,,,4,,,53,100
2224,note_off,,,,,304,0,15,,,,,7,,,60,100
2224,note_off,,,,,0,0,15,,,,,7,,,69,100
2240,note_off,,,,,128,0,13,,,,,6,,,69,100
2248,note_off,,,,,136,0,16,,,,,7,,,53,100
2304,note_on,,,,,92,0,8,,,,,1,,,74,92
2304,note_on,,,,,128,0,10,,,,,3,,,65,92
2304,note_on,,,,,0,0,13,,,,,6,,,74,100
2304,note_on,,,,,92,0,12,,,,,5,,,34,92
2304,note_on,,,,,92,0,11,,,,,4,,,46,92
2304,note_on,,,,,128,0,9,,,,,2,,,70,92
2304,note_on,,,,,0,0,15,,,,,7,,,62,100
2304,note_on,,,,,92,0,14,,,,,6,,,46,100
2304,note_on,,,,,56,0,16,,,,,7,,,46,100
2304,note_on,,,,,64,0,13,,,,,6,,,70,100
2304,note_on,,,,,80,0,15,,,,,7,,,70,100
2404,note_off,,,,,100,0,11,,,,,4,,,46,100
2404,note_off,,,,,100,0,14,,,,,6,,,46,100
2404,note_off,,,,,100,0,9,,,,,2,,,70,100
2404,note_off,,,,,100,0,12,,,,,5,,,34,100
2432,note_off,,,,,0,0,13,,,,,6,,,74,100
2432,note_off,,,,,128,0,13,,,,,6,,,70,100
2440,note_off,,,,,136,0,16,,,,,7,,,46,100
2496,note_on,,,,,92,0,11,,,,,4,,,58,93
2496,note_on,,,,,92,0,12,,,,,5,,,46,93
2496,note_on,,,,,64,0,13,,,,,6,,,65,100
2496,note_on,,,,,92,0,14,,,,,6,,,58,100
2496,note_on,,,,,56,0,16,,,,,7,,,58,100
2496,note_on,,,,,92,0,9,,,,,2,,,65,93
2560,note_off,,,,,256,0,8,,,,,1,,,74,100
2560,note_off,,,,,256,0,10,,,,,3,,,65,100
2596,note_off,,,,,100,0,14,,,,,6,,,58,100
2596,note_off,,,,,100,0,12,,,,,5,,,46,100
2596,note_off,,,,,100,0,9,,,,,2,,,65,100
2596,note_off,,,,,100,0,11,,,,,4,,,58,100
2608,note_off,,,,,304,0,15,,,,,7,,,70,100
2608,note_off,,,,,0,0,15,,,,,7,,,62,100
2624,note_off,,,,,128,0,13,,,,,6,,,65,100
2632,note_off,,,,,136,0,16,,,,,7,,,58,100
2688,note_on,,,,,128,0,10,,,,,3,,,65,95
2688,note_on,,,,,92,0,11,,,,,4,,,57,95
2688,note_on,,,,,56,0,16,,,,,7,,,57,100
2688,note_on,,,,,128,0,8,,,,,1,,,72,95
2688,note_on,,,,,0,0,15,,,,,7,,,60,100
2688,note_on,,,,,92,0,9,,,,,2,,,72,95
2688,note_on,,,,,92,0,14,,,,,6,,,57,100
2688,note_on,,,,,92,0,12,,,,,5,,,45,95
2688,note_on,,,,,64,0,13,,,,,6,,,72,100
2688,note_on,,,,,80,0,15,,,,,7,,,69,100
2788,note_off,,,,,100,0,12,,,,,5,,,45,100
2788,note_off,,,,,100,0,11,,,,,4,,,57,100
2788,note_off,,,,,100,0,9,,,,,2,,,72,100
2788,note_off,,,,,100,0,14,,,,,6,,,57,100
2816,note_off,,,,,128,0,13,,,,,6,,,72,100
2824,note_off,,,,,136,0,16,,,,,7,,,57,100
2880,note_on,,,,,92,0,14,,,,,6,,,53,100
2880,note_on,,,,,92,0,12,,,,,5,,,41,97
2880,note_on,,,,,92,0,9,,,,,2,,,65,97
2880,note_on,,,,,64,0,13,,,,,6,,,69,100
2880,note_on,,,,,56,0,16,,,,,7,,,53,100
2880,note_on,,,,,92,0,11,,,,,4,,,53,97
2944,note_off,,,,,256,0,8,,,,,1,,,72,100
2944,note_off,,,,,256,0,10,,,,,3,,,65,100
2980,note_off,,,,,100,0,11,,,,,4,,,53,100
2980,note_off,,,,,100,0,9,,,,,2,,,65,100
2980,note_off,,,,,100,0,14,,,,,6,,,53,100
2980,note_off,,,,,100,0,12,,,,,5,,,41,100
2992,note_off,,,,,304,0,15,,,,,7,,,69,100
2992,note_off,,,,,0,0,15,,,,,7,,,60,100
3008,note_off,,,,,128,0,13,,,,,6,,,69,100
3016,note_off,,,,,136,0,16,,,,,7,,,53,100
3072,note_on,,,,,128,0,10,,,,,3,,,65,100
3072,note_on,,,,,92,0,9,,,,,2,,,74,100
3072,note_on,,,,,0,0,15,,,,,7,,,62,100
3072,note_on,,,,,80,0,15,,,,,7,,,70,100
3072,note_on,,,,,92,0,11,,,,,4,,,46,100
3072,note_on,,,,,92,0,12,,,,,5,,,34,100
3072,note_on,,,,,128,0,8,,,,,1,,,70,100
3072,note_on,,,,,0,0,13,,,,,6,,,74,100
3072,note_on,,,,,64,0,13,,,,,6,,,70,100
3072,note_on,,,,,92,0,14,,,,,6,,,46,100
3072,note_on,,,,,56,0,16,,,,,7,,,46,100
3172,note_off,,,,,100,0,11,,,,,4,,,46,100
3172,note_off,,,,,100,0,12,,,,,5,,,34,100
3172,note_off,,,,,100,0,8,,,,,1,,,70,100
3172,note_off,,,,,100,0,14,,,,,6,,,46,100
3200,note_off,,,,,0,0,13,,,,,6,,,74,100
3200,note_off,,,,,128,0,13,,,,,6,,,70,100
3208,note_off,,,,,136,0,16,,,,,7,,,46,100
3264,note_on,,,,,64,0,13,,,,,6,,,65,100
3264,note_on,,,,,56,0,16,,,,,7,,,58,100
3264,note_on,,,,,92,0,11,,,,,4,,,58,100
3264,note_on,,,,,92,0,14,,,,,6,,,58,100
3264,note_on,,,,,92,0,12,,,,,5,,,46,100
3264,note_on,,,,,92,0,8,,,,,1,,,65,100
3328,note_off,,,,,256,0,9,,,,,2,,,74,100
3328,note_off,,,,,256,0,10,,,,,3,,,65,100
3364,note_off,,,,,100,0,14,,,,,6,,,58,100
3364,note_off,,,,,100,0,8,,,,,1,,,65,100
3364,note_off,,,,,100,0,12,,,,,5,,,46,100
3364,note_off,,,,,100,0,11,,,,,4,,,58,100
3376,note_off,,,,,304,0,15,,,,,7,,,70,100
3376,note_off,,,,,0,0,15,,,,,7,,,62,100
3392,note_off,,,,,128,0,13,,,,,6,,,65,100
3400,note_off,,,,,136,0,16,,,,,7,,,58,100
3456,note_on,,,,,80,0,15,,,,,7,,,69,100
3456,note_on,,,,,128,0,9,,,,,2,,,72,100
3456,note_on,,,,,56,0,16,,,,,7,,,57,100
3456,note_on,,,,,64,0,13,,,,,6,,,72,100
3456,note_on,,,,,92,0,11,,,,,4,,,57,100
3456,note_on,,,,,128,0,10,,,,,3,,,65,100
3456,note_on,,,,,92,0,14,,,,,6,,,57,100
3456,note_on,,,,,92,0,12,,,,,5,,,45,100
3456,note_on,,,,,92,0,8,,,,,1,,,72,100
3456,note_on,,,,,0,0,15,,,,,7,,,60,100
3556,note_off,,,,,100,0,11,,,,,4,,,57,100
3556,note_off,,,,,100,0,12,,,,,5,,,45,100
3556,note_off,,,,,100,0,8,,,,,1,,,72,100
3556,note_off,,,,,100,0,14,,,,,6,,,57,100
3584,note_off,,,,,128,0,13,,,,,6,,,72,100
3592,note_off,,,,,136,0,16,,,,,7,,,57,100
3648,note_on,,,,,92,0,12,,,,,5,,,41,100
3648,note_on,,,,,92,0,11,,,,,4,,,53,100
3648,note_on,,,,,92,0,8,,,,,1,,,65,100
3648,note_on,,,,,64,0,13,,,,,6,,,69,100
3648,note_on,,,,,92,0,14,,,,,6,,,53,100
3648,note_on,,,,,56,0,16,,,,,7,,,53,100
3712,note_off,,,,,256,0,9,,,,,2,,,72,100
3712,note_off,,,,,256,0,10,,,,,3,,,65,100
3748,note_off,,,,,100,0,8,,,,,1,,,65,100
3748,note_off,,,,,100,0,14,,,,,6,,,53,100
3748,note_off,,,,,100,0,11,,,,,4,,,53,100
3748,note_off,,,,,100,0,12,,,,,5,,,41,100
3760,note_off,,,,,0,0,15,,,,,7,,,60,100
3760,note_off,,,,,304,0,15,,,,,7,,,69,100
3776,note_off,,,,,128,0,13,,,,,6,,,69,100
3784,note_off,,,,,136,0,16,,,,,7,,,53,100
3840,note_on,,,,,64,0,13,,,,,6,,,70,100
3840,note_on,,,,,0,0,13,,,,,6,,,74,100
3840,note_on,,,,,56,0,16,,,,,7,,,46,100
3840,note_on,,,,,128,0,10,,,,,3,,,65,100
3840,note_on,,,,,128,0,9,,,,,2,,,70,100
3840,note_on,,,,,92,0,14,,,,,6,,,46,100
3840,note_on,,,,,92,0,11,,,,,4,,,46,100
3840,note_on,,,,,92,0,12,,,,,5,,,34,100
3840,note_on,,,,,80,0,15,,,,,7,,,70,100
3840,note_on,,,,,0,0,15,,,,,7,,,62,100
3840,note_on,,,,,92,0,8,,,,,1,,,74,100
3940,note_off,,,,,100,0,14,,,,,6,,,46,100
3940,note_off,,,,,100,0,12,,,,,5,,,34,100
3940,note_off,,,,,100,0,9,,,,,2,,,70,100
3940,note_off,,,,,100,0,11,,,,,4,,,46,100
3968,note_off,,,,,128,0,13,,,,,6,,,70,100
3968,note_off,,,,,0,0,13,,,,,6,,,74,100
3976,note_off,,,,,136,0,16,,,,,7,,,46,100
4032,note_on,,,,,92,0,14,,,,,6,,,58,100
4032,note_on,,,,,92,0,9,,,,,2,,,65,101
4032,note_on,,,,,92,0,11,,,,,4,,,58,101
4032,note_on,,,,,64,0,13,,,,,6,,,65,100
4032,note_on,,,,,56,0,16,,,,,7,,,58,100
4032,note_on,,,,,92,0,12,,,,,5,,,46,101
4096,note_off,,,,,256,0,8,,,,,1,,,74,100
4096,note_off,,,,,256,0,10,,,,,3,,,65,100
4132,note_off,,,,,100,0,11,,,,,4,,,58,100
4132,note_off,,,,,100,0,12,,,,,5,,,46,100
4132,note_off,,,,,100,0,9,,,,,2,,,65,100
4132,note_off,,,,,100,0,14,,,,,6,,,58,100
4144,note_off,,,,,304,0,15,,,,,7,,,70,100
4144,note_off,,,,,0,0,15,,,,,7,,,62,100
4160,note_off,,,,,128,0,13,,,,,6,,,65,100
4168,note_off,,,,,136,0,16,,,,,7,,,58,100
4224,note_on,,,,,92,0,12,,,,,5,,,45,103
4224,note_on,,,,,64,0,13,,,,,6,,,72,100
4224,note_on,,,,,128,0,10,,,,,3,,,65,103
4224,note_on,,,,,80,0,15,,,,,7,,,72,100
4224,note_on,,,,,92,0,14,,,,,6,,,57,100
4224,note_on,,,,,56,0,16,,,,,7,,,57,100
4224,note_on,,,,,128,0,8,,,,,1,,,75,103
4224,note_on,,,,,92,0,11,,,,,4,,,57,103
4224,note_on,,,,,92,0,9,,,,,2,,,72,103
4224,note_on,,,,,0,0,15,,,,,7,,,69,100
4324,note_off,,,,,100,0,9,,,,,2,,,72,100
4324,note_off,,,,,100,0,12,,,,,5,,,45,100
4324,note_off,,,,,100,0,11,,,,,4,,,57,100
4324,note_off,,,,,100,0,14,,,,,6,,,57,100
4352,note_off,,,,,128,0,13,,,,,6,,,72,100
4360,note_off,,,,,136,0,16,,,,,7,,,57,100
4416,note_on,,,,,92,0,11,,,,,4,,,53,104
4416,note_on,,,,,92,0,9,,,,,2,,,65,104
4416,note_on,,,,,64,0,13,,,,,6,,,69,100
4416,note_on,,,,,56,0,16,,,,,7,,,53,100
4416,note_on,,,,,92,0,12,,,,,5,,,41,104
4416,note_on,,,,,92,0,14,,,,,6,,,53,100
4480,note_off,,,,,256,0,10,,,,,3,,,65,100
4480,note_off,,,,,256,0,8,,,,,1,,,75,100
4516,note_off,,,,,100,0,14,,,,,6,,,53,100
4516,note_off,,,,,100,0,12,,,,,5,,,41,100
4516,note_off,,,,,100,0,9,,,,,2,,,65,100
4516,note_off,,,,,100,0,11,,,,,4,,,53,100
4528,note_off,,,,,304,0,15,,,,,7,,,72,100
4528,note_off,,,,,0,0,15,,,,,7,,,69,100
4544,note_off,,,,,128,0,13,,,,,6,,,69,100
4552,note_off,,,,,136,0,16,,,,,7,,,53,100
4608,note_on,,,,,0,0,15,,,,,7,,,70,100
4608,note_on,,,,,92,0,12,,,,,5,,,34,110
4608,note_on,,,,,56,0,16,,,,,7,,,46,100
4608,note_on,,,,,92,0,9,,,,,2,,,74,110
4608,note_on,,,,,64,0,13,,,,,6,,,70,100
4608,note_on,,,,,0,0,13,,,,,6,,,74,100
4608,note_on,,,,,128,0,8,,,,,1,,,77,110
4608,note_on,,,,,128,0,10,,,,,3,,,65,110
4608,note_on,,,,,80,0,15,,,,,7,,,74,100
4608,note_on,,,,,92,0,11,,,,,4,,,46,110
4608,note_on,,,,,92,0,14,,,,,6,,,46,100
4708,note_off,,,,,100,0,12,,,,,5,,,34,100
4708,note_off,,,,,100,0,11,,,,,4,,,46,100
4708,note_off,,,,,100,0,14,,,,,6,,,46,100
4736,note_off,,,,,128,0,9,,,,,2,,,74,100
4736,note_off,,,,,128,0,8,,,,,1,,,77,100
4736,note_off,,,,,128,0,13,,,,,6,,,70,100
4736,note_off,,,,,0,0,13,,,,,6,,,74,100
4744,note_off,,,,,136,0,16,,,,,7,,,46,100
4800,note_on,,,,,64,0,13,,,,,6,,,74,100
4800,note_on,,,,,64,0,9,,,,,2,,,75,107
4800,note_on,,,,,56,0,16,,,,,7,,,58,100
4800,note_on,,,,,92,0,14,,,,,6,,,58,100
4800,note_on,,,,,92,0,11,,,,,4,,,58,107
4800,note_on,,,,,92,0,12,,,,,5,,,46,107
4800,note_on,,,,,64,0,8,,,,,1,,,75,107
4800,note_on,,,,,0,0,13,,,,,6,,,77,100
4864,note_off,,,,,256,0,15,,,,,7,,,65,100
4864,note_off,,,,,0,0,15,,,,,7,,,70,100
4864,note_off,,,,,256,0,10,,,,,3,,,65,100
4864,note_off,,,,,64,0,9,,,,,2,,,75,100
4864,note_off,,,,,64,0,8,,,,,1,,,75,100
4864,note_off,,,,,0,0,15,,,,,7,,,74,100
4896,note_on,,,,,32,0,8,,,,,1,,,74,105
4896,note_on,,,,,32,0,9,,,,,2,,,77,105
4900,note_off,,,,,100,0,12,,,,,5,,,46,100
4900,note_off,,,,,100,0,14,,,,,6,,,58,100
4900,note_off,,,,,100,0,11,,,,,4,,,58,100
4928,note_off,,,,,0,0,13,,,,,6,,,77,100
4928,note_off,,,,,128,0,13,,,,,6,,,74,100
4936,note_off,,,,,136,0,16,,,,,7,,,58,100
4960,note_off,,,,,64,0,8,,,,,1,,,74,100
4960,note_off,,,,,64,0,9,,,,,2,,,77,100
4992,note_on,,,,,32,0,8,,,,,1,,,72,103
4992,note_on,,,,,0,0,13,,,,,6,,,75,100
4992,note_on,,,,,64,0,13,,,,,6,,,72,100
4992,note_on,,,,,92,0,14,,,,,6,,,51,100
4992,note_on,,,,,128,0,15,,,,,7,,,75,100
4992,note_on,,,,,56,0,16,,,,,7,,,51,100
4992,note_on,,,,,0,0,15,,,,,7,,,67,100
4992,note_on,,,,,92,0,12,,,,,5,,,39,103
4992,note_on,,,,,92,0,11,,,,,4,,,51,103
4992,note_on,,,,,32,0,9,,,,,2,,,75,103
4992,note_on,,,,,0,0,15,,,,,7,,,72,100
4992,note_on,,,,,128,0,10,,,,,3,,,67,103
5092,note_off,,,,,100,0,9,,,,,2,,,75,100
5092,note_off,,,,,100,0,14,,,,,6,,,51,100
5092,note_off,,,,,100,0,11,,,,,4,,,51,100
5092,note_off,,,,,100,0,12,,,,,5,,,39,100
5092,note_off,,,,,100,0,8,,,,,1,,,72,100
5120,note_off,,,,,128,0,15,,,,,7,,,75,100
5120,note_off,,,,,128,0,13,,,,,6,,,72,100
5120,note_off,,,,,0,0,13,,,,,6,,,75,100
5120,note_off,,,,,0,0,15,,,,,7,,,72,100
5128,note_off,,,,,136,0,16,,,,,7,,,51,100
5184,note_on,,,,,56,0,16,,,,,7,,,52,100
5184,note_on,,,,,92,0,14,,,,,6,,,52,100
5184,note_on,,,,,64,0,13,,,,,6,,,70,100
5184,note_on,,,,,0,0,13,,,,,6,,,74,100
5184,note_on,,,,,92,0,8,,,,,1,,,70,99
5184,note_on,,,,,0,0,15,,,,,7,,,74,100
5184,note_on,,,,,64,0,15,,,,,7,,,70,100
5184,note_on,,,,,92,0,9,,,,,2,,,74,99
5184,note_on,,,,,92,0,11,,,,,4,,,52,99
5184,note_on,,,,,92,0,12,,,,,5,,,40,99
5248,note_off,,,,,256,0,10,,,,,3,,,67,100
5248,note_off,,,,,64,0,15,,,,,7,,,67,100
5284,note_off,,,,,100,0,8,,,,,1,,,70,100
5284,note_off,,,,,100,0,12,,,,,5,,,40,100
5284,note_off,,,,,100,0,11,,,,,4,,,52,100
5284,note_off,,,,,100,0,14,,,,,6,,,52,100
5284,note_off,,,,,100,0,9,,,,,2,,,74,100
5312,note_off,,,,,0,0,13,,,,,6,,,74,100
5312,note_off,,,,,128,0,13,,,,,6,,,70,100
5312,note_off,,,,,0,0,15,,,,,7,,,74,100
5312,note_off,,,,,64,0,15,,,,,7,,,70,100
5320,note_off,,,,,136,0,16,,,,,7,,,52,100
5376,note_on,,,,,92,0,14,,,,,6,,,53,100
5376,note_on,,,,,0,0,13,,,,,6,,,72,100
5376,note_on,,,,,64,0,13,,,,,6,,,69,100
5376,note_on,,,,,92,0,8,,,,,1,,,69,96
5376,note_on,,,,,128,0,10,,,,,3,,,69,96
5376,note_on,,,,,92,0,11,,,,,4,,,53,96
5376,note_on,,,,,92,0,12,,,,,5,,,41,96
5376,note_on,,,,,0,0,15,,,,,7,,,72,100
5376,note_on,,,,,0,0,15,,,,,7,,,69,100
5376,note_on,,,,,56,0,16,,,,,7,,,53,100
5376,note_on,,,,,64,0,15,,,,,7,,,65,100
5376,note_on,,,,,92,0,9,,,,,2,,,72,96
5476,note_off,,,,,100,0,8,,,,,1,,,69,100
5568,note_on,,,,,92,0,8,,,,,1,,,69,85
5608,note_off,,,,,232,0,16,,,,,7,,,53,100
5632,note_off,,,,,256,0,9,,,,,2,,,72,100
5632,note_off,,,,,256,0,10,,,,,3,,,69,100
5632,note_off,,,,,0,0,15,,,,,7,,,69,100
5632,note_off,,,,,256,0,11,,,,,4,,,53,100
5632,note_off,,,,,256,0,12,,,,,5,,,41,100
5632,note_off,,,,,256,0,14,,,,,6,,,53,100
5632,note_off,,,,,256,0,15,,,,,7,,,65,100
5632,note_off,,,,,0,0,15,,,,,7,,,72,100
5632,note_off,,,,,256,0,13,,,,,6,,,69,100
5632,note_off,,,,,0,0,13,,,,,6,,,72,100
5668,note_off,,,,,100,0,8,,,,,1,,,69,100
5760,note_on,,,,,92,0,8,,,,,1,,,72,84
5860,note_off,,,,,100,0,8,,,,,1,,,72,100
5952,note_on,,,,,92,0,8,,,,,1,,,77,82
6052,note_off,,,,,100,0,8,,,,,1,,,77,100
6144,note_on,,,,,92,0,8,,,,,1,,,70,81
6336,note_on,,,,,704,0,11,,,,,4,,,46,80
6336,note_on,,,,,728,0,16,,,,,7,,,46,100
6336,note_on,,,,,704,0,13,,,,,6,,,74,100
6336,note_on,,,,,0,0,13,,,,,6,,,77,100
6336,note_on,,,,,704,0,15,,,,,7,,,74,100
6336,note_on,,,,,0,0,15,,,,,7,,,77,100
6336,note_on,,,,,704,0,10,,,,,3,,,62,80
6336,note_on,,,,,704,0,9,,,,,2,,,65,80
6336,note_on,,,,,704,0,14,,,,,6,,,46,100
6400,note_off,,,,,256,0,8,,,,,1,,,70,100
6436,note_off,,,,,100,0,10,,,,,3,,,62,100
6436,note_off,,,,,100,0,11,,,,,4,,,46,100
6436,note_off,,,,,100,0,9,,,,,2,,,65,100
6436,note_off,,,,,100,0,14,,,,,6,,,46,100
6464,note_off,,,,,128,0,15,,,,,7,,,74,100
6464,note_off,,,,,0,0,15,,,,,7,,,77,100
6464,note_off,,,,,0,0,13,,,,,6,,,77,100
6464,note_off,,,,,128,0,13,,,,,6,,,74,100
6472,note_off,,,,,136,0,16,,,,,7,,,46,100
6528,note_on,,,,,92,0,14,,,,,6,,,50,100
6528,note_on,,,,,64,0,13,,,,,6,,,70,100
6528,note_on,,,,,0,0,13,,,,,6,,,65,100
6528,note_on,,,,,92,0,10,,,,,3,,,65,80
6528,note_on,,,,,92,0,11,,,,,4,,,50,80
6528,note_on,,,,,92,0,9,,,,,2,,,70,80
6528,note_on,,,,,64,0,15,,,,,7,,,70,100
6528,note_on,,,,,0,0,15,,,,,7,,,65,100
6528,note_on,,,,,128,0,8,,,,,1,,,68,80
6528,note_on,,,,,56,0,16,,,,,7,,,50,100
6628,note_off,,,,,100,0,10,,,,,3,,,65,100
6628,note_off,,,,,100,0,11,,,,,4,,,50,100
6628,note_off,,,,,100,0,9,,,,,2,,,70,100
6628,note_off,,,,,100,0,14,,,,,6,,,50,100
6656,note_off,,,,,128,0,15,,,,,7,,,70,100
6656,note_off,,,,,128,0,13,,,,,6,,,70,100
6664,note_off,,,,,136,0,16,,,,,7,,,50,100
6720,note_on,,,,,64,0,13,,,,,6,,,74,100
6720,note_on,,,,,92,0,9,,,,,2,,,74,80
6720,note_on,,,,,64,0,15,,,,,7,,,74,100
6720,note_on,,,,,56,0,16,,,,,7,,,46,100
6720,note_on,,,,,92,0,14,,,,,6,,,46,100
6720,note_on,,,,,92,0,10,,,,,3,,,62,80
6720,note_on,,,,,92,0,11,,,,,4,,,46,80
6784,note_off,,,,,64,0,15,,,,,7,,,65,100
6784,note_off,,,,,256,0,8,,,,,1,,,68,100
6784,note_off,,,,,64,0,13,,,,,6,,,65,100
6820,note_off,,,,,100,0,9,,,,,2,,,74,100
6820,note_off,,,,,100,0,14,,,,,6,,,46,100
6820,note_off,,,,,100,0,10,,,,,3,,,62,100
6820,note_off,,,,,100,0,11,,,,,4,,,46,100
6848,note_off,,,,,64,0,13,,,,,6,,,74,100
6848,note_off,,,,,64,0,15,,,,,7,,,74,100
6856,note_off,,,,,136,0,16,,,,,7,,,46,100
6912,note_on,,,,,92,0,11,,,,,4,,,39,80
6912,note_on,,,,,92,0,9,,,,,2,,,75,80
6912,note_on,,,,,0,0,15,,,,,7,,,75,100
6912,note_on,,,,,64,0,15,,,,,7,,,67,100
6912,note_on,,,,,92,0,10,,,,,3,,,58,80
6912,note_on,,,,,64,0,13,,,,,6,,,75,100
6912,note_on,,,,,0,0,13,,,,,6,,,67,100
6912,note_on,,,,,56,0,16,,,,,7,,,39,100
6912,note_on,,,,,92,0,14,,,,,6,,,39,100
6912,note_on,,,,,128,0,8,,,,,1,,,67,80
7012,note_off,,,,,100,0,8,,,,,1,,,67,100
7104,note_on,,,,,92,0,8,,,,,1,,,70,80
7144,note_off,,,,,232,0,16,,,,,7,,,39,100
7168,note_off,,,,,0,0,15,,,,,7,,,75,100
7168,note_off,,,,,256,0,14,,,,,6,,,39,100
7168,note_off,,,,,256,0,10,,,,,3,,,58,100
7168,note_off,,,,,256,0,13,,,,,6,,,75,100
7168,note_off,,,,,0,0,13,,,,,6,,,67,100
7168,note_off,,,,,256,0,11,,,,,4,,,39,100
7168,note_off,,,,,256,0,9,,,,,2,,,75,100
7168,note_off,,,,,256,0,15,,,,,7,,,67,100
7204,note_off,,,,,100,0,8,,,,,1,,,70,100
7296,note_on,,,,,128,0,10,,,,,3,,,67,81
7296,note_on,,,,,92,0,8,,,,,1,,,75,81
7296,note_on,,,,,128,0,9,,,,,2,,,70,81
7396,note_off,,,,,100,0,8,,,,,1,,,75,100
7488,note_on,,,,,92,0,8,,,,,1,,,79,83
7552,note_off,,,,,256,0,9,,,,,2,,,70,100
7552,note_off,,,,,256,0,10,,,,,3,,,67,100
7588,note_off,,,,,100,0,8,,,,,1,,,79,100
7680,note_on,,,,,92,0,8,,,,,1,,,72,85
7680,note_on,,,,,128,0,9,,,,,2,,,67,85
7780,note_off,,,,,100,0,9,,,,,2,,,67,100
7872,note_on,,,,,0,0,15,,,,,7,,,79,100
7872,note_on,,,,,704,0,11,,,,,4,,,48,85
7872,note_on,,,,,704,0,13,,,,,6,,,76,100
7872,note_on,,,,,0,0,13,,,,,6,,,79,100
7872,note_on,,,,,728,0,16,,,,,7,,,48,100
7872,note_on,,,,,704,0,14,,,,,6,,,48,100
7872,note_on,,,,,704,0,15,,,,,7,,,76,100
7872,note_on,,,,,92,0,9,,,,,2,,,67,85
7872,note_on,,,,,320,0,10,,,,,3,,,64,85
7936,note_off,,,,,256,0,8,,,,,1,,,72,100
7972,note_off,,,,,100,0,10,,,,,3,,,64,100
7972,note_off,,,,,100,0,11,,,,,4,,,48,100
7972,note_off,,,,,100,0,14,,,,,6,,,48,100
7972,note_off,,,,,100,0,9,,,,,2,,,67,100
8000,note_off,,,,,128,0,15,,,,,7,,,76,100
8000,note_off,,,,,0,0,15,,,,,7,,,79,100
8000,note_off,,,,,0,0,13,,,,,6,,,79,100
8000,note_off,,,,,128,0,13,,,,,6,,,76,100
8008,note_off,,,,,136,0,16,,,,,7,,,48,100
8064,note_on,,,,,0,0,13,,,,,6,,,67,100
8064,note_on,,,,,64,0,13,,,,,6,,,72,100
8064,note_on,,,,,64,0,15,,,,,7,,,72,100
8064,note_on,,,,,0,0,15,,,,,7,,,67,100
8064,note_on,,,,,56,0,16,,,,,7,,,52,100
8064,note_on,,,,,92,0,9,,,,,2,,,72,85
8064,note_on,,,,,92,0,14,,,,,6,,,52,100
8064,note_on,,,,,128,0,8,,,,,1,,,70,85
8064,note_on,,,,,92,0,11,,,,,4,,,52,85
8064,note_on,,,,,92,0,10,,,,,3,,,67,85
8164,note_off,,,,,100,0,14,,,,,6,,,52,100
8164,note_off,,,,,100,0,9,,,,,2,,,72,100
8164,note_off,,,,,100,0,10,,,,,3,,,67,100
8164,note_off,,,,,100,0,11,,,,,4,,,52,100
8192,note_off,,,,,128,0,15,,,,,7,,,72,100
8192,note_off,,,,,128,0,13,,,,,6,,,72,100
8200,note_off,,,,,136,0,16,,,,,7,,,52,100
8256,note_on,,,,,64,0,15,,,,,7,,,76,100
8256,note_on,,,,,92,0,10,,,,,3,,,64,85
8256,note_on,,,,,92,0,9,,,,,2,,,76,85
8256,note_on,,,,,56,0,16,,,,,7,,,48,100
8256,note_on,,,,,92,0,14,,,,,6,,,48,100
8256,note_on,,,,,64,0,13,,,,,6,,,76,100
8256,note_on,,,,,92,0,11,,,,,4,,,48,85
8320,note_off,,,,,64,0,15,,,,,7,,,67,100
8320,note_off,,,,,256,0,8,,,,,1,,,70,100
8320,note_off,,,,,64,0,13,,,,,6,,,67,100
8356,note_off,,,,,100,0,14,,,,,6,,,48,100
8356,note_off,,,,,100,0,11,,,,,4,,,48,100
8356,note_off,,,,,100,0,10,,,,,3,,,64,100
8356,note_off,,,,,100,0,9,,,,,2,,,76,100
8384,note_off,,,,,64,0,13,,,,,6,,,76,100
8384,note_off,,,,,64,0,15,,,,,7,,,76,100
8392,note_off,,,,,136,0,16,,,,,7,,,48,100
8448,note_on,,,,,92,0,9,,,,,2,,,77,85
8448,note_on,,,,,92,0,10,,,,,3,,,60,85
8448,note_on,,,,,92,0,11,,,,,4,,,41,85
8448,note_on,,,,,128,0,8,,,,,1,,,69,85
8448,note_on,,,,,64,0,15,,,,,7,,,69,100
8448,note_on,,,,,0,0,15,,,,,7,,,77,100
8448,note_on,,,,,92,0,14,,,,,6,,,41,100
8448,note_on,,,,,0,0,13,,,,,6,,,77,100
8448,note_on,,,,,64,0,13,,,,,6,,,69,100
8448,note_on,,,,,56,0,16,,,,,7,,,41,100
8548,note_off,,,,,100,0,8,,,,,1,,,69,100
8640,note_on,,,,,92,0,8,,,,,1,,,72,85
8704,note_off,,,,,0,0,15,,,,,7,,,77,100
8704,note_off,,,,,256,0,14,,,,,6,,,41,100
8704,note_off,,,,,256,0,16,,,,,7,,,41,100
8704,note_off,,,,,256,0,15,,,,,7,,,69,100
8704,note_off,,,,,256,0,13,,,,,6,,,69,100
8704,note_off,,,,,256,0,10,,,,,3,,,60,100
8704,note_off,,,,,0,0,13,,,,,6,,,77,100
8704,note_off,,,,,256,0,9,,,,,2,,,77,100
8704,note_off,,,,,256,0,11,,,,,4,,,41,100
8740,note_off,,,,,100,0,8,,,,,1,,,72,100
8832,note_on,,,,,92,0,8,,,,,1,,,77,86
8832,note_on,,,,,128,0,9,,,,,2,,,72,86
8832,note_on,,,,,128,0,10,,,,,3,,,69,86
8932,note_off,,,,,100,0,8,,,,,1,,,77,100
9024,note_on,,,,,92,0,8,,,,,1,,,81,88
9088,note_off,,,,,256,0,9,,,,,2,,,72,100
9088,note_off,,,,,256,0,10,,,,,3,,,69,100
9124,note_off,,,,,100,0,8,,,,,1,,,81,100
9216,note_on,,,,,128,0,9,,,,,2,,,69,89
9216,note_on,,,,,92,0,8,,,,,1,,,74,89
9316,note_off,,,,,100,0,9,,,,,2,,,69,100
9408,note_on,,,,,704,0,16,,,,,7,,,50,100
9408,note_on,,,,,320,0,10,,,,,3,,,66,90
9408,note_on,,,,,704,0,14,,,,,6,,,50,100
9408,note_on,,,,,92,0,9,,,,,2,,,69,90
9408,note_on,,,,,704,0,13,,,,,6,,,78,100
9408,note_on,,,,,0,0,15,,,,,7,,,81,100
9408,note_on,,,,,704,0,15,,,,,7,,,78,100
9408,note_on,,,,,704,0,11,,,,,4,,,50,90
9408,note_on,,,,,0,0,13,,,,,6,,,81,100
9472,note_off,,,,,256,0,8,,,,,1,,,74,100
9508,note_off,,,,,100,0,16,,,,,7,,,50,100
9508,note_off,,,,,100,0,14,,,,,6,,,50,100
9508,note_off,,,,,100,0,10,,,,,3,,,66,100
9508,note_off,,,,,100,0,11,,,,,4,,,50,100
9508,note_off,,,,,100,0,9,,,,,2,,,69,100
9536,note_off,,,,,128,0,15,,,,,7,,,78,100
9536,note_off,,,,,0,0,15,,,,,7,,,81,100
9536,note_off,,,,,128,0,13,,,,,6,,,78,100
9536,note_off,,,,,0,0,13,,,,,6,,,81,100
9600,note_on,,,,,92,0,16,,,,,7,,,54,100
9600,note_on,,,,,92,0,14,,,,,6,,,54,100
9600,note_on,,,,,92,0,11,,,,,4,,,54,90
9600,note_on,,,,,92,0,10,,,,,3,,,69,90
9600,note_on,,,,,128,0,8,,,,,1,,,72,90
9600,note_on,,,,,64,0,15,,,,,7,,,74,100
9600,note_on,,,,,0,0,13,,,,,6,,,69,100
9600,note_on,,,,,64,0,13,,,,,6,,,74,100
9600,note_on,,,,,92,0,9,,,,,2,,,74,90
9600,note_on,,,,,0,0,15,,,,,7,,,69,100
9700,note_off,,,,,100,0,11,,,,,4,,,54,100
9700,note_off,,,,,100,0,16,,,,,7,,,54,100
9700,note_off,,,,,100,0,9,,,,,2,,,74,100
9700,note_off,,,,,100,0,10,,,,,3,,,69,100
9700,note_off,,,,,100,0,14,,,,,6,,,54,100
9728,note_off,,,,,128,0,15,,,,,7,,,74,100
9728,note_off,,,,,128,0,13,,,,,6,,,74,100
9792,note_on,,,,,64,0,13,,,,,6,,,78,100
9792,note_on,,,,,92,0,9,,,,,2,,,78,90
9792,note_on,,,,,92,0,10,,,,,3,,,66,90
9792,note_on,,,,,64,0,15,,,,,7,,,78,100
9792,note_on,,,,,92,0,11,,,,,4,,,50,90
9792,note_on,,,,,92,0,14,,,,,6,,,50,100
9792,note_on,,,,,92,0,16,,,,,7,,,50,100
9856,note_off,,,,,256,0,8,,,,,1,,,72,100
9856,note_off,,,,,64,0,15,,,,,7,,,69,100
9856,note_off,,,,,64,0,13,,,,,6,,,69,100
9892,note_off,,,,,100,0,14,,,,,6,,,50,100
9892,note_off,,,,,100,0,9,,,,,2,,,78,100
9892,note_off,,,,,100,0,10,,,,,3,,,66,100
9892,note_off,,,,,100,0,16,,,,,7,,,50,100
9892,note_off,,,,,100,0,11,,,,,4,,,50,100
9920,note_off,,,,,64,0,13,,,,,6,,,78,100
9920,note_off,,,,,64,0,15,,,,,7,,,78,100
9984,note_on,,,,,128,0,8,,,,,1,,,70,90
9984,note_on,,,,,0,0,15,,,,,7,,,70,100
9984,note_on,,,,,64,0,15,,,,,7,,,79,100
9984,note_on,,,,,0,0,13,,,,,6,,,70,100
9984,note_on,,,,,64,0,13,,,,,6,,,79,100
9984,note_on,,,,,92,0,14,,,,,6,,,43,100
9984,note_on,,,,,92,0,11,,,,,4,,,43,90
9984,note_on,,,,,92,0,16,,,,,7,,,43,100
9984,note_on,,,,,92,0,9,,,,,2,,,79,90
9984,note_on,,,,,92,0,10,,,,,3,,,62,90
10084,note_off,,,,,100,0,8,,,,,1,,,70,100
10176,note_on,,,,,92,0,8,,,,,1,,,74,90
10240,note_off,,,,,256,0,13,,,,,6,,,79,100
10240,note_off,,,,,256,0,11,,,,,4,,,43,100
10240,note_off,,,,,256,0,14,,,,,6,,,43,100
10240,note_off,,,,,0,0,13,,,,,6,,,70,100
10240,note_off,,,,,256,0,9,,,,,2,,,79,100
10240,note_off,,,,,0,0,15,,,,,7,,,70,100
10240,note_off,,,,,256,0,16,,,,,7,,,43,100
10240,note_off,,,,,256,0,10,,,,,3,,,62,100
10240,note_off,,,,,256,0,15,,,,,7,,,79,100
10276,note_off,,,,,100,0,8,,,,,1,,,74,100
10368,note_on,,,,,128,0,9,,,,,2,,,74,90
10368,note_on,,,,,128,0,10,,,,,3,,,70,90
10368,note_on,,,,,92,0,8,,,,,1,,,79,90
10468,note_off,,,,,100,0,8,,,,,1,,,79,100
10560,note_on,,,,,92,0,8,,,,,1,,,82,90
10624,note_off,,,,,256,0,10,,,,,3,,,70,100
10624,note_off,,,,,256,0,9,,,,,2,,,74,100
10660,note_off,,,,,100,0,8,,,,,1,,,82,100
10752,note_on,,,,,128,0,9,,,,,2,,,70,90
10752,note_on,,,,,92,0,8,,,,,1,,,75,90
10852,note_off,,,,,100,0,9,,,,,2,,,70,100
10944,note_on,,,,,704,0,13,,,,,6,,,79,100
10944,note_on,,,,,0,0,13,,,,,6,,,82,100
10944,note_on,,,,,704,0,14,,,,,6,,,51,100
10944,note_on,,,,,320,0,10,,,,,3,,,67,90
10944,note_on,,,,,704,0,11,,,,,4,,,51,90
10944,note_on,,,,,92,0,9,,,,,2,,,70,90
10944,note_on,,,,,0,0,15,,,,,7,,,82,100
10944,note_on,,,,,704,0,15,,,,,7,,,79,100
10944,note_on,,,,,704,0,16,,,,,7,,,51,100
11008,note_off,,,,,256,0,8,,,,,1,,,75,100
11044,note_off,,,,,100,0,14,,,,,6,,,51,100
11044,note_off,,,,,100,0,10,,,,,3,,,67,100
11044,note_off,,,,,100,0,9,,,,,2,,,70,100
11044,note_off,,,,,100,0,16,,,,,7,,,51,100
11044,note_off,,,,,100,0,11,,,,,4,,,51,100
11072,note_off,,,,,128,0,15,,,,,7,,,79,100
11072,note_off,,,,,0,0,15,,,,,7,,,82,100
11072,note_off,,,,,0,0,13,,,,,6,,,82,100
11072,note_off,,,,,128,0,13,,,,,6,,,79,100
11136,note_on,,,,,0,0,15,,,,,7,,,70,100
11136,note_on,,,,,92,0,11,,,,,4,,,55,93
11136,note_on,,,,,92,0,10,,,,,3,,,70,93
11136,note_on,,,,,128,0,8,,,,,1,,,74,93
11136,note_on,,,,,64,0,15,,,,,7,,,75,100
11136,note_on,,,,,92,0,16,,,,,7,,,55,100
11136,note_on,,,,,92,0,9,,,,,2,,,75,93
11136,note_on,,,,,0,0,13,,,,,6,,,70,100
11136,note_on,,,,,64,0,13,,,,,6,,,75,100
11136,note_on,,,,,92,0,14,,,,,6,,,55,100
11236,note_off,,,,,100,0,16,,,,,7,,,55,100
11236,note_off,,,,,100,0,14,,,,,6,,,55,100
11236,note_off,,,,,100,0,10,,,,,3,,,70,100
11236,note_off,,,,,100,0,9,,,,,2,,,75,100
11236,note_off,,,,,100,0,11,,,,,4,,,55,100
11264,note_off,,,,,128,0,13,,,,,6,,,75,100
11264,note_off,,,,,128,0,15,,,,,7,,,75,100
11328,note_on,,,,,92,0,16,,,,,7,,,51,100
11328,note_on,,,,,92,0,9,,,,,2,,,79,96
11328,note_on,,,,,92,0,11,,,,,4,,,51,96
11328,note_on,,,,,64,0,13,,,,,6,,,79,100
11328,note_on,,,,,92,0,10,,,,,3,,,70,96
11328,note_on,,,,,92,0,14,,,,,6,,,51,100
11328,note_on,,,,,64,0,15,,,,,7,,,79,100
11392,note_off,,,,,256,0,8,,,,,1,,,74,100
11392,note_off,,,,,64,0,13,,,,,6,,,70,100
11392,note_off,,,,,64,0,15,,,,,7,,,70,100
11428,note_off,,,,,100,0,16,,,,,7,,,51,100
11428,note_off,,,,,100,0,9,,,,,2,,,79,100
11428,note_off,,,,,100,0,11,,,,,4,,,51,100
11428,note_off,,,,,100,0,10,,,,,3,,,70,100
11428,note_off,,,,,100,0,14,,,,,6,,,51,100
11456,note_off,,,,,64,0,15,,,,,7,,,79,100
11456,note_off,,,,,64,0,13,,,,,6,,,79,100
11520,note_on,,,,,92,0,10,,,,,3,,,69,99
11520,note_on,,,,,0,0,13,,,,,6,,,77,100
11520,note_on,,,,,128,0,8,,,,,1,,,72,99
11520,note_on,,,,,92,0,16,,,,,7,,,53,100
11520,note_on,,,,,0,0,15,,,,,7,,,69,100
11520,note_on,,,,,64,0,15,,,,,7,,,77,100
11520,note_on,,,,,64,0,13,,,,,6,,,69,100
11520,note_on,,,,,92,0,9,,,,,2,,,69,99
11520,note_on,,,,,5888,0,12,,,,,5,,,41,99
11520,note_on,,,,,92,0,11,,,,,4,,,53,99
11520,note_on,,,,,92,0,14,,,,,6,,,53,100
11620,note_off,,,,,100,0,11,,,,,4,,,53,100
11620,note_off,,,,,100,0,12,,,,,5,,,41,100
11620,note_off,,,,,100,0,14,,,,,6,,,53,100
11620,note_off,,,,,100,0,10,,,,,3,,,69,100
11620,note_off,,,,,100,0,8,,,,,1,,,72,100
11648,note_off,,,,,0,0,13,,,,,6,,,77,100
11648,note_off,,,,,128,0,13,,,,,6,,,69,100
11656,note_off,,,,,136,0,16,,,,,7,,,53,100
11712,note_on,,,,,92,0,12,,,,,5,,,41,100
11712,note_on,,,,,56,0,16,,,,,7,,,41,100
11712,note_on,,,,,92,0,8,,,,,1,,,65,100
11712,note_on,,,,,92,0,14,,,,,6,,,41,100
11712,note_on,,,,,92,0,11,,,,,4,,,41,100
11712,note_on,,,,,92,0,10,,,,,3,,,69,100
11776,note_off,,,,,256,0,15,,,,,7,,,69,100
11776,note_off,,,,,256,0,9,,,,,2,,,69,100
11812,note_off,,,,,100,0,10,,,,,3,,,69,100
11812,note_off,,,,,100,0,8,,,,,1,,,65,100
11812,note_off,,,,,100,0,14,,,,,6,,,41,100
11812,note_off,,,,,100,0,11,,,,,4,,,41,100
11812,note_off,,,,,100,0,12,,,,,5,,,41,100
11848,note_off,,,,,136,0,16,,,,,7,,,41,100
11904,note_on,,,,,92,0,11,,,,,4,,,41,100
11904,note_on,,,,,92,0,14,,,,,6,,,41,100
11904,note_on,,,,,92,0,12,,,,,5,,,41,100
11904,note_on,,,,,92,0,8,,,,,1,,,74,100
11904,note_on,,,,,128,0,9,,,,,2,,,70,100
11904,note_on,,,,,256,0,13,,,,,6,,,74,100
11904,note_on,,,,,92,0,10,,,,,3,,,65,100
11904,note_on,,,,,56,0,16,,,,,7,,,41,100
11904,note_on,,,,,0,0,13,,,,,6,,,70,100
11904,note_on,,,,,128,0,15,,,,,7,,,74,100
11904,note_on,,,,,0,0,15,,,,,7,,,70,100
12004,note_off,,,,,100,0,12,,,,,5,,,41,100
12004,note_off,,,,,100,0,11,,,,,4,,,41,100
12004,note_off,,,,,100,0,8,,,,,1,,,74,100
12004,note_off,,,,,100,0,14,,,,,6,,,41,100
12004,note_off,,,,,100,0,10,,,,,3,,,65,100
12040,note_off,,,,,136,0,16,,,,,7,,,41,100
12096,note_on,,,,,92,0,14,,,,,6,,,53,100
12096,note_on,,,,,92,0,12,,,,,5,,,41,100
12096,note_on,,,,,92,0,11,,,,,4,,,53,100
12096,note_on,,,,,92,0,8,,,,,1,,,65,100
12096,note_on,,,,,56,0,16,,,,,7,,,53,100
12096,note_on,,,,,92,0,10,,,,,3,,,65,100
12160,note_off,,,,,256,0,13,,,,,6,,,74,100
12160,note_off,,,,,256,0,15,,,,,7,,,74,100
12160,note_off,,,,,0,0,15,,,,,7,,,70,100
12160,note_off,,,,,256,0,9,,,,,2,,,70,100
12160,note_off,,,,,0,0,13,,,,,6,,,70,100
12196,note_off,,,,,100,0,8,,,,,1,,,65,100
12196,note_off,,,,,100,0,10,,,,,3,,,65,100
12196,note_off,,,,,100,0,14,,,,,6,,,53,100
12196,note_off,,,,,100,0,12,,,,,5,,,41,100
12196,note_off,,,,,100,0,11,,,,,4,,,53,100
12232,note_off,,,,,136,0,16,,,,,7,,,53,100
12288,note_on,,,,,128,0,15,,,,,7,,,75,100
12288,note_on,,,,,56,0,16,,,,,7,,,53,100
12288,note_on,,,,,128,0,9,,,,,2,,,72,100
12288,note_on,,,,,92,0,12,,,,,5,,,41,100
12288,note_on,,,,,0,0,15,,,,,7,,,72,100
12288,note_on,,,,,92,0,14,,,,,6,,,53,100
12288,note_on,,,,,0,0,13,,,,,6,,,72,100
12288,note_on,,,,,92,0,11,,,,,4,,,53,100
12288,note_on,,,,,92,0,10,,,,,3,,,69,100
12288,note_on,,,,,128,0,13,,,,,6,,,75,100
12288,note_on,,,,,92,0,8,,,,,1,,,75,100
12388,note_off,,,,,100,0,12,,,,,5,,,41,100
12388,note_off,,,,,100,0,9,,,,,2,,,72,100
12388,note_off,,,,,100,0,10,,,,,3,,,69,100
12388,note_off,,,,,100,0,14,,,,,6,,,53,100
12388,note_off,,,,,100,0,11,,,,,4,,,53,100
12424,note_off,,,,,136,0,16,,,,,7,,,53,100
12480,note_on,,,,,56,0,16,,,,,7,,,41,100
12480,note_on,,,,,92,0,9,,,,,2,,,65,100
12480,note_on,,,,,92,0,14,,,,,6,,,41,100
12480,note_on,,,,,92,0,10,,,,,3,,,69,100
12480,note_on,,,,,92,0,11,,,,,4,,,41,100
12480,note_on,,,,,92,0,12,,,,,5,,,41,100
12544,note_off,,,,,0,0,13,,,,,6,,,72,100
12544,note_off,,,,,256,0,15,,,,,7,,,75,100
12544,note_off,,,,,256,0,13,,,,,6,,,75,100
12544,note_off,,,,,0,0,15,,,,,7,,,72,100
12544,note_off,,,,,256,0,8,,,,,1,,,75,100
12580,note_off,,,,,100,0,9,,,,,2,,,65,100
12580,note_off,,,,,100,0,11,,,,,4,,,41,100
12580,note_off,,,,,100,0,14,,,,,6,,,41,100
12580,note_off,,,,,100,0,10,,,,,3,,,69,100
12580,note_off,,,,,100,0,12,,,,,5,,,41,100
12616,note_off,,,,,136,0,16,,,,,7,,,41,100
12672,note_on,,,,,128,0,13,,,,,6,,,70,100
12672,note_on,,,,,0,0,13,,,,,6,,,74,100
12672,note_on,,,,,56,0,16,,,,,7,,,41,100
12672,note_on,,,,,92,0,11,,,,,4,,,41,100
12672,note_on,,,,,92,0,12,,,,,5,,,41,100
12672,note_on,,,,,92,0,10,,,,,3,,,65,100
12672,note_on,,,,,92,0,9,,,,,2,,,74,100
12672,note_on,,,,,0,0,15,,,,,7,,,74,100
12672,note_on,,,,,128,0,15,,,,,7,,,70,100
12672,note_on,,,,,128,0,8,,,,,1,,,74,100
12672,note_on,,,,,92,0,14,,,,,6,,,41,100
12772,note_off,,,,,100,0,14,,,,,6,,,41,100
12772,note_off,,,,,100,0,9,,,,,2,,,74,100
12772,note_off,,,,,100,0,10,,,,,3,,,65,100
12772,note_off,,,,,100,0,11,,,,,4,,,41,100
12772,note_off,,,,,100,0,12,,,,,5,,,41,100
12808,note_off,,,,,136,0,16,,,,,7,,,41,100
12864,note_on,,,,,56,0,16,,,,,7,,,53,100
12864,note_on,,,,,92,0,14,,,,,6,,,53,100
12864,note_on,,,,,92,0,12,,,,,5,,,41,100
12864,note_on,,,,,92,0,10,,,,,3,,,65,100
12864,note_on,,,,,92,0,9,,,,,2,,,65,100
12864,note_on,,,,,92,0,11,,,,,4,,,53,100
12928,note_off,,,,,0,0,15,,,,,7,,,74,100
12928,note_off,,,,,256,0,8,,,,,1,,,74,100
12928,note_off,,,,,0,0,13,,,,,6,,,74,100
12928,note_off,,,,,256,0,13,,,,,6,,,70,100
12928,note_off,,,,,256,0,15,,,,,7,,,70,100
12964,note_off,,,,,100,0,11,,,,,4,,,53,100
12964,note_off,,,,,100,0,12,,,,,5,,,41,100
12964,note_off,,,,,100,0,14,,,,,6,,,53,100
12964,note_off,,,,,100,0,10,,,,,3,,,65,100
12964,note_off,,,,,100,0,9,,,,,2,,,65,100
13000,note_off,,,,,136,0,16,,,,,7,,,53,100
13056,note_on,,,,,92,0,11,,,,,4,,,53,100
13056,note_on,,,,,92,0,14,,,,,6,,,53,100
13056,note_on,,,,,92,0,10,,,,,3,,,69,100
13056,note_on,,,,,56,0,16,,,,,7,,,53,100
13056,note_on,,,,,92,0,9,,,,,2,,,75,100
13056,note_on,,,,,92,0,12,,,,,5,,,41,100
13056,note_on,,,,,0,0,15,,,,,7,,,72,100
13056,note_on,,,,,128,0,15,,,,,7,,,69,100
13056,note_on,,,,,0,0,13,,,,,6,,,72,100
13056,note_on,,,,,128,0,8,,,,,1,,,72,100
13056,note_on,,,,,128,0,13,,,,,6,,,69,100
13156,note_off,,,,,100,0,10,,,,,3,,,69,100
13156,note_off,,,,,100,0,8,,,,,1,,,72,100
13156,note_off,,,,,100,0,14,,,,,6,,,53,100
13156,note_off,,,,,100,0,12,,,,,5,,,41,100
13156,note_off,,,,,100,0,11,,,,,4,,,53,100
13192,note_off,,,,,136,0,16,,,,,7,,,53,100
13248,note_on,,,,,92,0,11,,,,,4,,,41,99
13248,note_on,,,,,56,0,16,,,,,7,,,41,100
13248,note_on,,,,,92,0,12,,,,,5,,,41,99
13248,note_on,,,,,92,0,8,,,,,1,,,65,99
13248,note_on,,,,,92,0,14,,,,,6,,,41,100
13248,note_on,,,,,92,0,10,,,,,3,,,69,99
13312,note_off,,,,,256,0,9,,,,,2,,,75,100
13312,note_off,,,,,256,0,13,,,,,6,,,69,100
13312,note_off,,,,,0,0,13,,,,,6,,,72,100
13312,note_off,,,,,256,0,15,,,,,7,,,69,100
13312,note_off,,,,,0,0,15,,,,,7,,,72,100
13348,note_off,,,,,100,0,8,,,,,1,,,65,100
13348,note_off,,,,,100,0,11,,,,,4,,,41,100
13348,note_off,,,,,100,0,14,,,,,6,,,41,100
13348,note_off,,,,,100,0,10,,,,,3,,,69,100
13348,note_off,,,,,100,0,12,,,,,5,,,41,100
13384,note_off,,,,,136,0,16,,,,,7,,,41,100
13440,note_on,,,,,92,0,11,,,,,4,,,41,97
13440,note_on,,,,,92,0,10,,,,,3,,,65,97
13440,note_on,,,,,56,0,16,,,,,7,,,41,100
13440,note_on,,,,,128,0,15,,,,,7,,,70,100
13440,note_on,,,,,0,0,15,,,,,7,,,74,100
13440,note_on,,,,,92,0,14,,,,,6,,,41,100
13440,note_on,,,,,92,0,8,,,,,1,,,74,97
13440,note_on,,,,,128,0,9,,,,,2,,,74,97
13440,note_on,,,,,128,0,13,,,,,6,,,70,100
13440,note_on,,,,,0,0,13,,,,,6,,,74,100
13440,note_on,,,,,92,0,12,,,,,5,,,41,97
13540,note_off,,,,,100,0,14,,,,,6,,,41,100
13540,note_off,,,,,100,0,11,,,,,4,,,41,100
13540,note_off,,,,,100,0,12,,,,,5,,,41,100
13540,note_off,,,,,100,0,8,,,,,1,,,74,100
13540,note_off,,,,,100,0,10,,,,,3,,,65,100
13576,note_off,,,,,136,0,16,,,,,7,,,41,100
13632,note_on,,,,,92,0,14,,,,,6,,,53,100
13632,note_on,,,,,92,0,11,,,,,4,,,53,96
13632,note_on,,,,,56,0,16,,,,,7,,,53,100
13632,note_on,,,,,92,0,12,,,,,5,,,41,96
13632,note_on,,,,,92,0,8,,,,,1,,,65,96
13632,note_on,,,,,92,0,10,,,,,3,,,65,96
13696,note_off,,,,,256,0,13,,,,,6,,,70,100
13696,note_off,,,,,0,0,13,,,,,6,,,74,100
13696,note_off,,,,,0,0,15,,,,,7,,,74,100
13696,note_off,,,,,256,0,15,,,,,7,,,70,100
13696,note_off,,,,,256,0,9,,,,,2,,,74,100
13732,note_off,,,,,100,0,12,,,,,5,,,41,100
13732,note_off,,,,,100,0,10,,,,,3,,,65,100
13732,note_off,,,,,100,0,11,,,,,4,,,53,100
13732,note_off,,,,,100,0,14,,,,,6,,,53,100
13732,note_off,,,,,100,0,8,,,,,1,,,65,100
13768,note_off,,,,,136,0,16,,,,,7,,,53,100
13824,note_on,,,,,92,0,11,,,,,4,,,53,100
13824,note_on,,,,,92,0,12,,,,,5,,,41,100
13824,note_on,,,,,128,0,15,,,,,7,,,75,100
13824,note_on,,,,,0,0,15,,,,,7,,,72,100
13824,note_on,,,,,128,0,9,,,,,2,,,72,100
13824,note_on,,,,,92,0,8,,,,,1,,,75,100
13824,note_on,,,,,0,0,13,,,,,6,,,72,100
13824,note_on,,,,,128,0,13,,,,,6,,,75,100
13824,note_on,,,,,92,0,14,,,,,6,,,53,100
13824,note_on,,,,,92,0,10,,,,,3,,,69,100
13824,note_on,,,,,56,0,16,,,,,7,,,53,100
13924,note_off,,,,,100,0,11,,,,,4,,,53,100
13924,note_off,,,,,100,0,14,,,,,6,,,53,100
13924,note_off,,,,,100,0,12,,,,,5,,,41,100
13924,note_off,,,,,100,0,9,,,,,2,,,72,100
13924,note_off,,,,,100,0,10,,,,,3,,,69,100
13952,note_off,,,,,128,0,8,,,,,1,,,75,100
13960,note_off,,,,,136,0,16,,,,,7,,,53,100
14016,note_on,,,,,92,0,11,,,,,4,,,41,99
14016,note_on,,,,,92,0,10,,,,,3,,,69,99
14016,note_on,,,,,64,0,8,,,,,1,,,74,99
14016,note_on,,,,,92,0,14,,,,,6,,,41,100
14016,note_on,,,,,92,0,12,,,,,5,,,41,99
14016,note_on,,,,,92,0,9,,,,,2,,,65,99
14016,note_on,,,,,56,0,16,,,,,7,,,41,100
14080,note_off,,,,,256,0,15,,,,,7,,,75,100
14080,note_off,,,,,256,0,13,,,,,6,,,75,100
14080,note_off,,,,,0,0,13,,,,,6,,,72,100
14080,note_off,,,,,0,0,15,,,,,7,,,72,100
14080,note_off,,,,,64,0,8,,,,,1,,,74,100
14112,note_on,,,,,32,0,8,,,,,1,,,72,98
14116,note_off,,,,,100,0,14,,,,,6,,,41,100
14116,note_off,,,,,100,0,12,,,,,5,,,41,100
14116,note_off,,,,,100,0,9,,,,,2,,,65,100
14116,note_off,,,,,100,0,11,,,,,4,,,41,100
14116,note_off,,,,,100,0,10,,,,,3,,,69,100
14152,note_off,,,,,136,0,16,,,,,7,,,41,100
14176,note_off,,,,,64,0,8,,,,,1,,,72,100
14208,note_on,,,,,0,0,15,,,,,7,,,74,100
14208,note_on,,,,,56,0,16,,,,,7,,,41,100
14208,note_on,,,,,92,0,12,,,,,5,,,41,98
14208,note_on,,,,,92,0,14,,,,,6,,,41,100
14208,note_on,,,,,92,0,10,,,,,3,,,65,98
14208,note_on,,,,,92,0,9,,,,,2,,,74,98
14208,note_on,,,,,128,0,15,,,,,7,,,70,100
14208,note_on,,,,,128,0,13,,,,,6,,,70,100
14208,note_on,,,,,0,0,13,,,,,6,,,74,100
14208,note_on,,,,,92,0,11,,,,,4,,,41,98
14208,note_on,,,,,32,0,8,,,,,1,,,74,98
14308,note_off,,,,,100,0,9,,,,,2,,,74,100
14308,note_off,,,,,100,0,12,,,,,5,,,41,100
14308,note_off,,,,,100,0,14,,,,,6,,,41,100
14308,note_off,,,,,100,0,10,,,,,3,,,65,100
14308,note_off,,,,,100,0,11,,,,,4,,,41,100
14336,note_off,,,,,128,0,8,,,,,1,,,74,100
14344,note_off,,,,,136,0,16,,,,,7,,,41,100
14400,note_on,,,,,92,0,10,,,,,3,,,65,96
14400,note_on,,,,,92,0,9,,,,,2,,,65,96
14400,note_on,,,,,64,0,8,,,,,1,,,72,96
14400,note_on,,,,,92,0,14,,,,,6,,,53,100
14400,note_on,,,,,92,0,12,,,,,5,,,41,96
14400,note_on,,,,,56,0,16,,,,,7,,,53,100
14400,note_on,,,,,92,0,11,,,,,4,,,53,96
14464,note_off,,,,,256,0,13,,,,,6,,,70,100
14464,note_off,,,,,0,0,15,,,,,7,,,74,100
14464,note_off,,,,,64,0,8,,,,,1,,,72,100
14464,note_off,,,,,256,0,15,,,,,7,,,70,100
14464,note_off,,,,,0,0,13,,,,,6,,,74,100
14496,note_on,,,,,32,0,8,,,,,1,,,70,96
14500,note_off,,,,,100,0,14,,,,,6,,,53,100
14500,note_off,,,,,100,0,10,,,,,3,,,65,100
14500,note_off,,,,,100,0,12,,,,,5,,,41,100
14500,note_off,,,,,100,0,9,,,,,2,,,65,100
14500,note_off,,,,,100,0,11,,,,,4,,,53,100
14536,note_off,,,,,136,0,16,,,,,7,,,53,100
14560,note_off,,,,,64,0,8,,,,,1,,,70,100
14592,note_on,,,,,92,0,12,,,,,5,,,41,97
14592,note_on,,,,,92,0,14,,,,,6,,,53,100
14592,note_on,,,,,0,0,15,,,,,7,,,72,100
14592,note_on,,,,,128,0,15,,,,,7,,,69,100
14592,note_on,,,,,92,0,10,,,,,3,,,69,97
14592,note_on,,,,,0,0,13,,,,,6,,,72,100
14592,note_on,,,,,92,0,9,,,,,2,,,75,97
14592,note_on,,,,,56,0,16,,,,,7,,,53,100
14592,note_on,,,,,32,0,8,,,,,1,,,72,97
14592,note_on,,,,,128,0,13,,,,,6,,,69,100
14592,note_on,,,,,92,0,11,,,,,4,,,53,97
14692,note_off,,,,,100,0,14,,,,,6,,,53,100
14692,note_off,,,,,100,0,10,,,,,3,,,69,100
14692,note_off,,,,,100,0,11,,,,,4,,,53,100
14692,note_off,,,,,100,0,12,,,,,5,,,41,100
14720,note_off,,,,,128,0,9,,,,,2,,,75,100
14720,note_off,,,,,128,0,8,,,,,1,,,72,100
14728,note_off,,,,,136,0,16,,,,,7,,,53,100
14784,note_on,,,,,92,0,12,,,,,5,,,41,96
14784,note_on,,,,,92,0,11,,,,,4,,,41,96
14784,note_on,,,,,64,0,8,,,,,1,,,70,96
14784,note_on,,,,,92,0,14,,,,,6,,,41,100
14784,note_on,,,,,92,0,10,,,,,3,,,69,96
14784,note_on,,,,,56,0,16,,,,,7,,,41,100
14784,note_on,,,,,64,0,9,,,,,2,,,74,96
14848,note_off,,,,,256,0,15,,,,,7,,,69,100
14848,note_off,,,,,64,0,9,,,,,2,,,74,100
14848,note_off,,,,,256,0,13,,,,,6,,,69,100
14848,note_off,,,,,0,0,15,,,,,7,,,72,100
14848,note_off,,,,,64,0,8,,,,,1,,,70,100
14848,note_off,,,,,0,0,13,,,,,6,,,72,100
14880,note_on,,,,,32,0,9,,,,,2,,,72,96
14880,note_on,,,,,32,0,8,,,,,1,,,69,96
14884,note_off,,,,,100,0,14,,,,,6,,,41,100
14884,note_off,,,,,100,0,10,,,,,3,,,69,100
14884,note_off,,,,,100,0,11,,,,,4,,,41,100
14884,note_off,,,,,100,0,12,,,,,5,,,41,100
14920,note_off,,,,,136,0,16,,,,,7,,,41,100
14944,note_off,,,,,64,0,8,,,,,1,,,69,100
14944,note_off,,,,,64,0,9,,,,,2,,,72,100
14976,note_on,,,,,128,0,13,,,,,6,,,70,100
14976,note_on,,,,,92,0,14,,,,,6,,,41,100
14976,note_on,,,,,0,0,13,,,,,6,,,74,100
14976,note_on,,,,,32,0,9,,,,,2,,,74,95
14976,note_on,,,,,92,0,11,,,,,4,,,41,95
14976,note_on,,,,,0,0,15,,,,,7,,,74,100
14976,note_on,,,,,56,0,16,,,,,7,,,41,100
14976,note_on,,,,,92,0,12,,,,,5,,,41,95
14976,note_on,,,,,32,0,8,,,,,1,,,70,95
14976,note_on,,,,,128,0,15,,,,,7,,,70,100
14976,note_on,,,,,92,0,10,,,,,3,,,65,95
15076,note_off,,,,,100,0,12,,,,,5,,,41,100
15076,note_off,,,,,100,0,14,,,,,6,,,41,100
15076,note_off,,,,,100,0,11,,,,,4,,,41,100
15076,note_off,,,,,100,0,10,,,,,3,,,65,100
15104,note_off,,,,,128,0,8,,,,,1,,,70,100
15104,note_off,,,,,128,0,9,,,,,2,,,74,100
15112,note_off,,,,,136,0,16,,,,,7,,,41,100
15168,note_on,,,,,56,0,16,,,,,7,,,53,100
15168,note_on,,,,,92,0,12,,,,,5,,,41,94
15168,note_on,,,,,92,0,14,,,,,6,,,53,100
15168,note_on,,,,,92,0,11,,,,,4,,,53,94
15168,note_on,,,,,64,0,8,,,,,1,,,69,94
15168,note_on,,,,,64,0,9,,,,,2,,,72,94
15168,note_on,,,,,92,0,10,,,,,3,,,65,94
15232,note_off,,,,,64,0,9,,,,,2,,,72,100
15232,note_off,,,,,0,0,15,,,,,7,,,74,100
15232,note_off,,,,,256,0,15,,,,,7,,,70,100
15232,note_off,,,,,0,0,13,,,,,6,,,74,100
15232,note_off,,,,,64,0,8,,,,,1,,,69,100
15232,note_off,,,,,256,0,13,,,,,6,,,70,100
15264,note_on,,,,,32,0,9,,,,,2,,,70,94
15264,note_on,,,,,32,0,8,,,,,1,,,67,94
15268,note_off,,,,,100,0,12,,,,,5,,,41,100
15268,note_off,,,,,100,0,11,,,,,4,,,53,100
15268,note_off,,,,,100,0,14,,,,,6,,,53,100
15268,note_off,,,,,100,0,10,,,,,3,,,65,100
15304,note_off,,,,,136,0,16,,,,,7,,,53,100
15328,note_off,,,,,64,0,8,,,,,1,,,67,100
15328,note_off,,,,,64,0,9,,,,,2,,,70,100
15360,note_on,,,,,128,0,13,,,,,6,,,69,100
15360,note_on,,,,,56,0,16,,,,,7,,,53,100
15360,note_on,,,,,0,0,13,,,,,6,,,72,100
15360,note_on,,,,,92,0,10,,,,,3,,,65,92
15360,note_on,,,,,92,0,11,,,,,4,,,53,92
15360,note_on,,,,,92,0,14,,,,,6,,,53,100
15360,note_on,,,,,92,0,12,,,,,5,,,41,92
15360,note_on,,,,,32,0,8,,,,,1,,,69,92
15360,note_on,,,,,32,0,9,,,,,2,,,72,92
15360,note_on,,,,,128,0,15,,,,,7,,,69,100
15460,note_off,,,,,100,0,11,,,,,4,,,53,100
15460,note_off,,,,,100,0,10,,,,,3,,,65,100
15460,note_off,,,,,100,0,9,,,,,2,,,72,100
15460,note_off,,,,,100,0,14,,,,,6,,,53,100
15460,note_off,,,,,100,0,12,,,,,5,,,41,100
15488,note_off,,,,,128,0,8,,,,,1,,,69,100
15496,note_off,,,,,136,0,16,,,,,7,,,53,100
15552,note_on,,,,,56,0,16,,,,,7,,,41,100
15552,note_on,,,,,64,0,8,,,,,1,,,65,93
15552,note_on,,,,,92,0,9,,,,,2,,,69,93
15552,note_on,,,,,92,0,11,,,,,4,,,41,93
15552,note_on,,,,,92,0,10,,,,,3,,,60,93
15552,note_on,,,,,92,0,14,,,,,6,,,41,100
15552,note_on,,,,,92,0,12,,,,,5,,,41,93
15616,note_off,,,,,0,0,13,,,,,6,,,72,100
15616,note_off,,,,,256,0,13,,,,,6,,,69,100
15616,note_off,,,,,256,0,15,,,,,7,,,77,100
15616,note_off,,,,,0,0,15,,,,,7,,,69,100
15652,note_off,,,,,100,0,11,,,,,4,,,41,100
15652,note_off,,,,,100,0,12,,,,,5,,,41,100
15652,note_off,,,,,100,0,8,,,,,1,,,65,100
15652,note_off,,,,,100,0,10,,,,,3,,,60,100
15652,note_off,,,,,100,0,9,,,,,2,,,69,100
15652,note_off,,,,,100,0,14,,,,,6,,,41,100
15688,note_off,,,,,136,0,16,,,,,7,,,41,100
15744,note_on,,,,,92,0,10,,,,,3,,,65,95
15744,note_on,,,,,92,0,14,,,,,6,,,41,100
15744,note_on,,,,,92,0,11,,,,,4,,,41,95
15744,note_on,,,,,56,0,16,,,,,7,,,41,100
15744,note_on,,,,,92,0,8,,,,,1,,,69,95
15744,note_on,,,,,128,0,15,,,,,7,,,77,100
15744,note_on,,,,,128,0,13,,,,,6,,,77,100
15744,note_on,,,,,92,0,9,,,,,2,,,65,95
15744,note_on,,,,,0,0,13,,,,,6,,,69,100
15744,note_on,,,,,92,0,12,,,,,5,,,41,95
15744,note_on,,,,,0,0,15,,,,,7,,,69,100
15844,note_off,,,,,100,0,14,,,,,6,,,41,100
15844,note_off,,,,,100,0,10,,,,,3,,,65,100
15844,note_off,,,,,100,0,12,,,,,5,,,41,100
15844,note_off,,,,,100,0,8,,,,,1,,,69,100
15844,note_off,,,,,100,0,11,,,,,4,,,41,100
15880,note_off,,,,,136,0,16,,,,,7,,,41,100
15936,note_on,,,,,92,0,10,,,,,3,,,69,97
15936,note_on,,,,,92,0,14,,,,,6,,,53,100
15936,note_on,,,,,56,0,16,,,,,7,,,53,100
15936,note_on,,,,,92,0,11,,,,,4,,,53,97
15936,note_on,,,,,92,0,12,,,,,5,,,41,97
15936,note_on,,,,,92,0,8,,,,,1,,,72,97
16000,note_off,,,,,256,0,9,,,,,2,,,65,100
16036,note_off,,,,,100,0,14,,,,,6,,,53,100
16036,note_off,,,,,100,0,8,,,,,1,,,72,100
16036,note_off,,,,,100,0,12,,,,,5,,,41,100
16036,note_off,,,,,100,0,11,,,,,4,,,53,100
16036,note_off,,,,,100,0,10,,,,,3,,,69,100
16072,note_off,,,,,136,0,16,,,,,7,,,53,100
16124,note_off,,,,,380,0,13,,,,,6,,,77,100
16124,note_off,,,,,380,0,15,,,,,7,,,77,100
16128,note_on,,,,,4,0,13,,,,,6,,,75,100
16128,note_on,,,,,56,0,16,,,,,7,,,53,100
16128,note_on,,,,,92,0,12,,,,,5,,,41,100
16128,note_on,,,,,92,0,11,,,,,4,,,53,100
16128,note_on,,,,,92,0,14,,,,,6,,,53,100
16128,note_on,,,,,92,0,10,,,,,3,,,60,100
16128,note_on,,,,,92,0,8,,,,,1,,,75,100
16128,note_on,,,,,4,0,15,,,,,7,,,75,100
16228,note_off,,,,,100,0,12,,,,,5,,,41,100
16228,note_off,,,,,100,0,11,,,,,4,,,53,100
16228,note_off,,,,,100,0,14,,,,,6,,,53,100
16228,note_off,,,,,100,0,10,,,,,3,,,60,100
16264,note_off,,,,,136,0,16,,,,,7,,,53,100
16320,note_on,,,,,320,0,9,,,,,2,,,65,99
16320,note_on,,,,,92,0,14,,,,,6,,,41,100
16320,note_on,,,,,92,0,12,,,,,5,,,41,99
16320,note_on,,,,,92,0,11,,,,,4,,,41,99
16320,note_on,,,,,92,0,10,,,,,3,,,57,99
16320,note_off,,,,,192,0,8,,,,,1,,,75,100
16320,note_on,,,,,56,0,16,,,,,7,,,41,100
16384,note_off,,,,,0,0,13,,,,,6,,,75,100
16384,note_off,,,,,0,0,15,,,,,7,,,75,100
16384,note_off,,,,,256,0,15,,,,,7,,,69,100
16384,note_off,,,,,256,0,13,,,,,6,,,69,100
16416,note_on,,,,,96,0,8,,,,,1,,,74,98
16420,note_off,,,,,100,0,11,,,,,4,,,41,100
16420,note_off,,,,,100,0,14,,,,,6,,,41,100
16420,note_off,,,,,100,0,10,,,,,3,,,57,100
16420,note_off,,,,,100,0,9,,,,,2,,,65,100
16420,note_off,,,,,100,0,12,,,,,5,,,41,100
16456,note_off,,,,,136,0,16,,,,,7,,,41,100
16480,note_off,,,,,64,0,8,,,,,1,,,74,100
16512,note_on,,,,,128,0,15,,,,,7,,,72,100
16512,note_on,,,,,92,0,11,,,,,4,,,41,98
16512,note_on,,,,,92,0,14,,,,,6,,,41,100
16512,note_on,,,,,0,0,13,,,,,6,,,63,100
16512,note_on,,,,,92,0,9,,,,,2,,,69,98
16512,note_on,,,,,0,0,15,,,,,7,,,63,100
16512,note_on,,,,,92,0,12,,,,,5,,,41,98
16512,note_on,,,,,32,0,8,,,,,1,,,72,98
16512,note_on,,,,,56,0,16,,,,,7,,,41,100
16512,note_on,,,,,128,0,13,,,,,6,,,72,100
16512,note_on,,,,,92,0,10,,,,,3,,,60,98
16576,note_off,,,,,64,0,8,,,,,1,,,72,100
16608,note_on,,,,,32,0,8,,,,,1,,,70,97
16612,note_off,,,,,100,0,9,,,,,2,,,69,100
16612,note_off,,,,,100,0,10,,,,,3,,,60,100
16612,note_off,,,,,100,0,11,,,,,4,,,41,100
16612,note_off,,,,,100,0,12,,,,,5,,,41,100
16612,note_off,,,,,100,0,14,,,,,6,,,41,100
16648,note_off,,,,,136,0,16,,,,,7,,,41,100
16672,note_off,,,,,64,0,8,,,,,1,,,70,100
16704,note_on,,,,,56,0,16,,,,,7,,,53,100
16704,note_on,,,,,92,0,10,,,,,3,,,65,96
16704,note_on,,,,,92,0,14,,,,,6,,,53,100
16704,note_on,,,,,92,0,11,,,,,4,,,53,96
16704,note_on,,,,,92,0,12,,,,,5,,,41,96
16704,note_on,,,,,32,0,8,,,,,1,,,69,96
16704,note_on,,,,,92,0,9,,,,,2,,,72,96
16768,note_off,,,,,64,0,8,,,,,1,,,69,100
16800,note_on,,,,,32,0,8,,,,,1,,,67,96
16804,note_off,,,,,100,0,14,,,,,6,,,53,100
16804,note_off,,,,,100,0,12,,,,,5,,,41,100
16804,note_off,,,,,100,0,10,,,,,3,,,65,100
16804,note_off,,,,,100,0,11,,,,,4,,,53,100
16804,note_off,,,,,100,0,9,,,,,2,,,72,100
16840,note_off,,,,,136,0,16,,,,,7,,,53,100
16864,note_off,,,,,64,0,8,,,,,1,,,67,100
16892,note_off,,,,,380,0,15,,,,,7,,,72,100
16892,note_off,,,,,380,0,13,,,,,6,,,72,100
16896,note_on,,,,,92,0,12,,,,,5,,,41,100
16896,note_on,,,,,4,0,15,,,,,7,,,69,100
16896,note_on,,,,,92,0,10,,,,,3,,,60,100
16896,note_on,,,,,92,0,11,,,,,4,,,53,100
16896,note_on,,,,,92,0,9,,,,,2,,,75,100
16896,note_on,,,,,32,0,8,,,,,1,,,69,100
16896,note_on,,,,,56,0,16,,,,,7,,,53,100
16896,note_on,,,,,4,0,13,,,,,6,,,69,100
16896,note_on,,,,,92,0,14,,,,,6,,,53,100
16996,note_off,,,,,100,0,14,,,,,6,,,53,100
16996,note_off,,,,,100,0,12,,,,,5,,,41,100
16996,note_off,,,,,100,0,10,,,,,3,,,60,100
16996,note_off,,,,,100,0,11,,,,,4,,,53,100
16996,note_off,,,,,100,0,8,,,,,1,,,69,100
17032,note_off,,,,,136,0,16,,,,,7,,,53,100
17088,note_on,,,,,92,0,14,,,,,6,,,41,100
17088,note_on,,,,,92,0,11,,,,,4,,,41,98
17088,note_on,,,,,56,0,16,,,,,7,,,41,100
17088,note_on,,,,,92,0,10,,,,,3,,,57,98
17088,note_off,,,,,192,0,9,,,,,2,,,75,100
17088,note_on,,,,,92,0,12,,,,,5,,,41,98
17088,note_on,,,,,92,0,8,,,,,1,,,65,98
17152,note_off,,,,,256,0,13,,,,,6,,,63,100
17152,note_off,,,,,0,0,13,,,,,6,,,69,100
17152,note_off,,,,,256,0,15,,,,,7,,,63,100
17152,note_off,,,,,0,0,15,,,,,7,,,69,100
17184,note_on,,,,,96,0,9,,,,,2,,,74,97
17188,note_off,,,,,100,0,11,,,,,4,,,41,100
17188,note_off,,,,,100,0,12,,,,,5,,,41,100
17188,note_off,,,,,100,0,14,,,,,6,,,41,100
17188,note_off,,,,,100,0,8,,,,,1,,,65,100
17188,note_off,,,,,100,0,10,,,,,3,,,57,100
17224,note_off,,,,,136,0,16,,,,,7,,,41,100
17248,note_off,,,,,64,0,9,,,,,2,,,74,100
17280,note_on,,,,,0,0,15,,,,,7,,,69,100
17280,note_on,,,,,92,0,12,,,,,5,,,41,96
17280,note_on,,,,,92,0,11,,,,,4,,,41,96
17280,note_on,,,,,92,0,14,,,,,6,,,41,100
17280,note_on,,,,,32,0,9,,,,,2,,,72,96
17280,note_on,,,,,128,0,15,,,,,7,,,77,100
17280,note_on,,,,,128,0,13,,,,,6,,,77,100
17280,note_on,,,,,92,0,8,,,,,1,,,69,96
17280,note_on,,,,,56,0,16,,,,,7,,,41,100
17280,note_on,,,,,92,0,10,,,,,3,,,60,96
17280,note_on,,,,,0,0,13,,,,,6,,,69,100
17344,note_off,,,,,64,0,9,,,,,2,,,72,100
17376,note_on,,,,,32,0,9,,,,,2,,,70,94
17380,note_off,,,,,100,0,10,,,,,3,,,60,100
17380,note_off,,,,,100,0,11,,,,,4,,,41,100
17380,note_off,,,,,100,0,12,,,,,5,,,41,100
17380,note_off,,,,,100,0,14,,,,,6,,,41,100
17380,note_off,,,,,100,0,8,,,,,1,,,69,100
17416,note_off,,,,,136,0,16,,,,,7,,,41,100
17440,note_off,,,,,64,0,9,,,,,2,,,70,100
17472,note_on,,,,,32,0,9,,,,,2,,,69,93
17472,note_on,,,,,92,0,8,,,,,1,,,72,93
17472,note_on,,,,,92,0,14,,,,,6,,,53,100
17472,note_on,,,,,56,0,16,,,,,7,,,53,100
17472,note_on,,,,,92,0,12,,,,,5,,,41,93
17472,note_on,,,,,92,0,11,,,,,4,,,53,93
17472,note_on,,,,,92,0,10,,,,,3,,,65,93
17536,note_off,,,,,64,0,9,,,,,2,,,69,100
17568,note_on,,,,,32,0,9,,,,,2,,,67,92
17572,note_off,,,,,100,0,14,,,,,6,,,53,100
17572,note_off,,,,,100,0,12,,,,,5,,,41,100
17572,note_off,,,,,100,0,11,,,,,4,,,53,100
17572,note_off,,,,,100,0,8,,,,,1,,,72,100
17572,note_off,,,,,100,0,10,,,,,3,,,65,100
17608,note_off,,,,,136,0,16,,,,,7,,,53,100
17632,note_off,,,,,64,0,9,,,,,2,,,67,100
17660,note_off,,,,,380,0,15,,,,,7,,,77,100
17660,note_off,,,,,380,0,13,,,,,6,,,77,100
17664,note_on,,,,,56,0,16,,,,,7,,,53,100
17664,note_on,,,,,92,0,14,,,,,6,,,53,100
17664,note_on,,,,,92,0,10,,,,,3,,,60,90
17664,note_on,,,,,32,0,9,,,,,2,,,69,90
17664,note_on,,,,,92,0,12,,,,,5,,,41,90
17664,note_on,,,,,92,0,11,,,,,4,,,53,90
17664,note_on,,,,,92,0,8,,,,,1,,,75,90
17664,note_on,,,,,4,0,15,,,,,7,,,75,100
17664,note_on,,,,,4,0,13,,,,,6,,,75,100
17764,note_off,,,,,100,0,14,,,,,6,,,53,100
17764,note_off,,,,,100,0,11,,,,,4,,,53,100
17764,note_off,,,,,100,0,12,,,,,5,,,41,100
17764,note_off,,,,,100,0,9,,,,,2,,,69,100
17764,note_off,,,,,100,0,10,,,,,3,,,60,100
17800,note_off,,,,,136,0,16,,,,,7,,,53,100
17856,note_on,,,,,56,0,16,,,,,7,,,41,100
17856,note_off,,,,,192,0,8,,,,,1,,,75,100
17856,note_on,,,,,92,0,12,,,,,5,,,41,89
17856,note_on,,,,,92,0,14,,,,,6,,,41,100
17856,note_on,,,,,92,0,9,,,,,2,,,65,89
17856,note_on,,,,,92,0,10,,,,,3,,,57,89
17856,note_on,,,,,92,0,11,,,,,4,,,41,89
17920,note_off,,,,,256,0,15,,,,,7,,,69,100
17920,note_off,,,,,0,0,15,,,,,7,,,75,100
17920,note_off,,,,,256,0,13,,,,,6,,,69,100
17920,note_off,,,,,0,0,13,,,,,6,,,75,100
17952,note_on,,,,,96,0,8,,,,,1,,,74,88
17956,note_off,,,,,100,0,12,,,,,5,,,41,100
17956,note_off,,,,,100,0,14,,,,,6,,,41,100
17956,note_off,,,,,100,0,11,,,,,4,,,41,100
17956,note_off,,,,,100,0,9,,,,,2,,,65,100
17956,note_off,,,,,100,0,10,,,,,3,,,57,100
17992,note_off,,,,,136,0,16,,,,,7,,,41,100
18016,note_off,,,,,64,0,8,,,,,1,,,74,100
18048,note_on,,,,,0,0,13,,,,,6,,,63,100
18048,note_on,,,,,128,0,13,,,,,6,,,72,100
18048,note_on,,,,,92,0,14,,,,,6,,,41,100
18048,note_on,,,,,128,0,15,,,,,7,,,72,100
18048,note_on,,,,,92,0,9,,,,,2,,,69,88
18048,note_on,,,,,32,0,8,,,,,1,,,72,88
18048,note_on,,,,,56,0,16,,,,,7,,,41,100
18048,note_on,,,,,92,0,10,,,,,3,,,60,88
18048,note_on,,,,,92,0,11,,,,,4,,,41,88
18048,note_on,,,,,92,0,12,,,,,5,,,41,88
18048,note_on,,,,,0,0,15,,,,,7,,,63,100
18112,note_off,,,,,64,0,8,,,,,1,,,72,100
18144,note_on,,,,,32,0,8,,,,,1,,,70,87
18148,note_off,,,,,100,0,12,,,,,5,,,41,100
18148,note_off,,,,,100,0,9,,,,,2,,,69,100
18148,note_off,,,,,100,0,11,,,,,4,,,41,100
18148,note_off,,,,,100,0,10,,,,,3,,,60,100
18148,note_off,,,,,100,0,14,,,,,6,,,41,100
18184,note_off,,,,,136,0,16,,,,,7,,,41,100
18208,note_off,,,,,64,0,8,,,,,1,,,70,100
18240,note_on,,,,,92,0,12,,,,,5,,,41,86
18240,note_on,,,,,92,0,11,,,,,4,,,53,86
18240,note_on,,,,,92,0,14,,,,,6,,,53,100
18240,note_on,,,,,32,0,8,,,,,1,,,69,86
18240,note_on,,,,,56,0,16,,,,,7,,,53,100
18240,note_on,,,,,92,0,9,,,,,2,,,72,86
18240,note_on,,,,,92,0,10,,,,,3,,,65,86
18304,note_off,,,,,64,0,8,,,,,1,,,69,100
18336,note_on,,,,,32,0,8,,,,,1,,,67,86
18340,note_off,,,,,100,0,14,,,,,6,,,53,100
18340,note_off,,,,,100,0,11,,,,,4,,,53,100
18340,note_off,,,,,100,0,9,,,,,2,,,72,100
18340,note_off,,,,,100,0,10,,,,,3,,,65,100
18340,note_off,,,,,100,0,12,,,,,5,,,41,100
18376,note_off,,,,,136,0,16,,,,,7,,,53,100
18400,note_off,,,,,64,0,8,,,,,1,,,67,100
18428,note_off,,,,,380,0,13,,,,,6,,,72,100
18428,note_off,,,,,380,0,15,,,,,7,,,72,100
18432,note_on,,,,,92,0,12,,,,,5,,,41,90
18432,note_on,,,,,4,0,13,,,,,6,,,69,100
18432,note_on,,,,,92,0,14,,,,,6,,,53,100
18432,note_on,,,,,32,0,8,,,,,1,,,69,90
18432,note_on,,,,,92,0,11,,,,,4,,,53,90
18432,note_on,,,,,4,0,15,,,,,7,,,69,100
18432,note_on,,,,,56,0,16,,,,,7,,,53,100
18432,note_on,,,,,92,0,9,,,,,2,,,75,90
18432,note_on,,,,,92,0,10,,,,,3,,,60,90
18532,note_off,,,,,100,0,14,,,,,6,,,53,100
18532,note_off,,,,,100,0,10,,,,,3,,,60,100
18532,note_off,,,,,100,0,12,,,,,5,,,41,100
18532,note_off,,,,,100,0,11,,,,,4,,,53,100
18532,note_off,,,,,100,0,8,,,,,1,,,69,100
18568,note_off,,,,,136,0,16,,,,,7,,,53,100
18624,note_on,,,,,92,0,14,,,,,6,,,41,100
18624,note_on,,,,,92,0,11,,,,,4,,,41,89
18624,note_on,,,,,92,0,8,,,,,1,,,65,89
18624,note_on,,,,,92,0,12,,,,,5,,,41,89
18624,note_on,,,,,92,0,10,,,,,3,,,57,89
18624,note_off,,,,,192,0,9,,,,,2,,,75,100
18624,note_on,,,,,56,0,16,,,,,7,,,41,100
18688,note_off,,,,,0,0,13,,,,,6,,,69,100
18688,note_off,,,,,256,0,13,,,,,6,,,63,100
18688,note_off,,,,,0,0,15,,,,,7,,,69,100
18688,note_off,,,,,256,0,15,,,,,7,,,63,100
18720,note_on,,,,,96,0,9,,,,,2,,,74,88
18724,note_off,,,,,100,0,10,,,,,3,,,57,100
18724,note_off,,,,,100,0,11,,,,,4,,,41,100
18724,note_off,,,,,100,0,14,,,,,6,,,41,100
18724,note_off,,,,,100,0,8,,,,,1,,,65,100
18724,note_off,,,,,100,0,12,,,,,5,,,41,100
18760,note_off,,,,,136,0,16,,,,,7,,,41,100
18784,note_off,,,,,64,0,9,,,,,2,,,74,100
18816,note_on,,,,,92,0,14,,,,,6,,,41,100
18816,note_on,,,,,92,0,12,,,,,5,,,41,85
18816,note_on,,,,,56,0,16,,,,,7,,,41,100
18816,note_on,,,,,32,0,9,,,,,2,,,72,85
18816,note_on,,,,,128,0,15,,,,,7,,,69,100
18816,note_on,,,,,92,0,10,,,,,3,,,60,85
18816,note_on,,,,,0,0,13,,,,,6,,,77,100
18816,note_on,,,,,128,0,13,,,,,6,,,69,100
18816,note_on,,,,,0,0,15,,,,,7,,,77,100
18816,note_on,,,,,92,0,11,,,,,4,,,41,85
18880,note_off,,,,,64,0,9,,,,,2,,,72,100
18912,note_on,,,,,32,0,9,,,,,2,,,70,88
18916,note_off,,,,,100,0,11,,,,,4,,,41,100
18916,note_off,,,,,100,0,12,,,,,5,,,41,100
18916,note_off,,,,,100,0,14,,,,,6,,,41,100
18916,note_off,,,,,100,0,10,,,,,3,,,60,100
18952,note_off,,,,,136,0,16,,,,,7,,,41,100
18976,note_off,,,,,64,0,9,,,,,2,,,70,100
19008,note_on,,,,,92,0,12,,,,,5,,,41,92
19008,note_on,,,,,92,0,14,,,,,6,,,53,100
19008,note_on,,,,,56,0,16,,,,,7,,,53,100
19008,note_on,,,,,284,0,8,,,,,1,,,81,92
19008,note_on,,,,,92,0,11,,,,,4,,,53,92
19008,note_on,,,,,32,0,9,,,,,2,,,69,92
19008,note_on,,,,,92,0,10,,,,,3,,,65,92
19072,note_off,,,,,64,0,9,,,,,2,,,69,100
19072,note_off,,,,,0,0,15,,,,,7,,,77,100
19072,note_off,,,,,0,0,13,,,,,6,,,77,100
19072,note_off,,,,,256,0,15,,,,,7,,,69,100
19072,note_off,,,,,256,0,13,,,,,6,,,69,100
19104,note_on,,,,,32,0,9,,,,,2,,,72,96
19108,note_off,,,,,100,0,12,,,,,5,,,41,100
19108,note_off,,,,,100,0,8,,,,,1,,,81,100
19108,note_off,,,,,100,0,11,,,,,4,,,53,100
19108,note_off,,,,,100,0,14,,,,,6,,,53,100
19108,note_off,,,,,100,0,10,,,,,3,,,65,100
19144,note_off,,,,,136,0,16,,,,,7,,,53,100
19168,note_off,,,,,64,0,9,,,,,2,,,72,100
19200,note_on,,,,,92,0,14,,,,,6,,,58,100
19200,note_on,,,,,32,0,9,,,,,2,,,74,99
19200,note_on,,,,,56,0,16,,,,,7,,,58,100
19200,note_on,,,,,92,0,8,,,,,1,,,82,99
19200,note_on,,,,,92,0,11,,,,,4,,,58,99
19200,note_on,,,,,92,0,10,,,,,3,,,65,99
19200,note_on,,,,,92,0,12,,,,,5,,,46,99
19200,note_on,,,,,128,0,13,,,,,6,,,74,100
19200,note_on,,,,,128,0,15,,,,,7,,,77,100
19200,note_on,,,,,0,0,15,,,,,7,,,74,100
19200,note_on,,,,,0,0,13,,,,,6,,,77,100
19200,note_on,,,,,0,0,15,,,,,7,,,70,100
19300,note_off,,,,,100,0,11,,,,,4,,,58,100
19300,note_off,,,,,100,0,12,,,,,5,,,46,100
19300,note_off,,,,,100,0,9,,,,,2,,,74,100
19300,note_off,,,,,100,0,14,,,,,6,,,58,100
19328,note_off,,,,,128,0,13,,,,,6,,,74,100
19328,note_off,,,,,0,0,13,,,,,6,,,77,100
19336,note_off,,,,,136,0,16,,,,,7,,,58,100
19388,note_off,,,,,188,0,8,,,,,1,,,82,100
19392,note_on,,,,,0,0,13,,,,,6,,,65,100
19392,note_on,,,,,64,0,13,,,,,6,,,74,100
19392,note_on,,,,,92,0,11,,,,,4,,,46,100
19392,note_on,,,,,92,0,9,,,,,2,,,82,100
19392,note_on,,,,,92,0,14,,,,,6,,,46,100
19392,note_on,,,,,92,0,12,,,,,5,,,34,100
19392,note_on,,,,,56,0,16,,,,,7,,,46,100
19392,note_on,,,,,4,0,8,,,,,1,,,74,100
19492,note_off,,,,,100,0,11,,,,,4,,,46,100
19492,note_off,,,,,100,0,12,,,,,5,,,34,100
19492,note_off,,,,,100,0,14,,,,,6,,,46,100
19520,note_off,,,,,128,0,13,,,,,6,,,74,100
19520,note_off,,,,,0,0,13,,,,,6,,,65,100
19520,note_off,,,,,128,0,9,,,,,2,,,82,100
19528,note_off,,,,,136,0,16,,,,,7,,,46,100
19580,note_off,,,,,188,0,8,,,,,1,,,74,100
19584,note_on,,,,,56,0,16,,,,,7,,,46,100
19584,note_on,,,,,64,0,9,,,,,2,,,77,100
19584,note_on,,,,,4,0,8,,,,,1,,,77,100
19584,note_on,,,,,64,0,13,,,,,6,,,74,100
19584,note_off,,,,,384,0,10,,,,,3,,,65,100
19584,note_on,,,,,92,0,11,,,,,4,,,46,100
19584,note_on,,,,,92,0,12,,,,,5,,,34,100
19584,note_on,,,,,0,0,13,,,,,6,,,65,100
19584,note_on,,,,,92,0,14,,,,,6,,,46,100
19684,note_off,,,,,100,0,11,,,,,4,,,46,100
19684,note_off,,,,,100,0,12,,,,,5,,,34,100
19684,note_off,,,,,100,0,14,,,,,6,,,46,100
19712,note_off,,,,,128,0,9,,,,,2,,,77,100
19712,note_off,,,,,128,0,13,,,,,6,,,74,100
19712,note_off,,,,,0,0,13,,,,,6,,,65,100
19720,note_off,,,,,136,0,16,,,,,7,,,46,100
19772,note_off,,,,,188,0,8,,,,,1,,,77,100
19776,note_on,,,,,64,0,13,,,,,6,,,77,100
19776,note_on,,,,,92,0,14,,,,,6,,,58,100
19776,note_on,,,,,92,0,11,,,,,4,,,58,100
19776,note_on,,,,,0,0,13,,,,,6,,,74,100
19776,note_on,,,,,4,0,8,,,,,1,,,82,100
19776,note_on,,,,,92,0,12,,,,,5,,,46,100
19776,note_on,,,,,192,0,10,,,,,3,,,65,100
19776,note_on,,,,,64,0,9,,,,,2,,,74,100
19776,note_on,,,,,56,0,16,,,,,7,,,58,100
19812,note_off,,,,,0,0,15,,,,,7,,,70,100
19812,note_off,,,,,0,0,15,,,,,7,,,74,100
19812,note_off,,,,,612,0,15,,,,,7,,,77,100
19876,note_off,,,,,100,0,10,,,,,3,,,65,100
19876,note_off,,,,,100,0,11,,,,,4,,,58,100
19876,note_off,,,,,100,0,14,,,,,6,,,58,100
19876,note_off,,,,,100,0,12,,,,,5,,,46,100
19904,note_off,,,,,128,0,8,,,,,1,,,82,100
19904,note_off,,,,,0,0,13,,,,,6,,,74,100
19904,note_off,,,,,128,0,13,,,,,6,,,77,100
19904,note_off,,,,,128,0,9,,,,,2,,,74,100
19912,note_off,,,,,136,0,16,,,,,7,,,58,100
19968,note_on,,,,,64,0,8,,,,,1,,,82,100
19968,note_on,,,,,56,0,16,,,,,7,,,58,100
19968,note_on,,,,,0,0,13,,,,,6,,,77,100
19968,note_on,,,,,64,0,13,,,,,6,,,74,100
19968,note_on,,,,,92,0,11,,,,,4,,,58,100
19968,note_on,,,,,92,0,10,,,,,3,,,65,100
19968,note_on,,,,,92,0,14,,,,,6,,,58,100
19968,note_on,,,,,0,0,15,,,,,7,,,70,100
19968,note_on,,,,,0,0,15,,,,,7,,,74,100
19968,note_on,,,,,156,0,15,,,,,7,,,77,100
19968,note_on,,,,,92,0,12,,,,,5,,,46,100
20068,note_off,,,,,100,0,11,,,,,4,,,58,100
20068,note_off,,,,,100,0,12,,,,,5,,,46,100
20068,note_off,,,,,100,0,14,,,,,6,,,58,100
20096,note_off,,,,,0,0,13,,,,,6,,,77,100
20096,note_off,,,,,128,0,13,,,,,6,,,74,100
20104,note_off,,,,,136,0,16,,,,,7,,,58,100
20156,note_off,,,,,188,0,8,,,,,1,,,82,100
20160,note_on,,,,,92,0,14,,,,,6,,,46,100
20160,note_on,,,,,92,0,12,,,,,5,,,34,100
20160,note_on,,,,,256,0,9,,,,,2,,,82,100
20160,note_on,,,,,64,0,13,,,,,6,,,74,100
20160,note_on,,,,,56,0,16,,,,,7,,,46,100
20160,note_on,,,,,92,0,11,,,,,4,,,46,100
20160,note_on,,,,,4,0,8,,,,,1,,,74,100
20160,note_on,,,,,0,0,13,,,,,6,,,65,100
20260,note_off,,,,,100,0,14,,,,,6,,,46,100
20260,note_off,,,,,100,0,11,,,,,4,,,46,100
20260,note_off,,,,,100,0,12,,,,,5,,,34,100
20288,note_off,,,,,128,0,13,,,,,6,,,74,100
20288,note_off,,,,,0,0,13,,,,,6,,,65,100
20288,note_off,,,,,128,0,9,,,,,2,,,82,100
20296,note_off,,,,,136,0,16,,,,,7,,,46,100
20348,note_off,,,,,188,0,8,,,,,1,,,74,100
20352,note_on,,,,,4,0,8,,,,,1,,,77,100
20352,note_off,,,,,384,0,10,,,,,3,,,65,100
20352,note_on,,,,,56,0,16,,,,,7,,,46,100
20352,note_on,,,,,92,0,12,,,,,5,,,34,100
20352,note_on,,,,,92,0,14,,,,,6,,,46,100
20352,note_on,,,,,64,0,9,,,,,2,,,77,100
20352,note_on,,,,,64,0,13,,,,,6,,,74,100
20352,note_on,,,,,0,0,13,,,,,6,,,65,100
20352,note_on,,,,,92,0,11,,,,,4,,,46,100
20452,note_off,,,,,100,0,12,,,,,5,,,34,100
20452,note_off,,,,,100,0,11,,,,,4,,,46,100
20452,note_off,,,,,100,0,14,,,,,6,,,46,100
20480,note_off,,,,,0,0,13,,,,,6,,,65,100
20480,note_off,,,,,128,0,13,,,,,6,,,74,100
20480,note_off,,,,,128,0,9,,,,,2,,,77,100
20488,note_off,,,,,136,0,16,,,,,7,,,46,100
20540,note_off,,,,,188,0,8,,,,,1,,,77,100
20544,note_on,,,,,192,0,10,,,,,3,,,65,100
20544,note_on,,,,,92,0,14,,,,,6,,,58,100
20544,note_on,,,,,64,0,9,,,,,2,,,74,100
20544,note_on,,,,,0,0,13,,,,,6,,,74,100
20544,note_on,,,,,92,0,11,,,,,4,,,58,100
20544,note_on,,,,,4,0,8,,,,,1,,,82,100
20544,note_on,,,,,64,0,13,,,,,6,,,77,100
20544,note_on,,,,,56,0,16,,,,,7,,,58,100
20544,note_on,,,,,92,0,12,,,,,5,,,46,100
20580,note_off,,,,,612,0,15,,,,,7,,,77,100
20580,note_off,,,,,0,0,15,,,,,7,,,74,100
20580,note_off,,,,,0,0,15,,,,,7,,,70,100
20644,note_off,,,,,100,0,11,,,,,4,,,58,100
20644,note_off,,,,,100,0,10,,,,,3,,,65,100
20644,note_off,,,,,100,0,14,,,,,6,,,58,100
20644,note_off,,,,,100,0,12,,,,,5,,,46,100
20672,note_off,,,,,128,0,13,,,,,6,,,77,100
20672,note_off,,,,,0,0,13,,,,,6,,,74,100
20672,note_off,,,,,128,0,8,,,,,1,,,82,100
20672,note_off,,,,,128,0,9,,,,,2,,,74,100
20680,note_off,,,,,136,0,16,,,,,7,,,58,100
20736,note_on,,,,,64,0,13,,,,,6,,,72,100
20736,note_on,,,,,92,0,10,,,,,3,,,65,100
20736,note_on,,,,,64,0,8,,,,,1,,,82,100
20736,note_on,,,,,156,0,15,,,,,7,,,77,100
20736,note_on,,,,,0,0,15,,,,,7,,,72,100
20736,note_on,,,,,92,0,12,,,,,5,,,41,100
20736,note_on,,,,,56,0,16,,,,,7,,,53,100
20736,note_on,,,,,92,0,14,,,,,6,,,53,100
20736,note_on,,,,,0,0,15,,,,,7,,,70,100
20736,note_on,,,,,92,0,11,,,,,4,,,53,100
20736,note_on,,,,,0,0,13,,,,,6,,,77,100
20836,note_off,,,,,100,0,14,,,,,6,,,53,100
20836,note_off,,,,,100,0,12,,,,,5,,,41,100
20836,note_off,,,,,100,0,11,,,,,4,,,53,100
20864,note_off,,,,,0,0,13,,,,,6,,,77,100
20864,note_off,,,,,128,0,13,,,,,6,,,72,100
20872,note_off,,,,,136,0,16,,,,,7,,,53,100
20924,note_off,,,,,188,0,8,,,,,1,,,82,100
20928,note_on,,,,,56,0,16,,,,,7,,,41,100
20928,note_on,,,,,92,0,12,,,,,5,,,41,100
20928,note_on,,,,,92,0,11,,,,,4,,,41,100
20928,note_on,,,,,4,0,8,,,,,1,,,72,100
20928,note_on,,,,,256,0,9,,,,,2,,,82,100
20928,note_on,,,,,0,0,13,,,,,6,,,72,100
20928,note_on,,,,,92,0,14,,,,,6,,,41,100
20928,note_on,,,,,64,0,13,,,,,6,,,70,100
21028,note_off,,,,,100,0,12,,,,,5,,,41,100
21028,note_off,,,,,100,0,14,,,,,6,,,41,100
21028,note_off,,,,,100,0,11,,,,,4,,,41,100
21056,note_off,,,,,128,0,9,,,,,2,,,82,100
21056,note_off,,,,,0,0,13,,,,,6,,,72,100
21056,note_off,,,,,128,0,13,,,,,6,,,70,100
21064,note_off,,,,,136,0,16,,,,,7,,,41,100
21116,note_off,,,,,188,0,8,,,,,1,,,72,100
21120,note_on,,,,,0,0,13,,,,,6,,,72,100
21120,note_on,,,,,64,0,13,,,,,6,,,70,100
21120,note_on,,,,,64,0,9,,,,,2,,,77,99
21120,note_off,,,,,384,0,10,,,,,3,,,65,100
21120,note_on,,,,,92,0,14,,,,,6,,,41,100
21120,note_on,,,,,56,0,16,,,,,7,,,41,100
21120,note_on,,,,,92,0,11,,,,,4,,,41,99
21120,note_on,,,,,4,0,8,,,,,1,,,77,99
21120,note_on,,,,,92,0,12,,,,,5,,,41,99
21220,note_off,,,,,100,0,14,,,,,6,,,41,100
21220,note_off,,,,,100,0,11,,,,,4,,,41,100
21220,note_off,,,,,100,0,12,,,,,5,,,41,100
21248,note_off,,,,,128,0,9,,,,,2,,,77,100
21248,note_off,,,,,128,0,13,,,,,6,,,70,100
21248,note_off,,,,,0,0,13,,,,,6,,,72,100
21256,note_off,,,,,136,0,16,,,,,7,,,41,100
21308,note_off,,,,,188,0,8,,,,,1,,,77,100
21312,note_on,,,,,64,0,9,,,,,2,,,72,98
21312,note_on,,,,,4,0,8,,,,,1,,,82,98
21312,note_on,,,,,92,0,11,,,,,4,,,53,98
21312,note_on,,,,,92,0,14,,,,,6,,,53,100
21312,note_on,,,,,0,0,13,,,,,6,,,77,100
21312,note_on,,,,,192,0,10,,,,,3,,,65,98
21312,note_on,,,,,92,0,12,,,,,5,,,41,98
21312,note_on,,,,,56,0,16,,,,,7,,,53,100
21312,note_on,,,,,64,0,13,,,,,6,,,72,100
21348,note_off,,,,,612,0,15,,,,,7,,,77,100
21348,note_off,,,,,0,0,15,,,,,7,,,72,100
21348,note_off,,,,,0,0,15,,,,,7,,,70,100
21412,note_off,,,,,100,0,10,,,,,3,,,65,100
21412,note_off,,,,,100,0,14,,,,,6,,,53,100
21412,note_off,,,,,100,0,12,,,,,5,,,41,100
21412,note_off,,,,,100,0,11,,,,,4,,,53,100
21440,note_off,,,,,128,0,8,,,,,1,,,82,100
21440,note_off,,,,,0,0,13,,,,,6,,,77,100
21440,note_off,,,,,128,0,9,,,,,2,,,72,100
21440,note_off,,,,,128,0,13,,,,,6,,,72,100
21448,note_off,,,,,136,0,16,,,,,7,,,53,100
21504,note_on,,,,,64,0,8,,,,,1,,,81,98
21504,note_on,,,,,92,0,10,,,,,3,,,65,98
21504,note_on,,,,,0,0,13,,,,,6,,,77,100
21504,note_on,,,,,64,0,13,,,,,6,,,72,100
21504,note_on,,,,,0,0,15,,,,,7,,,69,100
21504,note_on,,,,,0,0,15,,,,,7,,,72,100
21504,note_on,,,,,156,0,15,,,,,7,,,77,100
21504,note_on,,,,,92,0,14,,,,,6,,,53,100
21504,note_on,,,,,56,0,16,,,,,7,,,53,100
21504,note_on,,,,,92,0,12,,,,,5,,,41,98
21504,note_on,,,,,92,0,11,,,,,4,,,53,98
21604,note_off,,,,,100,0,11,,,,,4,,,53,100
21604,note_off,,,,,100,0,14,,,,,6,,,53,100
21604,note_off,,,,,100,0,12,,,,,5,,,41,100
21632,note_off,,,,,128,0,13,,,,,6,,,72,100
21632,note_off,,,,,0,0,13,,,,,6,,,77,100
21640,note_off,,,,,136,0,16,,,,,7,,,53,100
21692,note_off,,,,,188,0,8,,,,,1,,,81,100
21696,note_on,,,,,92,0,11,,,,,4,,,41,97
21696,note_on,,,,,92,0,14,,,,,6,,,41,100
21696,note_on,,,,,4,0,8,,,,,1,,,72,97
21696,note_on,,,,,64,0,13,,,,,6,,,69,100
21696,note_on,,,,,256,0,9,,,,,2,,,81,97
21696,note_on,,,,,92,0,12,,,,,5,,,41,97
21696,note_on,,,,,0,0,13,,,,,6,,,72,100
21696,note_on,,,,,56,0,16,,,,,7,,,41,100
21796,note_off,,,,,100,0,11,,,,,4,,,41,100
21796,note_off,,,,,100,0,12,,,,,5,,,41,100
21796,note_off,,,,,100,0,14,,,,,6,,,41,100
21824,note_off,,,,,128,0,13,,,,,6,,,69,100
21824,note_off,,,,,128,0,9,,,,,2,,,81,100
21824,note_off,,,,,0,0,13,,,,,6,,,72,100
21832,note_off,,,,,136,0,16,,,,,7,,,41,100
21884,note_off,,,,,188,0,8,,,,,1,,,72,100
21888,note_on,,,,,64,0,13,,,,,6,,,69,100
21888,note_off,,,,,384,0,10,,,,,3,,,65,100
21888,note_on,,,,,0,0,13,,,,,6,,,72,100
21888,note_on,,,,,64,0,9,,,,,2,,,77,96
21888,note_on,,,,,92,0,14,,,,,6,,,41,100
21888,note_on,,,,,4,0,8,,,,,1,,,77,96
21888,note_on,,,,,92,0,12,,,,,5,,,41,96
21888,note_on,,,,,56,0,16,,,,,7,,,41,100
21888,note_on,,,,,92,0,11,,,,,4,,,41,96
21988,note_off,,,,,100,0,14,,,,,6,,,41,100
21988,note_off,,,,,100,0,11,,,,,4,,,41,100
21988,note_off,,,,,100,0,12,,,,,5,,,41,100
22016,note_off,,,,,0,0,13,,,,,6,,,72,100
22016,note_off,,,,,128,0,9,,,,,2,,,77,100
22016,note_off,,,,,128,0,13,,,,,6,,,69,100
22024,note_off,,,,,136,0,16,,,,,7,,,41,100
22076,note_off,,,,,188,0,8,,,,,1,,,77,100
22080,note_on,,,,,64,0,13,,,,,6,,,69,100
22080,note_on,,,,,0,0,13,,,,,6,,,77,100
22080,note_on,,,,,4,0,8,,,,,1,,,81,96
22080,note_on,,,,,64,0,9,,,,,2,,,72,96
22080,note_on,,,,,92,0,14,,,,,6,,,53,100
22080,note_on,,,,,92,0,11,,,,,4,,,53,96
22080,note_on,,,,,92,0,12,,,,,5,,,41,96
22080,note_on,,,,,56,0,16,,,,,7,,,53,100
22080,note_on,,,,,192,0,10,,,,,3,,,65,96
22116,note_off,,,,,612,0,15,,,,,7,,,77,100
22116,note_off,,,,,0,0,15,,,,,7,,,72,100
22116,note_off,,,,,0,0,15,,,,,7,,,69,100
22180,note_off,,,,,100,0,10,,,,,3,,,65,100
22180,note_off,,,,,100,0,11,,,,,4,,,53,100
22180,note_off,,,,,100,0,12,,,,,5,,,41,100
22180,note_off,,,,,100,0,14,,,,,6,,,53,100
22208,note_off,,,,,128,0,13,,,,,6,,,69,100
22208,note_off,,,,,0,0,13,,,,,6,,,77,100
22208,note_off,,,,,128,0,8,,,,,1,,,81,100
22208,note_off,,,,,128,0,9,,,,,2,,,72,100
22216,note_off,,,,,136,0,16,,,,,7,,,53,100
22272,note_on,,,,,156,0,15,,,,,7,,,77,100
22272,note_on,,,,,64,0,13,,,,,6,,,77,100
22272,note_on,,,,,0,0,13,,,,,6,,,74,100
22272,note_on,,,,,92,0,12,,,,,5,,,34,100
22272,note_on,,,,,0,0,15,,,,,7,,,74,100
22272,note_on,,,,,56,0,16,,,,,7,,,46,100
22272,note_on,,,,,0,0,15,,,,,7,,,70,100
22272,note_on,,,,,0,0,13,,,,,6,,,70,100
22272,note_on,,,,,92,0,10,,,,,3,,,65,100
22272,note_on,,,,,64,0,8,,,,,1,,,70,100
22272,note_on,,,,,92,0,11,,,,,4,,,46,100
22272,note_on,,,,,64,0,9,,,,,2,,,74,100
22272,note_on,,,,,92,0,14,,,,,6,,,46,100
22372,note_off,,,,,100,0,11,,,,,4,,,46,100
22372,note_off,,,,,100,0,8,,,,,1,,,70,100
22372,note_off,,,,,100,0,12,,,,,5,,,34,100
22372,note_off,,,,,100,0,14,,,,,6,,,46,100
22400,note_off,,,,,0,0,13,,,,,6,,,74,100
22400,note_off,,,,,128,0,13,,,,,6,,,77,100
22400,note_off,,,,,0,0,13,,,,,6,,,70,100
22408,note_off,,,,,136,0,16,,,,,7,,,46,100
22464,note_on,,,,,64,0,13,,,,,6,,,65,100
22464,note_on,,,,,92,0,8,,,,,1,,,65,100
22464,note_on,,,,,92,0,12,,,,,5,,,46,100
22464,note_on,,,,,92,0,11,,,,,4,,,58,100
22464,note_on,,,,,56,0,16,,,,,7,,,58,100
22464,note_on,,,,,92,0,14,,,,,6,,,58,100
22528,note_off,,,,,256,0,9,,,,,2,,,74,100
22528,note_off,,,,,256,0,10,,,,,3,,,65,100
22528,note_off,,,,,256,0,15,,,,,7,,,77,100
22528,note_off,,,,,0,0,15,,,,,7,,,70,100
22528,note_off,,,,,0,0,15,,,,,7,,,74,100
22564,note_off,,,,,100,0,14,,,,,6,,,58,100
22564,note_off,,,,,100,0,8,,,,,1,,,65,100
22564,note_off,,,,,100,0,11,,,,,4,,,58,100
22564,note_off,,,,,100,0,12,,,,,5,,,46,100
22592,note_off,,,,,128,0,13,,,,,6,,,65,100
22600,note_off,,,,,136,0,16,,,,,7,,,58,100
22656,note_on,,,,,64,0,13,,,,,6,,,72,100
22656,note_on,,,,,128,0,10,,,,,3,,,65,100
22656,note_on,,,,,92,0,11,,,,,4,,,57,100
22656,note_on,,,,,92,0,14,,,,,6,,,57,100
22656,note_on,,,,,56,0,16,,,,,7,,,57,100
22656,note_on,,,,,92,0,8,,,,,1,,,72,100
22656,note_on,,,,,0,0,15,,,,,7,,,69,100
22656,note_on,,,,,128,0,15,,,,,7,,,60,100
22656,note_on,,,,,92,0,12,,,,,5,,,45,100
22756,note_off,,,,,100,0,11,,,,,4,,,57,100
22756,note_off,,,,,100,0,14,,,,,6,,,57,100
22756,note_off,,,,,100,0,8,,,,,1,,,72,100
22756,note_off,,,,,100,0,12,,,,,5,,,45,100
22784,note_off,,,,,128,0,13,,,,,6,,,72,100
22792,note_off,,,,,136,0,16,,,,,7,,,57,100
22848,note_on,,,,,56,0,16,,,,,7,,,53,100
22848,note_on,,,,,92,0,14,,,,,6,,,53,100
22848,note_on,,,,,92,0,8,,,,,1,,,65,100
22848,note_on,,,,,64,0,13,,,,,6,,,69,100
22848,note_on,,,,,92,0,12,,,,,5,,,41,100
22848,note_on,,,,,92,0,11,,,,,4,,,53,100
22912,note_off,,,,,256,0,10,,,,,3,,,65,100
22912,note_off,,,,,0,0,15,,,,,7,,,69,100
22912,note_off,,,,,256,0,15,,,,,7,,,60,100
22948,note_off,,,,,100,0,12,,,,,5,,,41,100
22948,note_off,,,,,100,0,8,,,,,1,,,65,100
22948,note_off,,,,,100,0,11,,,,,4,,,53,100
22948,note_off,,,,,100,0,14,,,,,6,,,53,100
22976,note_off,,,,,128,0,13,,,,,6,,,69,100
22984,note_off,,,,,136,0,16,,,,,7,,,53,100
23040,note_on,,,,,92,0,11,,,,,4,,,46,100
23040,note_on,,,,,64,0,13,,,,,6,,,70,100
23040,note_on,,,,,0,0,13,,,,,6,,,74,100
23040,note_on,,,,,92,0,12,,,,,5,,,34,100
23040,note_on,,,,,128,0,15,,,,,7,,,65,100
23040,note_on,,,,,56,0,16,,,,,7,,,46,100
23040,note_on,,,,,128,0,10,,,,,3,,,65,100
23040,note_on,,,,,92,0,14,,,,,6,,,46,100
23040,note_on,,,,,92,0,8,,,,,1,,,74,100
23040,note_on,,,,,512,0,9,,,,,2,,,70,100
23040,note_on,,,,,0,0,15,,,,,7,,,70,100
23040,note_on,,,,,0,0,15,,,,,7,,,62,100
23140,note_off,,,,,100,0,9,,,,,2,,,70,100
23140,note_off,,,,,100,0,14,,,,,6,,,46,100
23140,note_off,,,,,100,0,11,,,,,4,,,46,100
23140,note_off,,,,,100,0,12,,,,,5,,,34,100
23168,note_off,,,,,128,0,13,,,,,6,,,70,100
23168,note_off,,,,,0,0,13,,,,,6,,,74,100
23176,note_off,,,,,136,0,16,,,,,7,,,46,100
23232,note_on,,,,,64,0,13,,,,,6,,,65,100
23232,note_on,,,,,92,0,9,,,,,2,,,65,100
23232,note_on,,,,,92,0,11,,,,,4,,,58,100
23232,note_on,,,,,92,0,12,,,,,5,,,46,100
23232,note_on,,,,,56,0,16,,,,,7,,,58,100
23232,note_on,,,,,92,0,14,,,,,6,,,58,100
23296,note_off,,,,,256,0,8,,,,,1,,,74,100
23296,note_off,,,,,256,0,10,,,,,3,,,65,100
23332,note_off,,,,,100,0,12,,,,,5,,,46,100
23332,note_off,,,,,100,0,11,,,,,4,,,58,100
23332,note_off,,,,,100,0,9,,,,,2,,,65,100
23332,note_off,,,,,100,0,14,,,,,6,,,58,100
23344,note_off,,,,,0,0,15,,,,,7,,,70,100
23344,note_off,,,,,304,0,15,,,,,7,,,62,100
23360,note_off,,,,,128,0,13,,,,,6,,,65,100
23368,note_off,,,,,136,0,16,,,,,7,,,58,100
23424,note_on,,,,,128,0,8,,,,,1,,,72,100
23424,note_on,,,,,0,0,15,,,,,7,,,69,100
23424,note_on,,,,,80,0,15,,,,,7,,,60,100
23424,note_on,,,,,64,0,13,,,,,6,,,72,100
23424,note_on,,,,,92,0,11,,,,,4,,,57,100
23424,note_on,,,,,92,0,14,,,,,6,,,57,100
23424,note_on,,,,,92,0,9,,,,,2,,,72,100
23424,note_on,,,,,92,0,12,,,,,5,,,45,100
23424,note_on,,,,,56,0,16,,,,,7,,,57,100
23424,note_on,,,,,128,0,10,,,,,3,,,65,100
23524,note_off,,,,,100,0,9,,,,,2,,,72,100
23524,note_off,,,,,100,0,11,,,,,4,,,57,100
23524,note_off,,,,,100,0,12,,,,,5,,,45,100
23524,note_off,,,,,100,0,14,,,,,6,,,57,100
23552,note_off,,,,,128,0,13,,,,,6,,,72,100
23560,note_off,,,,,136,0,16,,,,,7,,,57,100
23616,note_on,,,,,92,0,9,,,,,2,,,65,100
23616,note_on,,,,,92,0,11,,,,,4,,,53,100
23616,note_on,,,,,56,0,16,,,,,7,,,53,100
23616,note_on,,,,,92,0,12,,,,,5,,,41,100
23616,note_on,,,,,64,0,13,,,,,6,,,69,100
23616,note_on,,,,,92,0,14,,,,,6,,,53,100
23680,note_off,,,,,256,0,8,,,,,1,,,72,100
23680,note_off,,,,,256,0,10,,,,,3,,,65,100
23716,note_off,,,,,100,0,12,,,,,5,,,41,100
23716,note_off,,,,,100,0,11,,,,,4,,,53,100
23716,note_off,,,,,100,0,9,,,,,2,,,65,100
23716,note_off,,,,,100,0,14,,,,,6,,,53,100
23728,note_off,,,,,0,0,15,,,,,7,,,69,100
23728,note_off,,,,,304,0,15,,,,,7,,,60,100
23744,note_off,,,,,128,0,13,,,,,6,,,69,100
23752,note_off,,,,,136,0,16,,,,,7,,,53,100
23808,note_on,,,,,92,0,9,,,,,2,,,74,100
23808,note_on,,,,,92,0,12,,,,,5,,,34,100
23808,note_on,,,,,92,0,14,,,,,6,,,46,100
23808,note_on,,,,,80,0,15,,,,,7,,,62,100
23808,note_on,,,,,128,0,10,,,,,3,,,65,100
23808,note_on,,,,,0,0,15,,,,,7,,,70,100
23808,note_on,,,,,128,0,8,,,,,1,,,70,100
23808,note_on,,,,,0,0,13,,,,,6,,,74,100
23808,note_on,,,,,92,0,11,,,,,4,,,46,100
23808,note_on,,,,,56,0,16,,,,,7,,,46,100
23808,note_on,,,,,64,0,13,,,,,6,,,70,100
23908,note_off,,,,,100,0,11,,,,,4,,,46,100
23908,note_off,,,,,100,0,8,,,,,1,,,70,100
23908,note_off,,,,,100,0,14,,,,,6,,,46,100
23908,note_off,,,,,100,0,12,,,,,5,,,34,100
23936,note_off,,,,,128,0,13,,,,,6,,,70,100
23936,note_off,,,,,0,0,13,,,,,6,,,74,100
23944,note_off,,,,,136,0,16,,,,,7,,,46,100
24000,note_on,,,,,92,0,11,,,,,4,,,58,99
24000,note_on,,,,,92,0,8,,,,,1,,,65,99
24000,note_on,,,,,92,0,12,,,,,5,,,46,99
24000,note_on,,,,,92,0,14,,,,,6,,,58,100
24000,note_on,,,,,64,0,13,,,,,6,,,65,100
24000,note_on,,,,,56,0,16,,,,,7,,,58,100
24064,note_off,,,,,256,0,9,,,,,2,,,74,100
24064,note_off,,,,,256,0,10,,,,,3,,,65,100
24100,note_off,,,,,100,0,12,,,,,5,,,46,100
24100,note_off,,,,,100,0,14,,,,,6,,,58,100
24100,note_off,,,,,100,0,8,,,,,1,,,65,100
24100,note_off,,,,,100,0,11,,,,,4,,,58,100
24112,note_off,,,,,0,0,15,,,,,7,,,70,100
24112,note_off,,,,,304,0,15,,,,,7,,,62,100
24128,note_off,,,,,128,0,13,,,,,6,,,65,100
24136,note_off,,,,,136,0,16,,,,,7,,,58,100
24192,note_on,,,,,0,0,15,,,,,7,,,69,100
24192,note_on,,,,,80,0,15,,,,,7,,,60,100
24192,note_on,,,,,56,0,16,,,,,7,,,57,100
24192,note_on,,,,,128,0,10,,,,,3,,,65,97
24192,note_on,,,,,92,0,8,,,,,1,,,72,97
24192,note_on,,,,,128,0,9,,,,,2,,,72,97
24192,note_on,,,,,64,0,13,,,,,6,,,72,100
24192,note_on,,,,,92,0,12,,,,,5,,,45,97
24192,note_on,,,,,92,0,11,,,,,4,,,57,97
24192,note_on,,,,,92,0,14,,,,,6,,,57,100
24292,note_off,,,,,100,0,14,,,,,6,,,57,100
24292,note_off,,,,,100,0,8,,,,,1,,,72,100
24292,note_off,,,,,100,0,12,,,,,5,,,45,100
24292,note_off,,,,,100,0,11,,,,,4,,,57,100
24320,note_off,,,,,128,0,13,,,,,6,,,72,100
24328,note_off,,,,,136,0,16,,,,,7,,,57,100
24384,note_on,,,,,92,0,11,,,,,4,,,53,96
24384,note_on,,,,,92,0,8,,,,,1,,,65,96
24384,note_on,,,,,64,0,13,,,,,6,,,69,100
24384,note_on,,,,,92,0,12,,,,,5,,,41,96
24384,note_on,,,,,56,0,16,,,,,7,,,53,100
24384,note_on,,,,,92,0,14,,,,,6,,,53,100
24448,note_off,,,,,256,0,10,,,,,3,,,65,100
24448,note_off,,,,,256,0,9,,,,,2,,,72,100
24448,note_off,,,,,256,0,15,,,,,7,,,65,100
24484,note_off,,,,,100,0,12,,,,,5,,,41,100
24484,note_off,,,,,100,0,8,,,,,1,,,65,100
24484,note_off,,,,,100,0,11,,,,,4,,,53,100
24484,note_off,,,,,100,0,14,,,,,6,,,53,100
24496,note_off,,,,,48,0,15,,,,,7,,,60,100
24496,note_off,,,,,0,0,15,,,,,7,,,69,100
24512,note_off,,,,,128,0,13,,,,,6,,,69,100
24520,note_off,,,,,136,0,16,,,,,7,,,53,100
24576,note_on,,,,,128,0,10,,,,,3,,,65,95
24576,note_on,,,,,92,0,14,,,,,6,,,46,100
24576,note_on,,,,,128,0,9,,,,,2,,,70,95
24576,note_on,,,,,80,0,15,,,,,7,,,65,100
24576,note_on,,,,,92,0,12,,,,,5,,,34,95
24576,note_on,,,,,92,0,8,,,,,1,,,74,95
24576,note_on,,,,,64,0,13,,,,,6,,,77,100
24576,note_on,,,,,92,0,11,,,,,4,,,46,95
24576,note_on,,,,,56,0,16,,,,,7,,,46,100
24676,note_off,,,,,100,0,9,,,,,2,,,70,100
24676,note_off,,,,,100,0,10,,,,,3,,,65,100
24676,note_off,,,,,100,0,11,,,,,4,,,46,100
24676,note_off,,,,,100,0,14,,,,,6,,,46,100
24676,note_off,,,,,100,0,12,,,,,5,,,34,100
24704,note_off,,,,,128,0,13,,,,,6,,,77,100
24704,note_off,,,,,128,0,15,,,,,7,,,65,100
24712,note_off,,,,,136,0,16,,,,,7,,,46,100
24768,note_on,,,,,0,0,15,,,,,7,,,70,100
24768,note_on,,,,,92,0,9,,,,,2,,,74,97
24768,note_on,,,,,92,0,11,,,,,4,,,58,97
24768,note_on,,,,,92,0,12,,,,,5,,,46,97
24768,note_on,,,,,64,0,13,,,,,6,,,74,100
24768,note_on,,,,,0,0,13,,,,,6,,,70,100
24768,note_on,,,,,64,0,15,,,,,7,,,62,100
24768,note_on,,,,,92,0,10,,,,,3,,,70,97
24768,note_on,,,,,92,0,14,,,,,6,,,58,100
24768,note_on,,,,,56,0,16,,,,,7,,,58,100
24832,note_off,,,,,256,0,8,,,,,1,,,74,100
24868,note_off,,,,,100,0,12,,,,,5,,,46,100
24868,note_off,,,,,100,0,10,,,,,3,,,70,100
24868,note_off,,,,,100,0,9,,,,,2,,,74,100
24868,note_off,,,,,100,0,14,,,,,6,,,58,100
24868,note_off,,,,,100,0,11,,,,,4,,,58,100
24896,note_off,,,,,128,0,15,,,,,7,,,62,100
24896,note_off,,,,,128,0,13,,,,,6,,,74,100
24904,note_off,,,,,136,0,16,,,,,7,,,58,100
24960,note_on,,,,,92,0,10,,,,,3,,,67,99
24960,note_on,,,,,92,0,12,,,,,5,,,48,99
24960,note_on,,,,,56,0,16,,,,,7,,,60,100
24960,note_on,,,,,92,0,11,,,,,4,,,60,99
24960,note_on,,,,,128,0,8,,,,,1,,,76,99
24960,note_on,,,,,92,0,9,,,,,2,,,70,99
24960,note_on,,,,,64,0,13,,,,,6,,,76,100
24960,note_on,,,,,92,0,14,,,,,6,,,60,100
24960,note_on,,,,,64,0,15,,,,,7,,,64,100
25024,note_off,,,,,64,0,15,,,,,7,,,70,100
25024,note_off,,,,,64,0,13,,,,,6,,,70,100
25060,note_off,,,,,100,0,9,,,,,2,,,70,100
25060,note_off,,,,,100,0,11,,,,,4,,,60,100
25060,note_off,,,,,100,0,14,,,,,6,,,60,100
25060,note_off,,,,,100,0,10,,,,,3,,,67,100
25060,note_off,,,,,100,0,12,,,,,5,,,48,100
25096,note_off,,,,,136,0,16,,,,,7,,,60,100
25152,note_on,,,,,128,0,13,,,,,6,,,67,100
25152,note_on,,,,,56,0,16,,,,,7,,,48,100
25152,note_on,,,,,128,0,15,,,,,7,,,67,100
25152,note_on,,,,,92,0,14,,,,,6,,,48,100
25152,note_on,,,,,92,0,12,,,,,5,,,36,102
25152,note_on,,,,,92,0,10,,,,,3,,,64,102
25152,note_on,,,,,92,0,11,,,,,4,,,48,102
25152,note_on,,,,,92,0,9,,,,,2,,,67,102
25216,note_off,,,,,64,0,15,,,,,7,,,64,100
25216,note_off,,,,,256,0,8,,,,,1,,,76,100
25216,note_off,,,,,64,0,13,,,,,6,,,76,100
25252,note_off,,,,,100,0,9,,,,,2,,,67,100
25252,note_off,,,,,100,0,14,,,,,6,,,48,100
25252,note_off,,,,,100,0,12,,,,,5,,,36,100
25252,note_off,,,,,100,0,11,,,,,4,,,48,100
25252,note_off,,,,,100,0,10,,,,,3,,,64,100
25280,note_off,,,,,64,0,15,,,,,7,,,67,100
25280,note_off,,,,,64,0,13,,,,,6,,,67,100
25288,note_off,,,,,136,0,16,,,,,7,,,48,100
25344,note_on,,,,,92,0,14,,,,,6,,,41,100
25344,note_on,,,,,128,0,8,,,,,1,,,77,104
25344,note_on,,,,,92,0,12,,,,,5,,,41,104
25344,note_on,,,,,92,0,10,,,,,3,,,60,104
25344,note_on,,,,,92,0,11,,,,,4,,,41,104
25344,note_on,,,,,64,0,13,,,,,6,,,69,100
25344,note_on,,,,,0,0,13,,,,,6,,,77,100
25344,note_on,,,,,0,0,15,,,,,7,,,69,100
25344,note_on,,,,,64,0,15,,,,,7,,,65,100
25344,note_on,,,,,92,0,9,,,,,2,,,69,104
25344,note_on,,,,,56,0,16,,,,,7,,,41,100
25444,note_off,,,,,100,0,8,,,,,1,,,77,100
25444,note_off,,,,,100,0,14,,,,,6,,,41,100
25444,note_off,,,,,100,0,11,,,,,4,,,41,100
25444,note_off,,,,,100,0,12,,,,,5,,,41,100
25480,note_off,,,,,136,0,16,,,,,7,,,41,100
25536,note_on,,,,,92,0,8,,,,,1,,,72,100
25536,note_on,,,,,92,0,12,,,,,5,,,41,100
25536,note_on,,,,,56,0,16,,,,,7,,,53,100
25536,note_on,,,,,92,0,14,,,,,6,,,53,100
25536,note_on,,,,,92,0,11,,,,,4,,,53,100
25600,note_off,,,,,256,0,10,,,,,3,,,60,100
25600,note_off,,,,,0,0,13,,,,,6,,,77,100
25600,note_off,,,,,256,0,9,,,,,2,,,69,100
25600,note_off,,,,,256,0,13,,,,,6,,,69,100
25600,note_off,,,,,256,0,15,,,,,7,,,65,100
25600,note_off,,,,,0,0,15,,,,,7,,,69,100
25636,note_off,,,,,100,0,11,,,,,4,,,53,100
25636,note_off,,,,,100,0,12,,,,,5,,,41,100
25636,note_off,,,,,100,0,8,,,,,1,,,72,100
25636,note_off,,,,,100,0,14,,,,,6,,,53,100
25672,note_off,,,,,136,0,16,,,,,7,,,53,100
25728,note_on,,,,,92,0,8,,,,,1,,,79,100
25728,note_on,,,,,92,0,11,,,,,4,,,52,100
25728,note_on,,,,,0,0,13,,,,,6,,,72,100
25728,note_on,,,,,128,0,13,,,,,6,,,67,100
25728,note_on,,,,,92,0,14,,,,,6,,,52,100
25728,note_on,,,,,0,0,15,,,,,7,,,67,100
25728,note_on,,,,,92,0,12,,,,,5,,,40,100
25728,note_on,,,,,128,0,10,,,,,3,,,60,100
25728,note_on,,,,,0,0,15,,,,,7,,,72,100
25728,note_on,,,,,56,0,16,,,,,7,,,52,100
25728,note_on,,,,,128,0,15,,,,,7,,,64,100
25828,note_off,,,,,100,0,8,,,,,1,,,79,100
25828,note_off,,,,,100,0,12,,,,,5,,,40,100
25828,note_off,,,,,100,0,14,,,,,6,,,52,100
25828,note_off,,,,,100,0,11,,,,,4,,,52,100
25856,note_off,,,,,128,0,13,,,,,6,,,67,100
25856,note_off,,,,,0,0,13,,,,,6,,,72,100
25864,note_off,,,,,136,0,16,,,,,7,,,52,100
25920,note_on,,,,,92,0,11,,,,,4,,,48,100
25920,note_on,,,,,64,0,13,,,,,6,,,64,100
25920,note_on,,,,,56,0,16,,,,,7,,,48,100
25920,note_on,,,,,92,0,12,,,,,5,,,36,100
25920,note_on,,,,,0,0,13,,,,,6,,,67,100
25920,note_on,,,,,92,0,14,,,,,6,,,48,100
25920,note_on,,,,,92,0,8,,,,,1,,,72,100
25984,note_off,,,,,256,0,15,,,,,7,,,64,100
25984,note_off,,,,,0,0,15,,,,,7,,,67,100
25984,note_off,,,,,256,0,10,,,,,3,,,60,100
26020,note_off,,,,,100,0,14,,,,,6,,,48,100
26020,note_off,,,,,100,0,11,,,,,4,,,48,100
26020,note_off,,,,,100,0,8,,,,,1,,,72,100
26020,note_off,,,,,100,0,12,,,,,5,,,36,100
26048,note_off,,,,,0,0,13,,,,,6,,,67,100
26048,note_off,,,,,128,0,13,,,,,6,,,64,100
26056,note_off,,,,,136,0,16,,,,,7,,,48,100
26112,note_on,,,,,128,0,15,,,,,7,,,65,100
26112,note_on,,,,,0,0,15,,,,,7,,,69,100
26112,note_on,,,,,92,0,14,,,,,6,,,41,100
26112,note_on,,,,,92,0,12,,,,,5,,,41,100
26112,note_on,,,,,56,0,16,,,,,7,,,41,100
26112,note_on,,,,,92,0,8,,,,,1,,,81,100
26112,note_on,,,,,128,0,10,,,,,3,,,60,100
26112,note_on,,,,,92,0,11,,,,,4,,,41,100
26112,note_on,,,,,64,0,13,,,,,6,,,65,100
26112,note_on,,,,,0,0,13,,,,,6,,,69,100
26112,note_on,,,,,512,0,9,,,,,2,,,77,100
26212,note_off,,,,,100,0,12,,,,,5,,,41,100
26212,note_off,,,,,100,0,11,,,,,4,,,41,100
26212,note_off,,,,,100,0,9,,,,,2,,,77,100
26212,note_off,,,,,100,0,14,,,,,6,,,41,100
26240,note_off,,,,,0,0,13,,,,,6,,,69,100
26240,note_off,,,,,128,0,13,,,,,6,,,65,100
26248,note_off,,,,,136,0,16,,,,,7,,,41,100
26304,note_on,,,,,56,0,16,,,,,7,,,53,100
26304,note_on,,,,,92,0,12,,,,,5,,,41,100
26304,note_on,,,,,92,0,9,,,,,2,,,72,100
26304,note_on,,,,,92,0,14,,,,,6,,,53,100
26304,note_on,,,,,92,0,11,,,,,4,,,53,100
26304,note_on,,,,,64,0,13,,,,,6,,,60,100
26368,note_off,,,,,256,0,8,,,,,1,,,81,100
26368,note_off,,,,,0,0,15,,,,,7,,,69,100
26368,note_off,,,,,256,0,15,,,,,7,,,65,100
26368,note_off,,,,,256,0,10,,,,,3,,,60,100
26404,note_off,,,,,100,0,11,,,,,4,,,53,100
26404,note_off,,,,,100,0,12,,,,,5,,,41,100
26404,note_off,,,,,100,0,14,,,,,6,,,53,100
26404,note_off,,,,,100,0,9,,,,,2,,,72,100
26432,note_off,,,,,128,0,13,,,,,6,,,60,100
26440,note_off,,,,,136,0,16,,,,,7,,,53,100
26496,note_on,,,,,92,0,12,,,,,5,,,40,100
26496,note_on,,,,,92,0,14,,,,,6,,,52,100
26496,note_on,,,,,0,0,15,,,,,7,,,67,100
26496,note_on,,,,,128,0,15,,,,,7,,,64,100
26496,note_on,,,,,128,0,8,,,,,1,,,79,100
26496,note_on,,,,,56,0,16,,,,,7,,,52,100
26496,note_on,,,,,64,0,13,,,,,6,,,67,100
26496,note_on,,,,,92,0,11,,,,,4,,,52,100
26496,note_on,,,,,128,0,10,,,,,3,,,60,100
26496,note_on,,,,,92,0,9,,,,,2,,,79,100
26596,note_off,,,,,100,0,12,,,,,5,,,40,100
26596,note_off,,,,,100,0,9,,,,,2,,,79,100
26596,note_off,,,,,100,0,11,,,,,4,,,52,100
26596,note_off,,,,,100,0,14,,,,,6,,,52,100
26624,note_off,,,,,128,0,13,,,,,6,,,67,100
26632,note_off,,,,,136,0,16,,,,,7,,,52,100
26688,note_on,,,,,92,0,12,,,,,5,,,36,100
26688,note_on,,,,,56,0,16,,,,,7,,,48,100
26688,note_on,,,,,92,0,11,,,,,4,,,48,100
26688,note_on,,,,,92,0,9,,,,,2,,,72,100
26688,note_on,,,,,64,0,13,,,,,6,,,64,100
26688,note_on,,,,,92,0,14,,,,,6,,,48,100
26752,note_off,,,,,256,0,15,,,,,7,,,64,100
26752,note_off,,,,,256,0,10,,,,,3,,,60,100
26752,note_off,,,,,256,0,8,,,,,1,,,79,100
26752,note_off,,,,,0,0,15,,,,,7,,,67,100
26788,note_off,,,,,100,0,14,,,,,6,,,48,100
26788,note_off,,,,,100,0,12,,,,,5,,,36,100
26788,note_off,,,,,100,0,11,,,,,4,,,48,100
26788,note_off,,,,,100,0,9,,,,,2,,,72,100
26816,note_off,,,,,128,0,13,,,,,6,,,64,100
26824,note_off,,,,,136,0,16,,,,,7,,,48,100
26880,note_on,,,,,128,0,8,,,,,1,,,77,100
26880,note_on,,,,,92,0,12,,,,,5,,,41,100
26880,note_on,,,,,128,0,10,,,,,3,,,60,100
26880,note_on,,,,,92,0,11,,,,,4,,,41,100
26880,note_on,,,,,92,0,9,,,,,2,,,81,100
26880,note_on,,,,,56,0,16,,,,,7,,,41,100
26880,note_on,,,,,64,0,13,,,,,6,,,65,100
26880,note_on,,,,,0,0,13,,,,,6,,,69,100
26880,note_on,,,,,0,0,15,,,,,7,,,69,100
26880,note_on,,,,,128,0,15,,,,,7,,,65,100
26880,note_on,,,,,92,0,14,,,,,6,,,41,100
26980,note_off,,,,,100,0,8,,,,,1,,,77,100
26980,note_off,,,,,100,0,12,,,,,5,,,41,100
26980,note_off,,,,,100,0,11,,,,,4,,,41,100
26980,note_off,,,,,100,0,14,,,,,6,,,41,100
27008,note_off,,,,,128,0,13,,,,,6,,,65,100
27008,note_off,,,,,0,0,13,,,,,6,,,69,100
27016,note_off,,,,,136,0,16,,,,,7,,,41,100
27072,note_on,,,,,64,0,13,,,,,6,,,60,100
27072,note_on,,,,,56,0,16,,,,,7,,,53,100
27072,note_on,,,,,92,0,12,,,,,5,,,41,98
27072,note_on,,,,,92,0,8,,,,,1,,,72,98
27072,note_on,,,,,92,0,14,,,,,6,,,53,100
27072,note_on,,,,,92,0,11,,,,,4,,,53,98
27136,note_off,,,,,256,0,10,,,,,3,,,60,100
27136,note_off,,,,,256,0,9,,,,,2,,,81,100
27136,note_off,,,,,256,0,15,,,,,7,,,65,100
27136,note_off,,,,,0,0,15,,,,,7,,,69,100
27172,note_off,,,,,100,0,11,,,,,4,,,53,100
27172,note_off,,,,,100,0,12,,,,,5,,,41,100
27172,note_off,,,,,100,0,14,,,,,6,,,53,100
27172,note_off,,,,,100,0,8,,,,,1,,,72,100
27200,note_off,,,,,128,0,13,,,,,6,,,60,100
27208,note_off,,,,,136,0,16,,,,,7,,,53,100
27264,note_on,,,,,0,0,15,,,,,7,,,67,100
27264,note_on,,,,,64,0,13,,,,,6,,,67,100
27264,note_on,,,,,92,0,8,,,,,1,,,79,96
27264,note_on,,,,,128,0,10,,,,,3,,,60,96
27264,note_on,,,,,56,0,16,,,,,7,,,52,100
27264,note_on,,,,,128,0,15,,,,,7,,,64,100
27264,note_on,,,,,92,0,14,,,,,6,,,52,100
27264,note_on,,,,,128,0,9,,,,,2,,,79,96
27264,note_on,,,,,92,0,11,,,,,4,,,52,96
27264,note_on,,,,,92,0,12,,,,,5,,,40,96
27364,note_off,,,,,100,0,8,,,,,1,,,79,100
27364,note_off,,,,,100,0,14,,,,,6,,,52,100
27364,note_off,,,,,100,0,11,,,,,4,,,52,100
27364,note_off,,,,,100,0,12,,,,,5,,,40,100
27392,note_off,,,,,128,0,13,,,,,6,,,67,100
27400,note_off,,,,,136,0,16,,,,,7,,,52,100
27456,note_on,,,,,92,0,14,,,,,6,,,48,100
27456,note_on,,,,,64,0,13,,,,,6,,,64,100
27456,note_on,,,,,92,0,8,,,,,1,,,72,94
27456,note_on,,,,,92,0,12,,,,,5,,,36,94
27456,note_on,,,,,56,0,16,,,,,7,,,48,100
27456,note_on,,,,,92,0,11,,,,,4,,,48,94
27520,note_off,,,,,256,0,15,,,,,7,,,64,100
27520,note_off,,,,,0,0,15,,,,,7,,,67,100
27520,note_off,,,,,256,0,10,,,,,3,,,60,100
27520,note_off,,,,,256,0,9,,,,,2,,,79,100
27556,note_off,,,,,100,0,12,,,,,5,,,36,100
27556,note_off,,,,,100,0,14,,,,,6,,,48,100
27556,note_off,,,,,100,0,11,,,,,4,,,48,100
27556,note_off,,,,,100,0,8,,,,,1,,,72,100
27584,note_off,,,,,128,0,13,,,,,6,,,64,100
27592,note_off,,,,,136,0,16,,,,,7,,,48,100
27648,note_on,,,,,56,0,16,,,,,7,,,41,100
27648,note_on,,,,,128,0,10,,,,,3,,,60,93
27648,note_on,,,,,128,0,9,,,,,2,,,77,93
27648,note_on,,,,,92,0,8,,,,,1,,,81,93
27648,note_on,,,,,92,0,12,,,,,5,,,41,93
27648,note_on,,,,,0,0,15,,,,,7,,,69,100
27648,note_on,,,,,128,0,15,,,,,7,,,65,100
27648,note_on,,,,,92,0,11,,,,,4,,,41,93
27648,note_on,,,,,92,0,14,,,,,6,,,41,100
27648,note_on,,,,,0,0,13,,,,,6,,,69,100
27648,note_on,,,,,64,0,13,,,,,6,,,65,100
27748,note_off,,,,,100,0,9,,,,,2,,,77,100
27748,note_off,,,,,100,0,14,,,,,6,,,41,100
27748,note_off,,,,,100,0,11,,,,,4,,,41,100
27748,note_off,,,,,100,0,12,,,,,5,,,41,100
27776,note_off,,,,,128,0,13,,,,,6,,,65,100
27776,note_off,,,,,0,0,13,,,,,6,,,69,100
27784,note_off,,,,,136,0,16,,,,,7,,,41,100
27840,note_on,,,,,56,0,16,,,,,7,,,53,100
27840,note_on,,,,,64,0,13,,,,,6,,,60,100
27840,note_on,,,,,92,0,9,,,,,2,,,72,95
27840,note_on,,,,,92,0,14,,,,,6,,,53,100
27840,note_on,,,,,92,0,12,,,,,5,,,41,95
27840,note_on,,,,,92,0,11,,,,,4,,,53,95
27904,note_off,,,,,256,0,15,,,,,7,,,65,100
27904,note_off,,,,,0,0,15,,,,,7,,,69,100
27904,note_off,,,,,256,0,10,,,,,3,,,60,100
27904,note_off,,,,,256,0,8,,,,,1,,,81,100
27940,note_off,,,,,100,0,14,,,,,6,,,53,100
27940,note_off,,,,,100,0,11,,,,,4,,,53,100
27940,note_off,,,,,100,0,12,,,,,5,,,41,100
27940,note_off,,,,,100,0,9,,,,,2,,,72,100
27968,note_off,,,,,128,0,13,,,,,6,,,60,100
27976,note_off,,,,,136,0,16,,,,,7,,,53,100
28032,note_on,,,,,92,0,12,,,,,5,,,40,97
28032,note_on,,,,,92,0,9,,,,,2,,,79,97
28032,note_on,,,,,56,0,16,,,,,7,,,52,100
28032,note_on,,,,,92,0,11,,,,,4,,,52,97
28032,note_on,,,,,92,0,14,,,,,6,,,52,100
28032,note_on,,,,,128,0,15,,,,,7,,,64,100
28032,note_on,,,,,0,0,15,,,,,7,,,67,100
28032,note_on,,,,,128,0,10,,,,,3,,,60,97
28032,note_on,,,,,64,0,13,,,,,6,,,67,100
28032,note_on,,,,,128,0,8,,,,,1,,,79,97
28132,note_off,,,,,100,0,9,,,,,2,,,79,100
28132,note_off,,,,,100,0,12,,,,,5,,,40,100
28132,note_off,,,,,100,0,11,,,,,4,,,52,100
28132,note_off,,,,,100,0,14,,,,,6,,,52,100
28160,note_off,,,,,128,0,15,,,,,7,,,72,100
28160,note_off,,,,,128,0,13,,,,,6,,,67,100
28168,note_off,,,,,136,0,16,,,,,7,,,52,100
28224,note_on,,,,,64,0,13,,,,,6,,,64,100
28224,note_on,,,,,92,0,12,,,,,5,,,36,99
28224,note_on,,,,,92,0,14,,,,,6,,,48,100
28224,note_on,,,,,92,0,11,,,,,4,,,48,99
28224,note_on,,,,,56,0,16,,,,,7,,,48,100
28224,note_on,,,,,92,0,9,,,,,2,,,72,99
28288,note_off,,,,,256,0,8,,,,,1,,,79,100
28288,note_off,,,,,0,0,15,,,,,7,,,67,100
28288,note_off,,,,,128,0,15,,,,,7,,,64,100
28288,note_off,,,,,256,0,10,,,,,3,,,60,100
28324,note_off,,,,,100,0,9,,,,,2,,,72,100
28324,note_off,,,,,100,0,11,,,,,4,,,48,100
28324,note_off,,,,,100,0,12,,,,,5,,,36,100
28324,note_off,,,,,100,0,14,,,,,6,,,48,100
28352,note_off,,,,,128,0,13,,,,,6,,,64,100
28360,note_off,,,,,136,0,16,,,,,7,,,48,100
28416,note_on,,,,,128,0,10,,,,,3,,,60,101
28416,note_on,,,,,128,0,15,,,,,7,,,72,100
28416,note_on,,,,,0,0,15,,,,,7,,,69,100
28416,note_on,,,,,56,0,16,,,,,7,,,41,100
28416,note_on,,,,,128,0,8,,,,,1,,,77,101
28416,note_on,,,,,92,0,12,,,,,5,,,41,101
28416,note_on,,,,,0,0,15,,,,,7,,,65,100
28416,note_on,,,,,64,0,13,,,,,6,,,81,100
28416,note_on,,,,,92,0,9,,,,,2,,,81,101
28416,note_on,,,,,0,0,13,,,,,6,,,77,100
28416,note_on,,,,,92,0,14,,,,,6,,,41,100
28416,note_on,,,,,92,0,11,,,,,4,,,41,101
28508,note_off,,,,,92,0,13,,,,,6,,,81,100
28512,note_on,,,,,4,0,13,,,,,6,,,72,100
28516,note_off,,,,,100,0,8,,,,,1,,,77,100
28516,note_off,,,,,100,0,14,,,,,6,,,41,100
28516,note_off,,,,,100,0,11,,,,,4,,,41,100
28516,note_off,,,,,100,0,12,,,,,5,,,41,100
28552,note_off,,,,,136,0,16,,,,,7,,,41,100
28604,note_off,,,,,92,0,13,,,,,6,,,72,100
28608,note_on,,,,,92,0,11,,,,,4,,,53,100
28608,note_on,,,,,56,0,16,,,,,7,,,53,100
28608,note_on,,,,,92,0,14,,,,,6,,,53,100
28608,note_on,,,,,92,0,8,,,,,1,,,72,100
28608,note_on,,,,,92,0,12,,,,,5,,,41,100
28608,note_on,,,,,4,0,13,,,,,6,,,69,100
28672,note_off,,,,,64,0,13,,,,,6,,,77,100
28672,note_off,,,,,256,0,10,,,,,3,,,60,100
28700,note_off,,,,,28,0,13,,,,,6,,,69,100
28704,note_on,,,,,4,0,13,,,,,6,,,72,100
28708,note_off,,,,,100,0,14,,,,,6,,,53,100
28708,note_off,,,,,100,0,8,,,,,1,,,72,100
28708,note_off,,,,,100,0,12,,,,,5,,,41,100
28708,note_off,,,,,100,0,11,,,,,4,,,53,100
28744,note_off,,,,,136,0,16,,,,,7,,,53,100
28796,note_off,,,,,92,0,13,,,,,6,,,72,100
28800,note_on,,,,,4,0,13,,,,,6,,,65,100
28800,note_on,,,,,92,0,12,,,,,5,,,45,100
28800,note_on,,,,,92,0,8,,,,,1,,,77,100
28800,note_on,,,,,92,0,11,,,,,4,,,57,100
28800,note_on,,,,,56,0,16,,,,,7,,,57,100
28800,note_on,,,,,92,0,14,,,,,6,,,57,100
28892,note_off,,,,,92,0,13,,,,,6,,,65,100
28896,note_on,,,,,4,0,13,,,,,6,,,72,100
28900,note_off,,,,,100,0,11,,,,,4,,,57,100
28900,note_off,,,,,100,0,8,,,,,1,,,77,100
28900,note_off,,,,,100,0,12,,,,,5,,,45,100
28900,note_off,,,,,100,0,14,,,,,6,,,57,100
28928,note_off,,,,,512,0,9,,,,,2,,,81,100
28936,note_off,,,,,136,0,16,,,,,7,,,57,100
28988,note_off,,,,,92,0,13,,,,,6,,,72,100
28992,note_on,,,,,92,0,14,,,,,6,,,53,100
28992,note_on,,,,,4,0,13,,,,,6,,,69,100
28992,note_on,,,,,92,0,11,,,,,4,,,53,100
28992,note_on,,,,,56,0,16,,,,,7,,,53,100
28992,note_on,,,,,92,0,12,,,,,5,,,41,100
28992,note_on,,,,,92,0,8,,,,,1,,,81,100
29084,note_off,,,,,92,0,13,,,,,6,,,69,100
29088,note_on,,,,,4,0,13,,,,,6,,,72,100
29092,note_off,,,,,100,0,11,,,,,4,,,53,100
29092,note_off,,,,,100,0,12,,,,,5,,,41,100
29092,note_off,,,,,100,0,14,,,,,6,,,53,100
29092,note_off,,,,,100,0,8,,,,,1,,,81,100
29104,note_off,,,,,688,0,15,,,,,7,,,72,100
29104,note_off,,,,,0,0,15,,,,,7,,,69,100
29104,note_off,,,,,0,0,15,,,,,7,,,65,100
29128,note_off,,,,,136,0,16,,,,,7,,,53,100
29180,note_off,,,,,92,0,13,,,,,6,,,72,100
29184,note_on,,,,,512,0,10,,,,,3,,,62,100
29184,note_on,,,,,256,0,9,,,,,2,,,77,100
29184,note_on,,,,,92,0,11,,,,,4,,,50,100
29184,note_on,,,,,92,0,14,,,,,6,,,50,100
29184,note_on,,,,,56,0,16,,,,,7,,,50,100
29184,note_on,,,,,92,0,12,,,,,5,,,38,100
29184,note_on,,,,,80,0,15,,,,,7,,,69,100
29184,note_on,,,,,0,0,15,,,,,7,,,74,100
29184,note_on,,,,,0,0,15,,,,,7,,,65,100
29184,note_on,,,,,92,0,8,,,,,1,,,81,100
29184,note_on,,,,,4,0,13,,,,,6,,,77,100
29276,note_off,,,,,92,0,13,,,,,6,,,77,100
29280,note_on,,,,,4,0,13,,,,,6,,,74,100
29284,note_off,,,,,100,0,14,,,,,6,,,50,100
29284,note_off,,,,,100,0,11,,,,,4,,,50,100
29284,note_off,,,,,100,0,12,,,,,5,,,38,100
29284,note_off,,,,,100,0,10,,,,,3,,,62,100
29284,note_off,,,,,100,0,9,,,,,2,,,77,100
29320,note_off,,,,,136,0,16,,,,,7,,,50,100
29372,note_off,,,,,92,0,13,,,,,6,,,74,100
29376,note_on,,,,,92,0,12,,,,,5,,,50,100
29376,note_on,,,,,92,0,14,,,,,6,,,62,100
29376,note_on,,,,,92,0,11,,,,,4,,,62,100
29376,note_on,,,,,92,0,9,,,,,2,,,74,100
29376,note_on,,,,,56,0,16,,,,,7,,,62,100
29376,note_on,,,,,92,0,10,,,,,3,,,65,100
29376,note_on,,,,,4,0,13,,,,,6,,,69,100
29468,note_off,,,,,92,0,13,,,,,6,,,69,100
29472,note_on,,,,,4,0,13,,,,,6,,,74,100
29476,note_off,,,,,100,0,14,,,,,6,,,62,100
29476,note_off,,,,,100,0,12,,,,,5,,,50,100
29476,note_off,,,,,100,0,10,,,,,3,,,65,100
29476,note_off,,,,,100,0,9,,,,,2,,,74,100
29476,note_off,,,,,100,0,11,,,,,4,,,62,100
29512,note_off,,,,,136,0,16,,,,,7,,,62,100
29564,note_off,,,,,92,0,13,,,,,6,,,74,100
29568,note_on,,,,,56,0,16,,,,,7,,,62,100
29568,note_on,,,,,4,0,13,,,,,6,,,65,100
29568,note_on,,,,,92,0,11,,,,,4,,,62,100
29568,note_on,,,,,92,0,10,,,,,3,,,69,100
29568,note_on,,,,,92,0,9,,,,,2,,,77,100
29568,note_on,,,,,92,0,12,,,,,5,,,50,100
29568,note_on,,,,,92,0,14,,,,,6,,,62,100
29660,note_off,,,,,92,0,13,,,,,6,,,65,100
29664,note_on,,,,,4,0,13,,,,,6,,,74,100
29668,note_off,,,,,100,0,9,,,,,2,,,77,100
29668,note_off,,,,,100,0,11,,,,,4,,,62,100
29668,note_off,,,,,100,0,12,,,,,5,,,50,100
29668,note_off,,,,,100,0,14,,,,,6,,,62,100
29668,note_off,,,,,100,0,10,,,,,3,,,69,100
29696,note_off,,,,,512,0,8,,,,,1,,,81,100
29704,note_off,,,,,136,0,16,,,,,7,,,62,100
29756,note_off,,,,,92,0,13,,,,,6,,,74,100
29760,note_on,,,,,92,0,9,,,,,2,,,81,100
29760,note_on,,,,,4,0,13,,,,,6,,,69,100
29760,note_on,,,,,92,0,10,,,,,3,,,65,100
29760,note_on,,,,,92,0,14,,,,,6,,,50,100
29760,note_on,,,,,92,0,12,,,,,5,,,38,100
29760,note_on,,,,,56,0,16,,,,,7,,,50,100
29760,note_on,,,,,92,0,11,,,,,4,,,50,100
29852,note_off,,,,,92,0,13,,,,,6,,,69,100
29856,note_on,,,,,4,0,13,,,,,6,,,74,100
29860,note_off,,,,,100,0,10,,,,,3,,,65,100
29860,note_off,,,,,100,0,14,,,,,6,,,50,100
29860,note_off,,,,,100,0,12,,,,,5,,,38,100
29860,note_off,,,,,100,0,9,,,,,2,,,81,100
29860,note_off,,,,,100,0,11,,,,,4,,,50,100
29872,note_off,,,,,0,0,15,,,,,7,,,65,100
29872,note_off,,,,,0,0,15,,,,,7,,,74,100
29872,note_off,,,,,688,0,15,,,,,7,,,69,100
29896,note_off,,,,,136,0,16,,,,,7,,,50,100
29948,note_off,,,,,92,0,13,,,,,6,,,74,100
29952,note_on,,,,,4,0,13,,,,,6,,,79,100
29952,note_on,,,,,80,0,15,,,,,7,,,74,100
29952,note_on,,,,,0,0,15,,,,,7,,,70,100
29952,note_on,,,,,256,0,8,,,,,1,,,79,100
29952,note_on,,,,,92,0,9,,,,,2,,,82,100
29952,note_on,,,,,92,0,11,,,,,4,,,43,100
29952,note_on,,,,,56,0,16,,,,,7,,,43,100
29952,note_on,,,,,92,0,12,,,,,5,,,31,100
29952,note_on,,,,,92,0,10,,,,,3,,,62,100
29952,note_on,,,,,0,0,15,,,,,7,,,67,100
29952,note_on,,,,,92,0,14,,,,,6,,,43,100
30044,note_off,,,,,92,0,13,,,,,6,,,79,100
30048,note_on,,,,,4,0,13,,,,,6,,,74,100
30052,note_off,,,,,100,0,14,,,,,6,,,43,100
30052,note_off,,,,,100,0,8,,,,,1,,,79,100
30052,note_off,,,,,100,0,10,,,,,3,,,62,100
30052,note_off,,,,,100,0,12,,,,,5,,,31,100
30052,note_off,,,,,100,0,11,,,,,4,,,43,100
30088,note_off,,,,,136,0,16,,,,,7,,,43,100
30140,note_off,,,,,92,0,13,,,,,6,,,74,100
30144,note_on,,,,,92,0,8,,,,,1,,,74,100
30144,note_on,,,,,56,0,16,,,,,7,,,55,100
30144,note_on,,,,,92,0,11,,,,,4,,,55,100
30144,note_on,,,,,92,0,10,,,,,3,,,70,100
30144,note_on,,,,,92,0,12,,,,,5,,,43,100
30144,note_on,,,,,4,0,13,,,,,6,,,70,100
30144,note_on,,,,,92,0,14,,,,,6,,,55,100
30236,note_off,,,,,92,0,13,,,,,6,,,70,100
30240,note_on,,,,,4,0,13,,,,,6,,,74,100
30244,note_off,,,,,100,0,11,,,,,4,,,55,100
30244,note_off,,,,,100,0,10,,,,,3,,,70,100
30244,note_off,,,,,100,0,8,,,,,1,,,74,100
30244,note_off,,,,,100,0,12,,,,,5,,,43,100
30244,note_off,,,,,100,0,14,,,,,6,,,55,100
30280,note_off,,,,,136,0,16,,,,,7,,,55,100
30332,note_off,,,,,92,0,13,,,,,6,,,74,100
30336,note_on,,,,,92,0,11,,,,,4,,,46,100
30336,note_on,,,,,92,0,8,,,,,1,,,79,100
30336,note_on,,,,,56,0,16,,,,,7,,,46,100
30336,note_on,,,,,92,0,12,,,,,5,,,34,100
30336,note_on,,,,,92,0,14,,,,,6,,,46,100
30336,note_on,,,,,4,0,13,,,,,6,,,67,100
30336,note_on,,,,,92,0,10,,,,,3,,,67,100
30428,note_off,,,,,92,0,13,,,,,6,,,67,100
30432,note_on,,,,,4,0,13,,,,,6,,,74,100
30436,note_off,,,,,100,0,14,,,,,6,,,46,100
30436,note_off,,,,,100,0,11,,,,,4,,,46,100
30436,note_off,,,,,100,0,8,,,,,1,,,79,100
30436,note_off,,,,,100,0,12,,,,,5,,,34,100
30436,note_off,,,,,100,0,10,,,,,3,,,67,100
30464,note_off,,,,,512,0,9,,,,,2,,,82,100
30472,note_off,,,,,136,0,16,,,,,7,,,46,100
30524,note_off,,,,,92,0,13,,,,,6,,,74,100
30528,note_on,,,,,56,0,16,,,,,7,,,43,100
30528,note_on,,,,,92,0,14,,,,,6,,,43,100
30528,note_on,,,,,92,0,8,,,,,1,,,82,100
30528,note_on,,,,,92,0,12,,,,,5,,,31,100
30528,note_on,,,,,92,0,10,,,,,3,,,62,100
30528,note_on,,,,,92,0,11,,,,,4,,,43,100
30528,note_on,,,,,4,0,13,,,,,6,,,70,100
30620,note_off,,,,,92,0,13,,,,,6,,,70,100
30624,note_on,,,,,4,0,13,,,,,6,,,74,100
30628,note_off,,,,,100,0,10,,,,,3,,,62,100
30628,note_off,,,,,100,0,12,,,,,5,,,31,100
30628,note_off,,,,,100,0,8,,,,,1,,,82,100
30628,note_off,,,,,100,0,14,,,,,6,,,43,100
30628,note_off,,,,,100,0,11,,,,,4,,,43,100
30640,note_off,,,,,0,0,15,,,,,7,,,67,100
30640,note_off,,,,,688,0,15,,,,,7,,,74,100
30640,note_off,,,,,0,0,15,,,,,7,,,70,100
30664,note_off,,,,,136,0,16,,,,,7,,,43,100
30716,note_off,,,,,92,0,13,,,,,6,,,74,100
30720,note_on,,,,,0,0,15,,,,,7,,,70,100
30720,note_on,,,,,4,0,13,,,,,6,,,79,100
30720,note_on,,,,,56,0,16,,,,,7,,,43,100
30720,note_on,,,,,80,0,15,,,,,7,,,75,100
30720,note_on,,,,,0,0,15,,,,,7,,,67,100
30720,note_on,,,,,92,0,11,,,,,4,,,43,100
30720,note_on,,,,,92,0,14,,,,,6,,,43,100
30720,note_on,,,,,92,0,8,,,,,1,,,82,100
30720,note_on,,,,,92,0,12,,,,,5,,,31,100
30720,note_on,,,,,256,0,9,,,,,2,,,79,100
30720,note_on,,,,,92,0,10,,,,,3,,,63,100
30812,note_off,,,,,92,0,13,,,,,6,,,79,100
30816,note_on,,,,,4,0,13,,,,,6,,,75,100
30820,note_off,,,,,100,0,12,,,,,5,,,31,100
30820,note_off,,,,,100,0,10,,,,,3,,,63,100
30820,note_off,,,,,100,0,9,,,,,2,,,79,100
30820,note_off,,,,,100,0,11,,,,,4,,,43,100
30820,note_off,,,,,100,0,14,,,,,6,,,43,100
30856,note_off,,,,,136,0,16,,,,,7,,,43,100
30908,note_off,,,,,92,0,13,,,,,6,,,75,100
30912,note_on,,,,,92,0,12,,,,,5,,,43,100
30912,note_on,,,,,4,0,13,,,,,6,,,70,100
30912,note_on,,,,,92,0,11,,,,,4,,,55,100
30912,note_on,,,,,92,0,14,,,,,6,,,55,100
30912,note_on,,,,,92,0,10,,,,,3,,,70,100
30912,note_on,,,,,56,0,16,,,,,7,,,55,100
30912,note_on,,,,,92,0,9,,,,,2,,,75,100
31004,note_off,,,,,92,0,13,,,,,6,,,70,100
31008,note_on,,,,,4,0,13,,,,,6,,,75,100
31012,note_off,,,,,100,0,10,,,,,3,,,70,100
31012,note_off,,,,,100,0,12,,,,,5,,,43,100
31012,note_off,,,,,100,0,9,,,,,2,,,75,100
31012,note_off,,,,,100,0,11,,,,,4,,,55,100
31012,note_off,,,,,100,0,14,,,,,6,,,55,100
31048,note_off,,,,,136,0,16,,,,,7,,,55,100
31100,note_off,,,,,92,0,13,,,,,6,,,75,100
31104,note_on,,,,,92,0,14,,,,,6,,,46,100
31104,note_on,,,,,92,0,10,,,,,3,,,67,100
31104,note_on,,,,,56,0,16,,,,,7,,,46,100
31104,note_on,,,,,92,0,12,,,,,5,,,34,100
31104,note_on,,,,,92,0,11,,,,,4,,,46,100
31104,note_on,,,,,92,0,9,,,,,2,,,79,100
31104,note_on,,,,,4,0,13,,,,,6,,,67,100
31196,note_off,,,,,92,0,13,,,,,6,,,67,100
31200,note_on,,,,,4,0,13,,,,,6,,,75,100
31204,note_off,,,,,100,0,14,,,,,6,,,46,100
31204,note_off,,,,,100,0,12,,,,,5,,,34,100
31204,note_off,,,,,100,0,9,,,,,2,,,79,100
31204,note_off,,,,,100,0,11,,,,,4,,,46,100
31204,note_off,,,,,100,0,10,,,,,3,,,67,100
31232,note_off,,,,,512,0,8,,,,,1,,,82,100
31240,note_off,,,,,136,0,16,,,,,7,,,46,100
31292,note_off,,,,,92,0,13,,,,,6,,,75,100
31296,note_on,,,,,92,0,11,,,,,4,,,43,101
31296,note_on,,,,,92,0,12,,,,,5,,,31,101
31296,note_on,,,,,4,0,13,,,,,6,,,70,100
31296,note_on,,,,,56,0,16,,,,,7,,,43,100
31296,note_on,,,,,92,0,10,,,,,3,,,63,101
31296,note_on,,,,,92,0,9,,,,,2,,,82,101
31296,note_on,,,,,92,0,14,,,,,6,,,43,100
31388,note_off,,,,,92,0,13,,,,,6,,,70,100
31392,note_on,,,,,4,0,13,,,,,6,,,75,100
31396,note_off,,,,,100,0,10,,,,,3,,,63,100
31396,note_off,,,,,100,0,11,,,,,4,,,43,100
31396,note_off,,,,,100,0,9,,,,,2,,,82,100
31396,note_off,,,,,100,0,12,,,,,5,,,31,100
31396,note_off,,,,,100,0,14,,,,,6,,,43,100
31408,note_off,,,,,0,0,15,,,,,7,,,70,100
31408,note_off,,,,,688,0,15,,,,,7,,,75,100
31408,note_off,,,,,0,0,15,,,,,7,,,67,100
31432,note_off,,,,,136,0,16,,,,,7,,,43,100
31484,note_off,,,,,92,0,13,,,,,6,,,75,100
31488,note_on,,,,,80,0,15,,,,,7,,,67,100
31488,note_on,,,,,0,0,15,,,,,7,,,74,100
31488,note_on,,,,,4,0,13,,,,,6,,,79,100
31488,note_on,,,,,0,0,15,,,,,7,,,70,100
31488,note_on,,,,,256,0,8,,,,,1,,,79,102
31488,note_on,,,,,92,0,12,,,,,5,,,31,102
31488,note_on,,,,,92,0,11,,,,,4,,,43,102
31488,note_on,,,,,56,0,16,,,,,7,,,43,100
31488,note_on,,,,,92,0,10,,,,,3,,,62,102
31488,note_on,,,,,92,0,14,,,,,6,,,43,100
31488,note_on,,,,,92,0,9,,,,,2,,,82,102
31580,note_off,,,,,92,0,13,,,,,6,,,79,100
31584,note_on,,,,,4,0,13,,,,,6,,,74,100
31588,note_off,,,,,100,0,12,,,,,5,,,31,100
31588,note_off,,,,,100,0,10,,,,,3,,,62,100
31588,note_off,,,,,100,0,11,,,,,4,,,43,100
31588,note_off,,,,,100,0,14,,,,,6,,,43,100
31588,note_off,,,,,100,0,8,,,,,1,,,79,100
31624,note_off,,,,,136,0,16,,,,,7,,,43,100
31676,note_off,,,,,92,0,13,,,,,6,,,74,100
31680,note_on,,,,,4,0,13,,,,,6,,,70,100
31680,note_on,,,,,56,0,16,,,,,7,,,55,100
31680,note_on,,,,,92,0,14,,,,,6,,,55,100
31680,note_on,,,,,92,0,8,,,,,1,,,74,103
31680,note_on,,,,,92,0,10,,,,,3,,,70,103
31680,note_on,,,,,92,0,11,,,,,4,,,55,103
31680,note_on,,,,,92,0,12,,,,,5,,,43,103
31772,note_off,,,,,92,0,13,,,,,6,,,70,100
31776,note_on,,,,,4,0,13,,,,,6,,,67,100
31780,note_off,,,,,100,0,11,,,,,4,,,55,100
31780,note_off,,,,,100,0,14,,,,,6,,,55,100
31780,note_off,,,,,100,0,10,,,,,3,,,70,100
31780,note_off,,,,,100,0,8,,,,,1,,,74,100
31780,note_off,,,,,100,0,12,,,,,5,,,43,100
31816,note_off,,,,,136,0,16,,,,,7,,,55,100
31868,note_off,,,,,92,0,13,,,,,6,,,67,100
31872,note_on,,,,,92,0,12,,,,,5,,,34,104
31872,note_on,,,,,4,0,13,,,,,6,,,74,100
31872,note_on,,,,,56,0,16,,,,,7,,,46,100
31872,note_on,,,,,92,0,11,,,,,4,,,46,104
31872,note_on,,,,,92,0,14,,,,,6,,,46,100
31872,note_on,,,,,92,0,10,,,,,3,,,67,104
31872,note_on,,,,,92,0,8,,,,,1,,,79,104
31964,note_off,,,,,92,0,13,,,,,6,,,74,100
31968,note_on,,,,,4,0,13,,,,,6,,,67,100
31972,note_off,,,,,100,0,12,,,,,5,,,34,100
31972,note_off,,,,,100,0,14,,,,,6,,,46,100
31972,note_off,,,,,100,0,11,,,,,4,,,46,100
31972,note_off,,,,,100,0,10,,,,,3,,,67,100
31972,note_off,,,,,100,0,8,,,,,1,,,79,100
32000,note_off,,,,,512,0,9,,,,,2,,,82,100
32008,note_off,,,,,136,0,16,,,,,7,,,46,100
32060,note_off,,,,,92,0,13,,,,,6,,,67,100
32064,note_on,,,,,92,0,8,,,,,1,,,82,105
32064,note_on,,,,,4,0,13,,,,,6,,,70,100
32064,note_on,,,,,92,0,10,,,,,3,,,62,105
32064,note_on,,,,,92,0,14,,,,,6,,,43,100
32064,note_on,,,,,92,0,12,,,,,5,,,31,105
32064,note_on,,,,,56,0,16,,,,,7,,,43,100
32064,note_on,,,,,92,0,11,,,,,4,,,43,105
32100,note_off,,,,,612,0,15,,,,,7,,,67,100
32100,note_off,,,,,0,0,15,,,,,7,,,70,100
32100,note_off,,,,,0,0,15,,,,,7,,,74,100
32156,note_off,,,,,92,0,13,,,,,6,,,70,100
32160,note_on,,,,,4,0,13,,,,,6,,,62,100
32164,note_off,,,,,100,0,10,,,,,3,,,62,100
32164,note_off,,,,,100,0,8,,,,,1,,,82,100
32164,note_off,,,,,100,0,11,,,,,4,,,43,100
32164,note_off,,,,,100,0,12,,,,,5,,,31,100
32164,note_off,,,,,100,0,14,,,,,6,,,43,100
32200,note_off,,,,,136,0,16,,,,,7,,,43,100
32252,note_off,,,,,92,0,13,,,,,6,,,62,100
32256,note_on,,,,,92,0,11,,,,,4,,,45,105
32256,note_on,,,,,156,0,15,,,,,7,,,64,100
32256,note_on,,,,,0,0,15,,,,,7,,,69,100
32256,note_on,,,,,0,0,15,,,,,7,,,73,100
32256,note_on,,,,,0,0,13,,,,,6,,,61,100
32256,note_on,,,,,92,0,12,,,,,5,,,33,105
32256,note_on,,,,,4,0,13,,,,,6,,,64,100
32256,note_on,,,,,256,0,9,,,,,2,,,76,105
32256,note_on,,,,,56,0,16,,,,,7,,,45,100
32256,note_on,,,,,92,0,10,,,,,3,,,69,105
32256,note_on,,,,,92,0,8,,,,,1,,,73,105
32256,note_on,,,,,92,0,14,,,,,6,,,45,100
32356,note_off,,,,,100,0,8,,,,,1,,,73,100
32448,note_on,,,,,92,0,8,,,,,1,,,69,100
32488,note_off,,,,,232,0,16,,,,,7,,,45,100
32512,note_off,,,,,256,0,13,,,,,6,,,64,100
32512,note_off,,,,,0,0,13,,,,,6,,,61,100
32512,note_off,,,,,256,0,11,,,,,4,,,45,100
32512,note_off,,,,,256,0,12,,,,,5,,,33,100
32512,note_off,,,,,256,0,10,,,,,3,,,69,100
32512,note_off,,,,,256,0,15,,,,,7,,,64,100
32512,note_off,,,,,0,0,15,,,,,7,,,69,100
32512,note_off,,,,,0,0,15,,,,,7,,,73,100
32512,note_off,,,,,256,0,9,,,,,2,,,76,100
32512,note_off,,,,,256,0,14,,,,,6,,,45,100
32548,note_off,,,,,100,0,8,,,,,1,,,69,100
32640,note_on,,,,,92,0,8,,,,,1,,,74,100
32740,note_off,,,,,100,0,8,,,,,1,,,74,100
32832,note_on,,,,,92,0,8,,,,,1,,,69,100
32932,note_off,,,,,100,0,8,,,,,1,,,69,100
33024,note_on,,,,,512,0,14,,,,,6,,,57,100
33024,note_on,,,,,512,0,11,,,,,4,,,57,100
33024,note_on,,,,,512,0,9,,,,,2,,,73,100
33024,note_on,,,,,512,0,10,,,,,3,,,69,100
33024,note_on,,,,,0,0,15,,,,,7,,,64,100
33024,note_on,,,,,92,0,8,,,,,1,,,76,100
33024,note_on,,,,,512,0,15,,,,,7,,,73,100
33024,note_on,,,,,512,0,12,,,,,5,,,45,100
33024,note_on,,,,,0,0,13,,,,,6,,,64,100
33024,note_on,,,,,512,0,13,,,,,6,,,73,100
33024,note_on,,,,,536,0,16,,,,,7,,,57,100
33124,note_off,,,,,100,0,8,,,,,1,,,76,100
33124,note_off,,,,,100,0,14,,,,,6,,,57,100
33124,note_off,,,,,100,0,11,,,,,4,,,57,100
33124,note_off,,,,,100,0,12,,,,,5,,,45,100
33124,note_off,,,,,100,0,9,,,,,2,,,73,100
33160,note_off,,,,,136,0,16,,,,,7,,,57,100
33216,note_on,,,,,92,0,14,,,,,6,,,55,100
33216,note_on,,,,,56,0,16,,,,,7,,,55,100
33216,note_on,,,,,92,0,8,,,,,1,,,69,100
33216,note_on,,,,,92,0,12,,,,,5,,,43,100
33216,note_on,,,,,92,0,11,,,,,4,,,55,100
33216,note_on,,,,,92,0,9,,,,,2,,,69,100
33280,note_off,,,,,0,0,15,,,,,7,,,64,100
33280,note_off,,,,,0,0,13,,,,,6,,,64,100
33280,note_off,,,,,256,0,13,,,,,6,,,73,100
33280,note_off,,,,,256,0,10,,,,,3,,,69,100
33280,note_off,,,,,256,0,15,,,,,7,,,73,100
33316,note_off,,,,,100,0,11,,,,,4,,,55,100
33316,note_off,,,,,100,0,8,,,,,1,,,69,100
33316,note_off,,,,,100,0,14,,,,,6,,,55,100
33316,note_off,,,,,100,0,9,,,,,2,,,69,100
33316,note_off,,,,,100,0,12,,,,,5,,,43,100
33352,note_off,,,,,136,0,16,,,,,7,,,55,100
33408,note_on,,,,,128,0,10,,,,,3,,,69,100
33408,note_on,,,,,92,0,14,,,,,6,,,53,100
33408,note_on,,,,,92,0,11,,,,,4,,,53,100
33408,note_on,,,,,56,0,16,,,,,7,,,53,100
33408,note_on,,,,,128,0,13,,,,,6,,,74,100
33408,note_on,,,,,92,0,12,,,,,5,,,41,100
33408,note_on,,,,,0,0,13,,,,,6,,,65,100
33408,note_on,,,,,92,0,8,,,,,1,,,77,100
33408,note_on,,,,,128,0,15,,,,,7,,,74,100
33408,note_on,,,,,0,0,15,,,,,7,,,65,100
33408,note_on,,,,,92,0,9,,,,,2,,,74,100
33508,note_off,,,,,100,0,8,,,,,1,,,77,100
33508,note_off,,,,,100,0,12,,,,,5,,,41,100
33508,note_off,,,,,100,0,11,,,,,4,,,53,100
33508,note_off,,,,,100,0,14,,,,,6,,,53,100
33508,note_off,,,,,100,0,9,,,,,2,,,74,100
33544,note_off,,,,,136,0,16,,,,,7,,,53,100
33600,note_on,,,,,92,0,12,,,,,5,,,38,100
33600,note_on,,,,,92,0,11,,,,,4,,,50,100
33600,note_on,,,,,92,0,9,,,,,2,,,69,100
33600,note_on,,,,,92,0,8,,,,,1,,,69,100
33600,note_on,,,,,56,0,16,,,,,7,,,50,100
33600,note_on,,,,,92,0,14,,,,,6,,,50,100
33664,note_off,,,,,0,0,15,,,,,7,,,65,100
33664,note_off,,,,,0,0,13,,,,,6,,,65,100
33664,note_off,,,,,256,0,13,,,,,6,,,74,100
33664,note_off,,,,,256,0,15,,,,,7,,,74,100
33664,note_off,,,,,256,0,10,,,,,3,,,69,100
33700,note_off,,,,,100,0,11,,,,,4,,,50,100
33700,note_off,,,,,100,0,9,,,,,2,,,69,100
33700,note_off,,,,,100,0,14,,,,,6,,,50,100
33700,note_off,,,,,100,0,12,,,,,5,,,38,100
33700,note_off,,,,,100,0,8,,,,,1,,,69,100
33736,note_off,,,,,136,0,16,,,,,7,,,50,100
33792,note_on,,,,,56,0,16,,,,,7,,,45,100
33792,note_on,,,,,128,0,13,,,,,6,,,67,100
33792,note_on,,,,,0,0,13,,,,,6,,,76,100
33792,note_on,,,,,92,0,9,,,,,2,,,76,100
33792,note_on,,,,,92,0,12,,,,,5,,,33,100
33792,note_on,,,,,92,0,8,,,,,1,,,79,100
33792,note_on,,,,,92,0,14,,,,,6,,,45,100
33792,note_on,,,,,128,0,10,,,,,3,,,69,100
33792,note_on,,,,,128,0,15,,,,,7,,,67,100
33792,note_on,,,,,0,0,15,,,,,7,,,76,100
33792,note_on,,,,,92,0,11,,,,,4,,,45,100
33892,note_off,,,,,100,0,14,,,,,6,,,45,100
33892,note_off,,,,,100,0,11,,,,,4,,,45,100
33892,note_off,,,,,100,0,9,,,,,2,,,76,100
33892,note_off,,,,,100,0,12,,,,,5,,,33,100
33928,note_off,,,,,136,0,16,,,,,7,,,45,100
33984,note_on,,,,,92,0,12,,,,,5,,,49,100
33984,note_on,,,,,92,0,14,,,,,6,,,61,100
33984,note_on,,,,,92,0,11,,,,,4,,,61,100
33984,note_on,,,,,92,0,9,,,,,2,,,69,100
33984,note_on,,,,,56,0,16,,,,,7,,,61,100
34048,note_off,,,,,0,0,15,,,,,7,,,76,100
34048,note_off,,,,,256,0,15,,,,,7,,,67,100
34048,note_off,,,,,256,0,13,,,,,6,,,67,100
34048,note_off,,,,,0,0,13,,,,,6,,,76,100
34048,note_off,,,,,256,0,10,,,,,3,,,69,100
34048,note_off,,,,,256,0,8,,,,,1,,,79,100
34084,note_off,,,,,100,0,11,,,,,4,,,61,100
34084,note_off,,,,,100,0,14,,,,,6,,,61,100
34084,note_off,,,,,100,0,12,,,,,5,,,49,100
34084,note_off,,,,,100,0,9,,,,,2,,,69,100
34120,note_off,,,,,136,0,16,,,,,7,,,61,100
34176,note_on,,,,,56,0,16,,,,,7,,,62,100
34176,note_on,,,,,92,0,12,,,,,5,,,50,100
34176,note_on,,,,,128,0,13,,,,,6,,,65,100
34176,note_on,,,,,0,0,13,,,,,6,,,74,100
34176,note_on,,,,,92,0,11,,,,,4,,,62,100
34176,note_on,,,,,128,0,15,,,,,7,,,65,100
34176,note_on,,,,,0,0,15,,,,,7,,,74,100
34176,note_on,,,,,128,0,8,,,,,1,,,77,100
34176,note_on,,,,,92,0,9,,,,,2,,,77,100
34176,note_on,,,,,92,0,14,,,,,6,,,62,100
34176,note_on,,,,,128,0,10,,,,,3,,,69,100
34276,note_off,,,,,100,0,9,,,,,2,,,77,100
34276,note_off,,,,,100,0,11,,,,,4,,,62,100
34276,note_off,,,,,100,0,14,,,,,6,,,62,100
34276,note_off,,,,,100,0,12,,,,,5,,,50,100
34312,note_off,,,,,136,0,16,,,,,7,,,62,100
34368,note_on,,,,,92,0,12,,,,,5,,,38,100
34368,note_on,,,,,92,0,11,,,,,4,,,50,100
34368,note_on,,,,,56,0,16,,,,,7,,,50,100
34368,note_on,,,,,92,0,14,,,,,6,,,50,100
34368,note_on,,,,,92,0,9,,,,,2,,,69,100
34432,note_off,,,,,0,0,15,,,,,7,,,74,100
34432,note_off,,,,,0,0,13,,,,,6,,,74,100
34432,note_off,,,,,256,0,13,,,,,6,,,65,100
34432,note_off,,,,,256,0,10,,,,,3,,,69,100
34432,note_off,,,,,256,0,8,,,,,1,,,77,100
34432,note_off,,,,,256,0,15,,,,,7,,,65,100
34468,note_off,,,,,100,0,14,,,,,6,,,50,100
34468,note_off,,,,,100,0,12,,,,,5,,,38,100
34468,note_off,,,,,100,0,9,,,,,2,,,69,100
34468,note_off,,,,,100,0,11,,,,,4,,,50,100
34504,note_off,,,,,136,0,16,,,,,7,,,50,100
34560,note_on,,,,,92,0,11,,,,,4,,,45,100
34560,note_on,,,,,56,0,16,,,,,7,,,45,100
34560,note_on,,,,,128,0,10,,,,,3,,,69,100
34560,note_on,,,,,128,0,8,,,,,1,,,76,100
34560,note_on,,,,,128,0,15,,,,,7,,,73,100
34560,note_on,,,,,0,0,15,,,,,7,,,64,100
34560,note_on,,,,,128,0,13,,,,,6,,,73,100
34560,note_on,,,,,0,0,13,,,,,6,,,64,100
34560,note_on,,,,,92,0,9,,,,,2,,,79,100
34560,note_on,,,,,92,0,14,,,,,6,,,45,100
34560,note_on,,,,,92,0,12,,,,,5,,,33,100
34660,note_off,,,,,100,0,11,,,,,4,,,45,100
34660,note_off,,,,,100,0,8,,,,,1,,,76,100
34660,note_off,,,,,100,0,12,,,,,5,,,33,100
34660,note_off,,,,,100,0,14,,,,,6,,,45,100
34696,note_off,,,,,136,0,16,,,,,7,,,45,100
34752,note_on,,,,,92,0,8,,,,,1,,,69,100
34752,note_on,,,,,56,0,16,,,,,7,,,61,100
34752,note_on,,,,,92,0,11,,,,,4,,,61,100
34752,note_on,,,,,92,0,12,,,,,5,,,49,100
34752,note_on,,,,,92,0,14,,,,,6,,,61,100
34816,note_off,,,,,256,0,13,,,,,6,,,73,100
34816,note_off,,,,,256,0,15,,,,,7,,,73,100
34816,note_off,,,,,0,0,13,,,,,6,,,64,100
34816,note_off,,,,,256,0,9,,,,,2,,,79,100
34816,note_off,,,,,256,0,10,,,,,3,,,69,100
34816,note_off,,,,,0,0,15,,,,,7,,,64,100
34852,note_off,,,,,100,0,14,,,,,6,,,61,100
34852,note_off,,,,,100,0,8,,,,,1,,,69,100
34852,note_off,,,,,100,0,12,,,,,5,,,49,100
34852,note_off,,,,,100,0,11,,,,,4,,,61,100
34888,note_off,,,,,136,0,16,,,,,7,,,61,100
34944,note_on,,,,,128,0,10,,,,,3,,,69,100
34944,note_on,,,,,92,0,11,,,,,4,,,62,100
34944,note_on,,,,,92,0,8,,,,,1,,,77,100
34944,note_on,,,,,56,0,16,,,,,7,,,62,100
34944,note_on,,,,,92,0,14,,,,,6,,,62,100
34944,note_on,,,,,128,0,13,,,,,6,,,74,100
34944,note_on,,,,,92,0,12,,,,,5,,,50,100
34944,note_on,,,,,0,0,15,,,,,7,,,65,100
34944,note_on,,,,,128,0,9,,,,,2,,,77,100
34944,note_on,,,,,128,0,15,,,,,7,,,74,100
34944,note_on,,,,,0,0,13,,,,,6,,,65,100
35044,note_off,,,,,100,0,11,,,,,4,,,62,100
35044,note_off,,,,,100,0,12,,,,,5,,,50,100
35044,note_off,,,,,100,0,14,,,,,6,,,62,100
35044,note_off,,,,,100,0,8,,,,,1,,,77,100
35080,note_off,,,,,136,0,16,,,,,7,,,62,100
35136,note_on,,,,,92,0,8,,,,,1,,,69,100
35136,note_on,,,,,92,0,12,,,,,5,,,38,100
35136,note_on,,,,,56,0,16,,,,,7,,,50,100
35136,note_on,,,,,92,0,11,,,,,4,,,50,100
35136,note_on,,,,,92,0,14,,,,,6,,,50,100
35200,note_off,,,,,256,0,15,,,,,7,,,74,100
35200,note_off,,,,,256,0,13,,,,,6,,,74,100
35200,note_off,,,,,256,0,9,,,,,2,,,77,100
35200,note_off,,,,,256,0,10,,,,,3,,,69,100
35200,note_off,,,,,0,0,13,,,,,6,,,65,100
35200,note_off,,,,,0,0,15,,,,,7,,,65,100
35236,note_off,,,,,100,0,8,,,,,1,,,69,100
35236,note_off,,,,,100,0,12,,,,,5,,,38,100
35236,note_off,,,,,100,0,14,,,,,6,,,50,100
35236,note_off,,,,,100,0,11,,,,,4,,,50,100
35272,note_off,,,,,136,0,16,,,,,7,,,50,100
35328,note_on,,,,,92,0,14,,,,,6,,,45,100
35328,note_on,,,,,128,0,15,,,,,7,,,67,100
35328,note_on,,,,,92,0,8,,,,,1,,,79,100
35328,note_on,,,,,0,0,15,,,,,7,,,76,100
35328,note_on,,,,,128,0,13,,,,,6,,,67,100
35328,note_on,,,,,0,0,13,,,,,6,,,76,100
35328,note_on,,,,,92,0,12,,,,,5,,,33,100
35328,note_on,,,,,92,0,11,,,,,4,,,45,100
35328,note_on,,,,,128,0,9,,,,,2,,,76,100
35328,note_on,,,,,128,0,10,,,,,3,,,69,100
35328,note_on,,,,,56,0,16,,,,,7,,,45,100
35428,note_off,,,,,100,0,12,,,,,5,,,33,100
35428,note_off,,,,,100,0,11,,,,,4,,,45,100
35428,note_off,,,,,100,0,9,,,,,2,,,76,100
35428,note_off,,,,,100,0,14,,,,,6,,,45,100
35460,note_off,,,,,132,0,16,,,,,7,,,45,100
35520,note_on,,,,,92,0,11,,,,,4,,,61,100
35520,note_on,,,,,92,0,14,,,,,6,,,61,100
35520,note_on,,,,,92,0,9,,,,,2,,,69,100
35520,note_on,,,,,92,0,12,,,,,5,,,49,100
35520,note_on,,,,,60,0,16,,,,,7,,,61,100
35560,note_off,,,,,232,0,15,,,,,7,,,67,100
35560,note_off,,,,,0,0,15,,,,,7,,,76,100
35584,note_off,,,,,0,0,13,,,,,6,,,76,100
35584,note_off,,,,,256,0,13,,,,,6,,,67,100
35584,note_off,,,,,256,0,10,,,,,3,,,69,100
35584,note_off,,,,,256,0,8,,,,,1,,,79,100
35620,note_off,,,,,100,0,14,,,,,6,,,61,100
35620,note_off,,,,,100,0,11,,,,,4,,,61,100
35620,note_off,,,,,100,0,9,,,,,2,,,69,100
35620,note_off,,,,,100,0,12,,,,,5,,,49,100
35652,note_off,,,,,132,0,16,,,,,7,,,61,100
35712,note_on,,,,,92,0,12,,,,,5,,,50,100
35712,note_on,,,,,0,0,13,,,,,6,,,74,100
35712,note_on,,,,,128,0,13,,,,,6,,,65,100
35712,note_on,,,,,128,0,10,,,,,3,,,69,100
35712,note_on,,,,,0,0,15,,,,,7,,,74,100
35712,note_on,,,,,60,0,16,,,,,7,,,62,100
35712,note_on,,,,,92,0,14,,,,,6,,,62,100
35712,note_on,,,,,92,0,9,,,,,2,,,77,100
35712,note_on,,,,,92,0,11,,,,,4,,,62,100
35712,note_on,,,,,152,0,15,,,,,7,,,65,100
35712,note_on,,,,,128,0,8,,,,,1,,,77,100
35812,note_off,,,,,100,0,11,,,,,4,,,62,100
35812,note_off,,,,,100,0,9,,,,,2,,,77,100
35812,note_off,,,,,100,0,12,,,,,5,,,50,100
35812,note_off,,,,,100,0,14,,,,,6,,,62,100
35844,note_off,,,,,132,0,16,,,,,7,,,62,100
35904,note_on,,,,,92,0,9,,,,,2,,,69,100
35904,note_on,,,,,92,0,12,,,,,5,,,38,100
35904,note_on,,,,,92,0,11,,,,,4,,,50,100
35904,note_on,,,,,92,0,14,,,,,6,,,50,100
35904,note_on,,,,,60,0,16,,,,,7,,,50,100
35944,note_off,,,,,232,0,15,,,,,7,,,65,100
35944,note_off,,,,,0,0,15,,,,,7,,,74,100
35968,note_off,,,,,256,0,13,,,,,6,,,65,100
35968,note_off,,,,,0,0,13,,,,,6,,,74,100
35968,note_off,,,,,256,0,10,,,,,3,,,69,100
35968,note_off,,,,,256,0,8,,,,,1,,,77,100
36004,note_off,,,,,100,0,12,,,,,5,,,38,100
36004,note_off,,,,,100,0,14,,,,,6,,,50,100
36004,note_off,,,,,100,0,11,,,,,4,,,50,100
36004,note_off,,,,,100,0,9,,,,,2,,,69,100
36036,note_off,,,,,132,0,16,,,,,7,,,50,100
36096,note_on,,,,,92,0,12,,,,,5,,,43,100
36096,note_on,,,,,60,0,16,,,,,7,,,55,100
36096,note_on,,,,,128,0,8,,,,,1,,,75,100
36096,note_on,,,,,152,0,15,,,,,7,,,70,100
36096,note_on,,,,,128,0,10,,,,,3,,,70,100
36096,note_on,,,,,92,0,9,,,,,2,,,79,100
36096,note_on,,,,,92,0,14,,,,,6,,,55,100
36096,note_on,,,,,128,0,13,,,,,6,,,70,100
36096,note_on,,,,,92,0,11,,,,,4,,,55,100
36196,note_off,,,,,100,0,14,,,,,6,,,55,100
36196,note_off,,,,,100,0,11,,,,,4,,,55,100
36196,note_off,,,,,100,0,12,,,,,5,,,43,100
36224,note_off,,,,,128,0,13,,,,,6,,,70,100
36228,note_off,,,,,132,0,16,,,,,7,,,55,100
36248,note_off,,,,,152,0,15,,,,,7,,,70,100
36284,note_off,,,,,188,0,9,,,,,2,,,79,100
36284,note_off,,,,,188,0,8,,,,,1,,,75,100
36284,note_off,,,,,188,0,10,,,,,3,,,70,100
36288,note_on,,,,,4,0,8,,,,,1,,,73,100
36288,note_on,,,,,0,0,13,,,,,6,,,69,100
36288,note_on,,,,,4,0,9,,,,,2,,,76,100
36288,note_on,,,,,64,0,13,,,,,6,,,73,100
36288,note_on,,,,,40,0,15,,,,,7,,,73,100
36288,note_on,,,,,92,0,12,,,,,5,,,45,100
36288,note_on,,,,,92,0,11,,,,,4,,,57,100
36288,note_on,,,,,92,0,14,,,,,6,,,57,100
36288,note_on,,,,,0,0,15,,,,,7,,,69,100
36288,note_on,,,,,60,0,16,,,,,7,,,57,100
36288,note_on,,,,,4,0,10,,,,,3,,,69,100
36388,note_off,,,,,100,0,12,,,,,5,,,45,100
36388,note_off,,,,,100,0,14,,,,,6,,,57,100
36388,note_off,,,,,100,0,11,,,,,4,,,57,100
36416,note_off,,,,,128,0,9,,,,,2,,,76,100
36416,note_off,,,,,128,0,13,,,,,6,,,73,100
36416,note_off,,,,,128,0,10,,,,,3,,,69,100
36416,note_off,,,,,128,0,8,,,,,1,,,73,100
36420,note_off,,,,,132,0,16,,,,,7,,,57,100
36440,note_off,,,,,152,0,15,,,,,7,,,73,100
36480,note_on,,,,,92,0,12,,,,,5,,,41,100
36480,note_on,,,,,64,0,9,,,,,2,,,77,100
36480,note_on,,,,,92,0,11,,,,,4,,,53,100
36480,note_on,,,,,60,0,16,,,,,7,,,53,100
36480,note_on,,,,,64,0,13,,,,,6,,,74,100
36480,note_on,,,,,92,0,14,,,,,6,,,53,100
36480,note_on,,,,,64,0,8,,,,,1,,,74,100
36480,note_on,,,,,40,0,15,,,,,7,,,74,100
36480,note_on,,,,,64,0,10,,,,,3,,,69,100
36520,note_off,,,,,40,0,15,,,,,7,,,69,100
36544,note_off,,,,,64,0,13,,,,,6,,,69,100
36580,note_off,,,,,100,0,12,,,,,5,,,41,100
36580,note_off,,,,,100,0,14,,,,,6,,,53,100
36580,note_off,,,,,100,0,11,,,,,4,,,53,100
36608,note_off,,,,,128,0,9,,,,,2,,,77,100
36608,note_off,,,,,128,0,8,,,,,1,,,74,100
36608,note_off,,,,,128,0,10,,,,,3,,,69,100
36612,note_off,,,,,132,0,16,,,,,7,,,53,100
36672,note_on,,,,,64,0,10,,,,,3,,,70,100
36672,note_on,,,,,92,0,14,,,,,6,,,55,100
36672,note_on,,,,,64,0,8,,,,,1,,,79,100
36672,note_on,,,,,92,0,11,,,,,4,,,55,100
36672,note_on,,,,,152,0,15,,,,,7,,,70,100
36672,note_on,,,,,92,0,12,,,,,5,,,43,100
36672,note_on,,,,,60,0,16,,,,,7,,,55,100
36672,note_on,,,,,128,0,13,,,,,6,,,70,100
36672,note_on,,,,,64,0,9,,,,,2,,,74,100
36712,note_off,,,,,40,0,15,,,,,7,,,74,100
36736,note_off,,,,,64,0,13,,,,,6,,,74,100
36772,note_off,,,,,100,0,14,,,,,6,,,55,100
36772,note_off,,,,,100,0,10,,,,,3,,,70,100
36772,note_off,,,,,100,0,11,,,,,4,,,55,100
36772,note_off,,,,,100,0,12,,,,,5,,,43,100
36800,note_off,,,,,128,0,8,,,,,1,,,79,100
36800,note_off,,,,,128,0,9,,,,,2,,,74,100
36800,note_off,,,,,64,0,13,,,,,6,,,70,100
36804,note_off,,,,,132,0,16,,,,,7,,,55,100
36824,note_off,,,,,112,0,15,,,,,7,,,70,100
36864,note_on,,,,,92,0,11,,,,,4,,,57,100
36864,note_on,,,,,92,0,14,,,,,6,,,57,100
36864,note_on,,,,,92,0,12,,,,,5,,,45,100
36864,note_on,,,,,60,0,16,,,,,7,,,57,100
36864,note_on,,,,,92,0,10,,,,,3,,,69,100
36864,note_on,,,,,40,0,15,,,,,7,,,64,100
36864,note_on,,,,,0,0,13,,,,,6,,,73,100
36864,note_on,,,,,64,0,13,,,,,6,,,64,100
36864,note_on,,,,,64,0,8,,,,,1,,,77,100
36864,note_on,,,,,0,0,15,,,,,7,,,73,100
36864,note_on,,,,,64,0,9,,,,,2,,,74,100
36964,note_off,,,,,100,0,12,,,,,5,,,45,100
36964,note_off,,,,,100,0,14,,,,,6,,,57,100
36964,note_off,,,,,100,0,11,,,,,4,,,57,100
36992,note_off,,,,,128,0,13,,,,,6,,,73,100
36996,note_off,,,,,132,0,16,,,,,7,,,57,100
37016,note_off,,,,,152,0,15,,,,,7,,,73,100
37052,note_off,,,,,188,0,10,,,,,3,,,69,100
37056,note_on,,,,,4,0,10,,,,,3,,,71,99
37056,note_on,,,,,92,0,14,,,,,6,,,56,100
37056,note_on,,,,,40,0,15,,,,,7,,,71,100
37056,note_on,,,,,92,0,12,,,,,5,,,44,99
37056,note_on,,,,,64,0,13,,,,,6,,,71,100
37056,note_on,,,,,92,0,11,,,,,4,,,56,99
37056,note_on,,,,,60,0,16,,,,,7,,,56,100
37096,note_off,,,,,40,0,15,,,,,7,,,64,100
37120,note_off,,,,,64,0,13,,,,,6,,,64,100
37120,note_off,,,,,256,0,9,,,,,2,,,74,100
37120,note_off,,,,,256,0,8,,,,,1,,,77,100
37156,note_off,,,,,100,0,11,,,,,4,,,56,100
37156,note_off,,,,,100,0,12,,,,,5,,,44,100
37156,note_off,,,,,100,0,14,,,,,6,,,56,100
37184,note_off,,,,,64,0,13,,,,,6,,,71,100
37184,note_off,,,,,128,0,10,,,,,3,,,71,100
37188,note_off,,,,,132,0,16,,,,,7,,,56,100
37208,note_off,,,,,112,0,15,,,,,7,,,71,100
37248,note_on,,,,,128,0,9,,,,,2,,,73,98
37248,note_on,,,,,40,0,15,,,,,7,,,61,100
37248,note_on,,,,,0,0,15,,,,,7,,,69,100
37248,note_on,,,,,92,0,11,,,,,4,,,57,98
37248,note_on,,,,,92,0,12,,,,,5,,,45,98
37248,note_on,,,,,128,0,8,,,,,1,,,76,98
37248,note_on,,,,,92,0,14,,,,,6,,,57,100
37248,note_on,,,,,60,0,16,,,,,7,,,57,100
37248,note_on,,,,,0,0,13,,,,,6,,,69,100
37248,note_on,,,,,64,0,13,,,,,6,,,61,100
37248,note_on,,,,,64,0,10,,,,,3,,,64,98
37292,note_off,,,,,44,0,9,,,,,2,,,73,100
37292,note_off,,,,,44,0,8,,,,,1,,,76,100
37296,note_on,,,,,4,0,9,,,,,2,,,74,98
37296,note_on,,,,,4,0,8,,,,,1,,,77,98
37340,note_off,,,,,44,0,9,,,,,2,,,74,100
37340,note_off,,,,,44,0,8,,,,,1,,,77,100
37344,note_on,,,,,4,0,8,,,,,1,,,76,97
37344,note_on,,,,,4,0,9,,,,,2,,,73,97
37348,note_off,,,,,100,0,11,,,,,4,,,57,100
37348,note_off,,,,,100,0,14,,,,,6,,,57,100
37348,note_off,,,,,100,0,10,,,,,3,,,64,100
37348,note_off,,,,,100,0,12,,,,,5,,,45,100
37376,note_off,,,,,128,0,13,,,,,6,,,69,100
37380,note_off,,,,,132,0,16,,,,,7,,,57,100
37388,note_off,,,,,44,0,9,,,,,2,,,73,100
37388,note_off,,,,,44,0,8,,,,,1,,,76,100
37392,note_on,,,,,4,0,9,,,,,2,,,74,97
37392,note_on,,,,,4,0,8,,,,,1,,,77,97
37400,note_off,,,,,152,0,15,,,,,7,,,69,100
37436,note_off,,,,,44,0,8,,,,,1,,,77,100
37436,note_off,,,,,44,0,9,,,,,2,,,74,100
37440,note_on,,,,,64,0,13,,,,,6,,,67,100
37440,note_on,,,,,92,0,12,,,,,5,,,33,97
37440,note_on,,,,,92,0,11,,,,,4,,,45,97
37440,note_on,,,,,40,0,15,,,,,7,,,67,100
37440,note_on,,,,,4,0,8,,,,,1,,,76,97
37440,note_on,,,,,4,0,9,,,,,2,,,73,97
37440,note_on,,,,,92,0,14,,,,,6,,,45,100
37440,note_on,,,,,60,0,16,,,,,7,,,45,100
37440,note_on,,,,,92,0,10,,,,,3,,,69,97
37480,note_off,,,,,40,0,15,,,,,7,,,61,100
37484,note_off,,,,,44,0,8,,,,,1,,,76,100
37484,note_off,,,,,44,0,9,,,,,2,,,73,100
37488,note_on,,,,,4,0,8,,,,,1,,,77,96
37488,note_on,,,,,4,0,9,,,,,2,,,74,96
37504,note_off,,,,,64,0,13,,,,,6,,,61,100
37532,note_off,,,,,44,0,8,,,,,1,,,77,100
37532,note_off,,,,,44,0,9,,,,,2,,,74,100
37536,note_on,,,,,4,0,9,,,,,2,,,73,96
37536,note_on,,,,,4,0,8,,,,,1,,,76,96
37540,note_off,,,,,100,0,14,,,,,6,,,45,100
37540,note_off,,,,,100,0,11,,,,,4,,,45,100
37540,note_off,,,,,100,0,10,,,,,3,,,69,100
37540,note_off,,,,,100,0,12,,,,,5,,,33,100
37568,note_off,,,,,64,0,13,,,,,6,,,67,100
37572,note_off,,,,,132,0,16,,,,,7,,,45,100
37592,note_off,,,,,112,0,15,,,,,7,,,67,100
37600,note_off,,,,,64,0,8,,,,,1,,,76,100
37600,note_off,,,,,64,0,9,,,,,2,,,73,100
37632,note_on,,,,,40,0,15,,,,,7,,,62,100
37632,note_on,,,,,92,0,14,,,,,6,,,50,100
37632,note_on,,,,,64,0,13,,,,,6,,,62,100
37632,note_on,,,,,92,0,10,,,,,3,,,65,96
37632,note_on,,,,,0,0,15,,,,,7,,,65,100
37632,note_on,,,,,0,0,13,,,,,6,,,65,100
37632,note_on,,,,,92,0,12,,,,,5,,,38,96
37632,note_on,,,,,32,0,9,,,,,2,,,74,96
37632,note_on,,,,,92,0,11,,,,,4,,,50,96
37632,note_on,,,,,32,0,8,,,,,1,,,74,96
37632,note_on,,,,,60,0,16,,,,,7,,,50,100
37732,note_off,,,,,100,0,14,,,,,6,,,50,100
37732,note_off,,,,,100,0,12,,,,,5,,,38,100
37732,note_off,,,,,100,0,11,,,,,4,,,50,100
37732,note_off,,,,,100,0,8,,,,,1,,,74,100
37764,note_off,,,,,132,0,16,,,,,7,,,50,100
37824,note_on,,,,,92,0,12,,,,,5,,,50,95
37824,note_on,,,,,92,0,11,,,,,4,,,62,95
37824,note_on,,,,,92,0,14,,,,,6,,,62,100
37824,note_on,,,,,60,0,16,,,,,7,,,62,100
37824,note_on,,,,,92,0,8,,,,,1,,,69,95
37864,note_off,,,,,0,0,15,,,,,7,,,65,100
37864,note_off,,,,,232,0,15,,,,,7,,,62,100
37888,note_off,,,,,256,0,13,,,,,6,,,62,100
37888,note_off,,,,,256,0,10,,,,,3,,,65,100
37888,note_off,,,,,256,0,9,,,,,2,,,74,100
37888,note_off,,,,,0,0,13,,,,,6,,,65,100
37924,note_off,,,,,100,0,12,,,,,5,,,50,100
37924,note_off,,,,,100,0,8,,,,,1,,,69,100
37924,note_off,,,,,100,0,11,,,,,4,,,62,100
37924,note_off,,,,,100,0,14,,,,,6,,,62,100
37956,note_off,,,,,132,0,16,,,,,7,,,62,100
38016,note_on,,,,,128,0,13,,,,,6,,,64,100
38016,note_on,,,,,92,0,11,,,,,4,,,61,95
38016,note_on,,,,,0,0,15,,,,,7,,,69,100
38016,note_on,,,,,60,0,16,,,,,7,,,61,100
38016,note_on,,,,,0,0,13,,,,,6,,,69,100
38016,note_on,,,,,92,0,8,,,,,1,,,76,95
38016,note_on,,,,,92,0,12,,,,,5,,,49,95
38016,note_on,,,,,152,0,15,,,,,7,,,64,100
38016,note_on,,,,,92,0,14,,,,,6,,,61,100
38116,note_off,,,,,100,0,11,,,,,4,,,61,100
38116,note_off,,,,,100,0,8,,,,,1,,,76,100
38116,note_off,,,,,100,0,14,,,,,6,,,61,100
38116,note_off,,,,,100,0,12,,,,,5,,,49,100
38148,note_off,,,,,132,0,16,,,,,7,,,61,100
38208,note_on,,,,,60,0,16,,,,,7,,,57,100
38208,note_on,,,,,92,0,8,,,,,1,,,69,95
38208,note_on,,,,,92,0,11,,,,,4,,,57,95
38208,note_on,,,,,92,0,14,,,,,6,,,57,100
38208,note_on,,,,,92,0,12,,,,,5,,,45,95
38248,note_off,,,,,232,0,15,,,,,7,,,64,100
38248,note_off,,,,,0,0,15,,,,,7,,,69,100
38272,note_off,,,,,0,0,13,,,,,6,,,69,100
38272,note_off,,,,,256,0,13,,,,,6,,,64,100
38308,note_off,,,,,100,0,12,,,,,5,,,45,100
38308,note_off,,,,,100,0,11,,,,,4,,,57,100
38308,note_off,,,,,100,0,8,,,,,1,,,69,100
38308,note_off,,,,,100,0,14,,,,,6,,,57,100
38340,note_off,,,,,132,0,16,,,,,7,,,57,100
38400,note_on,,,,,92,0,14,,,,,6,,,50,100
38400,note_on,,,,,92,0,11,,,,,4,,,50,95
38400,note_on,,,,,60,0,16,,,,,7,,,50,100
38400,note_on,,,,,0,0,13,,,,,6,,,65,100
38400,note_on,,,,,512,0,10,,,,,3,,,69,95
38400,note_on,,,,,512,0,9,,,,,2,,,74,95
38400,note_on,,,,,92,0,8,,,,,1,,,77,95
38400,note_on,,,,,92,0,12,,,,,5,,,38,95
38400,note_on,,,,,128,0,13,,,,,6,,,74,100
38400,note_on,,,,,152,0,15,,,,,7,,,74,100
38400,note_on,,,,,0,0,15,,,,,7,,,65,100
38500,note_off,,,,,100,0,9,,,,,2,,,74,100
38500,note_off,,,,,100,0,14,,,,,6,,,50,100
38500,note_off,,,,,100,0,11,,,,,4,,,50,100
38500,note_off,,,,,100,0,12,,,,,5,,,38,100
38532,note_off,,,,,132,0,16,,,,,7,,,50,100
38592,note_on,,,,,92,0,11,,,,,4,,,62,95
38592,note_on,,,,,60,0,16,,,,,7,,,62,100
38592,note_on,,,,,92,0,14,,,,,6,,,62,100
38592,note_on,,,,,92,0,9,,,,,2,,,69,95
38592,note_on,,,,,92,0,12,,,,,5,,,50,95
38632,note_off,,,,,0,0,15,,,,,7,,,65,100
38632,note_off,,,,,232,0,15,,,,,7,,,74,100
38656,note_off,,,,,256,0,8,,,,,1,,,77,100
38656,note_off,,,,,256,0,13,,,,,6,,,74,100
38656,note_off,,,,,256,0,10,,,,,3,,,69,100
38656,note_off,,,,,0,0,13,,,,,6,,,65,100
38692,note_off,,,,,100,0,9,,,,,2,,,69,100
38692,note_off,,,,,100,0,14,,,,,6,,,62,100
38692,note_off,,,,,100,0,12,,,,,5,,,50,100
38692,note_off,,,,,100,0,11,,,,,4,,,62,100
38724,note_off,,,,,132,0,16,,,,,7,,,62,100
38784,note_on,,,,,92,0,14,,,,,6,,,61,100
38784,note_on,,,,,0,0,15,,,,,7,,,69,100
38784,note_on,,,,,92,0,9,,,,,2,,,76,95
38784,note_on,,,,,92,0,12,,,,,5,,,49,95
38784,note_on,,,,,60,0,16,,,,,7,,,61,100
38784,note_on,,,,,92,0,11,,,,,4,,,61,95
38784,note_on,,,,,152,0,15,,,,,7,,,76,100
38784,note_on,,,,,128,0,8,,,,,1,,,76,95
38784,note_on,,,,,128,0,10,,,,,3,,,69,95
38784,note_on,,,,,128,0,13,,,,,6,,,76,100
38784,note_on,,,,,0,0,13,,,,,6,,,69,100
38884,note_off,,,,,100,0,12,,,,,5,,,49,100
38884,note_off,,,,,100,0,9,,,,,2,,,76,100
38884,note_off,,,,,100,0,14,,,,,6,,,61,100
38884,note_off,,,,,100,0,11,,,,,4,,,61,100
38916,note_off,,,,,132,0,16,,,,,7,,,61,100
38976,note_on,,,,,92,0,12,,,,,5,,,45,95
38976,note_on,,,,,60,0,16,,,,,7,,,57,100
38976,note_on,,,,,92,0,9,,,,,2,,,69,95
38976,note_on,,,,,92,0,11,,,,,4,,,57,95
38976,note_on,,,,,92,0,14,,,,,6,,,57,100
39016,note_off,,,,,0,0,15,,,,,7,,,69,100
39016,note_off,,,,,232,0,15,,,,,7,,,76,100
39040,note_off,,,,,0,0,13,,,,,6,,,69,100
39040,note_off,,,,,256,0,10,,,,,3,,,69,100
39040,note_off,,,,,256,0,8,,,,,1,,,76,100
39040,note_off,,,,,256,0,13,,,,,6,,,76,100
39076,note_off,,,,,100,0,9,,,,,2,,,69,100
39076,note_off,,,,,100,0,11,,,,,4,,,57,100
39076,note_off,,,,,100,0,12,,,,,5,,,45,100
39076,note_off,,,,,100,0,14,,,,,6,,,57,100
39108,note_off,,,,,132,0,16,,,,,7,,,57,100
39168,note_on,,,,,128,0,13,,,,,6,,,74,100
39168,note_on,,,,,92,0,9,,,,,2,,,77,95
39168,note_on,,,,,128,0,8,,,,,1,,,74,95
39168,note_on,,,,,128,0,10,,,,,3,,,69,95
39168,note_on,,,,,92,0,14,,,,,6,,,50,100
39168,note_on,,,,,0,0,13,,,,,6,,,77,100
39168,note_on,,,,,92,0,11,,,,,4,,,50,95
39168,note_on,,,,,60,0,16,,,,,7,,,50,100
39168,note_on,,,,,0,0,15,,,,,7,,,77,100
39168,note_on,,,,,92,0,12,,,,,5,,,38,95
39168,note_on,,,,,152,0,15,,,,,7,,,74,100
39268,note_off,,,,,100,0,12,,,,,5,,,38,100
39268,note_off,,,,,100,0,14,,,,,6,,,50,100
39268,note_off,,,,,100,0,8,,,,,1,,,74,100
39268,note_off,,,,,100,0,11,,,,,4,,,50,100
39300,note_off,,,,,132,0,16,,,,,7,,,50,100
39360,note_on,,,,,92,0,12,,,,,5,,,50,94
39360,note_on,,,,,60,0,16,,,,,7,,,62,100
39360,note_on,,,,,92,0,8,,,,,1,,,69,94
39360,note_on,,,,,92,0,11,,,,,4,,,62,94
39360,note_on,,,,,92,0,14,,,,,6,,,62,100
39400,note_off,,,,,232,0,15,,,,,7,,,74,100
39400,note_off,,,,,0,0,15,,,,,7,,,77,100
39424,note_off,,,,,256,0,10,,,,,3,,,69,100
39424,note_off,,,,,256,0,9,,,,,2,,,77,100
39424,note_off,,,,,0,0,13,,,,,6,,,77,100
39424,note_off,,,,,256,0,13,,,,,6,,,74,100
39460,note_off,,,,,100,0,8,,,,,1,,,69,100
39460,note_off,,,,,100,0,14,,,,,6,,,62,100
39460,note_off,,,,,100,0,11,,,,,4,,,62,100
39460,note_off,,,,,100,0,12,,,,,5,,,50,100
39492,note_off,,,,,132,0,16,,,,,7,,,62,100
39552,note_on,,,,,92,0,14,,,,,6,,,61,100
39552,note_on,,,,,60,0,16,,,,,7,,,61,100
39552,note_on,,,,,92,0,11,,,,,4,,,61,93
39552,note_on,,,,,128,0,10,,,,,3,,,69,93
39552,note_on,,,,,0,0,13,,,,,6,,,81,100
39552,note_on,,,,,128,0,13,,,,,6,,,76,100
39552,note_on,,,,,128,0,9,,,,,2,,,76,93
39552,note_on,,,,,92,0,12,,,,,5,,,49,93
39552,note_on,,,,,0,0,15,,,,,7,,,81,100
39552,note_on,,,,,152,0,15,,,,,7,,,76,100
39552,note_on,,,,,92,0,8,,,,,1,,,76,93
39652,note_off,,,,,100,0,12,,,,,5,,,49,100
39652,note_off,,,,,100,0,11,,,,,4,,,61,100
39652,note_off,,,,,100,0,14,,,,,6,,,61,100
39652,note_off,,,,,100,0,8,,,,,1,,,76,100
39684,note_off,,,,,132,0,16,,,,,7,,,61,100
39744,note_on,,,,,92,0,14,,,,,6,,,57,100
39744,note_on,,,,,92,0,11,,,,,4,,,57,92
39744,note_on,,,,,60,0,16,,,,,7,,,57,100
39744,note_on,,,,,92,0,8,,,,,1,,,69,92
39744,note_on,,,,,92,0,12,,,,,5,,,45,92
39784,note_off,,,,,232,0,15,,,,,7,,,76,100
39784,note_off,,,,,0,0,15,,,,,7,,,81,100
39808,note_off,,,,,256,0,9,,,,,2,,,76,100
39808,note_off,,,,,256,0,10,,,,,3,,,69,100
39808,note_off,,,,,0,0,13,,,,,6,,,81,100
39808,note_off,,,,,256,0,13,,,,,6,,,76,100
39844,note_off,,,,,100,0,14,,,,,6,,,57,100
39844,note_off,,,,,100,0,11,,,,,4,,,57,100
39844,note_off,,,,,100,0,12,,,,,5,,,45,100
39844,note_off,,,,,100,0,8,,,,,1,,,69,100
39876,note_off,,,,,132,0,16,,,,,7,,,57,100
39936,note_on,,,,,0,0,13,,,,,6,,,86,100
39936,note_on,,,,,128,0,13,,,,,6,,,77,100
39936,note_on,,,,,60,0,16,,,,,7,,,50,100
39936,note_on,,,,,92,0,8,,,,,1,,,77,90
39936,note_on,,,,,128,0,9,,,,,2,,,74,90
39936,note_on,,,,,92,0,12,,,,,5,,,38,90
39936,note_on,,,,,92,0,14,,,,,6,,,50,100
39936,note_on,,,,,0,0,15,,,,,7,,,86,100
39936,note_on,,,,,152,0,15,,,,,7,,,77,100
39936,note_on,,,,,92,0,11,,,,,4,,,50,90
39936,note_on,,,,,128,0,10,,,,,3,,,69,90
40036,note_off,,,,,100,0,14,,,,,6,,,50,100
40036,note_off,,,,,100,0,11,,,,,4,,,50,100
40036,note_off,,,,,100,0,9,,,,,2,,,74,100
40036,note_off,,,,,100,0,12,,,,,5,,,38,100
40068,note_off,,,,,132,0,16,,,,,7,,,50,100
40128,note_on,,,,,60,0,16,,,,,7,,,62,100
40128,note_on,,,,,92,0,12,,,,,5,,,50,91
40128,note_on,,,,,92,0,11,,,,,4,,,62,91
40128,note_on,,,,,92,0,9,,,,,2,,,69,91
40128,note_on,,,,,92,0,14,,,,,6,,,62,100
40168,note_off,,,,,232,0,15,,,,,7,,,77,100
40168,note_off,,,,,0,0,15,,,,,7,,,86,100
40192,note_off,,,,,256,0,8,,,,,1,,,77,100
40192,note_off,,,,,256,0,13,,,,,6,,,77,100
40192,note_off,,,,,256,0,10,,,,,3,,,69,100
40192,note_off,,,,,0,0,13,,,,,6,,,86,100
40228,note_off,,,,,100,0,9,,,,,2,,,69,100
40228,note_off,,,,,100,0,12,,,,,5,,,50,100
40228,note_off,,,,,100,0,14,,,,,6,,,62,100
40228,note_off,,,,,100,0,11,,,,,4,,,62,100
40260,note_off,,,,,132,0,16,,,,,7,,,62,100
40320,note_on,,,,,92,0,14,,,,,6,,,61,100
40320,note_on,,,,,0,0,15,,,,,7,,,81,100
40320,note_on,,,,,92,0,9,,,,,2,,,76,92
40320,note_on,,,,,152,0,15,,,,,7,,,76,100
40320,note_on,,,,,60,0,16,,,,,7,,,61,100
40320,note_on,,,,,92,0,12,,,,,5,,,49,92
40320,note_on,,,,,128,0,10,,,,,3,,,69,92
40320,note_on,,,,,92,0,11,,,,,4,,,61,92
40320,note_on,,,,,0,0,13,,,,,6,,,81,100
40320,note_on,,,,,128,0,8,,,,,1,,,76,92
40320,note_on,,,,,128,0,13,,,,,6,,,76,100
40420,note_off,,,,,100,0,14,,,,,6,,,61,100
40420,note_off,,,,,100,0,12,,,,,5,,,49,100
40420,note_off,,,,,100,0,9,,,,,2,,,76,100
40420,note_off,,,,,100,0,11,,,,,4,,,61,100
40452,note_off,,,,,132,0,16,,,,,7,,,61,100
40512,note_on,,,,,92,0,9,,,,,2,,,69,93
40512,note_on,,,,,92,0,11,,,,,4,,,57,93
40512,note_on,,,,,92,0,14,,,,,6,,,57,100
40512,note_on,,,,,60,0,16,,,,,7,,,57,100
40512,note_on,,,,,92,0,12,,,,,5,,,45,93
40552,note_off,,,,,232,0,15,,,,,7,,,76,100
40552,note_off,,,,,0,0,15,,,,,7,,,81,100
40576,note_off,,,,,256,0,8,,,,,1,,,76,100
40576,note_off,,,,,256,0,10,,,,,3,,,69,100
40576,note_off,,,,,256,0,13,,,,,6,,,76,100
40576,note_off,,,,,0,0,13,,,,,6,,,81,100
40612,note_off,,,,,100,0,12,,,,,5,,,45,100
40612,note_off,,,,,100,0,14,,,,,6,,,57,100
40612,note_off,,,,,100,0,9,,,,,2,,,69,100
40612,note_off,,,,,100,0,11,,,,,4,,,57,100
40644,note_off,,,,,132,0,16,,,,,7,,,57,100
40704,note_on,,,,,128,0,13,,,,,6,,,74,100
40704,note_on,,,,,92,0,14,,,,,6,,,50,100
40704,note_on,,,,,0,0,15,,,,,7,,,77,100
40704,note_on,,,,,0,0,13,,,,,6,,,77,100
40704,note_on,,,,,60,0,16,,,,,7,,,50,100
40704,note_on,,,,,92,0,9,,,,,2,,,77,94
40704,note_on,,,,,128,0,8,,,,,1,,,74,94
40704,note_on,,,,,92,0,12,,,,,5,,,38,94
40704,note_on,,,,,92,0,11,,,,,4,,,50,94
40704,note_on,,,,,128,0,10,,,,,3,,,69,94
40704,note_on,,,,,152,0,15,,,,,7,,,74,100
40804,note_off,,,,,100,0,8,,,,,1,,,74,100
40896,note_on,,,,,92,0,8,,,,,1,,,69,92
40936,note_off,,,,,232,0,16,,,,,7,,,50,100
40936,note_off,,,,,0,0,15,,,,,7,,,77,100
40936,note_off,,,,,232,0,15,,,,,7,,,74,100
40960,note_off,,,,,256,0,12,,,,,5,,,38,100
40960,note_off,,,,,256,0,10,,,,,3,,,69,100
40960,note_off,,,,,256,0,9,,,,,2,,,77,100
40960,note_off,,,,,256,0,11,,,,,4,,,50,100
40960,note_off,,,,,256,0,13,,,,,6,,,74,100
40960,note_off,,,,,0,0,13,,,,,6,,,77,100
40960,note_off,,,,,256,0,14,,,,,6,,,50,100
40996,note_off,,,,,100,0,8,,,,,1,,,69,100
41088,note_on,,,,,92,0,8,,,,,1,,,74,93
41188,note_off,,,,,100,0,8,,,,,1,,,74,100
41280,note_on,,,,,92,0,8,,,,,1,,,77,95
41380,note_off,,,,,100,0,8,,,,,1,,,77,100
41472,note_on,,,,,92,0,8,,,,,1,,,81,97
41664,note_on,,,,,728,0,15,,,,,7,,,66,100
41664,note_on,,,,,0,0,15,,,,,7,,,69,100
41664,note_on,,,,,704,0,12,,,,,5,,,50,99
41664,note_on,,,,,728,0,16,,,,,7,,,62,100
41664,note_on,,,,,704,0,10,,,,,3,,,66,99
41664,note_on,,,,,704,0,9,,,,,2,,,69,99
41664,note_on,,,,,704,0,13,,,,,6,,,66,100
41664,note_on,,,,,0,0,13,,,,,6,,,69,100
41664,note_on,,,,,704,0,11,,,,,4,,,62,99
41664,note_on,,,,,704,0,14,,,,,6,,,62,100
41728,note_off,,,,,256,0,8,,,,,1,,,81,100
41764,note_off,,,,,100,0,14,,,,,6,,,62,100
41764,note_off,,,,,100,0,10,,,,,3,,,66,100
41764,note_off,,,,,100,0,9,,,,,2,,,69,100
41764,note_off,,,,,100,0,12,,,,,5,,,50,100
41764,note_off,,,,,100,0,11,,,,,4,,,62,100
41792,note_off,,,,,128,0,13,,,,,6,,,69,100
41796,note_off,,,,,132,0,16,,,,,7,,,62,100
41816,note_off,,,,,152,0,15,,,,,7,,,69,100
41856,note_on,,,,,40,0,15,,,,,7,,,74,100
41856,note_on,,,,,92,0,9,,,,,2,,,74,101
41856,note_on,,,,,92,0,14,,,,,6,,,60,100
41856,note_on,,,,,92,0,12,,,,,5,,,48,101
41856,note_on,,,,,60,0,16,,,,,7,,,60,100
41856,note_on,,,,,92,0,11,,,,,4,,,60,101
41856,note_on,,,,,92,0,10,,,,,3,,,69,101
41856,note_on,,,,,128,0,8,,,,,1,,,79,101
41856,note_on,,,,,64,0,13,,,,,6,,,74,100
41896,note_off,,,,,40,0,15,,,,,7,,,66,100
41920,note_off,,,,,64,0,13,,,,,6,,,66,100
41948,note_off,,,,,92,0,8,,,,,1,,,79,100
41952,note_on,,,,,4,0,8,,,,,1,,,78,102
41956,note_off,,,,,100,0,9,,,,,2,,,74,100
41956,note_off,,,,,100,0,12,,,,,5,,,48,100
41956,note_off,,,,,100,0,14,,,,,6,,,60,100
41956,note_off,,,,,100,0,11,,,,,4,,,60,100
41956,note_off,,,,,100,0,10,,,,,3,,,69,100
41984,note_off,,,,,64,0,13,,,,,6,,,74,100
41988,note_off,,,,,132,0,16,,,,,7,,,60,100
41996,note_off,,,,,44,0,8,,,,,1,,,78,100
42000,note_on,,,,,4,0,8,,,,,1,,,79,102
42008,note_off,,,,,112,0,15,,,,,7,,,74,100
42044,note_off,,,,,44,0,8,,,,,1,,,79,100
42048,note_on,,,,,60,0,16,,,,,7,,,48,100
42048,note_on,,,,,64,0,13,,,,,6,,,62,100
42048,note_on,,,,,0,0,13,,,,,6,,,66,100
42048,note_on,,,,,92,0,9,,,,,2,,,81,103
42048,note_on,,,,,92,0,11,,,,,4,,,48,103
42048,note_on,,,,,0,0,15,,,,,7,,,66,100
42048,note_on,,,,,92,0,12,,,,,5,,,36,103
42048,note_on,,,,,92,0,14,,,,,6,,,48,100
42048,note_on,,,,,92,0,10,,,,,3,,,66,103
42048,note_on,,,,,40,0,15,,,,,7,,,62,100
42048,note_on,,,,,4,0,8,,,,,1,,,78,103
42092,note_off,,,,,44,0,8,,,,,1,,,78,100
42096,note_on,,,,,4,0,8,,,,,1,,,79,103
42140,note_off,,,,,44,0,8,,,,,1,,,79,100
42144,note_on,,,,,4,0,8,,,,,1,,,78,104
42148,note_off,,,,,100,0,10,,,,,3,,,66,100
42148,note_off,,,,,100,0,11,,,,,4,,,48,100
42148,note_off,,,,,100,0,14,,,,,6,,,48,100
42148,note_off,,,,,100,0,9,,,,,2,,,81,100
42148,note_off,,,,,100,0,12,,,,,5,,,36,100
42176,note_off,,,,,128,0,13,,,,,6,,,66,100
42180,note_off,,,,,132,0,16,,,,,7,,,48,100
42200,note_off,,,,,152,0,15,,,,,7,,,66,100
42208,note_off,,,,,64,0,8,,,,,1,,,78,100
42240,note_on,,,,,60,0,16,,,,,7,,,46,100
42240,note_on,,,,,92,0,14,,,,,6,,,46,100
42240,note_on,,,,,40,0,15,,,,,7,,,67,100
42240,note_on,,,,,32,0,8,,,,,1,,,79,104
42240,note_on,,,,,92,0,9,,,,,2,,,82,104
42240,note_on,,,,,92,0,12,,,,,5,,,34,104
42240,note_on,,,,,64,0,13,,,,,6,,,67,100
42240,note_on,,,,,92,0,10,,,,,3,,,62,104
42240,note_on,,,,,92,0,11,,,,,4,,,46,104
42340,note_off,,,,,100,0,12,,,,,5,,,34,100
42340,note_off,,,,,100,0,8,,,,,1,,,79,100
42340,note_off,,,,,100,0,14,,,,,6,,,46,100
42340,note_off,,,,,100,0,11,,,,,4,,,46,100
42372,note_off,,,,,132,0,16,,,,,7,,,46,100
42432,note_on,,,,,92,0,11,,,,,4,,,55,100
42432,note_on,,,,,60,0,16,,,,,7,,,55,100
42432,note_on,,,,,92,0,14,,,,,6,,,55,100
42432,note_on,,,,,92,0,12,,,,,5,,,43,100
42432,note_on,,,,,92,0,8,,,,,1,,,74,100
42472,note_off,,,,,0,0,15,,,,,7,,,67,100
42472,note_off,,,,,232,0,15,,,,,7,,,62,100
42496,note_off,,,,,256,0,9,,,,,2,,,82,100
42496,note_off,,,,,0,0,13,,,,,6,,,67,100
42496,note_off,,,,,256,0,10,,,,,3,,,62,100
42496,note_off,,,,,256,0,13,,,,,6,,,62,100
42532,note_off,,,,,100,0,12,,,,,5,,,43,100
42532,note_off,,,,,100,0,8,,,,,1,,,74,100
42532,note_off,,,,,100,0,11,,,,,4,,,55,100
42532,note_off,,,,,100,0,14,,,,,6,,,55,100
42564,note_off,,,,,132,0,16,,,,,7,,,55,100
42624,note_on,,,,,92,0,12,,,,,5,,,42,100
42624,note_on,,,,,128,0,10,,,,,3,,,62,100
42624,note_on,,,,,92,0,11,,,,,4,,,54,100
42624,note_on,,,,,60,0,16,,,,,7,,,54,100
42624,note_on,,,,,0,0,15,,,,,7,,,69,100
42624,note_on,,,,,152,0,15,,,,,7,,,62,100
42624,note_on,,,,,128,0,13,,,,,6,,,62,100
42624,note_on,,,,,0,0,13,,,,,6,,,69,100
42624,note_on,,,,,92,0,14,,,,,6,,,54,100
42624,note_on,,,,,128,0,9,,,,,2,,,81,100
42624,note_on,,,,,92,0,8,,,,,1,,,81,100
42724,note_off,,,,,100,0,12,,,,,5,,,42,100
42724,note_off,,,,,100,0,8,,,,,1,,,81,100
42724,note_off,,,,,100,0,14,,,,,6,,,54,100
42724,note_off,,,,,100,0,11,,,,,4,,,54,100
42756,note_off,,,,,132,0,16,,,,,7,,,54,100
42816,note_on,,,,,92,0,14,,,,,6,,,50,100
42816,note_on,,,,,92,0,8,,,,,1,,,74,100
42816,note_on,,,,,92,0,12,,,,,5,,,38,100
42816,note_on,,,,,92,0,11,,,,,4,,,50,100
42816,note_on,,,,,60,0,16,,,,,7,,,50,100
42856,note_off,,,,,0,0,15,,,,,7,,,69,100
42856,note_off,,,,,232,0,15,,,,,7,,,62,100
42880,note_off,,,,,256,0,10,,,,,3,,,62,100
42880,note_off,,,,,256,0,9,,,,,2,,,81,100
42880,note_off,,,,,256,0,13,,,,,6,,,62,100
42880,note_off,,,,,0,0,13,,,,,6,,,69,100
42916,note_off,,,,,100,0,11,,,,,4,,,50,100
42916,note_off,,,,,100,0,14,,,,,6,,,50,100
42916,note_off,,,,,100,0,8,,,,,1,,,74,100
42916,note_off,,,,,100,0,12,,,,,5,,,38,100
42948,note_off,,,,,132,0,16,,,,,7,,,50,100
43008,note_on,,,,,92,0,8,,,,,1,,,82,100
43008,note_on,,,,,92,0,11,,,,,4,,,43,100
43008,note_on,,,,,0,0,15,,,,,7,,,70,100
43008,note_on,,,,,152,0,15,,,,,7,,,67,100
43008,note_on,,,,,128,0,13,,,,,6,,,67,100
43008,note_on,,,,,92,0,14,,,,,6,,,43,100
43008,note_on,,,,,0,0,13,,,,,6,,,70,100
43008,note_on,,,,,128,0,9,,,,,2,,,79,100
43008,note_on,,,,,60,0,16,,,,,7,,,43,100
43008,note_on,,,,,92,0,12,,,,,5,,,31,100
43008,note_on,,,,,128,0,10,,,,,3,,,62,100
43108,note_off,,,,,100,0,9,,,,,2,,,79,100
43108,note_off,,,,,100,0,12,,,,,5,,,31,100
43108,note_off,,,,,100,0,11,,,,,4,,,43,100
43108,note_off,,,,,100,0,14,,,,,6,,,43,100
43140,note_off,,,,,132,0,16,,,,,7,,,43,100
43200,note_on,,,,,60,0,16,,,,,7,,,55,100
43200,note_on,,,,,92,0,12,,,,,5,,,43,100
43200,note_on,,,,,92,0,14,,,,,6,,,55,100
43200,note_on,,,,,92,0,11,,,,,4,,,55,100
43200,note_on,,,,,92,0,9,,,,,2,,,74,100
43240,note_off,,,,,0,0,15,,,,,7,,,70,100
43240,note_off,,,,,232,0,15,,,,,7,,,67,100
43264,note_off,,,,,256,0,10,,,,,3,,,62,100
43264,note_off,,,,,256,0,13,,,,,6,,,67,100
43264,note_off,,,,,0,0,13,,,,,6,,,70,100
43264,note_off,,,,,256,0,8,,,,,1,,,82,100
43300,note_off,,,,,100,0,11,,,,,4,,,55,100
43300,note_off,,,,,100,0,9,,,,,2,,,74,100
43300,note_off,,,,,100,0,14,,,,,6,,,55,100
43300,note_off,,,,,100,0,12,,,,,5,,,43,100
43332,note_off,,,,,132,0,16,,,,,7,,,55,100
43392,note_on,,,,,60,0,16,,,,,7,,,54,100
43392,note_on,,,,,92,0,12,,,,,5,,,42,100
43392,note_on,,,,,92,0,11,,,,,4,,,54,100
43392,note_on,,,,,128,0,10,,,,,3,,,62,100
43392,note_on,,,,,92,0,14,,,,,6,,,54,100
43392,note_on,,,,,152,0,15,,,,,7,,,69,100
43392,note_on,,,,,0,0,15,,,,,7,,,74,100
43392,note_on,,,,,128,0,8,,,,,1,,,81,100
43392,note_on,,,,,128,0,13,,,,,6,,,69,100
43392,note_on,,,,,0,0,13,,,,,6,,,74,100
43392,note_on,,,,,92,0,9,,,,,2,,,81,100
43492,note_off,,,,,100,0,12,,,,,5,,,42,100
43492,note_off,,,,,100,0,11,,,,,4,,,54,100
43492,note_off,,,,,100,0,9,,,,,2,,,81,100
43492,note_off,,,,,100,0,14,,,,,6,,,54,100
43524,note_off,,,,,132,0,16,,,,,7,,,54,100
43584,note_on,,,,,60,0,16,,,,,7,,,50,100
43584,note_on,,,,,92,0,9,,,,,2,,,74,100
43584,note_on,,,,,92,0,14,,,,,6,,,50,100
43584,note_on,,,,,92,0,12,,,,,5,,,38,100
43584,note_on,,,,,92,0,11,,,,,4,,,50,100
43624,note_off,,,,,232,0,15,,,,,7,,,69,100
43624,note_off,,,,,0,0,15,,,,,7,,,74,100
43648,note_off,,,,,256,0,13,,,,,6,,,69,100
43648,note_off,,,,,256,0,8,,,,,1,,,81,100
43648,note_off,,,,,256,0,10,,,,,3,,,62,100
43648,note_off,,,,,0,0,13,,,,,6,,,74,100
43684,note_off,,,,,100,0,12,,,,,5,,,38,100
43684,note_off,,,,,100,0,14,,,,,6,,,50,100
43684,note_off,,,,,100,0,11,,,,,4,,,50,100
43684,note_off,,,,,100,0,9,,,,,2,,,74,100
43716,note_off,,,,,132,0,16,,,,,7,,,50,100
43776,note_on,,,,,92,0,9,,,,,2,,,82,100
43776,note_on,,,,,128,0,13,,,,,6,,,70,100
43776,note_on,,,,,0,0,13,,,,,6,,,79,100
43776,note_on,,,,,92,0,12,,,,,5,,,31,100
43776,note_on,,,,,128,0,10,,,,,3,,,62,100
43776,note_on,,,,,92,0,14,,,,,6,,,43,100
43776,note_on,,,,,152,0,15,,,,,7,,,70,100
43776,note_on,,,,,0,0,15,,,,,7,,,79,100
43776,note_on,,,,,128,0,8,,,,,1,,,79,100
43776,note_on,,,,,92,0,11,,,,,4,,,43,100
43776,note_on,,,,,60,0,16,,,,,7,,,43,100
43876,note_off,,,,,100,0,12,,,,,5,,,31,100
43876,note_off,,,,,100,0,8,,,,,1,,,79,100
43876,note_off,,,,,100,0,14,,,,,6,,,43,100
43876,note_off,,,,,100,0,11,,,,,4,,,43,100
43908,note_off,,,,,132,0,16,,,,,7,,,43,100
43968,note_on,,,,,60,0,16,,,,,7,,,55,100
43968,note_on,,,,,92,0,12,,,,,5,,,43,100
43968,note_on,,,,,92,0,8,,,,,1,,,74,100
43968,note_on,,,,,92,0,14,,,,,6,,,55,100
43968,note_on,,,,,92,0,11,,,,,4,,,55,100
44008,note_off,,,,,232,0,15,,,,,7,,,70,100
44008,note_off,,,,,0,0,15,,,,,7,,,79,100
44032,note_off,,,,,256,0,13,,,,,6,,,70,100
44032,note_off,,,,,256,0,9,,,,,2,,,82,100
44032,note_off,,,,,256,0,10,,,,,3,,,62,100
44032,note_off,,,,,0,0,13,,,,,6,,,79,100
44068,note_off,,,,,100,0,14,,,,,6,,,55,100
44068,note_off,,,,,100,0,11,,,,,4,,,55,100
44068,note_off,,,,,100,0,12,,,,,5,,,43,100
44068,note_off,,,,,100,0,8,,,,,1,,,74,100
44100,note_off,,,,,132,0,16,,,,,7,,,55,100
44160,note_on,,,,,92,0,11,,,,,4,,,54,100
44160,note_on,,,,,0,0,15,,,,,7,,,81,100
44160,note_on,,,,,152,0,15,,,,,7,,,74,100
44160,note_on,,,,,92,0,14,,,,,6,,,54,100
44160,note_on,,,,,60,0,16,,,,,7,,,54,100
44160,note_on,,,,,128,0,10,,,,,3,,,62,100
44160,note_on,,,,,92,0,8,,,,,1,,,81,100
44160,note_on,,,,,0,0,13,,,,,6,,,81,100
44160,note_on,,,,,92,0,12,,,,,5,,,42,100
44160,note_on,,,,,128,0,13,,,,,6,,,74,100
44160,note_on,,,,,128,0,9,,,,,2,,,81,100
44260,note_off,,,,,100,0,8,,,,,1,,,81,100
44260,note_off,,,,,100,0,11,,,,,4,,,54,100
44260,note_off,,,,,100,0,14,,,,,6,,,54,100
44260,note_off,,,,,100,0,12,,,,,5,,,42,100
44292,note_off,,,,,132,0,16,,,,,7,,,54,100
44352,note_on,,,,,92,0,12,,,,,5,,,38,100
44352,note_on,,,,,92,0,8,,,,,1,,,74,100
44352,note_on,,,,,92,0,11,,,,,4,,,50,100
44352,note_on,,,,,92,0,14,,,,,6,,,50,100
44352,note_on,,,,,60,0,16,,,,,7,,,50,100
44392,note_off,,,,,0,0,15,,,,,7,,,81,100
44392,note_off,,,,,232,0,15,,,,,7,,,74,100
44416,note_off,,,,,0,0,13,,,,,6,,,81,100
44416,note_off,,,,,256,0,13,,,,,6,,,74,100
44416,note_off,,,,,256,0,10,,,,,3,,,62,100
44416,note_off,,,,,256,0,9,,,,,2,,,81,100
44452,note_off,,,,,100,0,14,,,,,6,,,50,100
44452,note_off,,,,,100,0,8,,,,,1,,,74,100
44452,note_off,,,,,100,0,11,,,,,4,,,50,100
44452,note_off,,,,,100,0,12,,,,,5,,,38,100
44484,note_off,,,,,132,0,16,,,,,7,,,50,100
44544,note_on,,,,,128,0,13,,,,,6,,,79,100
44544,note_on,,,,,60,0,16,,,,,7,,,43,100
44544,note_on,,,,,92,0,14,,,,,6,,,43,100
44544,note_on,,,,,152,0,15,,,,,7,,,79,100
44544,note_on,,,,,128,0,9,,,,,2,,,79,100
44544,note_on,,,,,0,0,13,,,,,6,,,82,100
44544,note_on,,,,,92,0,8,,,,,1,,,82,100
44544,note_on,,,,,0,0,15,,,,,7,,,82,100
44544,note_on,,,,,128,0,10,,,,,3,,,62,100
44544,note_on,,,,,92,0,12,,,,,5,,,31,100
44544,note_on,,,,,92,0,11,,,,,4,,,43,100
44644,note_off,,,,,100,0,12,,,,,5,,,31,100
44644,note_off,,,,,100,0,14,,,,,6,,,43,100
44644,note_off,,,,,100,0,11,,,,,4,,,43,100
44644,note_off,,,,,100,0,9,,,,,2,,,79,100
44676,note_off,,,,,132,0,16,,,,,7,,,43,100
44736,note_on,,,,,92,0,9,,,,,2,,,74,100
44736,note_on,,,,,92,0,12,,,,,5,,,43,100
44736,note_on,,,,,92,0,11,,,,,4,,,55,100
44736,note_on,,,,,60,0,16,,,,,7,,,55,100
44736,note_on,,,,,92,0,14,,,,,6,,,55,100
44776,note_off,,,,,232,0,15,,,,,7,,,79,100
44776,note_off,,,,,0,0,15,,,,,7,,,82,100
44800,note_off,,,,,256,0,8,,,,,1,,,82,100
44800,note_off,,,,,256,0,10,,,,,3,,,62,100
44800,note_off,,,,,256,0,13,,,,,6,,,79,100
44800,note_off,,,,,0,0,13,,,,,6,,,82,100
44836,note_off,,,,,100,0,9,,,,,2,,,74,100
44836,note_off,,,,,100,0,11,,,,,4,,,55,100
44836,note_off,,,,,100,0,14,,,,,6,,,55,100
44836,note_off,,,,,100,0,12,,,,,5,,,43,100
44868,note_off,,,,,132,0,16,,,,,7,,,55,100
44928,note_on,,,,,0,0,13,,,,,6,,,81,100
44928,note_on,,,,,92,0,9,,,,,2,,,81,100
44928,note_on,,,,,152,0,15,,,,,7,,,74,100
44928,note_on,,,,,128,0,10,,,,,3,,,62,100
44928,note_on,,,,,0,0,15,,,,,7,,,81,100
44928,note_on,,,,,128,0,13,,,,,6,,,74,100
44928,note_on,,,,,60,0,16,,,,,7,,,54,100
44928,note_on,,,,,128,0,8,,,,,1,,,81,100
44928,note_on,,,,,92,0,12,,,,,5,,,42,100
44928,note_on,,,,,92,0,11,,,,,4,,,54,100
44928,note_on,,,,,92,0,14,,,,,6,,,54,100
45028,note_off,,,,,100,0,12,,,,,5,,,42,100
45028,note_off,,,,,100,0,9,,,,,2,,,81,100
45028,note_off,,,,,100,0,11,,,,,4,,,54,100
45028,note_off,,,,,100,0,14,,,,,6,,,54,100
45060,note_off,,,,,132,0,16,,,,,7,,,54,100
45120,note_on,,,,,92,0,9,,,,,2,,,74,100
45120,note_on,,,,,92,0,11,,,,,4,,,50,100
45120,note_on,,,,,92,0,14,,,,,6,,,50,100
45120,note_on,,,,,92,0,12,,,,,5,,,38,100
45120,note_on,,,,,60,0,16,,,,,7,,,50,100
45160,note_off,,,,,232,0,15,,,,,7,,,74,100
45160,note_off,,,,,0,0,15,,,,,7,,,81,100
45184,note_off,,,,,256,0,10,,,,,3,,,62,100
45184,note_off,,,,,256,0,8,,,,,1,,,81,100
45184,note_off,,,,,256,0,13,,,,,6,,,74,100
45184,note_off,,,,,0,0,13,,,,,6,,,81,100
45220,note_off,,,,,100,0,14,,,,,6,,,50,100
45220,note_off,,,,,100,0,11,,,,,4,,,50,100
45220,note_off,,,,,100,0,12,,,,,5,,,38,100
45220,note_off,,,,,100,0,9,,,,,2,,,74,100
45252,note_off,,,,,132,0,16,,,,,7,,,50,100
45312,note_on,,,,,0,0,13,,,,,6,,,79,100
45312,note_on,,,,,60,0,16,,,,,7,,,43,100
45312,note_on,,,,,128,0,10,,,,,3,,,62,100
45312,note_on,,,,,92,0,12,,,,,5,,,31,100
45312,note_on,,,,,92,0,14,,,,,6,,,43,100
45312,note_on,,,,,0,0,15,,,,,7,,,79,100
45312,note_on,,,,,128,0,13,,,,,6,,,70,100
45312,note_on,,,,,128,0,8,,,,,1,,,79,100
45312,note_on,,,,,152,0,15,,,,,7,,,70,100
45312,note_on,,,,,92,0,9,,,,,2,,,82,100
45312,note_on,,,,,92,0,11,,,,,4,,,43,100
45412,note_off,,,,,100,0,8,,,,,1,,,79,100
45504,note_on,,,,,92,0,8,,,,,1,,,86,100
45544,note_off,,,,,0,0,15,,,,,7,,,79,100
45544,note_off,,,,,232,0,16,,,,,7,,,43,100
45544,note_off,,,,,232,0,15,,,,,7,,,70,100
45568,note_off,,,,,256,0,13,,,,,6,,,70,100
45568,note_off,,,,,256,0,10,,,,,3,,,62,100
45568,note_off,,,,,256,0,9,,,,,2,,,82,100
45568,note_off,,,,,256,0,14,,,,,6,,,43,100
45568,note_off,,,,,256,0,12,,,,,5,,,31,100
45568,note_off,,,,,256,0,11,,,,,4,,,43,100
45568,note_off,,,,,0,0,13,,,,,6,,,79,100
45604,note_off,,,,,100,0,8,,,,,1,,,86,100
45696,note_on,,,,,92,0,8,,,,,1,,,82,100
45796,note_off,,,,,100,0,8,,,,,1,,,82,100
45888,note_on,,,,,92,0,8,,,,,1,,,81,100
45988,note_off,,,,,100,0,8,,,,,1,,,81,100
46080,note_on,,,,,512,0,12,,,,,5,,,43,100
46080,note_on,,,,,0,0,13,,,,,6,,,62,100
46080,note_on,,,,,512,0,13,,,,,6,,,71,100
46080,note_on,,,,,92,0,8,,,,,1,,,79,100
46080,note_on,,,,,512,0,11,,,,,4,,,55,100
46080,note_on,,,,,0,0,15,,,,,7,,,62,100
46080,note_on,,,,,536,0,16,,,,,7,,,55,100
46080,note_on,,,,,512,0,9,,,,,2,,,74,100
46080,note_on,,,,,512,0,14,,,,,6,,,55,100
46080,note_on,,,,,536,0,15,,,,,7,,,71,100
46080,note_on,,,,,512,0,10,,,,,3,,,71,100
46180,note_off,,,,,100,0,14,,,,,6,,,55,100
46180,note_off,,,,,100,0,9,,,,,2,,,74,100
46180,note_off,,,,,100,0,12,,,,,5,,,43,100
46180,note_off,,,,,100,0,11,,,,,4,,,55,100
46180,note_off,,,,,100,0,10,,,,,3,,,71,100
46208,note_off,,,,,128,0,13,,,,,6,,,71,100
46212,note_off,,,,,132,0,16,,,,,7,,,55,100
46232,note_off,,,,,152,0,15,,,,,7,,,71,100
46272,note_on,,,,,40,0,15,,,,,7,,,74,100
46272,note_on,,,,,92,0,11,,,,,4,,,59,99
46272,note_on,,,,,92,0,10,,,,,3,,,74,99
46272,note_on,,,,,60,0,16,,,,,7,,,59,100
46272,note_on,,,,,92,0,12,,,,,5,,,47,99
46272,note_on,,,,,92,0,9,,,,,2,,,79,99
46272,note_on,,,,,92,0,14,,,,,6,,,59,100
46272,note_on,,,,,64,0,13,,,,,6,,,74,100
46312,note_off,,,,,40,0,15,,,,,7,,,62,100
46336,note_off,,,,,256,0,8,,,,,1,,,79,100
46336,note_off,,,,,64,0,13,,,,,6,,,62,100
46372,note_off,,,,,100,0,10,,,,,3,,,74,100
46372,note_off,,,,,100,0,11,,,,,4,,,59,100
46372,note_off,,,,,100,0,12,,,,,5,,,47,100
46372,note_off,,,,,100,0,14,,,,,6,,,59,100
46372,note_off,,,,,100,0,9,,,,,2,,,79,100
46404,note_off,,,,,132,0,16,,,,,7,,,59,100
46464,note_on,,,,,92,0,10,,,,,3,,,71,98
46464,note_on,,,,,152,0,15,,,,,7,,,65,100
46464,note_on,,,,,60,0,16,,,,,7,,,55,100
46464,note_on,,,,,92,0,11,,,,,4,,,55,98
46464,note_on,,,,,92,0,12,,,,,5,,,43,98
46464,note_on,,,,,128,0,13,,,,,6,,,65,100
46464,note_on,,,,,128,0,8,,,,,1,,,77,98
46464,note_on,,,,,92,0,9,,,,,2,,,74,98
46464,note_on,,,,,92,0,14,,,,,6,,,55,100
46504,note_off,,,,,40,0,15,,,,,7,,,74,100
46528,note_off,,,,,64,0,13,,,,,6,,,74,100
46564,note_off,,,,,100,0,14,,,,,6,,,55,100
46564,note_off,,,,,100,0,12,,,,,5,,,43,100
46564,note_off,,,,,100,0,11,,,,,4,,,55,100
46564,note_off,,,,,100,0,10,,,,,3,,,71,100
46564,note_off,,,,,100,0,9,,,,,2,,,74,100
46596,note_off,,,,,132,0,16,,,,,7,,,55,100
46656,note_on,,,,,92,0,11,,,,,4,,,43,97
46656,note_on,,,,,92,0,9,,,,,2,,,71,97
46656,note_on,,,,,128,0,13,,,,,6,,,71,100
46656,note_on,,,,,152,0,15,,,,,7,,,71,100
46656,note_on,,,,,92,0,12,,,,,5,,,31,97
46656,note_on,,,,,92,0,10,,,,,3,,,67,97
46656,note_on,,,,,92,0,14,,,,,6,,,43,100
46656,note_on,,,,,60,0,16,,,,,7,,,43,100
46696,note_off,,,,,40,0,15,,,,,7,,,65,100
46720,note_off,,,,,256,0,8,,,,,1,,,77,100
46720,note_off,,,,,64,0,13,,,,,6,,,65,100
46756,note_off,,,,,100,0,12,,,,,5,,,31,100
46756,note_off,,,,,100,0,11,,,,,4,,,43,100
46756,note_off,,,,,100,0,10,,,,,3,,,67,100
46756,note_off,,,,,100,0,14,,,,,6,,,43,100
46756,note_off,,,,,100,0,9,,,,,2,,,71,100
46784,note_off,,,,,64,0,13,,,,,6,,,71,100
46788,note_off,,,,,132,0,16,,,,,7,,,43,100
46808,note_off,,,,,112,0,15,,,,,7,,,71,100
46848,note_on,,,,,92,0,11,,,,,4,,,48,96
46848,note_on,,,,,92,0,12,,,,,5,,,36,96
46848,note_on,,,,,92,0,14,,,,,6,,,48,100
46848,note_on,,,,,0,0,15,,,,,7,,,63,100
46848,note_on,,,,,40,0,15,,,,,7,,,72,100
46848,note_on,,,,,128,0,8,,,,,1,,,75,96
46848,note_on,,,,,0,0,13,,,,,6,,,63,100
46848,note_on,,,,,64,0,13,,,,,6,,,72,100
46848,note_on,,,,,92,0,9,,,,,2,,,67,96
46848,note_on,,,,,60,0,16,,,,,7,,,48,100
46848,note_on,,,,,92,0,10,,,,,3,,,67,96
46948,note_off,,,,,100,0,8,,,,,1,,,75,100
47040,note_on,,,,,92,0,8,,,,,1,,,84,100
47080,note_off,,,,,232,0,15,,,,,7,,,72,100
47080,note_off,,,,,0,0,15,,,,,7,,,63,100
47080,note_off,,,,,232,0,16,,,,,7,,,48,100
47104,note_off,,,,,256,0,9,,,,,2,,,67,100
47104,note_off,,,,,256,0,12,,,,,5,,,36,100
47104,note_off,,,,,256,0,11,,,,,4,,,48,100
47104,note_off,,,,,256,0,13,,,,,6,,,72,100
47104,note_off,,,,,0,0,13,,,,,6,,,63,100
47104,note_off,,,,,256,0,14,,,,,6,,,48,100
47104,note_off,,,,,256,0,10,,,,,3,,,67,100
47140,note_off,,,,,100,0,8,,,,,1,,,84,100
47232,note_on,,,,,92,0,8,,,,,1,,,81,99
47332,note_off,,,,,100,0,8,,,,,1,,,81,100
47424,note_on,,,,,92,0,8,,,,,1,,,79,98
47524,note_off,,,,,100,0,8,,,,,1,,,79,100
47616,note_on,,,,,512,0,14,,,,,6,,,53,100
47616,note_on,,,,,536,0,15,,,,,7,,,60,100
47616,note_on,,,,,0,0,15,,,,,7,,,69,100
47616,note_on,,,,,512,0,11,,,,,4,,,53,96
47616,note_on,,,,,92,0,8,,,,,1,,,77,96
47616,note_on,,,,,512,0,12,,,,,5,,,41,96
47616,note_on,,,,,512,0,10,,,,,3,,,69,96
47616,note_on,,,,,512,0,9,,,,,2,,,72,96
47616,note_on,,,,,512,0,13,,,,,6,,,60,100
47616,note_on,,,,,0,0,13,,,,,6,,,69,100
47616,note_on,,,,,536,0,16,,,,,7,,,53,100
47716,note_off,,,,,100,0,14,,,,,6,,,53,100
47716,note_off,,,,,100,0,11,,,,,4,,,53,100
47716,note_off,,,,,100,0,10,,,,,3,,,69,100
47716,note_off,,,,,100,0,12,,,,,5,,,41,100
47716,note_off,,,,,100,0,9,,,,,2,,,72,100
47744,note_off,,,,,128,0,13,,,,,6,,,69,100
47748,note_off,,,,,132,0,16,,,,,7,,,53,100
47768,note_off,,,,,152,0,15,,,,,7,,,69,100
47808,note_on,,,,,92,0,11,,,,,4,,,57,95
47808,note_on,,,,,92,0,14,,,,,6,,,57,100
47808,note_on,,,,,92,0,9,,,,,2,,,77,95
47808,note_on,,,,,64,0,13,,,,,6,,,72,100
47808,note_on,,,,,60,0,16,,,,,7,,,57,100
47808,note_on,,,,,92,0,10,,,,,3,,,72,95
47808,note_on,,,,,92,0,12,,,,,5,,,45,95
47808,note_on,,,,,40,0,15,,,,,7,,,72,100
47848,note_off,,,,,40,0,15,,,,,7,,,60,100
47872,note_off,,,,,64,0,13,,,,,6,,,60,100
47872,note_off,,,,,256,0,8,,,,,1,,,77,100
47908,note_off,,,,,100,0,9,,,,,2,,,77,100
47908,note_off,,,,,100,0,10,,,,,3,,,72,100
47908,note_off,,,,,100,0,12,,,,,5,,,45,100
47908,note_off,,,,,100,0,14,,,,,6,,,57,100
47908,note_off,,,,,100,0,11,,,,,4,,,57,100
47940,note_off,,,,,132,0,16,,,,,7,,,57,100
48000,note_on,,,,,128,0,8,,,,,1,,,75,93
48000,note_on,,,,,60,0,16,,,,,7,,,53,100
48000,note_on,,,,,92,0,14,,,,,6,,,53,100
48000,note_on,,,,,152,0,15,,,,,7,,,63,100
48000,note_on,,,,,92,0,11,,,,,4,,,53,93
48000,note_on,,,,,92,0,10,,,,,3,,,69,93
48000,note_on,,,,,92,0,9,,,,,2,,,72,93
48000,note_on,,,,,128,0,13,,,,,6,,,63,100
48000,note_on,,,,,92,0,12,,,,,5,,,41,93
48040,note_off,,,,,40,0,15,,,,,7,,,72,100
48064,note_off,,,,,64,0,13,,,,,6,,,72,100
48100,note_off,,,,,100,0,10,,,,,3,,,69,100
48100,note_off,,,,,100,0,12,,,,,5,,,41,100
48100,note_off,,,,,100,0,14,,,,,6,,,53,100
48100,note_off,,,,,100,0,11,,,,,4,,,53,100
48100,note_off,,,,,100,0,9,,,,,2,,,72,100
48132,note_off,,,,,132,0,16,,,,,7,,,53,100
48192,note_on,,,,,92,0,14,,,,,6,,,41,100
48192,note_on,,,,,92,0,10,,,,,3,,,65,92
48192,note_on,,,,,152,0,15,,,,,7,,,69,100
48192,note_on,,,,,60,0,16,,,,,7,,,41,100
48192,note_on,,,,,92,0,11,,,,,4,,,41,92
48192,note_on,,,,,128,0,13,,,,,6,,,69,100
48192,note_on,,,,,92,0,12,,,,,5,,,41,92
48192,note_on,,,,,92,0,9,,,,,2,,,69,92
48232,note_off,,,,,40,0,15,,,,,7,,,63,100
48256,note_off,,,,,64,0,13,,,,,6,,,63,100
48256,note_off,,,,,256,0,8,,,,,1,,,75,100
48292,note_off,,,,,100,0,10,,,,,3,,,65,100
48292,note_off,,,,,100,0,11,,,,,4,,,41,100
48292,note_off,,,,,100,0,9,,,,,2,,,69,100
48292,note_off,,,,,100,0,14,,,,,6,,,41,100
48292,note_off,,,,,100,0,12,,,,,5,,,41,100
48320,note_off,,,,,64,0,13,,,,,6,,,69,100
48324,note_off,,,,,132,0,16,,,,,7,,,41,100
48344,note_off,,,,,112,0,15,,,,,7,,,69,100
48384,note_on,,,,,92,0,14,,,,,6,,,46,100
48384,note_on,,,,,40,0,15,,,,,7,,,62,100
48384,note_on,,,,,0,0,15,,,,,7,,,70,100
48384,note_on,,,,,92,0,10,,,,,3,,,65,91
48384,note_on,,,,,92,0,12,,,,,5,,,34,91
48384,note_on,,,,,128,0,8,,,,,1,,,74,91
48384,note_on,,,,,92,0,9,,,,,2,,,65,91
48384,note_on,,,,,0,0,13,,,,,6,,,70,100
48384,note_on,,,,,92,0,11,,,,,4,,,46,91
48384,note_on,,,,,64,0,13,,,,,6,,,62,100
48384,note_on,,,,,60,0,16,,,,,7,,,46,100
48484,note_off,,,,,100,0,8,,,,,1,,,74,100
48576,note_on,,,,,92,0,8,,,,,1,,,82,95
48616,note_off,,,,,0,0,15,,,,,7,,,70,100
48616,note_off,,,,,232,0,15,,,,,7,,,62,100
48616,note_off,,,,,232,0,16,,,,,7,,,46,100
48640,note_off,,,,,256,0,9,,,,,2,,,65,100
48640,note_off,,,,,256,0,12,,,,,5,,,34,100
48640,note_off,,,,,256,0,13,,,,,6,,,62,100
48640,note_off,,,,,256,0,11,,,,,4,,,46,100
48640,note_off,,,,,0,0,13,,,,,6,,,70,100
48640,note_off,,,,,256,0,14,,,,,6,,,46,100
48640,note_off,,,,,256,0,10,,,,,3,,,65,100
48676,note_off,,,,,100,0,8,,,,,1,,,82,100
48768,note_on,,,,,92,0,8,,,,,1,,,79,94
48868,note_off,,,,,100,0,8,,,,,1,,,79,100
48960,note_on,,,,,92,0,8,,,,,1,,,77,93
49060,note_off,,,,,100,0,8,,,,,1,,,77,100
49152,note_on,,,,,512,0,9,,,,,2,,,70,91
49152,note_on,,,,,512,0,13,,,,,6,,,67,100
49152,note_on,,,,,512,0,10,,,,,3,,,67,91
49152,note_on,,,,,0,0,13,,,,,6,,,74,100
49152,note_on,,,,,536,0,15,,,,,7,,,67,100
49152,note_on,,,,,0,0,15,,,,,7,,,74,100
49152,note_on,,,,,512,0,11,,,,,4,,,43,91
49152,note_on,,,,,512,0,14,,,,,6,,,43,100
49152,note_on,,,,,536,0,16,,,,,7,,,43,100
49152,note_on,,,,,92,0,8,,,,,1,,,75,91
49152,note_on,,,,,512,0,12,,,,,5,,,31,91
49252,note_off,,,,,100,0,12,,,,,5,,,31,100
49252,note_off,,,,,100,0,10,,,,,3,,,67,100
49252,note_off,,,,,100,0,14,,,,,6,,,43,100
49252,note_off,,,,,100,0,9,,,,,2,,,70,100
49252,note_off,,,,,100,0,11,,,,,4,,,43,100
49280,note_off,,,,,128,0,13,,,,,6,,,74,100
49284,note_off,,,,,132,0,16,,,,,7,,,43,100
49304,note_off,,,,,152,0,15,,,,,7,,,74,100
49344,note_on,,,,,40,0,15,,,,,7,,,70,100
49344,note_on,,,,,92,0,12,,,,,5,,,43,90
49344,note_on,,,,,92,0,9,,,,,2,,,75,90
49344,note_on,,,,,60,0,16,,,,,7,,,55,100
49344,note_on,,,,,92,0,11,,,,,4,,,55,90
49344,note_on,,,,,64,0,13,,,,,6,,,70,100
49344,note_on,,,,,92,0,14,,,,,6,,,55,100
49344,note_on,,,,,92,0,10,,,,,3,,,70,90
49384,note_off,,,,,40,0,15,,,,,7,,,67,100
49408,note_off,,,,,256,0,8,,,,,1,,,75,100
49408,note_off,,,,,64,0,13,,,,,6,,,67,100
49444,note_off,,,,,100,0,11,,,,,4,,,55,100
49444,note_off,,,,,100,0,14,,,,,6,,,55,100
49444,note_off,,,,,100,0,10,,,,,3,,,70,100
49444,note_off,,,,,100,0,9,,,,,2,,,75,100
49444,note_off,,,,,100,0,12,,,,,5,,,43,100
49472,note_off,,,,,64,0,13,,,,,6,,,70,100
49476,note_off,,,,,132,0,16,,,,,7,,,55,100
49496,note_off,,,,,112,0,15,,,,,7,,,70,100
49536,note_on,,,,,92,0,10,,,,,3,,,74,88
49536,note_on,,,,,92,0,11,,,,,4,,,55,88
49536,note_on,,,,,128,0,8,,,,,1,,,74,88
49536,note_on,,,,,0,0,15,,,,,7,,,58,100
49536,note_on,,,,,92,0,14,,,,,6,,,55,100
49536,note_on,,,,,60,0,16,,,,,7,,,55,100
49536,note_on,,,,,40,0,15,,,,,7,,,67,100
49536,note_on,,,,,0,0,13,,,,,6,,,58,100
49536,note_on,,,,,64,0,13,,,,,6,,,67,100
49536,note_on,,,,,92,0,12,,,,,5,,,43,88
49536,note_on,,,,,92,0,9,,,,,2,,,79,88
49636,note_off,,,,,100,0,9,,,,,2,,,79,100
49636,note_off,,,,,100,0,12,,,,,5,,,43,100
49636,note_off,,,,,100,0,11,,,,,4,,,55,100
49636,note_off,,,,,100,0,14,,,,,6,,,55,100
49636,note_off,,,,,100,0,10,,,,,3,,,74,100
49664,note_off,,,,,128,0,13,,,,,6,,,58,100
49668,note_off,,,,,132,0,16,,,,,7,,,55,100
49688,note_off,,,,,152,0,15,,,,,7,,,58,100
49728,note_on,,,,,60,0,16,,,,,7,,,43,100
49728,note_on,,,,,92,0,10,,,,,3,,,67,87
49728,note_on,,,,,40,0,15,,,,,7,,,62,100
49728,note_on,,,,,92,0,14,,,,,6,,,43,100
49728,note_on,,,,,92,0,9,,,,,2,,,70,87
49728,note_on,,,,,64,0,13,,,,,6,,,62,100
49728,note_on,,,,,92,0,11,,,,,4,,,43,87
49728,note_on,,,,,92,0,12,,,,,5,,,31,87
49768,note_off,,,,,40,0,15,,,,,7,,,67,100
49792,note_off,,,,,64,0,13,,,,,6,,,67,100
49792,note_off,,,,,256,0,8,,,,,1,,,74,100
49828,note_off,,,,,100,0,10,,,,,3,,,67,100
49828,note_off,,,,,100,0,12,,,,,5,,,31,100
49828,note_off,,,,,100,0,14,,,,,6,,,43,100
49828,note_off,,,,,100,0,11,,,,,4,,,43,100
49828,note_off,,,,,100,0,9,,,,,2,,,70,100
49856,note_off,,,,,64,0,13,,,,,6,,,62,100
49860,note_off,,,,,132,0,16,,,,,7,,,43,100
49880,note_off,,,,,112,0,15,,,,,7,,,62,100
49920,note_on,,,,,60,0,16,,,,,7,,,45,100
49920,note_on,,,,,92,0,10,,,,,3,,,64,86
49920,note_on,,,,,92,0,9,,,,,2,,,69,86
49920,note_on,,,,,92,0,12,,,,,5,,,33,86
49920,note_on,,,,,128,0,8,,,,,1,,,73,86
49920,note_on,,,,,64,0,13,,,,,6,,,61,100
49920,note_on,,,,,0,0,13,,,,,6,,,69,100
49920,note_on,,,,,92,0,14,,,,,6,,,45,100
49920,note_on,,,,,92,0,11,,,,,4,,,45,86
49920,note_on,,,,,40,0,15,,,,,7,,,61,100
49920,note_on,,,,,0,0,15,,,,,7,,,69,100
50020,note_off,,,,,100,0,8,,,,,1,,,73,100
50112,note_on,,,,,92,0,8,,,,,1,,,76,85
50152,note_off,,,,,232,0,16,,,,,7,,,45,100
50152,note_off,,,,,232,0,15,,,,,7,,,61,100
50152,note_off,,,,,0,0,15,,,,,7,,,69,100
50176,note_off,,,,,256,0,10,,,,,3,,,64,100
50176,note_off,,,,,256,0,9,,,,,2,,,69,100
50176,note_off,,,,,256,0,13,,,,,6,,,61,100
50176,note_off,,,,,256,0,14,,,,,6,,,45,100
50176,note_off,,,,,256,0,12,,,,,5,,,33,100
50176,note_off,,,,,0,0,13,,,,,6,,,69,100
50176,note_off,,,,,256,0,11,,,,,4,,,45,100
50212,note_off,,,,,100,0,8,,,,,1,,,76,100
50304,note_on,,,,,92,0,8,,,,,1,,,81,87
50404,note_off,,,,,100,0,8,,,,,1,,,81,100
50496,note_on,,,,,92,0,8,,,,,1,,,73,89
50596,note_off,,,,,100,0,8,,,,,1,,,73,100
50688,note_on,,,,,536,0,15,,,,,7,,,66,100
50688,note_on,,,,,92,0,8,,,,,1,,,74,91
50688,note_on,,,,,512,0,9,,,,,2,,,69,91
50688,note_on,,,,,0,0,13,,,,,6,,,74,100
50688,note_on,,,,,512,0,13,,,,,6,,,66,100
50688,note_on,,,,,512,0,11,,,,,4,,,50,91
50688,note_on,,,,,512,0,12,,,,,5,,,38,91
50688,note_on,,,,,512,0,14,,,,,6,,,50,100
50688,note_on,,,,,536,0,16,,,,,7,,,50,100
50688,note_on,,,,,0,0,15,,,,,7,,,74,100
50688,note_on,,,,,512,0,10,,,,,3,,,66,91
50788,note_off,,,,,100,0,10,,,,,3,,,66,100
50788,note_off,,,,,100,0,12,,,,,5,,,38,100
50788,note_off,,,,,100,0,9,,,,,2,,,69,100
50788,note_off,,,,,100,0,14,,,,,6,,,50,100
50788,note_off,,,,,100,0,11,,,,,4,,,50,100
50816,note_off,,,,,128,0,13,,,,,6,,,66,100
50820,note_off,,,,,132,0,16,,,,,7,,,50,100
50840,note_off,,,,,152,0,15,,,,,7,,,66,100
50880,note_on,,,,,60,0,16,,,,,7,,,54,100
50880,note_on,,,,,92,0,14,,,,,6,,,54,100
50880,note_on,,,,,40,0,15,,,,,7,,,69,100
50880,note_on,,,,,92,0,9,,,,,2,,,74,93
50880,note_on,,,,,64,0,13,,,,,6,,,69,100
50880,note_on,,,,,92,0,12,,,,,5,,,42,93
50880,note_on,,,,,92,0,10,,,,,3,,,69,93
50880,note_on,,,,,92,0,11,,,,,4,,,54,93
50920,note_off,,,,,40,0,15,,,,,7,,,74,100
50944,note_off,,,,,256,0,8,,,,,1,,,74,100
50944,note_off,,,,,64,0,13,,,,,6,,,74,100
50980,note_off,,,,,100,0,14,,,,,6,,,54,100
50980,note_off,,,,,100,0,9,,,,,2,,,74,100
50980,note_off,,,,,100,0,11,,,,,4,,,54,100
50980,note_off,,,,,100,0,10,,,,,3,,,69,100
50980,note_off,,,,,100,0,12,,,,,5,,,42,100
51012,note_off,,,,,132,0,16,,,,,7,,,54,100
51072,note_on,,,,,92,0,9,,,,,2,,,69,95
51072,note_on,,,,,92,0,10,,,,,3,,,66,95
51072,note_on,,,,,60,0,16,,,,,7,,,50,100
51072,note_on,,,,,92,0,11,,,,,4,,,50,95
51072,note_on,,,,,92,0,12,,,,,5,,,38,95
51072,note_on,,,,,128,0,13,,,,,6,,,78,100
51072,note_on,,,,,152,0,15,,,,,7,,,78,100
51072,note_on,,,,,128,0,8,,,,,1,,,72,95
51072,note_on,,,,,92,0,14,,,,,6,,,50,100
51112,note_off,,,,,40,0,15,,,,,7,,,69,100
51136,note_off,,,,,64,0,13,,,,,6,,,69,100
51172,note_off,,,,,100,0,10,,,,,3,,,66,100
51172,note_off,,,,,100,0,14,,,,,6,,,50,100
51172,note_off,,,,,100,0,9,,,,,2,,,69,100
51172,note_off,,,,,100,0,12,,,,,5,,,38,100
51172,note_off,,,,,100,0,11,,,,,4,,,50,100
51204,note_off,,,,,132,0,16,,,,,7,,,50,100
51264,note_on,,,,,92,0,10,,,,,3,,,62,97
51264,note_on,,,,,92,0,14,,,,,6,,,38,100
51264,note_on,,,,,152,0,15,,,,,7,,,74,100
51264,note_on,,,,,92,0,12,,,,,5,,,38,97
51264,note_on,,,,,60,0,16,,,,,7,,,38,100
51264,note_on,,,,,92,0,9,,,,,2,,,66,97
51264,note_on,,,,,92,0,11,,,,,4,,,38,97
51264,note_on,,,,,128,0,13,,,,,6,,,74,100
51304,note_off,,,,,40,0,15,,,,,7,,,78,100
51328,note_off,,,,,64,0,13,,,,,6,,,78,100
51328,note_off,,,,,256,0,8,,,,,1,,,72,100
51364,note_off,,,,,100,0,10,,,,,3,,,62,100
51364,note_off,,,,,100,0,9,,,,,2,,,66,100
51364,note_off,,,,,100,0,14,,,,,6,,,38,100
51364,note_off,,,,,100,0,12,,,,,5,,,38,100
51364,note_off,,,,,100,0,11,,,,,4,,,38,100
51392,note_off,,,,,64,0,13,,,,,6,,,74,100
51396,note_off,,,,,132,0,16,,,,,7,,,38,100
51416,note_off,,,,,112,0,15,,,,,7,,,74,100
51456,note_on,,,,,60,0,16,,,,,7,,,55,100
51456,note_on,,,,,92,0,9,,,,,2,,,62,99
51456,note_on,,,,,0,0,15,,,,,7,,,74,100
51456,note_on,,,,,40,0,15,,,,,7,,,70,100
51456,note_on,,,,,92,0,10,,,,,3,,,62,99
51456,note_on,,,,,0,0,13,,,,,6,,,79,100
51456,note_on,,,,,92,0,12,,,,,5,,,43,99
51456,note_on,,,,,0,0,15,,,,,7,,,79,100
51456,note_on,,,,,64,0,13,,,,,6,,,70,100
51456,note_on,,,,,92,0,14,,,,,6,,,55,100
51456,note_on,,,,,128,0,8,,,,,1,,,70,99
51456,note_on,,,,,92,0,11,,,,,4,,,55,99
51548,note_off,,,,,92,0,13,,,,,6,,,79,100
51552,note_on,,,,,4,0,13,,,,,6,,,74,100
51556,note_off,,,,,100,0,8,,,,,1,,,70,100
51556,note_off,,,,,100,0,11,,,,,4,,,55,100
51556,note_off,,,,,100,0,14,,,,,6,,,55,100
51556,note_off,,,,,100,0,12,,,,,5,,,43,100
51584,note_off,,,,,32,0,13,,,,,6,,,70,100
51588,note_off,,,,,132,0,16,,,,,7,,,55,100
51644,note_off,,,,,60,0,13,,,,,6,,,74,100
51648,note_on,,,,,92,0,8,,,,,1,,,74,100
51648,note_on,,,,,92,0,14,,,,,6,,,43,100
51648,note_on,,,,,4,0,13,,,,,6,,,70,100
51648,note_on,,,,,60,0,16,,,,,7,,,43,100
51648,note_on,,,,,92,0,11,,,,,4,,,43,100
51648,note_on,,,,,92,0,12,,,,,5,,,31,100
51712,note_off,,,,,256,0,9,,,,,2,,,62,100
51740,note_off,,,,,92,0,13,,,,,6,,,70,100
51744,note_on,,,,,4,0,13,,,,,6,,,74,100
51748,note_off,,,,,100,0,12,,,,,5,,,31,100
51748,note_off,,,,,100,0,11,,,,,4,,,43,100
51748,note_off,,,,,100,0,8,,,,,1,,,74,100
51748,note_off,,,,,100,0,14,,,,,6,,,43,100
51780,note_off,,,,,132,0,16,,,,,7,,,43,100
51836,note_off,,,,,92,0,13,,,,,6,,,74,100
51840,note_on,,,,,92,0,12,,,,,5,,,31,100
51840,note_off,,,,,384,0,10,,,,,3,,,62,100
51840,note_on,,,,,92,0,11,,,,,4,,,43,100
51840,note_on,,,,,92,0,8,,,,,1,,,79,100
51840,note_on,,,,,4,0,13,,,,,6,,,67,100
51840,note_on,,,,,92,0,14,,,,,6,,,43,100
51840,note_on,,,,,60,0,16,,,,,7,,,43,100
51932,note_off,,,,,92,0,13,,,,,6,,,67,100
51936,note_on,,,,,4,0,13,,,,,6,,,74,100
51940,note_off,,,,,100,0,11,,,,,4,,,43,100
51940,note_off,,,,,100,0,12,,,,,5,,,31,100
51940,note_off,,,,,100,0,14,,,,,6,,,43,100
51940,note_off,,,,,100,0,8,,,,,1,,,79,100
51972,note_off,,,,,132,0,16,,,,,7,,,43,100
52028,note_off,,,,,92,0,13,,,,,6,,,74,100
52032,note_on,,,,,92,0,11,,,,,4,,,55,100
52032,note_on,,,,,92,0,12,,,,,5,,,43,100
52032,note_on,,,,,92,0,14,,,,,6,,,55,100
52032,note_on,,,,,192,0,10,,,,,3,,,67,100
52032,note_on,,,,,320,0,9,,,,,2,,,74,100
52032,note_on,,,,,4,0,13,,,,,6,,,70,100
52032,note_on,,,,,60,0,16,,,,,7,,,55,100
52032,note_on,,,,,92,0,8,,,,,1,,,70,100
52068,note_off,,,,,0,0,15,,,,,7,,,79,100
52068,note_off,,,,,0,0,15,,,,,7,,,74,100
52068,note_off,,,,,612,0,15,,,,,7,,,70,100
52124,note_off,,,,,92,0,13,,,,,6,,,70,100
52128,note_on,,,,,4,0,13,,,,,6,,,74,100
52132,note_off,,,,,100,0,14,,,,,6,,,55,100
52132,note_off,,,,,100,0,11,,,,,4,,,55,100
52132,note_off,,,,,100,0,9,,,,,2,,,74,100
52132,note_off,,,,,100,0,12,,,,,5,,,43,100
52132,note_off,,,,,100,0,10,,,,,3,,,67,100
52132,note_off,,,,,100,0,8,,,,,1,,,70,100
52164,note_off,,,,,132,0,16,,,,,7,,,55,100
52220,note_off,,,,,92,0,13,,,,,6,,,74,100
52224,note_on,,,,,92,0,9,,,,,2,,,79,100
52224,note_on,,,,,60,0,16,,,,,7,,,55,100
52224,note_on,,,,,0,0,15,,,,,7,,,79,100
52224,note_on,,,,,92,0,14,,,,,6,,,55,100
52224,note_on,,,,,92,0,11,,,,,4,,,55,100
52224,note_on,,,,,156,0,15,,,,,7,,,72,100
52224,note_on,,,,,4,0,13,,,,,6,,,79,100
52224,note_on,,,,,0,0,15,,,,,7,,,75,100
52224,note_on,,,,,92,0,10,,,,,3,,,63,100
52224,note_on,,,,,92,0,8,,,,,1,,,72,100
52224,note_on,,,,,92,0,12,,,,,5,,,43,100
52316,note_off,,,,,92,0,13,,,,,6,,,79,100
52320,note_on,,,,,4,0,13,,,,,6,,,75,100
52324,note_off,,,,,100,0,12,,,,,5,,,43,100
52324,note_off,,,,,100,0,8,,,,,1,,,72,100
52324,note_off,,,,,100,0,14,,,,,6,,,55,100
52324,note_off,,,,,100,0,9,,,,,2,,,79,100
52324,note_off,,,,,100,0,11,,,,,4,,,55,100
52356,note_off,,,,,132,0,16,,,,,7,,,55,100
52412,note_off,,,,,92,0,13,,,,,6,,,75,100
52416,note_on,,,,,60,0,16,,,,,7,,,43,100
52416,note_on,,,,,92,0,14,,,,,6,,,43,100
52416,note_on,,,,,92,0,9,,,,,2,,,72,100
52416,note_on,,,,,92,0,11,,,,,4,,,43,100
52416,note_on,,,,,92,0,8,,,,,1,,,75,100
52416,note_on,,,,,92,0,12,,,,,5,,,31,100
52416,note_on,,,,,4,0,13,,,,,6,,,72,100
52508,note_off,,,,,92,0,13,,,,,6,,,72,100
52512,note_on,,,,,4,0,13,,,,,6,,,75,100
52516,note_off,,,,,100,0,8,,,,,1,,,75,100
52516,note_off,,,,,100,0,12,,,,,5,,,31,100
52516,note_off,,,,,100,0,11,,,,,4,,,43,100
52516,note_off,,,,,100,0,14,,,,,6,,,43,100
52548,note_off,,,,,132,0,16,,,,,7,,,43,100
52604,note_off,,,,,92,0,13,,,,,6,,,75,100
52608,note_on,,,,,92,0,8,,,,,1,,,79,100
52608,note_on,,,,,4,0,13,,,,,6,,,67,100
52608,note_off,,,,,384,0,10,,,,,3,,,63,100
52608,note_on,,,,,92,0,14,,,,,6,,,43,100
52608,note_on,,,,,92,0,11,,,,,4,,,43,100
52608,note_on,,,,,60,0,16,,,,,7,,,43,100
52608,note_on,,,,,92,0,12,,,,,5,,,31,100
52672,note_off,,,,,256,0,9,,,,,2,,,72,100
52700,note_off,,,,,92,0,13,,,,,6,,,67,100
52704,note_on,,,,,4,0,13,,,,,6,,,75,100
52708,note_off,,,,,100,0,8,,,,,1,,,79,100
52708,note_off,,,,,100,0,14,,,,,6,,,43,100
52708,note_off,,,,,100,0,11,,,,,4,,,43,100
52708,note_off,,,,,100,0,12,,,,,5,,,31,100
52740,note_off,,,,,132,0,16,,,,,7,,,43,100
52796,note_off,,,,,92,0,13,,,,,6,,,75,100
52800,note_on,,,,,192,0,10,,,,,3,,,67,100
52800,note_on,,,,,92,0,12,,,,,5,,,43,100
52800,note_on,,,,,60,0,16,,,,,7,,,55,100
52800,note_on,,,,,4,0,13,,,,,6,,,72,100
52800,note_on,,,,,92,0,14,,,,,6,,,55,100
52800,note_on,,,,,92,0,8,,,,,1,,,72,100
52800,note_on,,,,,92,0,11,,,,,4,,,55,100
52800,note_on,,,,,128,0,9,,,,,2,,,75,100
52836,note_off,,,,,612,0,15,,,,,7,,,72,100
52836,note_off,,,,,0,0,15,,,,,7,,,75,100
52836,note_off,,,,,0,0,15,,,,,7,,,79,100
52892,note_off,,,,,92,0,13,,,,,6,,,72,100
52896,note_on,,,,,4,0,13,,,,,6,,,75,100
52900,note_off,,,,,100,0,14,,,,,6,,,55,100
52900,note_off,,,,,100,0,10,,,,,3,,,67,100
52900,note_off,,,,,100,0,11,,,,,4,,,55,100
52900,note_off,,,,,100,0,12,,,,,5,,,43,100
52900,note_off,,,,,100,0,8,,,,,1,,,72,100
52900,note_off,,,,,100,0,9,,,,,2,,,75,100
52932,note_off,,,,,132,0,16,,,,,7,,,55,100
52988,note_off,,,,,92,0,13,,,,,6,,,75,100
52992,note_on,,,,,92,0,8,,,,,1,,,70,98
52992,note_on,,,,,92,0,14,,,,,6,,,55,100
52992,note_on,,,,,92,0,9,,,,,2,,,79,98
52992,note_on,,,,,156,0,15,,,,,7,,,70,100
52992,note_on,,,,,4,0,13,,,,,6,,,79,100
52992,note_on,,,,,60,0,16,,,,,7,,,55,100
52992,note_on,,,,,0,0,15,,,,,7,,,79,100
52992,note_on,,,,,92,0,10,,,,,3,,,62,98
52992,note_on,,,,,92,0,12,,,,,5,,,43,98
52992,note_on,,,,,92,0,11,,,,,4,,,55,98
52992,note_on,,,,,0,0,15,,,,,7,,,74,100
53084,note_off,,,,,92,0,13,,,,,6,,,79,100
53088,note_on,,,,,4,0,13,,,,,6,,,74,100
53092,note_off,,,,,100,0,14,,,,,6,,,55,100
53092,note_off,,,,,100,0,9,,,,,2,,,79,100
53092,note_off,,,,,100,0,12,,,,,5,,,43,100
53092,note_off,,,,,100,0,8,,,,,1,,,70,100
53092,note_off,,,,,100,0,11,,,,,4,,,55,100
53128,note_off,,,,,136,0,16,,,,,7,,,55,100
53180,note_off,,,,,92,0,13,,,,,6,,,74,100
53184,note_on,,,,,92,0,14,,,,,6,,,43,100
53184,note_on,,,,,56,0,16,,,,,7,,,43,100
53184,note_on,,,,,92,0,11,,,,,4,,,43,96
53184,note_on,,,,,92,0,12,,,,,5,,,31,96
53184,note_on,,,,,4,0,13,,,,,6,,,70,100
53184,note_on,,,,,92,0,8,,,,,1,,,74,96
53184,note_on,,,,,92,0,9,,,,,2,,,74,96
53276,note_off,,,,,92,0,13,,,,,6,,,70,100
53280,note_on,,,,,4,0,13,,,,,6,,,74,100
53284,note_off,,,,,100,0,14,,,,,6,,,43,100
53284,note_off,,,,,100,0,11,,,,,4,,,43,100
53284,note_off,,,,,100,0,8,,,,,1,,,74,100
53284,note_off,,,,,100,0,12,,,,,5,,,31,100
53320,note_off,,,,,136,0,16,,,,,7,,,43,100
53372,note_off,,,,,92,0,13,,,,,6,,,74,100
53376,note_on,,,,,56,0,16,,,,,7,,,43,100
53376,note_on,,,,,92,0,8,,,,,1,,,79,93
53376,note_on,,,,,92,0,14,,,,,6,,,43,100
53376,note_on,,,,,4,0,13,,,,,6,,,67,100
53376,note_on,,,,,92,0,11,,,,,4,,,43,93
53376,note_off,,,,,384,0,10,,,,,3,,,62,100
53376,note_on,,,,,92,0,12,,,,,5,,,31,93
53440,note_off,,,,,256,0,9,,,,,2,,,74,100
53468,note_off,,,,,92,0,13,,,,,6,,,67,100
53472,note_on,,,,,4,0,13,,,,,6,,,74,100
53476,note_off,,,,,100,0,12,,,,,5,,,31,100
53476,note_off,,,,,100,0,8,,,,,1,,,79,100
53476,note_off,,,,,100,0,14,,,,,6,,,43,100
53476,note_off,,,,,100,0,11,,,,,4,,,43,100
53512,note_off,,,,,136,0,16,,,,,7,,,43,100
53564,note_off,,,,,92,0,13,,,,,6,,,74,100
53568,note_on,,,,,92,0,8,,,,,1,,,70,91
53568,note_on,,,,,192,0,10,,,,,3,,,67,91
53568,note_on,,,,,128,0,9,,,,,2,,,74,91
53568,note_on,,,,,92,0,11,,,,,4,,,55,91
53568,note_on,,,,,92,0,12,,,,,5,,,43,91
53568,note_on,,,,,92,0,14,,,,,6,,,55,100
53568,note_on,,,,,56,0,16,,,,,7,,,55,100
53568,note_on,,,,,4,0,13,,,,,6,,,70,100
53604,note_off,,,,,0,0,15,,,,,7,,,79,100
53604,note_off,,,,,0,0,15,,,,,7,,,74,100
53604,note_off,,,,,612,0,15,,,,,7,,,70,100
53660,note_off,,,,,92,0,13,,,,,6,,,70,100
53664,note_on,,,,,4,0,13,,,,,6,,,74,100
53668,note_off,,,,,100,0,11,,,,,4,,,55,100
53668,note_off,,,,,100,0,8,,,,,1,,,70,100
53668,note_off,,,,,100,0,9,,,,,2,,,74,100
53668,note_off,,,,,100,0,10,,,,,3,,,67,100
53668,note_off,,,,,100,0,12,,,,,5,,,43,100
53668,note_off,,,,,100,0,14,,,,,6,,,55,100
53704,note_off,,,,,136,0,16,,,,,7,,,55,100
53756,note_off,,,,,92,0,13,,,,,6,,,74,100
53760,note_on,,,,,92,0,10,,,,,3,,,63,90
53760,note_on,,,,,92,0,11,,,,,4,,,55,90
53760,note_on,,,,,92,0,12,,,,,5,,,43,90
53760,note_on,,,,,156,0,15,,,,,7,,,72,100
53760,note_on,,,,,92,0,8,,,,,1,,,72,90
53760,note_on,,,,,92,0,9,,,,,2,,,79,90
53760,note_on,,,,,4,0,13,,,,,6,,,79,100
53760,note_on,,,,,56,0,16,,,,,7,,,55,100
53760,note_on,,,,,92,0,14,,,,,6,,,55,100
53760,note_on,,,,,0,0,15,,,,,7,,,79,100
53760,note_on,,,,,0,0,15,,,,,7,,,75,100
53852,note_off,,,,,92,0,13,,,,,6,,,79,100
53856,note_on,,,,,4,0,13,,,,,6,,,75,100
53860,note_off,,,,,100,0,14,,,,,6,,,55,100
53860,note_off,,,,,100,0,11,,,,,4,,,55,100
53860,note_off,,,,,100,0,8,,,,,1,,,72,100
53860,note_off,,,,,100,0,9,,,,,2,,,79,100
53860,note_off,,,,,100,0,12,,,,,5,,,43,100
53896,note_off,,,,,136,0,16,,,,,7,,,55,100
53948,note_off,,,,,92,0,13,,,,,6,,,75,100
53952,note_on,,,,,4,0,13,,,,,6,,,72,100
53952,note_on,,,,,92,0,9,,,,,2,,,72,92
53952,note_on,,,,,56,0,16,,,,,7,,,43,100
53952,note_on,,,,,92,0,8,,,,,1,,,75,92
53952,note_on,,,,,92,0,14,,,,,6,,,43,100
53952,note_on,,,,,92,0,12,,,,,5,,,31,92
53952,note_on,,,,,92,0,11,,,,,4,,,43,92
54044,note_off,,,,,92,0,13,,,,,6,,,72,100
54048,note_on,,,,,4,0,13,,,,,6,,,75,100
54052,note_off,,,,,100,0,8,,,,,1,,,75,100
54052,note_off,,,,,100,0,12,,,,,5,,,31,100
54052,note_off,,,,,100,0,14,,,,,6,,,43,100
54052,note_off,,,,,100,0,11,,,,,4,,,43,100
54088,note_off,,,,,136,0,16,,,,,7,,,43,100
54140,note_off,,,,,92,0,13,,,,,6,,,75,100
54144,note_on,,,,,92,0,11,,,,,4,,,43,94
54144,note_on,,,,,4,0,13,,,,,6,,,67,100
54144,note_on,,,,,92,0,8,,,,,1,,,79,94
54144,note_on,,,,,92,0,14,,,,,6,,,43,100
54144,note_on,,,,,92,0,12,,,,,5,,,31,94
54144,note_on,,,,,56,0,16,,,,,7,,,43,100
54144,note_off,,,,,384,0,10,,,,,3,,,63,100
54208,note_off,,,,,256,0,9,,,,,2,,,72,100
54236,note_off,,,,,92,0,13,,,,,6,,,67,100
54240,note_on,,,,,4,0,13,,,,,6,,,75,100
54244,note_off,,,,,100,0,12,,,,,5,,,31,100
54244,note_off,,,,,100,0,14,,,,,6,,,43,100
54244,note_off,,,,,100,0,8,,,,,1,,,79,100
54244,note_off,,,,,100,0,11,,,,,4,,,43,100
54280,note_off,,,,,136,0,16,,,,,7,,,43,100
54332,note_off,,,,,92,0,13,,,,,6,,,75,100
54336,note_on,,,,,192,0,10,,,,,3,,,67,97
54336,note_on,,,,,128,0,9,,,,,2,,,75,97
54336,note_on,,,,,92,0,8,,,,,1,,,72,97
54336,note_on,,,,,56,0,16,,,,,7,,,55,100
54336,note_on,,,,,92,0,11,,,,,4,,,55,97
54336,note_on,,,,,92,0,14,,,,,6,,,55,100
54336,note_on,,,,,92,0,12,,,,,5,,,43,97
54336,note_on,,,,,4,0,13,,,,,6,,,72,100
54372,note_off,,,,,0,0,15,,,,,7,,,75,100
54372,note_off,,,,,0,0,15,,,,,7,,,79,100
54372,note_off,,,,,612,0,15,,,,,7,,,72,100
54428,note_off,,,,,92,0,13,,,,,6,,,72,100
54432,note_on,,,,,4,0,13,,,,,6,,,75,100
54436,note_off,,,,,100,0,9,,,,,2,,,75,100
54436,note_off,,,,,100,0,12,,,,,5,,,43,100
54436,note_off,,,,,100,0,11,,,,,4,,,55,100
54436,note_off,,,,,100,0,8,,,,,1,,,72,100
54436,note_off,,,,,100,0,14,,,,,6,,,55,100
54436,note_off,,,,,100,0,10,,,,,3,,,67,100
54472,note_off,,,,,136,0,16,,,,,7,,,55,100
54524,note_off,,,,,92,0,13,,,,,6,,,75,100
54528,note_on,,,,,56,0,16,,,,,7,,,55,100
54528,note_on,,,,,92,0,9,,,,,2,,,79,99
54528,note_on,,,,,92,0,10,,,,,3,,,62,99
54528,note_on,,,,,156,0,15,,,,,7,,,70,100
54528,note_on,,,,,0,0,15,,,,,7,,,74,100
54528,note_on,,,,,0,0,15,,,,,7,,,79,100
54528,note_on,,,,,92,0,11,,,,,4,,,55,99
54528,note_on,,,,,92,0,8,,,,,1,,,70,99
54528,note_on,,,,,4,0,13,,,,,6,,,79,100
54528,note_on,,,,,92,0,12,,,,,5,,,43,99
54528,note_on,,,,,92,0,14,,,,,6,,,55,100
54620,note_off,,,,,92,0,13,,,,,6,,,79,100
54624,note_on,,,,,4,0,13,,,,,6,,,74,100
54628,note_off,,,,,100,0,9,,,,,2,,,79,100
54628,note_off,,,,,100,0,12,,,,,5,,,43,100
54628,note_off,,,,,100,0,11,,,,,4,,,55,100
54628,note_off,,,,,100,0,8,,,,,1,,,70,100
54628,note_off,,,,,100,0,14,,,,,6,,,55,100
54664,note_off,,,,,136,0,16,,,,,7,,,55,100
54716,note_off,,,,,92,0,13,,,,,6,,,74,100
54720,note_on,,,,,56,0,16,,,,,7,,,43,100
54720,note_on,,,,,92,0,8,,,,,1,,,74,100
54720,note_on,,,,,4,0,13,,,,,6,,,70,100
54720,note_on,,,,,92,0,14,,,,,6,,,43,100
54720,note_on,,,,,92,0,11,,,,,4,,,43,100
54720,note_on,,,,,92,0,9,,,,,2,,,74,100
54720,note_on,,,,,92,0,12,,,,,5,,,31,100
54812,note_off,,,,,92,0,13,,,,,6,,,70,100
54816,note_on,,,,,4,0,13,,,,,6,,,74,100
54820,note_off,,,,,100,0,8,,,,,1,,,74,100
54820,note_off,,,,,100,0,11,,,,,4,,,43,100
54820,note_off,,,,,100,0,12,,,,,5,,,31,100
54820,note_off,,,,,100,0,14,,,,,6,,,43,100
54856,note_off,,,,,136,0,16,,,,,7,,,43,100
54908,note_off,,,,,92,0,13,,,,,6,,,74,100
54912,note_on,,,,,56,0,16,,,,,7,,,43,100
54912,note_on,,,,,92,0,14,,,,,6,,,43,100
54912,note_off,,,,,384,0,10,,,,,3,,,62,100
54912,note_on,,,,,92,0,8,,,,,1,,,79,100
54912,note_on,,,,,92,0,11,,,,,4,,,43,100
54912,note_on,,,,,4,0,13,,,,,6,,,67,100
54912,note_on,,,,,92,0,12,,,,,5,,,31,100
54976,note_off,,,,,256,0,9,,,,,2,,,74,100
55004,note_off,,,,,92,0,13,,,,,6,,,67,100
55008,note_on,,,,,4,0,13,,,,,6,,,74,100
55012,note_off,,,,,100,0,12,,,,,5,,,31,100
55012,note_off,,,,,100,0,8,,,,,1,,,79,100
55012,note_off,,,,,100,0,11,,,,,4,,,43,100
55012,note_off,,,,,100,0,14,,,,,6,,,43,100
55048,note_off,,,,,136,0,16,,,,,7,,,43,100
55100,note_off,,,,,92,0,13,,,,,6,,,74,100
55104,note_on,,,,,128,0,9,,,,,2,,,74,100
55104,note_on,,,,,92,0,14,,,,,6,,,55,100
55104,note_on,,,,,92,0,11,,,,,4,,,55,100
55104,note_on,,,,,192,0,10,,,,,3,,,62,100
55104,note_on,,,,,4,0,13,,,,,6,,,70,100
55104,note_on,,,,,92,0,12,,,,,5,,,43,100
55104,note_on,,,,,56,0,16,,,,,7,,,55,100
55104,note_on,,,,,92,0,8,,,,,1,,,70,100
55140,note_off,,,,,0,0,15,,,,,7,,,74,100
55140,note_off,,,,,612,0,15,,,,,7,,,70,100
55140,note_off,,,,,0,0,15,,,,,7,,,79,100
55196,note_off,,,,,92,0,13,,,,,6,,,70,100
55200,note_on,,,,,4,0,13,,,,,6,,,74,100
55204,note_off,,,,,100,0,10,,,,,3,,,62,100
55204,note_off,,,,,100,0,8,,,,,1,,,70,100
55204,note_off,,,,,100,0,11,,,,,4,,,55,100
55204,note_off,,,,,100,0,14,,,,,6,,,55,100
55204,note_off,,,,,100,0,9,,,,,2,,,74,100
55204,note_off,,,,,100,0,12,,,,,5,,,43,100
55240,note_off,,,,,136,0,16,,,,,7,,,55,100
55292,note_off,,,,,92,0,13,,,,,6,,,74,100
55296,note_on,,,,,0,0,15,,,,,7,,,79,100
55296,note_on,,,,,92,0,10,,,,,3,,,62,100
55296,note_on,,,,,0,0,15,,,,,7,,,69,100
55296,note_on,,,,,156,0,15,,,,,7,,,74,100
55296,note_on,,,,,92,0,14,,,,,6,,,50,100
55296,note_on,,,,,92,0,8,,,,,1,,,69,100
55296,note_on,,,,,92,0,9,,,,,2,,,79,100
55296,note_on,,,,,56,0,16,,,,,7,,,50,100
55296,note_on,,,,,92,0,11,,,,,4,,,50,100
55296,note_on,,,,,4,0,13,,,,,6,,,79,100
55296,note_on,,,,,92,0,12,,,,,5,,,38,100
55388,note_off,,,,,92,0,13,,,,,6,,,79,100
55392,note_on,,,,,4,0,13,,,,,6,,,74,100
55396,note_off,,,,,100,0,11,,,,,4,,,50,100
55396,note_off,,,,,100,0,9,,,,,2,,,79,100
55396,note_off,,,,,100,0,14,,,,,6,,,50,100
55396,note_off,,,,,100,0,8,,,,,1,,,69,100
55396,note_off,,,,,100,0,12,,,,,5,,,38,100
55432,note_off,,,,,136,0,16,,,,,7,,,50,100
55484,note_off,,,,,92,0,13,,,,,6,,,74,100
55488,note_on,,,,,92,0,9,,,,,2,,,69,100
55488,note_on,,,,,56,0,16,,,,,7,,,38,100
55488,note_on,,,,,92,0,14,,,,,6,,,38,100
55488,note_on,,,,,92,0,8,,,,,1,,,74,100
55488,note_on,,,,,92,0,12,,,,,5,,,38,100
55488,note_on,,,,,4,0,13,,,,,6,,,69,100
55488,note_on,,,,,92,0,11,,,,,4,,,38,100
55580,note_off,,,,,92,0,13,,,,,6,,,69,100
55584,note_on,,,,,4,0,13,,,,,6,,,74,100
55588,note_off,,,,,100,0,8,,,,,1,,,74,100
55588,note_off,,,,,100,0,11,,,,,4,,,38,100
55588,note_off,,,,,100,0,14,,,,,6,,,38,100
55588,note_off,,,,,100,0,12,,,,,5,,,38,100
55624,note_off,,,,,136,0,16,,,,,7,,,38,100
55676,note_off,,,,,92,0,13,,,,,6,,,74,100
55680,note_on,,,,,92,0,8,,,,,1,,,79,100
55680,note_on,,,,,92,0,14,,,,,6,,,38,100
55680,note_off,,,,,384,0,10,,,,,3,,,62,100
55680,note_on,,,,,4,0,13,,,,,6,,,67,100
55680,note_on,,,,,92,0,12,,,,,5,,,38,100
55680,note_on,,,,,56,0,16,,,,,7,,,38,100
55680,note_on,,,,,92,0,11,,,,,4,,,38,100
55744,note_off,,,,,256,0,9,,,,,2,,,69,100
55772,note_off,,,,,92,0,13,,,,,6,,,67,100
55776,note_on,,,,,4,0,13,,,,,6,,,74,100
55780,note_off,,,,,100,0,14,,,,,6,,,38,100
55780,note_off,,,,,100,0,12,,,,,5,,,38,100
55780,note_off,,,,,100,0,11,,,,,4,,,38,100
55780,note_off,,,,,100,0,8,,,,,1,,,79,100
55816,note_off,,,,,136,0,16,,,,,7,,,38,100
55868,note_off,,,,,92,0,13,,,,,6,,,74,100
55872,note_on,,,,,4,0,13,,,,,6,,,69,100
55872,note_on,,,,,92,0,14,,,,,6,,,50,100
55872,note_on,,,,,92,0,8,,,,,1,,,74,100
55872,note_on,,,,,92,0,11,,,,,4,,,50,100
55872,note_on,,,,,56,0,16,,,,,7,,,50,100
55872,note_on,,,,,128,0,9,,,,,2,,,69,100
55872,note_on,,,,,192,0,10,,,,,3,,,62,100
55872,note_on,,,,,92,0,12,,,,,5,,,38,100
55908,note_off,,,,,612,0,15,,,,,7,,,74,100
55908,note_off,,,,,0,0,15,,,,,7,,,79,100
55908,note_off,,,,,0,0,15,,,,,7,,,69,100
55964,note_off,,,,,92,0,13,,,,,6,,,69,100
55968,note_on,,,,,4,0,13,,,,,6,,,74,100
55972,note_off,,,,,100,0,10,,,,,3,,,62,100
55972,note_off,,,,,100,0,12,,,,,5,,,38,100
55972,note_off,,,,,100,0,14,,,,,6,,,50,100
55972,note_off,,,,,100,0,11,,,,,4,,,50,100
55972,note_off,,,,,100,0,8,,,,,1,,,74,100
55972,note_off,,,,,100,0,9,,,,,2,,,69,100
56008,note_off,,,,,136,0,16,,,,,7,,,50,100
56060,note_off,,,,,92,0,13,,,,,6,,,74,100
56064,note_on,,,,,92,0,8,,,,,1,,,69,100
56064,note_on,,,,,92,0,14,,,,,6,,,50,100
56064,note_on,,,,,92,0,12,,,,,5,,,38,100
56064,note_on,,,,,92,0,9,,,,,2,,,78,100
56064,note_on,,,,,4,0,13,,,,,6,,,78,100
56064,note_on,,,,,92,0,10,,,,,3,,,62,100
56064,note_on,,,,,56,0,16,,,,,7,,,50,100
56064,note_on,,,,,156,0,15,,,,,7,,,69,100
56064,note_on,,,,,92,0,11,,,,,4,,,50,100
56064,note_on,,,,,0,0,15,,,,,7,,,74,100
56064,note_on,,,,,0,0,15,,,,,7,,,78,100
56156,note_off,,,,,92,0,13,,,,,6,,,78,100
56160,note_on,,,,,4,0,13,,,,,6,,,74,100
56164,note_off,,,,,100,0,12,,,,,5,,,38,100
56164,note_off,,,,,100,0,9,,,,,2,,,78,100
56164,note_off,,,,,100,0,11,,,,,4,,,50,100
56164,note_off,,,,,100,0,8,,,,,1,,,69,100
56164,note_off,,,,,100,0,14,,,,,6,,,50,100
56200,note_off,,,,,136,0,16,,,,,7,,,50,100
56252,note_off,,,,,92,0,13,,,,,6,,,74,100
56256,note_on,,,,,4,0,13,,,,,6,,,69,100
56256,note_on,,,,,56,0,16,,,,,7,,,38,100
56256,note_on,,,,,92,0,12,,,,,5,,,38,100
56256,note_on,,,,,92,0,8,,,,,1,,,72,100
56256,note_on,,,,,92,0,14,,,,,6,,,38,100
56256,note_on,,,,,92,0,9,,,,,2,,,69,100
56256,note_on,,,,,92,0,11,,,,,4,,,38,100
56348,note_off,,,,,92,0,13,,,,,6,,,69,100
56352,note_on,,,,,4,0,13,,,,,6,,,74,100
56356,note_off,,,,,100,0,14,,,,,6,,,38,100
56356,note_off,,,,,100,0,11,,,,,4,,,38,100
56356,note_off,,,,,100,0,8,,,,,1,,,72,100
56356,note_off,,,,,100,0,12,,,,,5,,,38,100
56392,note_off,,,,,136,0,16,,,,,7,,,38,100
56444,note_off,,,,,92,0,13,,,,,6,,,74,100
56448,note_off,,,,,384,0,10,,,,,3,,,62,100
56448,note_on,,,,,92,0,14,,,,,6,,,38,100
56448,note_on,,,,,92,0,8,,,,,1,,,78,100
56448,note_on,,,,,56,0,16,,,,,7,,,38,100
56448,note_on,,,,,92,0,12,,,,,5,,,38,100
56448,note_on,,,,,4,0,13,,,,,6,,,66,100
56448,note_on,,,,,92,0,11,,,,,4,,,38,100
56512,note_off,,,,,256,0,9,,,,,2,,,69,100
56540,note_off,,,,,92,0,13,,,,,6,,,66,100
56544,note_on,,,,,4,0,13,,,,,6,,,74,100
56548,note_off,,,,,100,0,8,,,,,1,,,78,100
56548,note_off,,,,,100,0,12,,,,,5,,,38,100
56548,note_off,,,,,100,0,14,,,,,6,,,38,100
56548,note_off,,,,,100,0,11,,,,,4,,,38,100
56584,note_off,,,,,136,0,16,,,,,7,,,38,100
56636,note_off,,,,,92,0,13,,,,,6,,,74,100
56640,note_on,,,,,92,0,11,,,,,4,,,50,100
56640,note_on,,,,,4,0,13,,,,,6,,,69,100
56640,note_on,,,,,128,0,9,,,,,2,,,72,100
56640,note_on,,,,,92,0,14,,,,,6,,,50,100
56640,note_on,,,,,92,0,12,,,,,5,,,38,100
56640,note_on,,,,,192,0,10,,,,,3,,,62,100
56640,note_on,,,,,56,0,16,,,,,7,,,50,100
56640,note_on,,,,,92,0,8,,,,,1,,,72,100
56676,note_off,,,,,612,0,15,,,,,7,,,69,100
56676,note_off,,,,,0,0,15,,,,,7,,,74,100
56676,note_off,,,,,0,0,15,,,,,7,,,78,100
56732,note_off,,,,,92,0,13,,,,,6,,,69,100
56736,note_on,,,,,4,0,13,,,,,6,,,74,100
56740,note_off,,,,,100,0,9,,,,,2,,,72,100
56740,note_off,,,,,100,0,8,,,,,1,,,72,100
56740,note_off,,,,,100,0,10,,,,,3,,,62,100
56740,note_off,,,,,100,0,11,,,,,4,,,50,100
56740,note_off,,,,,100,0,14,,,,,6,,,50,100
56740,note_off,,,,,100,0,12,,,,,5,,,38,100
56776,note_off,,,,,136,0,16,,,,,7,,,50,100
56828,note_off,,,,,92,0,13,,,,,6,,,74,100
56832,note_on,,,,,0,0,13,,,,,6,,,79,100
56832,note_on,,,,,92,0,14,,,,,6,,,43,100
56832,note_on,,,,,92,0,12,,,,,5,,,31,100
56832,note_on,,,,,4,0,13,,,,,6,,,70,100
56832,note_on,,,,,92,0,8,,,,,1,,,67,100
56832,note_on,,,,,92,0,9,,,,,2,,,70,100
56832,note_on,,,,,92,0,10,,,,,3,,,62,100
56832,note_on,,,,,56,0,16,,,,,7,,,43,100
56832,note_on,,,,,156,0,15,,,,,7,,,74,100
56832,note_on,,,,,0,0,15,,,,,7,,,70,100
56832,note_on,,,,,0,0,15,,,,,7,,,79,100
56832,note_on,,,,,92,0,11,,,,,4,,,43,100
56932,note_off,,,,,100,0,8,,,,,1,,,67,100
57024,note_on,,,,,92,0,8,,,,,1,,,62,100
57088,note_off,,,,,256,0,16,,,,,7,,,43,100
57088,note_off,,,,,256,0,15,,,,,7,,,74,100
57088,note_off,,,,,256,0,11,,,,,4,,,43,100
57088,note_off,,,,,256,0,14,,,,,6,,,43,100
57088,note_off,,,,,256,0,12,,,,,5,,,31,100
57088,note_off,,,,,256,0,10,,,,,3,,,62,100
57088,note_off,,,,,0,0,15,,,,,7,,,79,100
57088,note_off,,,,,0,0,15,,,,,7,,,70,100
57088,note_off,,,,,256,0,9,,,,,2,,,70,100
57088,note_off,,,,,256,0,13,,,,,6,,,70,100
57088,note_off,,,,,0,0,13,,,,,6,,,79,100
57124,note_off,,,,,100,0,8,,,,,1,,,62,100
57216,note_on,,,,,92,0,8,,,,,1,,,69,100
57316,note_off,,,,,100,0,8,,,,,1,,,69,100
57408,note_on,,,,,92,0,8,,,,,1,,,62,100
57508,note_off,,,,,100,0,8,,,,,1,,,62,100
57600,note_on,,,,,512,0,10,,,,,3,,,62,100
57600,note_on,,,,,512,0,11,,,,,4,,,43,100
57600,note_on,,,,,512,0,15,,,,,7,,,58,100
57600,note_on,,,,,512,0,9,,,,,2,,,67,100
57600,note_on,,,,,512,0,12,,,,,5,,,31,100
57600,note_on,,,,,0,0,13,,,,,6,,,67,100
57600,note_on,,,,,512,0,14,,,,,6,,,43,100
57600,note_on,,,,,512,0,16,,,,,7,,,43,100
57600,note_on,,,,,92,0,8,,,,,1,,,70,100
57600,note_on,,,,,0,0,15,,,,,7,,,67,100
57600,note_on,,,,,512,0,13,,,,,6,,,58,100
57700,note_off,,,,,100,0,9,,,,,2,,,67,100
57700,note_off,,,,,100,0,12,,,,,5,,,31,100
57700,note_off,,,,,100,0,11,,,,,4,,,43,100
57700,note_off,,,,,100,0,14,,,,,6,,,43,100
57736,note_off,,,,,136,0,16,,,,,7,,,43,100
57792,note_on,,,,,56,0,16,,,,,7,,,55,100
57792,note_on,,,,,92,0,12,,,,,5,,,43,100
57792,note_on,,,,,92,0,11,,,,,4,,,55,100
57792,note_on,,,,,92,0,9,,,,,2,,,62,100
57792,note_on,,,,,92,0,14,,,,,6,,,55,100
57856,note_off,,,,,256,0,10,,,,,3,,,62,100
57856,note_off,,,,,256,0,15,,,,,7,,,58,100
57856,note_off,,,,,0,0,15,,,,,7,,,67,100
57856,note_off,,,,,0,0,13,,,,,6,,,67,100
57856,note_off,,,,,256,0,13,,,,,6,,,58,100
57856,note_off,,,,,256,0,8,,,,,1,,,70,100
57892,note_off,,,,,100,0,14,,,,,6,,,55,100
57892,note_off,,,,,100,0,9,,,,,2,,,62,100
57892,note_off,,,,,100,0,11,,,,,4,,,55,100
57892,note_off,,,,,100,0,12,,,,,5,,,43,100
57928,note_off,,,,,136,0,16,,,,,7,,,55,100
57984,note_on,,,,,92,0,14,,,,,6,,,54,100
57984,note_on,,,,,92,0,9,,,,,2,,,69,100
57984,note_on,,,,,128,0,15,,,,,7,,,62,100
57984,note_on,,,,,0,0,15,,,,,7,,,69,100
57984,note_on,,,,,128,0,10,,,,,3,,,62,100
57984,note_on,,,,,92,0,11,,,,,4,,,54,100
57984,note_on,,,,,92,0,12,,,,,5,,,42,100
57984,note_on,,,,,0,0,13,,,,,6,,,69,100
57984,note_on,,,,,128,0,13,,,,,6,,,62,100
57984,note_on,,,,,128,0,8,,,,,1,,,69,100
57984,note_on,,,,,56,0,16,,,,,7,,,54,100
58084,note_off,,,,,100,0,11,,,,,4,,,54,100
58084,note_off,,,,,100,0,9,,,,,2,,,69,100
58084,note_off,,,,,100,0,14,,,,,6,,,54,100
58084,note_off,,,,,100,0,12,,,,,5,,,42,100
58120,note_off,,,,,136,0,16,,,,,7,,,54,100
58176,note_on,,,,,92,0,12,,,,,5,,,38,100
58176,note_on,,,,,92,0,14,,,,,6,,,50,100
58176,note_on,,,,,56,0,16,,,,,7,,,50,100
58176,note_on,,,,,92,0,11,,,,,4,,,50,100
58176,note_on,,,,,92,0,9,,,,,2,,,62,100
58240,note_off,,,,,256,0,10,,,,,3,,,62,100
58240,note_off,,,,,256,0,8,,,,,1,,,69,100
58240,note_off,,,,,0,0,15,,,,,7,,,69,100
58240,note_off,,,,,256,0,15,,,,,7,,,62,100
58240,note_off,,,,,0,0,13,,,,,6,,,69,100
58240,note_off,,,,,256,0,13,,,,,6,,,62,100
58276,note_off,,,,,100,0,11,,,,,4,,,50,100
58276,note_off,,,,,100,0,12,,,,,5,,,38,100
58276,note_off,,,,,100,0,9,,,,,2,,,62,100
58276,note_off,,,,,100,0,14,,,,,6,,,50,100
58312,note_off,,,,,136,0,16,,,,,7,,,50,100
58368,note_on,,,,,0,0,13,,,,,6,,,70,100
58368,note_on,,,,,128,0,15,,,,,7,,,67,100
58368,note_on,,,,,92,0,9,,,,,2,,,70,100
58368,note_on,,,,,56,0,16,,,,,7,,,55,100
58368,note_on,,,,,128,0,10,,,,,3,,,62,100
58368,note_on,,,,,92,0,12,,,,,5,,,43,100
58368,note_on,,,,,128,0,13,,,,,6,,,67,100
58368,note_on,,,,,128,0,8,,,,,1,,,67,100
58368,note_on,,,,,0,0,15,,,,,7,,,70,100
58368,note_on,,,,,92,0,14,,,,,6,,,55,100
58368,note_on,,,,,92,0,11,,,,,4,,,55,100
58496,note_off,,,,,128,0,11,,,,,4,,,55,100
58496,note_off,,,,,128,0,12,,,,,5,,,43,100
58556,note_off,,,,,188,0,8,,,,,1,,,67,100
58556,note_off,,,,,188,0,16,,,,,7,,,55,100
58556,note_off,,,,,188,0,14,,,,,6,,,55,100
58560,note_on,,,,,64,0,11,,,,,4,,,43,100
58560,note_on,,,,,4,0,16,,,,,7,,,43,100
58560,note_on,,,,,4,0,14,,,,,6,,,43,100
58560,note_on,,,,,4,0,8,,,,,1,,,70,100
58560,note_on,,,,,64,0,12,,,,,5,,,31,100
58624,note_off,,,,,256,0,9,,,,,2,,,70,100
58624,note_off,,,,,256,0,10,,,,,3,,,62,100
58624,note_off,,,,,0,0,13,,,,,6,,,70,100
58624,note_off,,,,,256,0,13,,,,,6,,,67,100
58624,note_off,,,,,0,0,15,,,,,7,,,70,100
58624,note_off,,,,,256,0,15,,,,,7,,,67,100
58688,note_off,,,,,128,0,12,,,,,5,,,31,100
58688,note_off,,,,,128,0,11,,,,,4,,,43,100
58688,note_off,,,,,128,0,14,,,,,6,,,43,100
58688,note_off,,,,,128,0,16,,,,,7,,,43,100
58748,note_off,,,,,188,0,8,,,,,1,,,70,100
58752,note_on,,,,,4,0,8,,,,,1,,,74,100
58752,note_on,,,,,128,0,13,,,,,6,,,79,100
58752,note_on,,,,,64,0,12,,,,,5,,,31,100
58752,note_on,,,,,128,0,10,,,,,3,,,62,100
58752,note_on,,,,,64,0,11,,,,,4,,,43,100
58752,note_on,,,,,64,0,16,,,,,7,,,43,100
58752,note_on,,,,,64,0,14,,,,,6,,,43,100
58752,note_on,,,,,0,0,15,,,,,7,,,74,100
58752,note_on,,,,,128,0,15,,,,,7,,,70,100
58880,note_off,,,,,128,0,11,,,,,4,,,43,100
58880,note_off,,,,,128,0,8,,,,,1,,,74,100
58880,note_off,,,,,128,0,12,,,,,5,,,31,100
58940,note_off,,,,,188,0,14,,,,,6,,,43,100
58940,note_off,,,,,188,0,16,,,,,7,,,43,100
58944,note_on,,,,,64,0,11,,,,,4,,,55,100
58944,note_on,,,,,64,0,8,,,,,1,,,79,100
58944,note_on,,,,,4,0,14,,,,,6,,,55,100
58944,note_on,,,,,4,0,16,,,,,7,,,55,100
58944,note_on,,,,,64,0,12,,,,,5,,,43,100
58944,note_on,,,,,192,0,13,,,,,6,,,70,100
59008,note_off,,,,,64,0,13,,,,,6,,,79,100
59008,note_off,,,,,0,0,15,,,,,7,,,74,100
59008,note_off,,,,,256,0,15,,,,,7,,,70,100
59008,note_off,,,,,256,0,10,,,,,3,,,62,100
59072,note_off,,,,,64,0,13,,,,,6,,,70,100
59072,note_off,,,,,128,0,11,,,,,4,,,55,100
59072,note_off,,,,,128,0,8,,,,,1,,,79,100
59072,note_off,,,,,128,0,12,,,,,5,,,43,100
59072,note_off,,,,,128,0,16,,,,,7,,,55,100
59072,note_off,,,,,128,0,14,,,,,6,,,55,100
59136,note_on,,,,,64,0,14,,,,,6,,,57,100
59136,note_on,,,,,64,0,13,,,,,6,,,72,100
59136,note_on,,,,,64,0,11,,,,,4,,,57,100
59136,note_on,,,,,64,0,12,,,,,5,,,45,100
59136,note_on,,,,,64,0,16,,,,,7,,,57,100
59136,note_on,,,,,128,0,15,,,,,7,,,72,100
59136,note_on,,,,,0,0,15,,,,,7,,,67,100
59136,note_on,,,,,0,0,13,,,,,6,,,79,100
59136,note_on,,,,,64,0,8,,,,,1,,,79,100
59136,note_on,,,,,512,0,9,,,,,2,,,69,100
59136,note_on,,,,,128,0,10,,,,,3,,,60,100
59264,note_off,,,,,128,0,12,,,,,5,,,45,100
59264,note_off,,,,,128,0,11,,,,,4,,,57,100
59324,note_off,,,,,188,0,8,,,,,1,,,79,100
59324,note_off,,,,,188,0,9,,,,,2,,,69,100
59324,note_off,,,,,188,0,16,,,,,7,,,57,100
59324,note_off,,,,,188,0,13,,,,,6,,,72,100
59324,note_off,,,,,188,0,14,,,,,6,,,57,100
59328,note_on,,,,,4,0,16,,,,,7,,,45,100
59328,note_on,,,,,4,0,14,,,,,6,,,45,100
59328,note_on,,,,,4,0,9,,,,,2,,,72,100
59328,note_on,,,,,4,0,13,,,,,6,,,75,100
59328,note_on,,,,,64,0,12,,,,,5,,,33,100
59328,note_on,,,,,64,0,11,,,,,4,,,45,100
59328,note_on,,,,,4,0,8,,,,,1,,,75,100
59392,note_off,,,,,256,0,10,,,,,3,,,60,100
59456,note_off,,,,,128,0,12,,,,,5,,,33,100
59456,note_off,,,,,128,0,16,,,,,7,,,45,100
59456,note_off,,,,,128,0,14,,,,,6,,,45,100
59456,note_off,,,,,128,0,11,,,,,4,,,45,100
59516,note_off,,,,,188,0,9,,,,,2,,,72,100
59516,note_off,,,,,188,0,13,,,,,6,,,75,100
59516,note_off,,,,,188,0,8,,,,,1,,,75,100
59520,note_on,,,,,4,0,8,,,,,1,,,72,100
59520,note_on,,,,,64,0,11,,,,,4,,,45,100
59520,note_on,,,,,4,0,9,,,,,2,,,75,100
59520,note_on,,,,,64,0,14,,,,,6,,,45,100
59520,note_on,,,,,64,0,12,,,,,5,,,33,100
59520,note_on,,,,,4,0,13,,,,,6,,,72,100
59520,note_on,,,,,128,0,10,,,,,3,,,60,100
59520,note_on,,,,,64,0,16,,,,,7,,,45,100
59648,note_off,,,,,128,0,12,,,,,5,,,33,100
59648,note_off,,,,,128,0,13,,,,,6,,,79,100
59648,note_off,,,,,0,0,13,,,,,6,,,72,100
59648,note_off,,,,,128,0,9,,,,,2,,,75,100
59648,note_off,,,,,128,0,11,,,,,4,,,45,100
59648,note_off,,,,,128,0,8,,,,,1,,,72,100
59708,note_off,,,,,188,0,16,,,,,7,,,45,100
59708,note_off,,,,,188,0,14,,,,,6,,,45,100
59712,note_on,,,,,64,0,11,,,,,4,,,57,100
59712,note_on,,,,,4,0,16,,,,,7,,,57,100
59712,note_on,,,,,64,0,8,,,,,1,,,69,100
59712,note_on,,,,,64,0,13,,,,,6,,,67,100
59712,note_on,,,,,4,0,14,,,,,6,,,57,100
59712,note_on,,,,,64,0,9,,,,,2,,,79,100
59712,note_on,,,,,64,0,12,,,,,5,,,45,100
59748,note_off,,,,,0,0,15,,,,,7,,,67,100
59748,note_off,,,,,612,0,15,,,,,7,,,72,100
59776,note_off,,,,,256,0,10,,,,,3,,,60,100
59840,note_off,,,,,128,0,13,,,,,6,,,67,100
59840,note_off,,,,,128,0,9,,,,,2,,,79,100
59840,note_off,,,,,128,0,12,,,,,5,,,45,100
59840,note_off,,,,,128,0,11,,,,,4,,,57,100
59840,note_off,,,,,128,0,14,,,,,6,,,57,100
59840,note_off,,,,,128,0,16,,,,,7,,,57,100
59840,note_off,,,,,128,0,8,,,,,1,,,69,100
59904,note_on,,,,,0,0,13,,,,,6,,,77,100
59904,note_on,,,,,64,0,13,,,,,6,,,69,100
59904,note_on,,,,,0,0,15,,,,,7,,,72,100
59904,note_on,,,,,64,0,11,,,,,4,,,57,100
59904,note_on,,,,,64,0,9,,,,,2,,,77,100
59904,note_on,,,,,64,0,14,,,,,6,,,57,100
59904,note_on,,,,,64,0,12,,,,,5,,,45,100
59904,note_on,,,,,128,0,10,,,,,3,,,60,100
59904,note_on,,,,,64,0,16,,,,,7,,,57,100
59904,note_on,,,,,156,0,15,,,,,7,,,65,100
59904,note_on,,,,,64,0,8,,,,,1,,,65,100
60032,note_off,,,,,128,0,11,,,,,4,,,57,100
60032,note_off,,,,,128,0,12,,,,,5,,,45,100
60092,note_off,,,,,188,0,16,,,,,7,,,57,100
60092,note_off,,,,,188,0,8,,,,,1,,,65,100
60092,note_off,,,,,188,0,14,,,,,6,,,57,100
60092,note_off,,,,,188,0,9,,,,,2,,,77,100
60092,note_off,,,,,188,0,13,,,,,6,,,69,100
60096,note_on,,,,,4,0,13,,,,,6,,,72,100
60096,note_on,,,,,4,0,8,,,,,1,,,69,100
60096,note_on,,,,,4,0,14,,,,,6,,,45,100
60096,note_on,,,,,4,0,16,,,,,7,,,45,100
60096,note_on,,,,,4,0,9,,,,,2,,,72,100
60096,note_on,,,,,64,0,11,,,,,4,,,45,100
60096,note_on,,,,,64,0,12,,,,,5,,,33,100
60160,note_off,,,,,256,0,10,,,,,3,,,60,100
60224,note_off,,,,,128,0,16,,,,,7,,,45,100
60224,note_off,,,,,128,0,12,,,,,5,,,33,100
60224,note_off,,,,,128,0,14,,,,,6,,,45,100
60224,note_off,,,,,128,0,11,,,,,4,,,45,100
60284,note_off,,,,,188,0,8,,,,,1,,,69,100
60284,note_off,,,,,188,0,13,,,,,6,,,72,100
60284,note_off,,,,,188,0,9,,,,,2,,,72,100
60288,note_on,,,,,128,0,10,,,,,3,,,60,99
60288,note_on,,,,,64,0,12,,,,,5,,,33,99
60288,note_on,,,,,64,0,11,,,,,4,,,45,99
60288,note_on,,,,,64,0,14,,,,,6,,,45,100
60288,note_on,,,,,4,0,8,,,,,1,,,72,99
60288,note_on,,,,,64,0,16,,,,,7,,,45,100
60288,note_on,,,,,4,0,9,,,,,2,,,69,99
60288,note_on,,,,,4,0,13,,,,,6,,,69,100
60416,note_off,,,,,128,0,8,,,,,1,,,72,100
60416,note_off,,,,,128,0,12,,,,,5,,,33,100
60416,note_off,,,,,0,0,13,,,,,6,,,69,100
60416,note_off,,,,,128,0,11,,,,,4,,,45,100
60416,note_off,,,,,128,0,13,,,,,6,,,77,100
60416,note_off,,,,,128,0,9,,,,,2,,,69,100
60476,note_off,,,,,188,0,14,,,,,6,,,45,100
60476,note_off,,,,,188,0,16,,,,,7,,,45,100
60480,note_on,,,,,64,0,9,,,,,2,,,65,99
60480,note_on,,,,,4,0,14,,,,,6,,,57,100
60480,note_on,,,,,4,0,16,,,,,7,,,57,100
60480,note_on,,,,,64,0,8,,,,,1,,,77,99
60480,note_on,,,,,64,0,13,,,,,6,,,65,100
60480,note_on,,,,,64,0,12,,,,,5,,,45,99
60480,note_on,,,,,64,0,11,,,,,4,,,57,99
60516,note_off,,,,,0,0,15,,,,,7,,,72,100
60516,note_off,,,,,612,0,15,,,,,7,,,65,100
60544,note_off,,,,,256,0,10,,,,,3,,,60,100
60608,note_off,,,,,128,0,13,,,,,6,,,65,100
60608,note_off,,,,,128,0,11,,,,,4,,,57,100
60608,note_off,,,,,128,0,9,,,,,2,,,65,100
60608,note_off,,,,,128,0,8,,,,,1,,,77,100
60608,note_off,,,,,128,0,12,,,,,5,,,45,100
60608,note_off,,,,,128,0,16,,,,,7,,,57,100
60608,note_off,,,,,128,0,14,,,,,6,,,57,100
60672,note_on,,,,,64,0,13,,,,,6,,,70,100
60672,note_on,,,,,0,0,13,,,,,6,,,77,100
60672,note_on,,,,,64,0,8,,,,,1,,,77,98
60672,note_on,,,,,64,0,12,,,,,5,,,43,98
60672,note_on,,,,,64,0,11,,,,,4,,,55,98
60672,note_on,,,,,0,0,15,,,,,7,,,65,100
60672,note_on,,,,,64,0,14,,,,,6,,,55,100
60672,note_on,,,,,156,0,15,,,,,7,,,70,100
60672,note_on,,,,,64,0,16,,,,,7,,,55,100
60672,note_on,,,,,128,0,10,,,,,3,,,58,98
60672,note_on,,,,,64,0,9,,,,,2,,,67,98
60800,note_off,,,,,128,0,12,,,,,5,,,43,100
60800,note_off,,,,,128,0,11,,,,,4,,,55,100
60860,note_off,,,,,188,0,14,,,,,6,,,55,100
60860,note_off,,,,,188,0,16,,,,,7,,,55,100
60860,note_off,,,,,188,0,9,,,,,2,,,67,100
60860,note_off,,,,,188,0,13,,,,,6,,,70,100
60860,note_off,,,,,188,0,8,,,,,1,,,77,100
60864,note_on,,,,,4,0,13,,,,,6,,,74,100
60864,note_on,,,,,64,0,11,,,,,4,,,43,97
60864,note_on,,,,,4,0,14,,,,,6,,,43,100
60864,note_on,,,,,4,0,9,,,,,2,,,70,97
60864,note_on,,,,,64,0,12,,,,,5,,,31,97
60864,note_on,,,,,4,0,8,,,,,1,,,74,97
60864,note_on,,,,,4,0,16,,,,,7,,,43,100
60928,note_off,,,,,256,0,10,,,,,3,,,58,100
60992,note_off,,,,,128,0,12,,,,,5,,,31,100
60992,note_off,,,,,128,0,14,,,,,6,,,43,100
60992,note_off,,,,,128,0,11,,,,,4,,,43,100
60992,note_off,,,,,128,0,16,,,,,7,,,43,100
61052,note_off,,,,,188,0,9,,,,,2,,,70,100
61052,note_off,,,,,188,0,8,,,,,1,,,74,100
61052,note_off,,,,,188,0,13,,,,,6,,,74,100
61056,note_on,,,,,64,0,16,,,,,7,,,43,100
61056,note_on,,,,,64,0,11,,,,,4,,,43,97
61056,note_on,,,,,4,0,9,,,,,2,,,74,97
61056,note_on,,,,,4,0,8,,,,,1,,,70,97
61056,note_on,,,,,64,0,14,,,,,6,,,43,100
61056,note_on,,,,,4,0,13,,,,,6,,,70,100
61056,note_on,,,,,128,0,10,,,,,3,,,58,97
61056,note_on,,,,,64,0,12,,,,,5,,,31,97
61184,note_off,,,,,0,0,13,,,,,6,,,70,100
61184,note_off,,,,,128,0,9,,,,,2,,,74,100
61184,note_off,,,,,128,0,11,,,,,4,,,43,100
61184,note_off,,,,,128,0,13,,,,,6,,,77,100
61184,note_off,,,,,128,0,12,,,,,5,,,31,100
61184,note_off,,,,,128,0,8,,,,,1,,,70,100
61244,note_off,,,,,188,0,16,,,,,7,,,43,100
61244,note_off,,,,,188,0,14,,,,,6,,,43,100
61248,note_on,,,,,64,0,12,,,,,5,,,43,96
61248,note_on,,,,,4,0,14,,,,,6,,,55,100
61248,note_on,,,,,4,0,16,,,,,7,,,55,100
61248,note_on,,,,,64,0,13,,,,,6,,,65,100
61248,note_on,,,,,64,0,9,,,,,2,,,77,96
61248,note_on,,,,,64,0,8,,,,,1,,,67,96
61248,note_on,,,,,64,0,11,,,,,4,,,55,96
61284,note_off,,,,,0,0,15,,,,,7,,,65,100
61284,note_off,,,,,612,0,15,,,,,7,,,70,100
61312,note_off,,,,,256,0,10,,,,,3,,,58,100
61376,note_off,,,,,128,0,12,,,,,5,,,43,100
61376,note_off,,,,,128,0,8,,,,,1,,,67,100
61376,note_off,,,,,128,0,13,,,,,6,,,65,100
61376,note_off,,,,,128,0,14,,,,,6,,,55,100
61376,note_off,,,,,128,0,11,,,,,4,,,55,100
61376,note_off,,,,,128,0,9,,,,,2,,,77,100
61376,note_off,,,,,128,0,16,,,,,7,,,55,100
61440,note_on,,,,,0,0,15,,,,,7,,,70,100
61440,note_on,,,,,156,0,15,,,,,7,,,63,100
61440,note_on,,,,,64,0,13,,,,,6,,,67,100
61440,note_on,,,,,64,0,8,,,,,1,,,63,95
61440,note_on,,,,,64,0,14,,,,,6,,,55,100
61440,note_on,,,,,64,0,12,,,,,5,,,43,95
61440,note_on,,,,,128,0,10,,,,,3,,,58,95
61440,note_on,,,,,64,0,9,,,,,2,,,75,95
61440,note_on,,,,,0,0,13,,,,,6,,,75,100
61440,note_on,,,,,64,0,11,,,,,4,,,55,95
61440,note_on,,,,,64,0,16,,,,,7,,,55,100
61568,note_off,,,,,128,0,11,,,,,4,,,55,100
61568,note_off,,,,,128,0,12,,,,,5,,,43,100
61628,note_off,,,,,188,0,14,,,,,6,,,55,100
61628,note_off,,,,,188,0,8,,,,,1,,,63,100
61628,note_off,,,,,188,0,13,,,,,6,,,67,100
61628,note_off,,,,,188,0,9,,,,,2,,,75,100
61628,note_off,,,,,188,0,16,,,,,7,,,55,100
61632,note_on,,,,,64,0,12,,,,,5,,,31,95
61632,note_on,,,,,4,0,8,,,,,1,,,67,95
61632,note_on,,,,,4,0,14,,,,,6,,,43,100
61632,note_on,,,,,4,0,9,,,,,2,,,70,95
61632,note_on,,,,,4,0,16,,,,,7,,,43,100
61632,note_on,,,,,64,0,11,,,,,4,,,43,95
61632,note_on,,,,,4,0,13,,,,,6,,,70,100
61696,note_off,,,,,256,0,10,,,,,3,,,58,100
61760,note_off,,,,,128,0,16,,,,,7,,,43,100
61760,note_off,,,,,128,0,12,,,,,5,,,31,100
61760,note_off,,,,,128,0,11,,,,,4,,,43,100
61760,note_off,,,,,128,0,14,,,,,6,,,43,100
61820,note_off,,,,,188,0,13,,,,,6,,,70,100
61820,note_off,,,,,188,0,8,,,,,1,,,67,100
61820,note_off,,,,,188,0,9,,,,,2,,,70,100
61824,note_on,,,,,128,0,10,,,,,3,,,58,94
61824,note_on,,,,,4,0,8,,,,,1,,,70,94
61824,note_on,,,,,4,0,13,,,,,6,,,67,100
61824,note_on,,,,,64,0,14,,,,,6,,,43,100
61824,note_on,,,,,64,0,11,,,,,4,,,43,94
61824,note_on,,,,,4,0,9,,,,,2,,,67,94
61824,note_on,,,,,64,0,16,,,,,7,,,43,100
61824,note_on,,,,,64,0,12,,,,,5,,,31,94
61952,note_off,,,,,128,0,8,,,,,1,,,70,100
61952,note_off,,,,,128,0,11,,,,,4,,,43,100
61952,note_off,,,,,128,0,9,,,,,2,,,67,100
61952,note_off,,,,,0,0,13,,,,,6,,,67,100
61952,note_off,,,,,128,0,13,,,,,6,,,75,100
61952,note_off,,,,,128,0,12,,,,,5,,,31,100
62012,note_off,,,,,188,0,16,,,,,7,,,43,100
62012,note_off,,,,,188,0,14,,,,,6,,,43,100
62016,note_on,,,,,4,0,14,,,,,6,,,55,100
62016,note_on,,,,,64,0,13,,,,,6,,,63,100
62016,note_on,,,,,4,0,16,,,,,7,,,55,100
62016,note_on,,,,,64,0,9,,,,,2,,,63,93
62016,note_on,,,,,64,0,8,,,,,1,,,75,93
62016,note_on,,,,,64,0,11,,,,,4,,,55,93
62016,note_on,,,,,64,0,12,,,,,5,,,43,93
62052,note_off,,,,,0,0,15,,,,,7,,,70,100
62052,note_off,,,,,612,0,15,,,,,7,,,63,100
62080,note_off,,,,,256,0,10,,,,,3,,,58,100
62144,note_off,,,,,128,0,16,,,,,7,,,55,100
62144,note_off,,,,,128,0,12,,,,,5,,,43,100
62144,note_off,,,,,128,0,11,,,,,4,,,55,100
62144,note_off,,,,,128,0,8,,,,,1,,,75,100
62144,note_off,,,,,128,0,9,,,,,2,,,63,100
62144,note_off,,,,,128,0,13,,,,,6,,,63,100
62144,note_off,,,,,128,0,14,,,,,6,,,55,100
62208,note_on,,,,,64,0,11,,,,,4,,,53,93
62208,note_on,,,,,64,0,13,,,,,6,,,69,100
62208,note_on,,,,,0,0,13,,,,,6,,,75,100
62208,note_on,,,,,64,0,14,,,,,6,,,53,100
62208,note_on,,,,,64,0,9,,,,,2,,,65,93
62208,note_on,,,,,0,0,15,,,,,7,,,63,100
62208,note_on,,,,,156,0,15,,,,,7,,,69,100
62208,note_on,,,,,64,0,16,,,,,7,,,53,100
62208,note_on,,,,,64,0,8,,,,,1,,,75,93
62208,note_on,,,,,64,0,12,,,,,5,,,41,93
62208,note_on,,,,,128,0,10,,,,,3,,,57,93
62336,note_off,,,,,128,0,12,,,,,5,,,41,100
62336,note_off,,,,,128,0,11,,,,,4,,,53,100
62396,note_off,,,,,188,0,9,,,,,2,,,65,100
62396,note_off,,,,,188,0,14,,,,,6,,,53,100
62396,note_off,,,,,188,0,13,,,,,6,,,69,100
62396,note_off,,,,,188,0,16,,,,,7,,,53,100
62396,note_off,,,,,188,0,8,,,,,1,,,75,100
62400,note_on,,,,,4,0,14,,,,,6,,,41,100
62400,note_on,,,,,4,0,13,,,,,6,,,72,100
62400,note_on,,,,,64,0,11,,,,,4,,,41,92
62400,note_on,,,,,64,0,12,,,,,5,,,41,92
62400,note_on,,,,,4,0,9,,,,,2,,,69,92
62400,note_on,,,,,4,0,16,,,,,7,,,41,100
62400,note_on,,,,,4,0,8,,,,,1,,,72,92
62464,note_off,,,,,256,0,10,,,,,3,,,57,100
62528,note_off,,,,,128,0,14,,,,,6,,,41,100
62528,note_off,,,,,128,0,12,,,,,5,,,41,100
62528,note_off,,,,,128,0,16,,,,,7,,,41,100
62528,note_off,,,,,128,0,11,,,,,4,,,41,100
62588,note_off,,,,,188,0,8,,,,,1,,,72,100
62588,note_off,,,,,188,0,9,,,,,2,,,69,100
62588,note_off,,,,,188,0,13,,,,,6,,,72,100
62592,note_on,,,,,4,0,13,,,,,6,,,69,100
62592,note_on,,,,,64,0,11,,,,,4,,,41,91
62592,note_on,,,,,4,0,9,,,,,2,,,72,91
62592,note_on,,,,,64,0,14,,,,,6,,,41,100
62592,note_on,,,,,64,0,16,,,,,7,,,41,100
62592,note_on,,,,,128,0,10,,,,,3,,,65,91
62592,note_on,,,,,64,0,12,,,,,5,,,41,91
62592,note_on,,,,,4,0,8,,,,,1,,,69,91
62720,note_off,,,,,128,0,13,,,,,6,,,75,100
62720,note_off,,,,,0,0,13,,,,,6,,,69,100
62720,note_off,,,,,128,0,9,,,,,2,,,72,100
62720,note_off,,,,,128,0,8,,,,,1,,,69,100
62720,note_off,,,,,128,0,12,,,,,5,,,41,100
62720,note_off,,,,,128,0,11,,,,,4,,,41,100
62780,note_off,,,,,188,0,14,,,,,6,,,41,100
62780,note_off,,,,,188,0,16,,,,,7,,,41,100
62784,note_on,,,,,64,0,8,,,,,1,,,65,91
62784,note_on,,,,,64,0,12,,,,,5,,,41,91
62784,note_on,,,,,64,0,9,,,,,2,,,69,91
62784,note_on,,,,,4,0,16,,,,,7,,,53,100
62784,note_on,,,,,4,0,14,,,,,6,,,53,100
62784,note_on,,,,,64,0,13,,,,,6,,,65,100
62784,note_on,,,,,64,0,11,,,,,4,,,53,91
62820,note_off,,,,,612,0,15,,,,,7,,,69,100
62820,note_off,,,,,0,0,15,,,,,7,,,63,100
62848,note_off,,,,,256,0,10,,,,,3,,,65,100
62912,note_off,,,,,128,0,9,,,,,2,,,69,100
62912,note_off,,,,,128,0,11,,,,,4,,,53,100
62912,note_off,,,,,128,0,14,,,,,6,,,53,100
62912,note_off,,,,,128,0,8,,,,,1,,,65,100
62912,note_off,,,,,128,0,13,,,,,6,,,65,100
62912,note_off,,,,,128,0,16,,,,,7,,,53,100
62912,note_off,,,,,128,0,12,,,,,5,,,41,100
62976,note_on,,,,,156,0,15,,,,,7,,,70,100
62976,note_on,,,,,0,0,15,,,,,7,,,62,100
62976,note_on,,,,,64,0,12,,,,,5,,,34,90
62976,note_on,,,,,0,0,13,,,,,6,,,74,100
62976,note_on,,,,,64,0,16,,,,,7,,,46,100
62976,note_on,,,,,128,0,10,,,,,3,,,65,90
62976,note_on,,,,,64,0,8,,,,,1,,,74,90
62976,note_on,,,,,64,0,11,,,,,4,,,46,90
62976,note_on,,,,,64,0,9,,,,,2,,,70,90
62976,note_on,,,,,64,0,14,,,,,6,,,46,100
62976,note_on,,,,,64,0,13,,,,,6,,,70,100
63076,note_off,,,,,100,0,9,,,,,2,,,70,100
63104,note_off,,,,,128,0,12,,,,,5,,,34,100
63104,note_off,,,,,128,0,14,,,,,6,,,46,100
63104,note_off,,,,,128,0,11,,,,,4,,,46,100
63112,note_off,,,,,136,0,16,,,,,7,,,46,100
63168,note_on,,,,,56,0,16,,,,,7,,,58,100
63168,note_on,,,,,64,0,11,,,,,4,,,58,90
63168,note_on,,,,,92,0,9,,,,,2,,,65,90
63168,note_on,,,,,64,0,14,,,,,6,,,58,100
63168,note_on,,,,,64,0,12,,,,,5,,,46,90
63232,note_off,,,,,0,0,15,,,,,7,,,62,100
63232,note_off,,,,,256,0,13,,,,,6,,,70,100
63232,note_off,,,,,0,0,13,,,,,6,,,74,100
63232,note_off,,,,,256,0,10,,,,,3,,,65,100
63232,note_off,,,,,256,0,8,,,,,1,,,74,100
63232,note_off,,,,,256,0,15,,,,,7,,,70,100
63268,note_off,,,,,100,0,12,,,,,5,,,46,100
63268,note_off,,,,,100,0,11,,,,,4,,,58,100
63268,note_off,,,,,100,0,9,,,,,2,,,65,100
63268,note_off,,,,,100,0,14,,,,,6,,,58,100
63304,note_off,,,,,136,0,16,,,,,7,,,58,100
63360,note_on,,,,,92,0,14,,,,,6,,,57,100
63360,note_on,,,,,56,0,16,,,,,7,,,57,100
63360,note_on,,,,,92,0,12,,,,,5,,,45,90
63360,note_on,,,,,92,0,9,,,,,2,,,72,90
63360,note_on,,,,,92,0,11,,,,,4,,,57,90
63360,note_on,,,,,128,0,10,,,,,3,,,65,90
63360,note_on,,,,,128,0,8,,,,,1,,,72,90
63460,note_off,,,,,100,0,9,,,,,2,,,72,100
63460,note_off,,,,,100,0,14,,,,,6,,,57,100
63460,note_off,,,,,100,0,12,,,,,5,,,45,100
63460,note_off,,,,,100,0,11,,,,,4,,,57,100
63496,note_off,,,,,136,0,16,,,,,7,,,57,100
63552,note_on,,,,,56,0,16,,,,,7,,,53,100
63552,note_on,,,,,92,0,14,,,,,6,,,53,100
63552,note_on,,,,,92,0,12,,,,,5,,,41,90
63552,note_on,,,,,92,0,9,,,,,2,,,65,90
63552,note_on,,,,,92,0,11,,,,,4,,,53,90
63616,note_off,,,,,256,0,8,,,,,1,,,72,100
63616,note_off,,,,,256,0,10,,,,,3,,,65,100
63652,note_off,,,,,100,0,9,,,,,2,,,65,100
63652,note_off,,,,,100,0,14,,,,,6,,,53,100
63652,note_off,,,,,100,0,12,,,,,5,,,41,100
63652,note_off,,,,,100,0,11,,,,,4,,,53,100
63688,note_off,,,,,136,0,16,,,,,7,,,53,100
63744,note_on,,,,,92,0,11,,,,,4,,,46,90
63744,note_on,,,,,92,0,14,,,,,6,,,46,100
63744,note_on,,,,,0,0,15,,,,,7,,,62,100
63744,note_on,,,,,0,0,13,,,,,6,,,74,100
63744,note_on,,,,,512,0,13,,,,,6,,,70,100
63744,note_on,,,,,128,0,10,,,,,3,,,65,90
63744,note_on,,,,,56,0,16,,,,,7,,,46,100
63744,note_on,,,,,92,0,9,,,,,2,,,74,90
63744,note_on,,,,,92,0,12,,,,,5,,,34,90
63744,note_on,,,,,128,0,8,,,,,1,,,70,90
63744,note_on,,,,,512,0,15,,,,,7,,,70,100
63844,note_off,,,,,100,0,11,,,,,4,,,46,100
63844,note_off,,,,,100,0,14,,,,,6,,,46,100
63844,note_off,,,,,100,0,8,,,,,1,,,70,100
63844,note_off,,,,,100,0,12,,,,,5,,,34,100
63872,note_off,,,,,0,0,13,,,,,6,,,74,100
63872,note_off,,,,,128,0,13,,,,,6,,,70,100
63880,note_off,,,,,136,0,16,,,,,7,,,46,100
63936,note_on,,,,,92,0,11,,,,,4,,,58,90
63936,note_on,,,,,92,0,12,,,,,5,,,46,90
63936,note_on,,,,,92,0,14,,,,,6,,,58,100
63936,note_on,,,,,64,0,13,,,,,6,,,65,100
63936,note_on,,,,,92,0,8,,,,,1,,,65,90
63936,note_on,,,,,56,0,16,,,,,7,,,58,100
64000,note_off,,,,,256,0,9,,,,,2,,,74,100
64000,note_off,,,,,256,0,10,,,,,3,,,65,100
64036,note_off,,,,,100,0,8,,,,,1,,,65,100
64036,note_off,,,,,100,0,14,,,,,6,,,58,100
64036,note_off,,,,,100,0,12,,,,,5,,,46,100
64036,note_off,,,,,100,0,11,,,,,4,,,58,100
64048,note_off,,,,,0,0,15,,,,,7,,,62,100
64048,note_off,,,,,304,0,15,,,,,7,,,70,100
64064,note_off,,,,,128,0,13,,,,,6,,,65,100
64072,note_off,,,,,136,0,16,,,,,7,,,58,100
64128,note_on,,,,,0,0,15,,,,,7,,,60,100
64128,note_on,,,,,56,0,16,,,,,7,,,57,100
64128,note_on,,,,,128,0,9,,,,,2,,,72,90
64128,note_on,,,,,80,0,15,,,,,7,,,69,100
64128,note_on,,,,,92,0,14,,,,,6,,,57,100
64128,note_on,,,,,92,0,11,,,,,4,,,57,90
64128,note_on,,,,,92,0,12,,,,,5,,,45,90
64128,note_on,,,,,92,0,8,,,,,1,,,72,90
64128,note_on,,,,,128,0,10,,,,,3,,,65,90
64128,note_on,,,,,64,0,13,,,,,6,,,72,100
64228,note_off,,,,,100,0,11,,,,,4,,,57,100
64228,note_off,,,,,100,0,12,,,,,5,,,45,100
64228,note_off,,,,,100,0,14,,,,,6,,,57,100
64228,note_off,,,,,100,0,8,,,,,1,,,72,100
64256,note_off,,,,,128,0,13,,,,,6,,,72,100
64264,note_off,,,,,136,0,16,,,,,7,,,57,100
64320,note_on,,,,,92,0,12,,,,,5,,,41,90
64320,note_on,,,,,92,0,14,,,,,6,,,53,100
64320,note_on,,,,,92,0,8,,,,,1,,,65,90
64320,note_on,,,,,92,0,11,,,,,4,,,53,90
64320,note_on,,,,,64,0,13,,,,,6,,,69,100
64320,note_on,,,,,56,0,16,,,,,7,,,53,100
64384,note_off,,,,,256,0,10,,,,,3,,,65,100
64384,note_off,,,,,256,0,9,,,,,2,,,72,100
64420,note_off,,,,,100,0,12,,,,,5,,,41,100
64420,note_off,,,,,100,0,14,,,,,6,,,53,100
64420,note_off,,,,,100,0,11,,,,,4,,,53,100
64420,note_off,,,,,100,0,8,,,,,1,,,65,100
64432,note_off,,,,,0,0,15,,,,,7,,,60,100
64432,note_off,,,,,304,0,15,,,,,7,,,69,100
64448,note_off,,,,,128,0,13,,,,,6,,,69,100
64456,note_off,,,,,136,0,16,,,,,7,,,53,100
64512,note_on,,,,,92,0,11,,,,,4,,,46,90
64512,note_on,,,,,80,0,15,,,,,7,,,62,100
64512,note_on,,,,,0,0,15,,,,,7,,,70,100
64512,note_on,,,,,128,0,9,,,,,2,,,70,90
64512,note_on,,,,,92,0,8,,,,,1,,,74,90
64512,note_on,,,,,64,0,13,,,,,6,,,70,100
64512,note_on,,,,,92,0,12,,,,,5,,,34,90
64512,note_on,,,,,92,0,14,,,,,6,,,46,100
64512,note_on,,,,,0,0,13,,,,,6,,,74,100
64512,note_on,,,,,56,0,16,,,,,7,,,46,100
64512,note_on,,,,,128,0,10,,,,,3,,,65,90
64612,note_off,,,,,100,0,8,,,,,1,,,74,100
64704,note_on,,,,,92,0,8,,,,,1,,,70,90
64768,note_off,,,,,256,0,12,,,,,5,,,34,100
64768,note_off,,,,,0,0,13,,,,,6,,,74,100
64768,note_off,,,,,256,0,9,,,,,2,,,70,100
64768,note_off,,,,,256,0,13,,,,,6,,,70,100
64768,note_off,,,,,256,0,11,,,,,4,,,46,100
64768,note_off,,,,,0,0,15,,,,,7,,,70,100
64768,note_off,,,,,256,0,10,,,,,3,,,65,100
64768,note_off,,,,,256,0,14,,,,,6,,,46,100
64768,note_off,,,,,256,0,16,,,,,7,,,46,100
64768,note_off,,,,,256,0,15,,,,,7,,,62,100
64832,note_off,,,,,128,0,8,,,,,1,,,70,100
64896,note_on,,,,,64,0,8,,,,,1,,,74,92
65024,note_off,,,,,128,0,8,,,,,1,,,74,100
65088,note_on,,,,,64,0,8,,,,,1,,,77,94
65216,note_off,,,,,128,0,8,,,,,1,,,77,100
65280,note_on,,,,,512,0,13,,,,,6,,,62,100
65280,note_on,,,,,512,0,10,,,,,3,,,65,96
65280,note_on,,,,,512,0,14,,,,,6,,,58,100
65280,note_on,,,,,0,0,13,,,,,6,,,70,100
65280,note_on,,,,,64,0,8,,,,,1,,,74,96
65280,note_on,,,,,512,0,11,,,,,4,,,58,96
65280,note_on,,,,,512,0,16,,,,,7,,,58,100
65280,note_on,,,,,512,0,12,,,,,5,,,46,96
65280,note_on,,,,,512,0,9,,,,,2,,,70,96
65280,note_on,,,,,0,0,15,,,,,7,,,70,100
65280,note_on,,,,,512,0,15,,,,,7,,,62,100
65380,note_off,,,,,100,0,11,,,,,4,,,58,100
65380,note_off,,,,,100,0,14,,,,,6,,,58,100
65380,note_off,,,,,100,0,12,,,,,5,,,46,100
65416,note_off,,,,,136,0,16,,,,,7,,,58,100
65468,note_off,,,,,188,0,8,,,,,1,,,74,100
65472,note_on,,,,,56,0,16,,,,,7,,,46,100
65472,note_on,,,,,92,0,12,,,,,5,,,34,98
65472,note_on,,,,,4,0,8,,,,,1,,,72,98
65472,note_on,,,,,92,0,14,,,,,6,,,46,100
65472,note_on,,,,,92,0,11,,,,,4,,,46,98
65536,note_off,,,,,256,0,10,,,,,3,,,65,100
65536,note_off,,,,,256,0,9,,,,,2,,,70,100
65536,note_off,,,,,256,0,13,,,,,6,,,70,100
65536,note_off,,,,,256,0,15,,,,,7,,,70,100
65572,note_off,,,,,100,0,11,,,,,4,,,46,100
65572,note_off,,,,,100,0,14,,,,,6,,,46,100
65572,note_off,,,,,100,0,12,,,,,5,,,34,100
65608,note_off,,,,,136,0,16,,,,,7,,,46,100
65660,note_off,,,,,188,0,8,,,,,1,,,72,100
65664,note_on,,,,,128,0,9,,,,,2,,,74,100
65664,note_on,,,,,92,0,14,,,,,6,,,46,100
65664,note_on,,,,,128,0,13,,,,,6,,,68,100
65664,note_on,,,,,56,0,16,,,,,7,,,46,100
65664,note_on,,,,,92,0,12,,,,,5,,,34,100
65664,note_on,,,,,92,0,11,,,,,4,,,46,100
65664,note_on,,,,,128,0,10,,,,,3,,,62,100
65664,note_on,,,,,4,0,8,,,,,1,,,70,100
65664,note_on,,,,,128,0,15,,,,,7,,,68,100
65764,note_off,,,,,100,0,11,,,,,4,,,46,100
65764,note_off,,,,,100,0,14,,,,,6,,,46,100
65764,note_off,,,,,100,0,12,,,,,5,,,34,100
65792,note_off,,,,,128,0,8,,,,,1,,,70,100
65792,note_off,,,,,128,0,13,,,,,6,,,62,100
65792,note_off,,,,,128,0,15,,,,,7,,,62,100
65800,note_off,,,,,136,0,16,,,,,7,,,46,100
65856,note_on,,,,,92,0,14,,,,,6,,,58,100
65856,note_on,,,,,92,0,12,,,,,5,,,46,102
65856,note_on,,,,,56,0,16,,,,,7,,,58,100
65856,note_on,,,,,64,0,8,,,,,1,,,68,102
65856,note_on,,,,,92,0,11,,,,,4,,,58,102
65920,note_off,,,,,256,0,10,,,,,3,,,62,100
65920,note_off,,,,,128,0,13,,,,,6,,,68,100
65920,note_off,,,,,256,0,9,,,,,2,,,74,100
65920,note_off,,,,,128,0,15,,,,,7,,,68,100
65956,note_off,,,,,100,0,14,,,,,6,,,58,100
65956,note_off,,,,,100,0,11,,,,,4,,,58,100
65956,note_off,,,,,100,0,12,,,,,5,,,46,100
65984,note_off,,,,,128,0,8,,,,,1,,,68,100
65992,note_off,,,,,136,0,16,,,,,7,,,58,100
66048,note_on,,,,,56,0,16,,,,,7,,,51,100
66048,note_on,,,,,128,0,13,,,,,6,,,63,100
66048,note_on,,,,,0,0,13,,,,,6,,,67,100
66048,note_on,,,,,128,0,10,,,,,3,,,58,104
66048,note_on,,,,,64,0,8,,,,,1,,,67,104
66048,note_on,,,,,92,0,12,,,,,5,,,39,104
66048,note_on,,,,,92,0,11,,,,,4,,,51,104
66048,note_on,,,,,92,0,14,,,,,6,,,51,100
66048,note_on,,,,,128,0,15,,,,,7,,,63,100
66048,note_on,,,,,0,0,15,,,,,7,,,67,100
66148,note_off,,,,,100,0,14,,,,,6,,,51,100
66148,note_off,,,,,100,0,12,,,,,5,,,39,100
66148,note_off,,,,,100,0,11,,,,,4,,,51,100
66184,note_off,,,,,136,0,16,,,,,7,,,51,100
66240,note_on,,,,,56,0,16,,,,,7,,,39,100
66240,note_on,,,,,92,0,12,,,,,5,,,39,100
66240,note_on,,,,,92,0,11,,,,,4,,,39,100
66240,note_on,,,,,92,0,14,,,,,6,,,39,100
66240,note_on,,,,,320,0,9,,,,,2,,,63,100
66304,note_off,,,,,256,0,8,,,,,1,,,67,100
66304,note_off,,,,,256,0,15,,,,,7,,,63,100
66304,note_off,,,,,0,0,13,,,,,6,,,67,100
66304,note_off,,,,,256,0,13,,,,,6,,,63,100
66304,note_off,,,,,0,0,15,,,,,7,,,67,100
66340,note_off,,,,,100,0,11,,,,,4,,,39,100
66340,note_off,,,,,100,0,14,,,,,6,,,39,100
66340,note_off,,,,,100,0,12,,,,,5,,,39,100
66368,note_off,,,,,128,0,9,,,,,2,,,63,100
66376,note_off,,,,,136,0,16,,,,,7,,,39,100
66432,note_on,,,,,92,0,11,,,,,4,,,39,100
66432,note_on,,,,,92,0,12,,,,,5,,,39,100
66432,note_on,,,,,56,0,16,,,,,7,,,39,100
66432,note_on,,,,,128,0,8,,,,,1,,,70,100
66432,note_on,,,,,92,0,14,,,,,6,,,39,100
66432,note_on,,,,,64,0,9,,,,,2,,,67,100
66532,note_off,,,,,100,0,14,,,,,6,,,39,100
66532,note_off,,,,,100,0,12,,,,,5,,,39,100
66532,note_off,,,,,100,0,11,,,,,4,,,39,100
66560,note_off,,,,,128,0,9,,,,,2,,,67,100
66568,note_off,,,,,136,0,16,,,,,7,,,39,100
66624,note_on,,,,,56,0,16,,,,,7,,,51,100
66624,note_on,,,,,92,0,12,,,,,5,,,39,100
66624,note_on,,,,,92,0,14,,,,,6,,,51,100
66624,note_on,,,,,92,0,11,,,,,4,,,51,100
66624,note_on,,,,,64,0,9,,,,,2,,,70,100
66688,note_off,,,,,256,0,8,,,,,1,,,70,100
66724,note_off,,,,,100,0,11,,,,,4,,,51,100
66724,note_off,,,,,100,0,12,,,,,5,,,39,100
66724,note_off,,,,,100,0,14,,,,,6,,,51,100
66752,note_off,,,,,128,0,9,,,,,2,,,70,100
66760,note_off,,,,,136,0,16,,,,,7,,,51,100
66816,note_on,,,,,64,0,9,,,,,2,,,67,100
66816,note_on,,,,,92,0,12,,,,,5,,,39,100
66816,note_on,,,,,0,0,15,,,,,7,,,70,100
66816,note_on,,,,,56,0,16,,,,,7,,,51,100
66816,note_on,,,,,512,0,15,,,,,7,,,63,100
66816,note_on,,,,,0,0,13,,,,,6,,,70,100
66816,note_on,,,,,0,0,13,,,,,6,,,67,100
66816,note_on,,,,,512,0,13,,,,,6,,,63,100
66816,note_on,,,,,128,0,8,,,,,1,,,75,100
66816,note_on,,,,,92,0,14,,,,,6,,,51,100
66816,note_on,,,,,0,0,15,,,,,7,,,67,100
66816,note_on,,,,,92,0,11,,,,,4,,,51,100
66916,note_off,,,,,100,0,12,,,,,5,,,39,100
66916,note_off,,,,,100,0,14,,,,,6,,,51,100
66916,note_off,,,,,100,0,11,,,,,4,,,51,100
66952,note_off,,,,,136,0,16,,,,,7,,,51,100
67004,note_off,,,,,188,0,9,,,,,2,,,67,100
67008,note_on,,,,,92,0,12,,,,,5,,,39,100
67008,note_on,,,,,92,0,11,,,,,4,,,39,100
67008,note_on,,,,,92,0,14,,,,,6,,,39,100
67008,note_on,,,,,4,0,9,,,,,2,,,65,100
67008,note_on,,,,,56,0,16,,,,,7,,,39,100
67072,note_off,,,,,256,0,8,,,,,1,,,75,100
67108,note_off,,,,,100,0,14,,,,,6,,,39,100
67108,note_off,,,,,100,0,12,,,,,5,,,39,100
67108,note_off,,,,,100,0,11,,,,,4,,,39,100
67144,note_off,,,,,136,0,16,,,,,7,,,39,100
67196,note_off,,,,,188,0,9,,,,,2,,,65,100
67200,note_on,,,,,4,0,9,,,,,2,,,63,100
67200,note_on,,,,,92,0,12,,,,,5,,,39,100
67200,note_on,,,,,92,0,11,,,,,4,,,39,100
67200,note_on,,,,,92,0,14,,,,,6,,,39,100
67200,note_on,,,,,128,0,8,,,,,1,,,79,100
67200,note_on,,,,,56,0,16,,,,,7,,,39,100
67300,note_off,,,,,100,0,14,,,,,6,,,39,100
67300,note_off,,,,,100,0,12,,,,,5,,,39,100
67300,note_off,,,,,100,0,11,,,,,4,,,39,100
67328,note_off,,,,,128,0,9,,,,,2,,,63,100
67328,note_off,,,,,1280,0,10,,,,,3,,,58,100
67336,note_off,,,,,136,0,16,,,,,7,,,39,100
67392,note_on,,,,,92,0,12,,,,,5,,,39,100
67392,note_on,,,,,56,0,16,,,,,7,,,51,100
67392,note_on,,,,,92,0,14,,,,,6,,,51,100
67392,note_on,,,,,92,0,11,,,,,4,,,51,100
67392,note_on,,,,,64,0,9,,,,,2,,,62,100
67428,note_off,,,,,0,0,15,,,,,7,,,70,100
67428,note_off,,,,,0,0,15,,,,,7,,,67,100
67428,note_off,,,,,612,0,15,,,,,7,,,63,100
67428,note_off,,,,,0,0,13,,,,,6,,,70,100
67428,note_off,,,,,0,0,13,,,,,6,,,67,100
67428,note_off,,,,,612,0,13,,,,,6,,,63,100
67456,note_off,,,,,256,0,8,,,,,1,,,79,100
67492,note_off,,,,,100,0,14,,,,,6,,,51,100
67492,note_off,,,,,100,0,11,,,,,4,,,51,100
67492,note_off,,,,,100,0,12,,,,,5,,,39,100
67520,note_off,,,,,128,0,9,,,,,2,,,62,100
67528,note_off,,,,,136,0,16,,,,,7,,,51,100
67584,note_on,,,,,92,0,11,,,,,4,,,51,100
67584,note_on,,,,,92,0,12,,,,,5,,,39,100
67584,note_on,,,,,0,0,15,,,,,7,,,72,100
67584,note_on,,,,,0,0,15,,,,,7,,,67,100
67584,note_on,,,,,156,0,15,,,,,7,,,60,100
67584,note_on,,,,,64,0,9,,,,,2,,,60,100
67584,note_on,,,,,92,0,14,,,,,6,,,51,100
67584,note_on,,,,,156,0,13,,,,,6,,,60,100
67584,note_on,,,,,56,0,16,,,,,7,,,51,100
67584,note_on,,,,,0,0,13,,,,,6,,,72,100
67584,note_on,,,,,0,0,13,,,,,6,,,67,100
67684,note_off,,,,,100,0,14,,,,,6,,,51,100
67684,note_off,,,,,100,0,11,,,,,4,,,51,100
67684,note_off,,,,,100,0,12,,,,,5,,,39,100
67720,note_off,,,,,136,0,16,,,,,7,,,51,100
67776,note_on,,,,,320,0,8,,,,,1,,,72,100
67776,note_on,,,,,92,0,14,,,,,6,,,39,100
67776,note_on,,,,,92,0,12,,,,,5,,,39,100
67776,note_on,,,,,92,0,11,,,,,4,,,39,100
67776,note_on,,,,,56,0,16,,,,,7,,,39,100
67776,note_on,,,,,448,0,10,,,,,3,,,55,100
67840,note_off,,,,,256,0,9,,,,,2,,,60,100
67876,note_off,,,,,100,0,11,,,,,4,,,39,100
67876,note_off,,,,,100,0,14,,,,,6,,,39,100
67876,note_off,,,,,100,0,12,,,,,5,,,39,100
67904,note_off,,,,,128,0,8,,,,,1,,,72,100
67904,note_off,,,,,128,0,10,,,,,3,,,55,100
67912,note_off,,,,,136,0,16,,,,,7,,,39,100
67968,note_on,,,,,64,0,8,,,,,1,,,75,100
67968,note_on,,,,,64,0,10,,,,,3,,,60,100
67968,note_on,,,,,92,0,12,,,,,5,,,39,100
67968,note_on,,,,,56,0,16,,,,,7,,,39,100
67968,note_on,,,,,92,0,11,,,,,4,,,39,100
67968,note_on,,,,,128,0,9,,,,,2,,,67,100
67968,note_on,,,,,92,0,14,,,,,6,,,39,100
68068,note_off,,,,,100,0,14,,,,,6,,,39,100
68068,note_off,,,,,100,0,11,,,,,4,,,39,100
68068,note_off,,,,,100,0,12,,,,,5,,,39,100
68096,note_off,,,,,128,0,10,,,,,3,,,60,100
68096,note_off,,,,,128,0,8,,,,,1,,,75,100
68104,note_off,,,,,136,0,16,,,,,7,,,39,100
68160,note_on,,,,,64,0,8,,,,,1,,,79,100
68160,note_on,,,,,92,0,11,,,,,4,,,51,100
68160,note_on,,,,,56,0,16,,,,,7,,,51,100
68160,note_on,,,,,64,0,10,,,,,3,,,63,100
68160,note_on,,,,,92,0,12,,,,,5,,,39,100
68160,note_on,,,,,92,0,14,,,,,6,,,51,100
68196,note_off,,,,,0,0,15,,,,,7,,,72,100
68196,note_off,,,,,612,0,15,,,,,7,,,60,100
68196,note_off,,,,,0,0,13,,,,,6,,,72,100
68196,note_off,,,,,0,0,13,,,,,6,,,67,100
68196,note_off,,,,,612,0,13,,,,,6,,,60,100
68196,note_off,,,,,0,0,15,,,,,7,,,67,100
68224,note_off,,,,,256,0,9,,,,,2,,,67,100
68260,note_off,,,,,100,0,11,,,,,4,,,51,100
68260,note_off,,,,,100,0,12,,,,,5,,,39,100
68260,note_off,,,,,100,0,14,,,,,6,,,51,100
68288,note_off,,,,,128,0,8,,,,,1,,,79,100
68288,note_off,,,,,128,0,10,,,,,3,,,63,100
68296,note_off,,,,,136,0,16,,,,,7,,,51,100
68352,note_on,,,,,56,0,16,,,,,7,,,51,100
68352,note_on,,,,,0,0,13,,,,,6,,,72,100
68352,note_on,,,,,0,0,13,,,,,6,,,67,100
68352,note_on,,,,,156,0,13,,,,,6,,,60,100
68352,note_on,,,,,128,0,9,,,,,2,,,72,100
68352,note_on,,,,,92,0,11,,,,,4,,,51,100
68352,note_on,,,,,92,0,14,,,,,6,,,51,100
68352,note_on,,,,,92,0,12,,,,,5,,,39,100
68352,note_on,,,,,156,0,15,,,,,7,,,60,100
68352,note_on,,,,,0,0,15,,,,,7,,,72,100
68352,note_on,,,,,0,0,15,,,,,7,,,67,100
68352,note_on,,,,,64,0,8,,,,,1,,,75,100
68352,note_on,,,,,64,0,10,,,,,3,,,67,100
68452,note_off,,,,,100,0,12,,,,,5,,,39,100
68452,note_off,,,,,100,0,14,,,,,6,,,51,100
68452,note_off,,,,,100,0,11,,,,,4,,,51,100
68488,note_off,,,,,136,0,16,,,,,7,,,51,100
68540,note_off,,,,,188,0,8,,,,,1,,,75,100
68544,note_on,,,,,56,0,16,,,,,7,,,39,100
68544,note_on,,,,,92,0,14,,,,,6,,,39,100
68544,note_on,,,,,92,0,12,,,,,5,,,39,100
68544,note_on,,,,,4,0,8,,,,,1,,,74,100
68544,note_on,,,,,92,0,11,,,,,4,,,39,100
68608,note_off,,,,,256,0,10,,,,,3,,,67,100
68608,note_off,,,,,256,0,9,,,,,2,,,72,100
68644,note_off,,,,,100,0,12,,,,,5,,,39,100
68644,note_off,,,,,100,0,14,,,,,6,,,39,100
68644,note_off,,,,,100,0,11,,,,,4,,,39,100
68680,note_off,,,,,136,0,16,,,,,7,,,39,100
68732,note_off,,,,,188,0,8,,,,,1,,,74,100
68736,note_on,,,,,92,0,12,,,,,5,,,39,100
68736,note_on,,,,,128,0,10,,,,,3,,,63,100
68736,note_on,,,,,56,0,16,,,,,7,,,39,100
68736,note_on,,,,,92,0,14,,,,,6,,,39,100
68736,note_on,,,,,4,0,8,,,,,1,,,72,100
68736,note_on,,,,,128,0,9,,,,,2,,,75,100
68736,note_on,,,,,92,0,11,,,,,4,,,39,100
68836,note_off,,,,,100,0,12,,,,,5,,,39,100
68836,note_off,,,,,100,0,11,,,,,4,,,39,100
68836,note_off,,,,,100,0,14,,,,,6,,,39,100
68864,note_off,,,,,128,0,8,,,,,1,,,72,100
68872,note_off,,,,,136,0,16,,,,,7,,,39,100
68928,note_on,,,,,92,0,12,,,,,5,,,39,100
68928,note_on,,,,,64,0,8,,,,,1,,,70,100
68928,note_on,,,,,56,0,16,,,,,7,,,51,100
68928,note_on,,,,,92,0,11,,,,,4,,,51,100
68928,note_on,,,,,92,0,14,,,,,6,,,51,100
68964,note_off,,,,,0,0,15,,,,,7,,,67,100
68964,note_off,,,,,0,0,15,,,,,7,,,72,100
68964,note_off,,,,,612,0,15,,,,,7,,,60,100
68964,note_off,,,,,612,0,13,,,,,6,,,60,100
68964,note_off,,,,,0,0,13,,,,,6,,,67,100
68964,note_off,,,,,0,0,13,,,,,6,,,72,100
68992,note_off,,,,,256,0,9,,,,,2,,,75,100
68992,note_off,,,,,256,0,10,,,,,3,,,63,100
69028,note_off,,,,,100,0,11,,,,,4,,,51,100
69028,note_off,,,,,100,0,12,,,,,5,,,39,100
69028,note_off,,,,,100,0,14,,,,,6,,,51,100
69056,note_off,,,,,128,0,8,,,,,1,,,70,100
69064,note_off,,,,,136,0,16,,,,,7,,,51,100
69120,note_on,,,,,56,0,16,,,,,7,,,53,100
69120,note_on,,,,,92,0,11,,,,,4,,,53,100
69120,note_on,,,,,156,0,13,,,,,6,,,60,100
69120,note_on,,,,,0,0,13,,,,,6,,,69,100
69120,note_on,,,,,64,0,8,,,,,1,,,69,100
69120,note_on,,,,,156,0,15,,,,,7,,,60,100
69120,note_on,,,,,0,0,15,,,,,7,,,69,100
69120,note_on,,,,,0,0,15,,,,,7,,,72,100
69120,note_on,,,,,0,0,13,,,,,6,,,72,100
69120,note_on,,,,,128,0,10,,,,,3,,,60,100
69120,note_on,,,,,92,0,12,,,,,5,,,41,100
69120,note_on,,,,,92,0,14,,,,,6,,,53,100
69220,note_off,,,,,100,0,14,,,,,6,,,53,100
69220,note_off,,,,,100,0,12,,,,,5,,,41,100
69220,note_off,,,,,100,0,11,,,,,4,,,53,100
69256,note_off,,,,,136,0,16,,,,,7,,,53,100
69312,note_on,,,,,92,0,11,,,,,4,,,41,100
69312,note_on,,,,,320,0,9,,,,,2,,,65,100
69312,note_on,,,,,92,0,14,,,,,6,,,41,100
69312,note_on,,,,,92,0,12,,,,,5,,,41,100
69312,note_on,,,,,56,0,16,,,,,7,,,41,100
69376,note_off,,,,,256,0,8,,,,,1,,,69,100
69412,note_off,,,,,100,0,11,,,,,4,,,41,100
69412,note_off,,,,,100,0,12,,,,,5,,,41,100
69412,note_off,,,,,100,0,14,,,,,6,,,41,100
69440,note_off,,,,,128,0,9,,,,,2,,,65,100
69448,note_off,,,,,136,0,16,,,,,7,,,41,100
69504,note_on,,,,,92,0,12,,,,,5,,,41,101
69504,note_on,,,,,92,0,14,,,,,6,,,41,100
69504,note_on,,,,,56,0,16,,,,,7,,,41,100
69504,note_on,,,,,64,0,9,,,,,2,,,69,101
69504,note_on,,,,,92,0,11,,,,,4,,,41,101
69504,note_on,,,,,128,0,8,,,,,1,,,72,101
69604,note_off,,,,,100,0,11,,,,,4,,,41,100
69604,note_off,,,,,100,0,12,,,,,5,,,41,100
69604,note_off,,,,,100,0,14,,,,,6,,,41,100
69632,note_off,,,,,128,0,9,,,,,2,,,69,100
69640,note_off,,,,,136,0,16,,,,,7,,,41,100
69696,note_on,,,,,64,0,9,,,,,2,,,72,102
69696,note_on,,,,,92,0,14,,,,,6,,,53,100
69696,note_on,,,,,92,0,12,,,,,5,,,41,102
69696,note_on,,,,,92,0,11,,,,,4,,,53,102
69696,note_on,,,,,56,0,16,,,,,7,,,53,100
69732,note_off,,,,,0,0,15,,,,,7,,,72,100
69732,note_off,,,,,612,0,15,,,,,7,,,60,100
69732,note_off,,,,,0,0,15,,,,,7,,,69,100
69732,note_off,,,,,0,0,13,,,,,6,,,72,100
69732,note_off,,,,,0,0,13,,,,,6,,,69,100
69732,note_off,,,,,612,0,13,,,,,6,,,60,100
69760,note_off,,,,,256,0,8,,,,,1,,,72,100
69796,note_off,,,,,100,0,14,,,,,6,,,53,100
69796,note_off,,,,,100,0,12,,,,,5,,,41,100
69796,note_off,,,,,100,0,11,,,,,4,,,53,100
69824,note_off,,,,,128,0,9,,,,,2,,,72,100
69832,note_off,,,,,136,0,16,,,,,7,,,53,100
69888,note_on,,,,,56,0,16,,,,,7,,,53,100
69888,note_on,,,,,64,0,9,,,,,2,,,69,102
69888,note_on,,,,,92,0,11,,,,,4,,,53,102
69888,note_on,,,,,92,0,14,,,,,6,,,53,100
69888,note_on,,,,,156,0,13,,,,,6,,,65,100
69888,note_on,,,,,0,0,13,,,,,6,,,69,100
69888,note_on,,,,,0,0,13,,,,,6,,,72,100
69888,note_on,,,,,128,0,8,,,,,1,,,77,102
69888,note_on,,,,,92,0,12,,,,,5,,,41,102
69888,note_on,,,,,156,0,15,,,,,7,,,65,100
69888,note_on,,,,,0,0,15,,,,,7,,,69,100
69888,note_on,,,,,0,0,15,,,,,7,,,72,100
69988,note_off,,,,,100,0,11,,,,,4,,,53,100
69988,note_off,,,,,100,0,14,,,,,6,,,53,100
69988,note_off,,,,,100,0,12,,,,,5,,,41,100
70024,note_off,,,,,136,0,16,,,,,7,,,53,100
70076,note_off,,,,,188,0,9,,,,,2,,,69,100
70080,note_on,,,,,92,0,12,,,,,5,,,41,103
70080,note_on,,,,,92,0,11,,,,,4,,,41,103
70080,note_on,,,,,92,0,14,,,,,6,,,41,100
70080,note_on,,,,,56,0,16,,,,,7,,,41,100
70080,note_on,,,,,4,0,9,,,,,2,,,67,103
70144,note_off,,,,,256,0,8,,,,,1,,,77,100
70180,note_off,,,,,100,0,14,,,,,6,,,41,100
70180,note_off,,,,,100,0,12,,,,,5,,,41,100
70180,note_off,,,,,100,0,11,,,,,4,,,41,100
70216,note_off,,,,,136,0,16,,,,,7,,,41,100
70268,note_off,,,,,188,0,9,,,,,2,,,67,100
70272,note_on,,,,,92,0,11,,,,,4,,,41,104
70272,note_on,,,,,56,0,16,,,,,7,,,41,100
70272,note_on,,,,,128,0,8,,,,,1,,,81,104
70272,note_on,,,,,92,0,12,,,,,5,,,41,104
70272,note_on,,,,,4,0,9,,,,,2,,,65,104
70272,note_on,,,,,92,0,14,,,,,6,,,41,100
70372,note_off,,,,,100,0,11,,,,,4,,,41,100
70372,note_off,,,,,100,0,14,,,,,6,,,41,100
70372,note_off,,,,,100,0,12,,,,,5,,,41,100
70400,note_off,,,,,1280,0,10,,,,,3,,,60,100
70400,note_off,,,,,128,0,9,,,,,2,,,65,100
70408,note_off,,,,,136,0,16,,,,,7,,,41,100
70464,note_on,,,,,92,0,11,,,,,4,,,53,104
70464,note_on,,,,,92,0,12,,,,,5,,,41,104
70464,note_on,,,,,92,0,14,,,,,6,,,53,100
70464,note_on,,,,,64,0,9,,,,,2,,,63,104
70464,note_on,,,,,56,0,16,,,,,7,,,53,100
70500,note_off,,,,,0,0,15,,,,,7,,,69,100
70500,note_off,,,,,0,0,15,,,,,7,,,72,100
70500,note_off,,,,,612,0,13,,,,,6,,,65,100
70500,note_off,,,,,0,0,13,,,,,6,,,69,100
70500,note_off,,,,,0,0,13,,,,,6,,,72,100
70500,note_off,,,,,612,0,15,,,,,7,,,65,100
70528,note_off,,,,,256,0,8,,,,,1,,,81,100
70564,note_off,,,,,100,0,12,,,,,5,,,41,100
70564,note_off,,,,,100,0,11,,,,,4,,,53,100
70564,note_off,,,,,100,0,14,,,,,6,,,53,100
70592,note_off,,,,,128,0,9,,,,,2,,,63,100
70600,note_off,,,,,136,0,16,,,,,7,,,53,100
70656,note_on,,,,,0,0,15,,,,,7,,,69,100
70656,note_on,,,,,92,0,11,,,,,4,,,53,105
70656,note_on,,,,,156,0,13,,,,,6,,,62,100
70656,note_on,,,,,92,0,12,,,,,5,,,41,105
70656,note_on,,,,,0,0,13,,,,,6,,,74,100
70656,note_on,,,,,0,0,13,,,,,6,,,69,100
70656,note_on,,,,,156,0,15,,,,,7,,,62,100
70656,note_on,,,,,92,0,14,,,,,6,,,53,100
70656,note_on,,,,,0,0,15,,,,,7,,,74,100
70656,note_on,,,,,64,0,9,,,,,2,,,62,105
70656,note_on,,,,,56,0,16,,,,,7,,,53,100
70756,note_off,,,,,100,0,14,,,,,6,,,53,100
70756,note_off,,,,,100,0,12,,,,,5,,,41,100
70756,note_off,,,,,100,0,11,,,,,4,,,53,100
70792,note_off,,,,,136,0,16,,,,,7,,,53,100
70848,note_on,,,,,320,0,8,,,,,1,,,74,105
70848,note_on,,,,,92,0,11,,,,,4,,,41,105
70848,note_on,,,,,448,0,10,,,,,3,,,57,105
70848,note_on,,,,,56,0,16,,,,,7,,,41,100
70848,note_on,,,,,92,0,14,,,,,6,,,41,100
70848,note_on,,,,,92,0,12,,,,,5,,,41,105
70912,note_off,,,,,256,0,9,,,,,2,,,62,100
70948,note_off,,,,,100,0,11,,,,,4,,,41,100
70948,note_off,,,,,100,0,12,,,,,5,,,41,100
70948,note_off,,,,,100,0,14,,,,,6,,,41,100
70976,note_off,,,,,128,0,8,,,,,1,,,74,100
70976,note_off,,,,,128,0,10,,,,,3,,,57,100
70984,note_off,,,,,136,0,16,,,,,7,,,41,100
71040,note_on,,,,,64,0,10,,,,,3,,,62,105
71040,note_on,,,,,92,0,14,,,,,6,,,41,100
71040,note_on,,,,,56,0,16,,,,,7,,,41,100
71040,note_on,,,,,92,0,12,,,,,5,,,41,105
71040,note_on,,,,,128,0,9,,,,,2,,,69,105
71040,note_on,,,,,92,0,11,,,,,4,,,41,105
71040,note_on,,,,,64,0,8,,,,,1,,,77,105
71140,note_off,,,,,100,0,14,,,,,6,,,41,100
71140,note_off,,,,,100,0,12,,,,,5,,,41,100
71140,note_off,,,,,100,0,11,,,,,4,,,41,100
71168,note_off,,,,,128,0,10,,,,,3,,,62,100
71168,note_off,,,,,128,0,8,,,,,1,,,77,100
71176,note_off,,,,,136,0,16,,,,,7,,,41,100
71232,note_on,,,,,92,0,11,,,,,4,,,53,105
71232,note_on,,,,,56,0,16,,,,,7,,,53,100
71232,note_on,,,,,92,0,12,,,,,5,,,41,105
71232,note_on,,,,,64,0,8,,,,,1,,,81,105
71232,note_on,,,,,64,0,10,,,,,3,,,65,105
71232,note_on,,,,,92,0,14,,,,,6,,,53,100
71268,note_off,,,,,0,0,15,,,,,7,,,74,100
71268,note_off,,,,,0,0,15,,,,,7,,,69,100
71268,note_off,,,,,612,0,15,,,,,7,,,62,100
71268,note_off,,,,,0,0,13,,,,,6,,,74,100
71268,note_off,,,,,0,0,13,,,,,6,,,69,100
71268,note_off,,,,,612,0,13,,,,,6,,,62,100
71296,note_off,,,,,256,0,9,,,,,2,,,69,100
71332,note_off,,,,,100,0,11,,,,,4,,,53,100
71332,note_off,,,,,100,0,12,,,,,5,,,41,100
71332,note_off,,,,,100,0,14,,,,,6,,,53,100
71360,note_off,,,,,128,0,8,,,,,1,,,81,100
71360,note_off,,,,,128,0,10,,,,,3,,,65,100
71368,note_off,,,,,136,0,16,,,,,7,,,53,100
71424,note_on,,,,,92,0,14,,,,,6,,,53,100
71424,note_on,,,,,64,0,10,,,,,3,,,69,105
71424,note_on,,,,,156,0,15,,,,,7,,,74,100
71424,note_on,,,,,0,0,15,,,,,7,,,69,100
71424,note_on,,,,,0,0,13,,,,,6,,,62,100
71424,note_on,,,,,92,0,11,,,,,4,,,53,105
71424,note_on,,,,,0,0,13,,,,,6,,,69,100
71424,note_on,,,,,128,0,9,,,,,2,,,74,105
71424,note_on,,,,,92,0,12,,,,,5,,,41,105
71424,note_on,,,,,0,0,15,,,,,7,,,62,100
71424,note_on,,,,,64,0,8,,,,,1,,,77,105
71424,note_on,,,,,56,0,16,,,,,7,,,53,100
71424,note_on,,,,,156,0,13,,,,,6,,,74,100
71524,note_off,,,,,100,0,12,,,,,5,,,41,100
71524,note_off,,,,,100,0,14,,,,,6,,,53,100
71524,note_off,,,,,100,0,11,,,,,4,,,53,100
71560,note_off,,,,,136,0,16,,,,,7,,,53,100
71612,note_off,,,,,188,0,8,,,,,1,,,77,100
71616,note_on,,,,,92,0,11,,,,,4,,,41,105
71616,note_on,,,,,56,0,16,,,,,7,,,41,100
71616,note_on,,,,,4,0,8,,,,,1,,,75,105
71616,note_on,,,,,92,0,12,,,,,5,,,41,105
71616,note_on,,,,,92,0,14,,,,,6,,,41,100
71680,note_off,,,,,256,0,9,,,,,2,,,74,100
71680,note_off,,,,,256,0,10,,,,,3,,,69,100
71716,note_off,,,,,100,0,14,,,,,6,,,41,100
71716,note_off,,,,,100,0,12,,,,,5,,,41,100
71716,note_off,,,,,100,0,11,,,,,4,,,41,100
71752,note_off,,,,,136,0,16,,,,,7,,,41,100
71804,note_off,,,,,188,0,8,,,,,1,,,75,100
71808,note_on,,,,,92,0,11,,,,,4,,,41,105
71808,note_on,,,,,128,0,10,,,,,3,,,65,105
71808,note_on,,,,,92,0,14,,,,,6,,,41,100
71808,note_on,,,,,128,0,9,,,,,2,,,77,105
71808,note_on,,,,,56,0,16,,,,,7,,,41,100
71808,note_on,,,,,4,0,8,,,,,1,,,74,105
71808,note_on,,,,,92,0,12,,,,,5,,,41,105
71908,note_off,,,,,100,0,12,,,,,5,,,41,100
71908,note_off,,,,,100,0,11,,,,,4,,,41,100
71908,note_off,,,,,100,0,14,,,,,6,,,41,100
71936,note_off,,,,,128,0,8,,,,,1,,,74,100
71944,note_off,,,,,136,0,16,,,,,7,,,41,100
72000,note_on,,,,,56,0,16,,,,,7,,,53,100
72000,note_on,,,,,92,0,12,,,,,5,,,41,105
72000,note_on,,,,,64,0,8,,,,,1,,,72,105
72000,note_on,,,,,92,0,11,,,,,4,,,53,105
72000,note_on,,,,,92,0,14,,,,,6,,,53,100
72036,note_off,,,,,0,0,15,,,,,7,,,62,100
72036,note_off,,,,,0,0,15,,,,,7,,,69,100
72036,note_off,,,,,612,0,15,,,,,7,,,74,100
72036,note_off,,,,,0,0,13,,,,,6,,,62,100
72036,note_off,,,,,0,0,13,,,,,6,,,69,100
72036,note_off,,,,,612,0,13,,,,,6,,,74,100
72064,note_off,,,,,256,0,9,,,,,2,,,77,100
72064,note_off,,,,,256,0,10,,,,,3,,,65,100
72100,note_off,,,,,100,0,11,,,,,4,,,53,100
72100,note_off,,,,,100,0,14,,,,,6,,,53,100
72100,note_off,,,,,100,0,12,,,,,5,,,41,100
72128,note_off,,,,,128,0,8,,,,,1,,,72,100
72136,note_off,,,,,136,0,16,,,,,7,,,53,100
72192,note_on,,,,,56,0,16,,,,,7,,,55,100
72192,note_on,,,,,92,0,14,,,,,6,,,55,100
72192,note_on,,,,,0,0,15,,,,,7,,,62,100
72192,note_on,,,,,0,0,13,,,,,6,,,70,100
72192,note_on,,,,,0,0,13,,,,,6,,,62,100
72192,note_on,,,,,156,0,15,,,,,7,,,74,100
72192,note_on,,,,,0,0,15,,,,,7,,,70,100
72192,note_on,,,,,92,0,12,,,,,5,,,43,105
72192,note_on,,,,,156,0,13,,,,,6,,,74,100
72192,note_on,,,,,128,0,10,,,,,3,,,62,105
72192,note_on,,,,,64,0,8,,,,,1,,,70,105
72192,note_on,,,,,92,0,11,,,,,4,,,55,105
72292,note_off,,,,,100,0,14,,,,,6,,,55,100
72292,note_off,,,,,100,0,11,,,,,4,,,55,100
72292,note_off,,,,,100,0,12,,,,,5,,,43,100
72328,note_off,,,,,136,0,16,,,,,7,,,55,100
72384,note_on,,,,,56,0,16,,,,,7,,,43,100
72384,note_on,,,,,92,0,11,,,,,4,,,43,105
72384,note_on,,,,,92,0,12,,,,,5,,,31,105
72384,note_on,,,,,92,0,14,,,,,6,,,43,100
72384,note_on,,,,,320,0,9,,,,,2,,,67,105
72448,note_off,,,,,256,0,8,,,,,1,,,70,100
72484,note_off,,,,,100,0,12,,,,,5,,,31,100
72484,note_off,,,,,100,0,11,,,,,4,,,43,100
72484,note_off,,,,,100,0,14,,,,,6,,,43,100
72512,note_off,,,,,128,0,9,,,,,2,,,67,100
72520,note_off,,,,,136,0,16,,,,,7,,,43,100
72576,note_on,,,,,56,0,16,,,,,7,,,43,100
72576,note_on,,,,,92,0,11,,,,,4,,,43,106
72576,note_on,,,,,92,0,14,,,,,6,,,43,100
72576,note_on,,,,,92,0,12,,,,,5,,,31,106
72576,note_on,,,,,64,0,9,,,,,2,,,70,106
72576,note_on,,,,,128,0,8,,,,,1,,,74,106
72676,note_off,,,,,100,0,11,,,,,4,,,43,100
72676,note_off,,,,,100,0,12,,,,,5,,,31,100
72676,note_off,,,,,100,0,14,,,,,6,,,43,100
72704,note_off,,,,,128,0,9,,,,,2,,,70,100
72712,note_off,,,,,136,0,16,,,,,7,,,43,100
72768,note_on,,,,,56,0,16,,,,,7,,,55,100
72768,note_on,,,,,92,0,11,,,,,4,,,55,107
72768,note_on,,,,,64,0,9,,,,,2,,,74,107
72768,note_on,,,,,92,0,12,,,,,5,,,43,107
72768,note_on,,,,,92,0,14,,,,,6,,,55,100
72804,note_off,,,,,0,0,13,,,,,6,,,62,100
72804,note_off,,,,,0,0,13,,,,,6,,,70,100
72804,note_off,,,,,612,0,15,,,,,7,,,74,100
72804,note_off,,,,,0,0,15,,,,,7,,,70,100
72804,note_off,,,,,0,0,15,,,,,7,,,62,100
72804,note_off,,,,,612,0,13,,,,,6,,,74,100
72832,note_off,,,,,256,0,8,,,,,1,,,74,100
72868,note_off,,,,,100,0,14,,,,,6,,,55,100
72868,note_off,,,,,100,0,12,,,,,5,,,43,100
72868,note_off,,,,,100,0,11,,,,,4,,,55,100
72896,note_off,,,,,128,0,9,,,,,2,,,74,100
72904,note_off,,,,,136,0,16,,,,,7,,,55,100
72960,note_on,,,,,92,0,11,,,,,4,,,55,107
72960,note_on,,,,,92,0,12,,,,,5,,,43,107
72960,note_on,,,,,128,0,8,,,,,1,,,79,107
72960,note_on,,,,,156,0,13,,,,,6,,,74,100
72960,note_on,,,,,64,0,9,,,,,2,,,70,107
72960,note_on,,,,,0,0,13,,,,,6,,,67,100
72960,note_on,,,,,0,0,13,,,,,6,,,70,100
72960,note_on,,,,,0,0,15,,,,,7,,,70,100
72960,note_on,,,,,92,0,14,,,,,6,,,55,100
72960,note_on,,,,,56,0,16,,,,,7,,,55,100
72960,note_on,,,,,0,0,15,,,,,7,,,67,100
72960,note_on,,,,,156,0,15,,,,,7,,,74,100
73060,note_off,,,,,100,0,11,,,,,4,,,55,100
73060,note_off,,,,,100,0,14,,,,,6,,,55,100
73060,note_off,,,,,100,0,12,,,,,5,,,43,100
73096,note_off,,,,,136,0,16,,,,,7,,,55,100
73148,note_off,,,,,188,0,9,,,,,2,,,70,100
73152,note_on,,,,,92,0,14,,,,,6,,,43,100
73152,note_on,,,,,56,0,16,,,,,7,,,43,100
73152,note_on,,,,,4,0,9,,,,,2,,,69,108
73152,note_on,,,,,92,0,12,,,,,5,,,31,108
73152,note_on,,,,,92,0,11,,,,,4,,,43,108
73216,note_off,,,,,256,0,8,,,,,1,,,79,100
73252,note_off,,,,,100,0,14,,,,,6,,,43,100
73252,note_off,,,,,100,0,12,,,,,5,,,31,100
73252,note_off,,,,,100,0,11,,,,,4,,,43,100
73288,note_off,,,,,136,0,16,,,,,7,,,43,100
73340,note_off,,,,,188,0,9,,,,,2,,,69,100
73344,note_on,,,,,92,0,11,,,,,4,,,43,109
73344,note_on,,,,,92,0,14,,,,,6,,,43,100
73344,note_on,,,,,56,0,16,,,,,7,,,43,100
73344,note_on,,,,,128,0,8,,,,,1,,,82,109
73344,note_on,,,,,92,0,12,,,,,5,,,31,109
73344,note_on,,,,,4,0,9,,,,,2,,,67,109
73444,note_off,,,,,100,0,14,,,,,6,,,43,100
73444,note_off,,,,,100,0,11,,,,,4,,,43,100
73444,note_off,,,,,100,0,12,,,,,5,,,31,100
73472,note_off,,,,,1280,0,10,,,,,3,,,62,100
73472,note_off,,,,,128,0,9,,,,,2,,,67,100
73480,note_off,,,,,136,0,16,,,,,7,,,43,100
73536,note_on,,,,,64,0,9,,,,,2,,,65,109
73536,note_on,,,,,56,0,16,,,,,7,,,55,100
73536,note_on,,,,,92,0,11,,,,,4,,,55,109
73536,note_on,,,,,92,0,12,,,,,5,,,43,109
73536,note_on,,,,,92,0,14,,,,,6,,,55,100
73572,note_off,,,,,0,0,15,,,,,7,,,67,100
73572,note_off,,,,,612,0,15,,,,,7,,,74,100
73572,note_off,,,,,0,0,15,,,,,7,,,70,100
73572,note_off,,,,,0,0,13,,,,,6,,,67,100
73572,note_off,,,,,0,0,13,,,,,6,,,70,100
73572,note_off,,,,,612,0,13,,,,,6,,,74,100
73600,note_off,,,,,256,0,8,,,,,1,,,82,100
73636,note_off,,,,,100,0,14,,,,,6,,,55,100
73636,note_off,,,,,100,0,12,,,,,5,,,43,100
73636,note_off,,,,,100,0,11,,,,,4,,,55,100
73664,note_off,,,,,128,0,9,,,,,2,,,65,100
73672,note_off,,,,,136,0,16,,,,,7,,,55,100
73728,note_on,,,,,0,0,15,,,,,7,,,70,100
73728,note_on,,,,,156,0,15,,,,,7,,,75,100
73728,note_on,,,,,92,0,11,,,,,4,,,55,110
73728,note_on,,,,,92,0,14,,,,,6,,,55,100
73728,note_on,,,,,92,0,12,,,,,5,,,43,110
73728,note_on,,,,,0,0,15,,,,,7,,,63,100
73728,note_on,,,,,56,0,16,,,,,7,,,55,100
73728,note_on,,,,,0,0,13,,,,,6,,,70,100
73728,note_on,,,,,156,0,13,,,,,6,,,75,100
73728,note_on,,,,,64,0,9,,,,,2,,,63,110
73728,note_on,,,,,0,0,13,,,,,6,,,63,100
73828,note_off,,,,,100,0,11,,,,,4,,,55,100
73828,note_off,,,,,100,0,14,,,,,6,,,55,100
73828,note_off,,,,,100,0,12,,,,,5,,,43,100
73864,note_off,,,,,136,0,16,,,,,7,,,55,100
73920,note_on,,,,,92,0,12,,,,,5,,,31,110
73920,note_on,,,,,56,0,16,,,,,7,,,43,100
73920,note_on,,,,,92,0,11,,,,,4,,,43,110
73920,note_on,,,,,320,0,8,,,,,1,,,75,110
73920,note_on,,,,,92,0,14,,,,,6,,,43,100
73920,note_on,,,,,448,0,10,,,,,3,,,58,110
73984,note_off,,,,,256,0,9,,,,,2,,,63,100
74020,note_off,,,,,100,0,11,,,,,4,,,43,100
74020,note_off,,,,,100,0,14,,,,,6,,,43,100
74020,note_off,,,,,100,0,12,,,,,5,,,31,100
74048,note_off,,,,,128,0,10,,,,,3,,,58,100
74048,note_off,,,,,128,0,8,,,,,1,,,75,100
74056,note_off,,,,,136,0,16,,,,,7,,,43,100
74112,note_on,,,,,92,0,12,,,,,5,,,31,109
74112,note_on,,,,,128,0,9,,,,,2,,,70,109
74112,note_on,,,,,56,0,16,,,,,7,,,43,100
74112,note_on,,,,,64,0,8,,,,,1,,,79,109
74112,note_on,,,,,92,0,11,,,,,4,,,43,109
74112,note_on,,,,,64,0,10,,,,,3,,,63,109
74112,note_on,,,,,92,0,14,,,,,6,,,43,100
74212,note_off,,,,,100,0,14,,,,,6,,,43,100
74212,note_off,,,,,100,0,12,,,,,5,,,31,100
74212,note_off,,,,,100,0,11,,,,,4,,,43,100
74240,note_off,,,,,128,0,10,,,,,3,,,63,100
74240,note_off,,,,,128,0,8,,,,,1,,,79,100
74248,note_off,,,,,136,0,16,,,,,7,,,43,100
74304,note_on,,,,,92,0,14,,,,,6,,,55,100
74304,note_on,,,,,64,0,10,,,,,3,,,67,109
74304,note_on,,,,,56,0,16,,,,,7,,,55,100
74304,note_on,,,,,92,0,11,,,,,4,,,55,109
74304,note_on,,,,,64,0,8,,,,,1,,,82,109
74304,note_on,,,,,92,0,12,,,,,5,,,43,109
74340,note_off,,,,,0,0,13,,,,,6,,,70,100
74340,note_off,,,,,612,0,13,,,,,6,,,75,100
74340,note_off,,,,,0,0,13,,,,,6,,,63,100
74340,note_off,,,,,612,0,15,,,,,7,,,75,100
74340,note_off,,,,,0,0,15,,,,,7,,,70,100
74340,note_off,,,,,0,0,15,,,,,7,,,63,100
74368,note_off,,,,,256,0,9,,,,,2,,,70,100
74404,note_off,,,,,100,0,12,,,,,5,,,43,100
74404,note_off,,,,,100,0,11,,,,,4,,,55,100
74404,note_off,,,,,100,0,14,,,,,6,,,55,100
74432,note_off,,,,,128,0,8,,,,,1,,,82,100
74432,note_off,,,,,128,0,10,,,,,3,,,67,100
74440,note_off,,,,,136,0,16,,,,,7,,,55,100
74496,note_on,,,,,64,0,8,,,,,1,,,79,108
74496,note_on,,,,,64,0,10,,,,,3,,,70,108
74496,note_on,,,,,128,0,9,,,,,2,,,75,108
74496,note_on,,,,,92,0,11,,,,,4,,,51,108
74496,note_on,,,,,92,0,14,,,,,6,,,51,100
74496,note_on,,,,,0,0,13,,,,,6,,,70,100
74496,note_on,,,,,0,0,13,,,,,6,,,67,100
74496,note_on,,,,,0,0,15,,,,,7,,,70,100
74496,note_on,,,,,56,0,16,,,,,7,,,51,100
74496,note_on,,,,,156,0,13,,,,,6,,,75,100
74496,note_on,,,,,0,0,15,,,,,7,,,67,100
74496,note_on,,,,,92,0,12,,,,,5,,,39,108
74496,note_on,,,,,156,0,15,,,,,7,,,75,100
74596,note_off,,,,,100,0,12,,,,,5,,,39,100
74596,note_off,,,,,100,0,11,,,,,4,,,51,100
74596,note_off,,,,,100,0,14,,,,,6,,,51,100
74632,note_off,,,,,136,0,16,,,,,7,,,51,100
74684,note_off,,,,,188,0,8,,,,,1,,,79,100
74688,note_on,,,,,92,0,12,,,,,5,,,39,107
74688,note_on,,,,,56,0,16,,,,,7,,,39,100
74688,note_on,,,,,4,0,8,,,,,1,,,77,107
74688,note_on,,,,,92,0,11,,,,,4,,,39,107
74688,note_on,,,,,92,0,14,,,,,6,,,39,100
74752,note_off,,,,,256,0,10,,,,,3,,,70,100
74752,note_off,,,,,256,0,9,,,,,2,,,75,100
74788,note_off,,,,,100,0,14,,,,,6,,,39,100
74788,note_off,,,,,100,0,12,,,,,5,,,39,100
74788,note_off,,,,,100,0,11,,,,,4,,,39,100
74824,note_off,,,,,136,0,16,,,,,7,,,39,100
74876,note_off,,,,,188,0,8,,,,,1,,,77,100
74880,note_on,,,,,92,0,12,,,,,5,,,39,107
74880,note_on,,,,,92,0,11,,,,,4,,,39,107
74880,note_on,,,,,128,0,10,,,,,3,,,70,107
74880,note_on,,,,,128,0,9,,,,,2,,,79,107
74880,note_on,,,,,4,0,8,,,,,1,,,75,107
74880,note_on,,,,,92,0,14,,,,,6,,,39,100
74880,note_on,,,,,56,0,16,,,,,7,,,39,100
74980,note_off,,,,,100,0,12,,,,,5,,,39,100
74980,note_off,,,,,100,0,11,,,,,4,,,39,100
74980,note_off,,,,,100,0,14,,,,,6,,,39,100
75008,note_off,,,,,128,0,8,,,,,1,,,75,100
75016,note_off,,,,,136,0,16,,,,,7,,,39,100
75072,note_on,,,,,56,0,16,,,,,7,,,51,100
75072,note_on,,,,,92,0,14,,,,,6,,,51,100
75072,note_on,,,,,92,0,11,,,,,4,,,51,106
75072,note_on,,,,,92,0,12,,,,,5,,,39,106
75072,note_on,,,,,64,0,8,,,,,1,,,74,106
75108,note_off,,,,,0,0,13,,,,,6,,,67,100
75108,note_off,,,,,612,0,13,,,,,6,,,75,100
75108,note_off,,,,,0,0,13,,,,,6,,,70,100
75108,note_off,,,,,0,0,15,,,,,7,,,67,100
75108,note_off,,,,,0,0,15,,,,,7,,,70,100
75108,note_off,,,,,612,0,15,,,,,7,,,75,100
75136,note_off,,,,,256,0,9,,,,,2,,,79,100
75136,note_off,,,,,256,0,10,,,,,3,,,70,100
75172,note_off,,,,,100,0,12,,,,,5,,,39,100
75172,note_off,,,,,100,0,14,,,,,6,,,51,100
75172,note_off,,,,,100,0,11,,,,,4,,,51,100
75200,note_off,,,,,128,0,8,,,,,1,,,74,100
75208,note_off,,,,,136,0,16,,,,,7,,,51,100
75264,note_on,,,,,64,0,8,,,,,1,,,72,106
75264,note_on,,,,,92,0,12,,,,,5,,,41,106
75264,note_on,,,,,156,0,13,,,,,6,,,65,100
75264,note_on,,,,,92,0,11,,,,,4,,,53,106
75264,note_on,,,,,0,0,13,,,,,6,,,72,100
75264,note_on,,,,,56,0,16,,,,,7,,,53,100
75264,note_on,,,,,156,0,15,,,,,7,,,72,100
75264,note_on,,,,,128,0,10,,,,,3,,,69,106
75264,note_on,,,,,0,0,15,,,,,7,,,75,100
75264,note_on,,,,,0,0,15,,,,,7,,,65,100
75264,note_on,,,,,128,0,9,,,,,2,,,75,106
75264,note_on,,,,,0,0,13,,,,,6,,,75,100
75264,note_on,,,,,92,0,14,,,,,6,,,53,100
75364,note_off,,,,,100,0,14,,,,,6,,,53,100
75364,note_off,,,,,100,0,12,,,,,5,,,41,100
75364,note_off,,,,,100,0,11,,,,,4,,,53,100
75364,note_off,,,,,100,0,10,,,,,3,,,69,100
75364,note_off,,,,,100,0,8,,,,,1,,,72,100
75400,note_off,,,,,136,0,16,,,,,7,,,53,100
75456,note_on,,,,,92,0,10,,,,,3,,,69,100
75456,note_on,,,,,92,0,11,,,,,4,,,41,100
75456,note_on,,,,,56,0,16,,,,,7,,,41,100
75456,note_on,,,,,92,0,8,,,,,1,,,65,100
75456,note_on,,,,,92,0,12,,,,,5,,,41,100
75456,note_on,,,,,92,0,14,,,,,6,,,41,100
75520,note_off,,,,,0,0,15,,,,,7,,,75,100
75520,note_off,,,,,256,0,15,,,,,7,,,72,100
75520,note_off,,,,,256,0,9,,,,,2,,,75,100
75520,note_off,,,,,0,0,13,,,,,6,,,72,100
75520,note_off,,,,,256,0,13,,,,,6,,,75,100
75556,note_off,,,,,100,0,12,,,,,5,,,41,100
75556,note_off,,,,,100,0,10,,,,,3,,,69,100
75556,note_off,,,,,100,0,14,,,,,6,,,41,100
75556,note_off,,,,,100,0,8,,,,,1,,,65,100
75556,note_off,,,,,100,0,11,,,,,4,,,41,100
75592,note_off,,,,,136,0,16,,,,,7,,,41,100
75648,note_on,,,,,92,0,8,,,,,1,,,74,100
75648,note_on,,,,,128,0,15,,,,,7,,,70,100
75648,note_on,,,,,92,0,14,,,,,6,,,41,100
75648,note_on,,,,,128,0,13,,,,,6,,,70,100
75648,note_on,,,,,92,0,12,,,,,5,,,41,100
75648,note_on,,,,,92,0,11,,,,,4,,,41,100
75648,note_on,,,,,0,0,15,,,,,7,,,74,100
75648,note_on,,,,,0,0,13,,,,,6,,,74,100
75648,note_on,,,,,128,0,9,,,,,2,,,74,100
75648,note_on,,,,,56,0,16,,,,,7,,,41,100
75648,note_on,,,,,92,0,10,,,,,3,,,65,100
75748,note_off,,,,,100,0,10,,,,,3,,,65,100
75748,note_off,,,,,100,0,11,,,,,4,,,41,100
75748,note_off,,,,,100,0,12,,,,,5,,,41,100
75748,note_off,,,,,100,0,8,,,,,1,,,74,100
75748,note_off,,,,,100,0,14,,,,,6,,,41,100
75776,note_off,,,,,128,0,15,,,,,7,,,65,100
75776,note_off,,,,,128,0,13,,,,,6,,,65,100
75784,note_off,,,,,136,0,16,,,,,7,,,41,100
75840,note_on,,,,,92,0,12,,,,,5,,,41,100
75840,note_on,,,,,92,0,14,,,,,6,,,53,100
75840,note_on,,,,,56,0,16,,,,,7,,,53,100
75840,note_on,,,,,92,0,8,,,,,1,,,65,100
75840,note_on,,,,,92,0,11,,,,,4,,,53,100
75840,note_on,,,,,92,0,10,,,,,3,,,65,100
75904,note_off,,,,,0,0,15,,,,,7,,,74,100
75904,note_off,,,,,0,0,13,,,,,6,,,74,100
75904,note_off,,,,,128,0,15,,,,,7,,,70,100
75904,note_off,,,,,128,0,13,,,,,6,,,70,100
75904,note_off,,,,,256,0,9,,,,,2,,,74,100
75940,note_off,,,,,100,0,8,,,,,1,,,65,100
75940,note_off,,,,,100,0,10,,,,,3,,,65,100
75940,note_off,,,,,100,0,12,,,,,5,,,41,100
75940,note_off,,,,,100,0,11,,,,,4,,,53,100
75940,note_off,,,,,100,0,14,,,,,6,,,53,100
75976,note_off,,,,,136,0,16,,,,,7,,,53,100
76032,note_on,,,,,92,0,8,,,,,1,,,75,100
76032,note_on,,,,,92,0,10,,,,,3,,,69,100
76032,note_on,,,,,92,0,14,,,,,6,,,53,100
76032,note_on,,,,,128,0,9,,,,,2,,,72,100
76032,note_on,,,,,92,0,12,,,,,5,,,41,100
76032,note_on,,,,,0,0,13,,,,,6,,,72,100
76032,note_on,,,,,0,0,13,,,,,6,,,69,100
76032,note_on,,,,,128,0,13,,,,,6,,,65,100
76032,note_on,,,,,0,0,15,,,,,7,,,72,100
76032,note_on,,,,,0,0,15,,,,,7,,,69,100
76032,note_on,,,,,128,0,15,,,,,7,,,65,100
76032,note_on,,,,,92,0,11,,,,,4,,,53,100
76032,note_on,,,,,56,0,16,,,,,7,,,53,100
76132,note_off,,,,,100,0,14,,,,,6,,,53,100
76132,note_off,,,,,100,0,9,,,,,2,,,72,100
76132,note_off,,,,,100,0,10,,,,,3,,,69,100
76132,note_off,,,,,100,0,12,,,,,5,,,41,100
76132,note_off,,,,,100,0,11,,,,,4,,,53,100
76160,note_off,,,,,128,0,8,,,,,1,,,75,100
76168,note_off,,,,,136,0,16,,,,,7,,,53,100
76224,note_on,,,,,92,0,11,,,,,4,,,41,99
76224,note_on,,,,,92,0,9,,,,,2,,,65,99
76224,note_on,,,,,92,0,14,,,,,6,,,41,100
76224,note_on,,,,,92,0,10,,,,,3,,,69,99
76224,note_on,,,,,92,0,12,,,,,5,,,41,99
76224,note_on,,,,,64,0,8,,,,,1,,,74,99
76224,note_on,,,,,56,0,16,,,,,7,,,41,100
76288,note_off,,,,,256,0,13,,,,,6,,,69,100
76288,note_off,,,,,0,0,13,,,,,6,,,72,100
76288,note_off,,,,,0,0,15,,,,,7,,,72,100
76288,note_off,,,,,256,0,15,,,,,7,,,69,100
76288,note_off,,,,,64,0,8,,,,,1,,,74,100
76320,note_on,,,,,32,0,8,,,,,1,,,72,98
76324,note_off,,,,,100,0,14,,,,,6,,,41,100
76324,note_off,,,,,100,0,12,,,,,5,,,41,100
76324,note_off,,,,,100,0,10,,,,,3,,,69,100
76324,note_off,,,,,100,0,9,,,,,2,,,65,100
76324,note_off,,,,,100,0,11,,,,,4,,,41,100
76360,note_off,,,,,136,0,16,,,,,7,,,41,100
76384,note_off,,,,,64,0,8,,,,,1,,,72,100
76416,note_on,,,,,92,0,14,,,,,6,,,41,100
76416,note_on,,,,,92,0,9,,,,,2,,,74,98
76416,note_on,,,,,56,0,16,,,,,7,,,41,100
76416,note_on,,,,,0,0,15,,,,,7,,,74,100
76416,note_on,,,,,92,0,10,,,,,3,,,65,98
76416,note_on,,,,,32,0,8,,,,,1,,,74,98
76416,note_on,,,,,92,0,12,,,,,5,,,41,98
76416,note_on,,,,,128,0,13,,,,,6,,,70,100
76416,note_on,,,,,92,0,11,,,,,4,,,41,98
76416,note_on,,,,,128,0,15,,,,,7,,,70,100
76416,note_on,,,,,0,0,13,,,,,6,,,74,100
76516,note_off,,,,,100,0,10,,,,,3,,,65,100
76516,note_off,,,,,100,0,11,,,,,4,,,41,100
76516,note_off,,,,,100,0,9,,,,,2,,,74,100
76516,note_off,,,,,100,0,14,,,,,6,,,41,100
76516,note_off,,,,,100,0,12,,,,,5,,,41,100
76544,note_off,,,,,128,0,8,,,,,1,,,74,100
76544,note_off,,,,,128,0,15,,,,,7,,,65,100
76544,note_off,,,,,128,0,13,,,,,6,,,65,100
76552,note_off,,,,,136,0,16,,,,,7,,,41,100
76608,note_on,,,,,92,0,14,,,,,6,,,53,100
76608,note_on,,,,,64,0,8,,,,,1,,,72,96
76608,note_on,,,,,92,0,9,,,,,2,,,65,96
76608,note_on,,,,,56,0,16,,,,,7,,,53,100
76608,note_on,,,,,92,0,12,,,,,5,,,41,96
76608,note_on,,,,,92,0,10,,,,,3,,,65,96
76608,note_on,,,,,92,0,11,,,,,4,,,53,96
76672,note_off,,,,,128,0,15,,,,,7,,,70,100
76672,note_off,,,,,0,0,13,,,,,6,,,74,100
76672,note_off,,,,,64,0,8,,,,,1,,,72,100
76672,note_off,,,,,128,0,13,,,,,6,,,70,100
76672,note_off,,,,,0,0,15,,,,,7,,,74,100
76704,note_on,,,,,32,0,8,,,,,1,,,70,96
76708,note_off,,,,,100,0,10,,,,,3,,,65,100
76708,note_off,,,,,100,0,9,,,,,2,,,65,100
76708,note_off,,,,,100,0,11,,,,,4,,,53,100
76708,note_off,,,,,100,0,14,,,,,6,,,53,100
76708,note_off,,,,,100,0,12,,,,,5,,,41,100
76744,note_off,,,,,136,0,16,,,,,7,,,53,100
76768,note_off,,,,,64,0,8,,,,,1,,,70,100
76800,note_on,,,,,92,0,14,,,,,6,,,53,100
76800,note_on,,,,,32,0,8,,,,,1,,,72,100
76800,note_on,,,,,92,0,10,,,,,3,,,69,100
76800,note_on,,,,,0,0,15,,,,,7,,,72,100
76800,note_on,,,,,0,0,15,,,,,7,,,75,100
76800,note_on,,,,,92,0,9,,,,,2,,,75,100
76800,note_on,,,,,92,0,12,,,,,5,,,41,100
76800,note_on,,,,,128,0,15,,,,,7,,,65,100
76800,note_on,,,,,92,0,11,,,,,4,,,53,100
76800,note_on,,,,,56,0,16,,,,,7,,,53,100
76800,note_on,,,,,128,0,13,,,,,6,,,65,100
76800,note_on,,,,,0,0,13,,,,,6,,,75,100
76800,note_on,,,,,0,0,13,,,,,6,,,72,100
76900,note_off,,,,,100,0,12,,,,,5,,,41,100
76900,note_off,,,,,100,0,10,,,,,3,,,69,100
76900,note_off,,,,,100,0,14,,,,,6,,,53,100
76900,note_off,,,,,100,0,11,,,,,4,,,53,100
76928,note_off,,,,,128,0,8,,,,,1,,,72,100
76928,note_off,,,,,128,0,9,,,,,2,,,75,100
76936,note_off,,,,,136,0,16,,,,,7,,,53,100
76992,note_on,,,,,92,0,12,,,,,5,,,41,99
76992,note_on,,,,,92,0,11,,,,,4,,,41,99
76992,note_on,,,,,56,0,16,,,,,7,,,41,100
76992,note_on,,,,,92,0,10,,,,,3,,,69,99
76992,note_on,,,,,92,0,14,,,,,6,,,41,100
76992,note_on,,,,,64,0,8,,,,,1,,,70,99
76992,note_on,,,,,64,0,9,,,,,2,,,74,99
77056,note_off,,,,,0,0,15,,,,,7,,,72,100
77056,note_off,,,,,256,0,13,,,,,6,,,75,100
77056,note_off,,,,,256,0,15,,,,,7,,,75,100
77056,note_off,,,,,0,0,13,,,,,6,,,72,100
77056,note_off,,,,,64,0,9,,,,,2,,,74,100
77056,note_off,,,,,64,0,8,,,,,1,,,70,100
77088,note_on,,,,,32,0,9,,,,,2,,,72,98
77088,note_on,,,,,32,0,8,,,,,1,,,69,98
77092,note_off,,,,,100,0,11,,,,,4,,,41,100
77092,note_off,,,,,100,0,10,,,,,3,,,69,100
77092,note_off,,,,,100,0,12,,,,,5,,,41,100
77092,note_off,,,,,100,0,14,,,,,6,,,41,100
77128,note_off,,,,,136,0,16,,,,,7,,,41,100
77152,note_off,,,,,64,0,9,,,,,2,,,72,100
77152,note_off,,,,,64,0,8,,,,,1,,,69,100
77184,note_on,,,,,92,0,12,,,,,5,,,41,98
77184,note_on,,,,,92,0,14,,,,,6,,,41,100
77184,note_on,,,,,92,0,10,,,,,3,,,65,98
77184,note_on,,,,,0,0,13,,,,,6,,,74,100
77184,note_on,,,,,0,0,15,,,,,7,,,74,100
77184,note_on,,,,,92,0,11,,,,,4,,,41,98
77184,note_on,,,,,128,0,15,,,,,7,,,70,100
77184,note_on,,,,,56,0,16,,,,,7,,,41,100
77184,note_on,,,,,128,0,13,,,,,6,,,70,100
77184,note_on,,,,,32,0,8,,,,,1,,,70,98
77184,note_on,,,,,32,0,9,,,,,2,,,74,98
77284,note_off,,,,,100,0,10,,,,,3,,,65,100
77284,note_off,,,,,100,0,14,,,,,6,,,41,100
77284,note_off,,,,,100,0,12,,,,,5,,,41,100
77284,note_off,,,,,100,0,11,,,,,4,,,41,100
77312,note_off,,,,,128,0,8,,,,,1,,,70,100
77312,note_off,,,,,128,0,13,,,,,6,,,65,100
77312,note_off,,,,,128,0,9,,,,,2,,,74,100
77312,note_off,,,,,128,0,15,,,,,7,,,65,100
77320,note_off,,,,,136,0,16,,,,,7,,,41,100
77376,note_on,,,,,92,0,14,,,,,6,,,53,100
77376,note_on,,,,,64,0,8,,,,,1,,,69,96
77376,note_on,,,,,92,0,11,,,,,4,,,53,96
77376,note_on,,,,,92,0,10,,,,,3,,,65,96
77376,note_on,,,,,56,0,16,,,,,7,,,53,100
77376,note_on,,,,,64,0,9,,,,,2,,,72,96
77376,note_on,,,,,92,0,12,,,,,5,,,41,96
77440,note_off,,,,,0,0,15,,,,,7,,,74,100
77440,note_off,,,,,64,0,8,,,,,1,,,69,100
77440,note_off,,,,,128,0,15,,,,,7,,,70,100
77440,note_off,,,,,64,0,9,,,,,2,,,72,100
77440,note_off,,,,,0,0,13,,,,,6,,,74,100
77440,note_off,,,,,128,0,13,,,,,6,,,70,100
77472,note_on,,,,,32,0,9,,,,,2,,,70,96
77472,note_on,,,,,32,0,8,,,,,1,,,67,96
77476,note_off,,,,,100,0,12,,,,,5,,,41,100
77476,note_off,,,,,100,0,11,,,,,4,,,53,100
77476,note_off,,,,,100,0,14,,,,,6,,,53,100
77476,note_off,,,,,100,0,10,,,,,3,,,65,100
77512,note_off,,,,,136,0,16,,,,,7,,,53,100
77536,note_off,,,,,64,0,9,,,,,2,,,70,100
77536,note_off,,,,,64,0,8,,,,,1,,,67,100
77568,note_on,,,,,92,0,12,,,,,5,,,41,95
77568,note_on,,,,,92,0,14,,,,,6,,,53,100
77568,note_on,,,,,56,0,16,,,,,7,,,53,100
77568,note_on,,,,,32,0,9,,,,,2,,,72,95
77568,note_on,,,,,128,0,15,,,,,7,,,65,100
77568,note_on,,,,,32,0,8,,,,,1,,,69,95
77568,note_on,,,,,128,0,13,,,,,6,,,65,100
77568,note_on,,,,,0,0,13,,,,,6,,,69,100
77568,note_on,,,,,0,0,13,,,,,6,,,72,100
77568,note_on,,,,,0,0,15,,,,,7,,,72,100
77568,note_on,,,,,92,0,10,,,,,3,,,65,95
77568,note_on,,,,,0,0,15,,,,,7,,,69,100
77568,note_on,,,,,92,0,11,,,,,4,,,53,95
77668,note_off,,,,,100,0,11,,,,,4,,,53,100
77668,note_off,,,,,100,0,14,,,,,6,,,53,100
77668,note_off,,,,,100,0,12,,,,,5,,,41,100
77668,note_off,,,,,100,0,10,,,,,3,,,65,100
77668,note_off,,,,,100,0,9,,,,,2,,,72,100
77696,note_off,,,,,128,0,8,,,,,1,,,69,100
77704,note_off,,,,,136,0,16,,,,,7,,,53,100
77760,note_on,,,,,92,0,11,,,,,4,,,41,96
77760,note_on,,,,,92,0,10,,,,,3,,,60,96
77760,note_on,,,,,64,0,8,,,,,1,,,65,96
77760,note_on,,,,,92,0,12,,,,,5,,,41,96
77760,note_on,,,,,92,0,14,,,,,6,,,41,100
77760,note_on,,,,,56,0,16,,,,,7,,,41,100
77760,note_on,,,,,92,0,9,,,,,2,,,69,96
77824,note_off,,,,,0,0,13,,,,,6,,,72,100
77824,note_off,,,,,256,0,13,,,,,6,,,69,100
77824,note_off,,,,,256,0,15,,,,,7,,,69,100
77824,note_off,,,,,0,0,15,,,,,7,,,72,100
77860,note_off,,,,,100,0,12,,,,,5,,,41,100
77860,note_off,,,,,100,0,10,,,,,3,,,60,100
77860,note_off,,,,,100,0,8,,,,,1,,,65,100
77860,note_off,,,,,100,0,11,,,,,4,,,41,100
77860,note_off,,,,,100,0,9,,,,,2,,,69,100
77860,note_off,,,,,100,0,14,,,,,6,,,41,100
77896,note_off,,,,,136,0,16,,,,,7,,,41,100
77952,note_on,,,,,0,0,15,,,,,7,,,77,100
77952,note_on,,,,,92,0,8,,,,,1,,,69,97
77952,note_on,,,,,92,0,9,,,,,2,,,65,97
77952,note_on,,,,,92,0,11,,,,,4,,,41,97
77952,note_on,,,,,128,0,15,,,,,7,,,69,100
77952,note_on,,,,,0,0,13,,,,,6,,,74,100
77952,note_on,,,,,92,0,10,,,,,3,,,65,97
77952,note_on,,,,,92,0,12,,,,,5,,,41,97
77952,note_on,,,,,128,0,13,,,,,6,,,70,100
77952,note_on,,,,,56,0,16,,,,,7,,,41,100
77952,note_on,,,,,92,0,14,,,,,6,,,41,100
78052,note_off,,,,,100,0,11,,,,,4,,,41,100
78052,note_off,,,,,100,0,14,,,,,6,,,41,100
78052,note_off,,,,,100,0,8,,,,,1,,,69,100
78052,note_off,,,,,100,0,10,,,,,3,,,65,100
78052,note_off,,,,,100,0,12,,,,,5,,,41,100
78080,note_off,,,,,128,0,13,,,,,6,,,65,100
78080,note_off,,,,,128,0,15,,,,,7,,,65,100
78088,note_off,,,,,136,0,16,,,,,7,,,41,100
78144,note_on,,,,,92,0,10,,,,,3,,,69,98
78144,note_on,,,,,92,0,11,,,,,4,,,53,98
78144,note_on,,,,,92,0,14,,,,,6,,,53,100
78144,note_on,,,,,56,0,16,,,,,7,,,53,100
78144,note_on,,,,,92,0,8,,,,,1,,,72,98
78144,note_on,,,,,92,0,12,,,,,5,,,41,98
78208,note_off,,,,,256,0,9,,,,,2,,,65,100
78208,note_off,,,,,0,0,13,,,,,6,,,74,100
78208,note_off,,,,,128,0,13,,,,,6,,,70,100
78244,note_off,,,,,100,0,10,,,,,3,,,69,100
78244,note_off,,,,,100,0,14,,,,,6,,,53,100
78244,note_off,,,,,100,0,11,,,,,4,,,53,100
78244,note_off,,,,,100,0,8,,,,,1,,,72,100
78244,note_off,,,,,100,0,12,,,,,5,,,41,100
78280,note_off,,,,,136,0,16,,,,,7,,,53,100
78332,note_off,,,,,252,0,15,,,,,7,,,77,100
78336,note_on,,,,,128,0,13,,,,,6,,,65,100
78336,note_on,,,,,0,0,13,,,,,6,,,75,100
78336,note_on,,,,,92,0,14,,,,,6,,,53,100
78336,note_on,,,,,0,0,13,,,,,6,,,72,100
78336,note_on,,,,,4,0,15,,,,,7,,,75,100
78336,note_on,,,,,56,0,16,,,,,7,,,53,100
78336,note_on,,,,,92,0,12,,,,,5,,,41,100
78336,note_on,,,,,92,0,11,,,,,4,,,53,100
78336,note_on,,,,,92,0,8,,,,,1,,,75,100
78336,note_on,,,,,92,0,10,,,,,3,,,60,100
78436,note_off,,,,,100,0,14,,,,,6,,,53,100
78436,note_off,,,,,100,0,10,,,,,3,,,60,100
78436,note_off,,,,,100,0,11,,,,,4,,,53,100
78436,note_off,,,,,100,0,12,,,,,5,,,41,100
78472,note_off,,,,,136,0,16,,,,,7,,,53,100
78528,note_on,,,,,92,0,11,,,,,4,,,41,99
78528,note_on,,,,,92,0,12,,,,,5,,,41,99
78528,note_on,,,,,56,0,16,,,,,7,,,41,100
78528,note_on,,,,,92,0,10,,,,,3,,,57,99
78528,note_off,,,,,192,0,8,,,,,1,,,75,100
78528,note_on,,,,,92,0,14,,,,,6,,,41,100
78528,note_on,,,,,320,0,9,,,,,2,,,65,99
78592,note_off,,,,,256,0,13,,,,,6,,,75,100
78592,note_off,,,,,0,0,13,,,,,6,,,72,100
78592,note_off,,,,,0,0,15,,,,,7,,,75,100
78592,note_off,,,,,256,0,15,,,,,7,,,69,100
78624,note_on,,,,,96,0,8,,,,,1,,,74,98
78628,note_off,,,,,100,0,12,,,,,5,,,41,100
78628,note_off,,,,,100,0,14,,,,,6,,,41,100
78628,note_off,,,,,100,0,9,,,,,2,,,65,100
78628,note_off,,,,,100,0,10,,,,,3,,,57,100
78628,note_off,,,,,100,0,11,,,,,4,,,41,100
78664,note_off,,,,,136,0,16,,,,,7,,,41,100
78688,note_off,,,,,64,0,8,,,,,1,,,74,100
78720,note_on,,,,,56,0,16,,,,,7,,,41,100
78720,note_on,,,,,32,0,8,,,,,1,,,72,98
78720,note_on,,,,,92,0,12,,,,,5,,,41,98
78720,note_on,,,,,92,0,14,,,,,6,,,41,100
78720,note_on,,,,,92,0,11,,,,,4,,,41,98
78720,note_on,,,,,128,0,13,,,,,6,,,70,100
78720,note_on,,,,,0,0,15,,,,,7,,,63,100
78720,note_on,,,,,0,0,13,,,,,6,,,74,100
78720,note_on,,,,,92,0,10,,,,,3,,,60,98
78720,note_on,,,,,128,0,15,,,,,7,,,72,100
78720,note_on,,,,,92,0,9,,,,,2,,,69,98
78784,note_off,,,,,64,0,8,,,,,1,,,72,100
78816,note_on,,,,,32,0,8,,,,,1,,,70,97
78820,note_off,,,,,100,0,10,,,,,3,,,60,100
78820,note_off,,,,,100,0,14,,,,,6,,,41,100
78820,note_off,,,,,100,0,11,,,,,4,,,41,100
78820,note_off,,,,,100,0,9,,,,,2,,,69,100
78820,note_off,,,,,100,0,12,,,,,5,,,41,100
78848,note_off,,,,,128,0,13,,,,,6,,,65,100
78856,note_off,,,,,136,0,16,,,,,7,,,41,100
78880,note_off,,,,,64,0,8,,,,,1,,,70,100
78912,note_on,,,,,92,0,10,,,,,3,,,65,96
78912,note_on,,,,,56,0,16,,,,,7,,,53,100
78912,note_on,,,,,32,0,8,,,,,1,,,69,96
78912,note_on,,,,,92,0,11,,,,,4,,,53,96
78912,note_on,,,,,92,0,14,,,,,6,,,53,100
78912,note_on,,,,,92,0,9,,,,,2,,,72,96
78912,note_on,,,,,92,0,12,,,,,5,,,41,96
78976,note_off,,,,,64,0,8,,,,,1,,,69,100
78976,note_off,,,,,128,0,13,,,,,6,,,70,100
78976,note_off,,,,,0,0,13,,,,,6,,,74,100
79008,note_on,,,,,32,0,8,,,,,1,,,67,96
79012,note_off,,,,,100,0,14,,,,,6,,,53,100
79012,note_off,,,,,100,0,12,,,,,5,,,41,100
79012,note_off,,,,,100,0,11,,,,,4,,,53,100
79012,note_off,,,,,100,0,9,,,,,2,,,72,100
79012,note_off,,,,,100,0,10,,,,,3,,,65,100
79048,note_off,,,,,136,0,16,,,,,7,,,53,100
79072,note_off,,,,,64,0,8,,,,,1,,,67,100
79100,note_off,,,,,380,0,15,,,,,7,,,72,100
79104,note_on,,,,,128,0,13,,,,,6,,,62,100
79104,note_on,,,,,0,0,13,,,,,6,,,69,100
79104,note_on,,,,,92,0,11,,,,,4,,,53,100
79104,note_on,,,,,4,0,15,,,,,7,,,69,100
79104,note_on,,,,,56,0,16,,,,,7,,,53,100
79104,note_on,,,,,92,0,10,,,,,3,,,60,100
79104,note_on,,,,,92,0,14,,,,,6,,,53,100
79104,note_on,,,,,92,0,12,,,,,5,,,41,100
79104,note_on,,,,,32,0,8,,,,,1,,,69,100
79104,note_on,,,,,92,0,9,,,,,2,,,75,100
79196,note_off,,,,,92,0,13,,,,,6,,,62,100
79196,note_off,,,,,0,0,13,,,,,6,,,69,100
79200,note_on,,,,,4,0,13,,,,,6,,,65,100
79204,note_off,,,,,100,0,12,,,,,5,,,41,100
79204,note_off,,,,,100,0,8,,,,,1,,,69,100
79204,note_off,,,,,100,0,11,,,,,4,,,53,100
79204,note_off,,,,,100,0,14,,,,,6,,,53,100
79204,note_off,,,,,100,0,10,,,,,3,,,60,100
79240,note_off,,,,,136,0,16,,,,,7,,,53,100
79292,note_off,,,,,92,0,13,,,,,6,,,65,100
79296,note_on,,,,,92,0,10,,,,,3,,,57,99
79296,note_on,,,,,92,0,14,,,,,6,,,41,100
79296,note_on,,,,,92,0,11,,,,,4,,,41,99
79296,note_on,,,,,92,0,8,,,,,1,,,65,99
79296,note_on,,,,,56,0,16,,,,,7,,,41,100
79296,note_on,,,,,92,0,12,,,,,5,,,41,99
79296,note_on,,,,,4,0,13,,,,,6,,,69,100
79296,note_off,,,,,192,0,9,,,,,2,,,75,100
79360,note_off,,,,,256,0,15,,,,,7,,,63,100
79360,note_off,,,,,0,0,15,,,,,7,,,69,100
79388,note_off,,,,,92,0,13,,,,,6,,,69,100
79392,note_on,,,,,96,0,9,,,,,2,,,74,98
79392,note_on,,,,,4,0,13,,,,,6,,,72,100
79396,note_off,,,,,100,0,8,,,,,1,,,65,100
79396,note_off,,,,,100,0,14,,,,,6,,,41,100
79396,note_off,,,,,100,0,11,,,,,4,,,41,100
79396,note_off,,,,,100,0,10,,,,,3,,,57,100
79396,note_off,,,,,100,0,12,,,,,5,,,41,100
79432,note_off,,,,,136,0,16,,,,,7,,,41,100
79456,note_off,,,,,64,0,9,,,,,2,,,74,100
79484,note_off,,,,,92,0,13,,,,,6,,,72,100
79488,note_on,,,,,92,0,11,,,,,4,,,41,98
79488,note_on,,,,,56,0,16,,,,,7,,,41,100
79488,note_on,,,,,128,0,15,,,,,7,,,77,100
79488,note_on,,,,,32,0,9,,,,,2,,,72,98
79488,note_on,,,,,92,0,8,,,,,1,,,69,98
79488,note_on,,,,,92,0,10,,,,,3,,,60,98
79488,note_on,,,,,92,0,12,,,,,5,,,41,98
79488,note_on,,,,,4,0,13,,,,,6,,,75,100
79488,note_on,,,,,0,0,15,,,,,7,,,69,100
79488,note_on,,,,,92,0,14,,,,,6,,,41,100
79552,note_off,,,,,64,0,9,,,,,2,,,72,100
79580,note_off,,,,,92,0,13,,,,,6,,,75,100
79584,note_on,,,,,32,0,9,,,,,2,,,70,97
79584,note_on,,,,,4,0,13,,,,,6,,,74,100
79588,note_off,,,,,100,0,8,,,,,1,,,69,100
79588,note_off,,,,,100,0,14,,,,,6,,,41,100
79588,note_off,,,,,100,0,10,,,,,3,,,60,100
79588,note_off,,,,,100,0,11,,,,,4,,,41,100
79588,note_off,,,,,100,0,12,,,,,5,,,41,100
79624,note_off,,,,,136,0,16,,,,,7,,,41,100
79648,note_off,,,,,64,0,9,,,,,2,,,70,100
79676,note_off,,,,,92,0,13,,,,,6,,,74,100
79680,note_on,,,,,92,0,8,,,,,1,,,72,96
79680,note_on,,,,,92,0,10,,,,,3,,,65,96
79680,note_on,,,,,92,0,11,,,,,4,,,53,96
79680,note_on,,,,,92,0,14,,,,,6,,,53,100
79680,note_on,,,,,4,0,13,,,,,6,,,72,100
79680,note_on,,,,,56,0,16,,,,,7,,,53,100
79680,note_on,,,,,32,0,9,,,,,2,,,69,96
79680,note_on,,,,,92,0,12,,,,,5,,,41,96
79744,note_off,,,,,64,0,9,,,,,2,,,69,100
79772,note_off,,,,,92,0,13,,,,,6,,,72,100
79776,note_on,,,,,32,0,9,,,,,2,,,67,96
79776,note_on,,,,,4,0,13,,,,,6,,,70,100
79780,note_off,,,,,100,0,8,,,,,1,,,72,100
79780,note_off,,,,,100,0,11,,,,,4,,,53,100
79780,note_off,,,,,100,0,14,,,,,6,,,53,100
79780,note_off,,,,,100,0,12,,,,,5,,,41,100
79780,note_off,,,,,100,0,10,,,,,3,,,65,100
79816,note_off,,,,,136,0,16,,,,,7,,,53,100
79840,note_off,,,,,64,0,9,,,,,2,,,67,100
79868,note_off,,,,,380,0,15,,,,,7,,,77,100
79868,note_off,,,,,92,0,13,,,,,6,,,70,100
79872,note_on,,,,,4,0,15,,,,,7,,,75,100
79872,note_on,,,,,92,0,12,,,,,5,,,41,95
79872,note_on,,,,,92,0,11,,,,,4,,,53,95
79872,note_on,,,,,92,0,14,,,,,6,,,53,100
79872,note_on,,,,,4,0,13,,,,,6,,,69,100
79872,note_on,,,,,92,0,10,,,,,3,,,60,95
79872,note_on,,,,,32,0,9,,,,,2,,,69,95
79872,note_on,,,,,92,0,8,,,,,1,,,75,95
79872,note_on,,,,,56,0,16,,,,,7,,,53,100
79964,note_off,,,,,92,0,13,,,,,6,,,69,100
79968,note_on,,,,,4,0,13,,,,,6,,,65,100
79972,note_off,,,,,100,0,11,,,,,4,,,53,100
79972,note_off,,,,,100,0,14,,,,,6,,,53,100
79972,note_off,,,,,100,0,10,,,,,3,,,60,100
79972,note_off,,,,,100,0,12,,,,,5,,,41,100
79972,note_off,,,,,100,0,9,,,,,2,,,69,100
80008,note_off,,,,,136,0,16,,,,,7,,,53,100
80060,note_off,,,,,92,0,13,,,,,6,,,65,100
80064,note_on,,,,,92,0,10,,,,,3,,,57,94
80064,note_off,,,,,192,0,8,,,,,1,,,75,100
80064,note_on,,,,,92,0,14,,,,,6,,,41,100
80064,note_on,,,,,92,0,12,,,,,5,,,41,94
80064,note_on,,,,,4,0,13,,,,,6,,,69,100
80064,note_on,,,,,92,0,9,,,,,2,,,65,94
80064,note_on,,,,,92,0,11,,,,,4,,,41,94
80064,note_on,,,,,56,0,16,,,,,7,,,41,100
80128,note_off,,,,,0,0,15,,,,,7,,,75,100
80128,note_off,,,,,256,0,15,,,,,7,,,69,100
80156,note_off,,,,,92,0,13,,,,,6,,,69,100
80160,note_on,,,,,4,0,13,,,,,6,,,72,100
80160,note_on,,,,,96,0,8,,,,,1,,,74,93
80164,note_off,,,,,100,0,14,,,,,6,,,41,100
80164,note_off,,,,,100,0,10,,,,,3,,,57,100
80164,note_off,,,,,100,0,9,,,,,2,,,65,100
80164,note_off,,,,,100,0,12,,,,,5,,,41,100
80164,note_off,,,,,100,0,11,,,,,4,,,41,100
80200,note_off,,,,,136,0,16,,,,,7,,,41,100
80224,note_off,,,,,64,0,8,,,,,1,,,74,100
80252,note_off,,,,,92,0,13,,,,,6,,,72,100
80256,note_on,,,,,4,0,13,,,,,6,,,75,100
80256,note_on,,,,,92,0,9,,,,,2,,,69,93
80256,note_on,,,,,92,0,14,,,,,6,,,41,100
80256,note_on,,,,,0,0,15,,,,,7,,,63,100
80256,note_on,,,,,92,0,11,,,,,4,,,41,93
80256,note_on,,,,,92,0,12,,,,,5,,,41,93
80256,note_on,,,,,128,0,15,,,,,7,,,72,100
80256,note_on,,,,,32,0,8,,,,,1,,,72,93
80256,note_on,,,,,92,0,10,,,,,3,,,60,93
80256,note_on,,,,,56,0,16,,,,,7,,,41,100
80320,note_off,,,,,64,0,8,,,,,1,,,72,100
80348,note_off,,,,,92,0,13,,,,,6,,,75,100
80352,note_on,,,,,4,0,13,,,,,6,,,74,100
80352,note_on,,,,,32,0,8,,,,,1,,,70,92
80356,note_off,,,,,100,0,9,,,,,2,,,69,100
80356,note_off,,,,,100,0,10,,,,,3,,,60,100
80356,note_off,,,,,100,0,11,,,,,4,,,41,100
80356,note_off,,,,,100,0,12,,,,,5,,,41,100
80356,note_off,,,,,100,0,14,,,,,6,,,41,100
80392,note_off,,,,,136,0,16,,,,,7,,,41,100
80416,note_off,,,,,64,0,8,,,,,1,,,70,100
80444,note_off,,,,,92,0,13,,,,,6,,,74,100
80448,note_on,,,,,92,0,11,,,,,4,,,53,91
80448,note_on,,,,,92,0,12,,,,,5,,,41,91
80448,note_on,,,,,92,0,14,,,,,6,,,53,100
80448,note_on,,,,,56,0,16,,,,,7,,,53,100
80448,note_on,,,,,92,0,9,,,,,2,,,72,91
80448,note_on,,,,,32,0,8,,,,,1,,,69,91
80448,note_on,,,,,92,0,10,,,,,3,,,65,91
80448,note_on,,,,,4,0,13,,,,,6,,,72,100
80512,note_off,,,,,64,0,8,,,,,1,,,69,100
80540,note_off,,,,,92,0,13,,,,,6,,,72,100
80544,note_on,,,,,32,0,8,,,,,1,,,67,91
80544,note_on,,,,,4,0,13,,,,,6,,,70,100
80548,note_off,,,,,100,0,9,,,,,2,,,72,100
80548,note_off,,,,,100,0,14,,,,,6,,,53,100
80548,note_off,,,,,100,0,12,,,,,5,,,41,100
80548,note_off,,,,,100,0,11,,,,,4,,,53,100
80548,note_off,,,,,100,0,10,,,,,3,,,65,100
80584,note_off,,,,,136,0,16,,,,,7,,,53,100
80608,note_off,,,,,64,0,8,,,,,1,,,67,100
80636,note_off,,,,,380,0,15,,,,,7,,,72,100
80636,note_off,,,,,92,0,13,,,,,6,,,70,100
80640,note_on,,,,,92,0,9,,,,,2,,,75,95
80640,note_on,,,,,32,0,8,,,,,1,,,69,95
80640,note_on,,,,,92,0,14,,,,,6,,,53,100
80640,note_on,,,,,92,0,10,,,,,3,,,60,95
80640,note_on,,,,,4,0,15,,,,,7,,,69,100
80640,note_on,,,,,92,0,11,,,,,4,,,53,95
80640,note_on,,,,,4,0,13,,,,,6,,,69,100
80640,note_on,,,,,92,0,12,,,,,5,,,41,95
80640,note_on,,,,,56,0,16,,,,,7,,,53,100
80732,note_off,,,,,92,0,13,,,,,6,,,69,100
80736,note_on,,,,,4,0,13,,,,,6,,,65,100
80740,note_off,,,,,100,0,12,,,,,5,,,41,100
80740,note_off,,,,,100,0,8,,,,,1,,,69,100
80740,note_off,,,,,100,0,14,,,,,6,,,53,100
80740,note_off,,,,,100,0,10,,,,,3,,,60,100
80740,note_off,,,,,100,0,11,,,,,4,,,53,100
80776,note_off,,,,,136,0,16,,,,,7,,,53,100
80828,note_off,,,,,92,0,13,,,,,6,,,65,100
80832,note_on,,,,,92,0,14,,,,,6,,,41,100
80832,note_off,,,,,192,0,9,,,,,2,,,75,100
80832,note_on,,,,,56,0,16,,,,,7,,,41,100
80832,note_on,,,,,92,0,10,,,,,3,,,57,94
80832,note_on,,,,,92,0,8,,,,,1,,,65,94
80832,note_on,,,,,92,0,12,,,,,5,,,41,94
80832,note_on,,,,,92,0,11,,,,,4,,,41,94
80832,note_on,,,,,4,0,13,,,,,6,,,69,100
80896,note_off,,,,,256,0,15,,,,,7,,,63,100
80896,note_off,,,,,0,0,15,,,,,7,,,69,100
80924,note_off,,,,,92,0,13,,,,,6,,,69,100
80928,note_on,,,,,4,0,13,,,,,6,,,72,100
80928,note_on,,,,,96,0,9,,,,,2,,,74,93
80932,note_off,,,,,100,0,12,,,,,5,,,41,100
80932,note_off,,,,,100,0,11,,,,,4,,,41,100
80932,note_off,,,,,100,0,8,,,,,1,,,65,100
80932,note_off,,,,,100,0,10,,,,,3,,,57,100
80932,note_off,,,,,100,0,14,,,,,6,,,41,100
80968,note_off,,,,,136,0,16,,,,,7,,,41,100
80992,note_off,,,,,64,0,9,,,,,2,,,74,100
81020,note_off,,,,,92,0,13,,,,,6,,,72,100
81024,note_on,,,,,4,0,13,,,,,6,,,75,100
81024,note_on,,,,,92,0,10,,,,,3,,,60,93
81024,note_on,,,,,92,0,12,,,,,5,,,41,93
81024,note_on,,,,,56,0,16,,,,,7,,,41,100
81024,note_on,,,,,128,0,15,,,,,7,,,69,100
81024,note_on,,,,,92,0,14,,,,,6,,,41,100
81024,note_on,,,,,32,0,9,,,,,2,,,72,93
81024,note_on,,,,,0,0,15,,,,,7,,,77,100
81024,note_on,,,,,92,0,11,,,,,4,,,41,93
81088,note_off,,,,,64,0,9,,,,,2,,,72,100
81116,note_off,,,,,92,0,13,,,,,6,,,75,100
81120,note_on,,,,,32,0,9,,,,,2,,,70,92
81120,note_on,,,,,4,0,13,,,,,6,,,74,100
81124,note_off,,,,,100,0,12,,,,,5,,,41,100
81124,note_off,,,,,100,0,14,,,,,6,,,41,100
81124,note_off,,,,,100,0,11,,,,,4,,,41,100
81124,note_off,,,,,100,0,10,,,,,3,,,60,100
81160,note_off,,,,,136,0,16,,,,,7,,,41,100
81184,note_off,,,,,64,0,9,,,,,2,,,70,100
81212,note_off,,,,,92,0,13,,,,,6,,,74,100
81216,note_on,,,,,92,0,10,,,,,3,,,65,96
81216,note_on,,,,,92,0,14,,,,,6,,,53,100
81216,note_on,,,,,284,0,8,,,,,1,,,81,96
81216,note_on,,,,,4,0,13,,,,,6,,,69,100
81216,note_on,,,,,0,0,13,,,,,6,,,72,100
81216,note_on,,,,,92,0,12,,,,,5,,,41,96
81216,note_on,,,,,32,0,9,,,,,2,,,69,96
81216,note_on,,,,,92,0,11,,,,,4,,,53,96
81216,note_on,,,,,56,0,16,,,,,7,,,53,100
81280,note_off,,,,,64,0,9,,,,,2,,,69,100
81280,note_off,,,,,256,0,15,,,,,7,,,69,100
81280,note_off,,,,,0,0,15,,,,,7,,,77,100
81308,note_off,,,,,92,0,13,,,,,6,,,69,100
81308,note_off,,,,,0,0,13,,,,,6,,,72,100
81312,note_on,,,,,32,0,9,,,,,2,,,72,100
81312,note_on,,,,,4,0,13,,,,,6,,,75,100
81316,note_off,,,,,100,0,10,,,,,3,,,65,100
81316,note_off,,,,,100,0,14,,,,,6,,,53,100
81316,note_off,,,,,100,0,8,,,,,1,,,81,100
81316,note_off,,,,,100,0,11,,,,,4,,,53,100
81316,note_off,,,,,100,0,12,,,,,5,,,41,100
81352,note_off,,,,,136,0,16,,,,,7,,,53,100
81376,note_off,,,,,64,0,9,,,,,2,,,72,100
81404,note_off,,,,,92,0,13,,,,,6,,,75,100
81408,note_on,,,,,0,0,15,,,,,7,,,74,100
81408,note_on,,,,,0,0,15,,,,,7,,,70,100
81408,note_on,,,,,128,0,15,,,,,7,,,77,100
81408,note_on,,,,,92,0,8,,,,,1,,,82,104
81408,note_on,,,,,0,0,13,,,,,6,,,77,100
81408,note_on,,,,,92,0,11,,,,,4,,,58,104
81408,note_on,,,,,56,0,16,,,,,7,,,58,100
81408,note_on,,,,,92,0,12,,,,,5,,,46,104
81408,note_on,,,,,92,0,14,,,,,6,,,58,100
81408,note_on,,,,,32,0,9,,,,,2,,,74,104
81408,note_on,,,,,4,0,13,,,,,6,,,74,100
81408,note_on,,,,,92,0,10,,,,,3,,,65,104
81508,note_off,,,,,100,0,9,,,,,2,,,74,100
81508,note_off,,,,,100,0,11,,,,,4,,,58,100
81508,note_off,,,,,100,0,14,,,,,6,,,58,100
81508,note_off,,,,,100,0,12,,,,,5,,,46,100
81536,note_off,,,,,0,0,13,,,,,6,,,77,100
81536,note_off,,,,,128,0,13,,,,,6,,,74,100
81544,note_off,,,,,136,0,16,,,,,7,,,58,100
81596,note_off,,,,,188,0,8,,,,,1,,,82,100
81600,note_on,,,,,92,0,9,,,,,2,,,82,100
81600,note_on,,,,,4,0,8,,,,,1,,,74,100
81600,note_on,,,,,92,0,11,,,,,4,,,46,100
81600,note_on,,,,,0,0,13,,,,,6,,,65,100
81600,note_on,,,,,64,0,13,,,,,6,,,74,100
81600,note_on,,,,,56,0,16,,,,,7,,,46,100
81600,note_on,,,,,92,0,12,,,,,5,,,34,100
81600,note_on,,,,,92,0,14,,,,,6,,,46,100
81700,note_off,,,,,100,0,12,,,,,5,,,34,100
81700,note_off,,,,,100,0,11,,,,,4,,,46,100
81700,note_off,,,,,100,0,14,,,,,6,,,46,100
81728,note_off,,,,,128,0,9,,,,,2,,,82,100
81728,note_off,,,,,0,0,13,,,,,6,,,65,100
81728,note_off,,,,,128,0,13,,,,,6,,,74,100
81736,note_off,,,,,136,0,16,,,,,7,,,46,100
81788,note_off,,,,,188,0,8,,,,,1,,,74,100
81792,note_on,,,,,92,0,14,,,,,6,,,46,100
81792,note_on,,,,,4,0,8,,,,,1,,,77,100
81792,note_on,,,,,64,0,9,,,,,2,,,77,100
81792,note_on,,,,,64,0,13,,,,,6,,,74,100
81792,note_on,,,,,92,0,12,,,,,5,,,34,100
81792,note_on,,,,,0,0,13,,,,,6,,,65,100
81792,note_on,,,,,92,0,11,,,,,4,,,46,100
81792,note_off,,,,,384,0,10,,,,,3,,,65,100
81792,note_on,,,,,56,0,16,,,,,7,,,46,100
81892,note_off,,,,,100,0,12,,,,,5,,,34,100
81892,note_off,,,,,100,0,11,,,,,4,,,46,100
81892,note_off,,,,,100,0,14,,,,,6,,,46,100
81920,note_off,,,,,128,0,9,,,,,2,,,77,100
81920,note_off,,,,,128,0,13,,,,,6,,,74,100
81920,note_off,,,,,0,0,13,,,,,6,,,65,100
81928,note_off,,,,,136,0,16,,,,,7,,,46,100
81980,note_off,,,,,188,0,8,,,,,1,,,77,100
81984,note_on,,,,,92,0,11,,,,,4,,,58,100
81984,note_on,,,,,64,0,9,,,,,2,,,74,100
81984,note_on,,,,,56,0,16,,,,,7,,,58,100
81984,note_on,,,,,4,0,8,,,,,1,,,82,100
81984,note_on,,,,,192,0,10,,,,,3,,,65,100
81984,note_on,,,,,92,0,12,,,,,5,,,46,100
81984,note_on,,,,,64,0,13,,,,,6,,,77,100
81984,note_on,,,,,0,0,13,,,,,6,,,74,100
81984,note_on,,,,,92,0,14,,,,,6,,,58,100
82020,note_off,,,,,612,0,15,,,,,7,,,77,100
82020,note_off,,,,,0,0,15,,,,,7,,,70,100
82020,note_off,,,,,0,0,15,,,,,7,,,74,100
82084,note_off,,,,,100,0,11,,,,,4,,,58,100
82084,note_off,,,,,100,0,12,,,,,5,,,46,100
82084,note_off,,,,,100,0,10,,,,,3,,,65,100
82084,note_off,,,,,100,0,14,,,,,6,,,58,100
82112,note_off,,,,,128,0,8,,,,,1,,,82,100
82112,note_off,,,,,0,0,13,,,,,6,,,74,100
82112,note_off,,,,,128,0,9,,,,,2,,,74,100
82112,note_off,,,,,128,0,13,,,,,6,,,77,100
82120,note_off,,,,,136,0,16,,,,,7,,,58,100
82176,note_on,,,,,92,0,10,,,,,3,,,65,100
82176,note_on,,,,,0,0,13,,,,,6,,,77,100
82176,note_on,,,,,92,0,12,,,,,5,,,46,100
82176,note_on,,,,,64,0,13,,,,,6,,,74,100
82176,note_on,,,,,92,0,14,,,,,6,,,58,100
82176,note_on,,,,,92,0,11,,,,,4,,,58,100
82176,note_on,,,,,64,0,8,,,,,1,,,82,100
82176,note_on,,,,,0,0,15,,,,,7,,,74,100
82176,note_on,,,,,156,0,15,,,,,7,,,77,100
82176,note_on,,,,,0,0,15,,,,,7,,,70,100
82176,note_on,,,,,56,0,16,,,,,7,,,58,100
82276,note_off,,,,,100,0,14,,,,,6,,,58,100
82276,note_off,,,,,100,0,11,,,,,4,,,58,100
82276,note_off,,,,,100,0,12,,,,,5,,,46,100
82304,note_off,,,,,0,0,13,,,,,6,,,77,100
82304,note_off,,,,,128,0,13,,,,,6,,,74,100
82312,note_off,,,,,136,0,16,,,,,7,,,58,100
82364,note_off,,,,,188,0,8,,,,,1,,,82,100
82368,note_on,,,,,92,0,14,,,,,6,,,46,100
82368,note_on,,,,,0,0,13,,,,,6,,,65,100
82368,note_on,,,,,64,0,13,,,,,6,,,74,100
82368,note_on,,,,,56,0,16,,,,,7,,,46,100
82368,note_on,,,,,256,0,9,,,,,2,,,82,100
82368,note_on,,,,,92,0,11,,,,,4,,,46,100
82368,note_on,,,,,92,0,12,,,,,5,,,34,100
82368,note_on,,,,,4,0,8,,,,,1,,,74,100
82468,note_off,,,,,100,0,14,,,,,6,,,46,100
82468,note_off,,,,,100,0,12,,,,,5,,,34,100
82468,note_off,,,,,100,0,11,,,,,4,,,46,100
82496,note_off,,,,,128,0,9,,,,,2,,,82,100
82496,note_off,,,,,128,0,13,,,,,6,,,74,100
82496,note_off,,,,,0,0,13,,,,,6,,,65,100
82504,note_off,,,,,136,0,16,,,,,7,,,46,100
82556,note_off,,,,,188,0,8,,,,,1,,,74,100
82560,note_off,,,,,384,0,10,,,,,3,,,65,100
82560,note_on,,,,,56,0,16,,,,,7,,,46,100
82560,note_on,,,,,0,0,13,,,,,6,,,65,100
82560,note_on,,,,,4,0,8,,,,,1,,,77,100
82560,note_on,,,,,64,0,9,,,,,2,,,77,100
82560,note_on,,,,,92,0,14,,,,,6,,,46,100
82560,note_on,,,,,92,0,12,,,,,5,,,34,100
82560,note_on,,,,,92,0,11,,,,,4,,,46,100
82560,note_on,,,,,64,0,13,,,,,6,,,74,100
82660,note_off,,,,,100,0,14,,,,,6,,,46,100
82660,note_off,,,,,100,0,12,,,,,5,,,34,100
82660,note_off,,,,,100,0,11,,,,,4,,,46,100
82688,note_off,,,,,128,0,13,,,,,6,,,74,100
82688,note_off,,,,,0,0,13,,,,,6,,,65,100
82688,note_off,,,,,128,0,9,,,,,2,,,77,100
82696,note_off,,,,,136,0,16,,,,,7,,,46,100
82748,note_off,,,,,188,0,8,,,,,1,,,77,100
82752,note_on,,,,,4,0,8,,,,,1,,,82,100
82752,note_on,,,,,192,0,10,,,,,3,,,65,100
82752,note_on,,,,,56,0,16,,,,,7,,,58,100
82752,note_on,,,,,0,0,13,,,,,6,,,74,100
82752,note_on,,,,,64,0,13,,,,,6,,,77,100
82752,note_on,,,,,64,0,9,,,,,2,,,74,100
82752,note_on,,,,,92,0,11,,,,,4,,,58,100
82752,note_on,,,,,92,0,14,,,,,6,,,58,100
82752,note_on,,,,,92,0,12,,,,,5,,,46,100
82788,note_off,,,,,612,0,15,,,,,7,,,77,100
82788,note_off,,,,,0,0,15,,,,,7,,,74,100
82788,note_off,,,,,0,0,15,,,,,7,,,70,100
82852,note_off,,,,,100,0,14,,,,,6,,,58,100
82852,note_off,,,,,100,0,12,,,,,5,,,46,100
82852,note_off,,,,,100,0,10,,,,,3,,,65,100
82852,note_off,,,,,100,0,11,,,,,4,,,58,100
82880,note_off,,,,,128,0,8,,,,,1,,,82,100
82880,note_off,,,,,128,0,9,,,,,2,,,74,100
82880,note_off,,,,,128,0,13,,,,,6,,,77,100
82880,note_off,,,,,0,0,13,,,,,6,,,74,100
82888,note_off,,,,,136,0,16,,,,,7,,,58,100
82944,note_on,,,,,0,0,15,,,,,7,,,72,100
82944,note_on,,,,,0,0,15,,,,,7,,,70,100
82944,note_on,,,,,92,0,11,,,,,4,,,53,100
82944,note_on,,,,,0,0,13,,,,,6,,,77,100
82944,note_on,,,,,56,0,16,,,,,7,,,53,100
82944,note_on,,,,,156,0,15,,,,,7,,,77,100
82944,note_on,,,,,64,0,13,,,,,6,,,72,100
82944,note_on,,,,,92,0,14,,,,,6,,,53,100
82944,note_on,,,,,92,0,10,,,,,3,,,65,100
82944,note_on,,,,,92,0,12,,,,,5,,,41,100
82944,note_on,,,,,64,0,8,,,,,1,,,82,100
83044,note_off,,,,,100,0,12,,,,,5,,,41,100
83044,note_off,,,,,100,0,11,,,,,4,,,53,100
83044,note_off,,,,,100,0,14,,,,,6,,,53,100
83072,note_off,,,,,128,0,13,,,,,6,,,72,100
83072,note_off,,,,,0,0,13,,,,,6,,,77,100
83080,note_off,,,,,136,0,16,,,,,7,,,53,100
83132,note_off,,,,,188,0,8,,,,,1,,,82,100
83136,note_on,,,,,56,0,16,,,,,7,,,41,100
83136,note_on,,,,,64,0,13,,,,,6,,,70,100
83136,note_on,,,,,4,0,8,,,,,1,,,72,100
83136,note_on,,,,,92,0,12,,,,,5,,,41,100
83136,note_on,,,,,92,0,11,,,,,4,,,41,100
83136,note_on,,,,,0,0,13,,,,,6,,,72,100
83136,note_on,,,,,92,0,14,,,,,6,,,41,100
83136,note_on,,,,,256,0,9,,,,,2,,,82,100
83236,note_off,,,,,100,0,14,,,,,6,,,41,100
83236,note_off,,,,,100,0,12,,,,,5,,,41,100
83236,note_off,,,,,100,0,11,,,,,4,,,41,100
83264,note_off,,,,,0,0,13,,,,,6,,,72,100
83264,note_off,,,,,128,0,13,,,,,6,,,70,100
83264,note_off,,,,,128,0,9,,,,,2,,,82,100
83272,note_off,,,,,136,0,16,,,,,7,,,41,100
83324,note_off,,,,,188,0,8,,,,,1,,,72,100
83328,note_on,,,,,64,0,13,,,,,6,,,70,100
83328,note_on,,,,,64,0,9,,,,,2,,,77,100
83328,note_off,,,,,384,0,10,,,,,3,,,65,100
83328,note_on,,,,,92,0,11,,,,,4,,,41,100
83328,note_on,,,,,0,0,13,,,,,6,,,72,100
83328,note_on,,,,,4,0,8,,,,,1,,,77,100
83328,note_on,,,,,92,0,12,,,,,5,,,41,100
83328,note_on,,,,,56,0,16,,,,,7,,,41,100
83328,note_on,,,,,92,0,14,,,,,6,,,41,100
83428,note_off,,,,,100,0,14,,,,,6,,,41,100
83428,note_off,,,,,100,0,12,,,,,5,,,41,100
83428,note_off,,,,,100,0,11,,,,,4,,,41,100
83456,note_off,,,,,0,0,13,,,,,6,,,72,100
83456,note_off,,,,,128,0,9,,,,,2,,,77,100
83456,note_off,,,,,128,0,13,,,,,6,,,70,100
83464,note_off,,,,,136,0,16,,,,,7,,,41,100
83516,note_off,,,,,188,0,8,,,,,1,,,77,100
83520,note_on,,,,,92,0,12,,,,,5,,,41,100
83520,note_on,,,,,92,0,14,,,,,6,,,53,100
83520,note_on,,,,,4,0,8,,,,,1,,,82,100
83520,note_on,,,,,0,0,13,,,,,6,,,77,100
83520,note_on,,,,,92,0,11,,,,,4,,,53,100
83520,note_on,,,,,64,0,9,,,,,2,,,72,100
83520,note_on,,,,,56,0,16,,,,,7,,,53,100
83520,note_on,,,,,192,0,10,,,,,3,,,65,100
83520,note_on,,,,,64,0,13,,,,,6,,,72,100
83556,note_off,,,,,612,0,15,,,,,7,,,77,100
83556,note_off,,,,,0,0,15,,,,,7,,,70,100
83556,note_off,,,,,0,0,15,,,,,7,,,72,100
83620,note_off,,,,,100,0,14,,,,,6,,,53,100
83620,note_off,,,,,100,0,10,,,,,3,,,65,100
83620,note_off,,,,,100,0,11,,,,,4,,,53,100
83620,note_off,,,,,100,0,12,,,,,5,,,41,100
83648,note_off,,,,,0,0,13,,,,,6,,,77,100
83648,note_off,,,,,128,0,13,,,,,6,,,72,100
83648,note_off,,,,,128,0,8,,,,,1,,,82,100
83648,note_off,,,,,128,0,9,,,,,2,,,72,100
83656,note_off,,,,,136,0,16,,,,,7,,,53,100
83712,note_on,,,,,92,0,10,,,,,3,,,65,100
83712,note_on,,,,,0,0,15,,,,,7,,,69,100
83712,note_on,,,,,156,0,15,,,,,7,,,77,100
83712,note_on,,,,,92,0,11,,,,,4,,,53,100
83712,note_on,,,,,64,0,8,,,,,1,,,81,100
83712,note_on,,,,,92,0,14,,,,,6,,,53,100
83712,note_on,,,,,0,0,15,,,,,7,,,72,100
83712,note_on,,,,,0,0,13,,,,,6,,,77,100
83712,note_on,,,,,64,0,13,,,,,6,,,72,100
83712,note_on,,,,,92,0,12,,,,,5,,,41,100
83712,note_on,,,,,56,0,16,,,,,7,,,53,100
83812,note_off,,,,,100,0,14,,,,,6,,,53,100
83812,note_off,,,,,100,0,11,,,,,4,,,53,100
83812,note_off,,,,,100,0,12,,,,,5,,,41,100
83840,note_off,,,,,0,0,13,,,,,6,,,77,100
83840,note_off,,,,,128,0,13,,,,,6,,,72,100
83848,note_off,,,,,136,0,16,,,,,7,,,53,100
83900,note_off,,,,,188,0,8,,,,,1,,,81,100
83904,note_on,,,,,56,0,16,,,,,7,,,41,100
83904,note_on,,,,,256,0,9,,,,,2,,,81,100
83904,note_on,,,,,4,0,8,,,,,1,,,72,100
83904,note_on,,,,,92,0,12,,,,,5,,,41,100
83904,note_on,,,,,92,0,14,,,,,6,,,41,100
83904,note_on,,,,,92,0,11,,,,,4,,,41,100
83904,note_on,,,,,0,0,13,,,,,6,,,72,100
83904,note_on,,,,,64,0,13,,,,,6,,,69,100
84004,note_off,,,,,100,0,12,,,,,5,,,41,100
84004,note_off,,,,,100,0,14,,,,,6,,,41,100
84004,note_off,,,,,100,0,11,,,,,4,,,41,100
84032,note_off,,,,,128,0,13,,,,,6,,,69,100
84032,note_off,,,,,0,0,13,,,,,6,,,72,100
84032,note_off,,,,,128,0,9,,,,,2,,,81,100
84040,note_off,,,,,136,0,16,,,,,7,,,41,100
84092,note_off,,,,,188,0,8,,,,,1,,,72,100
84096,note_on,,,,,4,0,8,,,,,1,,,77,100
84096,note_on,,,,,64,0,9,,,,,2,,,77,100
84096,note_on,,,,,92,0,11,,,,,4,,,41,100
84096,note_on,,,,,92,0,14,,,,,6,,,41,100
84096,note_on,,,,,0,0,13,,,,,6,,,72,100
84096,note_on,,,,,64,0,13,,,,,6,,,69,100
84096,note_on,,,,,56,0,16,,,,,7,,,41,100
84096,note_on,,,,,92,0,12,,,,,5,,,41,100
84096,note_off,,,,,384,0,10,,,,,3,,,65,100
84196,note_off,,,,,100,0,11,,,,,4,,,41,100
84196,note_off,,,,,100,0,12,,,,,5,,,41,100
84196,note_off,,,,,100,0,14,,,,,6,,,41,100
84224,note_off,,,,,0,0,13,,,,,6,,,72,100
84224,note_off,,,,,128,0,9,,,,,2,,,77,100
84224,note_off,,,,,128,0,13,,,,,6,,,69,100
84232,note_off,,,,,136,0,16,,,,,7,,,41,100
84284,note_off,,,,,188,0,8,,,,,1,,,77,100
84288,note_on,,,,,92,0,12,,,,,5,,,41,100
84288,note_on,,,,,92,0,14,,,,,6,,,53,100
84288,note_on,,,,,4,0,8,,,,,1,,,81,100
84288,note_on,,,,,56,0,16,,,,,7,,,53,100
84288,note_on,,,,,0,0,13,,,,,6,,,77,100
84288,note_on,,,,,64,0,13,,,,,6,,,69,100
84288,note_on,,,,,64,0,9,,,,,2,,,72,100
84288,note_on,,,,,92,0,11,,,,,4,,,53,100
84288,note_on,,,,,192,0,10,,,,,3,,,65,100
84324,note_off,,,,,0,0,15,,,,,7,,,72,100
84324,note_off,,,,,0,0,15,,,,,7,,,69,100
84324,note_off,,,,,612,0,15,,,,,7,,,77,100
84388,note_off,,,,,100,0,10,,,,,3,,,65,100
84388,note_off,,,,,100,0,11,,,,,4,,,53,100
84388,note_off,,,,,100,0,12,,,,,5,,,41,100
84388,note_off,,,,,100,0,14,,,,,6,,,53,100
84416,note_off,,,,,128,0,13,,,,,6,,,69,100
84416,note_off,,,,,0,0,13,,,,,6,,,77,100
84416,note_off,,,,,128,0,8,,,,,1,,,81,100
84416,note_off,,,,,128,0,9,,,,,2,,,72,100
84424,note_off,,,,,136,0,16,,,,,7,,,53,100
84480,note_on,,,,,92,0,14,,,,,6,,,46,100
84480,note_on,,,,,92,0,11,,,,,4,,,46,100
84480,note_on,,,,,64,0,8,,,,,1,,,82,100
84480,note_on,,,,,64,0,13,,,,,6,,,77,100
84480,note_on,,,,,0,0,15,,,,,7,,,70,100
84480,note_on,,,,,0,0,15,,,,,7,,,74,100
84480,note_on,,,,,156,0,15,,,,,7,,,77,100
84480,note_on,,,,,64,0,9,,,,,2,,,74,100
84480,note_on,,,,,92,0,10,,,,,3,,,65,100
84480,note_on,,,,,92,0,12,,,,,5,,,34,100
84480,note_on,,,,,56,0,16,,,,,7,,,46,100
84480,note_on,,,,,84480,0,7,,,,,0,,,82,85
84480,note_on,,,,,0,0,13,,,,,6,,,70,100
84480,note_on,,,,,0,0,13,,,,,6,,,74,100
84544,note_off,,,,,64,0,7,,,,,0,,,82,100
84576,note_on,,,,,32,0,7,,,,,0,,,70,85
84640,note_off,,,,,64,0,7,,,,,0,,,70,100
84672,note_on,,,,,32,0,7,,,,,0,,,69,85
84736,note_off,,,,,0,0,13,,,,,6,,,74,100
84736,note_off,,,,,0,0,13,,,,,6,,,70,100
84736,note_off,,,,,256,0,16,,,,,7,,,46,100
84736,note_off,,,,,256,0,12,,,,,5,,,34,100
84736,note_off,,,,,256,0,13,,,,,6,,,77,100
84736,note_off,,,,,256,0,14,,,,,6,,,46,100
84736,note_off,,,,,256,0,8,,,,,1,,,82,100
84736,note_off,,,,,256,0,10,,,,,3,,,65,100
84736,note_off,,,,,256,0,11,,,,,4,,,46,100
84736,note_off,,,,,64,0,7,,,,,0,,,69,100
84736,note_off,,,,,256,0,15,,,,,7,,,77,100
84736,note_off,,,,,0,0,15,,,,,7,,,74,100
84736,note_off,,,,,0,0,15,,,,,7,,,70,100
84736,note_off,,,,,256,0,9,,,,,2,,,74,100
84768,note_on,,,,,32,0,7,,,,,0,,,70,85
84832,note_off,,,,,64,0,7,,,,,0,,,70,100
84860,program_change,,,,,124,0,11,,,,,4,42,,,
84864,note_on,,,,,128,0,14,,,,,6,,,50,100
84864,note_on,,,,,128,0,13,,,,,6,,,65,100
84864,note_on,,,,,0,0,13,,,,,6,,,70,100
84864,note_on,,,,,32,0,7,,,,,0,,,65,85
84864,note_on,,,,,4,0,11,,,,,4,,,50,85
84928,note_off,,,,,64,0,7,,,,,0,,,65,100
84960,note_on,,,,,32,0,7,,,,,0,,,70,85
85024,note_off,,,,,64,0,7,,,,,0,,,70,100
85056,note_on,,,,,32,0,7,,,,,0,,,69,85
85064,note_off,,,,,200,0,14,,,,,6,,,50,100
85064,note_off,,,,,200,0,11,,,,,4,,,50,100
85064,note_off,,,,,0,0,13,,,,,6,,,70,100
85064,note_off,,,,,200,0,13,,,,,6,,,65,100
85120,note_off,,,,,64,0,7,,,,,0,,,69,100
85152,note_on,,,,,32,0,7,,,,,0,,,70,85
85216,note_off,,,,,64,0,7,,,,,0,,,70,100
85248,note_on,,,,,184,0,11,,,,,4,,,46,85
85248,note_on,,,,,32,0,7,,,,,0,,,62,85
85248,note_on,,,,,0,0,13,,,,,6,,,62,100
85248,note_on,,,,,184,0,13,,,,,6,,,65,100
85248,note_on,,,,,184,0,14,,,,,6,,,46,100
85312,note_off,,,,,64,0,7,,,,,0,,,62,100
85344,note_on,,,,,32,0,7,,,,,0,,,70,85
85408,note_off,,,,,64,0,7,,,,,0,,,70,100
85440,note_on,,,,,32,0,7,,,,,0,,,69,85
85448,note_off,,,,,200,0,13,,,,,6,,,65,100
85448,note_off,,,,,0,0,13,,,,,6,,,62,100
85448,note_off,,,,,200,0,14,,,,,6,,,46,100
85448,note_off,,,,,200,0,11,,,,,4,,,46,100
85504,note_off,,,,,64,0,7,,,,,0,,,69,100
85536,note_on,,,,,32,0,7,,,,,0,,,70,85
85600,note_off,,,,,64,0,7,,,,,0,,,70,100
85632,note_on,,,,,184,0,14,,,,,6,,,50,100
85632,note_on,,,,,0,0,13,,,,,6,,,70,100
85632,note_on,,,,,184,0,13,,,,,6,,,65,100
85632,note_on,,,,,32,0,7,,,,,0,,,65,85
85632,note_on,,,,,184,0,11,,,,,4,,,50,85
85696,note_off,,,,,64,0,7,,,,,0,,,65,100
85728,note_on,,,,,32,0,7,,,,,0,,,70,85
85792,note_off,,,,,64,0,7,,,,,0,,,70,100
85824,note_on,,,,,32,0,7,,,,,0,,,69,85
85832,note_off,,,,,200,0,11,,,,,4,,,50,100
85832,note_off,,,,,200,0,13,,,,,6,,,65,100
85832,note_off,,,,,0,0,13,,,,,6,,,70,100
85832,note_off,,,,,200,0,14,,,,,6,,,50,100
85888,note_off,,,,,64,0,7,,,,,0,,,69,100
85920,note_on,,,,,32,0,7,,,,,0,,,70,85
85984,note_off,,,,,64,0,7,,,,,0,,,70,100
86016,note_on,,,,,32,0,7,,,,,0,,,62,85
86016,note_on,,,,,184,0,13,,,,,6,,,65,100
86016,note_on,,,,,0,0,13,,,,,6,,,62,100
86016,note_on,,,,,184,0,11,,,,,4,,,46,85
86016,note_on,,,,,184,0,14,,,,,6,,,46,100
86080,note_off,,,,,64,0,7,,,,,0,,,62,100
86112,note_on,,,,,32,0,7,,,,,0,,,70,85
86176,note_off,,,,,64,0,7,,,,,0,,,70,100
86208,note_on,,,,,32,0,7,,,,,0,,,69,85
86216,note_off,,,,,200,0,13,,,,,6,,,65,100
86216,note_off,,,,,0,0,13,,,,,6,,,62,100
86216,note_off,,,,,200,0,11,,,,,4,,,46,100
86216,note_off,,,,,200,0,14,,,,,6,,,46,100
86272,note_off,,,,,64,0,7,,,,,0,,,69,100
86304,note_on,,,,,32,0,7,,,,,0,,,70,85
86368,note_off,,,,,64,0,7,,,,,0,,,70,100
86400,note_on,,,,,184,0,11,,,,,4,,,50,85
86400,note_on,,,,,184,0,14,,,,,6,,,50,100
86400,note_on,,,,,0,0,13,,,,,6,,,70,100
86400,note_on,,,,,184,0,13,,,,,6,,,65,100
86400,note_on,,,,,32,0,7,,,,,0,,,65,85
86464,note_off,,,,,64,0,7,,,,,0,,,65,100
86496,note_on,,,,,32,0,7,,,,,0,,,70,85
86560,note_off,,,,,64,0,7,,,,,0,,,70,100
86592,note_on,,,,,32,0,7,,,,,0,,,69,85
86600,note_off,,,,,200,0,11,,,,,4,,,50,100
86600,note_off,,,,,200,0,13,,,,,6,,,65,100
86600,note_off,,,,,0,0,13,,,,,6,,,70,100
86600,note_off,,,,,200,0,14,,,,,6,,,50,100
86656,note_off,,,,,64,0,7,,,,,0,,,69,100
86688,note_on,,,,,32,0,7,,,,,0,,,70,85
86752,note_off,,,,,64,0,7,,,,,0,,,70,100
86784,note_on,,,,,32,0,7,,,,,0,,,67,85
86784,note_on,,,,,184,0,11,,,,,4,,,51,85
86784,note_on,,,,,184,0,13,,,,,6,,,63,100
86784,note_on,,,,,184,0,14,,,,,6,,,51,100
86784,note_on,,,,,0,0,13,,,,,6,,,67,100
86972,note_off,,,,,188,0,7,,,,,0,,,67,100
86976,note_on,,,,,4,0,7,,,,,0,,,63,84
86984,note_off,,,,,0,0,13,,,,,6,,,67,100
86984,note_off,,,,,200,0,13,,,,,6,,,63,100
86984,note_off,,,,,200,0,11,,,,,4,,,51,100
86984,note_off,,,,,200,0,14,,,,,6,,,51,100
87164,note_off,,,,,188,0,7,,,,,0,,,63,100
87168,note_on,,,,,4,0,7,,,,,0,,,62,82
87356,note_off,,,,,188,0,7,,,,,0,,,62,100
87360,note_on,,,,,4,0,7,,,,,0,,,63,81
87488,note_off,,,,,128,0,7,,,,,0,,,63,100
87552,note_on,,,,,0,0,13,,,,,6,,,70,100
87552,note_on,,,,,568,0,11,,,,,4,,,51,75
87552,note_on,,,,,568,0,14,,,,,6,,,51,100
87552,note_on,,,,,568,0,13,,,,,6,,,67,100
87552,note_on,,,,,64,0,7,,,,,0,,,67,75
87740,note_off,,,,,188,0,7,,,,,0,,,67,100
87744,note_on,,,,,4,0,7,,,,,0,,,63,75
87752,note_off,,,,,0,0,13,,,,,6,,,70,100
87752,note_off,,,,,200,0,13,,,,,6,,,67,100
87752,note_off,,,,,200,0,11,,,,,4,,,51,100
87752,note_off,,,,,200,0,14,,,,,6,,,51,100
87932,note_off,,,,,188,0,7,,,,,0,,,63,100
87936,note_on,,,,,4,0,7,,,,,0,,,62,75
88124,note_off,,,,,188,0,7,,,,,0,,,62,100
88128,note_on,,,,,4,0,7,,,,,0,,,63,75
88256,note_off,,,,,128,0,7,,,,,0,,,63,100
88320,note_on,,,,,0,0,13,,,,,6,,,64,100
88320,note_on,,,,,568,0,11,,,,,4,,,48,90
88320,note_on,,,,,64,0,7,,,,,0,,,67,90
88320,note_on,,,,,568,0,13,,,,,6,,,67,100
88320,note_on,,,,,568,0,14,,,,,6,,,48,100
88384,note_off,,,,,64,0,7,,,,,0,,,67,100
88416,note_on,,,,,32,0,7,,,,,0,,,72,90
88480,note_off,,,,,64,0,7,,,,,0,,,72,100
88512,note_on,,,,,32,0,7,,,,,0,,,70,90
88520,note_off,,,,,200,0,13,,,,,6,,,67,100
88520,note_off,,,,,0,0,13,,,,,6,,,64,100
88520,note_off,,,,,200,0,14,,,,,6,,,48,100
88520,note_off,,,,,200,0,11,,,,,4,,,48,100
88576,note_off,,,,,64,0,7,,,,,0,,,70,100
88608,note_on,,,,,32,0,7,,,,,0,,,72,90
88672,note_off,,,,,64,0,7,,,,,0,,,72,100
88704,note_on,,,,,184,0,14,,,,,6,,,52,100
88704,note_on,,,,,184,0,11,,,,,4,,,52,90
88704,note_on,,,,,0,0,13,,,,,6,,,72,100
88704,note_on,,,,,184,0,13,,,,,6,,,67,100
88704,note_on,,,,,32,0,7,,,,,0,,,67,90
88768,note_off,,,,,64,0,7,,,,,0,,,67,100
88800,note_on,,,,,32,0,7,,,,,0,,,72,90
88864,note_off,,,,,64,0,7,,,,,0,,,72,100
88896,note_on,,,,,32,0,7,,,,,0,,,70,90
88904,note_off,,,,,200,0,14,,,,,6,,,52,100
88904,note_off,,,,,200,0,11,,,,,4,,,52,100
88904,note_off,,,,,200,0,13,,,,,6,,,67,100
88904,note_off,,,,,0,0,13,,,,,6,,,72,100
88960,note_off,,,,,64,0,7,,,,,0,,,70,100
88992,note_on,,,,,32,0,7,,,,,0,,,72,90
89056,note_off,,,,,64,0,7,,,,,0,,,72,100
89088,note_on,,,,,0,0,13,,,,,6,,,64,100
89088,note_on,,,,,184,0,13,,,,,6,,,67,100
89088,note_on,,,,,184,0,11,,,,,4,,,48,90
89088,note_on,,,,,184,0,14,,,,,6,,,48,100
89088,note_on,,,,,32,0,7,,,,,0,,,64,90
89152,note_off,,,,,64,0,7,,,,,0,,,64,100
89184,note_on,,,,,32,0,7,,,,,0,,,72,90
89248,note_off,,,,,64,0,7,,,,,0,,,72,100
89280,note_on,,,,,32,0,7,,,,,0,,,70,90
89288,note_off,,,,,0,0,13,,,,,6,,,64,100
89288,note_off,,,,,200,0,11,,,,,4,,,48,100
89288,note_off,,,,,200,0,13,,,,,6,,,67,100
89288,note_off,,,,,200,0,14,,,,,6,,,48,100
89344,note_off,,,,,64,0,7,,,,,0,,,70,100
89376,note_on,,,,,32,0,7,,,,,0,,,72,90
89440,note_off,,,,,64,0,7,,,,,0,,,72,100
89472,note_on,,,,,184,0,14,,,,,6,,,52,100
89472,note_on,,,,,32,0,7,,,,,0,,,67,90
89472,note_on,,,,,0,0,13,,,,,6,,,72,100
89472,note_on,,,,,184,0,11,,,,,4,,,52,90
89472,note_on,,,,,184,0,13,,,,,6,,,67,100
89536,note_off,,,,,64,0,7,,,,,0,,,67,100
89568,note_on,,,,,32,0,7,,,,,0,,,72,90
89632,note_off,,,,,64,0,7,,,,,0,,,72,100
89664,note_on,,,,,32,0,7,,,,,0,,,70,90
89672,note_off,,,,,0,0,13,,,,,6,,,72,100
89672,note_off,,,,,200,0,13,,,,,6,,,67,100
89672,note_off,,,,,200,0,14,,,,,6,,,52,100
89672,note_off,,,,,200,0,11,,,,,4,,,52,100
89728,note_off,,,,,64,0,7,,,,,0,,,70,100
89760,note_on,,,,,32,0,7,,,,,0,,,72,90
89824,note_off,,,,,64,0,7,,,,,0,,,72,100
89856,note_on,,,,,32,0,7,,,,,0,,,64,90
89856,note_on,,,,,184,0,11,,,,,4,,,48,90
89856,note_on,,,,,184,0,14,,,,,6,,,48,100
89856,note_on,,,,,184,0,13,,,,,6,,,67,100
89856,note_on,,,,,0,0,13,,,,,6,,,64,100
89920,note_off,,,,,64,0,7,,,,,0,,,64,100
89952,note_on,,,,,32,0,7,,,,,0,,,72,90
90016,note_off,,,,,64,0,7,,,,,0,,,72,100
90048,note_on,,,,,32,0,7,,,,,0,,,70,90
90056,note_off,,,,,200,0,13,,,,,6,,,67,100
90056,note_off,,,,,0,0,13,,,,,6,,,64,100
90056,note_off,,,,,200,0,14,,,,,6,,,48,100
90056,note_off,,,,,200,0,11,,,,,4,,,48,100
90112,note_off,,,,,64,0,7,,,,,0,,,70,100
90144,note_on,,,,,32,0,7,,,,,0,,,72,90
90208,note_off,,,,,64,0,7,,,,,0,,,72,100
90240,note_on,,,,,0,0,13,,,,,6,,,72,100
90240,note_on,,,,,184,0,14,,,,,6,,,52,100
90240,note_on,,,,,184,0,11,,,,,4,,,52,90
90240,note_on,,,,,32,0,7,,,,,0,,,67,90
90240,note_on,,,,,184,0,13,,,,,6,,,67,100
90304,note_off,,,,,64,0,7,,,,,0,,,67,100
90336,note_on,,,,,32,0,7,,,,,0,,,72,90
90400,note_off,,,,,64,0,7,,,,,0,,,72,100
90432,note_on,,,,,32,0,7,,,,,0,,,70,90
90440,note_off,,,,,200,0,11,,,,,4,,,52,100
90440,note_off,,,,,0,0,13,,,,,6,,,72,100
90440,note_off,,,,,200,0,13,,,,,6,,,67,100
90440,note_off,,,,,200,0,14,,,,,6,,,52,100
90496,note_off,,,,,64,0,7,,,,,0,,,70,100
90528,note_on,,,,,32,0,7,,,,,0,,,72,90
90592,note_off,,,,,64,0,7,,,,,0,,,72,100
90624,note_on,,,,,32,0,7,,,,,0,,,69,90
90624,note_on,,,,,184,0,13,,,,,6,,,65,100
90624,note_on,,,,,0,0,13,,,,,6,,,69,100
90624,note_on,,,,,184,0,14,,,,,6,,,53,100
90624,note_on,,,,,184,0,11,,,,,4,,,53,90
90812,note_off,,,,,188,0,7,,,,,0,,,69,100
90816,note_on,,,,,4,0,7,,,,,0,,,65,89
90824,note_off,,,,,200,0,13,,,,,6,,,65,100
90824,note_off,,,,,200,0,14,,,,,6,,,53,100
90824,note_off,,,,,200,0,11,,,,,4,,,53,100
90824,note_off,,,,,0,0,13,,,,,6,,,69,100
91004,note_off,,,,,188,0,7,,,,,0,,,65,100
91008,note_on,,,,,4,0,7,,,,,0,,,64,87
91196,note_off,,,,,188,0,7,,,,,0,,,64,100
91200,note_on,,,,,4,0,7,,,,,0,,,65,86
91328,note_off,,,,,128,0,7,,,,,0,,,65,100
91392,note_on,,,,,568,0,11,,,,,4,,,53,80
91392,note_on,,,,,0,0,13,,,,,6,,,72,100
91392,note_on,,,,,568,0,13,,,,,6,,,69,100
91392,note_on,,,,,568,0,14,,,,,6,,,53,100
91392,note_on,,,,,64,0,7,,,,,0,,,69,80
91580,note_off,,,,,188,0,7,,,,,0,,,69,100
91584,note_on,,,,,4,0,7,,,,,0,,,65,80
91592,note_off,,,,,200,0,11,,,,,4,,,53,100
91592,note_off,,,,,0,0,13,,,,,6,,,72,100
91592,note_off,,,,,200,0,13,,,,,6,,,69,100
91592,note_off,,,,,200,0,14,,,,,6,,,53,100
91772,note_off,,,,,188,0,7,,,,,0,,,65,100
91776,note_on,,,,,4,0,7,,,,,0,,,64,80
91964,note_off,,,,,188,0,7,,,,,0,,,64,100
91968,note_on,,,,,4,0,7,,,,,0,,,65,80
92096,note_off,,,,,128,0,7,,,,,0,,,65,100
92160,note_on,,,,,568,0,14,,,,,6,,,50,100
92160,note_on,,,,,64,0,7,,,,,0,,,69,95
92160,note_on,,,,,0,0,13,,,,,6,,,66,100
92160,note_on,,,,,568,0,13,,,,,6,,,69,100
92160,note_on,,,,,568,0,11,,,,,4,,,50,95
92224,note_off,,,,,64,0,7,,,,,0,,,69,100
92256,note_on,,,,,32,0,7,,,,,0,,,74,95
92320,note_off,,,,,64,0,7,,,,,0,,,74,100
92352,note_on,,,,,32,0,7,,,,,0,,,72,95
92360,note_off,,,,,200,0,11,,,,,4,,,50,100
92360,note_off,,,,,200,0,13,,,,,6,,,69,100
92360,note_off,,,,,0,0,13,,,,,6,,,66,100
92360,note_off,,,,,200,0,14,,,,,6,,,50,100
92416,note_off,,,,,64,0,7,,,,,0,,,72,100
92448,note_on,,,,,32,0,7,,,,,0,,,74,95
92512,note_off,,,,,64,0,7,,,,,0,,,74,100
92544,note_on,,,,,32,0,7,,,,,0,,,69,95
92544,note_on,,,,,0,0,13,,,,,6,,,74,100
92544,note_on,,,,,184,0,13,,,,,6,,,69,100
92544,note_on,,,,,184,0,14,,,,,6,,,54,100
92544,note_on,,,,,184,0,11,,,,,4,,,54,95
92608,note_off,,,,,64,0,7,,,,,0,,,69,100
92640,note_on,,,,,32,0,7,,,,,0,,,74,95
92704,note_off,,,,,64,0,7,,,,,0,,,74,100
92736,note_on,,,,,32,0,7,,,,,0,,,72,95
92744,note_off,,,,,200,0,13,,,,,6,,,69,100
92744,note_off,,,,,200,0,14,,,,,6,,,54,100
92744,note_off,,,,,0,0,13,,,,,6,,,74,100
92744,note_off,,,,,200,0,11,,,,,4,,,54,100
92800,note_off,,,,,64,0,7,,,,,0,,,72,100
92832,note_on,,,,,32,0,7,,,,,0,,,74,95
92896,note_off,,,,,64,0,7,,,,,0,,,74,100
92928,note_on,,,,,184,0,11,,,,,4,,,50,95
92928,note_on,,,,,32,0,7,,,,,0,,,66,95
92928,note_on,,,,,184,0,13,,,,,6,,,69,100
92928,note_on,,,,,0,0,13,,,,,6,,,66,100
92928,note_on,,,,,184,0,14,,,,,6,,,50,100
92992,note_off,,,,,64,0,7,,,,,0,,,66,100
93024,note_on,,,,,32,0,7,,,,,0,,,74,95
93088,note_off,,,,,64,0,7,,,,,0,,,74,100
93120,note_on,,,,,32,0,7,,,,,0,,,72,95
93128,note_off,,,,,200,0,11,,,,,4,,,50,100
93128,note_off,,,,,0,0,13,,,,,6,,,66,100
93128,note_off,,,,,200,0,13,,,,,6,,,69,100
93128,note_off,,,,,200,0,14,,,,,6,,,50,100
93184,note_off,,,,,64,0,7,,,,,0,,,72,100
93216,note_on,,,,,32,0,7,,,,,0,,,74,95
93280,note_off,,,,,64,0,7,,,,,0,,,74,100
93312,note_on,,,,,184,0,11,,,,,4,,,54,95
93312,note_on,,,,,0,0,13,,,,,6,,,74,100
93312,note_on,,,,,184,0,13,,,,,6,,,69,100
93312,note_on,,,,,184,0,14,,,,,6,,,54,100
93312,note_on,,,,,32,0,7,,,,,0,,,69,95
93376,note_off,,,,,64,0,7,,,,,0,,,69,100
93408,note_on,,,,,32,0,7,,,,,0,,,74,95
93472,note_off,,,,,64,0,7,,,,,0,,,74,100
93504,note_on,,,,,32,0,7,,,,,0,,,72,95
93512,note_off,,,,,200,0,13,,,,,6,,,69,100
93512,note_off,,,,,0,0,13,,,,,6,,,74,100
93512,note_off,,,,,200,0,11,,,,,4,,,54,100
93512,note_off,,,,,200,0,14,,,,,6,,,54,100
93568,note_off,,,,,64,0,7,,,,,0,,,72,100
93600,note_on,,,,,32,0,7,,,,,0,,,74,95
93664,note_off,,,,,64,0,7,,,,,0,,,74,100
93696,note_on,,,,,184,0,11,,,,,4,,,50,95
93696,note_on,,,,,0,0,13,,,,,6,,,66,100
93696,note_on,,,,,184,0,14,,,,,6,,,50,100
93696,note_on,,,,,184,0,13,,,,,6,,,69,100
93696,note_on,,,,,32,0,7,,,,,0,,,66,95
93760,note_off,,,,,64,0,7,,,,,0,,,66,100
93792,note_on,,,,,32,0,7,,,,,0,,,74,95
93856,note_off,,,,,64,0,7,,,,,0,,,74,100
93888,note_on,,,,,32,0,7,,,,,0,,,72,95
93896,note_off,,,,,200,0,11,,,,,4,,,50,100
93896,note_off,,,,,200,0,14,,,,,6,,,50,100
93896,note_off,,,,,200,0,13,,,,,6,,,69,100
93896,note_off,,,,,0,0,13,,,,,6,,,66,100
93952,note_off,,,,,64,0,7,,,,,0,,,72,100
93984,note_on,,,,,32,0,7,,,,,0,,,74,95
94048,note_off,,,,,64,0,7,,,,,0,,,74,100
94080,note_on,,,,,184,0,11,,,,,4,,,54,95
94080,note_on,,,,,0,0,13,,,,,6,,,74,100
94080,note_on,,,,,184,0,13,,,,,6,,,69,100
94080,note_on,,,,,32,0,7,,,,,0,,,69,95
94080,note_on,,,,,184,0,14,,,,,6,,,54,100
94144,note_off,,,,,64,0,7,,,,,0,,,69,100
94176,note_on,,,,,32,0,7,,,,,0,,,74,95
94240,note_off,,,,,64,0,7,,,,,0,,,74,100
94272,note_on,,,,,32,0,7,,,,,0,,,72,95
94280,note_off,,,,,0,0,13,,,,,6,,,74,100
94280,note_off,,,,,200,0,13,,,,,6,,,69,100
94280,note_off,,,,,200,0,14,,,,,6,,,54,100
94280,note_off,,,,,200,0,11,,,,,4,,,54,100
94336,note_off,,,,,64,0,7,,,,,0,,,72,100
94368,note_on,,,,,32,0,7,,,,,0,,,74,95
94432,note_off,,,,,64,0,7,,,,,0,,,74,100
94464,note_on,,,,,184,0,11,,,,,4,,,55,95
94464,note_on,,,,,184,0,14,,,,,6,,,55,100
94464,note_on,,,,,32,0,7,,,,,0,,,70,95
94464,note_on,,,,,184,0,13,,,,,6,,,67,100
94464,note_on,,,,,0,0,13,,,,,6,,,70,100
94652,note_off,,,,,188,0,7,,,,,0,,,70,100
94656,note_on,,,,,4,0,7,,,,,0,,,67,94
94664,note_off,,,,,200,0,11,,,,,4,,,55,100
94664,note_off,,,,,200,0,14,,,,,6,,,55,100
94664,note_off,,,,,200,0,13,,,,,6,,,67,100
94664,note_off,,,,,0,0,13,,,,,6,,,70,100
94844,note_off,,,,,188,0,7,,,,,0,,,67,100
94848,note_on,,,,,4,0,7,,,,,0,,,66,92
95036,note_off,,,,,188,0,7,,,,,0,,,66,100
95040,note_on,,,,,4,0,7,,,,,0,,,67,91
95168,note_off,,,,,128,0,7,,,,,0,,,67,100
95232,note_on,,,,,568,0,14,,,,,6,,,55,100
95232,note_on,,,,,568,0,13,,,,,6,,,70,100
95232,note_on,,,,,0,0,13,,,,,6,,,74,100
95232,note_on,,,,,64,0,7,,,,,0,,,70,85
95232,note_on,,,,,568,0,11,,,,,4,,,55,85
95420,note_off,,,,,188,0,7,,,,,0,,,70,100
95424,note_on,,,,,4,0,7,,,,,0,,,67,85
95432,note_off,,,,,200,0,11,,,,,4,,,55,100
95432,note_off,,,,,200,0,13,,,,,6,,,70,100
95432,note_off,,,,,0,0,13,,,,,6,,,74,100
95432,note_off,,,,,200,0,14,,,,,6,,,55,100
95612,note_off,,,,,188,0,7,,,,,0,,,67,100
95616,note_on,,,,,4,0,7,,,,,0,,,66,85
95804,note_off,,,,,188,0,7,,,,,0,,,66,100
95808,note_on,,,,,4,0,7,,,,,0,,,67,85
95936,note_off,,,,,128,0,7,,,,,0,,,67,100
96000,note_on,,,,,568,0,11,,,,,4,,,51,100
96000,note_on,,,,,64,0,7,,,,,0,,,70,100
96000,note_on,,,,,568,0,13,,,,,6,,,70,100
96000,note_on,,,,,0,0,13,,,,,6,,,67,100
96000,note_on,,,,,568,0,14,,,,,6,,,51,100
96064,note_off,,,,,64,0,7,,,,,0,,,70,100
96096,note_on,,,,,32,0,7,,,,,0,,,75,100
96160,note_off,,,,,64,0,7,,,,,0,,,75,100
96192,note_on,,,,,32,0,7,,,,,0,,,74,100
96200,note_off,,,,,200,0,11,,,,,4,,,51,100
96200,note_off,,,,,200,0,14,,,,,6,,,51,100
96200,note_off,,,,,0,0,13,,,,,6,,,67,100
96200,note_off,,,,,200,0,13,,,,,6,,,70,100
96256,note_off,,,,,64,0,7,,,,,0,,,74,100
96288,note_on,,,,,32,0,7,,,,,0,,,75,100
96352,note_off,,,,,64,0,7,,,,,0,,,75,100
96384,note_on,,,,,184,0,14,,,,,6,,,55,100
96384,note_on,,,,,0,0,13,,,,,6,,,75,100
96384,note_on,,,,,184,0,13,,,,,6,,,70,100
96384,note_on,,,,,184,0,11,,,,,4,,,55,100
96384,note_on,,,,,32,0,7,,,,,0,,,70,100
96448,note_off,,,,,64,0,7,,,,,0,,,70,100
96480,note_on,,,,,32,0,7,,,,,0,,,75,100
96544,note_off,,,,,64,0,7,,,,,0,,,75,100
96576,note_on,,,,,32,0,7,,,,,0,,,74,100
96584,note_off,,,,,0,0,13,,,,,6,,,75,100
96584,note_off,,,,,200,0,11,,,,,4,,,55,100
96584,note_off,,,,,200,0,14,,,,,6,,,55,100
96584,note_off,,,,,200,0,13,,,,,6,,,70,100
96640,note_off,,,,,64,0,7,,,,,0,,,74,100
96672,note_on,,,,,32,0,7,,,,,0,,,75,100
96736,note_off,,,,,64,0,7,,,,,0,,,75,100
96768,note_on,,,,,184,0,13,,,,,6,,,70,100
96768,note_on,,,,,0,0,13,,,,,6,,,67,100
96768,note_on,,,,,184,0,11,,,,,4,,,51,100
96768,note_on,,,,,32,0,7,,,,,0,,,67,100
96768,note_on,,,,,184,0,14,,,,,6,,,51,100
96832,note_off,,,,,64,0,7,,,,,0,,,67,100
96864,note_on,,,,,32,0,7,,,,,0,,,75,100
96928,note_off,,,,,64,0,7,,,,,0,,,75,100
96960,note_on,,,,,32,0,7,,,,,0,,,74,100
96968,note_off,,,,,200,0,14,,,,,6,,,51,100
96968,note_off,,,,,200,0,13,,,,,6,,,70,100
96968,note_off,,,,,0,0,13,,,,,6,,,67,100
96968,note_off,,,,,200,0,11,,,,,4,,,51,100
97024,note_off,,,,,64,0,7,,,,,0,,,74,100
97056,note_on,,,,,32,0,7,,,,,0,,,75,100
97120,note_off,,,,,64,0,7,,,,,0,,,75,100
97152,note_on,,,,,184,0,13,,,,,6,,,70,100
97152,note_on,,,,,184,0,11,,,,,4,,,55,100
97152,note_on,,,,,184,0,14,,,,,6,,,55,100
97152,note_on,,,,,0,0,13,,,,,6,,,75,100
97152,note_on,,,,,32,0,7,,,,,0,,,70,100
97216,note_off,,,,,64,0,7,,,,,0,,,70,100
97248,note_on,,,,,32,0,7,,,,,0,,,75,100
97312,note_off,,,,,64,0,7,,,,,0,,,75,100
97344,note_on,,,,,32,0,7,,,,,0,,,74,100
97352,note_off,,,,,200,0,11,,,,,4,,,55,100
97352,note_off,,,,,200,0,14,,,,,6,,,55,100
97352,note_off,,,,,0,0,13,,,,,6,,,75,100
97352,note_off,,,,,200,0,13,,,,,6,,,70,100
97408,note_off,,,,,64,0,7,,,,,0,,,74,100
97440,note_on,,,,,32,0,7,,,,,0,,,75,100
97504,note_off,,,,,64,0,7,,,,,0,,,75,100
97536,note_on,,,,,184,0,13,,,,,6,,,70,100
97536,note_on,,,,,0,0,13,,,,,6,,,67,100
97536,note_on,,,,,184,0,11,,,,,4,,,51,100
97536,note_on,,,,,32,0,7,,,,,0,,,67,100
97536,note_on,,,,,184,0,14,,,,,6,,,51,100
97600,note_off,,,,,64,0,7,,,,,0,,,67,100
97632,note_on,,,,,32,0,7,,,,,0,,,75,100
97696,note_off,,,,,64,0,7,,,,,0,,,75,100
97728,note_on,,,,,32,0,7,,,,,0,,,74,100
97736,note_off,,,,,200,0,13,,,,,6,,,70,100
97736,note_off,,,,,0,0,13,,,,,6,,,67,100
97736,note_off,,,,,200,0,11,,,,,4,,,51,100
97736,note_off,,,,,200,0,14,,,,,6,,,51,100
97792,note_off,,,,,64,0,7,,,,,0,,,74,100
97824,note_on,,,,,32,0,7,,,,,0,,,75,100
97888,note_off,,,,,64,0,7,,,,,0,,,75,100
97920,note_on,,,,,184,0,13,,,,,6,,,70,100
97920,note_on,,,,,32,0,7,,,,,0,,,70,100
97920,note_on,,,,,184,0,14,,,,,6,,,55,100
97920,note_on,,,,,184,0,11,,,,,4,,,55,100
97920,note_on,,,,,0,0,13,,,,,6,,,75,100
97984,note_off,,,,,64,0,7,,,,,0,,,70,100
98016,note_on,,,,,32,0,7,,,,,0,,,75,99
98080,note_off,,,,,64,0,7,,,,,0,,,75,100
98112,note_on,,,,,32,0,7,,,,,0,,,74,98
98120,note_off,,,,,200,0,14,,,,,6,,,55,100
98120,note_off,,,,,200,0,11,,,,,4,,,55,100
98120,note_off,,,,,200,0,13,,,,,6,,,70,100
98120,note_off,,,,,0,0,13,,,,,6,,,75,100
98176,note_off,,,,,64,0,7,,,,,0,,,74,100
98208,note_on,,,,,32,0,7,,,,,0,,,75,97
98272,note_off,,,,,64,0,7,,,,,0,,,75,100
98304,note_on,,,,,184,0,14,,,,,6,,,53,100
98304,note_on,,,,,184,0,11,,,,,4,,,53,96
98304,note_on,,,,,184,0,13,,,,,6,,,72,100
98304,note_on,,,,,0,0,13,,,,,6,,,69,100
98304,note_on,,,,,32,0,7,,,,,0,,,69,96
98368,note_off,,,,,64,0,7,,,,,0,,,69,100
98400,note_on,,,,,32,0,7,,,,,0,,,65,90
98464,note_off,,,,,64,0,7,,,,,0,,,65,100
98496,note_on,,,,,32,0,7,,,,,0,,,67,90
98504,note_off,,,,,200,0,11,,,,,4,,,53,100
98504,note_off,,,,,200,0,13,,,,,6,,,72,100
98504,note_off,,,,,200,0,14,,,,,6,,,53,100
98504,note_off,,,,,0,0,13,,,,,6,,,69,100
98560,note_off,,,,,64,0,7,,,,,0,,,67,100
98592,note_on,,,,,32,0,7,,,,,0,,,69,91
98656,note_off,,,,,64,0,7,,,,,0,,,69,100
98688,note_on,,,,,184,0,13,,,,,6,,,72,100
98688,note_on,,,,,0,0,13,,,,,6,,,65,100
98688,note_on,,,,,184,0,11,,,,,4,,,51,91
98688,note_on,,,,,184,0,14,,,,,6,,,51,100
98688,note_on,,,,,32,0,7,,,,,0,,,70,91
98752,note_off,,,,,64,0,7,,,,,0,,,70,100
98784,note_on,,,,,32,0,7,,,,,0,,,72,92
98848,note_off,,,,,64,0,7,,,,,0,,,72,100
98880,note_on,,,,,32,0,7,,,,,0,,,74,93
98888,note_off,,,,,0,0,13,,,,,6,,,65,100
98888,note_off,,,,,200,0,11,,,,,4,,,51,100
98888,note_off,,,,,200,0,13,,,,,6,,,72,100
98888,note_off,,,,,200,0,14,,,,,6,,,51,100
98944,note_off,,,,,64,0,7,,,,,0,,,74,100
98976,note_on,,,,,32,0,7,,,,,0,,,75,93
99040,note_off,,,,,64,0,7,,,,,0,,,75,100
99072,note_on,,,,,184,0,14,,,,,6,,,50,100
99072,note_on,,,,,32,0,7,,,,,0,,,77,94
99072,note_on,,,,,184,0,11,,,,,4,,,50,94
99072,note_on,,,,,0,0,13,,,,,6,,,70,100
99072,note_on,,,,,184,0,13,,,,,6,,,65,100
99136,note_off,,,,,64,0,7,,,,,0,,,77,100
99168,note_on,,,,,32,0,7,,,,,0,,,70,95
99232,note_off,,,,,64,0,7,,,,,0,,,70,100
99264,note_on,,,,,32,0,7,,,,,0,,,72,95
99272,note_off,,,,,200,0,14,,,,,6,,,50,100
99272,note_off,,,,,200,0,11,,,,,4,,,50,100
99272,note_off,,,,,200,0,13,,,,,6,,,65,100
99272,note_off,,,,,0,0,13,,,,,6,,,70,100
99328,note_off,,,,,64,0,7,,,,,0,,,72,100
99360,note_on,,,,,32,0,7,,,,,0,,,74,96
99424,note_off,,,,,64,0,7,,,,,0,,,74,100
99456,note_on,,,,,32,0,7,,,,,0,,,75,97
99456,note_on,,,,,184,0,13,,,,,6,,,65,100
99456,note_on,,,,,0,0,13,,,,,6,,,69,100
99456,note_on,,,,,184,0,14,,,,,6,,,48,100
99456,note_on,,,,,184,0,11,,,,,4,,,48,97
99520,note_off,,,,,64,0,7,,,,,0,,,75,100
99552,note_on,,,,,32,0,7,,,,,0,,,77,97
99616,note_off,,,,,64,0,7,,,,,0,,,77,100
99648,note_on,,,,,32,0,7,,,,,0,,,79,98
99656,note_off,,,,,0,0,13,,,,,6,,,69,100
99656,note_off,,,,,200,0,14,,,,,6,,,48,100
99656,note_off,,,,,200,0,13,,,,,6,,,65,100
99656,note_off,,,,,200,0,11,,,,,4,,,48,100
99712,note_off,,,,,64,0,7,,,,,0,,,79,100
99744,note_on,,,,,32,0,7,,,,,0,,,81,99
99808,note_off,,,,,64,0,7,,,,,0,,,81,100
99840,note_on,,,,,32,0,7,,,,,0,,,82,99
99840,note_on,,,,,184,0,11,,,,,4,,,46,99
99840,note_on,,,,,184,0,14,,,,,6,,,46,100
99840,note_on,,,,,0,0,13,,,,,6,,,62,100
99840,note_on,,,,,184,0,13,,,,,6,,,70,100
99904,note_off,,,,,64,0,7,,,,,0,,,82,100
99936,note_on,,,,,32,0,7,,,,,0,,,82,85
100000,note_off,,,,,64,0,7,,,,,0,,,82,100
100032,note_on,,,,,32,0,7,,,,,0,,,81,85
100040,note_off,,,,,200,0,11,,,,,4,,,46,100
100040,note_off,,,,,200,0,13,,,,,6,,,70,100
100040,note_off,,,,,0,0,13,,,,,6,,,62,100
100040,note_off,,,,,200,0,14,,,,,6,,,46,100
100096,note_off,,,,,64,0,7,,,,,0,,,81,100
100128,note_on,,,,,32,0,7,,,,,0,,,82,86
100192,note_off,,,,,64,0,7,,,,,0,,,82,100
100224,note_on,,,,,0,0,13,,,,,6,,,62,100
100224,note_on,,,,,184,0,14,,,,,6,,,58,100
100224,note_on,,,,,184,0,13,,,,,6,,,70,100
100224,note_on,,,,,32,0,7,,,,,0,,,74,90
100224,note_on,,,,,184,0,11,,,,,4,,,58,86
100288,note_off,,,,,64,0,7,,,,,0,,,74,100
100320,note_on,,,,,32,0,7,,,,,0,,,82,87
100384,note_off,,,,,64,0,7,,,,,0,,,82,100
100416,note_on,,,,,32,0,7,,,,,0,,,81,87
100424,note_off,,,,,200,0,11,,,,,4,,,58,100
100424,note_off,,,,,0,0,13,,,,,6,,,62,100
100424,note_off,,,,,200,0,14,,,,,6,,,58,100
100424,note_off,,,,,200,0,13,,,,,6,,,70,100
100480,note_off,,,,,64,0,7,,,,,0,,,81,100
100512,note_on,,,,,32,0,7,,,,,0,,,82,88
100576,note_off,,,,,64,0,7,,,,,0,,,82,100
100608,note_on,,,,,0,0,13,,,,,6,,,70,100
100608,note_on,,,,,184,0,14,,,,,6,,,60,100
100608,note_on,,,,,184,0,11,,,,,4,,,60,88
100608,note_on,,,,,184,0,13,,,,,6,,,63,100
100608,note_on,,,,,32,0,7,,,,,0,,,75,92
100672,note_off,,,,,64,0,7,,,,,0,,,75,100
100704,note_on,,,,,32,0,7,,,,,0,,,82,89
100768,note_off,,,,,64,0,7,,,,,0,,,82,100
100800,note_on,,,,,32,0,7,,,,,0,,,81,89
100808,note_off,,,,,200,0,13,,,,,6,,,63,100
100808,note_off,,,,,200,0,11,,,,,4,,,60,100
100808,note_off,,,,,200,0,14,,,,,6,,,60,100
100808,note_off,,,,,0,0,13,,,,,6,,,70,100
100864,note_off,,,,,64,0,7,,,,,0,,,81,100
100896,note_on,,,,,32,0,7,,,,,0,,,82,90
100960,note_off,,,,,64,0,7,,,,,0,,,82,100
100992,note_on,,,,,184,0,14,,,,,6,,,62,100
100992,note_on,,,,,184,0,11,,,,,4,,,62,91
100992,note_on,,,,,32,0,7,,,,,0,,,77,95
100992,note_on,,,,,184,0,13,,,,,6,,,65,100
100992,note_on,,,,,0,0,13,,,,,6,,,70,100
101056,note_off,,,,,64,0,7,,,,,0,,,77,100
101088,note_on,,,,,32,0,7,,,,,0,,,82,91
101152,note_off,,,,,64,0,7,,,,,0,,,82,100
101184,note_on,,,,,32,0,7,,,,,0,,,81,92
101192,note_off,,,,,0,0,13,,,,,6,,,70,100
101192,note_off,,,,,200,0,13,,,,,6,,,65,100
101192,note_off,,,,,200,0,11,,,,,4,,,62,100
101192,note_off,,,,,200,0,14,,,,,6,,,62,100
101248,note_off,,,,,64,0,7,,,,,0,,,81,100
101280,note_on,,,,,32,0,7,,,,,0,,,82,92
101344,note_off,,,,,64,0,7,,,,,0,,,82,100
101376,note_on,,,,,184,0,14,,,,,6,,,63,100
101376,note_on,,,,,184,0,11,,,,,4,,,63,93
101376,note_on,,,,,184,0,13,,,,,6,,,67,100
101376,note_on,,,,,32,0,7,,,,,0,,,79,97
101376,note_on,,,,,0,0,13,,,,,6,,,70,100
101440,note_off,,,,,64,0,7,,,,,0,,,79,100
101472,note_on,,,,,32,0,7,,,,,0,,,82,93
101536,note_off,,,,,64,0,7,,,,,0,,,82,100
101568,note_on,,,,,32,0,7,,,,,0,,,81,94
101576,note_off,,,,,200,0,14,,,,,6,,,63,100
101576,note_off,,,,,0,0,13,,,,,6,,,70,100
101576,note_off,,,,,200,0,11,,,,,4,,,63,100
101576,note_off,,,,,200,0,13,,,,,6,,,67,100
101632,note_off,,,,,64,0,7,,,,,0,,,81,100
101664,note_on,,,,,32,0,7,,,,,0,,,82,94
101728,note_off,,,,,64,0,7,,,,,0,,,82,100
101760,note_on,,,,,32,0,7,,,,,0,,,74,92
101760,note_on,,,,,0,0,13,,,,,6,,,62,100
101760,note_on,,,,,184,0,13,,,,,6,,,70,100
101760,note_on,,,,,184,0,11,,,,,4,,,58,88
101760,note_on,,,,,184,0,14,,,,,6,,,58,100
101824,note_off,,,,,64,0,7,,,,,0,,,74,100
101856,note_on,,,,,32,0,7,,,,,0,,,82,88
101920,note_off,,,,,64,0,7,,,,,0,,,82,100
101952,note_on,,,,,32,0,7,,,,,0,,,81,89
101960,note_off,,,,,200,0,13,,,,,6,,,70,100
101960,note_off,,,,,0,0,13,,,,,6,,,62,100
101960,note_off,,,,,200,0,14,,,,,6,,,58,100
101960,note_off,,,,,200,0,11,,,,,4,,,58,100
102016,note_off,,,,,64,0,7,,,,,0,,,81,100
102048,note_on,,,,,32,0,7,,,,,0,,,82,89
102112,note_off,,,,,64,0,7,,,,,0,,,82,100
102144,note_on,,,,,184,0,11,,,,,4,,,60,90
102144,note_on,,,,,32,0,7,,,,,0,,,75,94
102144,note_on,,,,,184,0,14,,,,,6,,,60,100
102144,note_on,,,,,184,0,13,,,,,6,,,63,100
102144,note_on,,,,,0,0,13,,,,,6,,,70,100
102208,note_off,,,,,64,0,7,,,,,0,,,75,100
102240,note_on,,,,,32,0,7,,,,,0,,,82,91
102304,note_off,,,,,64,0,7,,,,,0,,,82,100
102336,note_on,,,,,32,0,7,,,,,0,,,81,91
102344,note_off,,,,,0,0,13,,,,,6,,,70,100
102344,note_off,,,,,200,0,11,,,,,4,,,60,100
102344,note_off,,,,,200,0,13,,,,,6,,,63,100
102344,note_off,,,,,200,0,14,,,,,6,,,60,100
102400,note_off,,,,,64,0,7,,,,,0,,,81,100
102432,note_on,,,,,32,0,7,,,,,0,,,82,92
102496,note_off,,,,,64,0,7,,,,,0,,,82,100
102528,note_on,,,,,184,0,13,,,,,6,,,65,100
102528,note_on,,,,,0,0,13,,,,,6,,,70,100
102528,note_on,,,,,184,0,14,,,,,6,,,62,100
102528,note_on,,,,,32,0,7,,,,,0,,,77,97
102528,note_on,,,,,184,0,11,,,,,4,,,62,93
102592,note_off,,,,,64,0,7,,,,,0,,,77,100
102624,note_on,,,,,32,0,7,,,,,0,,,82,93
102688,note_off,,,,,64,0,7,,,,,0,,,82,100
102720,note_on,,,,,32,0,7,,,,,0,,,81,94
102728,note_off,,,,,200,0,14,,,,,6,,,62,100
102728,note_off,,,,,200,0,11,,,,,4,,,62,100
102728,note_off,,,,,0,0,13,,,,,6,,,70,100
102728,note_off,,,,,200,0,13,,,,,6,,,65,100
102784,note_off,,,,,64,0,7,,,,,0,,,81,100
102816,note_on,,,,,32,0,7,,,,,0,,,82,95
102880,note_off,,,,,64,0,7,,,,,0,,,82,100
102912,note_on,,,,,184,0,13,,,,,6,,,67,100
102912,note_on,,,,,184,0,11,,,,,4,,,63,95
102912,note_on,,,,,32,0,7,,,,,0,,,79,99
102912,note_on,,,,,0,0,13,,,,,6,,,70,100
102912,note_on,,,,,184,0,14,,,,,6,,,63,100
102976,note_off,,,,,64,0,7,,,,,0,,,79,100
103008,note_on,,,,,32,0,7,,,,,0,,,84,96
103072,note_off,,,,,64,0,7,,,,,0,,,84,100
103104,note_on,,,,,32,0,7,,,,,0,,,82,97
103112,note_off,,,,,200,0,14,,,,,6,,,63,100
103112,note_off,,,,,200,0,13,,,,,6,,,67,100
103112,note_off,,,,,0,0,13,,,,,6,,,70,100
103112,note_off,,,,,200,0,11,,,,,4,,,63,100
103168,note_off,,,,,64,0,7,,,,,0,,,82,100
103200,note_on,,,,,32,0,7,,,,,0,,,84,97
103264,note_off,,,,,64,0,7,,,,,0,,,84,100
103296,note_on,,,,,32,0,7,,,,,0,,,76,94
103296,note_on,,,,,184,0,14,,,,,6,,,60,100
103296,note_on,,,,,184,0,11,,,,,4,,,60,90
103296,note_on,,,,,184,0,13,,,,,6,,,72,100
103296,note_on,,,,,0,0,13,,,,,6,,,64,100
103360,note_off,,,,,64,0,7,,,,,0,,,76,100
103392,note_on,,,,,32,0,7,,,,,0,,,84,90
103456,note_off,,,,,64,0,7,,,,,0,,,84,100
103488,note_on,,,,,32,0,7,,,,,0,,,82,91
103496,note_off,,,,,200,0,11,,,,,4,,,60,100
103496,note_off,,,,,200,0,13,,,,,6,,,72,100
103496,note_off,,,,,0,0,13,,,,,6,,,64,100
103496,note_off,,,,,200,0,14,,,,,6,,,60,100
103552,note_off,,,,,64,0,7,,,,,0,,,82,100
103584,note_on,,,,,32,0,7,,,,,0,,,84,91
103648,note_off,,,,,64,0,7,,,,,0,,,84,100
103680,note_on,,,,,32,0,7,,,,,0,,,77,96
103680,note_on,,,,,184,0,11,,,,,4,,,62,92
103680,note_on,,,,,184,0,13,,,,,6,,,65,100
103680,note_on,,,,,184,0,14,,,,,6,,,62,100
103680,note_on,,,,,0,0,13,,,,,6,,,72,100
103744,note_off,,,,,64,0,7,,,,,0,,,77,100
103776,note_on,,,,,32,0,7,,,,,0,,,84,93
103840,note_off,,,,,64,0,7,,,,,0,,,84,100
103872,note_on,,,,,32,0,7,,,,,0,,,82,93
103880,note_off,,,,,200,0,14,,,,,6,,,62,100
103880,note_off,,,,,200,0,11,,,,,4,,,62,100
103880,note_off,,,,,0,0,13,,,,,6,,,72,100
103880,note_off,,,,,200,0,13,,,,,6,,,65,100
103936,note_off,,,,,64,0,7,,,,,0,,,82,100
103968,note_on,,,,,32,0,7,,,,,0,,,84,94
104032,note_off,,,,,64,0,7,,,,,0,,,84,100
104064,note_on,,,,,0,0,13,,,,,6,,,72,100
104064,note_on,,,,,184,0,13,,,,,6,,,67,100
104064,note_on,,,,,32,0,7,,,,,0,,,79,99
104064,note_on,,,,,184,0,11,,,,,4,,,64,95
104064,note_on,,,,,184,0,14,,,,,6,,,64,100
104128,note_off,,,,,64,0,7,,,,,0,,,79,100
104160,note_on,,,,,32,0,7,,,,,0,,,84,95
104224,note_off,,,,,64,0,7,,,,,0,,,84,100
104256,note_on,,,,,32,0,7,,,,,0,,,82,96
104264,note_off,,,,,200,0,11,,,,,4,,,64,100
104264,note_off,,,,,200,0,13,,,,,6,,,67,100
104264,note_off,,,,,0,0,13,,,,,6,,,72,100
104264,note_off,,,,,200,0,14,,,,,6,,,64,100
104320,note_off,,,,,64,0,7,,,,,0,,,82,100
104352,note_on,,,,,32,0,7,,,,,0,,,84,97
104416,note_off,,,,,64,0,7,,,,,0,,,84,100
104448,note_on,,,,,184,0,14,,,,,6,,,65,100
104448,note_on,,,,,184,0,11,,,,,4,,,65,97
104448,note_on,,,,,0,0,13,,,,,6,,,72,100
104448,note_on,,,,,184,0,13,,,,,6,,,69,100
104448,note_on,,,,,32,0,7,,,,,0,,,81,101
104512,note_off,,,,,64,0,7,,,,,0,,,81,100
104544,note_on,,,,,32,0,7,,,,,0,,,84,98
104608,note_off,,,,,64,0,7,,,,,0,,,84,100
104640,note_on,,,,,32,0,7,,,,,0,,,82,99
104648,note_off,,,,,0,0,13,,,,,6,,,72,100
104648,note_off,,,,,200,0,14,,,,,6,,,65,100
104648,note_off,,,,,200,0,13,,,,,6,,,69,100
104648,note_off,,,,,200,0,11,,,,,4,,,65,100
104704,note_off,,,,,64,0,7,,,,,0,,,82,100
104736,note_on,,,,,32,0,7,,,,,0,,,84,99
104800,note_off,,,,,64,0,7,,,,,0,,,84,100
104832,note_on,,,,,184,0,14,,,,,6,,,60,100
104832,note_on,,,,,32,0,7,,,,,0,,,76,97
104832,note_on,,,,,0,0,13,,,,,6,,,64,100
104832,note_on,,,,,184,0,13,,,,,6,,,72,100
104832,note_on,,,,,184,0,11,,,,,4,,,60,93
104896,note_off,,,,,64,0,7,,,,,0,,,76,100
104928,note_on,,,,,32,0,7,,,,,0,,,84,93
104992,note_off,,,,,64,0,7,,,,,0,,,84,100
105024,note_on,,,,,32,0,7,,,,,0,,,82,94
105032,note_off,,,,,200,0,13,,,,,6,,,72,100
105032,note_off,,,,,0,0,13,,,,,6,,,64,100
105032,note_off,,,,,200,0,11,,,,,4,,,60,100
105032,note_off,,,,,200,0,14,,,,,6,,,60,100
105088,note_off,,,,,64,0,7,,,,,0,,,82,100
105120,note_on,,,,,32,0,7,,,,,0,,,84,94
105184,note_off,,,,,64,0,7,,,,,0,,,84,100
105216,note_on,,,,,32,0,7,,,,,0,,,77,99
105216,note_on,,,,,184,0,13,,,,,6,,,65,100
105216,note_on,,,,,184,0,11,,,,,4,,,62,95
105216,note_on,,,,,184,0,14,,,,,6,,,62,100
105216,note_on,,,,,0,0,13,,,,,6,,,72,100
105280,note_off,,,,,64,0,7,,,,,0,,,77,100
105312,note_on,,,,,32,0,7,,,,,0,,,84,96
105376,note_off,,,,,64,0,7,,,,,0,,,84,100
105408,note_on,,,,,32,0,7,,,,,0,,,82,96
105416,note_off,,,,,200,0,14,,,,,6,,,62,100
105416,note_off,,,,,200,0,11,,,,,4,,,62,100
105416,note_off,,,,,0,0,13,,,,,6,,,72,100
105416,note_off,,,,,200,0,13,,,,,6,,,65,100
105472,note_off,,,,,64,0,7,,,,,0,,,82,100
105504,note_on,,,,,32,0,7,,,,,0,,,84,97
105568,note_off,,,,,64,0,7,,,,,0,,,84,100
105600,note_on,,,,,184,0,13,,,,,6,,,67,100
105600,note_on,,,,,184,0,14,,,,,6,,,64,100
105600,note_on,,,,,32,0,7,,,,,0,,,79,102
105600,note_on,,,,,184,0,11,,,,,4,,,64,98
105600,note_on,,,,,0,0,13,,,,,6,,,72,100
105664,note_off,,,,,64,0,7,,,,,0,,,79,100
105696,note_on,,,,,32,0,7,,,,,0,,,84,98
105760,note_off,,,,,64,0,7,,,,,0,,,84,100
105792,note_on,,,,,32,0,7,,,,,0,,,82,99
105800,note_off,,,,,200,0,11,,,,,4,,,64,100
105800,note_off,,,,,0,0,13,,,,,6,,,72,100
105800,note_off,,,,,200,0,13,,,,,6,,,67,100
105800,note_off,,,,,200,0,14,,,,,6,,,64,100
105856,note_off,,,,,64,0,7,,,,,0,,,82,100
105888,note_on,,,,,32,0,7,,,,,0,,,84,100
105952,note_off,,,,,64,0,7,,,,,0,,,84,100
105984,note_on,,,,,184,0,11,,,,,4,,,65,100
105984,note_on,,,,,32,0,7,,,,,0,,,81,104
105984,note_on,,,,,0,0,13,,,,,6,,,72,100
105984,note_on,,,,,184,0,13,,,,,6,,,69,100
105984,note_on,,,,,184,0,14,,,,,6,,,65,100
106048,note_off,,,,,64,0,7,,,,,0,,,81,100
106080,note_on,,,,,32,0,7,,,,,0,,,86,101
106144,note_off,,,,,64,0,7,,,,,0,,,86,100
106176,note_on,,,,,32,0,7,,,,,0,,,84,102
106184,note_off,,,,,200,0,11,,,,,4,,,65,100
106184,note_off,,,,,200,0,14,,,,,6,,,65,100
106184,note_off,,,,,200,0,13,,,,,6,,,69,100
106184,note_off,,,,,0,0,13,,,,,6,,,72,100
106240,note_off,,,,,64,0,7,,,,,0,,,84,100
106272,note_on,,,,,32,0,7,,,,,0,,,86,102
106336,note_off,,,,,64,0,7,,,,,0,,,86,100
106368,note_on,,,,,184,0,13,,,,,6,,,74,100
106368,note_on,,,,,184,0,14,,,,,6,,,62,100
106368,note_on,,,,,32,0,7,,,,,0,,,78,99
106368,note_on,,,,,184,0,11,,,,,4,,,62,95
106368,note_on,,,,,0,0,13,,,,,6,,,66,100
106432,note_off,,,,,64,0,7,,,,,0,,,78,100
106464,note_on,,,,,32,0,7,,,,,0,,,86,95
106528,note_off,,,,,64,0,7,,,,,0,,,86,100
106560,note_on,,,,,32,0,7,,,,,0,,,84,96
106568,note_off,,,,,200,0,11,,,,,4,,,62,100
106568,note_off,,,,,0,0,13,,,,,6,,,66,100
106568,note_off,,,,,200,0,14,,,,,6,,,62,100
106568,note_off,,,,,200,0,13,,,,,6,,,74,100
106624,note_off,,,,,64,0,7,,,,,0,,,84,100
106656,note_on,,,,,32,0,7,,,,,0,,,86,96
106720,note_off,,,,,64,0,7,,,,,0,,,86,100
106752,note_on,,,,,184,0,11,,,,,4,,,64,97
106752,note_on,,,,,32,0,7,,,,,0,,,79,101
106752,note_on,,,,,184,0,13,,,,,6,,,67,100
106752,note_on,,,,,0,0,13,,,,,6,,,74,100
106752,note_on,,,,,184,0,14,,,,,6,,,64,100
106816,note_off,,,,,64,0,7,,,,,0,,,79,100
106848,note_on,,,,,32,0,7,,,,,0,,,86,98
106912,note_off,,,,,64,0,7,,,,,0,,,86,100
106944,note_on,,,,,32,0,7,,,,,0,,,84,98
106952,note_off,,,,,200,0,11,,,,,4,,,64,100
106952,note_off,,,,,200,0,13,,,,,6,,,67,100
106952,note_off,,,,,0,0,13,,,,,6,,,74,100
106952,note_off,,,,,200,0,14,,,,,6,,,64,100
107008,note_off,,,,,64,0,7,,,,,0,,,84,100
107040,note_on,,,,,32,0,7,,,,,0,,,86,99
107104,note_off,,,,,64,0,7,,,,,0,,,86,100
107136,note_on,,,,,184,0,11,,,,,4,,,66,100
107136,note_on,,,,,32,0,7,,,,,0,,,81,104
107136,note_on,,,,,0,0,13,,,,,6,,,74,100
107136,note_on,,,,,184,0,14,,,,,6,,,66,100
107136,note_on,,,,,184,0,13,,,,,6,,,69,100
107200,note_off,,,,,64,0,7,,,,,0,,,81,100
107232,note_on,,,,,32,0,7,,,,,0,,,86,100
107296,note_off,,,,,64,0,7,,,,,0,,,86,100
107328,note_on,,,,,32,0,7,,,,,0,,,84,101
107336,note_off,,,,,200,0,14,,,,,6,,,66,100
107336,note_off,,,,,0,0,13,,,,,6,,,74,100
107336,note_off,,,,,200,0,13,,,,,6,,,69,100
107336,note_off,,,,,200,0,11,,,,,4,,,66,100
107392,note_off,,,,,64,0,7,,,,,0,,,84,100
107424,note_on,,,,,32,0,7,,,,,0,,,86,102
107488,note_off,,,,,64,0,7,,,,,0,,,86,100
107520,note_on,,,,,184,0,13,,,,,6,,,70,100
107520,note_on,,,,,0,0,13,,,,,6,,,74,100
107520,note_on,,,,,184,0,14,,,,,6,,,67,100
107520,note_on,,,,,32,0,7,,,,,0,,,82,106
107520,note_on,,,,,184,0,11,,,,,4,,,67,102
107584,note_off,,,,,64,0,7,,,,,0,,,82,100
107616,note_on,,,,,32,0,7,,,,,0,,,86,103
107680,note_off,,,,,64,0,7,,,,,0,,,86,100
107712,note_on,,,,,32,0,7,,,,,0,,,84,104
107720,note_off,,,,,0,0,13,,,,,6,,,74,100
107720,note_off,,,,,200,0,14,,,,,6,,,67,100
107720,note_off,,,,,200,0,13,,,,,6,,,70,100
107720,note_off,,,,,200,0,11,,,,,4,,,67,100
107776,note_off,,,,,64,0,7,,,,,0,,,84,100
107808,note_on,,,,,32,0,7,,,,,0,,,86,104
107872,note_off,,,,,64,0,7,,,,,0,,,86,100
107904,note_on,,,,,184,0,13,,,,,6,,,74,100
107904,note_on,,,,,0,0,13,,,,,6,,,66,100
107904,note_on,,,,,184,0,14,,,,,6,,,62,100
107904,note_on,,,,,32,0,7,,,,,0,,,78,102
107904,note_on,,,,,184,0,11,,,,,4,,,62,98
107968,note_off,,,,,64,0,7,,,,,0,,,78,100
108000,note_on,,,,,32,0,7,,,,,0,,,86,98
108064,note_off,,,,,64,0,7,,,,,0,,,86,100
108096,note_on,,,,,32,0,7,,,,,0,,,84,99
108104,note_off,,,,,200,0,11,,,,,4,,,62,100
108104,note_off,,,,,200,0,14,,,,,6,,,62,100
108104,note_off,,,,,0,0,13,,,,,6,,,66,100
108104,note_off,,,,,200,0,13,,,,,6,,,74,100
108160,note_off,,,,,64,0,7,,,,,0,,,84,100
108192,note_on,,,,,32,0,7,,,,,0,,,86,100
108256,note_off,,,,,64,0,7,,,,,0,,,86,100
108288,note_on,,,,,184,0,14,,,,,6,,,64,100
108288,note_on,,,,,184,0,11,,,,,4,,,64,101
108288,note_on,,,,,32,0,7,,,,,0,,,79,105
108288,note_on,,,,,184,0,13,,,,,6,,,67,100
108288,note_on,,,,,0,0,13,,,,,6,,,74,100
108352,note_off,,,,,64,0,7,,,,,0,,,79,100
108384,note_on,,,,,32,0,7,,,,,0,,,86,102
108448,note_off,,,,,64,0,7,,,,,0,,,86,100
108480,note_on,,,,,32,0,7,,,,,0,,,84,102
108488,note_off,,,,,0,0,13,,,,,6,,,74,100
108488,note_off,,,,,200,0,14,,,,,6,,,64,100
108488,note_off,,,,,200,0,13,,,,,6,,,67,100
108488,note_off,,,,,200,0,11,,,,,4,,,64,100
108544,note_off,,,,,64,0,7,,,,,0,,,84,100
108576,note_on,,,,,32,0,7,,,,,0,,,86,103
108640,note_off,,,,,64,0,7,,,,,0,,,86,100
108672,note_on,,,,,32,0,7,,,,,0,,,81,108
108672,note_on,,,,,184,0,13,,,,,6,,,69,100
108672,note_on,,,,,0,0,13,,,,,6,,,74,100
108672,note_on,,,,,184,0,14,,,,,6,,,66,100
108672,note_on,,,,,184,0,11,,,,,4,,,66,104
108736,note_off,,,,,64,0,7,,,,,0,,,81,100
108768,note_on,,,,,32,0,7,,,,,0,,,86,105
108832,note_off,,,,,64,0,7,,,,,0,,,86,100
108864,note_on,,,,,32,0,7,,,,,0,,,84,106
108872,note_off,,,,,200,0,11,,,,,4,,,66,100
108872,note_off,,,,,0,0,13,,,,,6,,,74,100
108872,note_off,,,,,200,0,13,,,,,6,,,69,100
108872,note_off,,,,,200,0,14,,,,,6,,,66,100
108928,note_off,,,,,64,0,7,,,,,0,,,84,100
108960,note_on,,,,,32,0,7,,,,,0,,,86,107
109024,note_off,,,,,64,0,7,,,,,0,,,86,100
109056,note_on,,,,,184,0,11,,,,,4,,,67,110
109056,note_on,,,,,184,0,14,,,,,6,,,67,100
109056,note_on,,,,,0,0,13,,,,,6,,,70,100
109056,note_on,,,,,32,0,7,,,,,0,,,82,110
109056,note_on,,,,,184,0,13,,,,,6,,,75,100
109120,note_off,,,,,64,0,7,,,,,0,,,82,100
109152,note_on,,,,,32,0,7,,,,,0,,,87,110
109216,note_off,,,,,64,0,7,,,,,0,,,87,100
109248,note_on,,,,,32,0,7,,,,,0,,,86,110
109312,note_off,,,,,64,0,7,,,,,0,,,86,100
109344,note_on,,,,,32,0,7,,,,,0,,,87,109
109408,note_off,,,,,64,0,7,,,,,0,,,87,100
109440,note_on,,,,,32,0,7,,,,,0,,,82,109
109504,note_off,,,,,64,0,7,,,,,0,,,82,100
109536,note_on,,,,,32,0,7,,,,,0,,,87,108
109568,note_off,,,,,512,0,13,,,,,6,,,70,100
109600,note_off,,,,,64,0,7,,,,,0,,,87,100
109632,note_on,,,,,32,0,7,,,,,0,,,86,108
109696,note_off,,,,,64,0,7,,,,,0,,,86,100
109728,note_on,,,,,32,0,7,,,,,0,,,87,108
109792,note_off,,,,,64,0,7,,,,,0,,,87,100
109824,note_on,,,,,32,0,7,,,,,0,,,81,107
109824,note_on,,,,,256,0,13,,,,,6,,,69,100
109888,note_off,,,,,64,0,7,,,,,0,,,81,100
109920,note_on,,,,,32,0,7,,,,,0,,,86,107
109984,note_off,,,,,64,0,7,,,,,0,,,86,100
110016,note_on,,,,,32,0,7,,,,,0,,,84,106
110080,note_off,,,,,64,0,7,,,,,0,,,84,100
110080,note_off,,,,,1024,0,11,,,,,4,,,67,100
110080,note_off,,,,,1024,0,14,,,,,6,,,67,100
110080,note_off,,,,,256,0,13,,,,,6,,,75,100
110112,note_on,,,,,32,0,7,,,,,0,,,86,106
110176,note_off,,,,,64,0,7,,,,,0,,,86,100
110208,note_on,,,,,32,0,7,,,,,0,,,81,106
110208,note_on,,,,,128,0,13,,,,,6,,,74,100
110208,note_on,,,,,128,0,11,,,,,4,,,65,106
110208,note_on,,,,,128,0,14,,,,,6,,,65,100
110272,note_off,,,,,64,0,7,,,,,0,,,81,100
110304,note_on,,,,,32,0,7,,,,,0,,,86,105
110336,note_off,,,,,128,0,13,,,,,6,,,69,100
110368,note_off,,,,,64,0,7,,,,,0,,,86,100
110400,note_on,,,,,32,0,7,,,,,0,,,84,105
110464,note_off,,,,,64,0,7,,,,,0,,,84,100
110496,note_on,,,,,32,0,7,,,,,0,,,86,104
110560,note_off,,,,,64,0,7,,,,,0,,,86,100
110592,note_on,,,,,32,0,7,,,,,0,,,79,104
110592,note_on,,,,,256,0,13,,,,,6,,,67,100
110656,note_off,,,,,64,0,7,,,,,0,,,79,100
110688,note_on,,,,,32,0,7,,,,,0,,,84,103
110752,note_off,,,,,64,0,7,,,,,0,,,84,100
110784,note_on,,,,,32,0,7,,,,,0,,,82,103
110848,note_off,,,,,640,0,11,,,,,4,,,65,100
110848,note_off,,,,,640,0,14,,,,,6,,,65,100
110848,note_off,,,,,256,0,13,,,,,6,,,74,100
110848,note_off,,,,,64,0,7,,,,,0,,,82,100
110880,note_on,,,,,32,0,7,,,,,0,,,84,103
110944,note_off,,,,,64,0,7,,,,,0,,,84,100
110976,note_on,,,,,128,0,11,,,,,4,,,63,102
110976,note_on,,,,,128,0,14,,,,,6,,,63,100
110976,note_on,,,,,128,0,13,,,,,6,,,72,100
110976,note_on,,,,,32,0,7,,,,,0,,,79,102
111040,note_off,,,,,64,0,7,,,,,0,,,79,100
111072,note_on,,,,,32,0,7,,,,,0,,,84,102
111104,note_off,,,,,128,0,13,,,,,6,,,67,100
111136,note_off,,,,,64,0,7,,,,,0,,,84,100
111168,note_on,,,,,32,0,7,,,,,0,,,82,101
111232,note_off,,,,,64,0,7,,,,,0,,,82,100
111264,note_on,,,,,32,0,7,,,,,0,,,84,101
111328,note_off,,,,,64,0,7,,,,,0,,,84,100
111360,note_on,,,,,256,0,13,,,,,6,,,65,100
111360,note_on,,,,,32,0,7,,,,,0,,,77,101
111424,note_off,,,,,64,0,7,,,,,0,,,77,100
111456,note_on,,,,,32,0,7,,,,,0,,,82,100
111520,note_off,,,,,64,0,7,,,,,0,,,82,100
111552,note_on,,,,,32,0,7,,,,,0,,,81,100
111616,note_off,,,,,256,0,13,,,,,6,,,72,100
111616,note_off,,,,,64,0,7,,,,,0,,,81,100
111616,note_off,,,,,640,0,11,,,,,4,,,63,100
111616,note_off,,,,,640,0,14,,,,,6,,,63,100
111648,note_on,,,,,32,0,7,,,,,0,,,82,99
111712,note_off,,,,,64,0,7,,,,,0,,,82,100
111744,note_on,,,,,128,0,14,,,,,6,,,62,100
111744,note_on,,,,,128,0,13,,,,,6,,,70,100
111744,note_on,,,,,128,0,11,,,,,4,,,62,99
111744,note_on,,,,,32,0,7,,,,,0,,,77,99
111808,note_off,,,,,64,0,7,,,,,0,,,77,100
111840,note_on,,,,,32,0,7,,,,,0,,,82,98
111872,note_off,,,,,128,0,13,,,,,6,,,65,100
111904,note_off,,,,,64,0,7,,,,,0,,,82,100
111936,note_on,,,,,32,0,7,,,,,0,,,81,98
112000,note_off,,,,,64,0,7,,,,,0,,,81,100
112032,note_on,,,,,32,0,7,,,,,0,,,82,98
112096,note_off,,,,,64,0,7,,,,,0,,,82,100
112128,note_on,,,,,256,0,13,,,,,6,,,63,100
112128,note_on,,,,,32,0,7,,,,,0,,,75,97
112192,note_off,,,,,64,0,7,,,,,0,,,75,100
112224,note_on,,,,,32,0,7,,,,,0,,,81,97
112288,note_off,,,,,64,0,7,,,,,0,,,81,100
112320,note_on,,,,,32,0,7,,,,,0,,,79,96
112384,note_off,,,,,640,0,14,,,,,6,,,62,100
112384,note_off,,,,,640,0,11,,,,,4,,,62,100
112384,note_off,,,,,256,0,13,,,,,6,,,70,100
112384,note_off,,,,,64,0,7,,,,,0,,,79,100
112416,note_on,,,,,32,0,7,,,,,0,,,81,96
112480,note_off,,,,,64,0,7,,,,,0,,,81,100
112512,note_on,,,,,128,0,13,,,,,6,,,69,100
112512,note_on,,,,,128,0,11,,,,,4,,,60,96
112512,note_on,,,,,32,0,7,,,,,0,,,75,96
112512,note_on,,,,,128,0,14,,,,,6,,,60,100
112576,note_off,,,,,64,0,7,,,,,0,,,75,100
112608,note_on,,,,,32,0,7,,,,,0,,,81,95
112640,note_off,,,,,128,0,13,,,,,6,,,63,100
112672,note_off,,,,,64,0,7,,,,,0,,,81,100
112704,note_on,,,,,32,0,7,,,,,0,,,79,95
112768,note_off,,,,,64,0,7,,,,,0,,,79,100
112800,note_on,,,,,32,0,7,,,,,0,,,81,94
112864,note_off,,,,,64,0,7,,,,,0,,,81,100
112896,note_on,,,,,32,0,7,,,,,0,,,74,94
112896,note_on,,,,,256,0,13,,,,,6,,,62,100
112960,note_off,,,,,64,0,7,,,,,0,,,74,100
112992,note_on,,,,,32,0,7,,,,,0,,,79,93
113056,note_off,,,,,64,0,7,,,,,0,,,79,100
113088,note_on,,,,,32,0,7,,,,,0,,,77,93
113152,note_off,,,,,64,0,7,,,,,0,,,77,100
113152,note_off,,,,,256,0,13,,,,,6,,,69,100
113152,note_off,,,,,640,0,14,,,,,6,,,60,100
113152,note_off,,,,,640,0,11,,,,,4,,,60,100
113184,note_on,,,,,32,0,7,,,,,0,,,79,93
113248,note_off,,,,,64,0,7,,,,,0,,,79,100
113280,note_on,,,,,128,0,13,,,,,6,,,67,100
113280,note_on,,,,,32,0,7,,,,,0,,,74,92
113280,note_on,,,,,128,0,14,,,,,6,,,58,100
113280,note_on,,,,,128,0,11,,,,,4,,,58,92
113344,note_off,,,,,64,0,7,,,,,0,,,74,100
113376,note_on,,,,,32,0,7,,,,,0,,,79,92
113408,note_off,,,,,128,0,13,,,,,6,,,62,100
113440,note_off,,,,,64,0,7,,,,,0,,,79,100
113472,note_on,,,,,32,0,7,,,,,0,,,77,91
113536,note_off,,,,,64,0,7,,,,,0,,,77,100
113568,note_on,,,,,32,0,7,,,,,0,,,79,91
113632,note_off,,,,,64,0,7,,,,,0,,,79,100
113664,note_on,,,,,32,0,7,,,,,0,,,72,91
113664,note_on,,,,,256,0,13,,,,,6,,,60,100
113728,note_off,,,,,64,0,7,,,,,0,,,72,100
113760,note_on,,,,,32,0,7,,,,,0,,,77,90
113824,note_off,,,,,64,0,7,,,,,0,,,77,100
113856,note_on,,,,,32,0,7,,,,,0,,,75,90
113920,note_off,,,,,640,0,14,,,,,6,,,58,100
113920,note_off,,,,,640,0,11,,,,,4,,,58,100
113920,note_off,,,,,256,0,13,,,,,6,,,67,100
113920,note_off,,,,,64,0,7,,,,,0,,,75,100
113952,note_on,,,,,32,0,7,,,,,0,,,77,89
114016,note_off,,,,,64,0,7,,,,,0,,,77,100
114048,note_on,,,,,128,0,14,,,,,6,,,57,100
114048,note_on,,,,,128,0,13,,,,,6,,,65,100
114048,note_on,,,,,32,0,7,,,,,0,,,72,89
114048,note_on,,,,,128,0,11,,,,,4,,,57,89
114112,note_off,,,,,64,0,7,,,,,0,,,72,100
114144,note_on,,,,,32,0,7,,,,,0,,,77,88
114176,note_off,,,,,128,0,13,,,,,6,,,60,100
114208,note_off,,,,,64,0,7,,,,,0,,,77,100
114240,note_on,,,,,32,0,7,,,,,0,,,75,88
114304,note_off,,,,,64,0,7,,,,,0,,,75,100
114336,note_on,,,,,32,0,7,,,,,0,,,77,88
114400,note_off,,,,,64,0,7,,,,,0,,,77,100
114432,note_on,,,,,32,0,7,,,,,0,,,70,90
114432,note_on,,,,,256,0,13,,,,,6,,,58,100
114496,note_off,,,,,64,0,7,,,,,0,,,70,100
114528,note_on,,,,,32,0,7,,,,,0,,,75,91
114592,note_off,,,,,64,0,7,,,,,0,,,75,100
114624,note_on,,,,,32,0,7,,,,,0,,,74,92
114688,note_off,,,,,640,0,11,,,,,4,,,57,100
114688,note_off,,,,,256,0,13,,,,,6,,,65,100
114688,note_off,,,,,640,0,14,,,,,6,,,57,100
114688,note_off,,,,,64,0,7,,,,,0,,,74,100
114720,note_on,,,,,32,0,7,,,,,0,,,75,93
114784,note_off,,,,,64,0,7,,,,,0,,,75,100
114816,note_on,,,,,128,0,14,,,,,6,,,55,100
114816,note_on,,,,,128,0,13,,,,,6,,,63,100
114816,note_on,,,,,128,0,11,,,,,4,,,55,94
114816,note_on,,,,,32,0,7,,,,,0,,,70,94
114880,note_off,,,,,64,0,7,,,,,0,,,70,100
114912,note_on,,,,,32,0,7,,,,,0,,,75,96
114944,note_off,,,,,128,0,13,,,,,6,,,58,100
114976,note_off,,,,,64,0,7,,,,,0,,,75,100
115008,note_on,,,,,32,0,7,,,,,0,,,74,97
115072,note_off,,,,,256,0,14,,,,,6,,,55,100
115072,note_off,,,,,64,0,7,,,,,0,,,74,100
115072,note_off,,,,,256,0,11,,,,,4,,,55,100
115104,note_on,,,,,32,0,7,,,,,0,,,75,98
115168,note_off,,,,,64,0,7,,,,,0,,,75,100
115200,note_on,,,,,128,0,14,,,,,6,,,53,100
115200,note_on,,,,,128,0,11,,,,,4,,,53,99
115200,note_on,,,,,256,0,13,,,,,6,,,57,100
115200,note_on,,,,,32,0,7,,,,,0,,,69,99
115264,note_off,,,,,64,0,7,,,,,0,,,69,100
115296,note_on,,,,,32,0,7,,,,,0,,,69,100
115300,note_off,,,,,100,0,11,,,,,4,,,53,100
115300,note_off,,,,,100,0,14,,,,,6,,,53,100
115360,note_off,,,,,64,0,7,,,,,0,,,69,100
115392,note_on,,,,,32,0,7,,,,,0,,,67,100
115392,note_on,,,,,92,0,14,,,,,6,,,41,100
115392,note_on,,,,,92,0,11,,,,,4,,,41,100
115456,note_off,,,,,0,0,13,,,,,6,,,57,100
115456,note_off,,,,,256,0,13,,,,,6,,,63,100
115456,note_off,,,,,64,0,7,,,,,0,,,67,100
115488,note_on,,,,,32,0,7,,,,,0,,,65,100
115492,note_off,,,,,100,0,11,,,,,4,,,41,100
115492,note_off,,,,,100,0,14,,,,,6,,,41,100
115552,note_off,,,,,64,0,7,,,,,0,,,65,100
115584,note_on,,,,,0,0,13,,,,,6,,,58,100
115584,note_on,,,,,128,0,13,,,,,6,,,62,100
115584,note_on,,,,,92,0,14,,,,,6,,,41,100
115584,note_on,,,,,92,0,11,,,,,4,,,41,100
115584,note_on,,,,,32,0,7,,,,,0,,,70,100
115676,note_off,,,,,92,0,7,,,,,0,,,70,100
115680,note_on,,,,,4,0,7,,,,,0,,,69,100
115684,note_off,,,,,100,0,11,,,,,4,,,41,100
115684,note_off,,,,,100,0,14,,,,,6,,,41,100
115772,note_off,,,,,92,0,7,,,,,0,,,69,100
115776,note_on,,,,,92,0,11,,,,,4,,,53,100
115776,note_on,,,,,92,0,14,,,,,6,,,53,100
115776,note_on,,,,,4,0,7,,,,,0,,,67,100
115840,note_off,,,,,256,0,13,,,,,6,,,62,100
115840,note_off,,,,,0,0,13,,,,,6,,,58,100
115840,note_off,,,,,64,0,7,,,,,0,,,67,100
115872,note_on,,,,,32,0,7,,,,,0,,,65,100
115876,note_off,,,,,100,0,11,,,,,4,,,53,100
115876,note_off,,,,,100,0,14,,,,,6,,,53,100
115936,note_off,,,,,64,0,7,,,,,0,,,65,100
115968,note_on,,,,,92,0,14,,,,,6,,,53,100
115968,note_on,,,,,32,0,7,,,,,0,,,72,100
115968,note_on,,,,,0,0,13,,,,,6,,,60,100
115968,note_on,,,,,128,0,13,,,,,6,,,63,100
115968,note_on,,,,,92,0,11,,,,,4,,,53,100
116060,note_off,,,,,92,0,7,,,,,0,,,72,100
116064,note_on,,,,,4,0,7,,,,,0,,,69,100
116068,note_off,,,,,100,0,14,,,,,6,,,53,100
116068,note_off,,,,,100,0,11,,,,,4,,,53,100
116156,note_off,,,,,92,0,7,,,,,0,,,69,100
116160,note_on,,,,,4,0,7,,,,,0,,,67,100
116160,note_on,,,,,92,0,14,,,,,6,,,41,100
116160,note_on,,,,,92,0,11,,,,,4,,,41,100
116224,note_off,,,,,256,0,13,,,,,6,,,63,100
116224,note_off,,,,,0,0,13,,,,,6,,,60,100
116224,note_off,,,,,64,0,7,,,,,0,,,67,100
116256,note_on,,,,,32,0,7,,,,,0,,,65,100
116260,note_off,,,,,100,0,14,,,,,6,,,41,100
116260,note_off,,,,,100,0,11,,,,,4,,,41,100
116320,note_off,,,,,64,0,7,,,,,0,,,65,100
116352,note_on,,,,,32,0,7,,,,,0,,,74,100
116352,note_on,,,,,128,0,13,,,,,6,,,58,100
116352,note_on,,,,,92,0,14,,,,,6,,,41,100
116352,note_on,,,,,92,0,11,,,,,4,,,41,100
116352,note_on,,,,,0,0,13,,,,,6,,,62,100
116444,note_off,,,,,92,0,7,,,,,0,,,74,100
116448,note_on,,,,,4,0,7,,,,,0,,,69,100
116452,note_off,,,,,100,0,14,,,,,6,,,41,100
116452,note_off,,,,,100,0,11,,,,,4,,,41,100
116540,note_off,,,,,92,0,7,,,,,0,,,69,100
116544,note_on,,,,,92,0,11,,,,,4,,,53,100
116544,note_on,,,,,92,0,14,,,,,6,,,53,100
116544,note_on,,,,,4,0,7,,,,,0,,,67,100
116608,note_off,,,,,0,0,13,,,,,6,,,62,100
116608,note_off,,,,,256,0,13,,,,,6,,,58,100
116608,note_off,,,,,64,0,7,,,,,0,,,67,100
116640,note_on,,,,,32,0,7,,,,,0,,,65,100
116644,note_off,,,,,100,0,14,,,,,6,,,53,100
116644,note_off,,,,,100,0,11,,,,,4,,,53,100
116704,note_off,,,,,64,0,7,,,,,0,,,65,100
116736,note_on,,,,,0,0,13,,,,,6,,,57,100
116736,note_on,,,,,128,0,13,,,,,6,,,60,100
116736,note_on,,,,,32,0,7,,,,,0,,,75,100
116736,note_on,,,,,92,0,11,,,,,4,,,53,100
116736,note_on,,,,,92,0,14,,,,,6,,,53,100
116828,note_off,,,,,92,0,7,,,,,0,,,75,100
116832,note_on,,,,,4,0,7,,,,,0,,,69,98
116836,note_off,,,,,100,0,14,,,,,6,,,53,100
116836,note_off,,,,,100,0,11,,,,,4,,,53,100
116924,note_off,,,,,92,0,7,,,,,0,,,69,100
116928,note_on,,,,,92,0,11,,,,,4,,,41,96
116928,note_on,,,,,92,0,14,,,,,6,,,41,100
116928,note_on,,,,,4,0,7,,,,,0,,,67,96
116992,note_off,,,,,256,0,13,,,,,6,,,60,100
116992,note_off,,,,,0,0,13,,,,,6,,,57,100
116992,note_off,,,,,64,0,7,,,,,0,,,67,100
117024,note_on,,,,,32,0,7,,,,,0,,,65,93
117028,note_off,,,,,100,0,11,,,,,4,,,41,100
117028,note_off,,,,,100,0,14,,,,,6,,,41,100
117088,note_off,,,,,64,0,7,,,,,0,,,65,100
117120,note_on,,,,,32,0,7,,,,,0,,,70,90
117120,note_on,,,,,92,0,11,,,,,4,,,41,90
117120,note_on,,,,,92,0,14,,,,,6,,,41,100
117120,note_on,,,,,128,0,13,,,,,6,,,62,100
117120,note_on,,,,,0,0,13,,,,,6,,,58,100
117212,note_off,,,,,92,0,7,,,,,0,,,70,100
117216,note_on,,,,,4,0,7,,,,,0,,,69,90
117220,note_off,,,,,100,0,11,,,,,4,,,41,100
117220,note_off,,,,,100,0,14,,,,,6,,,41,100
117308,note_off,,,,,92,0,7,,,,,0,,,69,100
117312,note_on,,,,,92,0,14,,,,,6,,,53,100
117312,note_on,,,,,4,0,7,,,,,0,,,67,90
117312,note_on,,,,,92,0,11,,,,,4,,,53,90
117376,note_off,,,,,0,0,13,,,,,6,,,58,100
117376,note_off,,,,,64,0,7,,,,,0,,,67,100
117376,note_off,,,,,256,0,13,,,,,6,,,62,100
117408,note_on,,,,,32,0,7,,,,,0,,,65,90
117412,note_off,,,,,100,0,14,,,,,6,,,53,100
117412,note_off,,,,,100,0,11,,,,,4,,,53,100
117472,note_off,,,,,64,0,7,,,,,0,,,65,100
117504,note_on,,,,,92,0,14,,,,,6,,,53,100
117504,note_on,,,,,128,0,13,,,,,6,,,63,100
117504,note_on,,,,,0,0,13,,,,,6,,,60,100
117504,note_on,,,,,32,0,7,,,,,0,,,72,90
117504,note_on,,,,,92,0,11,,,,,4,,,53,90
117596,note_off,,,,,92,0,7,,,,,0,,,72,100
117600,note_on,,,,,4,0,7,,,,,0,,,69,90
117604,note_off,,,,,100,0,11,,,,,4,,,53,100
117604,note_off,,,,,100,0,14,,,,,6,,,53,100
117692,note_off,,,,,92,0,7,,,,,0,,,69,100
117696,note_on,,,,,92,0,11,,,,,4,,,41,90
117696,note_on,,,,,4,0,7,,,,,0,,,67,90
117696,note_on,,,,,92,0,14,,,,,6,,,41,100
117760,note_off,,,,,256,0,13,,,,,6,,,63,100
117760,note_off,,,,,0,0,13,,,,,6,,,60,100
117760,note_off,,,,,64,0,7,,,,,0,,,67,100
117792,note_on,,,,,32,0,7,,,,,0,,,65,90
117796,note_off,,,,,100,0,14,,,,,6,,,41,100
117796,note_off,,,,,100,0,11,,,,,4,,,41,100
117856,note_off,,,,,64,0,7,,,,,0,,,65,100
117888,note_on,,,,,128,0,13,,,,,6,,,58,100
117888,note_on,,,,,32,0,7,,,,,0,,,74,90
117888,note_on,,,,,0,0,13,,,,,6,,,62,100
117888,note_on,,,,,92,0,11,,,,,4,,,41,90
117888,note_on,,,,,92,0,14,,,,,6,,,41,100
117980,note_off,,,,,92,0,7,,,,,0,,,74,100
117984,note_on,,,,,4,0,7,,,,,0,,,69,91
117988,note_off,,,,,100,0,11,,,,,4,,,41,100
117988,note_off,,,,,100,0,14,,,,,6,,,41,100
118076,note_off,,,,,92,0,7,,,,,0,,,69,100
118080,note_on,,,,,92,0,14,,,,,6,,,53,100
118080,note_on,,,,,92,0,11,,,,,4,,,53,92
118080,note_on,,,,,4,0,7,,,,,0,,,67,92
118144,note_off,,,,,0,0,13,,,,,6,,,62,100
118144,note_off,,,,,256,0,13,,,,,6,,,58,100
118144,note_off,,,,,64,0,7,,,,,0,,,67,100
118176,note_on,,,,,32,0,7,,,,,0,,,65,94
118180,note_off,,,,,100,0,11,,,,,4,,,53,100
118180,note_off,,,,,100,0,14,,,,,6,,,53,100
118240,note_off,,,,,64,0,7,,,,,0,,,65,100
118272,note_on,,,,,128,0,13,,,,,6,,,60,100
118272,note_on,,,,,0,0,13,,,,,6,,,57,100
118272,note_on,,,,,92,0,11,,,,,4,,,53,95
118272,note_on,,,,,92,0,14,,,,,6,,,53,100
118272,note_on,,,,,32,0,7,,,,,0,,,75,95
118336,note_off,,,,,64,0,7,,,,,0,,,75,100
118368,note_on,,,,,32,0,7,,,,,0,,,72,97
118372,note_off,,,,,100,0,11,,,,,4,,,53,100
118372,note_off,,,,,100,0,14,,,,,6,,,53,100
118432,note_off,,,,,64,0,7,,,,,0,,,72,100
118464,note_on,,,,,32,0,7,,,,,0,,,74,98
118464,note_on,,,,,92,0,11,,,,,4,,,41,98
118464,note_on,,,,,92,0,14,,,,,6,,,41,100
118528,note_off,,,,,256,0,13,,,,,6,,,60,100
118528,note_off,,,,,0,0,13,,,,,6,,,57,100
118528,note_off,,,,,64,0,7,,,,,0,,,74,100
118560,note_on,,,,,32,0,7,,,,,0,,,75,99
118564,note_off,,,,,100,0,14,,,,,6,,,41,100
118564,note_off,,,,,100,0,11,,,,,4,,,41,100
118624,note_off,,,,,64,0,7,,,,,0,,,75,100
118656,note_on,,,,,92,0,11,,,,,4,,,41,100
118656,note_on,,,,,0,0,13,,,,,6,,,69,100
118656,note_on,,,,,92,0,14,,,,,6,,,41,100
118656,note_on,,,,,32,0,7,,,,,0,,,65,100
118656,note_on,,,,,128,0,13,,,,,6,,,60,100
118720,note_off,,,,,64,0,7,,,,,0,,,65,100
118752,note_on,,,,,32,0,7,,,,,0,,,75,100
118756,note_off,,,,,100,0,11,,,,,4,,,41,100
118756,note_off,,,,,100,0,14,,,,,6,,,41,100
118816,note_off,,,,,64,0,7,,,,,0,,,75,100
118848,note_on,,,,,92,0,14,,,,,6,,,53,100
118848,note_on,,,,,92,0,11,,,,,4,,,53,100
118848,note_on,,,,,32,0,7,,,,,0,,,74,100
118912,note_off,,,,,64,0,7,,,,,0,,,74,100
118912,note_off,,,,,0,0,13,,,,,6,,,69,100
118912,note_off,,,,,256,0,13,,,,,6,,,60,100
118944,note_on,,,,,32,0,7,,,,,0,,,72,100
118948,note_off,,,,,100,0,11,,,,,4,,,53,100
118948,note_off,,,,,100,0,14,,,,,6,,,53,100
119008,note_off,,,,,64,0,7,,,,,0,,,72,100
119040,note_on,,,,,92,0,11,,,,,4,,,46,100
119040,note_on,,,,,32,0,7,,,,,0,,,74,100
119040,note_on,,,,,92,0,14,,,,,6,,,46,100
119040,note_on,,,,,128,0,13,,,,,6,,,62,100
119040,note_on,,,,,0,0,13,,,,,6,,,70,100
119104,note_off,,,,,64,0,7,,,,,0,,,74,100
119136,note_on,,,,,32,0,7,,,,,0,,,70,100
119200,note_off,,,,,64,0,7,,,,,0,,,70,100
119232,note_on,,,,,32,0,7,,,,,0,,,72,100
119296,note_off,,,,,256,0,11,,,,,4,,,46,100
119296,note_off,,,,,256,0,14,,,,,6,,,46,100
119296,note_off,,,,,64,0,7,,,,,0,,,72,100
119296,note_off,,,,,0,0,13,,,,,6,,,70,100
119296,note_off,,,,,256,0,13,,,,,6,,,62,100
119328,note_on,,,,,32,0,7,,,,,0,,,74,100
119392,note_off,,,,,64,0,7,,,,,0,,,74,100
119424,note_on,,,,,32,0,7,,,,,0,,,75,100
119488,note_off,,,,,64,0,7,,,,,0,,,75,100
119520,note_on,,,,,32,0,7,,,,,0,,,77,100
119584,note_off,,,,,64,0,7,,,,,0,,,77,100
119616,note_on,,,,,32,0,7,,,,,0,,,79,100
119680,note_off,,,,,64,0,7,,,,,0,,,79,100
119712,note_on,,,,,32,0,7,,,,,0,,,81,100
119776,note_off,,,,,64,0,7,,,,,0,,,81,100
119808,note_on,,,,,512,0,14,,,,,6,,,46,100
119808,note_on,,,,,512,0,11,,,,,4,,,46,110
119808,note_on,,,,,512,0,13,,,,,6,,,65,100
119808,note_on,,,,,32,0,7,,,,,0,,,82,100
119808,note_on,,,,,0,0,13,,,,,6,,,74,100
119872,note_off,,,,,64,0,14,,,,,6,,,46,100
119872,note_off,,,,,64,0,11,,,,,4,,,46,100
119904,note_on,,,,,32,0,14,,,,,6,,,48,100
119904,note_on,,,,,32,0,11,,,,,4,,,48,109
119908,note_off,,,,,100,0,7,,,,,0,,,82,100
119936,note_off,,,,,128,0,13,,,,,6,,,65,100
119936,note_off,,,,,0,0,13,,,,,6,,,74,100
119968,note_off,,,,,64,0,14,,,,,6,,,48,100
119968,note_off,,,,,64,0,11,,,,,4,,,48,100
120000,note_on,,,,,0,0,13,,,,,6,,,70,100
120000,note_on,,,,,32,0,11,,,,,4,,,50,108
120000,note_on,,,,,32,0,14,,,,,6,,,50,100
120000,note_on,,,,,92,0,7,,,,,0,,,74,100
120000,note_on,,,,,64,0,13,,,,,6,,,62,100
120064,note_off,,,,,64,0,11,,,,,4,,,50,100
120064,note_off,,,,,64,0,14,,,,,6,,,50,100
120096,note_on,,,,,32,0,11,,,,,4,,,51,107
120096,note_on,,,,,32,0,14,,,,,6,,,51,100
120100,note_off,,,,,100,0,7,,,,,0,,,74,100
120128,note_off,,,,,128,0,13,,,,,6,,,62,100
120160,note_off,,,,,64,0,11,,,,,4,,,51,100
120160,note_off,,,,,64,0,14,,,,,6,,,51,100
120192,note_on,,,,,32,0,14,,,,,6,,,53,100
120192,note_on,,,,,92,0,7,,,,,0,,,65,100
120192,note_on,,,,,32,0,11,,,,,4,,,53,106
120192,note_on,,,,,64,0,13,,,,,6,,,60,100
120256,note_off,,,,,64,0,13,,,,,6,,,70,100
120292,note_off,,,,,100,0,7,,,,,0,,,65,100
120292,note_off,,,,,100,0,14,,,,,6,,,53,100
120292,note_off,,,,,100,0,11,,,,,4,,,53,100
120384,note_on,,,,,92,0,14,,,,,6,,,41,100
120384,note_on,,,,,92,0,11,,,,,4,,,41,103
120384,note_on,,,,,128,0,13,,,,,6,,,69,100
120384,note_on,,,,,92,0,7,,,,,0,,,81,100
120448,note_off,,,,,64,0,13,,,,,6,,,60,100
120484,note_off,,,,,100,0,14,,,,,6,,,41,100
120484,note_off,,,,,100,0,7,,,,,0,,,81,100
120484,note_off,,,,,100,0,11,,,,,4,,,41,100
120512,note_off,,,,,64,0,13,,,,,6,,,69,100
120572,program_change,,,,,88,0,11,,,,,4,48,,,
120576,note_on,,,,,35840,0,10,,,,,3,,,65,100
120576,note_on,,,,,4,0,11,,,,,4,,,46,101
120576,note_on,,,,,35840,0,8,,,,,1,,,70,100
120576,note_on,,,,,35840,0,15,,,,,7,,,70,100
120576,note_on,,,,,0,0,13,,,,,6,,,62,100
120576,note_on,,,,,64,0,13,,,,,6,,,70,100
120576,note_on,,,,,0,0,15,,,,,7,,,62,100
120576,note_on,,,,,35840,0,16,,,,,7,,,46,100
120576,note_on,,,,,35840,0,9,,,,,2,,,74,100
120576,note_on,,,,,92,0,14,,,,,6,,,46,100
120576,note_on,,,,,35840,0,12,,,,,5,,,34,100
120576,note_on,,,,,92,0,7,,,,,0,,,70,100
120676,note_off,,,,,100,0,14,,,,,6,,,46,100
120676,note_off,,,,,100,0,12,,,,,5,,,34,100
120676,note_off,,,,,100,0,8,,,,,1,,,70,100
120676,note_off,,,,,100,0,11,,,,,4,,,46,100
120712,note_off,,,,,136,0,16,,,,,7,,,46,100
120768,note_on,,,,,92,0,8,,,,,1,,,65,100
120768,note_on,,,,,92,0,14,,,,,6,,,58,100
120768,note_on,,,,,56,0,16,,,,,7,,,58,100
120768,note_on,,,,,92,0,12,,,,,5,,,46,100
120768,note_on,,,,,92,0,11,,,,,4,,,58,100
120832,end_of_track,,,,,0,1,7,,,,,,,,,
120832,note_off,,,,,256,0,7,,,,,0,,,70,100
120832,note_off,,,,,256,0,9,,,,,2,,,74,100
120832,note_off,,,,,256,0,10,,,,,3,,,65,100
120868,note_off,,,,,100,0,11,,,,,4,,,58,100
120868,note_off,,,,,100,0,12,,,,,5,,,46,100
120868,note_off,,,,,100,0,8,,,,,1,,,65,100
120868,note_off,,,,,100,0,14,,,,,6,,,58,100
120880,note_off,,,,,0,0,15,,,,,7,,,62,100
120880,note_off,,,,,0,0,13,,,,,6,,,62,100
120880,note_off,,,,,304,0,13,,,,,6,,,70,100
120880,note_off,,,,,304,0,15,,,,,7,,,70,100
120904,note_off,,,,,136,0,16,,,,,7,,,58,100
120960,note_on,,,,,92,0,12,,,,,5,,,45,100
120960,note_on,,,,,128,0,9,,,,,2,,,72,100
120960,note_on,,,,,56,0,16,,,,,7,,,57,100
120960,note_on,,,,,80,0,15,,,,,7,,,65,100
120960,note_on,,,,,92,0,8,,,,,1,,,72,100
120960,note_on,,,,,128,0,10,,,,,3,,,65,100
120960,note_on,,,,,92,0,11,,,,,4,,,57,100
120960,note_on,,,,,0,0,13,,,,,6,,,72,100
120960,note_on,,,,,80,0,13,,,,,6,,,65,100
120960,note_on,,,,,92,0,14,,,,,6,,,57,100
120960,note_on,,,,,0,0,15,,,,,7,,,72,100
121060,note_off,,,,,100,0,14,,,,,6,,,57,100
121060,note_off,,,,,100,0,8,,,,,1,,,72,100
121060,note_off,,,,,100,0,12,,,,,5,,,45,100
121060,note_off,,,,,100,0,11,,,,,4,,,57,100
121096,note_off,,,,,136,0,16,,,,,7,,,57,100
121152,note_on,,,,,92,0,12,,,,,5,,,41,100
121152,note_on,,,,,56,0,16,,,,,7,,,53,100
121152,note_on,,,,,92,0,8,,,,,1,,,65,100
121152,note_on,,,,,92,0,11,,,,,4,,,53,100
121152,note_on,,,,,92,0,14,,,,,6,,,53,100
121216,note_off,,,,,256,0,9,,,,,2,,,72,100
121216,note_off,,,,,256,0,10,,,,,3,,,65,100
121252,note_off,,,,,100,0,8,,,,,1,,,65,100
121252,note_off,,,,,100,0,12,,,,,5,,,41,100
121252,note_off,,,,,100,0,11,,,,,4,,,53,100
121252,note_off,,,,,100,0,14,,,,,6,,,53,100
121264,note_off,,,,,304,0,13,,,,,6,,,65,100
121264,note_off,,,,,0,0,13,,,,,6,,,72,100
121264,note_off,,,,,0,0,15,,,,,7,,,72,100
121264,note_off,,,,,304,0,15,,,,,7,,,65,100
121288,note_off,,,,,136,0,16,,,,,7,,,53,100
121344,note_on,,,,,92,0,11,,,,,4,,,46,100
121344,note_on,,,,,128,0,10,,,,,3,,,65,100
121344,note_on,,,,,92,0,8,,,,,1,,,74,100
121344,note_on,,,,,56,0,16,,,,,7,,,46,100
121344,note_on,,,,,92,0,14,,,,,6,,,46,100
121344,note_on,,,,,92,0,12,,,,,5,,,34,100
121344,note_on,,,,,0,0,13,,,,,6,,,70,100
121344,note_on,,,,,128,0,9,,,,,2,,,70,100
121344,note_on,,,,,80,0,13,,,,,6,,,74,100
121344,note_on,,,,,0,0,15,,,,,7,,,70,100
121344,note_on,,,,,80,0,15,,,,,7,,,74,100
121444,note_off,,,,,100,0,14,,,,,6,,,46,100
121444,note_off,,,,,100,0,12,,,,,5,,,34,100
121444,note_off,,,,,100,0,9,,,,,2,,,70,100
121444,note_off,,,,,100,0,11,,,,,4,,,46,100
121480,note_off,,,,,136,0,16,,,,,7,,,46,100
121536,note_on,,,,,92,0,9,,,,,2,,,65,100
121536,note_on,,,,,92,0,11,,,,,4,,,58,100
121536,note_on,,,,,92,0,14,,,,,6,,,58,100
121536,note_on,,,,,56,0,16,,,,,7,,,58,100
121536,note_on,,,,,92,0,12,,,,,5,,,46,100
121600,note_off,,,,,256,0,8,,,,,1,,,74,100
121600,note_off,,,,,256,0,10,,,,,3,,,65,100
121636,note_off,,,,,100,0,9,,,,,2,,,65,100
121636,note_off,,,,,100,0,14,,,,,6,,,58,100
121636,note_off,,,,,100,0,12,,,,,5,,,46,100
121636,note_off,,,,,100,0,11,,,,,4,,,58,100
121648,note_off,,,,,0,0,13,,,,,6,,,70,100
121648,note_off,,,,,304,0,13,,,,,6,,,74,100
121648,note_off,,,,,304,0,15,,,,,7,,,74,100
121648,note_off,,,,,0,0,15,,,,,7,,,70,100
121672,note_off,,,,,136,0,16,,,,,7,,,58,100
121728,note_on,,,,,92,0,9,,,,,2,,,72,100
121728,note_on,,,,,0,0,15,,,,,7,,,65,100
121728,note_on,,,,,80,0,15,,,,,7,,,72,100
121728,note_on,,,,,0,0,13,,,,,6,,,65,100
121728,note_on,,,,,128,0,8,,,,,1,,,72,100
121728,note_on,,,,,92,0,12,,,,,5,,,45,100
121728,note_on,,,,,92,0,14,,,,,6,,,57,100
121728,note_on,,,,,128,0,10,,,,,3,,,65,100
121728,note_on,,,,,80,0,13,,,,,6,,,72,100
121728,note_on,,,,,92,0,11,,,,,4,,,57,100
121728,note_on,,,,,56,0,16,,,,,7,,,57,100
121828,note_off,,,,,100,0,12,,,,,5,,,45,100
121828,note_off,,,,,100,0,9,,,,,2,,,72,100
121828,note_off,,,,,100,0,11,,,,,4,,,57,100
121828,note_off,,,,,100,0,14,,,,,6,,,57,100
121864,note_off,,,,,136,0,16,,,,,7,,,57,100
121920,note_on,,,,,92,0,14,,,,,6,,,53,100
121920,note_on,,,,,92,0,9,,,,,2,,,65,100
121920,note_on,,,,,56,0,16,,,,,7,,,53,100
121920,note_on,,,,,92,0,11,,,,,4,,,53,100
121920,note_on,,,,,92,0,12,,,,,5,,,41,100
121984,note_off,,,,,256,0,8,,,,,1,,,72,100
121984,note_off,,,,,256,0,10,,,,,3,,,65,100
122020,note_off,,,,,100,0,14,,,,,6,,,53,100
122020,note_off,,,,,100,0,9,,,,,2,,,65,100
122020,note_off,,,,,100,0,12,,,,,5,,,41,100
122020,note_off,,,,,100,0,11,,,,,4,,,53,100
122032,note_off,,,,,0,0,13,,,,,6,,,65,100
122032,note_off,,,,,0,0,15,,,,,7,,,65,100
122032,note_off,,,,,304,0,15,,,,,7,,,72,100
122032,note_off,,,,,304,0,13,,,,,6,,,72,100
122056,note_off,,,,,136,0,16,,,,,7,,,53,100
122112,note_on,,,,,92,0,11,,,,,4,,,46,100
122112,note_on,,,,,92,0,14,,,,,6,,,46,100
122112,note_on,,,,,92,0,9,,,,,2,,,74,100
122112,note_on,,,,,80,0,15,,,,,7,,,62,100
122112,note_on,,,,,128,0,10,,,,,3,,,65,100
122112,note_on,,,,,0,0,15,,,,,7,,,70,100
122112,note_on,,,,,92,0,12,,,,,5,,,34,100
122112,note_on,,,,,128,0,8,,,,,1,,,70,100
122112,note_on,,,,,80,0,13,,,,,6,,,62,100
122112,note_on,,,,,0,0,13,,,,,6,,,70,100
122112,note_on,,,,,56,0,16,,,,,7,,,46,100
122212,note_off,,,,,100,0,11,,,,,4,,,46,100
122212,note_off,,,,,100,0,14,,,,,6,,,46,100
122212,note_off,,,,,100,0,12,,,,,5,,,34,100
122240,note_off,,,,,128,0,9,,,,,2,,,74,100
122240,note_off,,,,,128,0,8,,,,,1,,,70,100
122248,note_off,,,,,136,0,16,,,,,7,,,46,100
122304,note_on,,,,,64,0,9,,,,,2,,,82,100
122304,note_on,,,,,56,0,16,,,,,7,,,58,100
122304,note_on,,,,,92,0,14,,,,,6,,,58,100
122304,note_on,,,,,92,0,11,,,,,4,,,58,100
122304,note_on,,,,,92,0,12,,,,,5,,,46,100
122304,note_on,,,,,64,0,8,,,,,1,,,77,100
122368,note_off,,,,,0,0,15,,,,,7,,,70,100
122368,note_off,,,,,256,0,13,,,,,6,,,62,100
122368,note_off,,,,,256,0,15,,,,,7,,,62,100
122368,note_off,,,,,256,0,10,,,,,3,,,65,100
122368,note_off,,,,,0,0,13,,,,,6,,,70,100
122404,note_off,,,,,100,0,12,,,,,5,,,46,100
122404,note_off,,,,,100,0,14,,,,,6,,,58,100
122404,note_off,,,,,100,0,11,,,,,4,,,58,100
122432,note_off,,,,,128,0,8,,,,,1,,,77,100
122432,note_off,,,,,128,0,9,,,,,2,,,82,100
122440,note_off,,,,,136,0,16,,,,,7,,,58,100
122496,note_on,,,,,64,0,9,,,,,2,,,77,100
122496,note_on,,,,,64,0,8,,,,,1,,,74,100
122496,note_on,,,,,0,0,13,,,,,6,,,74,100
122496,note_on,,,,,128,0,13,,,,,6,,,65,100
122496,note_on,,,,,128,0,15,,,,,7,,,65,100
122496,note_on,,,,,92,0,12,,,,,5,,,46,100
122496,note_on,,,,,92,0,14,,,,,6,,,58,100
122496,note_on,,,,,92,0,11,,,,,4,,,58,100
122496,note_on,,,,,56,0,16,,,,,7,,,58,100
122496,note_on,,,,,0,0,15,,,,,7,,,74,100
122496,note_on,,,,,128,0,10,,,,,3,,,65,100
122596,note_off,,,,,100,0,11,,,,,4,,,58,100
122596,note_off,,,,,100,0,12,,,,,5,,,46,100
122596,note_off,,,,,100,0,14,,,,,6,,,58,100
122624,note_off,,,,,128,0,15,,,,,7,,,65,100
122624,note_off,,,,,0,0,15,,,,,7,,,74,100
122624,note_off,,,,,128,0,8,,,,,1,,,74,100
122624,note_off,,,,,0,0,13,,,,,6,,,74,100
122624,note_off,,,,,128,0,13,,,,,6,,,65,100
122624,note_off,,,,,128,0,9,,,,,2,,,77,100
122632,note_off,,,,,136,0,16,,,,,7,,,58,100
122688,note_on,,,,,0,0,13,,,,,6,,,70,100
122688,note_on,,,,,64,0,9,,,,,2,,,74,100
122688,note_on,,,,,92,0,11,,,,,4,,,46,100
122688,note_on,,,,,92,0,12,,,,,5,,,34,100
122688,note_on,,,,,64,0,15,,,,,7,,,62,100
122688,note_on,,,,,0,0,15,,,,,7,,,70,100
122688,note_on,,,,,92,0,14,,,,,6,,,46,100
122688,note_on,,,,,56,0,16,,,,,7,,,46,100
122688,note_on,,,,,64,0,13,,,,,6,,,62,100
122688,note_on,,,,,64,0,8,,,,,1,,,70,100
122752,note_off,,,,,256,0,10,,,,,3,,,65,100
122788,note_off,,,,,100,0,14,,,,,6,,,46,100
122788,note_off,,,,,100,0,12,,,,,5,,,34,100
122788,note_off,,,,,100,0,11,,,,,4,,,46,100
122816,note_off,,,,,0,0,15,,,,,7,,,70,100
122816,note_off,,,,,128,0,13,,,,,6,,,62,100
122816,note_off,,,,,128,0,8,,,,,1,,,70,100
122816,note_off,,,,,128,0,9,,,,,2,,,74,100
122816,note_off,,,,,128,0,15,,,,,7,,,62,100
122816,note_off,,,,,0,0,13,,,,,6,,,70,100
122824,note_off,,,,,136,0,16,,,,,7,,,46,100
122880,note_on,,,,,128,0,10,,,,,3,,,65,100
122880,note_on,,,,,92,0,12,,,,,5,,,41,100
122880,note_on,,,,,56,0,16,,,,,7,,,53,100
122880,note_on,,,,,64,0,9,,,,,2,,,72,100
122880,note_on,,,,,64,0,8,,,,,1,,,69,100
122880,note_on,,,,,92,0,11,,,,,4,,,53,100
122880,note_on,,,,,0,0,13,,,,,6,,,69,100
122880,note_on,,,,,92,0,14,,,,,6,,,53,100
122880,note_on,,,,,64,0,15,,,,,7,,,60,100
122880,note_on,,,,,0,0,15,,,,,7,,,69,100
122880,note_on,,,,,64,0,13,,,,,6,,,60,100
122980,note_off,,,,,100,0,14,,,,,6,,,53,100
122980,note_off,,,,,100,0,8,,,,,1,,,69,100
122980,note_off,,,,,100,0,12,,,,,5,,,41,100
122980,note_off,,,,,100,0,11,,,,,4,,,53,100
123016,note_off,,,,,136,0,16,,,,,7,,,53,100
123072,note_on,,,,,56,0,16,,,,,7,,,51,100
123072,note_on,,,,,92,0,12,,,,,5,,,39,100
123072,note_on,,,,,92,0,11,,,,,4,,,51,100
123072,note_on,,,,,92,0,14,,,,,6,,,51,100
123072,note_on,,,,,92,0,8,,,,,1,,,65,100
123136,note_off,,,,,0,0,15,,,,,7,,,69,100
123136,note_off,,,,,256,0,15,,,,,7,,,60,100
123136,note_off,,,,,0,0,13,,,,,6,,,69,100
123136,note_off,,,,,256,0,13,,,,,6,,,60,100
123136,note_off,,,,,256,0,10,,,,,3,,,65,100
123136,note_off,,,,,256,0,9,,,,,2,,,72,100
123172,note_off,,,,,100,0,11,,,,,4,,,51,100
123172,note_off,,,,,100,0,8,,,,,1,,,65,100
123172,note_off,,,,,100,0,14,,,,,6,,,51,100
123172,note_off,,,,,100,0,12,,,,,5,,,39,100
123208,note_off,,,,,136,0,16,,,,,7,,,51,100
123264,note_on,,,,,92,0,8,,,,,1,,,70,100
123264,note_on,,,,,0,0,13,,,,,6,,,70,100
123264,note_on,,,,,128,0,10,,,,,3,,,65,100
123264,note_on,,,,,92,0,11,,,,,4,,,50,100
123264,note_on,,,,,0,0,15,,,,,7,,,70,100
123264,note_on,,,,,56,0,16,,,,,7,,,50,100
123264,note_on,,,,,128,0,15,,,,,7,,,65,100
123264,note_on,,,,,128,0,9,,,,,2,,,70,100
123264,note_on,,,,,128,0,13,,,,,6,,,65,100
123264,note_on,,,,,92,0,14,,,,,6,,,50,100
123264,note_on,,,,,92,0,12,,,,,5,,,38,100
123364,note_off,,,,,100,0,8,,,,,1,,,70,100
123364,note_off,,,,,100,0,11,,,,,4,,,50,100
123364,note_off,,,,,100,0,14,,,,,6,,,50,100
123364,note_off,,,,,100,0,12,,,,,5,,,38,100
123400,note_off,,,,,136,0,16,,,,,7,,,50,100
123456,note_on,,,,,92,0,8,,,,,1,,,65,100
123456,note_on,,,,,56,0,16,,,,,7,,,46,100
123456,note_on,,,,,92,0,14,,,,,6,,,46,100
123456,note_on,,,,,92,0,12,,,,,5,,,34,100
123456,note_on,,,,,92,0,11,,,,,4,,,46,100
123520,note_off,,,,,256,0,9,,,,,2,,,70,100
123520,note_off,,,,,256,0,13,,,,,6,,,65,100
123520,note_off,,,,,0,0,13,,,,,6,,,70,100
123520,note_off,,,,,0,0,15,,,,,7,,,70,100
123520,note_off,,,,,256,0,10,,,,,3,,,65,100
123520,note_off,,,,,256,0,15,,,,,7,,,65,100
123556,note_off,,,,,100,0,11,,,,,4,,,46,100
123556,note_off,,,,,100,0,14,,,,,6,,,46,100
123556,note_off,,,,,100,0,12,,,,,5,,,34,100
123556,note_off,,,,,100,0,8,,,,,1,,,65,100
123592,note_off,,,,,136,0,16,,,,,7,,,46,100
123648,note_on,,,,,92,0,11,,,,,4,,,41,100
123648,note_on,,,,,92,0,14,,,,,6,,,41,100
123648,note_on,,,,,92,0,12,,,,,5,,,41,100
123648,note_on,,,,,128,0,15,,,,,7,,,69,100
123648,note_on,,,,,128,0,13,,,,,6,,,69,100
123648,note_on,,,,,128,0,9,,,,,2,,,69,100
123648,note_on,,,,,56,0,16,,,,,7,,,41,100
123648,note_on,,,,,0,0,13,,,,,6,,,72,100
123648,note_on,,,,,128,0,10,,,,,3,,,65,100
123648,note_on,,,,,0,0,15,,,,,7,,,72,100
123648,note_on,,,,,92,0,8,,,,,1,,,72,100
123748,note_off,,,,,100,0,11,,,,,4,,,41,100
123748,note_off,,,,,100,0,8,,,,,1,,,72,100
123748,note_off,,,,,100,0,9,,,,,2,,,69,100
123748,note_off,,,,,100,0,14,,,,,6,,,41,100
123748,note_off,,,,,100,0,12,,,,,5,,,41,100
123784,note_off,,,,,136,0,16,,,,,7,,,41,100
123840,note_on,,,,,92,0,11,,,,,4,,,53,100
123840,note_on,,,,,92,0,14,,,,,6,,,53,100
123840,note_on,,,,,56,0,16,,,,,7,,,53,100
123840,note_on,,,,,92,0,9,,,,,2,,,65,100
123840,note_on,,,,,92,0,8,,,,,1,,,65,100
123840,note_on,,,,,92,0,12,,,,,5,,,41,100
123904,note_off,,,,,256,0,15,,,,,7,,,69,100
123904,note_off,,,,,0,0,15,,,,,7,,,72,100
123904,note_off,,,,,256,0,10,,,,,3,,,65,100
123904,note_off,,,,,0,0,13,,,,,6,,,72,100
123904,note_off,,,,,256,0,13,,,,,6,,,69,100
123940,note_off,,,,,100,0,12,,,,,5,,,41,100
123940,note_off,,,,,100,0,8,,,,,1,,,65,100
123940,note_off,,,,,100,0,11,,,,,4,,,53,100
123940,note_off,,,,,100,0,14,,,,,6,,,53,100
123940,note_off,,,,,100,0,9,,,,,2,,,65,100
123976,note_off,,,,,136,0,16,,,,,7,,,53,100
124032,note_on,,,,,128,0,13,,,,,6,,,70,100
124032,note_on,,,,,0,0,13,,,,,6,,,73,100
124032,note_on,,,,,0,0,15,,,,,7,,,73,100
124032,note_on,,,,,128,0,15,,,,,7,,,70,100
124032,note_on,,,,,128,0,10,,,,,3,,,67,100
124032,note_on,,,,,92,0,9,,,,,2,,,70,100
124032,note_on,,,,,92,0,8,,,,,1,,,73,100
124032,note_on,,,,,92,0,12,,,,,5,,,40,100
124032,note_on,,,,,56,0,16,,,,,7,,,52,100
124032,note_on,,,,,92,0,11,,,,,4,,,52,100
124032,note_on,,,,,92,0,14,,,,,6,,,52,100
124132,note_off,,,,,100,0,11,,,,,4,,,52,100
124132,note_off,,,,,100,0,12,,,,,5,,,40,100
124132,note_off,,,,,100,0,14,,,,,6,,,52,100
124132,note_off,,,,,100,0,9,,,,,2,,,70,100
124160,note_off,,,,,128,0,15,,,,,7,,,70,100
124160,note_off,,,,,128,0,13,,,,,6,,,70,100
124168,note_off,,,,,136,0,16,,,,,7,,,52,100
124224,note_on,,,,,92,0,12,,,,,5,,,40,96
124224,note_on,,,,,56,0,16,,,,,7,,,40,100
124224,note_on,,,,,92,0,14,,,,,6,,,40,100
124224,note_on,,,,,64,0,15,,,,,7,,,67,100
124224,note_on,,,,,64,0,13,,,,,6,,,67,100
124224,note_on,,,,,92,0,11,,,,,4,,,40,96
124224,note_on,,,,,92,0,9,,,,,2,,,67,96
124288,note_off,,,,,256,0,8,,,,,1,,,73,100
124288,note_off,,,,,64,0,15,,,,,7,,,73,100
124288,note_off,,,,,256,0,10,,,,,3,,,67,100
124288,note_off,,,,,64,0,13,,,,,6,,,73,100
124324,note_off,,,,,100,0,14,,,,,6,,,40,100
124324,note_off,,,,,100,0,12,,,,,5,,,40,100
124324,note_off,,,,,100,0,11,,,,,4,,,40,100
124324,note_off,,,,,100,0,9,,,,,2,,,67,100
124352,note_off,,,,,64,0,15,,,,,7,,,67,100
124352,note_off,,,,,64,0,13,,,,,6,,,67,100
124360,note_off,,,,,136,0,16,,,,,7,,,40,100
124416,note_on,,,,,92,0,14,,,,,6,,,41,100
124416,note_on,,,,,128,0,8,,,,,1,,,72,90
124416,note_on,,,,,92,0,11,,,,,4,,,41,90
124416,note_on,,,,,128,0,10,,,,,3,,,65,90
124416,note_on,,,,,56,0,16,,,,,7,,,41,100
124416,note_on,,,,,0,0,13,,,,,6,,,72,100
124416,note_on,,,,,92,0,12,,,,,5,,,41,90
124416,note_on,,,,,0,0,15,,,,,7,,,72,100
124416,note_on,,,,,64,0,15,,,,,7,,,69,100
124416,note_on,,,,,64,0,13,,,,,6,,,69,100
124416,note_on,,,,,92,0,9,,,,,2,,,69,90
124516,note_off,,,,,100,0,9,,,,,2,,,69,100
124516,note_off,,,,,100,0,8,,,,,1,,,72,100
124516,note_off,,,,,100,0,14,,,,,6,,,41,100
124516,note_off,,,,,100,0,11,,,,,4,,,41,100
124516,note_off,,,,,100,0,12,,,,,5,,,41,100
124552,note_off,,,,,136,0,16,,,,,7,,,41,100
124608,note_on,,,,,92,0,8,,,,,1,,,65,87
124608,note_on,,,,,92,0,14,,,,,6,,,53,100
124608,note_on,,,,,92,0,12,,,,,5,,,41,87
124608,note_on,,,,,92,0,9,,,,,2,,,65,87
124608,note_on,,,,,56,0,16,,,,,7,,,53,100
124608,note_on,,,,,92,0,11,,,,,4,,,53,87
124672,note_off,,,,,256,0,10,,,,,3,,,65,100
124672,note_off,,,,,0,0,13,,,,,6,,,72,100
124672,note_off,,,,,256,0,15,,,,,7,,,69,100
124672,note_off,,,,,256,0,13,,,,,6,,,69,100
124672,note_off,,,,,0,0,15,,,,,7,,,72,100
124708,note_off,,,,,100,0,14,,,,,6,,,53,100
124708,note_off,,,,,100,0,11,,,,,4,,,53,100
124708,note_off,,,,,100,0,9,,,,,2,,,65,100
124708,note_off,,,,,100,0,12,,,,,5,,,41,100
124708,note_off,,,,,100,0,8,,,,,1,,,65,100
124744,note_off,,,,,136,0,16,,,,,7,,,53,100
124800,note_on,,,,,56,0,16,,,,,7,,,52,100
124800,note_on,,,,,92,0,11,,,,,4,,,52,84
124800,note_on,,,,,92,0,9,,,,,2,,,70,84
124800,note_on,,,,,0,0,13,,,,,6,,,73,100
124800,note_on,,,,,92,0,14,,,,,6,,,52,100
124800,note_on,,,,,128,0,15,,,,,7,,,70,100
124800,note_on,,,,,0,0,15,,,,,7,,,73,100
124800,note_on,,,,,92,0,12,,,,,5,,,40,84
124800,note_on,,,,,128,0,13,,,,,6,,,70,100
124800,note_on,,,,,92,0,8,,,,,1,,,73,84
124800,note_on,,,,,128,0,10,,,,,3,,,67,84
124900,note_off,,,,,100,0,12,,,,,5,,,40,100
124900,note_off,,,,,100,0,14,,,,,6,,,52,100
124900,note_off,,,,,100,0,9,,,,,2,,,70,100
124900,note_off,,,,,100,0,11,,,,,4,,,52,100
124928,note_off,,,,,128,0,13,,,,,6,,,70,100
124928,note_off,,,,,128,0,15,,,,,7,,,70,100
124936,note_off,,,,,136,0,16,,,,,7,,,52,100
124992,note_on,,,,,92,0,12,,,,,5,,,40,81
124992,note_on,,,,,92,0,9,,,,,2,,,67,81
124992,note_on,,,,,64,0,15,,,,,7,,,67,100
124992,note_on,,,,,64,0,13,,,,,6,,,67,100
124992,note_on,,,,,56,0,16,,,,,7,,,40,100
124992,note_on,,,,,92,0,14,,,,,6,,,40,100
124992,note_on,,,,,92,0,11,,,,,4,,,40,81
125056,note_off,,,,,64,0,15,,,,,7,,,73,100
125056,note_off,,,,,64,0,13,,,,,6,,,73,100
125056,note_off,,,,,256,0,8,,,,,1,,,73,100
125056,note_off,,,,,256,0,10,,,,,3,,,67,100
125092,note_off,,,,,100,0,12,,,,,5,,,40,100
125092,note_off,,,,,100,0,14,,,,,6,,,40,100
125092,note_off,,,,,100,0,11,,,,,4,,,40,100
125092,note_off,,,,,100,0,9,,,,,2,,,67,100
125120,note_off,,,,,64,0,13,,,,,6,,,67,100
125120,note_off,,,,,64,0,15,,,,,7,,,67,100
125128,note_off,,,,,136,0,16,,,,,7,,,40,100
125184,note_on,,,,,0,0,13,,,,,6,,,72,100
125184,note_on,,,,,56,0,16,,,,,7,,,41,100
125184,note_on,,,,,64,0,13,,,,,6,,,69,100
125184,note_on,,,,,92,0,12,,,,,5,,,41,100
125184,note_on,,,,,128,0,10,,,,,3,,,65,100
125184,set_tempo,,,,,124416,1,0,,468750,,,,,,,
125184,note_on,,,,,92,0,14,,,,,6,,,41,100
125184,note_on,,,,,92,0,9,,,,,2,,,69,100
125184,note_on,,,,,128,0,8,,,,,1,,,72,100
125184,note_on,,,,,64,0,15,,,,,7,,,69,100
125184,note_on,,,,,92,0,11,,,,,4,,,41,100
125184,note_on,,,,,0,0,15,,,,,7,,,72,100
125284,note_off,,,,,100,0,12,,,,,5,,,41,100
125284,note_off,,,,,100,0,14,,,,,6,,,41,100
125284,note_off,,,,,100,0,8,,,,,1,,,72,100
125284,note_off,,,,,100,0,11,,,,,4,,,41,100
125284,note_off,,,,,100,0,9,,,,,2,,,69,100
125320,note_off,,,,,136,0,16,,,,,7,,,41,100
125376,note_on,,,,,92,0,11,,,,,4,,,53,102
125376,note_on,,,,,92,0,9,,,,,2,,,65,102
125376,note_on,,,,,92,0,12,,,,,5,,,41,102
125376,note_on,,,,,56,0,16,,,,,7,,,53,100
125376,note_on,,,,,92,0,14,,,,,6,,,53,100
125376,note_on,,,,,92,0,8,,,,,1,,,65,102
125440,note_off,,,,,0,0,15,,,,,7,,,72,100
125440,set_tempo,,,,,256,1,0,,472440,,,,,,,
125440,note_off,,,,,256,0,15,,,,,7,,,69,100
125440,note_off,,,,,256,0,10,,,,,3,,,65,100
125440,note_off,,,,,256,0,13,,,,,6,,,69,100
125440,note_off,,,,,0,0,13,,,,,6,,,72,100
125476,note_off,,,,,100,0,9,,,,,2,,,65,100
125476,note_off,,,,,100,0,11,,,,,4,,,53,100
125476,note_off,,,,,100,0,14,,,,,6,,,53,100
125476,note_off,,,,,100,0,8,,,,,1,,,65,100
125476,note_off,,,,,100,0,12,,,,,5,,,41,100
125512,note_off,,,,,136,0,16,,,,,7,,,53,100
125568,note_on,,,,,0,0,15,,,,,7,,,73,100
125568,note_on,,,,,56,0,16,,,,,7,,,52,100
125568,note_on,,,,,92,0,11,,,,,4,,,52,105
125568,note_on,,,,,0,0,13,,,,,6,,,73,100
125568,note_on,,,,,128,0,15,,,,,7,,,70,100
125568,note_on,,,,,128,0,10,,,,,3,,,67,105
125568,note_on,,,,,92,0,12,,,,,5,,,40,105
125568,note_on,,,,,92,0,9,,,,,2,,,70,105
125568,note_on,,,,,128,0,13,,,,,6,,,70,100
125568,note_on,,,,,92,0,8,,,,,1,,,73,105
125568,note_on,,,,,92,0,14,,,,,6,,,52,100
125668,note_off,,,,,100,0,11,,,,,4,,,52,100
125668,note_off,,,,,100,0,12,,,,,5,,,40,100
125668,note_off,,,,,100,0,14,,,,,6,,,52,100
125668,note_off,,,,,100,0,9,,,,,2,,,70,100
125696,set_tempo,,,,,256,1,0,,476190,,,,,,,
125696,note_off,,,,,128,0,13,,,,,6,,,70,100
125696,note_off,,,,,128,0,15,,,,,7,,,70,100
125704,note_off,,,,,136,0,16,,,,,7,,,52,100
125760,note_on,,,,,92,0,11,,,,,4,,,40,103
125760,note_on,,,,,92,0,9,,,,,2,,,67,103
125760,note_on,,,,,64,0,15,,,,,7,,,67,100
125760,note_on,,,,,56,0,16,,,,,7,,,40,100
125760,note_on,,,,,64,0,13,,,,,6,,,67,100
125760,note_on,,,,,92,0,14,,,,,6,,,40,100
125760,note_on,,,,,92,0,12,,,,,5,,,40,103
125824,note_off,,,,,64,0,13,,,,,6,,,73,100
125824,note_off,,,,,256,0,10,,,,,3,,,67,100
125824,note_off,,,,,256,0,8,,,,,1,,,73,100
125824,note_off,,,,,64,0,15,,,,,7,,,73,100
125860,note_off,,,,,100,0,14,,,,,6,,,40,100
125860,note_off,,,,,100,0,9,,,,,2,,,67,100
125860,note_off,,,,,100,0,11,,,,,4,,,40,100
125860,note_off,,,,,100,0,12,,,,,5,,,40,100
125888,note_off,,,,,64,0,15,,,,,7,,,67,100
125888,note_off,,,,,64,0,13,,,,,6,,,67,100
125896,note_off,,,,,136,0,16,,,,,7,,,40,100
125952,note_on,,,,,64,0,13,,,,,6,,,69,100
125952,note_on,,,,,0,0,13,,,,,6,,,72,100
125952,note_on,,,,,64,0,15,,,,,7,,,69,100
125952,note_on,,,,,92,0,11,,,,,4,,,41,100
125952,note_on,,,,,0,0,15,,,,,7,,,72,100
125952,note_on,,,,,92,0,14,,,,,6,,,41,100
125952,note_on,,,,,128,0,10,,,,,3,,,65,100
125952,note_on,,,,,92,0,12,,,,,5,,,41,100
125952,note_on,,,,,92,0,9,,,,,2,,,69,100
125952,note_on,,,,,128,0,8,,,,,1,,,72,100
125952,set_tempo,,,,,256,1,0,,480000,,,,,,,
125952,note_on,,,,,56,0,16,,,,,7,,,41,100
126028,set_tempo,,,,,76,1,0,,483870,,,,,,,
126052,note_off,,,,,100,0,12,,,,,5,,,41,100
126052,note_off,,,,,100,0,14,,,,,6,,,41,100
126052,note_off,,,,,100,0,9,,,,,2,,,69,100
126052,note_off,,,,,100,0,11,,,,,4,,,41,100
126052,note_off,,,,,100,0,8,,,,,1,,,72,100
126080,note_off,,,,,128,0,15,,,,,7,,,69,100
126080,note_off,,,,,0,0,13,,,,,6,,,72,100
126080,note_off,,,,,128,0,13,,,,,6,,,69,100
126080,note_off,,,,,0,0,15,,,,,7,,,72,100
126088,note_off,,,,,136,0,16,,,,,7,,,41,100
126104,set_tempo,,,,,76,1,0,,487804,,,,,,,
126144,note_on,,,,,56,0,16,,,,,7,,,53,100
126144,note_on,,,,,92,0,12,,,,,5,,,41,101
126144,note_on,,,,,0,0,15,,,,,7,,,69,100
126144,note_on,,,,,0,0,13,,,,,6,,,69,100
126144,note_on,,,,,92,0,11,,,,,4,,,53,101
126144,note_on,,,,,92,0,8,,,,,1,,,69,101
126144,note_on,,,,,92,0,9,,,,,2,,,72,101
126144,note_on,,,,,92,0,14,,,,,6,,,53,100
126144,note_on,,,,,64,0,15,,,,,7,,,60,100
126144,note_on,,,,,64,0,13,,,,,6,,,60,100
126180,set_tempo,,,,,76,1,0,,491803,,,,,,,
126208,note_off,,,,,256,0,10,,,,,3,,,65,100
126244,note_off,,,,,100,0,11,,,,,4,,,53,100
126244,note_off,,,,,100,0,8,,,,,1,,,69,100
126244,note_off,,,,,100,0,12,,,,,5,,,41,100
126244,note_off,,,,,100,0,14,,,,,6,,,53,100
126244,note_off,,,,,100,0,9,,,,,2,,,72,100
126256,set_tempo,,,,,76,1,0,,495867,,,,,,,
126272,note_off,,,,,0,0,15,,,,,7,,,69,100
126272,note_off,,,,,128,0,15,,,,,7,,,60,100
126272,note_off,,,,,128,0,13,,,,,6,,,60,100
126272,note_off,,,,,0,0,13,,,,,6,,,69,100
126280,note_off,,,,,136,0,16,,,,,7,,,53,100
126336,note_on,,,,,0,0,15,,,,,7,,,70,100
126336,set_tempo,,,,,80,1,0,,500000,,,,,,,
126336,note_on,,,,,92,0,12,,,,,5,,,38,103
126336,note_on,,,,,56,0,16,,,,,7,,,50,100
126336,note_on,,,,,64,0,15,,,,,7,,,65,100
126336,note_on,,,,,92,0,8,,,,,1,,,70,103
126336,note_on,,,,,64,0,13,,,,,6,,,65,100
126336,note_on,,,,,128,0,10,,,,,3,,,53,103
126336,note_on,,,,,92,0,11,,,,,4,,,50,103
126336,note_on,,,,,92,0,9,,,,,2,,,74,103
126336,note_on,,,,,0,0,13,,,,,6,,,70,100
126336,note_on,,,,,92,0,14,,,,,6,,,50,100
126412,set_tempo,,,,,76,1,0,,504201,,,,,,,
126436,note_off,,,,,100,0,14,,,,,6,,,50,100
126436,note_off,,,,,100,0,11,,,,,4,,,50,100
126436,note_off,,,,,100,0,8,,,,,1,,,70,100
126436,note_off,,,,,100,0,9,,,,,2,,,74,100
126436,note_off,,,,,100,0,12,,,,,5,,,38,100
126464,note_off,,,,,128,0,15,,,,,7,,,65,100
126464,note_off,,,,,128,0,13,,,,,6,,,65,100
126472,note_off,,,,,136,0,16,,,,,7,,,50,100
126488,set_tempo,,,,,76,1,0,,508474,,,,,,,
126528,note_on,,,,,92,0,9,,,,,2,,,65,105
126528,note_on,,,,,92,0,11,,,,,4,,,46,105
126528,note_on,,,,,92,0,12,,,,,5,,,34,105
126528,note_on,,,,,92,0,8,,,,,1,,,62,105
126528,note_on,,,,,64,0,13,,,,,6,,,62,100
126528,note_on,,,,,92,0,14,,,,,6,,,46,100
126528,note_on,,,,,56,0,16,,,,,7,,,46,100
126528,note_on,,,,,64,0,15,,,,,7,,,62,100
126564,set_tempo,,,,,76,1,0,,512820,,,,,,,
126592,note_off,,,,,64,0,15,,,,,7,,,70,100
126592,note_off,,,,,64,0,13,,,,,6,,,70,100
126592,note_off,,,,,256,0,10,,,,,3,,,53,100
126628,note_off,,,,,100,0,9,,,,,2,,,65,100
126628,note_off,,,,,100,0,12,,,,,5,,,34,100
126628,note_off,,,,,100,0,11,,,,,4,,,46,100
126628,note_off,,,,,100,0,14,,,,,6,,,46,100
126628,note_off,,,,,100,0,8,,,,,1,,,62,100
126640,set_tempo,,,,,76,1,0,,517241,,,,,,,
126656,note_off,,,,,64,0,13,,,,,6,,,62,100
126656,note_off,,,,,64,0,15,,,,,7,,,62,100
126664,note_off,,,,,136,0,16,,,,,7,,,46,100
126720,note_on,,,,,92,0,11,,,,,4,,,51,107
126720,note_on,,,,,92,0,9,,,,,2,,,63,107
126720,note_on,,,,,92,0,14,,,,,6,,,51,100
126720,note_on,,,,,64,0,13,,,,,6,,,60,100
126720,note_on,,,,,0,0,13,,,,,6,,,67,100
126720,note_on,,,,,0,0,13,,,,,6,,,70,100
126720,note_on,,,,,128,0,10,,,,,3,,,55,107
126720,note_on,,,,,92,0,8,,,,,1,,,60,107
126720,note_on,,,,,92,0,12,,,,,5,,,39,107
126720,note_on,,,,,56,0,16,,,,,7,,,51,100
126720,note_on,,,,,64,0,15,,,,,7,,,60,100
126720,set_tempo,,,,,80,1,0,,566037,,,,,,,
126720,note_on,,,,,0,0,15,,,,,7,,,67,100
126720,note_on,,,,,0,0,15,,,,,7,,,70,100
126756,set_tempo,,,,,36,1,0,,526315,,,,,,,
126796,set_tempo,,,,,40,1,0,,530973,,,,,,,
126820,note_off,,,,,100,0,14,,,,,6,,,51,100
126820,note_off,,,,,100,0,9,,,,,2,,,63,100
126820,note_off,,,,,100,0,12,,,,,5,,,39,100
126820,note_off,,,,,100,0,11,,,,,4,,,51,100
126820,note_off,,,,,100,0,8,,,,,1,,,60,100
126832,set_tempo,,,,,36,1,0,,535714,,,,,,,
126856,note_off,,,,,136,0,16,,,,,7,,,51,100
126872,set_tempo,,,,,40,1,0,,540540,,,,,,,
126912,note_on,,,,,92,0,9,,,,,2,,,67,109
126912,note_on,,,,,56,0,16,,,,,7,,,39,100
126912,note_on,,,,,92,0,11,,,,,4,,,39,109
126912,set_tempo,,,,,40,1,0,,545454,,,,,,,
126912,note_on,,,,,92,0,12,,,,,5,,,39,109
126912,note_on,,,,,92,0,8,,,,,1,,,70,109
126912,note_on,,,,,92,0,14,,,,,6,,,39,100
126948,set_tempo,,,,,36,1,0,,550458,,,,,,,
126976,note_off,,,,,0,0,15,,,,,7,,,70,100
126976,note_off,,,,,256,0,13,,,,,6,,,60,100
126976,note_off,,,,,0,0,13,,,,,6,,,67,100
126976,note_off,,,,,0,0,13,,,,,6,,,70,100
126976,note_off,,,,,0,0,15,,,,,7,,,67,100
126976,note_off,,,,,256,0,15,,,,,7,,,60,100
126976,note_off,,,,,256,0,10,,,,,3,,,55,100
126988,set_tempo,,,,,40,1,0,,555555,,,,,,,
127012,note_off,,,,,100,0,14,,,,,6,,,39,100
127012,note_off,,,,,100,0,9,,,,,2,,,67,100
127012,note_off,,,,,100,0,12,,,,,5,,,39,100
127012,note_off,,,,,100,0,11,,,,,4,,,39,100
127012,note_off,,,,,100,0,8,,,,,1,,,70,100
127024,set_tempo,,,,,36,1,0,,560747,,,,,,,
127048,note_off,,,,,136,0,16,,,,,7,,,39,100
127064,set_tempo,,,,,40,1,0,,566037,,,,,,,
127104,note_on,,,,,92,0,9,,,,,2,,,63,111
127104,note_on,,,,,92,0,14,,,,,6,,,53,100
127104,note_on,,,,,0,0,15,,,,,7,,,65,100
127104,note_on,,,,,92,0,12,,,,,5,,,41,111
127104,note_on,,,,,0,0,13,,,,,6,,,69,100
127104,note_on,,,,,92,0,11,,,,,4,,,53,111
127104,note_on,,,,,92,0,8,,,,,1,,,60,111
127104,note_on,,,,,0,0,15,,,,,7,,,69,100
127104,note_on,,,,,56,0,16,,,,,7,,,53,100
127104,note_on,,,,,128,0,13,,,,,6,,,60,100
127104,note_on,,,,,128,0,10,,,,,3,,,53,111
127104,set_tempo,,,,,40,1,0,,571428,,,,,,,
127104,note_on,,,,,0,0,13,,,,,6,,,65,100
127104,note_on,,,,,128,0,15,,,,,7,,,60,100
127116,set_tempo,,,,,12,1,0,,576923,,,,,,,
127128,set_tempo,,,,,12,1,0,,582524,,,,,,,
127140,set_tempo,,,,,12,1,0,,588235,,,,,,,
127152,set_tempo,,,,,12,1,0,,594059,,,,,,,
127168,set_tempo,,,,,16,1,0,,600000,,,,,,,
127180,set_tempo,,,,,12,1,0,,606060,,,,,,,
127192,set_tempo,,,,,12,1,0,,612244,,,,,,,
127204,note_off,,,,,100,0,12,,,,,5,,,41,100
127204,note_off,,,,,100,0,9,,,,,2,,,63,100
127204,set_tempo,,,,,12,1,0,,618556,,,,,,,
127204,note_off,,,,,100,0,14,,,,,6,,,53,100
127204,note_off,,,,,100,0,11,,,,,4,,,53,100
127204,note_off,,,,,100,0,8,,,,,1,,,60,100
127216,set_tempo,,,,,12,1,0,,625000,,,,,,,
127232,set_tempo,,,,,16,1,0,,631578,,,,,,,
127240,note_off,,,,,136,0,16,,,,,7,,,53,100
127244,set_tempo,,,,,12,1,0,,638297,,,,,,,
127256,set_tempo,,,,,12,1,0,,645161,,,,,,,
127268,set_tempo,,,,,12,1,0,,652173,,,,,,,
127280,set_tempo,,,,,12,1,0,,659340,,,,,,,
127296,set_tempo,,,,,16,1,0,,666666,,,,,,,
127296,note_on,,,,,92,0,8,,,,,1,,,69,113
127296,note_on,,,,,92,0,9,,,,,2,,,60,113
127296,note_on,,,,,56,0,16,,,,,7,,,41,100
127296,note_on,,,,,92,0,11,,,,,4,,,41,113
127296,note_on,,,,,92,0,14,,,,,6,,,41,100
127296,note_on,,,,,92,0,12,,,,,5,,,41,113
127308,set_tempo,,,,,12,1,0,,674157,,,,,,,
127320,set_tempo,,,,,12,1,0,,681818,,,,,,,
127332,set_tempo,,,,,12,1,0,,689655,,,,,,,
127344,set_tempo,,,,,12,1,0,,697674,,,,,,,
127360,note_off,,,,,0,0,15,,,,,7,,,65,100
127360,note_off,,,,,256,0,15,,,,,7,,,60,100
127360,note_off,,,,,0,0,13,,,,,6,,,65,100
127360,set_tempo,,,,,16,1,0,,705882,,,,,,,
127360,note_off,,,,,0,0,13,,,,,6,,,69,100
127360,note_off,,,,,256,0,10,,,,,3,,,53,100
127360,note_off,,,,,0,0,15,,,,,7,,,69,100
127360,note_off,,,,,256,0,13,,,,,6,,,60,100
127372,set_tempo,,,,,12,1,0,,714285,,,,,,,
127384,set_tempo,,,,,12,1,0,,722891,,,,,,,
127396,note_off,,,,,100,0,14,,,,,6,,,41,100
127396,note_off,,,,,100,0,8,,,,,1,,,69,100
127396,note_off,,,,,100,0,11,,,,,4,,,41,100
127396,note_off,,,,,100,0,12,,,,,5,,,41,100
127396,note_off,,,,,100,0,9,,,,,2,,,60,100
127396,set_tempo,,,,,12,1,0,,731707,,,,,,,
127408,set_tempo,,,,,12,1,0,,740740,,,,,,,
127424,set_tempo,,,,,16,1,0,,750000,,,,,,,
127432,note_off,,,,,136,0,16,,,,,7,,,41,100
127436,set_tempo,,,,,12,1,0,,759493,,,,,,,
127448,set_tempo,,,,,12,1,0,,769230,,,,,,,
127460,set_tempo,,,,,12,1,0,,779220,,,,,,,
127472,set_tempo,,,,,12,1,0,,789473,,,,,,,
127488,note_on,,,,,92,0,8,,,,,1,,,58,110
127488,set_tempo,,,,,16,1,0,,1200000,,,,,,,
127488,end_of_track,,,,,0,1,0,,,,,,,,,
127488,note_on,,,,,0,0,15,,,,,7,,,62,100
127488,note_on,,,,,92,0,14,,,,,6,,,46,100
127488,note_on,,,,,92,0,12,,,,,5,,,34,110
127488,note_on,,,,,92,0,11,,,,,4,,,46,110
127488,note_on,,,,,56,0,16,,,,,7,,,46,100
127488,note_on,,,,,128,0,13,,,,,6,,,70,100
127488,note_on,,,,,0,0,13,,,,,6,,,65,100
127488,note_on,,,,,0,0,13,,,,,6,,,62,100
127488,note_on,,,,,128,0,10,,,,,3,,,53,110
127488,note_on,,,,,92,0,9,,,,,2,,,62,110
127488,note_on,,,,,0,0,15,,,,,7,,,65,100
127488,note_on,,,,,128,0,15,,,,,7,,,70,100
128000,note_off,,,,,512,0,12,,,,,5,,,34,100
128000,note_off,,,,,0,0,15,,,,,7,,,62,100
128000,note_off,,,,,512,0,16,,,,,7,,,46,100
128000,end_of_track,,,,,0,1,11,,,,,,,,,
128000,note_off,,,,,512,0,11,,,,,4,,,46,100
128000,note_off,,,,,512,0,13,,,,,6,,,70,100
128000,note_off,,,,,0,0,13,,,,,6,,,65,100
128000,note_off,,,,,0,0,13,,,,,6,,,62,100
128000,end_of_track,,,,,0,1,13,,,,,,,,,
128000,end_of_track,,,,,0,1,10,,,,,,,,,
128000,note_off,,,,,512,0,10,,,,,3,,,53,100
128000,end_of_track,,,,,0,1,9,,,,,,,,,
128000,note_off,,,,,512,0,9,,,,,2,,,62,100
128000,end_of_track,,,,,0,1,12,,,,,,,,,
128000,note_off,,,,,512,0,14,,,,,6,,,46,100
128000,end_of_track,,,,,0,1,14,,,,,,,,,
128000,note_off,,,,,512,0,8,,,,,1,,,58,100
128000,note_off,,,,,512,0,15,,,,,7,,,70,100
128000,note_off,,,,,0,0,15,,,,,7,,,65,100
128000,end_of_track,,,,,0,1,15,,,,,,,,,
128000,end_of_track,,,,,0,1,16,,,,,,,,,
129024,end_of_track,,,,,0,1,8,,,,,,,,,
129024,program_change,,,,,1024,0,8,,,,,1,48,,,
