tick,type,numerator,denominator,clocks_per_click,notated_32nd_notes_per_beat,time,meta,track,data,tempo,control,value,channel,program,key,note,velocity
0,time_signature,4,4,96,8,0,1,0,,,,,,,,,
0,key_signature,,,,,0,1,4,,,,,,,A,,
0,end_of_track,,,,,0,1,4,,,,,,,,,
0,track_name,,,,,0,1,5,,,,,,,,,
0,control_change,,,,,0,0,5,,,0,0,0,,,,
0,program_change,,,,,0,0,5,,,,,0,40,,,
0,control_change,,,,,0,0,5,,,7,100,0,,,,
0,control_change,,,,,0,0,5,,,10,52,0,,,,
0,control_change,,,,,0,0,5,,,91,63,0,,,,
0,control_change,,,,,0,0,4,,,91,63,0,,,,
0,key_signature,,,,,0,1,5,,,,,,,A,,
0,track_name,,,,,0,1,6,,,,,,,,,
0,control_change,,,,,0,0,6,,,0,0,0,,,,
0,program_change,,,,,0,0,6,,,,,0,40,,,
0,control_change,,,,,0,0,6,,,7,100,0,,,,
0,control_change,,,,,0,0,6,,,91,63,0,,,,
0,key_signature,,,,,0,1,6,,,,,,,A,,
0,end_of_track,,,,,0,1,6,,,,,,,,,
0,track_name,,,,,0,1,7,,,,,,,,,
0,end_of_track,,,,,0,1,5,,,,,,,,,
0,control_change,,,,,0,0,4,,,10,52,0,,,,
0,control_change,,,,,0,0,4,,,7,100,0,,,,
0,program_change,,,,,0,0,4,,,,,0,40,,,
0,control_change,,,,,0,0,13,,,91,60,5,,,,
0,control_change,,,,,0,0,13,,,7,55,5,,,,
0,program_change,,,,,0,0,13,,,,,5,6,,,
0,control_change,,,,,0,0,13,,,0,0,5,,,,
0,track_name,,,,,0,1,13,,,,,,,,,
0,track_name,,,,,0,1,1,,,,,,,,,
0,end_of_track,,,,,0,1,1,,,,,,,,,
0,track_name,,,,,0,1,2,,,,,,,,,
0,end_of_track,,,,,0,1,2,,,,,,,,,
0,track_name,,,,,0,1,3,,,,,,,,,
0,control_change,,,,,0,0,3,,,0,0,0,,,,
0,control_change,,,,,0,0,3,,,7,100,0,,,,
0,control_change,,,,,0,0,3,,,10,52,0,,,,
0,control_change,,,,,0,0,3,,,91,63,0,,,,
0,program_change,,,,,0,0,3,,,,,0,40,,,
0,key_signature,,,,,0,1,3,,,,,,,A,,
0,end_of_track,,,,,0,1,3,,,,,,,,,
0,track_name,,,,,0,1,4,,,,,,,,,
0,control_change,,,,,0,0,4,,,0,0,0,,,,
0,control_change,,,,,0,0,7,,,0,0,0,,,,
0,key_signature,,,,,0,1,13,,,,,,,A,,
0,program_change,,,,,0,0,7,,,,,0,40,,,
0,control_change,,,,,0,0,7,,,10,52,0,,,,
0,key_signature,,,,,0,1,11,,,,,,,A,,
0,note_on,,,,,0,0,11,,,,,3,,,57,100
0,track_name,,,,,0,1,9,,,,,,,,,
0,control_change,,,,,0,0,9,,,0,0,1,,,,
0,program_change,,,,,0,0,9,,,,,1,48,,,
0,control_change,,,,,0,0,9,,,7,100,1,,,,
0,control_change,,,,,0,0,9,,,10,40,1,,,,
0,control_change,,,,,0,0,9,,,91,67,1,,,,
0,control_change,,,,,0,0,11,,,91,66,3,,,,
0,key_signature,,,,,0,1,9,,,,,,,A,,
0,track_name,,,,,0,1,12,,,,,,,,,
0,control_change,,,,,0,0,12,,,0,0,4,,,,
0,program_change,,,,,0,0,12,,,,,4,48,,,
0,control_change,,,,,0,0,12,,,7,77,4,,,,
0,control_change,,,,,0,0,12,,,10,96,4,,,,
0,control_change,,,,,0,0,12,,,91,63,4,,,,
0,key_signature,,,,,0,1,12,,,,,,,A,,
0,note_on,,,,,0,0,12,,,,,4,,,45,100
0,note_on,,,,,0,0,9,,,,,1,,,69,100
0,control_change,,,,,0,0,11,,,10,82,3,,,,
0,control_change,,,,,0,0,11,,,7,82,3,,,,
0,program_change,,,,,0,0,11,,,,,3,48,,,
0,control_change,,,,,0,0,7,,,91,63,0,,,,
0,key_signature,,,,,0,1,7,,,,,,,A,,
0,end_of_track,,,,,0,1,7,,,,,,,,,
0,track_name,,,,,0,1,8,,,,,,,,,
0,control_change,,,,,0,0,8,,,0,0,0,,,,
0,program_change,,,,,0,0,8,,,,,0,40,,,
0,control_change,,,,,0,0,8,,,7,100,0,,,,
0,control_change,,,,,0,0,8,,,10,52,0,,,,
0,control_change,,,,,0,0,8,,,91,63,0,,,,
0,key_signature,,,,,0,1,8,,,,,,,A,,
0,note_on,,,,,0,0,14,,,,,5,,,57,100
0,key_signature,,,,,0,1,14,,,,,,,A,,
0,control_change,,,,,0,0,14,,,91,60,5,,,,
0,control_change,,,,,0,0,14,,,7,55,5,,,,
0,program_change,,,,,0,0,14,,,,,5,6,,,
0,control_change,,,,,0,0,14,,,0,0,5,,,,
0,track_name,,,,,0,1,14,,,,,,,,,
0,track_name,,,,,0,1,11,,,,,,,,,
0,control_change,,,,,0,0,11,,,0,0,3,,,,
0,control_change,,,,,0,0,7,,,7,100,0,,,,
0,note_on,,,,,0,0,13,,,,,5,,,69,100
0,control_change,,,,,0,0,6,,,10,52,0,,,,
0,set_tempo,,,,,0,1,0,,500000,,,,,,,
0,note_on,,,,,0,0,10,,,,,2,,,69,100
0,key_signature,,,,,0,1,10,,,,,,,A,,
0,control_change,,,,,0,0,10,,,91,61,2,,,,
0,control_change,,,,,0,0,10,,,7,95,2,,,,
0,program_change,,,,,0,0,10,,,,,2,48,,,
0,control_change,,,,,0,0,10,,,0,0,2,,,,
0,track_name,,,,,0,1,10,,,,,,,,,
0,sequencer_specific,,,,,0,1,0,"(0, 0, 65)",,,,,,,,
0,sequencer_specific,,,,,0,1,0,"(0, 0, 119, 14, 1)",,,,,,,,
256,note_off,,,,,256,0,10,,,,,2,,,69,100
256,note_off,,,,,256,0,9,,,,,1,,,69,100
256,note_off,,,,,256,0,14,,,,,5,,,57,100
256,note_off,,,,,256,0,13,,,,,5,,,69,100
256,note_off,,,,,256,0,11,,,,,3,,,57,100
256,note_off,,,,,256,0,12,,,,,4,,,45,100
384,note_on,,,,,128,0,9,,,,,1,,,69,100
384,note_on,,,,,128,0,14,,,,,5,,,57,100
384,note_on,,,,,128,0,11,,,,,3,,,57,100
384,note_on,,,,,128,0,12,,,,,4,,,45,100
384,note_on,,,,,128,0,10,,,,,2,,,69,100
384,note_on,,,,,128,0,13,,,,,5,,,69,100
576,note_off,,,,,192,0,14,,,,,5,,,57,100
576,note_off,,,,,192,0,10,,,,,2,,,69,100
576,note_off,,,,,192,0,12,,,,,4,,,45,100
576,note_off,,,,,192,0,13,,,,,5,,,69,100
576,note_off,,,,,192,0,11,,,,,3,,,57,100
576,note_off,,,,,192,0,9,,,,,1,,,69,100
672,note_on,,,,,96,0,14,,,,,5,,,57,100
672,note_on,,,,,96,0,13,,,,,5,,,69,100
672,note_on,,,,,96,0,12,,,,,4,,,45,100
672,note_on,,,,,96,0,11,,,,,3,,,57,100
672,note_on,,,,,96,0,10,,,,,2,,,69,100
672,note_on,,,,,96,0,9,,,,,1,,,69,100
736,note_off,,,,,64,0,10,,,,,2,,,69,100
736,note_off,,,,,64,0,13,,,,,5,,,69,100
736,note_off,,,,,64,0,14,,,,,5,,,57,100
736,note_off,,,,,64,0,11,,,,,3,,,57,100
736,note_off,,,,,64,0,12,,,,,4,,,45,100
736,note_off,,,,,64,0,9,,,,,1,,,69,100
768,note_on,,,,,32,0,13,,,,,5,,,69,100
768,note_on,,,,,32,0,14,,,,,5,,,57,100
768,note_on,,,,,32,0,12,,,,,4,,,45,100
768,note_on,,,,,32,0,11,,,,,3,,,57,100
768,note_on,,,,,32,0,10,,,,,2,,,69,100
768,note_on,,,,,32,0,9,,,,,1,,,69,100
896,note_off,,,,,128,0,12,,,,,4,,,45,100
896,note_off,,,,,128,0,14,,,,,5,,,57,100
896,note_off,,,,,128,0,13,,,,,5,,,69,100
896,note_off,,,,,128,0,10,,,,,2,,,69,100
896,note_off,,,,,128,0,9,,,,,1,,,69,100
896,note_off,,,,,128,0,11,,,,,3,,,57,100
960,note_on,,,,,64,0,9,,,,,1,,,57,100
960,note_on,,,,,64,0,14,,,,,5,,,45,100
960,note_on,,,,,64,0,11,,,,,3,,,45,100
960,note_on,,,,,64,0,12,,,,,4,,,33,100
960,note_on,,,,,64,0,10,,,,,2,,,57,100
960,note_on,,,,,64,0,13,,,,,5,,,57,100
1088,note_off,,,,,128,0,14,,,,,5,,,45,100
1088,note_off,,,,,128,0,11,,,,,3,,,45,100
1088,note_off,,,,,128,0,9,,,,,1,,,57,100
1088,note_off,,,,,128,0,12,,,,,4,,,33,100
1088,note_off,,,,,128,0,13,,,,,5,,,57,100
1088,note_off,,,,,128,0,10,,,,,2,,,57,100
1344,note_on,,,,,256,0,13,,,,,5,,,69,100
1344,note_on,,,,,256,0,14,,,,,5,,,57,100
1344,note_on,,,,,256,0,9,,,,,1,,,69,100
1344,note_on,,,,,256,0,10,,,,,2,,,69,100
1344,note_on,,,,,256,0,12,,,,,4,,,45,100
1344,note_on,,,,,256,0,11,,,,,3,,,57,100
1472,note_off,,,,,128,0,10,,,,,2,,,69,100
1472,note_off,,,,,128,0,11,,,,,3,,,57,100
1472,note_off,,,,,128,0,12,,,,,4,,,45,100
1472,note_off,,,,,128,0,9,,,,,1,,,69,100
1472,note_off,,,,,128,0,13,,,,,5,,,69,100
1472,note_off,,,,,128,0,14,,,,,5,,,57,100
1536,note_on,,,,,64,0,12,,,,,4,,,45,100
1536,note_on,,,,,64,0,9,,,,,1,,,69,100
1536,note_on,,,,,64,0,11,,,,,3,,,57,100
1536,note_on,,,,,64,0,13,,,,,5,,,69,100
1536,note_on,,,,,64,0,10,,,,,2,,,69,100
1536,note_on,,,,,64,0,14,,,,,5,,,57,100
1664,note_off,,,,,128,0,10,,,,,2,,,69,100
1664,note_off,,,,,128,0,12,,,,,4,,,45,100
1664,note_off,,,,,128,0,9,,,,,1,,,69,100
1664,note_off,,,,,128,0,11,,,,,3,,,57,100
1664,note_off,,,,,128,0,14,,,,,5,,,57,100
1664,note_off,,,,,128,0,13,,,,,5,,,69,100
1728,note_on,,,,,64,0,11,,,,,3,,,45,100
1728,note_on,,,,,64,0,10,,,,,2,,,57,100
1728,note_on,,,,,64,0,12,,,,,4,,,33,100
1728,note_on,,,,,64,0,13,,,,,5,,,57,100
1728,note_on,,,,,64,0,14,,,,,5,,,45,100
1728,note_on,,,,,64,0,9,,,,,1,,,57,100
1856,note_off,,,,,128,0,13,,,,,5,,,57,100
1856,note_off,,,,,128,0,11,,,,,3,,,45,100
1856,note_off,,,,,128,0,10,,,,,2,,,57,100
1856,note_off,,,,,128,0,9,,,,,1,,,57,100
1856,note_off,,,,,128,0,14,,,,,5,,,45,100
1856,note_off,,,,,128,0,12,,,,,4,,,33,100
1920,note_on,,,,,64,0,11,,,,,3,,,45,100
1920,note_on,,,,,64,0,13,,,,,5,,,57,100
1920,note_on,,,,,64,0,12,,,,,4,,,33,100
1920,note_on,,,,,64,0,10,,,,,2,,,57,100
1920,note_on,,,,,64,0,9,,,,,1,,,57,100
1920,note_on,,,,,64,0,14,,,,,5,,,45,100
2048,note_off,,,,,128,0,9,,,,,1,,,57,100
2048,note_off,,,,,128,0,10,,,,,2,,,57,100
2048,note_off,,,,,128,0,11,,,,,3,,,45,100
2048,note_off,,,,,128,0,14,,,,,5,,,45,100
2048,note_off,,,,,128,0,13,,,,,5,,,57,100
2048,note_off,,,,,128,0,12,,,,,4,,,33,100
2112,note_on,,,,,64,0,10,,,,,2,,,69,100
2112,note_on,,,,,64,0,9,,,,,1,,,69,100
2112,note_on,,,,,64,0,11,,,,,3,,,57,100
2112,note_on,,,,,64,0,13,,,,,5,,,69,100
2112,note_on,,,,,64,0,12,,,,,4,,,45,100
2112,note_on,,,,,64,0,14,,,,,5,,,57,100
2240,note_off,,,,,128,0,9,,,,,1,,,69,100
2240,note_off,,,,,128,0,10,,,,,2,,,69,100
2240,note_off,,,,,128,0,11,,,,,3,,,57,100
2240,note_off,,,,,128,0,13,,,,,5,,,69,100
2240,note_off,,,,,128,0,12,,,,,4,,,45,100
2240,note_off,,,,,128,0,14,,,,,5,,,57,100
2304,note_on,,,,,64,0,13,,,,,5,,,69,100
2304,note_on,,,,,64,0,12,,,,,4,,,45,100
2304,note_on,,,,,64,0,9,,,,,1,,,69,100
2304,note_on,,,,,64,0,14,,,,,5,,,57,100
2304,note_on,,,,,64,0,11,,,,,3,,,57,100
2304,note_on,,,,,64,0,10,,,,,2,,,69,100
2432,note_off,,,,,128,0,14,,,,,5,,,57,100
2432,note_off,,,,,128,0,12,,,,,4,,,45,100
2432,note_off,,,,,128,0,11,,,,,3,,,57,100
2432,note_off,,,,,128,0,10,,,,,2,,,69,100
2432,note_off,,,,,128,0,9,,,,,1,,,69,100
2432,note_off,,,,,128,0,13,,,,,5,,,69,100
2496,note_on,,,,,64,0,14,,,,,5,,,45,100
2496,note_on,,,,,64,0,11,,,,,3,,,45,100
2496,note_on,,,,,64,0,9,,,,,1,,,57,100
2496,note_on,,,,,64,0,12,,,,,4,,,33,100
2496,note_on,,,,,64,0,13,,,,,5,,,57,100
2496,note_on,,,,,64,0,10,,,,,2,,,57,100
2624,note_off,,,,,128,0,13,,,,,5,,,57,100
2624,note_off,,,,,128,0,9,,,,,1,,,57,100
2624,note_off,,,,,128,0,11,,,,,3,,,45,100
2624,note_off,,,,,128,0,10,,,,,2,,,57,100
2624,note_off,,,,,128,0,14,,,,,5,,,45,100
2624,note_off,,,,,128,0,12,,,,,4,,,33,100
2688,note_on,,,,,64,0,9,,,,,1,,,57,100
2688,note_on,,,,,64,0,14,,,,,5,,,45,100
2688,note_on,,,,,64,0,12,,,,,4,,,33,100
2688,note_on,,,,,64,0,11,,,,,3,,,45,100
2688,note_on,,,,,64,0,10,,,,,2,,,57,100
2688,note_on,,,,,64,0,13,,,,,5,,,57,100
2816,note_off,,,,,128,0,9,,,,,1,,,57,100
2816,note_off,,,,,128,0,12,,,,,4,,,33,100
2816,note_off,,,,,128,0,10,,,,,2,,,57,100
2816,note_off,,,,,128,0,14,,,,,5,,,45,100
2816,note_off,,,,,128,0,11,,,,,3,,,45,100
2816,note_off,,,,,128,0,13,,,,,5,,,57,100
2880,note_on,,,,,64,0,11,,,,,3,,,57,100
2880,note_on,,,,,64,0,13,,,,,5,,,69,100
2880,note_on,,,,,64,0,9,,,,,1,,,69,100
2880,note_on,,,,,64,0,10,,,,,2,,,69,100
2880,note_on,,,,,64,0,14,,,,,5,,,57,100
2880,note_on,,,,,64,0,12,,,,,4,,,45,100
3008,note_off,,,,,128,0,12,,,,,4,,,45,100
3008,note_off,,,,,128,0,9,,,,,1,,,69,100
3008,note_off,,,,,128,0,10,,,,,2,,,69,100
3008,note_off,,,,,128,0,13,,,,,5,,,69,100
3008,note_off,,,,,128,0,14,,,,,5,,,57,100
3008,note_off,,,,,128,0,11,,,,,3,,,57,100
3072,note_on,,,,,64,0,10,,,,,2,,,69,100
3072,note_on,,,,,64,0,14,,,,,5,,,57,100
3072,note_on,,,,,64,0,9,,,,,1,,,69,100
3072,note_on,,,,,64,0,13,,,,,5,,,69,100
3072,note_on,,,,,64,0,11,,,,,3,,,57,100
3072,note_on,,,,,64,0,12,,,,,4,,,45,100
3200,note_off,,,,,128,0,12,,,,,4,,,45,100
3200,note_off,,,,,128,0,13,,,,,5,,,69,100
3200,note_off,,,,,128,0,14,,,,,5,,,57,100
3200,note_off,,,,,128,0,10,,,,,2,,,69,100
3200,note_off,,,,,128,0,9,,,,,1,,,69,100
3200,note_off,,,,,128,0,11,,,,,3,,,57,100
3264,note_on,,,,,64,0,14,,,,,5,,,56,100
3264,note_on,,,,,64,0,11,,,,,3,,,56,100
3264,note_on,,,,,64,0,9,,,,,1,,,68,100
3264,note_on,,,,,64,0,10,,,,,2,,,68,100
3264,note_on,,,,,64,0,12,,,,,4,,,44,100
3264,note_on,,,,,64,0,13,,,,,5,,,68,100
3328,note_off,,,,,64,0,9,,,,,1,,,68,100
3328,note_off,,,,,64,0,12,,,,,4,,,44,100
3328,note_off,,,,,64,0,13,,,,,5,,,68,100
3328,note_off,,,,,64,0,14,,,,,5,,,56,100
3328,note_off,,,,,64,0,10,,,,,2,,,68,100
3328,note_off,,,,,64,0,11,,,,,3,,,56,100
3360,note_on,,,,,32,0,14,,,,,5,,,54,100
3360,note_on,,,,,32,0,9,,,,,1,,,66,100
3360,note_on,,,,,32,0,11,,,,,3,,,54,100
3360,note_on,,,,,32,0,13,,,,,5,,,66,100
3360,note_on,,,,,32,0,12,,,,,4,,,42,100
3360,note_on,,,,,32,0,10,,,,,2,,,66,100
3424,note_off,,,,,64,0,13,,,,,5,,,66,100
3424,note_off,,,,,64,0,10,,,,,2,,,66,100
3424,note_off,,,,,64,0,11,,,,,3,,,54,100
3424,note_off,,,,,64,0,9,,,,,1,,,66,100
3424,note_off,,,,,64,0,14,,,,,5,,,54,100
3424,note_off,,,,,64,0,12,,,,,4,,,42,100
3456,note_on,,,,,32,0,11,,,,,3,,,52,100
3456,note_on,,,,,32,0,14,,,,,5,,,52,100
3456,note_on,,,,,32,0,10,,,,,2,,,64,100
3456,note_on,,,,,32,0,13,,,,,5,,,64,100
3456,note_on,,,,,32,0,9,,,,,1,,,64,100
3456,note_on,,,,,32,0,12,,,,,4,,,40,100
3584,note_off,,,,,128,0,13,,,,,5,,,64,100
3584,note_off,,,,,128,0,14,,,,,5,,,52,100
3584,note_off,,,,,128,0,10,,,,,2,,,64,100
3584,note_off,,,,,128,0,11,,,,,3,,,52,100
3584,note_off,,,,,128,0,9,,,,,1,,,64,100
3584,note_off,,,,,128,0,12,,,,,4,,,40,100
3648,note_on,,,,,64,0,12,,,,,4,,,38,100
3648,note_on,,,,,64,0,9,,,,,1,,,62,100
3648,note_on,,,,,64,0,13,,,,,5,,,62,100
3648,note_on,,,,,64,0,10,,,,,2,,,62,100
3648,note_on,,,,,64,0,11,,,,,3,,,50,100
3648,note_on,,,,,64,0,14,,,,,5,,,50,100
3776,note_off,,,,,128,0,11,,,,,3,,,50,100
3776,note_off,,,,,128,0,12,,,,,4,,,38,100
3776,note_off,,,,,128,0,13,,,,,5,,,62,100
3776,note_off,,,,,128,0,14,,,,,5,,,50,100
3776,note_off,,,,,128,0,9,,,,,1,,,62,100
3776,note_off,,,,,128,0,10,,,,,2,,,62,100
3840,note_on,,,,,64,0,11,,,,,3,,,49,100
3840,note_on,,,,,64,0,10,,,,,2,,,61,100
3840,note_on,,,,,64,0,12,,,,,4,,,37,100
3840,note_on,,,,,64,0,9,,,,,1,,,61,100
3840,note_on,,,,,0,0,13,,,,,5,,,64,100
3840,note_on,,,,,64,0,14,,,,,5,,,49,100
3840,note_on,,,,,64,0,13,,,,,5,,,57,100
4096,note_off,,,,,256,0,10,,,,,2,,,61,100
4096,note_off,,,,,256,0,13,,,,,5,,,57,100
4096,note_off,,,,,256,0,11,,,,,3,,,49,100
4096,note_off,,,,,256,0,9,,,,,1,,,61,100
4096,note_off,,,,,256,0,14,,,,,5,,,49,100
4096,note_off,,,,,256,0,12,,,,,4,,,37,100
4096,note_off,,,,,0,0,13,,,,,5,,,64,100
4608,note_on,,,,,512,0,10,,,,,2,,,76,100
4608,note_on,,,,,512,0,9,,,,,1,,,76,100
4608,note_on,,,,,512,0,12,,,,,4,,,52,100
4608,note_on,,,,,512,0,14,,,,,5,,,64,100
4608,note_on,,,,,512,0,13,,,,,5,,,76,100
4608,note_on,,,,,512,0,11,,,,,3,,,64,100
4864,note_off,,,,,256,0,12,,,,,4,,,52,100
4864,note_off,,,,,256,0,9,,,,,1,,,76,100
4864,note_off,,,,,256,0,14,,,,,5,,,64,100
4864,note_off,,,,,256,0,11,,,,,3,,,64,100
4864,note_off,,,,,256,0,10,,,,,2,,,76,100
4864,note_off,,,,,256,0,13,,,,,5,,,76,100
4992,note_on,,,,,128,0,14,,,,,5,,,64,100
4992,note_on,,,,,128,0,10,,,,,2,,,76,100
4992,note_on,,,,,128,0,9,,,,,1,,,76,100
4992,note_on,,,,,128,0,12,,,,,4,,,52,100
4992,note_on,,,,,128,0,13,,,,,5,,,76,100
4992,note_on,,,,,128,0,11,,,,,3,,,64,100
5184,note_off,,,,,192,0,13,,,,,5,,,76,100
5184,note_off,,,,,192,0,9,,,,,1,,,76,100
5184,note_off,,,,,192,0,14,,,,,5,,,64,100
5184,note_off,,,,,192,0,12,,,,,4,,,52,100
5184,note_off,,,,,192,0,11,,,,,3,,,64,100
5184,note_off,,,,,192,0,10,,,,,2,,,76,100
5280,note_on,,,,,96,0,12,,,,,4,,,52,100
5280,note_on,,,,,96,0,11,,,,,3,,,64,100
5280,note_on,,,,,96,0,13,,,,,5,,,76,100
5280,note_on,,,,,96,0,10,,,,,2,,,76,100
5280,note_on,,,,,96,0,9,,,,,1,,,76,100
5280,note_on,,,,,96,0,14,,,,,5,,,64,100
5344,note_off,,,,,64,0,12,,,,,4,,,52,100
5344,note_off,,,,,64,0,13,,,,,5,,,76,100
5344,note_off,,,,,64,0,11,,,,,3,,,64,100
5344,note_off,,,,,64,0,14,,,,,5,,,64,100
5344,note_off,,,,,64,0,10,,,,,2,,,76,100
5344,note_off,,,,,64,0,9,,,,,1,,,76,100
5376,note_on,,,,,32,0,13,,,,,5,,,76,100
5376,note_on,,,,,32,0,10,,,,,2,,,76,100
5376,note_on,,,,,32,0,14,,,,,5,,,64,100
5376,note_on,,,,,32,0,12,,,,,4,,,52,100
5376,note_on,,,,,32,0,11,,,,,3,,,64,100
5376,note_on,,,,,32,0,9,,,,,1,,,76,100
5504,note_off,,,,,128,0,13,,,,,5,,,76,100
5504,note_off,,,,,128,0,14,,,,,5,,,64,100
5504,note_off,,,,,128,0,11,,,,,3,,,64,100
5504,note_off,,,,,128,0,12,,,,,4,,,52,100
5504,note_off,,,,,128,0,9,,,,,1,,,76,100
5504,note_off,,,,,128,0,10,,,,,2,,,76,100
5568,note_on,,,,,64,0,13,,,,,5,,,64,100
5568,note_on,,,,,64,0,10,,,,,2,,,64,100
5568,note_on,,,,,64,0,12,,,,,4,,,40,100
5568,note_on,,,,,64,0,11,,,,,3,,,52,100
5568,note_on,,,,,64,0,14,,,,,5,,,52,100
5568,note_on,,,,,64,0,9,,,,,1,,,64,100
5696,note_off,,,,,128,0,11,,,,,3,,,52,100
5696,note_off,,,,,128,0,13,,,,,5,,,64,100
5696,note_off,,,,,128,0,12,,,,,4,,,40,100
5696,note_off,,,,,128,0,9,,,,,1,,,64,100
5696,note_off,,,,,128,0,14,,,,,5,,,52,100
5696,note_off,,,,,128,0,10,,,,,2,,,64,100
5952,note_on,,,,,256,0,11,,,,,3,,,64,100
5952,note_on,,,,,256,0,14,,,,,5,,,64,100
5952,note_on,,,,,256,0,9,,,,,1,,,76,100
5952,note_on,,,,,256,0,13,,,,,5,,,76,100
5952,note_on,,,,,256,0,12,,,,,4,,,52,100
5952,note_on,,,,,256,0,10,,,,,2,,,76,100
6080,note_off,,,,,128,0,13,,,,,5,,,76,100
6080,note_off,,,,,128,0,11,,,,,3,,,64,100
6080,note_off,,,,,128,0,14,,,,,5,,,64,100
6080,note_off,,,,,128,0,9,,,,,1,,,76,100
6080,note_off,,,,,128,0,12,,,,,4,,,52,100
6080,note_off,,,,,128,0,10,,,,,2,,,76,100
6144,note_on,,,,,64,0,9,,,,,1,,,76,100
6144,note_on,,,,,64,0,11,,,,,3,,,64,100
6144,note_on,,,,,64,0,14,,,,,5,,,64,100
6144,note_on,,,,,64,0,13,,,,,5,,,76,100
6144,note_on,,,,,64,0,12,,,,,4,,,52,100
6144,note_on,,,,,64,0,10,,,,,2,,,76,100
6272,note_off,,,,,128,0,9,,,,,1,,,76,100
6272,note_off,,,,,128,0,13,,,,,5,,,76,100
6272,note_off,,,,,128,0,10,,,,,2,,,76,100
6272,note_off,,,,,128,0,12,,,,,4,,,52,100
6272,note_off,,,,,128,0,14,,,,,5,,,64,100
6272,note_off,,,,,128,0,11,,,,,3,,,64,100
6336,note_on,,,,,64,0,14,,,,,5,,,52,100
6336,note_on,,,,,64,0,9,,,,,1,,,64,100
6336,note_on,,,,,64,0,12,,,,,4,,,40,100
6336,note_on,,,,,64,0,10,,,,,2,,,64,100
6336,note_on,,,,,64,0,11,,,,,3,,,52,100
6336,note_on,,,,,64,0,13,,,,,5,,,64,100
6464,note_off,,,,,128,0,10,,,,,2,,,64,100
6464,note_off,,,,,128,0,13,,,,,5,,,64,100
6464,note_off,,,,,128,0,14,,,,,5,,,52,100
6464,note_off,,,,,128,0,12,,,,,4,,,40,100
6464,note_off,,,,,128,0,9,,,,,1,,,64,100
6464,note_off,,,,,128,0,11,,,,,3,,,52,100
6528,note_on,,,,,64,0,12,,,,,4,,,40,100
6528,note_on,,,,,64,0,11,,,,,3,,,52,100
6528,note_on,,,,,64,0,13,,,,,5,,,64,100
6528,note_on,,,,,64,0,10,,,,,2,,,64,100
6528,note_on,,,,,64,0,9,,,,,1,,,64,100
6528,note_on,,,,,64,0,14,,,,,5,,,52,100
6656,note_off,,,,,128,0,14,,,,,5,,,52,100
6656,note_off,,,,,128,0,11,,,,,3,,,52,100
6656,note_off,,,,,128,0,13,,,,,5,,,64,100
6656,note_off,,,,,128,0,9,,,,,1,,,64,100
6656,note_off,,,,,128,0,10,,,,,2,,,64,100
6656,note_off,,,,,128,0,12,,,,,4,,,40,100
6720,note_on,,,,,64,0,10,,,,,2,,,76,100
6720,note_on,,,,,64,0,13,,,,,5,,,76,100
6720,note_on,,,,,64,0,14,,,,,5,,,64,100
6720,note_on,,,,,64,0,12,,,,,4,,,52,100
6720,note_on,,,,,64,0,11,,,,,3,,,64,100
6720,note_on,,,,,64,0,9,,,,,1,,,76,100
6848,note_off,,,,,128,0,9,,,,,1,,,76,100
6848,note_off,,,,,128,0,10,,,,,2,,,76,100
6848,note_off,,,,,128,0,13,,,,,5,,,76,100
6848,note_off,,,,,128,0,14,,,,,5,,,64,100
6848,note_off,,,,,128,0,11,,,,,3,,,64,100
6848,note_off,,,,,128,0,12,,,,,4,,,52,100
6912,note_on,,,,,64,0,9,,,,,1,,,76,100
6912,note_on,,,,,64,0,10,,,,,2,,,76,100
6912,note_on,,,,,64,0,11,,,,,3,,,64,100
6912,note_on,,,,,64,0,13,,,,,5,,,76,100
6912,note_on,,,,,64,0,14,,,,,5,,,64,100
6912,note_on,,,,,64,0,12,,,,,4,,,52,100
7040,note_off,,,,,128,0,10,,,,,2,,,76,100
7040,note_off,,,,,128,0,11,,,,,3,,,64,100
7040,note_off,,,,,128,0,14,,,,,5,,,64,100
7040,note_off,,,,,128,0,9,,,,,1,,,76,100
7040,note_off,,,,,128,0,12,,,,,4,,,52,100
7040,note_off,,,,,128,0,13,,,,,5,,,76,100
7104,note_on,,,,,64,0,11,,,,,3,,,52,100
7104,note_on,,,,,64,0,9,,,,,1,,,64,100
7104,note_on,,,,,64,0,14,,,,,5,,,52,100
7104,note_on,,,,,64,0,13,,,,,5,,,64,100
7104,note_on,,,,,64,0,10,,,,,2,,,64,100
7104,note_on,,,,,64,0,12,,,,,4,,,40,100
7232,note_off,,,,,128,0,9,,,,,1,,,64,100
7232,note_off,,,,,128,0,11,,,,,3,,,52,100
7232,note_off,,,,,128,0,10,,,,,2,,,64,100
7232,note_off,,,,,128,0,12,,,,,4,,,40,100
7232,note_off,,,,,128,0,13,,,,,5,,,64,100
7232,note_off,,,,,128,0,14,,,,,5,,,52,100
7296,note_on,,,,,64,0,13,,,,,5,,,64,100
7296,note_on,,,,,64,0,9,,,,,1,,,64,100
7296,note_on,,,,,64,0,10,,,,,2,,,64,100
7296,note_on,,,,,64,0,14,,,,,5,,,52,100
7296,note_on,,,,,64,0,11,,,,,3,,,52,100
7296,note_on,,,,,64,0,12,,,,,4,,,40,100
7424,note_off,,,,,128,0,12,,,,,4,,,40,100
7424,note_off,,,,,128,0,9,,,,,1,,,64,100
7424,note_off,,,,,128,0,10,,,,,2,,,64,100
7424,note_off,,,,,128,0,14,,,,,5,,,52,100
7424,note_off,,,,,128,0,11,,,,,3,,,52,100
7424,note_off,,,,,128,0,13,,,,,5,,,64,100
7488,note_on,,,,,64,0,10,,,,,2,,,76,100
7488,note_on,,,,,64,0,13,,,,,5,,,76,100
7488,note_on,,,,,64,0,12,,,,,4,,,52,100
7488,note_on,,,,,64,0,11,,,,,3,,,64,100
7488,note_on,,,,,64,0,14,,,,,5,,,64,100
7488,note_on,,,,,64,0,9,,,,,1,,,76,100
7616,note_off,,,,,128,0,9,,,,,1,,,76,100
7616,note_off,,,,,128,0,12,,,,,4,,,52,100
7616,note_off,,,,,128,0,14,,,,,5,,,64,100
7616,note_off,,,,,128,0,11,,,,,3,,,64,100
7616,note_off,,,,,128,0,10,,,,,2,,,76,100
7616,note_off,,,,,128,0,13,,,,,5,,,76,100
7680,note_on,,,,,64,0,14,,,,,5,,,64,100
7680,note_on,,,,,64,0,13,,,,,5,,,76,100
7680,note_on,,,,,64,0,9,,,,,1,,,76,100
7680,note_on,,,,,64,0,11,,,,,3,,,64,100
7680,note_on,,,,,64,0,12,,,,,4,,,52,100
7680,note_on,,,,,64,0,10,,,,,2,,,76,100
7808,note_off,,,,,128,0,12,,,,,4,,,52,100
7808,note_off,,,,,128,0,10,,,,,2,,,76,100
7808,note_off,,,,,128,0,11,,,,,3,,,64,100
7808,note_off,,,,,128,0,9,,,,,1,,,76,100
7808,note_off,,,,,128,0,14,,,,,5,,,64,100
7808,note_off,,,,,128,0,13,,,,,5,,,76,100
7872,note_on,,,,,64,0,12,,,,,4,,,50,100
7872,note_on,,,,,64,0,14,,,,,5,,,62,100
7872,note_on,,,,,64,0,11,,,,,3,,,62,100
7872,note_on,,,,,64,0,13,,,,,5,,,74,100
7872,note_on,,,,,64,0,10,,,,,2,,,74,100
7872,note_on,,,,,64,0,9,,,,,1,,,74,100
7936,note_off,,,,,64,0,11,,,,,3,,,62,100
7936,note_off,,,,,64,0,9,,,,,1,,,74,100
7936,note_off,,,,,64,0,14,,,,,5,,,62,100
7936,note_off,,,,,64,0,10,,,,,2,,,74,100
7936,note_off,,,,,64,0,13,,,,,5,,,74,100
7936,note_off,,,,,64,0,12,,,,,4,,,50,100
7968,note_on,,,,,32,0,10,,,,,2,,,73,100
7968,note_on,,,,,32,0,13,,,,,5,,,73,100
7968,note_on,,,,,32,0,9,,,,,1,,,73,100
7968,note_on,,,,,32,0,12,,,,,4,,,49,100
7968,note_on,,,,,32,0,11,,,,,3,,,61,100
7968,note_on,,,,,32,0,14,,,,,5,,,61,100
8032,note_off,,,,,64,0,14,,,,,5,,,61,100
8032,note_off,,,,,64,0,10,,,,,2,,,73,100
8032,note_off,,,,,64,0,11,,,,,3,,,61,100
8032,note_off,,,,,64,0,13,,,,,5,,,73,100
8032,note_off,,,,,64,0,12,,,,,4,,,49,100
8032,note_off,,,,,64,0,9,,,,,1,,,73,100
8064,note_on,,,,,32,0,12,,,,,4,,,47,100
8064,note_on,,,,,32,0,9,,,,,1,,,71,100
8064,note_on,,,,,32,0,14,,,,,5,,,59,100
8064,note_on,,,,,32,0,11,,,,,3,,,59,100
8064,note_on,,,,,32,0,10,,,,,2,,,71,100
8064,note_on,,,,,32,0,13,,,,,5,,,71,100
8192,note_off,,,,,128,0,13,,,,,5,,,71,100
8192,note_off,,,,,128,0,14,,,,,5,,,59,100
8192,note_off,,,,,128,0,10,,,,,2,,,71,100
8192,note_off,,,,,128,0,12,,,,,4,,,47,100
8192,note_off,,,,,128,0,9,,,,,1,,,71,100
8192,note_off,,,,,128,0,11,,,,,3,,,59,100
8256,note_on,,,,,64,0,9,,,,,1,,,69,100
8256,note_on,,,,,64,0,12,,,,,4,,,45,100
8256,note_on,,,,,64,0,11,,,,,3,,,57,100
8256,note_on,,,,,64,0,10,,,,,2,,,69,100
8256,note_on,,,,,64,0,13,,,,,5,,,69,100
8256,note_on,,,,,64,0,14,,,,,5,,,57,100
8384,note_off,,,,,128,0,11,,,,,3,,,57,100
8384,note_off,,,,,128,0,14,,,,,5,,,57,100
8384,note_off,,,,,128,0,10,,,,,2,,,69,100
8384,note_off,,,,,128,0,9,,,,,1,,,69,100
8384,note_off,,,,,128,0,12,,,,,4,,,45,100
8384,note_off,,,,,128,0,13,,,,,5,,,69,100
8448,note_on,,,,,64,0,12,,,,,4,,,44,100
8448,note_on,,,,,64,0,9,,,,,1,,,68,100
8448,note_on,,,,,64,0,11,,,,,3,,,56,100
8448,note_on,,,,,0,0,13,,,,,5,,,71,100
8448,note_on,,,,,64,0,10,,,,,2,,,68,100
8448,note_on,,,,,64,0,14,,,,,5,,,56,100
8448,note_on,,,,,64,0,13,,,,,5,,,64,100
8704,note_off,,,,,0,0,13,,,,,5,,,71,100
8704,note_off,,,,,256,0,13,,,,,5,,,64,100
8704,note_off,,,,,256,0,10,,,,,2,,,68,100
8704,note_off,,,,,256,0,12,,,,,4,,,44,100
8704,note_off,,,,,256,0,14,,,,,5,,,56,100
8704,note_off,,,,,256,0,9,,,,,1,,,68,100
8704,note_off,,,,,256,0,11,,,,,3,,,56,100
9024,note_on,,,,,320,0,9,,,,,1,,,64,100
9024,note_on,,,,,320,0,13,,,,,5,,,64,100
9024,note_on,,,,,320,0,14,,,,,5,,,52,100
9024,note_on,,,,,320,0,10,,,,,2,,,64,100
9024,note_on,,,,,320,0,12,,,,,4,,,40,100
9024,note_on,,,,,320,0,11,,,,,3,,,52,100
9152,note_off,,,,,128,0,14,,,,,5,,,52,100
9152,note_off,,,,,128,0,12,,,,,4,,,40,100
9152,note_off,,,,,128,0,9,,,,,1,,,64,100
9152,note_off,,,,,128,0,13,,,,,5,,,64,100
9152,note_off,,,,,128,0,11,,,,,3,,,52,100
9152,note_off,,,,,128,0,10,,,,,2,,,64,100
9216,note_on,,,,,64,0,10,,,,,2,,,69,100
9216,note_on,,,,,64,0,12,,,,,4,,,45,100
9216,note_on,,,,,64,0,14,,,,,5,,,57,100
9216,set_tempo,,,,,9216,1,0,,500000,,,,,,,
9216,note_on,,,,,64,0,11,,,,,3,,,57,100
9216,note_on,,,,,64,0,13,,,,,5,,,69,100
9216,note_on,,,,,64,0,9,,,,,1,,,69,100
9344,note_off,,,,,128,0,11,,,,,3,,,57,100
9344,note_off,,,,,128,0,14,,,,,5,,,57,100
9344,note_off,,,,,128,0,13,,,,,5,,,69,100
9344,note_off,,,,,128,0,9,,,,,1,,,69,100
9344,note_off,,,,,128,0,12,,,,,4,,,45,100
9344,note_off,,,,,128,0,10,,,,,2,,,69,100
9408,note_on,,,,,64,0,12,,,,,4,,,47,100
9408,note_on,,,,,64,0,11,,,,,3,,,59,100
9408,note_on,,,,,64,0,14,,,,,5,,,59,100
9408,note_on,,,,,64,0,9,,,,,1,,,71,100
9408,note_on,,,,,64,0,10,,,,,2,,,71,100
9408,note_on,,,,,64,0,13,,,,,5,,,71,100
9536,note_off,,,,,128,0,12,,,,,4,,,47,100
9536,note_off,,,,,128,0,10,,,,,2,,,71,100
9536,note_off,,,,,128,0,9,,,,,1,,,71,100
9536,note_off,,,,,128,0,11,,,,,3,,,59,100
9536,note_off,,,,,128,0,14,,,,,5,,,59,100
9536,note_off,,,,,128,0,13,,,,,5,,,71,100
9600,note_on,,,,,64,0,10,,,,,2,,,73,100
9600,note_on,,,,,64,0,12,,,,,4,,,49,100
9600,note_on,,,,,64,0,13,,,,,5,,,73,100
9600,note_on,,,,,64,0,14,,,,,5,,,61,100
9600,note_on,,,,,64,0,9,,,,,1,,,73,100
9600,note_on,,,,,64,0,11,,,,,3,,,61,100
9728,note_off,,,,,128,0,11,,,,,3,,,61,100
9728,note_off,,,,,128,0,10,,,,,2,,,73,100
9728,note_off,,,,,128,0,9,,,,,1,,,73,100
9728,note_off,,,,,128,0,13,,,,,5,,,73,100
9728,note_off,,,,,128,0,14,,,,,5,,,61,100
9728,note_off,,,,,128,0,12,,,,,4,,,49,100
9792,note_on,,,,,64,0,13,,,,,5,,,74,100
9792,note_on,,,,,64,0,11,,,,,3,,,62,100
9792,note_on,,,,,64,0,14,,,,,5,,,62,100
9792,note_on,,,,,64,0,9,,,,,1,,,74,100
9792,note_on,,,,,64,0,12,,,,,4,,,50,100
9792,note_on,,,,,64,0,10,,,,,2,,,74,100
9920,note_off,,,,,128,0,14,,,,,5,,,62,100
9920,note_off,,,,,128,0,10,,,,,2,,,74,100
9920,note_off,,,,,128,0,9,,,,,1,,,74,100
9920,note_off,,,,,128,0,13,,,,,5,,,74,100
9920,note_off,,,,,128,0,12,,,,,4,,,50,100
9920,note_off,,,,,128,0,11,,,,,3,,,62,100
9984,note_on,,,,,64,0,14,,,,,5,,,64,100
9984,note_on,,,,,64,0,12,,,,,4,,,52,100
9984,note_on,,,,,64,0,11,,,,,3,,,64,100
9984,note_on,,,,,64,0,9,,,,,1,,,76,100
9984,note_on,,,,,64,0,10,,,,,2,,,76,100
9984,note_on,,,,,64,0,13,,,,,5,,,76,100
10112,note_off,,,,,128,0,10,,,,,2,,,76,100
10112,note_off,,,,,128,0,9,,,,,1,,,76,100
10112,note_off,,,,,128,0,14,,,,,5,,,64,100
10112,note_off,,,,,128,0,12,,,,,4,,,52,100
10112,note_off,,,,,128,0,13,,,,,5,,,76,100
10112,note_off,,,,,128,0,11,,,,,3,,,64,100
10176,note_on,,,,,64,0,14,,,,,5,,,59,100
10176,note_on,,,,,64,0,9,,,,,1,,,71,100
10176,note_on,,,,,64,0,12,,,,,4,,,47,100
10176,note_on,,,,,64,0,10,,,,,2,,,71,100
10176,note_on,,,,,64,0,13,,,,,5,,,71,100
10176,note_on,,,,,64,0,11,,,,,3,,,59,100
10240,note_off,,,,,64,0,12,,,,,4,,,47,100
10240,note_off,,,,,64,0,10,,,,,2,,,71,100
10240,note_off,,,,,64,0,13,,,,,5,,,71,100
10240,note_off,,,,,64,0,14,,,,,5,,,59,100
10240,note_off,,,,,64,0,11,,,,,3,,,59,100
10240,note_off,,,,,64,0,9,,,,,1,,,71,100
10272,note_on,,,,,32,0,10,,,,,2,,,69,100
10272,note_on,,,,,32,0,14,,,,,5,,,57,100
10272,note_on,,,,,32,0,13,,,,,5,,,69,100
10272,note_on,,,,,32,0,12,,,,,4,,,45,100
10272,note_on,,,,,32,0,11,,,,,3,,,57,100
10272,note_on,,,,,32,0,9,,,,,1,,,69,100
10336,note_off,,,,,64,0,11,,,,,3,,,57,100
10336,note_off,,,,,64,0,13,,,,,5,,,69,100
10336,note_off,,,,,64,0,9,,,,,1,,,69,100
10336,note_off,,,,,64,0,10,,,,,2,,,69,100
10336,note_off,,,,,64,0,14,,,,,5,,,57,100
10336,note_off,,,,,64,0,12,,,,,4,,,45,100
10368,note_on,,,,,32,0,10,,,,,2,,,68,100
10368,note_on,,,,,32,0,12,,,,,4,,,44,100
10368,note_on,,,,,32,0,9,,,,,1,,,68,100
10368,note_on,,,,,32,0,11,,,,,3,,,56,100
10368,note_on,,,,,32,0,13,,,,,5,,,68,100
10368,note_on,,,,,32,0,14,,,,,5,,,56,100
10496,note_off,,,,,128,0,11,,,,,3,,,56,100
10496,note_off,,,,,128,0,10,,,,,2,,,68,100
10496,note_off,,,,,128,0,13,,,,,5,,,68,100
10496,note_off,,,,,128,0,9,,,,,1,,,68,100
10496,note_off,,,,,128,0,14,,,,,5,,,56,100
10496,note_off,,,,,128,0,12,,,,,4,,,44,100
10560,note_on,,,,,64,0,13,,,,,5,,,66,100
10560,note_on,,,,,64,0,14,,,,,5,,,54,100
10560,note_on,,,,,64,0,10,,,,,2,,,66,100
10560,note_on,,,,,64,0,9,,,,,1,,,66,100
10560,note_on,,,,,64,0,11,,,,,3,,,54,100
10560,note_on,,,,,64,0,12,,,,,4,,,42,100
10624,note_off,,,,,64,0,11,,,,,3,,,54,100
10624,note_off,,,,,64,0,9,,,,,1,,,66,100
10624,note_off,,,,,64,0,13,,,,,5,,,66,100
10624,note_off,,,,,64,0,10,,,,,2,,,66,100
10624,note_off,,,,,64,0,14,,,,,5,,,54,100
10624,note_off,,,,,64,0,12,,,,,4,,,42,100
10656,note_on,,,,,32,0,13,,,,,5,,,64,100
10656,note_on,,,,,32,0,9,,,,,1,,,64,100
10656,note_on,,,,,32,0,12,,,,,4,,,40,100
10656,note_on,,,,,32,0,10,,,,,2,,,64,100
10656,note_on,,,,,32,0,11,,,,,3,,,52,100
10656,note_on,,,,,32,0,14,,,,,5,,,52,100
10720,note_off,,,,,64,0,12,,,,,4,,,40,100
10720,note_off,,,,,64,0,11,,,,,3,,,52,100
10720,note_off,,,,,64,0,9,,,,,1,,,64,100
10720,note_off,,,,,64,0,14,,,,,5,,,52,100
10720,note_off,,,,,64,0,13,,,,,5,,,64,100
10720,note_off,,,,,64,0,10,,,,,2,,,64,100
10752,note_on,,,,,32,0,12,,,,,4,,,52,100
10752,note_on,,,,,32,0,9,,,,,1,,,76,100
10752,note_on,,,,,32,0,14,,,,,5,,,64,100
10752,note_on,,,,,32,0,11,,,,,3,,,64,100
10752,note_on,,,,,32,0,13,,,,,5,,,76,100
10752,note_on,,,,,32,0,10,,,,,2,,,76,100
10880,note_off,,,,,128,0,13,,,,,5,,,76,100
10880,note_off,,,,,128,0,11,,,,,3,,,64,100
10880,note_off,,,,,128,0,10,,,,,2,,,76,100
10880,note_off,,,,,128,0,12,,,,,4,,,52,100
10880,note_off,,,,,128,0,9,,,,,1,,,76,100
10880,note_off,,,,,128,0,14,,,,,5,,,64,100
10944,note_on,,,,,64,0,14,,,,,5,,,59,100
10944,note_on,,,,,64,0,12,,,,,4,,,47,100
10944,note_on,,,,,64,0,10,,,,,2,,,71,100
10944,note_on,,,,,64,0,13,,,,,5,,,71,100
10944,note_on,,,,,64,0,9,,,,,1,,,71,100
10944,note_on,,,,,64,0,11,,,,,3,,,59,100
11008,note_off,,,,,64,0,9,,,,,1,,,71,100
11008,note_off,,,,,64,0,12,,,,,4,,,47,100
11008,note_off,,,,,64,0,13,,,,,5,,,71,100
11008,note_off,,,,,64,0,11,,,,,3,,,59,100
11008,note_off,,,,,64,0,14,,,,,5,,,59,100
11008,note_off,,,,,64,0,10,,,,,2,,,71,100
11040,note_on,,,,,32,0,12,,,,,4,,,45,100
11040,note_on,,,,,32,0,9,,,,,1,,,69,100
11040,note_on,,,,,32,0,10,,,,,2,,,69,100
11040,note_on,,,,,32,0,14,,,,,5,,,57,100
11040,note_on,,,,,32,0,13,,,,,5,,,69,100
11040,note_on,,,,,32,0,11,,,,,3,,,57,100
11104,note_off,,,,,64,0,10,,,,,2,,,69,100
11104,note_off,,,,,64,0,12,,,,,4,,,45,100
11104,note_off,,,,,64,0,11,,,,,3,,,57,100
11104,note_off,,,,,64,0,9,,,,,1,,,69,100
11104,note_off,,,,,64,0,13,,,,,5,,,69,100
11104,note_off,,,,,64,0,14,,,,,5,,,57,100
11136,note_on,,,,,32,0,10,,,,,2,,,68,100
11136,note_on,,,,,32,0,13,,,,,5,,,68,100
11136,note_on,,,,,32,0,11,,,,,3,,,56,100
11136,note_on,,,,,32,0,9,,,,,1,,,68,100
11136,note_on,,,,,32,0,14,,,,,5,,,56,100
11136,note_on,,,,,32,0,12,,,,,4,,,44,100
11264,note_off,,,,,128,0,11,,,,,3,,,56,100
11264,note_off,,,,,128,0,9,,,,,1,,,68,100
11264,note_off,,,,,128,0,10,,,,,2,,,68,100
11264,note_off,,,,,128,0,14,,,,,5,,,56,100
11264,note_off,,,,,128,0,13,,,,,5,,,68,100
11264,note_off,,,,,128,0,12,,,,,4,,,44,100
11328,note_on,,,,,64,0,14,,,,,5,,,54,100
11328,note_on,,,,,64,0,10,,,,,2,,,66,100
11328,note_on,,,,,64,0,9,,,,,1,,,66,100
11328,note_on,,,,,64,0,13,,,,,5,,,66,100
11328,note_on,,,,,64,0,12,,,,,4,,,42,100
11328,note_on,,,,,64,0,11,,,,,3,,,54,100
11392,note_off,,,,,64,0,13,,,,,5,,,66,100
11392,note_off,,,,,64,0,14,,,,,5,,,54,100
11392,note_off,,,,,64,0,12,,,,,4,,,42,100
11392,note_off,,,,,64,0,9,,,,,1,,,66,100
11392,note_off,,,,,64,0,11,,,,,3,,,54,100
11392,note_off,,,,,64,0,10,,,,,2,,,66,100
11424,note_on,,,,,32,0,14,,,,,5,,,52,100
11424,note_on,,,,,32,0,13,,,,,5,,,64,100
11424,note_on,,,,,32,0,9,,,,,1,,,64,100
11424,note_on,,,,,32,0,10,,,,,2,,,64,100
11424,note_on,,,,,32,0,12,,,,,4,,,40,100
11424,note_on,,,,,32,0,11,,,,,3,,,52,100
11488,note_off,,,,,64,0,13,,,,,5,,,64,100
11488,note_off,,,,,64,0,9,,,,,1,,,64,100
11488,note_off,,,,,64,0,14,,,,,5,,,52,100
11488,note_off,,,,,64,0,10,,,,,2,,,64,100
11488,note_off,,,,,64,0,11,,,,,3,,,52,100
11488,note_off,,,,,64,0,12,,,,,4,,,40,100
11520,note_on,,,,,32,0,11,,,,,3,,,64,100
11520,note_on,,,,,32,0,14,,,,,5,,,64,100
11520,note_on,,,,,32,0,10,,,,,2,,,76,100
11520,note_on,,,,,32,0,9,,,,,1,,,76,100
11520,note_on,,,,,32,0,12,,,,,4,,,52,100
11520,note_on,,,,,32,0,13,,,,,5,,,76,100
11648,note_off,,,,,128,0,10,,,,,2,,,76,100
11648,note_off,,,,,128,0,9,,,,,1,,,76,100
11648,note_off,,,,,128,0,13,,,,,5,,,76,100
11648,note_off,,,,,128,0,12,,,,,4,,,52,100
11648,note_off,,,,,128,0,11,,,,,3,,,64,100
11648,note_off,,,,,128,0,14,,,,,5,,,64,100
11712,note_on,,,,,64,0,13,,,,,5,,,71,100
11712,note_on,,,,,64,0,9,,,,,1,,,71,100
11712,note_on,,,,,64,0,14,,,,,5,,,59,100
11712,note_on,,,,,64,0,10,,,,,2,,,71,100
11712,note_on,,,,,64,0,12,,,,,4,,,47,100
11712,note_on,,,,,64,0,11,,,,,3,,,59,100
11776,note_off,,,,,64,0,12,,,,,4,,,47,100
11776,note_off,,,,,64,0,9,,,,,1,,,71,100
11776,note_off,,,,,64,0,11,,,,,3,,,59,100
11776,note_off,,,,,64,0,14,,,,,5,,,59,100
11776,note_off,,,,,64,0,10,,,,,2,,,71,100
11776,note_off,,,,,64,0,13,,,,,5,,,71,100
11808,note_on,,,,,32,0,9,,,,,1,,,69,100
11808,note_on,,,,,32,0,10,,,,,2,,,69,100
11808,note_on,,,,,32,0,13,,,,,5,,,69,100
11808,note_on,,,,,32,0,14,,,,,5,,,57,100
11808,note_on,,,,,32,0,12,,,,,4,,,45,100
11808,note_on,,,,,32,0,11,,,,,3,,,57,100
11872,note_off,,,,,64,0,9,,,,,1,,,69,100
11872,note_off,,,,,64,0,10,,,,,2,,,69,100
11872,note_off,,,,,64,0,11,,,,,3,,,57,100
11872,note_off,,,,,64,0,14,,,,,5,,,57,100
11872,note_off,,,,,64,0,13,,,,,5,,,69,100
11872,note_off,,,,,64,0,12,,,,,4,,,45,100
11904,note_on,,,,,32,0,11,,,,,3,,,56,100
11904,note_on,,,,,32,0,12,,,,,4,,,44,100
11904,note_on,,,,,32,0,14,,,,,5,,,56,100
11904,note_on,,,,,32,0,9,,,,,1,,,68,100
11904,note_on,,,,,32,0,13,,,,,5,,,68,100
11904,note_on,,,,,32,0,10,,,,,2,,,68,100
12032,note_off,,,,,128,0,9,,,,,1,,,68,100
12032,note_off,,,,,128,0,11,,,,,3,,,56,100
12032,note_off,,,,,128,0,12,,,,,4,,,44,100
12032,note_off,,,,,128,0,14,,,,,5,,,56,100
12032,note_off,,,,,128,0,13,,,,,5,,,68,100
12032,note_off,,,,,128,0,10,,,,,2,,,68,100
12096,note_on,,,,,64,0,11,,,,,3,,,54,100
12096,note_on,,,,,64,0,10,,,,,2,,,66,100
12096,note_on,,,,,64,0,13,,,,,5,,,66,100
12096,note_on,,,,,64,0,9,,,,,1,,,66,100
12096,note_on,,,,,64,0,12,,,,,4,,,42,100
12096,note_on,,,,,64,0,14,,,,,5,,,54,100
12160,note_off,,,,,64,0,11,,,,,3,,,54,100
12160,note_off,,,,,64,0,9,,,,,1,,,66,100
12160,note_off,,,,,64,0,10,,,,,2,,,66,100
12160,note_off,,,,,64,0,12,,,,,4,,,42,100
12160,note_off,,,,,64,0,14,,,,,5,,,54,100
12160,note_off,,,,,64,0,13,,,,,5,,,66,100
12192,note_on,,,,,32,0,11,,,,,3,,,52,100
12192,note_on,,,,,32,0,12,,,,,4,,,40,100
12192,note_on,,,,,32,0,10,,,,,2,,,64,100
12192,note_on,,,,,32,0,13,,,,,5,,,64,100
12192,note_on,,,,,32,0,14,,,,,5,,,52,100
12192,note_on,,,,,32,0,9,,,,,1,,,64,100
12256,note_off,,,,,64,0,9,,,,,1,,,64,100
12256,note_off,,,,,64,0,10,,,,,2,,,64,100
12256,note_off,,,,,64,0,14,,,,,5,,,52,100
12256,note_off,,,,,64,0,13,,,,,5,,,64,100
12256,note_off,,,,,64,0,12,,,,,4,,,40,100
12256,note_off,,,,,64,0,11,,,,,3,,,52,100
12288,note_on,,,,,32,0,10,,,,,2,,,69,100
12288,note_on,,,,,32,0,13,,,,,5,,,69,100
12288,note_on,,,,,32,0,14,,,,,5,,,57,100
12288,note_on,,,,,32,0,12,,,,,4,,,45,100
12288,note_on,,,,,32,0,11,,,,,3,,,57,100
12288,note_on,,,,,32,0,9,,,,,1,,,69,100
12544,note_off,,,,,256,0,10,,,,,2,,,69,100
12544,note_off,,,,,256,0,14,,,,,5,,,57,100
12544,note_off,,,,,256,0,12,,,,,4,,,45,100
12544,note_off,,,,,256,0,11,,,,,3,,,57,100
12544,note_off,,,,,256,0,13,,,,,5,,,69,100
12544,note_off,,,,,256,0,9,,,,,1,,,69,100
12864,note_on,,,,,320,0,14,,,,,5,,,49,100
12864,note_on,,,,,320,0,12,,,,,4,,,37,100
12864,note_on,,,,,0,0,13,,,,,5,,,64,100
12864,note_on,,,,,320,0,13,,,,,5,,,61,100
12864,note_on,,,,,320,0,11,,,,,3,,,49,100
12864,note_on,,,,,320,0,9,,,,,1,,,61,100
12864,note_on,,,,,320,0,10,,,,,2,,,61,100
12992,note_off,,,,,128,0,9,,,,,1,,,61,100
12992,note_off,,,,,128,0,12,,,,,4,,,37,100
12992,note_off,,,,,0,0,13,,,,,5,,,64,100
12992,note_off,,,,,128,0,13,,,,,5,,,61,100
12992,note_off,,,,,128,0,11,,,,,3,,,49,100
12992,note_off,,,,,128,0,10,,,,,2,,,61,100
12992,note_off,,,,,128,0,14,,,,,5,,,49,100
13056,note_on,,,,,0,0,13,,,,,5,,,69,100
13056,note_on,,,,,64,0,10,,,,,2,,,62,100
13056,note_on,,,,,64,0,13,,,,,5,,,59,100
13056,note_on,,,,,64,0,11,,,,,3,,,50,100
13056,note_on,,,,,64,0,14,,,,,5,,,50,100
13056,note_on,,,,,64,0,9,,,,,1,,,62,100
13056,note_on,,,,,64,0,12,,,,,4,,,38,100
13312,note_off,,,,,0,0,13,,,,,5,,,69,100
13312,note_off,,,,,256,0,13,,,,,5,,,59,100
13312,note_off,,,,,256,0,12,,,,,4,,,38,100
13312,note_off,,,,,256,0,9,,,,,1,,,62,100
13312,note_off,,,,,256,0,14,,,,,5,,,50,100
13312,note_off,,,,,256,0,11,,,,,3,,,50,100
13312,note_off,,,,,256,0,10,,,,,2,,,62,100
13440,note_on,,,,,128,0,10,,,,,2,,,64,100
13440,note_on,,,,,128,0,11,,,,,3,,,52,100
13440,note_on,,,,,128,0,9,,,,,1,,,64,100
13440,note_on,,,,,128,0,12,,,,,4,,,40,100
13440,note_on,,,,,128,0,14,,,,,5,,,52,100
13440,note_on,,,,,0,0,13,,,,,5,,,68,100
13440,note_on,,,,,128,0,13,,,,,5,,,59,100
13696,note_off,,,,,256,0,14,,,,,5,,,52,100
13696,note_off,,,,,0,0,13,,,,,5,,,68,100
13696,note_off,,,,,256,0,13,,,,,5,,,59,100
13696,note_off,,,,,256,0,12,,,,,4,,,40,100
13696,note_off,,,,,256,0,9,,,,,1,,,64,100
13696,note_off,,,,,256,0,10,,,,,2,,,64,100
13696,note_off,,,,,256,0,11,,,,,3,,,52,100
13824,set_tempo,,,,,4608,1,0,,500000,,,,,,,
13824,note_on,,,,,128,0,12,,,,,4,,,33,100
13824,note_on,,,,,128,0,9,,,,,1,,,57,100
13824,note_on,,,,,128,0,13,,,,,5,,,69,100
13824,note_on,,,,,0,0,13,,,,,5,,,61,100
13824,note_on,,,,,128,0,11,,,,,3,,,45,100
13824,note_on,,,,,128,0,10,,,,,2,,,57,100
13824,note_on,,,,,128,0,14,,,,,5,,,45,100
13824,note_on,,,,,13824,0,8,,,,,0,,,81,100
13888,note_off,,,,,64,0,8,,,,,0,,,81,100
13920,note_on,,,,,32,0,8,,,,,0,,,76,100
13932,set_tempo,,,,,108,1,0,,495867,,,,,,,
13984,note_off,,,,,64,0,8,,,,,0,,,76,100
14016,note_on,,,,,32,0,8,,,,,0,,,81,100
14040,set_tempo,,,,,108,1,0,,491803,,,,,,,
14080,note_off,,,,,256,0,10,,,,,2,,,57,100
14080,note_off,,,,,256,0,9,,,,,1,,,57,100
14080,note_off,,,,,256,0,14,,,,,5,,,45,100
14080,note_off,,,,,256,0,13,,,,,5,,,69,100
14080,note_off,,,,,256,0,12,,,,,4,,,33,100
14080,note_off,,,,,64,0,8,,,,,0,,,81,100
14080,note_off,,,,,256,0,11,,,,,3,,,45,100
14080,note_off,,,,,0,0,13,,,,,5,,,61,100
14112,note_on,,,,,32,0,8,,,,,0,,,85,99
14148,set_tempo,,,,,108,1,0,,487804,,,,,,,
14176,note_off,,,,,64,0,8,,,,,0,,,85,100
14208,note_on,,,,,32,0,8,,,,,0,,,81,99
14256,set_tempo,,,,,108,1,0,,483870,,,,,,,
14272,note_off,,,,,64,0,8,,,,,0,,,81,100
14304,note_on,,,,,32,0,8,,,,,0,,,76,98
14364,set_tempo,,,,,108,1,0,,480000,,,,,,,
14368,note_off,,,,,64,0,8,,,,,0,,,76,100
14400,note_on,,,,,32,0,8,,,,,0,,,81,98
14464,note_off,,,,,64,0,8,,,,,0,,,81,100
14472,set_tempo,,,,,108,1,0,,476190,,,,,,,
14496,note_on,,,,,32,0,8,,,,,0,,,85,97
14560,note_off,,,,,64,0,8,,,,,0,,,85,100
14580,set_tempo,,,,,108,1,0,,472440,,,,,,,
14592,note_on,,,,,32,0,8,,,,,0,,,81,97
14656,note_off,,,,,64,0,8,,,,,0,,,81,100
14688,note_on,,,,,32,0,8,,,,,0,,,76,96
14688,set_tempo,,,,,108,1,0,,468750,,,,,,,
14752,note_off,,,,,64,0,8,,,,,0,,,76,100
14784,note_on,,,,,32,0,8,,,,,0,,,81,96
14848,note_off,,,,,64,0,8,,,,,0,,,81,100
14880,note_on,,,,,32,0,8,,,,,0,,,85,95
14944,note_off,,,,,64,0,8,,,,,0,,,85,100
14976,note_on,,,,,32,0,8,,,,,0,,,81,95
15040,note_off,,,,,64,0,8,,,,,0,,,81,100
15072,note_on,,,,,32,0,8,,,,,0,,,76,94
15136,note_off,,,,,64,0,8,,,,,0,,,76,100
15168,note_on,,,,,32,0,8,,,,,0,,,81,94
15232,note_off,,,,,64,0,8,,,,,0,,,81,100
15264,note_on,,,,,32,0,8,,,,,0,,,85,93
15328,note_off,,,,,64,0,8,,,,,0,,,85,100
15360,note_on,,,,,32,0,8,,,,,0,,,83,93
15424,note_off,,,,,64,0,8,,,,,0,,,83,100
15456,note_on,,,,,32,0,8,,,,,0,,,76,93
15520,note_off,,,,,64,0,8,,,,,0,,,76,100
15552,note_on,,,,,32,0,8,,,,,0,,,83,92
15616,note_off,,,,,64,0,8,,,,,0,,,83,100
15648,note_on,,,,,32,0,8,,,,,0,,,86,92
15712,note_off,,,,,64,0,8,,,,,0,,,86,100
15744,note_on,,,,,32,0,8,,,,,0,,,83,91
15808,note_off,,,,,64,0,8,,,,,0,,,83,100
15840,note_on,,,,,32,0,8,,,,,0,,,76,91
15904,note_off,,,,,64,0,8,,,,,0,,,76,100
15936,note_on,,,,,32,0,8,,,,,0,,,83,90
16000,note_off,,,,,64,0,8,,,,,0,,,83,100
16032,note_on,,,,,32,0,8,,,,,0,,,86,90
16096,note_off,,,,,64,0,8,,,,,0,,,86,100
16128,note_on,,,,,32,0,8,,,,,0,,,83,89
16192,note_off,,,,,64,0,8,,,,,0,,,83,100
16224,note_on,,,,,32,0,8,,,,,0,,,76,89
16288,note_off,,,,,64,0,8,,,,,0,,,76,100
16320,note_on,,,,,32,0,8,,,,,0,,,83,88
16384,note_off,,,,,64,0,8,,,,,0,,,83,100
16416,note_on,,,,,32,0,8,,,,,0,,,86,88
16480,note_off,,,,,64,0,8,,,,,0,,,86,100
16512,note_on,,,,,32,0,8,,,,,0,,,83,87
16576,note_off,,,,,64,0,8,,,,,0,,,83,100
16608,note_on,,,,,32,0,8,,,,,0,,,76,87
16672,note_off,,,,,64,0,8,,,,,0,,,76,100
16704,note_on,,,,,32,0,8,,,,,0,,,83,86
16768,note_off,,,,,64,0,8,,,,,0,,,83,100
16800,note_on,,,,,32,0,8,,,,,0,,,86,86
16864,note_off,,,,,64,0,8,,,,,0,,,86,100
16896,note_on,,,,,0,0,8,,,,,0,,,85,85
16896,note_on,,,,,32,0,8,,,,,0,,,81,85
16960,note_off,,,,,64,0,8,,,,,0,,,81,100
16960,note_off,,,,,0,0,8,,,,,0,,,85,100
16992,note_on,,,,,32,0,8,,,,,0,,,76,85
17056,note_off,,,,,64,0,8,,,,,0,,,76,100
17088,note_on,,,,,32,0,8,,,,,0,,,81,85
17088,note_on,,,,,0,0,8,,,,,0,,,85,85
17152,note_off,,,,,0,0,8,,,,,0,,,85,100
17152,note_off,,,,,64,0,8,,,,,0,,,81,100
17184,note_on,,,,,32,0,8,,,,,0,,,85,86
17184,note_on,,,,,0,0,8,,,,,0,,,88,86
17248,note_off,,,,,64,0,8,,,,,0,,,85,100
17248,note_off,,,,,0,0,8,,,,,0,,,88,100
17280,note_on,,,,,32,0,8,,,,,0,,,81,86
17280,note_on,,,,,0,0,8,,,,,0,,,85,86
17344,note_off,,,,,64,0,8,,,,,0,,,81,100
17344,note_off,,,,,0,0,8,,,,,0,,,85,100
17376,note_on,,,,,32,0,8,,,,,0,,,76,87
17440,note_off,,,,,64,0,8,,,,,0,,,76,100
17472,note_on,,,,,0,0,8,,,,,0,,,85,87
17472,note_on,,,,,32,0,8,,,,,0,,,81,87
17536,note_off,,,,,64,0,8,,,,,0,,,81,100
17536,note_off,,,,,0,0,8,,,,,0,,,85,100
17568,note_on,,,,,0,0,8,,,,,0,,,88,88
17568,note_on,,,,,32,0,8,,,,,0,,,85,88
17632,note_off,,,,,0,0,8,,,,,0,,,88,100
17632,note_off,,,,,64,0,8,,,,,0,,,85,100
17664,note_on,,,,,32,0,8,,,,,0,,,81,88
17664,note_on,,,,,0,0,8,,,,,0,,,85,88
17728,note_off,,,,,0,0,8,,,,,0,,,85,100
17728,note_off,,,,,64,0,8,,,,,0,,,81,100
17760,note_on,,,,,32,0,8,,,,,0,,,76,89
17824,note_off,,,,,64,0,8,,,,,0,,,76,100
17856,note_on,,,,,0,0,8,,,,,0,,,85,89
17856,note_on,,,,,32,0,8,,,,,0,,,81,89
17920,note_off,,,,,64,0,8,,,,,0,,,81,100
17920,note_off,,,,,0,0,8,,,,,0,,,85,100
17952,note_on,,,,,32,0,8,,,,,0,,,85,90
17952,note_on,,,,,0,0,8,,,,,0,,,88,90
18016,note_off,,,,,64,0,8,,,,,0,,,85,100
18016,note_off,,,,,0,0,8,,,,,0,,,88,100
18048,note_on,,,,,32,0,8,,,,,0,,,81,90
18048,note_on,,,,,0,0,8,,,,,0,,,85,90
18112,note_off,,,,,64,0,8,,,,,0,,,81,100
18112,note_off,,,,,0,0,8,,,,,0,,,85,100
18144,note_on,,,,,32,0,8,,,,,0,,,76,91
18208,note_off,,,,,64,0,8,,,,,0,,,76,100
18240,note_on,,,,,0,0,8,,,,,0,,,85,91
18240,note_on,,,,,32,0,8,,,,,0,,,81,91
18304,note_off,,,,,64,0,8,,,,,0,,,81,100
18304,note_off,,,,,0,0,8,,,,,0,,,85,100
18336,note_on,,,,,0,0,8,,,,,0,,,88,92
18336,note_on,,,,,32,0,8,,,,,0,,,85,92
18400,note_off,,,,,0,0,8,,,,,0,,,88,100
18400,note_off,,,,,64,0,8,,,,,0,,,85,100
18432,note_on,,,,,0,0,8,,,,,0,,,86,92
18432,note_on,,,,,32,0,8,,,,,0,,,83,92
18496,note_off,,,,,0,0,8,,,,,0,,,86,100
18496,note_off,,,,,64,0,8,,,,,0,,,83,100
18528,note_on,,,,,32,0,8,,,,,0,,,76,92
18592,note_off,,,,,64,0,8,,,,,0,,,76,100
18624,note_on,,,,,0,0,8,,,,,0,,,86,93
18624,note_on,,,,,32,0,8,,,,,0,,,83,93
18688,note_off,,,,,0,0,8,,,,,0,,,86,100
18688,note_off,,,,,64,0,8,,,,,0,,,83,100
18720,note_on,,,,,0,0,8,,,,,0,,,90,93
18720,note_on,,,,,32,0,8,,,,,0,,,86,93
18784,note_off,,,,,64,0,8,,,,,0,,,86,100
18784,note_off,,,,,0,0,8,,,,,0,,,90,100
18816,note_on,,,,,0,0,8,,,,,0,,,86,94
18816,note_on,,,,,32,0,8,,,,,0,,,83,94
18880,note_off,,,,,64,0,8,,,,,0,,,83,100
18880,note_off,,,,,0,0,8,,,,,0,,,86,100
18912,note_on,,,,,32,0,8,,,,,0,,,76,94
18976,note_off,,,,,64,0,8,,,,,0,,,76,100
19008,note_on,,,,,32,0,8,,,,,0,,,83,95
19008,note_on,,,,,0,0,8,,,,,0,,,86,95
19072,note_off,,,,,64,0,8,,,,,0,,,83,100
19072,note_off,,,,,0,0,8,,,,,0,,,86,100
19104,note_on,,,,,32,0,8,,,,,0,,,86,95
19104,note_on,,,,,0,0,8,,,,,0,,,90,95
19168,note_off,,,,,64,0,8,,,,,0,,,86,100
19168,note_off,,,,,0,0,8,,,,,0,,,90,100
19200,note_on,,,,,32,0,8,,,,,0,,,83,96
19200,note_on,,,,,0,0,8,,,,,0,,,86,96
19264,note_off,,,,,0,0,8,,,,,0,,,86,100
19264,note_off,,,,,64,0,8,,,,,0,,,83,100
19296,note_on,,,,,32,0,8,,,,,0,,,76,96
19360,note_off,,,,,64,0,8,,,,,0,,,76,100
19392,note_on,,,,,0,0,8,,,,,0,,,86,97
19392,note_on,,,,,32,0,8,,,,,0,,,83,97
19456,note_off,,,,,64,0,8,,,,,0,,,83,100
19456,note_off,,,,,0,0,8,,,,,0,,,86,100
19488,note_on,,,,,32,0,8,,,,,0,,,86,97
19488,note_on,,,,,0,0,8,,,,,0,,,90,97
19552,note_off,,,,,0,0,8,,,,,0,,,90,100
19552,note_off,,,,,64,0,8,,,,,0,,,86,100
19584,note_on,,,,,0,0,8,,,,,0,,,86,98
19584,note_on,,,,,32,0,8,,,,,0,,,83,98
19648,note_off,,,,,0,0,8,,,,,0,,,86,100
19648,note_off,,,,,64,0,8,,,,,0,,,83,100
19680,note_on,,,,,32,0,8,,,,,0,,,76,98
19744,note_off,,,,,64,0,8,,,,,0,,,76,100
19776,note_on,,,,,0,0,8,,,,,0,,,86,99
19776,note_on,,,,,32,0,8,,,,,0,,,83,99
19840,note_off,,,,,0,0,8,,,,,0,,,86,100
19840,note_off,,,,,64,0,8,,,,,0,,,83,100
19872,note_on,,,,,0,0,8,,,,,0,,,90,99
19872,note_on,,,,,32,0,8,,,,,0,,,86,99
19936,note_off,,,,,64,0,8,,,,,0,,,86,100
19936,note_off,,,,,0,0,8,,,,,0,,,90,100
19968,note_on,,,,,0,0,8,,,,,0,,,88,100
19968,note_on,,,,,32,0,8,,,,,0,,,85,100
20060,note_off,,,,,92,0,8,,,,,0,,,85,100
20060,note_off,,,,,0,0,8,,,,,0,,,88,100
20064,note_on,,,,,4,0,8,,,,,0,,,83,100
20064,note_on,,,,,0,0,8,,,,,0,,,86,100
20156,note_off,,,,,92,0,8,,,,,0,,,83,100
20156,note_off,,,,,0,0,8,,,,,0,,,86,100
20160,note_on,,,,,4,0,8,,,,,0,,,85,100
20160,note_on,,,,,0,0,8,,,,,0,,,88,100
20224,note_off,,,,,64,0,8,,,,,0,,,85,100
20224,note_off,,,,,0,0,8,,,,,0,,,88,100
20256,note_on,,,,,32,0,8,,,,,0,,,86,99
20256,note_on,,,,,0,0,8,,,,,0,,,90,99
20320,note_off,,,,,64,0,8,,,,,0,,,86,100
20320,note_off,,,,,0,0,8,,,,,0,,,90,100
20352,note_on,,,,,32,0,8,,,,,0,,,85,99
20352,note_on,,,,,0,0,8,,,,,0,,,88,99
20444,note_off,,,,,92,0,8,,,,,0,,,85,100
20444,note_off,,,,,0,0,8,,,,,0,,,88,100
20448,note_on,,,,,0,0,8,,,,,0,,,86,99
20448,note_on,,,,,4,0,8,,,,,0,,,83,99
20540,note_off,,,,,0,0,8,,,,,0,,,86,100
20540,note_off,,,,,92,0,8,,,,,0,,,83,100
20544,note_on,,,,,0,0,8,,,,,0,,,88,98
20544,note_on,,,,,4,0,8,,,,,0,,,85,98
20608,note_off,,,,,64,0,8,,,,,0,,,85,100
20608,note_off,,,,,0,0,8,,,,,0,,,88,100
20640,note_on,,,,,32,0,8,,,,,0,,,86,98
20640,note_on,,,,,0,0,8,,,,,0,,,90,98
20704,note_off,,,,,0,0,8,,,,,0,,,90,100
20704,note_off,,,,,64,0,8,,,,,0,,,86,100
20736,note_on,,,,,0,0,8,,,,,0,,,88,98
20736,note_on,,,,,32,0,8,,,,,0,,,85,98
20828,note_off,,,,,92,0,8,,,,,0,,,85,100
20828,note_off,,,,,0,0,8,,,,,0,,,88,100
20832,note_on,,,,,4,0,8,,,,,0,,,83,97
20832,note_on,,,,,0,0,8,,,,,0,,,86,97
20924,note_off,,,,,92,0,8,,,,,0,,,83,100
20924,note_off,,,,,0,0,8,,,,,0,,,86,100
20928,note_on,,,,,4,0,8,,,,,0,,,85,97
20928,note_on,,,,,0,0,8,,,,,0,,,88,97
20992,note_off,,,,,64,0,8,,,,,0,,,85,100
20992,note_off,,,,,0,0,8,,,,,0,,,88,100
21024,note_on,,,,,32,0,8,,,,,0,,,86,96
21024,note_on,,,,,0,0,8,,,,,0,,,90,96
21088,note_off,,,,,64,0,8,,,,,0,,,86,100
21088,note_off,,,,,0,0,8,,,,,0,,,90,100
21120,note_on,,,,,0,0,8,,,,,0,,,88,96
21120,note_on,,,,,32,0,8,,,,,0,,,85,96
21212,note_off,,,,,0,0,8,,,,,0,,,88,100
21212,note_off,,,,,92,0,8,,,,,0,,,85,100
21216,note_on,,,,,0,0,8,,,,,0,,,86,96
21216,note_on,,,,,4,0,8,,,,,0,,,83,96
21308,note_off,,,,,92,0,8,,,,,0,,,83,100
21308,note_off,,,,,0,0,8,,,,,0,,,86,100
21312,note_on,,,,,0,0,8,,,,,0,,,88,95
21312,note_on,,,,,4,0,8,,,,,0,,,85,95
21376,note_off,,,,,64,0,8,,,,,0,,,85,100
21376,note_off,,,,,0,0,8,,,,,0,,,88,100
21408,note_on,,,,,0,0,8,,,,,0,,,90,95
21408,note_on,,,,,32,0,8,,,,,0,,,86,95
21472,note_off,,,,,0,0,8,,,,,0,,,90,100
21472,note_off,,,,,64,0,8,,,,,0,,,86,100
21504,note_on,,,,,32,0,8,,,,,0,,,83,95
21504,note_on,,,,,0,0,8,,,,,0,,,86,95
21596,note_off,,,,,92,0,8,,,,,0,,,83,100
21596,note_off,,,,,0,0,8,,,,,0,,,86,100
21600,note_on,,,,,4,0,8,,,,,0,,,81,94
21600,note_on,,,,,0,0,8,,,,,0,,,85,94
21692,note_off,,,,,92,0,8,,,,,0,,,81,100
21692,note_off,,,,,0,0,8,,,,,0,,,85,100
21696,note_on,,,,,0,0,8,,,,,0,,,86,94
21696,note_on,,,,,4,0,8,,,,,0,,,83,94
21760,note_off,,,,,64,0,8,,,,,0,,,83,100
21760,note_off,,,,,0,0,8,,,,,0,,,86,100
21792,note_on,,,,,0,0,8,,,,,0,,,88,93
21792,note_on,,,,,32,0,8,,,,,0,,,85,93
21856,note_off,,,,,0,0,8,,,,,0,,,88,100
21856,note_off,,,,,64,0,8,,,,,0,,,85,100
21888,note_on,,,,,0,0,8,,,,,0,,,86,93
21888,note_on,,,,,32,0,8,,,,,0,,,83,93
21980,note_off,,,,,0,0,8,,,,,0,,,86,100
21980,note_off,,,,,92,0,8,,,,,0,,,83,100
21984,note_on,,,,,0,0,8,,,,,0,,,85,93
21984,note_on,,,,,4,0,8,,,,,0,,,81,93
22076,note_off,,,,,0,0,8,,,,,0,,,85,100
22076,note_off,,,,,92,0,8,,,,,0,,,81,100
22080,note_on,,,,,4,0,8,,,,,0,,,83,92
22080,note_on,,,,,0,0,8,,,,,0,,,86,92
22144,note_off,,,,,64,0,8,,,,,0,,,83,100
22144,note_off,,,,,0,0,8,,,,,0,,,86,100
22176,note_on,,,,,32,0,8,,,,,0,,,85,92
22176,note_on,,,,,0,0,8,,,,,0,,,88,92
22240,note_off,,,,,64,0,8,,,,,0,,,85,100
22240,note_off,,,,,0,0,8,,,,,0,,,88,100
22272,note_on,,,,,32,0,8,,,,,0,,,83,92
22272,note_on,,,,,0,0,8,,,,,0,,,86,92
22364,note_off,,,,,0,0,8,,,,,0,,,86,100
22364,note_off,,,,,92,0,8,,,,,0,,,83,100
22368,note_on,,,,,4,0,8,,,,,0,,,81,91
22368,note_on,,,,,0,0,8,,,,,0,,,85,91
22460,note_off,,,,,92,0,8,,,,,0,,,81,100
22460,note_off,,,,,0,0,8,,,,,0,,,85,100
22464,note_on,,,,,4,0,8,,,,,0,,,83,91
22464,note_on,,,,,0,0,8,,,,,0,,,86,91
22528,note_off,,,,,0,0,8,,,,,0,,,86,100
22528,note_off,,,,,64,0,8,,,,,0,,,83,100
22560,note_on,,,,,0,0,8,,,,,0,,,88,90
22560,note_on,,,,,32,0,8,,,,,0,,,85,90
22624,note_off,,,,,64,0,8,,,,,0,,,85,100
22624,note_off,,,,,0,0,8,,,,,0,,,88,100
22656,note_on,,,,,0,0,8,,,,,0,,,86,90
22656,note_on,,,,,32,0,8,,,,,0,,,83,90
22748,note_off,,,,,0,0,8,,,,,0,,,86,100
22748,note_off,,,,,92,0,8,,,,,0,,,83,100
22752,note_on,,,,,0,0,8,,,,,0,,,85,90
22752,note_on,,,,,4,0,8,,,,,0,,,81,90
22844,note_off,,,,,92,0,8,,,,,0,,,81,100
22844,note_off,,,,,0,0,8,,,,,0,,,85,100
22848,note_on,,,,,4,0,8,,,,,0,,,83,89
22848,note_on,,,,,0,0,8,,,,,0,,,86,89
22912,note_off,,,,,64,0,8,,,,,0,,,83,100
22912,note_off,,,,,0,0,8,,,,,0,,,86,100
22944,note_on,,,,,32,0,8,,,,,0,,,85,89
22944,note_on,,,,,0,0,8,,,,,0,,,88,89
23008,note_off,,,,,0,0,8,,,,,0,,,88,100
23008,note_off,,,,,64,0,8,,,,,0,,,85,100
23040,note_on,,,,,8960,0,11,,,,,3,,,57,85
23040,note_on,,,,,32,0,8,,,,,0,,,83,89
23040,note_on,,,,,8960,0,13,,,,,5,,,69,100
23040,note_on,,,,,8960,0,9,,,,,1,,,69,85
23040,set_tempo,,,,,8352,1,0,,468750,,,,,,,
23040,note_on,,,,,8960,0,10,,,,,2,,,69,85
23040,note_on,,,,,8960,0,12,,,,,4,,,45,85
23040,note_on,,,,,8960,0,14,,,,,5,,,57,100
23040,note_on,,,,,0,0,8,,,,,0,,,86,89
23088,set_tempo,,,,,48,1,0,,472440,,,,,,,
23132,note_off,,,,,92,0,8,,,,,0,,,83,100
23132,note_off,,,,,0,0,8,,,,,0,,,86,100
23136,set_tempo,,,,,48,1,0,,476190,,,,,,,
23136,note_on,,,,,0,0,8,,,,,0,,,81,88
23136,note_on,,,,,4,0,8,,,,,0,,,85,88
23180,note_off,,,,,0,0,8,,,,,0,,,81,100
23180,note_off,,,,,44,0,8,,,,,0,,,85,100
23184,set_tempo,,,,,48,1,0,,480000,,,,,,,
23184,note_on,,,,,4,0,8,,,,,0,,,86,88
23184,note_on,,,,,0,0,8,,,,,0,,,83,88
23228,note_off,,,,,44,0,8,,,,,0,,,86,100
23228,note_off,,,,,0,0,8,,,,,0,,,83,100
23232,note_on,,,,,0,0,8,,,,,0,,,81,88
23232,note_on,,,,,4,0,8,,,,,0,,,85,88
23232,set_tempo,,,,,48,1,0,,483870,,,,,,,
23276,note_off,,,,,44,0,8,,,,,0,,,85,100
23276,note_off,,,,,0,0,8,,,,,0,,,81,100
23280,set_tempo,,,,,48,1,0,,487804,,,,,,,
23280,note_on,,,,,4,0,8,,,,,0,,,86,88
23280,note_on,,,,,0,0,8,,,,,0,,,83,88
23296,note_off,,,,,256,0,14,,,,,5,,,57,100
23296,note_off,,,,,256,0,12,,,,,4,,,45,100
23296,note_off,,,,,256,0,13,,,,,5,,,69,100
23296,note_off,,,,,256,0,10,,,,,2,,,69,100
23296,note_off,,,,,256,0,11,,,,,3,,,57,100
23296,note_off,,,,,256,0,9,,,,,1,,,69,100
23324,note_off,,,,,44,0,8,,,,,0,,,86,100
23324,note_off,,,,,0,0,8,,,,,0,,,83,100
23328,set_tempo,,,,,48,1,0,,491803,,,,,,,
23328,note_on,,,,,0,0,8,,,,,0,,,81,87
23328,note_on,,,,,4,0,8,,,,,0,,,85,87
23372,note_off,,,,,44,0,8,,,,,0,,,85,100
23372,note_off,,,,,0,0,8,,,,,0,,,81,100
23376,set_tempo,,,,,48,1,0,,495867,,,,,,,
23376,note_on,,,,,0,0,8,,,,,0,,,83,87
23376,note_on,,,,,4,0,8,,,,,0,,,86,87
23420,note_off,,,,,0,0,8,,,,,0,,,83,100
23420,note_off,,,,,44,0,8,,,,,0,,,86,100
23424,set_tempo,,,,,48,1,0,,500000,,,,,,,
23424,note_on,,,,,128,0,10,,,,,2,,,69,85
23424,note_on,,,,,0,0,8,,,,,0,,,81,87
23424,note_on,,,,,4,0,8,,,,,0,,,85,87
23424,note_on,,,,,128,0,12,,,,,4,,,45,85
23424,note_on,,,,,128,0,13,,,,,5,,,69,100
23424,note_on,,,,,128,0,9,,,,,1,,,69,85
23424,note_on,,,,,128,0,11,,,,,3,,,57,85
23424,note_on,,,,,128,0,14,,,,,5,,,57,100
23468,note_off,,,,,0,0,8,,,,,0,,,81,100
23468,note_off,,,,,44,0,8,,,,,0,,,85,100
23472,note_on,,,,,0,0,8,,,,,0,,,83,87
23472,note_on,,,,,4,0,8,,,,,0,,,86,87
23516,note_off,,,,,0,0,8,,,,,0,,,83,100
23516,note_off,,,,,44,0,8,,,,,0,,,86,100
23520,note_on,,,,,4,0,8,,,,,0,,,85,87
23520,note_on,,,,,0,0,8,,,,,0,,,81,87
23564,note_off,,,,,0,0,8,,,,,0,,,81,100
23564,note_off,,,,,44,0,8,,,,,0,,,85,100
23568,note_on,,,,,0,0,8,,,,,0,,,83,86
23568,note_on,,,,,4,0,8,,,,,0,,,86,86
23612,note_off,,,,,0,0,8,,,,,0,,,83,100
23612,note_off,,,,,44,0,8,,,,,0,,,86,100
23616,note_off,,,,,192,0,14,,,,,5,,,57,100
23616,note_off,,,,,192,0,11,,,,,3,,,57,100
23616,note_off,,,,,192,0,10,,,,,2,,,69,100
23616,note_off,,,,,192,0,9,,,,,1,,,69,100
23616,note_off,,,,,192,0,12,,,,,4,,,45,100
23616,note_off,,,,,192,0,13,,,,,5,,,69,100
23616,note_on,,,,,0,0,8,,,,,0,,,81,86
23616,note_on,,,,,4,0,8,,,,,0,,,85,86
23660,note_off,,,,,0,0,8,,,,,0,,,81,100
23660,note_off,,,,,44,0,8,,,,,0,,,85,100
23664,note_on,,,,,0,0,8,,,,,0,,,83,86
23664,note_on,,,,,4,0,8,,,,,0,,,86,86
23708,note_off,,,,,0,0,8,,,,,0,,,83,100
23708,note_off,,,,,44,0,8,,,,,0,,,86,100
23712,note_on,,,,,96,0,9,,,,,1,,,69,85
23712,note_on,,,,,96,0,12,,,,,4,,,45,85
23712,note_on,,,,,96,0,13,,,,,5,,,69,100
23712,note_on,,,,,96,0,14,,,,,5,,,57,100
23712,note_on,,,,,4,0,8,,,,,0,,,85,86
23712,note_on,,,,,0,0,8,,,,,0,,,81,86
23712,note_on,,,,,96,0,10,,,,,2,,,69,85
23712,note_on,,,,,96,0,11,,,,,3,,,57,85
23756,note_off,,,,,44,0,8,,,,,0,,,85,100
23756,note_off,,,,,0,0,8,,,,,0,,,81,100
23760,note_on,,,,,0,0,8,,,,,0,,,83,86
23760,note_on,,,,,4,0,8,,,,,0,,,86,86
23776,note_off,,,,,64,0,9,,,,,1,,,69,100
23776,note_off,,,,,64,0,10,,,,,2,,,69,100
23776,note_off,,,,,64,0,11,,,,,3,,,57,100
23776,note_off,,,,,64,0,13,,,,,5,,,69,100
23776,note_off,,,,,64,0,12,,,,,4,,,45,100
23776,note_off,,,,,64,0,14,,,,,5,,,57,100
23804,note_off,,,,,0,0,8,,,,,0,,,83,100
23804,note_off,,,,,44,0,8,,,,,0,,,86,100
23808,note_on,,,,,32,0,14,,,,,5,,,57,100
23808,note_on,,,,,32,0,11,,,,,3,,,57,85
23808,note_on,,,,,32,0,10,,,,,2,,,69,85
23808,note_on,,,,,32,0,12,,,,,4,,,45,85
23808,note_on,,,,,0,0,8,,,,,0,,,81,86
23808,note_on,,,,,32,0,13,,,,,5,,,69,100
23808,note_on,,,,,4,0,8,,,,,0,,,85,86
23808,note_on,,,,,32,0,9,,,,,1,,,69,85
23936,note_off,,,,,128,0,13,,,,,5,,,69,100
23936,note_off,,,,,128,0,14,,,,,5,,,57,100
23936,note_off,,,,,128,0,10,,,,,2,,,69,100
23936,note_off,,,,,128,0,9,,,,,1,,,69,100
23936,note_off,,,,,128,0,12,,,,,4,,,45,100
23936,note_off,,,,,128,0,11,,,,,3,,,57,100
24000,note_on,,,,,64,0,12,,,,,4,,,33,85
24000,note_on,,,,,64,0,11,,,,,3,,,45,85
24000,note_on,,,,,64,0,9,,,,,1,,,57,85
24000,note_on,,,,,64,0,13,,,,,5,,,57,100
24000,note_on,,,,,64,0,10,,,,,2,,,57,85
24000,note_on,,,,,64,0,14,,,,,5,,,45,100
24064,note_off,,,,,0,0,8,,,,,0,,,81,100
24064,note_off,,,,,256,0,8,,,,,0,,,85,100
24128,note_off,,,,,128,0,10,,,,,2,,,57,100
24128,note_off,,,,,128,0,11,,,,,3,,,45,100
24128,note_off,,,,,128,0,13,,,,,5,,,57,100
24128,note_off,,,,,128,0,9,,,,,1,,,57,100
24128,note_off,,,,,128,0,14,,,,,5,,,45,100
24128,note_off,,,,,128,0,12,,,,,4,,,33,100
24384,note_on,,,,,256,0,13,,,,,5,,,69,100
24384,note_on,,,,,256,0,12,,,,,4,,,45,85
24384,note_on,,,,,256,0,9,,,,,1,,,69,85
24384,note_on,,,,,256,0,11,,,,,3,,,57,85
24384,note_on,,,,,256,0,10,,,,,2,,,69,85
24384,note_on,,,,,256,0,14,,,,,5,,,57,100
24512,note_off,,,,,128,0,12,,,,,4,,,45,100
24512,note_off,,,,,128,0,9,,,,,1,,,69,100
24512,note_off,,,,,128,0,13,,,,,5,,,69,100
24512,note_off,,,,,128,0,10,,,,,2,,,69,100
24512,note_off,,,,,128,0,14,,,,,5,,,57,100
24512,note_off,,,,,128,0,11,,,,,3,,,57,100
24576,note_on,,,,,64,0,9,,,,,1,,,69,85
24576,note_on,,,,,64,0,12,,,,,4,,,45,85
24576,note_on,,,,,64,0,14,,,,,5,,,57,100
24576,note_on,,,,,64,0,10,,,,,2,,,69,85
24576,note_on,,,,,64,0,11,,,,,3,,,57,85
24576,note_on,,,,,64,0,13,,,,,5,,,69,100
24704,note_off,,,,,128,0,11,,,,,3,,,57,100
24704,note_off,,,,,128,0,9,,,,,1,,,69,100
24704,note_off,,,,,128,0,12,,,,,4,,,45,100
24704,note_off,,,,,128,0,10,,,,,2,,,69,100
24704,note_off,,,,,128,0,13,,,,,5,,,69,100
24704,note_off,,,,,128,0,14,,,,,5,,,57,100
24768,note_on,,,,,64,0,9,,,,,1,,,57,85
24768,note_on,,,,,64,0,11,,,,,3,,,45,85
24768,note_on,,,,,64,0,13,,,,,5,,,57,100
24768,note_on,,,,,64,0,14,,,,,5,,,45,100
24768,note_on,,,,,64,0,10,,,,,2,,,57,85
24768,note_on,,,,,64,0,12,,,,,4,,,33,85
24896,note_off,,,,,128,0,14,,,,,5,,,45,100
24896,note_off,,,,,128,0,9,,,,,1,,,57,100
24896,note_off,,,,,128,0,11,,,,,3,,,45,100
24896,note_off,,,,,128,0,10,,,,,2,,,57,100
24896,note_off,,,,,128,0,13,,,,,5,,,57,100
24896,note_off,,,,,128,0,12,,,,,4,,,33,100
24960,note_on,,,,,64,0,9,,,,,1,,,57,85
24960,note_on,,,,,64,0,13,,,,,5,,,57,100
24960,note_on,,,,,64,0,10,,,,,2,,,57,85
24960,note_on,,,,,64,0,12,,,,,4,,,33,85
24960,note_on,,,,,64,0,11,,,,,3,,,45,85
24960,note_on,,,,,64,0,14,,,,,5,,,45,100
25088,note_off,,,,,128,0,12,,,,,4,,,33,100
25088,note_off,,,,,128,0,9,,,,,1,,,57,100
25088,note_off,,,,,128,0,14,,,,,5,,,45,100
25088,note_off,,,,,128,0,13,,,,,5,,,57,100
25088,note_off,,,,,128,0,10,,,,,2,,,57,100
25088,note_off,,,,,128,0,11,,,,,3,,,45,100
25152,note_on,,,,,64,0,12,,,,,4,,,45,85
25152,note_on,,,,,64,0,9,,,,,1,,,69,85
25152,note_on,,,,,64,0,14,,,,,5,,,57,100
25152,note_on,,,,,64,0,13,,,,,5,,,69,100
25152,note_on,,,,,64,0,10,,,,,2,,,69,85
25152,note_on,,,,,64,0,11,,,,,3,,,57,85
25280,note_off,,,,,128,0,13,,,,,5,,,69,100
25280,note_off,,,,,128,0,10,,,,,2,,,69,100
25280,note_off,,,,,128,0,12,,,,,4,,,45,100
25280,note_off,,,,,128,0,9,,,,,1,,,69,100
25280,note_off,,,,,128,0,11,,,,,3,,,57,100
25280,note_off,,,,,128,0,14,,,,,5,,,57,100
25344,note_on,,,,,64,0,13,,,,,5,,,69,100
25344,note_on,,,,,64,0,14,,,,,5,,,57,100
25344,note_on,,,,,64,0,10,,,,,2,,,69,85
25344,note_on,,,,,64,0,12,,,,,4,,,45,85
25344,note_on,,,,,64,0,9,,,,,1,,,69,85
25344,note_on,,,,,64,0,11,,,,,3,,,57,85
25472,note_off,,,,,128,0,9,,,,,1,,,69,100
25472,note_off,,,,,128,0,12,,,,,4,,,45,100
25472,note_off,,,,,128,0,14,,,,,5,,,57,100
25472,note_off,,,,,128,0,11,,,,,3,,,57,100
25472,note_off,,,,,128,0,10,,,,,2,,,69,100
25472,note_off,,,,,128,0,13,,,,,5,,,69,100
25536,note_on,,,,,64,0,13,,,,,5,,,57,100
25536,note_on,,,,,64,0,14,,,,,5,,,45,100
25536,note_on,,,,,64,0,9,,,,,1,,,57,85
25536,note_on,,,,,64,0,12,,,,,4,,,33,85
25536,note_on,,,,,64,0,10,,,,,2,,,57,85
25536,note_on,,,,,64,0,11,,,,,3,,,45,85
25664,note_off,,,,,128,0,12,,,,,4,,,33,100
25664,note_off,,,,,128,0,10,,,,,2,,,57,100
25664,note_off,,,,,128,0,11,,,,,3,,,45,100
25664,note_off,,,,,128,0,14,,,,,5,,,45,100
25664,note_off,,,,,128,0,9,,,,,1,,,57,100
25664,note_off,,,,,128,0,13,,,,,5,,,57,100
25728,note_on,,,,,64,0,12,,,,,4,,,33,85
25728,note_on,,,,,64,0,11,,,,,3,,,45,85
25728,note_on,,,,,64,0,14,,,,,5,,,45,100
25728,note_on,,,,,64,0,10,,,,,2,,,57,85
25728,note_on,,,,,64,0,9,,,,,1,,,57,85
25728,note_on,,,,,64,0,13,,,,,5,,,57,100
25856,note_off,,,,,128,0,10,,,,,2,,,57,100
25856,note_off,,,,,128,0,9,,,,,1,,,57,100
25856,note_off,,,,,128,0,13,,,,,5,,,57,100
25856,note_off,,,,,128,0,12,,,,,4,,,33,100
25856,note_off,,,,,128,0,11,,,,,3,,,45,100
25856,note_off,,,,,128,0,14,,,,,5,,,45,100
25920,note_on,,,,,64,0,11,,,,,3,,,57,85
25920,note_on,,,,,64,0,12,,,,,4,,,45,85
25920,note_on,,,,,64,0,13,,,,,5,,,69,100
25920,note_on,,,,,64,0,9,,,,,1,,,69,85
25920,note_on,,,,,64,0,14,,,,,5,,,57,100
25920,note_on,,,,,64,0,10,,,,,2,,,69,85
26048,note_off,,,,,128,0,12,,,,,4,,,45,100
26048,note_off,,,,,128,0,14,,,,,5,,,57,100
26048,note_off,,,,,128,0,11,,,,,3,,,57,100
26048,note_off,,,,,128,0,10,,,,,2,,,69,100
26048,note_off,,,,,128,0,9,,,,,1,,,69,100
26048,note_off,,,,,128,0,13,,,,,5,,,69,100
26112,note_on,,,,,64,0,12,,,,,4,,,45,85
26112,note_on,,,,,64,0,11,,,,,3,,,57,85
26112,note_on,,,,,64,0,10,,,,,2,,,69,85
26112,note_on,,,,,64,0,9,,,,,1,,,69,85
26112,note_on,,,,,64,0,13,,,,,5,,,69,100
26112,note_on,,,,,64,0,14,,,,,5,,,57,100
26240,note_off,,,,,128,0,14,,,,,5,,,57,100
26240,note_off,,,,,128,0,9,,,,,1,,,69,100
26240,note_off,,,,,128,0,10,,,,,2,,,69,100
26240,note_off,,,,,128,0,13,,,,,5,,,69,100
26240,note_off,,,,,128,0,11,,,,,3,,,57,100
26240,note_off,,,,,128,0,12,,,,,4,,,45,100
26304,note_on,,,,,64,0,10,,,,,2,,,68,85
26304,note_on,,,,,64,0,14,,,,,5,,,56,100
26304,note_on,,,,,64,0,12,,,,,4,,,44,85
26304,note_on,,,,,64,0,9,,,,,1,,,68,85
26304,note_on,,,,,64,0,13,,,,,5,,,68,100
26304,note_on,,,,,64,0,11,,,,,3,,,56,85
26368,note_off,,,,,64,0,11,,,,,3,,,56,100
26368,note_off,,,,,64,0,14,,,,,5,,,56,100
26368,note_off,,,,,64,0,10,,,,,2,,,68,100
26368,note_off,,,,,64,0,12,,,,,4,,,44,100
26368,note_off,,,,,64,0,9,,,,,1,,,68,100
26368,note_off,,,,,64,0,13,,,,,5,,,68,100
26400,note_on,,,,,32,0,12,,,,,4,,,42,85
26400,note_on,,,,,32,0,9,,,,,1,,,66,85
26400,note_on,,,,,32,0,10,,,,,2,,,66,85
26400,note_on,,,,,32,0,14,,,,,5,,,54,100
26400,note_on,,,,,32,0,13,,,,,5,,,66,100
26400,note_on,,,,,32,0,11,,,,,3,,,54,85
26464,note_off,,,,,64,0,13,,,,,5,,,66,100
26464,note_off,,,,,64,0,10,,,,,2,,,66,100
26464,note_off,,,,,64,0,14,,,,,5,,,54,100
26464,note_off,,,,,64,0,9,,,,,1,,,66,100
26464,note_off,,,,,64,0,12,,,,,4,,,42,100
26464,note_off,,,,,64,0,11,,,,,3,,,54,100
26496,note_on,,,,,32,0,14,,,,,5,,,52,100
26496,note_on,,,,,32,0,13,,,,,5,,,64,100
26496,note_on,,,,,32,0,12,,,,,4,,,40,85
26496,note_on,,,,,32,0,10,,,,,2,,,64,85
26496,note_on,,,,,32,0,9,,,,,1,,,64,85
26496,note_on,,,,,32,0,11,,,,,3,,,52,85
26624,note_off,,,,,128,0,14,,,,,5,,,52,100
26624,note_off,,,,,128,0,12,,,,,4,,,40,100
26624,note_off,,,,,128,0,11,,,,,3,,,52,100
26624,note_off,,,,,128,0,10,,,,,2,,,64,100
26624,note_off,,,,,128,0,9,,,,,1,,,64,100
26624,note_off,,,,,128,0,13,,,,,5,,,64,100
26688,note_on,,,,,64,0,10,,,,,2,,,62,85
26688,note_on,,,,,64,0,9,,,,,1,,,62,85
26688,note_on,,,,,64,0,11,,,,,3,,,50,85
26688,note_on,,,,,64,0,12,,,,,4,,,38,85
26688,note_on,,,,,64,0,14,,,,,5,,,50,100
26688,note_on,,,,,64,0,13,,,,,5,,,62,100
26816,note_off,,,,,128,0,10,,,,,2,,,62,100
26816,note_off,,,,,128,0,12,,,,,4,,,38,100
26816,note_off,,,,,128,0,14,,,,,5,,,50,100
26816,note_off,,,,,128,0,13,,,,,5,,,62,100
26816,note_off,,,,,128,0,9,,,,,1,,,62,100
26816,note_off,,,,,128,0,11,,,,,3,,,50,100
26880,note_on,,,,,64,0,12,,,,,4,,,37,85
26880,note_on,,,,,64,0,14,,,,,5,,,49,100
26880,note_on,,,,,64,0,11,,,,,3,,,49,85
26880,note_on,,,,,0,0,13,,,,,5,,,64,100
26880,note_on,,,,,64,0,13,,,,,5,,,57,100
26880,note_on,,,,,64,0,9,,,,,1,,,61,85
26880,note_on,,,,,64,0,10,,,,,2,,,61,85
27136,note_off,,,,,256,0,9,,,,,1,,,61,100
27136,note_off,,,,,256,0,11,,,,,3,,,49,100
27136,note_off,,,,,256,0,14,,,,,5,,,49,100
27136,note_off,,,,,256,0,13,,,,,5,,,57,100
27136,note_off,,,,,0,0,13,,,,,5,,,64,100
27136,note_off,,,,,256,0,12,,,,,4,,,37,100
27136,note_off,,,,,256,0,10,,,,,2,,,61,100
27648,note_on,,,,,512,0,9,,,,,1,,,76,85
27648,note_on,,,,,512,0,14,,,,,5,,,64,100
27648,note_on,,,,,512,0,12,,,,,4,,,52,85
27648,note_on,,,,,512,0,13,,,,,5,,,76,100
27648,note_on,,,,,512,0,10,,,,,2,,,76,85
27648,note_on,,,,,512,0,11,,,,,3,,,64,85
27904,note_off,,,,,256,0,12,,,,,4,,,52,100
27904,note_off,,,,,256,0,9,,,,,1,,,76,100
27904,note_off,,,,,256,0,11,,,,,3,,,64,100
27904,note_off,,,,,256,0,13,,,,,5,,,76,100
27904,note_off,,,,,256,0,10,,,,,2,,,76,100
27904,note_off,,,,,256,0,14,,,,,5,,,64,100
28032,note_on,,,,,128,0,11,,,,,3,,,64,85
28032,note_on,,,,,128,0,13,,,,,5,,,76,100
28032,note_on,,,,,128,0,10,,,,,2,,,76,85
28032,note_on,,,,,128,0,12,,,,,4,,,52,85
28032,note_on,,,,,128,0,9,,,,,1,,,76,85
28032,note_on,,,,,128,0,14,,,,,5,,,64,100
28224,note_off,,,,,192,0,14,,,,,5,,,64,100
28224,note_off,,,,,192,0,10,,,,,2,,,76,100
28224,note_off,,,,,192,0,9,,,,,1,,,76,100
28224,note_off,,,,,192,0,11,,,,,3,,,64,100
28224,note_off,,,,,192,0,13,,,,,5,,,76,100
28224,note_off,,,,,192,0,12,,,,,4,,,52,100
28320,note_on,,,,,96,0,13,,,,,5,,,76,100
28320,note_on,,,,,96,0,14,,,,,5,,,64,100
28320,note_on,,,,,96,0,11,,,,,3,,,64,85
28320,note_on,,,,,96,0,10,,,,,2,,,76,85
28320,note_on,,,,,96,0,12,,,,,4,,,52,85
28320,note_on,,,,,96,0,9,,,,,1,,,76,85
28384,note_off,,,,,64,0,9,,,,,1,,,76,100
28384,note_off,,,,,64,0,11,,,,,3,,,64,100
28384,note_off,,,,,64,0,12,,,,,4,,,52,100
28384,note_off,,,,,64,0,13,,,,,5,,,76,100
28384,note_off,,,,,64,0,10,,,,,2,,,76,100
28384,note_off,,,,,64,0,14,,,,,5,,,64,100
28416,note_on,,,,,32,0,11,,,,,3,,,64,85
28416,note_on,,,,,32,0,14,,,,,5,,,64,100
28416,note_on,,,,,32,0,13,,,,,5,,,76,100
28416,note_on,,,,,32,0,10,,,,,2,,,76,85
28416,note_on,,,,,32,0,12,,,,,4,,,52,85
28416,note_on,,,,,32,0,9,,,,,1,,,76,85
28544,note_off,,,,,128,0,12,,,,,4,,,52,100
28544,note_off,,,,,128,0,13,,,,,5,,,76,100
28544,note_off,,,,,128,0,9,,,,,1,,,76,100
28544,note_off,,,,,128,0,14,,,,,5,,,64,100
28544,note_off,,,,,128,0,11,,,,,3,,,64,100
28544,note_off,,,,,128,0,10,,,,,2,,,76,100
28608,note_on,,,,,64,0,13,,,,,5,,,64,100
28608,note_on,,,,,64,0,11,,,,,3,,,52,85
28608,note_on,,,,,64,0,12,,,,,4,,,40,85
28608,note_on,,,,,64,0,14,,,,,5,,,52,100
28608,note_on,,,,,64,0,9,,,,,1,,,64,85
28608,note_on,,,,,64,0,10,,,,,2,,,64,85
28736,note_off,,,,,128,0,11,,,,,3,,,52,100
28736,note_off,,,,,128,0,12,,,,,4,,,40,100
28736,note_off,,,,,128,0,13,,,,,5,,,64,100
28736,note_off,,,,,128,0,14,,,,,5,,,52,100
28736,note_off,,,,,128,0,9,,,,,1,,,64,100
28736,note_off,,,,,128,0,10,,,,,2,,,64,100
28992,note_on,,,,,256,0,13,,,,,5,,,76,100
28992,note_on,,,,,256,0,10,,,,,2,,,76,85
28992,note_on,,,,,256,0,9,,,,,1,,,76,85
28992,note_on,,,,,256,0,11,,,,,3,,,64,85
28992,note_on,,,,,256,0,12,,,,,4,,,52,85
28992,note_on,,,,,256,0,14,,,,,5,,,64,100
29120,note_off,,,,,128,0,10,,,,,2,,,76,100
29120,note_off,,,,,128,0,13,,,,,5,,,76,100
29120,note_off,,,,,128,0,14,,,,,5,,,64,100
29120,note_off,,,,,128,0,11,,,,,3,,,64,100
29120,note_off,,,,,128,0,9,,,,,1,,,76,100
29120,note_off,,,,,128,0,12,,,,,4,,,52,100
29184,note_on,,,,,64,0,10,,,,,2,,,76,85
29184,note_on,,,,,64,0,9,,,,,1,,,76,85
29184,note_on,,,,,64,0,14,,,,,5,,,64,100
29184,note_on,,,,,64,0,13,,,,,5,,,76,100
29184,note_on,,,,,64,0,11,,,,,3,,,64,85
29184,note_on,,,,,64,0,12,,,,,4,,,52,85
29312,note_off,,,,,128,0,9,,,,,1,,,76,100
29312,note_off,,,,,128,0,11,,,,,3,,,64,100
29312,note_off,,,,,128,0,14,,,,,5,,,64,100
29312,note_off,,,,,128,0,13,,,,,5,,,76,100
29312,note_off,,,,,128,0,12,,,,,4,,,52,100
29312,note_off,,,,,128,0,10,,,,,2,,,76,100
29376,note_on,,,,,64,0,14,,,,,5,,,52,100
29376,note_on,,,,,64,0,10,,,,,2,,,64,85
29376,note_on,,,,,64,0,9,,,,,1,,,64,85
29376,note_on,,,,,64,0,13,,,,,5,,,64,100
29376,note_on,,,,,64,0,12,,,,,4,,,40,85
29376,note_on,,,,,64,0,11,,,,,3,,,52,85
29504,note_off,,,,,128,0,11,,,,,3,,,52,100
29504,note_off,,,,,128,0,12,,,,,4,,,40,100
29504,note_off,,,,,128,0,10,,,,,2,,,64,100
29504,note_off,,,,,128,0,9,,,,,1,,,64,100
29504,note_off,,,,,128,0,14,,,,,5,,,52,100
29504,note_off,,,,,128,0,13,,,,,5,,,64,100
29568,note_on,,,,,64,0,10,,,,,2,,,64,85
29568,note_on,,,,,64,0,13,,,,,5,,,64,100
29568,note_on,,,,,64,0,12,,,,,4,,,40,85
29568,note_on,,,,,64,0,11,,,,,3,,,52,85
29568,note_on,,,,,64,0,14,,,,,5,,,52,100
29568,note_on,,,,,64,0,9,,,,,1,,,64,85
29696,note_off,,,,,128,0,9,,,,,1,,,64,100
29696,note_off,,,,,128,0,10,,,,,2,,,64,100
29696,note_off,,,,,128,0,14,,,,,5,,,52,100
29696,note_off,,,,,128,0,13,,,,,5,,,64,100
29696,note_off,,,,,128,0,12,,,,,4,,,40,100
29696,note_off,,,,,128,0,11,,,,,3,,,52,100
29760,note_on,,,,,64,0,10,,,,,2,,,76,85
29760,note_on,,,,,64,0,13,,,,,5,,,76,100
29760,note_on,,,,,64,0,11,,,,,3,,,64,85
29760,note_on,,,,,64,0,9,,,,,1,,,76,85
29760,note_on,,,,,64,0,12,,,,,4,,,52,85
29760,note_on,,,,,64,0,14,,,,,5,,,64,100
29888,note_off,,,,,128,0,10,,,,,2,,,76,100
29888,note_off,,,,,128,0,13,,,,,5,,,76,100
29888,note_off,,,,,128,0,14,,,,,5,,,64,100
29888,note_off,,,,,128,0,11,,,,,3,,,64,100
29888,note_off,,,,,128,0,9,,,,,1,,,76,100
29888,note_off,,,,,128,0,12,,,,,4,,,52,100
29952,note_on,,,,,64,0,12,,,,,4,,,52,85
29952,note_on,,,,,64,0,9,,,,,1,,,76,85
29952,note_on,,,,,64,0,10,,,,,2,,,76,85
29952,note_on,,,,,64,0,13,,,,,5,,,76,100
29952,note_on,,,,,64,0,11,,,,,3,,,64,85
29952,note_on,,,,,64,0,14,,,,,5,,,64,100
30080,note_off,,,,,128,0,10,,,,,2,,,76,100
30080,note_off,,,,,128,0,11,,,,,3,,,64,100
30080,note_off,,,,,128,0,13,,,,,5,,,76,100
30080,note_off,,,,,128,0,9,,,,,1,,,76,100
30080,note_off,,,,,128,0,12,,,,,4,,,52,100
30080,note_off,,,,,128,0,14,,,,,5,,,64,100
30144,note_on,,,,,64,0,14,,,,,5,,,52,100
30144,note_on,,,,,64,0,12,,,,,4,,,40,85
30144,note_on,,,,,64,0,10,,,,,2,,,64,85
30144,note_on,,,,,64,0,9,,,,,1,,,64,85
30144,note_on,,,,,64,0,11,,,,,3,,,52,85
30144,note_on,,,,,64,0,13,,,,,5,,,64,100
30272,note_off,,,,,128,0,14,,,,,5,,,52,100
30272,note_off,,,,,128,0,9,,,,,1,,,64,100
30272,note_off,,,,,128,0,11,,,,,3,,,52,100
30272,note_off,,,,,128,0,10,,,,,2,,,64,100
30272,note_off,,,,,128,0,12,,,,,4,,,40,100
30272,note_off,,,,,128,0,13,,,,,5,,,64,100
30336,note_on,,,,,64,0,13,,,,,5,,,64,100
30336,note_on,,,,,64,0,14,,,,,5,,,52,100
30336,note_on,,,,,64,0,11,,,,,3,,,52,85
30336,note_on,,,,,64,0,10,,,,,2,,,64,85
30336,note_on,,,,,64,0,12,,,,,4,,,40,85
30336,note_on,,,,,64,0,9,,,,,1,,,64,85
30464,note_off,,,,,128,0,13,,,,,5,,,64,100
30464,note_off,,,,,128,0,9,,,,,1,,,64,100
30464,note_off,,,,,128,0,14,,,,,5,,,52,100
30464,note_off,,,,,128,0,10,,,,,2,,,64,100
30464,note_off,,,,,128,0,11,,,,,3,,,52,100
30464,note_off,,,,,128,0,12,,,,,4,,,40,100
30528,note_on,,,,,64,0,9,,,,,1,,,76,85
30528,note_on,,,,,64,0,10,,,,,2,,,76,85
30528,note_on,,,,,64,0,11,,,,,3,,,64,85
30528,note_on,,,,,64,0,13,,,,,5,,,76,100
30528,note_on,,,,,64,0,14,,,,,5,,,64,100
30528,note_on,,,,,64,0,12,,,,,4,,,52,85
30656,note_off,,,,,128,0,11,,,,,3,,,64,100
30656,note_off,,,,,128,0,13,,,,,5,,,76,100
30656,note_off,,,,,128,0,9,,,,,1,,,76,100
30656,note_off,,,,,128,0,12,,,,,4,,,52,100
30656,note_off,,,,,128,0,14,,,,,5,,,64,100
30656,note_off,,,,,128,0,10,,,,,2,,,76,100
30720,note_on,,,,,64,0,11,,,,,3,,,64,85
30720,note_on,,,,,64,0,9,,,,,1,,,76,85
30720,note_on,,,,,64,0,12,,,,,4,,,52,85
30720,note_on,,,,,64,0,13,,,,,5,,,76,100
30720,note_on,,,,,64,0,10,,,,,2,,,76,85
30720,note_on,,,,,64,0,14,,,,,5,,,64,100
30848,note_off,,,,,128,0,10,,,,,2,,,76,100
30848,note_off,,,,,128,0,11,,,,,3,,,64,100
30848,note_off,,,,,128,0,14,,,,,5,,,64,100
30848,note_off,,,,,128,0,12,,,,,4,,,52,100
30848,note_off,,,,,128,0,9,,,,,1,,,76,100
30848,note_off,,,,,128,0,13,,,,,5,,,76,100
30912,note_on,,,,,64,0,14,,,,,5,,,62,100
30912,note_on,,,,,64,0,13,,,,,5,,,74,100
30912,note_on,,,,,64,0,12,,,,,4,,,50,85
30912,note_on,,,,,64,0,11,,,,,3,,,62,85
30912,note_on,,,,,64,0,10,,,,,2,,,74,85
30912,note_on,,,,,64,0,9,,,,,1,,,74,85
30976,note_off,,,,,64,0,13,,,,,5,,,74,100
30976,note_off,,,,,64,0,11,,,,,3,,,62,100
30976,note_off,,,,,64,0,10,,,,,2,,,74,100
30976,note_off,,,,,64,0,12,,,,,4,,,50,100
30976,note_off,,,,,64,0,9,,,,,1,,,74,100
30976,note_off,,,,,64,0,14,,,,,5,,,62,100
31008,note_on,,,,,32,0,11,,,,,3,,,61,85
31008,note_on,,,,,32,0,12,,,,,4,,,49,85
31008,note_on,,,,,32,0,14,,,,,5,,,61,100
31008,note_on,,,,,32,0,13,,,,,5,,,73,100
31008,note_on,,,,,32,0,9,,,,,1,,,73,85
31008,note_on,,,,,32,0,10,,,,,2,,,73,85
31072,note_off,,,,,64,0,13,,,,,5,,,73,100
31072,note_off,,,,,64,0,10,,,,,2,,,73,100
31072,note_off,,,,,64,0,14,,,,,5,,,61,100
31072,note_off,,,,,64,0,11,,,,,3,,,61,100
31072,note_off,,,,,64,0,12,,,,,4,,,49,100
31072,note_off,,,,,64,0,9,,,,,1,,,73,100
31104,note_on,,,,,32,0,13,,,,,5,,,71,100
31104,note_on,,,,,32,0,10,,,,,2,,,71,85
31104,note_on,,,,,32,0,14,,,,,5,,,59,100
31104,note_on,,,,,32,0,11,,,,,3,,,59,85
31104,note_on,,,,,32,0,9,,,,,1,,,71,85
31104,note_on,,,,,32,0,12,,,,,4,,,47,85
31232,note_off,,,,,128,0,13,,,,,5,,,71,100
31232,note_off,,,,,128,0,12,,,,,4,,,47,100
31232,note_off,,,,,128,0,10,,,,,2,,,71,100
31232,note_off,,,,,128,0,11,,,,,3,,,59,100
31232,note_off,,,,,128,0,9,,,,,1,,,71,100
31232,note_off,,,,,128,0,14,,,,,5,,,59,100
31296,note_on,,,,,64,0,12,,,,,4,,,45,85
31296,note_on,,,,,64,0,9,,,,,1,,,69,85
31296,note_on,,,,,64,0,13,,,,,5,,,69,100
31296,note_on,,,,,64,0,10,,,,,2,,,69,85
31296,note_on,,,,,64,0,14,,,,,5,,,57,100
31296,note_on,,,,,64,0,11,,,,,3,,,57,85
31424,note_off,,,,,128,0,11,,,,,3,,,57,100
31424,note_off,,,,,128,0,13,,,,,5,,,69,100
31424,note_off,,,,,128,0,10,,,,,2,,,69,100
31424,note_off,,,,,128,0,9,,,,,1,,,69,100
31424,note_off,,,,,128,0,14,,,,,5,,,57,100
31424,note_off,,,,,128,0,12,,,,,4,,,45,100
31488,note_on,,,,,64,0,10,,,,,2,,,68,85
31488,note_on,,,,,64,0,12,,,,,4,,,44,85
31488,note_on,,,,,64,0,13,,,,,5,,,64,100
31488,note_on,,,,,64,0,11,,,,,3,,,56,85
31488,note_on,,,,,64,0,14,,,,,5,,,56,100
31488,note_on,,,,,64,0,9,,,,,1,,,68,85
31488,note_on,,,,,0,0,13,,,,,5,,,71,100
31744,note_off,,,,,256,0,12,,,,,4,,,44,100
31744,note_off,,,,,256,0,14,,,,,5,,,56,100
31744,note_off,,,,,256,0,10,,,,,2,,,68,100
31744,note_off,,,,,256,0,9,,,,,1,,,68,100
31744,note_off,,,,,256,0,11,,,,,3,,,56,100
31744,note_off,,,,,256,0,13,,,,,5,,,71,100
31868,note_off,,,,,124,0,13,,,,,5,,,64,100
32064,note_on,,,,,320,0,14,,,,,5,,,52,100
32064,note_on,,,,,320,0,10,,,,,2,,,64,85
32064,note_on,,,,,320,0,11,,,,,3,,,52,85
32064,note_on,,,,,320,0,9,,,,,1,,,64,85
32064,note_on,,,,,320,0,12,,,,,4,,,40,85
32064,note_on,,,,,196,0,13,,,,,5,,,64,100
32192,note_off,,,,,128,0,10,,,,,2,,,64,100
32192,note_off,,,,,128,0,11,,,,,3,,,52,100
32192,note_off,,,,,128,0,9,,,,,1,,,64,100
32192,note_off,,,,,128,0,13,,,,,5,,,64,100
32192,note_off,,,,,128,0,14,,,,,5,,,52,100
32192,note_off,,,,,128,0,12,,,,,4,,,40,100
32256,note_on,,,,,64,0,9,,,,,1,,,69,85
32256,note_on,,,,,64,0,14,,,,,5,,,57,100
32256,note_on,,,,,64,0,10,,,,,2,,,69,85
32256,note_on,,,,,64,0,12,,,,,4,,,45,85
32256,note_on,,,,,64,0,11,,,,,3,,,57,85
32256,note_on,,,,,64,0,13,,,,,5,,,69,100
32384,note_off,,,,,128,0,12,,,,,4,,,45,100
32384,note_off,,,,,128,0,9,,,,,1,,,69,100
32384,note_off,,,,,128,0,10,,,,,2,,,69,100
32384,note_off,,,,,128,0,14,,,,,5,,,57,100
32384,note_off,,,,,128,0,11,,,,,3,,,57,100
32384,note_off,,,,,128,0,13,,,,,5,,,69,100
32448,note_on,,,,,64,0,9,,,,,1,,,71,85
32448,note_on,,,,,64,0,11,,,,,3,,,59,85
32448,note_on,,,,,64,0,10,,,,,2,,,71,85
32448,note_on,,,,,64,0,13,,,,,5,,,71,100
32448,note_on,,,,,64,0,14,,,,,5,,,59,100
32448,note_on,,,,,64,0,12,,,,,4,,,47,85
32576,note_off,,,,,128,0,13,,,,,5,,,71,100
32576,note_off,,,,,128,0,11,,,,,3,,,59,100
32576,note_off,,,,,128,0,9,,,,,1,,,71,100
32576,note_off,,,,,128,0,12,,,,,4,,,47,100
32576,note_off,,,,,128,0,10,,,,,2,,,71,100
32576,note_off,,,,,128,0,14,,,,,5,,,59,100
32640,note_on,,,,,64,0,10,,,,,2,,,73,85
32640,note_on,,,,,64,0,12,,,,,4,,,49,85
32640,note_on,,,,,64,0,13,,,,,5,,,73,100
32640,note_on,,,,,64,0,11,,,,,3,,,61,85
32640,note_on,,,,,64,0,9,,,,,1,,,73,85
32640,note_on,,,,,64,0,14,,,,,5,,,61,100
32768,note_off,,,,,128,0,12,,,,,4,,,49,100
32768,note_off,,,,,128,0,14,,,,,5,,,61,100
32768,note_off,,,,,128,0,10,,,,,2,,,73,100
32768,note_off,,,,,128,0,9,,,,,1,,,73,100
32768,note_off,,,,,128,0,11,,,,,3,,,61,100
32768,note_off,,,,,128,0,13,,,,,5,,,73,100
32832,note_on,,,,,64,0,12,,,,,4,,,50,85
32832,note_on,,,,,64,0,9,,,,,1,,,74,85
32832,note_on,,,,,64,0,13,,,,,5,,,74,100
32832,note_on,,,,,64,0,11,,,,,3,,,62,85
32832,note_on,,,,,64,0,10,,,,,2,,,74,85
32832,note_on,,,,,64,0,14,,,,,5,,,62,100
32960,note_off,,,,,128,0,13,,,,,5,,,74,100
32960,note_off,,,,,128,0,10,,,,,2,,,74,100
32960,note_off,,,,,128,0,9,,,,,1,,,74,100
32960,note_off,,,,,128,0,12,,,,,4,,,50,100
32960,note_off,,,,,128,0,14,,,,,5,,,62,100
32960,note_off,,,,,128,0,11,,,,,3,,,62,100
33024,note_on,,,,,64,0,11,,,,,3,,,64,85
33024,note_on,,,,,64,0,10,,,,,2,,,76,85
33024,note_on,,,,,64,0,14,,,,,5,,,64,100
33024,note_on,,,,,64,0,12,,,,,4,,,52,85
33024,note_on,,,,,64,0,13,,,,,5,,,76,100
33024,note_on,,,,,64,0,9,,,,,1,,,76,85
33152,note_off,,,,,128,0,13,,,,,5,,,76,100
33152,note_off,,,,,128,0,10,,,,,2,,,76,100
33152,note_off,,,,,128,0,9,,,,,1,,,76,100
33152,note_off,,,,,128,0,14,,,,,5,,,64,100
33152,note_off,,,,,128,0,12,,,,,4,,,52,100
33152,note_off,,,,,128,0,11,,,,,3,,,64,100
33216,note_on,,,,,64,0,9,,,,,1,,,71,85
33216,note_on,,,,,64,0,11,,,,,3,,,59,85
33216,note_on,,,,,64,0,12,,,,,4,,,47,85
33216,note_on,,,,,64,0,10,,,,,2,,,71,85
33216,note_on,,,,,64,0,14,,,,,5,,,59,100
33216,note_on,,,,,64,0,13,,,,,5,,,71,100
33280,note_off,,,,,64,0,12,,,,,4,,,47,100
33280,note_off,,,,,64,0,10,,,,,2,,,71,100
33280,note_off,,,,,64,0,13,,,,,5,,,71,100
33280,note_off,,,,,64,0,9,,,,,1,,,71,100
33280,note_off,,,,,64,0,14,,,,,5,,,59,100
33280,note_off,,,,,64,0,11,,,,,3,,,59,100
33312,note_on,,,,,32,0,11,,,,,3,,,57,85
33312,note_on,,,,,32,0,13,,,,,5,,,69,100
33312,note_on,,,,,32,0,12,,,,,4,,,45,85
33312,note_on,,,,,32,0,14,,,,,5,,,57,100
33312,note_on,,,,,32,0,10,,,,,2,,,69,85
33312,note_on,,,,,32,0,9,,,,,1,,,69,85
33376,note_off,,,,,64,0,12,,,,,4,,,45,100
33376,note_off,,,,,64,0,14,,,,,5,,,57,100
33376,note_off,,,,,64,0,10,,,,,2,,,69,100
33376,note_off,,,,,64,0,13,,,,,5,,,69,100
33376,note_off,,,,,64,0,9,,,,,1,,,69,100
33376,note_off,,,,,64,0,11,,,,,3,,,57,100
33408,note_on,,,,,32,0,13,,,,,5,,,68,100
33408,note_on,,,,,32,0,9,,,,,1,,,68,85
33408,note_on,,,,,32,0,12,,,,,4,,,44,85
33408,note_on,,,,,32,0,11,,,,,3,,,56,85
33408,note_on,,,,,32,0,14,,,,,5,,,56,100
33408,note_on,,,,,32,0,10,,,,,2,,,68,85
33536,note_off,,,,,128,0,14,,,,,5,,,56,100
33536,note_off,,,,,128,0,13,,,,,5,,,68,100
33536,note_off,,,,,128,0,12,,,,,4,,,44,100
33536,note_off,,,,,128,0,10,,,,,2,,,68,100
33536,note_off,,,,,128,0,9,,,,,1,,,68,100
33536,note_off,,,,,128,0,11,,,,,3,,,56,100
33600,note_on,,,,,64,0,14,,,,,5,,,54,100
33600,note_on,,,,,64,0,11,,,,,3,,,54,85
33600,note_on,,,,,64,0,9,,,,,1,,,66,85
33600,note_on,,,,,64,0,13,,,,,5,,,66,100
33600,note_on,,,,,64,0,10,,,,,2,,,66,85
33600,note_on,,,,,64,0,12,,,,,4,,,42,85
33664,note_off,,,,,64,0,11,,,,,3,,,54,100
33664,note_off,,,,,64,0,14,,,,,5,,,54,100
33664,note_off,,,,,64,0,10,,,,,2,,,66,100
33664,note_off,,,,,64,0,9,,,,,1,,,66,100
33664,note_off,,,,,64,0,13,,,,,5,,,66,100
33664,note_off,,,,,64,0,12,,,,,4,,,42,100
33696,note_on,,,,,32,0,10,,,,,2,,,64,85
33696,note_on,,,,,32,0,9,,,,,1,,,64,85
33696,note_on,,,,,32,0,11,,,,,3,,,52,85
33696,note_on,,,,,32,0,14,,,,,5,,,52,100
33696,note_on,,,,,32,0,13,,,,,5,,,64,100
33696,note_on,,,,,32,0,12,,,,,4,,,40,85
33760,note_off,,,,,64,0,9,,,,,1,,,64,100
33760,note_off,,,,,64,0,12,,,,,4,,,40,100
33760,note_off,,,,,64,0,11,,,,,3,,,52,100
33760,note_off,,,,,64,0,14,,,,,5,,,52,100
33760,note_off,,,,,64,0,10,,,,,2,,,64,100
33760,note_off,,,,,64,0,13,,,,,5,,,64,100
33792,note_on,,,,,32,0,12,,,,,4,,,52,85
33792,note_on,,,,,32,0,11,,,,,3,,,64,85
33792,note_on,,,,,32,0,10,,,,,2,,,76,85
33792,note_on,,,,,32,0,14,,,,,5,,,64,100
33792,note_on,,,,,32,0,13,,,,,5,,,76,100
33792,note_on,,,,,32,0,9,,,,,1,,,76,85
33920,note_off,,,,,128,0,11,,,,,3,,,64,100
33920,note_off,,,,,128,0,14,,,,,5,,,64,100
33920,note_off,,,,,128,0,13,,,,,5,,,76,100
33920,note_off,,,,,128,0,10,,,,,2,,,76,100
33920,note_off,,,,,128,0,12,,,,,4,,,52,100
33920,note_off,,,,,128,0,9,,,,,1,,,76,100
33984,note_on,,,,,64,0,9,,,,,1,,,71,85
33984,note_on,,,,,64,0,13,,,,,5,,,71,100
33984,note_on,,,,,64,0,10,,,,,2,,,71,85
33984,note_on,,,,,64,0,11,,,,,3,,,59,85
33984,note_on,,,,,64,0,14,,,,,5,,,59,100
33984,note_on,,,,,64,0,12,,,,,4,,,47,85
34048,note_off,,,,,64,0,10,,,,,2,,,71,100
34048,note_off,,,,,64,0,11,,,,,3,,,59,100
34048,note_off,,,,,64,0,12,,,,,4,,,47,100
34048,note_off,,,,,64,0,14,,,,,5,,,59,100
34048,note_off,,,,,64,0,9,,,,,1,,,71,100
34048,note_off,,,,,64,0,13,,,,,5,,,71,100
34080,note_on,,,,,32,0,13,,,,,5,,,69,100
34080,note_on,,,,,32,0,12,,,,,4,,,45,85
34080,note_on,,,,,32,0,9,,,,,1,,,69,85
34080,note_on,,,,,32,0,11,,,,,3,,,57,85
34080,note_on,,,,,32,0,10,,,,,2,,,69,85
34080,note_on,,,,,32,0,14,,,,,5,,,57,100
34144,note_off,,,,,64,0,9,,,,,1,,,69,100
34144,note_off,,,,,64,0,11,,,,,3,,,57,100
34144,note_off,,,,,64,0,10,,,,,2,,,69,100
34144,note_off,,,,,64,0,12,,,,,4,,,45,100
34144,note_off,,,,,64,0,13,,,,,5,,,69,100
34144,note_off,,,,,64,0,14,,,,,5,,,57,100
34176,note_on,,,,,32,0,9,,,,,1,,,68,85
34176,note_on,,,,,32,0,12,,,,,4,,,44,85
34176,note_on,,,,,32,0,13,,,,,5,,,68,100
34176,note_on,,,,,32,0,11,,,,,3,,,56,85
34176,note_on,,,,,32,0,10,,,,,2,,,68,85
34176,note_on,,,,,32,0,14,,,,,5,,,56,100
34304,note_off,,,,,128,0,14,,,,,5,,,56,100
34304,note_off,,,,,128,0,13,,,,,5,,,68,100
34304,note_off,,,,,128,0,11,,,,,3,,,56,100
34304,note_off,,,,,128,0,10,,,,,2,,,68,100
34304,note_off,,,,,128,0,12,,,,,4,,,44,100
34304,note_off,,,,,128,0,9,,,,,1,,,68,100
34368,note_on,,,,,64,0,14,,,,,5,,,54,100
34368,note_on,,,,,64,0,10,,,,,2,,,66,85
34368,note_on,,,,,64,0,12,,,,,4,,,42,85
34368,note_on,,,,,64,0,9,,,,,1,,,66,85
34368,note_on,,,,,64,0,11,,,,,3,,,54,85
34368,note_on,,,,,64,0,13,,,,,5,,,66,100
34432,note_off,,,,,64,0,10,,,,,2,,,66,100
34432,note_off,,,,,64,0,13,,,,,5,,,66,100
34432,note_off,,,,,64,0,9,,,,,1,,,66,100
34432,note_off,,,,,64,0,11,,,,,3,,,54,100
34432,note_off,,,,,64,0,12,,,,,4,,,42,100
34432,note_off,,,,,64,0,14,,,,,5,,,54,100
34464,note_on,,,,,32,0,10,,,,,2,,,64,85
34464,note_on,,,,,32,0,13,,,,,5,,,64,100
34464,note_on,,,,,32,0,11,,,,,3,,,52,85
34464,note_on,,,,,32,0,14,,,,,5,,,52,100
34464,note_on,,,,,32,0,12,,,,,4,,,40,85
34464,note_on,,,,,32,0,9,,,,,1,,,64,85
34528,note_off,,,,,64,0,11,,,,,3,,,52,100
34528,note_off,,,,,64,0,14,,,,,5,,,52,100
34528,note_off,,,,,64,0,12,,,,,4,,,40,100
34528,note_off,,,,,64,0,10,,,,,2,,,64,100
34528,note_off,,,,,64,0,9,,,,,1,,,64,100
34528,note_off,,,,,64,0,13,,,,,5,,,64,100
34560,note_on,,,,,32,0,12,,,,,4,,,52,85
34560,note_on,,,,,32,0,13,,,,,5,,,76,100
34560,note_on,,,,,32,0,10,,,,,2,,,76,85
34560,note_on,,,,,32,0,9,,,,,1,,,76,85
34560,note_on,,,,,32,0,14,,,,,5,,,64,100
34560,note_on,,,,,32,0,11,,,,,3,,,64,85
34688,note_off,,,,,128,0,14,,,,,5,,,64,100
34688,note_off,,,,,128,0,12,,,,,4,,,52,100
34688,note_off,,,,,128,0,13,,,,,5,,,76,100
34688,note_off,,,,,128,0,10,,,,,2,,,76,100
34688,note_off,,,,,128,0,9,,,,,1,,,76,100
34688,note_off,,,,,128,0,11,,,,,3,,,64,100
34752,note_on,,,,,64,0,9,,,,,1,,,71,85
34752,note_on,,,,,64,0,10,,,,,2,,,71,85
34752,note_on,,,,,64,0,11,,,,,3,,,59,85
34752,note_on,,,,,64,0,12,,,,,4,,,47,85
34752,note_on,,,,,64,0,13,,,,,5,,,71,100
34752,note_on,,,,,64,0,14,,,,,5,,,59,100
34816,note_off,,,,,64,0,9,,,,,1,,,71,100
34816,note_off,,,,,64,0,11,,,,,3,,,59,100
34816,note_off,,,,,64,0,10,,,,,2,,,71,100
34816,note_off,,,,,64,0,14,,,,,5,,,59,100
34816,note_off,,,,,64,0,13,,,,,5,,,71,100
34816,note_off,,,,,64,0,12,,,,,4,,,47,100
34848,note_on,,,,,32,0,14,,,,,5,,,57,100
34848,note_on,,,,,32,0,9,,,,,1,,,69,85
34848,note_on,,,,,32,0,12,,,,,4,,,45,85
34848,note_on,,,,,32,0,11,,,,,3,,,57,85
34848,note_on,,,,,32,0,10,,,,,2,,,69,85
34848,note_on,,,,,32,0,13,,,,,5,,,69,100
34912,note_off,,,,,64,0,12,,,,,4,,,45,100
34912,note_off,,,,,64,0,9,,,,,1,,,69,100
34912,note_off,,,,,64,0,14,,,,,5,,,57,100
34912,note_off,,,,,64,0,11,,,,,3,,,57,100
34912,note_off,,,,,64,0,10,,,,,2,,,69,100
34912,note_off,,,,,64,0,13,,,,,5,,,69,100
34944,note_on,,,,,32,0,13,,,,,5,,,68,100
34944,note_on,,,,,32,0,12,,,,,4,,,44,85
34944,note_on,,,,,32,0,9,,,,,1,,,68,85
34944,note_on,,,,,32,0,10,,,,,2,,,68,85
34944,note_on,,,,,32,0,14,,,,,5,,,56,100
34944,note_on,,,,,32,0,11,,,,,3,,,56,85
35072,note_off,,,,,128,0,9,,,,,1,,,68,100
35072,note_off,,,,,128,0,10,,,,,2,,,68,100
35072,note_off,,,,,128,0,14,,,,,5,,,56,100
35072,note_off,,,,,128,0,11,,,,,3,,,56,100
35072,note_off,,,,,128,0,12,,,,,4,,,44,100
35072,note_off,,,,,128,0,13,,,,,5,,,68,100
35136,note_on,,,,,64,0,14,,,,,5,,,54,100
35136,note_on,,,,,64,0,12,,,,,4,,,42,85
35136,note_on,,,,,64,0,11,,,,,3,,,54,85
35136,note_on,,,,,64,0,10,,,,,2,,,66,85
35136,note_on,,,,,64,0,9,,,,,1,,,66,85
35136,note_on,,,,,64,0,13,,,,,5,,,66,100
35200,note_off,,,,,64,0,14,,,,,5,,,54,100
35200,note_off,,,,,64,0,9,,,,,1,,,66,100
35200,note_off,,,,,64,0,10,,,,,2,,,66,100
35200,note_off,,,,,64,0,13,,,,,5,,,66,100
35200,note_off,,,,,64,0,11,,,,,3,,,54,100
35200,note_off,,,,,64,0,12,,,,,4,,,42,100
35232,note_on,,,,,32,0,12,,,,,4,,,40,85
35232,note_on,,,,,32,0,10,,,,,2,,,64,85
35232,note_on,,,,,32,0,14,,,,,5,,,52,100
35232,note_on,,,,,32,0,13,,,,,5,,,64,100
35232,note_on,,,,,32,0,11,,,,,3,,,52,85
35232,note_on,,,,,32,0,9,,,,,1,,,64,85
35296,note_off,,,,,64,0,13,,,,,5,,,64,100
35296,note_off,,,,,64,0,12,,,,,4,,,40,100
35296,note_off,,,,,64,0,11,,,,,3,,,52,100
35296,note_off,,,,,64,0,9,,,,,1,,,64,100
35296,note_off,,,,,64,0,10,,,,,2,,,64,100
35296,note_off,,,,,64,0,14,,,,,5,,,52,100
35328,note_on,,,,,32,0,10,,,,,2,,,69,85
35328,note_on,,,,,32,0,13,,,,,5,,,69,100
35328,note_on,,,,,32,0,9,,,,,1,,,69,85
35328,note_on,,,,,32,0,11,,,,,3,,,57,85
35328,note_on,,,,,32,0,12,,,,,4,,,45,85
35328,note_on,,,,,32,0,14,,,,,5,,,57,100
35584,note_off,,,,,256,0,13,,,,,5,,,69,100
35584,note_off,,,,,256,0,14,,,,,5,,,57,100
35584,note_off,,,,,256,0,9,,,,,1,,,69,100
35584,note_off,,,,,256,0,12,,,,,4,,,45,100
35584,note_off,,,,,256,0,10,,,,,2,,,69,100
35584,note_off,,,,,256,0,11,,,,,3,,,57,100
35904,note_on,,,,,320,0,14,,,,,5,,,49,100
35904,note_on,,,,,320,0,10,,,,,2,,,61,85
35904,note_on,,,,,320,0,9,,,,,1,,,61,85
35904,note_on,,,,,320,0,13,,,,,5,,,61,100
35904,note_on,,,,,320,0,11,,,,,3,,,49,85
35904,note_on,,,,,320,0,12,,,,,4,,,37,85
35904,note_on,,,,,0,0,13,,,,,5,,,64,100
36032,note_off,,,,,128,0,12,,,,,4,,,37,100
36032,note_off,,,,,128,0,11,,,,,3,,,49,100
36032,note_off,,,,,128,0,9,,,,,1,,,61,100
36032,note_off,,,,,128,0,10,,,,,2,,,61,100
36032,note_off,,,,,128,0,13,,,,,5,,,61,100
36032,note_off,,,,,128,0,14,,,,,5,,,49,100
36032,note_off,,,,,0,0,13,,,,,5,,,64,100
36096,note_on,,,,,64,0,14,,,,,5,,,50,100
36096,note_on,,,,,64,0,12,,,,,4,,,38,85
36096,note_on,,,,,64,0,11,,,,,3,,,50,85
36096,note_on,,,,,0,0,13,,,,,5,,,69,100
36096,note_on,,,,,64,0,9,,,,,1,,,62,85
36096,note_on,,,,,64,0,13,,,,,5,,,59,100
36096,note_on,,,,,64,0,10,,,,,2,,,62,85
36352,note_off,,,,,256,0,13,,,,,5,,,59,100
36352,note_off,,,,,256,0,11,,,,,3,,,50,100
36352,note_off,,,,,0,0,13,,,,,5,,,69,100
36352,note_off,,,,,256,0,10,,,,,2,,,62,100
36352,note_off,,,,,256,0,9,,,,,1,,,62,100
36352,note_off,,,,,256,0,12,,,,,4,,,38,100
36352,note_off,,,,,256,0,14,,,,,5,,,50,100
36480,note_on,,,,,128,0,11,,,,,3,,,52,85
36480,note_on,,,,,128,0,10,,,,,2,,,64,85
36480,note_on,,,,,128,0,9,,,,,1,,,64,85
36480,note_on,,,,,128,0,14,,,,,5,,,52,100
36480,note_on,,,,,0,0,13,,,,,5,,,68,100
36480,note_on,,,,,128,0,13,,,,,5,,,59,100
36480,note_on,,,,,128,0,12,,,,,4,,,40,85
36736,note_off,,,,,0,0,13,,,,,5,,,68,100
36736,note_off,,,,,256,0,13,,,,,5,,,59,100
36736,note_off,,,,,256,0,11,,,,,3,,,52,100
36736,note_off,,,,,256,0,10,,,,,2,,,64,100
36736,note_off,,,,,256,0,9,,,,,1,,,64,100
36736,note_off,,,,,256,0,14,,,,,5,,,52,100
36736,note_off,,,,,256,0,12,,,,,4,,,40,100
36864,note_on,,,,,128,0,12,,,,,4,,,33,85
36864,note_on,,,,,128,0,11,,,,,3,,,45,85
36864,set_tempo,,,,,13440,1,0,,500000,,,,,,,
36864,note_on,,,,,128,0,13,,,,,5,,,69,100
36864,note_on,,,,,128,0,9,,,,,1,,,57,85
36864,note_on,,,,,128,0,10,,,,,2,,,57,85
36864,note_on,,,,,128,0,14,,,,,5,,,45,100
36864,note_on,,,,,0,0,13,,,,,5,,,61,100
36864,note_on,,,,,12800,0,8,,,,,0,,,81,70
36924,set_tempo,,,,,60,1,0,,495867,,,,,,,
36928,note_off,,,,,64,0,8,,,,,0,,,81,100
36960,note_on,,,,,32,0,8,,,,,0,,,76,70
36984,set_tempo,,,,,60,1,0,,491803,,,,,,,
37024,note_off,,,,,64,0,8,,,,,0,,,76,100
37044,set_tempo,,,,,60,1,0,,487804,,,,,,,
37056,note_on,,,,,32,0,8,,,,,0,,,81,70
37104,set_tempo,,,,,60,1,0,,483870,,,,,,,
37120,note_off,,,,,0,0,13,,,,,5,,,61,100
37120,note_off,,,,,64,0,8,,,,,0,,,81,100
37120,note_off,,,,,256,0,11,,,,,3,,,45,100
37120,note_off,,,,,256,0,14,,,,,5,,,45,100
37120,note_off,,,,,256,0,12,,,,,4,,,33,100
37120,note_off,,,,,256,0,10,,,,,2,,,57,100
37120,note_off,,,,,256,0,9,,,,,1,,,57,100
37120,note_off,,,,,256,0,13,,,,,5,,,69,100
37152,note_on,,,,,32,0,8,,,,,0,,,85,70
37164,set_tempo,,,,,60,1,0,,480000,,,,,,,
37216,note_off,,,,,64,0,8,,,,,0,,,85,100
37224,set_tempo,,,,,60,1,0,,476190,,,,,,,
37248,note_on,,,,,32,0,8,,,,,0,,,81,70
37284,set_tempo,,,,,60,1,0,,472440,,,,,,,
37312,note_off,,,,,64,0,8,,,,,0,,,81,100
37344,note_on,,,,,32,0,8,,,,,0,,,76,70
37344,set_tempo,,,,,60,1,0,,468750,,,,,,,
37408,note_off,,,,,64,0,8,,,,,0,,,76,100
37440,note_on,,,,,32,0,8,,,,,0,,,81,70
37504,note_off,,,,,64,0,8,,,,,0,,,81,100
37536,note_on,,,,,32,0,8,,,,,0,,,85,70
37600,note_off,,,,,64,0,8,,,,,0,,,85,100
37632,note_on,,,,,32,0,8,,,,,0,,,81,70
37696,note_off,,,,,64,0,8,,,,,0,,,81,100
37728,note_on,,,,,32,0,8,,,,,0,,,76,70
37792,note_off,,,,,64,0,8,,,,,0,,,76,100
37824,note_on,,,,,32,0,8,,,,,0,,,81,70
37888,note_off,,,,,64,0,8,,,,,0,,,81,100
37920,note_on,,,,,32,0,8,,,,,0,,,85,70
37984,note_off,,,,,64,0,8,,,,,0,,,85,100
38016,note_on,,,,,32,0,8,,,,,0,,,81,70
38080,note_off,,,,,64,0,8,,,,,0,,,81,100
38112,note_on,,,,,32,0,8,,,,,0,,,76,70
38176,note_off,,,,,64,0,8,,,,,0,,,76,100
38208,note_on,,,,,32,0,8,,,,,0,,,81,70
38272,note_off,,,,,64,0,8,,,,,0,,,81,100
38304,note_on,,,,,32,0,8,,,,,0,,,85,70
38368,note_off,,,,,64,0,8,,,,,0,,,85,100
38400,note_on,,,,,32,0,8,,,,,0,,,83,70
38464,note_off,,,,,64,0,8,,,,,0,,,83,100
38496,note_on,,,,,32,0,8,,,,,0,,,76,70
38560,note_off,,,,,64,0,8,,,,,0,,,76,100
38592,note_on,,,,,32,0,8,,,,,0,,,83,70
38656,note_off,,,,,64,0,8,,,,,0,,,83,100
38688,note_on,,,,,32,0,8,,,,,0,,,86,70
38752,note_off,,,,,64,0,8,,,,,0,,,86,100
38784,note_on,,,,,32,0,8,,,,,0,,,83,70
38848,note_off,,,,,64,0,8,,,,,0,,,83,100
38880,note_on,,,,,32,0,8,,,,,0,,,76,70
38944,note_off,,,,,64,0,8,,,,,0,,,76,100
38976,note_on,,,,,32,0,8,,,,,0,,,83,70
39040,note_off,,,,,64,0,8,,,,,0,,,83,100
39072,note_on,,,,,32,0,8,,,,,0,,,86,70
39136,note_off,,,,,64,0,8,,,,,0,,,86,100
39168,note_on,,,,,32,0,8,,,,,0,,,83,70
39232,note_off,,,,,64,0,8,,,,,0,,,83,100
39264,note_on,,,,,32,0,8,,,,,0,,,76,70
39328,note_off,,,,,64,0,8,,,,,0,,,76,100
39360,note_on,,,,,32,0,8,,,,,0,,,83,70
39424,note_off,,,,,64,0,8,,,,,0,,,83,100
39456,note_on,,,,,32,0,8,,,,,0,,,86,70
39520,note_off,,,,,64,0,8,,,,,0,,,86,100
39552,note_on,,,,,32,0,8,,,,,0,,,83,70
39616,note_off,,,,,64,0,8,,,,,0,,,83,100
39648,note_on,,,,,32,0,8,,,,,0,,,76,70
39712,note_off,,,,,64,0,8,,,,,0,,,76,100
39744,note_on,,,,,32,0,8,,,,,0,,,83,70
39808,note_off,,,,,64,0,8,,,,,0,,,83,100
39840,note_on,,,,,32,0,8,,,,,0,,,86,70
39904,note_off,,,,,64,0,8,,,,,0,,,86,100
39936,note_on,,,,,32,0,8,,,,,0,,,81,70
39936,note_on,,,,,0,0,8,,,,,0,,,85,70
40000,note_off,,,,,0,0,8,,,,,0,,,85,100
40000,note_off,,,,,64,0,8,,,,,0,,,81,100
40032,note_on,,,,,32,0,8,,,,,0,,,76,70
40096,note_off,,,,,64,0,8,,,,,0,,,76,100
40128,note_on,,,,,32,0,8,,,,,0,,,81,70
40128,note_on,,,,,0,0,8,,,,,0,,,85,70
40192,note_off,,,,,64,0,8,,,,,0,,,81,100
40192,note_off,,,,,0,0,8,,,,,0,,,85,100
40224,note_on,,,,,0,0,8,,,,,0,,,88,70
40224,note_on,,,,,32,0,8,,,,,0,,,85,70
40288,note_off,,,,,0,0,8,,,,,0,,,88,100
40288,note_off,,,,,64,0,8,,,,,0,,,85,100
40320,note_on,,,,,0,0,8,,,,,0,,,85,70
40320,note_on,,,,,32,0,8,,,,,0,,,81,70
40384,note_off,,,,,64,0,8,,,,,0,,,81,100
40384,note_off,,,,,0,0,8,,,,,0,,,85,100
40416,note_on,,,,,32,0,8,,,,,0,,,76,70
40480,note_off,,,,,64,0,8,,,,,0,,,76,100
40512,note_on,,,,,32,0,8,,,,,0,,,81,70
40512,note_on,,,,,0,0,8,,,,,0,,,85,70
40576,note_off,,,,,64,0,8,,,,,0,,,81,100
40576,note_off,,,,,0,0,8,,,,,0,,,85,100
40608,note_on,,,,,32,0,8,,,,,0,,,85,70
40608,note_on,,,,,0,0,8,,,,,0,,,88,70
40672,note_off,,,,,64,0,8,,,,,0,,,85,100
40672,note_off,,,,,0,0,8,,,,,0,,,88,100
40704,note_on,,,,,32,0,8,,,,,0,,,81,70
40704,note_on,,,,,0,0,8,,,,,0,,,85,70
40768,note_off,,,,,64,0,8,,,,,0,,,81,100
40768,note_off,,,,,0,0,8,,,,,0,,,85,100
40800,note_on,,,,,32,0,8,,,,,0,,,76,70
40864,note_off,,,,,64,0,8,,,,,0,,,76,100
40896,note_on,,,,,0,0,8,,,,,0,,,85,70
40896,note_on,,,,,32,0,8,,,,,0,,,81,70
40960,note_off,,,,,64,0,8,,,,,0,,,81,100
40960,note_off,,,,,0,0,8,,,,,0,,,85,100
40992,note_on,,,,,32,0,8,,,,,0,,,85,70
40992,note_on,,,,,0,0,8,,,,,0,,,88,70
41056,note_off,,,,,64,0,8,,,,,0,,,85,100
41056,note_off,,,,,0,0,8,,,,,0,,,88,100
41088,note_on,,,,,32,0,8,,,,,0,,,81,70
41088,note_on,,,,,0,0,8,,,,,0,,,85,70
41152,note_off,,,,,64,0,8,,,,,0,,,81,100
41152,note_off,,,,,0,0,8,,,,,0,,,85,100
41184,note_on,,,,,32,0,8,,,,,0,,,76,70
41248,note_off,,,,,64,0,8,,,,,0,,,76,100
41280,note_on,,,,,32,0,8,,,,,0,,,81,70
41280,note_on,,,,,0,0,8,,,,,0,,,85,70
41344,note_off,,,,,64,0,8,,,,,0,,,81,100
41344,note_off,,,,,0,0,8,,,,,0,,,85,100
41376,note_on,,,,,32,0,8,,,,,0,,,85,70
41376,note_on,,,,,0,0,8,,,,,0,,,88,70
41440,note_off,,,,,64,0,8,,,,,0,,,85,100
41440,note_off,,,,,0,0,8,,,,,0,,,88,100
41472,note_on,,,,,32,0,8,,,,,0,,,83,70
41472,note_on,,,,,0,0,8,,,,,0,,,86,70
41536,note_off,,,,,64,0,8,,,,,0,,,83,100
41536,note_off,,,,,0,0,8,,,,,0,,,86,100
41568,note_on,,,,,32,0,8,,,,,0,,,76,70
41632,note_off,,,,,64,0,8,,,,,0,,,76,100
41664,note_on,,,,,0,0,8,,,,,0,,,86,70
41664,note_on,,,,,32,0,8,,,,,0,,,83,70
41728,note_off,,,,,0,0,8,,,,,0,,,86,100
41728,note_off,,,,,64,0,8,,,,,0,,,83,100
41760,note_on,,,,,0,0,8,,,,,0,,,90,70
41760,note_on,,,,,32,0,8,,,,,0,,,86,70
41824,note_off,,,,,64,0,8,,,,,0,,,86,100
41824,note_off,,,,,0,0,8,,,,,0,,,90,100
41856,note_on,,,,,32,0,8,,,,,0,,,83,70
41856,note_on,,,,,0,0,8,,,,,0,,,86,70
41920,note_off,,,,,0,0,8,,,,,0,,,86,100
41920,note_off,,,,,64,0,8,,,,,0,,,83,100
41952,note_on,,,,,32,0,8,,,,,0,,,76,70
42016,note_off,,,,,64,0,8,,,,,0,,,76,100
42048,note_on,,,,,32,0,8,,,,,0,,,83,70
42048,note_on,,,,,0,0,8,,,,,0,,,86,70
42112,note_off,,,,,64,0,8,,,,,0,,,83,100
42112,note_off,,,,,0,0,8,,,,,0,,,86,100
42144,note_on,,,,,0,0,8,,,,,0,,,90,70
42144,note_on,,,,,32,0,8,,,,,0,,,86,70
42208,note_off,,,,,0,0,8,,,,,0,,,90,100
42208,note_off,,,,,64,0,8,,,,,0,,,86,100
42240,note_on,,,,,32,0,8,,,,,0,,,83,70
42240,note_on,,,,,0,0,8,,,,,0,,,86,70
42304,note_off,,,,,64,0,8,,,,,0,,,83,100
42304,note_off,,,,,0,0,8,,,,,0,,,86,100
42336,note_on,,,,,32,0,8,,,,,0,,,76,70
42400,note_off,,,,,64,0,8,,,,,0,,,76,100
42432,note_on,,,,,32,0,8,,,,,0,,,83,70
42432,note_on,,,,,0,0,8,,,,,0,,,86,70
42496,note_off,,,,,0,0,8,,,,,0,,,86,100
42496,note_off,,,,,64,0,8,,,,,0,,,83,100
42528,note_on,,,,,32,0,8,,,,,0,,,86,70
42528,note_on,,,,,0,0,8,,,,,0,,,90,70
42592,note_off,,,,,64,0,8,,,,,0,,,86,100
42592,note_off,,,,,0,0,8,,,,,0,,,90,100
42624,note_on,,,,,32,0,8,,,,,0,,,83,70
42624,note_on,,,,,0,0,8,,,,,0,,,86,70
42688,note_off,,,,,64,0,8,,,,,0,,,83,100
42688,note_off,,,,,0,0,8,,,,,0,,,86,100
42720,note_on,,,,,32,0,8,,,,,0,,,76,70
42784,note_off,,,,,64,0,8,,,,,0,,,76,100
42816,note_on,,,,,32,0,8,,,,,0,,,83,70
42816,note_on,,,,,0,0,8,,,,,0,,,86,70
42880,note_off,,,,,64,0,8,,,,,0,,,83,100
42880,note_off,,,,,0,0,8,,,,,0,,,86,100
42912,note_on,,,,,32,0,8,,,,,0,,,86,70
42912,note_on,,,,,0,0,8,,,,,0,,,90,70
42976,note_off,,,,,64,0,8,,,,,0,,,86,100
42976,note_off,,,,,0,0,8,,,,,0,,,90,100
43008,note_on,,,,,32,0,8,,,,,0,,,85,70
43008,note_on,,,,,0,0,8,,,,,0,,,88,70
43100,note_off,,,,,92,0,8,,,,,0,,,85,100
43100,note_off,,,,,0,0,8,,,,,0,,,88,100
43104,note_on,,,,,4,0,8,,,,,0,,,83,70
43104,note_on,,,,,0,0,8,,,,,0,,,86,70
43196,note_off,,,,,0,0,8,,,,,0,,,86,100
43196,note_off,,,,,92,0,8,,,,,0,,,83,100
43200,note_on,,,,,0,0,8,,,,,0,,,88,70
43200,note_on,,,,,4,0,8,,,,,0,,,85,70
43264,note_off,,,,,0,0,8,,,,,0,,,88,100
43264,note_off,,,,,64,0,8,,,,,0,,,85,100
43296,note_on,,,,,0,0,8,,,,,0,,,90,70
43296,note_on,,,,,32,0,8,,,,,0,,,86,70
43360,note_off,,,,,64,0,8,,,,,0,,,86,100
43360,note_off,,,,,0,0,8,,,,,0,,,90,100
43392,note_on,,,,,32,0,8,,,,,0,,,85,70
43392,note_on,,,,,0,0,8,,,,,0,,,88,70
43484,note_off,,,,,92,0,8,,,,,0,,,85,100
43484,note_off,,,,,0,0,8,,,,,0,,,88,100
43488,note_on,,,,,4,0,8,,,,,0,,,83,70
43488,note_on,,,,,0,0,8,,,,,0,,,86,70
43580,note_off,,,,,0,0,8,,,,,0,,,86,100
43580,note_off,,,,,92,0,8,,,,,0,,,83,100
43584,note_on,,,,,4,0,8,,,,,0,,,85,70
43584,note_on,,,,,0,0,8,,,,,0,,,88,70
43648,note_off,,,,,64,0,8,,,,,0,,,85,100
43648,note_off,,,,,0,0,8,,,,,0,,,88,100
43680,note_on,,,,,32,0,8,,,,,0,,,86,70
43680,note_on,,,,,0,0,8,,,,,0,,,90,70
43744,note_off,,,,,64,0,8,,,,,0,,,86,100
43744,note_off,,,,,0,0,8,,,,,0,,,90,100
43776,note_on,,,,,32,0,8,,,,,0,,,85,70
43776,note_on,,,,,0,0,8,,,,,0,,,88,70
43868,note_off,,,,,92,0,8,,,,,0,,,85,100
43868,note_off,,,,,0,0,8,,,,,0,,,88,100
43872,note_on,,,,,4,0,8,,,,,0,,,83,70
43872,note_on,,,,,0,0,8,,,,,0,,,86,70
43964,note_off,,,,,92,0,8,,,,,0,,,83,100
43964,note_off,,,,,0,0,8,,,,,0,,,86,100
43968,note_on,,,,,4,0,8,,,,,0,,,85,70
43968,note_on,,,,,0,0,8,,,,,0,,,88,70
44032,note_off,,,,,64,0,8,,,,,0,,,85,100
44032,note_off,,,,,0,0,8,,,,,0,,,88,100
44064,note_on,,,,,32,0,8,,,,,0,,,86,70
44064,note_on,,,,,0,0,8,,,,,0,,,90,70
44128,note_off,,,,,0,0,8,,,,,0,,,90,100
44128,note_off,,,,,64,0,8,,,,,0,,,86,100
44160,note_on,,,,,32,0,8,,,,,0,,,85,70
44160,note_on,,,,,0,0,8,,,,,0,,,88,70
44252,note_off,,,,,92,0,8,,,,,0,,,85,100
44252,note_off,,,,,0,0,8,,,,,0,,,88,100
44256,note_on,,,,,4,0,8,,,,,0,,,83,70
44256,note_on,,,,,0,0,8,,,,,0,,,86,70
44348,note_off,,,,,92,0,8,,,,,0,,,83,100
44348,note_off,,,,,0,0,8,,,,,0,,,86,100
44352,note_on,,,,,0,0,8,,,,,0,,,88,70
44352,note_on,,,,,4,0,8,,,,,0,,,85,70
44416,note_off,,,,,64,0,8,,,,,0,,,85,100
44416,note_off,,,,,0,0,8,,,,,0,,,88,100
44448,note_on,,,,,32,0,8,,,,,0,,,86,70
44448,note_on,,,,,0,0,8,,,,,0,,,90,70
44512,note_off,,,,,64,0,8,,,,,0,,,86,100
44512,note_off,,,,,0,0,8,,,,,0,,,90,100
44544,note_on,,,,,0,0,8,,,,,0,,,86,70
44544,note_on,,,,,32,0,8,,,,,0,,,83,70
44636,note_off,,,,,0,0,8,,,,,0,,,86,100
44636,note_off,,,,,92,0,8,,,,,0,,,83,100
44640,note_on,,,,,0,0,8,,,,,0,,,85,70
44640,note_on,,,,,4,0,8,,,,,0,,,81,70
44732,note_off,,,,,92,0,8,,,,,0,,,81,100
44732,note_off,,,,,0,0,8,,,,,0,,,85,100
44736,note_on,,,,,4,0,8,,,,,0,,,83,70
44736,note_on,,,,,0,0,8,,,,,0,,,86,70
44800,note_off,,,,,64,0,8,,,,,0,,,83,100
44800,note_off,,,,,0,0,8,,,,,0,,,86,100
44832,note_on,,,,,0,0,8,,,,,0,,,88,70
44832,note_on,,,,,32,0,8,,,,,0,,,85,70
44896,note_off,,,,,64,0,8,,,,,0,,,85,100
44896,note_off,,,,,0,0,8,,,,,0,,,88,100
44928,note_on,,,,,32,0,8,,,,,0,,,83,70
44928,note_on,,,,,0,0,8,,,,,0,,,86,70
45020,note_off,,,,,92,0,8,,,,,0,,,83,100
45020,note_off,,,,,0,0,8,,,,,0,,,86,100
45024,note_on,,,,,0,0,8,,,,,0,,,85,70
45024,note_on,,,,,4,0,8,,,,,0,,,81,70
45116,note_off,,,,,0,0,8,,,,,0,,,85,100
45116,note_off,,,,,92,0,8,,,,,0,,,81,100
45120,note_on,,,,,0,0,8,,,,,0,,,86,70
45120,note_on,,,,,4,0,8,,,,,0,,,83,70
45184,note_off,,,,,64,0,8,,,,,0,,,83,100
45184,note_off,,,,,0,0,8,,,,,0,,,86,100
45216,note_on,,,,,32,0,8,,,,,0,,,85,70
45216,note_on,,,,,0,0,8,,,,,0,,,88,70
45280,note_off,,,,,64,0,8,,,,,0,,,85,100
45280,note_off,,,,,0,0,8,,,,,0,,,88,100
45312,note_on,,,,,0,0,8,,,,,0,,,86,70
45312,note_on,,,,,32,0,8,,,,,0,,,83,70
45404,note_off,,,,,92,0,8,,,,,0,,,83,100
45404,note_off,,,,,0,0,8,,,,,0,,,86,100
45408,note_on,,,,,4,0,8,,,,,0,,,81,70
45408,note_on,,,,,0,0,8,,,,,0,,,85,70
45500,note_off,,,,,92,0,8,,,,,0,,,81,100
45500,note_off,,,,,0,0,8,,,,,0,,,85,100
45504,note_on,,,,,0,0,8,,,,,0,,,86,70
45504,note_on,,,,,4,0,8,,,,,0,,,83,70
45568,note_off,,,,,0,0,8,,,,,0,,,86,100
45568,note_off,,,,,64,0,8,,,,,0,,,83,100
45600,note_on,,,,,32,0,8,,,,,0,,,85,70
45600,note_on,,,,,0,0,8,,,,,0,,,88,70
45664,note_off,,,,,0,0,8,,,,,0,,,88,100
45664,note_off,,,,,64,0,8,,,,,0,,,85,100
45696,note_on,,,,,0,0,8,,,,,0,,,86,70
45696,note_on,,,,,32,0,8,,,,,0,,,83,70
45788,note_off,,,,,92,0,8,,,,,0,,,83,100
45788,note_off,,,,,0,0,8,,,,,0,,,86,100
45792,note_on,,,,,4,0,8,,,,,0,,,81,70
45792,note_on,,,,,0,0,8,,,,,0,,,85,70
45884,note_off,,,,,92,0,8,,,,,0,,,81,100
45884,note_off,,,,,0,0,8,,,,,0,,,85,100
45888,note_on,,,,,4,0,8,,,,,0,,,83,70
45888,note_on,,,,,0,0,8,,,,,0,,,86,70
45952,note_off,,,,,0,0,8,,,,,0,,,86,100
45952,note_off,,,,,64,0,8,,,,,0,,,83,100
45984,note_on,,,,,32,0,8,,,,,0,,,85,70
45984,note_on,,,,,0,0,8,,,,,0,,,88,70
46048,note_off,,,,,64,0,8,,,,,0,,,85,100
46048,note_off,,,,,0,0,8,,,,,0,,,88,100
46080,note_on,,,,,32,0,8,,,,,0,,,83,70
46080,note_on,,,,,0,0,8,,,,,0,,,86,70
46172,note_off,,,,,92,0,8,,,,,0,,,83,100
46172,note_off,,,,,0,0,8,,,,,0,,,86,100
46176,note_on,,,,,4,0,8,,,,,0,,,85,70
46176,note_on,,,,,0,0,8,,,,,0,,,81,70
46220,note_off,,,,,0,0,8,,,,,0,,,81,100
46220,note_off,,,,,44,0,8,,,,,0,,,85,100
46224,note_on,,,,,4,0,8,,,,,0,,,86,70
46224,note_on,,,,,0,0,8,,,,,0,,,83,70
46268,note_off,,,,,44,0,8,,,,,0,,,86,100
46268,note_off,,,,,0,0,8,,,,,0,,,83,100
46272,note_on,,,,,4,0,8,,,,,0,,,85,70
46272,note_on,,,,,0,0,8,,,,,0,,,81,70
46316,note_off,,,,,44,0,8,,,,,0,,,85,100
46316,note_off,,,,,0,0,8,,,,,0,,,81,100
46320,note_on,,,,,4,0,8,,,,,0,,,86,70
46320,note_on,,,,,0,0,8,,,,,0,,,83,70
46364,note_off,,,,,44,0,8,,,,,0,,,86,100
46364,note_off,,,,,0,0,8,,,,,0,,,83,100
46368,note_on,,,,,4,0,8,,,,,0,,,85,70
46368,note_on,,,,,0,0,8,,,,,0,,,81,70
46368,set_tempo,,,,,9024,1,0,,468750,,,,,,,
46372,set_tempo,,,,,4,1,0,,472440,,,,,,,
46376,set_tempo,,,,,4,1,0,,476190,,,,,,,
46380,set_tempo,,,,,4,1,0,,480000,,,,,,,
46384,set_tempo,,,,,4,1,0,,483870,,,,,,,
46388,set_tempo,,,,,4,1,0,,487804,,,,,,,
46392,set_tempo,,,,,4,1,0,,491803,,,,,,,
46396,set_tempo,,,,,4,1,0,,495867,,,,,,,
46400,set_tempo,,,,,4,1,0,,500000,,,,,,,
46404,set_tempo,,,,,4,1,0,,504201,,,,,,,
46408,set_tempo,,,,,4,1,0,,508474,,,,,,,
46412,note_off,,,,,44,0,8,,,,,0,,,85,100
46412,set_tempo,,,,,4,1,0,,512820,,,,,,,
46412,note_off,,,,,0,0,8,,,,,0,,,81,100
46416,set_tempo,,,,,4,1,0,,517241,,,,,,,
46416,note_on,,,,,0,0,8,,,,,0,,,83,70
46416,note_on,,,,,4,0,8,,,,,0,,,86,70
46420,set_tempo,,,,,4,1,0,,521739,,,,,,,
46424,set_tempo,,,,,4,1,0,,526315,,,,,,,
46428,set_tempo,,,,,4,1,0,,530973,,,,,,,
46432,set_tempo,,,,,4,1,0,,535714,,,,,,,
46436,set_tempo,,,,,4,1,0,,540540,,,,,,,
46440,set_tempo,,,,,4,1,0,,545454,,,,,,,
46444,set_tempo,,,,,4,1,0,,550458,,,,,,,
46448,set_tempo,,,,,4,1,0,,555555,,,,,,,
46452,set_tempo,,,,,4,1,0,,560747,,,,,,,
46456,set_tempo,,,,,4,1,0,,566037,,,,,,,
46460,set_tempo,,,,,4,1,0,,571428,,,,,,,
46460,note_off,,,,,44,0,8,,,,,0,,,86,100
46460,note_off,,,,,0,0,8,,,,,0,,,83,100
46464,note_on,,,,,4,0,8,,,,,0,,,81,70
46464,note_on,,,,,0,0,8,,,,,0,,,85,70
46464,set_tempo,,,,,4,1,0,,576923,,,,,,,
46468,set_tempo,,,,,4,1,0,,582524,,,,,,,
46472,set_tempo,,,,,4,1,0,,588235,,,,,,,
46476,set_tempo,,,,,4,1,0,,594059,,,,,,,
46480,set_tempo,,,,,4,1,0,,600000,,,,,,,
46484,set_tempo,,,,,4,1,0,,606060,,,,,,,
46488,set_tempo,,,,,4,1,0,,612244,,,,,,,
46492,set_tempo,,,,,4,1,0,,618556,,,,,,,
46496,set_tempo,,,,,4,1,0,,625000,,,,,,,
46500,set_tempo,,,,,4,1,0,,631578,,,,,,,
46504,set_tempo,,,,,4,1,0,,638297,,,,,,,
46508,set_tempo,,,,,4,1,0,,645161,,,,,,,
46512,set_tempo,,,,,4,1,0,,652173,,,,,,,
46516,set_tempo,,,,,4,1,0,,659340,,,,,,,
46520,set_tempo,,,,,4,1,0,,666666,,,,,,,
46524,set_tempo,,,,,4,1,0,,674157,,,,,,,
46528,set_tempo,,,,,4,1,0,,681818,,,,,,,
46532,set_tempo,,,,,4,1,0,,689655,,,,,,,
46536,set_tempo,,,,,4,1,0,,697674,,,,,,,
46540,set_tempo,,,,,4,1,0,,705882,,,,,,,
46544,set_tempo,,,,,4,1,0,,714285,,,,,,,
46548,set_tempo,,,,,4,1,0,,722891,,,,,,,
46552,set_tempo,,,,,4,1,0,,731707,,,,,,,
46556,set_tempo,,,,,4,1,0,,740740,,,,,,,
46560,set_tempo,,,,,4,1,0,,750000,,,,,,,
46720,note_off,,,,,256,0,8,,,,,0,,,81,100
46720,note_off,,,,,0,0,8,,,,,0,,,85,100
46848,note_on,,,,,128,0,8,,,,,0,,,76,85
46848,set_tempo,,,,,288,1,0,,500000,,,,,,,
46848,note_on,,,,,9728,0,9,,,,,1,,,76,50
46848,note_on,,,,,0,0,9,,,,,1,,,81,50
46848,note_on,,,,,9728,0,10,,,,,2,,,73,50
46912,note_off,,,,,64,0,8,,,,,0,,,76,100
46944,note_on,,,,,32,0,8,,,,,0,,,81,85
46976,note_off,,,,,128,0,9,,,,,1,,,76,100
46976,note_off,,,,,128,0,10,,,,,2,,,73,100
46976,note_off,,,,,0,0,9,,,,,1,,,81,100
47008,note_off,,,,,64,0,8,,,,,0,,,81,100
47040,set_tempo,,,,,192,1,0,,495867,,,,,,,
47040,note_on,,,,,0,0,9,,,,,1,,,81,50
47040,note_on,,,,,64,0,9,,,,,1,,,76,50
47040,note_on,,,,,32,0,8,,,,,0,,,80,85
47040,note_on,,,,,64,0,10,,,,,2,,,73,50
47104,note_off,,,,,64,0,8,,,,,0,,,80,100
47136,note_on,,,,,32,0,8,,,,,0,,,81,85
47168,note_off,,,,,128,0,10,,,,,2,,,73,100
47168,note_off,,,,,0,0,9,,,,,1,,,81,100
47168,note_off,,,,,128,0,9,,,,,1,,,76,100
47200,note_off,,,,,64,0,8,,,,,0,,,81,100
47232,note_on,,,,,32,0,8,,,,,0,,,76,85
47232,note_on,,,,,64,0,9,,,,,1,,,76,50
47232,note_on,,,,,0,0,9,,,,,1,,,81,50
47232,note_on,,,,,64,0,10,,,,,2,,,73,50
47232,set_tempo,,,,,192,1,0,,491803,,,,,,,
47296,note_off,,,,,64,0,8,,,,,0,,,76,100
47328,note_on,,,,,32,0,8,,,,,0,,,81,86
47360,note_off,,,,,128,0,10,,,,,2,,,73,100
47360,note_off,,,,,128,0,9,,,,,1,,,76,100
47360,note_off,,,,,0,0,9,,,,,1,,,81,100
47392,note_off,,,,,64,0,8,,,,,0,,,81,100
47424,note_on,,,,,64,0,10,,,,,2,,,73,50
47424,note_on,,,,,0,0,9,,,,,1,,,81,50
47424,note_on,,,,,64,0,9,,,,,1,,,76,50
47424,set_tempo,,,,,192,1,0,,487804,,,,,,,
47424,note_on,,,,,32,0,8,,,,,0,,,80,86
47488,note_off,,,,,64,0,8,,,,,0,,,80,100
47520,note_on,,,,,32,0,8,,,,,0,,,81,86
47552,note_off,,,,,0,0,9,,,,,1,,,81,100
47552,note_off,,,,,128,0,10,,,,,2,,,73,100
47552,note_off,,,,,128,0,9,,,,,1,,,76,100
47584,note_off,,,,,64,0,8,,,,,0,,,81,100
47616,note_on,,,,,32,0,8,,,,,0,,,78,86
47616,note_on,,,,,64,0,10,,,,,2,,,74,51
47616,note_on,,,,,64,0,9,,,,,1,,,81,51
47616,set_tempo,,,,,192,1,0,,483870,,,,,,,
47616,note_on,,,,,0,0,9,,,,,1,,,78,51
47680,note_off,,,,,64,0,8,,,,,0,,,78,100
47712,note_on,,,,,32,0,8,,,,,0,,,76,86
47744,note_off,,,,,128,0,10,,,,,2,,,74,100
47744,note_off,,,,,0,0,9,,,,,1,,,78,100
47744,note_off,,,,,128,0,9,,,,,1,,,81,100
47776,note_off,,,,,64,0,8,,,,,0,,,76,100
47808,set_tempo,,,,,192,1,0,,480000,,,,,,,
47808,note_on,,,,,64,0,10,,,,,2,,,74,51
47808,note_on,,,,,32,0,8,,,,,0,,,78,87
47808,note_on,,,,,64,0,9,,,,,1,,,81,51
47808,note_on,,,,,0,0,9,,,,,1,,,78,51
47872,note_off,,,,,64,0,8,,,,,0,,,78,100
47904,note_on,,,,,32,0,8,,,,,0,,,80,87
47936,note_off,,,,,128,0,10,,,,,2,,,74,100
47936,note_off,,,,,128,0,9,,,,,1,,,81,100
47936,note_off,,,,,0,0,9,,,,,1,,,78,100
47968,note_off,,,,,64,0,8,,,,,0,,,80,100
48000,note_on,,,,,0,0,9,,,,,1,,,78,51
48000,note_on,,,,,32,0,8,,,,,0,,,78,87
48000,note_on,,,,,64,0,10,,,,,2,,,74,51
48000,set_tempo,,,,,192,1,0,,476190,,,,,,,
48000,note_on,,,,,64,0,9,,,,,1,,,81,51
48064,note_off,,,,,64,0,8,,,,,0,,,78,100
48096,note_on,,,,,32,0,8,,,,,0,,,80,87
48128,note_off,,,,,128,0,10,,,,,2,,,74,100
48128,note_off,,,,,128,0,9,,,,,1,,,81,100
48128,note_off,,,,,0,0,9,,,,,1,,,78,100
48160,note_off,,,,,64,0,8,,,,,0,,,80,100
48192,note_on,,,,,64,0,9,,,,,1,,,81,51
48192,set_tempo,,,,,192,1,0,,472440,,,,,,,
48192,note_on,,,,,0,0,9,,,,,1,,,78,51
48192,note_on,,,,,64,0,10,,,,,2,,,74,51
48192,note_on,,,,,32,0,8,,,,,0,,,81,87
48256,note_off,,,,,64,0,8,,,,,0,,,81,100
48288,note_on,,,,,32,0,8,,,,,0,,,80,88
48320,note_off,,,,,128,0,9,,,,,1,,,81,100
48320,note_off,,,,,128,0,10,,,,,2,,,74,100
48320,note_off,,,,,0,0,9,,,,,1,,,78,100
48352,note_off,,,,,64,0,8,,,,,0,,,80,100
48384,note_on,,,,,0,0,9,,,,,1,,,78,52
48384,note_on,,,,,64,0,9,,,,,1,,,83,52
48384,note_on,,,,,64,0,10,,,,,2,,,75,52
48384,set_tempo,,,,,192,1,0,,468750,,,,,,,
48384,note_on,,,,,32,0,8,,,,,0,,,78,88
48448,note_off,,,,,64,0,8,,,,,0,,,78,100
48480,note_on,,,,,32,0,8,,,,,0,,,83,88
48512,note_off,,,,,128,0,10,,,,,2,,,75,100
48512,note_off,,,,,0,0,9,,,,,1,,,78,100
48512,note_off,,,,,128,0,9,,,,,1,,,83,100
48544,note_off,,,,,64,0,8,,,,,0,,,83,100
48576,note_on,,,,,64,0,10,,,,,2,,,75,52
48576,note_on,,,,,32,0,8,,,,,0,,,81,88
48576,note_on,,,,,0,0,9,,,,,1,,,78,52
48576,note_on,,,,,64,0,9,,,,,1,,,83,52
48640,note_off,,,,,64,0,8,,,,,0,,,81,100
48672,note_on,,,,,32,0,8,,,,,0,,,83,88
48704,note_off,,,,,128,0,9,,,,,1,,,83,100
48704,note_off,,,,,0,0,9,,,,,1,,,78,100
48704,note_off,,,,,128,0,10,,,,,2,,,75,100
48736,note_off,,,,,64,0,8,,,,,0,,,83,100
48768,note_on,,,,,64,0,9,,,,,1,,,83,52
48768,note_on,,,,,0,0,9,,,,,1,,,78,52
48768,note_on,,,,,64,0,10,,,,,2,,,75,52
48768,note_on,,,,,32,0,8,,,,,0,,,78,89
48832,note_off,,,,,64,0,8,,,,,0,,,78,100
48864,note_on,,,,,32,0,8,,,,,0,,,83,89
48896,note_off,,,,,128,0,10,,,,,2,,,75,100
48896,note_off,,,,,0,0,9,,,,,1,,,78,100
48896,note_off,,,,,128,0,9,,,,,1,,,83,100
48928,note_off,,,,,64,0,8,,,,,0,,,83,100
48960,note_on,,,,,0,0,9,,,,,1,,,78,53
48960,note_on,,,,,64,0,9,,,,,1,,,83,53
48960,note_on,,,,,32,0,8,,,,,0,,,81,89
48960,note_on,,,,,64,0,10,,,,,2,,,75,53
49024,note_off,,,,,64,0,8,,,,,0,,,81,100
49056,note_on,,,,,32,0,8,,,,,0,,,83,89
49088,note_off,,,,,0,0,9,,,,,1,,,78,100
49088,note_off,,,,,128,0,10,,,,,2,,,75,100
49088,note_off,,,,,128,0,9,,,,,1,,,83,100
49120,note_off,,,,,64,0,8,,,,,0,,,83,100
49152,note_on,,,,,32,0,8,,,,,0,,,80,89
49152,note_on,,,,,64,0,10,,,,,2,,,76,53
49152,note_on,,,,,0,0,9,,,,,1,,,80,53
49152,note_on,,,,,64,0,9,,,,,1,,,83,53
49216,note_off,,,,,64,0,8,,,,,0,,,80,100
49248,note_on,,,,,32,0,8,,,,,0,,,78,90
49280,note_off,,,,,128,0,10,,,,,2,,,76,100
49280,note_off,,,,,128,0,9,,,,,1,,,83,100
49280,note_off,,,,,0,0,9,,,,,1,,,80,100
49312,note_off,,,,,64,0,8,,,,,0,,,78,100
49344,note_on,,,,,64,0,9,,,,,1,,,83,53
49344,note_on,,,,,0,0,9,,,,,1,,,80,53
49344,note_on,,,,,32,0,8,,,,,0,,,80,90
49344,note_on,,,,,64,0,10,,,,,2,,,64,53
49408,note_off,,,,,64,0,8,,,,,0,,,80,100
49440,note_on,,,,,32,0,8,,,,,0,,,81,90
49472,note_off,,,,,128,0,10,,,,,2,,,64,100
49472,note_off,,,,,0,0,9,,,,,1,,,80,100
49472,note_off,,,,,128,0,9,,,,,1,,,83,100
49504,note_off,,,,,64,0,8,,,,,0,,,81,100
49536,note_on,,,,,64,0,10,,,,,2,,,64,53
49536,note_on,,,,,0,0,9,,,,,1,,,80,53
49536,note_on,,,,,64,0,9,,,,,1,,,83,53
49536,note_on,,,,,32,0,8,,,,,0,,,80,90
49600,note_off,,,,,64,0,8,,,,,0,,,80,100
49632,note_on,,,,,32,0,8,,,,,0,,,81,91
49664,note_off,,,,,0,0,9,,,,,1,,,80,100
49664,note_off,,,,,128,0,9,,,,,1,,,83,100
49664,note_off,,,,,128,0,10,,,,,2,,,64,100
49696,note_off,,,,,64,0,8,,,,,0,,,81,100
49728,note_on,,,,,0,0,9,,,,,1,,,80,54
49728,note_on,,,,,64,0,9,,,,,1,,,83,54
49728,note_on,,,,,32,0,8,,,,,0,,,83,91
49728,note_on,,,,,64,0,10,,,,,2,,,64,54
49792,note_off,,,,,64,0,8,,,,,0,,,83,100
49824,note_on,,,,,32,0,8,,,,,0,,,81,91
49856,note_off,,,,,128,0,10,,,,,2,,,64,100
49856,note_off,,,,,128,0,9,,,,,1,,,83,100
49856,note_off,,,,,0,0,9,,,,,1,,,80,100
49888,note_off,,,,,64,0,8,,,,,0,,,81,100
49920,note_on,,,,,32,0,8,,,,,0,,,80,91
49920,note_on,,,,,64,0,9,,,,,1,,,85,54
49920,note_on,,,,,64,0,10,,,,,2,,,65,54
49920,note_on,,,,,0,0,9,,,,,1,,,80,54
49984,note_off,,,,,64,0,8,,,,,0,,,80,100
50016,note_on,,,,,32,0,8,,,,,0,,,85,91
50048,note_off,,,,,128,0,9,,,,,1,,,85,100
50048,note_off,,,,,0,0,9,,,,,1,,,80,100
50048,note_off,,,,,128,0,10,,,,,2,,,65,100
50080,note_off,,,,,64,0,8,,,,,0,,,85,100
50112,note_on,,,,,64,0,10,,,,,2,,,65,54
50112,note_on,,,,,0,0,9,,,,,1,,,80,54
50112,note_on,,,,,32,0,8,,,,,0,,,83,92
50112,note_on,,,,,64,0,9,,,,,1,,,85,54
50176,note_off,,,,,64,0,8,,,,,0,,,83,100
50208,note_on,,,,,32,0,8,,,,,0,,,85,92
50240,note_off,,,,,128,0,10,,,,,2,,,65,100
50240,note_off,,,,,0,0,9,,,,,1,,,80,100
50240,note_off,,,,,128,0,9,,,,,1,,,85,100
50272,note_off,,,,,64,0,8,,,,,0,,,85,100
50304,note_on,,,,,64,0,9,,,,,1,,,85,54
50304,note_on,,,,,64,0,10,,,,,2,,,65,54
50304,note_on,,,,,0,0,9,,,,,1,,,80,54
50304,note_on,,,,,32,0,8,,,,,0,,,80,92
50368,note_off,,,,,64,0,8,,,,,0,,,80,100
50400,note_on,,,,,32,0,8,,,,,0,,,85,92
50432,note_off,,,,,128,0,9,,,,,1,,,85,100
50432,note_off,,,,,0,0,9,,,,,1,,,80,100
50432,note_off,,,,,128,0,10,,,,,2,,,65,100
50464,note_off,,,,,64,0,8,,,,,0,,,85,100
50496,note_on,,,,,32,0,8,,,,,0,,,83,92
50496,note_on,,,,,64,0,10,,,,,2,,,65,55
50496,note_on,,,,,0,0,9,,,,,1,,,80,55
50496,note_on,,,,,64,0,9,,,,,1,,,85,55
50560,note_off,,,,,64,0,8,,,,,0,,,83,100
50592,note_on,,,,,32,0,8,,,,,0,,,85,93
50624,note_off,,,,,128,0,9,,,,,1,,,85,100
50624,note_off,,,,,128,0,10,,,,,2,,,65,100
50624,note_off,,,,,0,0,9,,,,,1,,,80,100
50656,note_off,,,,,64,0,8,,,,,0,,,85,100
50688,note_on,,,,,0,0,9,,,,,1,,,81,55
50688,note_on,,,,,64,0,9,,,,,1,,,85,55
50688,note_on,,,,,64,0,10,,,,,2,,,66,55
50688,note_on,,,,,32,0,8,,,,,0,,,81,93
50752,note_off,,,,,64,0,8,,,,,0,,,81,100
50784,note_on,,,,,32,0,8,,,,,0,,,80,93
50816,note_off,,,,,128,0,10,,,,,2,,,66,100
50816,note_off,,,,,0,0,9,,,,,1,,,81,100
50816,note_off,,,,,128,0,9,,,,,1,,,85,100
50848,note_off,,,,,64,0,8,,,,,0,,,80,100
50880,note_on,,,,,64,0,10,,,,,2,,,66,55
50880,note_on,,,,,0,0,9,,,,,1,,,81,55
50880,note_on,,,,,32,0,8,,,,,0,,,81,93
50880,note_on,,,,,64,0,9,,,,,1,,,85,55
50944,note_off,,,,,64,0,8,,,,,0,,,81,100
50976,note_on,,,,,32,0,8,,,,,0,,,83,93
51008,note_off,,,,,128,0,10,,,,,2,,,66,100
51008,note_off,,,,,0,0,9,,,,,1,,,81,100
51008,note_off,,,,,128,0,9,,,,,1,,,85,100
51040,note_off,,,,,64,0,8,,,,,0,,,83,100
51072,note_on,,,,,32,0,8,,,,,0,,,81,94
51072,note_on,,,,,0,0,9,,,,,1,,,81,56
51072,note_on,,,,,64,0,10,,,,,2,,,66,56
51072,note_on,,,,,64,0,9,,,,,1,,,85,56
51136,note_off,,,,,64,0,8,,,,,0,,,81,100
51168,note_on,,,,,32,0,8,,,,,0,,,83,94
51200,note_off,,,,,0,0,9,,,,,1,,,81,100
51200,note_off,,,,,128,0,9,,,,,1,,,85,100
51200,note_off,,,,,128,0,10,,,,,2,,,66,100
51232,note_off,,,,,64,0,8,,,,,0,,,83,100
51264,note_on,,,,,64,0,9,,,,,1,,,85,56
51264,note_on,,,,,0,0,9,,,,,1,,,81,56
51264,note_on,,,,,32,0,8,,,,,0,,,85,94
51264,note_on,,,,,64,0,10,,,,,2,,,66,56
51328,note_off,,,,,64,0,8,,,,,0,,,85,100
51360,note_on,,,,,32,0,8,,,,,0,,,83,94
51392,note_off,,,,,128,0,9,,,,,1,,,85,100
51392,note_off,,,,,0,0,9,,,,,1,,,81,100
51392,note_off,,,,,128,0,10,,,,,2,,,66,100
51424,note_off,,,,,64,0,8,,,,,0,,,83,100
51456,note_on,,,,,64,0,9,,,,,1,,,86,56
51456,note_on,,,,,0,0,9,,,,,1,,,81,56
51456,note_on,,,,,64,0,10,,,,,2,,,66,56
51456,note_on,,,,,32,0,8,,,,,0,,,81,94
51520,note_off,,,,,64,0,8,,,,,0,,,81,100
51552,note_on,,,,,32,0,8,,,,,0,,,86,95
51584,note_off,,,,,128,0,9,,,,,1,,,86,100
51584,note_off,,,,,0,0,9,,,,,1,,,81,100
51584,note_off,,,,,128,0,10,,,,,2,,,66,100
51616,note_off,,,,,64,0,8,,,,,0,,,86,100
51648,note_on,,,,,64,0,10,,,,,2,,,66,56
51648,note_on,,,,,32,0,8,,,,,0,,,85,95
51648,note_on,,,,,64,0,9,,,,,1,,,86,56
51648,note_on,,,,,0,0,9,,,,,1,,,81,56
51712,note_off,,,,,64,0,8,,,,,0,,,85,100
51744,note_on,,,,,32,0,8,,,,,0,,,86,95
51776,note_off,,,,,128,0,9,,,,,1,,,86,100
51776,note_off,,,,,0,0,9,,,,,1,,,81,100
51776,note_off,,,,,128,0,10,,,,,2,,,66,100
51808,note_off,,,,,64,0,8,,,,,0,,,86,100
51840,note_on,,,,,32,0,8,,,,,0,,,81,95
51840,note_on,,,,,0,0,9,,,,,1,,,81,57
51840,note_on,,,,,64,0,9,,,,,1,,,86,57
51840,note_on,,,,,64,0,10,,,,,2,,,66,57
51904,note_off,,,,,64,0,8,,,,,0,,,81,100
51936,note_on,,,,,32,0,8,,,,,0,,,86,96
51968,note_off,,,,,0,0,9,,,,,1,,,81,100
51968,note_off,,,,,128,0,10,,,,,2,,,66,100
51968,note_off,,,,,128,0,9,,,,,1,,,86,100
52000,note_off,,,,,64,0,8,,,,,0,,,86,100
52032,note_on,,,,,32,0,8,,,,,0,,,85,96
52032,note_on,,,,,64,0,9,,,,,1,,,86,57
52032,note_on,,,,,0,0,9,,,,,1,,,81,57
52032,note_on,,,,,64,0,10,,,,,2,,,66,57
52096,note_off,,,,,64,0,8,,,,,0,,,85,100
52128,note_on,,,,,32,0,8,,,,,0,,,86,96
52160,note_off,,,,,128,0,9,,,,,1,,,86,100
52160,note_off,,,,,0,0,9,,,,,1,,,81,100
52160,note_off,,,,,128,0,10,,,,,2,,,66,100
52192,note_off,,,,,64,0,8,,,,,0,,,86,100
52224,note_on,,,,,64,0,10,,,,,2,,,68,57
52224,note_on,,,,,32,0,8,,,,,0,,,83,96
52224,note_on,,,,,0,0,9,,,,,1,,,83,57
52224,note_on,,,,,64,0,9,,,,,1,,,86,57
52288,note_off,,,,,64,0,8,,,,,0,,,83,100
52320,note_on,,,,,32,0,8,,,,,0,,,81,96
52352,note_off,,,,,128,0,9,,,,,1,,,86,100
52352,note_off,,,,,0,0,9,,,,,1,,,83,100
52352,note_off,,,,,128,0,10,,,,,2,,,68,100
52384,note_off,,,,,64,0,8,,,,,0,,,81,100
52416,note_on,,,,,64,0,9,,,,,1,,,86,58
52416,note_on,,,,,32,0,8,,,,,0,,,83,97
52416,note_on,,,,,0,0,9,,,,,1,,,83,58
52416,note_on,,,,,64,0,10,,,,,2,,,68,58
52480,note_off,,,,,64,0,8,,,,,0,,,83,100
52512,note_on,,,,,32,0,8,,,,,0,,,85,97
52544,note_off,,,,,0,0,9,,,,,1,,,83,100
52544,note_off,,,,,128,0,9,,,,,1,,,86,100
52544,note_off,,,,,128,0,10,,,,,2,,,68,100
52576,note_off,,,,,64,0,8,,,,,0,,,85,100
52608,note_on,,,,,32,0,8,,,,,0,,,83,97
52608,note_on,,,,,64,0,10,,,,,2,,,68,58
52608,note_on,,,,,64,0,9,,,,,1,,,86,58
52608,note_on,,,,,0,0,9,,,,,1,,,83,58
52672,note_off,,,,,64,0,8,,,,,0,,,83,100
52704,note_on,,,,,32,0,8,,,,,0,,,85,97
52736,note_off,,,,,0,0,9,,,,,1,,,83,100
52736,note_off,,,,,128,0,10,,,,,2,,,68,100
52736,note_off,,,,,128,0,9,,,,,1,,,86,100
52768,note_off,,,,,64,0,8,,,,,0,,,85,100
52800,note_on,,,,,64,0,10,,,,,2,,,68,58
52800,note_on,,,,,0,0,9,,,,,1,,,83,58
52800,note_on,,,,,64,0,9,,,,,1,,,86,58
52800,note_on,,,,,32,0,8,,,,,0,,,86,97
52864,note_off,,,,,64,0,8,,,,,0,,,86,100
52896,note_on,,,,,32,0,8,,,,,0,,,85,98
52928,note_off,,,,,128,0,9,,,,,1,,,86,100
52928,note_off,,,,,128,0,10,,,,,2,,,68,100
52928,note_off,,,,,0,0,9,,,,,1,,,83,100
52960,note_off,,,,,64,0,8,,,,,0,,,85,100
52992,note_on,,,,,64,0,9,,,,,1,,,86,58
52992,note_on,,,,,0,0,9,,,,,1,,,83,58
52992,note_on,,,,,64,0,10,,,,,2,,,68,58
52992,note_on,,,,,32,0,8,,,,,0,,,83,98
53056,note_off,,,,,64,0,8,,,,,0,,,83,100
53088,note_on,,,,,32,0,8,,,,,0,,,88,98
53120,note_off,,,,,0,0,9,,,,,1,,,83,100
53120,note_off,,,,,128,0,9,,,,,1,,,86,100
53120,note_off,,,,,128,0,10,,,,,2,,,68,100
53152,note_off,,,,,64,0,8,,,,,0,,,88,100
53184,note_on,,,,,32,0,8,,,,,0,,,86,98
53184,note_on,,,,,0,0,9,,,,,1,,,83,59
53184,note_on,,,,,64,0,9,,,,,1,,,86,59
53184,note_on,,,,,64,0,10,,,,,2,,,68,59
53248,note_off,,,,,64,0,8,,,,,0,,,86,100
53280,note_on,,,,,32,0,8,,,,,0,,,88,98
53312,note_off,,,,,128,0,10,,,,,2,,,68,100
53312,note_off,,,,,128,0,9,,,,,1,,,86,100
53312,note_off,,,,,0,0,9,,,,,1,,,83,100
53344,note_off,,,,,64,0,8,,,,,0,,,88,100
53376,note_on,,,,,64,0,9,,,,,1,,,86,59
53376,note_on,,,,,0,0,9,,,,,1,,,83,59
53376,note_on,,,,,32,0,8,,,,,0,,,83,99
53376,note_on,,,,,64,0,10,,,,,2,,,68,59
53440,note_off,,,,,64,0,8,,,,,0,,,83,100
53472,note_on,,,,,32,0,8,,,,,0,,,88,99
53504,note_off,,,,,0,0,9,,,,,1,,,83,100
53504,note_off,,,,,128,0,10,,,,,2,,,68,100
53504,note_off,,,,,128,0,9,,,,,1,,,86,100
53536,note_off,,,,,64,0,8,,,,,0,,,88,100
53568,note_on,,,,,0,0,9,,,,,1,,,83,59
53568,note_on,,,,,64,0,10,,,,,2,,,68,59
53568,note_on,,,,,32,0,8,,,,,0,,,86,99
53568,note_on,,,,,64,0,9,,,,,1,,,86,59
53632,note_off,,,,,64,0,8,,,,,0,,,86,100
53664,note_on,,,,,32,0,8,,,,,0,,,88,99
53696,note_off,,,,,128,0,9,,,,,1,,,86,100
53696,note_off,,,,,0,0,9,,,,,1,,,83,100
53696,note_off,,,,,128,0,10,,,,,2,,,68,100
53728,note_off,,,,,64,0,8,,,,,0,,,88,100
53760,note_on,,,,,64,0,9,,,,,1,,,81,59
53760,note_on,,,,,0,0,9,,,,,1,,,85,59
53760,note_on,,,,,16640,0,14,,,,,5,,,45,100
53760,note_on,,,,,64,0,10,,,,,2,,,69,59
53760,note_on,,,,,0,0,13,,,,,5,,,61,100
53760,note_on,,,,,16640,0,12,,,,,4,,,33,60
53760,note_on,,,,,32,0,8,,,,,0,,,85,99
53760,note_on,,,,,16640,0,11,,,,,3,,,45,60
53760,note_on,,,,,16640,0,13,,,,,5,,,64,100
53824,note_off,,,,,64,0,8,,,,,0,,,85,100
53856,note_on,,,,,32,0,8,,,,,0,,,88,100
53888,note_off,,,,,0,0,9,,,,,1,,,85,100
53888,note_off,,,,,128,0,9,,,,,1,,,81,100
53888,note_off,,,,,128,0,10,,,,,2,,,69,100
53920,note_off,,,,,64,0,8,,,,,0,,,88,100
53952,note_on,,,,,0,0,9,,,,,1,,,85,60
53952,note_on,,,,,64,0,9,,,,,1,,,81,60
53952,note_on,,,,,64,0,10,,,,,2,,,76,60
53952,note_on,,,,,32,0,8,,,,,0,,,85,100
54016,note_off,,,,,64,0,8,,,,,0,,,85,100
54048,note_on,,,,,32,0,8,,,,,0,,,88,100
54080,note_off,,,,,128,0,10,,,,,2,,,76,100
54080,note_off,,,,,0,0,9,,,,,1,,,85,100
54080,note_off,,,,,128,0,9,,,,,1,,,81,100
54112,note_off,,,,,64,0,8,,,,,0,,,88,100
54140,note_off,,,,,380,0,12,,,,,4,,,33,100
54140,note_off,,,,,380,0,11,,,,,3,,,45,100
54140,note_off,,,,,380,0,14,,,,,5,,,45,100
54144,note_on,,,,,0,0,9,,,,,1,,,85,60
54144,note_on,,,,,32,0,8,,,,,0,,,85,100
54144,note_off,,,,,384,0,13,,,,,5,,,64,100
54144,note_on,,,,,64,0,9,,,,,1,,,81,60
54144,note_off,,,,,0,0,13,,,,,5,,,61,100
54144,note_on,,,,,64,0,10,,,,,2,,,76,60
54208,note_off,,,,,64,0,8,,,,,0,,,85,100
54240,note_on,,,,,32,0,8,,,,,0,,,88,100
54272,note_off,,,,,128,0,10,,,,,2,,,76,100
54272,note_off,,,,,0,0,9,,,,,1,,,85,100
54272,note_off,,,,,128,0,9,,,,,1,,,81,100
54304,note_off,,,,,64,0,8,,,,,0,,,88,100
54336,note_on,,,,,64,0,10,,,,,2,,,76,60
54336,note_on,,,,,0,0,9,,,,,1,,,85,60
54336,note_on,,,,,64,0,9,,,,,1,,,81,60
54336,note_on,,,,,32,0,8,,,,,0,,,85,100
54400,note_off,,,,,64,0,8,,,,,0,,,85,100
54432,note_on,,,,,32,0,8,,,,,0,,,88,100
54464,note_off,,,,,128,0,10,,,,,2,,,76,100
54464,note_off,,,,,0,0,9,,,,,1,,,85,100
54464,note_off,,,,,128,0,9,,,,,1,,,81,100
54496,note_off,,,,,64,0,8,,,,,0,,,88,100
54528,note_on,,,,,64,0,10,,,,,2,,,76,60
54528,note_on,,,,,32,0,8,,,,,0,,,83,100
54528,note_on,,,,,0,0,9,,,,,1,,,83,60
54528,note_on,,,,,64,0,9,,,,,1,,,80,60
54592,note_off,,,,,64,0,8,,,,,0,,,83,100
54624,note_on,,,,,32,0,8,,,,,0,,,88,100
54656,note_off,,,,,128,0,10,,,,,2,,,76,100
54656,note_off,,,,,128,0,9,,,,,1,,,80,100
54656,note_off,,,,,0,0,9,,,,,1,,,83,100
54688,note_off,,,,,64,0,8,,,,,0,,,88,100
54720,note_on,,,,,64,0,10,,,,,2,,,76,60
54720,note_on,,,,,32,0,8,,,,,0,,,83,100
54720,note_on,,,,,64,0,9,,,,,1,,,80,60
54720,note_on,,,,,0,0,9,,,,,1,,,83,60
54784,note_off,,,,,64,0,8,,,,,0,,,83,100
54816,note_on,,,,,32,0,8,,,,,0,,,88,100
54848,note_off,,,,,0,0,9,,,,,1,,,83,100
54848,note_off,,,,,128,0,9,,,,,1,,,80,100
54848,note_off,,,,,128,0,10,,,,,2,,,76,100
54880,note_off,,,,,64,0,8,,,,,0,,,88,100
54912,note_on,,,,,64,0,9,,,,,1,,,80,60
54912,note_on,,,,,0,0,9,,,,,1,,,83,60
54912,note_on,,,,,64,0,10,,,,,2,,,76,60
54912,note_on,,,,,32,0,8,,,,,0,,,83,100
54976,note_off,,,,,64,0,8,,,,,0,,,83,100
55008,note_on,,,,,32,0,8,,,,,0,,,88,100
55040,note_off,,,,,0,0,9,,,,,1,,,83,100
55040,note_off,,,,,128,0,9,,,,,1,,,80,100
55040,note_off,,,,,128,0,10,,,,,2,,,76,100
55072,note_off,,,,,64,0,8,,,,,0,,,88,100
55104,note_on,,,,,64,0,9,,,,,1,,,80,60
55104,note_on,,,,,32,0,8,,,,,0,,,83,100
55104,note_on,,,,,64,0,10,,,,,2,,,76,60
55104,note_on,,,,,0,0,9,,,,,1,,,83,60
55168,note_off,,,,,64,0,8,,,,,0,,,83,100
55200,note_on,,,,,32,0,8,,,,,0,,,88,93
55232,note_off,,,,,128,0,10,,,,,2,,,76,100
55232,note_off,,,,,128,0,9,,,,,1,,,80,100
55232,note_off,,,,,0,0,9,,,,,1,,,83,100
55264,note_off,,,,,64,0,8,,,,,0,,,88,100
55296,note_on,,,,,1156,0,14,,,,,5,,,45,100
55296,note_on,,,,,1156,0,12,,,,,4,,,33,60
55296,note_on,,,,,1152,0,13,,,,,5,,,64,100
55296,note_on,,,,,0,0,13,,,,,5,,,61,100
55296,note_on,,,,,1156,0,11,,,,,3,,,45,60
55296,note_on,,,,,64,0,9,,,,,1,,,81,50
55296,note_on,,,,,64,0,10,,,,,2,,,76,50
55296,note_on,,,,,0,0,9,,,,,1,,,85,50
55296,note_on,,,,,32,0,8,,,,,0,,,85,86
55360,note_off,,,,,64,0,8,,,,,0,,,85,100
55392,note_on,,,,,32,0,8,,,,,0,,,88,85
55424,note_off,,,,,0,0,9,,,,,1,,,85,100
55424,note_off,,,,,128,0,10,,,,,2,,,76,100
55424,note_off,,,,,128,0,9,,,,,1,,,81,100
55456,note_off,,,,,64,0,8,,,,,0,,,88,100
55488,note_on,,,,,32,0,8,,,,,0,,,85,85
55488,note_on,,,,,0,0,9,,,,,1,,,85,50
55488,note_on,,,,,64,0,10,,,,,2,,,76,50
55488,note_on,,,,,64,0,9,,,,,1,,,81,50
55552,note_off,,,,,64,0,8,,,,,0,,,85,100
55584,note_on,,,,,32,0,8,,,,,0,,,88,85
55616,note_off,,,,,128,0,9,,,,,1,,,81,100
55616,note_off,,,,,0,0,9,,,,,1,,,85,100
55616,note_off,,,,,128,0,10,,,,,2,,,76,100
55648,note_off,,,,,64,0,8,,,,,0,,,88,100
55676,note_off,,,,,380,0,11,,,,,3,,,45,100
55676,note_off,,,,,380,0,12,,,,,4,,,33,100
55676,note_off,,,,,380,0,14,,,,,5,,,45,100
55680,note_off,,,,,384,0,13,,,,,5,,,64,100
55680,note_off,,,,,0,0,13,,,,,5,,,61,100
55680,note_on,,,,,64,0,10,,,,,2,,,76,50
55680,note_on,,,,,0,0,9,,,,,1,,,85,50
55680,note_on,,,,,32,0,8,,,,,0,,,85,85
55680,note_on,,,,,64,0,9,,,,,1,,,81,50
55744,note_off,,,,,64,0,8,,,,,0,,,85,100
55776,note_on,,,,,32,0,8,,,,,0,,,88,85
55808,note_off,,,,,0,0,9,,,,,1,,,85,100
55808,note_off,,,,,128,0,10,,,,,2,,,76,100
55808,note_off,,,,,128,0,9,,,,,1,,,81,100
55840,note_off,,,,,64,0,8,,,,,0,,,88,100
55872,note_on,,,,,64,0,9,,,,,1,,,81,50
55872,note_on,,,,,0,0,9,,,,,1,,,85,50
55872,note_on,,,,,32,0,8,,,,,0,,,85,85
55872,note_on,,,,,64,0,10,,,,,2,,,76,50
55936,note_off,,,,,64,0,8,,,,,0,,,85,100
55968,note_on,,,,,32,0,8,,,,,0,,,88,85
56000,note_off,,,,,128,0,10,,,,,2,,,76,100
56000,note_off,,,,,128,0,9,,,,,1,,,81,100
56000,note_off,,,,,0,0,9,,,,,1,,,85,100
56032,note_off,,,,,64,0,8,,,,,0,,,88,100
56064,note_on,,,,,32,0,8,,,,,0,,,83,85
56064,note_on,,,,,64,0,9,,,,,1,,,80,50
56064,note_on,,,,,0,0,9,,,,,1,,,83,50
56064,note_on,,,,,64,0,10,,,,,2,,,76,50
56128,note_off,,,,,64,0,8,,,,,0,,,83,100
56160,note_on,,,,,32,0,8,,,,,0,,,88,85
56192,note_off,,,,,128,0,9,,,,,1,,,80,100
56192,note_off,,,,,0,0,9,,,,,1,,,83,100
56192,note_off,,,,,128,0,10,,,,,2,,,76,100
56224,note_off,,,,,64,0,8,,,,,0,,,88,100
56256,note_on,,,,,64,0,10,,,,,2,,,76,52
56256,note_on,,,,,64,0,9,,,,,1,,,80,52
56256,note_on,,,,,0,0,9,,,,,1,,,83,52
56256,note_on,,,,,32,0,8,,,,,0,,,83,85
56320,note_off,,,,,64,0,8,,,,,0,,,83,100
56352,note_on,,,,,32,0,8,,,,,0,,,88,85
56384,note_off,,,,,0,0,9,,,,,1,,,83,100
56384,note_off,,,,,128,0,10,,,,,2,,,76,100
56384,note_off,,,,,128,0,9,,,,,1,,,80,100
56416,note_off,,,,,64,0,8,,,,,0,,,88,100
56448,note_on,,,,,64,0,10,,,,,2,,,76,54
56448,note_on,,,,,64,0,9,,,,,1,,,80,54
56448,note_on,,,,,0,0,9,,,,,1,,,83,54
56448,note_on,,,,,32,0,8,,,,,0,,,83,85
56512,note_off,,,,,64,0,8,,,,,0,,,83,100
56544,note_on,,,,,32,0,8,,,,,0,,,88,88
56576,note_off,,,,,0,0,9,,,,,1,,,83,100
56576,note_off,,,,,128,0,9,,,,,1,,,80,100
56576,note_off,,,,,128,0,10,,,,,2,,,76,100
56608,note_off,,,,,64,0,8,,,,,0,,,88,100
56640,note_on,,,,,0,0,9,,,,,1,,,83,57
56640,note_on,,,,,64,0,9,,,,,1,,,80,57
56640,note_on,,,,,64,0,10,,,,,2,,,76,57
56640,note_on,,,,,32,0,8,,,,,0,,,83,92
56704,note_off,,,,,64,0,8,,,,,0,,,83,100
56736,note_on,,,,,32,0,8,,,,,0,,,88,96
56768,note_off,,,,,0,0,9,,,,,1,,,83,100
56768,note_off,,,,,128,0,9,,,,,1,,,80,100
56768,note_off,,,,,128,0,10,,,,,2,,,76,100
56800,note_off,,,,,64,0,8,,,,,0,,,88,100
56832,note_on,,,,,64,0,10,,,,,2,,,76,59
56832,note_on,,,,,1156,0,12,,,,,4,,,33,60
56832,note_on,,,,,1156,0,14,,,,,5,,,45,100
56832,note_on,,,,,1152,0,13,,,,,5,,,64,100
56832,note_on,,,,,32,0,8,,,,,0,,,85,99
56832,note_on,,,,,0,0,13,,,,,5,,,61,100
56832,note_on,,,,,1156,0,11,,,,,3,,,45,60
56832,note_on,,,,,0,0,9,,,,,1,,,85,59
56832,note_on,,,,,64,0,9,,,,,1,,,81,59
56896,note_off,,,,,64,0,8,,,,,0,,,85,100
56928,note_on,,,,,32,0,8,,,,,0,,,88,100
56960,note_off,,,,,0,0,9,,,,,1,,,85,100
56960,note_off,,,,,128,0,9,,,,,1,,,81,100
56960,note_off,,,,,128,0,10,,,,,2,,,76,100
56992,note_off,,,,,64,0,8,,,,,0,,,88,100
57024,note_on,,,,,64,0,9,,,,,1,,,81,60
57024,note_on,,,,,0,0,9,,,,,1,,,85,60
57024,note_on,,,,,64,0,10,,,,,2,,,76,60
57024,note_on,,,,,32,0,8,,,,,0,,,85,100
57088,note_off,,,,,64,0,8,,,,,0,,,85,100
57120,note_on,,,,,32,0,8,,,,,0,,,88,100
57152,note_off,,,,,128,0,10,,,,,2,,,76,100
57152,note_off,,,,,0,0,9,,,,,1,,,85,100
57152,note_off,,,,,128,0,9,,,,,1,,,81,100
57184,note_off,,,,,64,0,8,,,,,0,,,88,100
57212,note_off,,,,,380,0,14,,,,,5,,,45,100
57212,note_off,,,,,380,0,11,,,,,3,,,45,100
57212,note_off,,,,,380,0,12,,,,,4,,,33,100
57216,note_on,,,,,0,0,9,,,,,1,,,85,60
57216,note_on,,,,,64,0,9,,,,,1,,,81,60
57216,note_off,,,,,384,0,13,,,,,5,,,64,100
57216,note_off,,,,,0,0,13,,,,,5,,,61,100
57216,note_on,,,,,32,0,8,,,,,0,,,85,100
57216,note_on,,,,,64,0,10,,,,,2,,,76,60
57280,note_off,,,,,64,0,8,,,,,0,,,85,100
57312,note_on,,,,,32,0,8,,,,,0,,,88,100
57344,note_off,,,,,128,0,10,,,,,2,,,76,100
57344,note_off,,,,,128,0,9,,,,,1,,,81,100
57344,note_off,,,,,0,0,9,,,,,1,,,85,100
57376,note_off,,,,,64,0,8,,,,,0,,,88,100
57408,note_on,,,,,0,0,9,,,,,1,,,85,60
57408,note_on,,,,,32,0,8,,,,,0,,,85,100
57408,note_on,,,,,64,0,10,,,,,2,,,76,60
57408,note_on,,,,,64,0,9,,,,,1,,,81,60
57472,note_off,,,,,64,0,8,,,,,0,,,85,100
57504,note_on,,,,,32,0,8,,,,,0,,,88,100
57536,note_off,,,,,128,0,9,,,,,1,,,81,100
57536,note_off,,,,,0,0,9,,,,,1,,,85,100
57536,note_off,,,,,128,0,10,,,,,2,,,76,100
57568,note_off,,,,,64,0,8,,,,,0,,,88,100
57600,note_on,,,,,64,0,9,,,,,1,,,80,60
57600,note_on,,,,,64,0,10,,,,,2,,,76,60
57600,note_on,,,,,0,0,9,,,,,1,,,83,60
57600,note_on,,,,,32,0,8,,,,,0,,,83,100
57664,note_off,,,,,64,0,8,,,,,0,,,83,100
57696,note_on,,,,,32,0,8,,,,,0,,,88,100
57728,note_off,,,,,128,0,9,,,,,1,,,80,100
57728,note_off,,,,,128,0,10,,,,,2,,,76,100
57728,note_off,,,,,0,0,9,,,,,1,,,83,100
57760,note_off,,,,,64,0,8,,,,,0,,,88,100
57792,note_on,,,,,32,0,8,,,,,0,,,83,100
57792,note_on,,,,,64,0,10,,,,,2,,,76,60
57792,note_on,,,,,0,0,9,,,,,1,,,83,60
57792,note_on,,,,,64,0,9,,,,,1,,,80,60
57856,note_off,,,,,64,0,8,,,,,0,,,83,100
57888,note_on,,,,,32,0,8,,,,,0,,,88,100
57920,note_off,,,,,0,0,9,,,,,1,,,83,100
57920,note_off,,,,,128,0,9,,,,,1,,,80,100
57920,note_off,,,,,128,0,10,,,,,2,,,76,100
57952,note_off,,,,,64,0,8,,,,,0,,,88,100
57984,note_on,,,,,64,0,9,,,,,1,,,80,60
57984,note_on,,,,,0,0,9,,,,,1,,,83,60
57984,note_on,,,,,32,0,8,,,,,0,,,83,100
57984,note_on,,,,,64,0,10,,,,,2,,,76,60
58048,note_off,,,,,64,0,8,,,,,0,,,83,100
58080,note_on,,,,,32,0,8,,,,,0,,,88,98
58112,note_off,,,,,0,0,9,,,,,1,,,83,100
58112,note_off,,,,,128,0,9,,,,,1,,,80,100
58112,note_off,,,,,128,0,10,,,,,2,,,76,100
58144,note_off,,,,,64,0,8,,,,,0,,,88,100
58176,note_on,,,,,32,0,8,,,,,0,,,83,96
58176,note_on,,,,,0,0,9,,,,,1,,,83,60
58176,note_on,,,,,64,0,9,,,,,1,,,80,60
58176,note_on,,,,,64,0,10,,,,,2,,,76,60
58240,note_off,,,,,64,0,8,,,,,0,,,83,100
58272,note_on,,,,,32,0,8,,,,,0,,,88,93
58304,note_off,,,,,0,0,9,,,,,1,,,83,100
58304,note_off,,,,,128,0,9,,,,,1,,,80,100
58304,note_off,,,,,128,0,10,,,,,2,,,76,100
58336,note_off,,,,,64,0,8,,,,,0,,,88,100
58368,note_on,,,,,1156,0,14,,,,,5,,,45,100
58368,note_on,,,,,1156,0,11,,,,,3,,,45,60
58368,note_on,,,,,64,0,9,,,,,1,,,85,60
58368,note_on,,,,,0,0,9,,,,,1,,,81,60
58368,note_on,,,,,1156,0,12,,,,,4,,,33,60
58368,note_on,,,,,64,0,10,,,,,2,,,76,60
58368,note_on,,,,,0,0,13,,,,,5,,,61,100
58368,note_on,,,,,1152,0,13,,,,,5,,,64,100
58368,set_tempo,,,,,9984,1,0,,468750,,,,,,,
58368,note_on,,,,,32,0,8,,,,,0,,,85,91
58416,set_tempo,,,,,48,1,0,,472440,,,,,,,
58464,set_tempo,,,,,48,1,0,,476190,,,,,,,
58512,set_tempo,,,,,48,1,0,,480000,,,,,,,
58560,set_tempo,,,,,48,1,0,,483870,,,,,,,
58608,set_tempo,,,,,48,1,0,,487804,,,,,,,
58624,note_off,,,,,256,0,11,,,,,3,,,45,100
58624,note_off,,,,,256,0,8,,,,,0,,,85,100
58624,note_off,,,,,256,0,9,,,,,1,,,85,100
58624,note_off,,,,,0,0,9,,,,,1,,,81,100
58624,note_off,,,,,256,0,10,,,,,2,,,76,100
58624,note_off,,,,,256,0,13,,,,,5,,,64,100
58624,note_off,,,,,256,0,14,,,,,5,,,45,100
58624,note_off,,,,,0,0,13,,,,,5,,,61,100
58624,note_off,,,,,256,0,12,,,,,4,,,33,100
58656,set_tempo,,,,,48,1,0,,491803,,,,,,,
58704,set_tempo,,,,,48,1,0,,495867,,,,,,,
58752,set_tempo,,,,,48,1,0,,500000,,,,,,,
58944,note_on,,,,,320,0,12,,,,,4,,,45,100
58944,note_on,,,,,320,0,11,,,,,3,,,57,100
58944,note_on,,,,,320,0,9,,,,,1,,,69,100
58944,note_on,,,,,320,0,10,,,,,2,,,69,100
58944,note_on,,,,,320,0,14,,,,,5,,,57,100
58944,note_on,,,,,320,0,13,,,,,5,,,69,100
59072,note_off,,,,,128,0,13,,,,,5,,,69,100
59072,note_off,,,,,128,0,12,,,,,4,,,45,100
59072,note_off,,,,,128,0,11,,,,,3,,,57,100
59072,note_off,,,,,128,0,9,,,,,1,,,69,100
59072,note_off,,,,,128,0,10,,,,,2,,,69,100
59072,note_off,,,,,128,0,14,,,,,5,,,57,100
59136,note_on,,,,,64,0,10,,,,,2,,,68,100
59136,note_on,,,,,64,0,13,,,,,5,,,68,100
59136,note_on,,,,,64,0,9,,,,,1,,,68,100
59136,note_on,,,,,64,0,14,,,,,5,,,56,100
59136,note_on,,,,,64,0,12,,,,,4,,,44,100
59136,note_on,,,,,64,0,11,,,,,3,,,56,100
59136,note_on,,,,,0,0,13,,,,,5,,,64,100
59264,note_off,,,,,128,0,13,,,,,5,,,68,100
59264,note_off,,,,,128,0,9,,,,,1,,,68,100
59264,note_off,,,,,128,0,14,,,,,5,,,56,100
59264,note_off,,,,,0,0,13,,,,,5,,,64,100
59264,note_off,,,,,128,0,10,,,,,2,,,68,100
59264,note_off,,,,,128,0,11,,,,,3,,,56,100
59264,note_off,,,,,128,0,12,,,,,4,,,44,100
59328,note_on,,,,,64,0,13,,,,,5,,,66,100
59328,note_on,,,,,64,0,12,,,,,4,,,42,100
59328,note_on,,,,,64,0,10,,,,,2,,,66,100
59328,note_on,,,,,64,0,14,,,,,5,,,54,100
59328,note_on,,,,,64,0,9,,,,,1,,,66,100
59328,note_on,,,,,64,0,11,,,,,3,,,54,100
59456,note_off,,,,,128,0,11,,,,,3,,,54,100
59456,note_off,,,,,128,0,14,,,,,5,,,54,100
59456,note_off,,,,,128,0,10,,,,,2,,,66,100
59456,note_off,,,,,128,0,12,,,,,4,,,42,100
59456,note_off,,,,,128,0,9,,,,,1,,,66,100
59456,note_off,,,,,128,0,13,,,,,5,,,66,100
59520,note_on,,,,,64,0,12,,,,,4,,,40,100
59520,note_on,,,,,64,0,13,,,,,5,,,64,100
59520,note_on,,,,,64,0,10,,,,,2,,,64,100
59520,note_on,,,,,64,0,14,,,,,5,,,52,100
59520,note_on,,,,,64,0,11,,,,,3,,,52,100
59520,note_on,,,,,64,0,9,,,,,1,,,64,100
59648,note_off,,,,,128,0,9,,,,,1,,,64,100
59648,note_off,,,,,128,0,12,,,,,4,,,40,100
59648,note_off,,,,,128,0,10,,,,,2,,,64,100
59648,note_off,,,,,128,0,13,,,,,5,,,64,100
59648,note_off,,,,,128,0,14,,,,,5,,,52,100
59648,note_off,,,,,128,0,11,,,,,3,,,52,100
59712,note_on,,,,,64,0,9,,,,,1,,,62,100
59712,note_on,,,,,64,0,11,,,,,3,,,50,100
59712,note_on,,,,,64,0,13,,,,,5,,,62,100
59712,note_on,,,,,64,0,12,,,,,4,,,38,100
59712,note_on,,,,,64,0,10,,,,,2,,,62,100
59712,note_on,,,,,64,0,14,,,,,5,,,50,100
59840,note_off,,,,,128,0,10,,,,,2,,,62,100
59840,note_off,,,,,128,0,14,,,,,5,,,50,100
59840,note_off,,,,,128,0,13,,,,,5,,,62,100
59840,note_off,,,,,128,0,11,,,,,3,,,50,100
59840,note_off,,,,,128,0,9,,,,,1,,,62,100
59840,note_off,,,,,128,0,12,,,,,4,,,38,100
59904,note_on,,,,,64,0,9,,,,,1,,,61,100
59904,note_on,,,,,0,0,13,,,,,5,,,57,100
59904,note_on,,,,,64,0,12,,,,,4,,,37,100
59904,note_on,,,,,64,0,13,,,,,5,,,61,100
59904,note_on,,,,,64,0,14,,,,,5,,,49,100
59904,note_on,,,,,64,0,11,,,,,3,,,49,100
59904,note_on,,,,,64,0,10,,,,,2,,,61,100
60032,note_off,,,,,128,0,13,,,,,5,,,61,100
60032,note_off,,,,,128,0,12,,,,,4,,,37,100
60032,note_off,,,,,128,0,11,,,,,3,,,49,100
60032,note_off,,,,,128,0,10,,,,,2,,,61,100
60032,note_off,,,,,128,0,14,,,,,5,,,49,100
60032,note_off,,,,,128,0,9,,,,,1,,,61,100
60032,note_off,,,,,0,0,13,,,,,5,,,57,100
60096,note_on,,,,,64,0,11,,,,,3,,,47,100
60096,note_on,,,,,64,0,14,,,,,5,,,47,100
60096,note_on,,,,,64,0,10,,,,,2,,,59,100
60096,note_on,,,,,64,0,12,,,,,4,,,35,100
60096,note_on,,,,,64,0,13,,,,,5,,,59,100
60096,note_on,,,,,64,0,9,,,,,1,,,59,100
60224,note_off,,,,,128,0,11,,,,,3,,,47,100
60224,note_off,,,,,128,0,12,,,,,4,,,35,100
60224,note_off,,,,,128,0,13,,,,,5,,,59,100
60224,note_off,,,,,128,0,14,,,,,5,,,47,100
60224,note_off,,,,,128,0,9,,,,,1,,,59,100
60224,note_off,,,,,128,0,10,,,,,2,,,59,100
60288,note_on,,,,,64,0,10,,,,,2,,,57,100
60288,note_on,,,,,64,0,11,,,,,3,,,45,100
60288,note_on,,,,,64,0,13,,,,,5,,,57,100
60288,note_on,,,,,64,0,9,,,,,1,,,57,100
60288,note_on,,,,,64,0,14,,,,,5,,,45,100
60288,note_on,,,,,64,0,12,,,,,4,,,33,100
60416,note_off,,,,,128,0,14,,,,,5,,,45,100
60416,note_off,,,,,128,0,11,,,,,3,,,45,100
60416,note_off,,,,,128,0,10,,,,,2,,,57,100
60416,note_off,,,,,128,0,13,,,,,5,,,57,100
60416,note_off,,,,,128,0,9,,,,,1,,,57,100
60416,note_off,,,,,128,0,12,,,,,4,,,33,100
60480,note_on,,,,,64,0,12,,,,,4,,,45,100
60480,note_on,,,,,64,0,13,,,,,5,,,69,100
60480,note_on,,,,,64,0,11,,,,,3,,,57,100
60480,note_on,,,,,64,0,14,,,,,5,,,57,100
60480,note_on,,,,,64,0,9,,,,,1,,,69,100
60480,note_on,,,,,64,0,10,,,,,2,,,69,100
60608,note_off,,,,,128,0,13,,,,,5,,,69,100
60608,note_off,,,,,128,0,11,,,,,3,,,57,100
60608,note_off,,,,,128,0,14,,,,,5,,,57,100
60608,note_off,,,,,128,0,10,,,,,2,,,69,100
60608,note_off,,,,,128,0,9,,,,,1,,,69,100
60608,note_off,,,,,128,0,12,,,,,4,,,45,100
60672,note_on,,,,,64,0,10,,,,,2,,,68,100
60672,note_on,,,,,64,0,13,,,,,5,,,68,100
60672,note_on,,,,,64,0,12,,,,,4,,,44,100
60672,note_on,,,,,64,0,11,,,,,3,,,56,100
60672,note_on,,,,,64,0,14,,,,,5,,,56,100
60672,note_on,,,,,0,0,13,,,,,5,,,64,100
60672,note_on,,,,,64,0,9,,,,,1,,,68,100
60800,note_off,,,,,128,0,11,,,,,3,,,56,100
60800,note_off,,,,,0,0,13,,,,,5,,,64,100
60800,note_off,,,,,128,0,10,,,,,2,,,68,100
60800,note_off,,,,,128,0,13,,,,,5,,,68,100
60800,note_off,,,,,128,0,12,,,,,4,,,44,100
60800,note_off,,,,,128,0,9,,,,,1,,,68,100
60800,note_off,,,,,128,0,14,,,,,5,,,56,100
60864,note_on,,,,,64,0,12,,,,,4,,,42,100
60864,note_on,,,,,64,0,9,,,,,1,,,66,100
60864,note_on,,,,,64,0,11,,,,,3,,,54,100
60864,note_on,,,,,64,0,10,,,,,2,,,66,100
60864,note_on,,,,,64,0,14,,,,,5,,,54,100
60864,note_on,,,,,64,0,13,,,,,5,,,66,100
60992,note_off,,,,,128,0,14,,,,,5,,,54,100
60992,note_off,,,,,128,0,12,,,,,4,,,42,100
60992,note_off,,,,,128,0,10,,,,,2,,,66,100
60992,note_off,,,,,128,0,13,,,,,5,,,66,100
60992,note_off,,,,,128,0,9,,,,,1,,,66,100
60992,note_off,,,,,128,0,11,,,,,3,,,54,100
61056,note_on,,,,,64,0,11,,,,,3,,,52,100
61056,note_on,,,,,64,0,9,,,,,1,,,64,100
61056,note_on,,,,,64,0,14,,,,,5,,,52,100
61056,note_on,,,,,64,0,13,,,,,5,,,64,100
61056,note_on,,,,,64,0,10,,,,,2,,,64,100
61056,note_on,,,,,64,0,12,,,,,4,,,40,100
61184,note_off,,,,,128,0,13,,,,,5,,,64,100
61184,note_off,,,,,128,0,9,,,,,1,,,64,100
61184,note_off,,,,,128,0,14,,,,,5,,,52,100
61184,note_off,,,,,128,0,11,,,,,3,,,52,100
61184,note_off,,,,,128,0,10,,,,,2,,,64,100
61184,note_off,,,,,128,0,12,,,,,4,,,40,100
61248,note_on,,,,,64,0,9,,,,,1,,,62,100
61248,note_on,,,,,64,0,14,,,,,5,,,50,100
61248,note_on,,,,,64,0,11,,,,,3,,,50,100
61248,note_on,,,,,64,0,12,,,,,4,,,38,100
61248,note_on,,,,,64,0,10,,,,,2,,,62,100
61248,note_on,,,,,64,0,13,,,,,5,,,62,100
61376,note_off,,,,,128,0,12,,,,,4,,,38,100
61376,note_off,,,,,128,0,9,,,,,1,,,62,100
61376,note_off,,,,,128,0,10,,,,,2,,,62,100
61376,note_off,,,,,128,0,11,,,,,3,,,50,100
61376,note_off,,,,,128,0,13,,,,,5,,,62,100
61376,note_off,,,,,128,0,14,,,,,5,,,50,100
61440,note_on,,,,,64,0,9,,,,,1,,,61,100
61440,note_on,,,,,64,0,13,,,,,5,,,61,100
61440,note_on,,,,,64,0,14,,,,,5,,,49,100
61440,note_on,,,,,64,0,11,,,,,3,,,49,100
61440,note_on,,,,,64,0,10,,,,,2,,,61,100
61440,note_on,,,,,64,0,12,,,,,4,,,37,100
61440,note_on,,,,,0,0,13,,,,,5,,,57,100
61568,note_off,,,,,128,0,10,,,,,2,,,61,100
61568,note_off,,,,,128,0,11,,,,,3,,,49,100
61568,note_off,,,,,0,0,13,,,,,5,,,57,100
61568,note_off,,,,,128,0,12,,,,,4,,,37,100
61568,note_off,,,,,128,0,13,,,,,5,,,61,100
61568,note_off,,,,,128,0,14,,,,,5,,,49,100
61568,note_off,,,,,128,0,9,,,,,1,,,61,100
61632,note_on,,,,,64,0,13,,,,,5,,,59,100
61632,note_on,,,,,64,0,9,,,,,1,,,59,100
61632,note_on,,,,,64,0,10,,,,,2,,,59,100
61632,note_on,,,,,64,0,14,,,,,5,,,47,100
61632,note_on,,,,,64,0,11,,,,,3,,,47,100
61632,note_on,,,,,64,0,12,,,,,4,,,35,100
61760,note_off,,,,,128,0,12,,,,,4,,,35,100
61760,note_off,,,,,128,0,11,,,,,3,,,47,100
61760,note_off,,,,,128,0,9,,,,,1,,,59,100
61760,note_off,,,,,128,0,13,,,,,5,,,59,100
61760,note_off,,,,,128,0,14,,,,,5,,,47,100
61760,note_off,,,,,128,0,10,,,,,2,,,59,100
61824,note_on,,,,,64,0,12,,,,,4,,,33,100
61824,note_on,,,,,64,0,10,,,,,2,,,57,100
61824,note_on,,,,,64,0,13,,,,,5,,,57,100
61824,note_on,,,,,64,0,11,,,,,3,,,45,100
61824,note_on,,,,,64,0,9,,,,,1,,,57,100
61824,note_on,,,,,64,0,14,,,,,5,,,45,100
61952,note_off,,,,,128,0,11,,,,,3,,,45,100
61952,note_off,,,,,128,0,12,,,,,4,,,33,100
61952,note_off,,,,,128,0,14,,,,,5,,,45,100
61952,note_off,,,,,128,0,13,,,,,5,,,57,100
61952,note_off,,,,,128,0,10,,,,,2,,,57,100
61952,note_off,,,,,128,0,9,,,,,1,,,57,100
62016,note_on,,,,,64,0,11,,,,,3,,,52,100
62016,note_on,,,,,64,0,14,,,,,5,,,52,100
62016,note_on,,,,,64,0,12,,,,,4,,,40,100
62016,note_on,,,,,64,0,9,,,,,1,,,64,100
62016,note_on,,,,,64,0,10,,,,,2,,,64,100
62016,note_on,,,,,64,0,13,,,,,5,,,64,100
62144,note_off,,,,,128,0,10,,,,,2,,,64,100
62144,note_off,,,,,128,0,11,,,,,3,,,52,100
62144,note_off,,,,,128,0,14,,,,,5,,,52,100
62144,note_off,,,,,128,0,9,,,,,1,,,64,100
62144,note_off,,,,,128,0,12,,,,,4,,,40,100
62144,note_off,,,,,128,0,13,,,,,5,,,64,100
62208,note_on,,,,,64,0,9,,,,,1,,,62,100
62208,note_on,,,,,64,0,11,,,,,3,,,50,100
62208,note_on,,,,,64,0,13,,,,,5,,,62,100
62208,note_on,,,,,64,0,12,,,,,4,,,38,100
62208,note_on,,,,,64,0,14,,,,,5,,,50,100
62208,note_on,,,,,64,0,10,,,,,2,,,62,100
62336,note_off,,,,,128,0,13,,,,,5,,,62,100
62336,note_off,,,,,128,0,12,,,,,4,,,38,100
62336,note_off,,,,,128,0,10,,,,,2,,,62,100
62336,note_off,,,,,128,0,14,,,,,5,,,50,100
62336,note_off,,,,,128,0,11,,,,,3,,,50,100
62336,note_off,,,,,128,0,9,,,,,1,,,62,100
62400,note_on,,,,,64,0,9,,,,,1,,,61,100
62400,note_on,,,,,64,0,14,,,,,5,,,49,100
62400,note_on,,,,,64,0,12,,,,,4,,,37,100
62400,note_on,,,,,64,0,11,,,,,3,,,49,100
62400,note_on,,,,,64,0,10,,,,,2,,,61,100
62400,note_on,,,,,64,0,13,,,,,5,,,61,100
62528,note_off,,,,,128,0,12,,,,,4,,,37,100
62528,note_off,,,,,128,0,10,,,,,2,,,61,100
62528,note_off,,,,,128,0,11,,,,,3,,,49,100
62528,note_off,,,,,128,0,9,,,,,1,,,61,100
62528,note_off,,,,,128,0,14,,,,,5,,,49,100
62528,note_off,,,,,128,0,13,,,,,5,,,61,100
62592,note_on,,,,,64,0,9,,,,,1,,,59,100
62592,note_on,,,,,0,0,13,,,,,5,,,59,100
62592,note_on,,,,,64,0,14,,,,,5,,,47,100
62592,note_on,,,,,64,0,13,,,,,5,,,56,100
62592,note_on,,,,,64,0,11,,,,,3,,,47,100
62592,note_on,,,,,64,0,12,,,,,4,,,35,100
62592,note_on,,,,,64,0,10,,,,,2,,,59,100
62720,note_off,,,,,128,0,11,,,,,3,,,47,100
62720,note_off,,,,,0,0,13,,,,,5,,,59,100
62720,note_off,,,,,128,0,12,,,,,4,,,35,100
62720,note_off,,,,,128,0,9,,,,,1,,,59,100
62720,note_off,,,,,128,0,10,,,,,2,,,59,100
62720,note_off,,,,,128,0,14,,,,,5,,,47,100
62720,note_off,,,,,128,0,13,,,,,5,,,56,100
62784,note_on,,,,,64,0,12,,,,,4,,,33,100
62784,note_on,,,,,64,0,10,,,,,2,,,57,100
62784,note_on,,,,,64,0,14,,,,,5,,,45,100
62784,note_on,,,,,64,0,11,,,,,3,,,45,100
62784,note_on,,,,,64,0,13,,,,,5,,,57,100
62784,note_on,,,,,64,0,9,,,,,1,,,57,100
62912,note_off,,,,,128,0,10,,,,,2,,,57,100
62912,note_off,,,,,128,0,14,,,,,5,,,45,100
62912,note_off,,,,,128,0,11,,,,,3,,,45,100
62912,note_off,,,,,128,0,13,,,,,5,,,57,100
62912,note_off,,,,,128,0,12,,,,,4,,,33,100
62912,note_off,,,,,128,0,9,,,,,1,,,57,100
62976,note_on,,,,,0,0,13,,,,,5,,,56,100
62976,note_on,,,,,64,0,11,,,,,3,,,52,100
62976,note_on,,,,,64,0,14,,,,,5,,,52,100
62976,note_on,,,,,0,0,13,,,,,5,,,59,100
62976,note_on,,,,,64,0,13,,,,,5,,,64,100
62976,note_on,,,,,64,0,9,,,,,1,,,64,100
62976,note_on,,,,,64,0,10,,,,,2,,,64,100
62976,note_on,,,,,64,0,12,,,,,4,,,40,100
63232,note_off,,,,,256,0,13,,,,,5,,,64,100
63232,note_off,,,,,256,0,11,,,,,3,,,52,100
63232,note_off,,,,,256,0,14,,,,,5,,,52,100
63232,note_off,,,,,256,0,10,,,,,2,,,64,100
63232,note_off,,,,,0,0,13,,,,,5,,,59,100
63232,note_off,,,,,256,0,12,,,,,4,,,40,100
63232,note_off,,,,,256,0,9,,,,,1,,,64,100
63232,note_off,,,,,0,0,13,,,,,5,,,56,100
63552,note_on,,,,,320,0,9,,,,,1,,,76,85
63552,note_on,,,,,320,0,10,,,,,2,,,73,85
63680,note_off,,,,,128,0,9,,,,,1,,,76,100
63680,note_off,,,,,128,0,10,,,,,2,,,73,100
63744,note_on,,,,,64,0,9,,,,,1,,,76,85
63744,note_on,,,,,64,0,10,,,,,2,,,73,85
63744,note_on,,,,,0,0,9,,,,,1,,,81,85
63872,note_off,,,,,128,0,10,,,,,2,,,73,100
63872,note_off,,,,,0,0,9,,,,,1,,,81,100
63872,note_off,,,,,128,0,9,,,,,1,,,76,100
63936,note_on,,,,,64,0,10,,,,,2,,,73,86
63936,note_on,,,,,64,0,9,,,,,1,,,76,86
63936,note_on,,,,,0,0,9,,,,,1,,,81,86
64064,note_off,,,,,128,0,9,,,,,1,,,76,100
64064,note_off,,,,,128,0,10,,,,,2,,,73,100
64064,note_off,,,,,0,0,9,,,,,1,,,81,100
64128,note_on,,,,,0,0,9,,,,,1,,,81,86
64128,note_on,,,,,64,0,9,,,,,1,,,76,86
64128,note_on,,,,,64,0,10,,,,,2,,,73,86
64256,note_off,,,,,128,0,10,,,,,2,,,73,100
64256,note_off,,,,,128,0,9,,,,,1,,,76,100
64256,note_off,,,,,0,0,9,,,,,1,,,81,100
64320,note_on,,,,,0,0,9,,,,,1,,,79,87
64320,note_on,,,,,64,0,9,,,,,1,,,73,87
64320,note_on,,,,,1088,0,11,,,,,3,,,57,87
64320,note_on,,,,,0,0,13,,,,,5,,,64,100
64320,note_on,,,,,1088,0,14,,,,,5,,,57,100
64320,note_on,,,,,1088,0,13,,,,,5,,,67,100
64320,note_on,,,,,1088,0,12,,,,,4,,,45,87
64320,note_on,,,,,64,0,10,,,,,2,,,69,87
64448,note_off,,,,,128,0,14,,,,,5,,,57,100
64448,note_off,,,,,0,0,9,,,,,1,,,79,100
64448,note_off,,,,,128,0,9,,,,,1,,,73,100
64448,note_off,,,,,128,0,13,,,,,5,,,67,100
64448,note_off,,,,,0,0,13,,,,,5,,,64,100
64448,note_off,,,,,128,0,12,,,,,4,,,45,100
64448,note_off,,,,,128,0,11,,,,,3,,,57,100
64448,note_off,,,,,128,0,10,,,,,2,,,69,100
64512,note_on,,,,,0,0,13,,,,,5,,,69,100
64512,note_on,,,,,64,0,11,,,,,3,,,62,87
64512,note_on,,,,,64,0,12,,,,,4,,,50,87
64512,note_on,,,,,64,0,14,,,,,5,,,62,100
64512,note_on,,,,,64,0,9,,,,,1,,,74,87
64512,note_on,,,,,0,0,9,,,,,1,,,78,87
64512,note_on,,,,,64,0,10,,,,,2,,,69,87
64512,note_on,,,,,64,0,13,,,,,5,,,66,100
64640,note_off,,,,,128,0,14,,,,,5,,,62,100
64640,note_off,,,,,0,0,13,,,,,5,,,69,100
64640,note_off,,,,,128,0,12,,,,,4,,,50,100
64640,note_off,,,,,128,0,11,,,,,3,,,62,100
64640,note_off,,,,,128,0,13,,,,,5,,,66,100
64704,note_on,,,,,0,0,13,,,,,5,,,69,100
64704,note_on,,,,,64,0,13,,,,,5,,,66,100
64704,note_on,,,,,64,0,14,,,,,5,,,62,100
64704,note_on,,,,,64,0,11,,,,,3,,,62,88
64704,note_on,,,,,64,0,12,,,,,4,,,50,88
64768,note_off,,,,,0,0,9,,,,,1,,,78,100
64768,note_off,,,,,256,0,9,,,,,1,,,74,100
64768,note_off,,,,,256,0,10,,,,,2,,,69,100
64832,note_off,,,,,128,0,12,,,,,4,,,50,100
64832,note_off,,,,,0,0,13,,,,,5,,,69,100
64832,note_off,,,,,128,0,13,,,,,5,,,66,100
64832,note_off,,,,,128,0,14,,,,,5,,,62,100
64832,note_off,,,,,128,0,11,,,,,3,,,62,100
64896,note_on,,,,,64,0,11,,,,,3,,,62,89
64896,note_on,,,,,64,0,12,,,,,4,,,50,89
64896,note_on,,,,,0,0,13,,,,,5,,,66,100
64896,note_on,,,,,64,0,13,,,,,5,,,69,100
64896,note_on,,,,,64,0,14,,,,,5,,,62,100
65024,note_off,,,,,128,0,11,,,,,3,,,62,100
65024,note_off,,,,,128,0,12,,,,,4,,,50,100
65024,note_off,,,,,128,0,13,,,,,5,,,69,100
65024,note_off,,,,,0,0,13,,,,,5,,,66,100
65024,note_off,,,,,128,0,14,,,,,5,,,62,100
65088,note_on,,,,,0,0,9,,,,,1,,,78,89
65088,note_on,,,,,64,0,13,,,,,5,,,66,100
65088,note_on,,,,,320,0,10,,,,,2,,,69,89
65088,note_on,,,,,64,0,12,,,,,4,,,49,89
65088,note_on,,,,,0,0,13,,,,,5,,,69,100
65088,note_on,,,,,64,0,11,,,,,3,,,61,89
65088,note_on,,,,,320,0,9,,,,,1,,,74,89
65088,note_on,,,,,64,0,14,,,,,5,,,61,100
65216,note_off,,,,,128,0,13,,,,,5,,,66,100
65216,note_off,,,,,128,0,14,,,,,5,,,61,100
65216,note_off,,,,,0,0,13,,,,,5,,,69,100
65216,note_off,,,,,128,0,10,,,,,2,,,69,100
65216,note_off,,,,,128,0,12,,,,,4,,,49,100
65216,note_off,,,,,128,0,11,,,,,3,,,61,100
65216,note_off,,,,,128,0,9,,,,,1,,,74,100
65216,note_off,,,,,0,0,9,,,,,1,,,78,100
65280,note_on,,,,,64,0,12,,,,,4,,,47,90
65280,note_on,,,,,64,0,14,,,,,5,,,59,100
65280,note_on,,,,,0,0,13,,,,,5,,,66,100
65280,note_on,,,,,64,0,13,,,,,5,,,62,100
65280,note_on,,,,,64,0,10,,,,,2,,,75,90
65280,note_on,,,,,64,0,11,,,,,3,,,59,90
65280,note_on,,,,,0,0,9,,,,,1,,,83,90
65280,note_on,,,,,64,0,9,,,,,1,,,78,90
65408,note_off,,,,,128,0,9,,,,,1,,,78,100
65408,note_off,,,,,0,0,9,,,,,1,,,83,100
65408,note_off,,,,,128,0,10,,,,,2,,,75,100
65472,note_on,,,,,64,0,9,,,,,1,,,78,90
65472,note_on,,,,,64,0,10,,,,,2,,,75,90
65472,note_on,,,,,0,0,9,,,,,1,,,83,90
65536,note_off,,,,,256,0,11,,,,,3,,,59,100
65536,note_off,,,,,256,0,14,,,,,5,,,59,100
65536,note_off,,,,,256,0,13,,,,,5,,,62,100
65536,note_off,,,,,256,0,12,,,,,4,,,47,100
65536,note_off,,,,,0,0,13,,,,,5,,,66,100
65600,note_off,,,,,128,0,9,,,,,1,,,78,100
65600,note_off,,,,,0,0,9,,,,,1,,,83,100
65600,note_off,,,,,128,0,10,,,,,2,,,75,100
65664,note_on,,,,,64,0,10,,,,,2,,,75,91
65664,note_on,,,,,64,0,9,,,,,1,,,78,91
65664,note_on,,,,,0,0,9,,,,,1,,,83,91
65792,note_off,,,,,128,0,10,,,,,2,,,75,100
65792,note_off,,,,,128,0,9,,,,,1,,,78,100
65792,note_off,,,,,0,0,9,,,,,1,,,83,100
65856,note_on,,,,,64,0,10,,,,,2,,,71,92
65856,note_on,,,,,320,0,12,,,,,4,,,47,92
65856,note_on,,,,,64,0,9,,,,,1,,,75,92
65856,note_on,,,,,320,0,14,,,,,5,,,59,100
65856,note_on,,,,,0,0,13,,,,,5,,,63,100
65856,note_on,,,,,320,0,11,,,,,3,,,59,92
65856,note_on,,,,,320,0,13,,,,,5,,,69,100
65856,note_on,,,,,0,0,9,,,,,1,,,81,92
65984,note_off,,,,,128,0,10,,,,,2,,,71,100
65984,note_off,,,,,128,0,9,,,,,1,,,75,100
65984,note_off,,,,,0,0,9,,,,,1,,,81,100
65984,note_off,,,,,128,0,11,,,,,3,,,59,100
65984,note_off,,,,,128,0,13,,,,,5,,,69,100
65984,note_off,,,,,0,0,13,,,,,5,,,63,100
65984,note_off,,,,,128,0,12,,,,,4,,,47,100
65984,note_off,,,,,128,0,14,,,,,5,,,59,100
66048,note_on,,,,,64,0,12,,,,,4,,,52,92
66048,note_on,,,,,64,0,13,,,,,5,,,68,100
66048,note_on,,,,,0,0,13,,,,,5,,,71,100
66048,note_on,,,,,64,0,11,,,,,3,,,64,92
66048,note_on,,,,,64,0,14,,,,,5,,,64,100
66048,note_on,,,,,0,0,9,,,,,1,,,80,92
66048,note_on,,,,,64,0,9,,,,,1,,,76,92
66048,note_on,,,,,64,0,10,,,,,2,,,71,92
66176,note_off,,,,,128,0,12,,,,,4,,,52,100
66176,note_off,,,,,128,0,13,,,,,5,,,68,100
66176,note_off,,,,,128,0,11,,,,,3,,,64,100
66176,note_off,,,,,128,0,14,,,,,5,,,64,100
66176,note_off,,,,,0,0,13,,,,,5,,,71,100
66240,note_on,,,,,64,0,13,,,,,5,,,71,100
66240,note_on,,,,,64,0,12,,,,,4,,,52,93
66240,note_on,,,,,0,0,13,,,,,5,,,68,100
66240,note_on,,,,,64,0,14,,,,,5,,,64,100
66240,note_on,,,,,64,0,11,,,,,3,,,64,93
66304,note_off,,,,,256,0,10,,,,,2,,,71,100
66304,note_off,,,,,0,0,9,,,,,1,,,80,100
66304,note_off,,,,,256,0,9,,,,,1,,,76,100
66368,note_off,,,,,128,0,11,,,,,3,,,64,100
66368,note_off,,,,,128,0,13,,,,,5,,,71,100
66368,note_off,,,,,0,0,13,,,,,5,,,68,100
66368,note_off,,,,,128,0,14,,,,,5,,,64,100
66368,note_off,,,,,128,0,12,,,,,4,,,52,100
66432,note_on,,,,,64,0,11,,,,,3,,,64,93
66432,note_on,,,,,0,0,13,,,,,5,,,71,100
66432,note_on,,,,,64,0,13,,,,,5,,,68,100
66432,note_on,,,,,64,0,14,,,,,5,,,64,100
66432,note_on,,,,,64,0,12,,,,,4,,,52,93
66560,note_off,,,,,128,0,11,,,,,3,,,64,100
66560,note_off,,,,,128,0,14,,,,,5,,,64,100
66560,note_off,,,,,0,0,13,,,,,5,,,71,100
66560,note_off,,,,,128,0,12,,,,,4,,,52,100
66560,note_off,,,,,128,0,13,,,,,5,,,68,100
66624,note_on,,,,,64,0,14,,,,,5,,,62,100
66624,note_on,,,,,0,0,9,,,,,1,,,80,94
66624,note_on,,,,,320,0,9,,,,,1,,,76,94
66624,note_on,,,,,0,0,13,,,,,5,,,71,100
66624,note_on,,,,,64,0,13,,,,,5,,,68,100
66624,note_on,,,,,320,0,10,,,,,2,,,71,94
66624,note_on,,,,,64,0,11,,,,,3,,,62,94
66624,note_on,,,,,64,0,12,,,,,4,,,50,94
66752,note_off,,,,,0,0,13,,,,,5,,,71,100
66752,note_off,,,,,128,0,13,,,,,5,,,68,100
66752,note_off,,,,,128,0,10,,,,,2,,,71,100
66752,note_off,,,,,128,0,12,,,,,4,,,50,100
66752,note_off,,,,,128,0,14,,,,,5,,,62,100
66752,note_off,,,,,128,0,11,,,,,3,,,62,100
66752,note_off,,,,,128,0,9,,,,,1,,,76,100
66752,note_off,,,,,0,0,9,,,,,1,,,80,100
66816,note_on,,,,,64,0,10,,,,,2,,,76,95
66816,note_on,,,,,0,0,13,,,,,5,,,68,100
66816,note_on,,,,,64,0,11,,,,,3,,,61,95
66816,note_on,,,,,64,0,9,,,,,1,,,81,95
66816,note_on,,,,,0,0,9,,,,,1,,,85,95
66816,note_on,,,,,64,0,13,,,,,5,,,64,100
66816,note_on,,,,,64,0,14,,,,,5,,,61,100
66816,note_on,,,,,64,0,12,,,,,4,,,49,95
66944,note_off,,,,,128,0,9,,,,,1,,,81,100
66944,note_off,,,,,128,0,10,,,,,2,,,76,100
66944,note_off,,,,,0,0,9,,,,,1,,,85,100
67008,note_on,,,,,64,0,10,,,,,2,,,76,95
67008,note_on,,,,,0,0,9,,,,,1,,,85,95
67008,note_on,,,,,64,0,9,,,,,1,,,81,95
67072,note_off,,,,,256,0,11,,,,,3,,,61,100
67072,note_off,,,,,256,0,13,,,,,5,,,64,100
67072,note_off,,,,,256,0,14,,,,,5,,,61,100
67072,note_off,,,,,0,0,13,,,,,5,,,68,100
67072,note_off,,,,,256,0,12,,,,,4,,,49,100
67136,note_off,,,,,128,0,10,,,,,2,,,76,100
67136,note_off,,,,,128,0,9,,,,,1,,,81,100
67136,note_off,,,,,0,0,9,,,,,1,,,85,100
67200,note_on,,,,,64,0,10,,,,,2,,,76,96
67200,note_on,,,,,64,0,9,,,,,1,,,81,96
67200,note_on,,,,,0,0,9,,,,,1,,,85,96
67328,note_off,,,,,128,0,10,,,,,2,,,76,100
67328,note_off,,,,,128,0,9,,,,,1,,,81,100
67328,note_off,,,,,0,0,9,,,,,1,,,85,100
67392,note_on,,,,,320,0,14,,,,,5,,,61,100
67392,note_on,,,,,64,0,10,,,,,2,,,73,96
67392,note_on,,,,,320,0,13,,,,,5,,,68,100
67392,note_on,,,,,0,0,13,,,,,5,,,71,100
67392,note_on,,,,,64,0,9,,,,,1,,,76,96
67392,note_on,,,,,0,0,9,,,,,1,,,83,96
67392,note_on,,,,,320,0,11,,,,,3,,,61,96
67392,note_on,,,,,320,0,12,,,,,4,,,49,96
67520,note_off,,,,,128,0,13,,,,,5,,,68,100
67520,note_off,,,,,0,0,13,,,,,5,,,71,100
67520,note_off,,,,,0,0,9,,,,,1,,,83,100
67520,note_off,,,,,128,0,11,,,,,3,,,61,100
67520,note_off,,,,,128,0,9,,,,,1,,,76,100
67520,note_off,,,,,128,0,14,,,,,5,,,61,100
67520,note_off,,,,,128,0,12,,,,,4,,,49,100
67520,note_off,,,,,128,0,10,,,,,2,,,73,100
67584,note_on,,,,,0,0,9,,,,,1,,,81,97
67584,note_on,,,,,64,0,11,,,,,3,,,66,97
67584,note_on,,,,,0,0,13,,,,,5,,,73,100
67584,note_on,,,,,64,0,13,,,,,5,,,69,100
67584,note_on,,,,,64,0,12,,,,,4,,,54,97
67584,note_on,,,,,64,0,14,,,,,5,,,66,100
67584,note_on,,,,,64,0,10,,,,,2,,,73,97
67584,note_on,,,,,64,0,9,,,,,1,,,73,97
67712,note_off,,,,,128,0,11,,,,,3,,,66,100
67712,note_off,,,,,128,0,12,,,,,4,,,54,100
67712,note_off,,,,,128,0,13,,,,,5,,,69,100
67712,note_off,,,,,0,0,13,,,,,5,,,73,100
67712,note_off,,,,,128,0,14,,,,,5,,,66,100
67776,note_on,,,,,0,0,13,,,,,5,,,73,100
67776,note_on,,,,,64,0,13,,,,,5,,,69,100
67776,note_on,,,,,64,0,11,,,,,3,,,66,98
67776,note_on,,,,,64,0,12,,,,,4,,,54,98
67776,note_on,,,,,64,0,14,,,,,5,,,66,100
67840,note_off,,,,,256,0,10,,,,,2,,,73,100
67840,note_off,,,,,256,0,9,,,,,1,,,73,100
67840,note_off,,,,,0,0,9,,,,,1,,,81,100
67904,note_off,,,,,0,0,13,,,,,5,,,73,100
67904,note_off,,,,,128,0,13,,,,,5,,,69,100
67904,note_off,,,,,128,0,11,,,,,3,,,66,100
67904,note_off,,,,,128,0,12,,,,,4,,,54,100
67904,note_off,,,,,128,0,14,,,,,5,,,66,100
67968,note_on,,,,,64,0,13,,,,,5,,,69,100
67968,note_on,,,,,64,0,12,,,,,4,,,54,98
67968,note_on,,,,,0,0,13,,,,,5,,,73,100
67968,note_on,,,,,64,0,11,,,,,3,,,66,98
67968,note_on,,,,,64,0,14,,,,,5,,,66,100
68096,note_off,,,,,128,0,14,,,,,5,,,66,100
68096,note_off,,,,,128,0,12,,,,,4,,,54,100
68096,note_off,,,,,128,0,11,,,,,3,,,66,100
68096,note_off,,,,,0,0,13,,,,,5,,,73,100
68096,note_off,,,,,128,0,13,,,,,5,,,69,100
68160,note_on,,,,,0,0,13,,,,,5,,,64,100
68160,note_on,,,,,64,0,13,,,,,5,,,69,100
68160,note_on,,,,,64,0,14,,,,,5,,,61,100
68160,note_on,,,,,320,0,10,,,,,2,,,73,99
68160,note_on,,,,,64,0,11,,,,,3,,,61,99
68160,note_on,,,,,320,0,9,,,,,1,,,76,99
68160,note_on,,,,,0,0,9,,,,,1,,,81,99
68160,note_on,,,,,64,0,12,,,,,4,,,49,99
68288,note_off,,,,,128,0,10,,,,,2,,,73,100
68288,note_off,,,,,128,0,12,,,,,4,,,49,100
68288,note_off,,,,,0,0,9,,,,,1,,,81,100
68288,note_off,,,,,128,0,13,,,,,5,,,69,100
68288,note_off,,,,,0,0,13,,,,,5,,,64,100
68288,note_off,,,,,128,0,14,,,,,5,,,61,100
68288,note_off,,,,,128,0,11,,,,,3,,,61,100
68288,note_off,,,,,128,0,9,,,,,1,,,76,100
68352,note_on,,,,,64,0,14,,,,,5,,,63,100
68352,note_on,,,,,64,0,10,,,,,2,,,71,99
68352,note_on,,,,,0,0,13,,,,,5,,,69,100
68352,note_on,,,,,64,0,11,,,,,3,,,63,99
68352,note_on,,,,,0,0,9,,,,,1,,,81,99
68352,note_on,,,,,64,0,13,,,,,5,,,71,100
68352,note_on,,,,,64,0,9,,,,,1,,,78,99
68352,note_on,,,,,64,0,12,,,,,4,,,51,99
68480,note_off,,,,,128,0,12,,,,,4,,,51,100
68480,note_off,,,,,128,0,11,,,,,3,,,63,100
68480,note_off,,,,,128,0,14,,,,,5,,,63,100
68480,note_off,,,,,128,0,9,,,,,1,,,78,100
68480,note_off,,,,,128,0,13,,,,,5,,,71,100
68480,note_off,,,,,0,0,13,,,,,5,,,69,100
68480,note_off,,,,,0,0,9,,,,,1,,,81,100
68480,note_off,,,,,128,0,10,,,,,2,,,71,100
68736,note_on,,,,,256,0,13,,,,,5,,,68,100
68736,note_on,,,,,256,0,14,,,,,5,,,64,100
68736,note_on,,,,,0,0,13,,,,,5,,,71,100
68736,note_on,,,,,256,0,9,,,,,1,,,76,100
68736,note_on,,,,,0,0,9,,,,,1,,,80,100
68736,note_on,,,,,256,0,12,,,,,4,,,52,100
68736,note_on,,,,,256,0,11,,,,,3,,,64,100
68736,note_on,,,,,256,0,10,,,,,2,,,71,100
68864,note_off,,,,,128,0,9,,,,,1,,,76,100
68864,note_off,,,,,0,0,9,,,,,1,,,80,100
68864,note_off,,,,,128,0,12,,,,,4,,,52,100
68864,note_off,,,,,128,0,11,,,,,3,,,64,100
68864,note_off,,,,,128,0,10,,,,,2,,,71,100
68864,note_off,,,,,128,0,13,,,,,5,,,68,100
68864,note_off,,,,,0,0,13,,,,,5,,,71,100
68864,note_off,,,,,128,0,14,,,,,5,,,64,100
69120,note_on,,,,,256,0,10,,,,,2,,,73,100
69120,note_on,,,,,256,0,11,,,,,3,,,45,100
69120,note_on,,,,,256,0,9,,,,,1,,,76,100
69120,note_on,,,,,0,0,9,,,,,1,,,78,100
69120,note_on,,,,,256,0,13,,,,,5,,,64,100
69120,note_on,,,,,256,0,12,,,,,4,,,33,100
69120,note_on,,,,,0,0,13,,,,,5,,,66,100
69120,note_on,,,,,256,0,14,,,,,5,,,45,100
69248,note_off,,,,,0,0,13,,,,,5,,,66,100
69248,note_off,,,,,128,0,13,,,,,5,,,64,100
69248,note_off,,,,,128,0,10,,,,,2,,,73,100
69248,note_off,,,,,128,0,9,,,,,1,,,76,100
69248,note_off,,,,,128,0,11,,,,,3,,,45,100
69248,note_off,,,,,0,0,9,,,,,1,,,78,100
69248,note_off,,,,,128,0,12,,,,,4,,,33,100
69248,note_off,,,,,128,0,14,,,,,5,,,45,100
69504,note_on,,,,,256,0,9,,,,,1,,,75,97
69504,note_on,,,,,0,0,9,,,,,1,,,78,97
69504,note_on,,,,,256,0,11,,,,,3,,,47,97
69504,note_on,,,,,256,0,14,,,,,5,,,47,100
69504,note_on,,,,,0,0,13,,,,,5,,,66,100
69504,note_on,,,,,256,0,13,,,,,5,,,63,100
69504,note_on,,,,,256,0,12,,,,,4,,,35,97
69504,note_on,,,,,256,0,10,,,,,2,,,71,97
69632,note_off,,,,,0,0,13,,,,,5,,,66,100
69632,note_off,,,,,128,0,13,,,,,5,,,63,100
69632,note_off,,,,,128,0,12,,,,,4,,,35,100
69632,note_off,,,,,128,0,9,,,,,1,,,75,100
69632,note_off,,,,,128,0,11,,,,,3,,,47,100
69632,note_off,,,,,0,0,9,,,,,1,,,78,100
69632,note_off,,,,,128,0,10,,,,,2,,,71,100
69632,note_off,,,,,128,0,14,,,,,5,,,47,100
69888,note_on,,,,,11264,0,8,,,,,0,,,76,100
69888,note_on,,,,,256,0,11,,,,,3,,,52,93
69888,note_on,,,,,256,0,9,,,,,1,,,76,93
69888,note_on,,,,,0,0,13,,,,,5,,,68,100
69888,note_on,,,,,256,0,13,,,,,5,,,59,100
69888,note_on,,,,,256,0,14,,,,,5,,,52,100
69888,note_on,,,,,256,0,12,,,,,4,,,40,93
69888,note_on,,,,,256,0,10,,,,,2,,,68,93
69952,note_off,,,,,64,0,8,,,,,0,,,76,100
69984,note_on,,,,,32,0,8,,,,,0,,,80,100
70048,note_off,,,,,64,0,8,,,,,0,,,80,100
70080,note_on,,,,,32,0,8,,,,,0,,,83,100
70144,note_off,,,,,64,0,8,,,,,0,,,83,100
70144,note_off,,,,,256,0,14,,,,,5,,,52,100
70144,note_off,,,,,256,0,13,,,,,5,,,59,100
70144,note_off,,,,,256,0,12,,,,,4,,,40,100
70144,note_off,,,,,0,0,13,,,,,5,,,68,100
70144,note_off,,,,,256,0,9,,,,,1,,,76,100
70144,note_off,,,,,256,0,11,,,,,3,,,52,100
70144,note_off,,,,,256,0,10,,,,,2,,,68,100
70176,note_on,,,,,32,0,8,,,,,0,,,80,100
70240,note_off,,,,,64,0,8,,,,,0,,,80,100
70272,note_on,,,,,32,0,8,,,,,0,,,76,100
70336,note_off,,,,,64,0,8,,,,,0,,,76,100
70368,note_on,,,,,32,0,8,,,,,0,,,80,100
70432,note_off,,,,,64,0,8,,,,,0,,,80,100
70464,note_on,,,,,32,0,8,,,,,0,,,83,100
70528,note_off,,,,,64,0,8,,,,,0,,,83,100
70560,note_on,,,,,32,0,8,,,,,0,,,80,100
70624,note_off,,,,,64,0,8,,,,,0,,,80,100
70656,note_on,,,,,32,0,8,,,,,0,,,76,100
70720,note_off,,,,,64,0,8,,,,,0,,,76,100
70752,note_on,,,,,32,0,8,,,,,0,,,80,100
70816,note_off,,,,,64,0,8,,,,,0,,,80,100
70848,note_on,,,,,32,0,8,,,,,0,,,83,100
70912,note_off,,,,,64,0,8,,,,,0,,,83,100
70944,note_on,,,,,32,0,8,,,,,0,,,80,100
71008,note_off,,,,,64,0,8,,,,,0,,,80,100
71040,note_on,,,,,32,0,8,,,,,0,,,76,100
71104,note_off,,,,,64,0,8,,,,,0,,,76,100
71136,note_on,,,,,32,0,8,,,,,0,,,80,100
71200,note_off,,,,,64,0,8,,,,,0,,,80,100
71232,note_on,,,,,32,0,8,,,,,0,,,78,100
71296,note_off,,,,,64,0,8,,,,,0,,,78,100
71328,note_on,,,,,32,0,8,,,,,0,,,76,100
71392,note_off,,,,,64,0,8,,,,,0,,,76,100
71424,set_tempo,,,,,12672,1,0,,500000,,,,,,,
71424,note_on,,,,,0,0,13,,,,,5,,,66,100
71424,note_on,,,,,1280,0,13,,,,,5,,,63,100
71424,note_on,,,,,1280,0,14,,,,,5,,,47,100
71424,note_on,,,,,1280,0,10,,,,,2,,,71,85
71424,note_on,,,,,1280,0,11,,,,,3,,,47,85
71424,note_on,,,,,0,0,9,,,,,1,,,78,85
71424,note_on,,,,,1280,0,12,,,,,4,,,35,85
71424,note_on,,,,,32,0,8,,,,,0,,,78,100
71424,note_on,,,,,1280,0,9,,,,,1,,,75,85
71488,note_off,,,,,64,0,8,,,,,0,,,78,100
71520,note_on,,,,,32,0,8,,,,,0,,,71,100
71584,note_off,,,,,64,0,8,,,,,0,,,71,100
71616,note_on,,,,,32,0,8,,,,,0,,,75,100
71680,note_off,,,,,0,0,13,,,,,5,,,66,100
71680,note_off,,,,,256,0,13,,,,,5,,,63,100
71680,note_off,,,,,256,0,14,,,,,5,,,47,100
71680,note_off,,,,,256,0,11,,,,,3,,,47,100
71680,note_off,,,,,64,0,8,,,,,0,,,75,100
71680,note_off,,,,,256,0,10,,,,,2,,,71,100
71680,note_off,,,,,0,0,9,,,,,1,,,78,100
71680,note_off,,,,,256,0,9,,,,,1,,,75,100
71680,note_off,,,,,256,0,12,,,,,4,,,35,100
71712,note_on,,,,,32,0,8,,,,,0,,,78,100
71776,note_off,,,,,64,0,8,,,,,0,,,78,100
71808,note_on,,,,,32,0,8,,,,,0,,,83,100
71872,note_off,,,,,64,0,8,,,,,0,,,83,100
71904,note_on,,,,,32,0,8,,,,,0,,,71,100
71968,note_off,,,,,64,0,8,,,,,0,,,71,100
72000,note_on,,,,,32,0,8,,,,,0,,,75,100
72064,note_off,,,,,64,0,8,,,,,0,,,75,100
72096,note_on,,,,,32,0,8,,,,,0,,,78,100
72144,set_tempo,,,,,720,1,0,,495867,,,,,,,
72160,note_off,,,,,64,0,8,,,,,0,,,78,100
72192,note_on,,,,,32,0,8,,,,,0,,,83,100
72256,note_off,,,,,64,0,8,,,,,0,,,83,100
72288,note_on,,,,,32,0,8,,,,,0,,,71,100
72352,note_off,,,,,64,0,8,,,,,0,,,71,100
72384,note_on,,,,,32,0,8,,,,,0,,,75,100
72448,note_off,,,,,64,0,8,,,,,0,,,75,100
72480,note_on,,,,,32,0,8,,,,,0,,,78,100
72544,note_off,,,,,64,0,8,,,,,0,,,78,100
72576,note_on,,,,,32,0,8,,,,,0,,,83,100
72640,note_off,,,,,64,0,8,,,,,0,,,83,100
72672,note_on,,,,,32,0,8,,,,,0,,,81,98
72736,note_off,,,,,64,0,8,,,,,0,,,81,100
72768,note_on,,,,,32,0,8,,,,,0,,,80,95
72832,note_off,,,,,64,0,8,,,,,0,,,80,100
72864,note_on,,,,,32,0,8,,,,,0,,,78,92
72864,set_tempo,,,,,720,1,0,,491803,,,,,,,
72928,note_off,,,,,64,0,8,,,,,0,,,78,100
72960,note_on,,,,,1280,0,14,,,,,5,,,52,100
72960,note_on,,,,,0,0,9,,,,,1,,,80,70
72960,note_on,,,,,1280,0,10,,,,,2,,,71,70
72960,note_on,,,,,0,0,13,,,,,5,,,71,100
72960,note_on,,,,,1280,0,13,,,,,5,,,68,100
72960,note_on,,,,,1280,0,9,,,,,1,,,76,70
72960,note_on,,,,,1280,0,12,,,,,4,,,40,70
72960,note_on,,,,,32,0,8,,,,,0,,,80,89
72960,note_on,,,,,1280,0,11,,,,,3,,,52,70
73024,note_off,,,,,64,0,8,,,,,0,,,80,100
73056,note_on,,,,,32,0,8,,,,,0,,,76,86
73120,note_off,,,,,64,0,8,,,,,0,,,76,100
73152,note_on,,,,,32,0,8,,,,,0,,,80,85
73216,note_off,,,,,256,0,12,,,,,4,,,40,100
73216,note_off,,,,,64,0,8,,,,,0,,,80,100
73216,note_off,,,,,256,0,10,,,,,2,,,71,100
73216,note_off,,,,,256,0,11,,,,,3,,,52,100
73216,note_off,,,,,0,0,13,,,,,5,,,71,100
73216,note_off,,,,,256,0,14,,,,,5,,,52,100
73216,note_off,,,,,256,0,9,,,,,1,,,76,100
73216,note_off,,,,,0,0,9,,,,,1,,,80,100
73216,note_off,,,,,256,0,13,,,,,5,,,68,100
73248,note_on,,,,,32,0,8,,,,,0,,,83,85
73312,note_off,,,,,64,0,8,,,,,0,,,83,100
73344,note_on,,,,,32,0,8,,,,,0,,,80,85
73408,note_off,,,,,64,0,8,,,,,0,,,80,100
73440,note_on,,,,,32,0,8,,,,,0,,,76,85
73504,note_off,,,,,64,0,8,,,,,0,,,76,100
73536,note_on,,,,,32,0,8,,,,,0,,,80,85
73584,set_tempo,,,,,720,1,0,,487804,,,,,,,
73600,note_off,,,,,64,0,8,,,,,0,,,80,100
73632,note_on,,,,,32,0,8,,,,,0,,,83,85
73696,note_off,,,,,64,0,8,,,,,0,,,83,100
73728,note_on,,,,,32,0,8,,,,,0,,,76,86
73792,note_off,,,,,64,0,8,,,,,0,,,76,100
73824,note_on,,,,,32,0,8,,,,,0,,,80,86
73888,note_off,,,,,64,0,8,,,,,0,,,80,100
73920,note_on,,,,,32,0,8,,,,,0,,,83,86
73984,note_off,,,,,64,0,8,,,,,0,,,83,100
74016,note_on,,,,,32,0,8,,,,,0,,,80,86
74080,note_off,,,,,64,0,8,,,,,0,,,80,100
74112,note_on,,,,,32,0,8,,,,,0,,,76,86
74176,note_off,,,,,64,0,8,,,,,0,,,76,100
74208,note_on,,,,,32,0,8,,,,,0,,,80,87
74272,note_off,,,,,64,0,8,,,,,0,,,80,100
74304,note_on,,,,,32,0,8,,,,,0,,,78,87
74304,set_tempo,,,,,720,1,0,,483870,,,,,,,
74368,note_off,,,,,64,0,8,,,,,0,,,78,100
74400,note_on,,,,,32,0,8,,,,,0,,,76,87
74464,note_off,,,,,64,0,8,,,,,0,,,76,100
74496,note_on,,,,,1280,0,10,,,,,2,,,71,70
74496,note_on,,,,,1280,0,9,,,,,1,,,75,70
74496,note_on,,,,,1280,0,14,,,,,5,,,47,100
74496,note_on,,,,,1280,0,11,,,,,3,,,47,70
74496,note_on,,,,,32,0,8,,,,,0,,,78,87
74496,note_on,,,,,0,0,13,,,,,5,,,66,100
74496,note_on,,,,,1280,0,12,,,,,4,,,35,70
74496,note_on,,,,,1280,0,13,,,,,5,,,63,100
74496,note_on,,,,,0,0,9,,,,,1,,,78,70
74560,note_off,,,,,64,0,8,,,,,0,,,78,100
74592,note_on,,,,,32,0,8,,,,,0,,,71,87
74656,note_off,,,,,64,0,8,,,,,0,,,71,100
74688,note_on,,,,,32,0,8,,,,,0,,,75,88
74752,note_off,,,,,0,0,9,,,,,1,,,78,100
74752,note_off,,,,,64,0,8,,,,,0,,,75,100
74752,note_off,,,,,0,0,13,,,,,5,,,66,100
74752,note_off,,,,,256,0,10,,,,,2,,,71,100
74752,note_off,,,,,256,0,11,,,,,3,,,47,100
74752,note_off,,,,,256,0,14,,,,,5,,,47,100
74752,note_off,,,,,256,0,12,,,,,4,,,35,100
74752,note_off,,,,,256,0,13,,,,,5,,,63,100
74752,note_off,,,,,256,0,9,,,,,1,,,75,100
74784,note_on,,,,,32,0,8,,,,,0,,,78,88
74848,note_off,,,,,64,0,8,,,,,0,,,78,100
74880,note_on,,,,,32,0,8,,,,,0,,,83,88
74944,note_off,,,,,64,0,8,,,,,0,,,83,100
74976,note_on,,,,,32,0,8,,,,,0,,,71,88
75040,note_off,,,,,64,0,8,,,,,0,,,71,100
75072,note_on,,,,,32,0,8,,,,,0,,,75,88
75136,note_off,,,,,64,0,8,,,,,0,,,75,100
75168,note_on,,,,,32,0,8,,,,,0,,,78,89
75232,note_off,,,,,64,0,8,,,,,0,,,78,100
75264,note_on,,,,,32,0,8,,,,,0,,,83,89
75328,note_off,,,,,64,0,8,,,,,0,,,83,100
75360,note_on,,,,,32,0,8,,,,,0,,,71,89
75424,note_off,,,,,64,0,8,,,,,0,,,71,100
75456,note_on,,,,,32,0,8,,,,,0,,,75,89
75520,note_off,,,,,64,0,8,,,,,0,,,75,100
75552,note_on,,,,,32,0,8,,,,,0,,,78,89
75616,note_off,,,,,64,0,8,,,,,0,,,78,100
75648,note_on,,,,,32,0,8,,,,,0,,,83,90
75712,note_off,,,,,64,0,8,,,,,0,,,83,100
75744,note_on,,,,,32,0,8,,,,,0,,,81,92
75808,note_off,,,,,64,0,8,,,,,0,,,81,100
75840,note_on,,,,,32,0,8,,,,,0,,,80,94
75904,note_off,,,,,64,0,8,,,,,0,,,80,100
75936,note_on,,,,,32,0,8,,,,,0,,,78,97
76000,note_off,,,,,64,0,8,,,,,0,,,78,100
76032,note_on,,,,,0,0,13,,,,,5,,,71,100
76032,note_on,,,,,32,0,8,,,,,0,,,80,99
76032,note_on,,,,,1280,0,13,,,,,5,,,68,100
76032,note_on,,,,,1280,0,14,,,,,5,,,52,100
76032,note_on,,,,,1280,0,11,,,,,3,,,52,85
76032,note_on,,,,,1280,0,10,,,,,2,,,71,85
76032,note_on,,,,,1280,0,12,,,,,4,,,40,85
76032,note_on,,,,,1280,0,9,,,,,1,,,76,85
76032,note_on,,,,,0,0,9,,,,,1,,,80,85
76096,note_off,,,,,64,0,8,,,,,0,,,80,100
76128,note_on,,,,,32,0,8,,,,,0,,,76,100
76192,note_off,,,,,64,0,8,,,,,0,,,76,100
76224,note_on,,,,,32,0,8,,,,,0,,,80,100
76288,note_off,,,,,256,0,10,,,,,2,,,71,100
76288,note_off,,,,,0,0,13,,,,,5,,,71,100
76288,note_off,,,,,64,0,8,,,,,0,,,80,100
76288,note_off,,,,,256,0,9,,,,,1,,,76,100
76288,note_off,,,,,0,0,9,,,,,1,,,80,100
76288,note_off,,,,,256,0,11,,,,,3,,,52,100
76288,note_off,,,,,256,0,12,,,,,4,,,40,100
76288,note_off,,,,,256,0,13,,,,,5,,,68,100
76288,note_off,,,,,256,0,14,,,,,5,,,52,100
76320,note_on,,,,,32,0,8,,,,,0,,,83,100
76384,note_off,,,,,64,0,8,,,,,0,,,83,100
76416,note_on,,,,,128,0,14,,,,,5,,,50,100
76416,note_on,,,,,128,0,12,,,,,4,,,38,85
76416,note_on,,,,,32,0,8,,,,,0,,,76,100
76416,note_on,,,,,128,0,13,,,,,5,,,64,100
76416,note_on,,,,,0,0,13,,,,,5,,,68,100
76416,note_on,,,,,128,0,11,,,,,3,,,50,85
76480,note_off,,,,,64,0,8,,,,,0,,,76,100
76512,note_on,,,,,32,0,8,,,,,0,,,80,100
76576,note_off,,,,,64,0,8,,,,,0,,,80,100
76608,note_on,,,,,32,0,8,,,,,0,,,78,100
76672,note_off,,,,,256,0,11,,,,,3,,,50,100
76672,note_off,,,,,256,0,13,,,,,5,,,64,100
76672,note_off,,,,,256,0,12,,,,,4,,,38,100
76672,note_off,,,,,64,0,8,,,,,0,,,78,100
76672,note_off,,,,,256,0,14,,,,,5,,,50,100
76672,note_off,,,,,0,0,13,,,,,5,,,68,100
76704,note_on,,,,,32,0,8,,,,,0,,,76,100
76768,note_off,,,,,64,0,8,,,,,0,,,76,100
76800,note_on,,,,,128,0,11,,,,,3,,,49,85
76800,note_on,,,,,32,0,8,,,,,0,,,81,100
76800,note_on,,,,,128,0,14,,,,,5,,,49,100
76800,note_on,,,,,0,0,13,,,,,5,,,64,100
76800,note_on,,,,,128,0,13,,,,,5,,,69,100
76800,note_on,,,,,128,0,12,,,,,4,,,37,85
76864,note_off,,,,,64,0,8,,,,,0,,,81,100
76896,note_on,,,,,32,0,8,,,,,0,,,69,100
76960,note_off,,,,,64,0,8,,,,,0,,,69,100
76992,note_on,,,,,32,0,8,,,,,0,,,73,100
77056,note_off,,,,,256,0,14,,,,,5,,,49,100
77056,note_off,,,,,64,0,8,,,,,0,,,73,100
77056,note_off,,,,,256,0,12,,,,,4,,,37,100
77056,note_off,,,,,256,0,11,,,,,3,,,49,100
77056,note_off,,,,,0,0,13,,,,,5,,,64,100
77056,note_off,,,,,256,0,13,,,,,5,,,69,100
77088,note_on,,,,,32,0,8,,,,,0,,,76,100
77152,note_off,,,,,64,0,8,,,,,0,,,76,100
77184,note_on,,,,,32,0,8,,,,,0,,,69,100
77248,note_off,,,,,64,0,8,,,,,0,,,69,100
77280,note_on,,,,,32,0,8,,,,,0,,,73,100
77344,note_off,,,,,64,0,8,,,,,0,,,73,100
77376,note_on,,,,,32,0,8,,,,,0,,,71,100
77440,note_off,,,,,64,0,8,,,,,0,,,71,100
77472,note_on,,,,,32,0,8,,,,,0,,,69,100
77536,note_off,,,,,64,0,8,,,,,0,,,69,100
77568,note_on,,,,,512,0,12,,,,,4,,,42,85
77568,note_on,,,,,512,0,11,,,,,3,,,54,85
77568,note_on,,,,,512,0,13,,,,,5,,,69,100
77568,note_on,,,,,32,0,8,,,,,0,,,74,100
77568,note_on,,,,,512,0,14,,,,,5,,,54,100
77568,note_on,,,,,0,0,13,,,,,5,,,74,100
77632,note_off,,,,,64,0,8,,,,,0,,,74,100
77664,note_on,,,,,32,0,8,,,,,0,,,69,100
77728,note_off,,,,,64,0,8,,,,,0,,,69,100
77760,note_on,,,,,32,0,8,,,,,0,,,74,100
77824,note_off,,,,,256,0,13,,,,,5,,,69,100
77824,note_off,,,,,0,0,13,,,,,5,,,74,100
77824,note_off,,,,,64,0,8,,,,,0,,,74,100
77824,note_off,,,,,256,0,11,,,,,3,,,54,100
77824,note_off,,,,,256,0,12,,,,,4,,,42,100
77824,note_off,,,,,256,0,14,,,,,5,,,54,100
77856,note_on,,,,,32,0,8,,,,,0,,,78,100
77920,note_off,,,,,64,0,8,,,,,0,,,78,100
77952,note_on,,,,,32,0,8,,,,,0,,,69,100
78016,note_off,,,,,64,0,8,,,,,0,,,69,100
78048,note_on,,,,,32,0,8,,,,,0,,,74,100
78112,note_off,,,,,64,0,8,,,,,0,,,74,100
78144,note_on,,,,,32,0,8,,,,,0,,,78,100
78208,note_off,,,,,64,0,8,,,,,0,,,78,100
78240,note_on,,,,,32,0,8,,,,,0,,,74,100
78304,note_off,,,,,64,0,8,,,,,0,,,74,100
78336,note_on,,,,,512,0,14,,,,,5,,,52,100
78336,note_on,,,,,0,0,13,,,,,5,,,71,100
78336,note_on,,,,,512,0,12,,,,,4,,,40,85
78336,note_on,,,,,512,0,11,,,,,3,,,52,85
78336,note_on,,,,,32,0,8,,,,,0,,,68,100
78336,note_on,,,,,512,0,13,,,,,5,,,68,100
78400,note_off,,,,,64,0,8,,,,,0,,,68,100
78432,note_on,,,,,32,0,8,,,,,0,,,64,100
78496,note_off,,,,,64,0,8,,,,,0,,,64,100
78528,note_on,,,,,32,0,8,,,,,0,,,68,100
78592,note_off,,,,,256,0,11,,,,,3,,,52,100
78592,note_off,,,,,256,0,12,,,,,4,,,40,100
78592,note_off,,,,,256,0,13,,,,,5,,,68,100
78592,note_off,,,,,256,0,14,,,,,5,,,52,100
78592,note_off,,,,,64,0,8,,,,,0,,,68,100
78592,note_off,,,,,0,0,13,,,,,5,,,71,100
78624,note_on,,,,,32,0,8,,,,,0,,,71,100
78688,note_off,,,,,64,0,8,,,,,0,,,71,100
78720,note_on,,,,,128,0,13,,,,,5,,,76,100
78720,note_on,,,,,128,0,11,,,,,3,,,56,85
78720,note_on,,,,,128,0,12,,,,,4,,,44,85
78720,note_on,,,,,128,0,14,,,,,5,,,56,100
78720,note_on,,,,,0,0,13,,,,,5,,,74,100
78720,note_on,,,,,32,0,8,,,,,0,,,76,100
78784,note_off,,,,,64,0,8,,,,,0,,,76,100
78816,note_on,,,,,32,0,8,,,,,0,,,71,100
78880,note_off,,,,,64,0,8,,,,,0,,,71,100
78912,note_on,,,,,32,0,8,,,,,0,,,73,100
78976,note_off,,,,,256,0,14,,,,,5,,,56,100
78976,note_off,,,,,256,0,12,,,,,4,,,44,100
78976,note_off,,,,,0,0,13,,,,,5,,,74,100
78976,note_off,,,,,256,0,11,,,,,3,,,56,100
78976,note_off,,,,,256,0,13,,,,,5,,,76,100
78976,note_off,,,,,64,0,8,,,,,0,,,73,100
79008,note_on,,,,,32,0,8,,,,,0,,,74,100
79072,note_off,,,,,64,0,8,,,,,0,,,74,100
79104,note_on,,,,,0,0,13,,,,,5,,,76,100
79104,note_on,,,,,128,0,13,,,,,5,,,73,100
79104,note_on,,,,,128,0,12,,,,,4,,,45,85
79104,note_on,,,,,128,0,11,,,,,3,,,57,85
79104,note_on,,,,,32,0,8,,,,,0,,,73,100
79104,note_on,,,,,128,0,14,,,,,5,,,57,100
79168,note_off,,,,,64,0,8,,,,,0,,,73,100
79200,note_on,,,,,32,0,8,,,,,0,,,69,100
79264,note_off,,,,,64,0,8,,,,,0,,,69,100
79296,note_on,,,,,32,0,8,,,,,0,,,73,100
79360,note_off,,,,,256,0,14,,,,,5,,,57,100
79360,note_off,,,,,256,0,11,,,,,3,,,57,100
79360,note_off,,,,,256,0,12,,,,,4,,,45,100
79360,note_off,,,,,64,0,8,,,,,0,,,73,100
79360,note_off,,,,,0,0,13,,,,,5,,,76,100
79360,note_off,,,,,256,0,13,,,,,5,,,73,100
79392,note_on,,,,,32,0,8,,,,,0,,,76,100
79456,note_off,,,,,64,0,8,,,,,0,,,76,100
79488,note_on,,,,,128,0,12,,,,,4,,,37,85
79488,note_on,,,,,128,0,13,,,,,5,,,67,100
79488,note_on,,,,,32,0,8,,,,,0,,,81,100
79488,note_on,,,,,128,0,11,,,,,3,,,49,85
79488,note_on,,,,,128,0,14,,,,,5,,,49,100
79488,note_on,,,,,0,0,13,,,,,5,,,69,100
79552,note_off,,,,,64,0,8,,,,,0,,,81,100
79584,note_on,,,,,32,0,8,,,,,0,,,76,100
79648,note_off,,,,,64,0,8,,,,,0,,,76,100
79680,note_on,,,,,32,0,8,,,,,0,,,78,100
79744,note_off,,,,,256,0,13,,,,,5,,,67,100
79744,note_off,,,,,0,0,13,,,,,5,,,69,100
79744,note_off,,,,,256,0,12,,,,,4,,,37,100
79744,note_off,,,,,256,0,11,,,,,3,,,49,100
79744,note_off,,,,,64,0,8,,,,,0,,,78,100
79744,note_off,,,,,256,0,14,,,,,5,,,49,100
79776,note_on,,,,,32,0,8,,,,,0,,,79,100
79840,note_off,,,,,64,0,8,,,,,0,,,79,100
79872,note_on,,,,,32,0,8,,,,,0,,,78,100
79872,set_tempo,,,,,5568,1,0,,483870,,,,,,,
79872,note_on,,,,,128,0,11,,,,,3,,,50,85
79872,note_on,,,,,128,0,12,,,,,4,,,38,85
79872,note_on,,,,,128,0,14,,,,,5,,,50,100
79872,note_on,,,,,128,0,13,,,,,5,,,66,100
79872,note_on,,,,,0,0,13,,,,,5,,,69,100
79936,note_off,,,,,64,0,8,,,,,0,,,78,100
79968,note_on,,,,,32,0,8,,,,,0,,,74,100
80032,note_off,,,,,64,0,8,,,,,0,,,74,100
80064,note_on,,,,,32,0,8,,,,,0,,,78,100
80064,set_tempo,,,,,192,1,0,,487804,,,,,,,
80128,note_off,,,,,256,0,13,,,,,5,,,66,100
80128,note_off,,,,,0,0,13,,,,,5,,,69,100
80128,note_off,,,,,256,0,12,,,,,4,,,38,100
80128,note_off,,,,,256,0,14,,,,,5,,,50,100
80128,note_off,,,,,64,0,8,,,,,0,,,78,100
80128,note_off,,,,,256,0,11,,,,,3,,,50,100
80160,note_on,,,,,32,0,8,,,,,0,,,81,100
80224,note_off,,,,,64,0,8,,,,,0,,,81,100
80256,note_on,,,,,0,0,13,,,,,5,,,69,100
80256,note_on,,,,,128,0,11,,,,,3,,,51,85
80256,note_on,,,,,128,0,12,,,,,4,,,39,85
80256,note_on,,,,,32,0,8,,,,,0,,,83,100
80256,set_tempo,,,,,192,1,0,,491803,,,,,,,
80256,note_on,,,,,128,0,14,,,,,5,,,51,100
80256,note_on,,,,,128,0,13,,,,,5,,,71,100
80320,note_off,,,,,64,0,8,,,,,0,,,83,100
80352,note_on,,,,,32,0,8,,,,,0,,,78,100
80416,note_off,,,,,64,0,8,,,,,0,,,78,100
80448,note_on,,,,,32,0,8,,,,,0,,,80,100
80448,set_tempo,,,,,192,1,0,,495867,,,,,,,
80512,note_off,,,,,256,0,12,,,,,4,,,39,100
80512,note_off,,,,,256,0,13,,,,,5,,,71,100
80512,note_off,,,,,0,0,13,,,,,5,,,69,100
80512,note_off,,,,,256,0,11,,,,,3,,,51,100
80512,note_off,,,,,256,0,14,,,,,5,,,51,100
80512,note_off,,,,,64,0,8,,,,,0,,,80,100
80544,note_on,,,,,32,0,8,,,,,0,,,81,100
80608,note_off,,,,,64,0,8,,,,,0,,,81,100
80640,note_on,,,,,128,0,13,,,,,5,,,68,100
80640,note_on,,,,,4352,0,10,,,,,2,,,64,85
80640,note_on,,,,,128,0,14,,,,,5,,,52,100
80640,note_on,,,,,32,0,8,,,,,0,,,80,100
80640,note_on,,,,,0,0,13,,,,,5,,,71,100
80640,set_tempo,,,,,192,1,0,,500000,,,,,,,
80640,note_on,,,,,4352,0,9,,,,,1,,,80,85
80640,note_on,,,,,0,0,9,,,,,1,,,71,85
80640,note_on,,,,,128,0,11,,,,,3,,,52,85
80640,note_on,,,,,128,0,12,,,,,4,,,40,85
80704,note_off,,,,,64,0,9,,,,,1,,,80,100
80736,note_on,,,,,32,0,9,,,,,1,,,76,85
80768,note_off,,,,,128,0,12,,,,,4,,,40,100
80768,note_off,,,,,32,0,9,,,,,1,,,71,100
80768,note_off,,,,,128,0,11,,,,,3,,,52,100
80768,note_off,,,,,128,0,14,,,,,5,,,52,100
80768,note_off,,,,,128,0,10,,,,,2,,,64,100
80800,note_off,,,,,32,0,9,,,,,1,,,76,100
80832,note_on,,,,,64,0,10,,,,,2,,,64,85
80832,note_on,,,,,64,0,11,,,,,3,,,52,85
80832,note_on,,,,,64,0,14,,,,,5,,,52,100
80832,note_on,,,,,32,0,9,,,,,1,,,76,85
80832,note_on,,,,,64,0,12,,,,,4,,,40,85
80832,note_on,,,,,0,0,9,,,,,1,,,71,85
80896,note_off,,,,,256,0,13,,,,,5,,,68,100
80896,note_off,,,,,256,0,8,,,,,0,,,80,100
80896,note_off,,,,,0,0,13,,,,,5,,,71,100
80896,note_off,,,,,64,0,9,,,,,1,,,76,100
80928,note_on,,,,,32,0,9,,,,,1,,,80,85
80960,note_off,,,,,128,0,12,,,,,4,,,40,100
80960,note_off,,,,,128,0,10,,,,,2,,,64,100
80960,note_off,,,,,128,0,11,,,,,3,,,52,100
80960,note_off,,,,,32,0,9,,,,,1,,,71,100
80960,note_off,,,,,128,0,14,,,,,5,,,52,100
80992,note_off,,,,,32,0,9,,,,,1,,,80,100
81024,note_on,,,,,32,0,9,,,,,1,,,80,85
81024,note_on,,,,,0,0,13,,,,,5,,,71,100
81024,note_on,,,,,128,0,13,,,,,5,,,68,100
81024,note_on,,,,,64,0,10,,,,,2,,,64,85
81024,note_on,,,,,64,0,12,,,,,4,,,40,85
81024,note_on,,,,,64,0,14,,,,,5,,,52,100
81024,note_on,,,,,0,0,9,,,,,1,,,71,85
81024,note_on,,,,,64,0,11,,,,,3,,,52,85
81088,note_off,,,,,64,0,9,,,,,1,,,80,100
81120,note_on,,,,,32,0,9,,,,,1,,,76,85
81152,note_off,,,,,128,0,14,,,,,5,,,52,100
81152,note_off,,,,,128,0,11,,,,,3,,,52,100
81152,note_off,,,,,32,0,9,,,,,1,,,71,100
81152,note_off,,,,,128,0,12,,,,,4,,,40,100
81152,note_off,,,,,128,0,10,,,,,2,,,64,100
81184,note_off,,,,,32,0,9,,,,,1,,,76,100
81216,note_on,,,,,64,0,11,,,,,3,,,52,85
81216,note_on,,,,,64,0,12,,,,,4,,,40,85
81216,note_on,,,,,0,0,9,,,,,1,,,71,85
81216,note_on,,,,,32,0,9,,,,,1,,,76,85
81216,note_on,,,,,64,0,10,,,,,2,,,64,85
81216,note_on,,,,,64,0,14,,,,,5,,,52,100
81280,note_off,,,,,64,0,9,,,,,1,,,76,100
81280,note_off,,,,,0,0,13,,,,,5,,,71,100
81280,note_off,,,,,256,0,13,,,,,5,,,68,100
81312,note_on,,,,,32,0,9,,,,,1,,,80,85
81344,note_off,,,,,32,0,9,,,,,1,,,71,100
81344,note_off,,,,,128,0,12,,,,,4,,,40,100
81344,note_off,,,,,128,0,11,,,,,3,,,52,100
81344,note_off,,,,,128,0,10,,,,,2,,,64,100
81344,note_off,,,,,128,0,14,,,,,5,,,52,100
81376,note_off,,,,,32,0,9,,,,,1,,,80,100
81408,note_on,,,,,64,0,12,,,,,4,,,33,85
81408,note_on,,,,,64,0,10,,,,,2,,,64,85
81408,note_on,,,,,0,0,9,,,,,1,,,81,85
81408,note_on,,,,,0,0,13,,,,,5,,,64,100
81408,note_on,,,,,64,0,11,,,,,3,,,45,85
81408,note_on,,,,,64,0,14,,,,,5,,,45,100
81408,note_on,,,,,128,0,13,,,,,5,,,61,100
81408,note_on,,,,,32,0,9,,,,,1,,,73,85
81472,note_off,,,,,64,0,9,,,,,1,,,81,100
81504,note_on,,,,,32,0,9,,,,,1,,,69,85
81536,note_off,,,,,128,0,14,,,,,5,,,45,100
81536,note_off,,,,,128,0,11,,,,,3,,,45,100
81536,note_off,,,,,128,0,10,,,,,2,,,64,100
81536,note_off,,,,,32,0,9,,,,,1,,,73,100
81536,note_off,,,,,128,0,12,,,,,4,,,33,100
81568,note_off,,,,,32,0,9,,,,,1,,,69,100
81600,note_on,,,,,0,0,9,,,,,1,,,69,85
81600,note_on,,,,,32,0,9,,,,,1,,,73,85
81600,note_on,,,,,64,0,11,,,,,3,,,45,85
81600,note_on,,,,,64,0,14,,,,,5,,,45,100
81600,note_on,,,,,64,0,12,,,,,4,,,33,85
81600,note_on,,,,,64,0,10,,,,,2,,,64,85
81664,note_off,,,,,64,0,9,,,,,1,,,69,100
81664,note_off,,,,,256,0,13,,,,,5,,,61,100
81664,note_off,,,,,0,0,13,,,,,5,,,64,100
81696,note_on,,,,,32,0,9,,,,,1,,,69,85
81728,note_off,,,,,128,0,14,,,,,5,,,45,100
81728,note_off,,,,,128,0,12,,,,,4,,,33,100
81728,note_off,,,,,128,0,10,,,,,2,,,64,100
81728,note_off,,,,,32,0,9,,,,,1,,,73,100
81728,note_off,,,,,128,0,11,,,,,3,,,45,100
81760,note_off,,,,,32,0,9,,,,,1,,,69,100
81792,note_on,,,,,128,0,13,,,,,5,,,61,100
81792,note_on,,,,,0,0,13,,,,,5,,,64,100
81792,note_on,,,,,0,0,9,,,,,1,,,81,85
81792,note_on,,,,,64,0,12,,,,,4,,,33,85
81792,note_on,,,,,64,0,11,,,,,3,,,45,85
81792,note_on,,,,,32,0,9,,,,,1,,,73,85
81792,note_on,,,,,64,0,14,,,,,5,,,45,100
81792,note_on,,,,,64,0,10,,,,,2,,,64,85
81856,note_off,,,,,64,0,9,,,,,1,,,81,100
81888,note_on,,,,,32,0,9,,,,,1,,,69,85
81920,note_off,,,,,128,0,11,,,,,3,,,45,100
81920,note_off,,,,,32,0,9,,,,,1,,,73,100
81920,note_off,,,,,128,0,10,,,,,2,,,64,100
81920,note_off,,,,,128,0,14,,,,,5,,,45,100
81920,note_off,,,,,128,0,12,,,,,4,,,33,100
81952,note_off,,,,,32,0,9,,,,,1,,,69,100
81984,note_on,,,,,64,0,12,,,,,4,,,33,85
81984,note_on,,,,,64,0,14,,,,,5,,,45,100
81984,note_on,,,,,0,0,9,,,,,1,,,69,85
81984,note_on,,,,,64,0,10,,,,,2,,,64,85
81984,note_on,,,,,32,0,9,,,,,1,,,73,85
81984,note_on,,,,,64,0,11,,,,,3,,,45,85
82048,note_off,,,,,256,0,13,,,,,5,,,61,100
82048,note_off,,,,,64,0,9,,,,,1,,,69,100
82048,note_off,,,,,0,0,13,,,,,5,,,64,100
82080,note_on,,,,,32,0,9,,,,,1,,,69,85
82112,note_off,,,,,128,0,14,,,,,5,,,45,100
82112,note_off,,,,,128,0,10,,,,,2,,,64,100
82112,note_off,,,,,128,0,11,,,,,3,,,45,100
82112,note_off,,,,,128,0,12,,,,,4,,,33,100
82112,note_off,,,,,32,0,9,,,,,1,,,73,100
82144,note_off,,,,,32,0,9,,,,,1,,,69,100
82176,note_on,,,,,64,0,12,,,,,4,,,40,85
82176,note_on,,,,,0,0,9,,,,,1,,,80,85
82176,note_on,,,,,32,0,9,,,,,1,,,71,85
82176,note_on,,,,,128,0,13,,,,,5,,,68,100
82176,note_on,,,,,64,0,14,,,,,5,,,52,100
82176,note_on,,,,,64,0,11,,,,,3,,,52,85
82176,note_on,,,,,64,0,10,,,,,2,,,64,85
82176,note_on,,,,,0,0,13,,,,,5,,,71,100
82240,note_off,,,,,64,0,9,,,,,1,,,80,100
82272,note_on,,,,,32,0,9,,,,,1,,,76,85
82304,note_off,,,,,128,0,12,,,,,4,,,40,100
82304,note_off,,,,,128,0,11,,,,,3,,,52,100
82304,note_off,,,,,32,0,9,,,,,1,,,71,100
82304,note_off,,,,,128,0,10,,,,,2,,,64,100
82304,note_off,,,,,128,0,14,,,,,5,,,52,100
82336,note_off,,,,,32,0,9,,,,,1,,,76,100
82368,note_on,,,,,0,0,9,,,,,1,,,76,85
82368,note_on,,,,,32,0,9,,,,,1,,,71,85
82368,note_on,,,,,64,0,11,,,,,3,,,52,85
82368,note_on,,,,,64,0,12,,,,,4,,,40,85
82368,note_on,,,,,64,0,14,,,,,5,,,52,100
82368,note_on,,,,,64,0,10,,,,,2,,,64,85
82432,note_off,,,,,64,0,9,,,,,1,,,76,100
82432,note_off,,,,,256,0,13,,,,,5,,,68,100
82432,note_off,,,,,0,0,13,,,,,5,,,71,100
82464,note_on,,,,,32,0,9,,,,,1,,,80,85
82496,note_off,,,,,128,0,11,,,,,3,,,52,100
82496,note_off,,,,,128,0,14,,,,,5,,,52,100
82496,note_off,,,,,32,0,9,,,,,1,,,71,100
82496,note_off,,,,,128,0,10,,,,,2,,,64,100
82496,note_off,,,,,128,0,12,,,,,4,,,40,100
82528,note_off,,,,,32,0,9,,,,,1,,,80,100
82560,note_on,,,,,64,0,11,,,,,3,,,52,85
82560,note_on,,,,,64,0,10,,,,,2,,,64,85
82560,note_on,,,,,32,0,9,,,,,1,,,71,85
82560,note_on,,,,,0,0,9,,,,,1,,,80,85
82560,note_on,,,,,64,0,12,,,,,4,,,40,85
82560,note_on,,,,,64,0,14,,,,,5,,,52,100
82560,note_on,,,,,128,0,13,,,,,5,,,71,100
82560,note_on,,,,,0,0,13,,,,,5,,,68,100
82624,note_off,,,,,64,0,9,,,,,1,,,80,100
82656,note_on,,,,,32,0,9,,,,,1,,,76,85
82688,note_off,,,,,128,0,14,,,,,5,,,52,100
82688,note_off,,,,,128,0,10,,,,,2,,,64,100
82688,note_off,,,,,32,0,9,,,,,1,,,71,100
82688,note_off,,,,,128,0,11,,,,,3,,,52,100
82688,note_off,,,,,128,0,12,,,,,4,,,40,100
82720,note_off,,,,,32,0,9,,,,,1,,,76,100
82752,note_on,,,,,64,0,12,,,,,4,,,40,85
82752,note_on,,,,,64,0,11,,,,,3,,,52,85
82752,note_on,,,,,64,0,14,,,,,5,,,52,100
82752,note_on,,,,,64,0,10,,,,,2,,,64,85
82752,note_on,,,,,0,0,9,,,,,1,,,76,85
82752,note_on,,,,,32,0,9,,,,,1,,,71,85
82816,note_off,,,,,0,0,13,,,,,5,,,68,100
82816,note_off,,,,,256,0,13,,,,,5,,,71,100
82816,note_off,,,,,64,0,9,,,,,1,,,76,100
82848,note_on,,,,,32,0,9,,,,,1,,,80,85
82880,note_off,,,,,128,0,10,,,,,2,,,64,100
82880,note_off,,,,,128,0,11,,,,,3,,,52,100
82880,note_off,,,,,128,0,14,,,,,5,,,52,100
82880,note_off,,,,,128,0,12,,,,,4,,,40,100
82880,note_off,,,,,32,0,9,,,,,1,,,71,100
82912,note_off,,,,,32,0,9,,,,,1,,,80,100
82944,note_on,,,,,64,0,10,,,,,2,,,64,85
82944,note_on,,,,,64,0,12,,,,,4,,,33,85
82944,note_on,,,,,64,0,14,,,,,5,,,45,100
82944,note_on,,,,,64,0,11,,,,,3,,,45,85
82944,note_on,,,,,0,0,9,,,,,1,,,81,85
82944,note_on,,,,,128,0,13,,,,,5,,,61,100
82944,note_on,,,,,0,0,13,,,,,5,,,64,100
82944,note_on,,,,,32,0,9,,,,,1,,,73,85
83008,note_off,,,,,64,0,9,,,,,1,,,81,100
83040,note_on,,,,,32,0,9,,,,,1,,,69,85
83072,note_off,,,,,128,0,14,,,,,5,,,45,100
83072,note_off,,,,,32,0,9,,,,,1,,,73,100
83072,note_off,,,,,128,0,10,,,,,2,,,64,100
83072,note_off,,,,,128,0,11,,,,,3,,,45,100
83072,note_off,,,,,128,0,12,,,,,4,,,33,100
83104,note_off,,,,,32,0,9,,,,,1,,,69,100
83136,note_on,,,,,64,0,11,,,,,3,,,45,85
83136,note_on,,,,,32,0,9,,,,,1,,,73,85
83136,note_on,,,,,64,0,10,,,,,2,,,64,85
83136,note_on,,,,,64,0,14,,,,,5,,,45,100
83136,note_on,,,,,64,0,12,,,,,4,,,33,85
83136,note_on,,,,,0,0,9,,,,,1,,,69,85
83200,note_off,,,,,0,0,13,,,,,5,,,64,100
83200,note_off,,,,,256,0,13,,,,,5,,,61,100
83200,note_off,,,,,64,0,9,,,,,1,,,69,100
83232,note_on,,,,,32,0,9,,,,,1,,,69,85
83264,note_off,,,,,128,0,10,,,,,2,,,64,100
83264,note_off,,,,,128,0,12,,,,,4,,,33,100
83264,note_off,,,,,128,0,14,,,,,5,,,45,100
83264,note_off,,,,,128,0,11,,,,,3,,,45,100
83264,note_off,,,,,32,0,9,,,,,1,,,73,100
83296,note_off,,,,,32,0,9,,,,,1,,,69,100
83328,note_on,,,,,64,0,12,,,,,4,,,33,85
83328,note_on,,,,,64,0,14,,,,,5,,,45,100
83328,note_on,,,,,0,0,13,,,,,5,,,64,100
83328,note_on,,,,,64,0,11,,,,,3,,,45,85
83328,note_on,,,,,0,0,9,,,,,1,,,81,85
83328,note_on,,,,,32,0,9,,,,,1,,,73,85
83328,note_on,,,,,64,0,10,,,,,2,,,64,85
83328,note_on,,,,,128,0,13,,,,,5,,,61,100
83392,note_off,,,,,64,0,9,,,,,1,,,81,100
83424,note_on,,,,,32,0,9,,,,,1,,,69,85
83456,note_off,,,,,128,0,12,,,,,4,,,33,100
83456,note_off,,,,,128,0,14,,,,,5,,,45,100
83456,note_off,,,,,128,0,10,,,,,2,,,64,100
83456,note_off,,,,,128,0,11,,,,,3,,,45,100
83456,note_off,,,,,32,0,9,,,,,1,,,73,100
83488,note_off,,,,,32,0,9,,,,,1,,,69,100
83520,note_on,,,,,0,0,9,,,,,1,,,69,85
83520,note_on,,,,,32,0,9,,,,,1,,,73,85
83520,note_on,,,,,64,0,10,,,,,2,,,64,85
83520,note_on,,,,,64,0,12,,,,,4,,,33,85
83520,note_on,,,,,64,0,14,,,,,5,,,45,100
83520,note_on,,,,,64,0,11,,,,,3,,,45,85
83584,note_off,,,,,0,0,13,,,,,5,,,64,100
83584,note_off,,,,,64,0,9,,,,,1,,,69,100
83584,note_off,,,,,256,0,13,,,,,5,,,61,100
83616,note_on,,,,,32,0,9,,,,,1,,,69,85
83648,note_off,,,,,32,0,9,,,,,1,,,73,100
83648,note_off,,,,,128,0,11,,,,,3,,,45,100
83648,note_off,,,,,128,0,10,,,,,2,,,64,100
83648,note_off,,,,,128,0,12,,,,,4,,,33,100
83648,note_off,,,,,128,0,14,,,,,5,,,45,100
83680,note_off,,,,,32,0,9,,,,,1,,,69,100
83712,note_on,,,,,64,0,11,,,,,3,,,52,85
83712,note_on,,,,,128,0,13,,,,,5,,,68,100
83712,note_on,,,,,0,0,13,,,,,5,,,71,100
83712,note_on,,,,,64,0,12,,,,,4,,,40,85
83712,note_on,,,,,0,0,9,,,,,1,,,80,85
83712,note_on,,,,,32,0,9,,,,,1,,,71,85
83712,note_on,,,,,64,0,14,,,,,5,,,52,100
83712,note_on,,,,,64,0,10,,,,,2,,,64,85
83712,note_on,,,,,2816,0,8,,,,,0,,,80,100
83776,note_off,,,,,64,0,8,,,,,0,,,80,100
83808,note_on,,,,,32,0,8,,,,,0,,,76,100
83872,note_off,,,,,64,0,8,,,,,0,,,76,100
83904,note_on,,,,,32,0,8,,,,,0,,,80,100
83968,note_off,,,,,256,0,9,,,,,1,,,71,100
83968,note_off,,,,,0,0,9,,,,,1,,,80,100
83968,note_off,,,,,64,0,8,,,,,0,,,80,100
83968,note_off,,,,,256,0,14,,,,,5,,,52,100
83968,note_off,,,,,256,0,12,,,,,4,,,40,100
83968,note_off,,,,,256,0,11,,,,,3,,,52,100
83968,note_off,,,,,256,0,13,,,,,5,,,68,100
83968,note_off,,,,,0,0,13,,,,,5,,,71,100
83968,note_off,,,,,256,0,10,,,,,2,,,64,100
84000,note_on,,,,,32,0,8,,,,,0,,,83,100
84064,note_off,,,,,64,0,8,,,,,0,,,83,100
84096,note_on,,,,,32,0,8,,,,,0,,,76,100
84096,note_on,,,,,128,0,11,,,,,3,,,50,85
84096,note_on,,,,,0,0,13,,,,,5,,,64,100
84096,note_on,,,,,128,0,13,,,,,5,,,68,100
84096,note_on,,,,,128,0,14,,,,,5,,,50,100
84096,note_on,,,,,128,0,12,,,,,4,,,38,85
84160,note_off,,,,,64,0,8,,,,,0,,,76,100
84192,note_on,,,,,32,0,8,,,,,0,,,80,100
84256,note_off,,,,,64,0,8,,,,,0,,,80,100
84288,note_on,,,,,32,0,8,,,,,0,,,78,100
84352,note_off,,,,,256,0,12,,,,,4,,,38,100
84352,note_off,,,,,64,0,8,,,,,0,,,78,100
84352,note_off,,,,,0,0,13,,,,,5,,,64,100
84352,note_off,,,,,256,0,13,,,,,5,,,68,100
84352,note_off,,,,,256,0,14,,,,,5,,,50,100
84352,note_off,,,,,256,0,11,,,,,3,,,50,100
84384,note_on,,,,,32,0,8,,,,,0,,,76,100
84448,note_off,,,,,64,0,8,,,,,0,,,76,100
84480,note_on,,,,,128,0,12,,,,,4,,,37,85
84480,note_on,,,,,128,0,13,,,,,5,,,64,100
84480,note_on,,,,,0,0,13,,,,,5,,,69,100
84480,note_on,,,,,128,0,14,,,,,5,,,49,100
84480,note_on,,,,,128,0,11,,,,,3,,,49,85
84480,note_on,,,,,32,0,8,,,,,0,,,81,100
84544,note_off,,,,,64,0,8,,,,,0,,,81,100
84576,note_on,,,,,32,0,8,,,,,0,,,76,100
84640,note_off,,,,,64,0,8,,,,,0,,,76,100
84672,note_on,,,,,32,0,8,,,,,0,,,73,100
84736,note_off,,,,,256,0,14,,,,,5,,,49,100
84736,note_off,,,,,256,0,12,,,,,4,,,37,100
84736,note_off,,,,,256,0,11,,,,,3,,,49,100
84736,note_off,,,,,256,0,13,,,,,5,,,64,100
84736,note_off,,,,,0,0,13,,,,,5,,,69,100
84736,note_off,,,,,64,0,8,,,,,0,,,73,100
84768,note_on,,,,,32,0,8,,,,,0,,,76,100
84832,note_off,,,,,64,0,8,,,,,0,,,76,100
84864,note_on,,,,,128,0,13,,,,,5,,,61,100
84864,note_on,,,,,128,0,12,,,,,4,,,33,85
84864,note_on,,,,,0,0,13,,,,,5,,,64,100
84864,note_on,,,,,128,0,14,,,,,5,,,45,100
84864,note_on,,,,,128,0,11,,,,,3,,,45,85
84864,note_on,,,,,32,0,8,,,,,0,,,81,100
84928,note_off,,,,,64,0,8,,,,,0,,,81,100
84960,note_on,,,,,32,0,8,,,,,0,,,76,98
85024,note_off,,,,,64,0,8,,,,,0,,,76,100
85056,note_on,,,,,32,0,8,,,,,0,,,73,96
85120,note_off,,,,,256,0,13,,,,,5,,,61,100
85120,note_off,,,,,256,0,11,,,,,3,,,45,100
85120,note_off,,,,,0,0,13,,,,,5,,,64,100
85120,note_off,,,,,64,0,8,,,,,0,,,73,100
85120,note_off,,,,,256,0,14,,,,,5,,,45,100
85120,note_off,,,,,256,0,12,,,,,4,,,33,100
85152,note_on,,,,,32,0,8,,,,,0,,,76,93
85216,note_off,,,,,64,0,8,,,,,0,,,76,100
85248,note_on,,,,,128,0,12,,,,,4,,,40,75
85248,note_on,,,,,128,0,14,,,,,5,,,52,100
85248,note_on,,,,,0,0,13,,,,,5,,,71,100
85248,note_on,,,,,128,0,13,,,,,5,,,68,100
85248,note_on,,,,,128,0,11,,,,,3,,,52,75
85248,note_on,,,,,32,0,8,,,,,0,,,80,91
85312,note_off,,,,,64,0,8,,,,,0,,,80,100
85344,note_on,,,,,32,0,8,,,,,0,,,76,90
85408,note_off,,,,,64,0,8,,,,,0,,,76,100
85440,note_on,,,,,32,0,8,,,,,0,,,80,90
85504,note_off,,,,,256,0,12,,,,,4,,,40,100
85504,note_off,,,,,256,0,14,,,,,5,,,52,100
85504,note_off,,,,,256,0,11,,,,,3,,,52,100
85504,note_off,,,,,0,0,13,,,,,5,,,71,100
85504,note_off,,,,,256,0,13,,,,,5,,,68,100
85504,note_off,,,,,64,0,8,,,,,0,,,80,100
85536,note_on,,,,,32,0,8,,,,,0,,,83,90
85600,note_off,,,,,64,0,8,,,,,0,,,83,100
85632,note_on,,,,,128,0,11,,,,,3,,,50,75
85632,note_on,,,,,128,0,14,,,,,5,,,50,100
85632,note_on,,,,,128,0,12,,,,,4,,,38,75
85632,note_on,,,,,128,0,13,,,,,5,,,68,100
85632,note_on,,,,,32,0,8,,,,,0,,,76,90
85632,note_on,,,,,0,0,13,,,,,5,,,64,100
85696,note_off,,,,,64,0,8,,,,,0,,,76,100
85728,note_on,,,,,32,0,8,,,,,0,,,80,90
85792,note_off,,,,,64,0,8,,,,,0,,,80,100
85824,note_on,,,,,32,0,8,,,,,0,,,78,90
85888,note_off,,,,,64,0,8,,,,,0,,,78,100
85888,note_off,,,,,256,0,11,,,,,3,,,50,100
85888,note_off,,,,,256,0,14,,,,,5,,,50,100
85888,note_off,,,,,256,0,12,,,,,4,,,38,100
85888,note_off,,,,,0,0,13,,,,,5,,,64,100
85888,note_off,,,,,256,0,13,,,,,5,,,68,100
85920,note_on,,,,,32,0,8,,,,,0,,,76,90
85984,note_off,,,,,64,0,8,,,,,0,,,76,100
86016,note_on,,,,,0,0,13,,,,,5,,,69,100
86016,note_on,,,,,128,0,12,,,,,4,,,37,75
86016,note_on,,,,,32,0,8,,,,,0,,,81,90
86016,note_on,,,,,128,0,11,,,,,3,,,49,75
86016,note_on,,,,,128,0,14,,,,,5,,,49,100
86016,note_on,,,,,128,0,13,,,,,5,,,64,100
86080,note_off,,,,,64,0,8,,,,,0,,,81,100
86112,note_on,,,,,32,0,8,,,,,0,,,76,90
86176,note_off,,,,,64,0,8,,,,,0,,,76,100
86208,note_on,,,,,32,0,8,,,,,0,,,73,90
86272,note_off,,,,,256,0,11,,,,,3,,,49,100
86272,note_off,,,,,256,0,13,,,,,5,,,64,100
86272,note_off,,,,,256,0,14,,,,,5,,,49,100
86272,note_off,,,,,256,0,12,,,,,4,,,37,100
86272,note_off,,,,,0,0,13,,,,,5,,,69,100
86272,note_off,,,,,64,0,8,,,,,0,,,73,100
86304,note_on,,,,,32,0,8,,,,,0,,,76,90
86368,note_off,,,,,64,0,8,,,,,0,,,76,100
86400,note_on,,,,,128,0,11,,,,,3,,,45,75
86400,note_on,,,,,128,0,14,,,,,5,,,45,100
86400,note_on,,,,,128,0,12,,,,,4,,,33,75
86400,note_on,,,,,32,0,8,,,,,0,,,81,90
86400,note_on,,,,,128,0,13,,,,,5,,,61,100
86400,note_on,,,,,0,0,13,,,,,5,,,64,100
86464,note_off,,,,,64,0,8,,,,,0,,,81,100
86496,note_on,,,,,32,0,8,,,,,0,,,76,92
86560,note_off,,,,,64,0,8,,,,,0,,,76,100
86592,note_on,,,,,32,0,8,,,,,0,,,73,94
86656,note_off,,,,,256,0,12,,,,,4,,,33,100
86656,note_off,,,,,256,0,14,,,,,5,,,45,100
86656,note_off,,,,,256,0,13,,,,,5,,,61,100
86656,note_off,,,,,256,0,11,,,,,3,,,45,100
86656,note_off,,,,,0,0,13,,,,,5,,,64,100
86656,note_off,,,,,64,0,8,,,,,0,,,73,100
86688,note_on,,,,,32,0,8,,,,,0,,,81,97
86752,note_off,,,,,64,0,8,,,,,0,,,81,100
86784,note_on,,,,,128,0,12,,,,,4,,,40,85
86784,note_on,,,,,128,0,14,,,,,5,,,52,100
86784,note_on,,,,,32,0,8,,,,,0,,,80,99
86784,note_on,,,,,128,0,13,,,,,5,,,68,100
86784,note_on,,,,,128,0,11,,,,,3,,,52,85
86784,note_on,,,,,0,0,13,,,,,5,,,71,100
86848,note_off,,,,,64,0,8,,,,,0,,,80,100
86880,note_on,,,,,32,0,8,,,,,0,,,76,100
86944,note_off,,,,,64,0,8,,,,,0,,,76,100
86976,note_on,,,,,32,0,8,,,,,0,,,80,100
87040,note_off,,,,,256,0,11,,,,,3,,,52,100
87040,note_off,,,,,64,0,8,,,,,0,,,80,100
87040,note_off,,,,,256,0,14,,,,,5,,,52,100
87040,note_off,,,,,0,0,13,,,,,5,,,71,100
87040,note_off,,,,,256,0,13,,,,,5,,,68,100
87040,note_off,,,,,256,0,12,,,,,4,,,40,100
87072,note_on,,,,,32,0,8,,,,,0,,,83,100
87136,note_off,,,,,64,0,8,,,,,0,,,83,100
87168,note_on,,,,,128,0,12,,,,,4,,,38,85
87168,note_on,,,,,32,0,8,,,,,0,,,76,100
87168,note_on,,,,,128,0,14,,,,,5,,,50,100
87168,note_on,,,,,0,0,13,,,,,5,,,68,100
87168,note_on,,,,,128,0,13,,,,,5,,,64,100
87168,note_on,,,,,128,0,11,,,,,3,,,50,85
87232,note_off,,,,,64,0,8,,,,,0,,,76,100
87264,note_on,,,,,32,0,8,,,,,0,,,80,100
87328,note_off,,,,,64,0,8,,,,,0,,,80,100
87360,note_on,,,,,32,0,8,,,,,0,,,78,100
87424,note_off,,,,,64,0,8,,,,,0,,,78,100
87424,note_off,,,,,0,0,13,,,,,5,,,68,100
87424,note_off,,,,,256,0,12,,,,,4,,,38,100
87424,note_off,,,,,256,0,11,,,,,3,,,50,100
87424,note_off,,,,,256,0,14,,,,,5,,,50,100
87424,note_off,,,,,256,0,13,,,,,5,,,64,100
87456,note_on,,,,,32,0,8,,,,,0,,,76,100
87520,note_off,,,,,64,0,8,,,,,0,,,76,100
87552,note_on,,,,,0,0,13,,,,,5,,,64,100
87552,note_on,,,,,128,0,12,,,,,4,,,40,85
87552,note_on,,,,,128,0,11,,,,,3,,,52,85
87552,note_on,,,,,32,0,8,,,,,0,,,81,100
87552,note_on,,,,,128,0,14,,,,,5,,,52,100
87552,note_on,,,,,128,0,13,,,,,5,,,69,100
87616,note_off,,,,,64,0,8,,,,,0,,,81,100
87648,note_on,,,,,32,0,8,,,,,0,,,83,100
87680,note_off,,,,,128,0,13,,,,,5,,,69,100
87680,note_off,,,,,0,0,13,,,,,5,,,64,100
87680,note_off,,,,,128,0,12,,,,,4,,,40,100
87680,note_off,,,,,128,0,11,,,,,3,,,52,100
87680,note_off,,,,,128,0,14,,,,,5,,,52,100
87712,note_off,,,,,64,0,8,,,,,0,,,83,100
87744,note_on,,,,,64,0,14,,,,,5,,,64,100
87744,note_on,,,,,64,0,13,,,,,5,,,76,100
87744,note_on,,,,,64,0,12,,,,,4,,,52,85
87744,note_on,,,,,32,0,8,,,,,0,,,80,100
87744,note_on,,,,,64,0,11,,,,,3,,,64,85
87808,note_off,,,,,64,0,8,,,,,0,,,80,100
87840,note_on,,,,,32,0,8,,,,,0,,,81,100
87872,note_off,,,,,128,0,11,,,,,3,,,64,100
87872,note_off,,,,,128,0,12,,,,,4,,,52,100
87872,note_off,,,,,128,0,14,,,,,5,,,64,100
87872,note_off,,,,,128,0,13,,,,,5,,,76,100
87904,note_off,,,,,64,0,8,,,,,0,,,81,100
87936,note_on,,,,,64,0,12,,,,,4,,,50,85
87936,note_on,,,,,64,0,11,,,,,3,,,62,85
87936,note_on,,,,,32,0,8,,,,,0,,,78,100
87936,note_on,,,,,64,0,14,,,,,5,,,62,100
87936,note_on,,,,,64,0,13,,,,,5,,,74,100
88000,note_off,,,,,64,0,8,,,,,0,,,78,100
88032,note_on,,,,,32,0,8,,,,,0,,,80,100
88064,note_off,,,,,128,0,14,,,,,5,,,62,100
88064,note_off,,,,,128,0,12,,,,,4,,,50,100
88064,note_off,,,,,128,0,13,,,,,5,,,74,100
88064,note_off,,,,,128,0,11,,,,,3,,,62,100
88096,note_off,,,,,64,0,8,,,,,0,,,80,100
88128,note_on,,,,,64,0,13,,,,,5,,,73,100
88128,note_on,,,,,64,0,12,,,,,4,,,49,85
88128,note_on,,,,,32,0,8,,,,,0,,,76,100
88128,note_on,,,,,64,0,11,,,,,3,,,61,85
88128,note_on,,,,,64,0,14,,,,,5,,,61,100
88192,note_off,,,,,64,0,8,,,,,0,,,76,100
88224,note_on,,,,,32,0,8,,,,,0,,,78,100
88256,note_off,,,,,128,0,14,,,,,5,,,61,100
88256,note_off,,,,,128,0,13,,,,,5,,,73,100
88256,note_off,,,,,128,0,12,,,,,4,,,49,100
88256,note_off,,,,,128,0,11,,,,,3,,,61,100
88288,note_off,,,,,64,0,8,,,,,0,,,78,100
88320,note_on,,,,,64,0,14,,,,,5,,,59,100
88320,note_on,,,,,64,0,12,,,,,4,,,47,85
88320,note_on,,,,,64,0,13,,,,,5,,,71,100
88320,note_on,,,,,64,0,11,,,,,3,,,59,85
88320,note_on,,,,,32,0,8,,,,,0,,,74,100
88384,note_off,,,,,64,0,8,,,,,0,,,74,100
88416,note_on,,,,,32,0,8,,,,,0,,,78,100
88448,note_off,,,,,128,0,14,,,,,5,,,59,100
88448,note_off,,,,,128,0,13,,,,,5,,,71,100
88448,note_off,,,,,128,0,11,,,,,3,,,59,100
88448,note_off,,,,,128,0,12,,,,,4,,,47,100
88480,note_off,,,,,64,0,8,,,,,0,,,78,100
88512,note_on,,,,,64,0,12,,,,,4,,,49,85
88512,note_on,,,,,64,0,13,,,,,5,,,73,100
88512,note_on,,,,,64,0,14,,,,,5,,,61,100
88512,note_on,,,,,32,0,8,,,,,0,,,76,99
88512,note_on,,,,,64,0,11,,,,,3,,,61,85
88576,note_off,,,,,64,0,8,,,,,0,,,76,100
88608,note_on,,,,,32,0,8,,,,,0,,,78,99
88640,note_off,,,,,128,0,12,,,,,4,,,49,100
88640,note_off,,,,,128,0,14,,,,,5,,,61,100
88640,note_off,,,,,128,0,13,,,,,5,,,73,100
88640,note_off,,,,,128,0,11,,,,,3,,,61,100
88672,note_off,,,,,64,0,8,,,,,0,,,78,100
88704,note_on,,,,,64,0,11,,,,,3,,,59,85
88704,note_on,,,,,32,0,8,,,,,0,,,74,98
88704,note_on,,,,,64,0,12,,,,,4,,,47,85
88704,note_on,,,,,64,0,13,,,,,5,,,71,100
88704,note_on,,,,,64,0,14,,,,,5,,,59,100
88768,note_off,,,,,64,0,8,,,,,0,,,74,100
88800,note_on,,,,,32,0,8,,,,,0,,,76,97
88832,note_off,,,,,128,0,11,,,,,3,,,59,100
88832,note_off,,,,,128,0,13,,,,,5,,,71,100
88832,note_off,,,,,128,0,14,,,,,5,,,59,100
88832,note_off,,,,,128,0,12,,,,,4,,,47,100
88864,note_off,,,,,64,0,8,,,,,0,,,76,100
88896,note_on,,,,,64,0,12,,,,,4,,,45,85
88896,note_on,,,,,32,0,8,,,,,0,,,73,97
88896,note_on,,,,,64,0,13,,,,,5,,,69,100
88896,note_on,,,,,64,0,11,,,,,3,,,57,85
88896,note_on,,,,,64,0,14,,,,,5,,,57,100
88960,note_off,,,,,64,0,8,,,,,0,,,73,100
88992,note_on,,,,,32,0,8,,,,,0,,,74,96
89024,note_off,,,,,128,0,11,,,,,3,,,57,100
89024,note_off,,,,,128,0,13,,,,,5,,,69,100
89024,note_off,,,,,128,0,12,,,,,4,,,45,100
89024,note_off,,,,,128,0,14,,,,,5,,,57,100
89056,note_off,,,,,64,0,8,,,,,0,,,74,100
89088,note_on,,,,,64,0,13,,,,,5,,,64,100
89088,note_on,,,,,64,0,12,,,,,4,,,44,85
89088,note_on,,,,,64,0,14,,,,,5,,,56,100
89088,note_on,,,,,64,0,11,,,,,3,,,56,85
89088,note_on,,,,,32,0,8,,,,,0,,,71,96
89088,note_on,,,,,0,0,13,,,,,5,,,68,100
89152,note_off,,,,,64,0,8,,,,,0,,,71,100
89184,note_on,,,,,32,0,8,,,,,0,,,74,95
89216,note_off,,,,,128,0,13,,,,,5,,,64,100
89216,note_off,,,,,0,0,13,,,,,5,,,68,100
89216,note_off,,,,,128,0,12,,,,,4,,,44,100
89216,note_off,,,,,128,0,11,,,,,3,,,56,100
89216,note_off,,,,,128,0,14,,,,,5,,,56,100
89248,note_off,,,,,64,0,8,,,,,0,,,74,100
89280,note_on,,,,,64,0,12,,,,,4,,,45,85
89280,note_on,,,,,64,0,11,,,,,3,,,57,85
89280,note_on,,,,,64,0,14,,,,,5,,,57,100
89280,note_on,,,,,32,0,8,,,,,0,,,73,94
89280,note_on,,,,,64,0,13,,,,,5,,,69,100
89344,note_off,,,,,64,0,8,,,,,0,,,73,100
89376,note_on,,,,,32,0,8,,,,,0,,,74,94
89408,note_off,,,,,128,0,12,,,,,4,,,45,100
89408,note_off,,,,,128,0,11,,,,,3,,,57,100
89408,note_off,,,,,128,0,14,,,,,5,,,57,100
89408,note_off,,,,,128,0,13,,,,,5,,,69,100
89440,note_off,,,,,64,0,8,,,,,0,,,74,100
89472,note_on,,,,,64,0,12,,,,,4,,,44,85
89472,note_on,,,,,64,0,14,,,,,5,,,56,100
89472,note_on,,,,,64,0,13,,,,,5,,,68,100
89472,note_on,,,,,32,0,8,,,,,0,,,71,93
89472,note_on,,,,,64,0,11,,,,,3,,,56,85
89536,note_off,,,,,64,0,8,,,,,0,,,71,100
89568,note_on,,,,,32,0,8,,,,,0,,,73,92
89600,note_off,,,,,128,0,14,,,,,5,,,56,100
89600,note_off,,,,,128,0,11,,,,,3,,,56,100
89600,note_off,,,,,128,0,12,,,,,4,,,44,100
89600,note_off,,,,,128,0,13,,,,,5,,,68,100
89632,note_off,,,,,64,0,8,,,,,0,,,73,100
89664,note_on,,,,,32,0,8,,,,,0,,,69,92
89664,note_on,,,,,64,0,13,,,,,5,,,66,100
89664,note_on,,,,,64,0,14,,,,,5,,,54,100
89664,note_on,,,,,64,0,11,,,,,3,,,54,85
89664,note_on,,,,,64,0,12,,,,,4,,,42,85
89728,note_off,,,,,64,0,8,,,,,0,,,69,100
89760,note_on,,,,,32,0,8,,,,,0,,,71,91
89792,note_off,,,,,128,0,13,,,,,5,,,66,100
89792,note_off,,,,,128,0,11,,,,,3,,,54,100
89792,note_off,,,,,128,0,12,,,,,4,,,42,100
89792,note_off,,,,,128,0,14,,,,,5,,,54,100
89824,note_off,,,,,64,0,8,,,,,0,,,71,100
89856,note_on,,,,,0,0,13,,,,,5,,,68,100
89856,note_on,,,,,0,0,13,,,,,5,,,59,100
89856,note_on,,,,,64,0,11,,,,,3,,,52,85
89856,note_on,,,,,64,0,14,,,,,5,,,52,100
89856,note_on,,,,,64,0,13,,,,,5,,,64,100
89856,note_on,,,,,64,0,12,,,,,4,,,40,85
89856,note_on,,,,,32,0,8,,,,,0,,,68,90
89984,note_off,,,,,128,0,8,,,,,0,,,68,100
90048,note_on,,,,,64,0,8,,,,,0,,,71,92
90112,note_off,,,,,256,0,14,,,,,5,,,52,100
90112,note_off,,,,,64,0,8,,,,,0,,,71,100
90112,note_off,,,,,256,0,12,,,,,4,,,40,100
90112,note_off,,,,,256,0,11,,,,,3,,,52,100
90112,note_off,,,,,0,0,13,,,,,5,,,59,100
90112,note_off,,,,,256,0,13,,,,,5,,,64,100
90112,note_off,,,,,0,0,13,,,,,5,,,68,100
90144,note_on,,,,,32,0,8,,,,,0,,,69,93
90208,note_off,,,,,64,0,8,,,,,0,,,69,100
90240,note_on,,,,,32,0,8,,,,,0,,,68,94
90368,note_off,,,,,128,0,8,,,,,0,,,68,100
90432,note_on,,,,,64,0,8,,,,,0,,,66,97
90496,note_off,,,,,64,0,8,,,,,0,,,66,100
90528,note_on,,,,,32,0,8,,,,,0,,,64,98
90592,note_off,,,,,64,0,8,,,,,0,,,64,100
90624,note_on,,,,,512,0,13,,,,,5,,,71,100
90624,note_on,,,,,0,0,13,,,,,5,,,76,100
90624,note_on,,,,,512,0,11,,,,,3,,,56,85
90624,note_on,,,,,512,0,12,,,,,4,,,44,85
90624,note_on,,,,,32,0,8,,,,,0,,,76,100
90624,note_on,,,,,512,0,14,,,,,5,,,56,100
90752,note_off,,,,,128,0,8,,,,,0,,,76,100
90816,note_on,,,,,64,0,8,,,,,0,,,71,99
90880,note_off,,,,,256,0,12,,,,,4,,,44,100
90880,note_off,,,,,256,0,14,,,,,5,,,56,100
90880,note_off,,,,,64,0,8,,,,,0,,,71,100
90880,note_off,,,,,256,0,13,,,,,5,,,71,100
90880,note_off,,,,,0,0,13,,,,,5,,,76,100
90880,note_off,,,,,256,0,11,,,,,3,,,56,100
90912,note_on,,,,,32,0,8,,,,,0,,,69,99
90976,note_off,,,,,64,0,8,,,,,0,,,69,100
91008,note_on,,,,,32,0,8,,,,,0,,,68,98
91136,note_off,,,,,128,0,8,,,,,0,,,68,100
91200,note_on,,,,,64,0,8,,,,,0,,,66,97
91264,note_off,,,,,64,0,8,,,,,0,,,66,100
91296,note_on,,,,,32,0,8,,,,,0,,,64,96
91360,note_off,,,,,64,0,8,,,,,0,,,64,100
91392,note_on,,,,,512,0,11,,,,,3,,,52,85
91392,note_on,,,,,512,0,12,,,,,4,,,40,85
91392,note_on,,,,,512,0,14,,,,,5,,,52,100
91392,note_on,,,,,0,0,13,,,,,5,,,74,100
91392,note_on,,,,,32,0,8,,,,,0,,,74,96
91392,note_on,,,,,512,0,13,,,,,5,,,71,100
91520,note_off,,,,,128,0,8,,,,,0,,,74,100
91584,note_on,,,,,64,0,8,,,,,0,,,71,94
91648,note_off,,,,,256,0,14,,,,,5,,,52,100
91648,note_off,,,,,256,0,12,,,,,4,,,40,100
91648,note_off,,,,,256,0,11,,,,,3,,,52,100
91648,note_off,,,,,256,0,13,,,,,5,,,71,100
91648,note_off,,,,,0,0,13,,,,,5,,,74,100
91648,note_off,,,,,64,0,8,,,,,0,,,71,100
91680,note_on,,,,,32,0,8,,,,,0,,,69,94
91744,note_off,,,,,64,0,8,,,,,0,,,69,100
91776,note_on,,,,,32,0,8,,,,,0,,,68,93
91904,note_off,,,,,128,0,8,,,,,0,,,68,100
91968,note_on,,,,,64,0,8,,,,,0,,,66,92
92032,note_off,,,,,64,0,8,,,,,0,,,66,100
92064,note_on,,,,,32,0,8,,,,,0,,,64,91
92128,note_off,,,,,64,0,8,,,,,0,,,64,100
92160,note_on,,,,,32,0,8,,,,,0,,,73,90
92160,note_on,,,,,512,0,13,,,,,5,,,64,100
92160,note_on,,,,,0,0,13,,,,,5,,,73,100
92160,note_on,,,,,512,0,12,,,,,4,,,45,85
92160,note_on,,,,,512,0,11,,,,,3,,,57,85
92160,note_on,,,,,512,0,14,,,,,5,,,57,100
92224,note_off,,,,,64,0,8,,,,,0,,,73,100
92256,note_on,,,,,32,0,8,,,,,0,,,76,90
92320,note_off,,,,,64,0,8,,,,,0,,,76,100
92352,note_on,,,,,32,0,8,,,,,0,,,74,89
92416,note_off,,,,,256,0,14,,,,,5,,,57,100
92416,note_off,,,,,256,0,11,,,,,3,,,57,100
92416,note_off,,,,,64,0,8,,,,,0,,,74,100
92416,note_off,,,,,0,0,13,,,,,5,,,73,100
92416,note_off,,,,,256,0,12,,,,,4,,,45,100
92416,note_off,,,,,256,0,13,,,,,5,,,64,100
92448,note_on,,,,,32,0,8,,,,,0,,,76,89
92512,note_off,,,,,64,0,8,,,,,0,,,76,100
92544,note_on,,,,,32,0,8,,,,,0,,,73,88
92608,note_off,,,,,64,0,8,,,,,0,,,73,100
92640,note_on,,,,,32,0,8,,,,,0,,,74,87
92704,note_off,,,,,64,0,8,,,,,0,,,74,100
92736,note_on,,,,,32,0,8,,,,,0,,,71,87
92800,note_off,,,,,64,0,8,,,,,0,,,71,100
92832,note_on,,,,,32,0,8,,,,,0,,,73,86
92896,note_off,,,,,64,0,8,,,,,0,,,73,100
92928,note_on,,,,,32,0,8,,,,,0,,,69,85
92928,note_on,,,,,512,0,12,,,,,4,,,33,85
92928,note_on,,,,,512,0,13,,,,,5,,,61,100
92928,note_on,,,,,512,0,11,,,,,3,,,45,85
92928,note_on,,,,,512,0,14,,,,,5,,,45,100
92928,note_on,,,,,0,0,13,,,,,5,,,64,100
93056,note_off,,,,,128,0,8,,,,,0,,,69,100
93120,note_on,,,,,64,0,8,,,,,0,,,76,87
93184,note_off,,,,,64,0,8,,,,,0,,,76,100
93184,note_off,,,,,256,0,11,,,,,3,,,45,100
93184,note_off,,,,,256,0,12,,,,,4,,,33,100
93184,note_off,,,,,0,0,13,,,,,5,,,64,100
93184,note_off,,,,,256,0,14,,,,,5,,,45,100
93184,note_off,,,,,256,0,13,,,,,5,,,61,100
93216,note_on,,,,,32,0,8,,,,,0,,,74,88
93280,note_off,,,,,64,0,8,,,,,0,,,74,100
93312,note_on,,,,,32,0,8,,,,,0,,,73,89
93440,note_off,,,,,128,0,8,,,,,0,,,73,100
93504,note_on,,,,,64,0,8,,,,,0,,,71,92
93568,note_off,,,,,64,0,8,,,,,0,,,71,100
93600,note_on,,,,,32,0,8,,,,,0,,,69,93
93664,note_off,,,,,64,0,8,,,,,0,,,69,100
93696,note_on,,,,,512,0,13,,,,,5,,,69,100
93696,note_on,,,,,0,0,13,,,,,5,,,64,100
93696,note_on,,,,,512,0,14,,,,,5,,,49,100
93696,note_on,,,,,512,0,11,,,,,3,,,49,85
93696,note_on,,,,,512,0,12,,,,,4,,,37,85
93696,note_on,,,,,32,0,8,,,,,0,,,81,95
93824,note_off,,,,,128,0,8,,,,,0,,,81,100
93888,note_on,,,,,64,0,8,,,,,0,,,76,96
93952,note_off,,,,,256,0,11,,,,,3,,,49,100
93952,note_off,,,,,256,0,14,,,,,5,,,49,100
93952,note_off,,,,,0,0,13,,,,,5,,,64,100
93952,note_off,,,,,256,0,12,,,,,4,,,37,100
93952,note_off,,,,,256,0,13,,,,,5,,,69,100
93952,note_off,,,,,64,0,8,,,,,0,,,76,100
93984,note_on,,,,,32,0,8,,,,,0,,,74,96
94048,note_off,,,,,64,0,8,,,,,0,,,74,100
94080,note_on,,,,,32,0,8,,,,,0,,,73,97
94208,note_off,,,,,128,0,8,,,,,0,,,73,100
94272,note_on,,,,,64,0,8,,,,,0,,,71,98
94336,note_off,,,,,64,0,8,,,,,0,,,71,100
94368,note_on,,,,,32,0,8,,,,,0,,,69,99
94432,note_off,,,,,64,0,8,,,,,0,,,69,100
94464,note_on,,,,,0,0,13,,,,,5,,,67,100
94464,note_on,,,,,32,0,8,,,,,0,,,79,100
94464,note_on,,,,,512,0,11,,,,,3,,,45,85
94464,note_on,,,,,512,0,14,,,,,5,,,45,100
94464,note_on,,,,,512,0,12,,,,,4,,,33,85
94464,note_on,,,,,512,0,13,,,,,5,,,64,100
94592,note_off,,,,,128,0,8,,,,,0,,,79,100
94656,note_on,,,,,64,0,8,,,,,0,,,76,98
94720,note_off,,,,,0,0,13,,,,,5,,,67,100
94720,note_off,,,,,256,0,11,,,,,3,,,45,100
94720,note_off,,,,,256,0,12,,,,,4,,,33,100
94720,note_off,,,,,256,0,14,,,,,5,,,45,100
94720,note_off,,,,,256,0,13,,,,,5,,,64,100
94720,note_off,,,,,64,0,8,,,,,0,,,76,100
94752,note_on,,,,,32,0,8,,,,,0,,,74,96
94816,note_off,,,,,64,0,8,,,,,0,,,74,100
94848,note_on,,,,,32,0,8,,,,,0,,,73,95
94976,note_off,,,,,128,0,8,,,,,0,,,73,100
95040,note_on,,,,,64,0,8,,,,,0,,,71,92
95104,note_off,,,,,64,0,8,,,,,0,,,71,100
95136,note_on,,,,,32,0,8,,,,,0,,,69,91
95200,note_off,,,,,64,0,8,,,,,0,,,69,100
95232,note_on,,,,,512,0,13,,,,,5,,,62,100
95232,note_on,,,,,0,0,13,,,,,5,,,66,100
95232,note_on,,,,,512,0,12,,,,,4,,,38,85
95232,note_on,,,,,512,0,14,,,,,5,,,50,100
95232,note_on,,,,,512,0,11,,,,,3,,,50,85
95232,note_on,,,,,32,0,8,,,,,0,,,78,90
95296,note_off,,,,,64,0,8,,,,,0,,,78,100
95328,note_on,,,,,32,0,8,,,,,0,,,81,90
95392,note_off,,,,,64,0,8,,,,,0,,,81,100
95424,note_on,,,,,32,0,8,,,,,0,,,80,89
95488,note_off,,,,,256,0,13,,,,,5,,,62,100
95488,note_off,,,,,64,0,8,,,,,0,,,80,100
95488,note_off,,,,,0,0,13,,,,,5,,,66,100
95488,note_off,,,,,256,0,11,,,,,3,,,50,100
95488,note_off,,,,,256,0,12,,,,,4,,,38,100
95488,note_off,,,,,256,0,14,,,,,5,,,50,100
95520,note_on,,,,,32,0,8,,,,,0,,,81,89
95584,note_off,,,,,64,0,8,,,,,0,,,81,100
95616,note_on,,,,,32,0,8,,,,,0,,,78,88
95680,note_off,,,,,64,0,8,,,,,0,,,78,100
95712,note_on,,,,,32,0,8,,,,,0,,,80,87
95776,note_off,,,,,64,0,8,,,,,0,,,80,100
95808,note_on,,,,,32,0,8,,,,,0,,,76,87
95872,note_off,,,,,64,0,8,,,,,0,,,76,100
95904,note_on,,,,,32,0,8,,,,,0,,,78,86
95968,note_off,,,,,64,0,8,,,,,0,,,78,100
96000,note_on,,,,,512,0,14,,,,,5,,,47,100
96000,note_on,,,,,32,0,8,,,,,0,,,75,85
96000,note_on,,,,,512,0,12,,,,,4,,,35,85
96000,note_on,,,,,0,0,13,,,,,5,,,66,100
96000,note_on,,,,,512,0,11,,,,,3,,,47,85
96000,note_on,,,,,512,0,13,,,,,5,,,63,100
96128,note_off,,,,,128,0,8,,,,,0,,,75,100
96192,note_on,,,,,64,0,8,,,,,0,,,78,86
96256,note_off,,,,,256,0,13,,,,,5,,,63,100
96256,note_off,,,,,256,0,12,,,,,4,,,35,100
96256,note_off,,,,,0,0,13,,,,,5,,,66,100
96256,note_off,,,,,256,0,14,,,,,5,,,47,100
96256,note_off,,,,,64,0,8,,,,,0,,,78,100
96256,note_off,,,,,256,0,11,,,,,3,,,47,100
96288,note_on,,,,,32,0,8,,,,,0,,,76,87
96352,note_off,,,,,64,0,8,,,,,0,,,76,100
96384,note_on,,,,,32,0,8,,,,,0,,,75,88
96512,note_off,,,,,128,0,8,,,,,0,,,75,100
96576,note_on,,,,,64,0,8,,,,,0,,,73,90
96640,note_off,,,,,64,0,8,,,,,0,,,73,100
96672,note_on,,,,,32,0,8,,,,,0,,,71,91
96736,note_off,,,,,64,0,8,,,,,0,,,71,100
96768,note_on,,,,,512,0,14,,,,,5,,,51,100
96768,note_on,,,,,0,0,13,,,,,5,,,71,100
96768,note_on,,,,,512,0,12,,,,,4,,,39,85
96768,note_on,,,,,32,0,8,,,,,0,,,83,92
96768,note_on,,,,,512,0,13,,,,,5,,,66,100
96768,note_on,,,,,512,0,11,,,,,3,,,51,85
96896,note_off,,,,,128,0,8,,,,,0,,,83,100
96960,note_on,,,,,64,0,8,,,,,0,,,78,94
97024,note_off,,,,,0,0,13,,,,,5,,,71,100
97024,note_off,,,,,256,0,14,,,,,5,,,51,100
97024,note_off,,,,,256,0,12,,,,,4,,,39,100
97024,note_off,,,,,256,0,13,,,,,5,,,66,100
97024,note_off,,,,,256,0,11,,,,,3,,,51,100
97024,note_off,,,,,64,0,8,,,,,0,,,78,100
97056,note_on,,,,,32,0,8,,,,,0,,,76,95
97120,note_off,,,,,64,0,8,,,,,0,,,76,100
97152,note_on,,,,,32,0,8,,,,,0,,,75,96
97280,note_off,,,,,128,0,8,,,,,0,,,75,100
97344,note_on,,,,,64,0,8,,,,,0,,,73,98
97408,note_off,,,,,64,0,8,,,,,0,,,73,100
97440,note_on,,,,,32,0,8,,,,,0,,,71,99
97504,note_off,,,,,64,0,8,,,,,0,,,71,100
97536,note_on,,,,,512,0,12,,,,,4,,,35,85
97536,note_on,,,,,512,0,11,,,,,3,,,47,85
97536,note_on,,,,,0,0,13,,,,,5,,,69,100
97536,note_on,,,,,32,0,8,,,,,0,,,81,100
97536,note_on,,,,,512,0,13,,,,,5,,,63,100
97536,note_on,,,,,512,0,14,,,,,5,,,47,100
97664,note_off,,,,,128,0,8,,,,,0,,,81,100
97728,note_on,,,,,64,0,8,,,,,0,,,78,98
97792,note_off,,,,,0,0,13,,,,,5,,,69,100
97792,note_off,,,,,64,0,8,,,,,0,,,78,100
97792,note_off,,,,,256,0,14,,,,,5,,,47,100
97792,note_off,,,,,256,0,12,,,,,4,,,35,100
97792,note_off,,,,,256,0,11,,,,,3,,,47,100
97792,note_off,,,,,256,0,13,,,,,5,,,63,100
97824,note_on,,,,,32,0,8,,,,,0,,,76,97
97888,note_off,,,,,64,0,8,,,,,0,,,76,100
97920,note_on,,,,,32,0,8,,,,,0,,,75,96
98048,note_off,,,,,128,0,8,,,,,0,,,75,100
98112,note_on,,,,,64,0,8,,,,,0,,,73,93
98176,note_off,,,,,64,0,8,,,,,0,,,73,100
98208,note_on,,,,,32,0,8,,,,,0,,,71,92
98272,note_off,,,,,64,0,8,,,,,0,,,71,100
98304,note_on,,,,,0,0,13,,,,,5,,,68,100
98304,note_on,,,,,512,0,12,,,,,4,,,40,85
98304,note_on,,,,,512,0,14,,,,,5,,,52,100
98304,note_on,,,,,512,0,11,,,,,3,,,52,85
98304,note_on,,,,,512,0,13,,,,,5,,,64,100
98304,note_on,,,,,32,0,8,,,,,0,,,80,90
98368,note_off,,,,,64,0,8,,,,,0,,,80,100
98400,note_on,,,,,32,0,8,,,,,0,,,83,90
98464,note_off,,,,,64,0,8,,,,,0,,,83,100
98496,note_on,,,,,32,0,8,,,,,0,,,81,91
98560,note_off,,,,,64,0,8,,,,,0,,,81,100
98560,note_off,,,,,256,0,14,,,,,5,,,52,100
98560,note_off,,,,,256,0,12,,,,,4,,,40,100
98560,note_off,,,,,0,0,13,,,,,5,,,68,100
98560,note_off,,,,,256,0,13,,,,,5,,,64,100
98560,note_off,,,,,256,0,11,,,,,3,,,52,100
98592,note_on,,,,,32,0,8,,,,,0,,,83,92
98656,note_off,,,,,64,0,8,,,,,0,,,83,100
98688,note_on,,,,,32,0,8,,,,,0,,,80,93
98752,note_off,,,,,64,0,8,,,,,0,,,80,100
98784,note_on,,,,,32,0,8,,,,,0,,,81,94
98848,note_off,,,,,64,0,8,,,,,0,,,81,100
98880,note_on,,,,,32,0,8,,,,,0,,,78,95
98944,note_off,,,,,64,0,8,,,,,0,,,78,100
98976,note_on,,,,,32,0,8,,,,,0,,,80,96
99040,note_off,,,,,64,0,8,,,,,0,,,80,100
99072,note_on,,,,,512,0,11,,,,,3,,,40,85
99072,note_on,,,,,32,0,8,,,,,0,,,76,97
99072,note_on,,,,,512,0,13,,,,,5,,,59,100
99072,note_on,,,,,0,0,13,,,,,5,,,68,100
99072,note_on,,,,,512,0,12,,,,,4,,,40,85
99072,note_on,,,,,512,0,14,,,,,5,,,40,100
99136,note_off,,,,,64,0,8,,,,,0,,,76,100
99168,note_on,,,,,32,0,8,,,,,0,,,80,98
99232,note_off,,,,,64,0,8,,,,,0,,,80,100
99264,note_on,,,,,32,0,8,,,,,0,,,78,99
99328,note_off,,,,,256,0,14,,,,,5,,,40,100
99328,note_off,,,,,0,0,13,,,,,5,,,68,100
99328,note_off,,,,,256,0,13,,,,,5,,,59,100
99328,note_off,,,,,256,0,11,,,,,3,,,40,100
99328,note_off,,,,,256,0,12,,,,,4,,,40,100
99328,note_off,,,,,64,0,8,,,,,0,,,78,100
99360,note_on,,,,,32,0,8,,,,,0,,,80,100
99424,note_off,,,,,64,0,8,,,,,0,,,80,100
99456,note_on,,,,,32,0,8,,,,,0,,,76,101
99520,note_off,,,,,64,0,8,,,,,0,,,76,100
99552,note_on,,,,,32,0,8,,,,,0,,,78,102
99616,note_off,,,,,64,0,8,,,,,0,,,78,100
99648,note_on,,,,,32,0,8,,,,,0,,,74,103
99712,note_off,,,,,64,0,8,,,,,0,,,74,100
99744,note_on,,,,,32,0,8,,,,,0,,,76,104
99808,note_off,,,,,64,0,8,,,,,0,,,76,100
99840,note_on,,,,,32,0,8,,,,,0,,,73,104
99840,note_on,,,,,512,0,13,,,,,5,,,64,100
99840,note_on,,,,,512,0,12,,,,,4,,,33,85
99840,note_on,,,,,0,0,13,,,,,5,,,61,100
99840,note_on,,,,,512,0,11,,,,,3,,,45,85
99840,note_on,,,,,512,0,14,,,,,5,,,45,100
99932,note_off,,,,,92,0,8,,,,,0,,,73,100
99936,note_on,,,,,4,0,8,,,,,0,,,71,100
99968,note_off,,,,,128,0,11,,,,,3,,,45,100
99968,note_off,,,,,128,0,12,,,,,4,,,33,100
99968,note_off,,,,,128,0,14,,,,,5,,,45,100
100028,note_off,,,,,92,0,8,,,,,0,,,71,100
100032,note_on,,,,,4,0,8,,,,,0,,,73,100
100032,note_on,,,,,64,0,14,,,,,5,,,47,100
100032,note_on,,,,,64,0,11,,,,,3,,,47,85
100032,note_on,,,,,64,0,12,,,,,4,,,35,85
100096,note_off,,,,,0,0,13,,,,,5,,,61,100
100096,note_off,,,,,256,0,13,,,,,5,,,64,100
100096,note_off,,,,,64,0,8,,,,,0,,,73,100
100128,note_on,,,,,32,0,8,,,,,0,,,81,100
100160,note_off,,,,,128,0,14,,,,,5,,,47,100
100160,note_off,,,,,128,0,12,,,,,4,,,35,100
100160,note_off,,,,,128,0,11,,,,,3,,,47,100
100192,note_off,,,,,64,0,8,,,,,0,,,81,100
100224,note_on,,,,,32,0,8,,,,,0,,,73,100
100224,note_on,,,,,64,0,12,,,,,4,,,37,85
100224,note_on,,,,,64,0,11,,,,,3,,,49,85
100224,note_on,,,,,0,0,13,,,,,5,,,64,100
100224,note_on,,,,,128,0,13,,,,,5,,,69,100
100224,note_on,,,,,64,0,14,,,,,5,,,49,100
100316,note_off,,,,,92,0,8,,,,,0,,,73,100
100320,note_on,,,,,4,0,8,,,,,0,,,71,100
100352,note_off,,,,,128,0,12,,,,,4,,,37,100
100352,note_off,,,,,128,0,11,,,,,3,,,49,100
100352,note_off,,,,,128,0,14,,,,,5,,,49,100
100412,note_off,,,,,92,0,8,,,,,0,,,71,100
100416,note_on,,,,,64,0,11,,,,,3,,,45,85
100416,note_on,,,,,64,0,12,,,,,4,,,33,85
100416,note_on,,,,,4,0,8,,,,,0,,,73,100
100416,note_on,,,,,64,0,14,,,,,5,,,45,100
100480,note_off,,,,,0,0,13,,,,,5,,,64,100
100480,note_off,,,,,64,0,8,,,,,0,,,73,100
100480,note_off,,,,,256,0,13,,,,,5,,,69,100
100512,note_on,,,,,32,0,8,,,,,0,,,81,100
100544,note_off,,,,,128,0,12,,,,,4,,,33,100
100544,note_off,,,,,128,0,11,,,,,3,,,45,100
100544,note_off,,,,,128,0,14,,,,,5,,,45,100
100576,note_off,,,,,64,0,8,,,,,0,,,81,100
100608,note_on,,,,,32,0,8,,,,,0,,,71,100
100608,note_on,,,,,128,0,13,,,,,5,,,71,100
100608,note_on,,,,,0,0,13,,,,,5,,,69,100
100608,note_on,,,,,64,0,11,,,,,3,,,50,85
100608,note_on,,,,,64,0,14,,,,,5,,,50,100
100608,note_on,,,,,64,0,12,,,,,4,,,38,85
100700,note_off,,,,,92,0,8,,,,,0,,,71,100
100704,note_on,,,,,4,0,8,,,,,0,,,69,100
100736,note_off,,,,,128,0,12,,,,,4,,,38,100
100736,note_off,,,,,128,0,11,,,,,3,,,50,100
100736,note_off,,,,,128,0,14,,,,,5,,,50,100
100796,note_off,,,,,92,0,8,,,,,0,,,69,100
100800,note_on,,,,,4,0,8,,,,,0,,,71,100
100800,note_on,,,,,64,0,14,,,,,5,,,49,100
100800,note_on,,,,,64,0,11,,,,,3,,,49,85
100800,note_on,,,,,64,0,12,,,,,4,,,37,85
100864,note_off,,,,,64,0,8,,,,,0,,,71,100
100864,note_off,,,,,256,0,13,,,,,5,,,71,100
100864,note_off,,,,,0,0,13,,,,,5,,,69,100
100896,note_on,,,,,32,0,8,,,,,0,,,81,100
100928,note_off,,,,,128,0,12,,,,,4,,,37,100
100928,note_off,,,,,128,0,14,,,,,5,,,49,100
100928,note_off,,,,,128,0,11,,,,,3,,,49,100
100960,note_off,,,,,64,0,8,,,,,0,,,81,100
100992,note_on,,,,,0,0,13,,,,,5,,,71,100
100992,note_on,,,,,64,0,14,,,,,5,,,50,100
100992,note_on,,,,,64,0,12,,,,,4,,,38,85
100992,note_on,,,,,32,0,8,,,,,0,,,71,100
100992,note_on,,,,,64,0,11,,,,,3,,,50,85
100992,note_on,,,,,128,0,13,,,,,5,,,69,100
101084,note_off,,,,,92,0,8,,,,,0,,,71,100
101088,note_on,,,,,4,0,8,,,,,0,,,69,100
101120,note_off,,,,,128,0,12,,,,,4,,,38,100
101120,note_off,,,,,128,0,14,,,,,5,,,50,100
101120,note_off,,,,,128,0,11,,,,,3,,,50,100
101180,note_off,,,,,92,0,8,,,,,0,,,69,100
101184,note_on,,,,,64,0,14,,,,,5,,,47,100
101184,note_on,,,,,64,0,11,,,,,3,,,47,85
101184,note_on,,,,,64,0,12,,,,,4,,,35,85
101184,note_on,,,,,4,0,8,,,,,0,,,71,100
101248,note_off,,,,,256,0,13,,,,,5,,,69,100
101248,note_off,,,,,0,0,13,,,,,5,,,71,100
101248,note_off,,,,,64,0,8,,,,,0,,,71,100
101280,note_on,,,,,32,0,8,,,,,0,,,81,100
101312,note_off,,,,,128,0,14,,,,,5,,,47,100
101312,note_off,,,,,128,0,12,,,,,4,,,35,100
101312,note_off,,,,,128,0,11,,,,,3,,,47,100
101344,note_off,,,,,64,0,8,,,,,0,,,81,100
101376,note_on,,,,,32,0,8,,,,,0,,,71,100
101376,note_on,,,,,128,0,13,,,,,5,,,68,100
101376,note_on,,,,,0,0,13,,,,,5,,,71,100
101376,note_on,,,,,64,0,11,,,,,3,,,52,85
101376,note_on,,,,,64,0,12,,,,,4,,,40,85
101376,note_on,,,,,64,0,14,,,,,5,,,52,100
101468,note_off,,,,,92,0,8,,,,,0,,,71,100
101472,note_on,,,,,4,0,8,,,,,0,,,69,100
101504,note_off,,,,,128,0,11,,,,,3,,,52,100
101504,note_off,,,,,128,0,12,,,,,4,,,40,100
101504,note_off,,,,,128,0,14,,,,,5,,,52,100
101564,note_off,,,,,92,0,8,,,,,0,,,69,100
101568,note_on,,,,,64,0,14,,,,,5,,,50,100
101568,note_on,,,,,64,0,11,,,,,3,,,50,85
101568,note_on,,,,,64,0,12,,,,,4,,,38,85
101568,note_on,,,,,4,0,8,,,,,0,,,71,100
101632,note_off,,,,,0,0,13,,,,,5,,,71,100
101632,note_off,,,,,256,0,13,,,,,5,,,68,100
101632,note_off,,,,,64,0,8,,,,,0,,,71,100
101664,note_on,,,,,32,0,8,,,,,0,,,80,100
101696,note_off,,,,,128,0,11,,,,,3,,,50,100
101696,note_off,,,,,128,0,14,,,,,5,,,50,100
101696,note_off,,,,,128,0,12,,,,,4,,,38,100
101728,note_off,,,,,64,0,8,,,,,0,,,80,100
101760,note_on,,,,,64,0,12,,,,,4,,,40,85
101760,note_on,,,,,64,0,14,,,,,5,,,52,100
101760,note_on,,,,,0,0,13,,,,,5,,,68,100
101760,note_on,,,,,128,0,13,,,,,5,,,59,100
101760,note_on,,,,,64,0,11,,,,,3,,,52,85
101760,note_on,,,,,32,0,8,,,,,0,,,71,100
101852,note_off,,,,,92,0,8,,,,,0,,,71,100
101856,note_on,,,,,4,0,8,,,,,0,,,69,100
101888,note_off,,,,,128,0,11,,,,,3,,,52,100
101888,note_off,,,,,128,0,14,,,,,5,,,52,100
101888,note_off,,,,,128,0,12,,,,,4,,,40,100
101948,note_off,,,,,92,0,8,,,,,0,,,69,100
101952,note_on,,,,,64,0,12,,,,,4,,,40,85
101952,note_on,,,,,64,0,11,,,,,3,,,40,85
101952,note_on,,,,,64,0,14,,,,,5,,,40,100
101952,note_on,,,,,4,0,8,,,,,0,,,71,100
102016,note_off,,,,,0,0,13,,,,,5,,,68,100
102016,note_off,,,,,256,0,13,,,,,5,,,59,100
102016,note_off,,,,,64,0,8,,,,,0,,,71,100
102048,note_on,,,,,32,0,8,,,,,0,,,80,100
102080,note_off,,,,,128,0,11,,,,,3,,,40,100
102080,note_off,,,,,128,0,14,,,,,5,,,40,100
102080,note_off,,,,,128,0,12,,,,,4,,,40,100
102112,note_off,,,,,64,0,8,,,,,0,,,80,100
102144,note_on,,,,,64,0,12,,,,,4,,,33,85
102144,note_on,,,,,128,0,13,,,,,5,,,69,100
102144,note_on,,,,,64,0,14,,,,,5,,,45,100
102144,note_on,,,,,0,0,9,,,,,1,,,81,85
102144,note_on,,,,,18176,0,9,,,,,1,,,73,85
102144,note_on,,,,,64,0,11,,,,,3,,,45,85
102144,note_on,,,,,0,0,13,,,,,5,,,64,100
102144,note_on,,,,,0,0,13,,,,,5,,,61,100
102144,note_on,,,,,32,0,8,,,,,0,,,81,100
102144,note_on,,,,,18176,0,10,,,,,2,,,64,85
102208,note_off,,,,,64,0,9,,,,,1,,,81,100
102240,note_on,,,,,32,0,9,,,,,1,,,69,85
102272,note_off,,,,,128,0,10,,,,,2,,,64,100
102272,note_off,,,,,32,0,9,,,,,1,,,73,100
102272,note_off,,,,,128,0,14,,,,,5,,,45,100
102272,note_off,,,,,128,0,12,,,,,4,,,33,100
102272,note_off,,,,,128,0,11,,,,,3,,,45,100
102304,note_off,,,,,32,0,9,,,,,1,,,69,100
102336,note_on,,,,,0,0,9,,,,,1,,,69,85
102336,note_on,,,,,32,0,9,,,,,1,,,73,85
102336,note_on,,,,,64,0,11,,,,,3,,,45,85
102336,note_on,,,,,64,0,10,,,,,2,,,64,85
102336,note_on,,,,,64,0,14,,,,,5,,,45,100
102336,note_on,,,,,64,0,12,,,,,4,,,33,85
102400,end_of_track,,,,,0,1,8,,,,,,,,,
102400,note_off,,,,,0,0,13,,,,,5,,,64,100
102400,note_off,,,,,0,0,13,,,,,5,,,61,100
102400,note_off,,,,,256,0,13,,,,,5,,,69,100
102400,note_off,,,,,256,0,8,,,,,0,,,81,100
102400,note_off,,,,,64,0,9,,,,,1,,,69,100
102432,note_on,,,,,32,0,9,,,,,1,,,69,85
102464,note_off,,,,,128,0,10,,,,,2,,,64,100
102464,note_off,,,,,128,0,14,,,,,5,,,45,100
102464,note_off,,,,,128,0,12,,,,,4,,,33,100
102464,note_off,,,,,32,0,9,,,,,1,,,73,100
102464,note_off,,,,,128,0,11,,,,,3,,,45,100
102496,note_off,,,,,32,0,9,,,,,1,,,69,100
102528,note_on,,,,,64,0,14,,,,,5,,,45,100
102528,note_on,,,,,64,0,11,,,,,3,,,45,85
102528,note_on,,,,,64,0,10,,,,,2,,,64,85
102528,note_on,,,,,0,0,13,,,,,5,,,64,100
102528,note_on,,,,,128,0,13,,,,,5,,,69,100
102528,note_on,,,,,64,0,12,,,,,4,,,33,85
102528,note_on,,,,,0,0,13,,,,,5,,,61,100
102528,note_on,,,,,0,0,9,,,,,1,,,81,85
102528,note_on,,,,,32,0,9,,,,,1,,,73,85
102592,note_off,,,,,64,0,9,,,,,1,,,81,100
102624,note_on,,,,,32,0,9,,,,,1,,,69,85
102656,note_off,,,,,128,0,14,,,,,5,,,45,100
102656,note_off,,,,,128,0,12,,,,,4,,,33,100
102656,note_off,,,,,128,0,11,,,,,3,,,45,100
102656,note_off,,,,,32,0,9,,,,,1,,,73,100
102656,note_off,,,,,128,0,10,,,,,2,,,64,100
102688,note_off,,,,,32,0,9,,,,,1,,,69,100
102720,note_on,,,,,64,0,12,,,,,4,,,33,85
102720,note_on,,,,,64,0,11,,,,,3,,,45,85
102720,note_on,,,,,64,0,14,,,,,5,,,45,100
102720,note_on,,,,,32,0,9,,,,,1,,,73,85
102720,note_on,,,,,0,0,9,,,,,1,,,69,85
102720,note_on,,,,,64,0,10,,,,,2,,,64,85
102784,note_off,,,,,0,0,13,,,,,5,,,64,100
102784,note_off,,,,,64,0,9,,,,,1,,,69,100
102784,note_off,,,,,0,0,13,,,,,5,,,61,100
102784,note_off,,,,,256,0,13,,,,,5,,,69,100
102816,note_on,,,,,32,0,9,,,,,1,,,69,85
102848,note_off,,,,,128,0,12,,,,,4,,,33,100
102848,note_off,,,,,128,0,10,,,,,2,,,64,100
102848,note_off,,,,,128,0,11,,,,,3,,,45,100
102848,note_off,,,,,128,0,14,,,,,5,,,45,100
102848,note_off,,,,,32,0,9,,,,,1,,,73,100
102880,note_off,,,,,32,0,9,,,,,1,,,69,100
102912,note_on,,,,,64,0,10,,,,,2,,,64,85
102912,note_on,,,,,0,0,13,,,,,5,,,68,100
102912,note_on,,,,,64,0,14,,,,,5,,,52,100
102912,note_on,,,,,64,0,12,,,,,4,,,40,85
102912,note_on,,,,,0,0,13,,,,,5,,,59,100
102912,note_on,,,,,64,0,11,,,,,3,,,52,85
102912,note_on,,,,,0,0,9,,,,,1,,,80,85
102912,note_on,,,,,32,0,9,,,,,1,,,71,85
102912,note_on,,,,,128,0,13,,,,,5,,,64,100
102976,note_off,,,,,64,0,9,,,,,1,,,80,100
103008,note_on,,,,,32,0,9,,,,,1,,,76,86
103040,note_off,,,,,32,0,9,,,,,1,,,71,100
103040,note_off,,,,,128,0,12,,,,,4,,,40,100
103040,note_off,,,,,128,0,14,,,,,5,,,52,100
103040,note_off,,,,,128,0,11,,,,,3,,,52,100
103040,note_off,,,,,128,0,10,,,,,2,,,64,100
103072,note_off,,,,,32,0,9,,,,,1,,,76,100
103104,note_on,,,,,64,0,10,,,,,2,,,64,86
103104,note_on,,,,,64,0,14,,,,,5,,,52,100
103104,note_on,,,,,64,0,12,,,,,4,,,40,86
103104,note_on,,,,,32,0,9,,,,,1,,,71,86
103104,note_on,,,,,0,0,9,,,,,1,,,76,86
103104,note_on,,,,,64,0,11,,,,,3,,,52,86
103168,note_off,,,,,256,0,13,,,,,5,,,64,100
103168,note_off,,,,,0,0,13,,,,,5,,,59,100
103168,note_off,,,,,0,0,13,,,,,5,,,68,100
103168,note_off,,,,,64,0,9,,,,,1,,,76,100
103200,note_on,,,,,32,0,9,,,,,1,,,80,86
103232,note_off,,,,,32,0,9,,,,,1,,,71,100
103232,note_off,,,,,128,0,10,,,,,2,,,64,100
103232,note_off,,,,,128,0,14,,,,,5,,,52,100
103232,note_off,,,,,128,0,11,,,,,3,,,52,100
103232,note_off,,,,,128,0,12,,,,,4,,,40,100
103264,note_off,,,,,32,0,9,,,,,1,,,80,100
103296,note_on,,,,,64,0,11,,,,,3,,,52,86
103296,note_on,,,,,64,0,12,,,,,4,,,40,86
103296,note_on,,,,,64,0,14,,,,,5,,,52,100
103296,note_on,,,,,128,0,13,,,,,5,,,64,100
103296,note_on,,,,,64,0,10,,,,,2,,,64,86
103296,note_on,,,,,0,0,13,,,,,5,,,59,100
103296,note_on,,,,,0,0,13,,,,,5,,,68,100
103296,note_on,,,,,0,0,9,,,,,1,,,80,86
103296,note_on,,,,,32,0,9,,,,,1,,,71,86
103360,note_off,,,,,64,0,9,,,,,1,,,80,100
103392,note_on,,,,,32,0,9,,,,,1,,,76,86
103424,note_off,,,,,128,0,11,,,,,3,,,52,100
103424,note_off,,,,,128,0,10,,,,,2,,,64,100
103424,note_off,,,,,128,0,12,,,,,4,,,40,100
103424,note_off,,,,,128,0,14,,,,,5,,,52,100
103424,note_off,,,,,32,0,9,,,,,1,,,71,100
103456,note_off,,,,,32,0,9,,,,,1,,,76,100
103488,note_on,,,,,32,0,9,,,,,1,,,71,86
103488,note_on,,,,,64,0,14,,,,,5,,,52,100
103488,note_on,,,,,64,0,10,,,,,2,,,64,86
103488,note_on,,,,,64,0,12,,,,,4,,,40,86
103488,note_on,,,,,0,0,9,,,,,1,,,76,86
103488,note_on,,,,,64,0,11,,,,,3,,,52,86
103552,note_off,,,,,0,0,13,,,,,5,,,68,100
103552,note_off,,,,,0,0,13,,,,,5,,,59,100
103552,note_off,,,,,256,0,13,,,,,5,,,64,100
103552,note_off,,,,,64,0,9,,,,,1,,,76,100
103584,note_on,,,,,32,0,9,,,,,1,,,80,86
103616,note_off,,,,,128,0,14,,,,,5,,,52,100
103616,note_off,,,,,128,0,11,,,,,3,,,52,100
103616,note_off,,,,,128,0,12,,,,,4,,,40,100
103616,note_off,,,,,32,0,9,,,,,1,,,71,100
103616,note_off,,,,,128,0,10,,,,,2,,,64,100
103648,note_off,,,,,32,0,9,,,,,1,,,80,100
103680,note_on,,,,,128,0,13,,,,,5,,,69,100
103680,note_on,,,,,64,0,11,,,,,3,,,45,70
103680,note_on,,,,,64,0,12,,,,,4,,,33,70
103680,note_on,,,,,0,0,13,,,,,5,,,61,100
103680,note_on,,,,,0,0,13,,,,,5,,,64,100
103680,note_on,,,,,32,0,9,,,,,1,,,73,70
103680,note_on,,,,,0,0,9,,,,,1,,,81,70
103680,note_on,,,,,64,0,14,,,,,5,,,45,100
103680,note_on,,,,,64,0,10,,,,,2,,,64,70
103744,note_off,,,,,64,0,9,,,,,1,,,81,100
103776,note_on,,,,,32,0,9,,,,,1,,,69,70
103808,note_off,,,,,32,0,9,,,,,1,,,73,100
103808,note_off,,,,,128,0,10,,,,,2,,,64,100
103808,note_off,,,,,128,0,12,,,,,4,,,33,100
103808,note_off,,,,,128,0,14,,,,,5,,,45,100
103808,note_off,,,,,128,0,11,,,,,3,,,45,100
103840,note_off,,,,,32,0,9,,,,,1,,,69,100
103872,note_on,,,,,32,0,9,,,,,1,,,73,70
103872,note_on,,,,,64,0,10,,,,,2,,,64,70
103872,note_on,,,,,64,0,11,,,,,3,,,45,70
103872,note_on,,,,,64,0,12,,,,,4,,,33,70
103872,note_on,,,,,64,0,14,,,,,5,,,45,100
103872,note_on,,,,,0,0,9,,,,,1,,,69,70
103936,note_off,,,,,0,0,13,,,,,5,,,64,100
103936,note_off,,,,,0,0,13,,,,,5,,,61,100
103936,note_off,,,,,64,0,9,,,,,1,,,69,100
103936,note_off,,,,,256,0,13,,,,,5,,,69,100
103968,note_on,,,,,32,0,9,,,,,1,,,69,70
104000,note_off,,,,,128,0,14,,,,,5,,,45,100
104000,note_off,,,,,32,0,9,,,,,1,,,73,100
104000,note_off,,,,,128,0,10,,,,,2,,,64,100
104000,note_off,,,,,128,0,11,,,,,3,,,45,100
104000,note_off,,,,,128,0,12,,,,,4,,,33,100
104032,note_off,,,,,32,0,9,,,,,1,,,69,100
104064,note_on,,,,,64,0,14,,,,,5,,,45,100
104064,note_on,,,,,64,0,11,,,,,3,,,45,70
104064,note_on,,,,,64,0,12,,,,,4,,,33,70
104064,note_on,,,,,0,0,13,,,,,5,,,64,100
104064,note_on,,,,,64,0,10,,,,,2,,,64,70
104064,note_on,,,,,0,0,13,,,,,5,,,61,100
104064,note_on,,,,,128,0,13,,,,,5,,,69,100
104064,note_on,,,,,32,0,9,,,,,1,,,73,70
104064,note_on,,,,,0,0,9,,,,,1,,,81,70
104128,note_off,,,,,64,0,9,,,,,1,,,81,100
104160,note_on,,,,,32,0,9,,,,,1,,,69,70
104192,note_off,,,,,32,0,9,,,,,1,,,73,100
104192,note_off,,,,,128,0,14,,,,,5,,,45,100
104192,note_off,,,,,128,0,10,,,,,2,,,64,100
104192,note_off,,,,,128,0,11,,,,,3,,,45,100
104192,note_off,,,,,128,0,12,,,,,4,,,33,100
104224,note_off,,,,,32,0,9,,,,,1,,,69,100
104256,note_on,,,,,64,0,11,,,,,3,,,45,70
104256,note_on,,,,,64,0,14,,,,,5,,,45,100
104256,note_on,,,,,0,0,9,,,,,1,,,69,70
104256,note_on,,,,,32,0,9,,,,,1,,,73,70
104256,note_on,,,,,64,0,10,,,,,2,,,64,70
104256,note_on,,,,,64,0,12,,,,,4,,,33,70
104320,note_off,,,,,256,0,13,,,,,5,,,69,100
104320,note_off,,,,,64,0,9,,,,,1,,,69,100
104320,note_off,,,,,0,0,13,,,,,5,,,61,100
104320,note_off,,,,,0,0,13,,,,,5,,,64,100
104352,note_on,,,,,32,0,9,,,,,1,,,69,70
104384,note_off,,,,,128,0,12,,,,,4,,,33,100
104384,note_off,,,,,128,0,11,,,,,3,,,45,100
104384,note_off,,,,,128,0,14,,,,,5,,,45,100
104384,note_off,,,,,128,0,10,,,,,2,,,64,100
104384,note_off,,,,,32,0,9,,,,,1,,,73,100
104416,note_off,,,,,32,0,9,,,,,1,,,69,100
104448,note_on,,,,,32,0,9,,,,,1,,,71,70
104448,note_on,,,,,0,0,9,,,,,1,,,80,70
104448,note_on,,,,,128,0,13,,,,,5,,,64,100
104448,note_on,,,,,64,0,11,,,,,3,,,52,70
104448,note_on,,,,,0,0,13,,,,,5,,,59,100
104448,note_on,,,,,0,0,13,,,,,5,,,68,100
104448,note_on,,,,,64,0,12,,,,,4,,,40,70
104448,note_on,,,,,64,0,10,,,,,2,,,64,70
104448,note_on,,,,,64,0,14,,,,,5,,,52,100
104512,note_off,,,,,64,0,9,,,,,1,,,80,100
104544,note_on,,,,,32,0,9,,,,,1,,,76,70
104576,note_off,,,,,128,0,11,,,,,3,,,52,100
104576,note_off,,,,,128,0,10,,,,,2,,,64,100
104576,note_off,,,,,128,0,14,,,,,5,,,52,100
104576,note_off,,,,,128,0,12,,,,,4,,,40,100
104576,note_off,,,,,32,0,9,,,,,1,,,71,100
104608,note_off,,,,,32,0,9,,,,,1,,,76,100
104640,note_on,,,,,64,0,12,,,,,4,,,40,70
104640,note_on,,,,,64,0,14,,,,,5,,,52,100
104640,note_on,,,,,64,0,11,,,,,3,,,52,70
104640,note_on,,,,,64,0,10,,,,,2,,,64,70
104640,note_on,,,,,32,0,9,,,,,1,,,71,70
104640,note_on,,,,,0,0,9,,,,,1,,,76,70
104704,note_off,,,,,256,0,13,,,,,5,,,64,100
104704,note_off,,,,,0,0,13,,,,,5,,,68,100
104704,note_off,,,,,0,0,13,,,,,5,,,59,100
104704,note_off,,,,,64,0,9,,,,,1,,,76,100
104736,note_on,,,,,32,0,9,,,,,1,,,80,70
104768,note_off,,,,,128,0,11,,,,,3,,,52,100
104768,note_off,,,,,32,0,9,,,,,1,,,71,100
104768,note_off,,,,,128,0,14,,,,,5,,,52,100
104768,note_off,,,,,128,0,10,,,,,2,,,64,100
104768,note_off,,,,,128,0,12,,,,,4,,,40,100
104800,note_off,,,,,32,0,9,,,,,1,,,80,100
104832,note_on,,,,,64,0,11,,,,,3,,,52,70
104832,note_on,,,,,32,0,9,,,,,1,,,71,70
104832,note_on,,,,,64,0,14,,,,,5,,,52,100
104832,note_on,,,,,64,0,12,,,,,4,,,40,70
104832,note_on,,,,,128,0,13,,,,,5,,,64,100
104832,note_on,,,,,0,0,13,,,,,5,,,59,100
104832,note_on,,,,,0,0,9,,,,,1,,,80,70
104832,note_on,,,,,64,0,10,,,,,2,,,59,70
104832,note_on,,,,,0,0,13,,,,,5,,,68,100
104896,note_off,,,,,64,0,9,,,,,1,,,80,100
104928,note_on,,,,,32,0,9,,,,,1,,,76,70
104960,note_off,,,,,32,0,9,,,,,1,,,71,100
104960,note_off,,,,,128,0,11,,,,,3,,,52,100
104960,note_off,,,,,128,0,12,,,,,4,,,40,100
104960,note_off,,,,,128,0,10,,,,,2,,,59,100
104960,note_off,,,,,128,0,14,,,,,5,,,52,100
104992,note_off,,,,,32,0,9,,,,,1,,,76,100
105024,note_on,,,,,64,0,14,,,,,5,,,52,100
105024,note_on,,,,,32,0,9,,,,,1,,,71,70
105024,note_on,,,,,0,0,9,,,,,1,,,76,70
105024,note_on,,,,,64,0,11,,,,,3,,,52,70
105024,note_on,,,,,64,0,10,,,,,2,,,59,70
105024,note_on,,,,,64,0,12,,,,,4,,,40,70
105088,note_off,,,,,64,0,9,,,,,1,,,76,100
105088,note_off,,,,,0,0,13,,,,,5,,,68,100
105088,note_off,,,,,0,0,13,,,,,5,,,59,100
105088,note_off,,,,,256,0,13,,,,,5,,,64,100
105120,note_on,,,,,32,0,9,,,,,1,,,80,88
105152,note_off,,,,,32,0,9,,,,,1,,,71,100
105152,note_off,,,,,128,0,12,,,,,4,,,40,100
105152,note_off,,,,,128,0,10,,,,,2,,,59,100
105152,note_off,,,,,128,0,11,,,,,3,,,52,100
105152,note_off,,,,,128,0,14,,,,,5,,,52,100
105184,note_off,,,,,32,0,9,,,,,1,,,80,100
105216,note_on,,,,,64,0,10,,,,,2,,,57,88
105216,note_on,,,,,64,0,11,,,,,3,,,57,88
105216,note_on,,,,,64,0,12,,,,,4,,,45,88
105216,note_on,,,,,0,0,13,,,,,5,,,73,100
105216,note_on,,,,,0,0,13,,,,,5,,,64,100
105216,note_on,,,,,64,0,14,,,,,5,,,57,100
105216,note_on,,,,,128,0,13,,,,,5,,,69,100
105216,note_on,,,,,0,0,9,,,,,1,,,81,88
105216,note_on,,,,,32,0,9,,,,,1,,,73,88
105280,note_off,,,,,64,0,9,,,,,1,,,81,100
105312,note_on,,,,,32,0,9,,,,,1,,,69,89
105344,note_off,,,,,128,0,12,,,,,4,,,45,100
105344,note_off,,,,,128,0,10,,,,,2,,,57,100
105344,note_off,,,,,32,0,9,,,,,1,,,73,100
105344,note_off,,,,,128,0,14,,,,,5,,,57,100
105344,note_off,,,,,128,0,11,,,,,3,,,57,100
105376,note_off,,,,,32,0,9,,,,,1,,,69,100
105408,note_on,,,,,64,0,14,,,,,5,,,57,100
105408,note_on,,,,,64,0,12,,,,,4,,,45,89
105408,note_on,,,,,32,0,9,,,,,1,,,73,89
105408,note_on,,,,,0,0,9,,,,,1,,,69,89
105408,note_on,,,,,64,0,11,,,,,3,,,57,89
105408,note_on,,,,,64,0,10,,,,,2,,,57,89
105472,note_off,,,,,64,0,9,,,,,1,,,69,100
105472,note_off,,,,,256,0,13,,,,,5,,,69,100
105472,note_off,,,,,0,0,13,,,,,5,,,64,100
105472,note_off,,,,,0,0,13,,,,,5,,,73,100
105504,note_on,,,,,32,0,9,,,,,1,,,69,89
105536,note_off,,,,,128,0,10,,,,,2,,,57,100
105536,note_off,,,,,32,0,9,,,,,1,,,73,100
105536,note_off,,,,,128,0,12,,,,,4,,,45,100
105536,note_off,,,,,128,0,11,,,,,3,,,57,100
105536,note_off,,,,,128,0,14,,,,,5,,,57,100
105568,note_off,,,,,32,0,9,,,,,1,,,69,100
105600,note_on,,,,,128,0,13,,,,,5,,,69,100
105600,note_on,,,,,0,0,13,,,,,5,,,64,100
105600,note_on,,,,,64,0,10,,,,,2,,,57,89
105600,note_on,,,,,0,0,13,,,,,5,,,73,100
105600,note_on,,,,,32,0,9,,,,,1,,,73,89
105600,note_on,,,,,64,0,12,,,,,4,,,45,89
105600,note_on,,,,,0,0,9,,,,,1,,,81,89
105600,note_on,,,,,64,0,11,,,,,3,,,57,89
105600,note_on,,,,,64,0,14,,,,,5,,,57,100
105664,note_off,,,,,64,0,9,,,,,1,,,81,100
105696,note_on,,,,,32,0,9,,,,,1,,,69,89
105728,note_off,,,,,128,0,14,,,,,5,,,57,100
105728,note_off,,,,,128,0,10,,,,,2,,,57,100
105728,note_off,,,,,32,0,9,,,,,1,,,73,100
105728,note_off,,,,,128,0,11,,,,,3,,,57,100
105728,note_off,,,,,128,0,12,,,,,4,,,45,100
105760,note_off,,,,,32,0,9,,,,,1,,,69,100
105792,note_on,,,,,64,0,12,,,,,4,,,45,89
105792,note_on,,,,,64,0,10,,,,,2,,,57,89
105792,note_on,,,,,64,0,14,,,,,5,,,57,100
105792,note_on,,,,,64,0,11,,,,,3,,,57,89
105792,note_on,,,,,32,0,9,,,,,1,,,73,89
105792,note_on,,,,,0,0,9,,,,,1,,,69,89
105856,note_off,,,,,0,0,13,,,,,5,,,73,100
105856,note_off,,,,,0,0,13,,,,,5,,,64,100
105856,note_off,,,,,256,0,13,,,,,5,,,69,100
105856,note_off,,,,,64,0,9,,,,,1,,,69,100
105888,note_on,,,,,32,0,9,,,,,1,,,69,89
105920,note_off,,,,,128,0,12,,,,,4,,,45,100
105920,note_off,,,,,128,0,14,,,,,5,,,57,100
105920,note_off,,,,,128,0,11,,,,,3,,,57,100
105920,note_off,,,,,128,0,10,,,,,2,,,57,100
105920,note_off,,,,,32,0,9,,,,,1,,,73,100
105952,note_off,,,,,32,0,9,,,,,1,,,69,100
105984,note_on,,,,,64,0,12,,,,,4,,,47,89
105984,note_on,,,,,0,0,9,,,,,1,,,81,89
105984,note_on,,,,,64,0,10,,,,,2,,,59,89
105984,note_on,,,,,64,0,11,,,,,3,,,59,89
105984,note_on,,,,,128,0,13,,,,,5,,,74,100
105984,note_on,,,,,0,0,13,,,,,5,,,66,100
105984,note_on,,,,,0,0,13,,,,,5,,,69,100
105984,note_on,,,,,64,0,14,,,,,5,,,59,100
105984,note_on,,,,,32,0,9,,,,,1,,,74,89
106048,note_off,,,,,64,0,9,,,,,1,,,81,100
106080,note_on,,,,,32,0,9,,,,,1,,,69,90
106112,note_off,,,,,128,0,10,,,,,2,,,59,100
106112,note_off,,,,,32,0,9,,,,,1,,,74,100
106112,note_off,,,,,128,0,11,,,,,3,,,59,100
106112,note_off,,,,,128,0,14,,,,,5,,,59,100
106112,note_off,,,,,128,0,12,,,,,4,,,47,100
106144,note_off,,,,,32,0,9,,,,,1,,,69,100
106176,note_on,,,,,0,0,9,,,,,1,,,69,90
106176,note_on,,,,,64,0,11,,,,,3,,,59,90
106176,note_on,,,,,64,0,10,,,,,2,,,59,90
106176,note_on,,,,,64,0,14,,,,,5,,,59,100
106176,note_on,,,,,64,0,12,,,,,4,,,47,90
106176,note_on,,,,,32,0,9,,,,,1,,,74,90
106240,note_off,,,,,64,0,9,,,,,1,,,69,100
106240,note_off,,,,,0,0,13,,,,,5,,,69,100
106240,note_off,,,,,0,0,13,,,,,5,,,66,100
106240,note_off,,,,,256,0,13,,,,,5,,,74,100
106272,note_on,,,,,32,0,9,,,,,1,,,69,90
106304,note_off,,,,,128,0,10,,,,,2,,,59,100
106304,note_off,,,,,128,0,12,,,,,4,,,47,100
106304,note_off,,,,,32,0,9,,,,,1,,,74,100
106304,note_off,,,,,128,0,14,,,,,5,,,59,100
106304,note_off,,,,,128,0,11,,,,,3,,,59,100
106336,note_off,,,,,32,0,9,,,,,1,,,69,100
106368,note_on,,,,,64,0,12,,,,,4,,,47,90
106368,note_on,,,,,128,0,13,,,,,5,,,74,100
106368,note_on,,,,,0,0,13,,,,,5,,,66,100
106368,note_on,,,,,0,0,13,,,,,5,,,69,100
106368,note_on,,,,,64,0,14,,,,,5,,,59,100
106368,note_on,,,,,64,0,10,,,,,2,,,59,90
106368,note_on,,,,,64,0,11,,,,,3,,,59,90
106368,note_on,,,,,32,0,9,,,,,1,,,74,90
106368,note_on,,,,,0,0,9,,,,,1,,,81,90
106432,note_off,,,,,64,0,9,,,,,1,,,81,100
106464,note_on,,,,,32,0,9,,,,,1,,,69,90
106496,note_off,,,,,128,0,12,,,,,4,,,47,100
106496,note_off,,,,,128,0,14,,,,,5,,,59,100
106496,note_off,,,,,128,0,10,,,,,2,,,59,100
106496,note_off,,,,,32,0,9,,,,,1,,,74,100
106496,note_off,,,,,128,0,11,,,,,3,,,59,100
106528,note_off,,,,,32,0,9,,,,,1,,,69,100
106560,note_on,,,,,32,0,9,,,,,1,,,74,90
106560,note_on,,,,,0,0,9,,,,,1,,,69,90
106560,note_on,,,,,64,0,10,,,,,2,,,59,90
106560,note_on,,,,,64,0,14,,,,,5,,,59,100
106560,note_on,,,,,64,0,11,,,,,3,,,59,90
106560,note_on,,,,,64,0,12,,,,,4,,,47,90
106624,note_off,,,,,256,0,13,,,,,5,,,74,100
106624,note_off,,,,,0,0,13,,,,,5,,,66,100
106624,note_off,,,,,0,0,13,,,,,5,,,69,100
106624,note_off,,,,,64,0,9,,,,,1,,,69,100
106656,note_on,,,,,32,0,9,,,,,1,,,69,90
106688,note_off,,,,,32,0,9,,,,,1,,,74,100
106688,note_off,,,,,128,0,11,,,,,3,,,59,100
106688,note_off,,,,,128,0,10,,,,,2,,,59,100
106688,note_off,,,,,128,0,14,,,,,5,,,59,100
106688,note_off,,,,,128,0,12,,,,,4,,,47,100
106720,note_off,,,,,32,0,9,,,,,1,,,69,100
106752,note_on,,,,,128,0,13,,,,,5,,,76,100
106752,note_on,,,,,0,0,9,,,,,1,,,81,90
106752,note_on,,,,,32,0,9,,,,,1,,,76,90
106752,note_on,,,,,64,0,14,,,,,5,,,61,100
106752,note_on,,,,,0,0,13,,,,,5,,,69,100
106752,note_on,,,,,64,0,11,,,,,3,,,61,90
106752,note_on,,,,,64,0,10,,,,,2,,,61,90
106752,note_on,,,,,0,0,13,,,,,5,,,64,100
106752,note_on,,,,,64,0,12,,,,,4,,,49,90
106816,note_off,,,,,64,0,9,,,,,1,,,81,100
106848,note_on,,,,,32,0,9,,,,,1,,,69,91
106880,note_off,,,,,128,0,14,,,,,5,,,61,100
106880,note_off,,,,,32,0,9,,,,,1,,,76,100
106880,note_off,,,,,128,0,12,,,,,4,,,49,100
106880,note_off,,,,,128,0,11,,,,,3,,,61,100
106880,note_off,,,,,128,0,10,,,,,2,,,61,100
106912,note_off,,,,,32,0,9,,,,,1,,,69,100
106944,note_on,,,,,64,0,14,,,,,5,,,61,100
106944,note_on,,,,,64,0,11,,,,,3,,,61,91
106944,note_on,,,,,64,0,12,,,,,4,,,49,91
106944,note_on,,,,,0,0,9,,,,,1,,,69,91
106944,note_on,,,,,32,0,9,,,,,1,,,76,91
106944,note_on,,,,,64,0,10,,,,,2,,,61,91
107008,note_off,,,,,256,0,13,,,,,5,,,76,100
107008,note_off,,,,,0,0,13,,,,,5,,,64,100
107008,note_off,,,,,0,0,13,,,,,5,,,69,100
107008,note_off,,,,,64,0,9,,,,,1,,,69,100
107040,note_on,,,,,32,0,9,,,,,1,,,69,91
107072,note_off,,,,,128,0,12,,,,,4,,,49,100
107072,note_off,,,,,128,0,10,,,,,2,,,61,100
107072,note_off,,,,,32,0,9,,,,,1,,,76,100
107072,note_off,,,,,128,0,14,,,,,5,,,61,100
107072,note_off,,,,,128,0,11,,,,,3,,,61,100
107104,note_off,,,,,32,0,9,,,,,1,,,69,100
107136,note_on,,,,,0,0,13,,,,,5,,,64,100
107136,note_on,,,,,64,0,14,,,,,5,,,61,100
107136,note_on,,,,,128,0,13,,,,,5,,,76,100
107136,note_on,,,,,0,0,13,,,,,5,,,69,100
107136,note_on,,,,,64,0,10,,,,,2,,,61,91
107136,note_on,,,,,64,0,12,,,,,4,,,49,91
107136,note_on,,,,,0,0,9,,,,,1,,,81,91
107136,note_on,,,,,32,0,9,,,,,1,,,76,91
107136,note_on,,,,,64,0,11,,,,,3,,,61,91
107200,note_off,,,,,64,0,9,,,,,1,,,81,100
107232,note_on,,,,,32,0,9,,,,,1,,,69,91
107264,note_off,,,,,128,0,11,,,,,3,,,61,100
107264,note_off,,,,,128,0,10,,,,,2,,,61,100
107264,note_off,,,,,32,0,9,,,,,1,,,76,100
107264,note_off,,,,,128,0,14,,,,,5,,,61,100
107264,note_off,,,,,128,0,12,,,,,4,,,49,100
107296,note_off,,,,,32,0,9,,,,,1,,,69,100
107328,note_on,,,,,64,0,10,,,,,2,,,61,91
107328,note_on,,,,,0,0,9,,,,,1,,,69,91
107328,note_on,,,,,32,0,9,,,,,1,,,76,91
107328,note_on,,,,,64,0,12,,,,,4,,,49,91
107328,note_on,,,,,64,0,14,,,,,5,,,61,100
107328,note_on,,,,,64,0,11,,,,,3,,,61,91
107392,note_off,,,,,0,0,13,,,,,5,,,69,100
107392,note_off,,,,,64,0,9,,,,,1,,,69,100
107392,note_off,,,,,0,0,13,,,,,5,,,64,100
107392,note_off,,,,,256,0,13,,,,,5,,,76,100
107424,note_on,,,,,32,0,9,,,,,1,,,69,91
107456,note_off,,,,,128,0,10,,,,,2,,,61,100
107456,note_off,,,,,128,0,11,,,,,3,,,61,100
107456,note_off,,,,,128,0,14,,,,,5,,,61,100
107456,note_off,,,,,128,0,12,,,,,4,,,49,100
107456,note_off,,,,,32,0,9,,,,,1,,,76,100
107488,note_off,,,,,32,0,9,,,,,1,,,69,100
107520,note_on,,,,,64,0,11,,,,,3,,,62,91
107520,note_on,,,,,128,0,13,,,,,5,,,78,100
107520,note_on,,,,,64,0,12,,,,,4,,,50,91
107520,note_on,,,,,0,0,13,,,,,5,,,69,100
107520,note_on,,,,,64,0,10,,,,,2,,,62,91
107520,note_on,,,,,0,0,13,,,,,5,,,66,100
107520,note_on,,,,,0,0,9,,,,,1,,,81,91
107520,note_on,,,,,32,0,9,,,,,1,,,78,91
107520,note_on,,,,,64,0,14,,,,,5,,,62,100
107584,note_off,,,,,64,0,9,,,,,1,,,81,100
107616,note_on,,,,,32,0,9,,,,,1,,,69,92
107648,note_off,,,,,128,0,10,,,,,2,,,62,100
107648,note_off,,,,,128,0,11,,,,,3,,,62,100
107648,note_off,,,,,128,0,14,,,,,5,,,62,100
107648,note_off,,,,,128,0,12,,,,,4,,,50,100
107648,note_off,,,,,32,0,9,,,,,1,,,78,100
107680,note_off,,,,,32,0,9,,,,,1,,,69,100
107712,note_on,,,,,64,0,14,,,,,5,,,62,100
107712,note_on,,,,,64,0,12,,,,,4,,,50,92
107712,note_on,,,,,64,0,10,,,,,2,,,62,92
107712,note_on,,,,,64,0,11,,,,,3,,,62,92
107712,note_on,,,,,32,0,9,,,,,1,,,78,92
107712,note_on,,,,,0,0,9,,,,,1,,,69,92
107776,note_off,,,,,256,0,13,,,,,5,,,78,100
107776,note_off,,,,,0,0,13,,,,,5,,,66,100
107776,note_off,,,,,0,0,13,,,,,5,,,69,100
107776,note_off,,,,,64,0,9,,,,,1,,,69,100
107808,note_on,,,,,32,0,9,,,,,1,,,69,92
107840,note_off,,,,,32,0,9,,,,,1,,,78,100
107840,note_off,,,,,128,0,11,,,,,3,,,62,100
107840,note_off,,,,,128,0,14,,,,,5,,,62,100
107840,note_off,,,,,128,0,10,,,,,2,,,62,100
107840,note_off,,,,,128,0,12,,,,,4,,,50,100
107872,note_off,,,,,32,0,9,,,,,1,,,69,100
107904,note_on,,,,,64,0,12,,,,,4,,,50,92
107904,note_on,,,,,64,0,10,,,,,2,,,62,92
107904,note_on,,,,,0,0,13,,,,,5,,,69,100
107904,note_on,,,,,0,0,13,,,,,5,,,66,100
107904,note_on,,,,,32,0,9,,,,,1,,,78,92
107904,note_on,,,,,0,0,9,,,,,1,,,81,92
107904,note_on,,,,,64,0,14,,,,,5,,,62,100
107904,note_on,,,,,64,0,11,,,,,3,,,62,92
107904,note_on,,,,,128,0,13,,,,,5,,,78,100
107968,note_off,,,,,64,0,9,,,,,1,,,81,100
108000,note_on,,,,,32,0,9,,,,,1,,,69,92
108032,note_off,,,,,128,0,11,,,,,3,,,62,100
108032,note_off,,,,,128,0,12,,,,,4,,,50,100
108032,note_off,,,,,32,0,9,,,,,1,,,78,100
108032,note_off,,,,,128,0,10,,,,,2,,,62,100
108032,note_off,,,,,128,0,14,,,,,5,,,62,100
108064,note_off,,,,,32,0,9,,,,,1,,,69,100
108096,note_on,,,,,64,0,10,,,,,2,,,62,92
108096,note_on,,,,,64,0,11,,,,,3,,,62,92
108096,note_on,,,,,64,0,14,,,,,5,,,62,100
108096,note_on,,,,,32,0,9,,,,,1,,,78,92
108096,note_on,,,,,0,0,9,,,,,1,,,69,92
108096,note_on,,,,,64,0,12,,,,,4,,,50,92
108160,note_off,,,,,64,0,9,,,,,1,,,69,100
108160,note_off,,,,,0,0,13,,,,,5,,,69,100
108160,note_off,,,,,0,0,13,,,,,5,,,66,100
108160,note_off,,,,,256,0,13,,,,,5,,,78,100
108192,note_on,,,,,32,0,9,,,,,1,,,69,92
108224,note_off,,,,,128,0,14,,,,,5,,,62,100
108224,note_off,,,,,128,0,10,,,,,2,,,62,100
108224,note_off,,,,,128,0,12,,,,,4,,,50,100
108224,note_off,,,,,128,0,11,,,,,3,,,62,100
108224,note_off,,,,,32,0,9,,,,,1,,,78,100
108256,note_off,,,,,32,0,9,,,,,1,,,69,100
108288,note_on,,,,,32,0,9,,,,,1,,,73,92
108288,note_on,,,,,0,0,9,,,,,1,,,81,92
108288,note_on,,,,,64,0,11,,,,,3,,,57,92
108288,note_on,,,,,0,0,13,,,,,5,,,64,100
108288,note_on,,,,,0,0,13,,,,,5,,,73,100
108288,note_on,,,,,64,0,10,,,,,2,,,57,92
108288,note_on,,,,,64,0,12,,,,,4,,,45,92
108288,note_on,,,,,64,0,14,,,,,5,,,57,100
108288,note_on,,,,,128,0,13,,,,,5,,,69,100
108352,note_off,,,,,64,0,9,,,,,1,,,81,100
108384,note_on,,,,,32,0,9,,,,,1,,,69,93
108416,note_off,,,,,32,0,9,,,,,1,,,73,100
108416,note_off,,,,,128,0,10,,,,,2,,,57,100
108416,note_off,,,,,128,0,14,,,,,5,,,57,100
108416,note_off,,,,,128,0,11,,,,,3,,,57,100
108416,note_off,,,,,128,0,12,,,,,4,,,45,100
108448,note_off,,,,,32,0,9,,,,,1,,,69,100
108480,note_on,,,,,64,0,14,,,,,5,,,57,100
108480,note_on,,,,,64,0,11,,,,,3,,,57,93
108480,note_on,,,,,64,0,12,,,,,4,,,45,93
108480,note_on,,,,,32,0,9,,,,,1,,,73,93
108480,note_on,,,,,0,0,9,,,,,1,,,69,93
108480,note_on,,,,,64,0,10,,,,,2,,,57,93
108544,note_off,,,,,0,0,13,,,,,5,,,64,100
108544,note_off,,,,,0,0,13,,,,,5,,,73,100
108544,note_off,,,,,64,0,9,,,,,1,,,69,100
108544,note_off,,,,,256,0,13,,,,,5,,,69,100
108576,note_on,,,,,32,0,9,,,,,1,,,69,93
108608,note_off,,,,,128,0,11,,,,,3,,,57,100
108608,note_off,,,,,128,0,12,,,,,4,,,45,100
108608,note_off,,,,,32,0,9,,,,,1,,,73,100
108608,note_off,,,,,128,0,14,,,,,5,,,57,100
108608,note_off,,,,,128,0,10,,,,,2,,,57,100
108640,note_off,,,,,32,0,9,,,,,1,,,69,100
108672,note_on,,,,,0,0,13,,,,,5,,,64,100
108672,note_on,,,,,64,0,14,,,,,5,,,57,100
108672,note_on,,,,,64,0,11,,,,,3,,,57,93
108672,note_on,,,,,0,0,13,,,,,5,,,73,100
108672,note_on,,,,,64,0,12,,,,,4,,,45,93
108672,note_on,,,,,64,0,10,,,,,2,,,57,93
108672,note_on,,,,,0,0,9,,,,,1,,,81,93
108672,note_on,,,,,32,0,9,,,,,1,,,73,93
108672,note_on,,,,,128,0,13,,,,,5,,,69,100
108736,note_off,,,,,64,0,9,,,,,1,,,81,100
108768,note_on,,,,,32,0,9,,,,,1,,,69,93
108800,note_off,,,,,128,0,10,,,,,2,,,57,100
108800,note_off,,,,,128,0,12,,,,,4,,,45,100
108800,note_off,,,,,128,0,14,,,,,5,,,57,100
108800,note_off,,,,,32,0,9,,,,,1,,,73,100
108800,note_off,,,,,128,0,11,,,,,3,,,57,100
108832,note_off,,,,,32,0,9,,,,,1,,,69,100
108864,note_on,,,,,64,0,10,,,,,2,,,57,93
108864,note_on,,,,,0,0,9,,,,,1,,,69,93
108864,note_on,,,,,64,0,12,,,,,4,,,45,93
108864,note_on,,,,,64,0,14,,,,,5,,,57,100
108864,note_on,,,,,64,0,11,,,,,3,,,57,93
108864,note_on,,,,,32,0,9,,,,,1,,,73,93
108928,note_off,,,,,256,0,13,,,,,5,,,69,100
108928,note_off,,,,,0,0,13,,,,,5,,,73,100
108928,note_off,,,,,0,0,13,,,,,5,,,64,100
108928,note_off,,,,,64,0,9,,,,,1,,,69,100
108960,note_on,,,,,32,0,9,,,,,1,,,69,93
108992,note_off,,,,,128,0,14,,,,,5,,,57,100
108992,note_off,,,,,128,0,11,,,,,3,,,57,100
108992,note_off,,,,,128,0,12,,,,,4,,,45,100
108992,note_off,,,,,32,0,9,,,,,1,,,73,100
108992,note_off,,,,,128,0,10,,,,,2,,,57,100
109024,note_off,,,,,32,0,9,,,,,1,,,69,100
109056,note_on,,,,,64,0,10,,,,,2,,,59,93
109056,note_on,,,,,64,0,14,,,,,5,,,59,100
109056,note_on,,,,,64,0,12,,,,,4,,,47,93
109056,note_on,,,,,128,0,13,,,,,5,,,74,100
109056,note_on,,,,,0,0,13,,,,,5,,,66,100
109056,note_on,,,,,0,0,13,,,,,5,,,69,100
109056,note_on,,,,,64,0,11,,,,,3,,,59,93
109056,note_on,,,,,32,0,9,,,,,1,,,74,93
109056,note_on,,,,,0,0,9,,,,,1,,,81,93
109120,note_off,,,,,64,0,9,,,,,1,,,81,100
109152,note_on,,,,,32,0,9,,,,,1,,,69,94
109184,note_off,,,,,128,0,10,,,,,2,,,59,100
109184,note_off,,,,,32,0,9,,,,,1,,,74,100
109184,note_off,,,,,128,0,14,,,,,5,,,59,100
109184,note_off,,,,,128,0,12,,,,,4,,,47,100
109184,note_off,,,,,128,0,11,,,,,3,,,59,100
109216,note_off,,,,,32,0,9,,,,,1,,,69,100
109248,note_on,,,,,64,0,10,,,,,2,,,59,94
109248,note_on,,,,,0,0,9,,,,,1,,,69,94
109248,note_on,,,,,32,0,9,,,,,1,,,74,94
109248,note_on,,,,,64,0,12,,,,,4,,,47,94
109248,note_on,,,,,64,0,11,,,,,3,,,59,94
109248,note_on,,,,,64,0,14,,,,,5,,,59,100
109312,note_off,,,,,0,0,13,,,,,5,,,69,100
109312,note_off,,,,,0,0,13,,,,,5,,,66,100
109312,note_off,,,,,64,0,9,,,,,1,,,69,100
109312,note_off,,,,,256,0,13,,,,,5,,,74,100
109344,note_on,,,,,32,0,9,,,,,1,,,69,94
109376,note_off,,,,,128,0,14,,,,,5,,,59,100
109376,note_off,,,,,32,0,9,,,,,1,,,74,100
109376,note_off,,,,,128,0,10,,,,,2,,,59,100
109376,note_off,,,,,128,0,11,,,,,3,,,59,100
109376,note_off,,,,,128,0,12,,,,,4,,,47,100
109408,note_off,,,,,32,0,9,,,,,1,,,69,100
109440,note_on,,,,,64,0,14,,,,,5,,,59,100
109440,note_on,,,,,64,0,10,,,,,2,,,59,94
109440,note_on,,,,,64,0,11,,,,,3,,,59,94
109440,note_on,,,,,64,0,12,,,,,4,,,47,94
109440,note_on,,,,,32,0,9,,,,,1,,,74,94
109440,note_on,,,,,0,0,13,,,,,5,,,69,100
109440,note_on,,,,,0,0,9,,,,,1,,,81,94
109440,note_on,,,,,128,0,13,,,,,5,,,74,100
109440,note_on,,,,,0,0,13,,,,,5,,,66,100
109504,note_off,,,,,64,0,9,,,,,1,,,81,100
109536,note_on,,,,,32,0,9,,,,,1,,,69,94
109568,note_off,,,,,128,0,11,,,,,3,,,59,100
109568,note_off,,,,,32,0,9,,,,,1,,,74,100
109568,note_off,,,,,128,0,10,,,,,2,,,59,100
109568,note_off,,,,,128,0,14,,,,,5,,,59,100
109568,note_off,,,,,128,0,12,,,,,4,,,47,100
109600,note_off,,,,,32,0,9,,,,,1,,,69,100
109632,note_on,,,,,64,0,12,,,,,4,,,47,94
109632,note_on,,,,,64,0,10,,,,,2,,,59,94
109632,note_on,,,,,0,0,9,,,,,1,,,69,94
109632,note_on,,,,,64,0,14,,,,,5,,,59,100
109632,note_on,,,,,32,0,9,,,,,1,,,74,94
109632,note_on,,,,,64,0,11,,,,,3,,,59,94
109696,note_off,,,,,64,0,9,,,,,1,,,69,100
109696,note_off,,,,,256,0,13,,,,,5,,,74,100
109696,note_off,,,,,0,0,13,,,,,5,,,66,100
109696,note_off,,,,,0,0,13,,,,,5,,,69,100
109728,note_on,,,,,32,0,9,,,,,1,,,69,94
109760,note_off,,,,,32,0,9,,,,,1,,,74,100
109760,note_off,,,,,128,0,11,,,,,3,,,59,100
109760,note_off,,,,,128,0,14,,,,,5,,,59,100
109760,note_off,,,,,128,0,10,,,,,2,,,59,100
109760,note_off,,,,,128,0,12,,,,,4,,,47,100
109792,note_off,,,,,32,0,9,,,,,1,,,69,100
109824,note_on,,,,,64,0,14,,,,,5,,,61,100
109824,note_on,,,,,64,0,11,,,,,3,,,61,94
109824,note_on,,,,,128,0,13,,,,,5,,,76,100
109824,note_on,,,,,32,0,9,,,,,1,,,76,94
109824,note_on,,,,,64,0,10,,,,,2,,,61,94
109824,note_on,,,,,0,0,9,,,,,1,,,81,94
109824,note_on,,,,,0,0,13,,,,,5,,,69,100
109824,note_on,,,,,0,0,13,,,,,5,,,64,100
109824,note_on,,,,,64,0,12,,,,,4,,,49,94
109888,note_off,,,,,64,0,9,,,,,1,,,81,100
109920,note_on,,,,,32,0,9,,,,,1,,,69,95
109952,note_off,,,,,128,0,12,,,,,4,,,49,100
109952,note_off,,,,,32,0,9,,,,,1,,,76,100
109952,note_off,,,,,128,0,14,,,,,5,,,61,100
109952,note_off,,,,,128,0,10,,,,,2,,,61,100
109952,note_off,,,,,128,0,11,,,,,3,,,61,100
109984,note_off,,,,,32,0,9,,,,,1,,,69,100
110016,note_on,,,,,64,0,10,,,,,2,,,61,95
110016,note_on,,,,,32,0,9,,,,,1,,,76,95
110016,note_on,,,,,0,0,9,,,,,1,,,69,95
110016,note_on,,,,,64,0,12,,,,,4,,,49,95
110016,note_on,,,,,64,0,11,,,,,3,,,61,95
110016,note_on,,,,,64,0,14,,,,,5,,,61,100
110080,note_off,,,,,64,0,9,,,,,1,,,69,100
110080,note_off,,,,,256,0,13,,,,,5,,,76,100
110080,note_off,,,,,0,0,13,,,,,5,,,64,100
110080,note_off,,,,,0,0,13,,,,,5,,,69,100
110112,note_on,,,,,32,0,9,,,,,1,,,69,95
110144,note_off,,,,,32,0,9,,,,,1,,,76,100
110144,note_off,,,,,128,0,10,,,,,2,,,61,100
110144,note_off,,,,,128,0,11,,,,,3,,,61,100
110144,note_off,,,,,128,0,12,,,,,4,,,49,100
110144,note_off,,,,,128,0,14,,,,,5,,,61,100
110176,note_off,,,,,32,0,9,,,,,1,,,69,100
110208,note_on,,,,,64,0,14,,,,,5,,,61,100
110208,note_on,,,,,0,0,13,,,,,5,,,69,100
110208,note_on,,,,,64,0,11,,,,,3,,,61,95
110208,note_on,,,,,64,0,12,,,,,4,,,49,95
110208,note_on,,,,,64,0,10,,,,,2,,,61,95
110208,note_on,,,,,128,0,13,,,,,5,,,76,100
110208,note_on,,,,,32,0,9,,,,,1,,,76,95
110208,note_on,,,,,0,0,9,,,,,1,,,81,95
110208,note_on,,,,,0,0,13,,,,,5,,,64,100
110272,note_off,,,,,64,0,9,,,,,1,,,81,100
110304,note_on,,,,,32,0,9,,,,,1,,,69,95
110336,note_off,,,,,128,0,11,,,,,3,,,61,100
110336,note_off,,,,,32,0,9,,,,,1,,,76,100
110336,note_off,,,,,128,0,12,,,,,4,,,49,100
110336,note_off,,,,,128,0,10,,,,,2,,,61,100
110336,note_off,,,,,128,0,14,,,,,5,,,61,100
110368,note_off,,,,,32,0,9,,,,,1,,,69,100
110400,note_on,,,,,64,0,12,,,,,4,,,49,95
110400,note_on,,,,,64,0,11,,,,,3,,,61,95
110400,note_on,,,,,64,0,10,,,,,2,,,61,95
110400,note_on,,,,,64,0,14,,,,,5,,,61,100
110400,note_on,,,,,32,0,9,,,,,1,,,76,95
110400,note_on,,,,,0,0,9,,,,,1,,,69,95
110464,note_off,,,,,256,0,13,,,,,5,,,76,100
110464,note_off,,,,,0,0,13,,,,,5,,,69,100
110464,note_off,,,,,0,0,13,,,,,5,,,64,100
110464,note_off,,,,,64,0,9,,,,,1,,,69,100
110496,note_on,,,,,32,0,9,,,,,1,,,69,95
110528,note_off,,,,,32,0,9,,,,,1,,,76,100
110528,note_off,,,,,128,0,10,,,,,2,,,61,100
110528,note_off,,,,,128,0,11,,,,,3,,,61,100
110528,note_off,,,,,128,0,12,,,,,4,,,49,100
110528,note_off,,,,,128,0,14,,,,,5,,,61,100
110560,note_off,,,,,32,0,9,,,,,1,,,69,100
110592,note_on,,,,,64,0,14,,,,,5,,,62,100
110592,note_on,,,,,64,0,10,,,,,2,,,62,95
110592,note_on,,,,,32,0,9,,,,,1,,,78,95
110592,note_on,,,,,0,0,9,,,,,1,,,81,95
110592,note_on,,,,,128,0,13,,,,,5,,,78,100
110592,note_on,,,,,0,0,13,,,,,5,,,66,100
110592,note_on,,,,,64,0,11,,,,,3,,,62,95
110592,note_on,,,,,64,0,12,,,,,4,,,50,95
110592,note_on,,,,,0,0,13,,,,,5,,,69,100
110656,note_off,,,,,64,0,9,,,,,1,,,81,100
110688,note_on,,,,,32,0,9,,,,,1,,,69,96
110720,note_off,,,,,32,0,9,,,,,1,,,78,100
110720,note_off,,,,,128,0,14,,,,,5,,,62,100
110720,note_off,,,,,128,0,10,,,,,2,,,62,100
110720,note_off,,,,,128,0,11,,,,,3,,,62,100
110720,note_off,,,,,128,0,12,,,,,4,,,50,100
110752,note_off,,,,,32,0,9,,,,,1,,,69,100
110784,note_on,,,,,64,0,12,,,,,4,,,50,96
110784,note_on,,,,,0,0,9,,,,,1,,,69,96
110784,note_on,,,,,32,0,9,,,,,1,,,78,96
110784,note_on,,,,,64,0,14,,,,,5,,,62,100
110784,note_on,,,,,64,0,10,,,,,2,,,62,96
110784,note_on,,,,,64,0,11,,,,,3,,,62,96
110848,note_off,,,,,64,0,9,,,,,1,,,69,100
110848,note_off,,,,,0,0,13,,,,,5,,,69,100
110848,note_off,,,,,0,0,13,,,,,5,,,66,100
110848,note_off,,,,,256,0,13,,,,,5,,,78,100
110880,note_on,,,,,32,0,9,,,,,1,,,69,96
110912,note_off,,,,,32,0,9,,,,,1,,,78,100
110912,note_off,,,,,128,0,11,,,,,3,,,62,100
110912,note_off,,,,,128,0,10,,,,,2,,,62,100
110912,note_off,,,,,128,0,14,,,,,5,,,62,100
110912,note_off,,,,,128,0,12,,,,,4,,,50,100
110944,note_off,,,,,32,0,9,,,,,1,,,69,100
110976,note_on,,,,,32,0,9,,,,,1,,,78,96
110976,note_on,,,,,0,0,9,,,,,1,,,81,96
110976,note_on,,,,,0,0,13,,,,,5,,,69,100
110976,note_on,,,,,0,0,13,,,,,5,,,66,100
110976,note_on,,,,,128,0,13,,,,,5,,,78,100
110976,note_on,,,,,64,0,10,,,,,2,,,62,96
110976,note_on,,,,,64,0,12,,,,,4,,,50,96
110976,note_on,,,,,64,0,14,,,,,5,,,62,100
110976,note_on,,,,,64,0,11,,,,,3,,,62,96
111040,note_off,,,,,64,0,9,,,,,1,,,81,100
111072,note_on,,,,,32,0,9,,,,,1,,,69,96
111104,note_off,,,,,128,0,12,,,,,4,,,50,100
111104,note_off,,,,,32,0,9,,,,,1,,,78,100
111104,note_off,,,,,128,0,14,,,,,5,,,62,100
111104,note_off,,,,,128,0,10,,,,,2,,,62,100
111104,note_off,,,,,128,0,11,,,,,3,,,62,100
111136,note_off,,,,,32,0,9,,,,,1,,,69,100
111168,note_on,,,,,0,0,9,,,,,1,,,69,96
111168,note_on,,,,,64,0,12,,,,,4,,,50,96
111168,note_on,,,,,64,0,14,,,,,5,,,62,100
111168,note_on,,,,,32,0,9,,,,,1,,,78,96
111168,note_on,,,,,64,0,10,,,,,2,,,62,96
111168,note_on,,,,,64,0,11,,,,,3,,,62,96
111232,note_off,,,,,64,0,9,,,,,1,,,69,100
111232,note_off,,,,,0,0,13,,,,,5,,,69,100
111232,note_off,,,,,0,0,13,,,,,5,,,66,100
111232,note_off,,,,,256,0,13,,,,,5,,,78,100
111264,note_on,,,,,32,0,9,,,,,1,,,69,96
111296,note_off,,,,,128,0,12,,,,,4,,,50,100
111296,note_off,,,,,128,0,14,,,,,5,,,62,100
111296,note_off,,,,,128,0,11,,,,,3,,,62,100
111296,note_off,,,,,32,0,9,,,,,1,,,78,100
111296,note_off,,,,,128,0,10,,,,,2,,,62,100
111328,note_off,,,,,32,0,9,,,,,1,,,69,100
111360,note_on,,,,,0,0,13,,,,,5,,,64,100
111360,note_on,,,,,64,0,11,,,,,3,,,57,96
111360,note_on,,,,,64,0,10,,,,,2,,,64,96
111360,note_on,,,,,64,0,12,,,,,4,,,45,96
111360,note_on,,,,,32,0,9,,,,,1,,,73,96
111360,note_on,,,,,0,0,9,,,,,1,,,81,96
111360,note_on,,,,,64,0,14,,,,,5,,,57,100
111360,note_on,,,,,128,0,13,,,,,5,,,73,100
111424,note_off,,,,,64,0,9,,,,,1,,,81,100
111456,note_on,,,,,32,0,9,,,,,1,,,69,97
111488,note_off,,,,,128,0,12,,,,,4,,,45,100
111488,note_off,,,,,128,0,14,,,,,5,,,57,100
111488,note_off,,,,,128,0,11,,,,,3,,,57,100
111488,note_off,,,,,128,0,10,,,,,2,,,64,100
111488,note_off,,,,,32,0,9,,,,,1,,,73,100
111520,note_off,,,,,32,0,9,,,,,1,,,69,100
111552,note_on,,,,,64,0,14,,,,,5,,,57,100
111552,note_on,,,,,64,0,10,,,,,2,,,64,97
111552,note_on,,,,,0,0,9,,,,,1,,,69,97
111552,note_on,,,,,32,0,9,,,,,1,,,73,97
111552,note_on,,,,,64,0,12,,,,,4,,,45,97
111552,note_on,,,,,64,0,11,,,,,3,,,57,97
111616,note_off,,,,,256,0,13,,,,,5,,,73,100
111616,note_off,,,,,0,0,13,,,,,5,,,64,100
111616,note_off,,,,,64,0,9,,,,,1,,,69,100
111648,note_on,,,,,32,0,9,,,,,1,,,69,97
111680,note_off,,,,,32,0,9,,,,,1,,,73,100
111680,note_off,,,,,128,0,10,,,,,2,,,64,100
111680,note_off,,,,,128,0,12,,,,,4,,,45,100
111680,note_off,,,,,128,0,14,,,,,5,,,57,100
111680,note_off,,,,,128,0,11,,,,,3,,,57,100
111712,note_off,,,,,32,0,9,,,,,1,,,69,100
111744,note_on,,,,,0,0,9,,,,,1,,,81,97
111744,note_on,,,,,64,0,12,,,,,4,,,45,97
111744,note_on,,,,,32,0,9,,,,,1,,,73,97
111744,note_on,,,,,64,0,14,,,,,5,,,57,100
111744,note_on,,,,,128,0,13,,,,,5,,,64,100
111744,note_on,,,,,0,0,13,,,,,5,,,73,100
111744,note_on,,,,,64,0,10,,,,,2,,,64,97
111744,note_on,,,,,64,0,11,,,,,3,,,57,97
111808,note_off,,,,,64,0,9,,,,,1,,,81,100
111840,note_on,,,,,32,0,9,,,,,1,,,69,97
111872,note_off,,,,,128,0,14,,,,,5,,,57,100
111872,note_off,,,,,32,0,9,,,,,1,,,73,100
111872,note_off,,,,,128,0,12,,,,,4,,,45,100
111872,note_off,,,,,128,0,11,,,,,3,,,57,100
111872,note_off,,,,,128,0,10,,,,,2,,,64,100
111904,note_off,,,,,32,0,9,,,,,1,,,69,100
111936,note_on,,,,,64,0,11,,,,,3,,,57,97
111936,note_on,,,,,64,0,14,,,,,5,,,57,100
111936,note_on,,,,,64,0,12,,,,,4,,,45,97
111936,note_on,,,,,32,0,9,,,,,1,,,73,97
111936,note_on,,,,,0,0,9,,,,,1,,,69,97
111936,note_on,,,,,64,0,10,,,,,2,,,64,97
112000,note_off,,,,,0,0,13,,,,,5,,,73,100
112000,note_off,,,,,64,0,9,,,,,1,,,69,100
112000,note_off,,,,,256,0,13,,,,,5,,,64,100
112032,note_on,,,,,32,0,9,,,,,1,,,69,97
112064,note_off,,,,,128,0,12,,,,,4,,,45,100
112064,note_off,,,,,128,0,14,,,,,5,,,57,100
112064,note_off,,,,,128,0,10,,,,,2,,,64,100
112064,note_off,,,,,128,0,11,,,,,3,,,57,100
112064,note_off,,,,,32,0,9,,,,,1,,,73,100
112096,note_off,,,,,32,0,9,,,,,1,,,69,100
112128,note_on,,,,,32,0,9,,,,,1,,,71,97
112128,note_on,,,,,0,0,13,,,,,5,,,71,100
112128,note_on,,,,,128,0,13,,,,,5,,,69,100
112128,note_on,,,,,0,0,9,,,,,1,,,81,97
112128,note_on,,,,,64,0,11,,,,,3,,,50,97
112128,note_on,,,,,64,0,10,,,,,2,,,66,97
112128,note_on,,,,,64,0,12,,,,,4,,,38,97
112128,note_on,,,,,64,0,14,,,,,5,,,50,100
112192,note_off,,,,,64,0,9,,,,,1,,,81,100
112224,note_on,,,,,32,0,9,,,,,1,,,71,98
112256,note_off,,,,,128,0,11,,,,,3,,,50,100
112256,note_off,,,,,128,0,12,,,,,4,,,38,100
112256,note_off,,,,,32,0,9,,,,,1,,,71,100
112256,note_off,,,,,128,0,14,,,,,5,,,50,100
112256,note_off,,,,,128,0,10,,,,,2,,,66,100
112288,note_off,,,,,32,0,9,,,,,1,,,71,100
112320,note_on,,,,,32,0,9,,,,,1,,,71,98
112320,note_on,,,,,64,0,14,,,,,5,,,50,100
112320,note_on,,,,,64,0,11,,,,,3,,,50,98
112320,note_on,,,,,64,0,12,,,,,4,,,38,98
112320,note_on,,,,,64,0,10,,,,,2,,,66,98
112384,note_off,,,,,256,0,13,,,,,5,,,69,100
112384,note_off,,,,,0,0,13,,,,,5,,,71,100
112384,note_off,,,,,64,0,9,,,,,1,,,71,100
112416,note_on,,,,,32,0,9,,,,,1,,,71,98
112448,note_off,,,,,128,0,12,,,,,4,,,38,100
112448,note_off,,,,,128,0,11,,,,,3,,,50,100
112448,note_off,,,,,128,0,10,,,,,2,,,66,100
112448,note_off,,,,,128,0,14,,,,,5,,,50,100
112480,note_off,,,,,64,0,9,,,,,1,,,71,100
112512,note_on,,,,,64,0,14,,,,,5,,,50,100
112512,note_on,,,,,64,0,10,,,,,2,,,66,98
112512,note_on,,,,,64,0,12,,,,,4,,,38,98
112512,note_on,,,,,0,0,9,,,,,1,,,81,98
112512,note_on,,,,,64,0,11,,,,,3,,,50,98
112512,note_on,,,,,128,0,13,,,,,5,,,69,100
112512,note_on,,,,,0,0,13,,,,,5,,,71,100
112512,note_on,,,,,32,0,9,,,,,1,,,71,98
112576,note_off,,,,,64,0,9,,,,,1,,,81,100
112608,note_on,,,,,32,0,9,,,,,1,,,71,98
112640,note_off,,,,,128,0,11,,,,,3,,,50,100
112640,note_off,,,,,32,0,9,,,,,1,,,71,100
112640,note_off,,,,,128,0,12,,,,,4,,,38,100
112640,note_off,,,,,128,0,14,,,,,5,,,50,100
112640,note_off,,,,,128,0,10,,,,,2,,,66,100
112672,note_off,,,,,32,0,9,,,,,1,,,71,100
112704,note_on,,,,,64,0,12,,,,,4,,,38,98
112704,note_on,,,,,64,0,10,,,,,2,,,66,98
112704,note_on,,,,,64,0,11,,,,,3,,,50,98
112704,note_on,,,,,32,0,9,,,,,1,,,71,98
112704,note_on,,,,,64,0,14,,,,,5,,,50,100
112768,note_off,,,,,0,0,13,,,,,5,,,71,100
112768,note_off,,,,,64,0,9,,,,,1,,,71,100
112768,note_off,,,,,256,0,13,,,,,5,,,69,100
112800,note_on,,,,,32,0,9,,,,,1,,,71,98
112832,note_off,,,,,128,0,10,,,,,2,,,66,100
112832,note_off,,,,,128,0,14,,,,,5,,,50,100
112832,note_off,,,,,128,0,12,,,,,4,,,38,100
112832,note_off,,,,,128,0,11,,,,,3,,,50,100
112864,note_off,,,,,64,0,9,,,,,1,,,71,100
112896,note_on,,,,,64,0,11,,,,,3,,,52,98
112896,note_on,,,,,0,0,13,,,,,5,,,71,100
112896,note_on,,,,,64,0,12,,,,,4,,,40,98
112896,note_on,,,,,64,0,14,,,,,5,,,52,100
112896,note_on,,,,,32,0,9,,,,,1,,,71,98
112896,note_on,,,,,0,0,9,,,,,1,,,80,98
112896,note_on,,,,,64,0,10,,,,,2,,,64,98
112896,note_on,,,,,128,0,13,,,,,5,,,68,100
112960,note_off,,,,,64,0,9,,,,,1,,,80,100
112992,note_on,,,,,32,0,9,,,,,1,,,71,99
113024,note_off,,,,,128,0,14,,,,,5,,,52,100
113024,note_off,,,,,128,0,12,,,,,4,,,40,100
113024,note_off,,,,,128,0,10,,,,,2,,,64,100
113024,note_off,,,,,32,0,9,,,,,1,,,71,100
113024,note_off,,,,,128,0,11,,,,,3,,,52,100
113056,note_off,,,,,32,0,9,,,,,1,,,71,100
113088,note_on,,,,,64,0,10,,,,,2,,,64,99
113088,note_on,,,,,64,0,11,,,,,3,,,52,99
113088,note_on,,,,,32,0,9,,,,,1,,,71,99
113088,note_on,,,,,64,0,14,,,,,5,,,52,100
113088,note_on,,,,,64,0,12,,,,,4,,,40,99
113152,note_off,,,,,256,0,13,,,,,5,,,68,100
113152,note_off,,,,,64,0,9,,,,,1,,,71,100
113152,note_off,,,,,0,0,13,,,,,5,,,71,100
113184,note_on,,,,,32,0,9,,,,,1,,,71,99
113216,note_off,,,,,128,0,14,,,,,5,,,52,100
113216,note_off,,,,,128,0,12,,,,,4,,,40,100
113216,note_off,,,,,128,0,10,,,,,2,,,64,100
113216,note_off,,,,,128,0,11,,,,,3,,,52,100
113248,note_off,,,,,64,0,9,,,,,1,,,71,100
113280,note_on,,,,,32,0,9,,,,,1,,,71,99
113280,note_on,,,,,64,0,11,,,,,3,,,52,99
113280,note_on,,,,,64,0,12,,,,,4,,,40,99
113280,note_on,,,,,64,0,14,,,,,5,,,52,100
113280,note_on,,,,,0,0,9,,,,,1,,,80,99
113280,note_on,,,,,128,0,13,,,,,5,,,68,100
113280,note_on,,,,,0,0,13,,,,,5,,,71,100
113280,note_on,,,,,64,0,10,,,,,2,,,64,99
113344,note_off,,,,,64,0,9,,,,,1,,,80,100
113376,note_on,,,,,32,0,9,,,,,1,,,71,99
113408,note_off,,,,,128,0,11,,,,,3,,,52,100
113408,note_off,,,,,128,0,14,,,,,5,,,52,100
113408,note_off,,,,,128,0,12,,,,,4,,,40,100
113408,note_off,,,,,32,0,9,,,,,1,,,71,100
113408,note_off,,,,,128,0,10,,,,,2,,,64,100
113440,note_off,,,,,32,0,9,,,,,1,,,71,100
113472,note_on,,,,,32,0,9,,,,,1,,,71,99
113472,note_on,,,,,64,0,10,,,,,2,,,64,99
113472,note_on,,,,,64,0,11,,,,,3,,,52,99
113472,note_on,,,,,64,0,14,,,,,5,,,52,100
113472,note_on,,,,,64,0,12,,,,,4,,,40,99
113536,note_off,,,,,64,0,9,,,,,1,,,71,100
113536,note_off,,,,,0,0,13,,,,,5,,,71,100
113536,note_off,,,,,256,0,13,,,,,5,,,68,100
113568,note_on,,,,,32,0,9,,,,,1,,,71,99
113600,note_off,,,,,128,0,14,,,,,5,,,52,100
113600,note_off,,,,,128,0,12,,,,,4,,,40,100
113600,note_off,,,,,128,0,11,,,,,3,,,52,100
113600,note_off,,,,,128,0,10,,,,,2,,,64,100
113632,note_off,,,,,64,0,9,,,,,1,,,71,100
113664,note_on,,,,,32,0,9,,,,,1,,,73,99
113664,note_on,,,,,64,0,11,,,,,3,,,45,99
113664,note_on,,,,,64,0,12,,,,,4,,,33,99
113664,note_on,,,,,0,0,13,,,,,5,,,69,100
113664,note_on,,,,,128,0,13,,,,,5,,,73,100
113664,note_on,,,,,0,0,9,,,,,1,,,81,99
113664,note_on,,,,,64,0,10,,,,,2,,,64,99
113664,note_on,,,,,64,0,14,,,,,5,,,45,100
113920,note_off,,,,,256,0,10,,,,,2,,,64,100
113920,note_off,,,,,0,0,9,,,,,1,,,81,100
113920,note_off,,,,,256,0,9,,,,,1,,,73,100
113920,note_off,,,,,256,0,13,,,,,5,,,73,100
113920,note_off,,,,,256,0,14,,,,,5,,,45,100
113920,note_off,,,,,256,0,11,,,,,3,,,45,100
113920,note_off,,,,,0,0,13,,,,,5,,,69,100
113920,note_off,,,,,256,0,12,,,,,4,,,33,100
114432,note_on,,,,,512,0,11,,,,,3,,,57,100
114432,note_on,,,,,512,0,13,,,,,5,,,69,100
114432,note_on,,,,,512,0,10,,,,,2,,,69,100
114432,note_on,,,,,512,0,12,,,,,4,,,45,100
114432,note_on,,,,,512,0,14,,,,,5,,,57,100
114432,note_on,,,,,512,0,9,,,,,1,,,69,100
114688,note_off,,,,,256,0,10,,,,,2,,,69,100
114688,note_off,,,,,256,0,14,,,,,5,,,57,100
114688,note_off,,,,,256,0,12,,,,,4,,,45,100
114688,note_off,,,,,256,0,11,,,,,3,,,57,100
114688,note_off,,,,,256,0,9,,,,,1,,,69,100
114688,note_off,,,,,256,0,13,,,,,5,,,69,100
114816,note_on,,,,,128,0,12,,,,,4,,,45,100
114816,note_on,,,,,128,0,14,,,,,5,,,57,100
114816,note_on,,,,,128,0,10,,,,,2,,,69,100
114816,note_on,,,,,128,0,11,,,,,3,,,57,100
114816,note_on,,,,,128,0,9,,,,,1,,,69,100
114816,note_on,,,,,128,0,13,,,,,5,,,69,100
115008,note_off,,,,,192,0,14,,,,,5,,,57,100
115008,note_off,,,,,192,0,12,,,,,4,,,45,100
115008,note_off,,,,,192,0,10,,,,,2,,,69,100
115008,note_off,,,,,192,0,13,,,,,5,,,69,100
115008,note_off,,,,,192,0,9,,,,,1,,,69,100
115008,note_off,,,,,192,0,11,,,,,3,,,57,100
115104,note_on,,,,,96,0,13,,,,,5,,,69,100
115104,note_on,,,,,96,0,9,,,,,1,,,69,100
115104,note_on,,,,,96,0,14,,,,,5,,,57,100
115104,note_on,,,,,96,0,11,,,,,3,,,57,100
115104,note_on,,,,,96,0,10,,,,,2,,,69,100
115104,note_on,,,,,96,0,12,,,,,4,,,45,100
115168,note_off,,,,,64,0,9,,,,,1,,,69,100
115168,note_off,,,,,64,0,13,,,,,5,,,69,100
115168,note_off,,,,,64,0,12,,,,,4,,,45,100
115168,note_off,,,,,64,0,10,,,,,2,,,69,100
115168,note_off,,,,,64,0,14,,,,,5,,,57,100
115168,note_off,,,,,64,0,11,,,,,3,,,57,100
115200,note_on,,,,,32,0,9,,,,,1,,,69,100
115200,note_on,,,,,32,0,13,,,,,5,,,69,100
115200,note_on,,,,,32,0,10,,,,,2,,,69,100
115200,note_on,,,,,32,0,14,,,,,5,,,57,100
115200,note_on,,,,,32,0,12,,,,,4,,,45,100
115200,note_on,,,,,32,0,11,,,,,3,,,57,100
115328,note_off,,,,,128,0,12,,,,,4,,,45,100
115328,note_off,,,,,128,0,9,,,,,1,,,69,100
115328,note_off,,,,,128,0,11,,,,,3,,,57,100
115328,note_off,,,,,128,0,14,,,,,5,,,57,100
115328,note_off,,,,,128,0,13,,,,,5,,,69,100
115328,note_off,,,,,128,0,10,,,,,2,,,69,100
115392,note_on,,,,,64,0,13,,,,,5,,,57,100
115392,note_on,,,,,64,0,11,,,,,3,,,45,100
115392,note_on,,,,,64,0,10,,,,,2,,,57,100
115392,note_on,,,,,64,0,9,,,,,1,,,57,100
115392,note_on,,,,,64,0,14,,,,,5,,,45,100
115392,note_on,,,,,64,0,12,,,,,4,,,33,100
115520,note_off,,,,,128,0,11,,,,,3,,,45,100
115520,note_off,,,,,128,0,9,,,,,1,,,57,100
115520,note_off,,,,,128,0,12,,,,,4,,,33,100
115520,note_off,,,,,128,0,13,,,,,5,,,57,100
115520,note_off,,,,,128,0,10,,,,,2,,,57,100
115520,note_off,,,,,128,0,14,,,,,5,,,45,100
115776,note_on,,,,,256,0,13,,,,,5,,,69,100
115776,note_on,,,,,256,0,11,,,,,3,,,57,100
115776,note_on,,,,,256,0,14,,,,,5,,,57,100
115776,note_on,,,,,256,0,9,,,,,1,,,69,100
115776,note_on,,,,,256,0,12,,,,,4,,,45,100
115776,note_on,,,,,256,0,10,,,,,2,,,69,100
115904,note_off,,,,,128,0,12,,,,,4,,,45,100
115904,note_off,,,,,128,0,13,,,,,5,,,69,100
115904,note_off,,,,,128,0,11,,,,,3,,,57,100
115904,note_off,,,,,128,0,14,,,,,5,,,57,100
115904,note_off,,,,,128,0,9,,,,,1,,,69,100
115904,note_off,,,,,128,0,10,,,,,2,,,69,100
115968,note_on,,,,,64,0,11,,,,,3,,,57,100
115968,note_on,,,,,64,0,9,,,,,1,,,69,100
115968,note_on,,,,,64,0,13,,,,,5,,,69,100
115968,note_on,,,,,64,0,12,,,,,4,,,45,100
115968,note_on,,,,,64,0,14,,,,,5,,,57,100
115968,note_on,,,,,64,0,10,,,,,2,,,69,100
116096,note_off,,,,,128,0,12,,,,,4,,,45,100
116096,note_off,,,,,128,0,9,,,,,1,,,69,100
116096,note_off,,,,,128,0,10,,,,,2,,,69,100
116096,note_off,,,,,128,0,14,,,,,5,,,57,100
116096,note_off,,,,,128,0,11,,,,,3,,,57,100
116096,note_off,,,,,128,0,13,,,,,5,,,69,100
116160,note_on,,,,,64,0,12,,,,,4,,,33,100
116160,note_on,,,,,64,0,9,,,,,1,,,57,100
116160,note_on,,,,,64,0,11,,,,,3,,,45,100
116160,note_on,,,,,64,0,10,,,,,2,,,57,100
116160,note_on,,,,,64,0,14,,,,,5,,,45,100
116160,note_on,,,,,64,0,13,,,,,5,,,57,100
116288,note_off,,,,,128,0,12,,,,,4,,,33,100
116288,note_off,,,,,128,0,9,,,,,1,,,57,100
116288,note_off,,,,,128,0,10,,,,,2,,,57,100
116288,note_off,,,,,128,0,14,,,,,5,,,45,100
116288,note_off,,,,,128,0,13,,,,,5,,,57,100
116288,note_off,,,,,128,0,11,,,,,3,,,45,100
116352,note_on,,,,,64,0,12,,,,,4,,,33,100
116352,note_on,,,,,64,0,10,,,,,2,,,57,100
116352,note_on,,,,,64,0,14,,,,,5,,,45,100
116352,note_on,,,,,64,0,11,,,,,3,,,45,100
116352,note_on,,,,,64,0,13,,,,,5,,,57,100
116352,note_on,,,,,64,0,9,,,,,1,,,57,100
116480,note_off,,,,,128,0,10,,,,,2,,,57,100
116480,note_off,,,,,128,0,11,,,,,3,,,45,100
116480,note_off,,,,,128,0,13,,,,,5,,,57,100
116480,note_off,,,,,128,0,14,,,,,5,,,45,100
116480,note_off,,,,,128,0,9,,,,,1,,,57,100
116480,note_off,,,,,128,0,12,,,,,4,,,33,100
116544,note_on,,,,,64,0,11,,,,,3,,,57,100
116544,note_on,,,,,64,0,13,,,,,5,,,69,100
116544,note_on,,,,,64,0,9,,,,,1,,,69,100
116544,note_on,,,,,64,0,12,,,,,4,,,45,100
116544,note_on,,,,,64,0,10,,,,,2,,,69,100
116544,note_on,,,,,64,0,14,,,,,5,,,57,100
116672,note_off,,,,,128,0,12,,,,,4,,,45,100
116672,note_off,,,,,128,0,11,,,,,3,,,57,100
116672,note_off,,,,,128,0,14,,,,,5,,,57,100
116672,note_off,,,,,128,0,9,,,,,1,,,69,100
116672,note_off,,,,,128,0,13,,,,,5,,,69,100
116672,note_off,,,,,128,0,10,,,,,2,,,69,100
116736,note_on,,,,,64,0,12,,,,,4,,,45,100
116736,note_on,,,,,64,0,11,,,,,3,,,57,100
116736,note_on,,,,,64,0,14,,,,,5,,,57,100
116736,note_on,,,,,64,0,13,,,,,5,,,69,100
116736,note_on,,,,,64,0,9,,,,,1,,,69,100
116736,note_on,,,,,64,0,10,,,,,2,,,69,100
116864,note_off,,,,,128,0,12,,,,,4,,,45,100
116864,note_off,,,,,128,0,13,,,,,5,,,69,100
116864,note_off,,,,,128,0,9,,,,,1,,,69,100
116864,note_off,,,,,128,0,11,,,,,3,,,57,100
116864,note_off,,,,,128,0,14,,,,,5,,,57,100
116864,note_off,,,,,128,0,10,,,,,2,,,69,100
116928,note_on,,,,,64,0,14,,,,,5,,,45,100
116928,note_on,,,,,64,0,11,,,,,3,,,45,100
116928,note_on,,,,,64,0,9,,,,,1,,,57,100
116928,note_on,,,,,64,0,13,,,,,5,,,57,100
116928,note_on,,,,,64,0,12,,,,,4,,,33,100
116928,note_on,,,,,64,0,10,,,,,2,,,57,100
117056,note_off,,,,,128,0,12,,,,,4,,,33,100
117056,note_off,,,,,128,0,9,,,,,1,,,57,100
117056,note_off,,,,,128,0,14,,,,,5,,,45,100
117056,note_off,,,,,128,0,11,,,,,3,,,45,100
117056,note_off,,,,,128,0,10,,,,,2,,,57,100
117056,note_off,,,,,128,0,13,,,,,5,,,57,100
117120,note_on,,,,,64,0,10,,,,,2,,,57,100
117120,note_on,,,,,64,0,9,,,,,1,,,57,100
117120,note_on,,,,,64,0,13,,,,,5,,,57,100
117120,note_on,,,,,64,0,12,,,,,4,,,33,100
117120,note_on,,,,,64,0,14,,,,,5,,,45,100
117120,note_on,,,,,64,0,11,,,,,3,,,45,100
117248,note_off,,,,,128,0,13,,,,,5,,,57,100
117248,note_off,,,,,128,0,12,,,,,4,,,33,100
117248,note_off,,,,,128,0,14,,,,,5,,,45,100
117248,note_off,,,,,128,0,10,,,,,2,,,57,100
117248,note_off,,,,,128,0,11,,,,,3,,,45,100
117248,note_off,,,,,128,0,9,,,,,1,,,57,100
117312,note_on,,,,,64,0,9,,,,,1,,,69,100
117312,note_on,,,,,64,0,14,,,,,5,,,57,100
117312,note_on,,,,,64,0,13,,,,,5,,,69,100
117312,note_on,,,,,64,0,11,,,,,3,,,57,100
117312,note_on,,,,,64,0,10,,,,,2,,,69,100
117312,note_on,,,,,64,0,12,,,,,4,,,45,100
117440,note_off,,,,,128,0,13,,,,,5,,,69,100
117440,note_off,,,,,128,0,12,,,,,4,,,45,100
117440,note_off,,,,,128,0,10,,,,,2,,,69,100
117440,note_off,,,,,128,0,11,,,,,3,,,57,100
117440,note_off,,,,,128,0,14,,,,,5,,,57,100
117440,note_off,,,,,128,0,9,,,,,1,,,69,100
117504,note_on,,,,,64,0,10,,,,,2,,,69,100
117504,note_on,,,,,64,0,9,,,,,1,,,69,100
117504,note_on,,,,,64,0,11,,,,,3,,,57,100
117504,note_on,,,,,64,0,12,,,,,4,,,45,100
117504,note_on,,,,,64,0,14,,,,,5,,,57,100
117504,note_on,,,,,64,0,13,,,,,5,,,69,100
117632,note_off,,,,,128,0,9,,,,,1,,,69,100
117632,note_off,,,,,128,0,11,,,,,3,,,57,100
117632,note_off,,,,,128,0,10,,,,,2,,,69,100
117632,note_off,,,,,128,0,13,,,,,5,,,69,100
117632,note_off,,,,,128,0,14,,,,,5,,,57,100
117632,note_off,,,,,128,0,12,,,,,4,,,45,100
117696,note_on,,,,,64,0,9,,,,,1,,,68,100
117696,note_on,,,,,64,0,10,,,,,2,,,68,100
117696,note_on,,,,,64,0,14,,,,,5,,,56,100
117696,note_on,,,,,64,0,13,,,,,5,,,68,100
117696,note_on,,,,,64,0,12,,,,,4,,,44,100
117696,note_on,,,,,64,0,11,,,,,3,,,56,100
117760,note_off,,,,,64,0,11,,,,,3,,,56,100
117760,note_off,,,,,64,0,13,,,,,5,,,68,100
117760,note_off,,,,,64,0,9,,,,,1,,,68,100
117760,note_off,,,,,64,0,14,,,,,5,,,56,100
117760,note_off,,,,,64,0,12,,,,,4,,,44,100
117760,note_off,,,,,64,0,10,,,,,2,,,68,100
117792,note_on,,,,,32,0,14,,,,,5,,,54,100
117792,note_on,,,,,32,0,9,,,,,1,,,66,100
117792,note_on,,,,,32,0,12,,,,,4,,,42,100
117792,note_on,,,,,32,0,13,,,,,5,,,66,100
117792,note_on,,,,,32,0,11,,,,,3,,,54,100
117792,note_on,,,,,32,0,10,,,,,2,,,66,100
117856,note_off,,,,,64,0,10,,,,,2,,,66,100
117856,note_off,,,,,64,0,14,,,,,5,,,54,100
117856,note_off,,,,,64,0,12,,,,,4,,,42,100
117856,note_off,,,,,64,0,11,,,,,3,,,54,100
117856,note_off,,,,,64,0,9,,,,,1,,,66,100
117856,note_off,,,,,64,0,13,,,,,5,,,66,100
117888,note_on,,,,,32,0,14,,,,,5,,,52,100
117888,note_on,,,,,32,0,13,,,,,5,,,64,100
117888,note_on,,,,,32,0,11,,,,,3,,,52,100
117888,note_on,,,,,32,0,10,,,,,2,,,64,100
117888,note_on,,,,,32,0,9,,,,,1,,,64,100
117888,note_on,,,,,32,0,12,,,,,4,,,40,100
118016,note_off,,,,,128,0,14,,,,,5,,,52,100
118016,note_off,,,,,128,0,9,,,,,1,,,64,100
118016,note_off,,,,,128,0,10,,,,,2,,,64,100
118016,note_off,,,,,128,0,13,,,,,5,,,64,100
118016,note_off,,,,,128,0,12,,,,,4,,,40,100
118016,note_off,,,,,128,0,11,,,,,3,,,52,100
118080,note_on,,,,,64,0,9,,,,,1,,,62,100
118080,note_on,,,,,64,0,11,,,,,3,,,50,100
118080,note_on,,,,,64,0,13,,,,,5,,,62,100
118080,note_on,,,,,64,0,10,,,,,2,,,62,100
118080,note_on,,,,,64,0,12,,,,,4,,,38,100
118080,note_on,,,,,64,0,14,,,,,5,,,50,100
118208,note_off,,,,,128,0,13,,,,,5,,,62,100
118208,note_off,,,,,128,0,12,,,,,4,,,38,100
118208,note_off,,,,,128,0,14,,,,,5,,,50,100
118208,note_off,,,,,128,0,9,,,,,1,,,62,100
118208,note_off,,,,,128,0,10,,,,,2,,,62,100
118208,note_off,,,,,128,0,11,,,,,3,,,50,100
118272,note_on,,,,,0,0,13,,,,,5,,,64,100
118272,note_on,,,,,64,0,13,,,,,5,,,57,100
118272,note_on,,,,,64,0,10,,,,,2,,,61,100
118272,note_on,,,,,64,0,9,,,,,1,,,61,100
118272,note_on,,,,,64,0,11,,,,,3,,,49,100
118272,note_on,,,,,64,0,12,,,,,4,,,37,100
118272,note_on,,,,,64,0,14,,,,,5,,,49,100
118528,note_off,,,,,256,0,14,,,,,5,,,49,100
118528,note_off,,,,,256,0,11,,,,,3,,,49,100
118528,note_off,,,,,256,0,9,,,,,1,,,61,100
118528,note_off,,,,,256,0,12,,,,,4,,,37,100
118528,note_off,,,,,256,0,13,,,,,5,,,57,100
118528,note_off,,,,,0,0,13,,,,,5,,,64,100
118528,note_off,,,,,256,0,10,,,,,2,,,61,100
119040,note_on,,,,,512,0,14,,,,,5,,,64,100
119040,note_on,,,,,512,0,11,,,,,3,,,64,100
119040,note_on,,,,,512,0,13,,,,,5,,,76,100
119040,note_on,,,,,512,0,9,,,,,1,,,76,100
119040,note_on,,,,,512,0,12,,,,,4,,,52,100
119040,note_on,,,,,512,0,10,,,,,2,,,76,100
119296,note_off,,,,,256,0,13,,,,,5,,,76,100
119296,note_off,,,,,256,0,9,,,,,1,,,76,100
119296,note_off,,,,,256,0,10,,,,,2,,,76,100
119296,note_off,,,,,256,0,12,,,,,4,,,52,100
119296,note_off,,,,,256,0,11,,,,,3,,,64,100
119296,note_off,,,,,256,0,14,,,,,5,,,64,100
119424,note_on,,,,,128,0,10,,,,,2,,,76,100
119424,note_on,,,,,128,0,13,,,,,5,,,76,100
119424,note_on,,,,,128,0,9,,,,,1,,,76,100
119424,note_on,,,,,128,0,11,,,,,3,,,64,100
119424,note_on,,,,,128,0,12,,,,,4,,,52,100
119424,note_on,,,,,128,0,14,,,,,5,,,64,100
119616,note_off,,,,,192,0,12,,,,,4,,,52,100
119616,note_off,,,,,192,0,9,,,,,1,,,76,100
119616,note_off,,,,,192,0,10,,,,,2,,,76,100
119616,note_off,,,,,192,0,11,,,,,3,,,64,100
119616,note_off,,,,,192,0,13,,,,,5,,,76,100
119616,note_off,,,,,192,0,14,,,,,5,,,64,100
119712,note_on,,,,,96,0,10,,,,,2,,,76,100
119712,note_on,,,,,96,0,14,,,,,5,,,64,100
119712,note_on,,,,,96,0,13,,,,,5,,,76,100
119712,note_on,,,,,96,0,11,,,,,3,,,64,100
119712,note_on,,,,,96,0,12,,,,,4,,,52,100
119712,note_on,,,,,96,0,9,,,,,1,,,76,100
119776,note_off,,,,,64,0,10,,,,,2,,,76,100
119776,note_off,,,,,64,0,13,,,,,5,,,76,100
119776,note_off,,,,,64,0,14,,,,,5,,,64,100
119776,note_off,,,,,64,0,12,,,,,4,,,52,100
119776,note_off,,,,,64,0,11,,,,,3,,,64,100
119776,note_off,,,,,64,0,9,,,,,1,,,76,100
119808,note_on,,,,,32,0,12,,,,,4,,,52,100
119808,note_on,,,,,32,0,10,,,,,2,,,76,100
119808,note_on,,,,,32,0,13,,,,,5,,,76,100
119808,note_on,,,,,32,0,14,,,,,5,,,64,100
119808,note_on,,,,,32,0,11,,,,,3,,,64,100
119808,note_on,,,,,32,0,9,,,,,1,,,76,100
119936,note_off,,,,,128,0,10,,,,,2,,,76,100
119936,note_off,,,,,128,0,13,,,,,5,,,76,100
119936,note_off,,,,,128,0,9,,,,,1,,,76,100
119936,note_off,,,,,128,0,11,,,,,3,,,64,100
119936,note_off,,,,,128,0,12,,,,,4,,,52,100
119936,note_off,,,,,128,0,14,,,,,5,,,64,100
120000,note_on,,,,,64,0,14,,,,,5,,,52,100
120000,note_on,,,,,64,0,11,,,,,3,,,52,100
120000,note_on,,,,,64,0,12,,,,,4,,,40,100
120000,note_on,,,,,64,0,9,,,,,1,,,64,100
120000,note_on,,,,,64,0,10,,,,,2,,,64,100
120000,note_on,,,,,64,0,13,,,,,5,,,64,100
120128,note_off,,,,,128,0,9,,,,,1,,,64,100
120128,note_off,,,,,128,0,11,,,,,3,,,52,100
120128,note_off,,,,,128,0,13,,,,,5,,,64,100
120128,note_off,,,,,128,0,10,,,,,2,,,64,100
120128,note_off,,,,,128,0,14,,,,,5,,,52,100
120128,note_off,,,,,128,0,12,,,,,4,,,40,100
120384,note_on,,,,,256,0,14,,,,,5,,,64,100
120384,note_on,,,,,256,0,13,,,,,5,,,76,100
120384,note_on,,,,,256,0,11,,,,,3,,,64,100
120384,note_on,,,,,256,0,10,,,,,2,,,76,100
120384,note_on,,,,,256,0,12,,,,,4,,,52,100
120384,note_on,,,,,256,0,9,,,,,1,,,76,100
120512,note_off,,,,,128,0,14,,,,,5,,,64,100
120512,note_off,,,,,128,0,9,,,,,1,,,76,100
120512,note_off,,,,,128,0,13,,,,,5,,,76,100
120512,note_off,,,,,128,0,11,,,,,3,,,64,100
120512,note_off,,,,,128,0,12,,,,,4,,,52,100
120512,note_off,,,,,128,0,10,,,,,2,,,76,100
120576,note_on,,,,,64,0,9,,,,,1,,,76,100
120576,note_on,,,,,64,0,10,,,,,2,,,76,100
120576,note_on,,,,,64,0,11,,,,,3,,,64,100
120576,note_on,,,,,64,0,14,,,,,5,,,64,100
120576,note_on,,,,,64,0,13,,,,,5,,,76,100
120576,note_on,,,,,64,0,12,,,,,4,,,52,100
120704,note_off,,,,,128,0,10,,,,,2,,,76,100
120704,note_off,,,,,128,0,13,,,,,5,,,76,100
120704,note_off,,,,,128,0,14,,,,,5,,,64,100
120704,note_off,,,,,128,0,9,,,,,1,,,76,100
120704,note_off,,,,,128,0,11,,,,,3,,,64,100
120704,note_off,,,,,128,0,12,,,,,4,,,52,100
120768,note_on,,,,,64,0,10,,,,,2,,,64,100
120768,note_on,,,,,64,0,14,,,,,5,,,52,100
120768,note_on,,,,,64,0,9,,,,,1,,,64,100
120768,note_on,,,,,64,0,13,,,,,5,,,64,100
120768,note_on,,,,,64,0,11,,,,,3,,,52,100
120768,note_on,,,,,64,0,12,,,,,4,,,40,100
120896,note_off,,,,,128,0,12,,,,,4,,,40,100
120896,note_off,,,,,128,0,14,,,,,5,,,52,100
120896,note_off,,,,,128,0,11,,,,,3,,,52,100
120896,note_off,,,,,128,0,13,,,,,5,,,64,100
120896,note_off,,,,,128,0,10,,,,,2,,,64,100
120896,note_off,,,,,128,0,9,,,,,1,,,64,100
120960,note_on,,,,,64,0,14,,,,,5,,,52,100
120960,note_on,,,,,64,0,10,,,,,2,,,64,100
120960,note_on,,,,,64,0,12,,,,,4,,,40,100
120960,note_on,,,,,64,0,9,,,,,1,,,64,100
120960,note_on,,,,,64,0,11,,,,,3,,,52,100
120960,note_on,,,,,64,0,13,,,,,5,,,64,100
121088,note_off,,,,,128,0,10,,,,,2,,,64,100
121088,note_off,,,,,128,0,9,,,,,1,,,64,100
121088,note_off,,,,,128,0,11,,,,,3,,,52,100
121088,note_off,,,,,128,0,12,,,,,4,,,40,100
121088,note_off,,,,,128,0,13,,,,,5,,,64,100
121088,note_off,,,,,128,0,14,,,,,5,,,52,100
121152,note_on,,,,,64,0,9,,,,,1,,,76,100
121152,note_on,,,,,64,0,11,,,,,3,,,64,100
121152,note_on,,,,,64,0,13,,,,,5,,,76,100
121152,note_on,,,,,64,0,12,,,,,4,,,52,100
121152,note_on,,,,,64,0,14,,,,,5,,,64,100
121152,note_on,,,,,64,0,10,,,,,2,,,76,100
121280,note_off,,,,,128,0,9,,,,,1,,,76,100
121280,note_off,,,,,128,0,13,,,,,5,,,76,100
121280,note_off,,,,,128,0,14,,,,,5,,,64,100
121280,note_off,,,,,128,0,10,,,,,2,,,76,100
121280,note_off,,,,,128,0,11,,,,,3,,,64,100
121280,note_off,,,,,128,0,12,,,,,4,,,52,100
121344,note_on,,,,,64,0,14,,,,,5,,,64,100
121344,note_on,,,,,64,0,9,,,,,1,,,76,100
121344,note_on,,,,,64,0,13,,,,,5,,,76,100
121344,note_on,,,,,64,0,12,,,,,4,,,52,100
121344,note_on,,,,,64,0,11,,,,,3,,,64,100
121344,note_on,,,,,64,0,10,,,,,2,,,76,100
121472,note_off,,,,,128,0,13,,,,,5,,,76,100
121472,note_off,,,,,128,0,9,,,,,1,,,76,100
121472,note_off,,,,,128,0,11,,,,,3,,,64,100
121472,note_off,,,,,128,0,14,,,,,5,,,64,100
121472,note_off,,,,,128,0,12,,,,,4,,,52,100
121472,note_off,,,,,128,0,10,,,,,2,,,76,100
121536,note_on,,,,,64,0,14,,,,,5,,,52,100
121536,note_on,,,,,64,0,9,,,,,1,,,64,100
121536,note_on,,,,,64,0,12,,,,,4,,,40,100
121536,note_on,,,,,64,0,11,,,,,3,,,52,100
121536,note_on,,,,,64,0,13,,,,,5,,,64,100
121536,note_on,,,,,64,0,10,,,,,2,,,64,100
121664,note_off,,,,,128,0,11,,,,,3,,,52,100
121664,note_off,,,,,128,0,13,,,,,5,,,64,100
121664,note_off,,,,,128,0,12,,,,,4,,,40,100
121664,note_off,,,,,128,0,14,,,,,5,,,52,100
121664,note_off,,,,,128,0,9,,,,,1,,,64,100
121664,note_off,,,,,128,0,10,,,,,2,,,64,100
121728,note_on,,,,,64,0,13,,,,,5,,,64,100
121728,note_on,,,,,64,0,11,,,,,3,,,52,100
121728,note_on,,,,,64,0,9,,,,,1,,,64,100
121728,note_on,,,,,64,0,14,,,,,5,,,52,100
121728,note_on,,,,,64,0,12,,,,,4,,,40,100
121728,note_on,,,,,64,0,10,,,,,2,,,64,100
121856,note_off,,,,,128,0,12,,,,,4,,,40,100
121856,note_off,,,,,128,0,14,,,,,5,,,52,100
121856,note_off,,,,,128,0,9,,,,,1,,,64,100
121856,note_off,,,,,128,0,10,,,,,2,,,64,100
121856,note_off,,,,,128,0,11,,,,,3,,,52,100
121856,note_off,,,,,128,0,13,,,,,5,,,64,100
121920,note_on,,,,,64,0,9,,,,,1,,,76,100
121920,note_on,,,,,64,0,13,,,,,5,,,76,100
121920,note_on,,,,,64,0,14,,,,,5,,,64,100
121920,note_on,,,,,64,0,10,,,,,2,,,76,100
121920,note_on,,,,,64,0,11,,,,,3,,,64,100
121920,note_on,,,,,64,0,12,,,,,4,,,52,100
122048,note_off,,,,,128,0,9,,,,,1,,,76,100
122048,note_off,,,,,128,0,13,,,,,5,,,76,100
122048,note_off,,,,,128,0,12,,,,,4,,,52,100
122048,note_off,,,,,128,0,10,,,,,2,,,76,100
122048,note_off,,,,,128,0,11,,,,,3,,,64,100
122048,note_off,,,,,128,0,14,,,,,5,,,64,100
122112,note_on,,,,,64,0,13,,,,,5,,,76,100
122112,note_on,,,,,64,0,14,,,,,5,,,64,100
122112,note_on,,,,,64,0,10,,,,,2,,,76,100
122112,note_on,,,,,64,0,9,,,,,1,,,76,100
122112,note_on,,,,,64,0,11,,,,,3,,,64,100
122112,note_on,,,,,64,0,12,,,,,4,,,52,100
122240,note_off,,,,,128,0,13,,,,,5,,,76,100
122240,note_off,,,,,128,0,12,,,,,4,,,52,100
122240,note_off,,,,,128,0,9,,,,,1,,,76,100
122240,note_off,,,,,128,0,10,,,,,2,,,76,100
122240,note_off,,,,,128,0,14,,,,,5,,,64,100
122240,note_off,,,,,128,0,11,,,,,3,,,64,100
122304,note_on,,,,,64,0,14,,,,,5,,,62,100
122304,note_on,,,,,64,0,12,,,,,4,,,50,100
122304,note_on,,,,,64,0,13,,,,,5,,,74,100
122304,note_on,,,,,64,0,11,,,,,3,,,62,100
122304,note_on,,,,,64,0,9,,,,,1,,,74,100
122304,note_on,,,,,64,0,10,,,,,2,,,74,100
122368,note_off,,,,,64,0,13,,,,,5,,,74,100
122368,note_off,,,,,64,0,14,,,,,5,,,62,100
122368,note_off,,,,,64,0,12,,,,,4,,,50,100
122368,note_off,,,,,64,0,9,,,,,1,,,74,100
122368,note_off,,,,,64,0,10,,,,,2,,,74,100
122368,note_off,,,,,64,0,11,,,,,3,,,62,100
122400,note_on,,,,,32,0,9,,,,,1,,,73,100
122400,note_on,,,,,32,0,10,,,,,2,,,73,100
122400,note_on,,,,,32,0,11,,,,,3,,,61,100
122400,note_on,,,,,32,0,14,,,,,5,,,61,100
122400,note_on,,,,,32,0,13,,,,,5,,,73,100
122400,note_on,,,,,32,0,12,,,,,4,,,49,100
122464,note_off,,,,,64,0,14,,,,,5,,,61,100
122464,note_off,,,,,64,0,13,,,,,5,,,73,100
122464,note_off,,,,,64,0,12,,,,,4,,,49,100
122464,note_off,,,,,64,0,10,,,,,2,,,73,100
122464,note_off,,,,,64,0,9,,,,,1,,,73,100
122464,note_off,,,,,64,0,11,,,,,3,,,61,100
122496,note_on,,,,,32,0,11,,,,,3,,,59,100
122496,note_on,,,,,32,0,9,,,,,1,,,71,100
122496,note_on,,,,,32,0,13,,,,,5,,,71,100
122496,note_on,,,,,32,0,14,,,,,5,,,59,100
122496,note_on,,,,,32,0,10,,,,,2,,,71,100
122496,note_on,,,,,32,0,12,,,,,4,,,47,100
122624,note_off,,,,,128,0,14,,,,,5,,,59,100
122624,note_off,,,,,128,0,10,,,,,2,,,71,100
122624,note_off,,,,,128,0,11,,,,,3,,,59,100
122624,note_off,,,,,128,0,13,,,,,5,,,71,100
122624,note_off,,,,,128,0,9,,,,,1,,,71,100
122624,note_off,,,,,128,0,12,,,,,4,,,47,100
122688,note_on,,,,,64,0,9,,,,,1,,,69,100
122688,note_on,,,,,64,0,11,,,,,3,,,57,100
122688,note_on,,,,,64,0,14,,,,,5,,,57,100
122688,note_on,,,,,64,0,12,,,,,4,,,45,100
122688,note_on,,,,,64,0,13,,,,,5,,,69,100
122688,note_on,,,,,64,0,10,,,,,2,,,69,100
122816,note_off,,,,,128,0,11,,,,,3,,,57,100
122816,note_off,,,,,128,0,9,,,,,1,,,69,100
122816,note_off,,,,,128,0,10,,,,,2,,,69,100
122816,note_off,,,,,128,0,13,,,,,5,,,69,100
122816,note_off,,,,,128,0,12,,,,,4,,,45,100
122816,note_off,,,,,128,0,14,,,,,5,,,57,100
122880,note_on,,,,,0,0,13,,,,,5,,,71,100
122880,note_on,,,,,64,0,13,,,,,5,,,64,100
122880,note_on,,,,,64,0,10,,,,,2,,,68,100
122880,note_on,,,,,64,0,11,,,,,3,,,56,100
122880,note_on,,,,,64,0,9,,,,,1,,,68,100
122880,note_on,,,,,64,0,12,,,,,4,,,44,100
122880,note_on,,,,,64,0,14,,,,,5,,,56,100
123136,note_off,,,,,256,0,10,,,,,2,,,68,100
123136,note_off,,,,,256,0,11,,,,,3,,,56,100
123136,note_off,,,,,256,0,12,,,,,4,,,44,100
123136,note_off,,,,,256,0,13,,,,,5,,,64,100
123136,note_off,,,,,256,0,14,,,,,5,,,56,100
123136,note_off,,,,,256,0,9,,,,,1,,,68,100
123136,note_off,,,,,0,0,13,,,,,5,,,71,100
123456,note_on,,,,,320,0,12,,,,,4,,,40,100
123456,note_on,,,,,320,0,9,,,,,1,,,64,100
123456,note_on,,,,,320,0,11,,,,,3,,,52,100
123456,note_on,,,,,320,0,10,,,,,2,,,64,100
123456,note_on,,,,,320,0,13,,,,,5,,,64,100
123456,note_on,,,,,320,0,14,,,,,5,,,52,100
123584,note_off,,,,,128,0,14,,,,,5,,,52,100
123584,note_off,,,,,128,0,10,,,,,2,,,64,100
123584,note_off,,,,,128,0,13,,,,,5,,,64,100
123584,note_off,,,,,128,0,11,,,,,3,,,52,100
123584,note_off,,,,,128,0,12,,,,,4,,,40,100
123584,note_off,,,,,128,0,9,,,,,1,,,64,100
123648,note_on,,,,,64,0,11,,,,,3,,,57,100
123648,note_on,,,,,64,0,12,,,,,4,,,45,100
123648,note_on,,,,,64,0,14,,,,,5,,,57,100
123648,note_on,,,,,64,0,9,,,,,1,,,69,100
123648,note_on,,,,,64,0,13,,,,,5,,,69,100
123648,note_on,,,,,64,0,10,,,,,2,,,69,100
123776,note_off,,,,,128,0,11,,,,,3,,,57,100
123776,note_off,,,,,128,0,12,,,,,4,,,45,100
123776,note_off,,,,,128,0,14,,,,,5,,,57,100
123776,note_off,,,,,128,0,10,,,,,2,,,69,100
123776,note_off,,,,,128,0,13,,,,,5,,,69,100
123776,note_off,,,,,128,0,9,,,,,1,,,69,100
123840,note_on,,,,,64,0,9,,,,,1,,,71,100
123840,note_on,,,,,64,0,10,,,,,2,,,71,100
123840,note_on,,,,,64,0,11,,,,,3,,,59,100
123840,note_on,,,,,64,0,13,,,,,5,,,71,100
123840,note_on,,,,,64,0,12,,,,,4,,,47,100
123840,note_on,,,,,64,0,14,,,,,5,,,59,100
123968,note_off,,,,,128,0,9,,,,,1,,,71,100
123968,note_off,,,,,128,0,12,,,,,4,,,47,100
123968,note_off,,,,,128,0,11,,,,,3,,,59,100
123968,note_off,,,,,128,0,10,,,,,2,,,71,100
123968,note_off,,,,,128,0,14,,,,,5,,,59,100
123968,note_off,,,,,128,0,13,,,,,5,,,71,100
124032,note_on,,,,,64,0,12,,,,,4,,,49,100
124032,note_on,,,,,64,0,9,,,,,1,,,73,100
124032,note_on,,,,,64,0,11,,,,,3,,,61,100
124032,note_on,,,,,64,0,10,,,,,2,,,73,100
124032,note_on,,,,,64,0,13,,,,,5,,,73,100
124032,note_on,,,,,64,0,14,,,,,5,,,61,100
124160,note_off,,,,,128,0,14,,,,,5,,,61,100
124160,note_off,,,,,128,0,11,,,,,3,,,61,100
124160,note_off,,,,,128,0,9,,,,,1,,,73,100
124160,note_off,,,,,128,0,10,,,,,2,,,73,100
124160,note_off,,,,,128,0,13,,,,,5,,,73,100
124160,note_off,,,,,128,0,12,,,,,4,,,49,100
124224,note_on,,,,,64,0,11,,,,,3,,,62,100
124224,note_on,,,,,64,0,14,,,,,5,,,62,100
124224,note_on,,,,,64,0,13,,,,,5,,,74,100
124224,note_on,,,,,64,0,10,,,,,2,,,74,100
124224,note_on,,,,,64,0,12,,,,,4,,,50,100
124224,note_on,,,,,64,0,9,,,,,1,,,74,100
124352,note_off,,,,,128,0,10,,,,,2,,,74,100
124352,note_off,,,,,128,0,13,,,,,5,,,74,100
124352,note_off,,,,,128,0,12,,,,,4,,,50,100
124352,note_off,,,,,128,0,11,,,,,3,,,62,100
124352,note_off,,,,,128,0,14,,,,,5,,,62,100
124352,note_off,,,,,128,0,9,,,,,1,,,74,100
124416,note_on,,,,,64,0,11,,,,,3,,,64,100
124416,note_on,,,,,64,0,13,,,,,5,,,76,100
124416,note_on,,,,,64,0,10,,,,,2,,,76,100
124416,note_on,,,,,64,0,14,,,,,5,,,64,100
124416,note_on,,,,,64,0,9,,,,,1,,,76,100
124416,note_on,,,,,64,0,12,,,,,4,,,52,100
124544,note_off,,,,,128,0,12,,,,,4,,,52,100
124544,note_off,,,,,128,0,9,,,,,1,,,76,100
124544,note_off,,,,,128,0,11,,,,,3,,,64,100
124544,note_off,,,,,128,0,10,,,,,2,,,76,100
124544,note_off,,,,,128,0,14,,,,,5,,,64,100
124544,note_off,,,,,128,0,13,,,,,5,,,76,100
124608,note_on,,,,,64,0,14,,,,,5,,,59,100
124608,note_on,,,,,64,0,12,,,,,4,,,47,101
124608,note_on,,,,,64,0,9,,,,,1,,,71,101
124608,note_on,,,,,64,0,10,,,,,2,,,71,101
124608,note_on,,,,,64,0,11,,,,,3,,,59,101
124608,note_on,,,,,64,0,13,,,,,5,,,71,100
124672,note_off,,,,,64,0,13,,,,,5,,,71,100
124672,note_off,,,,,64,0,11,,,,,3,,,59,100
124672,note_off,,,,,64,0,9,,,,,1,,,71,100
124672,note_off,,,,,64,0,14,,,,,5,,,59,100
124672,note_off,,,,,64,0,12,,,,,4,,,47,100
124672,note_off,,,,,64,0,10,,,,,2,,,71,100
124704,note_on,,,,,32,0,12,,,,,4,,,45,101
124704,note_on,,,,,32,0,14,,,,,5,,,57,100
124704,note_on,,,,,32,0,11,,,,,3,,,57,101
124704,note_on,,,,,32,0,9,,,,,1,,,69,101
124704,note_on,,,,,32,0,10,,,,,2,,,69,101
124704,note_on,,,,,32,0,13,,,,,5,,,69,100
124768,note_off,,,,,64,0,10,,,,,2,,,69,100
124768,note_off,,,,,64,0,12,,,,,4,,,45,100
124768,note_off,,,,,64,0,9,,,,,1,,,69,100
124768,note_off,,,,,64,0,11,,,,,3,,,57,100
124768,note_off,,,,,64,0,14,,,,,5,,,57,100
124768,note_off,,,,,64,0,13,,,,,5,,,69,100
124800,note_on,,,,,32,0,13,,,,,5,,,68,100
124800,note_on,,,,,32,0,11,,,,,3,,,56,102
124800,note_on,,,,,32,0,9,,,,,1,,,68,102
124800,note_on,,,,,32,0,12,,,,,4,,,44,102
124800,note_on,,,,,32,0,14,,,,,5,,,56,100
124800,note_on,,,,,32,0,10,,,,,2,,,68,102
124928,note_off,,,,,128,0,11,,,,,3,,,56,100
124928,note_off,,,,,128,0,9,,,,,1,,,68,100
124928,note_off,,,,,128,0,12,,,,,4,,,44,100
124928,note_off,,,,,128,0,10,,,,,2,,,68,100
124928,note_off,,,,,128,0,13,,,,,5,,,68,100
124928,note_off,,,,,128,0,14,,,,,5,,,56,100
124992,note_on,,,,,64,0,13,,,,,5,,,66,100
124992,note_on,,,,,64,0,11,,,,,3,,,54,103
124992,note_on,,,,,64,0,10,,,,,2,,,66,103
124992,note_on,,,,,64,0,14,,,,,5,,,54,100
124992,note_on,,,,,64,0,12,,,,,4,,,42,103
124992,note_on,,,,,64,0,9,,,,,1,,,66,103
125056,note_off,,,,,64,0,14,,,,,5,,,54,100
125056,note_off,,,,,64,0,13,,,,,5,,,66,100
125056,note_off,,,,,64,0,12,,,,,4,,,42,100
125056,note_off,,,,,64,0,11,,,,,3,,,54,100
125056,note_off,,,,,64,0,10,,,,,2,,,66,100
125056,note_off,,,,,64,0,9,,,,,1,,,66,100
125088,note_on,,,,,32,0,9,,,,,1,,,64,104
125088,note_on,,,,,32,0,11,,,,,3,,,52,104
125088,note_on,,,,,32,0,10,,,,,2,,,64,104
125088,note_on,,,,,32,0,12,,,,,4,,,40,104
125088,note_on,,,,,32,0,14,,,,,5,,,52,100
125088,note_on,,,,,32,0,13,,,,,5,,,64,100
125152,note_off,,,,,64,0,9,,,,,1,,,64,100
125152,note_off,,,,,64,0,14,,,,,5,,,52,100
125152,note_off,,,,,64,0,11,,,,,3,,,52,100
125152,note_off,,,,,64,0,12,,,,,4,,,40,100
125152,note_off,,,,,64,0,10,,,,,2,,,64,100
125152,note_off,,,,,64,0,13,,,,,5,,,64,100
125184,note_on,,,,,32,0,12,,,,,4,,,52,104
125184,note_on,,,,,32,0,11,,,,,3,,,64,104
125184,note_on,,,,,32,0,10,,,,,2,,,76,104
125184,note_on,,,,,32,0,14,,,,,5,,,64,100
125184,note_on,,,,,32,0,13,,,,,5,,,76,100
125184,note_on,,,,,32,0,9,,,,,1,,,76,104
125312,note_off,,,,,128,0,13,,,,,5,,,76,100
125312,note_off,,,,,128,0,10,,,,,2,,,76,100
125312,note_off,,,,,128,0,14,,,,,5,,,64,100
125312,note_off,,,,,128,0,11,,,,,3,,,64,100
125312,note_off,,,,,128,0,9,,,,,1,,,76,100
125312,note_off,,,,,128,0,12,,,,,4,,,52,100
125376,note_on,,,,,64,0,12,,,,,4,,,47,106
125376,note_on,,,,,64,0,9,,,,,1,,,71,106
125376,note_on,,,,,64,0,10,,,,,2,,,71,106
125376,note_on,,,,,64,0,13,,,,,5,,,71,100
125376,note_on,,,,,64,0,14,,,,,5,,,59,100
125376,note_on,,,,,64,0,11,,,,,3,,,59,106
125440,note_off,,,,,64,0,9,,,,,1,,,71,100
125440,note_off,,,,,64,0,14,,,,,5,,,59,100
125440,note_off,,,,,64,0,11,,,,,3,,,59,100
125440,note_off,,,,,64,0,10,,,,,2,,,71,100
125440,note_off,,,,,64,0,12,,,,,4,,,47,100
125440,note_off,,,,,64,0,13,,,,,5,,,71,100
125472,note_on,,,,,32,0,9,,,,,1,,,69,106
125472,note_on,,,,,32,0,12,,,,,4,,,45,106
125472,note_on,,,,,32,0,11,,,,,3,,,57,106
125472,note_on,,,,,32,0,13,,,,,5,,,69,100
125472,note_on,,,,,32,0,14,,,,,5,,,57,100
125472,note_on,,,,,32,0,10,,,,,2,,,69,106
125536,note_off,,,,,64,0,13,,,,,5,,,69,100
125536,note_off,,,,,64,0,9,,,,,1,,,69,100
125536,note_off,,,,,64,0,14,,,,,5,,,57,100
125536,note_off,,,,,64,0,11,,,,,3,,,57,100
125536,note_off,,,,,64,0,12,,,,,4,,,45,100
125536,note_off,,,,,64,0,10,,,,,2,,,69,100
125568,note_on,,,,,32,0,11,,,,,3,,,56,107
125568,note_on,,,,,32,0,9,,,,,1,,,68,107
125568,note_on,,,,,32,0,13,,,,,5,,,68,100
125568,note_on,,,,,32,0,12,,,,,4,,,44,107
125568,note_on,,,,,32,0,14,,,,,5,,,56,100
125568,note_on,,,,,32,0,10,,,,,2,,,68,107
125696,note_off,,,,,128,0,10,,,,,2,,,68,100
125696,note_off,,,,,128,0,11,,,,,3,,,56,100
125696,note_off,,,,,128,0,13,,,,,5,,,68,100
125696,note_off,,,,,128,0,12,,,,,4,,,44,100
125696,note_off,,,,,128,0,14,,,,,5,,,56,100
125696,note_off,,,,,128,0,9,,,,,1,,,68,100
125760,note_on,,,,,64,0,11,,,,,3,,,54,108
125760,note_on,,,,,64,0,10,,,,,2,,,66,108
125760,note_on,,,,,64,0,13,,,,,5,,,66,100
125760,note_on,,,,,64,0,12,,,,,4,,,42,108
125760,note_on,,,,,64,0,9,,,,,1,,,66,108
125760,note_on,,,,,64,0,14,,,,,5,,,54,100
125824,note_off,,,,,64,0,11,,,,,3,,,54,100
125824,note_off,,,,,64,0,10,,,,,2,,,66,100
125824,note_off,,,,,64,0,14,,,,,5,,,54,100
125824,note_off,,,,,64,0,12,,,,,4,,,42,100
125824,note_off,,,,,64,0,9,,,,,1,,,66,100
125824,note_off,,,,,64,0,13,,,,,5,,,66,100
125856,note_on,,,,,32,0,14,,,,,5,,,52,100
125856,note_on,,,,,32,0,9,,,,,1,,,64,109
125856,note_on,,,,,32,0,13,,,,,5,,,64,100
125856,note_on,,,,,32,0,10,,,,,2,,,64,109
125856,note_on,,,,,32,0,12,,,,,4,,,40,109
125856,note_on,,,,,32,0,11,,,,,3,,,52,109
125920,note_off,,,,,64,0,9,,,,,1,,,64,100
125920,note_off,,,,,64,0,12,,,,,4,,,40,100
125920,note_off,,,,,64,0,10,,,,,2,,,64,100
125920,note_off,,,,,64,0,11,,,,,3,,,52,100
125920,note_off,,,,,64,0,13,,,,,5,,,64,100
125920,note_off,,,,,64,0,14,,,,,5,,,52,100
125952,note_on,,,,,32,0,11,,,,,3,,,64,109
125952,note_on,,,,,32,0,10,,,,,2,,,76,109
125952,note_on,,,,,32,0,14,,,,,5,,,64,100
125952,note_on,,,,,32,0,13,,,,,5,,,76,100
125952,note_on,,,,,32,0,9,,,,,1,,,76,109
125952,note_on,,,,,32,0,12,,,,,4,,,52,109
126080,note_off,,,,,128,0,11,,,,,3,,,64,100
126080,note_off,,,,,128,0,13,,,,,5,,,76,100
126080,note_off,,,,,128,0,14,,,,,5,,,64,100
126080,note_off,,,,,128,0,9,,,,,1,,,76,100
126080,note_off,,,,,128,0,12,,,,,4,,,52,100
126080,note_off,,,,,128,0,10,,,,,2,,,76,100
126144,note_on,,,,,64,0,10,,,,,2,,,71,111
126144,note_on,,,,,64,0,11,,,,,3,,,59,111
126144,note_on,,,,,64,0,12,,,,,4,,,47,111
126144,note_on,,,,,64,0,9,,,,,1,,,71,111
126144,note_on,,,,,64,0,13,,,,,5,,,71,100
126144,note_on,,,,,64,0,14,,,,,5,,,59,100
126208,note_off,,,,,64,0,10,,,,,2,,,71,100
126208,note_off,,,,,64,0,14,,,,,5,,,59,100
126208,note_off,,,,,64,0,12,,,,,4,,,47,100
126208,note_off,,,,,64,0,13,,,,,5,,,71,100
126208,note_off,,,,,64,0,9,,,,,1,,,71,100
126208,note_off,,,,,64,0,11,,,,,3,,,59,100
126240,note_on,,,,,32,0,14,,,,,5,,,57,100
126240,note_on,,,,,32,0,9,,,,,1,,,69,111
126240,note_on,,,,,32,0,12,,,,,4,,,45,111
126240,note_on,,,,,32,0,10,,,,,2,,,69,111
126240,note_on,,,,,32,0,13,,,,,5,,,69,100
126240,note_on,,,,,32,0,11,,,,,3,,,57,111
126304,note_off,,,,,64,0,11,,,,,3,,,57,100
126304,note_off,,,,,64,0,13,,,,,5,,,69,100
126304,note_off,,,,,64,0,12,,,,,4,,,45,100
126304,note_off,,,,,64,0,14,,,,,5,,,57,100
126304,note_off,,,,,64,0,9,,,,,1,,,69,100
126304,note_off,,,,,64,0,10,,,,,2,,,69,100
126336,note_on,,,,,32,0,9,,,,,1,,,68,112
126336,note_on,,,,,32,0,12,,,,,4,,,44,112
126336,note_on,,,,,32,0,14,,,,,5,,,56,100
126336,note_on,,,,,32,0,13,,,,,5,,,68,100
126336,note_on,,,,,32,0,10,,,,,2,,,68,112
126336,note_on,,,,,32,0,11,,,,,3,,,56,112
126464,note_off,,,,,128,0,12,,,,,4,,,44,100
126464,note_off,,,,,128,0,11,,,,,3,,,56,100
126464,note_off,,,,,128,0,14,,,,,5,,,56,100
126464,note_off,,,,,128,0,9,,,,,1,,,68,100
126464,note_off,,,,,128,0,13,,,,,5,,,68,100
126464,note_off,,,,,128,0,10,,,,,2,,,68,100
126528,note_on,,,,,64,0,14,,,,,5,,,54,100
126528,note_on,,,,,64,0,9,,,,,1,,,66,113
126528,note_on,,,,,64,0,13,,,,,5,,,66,100
126528,note_on,,,,,64,0,10,,,,,2,,,66,113
126528,note_on,,,,,64,0,12,,,,,4,,,42,113
126528,note_on,,,,,64,0,11,,,,,3,,,54,113
126592,note_off,,,,,64,0,10,,,,,2,,,66,100
126592,note_off,,,,,64,0,14,,,,,5,,,54,100
126592,note_off,,,,,64,0,13,,,,,5,,,66,100
126592,note_off,,,,,64,0,12,,,,,4,,,42,100
126592,note_off,,,,,64,0,9,,,,,1,,,66,100
126592,note_off,,,,,64,0,11,,,,,3,,,54,100
126624,note_on,,,,,32,0,13,,,,,5,,,64,100
126624,note_on,,,,,32,0,12,,,,,4,,,40,114
126624,note_on,,,,,32,0,9,,,,,1,,,64,114
126624,note_on,,,,,32,0,10,,,,,2,,,64,114
126624,note_on,,,,,32,0,14,,,,,5,,,52,100
126624,note_on,,,,,32,0,11,,,,,3,,,52,114
126688,note_off,,,,,64,0,9,,,,,1,,,64,100
126688,note_off,,,,,64,0,10,,,,,2,,,64,100
126688,note_off,,,,,64,0,13,,,,,5,,,64,100
126688,note_off,,,,,64,0,11,,,,,3,,,52,100
126688,note_off,,,,,64,0,12,,,,,4,,,40,100
126688,note_off,,,,,64,0,14,,,,,5,,,52,100
126720,note_on,,,,,32,0,14,,,,,5,,,57,100
126720,note_on,,,,,32,0,10,,,,,2,,,69,114
126720,note_on,,,,,32,0,9,,,,,1,,,69,114
126720,note_on,,,,,32,0,12,,,,,4,,,45,114
126720,note_on,,,,,32,0,11,,,,,3,,,57,114
126720,note_on,,,,,32,0,13,,,,,5,,,69,100
126976,note_off,,,,,256,0,14,,,,,5,,,57,100
126976,note_off,,,,,256,0,11,,,,,3,,,57,100
126976,note_off,,,,,256,0,13,,,,,5,,,69,100
126976,note_off,,,,,256,0,12,,,,,4,,,45,100
126976,note_off,,,,,256,0,9,,,,,1,,,69,100
126976,note_off,,,,,256,0,10,,,,,2,,,69,100
127296,note_on,,,,,0,0,13,,,,,5,,,64,100
127296,set_tempo,,,,,46656,1,0,,500000,,,,,,,
127296,note_on,,,,,320,0,13,,,,,5,,,61,100
127296,note_on,,,,,320,0,9,,,,,1,,,61,115
127296,note_on,,,,,320,0,10,,,,,2,,,61,115
127296,note_on,,,,,320,0,11,,,,,3,,,49,115
127296,note_on,,,,,320,0,14,,,,,5,,,49,100
127296,note_on,,,,,320,0,12,,,,,4,,,37,115
127320,set_tempo,,,,,24,1,0,,504201,,,,,,,
127344,set_tempo,,,,,24,1,0,,508474,,,,,,,
127368,set_tempo,,,,,24,1,0,,512820,,,,,,,
127392,set_tempo,,,,,24,1,0,,517241,,,,,,,
127416,set_tempo,,,,,24,1,0,,521739,,,,,,,
127424,note_off,,,,,128,0,9,,,,,1,,,61,100
127424,note_off,,,,,128,0,12,,,,,4,,,37,100
127424,note_off,,,,,0,0,13,,,,,5,,,64,100
127424,note_off,,,,,128,0,13,,,,,5,,,61,100
127424,note_off,,,,,128,0,10,,,,,2,,,61,100
127424,note_off,,,,,128,0,14,,,,,5,,,49,100
127424,note_off,,,,,128,0,11,,,,,3,,,49,100
127440,set_tempo,,,,,24,1,0,,526315,,,,,,,
127464,set_tempo,,,,,24,1,0,,530973,,,,,,,
127488,note_on,,,,,64,0,11,,,,,3,,,50,115
127488,note_on,,,,,64,0,10,,,,,2,,,62,115
127488,note_on,,,,,64,0,9,,,,,1,,,62,115
127488,note_on,,,,,0,0,13,,,,,5,,,69,100
127488,set_tempo,,,,,24,1,0,,535714,,,,,,,
127488,note_on,,,,,64,0,14,,,,,5,,,50,100
127488,note_on,,,,,64,0,12,,,,,4,,,38,115
127488,note_on,,,,,64,0,13,,,,,5,,,59,100
127512,set_tempo,,,,,24,1,0,,540540,,,,,,,
127536,set_tempo,,,,,24,1,0,,545454,,,,,,,
127560,set_tempo,,,,,24,1,0,,550458,,,,,,,
127584,set_tempo,,,,,24,1,0,,555555,,,,,,,
127608,set_tempo,,,,,24,1,0,,560747,,,,,,,
127632,set_tempo,,,,,24,1,0,,566037,,,,,,,
127656,set_tempo,,,,,24,1,0,,571428,,,,,,,
127680,set_tempo,,,,,24,1,0,,576923,,,,,,,
127704,set_tempo,,,,,24,1,0,,582524,,,,,,,
127728,set_tempo,,,,,24,1,0,,588235,,,,,,,
127744,note_off,,,,,0,0,13,,,,,5,,,69,100
127744,note_off,,,,,256,0,13,,,,,5,,,59,100
127744,note_off,,,,,256,0,14,,,,,5,,,50,100
127744,note_off,,,,,256,0,9,,,,,1,,,62,100
127744,note_off,,,,,256,0,11,,,,,3,,,50,100
127744,note_off,,,,,256,0,10,,,,,2,,,62,100
127744,note_off,,,,,256,0,12,,,,,4,,,38,100
127752,set_tempo,,,,,24,1,0,,594059,,,,,,,
127776,set_tempo,,,,,24,1,0,,600000,,,,,,,
127800,set_tempo,,,,,24,1,0,,606060,,,,,,,
127824,set_tempo,,,,,24,1,0,,612244,,,,,,,
127848,set_tempo,,,,,24,1,0,,618556,,,,,,,
127872,note_on,,,,,128,0,12,,,,,4,,,40,115
127872,set_tempo,,,,,24,1,0,,625000,,,,,,,
127872,note_on,,,,,128,0,13,,,,,5,,,59,100
127872,note_on,,,,,128,0,10,,,,,2,,,64,115
127872,note_on,,,,,128,0,11,,,,,3,,,52,115
127872,note_on,,,,,128,0,9,,,,,1,,,64,115
127872,note_on,,,,,0,0,13,,,,,5,,,68,100
127872,note_on,,,,,128,0,14,,,,,5,,,52,100
127896,set_tempo,,,,,24,1,0,,631578,,,,,,,
127920,set_tempo,,,,,24,1,0,,638297,,,,,,,
127944,set_tempo,,,,,24,1,0,,645161,,,,,,,
127968,set_tempo,,,,,24,1,0,,652173,,,,,,,
127992,set_tempo,,,,,24,1,0,,659340,,,,,,,
128016,set_tempo,,,,,24,1,0,,666666,,,,,,,
128040,set_tempo,,,,,24,1,0,,674157,,,,,,,
128064,set_tempo,,,,,24,1,0,,681818,,,,,,,
128088,set_tempo,,,,,24,1,0,,689655,,,,,,,
128112,set_tempo,,,,,24,1,0,,697674,,,,,,,
128128,note_off,,,,,256,0,10,,,,,2,,,64,100
128128,note_off,,,,,256,0,11,,,,,3,,,52,100
128128,note_off,,,,,256,0,14,,,,,5,,,52,100
128128,note_off,,,,,256,0,12,,,,,4,,,40,100
128128,note_off,,,,,256,0,9,,,,,1,,,64,100
128128,note_off,,,,,256,0,13,,,,,5,,,59,100
128128,note_off,,,,,0,0,13,,,,,5,,,68,100
128136,set_tempo,,,,,24,1,0,,705882,,,,,,,
128160,set_tempo,,,,,24,1,0,,714285,,,,,,,
128184,set_tempo,,,,,24,1,0,,722891,,,,,,,
128208,set_tempo,,,,,24,1,0,,731707,,,,,,,
128232,set_tempo,,,,,24,1,0,,740740,,,,,,,
128256,note_on,,,,,128,0,12,,,,,4,,,33,115
128256,note_on,,,,,128,0,10,,,,,2,,,57,115
128256,note_on,,,,,0,0,13,,,,,5,,,69,100
128256,set_tempo,,,,,24,1,0,,2000000,,,,,,,
128256,note_on,,,,,0,0,13,,,,,5,,,64,100
128256,note_on,,,,,128,0,13,,,,,5,,,61,100
128256,note_on,,,,,128,0,14,,,,,5,,,45,100
128256,note_on,,,,,128,0,9,,,,,1,,,57,115
128256,note_on,,,,,128,0,11,,,,,3,,,45,115
128256,end_of_track,,,,,0,1,0,,,,,,,,,
128768,note_off,,,,,512,0,12,,,,,4,,,33,100
128768,note_off,,,,,512,0,14,,,,,5,,,45,100
128768,end_of_track,,,,,0,1,12,,,,,,,,,
128768,end_of_track,,,,,0,1,13,,,,,,,,,
128768,note_off,,,,,0,0,13,,,,,5,,,69,100
128768,note_off,,,,,0,0,13,,,,,5,,,64,100
128768,note_off,,,,,512,0,13,,,,,5,,,61,100
128768,note_off,,,,,512,0,10,,,,,2,,,57,100
128768,end_of_track,,,,,0,1,10,,,,,,,,,
128768,note_off,,,,,512,0,11,,,,,3,,,45,100
128768,end_of_track,,,,,0,1,11,,,,,,,,,
128768,note_off,,,,,512,0,9,,,,,1,,,57,100
128768,end_of_track,,,,,0,1,14,,,,,,,,,
129408,program_change,,,,,640,0,9,,,,,1,48,,,
129408,end_of_track,,,,,0,1,9,,,,,,,,,
