tick,type,numerator,denominator,clocks_per_click,notated_32nd_notes_per_beat,time,meta,track,data,tempo,control,value,channel,program,key,note,velocity
0,time_signature,3,4,96,8,0,1,0,,,,,,,,,
0,track_name,,,,,0,1,12,,,,,,,,,
0,control_change,,,,,0,0,12,,,0,0,6,,,,
0,program_change,,,,,0,0,12,,,,,6,6,,,
0,control_change,,,,,0,0,12,,,7,45,6,,,,
0,control_change,,,,,0,0,12,,,10,77,6,,,,
0,control_change,,,,,0,0,12,,,91,107,6,,,,
0,key_signature,,,,,0,1,12,,,,,,,Bb,,
0,note_on,,,,,0,0,12,,,,,6,,,62,100
0,track_name,,,,,0,1,13,,,,,,,,,
0,control_change,,,,,0,0,8,,,0,0,1,,,,
0,program_change,,,,,0,0,13,,,,,6,6,,,
0,control_change,,,,,0,0,13,,,7,45,6,,,,
0,control_change,,,,,0,0,13,,,10,77,6,,,,
0,control_change,,,,,0,0,13,,,91,107,6,,,,
0,key_signature,,,,,0,1,13,,,,,,,Bb,,
0,note_on,,,,,0,0,13,,,,,6,,,58,100
0,track_name,,,,,0,1,14,,,,,,,,,
0,control_change,,,,,0,0,14,,,0,0,7,,,,
0,program_change,,,,,0,0,14,,,,,7,19,,,
0,control_change,,,,,0,0,14,,,7,45,7,,,,
0,note_on,,,,,0,0,7,,,,,0,,,70,80
0,key_signature,,,,,0,1,7,,,,,,,Bb,,
0,control_change,,,,,0,0,7,,,91,107,0,,,,
0,control_change,,,,,0,0,7,,,7,100,0,,,,
0,program_change,,,,,0,0,7,,,,,0,40,,,
0,end_of_track,,,,,0,1,11,,,,,,,,,
0,control_change,,,,,0,0,7,,,0,0,0,,,,
0,key_signature,,,,,0,1,11,,,,,,,Bb,,
0,control_change,,,,,0,0,11,,,10,90,5,,,,
0,program_change,,,,,0,0,8,,,,,1,48,,,
0,control_change,,,,,0,0,8,,,7,100,1,,,,
0,control_change,,,,,0,0,8,,,10,50,1,,,,
0,control_change,,,,,0,0,8,,,91,107,1,,,,
0,key_signature,,,,,0,1,8,,,,,,,Bb,,
0,note_on,,,,,0,0,8,,,,,1,,,74,55
0,track_name,,,,,0,1,9,,,,,,,,,
0,control_change,,,,,0,0,9,,,0,0,3,,,,
0,program_change,,,,,0,0,9,,,,,3,48,,,
0,control_change,,,,,0,0,9,,,7,92,3,,,,
0,control_change,,,,,0,0,9,,,91,108,3,,,,
0,key_signature,,,,,0,1,9,,,,,,,Bb,,
0,note_on,,,,,0,0,9,,,,,3,,,65,55
0,track_name,,,,,0,1,10,,,,,,,,,
0,control_change,,,,,0,0,10,,,0,0,4,,,,
0,program_change,,,,,0,0,10,,,,,4,48,,,
0,control_change,,,,,0,0,10,,,7,82,4,,,,
0,control_change,,,,,0,0,10,,,10,79,4,,,,
0,control_change,,,,,0,0,10,,,91,107,4,,,,
0,key_signature,,,,,0,1,10,,,,,,,Bb,,
0,note_on,,,,,0,0,10,,,,,4,,,58,55
0,track_name,,,,,0,1,11,,,,,,,,,
0,control_change,,,,,0,0,11,,,0,0,5,,,,
0,program_change,,,,,0,0,11,,,,,5,48,,,
0,control_change,,,,,0,0,11,,,7,72,5,,,,
0,control_change,,,,,0,0,11,,,91,108,5,,,,
0,track_name,,,,,0,1,7,,,,,,,,,
0,control_change,,,,,0,0,13,,,0,0,6,,,,
0,key_signature,,,,,0,1,6,,,,,,,Bb,,
0,control_change,,,,,0,0,4,,,0,0,0,,,,
0,track_name,,,,,0,1,4,,,,,,,,,
0,end_of_track,,,,,0,1,3,,,,,,,,,
0,key_signature,,,,,0,1,3,,,,,,,Bb,,
0,program_change,,,,,0,0,3,,,,,0,40,,,
0,control_change,,,,,0,0,3,,,91,107,0,,,,
0,control_change,,,,,0,0,3,,,7,100,0,,,,
0,control_change,,,,,0,0,3,,,0,0,0,,,,
0,end_of_track,,,,,0,1,6,,,,,,,,,
0,end_of_track,,,,,0,1,2,,,,,,,,,
0,track_name,,,,,0,1,2,,,,,,,,,
0,end_of_track,,,,,0,1,1,,,,,,,,,
0,track_name,,,,,0,1,1,,,,,,,,,
0,control_change,,,,,0,0,14,,,91,105,7,,,,
0,key_signature,,,,,0,1,14,,,,,,,Bb,,
0,note_on,,,,,0,0,14,,,,,7,,,77,85
0,note_on,,,,,0,0,14,,,,,7,,,74,85
0,track_name,,,,,0,1,15,,,,,,,,,
0,control_change,,,,,0,0,15,,,0,0,7,,,,
0,program_change,,,,,0,0,15,,,,,7,19,,,
0,control_change,,,,,0,0,15,,,7,45,7,,,,
0,control_change,,,,,0,0,15,,,91,105,7,,,,
0,key_signature,,,,,0,1,15,,,,,,,Bb,,
0,note_on,,,,,0,0,15,,,,,7,,,58,85
0,set_tempo,,,,,0,1,0,,1621621,,,,,,,
0,sequencer_specific,,,,,0,1,0,"(0, 0, 119, 14, 1)",,,,,,,,
0,sequencer_specific,,,,,0,1,0,"(0, 0, 65)",,,,,,,,
0,program_change,,,,,0,0,4,,,,,0,40,,,
0,control_change,,,,,0,0,4,,,7,100,0,,,,
0,track_name,,,,,0,1,3,,,,,,,,,
0,key_signature,,,,,0,1,4,,,,,,,Bb,,
0,control_change,,,,,0,0,6,,,91,107,0,,,,
0,control_change,,,,,0,0,6,,,7,100,0,,,,
0,program_change,,,,,0,0,6,,,,,0,40,,,
0,control_change,,,,,0,0,6,,,0,0,0,,,,
0,track_name,,,,,0,1,6,,,,,,,,,
0,end_of_track,,,,,0,1,5,,,,,,,,,
0,key_signature,,,,,0,1,5,,,,,,,Bb,,
0,control_change,,,,,0,0,4,,,91,107,0,,,,
0,control_change,,,,,0,0,5,,,91,107,0,,,,
0,control_change,,,,,0,0,5,,,7,100,0,,,,
0,program_change,,,,,0,0,5,,,,,0,40,,,
0,control_change,,,,,0,0,5,,,0,0,0,,,,
0,track_name,,,,,0,1,5,,,,,,,,,
0,end_of_track,,,,,0,1,4,,,,,,,,,
0,track_name,,,,,0,1,8,,,,,,,,,
92,note_off,,,,,92,0,12,,,,,6,,,62,100
96,note_on,,,,,4,0,12,,,,,6,,,65,100
152,note_off,,,,,152,0,8,,,,,1,,,74,100
152,note_off,,,,,152,0,15,,,,,7,,,58,100
152,note_off,,,,,152,0,13,,,,,6,,,58,100
152,note_off,,,,,152,0,9,,,,,3,,,65,100
152,note_off,,,,,152,0,10,,,,,4,,,58,100
188,note_off,,,,,92,0,12,,,,,6,,,65,100
192,note_on,,,,,4,0,12,,,,,6,,,70,100
192,note_on,,,,,40,0,8,,,,,1,,,74,55
192,note_on,,,,,40,0,15,,,,,7,,,58,85
192,note_on,,,,,40,0,9,,,,,3,,,65,55
192,note_on,,,,,40,0,10,,,,,4,,,58,55
192,note_on,,,,,40,0,13,,,,,6,,,58,100
284,note_off,,,,,92,0,12,,,,,6,,,70,100
288,note_on,,,,,4,0,12,,,,,6,,,65,100
344,note_off,,,,,344,0,7,,,,,0,,,70,100
344,note_off,,,,,152,0,8,,,,,1,,,74,100
344,note_off,,,,,152,0,15,,,,,7,,,58,100
344,note_off,,,,,152,0,10,,,,,4,,,58,100
344,note_off,,,,,152,0,9,,,,,3,,,65,100
344,note_off,,,,,152,0,13,,,,,6,,,58,100
380,note_off,,,,,92,0,12,,,,,6,,,65,100
384,note_on,,,,,40,0,13,,,,,6,,,58,100
384,note_on,,,,,40,0,10,,,,,4,,,58,55
384,note_on,,,,,40,0,7,,,,,0,,,74,80
384,note_on,,,,,4,0,12,,,,,6,,,62,100
384,note_on,,,,,40,0,9,,,,,3,,,65,55
384,note_on,,,,,40,0,8,,,,,1,,,74,55
384,note_on,,,,,40,0,15,,,,,7,,,58,85
476,note_off,,,,,92,0,12,,,,,6,,,62,100
480,note_on,,,,,4,0,12,,,,,6,,,65,100
536,note_off,,,,,152,0,13,,,,,6,,,58,100
536,note_off,,,,,152,0,10,,,,,4,,,58,100
536,note_off,,,,,152,0,15,,,,,7,,,58,100
536,note_off,,,,,152,0,8,,,,,1,,,74,100
536,note_off,,,,,152,0,9,,,,,3,,,65,100
572,note_off,,,,,92,0,12,,,,,6,,,65,100
576,note_on,,,,,40,0,15,,,,,7,,,58,85
576,note_on,,,,,40,0,8,,,,,1,,,74,55
576,note_on,,,,,40,0,13,,,,,6,,,58,100
576,note_on,,,,,40,0,9,,,,,3,,,65,55
576,note_on,,,,,4,0,12,,,,,6,,,70,100
576,note_on,,,,,40,0,10,,,,,4,,,58,55
668,note_off,,,,,92,0,12,,,,,6,,,70,100
672,note_on,,,,,4,0,12,,,,,6,,,65,100
728,note_off,,,,,152,0,13,,,,,6,,,58,100
728,note_off,,,,,344,0,7,,,,,0,,,74,100
728,note_off,,,,,152,0,8,,,,,1,,,74,100
728,note_off,,,,,152,0,10,,,,,4,,,58,100
728,note_off,,,,,152,0,9,,,,,3,,,65,100
728,note_off,,,,,152,0,15,,,,,7,,,58,100
764,note_off,,,,,92,0,12,,,,,6,,,65,100
768,note_on,,,,,40,0,15,,,,,7,,,58,85
768,note_on,,,,,40,0,13,,,,,6,,,58,100
768,note_on,,,,,40,0,9,,,,,3,,,65,55
768,note_on,,,,,40,0,8,,,,,1,,,74,55
768,note_on,,,,,40,0,10,,,,,4,,,58,55
768,note_on,,,,,40,0,7,,,,,0,,,77,80
768,note_on,,,,,4,0,12,,,,,6,,,62,100
860,note_off,,,,,92,0,12,,,,,6,,,62,100
864,note_on,,,,,4,0,12,,,,,6,,,65,100
920,note_off,,,,,152,0,15,,,,,7,,,58,100
920,note_off,,,,,152,0,9,,,,,3,,,65,100
920,note_off,,,,,152,0,8,,,,,1,,,74,100
920,note_off,,,,,152,0,13,,,,,6,,,58,100
920,note_off,,,,,152,0,10,,,,,4,,,58,100
956,note_off,,,,,92,0,12,,,,,6,,,65,100
960,note_on,,,,,40,0,13,,,,,6,,,58,100
960,note_on,,,,,40,0,15,,,,,7,,,58,85
960,note_on,,,,,40,0,10,,,,,4,,,58,55
960,note_on,,,,,40,0,8,,,,,1,,,74,55
960,note_on,,,,,40,0,9,,,,,3,,,65,55
960,note_on,,,,,4,0,12,,,,,6,,,70,100
1036,note_off,,,,,1036,0,14,,,,,7,,,74,100
1052,note_off,,,,,92,0,12,,,,,6,,,70,100
1056,note_on,,,,,4,0,12,,,,,6,,,65,100
1112,note_off,,,,,152,0,9,,,,,3,,,65,100
1112,note_off,,,,,152,0,15,,,,,7,,,58,100
1112,note_off,,,,,152,0,8,,,,,1,,,74,100
1112,note_off,,,,,344,0,7,,,,,0,,,77,100
1112,note_off,,,,,152,0,10,,,,,4,,,58,100
1112,note_off,,,,,152,0,13,,,,,6,,,58,100
1148,note_off,,,,,92,0,12,,,,,6,,,65,100
1152,set_tempo,,,,,1152,1,0,,1621621,,,,,,,
1152,note_on,,,,,40,0,13,,,,,6,,,57,100
1152,note_on,,,,,40,0,7,,,,,0,,,72,80
1152,note_off,,,,,116,0,14,,,,,7,,,77,64
1152,note_on,,,,,4,0,12,,,,,6,,,60,100
1152,note_on,,,,,0,0,14,,,,,7,,,77,85
1152,note_on,,,,,40,0,8,,,,,1,,,72,55
1152,note_on,,,,,0,0,14,,,,,7,,,72,85
1152,note_on,,,,,40,0,10,,,,,4,,,57,55
1152,note_on,,,,,40,0,15,,,,,7,,,57,85
1152,note_on,,,,,40,0,9,,,,,3,,,65,55
1244,note_off,,,,,92,0,12,,,,,6,,,60,100
1248,note_on,,,,,4,0,12,,,,,6,,,65,100
1304,note_off,,,,,152,0,10,,,,,4,,,57,100
1304,note_off,,,,,152,0,15,,,,,7,,,57,100
1304,note_off,,,,,152,0,13,,,,,6,,,57,100
1304,note_off,,,,,152,0,9,,,,,3,,,65,100
1304,note_off,,,,,152,0,8,,,,,1,,,72,100
1340,note_off,,,,,92,0,12,,,,,6,,,65,100
1344,note_on,,,,,40,0,10,,,,,4,,,57,55
1344,note_on,,,,,40,0,15,,,,,7,,,57,85
1344,note_on,,,,,40,0,9,,,,,3,,,65,55
1344,note_on,,,,,40,0,13,,,,,6,,,57,100
1344,note_on,,,,,40,0,8,,,,,1,,,72,55
1344,note_on,,,,,4,0,12,,,,,6,,,69,100
1436,note_off,,,,,92,0,12,,,,,6,,,69,100
1440,note_on,,,,,4,0,12,,,,,6,,,65,100
1496,note_off,,,,,152,0,10,,,,,4,,,57,100
1496,note_off,,,,,152,0,9,,,,,3,,,65,100
1496,note_off,,,,,152,0,15,,,,,7,,,57,100
1496,note_off,,,,,152,0,8,,,,,1,,,72,100
1496,note_off,,,,,152,0,13,,,,,6,,,57,100
1496,note_off,,,,,344,0,7,,,,,0,,,72,100
1532,note_off,,,,,92,0,12,,,,,6,,,65,100
1536,note_on,,,,,40,0,13,,,,,6,,,57,100
1536,note_on,,,,,40,0,15,,,,,7,,,57,85
1536,note_on,,,,,4,0,12,,,,,6,,,60,100
1536,note_on,,,,,40,0,9,,,,,3,,,65,55
1536,note_on,,,,,40,0,10,,,,,4,,,57,55
1536,note_on,,,,,40,0,7,,,,,0,,,65,80
1536,note_on,,,,,40,0,8,,,,,1,,,72,55
1628,note_off,,,,,92,0,12,,,,,6,,,60,100
1632,note_on,,,,,4,0,12,,,,,6,,,65,100
1688,note_off,,,,,152,0,13,,,,,6,,,57,100
1688,note_off,,,,,152,0,15,,,,,7,,,57,100
1688,note_off,,,,,152,0,8,,,,,1,,,72,100
1688,note_off,,,,,152,0,10,,,,,4,,,57,100
1688,note_off,,,,,152,0,9,,,,,3,,,65,100
1724,note_off,,,,,92,0,12,,,,,6,,,65,100
1728,note_on,,,,,40,0,8,,,,,1,,,72,55
1728,note_on,,,,,40,0,13,,,,,6,,,57,100
1728,note_on,,,,,40,0,9,,,,,3,,,65,55
1728,note_on,,,,,40,0,15,,,,,7,,,57,85
1728,note_on,,,,,4,0,12,,,,,6,,,69,100
1728,note_on,,,,,40,0,10,,,,,4,,,57,55
1820,note_off,,,,,92,0,12,,,,,6,,,69,100
1824,note_on,,,,,4,0,12,,,,,6,,,65,100
1880,note_off,,,,,152,0,9,,,,,3,,,65,100
1880,note_off,,,,,152,0,8,,,,,1,,,72,100
1880,note_off,,,,,152,0,15,,,,,7,,,57,100
1880,note_off,,,,,152,0,10,,,,,4,,,57,100
1880,note_off,,,,,152,0,13,,,,,6,,,57,100
1880,note_off,,,,,344,0,7,,,,,0,,,65,100
1916,note_off,,,,,92,0,12,,,,,6,,,65,100
1920,note_on,,,,,40,0,7,,,,,0,,,77,80
1920,note_on,,,,,40,0,9,,,,,3,,,60,55
1920,note_on,,,,,40,0,15,,,,,7,,,57,85
1920,note_on,,,,,40,0,10,,,,,4,,,57,55
1920,note_on,,,,,40,0,8,,,,,1,,,72,55
1920,note_on,,,,,4,0,12,,,,,6,,,60,100
1920,note_on,,,,,40,0,13,,,,,6,,,57,100
2012,note_off,,,,,92,0,12,,,,,6,,,60,100
2016,note_on,,,,,4,0,12,,,,,6,,,65,100
2072,note_off,,,,,152,0,15,,,,,7,,,57,100
2072,note_off,,,,,152,0,9,,,,,3,,,60,100
2072,note_off,,,,,152,0,10,,,,,4,,,57,100
2072,note_off,,,,,152,0,13,,,,,6,,,57,100
2072,note_off,,,,,152,0,8,,,,,1,,,72,100
2108,note_off,,,,,92,0,12,,,,,6,,,65,100
2112,note_on,,,,,40,0,9,,,,,3,,,60,55
2112,note_on,,,,,40,0,8,,,,,1,,,72,55
2112,note_on,,,,,4,0,12,,,,,6,,,69,100
2112,note_on,,,,,40,0,10,,,,,4,,,57,55
2112,note_on,,,,,40,0,13,,,,,6,,,57,100
2112,note_on,,,,,40,0,15,,,,,7,,,57,85
2188,note_off,,,,,1036,0,14,,,,,7,,,72,100
2204,note_off,,,,,92,0,12,,,,,6,,,69,100
2208,note_on,,,,,4,0,12,,,,,6,,,65,100
2264,note_off,,,,,152,0,9,,,,,3,,,60,100
2264,note_off,,,,,152,0,13,,,,,6,,,57,100
2264,note_off,,,,,152,0,10,,,,,4,,,57,100
2264,note_off,,,,,152,0,8,,,,,1,,,72,100
2264,note_off,,,,,152,0,15,,,,,7,,,57,100
2300,note_off,,,,,92,0,12,,,,,6,,,65,100
2304,note_on,,,,,40,0,15,,,,,7,,,55,85
2304,note_on,,,,,40,0,9,,,,,3,,,62,55
2304,note_on,,,,,40,0,8,,,,,1,,,70,55
2304,note_on,,,,,40,0,13,,,,,6,,,55,100
2304,note_on,,,,,4,0,12,,,,,6,,,58,100
2304,note_on,,,,,40,0,10,,,,,4,,,55,55
2304,note_on,,,,,116,0,14,,,,,7,,,70,85
2396,note_off,,,,,92,0,12,,,,,6,,,58,100
2400,note_on,,,,,4,0,12,,,,,6,,,62,100
2456,note_off,,,,,152,0,10,,,,,4,,,55,100
2456,note_off,,,,,152,0,13,,,,,6,,,55,100
2456,note_off,,,,,152,0,8,,,,,1,,,70,100
2456,note_off,,,,,152,0,9,,,,,3,,,62,100
2456,note_off,,,,,152,0,15,,,,,7,,,55,100
2492,note_off,,,,,92,0,12,,,,,6,,,62,100
2496,note_on,,,,,40,0,13,,,,,6,,,55,100
2496,note_on,,,,,40,0,8,,,,,1,,,70,55
2496,note_on,,,,,4,0,12,,,,,6,,,65,100
2496,note_on,,,,,40,0,9,,,,,3,,,62,55
2496,note_on,,,,,40,0,15,,,,,7,,,55,85
2496,note_on,,,,,40,0,10,,,,,4,,,55,55
2588,note_off,,,,,92,0,12,,,,,6,,,65,100
2592,note_on,,,,,4,0,12,,,,,6,,,62,100
2648,note_off,,,,,152,0,13,,,,,6,,,55,100
2648,note_off,,,,,152,0,9,,,,,3,,,62,100
2648,note_off,,,,,728,0,7,,,,,0,,,77,100
2648,note_off,,,,,152,0,15,,,,,7,,,55,100
2648,note_off,,,,,152,0,10,,,,,4,,,55,100
2648,note_off,,,,,152,0,8,,,,,1,,,70,100
2684,note_off,,,,,92,0,12,,,,,6,,,62,100
2688,note_on,,,,,4,0,12,,,,,6,,,58,100
2688,note_on,,,,,40,0,9,,,,,3,,,62,55
2688,note_on,,,,,40,0,7,,,,,0,,,70,84
2688,note_on,,,,,40,0,15,,,,,7,,,55,85
2688,note_on,,,,,40,0,13,,,,,6,,,55,100
2688,note_on,,,,,40,0,8,,,,,1,,,70,55
2688,note_on,,,,,40,0,10,,,,,4,,,55,55
2780,note_off,,,,,92,0,12,,,,,6,,,58,100
2784,note_on,,,,,4,0,12,,,,,6,,,62,100
2840,note_off,,,,,152,0,13,,,,,6,,,55,100
2840,note_off,,,,,152,0,8,,,,,1,,,70,100
2840,note_off,,,,,152,0,9,,,,,3,,,62,100
2840,note_off,,,,,152,0,10,,,,,4,,,55,100
2840,note_off,,,,,152,0,15,,,,,7,,,55,100
2876,note_off,,,,,92,0,12,,,,,6,,,62,100
2880,note_on,,,,,4,0,12,,,,,6,,,65,100
2880,note_on,,,,,40,0,8,,,,,1,,,70,55
2880,note_on,,,,,40,0,9,,,,,3,,,62,55
2880,note_on,,,,,40,0,13,,,,,6,,,55,100
2880,note_on,,,,,40,0,15,,,,,7,,,55,85
2880,note_on,,,,,40,0,10,,,,,4,,,55,55
2972,note_off,,,,,92,0,12,,,,,6,,,65,100
2976,note_on,,,,,4,0,12,,,,,6,,,62,100
2992,note_off,,,,,688,0,14,,,,,7,,,77,100
3032,note_off,,,,,152,0,8,,,,,1,,,70,100
3032,note_off,,,,,152,0,9,,,,,3,,,62,100
3032,note_off,,,,,152,0,15,,,,,7,,,55,100
3032,note_off,,,,,152,0,10,,,,,4,,,55,100
3032,note_off,,,,,152,0,13,,,,,6,,,55,100
3032,note_off,,,,,344,0,7,,,,,0,,,70,100
3068,note_off,,,,,92,0,12,,,,,6,,,62,100
3072,note_on,,,,,40,0,8,,,,,1,,,70,55
3072,note_on,,,,,40,0,9,,,,,3,,,58,55
3072,note_on,,,,,40,0,10,,,,,4,,,55,55
3072,note_on,,,,,4,0,12,,,,,6,,,58,100
3072,note_on,,,,,40,0,7,,,,,0,,,75,87
3072,note_on,,,,,80,0,14,,,,,7,,,75,85
3072,note_on,,,,,40,0,15,,,,,7,,,55,85
3072,note_on,,,,,40,0,13,,,,,6,,,55,100
3164,note_off,,,,,92,0,12,,,,,6,,,58,100
3168,note_on,,,,,4,0,12,,,,,6,,,63,100
3224,note_off,,,,,152,0,10,,,,,4,,,55,100
3224,note_off,,,,,152,0,8,,,,,1,,,70,100
3224,note_off,,,,,152,0,15,,,,,7,,,55,100
3224,note_off,,,,,152,0,13,,,,,6,,,55,100
3224,note_off,,,,,152,0,9,,,,,3,,,58,100
3260,note_off,,,,,92,0,12,,,,,6,,,63,100
3264,note_on,,,,,4,0,12,,,,,6,,,67,100
3264,note_on,,,,,40,0,13,,,,,6,,,55,100
3264,note_on,,,,,40,0,8,,,,,1,,,70,55
3264,note_on,,,,,40,0,15,,,,,7,,,55,85
3264,note_on,,,,,40,0,10,,,,,4,,,55,55
3264,note_on,,,,,40,0,9,,,,,3,,,58,55
3340,note_off,,,,,268,0,14,,,,,7,,,70,100
3356,note_off,,,,,92,0,12,,,,,6,,,67,100
3360,note_on,,,,,4,0,12,,,,,6,,,63,100
3416,note_off,,,,,152,0,8,,,,,1,,,70,100
3416,note_off,,,,,152,0,15,,,,,7,,,55,100
3416,note_off,,,,,152,0,10,,,,,4,,,55,100
3416,note_off,,,,,152,0,13,,,,,6,,,55,100
3416,note_off,,,,,152,0,9,,,,,3,,,58,100
3416,note_off,,,,,344,0,7,,,,,0,,,75,100
3452,note_off,,,,,92,0,12,,,,,6,,,63,100
3456,note_on,,,,,40,0,9,,,,,3,,,60,55
3456,note_on,,,,,40,0,10,,,,,4,,,53,55
3456,note_on,,,,,40,0,13,,,,,6,,,53,100
3456,note_on,,,,,40,0,7,,,,,0,,,75,90
3456,note_on,,,,,116,0,14,,,,,7,,,69,85
3456,note_on,,,,,4,0,12,,,,,6,,,57,100
3456,note_on,,,,,40,0,15,,,,,7,,,53,85
3456,note_on,,,,,40,0,8,,,,,1,,,69,55
3548,note_off,,,,,92,0,12,,,,,6,,,57,100
3552,note_on,,,,,4,0,12,,,,,6,,,60,100
3608,note_off,,,,,152,0,9,,,,,3,,,60,100
3608,note_off,,,,,152,0,15,,,,,7,,,53,100
3608,note_off,,,,,152,0,13,,,,,6,,,53,100
3608,note_off,,,,,152,0,10,,,,,4,,,53,100
3608,note_off,,,,,152,0,8,,,,,1,,,69,100
3644,note_off,,,,,92,0,12,,,,,6,,,60,100
3648,note_on,,,,,40,0,8,,,,,1,,,69,55
3648,note_on,,,,,40,0,10,,,,,4,,,53,55
3648,note_on,,,,,4,0,12,,,,,6,,,63,100
3648,note_on,,,,,40,0,13,,,,,6,,,53,100
3648,note_on,,,,,40,0,15,,,,,7,,,53,85
3648,note_on,,,,,40,0,9,,,,,3,,,60,55
3740,note_off,,,,,92,0,12,,,,,6,,,63,100
3744,note_on,,,,,4,0,12,,,,,6,,,60,100
3800,note_off,,,,,152,0,9,,,,,3,,,60,100
3800,note_off,,,,,152,0,13,,,,,6,,,53,100
3800,note_off,,,,,152,0,8,,,,,1,,,69,100
3800,note_off,,,,,344,0,14,,,,,7,,,75,100
3800,note_off,,,,,152,0,15,,,,,7,,,53,100
3800,note_off,,,,,344,0,7,,,,,0,,,75,100
3800,note_off,,,,,152,0,10,,,,,4,,,53,100
3836,note_off,,,,,92,0,12,,,,,6,,,60,100
3840,note_on,,,,,40,0,10,,,,,4,,,53,55
3840,note_on,,,,,40,0,7,,,,,0,,,74,87
3840,note_on,,,,,40,0,8,,,,,1,,,69,55
3840,note_on,,,,,40,0,15,,,,,7,,,53,85
3840,note_on,,,,,40,0,13,,,,,6,,,53,100
3840,note_on,,,,,40,0,9,,,,,3,,,60,55
3840,note_on,,,,,4,0,12,,,,,6,,,57,100
3840,note_on,,,,,40,0,14,,,,,7,,,74,85
3932,note_off,,,,,92,0,12,,,,,6,,,57,100
3936,note_on,,,,,4,0,12,,,,,6,,,60,100
3992,note_off,,,,,152,0,8,,,,,1,,,69,100
3992,note_off,,,,,152,0,9,,,,,3,,,60,100
3992,note_off,,,,,152,0,10,,,,,4,,,53,100
3992,note_off,,,,,152,0,13,,,,,6,,,53,100
3992,note_off,,,,,152,0,15,,,,,7,,,53,100
4028,note_off,,,,,92,0,12,,,,,6,,,60,100
4032,note_on,,,,,40,0,10,,,,,4,,,53,55
4032,note_on,,,,,40,0,15,,,,,7,,,53,85
4032,note_on,,,,,40,0,9,,,,,3,,,60,55
4032,note_on,,,,,40,0,8,,,,,1,,,69,55
4032,note_on,,,,,40,0,13,,,,,6,,,53,100
4032,note_on,,,,,4,0,12,,,,,6,,,65,100
4124,note_off,,,,,92,0,12,,,,,6,,,65,100
4128,note_on,,,,,4,0,12,,,,,6,,,60,100
4184,note_off,,,,,152,0,15,,,,,7,,,53,100
4184,note_off,,,,,152,0,8,,,,,1,,,69,100
4184,note_off,,,,,152,0,10,,,,,4,,,53,100
4184,note_off,,,,,152,0,9,,,,,3,,,60,100
4184,note_off,,,,,152,0,13,,,,,6,,,53,100
4220,note_off,,,,,92,0,12,,,,,6,,,60,100
4224,note_on,,,,,40,0,10,,,,,4,,,53,55
4224,note_on,,,,,40,0,13,,,,,6,,,53,100
4224,note_on,,,,,40,0,9,,,,,3,,,57,55
4224,note_on,,,,,40,0,15,,,,,7,,,53,85
4224,note_on,,,,,40,0,8,,,,,1,,,69,55
4224,note_on,,,,,4,0,12,,,,,6,,,57,100
4316,note_off,,,,,92,0,12,,,,,6,,,57,100
4320,note_on,,,,,4,0,12,,,,,6,,,60,100
4356,note_off,,,,,516,0,7,,,,,0,,,74,100
4376,note_off,,,,,152,0,9,,,,,3,,,57,100
4376,note_off,,,,,152,0,15,,,,,7,,,53,100
4376,note_off,,,,,152,0,10,,,,,4,,,53,100
4376,note_off,,,,,152,0,13,,,,,6,,,53,100
4376,note_off,,,,,152,0,8,,,,,1,,,69,100
4412,note_off,,,,,92,0,12,,,,,6,,,60,100
4416,note_on,,,,,40,0,8,,,,,1,,,69,55
4416,note_on,,,,,40,0,13,,,,,6,,,53,100
4416,note_on,,,,,40,0,9,,,,,3,,,57,55
4416,note_on,,,,,4,0,12,,,,,6,,,65,100
4416,note_on,,,,,40,0,15,,,,,7,,,53,85
4416,note_on,,,,,60,0,7,,,,,0,,,74,85
4416,note_on,,,,,40,0,10,,,,,4,,,53,55
4492,note_off,,,,,652,0,14,,,,,7,,,69,100
4508,note_off,,,,,92,0,12,,,,,6,,,65,100
4512,note_on,,,,,4,0,12,,,,,6,,,60,100
4568,note_off,,,,,152,0,10,,,,,4,,,53,100
4568,note_off,,,,,152,0,9,,,,,3,,,57,100
4568,note_off,,,,,152,0,13,,,,,6,,,53,100
4568,note_off,,,,,152,0,8,,,,,1,,,69,100
4568,note_off,,,,,152,0,15,,,,,7,,,53,100
4588,note_off,,,,,172,0,7,,,,,0,,,74,100
4604,note_off,,,,,92,0,12,,,,,6,,,60,100
4608,note_on,,,,,40,0,8,,,,,1,,,67,55
4608,note_on,,,,,40,0,13,,,,,6,,,51,100
4608,note_on,,,,,116,0,14,,,,,7,,,67,85
4608,note_on,,,,,4,0,12,,,,,6,,,55,100
4608,note_on,,,,,40,0,9,,,,,3,,,58,55
4608,note_on,,,,,40,0,15,,,,,7,,,51,85
4608,note_on,,,,,40,0,10,,,,,4,,,51,55
4608,note_on,,,,,20,0,7,,,,,0,,,79,90
4700,note_off,,,,,92,0,12,,,,,6,,,55,100
4704,note_on,,,,,4,0,12,,,,,6,,,58,100
4760,note_off,,,,,152,0,9,,,,,3,,,58,100
4760,note_off,,,,,152,0,10,,,,,4,,,51,100
4760,note_off,,,,,152,0,15,,,,,7,,,51,100
4760,note_off,,,,,152,0,8,,,,,1,,,67,100
4760,note_off,,,,,152,0,13,,,,,6,,,51,100
4796,note_off,,,,,92,0,12,,,,,6,,,58,100
4800,note_on,,,,,40,0,8,,,,,1,,,67,55
4800,note_on,,,,,4,0,12,,,,,6,,,62,100
4800,note_on,,,,,40,0,15,,,,,7,,,51,85
4800,note_on,,,,,40,0,9,,,,,3,,,58,55
4800,note_on,,,,,40,0,10,,,,,4,,,51,55
4800,note_on,,,,,40,0,13,,,,,6,,,51,100
4864,note_off,,,,,256,0,7,,,,,0,,,79,100
4892,note_off,,,,,92,0,12,,,,,6,,,62,100
4896,note_on,,,,,32,0,7,,,,,0,,,77,88
4896,note_on,,,,,4,0,12,,,,,6,,,58,100
4952,note_off,,,,,152,0,13,,,,,6,,,51,100
4952,note_off,,,,,152,0,15,,,,,7,,,51,100
4952,note_off,,,,,344,0,14,,,,,7,,,74,100
4952,note_off,,,,,152,0,9,,,,,3,,,58,100
4952,note_off,,,,,152,0,10,,,,,4,,,51,100
4952,note_off,,,,,152,0,8,,,,,1,,,67,100
4972,note_off,,,,,76,0,7,,,,,0,,,77,100
4988,note_off,,,,,92,0,12,,,,,6,,,58,100
4992,note_on,,,,,40,0,14,,,,,7,,,72,85
4992,note_on,,,,,40,0,8,,,,,1,,,72,55
4992,note_on,,,,,40,0,13,,,,,6,,,51,100
4992,note_on,,,,,4,0,12,,,,,6,,,55,100
4992,note_on,,,,,40,0,9,,,,,3,,,67,55
4992,note_on,,,,,40,0,15,,,,,7,,,51,85
4992,note_on,,,,,20,0,7,,,,,0,,,75,88
4992,note_on,,,,,40,0,10,,,,,4,,,51,55
5084,note_off,,,,,92,0,12,,,,,6,,,55,100
5088,note_on,,,,,4,0,12,,,,,6,,,58,100
5144,note_off,,,,,152,0,13,,,,,6,,,51,100
5144,note_off,,,,,152,0,15,,,,,7,,,51,100
5144,note_off,,,,,152,0,9,,,,,3,,,67,100
5144,note_off,,,,,152,0,8,,,,,1,,,72,100
5144,note_off,,,,,152,0,10,,,,,4,,,51,100
5180,note_off,,,,,92,0,12,,,,,6,,,58,100
5184,note_on,,,,,4,0,12,,,,,6,,,60,100
5184,note_on,,,,,40,0,8,,,,,1,,,72,55
5184,note_on,,,,,40,0,10,,,,,4,,,51,55
5184,note_on,,,,,40,0,13,,,,,6,,,51,100
5184,note_on,,,,,40,0,9,,,,,3,,,67,55
5184,note_on,,,,,40,0,15,,,,,7,,,51,85
5248,note_off,,,,,256,0,7,,,,,0,,,75,100
5276,note_off,,,,,92,0,12,,,,,6,,,60,100
5280,note_on,,,,,32,0,7,,,,,0,,,74,85
5280,note_on,,,,,4,0,12,,,,,6,,,58,100
5336,note_off,,,,,152,0,9,,,,,3,,,67,100
5336,note_off,,,,,152,0,8,,,,,1,,,72,100
5336,note_off,,,,,152,0,13,,,,,6,,,51,100
5336,note_off,,,,,152,0,15,,,,,7,,,51,100
5336,note_off,,,,,152,0,10,,,,,4,,,51,100
5356,note_off,,,,,76,0,7,,,,,0,,,74,100
5372,note_off,,,,,92,0,12,,,,,6,,,58,100
5376,note_on,,,,,40,0,9,,,,,3,,,67,55
5376,note_on,,,,,40,0,13,,,,,6,,,52,100
5376,note_on,,,,,40,0,15,,,,,7,,,52,85
5376,note_on,,,,,40,0,10,,,,,4,,,52,55
5376,note_on,,,,,4,0,12,,,,,6,,,55,100
5376,note_on,,,,,40,0,8,,,,,1,,,72,55
5376,note_on,,,,,20,0,7,,,,,0,,,72,85
5468,note_off,,,,,92,0,12,,,,,6,,,55,100
5472,note_on,,,,,4,0,12,,,,,6,,,58,100
5528,note_off,,,,,152,0,13,,,,,6,,,52,100
5528,note_off,,,,,152,0,15,,,,,7,,,52,100
5528,note_off,,,,,152,0,9,,,,,3,,,67,100
5528,note_off,,,,,152,0,8,,,,,1,,,72,100
5528,note_off,,,,,152,0,10,,,,,4,,,52,100
5564,note_off,,,,,92,0,12,,,,,6,,,58,100
5568,note_on,,,,,40,0,8,,,,,1,,,72,55
5568,note_on,,,,,40,0,13,,,,,6,,,52,100
5568,note_on,,,,,4,0,12,,,,,6,,,60,100
5568,note_on,,,,,40,0,10,,,,,4,,,52,55
5568,note_on,,,,,40,0,9,,,,,3,,,67,55
5568,note_on,,,,,40,0,15,,,,,7,,,52,85
5632,note_off,,,,,256,0,7,,,,,0,,,72,100
5644,note_off,,,,,652,0,14,,,,,7,,,67,100
5660,note_off,,,,,92,0,12,,,,,6,,,60,100
5664,note_on,,,,,32,0,7,,,,,0,,,70,83
5664,note_on,,,,,4,0,12,,,,,6,,,58,100
5720,note_off,,,,,152,0,13,,,,,6,,,52,100
5720,note_off,,,,,152,0,9,,,,,3,,,67,100
5720,note_off,,,,,152,0,15,,,,,7,,,52,100
5720,note_off,,,,,152,0,8,,,,,1,,,72,100
5720,note_off,,,,,152,0,10,,,,,4,,,52,100
5740,note_off,,,,,76,0,7,,,,,0,,,70,100
5756,note_off,,,,,92,0,12,,,,,6,,,58,100
5760,note_on,,,,,40,0,9,,,,,3,,,65,55
5760,note_on,,,,,40,0,13,,,,,6,,,53,100
5760,note_on,,,,,40,0,15,,,,,7,,,53,85
5760,note_on,,,,,116,0,14,,,,,7,,,69,85
5760,note_on,,,,,40,0,10,,,,,4,,,53,55
5760,note_on,,,,,40,0,8,,,,,1,,,72,55
5760,note_on,,,,,4,0,12,,,,,6,,,57,100
5760,note_on,,,,,20,0,7,,,,,0,,,81,87
5852,note_off,,,,,92,0,12,,,,,6,,,57,100
5856,note_on,,,,,4,0,12,,,,,6,,,60,100
5912,note_off,,,,,152,0,10,,,,,4,,,53,100
5912,note_off,,,,,152,0,8,,,,,1,,,72,100
5912,note_off,,,,,152,0,9,,,,,3,,,65,100
5912,note_off,,,,,152,0,15,,,,,7,,,53,100
5912,note_off,,,,,152,0,13,,,,,6,,,53,100
5948,note_off,,,,,92,0,12,,,,,6,,,60,100
5952,note_on,,,,,40,0,13,,,,,6,,,53,100
5952,note_on,,,,,40,0,9,,,,,3,,,65,55
5952,note_on,,,,,40,0,10,,,,,4,,,53,55
5952,note_on,,,,,4,0,12,,,,,6,,,65,100
5952,note_on,,,,,40,0,8,,,,,1,,,72,55
5952,note_on,,,,,40,0,15,,,,,7,,,53,85
6044,note_off,,,,,92,0,12,,,,,6,,,65,100
6048,note_on,,,,,4,0,12,,,,,6,,,60,100
6104,note_off,,,,,152,0,15,,,,,7,,,53,100
6104,note_off,,,,,152,0,10,,,,,4,,,53,100
6104,note_off,,,,,152,0,8,,,,,1,,,72,100
6104,note_off,,,,,152,0,13,,,,,6,,,53,100
6104,note_off,,,,,152,0,9,,,,,3,,,65,100
6140,note_off,,,,,92,0,12,,,,,6,,,60,100
6144,note_on,,,,,40,0,8,,,,,1,,,72,55
6144,note_on,,,,,40,0,13,,,,,6,,,51,100
6144,note_on,,,,,40,0,9,,,,,3,,,65,55
6144,note_on,,,,,40,0,10,,,,,4,,,51,55
6144,note_on,,,,,4,0,12,,,,,6,,,57,100
6144,note_on,,,,,40,0,15,,,,,7,,,51,85
6236,note_off,,,,,92,0,12,,,,,6,,,57,100
6240,note_on,,,,,4,0,12,,,,,6,,,60,100
6276,note_off,,,,,516,0,7,,,,,0,,,81,100
6296,note_off,,,,,152,0,13,,,,,6,,,51,100
6296,note_off,,,,,152,0,15,,,,,7,,,51,100
6296,note_off,,,,,152,0,10,,,,,4,,,51,100
6296,note_off,,,,,152,0,9,,,,,3,,,65,100
6296,note_off,,,,,152,0,8,,,,,1,,,72,100
6332,note_off,,,,,92,0,12,,,,,6,,,60,100
6336,note_on,,,,,60,0,7,,,,,0,,,77,90
6336,note_on,,,,,40,0,15,,,,,7,,,51,85
6336,note_on,,,,,40,0,10,,,,,4,,,51,55
6336,note_on,,,,,4,0,12,,,,,6,,,63,100
6336,note_on,,,,,40,0,9,,,,,3,,,65,55
6336,note_on,,,,,40,0,8,,,,,1,,,72,55
6336,note_on,,,,,40,0,13,,,,,6,,,51,100
6428,note_off,,,,,92,0,12,,,,,6,,,63,100
6432,note_on,,,,,4,0,12,,,,,6,,,60,100
6448,note_off,,,,,0,0,14,,,,,7,,,69,100
6448,note_off,,,,,688,0,14,,,,,7,,,72,100
6488,note_off,,,,,152,0,8,,,,,1,,,72,100
6488,note_off,,,,,152,0,10,,,,,4,,,51,100
6488,note_off,,,,,152,0,13,,,,,6,,,51,100
6488,note_off,,,,,152,0,7,,,,,0,,,77,100
6488,note_off,,,,,152,0,9,,,,,3,,,65,100
6488,note_off,,,,,152,0,15,,,,,7,,,51,100
6524,note_off,,,,,92,0,12,,,,,6,,,60,100
6528,note_on,,,,,40,0,7,,,,,0,,,82,92
6528,note_on,,,,,40,0,8,,,,,1,,,74,55
6528,note_on,,,,,40,0,9,,,,,3,,,65,55
6528,note_on,,,,,4,0,12,,,,,6,,,58,100
6528,note_on,,,,,40,0,15,,,,,7,,,50,85
6528,note_on,,,,,40,0,13,,,,,6,,,50,100
6528,note_on,,,,,0,0,14,,,,,7,,,70,85
6528,note_on,,,,,80,0,14,,,,,7,,,65,85
6528,note_on,,,,,40,0,10,,,,,4,,,50,55
6620,note_off,,,,,92,0,12,,,,,6,,,58,100
6624,note_on,,,,,4,0,12,,,,,6,,,62,100
6680,note_off,,,,,152,0,10,,,,,4,,,50,100
6680,note_off,,,,,152,0,15,,,,,7,,,50,100
6680,note_off,,,,,152,0,13,,,,,6,,,50,100
6680,note_off,,,,,152,0,8,,,,,1,,,74,100
6680,note_off,,,,,152,0,9,,,,,3,,,65,100
6716,note_off,,,,,92,0,12,,,,,6,,,62,100
6720,note_on,,,,,40,0,15,,,,,7,,,50,85
6720,note_on,,,,,40,0,13,,,,,6,,,50,100
6720,note_on,,,,,40,0,8,,,,,1,,,74,55
6720,note_on,,,,,4,0,12,,,,,6,,,65,100
6720,note_on,,,,,40,0,10,,,,,4,,,50,55
6720,note_on,,,,,40,0,9,,,,,3,,,65,55
6784,note_off,,,,,256,0,7,,,,,0,,,82,100
6812,note_off,,,,,92,0,12,,,,,6,,,65,100
6816,note_on,,,,,4,0,12,,,,,6,,,62,100
6816,note_on,,,,,32,0,7,,,,,0,,,77,90
6872,note_off,,,,,0,0,14,,,,,7,,,70,100
6872,note_off,,,,,152,0,9,,,,,3,,,65,100
6872,note_off,,,,,152,0,15,,,,,7,,,50,100
6872,note_off,,,,,152,0,8,,,,,1,,,74,100
6872,note_off,,,,,152,0,10,,,,,4,,,50,100
6872,note_off,,,,,152,0,13,,,,,6,,,50,100
6872,note_off,,,,,344,0,14,,,,,7,,,65,100
6892,note_off,,,,,76,0,7,,,,,0,,,77,100
6908,note_off,,,,,92,0,12,,,,,6,,,62,100
6912,note_on,,,,,40,0,8,,,,,1,,,72,55
6912,note_on,,,,,20,0,7,,,,,0,,,75,90
6912,note_on,,,,,4,0,12,,,,,6,,,60,100
6912,note_on,,,,,40,0,14,,,,,7,,,72,85
6912,note_on,,,,,0,0,14,,,,,7,,,67,85
6912,note_on,,,,,40,0,9,,,,,3,,,67,55
6912,note_on,,,,,40,0,15,,,,,7,,,51,85
6912,note_on,,,,,40,0,13,,,,,6,,,51,100
6912,note_on,,,,,40,0,10,,,,,4,,,51,55
7004,note_off,,,,,92,0,12,,,,,6,,,60,100
7008,note_on,,,,,4,0,12,,,,,6,,,63,100
7064,note_off,,,,,152,0,10,,,,,4,,,51,100
7064,note_off,,,,,152,0,9,,,,,3,,,67,100
7064,note_off,,,,,152,0,15,,,,,7,,,51,100
7064,note_off,,,,,152,0,13,,,,,6,,,51,100
7100,note_off,,,,,92,0,12,,,,,6,,,63,100
7100,note_off,,,,,188,0,8,,,,,1,,,72,100
7104,note_on,,,,,4,0,8,,,,,1,,,70,55
7104,note_on,,,,,40,0,13,,,,,6,,,51,100
7104,note_on,,,,,40,0,15,,,,,7,,,51,85
7104,note_on,,,,,4,0,12,,,,,6,,,67,100
7104,note_on,,,,,40,0,10,,,,,4,,,51,55
7104,note_on,,,,,40,0,9,,,,,3,,,67,55
7168,note_off,,,,,256,0,7,,,,,0,,,75,100
7196,note_off,,,,,92,0,12,,,,,6,,,67,100
7200,note_on,,,,,4,0,12,,,,,6,,,63,100
7200,note_on,,,,,32,0,7,,,,,0,,,74,87
7256,note_off,,,,,152,0,13,,,,,6,,,51,100
7256,note_off,,,,,152,0,15,,,,,7,,,51,100
7256,note_off,,,,,152,0,9,,,,,3,,,67,100
7256,note_off,,,,,344,0,14,,,,,7,,,67,100
7256,note_off,,,,,152,0,10,,,,,4,,,51,100
7256,note_off,,,,,152,0,8,,,,,1,,,70,100
7276,note_off,,,,,76,0,7,,,,,0,,,74,100
7292,note_off,,,,,92,0,12,,,,,6,,,63,100
7296,note_on,,,,,40,0,10,,,,,4,,,53,55
7296,note_on,,,,,40,0,9,,,,,3,,,60,55
7296,note_on,,,,,20,0,7,,,,,0,,,74,87
7296,note_on,,,,,40,0,13,,,,,6,,,53,100
7296,note_on,,,,,40,0,8,,,,,1,,,69,55
7296,note_on,,,,,40,0,15,,,,,7,,,53,85
7296,note_on,,,,,4,0,12,,,,,6,,,60,100
7296,note_on,,,,,40,0,14,,,,,7,,,69,85
7296,note_on,,,,,0,0,7,,,,,0,,,65,87
7388,note_off,,,,,92,0,7,,,,,0,,,74,100
7388,note_off,,,,,92,0,12,,,,,6,,,60,100
7392,note_on,,,,,4,0,7,,,,,0,,,72,86
7392,note_on,,,,,4,0,12,,,,,6,,,65,100
7436,note_off,,,,,44,0,7,,,,,0,,,72,100
7440,note_on,,,,,4,0,7,,,,,0,,,74,85
7448,note_off,,,,,152,0,13,,,,,6,,,53,100
7448,note_off,,,,,152,0,10,,,,,4,,,53,100
7448,note_off,,,,,152,0,15,,,,,7,,,53,100
7448,note_off,,,,,152,0,8,,,,,1,,,69,100
7448,note_off,,,,,152,0,9,,,,,3,,,60,100
7484,note_off,,,,,92,0,12,,,,,6,,,65,100
7484,note_off,,,,,44,0,7,,,,,0,,,74,100
7488,note_on,,,,,4,0,12,,,,,6,,,69,100
7488,note_on,,,,,4,0,7,,,,,0,,,72,85
7488,note_on,,,,,40,0,15,,,,,7,,,53,85
7488,note_on,,,,,40,0,10,,,,,4,,,53,55
7488,note_on,,,,,40,0,8,,,,,1,,,69,55
7488,note_on,,,,,40,0,9,,,,,3,,,60,55
7488,note_on,,,,,40,0,13,,,,,6,,,53,100
7508,note_off,,,,,20,0,7,,,,,0,,,72,100
7512,note_on,,,,,4,0,7,,,,,0,,,74,85
7532,note_off,,,,,20,0,7,,,,,0,,,74,100
7536,note_on,,,,,4,0,7,,,,,0,,,72,85
7556,note_off,,,,,20,0,7,,,,,0,,,72,100
7560,note_on,,,,,4,0,7,,,,,0,,,74,84
7580,note_off,,,,,20,0,7,,,,,0,,,74,100
7580,note_off,,,,,92,0,12,,,,,6,,,69,100
7584,note_on,,,,,4,0,12,,,,,6,,,65,100
7584,note_on,,,,,4,0,7,,,,,0,,,72,84
7600,note_off,,,,,304,0,14,,,,,7,,,72,100
7604,note_off,,,,,20,0,7,,,,,0,,,72,100
7608,note_on,,,,,4,0,7,,,,,0,,,74,84
7628,note_off,,,,,20,0,7,,,,,0,,,74,100
7632,note_on,,,,,4,0,7,,,,,0,,,72,84
7640,note_off,,,,,152,0,10,,,,,4,,,53,100
7640,note_off,,,,,152,0,9,,,,,3,,,60,100
7640,note_off,,,,,152,0,15,,,,,7,,,53,100
7640,note_off,,,,,152,0,8,,,,,1,,,69,100
7640,note_off,,,,,152,0,13,,,,,6,,,53,100
7652,note_off,,,,,20,0,7,,,,,0,,,72,100
7656,note_on,,,,,4,0,7,,,,,0,,,74,84
7676,note_off,,,,,92,0,12,,,,,6,,,65,100
7676,note_off,,,,,20,0,7,,,,,0,,,74,100
7680,note_on,,,,,4,0,7,,,,,0,,,72,84
7680,note_on,,,,,4,0,12,,,,,6,,,60,100
7680,note_on,,,,,40,0,9,,,,,3,,,65,55
7680,note_on,,,,,40,0,8,,,,,1,,,69,55
7680,note_on,,,,,40,0,13,,,,,6,,,41,100
7680,note_on,,,,,80,0,14,,,,,7,,,77,85
7680,note_on,,,,,40,0,10,,,,,4,,,41,55
7680,note_on,,,,,40,0,15,,,,,7,,,41,85
7716,note_off,,,,,36,0,14,,,,,7,,,69,100
7772,note_off,,,,,92,0,12,,,,,6,,,60,100
7776,note_on,,,,,60,0,14,,,,,7,,,72,85
7776,note_on,,,,,4,0,12,,,,,6,,,65,100
7832,note_off,,,,,152,0,15,,,,,7,,,41,100
7832,note_off,,,,,152,0,13,,,,,6,,,41,100
7832,note_off,,,,,152,0,7,,,,,0,,,72,100
7832,note_off,,,,,152,0,10,,,,,4,,,41,100
7832,note_off,,,,,152,0,9,,,,,3,,,65,100
7832,note_off,,,,,152,0,8,,,,,1,,,69,100
7852,note_off,,,,,76,0,14,,,,,7,,,72,100
7868,note_off,,,,,92,0,12,,,,,6,,,65,100
7872,note_on,,,,,4,0,12,,,,,6,,,69,100
7872,note_on,,,,,40,0,10,,,,,4,,,41,55
7872,note_on,,,,,40,0,9,,,,,3,,,65,55
7872,note_on,,,,,20,0,14,,,,,7,,,74,85
7872,note_on,,,,,40,0,15,,,,,7,,,41,85
7872,note_on,,,,,40,0,7,,,,,0,,,70,82
7872,note_on,,,,,40,0,8,,,,,1,,,69,55
7872,note_on,,,,,40,0,13,,,,,6,,,41,100
7948,note_off,,,,,76,0,14,,,,,7,,,74,100
7964,note_off,,,,,92,0,12,,,,,6,,,69,100
7968,note_on,,,,,4,0,12,,,,,6,,,65,100
7968,note_on,,,,,20,0,14,,,,,7,,,75,85
7984,note_off,,,,,112,0,7,,,,,0,,,65,100
8024,note_off,,,,,152,0,8,,,,,1,,,69,100
8024,note_off,,,,,152,0,13,,,,,6,,,41,100
8024,note_off,,,,,152,0,9,,,,,3,,,65,100
8024,note_off,,,,,152,0,10,,,,,4,,,41,100
8024,note_off,,,,,40,0,7,,,,,0,,,70,100
8024,note_off,,,,,152,0,15,,,,,7,,,41,100
8044,note_off,,,,,76,0,14,,,,,7,,,75,100
8060,note_off,,,,,92,0,12,,,,,6,,,65,100
8064,note_on,,,,,40,0,15,,,,,7,,,58,85
8064,note_on,,,,,20,0,14,,,,,7,,,74,85
8064,note_on,,,,,40,0,7,,,,,0,,,70,80
8064,note_on,,,,,4,0,12,,,,,6,,,62,100
8064,note_on,,,,,40,0,8,,,,,1,,,70,55
8064,note_on,,,,,40,0,9,,,,,3,,,62,55
8064,note_on,,,,,40,0,10,,,,,4,,,58,55
8064,note_on,,,,,40,0,13,,,,,6,,,58,100
8156,note_off,,,,,92,0,12,,,,,6,,,62,100
8160,note_on,,,,,4,0,12,,,,,6,,,65,100
8216,note_off,,,,,152,0,15,,,,,7,,,58,100
8216,note_off,,,,,152,0,10,,,,,4,,,58,100
8216,note_off,,,,,152,0,13,,,,,6,,,58,100
8252,note_off,,,,,188,0,8,,,,,1,,,70,100
8252,note_off,,,,,188,0,9,,,,,3,,,62,100
8252,note_off,,,,,92,0,12,,,,,6,,,65,100
8256,note_on,,,,,4,0,12,,,,,6,,,70,100
8256,note_on,,,,,40,0,10,,,,,4,,,58,55
8256,note_on,,,,,4,0,8,,,,,1,,,74,55
8256,note_on,,,,,40,0,15,,,,,7,,,58,85
8256,note_on,,,,,4,0,9,,,,,3,,,65,55
8256,note_on,,,,,40,0,13,,,,,6,,,58,100
8348,note_off,,,,,92,0,12,,,,,6,,,70,100
8352,note_on,,,,,4,0,12,,,,,6,,,65,100
8408,note_off,,,,,152,0,13,,,,,6,,,58,100
8408,note_off,,,,,152,0,10,,,,,4,,,58,100
8408,note_off,,,,,152,0,8,,,,,1,,,74,100
8408,note_off,,,,,152,0,15,,,,,7,,,58,100
8408,note_off,,,,,152,0,9,,,,,3,,,65,100
8408,note_off,,,,,344,0,7,,,,,0,,,70,100
8444,note_off,,,,,92,0,12,,,,,6,,,65,100
8448,note_on,,,,,40,0,15,,,,,7,,,58,85
8448,note_on,,,,,40,0,9,,,,,3,,,65,55
8448,note_on,,,,,4,0,12,,,,,6,,,62,100
8448,note_on,,,,,40,0,8,,,,,1,,,74,55
8448,note_on,,,,,40,0,13,,,,,6,,,58,100
8448,note_on,,,,,40,0,7,,,,,0,,,74,83
8448,note_on,,,,,40,0,10,,,,,4,,,58,55
8540,note_off,,,,,92,0,12,,,,,6,,,62,100
8544,note_on,,,,,4,0,12,,,,,6,,,65,100
8600,note_off,,,,,152,0,9,,,,,3,,,65,100
8600,note_off,,,,,152,0,10,,,,,4,,,58,100
8600,note_off,,,,,152,0,15,,,,,7,,,58,100
8600,note_off,,,,,152,0,8,,,,,1,,,74,100
8600,note_off,,,,,152,0,13,,,,,6,,,58,100
8636,note_off,,,,,92,0,12,,,,,6,,,65,100
8640,note_on,,,,,40,0,15,,,,,7,,,58,85
8640,note_on,,,,,40,0,9,,,,,3,,,65,55
8640,note_on,,,,,4,0,12,,,,,6,,,70,100
8640,note_on,,,,,40,0,8,,,,,1,,,74,55
8640,note_on,,,,,40,0,13,,,,,6,,,58,100
8640,note_on,,,,,40,0,10,,,,,4,,,58,55
8732,note_off,,,,,92,0,12,,,,,6,,,70,100
8736,note_on,,,,,4,0,12,,,,,6,,,65,100
8752,note_off,,,,,688,0,14,,,,,7,,,77,100
8792,note_off,,,,,152,0,9,,,,,3,,,65,100
8792,note_off,,,,,152,0,10,,,,,4,,,58,100
8792,note_off,,,,,344,0,7,,,,,0,,,74,100
8792,note_off,,,,,152,0,8,,,,,1,,,74,100
8792,note_off,,,,,152,0,13,,,,,6,,,58,100
8792,note_off,,,,,152,0,15,,,,,7,,,58,100
8828,note_off,,,,,92,0,12,,,,,6,,,65,100
8832,note_on,,,,,40,0,9,,,,,3,,,70,55
8832,note_on,,,,,4,0,12,,,,,6,,,62,100
8832,note_on,,,,,40,0,7,,,,,0,,,79,86
8832,note_on,,,,,80,0,14,,,,,7,,,79,85
8832,note_on,,,,,40,0,8,,,,,1,,,74,55
8832,note_on,,,,,40,0,15,,,,,7,,,58,85
8832,note_on,,,,,40,0,10,,,,,4,,,58,55
8832,note_on,,,,,40,0,13,,,,,6,,,58,100
8924,note_off,,,,,92,0,12,,,,,6,,,62,100
8928,note_on,,,,,4,0,12,,,,,6,,,67,100
8984,note_off,,,,,152,0,10,,,,,4,,,58,100
8984,note_off,,,,,152,0,15,,,,,7,,,58,100
8984,note_off,,,,,152,0,13,,,,,6,,,58,100
8984,note_off,,,,,152,0,9,,,,,3,,,70,100
8984,note_off,,,,,152,0,8,,,,,1,,,74,100
9020,note_off,,,,,92,0,12,,,,,6,,,67,100
9024,note_on,,,,,40,0,8,,,,,1,,,74,55
9024,note_on,,,,,40,0,10,,,,,4,,,58,55
9024,note_on,,,,,40,0,9,,,,,3,,,70,55
9024,note_on,,,,,40,0,13,,,,,6,,,58,100
9024,note_on,,,,,40,0,15,,,,,7,,,58,85
9024,note_on,,,,,4,0,12,,,,,6,,,70,100
9100,note_off,,,,,268,0,14,,,,,7,,,74,100
9116,note_off,,,,,92,0,12,,,,,6,,,70,100
9120,note_on,,,,,4,0,12,,,,,6,,,67,100
9176,note_off,,,,,344,0,7,,,,,0,,,79,100
9176,note_off,,,,,152,0,8,,,,,1,,,74,100
9176,note_off,,,,,152,0,15,,,,,7,,,58,100
9176,note_off,,,,,152,0,10,,,,,4,,,58,100
9176,note_off,,,,,152,0,9,,,,,3,,,70,100
9176,note_off,,,,,152,0,13,,,,,6,,,58,100
9212,note_off,,,,,92,0,12,,,,,6,,,67,100
9216,note_on,,,,,40,0,15,,,,,7,,,57,85
9216,note_on,,,,,116,0,14,,,,,7,,,72,85
9216,note_on,,,,,40,0,9,,,,,3,,,63,55
9216,note_on,,,,,4,0,12,,,,,6,,,60,100
9216,note_on,,,,,40,0,13,,,,,6,,,57,100
9216,note_on,,,,,40,0,8,,,,,1,,,72,55
9216,note_on,,,,,40,0,7,,,,,0,,,81,90
9216,note_on,,,,,40,0,10,,,,,4,,,57,55
9260,note_off,,,,,44,0,7,,,,,0,,,81,100
9264,note_on,,,,,4,0,7,,,,,0,,,79,90
9284,note_off,,,,,20,0,7,,,,,0,,,79,100
9288,note_on,,,,,4,0,7,,,,,0,,,81,89
9308,note_off,,,,,20,0,7,,,,,0,,,81,100
9308,note_off,,,,,92,0,12,,,,,6,,,60,100
9312,note_on,,,,,4,0,7,,,,,0,,,79,89
9312,note_on,,,,,4,0,12,,,,,6,,,63,100
9332,note_off,,,,,20,0,7,,,,,0,,,79,100
9336,note_on,,,,,4,0,7,,,,,0,,,81,88
9356,note_off,,,,,20,0,7,,,,,0,,,81,100
9360,note_on,,,,,4,0,7,,,,,0,,,79,88
9368,note_off,,,,,152,0,13,,,,,6,,,57,100
9368,note_off,,,,,152,0,10,,,,,4,,,57,100
9368,note_off,,,,,152,0,9,,,,,3,,,63,100
9368,note_off,,,,,152,0,15,,,,,7,,,57,100
9368,note_off,,,,,152,0,8,,,,,1,,,72,100
9380,note_off,,,,,20,0,7,,,,,0,,,79,100
9384,note_on,,,,,4,0,7,,,,,0,,,81,87
9404,note_off,,,,,20,0,7,,,,,0,,,81,100
9404,note_off,,,,,92,0,12,,,,,6,,,63,100
9408,note_on,,,,,4,0,12,,,,,6,,,67,100
9408,note_on,,,,,40,0,10,,,,,4,,,57,55
9408,note_on,,,,,40,0,8,,,,,1,,,72,55
9408,note_on,,,,,40,0,13,,,,,6,,,57,100
9408,note_on,,,,,40,0,15,,,,,7,,,57,85
9408,note_on,,,,,4,0,7,,,,,0,,,79,87
9408,note_on,,,,,40,0,9,,,,,3,,,63,55
9428,note_off,,,,,20,0,7,,,,,0,,,79,100
9432,note_on,,,,,4,0,7,,,,,0,,,81,87
9452,note_off,,,,,20,0,7,,,,,0,,,81,100
9456,note_on,,,,,4,0,7,,,,,0,,,79,86
9476,note_off,,,,,20,0,7,,,,,0,,,79,100
9480,note_on,,,,,4,0,7,,,,,0,,,81,86
9500,note_off,,,,,20,0,7,,,,,0,,,81,100
9500,note_off,,,,,92,0,12,,,,,6,,,67,100
9504,note_on,,,,,4,0,12,,,,,6,,,63,100
9504,note_on,,,,,4,0,7,,,,,0,,,79,85
9560,note_off,,,,,152,0,15,,,,,7,,,57,100
9560,note_off,,,,,152,0,8,,,,,1,,,72,100
9560,note_off,,,,,344,0,14,,,,,7,,,79,100
9560,note_off,,,,,152,0,13,,,,,6,,,57,100
9560,note_off,,,,,152,0,9,,,,,3,,,63,100
9560,note_off,,,,,152,0,10,,,,,4,,,57,100
9580,note_off,,,,,76,0,7,,,,,0,,,79,100
9596,note_off,,,,,92,0,12,,,,,6,,,63,100
9600,note_on,,,,,40,0,13,,,,,6,,,57,100
9600,note_on,,,,,40,0,14,,,,,7,,,78,85
9600,note_on,,,,,40,0,9,,,,,3,,,57,55
9600,note_on,,,,,40,0,10,,,,,4,,,57,55
9600,note_on,,,,,20,0,7,,,,,0,,,78,83
9600,note_on,,,,,40,0,8,,,,,1,,,72,55
9600,note_on,,,,,40,0,15,,,,,7,,,57,85
9600,note_on,,,,,4,0,12,,,,,6,,,60,100
9692,note_off,,,,,92,0,12,,,,,6,,,60,100
9696,note_on,,,,,4,0,12,,,,,6,,,66,100
9752,note_off,,,,,152,0,10,,,,,4,,,57,100
9752,note_off,,,,,152,0,8,,,,,1,,,72,100
9752,note_off,,,,,152,0,15,,,,,7,,,57,100
9752,note_off,,,,,152,0,9,,,,,3,,,57,100
9752,note_off,,,,,152,0,13,,,,,6,,,57,100
9788,note_off,,,,,92,0,12,,,,,6,,,66,100
9792,note_on,,,,,40,0,10,,,,,4,,,57,55
9792,note_on,,,,,40,0,9,,,,,3,,,57,55
9792,note_on,,,,,40,0,8,,,,,1,,,72,55
9792,note_on,,,,,40,0,13,,,,,6,,,57,100
9792,note_on,,,,,4,0,12,,,,,6,,,69,100
9792,note_on,,,,,40,0,15,,,,,7,,,57,85
9856,note_off,,,,,256,0,7,,,,,0,,,78,100
9884,note_off,,,,,92,0,12,,,,,6,,,69,100
9888,note_on,,,,,4,0,12,,,,,6,,,66,100
9888,note_on,,,,,32,0,7,,,,,0,,,78,85
9944,note_off,,,,,152,0,8,,,,,1,,,72,100
9944,note_off,,,,,152,0,15,,,,,7,,,57,100
9944,note_off,,,,,152,0,10,,,,,4,,,57,100
9944,note_off,,,,,152,0,9,,,,,3,,,57,100
9944,note_off,,,,,152,0,13,,,,,6,,,57,100
9944,note_off,,,,,344,0,14,,,,,7,,,78,100
9964,note_off,,,,,76,0,7,,,,,0,,,78,100
9980,note_off,,,,,92,0,12,,,,,6,,,66,100
9984,note_on,,,,,40,0,9,,,,,3,,,62,55
9984,note_on,,,,,20,0,7,,,,,0,,,79,86
9984,note_on,,,,,40,0,13,,,,,6,,,57,100
9984,note_on,,,,,40,0,14,,,,,7,,,74,85
9984,note_on,,,,,4,0,12,,,,,6,,,60,100
9984,note_on,,,,,40,0,10,,,,,4,,,57,55
9984,note_on,,,,,40,0,15,,,,,7,,,57,85
9984,note_on,,,,,40,0,8,,,,,1,,,72,55
10076,note_off,,,,,92,0,12,,,,,6,,,60,100
10080,note_on,,,,,4,0,12,,,,,6,,,66,100
10136,note_off,,,,,152,0,15,,,,,7,,,57,100
10136,note_off,,,,,152,0,13,,,,,6,,,57,100
10136,note_off,,,,,152,0,10,,,,,4,,,57,100
10136,note_off,,,,,152,0,8,,,,,1,,,72,100
10136,note_off,,,,,152,0,9,,,,,3,,,62,100
10172,note_off,,,,,92,0,12,,,,,6,,,66,100
10176,note_on,,,,,40,0,8,,,,,1,,,72,55
10176,note_on,,,,,40,0,13,,,,,6,,,57,100
10176,note_on,,,,,4,0,12,,,,,6,,,69,100
10176,note_on,,,,,40,0,10,,,,,4,,,57,55
10176,note_on,,,,,40,0,15,,,,,7,,,57,85
10176,note_on,,,,,40,0,9,,,,,3,,,62,55
10240,note_off,,,,,256,0,7,,,,,0,,,79,100
10252,note_off,,,,,268,0,14,,,,,7,,,72,100
10268,note_off,,,,,92,0,12,,,,,6,,,69,100
10272,note_on,,,,,32,0,7,,,,,0,,,81,89
10272,note_on,,,,,4,0,12,,,,,6,,,66,100
10328,note_off,,,,,152,0,8,,,,,1,,,72,100
10328,note_off,,,,,76,0,14,,,,,7,,,74,100
10328,note_off,,,,,152,0,13,,,,,6,,,57,100
10328,note_off,,,,,152,0,10,,,,,4,,,57,100
10328,note_off,,,,,152,0,9,,,,,3,,,62,100
10328,note_off,,,,,152,0,15,,,,,7,,,57,100
10348,note_off,,,,,76,0,7,,,,,0,,,81,100
10364,note_off,,,,,92,0,12,,,,,6,,,66,100
10368,note_on,,,,,40,0,8,,,,,1,,,70,55
10368,note_on,,,,,40,0,9,,,,,3,,,62,55
10368,note_on,,,,,40,0,10,,,,,4,,,55,55
10368,note_on,,,,,4,0,12,,,,,6,,,58,100
10368,note_on,,,,,20,0,7,,,,,0,,,82,90
10368,note_on,,,,,40,0,14,,,,,7,,,70,85
10368,note_on,,,,,0,0,14,,,,,7,,,79,85
10368,note_on,,,,,40,0,15,,,,,7,,,55,85
10368,note_on,,,,,40,0,13,,,,,6,,,55,100
10460,note_off,,,,,92,0,12,,,,,6,,,58,100
10464,note_on,,,,,4,0,12,,,,,6,,,62,100
10520,note_off,,,,,152,0,15,,,,,7,,,55,100
10520,note_off,,,,,152,0,13,,,,,6,,,55,100
10520,note_off,,,,,152,0,10,,,,,4,,,55,100
10520,note_off,,,,,152,0,9,,,,,3,,,62,100
10520,note_off,,,,,152,0,8,,,,,1,,,70,100
10556,note_off,,,,,188,0,7,,,,,0,,,82,100
10556,note_off,,,,,92,0,12,,,,,6,,,62,100
10560,note_on,,,,,40,0,8,,,,,1,,,70,55
10560,note_on,,,,,40,0,9,,,,,3,,,62,55
10560,note_on,,,,,4,0,7,,,,,0,,,79,87
10560,note_on,,,,,4,0,12,,,,,6,,,67,100
10560,note_on,,,,,40,0,15,,,,,7,,,55,85
10560,note_on,,,,,40,0,13,,,,,6,,,55,100
10560,note_on,,,,,40,0,10,,,,,4,,,55,55
10652,note_off,,,,,92,0,12,,,,,6,,,67,100
10656,note_on,,,,,4,0,12,,,,,6,,,62,100
10712,note_off,,,,,152,0,13,,,,,6,,,55,100
10712,note_off,,,,,152,0,15,,,,,7,,,55,100
10712,note_off,,,,,152,0,10,,,,,4,,,55,100
10712,note_off,,,,,152,0,7,,,,,0,,,79,100
10712,note_off,,,,,152,0,8,,,,,1,,,70,100
10712,note_off,,,,,152,0,9,,,,,3,,,62,100
10712,note_off,,,,,344,0,14,,,,,7,,,70,100
10748,note_off,,,,,92,0,12,,,,,6,,,62,100
10752,note_on,,,,,4,0,12,,,,,6,,,58,100
10752,note_on,,,,,40,0,15,,,,,7,,,55,85
10752,note_on,,,,,40,0,13,,,,,6,,,55,100
10752,note_on,,,,,40,0,10,,,,,4,,,55,55
10752,note_on,,,,,40,0,9,,,,,3,,,63,55
10752,note_on,,,,,40,0,14,,,,,7,,,75,85
10752,note_on,,,,,40,0,7,,,,,0,,,75,83
10752,note_on,,,,,40,0,8,,,,,1,,,70,55
10844,note_off,,,,,92,0,12,,,,,6,,,58,100
10848,note_on,,,,,4,0,12,,,,,6,,,63,100
10904,note_off,,,,,152,0,8,,,,,1,,,70,100
10904,note_off,,,,,152,0,15,,,,,7,,,55,100
10904,note_off,,,,,152,0,10,,,,,4,,,55,100
10904,note_off,,,,,152,0,13,,,,,6,,,55,100
10904,note_off,,,,,152,0,9,,,,,3,,,63,100
10940,note_off,,,,,92,0,12,,,,,6,,,63,100
10944,note_on,,,,,40,0,15,,,,,7,,,55,85
10944,note_on,,,,,4,0,12,,,,,6,,,67,100
10944,note_on,,,,,40,0,10,,,,,4,,,55,55
10944,note_on,,,,,40,0,9,,,,,3,,,63,55
10944,note_on,,,,,40,0,13,,,,,6,,,55,100
10944,note_on,,,,,40,0,8,,,,,1,,,70,55
11036,note_off,,,,,92,0,12,,,,,6,,,67,100
11040,note_on,,,,,4,0,12,,,,,6,,,63,100
11096,note_off,,,,,152,0,13,,,,,6,,,55,100
11096,note_off,,,,,152,0,9,,,,,3,,,63,100
11096,note_off,,,,,152,0,10,,,,,4,,,55,100
11096,note_off,,,,,152,0,8,,,,,1,,,70,100
11096,note_off,,,,,152,0,15,,,,,7,,,55,100
11132,note_off,,,,,92,0,12,,,,,6,,,63,100
11136,note_on,,,,,40,0,9,,,,,3,,,58,55
11136,note_on,,,,,40,0,8,,,,,1,,,70,55
11136,note_on,,,,,40,0,13,,,,,6,,,55,100
11136,note_on,,,,,384,0,14,,,,,7,,,82,85
11136,note_on,,,,,40,0,10,,,,,4,,,55,55
11136,note_on,,,,,40,0,15,,,,,7,,,55,85
11136,note_on,,,,,4,0,12,,,,,6,,,58,100
11228,note_off,,,,,92,0,12,,,,,6,,,58,100
11232,note_on,,,,,4,0,12,,,,,6,,,63,100
11268,note_off,,,,,516,0,7,,,,,0,,,75,100
11288,note_off,,,,,152,0,9,,,,,3,,,58,100
11288,note_off,,,,,152,0,15,,,,,7,,,55,100
11288,note_off,,,,,152,0,13,,,,,6,,,55,100
11288,note_off,,,,,152,0,8,,,,,1,,,70,100
11288,note_off,,,,,152,0,10,,,,,4,,,55,100
11324,note_off,,,,,92,0,12,,,,,6,,,63,100
11328,note_on,,,,,60,0,7,,,,,0,,,75,88
11328,note_on,,,,,40,0,9,,,,,3,,,58,55
11328,note_on,,,,,40,0,13,,,,,6,,,55,100
11328,note_on,,,,,40,0,15,,,,,7,,,55,85
11328,note_on,,,,,40,0,10,,,,,4,,,55,55
11328,note_on,,,,,40,0,8,,,,,1,,,70,55
11328,note_on,,,,,4,0,12,,,,,6,,,67,100
11404,note_off,,,,,268,0,14,,,,,7,,,79,100
11420,note_off,,,,,92,0,12,,,,,6,,,67,100
11424,note_on,,,,,4,0,12,,,,,6,,,63,100
11480,note_off,,,,,152,0,13,,,,,6,,,55,100
11480,note_off,,,,,152,0,10,,,,,4,,,55,100
11480,note_off,,,,,152,0,15,,,,,7,,,55,100
11480,note_off,,,,,152,0,9,,,,,3,,,58,100
11480,note_off,,,,,152,0,8,,,,,1,,,70,100
11480,note_off,,,,,152,0,7,,,,,0,,,75,100
11480,note_off,,,,,76,0,14,,,,,7,,,82,100
11516,note_off,,,,,92,0,12,,,,,6,,,63,100
11520,note_on,,,,,40,0,13,,,,,6,,,54,100
11520,note_on,,,,,40,0,9,,,,,3,,,60,55
11520,note_on,,,,,40,0,14,,,,,7,,,81,85
11520,note_on,,,,,4,0,12,,,,,6,,,57,100
11520,note_on,,,,,40,0,7,,,,,0,,,77,86
11520,note_on,,,,,40,0,10,,,,,4,,,54,55
11520,note_on,,,,,40,0,15,,,,,7,,,54,85
11520,note_on,,,,,40,0,8,,,,,1,,,69,55
11564,note_off,,,,,44,0,7,,,,,0,,,77,100
11568,note_on,,,,,4,0,7,,,,,0,,,75,85
11588,note_off,,,,,20,0,7,,,,,0,,,75,100
11592,note_on,,,,,4,0,7,,,,,0,,,77,85
11612,note_off,,,,,92,0,12,,,,,6,,,57,100
11612,note_off,,,,,20,0,7,,,,,0,,,77,100
11616,note_on,,,,,4,0,12,,,,,6,,,60,100
11616,note_on,,,,,4,0,7,,,,,0,,,75,85
11636,note_off,,,,,20,0,7,,,,,0,,,75,100
11640,note_on,,,,,4,0,7,,,,,0,,,77,84
11660,note_off,,,,,20,0,7,,,,,0,,,77,100
11664,note_on,,,,,4,0,7,,,,,0,,,75,84
11672,note_off,,,,,152,0,9,,,,,3,,,60,100
11672,note_off,,,,,152,0,15,,,,,7,,,54,100
11672,note_off,,,,,152,0,10,,,,,4,,,54,100
11672,note_off,,,,,152,0,8,,,,,1,,,69,100
11672,note_off,,,,,152,0,13,,,,,6,,,54,100
11684,note_off,,,,,20,0,7,,,,,0,,,75,100
11688,note_on,,,,,4,0,7,,,,,0,,,77,84
11708,note_off,,,,,92,0,12,,,,,6,,,60,100
11708,note_off,,,,,20,0,7,,,,,0,,,77,100
11712,note_on,,,,,40,0,15,,,,,7,,,54,85
11712,note_on,,,,,40,0,8,,,,,1,,,69,55
11712,note_on,,,,,40,0,10,,,,,4,,,54,55
11712,note_on,,,,,4,0,7,,,,,0,,,75,83
11712,note_on,,,,,40,0,9,,,,,3,,,60,55
11712,note_on,,,,,4,0,12,,,,,6,,,63,100
11712,note_on,,,,,40,0,13,,,,,6,,,54,100
11732,note_off,,,,,20,0,7,,,,,0,,,75,100
11736,note_on,,,,,4,0,7,,,,,0,,,77,83
11756,note_off,,,,,20,0,7,,,,,0,,,77,100
11760,note_on,,,,,4,0,7,,,,,0,,,75,83
11780,note_off,,,,,20,0,7,,,,,0,,,75,100
11784,note_on,,,,,4,0,7,,,,,0,,,77,82
11804,note_off,,,,,20,0,7,,,,,0,,,77,100
11804,note_off,,,,,92,0,12,,,,,6,,,63,100
11808,note_on,,,,,4,0,12,,,,,6,,,60,100
11808,note_on,,,,,4,0,7,,,,,0,,,75,82
11864,note_off,,,,,152,0,10,,,,,4,,,54,100
11864,note_off,,,,,152,0,13,,,,,6,,,54,100
11864,note_off,,,,,152,0,8,,,,,1,,,69,100
11864,note_off,,,,,152,0,15,,,,,7,,,54,100
11864,note_off,,,,,152,0,9,,,,,3,,,60,100
11864,note_off,,,,,344,0,14,,,,,7,,,75,100
11884,note_off,,,,,76,0,7,,,,,0,,,75,100
11900,note_off,,,,,92,0,12,,,,,6,,,60,100
11904,note_on,,,,,20,0,7,,,,,0,,,74,81
11904,note_on,,,,,4,0,12,,,,,6,,,57,100
11904,note_on,,,,,40,0,9,,,,,3,,,62,55
11904,note_on,,,,,40,0,8,,,,,1,,,69,55
11904,note_on,,,,,40,0,15,,,,,7,,,53,85
11904,note_on,,,,,40,0,14,,,,,7,,,74,85
11904,note_on,,,,,40,0,10,,,,,4,,,53,55
11904,note_on,,,,,40,0,13,,,,,6,,,53,100
11996,note_off,,,,,92,0,12,,,,,6,,,57,100
12000,note_on,,,,,4,0,12,,,,,6,,,62,100
12056,note_off,,,,,152,0,9,,,,,3,,,62,100
12056,note_off,,,,,152,0,15,,,,,7,,,53,100
12056,note_off,,,,,152,0,8,,,,,1,,,69,100
12056,note_off,,,,,152,0,13,,,,,6,,,53,100
12056,note_off,,,,,152,0,10,,,,,4,,,53,100
12092,note_off,,,,,92,0,12,,,,,6,,,62,100
12096,note_on,,,,,4,0,12,,,,,6,,,65,100
12096,note_on,,,,,40,0,15,,,,,7,,,53,85
12096,note_on,,,,,40,0,9,,,,,3,,,62,55
12096,note_on,,,,,40,0,8,,,,,1,,,69,55
12096,note_on,,,,,40,0,10,,,,,4,,,53,55
12096,note_on,,,,,40,0,13,,,,,6,,,53,100
12188,note_off,,,,,92,0,12,,,,,6,,,65,100
12192,note_on,,,,,4,0,12,,,,,6,,,62,100
12248,note_off,,,,,152,0,9,,,,,3,,,62,100
12248,note_off,,,,,152,0,15,,,,,7,,,53,100
12248,note_off,,,,,152,0,8,,,,,1,,,69,100
12248,note_off,,,,,152,0,13,,,,,6,,,53,100
12248,note_off,,,,,152,0,10,,,,,4,,,53,100
12284,note_off,,,,,92,0,12,,,,,6,,,62,100
12288,note_on,,,,,40,0,13,,,,,6,,,53,100
12288,note_on,,,,,40,0,15,,,,,7,,,53,85
12288,note_on,,,,,40,0,9,,,,,3,,,62,55
12288,note_on,,,,,40,0,8,,,,,1,,,69,55
12288,note_on,,,,,40,0,10,,,,,4,,,53,55
12288,note_on,,,,,4,0,12,,,,,6,,,57,100
12380,note_off,,,,,92,0,12,,,,,6,,,57,100
12384,note_on,,,,,4,0,12,,,,,6,,,62,100
12420,note_off,,,,,516,0,7,,,,,0,,,74,100
12440,note_off,,,,,152,0,10,,,,,4,,,53,100
12440,note_off,,,,,152,0,13,,,,,6,,,53,100
12440,note_off,,,,,152,0,8,,,,,1,,,69,100
12440,note_off,,,,,152,0,15,,,,,7,,,53,100
12440,note_off,,,,,152,0,9,,,,,3,,,62,100
12476,note_off,,,,,92,0,12,,,,,6,,,62,100
12480,note_on,,,,,40,0,10,,,,,4,,,53,55
12480,note_on,,,,,40,0,8,,,,,1,,,69,55
12480,note_on,,,,,60,0,7,,,,,0,,,74,85
12480,note_on,,,,,40,0,15,,,,,7,,,53,85
12480,note_on,,,,,4,0,12,,,,,6,,,65,100
12480,note_on,,,,,40,0,9,,,,,3,,,62,55
12480,note_on,,,,,40,0,13,,,,,6,,,53,100
12556,note_off,,,,,652,0,14,,,,,7,,,81,100
12572,note_off,,,,,92,0,12,,,,,6,,,65,100
12576,note_on,,,,,4,0,12,,,,,6,,,62,100
12632,note_off,,,,,152,0,9,,,,,3,,,62,100
12632,note_off,,,,,152,0,15,,,,,7,,,53,100
12632,note_off,,,,,152,0,8,,,,,1,,,69,100
12632,note_off,,,,,152,0,10,,,,,4,,,53,100
12632,note_off,,,,,152,0,13,,,,,6,,,53,100
12632,note_off,,,,,152,0,7,,,,,0,,,74,100
12668,note_off,,,,,92,0,12,,,,,6,,,62,100
12672,note_on,,,,,40,0,9,,,,,3,,,62,55
12672,note_on,,,,,40,0,8,,,,,1,,,70,55
12672,note_on,,,,,4,0,12,,,,,6,,,55,100
12672,note_on,,,,,40,0,7,,,,,0,,,79,90
12672,note_on,,,,,116,0,14,,,,,7,,,79,85
12672,note_on,,,,,40,0,13,,,,,6,,,52,100
12672,note_on,,,,,40,0,10,,,,,4,,,52,55
12672,note_on,,,,,40,0,15,,,,,7,,,52,85
12764,note_off,,,,,92,0,12,,,,,6,,,55,100
12768,note_on,,,,,4,0,12,,,,,6,,,58,100
12824,note_off,,,,,152,0,10,,,,,4,,,52,100
12824,note_off,,,,,152,0,15,,,,,7,,,52,100
12824,note_off,,,,,152,0,13,,,,,6,,,52,100
12824,note_off,,,,,152,0,8,,,,,1,,,70,100
12824,note_off,,,,,152,0,9,,,,,3,,,62,100
12860,note_off,,,,,92,0,12,,,,,6,,,58,100
12860,note_off,,,,,188,0,7,,,,,0,,,79,100
12864,note_on,,,,,40,0,15,,,,,7,,,52,85
12864,note_on,,,,,40,0,10,,,,,4,,,52,55
12864,note_on,,,,,4,0,12,,,,,6,,,62,100
12864,note_on,,,,,40,0,13,,,,,6,,,52,100
12864,note_on,,,,,40,0,8,,,,,1,,,70,55
12864,note_on,,,,,4,0,7,,,,,0,,,81,89
12864,note_on,,,,,40,0,9,,,,,3,,,62,55
12940,note_off,,,,,76,0,7,,,,,0,,,81,100
12956,note_off,,,,,92,0,12,,,,,6,,,62,100
12960,note_on,,,,,20,0,7,,,,,0,,,82,88
12960,note_on,,,,,4,0,12,,,,,6,,,58,100
13016,note_off,,,,,344,0,14,,,,,7,,,74,100
13016,note_off,,,,,152,0,13,,,,,6,,,52,100
13016,note_off,,,,,152,0,8,,,,,1,,,70,100
13016,note_off,,,,,152,0,10,,,,,4,,,52,100
13016,note_off,,,,,152,0,15,,,,,7,,,52,100
13016,note_off,,,,,152,0,9,,,,,3,,,62,100
13036,note_off,,,,,76,0,7,,,,,0,,,82,100
13052,note_off,,,,,92,0,12,,,,,6,,,58,100
13056,note_on,,,,,40,0,8,,,,,1,,,67,55
13056,note_on,,,,,40,0,14,,,,,7,,,73,85
13056,note_on,,,,,40,0,15,,,,,7,,,52,85
13056,note_on,,,,,40,0,10,,,,,4,,,52,55
13056,note_on,,,,,40,0,9,,,,,3,,,61,55
13056,note_on,,,,,40,0,13,,,,,6,,,52,100
13056,note_on,,,,,4,0,12,,,,,6,,,55,100
13056,note_on,,,,,20,0,7,,,,,0,,,76,87
13148,note_off,,,,,92,0,12,,,,,6,,,55,100
13152,note_on,,,,,4,0,12,,,,,6,,,61,100
13208,note_off,,,,,152,0,9,,,,,3,,,61,100
13208,note_off,,,,,152,0,10,,,,,4,,,52,100
13208,note_off,,,,,152,0,14,,,,,7,,,73,100
13208,note_off,,,,,152,0,15,,,,,7,,,52,100
13208,note_off,,,,,152,0,13,,,,,6,,,52,100
13208,note_off,,,,,152,0,8,,,,,1,,,67,100
13244,note_off,,,,,188,0,7,,,,,0,,,76,100
13244,note_off,,,,,92,0,12,,,,,6,,,61,100
13248,note_on,,,,,40,0,14,,,,,7,,,74,85
13248,note_on,,,,,4,0,12,,,,,6,,,64,100
13248,note_on,,,,,40,0,9,,,,,3,,,61,55
13248,note_on,,,,,40,0,15,,,,,7,,,52,85
13248,note_on,,,,,4,0,7,,,,,0,,,77,85
13248,note_on,,,,,40,0,10,,,,,4,,,52,55
13248,note_on,,,,,40,0,8,,,,,1,,,67,55
13248,note_on,,,,,40,0,13,,,,,6,,,52,100
13324,note_off,,,,,76,0,7,,,,,0,,,77,100
13340,note_off,,,,,92,0,12,,,,,6,,,64,100
13344,note_on,,,,,20,0,7,,,,,0,,,79,84
13344,note_on,,,,,4,0,12,,,,,6,,,61,100
13400,note_off,,,,,152,0,15,,,,,7,,,52,100
13400,note_off,,,,,152,0,8,,,,,1,,,67,100
13400,note_off,,,,,152,0,13,,,,,6,,,52,100
13400,note_off,,,,,152,0,10,,,,,4,,,52,100
13400,note_off,,,,,152,0,9,,,,,3,,,61,100
13400,note_off,,,,,152,0,14,,,,,7,,,74,100
13420,note_off,,,,,76,0,7,,,,,0,,,79,100
13436,note_off,,,,,92,0,12,,,,,6,,,61,100
13440,note_on,,,,,40,0,15,,,,,7,,,52,85
13440,note_on,,,,,4,0,12,,,,,6,,,55,100
13440,note_on,,,,,20,0,7,,,,,0,,,73,83
13440,note_on,,,,,40,0,10,,,,,4,,,52,55
13440,note_on,,,,,40,0,14,,,,,7,,,76,85
13440,note_on,,,,,40,0,8,,,,,1,,,67,55
13440,note_on,,,,,40,0,9,,,,,3,,,64,55
13440,note_on,,,,,40,0,13,,,,,6,,,52,100
13532,note_off,,,,,92,0,12,,,,,6,,,55,100
13536,note_on,,,,,4,0,12,,,,,6,,,61,100
13592,note_off,,,,,152,0,14,,,,,7,,,76,100
13592,note_off,,,,,152,0,15,,,,,7,,,52,100
13592,note_off,,,,,152,0,9,,,,,3,,,64,100
13592,note_off,,,,,152,0,8,,,,,1,,,67,100
13592,note_off,,,,,152,0,13,,,,,6,,,52,100
13592,note_off,,,,,152,0,10,,,,,4,,,52,100
13628,note_off,,,,,188,0,7,,,,,0,,,73,100
13628,note_off,,,,,92,0,12,,,,,6,,,61,100
13632,note_on,,,,,40,0,15,,,,,7,,,52,85
13632,note_on,,,,,40,0,8,,,,,1,,,67,55
13632,note_on,,,,,40,0,9,,,,,3,,,64,55
13632,note_on,,,,,40,0,10,,,,,4,,,52,55
13632,note_on,,,,,40,0,14,,,,,7,,,69,85
13632,note_on,,,,,40,0,13,,,,,6,,,52,100
13632,note_on,,,,,4,0,12,,,,,6,,,64,100
13632,note_on,,,,,4,0,7,,,,,0,,,74,81
13708,note_off,,,,,76,0,14,,,,,7,,,79,100
13708,note_off,,,,,76,0,7,,,,,0,,,74,100
13724,note_off,,,,,92,0,12,,,,,6,,,64,100
13728,note_on,,,,,4,0,12,,,,,6,,,61,100
13728,note_on,,,,,20,0,7,,,,,0,,,76,81
13784,note_off,,,,,152,0,13,,,,,6,,,52,100
13784,note_off,,,,,152,0,15,,,,,7,,,52,100
13784,note_off,,,,,76,0,14,,,,,7,,,69,100
13784,note_off,,,,,152,0,10,,,,,4,,,52,100
13784,note_off,,,,,152,0,9,,,,,3,,,64,100
13784,note_off,,,,,152,0,8,,,,,1,,,67,100
13804,note_off,,,,,76,0,7,,,,,0,,,76,100
13820,note_off,,,,,92,0,12,,,,,6,,,61,100
13824,note_on,,,,,40,0,8,,,,,1,,,69,55
13824,note_on,,,,,40,0,10,,,,,4,,,50,55
13824,note_on,,,,,40,0,9,,,,,3,,,57,55
13824,note_on,,,,,40,0,14,,,,,7,,,74,85
13824,note_on,,,,,40,0,15,,,,,7,,,50,85
13824,note_on,,,,,20,0,7,,,,,0,,,77,85
13824,note_on,,,,,0,0,14,,,,,7,,,77,85
13824,note_on,,,,,4,0,12,,,,,6,,,57,100
13824,note_on,,,,,40,0,13,,,,,6,,,50,100
13916,note_off,,,,,92,0,12,,,,,6,,,57,100
13920,note_on,,,,,4,0,12,,,,,6,,,62,100
13976,note_off,,,,,152,0,10,,,,,4,,,50,100
13976,note_off,,,,,152,0,15,,,,,7,,,50,100
13976,note_off,,,,,152,0,8,,,,,1,,,69,100
13976,note_off,,,,,152,0,13,,,,,6,,,50,100
13976,note_off,,,,,152,0,7,,,,,0,,,77,100
14012,note_off,,,,,92,0,12,,,,,6,,,62,100
14012,note_off,,,,,188,0,9,,,,,3,,,57,100
14016,note_on,,,,,40,0,10,,,,,4,,,50,55
14016,note_on,,,,,40,0,13,,,,,6,,,50,100
14016,note_on,,,,,40,0,7,,,,,0,,,76,82
14016,note_on,,,,,4,0,9,,,,,3,,,65,55
14016,note_on,,,,,40,0,15,,,,,7,,,50,85
14016,note_on,,,,,40,0,8,,,,,1,,,69,55
14016,note_on,,,,,4,0,12,,,,,6,,,65,100
14092,note_off,,,,,76,0,7,,,,,0,,,76,100
14108,note_off,,,,,92,0,12,,,,,6,,,65,100
14112,note_on,,,,,20,0,7,,,,,0,,,74,81
14112,note_on,,,,,4,0,12,,,,,6,,,62,100
14168,note_off,,,,,152,0,10,,,,,4,,,50,100
14168,note_off,,,,,152,0,13,,,,,6,,,50,100
14168,note_off,,,,,152,0,8,,,,,1,,,69,100
14168,note_off,,,,,152,0,9,,,,,3,,,65,100
14168,note_off,,,,,152,0,15,,,,,7,,,50,100
14188,note_off,,,,,76,0,7,,,,,0,,,74,100
14204,note_off,,,,,92,0,12,,,,,6,,,62,100
14208,note_on,,,,,40,0,8,,,,,1,,,69,55
14208,note_on,,,,,4,0,12,,,,,6,,,57,100
14208,note_on,,,,,20,0,7,,,,,0,,,81,88
14208,note_on,,,,,40,0,15,,,,,7,,,50,85
14208,note_on,,,,,40,0,13,,,,,6,,,50,100
14208,note_on,,,,,40,0,9,,,,,3,,,65,55
14208,note_on,,,,,40,0,10,,,,,4,,,50,55
14300,note_off,,,,,92,0,12,,,,,6,,,57,100
14300,note_off,,,,,92,0,7,,,,,0,,,81,100
14304,note_on,,,,,4,0,12,,,,,6,,,62,100
14304,note_on,,,,,4,0,7,,,,,0,,,77,87
14360,note_off,,,,,152,0,10,,,,,4,,,50,100
14360,note_off,,,,,152,0,8,,,,,1,,,69,100
14360,note_off,,,,,152,0,15,,,,,7,,,50,100
14360,note_off,,,,,152,0,9,,,,,3,,,65,100
14360,note_off,,,,,152,0,13,,,,,6,,,50,100
14396,note_off,,,,,92,0,7,,,,,0,,,77,100
14396,note_off,,,,,92,0,12,,,,,6,,,62,100
14400,note_on,,,,,4,0,12,,,,,6,,,65,100
14400,note_on,,,,,40,0,13,,,,,6,,,50,100
14400,note_on,,,,,40,0,8,,,,,1,,,69,55
14400,note_on,,,,,40,0,9,,,,,3,,,65,55
14400,note_on,,,,,40,0,15,,,,,7,,,50,85
14400,note_on,,,,,4,0,7,,,,,0,,,76,85
14400,note_on,,,,,40,0,10,,,,,4,,,50,55
14492,note_off,,,,,92,0,12,,,,,6,,,65,100
14492,note_off,,,,,92,0,7,,,,,0,,,76,100
14496,note_on,,,,,4,0,12,,,,,6,,,62,100
14496,note_on,,,,,4,0,7,,,,,0,,,77,84
14512,note_off,,,,,688,0,14,,,,,7,,,74,100
14512,note_off,,,,,0,0,14,,,,,7,,,77,100
14552,note_off,,,,,152,0,15,,,,,7,,,50,100
14552,note_off,,,,,152,0,8,,,,,1,,,69,100
14552,note_off,,,,,152,0,13,,,,,6,,,50,100
14552,note_off,,,,,152,0,9,,,,,3,,,65,100
14552,note_off,,,,,152,0,10,,,,,4,,,50,100
14572,note_off,,,,,76,0,7,,,,,0,,,77,100
14588,note_off,,,,,92,0,12,,,,,6,,,62,100
14592,note_on,,,,,20,0,7,,,,,0,,,82,90
14592,note_on,,,,,80,0,14,,,,,7,,,70,85
14592,note_on,,,,,40,0,15,,,,,7,,,55,85
14592,note_on,,,,,40,0,9,,,,,3,,,62,55
14592,note_on,,,,,40,0,10,,,,,4,,,55,55
14592,note_on,,,,,4,0,12,,,,,6,,,58,100
14592,note_on,,,,,40,0,8,,,,,1,,,67,55
14592,note_on,,,,,0,0,14,,,,,7,,,79,85
14592,note_on,,,,,40,0,13,,,,,6,,,55,100
14684,note_off,,,,,92,0,12,,,,,6,,,58,100
14688,note_on,,,,,4,0,12,,,,,6,,,62,100
14744,note_off,,,,,152,0,15,,,,,7,,,55,100
14744,note_off,,,,,152,0,13,,,,,6,,,55,100
14744,note_off,,,,,152,0,7,,,,,0,,,82,100
14744,note_off,,,,,152,0,8,,,,,1,,,67,100
14744,note_off,,,,,152,0,10,,,,,4,,,55,100
14780,note_off,,,,,188,0,9,,,,,3,,,62,100
14780,note_off,,,,,92,0,12,,,,,6,,,62,100
14784,note_on,,,,,4,0,9,,,,,3,,,58,55
14784,note_on,,,,,40,0,8,,,,,1,,,67,55
14784,note_on,,,,,40,0,10,,,,,4,,,55,55
14784,note_on,,,,,4,0,12,,,,,6,,,67,100
14784,note_on,,,,,40,0,13,,,,,6,,,55,100
14784,note_on,,,,,40,0,15,,,,,7,,,55,85
14784,note_on,,,,,40,0,7,,,,,0,,,74,86
14876,note_off,,,,,92,0,12,,,,,6,,,67,100
14880,note_on,,,,,4,0,12,,,,,6,,,62,100
14936,note_off,,,,,152,0,7,,,,,0,,,74,100
14936,note_off,,,,,152,0,8,,,,,1,,,67,100
14936,note_off,,,,,152,0,10,,,,,4,,,55,100
14936,note_off,,,,,152,0,13,,,,,6,,,55,100
14936,note_off,,,,,344,0,14,,,,,7,,,70,100
14936,note_off,,,,,0,0,14,,,,,7,,,79,100
14936,note_off,,,,,152,0,9,,,,,3,,,58,100
14936,note_off,,,,,152,0,15,,,,,7,,,55,100
14972,note_off,,,,,92,0,12,,,,,6,,,62,100
14976,note_on,,,,,4,0,12,,,,,6,,,61,100
14976,note_on,,,,,40,0,14,,,,,7,,,73,85
14976,note_on,,,,,0,0,14,,,,,7,,,69,85
14976,note_on,,,,,40,0,15,,,,,7,,,57,85
14976,note_on,,,,,40,0,13,,,,,6,,,57,100
14976,note_on,,,,,40,0,10,,,,,4,,,57,55
14976,note_on,,,,,40,0,9,,,,,3,,,57,55
14976,note_on,,,,,40,0,8,,,,,1,,,64,55
14976,note_on,,,,,40,0,7,,,,,0,,,74,90
15068,note_off,,,,,92,0,7,,,,,0,,,74,100
15068,note_off,,,,,92,0,12,,,,,6,,,61,100
15072,note_on,,,,,4,0,7,,,,,0,,,73,89
15072,note_on,,,,,4,0,12,,,,,6,,,64,100
15116,note_off,,,,,44,0,7,,,,,0,,,73,100
15120,note_on,,,,,4,0,7,,,,,0,,,74,88
15128,note_off,,,,,152,0,15,,,,,7,,,57,100
15128,note_off,,,,,152,0,13,,,,,6,,,57,100
15128,note_off,,,,,152,0,9,,,,,3,,,57,100
15128,note_off,,,,,152,0,8,,,,,1,,,64,100
15128,note_off,,,,,152,0,10,,,,,4,,,57,100
15164,note_off,,,,,44,0,7,,,,,0,,,74,100
15164,note_off,,,,,92,0,12,,,,,6,,,64,100
15168,note_on,,,,,40,0,15,,,,,7,,,57,85
15168,note_on,,,,,4,0,12,,,,,6,,,69,100
15168,note_on,,,,,40,0,9,,,,,3,,,57,55
15168,note_on,,,,,40,0,13,,,,,6,,,57,100
15168,note_on,,,,,40,0,10,,,,,4,,,57,55
15168,note_on,,,,,40,0,8,,,,,1,,,64,55
15168,note_on,,,,,4,0,7,,,,,0,,,73,87
15188,note_off,,,,,20,0,7,,,,,0,,,73,100
15192,note_on,,,,,4,0,7,,,,,0,,,74,87
15212,note_off,,,,,20,0,7,,,,,0,,,74,100
15216,note_on,,,,,4,0,7,,,,,0,,,73,86
15236,note_off,,,,,20,0,7,,,,,0,,,73,100
15240,note_on,,,,,4,0,7,,,,,0,,,74,86
15260,note_off,,,,,20,0,7,,,,,0,,,74,100
15260,note_off,,,,,92,0,12,,,,,6,,,69,100
15264,note_on,,,,,4,0,7,,,,,0,,,73,86
15264,note_on,,,,,4,0,12,,,,,6,,,64,100
15284,note_off,,,,,20,0,7,,,,,0,,,73,100
15288,note_on,,,,,4,0,7,,,,,0,,,74,85
15308,note_off,,,,,20,0,7,,,,,0,,,74,100
15312,note_on,,,,,4,0,7,,,,,0,,,73,85
15320,note_off,,,,,152,0,9,,,,,3,,,57,100
15320,note_off,,,,,344,0,14,,,,,7,,,73,100
15320,note_off,,,,,152,0,10,,,,,4,,,57,100
15320,note_off,,,,,152,0,15,,,,,7,,,57,100
15320,note_off,,,,,152,0,8,,,,,1,,,64,100
15320,note_off,,,,,152,0,13,,,,,6,,,57,100
15332,note_off,,,,,20,0,7,,,,,0,,,73,100
15336,note_on,,,,,4,0,7,,,,,0,,,74,84
15356,note_off,,,,,20,0,7,,,,,0,,,74,100
15356,note_off,,,,,92,0,12,,,,,6,,,64,100
15360,note_on,,,,,40,0,8,,,,,1,,,64,55
15360,note_on,,,,,40,0,10,,,,,4,,,55,55
15360,note_on,,,,,4,0,7,,,,,0,,,73,84
15360,note_on,,,,,40,0,13,,,,,6,,,55,100
15360,note_on,,,,,4,0,12,,,,,6,,,61,100
15360,note_on,,,,,40,0,15,,,,,7,,,55,85
15360,note_on,,,,,40,0,9,,,,,3,,,57,55
15360,note_on,,,,,40,0,14,,,,,7,,,76,85
15452,note_off,,,,,92,0,12,,,,,6,,,61,100
15456,note_on,,,,,4,0,12,,,,,6,,,64,100
15512,note_off,,,,,152,0,8,,,,,1,,,64,100
15512,note_off,,,,,152,0,13,,,,,6,,,55,100
15512,note_off,,,,,152,0,15,,,,,7,,,55,100
15512,note_off,,,,,152,0,10,,,,,4,,,55,100
15512,note_off,,,,,152,0,7,,,,,0,,,73,100
15512,note_off,,,,,152,0,9,,,,,3,,,57,100
15548,note_off,,,,,92,0,12,,,,,6,,,64,100
15552,note_on,,,,,40,0,8,,,,,1,,,64,55
15552,note_on,,,,,40,0,7,,,,,0,,,69,80
15552,note_on,,,,,40,0,13,,,,,6,,,55,100
15552,note_on,,,,,40,0,10,,,,,4,,,55,55
15552,note_on,,,,,40,0,9,,,,,3,,,57,55
15552,note_on,,,,,40,0,15,,,,,7,,,55,85
15552,note_on,,,,,4,0,12,,,,,6,,,69,100
15644,note_off,,,,,92,0,12,,,,,6,,,69,100
15648,note_on,,,,,4,0,12,,,,,6,,,64,100
15704,note_off,,,,,152,0,9,,,,,3,,,57,100
15704,note_off,,,,,152,0,15,,,,,7,,,55,100
15704,note_off,,,,,152,0,13,,,,,6,,,55,100
15704,note_off,,,,,152,0,10,,,,,4,,,55,100
15704,note_off,,,,,152,0,7,,,,,0,,,69,100
15704,note_off,,,,,152,0,8,,,,,1,,,64,100
15704,note_off,,,,,344,0,14,,,,,7,,,76,100
15740,note_off,,,,,92,0,12,,,,,6,,,64,100
15744,note_on,,,,,40,0,14,,,,,7,,,74,85
15744,note_on,,,,,40,0,7,,,,,0,,,74,82
15744,note_on,,,,,40,0,8,,,,,1,,,69,55
15744,note_on,,,,,40,0,9,,,,,3,,,65,55
15744,note_on,,,,,40,0,15,,,,,7,,,53,85
15744,note_on,,,,,40,0,13,,,,,6,,,53,100
15744,note_on,,,,,40,0,10,,,,,4,,,53,55
15744,note_on,,,,,4,0,12,,,,,6,,,62,100
15836,note_off,,,,,92,0,12,,,,,6,,,62,100
15840,note_on,,,,,4,0,12,,,,,6,,,65,100
15896,note_off,,,,,152,0,15,,,,,7,,,53,100
15896,note_off,,,,,152,0,8,,,,,1,,,69,100
15896,note_off,,,,,152,0,13,,,,,6,,,53,100
15896,note_off,,,,,152,0,10,,,,,4,,,53,100
15896,note_off,,,,,152,0,9,,,,,3,,,65,100
15932,note_off,,,,,92,0,12,,,,,6,,,65,100
15936,note_on,,,,,40,0,8,,,,,1,,,69,55
15936,note_on,,,,,4,0,12,,,,,6,,,69,100
15936,note_on,,,,,40,0,9,,,,,3,,,65,55
15936,note_on,,,,,40,0,15,,,,,7,,,53,85
15936,note_on,,,,,40,0,13,,,,,6,,,53,100
15936,note_on,,,,,40,0,10,,,,,4,,,53,55
16012,note_off,,,,,268,0,14,,,,,7,,,69,100
16028,note_off,,,,,92,0,12,,,,,6,,,69,100
16032,note_on,,,,,4,0,12,,,,,6,,,65,100
16088,note_off,,,,,344,0,7,,,,,0,,,74,100
16088,note_off,,,,,152,0,13,,,,,6,,,53,100
16088,note_off,,,,,152,0,15,,,,,7,,,53,100
16088,note_off,,,,,152,0,8,,,,,1,,,69,100
16088,note_off,,,,,152,0,10,,,,,4,,,53,100
16088,note_off,,,,,152,0,9,,,,,3,,,65,100
16124,note_off,,,,,92,0,12,,,,,6,,,65,100
16128,note_on,,,,,40,0,7,,,,,0,,,76,87
16128,note_on,,,,,116,0,14,,,,,7,,,70,85
16128,note_on,,,,,40,0,15,,,,,7,,,55,85
16128,note_on,,,,,40,0,9,,,,,3,,,65,55
16128,note_on,,,,,40,0,10,,,,,4,,,55,55
16128,note_on,,,,,40,0,13,,,,,6,,,55,100
16128,note_on,,,,,4,0,12,,,,,6,,,58,100
16128,note_on,,,,,40,0,8,,,,,1,,,70,55
16148,note_off,,,,,20,0,7,,,,,0,,,76,100
16152,note_on,,,,,4,0,7,,,,,0,,,74,87
16172,note_off,,,,,20,0,7,,,,,0,,,74,100
16176,note_on,,,,,4,0,7,,,,,0,,,76,87
16196,note_off,,,,,20,0,7,,,,,0,,,76,100
16200,note_on,,,,,4,0,7,,,,,0,,,74,88
16220,note_off,,,,,92,0,12,,,,,6,,,58,100
16220,note_off,,,,,20,0,7,,,,,0,,,74,100
16224,note_on,,,,,4,0,12,,,,,6,,,62,100
16224,note_on,,,,,4,0,7,,,,,0,,,73,88
16280,note_off,,,,,152,0,13,,,,,6,,,55,100
16280,note_off,,,,,152,0,8,,,,,1,,,70,100
16280,note_off,,,,,152,0,15,,,,,7,,,55,100
16280,note_off,,,,,152,0,9,,,,,3,,,65,100
16280,note_off,,,,,152,0,10,,,,,4,,,55,100
16316,note_off,,,,,92,0,7,,,,,0,,,73,100
16316,note_off,,,,,92,0,12,,,,,6,,,62,100
16320,note_on,,,,,4,0,7,,,,,0,,,74,89
16320,note_on,,,,,40,0,13,,,,,6,,,55,100
16320,note_on,,,,,40,0,15,,,,,7,,,55,85
16320,note_on,,,,,40,0,10,,,,,4,,,55,55
16320,note_on,,,,,40,0,8,,,,,1,,,70,55
16320,note_on,,,,,4,0,12,,,,,6,,,65,100
16320,note_on,,,,,40,0,9,,,,,3,,,65,55
16384,note_off,,,,,64,0,7,,,,,0,,,74,100
16412,note_off,,,,,92,0,12,,,,,6,,,65,100
16416,note_on,,,,,32,0,7,,,,,0,,,76,90
16416,note_on,,,,,4,0,12,,,,,6,,,62,100
16472,note_off,,,,,152,0,13,,,,,6,,,55,100
16472,note_off,,,,,152,0,9,,,,,3,,,65,100
16472,note_off,,,,,152,0,15,,,,,7,,,55,100
16472,note_off,,,,,152,0,10,,,,,4,,,55,100
16472,note_off,,,,,344,0,14,,,,,7,,,74,100
16472,note_off,,,,,0,0,14,,,,,7,,,70,100
16472,note_off,,,,,152,0,8,,,,,1,,,70,100
16480,note_off,,,,,64,0,7,,,,,0,,,76,100
16508,note_off,,,,,92,0,12,,,,,6,,,62,100
16512,note_on,,,,,40,0,10,,,,,4,,,57,55
16512,note_on,,,,,40,0,15,,,,,7,,,57,85
16512,note_on,,,,,4,0,12,,,,,6,,,61,100
16512,note_on,,,,,40,0,14,,,,,7,,,69,85
16512,note_on,,,,,40,0,9,,,,,3,,,64,55
16512,note_on,,,,,40,0,13,,,,,6,,,57,100
16512,note_on,,,,,0,0,14,,,,,7,,,73,85
16512,note_on,,,,,32,0,7,,,,,0,,,77,92
16512,note_on,,,,,40,0,8,,,,,1,,,69,55
16604,note_off,,,,,92,0,12,,,,,6,,,61,100
16604,note_off,,,,,92,0,7,,,,,0,,,77,100
16608,note_on,,,,,4,0,12,,,,,6,,,64,100
16608,note_on,,,,,4,0,7,,,,,0,,,76,92
16652,note_off,,,,,44,0,7,,,,,0,,,76,100
16656,note_on,,,,,4,0,7,,,,,0,,,77,91
16664,note_off,,,,,152,0,13,,,,,6,,,57,100
16664,note_off,,,,,152,0,8,,,,,1,,,69,100
16664,note_off,,,,,152,0,10,,,,,4,,,57,100
16664,note_off,,,,,152,0,14,,,,,7,,,69,100
16664,note_off,,,,,152,0,9,,,,,3,,,64,100
16664,note_off,,,,,152,0,15,,,,,7,,,57,100
16700,note_off,,,,,92,0,12,,,,,6,,,64,100
16700,note_off,,,,,44,0,7,,,,,0,,,77,100
16704,note_on,,,,,4,0,7,,,,,0,,,76,91
16704,note_on,,,,,40,0,14,,,,,7,,,67,85
16704,note_on,,,,,40,0,10,,,,,4,,,57,55
16704,note_on,,,,,40,0,13,,,,,6,,,57,100
16704,note_on,,,,,40,0,15,,,,,7,,,57,85
16704,note_on,,,,,4,0,12,,,,,6,,,69,100
16704,note_on,,,,,40,0,9,,,,,3,,,64,55
16704,note_on,,,,,40,0,8,,,,,1,,,69,55
16724,note_off,,,,,20,0,7,,,,,0,,,76,100
16728,note_on,,,,,4,0,7,,,,,0,,,77,91
16748,note_off,,,,,20,0,7,,,,,0,,,77,100
16752,note_on,,,,,4,0,7,,,,,0,,,76,90
16772,note_off,,,,,20,0,7,,,,,0,,,76,100
16776,note_on,,,,,4,0,7,,,,,0,,,77,90
16796,note_off,,,,,92,0,12,,,,,6,,,69,100
16796,note_off,,,,,20,0,7,,,,,0,,,77,100
16800,note_on,,,,,4,0,12,,,,,6,,,64,100
16800,note_on,,,,,4,0,7,,,,,0,,,76,90
16820,note_off,,,,,20,0,7,,,,,0,,,76,100
16824,note_on,,,,,4,0,7,,,,,0,,,77,90
16844,note_off,,,,,20,0,7,,,,,0,,,77,100
16848,note_on,,,,,4,0,7,,,,,0,,,76,89
16856,note_off,,,,,152,0,13,,,,,6,,,57,100
16856,note_off,,,,,152,0,9,,,,,3,,,64,100
16856,note_off,,,,,152,0,14,,,,,7,,,67,100
16856,note_off,,,,,152,0,15,,,,,7,,,57,100
16856,note_off,,,,,152,0,8,,,,,1,,,69,100
16856,note_off,,,,,152,0,10,,,,,4,,,57,100
16868,note_off,,,,,20,0,7,,,,,0,,,76,100
16872,note_on,,,,,4,0,7,,,,,0,,,77,89
16892,note_off,,,,,92,0,12,,,,,6,,,64,100
16892,note_off,,,,,20,0,7,,,,,0,,,77,100
16896,note_on,,,,,4,0,7,,,,,0,,,76,89
16896,note_on,,,,,40,0,15,,,,,7,,,45,85
16896,note_on,,,,,40,0,10,,,,,4,,,45,55
16896,note_on,,,,,40,0,9,,,,,3,,,61,55
16896,note_on,,,,,40,0,8,,,,,1,,,69,55
16896,note_on,,,,,40,0,14,,,,,7,,,65,85
16896,note_on,,,,,40,0,13,,,,,6,,,45,100
16896,note_on,,,,,4,0,12,,,,,6,,,61,100
16988,note_off,,,,,92,0,12,,,,,6,,,61,100
16992,note_on,,,,,4,0,12,,,,,6,,,64,100
17048,note_off,,,,,152,0,7,,,,,0,,,76,100
17048,note_off,,,,,152,0,9,,,,,3,,,61,100
17048,note_off,,,,,152,0,8,,,,,1,,,69,100
17048,note_off,,,,,152,0,10,,,,,4,,,45,100
17048,note_off,,,,,152,0,13,,,,,6,,,45,100
17048,note_off,,,,,152,0,14,,,,,7,,,65,100
17048,note_off,,,,,152,0,15,,,,,7,,,45,100
17084,note_off,,,,,92,0,12,,,,,6,,,64,100
17088,note_on,,,,,40,0,15,,,,,7,,,45,85
17088,note_on,,,,,40,0,13,,,,,6,,,45,100
17088,note_on,,,,,40,0,7,,,,,0,,,74,87
17088,note_on,,,,,40,0,10,,,,,4,,,45,55
17088,note_on,,,,,40,0,14,,,,,7,,,64,85
17088,note_on,,,,,40,0,8,,,,,1,,,69,55
17088,note_on,,,,,40,0,9,,,,,3,,,61,55
17088,note_on,,,,,4,0,12,,,,,6,,,57,100
17180,note_off,,,,,92,0,12,,,,,6,,,57,100
17184,note_on,,,,,4,0,12,,,,,6,,,61,100
17200,note_off,,,,,112,0,14,,,,,7,,,73,100
17240,note_off,,,,,152,0,7,,,,,0,,,74,100
17240,note_off,,,,,152,0,8,,,,,1,,,69,100
17240,note_off,,,,,152,0,13,,,,,6,,,45,100
17240,note_off,,,,,152,0,10,,,,,4,,,45,100
17240,note_off,,,,,152,0,15,,,,,7,,,45,100
17240,note_off,,,,,152,0,9,,,,,3,,,61,100
17240,note_off,,,,,40,0,14,,,,,7,,,64,100
17276,note_off,,,,,92,0,12,,,,,6,,,61,100
17280,note_on,,,,,40,0,8,,,,,1,,,65,55
17280,note_on,,,,,0,0,14,,,,,7,,,65,85
17280,note_on,,,,,40,0,10,,,,,4,,,50,55
17280,note_on,,,,,40,0,14,,,,,7,,,74,85
17280,note_on,,,,,4,0,12,,,,,6,,,62,100
17280,note_on,,,,,40,0,9,,,,,3,,,62,55
17280,note_on,,,,,40,0,15,,,,,7,,,50,85
17280,note_on,,,,,40,0,13,,,,,6,,,50,100
17280,note_on,,,,,40,0,7,,,,,0,,,74,86
17372,note_off,,,,,92,0,12,,,,,6,,,62,100
17376,note_on,,,,,4,0,12,,,,,6,,,65,100
17432,note_off,,,,,152,0,15,,,,,7,,,50,100
17432,note_off,,,,,152,0,13,,,,,6,,,50,100
17432,note_off,,,,,152,0,10,,,,,4,,,50,100
17468,note_off,,,,,92,0,12,,,,,6,,,65,100
17468,note_off,,,,,188,0,9,,,,,3,,,62,100
17468,note_off,,,,,188,0,8,,,,,1,,,65,100
17472,note_on,,,,,40,0,13,,,,,6,,,50,100
17472,note_on,,,,,4,0,8,,,,,1,,,69,55
17472,note_on,,,,,4,0,9,,,,,3,,,65,55
17472,note_on,,,,,40,0,15,,,,,7,,,50,85
17472,note_on,,,,,4,0,12,,,,,6,,,69,100
17472,note_on,,,,,40,0,10,,,,,4,,,50,55
17564,note_off,,,,,92,0,12,,,,,6,,,69,100
17568,note_on,,,,,4,0,12,,,,,6,,,65,100
17624,note_off,,,,,152,0,9,,,,,3,,,65,100
17624,note_off,,,,,152,0,10,,,,,4,,,50,100
17624,note_off,,,,,152,0,8,,,,,1,,,69,100
17624,note_off,,,,,152,0,13,,,,,6,,,50,100
17624,note_off,,,,,152,0,15,,,,,7,,,50,100
17660,note_off,,,,,92,0,12,,,,,6,,,65,100
17664,note_on,,,,,40,0,9,,,,,3,,,65,55
17664,note_on,,,,,4,0,12,,,,,6,,,62,100
17664,note_on,,,,,40,0,15,,,,,7,,,50,85
17664,note_on,,,,,40,0,8,,,,,1,,,69,55
17664,note_on,,,,,40,0,10,,,,,4,,,50,55
17664,note_on,,,,,40,0,13,,,,,6,,,50,100
17756,note_off,,,,,92,0,12,,,,,6,,,62,100
17760,note_on,,,,,4,0,12,,,,,6,,,65,100
17816,note_off,,,,,152,0,10,,,,,4,,,50,100
17816,note_off,,,,,152,0,15,,,,,7,,,50,100
17816,note_off,,,,,152,0,9,,,,,3,,,65,100
17816,note_off,,,,,152,0,8,,,,,1,,,69,100
17816,note_off,,,,,152,0,13,,,,,6,,,50,100
17852,note_off,,,,,92,0,12,,,,,6,,,65,100
17856,note_on,,,,,40,0,9,,,,,3,,,65,55
17856,note_on,,,,,40,0,8,,,,,1,,,69,55
17856,note_on,,,,,4,0,12,,,,,6,,,69,100
17856,note_on,,,,,40,0,10,,,,,4,,,50,55
17856,note_on,,,,,40,0,15,,,,,7,,,50,85
17856,note_on,,,,,40,0,13,,,,,6,,,50,100
17892,note_off,,,,,612,0,7,,,,,0,,,74,100
17948,note_off,,,,,92,0,12,,,,,6,,,69,100
17952,note_on,,,,,60,0,7,,,,,0,,,74,82
17952,note_on,,,,,4,0,12,,,,,6,,,65,100
18008,note_off,,,,,152,0,8,,,,,1,,,69,100
18008,note_off,,,,,152,0,13,,,,,6,,,50,100
18008,note_off,,,,,152,0,15,,,,,7,,,50,100
18008,note_off,,,,,152,0,9,,,,,3,,,65,100
18008,note_off,,,,,152,0,10,,,,,4,,,50,100
18016,note_off,,,,,64,0,7,,,,,0,,,74,100
18044,note_off,,,,,92,0,12,,,,,6,,,65,100
18048,note_on,,,,,40,0,8,,,,,1,,,69,55
18048,note_on,,,,,32,0,7,,,,,0,,,74,82
18048,note_on,,,,,40,0,9,,,,,3,,,65,55
18048,note_on,,,,,40,0,13,,,,,6,,,50,100
18048,note_on,,,,,40,0,10,,,,,4,,,50,55
18048,note_on,,,,,40,0,15,,,,,7,,,50,85
18048,note_on,,,,,4,0,12,,,,,6,,,62,100
18084,note_off,,,,,0,0,14,,,,,7,,,65,100
18084,note_off,,,,,804,0,14,,,,,7,,,74,100
18140,note_off,,,,,92,0,12,,,,,6,,,62,100
18144,note_on,,,,,4,0,12,,,,,6,,,65,100
18236,note_off,,,,,92,0,12,,,,,6,,,65,100
18236,note_off,,,,,188,0,15,,,,,7,,,50,100
18236,note_off,,,,,188,0,9,,,,,3,,,65,100
18236,note_off,,,,,188,0,10,,,,,4,,,50,100
18236,note_off,,,,,188,0,8,,,,,1,,,69,100
18236,note_off,,,,,188,0,13,,,,,6,,,50,100
18240,note_on,,,,,156,0,14,,,,,7,,,67,85
18240,note_on,,,,,4,0,8,,,,,1,,,72,55
18240,note_on,,,,,4,0,13,,,,,6,,,48,100
18240,note_on,,,,,4,0,10,,,,,4,,,48,55
18240,note_on,,,,,0,0,14,,,,,7,,,75,85
18240,note_on,,,,,4,0,9,,,,,3,,,67,55
18240,note_on,,,,,4,0,12,,,,,6,,,67,100
18240,note_on,,,,,4,0,15,,,,,7,,,48,85
18304,note_off,,,,,256,0,7,,,,,0,,,74,100
18332,note_off,,,,,92,0,12,,,,,6,,,67,100
18336,note_on,,,,,32,0,7,,,,,0,,,75,85
18336,note_on,,,,,4,0,12,,,,,6,,,63,100
18392,note_off,,,,,152,0,13,,,,,6,,,48,100
18392,note_off,,,,,152,0,9,,,,,3,,,67,100
18392,note_off,,,,,152,0,15,,,,,7,,,48,100
18392,note_off,,,,,152,0,14,,,,,7,,,75,100
18392,note_off,,,,,152,0,8,,,,,1,,,72,100
18392,note_off,,,,,152,0,10,,,,,4,,,48,100
18400,note_off,,,,,64,0,7,,,,,0,,,75,100
18428,note_off,,,,,92,0,12,,,,,6,,,63,100
18432,note_on,,,,,40,0,14,,,,,7,,,74,85
18432,note_on,,,,,32,0,7,,,,,0,,,77,86
18432,note_on,,,,,4,0,12,,,,,6,,,59,100
18432,note_on,,,,,40,0,15,,,,,7,,,47,85
18432,note_on,,,,,40,0,9,,,,,3,,,67,55
18432,note_on,,,,,40,0,13,,,,,6,,,47,100
18432,note_on,,,,,40,0,10,,,,,4,,,47,55
18432,note_on,,,,,40,0,8,,,,,1,,,74,55
18524,note_off,,,,,92,0,12,,,,,6,,,59,100
18528,note_on,,,,,4,0,12,,,,,6,,,65,100
18584,note_off,,,,,152,0,14,,,,,7,,,67,100
18584,note_off,,,,,152,0,9,,,,,3,,,67,100
18584,note_off,,,,,152,0,10,,,,,4,,,47,100
18584,note_off,,,,,152,0,8,,,,,1,,,74,100
18584,note_off,,,,,152,0,15,,,,,7,,,47,100
18584,note_off,,,,,152,0,13,,,,,6,,,47,100
18620,note_off,,,,,92,0,12,,,,,6,,,65,100
18624,note_on,,,,,40,0,9,,,,,3,,,67,55
18624,note_on,,,,,40,0,10,,,,,4,,,47,55
18624,note_on,,,,,40,0,15,,,,,7,,,47,85
18624,note_on,,,,,40,0,8,,,,,1,,,74,55
18624,note_on,,,,,4,0,12,,,,,6,,,67,100
18624,note_on,,,,,40,0,14,,,,,7,,,62,85
18624,note_on,,,,,40,0,13,,,,,6,,,47,100
18688,note_off,,,,,256,0,7,,,,,0,,,77,100
18716,note_off,,,,,92,0,12,,,,,6,,,67,100
18720,note_on,,,,,4,0,12,,,,,6,,,65,100
18720,note_on,,,,,32,0,7,,,,,0,,,79,89
18776,note_off,,,,,152,0,14,,,,,7,,,62,100
18776,note_off,,,,,152,0,10,,,,,4,,,47,100
18776,note_off,,,,,152,0,8,,,,,1,,,74,100
18776,note_off,,,,,152,0,15,,,,,7,,,47,100
18776,note_off,,,,,152,0,9,,,,,3,,,67,100
18776,note_off,,,,,152,0,13,,,,,6,,,47,100
18784,note_off,,,,,64,0,7,,,,,0,,,79,100
18812,note_off,,,,,92,0,12,,,,,6,,,65,100
18816,note_on,,,,,40,0,10,,,,,4,,,47,55
18816,note_on,,,,,4,0,12,,,,,6,,,59,100
18816,note_on,,,,,40,0,14,,,,,7,,,65,85
18816,note_on,,,,,40,0,8,,,,,1,,,74,55
18816,note_on,,,,,40,0,13,,,,,6,,,47,100
18816,note_on,,,,,32,0,7,,,,,0,,,80,90
18816,note_on,,,,,40,0,15,,,,,7,,,47,85
18816,note_on,,,,,40,0,9,,,,,3,,,67,55
18908,note_off,,,,,92,0,12,,,,,6,,,59,100
18912,note_on,,,,,4,0,12,,,,,6,,,65,100
18968,note_off,,,,,152,0,15,,,,,7,,,47,100
18968,note_off,,,,,152,0,14,,,,,7,,,65,100
18968,note_off,,,,,152,0,13,,,,,6,,,47,100
18968,note_off,,,,,152,0,8,,,,,1,,,74,100
18968,note_off,,,,,152,0,9,,,,,3,,,67,100
18968,note_off,,,,,152,0,10,,,,,4,,,47,100
19004,note_off,,,,,92,0,12,,,,,6,,,65,100
19008,note_on,,,,,40,0,10,,,,,4,,,47,55
19008,note_on,,,,,40,0,8,,,,,1,,,74,55
19008,note_on,,,,,4,0,12,,,,,6,,,67,100
19008,note_on,,,,,40,0,15,,,,,7,,,47,85
19008,note_on,,,,,40,0,14,,,,,7,,,68,85
19008,note_on,,,,,40,0,9,,,,,3,,,67,55
19008,note_on,,,,,40,0,13,,,,,6,,,47,100
19072,note_off,,,,,256,0,7,,,,,0,,,80,100
19100,note_off,,,,,92,0,12,,,,,6,,,67,100
19104,note_on,,,,,4,0,12,,,,,6,,,65,100
19104,note_on,,,,,32,0,7,,,,,0,,,71,88
19160,note_off,,,,,152,0,14,,,,,7,,,68,100
19160,note_off,,,,,152,0,13,,,,,6,,,47,100
19160,note_off,,,,,152,0,8,,,,,1,,,74,100
19160,note_off,,,,,152,0,15,,,,,7,,,47,100
19160,note_off,,,,,152,0,10,,,,,4,,,47,100
19160,note_off,,,,,152,0,9,,,,,3,,,67,100
19168,note_off,,,,,64,0,7,,,,,0,,,71,100
19196,note_off,,,,,92,0,12,,,,,6,,,65,100
19200,note_on,,,,,4,0,12,,,,,6,,,59,100
19200,note_on,,,,,40,0,14,,,,,7,,,67,85
19200,note_on,,,,,40,0,8,,,,,1,,,74,55
19200,note_on,,,,,40,0,13,,,,,6,,,47,100
19200,note_on,,,,,40,0,9,,,,,3,,,67,55
19200,note_on,,,,,40,0,10,,,,,4,,,47,55
19200,note_on,,,,,40,0,15,,,,,7,,,47,85
19200,note_on,,,,,32,0,7,,,,,0,,,72,87
19292,note_off,,,,,92,0,12,,,,,6,,,59,100
19296,note_on,,,,,4,0,12,,,,,6,,,65,100
19352,note_off,,,,,152,0,14,,,,,7,,,67,100
19352,note_off,,,,,152,0,9,,,,,3,,,67,100
19352,note_off,,,,,152,0,13,,,,,6,,,47,100
19352,note_off,,,,,152,0,10,,,,,4,,,47,100
19352,note_off,,,,,152,0,15,,,,,7,,,47,100
19352,note_off,,,,,152,0,8,,,,,1,,,74,100
19388,note_off,,,,,92,0,12,,,,,6,,,65,100
19392,note_on,,,,,40,0,15,,,,,7,,,47,85
19392,note_on,,,,,4,0,12,,,,,6,,,67,100
19392,note_on,,,,,40,0,8,,,,,1,,,74,55
19392,note_on,,,,,40,0,14,,,,,7,,,65,85
19392,note_on,,,,,40,0,9,,,,,3,,,67,55
19392,note_on,,,,,40,0,13,,,,,6,,,47,100
19392,note_on,,,,,40,0,10,,,,,4,,,47,55
19456,note_off,,,,,256,0,7,,,,,0,,,72,100
19468,note_off,,,,,76,0,14,,,,,7,,,74,100
19484,note_off,,,,,92,0,12,,,,,6,,,67,100
19488,note_on,,,,,4,0,12,,,,,6,,,65,100
19488,note_on,,,,,32,0,7,,,,,0,,,74,84
19544,note_off,,,,,152,0,9,,,,,3,,,67,100
19544,note_off,,,,,152,0,13,,,,,6,,,47,100
19544,note_off,,,,,152,0,10,,,,,4,,,47,100
19544,note_off,,,,,76,0,14,,,,,7,,,65,100
19544,note_off,,,,,152,0,8,,,,,1,,,74,100
19544,note_off,,,,,152,0,15,,,,,7,,,47,100
19552,note_off,,,,,64,0,7,,,,,0,,,74,100
19580,note_off,,,,,92,0,12,,,,,6,,,65,100
19584,note_on,,,,,40,0,8,,,,,1,,,67,55
19584,note_on,,,,,32,0,7,,,,,0,,,75,86
19584,note_on,,,,,40,0,14,,,,,7,,,72,85
19584,note_on,,,,,0,0,14,,,,,7,,,63,85
19584,note_on,,,,,40,0,9,,,,,3,,,67,55
19584,note_on,,,,,40,0,10,,,,,4,,,48,55
19584,note_on,,,,,4,0,12,,,,,6,,,60,100
19584,note_on,,,,,40,0,15,,,,,7,,,48,85
19584,note_on,,,,,40,0,13,,,,,6,,,48,100
19676,note_off,,,,,92,0,7,,,,,0,,,75,100
19676,note_off,,,,,92,0,12,,,,,6,,,60,100
19680,note_on,,,,,4,0,7,,,,,0,,,72,85
19680,note_on,,,,,4,0,12,,,,,6,,,63,100
19736,note_off,,,,,152,0,10,,,,,4,,,48,100
19736,note_off,,,,,152,0,13,,,,,6,,,48,100
19736,note_off,,,,,152,0,8,,,,,1,,,67,100
19736,note_off,,,,,152,0,15,,,,,7,,,48,100
19736,note_off,,,,,152,0,9,,,,,3,,,67,100
19772,note_off,,,,,92,0,7,,,,,0,,,72,100
19772,note_off,,,,,92,0,12,,,,,6,,,63,100
19776,note_on,,,,,4,0,12,,,,,6,,,67,100
19776,note_on,,,,,40,0,8,,,,,1,,,67,55
19776,note_on,,,,,40,0,9,,,,,3,,,67,55
19776,note_on,,,,,40,0,10,,,,,4,,,48,55
19776,note_on,,,,,4,0,7,,,,,0,,,71,83
19776,note_on,,,,,40,0,15,,,,,7,,,48,85
19776,note_on,,,,,40,0,13,,,,,6,,,48,100
19868,note_off,,,,,92,0,7,,,,,0,,,71,100
19868,note_off,,,,,92,0,12,,,,,6,,,67,100
19872,note_on,,,,,4,0,7,,,,,0,,,72,82
19872,note_on,,,,,4,0,12,,,,,6,,,63,100
19928,note_off,,,,,0,0,14,,,,,7,,,63,100
19928,note_off,,,,,152,0,15,,,,,7,,,48,100
19928,note_off,,,,,344,0,14,,,,,7,,,72,100
19928,note_off,,,,,152,0,8,,,,,1,,,67,100
19928,note_off,,,,,152,0,9,,,,,3,,,67,100
19928,note_off,,,,,152,0,13,,,,,6,,,48,100
19928,note_off,,,,,152,0,10,,,,,4,,,48,100
19936,note_off,,,,,64,0,7,,,,,0,,,72,100
19964,note_off,,,,,92,0,12,,,,,6,,,63,100
19968,note_on,,,,,32,0,7,,,,,0,,,79,89
19968,note_on,,,,,40,0,14,,,,,7,,,75,85
19968,note_on,,,,,40,0,9,,,,,3,,,67,55
19968,note_on,,,,,40,0,8,,,,,1,,,75,55
19968,note_on,,,,,0,0,14,,,,,7,,,67,85
19968,note_on,,,,,40,0,15,,,,,7,,,48,85
19968,note_on,,,,,4,0,12,,,,,6,,,60,100
19968,note_on,,,,,40,0,13,,,,,6,,,48,100
19968,note_on,,,,,40,0,10,,,,,4,,,48,55
20060,note_off,,,,,92,0,7,,,,,0,,,79,100
20060,note_off,,,,,92,0,12,,,,,6,,,60,100
20064,note_on,,,,,4,0,12,,,,,6,,,63,100
20064,note_on,,,,,4,0,7,,,,,0,,,72,88
20120,note_off,,,,,152,0,15,,,,,7,,,48,100
20120,note_off,,,,,152,0,9,,,,,3,,,67,100
20120,note_off,,,,,152,0,10,,,,,4,,,48,100
20120,note_off,,,,,152,0,8,,,,,1,,,75,100
20120,note_off,,,,,152,0,13,,,,,6,,,48,100
20156,note_off,,,,,92,0,7,,,,,0,,,72,100
20156,note_off,,,,,92,0,12,,,,,6,,,63,100
20160,note_on,,,,,4,0,12,,,,,6,,,67,100
20160,note_on,,,,,40,0,15,,,,,7,,,48,85
20160,note_on,,,,,40,0,10,,,,,4,,,48,55
20160,note_on,,,,,40,0,9,,,,,3,,,67,55
20160,note_on,,,,,4,0,7,,,,,0,,,71,86
20160,note_on,,,,,40,0,13,,,,,6,,,48,100
20160,note_on,,,,,40,0,8,,,,,1,,,75,55
20252,note_off,,,,,92,0,7,,,,,0,,,71,100
20252,note_off,,,,,92,0,12,,,,,6,,,67,100
20256,note_on,,,,,4,0,7,,,,,0,,,72,85
20256,note_on,,,,,4,0,12,,,,,6,,,63,100
20312,note_off,,,,,344,0,14,,,,,7,,,67,100
20312,note_off,,,,,152,0,8,,,,,1,,,75,100
20312,note_off,,,,,152,0,13,,,,,6,,,48,100
20312,note_off,,,,,152,0,9,,,,,3,,,67,100
20312,note_off,,,,,152,0,10,,,,,4,,,48,100
20312,note_off,,,,,152,0,15,,,,,7,,,48,100
20320,note_off,,,,,64,0,7,,,,,0,,,72,100
20348,note_off,,,,,92,0,12,,,,,6,,,63,100
20352,note_on,,,,,40,0,9,,,,,3,,,63,55
20352,note_on,,,,,40,0,13,,,,,6,,,48,100
20352,note_on,,,,,40,0,15,,,,,7,,,48,85
20352,note_on,,,,,40,0,14,,,,,7,,,68,85
20352,note_on,,,,,32,0,7,,,,,0,,,80,88
20352,note_on,,,,,40,0,10,,,,,4,,,48,55
20352,note_on,,,,,40,0,8,,,,,1,,,75,55
20352,note_on,,,,,4,0,12,,,,,6,,,60,100
20444,note_off,,,,,92,0,12,,,,,6,,,60,100
20448,note_on,,,,,4,0,12,,,,,6,,,63,100
20504,note_off,,,,,152,0,8,,,,,1,,,75,100
20504,note_off,,,,,152,0,10,,,,,4,,,48,100
20504,note_off,,,,,152,0,15,,,,,7,,,48,100
20504,note_off,,,,,152,0,9,,,,,3,,,63,100
20504,note_off,,,,,152,0,13,,,,,6,,,48,100
20540,note_off,,,,,92,0,12,,,,,6,,,63,100
20544,note_on,,,,,40,0,9,,,,,3,,,63,55
20544,note_on,,,,,40,0,13,,,,,6,,,48,100
20544,note_on,,,,,40,0,10,,,,,4,,,48,55
20544,note_on,,,,,40,0,8,,,,,1,,,75,55
20544,note_on,,,,,4,0,12,,,,,6,,,68,100
20544,note_on,,,,,40,0,15,,,,,7,,,48,85
20608,note_off,,,,,256,0,14,,,,,7,,,68,100
20636,note_off,,,,,92,0,12,,,,,6,,,68,100
20640,note_on,,,,,32,0,14,,,,,7,,,67,85
20640,note_on,,,,,4,0,12,,,,,6,,,63,100
20696,note_off,,,,,152,0,13,,,,,6,,,48,100
20696,note_off,,,,,152,0,8,,,,,1,,,75,100
20696,note_off,,,,,344,0,7,,,,,0,,,80,100
20696,note_off,,,,,152,0,9,,,,,3,,,63,100
20696,note_off,,,,,152,0,15,,,,,7,,,48,100
20696,note_off,,,,,152,0,10,,,,,4,,,48,100
20704,note_off,,,,,64,0,14,,,,,7,,,67,100
20732,note_off,,,,,92,0,12,,,,,6,,,63,100
20736,note_on,,,,,40,0,10,,,,,4,,,53,55
20736,note_on,,,,,40,0,13,,,,,6,,,53,100
20736,note_on,,,,,40,0,7,,,,,0,,,80,92
20736,note_on,,,,,40,0,9,,,,,3,,,60,55
20736,note_on,,,,,40,0,15,,,,,7,,,53,85
20736,note_on,,,,,32,0,14,,,,,7,,,65,85
20736,note_on,,,,,40,0,8,,,,,1,,,75,55
20736,note_on,,,,,4,0,12,,,,,6,,,56,100
20828,note_off,,,,,92,0,12,,,,,6,,,56,100
20832,note_on,,,,,4,0,12,,,,,6,,,60,100
20888,note_off,,,,,152,0,10,,,,,4,,,53,100
20888,note_off,,,,,152,0,9,,,,,3,,,60,100
20888,note_off,,,,,152,0,15,,,,,7,,,53,100
20888,note_off,,,,,152,0,8,,,,,1,,,75,100
20888,note_off,,,,,152,0,13,,,,,6,,,53,100
20924,note_off,,,,,92,0,12,,,,,6,,,60,100
20928,note_on,,,,,40,0,10,,,,,4,,,53,55
20928,note_on,,,,,40,0,15,,,,,7,,,53,85
20928,note_on,,,,,40,0,9,,,,,3,,,60,55
20928,note_on,,,,,40,0,8,,,,,1,,,75,55
20928,note_on,,,,,40,0,13,,,,,6,,,53,100
20928,note_on,,,,,4,0,12,,,,,6,,,63,100
20992,note_off,,,,,256,0,14,,,,,7,,,65,100
20992,note_off,,,,,256,0,7,,,,,0,,,80,100
21020,note_off,,,,,92,0,12,,,,,6,,,63,100
21024,note_on,,,,,32,0,7,,,,,0,,,79,90
21024,note_on,,,,,32,0,14,,,,,7,,,63,85
21024,note_on,,,,,4,0,12,,,,,6,,,60,100
21080,note_off,,,,,152,0,15,,,,,7,,,53,100
21080,note_off,,,,,152,0,13,,,,,6,,,53,100
21080,note_off,,,,,152,0,10,,,,,4,,,53,100
21080,note_off,,,,,152,0,8,,,,,1,,,75,100
21080,note_off,,,,,152,0,9,,,,,3,,,60,100
21088,note_off,,,,,64,0,14,,,,,7,,,63,100
21116,note_off,,,,,92,0,7,,,,,0,,,79,100
21116,note_off,,,,,92,0,12,,,,,6,,,60,100
21120,note_on,,,,,32,0,14,,,,,7,,,65,85
21120,note_on,,,,,40,0,13,,,,,6,,,53,100
21120,note_on,,,,,40,0,8,,,,,1,,,68,55
21120,note_on,,,,,40,0,9,,,,,3,,,60,55
21120,note_on,,,,,40,0,15,,,,,7,,,53,85
21120,note_on,,,,,4,0,7,,,,,0,,,77,90
21120,note_on,,,,,40,0,10,,,,,4,,,53,55
21120,note_on,,,,,4,0,12,,,,,6,,,56,100
21212,note_off,,,,,92,0,12,,,,,6,,,56,100
21216,note_on,,,,,4,0,12,,,,,6,,,60,100
21252,note_off,,,,,132,0,14,,,,,7,,,75,100
21272,note_off,,,,,152,0,15,,,,,7,,,53,100
21272,note_off,,,,,152,0,8,,,,,1,,,68,100
21272,note_off,,,,,152,0,9,,,,,3,,,60,100
21272,note_off,,,,,152,0,13,,,,,6,,,53,100
21272,note_off,,,,,152,0,10,,,,,4,,,53,100
21308,note_off,,,,,92,0,12,,,,,6,,,60,100
21312,note_on,,,,,40,0,10,,,,,4,,,53,55
21312,note_on,,,,,4,0,12,,,,,6,,,63,100
21312,note_on,,,,,40,0,8,,,,,1,,,68,55
21312,note_on,,,,,40,0,9,,,,,3,,,60,55
21312,note_on,,,,,40,0,15,,,,,7,,,53,85
21312,note_on,,,,,60,0,14,,,,,7,,,72,85
21312,note_on,,,,,40,0,13,,,,,6,,,53,100
21376,note_off,,,,,256,0,7,,,,,0,,,77,100
21376,note_off,,,,,64,0,14,,,,,7,,,65,100
21404,note_off,,,,,92,0,12,,,,,6,,,63,100
21408,note_on,,,,,4,0,12,,,,,6,,,60,100
21408,note_on,,,,,32,0,7,,,,,0,,,75,88
21408,note_on,,,,,32,0,14,,,,,7,,,67,85
21464,note_off,,,,,152,0,15,,,,,7,,,53,100
21464,note_off,,,,,56,0,14,,,,,7,,,72,100
21464,note_off,,,,,152,0,8,,,,,1,,,68,100
21464,note_off,,,,,152,0,13,,,,,6,,,53,100
21464,note_off,,,,,152,0,10,,,,,4,,,53,100
21464,note_off,,,,,152,0,9,,,,,3,,,60,100
21472,note_off,,,,,8,0,14,,,,,7,,,67,100
21500,note_off,,,,,92,0,12,,,,,6,,,60,100
21500,note_off,,,,,92,0,7,,,,,0,,,75,100
21504,note_on,,,,,40,0,8,,,,,1,,,68,55
21504,note_on,,,,,40,0,10,,,,,4,,,53,55
21504,note_on,,,,,40,0,15,,,,,7,,,53,85
21504,note_on,,,,,4,0,12,,,,,6,,,56,100
21504,note_on,,,,,4,0,7,,,,,0,,,74,87
21504,note_on,,,,,40,0,9,,,,,3,,,68,55
21504,note_on,,,,,32,0,14,,,,,7,,,68,85
21504,note_on,,,,,40,0,13,,,,,6,,,53,100
21504,note_on,,,,,0,0,14,,,,,7,,,74,85
21596,note_off,,,,,92,0,12,,,,,6,,,56,100
21600,note_on,,,,,4,0,12,,,,,6,,,60,100
21656,note_off,,,,,152,0,14,,,,,7,,,74,100
21656,note_off,,,,,152,0,10,,,,,4,,,53,100
21656,note_off,,,,,152,0,8,,,,,1,,,68,100
21656,note_off,,,,,152,0,9,,,,,3,,,68,100
21656,note_off,,,,,152,0,15,,,,,7,,,53,100
21656,note_off,,,,,152,0,13,,,,,6,,,53,100
21692,note_off,,,,,92,0,12,,,,,6,,,60,100
21696,note_on,,,,,40,0,10,,,,,4,,,53,55
21696,note_on,,,,,4,0,12,,,,,6,,,63,100
21696,note_on,,,,,40,0,15,,,,,7,,,53,85
21696,note_on,,,,,40,0,8,,,,,1,,,68,55
21696,note_on,,,,,40,0,14,,,,,7,,,75,85
21696,note_on,,,,,40,0,9,,,,,3,,,68,55
21696,note_on,,,,,40,0,13,,,,,6,,,53,100
21760,note_off,,,,,256,0,7,,,,,0,,,74,100
21788,note_off,,,,,92,0,12,,,,,6,,,63,100
21792,note_on,,,,,32,0,7,,,,,0,,,72,85
21792,note_on,,,,,4,0,12,,,,,6,,,60,100
21848,note_off,,,,,152,0,15,,,,,7,,,53,100
21848,note_off,,,,,152,0,10,,,,,4,,,53,100
21848,note_off,,,,,152,0,9,,,,,3,,,68,100
21848,note_off,,,,,152,0,13,,,,,6,,,53,100
21848,note_off,,,,,152,0,14,,,,,7,,,75,100
21848,note_off,,,,,152,0,8,,,,,1,,,68,100
21856,note_off,,,,,64,0,7,,,,,0,,,72,100
21884,note_off,,,,,92,0,12,,,,,6,,,60,100
21888,note_on,,,,,40,0,15,,,,,7,,,46,85
21888,note_on,,,,,40,0,8,,,,,1,,,68,55
21888,note_on,,,,,40,0,9,,,,,3,,,65,55
21888,note_on,,,,,40,0,10,,,,,4,,,46,55
21888,note_on,,,,,40,0,13,,,,,6,,,46,100
21888,note_on,,,,,32,0,7,,,,,0,,,72,87
21888,note_on,,,,,4,0,12,,,,,6,,,56,100
21888,note_on,,,,,40,0,14,,,,,7,,,74,85
21980,note_off,,,,,92,0,12,,,,,6,,,56,100
21984,note_on,,,,,4,0,12,,,,,6,,,62,100
22040,note_off,,,,,152,0,10,,,,,4,,,46,100
22040,note_off,,,,,152,0,15,,,,,7,,,46,100
22040,note_off,,,,,152,0,9,,,,,3,,,65,100
22040,note_off,,,,,152,0,13,,,,,6,,,46,100
22040,note_off,,,,,152,0,8,,,,,1,,,68,100
22076,note_off,,,,,188,0,7,,,,,0,,,72,100
22076,note_off,,,,,92,0,12,,,,,6,,,62,100
22080,note_on,,,,,40,0,13,,,,,6,,,46,100
22080,note_on,,,,,40,0,9,,,,,3,,,65,55
22080,note_on,,,,,40,0,8,,,,,1,,,68,55
22080,note_on,,,,,4,0,12,,,,,6,,,65,100
22080,note_on,,,,,4,0,7,,,,,0,,,74,83
22080,note_on,,,,,40,0,15,,,,,7,,,46,85
22080,note_on,,,,,40,0,10,,,,,4,,,46,55
22172,note_off,,,,,92,0,12,,,,,6,,,65,100
22176,note_on,,,,,4,0,12,,,,,6,,,62,100
22232,note_off,,,,,152,0,8,,,,,1,,,68,100
22232,note_off,,,,,152,0,13,,,,,6,,,46,100
22232,note_off,,,,,152,0,10,,,,,4,,,46,100
22232,note_off,,,,,152,0,15,,,,,7,,,46,100
22232,note_off,,,,,344,0,14,,,,,7,,,68,100
22232,note_off,,,,,152,0,9,,,,,3,,,65,100
22268,note_off,,,,,92,0,12,,,,,6,,,62,100
22272,note_on,,,,,4,0,12,,,,,6,,,56,100
22272,note_on,,,,,40,0,15,,,,,7,,,46,85
22272,note_on,,,,,40,0,14,,,,,7,,,65,85
22272,note_on,,,,,40,0,8,,,,,1,,,74,55
22272,note_on,,,,,40,0,13,,,,,6,,,46,100
22272,note_on,,,,,40,0,10,,,,,4,,,46,55
22272,note_on,,,,,40,0,9,,,,,3,,,65,55
22364,note_off,,,,,92,0,12,,,,,6,,,56,100
22368,note_on,,,,,4,0,12,,,,,6,,,62,100
22424,note_off,,,,,152,0,9,,,,,3,,,65,100
22424,note_off,,,,,152,0,15,,,,,7,,,46,100
22424,note_off,,,,,152,0,8,,,,,1,,,74,100
22424,note_off,,,,,152,0,10,,,,,4,,,46,100
22424,note_off,,,,,152,0,13,,,,,6,,,46,100
22424,note_off,,,,,344,0,7,,,,,0,,,74,100
22460,note_off,,,,,92,0,12,,,,,6,,,62,100
22464,note_on,,,,,40,0,10,,,,,4,,,46,55
22464,note_on,,,,,40,0,9,,,,,3,,,65,55
22464,note_on,,,,,4,0,12,,,,,6,,,65,100
22464,note_on,,,,,40,0,7,,,,,0,,,70,80
22464,note_on,,,,,40,0,8,,,,,1,,,74,55
22464,note_on,,,,,40,0,15,,,,,7,,,46,85
22464,note_on,,,,,40,0,13,,,,,6,,,46,100
22556,note_off,,,,,92,0,7,,,,,0,,,70,100
22556,note_off,,,,,92,0,12,,,,,6,,,65,100
22560,note_on,,,,,4,0,7,,,,,0,,,72,81
22560,note_on,,,,,4,0,12,,,,,6,,,62,100
22616,note_off,,,,,152,0,15,,,,,7,,,46,100
22616,note_off,,,,,152,0,8,,,,,1,,,74,100
22616,note_off,,,,,152,0,10,,,,,4,,,46,100
22616,note_off,,,,,152,0,9,,,,,3,,,65,100
22616,note_off,,,,,152,0,13,,,,,6,,,46,100
22616,note_off,,,,,344,0,14,,,,,7,,,65,100
22652,note_off,,,,,92,0,7,,,,,0,,,72,100
22652,note_off,,,,,92,0,12,,,,,6,,,62,100
22656,note_on,,,,,40,0,9,,,,,3,,,62,55
22656,note_on,,,,,40,0,10,,,,,4,,,46,55
22656,note_on,,,,,40,0,14,,,,,7,,,68,85
22656,note_on,,,,,40,0,8,,,,,1,,,74,55
22656,note_on,,,,,4,0,12,,,,,6,,,56,100
22656,note_on,,,,,4,0,7,,,,,0,,,74,83
22656,note_on,,,,,40,0,13,,,,,6,,,46,100
22656,note_on,,,,,40,0,15,,,,,7,,,46,85
22748,note_off,,,,,92,0,12,,,,,6,,,56,100
22748,note_off,,,,,92,0,7,,,,,0,,,74,100
22752,note_on,,,,,4,0,7,,,,,0,,,75,84
22752,note_on,,,,,4,0,12,,,,,6,,,62,100
22808,note_off,,,,,152,0,15,,,,,7,,,46,100
22808,note_off,,,,,152,0,13,,,,,6,,,46,100
22808,note_off,,,,,152,0,8,,,,,1,,,74,100
22808,note_off,,,,,152,0,9,,,,,3,,,62,100
22808,note_off,,,,,152,0,10,,,,,4,,,46,100
22844,note_off,,,,,92,0,12,,,,,6,,,62,100
22844,note_off,,,,,92,0,7,,,,,0,,,75,100
22848,note_on,,,,,40,0,10,,,,,4,,,46,55
22848,note_on,,,,,40,0,15,,,,,7,,,46,85
22848,note_on,,,,,40,0,9,,,,,3,,,62,55
22848,note_on,,,,,40,0,8,,,,,1,,,74,55
22848,note_on,,,,,4,0,12,,,,,6,,,65,100
22848,note_on,,,,,40,0,13,,,,,6,,,46,100
22848,note_on,,,,,4,0,7,,,,,0,,,77,86
22940,note_off,,,,,92,0,12,,,,,6,,,65,100
22940,note_off,,,,,92,0,7,,,,,0,,,77,100
22944,note_on,,,,,4,0,12,,,,,6,,,62,100
22944,note_on,,,,,4,0,7,,,,,0,,,74,88
23000,note_off,,,,,344,0,14,,,,,7,,,68,100
23000,note_off,,,,,152,0,10,,,,,4,,,46,100
23000,note_off,,,,,152,0,9,,,,,3,,,62,100
23000,note_off,,,,,152,0,13,,,,,6,,,46,100
23000,note_off,,,,,152,0,15,,,,,7,,,46,100
23000,note_off,,,,,152,0,8,,,,,1,,,74,100
23008,note_off,,,,,64,0,7,,,,,0,,,74,100
23036,note_off,,,,,92,0,12,,,,,6,,,62,100
23040,note_on,,,,,32,0,7,,,,,0,,,79,90
23040,note_on,,,,,40,0,13,,,,,6,,,51,100
23040,note_on,,,,,40,0,10,,,,,4,,,51,55
23040,note_on,,,,,40,0,14,,,,,7,,,67,85
23040,note_on,,,,,40,0,9,,,,,3,,,58,55
23040,note_on,,,,,40,0,15,,,,,7,,,51,85
23040,note_on,,,,,4,0,12,,,,,6,,,55,100
23040,note_on,,,,,40,0,8,,,,,1,,,74,55
23132,note_off,,,,,92,0,12,,,,,6,,,55,100
23136,note_on,,,,,4,0,12,,,,,6,,,58,100
23192,note_off,,,,,152,0,10,,,,,4,,,51,100
23192,note_off,,,,,152,0,8,,,,,1,,,74,100
23192,note_off,,,,,152,0,9,,,,,3,,,58,100
23192,note_off,,,,,152,0,13,,,,,6,,,51,100
23192,note_off,,,,,152,0,15,,,,,7,,,51,100
23228,note_off,,,,,92,0,12,,,,,6,,,58,100
23232,note_on,,,,,4,0,12,,,,,6,,,62,100
23232,note_on,,,,,40,0,9,,,,,3,,,58,55
23232,note_on,,,,,40,0,15,,,,,7,,,51,85
23232,note_on,,,,,40,0,8,,,,,1,,,74,55
23232,note_on,,,,,40,0,10,,,,,4,,,51,55
23232,note_on,,,,,40,0,13,,,,,6,,,51,100
23296,note_off,,,,,256,0,7,,,,,0,,,79,100
23324,note_off,,,,,92,0,12,,,,,6,,,62,100
23328,note_on,,,,,32,0,7,,,,,0,,,77,88
23328,note_on,,,,,4,0,12,,,,,6,,,58,100
23384,note_off,,,,,152,0,9,,,,,3,,,58,100
23384,note_off,,,,,152,0,10,,,,,4,,,51,100
23384,note_off,,,,,152,0,13,,,,,6,,,51,100
23384,note_off,,,,,152,0,15,,,,,7,,,51,100
23384,note_off,,,,,152,0,8,,,,,1,,,74,100
23420,note_off,,,,,92,0,12,,,,,6,,,58,100
23420,note_off,,,,,92,0,7,,,,,0,,,77,100
23424,note_on,,,,,40,0,15,,,,,7,,,51,85
23424,note_on,,,,,40,0,13,,,,,6,,,51,100
23424,note_on,,,,,4,0,7,,,,,0,,,75,87
23424,note_on,,,,,40,0,8,,,,,1,,,67,55
23424,note_on,,,,,40,0,9,,,,,3,,,58,55
23424,note_on,,,,,4,0,12,,,,,6,,,55,100
23424,note_on,,,,,40,0,10,,,,,4,,,51,55
23516,note_off,,,,,92,0,12,,,,,6,,,55,100
23520,note_on,,,,,4,0,12,,,,,6,,,58,100
23556,note_off,,,,,516,0,14,,,,,7,,,67,100
23576,note_off,,,,,152,0,13,,,,,6,,,51,100
23576,note_off,,,,,152,0,8,,,,,1,,,67,100
23576,note_off,,,,,152,0,15,,,,,7,,,51,100
23576,note_off,,,,,152,0,10,,,,,4,,,51,100
23576,note_off,,,,,152,0,9,,,,,3,,,58,100
23612,note_off,,,,,92,0,12,,,,,6,,,58,100
23616,note_on,,,,,40,0,13,,,,,6,,,51,100
23616,note_on,,,,,4,0,12,,,,,6,,,62,100
23616,note_on,,,,,40,0,9,,,,,3,,,58,55
23616,note_on,,,,,40,0,8,,,,,1,,,67,55
23616,note_on,,,,,40,0,10,,,,,4,,,51,55
23616,note_on,,,,,60,0,14,,,,,7,,,65,85
23616,note_on,,,,,40,0,15,,,,,7,,,51,85
23680,note_off,,,,,256,0,7,,,,,0,,,75,100
23708,note_off,,,,,92,0,12,,,,,6,,,62,100
23712,note_on,,,,,32,0,7,,,,,0,,,74,84
23712,note_on,,,,,4,0,12,,,,,6,,,58,100
23728,note_off,,,,,112,0,14,,,,,7,,,74,100
23768,note_off,,,,,152,0,8,,,,,1,,,67,100
23768,note_off,,,,,152,0,15,,,,,7,,,51,100
23768,note_off,,,,,152,0,13,,,,,6,,,51,100
23768,note_off,,,,,152,0,10,,,,,4,,,51,100
23768,note_off,,,,,152,0,9,,,,,3,,,58,100
23788,note_off,,,,,60,0,14,,,,,7,,,65,100
23804,note_off,,,,,92,0,12,,,,,6,,,58,100
23804,note_off,,,,,92,0,7,,,,,0,,,74,100
23808,note_on,,,,,40,0,9,,,,,3,,,67,55
23808,note_on,,,,,0,0,14,,,,,7,,,67,85
23808,note_on,,,,,20,0,14,,,,,7,,,63,85
23808,note_on,,,,,40,0,13,,,,,6,,,51,100
23808,note_on,,,,,40,0,10,,,,,4,,,51,55
23808,note_on,,,,,40,0,8,,,,,1,,,67,55
23808,note_on,,,,,40,0,15,,,,,7,,,51,85
23808,note_on,,,,,4,0,7,,,,,0,,,72,83
23808,note_on,,,,,4,0,12,,,,,6,,,55,100
23900,note_off,,,,,92,0,12,,,,,6,,,55,100
23904,note_on,,,,,4,0,12,,,,,6,,,58,100
23960,note_off,,,,,152,0,15,,,,,7,,,51,100
23960,note_off,,,,,152,0,13,,,,,6,,,51,100
23960,note_off,,,,,152,0,10,,,,,4,,,51,100
23960,note_off,,,,,152,0,9,,,,,3,,,67,100
23960,note_off,,,,,152,0,8,,,,,1,,,67,100
23980,note_off,,,,,172,0,14,,,,,7,,,63,100
23996,note_off,,,,,92,0,12,,,,,6,,,58,100
24000,note_on,,,,,40,0,10,,,,,4,,,51,55
24000,note_on,,,,,40,0,8,,,,,1,,,67,55
24000,note_on,,,,,4,0,12,,,,,6,,,62,100
24000,note_on,,,,,40,0,13,,,,,6,,,51,100
24000,note_on,,,,,20,0,14,,,,,7,,,63,85
24000,note_on,,,,,40,0,15,,,,,7,,,51,85
24000,note_on,,,,,40,0,9,,,,,3,,,67,55
24064,note_off,,,,,256,0,7,,,,,0,,,72,100
24092,note_off,,,,,92,0,12,,,,,6,,,62,100
24096,note_on,,,,,4,0,12,,,,,6,,,58,100
24096,note_on,,,,,32,0,7,,,,,0,,,71,80
24152,note_off,,,,,152,0,8,,,,,1,,,67,100
24152,note_off,,,,,152,0,9,,,,,3,,,67,100
24152,note_off,,,,,152,0,15,,,,,7,,,51,100
24152,note_off,,,,,152,0,10,,,,,4,,,51,100
24152,note_off,,,,,152,0,13,,,,,6,,,51,100
24160,note_off,,,,,64,0,7,,,,,0,,,71,100
24172,note_off,,,,,172,0,14,,,,,7,,,63,100
24188,note_off,,,,,92,0,12,,,,,6,,,58,100
24192,note_on,,,,,40,0,13,,,,,6,,,44,100
24192,note_on,,,,,40,0,10,,,,,4,,,44,55
24192,note_on,,,,,4,0,12,,,,,6,,,55,100
24192,note_on,,,,,40,0,9,,,,,3,,,63,55
24192,note_on,,,,,40,0,15,,,,,7,,,44,85
24192,note_on,,,,,20,0,14,,,,,7,,,60,85
24192,note_on,,,,,40,0,8,,,,,1,,,67,55
24192,note_on,,,,,32,0,7,,,,,0,,,71,82
24284,note_off,,,,,92,0,12,,,,,6,,,55,100
24288,note_on,,,,,4,0,12,,,,,6,,,60,100
24344,note_off,,,,,152,0,10,,,,,4,,,44,100
24344,note_off,,,,,152,0,15,,,,,7,,,44,100
24344,note_off,,,,,152,0,8,,,,,1,,,67,100
24344,note_off,,,,,152,0,13,,,,,6,,,44,100
24344,note_off,,,,,152,0,9,,,,,3,,,63,100
24380,note_off,,,,,92,0,12,,,,,6,,,60,100
24380,note_off,,,,,188,0,7,,,,,0,,,71,100
24384,note_on,,,,,4,0,7,,,,,0,,,72,77
24384,note_on,,,,,40,0,13,,,,,6,,,44,100
24384,note_on,,,,,4,0,12,,,,,6,,,63,100
24384,note_on,,,,,40,0,10,,,,,4,,,44,55
24384,note_on,,,,,40,0,8,,,,,1,,,67,55
24384,note_on,,,,,40,0,9,,,,,3,,,63,55
24384,note_on,,,,,40,0,15,,,,,7,,,44,85
24476,note_off,,,,,92,0,12,,,,,6,,,63,100
24480,note_on,,,,,4,0,12,,,,,6,,,60,100
24536,note_off,,,,,152,0,9,,,,,3,,,63,100
24536,note_off,,,,,152,0,15,,,,,7,,,44,100
24536,note_off,,,,,152,0,8,,,,,1,,,67,100
24536,note_off,,,,,152,0,13,,,,,6,,,44,100
24536,note_off,,,,,344,0,14,,,,,7,,,67,100
24536,note_off,,,,,0,0,14,,,,,7,,,60,100
24536,note_off,,,,,152,0,10,,,,,4,,,44,100
24572,note_off,,,,,92,0,12,,,,,6,,,60,100
24576,note_on,,,,,0,0,14,,,,,7,,,63,85
24576,note_on,,,,,40,0,14,,,,,7,,,72,85
24576,note_on,,,,,4,0,12,,,,,6,,,55,100
24576,note_on,,,,,40,0,10,,,,,4,,,44,55
24576,note_on,,,,,40,0,9,,,,,3,,,63,55
24576,note_on,,,,,40,0,13,,,,,6,,,44,100
24576,note_on,,,,,40,0,15,,,,,7,,,44,85
24576,note_on,,,,,40,0,8,,,,,1,,,72,55
24668,note_off,,,,,92,0,12,,,,,6,,,55,100
24672,note_on,,,,,4,0,12,,,,,6,,,60,100
24728,note_off,,,,,152,0,8,,,,,1,,,72,100
24728,note_off,,,,,152,0,15,,,,,7,,,44,100
24728,note_off,,,,,344,0,7,,,,,0,,,72,100
24728,note_off,,,,,152,0,9,,,,,3,,,63,100
24728,note_off,,,,,152,0,10,,,,,4,,,44,100
24728,note_off,,,,,152,0,13,,,,,6,,,44,100
24764,note_off,,,,,92,0,12,,,,,6,,,60,100
24768,note_on,,,,,40,0,9,,,,,3,,,63,55
24768,note_on,,,,,40,0,8,,,,,1,,,72,55
24768,note_on,,,,,4,0,12,,,,,6,,,63,100
24768,note_on,,,,,40,0,13,,,,,6,,,44,100
24768,note_on,,,,,40,0,10,,,,,4,,,44,55
24768,note_on,,,,,40,0,7,,,,,0,,,72,77
24768,note_on,,,,,40,0,15,,,,,7,,,44,85
24860,note_off,,,,,92,0,12,,,,,6,,,63,100
24860,note_off,,,,,92,0,7,,,,,0,,,72,100
24864,note_on,,,,,4,0,12,,,,,6,,,60,100
24864,note_on,,,,,4,0,7,,,,,0,,,74,77
24920,note_off,,,,,152,0,9,,,,,3,,,63,100
24920,note_off,,,,,152,0,13,,,,,6,,,44,100
24920,note_off,,,,,152,0,8,,,,,1,,,72,100
24920,note_off,,,,,152,0,15,,,,,7,,,44,100
24920,note_off,,,,,152,0,10,,,,,4,,,44,100
24920,note_off,,,,,344,0,14,,,,,7,,,63,100
24956,note_off,,,,,92,0,7,,,,,0,,,74,100
24956,note_off,,,,,92,0,12,,,,,6,,,60,100
24960,note_on,,,,,4,0,7,,,,,0,,,75,78
24960,note_on,,,,,40,0,14,,,,,7,,,67,85
24960,note_on,,,,,40,0,13,,,,,6,,,44,100
24960,note_on,,,,,4,0,12,,,,,6,,,55,100
24960,note_on,,,,,40,0,9,,,,,3,,,63,55
24960,note_on,,,,,40,0,10,,,,,4,,,44,55
24960,note_on,,,,,40,0,8,,,,,1,,,72,55
24960,note_on,,,,,40,0,15,,,,,7,,,44,85
25052,note_off,,,,,92,0,12,,,,,6,,,55,100
25052,note_off,,,,,92,0,7,,,,,0,,,75,100
25056,note_on,,,,,4,0,12,,,,,6,,,60,100
25056,note_on,,,,,4,0,7,,,,,0,,,77,79
25112,note_off,,,,,152,0,15,,,,,7,,,44,100
25112,note_off,,,,,152,0,9,,,,,3,,,63,100
25112,note_off,,,,,152,0,10,,,,,4,,,44,100
25112,note_off,,,,,152,0,8,,,,,1,,,72,100
25112,note_off,,,,,152,0,13,,,,,6,,,44,100
25148,note_off,,,,,92,0,12,,,,,6,,,60,100
25148,note_off,,,,,92,0,7,,,,,0,,,77,100
25152,note_on,,,,,4,0,7,,,,,0,,,79,79
25152,note_on,,,,,40,0,9,,,,,3,,,63,55
25152,note_on,,,,,40,0,15,,,,,7,,,44,85
25152,note_on,,,,,40,0,13,,,,,6,,,44,100
25152,note_on,,,,,40,0,10,,,,,4,,,44,55
25152,note_on,,,,,40,0,8,,,,,1,,,72,55
25152,note_on,,,,,4,0,12,,,,,6,,,63,100
25244,note_off,,,,,92,0,12,,,,,6,,,63,100
25244,note_off,,,,,92,0,7,,,,,0,,,79,100
25248,note_on,,,,,4,0,7,,,,,0,,,75,80
25248,note_on,,,,,4,0,12,,,,,6,,,60,100
25304,note_off,,,,,344,0,14,,,,,7,,,67,100
25304,note_off,,,,,152,0,8,,,,,1,,,72,100
25304,note_off,,,,,152,0,9,,,,,3,,,63,100
25304,note_off,,,,,152,0,15,,,,,7,,,44,100
25304,note_off,,,,,152,0,10,,,,,4,,,44,100
25304,note_off,,,,,152,0,13,,,,,6,,,44,100
25312,note_off,,,,,64,0,7,,,,,0,,,75,100
25340,note_off,,,,,92,0,12,,,,,6,,,60,100
25344,note_on,,,,,40,0,15,,,,,7,,,41,85
25344,note_on,,,,,4,0,12,,,,,6,,,56,100
25344,note_on,,,,,40,0,13,,,,,6,,,41,100
25344,note_on,,,,,40,0,9,,,,,3,,,65,55
25344,note_on,,,,,40,0,14,,,,,7,,,68,85
25344,note_on,,,,,40,0,8,,,,,1,,,72,55
25344,note_on,,,,,32,0,7,,,,,0,,,80,81
25344,note_on,,,,,40,0,10,,,,,4,,,41,55
25436,note_off,,,,,92,0,12,,,,,6,,,56,100
25436,note_off,,,,,92,0,7,,,,,0,,,80,100
25440,note_on,,,,,4,0,7,,,,,0,,,77,81
25440,note_on,,,,,4,0,12,,,,,6,,,60,100
25496,note_off,,,,,152,0,10,,,,,4,,,41,100
25496,note_off,,,,,152,0,8,,,,,1,,,72,100
25496,note_off,,,,,152,0,9,,,,,3,,,65,100
25496,note_off,,,,,152,0,14,,,,,7,,,68,100
25496,note_off,,,,,152,0,13,,,,,6,,,41,100
25496,note_off,,,,,152,0,15,,,,,7,,,41,100
25532,note_off,,,,,92,0,7,,,,,0,,,77,100
25532,note_off,,,,,92,0,12,,,,,6,,,60,100
25536,note_on,,,,,40,0,10,,,,,4,,,41,55
25536,note_on,,,,,4,0,12,,,,,6,,,65,100
25536,note_on,,,,,40,0,15,,,,,7,,,41,85
25536,note_on,,,,,40,0,14,,,,,7,,,67,85
25536,note_on,,,,,40,0,13,,,,,6,,,41,100
25536,note_on,,,,,4,0,7,,,,,0,,,79,82
25536,note_on,,,,,40,0,9,,,,,3,,,65,55
25536,note_on,,,,,40,0,8,,,,,1,,,72,55
25628,note_off,,,,,92,0,7,,,,,0,,,79,100
25628,note_off,,,,,92,0,12,,,,,6,,,65,100
25632,note_on,,,,,4,0,12,,,,,6,,,60,100
25632,note_on,,,,,4,0,7,,,,,0,,,80,83
25688,note_off,,,,,152,0,13,,,,,6,,,41,100
25688,note_off,,,,,152,0,9,,,,,3,,,65,100
25688,note_off,,,,,152,0,15,,,,,7,,,41,100
25688,note_off,,,,,152,0,8,,,,,1,,,72,100
25688,note_off,,,,,152,0,14,,,,,7,,,67,100
25688,note_off,,,,,152,0,10,,,,,4,,,41,100
25696,note_off,,,,,64,0,7,,,,,0,,,80,100
25724,note_off,,,,,92,0,12,,,,,6,,,60,100
25728,note_on,,,,,40,0,10,,,,,4,,,53,55
25728,note_on,,,,,40,0,8,,,,,1,,,72,55
25728,note_on,,,,,40,0,9,,,,,3,,,65,55
25728,note_on,,,,,40,0,15,,,,,7,,,53,85
25728,note_on,,,,,4,0,12,,,,,6,,,56,100
25728,note_on,,,,,40,0,14,,,,,7,,,65,85
25728,note_on,,,,,40,0,13,,,,,6,,,53,100
25728,note_on,,,,,32,0,7,,,,,0,,,80,83
25820,note_off,,,,,92,0,12,,,,,6,,,56,100
25820,note_off,,,,,92,0,7,,,,,0,,,80,100
25824,note_on,,,,,4,0,7,,,,,0,,,77,84
25824,note_on,,,,,4,0,12,,,,,6,,,60,100
25880,note_off,,,,,152,0,14,,,,,7,,,65,100
25880,note_off,,,,,152,0,15,,,,,7,,,53,100
25880,note_off,,,,,152,0,8,,,,,1,,,72,100
25880,note_off,,,,,152,0,9,,,,,3,,,65,100
25880,note_off,,,,,152,0,10,,,,,4,,,53,100
25880,note_off,,,,,152,0,13,,,,,6,,,53,100
25916,note_off,,,,,92,0,12,,,,,6,,,60,100
25916,note_off,,,,,92,0,7,,,,,0,,,77,100
25920,note_on,,,,,40,0,10,,,,,4,,,53,55
25920,note_on,,,,,40,0,9,,,,,3,,,65,55
25920,note_on,,,,,40,0,15,,,,,7,,,53,85
25920,note_on,,,,,4,0,7,,,,,0,,,79,85
25920,note_on,,,,,40,0,13,,,,,6,,,53,100
25920,note_on,,,,,40,0,14,,,,,7,,,63,85
25920,note_on,,,,,4,0,12,,,,,6,,,65,100
25920,note_on,,,,,40,0,8,,,,,1,,,72,55
26012,note_off,,,,,92,0,7,,,,,0,,,79,100
26012,note_off,,,,,92,0,12,,,,,6,,,65,100
26016,note_on,,,,,4,0,7,,,,,0,,,80,86
26016,note_on,,,,,4,0,12,,,,,6,,,60,100
26032,note_off,,,,,112,0,14,,,,,7,,,72,100
26072,note_off,,,,,152,0,15,,,,,7,,,53,100
26072,note_off,,,,,152,0,13,,,,,6,,,53,100
26072,note_off,,,,,152,0,8,,,,,1,,,72,100
26072,note_off,,,,,152,0,9,,,,,3,,,65,100
26072,note_off,,,,,152,0,10,,,,,4,,,53,100
26072,note_off,,,,,40,0,14,,,,,7,,,63,100
26080,note_off,,,,,64,0,7,,,,,0,,,80,100
26108,note_off,,,,,92,0,12,,,,,6,,,60,100
26112,note_on,,,,,40,0,14,,,,,7,,,77,85
26112,note_on,,,,,40,0,9,,,,,3,,,65,55
26112,note_on,,,,,40,0,10,,,,,4,,,53,55
26112,note_on,,,,,40,0,8,,,,,1,,,80,55
26112,note_on,,,,,0,0,15,,,,,7,,,53,85
26112,note_on,,,,,40,0,13,,,,,6,,,53,100
26112,note_on,,,,,40,0,15,,,,,7,,,62,85
26112,note_on,,,,,4,0,12,,,,,6,,,56,100
26112,note_on,,,,,32,0,7,,,,,0,,,77,86
26204,note_off,,,,,92,0,7,,,,,0,,,77,100
26204,note_off,,,,,92,0,12,,,,,6,,,56,100
26208,note_on,,,,,4,0,7,,,,,0,,,74,87
26208,note_on,,,,,4,0,12,,,,,6,,,60,100
26264,note_off,,,,,152,0,15,,,,,7,,,62,100
26264,note_off,,,,,0,0,15,,,,,7,,,53,100
26264,note_off,,,,,152,0,8,,,,,1,,,80,100
26264,note_off,,,,,152,0,9,,,,,3,,,65,100
26264,note_off,,,,,152,0,10,,,,,4,,,53,100
26264,note_off,,,,,152,0,13,,,,,6,,,53,100
26300,note_off,,,,,92,0,12,,,,,6,,,60,100
26300,note_off,,,,,92,0,7,,,,,0,,,74,100
26304,note_on,,,,,40,0,10,,,,,4,,,53,55
26304,note_on,,,,,0,0,15,,,,,7,,,53,85
26304,note_on,,,,,40,0,15,,,,,7,,,60,85
26304,note_on,,,,,40,0,8,,,,,1,,,80,55
26304,note_on,,,,,40,0,13,,,,,6,,,53,100
26304,note_on,,,,,4,0,7,,,,,0,,,75,88
26304,note_on,,,,,40,0,9,,,,,3,,,65,55
26304,note_on,,,,,4,0,12,,,,,6,,,65,100
26396,note_off,,,,,92,0,7,,,,,0,,,75,100
26396,note_off,,,,,92,0,12,,,,,6,,,65,100
26400,note_on,,,,,4,0,7,,,,,0,,,77,88
26400,note_on,,,,,4,0,12,,,,,6,,,60,100
26456,note_off,,,,,152,0,8,,,,,1,,,80,100
26456,note_off,,,,,152,0,15,,,,,7,,,60,100
26456,note_off,,,,,0,0,15,,,,,7,,,53,100
26456,note_off,,,,,152,0,13,,,,,6,,,53,100
26456,note_off,,,,,152,0,10,,,,,4,,,53,100
26456,note_off,,,,,152,0,9,,,,,3,,,65,100
26464,note_off,,,,,64,0,7,,,,,0,,,77,100
26492,note_off,,,,,92,0,12,,,,,6,,,60,100
26496,note_on,,,,,40,0,13,,,,,6,,,55,100
26496,note_on,,,,,40,0,9,,,,,3,,,65,55
26496,note_on,,,,,40,0,15,,,,,7,,,59,85
26496,note_on,,,,,4,0,12,,,,,6,,,59,100
26496,note_on,,,,,40,0,8,,,,,1,,,74,55
26496,note_on,,,,,0,0,15,,,,,7,,,55,85
26496,note_on,,,,,40,0,10,,,,,4,,,55,55
26496,note_on,,,,,32,0,7,,,,,0,,,71,89
26588,note_off,,,,,92,0,7,,,,,0,,,71,100
26588,note_off,,,,,92,0,12,,,,,6,,,59,100
26592,note_on,,,,,4,0,7,,,,,0,,,67,90
26592,note_on,,,,,4,0,12,,,,,6,,,62,100
26648,note_off,,,,,536,0,14,,,,,7,,,77,100
26648,note_off,,,,,152,0,15,,,,,7,,,55,100
26648,note_off,,,,,152,0,8,,,,,1,,,74,100
26648,note_off,,,,,152,0,10,,,,,4,,,55,100
26648,note_off,,,,,152,0,9,,,,,3,,,65,100
26648,note_off,,,,,152,0,13,,,,,6,,,55,100
26684,note_off,,,,,92,0,12,,,,,6,,,62,100
26684,note_off,,,,,92,0,7,,,,,0,,,67,100
26688,note_on,,,,,40,0,15,,,,,7,,,55,85
26688,note_on,,,,,40,0,10,,,,,4,,,55,55
26688,note_on,,,,,4,0,7,,,,,0,,,71,90
26688,note_on,,,,,40,0,14,,,,,7,,,75,85
26688,note_on,,,,,40,0,13,,,,,6,,,55,100
26688,note_on,,,,,40,0,9,,,,,3,,,65,55
26688,note_on,,,,,4,0,12,,,,,6,,,65,100
26688,note_on,,,,,40,0,8,,,,,1,,,74,55
26780,note_off,,,,,92,0,12,,,,,6,,,65,100
26780,note_off,,,,,92,0,7,,,,,0,,,71,100
26784,note_on,,,,,4,0,12,,,,,6,,,62,100
26784,note_on,,,,,4,0,7,,,,,0,,,72,91
26840,note_off,,,,,152,0,9,,,,,3,,,65,100
26840,note_off,,,,,152,0,10,,,,,4,,,55,100
26840,note_off,,,,,152,0,14,,,,,7,,,75,100
26840,note_off,,,,,152,0,13,,,,,6,,,55,100
26840,note_off,,,,,152,0,8,,,,,1,,,74,100
26840,note_off,,,,,152,0,15,,,,,7,,,55,100
26848,note_off,,,,,64,0,7,,,,,0,,,72,100
26876,note_off,,,,,92,0,12,,,,,6,,,62,100
26880,note_on,,,,,40,0,9,,,,,3,,,65,55
26880,note_on,,,,,40,0,8,,,,,1,,,74,55
26880,note_on,,,,,40,0,10,,,,,4,,,55,55
26880,note_on,,,,,40,0,13,,,,,6,,,55,100
26880,note_on,,,,,40,0,14,,,,,7,,,74,85
26880,note_on,,,,,32,0,7,,,,,0,,,74,92
26880,note_on,,,,,40,0,15,,,,,7,,,55,85
26880,note_on,,,,,4,0,12,,,,,6,,,59,100
26972,note_off,,,,,92,0,12,,,,,6,,,59,100
26972,note_off,,,,,92,0,7,,,,,0,,,74,100
26976,note_on,,,,,4,0,12,,,,,6,,,62,100
26976,note_on,,,,,4,0,7,,,,,0,,,71,93
27032,note_off,,,,,152,0,14,,,,,7,,,74,100
27032,note_off,,,,,152,0,15,,,,,7,,,55,100
27032,note_off,,,,,152,0,9,,,,,3,,,65,100
27032,note_off,,,,,152,0,8,,,,,1,,,74,100
27032,note_off,,,,,152,0,13,,,,,6,,,55,100
27032,note_off,,,,,152,0,10,,,,,4,,,55,100
27068,note_off,,,,,92,0,12,,,,,6,,,62,100
27068,note_off,,,,,92,0,7,,,,,0,,,71,100
27072,note_on,,,,,40,0,9,,,,,3,,,65,55
27072,note_on,,,,,40,0,8,,,,,1,,,74,55
27072,note_on,,,,,4,0,12,,,,,6,,,65,100
27072,note_on,,,,,40,0,13,,,,,6,,,55,100
27072,note_on,,,,,4,0,7,,,,,0,,,74,93
27072,note_on,,,,,40,0,10,,,,,4,,,55,55
27072,note_on,,,,,40,0,14,,,,,7,,,72,85
27072,note_on,,,,,40,0,15,,,,,7,,,55,85
27164,note_off,,,,,92,0,12,,,,,6,,,65,100
27164,note_off,,,,,92,0,7,,,,,0,,,74,100
27168,note_on,,,,,4,0,7,,,,,0,,,75,94
27168,note_on,,,,,4,0,12,,,,,6,,,62,100
27184,note_off,,,,,112,0,15,,,,,7,,,59,100
27224,note_off,,,,,152,0,8,,,,,1,,,74,100
27224,note_off,,,,,152,0,13,,,,,6,,,55,100
27224,note_off,,,,,152,0,9,,,,,3,,,65,100
27224,note_off,,,,,152,0,14,,,,,7,,,72,100
27224,note_off,,,,,152,0,10,,,,,4,,,55,100
27224,note_off,,,,,40,0,15,,,,,7,,,55,100
27232,note_off,,,,,64,0,7,,,,,0,,,75,100
27260,note_off,,,,,92,0,12,,,,,6,,,62,100
27264,note_on,,,,,40,0,9,,,,,3,,,62,55
27264,note_on,,,,,40,0,15,,,,,7,,,47,85
27264,note_on,,,,,40,0,8,,,,,1,,,74,55
27264,note_on,,,,,4,0,12,,,,,6,,,59,100
27264,note_on,,,,,0,0,14,,,,,7,,,74,85
27264,note_on,,,,,40,0,14,,,,,7,,,67,85
27264,note_on,,,,,40,0,13,,,,,6,,,47,100
27264,note_on,,,,,40,0,10,,,,,4,,,47,55
27264,note_on,,,,,32,0,7,,,,,0,,,77,95
27356,note_off,,,,,92,0,12,,,,,6,,,59,100
27356,note_off,,,,,92,0,7,,,,,0,,,77,100
27360,note_on,,,,,4,0,7,,,,,0,,,74,95
27360,note_on,,,,,4,0,12,,,,,6,,,62,100
27416,note_off,,,,,152,0,10,,,,,4,,,47,100
27416,note_off,,,,,152,0,15,,,,,7,,,47,100
27416,note_off,,,,,152,0,8,,,,,1,,,74,100
27416,note_off,,,,,152,0,13,,,,,6,,,47,100
27416,note_off,,,,,152,0,9,,,,,3,,,62,100
27452,note_off,,,,,92,0,7,,,,,0,,,74,100
27452,note_off,,,,,92,0,12,,,,,6,,,62,100
27456,note_on,,,,,40,0,15,,,,,7,,,47,85
27456,note_on,,,,,40,0,8,,,,,1,,,74,55
27456,note_on,,,,,40,0,13,,,,,6,,,47,100
27456,note_on,,,,,4,0,7,,,,,0,,,77,96
27456,note_on,,,,,4,0,12,,,,,6,,,65,100
27456,note_on,,,,,40,0,9,,,,,3,,,62,55
27456,note_on,,,,,40,0,10,,,,,4,,,47,55
27548,note_off,,,,,92,0,12,,,,,6,,,65,100
27548,note_off,,,,,92,0,7,,,,,0,,,77,100
27552,note_on,,,,,4,0,7,,,,,0,,,79,97
27552,note_on,,,,,4,0,12,,,,,6,,,62,100
27608,note_off,,,,,152,0,10,,,,,4,,,47,100
27608,note_off,,,,,152,0,13,,,,,6,,,47,100
27608,note_off,,,,,152,0,8,,,,,1,,,74,100
27608,note_off,,,,,152,0,15,,,,,7,,,47,100
27608,note_off,,,,,152,0,9,,,,,3,,,62,100
27608,note_off,,,,,344,0,14,,,,,7,,,74,100
27616,note_off,,,,,64,0,7,,,,,0,,,79,100
27644,note_off,,,,,92,0,12,,,,,6,,,62,100
27648,note_on,,,,,4,0,12,,,,,6,,,60,100
27648,note_on,,,,,40,0,15,,,,,7,,,48,85
27648,note_on,,,,,40,0,10,,,,,4,,,48,55
27648,note_on,,,,,32,0,7,,,,,0,,,75,97
27648,note_on,,,,,40,0,9,,,,,3,,,55,55
27648,note_on,,,,,40,0,14,,,,,7,,,75,85
27648,note_on,,,,,40,0,13,,,,,6,,,48,100
27648,note_on,,,,,40,0,8,,,,,1,,,72,55
27740,note_off,,,,,92,0,9,,,,,3,,,55,100
27740,note_off,,,,,92,0,12,,,,,6,,,60,100
27744,note_on,,,,,4,0,12,,,,,6,,,63,100
27744,note_on,,,,,4,0,9,,,,,3,,,67,55
27800,note_off,,,,,152,0,7,,,,,0,,,75,100
27808,note_off,,,,,64,0,9,,,,,3,,,67,100
27836,note_off,,,,,92,0,12,,,,,6,,,63,100
27836,note_off,,,,,188,0,14,,,,,7,,,67,100
27836,note_off,,,,,188,0,13,,,,,6,,,48,100
27836,note_off,,,,,188,0,15,,,,,7,,,48,100
27836,note_off,,,,,188,0,10,,,,,4,,,48,100
27836,note_off,,,,,188,0,8,,,,,1,,,72,100
27840,note_on,,,,,32,0,9,,,,,3,,,65,55
27840,note_on,,,,,4,0,12,,,,,6,,,65,100
27840,note_on,,,,,4,0,13,,,,,6,,,53,100
27840,note_on,,,,,40,0,7,,,,,0,,,74,100
27840,note_on,,,,,4,0,8,,,,,1,,,68,55
27840,note_on,,,,,4,0,15,,,,,7,,,53,85
27840,note_on,,,,,4,0,14,,,,,7,,,68,85
27840,note_on,,,,,4,0,10,,,,,4,,,53,55
27904,note_off,,,,,64,0,9,,,,,3,,,65,100
27916,note_off,,,,,76,0,7,,,,,0,,,74,100
27932,note_off,,,,,92,0,12,,,,,6,,,65,100
27936,note_on,,,,,20,0,7,,,,,0,,,72,100
27936,note_on,,,,,32,0,9,,,,,3,,,63,55
27936,note_on,,,,,4,0,12,,,,,6,,,68,100
27992,note_off,,,,,0,0,14,,,,,7,,,68,100
27992,note_off,,,,,152,0,8,,,,,1,,,68,100
27992,note_off,,,,,152,0,13,,,,,6,,,53,100
27992,note_off,,,,,152,0,15,,,,,7,,,53,100
27992,note_off,,,,,152,0,14,,,,,7,,,75,100
27992,note_off,,,,,152,0,10,,,,,4,,,53,100
28000,note_off,,,,,64,0,9,,,,,3,,,63,100
28012,note_off,,,,,76,0,7,,,,,0,,,72,100
28028,note_off,,,,,92,0,12,,,,,6,,,68,100
28032,note_on,,,,,40,0,8,,,,,1,,,67,55
28032,note_on,,,,,40,0,15,,,,,7,,,59,85
28032,note_on,,,,,0,0,15,,,,,7,,,55,85
28032,note_on,,,,,40,0,10,,,,,4,,,55,55
28032,note_on,,,,,40,0,14,,,,,7,,,74,85
28032,note_on,,,,,4,0,12,,,,,6,,,59,100
28032,note_on,,,,,40,0,13,,,,,6,,,55,100
28032,note_on,,,,,32,0,9,,,,,3,,,62,55
28032,note_on,,,,,20,0,7,,,,,0,,,72,99
28124,note_off,,,,,92,0,12,,,,,6,,,59,100
28124,note_off,,,,,92,0,7,,,,,0,,,72,100
28128,note_on,,,,,4,0,12,,,,,6,,,62,100
28128,note_on,,,,,4,0,7,,,,,0,,,71,98
28172,note_off,,,,,44,0,7,,,,,0,,,71,100
28176,note_on,,,,,4,0,7,,,,,0,,,72,97
28184,note_off,,,,,152,0,13,,,,,6,,,55,100
28184,note_off,,,,,152,0,15,,,,,7,,,55,100
28184,note_off,,,,,152,0,8,,,,,1,,,67,100
28184,note_off,,,,,152,0,10,,,,,4,,,55,100
28184,note_off,,,,,152,0,9,,,,,3,,,62,100
28220,note_off,,,,,44,0,7,,,,,0,,,72,100
28220,note_off,,,,,92,0,12,,,,,6,,,62,100
28224,note_on,,,,,40,0,10,,,,,4,,,55,55
28224,note_on,,,,,40,0,9,,,,,3,,,62,55
28224,note_on,,,,,4,0,12,,,,,6,,,67,100
28224,note_on,,,,,40,0,8,,,,,1,,,67,55
28224,note_on,,,,,40,0,13,,,,,6,,,55,100
28224,note_on,,,,,40,0,15,,,,,7,,,55,85
28224,note_on,,,,,4,0,7,,,,,0,,,71,97
28244,note_off,,,,,20,0,7,,,,,0,,,71,100
28248,note_on,,,,,4,0,7,,,,,0,,,72,96
28268,note_off,,,,,20,0,7,,,,,0,,,72,100
28272,note_on,,,,,4,0,7,,,,,0,,,71,96
28292,note_off,,,,,20,0,7,,,,,0,,,71,100
28296,note_on,,,,,4,0,7,,,,,0,,,72,96
28316,note_off,,,,,20,0,7,,,,,0,,,72,100
28316,note_off,,,,,92,0,12,,,,,6,,,67,100
28320,note_on,,,,,4,0,12,,,,,6,,,62,100
28320,note_on,,,,,4,0,7,,,,,0,,,71,96
28340,note_off,,,,,20,0,7,,,,,0,,,71,100
28344,note_on,,,,,4,0,7,,,,,0,,,72,95
28364,note_off,,,,,20,0,7,,,,,0,,,72,100
28368,note_on,,,,,4,0,7,,,,,0,,,71,95
28376,note_off,,,,,152,0,13,,,,,6,,,55,100
28376,note_off,,,,,152,0,9,,,,,3,,,62,100
28376,note_off,,,,,152,0,8,,,,,1,,,67,100
28376,note_off,,,,,152,0,15,,,,,7,,,55,100
28376,note_off,,,,,152,0,10,,,,,4,,,55,100
28388,note_off,,,,,20,0,7,,,,,0,,,71,100
28392,note_on,,,,,4,0,7,,,,,0,,,72,95
28412,note_off,,,,,92,0,12,,,,,6,,,62,100
28412,note_off,,,,,20,0,7,,,,,0,,,72,100
28416,note_on,,,,,40,0,13,,,,,6,,,43,100
28416,note_on,,,,,40,0,9,,,,,3,,,62,55
28416,note_on,,,,,4,0,12,,,,,6,,,59,100
28416,note_on,,,,,40,0,15,,,,,7,,,43,85
28416,note_on,,,,,40,0,8,,,,,1,,,67,55
28416,note_on,,,,,40,0,10,,,,,4,,,43,55
28416,note_on,,,,,4,0,7,,,,,0,,,71,95
28508,note_off,,,,,92,0,12,,,,,6,,,59,100
28512,note_on,,,,,4,0,12,,,,,6,,,62,100
28568,note_off,,,,,152,0,7,,,,,0,,,71,100
28568,note_off,,,,,152,0,13,,,,,6,,,43,100
28568,note_off,,,,,152,0,10,,,,,4,,,43,100
28568,note_off,,,,,152,0,9,,,,,3,,,62,100
28568,note_off,,,,,152,0,8,,,,,1,,,67,100
28568,note_off,,,,,152,0,15,,,,,7,,,43,100
28604,note_off,,,,,92,0,12,,,,,6,,,62,100
28608,note_on,,,,,40,0,9,,,,,3,,,62,55
28608,note_on,,,,,40,0,13,,,,,6,,,43,100
28608,note_on,,,,,4,0,12,,,,,6,,,67,100
28608,note_on,,,,,40,0,8,,,,,1,,,67,55
28608,note_on,,,,,40,0,7,,,,,0,,,72,93
28608,note_on,,,,,40,0,10,,,,,4,,,43,55
28608,note_on,,,,,40,0,15,,,,,7,,,43,85
28700,note_off,,,,,92,0,12,,,,,6,,,67,100
28704,note_on,,,,,4,0,12,,,,,6,,,62,100
28720,note_off,,,,,688,0,14,,,,,7,,,74,100
28720,note_off,,,,,112,0,15,,,,,7,,,59,100
28760,note_off,,,,,152,0,10,,,,,4,,,43,100
28760,note_off,,,,,40,0,15,,,,,7,,,43,100
28760,note_off,,,,,152,0,9,,,,,3,,,62,100
28760,note_off,,,,,152,0,7,,,,,0,,,72,100
28760,note_off,,,,,152,0,8,,,,,1,,,67,100
28760,note_off,,,,,152,0,13,,,,,6,,,43,100
28796,note_off,,,,,92,0,12,,,,,6,,,62,100
28800,note_on,,,,,40,0,15,,,,,7,,,60,85
28800,note_on,,,,,0,0,15,,,,,7,,,48,85
28800,note_on,,,,,40,0,7,,,,,0,,,72,91
28800,note_on,,,,,40,0,13,,,,,6,,,48,100
28800,note_on,,,,,40,0,8,,,,,1,,,67,55
28800,note_on,,,,,4,0,12,,,,,6,,,60,100
28800,note_on,,,,,40,0,9,,,,,3,,,63,55
28800,note_on,,,,,40,0,10,,,,,4,,,48,55
28800,note_on,,,,,80,0,14,,,,,7,,,75,85
28892,note_off,,,,,92,0,12,,,,,6,,,60,100
28896,note_on,,,,,4,0,12,,,,,6,,,63,100
28952,note_off,,,,,152,0,13,,,,,6,,,48,100
28952,note_off,,,,,152,0,14,,,,,7,,,75,100
28952,note_off,,,,,152,0,9,,,,,3,,,63,100
28952,note_off,,,,,152,0,8,,,,,1,,,67,100
28952,note_off,,,,,152,0,15,,,,,7,,,48,100
28952,note_off,,,,,152,0,10,,,,,4,,,48,100
28988,note_off,,,,,92,0,12,,,,,6,,,63,100
28992,note_on,,,,,40,0,14,,,,,7,,,74,85
28992,note_on,,,,,40,0,8,,,,,1,,,67,55
28992,note_on,,,,,4,0,12,,,,,6,,,67,100
28992,note_on,,,,,40,0,15,,,,,7,,,48,85
28992,note_on,,,,,40,0,13,,,,,6,,,48,100
28992,note_on,,,,,40,0,9,,,,,3,,,63,55
28992,note_on,,,,,40,0,10,,,,,4,,,48,55
29084,note_off,,,,,92,0,12,,,,,6,,,67,100
29088,note_on,,,,,4,0,12,,,,,6,,,63,100
29144,note_off,,,,,152,0,15,,,,,7,,,48,100
29144,note_off,,,,,152,0,13,,,,,6,,,48,100
29144,note_off,,,,,152,0,8,,,,,1,,,67,100
29144,note_off,,,,,152,0,10,,,,,4,,,48,100
29144,note_off,,,,,152,0,9,,,,,3,,,63,100
29144,note_off,,,,,152,0,14,,,,,7,,,74,100
29180,note_off,,,,,92,0,12,,,,,6,,,63,100
29184,note_on,,,,,40,0,9,,,,,3,,,63,55
29184,note_on,,,,,40,0,15,,,,,7,,,51,85
29184,note_on,,,,,40,0,13,,,,,6,,,51,100
29184,note_on,,,,,40,0,8,,,,,1,,,67,55
29184,note_on,,,,,40,0,14,,,,,7,,,72,85
29184,note_on,,,,,40,0,10,,,,,4,,,51,55
29184,note_on,,,,,4,0,12,,,,,6,,,60,100
29276,note_off,,,,,92,0,12,,,,,6,,,60,100
29280,note_on,,,,,4,0,12,,,,,6,,,63,100
29316,note_off,,,,,516,0,7,,,,,0,,,72,100
29336,note_off,,,,,152,0,9,,,,,3,,,63,100
29336,note_off,,,,,152,0,10,,,,,4,,,51,100
29336,note_off,,,,,152,0,13,,,,,6,,,51,100
29336,note_off,,,,,152,0,14,,,,,7,,,72,100
29336,note_off,,,,,152,0,15,,,,,7,,,51,100
29336,note_off,,,,,152,0,8,,,,,1,,,67,100
29372,note_off,,,,,92,0,12,,,,,6,,,63,100
29376,note_on,,,,,40,0,8,,,,,1,,,67,55
29376,note_on,,,,,40,0,13,,,,,6,,,51,100
29376,note_on,,,,,40,0,15,,,,,7,,,51,85
29376,note_on,,,,,4,0,12,,,,,6,,,67,100
29376,note_on,,,,,40,0,10,,,,,4,,,51,55
29376,note_on,,,,,40,0,9,,,,,3,,,63,55
29376,note_on,,,,,60,0,7,,,,,0,,,79,95
29376,note_on,,,,,40,0,14,,,,,7,,,67,85
29468,note_off,,,,,92,0,7,,,,,0,,,79,100
29468,note_off,,,,,92,0,12,,,,,6,,,67,100
29472,note_on,,,,,4,0,12,,,,,6,,,63,100
29472,note_on,,,,,4,0,7,,,,,0,,,77,94
29528,note_off,,,,,152,0,13,,,,,6,,,51,100
29528,note_off,,,,,152,0,14,,,,,7,,,67,100
29528,note_off,,,,,152,0,15,,,,,7,,,51,100
29528,note_off,,,,,152,0,8,,,,,1,,,67,100
29528,note_off,,,,,152,0,9,,,,,3,,,63,100
29528,note_off,,,,,152,0,10,,,,,4,,,51,100
29564,note_off,,,,,92,0,7,,,,,0,,,77,100
29564,note_off,,,,,92,0,12,,,,,6,,,63,100
29568,note_on,,,,,4,0,7,,,,,0,,,75,93
29568,note_on,,,,,40,0,9,,,,,3,,,63,55
29568,note_on,,,,,40,0,10,,,,,4,,,51,55
29568,note_on,,,,,40,0,8,,,,,1,,,72,55
29568,note_on,,,,,4,0,12,,,,,6,,,60,100
29568,note_on,,,,,40,0,15,,,,,7,,,51,85
29568,note_on,,,,,40,0,14,,,,,7,,,63,85
29568,note_on,,,,,40,0,13,,,,,6,,,51,100
29660,note_off,,,,,92,0,7,,,,,0,,,75,100
29660,note_off,,,,,92,0,12,,,,,6,,,60,100
29664,note_on,,,,,4,0,12,,,,,6,,,63,100
29664,note_on,,,,,4,0,7,,,,,0,,,74,91
29720,note_off,,,,,152,0,13,,,,,6,,,51,100
29720,note_off,,,,,152,0,8,,,,,1,,,72,100
29720,note_off,,,,,0,0,15,,,,,7,,,51,100
29720,note_off,,,,,152,0,9,,,,,3,,,63,100
29720,note_off,,,,,152,0,15,,,,,7,,,60,100
29720,note_off,,,,,152,0,10,,,,,4,,,51,100
29756,note_off,,,,,92,0,12,,,,,6,,,63,100
29756,note_off,,,,,92,0,7,,,,,0,,,74,100
29760,note_on,,,,,0,0,15,,,,,7,,,51,85
29760,note_on,,,,,40,0,15,,,,,7,,,55,85
29760,note_on,,,,,40,0,8,,,,,1,,,72,55
29760,note_on,,,,,40,0,10,,,,,4,,,51,55
29760,note_on,,,,,40,0,9,,,,,3,,,63,55
29760,note_on,,,,,40,0,13,,,,,6,,,51,100
29760,note_on,,,,,4,0,12,,,,,6,,,67,100
29760,note_on,,,,,4,0,7,,,,,0,,,72,90
29852,note_off,,,,,92,0,12,,,,,6,,,67,100
29852,note_off,,,,,92,0,7,,,,,0,,,72,100
29856,note_on,,,,,4,0,12,,,,,6,,,63,100
29856,note_on,,,,,4,0,7,,,,,0,,,70,88
29912,note_off,,,,,152,0,10,,,,,4,,,51,100
29912,note_off,,,,,0,0,15,,,,,7,,,51,100
29912,note_off,,,,,152,0,8,,,,,1,,,72,100
29912,note_off,,,,,152,0,9,,,,,3,,,63,100
29912,note_off,,,,,152,0,15,,,,,7,,,55,100
29912,note_off,,,,,152,0,13,,,,,6,,,51,100
29920,note_off,,,,,64,0,7,,,,,0,,,70,100
29948,note_off,,,,,92,0,12,,,,,6,,,63,100
29952,note_on,,,,,32,0,7,,,,,0,,,69,85
29952,note_on,,,,,4,0,12,,,,,6,,,60,100
29952,note_on,,,,,40,0,9,,,,,3,,,63,55
29952,note_on,,,,,40,0,10,,,,,4,,,53,55
29952,note_on,,,,,40,0,8,,,,,1,,,72,55
29952,note_on,,,,,40,0,13,,,,,6,,,53,100
29952,note_on,,,,,0,0,15,,,,,7,,,53,85
29952,note_on,,,,,40,0,15,,,,,7,,,57,85
30044,note_off,,,,,92,0,12,,,,,6,,,60,100
30044,note_off,,,,,92,0,7,,,,,0,,,69,100
30048,note_on,,,,,4,0,12,,,,,6,,,63,100
30048,note_on,,,,,4,0,7,,,,,0,,,65,85
30104,note_off,,,,,152,0,10,,,,,4,,,53,100
30104,note_off,,,,,152,0,9,,,,,3,,,63,100
30104,note_off,,,,,152,0,13,,,,,6,,,53,100
30104,note_off,,,,,152,0,8,,,,,1,,,72,100
30104,note_off,,,,,152,0,15,,,,,7,,,53,100
30140,note_off,,,,,92,0,12,,,,,6,,,63,100
30140,note_off,,,,,92,0,7,,,,,0,,,65,100
30144,note_on,,,,,4,0,7,,,,,0,,,69,86
30144,note_on,,,,,40,0,10,,,,,4,,,53,55
30144,note_on,,,,,40,0,8,,,,,1,,,72,55
30144,note_on,,,,,40,0,13,,,,,6,,,53,100
30144,note_on,,,,,40,0,15,,,,,7,,,53,85
30144,note_on,,,,,40,0,9,,,,,3,,,63,55
30144,note_on,,,,,4,0,12,,,,,6,,,69,100
30236,note_off,,,,,92,0,7,,,,,0,,,69,100
30236,note_off,,,,,92,0,12,,,,,6,,,69,100
30240,note_on,,,,,4,0,7,,,,,0,,,70,86
30240,note_on,,,,,4,0,12,,,,,6,,,63,100
30296,note_off,,,,,152,0,10,,,,,4,,,53,100
30296,note_off,,,,,152,0,15,,,,,7,,,57,100
30296,note_off,,,,,0,0,15,,,,,7,,,53,100
30296,note_off,,,,,152,0,8,,,,,1,,,72,100
30296,note_off,,,,,152,0,13,,,,,6,,,53,100
30296,note_off,,,,,152,0,9,,,,,3,,,63,100
30296,note_off,,,,,728,0,14,,,,,7,,,63,100
30304,note_off,,,,,64,0,7,,,,,0,,,70,100
30332,note_off,,,,,92,0,12,,,,,6,,,63,100
30336,note_on,,,,,40,0,15,,,,,7,,,53,85
30336,note_on,,,,,4,0,12,,,,,6,,,60,100
30336,note_on,,,,,40,0,9,,,,,3,,,63,55
30336,note_on,,,,,40,0,14,,,,,7,,,60,85
30336,note_on,,,,,0,0,14,,,,,7,,,69,85
30336,note_on,,,,,40,0,13,,,,,6,,,53,100
30336,note_on,,,,,40,0,10,,,,,4,,,53,55
30336,note_on,,,,,32,0,7,,,,,0,,,72,87
30336,note_on,,,,,40,0,8,,,,,1,,,69,55
30428,note_off,,,,,92,0,7,,,,,0,,,72,100
30428,note_off,,,,,92,0,12,,,,,6,,,60,100
30432,note_on,,,,,4,0,7,,,,,0,,,69,88
30432,note_on,,,,,4,0,12,,,,,6,,,63,100
30488,note_off,,,,,152,0,10,,,,,4,,,53,100
30488,note_off,,,,,152,0,9,,,,,3,,,63,100
30488,note_off,,,,,152,0,15,,,,,7,,,53,100
30488,note_off,,,,,152,0,8,,,,,1,,,69,100
30488,note_off,,,,,152,0,13,,,,,6,,,53,100
30524,note_off,,,,,92,0,12,,,,,6,,,63,100
30524,note_off,,,,,92,0,7,,,,,0,,,69,100
30528,note_on,,,,,40,0,15,,,,,7,,,53,85
30528,note_on,,,,,40,0,9,,,,,3,,,63,55
30528,note_on,,,,,40,0,10,,,,,4,,,53,55
30528,note_on,,,,,4,0,12,,,,,6,,,69,100
30528,note_on,,,,,4,0,7,,,,,0,,,72,88
30528,note_on,,,,,40,0,13,,,,,6,,,53,100
30528,note_on,,,,,40,0,8,,,,,1,,,69,55
30620,note_off,,,,,92,0,12,,,,,6,,,69,100
30620,note_off,,,,,92,0,7,,,,,0,,,72,100
30624,note_on,,,,,4,0,7,,,,,0,,,74,89
30624,note_on,,,,,4,0,12,,,,,6,,,63,100
30680,note_off,,,,,152,0,13,,,,,6,,,53,100
30680,note_off,,,,,152,0,9,,,,,3,,,63,100
30680,note_off,,,,,152,0,8,,,,,1,,,69,100
30680,note_off,,,,,344,0,14,,,,,7,,,69,100
30680,note_off,,,,,152,0,15,,,,,7,,,53,100
30680,note_off,,,,,152,0,10,,,,,4,,,53,100
30688,note_off,,,,,64,0,7,,,,,0,,,74,100
30716,note_off,,,,,92,0,12,,,,,6,,,63,100
30720,note_on,,,,,4,0,12,,,,,6,,,60,100
30720,note_on,,,,,40,0,13,,,,,6,,,53,100
30720,note_on,,,,,40,0,14,,,,,7,,,63,85
30720,note_on,,,,,40,0,9,,,,,3,,,60,55
30720,note_on,,,,,40,0,10,,,,,4,,,53,55
30720,note_on,,,,,40,0,15,,,,,7,,,53,85
30720,note_on,,,,,40,0,8,,,,,1,,,69,55
30720,note_on,,,,,32,0,7,,,,,0,,,75,89
30812,note_off,,,,,92,0,7,,,,,0,,,75,100
30812,note_off,,,,,92,0,12,,,,,6,,,60,100
30816,note_on,,,,,4,0,12,,,,,6,,,63,100
30816,note_on,,,,,4,0,7,,,,,0,,,72,90
30852,note_off,,,,,132,0,14,,,,,7,,,60,100
30872,note_off,,,,,152,0,15,,,,,7,,,53,100
30872,note_off,,,,,152,0,8,,,,,1,,,69,100
30872,note_off,,,,,152,0,13,,,,,6,,,53,100
30872,note_off,,,,,152,0,9,,,,,3,,,60,100
30872,note_off,,,,,152,0,10,,,,,4,,,53,100
30908,note_off,,,,,92,0,12,,,,,6,,,63,100
30908,note_off,,,,,92,0,7,,,,,0,,,72,100
30912,note_on,,,,,40,0,8,,,,,1,,,69,55
30912,note_on,,,,,40,0,13,,,,,6,,,53,100
30912,note_on,,,,,40,0,10,,,,,4,,,53,55
30912,note_on,,,,,60,0,14,,,,,7,,,57,85
30912,note_on,,,,,40,0,9,,,,,3,,,60,55
30912,note_on,,,,,40,0,15,,,,,7,,,53,85
30912,note_on,,,,,4,0,12,,,,,6,,,69,100
30912,note_on,,,,,4,0,7,,,,,0,,,74,91
31004,note_off,,,,,92,0,12,,,,,6,,,69,100
31004,note_off,,,,,92,0,7,,,,,0,,,74,100
31008,note_on,,,,,4,0,12,,,,,6,,,63,100
31008,note_on,,,,,4,0,7,,,,,0,,,75,91
31064,note_off,,,,,152,0,14,,,,,7,,,63,100
31064,note_off,,,,,152,0,8,,,,,1,,,69,100
31064,note_off,,,,,152,0,13,,,,,6,,,53,100
31064,note_off,,,,,152,0,9,,,,,3,,,60,100
31064,note_off,,,,,152,0,10,,,,,4,,,53,100
31064,note_off,,,,,152,0,15,,,,,7,,,53,100
31072,note_off,,,,,64,0,7,,,,,0,,,75,100
31084,note_off,,,,,20,0,14,,,,,7,,,57,100
31100,note_off,,,,,92,0,12,,,,,6,,,63,100
31104,note_on,,,,,40,0,10,,,,,4,,,46,55
31104,note_on,,,,,20,0,14,,,,,7,,,58,85
31104,note_on,,,,,32,0,7,,,,,0,,,74,92
31104,note_on,,,,,40,0,8,,,,,1,,,65,55
31104,note_on,,,,,40,0,15,,,,,7,,,46,85
31104,note_on,,,,,40,0,9,,,,,3,,,62,55
31104,note_on,,,,,40,0,13,,,,,6,,,46,100
31104,note_on,,,,,0,0,14,,,,,7,,,62,85
31104,note_on,,,,,4,0,12,,,,,6,,,62,100
31196,note_off,,,,,92,0,12,,,,,6,,,62,100
31200,note_on,,,,,4,0,12,,,,,6,,,65,100
31256,note_off,,,,,152,0,10,,,,,4,,,46,100
31256,note_off,,,,,152,0,7,,,,,0,,,74,100
31256,note_off,,,,,152,0,15,,,,,7,,,46,100
31256,note_off,,,,,152,0,13,,,,,6,,,46,100
31256,note_off,,,,,152,0,9,,,,,3,,,62,100
31292,note_off,,,,,92,0,12,,,,,6,,,65,100
31292,note_off,,,,,188,0,8,,,,,1,,,65,100
31296,note_on,,,,,4,0,12,,,,,6,,,70,100
31296,note_on,,,,,40,0,10,,,,,4,,,46,55
31296,note_on,,,,,40,0,13,,,,,6,,,46,100
31296,note_on,,,,,4,0,8,,,,,1,,,77,55
31296,note_on,,,,,40,0,7,,,,,0,,,70,93
31296,note_on,,,,,40,0,9,,,,,3,,,62,55
31296,note_on,,,,,40,0,15,,,,,7,,,46,85
31388,note_off,,,,,92,0,12,,,,,6,,,70,100
31392,note_on,,,,,4,0,12,,,,,6,,,65,100
31448,note_off,,,,,152,0,13,,,,,6,,,46,100
31448,note_off,,,,,152,0,15,,,,,7,,,46,100
31448,note_off,,,,,344,0,14,,,,,7,,,58,100
31448,note_off,,,,,152,0,8,,,,,1,,,77,100
31448,note_off,,,,,152,0,9,,,,,3,,,62,100
31448,note_off,,,,,152,0,7,,,,,0,,,70,100
31448,note_off,,,,,152,0,10,,,,,4,,,46,100
31484,note_off,,,,,92,0,12,,,,,6,,,65,100
31488,note_on,,,,,40,0,13,,,,,6,,,58,100
31488,note_on,,,,,40,0,8,,,,,1,,,74,55
31488,note_on,,,,,40,0,7,,,,,0,,,79,94
31488,note_on,,,,,40,0,10,,,,,4,,,58,55
31488,note_on,,,,,40,0,14,,,,,7,,,67,85
31488,note_on,,,,,4,0,12,,,,,6,,,62,100
31488,note_on,,,,,40,0,9,,,,,3,,,62,55
31488,note_on,,,,,40,0,15,,,,,7,,,58,85
31580,note_off,,,,,92,0,12,,,,,6,,,62,100
31584,note_on,,,,,4,0,12,,,,,6,,,67,100
31640,note_off,,,,,152,0,8,,,,,1,,,74,100
31640,note_off,,,,,152,0,9,,,,,3,,,62,100
31640,note_off,,,,,152,0,10,,,,,4,,,58,100
31640,note_off,,,,,152,0,15,,,,,7,,,58,100
31640,note_off,,,,,152,0,13,,,,,6,,,58,100
31676,note_off,,,,,92,0,12,,,,,6,,,67,100
31680,note_on,,,,,40,0,8,,,,,1,,,74,55
31680,note_on,,,,,40,0,15,,,,,7,,,58,85
31680,note_on,,,,,40,0,10,,,,,4,,,58,55
31680,note_on,,,,,40,0,9,,,,,3,,,62,55
31680,note_on,,,,,4,0,12,,,,,6,,,70,100
31680,note_on,,,,,40,0,13,,,,,6,,,58,100
31772,note_off,,,,,92,0,12,,,,,6,,,70,100
31776,note_on,,,,,4,0,12,,,,,6,,,67,100
31832,note_off,,,,,152,0,9,,,,,3,,,62,100
31832,note_off,,,,,152,0,8,,,,,1,,,74,100
31832,note_off,,,,,152,0,15,,,,,7,,,58,100
31832,note_off,,,,,152,0,13,,,,,6,,,58,100
31832,note_off,,,,,152,0,10,,,,,4,,,58,100
31868,note_off,,,,,92,0,12,,,,,6,,,67,100
31872,note_on,,,,,40,0,8,,,,,1,,,74,55
31872,note_on,,,,,40,0,9,,,,,3,,,62,55
31872,note_on,,,,,40,0,13,,,,,6,,,58,100
31872,note_on,,,,,4,0,12,,,,,6,,,62,100
31872,note_on,,,,,40,0,15,,,,,7,,,58,85
31872,note_on,,,,,40,0,10,,,,,4,,,58,55
31964,note_off,,,,,92,0,12,,,,,6,,,62,100
31968,note_on,,,,,4,0,12,,,,,6,,,67,100
32004,note_off,,,,,516,0,7,,,,,0,,,79,100
32024,note_off,,,,,152,0,15,,,,,7,,,58,100
32024,note_off,,,,,152,0,13,,,,,6,,,58,100
32024,note_off,,,,,152,0,8,,,,,1,,,74,100
32024,note_off,,,,,152,0,10,,,,,4,,,58,100
32060,note_off,,,,,92,0,12,,,,,6,,,67,100
32060,note_off,,,,,188,0,9,,,,,3,,,62,100
32064,note_on,,,,,40,0,13,,,,,6,,,58,100
32064,note_on,,,,,4,0,12,,,,,6,,,70,100
32064,note_on,,,,,40,0,8,,,,,1,,,74,55
32064,note_on,,,,,40,0,10,,,,,4,,,58,55
32064,note_on,,,,,4,0,9,,,,,3,,,74,55
32064,note_on,,,,,40,0,15,,,,,7,,,58,85
32064,note_on,,,,,60,0,7,,,,,0,,,79,100
32140,note_off,,,,,652,0,14,,,,,7,,,62,100
32156,note_off,,,,,92,0,12,,,,,6,,,70,100
32160,note_on,,,,,4,0,12,,,,,6,,,67,100
32216,note_off,,,,,152,0,15,,,,,7,,,58,100
32216,note_off,,,,,152,0,10,,,,,4,,,58,100
32216,note_off,,,,,152,0,13,,,,,6,,,58,100
32216,note_off,,,,,152,0,7,,,,,0,,,79,100
32216,note_off,,,,,152,0,9,,,,,3,,,74,100
32216,note_off,,,,,152,0,8,,,,,1,,,74,100
32252,note_off,,,,,92,0,12,,,,,6,,,67,100
32256,note_on,,,,,116,0,14,,,,,7,,,60,85
32256,note_on,,,,,40,0,13,,,,,6,,,57,100
32256,note_on,,,,,40,0,7,,,,,0,,,79,100
32256,note_on,,,,,40,0,8,,,,,1,,,75,55
32256,note_on,,,,,4,0,12,,,,,6,,,60,100
32256,note_on,,,,,40,0,10,,,,,4,,,57,55
32256,note_on,,,,,40,0,15,,,,,7,,,57,85
32256,note_on,,,,,40,0,9,,,,,3,,,72,55
32348,note_off,,,,,92,0,12,,,,,6,,,60,100
32348,note_off,,,,,92,0,7,,,,,0,,,79,100
32352,note_on,,,,,4,0,12,,,,,6,,,63,100
32352,note_on,,,,,4,0,7,,,,,0,,,75,98
32408,note_off,,,,,152,0,10,,,,,4,,,57,100
32408,note_off,,,,,152,0,13,,,,,6,,,57,100
32408,note_off,,,,,152,0,9,,,,,3,,,72,100
32408,note_off,,,,,152,0,15,,,,,7,,,57,100
32408,note_off,,,,,152,0,8,,,,,1,,,75,100
32444,note_off,,,,,92,0,7,,,,,0,,,75,100
32444,note_off,,,,,92,0,12,,,,,6,,,63,100
32448,note_on,,,,,4,0,12,,,,,6,,,67,100
32448,note_on,,,,,40,0,10,,,,,4,,,57,55
32448,note_on,,,,,40,0,8,,,,,1,,,75,55
32448,note_on,,,,,4,0,7,,,,,0,,,74,95
32448,note_on,,,,,40,0,13,,,,,6,,,57,100
32448,note_on,,,,,40,0,9,,,,,3,,,72,55
32448,note_on,,,,,40,0,15,,,,,7,,,57,85
32540,note_off,,,,,92,0,12,,,,,6,,,67,100
32540,note_off,,,,,92,0,7,,,,,0,,,74,100
32544,note_on,,,,,4,0,7,,,,,0,,,72,93
32544,note_on,,,,,4,0,12,,,,,6,,,63,100
32600,note_off,,,,,152,0,8,,,,,1,,,75,100
32600,note_off,,,,,152,0,9,,,,,3,,,72,100
32600,note_off,,,,,152,0,15,,,,,7,,,57,100
32600,note_off,,,,,152,0,10,,,,,4,,,57,100
32600,note_off,,,,,152,0,13,,,,,6,,,57,100
32608,note_off,,,,,64,0,7,,,,,0,,,72,100
32636,note_off,,,,,92,0,12,,,,,6,,,63,100
32640,note_on,,,,,40,0,9,,,,,3,,,69,55
32640,note_on,,,,,40,0,10,,,,,4,,,57,55
32640,note_on,,,,,40,0,15,,,,,7,,,57,85
32640,note_on,,,,,32,0,7,,,,,0,,,79,97
32640,note_on,,,,,4,0,12,,,,,6,,,60,100
32640,note_on,,,,,40,0,8,,,,,1,,,72,55
32640,note_on,,,,,40,0,13,,,,,6,,,57,100
32732,note_off,,,,,92,0,12,,,,,6,,,60,100
32732,note_off,,,,,92,0,7,,,,,0,,,79,100
32736,note_on,,,,,4,0,12,,,,,6,,,63,100
32736,note_on,,,,,4,0,7,,,,,0,,,75,96
32792,note_off,,,,,152,0,13,,,,,6,,,57,100
32792,note_off,,,,,152,0,15,,,,,7,,,57,100
32792,note_off,,,,,152,0,8,,,,,1,,,72,100
32792,note_off,,,,,152,0,9,,,,,3,,,69,100
32792,note_off,,,,,152,0,10,,,,,4,,,57,100
32828,note_off,,,,,92,0,12,,,,,6,,,63,100
32828,note_off,,,,,92,0,7,,,,,0,,,75,100
32832,note_on,,,,,40,0,15,,,,,7,,,57,85
32832,note_on,,,,,40,0,9,,,,,3,,,69,55
32832,note_on,,,,,4,0,7,,,,,0,,,74,94
32832,note_on,,,,,40,0,13,,,,,6,,,57,100
32832,note_on,,,,,40,0,8,,,,,1,,,72,55
32832,note_on,,,,,40,0,10,,,,,4,,,57,55
32832,note_on,,,,,4,0,12,,,,,6,,,67,100
32924,note_off,,,,,92,0,7,,,,,0,,,74,100
32924,note_off,,,,,92,0,12,,,,,6,,,67,100
32928,note_on,,,,,4,0,7,,,,,0,,,72,92
32928,note_on,,,,,4,0,12,,,,,6,,,63,100
32944,note_off,,,,,688,0,14,,,,,7,,,67,100
32984,note_off,,,,,152,0,9,,,,,3,,,69,100
32984,note_off,,,,,152,0,8,,,,,1,,,72,100
32984,note_off,,,,,152,0,13,,,,,6,,,57,100
32984,note_off,,,,,152,0,15,,,,,7,,,57,100
32984,note_off,,,,,152,0,10,,,,,4,,,57,100
32992,note_off,,,,,64,0,7,,,,,0,,,72,100
33020,note_off,,,,,92,0,12,,,,,6,,,63,100
33024,note_on,,,,,40,0,13,,,,,6,,,57,100
33024,note_on,,,,,4,0,12,,,,,6,,,60,100
33024,note_on,,,,,40,0,9,,,,,3,,,69,55
33024,note_on,,,,,40,0,10,,,,,4,,,57,55
33024,note_on,,,,,80,0,14,,,,,7,,,65,85
33024,note_on,,,,,40,0,8,,,,,1,,,72,55
33024,note_on,,,,,40,0,15,,,,,7,,,57,85
33024,note_on,,,,,32,0,7,,,,,0,,,77,90
33116,note_off,,,,,92,0,12,,,,,6,,,60,100
33120,note_on,,,,,4,0,12,,,,,6,,,65,100
33176,note_off,,,,,152,0,9,,,,,3,,,69,100
33176,note_off,,,,,152,0,10,,,,,4,,,57,100
33176,note_off,,,,,152,0,8,,,,,1,,,72,100
33176,note_off,,,,,152,0,15,,,,,7,,,57,100
33176,note_off,,,,,152,0,13,,,,,6,,,57,100
33212,note_off,,,,,92,0,12,,,,,6,,,65,100
33216,note_on,,,,,40,0,10,,,,,4,,,57,55
33216,note_on,,,,,40,0,9,,,,,3,,,69,55
33216,note_on,,,,,40,0,13,,,,,6,,,57,100
33216,note_on,,,,,40,0,15,,,,,7,,,57,85
33216,note_on,,,,,40,0,8,,,,,1,,,72,55
33216,note_on,,,,,4,0,12,,,,,6,,,69,100
33292,note_off,,,,,268,0,14,,,,,7,,,60,100
33308,note_off,,,,,92,0,12,,,,,6,,,69,100
33312,note_on,,,,,4,0,12,,,,,6,,,65,100
33368,note_off,,,,,152,0,13,,,,,6,,,57,100
33368,note_off,,,,,152,0,15,,,,,7,,,57,100
33368,note_off,,,,,152,0,10,,,,,4,,,57,100
33368,note_off,,,,,344,0,7,,,,,0,,,77,100
33368,note_off,,,,,152,0,8,,,,,1,,,72,100
33368,note_off,,,,,152,0,9,,,,,3,,,69,100
33404,note_off,,,,,92,0,12,,,,,6,,,65,100
33408,note_on,,,,,40,0,8,,,,,1,,,74,55
33408,note_on,,,,,40,0,9,,,,,3,,,70,55
33408,note_on,,,,,40,0,7,,,,,0,,,77,95
33408,note_on,,,,,40,0,10,,,,,4,,,55,55
33408,note_on,,,,,116,0,14,,,,,7,,,58,85
33408,note_on,,,,,40,0,13,,,,,6,,,55,100
33408,note_on,,,,,40,0,15,,,,,7,,,55,85
33408,note_on,,,,,4,0,12,,,,,6,,,58,100
33500,note_off,,,,,92,0,7,,,,,0,,,77,100
33500,note_off,,,,,92,0,12,,,,,6,,,58,100
33504,note_on,,,,,4,0,7,,,,,0,,,74,93
33504,note_on,,,,,4,0,12,,,,,6,,,62,100
33560,note_off,,,,,152,0,13,,,,,6,,,55,100
33560,note_off,,,,,152,0,8,,,,,1,,,74,100
33560,note_off,,,,,152,0,9,,,,,3,,,70,100
33560,note_off,,,,,152,0,15,,,,,7,,,55,100
33560,note_off,,,,,152,0,10,,,,,4,,,55,100
33596,note_off,,,,,92,0,7,,,,,0,,,74,100
33596,note_off,,,,,92,0,12,,,,,6,,,62,100
33600,note_on,,,,,4,0,12,,,,,6,,,65,100
33600,note_on,,,,,40,0,10,,,,,4,,,55,55
33600,note_on,,,,,40,0,13,,,,,6,,,55,100
33600,note_on,,,,,40,0,9,,,,,3,,,70,55
33600,note_on,,,,,4,0,7,,,,,0,,,72,90
33600,note_on,,,,,40,0,15,,,,,7,,,55,85
33600,note_on,,,,,40,0,8,,,,,1,,,74,55
33692,note_off,,,,,92,0,12,,,,,6,,,65,100
33692,note_off,,,,,92,0,7,,,,,0,,,72,100
33696,note_on,,,,,4,0,12,,,,,6,,,62,100
33696,note_on,,,,,4,0,7,,,,,0,,,70,88
33752,note_off,,,,,152,0,10,,,,,4,,,55,100
33752,note_off,,,,,152,0,15,,,,,7,,,55,100
33752,note_off,,,,,152,0,9,,,,,3,,,70,100
33752,note_off,,,,,152,0,13,,,,,6,,,55,100
33752,note_off,,,,,152,0,8,,,,,1,,,74,100
33760,note_off,,,,,64,0,7,,,,,0,,,70,100
33788,note_off,,,,,92,0,12,,,,,6,,,62,100
33792,note_on,,,,,40,0,8,,,,,1,,,70,55
33792,note_on,,,,,32,0,7,,,,,0,,,77,92
33792,note_on,,,,,40,0,10,,,,,4,,,55,55
33792,note_on,,,,,40,0,9,,,,,3,,,67,55
33792,note_on,,,,,4,0,12,,,,,6,,,58,100
33792,note_on,,,,,40,0,15,,,,,7,,,55,85
33792,note_on,,,,,40,0,13,,,,,6,,,55,100
33884,note_off,,,,,92,0,12,,,,,6,,,58,100
33884,note_off,,,,,92,0,7,,,,,0,,,77,100
33888,note_on,,,,,4,0,12,,,,,6,,,62,100
33888,note_on,,,,,4,0,7,,,,,0,,,74,91
33944,note_off,,,,,152,0,9,,,,,3,,,67,100
33944,note_off,,,,,152,0,10,,,,,4,,,55,100
33944,note_off,,,,,152,0,15,,,,,7,,,55,100
33944,note_off,,,,,152,0,8,,,,,1,,,70,100
33944,note_off,,,,,152,0,13,,,,,6,,,55,100
33980,note_off,,,,,92,0,7,,,,,0,,,74,100
33980,note_off,,,,,92,0,12,,,,,6,,,62,100
33984,note_on,,,,,40,0,15,,,,,7,,,55,85
33984,note_on,,,,,4,0,12,,,,,6,,,65,100
33984,note_on,,,,,40,0,9,,,,,3,,,67,55
33984,note_on,,,,,4,0,7,,,,,0,,,72,89
33984,note_on,,,,,40,0,8,,,,,1,,,70,55
33984,note_on,,,,,40,0,10,,,,,4,,,55,55
33984,note_on,,,,,40,0,13,,,,,6,,,55,100
34076,note_off,,,,,92,0,12,,,,,6,,,65,100
34076,note_off,,,,,92,0,7,,,,,0,,,72,100
34080,note_on,,,,,4,0,12,,,,,6,,,62,100
34080,note_on,,,,,4,0,7,,,,,0,,,70,87
34096,note_off,,,,,688,0,14,,,,,7,,,65,100
34136,note_off,,,,,152,0,10,,,,,4,,,55,100
34136,note_off,,,,,152,0,13,,,,,6,,,55,100
34136,note_off,,,,,152,0,8,,,,,1,,,70,100
34136,note_off,,,,,152,0,15,,,,,7,,,55,100
34136,note_off,,,,,152,0,9,,,,,3,,,67,100
34144,note_off,,,,,64,0,7,,,,,0,,,70,100
34172,note_off,,,,,92,0,12,,,,,6,,,62,100
34176,note_on,,,,,40,0,8,,,,,1,,,70,55
34176,note_on,,,,,40,0,15,,,,,7,,,55,85
34176,note_on,,,,,80,0,14,,,,,7,,,63,85
34176,note_on,,,,,4,0,12,,,,,6,,,58,100
34176,note_on,,,,,40,0,13,,,,,6,,,55,100
34176,note_on,,,,,32,0,7,,,,,0,,,75,88
34176,note_on,,,,,40,0,9,,,,,3,,,67,55
34176,note_on,,,,,40,0,10,,,,,4,,,55,55
34268,note_off,,,,,92,0,12,,,,,6,,,58,100
34272,note_on,,,,,4,0,12,,,,,6,,,63,100
34328,note_off,,,,,152,0,10,,,,,4,,,55,100
34328,note_off,,,,,152,0,13,,,,,6,,,55,100
34328,note_off,,,,,152,0,9,,,,,3,,,67,100
34328,note_off,,,,,152,0,15,,,,,7,,,55,100
34328,note_off,,,,,152,0,8,,,,,1,,,70,100
34364,note_off,,,,,92,0,12,,,,,6,,,63,100
34368,note_on,,,,,40,0,15,,,,,7,,,55,85
34368,note_on,,,,,40,0,10,,,,,4,,,55,55
34368,note_on,,,,,4,0,12,,,,,6,,,67,100
34368,note_on,,,,,40,0,13,,,,,6,,,55,100
34368,note_on,,,,,40,0,8,,,,,1,,,70,55
34368,note_on,,,,,40,0,9,,,,,3,,,67,55
34444,note_off,,,,,268,0,14,,,,,7,,,58,100
34460,note_off,,,,,92,0,12,,,,,6,,,67,100
34464,note_on,,,,,4,0,12,,,,,6,,,63,100
34520,note_off,,,,,152,0,9,,,,,3,,,67,100
34520,note_off,,,,,152,0,13,,,,,6,,,55,100
34520,note_off,,,,,152,0,10,,,,,4,,,55,100
34520,note_off,,,,,152,0,8,,,,,1,,,70,100
34520,note_off,,,,,344,0,7,,,,,0,,,75,100
34520,note_off,,,,,152,0,15,,,,,7,,,55,100
34556,note_off,,,,,92,0,12,,,,,6,,,63,100
34560,note_on,,,,,4,0,12,,,,,6,,,57,100
34560,note_on,,,,,40,0,8,,,,,1,,,72,55
34560,note_on,,,,,40,0,7,,,,,0,,,75,90
34560,note_on,,,,,0,0,15,,,,,7,,,53,85
34560,note_on,,,,,40,0,15,,,,,7,,,57,85
34560,note_on,,,,,40,0,9,,,,,3,,,69,55
34560,note_on,,,,,40,0,10,,,,,4,,,53,55
34560,note_on,,,,,40,0,13,,,,,6,,,53,100
34652,note_off,,,,,92,0,7,,,,,0,,,75,100
34652,note_off,,,,,92,0,12,,,,,6,,,57,100
34656,note_on,,,,,4,0,12,,,,,6,,,60,100
34656,note_on,,,,,4,0,7,,,,,0,,,72,89
34712,note_off,,,,,152,0,10,,,,,4,,,53,100
34712,note_off,,,,,152,0,13,,,,,6,,,53,100
34712,note_off,,,,,152,0,15,,,,,7,,,53,100
34712,note_off,,,,,152,0,9,,,,,3,,,69,100
34712,note_off,,,,,152,0,8,,,,,1,,,72,100
34748,note_off,,,,,92,0,7,,,,,0,,,72,100
34748,note_off,,,,,92,0,12,,,,,6,,,60,100
34752,note_on,,,,,40,0,13,,,,,6,,,53,100
34752,note_on,,,,,40,0,9,,,,,3,,,69,55
34752,note_on,,,,,40,0,8,,,,,1,,,72,55
34752,note_on,,,,,4,0,12,,,,,6,,,63,100
34752,note_on,,,,,4,0,7,,,,,0,,,70,88
34752,note_on,,,,,40,0,15,,,,,7,,,53,85
34752,note_on,,,,,40,0,10,,,,,4,,,53,55
34844,note_off,,,,,92,0,7,,,,,0,,,70,100
34844,note_off,,,,,92,0,12,,,,,6,,,63,100
34848,note_on,,,,,4,0,7,,,,,0,,,69,87
34848,note_on,,,,,4,0,12,,,,,6,,,60,100
34904,note_off,,,,,152,0,15,,,,,7,,,53,100
34904,note_off,,,,,152,0,9,,,,,3,,,69,100
34904,note_off,,,,,152,0,10,,,,,4,,,53,100
34904,note_off,,,,,460,0,14,,,,,7,,,63,100
34904,note_off,,,,,152,0,13,,,,,6,,,53,100
34904,note_off,,,,,152,0,8,,,,,1,,,72,100
34912,note_off,,,,,64,0,7,,,,,0,,,69,100
34940,note_off,,,,,92,0,12,,,,,6,,,60,100
34944,note_on,,,,,40,0,10,,,,,4,,,53,55
34944,note_on,,,,,32,0,7,,,,,0,,,72,86
34944,note_on,,,,,40,0,14,,,,,7,,,72,85
34944,note_on,,,,,40,0,8,,,,,1,,,72,55
34944,note_on,,,,,40,0,15,,,,,7,,,53,85
34944,note_on,,,,,40,0,9,,,,,3,,,69,55
34944,note_on,,,,,4,0,12,,,,,6,,,57,100
34944,note_on,,,,,40,0,13,,,,,6,,,53,100
35036,note_off,,,,,92,0,12,,,,,6,,,57,100
35036,note_off,,,,,92,0,7,,,,,0,,,72,100
35040,note_on,,,,,4,0,7,,,,,0,,,69,85
35040,note_on,,,,,4,0,12,,,,,6,,,60,100
35096,note_off,,,,,152,0,15,,,,,7,,,53,100
35096,note_off,,,,,152,0,9,,,,,3,,,69,100
35096,note_off,,,,,152,0,10,,,,,4,,,53,100
35096,note_off,,,,,152,0,8,,,,,1,,,72,100
35096,note_off,,,,,152,0,13,,,,,6,,,53,100
35132,note_off,,,,,92,0,12,,,,,6,,,60,100
35132,note_off,,,,,92,0,7,,,,,0,,,69,100
35136,note_on,,,,,40,0,10,,,,,4,,,53,55
35136,note_on,,,,,40,0,9,,,,,3,,,69,55
35136,note_on,,,,,4,0,12,,,,,6,,,63,100
35136,note_on,,,,,40,0,13,,,,,6,,,53,100
35136,note_on,,,,,40,0,15,,,,,7,,,53,85
35136,note_on,,,,,40,0,8,,,,,1,,,72,55
35136,note_on,,,,,4,0,7,,,,,0,,,67,84
35228,note_off,,,,,92,0,7,,,,,0,,,67,100
35228,note_off,,,,,92,0,12,,,,,6,,,63,100
35232,note_on,,,,,4,0,7,,,,,0,,,65,83
35232,note_on,,,,,4,0,12,,,,,6,,,60,100
35288,note_off,,,,,152,0,8,,,,,1,,,72,100
35288,note_off,,,,,344,0,14,,,,,7,,,72,100
35288,note_off,,,,,152,0,13,,,,,6,,,53,100
35288,note_off,,,,,152,0,10,,,,,4,,,53,100
35288,note_off,,,,,152,0,9,,,,,3,,,69,100
35288,note_off,,,,,152,0,15,,,,,7,,,53,100
35296,note_off,,,,,64,0,7,,,,,0,,,65,100
35324,note_off,,,,,92,0,12,,,,,6,,,60,100
35328,note_on,,,,,40,0,14,,,,,7,,,75,85
35328,note_on,,,,,40,0,10,,,,,4,,,53,55
35328,note_on,,,,,40,0,15,,,,,7,,,53,85
35328,note_on,,,,,32,0,7,,,,,0,,,81,92
35328,note_on,,,,,4,0,12,,,,,6,,,57,100
35328,note_on,,,,,40,0,13,,,,,6,,,53,100
35328,note_on,,,,,40,0,8,,,,,1,,,72,55
35328,note_on,,,,,40,0,9,,,,,3,,,65,55
35420,note_off,,,,,92,0,12,,,,,6,,,57,100
35420,note_off,,,,,92,0,7,,,,,0,,,81,100
35424,note_on,,,,,4,0,7,,,,,0,,,75,92
35424,note_on,,,,,4,0,12,,,,,6,,,60,100
35480,note_off,,,,,152,0,13,,,,,6,,,53,100
35480,note_off,,,,,152,0,15,,,,,7,,,53,100
35480,note_off,,,,,152,0,8,,,,,1,,,72,100
35480,note_off,,,,,152,0,10,,,,,4,,,53,100
35480,note_off,,,,,152,0,9,,,,,3,,,65,100
35516,note_off,,,,,92,0,12,,,,,6,,,60,100
35516,note_off,,,,,92,0,7,,,,,0,,,75,100
35520,note_on,,,,,40,0,8,,,,,1,,,72,55
35520,note_on,,,,,4,0,12,,,,,6,,,63,100
35520,note_on,,,,,40,0,15,,,,,7,,,53,85
35520,note_on,,,,,40,0,10,,,,,4,,,53,55
35520,note_on,,,,,4,0,7,,,,,0,,,74,91
35520,note_on,,,,,40,0,13,,,,,6,,,53,100
35520,note_on,,,,,40,0,9,,,,,3,,,65,55
35596,note_off,,,,,76,0,15,,,,,7,,,57,100
35612,note_off,,,,,92,0,7,,,,,0,,,74,100
35612,note_off,,,,,92,0,12,,,,,6,,,63,100
35616,note_on,,,,,4,0,7,,,,,0,,,72,90
35616,note_on,,,,,4,0,12,,,,,6,,,60,100
35672,note_off,,,,,152,0,8,,,,,1,,,72,100
35672,note_off,,,,,76,0,15,,,,,7,,,53,100
35672,note_off,,,,,152,0,9,,,,,3,,,65,100
35672,note_off,,,,,152,0,10,,,,,4,,,53,100
35672,note_off,,,,,152,0,13,,,,,6,,,53,100
35672,note_off,,,,,344,0,14,,,,,7,,,75,100
35680,note_off,,,,,64,0,7,,,,,0,,,72,100
35708,note_off,,,,,92,0,12,,,,,6,,,60,100
35712,note_on,,,,,4,0,12,,,,,6,,,58,100
35712,note_on,,,,,40,0,9,,,,,3,,,65,55
35712,note_on,,,,,40,0,8,,,,,1,,,70,55
35712,note_on,,,,,40,0,14,,,,,7,,,74,85
35712,note_on,,,,,40,0,13,,,,,6,,,46,100
35712,note_on,,,,,40,0,15,,,,,7,,,58,85
35712,note_on,,,,,32,0,7,,,,,0,,,74,89
35712,note_on,,,,,0,0,15,,,,,7,,,46,85
35712,note_on,,,,,40,0,10,,,,,4,,,46,55
35804,note_off,,,,,92,0,12,,,,,6,,,58,100
35808,note_on,,,,,4,0,12,,,,,6,,,62,100
35864,note_off,,,,,152,0,15,,,,,7,,,58,100
35864,note_off,,,,,152,0,7,,,,,0,,,74,100
35900,note_off,,,,,188,0,8,,,,,1,,,70,100
35900,note_off,,,,,188,0,10,,,,,4,,,46,100
35900,note_off,,,,,92,0,12,,,,,6,,,62,100
35900,note_off,,,,,188,0,14,,,,,7,,,74,100
35900,note_off,,,,,188,0,13,,,,,6,,,46,100
35900,note_off,,,,,188,0,9,,,,,3,,,65,100
35900,note_off,,,,,36,0,15,,,,,7,,,46,100
35904,note_on,,,,,4,0,15,,,,,7,,,51,85
35904,note_on,,,,,4,0,8,,,,,1,,,67,55
35904,note_on,,,,,4,0,9,,,,,3,,,67,55
35904,note_on,,,,,0,0,14,,,,,7,,,70,85
35904,note_on,,,,,4,0,14,,,,,7,,,67,85
35904,note_on,,,,,40,0,7,,,,,0,,,72,87
35904,note_on,,,,,4,0,12,,,,,6,,,67,100
35904,note_on,,,,,4,0,13,,,,,6,,,51,100
35904,note_on,,,,,4,0,10,,,,,4,,,51,55
35980,note_off,,,,,76,0,7,,,,,0,,,72,100
35996,note_off,,,,,92,0,12,,,,,6,,,67,100
36000,note_on,,,,,4,0,12,,,,,6,,,63,100
36000,note_on,,,,,20,0,7,,,,,0,,,70,87
36056,note_off,,,,,152,0,10,,,,,4,,,51,100
36056,note_off,,,,,152,0,9,,,,,3,,,67,100
36056,note_off,,,,,152,0,13,,,,,6,,,51,100
36056,note_off,,,,,152,0,8,,,,,1,,,67,100
36056,note_off,,,,,152,0,15,,,,,7,,,51,100
36056,note_off,,,,,152,0,14,,,,,7,,,67,100
36056,note_off,,,,,0,0,14,,,,,7,,,70,100
36076,note_off,,,,,76,0,7,,,,,0,,,70,100
36092,note_off,,,,,92,0,12,,,,,6,,,63,100
36096,note_on,,,,,40,0,13,,,,,6,,,53,100
36096,note_on,,,,,40,0,8,,,,,1,,,65,55
36096,note_on,,,,,4,0,12,,,,,6,,,60,100
36096,note_on,,,,,40,0,15,,,,,7,,,53,85
36096,note_on,,,,,40,0,10,,,,,4,,,53,55
36096,note_on,,,,,0,0,14,,,,,7,,,65,85
36096,note_on,,,,,40,0,9,,,,,3,,,60,55
36096,note_on,,,,,40,0,14,,,,,7,,,69,85
36096,note_on,,,,,20,0,7,,,,,0,,,70,86
36188,note_off,,,,,92,0,7,,,,,0,,,70,100
36188,note_off,,,,,92,0,12,,,,,6,,,60,100
36192,note_on,,,,,4,0,7,,,,,0,,,69,85
36192,note_on,,,,,4,0,12,,,,,6,,,65,100
36236,note_off,,,,,44,0,7,,,,,0,,,69,100
36240,note_on,,,,,4,0,7,,,,,0,,,70,84
36248,note_off,,,,,152,0,15,,,,,7,,,53,100
36248,note_off,,,,,152,0,10,,,,,4,,,53,100
36248,note_off,,,,,152,0,13,,,,,6,,,53,100
36248,note_off,,,,,152,0,8,,,,,1,,,65,100
36284,note_off,,,,,44,0,7,,,,,0,,,70,100
36284,note_off,,,,,188,0,9,,,,,3,,,60,100
36284,note_off,,,,,92,0,12,,,,,6,,,65,100
36288,note_on,,,,,40,0,15,,,,,7,,,53,85
36288,note_on,,,,,40,0,8,,,,,1,,,65,55
36288,note_on,,,,,40,0,10,,,,,4,,,53,55
36288,note_on,,,,,40,0,13,,,,,6,,,53,100
36288,note_on,,,,,4,0,7,,,,,0,,,69,84
36288,note_on,,,,,4,0,9,,,,,3,,,65,55
36288,note_on,,,,,4,0,12,,,,,6,,,69,100
36308,note_off,,,,,20,0,7,,,,,0,,,69,100
36312,note_on,,,,,4,0,7,,,,,0,,,70,84
36332,note_off,,,,,20,0,7,,,,,0,,,70,100
36336,note_on,,,,,4,0,7,,,,,0,,,69,84
36356,note_off,,,,,20,0,7,,,,,0,,,69,100
36360,note_on,,,,,4,0,7,,,,,0,,,70,83
36380,note_off,,,,,92,0,12,,,,,6,,,69,100
36380,note_off,,,,,20,0,7,,,,,0,,,70,100
36384,note_on,,,,,4,0,12,,,,,6,,,65,100
36384,note_on,,,,,4,0,7,,,,,0,,,69,83
36404,note_off,,,,,20,0,7,,,,,0,,,69,100
36408,note_on,,,,,4,0,7,,,,,0,,,70,83
36428,note_off,,,,,20,0,7,,,,,0,,,70,100
36432,note_on,,,,,4,0,7,,,,,0,,,69,83
36440,note_off,,,,,152,0,15,,,,,7,,,53,100
36440,note_off,,,,,152,0,9,,,,,3,,,65,100
36440,note_off,,,,,152,0,8,,,,,1,,,65,100
36440,note_off,,,,,152,0,10,,,,,4,,,53,100
36440,note_off,,,,,344,0,14,,,,,7,,,69,100
36440,note_off,,,,,152,0,13,,,,,6,,,53,100
36452,note_off,,,,,20,0,7,,,,,0,,,69,100
36456,note_on,,,,,4,0,7,,,,,0,,,70,82
36476,note_off,,,,,92,0,12,,,,,6,,,65,100
36476,note_off,,,,,20,0,7,,,,,0,,,70,100
36480,note_on,,,,,40,0,15,,,,,7,,,41,85
36480,note_on,,,,,40,0,8,,,,,1,,,72,55
36480,note_on,,,,,40,0,9,,,,,3,,,65,55
36480,note_on,,,,,4,0,12,,,,,6,,,57,100
36480,note_on,,,,,4,0,7,,,,,0,,,69,82
36480,note_on,,,,,40,0,14,,,,,7,,,72,85
36480,note_on,,,,,40,0,10,,,,,4,,,41,55
36480,note_on,,,,,40,0,13,,,,,6,,,41,100
36572,note_off,,,,,92,0,12,,,,,6,,,57,100
36576,note_on,,,,,4,0,12,,,,,6,,,60,100
36632,note_off,,,,,152,0,13,,,,,6,,,41,100
36632,note_off,,,,,152,0,9,,,,,3,,,65,100
36632,note_off,,,,,152,0,15,,,,,7,,,41,100
36632,note_off,,,,,152,0,7,,,,,0,,,69,100
36632,note_off,,,,,152,0,8,,,,,1,,,72,100
36632,note_off,,,,,152,0,10,,,,,4,,,41,100
36668,note_off,,,,,92,0,12,,,,,6,,,60,100
36672,note_on,,,,,4,0,12,,,,,6,,,65,100
36672,note_on,,,,,40,0,15,,,,,7,,,41,85
36672,note_on,,,,,40,0,7,,,,,0,,,70,81
36672,note_on,,,,,40,0,9,,,,,3,,,65,55
36672,note_on,,,,,40,0,10,,,,,4,,,41,55
36672,note_on,,,,,40,0,13,,,,,6,,,41,100
36672,note_on,,,,,40,0,8,,,,,1,,,72,55
36764,note_off,,,,,92,0,12,,,,,6,,,65,100
36768,note_on,,,,,4,0,12,,,,,6,,,60,100
36784,note_off,,,,,304,0,14,,,,,7,,,65,100
36824,note_off,,,,,40,0,14,,,,,7,,,72,100
36824,note_off,,,,,152,0,8,,,,,1,,,72,100
36824,note_off,,,,,152,0,15,,,,,7,,,41,100
36824,note_off,,,,,152,0,10,,,,,4,,,41,100
36824,note_off,,,,,152,0,9,,,,,3,,,65,100
36824,note_off,,,,,152,0,13,,,,,6,,,41,100
36824,note_off,,,,,152,0,7,,,,,0,,,70,100
36860,note_off,,,,,92,0,12,,,,,6,,,60,100
36864,note_on,,,,,40,0,8,,,,,1,,,70,55
36864,note_on,,,,,40,0,7,,,,,0,,,76,75
36864,note_on,,,,,40,0,13,,,,,6,,,48,100
36864,note_on,,,,,0,0,14,,,,,7,,,67,85
36864,note_on,,,,,4,0,12,,,,,6,,,58,100
36864,note_on,,,,,40,0,10,,,,,4,,,48,55
36864,note_on,,,,,40,0,15,,,,,7,,,48,85
36864,note_on,,,,,40,0,14,,,,,7,,,70,85
36864,note_on,,,,,40,0,9,,,,,3,,,67,55
36956,note_off,,,,,92,0,12,,,,,6,,,58,100
36960,note_on,,,,,4,0,12,,,,,6,,,64,100
37016,note_off,,,,,152,0,9,,,,,3,,,67,100
37016,note_off,,,,,152,0,13,,,,,6,,,48,100
37016,note_off,,,,,152,0,10,,,,,4,,,48,100
37016,note_off,,,,,152,0,15,,,,,7,,,48,100
37016,note_off,,,,,152,0,8,,,,,1,,,70,100
37052,note_off,,,,,92,0,12,,,,,6,,,64,100
37056,note_on,,,,,40,0,9,,,,,3,,,67,55
37056,note_on,,,,,40,0,10,,,,,4,,,48,55
37056,note_on,,,,,40,0,13,,,,,6,,,48,100
37056,note_on,,,,,40,0,15,,,,,7,,,48,85
37056,note_on,,,,,4,0,12,,,,,6,,,67,100
37056,note_on,,,,,40,0,8,,,,,1,,,70,55
37148,note_off,,,,,92,0,12,,,,,6,,,67,100
37152,note_on,,,,,4,0,12,,,,,6,,,64,100
37208,note_off,,,,,152,0,9,,,,,3,,,67,100
37208,note_off,,,,,152,0,15,,,,,7,,,48,100
37208,note_off,,,,,152,0,8,,,,,1,,,70,100
37208,note_off,,,,,152,0,10,,,,,4,,,48,100
37208,note_off,,,,,152,0,13,,,,,6,,,48,100
37244,note_off,,,,,92,0,12,,,,,6,,,64,100
37248,note_on,,,,,4,0,12,,,,,6,,,58,100
37248,note_on,,,,,40,0,13,,,,,6,,,48,100
37248,note_on,,,,,40,0,10,,,,,4,,,48,55
37248,note_on,,,,,40,0,15,,,,,7,,,48,85
37248,note_on,,,,,40,0,8,,,,,1,,,70,55
37248,note_on,,,,,40,0,9,,,,,3,,,67,55
37340,note_off,,,,,92,0,12,,,,,6,,,58,100
37344,note_on,,,,,4,0,12,,,,,6,,,64,100
37380,note_off,,,,,516,0,7,,,,,0,,,76,100
37400,note_off,,,,,152,0,9,,,,,3,,,67,100
37400,note_off,,,,,152,0,15,,,,,7,,,48,100
37400,note_off,,,,,152,0,10,,,,,4,,,48,100
37400,note_off,,,,,152,0,13,,,,,6,,,48,100
37400,note_off,,,,,152,0,8,,,,,1,,,70,100
37436,note_off,,,,,92,0,12,,,,,6,,,64,100
37440,note_on,,,,,40,0,13,,,,,6,,,48,100
37440,note_on,,,,,40,0,10,,,,,4,,,48,55
37440,note_on,,,,,60,0,7,,,,,0,,,76,81
37440,note_on,,,,,40,0,15,,,,,7,,,48,85
37440,note_on,,,,,4,0,12,,,,,6,,,67,100
37440,note_on,,,,,40,0,8,,,,,1,,,70,55
37440,note_on,,,,,40,0,9,,,,,3,,,67,55
37532,note_off,,,,,92,0,7,,,,,0,,,76,100
37532,note_off,,,,,92,0,12,,,,,6,,,67,100
37536,note_on,,,,,4,0,7,,,,,0,,,77,82
37536,note_on,,,,,4,0,12,,,,,6,,,64,100
37552,note_off,,,,,688,0,14,,,,,7,,,67,100
37592,note_off,,,,,152,0,13,,,,,6,,,48,100
37592,note_off,,,,,152,0,8,,,,,1,,,70,100
37592,note_off,,,,,152,0,9,,,,,3,,,67,100
37592,note_off,,,,,152,0,10,,,,,4,,,48,100
37592,note_off,,,,,152,0,15,,,,,7,,,48,100
37628,note_off,,,,,92,0,7,,,,,0,,,77,100
37628,note_off,,,,,92,0,12,,,,,6,,,64,100
37632,note_on,,,,,40,0,10,,,,,4,,,48,55
37632,note_on,,,,,4,0,12,,,,,6,,,58,100
37632,note_on,,,,,40,0,9,,,,,3,,,64,55
37632,note_on,,,,,4,0,7,,,,,0,,,79,83
37632,note_on,,,,,40,0,8,,,,,1,,,70,55
37632,note_on,,,,,40,0,15,,,,,7,,,48,85
37632,note_on,,,,,40,0,13,,,,,6,,,48,100
37632,note_on,,,,,80,0,14,,,,,7,,,64,85
37724,note_off,,,,,92,0,7,,,,,0,,,79,100
37724,note_off,,,,,92,0,12,,,,,6,,,58,100
37728,note_on,,,,,4,0,12,,,,,6,,,64,100
37728,note_on,,,,,4,0,7,,,,,0,,,77,84
37784,note_off,,,,,152,0,8,,,,,1,,,70,100
37784,note_off,,,,,152,0,15,,,,,7,,,48,100
37784,note_off,,,,,152,0,13,,,,,6,,,48,100
37784,note_off,,,,,152,0,10,,,,,4,,,48,100
37784,note_off,,,,,152,0,9,,,,,3,,,64,100
37820,note_off,,,,,92,0,12,,,,,6,,,64,100
37820,note_off,,,,,92,0,7,,,,,0,,,77,100
37824,note_on,,,,,4,0,7,,,,,0,,,79,85
37824,note_on,,,,,40,0,10,,,,,4,,,48,55
37824,note_on,,,,,4,0,12,,,,,6,,,67,100
37824,note_on,,,,,40,0,15,,,,,7,,,48,85
37824,note_on,,,,,40,0,13,,,,,6,,,48,100
37824,note_on,,,,,40,0,9,,,,,3,,,64,55
37824,note_on,,,,,40,0,8,,,,,1,,,70,55
37900,note_off,,,,,268,0,14,,,,,7,,,70,100
37916,note_off,,,,,92,0,7,,,,,0,,,79,100
37916,note_off,,,,,92,0,12,,,,,6,,,67,100
37920,note_on,,,,,4,0,7,,,,,0,,,76,86
37920,note_on,,,,,4,0,12,,,,,6,,,64,100
37976,note_off,,,,,152,0,15,,,,,7,,,48,100
37976,note_off,,,,,152,0,8,,,,,1,,,70,100
37976,note_off,,,,,152,0,9,,,,,3,,,64,100
37976,note_off,,,,,152,0,13,,,,,6,,,48,100
37976,note_off,,,,,76,0,14,,,,,7,,,64,100
37976,note_off,,,,,152,0,10,,,,,4,,,48,100
37984,note_off,,,,,64,0,7,,,,,0,,,76,100
38012,note_off,,,,,92,0,12,,,,,6,,,64,100
38016,note_on,,,,,4,0,12,,,,,6,,,57,100
38016,note_on,,,,,40,0,13,,,,,6,,,53,100
38016,note_on,,,,,32,0,7,,,,,0,,,77,88
38016,note_on,,,,,40,0,14,,,,,7,,,60,85
38016,note_on,,,,,40,0,10,,,,,4,,,53,55
38016,note_on,,,,,40,0,8,,,,,1,,,69,55
38016,note_on,,,,,40,0,15,,,,,7,,,53,85
38016,note_on,,,,,40,0,9,,,,,3,,,60,55
38016,note_on,,,,,0,0,14,,,,,7,,,69,85
38108,note_off,,,,,92,0,12,,,,,6,,,57,100
38112,note_on,,,,,4,0,12,,,,,6,,,60,100
38168,note_off,,,,,152,0,13,,,,,6,,,53,100
38168,note_off,,,,,152,0,8,,,,,1,,,69,100
38168,note_off,,,,,152,0,15,,,,,7,,,53,100
38168,note_off,,,,,152,0,14,,,,,7,,,60,100
38168,note_off,,,,,152,0,10,,,,,4,,,53,100
38204,note_off,,,,,92,0,12,,,,,6,,,60,100
38204,note_off,,,,,188,0,9,,,,,3,,,60,100
38208,note_on,,,,,4,0,9,,,,,3,,,65,55
38208,note_on,,,,,40,0,13,,,,,6,,,53,100
38208,note_on,,,,,40,0,10,,,,,4,,,53,55
38208,note_on,,,,,40,0,8,,,,,1,,,69,55
38208,note_on,,,,,40,0,14,,,,,7,,,65,85
38208,note_on,,,,,40,0,15,,,,,7,,,53,85
38208,note_on,,,,,4,0,12,,,,,6,,,63,100
38272,note_off,,,,,256,0,7,,,,,0,,,77,100
38300,note_off,,,,,92,0,12,,,,,6,,,63,100
38304,note_on,,,,,32,0,7,,,,,0,,,75,84
38304,note_on,,,,,4,0,12,,,,,6,,,60,100
38360,note_off,,,,,152,0,15,,,,,7,,,53,100
38360,note_off,,,,,152,0,10,,,,,4,,,53,100
38360,note_off,,,,,152,0,13,,,,,6,,,53,100
38360,note_off,,,,,152,0,8,,,,,1,,,69,100
38360,note_off,,,,,152,0,14,,,,,7,,,69,100
38360,note_off,,,,,152,0,9,,,,,3,,,65,100
38368,note_off,,,,,64,0,7,,,,,0,,,75,100
38396,note_off,,,,,92,0,12,,,,,6,,,60,100
38400,note_on,,,,,32,0,7,,,,,0,,,74,83
38400,note_on,,,,,40,0,13,,,,,6,,,46,100
38400,note_on,,,,,40,0,10,,,,,4,,,46,55
38400,note_on,,,,,40,0,14,,,,,7,,,74,85
38400,note_on,,,,,4,0,12,,,,,6,,,58,100
38400,note_on,,,,,40,0,15,,,,,7,,,46,85
38400,note_on,,,,,40,0,9,,,,,3,,,65,55
38400,note_on,,,,,40,0,8,,,,,1,,,70,55
38492,note_off,,,,,92,0,12,,,,,6,,,58,100
38496,note_on,,,,,4,0,12,,,,,6,,,62,100
38552,note_off,,,,,152,0,7,,,,,0,,,74,100
38552,note_off,,,,,152,0,14,,,,,7,,,65,100
38588,note_off,,,,,188,0,10,,,,,4,,,46,100
38588,note_off,,,,,92,0,12,,,,,6,,,62,100
38588,note_off,,,,,188,0,13,,,,,6,,,46,100
38588,note_off,,,,,188,0,15,,,,,7,,,46,100
38588,note_off,,,,,36,0,14,,,,,7,,,74,100
38588,note_off,,,,,188,0,8,,,,,1,,,70,100
38588,note_off,,,,,188,0,9,,,,,3,,,65,100
38592,note_on,,,,,4,0,9,,,,,3,,,67,55
38592,note_on,,,,,4,0,12,,,,,6,,,67,100
38592,note_on,,,,,0,0,14,,,,,7,,,67,85
38592,note_on,,,,,4,0,14,,,,,7,,,70,85
38592,note_on,,,,,40,0,7,,,,,0,,,72,80
38592,note_on,,,,,4,0,8,,,,,1,,,67,55
38592,note_on,,,,,4,0,15,,,,,7,,,51,85
38592,note_on,,,,,4,0,13,,,,,6,,,51,100
38592,note_on,,,,,4,0,10,,,,,4,,,51,55
38592,set_tempo,,,,,37440,1,0,,1621621,,,,,,,
38656,note_off,,,,,64,0,7,,,,,0,,,72,100
38684,note_off,,,,,92,0,12,,,,,6,,,67,100
38688,note_on,,,,,4,0,12,,,,,6,,,63,100
38688,note_on,,,,,32,0,7,,,,,0,,,70,78
38744,note_off,,,,,152,0,15,,,,,7,,,51,100
38744,note_off,,,,,152,0,8,,,,,1,,,67,100
38744,note_off,,,,,0,0,14,,,,,7,,,67,100
38744,note_off,,,,,152,0,14,,,,,7,,,70,100
38744,note_off,,,,,152,0,13,,,,,6,,,51,100
38744,note_off,,,,,152,0,9,,,,,3,,,67,100
38744,note_off,,,,,152,0,10,,,,,4,,,51,100
38752,note_off,,,,,64,0,7,,,,,0,,,70,100
38780,note_off,,,,,92,0,12,,,,,6,,,63,100
38784,note_on,,,,,40,0,14,,,,,7,,,69,85
38784,note_on,,,,,32,0,7,,,,,0,,,69,77
38784,note_on,,,,,4,0,12,,,,,6,,,60,100
38784,note_on,,,,,40,0,10,,,,,4,,,53,55
38784,note_on,,,,,40,0,9,,,,,3,,,60,55
38784,note_on,,,,,40,0,15,,,,,7,,,53,85
38784,note_on,,,,,40,0,13,,,,,6,,,53,100
38784,note_on,,,,,40,0,8,,,,,1,,,65,55
38784,note_on,,,,,0,0,14,,,,,7,,,72,85
38828,note_off,,,,,44,0,7,,,,,0,,,69,100
38832,note_on,,,,,4,0,7,,,,,0,,,70,76
38876,note_off,,,,,92,0,12,,,,,6,,,60,100
38876,note_off,,,,,44,0,7,,,,,0,,,70,100
38880,set_tempo,,,,,288,1,0,,1666666,,,,,,,
38880,note_on,,,,,4,0,7,,,,,0,,,69,75
38880,note_on,,,,,4,0,12,,,,,6,,,65,100
38900,note_off,,,,,20,0,7,,,,,0,,,69,100
38904,note_on,,,,,4,0,7,,,,,0,,,70,75
38924,note_off,,,,,20,0,7,,,,,0,,,70,100
38928,note_on,,,,,4,0,7,,,,,0,,,69,75
38936,note_off,,,,,152,0,15,,,,,7,,,53,100
38936,note_off,,,,,152,0,8,,,,,1,,,65,100
38936,note_off,,,,,152,0,9,,,,,3,,,60,100
38936,note_off,,,,,152,0,10,,,,,4,,,53,100
38936,note_off,,,,,152,0,13,,,,,6,,,53,100
38948,note_off,,,,,20,0,7,,,,,0,,,69,100
38952,note_on,,,,,4,0,7,,,,,0,,,70,74
38972,note_off,,,,,20,0,7,,,,,0,,,70,100
38972,note_off,,,,,92,0,12,,,,,6,,,65,100
38976,note_on,,,,,4,0,12,,,,,6,,,69,100
38976,note_on,,,,,4,0,7,,,,,0,,,69,74
38976,note_on,,,,,40,0,9,,,,,3,,,60,55
38976,note_on,,,,,40,0,13,,,,,6,,,41,100
38976,note_on,,,,,40,0,8,,,,,1,,,65,55
38976,note_on,,,,,40,0,15,,,,,7,,,41,85
38976,note_on,,,,,40,0,10,,,,,4,,,41,55
39040,note_off,,,,,64,0,7,,,,,0,,,69,100
39068,note_off,,,,,92,0,12,,,,,6,,,69,100
39072,note_on,,,,,4,0,12,,,,,6,,,65,100
39072,note_on,,,,,32,0,7,,,,,0,,,70,73
39128,note_off,,,,,152,0,13,,,,,6,,,41,100
39128,note_off,,,,,152,0,15,,,,,7,,,41,100
39128,note_off,,,,,152,0,9,,,,,3,,,60,100
39128,note_off,,,,,344,0,14,,,,,7,,,69,100
39128,note_off,,,,,0,0,14,,,,,7,,,72,100
39128,note_off,,,,,152,0,10,,,,,4,,,41,100
39128,note_off,,,,,152,0,8,,,,,1,,,65,100
39136,note_off,,,,,64,0,7,,,,,0,,,70,100
39164,note_off,,,,,92,0,12,,,,,6,,,65,100
39168,note_on,,,,,40,0,8,,,,,1,,,65,55
39168,note_on,,,,,40,0,13,,,,,6,,,46,100
39168,note_on,,,,,40,0,9,,,,,3,,,62,55
39168,note_on,,,,,40,0,14,,,,,7,,,65,85
39168,note_on,,,,,4,0,12,,,,,6,,,62,100
39168,note_on,,,,,32,0,7,,,,,0,,,70,70
39168,set_tempo,,,,,288,1,0,,1666666,,,,,,,
39168,note_on,,,,,40,0,10,,,,,4,,,46,55
39168,note_on,,,,,40,0,15,,,,,7,,,46,85
39168,note_on,,,,,0,0,14,,,,,7,,,74,85
39260,note_off,,,,,92,0,12,,,,,6,,,62,100
39264,note_on,,,,,4,0,12,,,,,6,,,65,100
39320,note_off,,,,,152,0,9,,,,,3,,,62,100
39356,note_off,,,,,188,0,8,,,,,1,,,65,100
39356,note_off,,,,,188,0,14,,,,,7,,,74,100
39356,note_off,,,,,188,0,15,,,,,7,,,46,100
39356,note_off,,,,,188,0,10,,,,,4,,,46,100
39356,note_off,,,,,92,0,12,,,,,6,,,65,100
39356,note_off,,,,,188,0,13,,,,,6,,,46,100
39360,note_on,,,,,4,0,15,,,,,7,,,50,85
39360,set_tempo,,,,,192,1,0,,1714285,,,,,,,
39360,note_on,,,,,4,0,13,,,,,6,,,50,100
39360,note_on,,,,,4,0,8,,,,,1,,,62,55
39360,note_on,,,,,40,0,9,,,,,3,,,62,55
39360,note_on,,,,,4,0,14,,,,,7,,,70,85
39360,note_on,,,,,4,0,10,,,,,4,,,50,55
39360,note_on,,,,,4,0,12,,,,,6,,,70,100
39452,note_off,,,,,92,0,12,,,,,6,,,70,100
39456,note_on,,,,,4,0,12,,,,,6,,,65,100
39512,note_off,,,,,152,0,8,,,,,1,,,62,100
39512,note_off,,,,,152,0,14,,,,,7,,,65,100
39512,note_off,,,,,152,0,15,,,,,7,,,50,100
39512,note_off,,,,,0,0,14,,,,,7,,,70,100
39512,note_off,,,,,152,0,9,,,,,3,,,62,100
39512,note_off,,,,,152,0,13,,,,,6,,,50,100
39512,note_off,,,,,152,0,10,,,,,4,,,50,100
39548,note_off,,,,,92,0,12,,,,,6,,,65,100
39552,note_on,,,,,40,0,13,,,,,6,,,51,100
39552,set_tempo,,,,,192,1,0,,1764705,,,,,,,
39552,note_on,,,,,40,0,8,,,,,1,,,63,55
39552,note_on,,,,,0,0,14,,,,,7,,,67,85
39552,note_on,,,,,40,0,14,,,,,7,,,63,85
39552,note_on,,,,,40,0,9,,,,,3,,,63,55
39552,note_on,,,,,40,0,15,,,,,7,,,51,85
39552,note_on,,,,,40,0,10,,,,,4,,,51,55
39552,note_on,,,,,4,0,12,,,,,6,,,63,100
39644,note_off,,,,,92,0,12,,,,,6,,,63,100
39648,note_on,,,,,4,0,12,,,,,6,,,67,100
39704,note_off,,,,,152,0,10,,,,,4,,,51,100
39704,note_off,,,,,152,0,8,,,,,1,,,63,100
39704,note_off,,,,,152,0,15,,,,,7,,,51,100
39704,note_off,,,,,152,0,13,,,,,6,,,51,100
39704,note_off,,,,,152,0,9,,,,,3,,,63,100
39740,note_off,,,,,92,0,12,,,,,6,,,67,100
39744,note_on,,,,,40,0,10,,,,,4,,,51,55
39744,note_on,,,,,4,0,12,,,,,6,,,70,100
39744,set_tempo,,,,,192,1,0,,1818181,,,,,,,
39744,note_on,,,,,40,0,8,,,,,1,,,63,55
39744,note_on,,,,,40,0,15,,,,,7,,,51,85
39744,note_on,,,,,40,0,13,,,,,6,,,51,100
39744,note_on,,,,,40,0,9,,,,,3,,,63,55
39836,note_off,,,,,92,0,12,,,,,6,,,70,100
39840,note_on,,,,,4,0,12,,,,,6,,,67,100
39896,note_off,,,,,152,0,13,,,,,6,,,51,100
39896,note_off,,,,,152,0,9,,,,,3,,,63,100
39896,note_off,,,,,0,0,14,,,,,7,,,67,100
39896,note_off,,,,,344,0,14,,,,,7,,,63,100
39896,note_off,,,,,152,0,15,,,,,7,,,51,100
39896,note_off,,,,,152,0,10,,,,,4,,,51,100
39896,note_off,,,,,152,0,8,,,,,1,,,63,100
39932,note_off,,,,,92,0,12,,,,,6,,,67,100
39936,set_tempo,,,,,192,1,0,,1875000,,,,,,,
39936,note_on,,,,,4,0,12,,,,,6,,,60,100
39936,note_on,,,,,40,0,10,,,,,4,,,53,55
39936,note_on,,,,,40,0,13,,,,,6,,,53,100
39936,note_on,,,,,0,0,14,,,,,7,,,69,85
39936,note_on,,,,,40,0,9,,,,,3,,,65,55
39936,note_on,,,,,40,0,15,,,,,7,,,53,85
39936,note_on,,,,,40,0,14,,,,,7,,,60,85
39936,note_on,,,,,40,0,8,,,,,1,,,65,55
39984,set_tempo,,,,,48,1,0,,1935483,,,,,,,
40028,note_off,,,,,92,0,12,,,,,6,,,60,100
40032,set_tempo,,,,,48,1,0,,2000000,,,,,,,
40032,note_on,,,,,4,0,12,,,,,6,,,65,100
40080,set_tempo,,,,,48,1,0,,2068965,,,,,,,
40088,note_off,,,,,152,0,13,,,,,6,,,53,100
40088,note_off,,,,,152,0,9,,,,,3,,,65,100
40088,note_off,,,,,152,0,15,,,,,7,,,53,100
40088,note_off,,,,,152,0,8,,,,,1,,,65,100
40088,note_off,,,,,152,0,10,,,,,4,,,53,100
40124,note_off,,,,,92,0,12,,,,,6,,,65,100
40128,note_on,,,,,4,0,12,,,,,6,,,69,100
40128,note_on,,,,,40,0,15,,,,,7,,,53,85
40128,note_on,,,,,40,0,10,,,,,4,,,53,55
40128,note_on,,,,,40,0,9,,,,,3,,,65,55
40128,note_on,,,,,40,0,8,,,,,1,,,65,55
40128,note_on,,,,,40,0,13,,,,,6,,,53,100
40128,set_tempo,,,,,48,1,0,,2142857,,,,,,,
40152,set_tempo,,,,,24,1,0,,2222222,,,,,,,
40180,set_tempo,,,,,28,1,0,,2222222,,,,,,,
40208,set_tempo,,,,,28,1,0,,2307692,,,,,,,
40220,note_off,,,,,92,0,12,,,,,6,,,69,100
40224,note_on,,,,,4,0,12,,,,,6,,,65,100
40236,set_tempo,,,,,28,1,0,,2400000,,,,,,,
40264,set_tempo,,,,,28,1,0,,2500000,,,,,,,
40280,note_off,,,,,152,0,9,,,,,3,,,65,100
40280,note_off,,,,,0,0,14,,,,,7,,,69,100
40280,note_off,,,,,344,0,14,,,,,7,,,60,100
40280,note_off,,,,,152,0,8,,,,,1,,,65,100
40280,note_off,,,,,152,0,13,,,,,6,,,53,100
40280,note_off,,,,,152,0,15,,,,,7,,,53,100
40280,note_off,,,,,152,0,10,,,,,4,,,53,100
40292,set_tempo,,,,,28,1,0,,2608695,,,,,,,
40316,note_off,,,,,92,0,12,,,,,6,,,65,100
40320,note_on,,,,,40,0,8,,,,,1,,,58,55
40320,note_on,,,,,40,0,13,,,,,6,,,46,100
40320,note_on,,,,,40,0,15,,,,,7,,,46,85
40320,set_tempo,,,,,28,1,0,,2142857,,,,,,,
40320,note_on,,,,,40,0,9,,,,,3,,,58,55
40320,note_on,,,,,40,0,10,,,,,4,,,46,55
40320,note_on,,,,,0,0,14,,,,,7,,,70,85
40320,note_on,,,,,40,0,14,,,,,7,,,62,85
40320,note_on,,,,,4,0,12,,,,,6,,,70,100
40412,note_off,,,,,92,0,12,,,,,6,,,70,100
40416,note_on,,,,,4,0,12,,,,,6,,,58,100
40508,note_off,,,,,92,0,12,,,,,6,,,58,100
40512,note_on,,,,,4,0,12,,,,,6,,,62,100
40604,note_off,,,,,92,0,12,,,,,6,,,62,100
40608,note_on,,,,,4,0,12,,,,,6,,,65,100
40700,note_off,,,,,92,0,12,,,,,6,,,65,100
40704,set_tempo,,,,,384,1,0,,1538461,,,,,,,
40704,end_of_track,,,,,0,1,0,,,,,,,,,
40704,note_on,,,,,4,0,12,,,,,6,,,70,100
41356,end_of_track,,,,,0,1,10,,,,,,,,,
41356,end_of_track,,,,,0,1,7,,,,,,,,,
41356,note_off,,,,,2188,0,7,,,,,0,,,70,100
41356,note_off,,,,,1036,0,13,,,,,6,,,46,100
41356,end_of_track,,,,,0,1,14,,,,,,,,,
41356,note_off,,,,,0,0,14,,,,,7,,,70,100
41356,note_off,,,,,1036,0,14,,,,,7,,,62,100
41356,end_of_track,,,,,0,1,13,,,,,,,,,
41356,note_off,,,,,1036,0,8,,,,,1,,,58,100
41356,end_of_track,,,,,0,1,9,,,,,,,,,
41356,note_off,,,,,1036,0,9,,,,,3,,,58,100
41356,note_off,,,,,1036,0,15,,,,,7,,,46,100
41356,note_off,,,,,1036,0,10,,,,,4,,,46,100
41356,end_of_track,,,,,0,1,15,,,,,,,,,
41392,end_of_track,,,,,0,1,12,,,,,,,,,
41392,note_off,,,,,688,0,12,,,,,6,,,70,100
41856,program_change,,,,,500,0,8,,,,,1,48,,,
41856,end_of_track,,,,,0,1,8,,,,,,,,,
