tick,type,time,meta,track,key,numerator,denominator,clocks_per_click,notated_32nd_notes_per_beat,tempo,port,program,channel,control,value,note,velocity
0,track_name,0,1,0,,,,,,,,,,,,,
0,control_change,0,0,5,,,,,,,,,2,10,0,,
0,control_change,0,0,5,,,,,,,,,2,7,127,,
0,program_change,0,0,5,,,,,,,,48,2,,,,
0,track_name,0,1,5,,,,,,,,,,,,,
0,midi_port,0,1,5,,,,,,,0,,,,,,
0,time_signature,0,1,4,,4,4,24,8,,,,,,,,
0,key_signature,0,1,4,A,,,,,,,,,,,,
0,control_change,0,0,4,,,,,,,,,1,10,127,,
0,control_change,0,0,4,,,,,,,,,1,7,127,,
0,program_change,0,0,4,,,,,,,,48,1,,,,
0,track_name,0,1,4,,,,,,,,,,,,,
0,midi_port,0,1,4,,,,,,,0,,,,,,
0,key_signature,0,1,5,A,,,,,,,,,,,,
0,time_signature,0,1,3,,4,4,24,8,,,,,,,,
0,control_change,0,0,3,,,,,,,,,0,10,0,,
0,control_change,0,0,3,,,,,,,,,0,7,127,,
0,program_change,0,0,3,,,,,,,,48,0,,,,
0,track_name,0,1,3,,,,,,,,,,,,,
0,midi_port,0,1,3,,,,,,,0,,,,,,
0,control_change,0,0,10,,,,,,,,,9,10,64,,
0,time_signature,0,1,2,,4,4,24,8,,,,,,,,
0,key_signature,0,1,2,A,,,,,,,,,,,,
0,control_change,0,0,2,,,,,,,,,6,10,64,,
0,control_change,0,0,2,,,,,,,,,6,7,127,,
0,program_change,0,0,2,,,,,,,,6,6,,,,
0,program_change,0,0,2,,,,,,,,6,6,,,,
0,key_signature,0,1,3,A,,,,,,,,,,,,
0,track_name,0,1,2,,,,,,,,,,,,,
0,time_signature,0,1,5,,4,4,24,8,,,,,,,,
0,track_name,0,1,6,,,,,,,,,,,,,
0,control_change,0,0,10,,,,,,,,,9,7,127,,
0,track_name,0,1,10,,,,,,,,,,,,,
0,midi_port,0,1,10,,,,,,,0,,,,,,
0,end_of_track,0,1,9,,,,,,,,,,,,,
0,control_change,0,0,9,,,,,,,,,8,10,64,,
0,control_change,0,0,9,,,,,,,,,8,7,127,,
0,track_name,0,1,9,,,,,,,,,,,,,
0,midi_port,0,1,9,,,,,,,0,,,,,,
0,end_of_track,0,1,8,,,,,,,,,,,,,
0,control_change,0,0,8,,,,,,,,,7,10,64,,
0,control_change,0,0,8,,,,,,,,,7,7,127,,
0,track_name,0,1,8,,,,,,,,,,,,,
0,midi_port,0,1,6,,,,,,,0,,,,,,
0,midi_port,0,1,8,,,,,,,0,,,,,,
0,program_change,0,0,7,,,,,,,,48,10,,,,
0,key_signature,0,1,7,A,,,,,,,,,,,,
0,control_change,0,0,7,,,,,,,,,10,10,64,,
0,control_change,0,0,7,,,,,,,,,10,7,127,,
0,track_name,0,1,7,,,,,,,,,,,,,
0,midi_port,0,1,7,,,,,,,0,,,,,,
0,time_signature,0,1,6,,4,4,24,8,,,,,,,,
0,key_signature,0,1,6,A,,,,,,,,,,,,
0,control_change,0,0,6,,,,,,,,,3,10,64,,
0,control_change,0,0,6,,,,,,,,,3,7,127,,
0,program_change,0,0,6,,,,,,,,48,3,,,,
0,program_change,0,0,6,,,,,,,,48,3,,,,
0,time_signature,0,1,7,,4,4,24,8,,,,,,,,
0,midi_port,0,1,2,,,,,,,0,,,,,,
0,end_of_track,0,1,10,,,,,,,,,,,,,
0,text,0,1,0,,,,,,,,,,,,,
0,track_name,0,1,1,,,,,,,,,,,,,
0,program_change,0,0,1,,,,,,,,6,5,,,,
0,program_change,0,0,1,,,,,,,,6,5,,,,
0,control_change,0,0,1,,,,,,,,,5,7,127,,
0,control_change,0,0,1,,,,,,,,,5,10,64,,
0,key_signature,0,1,1,A,,,,,,,,,,,,
0,time_signature,0,1,1,,4,4,24,8,,,,,,,,
0,midi_port,0,1,1,,,,,,,0,,,,,,
0,text,0,1,0,,,,,,,,,,,,,
0,time_signature,0,1,0,,4,4,24,8,,,,,,,,
0,key_signature,0,1,0,A,,,,,,,,,,,,
0,copyright,0,1,0,,,,,,,,,,,,,
0,copyright,0,1,0,,,,,,,,,,,,,
768,note_on,768,0,1,,,,,,,,,5,,,69,110
768,note_on,768,0,3,,,,,,,,,0,,,69,60
768,note_on,768,0,2,,,,,,,,,6,,,57,110
768,set_tempo,768,1,0,,,,,,521739,,,,,,,
768,note_on,768,0,4,,,,,,,,,1,,,69,60
768,note_on,768,0,6,,,,,,,,,3,,,57,60
768,note_on,768,0,7,,,,,,,,,10,,,45,60
862,note_on,94,0,4,,,,,,,,,1,,,69,0
862,note_on,94,0,3,,,,,,,,,0,,,69,0
862,note_on,94,0,7,,,,,,,,,10,,,45,0
862,note_on,94,0,1,,,,,,,,,5,,,69,0
862,note_on,94,0,2,,,,,,,,,6,,,57,0
862,note_on,94,0,6,,,,,,,,,3,,,57,0
864,note_on,2,0,3,,,,,,,,,0,,,57,60
864,note_on,2,0,4,,,,,,,,,1,,,57,60
864,note_on,2,0,1,,,,,,,,,5,,,57,110
864,note_on,2,0,6,,,,,,,,,3,,,45,60
864,note_on,2,0,2,,,,,,,,,6,,,45,110
864,note_on,2,0,7,,,,,,,,,10,,,33,60
896,note_on,32,0,1,,,,,,,,,5,,,57,0
896,note_on,32,0,6,,,,,,,,,3,,,45,0
896,note_on,32,0,7,,,,,,,,,10,,,33,0
896,note_on,32,0,3,,,,,,,,,0,,,57,0
896,note_on,32,0,4,,,,,,,,,1,,,57,0
896,note_on,32,0,2,,,,,,,,,6,,,45,0
960,note_on,64,0,2,,,,,,,,,6,,,45,110
960,note_on,64,0,1,,,,,,,,,5,,,57,110
960,note_on,64,0,6,,,,,,,,,3,,,45,60
960,note_on,64,0,7,,,,,,,,,10,,,33,60
960,note_on,64,0,3,,,,,,,,,0,,,57,60
960,note_on,64,0,4,,,,,,,,,1,,,57,60
992,note_on,32,0,1,,,,,,,,,5,,,57,0
992,note_on,32,0,6,,,,,,,,,3,,,45,0
992,note_on,32,0,4,,,,,,,,,1,,,57,0
992,note_on,32,0,3,,,,,,,,,0,,,57,0
992,note_on,32,0,2,,,,,,,,,6,,,45,0
992,note_on,32,0,7,,,,,,,,,10,,,33,0
1056,note_on,64,0,4,,,,,,,,,1,,,57,60
1056,note_on,64,0,2,,,,,,,,,6,,,45,110
1056,note_on,64,0,6,,,,,,,,,3,,,45,60
1056,note_on,64,0,7,,,,,,,,,10,,,33,60
1056,note_on,64,0,3,,,,,,,,,0,,,57,60
1056,note_on,64,0,1,,,,,,,,,5,,,57,110
1088,note_on,32,0,1,,,,,,,,,5,,,57,0
1088,note_on,32,0,4,,,,,,,,,1,,,57,0
1088,note_on,32,0,3,,,,,,,,,0,,,57,0
1088,note_on,32,0,2,,,,,,,,,6,,,45,0
1088,note_on,32,0,7,,,,,,,,,10,,,33,0
1088,note_on,32,0,6,,,,,,,,,3,,,45,0
1152,note_on,64,0,1,,,,,,,,,5,,,57,110
1152,note_on,64,0,6,,,,,,,,,3,,,45,60
1152,note_on,64,0,7,,,,,,,,,10,,,33,60
1152,note_on,64,0,4,,,,,,,,,1,,,57,60
1152,note_on,64,0,2,,,,,,,,,6,,,45,110
1152,note_on,64,0,3,,,,,,,,,0,,,57,60
1312,note_on,160,0,1,,,,,,,,,5,,,57,0
1312,note_on,160,0,7,,,,,,,,,10,,,33,0
1312,note_on,160,0,6,,,,,,,,,3,,,45,0
1312,note_on,160,0,4,,,,,,,,,1,,,57,0
1312,note_on,160,0,3,,,,,,,,,0,,,57,0
1312,note_on,160,0,2,,,,,,,,,6,,,45,0
1392,note_on,80,0,3,,,,,,,,,0,,,64,60
1392,note_on,80,0,2,,,,,,,,,6,,,52,110
1392,note_on,80,0,7,,,,,,,,,10,,,40,60
1392,note_on,80,0,4,,,,,,,,,1,,,64,60
1392,note_on,80,0,1,,,,,,,,,5,,,64,110
1392,note_on,80,0,6,,,,,,,,,3,,,52,60
1438,note_on,46,0,1,,,,,,,,,5,,,64,0
1438,note_on,46,0,4,,,,,,,,,1,,,64,0
1438,note_on,46,0,3,,,,,,,,,0,,,64,0
1438,note_on,46,0,6,,,,,,,,,3,,,52,0
1438,note_on,46,0,7,,,,,,,,,10,,,40,0
1438,note_on,46,0,2,,,,,,,,,6,,,52,0
1440,note_on,2,0,2,,,,,,,,,6,,,54,110
1440,note_on,2,0,6,,,,,,,,,3,,,54,60
1440,note_on,2,0,3,,,,,,,,,0,,,66,60
1440,note_on,2,0,7,,,,,,,,,10,,,42,60
1440,note_on,2,0,1,,,,,,,,,5,,,66,110
1440,note_on,2,0,4,,,,,,,,,1,,,66,60
1486,note_on,46,0,1,,,,,,,,,5,,,66,0
1486,note_on,46,0,7,,,,,,,,,10,,,42,0
1486,note_on,46,0,4,,,,,,,,,1,,,66,0
1486,note_on,46,0,6,,,,,,,,,3,,,54,0
1486,note_on,46,0,2,,,,,,,,,6,,,54,0
1486,note_on,46,0,3,,,,,,,,,0,,,66,0
1488,note_on,2,0,3,,,,,,,,,0,,,68,60
1488,note_on,2,0,7,,,,,,,,,10,,,44,60
1488,note_on,2,0,6,,,,,,,,,3,,,56,60
1488,note_on,2,0,1,,,,,,,,,5,,,68,110
1488,note_on,2,0,4,,,,,,,,,1,,,68,60
1488,note_on,2,0,2,,,,,,,,,6,,,56,110
1534,note_on,46,0,3,,,,,,,,,0,,,68,0
1534,note_on,46,0,2,,,,,,,,,6,,,56,0
1534,note_on,46,0,1,,,,,,,,,5,,,68,0
1534,note_on,46,0,6,,,,,,,,,3,,,56,0
1534,note_on,46,0,7,,,,,,,,,10,,,44,0
1534,note_on,46,0,4,,,,,,,,,1,,,68,0
1536,note_on,2,0,6,,,,,,,,,3,,,57,60
1536,note_on,2,0,2,,,,,,,,,6,,,57,110
1536,note_on,2,0,4,,,,,,,,,1,,,69,60
1536,note_on,2,0,3,,,,,,,,,0,,,69,60
1536,note_on,2,0,7,,,,,,,,,10,,,45,60
1536,note_on,2,0,1,,,,,,,,,5,,,69,110
1630,note_on,94,0,3,,,,,,,,,0,,,69,0
1630,note_on,94,0,6,,,,,,,,,3,,,57,0
1630,note_on,94,0,1,,,,,,,,,5,,,69,0
1630,note_on,94,0,2,,,,,,,,,6,,,57,0
1630,note_on,94,0,7,,,,,,,,,10,,,45,0
1630,note_on,94,0,4,,,,,,,,,1,,,69,0
1632,note_on,2,0,4,,,,,,,,,1,,,57,60
1632,note_on,2,0,6,,,,,,,,,3,,,45,60
1632,note_on,2,0,1,,,,,,,,,5,,,57,110
1632,note_on,2,0,2,,,,,,,,,6,,,45,110
1632,note_on,2,0,7,,,,,,,,,10,,,33,60
1632,note_on,2,0,3,,,,,,,,,0,,,57,60
1664,note_on,32,0,6,,,,,,,,,3,,,45,0
1664,note_on,32,0,7,,,,,,,,,10,,,33,0
1664,note_on,32,0,4,,,,,,,,,1,,,57,0
1664,note_on,32,0,2,,,,,,,,,6,,,45,0
1664,note_on,32,0,3,,,,,,,,,0,,,57,0
1664,note_on,32,0,1,,,,,,,,,5,,,57,0
1728,note_on,64,0,6,,,,,,,,,3,,,45,60
1728,note_on,64,0,4,,,,,,,,,1,,,57,60
1728,note_on,64,0,1,,,,,,,,,5,,,57,110
1728,note_on,64,0,7,,,,,,,,,10,,,33,60
1728,note_on,64,0,2,,,,,,,,,6,,,45,110
1728,note_on,64,0,3,,,,,,,,,0,,,57,60
1760,note_on,32,0,1,,,,,,,,,5,,,57,0
1760,note_on,32,0,2,,,,,,,,,6,,,45,0
1760,note_on,32,0,6,,,,,,,,,3,,,45,0
1760,note_on,32,0,7,,,,,,,,,10,,,33,0
1760,note_on,32,0,4,,,,,,,,,1,,,57,0
1760,note_on,32,0,3,,,,,,,,,0,,,57,0
1824,note_on,64,0,6,,,,,,,,,3,,,45,60
1824,note_on,64,0,2,,,,,,,,,6,,,45,110
1824,note_on,64,0,1,,,,,,,,,5,,,57,110
1824,note_on,64,0,7,,,,,,,,,10,,,33,60
1824,note_on,64,0,3,,,,,,,,,0,,,57,60
1824,note_on,64,0,4,,,,,,,,,1,,,57,60
1856,note_on,32,0,4,,,,,,,,,1,,,57,0
1856,note_on,32,0,6,,,,,,,,,3,,,45,0
1856,note_on,32,0,1,,,,,,,,,5,,,57,0
1856,note_on,32,0,7,,,,,,,,,10,,,33,0
1856,note_on,32,0,3,,,,,,,,,0,,,57,0
1856,note_on,32,0,2,,,,,,,,,6,,,45,0
1920,note_on,64,0,1,,,,,,,,,5,,,57,110
1920,note_on,64,0,2,,,,,,,,,6,,,45,110
1920,note_on,64,0,6,,,,,,,,,3,,,45,60
1920,note_on,64,0,4,,,,,,,,,1,,,57,60
1920,note_on,64,0,3,,,,,,,,,0,,,57,60
1920,note_on,64,0,7,,,,,,,,,10,,,33,60
2080,note_on,160,0,7,,,,,,,,,10,,,33,0
2080,note_on,160,0,1,,,,,,,,,5,,,57,0
2080,note_on,160,0,6,,,,,,,,,3,,,45,0
2080,note_on,160,0,4,,,,,,,,,1,,,57,0
2080,note_on,160,0,3,,,,,,,,,0,,,57,0
2080,note_on,160,0,2,,,,,,,,,6,,,45,0
2160,note_on,80,0,4,,,,,,,,,1,,,64,60
2160,note_on,80,0,3,,,,,,,,,0,,,64,60
2160,note_on,80,0,7,,,,,,,,,10,,,40,60
2160,note_on,80,0,2,,,,,,,,,6,,,52,110
2160,note_on,80,0,1,,,,,,,,,5,,,64,110
2160,note_on,80,0,6,,,,,,,,,3,,,52,60
2206,note_on,46,0,7,,,,,,,,,10,,,40,0
2206,note_on,46,0,2,,,,,,,,,6,,,52,0
2206,note_on,46,0,3,,,,,,,,,0,,,64,0
2206,note_on,46,0,4,,,,,,,,,1,,,64,0
2206,note_on,46,0,6,,,,,,,,,3,,,52,0
2206,note_on,46,0,1,,,,,,,,,5,,,64,0
2208,note_on,2,0,3,,,,,,,,,0,,,66,60
2208,note_on,2,0,6,,,,,,,,,3,,,54,60
2208,note_on,2,0,7,,,,,,,,,10,,,42,60
2208,note_on,2,0,4,,,,,,,,,1,,,66,60
2208,note_on,2,0,1,,,,,,,,,5,,,66,110
2208,note_on,2,0,2,,,,,,,,,6,,,54,110
2254,note_on,46,0,1,,,,,,,,,5,,,66,0
2254,note_on,46,0,6,,,,,,,,,3,,,54,0
2254,note_on,46,0,4,,,,,,,,,1,,,66,0
2254,note_on,46,0,3,,,,,,,,,0,,,66,0
2254,note_on,46,0,2,,,,,,,,,6,,,54,0
2254,note_on,46,0,7,,,,,,,,,10,,,42,0
2256,note_on,2,0,6,,,,,,,,,3,,,56,60
2256,note_on,2,0,2,,,,,,,,,6,,,56,110
2256,note_on,2,0,4,,,,,,,,,1,,,68,60
2256,note_on,2,0,7,,,,,,,,,10,,,44,60
2256,note_on,2,0,1,,,,,,,,,5,,,68,110
2256,note_on,2,0,3,,,,,,,,,0,,,68,60
2302,note_on,46,0,2,,,,,,,,,6,,,56,0
2302,note_on,46,0,4,,,,,,,,,1,,,68,0
2302,note_on,46,0,7,,,,,,,,,10,,,44,0
2302,note_on,46,0,3,,,,,,,,,0,,,68,0
2302,note_on,46,0,6,,,,,,,,,3,,,56,0
2302,note_on,46,0,1,,,,,,,,,5,,,68,0
2304,note_on,2,0,1,,,,,,,,,5,,,69,110
2304,note_on,2,0,4,,,,,,,,,1,,,69,60
2304,note_on,2,0,6,,,,,,,,,3,,,57,60
2304,note_on,2,0,3,,,,,,,,,0,,,69,60
2304,note_on,2,0,7,,,,,,,,,10,,,45,60
2304,note_on,2,0,2,,,,,,,,,6,,,57,110
2350,note_on,46,0,3,,,,,,,,,0,,,69,0
2350,note_on,46,0,1,,,,,,,,,5,,,69,0
2350,note_on,46,0,6,,,,,,,,,3,,,57,0
2350,note_on,46,0,7,,,,,,,,,10,,,45,0
2350,note_on,46,0,4,,,,,,,,,1,,,69,0
2350,note_on,46,0,2,,,,,,,,,6,,,57,0
2352,note_on,2,0,4,,,,,,,,,1,,,69,60
2352,note_on,2,0,7,,,,,,,,,10,,,45,60
2352,note_on,2,0,3,,,,,,,,,0,,,69,60
2352,note_on,2,0,2,,,,,,,,,6,,,57,110
2352,note_on,2,0,1,,,,,,,,,5,,,69,110
2352,note_on,2,0,6,,,,,,,,,3,,,57,60
2398,note_on,46,0,4,,,,,,,,,1,,,69,0
2398,note_on,46,0,1,,,,,,,,,5,,,69,0
2398,note_on,46,0,7,,,,,,,,,10,,,45,0
2398,note_on,46,0,6,,,,,,,,,3,,,57,0
2398,note_on,46,0,2,,,,,,,,,6,,,57,0
2398,note_on,46,0,3,,,,,,,,,0,,,69,0
2400,note_on,2,0,7,,,,,,,,,10,,,47,60
2400,note_on,2,0,1,,,,,,,,,5,,,71,110
2400,note_on,2,0,2,,,,,,,,,6,,,59,110
2400,note_on,2,0,3,,,,,,,,,0,,,71,60
2400,note_on,2,0,4,,,,,,,,,1,,,71,60
2400,note_on,2,0,6,,,,,,,,,3,,,59,60
2446,note_on,46,0,1,,,,,,,,,5,,,71,0
2446,note_on,46,0,7,,,,,,,,,10,,,47,0
2446,note_on,46,0,4,,,,,,,,,1,,,71,0
2446,note_on,46,0,6,,,,,,,,,3,,,59,0
2446,note_on,46,0,3,,,,,,,,,0,,,71,0
2446,note_on,46,0,2,,,,,,,,,6,,,59,0
2448,note_on,2,0,7,,,,,,,,,10,,,47,60
2448,note_on,2,0,6,,,,,,,,,3,,,59,60
2448,note_on,2,0,1,,,,,,,,,5,,,71,110
2448,note_on,2,0,4,,,,,,,,,1,,,71,60
2448,note_on,2,0,3,,,,,,,,,0,,,71,60
2448,note_on,2,0,2,,,,,,,,,6,,,59,110
2494,note_on,46,0,4,,,,,,,,,1,,,71,0
2494,note_on,46,0,6,,,,,,,,,3,,,59,0
2494,note_on,46,0,1,,,,,,,,,5,,,71,0
2494,note_on,46,0,3,,,,,,,,,0,,,71,0
2494,note_on,46,0,7,,,,,,,,,10,,,47,0
2494,note_on,46,0,2,,,,,,,,,6,,,59,0
2496,note_on,2,0,2,,,,,,,,,6,,,61,110
2496,note_on,2,0,3,,,,,,,,,0,,,73,60
2496,note_on,2,0,7,,,,,,,,,10,,,49,60
2496,note_on,2,0,4,,,,,,,,,1,,,73,60
2496,note_on,2,0,1,,,,,,,,,5,,,73,110
2496,note_on,2,0,6,,,,,,,,,3,,,61,60
2542,note_on,46,0,7,,,,,,,,,10,,,49,0
2542,note_on,46,0,4,,,,,,,,,1,,,73,0
2542,note_on,46,0,2,,,,,,,,,6,,,61,0
2542,note_on,46,0,3,,,,,,,,,0,,,73,0
2542,note_on,46,0,6,,,,,,,,,3,,,61,0
2542,note_on,46,0,1,,,,,,,,,5,,,73,0
2544,note_on,2,0,4,,,,,,,,,1,,,73,60
2544,note_on,2,0,2,,,,,,,,,6,,,61,110
2544,note_on,2,0,7,,,,,,,,,10,,,49,60
2544,note_on,2,0,1,,,,,,,,,5,,,73,110
2544,note_on,2,0,3,,,,,,,,,0,,,73,60
2544,note_on,2,0,6,,,,,,,,,3,,,61,60
2590,note_on,46,0,2,,,,,,,,,6,,,61,0
2590,note_on,46,0,7,,,,,,,,,10,,,49,0
2590,note_on,46,0,3,,,,,,,,,0,,,73,0
2590,note_on,46,0,4,,,,,,,,,1,,,73,0
2590,note_on,46,0,1,,,,,,,,,5,,,73,0
2590,note_on,46,0,6,,,,,,,,,3,,,61,0
2592,note_on,2,0,3,,,,,,,,,0,,,74,60
2592,note_on,2,0,2,,,,,,,,,6,,,62,110
2592,note_on,2,0,7,,,,,,,,,10,,,50,60
2592,note_on,2,0,1,,,,,,,,,5,,,74,110
2592,note_on,2,0,4,,,,,,,,,1,,,74,60
2592,note_on,2,0,6,,,,,,,,,3,,,62,60
2638,note_on,46,0,2,,,,,,,,,6,,,62,0
2638,note_on,46,0,3,,,,,,,,,0,,,74,0
2638,note_on,46,0,6,,,,,,,,,3,,,62,0
2638,note_on,46,0,4,,,,,,,,,1,,,74,0
2638,note_on,46,0,7,,,,,,,,,10,,,50,0
2638,note_on,46,0,1,,,,,,,,,5,,,74,0
2640,note_on,2,0,3,,,,,,,,,0,,,74,60
2640,note_on,2,0,1,,,,,,,,,5,,,74,110
2640,note_on,2,0,4,,,,,,,,,1,,,74,60
2640,note_on,2,0,6,,,,,,,,,3,,,62,60
2640,note_on,2,0,2,,,,,,,,,6,,,62,110
2640,note_on,2,0,7,,,,,,,,,10,,,50,60
2686,note_on,46,0,2,,,,,,,,,6,,,62,0
2686,note_on,46,0,6,,,,,,,,,3,,,62,0
2686,note_on,46,0,4,,,,,,,,,1,,,74,0
2686,note_on,46,0,3,,,,,,,,,0,,,74,0
2686,note_on,46,0,1,,,,,,,,,5,,,74,0
2686,note_on,46,0,7,,,,,,,,,10,,,50,0
2688,note_on,2,0,7,,,,,,,,,10,,,52,60
2688,note_on,2,0,2,,,,,,,,,6,,,64,110
2688,note_on,2,0,6,,,,,,,,,3,,,64,60
2688,note_on,2,0,3,,,,,,,,,0,,,76,60
2688,note_on,2,0,1,,,,,,,,,5,,,76,110
2688,note_on,2,0,4,,,,,,,,,1,,,76,60
2782,note_on,94,0,2,,,,,,,,,6,,,64,0
2782,note_on,94,0,1,,,,,,,,,5,,,76,0
2782,note_on,94,0,3,,,,,,,,,0,,,76,0
2782,note_on,94,0,7,,,,,,,,,10,,,52,0
2782,note_on,94,0,6,,,,,,,,,3,,,64,0
2782,note_on,94,0,4,,,,,,,,,1,,,76,0
2784,note_on,2,0,3,,,,,,,,,0,,,64,60
2784,note_on,2,0,7,,,,,,,,,10,,,40,60
2784,note_on,2,0,1,,,,,,,,,5,,,64,110
2784,note_on,2,0,6,,,,,,,,,3,,,52,60
2784,note_on,2,0,2,,,,,,,,,6,,,52,110
2784,note_on,2,0,4,,,,,,,,,1,,,64,60
2878,note_on,94,0,1,,,,,,,,,5,,,64,0
2878,note_on,94,0,3,,,,,,,,,0,,,64,0
2878,note_on,94,0,4,,,,,,,,,1,,,64,0
2878,note_on,94,0,7,,,,,,,,,10,,,40,0
2878,note_on,94,0,2,,,,,,,,,6,,,52,0
2878,note_on,94,0,6,,,,,,,,,3,,,52,0
3072,note_on,194,0,2,,,,,,,,,6,,,64,110
3072,note_on,194,0,4,,,,,,,,,1,,,76,60
3072,note_on,194,0,3,,,,,,,,,0,,,76,60
3072,note_on,194,0,6,,,,,,,,,3,,,64,60
3072,note_on,194,0,7,,,,,,,,,10,,,52,60
3072,note_on,194,0,1,,,,,,,,,5,,,76,110
3166,note_on,94,0,2,,,,,,,,,6,,,64,0
3166,note_on,94,0,3,,,,,,,,,0,,,76,0
3166,note_on,94,0,1,,,,,,,,,5,,,76,0
3166,note_on,94,0,7,,,,,,,,,10,,,52,0
3166,note_on,94,0,4,,,,,,,,,1,,,76,0
3166,note_on,94,0,6,,,,,,,,,3,,,64,0
3168,note_on,2,0,3,,,,,,,,,0,,,64,60
3168,note_on,2,0,2,,,,,,,,,6,,,52,110
3168,note_on,2,0,7,,,,,,,,,10,,,40,60
3168,note_on,2,0,1,,,,,,,,,5,,,64,110
3168,note_on,2,0,4,,,,,,,,,1,,,64,60
3168,note_on,2,0,6,,,,,,,,,3,,,52,60
3200,note_on,32,0,1,,,,,,,,,5,,,64,0
3200,note_on,32,0,2,,,,,,,,,6,,,52,0
3200,note_on,32,0,7,,,,,,,,,10,,,40,0
3200,note_on,32,0,6,,,,,,,,,3,,,52,0
3200,note_on,32,0,4,,,,,,,,,1,,,64,0
3200,note_on,32,0,3,,,,,,,,,0,,,64,0
3264,note_on,64,0,6,,,,,,,,,3,,,52,60
3264,note_on,64,0,7,,,,,,,,,10,,,40,60
3264,note_on,64,0,4,,,,,,,,,1,,,64,60
3264,note_on,64,0,3,,,,,,,,,0,,,64,60
3264,note_on,64,0,1,,,,,,,,,5,,,64,110
3264,note_on,64,0,2,,,,,,,,,6,,,52,110
3296,note_on,32,0,6,,,,,,,,,3,,,52,0
3296,note_on,32,0,7,,,,,,,,,10,,,40,0
3296,note_on,32,0,4,,,,,,,,,1,,,64,0
3296,note_on,32,0,2,,,,,,,,,6,,,52,0
3296,note_on,32,0,3,,,,,,,,,0,,,64,0
3296,note_on,32,0,1,,,,,,,,,5,,,64,0
3360,note_on,64,0,6,,,,,,,,,3,,,52,60
3360,note_on,64,0,2,,,,,,,,,6,,,52,110
3360,note_on,64,0,1,,,,,,,,,5,,,64,110
3360,note_on,64,0,3,,,,,,,,,0,,,64,60
3360,note_on,64,0,4,,,,,,,,,1,,,64,60
3360,note_on,64,0,7,,,,,,,,,10,,,40,60
3392,note_on,32,0,3,,,,,,,,,0,,,64,0
3392,note_on,32,0,1,,,,,,,,,5,,,64,0
3392,note_on,32,0,6,,,,,,,,,3,,,52,0
3392,note_on,32,0,7,,,,,,,,,10,,,40,0
3392,note_on,32,0,4,,,,,,,,,1,,,64,0
3392,note_on,32,0,2,,,,,,,,,6,,,52,0
3456,note_on,64,0,2,,,,,,,,,6,,,52,110
3456,note_on,64,0,7,,,,,,,,,10,,,40,60
3456,note_on,64,0,1,,,,,,,,,5,,,64,110
3456,note_on,64,0,6,,,,,,,,,3,,,52,60
3456,note_on,64,0,4,,,,,,,,,1,,,64,60
3456,note_on,64,0,3,,,,,,,,,0,,,64,60
3616,note_on,160,0,4,,,,,,,,,1,,,64,0
3616,note_on,160,0,1,,,,,,,,,5,,,64,0
3616,note_on,160,0,6,,,,,,,,,3,,,52,0
3616,note_on,160,0,3,,,,,,,,,0,,,64,0
3616,note_on,160,0,2,,,,,,,,,6,,,52,0
3616,note_on,160,0,7,,,,,,,,,10,,,40,0
3696,note_on,80,0,3,,,,,,,,,0,,,71,60
3696,note_on,80,0,4,,,,,,,,,1,,,71,60
3696,note_on,80,0,7,,,,,,,,,10,,,47,60
3696,note_on,80,0,2,,,,,,,,,6,,,59,110
3696,note_on,80,0,1,,,,,,,,,5,,,71,110
3696,note_on,80,0,6,,,,,,,,,3,,,59,60
3742,note_on,46,0,6,,,,,,,,,3,,,59,0
3742,note_on,46,0,2,,,,,,,,,6,,,59,0
3742,note_on,46,0,7,,,,,,,,,10,,,47,0
3742,note_on,46,0,4,,,,,,,,,1,,,71,0
3742,note_on,46,0,3,,,,,,,,,0,,,71,0
3742,note_on,46,0,1,,,,,,,,,5,,,71,0
3744,note_on,2,0,1,,,,,,,,,5,,,73,110
3744,note_on,2,0,6,,,,,,,,,3,,,61,60
3744,note_on,2,0,2,,,,,,,,,6,,,61,110
3744,note_on,2,0,7,,,,,,,,,10,,,49,60
3744,note_on,2,0,4,,,,,,,,,1,,,73,60
3744,note_on,2,0,3,,,,,,,,,0,,,73,60
3790,note_on,46,0,3,,,,,,,,,0,,,73,0
3790,note_on,46,0,2,,,,,,,,,6,,,61,0
3790,note_on,46,0,1,,,,,,,,,5,,,73,0
3790,note_on,46,0,4,,,,,,,,,1,,,73,0
3790,note_on,46,0,7,,,,,,,,,10,,,49,0
3790,note_on,46,0,6,,,,,,,,,3,,,61,0
3792,note_on,2,0,4,,,,,,,,,1,,,75,60
3792,note_on,2,0,6,,,,,,,,,3,,,63,60
3792,note_on,2,0,2,,,,,,,,,6,,,63,110
3792,note_on,2,0,7,,,,,,,,,10,,,51,60
3792,note_on,2,0,1,,,,,,,,,5,,,75,110
3792,note_on,2,0,3,,,,,,,,,0,,,75,60
3838,note_on,46,0,6,,,,,,,,,3,,,63,0
3838,note_on,46,0,4,,,,,,,,,1,,,75,0
3838,note_on,46,0,1,,,,,,,,,5,,,75,0
3838,note_on,46,0,7,,,,,,,,,10,,,51,0
3838,note_on,46,0,3,,,,,,,,,0,,,75,0
3838,note_on,46,0,2,,,,,,,,,6,,,63,0
3840,note_on,2,0,6,,,,,,,,,3,,,64,60
3840,note_on,2,0,4,,,,,,,,,1,,,76,60
3840,note_on,2,0,3,,,,,,,,,0,,,76,60
3840,note_on,2,0,1,,,,,,,,,5,,,76,110
3840,note_on,2,0,7,,,,,,,,,10,,,52,60
3840,note_on,2,0,2,,,,,,,,,6,,,64,110
3934,note_on,94,0,7,,,,,,,,,10,,,52,0
3934,note_on,94,0,3,,,,,,,,,0,,,76,0
3934,note_on,94,0,1,,,,,,,,,5,,,76,0
3934,note_on,94,0,2,,,,,,,,,6,,,64,0
3934,note_on,94,0,6,,,,,,,,,3,,,64,0
3934,note_on,94,0,4,,,,,,,,,1,,,76,0
3936,note_on,2,0,7,,,,,,,,,10,,,40,60
3936,note_on,2,0,2,,,,,,,,,6,,,52,110
3936,note_on,2,0,1,,,,,,,,,5,,,64,110
3936,note_on,2,0,6,,,,,,,,,3,,,52,60
3936,note_on,2,0,3,,,,,,,,,0,,,64,60
3936,note_on,2,0,4,,,,,,,,,1,,,64,60
3968,note_on,32,0,1,,,,,,,,,5,,,64,0
3968,note_on,32,0,2,,,,,,,,,6,,,52,0
3968,note_on,32,0,4,,,,,,,,,1,,,64,0
3968,note_on,32,0,6,,,,,,,,,3,,,52,0
3968,note_on,32,0,7,,,,,,,,,10,,,40,0
3968,note_on,32,0,3,,,,,,,,,0,,,64,0
4032,note_on,64,0,7,,,,,,,,,10,,,40,60
4032,note_on,64,0,2,,,,,,,,,6,,,52,110
4032,note_on,64,0,6,,,,,,,,,3,,,52,60
4032,note_on,64,0,1,,,,,,,,,5,,,64,110
4032,note_on,64,0,4,,,,,,,,,1,,,64,60
4032,note_on,64,0,3,,,,,,,,,0,,,64,60
4064,note_on,32,0,1,,,,,,,,,5,,,64,0
4064,note_on,32,0,2,,,,,,,,,6,,,52,0
4064,note_on,32,0,7,,,,,,,,,10,,,40,0
4064,note_on,32,0,3,,,,,,,,,0,,,64,0
4064,note_on,32,0,4,,,,,,,,,1,,,64,0
4064,note_on,32,0,6,,,,,,,,,3,,,52,0
4128,note_on,64,0,3,,,,,,,,,0,,,64,60
4128,note_on,64,0,1,,,,,,,,,5,,,64,110
4128,note_on,64,0,6,,,,,,,,,3,,,52,60
4128,note_on,64,0,7,,,,,,,,,10,,,40,60
4128,note_on,64,0,4,,,,,,,,,1,,,64,60
4128,note_on,64,0,2,,,,,,,,,6,,,52,110
4160,note_on,32,0,6,,,,,,,,,3,,,52,0
4160,note_on,32,0,1,,,,,,,,,5,,,64,0
4160,note_on,32,0,4,,,,,,,,,1,,,64,0
4160,note_on,32,0,3,,,,,,,,,0,,,64,0
4160,note_on,32,0,7,,,,,,,,,10,,,40,0
4160,note_on,32,0,2,,,,,,,,,6,,,52,0
4224,note_on,64,0,1,,,,,,,,,5,,,64,110
4224,note_on,64,0,6,,,,,,,,,3,,,52,60
4224,note_on,64,0,7,,,,,,,,,10,,,40,60
4224,note_on,64,0,4,,,,,,,,,1,,,64,60
4224,note_on,64,0,2,,,,,,,,,6,,,52,110
4224,note_on,64,0,3,,,,,,,,,0,,,64,60
4384,note_on,160,0,2,,,,,,,,,6,,,52,0
4384,note_on,160,0,3,,,,,,,,,0,,,64,0
4384,note_on,160,0,7,,,,,,,,,10,,,40,0
4384,note_on,160,0,6,,,,,,,,,3,,,52,0
4384,note_on,160,0,1,,,,,,,,,5,,,64,0
4384,note_on,160,0,4,,,,,,,,,1,,,64,0
4464,note_on,80,0,7,,,,,,,,,10,,,42,60
4464,note_on,80,0,6,,,,,,,,,3,,,54,60
4464,note_on,80,0,2,,,,,,,,,6,,,54,110
4464,note_on,80,0,4,,,,,,,,,1,,,66,60
4464,note_on,80,0,1,,,,,,,,,5,,,66,110
4464,note_on,80,0,3,,,,,,,,,0,,,66,60
4510,note_on,46,0,2,,,,,,,,,6,,,54,0
4510,note_on,46,0,4,,,,,,,,,1,,,66,0
4510,note_on,46,0,1,,,,,,,,,5,,,66,0
4510,note_on,46,0,7,,,,,,,,,10,,,42,0
4510,note_on,46,0,6,,,,,,,,,3,,,54,0
4510,note_on,46,0,3,,,,,,,,,0,,,66,0
4512,note_on,2,0,4,,,,,,,,,1,,,68,60
4512,note_on,2,0,1,,,,,,,,,5,,,68,110
4512,note_on,2,0,7,,,,,,,,,10,,,44,60
4512,note_on,2,0,6,,,,,,,,,3,,,56,60
4512,note_on,2,0,3,,,,,,,,,0,,,68,60
4512,note_on,2,0,2,,,,,,,,,6,,,56,110
4558,note_on,46,0,6,,,,,,,,,3,,,56,0
4558,note_on,46,0,4,,,,,,,,,1,,,68,0
4558,note_on,46,0,7,,,,,,,,,10,,,44,0
4558,note_on,46,0,2,,,,,,,,,6,,,56,0
4558,note_on,46,0,1,,,,,,,,,5,,,68,0
4558,note_on,46,0,3,,,,,,,,,0,,,68,0
4560,note_on,2,0,1,,,,,,,,,5,,,69,110
4560,note_on,2,0,2,,,,,,,,,6,,,57,110
4560,note_on,2,0,3,,,,,,,,,0,,,69,60
4560,note_on,2,0,7,,,,,,,,,10,,,45,60
4560,note_on,2,0,4,,,,,,,,,1,,,69,60
4560,note_on,2,0,6,,,,,,,,,3,,,57,60
4606,note_on,46,0,7,,,,,,,,,10,,,45,0
4606,note_on,46,0,2,,,,,,,,,6,,,57,0
4606,note_on,46,0,6,,,,,,,,,3,,,57,0
4606,note_on,46,0,3,,,,,,,,,0,,,69,0
4606,note_on,46,0,4,,,,,,,,,1,,,69,0
4606,note_on,46,0,1,,,,,,,,,5,,,69,0
4608,note_on,2,0,2,,,,,,,,,6,,,59,110
4608,note_on,2,0,1,,,,,,,,,5,,,71,110
4608,note_on,2,0,3,,,,,,,,,0,,,71,60
4608,note_on,2,0,4,,,,,,,,,1,,,71,60
4608,note_on,2,0,6,,,,,,,,,3,,,59,60
4608,note_on,2,0,7,,,,,,,,,10,,,47,60
4654,note_on,46,0,6,,,,,,,,,3,,,59,0
4654,note_on,46,0,7,,,,,,,,,10,,,47,0
4654,note_on,46,0,2,,,,,,,,,6,,,59,0
4654,note_on,46,0,3,,,,,,,,,0,,,71,0
4654,note_on,46,0,4,,,,,,,,,1,,,71,0
4654,note_on,46,0,1,,,,,,,,,5,,,71,0
4656,note_on,2,0,6,,,,,,,,,3,,,59,60
4656,note_on,2,0,4,,,,,,,,,1,,,71,60
4656,note_on,2,0,2,,,,,,,,,6,,,59,110
4656,note_on,2,0,1,,,,,,,,,5,,,71,110
4656,note_on,2,0,7,,,,,,,,,10,,,47,60
4656,note_on,2,0,3,,,,,,,,,0,,,71,60
4702,note_on,46,0,2,,,,,,,,,6,,,59,0
4702,note_on,46,0,7,,,,,,,,,10,,,47,0
4702,note_on,46,0,4,,,,,,,,,1,,,71,0
4702,note_on,46,0,6,,,,,,,,,3,,,59,0
4702,note_on,46,0,1,,,,,,,,,5,,,71,0
4702,note_on,46,0,3,,,,,,,,,0,,,71,0
4704,note_on,2,0,2,,,,,,,,,6,,,61,110
4704,note_on,2,0,7,,,,,,,,,10,,,49,60
4704,note_on,2,0,1,,,,,,,,,5,,,73,110
4704,note_on,2,0,4,,,,,,,,,1,,,73,60
4704,note_on,2,0,6,,,,,,,,,3,,,61,60
4704,note_on,2,0,3,,,,,,,,,0,,,73,60
4750,note_on,46,0,4,,,,,,,,,1,,,73,0
4750,note_on,46,0,7,,,,,,,,,10,,,49,0
4750,note_on,46,0,6,,,,,,,,,3,,,61,0
4750,note_on,46,0,1,,,,,,,,,5,,,73,0
4750,note_on,46,0,2,,,,,,,,,6,,,61,0
4750,note_on,46,0,3,,,,,,,,,0,,,73,0
4752,note_on,2,0,7,,,,,,,,,10,,,49,60
4752,note_on,2,0,6,,,,,,,,,3,,,61,60
4752,note_on,2,0,2,,,,,,,,,6,,,61,110
4752,note_on,2,0,1,,,,,,,,,5,,,73,110
4752,note_on,2,0,4,,,,,,,,,1,,,73,60
4752,note_on,2,0,3,,,,,,,,,0,,,73,60
4798,note_on,46,0,7,,,,,,,,,10,,,49,0
4798,note_on,46,0,1,,,,,,,,,5,,,73,0
4798,note_on,46,0,2,,,,,,,,,6,,,61,0
4798,note_on,46,0,6,,,,,,,,,3,,,61,0
4798,note_on,46,0,4,,,,,,,,,1,,,73,0
4798,note_on,46,0,3,,,,,,,,,0,,,73,0
4800,note_on,2,0,3,,,,,,,,,0,,,74,60
4800,note_on,2,0,4,,,,,,,,,1,,,74,60
4800,note_on,2,0,2,,,,,,,,,6,,,62,110
4800,note_on,2,0,1,,,,,,,,,5,,,74,110
4800,note_on,2,0,7,,,,,,,,,10,,,50,60
4800,note_on,2,0,6,,,,,,,,,3,,,62,60
4846,note_on,46,0,2,,,,,,,,,6,,,62,0
4846,note_on,46,0,4,,,,,,,,,1,,,74,0
4846,note_on,46,0,1,,,,,,,,,5,,,74,0
4846,note_on,46,0,6,,,,,,,,,3,,,62,0
4846,note_on,46,0,7,,,,,,,,,10,,,50,0
4846,note_on,46,0,3,,,,,,,,,0,,,74,0
4848,note_on,2,0,3,,,,,,,,,0,,,74,60
4848,note_on,2,0,4,,,,,,,,,1,,,74,60
4848,note_on,2,0,7,,,,,,,,,10,,,50,60
4848,note_on,2,0,6,,,,,,,,,3,,,62,60
4848,note_on,2,0,2,,,,,,,,,6,,,62,110
4848,note_on,2,0,1,,,,,,,,,5,,,74,110
4894,note_on,46,0,2,,,,,,,,,6,,,62,0
4894,note_on,46,0,6,,,,,,,,,3,,,62,0
4894,note_on,46,0,4,,,,,,,,,1,,,74,0
4894,note_on,46,0,3,,,,,,,,,0,,,74,0
4894,note_on,46,0,7,,,,,,,,,10,,,50,0
4894,note_on,46,0,1,,,,,,,,,5,,,74,0
4896,note_on,2,0,3,,,,,,,,,0,,,71,60
4896,note_on,2,0,7,,,,,,,,,10,,,47,60
4896,note_on,2,0,1,,,,,,,,,5,,,71,110
4896,note_on,2,0,2,,,,,,,,,6,,,59,110
4896,note_on,2,0,6,,,,,,,,,3,,,59,60
4896,note_on,2,0,4,,,,,,,,,1,,,71,60
4942,note_on,46,0,4,,,,,,,,,1,,,71,0
4942,note_on,46,0,2,,,,,,,,,6,,,59,0
4942,note_on,46,0,6,,,,,,,,,3,,,59,0
4942,note_on,46,0,1,,,,,,,,,5,,,71,0
4942,note_on,46,0,3,,,,,,,,,0,,,71,0
4942,note_on,46,0,7,,,,,,,,,10,,,47,0
4944,note_on,2,0,1,,,,,,,,,5,,,71,110
4944,note_on,2,0,2,,,,,,,,,6,,,59,110
4944,note_on,2,0,3,,,,,,,,,0,,,71,60
4944,note_on,2,0,4,,,,,,,,,1,,,71,60
4944,note_on,2,0,7,,,,,,,,,10,,,47,60
4944,note_on,2,0,6,,,,,,,,,3,,,59,60
4990,note_on,46,0,4,,,,,,,,,1,,,71,0
4990,note_on,46,0,7,,,,,,,,,10,,,47,0
4990,note_on,46,0,6,,,,,,,,,3,,,59,0
4990,note_on,46,0,1,,,,,,,,,5,,,71,0
4990,note_on,46,0,3,,,,,,,,,0,,,71,0
4990,note_on,46,0,2,,,,,,,,,6,,,59,0
4992,note_on,2,0,3,,,,,,,,,0,,,73,60
4992,note_on,2,0,7,,,,,,,,,10,,,49,60
4992,note_on,2,0,1,,,,,,,,,5,,,73,110
4992,note_on,2,0,4,,,,,,,,,1,,,73,60
4992,note_on,2,0,6,,,,,,,,,3,,,61,60
4992,note_on,2,0,2,,,,,,,,,6,,,61,110
5086,note_on,94,0,4,,,,,,,,,1,,,73,0
5086,note_on,94,0,1,,,,,,,,,5,,,73,0
5086,note_on,94,0,2,,,,,,,,,6,,,61,0
5086,note_on,94,0,7,,,,,,,,,10,,,49,0
5086,note_on,94,0,3,,,,,,,,,0,,,73,0
5086,note_on,94,0,6,,,,,,,,,3,,,61,0
5088,note_on,2,0,7,,,,,,,,,10,,,33,60
5088,note_on,2,0,3,,,,,,,,,0,,,57,60
5088,note_on,2,0,1,,,,,,,,,5,,,57,110
5088,note_on,2,0,4,,,,,,,,,1,,,57,60
5088,note_on,2,0,2,,,,,,,,,6,,,45,110
5088,note_on,2,0,6,,,,,,,,,3,,,45,60
5182,note_on,94,0,3,,,,,,,,,0,,,57,0
5182,note_on,94,0,7,,,,,,,,,10,,,33,0
5182,note_on,94,0,1,,,,,,,,,5,,,57,0
5182,note_on,94,0,6,,,,,,,,,3,,,45,0
5182,note_on,94,0,2,,,,,,,,,6,,,45,0
5182,note_on,94,0,4,,,,,,,,,1,,,57,0
5280,note_on,98,0,7,,,,,,,,,10,,,49,60
5280,note_on,98,0,1,,,,,,,,,5,,,73,110
5280,note_on,98,0,2,,,,,,,,,6,,,61,110
5280,note_on,98,0,4,,,,,,,,,1,,,73,60
5280,note_on,98,0,3,,,,,,,,,0,,,73,60
5280,note_on,98,0,6,,,,,,,,,3,,,61,60
5374,note_on,94,0,4,,,,,,,,,1,,,73,0
5374,note_on,94,0,7,,,,,,,,,10,,,49,0
5374,note_on,94,0,3,,,,,,,,,0,,,73,0
5374,note_on,94,0,1,,,,,,,,,5,,,73,0
5374,note_on,94,0,6,,,,,,,,,3,,,61,0
5374,note_on,94,0,2,,,,,,,,,6,,,61,0
5376,note_on,2,0,2,,,,,,,,,6,,,59,110
5376,note_on,2,0,3,,,,,,,,,0,,,71,60
5376,note_on,2,0,1,,,,,,,,,5,,,71,110
5376,note_on,2,0,4,,,,,,,,,1,,,71,60
5376,note_on,2,0,7,,,,,,,,,10,,,47,60
5376,note_on,2,0,6,,,,,,,,,3,,,59,60
5470,note_on,94,0,2,,,,,,,,,6,,,59,0
5470,note_on,94,0,1,,,,,,,,,5,,,71,0
5470,note_on,94,0,7,,,,,,,,,10,,,47,0
5470,note_on,94,0,6,,,,,,,,,3,,,59,0
5470,note_on,94,0,4,,,,,,,,,1,,,71,0
5470,note_on,94,0,3,,,,,,,,,0,,,71,0
5472,note_on,2,0,3,,,,,,,,,0,,,76,60
5472,note_on,2,0,6,,,,,,,,,3,,,64,60
5472,note_on,2,0,2,,,,,,,,,6,,,64,110
5472,note_on,2,0,4,,,,,,,,,1,,,76,60
5472,note_on,2,0,1,,,,,,,,,5,,,76,110
5472,note_on,2,0,7,,,,,,,,,10,,,52,60
5566,note_on,94,0,2,,,,,,,,,6,,,64,0
5566,note_on,94,0,1,,,,,,,,,5,,,76,0
5566,note_on,94,0,3,,,,,,,,,0,,,76,0
5566,note_on,94,0,7,,,,,,,,,10,,,52,0
5566,note_on,94,0,4,,,,,,,,,1,,,76,0
5566,note_on,94,0,6,,,,,,,,,3,,,64,0
5568,note_on,2,0,7,,,,,,,,,10,,,44,60
5568,note_on,2,0,6,,,,,,,,,3,,,56,60
5568,note_on,2,0,3,,,,,,,,,0,,,68,60
5568,note_on,2,0,4,,,,,,,,,1,,,68,60
5568,note_on,2,0,2,,,,,,,,,6,,,56,110
5568,note_on,2,0,1,,,,,,,,,5,,,68,110
5662,note_on,94,0,3,,,,,,,,,0,,,68,0
5662,note_on,94,0,2,,,,,,,,,6,,,56,0
5662,note_on,94,0,4,,,,,,,,,1,,,68,0
5662,note_on,94,0,6,,,,,,,,,3,,,56,0
5662,note_on,94,0,7,,,,,,,,,10,,,44,0
5662,note_on,94,0,1,,,,,,,,,5,,,68,0
5664,note_on,2,0,2,,,,,,,,,6,,,54,110
5664,note_on,2,0,4,,,,,,,,,1,,,66,60
5664,note_on,2,0,6,,,,,,,,,3,,,54,60
5664,note_on,2,0,3,,,,,,,,,0,,,66,60
5664,note_on,2,0,7,,,,,,,,,10,,,42,60
5664,note_on,2,0,1,,,,,,,,,5,,,66,110
5686,note_on,22,0,1,,,,,,,,,5,,,66,0
5686,note_on,22,0,4,,,,,,,,,1,,,66,0
5686,note_on,22,0,3,,,,,,,,,0,,,66,0
5688,note_on,2,0,4,,,,,,,,,1,,,68,60
5688,note_on,2,0,1,,,,,,,,,5,,,68,110
5688,note_on,2,0,3,,,,,,,,,0,,,68,60
5710,note_on,22,0,3,,,,,,,,,0,,,68,0
5710,note_on,22,0,4,,,,,,,,,1,,,68,0
5710,note_on,22,0,1,,,,,,,,,5,,,68,0
5712,note_on,2,0,4,,,,,,,,,1,,,66,60
5712,note_on,2,0,1,,,,,,,,,5,,,66,110
5712,note_on,2,0,3,,,,,,,,,0,,,66,60
5758,note_on,46,0,4,,,,,,,,,1,,,66,0
5758,note_on,94,0,7,,,,,,,,,10,,,42,0
5758,note_on,94,0,6,,,,,,,,,3,,,54,0
5758,note_on,46,0,1,,,,,,,,,5,,,66,0
5758,note_on,46,0,3,,,,,,,,,0,,,66,0
5758,note_on,94,0,2,,,,,,,,,6,,,54,0
5760,note_on,2,0,1,,,,,,,,,5,,,64,110
5760,note_on,2,0,3,,,,,,,,,0,,,64,60
5760,note_on,2,0,2,,,,,,,,,6,,,52,110
5760,note_on,2,0,6,,,,,,,,,3,,,52,60
5760,note_on,2,0,7,,,,,,,,,10,,,40,60
5760,note_on,2,0,4,,,,,,,,,1,,,64,60
5854,note_on,94,0,3,,,,,,,,,0,,,64,0
5854,note_on,94,0,2,,,,,,,,,6,,,52,0
5854,note_on,94,0,6,,,,,,,,,3,,,52,0
5854,note_on,94,0,7,,,,,,,,,10,,,40,0
5854,note_on,94,0,4,,,,,,,,,1,,,64,0
5854,note_on,94,0,1,,,,,,,,,5,,,64,0
5856,note_on,2,0,4,,,,,,,,,1,,,76,60
5856,note_on,2,0,3,,,,,,,,,0,,,76,60
5856,note_on,2,0,2,,,,,,,,,6,,,64,110
5856,note_on,2,0,6,,,,,,,,,3,,,64,60
5856,note_on,2,0,7,,,,,,,,,10,,,52,60
5856,note_on,2,0,1,,,,,,,,,5,,,76,110
5950,note_on,94,0,6,,,,,,,,,3,,,64,0
5950,note_on,94,0,7,,,,,,,,,10,,,52,0
5950,note_on,94,0,4,,,,,,,,,1,,,76,0
5950,note_on,94,0,3,,,,,,,,,0,,,76,0
5950,note_on,94,0,2,,,,,,,,,6,,,64,0
5950,note_on,94,0,1,,,,,,,,,5,,,76,0
5952,note_on,2,0,6,,,,,,,,,3,,,54,60
5952,note_on,2,0,4,,,,,,,,,1,,,66,60
5952,note_on,2,0,2,,,,,,,,,6,,,54,110
5952,note_on,2,0,3,,,,,,,,,0,,,66,60
5952,note_on,2,0,7,,,,,,,,,10,,,42,60
5952,note_on,2,0,1,,,,,,,,,5,,,66,110
6046,note_on,94,0,7,,,,,,,,,10,,,42,0
6046,note_on,94,0,2,,,,,,,,,6,,,54,0
6046,note_on,94,0,4,,,,,,,,,1,,,66,0
6046,note_on,94,0,3,,,,,,,,,0,,,66,0
6046,note_on,94,0,1,,,,,,,,,5,,,66,0
6046,note_on,94,0,6,,,,,,,,,3,,,54,0
6048,note_on,2,0,2,,,,,,,,,6,,,52,110
6048,note_on,2,0,6,,,,,,,,,3,,,52,60
6048,note_on,2,0,1,,,,,,,,,5,,,64,110
6048,note_on,2,0,3,,,,,,,,,0,,,64,60
6048,note_on,2,0,4,,,,,,,,,1,,,64,60
6048,note_on,2,0,7,,,,,,,,,10,,,40,60
6070,note_on,22,0,3,,,,,,,,,0,,,64,0
6070,note_on,22,0,4,,,,,,,,,1,,,64,0
6070,note_on,22,0,1,,,,,,,,,5,,,64,0
6072,note_on,2,0,3,,,,,,,,,0,,,66,60
6072,note_on,2,0,1,,,,,,,,,5,,,66,110
6072,note_on,2,0,4,,,,,,,,,1,,,66,60
6094,note_on,22,0,3,,,,,,,,,0,,,66,0
6094,note_on,22,0,4,,,,,,,,,1,,,66,0
6094,note_on,22,0,1,,,,,,,,,5,,,66,0
6096,note_on,2,0,4,,,,,,,,,1,,,64,60
6096,note_on,2,0,1,,,,,,,,,5,,,64,110
6096,note_on,2,0,3,,,,,,,,,0,,,64,60
6142,note_on,94,0,7,,,,,,,,,10,,,40,0
6142,note_on,46,0,4,,,,,,,,,1,,,64,0
6142,note_on,46,0,1,,,,,,,,,5,,,64,0
6142,note_on,94,0,2,,,,,,,,,6,,,52,0
6142,note_on,94,0,6,,,,,,,,,3,,,52,0
6142,note_on,46,0,3,,,,,,,,,0,,,64,0
6144,note_on,2,0,7,,,,,,,,,10,,,38,60
6144,note_on,2,0,6,,,,,,,,,3,,,50,60
6144,note_on,2,0,1,,,,,,,,,5,,,62,110
6144,note_on,2,0,3,,,,,,,,,0,,,62,60
6144,note_on,2,0,2,,,,,,,,,6,,,50,110
6144,note_on,2,0,4,,,,,,,,,1,,,62,60
6238,note_on,94,0,1,,,,,,,,,5,,,62,0
6238,note_on,94,0,7,,,,,,,,,10,,,38,0
6238,note_on,94,0,4,,,,,,,,,1,,,62,0
6238,note_on,94,0,2,,,,,,,,,6,,,50,0
6238,note_on,94,0,6,,,,,,,,,3,,,50,0
6238,note_on,94,0,3,,,,,,,,,0,,,62,0
6240,note_on,2,0,6,,,,,,,,,3,,,64,60
6240,note_on,2,0,2,,,,,,,,,6,,,64,110
6240,note_on,2,0,3,,,,,,,,,0,,,76,60
6240,note_on,2,0,7,,,,,,,,,10,,,52,60
6240,note_on,2,0,4,,,,,,,,,1,,,76,60
6240,note_on,2,0,1,,,,,,,,,5,,,76,110
6334,note_on,94,0,3,,,,,,,,,0,,,76,0
6334,note_on,94,0,2,,,,,,,,,6,,,64,0
6334,note_on,94,0,6,,,,,,,,,3,,,64,0
6334,note_on,94,0,4,,,,,,,,,1,,,76,0
6334,note_on,94,0,7,,,,,,,,,10,,,52,0
6334,note_on,94,0,1,,,,,,,,,5,,,76,0
6336,note_on,2,0,4,,,,,,,,,1,,,64,60
6336,note_on,2,0,1,,,,,,,,,5,,,64,110
6336,note_on,2,0,7,,,,,,,,,10,,,40,60
6336,note_on,2,0,6,,,,,,,,,3,,,52,60
6336,note_on,2,0,3,,,,,,,,,0,,,64,60
6336,note_on,2,0,2,,,,,,,,,6,,,52,110
6430,note_on,94,0,1,,,,,,,,,5,,,64,0
6430,note_on,94,0,3,,,,,,,,,0,,,64,0
6430,note_on,94,0,2,,,,,,,,,6,,,52,0
6430,note_on,94,0,6,,,,,,,,,3,,,52,0
6430,note_on,94,0,7,,,,,,,,,10,,,40,0
6430,note_on,94,0,4,,,,,,,,,1,,,64,0
6432,note_on,2,0,1,,,,,,,,,5,,,62,110
6432,note_on,2,0,2,,,,,,,,,6,,,50,110
6432,note_on,2,0,6,,,,,,,,,3,,,50,60
6432,note_on,2,0,7,,,,,,,,,10,,,38,60
6432,note_on,2,0,4,,,,,,,,,1,,,62,60
6432,note_on,2,0,3,,,,,,,,,0,,,62,60
6454,note_on,22,0,4,,,,,,,,,1,,,62,0
6454,note_on,22,0,3,,,,,,,,,0,,,62,0
6454,note_on,22,0,1,,,,,,,,,5,,,62,0
6456,note_on,2,0,3,,,,,,,,,0,,,64,60
6456,note_on,2,0,4,,,,,,,,,1,,,64,60
6456,note_on,2,0,1,,,,,,,,,5,,,64,110
6478,note_on,22,0,1,,,,,,,,,5,,,64,0
6478,note_on,22,0,3,,,,,,,,,0,,,64,0
6478,note_on,22,0,4,,,,,,,,,1,,,64,0
6480,note_on,2,0,3,,,,,,,,,0,,,62,60
6480,note_on,2,0,4,,,,,,,,,1,,,62,60
6480,note_on,2,0,1,,,,,,,,,5,,,62,110
6526,note_on,94,0,7,,,,,,,,,10,,,38,0
6526,note_on,46,0,4,,,,,,,,,1,,,62,0
6526,note_on,94,0,6,,,,,,,,,3,,,50,0
6526,note_on,46,0,3,,,,,,,,,0,,,62,0
6526,note_on,46,0,1,,,,,,,,,5,,,62,0
6526,note_on,94,0,2,,,,,,,,,6,,,50,0
6528,note_on,2,0,3,,,,,,,,,0,,,61,60
6528,note_on,2,0,4,,,,,,,,,1,,,61,60
6528,note_on,2,0,7,,,,,,,,,10,,,37,60
6528,note_on,2,0,1,,,,,,,,,5,,,61,110
6528,note_on,2,0,6,,,,,,,,,3,,,49,60
6528,note_on,2,0,2,,,,,,,,,6,,,49,110
6622,note_on,94,0,4,,,,,,,,,1,,,61,0
6622,note_on,94,0,1,,,,,,,,,5,,,61,0
6622,note_on,94,0,7,,,,,,,,,10,,,37,0
6622,note_on,94,0,6,,,,,,,,,3,,,49,0
6622,note_on,94,0,2,,,,,,,,,6,,,49,0
6622,note_on,94,0,3,,,,,,,,,0,,,61,0
6624,note_on,2,0,2,,,,,,,,,6,,,64,110
6624,note_on,2,0,7,,,,,,,,,10,,,52,60
6624,note_on,2,0,1,,,,,,,,,5,,,76,110
6624,note_on,2,0,4,,,,,,,,,1,,,76,60
6624,note_on,2,0,6,,,,,,,,,3,,,64,60
6624,note_on,2,0,3,,,,,,,,,0,,,76,60
6718,note_on,94,0,2,,,,,,,,,6,,,64,0
6718,note_on,94,0,1,,,,,,,,,5,,,76,0
6718,note_on,94,0,4,,,,,,,,,1,,,76,0
6718,note_on,94,0,6,,,,,,,,,3,,,64,0
6718,note_on,94,0,7,,,,,,,,,10,,,52,0
6718,note_on,94,0,3,,,,,,,,,0,,,76,0
6720,note_on,2,0,4,,,,,,,,,1,,,62,60
6720,note_on,2,0,7,,,,,,,,,10,,,38,60
6720,note_on,2,0,6,,,,,,,,,3,,,50,60
6720,note_on,2,0,1,,,,,,,,,5,,,62,110
6720,note_on,2,0,2,,,,,,,,,6,,,50,110
6720,note_on,2,0,3,,,,,,,,,0,,,62,60
6814,note_on,94,0,1,,,,,,,,,5,,,62,0
6814,note_on,94,0,7,,,,,,,,,10,,,38,0
6814,note_on,94,0,3,,,,,,,,,0,,,62,0
6814,note_on,94,0,2,,,,,,,,,6,,,50,0
6814,note_on,94,0,6,,,,,,,,,3,,,50,0
6814,note_on,94,0,4,,,,,,,,,1,,,62,0
6816,note_on,2,0,2,,,,,,,,,6,,,49,110
6816,note_on,2,0,6,,,,,,,,,3,,,49,60
6816,note_on,2,0,4,,,,,,,,,1,,,61,60
6816,note_on,2,0,7,,,,,,,,,10,,,37,60
6816,note_on,2,0,3,,,,,,,,,0,,,61,60
6816,note_on,2,0,1,,,,,,,,,5,,,61,110
6838,note_on,22,0,4,,,,,,,,,1,,,61,0
6838,note_on,22,0,3,,,,,,,,,0,,,61,0
6838,note_on,22,0,1,,,,,,,,,5,,,61,0
6840,note_on,2,0,4,,,,,,,,,1,,,62,60
6840,note_on,2,0,1,,,,,,,,,5,,,62,110
6840,note_on,2,0,3,,,,,,,,,0,,,62,60
6862,note_on,22,0,4,,,,,,,,,1,,,62,0
6862,note_on,22,0,3,,,,,,,,,0,,,62,0
6862,note_on,22,0,1,,,,,,,,,5,,,62,0
6864,note_on,2,0,4,,,,,,,,,1,,,61,60
6864,note_on,2,0,3,,,,,,,,,0,,,61,60
6864,note_on,2,0,1,,,,,,,,,5,,,61,110
6910,note_on,94,0,2,,,,,,,,,6,,,49,0
6910,note_on,46,0,4,,,,,,,,,1,,,61,0
6910,note_on,94,0,7,,,,,,,,,10,,,37,0
6910,note_on,46,0,3,,,,,,,,,0,,,61,0
6910,note_on,94,0,6,,,,,,,,,3,,,49,0
6910,note_on,46,0,1,,,,,,,,,5,,,61,0
6912,note_on,2,0,2,,,,,,,,,6,,,47,110
6912,note_on,2,0,6,,,,,,,,,3,,,47,60
6912,note_on,2,0,1,,,,,,,,,5,,,59,110
6912,note_on,2,0,7,,,,,,,,,10,,,35,60
6912,note_on,2,0,3,,,,,,,,,0,,,59,60
6912,note_on,2,0,4,,,,,,,,,1,,,59,60
7006,note_on,94,0,2,,,,,,,,,6,,,47,0
7006,note_on,94,0,4,,,,,,,,,1,,,59,0
7006,note_on,94,0,1,,,,,,,,,5,,,59,0
7006,note_on,94,0,6,,,,,,,,,3,,,47,0
7006,note_on,94,0,3,,,,,,,,,0,,,59,0
7006,note_on,94,0,7,,,,,,,,,10,,,35,0
7008,note_on,2,0,7,,,,,,,,,10,,,52,60
7008,note_on,2,0,2,,,,,,,,,6,,,64,110
7008,note_on,2,0,4,,,,,,,,,1,,,76,60
7008,note_on,2,0,6,,,,,,,,,3,,,64,60
7008,note_on,2,0,1,,,,,,,,,5,,,76,110
7008,note_on,2,0,3,,,,,,,,,0,,,76,60
7102,note_on,94,0,6,,,,,,,,,3,,,64,0
7102,note_on,94,0,3,,,,,,,,,0,,,76,0
7102,note_on,94,0,1,,,,,,,,,5,,,76,0
7102,note_on,94,0,7,,,,,,,,,10,,,52,0
7102,note_on,94,0,2,,,,,,,,,6,,,64,0
7102,note_on,94,0,4,,,,,,,,,1,,,76,0
7104,note_on,2,0,4,,,,,,,,,1,,,61,60
7104,note_on,2,0,7,,,,,,,,,10,,,37,60
7104,note_on,2,0,1,,,,,,,,,5,,,61,110
7104,note_on,2,0,6,,,,,,,,,3,,,49,60
7104,note_on,2,0,3,,,,,,,,,0,,,61,60
7104,note_on,2,0,2,,,,,,,,,6,,,49,110
7198,note_on,94,0,2,,,,,,,,,6,,,49,0
7198,note_on,94,0,7,,,,,,,,,10,,,37,0
7198,note_on,94,0,4,,,,,,,,,1,,,61,0
7198,note_on,94,0,6,,,,,,,,,3,,,49,0
7198,note_on,94,0,1,,,,,,,,,5,,,61,0
7198,note_on,94,0,3,,,,,,,,,0,,,61,0
7200,note_on,2,0,3,,,,,,,,,0,,,59,60
7200,note_on,2,0,4,,,,,,,,,1,,,59,60
7200,note_on,2,0,7,,,,,,,,,10,,,35,60
7200,note_on,2,0,2,,,,,,,,,6,,,47,110
7200,note_on,2,0,6,,,,,,,,,3,,,47,60
7200,note_on,2,0,1,,,,,,,,,5,,,59,110
7294,note_on,94,0,7,,,,,,,,,10,,,35,0
7294,note_on,94,0,3,,,,,,,,,0,,,59,0
7294,note_on,94,0,4,,,,,,,,,1,,,59,0
7294,note_on,94,0,2,,,,,,,,,6,,,47,0
7294,note_on,94,0,6,,,,,,,,,3,,,47,0
7294,note_on,94,0,1,,,,,,,,,5,,,59,0
7296,note_on,2,0,4,,,,,,,,,1,,,57,60
7296,note_on,2,0,2,,,,,,,,,6,,,45,110
7296,note_on,2,0,6,,,,,,,,,3,,,45,60
7296,note_on,2,0,1,,,,,,,,,5,,,57,110
7296,note_on,2,0,7,,,,,,,,,10,,,33,60
7296,note_on,2,0,3,,,,,,,,,0,,,57,60
7342,note_on,46,0,4,,,,,,,,,1,,,57,0
7342,note_on,46,0,6,,,,,,,,,3,,,45,0
7342,note_on,46,0,1,,,,,,,,,5,,,57,0
7342,note_on,46,0,2,,,,,,,,,6,,,45,0
7342,note_on,46,0,7,,,,,,,,,10,,,33,0
7342,note_on,46,0,3,,,,,,,,,0,,,57,0
7344,note_on,2,0,3,,,,,,,,,0,,,57,60
7344,note_on,2,0,1,,,,,,,,,5,,,57,110
7344,note_on,2,0,7,,,,,,,,,10,,,33,60
7344,note_on,2,0,6,,,,,,,,,3,,,45,60
7344,note_on,2,0,4,,,,,,,,,1,,,57,60
7344,note_on,2,0,2,,,,,,,,,6,,,45,110
7390,note_on,46,0,1,,,,,,,,,5,,,57,0
7390,note_on,46,0,7,,,,,,,,,10,,,33,0
7390,note_on,46,0,6,,,,,,,,,3,,,45,0
7390,note_on,46,0,2,,,,,,,,,6,,,45,0
7390,note_on,46,0,3,,,,,,,,,0,,,57,0
7390,note_on,46,0,4,,,,,,,,,1,,,57,0
7392,note_on,2,0,1,,,,,,,,,5,,,59,110
7392,note_on,2,0,6,,,,,,,,,3,,,47,60
7392,note_on,2,0,2,,,,,,,,,6,,,47,110
7392,note_on,2,0,3,,,,,,,,,0,,,59,60
7392,note_on,2,0,4,,,,,,,,,1,,,59,60
7392,note_on,2,0,7,,,,,,,,,10,,,35,60
7438,note_on,46,0,3,,,,,,,,,0,,,59,0
7438,note_on,46,0,4,,,,,,,,,1,,,59,0
7438,note_on,46,0,1,,,,,,,,,5,,,59,0
7438,note_on,46,0,6,,,,,,,,,3,,,47,0
7438,note_on,46,0,7,,,,,,,,,10,,,35,0
7438,note_on,46,0,2,,,,,,,,,6,,,47,0
7440,note_on,2,0,1,,,,,,,,,5,,,59,110
7440,note_on,2,0,7,,,,,,,,,10,,,35,60
7440,note_on,2,0,4,,,,,,,,,1,,,59,60
7440,note_on,2,0,2,,,,,,,,,6,,,47,110
7440,note_on,2,0,6,,,,,,,,,3,,,47,60
7440,note_on,2,0,3,,,,,,,,,0,,,59,60
7486,note_on,46,0,1,,,,,,,,,5,,,59,0
7486,note_on,46,0,4,,,,,,,,,1,,,59,0
7486,note_on,46,0,7,,,,,,,,,10,,,35,0
7486,note_on,46,0,2,,,,,,,,,6,,,47,0
7486,note_on,46,0,3,,,,,,,,,0,,,59,0
7486,note_on,46,0,6,,,,,,,,,3,,,47,0
7488,note_on,2,0,2,,,,,,,,,6,,,49,110
7488,note_on,2,0,1,,,,,,,,,5,,,61,110
7488,note_on,2,0,6,,,,,,,,,3,,,49,60
7488,note_on,2,0,7,,,,,,,,,10,,,37,60
7488,note_on,2,0,4,,,,,,,,,1,,,61,60
7488,note_on,2,0,3,,,,,,,,,0,,,61,60
7534,note_on,46,0,6,,,,,,,,,3,,,49,0
7534,note_on,46,0,2,,,,,,,,,6,,,49,0
7534,note_on,46,0,3,,,,,,,,,0,,,61,0
7534,note_on,46,0,4,,,,,,,,,1,,,61,0
7534,note_on,46,0,7,,,,,,,,,10,,,37,0
7534,note_on,46,0,1,,,,,,,,,5,,,61,0
7536,note_on,2,0,7,,,,,,,,,10,,,37,60
7536,note_on,2,0,2,,,,,,,,,6,,,49,110
7536,note_on,2,0,6,,,,,,,,,3,,,49,60
7536,note_on,2,0,4,,,,,,,,,1,,,61,60
7536,note_on,2,0,3,,,,,,,,,0,,,61,60
7536,note_on,2,0,1,,,,,,,,,5,,,61,110
7582,note_on,46,0,6,,,,,,,,,3,,,49,0
7582,note_on,46,0,1,,,,,,,,,5,,,61,0
7582,note_on,46,0,7,,,,,,,,,10,,,37,0
7582,note_on,46,0,2,,,,,,,,,6,,,49,0
7582,note_on,46,0,3,,,,,,,,,0,,,61,0
7582,note_on,46,0,4,,,,,,,,,1,,,61,0
7584,note_on,2,0,3,,,,,,,,,0,,,62,60
7584,note_on,2,0,7,,,,,,,,,10,,,38,60
7584,note_on,2,0,2,,,,,,,,,6,,,50,110
7584,note_on,2,0,6,,,,,,,,,3,,,50,60
7584,note_on,2,0,1,,,,,,,,,5,,,62,110
7584,note_on,2,0,4,,,,,,,,,1,,,62,60
7630,note_on,46,0,2,,,,,,,,,6,,,50,0
7630,note_on,46,0,4,,,,,,,,,1,,,62,0
7630,note_on,46,0,1,,,,,,,,,5,,,62,0
7630,note_on,46,0,7,,,,,,,,,10,,,38,0
7630,note_on,46,0,3,,,,,,,,,0,,,62,0
7630,note_on,46,0,6,,,,,,,,,3,,,50,0
7632,note_on,2,0,2,,,,,,,,,6,,,50,110
7632,note_on,2,0,7,,,,,,,,,10,,,38,60
7632,note_on,2,0,4,,,,,,,,,1,,,62,60
7632,note_on,2,0,6,,,,,,,,,3,,,50,60
7632,note_on,2,0,1,,,,,,,,,5,,,62,110
7632,note_on,2,0,3,,,,,,,,,0,,,62,60
7678,note_on,46,0,7,,,,,,,,,10,,,38,0
7678,note_on,46,0,4,,,,,,,,,1,,,62,0
7678,note_on,46,0,6,,,,,,,,,3,,,50,0
7678,note_on,46,0,1,,,,,,,,,5,,,62,0
7678,note_on,46,0,2,,,,,,,,,6,,,50,0
7678,note_on,46,0,3,,,,,,,,,0,,,62,0
7680,note_on,2,0,2,,,,,,,,,6,,,52,110
7680,note_on,2,0,6,,,,,,,,,3,,,52,60
7680,note_on,2,0,7,,,,,,,,,10,,,40,60
7680,note_on,2,0,4,,,,,,,,,1,,,64,60
7680,note_on,2,0,1,,,,,,,,,5,,,64,110
7680,note_on,2,0,3,,,,,,,,,0,,,64,60
7840,note_on,160,0,2,,,,,,,,,6,,,52,0
7840,note_on,160,0,4,,,,,,,,,1,,,64,0
7840,note_on,160,0,6,,,,,,,,,3,,,52,0
7840,note_on,160,0,7,,,,,,,,,10,,,40,0
7840,note_on,160,0,1,,,,,,,,,5,,,64,0
7840,note_on,160,0,3,,,,,,,,,0,,,64,0
7968,note_on,128,0,3,,,,,,,,,0,,,71,60
7968,note_on,128,0,6,,,,,,,,,3,,,59,60
7968,note_on,128,0,2,,,,,,,,,6,,,59,110
7968,note_on,128,0,1,,,,,,,,,5,,,71,110
7968,note_on,128,0,7,,,,,,,,,10,,,47,60
7968,note_on,128,0,4,,,,,,,,,1,,,71,60
8062,note_on,94,0,3,,,,,,,,,0,,,71,0
8062,note_on,94,0,2,,,,,,,,,6,,,59,0
8062,note_on,94,0,7,,,,,,,,,10,,,47,0
8062,note_on,94,0,4,,,,,,,,,1,,,71,0
8062,note_on,94,0,6,,,,,,,,,3,,,59,0
8062,note_on,94,0,1,,,,,,,,,5,,,71,0
8064,note_on,2,0,4,,,,,,,,,1,,,73,60
8064,note_on,2,0,3,,,,,,,,,0,,,73,60
8064,note_on,2,0,2,,,,,,,,,6,,,61,110
8064,note_on,2,0,7,,,,,,,,,10,,,49,60
8064,note_on,2,0,6,,,,,,,,,3,,,61,60
8064,note_on,2,0,1,,,,,,,,,5,,,73,110
8158,note_on,94,0,4,,,,,,,,,1,,,73,0
8158,note_on,94,0,3,,,,,,,,,0,,,73,0
8158,note_on,94,0,2,,,,,,,,,6,,,61,0
8158,note_on,94,0,1,,,,,,,,,5,,,73,0
8158,note_on,94,0,7,,,,,,,,,10,,,49,0
8158,note_on,94,0,6,,,,,,,,,3,,,61,0
8160,note_on,2,0,1,,,,,,,,,5,,,71,110
8160,note_on,2,0,2,,,,,,,,,6,,,59,110
8160,note_on,2,0,6,,,,,,,,,3,,,59,60
8160,note_on,2,0,7,,,,,,,,,10,,,47,60
8160,note_on,2,0,4,,,,,,,,,1,,,71,60
8160,note_on,2,0,3,,,,,,,,,0,,,71,60
8206,note_on,46,0,6,,,,,,,,,3,,,59,0
8206,note_on,46,0,4,,,,,,,,,1,,,71,0
8206,note_on,46,0,2,,,,,,,,,6,,,59,0
8206,note_on,46,0,1,,,,,,,,,5,,,71,0
8206,note_on,46,0,7,,,,,,,,,10,,,47,0
8206,note_on,46,0,3,,,,,,,,,0,,,71,0
8208,note_on,2,0,4,,,,,,,,,1,,,69,60
8208,note_on,2,0,7,,,,,,,,,10,,,45,60
8208,note_on,2,0,3,,,,,,,,,0,,,69,60
8208,note_on,2,0,1,,,,,,,,,5,,,69,110
8208,note_on,2,0,6,,,,,,,,,3,,,57,60
8208,note_on,2,0,2,,,,,,,,,6,,,57,110
8254,note_on,46,0,3,,,,,,,,,0,,,69,0
8254,note_on,46,0,1,,,,,,,,,5,,,69,0
8254,note_on,46,0,7,,,,,,,,,10,,,45,0
8254,note_on,46,0,2,,,,,,,,,6,,,57,0
8254,note_on,46,0,6,,,,,,,,,3,,,57,0
8254,note_on,46,0,4,,,,,,,,,1,,,69,0
8256,note_on,2,0,6,,,,,,,,,3,,,64,60
8256,note_on,2,0,2,,,,,,,,,6,,,64,110
8256,note_on,2,0,7,,,,,,,,,10,,,52,60
8256,note_on,2,0,1,,,,,,,,,5,,,76,110
8256,note_on,2,0,4,,,,,,,,,1,,,76,60
8256,note_on,2,0,3,,,,,,,,,0,,,76,60
8350,note_on,94,0,3,,,,,,,,,0,,,76,0
8350,note_on,94,0,2,,,,,,,,,6,,,64,0
8350,note_on,94,0,4,,,,,,,,,1,,,76,0
8350,note_on,94,0,6,,,,,,,,,3,,,64,0
8350,note_on,94,0,1,,,,,,,,,5,,,76,0
8350,note_on,94,0,7,,,,,,,,,10,,,52,0
8352,note_on,2,0,2,,,,,,,,,6,,,52,110
8352,note_on,2,0,4,,,,,,,,,1,,,64,60
8352,note_on,2,0,1,,,,,,,,,5,,,64,110
8352,note_on,2,0,7,,,,,,,,,10,,,40,60
8352,note_on,2,0,3,,,,,,,,,0,,,64,60
8352,note_on,2,0,6,,,,,,,,,3,,,52,60
8446,note_on,94,0,3,,,,,,,,,0,,,64,0
8446,note_on,94,0,1,,,,,,,,,5,,,64,0
8446,note_on,94,0,7,,,,,,,,,10,,,40,0
8446,note_on,94,0,2,,,,,,,,,6,,,52,0
8446,note_on,94,0,6,,,,,,,,,3,,,52,0
8446,note_on,94,0,4,,,,,,,,,1,,,64,0
8448,note_on,2,0,7,,,,,,,,,10,,,45,45
8448,note_on,2,0,6,,,,,,,,,3,,,57,45
8448,note_on,2,0,1,,,,,,,,,5,,,69,45
8448,note_on,2,0,2,,,,,,,,,6,,,57,45
8448,note_on,2,0,4,,,,,,,,,1,,,69,45
8448,note_on,2,0,3,,,,,,,,,0,,,69,45
8608,note_on,160,0,3,,,,,,,,,0,,,69,0
8608,note_on,160,0,1,,,,,,,,,5,,,69,0
8608,note_on,160,0,2,,,,,,,,,6,,,57,0
8608,note_on,160,0,6,,,,,,,,,3,,,57,0
8608,note_on,160,0,7,,,,,,,,,10,,,45,0
8608,note_on,160,0,4,,,,,,,,,1,,,69,0
8736,note_on,128,0,7,,,,,,,,,10,,,47,45
8736,note_on,128,0,3,,,,,,,,,0,,,71,45
8736,note_on,128,0,6,,,,,,,,,3,,,59,45
8736,note_on,128,0,4,,,,,,,,,1,,,71,45
8736,note_on,128,0,2,,,,,,,,,6,,,59,45
8736,note_on,128,0,1,,,,,,,,,5,,,71,45
8830,note_on,94,0,1,,,,,,,,,5,,,71,0
8830,note_on,94,0,3,,,,,,,,,0,,,71,0
8830,note_on,94,0,7,,,,,,,,,10,,,47,0
8830,note_on,94,0,2,,,,,,,,,6,,,59,0
8830,note_on,94,0,4,,,,,,,,,1,,,71,0
8830,note_on,94,0,6,,,,,,,,,3,,,59,0
8832,note_on,2,0,4,,,,,,,,,1,,,73,45
8832,note_on,2,0,1,,,,,,,,,5,,,73,45
8832,note_on,2,0,7,,,,,,,,,10,,,49,45
8832,note_on,2,0,6,,,,,,,,,3,,,61,45
8832,note_on,2,0,3,,,,,,,,,0,,,73,45
8832,note_on,2,0,2,,,,,,,,,6,,,61,45
8926,note_on,94,0,3,,,,,,,,,0,,,73,0
8926,note_on,94,0,4,,,,,,,,,1,,,73,0
8926,note_on,94,0,6,,,,,,,,,3,,,61,0
8926,note_on,94,0,7,,,,,,,,,10,,,49,0
8926,note_on,94,0,1,,,,,,,,,5,,,73,0
8926,note_on,94,0,2,,,,,,,,,6,,,61,0
8928,note_on,2,0,6,,,,,,,,,3,,,59,45
8928,note_on,2,0,4,,,,,,,,,1,,,71,45
8928,note_on,2,0,2,,,,,,,,,6,,,59,45
8928,note_on,2,0,3,,,,,,,,,0,,,71,45
8928,note_on,2,0,7,,,,,,,,,10,,,47,45
8928,note_on,2,0,1,,,,,,,,,5,,,71,45
8974,note_on,46,0,6,,,,,,,,,3,,,59,0
8974,note_on,46,0,2,,,,,,,,,6,,,59,0
8974,note_on,46,0,7,,,,,,,,,10,,,47,0
8974,note_on,46,0,1,,,,,,,,,5,,,71,0
8974,note_on,46,0,3,,,,,,,,,0,,,71,0
8974,note_on,46,0,4,,,,,,,,,1,,,71,0
8976,note_on,2,0,1,,,,,,,,,5,,,69,45
8976,note_on,2,0,2,,,,,,,,,6,,,57,45
8976,note_on,2,0,3,,,,,,,,,0,,,69,45
8976,note_on,2,0,6,,,,,,,,,3,,,57,45
8976,note_on,2,0,4,,,,,,,,,1,,,69,45
8976,note_on,2,0,7,,,,,,,,,10,,,45,45
9022,note_on,46,0,1,,,,,,,,,5,,,69,0
9022,note_on,46,0,4,,,,,,,,,1,,,69,0
9022,note_on,46,0,6,,,,,,,,,3,,,57,0
9022,note_on,46,0,2,,,,,,,,,6,,,57,0
9022,note_on,46,0,3,,,,,,,,,0,,,69,0
9022,note_on,46,0,7,,,,,,,,,10,,,45,0
9024,note_on,2,0,6,,,,,,,,,3,,,64,45
9024,note_on,2,0,3,,,,,,,,,0,,,76,45
9024,note_on,2,0,2,,,,,,,,,6,,,64,45
9024,note_on,2,0,7,,,,,,,,,10,,,52,45
9024,note_on,2,0,1,,,,,,,,,5,,,76,45
9024,note_on,2,0,4,,,,,,,,,1,,,76,45
9118,note_on,94,0,7,,,,,,,,,10,,,52,0
9118,note_on,94,0,6,,,,,,,,,3,,,64,0
9118,note_on,94,0,2,,,,,,,,,6,,,64,0
9118,note_on,94,0,3,,,,,,,,,0,,,76,0
9118,note_on,94,0,4,,,,,,,,,1,,,76,0
9118,note_on,94,0,1,,,,,,,,,5,,,76,0
9120,note_on,0,0,1,,,,,,,,,5,,,80,108
9120,note_on,0,0,1,,,,,,,,,5,,,76,108
9120,note_on,2,0,1,,,,,,,,,5,,,68,108
9120,note_on,2,0,6,,,,,,,,,3,,,52,60
9120,note_on,0,0,1,,,,,,,,,5,,,71,108
9120,note_on,2,0,3,,,,,,,,,0,,,64,45
9120,note_on,2,0,7,,,,,,,,,10,,,40,60
9120,note_on,2,0,4,,,,,,,,,1,,,64,45
9120,note_on,2,0,2,,,,,,,,,6,,,52,108
9214,note_on,94,0,2,,,,,,,,,6,,,52,0
9214,note_on,94,0,6,,,,,,,,,3,,,52,0
9214,note_on,0,0,1,,,,,,,,,5,,,80,0
9214,note_on,0,0,1,,,,,,,,,5,,,76,0
9214,note_on,94,0,1,,,,,,,,,5,,,68,0
9214,note_on,94,0,4,,,,,,,,,1,,,64,0
9214,note_on,0,0,1,,,,,,,,,5,,,71,0
9214,note_on,94,0,7,,,,,,,,,10,,,40,0
9214,note_on,94,0,3,,,,,,,,,0,,,64,0
9216,note_on,0,0,1,,,,,,,,,5,,,76,108
9216,note_on,0,0,1,,,,,,,,,5,,,81,108
9216,control_change,2,0,2,,,,,,,,,6,7,127,,
9216,note_on,0,0,2,,,,,,,,,6,,,61,108
9216,note_on,2,0,6,,,,,,,,,3,,,57,60
9216,set_tempo,8448,1,0,,,,,,530973,,,,,,,
9216,control_change,2,0,1,,,,,,,,,5,7,127,,
9262,note_on,46,0,2,,,,,,,,,6,,,61,0
9262,note_on,46,0,1,,,,,,,,,5,,,76,0
9262,note_on,0,0,1,,,,,,,,,5,,,81,0
9264,note_on,2,0,1,,,,,,,,,5,,,78,108
9264,note_on,2,0,2,,,,,,,,,6,,,62,108
9310,note_on,46,0,2,,,,,,,,,6,,,62,0
9310,note_on,46,0,1,,,,,,,,,5,,,78,0
9312,note_on,2,0,1,,,,,,,,,5,,,76,108
9312,note_on,2,0,2,,,,,,,,,6,,,61,108
9358,note_on,46,0,2,,,,,,,,,6,,,61,0
9358,note_on,46,0,1,,,,,,,,,5,,,76,0
9360,note_on,2,0,2,,,,,,,,,6,,,62,108
9360,note_on,2,0,1,,,,,,,,,5,,,78,108
9376,note_on,160,0,6,,,,,,,,,3,,,57,0
9406,note_on,46,0,1,,,,,,,,,5,,,78,0
9406,note_on,46,0,2,,,,,,,,,6,,,62,0
9408,note_on,2,0,2,,,,,,,,,6,,,61,108
9408,note_on,2,0,1,,,,,,,,,5,,,76,108
9454,note_on,46,0,2,,,,,,,,,6,,,61,0
9454,note_on,46,0,1,,,,,,,,,5,,,76,0
9456,note_on,2,0,2,,,,,,,,,6,,,62,108
9456,note_on,2,0,1,,,,,,,,,5,,,78,108
9502,note_on,46,0,1,,,,,,,,,5,,,78,0
9502,note_on,46,0,2,,,,,,,,,6,,,62,0
9504,note_on,2,0,1,,,,,,,,,5,,,76,108
9504,note_on,2,0,2,,,,,,,,,6,,,61,108
9550,note_on,46,0,1,,,,,,,,,5,,,76,0
9550,note_on,46,0,2,,,,,,,,,6,,,61,0
9552,note_on,2,0,1,,,,,,,,,5,,,78,108
9552,note_on,2,0,2,,,,,,,,,6,,,62,108
9598,note_on,46,0,2,,,,,,,,,6,,,62,0
9598,note_on,46,0,1,,,,,,,,,5,,,78,0
9600,note_on,2,0,2,,,,,,,,,6,,,61,108
9600,note_on,2,0,1,,,,,,,,,5,,,76,108
9646,note_on,46,0,1,,,,,,,,,5,,,76,0
9646,note_on,46,0,2,,,,,,,,,6,,,61,0
9648,note_on,2,0,1,,,,,,,,,5,,,81,108
9648,note_on,2,0,2,,,,,,,,,6,,,64,108
9694,note_on,46,0,1,,,,,,,,,5,,,81,0
9694,note_on,46,0,2,,,,,,,,,6,,,64,0
9696,note_on,2,0,2,,,,,,,,,6,,,61,108
9696,note_on,2,0,1,,,,,,,,,5,,,76,108
9742,note_on,46,0,2,,,,,,,,,6,,,61,0
9742,note_on,46,0,1,,,,,,,,,5,,,76,0
9744,note_on,2,0,1,,,,,,,,,5,,,73,108
9744,note_on,2,0,2,,,,,,,,,6,,,57,108
9790,note_on,46,0,2,,,,,,,,,6,,,57,0
9790,note_on,46,0,1,,,,,,,,,5,,,73,0
9792,note_on,2,0,1,,,,,,,,,5,,,76,108
9792,note_on,2,0,2,,,,,,,,,6,,,61,108
9838,note_on,46,0,2,,,,,,,,,6,,,61,0
9838,note_on,46,0,1,,,,,,,,,5,,,76,0
9840,note_on,2,0,2,,,,,,,,,6,,,64,108
9840,note_on,2,0,1,,,,,,,,,5,,,81,108
9886,note_on,46,0,1,,,,,,,,,5,,,81,0
9886,note_on,46,0,2,,,,,,,,,6,,,64,0
9888,note_on,2,0,2,,,,,,,,,6,,,61,108
9888,note_on,2,0,1,,,,,,,,,5,,,76,108
9934,note_on,46,0,1,,,,,,,,,5,,,76,0
9934,note_on,46,0,2,,,,,,,,,6,,,61,0
9936,note_on,2,0,1,,,,,,,,,5,,,73,108
9936,note_on,2,0,2,,,,,,,,,6,,,57,108
9982,note_on,46,0,2,,,,,,,,,6,,,57,0
9982,note_on,46,0,1,,,,,,,,,5,,,73,0
9984,note_on,2,0,1,,,,,,,,,5,,,76,108
9984,note_on,2,0,2,,,,,,,,,6,,,61,108
9984,note_on,608,0,6,,,,,,,,,3,,,45,60
10030,note_on,46,0,2,,,,,,,,,6,,,61,0
10030,note_on,46,0,1,,,,,,,,,5,,,76,0
10032,note_on,2,0,2,,,,,,,,,6,,,62,108
10032,note_on,2,0,1,,,,,,,,,5,,,78,108
10078,note_on,46,0,2,,,,,,,,,6,,,62,0
10078,note_on,46,0,1,,,,,,,,,5,,,78,0
10080,note_on,2,0,2,,,,,,,,,6,,,61,108
10080,note_on,2,0,1,,,,,,,,,5,,,76,108
10126,note_on,46,0,2,,,,,,,,,6,,,61,0
10126,note_on,46,0,1,,,,,,,,,5,,,76,0
10128,note_on,2,0,2,,,,,,,,,6,,,62,108
10128,note_on,2,0,1,,,,,,,,,5,,,78,108
10144,note_on,160,0,6,,,,,,,,,3,,,45,0
10174,note_on,46,0,1,,,,,,,,,5,,,78,0
10174,note_on,46,0,2,,,,,,,,,6,,,62,0
10176,note_on,2,0,1,,,,,,,,,5,,,76,108
10176,note_on,2,0,2,,,,,,,,,6,,,61,108
10222,note_on,46,0,2,,,,,,,,,6,,,61,0
10222,note_on,46,0,1,,,,,,,,,5,,,76,0
10224,note_on,2,0,1,,,,,,,,,5,,,78,108
10224,note_on,2,0,2,,,,,,,,,6,,,62,108
10270,note_on,46,0,1,,,,,,,,,5,,,78,0
10270,note_on,46,0,2,,,,,,,,,6,,,62,0
10272,note_on,2,0,1,,,,,,,,,5,,,76,108
10272,note_on,2,0,2,,,,,,,,,6,,,61,108
10318,note_on,46,0,1,,,,,,,,,5,,,76,0
10318,note_on,46,0,2,,,,,,,,,6,,,61,0
10320,note_on,2,0,2,,,,,,,,,6,,,62,108
10320,note_on,2,0,1,,,,,,,,,5,,,78,108
10366,note_on,46,0,2,,,,,,,,,6,,,62,0
10366,note_on,46,0,1,,,,,,,,,5,,,78,0
10368,note_on,2,0,1,,,,,,,,,5,,,76,108
10368,note_on,2,0,2,,,,,,,,,6,,,61,108
10414,note_on,46,0,2,,,,,,,,,6,,,61,0
10414,note_on,46,0,1,,,,,,,,,5,,,76,0
10416,note_on,2,0,1,,,,,,,,,5,,,81,108
10416,note_on,2,0,2,,,,,,,,,6,,,64,108
10462,note_on,46,0,2,,,,,,,,,6,,,64,0
10462,note_on,46,0,1,,,,,,,,,5,,,81,0
10464,note_on,2,0,1,,,,,,,,,5,,,76,108
10464,note_on,2,0,2,,,,,,,,,6,,,61,108
10510,note_on,46,0,1,,,,,,,,,5,,,76,0
10510,note_on,46,0,2,,,,,,,,,6,,,61,0
10512,note_on,2,0,1,,,,,,,,,5,,,73,108
10512,note_on,2,0,2,,,,,,,,,6,,,57,108
10558,note_on,46,0,1,,,,,,,,,5,,,73,0
10558,note_on,46,0,2,,,,,,,,,6,,,57,0
10560,note_on,2,0,1,,,,,,,,,5,,,76,108
10560,note_on,2,0,2,,,,,,,,,6,,,61,108
10606,note_on,46,0,1,,,,,,,,,5,,,76,0
10606,note_on,46,0,2,,,,,,,,,6,,,61,0
10608,note_on,2,0,2,,,,,,,,,6,,,64,108
10608,note_on,2,0,1,,,,,,,,,5,,,81,108
10654,note_on,46,0,1,,,,,,,,,5,,,81,0
10654,note_on,46,0,2,,,,,,,,,6,,,64,0
10656,note_on,2,0,1,,,,,,,,,5,,,76,108
10656,note_on,2,0,2,,,,,,,,,6,,,61,108
10702,note_on,46,0,2,,,,,,,,,6,,,61,0
10702,note_on,46,0,1,,,,,,,,,5,,,76,0
10704,note_on,2,0,2,,,,,,,,,6,,,57,108
10704,note_on,2,0,1,,,,,,,,,5,,,73,108
10750,note_on,46,0,1,,,,,,,,,5,,,73,0
10750,note_on,46,0,2,,,,,,,,,6,,,57,0
10752,set_tempo,1536,1,0,,,,,,526315,,,,,,,
10752,note_on,2,0,1,,,,,,,,,5,,,81,108
10752,note_on,608,0,6,,,,,,,,,3,,,45,60
10752,note_on,2,0,2,,,,,,,,,6,,,61,108
10798,note_on,46,0,2,,,,,,,,,6,,,61,0
10798,note_on,46,0,1,,,,,,,,,5,,,81,0
10800,note_on,2,0,2,,,,,,,,,6,,,62,108
10800,note_on,2,0,1,,,,,,,,,5,,,83,108
10846,note_on,46,0,1,,,,,,,,,5,,,83,0
10846,note_on,46,0,2,,,,,,,,,6,,,62,0
10848,note_on,2,0,1,,,,,,,,,5,,,81,108
10848,note_on,2,0,2,,,,,,,,,6,,,61,108
10894,note_on,46,0,1,,,,,,,,,5,,,81,0
10894,note_on,46,0,2,,,,,,,,,6,,,61,0
10896,note_on,2,0,2,,,,,,,,,6,,,62,108
10896,note_on,2,0,1,,,,,,,,,5,,,83,108
10912,note_on,160,0,6,,,,,,,,,3,,,45,0
10942,note_on,46,0,2,,,,,,,,,6,,,62,0
10942,note_on,46,0,1,,,,,,,,,5,,,83,0
10944,note_on,2,0,2,,,,,,,,,6,,,61,108
10944,note_on,2,0,1,,,,,,,,,5,,,81,108
10990,note_on,46,0,1,,,,,,,,,5,,,81,0
10990,note_on,46,0,2,,,,,,,,,6,,,61,0
10992,note_on,2,0,1,,,,,,,,,5,,,83,108
10992,note_on,2,0,2,,,,,,,,,6,,,62,108
11038,note_on,46,0,2,,,,,,,,,6,,,62,0
11038,note_on,46,0,1,,,,,,,,,5,,,83,0
11040,note_on,2,0,1,,,,,,,,,5,,,81,108
11040,note_on,2,0,2,,,,,,,,,6,,,61,108
11086,note_on,46,0,2,,,,,,,,,6,,,61,0
11086,note_on,46,0,1,,,,,,,,,5,,,81,0
11088,note_on,2,0,1,,,,,,,,,5,,,83,108
11088,note_on,2,0,2,,,,,,,,,6,,,62,108
11134,note_on,46,0,2,,,,,,,,,6,,,62,0
11134,note_on,46,0,1,,,,,,,,,5,,,83,0
11136,note_on,2,0,2,,,,,,,,,6,,,61,108
11136,note_on,2,0,1,,,,,,,,,5,,,81,108
11182,note_on,46,0,1,,,,,,,,,5,,,81,0
11182,note_on,46,0,2,,,,,,,,,6,,,61,0
11184,note_on,2,0,2,,,,,,,,,6,,,64,108
11184,note_on,2,0,1,,,,,,,,,5,,,85,108
11230,note_on,46,0,1,,,,,,,,,5,,,85,0
11230,note_on,46,0,2,,,,,,,,,6,,,64,0
11232,note_on,2,0,2,,,,,,,,,6,,,61,108
11232,note_on,2,0,1,,,,,,,,,5,,,81,108
11278,note_on,46,0,2,,,,,,,,,6,,,61,0
11278,note_on,46,0,1,,,,,,,,,5,,,81,0
11280,note_on,2,0,2,,,,,,,,,6,,,57,108
11280,note_on,2,0,1,,,,,,,,,5,,,76,108
11326,note_on,46,0,2,,,,,,,,,6,,,57,0
11326,note_on,46,0,1,,,,,,,,,5,,,76,0
11328,note_on,2,0,2,,,,,,,,,6,,,61,108
11328,note_on,2,0,1,,,,,,,,,5,,,81,108
11374,note_on,46,0,2,,,,,,,,,6,,,61,0
11374,note_on,46,0,1,,,,,,,,,5,,,81,0
11376,note_on,2,0,1,,,,,,,,,5,,,85,108
11376,note_on,2,0,2,,,,,,,,,6,,,64,108
11422,note_on,46,0,1,,,,,,,,,5,,,85,0
11422,note_on,46,0,2,,,,,,,,,6,,,64,0
11424,note_on,2,0,1,,,,,,,,,5,,,81,108
11424,note_on,2,0,2,,,,,,,,,6,,,61,108
11470,note_on,46,0,2,,,,,,,,,6,,,61,0
11470,note_on,46,0,1,,,,,,,,,5,,,81,0
11472,note_on,2,0,2,,,,,,,,,6,,,57,108
11472,note_on,2,0,1,,,,,,,,,5,,,76,108
11518,note_on,46,0,2,,,,,,,,,6,,,57,0
11518,note_on,46,0,1,,,,,,,,,5,,,76,0
11520,note_on,2,0,2,,,,,,,,,6,,,61,108
11520,note_on,608,0,6,,,,,,,,,3,,,45,60
11520,note_on,2,0,1,,,,,,,,,5,,,81,108
11566,note_on,46,0,2,,,,,,,,,6,,,61,0
11566,note_on,46,0,1,,,,,,,,,5,,,81,0
11568,note_on,2,0,2,,,,,,,,,6,,,62,108
11568,note_on,2,0,1,,,,,,,,,5,,,83,108
11614,note_on,46,0,2,,,,,,,,,6,,,62,0
11614,note_on,46,0,1,,,,,,,,,5,,,83,0
11616,note_on,2,0,1,,,,,,,,,5,,,81,108
11616,note_on,2,0,2,,,,,,,,,6,,,61,108
11662,note_on,46,0,1,,,,,,,,,5,,,81,0
11662,note_on,46,0,2,,,,,,,,,6,,,61,0
11664,note_on,2,0,2,,,,,,,,,6,,,62,108
11664,note_on,2,0,1,,,,,,,,,5,,,83,108
11680,note_on,160,0,6,,,,,,,,,3,,,45,0
11710,note_on,46,0,1,,,,,,,,,5,,,83,0
11710,note_on,46,0,2,,,,,,,,,6,,,62,0
11712,note_on,2,0,2,,,,,,,,,6,,,61,108
11712,note_on,2,0,1,,,,,,,,,5,,,81,108
11758,note_on,46,0,2,,,,,,,,,6,,,61,0
11758,note_on,46,0,1,,,,,,,,,5,,,81,0
11760,note_on,2,0,2,,,,,,,,,6,,,62,108
11760,note_on,2,0,1,,,,,,,,,5,,,83,108
11806,note_on,46,0,2,,,,,,,,,6,,,62,0
11806,note_on,46,0,1,,,,,,,,,5,,,83,0
11808,note_on,2,0,1,,,,,,,,,5,,,81,108
11808,note_on,2,0,2,,,,,,,,,6,,,61,108
11854,note_on,46,0,2,,,,,,,,,6,,,61,0
11854,note_on,46,0,1,,,,,,,,,5,,,81,0
11856,note_on,2,0,1,,,,,,,,,5,,,83,108
11856,note_on,2,0,2,,,,,,,,,6,,,62,108
11902,note_on,46,0,1,,,,,,,,,5,,,83,0
11902,note_on,46,0,2,,,,,,,,,6,,,62,0
11904,note_on,2,0,1,,,,,,,,,5,,,81,108
11904,note_on,2,0,2,,,,,,,,,6,,,61,108
11950,note_on,46,0,2,,,,,,,,,6,,,61,0
11950,note_on,46,0,1,,,,,,,,,5,,,81,0
11952,note_on,2,0,2,,,,,,,,,6,,,64,108
11952,note_on,2,0,1,,,,,,,,,5,,,85,108
11998,note_on,46,0,1,,,,,,,,,5,,,85,0
11998,note_on,46,0,2,,,,,,,,,6,,,64,0
12000,note_on,2,0,2,,,,,,,,,6,,,61,108
12000,note_on,2,0,1,,,,,,,,,5,,,81,108
12046,note_on,46,0,2,,,,,,,,,6,,,61,0
12046,note_on,46,0,1,,,,,,,,,5,,,81,0
12048,note_on,2,0,2,,,,,,,,,6,,,57,108
12048,note_on,2,0,1,,,,,,,,,5,,,76,108
12094,note_on,46,0,2,,,,,,,,,6,,,57,0
12094,note_on,46,0,1,,,,,,,,,5,,,76,0
12096,note_on,2,0,2,,,,,,,,,6,,,61,108
12096,note_on,2,0,1,,,,,,,,,5,,,81,108
12142,note_on,46,0,1,,,,,,,,,5,,,81,0
12142,note_on,46,0,2,,,,,,,,,6,,,61,0
12144,note_on,2,0,2,,,,,,,,,6,,,64,108
12144,note_on,2,0,1,,,,,,,,,5,,,85,108
12190,note_on,46,0,1,,,,,,,,,5,,,85,0
12190,note_on,46,0,2,,,,,,,,,6,,,64,0
12192,note_on,2,0,2,,,,,,,,,6,,,61,108
12192,note_on,2,0,1,,,,,,,,,5,,,81,108
12238,note_on,46,0,2,,,,,,,,,6,,,61,0
12238,note_on,46,0,1,,,,,,,,,5,,,81,0
12240,note_on,2,0,2,,,,,,,,,6,,,57,108
12240,note_on,2,0,1,,,,,,,,,5,,,76,108
12286,note_on,46,0,2,,,,,,,,,6,,,57,0
12286,note_on,46,0,1,,,,,,,,,5,,,76,0
12288,set_tempo,1536,1,0,,,,,,521739,,,,,,,
12288,note_on,2,0,2,,,,,,,,,6,,,64,108
12288,note_on,2,0,1,,,,,,,,,5,,,76,108
12288,note_on,608,0,6,,,,,,,,,3,,,45,60
12334,note_on,46,0,2,,,,,,,,,6,,,64,0
12334,note_on,46,0,1,,,,,,,,,5,,,76,0
12336,note_on,2,0,2,,,,,,,,,6,,,61,108
12336,note_on,2,0,1,,,,,,,,,5,,,78,108
12382,note_on,46,0,1,,,,,,,,,5,,,78,0
12382,note_on,46,0,2,,,,,,,,,6,,,61,0
12384,note_on,2,0,1,,,,,,,,,5,,,76,108
12384,note_on,2,0,2,,,,,,,,,6,,,52,108
12430,note_on,46,0,1,,,,,,,,,5,,,76,0
12430,note_on,46,0,2,,,,,,,,,6,,,52,0
12432,note_on,2,0,1,,,,,,,,,5,,,78,108
12432,note_on,2,0,2,,,,,,,,,6,,,61,108
12448,note_on,160,0,6,,,,,,,,,3,,,45,0
12478,note_on,46,0,2,,,,,,,,,6,,,61,0
12478,note_on,46,0,1,,,,,,,,,5,,,78,0
12480,note_on,2,0,1,,,,,,,,,5,,,76,108
12480,note_on,2,0,2,,,,,,,,,6,,,64,108
12526,note_on,46,0,1,,,,,,,,,5,,,76,0
12526,note_on,46,0,2,,,,,,,,,6,,,64,0
12528,note_on,2,0,1,,,,,,,,,5,,,78,108
12528,note_on,2,0,2,,,,,,,,,6,,,61,108
12574,note_on,46,0,2,,,,,,,,,6,,,61,0
12574,note_on,46,0,1,,,,,,,,,5,,,78,0
12576,note_on,2,0,1,,,,,,,,,5,,,76,108
12576,note_on,2,0,2,,,,,,,,,6,,,52,108
12622,note_on,46,0,1,,,,,,,,,5,,,76,0
12622,note_on,46,0,2,,,,,,,,,6,,,52,0
12624,note_on,2,0,1,,,,,,,,,5,,,78,108
12624,note_on,2,0,2,,,,,,,,,6,,,61,108
12670,note_on,46,0,2,,,,,,,,,6,,,61,0
12670,note_on,46,0,1,,,,,,,,,5,,,78,0
12672,note_on,2,0,2,,,,,,,,,6,,,64,108
12672,note_on,2,0,1,,,,,,,,,5,,,74,108
12718,note_on,46,0,2,,,,,,,,,6,,,64,0
12718,note_on,46,0,1,,,,,,,,,5,,,74,0
12720,note_on,2,0,2,,,,,,,,,6,,,59,108
12720,note_on,2,0,1,,,,,,,,,5,,,76,108
12766,note_on,46,0,1,,,,,,,,,5,,,76,0
12766,note_on,46,0,2,,,,,,,,,6,,,59,0
12768,note_on,2,0,1,,,,,,,,,5,,,74,108
12768,note_on,2,0,2,,,,,,,,,6,,,52,108
12814,note_on,46,0,2,,,,,,,,,6,,,52,0
12814,note_on,46,0,1,,,,,,,,,5,,,74,0
12816,note_on,2,0,2,,,,,,,,,6,,,59,108
12816,note_on,2,0,1,,,,,,,,,5,,,76,108
12862,note_on,46,0,1,,,,,,,,,5,,,76,0
12862,note_on,46,0,2,,,,,,,,,6,,,59,0
12864,note_on,2,0,2,,,,,,,,,6,,,64,108
12864,note_on,2,0,1,,,,,,,,,5,,,74,108
12910,note_on,46,0,2,,,,,,,,,6,,,64,0
12910,note_on,46,0,1,,,,,,,,,5,,,74,0
12912,note_on,2,0,1,,,,,,,,,5,,,76,108
12912,note_on,2,0,2,,,,,,,,,6,,,59,108
12958,note_on,46,0,1,,,,,,,,,5,,,76,0
12958,note_on,46,0,2,,,,,,,,,6,,,59,0
12960,note_on,2,0,2,,,,,,,,,6,,,52,108
12960,note_on,2,0,1,,,,,,,,,5,,,74,108
13006,note_on,46,0,2,,,,,,,,,6,,,52,0
13006,note_on,46,0,1,,,,,,,,,5,,,74,0
13008,note_on,2,0,2,,,,,,,,,6,,,59,108
13008,note_on,2,0,1,,,,,,,,,5,,,76,108
13054,note_on,46,0,2,,,,,,,,,6,,,59,0
13054,note_on,46,0,1,,,,,,,,,5,,,76,0
13056,note_on,2,0,1,,,,,,,,,5,,,73,108
13056,note_on,2,0,2,,,,,,,,,6,,,64,108
13102,note_on,46,0,1,,,,,,,,,5,,,73,0
13102,note_on,46,0,2,,,,,,,,,6,,,64,0
13104,note_on,2,0,1,,,,,,,,,5,,,76,108
13104,note_on,2,0,2,,,,,,,,,6,,,57,108
13150,note_on,46,0,1,,,,,,,,,5,,,76,0
13150,note_on,46,0,2,,,,,,,,,6,,,57,0
13152,note_on,2,0,1,,,,,,,,,5,,,73,108
13152,note_on,2,0,2,,,,,,,,,6,,,52,108
13198,note_on,46,0,1,,,,,,,,,5,,,73,0
13198,note_on,46,0,2,,,,,,,,,6,,,52,0
13200,note_on,2,0,1,,,,,,,,,5,,,76,108
13200,note_on,2,0,2,,,,,,,,,6,,,57,108
13246,note_on,46,0,1,,,,,,,,,5,,,76,0
13246,note_on,46,0,2,,,,,,,,,6,,,57,0
13248,note_on,2,0,1,,,,,,,,,5,,,73,108
13248,note_on,2,0,2,,,,,,,,,6,,,64,108
13294,note_on,46,0,2,,,,,,,,,6,,,64,0
13294,note_on,46,0,1,,,,,,,,,5,,,73,0
13296,note_on,2,0,2,,,,,,,,,6,,,57,108
13296,note_on,2,0,1,,,,,,,,,5,,,76,108
13342,note_on,46,0,2,,,,,,,,,6,,,57,0
13342,note_on,46,0,1,,,,,,,,,5,,,76,0
13344,note_on,2,0,1,,,,,,,,,5,,,73,108
13344,note_on,2,0,2,,,,,,,,,6,,,52,108
13390,note_on,46,0,2,,,,,,,,,6,,,52,0
13390,note_on,46,0,1,,,,,,,,,5,,,73,0
13392,note_on,2,0,1,,,,,,,,,5,,,76,108
13392,note_on,2,0,2,,,,,,,,,6,,,57,108
13438,note_on,46,0,1,,,,,,,,,5,,,76,0
13438,note_on,46,0,2,,,,,,,,,6,,,57,0
13440,note_on,2,0,2,,,,,,,,,6,,,56,108
13440,note_on,992,0,6,,,,,,,,,3,,,52,60
13440,note_on,2,0,1,,,,,,,,,5,,,71,108
13486,note_on,46,0,2,,,,,,,,,6,,,56,0
13486,note_on,46,0,1,,,,,,,,,5,,,71,0
13488,note_on,2,0,2,,,,,,,,,6,,,54,108
13488,note_on,2,0,1,,,,,,,,,5,,,69,108
13534,note_on,46,0,2,,,,,,,,,6,,,54,0
13534,note_on,46,0,1,,,,,,,,,5,,,69,0
13536,note_on,2,0,2,,,,,,,,,6,,,56,108
13536,note_on,2,0,1,,,,,,,,,5,,,71,108
13582,note_on,46,0,2,,,,,,,,,6,,,56,0
13582,note_on,46,0,1,,,,,,,,,5,,,71,0
13584,note_on,2,0,2,,,,,,,,,6,,,57,108
13584,note_on,2,0,1,,,,,,,,,5,,,73,108
13600,note_on,160,0,6,,,,,,,,,3,,,52,0
13630,note_on,46,0,1,,,,,,,,,5,,,73,0
13630,note_on,46,0,2,,,,,,,,,6,,,57,0
13632,note_on,2,0,2,,,,,,,,,6,,,56,108
13632,note_on,2,0,1,,,,,,,,,5,,,71,108
13678,note_on,46,0,2,,,,,,,,,6,,,56,0
13678,note_on,46,0,1,,,,,,,,,5,,,71,0
13680,note_on,2,0,1,,,,,,,,,5,,,73,108
13680,note_on,2,0,2,,,,,,,,,6,,,57,108
13726,note_on,46,0,2,,,,,,,,,6,,,57,0
13726,note_on,46,0,1,,,,,,,,,5,,,73,0
13728,note_on,2,0,1,,,,,,,,,5,,,74,108
13728,note_on,2,0,2,,,,,,,,,6,,,59,108
13774,note_on,46,0,2,,,,,,,,,6,,,59,0
13774,note_on,46,0,1,,,,,,,,,5,,,74,0
13776,note_on,2,0,2,,,,,,,,,6,,,56,108
13776,note_on,2,0,1,,,,,,,,,5,,,71,108
13822,note_on,46,0,2,,,,,,,,,6,,,56,0
13822,note_on,46,0,1,,,,,,,,,5,,,71,0
13824,note_on,2,0,2,,,,,,,,,6,,,64,108
13824,note_on,2,0,1,,,,,,,,,5,,,76,108
13870,note_on,46,0,1,,,,,,,,,5,,,76,0
13870,note_on,46,0,2,,,,,,,,,6,,,64,0
13872,note_on,2,0,1,,,,,,,,,5,,,78,108
13872,note_on,2,0,2,,,,,,,,,6,,,61,108
13918,note_on,46,0,2,,,,,,,,,6,,,61,0
13918,note_on,46,0,1,,,,,,,,,5,,,78,0
13920,note_on,2,0,1,,,,,,,,,5,,,76,108
13920,note_on,2,0,2,,,,,,,,,6,,,52,108
13966,note_on,46,0,2,,,,,,,,,6,,,52,0
13966,note_on,46,0,1,,,,,,,,,5,,,76,0
13968,note_on,2,0,1,,,,,,,,,5,,,78,108
13968,note_on,2,0,2,,,,,,,,,6,,,61,108
14014,note_on,46,0,2,,,,,,,,,6,,,61,0
14014,note_on,46,0,1,,,,,,,,,5,,,78,0
14016,note_on,2,0,2,,,,,,,,,6,,,64,108
14016,note_on,2,0,1,,,,,,,,,5,,,76,108
14062,note_on,46,0,2,,,,,,,,,6,,,64,0
14062,note_on,46,0,1,,,,,,,,,5,,,76,0
14064,note_on,2,0,2,,,,,,,,,6,,,61,108
14064,note_on,2,0,1,,,,,,,,,5,,,78,108
14110,note_on,46,0,1,,,,,,,,,5,,,78,0
14110,note_on,46,0,2,,,,,,,,,6,,,61,0
14112,note_on,2,0,1,,,,,,,,,5,,,76,108
14112,note_on,2,0,2,,,,,,,,,6,,,52,108
14158,note_on,46,0,1,,,,,,,,,5,,,76,0
14158,note_on,46,0,2,,,,,,,,,6,,,52,0
14160,note_on,2,0,2,,,,,,,,,6,,,61,108
14160,note_on,2,0,1,,,,,,,,,5,,,78,108
14206,note_on,46,0,2,,,,,,,,,6,,,61,0
14206,note_on,46,0,1,,,,,,,,,5,,,78,0
14208,note_on,2,0,2,,,,,,,,,6,,,64,108
14208,note_on,2,0,1,,,,,,,,,5,,,74,108
14254,note_on,46,0,2,,,,,,,,,6,,,64,0
14254,note_on,46,0,1,,,,,,,,,5,,,74,0
14256,note_on,2,0,2,,,,,,,,,6,,,59,108
14256,note_on,2,0,1,,,,,,,,,5,,,76,108
14302,note_on,46,0,2,,,,,,,,,6,,,59,0
14302,note_on,46,0,1,,,,,,,,,5,,,76,0
14304,note_on,2,0,2,,,,,,,,,6,,,52,108
14304,note_on,2,0,1,,,,,,,,,5,,,74,108
14350,note_on,46,0,1,,,,,,,,,5,,,74,0
14350,note_on,46,0,2,,,,,,,,,6,,,52,0
14352,note_on,2,0,1,,,,,,,,,5,,,76,108
14352,note_on,2,0,2,,,,,,,,,6,,,59,108
14398,note_on,46,0,1,,,,,,,,,5,,,76,0
14398,note_on,46,0,2,,,,,,,,,6,,,59,0
14400,note_on,2,0,1,,,,,,,,,5,,,74,108
14400,note_on,2,0,2,,,,,,,,,6,,,64,108
14446,note_on,46,0,1,,,,,,,,,5,,,74,0
14446,note_on,46,0,2,,,,,,,,,6,,,64,0
14448,note_on,2,0,1,,,,,,,,,5,,,76,108
14448,note_on,2,0,2,,,,,,,,,6,,,59,108
14494,note_on,46,0,1,,,,,,,,,5,,,76,0
14494,note_on,46,0,2,,,,,,,,,6,,,59,0
14496,note_on,2,0,2,,,,,,,,,6,,,52,108
14496,note_on,2,0,1,,,,,,,,,5,,,74,108
14542,note_on,46,0,2,,,,,,,,,6,,,52,0
14542,note_on,46,0,1,,,,,,,,,5,,,74,0
14544,note_on,2,0,2,,,,,,,,,6,,,59,108
14544,note_on,2,0,1,,,,,,,,,5,,,76,108
14590,note_on,46,0,2,,,,,,,,,6,,,59,0
14590,note_on,46,0,1,,,,,,,,,5,,,76,0
14592,note_on,2,0,2,,,,,,,,,6,,,64,108
14592,note_on,2,0,1,,,,,,,,,5,,,73,108
14638,note_on,46,0,2,,,,,,,,,6,,,64,0
14638,note_on,46,0,1,,,,,,,,,5,,,73,0
14640,note_on,2,0,2,,,,,,,,,6,,,57,108
14640,note_on,2,0,1,,,,,,,,,5,,,76,108
14686,note_on,46,0,1,,,,,,,,,5,,,76,0
14686,note_on,46,0,2,,,,,,,,,6,,,57,0
14688,note_on,2,0,1,,,,,,,,,5,,,73,108
14688,note_on,2,0,2,,,,,,,,,6,,,52,108
14734,note_on,46,0,1,,,,,,,,,5,,,73,0
14734,note_on,46,0,2,,,,,,,,,6,,,52,0
14736,note_on,2,0,1,,,,,,,,,5,,,76,108
14736,note_on,2,0,2,,,,,,,,,6,,,57,108
14782,note_on,46,0,1,,,,,,,,,5,,,76,0
14782,note_on,46,0,2,,,,,,,,,6,,,57,0
14784,note_on,2,0,1,,,,,,,,,5,,,73,108
14784,note_on,2,0,2,,,,,,,,,6,,,64,108
14830,note_on,46,0,1,,,,,,,,,5,,,73,0
14830,note_on,46,0,2,,,,,,,,,6,,,64,0
14832,note_on,2,0,1,,,,,,,,,5,,,76,108
14832,note_on,2,0,2,,,,,,,,,6,,,57,108
14878,note_on,46,0,1,,,,,,,,,5,,,76,0
14878,note_on,46,0,2,,,,,,,,,6,,,57,0
14880,note_on,2,0,1,,,,,,,,,5,,,73,108
14880,note_on,2,0,2,,,,,,,,,6,,,52,108
14926,note_on,46,0,2,,,,,,,,,6,,,52,0
14926,note_on,46,0,1,,,,,,,,,5,,,73,0
14928,note_on,2,0,1,,,,,,,,,5,,,76,108
14928,note_on,2,0,2,,,,,,,,,6,,,57,108
14974,note_on,46,0,2,,,,,,,,,6,,,57,0
14974,note_on,46,0,1,,,,,,,,,5,,,76,0
14976,note_on,2,0,1,,,,,,,,,5,,,71,108
14976,note_on,2,0,2,,,,,,,,,6,,,56,108
15022,note_on,46,0,2,,,,,,,,,6,,,56,0
15022,note_on,46,0,1,,,,,,,,,5,,,71,0
15024,note_on,2,0,2,,,,,,,,,6,,,54,108
15024,note_on,2,0,1,,,,,,,,,5,,,69,108
15070,note_on,46,0,2,,,,,,,,,6,,,54,0
15070,note_on,46,0,1,,,,,,,,,5,,,69,0
15072,note_on,2,0,2,,,,,,,,,6,,,56,108
15072,note_on,2,0,1,,,,,,,,,5,,,71,108
15118,note_on,46,0,2,,,,,,,,,6,,,56,0
15118,note_on,46,0,1,,,,,,,,,5,,,71,0
15120,note_on,2,0,2,,,,,,,,,6,,,57,108
15120,note_on,2,0,1,,,,,,,,,5,,,73,108
15166,note_on,46,0,1,,,,,,,,,5,,,73,0
15166,note_on,46,0,2,,,,,,,,,6,,,57,0
15168,note_on,2,0,2,,,,,,,,,6,,,56,108
15168,note_on,2,0,1,,,,,,,,,5,,,71,108
15214,note_on,46,0,2,,,,,,,,,6,,,56,0
15214,note_on,46,0,1,,,,,,,,,5,,,71,0
15216,note_on,2,0,2,,,,,,,,,6,,,57,108
15216,note_on,2,0,1,,,,,,,,,5,,,73,108
15262,note_on,46,0,2,,,,,,,,,6,,,57,0
15262,note_on,46,0,1,,,,,,,,,5,,,73,0
15264,note_on,2,0,2,,,,,,,,,6,,,59,108
15264,note_on,2,0,1,,,,,,,,,5,,,74,108
15310,note_on,46,0,1,,,,,,,,,5,,,74,0
15310,note_on,46,0,2,,,,,,,,,6,,,59,0
15312,note_on,2,0,1,,,,,,,,,5,,,71,108
15312,note_on,2,0,2,,,,,,,,,6,,,56,108
15358,note_on,46,0,1,,,,,,,,,5,,,71,0
15358,note_on,46,0,2,,,,,,,,,6,,,56,0
15360,note_on,2,0,1,,,,,,,,,5,,,73,108
15360,note_on,6146,0,3,,,,,,,,,0,,,73,60
15360,note_on,2,0,2,,,,,,,,,6,,,57,108
15360,note_on,1760,0,6,,,,,,,,,3,,,57,60
15454,note_on,94,0,3,,,,,,,,,0,,,73,0
15454,note_on,94,0,2,,,,,,,,,6,,,57,0
15454,note_on,94,0,6,,,,,,,,,3,,,57,0
15454,note_on,94,0,1,,,,,,,,,5,,,73,0
15456,note_on,2,0,2,,,,,,,,,6,,,45,108
15456,note_on,2,0,3,,,,,,,,,0,,,57,60
15456,note_on,2,0,1,,,,,,,,,5,,,57,108
15456,note_on,2,0,6,,,,,,,,,3,,,45,60
15488,note_on,32,0,1,,,,,,,,,5,,,57,0
15488,note_on,32,0,2,,,,,,,,,6,,,45,0
15488,note_on,32,0,6,,,,,,,,,3,,,45,0
15488,note_on,32,0,3,,,,,,,,,0,,,57,0
15552,note_on,64,0,1,,,,,,,,,5,,,57,108
15552,note_on,64,0,6,,,,,,,,,3,,,45,60
15552,note_on,64,0,2,,,,,,,,,6,,,45,108
15552,note_on,64,0,3,,,,,,,,,0,,,57,60
15584,note_on,32,0,2,,,,,,,,,6,,,45,0
15584,note_on,32,0,6,,,,,,,,,3,,,45,0
15584,note_on,32,0,1,,,,,,,,,5,,,57,0
15584,note_on,32,0,3,,,,,,,,,0,,,57,0
15648,note_on,64,0,3,,,,,,,,,0,,,57,60
15648,note_on,64,0,6,,,,,,,,,3,,,45,60
15648,note_on,64,0,1,,,,,,,,,5,,,57,108
15648,note_on,64,0,2,,,,,,,,,6,,,45,108
15680,note_on,32,0,2,,,,,,,,,6,,,45,0
15680,note_on,32,0,3,,,,,,,,,0,,,57,0
15680,note_on,32,0,1,,,,,,,,,5,,,57,0
15680,note_on,32,0,6,,,,,,,,,3,,,45,0
15744,note_on,64,0,3,,,,,,,,,0,,,57,60
15744,note_on,64,0,1,,,,,,,,,5,,,57,108
15744,note_on,64,0,6,,,,,,,,,3,,,45,60
15744,note_on,64,0,2,,,,,,,,,6,,,45,108
15904,note_on,160,0,3,,,,,,,,,0,,,57,0
15904,note_on,160,0,1,,,,,,,,,5,,,57,0
15904,note_on,160,0,6,,,,,,,,,3,,,45,0
15904,note_on,160,0,2,,,,,,,,,6,,,45,0
15984,note_on,80,0,1,,,,,,,,,5,,,64,108
15984,note_on,80,0,6,,,,,,,,,3,,,52,60
15984,note_on,80,0,2,,,,,,,,,6,,,52,108
15984,note_on,80,0,3,,,,,,,,,0,,,64,60
16030,note_on,46,0,3,,,,,,,,,0,,,64,0
16030,note_on,46,0,6,,,,,,,,,3,,,52,0
16030,note_on,46,0,2,,,,,,,,,6,,,52,0
16030,note_on,46,0,1,,,,,,,,,5,,,64,0
16032,note_on,2,0,2,,,,,,,,,6,,,54,108
16032,note_on,2,0,1,,,,,,,,,5,,,66,108
16032,note_on,2,0,3,,,,,,,,,0,,,66,60
16032,note_on,2,0,6,,,,,,,,,3,,,54,60
16078,note_on,46,0,6,,,,,,,,,3,,,54,0
16078,note_on,46,0,1,,,,,,,,,5,,,66,0
16078,note_on,46,0,3,,,,,,,,,0,,,66,0
16078,note_on,46,0,2,,,,,,,,,6,,,54,0
16080,note_on,2,0,1,,,,,,,,,5,,,68,108
16080,note_on,2,0,3,,,,,,,,,0,,,68,60
16080,note_on,2,0,2,,,,,,,,,6,,,56,108
16080,note_on,2,0,6,,,,,,,,,3,,,56,60
16126,note_on,46,0,6,,,,,,,,,3,,,56,0
16126,note_on,46,0,3,,,,,,,,,0,,,68,0
16126,note_on,46,0,1,,,,,,,,,5,,,68,0
16126,note_on,46,0,2,,,,,,,,,6,,,56,0
16128,note_on,2,0,2,,,,,,,,,6,,,57,108
16128,note_on,2,0,6,,,,,,,,,3,,,57,60
16128,note_on,2,0,3,,,,,,,,,0,,,69,60
16128,note_on,2,0,1,,,,,,,,,5,,,69,108
16222,note_on,94,0,2,,,,,,,,,6,,,57,0
16222,note_on,94,0,6,,,,,,,,,3,,,57,0
16222,note_on,94,0,1,,,,,,,,,5,,,69,0
16222,note_on,94,0,3,,,,,,,,,0,,,69,0
16224,note_on,2,0,2,,,,,,,,,6,,,45,108
16224,note_on,2,0,6,,,,,,,,,3,,,45,60
16224,note_on,2,0,1,,,,,,,,,5,,,57,108
16224,note_on,2,0,3,,,,,,,,,0,,,57,60
16256,note_on,32,0,6,,,,,,,,,3,,,45,0
16256,note_on,32,0,2,,,,,,,,,6,,,45,0
16256,note_on,32,0,3,,,,,,,,,0,,,57,0
16256,note_on,32,0,1,,,,,,,,,5,,,57,0
16320,note_on,64,0,1,,,,,,,,,5,,,57,108
16320,note_on,64,0,6,,,,,,,,,3,,,45,60
16320,note_on,64,0,2,,,,,,,,,6,,,45,108
16320,note_on,64,0,3,,,,,,,,,0,,,57,60
16352,note_on,32,0,6,,,,,,,,,3,,,45,0
16352,note_on,32,0,3,,,,,,,,,0,,,57,0
16352,note_on,32,0,1,,,,,,,,,5,,,57,0
16352,note_on,32,0,2,,,,,,,,,6,,,45,0
16416,note_on,64,0,6,,,,,,,,,3,,,45,60
16416,note_on,64,0,1,,,,,,,,,5,,,57,108
16416,note_on,64,0,3,,,,,,,,,0,,,57,60
16416,note_on,64,0,2,,,,,,,,,6,,,45,108
16448,note_on,32,0,3,,,,,,,,,0,,,57,0
16448,note_on,32,0,1,,,,,,,,,5,,,57,0
16448,note_on,32,0,2,,,,,,,,,6,,,45,0
16448,note_on,32,0,6,,,,,,,,,3,,,45,0
16512,note_on,64,0,3,,,,,,,,,0,,,57,60
16512,note_on,64,0,6,,,,,,,,,3,,,45,60
16512,note_on,64,0,1,,,,,,,,,5,,,57,108
16512,note_on,64,0,2,,,,,,,,,6,,,45,108
16672,note_on,160,0,1,,,,,,,,,5,,,57,0
16672,note_on,160,0,3,,,,,,,,,0,,,57,0
16672,note_on,160,0,6,,,,,,,,,3,,,45,0
16672,note_on,160,0,2,,,,,,,,,6,,,45,0
16752,note_on,80,0,6,,,,,,,,,3,,,52,60
16752,note_on,80,0,1,,,,,,,,,5,,,64,108
16752,note_on,80,0,3,,,,,,,,,0,,,64,60
16752,note_on,80,0,2,,,,,,,,,6,,,52,108
16798,note_on,46,0,1,,,,,,,,,5,,,64,0
16798,note_on,46,0,6,,,,,,,,,3,,,52,0
16798,note_on,46,0,2,,,,,,,,,6,,,52,0
16798,note_on,46,0,3,,,,,,,,,0,,,64,0
16800,note_on,2,0,6,,,,,,,,,3,,,54,60
16800,note_on,2,0,3,,,,,,,,,0,,,66,60
16800,note_on,2,0,1,,,,,,,,,5,,,66,108
16800,note_on,2,0,2,,,,,,,,,6,,,54,108
16846,note_on,46,0,6,,,,,,,,,3,,,54,0
16846,note_on,46,0,1,,,,,,,,,5,,,66,0
16846,note_on,46,0,3,,,,,,,,,0,,,66,0
16846,note_on,46,0,2,,,,,,,,,6,,,54,0
16848,note_on,2,0,2,,,,,,,,,6,,,56,108
16848,note_on,2,0,1,,,,,,,,,5,,,68,108
16848,note_on,2,0,6,,,,,,,,,3,,,56,60
16848,note_on,2,0,3,,,,,,,,,0,,,68,60
16894,note_on,46,0,1,,,,,,,,,5,,,68,0
16894,note_on,46,0,6,,,,,,,,,3,,,56,0
16894,note_on,46,0,3,,,,,,,,,0,,,68,0
16894,note_on,46,0,2,,,,,,,,,6,,,56,0
16896,note_on,2,0,3,,,,,,,,,0,,,69,60
16896,note_on,2,0,1,,,,,,,,,5,,,69,108
16896,note_on,2,0,2,,,,,,,,,6,,,57,108
16896,note_on,2,0,6,,,,,,,,,3,,,57,60
16942,note_on,46,0,1,,,,,,,,,5,,,69,0
16942,note_on,46,0,3,,,,,,,,,0,,,69,0
16942,note_on,46,0,2,,,,,,,,,6,,,57,0
16942,note_on,46,0,6,,,,,,,,,3,,,57,0
16944,note_on,2,0,1,,,,,,,,,5,,,69,108
16944,note_on,2,0,2,,,,,,,,,6,,,57,108
16944,note_on,2,0,6,,,,,,,,,3,,,57,60
16944,note_on,2,0,3,,,,,,,,,0,,,69,60
16990,note_on,46,0,6,,,,,,,,,3,,,57,0
16990,note_on,46,0,2,,,,,,,,,6,,,57,0
16990,note_on,46,0,3,,,,,,,,,0,,,69,0
16990,note_on,46,0,1,,,,,,,,,5,,,69,0
16992,note_on,2,0,3,,,,,,,,,0,,,71,60
16992,note_on,2,0,2,,,,,,,,,6,,,59,108
16992,note_on,2,0,6,,,,,,,,,3,,,59,60
16992,note_on,2,0,1,,,,,,,,,5,,,71,108
17038,note_on,46,0,1,,,,,,,,,5,,,71,0
17038,note_on,46,0,2,,,,,,,,,6,,,59,0
17038,note_on,46,0,3,,,,,,,,,0,,,71,0
17038,note_on,46,0,6,,,,,,,,,3,,,59,0
17040,note_on,2,0,1,,,,,,,,,5,,,71,108
17040,note_on,2,0,6,,,,,,,,,3,,,59,60
17040,note_on,2,0,3,,,,,,,,,0,,,71,60
17040,note_on,2,0,2,,,,,,,,,6,,,59,108
17086,note_on,46,0,3,,,,,,,,,0,,,71,0
17086,note_on,46,0,1,,,,,,,,,5,,,71,0
17086,note_on,46,0,2,,,,,,,,,6,,,59,0
17086,note_on,46,0,6,,,,,,,,,3,,,59,0
17088,note_on,2,0,1,,,,,,,,,5,,,73,108
17088,note_on,2,0,6,,,,,,,,,3,,,61,60
17088,note_on,2,0,2,,,,,,,,,6,,,61,108
17088,note_on,2,0,3,,,,,,,,,0,,,73,60
17134,note_on,46,0,1,,,,,,,,,5,,,73,0
17134,note_on,46,0,3,,,,,,,,,0,,,73,0
17134,note_on,46,0,2,,,,,,,,,6,,,61,0
17134,note_on,46,0,6,,,,,,,,,3,,,61,0
17136,note_on,2,0,3,,,,,,,,,0,,,73,60
17136,note_on,2,0,2,,,,,,,,,6,,,61,108
17136,note_on,2,0,1,,,,,,,,,5,,,73,108
17136,note_on,2,0,6,,,,,,,,,3,,,61,60
17182,note_on,46,0,2,,,,,,,,,6,,,61,0
17182,note_on,46,0,1,,,,,,,,,5,,,73,0
17182,note_on,46,0,3,,,,,,,,,0,,,73,0
17182,note_on,46,0,6,,,,,,,,,3,,,61,0
17184,note_on,2,0,2,,,,,,,,,6,,,62,108
17184,note_on,2,0,1,,,,,,,,,5,,,74,108
17184,note_on,2,0,3,,,,,,,,,0,,,74,60
17184,note_on,2,0,6,,,,,,,,,3,,,62,60
17230,note_on,46,0,2,,,,,,,,,6,,,62,0
17230,note_on,46,0,1,,,,,,,,,5,,,74,0
17230,note_on,46,0,6,,,,,,,,,3,,,62,0
17230,note_on,46,0,3,,,,,,,,,0,,,74,0
17232,note_on,2,0,3,,,,,,,,,0,,,74,60
17232,note_on,2,0,1,,,,,,,,,5,,,74,108
17232,note_on,2,0,2,,,,,,,,,6,,,62,108
17232,note_on,2,0,6,,,,,,,,,3,,,62,60
17278,note_on,46,0,6,,,,,,,,,3,,,62,0
17278,note_on,46,0,3,,,,,,,,,0,,,74,0
17278,note_on,46,0,1,,,,,,,,,5,,,74,0
17278,note_on,46,0,2,,,,,,,,,6,,,62,0
17280,note_on,2,0,1,,,,,,,,,5,,,76,108
17280,note_on,2,0,3,,,,,,,,,0,,,76,60
17280,note_on,2,0,6,,,,,,,,,3,,,64,60
17280,note_on,2,0,2,,,,,,,,,6,,,64,108
17374,note_on,94,0,1,,,,,,,,,5,,,76,0
17374,note_on,94,0,6,,,,,,,,,3,,,64,0
17374,note_on,94,0,2,,,,,,,,,6,,,64,0
17374,note_on,94,0,3,,,,,,,,,0,,,76,0
17376,note_on,2,0,1,,,,,,,,,5,,,64,108
17376,note_on,2,0,2,,,,,,,,,6,,,52,108
17376,note_on,2,0,3,,,,,,,,,0,,,64,60
17376,note_on,2,0,6,,,,,,,,,3,,,52,60
17470,note_on,94,0,6,,,,,,,,,3,,,52,0
17470,note_on,94,0,2,,,,,,,,,6,,,52,0
17470,note_on,94,0,1,,,,,,,,,5,,,64,0
17470,note_on,94,0,3,,,,,,,,,0,,,64,0
17568,note_on,98,0,3,,,,,,,,,0,,,71,60
17568,note_on,98,0,1,,,,,,,,,5,,,71,108
17568,note_on,98,0,2,,,,,,,,,6,,,59,108
17568,note_on,98,0,6,,,,,,,,,3,,,59,60
17662,note_on,94,0,2,,,,,,,,,6,,,59,0
17662,note_on,94,0,6,,,,,,,,,3,,,59,0
17662,note_on,94,0,1,,,,,,,,,5,,,71,0
17662,note_on,94,0,3,,,,,,,,,0,,,71,0
17664,note_on,2,0,3,,,,,,,,,0,,,73,60
17664,note_on,2,0,1,,,,,,,,,5,,,73,108
17664,note_on,2,0,2,,,,,,,,,6,,,61,108
17664,note_on,2,0,6,,,,,,,,,3,,,61,60
17758,note_on,94,0,6,,,,,,,,,3,,,61,0
17758,note_on,94,0,3,,,,,,,,,0,,,73,0
17758,note_on,94,0,1,,,,,,,,,5,,,73,0
17758,note_on,94,0,2,,,,,,,,,6,,,61,0
17760,note_on,2,0,6,,,,,,,,,3,,,59,60
17760,note_on,2,0,1,,,,,,,,,5,,,71,108
17760,note_on,2,0,3,,,,,,,,,0,,,71,60
17760,note_on,2,0,2,,,,,,,,,6,,,59,108
17806,note_on,46,0,6,,,,,,,,,3,,,59,0
17806,note_on,46,0,1,,,,,,,,,5,,,71,0
17806,note_on,46,0,3,,,,,,,,,0,,,71,0
17806,note_on,46,0,2,,,,,,,,,6,,,59,0
17808,note_on,2,0,2,,,,,,,,,6,,,57,108
17808,note_on,2,0,6,,,,,,,,,3,,,57,60
17808,note_on,2,0,1,,,,,,,,,5,,,69,108
17808,note_on,2,0,3,,,,,,,,,0,,,69,60
17854,note_on,46,0,2,,,,,,,,,6,,,57,0
17854,note_on,46,0,3,,,,,,,,,0,,,69,0
17854,note_on,46,0,6,,,,,,,,,3,,,57,0
17854,note_on,46,0,1,,,,,,,,,5,,,69,0
17856,note_on,2,0,2,,,,,,,,,6,,,64,108
17856,note_on,2,0,6,,,,,,,,,3,,,64,60
17856,note_on,2,0,3,,,,,,,,,0,,,76,60
17856,note_on,2,0,1,,,,,,,,,5,,,76,108
17950,note_on,94,0,1,,,,,,,,,5,,,76,0
17950,note_on,94,0,2,,,,,,,,,6,,,64,0
17950,note_on,94,0,6,,,,,,,,,3,,,64,0
17950,note_on,94,0,3,,,,,,,,,0,,,76,0
17952,note_on,2,0,2,,,,,,,,,6,,,52,108
17952,note_on,2,0,1,,,,,,,,,5,,,64,108
17952,note_on,2,0,6,,,,,,,,,3,,,52,60
17952,note_on,2,0,3,,,,,,,,,0,,,64,60
18046,note_on,94,0,6,,,,,,,,,3,,,52,0
18046,note_on,94,0,2,,,,,,,,,6,,,52,0
18046,note_on,94,0,1,,,,,,,,,5,,,64,0
18046,note_on,94,0,3,,,,,,,,,0,,,64,0
18048,note_on,2,0,2,,,,,,,,,6,,,57,108
18048,note_on,2,0,1,,,,,,,,,5,,,69,108
18048,note_on,2,0,6,,,,,,,,,3,,,57,60
18048,note_on,2,0,3,,,,,,,,,0,,,69,60
18208,note_on,160,0,3,,,,,,,,,0,,,69,0
18208,note_on,160,0,2,,,,,,,,,6,,,57,0
18208,note_on,160,0,1,,,,,,,,,5,,,69,0
18208,note_on,160,0,6,,,,,,,,,3,,,57,0
18336,note_on,128,0,3,,,,,,,,,0,,,71,60
18336,note_on,128,0,6,,,,,,,,,3,,,59,60
18336,note_on,128,0,1,,,,,,,,,5,,,71,108
18336,note_on,128,0,2,,,,,,,,,6,,,59,108
18430,note_on,94,0,6,,,,,,,,,3,,,59,0
18430,note_on,94,0,1,,,,,,,,,5,,,71,0
18430,note_on,94,0,2,,,,,,,,,6,,,59,0
18430,note_on,94,0,3,,,,,,,,,0,,,71,0
18432,note_on,2,0,3,,,,,,,,,0,,,73,60
18432,note_on,2,0,6,,,,,,,,,3,,,61,60
18432,note_on,2,0,2,,,,,,,,,6,,,61,108
18432,note_on,2,0,1,,,,,,,,,5,,,73,108
18526,note_on,94,0,1,,,,,,,,,5,,,73,0
18526,note_on,94,0,6,,,,,,,,,3,,,61,0
18526,note_on,94,0,3,,,,,,,,,0,,,73,0
18526,note_on,94,0,2,,,,,,,,,6,,,61,0
18528,note_on,2,0,1,,,,,,,,,5,,,71,108
18528,note_on,2,0,6,,,,,,,,,3,,,59,60
18528,note_on,2,0,3,,,,,,,,,0,,,71,60
18528,note_on,2,0,2,,,,,,,,,6,,,59,108
18574,note_on,46,0,6,,,,,,,,,3,,,59,0
18574,note_on,46,0,3,,,,,,,,,0,,,71,0
18574,note_on,46,0,1,,,,,,,,,5,,,71,0
18574,note_on,46,0,2,,,,,,,,,6,,,59,0
18576,note_on,2,0,2,,,,,,,,,6,,,57,108
18576,note_on,2,0,6,,,,,,,,,3,,,57,60
18576,note_on,2,0,3,,,,,,,,,0,,,69,60
18576,note_on,2,0,1,,,,,,,,,5,,,69,108
18622,note_on,46,0,1,,,,,,,,,5,,,69,0
18622,note_on,46,0,2,,,,,,,,,6,,,57,0
18622,note_on,46,0,3,,,,,,,,,0,,,69,0
18622,note_on,46,0,6,,,,,,,,,3,,,57,0
18624,note_on,2,0,3,,,,,,,,,0,,,76,60
18624,note_on,2,0,1,,,,,,,,,5,,,76,108
18624,note_on,2,0,2,,,,,,,,,6,,,64,108
18624,note_on,2,0,6,,,,,,,,,3,,,64,60
18718,note_on,94,0,3,,,,,,,,,0,,,76,0
18718,note_on,94,0,1,,,,,,,,,5,,,76,0
18718,note_on,94,0,2,,,,,,,,,6,,,64,0
18718,note_on,94,0,6,,,,,,,,,3,,,64,0
18720,note_on,2,0,1,,,,,,,,,5,,,64,108
18720,note_on,0,0,1,,,,,,,,,5,,,68,108
18720,note_on,2,0,6,,,,,,,,,3,,,52,60
18720,note_on,2,0,3,,,,,,,,,0,,,64,60
18720,note_on,2,0,2,,,,,,,,,6,,,52,108
18750,note_on,30,0,3,,,,,,,,,0,,,64,0
18752,note_on,2,0,3,,,,,,,,,0,,,66,60
18782,note_on,30,0,3,,,,,,,,,0,,,66,0
18784,note_on,2,0,3,,,,,,,,,0,,,68,60
18814,note_on,30,0,3,,,,,,,,,0,,,68,0
18814,note_on,0,0,1,,,,,,,,,5,,,68,0
18814,note_on,94,0,6,,,,,,,,,3,,,52,0
18814,note_on,94,0,2,,,,,,,,,6,,,52,0
18814,note_on,94,0,1,,,,,,,,,5,,,64,0
18816,note_on,2,0,3,,,,,,,,,0,,,69,60
18816,note_on,2,0,2,,,,,,,,,6,,,45,108
18816,note_on,2,0,6,,,,,,,,,3,,,45,60
18816,note_on,2,0,1,,,,,,,,,5,,,69,108
18862,note_on,46,0,2,,,,,,,,,6,,,45,0
18862,note_on,46,0,1,,,,,,,,,5,,,69,0
18864,note_on,2,0,2,,,,,,,,,6,,,52,108
18864,note_on,2,0,1,,,,,,,,,5,,,73,108
18910,note_on,46,0,2,,,,,,,,,6,,,52,0
18910,note_on,46,0,1,,,,,,,,,5,,,73,0
18912,note_on,2,0,1,,,,,,,,,5,,,76,108
18912,note_on,2,0,2,,,,,,,,,6,,,57,108
18958,note_on,46,0,1,,,,,,,,,5,,,76,0
18958,note_on,46,0,2,,,,,,,,,6,,,57,0
18960,note_on,2,0,2,,,,,,,,,6,,,52,108
18960,note_on,2,0,1,,,,,,,,,5,,,73,108
18976,note_on,160,0,3,,,,,,,,,0,,,69,0
19006,note_on,46,0,2,,,,,,,,,6,,,52,0
19006,note_on,46,0,1,,,,,,,,,5,,,73,0
19008,note_on,2,0,2,,,,,,,,,6,,,45,108
19008,note_on,2,0,1,,,,,,,,,5,,,69,108
19054,note_on,46,0,2,,,,,,,,,6,,,45,0
19054,note_on,46,0,1,,,,,,,,,5,,,69,0
19056,note_on,2,0,1,,,,,,,,,5,,,73,108
19056,note_on,2,0,2,,,,,,,,,6,,,52,108
19102,note_on,46,0,1,,,,,,,,,5,,,73,0
19102,note_on,46,0,2,,,,,,,,,6,,,52,0
19104,note_on,2,0,1,,,,,,,,,5,,,76,108
19104,note_on,2,0,2,,,,,,,,,6,,,57,108
19150,note_on,46,0,2,,,,,,,,,6,,,57,0
19150,note_on,46,0,1,,,,,,,,,5,,,76,0
19152,note_on,2,0,1,,,,,,,,,5,,,73,108
19152,note_on,2,0,2,,,,,,,,,6,,,52,108
19198,note_on,46,0,2,,,,,,,,,6,,,52,0
19198,note_on,46,0,1,,,,,,,,,5,,,73,0
19200,note_on,2,0,2,,,,,,,,,6,,,47,108
19200,note_on,2,0,1,,,,,,,,,5,,,69,108
19246,note_on,46,0,2,,,,,,,,,6,,,47,0
19246,note_on,46,0,1,,,,,,,,,5,,,69,0
19248,note_on,2,0,2,,,,,,,,,6,,,52,108
19248,note_on,2,0,1,,,,,,,,,5,,,74,108
19294,note_on,46,0,2,,,,,,,,,6,,,52,0
19294,note_on,46,0,1,,,,,,,,,5,,,74,0
19296,note_on,2,0,2,,,,,,,,,6,,,57,108
19296,note_on,2,0,1,,,,,,,,,5,,,76,108
19342,note_on,46,0,1,,,,,,,,,5,,,76,0
19342,note_on,46,0,2,,,,,,,,,6,,,57,0
19344,note_on,2,0,1,,,,,,,,,5,,,74,108
19344,note_on,2,0,2,,,,,,,,,6,,,52,108
19390,note_on,46,0,1,,,,,,,,,5,,,74,0
19390,note_on,46,0,2,,,,,,,,,6,,,52,0
19392,note_on,2,0,2,,,,,,,,,6,,,47,108
19392,note_on,2,0,1,,,,,,,,,5,,,69,108
19438,note_on,46,0,1,,,,,,,,,5,,,69,0
19438,note_on,46,0,2,,,,,,,,,6,,,47,0
19440,note_on,2,0,1,,,,,,,,,5,,,74,108
19440,note_on,2,0,2,,,,,,,,,6,,,52,108
19486,note_on,46,0,1,,,,,,,,,5,,,74,0
19486,note_on,46,0,2,,,,,,,,,6,,,52,0
19488,note_on,2,0,1,,,,,,,,,5,,,76,108
19488,note_on,2,0,2,,,,,,,,,6,,,57,108
19534,note_on,46,0,2,,,,,,,,,6,,,57,0
19534,note_on,46,0,1,,,,,,,,,5,,,76,0
19536,note_on,2,0,2,,,,,,,,,6,,,52,108
19536,note_on,2,0,1,,,,,,,,,5,,,74,108
19582,note_on,46,0,2,,,,,,,,,6,,,52,0
19582,note_on,46,0,1,,,,,,,,,5,,,74,0
19584,note_on,2,0,2,,,,,,,,,6,,,49,108
19584,note_on,2,0,1,,,,,,,,,5,,,69,108
19630,note_on,46,0,1,,,,,,,,,5,,,69,0
19630,note_on,46,0,2,,,,,,,,,6,,,49,0
19632,note_on,2,0,2,,,,,,,,,6,,,52,108
19632,note_on,2,0,1,,,,,,,,,5,,,76,108
19678,note_on,46,0,2,,,,,,,,,6,,,52,0
19678,note_on,46,0,1,,,,,,,,,5,,,76,0
19680,note_on,2,0,2,,,,,,,,,6,,,57,108
19680,note_on,2,0,1,,,,,,,,,5,,,73,108
19726,note_on,46,0,2,,,,,,,,,6,,,57,0
19726,note_on,46,0,1,,,,,,,,,5,,,73,0
19728,note_on,2,0,1,,,,,,,,,5,,,76,108
19728,note_on,2,0,2,,,,,,,,,6,,,52,108
19774,note_on,46,0,2,,,,,,,,,6,,,52,0
19774,note_on,46,0,1,,,,,,,,,5,,,76,0
19776,note_on,2,0,1,,,,,,,,,5,,,69,108
19776,note_on,2,0,2,,,,,,,,,6,,,49,108
19822,note_on,46,0,1,,,,,,,,,5,,,69,0
19822,note_on,46,0,2,,,,,,,,,6,,,49,0
19824,note_on,2,0,2,,,,,,,,,6,,,52,108
19824,note_on,2,0,1,,,,,,,,,5,,,76,108
19870,note_on,46,0,2,,,,,,,,,6,,,52,0
19870,note_on,46,0,1,,,,,,,,,5,,,76,0
19872,note_on,2,0,2,,,,,,,,,6,,,57,108
19872,note_on,2,0,1,,,,,,,,,5,,,73,108
19918,note_on,46,0,2,,,,,,,,,6,,,57,0
19918,note_on,46,0,1,,,,,,,,,5,,,73,0
19920,note_on,2,0,1,,,,,,,,,5,,,76,108
19920,note_on,2,0,2,,,,,,,,,6,,,52,108
19966,note_on,46,0,2,,,,,,,,,6,,,52,0
19966,note_on,46,0,1,,,,,,,,,5,,,76,0
19968,note_on,2,0,1,,,,,,,,,5,,,69,108
19968,note_on,2,0,2,,,,,,,,,6,,,50,108
20014,note_on,46,0,1,,,,,,,,,5,,,69,0
20014,note_on,46,0,2,,,,,,,,,6,,,50,0
20016,note_on,2,0,2,,,,,,,,,6,,,52,108
20016,note_on,2,0,1,,,,,,,,,5,,,78,108
20062,note_on,46,0,1,,,,,,,,,5,,,78,0
20062,note_on,46,0,2,,,,,,,,,6,,,52,0
20064,note_on,2,0,1,,,,,,,,,5,,,76,108
20064,note_on,2,0,2,,,,,,,,,6,,,57,108
20110,note_on,46,0,2,,,,,,,,,6,,,57,0
20110,note_on,46,0,1,,,,,,,,,5,,,76,0
20112,note_on,2,0,2,,,,,,,,,6,,,52,108
20112,note_on,2,0,1,,,,,,,,,5,,,78,108
20158,note_on,46,0,1,,,,,,,,,5,,,78,0
20158,note_on,46,0,2,,,,,,,,,6,,,52,0
20160,note_on,2,0,2,,,,,,,,,6,,,50,108
20160,note_on,2,0,1,,,,,,,,,5,,,69,108
20206,note_on,46,0,2,,,,,,,,,6,,,50,0
20206,note_on,46,0,1,,,,,,,,,5,,,69,0
20208,note_on,2,0,1,,,,,,,,,5,,,78,108
20208,note_on,2,0,2,,,,,,,,,6,,,52,108
20254,note_on,46,0,2,,,,,,,,,6,,,52,0
20254,note_on,46,0,1,,,,,,,,,5,,,78,0
20256,note_on,2,0,1,,,,,,,,,5,,,76,108
20256,note_on,2,0,2,,,,,,,,,6,,,57,108
20302,note_on,46,0,1,,,,,,,,,5,,,76,0
20302,note_on,46,0,2,,,,,,,,,6,,,57,0
20304,note_on,2,0,2,,,,,,,,,6,,,52,108
20304,note_on,2,0,1,,,,,,,,,5,,,78,108
20350,note_on,46,0,1,,,,,,,,,5,,,78,0
20350,note_on,46,0,2,,,,,,,,,6,,,52,0
20352,note_on,2,0,2,,,,,,,,,6,,,49,108
20352,note_on,2,0,1,,,,,,,,,5,,,69,108
20398,note_on,46,0,1,,,,,,,,,5,,,69,0
20398,note_on,46,0,2,,,,,,,,,6,,,49,0
20400,note_on,2,0,1,,,,,,,,,5,,,76,108
20400,note_on,2,0,2,,,,,,,,,6,,,52,108
20446,note_on,46,0,1,,,,,,,,,5,,,76,0
20446,note_on,46,0,2,,,,,,,,,6,,,52,0
20448,note_on,2,0,2,,,,,,,,,6,,,57,108
20448,note_on,2,0,1,,,,,,,,,5,,,73,108
20494,note_on,46,0,2,,,,,,,,,6,,,57,0
20494,note_on,46,0,1,,,,,,,,,5,,,73,0
20496,note_on,2,0,2,,,,,,,,,6,,,52,108
20496,note_on,2,0,1,,,,,,,,,5,,,76,108
20542,note_on,46,0,1,,,,,,,,,5,,,76,0
20542,note_on,46,0,2,,,,,,,,,6,,,52,0
20544,note_on,2,0,1,,,,,,,,,5,,,69,108
20544,note_on,2,0,2,,,,,,,,,6,,,49,108
20590,note_on,46,0,1,,,,,,,,,5,,,69,0
20590,note_on,46,0,2,,,,,,,,,6,,,49,0
20592,note_on,2,0,1,,,,,,,,,5,,,76,108
20592,note_on,2,0,2,,,,,,,,,6,,,52,108
20638,note_on,46,0,2,,,,,,,,,6,,,52,0
20638,note_on,46,0,1,,,,,,,,,5,,,76,0
20640,note_on,2,0,1,,,,,,,,,5,,,73,108
20640,note_on,2,0,2,,,,,,,,,6,,,57,108
20686,note_on,46,0,1,,,,,,,,,5,,,73,0
20686,note_on,46,0,2,,,,,,,,,6,,,57,0
20688,note_on,2,0,2,,,,,,,,,6,,,52,108
20688,note_on,2,0,1,,,,,,,,,5,,,76,108
20734,note_on,46,0,2,,,,,,,,,6,,,52,0
20734,note_on,46,0,1,,,,,,,,,5,,,76,0
20736,note_on,2,0,2,,,,,,,,,6,,,47,108
20736,note_on,2,0,1,,,,,,,,,5,,,69,108
20782,note_on,46,0,1,,,,,,,,,5,,,69,0
20782,note_on,46,0,2,,,,,,,,,6,,,47,0
20784,note_on,2,0,1,,,,,,,,,5,,,74,108
20784,note_on,2,0,2,,,,,,,,,6,,,52,108
20830,note_on,46,0,1,,,,,,,,,5,,,74,0
20830,note_on,46,0,2,,,,,,,,,6,,,52,0
20832,note_on,2,0,1,,,,,,,,,5,,,76,108
20832,note_on,2,0,2,,,,,,,,,6,,,57,108
20878,note_on,46,0,1,,,,,,,,,5,,,76,0
20878,note_on,46,0,2,,,,,,,,,6,,,57,0
20880,note_on,2,0,1,,,,,,,,,5,,,74,108
20880,note_on,2,0,2,,,,,,,,,6,,,52,108
20926,note_on,46,0,2,,,,,,,,,6,,,52,0
20926,note_on,46,0,1,,,,,,,,,5,,,74,0
20928,note_on,2,0,1,,,,,,,,,5,,,69,108
20928,note_on,2,0,2,,,,,,,,,6,,,47,108
20974,note_on,46,0,2,,,,,,,,,6,,,47,0
20974,note_on,46,0,1,,,,,,,,,5,,,69,0
20976,note_on,2,0,1,,,,,,,,,5,,,74,108
20976,note_on,2,0,2,,,,,,,,,6,,,52,108
21022,note_on,46,0,1,,,,,,,,,5,,,74,0
21022,note_on,46,0,2,,,,,,,,,6,,,52,0
21024,note_on,2,0,1,,,,,,,,,5,,,76,108
21024,note_on,2,0,2,,,,,,,,,6,,,57,108
21070,note_on,46,0,2,,,,,,,,,6,,,57,0
21070,note_on,46,0,1,,,,,,,,,5,,,76,0
21072,note_on,2,0,1,,,,,,,,,5,,,74,108
21072,note_on,2,0,2,,,,,,,,,6,,,52,108
21118,note_on,46,0,2,,,,,,,,,6,,,52,0
21118,note_on,46,0,1,,,,,,,,,5,,,74,0
21120,note_on,2,0,1,,,,,,,,,5,,,69,108
21120,note_on,2,0,2,,,,,,,,,6,,,45,108
21166,note_on,46,0,1,,,,,,,,,5,,,69,0
21166,note_on,46,0,2,,,,,,,,,6,,,45,0
21168,note_on,2,0,2,,,,,,,,,6,,,52,108
21168,note_on,2,0,1,,,,,,,,,5,,,73,108
21214,note_on,46,0,1,,,,,,,,,5,,,73,0
21214,note_on,46,0,2,,,,,,,,,6,,,52,0
21216,note_on,2,0,2,,,,,,,,,6,,,57,108
21216,note_on,2,0,1,,,,,,,,,5,,,76,108
21262,note_on,46,0,2,,,,,,,,,6,,,57,0
21262,note_on,46,0,1,,,,,,,,,5,,,76,0
21264,note_on,2,0,2,,,,,,,,,6,,,52,108
21264,note_on,2,0,1,,,,,,,,,5,,,73,108
21310,note_on,46,0,2,,,,,,,,,6,,,52,0
21310,note_on,46,0,1,,,,,,,,,5,,,73,0
21312,note_on,2,0,1,,,,,,,,,5,,,69,108
21312,note_on,2,0,2,,,,,,,,,6,,,45,108
21358,note_on,46,0,1,,,,,,,,,5,,,69,0
21358,note_on,46,0,2,,,,,,,,,6,,,45,0
21360,note_on,2,0,2,,,,,,,,,6,,,52,108
21360,note_on,2,0,1,,,,,,,,,5,,,73,108
21406,note_on,46,0,1,,,,,,,,,5,,,73,0
21406,note_on,46,0,2,,,,,,,,,6,,,52,0
21408,note_on,2,0,2,,,,,,,,,6,,,57,108
21408,note_on,2,0,1,,,,,,,,,5,,,76,108
21454,note_on,46,0,1,,,,,,,,,5,,,76,0
21454,note_on,46,0,2,,,,,,,,,6,,,57,0
21456,note_on,2,0,1,,,,,,,,,5,,,73,108
21456,note_on,2,0,2,,,,,,,,,6,,,52,108
21502,note_on,46,0,2,,,,,,,,,6,,,52,0
21502,note_on,46,0,1,,,,,,,,,5,,,73,0
21504,note_on,2,0,1,,,,,,,,,5,,,69,108
21504,note_on,2,0,2,,,,,,,,,6,,,47,108
21550,note_on,46,0,1,,,,,,,,,5,,,69,0
21550,note_on,46,0,2,,,,,,,,,6,,,47,0
21552,note_on,2,0,2,,,,,,,,,6,,,52,108
21552,note_on,2,0,1,,,,,,,,,5,,,74,108
21598,note_on,46,0,1,,,,,,,,,5,,,74,0
21598,note_on,46,0,2,,,,,,,,,6,,,52,0
21600,note_on,2,0,2,,,,,,,,,6,,,57,108
21600,note_on,2,0,1,,,,,,,,,5,,,76,108
21646,note_on,46,0,1,,,,,,,,,5,,,76,0
21646,note_on,46,0,2,,,,,,,,,6,,,57,0
21648,note_on,2,0,1,,,,,,,,,5,,,74,108
21648,note_on,2,0,2,,,,,,,,,6,,,52,108
21694,note_on,46,0,1,,,,,,,,,5,,,74,0
21694,note_on,46,0,2,,,,,,,,,6,,,52,0
21696,note_on,2,0,1,,,,,,,,,5,,,69,108
21696,note_on,2,0,2,,,,,,,,,6,,,47,108
21742,note_on,46,0,1,,,,,,,,,5,,,69,0
21742,note_on,46,0,2,,,,,,,,,6,,,47,0
21744,note_on,2,0,2,,,,,,,,,6,,,52,108
21744,note_on,2,0,1,,,,,,,,,5,,,74,108
21790,note_on,46,0,2,,,,,,,,,6,,,52,0
21790,note_on,46,0,1,,,,,,,,,5,,,74,0
21792,note_on,2,0,1,,,,,,,,,5,,,76,108
21792,note_on,2,0,2,,,,,,,,,6,,,57,108
21838,note_on,46,0,2,,,,,,,,,6,,,57,0
21838,note_on,46,0,1,,,,,,,,,5,,,76,0
21840,note_on,2,0,1,,,,,,,,,5,,,74,108
21840,note_on,2,0,2,,,,,,,,,6,,,52,108
21886,note_on,46,0,1,,,,,,,,,5,,,74,0
21886,note_on,46,0,2,,,,,,,,,6,,,52,0
21888,note_on,2,0,1,,,,,,,,,5,,,69,108
21888,note_on,2,0,2,,,,,,,,,6,,,49,108
21934,note_on,46,0,2,,,,,,,,,6,,,49,0
21934,note_on,46,0,1,,,,,,,,,5,,,69,0
21936,note_on,2,0,2,,,,,,,,,6,,,52,108
21936,note_on,2,0,1,,,,,,,,,5,,,76,108
21982,note_on,46,0,2,,,,,,,,,6,,,52,0
21982,note_on,46,0,1,,,,,,,,,5,,,76,0
21984,note_on,2,0,2,,,,,,,,,6,,,57,108
21984,note_on,2,0,1,,,,,,,,,5,,,73,108
22030,note_on,46,0,2,,,,,,,,,6,,,57,0
22030,note_on,46,0,1,,,,,,,,,5,,,73,0
22032,note_on,2,0,1,,,,,,,,,5,,,76,108
22032,note_on,2,0,2,,,,,,,,,6,,,52,108
22078,note_on,46,0,1,,,,,,,,,5,,,76,0
22078,note_on,46,0,2,,,,,,,,,6,,,52,0
22080,note_on,2,0,2,,,,,,,,,6,,,49,108
22080,note_on,2,0,1,,,,,,,,,5,,,69,108
22126,note_on,46,0,2,,,,,,,,,6,,,49,0
22126,note_on,46,0,1,,,,,,,,,5,,,69,0
22128,note_on,2,0,2,,,,,,,,,6,,,52,108
22128,note_on,2,0,1,,,,,,,,,5,,,76,108
22174,note_on,46,0,2,,,,,,,,,6,,,52,0
22174,note_on,46,0,1,,,,,,,,,5,,,76,0
22176,note_on,2,0,1,,,,,,,,,5,,,73,108
22176,note_on,2,0,2,,,,,,,,,6,,,57,108
22222,note_on,46,0,2,,,,,,,,,6,,,57,0
22222,note_on,46,0,1,,,,,,,,,5,,,73,0
22224,note_on,2,0,1,,,,,,,,,5,,,76,108
22224,note_on,2,0,2,,,,,,,,,6,,,52,108
22270,note_on,46,0,2,,,,,,,,,6,,,52,0
22270,note_on,46,0,1,,,,,,,,,5,,,76,0
22272,note_on,2,0,2,,,,,,,,,6,,,50,108
22272,note_on,2,0,1,,,,,,,,,5,,,69,108
22318,note_on,46,0,2,,,,,,,,,6,,,50,0
22318,note_on,46,0,1,,,,,,,,,5,,,69,0
22320,note_on,2,0,1,,,,,,,,,5,,,78,108
22320,note_on,2,0,2,,,,,,,,,6,,,52,108
22366,note_on,46,0,1,,,,,,,,,5,,,78,0
22366,note_on,46,0,2,,,,,,,,,6,,,52,0
22368,note_on,2,0,1,,,,,,,,,5,,,76,108
22368,note_on,2,0,2,,,,,,,,,6,,,57,108
22414,note_on,46,0,1,,,,,,,,,5,,,76,0
22414,note_on,46,0,2,,,,,,,,,6,,,57,0
22416,note_on,2,0,1,,,,,,,,,5,,,78,108
22416,note_on,2,0,2,,,,,,,,,6,,,52,108
22462,note_on,46,0,1,,,,,,,,,5,,,78,0
22462,note_on,46,0,2,,,,,,,,,6,,,52,0
22464,note_on,2,0,2,,,,,,,,,6,,,50,108
22464,note_on,2,0,1,,,,,,,,,5,,,69,108
22510,note_on,46,0,2,,,,,,,,,6,,,50,0
22510,note_on,46,0,1,,,,,,,,,5,,,69,0
22512,note_on,2,0,2,,,,,,,,,6,,,52,108
22512,note_on,2,0,1,,,,,,,,,5,,,78,108
22558,note_on,46,0,1,,,,,,,,,5,,,78,0
22558,note_on,46,0,2,,,,,,,,,6,,,52,0
22560,note_on,2,0,1,,,,,,,,,5,,,76,108
22560,note_on,2,0,2,,,,,,,,,6,,,57,108
22606,note_on,46,0,1,,,,,,,,,5,,,76,0
22606,note_on,46,0,2,,,,,,,,,6,,,57,0
22608,note_on,2,0,1,,,,,,,,,5,,,78,108
22608,note_on,2,0,2,,,,,,,,,6,,,52,108
22654,note_on,46,0,1,,,,,,,,,5,,,78,0
22654,note_on,46,0,2,,,,,,,,,6,,,52,0
22656,note_on,2,0,2,,,,,,,,,6,,,49,108
22656,note_on,2,0,1,,,,,,,,,5,,,69,108
22702,note_on,46,0,2,,,,,,,,,6,,,49,0
22702,note_on,46,0,1,,,,,,,,,5,,,69,0
22704,note_on,2,0,1,,,,,,,,,5,,,76,108
22704,note_on,2,0,2,,,,,,,,,6,,,52,108
22750,note_on,46,0,2,,,,,,,,,6,,,52,0
22750,note_on,46,0,1,,,,,,,,,5,,,76,0
22752,note_on,2,0,2,,,,,,,,,6,,,57,108
22752,note_on,2,0,1,,,,,,,,,5,,,73,108
22798,note_on,46,0,1,,,,,,,,,5,,,73,0
22798,note_on,46,0,2,,,,,,,,,6,,,57,0
22800,note_on,2,0,1,,,,,,,,,5,,,76,108
22800,note_on,2,0,2,,,,,,,,,6,,,52,108
22846,note_on,46,0,1,,,,,,,,,5,,,76,0
22846,note_on,46,0,2,,,,,,,,,6,,,52,0
22848,note_on,2,0,1,,,,,,,,,5,,,69,108
22848,note_on,2,0,2,,,,,,,,,6,,,49,108
22894,note_on,46,0,1,,,,,,,,,5,,,69,0
22894,note_on,46,0,2,,,,,,,,,6,,,49,0
22896,note_on,2,0,2,,,,,,,,,6,,,52,108
22896,note_on,2,0,1,,,,,,,,,5,,,76,108
22942,note_on,46,0,1,,,,,,,,,5,,,76,0
22942,note_on,46,0,2,,,,,,,,,6,,,52,0
22944,note_on,2,0,2,,,,,,,,,6,,,57,108
22944,note_on,2,0,1,,,,,,,,,5,,,73,108
22990,note_on,46,0,2,,,,,,,,,6,,,57,0
22990,note_on,46,0,1,,,,,,,,,5,,,73,0
22992,note_on,2,0,2,,,,,,,,,6,,,52,108
22992,note_on,2,0,1,,,,,,,,,5,,,76,108
23038,note_on,46,0,1,,,,,,,,,5,,,76,0
23038,note_on,46,0,2,,,,,,,,,6,,,52,0
23040,note_on,2,0,1,,,,,,,,,5,,,69,108
23040,note_on,2,0,2,,,,,,,,,6,,,47,108
23086,note_on,46,0,2,,,,,,,,,6,,,47,0
23086,note_on,46,0,1,,,,,,,,,5,,,69,0
23088,note_on,2,0,2,,,,,,,,,6,,,52,108
23088,note_on,2,0,1,,,,,,,,,5,,,74,108
23134,note_on,46,0,2,,,,,,,,,6,,,52,0
23134,note_on,46,0,1,,,,,,,,,5,,,74,0
23136,note_on,2,0,2,,,,,,,,,6,,,57,108
23136,note_on,2,0,1,,,,,,,,,5,,,76,108
23182,note_on,46,0,2,,,,,,,,,6,,,57,0
23182,note_on,46,0,1,,,,,,,,,5,,,76,0
23184,note_on,2,0,2,,,,,,,,,6,,,52,108
23184,note_on,2,0,1,,,,,,,,,5,,,74,108
23230,note_on,46,0,2,,,,,,,,,6,,,52,0
23230,note_on,46,0,1,,,,,,,,,5,,,74,0
23232,note_on,2,0,1,,,,,,,,,5,,,69,108
23232,note_on,2,0,2,,,,,,,,,6,,,47,108
23278,note_on,46,0,1,,,,,,,,,5,,,69,0
23278,note_on,46,0,2,,,,,,,,,6,,,47,0
23280,note_on,2,0,1,,,,,,,,,5,,,74,108
23280,note_on,2,0,2,,,,,,,,,6,,,52,108
23326,note_on,46,0,1,,,,,,,,,5,,,74,0
23326,note_on,46,0,2,,,,,,,,,6,,,52,0
23328,note_on,2,0,2,,,,,,,,,6,,,57,108
23328,note_on,2,0,1,,,,,,,,,5,,,76,108
23374,note_on,46,0,2,,,,,,,,,6,,,57,0
23374,note_on,46,0,1,,,,,,,,,5,,,76,0
23376,note_on,2,0,2,,,,,,,,,6,,,52,108
23376,note_on,2,0,1,,,,,,,,,5,,,74,108
23422,note_on,46,0,1,,,,,,,,,5,,,74,0
23422,note_on,46,0,2,,,,,,,,,6,,,52,0
23424,note_on,0,0,1,,,,,,,,,5,,,73,108
23424,note_on,2,0,1,,,,,,,,,5,,,69,108
23424,note_on,0,0,2,,,,,,,,,6,,,57,108
23424,note_on,0,0,2,,,,,,,,,6,,,52,108
23424,note_on,2,0,2,,,,,,,,,6,,,45,108
23424,note_on,0,0,1,,,,,,,,,5,,,76,108
23518,note_on,4702,0,6,,,,,,,,,3,,,45,0
23518,note_on,94,0,2,,,,,,,,,6,,,45,0
23518,note_on,0,0,2,,,,,,,,,6,,,52,0
23518,note_on,0,0,2,,,,,,,,,6,,,57,0
23520,note_on,2,0,6,,,,,,,,,3,,,45,60
23520,note_on,2,0,2,,,,,,,,,6,,,45,108
23566,note_on,46,0,2,,,,,,,,,6,,,45,0
23566,note_on,46,0,6,,,,,,,,,3,,,45,0
23568,note_on,2,0,2,,,,,,,,,6,,,47,108
23568,note_on,2,0,6,,,,,,,,,3,,,47,60
23584,note_on,0,0,1,,,,,,,,,5,,,76,0
23584,note_on,160,0,1,,,,,,,,,5,,,69,0
23584,note_on,0,0,1,,,,,,,,,5,,,73,0
23614,note_on,46,0,2,,,,,,,,,6,,,47,0
23614,note_on,46,0,6,,,,,,,,,3,,,47,0
23616,note_on,2,0,6,,,,,,,,,3,,,49,60
23616,note_on,2,0,2,,,,,,,,,6,,,49,108
23664,note_on,80,0,1,,,,,,,,,5,,,69,108
23710,note_on,94,0,2,,,,,,,,,6,,,49,0
23710,note_on,46,0,1,,,,,,,,,5,,,69,0
23710,note_on,94,0,6,,,,,,,,,3,,,49,0
23712,note_on,2,0,6,,,,,,,,,3,,,47,60
23712,note_on,2,0,2,,,,,,,,,6,,,47,108
23712,note_on,2,0,1,,,,,,,,,5,,,73,108
23758,note_on,46,0,1,,,,,,,,,5,,,73,0
23760,note_on,2,0,1,,,,,,,,,5,,,76,108
23806,note_on,94,0,6,,,,,,,,,3,,,47,0
23806,note_on,46,0,1,,,,,,,,,5,,,76,0
23806,note_on,94,0,2,,,,,,,,,6,,,47,0
23808,note_on,2,0,2,,,,,,,,,6,,,45,92
23808,note_on,0,0,4,,,,,,,,,1,,,76,45
23808,note_on,0,0,3,,,,,,,,,0,,,81,45
23808,note_on,2,0,6,,,,,,,,,3,,,45,60
23808,control_change,14594,0,4,,,,,,,,,1,10,0,,
23808,control_change,23808,0,5,,,,,,,,,2,10,0,,
23808,note_on,0,0,5,,,,,,,,,2,,,73,45
23808,control_change,4832,0,3,,,,,,,,,0,10,0,,
23808,note_on,2,0,1,,,,,,,,,5,,,69,108
23854,note_on,46,0,1,,,,,,,,,5,,,69,0
23854,note_on,46,0,2,,,,,,,,,6,,,45,0
23856,note_on,2,0,1,,,,,,,,,5,,,71,108
23856,note_on,2,0,2,,,,,,,,,6,,,57,92
23902,note_on,94,0,3,,,,,,,,,0,,,81,0
23902,note_on,46,0,2,,,,,,,,,6,,,57,0
23902,note_on,94,0,4,,,,,,,,,1,,,76,0
23902,note_on,46,0,1,,,,,,,,,5,,,71,0
23902,note_on,94,0,5,,,,,,,,,2,,,73,0
23904,note_on,2,0,3,,,,,,,,,0,,,81,45
23904,note_on,2,0,4,,,,,,,,,1,,,76,45
23904,note_on,2,0,2,,,,,,,,,6,,,45,92
23904,note_on,2,0,1,,,,,,,,,5,,,73,108
23904,note_on,2,0,5,,,,,,,,,2,,,73,45
23950,note_on,46,0,2,,,,,,,,,6,,,45,0
23950,note_on,46,0,1,,,,,,,,,5,,,73,0
23952,note_on,2,0,2,,,,,,,,,6,,,57,92
23952,note_on,2,0,1,,,,,,,,,5,,,71,108
23968,note_on,160,0,6,,,,,,,,,3,,,45,0
23998,note_on,46,0,1,,,,,,,,,5,,,71,0
23998,note_on,46,0,2,,,,,,,,,6,,,57,0
23998,note_on,94,0,3,,,,,,,,,0,,,81,0
23998,note_on,94,0,4,,,,,,,,,1,,,76,0
23998,note_on,94,0,5,,,,,,,,,2,,,73,0
24000,note_on,2,0,1,,,,,,,,,5,,,69,108
24000,note_on,2,0,5,,,,,,,,,2,,,73,45
24000,note_on,2,0,2,,,,,,,,,6,,,45,92
24000,note_on,2,0,4,,,,,,,,,1,,,76,45
24000,note_on,2,0,3,,,,,,,,,0,,,81,45
24046,note_on,46,0,1,,,,,,,,,5,,,69,0
24048,note_on,2,0,1,,,,,,,,,5,,,64,108
24094,note_on,94,0,5,,,,,,,,,2,,,73,0
24094,note_on,94,0,3,,,,,,,,,0,,,81,0
24094,note_on,46,0,1,,,,,,,,,5,,,64,0
24094,note_on,94,0,4,,,,,,,,,1,,,76,0
24096,note_on,2,0,4,,,,,,,,,1,,,73,45
24096,note_on,2,0,5,,,,,,,,,2,,,73,45
24096,note_on,2,0,1,,,,,,,,,5,,,69,108
24096,note_on,2,0,3,,,,,,,,,0,,,81,45
24142,note_on,46,0,1,,,,,,,,,5,,,69,0
24144,note_on,2,0,1,,,,,,,,,5,,,73,108
24160,note_on,160,0,2,,,,,,,,,6,,,45,0
24190,note_on,94,0,5,,,,,,,,,2,,,73,0
24190,note_on,94,0,4,,,,,,,,,1,,,73,0
24190,note_on,46,0,1,,,,,,,,,5,,,73,0
24190,note_on,94,0,3,,,,,,,,,0,,,81,0
24192,note_on,2,0,5,,,,,,,,,2,,,66,45
24192,note_on,2,0,4,,,,,,,,,1,,,69,45
24192,note_on,2,0,3,,,,,,,,,0,,,74,45
24192,note_on,2,0,1,,,,,,,,,5,,,62,108
24238,note_on,46,0,1,,,,,,,,,5,,,62,0
24240,note_on,80,0,2,,,,,,,,,6,,,50,92
24240,note_on,2,0,1,,,,,,,,,5,,,64,108
24286,note_on,94,0,3,,,,,,,,,0,,,74,0
24286,note_on,94,0,4,,,,,,,,,1,,,69,0
24286,note_on,46,0,2,,,,,,,,,6,,,50,0
24286,note_on,94,0,5,,,,,,,,,2,,,66,0
24286,note_on,46,0,1,,,,,,,,,5,,,64,0
24288,note_on,2,0,1,,,,,,,,,5,,,66,108
24288,note_on,2,0,3,,,,,,,,,0,,,74,45
24288,note_on,2,0,4,,,,,,,,,1,,,69,45
24288,note_on,2,0,2,,,,,,,,,6,,,62,92
24288,note_on,2,0,5,,,,,,,,,2,,,66,45
24334,note_on,46,0,1,,,,,,,,,5,,,66,0
24334,note_on,46,0,2,,,,,,,,,6,,,62,0
24336,note_on,2,0,1,,,,,,,,,5,,,64,108
24336,note_on,2,0,2,,,,,,,,,6,,,50,92
24382,note_on,46,0,2,,,,,,,,,6,,,50,0
24382,note_on,46,0,1,,,,,,,,,5,,,64,0
24382,note_on,94,0,5,,,,,,,,,2,,,66,0
24382,note_on,94,0,4,,,,,,,,,1,,,69,0
24382,note_on,94,0,3,,,,,,,,,0,,,74,0
24384,note_on,2,0,2,,,,,,,,,6,,,54,92
24384,note_on,2,0,5,,,,,,,,,2,,,66,45
24384,note_on,2,0,1,,,,,,,,,5,,,62,108
24384,note_on,2,0,4,,,,,,,,,1,,,69,45
24384,note_on,2,0,3,,,,,,,,,0,,,74,45
24430,note_on,46,0,1,,,,,,,,,5,,,62,0
24432,note_on,2,0,1,,,,,,,,,5,,,57,108
24478,note_on,94,0,5,,,,,,,,,2,,,66,0
24478,note_on,94,0,3,,,,,,,,,0,,,74,0
24478,note_on,46,0,1,,,,,,,,,5,,,57,0
24478,note_on,94,0,4,,,,,,,,,1,,,69,0
24480,note_on,2,0,4,,,,,,,,,1,,,66,45
24480,note_on,2,0,1,,,,,,,,,5,,,62,108
24480,note_on,2,0,3,,,,,,,,,0,,,74,45
24480,note_on,2,0,5,,,,,,,,,2,,,66,45
24526,note_on,46,0,1,,,,,,,,,5,,,62,0
24528,note_on,2,0,1,,,,,,,,,5,,,66,108
24544,note_on,160,0,2,,,,,,,,,6,,,54,0
24574,note_on,94,0,3,,,,,,,,,0,,,74,0
24574,note_on,46,0,1,,,,,,,,,5,,,66,0
24574,note_on,94,0,5,,,,,,,,,2,,,66,0
24574,note_on,94,0,4,,,,,,,,,1,,,66,0
24576,note_on,2,0,4,,,,,,,,,1,,,78,45
24576,note_on,2,0,1,,,,,,,,,5,,,71,108
24576,note_on,2,0,5,,,,,,,,,2,,,74,45
24576,note_on,2,0,3,,,,,,,,,0,,,83,45
24622,note_on,46,0,1,,,,,,,,,5,,,71,0
24624,note_on,80,0,2,,,,,,,,,6,,,59,92
24624,note_on,2,0,1,,,,,,,,,5,,,73,108
24670,note_on,46,0,1,,,,,,,,,5,,,73,0
24670,note_on,46,0,2,,,,,,,,,6,,,59,0
24670,note_on,94,0,5,,,,,,,,,2,,,74,0
24670,note_on,94,0,4,,,,,,,,,1,,,78,0
24670,note_on,94,0,3,,,,,,,,,0,,,83,0
24672,note_on,2,0,5,,,,,,,,,2,,,74,45
24672,note_on,2,0,2,,,,,,,,,6,,,47,92
24672,note_on,2,0,3,,,,,,,,,0,,,83,45
24672,note_on,2,0,4,,,,,,,,,1,,,78,45
24672,note_on,2,0,1,,,,,,,,,5,,,74,108
24718,note_on,46,0,1,,,,,,,,,5,,,74,0
24718,note_on,46,0,2,,,,,,,,,6,,,47,0
24720,note_on,2,0,1,,,,,,,,,5,,,73,108
24720,note_on,2,0,2,,,,,,,,,6,,,59,92
24766,note_on,94,0,5,,,,,,,,,2,,,74,0
24766,note_on,94,0,3,,,,,,,,,0,,,83,0
24766,note_on,46,0,1,,,,,,,,,5,,,73,0
24766,note_on,94,0,4,,,,,,,,,1,,,78,0
24766,note_on,46,0,2,,,,,,,,,6,,,59,0
24768,note_on,2,0,5,,,,,,,,,2,,,74,45
24768,note_on,2,0,4,,,,,,,,,1,,,78,45
24768,note_on,2,0,2,,,,,,,,,6,,,50,92
24768,note_on,2,0,3,,,,,,,,,0,,,83,45
24768,note_on,2,0,1,,,,,,,,,5,,,71,108
24814,note_on,46,0,1,,,,,,,,,5,,,71,0
24816,note_on,2,0,1,,,,,,,,,5,,,66,108
24862,note_on,46,0,1,,,,,,,,,5,,,66,0
24862,note_on,94,0,4,,,,,,,,,1,,,78,0
24862,note_on,94,0,5,,,,,,,,,2,,,74,0
24862,note_on,94,0,3,,,,,,,,,0,,,83,0
24864,note_on,2,0,1,,,,,,,,,5,,,71,108
24864,note_on,2,0,4,,,,,,,,,1,,,74,45
24864,note_on,2,0,5,,,,,,,,,2,,,74,45
24864,note_on,2,0,3,,,,,,,,,0,,,83,45
24910,note_on,46,0,1,,,,,,,,,5,,,71,0
24912,note_on,2,0,1,,,,,,,,,5,,,74,108
24928,note_on,160,0,2,,,,,,,,,6,,,50,0
24958,note_on,94,0,3,,,,,,,,,0,,,83,0
24958,note_on,94,0,5,,,,,,,,,2,,,74,0
24958,note_on,46,0,1,,,,,,,,,5,,,74,0
24958,note_on,94,0,4,,,,,,,,,1,,,74,0
24960,note_on,2,0,3,,,,,,,,,0,,,76,45
24960,note_on,2,0,5,,,,,,,,,2,,,68,45
24960,note_on,2,0,1,,,,,,,,,5,,,64,108
24960,note_on,2,0,4,,,,,,,,,1,,,71,45
25006,note_on,46,0,1,,,,,,,,,5,,,64,0
25008,note_on,80,0,2,,,,,,,,,6,,,52,92
25008,note_on,2,0,1,,,,,,,,,5,,,66,108
25054,note_on,94,0,3,,,,,,,,,0,,,76,0
25054,note_on,94,0,5,,,,,,,,,2,,,68,0
25054,note_on,94,0,4,,,,,,,,,1,,,71,0
25054,note_on,46,0,2,,,,,,,,,6,,,52,0
25054,note_on,46,0,1,,,,,,,,,5,,,66,0
25056,note_on,2,0,2,,,,,,,,,6,,,64,92
25056,note_on,2,0,1,,,,,,,,,5,,,68,108
25056,note_on,2,0,5,,,,,,,,,2,,,68,45
25056,note_on,2,0,3,,,,,,,,,0,,,76,45
25056,note_on,2,0,4,,,,,,,,,1,,,71,45
25102,note_on,46,0,2,,,,,,,,,6,,,64,0
25102,note_on,46,0,1,,,,,,,,,5,,,68,0
25104,note_on,2,0,2,,,,,,,,,6,,,52,92
25104,note_on,2,0,1,,,,,,,,,5,,,66,108
25150,note_on,94,0,5,,,,,,,,,2,,,68,0
25150,note_on,46,0,1,,,,,,,,,5,,,66,0
25150,note_on,94,0,4,,,,,,,,,1,,,71,0
25150,note_on,46,0,2,,,,,,,,,6,,,52,0
25150,note_on,94,0,3,,,,,,,,,0,,,76,0
25152,note_on,2,0,3,,,,,,,,,0,,,76,45
25152,note_on,2,0,4,,,,,,,,,1,,,71,45
25152,note_on,2,0,2,,,,,,,,,6,,,56,92
25152,note_on,2,0,5,,,,,,,,,2,,,68,45
25152,note_on,2,0,1,,,,,,,,,5,,,64,108
25198,note_on,46,0,1,,,,,,,,,5,,,64,0
25200,note_on,2,0,1,,,,,,,,,5,,,59,108
25246,note_on,94,0,5,,,,,,,,,2,,,68,0
25246,note_on,46,0,1,,,,,,,,,5,,,59,0
25246,note_on,94,0,4,,,,,,,,,1,,,71,0
25246,note_on,94,0,3,,,,,,,,,0,,,76,0
25248,note_on,2,0,5,,,,,,,,,2,,,68,45
25248,note_on,2,0,1,,,,,,,,,5,,,64,108
25248,note_on,2,0,4,,,,,,,,,1,,,68,45
25248,note_on,2,0,3,,,,,,,,,0,,,76,45
25294,note_on,46,0,1,,,,,,,,,5,,,64,0
25296,note_on,2,0,1,,,,,,,,,5,,,68,108
25312,note_on,160,0,2,,,,,,,,,6,,,56,0
25342,note_on,94,0,3,,,,,,,,,0,,,76,0
25342,note_on,46,0,1,,,,,,,,,5,,,68,0
25342,note_on,94,0,4,,,,,,,,,1,,,68,0
25342,note_on,94,0,5,,,,,,,,,2,,,68,0
25344,note_on,2,0,1,,,,,,,,,5,,,73,108
25344,note_on,2,0,3,,,,,,,,,0,,,85,45
25344,note_on,2,0,5,,,,,,,,,2,,,76,45
25344,note_on,2,0,4,,,,,,,,,1,,,80,45
25390,note_on,46,0,1,,,,,,,,,5,,,73,0
25392,note_on,80,0,2,,,,,,,,,6,,,61,92
25392,note_on,2,0,1,,,,,,,,,5,,,74,108
25438,note_on,94,0,5,,,,,,,,,2,,,76,0
25438,note_on,46,0,1,,,,,,,,,5,,,74,0
25438,note_on,46,0,2,,,,,,,,,6,,,61,0
25438,note_on,94,0,4,,,,,,,,,1,,,80,0
25438,note_on,94,0,3,,,,,,,,,0,,,85,0
25440,note_on,2,0,1,,,,,,,,,5,,,76,108
25440,note_on,2,0,2,,,,,,,,,6,,,49,92
25440,note_on,2,0,3,,,,,,,,,0,,,85,45
25440,note_on,2,0,4,,,,,,,,,1,,,80,45
25440,note_on,2,0,5,,,,,,,,,2,,,76,45
25486,note_on,46,0,2,,,,,,,,,6,,,49,0
25486,note_on,46,0,1,,,,,,,,,5,,,76,0
25488,note_on,2,0,2,,,,,,,,,6,,,61,92
25488,note_on,2,0,1,,,,,,,,,5,,,74,108
25534,note_on,94,0,5,,,,,,,,,2,,,76,0
25534,note_on,46,0,1,,,,,,,,,5,,,74,0
25534,note_on,94,0,4,,,,,,,,,1,,,80,0
25534,note_on,46,0,2,,,,,,,,,6,,,61,0
25534,note_on,94,0,3,,,,,,,,,0,,,85,0
25536,note_on,2,0,3,,,,,,,,,0,,,85,45
25536,note_on,2,0,2,,,,,,,,,6,,,52,92
25536,note_on,2,0,5,,,,,,,,,2,,,76,45
25536,note_on,2,0,1,,,,,,,,,5,,,73,108
25536,note_on,2,0,4,,,,,,,,,1,,,80,45
25582,note_on,46,0,1,,,,,,,,,5,,,73,0
25584,note_on,2,0,1,,,,,,,,,5,,,68,108
25630,note_on,94,0,5,,,,,,,,,2,,,76,0
25630,note_on,94,0,3,,,,,,,,,0,,,85,0
25630,note_on,46,0,1,,,,,,,,,5,,,68,0
25630,note_on,94,0,4,,,,,,,,,1,,,80,0
25632,note_on,2,0,3,,,,,,,,,0,,,85,45
25632,note_on,2,0,5,,,,,,,,,2,,,76,45
25632,note_on,2,0,1,,,,,,,,,5,,,73,108
25632,note_on,2,0,4,,,,,,,,,1,,,76,45
25678,note_on,46,0,1,,,,,,,,,5,,,73,0
25680,note_on,2,0,1,,,,,,,,,5,,,76,108
25696,note_on,160,0,2,,,,,,,,,6,,,52,0
25726,note_on,46,0,1,,,,,,,,,5,,,76,0
25726,note_on,94,0,3,,,,,,,,,0,,,85,0
25726,note_on,94,0,5,,,,,,,,,2,,,76,0
25726,note_on,94,0,4,,,,,,,,,1,,,76,0
25728,note_on,2,0,1,,,,,,,,,5,,,66,108
25728,note_on,2,0,5,,,,,,,,,2,,,69,45
25728,note_on,2,0,4,,,,,,,,,1,,,73,45
25728,note_on,2,0,3,,,,,,,,,0,,,78,45
25774,note_on,46,0,1,,,,,,,,,5,,,66,0
25776,note_on,2,0,1,,,,,,,,,5,,,68,108
25776,note_on,80,0,2,,,,,,,,,6,,,54,92
25822,note_on,94,0,5,,,,,,,,,2,,,69,0
25822,note_on,94,0,3,,,,,,,,,0,,,78,0
25822,note_on,94,0,4,,,,,,,,,1,,,73,0
25822,note_on,46,0,2,,,,,,,,,6,,,54,0
25822,note_on,46,0,1,,,,,,,,,5,,,68,0
25824,note_on,2,0,3,,,,,,,,,0,,,78,45
25824,note_on,2,0,5,,,,,,,,,2,,,69,45
25824,note_on,2,0,2,,,,,,,,,6,,,66,92
25824,note_on,2,0,4,,,,,,,,,1,,,73,45
25824,note_on,2,0,1,,,,,,,,,5,,,69,108
25870,note_on,46,0,1,,,,,,,,,5,,,69,0
25870,note_on,46,0,2,,,,,,,,,6,,,66,0
25872,note_on,2,0,1,,,,,,,,,5,,,68,108
25872,note_on,2,0,2,,,,,,,,,6,,,54,92
25918,note_on,94,0,4,,,,,,,,,1,,,73,0
25918,note_on,46,0,1,,,,,,,,,5,,,68,0
25918,note_on,94,0,3,,,,,,,,,0,,,78,0
25918,note_on,94,0,5,,,,,,,,,2,,,69,0
25918,note_on,46,0,2,,,,,,,,,6,,,54,0
25920,note_on,2,0,4,,,,,,,,,1,,,73,45
25920,note_on,2,0,2,,,,,,,,,6,,,57,92
25920,note_on,2,0,1,,,,,,,,,5,,,66,108
25920,note_on,2,0,5,,,,,,,,,2,,,69,45
25920,note_on,2,0,3,,,,,,,,,0,,,78,45
25966,note_on,46,0,1,,,,,,,,,5,,,66,0
25968,note_on,2,0,1,,,,,,,,,5,,,61,108
26014,note_on,46,0,1,,,,,,,,,5,,,61,0
26014,note_on,94,0,5,,,,,,,,,2,,,69,0
26014,note_on,94,0,4,,,,,,,,,1,,,73,0
26014,note_on,94,0,3,,,,,,,,,0,,,78,0
26016,note_on,2,0,4,,,,,,,,,1,,,69,45
26016,note_on,2,0,5,,,,,,,,,2,,,69,45
26016,note_on,2,0,1,,,,,,,,,5,,,66,108
26016,note_on,2,0,3,,,,,,,,,0,,,78,45
26062,note_on,46,0,1,,,,,,,,,5,,,66,0
26064,note_on,2,0,1,,,,,,,,,5,,,69,108
26080,note_on,160,0,2,,,,,,,,,6,,,57,0
26110,note_on,94,0,5,,,,,,,,,2,,,69,0
26110,note_on,46,0,1,,,,,,,,,5,,,69,0
26110,note_on,94,0,4,,,,,,,,,1,,,69,0
26110,note_on,94,0,3,,,,,,,,,0,,,78,0
26112,note_on,2,0,5,,,,,,,,,2,,,66,45
26112,note_on,2,0,4,,,,,,,,,1,,,81,45
26112,note_on,2,0,1,,,,,,,,,5,,,74,108
26112,note_on,2,0,3,,,,,,,,,0,,,86,45
26158,note_on,46,0,1,,,,,,,,,5,,,74,0
26160,note_on,2,0,1,,,,,,,,,5,,,76,108
26160,note_on,80,0,2,,,,,,,,,6,,,62,92
26206,note_on,94,0,4,,,,,,,,,1,,,81,0
26206,note_on,94,0,5,,,,,,,,,2,,,66,0
26206,note_on,46,0,1,,,,,,,,,5,,,76,0
26206,note_on,46,0,2,,,,,,,,,6,,,62,0
26206,note_on,94,0,3,,,,,,,,,0,,,86,0
26208,note_on,2,0,3,,,,,,,,,0,,,86,45
26208,note_on,2,0,4,,,,,,,,,1,,,81,45
26208,note_on,2,0,2,,,,,,,,,6,,,50,92
26208,note_on,2,0,1,,,,,,,,,5,,,78,108
26208,note_on,2,0,5,,,,,,,,,2,,,66,45
26254,note_on,46,0,2,,,,,,,,,6,,,50,0
26254,note_on,46,0,1,,,,,,,,,5,,,78,0
26256,note_on,2,0,1,,,,,,,,,5,,,76,108
26256,note_on,2,0,2,,,,,,,,,6,,,62,92
26302,note_on,46,0,1,,,,,,,,,5,,,76,0
26302,note_on,94,0,5,,,,,,,,,2,,,66,0
26302,note_on,94,0,4,,,,,,,,,1,,,81,0
26302,note_on,94,0,3,,,,,,,,,0,,,86,0
26302,note_on,46,0,2,,,,,,,,,6,,,62,0
26304,note_on,2,0,4,,,,,,,,,1,,,81,45
26304,note_on,2,0,5,,,,,,,,,2,,,66,45
26304,note_on,2,0,2,,,,,,,,,6,,,54,92
26304,note_on,2,0,1,,,,,,,,,5,,,74,108
26304,note_on,2,0,3,,,,,,,,,0,,,86,45
26350,note_on,46,0,1,,,,,,,,,5,,,74,0
26352,note_on,2,0,1,,,,,,,,,5,,,69,108
26398,note_on,46,0,1,,,,,,,,,5,,,69,0
26398,note_on,94,0,3,,,,,,,,,0,,,86,0
26398,note_on,94,0,4,,,,,,,,,1,,,81,0
26398,note_on,94,0,5,,,,,,,,,2,,,66,0
26400,note_on,2,0,4,,,,,,,,,1,,,78,45
26400,note_on,2,0,1,,,,,,,,,5,,,74,108
26400,note_on,2,0,5,,,,,,,,,2,,,66,45
26400,note_on,2,0,3,,,,,,,,,0,,,86,45
26446,note_on,46,0,1,,,,,,,,,5,,,74,0
26448,note_on,2,0,1,,,,,,,,,5,,,78,108
26464,note_on,160,0,2,,,,,,,,,6,,,54,0
26494,note_on,94,0,5,,,,,,,,,2,,,66,0
26494,note_on,94,0,4,,,,,,,,,1,,,78,0
26494,note_on,94,0,3,,,,,,,,,0,,,86,0
26494,note_on,46,0,1,,,,,,,,,5,,,78,0
26496,note_on,2,0,4,,,,,,,,,1,,,83,45
26496,note_on,2,0,3,,,,,,,,,0,,,86,45
26496,note_on,2,0,1,,,,,,,,,5,,,76,108
26496,note_on,2,0,5,,,,,,,,,2,,,68,45
26542,note_on,46,0,1,,,,,,,,,5,,,76,0
26544,note_on,80,0,2,,,,,,,,,6,,,64,92
26544,note_on,2,0,1,,,,,,,,,5,,,78,108
26590,note_on,46,0,2,,,,,,,,,6,,,64,0
26590,note_on,94,0,4,,,,,,,,,1,,,83,0
26590,note_on,94,0,5,,,,,,,,,2,,,68,0
26590,note_on,94,0,3,,,,,,,,,0,,,86,0
26590,note_on,46,0,1,,,,,,,,,5,,,78,0
26592,note_on,2,0,4,,,,,,,,,1,,,83,45
26592,note_on,2,0,5,,,,,,,,,2,,,68,45
26592,note_on,2,0,3,,,,,,,,,0,,,86,45
26592,note_on,2,0,1,,,,,,,,,5,,,80,108
26592,note_on,2,0,2,,,,,,,,,6,,,52,92
26638,note_on,46,0,2,,,,,,,,,6,,,52,0
26638,note_on,46,0,1,,,,,,,,,5,,,80,0
26640,note_on,2,0,1,,,,,,,,,5,,,78,108
26640,note_on,2,0,2,,,,,,,,,6,,,64,92
26686,note_on,94,0,4,,,,,,,,,1,,,83,0
26686,note_on,46,0,2,,,,,,,,,6,,,64,0
26686,note_on,94,0,5,,,,,,,,,2,,,68,0
26686,note_on,46,0,1,,,,,,,,,5,,,78,0
26686,note_on,94,0,3,,,,,,,,,0,,,86,0
26688,note_on,2,0,1,,,,,,,,,5,,,76,108
26688,note_on,2,0,2,,,,,,,,,6,,,52,92
26688,note_on,2,0,4,,,,,,,,,1,,,83,45
26688,note_on,2,0,5,,,,,,,,,2,,,68,45
26688,note_on,2,0,3,,,,,,,,,0,,,86,45
26734,note_on,46,0,1,,,,,,,,,5,,,76,0
26736,note_on,2,0,1,,,,,,,,,5,,,71,108
26782,note_on,94,0,3,,,,,,,,,0,,,86,0
26782,note_on,94,0,5,,,,,,,,,2,,,68,0
26782,note_on,46,0,1,,,,,,,,,5,,,71,0
26782,note_on,94,0,4,,,,,,,,,1,,,83,0
26784,note_on,2,0,3,,,,,,,,,0,,,86,45
26784,note_on,2,0,4,,,,,,,,,1,,,80,45
26784,note_on,2,0,1,,,,,,,,,5,,,76,108
26784,note_on,2,0,5,,,,,,,,,2,,,64,45
26830,note_on,46,0,1,,,,,,,,,5,,,76,0
26832,note_on,2,0,1,,,,,,,,,5,,,80,108
26848,note_on,160,0,2,,,,,,,,,6,,,52,0
26878,note_on,94,0,4,,,,,,,,,1,,,80,0
26878,note_on,46,0,1,,,,,,,,,5,,,80,0
26878,note_on,94,0,3,,,,,,,,,0,,,86,0
26878,note_on,94,0,5,,,,,,,,,2,,,64,0
26880,note_on,32,0,2,,,,,,,,,6,,,61,92
26880,note_on,2912,0,6,,,,,,,,,3,,,57,45
26880,note_on,2,0,5,,,,,,,,,2,,,69,45
26880,note_on,2,0,3,,,,,,,,,0,,,85,45
26880,note_on,2,0,1,,,,,,,,,5,,,81,108
26880,note_on,2,0,4,,,,,,,,,1,,,76,45
26926,note_on,46,0,2,,,,,,,,,6,,,61,0
26928,note_on,2,0,2,,,,,,,,,6,,,57,92
26974,note_on,94,0,1,,,,,,,,,5,,,81,0
26974,note_on,46,0,2,,,,,,,,,6,,,57,0
26976,note_on,2,0,1,,,,,,,,,5,,,73,108
26976,note_on,0,0,1,,,,,,,,,5,,,81,108
26976,note_on,2,0,2,,,,,,,,,6,,,56,92
27008,note_on,0,0,1,,,,,,,,,5,,,81,0
27008,note_on,32,0,1,,,,,,,,,5,,,73,0
27022,note_on,46,0,2,,,,,,,,,6,,,56,0
27024,note_on,2,0,2,,,,,,,,,6,,,57,92
27040,note_on,160,0,4,,,,,,,,,1,,,76,0
27040,note_on,160,0,5,,,,,,,,,2,,,69,0
27040,note_on,160,0,3,,,,,,,,,0,,,85,0
27040,note_on,160,0,6,,,,,,,,,3,,,57,0
27070,note_on,46,0,2,,,,,,,,,6,,,57,0
27072,note_on,0,0,1,,,,,,,,,5,,,81,108
27072,note_on,64,0,1,,,,,,,,,5,,,73,108
27072,note_on,2,0,2,,,,,,,,,6,,,61,92
27072,note_on,32,0,6,,,,,,,,,3,,,57,45
27104,note_on,0,0,1,,,,,,,,,5,,,81,0
27104,note_on,32,0,1,,,,,,,,,5,,,73,0
27118,note_on,46,0,2,,,,,,,,,6,,,61,0
27120,note_on,2,0,2,,,,,,,,,6,,,57,92
27166,note_on,46,0,2,,,,,,,,,6,,,57,0
27168,note_on,64,0,1,,,,,,,,,5,,,73,108
27168,note_on,0,0,1,,,,,,,,,5,,,81,108
27168,note_on,2,0,2,,,,,,,,,6,,,56,92
27200,note_on,32,0,1,,,,,,,,,5,,,73,0
27200,note_on,0,0,1,,,,,,,,,5,,,81,0
27214,note_on,46,0,2,,,,,,,,,6,,,56,0
27216,note_on,2,0,2,,,,,,,,,6,,,57,92
27232,note_on,160,0,6,,,,,,,,,3,,,57,0
27262,note_on,46,0,2,,,,,,,,,6,,,57,0
27264,note_on,2,0,2,,,,,,,,,6,,,62,92
27264,note_on,0,0,1,,,,,,,,,5,,,81,108
27264,note_on,32,0,6,,,,,,,,,3,,,62,45
27264,note_on,64,0,1,,,,,,,,,5,,,71,108
27264,note_on,0,0,1,,,,,,,,,5,,,78,108
27310,note_on,46,0,2,,,,,,,,,6,,,62,0
27312,note_on,2,0,2,,,,,,,,,6,,,61,92
27358,note_on,46,0,2,,,,,,,,,6,,,61,0
27360,note_on,2,0,2,,,,,,,,,6,,,62,92
27406,note_on,46,0,2,,,,,,,,,6,,,62,0
27408,note_on,2,0,2,,,,,,,,,6,,,59,92
27424,note_on,160,0,6,,,,,,,,,3,,,62,0
27424,note_on,0,0,1,,,,,,,,,5,,,81,0
27424,note_on,160,0,1,,,,,,,,,5,,,71,0
27424,note_on,0,0,1,,,,,,,,,5,,,78,0
27454,note_on,46,0,2,,,,,,,,,6,,,59,0
27456,note_on,2,0,2,,,,,,,,,6,,,64,92
27456,note_on,32,0,6,,,,,,,,,3,,,64,45
27456,note_on,32,0,1,,,,,,,,,5,,,71,108
27456,note_on,0,0,1,,,,,,,,,5,,,80,108
27502,note_on,46,0,2,,,,,,,,,6,,,64,0
27504,note_on,2,0,2,,,,,,,,,6,,,62,92
27550,note_on,46,0,2,,,,,,,,,6,,,62,0
27552,note_on,2,0,2,,,,,,,,,6,,,64,92
27598,note_on,46,0,2,,,,,,,,,6,,,64,0
27600,note_on,2,0,2,,,,,,,,,6,,,52,92
27616,note_on,160,0,6,,,,,,,,,3,,,64,0
27616,note_on,0,0,1,,,,,,,,,5,,,80,0
27616,note_on,160,0,1,,,,,,,,,5,,,71,0
27646,note_on,46,0,2,,,,,,,,,6,,,52,0
27648,note_on,32,0,6,,,,,,,,,3,,,56,45
27648,note_on,2,0,2,,,,,,,,,6,,,59,92
27694,note_on,46,0,2,,,,,,,,,6,,,59,0
27696,note_on,2,0,2,,,,,,,,,6,,,56,92
27742,note_on,46,0,2,,,,,,,,,6,,,56,0
27744,note_on,2,0,2,,,,,,,,,6,,,54,92
27744,note_on,128,0,1,,,,,,,,,5,,,71,108
27744,note_on,0,0,1,,,,,,,,,5,,,80,108
27776,note_on,32,0,1,,,,,,,,,5,,,71,0
27776,note_on,0,0,1,,,,,,,,,5,,,80,0
27790,note_on,46,0,2,,,,,,,,,6,,,54,0
27792,note_on,2,0,2,,,,,,,,,6,,,56,92
27808,note_on,160,0,6,,,,,,,,,3,,,56,0
27838,note_on,46,0,2,,,,,,,,,6,,,56,0
27840,note_on,64,0,1,,,,,,,,,5,,,71,108
27840,note_on,0,0,1,,,,,,,,,5,,,80,108
27840,note_on,32,0,6,,,,,,,,,3,,,56,45
27840,note_on,2,0,2,,,,,,,,,6,,,59,92
27872,note_on,0,0,1,,,,,,,,,5,,,80,0
27872,note_on,32,0,1,,,,,,,,,5,,,71,0
27886,note_on,46,0,2,,,,,,,,,6,,,59,0
27888,note_on,2,0,2,,,,,,,,,6,,,56,92
27934,note_on,46,0,2,,,,,,,,,6,,,56,0
27936,note_on,0,0,1,,,,,,,,,5,,,80,108
27936,note_on,64,0,1,,,,,,,,,5,,,71,108
27936,note_on,2,0,2,,,,,,,,,6,,,54,92
27968,note_on,0,0,1,,,,,,,,,5,,,80,0
27968,note_on,32,0,1,,,,,,,,,5,,,71,0
27982,note_on,46,0,2,,,,,,,,,6,,,54,0
27984,note_on,2,0,2,,,,,,,,,6,,,56,92
28000,note_on,160,0,6,,,,,,,,,3,,,56,0
28030,note_on,46,0,2,,,,,,,,,6,,,56,0
28032,note_on,64,0,1,,,,,,,,,5,,,69,108
28032,note_on,0,0,1,,,,,,,,,5,,,76,108
28032,note_on,0,0,1,,,,,,,,,5,,,80,108
28032,note_on,32,0,6,,,,,,,,,3,,,61,45
28032,note_on,2,0,2,,,,,,,,,6,,,61,92
28078,note_on,46,0,2,,,,,,,,,6,,,61,0
28080,note_on,2,0,2,,,,,,,,,6,,,59,92
28126,note_on,46,0,2,,,,,,,,,6,,,59,0
28128,note_on,2,0,2,,,,,,,,,6,,,61,92
28174,note_on,46,0,2,,,,,,,,,6,,,61,0
28176,note_on,2,0,2,,,,,,,,,6,,,57,92
28192,note_on,160,0,6,,,,,,,,,3,,,61,0
28192,note_on,0,0,1,,,,,,,,,5,,,80,0
28192,note_on,0,0,1,,,,,,,,,5,,,76,0
28192,note_on,160,0,1,,,,,,,,,5,,,69,0
28222,note_on,46,0,2,,,,,,,,,6,,,57,0
28224,note_on,0,0,1,,,,,,,,,5,,,78,108
28224,note_on,32,0,6,,,,,,,,,3,,,62,45
28224,note_on,32,0,1,,,,,,,,,5,,,69,108
28224,note_on,2,0,2,,,,,,,,,6,,,62,92
28270,note_on,46,0,2,,,,,,,,,6,,,62,0
28272,note_on,2,0,2,,,,,,,,,6,,,61,92
28318,note_on,46,0,2,,,,,,,,,6,,,61,0
28320,note_on,2,0,2,,,,,,,,,6,,,62,92
28366,note_on,46,0,2,,,,,,,,,6,,,62,0
28368,note_on,2,0,2,,,,,,,,,6,,,50,92
28384,note_on,0,0,1,,,,,,,,,5,,,78,0
28384,note_on,160,0,6,,,,,,,,,3,,,62,0
28384,note_on,160,0,1,,,,,,,,,5,,,69,0
28414,note_on,46,0,2,,,,,,,,,6,,,50,0
28416,note_on,2,0,2,,,,,,,,,6,,,57,92
28416,note_on,32,0,6,,,,,,,,,3,,,54,45
28462,note_on,46,0,2,,,,,,,,,6,,,57,0
28464,note_on,2,0,2,,,,,,,,,6,,,54,92
28510,note_on,46,0,2,,,,,,,,,6,,,54,0
28512,note_on,0,0,1,,,,,,,,,5,,,78,108
28512,note_on,128,0,1,,,,,,,,,5,,,69,108
28512,note_on,2,0,2,,,,,,,,,6,,,52,92
28544,note_on,32,0,1,,,,,,,,,5,,,69,0
28544,note_on,0,0,1,,,,,,,,,5,,,78,0
28558,note_on,46,0,2,,,,,,,,,6,,,52,0
28560,note_on,2,0,2,,,,,,,,,6,,,54,92
28576,note_on,160,0,6,,,,,,,,,3,,,54,0
28606,note_on,46,0,2,,,,,,,,,6,,,54,0
28608,note_on,0,0,1,,,,,,,,,5,,,78,108
28608,note_on,2,0,2,,,,,,,,,6,,,57,92
28608,note_on,32,0,6,,,,,,,,,3,,,54,45
28608,note_on,64,0,1,,,,,,,,,5,,,69,108
28640,note_on,0,0,1,,,,,,,,,5,,,78,0
28640,note_on,32,0,1,,,,,,,,,5,,,69,0
28654,note_on,46,0,2,,,,,,,,,6,,,57,0
28656,note_on,2,0,2,,,,,,,,,6,,,54,92
28702,note_on,46,0,2,,,,,,,,,6,,,54,0
28704,note_on,0,0,1,,,,,,,,,5,,,78,108
28704,note_on,2,0,2,,,,,,,,,6,,,52,92
28704,note_on,64,0,1,,,,,,,,,5,,,69,108
28736,note_on,32,0,1,,,,,,,,,5,,,69,0
28736,note_on,0,0,1,,,,,,,,,5,,,78,0
28750,note_on,46,0,2,,,,,,,,,6,,,52,0
28752,note_on,2,0,2,,,,,,,,,6,,,54,92
28768,note_on,160,0,6,,,,,,,,,3,,,54,0
28798,note_on,46,0,2,,,,,,,,,6,,,54,0
28800,note_on,0,0,1,,,,,,,,,5,,,74,108
28800,note_on,0,0,1,,,,,,,,,5,,,78,108
28800,note_on,64,0,1,,,,,,,,,5,,,68,108
28800,note_on,32,0,6,,,,,,,,,3,,,59,45
28800,note_on,2,0,2,,,,,,,,,6,,,59,92
28846,note_on,46,0,2,,,,,,,,,6,,,59,0
28848,note_on,2,0,2,,,,,,,,,6,,,57,92
28894,note_on,46,0,2,,,,,,,,,6,,,57,0
28896,note_on,2,0,2,,,,,,,,,6,,,59,92
28942,note_on,46,0,2,,,,,,,,,6,,,59,0
28944,note_on,2,0,2,,,,,,,,,6,,,56,92
28960,note_on,0,0,1,,,,,,,,,5,,,74,0
28960,note_on,160,0,6,,,,,,,,,3,,,59,0
28960,note_on,160,0,1,,,,,,,,,5,,,68,0
28960,note_on,0,0,1,,,,,,,,,5,,,78,0
28990,note_on,46,0,2,,,,,,,,,6,,,56,0
28992,note_on,2,0,2,,,,,,,,,6,,,61,92
28992,note_on,0,0,1,,,,,,,,,5,,,76,108
28992,note_on,32,0,1,,,,,,,,,5,,,68,108
28992,note_on,32,0,6,,,,,,,,,3,,,61,45
29038,note_on,46,0,2,,,,,,,,,6,,,61,0
29040,note_on,2,0,2,,,,,,,,,6,,,59,92
29086,note_on,46,0,2,,,,,,,,,6,,,59,0
29088,note_on,2,0,2,,,,,,,,,6,,,61,92
29134,note_on,46,0,2,,,,,,,,,6,,,61,0
29136,note_on,2,0,2,,,,,,,,,6,,,49,92
29152,note_on,160,0,1,,,,,,,,,5,,,68,0
29152,note_on,0,0,1,,,,,,,,,5,,,76,0
29152,note_on,160,0,6,,,,,,,,,3,,,61,0
29182,note_on,46,0,2,,,,,,,,,6,,,49,0
29184,note_on,2,0,2,,,,,,,,,6,,,56,92
29184,note_on,32,0,6,,,,,,,,,3,,,52,45
29230,note_on,46,0,2,,,,,,,,,6,,,56,0
29232,note_on,2,0,2,,,,,,,,,6,,,52,92
29278,note_on,46,0,2,,,,,,,,,6,,,52,0
29280,note_on,0,0,1,,,,,,,,,5,,,76,108
29280,note_on,128,0,1,,,,,,,,,5,,,68,108
29280,note_on,2,0,2,,,,,,,,,6,,,51,92
29312,note_on,0,0,1,,,,,,,,,5,,,76,0
29312,note_on,32,0,1,,,,,,,,,5,,,68,0
29326,note_on,46,0,2,,,,,,,,,6,,,51,0
29328,note_on,2,0,2,,,,,,,,,6,,,52,92
29344,note_on,160,0,6,,,,,,,,,3,,,52,0
29374,note_on,46,0,2,,,,,,,,,6,,,52,0
29376,note_on,2,0,2,,,,,,,,,6,,,56,92
29376,note_on,64,0,1,,,,,,,,,5,,,68,108
29376,note_on,32,0,6,,,,,,,,,3,,,52,45
29376,note_on,0,0,1,,,,,,,,,5,,,76,108
29408,note_on,32,0,1,,,,,,,,,5,,,68,0
29408,note_on,0,0,1,,,,,,,,,5,,,76,0
29422,note_on,46,0,2,,,,,,,,,6,,,56,0
29424,note_on,2,0,2,,,,,,,,,6,,,52,92
29470,note_on,46,0,2,,,,,,,,,6,,,52,0
29472,note_on,0,0,1,,,,,,,,,5,,,76,108
29472,note_on,64,0,1,,,,,,,,,5,,,68,108
29472,note_on,2,0,2,,,,,,,,,6,,,51,92
29504,note_on,32,0,1,,,,,,,,,5,,,68,0
29504,note_on,0,0,1,,,,,,,,,5,,,76,0
29518,note_on,46,0,2,,,,,,,,,6,,,51,0
29520,note_on,2,0,2,,,,,,,,,6,,,52,92
29536,note_on,160,0,6,,,,,,,,,3,,,52,0
29566,note_on,46,0,2,,,,,,,,,6,,,52,0
29568,note_on,32,0,6,,,,,,,,,3,,,57,45
29568,note_on,64,0,1,,,,,,,,,5,,,66,108
29568,note_on,0,0,1,,,,,,,,,5,,,73,108
29568,note_on,0,0,1,,,,,,,,,5,,,76,108
29568,note_on,2,0,2,,,,,,,,,6,,,57,92
29600,note_on,32,0,1,,,,,,,,,5,,,66,0
29600,note_on,0,0,1,,,,,,,,,5,,,73,0
29600,note_on,0,0,1,,,,,,,,,5,,,76,0
29614,note_on,46,0,2,,,,,,,,,6,,,57,0
29616,note_on,2,0,2,,,,,,,,,6,,,56,92
29662,note_on,46,0,2,,,,,,,,,6,,,56,0
29664,note_on,2,0,2,,,,,,,,,6,,,57,92
29664,note_on,64,0,1,,,,,,,,,5,,,66,108
29664,note_on,0,0,1,,,,,,,,,5,,,73,108
29664,note_on,0,0,1,,,,,,,,,5,,,76,108
29710,note_on,46,0,2,,,,,,,,,6,,,57,0
29712,note_on,2,0,2,,,,,,,,,6,,,54,92
29728,note_on,160,0,6,,,,,,,,,3,,,57,0
29758,note_on,46,0,2,,,,,,,,,6,,,54,0
29758,note_on,94,0,1,,,,,,,,,5,,,66,0
29758,note_on,0,0,1,,,,,,,,,5,,,73,0
29758,note_on,0,0,1,,,,,,,,,5,,,76,0
29760,note_on,2,0,1,,,,,,,,,5,,,66,108
29760,note_on,0,0,1,,,,,,,,,5,,,71,108
29760,note_on,0,0,1,,,,,,,,,5,,,75,108
29760,note_on,2,0,2,,,,,,,,,6,,,59,92
29760,note_on,32,0,6,,,,,,,,,3,,,59,45
29792,note_on,0,0,1,,,,,,,,,5,,,75,0
29792,note_on,0,0,1,,,,,,,,,5,,,71,0
29792,note_on,32,0,1,,,,,,,,,5,,,66,0
29806,note_on,46,0,2,,,,,,,,,6,,,59,0
29808,note_on,2,0,2,,,,,,,,,6,,,57,92
29854,note_on,46,0,2,,,,,,,,,6,,,57,0
29856,note_on,0,0,1,,,,,,,,,5,,,75,108
29856,note_on,0,0,1,,,,,,,,,5,,,71,108
29856,note_on,64,0,1,,,,,,,,,5,,,66,108
29856,note_on,2,0,2,,,,,,,,,6,,,59,92
29902,note_on,46,0,2,,,,,,,,,6,,,59,0
29904,note_on,2,0,2,,,,,,,,,6,,,47,92
29920,note_on,160,0,6,,,,,,,,,3,,,59,0
29950,note_on,0,0,1,,,,,,,,,5,,,75,0
29950,note_on,0,0,1,,,,,,,,,5,,,71,0
29950,note_on,94,0,1,,,,,,,,,5,,,66,0
29950,note_on,46,0,2,,,,,,,,,6,,,47,0
29952,note_on,20738,0,7,,,,,,,,,10,,,52,60
29952,note_on,32,0,6,,,,,,,,,3,,,64,60
29952,note_on,0,0,1,,,,,,,,,5,,,76,108
29952,note_on,0,0,1,,,,,,,,,5,,,71,108
29952,note_on,2,0,2,,,,,,,,,6,,,64,92
29952,note_on,2,0,1,,,,,,,,,5,,,68,108
29952,note_on,2912,0,3,,,,,,,,,0,,,76,60
30046,note_on,94,0,3,,,,,,,,,0,,,76,0
30046,note_on,94,0,2,,,,,,,,,6,,,64,0
30046,note_on,94,0,6,,,,,,,,,3,,,64,0
30046,note_on,94,0,1,,,,,,,,,5,,,68,0
30046,note_on,0,0,1,,,,,,,,,5,,,71,0
30046,note_on,0,0,1,,,,,,,,,5,,,76,0
30046,note_on,94,0,7,,,,,,,,,10,,,52,0
30048,note_on,2,0,2,,,,,,,,,6,,,52,92
30048,note_on,2,0,3,,,,,,,,,0,,,64,60
30048,note_on,2,0,1,,,,,,,,,5,,,64,108
30048,note_on,2,0,7,,,,,,,,,10,,,40,60
30048,note_on,2,0,6,,,,,,,,,3,,,52,60
30080,note_on,32,0,3,,,,,,,,,0,,,64,0
30080,note_on,32,0,1,,,,,,,,,5,,,64,0
30080,note_on,32,0,2,,,,,,,,,6,,,52,0
30080,note_on,32,0,7,,,,,,,,,10,,,40,0
30080,note_on,32,0,6,,,,,,,,,3,,,52,0
30144,note_on,64,0,6,,,,,,,,,3,,,52,60
30144,note_on,64,0,2,,,,,,,,,6,,,52,92
30144,note_on,64,0,7,,,,,,,,,10,,,40,60
30144,note_on,64,0,3,,,,,,,,,0,,,64,60
30144,note_on,64,0,1,,,,,,,,,5,,,64,108
30176,note_on,32,0,6,,,,,,,,,3,,,52,0
30176,note_on,32,0,2,,,,,,,,,6,,,52,0
30176,note_on,32,0,3,,,,,,,,,0,,,64,0
30176,note_on,32,0,1,,,,,,,,,5,,,64,0
30176,note_on,32,0,7,,,,,,,,,10,,,40,0
30240,note_on,64,0,1,,,,,,,,,5,,,64,108
30240,note_on,64,0,7,,,,,,,,,10,,,40,60
30240,note_on,64,0,2,,,,,,,,,6,,,52,92
30240,note_on,64,0,3,,,,,,,,,0,,,64,60
30240,note_on,64,0,6,,,,,,,,,3,,,52,60
30272,note_on,32,0,7,,,,,,,,,10,,,40,0
30272,note_on,32,0,2,,,,,,,,,6,,,52,0
30272,note_on,32,0,1,,,,,,,,,5,,,64,0
30272,note_on,32,0,6,,,,,,,,,3,,,52,0
30272,note_on,32,0,3,,,,,,,,,0,,,64,0
30336,note_on,64,0,7,,,,,,,,,10,,,40,60
30336,note_on,64,0,2,,,,,,,,,6,,,52,92
30336,note_on,64,0,3,,,,,,,,,0,,,64,60
30336,note_on,64,0,6,,,,,,,,,3,,,52,60
30336,note_on,64,0,1,,,,,,,,,5,,,64,108
30496,note_on,160,0,7,,,,,,,,,10,,,40,0
30496,note_on,160,0,6,,,,,,,,,3,,,52,0
30496,note_on,160,0,3,,,,,,,,,0,,,64,0
30496,note_on,160,0,2,,,,,,,,,6,,,52,0
30496,note_on,160,0,1,,,,,,,,,5,,,64,0
30576,note_on,80,0,6,,,,,,,,,3,,,59,60
30576,note_on,80,0,3,,,,,,,,,0,,,71,60
30576,note_on,80,0,2,,,,,,,,,6,,,59,92
30576,note_on,80,0,1,,,,,,,,,5,,,71,108
30576,note_on,80,0,7,,,,,,,,,10,,,47,60
30622,note_on,46,0,3,,,,,,,,,0,,,71,0
30622,note_on,46,0,7,,,,,,,,,10,,,47,0
30622,note_on,46,0,1,,,,,,,,,5,,,71,0
30622,note_on,46,0,2,,,,,,,,,6,,,59,0
30622,note_on,46,0,6,,,,,,,,,3,,,59,0
30624,note_on,2,0,2,,,,,,,,,6,,,61,92
30624,note_on,2,0,7,,,,,,,,,10,,,49,60
30624,note_on,2,0,3,,,,,,,,,0,,,73,60
30624,note_on,2,0,1,,,,,,,,,5,,,73,108
30624,note_on,2,0,6,,,,,,,,,3,,,61,60
30670,note_on,46,0,1,,,,,,,,,5,,,73,0
30670,note_on,46,0,2,,,,,,,,,6,,,61,0
30670,note_on,46,0,7,,,,,,,,,10,,,49,0
30670,note_on,46,0,3,,,,,,,,,0,,,73,0
30670,note_on,46,0,6,,,,,,,,,3,,,61,0
30672,note_on,2,0,2,,,,,,,,,6,,,63,92
30672,note_on,2,0,3,,,,,,,,,0,,,75,60
30672,note_on,2,0,6,,,,,,,,,3,,,63,60
30672,note_on,2,0,7,,,,,,,,,10,,,51,60
30672,note_on,2,0,1,,,,,,,,,5,,,75,108
30718,note_on,46,0,6,,,,,,,,,3,,,63,0
30718,note_on,46,0,1,,,,,,,,,5,,,75,0
30718,note_on,46,0,2,,,,,,,,,6,,,63,0
30718,note_on,46,0,7,,,,,,,,,10,,,51,0
30718,note_on,46,0,3,,,,,,,,,0,,,75,0
30720,note_on,2,0,1,,,,,,,,,5,,,76,108
30720,note_on,2,0,2,,,,,,,,,6,,,64,92
30720,note_on,2,0,6,,,,,,,,,3,,,64,60
30720,note_on,2,0,3,,,,,,,,,0,,,76,60
30720,note_on,2,0,7,,,,,,,,,10,,,52,60
30814,note_on,94,0,2,,,,,,,,,6,,,64,0
30814,note_on,94,0,7,,,,,,,,,10,,,52,0
30814,note_on,94,0,6,,,,,,,,,3,,,64,0
30814,note_on,94,0,1,,,,,,,,,5,,,76,0
30814,note_on,94,0,3,,,,,,,,,0,,,76,0
30816,note_on,2,0,3,,,,,,,,,0,,,64,60
30816,note_on,2,0,2,,,,,,,,,6,,,52,92
30816,note_on,2,0,7,,,,,,,,,10,,,40,60
30816,note_on,2,0,1,,,,,,,,,5,,,64,108
30816,note_on,2,0,6,,,,,,,,,3,,,52,60
30848,note_on,32,0,3,,,,,,,,,0,,,64,0
30848,note_on,32,0,6,,,,,,,,,3,,,52,0
30848,note_on,32,0,2,,,,,,,,,6,,,52,0
30848,note_on,32,0,7,,,,,,,,,10,,,40,0
30848,note_on,32,0,1,,,,,,,,,5,,,64,0
30912,note_on,64,0,3,,,,,,,,,0,,,64,60
30912,note_on,64,0,6,,,,,,,,,3,,,52,60
30912,note_on,64,0,2,,,,,,,,,6,,,52,92
30912,note_on,64,0,7,,,,,,,,,10,,,40,60
30912,note_on,64,0,1,,,,,,,,,5,,,64,108
30944,note_on,32,0,3,,,,,,,,,0,,,64,0
30944,note_on,32,0,6,,,,,,,,,3,,,52,0
30944,note_on,32,0,7,,,,,,,,,10,,,40,0
30944,note_on,32,0,1,,,,,,,,,5,,,64,0
30944,note_on,32,0,2,,,,,,,,,6,,,52,0
31008,note_on,64,0,6,,,,,,,,,3,,,52,60
31008,note_on,64,0,3,,,,,,,,,0,,,64,60
31008,note_on,64,0,2,,,,,,,,,6,,,52,92
31008,note_on,64,0,7,,,,,,,,,10,,,40,60
31008,note_on,64,0,1,,,,,,,,,5,,,64,108
31040,note_on,32,0,7,,,,,,,,,10,,,40,0
31040,note_on,32,0,3,,,,,,,,,0,,,64,0
31040,note_on,32,0,6,,,,,,,,,3,,,52,0
31040,note_on,32,0,1,,,,,,,,,5,,,64,0
31040,note_on,32,0,2,,,,,,,,,6,,,52,0
31104,note_on,64,0,3,,,,,,,,,0,,,64,60
31104,note_on,64,0,7,,,,,,,,,10,,,40,60
31104,note_on,64,0,6,,,,,,,,,3,,,52,60
31104,note_on,64,0,1,,,,,,,,,5,,,64,108
31104,note_on,64,0,2,,,,,,,,,6,,,52,92
31264,note_on,160,0,3,,,,,,,,,0,,,64,0
31264,note_on,160,0,7,,,,,,,,,10,,,40,0
31264,note_on,160,0,6,,,,,,,,,3,,,52,0
31264,note_on,160,0,1,,,,,,,,,5,,,64,0
31264,note_on,160,0,2,,,,,,,,,6,,,52,0
31344,note_on,80,0,2,,,,,,,,,6,,,47,92
31344,note_on,80,0,1,,,,,,,,,5,,,59,108
31344,note_on,80,0,7,,,,,,,,,10,,,35,60
31344,note_on,80,0,6,,,,,,,,,3,,,47,60
31344,note_on,80,0,3,,,,,,,,,0,,,59,60
31390,note_on,46,0,2,,,,,,,,,6,,,47,0
31390,note_on,46,0,6,,,,,,,,,3,,,47,0
31390,note_on,46,0,1,,,,,,,,,5,,,59,0
31390,note_on,46,0,7,,,,,,,,,10,,,35,0
31390,note_on,46,0,3,,,,,,,,,0,,,59,0
31392,note_on,2,0,1,,,,,,,,,5,,,61,108
31392,note_on,2,0,7,,,,,,,,,10,,,37,60
31392,note_on,2,0,6,,,,,,,,,3,,,49,60
31392,note_on,2,0,3,,,,,,,,,0,,,61,60
31392,note_on,2,0,2,,,,,,,,,6,,,49,92
31438,note_on,46,0,6,,,,,,,,,3,,,49,0
31438,note_on,46,0,7,,,,,,,,,10,,,37,0
31438,note_on,46,0,2,,,,,,,,,6,,,49,0
31438,note_on,46,0,1,,,,,,,,,5,,,61,0
31438,note_on,46,0,3,,,,,,,,,0,,,61,0
31440,note_on,2,0,3,,,,,,,,,0,,,63,60
31440,note_on,2,0,1,,,,,,,,,5,,,63,108
31440,note_on,2,0,6,,,,,,,,,3,,,51,60
31440,note_on,2,0,7,,,,,,,,,10,,,39,60
31440,note_on,2,0,2,,,,,,,,,6,,,51,92
31486,note_on,46,0,1,,,,,,,,,5,,,63,0
31486,note_on,46,0,6,,,,,,,,,3,,,51,0
31486,note_on,46,0,7,,,,,,,,,10,,,39,0
31486,note_on,46,0,2,,,,,,,,,6,,,51,0
31486,note_on,46,0,3,,,,,,,,,0,,,63,0
31488,note_on,2,0,7,,,,,,,,,10,,,40,60
31488,note_on,2,0,2,,,,,,,,,6,,,52,92
31488,note_on,2,0,3,,,,,,,,,0,,,64,60
31488,note_on,2,0,6,,,,,,,,,3,,,52,60
31488,note_on,2,0,1,,,,,,,,,5,,,64,108
31534,note_on,46,0,3,,,,,,,,,0,,,64,0
31534,note_on,46,0,7,,,,,,,,,10,,,40,0
31534,note_on,46,0,2,,,,,,,,,6,,,52,0
31534,note_on,46,0,6,,,,,,,,,3,,,52,0
31534,note_on,46,0,1,,,,,,,,,5,,,64,0
31536,note_on,2,0,2,,,,,,,,,6,,,52,92
31536,note_on,2,0,6,,,,,,,,,3,,,52,60
31536,note_on,2,0,7,,,,,,,,,10,,,40,60
31536,note_on,2,0,1,,,,,,,,,5,,,64,108
31536,note_on,2,0,3,,,,,,,,,0,,,64,60
31582,note_on,46,0,6,,,,,,,,,3,,,52,0
31582,note_on,46,0,1,,,,,,,,,5,,,64,0
31582,note_on,46,0,2,,,,,,,,,6,,,52,0
31582,note_on,46,0,7,,,,,,,,,10,,,40,0
31582,note_on,46,0,3,,,,,,,,,0,,,64,0
31584,note_on,2,0,6,,,,,,,,,3,,,54,60
31584,note_on,2,0,1,,,,,,,,,5,,,66,108
31584,note_on,2,0,2,,,,,,,,,6,,,54,92
31584,note_on,2,0,3,,,,,,,,,0,,,66,60
31584,note_on,2,0,7,,,,,,,,,10,,,42,60
31630,note_on,46,0,2,,,,,,,,,6,,,54,0
31630,note_on,46,0,1,,,,,,,,,5,,,66,0
31630,note_on,46,0,6,,,,,,,,,3,,,54,0
31630,note_on,46,0,3,,,,,,,,,0,,,66,0
31630,note_on,46,0,7,,,,,,,,,10,,,42,0
31632,note_on,2,0,3,,,,,,,,,0,,,66,60
31632,note_on,2,0,6,,,,,,,,,3,,,54,60
31632,note_on,2,0,2,,,,,,,,,6,,,54,92
31632,note_on,2,0,1,,,,,,,,,5,,,66,108
31632,note_on,2,0,7,,,,,,,,,10,,,42,60
31678,note_on,46,0,7,,,,,,,,,10,,,42,0
31678,note_on,46,0,1,,,,,,,,,5,,,66,0
31678,note_on,46,0,2,,,,,,,,,6,,,54,0
31678,note_on,46,0,3,,,,,,,,,0,,,66,0
31678,note_on,46,0,6,,,,,,,,,3,,,54,0
31680,note_on,2,0,7,,,,,,,,,10,,,44,60
31680,note_on,2,0,2,,,,,,,,,6,,,56,92
31680,note_on,2,0,3,,,,,,,,,0,,,68,60
31680,note_on,2,0,1,,,,,,,,,5,,,68,108
31680,note_on,2,0,6,,,,,,,,,3,,,56,60
31726,note_on,46,0,1,,,,,,,,,5,,,68,0
31726,note_on,46,0,7,,,,,,,,,10,,,44,0
31726,note_on,46,0,3,,,,,,,,,0,,,68,0
31726,note_on,46,0,2,,,,,,,,,6,,,56,0
31726,note_on,46,0,6,,,,,,,,,3,,,56,0
31728,note_on,2,0,1,,,,,,,,,5,,,68,108
31728,note_on,2,0,6,,,,,,,,,3,,,56,60
31728,note_on,2,0,3,,,,,,,,,0,,,68,60
31728,note_on,2,0,7,,,,,,,,,10,,,44,60
31728,note_on,2,0,2,,,,,,,,,6,,,56,92
31774,note_on,46,0,1,,,,,,,,,5,,,68,0
31774,note_on,46,0,6,,,,,,,,,3,,,56,0
31774,note_on,46,0,3,,,,,,,,,0,,,68,0
31774,note_on,46,0,7,,,,,,,,,10,,,44,0
31774,note_on,46,0,2,,,,,,,,,6,,,56,0
31776,note_on,2,0,2,,,,,,,,,6,,,57,92
31776,note_on,2,0,6,,,,,,,,,3,,,57,60
31776,note_on,2,0,7,,,,,,,,,10,,,45,60
31776,note_on,2,0,1,,,,,,,,,5,,,69,108
31776,note_on,2,0,3,,,,,,,,,0,,,69,60
31822,note_on,46,0,3,,,,,,,,,0,,,69,0
31822,note_on,46,0,7,,,,,,,,,10,,,45,0
31822,note_on,46,0,1,,,,,,,,,5,,,69,0
31822,note_on,46,0,6,,,,,,,,,3,,,57,0
31822,note_on,46,0,2,,,,,,,,,6,,,57,0
31824,note_on,2,0,1,,,,,,,,,5,,,69,108
31824,note_on,2,0,7,,,,,,,,,10,,,45,60
31824,note_on,2,0,2,,,,,,,,,6,,,57,92
31824,note_on,2,0,3,,,,,,,,,0,,,69,60
31824,note_on,2,0,6,,,,,,,,,3,,,57,60
31870,note_on,46,0,1,,,,,,,,,5,,,69,0
31870,note_on,46,0,3,,,,,,,,,0,,,69,0
31870,note_on,46,0,7,,,,,,,,,10,,,45,0
31870,note_on,46,0,6,,,,,,,,,3,,,57,0
31870,note_on,46,0,2,,,,,,,,,6,,,57,0
31872,note_on,2,0,1,,,,,,,,,5,,,71,108
31872,note_on,2,0,3,,,,,,,,,0,,,71,60
31872,note_on,2,0,2,,,,,,,,,6,,,59,92
31872,note_on,2,0,6,,,,,,,,,3,,,59,60
31872,note_on,2,0,7,,,,,,,,,10,,,47,60
31966,note_on,94,0,6,,,,,,,,,3,,,59,0
31966,note_on,94,0,7,,,,,,,,,10,,,47,0
31966,note_on,94,0,2,,,,,,,,,6,,,59,0
31966,note_on,94,0,1,,,,,,,,,5,,,71,0
31966,note_on,94,0,3,,,,,,,,,0,,,71,0
31968,note_on,2,0,2,,,,,,,,,6,,,47,92
31968,note_on,2,0,7,,,,,,,,,10,,,35,60
31968,note_on,2,0,6,,,,,,,,,3,,,47,60
31968,note_on,2,0,1,,,,,,,,,5,,,59,108
31968,note_on,2,0,3,,,,,,,,,0,,,59,60
32062,note_on,94,0,3,,,,,,,,,0,,,59,0
32062,note_on,94,0,2,,,,,,,,,6,,,47,0
32062,note_on,94,0,1,,,,,,,,,5,,,59,0
32062,note_on,94,0,7,,,,,,,,,10,,,35,0
32062,note_on,94,0,6,,,,,,,,,3,,,47,0
32160,note_on,98,0,1,,,,,,,,,5,,,71,108
32160,note_on,98,0,3,,,,,,,,,0,,,71,60
32160,note_on,98,0,7,,,,,,,,,10,,,47,60
32160,note_on,98,0,6,,,,,,,,,3,,,59,60
32160,note_on,98,0,2,,,,,,,,,6,,,59,92
32254,note_on,94,0,1,,,,,,,,,5,,,71,0
32254,note_on,94,0,7,,,,,,,,,10,,,47,0
32254,note_on,94,0,6,,,,,,,,,3,,,59,0
32254,note_on,94,0,2,,,,,,,,,6,,,59,0
32254,note_on,94,0,3,,,,,,,,,0,,,71,0
32256,note_on,2,0,1,,,,,,,,,5,,,69,108
32256,note_on,2,0,2,,,,,,,,,6,,,57,92
32256,note_on,2,0,3,,,,,,,,,0,,,69,60
32256,note_on,2,0,7,,,,,,,,,10,,,45,60
32256,note_on,2,0,6,,,,,,,,,3,,,57,60
32350,note_on,94,0,3,,,,,,,,,0,,,69,0
32350,note_on,94,0,2,,,,,,,,,6,,,57,0
32350,note_on,94,0,7,,,,,,,,,10,,,45,0
32350,note_on,94,0,1,,,,,,,,,5,,,69,0
32350,note_on,94,0,6,,,,,,,,,3,,,57,0
32352,note_on,2,0,7,,,,,,,,,10,,,51,60
32352,note_on,2,0,1,,,,,,,,,5,,,75,108
32352,note_on,2,0,3,,,,,,,,,0,,,75,60
32352,note_on,2,0,6,,,,,,,,,3,,,63,60
32352,note_on,2,0,2,,,,,,,,,6,,,63,92
32446,note_on,94,0,6,,,,,,,,,3,,,63,0
32446,note_on,94,0,2,,,,,,,,,6,,,63,0
32446,note_on,94,0,1,,,,,,,,,5,,,75,0
32446,note_on,94,0,3,,,,,,,,,0,,,75,0
32446,note_on,94,0,7,,,,,,,,,10,,,51,0
32448,note_on,2,0,6,,,,,,,,,3,,,64,60
32448,note_on,2,0,1,,,,,,,,,5,,,76,108
32448,note_on,2,0,3,,,,,,,,,0,,,76,60
32448,note_on,2,0,7,,,,,,,,,10,,,52,60
32448,note_on,2,0,2,,,,,,,,,6,,,64,92
32542,note_on,94,0,1,,,,,,,,,5,,,76,0
32542,note_on,94,0,3,,,,,,,,,0,,,76,0
32542,note_on,94,0,7,,,,,,,,,10,,,52,0
32542,note_on,94,0,6,,,,,,,,,3,,,64,0
32542,note_on,94,0,2,,,,,,,,,6,,,64,0
32544,note_on,2,0,2,,,,,,,,,6,,,57,92
32544,note_on,2,0,7,,,,,,,,,10,,,45,60
32544,note_on,2,0,6,,,,,,,,,3,,,57,60
32544,note_on,2,0,1,,,,,,,,,5,,,69,108
32544,note_on,2,0,3,,,,,,,,,0,,,69,60
32638,note_on,94,0,7,,,,,,,,,10,,,45,0
32638,note_on,94,0,6,,,,,,,,,3,,,57,0
32638,note_on,94,0,3,,,,,,,,,0,,,69,0
32638,note_on,94,0,1,,,,,,,,,5,,,69,0
32638,note_on,94,0,2,,,,,,,,,6,,,57,0
32640,note_on,2,0,3,,,,,,,,,0,,,68,60
32640,note_on,2,0,2,,,,,,,,,6,,,56,92
32640,note_on,2,0,6,,,,,,,,,3,,,56,60
32640,note_on,2,0,1,,,,,,,,,5,,,68,108
32640,note_on,2,0,7,,,,,,,,,10,,,44,60
32734,note_on,94,0,1,,,,,,,,,5,,,68,0
32734,note_on,94,0,3,,,,,,,,,0,,,68,0
32734,note_on,94,0,6,,,,,,,,,3,,,56,0
32734,note_on,94,0,7,,,,,,,,,10,,,44,0
32734,note_on,94,0,2,,,,,,,,,6,,,56,0
32736,note_on,2,0,1,,,,,,,,,5,,,75,108
32736,note_on,2,0,3,,,,,,,,,0,,,75,60
32736,note_on,2,0,7,,,,,,,,,10,,,51,60
32736,note_on,2,0,6,,,,,,,,,3,,,63,60
32736,note_on,2,0,2,,,,,,,,,6,,,63,92
32830,note_on,94,0,7,,,,,,,,,10,,,51,0
32830,note_on,94,0,3,,,,,,,,,0,,,75,0
32830,note_on,94,0,1,,,,,,,,,5,,,75,0
32830,note_on,94,0,2,,,,,,,,,6,,,63,0
32830,note_on,94,0,6,,,,,,,,,3,,,63,0
32832,note_on,2,0,6,,,,,,,,,3,,,64,60
32832,note_on,2,0,1,,,,,,,,,5,,,76,108
32832,note_on,2,0,7,,,,,,,,,10,,,52,60
32832,note_on,2,0,3,,,,,,,,,0,,,76,60
32832,note_on,2,0,2,,,,,,,,,6,,,64,92
32926,note_on,94,0,1,,,,,,,,,5,,,76,0
32926,note_on,94,0,3,,,,,,,,,0,,,76,0
32926,note_on,94,0,2,,,,,,,,,6,,,64,0
32926,note_on,94,0,6,,,,,,,,,3,,,64,0
32926,note_on,94,0,7,,,,,,,,,10,,,52,0
32928,note_on,2,0,6,,,,,,,,,3,,,56,60
32928,note_on,2,0,3,,,,,,,,,0,,,68,60
32928,note_on,2,0,1,,,,,,,,,5,,,68,108
32928,note_on,2,0,7,,,,,,,,,10,,,44,60
32928,note_on,2,0,2,,,,,,,,,6,,,56,92
33022,note_on,94,0,6,,,,,,,,,3,,,56,0
33022,note_on,94,0,3,,,,,,,,,0,,,68,0
33022,note_on,94,0,7,,,,,,,,,10,,,44,0
33022,note_on,94,0,2,,,,,,,,,6,,,56,0
33022,note_on,94,0,1,,,,,,,,,5,,,68,0
33024,note_on,2,0,6,,,,,,,,,3,,,54,60
33024,note_on,2,0,1,,,,,,,,,5,,,66,108
33024,note_on,2,0,7,,,,,,,,,10,,,42,60
33024,note_on,2,0,3,,,,,,,,,0,,,66,60
33024,note_on,2,0,2,,,,,,,,,6,,,54,92
33118,note_on,94,0,1,,,,,,,,,5,,,66,0
33118,note_on,94,0,3,,,,,,,,,0,,,66,0
33118,note_on,94,0,6,,,,,,,,,3,,,54,0
33118,note_on,94,0,7,,,,,,,,,10,,,42,0
33118,note_on,94,0,2,,,,,,,,,6,,,54,0
33120,note_on,2,0,3,,,,,,,,,0,,,75,60
33120,note_on,2,0,2,,,,,,,,,6,,,63,92
33120,note_on,2,0,7,,,,,,,,,10,,,51,60
33120,note_on,2,0,1,,,,,,,,,5,,,75,108
33120,note_on,2,0,6,,,,,,,,,3,,,63,60
33214,note_on,94,0,3,,,,,,,,,0,,,75,0
33214,note_on,94,0,2,,,,,,,,,6,,,63,0
33214,note_on,94,0,6,,,,,,,,,3,,,63,0
33214,note_on,94,0,7,,,,,,,,,10,,,51,0
33214,note_on,94,0,1,,,,,,,,,5,,,75,0
33216,note_on,2,0,7,,,,,,,,,10,,,52,60
33216,note_on,2,0,6,,,,,,,,,3,,,64,60
33216,note_on,2,0,3,,,,,,,,,0,,,76,60
33216,note_on,2,0,1,,,,,,,,,5,,,76,108
33216,note_on,2,0,2,,,,,,,,,6,,,64,92
33310,note_on,94,0,1,,,,,,,,,5,,,76,0
33310,note_on,94,0,7,,,,,,,,,10,,,52,0
33310,note_on,94,0,6,,,,,,,,,3,,,64,0
33310,note_on,94,0,3,,,,,,,,,0,,,76,0
33310,note_on,94,0,2,,,,,,,,,6,,,64,0
33312,note_on,2,0,6,,,,,,,,,3,,,54,60
33312,note_on,2,0,2,,,,,,,,,6,,,54,92
33312,note_on,2,0,1,,,,,,,,,5,,,66,108
33312,note_on,2,0,3,,,,,,,,,0,,,66,60
33312,note_on,2,0,7,,,,,,,,,10,,,42,60
33406,note_on,94,0,3,,,,,,,,,0,,,66,0
33406,note_on,94,0,7,,,,,,,,,10,,,42,0
33406,note_on,94,0,6,,,,,,,,,3,,,54,0
33406,note_on,94,0,1,,,,,,,,,5,,,66,0
33406,note_on,94,0,2,,,,,,,,,6,,,54,0
33408,note_on,2,0,2,,,,,,,,,6,,,52,92
33408,note_on,2,0,1,,,,,,,,,5,,,64,108
33408,note_on,2,0,6,,,,,,,,,3,,,52,60
33408,note_on,2,0,7,,,,,,,,,10,,,40,60
33408,note_on,2,0,3,,,,,,,,,0,,,64,60
33502,note_on,94,0,1,,,,,,,,,5,,,64,0
33502,note_on,94,0,7,,,,,,,,,10,,,40,0
33502,note_on,94,0,6,,,,,,,,,3,,,52,0
33502,note_on,94,0,2,,,,,,,,,6,,,52,0
33502,note_on,94,0,3,,,,,,,,,0,,,64,0
33504,note_on,2,0,2,,,,,,,,,6,,,63,92
33504,note_on,2,0,6,,,,,,,,,3,,,63,60
33504,note_on,2,0,7,,,,,,,,,10,,,51,60
33504,note_on,2,0,1,,,,,,,,,5,,,75,108
33504,note_on,2,0,3,,,,,,,,,0,,,75,60
33598,note_on,94,0,1,,,,,,,,,5,,,75,0
33598,note_on,94,0,7,,,,,,,,,10,,,51,0
33598,note_on,94,0,3,,,,,,,,,0,,,75,0
33598,note_on,94,0,2,,,,,,,,,6,,,63,0
33598,note_on,94,0,6,,,,,,,,,3,,,63,0
33600,note_on,2,0,3,,,,,,,,,0,,,76,60
33600,note_on,2,0,2,,,,,,,,,6,,,64,92
33600,note_on,2,0,6,,,,,,,,,3,,,64,60
33600,note_on,2,0,1,,,,,,,,,5,,,76,108
33600,note_on,2,0,7,,,,,,,,,10,,,52,60
33694,note_on,94,0,2,,,,,,,,,6,,,64,0
33694,note_on,94,0,3,,,,,,,,,0,,,76,0
33694,note_on,94,0,1,,,,,,,,,5,,,76,0
33694,note_on,94,0,6,,,,,,,,,3,,,64,0
33694,note_on,94,0,7,,,,,,,,,10,,,52,0
33696,note_on,2,0,2,,,,,,,,,6,,,52,92
33696,note_on,2,0,6,,,,,,,,,3,,,52,60
33696,note_on,2,0,7,,,,,,,,,10,,,40,60
33696,note_on,2,0,1,,,,,,,,,5,,,64,108
33696,note_on,2,0,3,,,,,,,,,0,,,64,60
33790,note_on,94,0,7,,,,,,,,,10,,,40,0
33790,note_on,94,0,1,,,,,,,,,5,,,64,0
33790,note_on,94,0,6,,,,,,,,,3,,,52,0
33790,note_on,94,0,2,,,,,,,,,6,,,52,0
33790,note_on,94,0,3,,,,,,,,,0,,,64,0
33792,note_on,2,0,6,,,,,,,,,3,,,51,60
33792,note_on,2,0,1,,,,,,,,,5,,,63,108
33792,note_on,2,0,7,,,,,,,,,10,,,39,60
33792,note_on,2,0,2,,,,,,,,,6,,,51,92
33792,note_on,2,0,3,,,,,,,,,0,,,63,60
33886,note_on,94,0,2,,,,,,,,,6,,,51,0
33886,note_on,94,0,6,,,,,,,,,3,,,51,0
33886,note_on,94,0,3,,,,,,,,,0,,,63,0
33886,note_on,94,0,7,,,,,,,,,10,,,39,0
33886,note_on,94,0,1,,,,,,,,,5,,,63,0
33888,note_on,2,0,3,,,,,,,,,0,,,75,60
33888,note_on,2,0,7,,,,,,,,,10,,,51,60
33888,note_on,2,0,1,,,,,,,,,5,,,75,108
33888,note_on,2,0,2,,,,,,,,,6,,,63,92
33888,note_on,2,0,6,,,,,,,,,3,,,63,60
33982,note_on,94,0,7,,,,,,,,,10,,,51,0
33982,note_on,94,0,6,,,,,,,,,3,,,63,0
33982,note_on,94,0,1,,,,,,,,,5,,,75,0
33982,note_on,94,0,2,,,,,,,,,6,,,63,0
33982,note_on,94,0,3,,,,,,,,,0,,,75,0
33984,note_on,2,0,1,,,,,,,,,5,,,76,108
33984,note_on,2,0,6,,,,,,,,,3,,,64,60
33984,note_on,2,0,2,,,,,,,,,6,,,64,92
33984,note_on,2,0,3,,,,,,,,,0,,,76,60
33984,note_on,2,0,7,,,,,,,,,10,,,52,60
34078,note_on,94,0,7,,,,,,,,,10,,,52,0
34078,note_on,94,0,6,,,,,,,,,3,,,64,0
34078,note_on,94,0,2,,,,,,,,,6,,,64,0
34078,note_on,94,0,3,,,,,,,,,0,,,76,0
34078,note_on,94,0,1,,,,,,,,,5,,,76,0
34080,note_on,2,0,1,,,,,,,,,5,,,63,108
34080,note_on,2,0,2,,,,,,,,,6,,,51,92
34080,note_on,2,0,7,,,,,,,,,10,,,39,60
34080,note_on,2,0,3,,,,,,,,,0,,,63,60
34080,note_on,2,0,6,,,,,,,,,3,,,51,60
34174,note_on,94,0,2,,,,,,,,,6,,,51,0
34174,note_on,94,0,3,,,,,,,,,0,,,63,0
34174,note_on,94,0,7,,,,,,,,,10,,,39,0
34174,note_on,94,0,1,,,,,,,,,5,,,63,0
34174,note_on,94,0,6,,,,,,,,,3,,,51,0
34176,note_on,2,0,3,,,,,,,,,0,,,61,60
34176,note_on,2,0,7,,,,,,,,,10,,,37,60
34176,note_on,2,0,1,,,,,,,,,5,,,61,108
34176,note_on,2,0,2,,,,,,,,,6,,,49,92
34176,note_on,2,0,6,,,,,,,,,3,,,49,60
34270,note_on,94,0,2,,,,,,,,,6,,,49,0
34270,note_on,94,0,3,,,,,,,,,0,,,61,0
34270,note_on,94,0,7,,,,,,,,,10,,,37,0
34270,note_on,94,0,1,,,,,,,,,5,,,61,0
34270,note_on,94,0,6,,,,,,,,,3,,,49,0
34272,note_on,2,0,7,,,,,,,,,10,,,51,60
34272,note_on,2,0,2,,,,,,,,,6,,,63,92
34272,note_on,2,0,3,,,,,,,,,0,,,75,60
34272,note_on,2,0,1,,,,,,,,,5,,,75,108
34272,note_on,2,0,6,,,,,,,,,3,,,63,60
34366,note_on,94,0,2,,,,,,,,,6,,,63,0
34366,note_on,94,0,1,,,,,,,,,5,,,75,0
34366,note_on,94,0,3,,,,,,,,,0,,,75,0
34366,note_on,94,0,6,,,,,,,,,3,,,63,0
34366,note_on,94,0,7,,,,,,,,,10,,,51,0
34368,note_on,2,0,2,,,,,,,,,6,,,64,92
34368,note_on,2,0,1,,,,,,,,,5,,,76,108
34368,note_on,2,0,3,,,,,,,,,0,,,76,60
34368,note_on,2,0,6,,,,,,,,,3,,,64,60
34368,note_on,2,0,7,,,,,,,,,10,,,52,60
34462,note_on,94,0,3,,,,,,,,,0,,,76,0
34462,note_on,94,0,6,,,,,,,,,3,,,64,0
34462,note_on,94,0,7,,,,,,,,,10,,,52,0
34462,note_on,94,0,2,,,,,,,,,6,,,64,0
34462,note_on,94,0,1,,,,,,,,,5,,,76,0
34464,note_on,2,0,7,,,,,,,,,10,,,37,60
34464,note_on,2,0,2,,,,,,,,,6,,,49,92
34464,note_on,2,0,6,,,,,,,,,3,,,49,60
34464,note_on,2,0,1,,,,,,,,,5,,,61,108
34464,note_on,2,0,3,,,,,,,,,0,,,61,60
34558,note_on,94,0,3,,,,,,,,,0,,,61,0
34558,note_on,94,0,7,,,,,,,,,10,,,37,0
34558,note_on,94,0,1,,,,,,,,,5,,,61,0
34558,note_on,94,0,6,,,,,,,,,3,,,49,0
34558,note_on,94,0,2,,,,,,,,,6,,,49,0
34560,note_on,2,0,7,,,,,,,,,10,,,35,60
34560,note_on,2,0,6,,,,,,,,,3,,,47,60
34560,note_on,2,0,3,,,,,,,,,0,,,59,60
34560,note_on,2,0,2,,,,,,,,,6,,,47,92
34560,note_on,2,0,1,,,,,,,,,5,,,59,108
34720,note_on,160,0,6,,,,,,,,,3,,,47,0
34720,note_on,160,0,3,,,,,,,,,0,,,59,0
34720,note_on,160,0,2,,,,,,,,,6,,,47,0
34720,note_on,160,0,7,,,,,,,,,10,,,35,0
34720,note_on,160,0,1,,,,,,,,,5,,,59,0
34848,note_on,128,0,2,,,,,,,,,6,,,54,92
34848,note_on,128,0,7,,,,,,,,,10,,,42,60
34848,note_on,128,0,6,,,,,,,,,3,,,54,60
34848,note_on,128,0,3,,,,,,,,,0,,,66,60
34848,note_on,128,0,1,,,,,,,,,5,,,66,108
34942,note_on,94,0,7,,,,,,,,,10,,,42,0
34942,note_on,94,0,6,,,,,,,,,3,,,54,0
34942,note_on,94,0,2,,,,,,,,,6,,,54,0
34942,note_on,94,0,3,,,,,,,,,0,,,66,0
34942,note_on,94,0,1,,,,,,,,,5,,,66,0
34944,note_on,2,0,3,,,,,,,,,0,,,68,60
34944,note_on,2,0,1,,,,,,,,,5,,,68,108
34944,note_on,2,0,2,,,,,,,,,6,,,56,92
34944,note_on,2,0,6,,,,,,,,,3,,,56,60
34944,note_on,2,0,7,,,,,,,,,10,,,44,60
35038,note_on,94,0,6,,,,,,,,,3,,,56,0
35038,note_on,94,0,7,,,,,,,,,10,,,44,0
35038,note_on,94,0,2,,,,,,,,,6,,,56,0
35038,note_on,94,0,1,,,,,,,,,5,,,68,0
35038,note_on,94,0,3,,,,,,,,,0,,,68,0
35040,note_on,2,0,6,,,,,,,,,3,,,54,60
35040,note_on,2,0,1,,,,,,,,,5,,,66,108
35040,note_on,2,0,2,,,,,,,,,6,,,54,92
35040,note_on,2,0,3,,,,,,,,,0,,,66,60
35040,note_on,2,0,7,,,,,,,,,10,,,42,60
35086,note_on,46,0,6,,,,,,,,,3,,,54,0
35086,note_on,46,0,7,,,,,,,,,10,,,42,0
35086,note_on,46,0,1,,,,,,,,,5,,,66,0
35086,note_on,46,0,2,,,,,,,,,6,,,54,0
35086,note_on,46,0,3,,,,,,,,,0,,,66,0
35088,note_on,2,0,7,,,,,,,,,10,,,40,60
35088,note_on,2,0,3,,,,,,,,,0,,,64,60
35088,note_on,2,0,2,,,,,,,,,6,,,52,92
35088,note_on,2,0,1,,,,,,,,,5,,,64,108
35088,note_on,2,0,6,,,,,,,,,3,,,52,60
35134,note_on,46,0,6,,,,,,,,,3,,,52,0
35134,note_on,46,0,2,,,,,,,,,6,,,52,0
35134,note_on,46,0,3,,,,,,,,,0,,,64,0
35134,note_on,46,0,1,,,,,,,,,5,,,64,0
35134,note_on,46,0,7,,,,,,,,,10,,,40,0
35136,note_on,2,0,7,,,,,,,,,10,,,47,60
35136,note_on,2,0,6,,,,,,,,,3,,,59,60
35136,note_on,2,0,3,,,,,,,,,0,,,71,60
35136,note_on,2,0,2,,,,,,,,,6,,,59,92
35136,note_on,2,0,1,,,,,,,,,5,,,71,108
35230,note_on,94,0,7,,,,,,,,,10,,,47,0
35230,note_on,94,0,3,,,,,,,,,0,,,71,0
35230,note_on,94,0,2,,,,,,,,,6,,,59,0
35230,note_on,94,0,6,,,,,,,,,3,,,59,0
35230,note_on,94,0,1,,,,,,,,,5,,,71,0
35232,note_on,2,0,6,,,,,,,,,3,,,47,60
35232,note_on,2,0,1,,,,,,,,,5,,,59,108
35232,note_on,2,0,2,,,,,,,,,6,,,47,92
35232,note_on,2,0,7,,,,,,,,,10,,,35,60
35232,note_on,2,0,3,,,,,,,,,0,,,59,60
35326,note_on,94,0,2,,,,,,,,,6,,,47,0
35326,note_on,94,0,6,,,,,,,,,3,,,47,0
35326,note_on,94,0,1,,,,,,,,,5,,,59,0
35326,note_on,94,0,7,,,,,,,,,10,,,35,0
35326,note_on,94,0,3,,,,,,,,,0,,,59,0
35328,note_on,2,0,2,,,,,,,,,6,,,52,92
35328,note_on,2,0,1,,,,,,,,,5,,,76,108
35328,note_on,2,0,6,,,,,,,,,3,,,52,60
35328,note_on,8288,0,5,,,,,,,,,2,,,64,45
35328,note_on,2,0,3,,,,,,,,,0,,,80,45
35328,note_on,8288,0,4,,,,,,,,,1,,,71,45
35374,note_on,46,0,1,,,,,,,,,5,,,76,0
35376,note_on,2,0,1,,,,,,,,,5,,,80,108
35396,note_on,68,0,4,,,,,,,,,1,,,71,0
35396,note_on,68,0,5,,,,,,,,,2,,,64,0
35396,note_on,68,0,3,,,,,,,,,0,,,80,0
35422,note_on,46,0,1,,,,,,,,,5,,,80,0
35424,note_on,28,0,4,,,,,,,,,1,,,71,45
35424,note_on,2,0,1,,,,,,,,,5,,,83,108
35424,note_on,28,0,5,,,,,,,,,2,,,64,45
35424,note_on,28,0,3,,,,,,,,,0,,,80,45
35470,note_on,46,0,1,,,,,,,,,5,,,83,0
35472,note_on,2,0,1,,,,,,,,,5,,,80,108
35488,note_on,160,0,6,,,,,,,,,3,,,52,0
35488,note_on,160,0,2,,,,,,,,,6,,,52,0
35492,note_on,68,0,5,,,,,,,,,2,,,64,0
35492,note_on,68,0,4,,,,,,,,,1,,,71,0
35492,note_on,68,0,3,,,,,,,,,0,,,80,0
35518,note_on,46,0,1,,,,,,,,,5,,,80,0
35520,note_on,28,0,3,,,,,,,,,0,,,80,45
35520,note_on,2,0,1,,,,,,,,,5,,,83,108
35520,note_on,28,0,5,,,,,,,,,2,,,64,45
35520,note_on,28,0,4,,,,,,,,,1,,,71,45
35566,note_on,46,0,1,,,,,,,,,5,,,83,0
35568,note_on,2,0,1,,,,,,,,,5,,,80,108
35588,note_on,68,0,5,,,,,,,,,2,,,64,0
35588,note_on,68,0,4,,,,,,,,,1,,,71,0
35588,note_on,68,0,3,,,,,,,,,0,,,80,0
35614,note_on,46,0,1,,,,,,,,,5,,,80,0
35616,note_on,28,0,4,,,,,,,,,1,,,71,45
35616,note_on,28,0,3,,,,,,,,,0,,,80,45
35616,note_on,2,0,1,,,,,,,,,5,,,76,108
35616,note_on,28,0,5,,,,,,,,,2,,,64,45
35662,note_on,46,0,1,,,,,,,,,5,,,76,0
35664,note_on,2,0,1,,,,,,,,,5,,,80,108
35684,note_on,68,0,5,,,,,,,,,2,,,64,0
35684,note_on,68,0,3,,,,,,,,,0,,,80,0
35684,note_on,68,0,4,,,,,,,,,1,,,71,0
35710,note_on,46,0,1,,,,,,,,,5,,,80,0
35712,note_on,28,0,5,,,,,,,,,2,,,64,45
35712,note_on,28,0,4,,,,,,,,,1,,,71,45
35712,note_on,2,0,1,,,,,,,,,5,,,76,108
35712,note_on,28,0,3,,,,,,,,,0,,,80,45
35758,note_on,46,0,1,,,,,,,,,5,,,76,0
35760,note_on,2,0,1,,,,,,,,,5,,,80,108
35780,note_on,68,0,4,,,,,,,,,1,,,71,0
35780,note_on,68,0,5,,,,,,,,,2,,,64,0
35780,note_on,68,0,3,,,,,,,,,0,,,80,0
35806,note_on,46,0,1,,,,,,,,,5,,,80,0
35808,note_on,2,0,1,,,,,,,,,5,,,83,108
35808,note_on,28,0,3,,,,,,,,,0,,,80,45
35808,note_on,28,0,4,,,,,,,,,1,,,71,45
35808,note_on,28,0,5,,,,,,,,,2,,,64,45
35854,note_on,46,0,1,,,,,,,,,5,,,83,0
35856,note_on,2,0,1,,,,,,,,,5,,,80,108
35876,note_on,68,0,5,,,,,,,,,2,,,64,0
35876,note_on,68,0,4,,,,,,,,,1,,,71,0
35876,note_on,68,0,3,,,,,,,,,0,,,80,0
35902,note_on,46,0,1,,,,,,,,,5,,,80,0
35904,note_on,28,0,5,,,,,,,,,2,,,64,45
35904,note_on,2,0,1,,,,,,,,,5,,,83,108
35904,note_on,28,0,4,,,,,,,,,1,,,71,45
35904,note_on,28,0,3,,,,,,,,,0,,,80,45
35950,note_on,46,0,1,,,,,,,,,5,,,83,0
35952,note_on,2,0,1,,,,,,,,,5,,,80,108
35972,note_on,68,0,4,,,,,,,,,1,,,71,0
35972,note_on,68,0,3,,,,,,,,,0,,,80,0
35972,note_on,68,0,5,,,,,,,,,2,,,64,0
35998,note_on,46,0,1,,,,,,,,,5,,,80,0
36000,note_on,28,0,4,,,,,,,,,1,,,71,45
36000,note_on,28,0,5,,,,,,,,,2,,,64,45
36000,note_on,28,0,3,,,,,,,,,0,,,80,45
36000,note_on,2,0,1,,,,,,,,,5,,,76,108
36046,note_on,46,0,1,,,,,,,,,5,,,76,0
36048,note_on,2,0,1,,,,,,,,,5,,,80,108
36068,note_on,68,0,4,,,,,,,,,1,,,71,0
36068,note_on,68,0,5,,,,,,,,,2,,,64,0
36068,note_on,68,0,3,,,,,,,,,0,,,80,0
36094,note_on,46,0,1,,,,,,,,,5,,,80,0
36096,note_on,28,0,3,,,,,,,,,0,,,78,45
36096,note_on,2,0,1,,,,,,,,,5,,,75,108
36096,note_on,0,0,2,,,,,,,,,6,,,54,92
36096,note_on,608,0,6,,,,,,,,,3,,,47,60
36096,note_on,28,0,4,,,,,,,,,1,,,75,45
36096,note_on,608,0,2,,,,,,,,,6,,,47,92
36096,note_on,28,0,5,,,,,,,,,2,,,59,45
36096,note_on,0,0,2,,,,,,,,,6,,,59,92
36142,note_on,46,0,1,,,,,,,,,5,,,75,0
36144,note_on,2,0,1,,,,,,,,,5,,,78,108
36164,note_on,68,0,5,,,,,,,,,2,,,59,0
36164,note_on,68,0,3,,,,,,,,,0,,,78,0
36164,note_on,68,0,4,,,,,,,,,1,,,75,0
36190,note_on,46,0,1,,,,,,,,,5,,,78,0
36192,note_on,28,0,5,,,,,,,,,2,,,59,45
36192,note_on,28,0,3,,,,,,,,,0,,,78,45
36192,note_on,28,0,4,,,,,,,,,1,,,75,45
36192,note_on,2,0,1,,,,,,,,,5,,,83,108
36238,note_on,46,0,1,,,,,,,,,5,,,83,0
36240,note_on,2,0,1,,,,,,,,,5,,,78,108
36256,note_on,160,0,6,,,,,,,,,3,,,47,0
36256,note_on,0,0,2,,,,,,,,,6,,,59,0
36256,note_on,0,0,2,,,,,,,,,6,,,54,0
36256,note_on,160,0,2,,,,,,,,,6,,,47,0
36260,note_on,68,0,3,,,,,,,,,0,,,78,0
36260,note_on,68,0,5,,,,,,,,,2,,,59,0
36260,note_on,68,0,4,,,,,,,,,1,,,75,0
36286,note_on,46,0,1,,,,,,,,,5,,,78,0
36288,note_on,28,0,5,,,,,,,,,2,,,59,45
36288,note_on,28,0,4,,,,,,,,,1,,,75,45
36288,note_on,28,0,3,,,,,,,,,0,,,78,45
36288,note_on,2,0,1,,,,,,,,,5,,,83,108
36334,note_on,46,0,1,,,,,,,,,5,,,83,0
36336,note_on,2,0,1,,,,,,,,,5,,,78,108
36356,note_on,68,0,5,,,,,,,,,2,,,59,0
36356,note_on,68,0,4,,,,,,,,,1,,,75,0
36356,note_on,68,0,3,,,,,,,,,0,,,78,0
36382,note_on,46,0,1,,,,,,,,,5,,,78,0
36384,note_on,28,0,5,,,,,,,,,2,,,59,45
36384,note_on,28,0,4,,,,,,,,,1,,,75,45
36384,note_on,28,0,3,,,,,,,,,0,,,78,45
36384,note_on,2,0,1,,,,,,,,,5,,,75,108
36430,note_on,46,0,1,,,,,,,,,5,,,75,0
36432,note_on,2,0,1,,,,,,,,,5,,,78,108
36452,note_on,68,0,5,,,,,,,,,2,,,59,0
36452,note_on,68,0,3,,,,,,,,,0,,,78,0
36452,note_on,68,0,4,,,,,,,,,1,,,75,0
36478,note_on,46,0,1,,,,,,,,,5,,,78,0
36480,note_on,28,0,5,,,,,,,,,2,,,59,45
36480,note_on,28,0,4,,,,,,,,,1,,,75,45
36480,note_on,28,0,3,,,,,,,,,0,,,78,45
36480,note_on,2,0,1,,,,,,,,,5,,,75,108
36526,note_on,46,0,1,,,,,,,,,5,,,75,0
36528,note_on,2,0,1,,,,,,,,,5,,,78,108
36548,note_on,68,0,3,,,,,,,,,0,,,78,0
36548,note_on,68,0,4,,,,,,,,,1,,,75,0
36548,note_on,68,0,5,,,,,,,,,2,,,59,0
36574,note_on,46,0,1,,,,,,,,,5,,,78,0
36576,note_on,28,0,5,,,,,,,,,2,,,59,45
36576,note_on,28,0,3,,,,,,,,,0,,,78,45
36576,note_on,28,0,4,,,,,,,,,1,,,75,45
36576,note_on,2,0,1,,,,,,,,,5,,,83,108
36622,note_on,46,0,1,,,,,,,,,5,,,83,0
36624,note_on,2,0,1,,,,,,,,,5,,,78,108
36644,note_on,68,0,3,,,,,,,,,0,,,78,0
36644,note_on,68,0,4,,,,,,,,,1,,,75,0
36644,note_on,68,0,5,,,,,,,,,2,,,59,0
36670,note_on,46,0,1,,,,,,,,,5,,,78,0
36672,note_on,28,0,3,,,,,,,,,0,,,78,45
36672,note_on,28,0,4,,,,,,,,,1,,,75,45
36672,note_on,2,0,1,,,,,,,,,5,,,83,108
36672,note_on,28,0,5,,,,,,,,,2,,,59,45
36718,note_on,46,0,1,,,,,,,,,5,,,83,0
36720,note_on,2,0,1,,,,,,,,,5,,,78,108
36740,note_on,68,0,3,,,,,,,,,0,,,78,0
36740,note_on,68,0,5,,,,,,,,,2,,,59,0
36740,note_on,68,0,4,,,,,,,,,1,,,75,0
36766,note_on,46,0,1,,,,,,,,,5,,,78,0
36768,note_on,28,0,4,,,,,,,,,1,,,75,45
36768,note_on,2,0,1,,,,,,,,,5,,,75,108
36768,note_on,28,0,3,,,,,,,,,0,,,78,45
36768,note_on,28,0,5,,,,,,,,,2,,,59,45
36814,note_on,46,0,1,,,,,,,,,5,,,75,0
36816,note_on,2,0,1,,,,,,,,,5,,,78,108
36836,note_on,68,0,3,,,,,,,,,0,,,78,0
36836,note_on,68,0,5,,,,,,,,,2,,,59,0
36836,note_on,68,0,4,,,,,,,,,1,,,75,0
36862,note_on,46,0,1,,,,,,,,,5,,,78,0
36864,note_on,2,0,1,,,,,,,,,5,,,76,108
36864,note_on,608,0,2,,,,,,,,,6,,,52,92
36864,note_on,0,0,2,,,,,,,,,6,,,56,92
36864,note_on,0,0,2,,,,,,,,,6,,,59,92
36864,note_on,28,0,5,,,,,,,,,2,,,64,45
36864,note_on,28,0,4,,,,,,,,,1,,,71,45
36864,note_on,608,0,6,,,,,,,,,3,,,52,60
36864,note_on,28,0,3,,,,,,,,,0,,,80,45
36910,note_on,46,0,1,,,,,,,,,5,,,76,0
36912,note_on,2,0,1,,,,,,,,,5,,,80,108
36932,note_on,68,0,3,,,,,,,,,0,,,80,0
36932,note_on,68,0,5,,,,,,,,,2,,,64,0
36932,note_on,68,0,4,,,,,,,,,1,,,71,0
36958,note_on,46,0,1,,,,,,,,,5,,,80,0
36960,note_on,28,0,5,,,,,,,,,2,,,64,45
36960,note_on,28,0,3,,,,,,,,,0,,,80,45
36960,note_on,2,0,1,,,,,,,,,5,,,83,108
36960,note_on,28,0,4,,,,,,,,,1,,,71,45
37006,note_on,46,0,1,,,,,,,,,5,,,83,0
37008,note_on,2,0,1,,,,,,,,,5,,,80,108
37024,note_on,160,0,6,,,,,,,,,3,,,52,0
37024,note_on,160,0,2,,,,,,,,,6,,,52,0
37024,note_on,0,0,2,,,,,,,,,6,,,56,0
37024,note_on,0,0,2,,,,,,,,,6,,,59,0
37028,note_on,68,0,3,,,,,,,,,0,,,80,0
37028,note_on,68,0,5,,,,,,,,,2,,,64,0
37028,note_on,68,0,4,,,,,,,,,1,,,71,0
37054,note_on,46,0,1,,,,,,,,,5,,,80,0
37056,note_on,2,0,1,,,,,,,,,5,,,83,108
37056,note_on,28,0,3,,,,,,,,,0,,,80,45
37056,note_on,28,0,4,,,,,,,,,1,,,71,45
37056,note_on,28,0,5,,,,,,,,,2,,,64,45
37102,note_on,46,0,1,,,,,,,,,5,,,83,0
37104,note_on,2,0,1,,,,,,,,,5,,,80,108
37124,note_on,68,0,4,,,,,,,,,1,,,71,0
37124,note_on,68,0,3,,,,,,,,,0,,,80,0
37124,note_on,68,0,5,,,,,,,,,2,,,64,0
37150,note_on,46,0,1,,,,,,,,,5,,,80,0
37152,note_on,2,0,1,,,,,,,,,5,,,76,108
37152,note_on,28,0,4,,,,,,,,,1,,,71,45
37152,note_on,28,0,5,,,,,,,,,2,,,64,45
37152,note_on,28,0,3,,,,,,,,,0,,,80,45
37198,note_on,46,0,1,,,,,,,,,5,,,76,0
37200,note_on,2,0,1,,,,,,,,,5,,,80,108
37220,note_on,68,0,3,,,,,,,,,0,,,80,0
37220,note_on,68,0,5,,,,,,,,,2,,,64,0
37220,note_on,68,0,4,,,,,,,,,1,,,71,0
37246,note_on,46,0,1,,,,,,,,,5,,,80,0
37248,note_on,28,0,4,,,,,,,,,1,,,71,45
37248,note_on,28,0,3,,,,,,,,,0,,,80,45
37248,note_on,2,0,1,,,,,,,,,5,,,76,108
37248,note_on,28,0,5,,,,,,,,,2,,,64,45
37294,note_on,46,0,1,,,,,,,,,5,,,76,0
37296,note_on,2,0,1,,,,,,,,,5,,,80,108
37316,note_on,68,0,5,,,,,,,,,2,,,64,0
37316,note_on,68,0,3,,,,,,,,,0,,,80,0
37316,note_on,68,0,4,,,,,,,,,1,,,71,0
37342,note_on,46,0,1,,,,,,,,,5,,,80,0
37344,note_on,28,0,4,,,,,,,,,1,,,71,45
37344,note_on,28,0,3,,,,,,,,,0,,,80,45
37344,note_on,2,0,1,,,,,,,,,5,,,83,108
37344,note_on,28,0,5,,,,,,,,,2,,,64,45
37390,note_on,46,0,1,,,,,,,,,5,,,83,0
37392,note_on,2,0,1,,,,,,,,,5,,,80,108
37412,note_on,68,0,5,,,,,,,,,2,,,64,0
37412,note_on,68,0,3,,,,,,,,,0,,,80,0
37412,note_on,68,0,4,,,,,,,,,1,,,71,0
37438,note_on,46,0,1,,,,,,,,,5,,,80,0
37440,note_on,2,0,1,,,,,,,,,5,,,83,108
37440,note_on,28,0,5,,,,,,,,,2,,,64,45
37440,note_on,28,0,3,,,,,,,,,0,,,80,45
37440,note_on,28,0,4,,,,,,,,,1,,,71,45
37486,note_on,46,0,1,,,,,,,,,5,,,83,0
37488,note_on,2,0,1,,,,,,,,,5,,,80,108
37508,note_on,68,0,4,,,,,,,,,1,,,71,0
37508,note_on,68,0,3,,,,,,,,,0,,,80,0
37508,note_on,68,0,5,,,,,,,,,2,,,64,0
37534,note_on,46,0,1,,,,,,,,,5,,,80,0
37536,note_on,28,0,4,,,,,,,,,1,,,71,45
37536,note_on,2,0,1,,,,,,,,,5,,,76,108
37536,note_on,28,0,3,,,,,,,,,0,,,80,45
37536,note_on,28,0,5,,,,,,,,,2,,,64,45
37582,note_on,46,0,1,,,,,,,,,5,,,76,0
37584,note_on,2,0,1,,,,,,,,,5,,,80,108
37604,note_on,68,0,4,,,,,,,,,1,,,71,0
37604,note_on,68,0,3,,,,,,,,,0,,,80,0
37604,note_on,68,0,5,,,,,,,,,2,,,64,0
37630,note_on,46,0,1,,,,,,,,,5,,,80,0
37632,note_on,28,0,4,,,,,,,,,1,,,71,45
37632,note_on,0,0,2,,,,,,,,,6,,,64,92
37632,note_on,608,0,6,,,,,,,,,3,,,52,60
37632,note_on,28,0,3,,,,,,,,,0,,,80,45
37632,note_on,0,0,2,,,,,,,,,6,,,59,92
37632,note_on,608,0,2,,,,,,,,,6,,,52,92
37632,note_on,2,0,1,,,,,,,,,5,,,71,108
37632,note_on,28,0,5,,,,,,,,,2,,,64,45
37678,note_on,46,0,1,,,,,,,,,5,,,71,0
37680,note_on,2,0,1,,,,,,,,,5,,,76,108
37700,note_on,68,0,5,,,,,,,,,2,,,64,0
37700,note_on,68,0,4,,,,,,,,,1,,,71,0
37700,note_on,68,0,3,,,,,,,,,0,,,80,0
37726,note_on,46,0,1,,,,,,,,,5,,,76,0
37728,note_on,28,0,3,,,,,,,,,0,,,80,45
37728,note_on,28,0,5,,,,,,,,,2,,,64,45
37728,note_on,28,0,4,,,,,,,,,1,,,71,45
37728,note_on,2,0,1,,,,,,,,,5,,,80,108
37774,note_on,46,0,1,,,,,,,,,5,,,80,0
37776,note_on,2,0,1,,,,,,,,,5,,,76,108
37792,note_on,160,0,6,,,,,,,,,3,,,52,0
37792,note_on,0,0,2,,,,,,,,,6,,,64,0
37792,note_on,0,0,2,,,,,,,,,6,,,59,0
37792,note_on,160,0,2,,,,,,,,,6,,,52,0
37796,note_on,68,0,4,,,,,,,,,1,,,71,0
37796,note_on,68,0,3,,,,,,,,,0,,,80,0
37796,note_on,68,0,5,,,,,,,,,2,,,64,0
37822,note_on,46,0,1,,,,,,,,,5,,,76,0
37824,note_on,28,0,5,,,,,,,,,2,,,64,45
37824,note_on,28,0,4,,,,,,,,,1,,,71,45
37824,note_on,28,0,3,,,,,,,,,0,,,80,45
37824,note_on,2,0,1,,,,,,,,,5,,,80,108
37870,note_on,46,0,1,,,,,,,,,5,,,80,0
37872,note_on,2,0,1,,,,,,,,,5,,,76,108
37892,note_on,68,0,3,,,,,,,,,0,,,80,0
37892,note_on,68,0,5,,,,,,,,,2,,,64,0
37892,note_on,68,0,4,,,,,,,,,1,,,71,0
37918,note_on,46,0,1,,,,,,,,,5,,,76,0
37920,note_on,2,0,1,,,,,,,,,5,,,71,108
37920,note_on,28,0,3,,,,,,,,,0,,,80,45
37920,note_on,28,0,5,,,,,,,,,2,,,64,45
37920,note_on,28,0,4,,,,,,,,,1,,,71,45
37966,note_on,46,0,1,,,,,,,,,5,,,71,0
37968,note_on,2,0,1,,,,,,,,,5,,,76,108
37988,note_on,68,0,4,,,,,,,,,1,,,71,0
37988,note_on,68,0,3,,,,,,,,,0,,,80,0
37988,note_on,68,0,5,,,,,,,,,2,,,64,0
38014,note_on,46,0,1,,,,,,,,,5,,,76,0
38016,note_on,28,0,3,,,,,,,,,0,,,80,45
38016,note_on,2,0,1,,,,,,,,,5,,,71,108
38016,note_on,28,0,4,,,,,,,,,1,,,71,45
38016,note_on,28,0,5,,,,,,,,,2,,,64,45
38062,note_on,46,0,1,,,,,,,,,5,,,71,0
38064,note_on,2,0,1,,,,,,,,,5,,,76,108
38084,note_on,68,0,3,,,,,,,,,0,,,80,0
38084,note_on,68,0,5,,,,,,,,,2,,,64,0
38084,note_on,68,0,4,,,,,,,,,1,,,71,0
38110,note_on,46,0,1,,,,,,,,,5,,,76,0
38112,note_on,28,0,4,,,,,,,,,1,,,71,45
38112,note_on,28,0,5,,,,,,,,,2,,,64,45
38112,note_on,28,0,3,,,,,,,,,0,,,80,45
38112,note_on,2,0,1,,,,,,,,,5,,,80,108
38158,note_on,46,0,1,,,,,,,,,5,,,80,0
38160,note_on,2,0,1,,,,,,,,,5,,,76,108
38180,note_on,68,0,5,,,,,,,,,2,,,64,0
38180,note_on,68,0,4,,,,,,,,,1,,,71,0
38180,note_on,68,0,3,,,,,,,,,0,,,80,0
38206,note_on,46,0,1,,,,,,,,,5,,,76,0
38208,note_on,28,0,3,,,,,,,,,0,,,80,45
38208,note_on,28,0,4,,,,,,,,,1,,,76,45
38208,note_on,28,0,5,,,,,,,,,2,,,64,45
38208,note_on,2,0,1,,,,,,,,,5,,,80,108
38254,note_on,46,0,1,,,,,,,,,5,,,80,0
38256,note_on,2,0,1,,,,,,,,,5,,,76,108
38276,note_on,68,0,3,,,,,,,,,0,,,80,0
38276,note_on,68,0,4,,,,,,,,,1,,,76,0
38276,note_on,68,0,5,,,,,,,,,2,,,64,0
38302,note_on,46,0,1,,,,,,,,,5,,,76,0
38304,note_on,28,0,3,,,,,,,,,0,,,80,45
38304,note_on,28,0,4,,,,,,,,,1,,,76,45
38304,note_on,28,0,5,,,,,,,,,2,,,64,45
38304,note_on,2,0,1,,,,,,,,,5,,,71,108
38350,note_on,46,0,1,,,,,,,,,5,,,71,0
38352,note_on,2,0,1,,,,,,,,,5,,,76,108
38372,note_on,68,0,3,,,,,,,,,0,,,80,0
38372,note_on,68,0,5,,,,,,,,,2,,,64,0
38372,note_on,68,0,4,,,,,,,,,1,,,76,0
38398,note_on,46,0,1,,,,,,,,,5,,,76,0
38400,note_on,0,0,2,,,,,,,,,6,,,61,92
38400,note_on,0,0,2,,,,,,,,,6,,,58,92
38400,note_on,608,0,6,,,,,,,,,3,,,54,60
38400,note_on,28,0,5,,,,,,,,,2,,,66,45
38400,note_on,608,0,2,,,,,,,,,6,,,54,92
38400,note_on,28,0,3,,,,,,,,,0,,,82,45
38400,note_on,2,0,1,,,,,,,,,5,,,76,108
38400,note_on,28,0,4,,,,,,,,,1,,,76,45
38446,note_on,46,0,1,,,,,,,,,5,,,76,0
38448,note_on,2,0,1,,,,,,,,,5,,,82,108
38468,note_on,68,0,4,,,,,,,,,1,,,76,0
38468,note_on,68,0,3,,,,,,,,,0,,,82,0
38468,note_on,68,0,5,,,,,,,,,2,,,66,0
38494,note_on,46,0,1,,,,,,,,,5,,,82,0
38496,note_on,2,0,1,,,,,,,,,5,,,85,108
38496,note_on,28,0,4,,,,,,,,,1,,,76,45
38496,note_on,28,0,3,,,,,,,,,0,,,82,45
38496,note_on,28,0,5,,,,,,,,,2,,,66,45
38542,note_on,46,0,1,,,,,,,,,5,,,85,0
38544,note_on,2,0,1,,,,,,,,,5,,,82,108
38560,note_on,160,0,2,,,,,,,,,6,,,54,0
38560,note_on,0,0,2,,,,,,,,,6,,,58,0
38560,note_on,160,0,6,,,,,,,,,3,,,54,0
38560,note_on,0,0,2,,,,,,,,,6,,,61,0
38564,note_on,68,0,4,,,,,,,,,1,,,76,0
38564,note_on,68,0,3,,,,,,,,,0,,,82,0
38564,note_on,68,0,5,,,,,,,,,2,,,66,0
38590,note_on,46,0,1,,,,,,,,,5,,,82,0
38592,note_on,28,0,3,,,,,,,,,0,,,82,45
38592,note_on,28,0,4,,,,,,,,,1,,,76,45
38592,note_on,28,0,5,,,,,,,,,2,,,66,45
38592,note_on,2,0,1,,,,,,,,,5,,,85,108
38638,note_on,46,0,1,,,,,,,,,5,,,85,0
38640,note_on,2,0,1,,,,,,,,,5,,,82,108
38660,note_on,68,0,4,,,,,,,,,1,,,76,0
38660,note_on,68,0,3,,,,,,,,,0,,,82,0
38660,note_on,68,0,5,,,,,,,,,2,,,66,0
38686,note_on,46,0,1,,,,,,,,,5,,,82,0
38688,note_on,28,0,5,,,,,,,,,2,,,66,45
38688,note_on,28,0,4,,,,,,,,,1,,,76,45
38688,note_on,2,0,1,,,,,,,,,5,,,76,108
38688,note_on,28,0,3,,,,,,,,,0,,,82,45
38734,note_on,46,0,1,,,,,,,,,5,,,76,0
38736,note_on,2,0,1,,,,,,,,,5,,,82,108
38756,note_on,68,0,4,,,,,,,,,1,,,76,0
38756,note_on,68,0,3,,,,,,,,,0,,,82,0
38756,note_on,68,0,5,,,,,,,,,2,,,66,0
38782,note_on,46,0,1,,,,,,,,,5,,,82,0
38784,note_on,28,0,4,,,,,,,,,1,,,76,45
38784,note_on,28,0,3,,,,,,,,,0,,,82,45
38784,note_on,28,0,5,,,,,,,,,2,,,66,45
38784,note_on,2,0,1,,,,,,,,,5,,,76,108
38830,note_on,46,0,1,,,,,,,,,5,,,76,0
38832,note_on,2,0,1,,,,,,,,,5,,,82,108
38852,note_on,68,0,4,,,,,,,,,1,,,76,0
38852,note_on,68,0,5,,,,,,,,,2,,,66,0
38852,note_on,68,0,3,,,,,,,,,0,,,82,0
38878,note_on,46,0,1,,,,,,,,,5,,,82,0
38880,note_on,28,0,3,,,,,,,,,0,,,82,45
38880,note_on,28,0,4,,,,,,,,,1,,,76,45
38880,note_on,2,0,1,,,,,,,,,5,,,85,108
38880,note_on,28,0,5,,,,,,,,,2,,,66,45
38926,note_on,46,0,1,,,,,,,,,5,,,85,0
38928,note_on,2,0,1,,,,,,,,,5,,,82,108
38948,note_on,68,0,3,,,,,,,,,0,,,82,0
38948,note_on,68,0,5,,,,,,,,,2,,,66,0
38948,note_on,68,0,4,,,,,,,,,1,,,76,0
38974,note_on,46,0,1,,,,,,,,,5,,,82,0
38976,note_on,28,0,5,,,,,,,,,2,,,66,45
38976,note_on,28,0,3,,,,,,,,,0,,,82,45
38976,note_on,28,0,4,,,,,,,,,1,,,76,45
38976,note_on,2,0,1,,,,,,,,,5,,,85,108
39022,note_on,46,0,1,,,,,,,,,5,,,85,0
39024,note_on,2,0,1,,,,,,,,,5,,,82,108
39044,note_on,68,0,5,,,,,,,,,2,,,66,0
39044,note_on,68,0,4,,,,,,,,,1,,,76,0
39044,note_on,68,0,3,,,,,,,,,0,,,82,0
39070,note_on,46,0,1,,,,,,,,,5,,,82,0
39072,note_on,28,0,5,,,,,,,,,2,,,66,45
39072,note_on,28,0,4,,,,,,,,,1,,,76,45
39072,note_on,2,0,1,,,,,,,,,5,,,76,108
39072,note_on,28,0,3,,,,,,,,,0,,,82,45
39118,note_on,46,0,1,,,,,,,,,5,,,76,0
39120,note_on,2,0,1,,,,,,,,,5,,,82,108
39140,note_on,68,0,4,,,,,,,,,1,,,76,0
39140,note_on,68,0,5,,,,,,,,,2,,,66,0
39140,note_on,68,0,3,,,,,,,,,0,,,82,0
39166,note_on,46,0,1,,,,,,,,,5,,,82,0
39168,note_on,0,0,2,,,,,,,,,6,,,59,92
39168,note_on,0,0,2,,,,,,,,,6,,,54,92
39168,note_on,608,0,2,,,,,,,,,6,,,47,92
39168,note_on,28,0,3,,,,,,,,,0,,,78,45
39168,note_on,28,0,5,,,,,,,,,2,,,59,45
39168,note_on,2,0,1,,,,,,,,,5,,,78,108
39168,note_on,608,0,6,,,,,,,,,3,,,47,60
39168,note_on,28,0,4,,,,,,,,,1,,,74,45
39214,note_on,46,0,1,,,,,,,,,5,,,78,0
39216,note_on,2,0,1,,,,,,,,,5,,,83,108
39236,note_on,68,0,4,,,,,,,,,1,,,74,0
39236,note_on,68,0,5,,,,,,,,,2,,,59,0
39236,note_on,68,0,3,,,,,,,,,0,,,78,0
39262,note_on,46,0,1,,,,,,,,,5,,,83,0
39264,note_on,28,0,4,,,,,,,,,1,,,74,45
39264,note_on,28,0,3,,,,,,,,,0,,,78,45
39264,note_on,28,0,5,,,,,,,,,2,,,59,45
39264,note_on,2,0,1,,,,,,,,,5,,,86,108
39310,note_on,46,0,1,,,,,,,,,5,,,86,0
39312,note_on,2,0,1,,,,,,,,,5,,,83,108
39328,note_on,0,0,2,,,,,,,,,6,,,59,0
39328,note_on,0,0,2,,,,,,,,,6,,,54,0
39328,note_on,160,0,6,,,,,,,,,3,,,47,0
39328,note_on,160,0,2,,,,,,,,,6,,,47,0
39332,note_on,68,0,5,,,,,,,,,2,,,59,0
39332,note_on,68,0,4,,,,,,,,,1,,,74,0
39332,note_on,68,0,3,,,,,,,,,0,,,78,0
39358,note_on,46,0,1,,,,,,,,,5,,,83,0
39360,note_on,28,0,3,,,,,,,,,0,,,78,45
39360,note_on,28,0,4,,,,,,,,,1,,,74,45
39360,note_on,2,0,1,,,,,,,,,5,,,86,108
39360,note_on,28,0,5,,,,,,,,,2,,,59,45
39406,note_on,46,0,1,,,,,,,,,5,,,86,0
39408,note_on,2,0,1,,,,,,,,,5,,,83,108
39428,note_on,68,0,5,,,,,,,,,2,,,59,0
39428,note_on,68,0,3,,,,,,,,,0,,,78,0
39428,note_on,68,0,4,,,,,,,,,1,,,74,0
39454,note_on,46,0,1,,,,,,,,,5,,,83,0
39456,note_on,28,0,4,,,,,,,,,1,,,74,45
39456,note_on,2,0,1,,,,,,,,,5,,,78,108
39456,note_on,28,0,5,,,,,,,,,2,,,59,45
39456,note_on,28,0,3,,,,,,,,,0,,,78,45
39502,note_on,46,0,1,,,,,,,,,5,,,78,0
39504,note_on,2,0,1,,,,,,,,,5,,,83,108
39524,note_on,68,0,3,,,,,,,,,0,,,78,0
39524,note_on,68,0,4,,,,,,,,,1,,,74,0
39524,note_on,68,0,5,,,,,,,,,2,,,59,0
39550,note_on,46,0,1,,,,,,,,,5,,,83,0
39552,note_on,2,0,1,,,,,,,,,5,,,78,108
39552,note_on,28,0,5,,,,,,,,,2,,,59,45
39552,note_on,28,0,4,,,,,,,,,1,,,74,45
39552,note_on,28,0,3,,,,,,,,,0,,,78,45
39598,note_on,46,0,1,,,,,,,,,5,,,78,0
39600,note_on,2,0,1,,,,,,,,,5,,,83,108
39620,note_on,68,0,3,,,,,,,,,0,,,78,0
39620,note_on,68,0,5,,,,,,,,,2,,,59,0
39620,note_on,68,0,4,,,,,,,,,1,,,74,0
39646,note_on,46,0,1,,,,,,,,,5,,,83,0
39648,note_on,2,0,1,,,,,,,,,5,,,86,108
39648,note_on,28,0,3,,,,,,,,,0,,,78,45
39648,note_on,28,0,5,,,,,,,,,2,,,59,45
39648,note_on,28,0,4,,,,,,,,,1,,,74,45
39694,note_on,46,0,1,,,,,,,,,5,,,86,0
39696,note_on,2,0,1,,,,,,,,,5,,,83,108
39716,note_on,68,0,4,,,,,,,,,1,,,74,0
39716,note_on,68,0,3,,,,,,,,,0,,,78,0
39716,note_on,68,0,5,,,,,,,,,2,,,59,0
39742,note_on,46,0,1,,,,,,,,,5,,,83,0
39744,note_on,2,0,1,,,,,,,,,5,,,86,108
39744,note_on,28,0,4,,,,,,,,,1,,,74,45
39744,note_on,28,0,5,,,,,,,,,2,,,59,45
39744,note_on,28,0,3,,,,,,,,,0,,,78,45
39790,note_on,46,0,1,,,,,,,,,5,,,86,0
39792,note_on,2,0,1,,,,,,,,,5,,,83,108
39812,note_on,68,0,3,,,,,,,,,0,,,78,0
39812,note_on,68,0,4,,,,,,,,,1,,,74,0
39812,note_on,68,0,5,,,,,,,,,2,,,59,0
39838,note_on,46,0,1,,,,,,,,,5,,,83,0
39840,note_on,28,0,3,,,,,,,,,0,,,78,45
39840,note_on,28,0,4,,,,,,,,,1,,,74,45
39840,note_on,28,0,5,,,,,,,,,2,,,59,45
39840,note_on,2,0,1,,,,,,,,,5,,,78,108
39886,note_on,46,0,1,,,,,,,,,5,,,78,0
39888,note_on,2,0,1,,,,,,,,,5,,,83,108
39908,note_on,68,0,4,,,,,,,,,1,,,74,0
39908,note_on,68,0,3,,,,,,,,,0,,,78,0
39908,note_on,68,0,5,,,,,,,,,2,,,59,0
39934,note_on,46,0,1,,,,,,,,,5,,,83,0
39936,note_on,2,0,1,,,,,,,,,5,,,77,108
39936,note_on,28,0,4,,,,,,,,,1,,,68,45
39936,note_on,0,0,2,,,,,,,,,6,,,56,92
39936,note_on,28,0,5,,,,,,,,,2,,,61,45
39936,note_on,608,0,6,,,,,,,,,3,,,49,60
39936,note_on,28,0,3,,,,,,,,,0,,,77,45
39936,note_on,608,0,2,,,,,,,,,6,,,49,92
39982,note_on,46,0,1,,,,,,,,,5,,,77,0
39984,note_on,2,0,1,,,,,,,,,5,,,83,108
40004,note_on,68,0,4,,,,,,,,,1,,,68,0
40004,note_on,68,0,3,,,,,,,,,0,,,77,0
40004,note_on,68,0,5,,,,,,,,,2,,,61,0
40030,note_on,46,0,1,,,,,,,,,5,,,83,0
40032,note_on,28,0,4,,,,,,,,,1,,,68,45
40032,note_on,28,0,3,,,,,,,,,0,,,77,45
40032,note_on,28,0,5,,,,,,,,,2,,,61,45
40032,note_on,2,0,1,,,,,,,,,5,,,86,108
40078,note_on,46,0,1,,,,,,,,,5,,,86,0
40080,note_on,2,0,1,,,,,,,,,5,,,83,108
40096,note_on,160,0,6,,,,,,,,,3,,,49,0
40096,note_on,160,0,2,,,,,,,,,6,,,49,0
40096,note_on,0,0,2,,,,,,,,,6,,,56,0
40100,note_on,68,0,3,,,,,,,,,0,,,77,0
40100,note_on,68,0,5,,,,,,,,,2,,,61,0
40100,note_on,68,0,4,,,,,,,,,1,,,68,0
40126,note_on,46,0,1,,,,,,,,,5,,,83,0
40128,note_on,28,0,5,,,,,,,,,2,,,61,45
40128,note_on,28,0,3,,,,,,,,,0,,,77,45
40128,note_on,2,0,1,,,,,,,,,5,,,86,108
40128,note_on,28,0,4,,,,,,,,,1,,,68,45
40174,note_on,46,0,1,,,,,,,,,5,,,86,0
40176,note_on,2,0,1,,,,,,,,,5,,,83,108
40196,note_on,68,0,4,,,,,,,,,1,,,68,0
40196,note_on,68,0,3,,,,,,,,,0,,,77,0
40196,note_on,68,0,5,,,,,,,,,2,,,61,0
40222,note_on,46,0,1,,,,,,,,,5,,,83,0
40224,note_on,2,0,1,,,,,,,,,5,,,77,108
40224,note_on,28,0,3,,,,,,,,,0,,,77,45
40224,note_on,28,0,5,,,,,,,,,2,,,61,45
40224,note_on,28,0,4,,,,,,,,,1,,,68,45
40270,note_on,46,0,1,,,,,,,,,5,,,77,0
40272,note_on,2,0,1,,,,,,,,,5,,,83,108
40292,note_on,68,0,4,,,,,,,,,1,,,68,0
40292,note_on,68,0,5,,,,,,,,,2,,,61,0
40292,note_on,68,0,3,,,,,,,,,0,,,77,0
40318,note_on,46,0,1,,,,,,,,,5,,,83,0
40320,note_on,28,0,5,,,,,,,,,2,,,61,45
40320,note_on,28,0,3,,,,,,,,,0,,,77,45
40320,note_on,2,0,1,,,,,,,,,5,,,77,108
40320,note_on,28,0,4,,,,,,,,,1,,,68,45
40366,note_on,46,0,1,,,,,,,,,5,,,77,0
40368,note_on,2,0,1,,,,,,,,,5,,,83,108
40388,note_on,68,0,3,,,,,,,,,0,,,77,0
40388,note_on,68,0,4,,,,,,,,,1,,,68,0
40388,note_on,68,0,5,,,,,,,,,2,,,61,0
40414,note_on,46,0,1,,,,,,,,,5,,,83,0
40416,note_on,28,0,3,,,,,,,,,0,,,77,45
40416,note_on,2,0,1,,,,,,,,,5,,,86,108
40416,note_on,28,0,4,,,,,,,,,1,,,68,45
40416,note_on,28,0,5,,,,,,,,,2,,,61,45
40462,note_on,46,0,1,,,,,,,,,5,,,86,0
40464,note_on,2,0,1,,,,,,,,,5,,,83,108
40484,note_on,68,0,3,,,,,,,,,0,,,77,0
40484,note_on,68,0,5,,,,,,,,,2,,,61,0
40484,note_on,68,0,4,,,,,,,,,1,,,68,0
40510,note_on,46,0,1,,,,,,,,,5,,,83,0
40512,note_on,28,0,4,,,,,,,,,1,,,68,45
40512,note_on,2,0,1,,,,,,,,,5,,,86,108
40512,note_on,28,0,5,,,,,,,,,2,,,61,45
40512,note_on,28,0,3,,,,,,,,,0,,,77,45
40558,note_on,46,0,1,,,,,,,,,5,,,86,0
40560,note_on,2,0,1,,,,,,,,,5,,,83,108
40580,note_on,68,0,4,,,,,,,,,1,,,68,0
40580,note_on,68,0,5,,,,,,,,,2,,,61,0
40580,note_on,68,0,3,,,,,,,,,0,,,77,0
40606,note_on,46,0,1,,,,,,,,,5,,,83,0
40608,note_on,28,0,5,,,,,,,,,2,,,61,45
40608,note_on,28,0,3,,,,,,,,,0,,,77,45
40608,note_on,2,0,1,,,,,,,,,5,,,77,108
40608,note_on,28,0,4,,,,,,,,,1,,,68,45
40654,note_on,46,0,1,,,,,,,,,5,,,77,0
40656,note_on,2,0,1,,,,,,,,,5,,,83,108
40676,note_on,68,0,5,,,,,,,,,2,,,61,0
40676,note_on,68,0,3,,,,,,,,,0,,,77,0
40676,note_on,68,0,4,,,,,,,,,1,,,68,0
40702,note_on,46,0,1,,,,,,,,,5,,,83,0
40704,note_on,2,0,1,,,,,,,,,5,,,78,108
40704,note_on,28,0,3,,,,,,,,,0,,,73,45
40704,note_on,0,0,2,,,,,,,,,6,,,61,92
40704,note_on,28,0,5,,,,,,,,,2,,,66,45
40704,note_on,0,0,2,,,,,,,,,6,,,57,92
40704,note_on,608,0,2,,,,,,,,,6,,,54,92
40704,note_on,28,0,4,,,,,,,,,1,,,69,45
40704,note_on,608,0,6,,,,,,,,,3,,,54,60
40750,note_on,46,0,1,,,,,,,,,5,,,78,0
40752,note_on,2,0,1,,,,,,,,,5,,,81,108
40772,note_on,68,0,4,,,,,,,,,1,,,69,0
40772,note_on,68,0,3,,,,,,,,,0,,,73,0
40772,note_on,68,0,5,,,,,,,,,2,,,66,0
40798,note_on,46,0,1,,,,,,,,,5,,,81,0
40800,note_on,28,0,5,,,,,,,,,2,,,66,45
40800,note_on,28,0,3,,,,,,,,,0,,,73,45
40800,note_on,2,0,1,,,,,,,,,5,,,85,108
40800,note_on,28,0,4,,,,,,,,,1,,,69,45
40846,note_on,46,0,1,,,,,,,,,5,,,85,0
40848,note_on,2,0,1,,,,,,,,,5,,,81,108
40864,note_on,0,0,2,,,,,,,,,6,,,57,0
40864,note_on,160,0,2,,,,,,,,,6,,,54,0
40864,note_on,0,0,2,,,,,,,,,6,,,61,0
40864,note_on,160,0,6,,,,,,,,,3,,,54,0
40868,note_on,68,0,4,,,,,,,,,1,,,69,0
40868,note_on,68,0,5,,,,,,,,,2,,,66,0
40868,note_on,68,0,3,,,,,,,,,0,,,73,0
40894,note_on,46,0,1,,,,,,,,,5,,,81,0
40896,note_on,28,0,4,,,,,,,,,1,,,69,45
40896,note_on,28,0,5,,,,,,,,,2,,,66,45
40896,note_on,28,0,3,,,,,,,,,0,,,73,45
40896,note_on,2,0,1,,,,,,,,,5,,,85,108
40942,note_on,46,0,1,,,,,,,,,5,,,85,0
40944,note_on,2,0,1,,,,,,,,,5,,,81,108
40964,note_on,68,0,4,,,,,,,,,1,,,69,0
40964,note_on,68,0,5,,,,,,,,,2,,,66,0
40964,note_on,68,0,3,,,,,,,,,0,,,73,0
40990,note_on,46,0,1,,,,,,,,,5,,,81,0
40992,note_on,2,0,1,,,,,,,,,5,,,78,108
40992,note_on,28,0,3,,,,,,,,,0,,,73,45
40992,note_on,28,0,4,,,,,,,,,1,,,69,45
40992,note_on,28,0,5,,,,,,,,,2,,,66,45
41038,note_on,46,0,1,,,,,,,,,5,,,78,0
41040,note_on,2,0,1,,,,,,,,,5,,,81,108
41060,note_on,68,0,4,,,,,,,,,1,,,69,0
41060,note_on,68,0,5,,,,,,,,,2,,,66,0
41060,note_on,68,0,3,,,,,,,,,0,,,73,0
41086,note_on,46,0,1,,,,,,,,,5,,,81,0
41088,note_on,28,0,5,,,,,,,,,2,,,66,45
41088,note_on,28,0,3,,,,,,,,,0,,,73,45
41088,note_on,2,0,1,,,,,,,,,5,,,78,108
41088,note_on,28,0,4,,,,,,,,,1,,,69,45
41134,note_on,46,0,1,,,,,,,,,5,,,78,0
41136,note_on,2,0,1,,,,,,,,,5,,,81,108
41156,note_on,68,0,3,,,,,,,,,0,,,73,0
41156,note_on,68,0,5,,,,,,,,,2,,,66,0
41156,note_on,68,0,4,,,,,,,,,1,,,69,0
41182,note_on,46,0,1,,,,,,,,,5,,,81,0
41184,note_on,28,0,3,,,,,,,,,0,,,73,45
41184,note_on,28,0,5,,,,,,,,,2,,,66,45
41184,note_on,28,0,4,,,,,,,,,1,,,69,45
41184,note_on,2,0,1,,,,,,,,,5,,,85,108
41230,note_on,46,0,1,,,,,,,,,5,,,85,0
41232,note_on,2,0,1,,,,,,,,,5,,,81,108
41252,note_on,68,0,4,,,,,,,,,1,,,69,0
41252,note_on,68,0,3,,,,,,,,,0,,,73,0
41252,note_on,68,0,5,,,,,,,,,2,,,66,0
41278,note_on,46,0,1,,,,,,,,,5,,,81,0
41280,note_on,28,0,4,,,,,,,,,1,,,69,45
41280,note_on,28,0,3,,,,,,,,,0,,,73,45
41280,note_on,28,0,5,,,,,,,,,2,,,66,45
41280,note_on,2,0,1,,,,,,,,,5,,,85,108
41326,note_on,46,0,1,,,,,,,,,5,,,85,0
41328,note_on,2,0,1,,,,,,,,,5,,,81,108
41348,note_on,68,0,4,,,,,,,,,1,,,69,0
41348,note_on,68,0,3,,,,,,,,,0,,,73,0
41348,note_on,68,0,5,,,,,,,,,2,,,66,0
41374,note_on,46,0,1,,,,,,,,,5,,,81,0
41376,note_on,2,0,1,,,,,,,,,5,,,78,108
41376,note_on,28,0,4,,,,,,,,,1,,,69,45
41376,note_on,28,0,3,,,,,,,,,0,,,73,45
41376,note_on,28,0,5,,,,,,,,,2,,,66,45
41422,note_on,46,0,1,,,,,,,,,5,,,78,0
41424,note_on,2,0,1,,,,,,,,,5,,,81,108
41444,note_on,68,0,3,,,,,,,,,0,,,73,0
41444,note_on,68,0,4,,,,,,,,,1,,,69,0
41444,note_on,68,0,5,,,,,,,,,2,,,66,0
41470,note_on,46,0,1,,,,,,,,,5,,,81,0
41472,note_on,608,0,2,,,,,,,,,6,,,47,92
41472,note_on,28,0,5,,,,,,,,,2,,,59,45
41472,note_on,28,0,4,,,,,,,,,1,,,66,45
41472,note_on,0,0,2,,,,,,,,,6,,,59,92
41472,note_on,0,0,2,,,,,,,,,6,,,54,92
41472,note_on,2,0,1,,,,,,,,,5,,,75,108
41472,note_on,28,0,3,,,,,,,,,0,,,75,45
41472,note_on,608,0,6,,,,,,,,,3,,,47,60
41518,note_on,46,0,1,,,,,,,,,5,,,75,0
41520,note_on,2,0,1,,,,,,,,,5,,,78,108
41540,note_on,68,0,5,,,,,,,,,2,,,59,0
41540,note_on,68,0,4,,,,,,,,,1,,,66,0
41540,note_on,68,0,3,,,,,,,,,0,,,75,0
41566,note_on,46,0,1,,,,,,,,,5,,,78,0
41568,note_on,2,0,1,,,,,,,,,5,,,83,108
41568,note_on,28,0,3,,,,,,,,,0,,,75,45
41568,note_on,28,0,4,,,,,,,,,1,,,66,45
41568,note_on,28,0,5,,,,,,,,,2,,,59,45
41614,note_on,46,0,1,,,,,,,,,5,,,83,0
41616,note_on,2,0,1,,,,,,,,,5,,,78,108
41632,note_on,0,0,2,,,,,,,,,6,,,59,0
41632,note_on,0,0,2,,,,,,,,,6,,,54,0
41632,note_on,160,0,6,,,,,,,,,3,,,47,0
41632,note_on,160,0,2,,,,,,,,,6,,,47,0
41636,note_on,68,0,3,,,,,,,,,0,,,75,0
41636,note_on,68,0,5,,,,,,,,,2,,,59,0
41636,note_on,68,0,4,,,,,,,,,1,,,66,0
41662,note_on,46,0,1,,,,,,,,,5,,,78,0
41664,note_on,28,0,4,,,,,,,,,1,,,66,45
41664,note_on,2,0,1,,,,,,,,,5,,,83,108
41664,note_on,28,0,5,,,,,,,,,2,,,59,45
41664,note_on,28,0,3,,,,,,,,,0,,,75,45
41710,note_on,46,0,1,,,,,,,,,5,,,83,0
41712,note_on,2,0,1,,,,,,,,,5,,,78,108
41732,note_on,68,0,5,,,,,,,,,2,,,59,0
41732,note_on,68,0,3,,,,,,,,,0,,,75,0
41732,note_on,68,0,4,,,,,,,,,1,,,66,0
41758,note_on,46,0,1,,,,,,,,,5,,,78,0
41760,note_on,28,0,5,,,,,,,,,2,,,59,45
41760,note_on,2,0,1,,,,,,,,,5,,,75,108
41760,note_on,28,0,4,,,,,,,,,1,,,66,45
41760,note_on,28,0,3,,,,,,,,,0,,,75,45
41806,note_on,46,0,1,,,,,,,,,5,,,75,0
41808,note_on,2,0,1,,,,,,,,,5,,,78,108
41828,note_on,68,0,4,,,,,,,,,1,,,66,0
41828,note_on,68,0,5,,,,,,,,,2,,,59,0
41828,note_on,68,0,3,,,,,,,,,0,,,75,0
41854,note_on,46,0,1,,,,,,,,,5,,,78,0
41856,note_on,28,0,3,,,,,,,,,0,,,75,45
41856,note_on,28,0,4,,,,,,,,,1,,,66,45
41856,note_on,2,0,1,,,,,,,,,5,,,75,108
41856,note_on,28,0,5,,,,,,,,,2,,,59,45
41902,note_on,46,0,1,,,,,,,,,5,,,75,0
41904,note_on,2,0,1,,,,,,,,,5,,,78,108
41924,note_on,68,0,5,,,,,,,,,2,,,59,0
41924,note_on,68,0,3,,,,,,,,,0,,,75,0
41924,note_on,68,0,4,,,,,,,,,1,,,66,0
41950,note_on,46,0,1,,,,,,,,,5,,,78,0
41952,note_on,28,0,4,,,,,,,,,1,,,66,45
41952,note_on,2,0,1,,,,,,,,,5,,,83,108
41952,note_on,28,0,5,,,,,,,,,2,,,59,45
41952,note_on,28,0,3,,,,,,,,,0,,,75,45
41998,note_on,46,0,1,,,,,,,,,5,,,83,0
42000,note_on,2,0,1,,,,,,,,,5,,,78,108
42020,note_on,68,0,4,,,,,,,,,1,,,66,0
42020,note_on,68,0,5,,,,,,,,,2,,,59,0
42020,note_on,68,0,3,,,,,,,,,0,,,75,0
42046,note_on,46,0,1,,,,,,,,,5,,,78,0
42048,note_on,2,0,1,,,,,,,,,5,,,83,108
42048,note_on,28,0,4,,,,,,,,,1,,,66,45
42048,note_on,28,0,5,,,,,,,,,2,,,59,45
42048,note_on,28,0,3,,,,,,,,,0,,,75,45
42094,note_on,46,0,1,,,,,,,,,5,,,83,0
42096,note_on,2,0,1,,,,,,,,,5,,,78,108
42116,note_on,68,0,5,,,,,,,,,2,,,59,0
42116,note_on,68,0,4,,,,,,,,,1,,,66,0
42116,note_on,68,0,3,,,,,,,,,0,,,75,0
42142,note_on,46,0,1,,,,,,,,,5,,,78,0
42144,note_on,28,0,4,,,,,,,,,1,,,66,45
42144,note_on,2,0,1,,,,,,,,,5,,,75,108
42144,note_on,28,0,5,,,,,,,,,2,,,59,45
42144,note_on,28,0,3,,,,,,,,,0,,,75,45
42190,note_on,46,0,1,,,,,,,,,5,,,75,0
42192,note_on,2,0,1,,,,,,,,,5,,,78,108
42212,note_on,68,0,4,,,,,,,,,1,,,66,0
42212,note_on,68,0,5,,,,,,,,,2,,,59,0
42212,note_on,68,0,3,,,,,,,,,0,,,75,0
42238,note_on,46,0,1,,,,,,,,,5,,,78,0
42240,note_on,2,0,1,,,,,,,,,5,,,72,108
42240,note_on,28,0,3,,,,,,,,,0,,,78,45
42240,note_on,0,0,2,,,,,,,,,6,,,63,92
42240,note_on,608,0,2,,,,,,,,,6,,,56,92
42240,note_on,28,0,4,,,,,,,,,1,,,75,45
42240,note_on,608,0,6,,,,,,,,,3,,,56,60
42240,note_on,28,0,5,,,,,,,,,2,,,68,45
42286,note_on,46,0,1,,,,,,,,,5,,,72,0
42288,note_on,2,0,1,,,,,,,,,5,,,78,108
42308,note_on,68,0,3,,,,,,,,,0,,,78,0
42308,note_on,68,0,4,,,,,,,,,1,,,75,0
42308,note_on,68,0,5,,,,,,,,,2,,,68,0
42334,note_on,46,0,1,,,,,,,,,5,,,78,0
42336,note_on,28,0,3,,,,,,,,,0,,,78,45
42336,note_on,28,0,4,,,,,,,,,1,,,75,45
42336,note_on,2,0,1,,,,,,,,,5,,,81,108
42336,note_on,28,0,5,,,,,,,,,2,,,68,45
42382,note_on,46,0,1,,,,,,,,,5,,,81,0
42384,note_on,2,0,1,,,,,,,,,5,,,78,108
42400,note_on,160,0,6,,,,,,,,,3,,,56,0
42400,note_on,160,0,2,,,,,,,,,6,,,56,0
42400,note_on,0,0,2,,,,,,,,,6,,,63,0
42404,note_on,68,0,5,,,,,,,,,2,,,68,0
42404,note_on,68,0,3,,,,,,,,,0,,,78,0
42404,note_on,68,0,4,,,,,,,,,1,,,75,0
42430,note_on,46,0,1,,,,,,,,,5,,,78,0
42432,note_on,28,0,3,,,,,,,,,0,,,78,45
42432,note_on,2,0,1,,,,,,,,,5,,,81,108
42432,note_on,28,0,5,,,,,,,,,2,,,68,45
42432,note_on,28,0,4,,,,,,,,,1,,,75,45
42478,note_on,46,0,1,,,,,,,,,5,,,81,0
42480,note_on,2,0,1,,,,,,,,,5,,,78,108
42500,note_on,68,0,4,,,,,,,,,1,,,75,0
42500,note_on,68,0,5,,,,,,,,,2,,,68,0
42500,note_on,68,0,3,,,,,,,,,0,,,78,0
42526,note_on,46,0,1,,,,,,,,,5,,,78,0
42528,note_on,28,0,5,,,,,,,,,2,,,68,45
42528,note_on,2,0,1,,,,,,,,,5,,,72,108
42528,note_on,28,0,3,,,,,,,,,0,,,78,45
42528,note_on,28,0,4,,,,,,,,,1,,,75,45
42574,note_on,46,0,1,,,,,,,,,5,,,72,0
42576,note_on,2,0,1,,,,,,,,,5,,,78,108
42596,note_on,68,0,5,,,,,,,,,2,,,68,0
42596,note_on,68,0,3,,,,,,,,,0,,,78,0
42596,note_on,68,0,4,,,,,,,,,1,,,75,0
42622,note_on,46,0,1,,,,,,,,,5,,,78,0
42624,note_on,28,0,3,,,,,,,,,0,,,78,45
42624,note_on,2,0,1,,,,,,,,,5,,,72,108
42624,note_on,28,0,4,,,,,,,,,1,,,75,45
42624,note_on,28,0,5,,,,,,,,,2,,,68,45
42670,note_on,46,0,1,,,,,,,,,5,,,72,0
42672,note_on,2,0,1,,,,,,,,,5,,,78,108
42692,note_on,68,0,5,,,,,,,,,2,,,68,0
42692,note_on,68,0,3,,,,,,,,,0,,,78,0
42692,note_on,68,0,4,,,,,,,,,1,,,75,0
42718,note_on,46,0,1,,,,,,,,,5,,,78,0
42720,note_on,28,0,4,,,,,,,,,1,,,75,45
42720,note_on,2,0,1,,,,,,,,,5,,,81,108
42720,note_on,28,0,5,,,,,,,,,2,,,68,45
42720,note_on,28,0,3,,,,,,,,,0,,,78,45
42766,note_on,46,0,1,,,,,,,,,5,,,81,0
42768,note_on,2,0,1,,,,,,,,,5,,,78,108
42788,note_on,68,0,3,,,,,,,,,0,,,78,0
42788,note_on,68,0,5,,,,,,,,,2,,,68,0
42788,note_on,68,0,4,,,,,,,,,1,,,75,0
42814,note_on,46,0,1,,,,,,,,,5,,,78,0
42816,note_on,28,0,4,,,,,,,,,1,,,75,45
42816,note_on,2,0,1,,,,,,,,,5,,,81,108
42816,note_on,28,0,3,,,,,,,,,0,,,78,45
42816,note_on,28,0,5,,,,,,,,,2,,,68,45
42862,note_on,46,0,1,,,,,,,,,5,,,81,0
42864,note_on,2,0,1,,,,,,,,,5,,,78,108
42884,note_on,68,0,3,,,,,,,,,0,,,78,0
42884,note_on,68,0,4,,,,,,,,,1,,,75,0
42884,note_on,68,0,5,,,,,,,,,2,,,68,0
42910,note_on,46,0,1,,,,,,,,,5,,,78,0
42912,note_on,28,0,4,,,,,,,,,1,,,75,45
42912,note_on,28,0,5,,,,,,,,,2,,,68,45
42912,note_on,28,0,3,,,,,,,,,0,,,78,45
42912,note_on,2,0,1,,,,,,,,,5,,,72,108
42958,note_on,46,0,1,,,,,,,,,5,,,72,0
42960,note_on,2,0,1,,,,,,,,,5,,,78,108
42980,note_on,68,0,5,,,,,,,,,2,,,68,0
42980,note_on,68,0,4,,,,,,,,,1,,,75,0
42980,note_on,68,0,3,,,,,,,,,0,,,78,0
43006,note_on,46,0,1,,,,,,,,,5,,,78,0
43008,note_on,28,0,5,,,,,,,,,2,,,61,45
43008,note_on,28,0,3,,,,,,,,,0,,,80,45
43008,note_on,2,0,1,,,,,,,,,5,,,73,108
43008,note_on,0,0,2,,,,,,,,,6,,,56,92
43008,note_on,0,0,2,,,,,,,,,6,,,52,92
43008,note_on,608,0,2,,,,,,,,,6,,,49,92
43008,note_on,608,0,6,,,,,,,,,3,,,49,60
43008,note_on,28,0,4,,,,,,,,,1,,,76,45
43054,note_on,46,0,1,,,,,,,,,5,,,73,0
43056,note_on,2,0,1,,,,,,,,,5,,,76,108
43076,note_on,68,0,4,,,,,,,,,1,,,76,0
43076,note_on,68,0,5,,,,,,,,,2,,,61,0
43076,note_on,68,0,3,,,,,,,,,0,,,80,0
43102,note_on,46,0,1,,,,,,,,,5,,,76,0
43104,note_on,28,0,4,,,,,,,,,1,,,76,45
43104,note_on,28,0,3,,,,,,,,,0,,,80,45
43104,note_on,28,0,5,,,,,,,,,2,,,61,45
43104,note_on,2,0,1,,,,,,,,,5,,,80,108
43150,note_on,46,0,1,,,,,,,,,5,,,80,0
43152,note_on,2,0,1,,,,,,,,,5,,,76,108
43168,note_on,0,0,2,,,,,,,,,6,,,56,0
43168,note_on,0,0,2,,,,,,,,,6,,,52,0
43168,note_on,160,0,2,,,,,,,,,6,,,49,0
43168,note_on,160,0,6,,,,,,,,,3,,,49,0
43172,note_on,68,0,5,,,,,,,,,2,,,61,0
43172,note_on,68,0,3,,,,,,,,,0,,,80,0
43172,note_on,68,0,4,,,,,,,,,1,,,76,0
43198,note_on,46,0,1,,,,,,,,,5,,,76,0
43200,note_on,2,0,1,,,,,,,,,5,,,80,108
43200,note_on,28,0,3,,,,,,,,,0,,,80,45
43200,note_on,28,0,4,,,,,,,,,1,,,76,45
43200,note_on,28,0,5,,,,,,,,,2,,,61,45
43246,note_on,46,0,1,,,,,,,,,5,,,80,0
43248,note_on,2,0,1,,,,,,,,,5,,,76,108
43268,note_on,68,0,3,,,,,,,,,0,,,80,0
43268,note_on,68,0,4,,,,,,,,,1,,,76,0
43268,note_on,68,0,5,,,,,,,,,2,,,61,0
43294,note_on,46,0,1,,,,,,,,,5,,,76,0
43296,note_on,28,0,4,,,,,,,,,1,,,76,45
43296,note_on,28,0,5,,,,,,,,,2,,,61,45
43296,note_on,28,0,3,,,,,,,,,0,,,80,45
43296,note_on,2,0,1,,,,,,,,,5,,,73,108
43342,note_on,46,0,1,,,,,,,,,5,,,73,0
43344,note_on,2,0,1,,,,,,,,,5,,,80,108
43364,note_on,68,0,4,,,,,,,,,1,,,76,0
43364,note_on,68,0,5,,,,,,,,,2,,,61,0
43364,note_on,68,0,3,,,,,,,,,0,,,80,0
43390,note_on,46,0,1,,,,,,,,,5,,,80,0
43392,note_on,224,0,2,,,,,,,,,6,,,49,92
43392,note_on,0,0,2,,,,,,,,,6,,,56,92
43392,note_on,224,0,6,,,,,,,,,3,,,49,60
43392,note_on,28,0,5,,,,,,,,,2,,,61,45
43392,note_on,28,0,4,,,,,,,,,1,,,68,45
43392,note_on,2,0,1,,,,,,,,,5,,,76,108
43392,note_on,28,0,3,,,,,,,,,0,,,76,45
43438,note_on,46,0,1,,,,,,,,,5,,,76,0
43440,note_on,2,0,1,,,,,,,,,5,,,80,108
43460,note_on,68,0,4,,,,,,,,,1,,,68,0
43460,note_on,68,0,5,,,,,,,,,2,,,61,0
43460,note_on,68,0,3,,,,,,,,,0,,,76,0
43486,note_on,46,0,1,,,,,,,,,5,,,80,0
43488,note_on,28,0,5,,,,,,,,,2,,,61,45
43488,note_on,28,0,4,,,,,,,,,1,,,68,45
43488,note_on,2,0,1,,,,,,,,,5,,,85,108
43488,note_on,28,0,3,,,,,,,,,0,,,76,45
43534,note_on,46,0,1,,,,,,,,,5,,,85,0
43536,note_on,2,0,1,,,,,,,,,5,,,80,108
43552,note_on,160,0,2,,,,,,,,,6,,,49,0
43552,note_on,160,0,6,,,,,,,,,3,,,49,0
43552,note_on,0,0,2,,,,,,,,,6,,,56,0
43556,note_on,68,0,5,,,,,,,,,2,,,61,0
43556,note_on,68,0,3,,,,,,,,,0,,,76,0
43556,note_on,68,0,4,,,,,,,,,1,,,68,0
43582,note_on,46,0,1,,,,,,,,,5,,,80,0
43584,note_on,2,0,1,,,,,,,,,5,,,85,108
43584,note_on,28,0,3,,,,,,,,,0,,,76,45
43584,note_on,28,0,5,,,,,,,,,2,,,61,45
43584,note_on,28,0,4,,,,,,,,,1,,,68,45
43630,note_on,46,0,1,,,,,,,,,5,,,85,0
43632,note_on,2,0,1,,,,,,,,,5,,,80,108
43652,note_on,68,0,3,,,,,,,,,0,,,76,0
43652,note_on,68,0,5,,,,,,,,,2,,,61,0
43652,note_on,68,0,4,,,,,,,,,1,,,68,0
43678,note_on,46,0,1,,,,,,,,,5,,,80,0
43680,note_on,28,0,5,,,,,,,,,2,,,61,45
43680,note_on,28,0,3,,,,,,,,,0,,,76,45
43680,note_on,2,0,1,,,,,,,,,5,,,76,108
43680,note_on,28,0,4,,,,,,,,,1,,,68,45
43726,note_on,46,0,1,,,,,,,,,5,,,76,0
43728,note_on,2,0,1,,,,,,,,,5,,,80,108
43748,note_on,68,0,4,,,,,,,,,1,,,68,0
43748,note_on,68,0,3,,,,,,,,,0,,,76,0
43748,note_on,68,0,5,,,,,,,,,2,,,61,0
43774,note_on,46,0,1,,,,,,,,,5,,,80,0
43776,note_on,28,0,3,,,,,,,,,0,,,76,45
43776,note_on,28,0,5,,,,,,,,,2,,,61,45
43776,note_on,2,0,1,,,,,,,,,5,,,76,108
43776,note_on,28,0,4,,,,,,,,,1,,,73,45
43822,note_on,46,0,1,,,,,,,,,5,,,76,0
43824,note_on,2,0,1,,,,,,,,,5,,,80,108
43844,note_on,68,0,4,,,,,,,,,1,,,73,0
43844,note_on,68,0,5,,,,,,,,,2,,,61,0
43844,note_on,68,0,3,,,,,,,,,0,,,76,0
43870,note_on,46,0,1,,,,,,,,,5,,,80,0
43872,note_on,2,0,1,,,,,,,,,5,,,85,108
43872,note_on,28,0,5,,,,,,,,,2,,,61,45
43872,note_on,28,0,4,,,,,,,,,1,,,73,45
43872,note_on,28,0,3,,,,,,,,,0,,,76,45
43918,note_on,46,0,1,,,,,,,,,5,,,85,0
43920,note_on,2,0,1,,,,,,,,,5,,,80,108
43940,note_on,68,0,3,,,,,,,,,0,,,76,0
43940,note_on,68,0,4,,,,,,,,,1,,,73,0
43940,note_on,68,0,5,,,,,,,,,2,,,61,0
43966,note_on,46,0,1,,,,,,,,,5,,,80,0
43968,note_on,2,0,1,,,,,,,,,5,,,85,108
43968,note_on,28,0,3,,,,,,,,,0,,,76,45
43968,note_on,28,0,4,,,,,,,,,1,,,73,45
43968,note_on,28,0,5,,,,,,,,,2,,,61,45
44014,note_on,46,0,1,,,,,,,,,5,,,85,0
44016,note_on,2,0,1,,,,,,,,,5,,,80,108
44036,note_on,68,0,4,,,,,,,,,1,,,73,0
44036,note_on,68,0,5,,,,,,,,,2,,,61,0
44036,note_on,68,0,3,,,,,,,,,0,,,76,0
44062,note_on,46,0,1,,,,,,,,,5,,,80,0
44064,note_on,28,0,4,,,,,,,,,1,,,73,45
44064,note_on,28,0,3,,,,,,,,,0,,,76,45
44064,note_on,2,0,1,,,,,,,,,5,,,76,108
44064,note_on,28,0,5,,,,,,,,,2,,,61,45
44110,note_on,46,0,1,,,,,,,,,5,,,76,0
44112,note_on,2,0,1,,,,,,,,,5,,,80,108
44132,note_on,68,0,4,,,,,,,,,1,,,73,0
44132,note_on,68,0,5,,,,,,,,,2,,,61,0
44132,note_on,68,0,3,,,,,,,,,0,,,76,0
44158,note_on,46,0,1,,,,,,,,,5,,,80,0
44160,note_on,28,0,3,,,,,,,,,0,,,75,45
44160,note_on,608,0,6,,,,,,,,,3,,,56,60
44160,note_on,28,0,5,,,,,,,,,2,,,68,45
44160,note_on,0,0,2,,,,,,,,,6,,,63,92
44160,note_on,0,0,2,,,,,,,,,6,,,61,92
44160,note_on,608,0,2,,,,,,,,,6,,,56,92
44160,note_on,2,0,1,,,,,,,,,5,,,75,108
44160,note_on,28,0,4,,,,,,,,,1,,,73,45
44206,note_on,46,0,1,,,,,,,,,5,,,75,0
44208,note_on,2,0,1,,,,,,,,,5,,,80,108
44228,note_on,68,0,4,,,,,,,,,1,,,73,0
44228,note_on,68,0,5,,,,,,,,,2,,,68,0
44228,note_on,68,0,3,,,,,,,,,0,,,75,0
44254,note_on,46,0,1,,,,,,,,,5,,,80,0
44256,note_on,28,0,5,,,,,,,,,2,,,68,45
44256,note_on,2,0,1,,,,,,,,,5,,,85,108
44256,note_on,28,0,3,,,,,,,,,0,,,75,45
44256,note_on,28,0,4,,,,,,,,,1,,,73,45
44302,note_on,46,0,1,,,,,,,,,5,,,85,0
44304,note_on,2,0,1,,,,,,,,,5,,,80,108
44320,note_on,0,0,2,,,,,,,,,6,,,61,0
44320,note_on,0,0,2,,,,,,,,,6,,,63,0
44320,note_on,160,0,6,,,,,,,,,3,,,56,0
44320,note_on,160,0,2,,,,,,,,,6,,,56,0
44324,note_on,68,0,5,,,,,,,,,2,,,68,0
44324,note_on,68,0,3,,,,,,,,,0,,,75,0
44324,note_on,68,0,4,,,,,,,,,1,,,73,0
44350,note_on,46,0,1,,,,,,,,,5,,,80,0
44352,note_on,28,0,4,,,,,,,,,1,,,73,45
44352,note_on,2,0,1,,,,,,,,,5,,,85,108
44352,note_on,28,0,3,,,,,,,,,0,,,75,45
44352,note_on,28,0,5,,,,,,,,,2,,,68,45
44398,note_on,46,0,1,,,,,,,,,5,,,85,0
44400,note_on,2,0,1,,,,,,,,,5,,,80,108
44420,note_on,68,0,5,,,,,,,,,2,,,68,0
44420,note_on,68,0,4,,,,,,,,,1,,,73,0
44420,note_on,68,0,3,,,,,,,,,0,,,75,0
44446,note_on,46,0,1,,,,,,,,,5,,,80,0
44448,note_on,2,0,1,,,,,,,,,5,,,75,108
44448,note_on,28,0,5,,,,,,,,,2,,,68,45
44448,note_on,28,0,3,,,,,,,,,0,,,75,45
44448,note_on,28,0,4,,,,,,,,,1,,,73,45
44494,note_on,46,0,1,,,,,,,,,5,,,75,0
44496,note_on,2,0,1,,,,,,,,,5,,,80,108
44516,note_on,68,0,4,,,,,,,,,1,,,73,0
44516,note_on,68,0,3,,,,,,,,,0,,,75,0
44516,note_on,68,0,5,,,,,,,,,2,,,68,0
44542,note_on,46,0,1,,,,,,,,,5,,,80,0
44544,note_on,2,0,1,,,,,,,,,5,,,75,108
44544,note_on,28,0,3,,,,,,,,,0,,,75,45
44544,note_on,28,0,5,,,,,,,,,2,,,68,45
44544,note_on,28,0,4,,,,,,,,,1,,,73,45
44590,note_on,46,0,1,,,,,,,,,5,,,75,0
44592,note_on,2,0,1,,,,,,,,,5,,,80,108
44612,note_on,68,0,5,,,,,,,,,2,,,68,0
44612,note_on,68,0,4,,,,,,,,,1,,,73,0
44612,note_on,68,0,3,,,,,,,,,0,,,75,0
44638,note_on,46,0,1,,,,,,,,,5,,,80,0
44640,note_on,2,0,1,,,,,,,,,5,,,85,108
44640,note_on,28,0,4,,,,,,,,,1,,,73,45
44640,note_on,28,0,5,,,,,,,,,2,,,68,45
44640,note_on,28,0,3,,,,,,,,,0,,,75,45
44686,note_on,46,0,1,,,,,,,,,5,,,85,0
44688,note_on,2,0,1,,,,,,,,,5,,,80,108
44708,note_on,68,0,5,,,,,,,,,2,,,68,0
44708,note_on,68,0,4,,,,,,,,,1,,,73,0
44708,note_on,68,0,3,,,,,,,,,0,,,75,0
44734,note_on,46,0,1,,,,,,,,,5,,,80,0
44736,note_on,28,0,4,,,,,,,,,1,,,73,45
44736,note_on,2,0,1,,,,,,,,,5,,,85,108
44736,note_on,28,0,3,,,,,,,,,0,,,75,45
44736,note_on,28,0,5,,,,,,,,,2,,,68,45
44782,note_on,46,0,1,,,,,,,,,5,,,85,0
44784,note_on,2,0,1,,,,,,,,,5,,,80,108
44804,note_on,68,0,3,,,,,,,,,0,,,75,0
44804,note_on,68,0,5,,,,,,,,,2,,,68,0
44804,note_on,68,0,4,,,,,,,,,1,,,73,0
44830,note_on,46,0,1,,,,,,,,,5,,,80,0
44832,note_on,28,0,5,,,,,,,,,2,,,68,45
44832,note_on,2,0,1,,,,,,,,,5,,,75,108
44832,note_on,28,0,4,,,,,,,,,1,,,73,45
44832,note_on,28,0,3,,,,,,,,,0,,,75,45
44878,note_on,46,0,1,,,,,,,,,5,,,75,0
44880,note_on,2,0,1,,,,,,,,,5,,,80,108
44900,note_on,68,0,5,,,,,,,,,2,,,68,0
44900,note_on,68,0,4,,,,,,,,,1,,,73,0
44900,note_on,68,0,3,,,,,,,,,0,,,75,0
44926,note_on,46,0,1,,,,,,,,,5,,,80,0
44928,note_on,28,0,5,,,,,,,,,2,,,56,45
44928,note_on,608,0,2,,,,,,,,,6,,,44,92
44928,note_on,28,0,4,,,,,,,,,1,,,72,45
44928,note_on,608,0,6,,,,,,,,,3,,,44,60
44928,note_on,2,0,1,,,,,,,,,5,,,75,108
44928,note_on,28,0,3,,,,,,,,,0,,,75,45
44928,note_on,0,0,2,,,,,,,,,6,,,56,92
44928,note_on,0,0,2,,,,,,,,,6,,,51,92
44928,note_on,0,0,2,,,,,,,,,6,,,48,92
44974,note_on,46,0,1,,,,,,,,,5,,,75,0
44976,note_on,2,0,1,,,,,,,,,5,,,80,108
44996,note_on,68,0,4,,,,,,,,,1,,,72,0
44996,note_on,68,0,3,,,,,,,,,0,,,75,0
44996,note_on,68,0,5,,,,,,,,,2,,,56,0
45022,note_on,46,0,1,,,,,,,,,5,,,80,0
45024,note_on,2,0,1,,,,,,,,,5,,,84,108
45024,note_on,28,0,3,,,,,,,,,0,,,75,45
45024,note_on,28,0,4,,,,,,,,,1,,,72,45
45024,note_on,28,0,5,,,,,,,,,2,,,56,45
45070,note_on,46,0,1,,,,,,,,,5,,,84,0
45072,note_on,2,0,1,,,,,,,,,5,,,80,108
45088,note_on,0,0,2,,,,,,,,,6,,,48,0
45088,note_on,0,0,2,,,,,,,,,6,,,51,0
45088,note_on,160,0,2,,,,,,,,,6,,,44,0
45088,note_on,160,0,6,,,,,,,,,3,,,44,0
45088,note_on,0,0,2,,,,,,,,,6,,,56,0
45092,note_on,68,0,4,,,,,,,,,1,,,72,0
45092,note_on,68,0,5,,,,,,,,,2,,,56,0
45092,note_on,68,0,3,,,,,,,,,0,,,75,0
45118,note_on,46,0,1,,,,,,,,,5,,,80,0
45120,note_on,2,0,1,,,,,,,,,5,,,84,108
45120,note_on,28,0,4,,,,,,,,,1,,,72,45
45120,note_on,28,0,3,,,,,,,,,0,,,75,45
45120,note_on,28,0,5,,,,,,,,,2,,,56,45
45166,note_on,46,0,1,,,,,,,,,5,,,84,0
45168,note_on,2,0,1,,,,,,,,,5,,,80,108
45188,note_on,68,0,5,,,,,,,,,2,,,56,0
45188,note_on,68,0,4,,,,,,,,,1,,,72,0
45188,note_on,68,0,3,,,,,,,,,0,,,75,0
45214,note_on,46,0,1,,,,,,,,,5,,,80,0
45216,note_on,2,0,1,,,,,,,,,5,,,75,108
45216,note_on,28,0,4,,,,,,,,,1,,,72,45
45216,note_on,28,0,5,,,,,,,,,2,,,56,45
45216,note_on,28,0,3,,,,,,,,,0,,,75,45
45262,note_on,46,0,1,,,,,,,,,5,,,75,0
45264,note_on,2,0,1,,,,,,,,,5,,,80,108
45284,note_on,68,0,4,,,,,,,,,1,,,72,0
45284,note_on,68,0,5,,,,,,,,,2,,,56,0
45284,note_on,68,0,3,,,,,,,,,0,,,75,0
45310,note_on,46,0,1,,,,,,,,,5,,,80,0
45312,note_on,28,0,3,,,,,,,,,0,,,75,45
45312,note_on,28,0,4,,,,,,,,,1,,,72,45
45312,note_on,2,0,1,,,,,,,,,5,,,75,108
45312,note_on,28,0,5,,,,,,,,,2,,,56,45
45358,note_on,46,0,1,,,,,,,,,5,,,75,0
45360,note_on,2,0,1,,,,,,,,,5,,,80,108
45380,note_on,68,0,3,,,,,,,,,0,,,75,0
45380,note_on,68,0,5,,,,,,,,,2,,,56,0
45380,note_on,68,0,4,,,,,,,,,1,,,72,0
45406,note_on,46,0,1,,,,,,,,,5,,,80,0
45408,note_on,28,0,4,,,,,,,,,1,,,72,45
45408,note_on,28,0,5,,,,,,,,,2,,,56,45
45408,note_on,2,0,1,,,,,,,,,5,,,84,108
45408,note_on,28,0,3,,,,,,,,,0,,,75,45
45454,note_on,46,0,1,,,,,,,,,5,,,84,0
45456,note_on,2,0,1,,,,,,,,,5,,,80,108
45476,note_on,68,0,3,,,,,,,,,0,,,75,0
45476,note_on,68,0,4,,,,,,,,,1,,,72,0
45476,note_on,68,0,5,,,,,,,,,2,,,56,0
45502,note_on,46,0,1,,,,,,,,,5,,,80,0
45504,note_on,28,0,3,,,,,,,,,0,,,75,45
45504,note_on,28,0,5,,,,,,,,,2,,,56,45
45504,note_on,2,0,1,,,,,,,,,5,,,84,108
45504,note_on,28,0,4,,,,,,,,,1,,,72,45
45550,note_on,46,0,1,,,,,,,,,5,,,84,0
45552,note_on,2,0,1,,,,,,,,,5,,,80,108
45572,note_on,68,0,3,,,,,,,,,0,,,75,0
45572,note_on,68,0,4,,,,,,,,,1,,,72,0
45572,note_on,68,0,5,,,,,,,,,2,,,56,0
45598,note_on,46,0,1,,,,,,,,,5,,,80,0
45600,note_on,2,0,1,,,,,,,,,5,,,75,108
45600,note_on,28,0,3,,,,,,,,,0,,,75,45
45600,note_on,28,0,5,,,,,,,,,2,,,56,45
45600,note_on,28,0,4,,,,,,,,,1,,,72,45
45646,note_on,46,0,1,,,,,,,,,5,,,75,0
45648,note_on,2,0,1,,,,,,,,,5,,,80,108
45668,note_on,68,0,3,,,,,,,,,0,,,75,0
45668,note_on,68,0,5,,,,,,,,,2,,,56,0
45668,note_on,68,0,4,,,,,,,,,1,,,72,0
45694,note_on,46,0,1,,,,,,,,,5,,,80,0
45696,note_on,28,0,5,,,,,,,,,2,,,56,45
45696,note_on,28,0,3,,,,,,,,,0,,,75,45
45696,note_on,2,0,1,,,,,,,,,5,,,75,108
45696,note_on,28,0,4,,,,,,,,,1,,,72,45
45742,note_on,46,0,1,,,,,,,,,5,,,75,0
45744,note_on,2,0,1,,,,,,,,,5,,,80,108
45764,note_on,68,0,3,,,,,,,,,0,,,75,0
45764,note_on,68,0,5,,,,,,,,,2,,,56,0
45764,note_on,68,0,4,,,,,,,,,1,,,72,0
45790,note_on,46,0,1,,,,,,,,,5,,,80,0
45792,note_on,28,0,4,,,,,,,,,1,,,72,45
45792,note_on,2,0,1,,,,,,,,,5,,,84,108
45792,note_on,28,0,5,,,,,,,,,2,,,56,45
45792,note_on,28,0,3,,,,,,,,,0,,,75,45
45838,note_on,46,0,1,,,,,,,,,5,,,84,0
45840,note_on,2,0,1,,,,,,,,,5,,,80,108
45860,note_on,68,0,4,,,,,,,,,1,,,72,0
45860,note_on,68,0,5,,,,,,,,,2,,,56,0
45860,note_on,68,0,3,,,,,,,,,0,,,75,0
45886,note_on,46,0,1,,,,,,,,,5,,,80,0
45888,note_on,28,0,4,,,,,,,,,1,,,72,45
45888,note_on,28,0,5,,,,,,,,,2,,,56,45
45888,note_on,28,0,3,,,,,,,,,0,,,75,45
45888,note_on,2,0,1,,,,,,,,,5,,,84,108
45934,note_on,46,0,1,,,,,,,,,5,,,84,0
45936,note_on,2,0,1,,,,,,,,,5,,,80,108
45956,note_on,68,0,5,,,,,,,,,2,,,56,0
45956,note_on,68,0,4,,,,,,,,,1,,,72,0
45956,note_on,68,0,3,,,,,,,,,0,,,75,0
45982,note_on,46,0,1,,,,,,,,,5,,,80,0
45984,note_on,28,0,4,,,,,,,,,1,,,72,45
45984,note_on,28,0,3,,,,,,,,,0,,,75,45
45984,note_on,2,0,1,,,,,,,,,5,,,75,108
45984,note_on,28,0,5,,,,,,,,,2,,,56,45
46030,note_on,46,0,1,,,,,,,,,5,,,75,0
46032,note_on,2,0,1,,,,,,,,,5,,,80,108
46052,note_on,68,0,3,,,,,,,,,0,,,75,0
46052,note_on,68,0,5,,,,,,,,,2,,,56,0
46052,note_on,68,0,4,,,,,,,,,1,,,72,0
46078,note_on,46,0,1,,,,,,,,,5,,,80,0
46080,note_on,28,0,5,,,,,,,,,2,,,61,45
46080,note_on,992,0,6,,,,,,,,,3,,,49,60
46080,note_on,10754,0,7,,,,,,,,,10,,,37,60
46080,note_on,992,0,2,,,,,,,,,6,,,49,92
46080,note_on,28,0,3,,,,,,,,,0,,,76,45
46080,note_on,28,0,4,,,,,,,,,1,,,68,45
46080,note_on,2,0,1,,,,,,,,,5,,,85,108
46174,note_on,94,0,2,,,,,,,,,6,,,49,0
46174,note_on,94,0,3,,,,,,,,,0,,,76,0
46174,note_on,94,0,7,,,,,,,,,10,,,37,0
46174,note_on,94,0,6,,,,,,,,,3,,,49,0
46174,note_on,94,0,1,,,,,,,,,5,,,85,0
46176,note_on,2,0,2,,,,,,,,,6,,,49,92
46176,note_on,2,0,7,,,,,,,,,10,,,37,60
46176,note_on,2,0,1,,,,,,,,,5,,,73,108
46176,note_on,2,0,3,,,,,,,,,0,,,73,45
46176,note_on,2,0,6,,,,,,,,,3,,,49,60
46240,note_on,160,0,5,,,,,,,,,2,,,61,0
46240,note_on,160,0,4,,,,,,,,,1,,,68,0
46270,note_on,94,0,2,,,,,,,,,6,,,49,0
46270,note_on,94,0,6,,,,,,,,,3,,,49,0
46270,note_on,94,0,3,,,,,,,,,0,,,73,0
46270,note_on,94,0,1,,,,,,,,,5,,,73,0
46270,note_on,94,0,7,,,,,,,,,10,,,37,0
46272,note_on,2,0,1,,,,,,,,,5,,,73,108
46272,note_on,2,0,2,,,,,,,,,6,,,49,92
46272,note_on,2,0,3,,,,,,,,,0,,,73,45
46272,note_on,2,0,7,,,,,,,,,10,,,37,60
46272,note_on,2,0,6,,,,,,,,,3,,,49,60
46318,note_on,46,0,2,,,,,,,,,6,,,49,0
46318,note_on,46,0,6,,,,,,,,,3,,,49,0
46318,note_on,46,0,7,,,,,,,,,10,,,37,0
46320,note_on,2,0,2,,,,,,,,,6,,,51,92
46320,note_on,2,0,6,,,,,,,,,3,,,51,60
46320,note_on,2,0,7,,,,,,,,,10,,,39,60
46366,note_on,94,0,1,,,,,,,,,5,,,73,0
46366,note_on,46,0,7,,,,,,,,,10,,,39,0
46366,note_on,94,0,3,,,,,,,,,0,,,73,0
46366,note_on,46,0,6,,,,,,,,,3,,,51,0
46366,note_on,46,0,2,,,,,,,,,6,,,51,0
46368,note_on,2,0,1,,,,,,,,,5,,,73,108
46368,note_on,2,0,2,,,,,,,,,6,,,52,92
46368,note_on,2,0,3,,,,,,,,,0,,,73,45
46368,note_on,2,0,6,,,,,,,,,3,,,52,60
46368,note_on,2,0,7,,,,,,,,,10,,,40,60
46414,note_on,46,0,7,,,,,,,,,10,,,40,0
46414,note_on,46,0,6,,,,,,,,,3,,,52,0
46414,note_on,46,0,2,,,,,,,,,6,,,52,0
46416,note_on,2,0,6,,,,,,,,,3,,,54,60
46416,note_on,2,0,2,,,,,,,,,6,,,54,92
46416,note_on,2,0,7,,,,,,,,,10,,,42,60
46462,note_on,46,0,2,,,,,,,,,6,,,54,0
46462,note_on,94,0,3,,,,,,,,,0,,,73,0
46462,note_on,46,0,6,,,,,,,,,3,,,54,0
46462,note_on,46,0,7,,,,,,,,,10,,,42,0
46462,note_on,94,0,1,,,,,,,,,5,,,73,0
46464,note_on,2,0,3,,,,,,,,,0,,,72,45
46464,note_on,2,0,6,,,,,,,,,3,,,56,60
46464,note_on,2,0,1,,,,,,,,,5,,,63,108
46464,note_on,0,0,1,,,,,,,,,5,,,72,108
46464,note_on,2,0,2,,,,,,,,,6,,,56,92
46464,note_on,224,0,4,,,,,,,,,1,,,80,45
46464,note_on,2,0,7,,,,,,,,,10,,,44,60
46558,note_on,94,0,2,,,,,,,,,6,,,56,0
46558,note_on,94,0,6,,,,,,,,,3,,,56,0
46558,note_on,94,0,4,,,,,,,,,1,,,80,0
46558,note_on,94,0,7,,,,,,,,,10,,,44,0
46560,note_on,2,0,4,,,,,,,,,1,,,68,45
46560,note_on,2,0,2,,,,,,,,,6,,,56,92
46560,note_on,2,0,6,,,,,,,,,3,,,56,60
46560,note_on,2,0,7,,,,,,,,,10,,,44,60
46624,note_on,0,0,1,,,,,,,,,5,,,72,0
46624,note_on,160,0,1,,,,,,,,,5,,,63,0
46654,note_on,94,0,7,,,,,,,,,10,,,44,0
46654,note_on,94,0,2,,,,,,,,,6,,,56,0
46654,note_on,94,0,4,,,,,,,,,1,,,68,0
46654,note_on,94,0,6,,,,,,,,,3,,,56,0
46656,note_on,2,0,2,,,,,,,,,6,,,56,92
46656,note_on,2,0,6,,,,,,,,,3,,,56,60
46656,note_on,2,0,7,,,,,,,,,10,,,44,60
46656,note_on,2,0,4,,,,,,,,,1,,,68,45
46702,note_on,238,0,3,,,,,,,,,0,,,72,0
46704,note_on,80,0,1,,,,,,,,,5,,,72,108
46704,note_on,2,0,3,,,,,,,,,0,,,72,45
46750,note_on,94,0,7,,,,,,,,,10,,,44,0
46750,note_on,94,0,4,,,,,,,,,1,,,68,0
46750,note_on,46,0,3,,,,,,,,,0,,,72,0
46750,note_on,46,0,1,,,,,,,,,5,,,72,0
46750,note_on,94,0,2,,,,,,,,,6,,,56,0
46750,note_on,94,0,6,,,,,,,,,3,,,56,0
46752,note_on,2,0,3,,,,,,,,,0,,,73,45
46752,note_on,2,0,1,,,,,,,,,5,,,73,108
46752,note_on,2,0,2,,,,,,,,,6,,,48,92
46752,note_on,2,0,6,,,,,,,,,3,,,48,60
46752,note_on,2,0,4,,,,,,,,,1,,,66,45
46752,note_on,2,0,7,,,,,,,,,10,,,36,60
46798,note_on,46,0,3,,,,,,,,,0,,,73,0
46798,note_on,46,0,1,,,,,,,,,5,,,73,0
46800,note_on,2,0,3,,,,,,,,,0,,,75,45
46800,note_on,2,0,1,,,,,,,,,5,,,75,108
46846,note_on,94,0,6,,,,,,,,,3,,,48,0
46846,note_on,94,0,7,,,,,,,,,10,,,36,0
46846,note_on,46,0,1,,,,,,,,,5,,,75,0
46846,note_on,94,0,2,,,,,,,,,6,,,48,0
46846,note_on,94,0,4,,,,,,,,,1,,,66,0
46846,note_on,46,0,3,,,,,,,,,0,,,75,0
46848,note_on,2,0,4,,,,,,,,,1,,,64,60
46848,note_on,0,0,1,,,,,,,,,5,,,68,108
46848,note_on,2,0,1,,,,,,,,,5,,,64,108
46848,note_on,2,0,2,,,,,,,,,6,,,49,92
46848,note_on,608,0,5,,,,,,,,,2,,,73,60
46848,note_on,2,0,3,,,,,,,,,0,,,68,60
46848,note_on,2,0,7,,,,,,,,,10,,,37,60
46848,note_on,2,0,6,,,,,,,,,3,,,49,60
46942,note_on,94,0,5,,,,,,,,,2,,,73,0
46942,note_on,0,0,1,,,,,,,,,5,,,68,0
46942,note_on,94,0,1,,,,,,,,,5,,,64,0
46942,note_on,94,0,3,,,,,,,,,0,,,68,0
46942,note_on,94,0,4,,,,,,,,,1,,,64,0
46944,note_on,2,0,1,,,,,,,,,5,,,76,108
46944,note_on,2,0,3,,,,,,,,,0,,,76,60
46944,note_on,2,0,4,,,,,,,,,1,,,68,60
46944,note_on,2,0,5,,,,,,,,,2,,,61,60
47008,note_on,160,0,6,,,,,,,,,3,,,49,0
47008,note_on,160,0,7,,,,,,,,,10,,,37,0
47008,note_on,160,0,2,,,,,,,,,6,,,49,0
47038,note_on,94,0,3,,,,,,,,,0,,,76,0
47038,note_on,94,0,1,,,,,,,,,5,,,76,0
47038,note_on,94,0,4,,,,,,,,,1,,,68,0
47038,note_on,94,0,5,,,,,,,,,2,,,61,0
47040,note_on,2,0,4,,,,,,,,,1,,,68,60
47040,note_on,2,0,3,,,,,,,,,0,,,76,60
47040,note_on,2,0,1,,,,,,,,,5,,,76,108
47040,note_on,2,0,5,,,,,,,,,2,,,61,60
47134,note_on,94,0,3,,,,,,,,,0,,,76,0
47134,note_on,94,0,4,,,,,,,,,1,,,68,0
47134,note_on,94,0,1,,,,,,,,,5,,,76,0
47134,note_on,94,0,5,,,,,,,,,2,,,61,0
47136,note_on,2,0,5,,,,,,,,,2,,,61,60
47136,note_on,2,0,3,,,,,,,,,0,,,76,60
47136,note_on,2,0,4,,,,,,,,,1,,,68,60
47136,note_on,2,0,1,,,,,,,,,5,,,76,108
47230,note_on,94,0,1,,,,,,,,,5,,,76,0
47230,note_on,94,0,5,,,,,,,,,2,,,61,0
47230,note_on,94,0,3,,,,,,,,,0,,,76,0
47230,note_on,94,0,4,,,,,,,,,1,,,68,0
47232,note_on,2,0,1,,,,,,,,,5,,,72,108
47232,note_on,0,0,1,,,,,,,,,5,,,75,108
47232,note_on,224,0,6,,,,,,,,,3,,,56,60
47232,note_on,2,0,5,,,,,,,,,2,,,60,75
47232,note_on,224,0,2,,,,,,,,,6,,,56,92
47232,note_on,224,0,7,,,,,,,,,10,,,44,60
47232,note_on,2,0,3,,,,,,,,,0,,,75,75
47232,note_on,2,0,4,,,,,,,,,1,,,68,75
47326,note_on,94,0,7,,,,,,,,,10,,,44,0
47326,note_on,94,0,2,,,,,,,,,6,,,56,0
47326,note_on,0,0,1,,,,,,,,,5,,,75,0
47326,note_on,94,0,3,,,,,,,,,0,,,75,0
47326,note_on,94,0,4,,,,,,,,,1,,,68,0
47326,note_on,94,0,6,,,,,,,,,3,,,56,0
47326,note_on,94,0,1,,,,,,,,,5,,,72,0
47328,note_on,2,0,3,,,,,,,,,0,,,75,75
47328,note_on,2,0,2,,,,,,,,,6,,,44,92
47328,note_on,2,0,4,,,,,,,,,1,,,68,75
47328,note_on,2,0,7,,,,,,,,,10,,,32,60
47328,note_on,2,0,6,,,,,,,,,3,,,44,60
47328,note_on,2,0,1,,,,,,,,,5,,,75,108
47422,note_on,94,0,3,,,,,,,,,0,,,75,0
47422,note_on,94,0,4,,,,,,,,,1,,,68,0
47422,note_on,94,0,6,,,,,,,,,3,,,44,0
47422,note_on,94,0,2,,,,,,,,,6,,,44,0
47422,note_on,94,0,1,,,,,,,,,5,,,75,0
47422,note_on,94,0,7,,,,,,,,,10,,,32,0
47424,note_on,2,0,6,,,,,,,,,3,,,44,60
47424,note_on,2,0,2,,,,,,,,,6,,,44,92
47424,note_on,2,0,3,,,,,,,,,0,,,75,75
47424,note_on,2,0,7,,,,,,,,,10,,,32,60
47424,note_on,2,0,4,,,,,,,,,1,,,68,75
47424,note_on,2,0,1,,,,,,,,,5,,,75,108
47470,note_on,238,0,5,,,,,,,,,2,,,60,0
47472,note_on,2,0,5,,,,,,,,,2,,,60,75
47518,note_on,94,0,1,,,,,,,,,5,,,75,0
47518,note_on,46,0,5,,,,,,,,,2,,,60,0
47518,note_on,94,0,6,,,,,,,,,3,,,44,0
47518,note_on,94,0,4,,,,,,,,,1,,,68,0
47518,note_on,94,0,2,,,,,,,,,6,,,44,0
47518,note_on,94,0,3,,,,,,,,,0,,,75,0
47518,note_on,94,0,7,,,,,,,,,10,,,32,0
47520,note_on,2,0,3,,,,,,,,,0,,,75,75
47520,note_on,2,0,7,,,,,,,,,10,,,30,60
47520,note_on,2,0,1,,,,,,,,,5,,,75,108
47520,note_on,2,0,2,,,,,,,,,6,,,42,92
47520,note_on,2,0,5,,,,,,,,,2,,,61,75
47520,note_on,2,0,4,,,,,,,,,1,,,72,75
47520,note_on,2,0,6,,,,,,,,,3,,,42,60
47566,note_on,46,0,5,,,,,,,,,2,,,61,0
47568,note_on,2,0,5,,,,,,,,,2,,,63,75
47614,note_on,94,0,2,,,,,,,,,6,,,42,0
47614,note_on,94,0,7,,,,,,,,,10,,,30,0
47614,note_on,94,0,6,,,,,,,,,3,,,42,0
47614,note_on,94,0,4,,,,,,,,,1,,,72,0
47614,note_on,94,0,3,,,,,,,,,0,,,75,0
47614,note_on,94,0,1,,,,,,,,,5,,,75,0
47614,note_on,46,0,5,,,,,,,,,2,,,63,0
47616,note_on,2,0,2,,,,,,,,,6,,,40,92
47616,note_on,2,0,6,,,,,,,,,3,,,40,60
47616,note_on,2,0,1,,,,,,,,,5,,,68,108
47616,note_on,0,0,1,,,,,,,,,5,,,76,108
47616,note_on,2,0,3,,,,,,,,,0,,,76,75
47616,note_on,2,0,7,,,,,,,,,10,,,28,60
47616,note_on,2,0,4,,,,,,,,,1,,,73,75
47616,note_on,2,0,5,,,,,,,,,2,,,56,75
47710,note_on,94,0,5,,,,,,,,,2,,,56,0
47710,note_on,94,0,6,,,,,,,,,3,,,40,0
47710,note_on,94,0,3,,,,,,,,,0,,,76,0
47710,note_on,94,0,7,,,,,,,,,10,,,28,0
47710,note_on,94,0,2,,,,,,,,,6,,,40,0
47710,note_on,94,0,1,,,,,,,,,5,,,68,0
47710,note_on,0,0,1,,,,,,,,,5,,,76,0
47712,note_on,2,0,6,,,,,,,,,3,,,52,60
47712,note_on,2,0,7,,,,,,,,,10,,,40,60
47712,note_on,2,0,3,,,,,,,,,0,,,73,75
47712,note_on,2,0,2,,,,,,,,,6,,,52,92
47712,note_on,2,0,5,,,,,,,,,2,,,68,75
47712,note_on,2,0,1,,,,,,,,,5,,,73,108
47776,note_on,160,0,4,,,,,,,,,1,,,73,0
47806,note_on,94,0,6,,,,,,,,,3,,,52,0
47806,note_on,94,0,5,,,,,,,,,2,,,68,0
47806,note_on,94,0,7,,,,,,,,,10,,,40,0
47806,note_on,94,0,1,,,,,,,,,5,,,73,0
47806,note_on,94,0,2,,,,,,,,,6,,,52,0
47806,note_on,94,0,3,,,,,,,,,0,,,73,0
47808,note_on,2,0,5,,,,,,,,,2,,,68,75
47808,control_change,32,0,4,,,,,,,,,1,10,64,,
47808,note_on,0,0,3,,,,,,,,,0,,,85,75
47808,note_on,2,0,1,,,,,,,,,5,,,73,108
47808,control_change,2,0,3,,,,,,,,,0,10,64,,
47808,note_on,2,0,6,,,,,,,,,3,,,52,60
47808,note_on,2,0,7,,,,,,,,,10,,,40,60
47808,note_on,2,0,2,,,,,,,,,6,,,52,92
47902,note_on,94,0,2,,,,,,,,,6,,,52,0
47902,note_on,94,0,5,,,,,,,,,2,,,68,0
47902,note_on,94,0,6,,,,,,,,,3,,,52,0
47902,note_on,94,0,7,,,,,,,,,10,,,40,0
47904,note_on,2,0,5,,,,,,,,,2,,,68,75
47904,note_on,96,0,4,,,,,,,,,1,,,73,75
47904,note_on,2,0,2,,,,,,,,,6,,,52,92
47904,note_on,2,0,7,,,,,,,,,10,,,40,60
47904,note_on,2,0,6,,,,,,,,,3,,,52,60
47968,note_on,160,0,1,,,,,,,,,5,,,73,0
47998,note_on,94,0,7,,,,,,,,,10,,,40,0
47998,note_on,94,0,5,,,,,,,,,2,,,68,0
47998,note_on,94,0,2,,,,,,,,,6,,,52,0
47998,note_on,94,0,6,,,,,,,,,3,,,52,0
47998,note_on,94,0,4,,,,,,,,,1,,,73,0
48000,note_on,2,0,5,,,,,,,,,2,,,69,75
48000,note_on,2,0,6,,,,,,,,,3,,,54,60
48000,note_on,2,0,7,,,,,,,,,10,,,42,60
48000,note_on,32,0,1,,,,,,,,,5,,,63,108
48000,note_on,2,0,2,,,,,,,,,6,,,54,92
48000,note_on,2,0,4,,,,,,,,,1,,,75,127
48000,note_on,0,0,1,,,,,,,,,5,,,73,108
48094,note_on,94,0,7,,,,,,,,,10,,,42,0
48094,note_on,94,0,6,,,,,,,,,3,,,54,0
48094,note_on,94,0,2,,,,,,,,,6,,,54,0
48094,note_on,94,0,5,,,,,,,,,2,,,69,0
48096,note_on,2,0,6,,,,,,,,,3,,,54,60
48096,note_on,2,0,7,,,,,,,,,10,,,42,60
48096,note_on,2,0,2,,,,,,,,,6,,,54,92
48096,note_on,2,0,5,,,,,,,,,2,,,69,75
48144,note_on,336,0,3,,,,,,,,,0,,,85,0
48160,note_on,0,0,1,,,,,,,,,5,,,73,0
48160,note_on,160,0,1,,,,,,,,,5,,,63,0
48190,note_on,94,0,7,,,,,,,,,10,,,42,0
48190,note_on,94,0,2,,,,,,,,,6,,,54,0
48190,note_on,94,0,6,,,,,,,,,3,,,54,0
48190,note_on,94,0,5,,,,,,,,,2,,,69,0
48192,note_on,2,0,7,,,,,,,,,10,,,44,60
48192,note_on,48,0,3,,,,,,,,,0,,,83,127
48192,note_on,0,0,1,,,,,,,,,5,,,71,108
48192,note_on,32,0,1,,,,,,,,,5,,,68,108
48192,note_on,2,0,5,,,,,,,,,2,,,71,75
48192,note_on,2,0,6,,,,,,,,,3,,,56,60
48192,note_on,2,0,2,,,,,,,,,6,,,56,92
48286,note_on,94,0,5,,,,,,,,,2,,,71,0
48286,note_on,94,0,7,,,,,,,,,10,,,44,0
48286,note_on,94,0,2,,,,,,,,,6,,,56,0
48286,note_on,94,0,6,,,,,,,,,3,,,56,0
48288,note_on,2,0,7,,,,,,,,,10,,,44,60
48288,note_on,2,0,6,,,,,,,,,3,,,56,60
48288,note_on,2,0,2,,,,,,,,,6,,,56,92
48288,note_on,2,0,5,,,,,,,,,2,,,71,75
48336,note_on,336,0,4,,,,,,,,,1,,,75,0
48352,note_on,160,0,1,,,,,,,,,5,,,68,0
48352,note_on,0,0,1,,,,,,,,,5,,,71,0
48382,note_on,94,0,5,,,,,,,,,2,,,71,0
48382,note_on,94,0,6,,,,,,,,,3,,,56,0
48382,note_on,94,0,7,,,,,,,,,10,,,44,0
48382,note_on,94,0,2,,,,,,,,,6,,,56,0
48384,note_on,2,0,7,,,,,,,,,10,,,37,60
48384,note_on,48,0,4,,,,,,,,,1,,,77,92
48384,note_on,2,0,6,,,,,,,,,3,,,49,60
48384,note_on,32,0,1,,,,,,,,,5,,,65,108
48384,note_on,2,0,5,,,,,,,,,2,,,68,75
48384,note_on,2,0,2,,,,,,,,,6,,,49,92
48478,note_on,94,0,6,,,,,,,,,3,,,49,0
48478,note_on,94,0,7,,,,,,,,,10,,,37,0
48478,note_on,94,0,5,,,,,,,,,2,,,68,0
48478,note_on,94,0,2,,,,,,,,,6,,,49,0
48480,note_on,2,0,7,,,,,,,,,10,,,37,60
48480,note_on,2,0,6,,,,,,,,,3,,,49,60
48480,note_on,2,0,5,,,,,,,,,2,,,65,75
48480,note_on,2,0,2,,,,,,,,,6,,,49,92
48544,note_on,160,0,1,,,,,,,,,5,,,65,0
48544,note_on,160,0,4,,,,,,,,,1,,,77,0
48544,note_on,352,0,3,,,,,,,,,0,,,83,0
48574,note_on,94,0,2,,,,,,,,,6,,,49,0
48574,note_on,94,0,6,,,,,,,,,3,,,49,0
48574,note_on,94,0,7,,,,,,,,,10,,,37,0
48574,note_on,94,0,5,,,,,,,,,2,,,65,0
48576,note_on,32,0,3,,,,,,,,,0,,,81,92
48576,note_on,2,0,5,,,,,,,,,2,,,61,75
48576,note_on,2,0,2,,,,,,,,,6,,,54,92
48576,note_on,2,0,7,,,,,,,,,10,,,42,60
48576,note_on,32,0,4,,,,,,,,,1,,,78,127
48576,note_on,2,0,6,,,,,,,,,3,,,54,60
48576,note_on,32,0,1,,,,,,,,,5,,,61,108
48576,note_on,0,0,1,,,,,,,,,5,,,69,108
48670,note_on,94,0,5,,,,,,,,,2,,,61,0
48670,note_on,94,0,6,,,,,,,,,3,,,54,0
48670,note_on,94,0,2,,,,,,,,,6,,,54,0
48670,note_on,94,0,7,,,,,,,,,10,,,42,0
48672,note_on,2,0,7,,,,,,,,,10,,,42,60
48672,note_on,2,0,2,,,,,,,,,6,,,54,92
48672,note_on,2,0,6,,,,,,,,,3,,,54,60
48672,note_on,2,0,5,,,,,,,,,2,,,61,75
48736,note_on,160,0,3,,,,,,,,,0,,,81,0
48736,note_on,0,0,1,,,,,,,,,5,,,69,0
48736,note_on,160,0,1,,,,,,,,,5,,,61,0
48766,note_on,94,0,5,,,,,,,,,2,,,61,0
48766,note_on,94,0,7,,,,,,,,,10,,,42,0
48766,note_on,94,0,2,,,,,,,,,6,,,54,0
48766,note_on,94,0,6,,,,,,,,,3,,,54,0
48768,note_on,0,0,1,,,,,,,,,5,,,68,108
48768,note_on,0,0,1,,,,,,,,,5,,,66,108
48768,note_on,2,0,6,,,,,,,,,3,,,47,60
48768,note_on,32,0,1,,,,,,,,,5,,,62,108
48768,note_on,32,0,3,,,,,,,,,0,,,80,127
48768,note_on,2,0,7,,,,,,,,,10,,,35,60
48768,note_on,2,0,2,,,,,,,,,6,,,47,92
48768,note_on,2,0,5,,,,,,,,,2,,,62,75
48862,note_on,94,0,6,,,,,,,,,3,,,47,0
48862,note_on,94,0,2,,,,,,,,,6,,,47,0
48862,note_on,94,0,5,,,,,,,,,2,,,62,0
48862,note_on,94,0,7,,,,,,,,,10,,,35,0
48864,note_on,2,0,5,,,,,,,,,2,,,62,75
48864,note_on,2,0,7,,,,,,,,,10,,,35,60
48864,note_on,2,0,6,,,,,,,,,3,,,47,60
48864,note_on,2,0,2,,,,,,,,,6,,,47,92
48912,note_on,336,0,4,,,,,,,,,1,,,78,0
48928,note_on,160,0,1,,,,,,,,,5,,,62,0
48928,note_on,0,0,1,,,,,,,,,5,,,66,0
48928,note_on,0,0,1,,,,,,,,,5,,,68,0
48958,note_on,94,0,7,,,,,,,,,10,,,35,0
48958,note_on,94,0,5,,,,,,,,,2,,,62,0
48958,note_on,94,0,6,,,,,,,,,3,,,47,0
48958,note_on,94,0,2,,,,,,,,,6,,,47,0
48960,note_on,0,0,1,,,,,,,,,5,,,64,108
48960,note_on,32,0,1,,,,,,,,,5,,,59,108
48960,note_on,48,0,4,,,,,,,,,1,,,76,75
48960,note_on,2,0,5,,,,,,,,,2,,,59,75
48960,note_on,2,0,6,,,,,,,,,3,,,52,60
48960,note_on,2,0,7,,,,,,,,,10,,,40,60
48960,note_on,2,0,2,,,,,,,,,6,,,52,92
49054,note_on,94,0,5,,,,,,,,,2,,,59,0
49054,note_on,94,0,7,,,,,,,,,10,,,40,0
49054,note_on,94,0,6,,,,,,,,,3,,,52,0
49054,note_on,94,0,2,,,,,,,,,6,,,52,0
49056,note_on,2,0,7,,,,,,,,,10,,,40,60
49056,note_on,2,0,2,,,,,,,,,6,,,52,92
49056,note_on,2,0,6,,,,,,,,,3,,,52,60
49056,note_on,2,0,5,,,,,,,,,2,,,64,75
49104,note_on,336,0,3,,,,,,,,,0,,,80,0
49120,note_on,0,0,1,,,,,,,,,5,,,64,0
49120,note_on,160,0,1,,,,,,,,,5,,,59,0
49150,note_on,94,0,6,,,,,,,,,3,,,52,0
49150,note_on,94,0,7,,,,,,,,,10,,,40,0
49150,note_on,94,0,5,,,,,,,,,2,,,64,0
49150,note_on,94,0,2,,,,,,,,,6,,,52,0
49152,note_on,2,0,5,,,,,,,,,2,,,61,75
49152,note_on,2,0,7,,,,,,,,,10,,,42,60
49152,note_on,32,0,1,,,,,,,,,5,,,64,108
49152,note_on,0,0,1,,,,,,,,,5,,,70,108
49152,note_on,2,0,6,,,,,,,,,3,,,54,60
49152,note_on,48,0,3,,,,,,,,,0,,,82,75
49152,note_on,2,0,2,,,,,,,,,6,,,54,92
49246,note_on,94,0,2,,,,,,,,,6,,,54,0
49246,note_on,94,0,7,,,,,,,,,10,,,42,0
49246,note_on,94,0,6,,,,,,,,,3,,,54,0
49246,note_on,94,0,5,,,,,,,,,2,,,61,0
49248,note_on,2,0,2,,,,,,,,,6,,,54,92
49248,note_on,2,0,6,,,,,,,,,3,,,54,60
49248,note_on,2,0,5,,,,,,,,,2,,,66,75
49248,note_on,2,0,7,,,,,,,,,10,,,42,60
49312,note_on,352,0,4,,,,,,,,,1,,,76,0
49312,note_on,160,0,1,,,,,,,,,5,,,64,0
49312,note_on,160,0,3,,,,,,,,,0,,,82,0
49312,note_on,0,0,1,,,,,,,,,5,,,70,0
49342,note_on,94,0,7,,,,,,,,,10,,,42,0
49342,note_on,94,0,2,,,,,,,,,6,,,54,0
49342,note_on,94,0,6,,,,,,,,,3,,,54,0
49342,note_on,94,0,5,,,,,,,,,2,,,66,0
49344,note_on,2,0,7,,,,,,,,,10,,,35,60
49344,note_on,32,0,3,,,,,,,,,0,,,83,127
49344,note_on,0,0,1,,,,,,,,,5,,,71,108
49344,note_on,0,0,1,,,,,,,,,5,,,66,108
49344,note_on,2,0,5,,,,,,,,,2,,,66,75
49344,note_on,2,0,6,,,,,,,,,3,,,47,60
49344,note_on,32,0,4,,,,,,,,,1,,,74,127
49344,note_on,32,0,1,,,,,,,,,5,,,62,108
49344,note_on,2,0,2,,,,,,,,,6,,,47,92
49438,note_on,94,0,6,,,,,,,,,3,,,47,0
49438,note_on,94,0,7,,,,,,,,,10,,,35,0
49438,note_on,94,0,5,,,,,,,,,2,,,66,0
49438,note_on,94,0,2,,,,,,,,,6,,,47,0
49440,note_on,2,0,5,,,,,,,,,2,,,66,75
49440,note_on,2,0,2,,,,,,,,,6,,,47,92
49440,note_on,2,0,7,,,,,,,,,10,,,35,60
49440,note_on,2,0,6,,,,,,,,,3,,,47,60
49504,note_on,160,0,4,,,,,,,,,1,,,74,0
49504,note_on,0,0,1,,,,,,,,,5,,,71,0
49504,note_on,0,0,1,,,,,,,,,5,,,66,0
49504,note_on,160,0,1,,,,,,,,,5,,,62,0
49534,note_on,94,0,6,,,,,,,,,3,,,47,0
49534,note_on,94,0,7,,,,,,,,,10,,,35,0
49534,note_on,94,0,2,,,,,,,,,6,,,47,0
49534,note_on,94,0,5,,,,,,,,,2,,,66,0
49536,note_on,2,0,5,,,,,,,,,2,,,68,75
49536,note_on,2,0,2,,,,,,,,,6,,,53,92
49536,note_on,32,0,1,,,,,,,,,5,,,61,108
49536,note_on,0,0,1,,,,,,,,,5,,,68,108
49536,note_on,2,0,7,,,,,,,,,10,,,41,60
49536,note_on,2,0,6,,,,,,,,,3,,,53,60
49536,note_on,32,0,4,,,,,,,,,1,,,73,75
49630,note_on,94,0,6,,,,,,,,,3,,,53,0
49630,note_on,94,0,7,,,,,,,,,10,,,41,0
49630,note_on,94,0,2,,,,,,,,,6,,,53,0
49630,note_on,94,0,5,,,,,,,,,2,,,68,0
49632,note_on,2,0,2,,,,,,,,,6,,,53,92
49632,note_on,2,0,6,,,,,,,,,3,,,53,60
49632,note_on,2,0,5,,,,,,,,,2,,,68,75
49632,note_on,2,0,7,,,,,,,,,10,,,41,60
49680,note_on,336,0,3,,,,,,,,,0,,,83,0
49696,note_on,160,0,1,,,,,,,,,5,,,61,0
49696,note_on,0,0,1,,,,,,,,,5,,,68,0
49726,note_on,94,0,7,,,,,,,,,10,,,41,0
49726,note_on,94,0,2,,,,,,,,,6,,,53,0
49726,note_on,94,0,6,,,,,,,,,3,,,53,0
49726,note_on,94,0,5,,,,,,,,,2,,,68,0
49728,note_on,48,0,3,,,,,,,,,0,,,81,75
49728,note_on,2,0,7,,,,,,,,,10,,,42,60
49728,note_on,32,0,1,,,,,,,,,5,,,66,108
49728,note_on,0,0,1,,,,,,,,,5,,,69,108
49728,note_on,2,0,6,,,,,,,,,3,,,54,60
49728,note_on,2,0,5,,,,,,,,,2,,,69,75
49728,note_on,2,0,2,,,,,,,,,6,,,54,92
49822,note_on,94,0,6,,,,,,,,,3,,,54,0
49822,note_on,94,0,2,,,,,,,,,6,,,54,0
49822,note_on,94,0,5,,,,,,,,,2,,,69,0
49822,note_on,94,0,7,,,,,,,,,10,,,42,0
49824,note_on,2,0,6,,,,,,,,,3,,,54,60
49824,note_on,2,0,2,,,,,,,,,6,,,54,92
49824,note_on,2,0,5,,,,,,,,,2,,,69,75
49824,note_on,2,0,7,,,,,,,,,10,,,42,60
49872,note_on,336,0,4,,,,,,,,,1,,,73,0
49888,note_on,160,0,1,,,,,,,,,5,,,66,0
49888,note_on,0,0,1,,,,,,,,,5,,,69,0
49918,note_on,94,0,5,,,,,,,,,2,,,69,0
49918,note_on,94,0,6,,,,,,,,,3,,,54,0
49918,note_on,94,0,7,,,,,,,,,10,,,42,0
49918,note_on,94,0,2,,,,,,,,,6,,,54,0
49920,note_on,2,0,2,,,,,,,,,6,,,51,92
49920,note_on,2,0,5,,,,,,,,,2,,,66,75
49920,note_on,2,0,6,,,,,,,,,3,,,51,60
49920,note_on,48,0,4,,,,,,,,,1,,,71,127
49920,note_on,32,0,1,,,,,,,,,5,,,59,108
49920,note_on,2,0,7,,,,,,,,,10,,,39,60
50014,note_on,94,0,7,,,,,,,,,10,,,39,0
50014,note_on,94,0,5,,,,,,,,,2,,,66,0
50014,note_on,94,0,6,,,,,,,,,3,,,51,0
50014,note_on,94,0,2,,,,,,,,,6,,,51,0
50016,note_on,2,0,5,,,,,,,,,2,,,66,75
50016,note_on,2,0,6,,,,,,,,,3,,,51,60
50016,note_on,2,0,7,,,,,,,,,10,,,39,60
50016,note_on,2,0,2,,,,,,,,,6,,,51,92
50080,note_on,352,0,3,,,,,,,,,0,,,81,0
50080,note_on,160,0,1,,,,,,,,,5,,,59,0
50110,note_on,94,0,6,,,,,,,,,3,,,51,0
50110,note_on,94,0,7,,,,,,,,,10,,,39,0
50110,note_on,94,0,5,,,,,,,,,2,,,66,0
50110,note_on,94,0,2,,,,,,,,,6,,,51,0
50112,note_on,2,0,5,,,,,,,,,2,,,67,75
50112,note_on,2,0,7,,,,,,,,,10,,,40,60
50112,note_on,2,0,2,,,,,,,,,6,,,52,92
50112,note_on,32,0,1,,,,,,,,,5,,,64,108
50112,note_on,0,0,1,,,,,,,,,5,,,67,108
50112,note_on,2,0,6,,,,,,,,,3,,,52,60
50112,note_on,32,0,3,,,,,,,,,0,,,79,127
50206,note_on,94,0,5,,,,,,,,,2,,,67,0
50206,note_on,94,0,6,,,,,,,,,3,,,52,0
50206,note_on,94,0,7,,,,,,,,,10,,,40,0
50206,note_on,94,0,2,,,,,,,,,6,,,52,0
50208,note_on,2,0,6,,,,,,,,,3,,,52,60
50208,note_on,2,0,7,,,,,,,,,10,,,40,60
50208,note_on,2,0,5,,,,,,,,,2,,,67,75
50208,note_on,2,0,2,,,,,,,,,6,,,52,92
50256,note_on,336,0,4,,,,,,,,,1,,,71,0
50272,note_on,0,0,1,,,,,,,,,5,,,67,0
50272,note_on,160,0,1,,,,,,,,,5,,,64,0
50302,note_on,94,0,7,,,,,,,,,10,,,40,0
50302,note_on,94,0,5,,,,,,,,,2,,,67,0
50302,note_on,94,0,2,,,,,,,,,6,,,52,0
50302,note_on,94,0,6,,,,,,,,,3,,,52,0
50304,note_on,2,0,6,,,,,,,,,3,,,45,60
50304,note_on,2,0,5,,,,,,,,,2,,,64,75
50304,note_on,2,0,7,,,,,,,,,10,,,33,60
50304,note_on,48,0,4,,,,,,,,,1,,,73,75
50304,note_on,2,0,2,,,,,,,,,6,,,45,92
50304,note_on,32,0,1,,,,,,,,,5,,,61,108
50398,note_on,94,0,7,,,,,,,,,10,,,33,0
50398,note_on,94,0,6,,,,,,,,,3,,,45,0
50398,note_on,94,0,2,,,,,,,,,6,,,45,0
50398,note_on,94,0,5,,,,,,,,,2,,,64,0
50400,note_on,2,0,5,,,,,,,,,2,,,61,75
50400,note_on,2,0,2,,,,,,,,,6,,,45,92
50400,note_on,2,0,7,,,,,,,,,10,,,33,60
50400,note_on,2,0,6,,,,,,,,,3,,,45,60
50448,note_on,336,0,3,,,,,,,,,0,,,79,0
50464,note_on,160,0,1,,,,,,,,,5,,,61,0
50464,note_on,160,0,4,,,,,,,,,1,,,73,0
50494,note_on,94,0,7,,,,,,,,,10,,,33,0
50494,note_on,94,0,2,,,,,,,,,6,,,45,0
50494,note_on,94,0,5,,,,,,,,,2,,,61,0
50494,note_on,94,0,6,,,,,,,,,3,,,45,0
50496,note_on,2,0,5,,,,,,,,,2,,,57,75
50496,note_on,32,0,4,,,,,,,,,1,,,74,127
50496,note_on,2,0,7,,,,,,,,,10,,,38,60
50496,note_on,2,0,2,,,,,,,,,6,,,50,92
50496,note_on,0,0,1,,,,,,,,,5,,,66,108
50496,note_on,48,0,3,,,,,,,,,0,,,78,75
50496,note_on,32,0,1,,,,,,,,,5,,,62,108
50496,note_on,2,0,6,,,,,,,,,3,,,50,60
50590,note_on,94,0,5,,,,,,,,,2,,,57,0
50590,note_on,94,0,2,,,,,,,,,6,,,50,0
50590,note_on,94,0,6,,,,,,,,,3,,,50,0
50590,note_on,94,0,7,,,,,,,,,10,,,38,0
50592,note_on,2,0,2,,,,,,,,,6,,,50,92
50592,note_on,2,0,6,,,,,,,,,3,,,50,60
50592,note_on,2,0,7,,,,,,,,,10,,,38,60
50592,note_on,2,0,5,,,,,,,,,2,,,62,75
50656,note_on,160,0,1,,,,,,,,,5,,,62,0
50656,note_on,0,0,1,,,,,,,,,5,,,66,0
50656,note_on,160,0,3,,,,,,,,,0,,,78,0
50686,note_on,94,0,7,,,,,,,,,10,,,38,0
50686,note_on,94,0,2,,,,,,,,,6,,,50,0
50686,note_on,94,0,5,,,,,,,,,2,,,62,0
50686,note_on,94,0,6,,,,,,,,,3,,,50,0
50688,note_on,2,0,2,,,,,,,,,6,,,52,92
50688,note_on,2,0,5,,,,,,,,,2,,,59,75
50688,note_on,2,0,7,,,,,,,,,10,,,40,60
50688,note_on,2,0,6,,,,,,,,,3,,,52,60
50688,note_on,32,0,3,,,,,,,,,0,,,80,127
50688,note_on,32,0,1,,,,,,,,,5,,,62,108
50688,note_on,0,0,1,,,,,,,,,5,,,68,108
50782,note_on,94,0,2,,,,,,,,,6,,,52,0
50782,note_on,94,0,7,,,,,,,,,10,,,40,0
50782,note_on,94,0,5,,,,,,,,,2,,,59,0
50782,note_on,94,0,6,,,,,,,,,3,,,52,0
50784,note_on,2,0,7,,,,,,,,,10,,,40,60
50784,note_on,2,0,5,,,,,,,,,2,,,64,75
50784,note_on,2,0,6,,,,,,,,,3,,,52,60
50784,note_on,2,0,2,,,,,,,,,6,,,52,92
50848,note_on,0,0,1,,,,,,,,,5,,,68,0
50848,note_on,160,0,3,,,,,,,,,0,,,80,0
50848,note_on,352,0,4,,,,,,,,,1,,,74,0
50848,note_on,160,0,1,,,,,,,,,5,,,62,0
50878,note_on,94,0,2,,,,,,,,,6,,,52,0
50878,note_on,94,0,7,,,,,,,,,10,,,40,0
50878,note_on,94,0,6,,,,,,,,,3,,,52,0
50878,note_on,94,0,5,,,,,,,,,2,,,64,0
50880,note_on,2,0,5,,,,,,,,,2,,,64,75
50880,note_on,2,0,2,,,,,,,,,6,,,45,92
50880,note_on,32,0,4,,,,,,,,,1,,,73,75
50880,note_on,32,0,3,,,,,,,,,0,,,81,127
50880,note_on,32,0,1,,,,,,,,,5,,,61,108
50880,note_on,2,0,6,,,,,,,,,3,,,45,60
50880,note_on,2,0,7,,,,,,,,,10,,,33,60
50880,note_on,0,0,1,,,,,,,,,5,,,69,108
50974,note_on,94,0,2,,,,,,,,,6,,,45,0
50974,note_on,94,0,7,,,,,,,,,10,,,33,0
50974,note_on,94,0,5,,,,,,,,,2,,,64,0
50974,note_on,94,0,6,,,,,,,,,3,,,45,0
50976,note_on,2,0,7,,,,,,,,,10,,,33,60
50976,note_on,2,0,5,,,,,,,,,2,,,64,75
50976,note_on,2,0,2,,,,,,,,,6,,,45,92
50976,note_on,2,0,6,,,,,,,,,3,,,45,60
51040,note_on,160,0,4,,,,,,,,,1,,,73,0
51040,note_on,0,0,1,,,,,,,,,5,,,69,0
51040,note_on,160,0,1,,,,,,,,,5,,,61,0
51070,note_on,94,0,2,,,,,,,,,6,,,45,0
51070,note_on,94,0,7,,,,,,,,,10,,,33,0
51070,note_on,94,0,5,,,,,,,,,2,,,64,0
51070,note_on,94,0,6,,,,,,,,,3,,,45,0
51072,note_on,2,0,5,,,,,,,,,2,,,66,75
51072,note_on,2,0,7,,,,,,,,,10,,,38,60
51072,note_on,2,0,6,,,,,,,,,3,,,50,60
51072,note_on,32,0,4,,,,,,,,,1,,,71,75
51072,note_on,32,0,1,,,,,,,,,5,,,59,108
51072,note_on,2,0,2,,,,,,,,,6,,,50,92
51166,note_on,94,0,2,,,,,,,,,6,,,50,0
51166,note_on,94,0,6,,,,,,,,,3,,,50,0
51166,note_on,94,0,7,,,,,,,,,10,,,38,0
51166,note_on,94,0,5,,,,,,,,,2,,,66,0
51168,note_on,2,0,7,,,,,,,,,10,,,38,60
51168,note_on,2,0,2,,,,,,,,,6,,,50,92
51168,note_on,2,0,6,,,,,,,,,3,,,50,60
51168,note_on,2,0,5,,,,,,,,,2,,,66,75
51216,note_on,336,0,3,,,,,,,,,0,,,81,0
51232,note_on,160,0,1,,,,,,,,,5,,,59,0
51262,note_on,94,0,2,,,,,,,,,6,,,50,0
51262,note_on,94,0,5,,,,,,,,,2,,,66,0
51262,note_on,94,0,6,,,,,,,,,3,,,50,0
51262,note_on,94,0,7,,,,,,,,,10,,,38,0
51264,note_on,0,0,1,,,,,,,,,5,,,68,108
51264,note_on,32,0,1,,,,,,,,,5,,,62,108
51264,note_on,2,0,5,,,,,,,,,2,,,64,75
51264,note_on,2,0,6,,,,,,,,,3,,,52,60
51264,note_on,2,0,7,,,,,,,,,10,,,40,60
51264,note_on,2,0,2,,,,,,,,,6,,,52,92
51264,note_on,48,0,3,,,,,,,,,0,,,80,75
51358,note_on,94,0,5,,,,,,,,,2,,,64,0
51358,note_on,94,0,7,,,,,,,,,10,,,40,0
51358,note_on,94,0,6,,,,,,,,,3,,,52,0
51358,note_on,94,0,2,,,,,,,,,6,,,52,0
51360,note_on,2,0,5,,,,,,,,,2,,,64,75
51360,note_on,2,0,7,,,,,,,,,10,,,40,60
51360,note_on,2,0,6,,,,,,,,,3,,,52,60
51360,note_on,2,0,2,,,,,,,,,6,,,52,92
51408,note_on,336,0,4,,,,,,,,,1,,,71,0
51424,note_on,160,0,3,,,,,,,,,0,,,80,0
51424,note_on,160,0,1,,,,,,,,,5,,,62,0
51424,note_on,0,0,1,,,,,,,,,5,,,68,0
51454,note_on,94,0,6,,,,,,,,,3,,,52,0
51454,note_on,94,0,2,,,,,,,,,6,,,52,0
51454,note_on,94,0,7,,,,,,,,,10,,,40,0
51454,note_on,94,0,5,,,,,,,,,2,,,64,0
51456,note_on,32,0,1,,,,,,,,,5,,,69,108
51456,note_on,2,0,2,,,,,,,,,6,,,45,92
51456,note_on,2,0,7,,,,,,,,,10,,,33,60
51456,note_on,2,0,5,,,,,,,,,2,,,64,45
51456,note_on,32,0,3,,,,,,,,,0,,,81,127
51456,note_on,2,0,6,,,,,,,,,3,,,45,60
51456,note_on,48,0,4,,,,,,,,,1,,,73,127
51456,note_on,0,0,2,,,,,,,,,6,,,57,92
51502,note_on,46,0,1,,,,,,,,,5,,,69,0
51504,note_on,2,0,1,,,,,,,,,5,,,73,108
51550,note_on,94,0,5,,,,,,,,,2,,,64,0
51550,note_on,46,0,1,,,,,,,,,5,,,73,0
51552,note_on,2,0,5,,,,,,,,,2,,,61,45
51552,note_on,2,0,1,,,,,,,,,5,,,69,108
51598,note_on,46,0,1,,,,,,,,,5,,,69,0
51600,note_on,2,0,1,,,,,,,,,5,,,64,108
51616,note_on,0,0,2,,,,,,,,,6,,,57,0
51616,note_on,160,0,2,,,,,,,,,6,,,45,0
51616,note_on,160,0,6,,,,,,,,,3,,,45,0
51616,note_on,160,0,4,,,,,,,,,1,,,73,0
51616,note_on,160,0,3,,,,,,,,,0,,,81,0
51616,note_on,160,0,7,,,,,,,,,10,,,33,0
51646,note_on,94,0,5,,,,,,,,,2,,,61,0
51646,note_on,46,0,1,,,,,,,,,5,,,64,0
51648,note_on,32,0,2,,,,,,,,,6,,,61,92
51648,note_on,2,0,5,,,,,,,,,2,,,61,45
51694,note_on,46,0,2,,,,,,,,,6,,,61,0
51696,note_on,2,0,2,,,,,,,,,6,,,64,92
51742,note_on,46,0,2,,,,,,,,,6,,,64,0
51742,note_on,94,0,5,,,,,,,,,2,,,61,0
51744,note_on,2,0,2,,,,,,,,,6,,,61,92
51744,note_on,2,0,5,,,,,,,,,2,,,61,45
51790,note_on,46,0,2,,,,,,,,,6,,,61,0
51792,note_on,2,0,2,,,,,,,,,6,,,57,92
51838,note_on,46,0,2,,,,,,,,,6,,,57,0
51838,note_on,94,0,5,,,,,,,,,2,,,61,0
51840,note_on,194,0,1,,,,,,,,,5,,,62,108
51840,note_on,2,0,5,,,,,,,,,2,,,54,45
51886,note_on,46,0,1,,,,,,,,,5,,,62,0
51888,note_on,2,0,1,,,,,,,,,5,,,66,108
51934,note_on,94,0,5,,,,,,,,,2,,,54,0
51934,note_on,46,0,1,,,,,,,,,5,,,66,0
51936,note_on,2,0,1,,,,,,,,,5,,,62,108
51936,note_on,2,0,5,,,,,,,,,2,,,54,45
51982,note_on,46,0,1,,,,,,,,,5,,,62,0
51984,note_on,2,0,1,,,,,,,,,5,,,57,108
52030,note_on,94,0,5,,,,,,,,,2,,,54,0
52030,note_on,46,0,1,,,,,,,,,5,,,57,0
52032,note_on,2,0,5,,,,,,,,,2,,,54,45
52032,note_on,194,0,2,,,,,,,,,6,,,54,92
52078,note_on,46,0,2,,,,,,,,,6,,,54,0
52080,note_on,2,0,2,,,,,,,,,6,,,57,92
52126,note_on,94,0,5,,,,,,,,,2,,,54,0
52126,note_on,46,0,2,,,,,,,,,6,,,57,0
52128,note_on,2,0,2,,,,,,,,,6,,,54,92
52128,note_on,2,0,5,,,,,,,,,2,,,54,45
52174,note_on,46,0,2,,,,,,,,,6,,,54,0
52176,note_on,2,0,2,,,,,,,,,6,,,50,92
52222,note_on,46,0,2,,,,,,,,,6,,,50,0
52222,note_on,94,0,5,,,,,,,,,2,,,54,0
52224,note_on,2,0,5,,,,,,,,,2,,,62,45
52224,note_on,194,0,1,,,,,,,,,5,,,71,108
52270,note_on,46,0,1,,,,,,,,,5,,,71,0
52272,note_on,2,0,1,,,,,,,,,5,,,74,108
52318,note_on,46,0,1,,,,,,,,,5,,,74,0
52318,note_on,94,0,5,,,,,,,,,2,,,62,0
52320,note_on,2,0,1,,,,,,,,,5,,,71,108
52320,note_on,2,0,5,,,,,,,,,2,,,62,45
52366,note_on,46,0,1,,,,,,,,,5,,,71,0
52368,note_on,2,0,1,,,,,,,,,5,,,66,108
52414,note_on,94,0,5,,,,,,,,,2,,,62,0
52414,note_on,46,0,1,,,,,,,,,5,,,66,0
52416,note_on,2,0,5,,,,,,,,,2,,,62,45
52416,note_on,194,0,2,,,,,,,,,6,,,62,92
52462,note_on,46,0,2,,,,,,,,,6,,,62,0
52464,note_on,2,0,2,,,,,,,,,6,,,66,92
52510,note_on,94,0,5,,,,,,,,,2,,,62,0
52510,note_on,46,0,2,,,,,,,,,6,,,66,0
52512,note_on,2,0,5,,,,,,,,,2,,,62,45
52512,note_on,2,0,2,,,,,,,,,6,,,62,92
52558,note_on,46,0,2,,,,,,,,,6,,,62,0
52560,note_on,2,0,2,,,,,,,,,6,,,59,92
52606,note_on,94,0,5,,,,,,,,,2,,,62,0
52606,note_on,46,0,2,,,,,,,,,6,,,59,0
52608,note_on,2,0,5,,,,,,,,,2,,,56,45
52608,note_on,194,0,1,,,,,,,,,5,,,64,108
52654,note_on,46,0,1,,,,,,,,,5,,,64,0
52656,note_on,2,0,1,,,,,,,,,5,,,68,108
52702,note_on,94,0,5,,,,,,,,,2,,,56,0
52702,note_on,46,0,1,,,,,,,,,5,,,68,0
52704,note_on,2,0,1,,,,,,,,,5,,,64,108
52704,note_on,2,0,5,,,,,,,,,2,,,56,45
52750,note_on,46,0,1,,,,,,,,,5,,,64,0
52752,note_on,2,0,1,,,,,,,,,5,,,59,108
52798,note_on,46,0,1,,,,,,,,,5,,,59,0
52798,note_on,94,0,5,,,,,,,,,2,,,56,0
52800,note_on,2,0,5,,,,,,,,,2,,,56,45
52800,note_on,194,0,2,,,,,,,,,6,,,56,92
52846,note_on,46,0,2,,,,,,,,,6,,,56,0
52848,note_on,2,0,2,,,,,,,,,6,,,59,92
52894,note_on,94,0,5,,,,,,,,,2,,,56,0
52894,note_on,46,0,2,,,,,,,,,6,,,59,0
52896,note_on,2,0,5,,,,,,,,,2,,,56,45
52896,note_on,2,0,2,,,,,,,,,6,,,56,92
52942,note_on,46,0,2,,,,,,,,,6,,,56,0
52944,note_on,2,0,2,,,,,,,,,6,,,52,92
52990,note_on,46,0,2,,,,,,,,,6,,,52,0
52990,note_on,94,0,5,,,,,,,,,2,,,56,0
52992,note_on,194,0,1,,,,,,,,,5,,,73,108
52992,note_on,2,0,5,,,,,,,,,2,,,64,45
53038,note_on,46,0,1,,,,,,,,,5,,,73,0
53040,note_on,2,0,1,,,,,,,,,5,,,76,108
53086,note_on,94,0,5,,,,,,,,,2,,,64,0
53086,note_on,46,0,1,,,,,,,,,5,,,76,0
53088,note_on,2,0,5,,,,,,,,,2,,,64,45
53088,note_on,2,0,1,,,,,,,,,5,,,73,108
53134,note_on,46,0,1,,,,,,,,,5,,,73,0
53136,note_on,2,0,1,,,,,,,,,5,,,68,108
53182,note_on,46,0,1,,,,,,,,,5,,,68,0
53182,note_on,94,0,5,,,,,,,,,2,,,64,0
53184,note_on,2,0,5,,,,,,,,,2,,,64,45
53184,note_on,194,0,2,,,,,,,,,6,,,64,92
53230,note_on,46,0,2,,,,,,,,,6,,,64,0
53232,note_on,2,0,2,,,,,,,,,6,,,68,92
53278,note_on,94,0,5,,,,,,,,,2,,,64,0
53278,note_on,46,0,2,,,,,,,,,6,,,68,0
53280,note_on,2,0,5,,,,,,,,,2,,,64,45
53280,note_on,2,0,2,,,,,,,,,6,,,64,92
53326,note_on,46,0,2,,,,,,,,,6,,,64,0
53328,note_on,2,0,2,,,,,,,,,6,,,61,92
53374,note_on,46,0,2,,,,,,,,,6,,,61,0
53374,note_on,94,0,5,,,,,,,,,2,,,64,0
53376,note_on,194,0,1,,,,,,,,,5,,,66,108
53376,note_on,2,0,5,,,,,,,,,2,,,57,45
53422,note_on,46,0,1,,,,,,,,,5,,,66,0
53424,note_on,2,0,1,,,,,,,,,5,,,69,108
53470,note_on,46,0,1,,,,,,,,,5,,,69,0
53470,note_on,94,0,5,,,,,,,,,2,,,57,0
53472,note_on,2,0,1,,,,,,,,,5,,,66,108
53472,note_on,2,0,5,,,,,,,,,2,,,57,45
53518,note_on,46,0,1,,,,,,,,,5,,,66,0
53520,note_on,2,0,1,,,,,,,,,5,,,61,108
53566,note_on,46,0,1,,,,,,,,,5,,,61,0
53566,note_on,94,0,5,,,,,,,,,2,,,57,0
53568,note_on,2,0,5,,,,,,,,,2,,,57,45
53568,note_on,194,0,2,,,,,,,,,6,,,57,92
53614,note_on,46,0,2,,,,,,,,,6,,,57,0
53616,note_on,2,0,2,,,,,,,,,6,,,61,92
53662,note_on,46,0,2,,,,,,,,,6,,,61,0
53662,note_on,94,0,5,,,,,,,,,2,,,57,0
53664,note_on,2,0,2,,,,,,,,,6,,,57,92
53664,note_on,2,0,5,,,,,,,,,2,,,57,45
53710,note_on,46,0,2,,,,,,,,,6,,,57,0
53712,note_on,2,0,2,,,,,,,,,6,,,54,92
53758,note_on,46,0,2,,,,,,,,,6,,,54,0
53758,note_on,94,0,5,,,,,,,,,2,,,57,0
53760,note_on,194,0,1,,,,,,,,,5,,,74,108
53760,note_on,2,0,5,,,,,,,,,2,,,66,45
53806,note_on,46,0,1,,,,,,,,,5,,,74,0
53808,note_on,2,0,1,,,,,,,,,5,,,78,108
53854,note_on,46,0,1,,,,,,,,,5,,,78,0
53854,note_on,94,0,5,,,,,,,,,2,,,66,0
53856,note_on,2,0,5,,,,,,,,,2,,,66,45
53856,note_on,2,0,1,,,,,,,,,5,,,74,108
53902,note_on,46,0,1,,,,,,,,,5,,,74,0
53904,note_on,2,0,1,,,,,,,,,5,,,69,108
53950,note_on,94,0,5,,,,,,,,,2,,,66,0
53950,note_on,46,0,1,,,,,,,,,5,,,69,0
53952,note_on,2,0,5,,,,,,,,,2,,,66,45
53952,note_on,194,0,2,,,,,,,,,6,,,66,92
53998,note_on,46,0,2,,,,,,,,,6,,,66,0
54000,note_on,2,0,2,,,,,,,,,6,,,69,92
54046,note_on,94,0,5,,,,,,,,,2,,,66,0
54046,note_on,46,0,2,,,,,,,,,6,,,69,0
54048,note_on,2,0,5,,,,,,,,,2,,,66,45
54048,note_on,2,0,2,,,,,,,,,6,,,66,92
54094,note_on,46,0,2,,,,,,,,,6,,,66,0
54096,note_on,2,0,2,,,,,,,,,6,,,62,92
54142,note_on,46,0,2,,,,,,,,,6,,,62,0
54142,note_on,94,0,5,,,,,,,,,2,,,66,0
54144,note_on,194,0,1,,,,,,,,,5,,,68,108
54144,note_on,2,0,5,,,,,,,,,2,,,64,45
54190,note_on,46,0,1,,,,,,,,,5,,,68,0
54192,note_on,2,0,1,,,,,,,,,5,,,71,108
54238,note_on,46,0,1,,,,,,,,,5,,,71,0
54238,note_on,94,0,5,,,,,,,,,2,,,64,0
54240,note_on,2,0,1,,,,,,,,,5,,,68,108
54240,note_on,2,0,5,,,,,,,,,2,,,64,45
54286,note_on,46,0,1,,,,,,,,,5,,,68,0
54288,note_on,2,0,1,,,,,,,,,5,,,64,108
54334,note_on,46,0,1,,,,,,,,,5,,,64,0
54334,note_on,94,0,5,,,,,,,,,2,,,64,0
54336,note_on,2,0,5,,,,,,,,,2,,,64,45
54336,note_on,194,0,2,,,,,,,,,6,,,59,92
54382,note_on,46,0,2,,,,,,,,,6,,,59,0
54384,note_on,2,0,2,,,,,,,,,6,,,64,92
54430,note_on,46,0,2,,,,,,,,,6,,,64,0
54430,note_on,94,0,5,,,,,,,,,2,,,64,0
54432,note_on,2,0,2,,,,,,,,,6,,,59,92
54432,note_on,2,0,5,,,,,,,,,2,,,64,45
54478,note_on,46,0,2,,,,,,,,,6,,,59,0
54480,note_on,2,0,2,,,,,,,,,6,,,52,92
54526,note_on,46,0,2,,,,,,,,,6,,,52,0
54526,note_on,94,0,5,,,,,,,,,2,,,64,0
54528,note_on,2,0,5,,,,,,,,,2,,,64,45
54528,note_on,194,0,1,,,,,,,,,5,,,69,108
54574,note_on,46,0,1,,,,,,,,,5,,,69,0
54576,note_on,2,0,1,,,,,,,,,5,,,73,108
54622,note_on,94,0,5,,,,,,,,,2,,,64,0
54622,note_on,46,0,1,,,,,,,,,5,,,73,0
54624,note_on,2,0,1,,,,,,,,,5,,,69,108
54624,note_on,2,0,5,,,,,,,,,2,,,64,45
54670,note_on,46,0,1,,,,,,,,,5,,,69,0
54672,note_on,2,0,1,,,,,,,,,5,,,64,108
54718,note_on,94,0,5,,,,,,,,,2,,,64,0
54718,note_on,46,0,1,,,,,,,,,5,,,64,0
54720,note_on,2,0,5,,,,,,,,,2,,,64,45
54720,note_on,194,0,2,,,,,,,,,6,,,61,92
54766,note_on,46,0,2,,,,,,,,,6,,,61,0
54768,note_on,2,0,2,,,,,,,,,6,,,64,92
54814,note_on,94,0,5,,,,,,,,,2,,,64,0
54814,note_on,46,0,2,,,,,,,,,6,,,64,0
54816,note_on,2,0,2,,,,,,,,,6,,,61,92
54816,note_on,2,0,5,,,,,,,,,2,,,64,45
54862,note_on,46,0,2,,,,,,,,,6,,,61,0
54864,note_on,2,0,2,,,,,,,,,6,,,52,92
54910,note_on,94,0,5,,,,,,,,,2,,,64,0
54910,note_on,46,0,2,,,,,,,,,6,,,52,0
54912,note_on,2,0,5,,,,,,,,,2,,,64,45
54912,note_on,194,0,1,,,,,,,,,5,,,71,108
54958,note_on,46,0,1,,,,,,,,,5,,,71,0
54960,note_on,2,0,1,,,,,,,,,5,,,74,108
55006,note_on,94,0,5,,,,,,,,,2,,,64,0
55006,note_on,46,0,1,,,,,,,,,5,,,74,0
55008,note_on,2,0,1,,,,,,,,,5,,,71,108
55008,note_on,2,0,5,,,,,,,,,2,,,64,45
55054,note_on,46,0,1,,,,,,,,,5,,,71,0
55056,note_on,2,0,1,,,,,,,,,5,,,64,108
55102,note_on,46,0,1,,,,,,,,,5,,,64,0
55102,note_on,94,0,5,,,,,,,,,2,,,64,0
55104,note_on,2,0,5,,,,,,,,,2,,,64,45
55104,note_on,194,0,2,,,,,,,,,6,,,59,92
55150,note_on,46,0,2,,,,,,,,,6,,,59,0
55152,note_on,2,0,2,,,,,,,,,6,,,62,92
55198,note_on,94,0,5,,,,,,,,,2,,,64,0
55198,note_on,46,0,2,,,,,,,,,6,,,62,0
55200,note_on,2,0,5,,,,,,,,,2,,,64,45
55200,note_on,2,0,2,,,,,,,,,6,,,59,92
55246,note_on,46,0,2,,,,,,,,,6,,,59,0
55248,note_on,2,0,2,,,,,,,,,6,,,52,92
55294,note_on,94,0,5,,,,,,,,,2,,,64,0
55294,note_on,46,0,2,,,,,,,,,6,,,52,0
55296,note_on,2,0,5,,,,,,,,,2,,,64,45
55296,note_on,194,0,1,,,,,,,,,5,,,73,108
55342,note_on,46,0,1,,,,,,,,,5,,,73,0
55344,note_on,2,0,1,,,,,,,,,5,,,76,108
55390,note_on,94,0,5,,,,,,,,,2,,,64,0
55390,note_on,46,0,1,,,,,,,,,5,,,76,0
55392,note_on,2,0,5,,,,,,,,,2,,,64,45
55392,note_on,2,0,1,,,,,,,,,5,,,73,108
55438,note_on,46,0,1,,,,,,,,,5,,,73,0
55440,note_on,2,0,1,,,,,,,,,5,,,64,108
55486,note_on,94,0,5,,,,,,,,,2,,,64,0
55486,note_on,46,0,1,,,,,,,,,5,,,64,0
55488,note_on,194,0,2,,,,,,,,,6,,,61,92
55488,note_on,2,0,5,,,,,,,,,2,,,64,45
55534,note_on,46,0,2,,,,,,,,,6,,,61,0
55536,note_on,2,0,2,,,,,,,,,6,,,64,92
55582,note_on,94,0,5,,,,,,,,,2,,,64,0
55582,note_on,46,0,2,,,,,,,,,6,,,64,0
55584,note_on,2,0,5,,,,,,,,,2,,,64,45
55584,note_on,2,0,2,,,,,,,,,6,,,61,92
55630,note_on,46,0,2,,,,,,,,,6,,,61,0
55632,note_on,2,0,2,,,,,,,,,6,,,52,92
55678,note_on,46,0,2,,,,,,,,,6,,,52,0
55678,note_on,94,0,5,,,,,,,,,2,,,64,0
55680,note_on,2,0,5,,,,,,,,,2,,,64,45
55680,note_on,194,0,1,,,,,,,,,5,,,71,108
55726,note_on,46,0,1,,,,,,,,,5,,,71,0
55728,note_on,2,0,1,,,,,,,,,5,,,74,108
55774,note_on,46,0,1,,,,,,,,,5,,,74,0
55774,note_on,94,0,5,,,,,,,,,2,,,64,0
55776,note_on,2,0,1,,,,,,,,,5,,,71,108
55776,note_on,2,0,5,,,,,,,,,2,,,64,45
55822,note_on,46,0,1,,,,,,,,,5,,,71,0
55824,note_on,2,0,1,,,,,,,,,5,,,64,108
55870,note_on,94,0,5,,,,,,,,,2,,,64,0
55870,note_on,46,0,1,,,,,,,,,5,,,64,0
55872,note_on,194,0,2,,,,,,,,,6,,,59,92
55872,note_on,2,0,5,,,,,,,,,2,,,64,45
55918,note_on,46,0,2,,,,,,,,,6,,,59,0
55920,note_on,2,0,2,,,,,,,,,6,,,62,92
55966,note_on,94,0,5,,,,,,,,,2,,,64,0
55966,note_on,46,0,2,,,,,,,,,6,,,62,0
55968,note_on,2,0,5,,,,,,,,,2,,,64,45
55968,note_on,2,0,2,,,,,,,,,6,,,59,92
56014,note_on,46,0,2,,,,,,,,,6,,,59,0
56016,note_on,2,0,2,,,,,,,,,6,,,52,92
56062,note_on,46,0,2,,,,,,,,,6,,,52,0
56062,note_on,94,0,5,,,,,,,,,2,,,64,0
56064,note_on,194,0,1,,,,,,,,,5,,,69,108
56064,note_on,2,0,5,,,,,,,,,2,,,64,45
56064,note_on,2,0,2,,,,,,,,,6,,,61,92
56110,note_on,46,0,1,,,,,,,,,5,,,69,0
56110,note_on,46,0,2,,,,,,,,,6,,,61,0
56112,note_on,2,0,1,,,,,,,,,5,,,73,108
56112,note_on,2,0,2,,,,,,,,,6,,,64,92
56158,note_on,46,0,1,,,,,,,,,5,,,73,0
56158,note_on,94,0,5,,,,,,,,,2,,,64,0
56158,note_on,46,0,2,,,,,,,,,6,,,64,0
56160,note_on,2,0,5,,,,,,,,,2,,,64,45
56160,note_on,2,0,1,,,,,,,,,5,,,69,108
56160,note_on,2,0,2,,,,,,,,,6,,,61,92
56206,note_on,46,0,1,,,,,,,,,5,,,69,0
56206,note_on,46,0,2,,,,,,,,,6,,,61,0
56208,note_on,2,0,2,,,,,,,,,6,,,57,92
56208,note_on,2,0,1,,,,,,,,,5,,,64,108
56254,note_on,94,0,5,,,,,,,,,2,,,64,0
56254,note_on,46,0,1,,,,,,,,,5,,,64,0
56254,note_on,46,0,2,,,,,,,,,6,,,57,0
56256,note_on,2,0,5,,,,,,,,,2,,,64,45
56256,note_on,2,0,1,,,,,,,,,5,,,69,108
56256,note_on,2,0,2,,,,,,,,,6,,,61,92
56302,note_on,46,0,2,,,,,,,,,6,,,61,0
56302,note_on,46,0,1,,,,,,,,,5,,,69,0
56304,note_on,2,0,1,,,,,,,,,5,,,73,108
56304,note_on,2,0,2,,,,,,,,,6,,,64,92
56350,note_on,94,0,5,,,,,,,,,2,,,64,0
56350,note_on,46,0,1,,,,,,,,,5,,,73,0
56350,note_on,46,0,2,,,,,,,,,6,,,64,0
56352,note_on,2,0,1,,,,,,,,,5,,,69,108
56352,note_on,2,0,2,,,,,,,,,6,,,61,92
56352,note_on,2,0,5,,,,,,,,,2,,,64,45
56398,note_on,46,0,2,,,,,,,,,6,,,61,0
56398,note_on,46,0,1,,,,,,,,,5,,,69,0
56400,note_on,2,0,2,,,,,,,,,6,,,57,92
56400,note_on,2,0,1,,,,,,,,,5,,,64,108
56446,note_on,94,0,5,,,,,,,,,2,,,64,0
56446,note_on,46,0,1,,,,,,,,,5,,,64,0
56446,note_on,46,0,2,,,,,,,,,6,,,57,0
56448,note_on,2,0,5,,,,,,,,,2,,,64,45
56448,note_on,2,0,2,,,,,,,,,6,,,52,92
56448,note_on,2,0,1,,,,,,,,,5,,,68,108
56494,note_on,46,0,1,,,,,,,,,5,,,68,0
56496,note_on,2,0,1,,,,,,,,,5,,,64,108
56542,note_on,94,0,2,,,,,,,,,6,,,52,0
56542,note_on,46,0,1,,,,,,,,,5,,,64,0
56542,note_on,94,0,5,,,,,,,,,2,,,64,0
56544,note_on,2,0,2,,,,,,,,,6,,,54,92
56544,note_on,2,0,1,,,,,,,,,5,,,69,108
56544,note_on,2,0,5,,,,,,,,,2,,,64,45
56590,note_on,46,0,1,,,,,,,,,5,,,69,0
56592,note_on,2,0,1,,,,,,,,,5,,,64,108
56638,note_on,46,0,1,,,,,,,,,5,,,64,0
56638,note_on,94,0,2,,,,,,,,,6,,,54,0
56638,note_on,94,0,5,,,,,,,,,2,,,64,0
56640,note_on,2,0,1,,,,,,,,,5,,,71,108
56640,note_on,2,0,2,,,,,,,,,6,,,56,92
56640,note_on,2,0,5,,,,,,,,,2,,,64,45
56686,note_on,46,0,1,,,,,,,,,5,,,71,0
56688,note_on,2,0,1,,,,,,,,,5,,,64,108
56734,note_on,46,0,1,,,,,,,,,5,,,64,0
56734,note_on,94,0,2,,,,,,,,,6,,,56,0
56734,note_on,94,0,5,,,,,,,,,2,,,64,0
56736,note_on,2,0,2,,,,,,,,,6,,,57,92
56736,note_on,2,0,1,,,,,,,,,5,,,73,108
56736,note_on,2,0,5,,,,,,,,,2,,,64,45
56782,note_on,46,0,1,,,,,,,,,5,,,73,0
56784,note_on,2,0,1,,,,,,,,,5,,,64,108
56830,note_on,94,0,2,,,,,,,,,6,,,57,0
56830,note_on,94,0,5,,,,,,,,,2,,,64,0
56830,note_on,46,0,1,,,,,,,,,5,,,64,0
56832,note_on,2,0,1,,,,,,,,,5,,,74,108
56832,note_on,2,0,2,,,,,,,,,6,,,59,92
56832,note_on,2,0,5,,,,,,,,,2,,,64,45
56926,note_on,94,0,5,,,,,,,,,2,,,64,0
56926,note_on,94,0,2,,,,,,,,,6,,,59,0
56926,note_on,94,0,1,,,,,,,,,5,,,74,0
56928,note_on,2,0,5,,,,,,,,,2,,,64,45
56928,note_on,2,0,2,,,,,,,,,6,,,61,92
56928,note_on,2,0,1,,,,,,,,,5,,,69,108
56974,note_on,46,0,2,,,,,,,,,6,,,61,0
56974,note_on,46,0,1,,,,,,,,,5,,,69,0
56976,note_on,2,0,1,,,,,,,,,5,,,71,108
56976,note_on,2,0,2,,,,,,,,,6,,,62,92
57022,note_on,46,0,1,,,,,,,,,5,,,71,0
57022,note_on,94,0,5,,,,,,,,,2,,,64,0
57022,note_on,46,0,2,,,,,,,,,6,,,62,0
57024,note_on,2,0,1,,,,,,,,,5,,,73,108
57024,note_on,2,0,5,,,,,,,,,2,,,64,45
57024,note_on,2,0,2,,,,,,,,,6,,,64,92
57070,note_on,46,0,1,,,,,,,,,5,,,73,0
57070,note_on,46,0,2,,,,,,,,,6,,,64,0
57072,note_on,2,0,1,,,,,,,,,5,,,71,108
57072,note_on,2,0,2,,,,,,,,,6,,,62,92
57118,note_on,46,0,1,,,,,,,,,5,,,71,0
57118,note_on,46,0,2,,,,,,,,,6,,,62,0
57118,note_on,94,0,5,,,,,,,,,2,,,64,0
57120,note_on,2,0,1,,,,,,,,,5,,,69,108
57120,note_on,2,0,5,,,,,,,,,2,,,64,45
57120,note_on,2,0,2,,,,,,,,,6,,,61,92
57166,note_on,46,0,1,,,,,,,,,5,,,69,0
57166,note_on,46,0,2,,,,,,,,,6,,,61,0
57168,note_on,2,0,1,,,,,,,,,5,,,68,108
57168,note_on,2,0,2,,,,,,,,,6,,,59,92
57214,note_on,94,0,5,,,,,,,,,2,,,64,0
57214,note_on,46,0,1,,,,,,,,,5,,,68,0
57214,note_on,46,0,2,,,,,,,,,6,,,59,0
57216,note_on,2,0,5,,,,,,,,,2,,,57,45
57216,note_on,2,0,1,,,,,,,,,5,,,69,108
57216,note_on,2,0,2,,,,,,,,,6,,,61,92
57310,note_on,94,0,2,,,,,,,,,6,,,61,0
57310,note_on,94,0,1,,,,,,,,,5,,,69,0
57310,note_on,94,0,5,,,,,,,,,2,,,57,0
57312,note_on,2,0,2,,,,,,,,,6,,,59,92
57312,note_on,2,0,5,,,,,,,,,2,,,57,45
57312,note_on,2,0,1,,,,,,,,,5,,,74,108
57358,note_on,46,0,2,,,,,,,,,6,,,59,0
57358,note_on,46,0,1,,,,,,,,,5,,,74,0
57360,note_on,2,0,2,,,,,,,,,6,,,61,92
57360,note_on,2,0,1,,,,,,,,,5,,,76,108
57406,note_on,94,0,5,,,,,,,,,2,,,57,0
57406,note_on,46,0,2,,,,,,,,,6,,,61,0
57406,note_on,46,0,1,,,,,,,,,5,,,76,0
57408,note_on,2,0,1,,,,,,,,,5,,,78,108
57408,note_on,2,0,2,,,,,,,,,6,,,62,92
57408,note_on,2,0,5,,,,,,,,,2,,,57,45
57454,note_on,46,0,1,,,,,,,,,5,,,78,0
57454,note_on,46,0,2,,,,,,,,,6,,,62,0
57456,note_on,2,0,2,,,,,,,,,6,,,61,92
57456,note_on,2,0,1,,,,,,,,,5,,,76,108
57502,note_on,94,0,5,,,,,,,,,2,,,57,0
57502,note_on,46,0,1,,,,,,,,,5,,,76,0
57502,note_on,46,0,2,,,,,,,,,6,,,61,0
57504,note_on,2,0,5,,,,,,,,,2,,,57,45
57504,note_on,2,0,1,,,,,,,,,5,,,74,108
57504,note_on,2,0,2,,,,,,,,,6,,,59,92
57550,note_on,46,0,2,,,,,,,,,6,,,59,0
57550,note_on,46,0,1,,,,,,,,,5,,,74,0
57552,note_on,2,0,1,,,,,,,,,5,,,73,108
57552,note_on,2,0,2,,,,,,,,,6,,,57,92
57598,note_on,46,0,2,,,,,,,,,6,,,57,0
57598,note_on,94,0,5,,,,,,,,,2,,,57,0
57598,note_on,46,0,1,,,,,,,,,5,,,73,0
57600,note_on,2,0,2,,,,,,,,,6,,,59,92
57600,note_on,2,0,1,,,,,,,,,5,,,74,108
57600,note_on,2,0,5,,,,,,,,,2,,,62,45
57694,note_on,94,0,1,,,,,,,,,5,,,74,0
57694,note_on,94,0,2,,,,,,,,,6,,,59,0
57694,note_on,94,0,5,,,,,,,,,2,,,62,0
57696,note_on,2,0,2,,,,,,,,,6,,,57,92
57696,note_on,2,0,1,,,,,,,,,5,,,73,108
57696,note_on,2,0,5,,,,,,,,,2,,,62,45
57742,note_on,46,0,2,,,,,,,,,6,,,57,0
57742,note_on,46,0,1,,,,,,,,,5,,,73,0
57744,note_on,2,0,1,,,,,,,,,5,,,74,108
57744,note_on,2,0,2,,,,,,,,,6,,,59,92
57790,note_on,46,0,1,,,,,,,,,5,,,74,0
57790,note_on,94,0,5,,,,,,,,,2,,,62,0
57790,note_on,46,0,2,,,,,,,,,6,,,59,0
57792,note_on,2,0,5,,,,,,,,,2,,,64,45
57792,note_on,2,0,1,,,,,,,,,5,,,76,108
57792,note_on,2,0,2,,,,,,,,,6,,,61,92
57838,note_on,46,0,2,,,,,,,,,6,,,61,0
57838,note_on,46,0,1,,,,,,,,,5,,,76,0
57840,note_on,2,0,2,,,,,,,,,6,,,59,92
57840,note_on,2,0,1,,,,,,,,,5,,,74,108
57886,note_on,46,0,1,,,,,,,,,5,,,74,0
57886,note_on,94,0,5,,,,,,,,,2,,,64,0
57886,note_on,46,0,2,,,,,,,,,6,,,59,0
57888,note_on,2,0,2,,,,,,,,,6,,,57,92
57888,note_on,2,0,1,,,,,,,,,5,,,73,108
57888,note_on,2,0,5,,,,,,,,,2,,,64,45
57934,note_on,46,0,2,,,,,,,,,6,,,57,0
57934,note_on,46,0,1,,,,,,,,,5,,,73,0
57936,note_on,2,0,1,,,,,,,,,5,,,71,108
57936,note_on,2,0,2,,,,,,,,,6,,,56,92
57982,note_on,46,0,2,,,,,,,,,6,,,56,0
57982,note_on,94,0,5,,,,,,,,,2,,,64,0
57982,note_on,46,0,1,,,,,,,,,5,,,71,0
57984,note_on,6368,0,7,,,,,,,,,10,,,45,60
57984,note_on,0,0,3,,,,,,,,,0,,,69,127
57984,control_change,6368,0,3,,,,,,,,,0,10,0,,
57984,note_on,2,0,1,,,,,,,,,5,,,69,108
57984,note_on,6368,0,6,,,,,,,,,3,,,57,60
57984,control_change,6368,0,4,,,,,,,,,1,10,127,,
57984,note_on,0,0,4,,,,,,,,,1,,,69,127
57984,note_on,2,0,2,,,,,,,,,6,,,57,92
57984,note_on,2,0,5,,,,,,,,,2,,,69,45
58078,note_on,94,0,2,,,,,,,,,6,,,57,0
58078,note_on,94,0,7,,,,,,,,,10,,,45,0
58078,note_on,94,0,5,,,,,,,,,2,,,69,0
58078,note_on,94,0,1,,,,,,,,,5,,,69,0
58078,note_on,94,0,3,,,,,,,,,0,,,69,0
58078,note_on,94,0,6,,,,,,,,,3,,,57,0
58078,note_on,94,0,4,,,,,,,,,1,,,69,0
58080,note_on,2,0,4,,,,,,,,,1,,,57,127
58080,note_on,2,0,5,,,,,,,,,2,,,57,45
58080,note_on,2,0,6,,,,,,,,,3,,,45,60
58080,note_on,2,0,7,,,,,,,,,10,,,33,60
58080,note_on,2,0,2,,,,,,,,,6,,,45,92
58080,note_on,2,0,1,,,,,,,,,5,,,57,108
58080,note_on,2,0,3,,,,,,,,,0,,,57,127
58112,note_on,32,0,7,,,,,,,,,10,,,33,0
58112,note_on,32,0,5,,,,,,,,,2,,,57,0
58112,note_on,32,0,1,,,,,,,,,5,,,57,0
58112,note_on,32,0,4,,,,,,,,,1,,,57,0
58112,note_on,32,0,2,,,,,,,,,6,,,45,0
58112,note_on,32,0,3,,,,,,,,,0,,,57,0
58112,note_on,32,0,6,,,,,,,,,3,,,45,0
58176,note_on,64,0,6,,,,,,,,,3,,,45,60
58176,note_on,64,0,3,,,,,,,,,0,,,57,127
58176,note_on,64,0,4,,,,,,,,,1,,,57,127
58176,note_on,64,0,7,,,,,,,,,10,,,33,60
58176,note_on,64,0,2,,,,,,,,,6,,,45,92
58176,note_on,64,0,5,,,,,,,,,2,,,57,45
58176,note_on,64,0,1,,,,,,,,,5,,,57,108
58208,note_on,32,0,4,,,,,,,,,1,,,57,0
58208,note_on,32,0,3,,,,,,,,,0,,,57,0
58208,note_on,32,0,7,,,,,,,,,10,,,33,0
58208,note_on,32,0,1,,,,,,,,,5,,,57,0
58208,note_on,32,0,5,,,,,,,,,2,,,57,0
58208,note_on,32,0,2,,,,,,,,,6,,,45,0
58208,note_on,32,0,6,,,,,,,,,3,,,45,0
58272,note_on,64,0,7,,,,,,,,,10,,,33,60
58272,note_on,64,0,1,,,,,,,,,5,,,57,108
58272,note_on,64,0,5,,,,,,,,,2,,,57,45
58272,note_on,64,0,3,,,,,,,,,0,,,57,127
58272,note_on,64,0,6,,,,,,,,,3,,,45,60
58272,note_on,64,0,4,,,,,,,,,1,,,57,127
58272,note_on,64,0,2,,,,,,,,,6,,,45,92
58304,note_on,32,0,5,,,,,,,,,2,,,57,0
58304,note_on,32,0,6,,,,,,,,,3,,,45,0
58304,note_on,32,0,4,,,,,,,,,1,,,57,0
58304,note_on,32,0,1,,,,,,,,,5,,,57,0
58304,note_on,32,0,3,,,,,,,,,0,,,57,0
58304,note_on,32,0,2,,,,,,,,,6,,,45,0
58304,note_on,32,0,7,,,,,,,,,10,,,33,0
58368,note_on,64,0,3,,,,,,,,,0,,,57,127
58368,note_on,64,0,6,,,,,,,,,3,,,45,60
58368,note_on,64,0,2,,,,,,,,,6,,,45,92
58368,note_on,64,0,1,,,,,,,,,5,,,57,108
58368,note_on,64,0,5,,,,,,,,,2,,,57,45
58368,note_on,64,0,7,,,,,,,,,10,,,33,60
58368,note_on,64,0,4,,,,,,,,,1,,,57,127
58528,note_on,160,0,2,,,,,,,,,6,,,45,0
58528,note_on,160,0,5,,,,,,,,,2,,,57,0
58528,note_on,160,0,6,,,,,,,,,3,,,45,0
58528,note_on,160,0,7,,,,,,,,,10,,,33,0
58528,note_on,160,0,3,,,,,,,,,0,,,57,0
58528,note_on,160,0,4,,,,,,,,,1,,,57,0
58528,note_on,160,0,1,,,,,,,,,5,,,57,0
58608,note_on,80,0,7,,,,,,,,,10,,,40,60
58608,note_on,80,0,3,,,,,,,,,0,,,64,127
58608,note_on,80,0,4,,,,,,,,,1,,,64,127
58608,note_on,80,0,6,,,,,,,,,3,,,52,60
58608,note_on,80,0,5,,,,,,,,,2,,,64,45
58608,note_on,80,0,2,,,,,,,,,6,,,52,92
58608,note_on,80,0,1,,,,,,,,,5,,,64,108
58654,note_on,46,0,1,,,,,,,,,5,,,64,0
58654,note_on,46,0,4,,,,,,,,,1,,,64,0
58654,note_on,46,0,3,,,,,,,,,0,,,64,0
58654,note_on,46,0,6,,,,,,,,,3,,,52,0
58654,note_on,46,0,5,,,,,,,,,2,,,64,0
58654,note_on,46,0,2,,,,,,,,,6,,,52,0
58654,note_on,46,0,7,,,,,,,,,10,,,40,0
58656,note_on,2,0,1,,,,,,,,,5,,,66,108
58656,note_on,2,0,2,,,,,,,,,6,,,54,92
58656,note_on,2,0,6,,,,,,,,,3,,,54,60
58656,note_on,2,0,4,,,,,,,,,1,,,66,127
58656,note_on,2,0,7,,,,,,,,,10,,,42,60
58656,note_on,2,0,3,,,,,,,,,0,,,66,127
58656,note_on,2,0,5,,,,,,,,,2,,,66,45
58702,note_on,46,0,6,,,,,,,,,3,,,54,0
58702,note_on,46,0,7,,,,,,,,,10,,,42,0
58702,note_on,46,0,2,,,,,,,,,6,,,54,0
58702,note_on,46,0,4,,,,,,,,,1,,,66,0
58702,note_on,46,0,3,,,,,,,,,0,,,66,0
58702,note_on,46,0,5,,,,,,,,,2,,,66,0
58702,note_on,46,0,1,,,,,,,,,5,,,66,0
58704,note_on,2,0,2,,,,,,,,,6,,,56,92
58704,note_on,2,0,4,,,,,,,,,1,,,68,127
58704,note_on,2,0,5,,,,,,,,,2,,,68,45
58704,note_on,2,0,7,,,,,,,,,10,,,44,60
58704,note_on,2,0,3,,,,,,,,,0,,,68,127
58704,note_on,2,0,6,,,,,,,,,3,,,56,60
58704,note_on,2,0,1,,,,,,,,,5,,,68,108
58750,note_on,46,0,5,,,,,,,,,2,,,68,0
58750,note_on,46,0,1,,,,,,,,,5,,,68,0
58750,note_on,46,0,2,,,,,,,,,6,,,56,0
58750,note_on,46,0,4,,,,,,,,,1,,,68,0
58750,note_on,46,0,3,,,,,,,,,0,,,68,0
58750,note_on,46,0,6,,,,,,,,,3,,,56,0
58750,note_on,46,0,7,,,,,,,,,10,,,44,0
58752,note_on,2,0,5,,,,,,,,,2,,,69,45
58752,note_on,2,0,2,,,,,,,,,6,,,57,92
58752,note_on,2,0,4,,,,,,,,,1,,,69,127
58752,note_on,2,0,6,,,,,,,,,3,,,57,60
58752,note_on,2,0,7,,,,,,,,,10,,,45,60
58752,note_on,2,0,3,,,,,,,,,0,,,69,127
58752,note_on,2,0,1,,,,,,,,,5,,,69,108
58846,note_on,94,0,6,,,,,,,,,3,,,57,0
58846,note_on,94,0,2,,,,,,,,,6,,,57,0
58846,note_on,94,0,5,,,,,,,,,2,,,69,0
58846,note_on,94,0,4,,,,,,,,,1,,,69,0
58846,note_on,94,0,3,,,,,,,,,0,,,69,0
58846,note_on,94,0,1,,,,,,,,,5,,,69,0
58846,note_on,94,0,7,,,,,,,,,10,,,45,0
58848,note_on,2,0,4,,,,,,,,,1,,,57,127
58848,note_on,2,0,3,,,,,,,,,0,,,57,127
58848,note_on,2,0,2,,,,,,,,,6,,,45,92
58848,note_on,2,0,1,,,,,,,,,5,,,57,108
58848,note_on,2,0,5,,,,,,,,,2,,,57,45
58848,note_on,2,0,7,,,,,,,,,10,,,33,60
58848,note_on,2,0,6,,,,,,,,,3,,,45,60
58880,note_on,32,0,4,,,,,,,,,1,,,57,0
58880,note_on,32,0,3,,,,,,,,,0,,,57,0
58880,note_on,32,0,2,,,,,,,,,6,,,45,0
58880,note_on,32,0,1,,,,,,,,,5,,,57,0
58880,note_on,32,0,5,,,,,,,,,2,,,57,0
58880,note_on,32,0,6,,,,,,,,,3,,,45,0
58942,note_on,94,0,7,,,,,,,,,10,,,33,0
58944,note_on,64,0,3,,,,,,,,,0,,,57,127
58944,note_on,64,0,5,,,,,,,,,2,,,57,45
58944,note_on,64,0,1,,,,,,,,,5,,,57,108
58944,note_on,2,0,7,,,,,,,,,10,,,33,60
58944,note_on,64,0,2,,,,,,,,,6,,,45,92
58944,note_on,64,0,4,,,,,,,,,1,,,57,127
58944,note_on,64,0,6,,,,,,,,,3,,,45,60
58976,note_on,32,0,6,,,,,,,,,3,,,45,0
58976,note_on,32,0,5,,,,,,,,,2,,,57,0
58976,note_on,32,0,1,,,,,,,,,5,,,57,0
58976,note_on,32,0,4,,,,,,,,,1,,,57,0
58976,note_on,32,0,2,,,,,,,,,6,,,45,0
58976,note_on,32,0,3,,,,,,,,,0,,,57,0
59038,note_on,94,0,7,,,,,,,,,10,,,33,0
59040,note_on,64,0,5,,,,,,,,,2,,,57,45
59040,note_on,64,0,3,,,,,,,,,0,,,57,127
59040,note_on,64,0,4,,,,,,,,,1,,,57,127
59040,note_on,2,0,7,,,,,,,,,10,,,33,60
59040,note_on,64,0,1,,,,,,,,,5,,,57,108
59040,note_on,64,0,6,,,,,,,,,3,,,45,60
59040,note_on,64,0,2,,,,,,,,,6,,,45,92
59072,note_on,32,0,3,,,,,,,,,0,,,57,0
59072,note_on,32,0,5,,,,,,,,,2,,,57,0
59072,note_on,32,0,1,,,,,,,,,5,,,57,0
59072,note_on,32,0,2,,,,,,,,,6,,,45,0
59072,note_on,32,0,6,,,,,,,,,3,,,45,0
59072,note_on,32,0,4,,,,,,,,,1,,,57,0
59134,note_on,94,0,7,,,,,,,,,10,,,33,0
59136,note_on,64,0,4,,,,,,,,,1,,,57,127
59136,note_on,64,0,6,,,,,,,,,3,,,45,60
59136,note_on,64,0,5,,,,,,,,,2,,,57,45
59136,note_on,64,0,1,,,,,,,,,5,,,57,108
59136,note_on,64,0,3,,,,,,,,,0,,,57,127
59136,note_on,2,0,7,,,,,,,,,10,,,33,60
59136,note_on,64,0,2,,,,,,,,,6,,,45,92
59296,note_on,160,0,1,,,,,,,,,5,,,57,0
59296,note_on,160,0,5,,,,,,,,,2,,,57,0
59296,note_on,160,0,3,,,,,,,,,0,,,57,0
59296,note_on,160,0,2,,,,,,,,,6,,,45,0
59296,note_on,160,0,6,,,,,,,,,3,,,45,0
59296,note_on,160,0,4,,,,,,,,,1,,,57,0
59296,note_on,160,0,7,,,,,,,,,10,,,33,0
59376,note_on,80,0,3,,,,,,,,,0,,,64,127
59376,note_on,80,0,7,,,,,,,,,10,,,40,60
59376,note_on,80,0,6,,,,,,,,,3,,,52,60
59376,note_on,80,0,4,,,,,,,,,1,,,64,127
59376,note_on,80,0,5,,,,,,,,,2,,,64,45
59376,note_on,80,0,2,,,,,,,,,6,,,52,92
59376,note_on,80,0,1,,,,,,,,,5,,,64,108
59422,note_on,46,0,4,,,,,,,,,1,,,64,0
59422,note_on,46,0,7,,,,,,,,,10,,,40,0
59422,note_on,46,0,5,,,,,,,,,2,,,64,0
59422,note_on,46,0,1,,,,,,,,,5,,,64,0
59422,note_on,46,0,3,,,,,,,,,0,,,64,0
59422,note_on,46,0,6,,,,,,,,,3,,,52,0
59422,note_on,46,0,2,,,,,,,,,6,,,52,0
59424,note_on,2,0,1,,,,,,,,,5,,,66,108
59424,note_on,2,0,6,,,,,,,,,3,,,54,60
59424,note_on,2,0,2,,,,,,,,,6,,,54,92
59424,note_on,2,0,4,,,,,,,,,1,,,66,127
59424,note_on,2,0,5,,,,,,,,,2,,,66,45
59424,note_on,2,0,3,,,,,,,,,0,,,66,127
59424,note_on,2,0,7,,,,,,,,,10,,,42,60
59470,note_on,46,0,7,,,,,,,,,10,,,42,0
59470,note_on,46,0,4,,,,,,,,,1,,,66,0
59470,note_on,46,0,2,,,,,,,,,6,,,54,0
59470,note_on,46,0,5,,,,,,,,,2,,,66,0
59470,note_on,46,0,1,,,,,,,,,5,,,66,0
59470,note_on,46,0,6,,,,,,,,,3,,,54,0
59470,note_on,46,0,3,,,,,,,,,0,,,66,0
59472,note_on,2,0,2,,,,,,,,,6,,,56,92
59472,note_on,2,0,6,,,,,,,,,3,,,56,60
59472,note_on,2,0,3,,,,,,,,,0,,,68,127
59472,note_on,2,0,7,,,,,,,,,10,,,44,60
59472,note_on,2,0,1,,,,,,,,,5,,,68,108
59472,note_on,2,0,5,,,,,,,,,2,,,68,45
59472,note_on,2,0,4,,,,,,,,,1,,,68,127
59518,note_on,46,0,7,,,,,,,,,10,,,44,0
59518,note_on,46,0,3,,,,,,,,,0,,,68,0
59518,note_on,46,0,1,,,,,,,,,5,,,68,0
59518,note_on,46,0,6,,,,,,,,,3,,,56,0
59518,note_on,46,0,5,,,,,,,,,2,,,68,0
59518,note_on,46,0,2,,,,,,,,,6,,,56,0
59518,note_on,46,0,4,,,,,,,,,1,,,68,0
59520,note_on,2,0,1,,,,,,,,,5,,,69,108
59520,note_on,2,0,5,,,,,,,,,2,,,69,45
59520,note_on,2,0,7,,,,,,,,,10,,,45,60
59520,note_on,2,0,2,,,,,,,,,6,,,57,92
59520,note_on,2,0,3,,,,,,,,,0,,,69,127
59520,note_on,2,0,4,,,,,,,,,1,,,69,127
59520,note_on,2,0,6,,,,,,,,,3,,,57,60
59566,note_on,46,0,7,,,,,,,,,10,,,45,0
59566,note_on,46,0,1,,,,,,,,,5,,,69,0
59566,note_on,46,0,3,,,,,,,,,0,,,69,0
59566,note_on,46,0,4,,,,,,,,,1,,,69,0
59566,note_on,46,0,6,,,,,,,,,3,,,57,0
59566,note_on,46,0,5,,,,,,,,,2,,,69,0
59566,note_on,46,0,2,,,,,,,,,6,,,57,0
59568,note_on,2,0,7,,,,,,,,,10,,,45,60
59568,note_on,2,0,1,,,,,,,,,5,,,69,108
59568,note_on,2,0,6,,,,,,,,,3,,,57,60
59568,note_on,2,0,2,,,,,,,,,6,,,57,92
59568,note_on,2,0,3,,,,,,,,,0,,,69,127
59568,note_on,2,0,4,,,,,,,,,1,,,69,127
59568,note_on,2,0,5,,,,,,,,,2,,,69,45
59614,note_on,46,0,2,,,,,,,,,6,,,57,0
59614,note_on,46,0,6,,,,,,,,,3,,,57,0
59614,note_on,46,0,1,,,,,,,,,5,,,69,0
59614,note_on,46,0,3,,,,,,,,,0,,,69,0
59614,note_on,46,0,4,,,,,,,,,1,,,69,0
59614,note_on,46,0,5,,,,,,,,,2,,,69,0
59614,note_on,46,0,7,,,,,,,,,10,,,45,0
59616,note_on,2,0,1,,,,,,,,,5,,,71,108
59616,note_on,2,0,3,,,,,,,,,0,,,71,127
59616,note_on,2,0,5,,,,,,,,,2,,,71,45
59616,note_on,2,0,7,,,,,,,,,10,,,47,60
59616,note_on,2,0,6,,,,,,,,,3,,,59,60
59616,note_on,2,0,4,,,,,,,,,1,,,71,127
59616,note_on,2,0,2,,,,,,,,,6,,,59,92
59662,note_on,46,0,5,,,,,,,,,2,,,71,0
59662,note_on,46,0,6,,,,,,,,,3,,,59,0
59662,note_on,46,0,4,,,,,,,,,1,,,71,0
59662,note_on,46,0,7,,,,,,,,,10,,,47,0
59662,note_on,46,0,1,,,,,,,,,5,,,71,0
59662,note_on,46,0,2,,,,,,,,,6,,,59,0
59662,note_on,46,0,3,,,,,,,,,0,,,71,0
59664,note_on,2,0,3,,,,,,,,,0,,,71,127
59664,note_on,2,0,5,,,,,,,,,2,,,71,45
59664,note_on,2,0,1,,,,,,,,,5,,,71,108
59664,note_on,2,0,4,,,,,,,,,1,,,71,127
59664,note_on,2,0,7,,,,,,,,,10,,,47,60
59664,note_on,2,0,2,,,,,,,,,6,,,59,92
59664,note_on,2,0,6,,,,,,,,,3,,,59,60
59710,note_on,46,0,6,,,,,,,,,3,,,59,0
59710,note_on,46,0,5,,,,,,,,,2,,,71,0
59710,note_on,46,0,3,,,,,,,,,0,,,71,0
59710,note_on,46,0,4,,,,,,,,,1,,,71,0
59710,note_on,46,0,7,,,,,,,,,10,,,47,0
59710,note_on,46,0,2,,,,,,,,,6,,,59,0
59710,note_on,46,0,1,,,,,,,,,5,,,71,0
59712,note_on,2,0,5,,,,,,,,,2,,,73,45
59712,note_on,2,0,1,,,,,,,,,5,,,73,108
59712,note_on,2,0,2,,,,,,,,,6,,,61,92
59712,note_on,2,0,3,,,,,,,,,0,,,73,127
59712,note_on,2,0,4,,,,,,,,,1,,,73,127
59712,note_on,2,0,7,,,,,,,,,10,,,49,60
59712,note_on,2,0,6,,,,,,,,,3,,,61,60
59758,note_on,46,0,5,,,,,,,,,2,,,73,0
59758,note_on,46,0,7,,,,,,,,,10,,,49,0
59758,note_on,46,0,2,,,,,,,,,6,,,61,0
59758,note_on,46,0,4,,,,,,,,,1,,,73,0
59758,note_on,46,0,1,,,,,,,,,5,,,73,0
59758,note_on,46,0,6,,,,,,,,,3,,,61,0
59758,note_on,46,0,3,,,,,,,,,0,,,73,0
59760,note_on,2,0,4,,,,,,,,,1,,,73,127
59760,note_on,2,0,5,,,,,,,,,2,,,73,45
59760,note_on,2,0,2,,,,,,,,,6,,,61,92
59760,note_on,2,0,6,,,,,,,,,3,,,61,60
59760,note_on,2,0,7,,,,,,,,,10,,,49,60
59760,note_on,2,0,3,,,,,,,,,0,,,73,127
59760,note_on,2,0,1,,,,,,,,,5,,,73,108
59806,note_on,46,0,1,,,,,,,,,5,,,73,0
59806,note_on,46,0,7,,,,,,,,,10,,,49,0
59806,note_on,46,0,3,,,,,,,,,0,,,73,0
59806,note_on,46,0,4,,,,,,,,,1,,,73,0
59806,note_on,46,0,5,,,,,,,,,2,,,73,0
59806,note_on,46,0,6,,,,,,,,,3,,,61,0
59806,note_on,46,0,2,,,,,,,,,6,,,61,0
59808,note_on,2,0,2,,,,,,,,,6,,,62,92
59808,note_on,2,0,1,,,,,,,,,5,,,74,108
59808,note_on,2,0,6,,,,,,,,,3,,,62,60
59808,note_on,2,0,5,,,,,,,,,2,,,74,45
59808,note_on,2,0,3,,,,,,,,,0,,,74,127
59808,note_on,2,0,7,,,,,,,,,10,,,50,60
59808,note_on,2,0,4,,,,,,,,,1,,,74,127
59854,note_on,46,0,5,,,,,,,,,2,,,74,0
59854,note_on,46,0,6,,,,,,,,,3,,,62,0
59854,note_on,46,0,3,,,,,,,,,0,,,74,0
59854,note_on,46,0,4,,,,,,,,,1,,,74,0
59854,note_on,46,0,7,,,,,,,,,10,,,50,0
59854,note_on,46,0,1,,,,,,,,,5,,,74,0
59854,note_on,46,0,2,,,,,,,,,6,,,62,0
59856,note_on,2,0,5,,,,,,,,,2,,,74,45
59856,note_on,2,0,4,,,,,,,,,1,,,74,127
59856,note_on,2,0,3,,,,,,,,,0,,,74,127
59856,note_on,2,0,7,,,,,,,,,10,,,50,60
59856,note_on,2,0,2,,,,,,,,,6,,,62,92
59856,note_on,2,0,1,,,,,,,,,5,,,74,108
59856,note_on,2,0,6,,,,,,,,,3,,,62,60
59902,note_on,46,0,2,,,,,,,,,6,,,62,0
59902,note_on,46,0,1,,,,,,,,,5,,,74,0
59902,note_on,46,0,5,,,,,,,,,2,,,74,0
59902,note_on,46,0,3,,,,,,,,,0,,,74,0
59902,note_on,46,0,4,,,,,,,,,1,,,74,0
59902,note_on,46,0,7,,,,,,,,,10,,,50,0
59902,note_on,46,0,6,,,,,,,,,3,,,62,0
59904,note_on,2,0,1,,,,,,,,,5,,,76,108
59904,note_on,2,0,3,,,,,,,,,0,,,76,127
59904,note_on,2,0,4,,,,,,,,,1,,,76,127
59904,note_on,2,0,7,,,,,,,,,10,,,52,60
59904,note_on,2,0,5,,,,,,,,,2,,,76,45
59904,note_on,2,0,2,,,,,,,,,6,,,64,92
59904,note_on,2,0,6,,,,,,,,,3,,,64,60
59998,note_on,94,0,6,,,,,,,,,3,,,64,0
59998,note_on,94,0,2,,,,,,,,,6,,,64,0
59998,note_on,94,0,4,,,,,,,,,1,,,76,0
59998,note_on,94,0,5,,,,,,,,,2,,,76,0
59998,note_on,94,0,1,,,,,,,,,5,,,76,0
59998,note_on,94,0,7,,,,,,,,,10,,,52,0
59998,note_on,94,0,3,,,,,,,,,0,,,76,0
60000,note_on,2,0,2,,,,,,,,,6,,,52,92
60000,note_on,2,0,1,,,,,,,,,5,,,64,108
60000,note_on,2,0,7,,,,,,,,,10,,,40,60
60000,note_on,2,0,3,,,,,,,,,0,,,64,127
60000,note_on,2,0,6,,,,,,,,,3,,,52,60
60000,note_on,2,0,4,,,,,,,,,1,,,64,127
60000,note_on,2,0,5,,,,,,,,,2,,,64,45
60094,note_on,94,0,2,,,,,,,,,6,,,52,0
60094,note_on,94,0,3,,,,,,,,,0,,,64,0
60094,note_on,94,0,7,,,,,,,,,10,,,40,0
60094,note_on,94,0,1,,,,,,,,,5,,,64,0
60094,end_of_track,0,1,5,,,,,,,,,,,,,
60094,note_on,94,0,5,,,,,,,,,2,,,64,0
60094,note_on,94,0,6,,,,,,,,,3,,,52,0
60094,note_on,94,0,4,,,,,,,,,1,,,64,0
60192,note_on,98,0,6,,,,,,,,,3,,,52,60
60192,note_on,98,0,1,,,,,,,,,5,,,76,108
60192,note_on,98,0,2,,,,,,,,,6,,,52,92
60286,note_on,94,0,1,,,,,,,,,5,,,76,0
60286,note_on,94,0,6,,,,,,,,,3,,,52,0
60286,note_on,94,0,2,,,,,,,,,6,,,52,0
60288,note_on,2,0,1,,,,,,,,,5,,,76,108
60288,note_on,2,0,2,,,,,,,,,6,,,61,92
60288,note_on,2,0,6,,,,,,,,,3,,,57,60
60334,note_on,46,0,2,,,,,,,,,6,,,61,0
60334,note_on,46,0,1,,,,,,,,,5,,,76,0
60336,note_on,2,0,2,,,,,,,,,6,,,62,92
60336,note_on,2,0,1,,,,,,,,,5,,,78,108
60382,note_on,94,0,6,,,,,,,,,3,,,57,0
60382,note_on,46,0,1,,,,,,,,,5,,,78,0
60382,note_on,46,0,2,,,,,,,,,6,,,62,0
60384,note_on,2,0,6,,,,,,,,,3,,,45,60
60384,note_on,2,0,2,,,,,,,,,6,,,61,92
60384,note_on,2,0,1,,,,,,,,,5,,,76,108
60430,note_on,46,0,2,,,,,,,,,6,,,61,0
60430,note_on,46,0,1,,,,,,,,,5,,,76,0
60432,note_on,2,0,2,,,,,,,,,6,,,62,92
60432,note_on,2,0,1,,,,,,,,,5,,,78,108
60478,note_on,46,0,1,,,,,,,,,5,,,78,0
60478,note_on,46,0,2,,,,,,,,,6,,,62,0
60478,note_on,94,0,6,,,,,,,,,3,,,45,0
60480,note_on,2,0,1,,,,,,,,,5,,,76,108
60480,note_on,2,0,2,,,,,,,,,6,,,61,92
60526,note_on,46,0,2,,,,,,,,,6,,,61,0
60526,note_on,46,0,1,,,,,,,,,5,,,76,0
60528,note_on,2,0,1,,,,,,,,,5,,,78,108
60528,note_on,2,0,2,,,,,,,,,6,,,62,92
60574,note_on,46,0,2,,,,,,,,,6,,,62,0
60574,note_on,46,0,1,,,,,,,,,5,,,78,0
60576,note_on,2,0,1,,,,,,,,,5,,,76,108
60576,note_on,2,0,2,,,,,,,,,6,,,61,92
60576,note_on,98,0,6,,,,,,,,,3,,,57,60
60622,note_on,46,0,1,,,,,,,,,5,,,76,0
60622,note_on,46,0,2,,,,,,,,,6,,,61,0
60624,note_on,2,0,1,,,,,,,,,5,,,78,108
60624,note_on,2,0,2,,,,,,,,,6,,,62,92
60670,note_on,46,0,1,,,,,,,,,5,,,78,0
60670,note_on,94,0,6,,,,,,,,,3,,,57,0
60670,note_on,46,0,2,,,,,,,,,6,,,62,0
60672,note_on,2,0,2,,,,,,,,,6,,,59,92
60672,note_on,2,0,1,,,,,,,,,5,,,74,108
60672,note_on,2,0,6,,,,,,,,,3,,,59,60
60718,note_on,46,0,2,,,,,,,,,6,,,59,0
60718,note_on,46,0,1,,,,,,,,,5,,,74,0
60720,note_on,2,0,2,,,,,,,,,6,,,61,92
60720,note_on,2,0,1,,,,,,,,,5,,,76,108
60766,note_on,46,0,2,,,,,,,,,6,,,61,0
60766,note_on,94,0,6,,,,,,,,,3,,,59,0
60766,note_on,46,0,1,,,,,,,,,5,,,76,0
60768,note_on,2,0,6,,,,,,,,,3,,,52,60
60768,note_on,2,0,1,,,,,,,,,5,,,74,108
60768,note_on,2,0,2,,,,,,,,,6,,,59,92
60814,note_on,46,0,1,,,,,,,,,5,,,74,0
60814,note_on,46,0,2,,,,,,,,,6,,,59,0
60816,note_on,2,0,2,,,,,,,,,6,,,61,92
60816,note_on,2,0,1,,,,,,,,,5,,,76,108
60862,note_on,46,0,2,,,,,,,,,6,,,61,0
60862,note_on,94,0,6,,,,,,,,,3,,,52,0
60862,note_on,46,0,1,,,,,,,,,5,,,76,0
60864,note_on,2,0,2,,,,,,,,,6,,,59,92
60864,note_on,2,0,1,,,,,,,,,5,,,74,108
60910,note_on,46,0,1,,,,,,,,,5,,,74,0
60910,note_on,46,0,2,,,,,,,,,6,,,59,0
60912,note_on,2,0,1,,,,,,,,,5,,,76,108
60912,note_on,2,0,2,,,,,,,,,6,,,61,92
60958,note_on,46,0,2,,,,,,,,,6,,,61,0
60958,note_on,46,0,1,,,,,,,,,5,,,76,0
60960,note_on,2,0,1,,,,,,,,,5,,,74,108
60960,note_on,2,0,2,,,,,,,,,6,,,59,92
60960,note_on,98,0,6,,,,,,,,,3,,,56,60
61006,note_on,46,0,2,,,,,,,,,6,,,59,0
61006,note_on,46,0,1,,,,,,,,,5,,,74,0
61008,note_on,2,0,2,,,,,,,,,6,,,61,92
61008,note_on,2,0,1,,,,,,,,,5,,,76,108
61054,note_on,94,0,6,,,,,,,,,3,,,56,0
61054,note_on,46,0,2,,,,,,,,,6,,,61,0
61054,note_on,46,0,1,,,,,,,,,5,,,76,0
61056,note_on,2,0,1,,,,,,,,,5,,,73,108
61056,note_on,2,0,6,,,,,,,,,3,,,57,60
61056,note_on,2,0,2,,,,,,,,,6,,,57,92
61102,note_on,46,0,2,,,,,,,,,6,,,57,0
61102,note_on,46,0,1,,,,,,,,,5,,,73,0
61104,note_on,2,0,2,,,,,,,,,6,,,59,92
61104,note_on,2,0,1,,,,,,,,,5,,,74,108
61150,note_on,46,0,2,,,,,,,,,6,,,59,0
61150,note_on,46,0,1,,,,,,,,,5,,,74,0
61150,note_on,94,0,6,,,,,,,,,3,,,57,0
61152,note_on,2,0,6,,,,,,,,,3,,,45,60
61152,note_on,2,0,1,,,,,,,,,5,,,73,108
61152,note_on,2,0,2,,,,,,,,,6,,,57,92
61198,note_on,46,0,1,,,,,,,,,5,,,73,0
61198,note_on,46,0,2,,,,,,,,,6,,,57,0
61200,note_on,2,0,1,,,,,,,,,5,,,74,108
61200,note_on,2,0,2,,,,,,,,,6,,,59,92
61246,note_on,46,0,1,,,,,,,,,5,,,74,0
61246,note_on,46,0,2,,,,,,,,,6,,,59,0
61246,note_on,94,0,6,,,,,,,,,3,,,45,0
61248,note_on,2,0,1,,,,,,,,,5,,,73,108
61248,note_on,2,0,2,,,,,,,,,6,,,57,92
61294,note_on,46,0,1,,,,,,,,,5,,,73,0
61294,note_on,46,0,2,,,,,,,,,6,,,57,0
61296,note_on,2,0,2,,,,,,,,,6,,,59,92
61296,note_on,2,0,1,,,,,,,,,5,,,74,108
61342,note_on,46,0,1,,,,,,,,,5,,,74,0
61342,note_on,46,0,2,,,,,,,,,6,,,59,0
61344,note_on,2,0,1,,,,,,,,,5,,,73,108
61344,note_on,2,0,2,,,,,,,,,6,,,57,92
61344,note_on,98,0,6,,,,,,,,,3,,,45,60
61390,note_on,46,0,1,,,,,,,,,5,,,73,0
61390,note_on,46,0,2,,,,,,,,,6,,,57,0
61392,note_on,2,0,1,,,,,,,,,5,,,74,108
61392,note_on,2,0,2,,,,,,,,,6,,,59,92
61438,note_on,46,0,2,,,,,,,,,6,,,59,0
61438,note_on,46,0,1,,,,,,,,,5,,,74,0
61438,note_on,94,0,6,,,,,,,,,3,,,45,0
61440,note_on,2,0,1,,,,,,,,,5,,,71,108
61440,note_on,2,0,6,,,,,,,,,3,,,52,60
61440,note_on,2,0,2,,,,,,,,,6,,,56,92
61534,note_on,94,0,1,,,,,,,,,5,,,71,0
61534,note_on,94,0,2,,,,,,,,,6,,,56,0
61536,note_on,2,0,1,,,,,,,,,5,,,80,108
61536,note_on,2,0,2,,,,,,,,,6,,,59,92
61568,note_on,32,0,1,,,,,,,,,5,,,80,0
61568,note_on,32,0,2,,,,,,,,,6,,,59,0
61600,note_on,160,0,6,,,,,,,,,3,,,52,0
61632,note_on,64,0,1,,,,,,,,,5,,,81,108
61632,note_on,64,0,2,,,,,,,,,6,,,61,92
61664,note_on,32,0,1,,,,,,,,,5,,,81,0
61664,note_on,32,0,2,,,,,,,,,6,,,61,0
61728,note_on,64,0,2,,,,,,,,,6,,,62,92
61728,note_on,64,0,1,,,,,,,,,5,,,83,108
61760,note_on,32,0,1,,,,,,,,,5,,,83,0
61760,note_on,32,0,2,,,,,,,,,6,,,62,0
61824,note_on,64,0,1,,,,,,,,,5,,,76,108
61824,note_on,224,0,6,,,,,,,,,3,,,57,60
61824,note_on,64,0,2,,,,,,,,,6,,,61,92
61870,note_on,46,0,1,,,,,,,,,5,,,76,0
61870,note_on,46,0,2,,,,,,,,,6,,,61,0
61872,note_on,2,0,2,,,,,,,,,6,,,62,92
61872,note_on,2,0,1,,,,,,,,,5,,,78,108
61918,note_on,46,0,1,,,,,,,,,5,,,78,0
61918,note_on,94,0,6,,,,,,,,,3,,,57,0
61918,note_on,46,0,2,,,,,,,,,6,,,62,0
61920,note_on,2,0,2,,,,,,,,,6,,,61,92
61920,note_on,2,0,1,,,,,,,,,5,,,76,108
61920,note_on,2,0,6,,,,,,,,,3,,,45,60
61966,note_on,46,0,2,,,,,,,,,6,,,61,0
61966,note_on,46,0,1,,,,,,,,,5,,,76,0
61968,note_on,2,0,1,,,,,,,,,5,,,78,108
61968,note_on,2,0,2,,,,,,,,,6,,,62,92
62014,note_on,94,0,6,,,,,,,,,3,,,45,0
62014,note_on,46,0,2,,,,,,,,,6,,,62,0
62014,note_on,46,0,1,,,,,,,,,5,,,78,0
62016,note_on,2,0,1,,,,,,,,,5,,,76,108
62016,note_on,2,0,2,,,,,,,,,6,,,61,92
62062,note_on,46,0,1,,,,,,,,,5,,,76,0
62062,note_on,46,0,2,,,,,,,,,6,,,61,0
62064,note_on,2,0,1,,,,,,,,,5,,,78,108
62064,note_on,2,0,2,,,,,,,,,6,,,62,92
62110,note_on,46,0,1,,,,,,,,,5,,,78,0
62110,note_on,46,0,2,,,,,,,,,6,,,62,0
62112,note_on,98,0,6,,,,,,,,,3,,,57,60
62112,note_on,2,0,1,,,,,,,,,5,,,76,108
62112,note_on,2,0,2,,,,,,,,,6,,,61,92
62158,note_on,46,0,1,,,,,,,,,5,,,76,0
62158,note_on,46,0,2,,,,,,,,,6,,,61,0
62160,note_on,2,0,1,,,,,,,,,5,,,78,108
62160,note_on,2,0,2,,,,,,,,,6,,,62,92
62206,note_on,46,0,2,,,,,,,,,6,,,62,0
62206,note_on,46,0,1,,,,,,,,,5,,,78,0
62206,note_on,94,0,6,,,,,,,,,3,,,57,0
62208,note_on,2,0,2,,,,,,,,,6,,,59,92
62208,note_on,2,0,1,,,,,,,,,5,,,74,108
62208,note_on,2,0,6,,,,,,,,,3,,,59,60
62254,note_on,46,0,2,,,,,,,,,6,,,59,0
62254,note_on,46,0,1,,,,,,,,,5,,,74,0
62256,note_on,2,0,1,,,,,,,,,5,,,76,108
62256,note_on,2,0,2,,,,,,,,,6,,,61,92
62302,note_on,46,0,2,,,,,,,,,6,,,61,0
62302,note_on,46,0,1,,,,,,,,,5,,,76,0
62302,note_on,94,0,6,,,,,,,,,3,,,59,0
62304,note_on,2,0,2,,,,,,,,,6,,,59,92
62304,note_on,2,0,6,,,,,,,,,3,,,52,60
62304,note_on,2,0,1,,,,,,,,,5,,,74,108
62350,note_on,46,0,2,,,,,,,,,6,,,59,0
62350,note_on,46,0,1,,,,,,,,,5,,,74,0
62352,note_on,2,0,2,,,,,,,,,6,,,61,92
62352,note_on,2,0,1,,,,,,,,,5,,,76,108
62398,note_on,46,0,2,,,,,,,,,6,,,61,0
62398,note_on,46,0,1,,,,,,,,,5,,,76,0
62398,note_on,94,0,6,,,,,,,,,3,,,52,0
62400,note_on,2,0,2,,,,,,,,,6,,,59,92
62400,note_on,2,0,1,,,,,,,,,5,,,74,108
62446,note_on,46,0,1,,,,,,,,,5,,,74,0
62446,note_on,46,0,2,,,,,,,,,6,,,59,0
62448,note_on,2,0,1,,,,,,,,,5,,,76,108
62448,note_on,2,0,2,,,,,,,,,6,,,61,92
62494,note_on,46,0,1,,,,,,,,,5,,,76,0
62494,note_on,46,0,2,,,,,,,,,6,,,61,0
62496,note_on,2,0,1,,,,,,,,,5,,,74,108
62496,note_on,98,0,6,,,,,,,,,3,,,56,60
62496,note_on,2,0,2,,,,,,,,,6,,,59,92
62542,note_on,46,0,1,,,,,,,,,5,,,74,0
62542,note_on,46,0,2,,,,,,,,,6,,,59,0
62544,note_on,2,0,1,,,,,,,,,5,,,76,108
62544,note_on,2,0,2,,,,,,,,,6,,,61,92
62590,note_on,94,0,6,,,,,,,,,3,,,56,0
62590,note_on,46,0,2,,,,,,,,,6,,,61,0
62590,note_on,46,0,1,,,,,,,,,5,,,76,0
62592,note_on,2,0,6,,,,,,,,,3,,,57,60
62592,note_on,2,0,2,,,,,,,,,6,,,57,92
62592,note_on,2,0,1,,,,,,,,,5,,,73,108
62638,note_on,46,0,2,,,,,,,,,6,,,57,0
62638,note_on,46,0,1,,,,,,,,,5,,,73,0
62640,note_on,2,0,2,,,,,,,,,6,,,59,92
62640,note_on,2,0,1,,,,,,,,,5,,,74,108
62686,note_on,94,0,6,,,,,,,,,3,,,57,0
62686,note_on,46,0,1,,,,,,,,,5,,,74,0
62686,note_on,46,0,2,,,,,,,,,6,,,59,0
62688,note_on,2,0,6,,,,,,,,,3,,,45,60
62688,note_on,2,0,1,,,,,,,,,5,,,73,108
62688,note_on,2,0,2,,,,,,,,,6,,,57,92
62734,note_on,46,0,2,,,,,,,,,6,,,57,0
62734,note_on,46,0,1,,,,,,,,,5,,,73,0
62736,note_on,2,0,1,,,,,,,,,5,,,74,108
62736,note_on,2,0,2,,,,,,,,,6,,,59,92
62782,note_on,46,0,2,,,,,,,,,6,,,59,0
62782,note_on,46,0,1,,,,,,,,,5,,,74,0
62782,note_on,94,0,6,,,,,,,,,3,,,45,0
62784,note_on,2,0,2,,,,,,,,,6,,,57,92
62784,note_on,2,0,1,,,,,,,,,5,,,73,108
62830,note_on,46,0,2,,,,,,,,,6,,,57,0
62830,note_on,46,0,1,,,,,,,,,5,,,73,0
62832,note_on,2,0,2,,,,,,,,,6,,,59,92
62832,note_on,2,0,1,,,,,,,,,5,,,74,108
62878,note_on,46,0,1,,,,,,,,,5,,,74,0
62878,note_on,46,0,2,,,,,,,,,6,,,59,0
62880,note_on,98,0,6,,,,,,,,,3,,,45,60
62880,note_on,2,0,1,,,,,,,,,5,,,73,108
62880,note_on,2,0,2,,,,,,,,,6,,,57,92
62926,note_on,46,0,2,,,,,,,,,6,,,57,0
62926,note_on,46,0,1,,,,,,,,,5,,,73,0
62928,note_on,2,0,2,,,,,,,,,6,,,59,92
62928,note_on,2,0,1,,,,,,,,,5,,,74,108
62974,note_on,94,0,6,,,,,,,,,3,,,45,0
62974,note_on,46,0,1,,,,,,,,,5,,,74,0
62974,note_on,46,0,2,,,,,,,,,6,,,59,0
62976,note_on,2,0,1,,,,,,,,,5,,,71,108
62976,note_on,2,0,2,,,,,,,,,6,,,56,92
62976,note_on,2,0,6,,,,,,,,,3,,,52,60
63070,note_on,94,0,1,,,,,,,,,5,,,71,0
63070,note_on,94,0,2,,,,,,,,,6,,,56,0
63072,note_on,2,0,2,,,,,,,,,6,,,59,92
63072,note_on,2,0,1,,,,,,,,,5,,,80,108
63104,note_on,32,0,1,,,,,,,,,5,,,80,0
63104,note_on,32,0,2,,,,,,,,,6,,,59,0
63136,note_on,160,0,6,,,,,,,,,3,,,52,0
63168,note_on,64,0,1,,,,,,,,,5,,,81,108
63168,note_on,64,0,2,,,,,,,,,6,,,61,92
63200,note_on,32,0,2,,,,,,,,,6,,,61,0
63200,note_on,32,0,1,,,,,,,,,5,,,81,0
63264,note_on,64,0,1,,,,,,,,,5,,,83,108
63264,note_on,64,0,2,,,,,,,,,6,,,62,92
63296,note_on,32,0,2,,,,,,,,,6,,,62,0
63296,note_on,32,0,1,,,,,,,,,5,,,83,0
63360,note_on,64,0,2,,,,,,,,,6,,,61,92
63360,note_on,224,0,6,,,,,,,,,3,,,45,60
63360,note_on,64,0,1,,,,,,,,,5,,,81,108
63454,note_on,94,0,2,,,,,,,,,6,,,61,0
63454,note_on,94,0,1,,,,,,,,,5,,,81,0
63456,note_on,2,0,2,,,,,,,,,6,,,59,92
63456,note_on,2,0,1,,,,,,,,,5,,,80,108
63502,note_on,46,0,1,,,,,,,,,5,,,80,0
63504,note_on,2,0,1,,,,,,,,,5,,,78,108
63520,note_on,160,0,6,,,,,,,,,3,,,45,0
63550,note_on,94,0,2,,,,,,,,,6,,,59,0
63550,note_on,46,0,1,,,,,,,,,5,,,78,0
63552,note_on,2,0,1,,,,,,,,,5,,,76,108
63552,note_on,2,0,2,,,,,,,,,6,,,61,92
63646,note_on,94,0,2,,,,,,,,,6,,,61,0
63646,note_on,94,0,1,,,,,,,,,5,,,76,0
63648,note_on,2,0,1,,,,,,,,,5,,,73,108
63648,note_on,0,0,1,,,,,,,,,5,,,81,108
63648,note_on,2,0,2,,,,,,,,,6,,,57,92
63648,note_on,128,0,6,,,,,,,,,3,,,45,60
63742,note_on,94,0,2,,,,,,,,,6,,,57,0
63742,note_on,94,0,6,,,,,,,,,3,,,45,0
63742,note_on,94,0,1,,,,,,,,,5,,,73,0
63742,note_on,0,0,1,,,,,,,,,5,,,81,0
63744,note_on,2,0,6,,,,,,,,,3,,,45,60
63744,note_on,2,0,1,,,,,,,,,5,,,73,108
63744,note_on,2,0,2,,,,,,,,,6,,,57,92
63790,note_on,46,0,2,,,,,,,,,6,,,57,0
63790,note_on,46,0,1,,,,,,,,,5,,,73,0
63792,note_on,2,0,2,,,,,,,,,6,,,56,92
63792,note_on,2,0,1,,,,,,,,,5,,,71,108
63838,note_on,46,0,1,,,,,,,,,5,,,71,0
63838,note_on,46,0,2,,,,,,,,,6,,,56,0
63840,note_on,2,0,1,,,,,,,,,5,,,73,108
63840,note_on,2,0,2,,,,,,,,,6,,,57,92
63886,note_on,46,0,2,,,,,,,,,6,,,57,0
63886,note_on,46,0,1,,,,,,,,,5,,,73,0
63888,note_on,2,0,2,,,,,,,,,6,,,61,92
63888,note_on,2,0,1,,,,,,,,,5,,,81,108
63904,note_on,160,0,6,,,,,,,,,3,,,45,0
63934,note_on,46,0,2,,,,,,,,,6,,,61,0
63934,note_on,46,0,1,,,,,,,,,5,,,81,0
63936,note_on,2,0,2,,,,,,,,,6,,,57,92
63936,note_on,32,0,6,,,,,,,,,3,,,45,60
63936,note_on,2,0,1,,,,,,,,,5,,,73,108
63982,note_on,46,0,1,,,,,,,,,5,,,73,0
63982,note_on,46,0,2,,,,,,,,,6,,,57,0
63984,note_on,2,0,1,,,,,,,,,5,,,71,108
63984,note_on,2,0,2,,,,,,,,,6,,,56,92
64030,note_on,46,0,1,,,,,,,,,5,,,71,0
64030,note_on,46,0,2,,,,,,,,,6,,,56,0
64032,note_on,2,0,1,,,,,,,,,5,,,73,108
64032,note_on,2,0,2,,,,,,,,,6,,,57,92
64078,note_on,46,0,2,,,,,,,,,6,,,57,0
64078,note_on,46,0,1,,,,,,,,,5,,,73,0
64080,note_on,2,0,1,,,,,,,,,5,,,81,108
64080,note_on,2,0,2,,,,,,,,,6,,,61,92
64096,note_on,160,0,6,,,,,,,,,3,,,45,0
64126,note_on,46,0,2,,,,,,,,,6,,,61,0
64126,note_on,46,0,1,,,,,,,,,5,,,81,0
64128,note_on,2,0,1,,,,,,,,,5,,,71,108
64128,note_on,2,0,2,,,,,,,,,6,,,62,92
64128,note_on,32,0,6,,,,,,,,,3,,,50,60
64174,note_on,46,0,1,,,,,,,,,5,,,71,0
64174,note_on,46,0,2,,,,,,,,,6,,,62,0
64176,note_on,2,0,1,,,,,,,,,5,,,69,108
64176,note_on,2,0,2,,,,,,,,,6,,,61,92
64222,note_on,46,0,2,,,,,,,,,6,,,61,0
64222,note_on,46,0,1,,,,,,,,,5,,,69,0
64224,note_on,2,0,2,,,,,,,,,6,,,62,92
64224,note_on,2,0,1,,,,,,,,,5,,,71,108
64270,note_on,46,0,1,,,,,,,,,5,,,71,0
64270,note_on,46,0,2,,,,,,,,,6,,,62,0
64272,note_on,2,0,2,,,,,,,,,6,,,59,92
64272,note_on,2,0,1,,,,,,,,,5,,,81,108
64288,note_on,160,0,6,,,,,,,,,3,,,50,0
64318,note_on,46,0,1,,,,,,,,,5,,,81,0
64318,note_on,46,0,2,,,,,,,,,6,,,59,0
64320,note_on,32,0,6,,,,,,,,,3,,,50,60
64320,note_on,2,0,2,,,,,,,,,6,,,62,92
64320,note_on,2,0,1,,,,,,,,,5,,,71,108
64366,note_on,46,0,2,,,,,,,,,6,,,62,0
64366,note_on,46,0,1,,,,,,,,,5,,,71,0
64368,note_on,2,0,2,,,,,,,,,6,,,61,92
64368,note_on,2,0,1,,,,,,,,,5,,,69,108
64414,note_on,46,0,1,,,,,,,,,5,,,69,0
64414,note_on,46,0,2,,,,,,,,,6,,,61,0
64416,note_on,2,0,2,,,,,,,,,6,,,62,92
64416,note_on,2,0,1,,,,,,,,,5,,,71,108
64462,note_on,46,0,2,,,,,,,,,6,,,62,0
64462,note_on,46,0,1,,,,,,,,,5,,,71,0
64464,note_on,2,0,2,,,,,,,,,6,,,59,92
64464,note_on,2,0,1,,,,,,,,,5,,,81,108
64480,note_on,160,0,6,,,,,,,,,3,,,50,0
64510,note_on,46,0,1,,,,,,,,,5,,,81,0
64510,note_on,46,0,2,,,,,,,,,6,,,59,0
64512,note_on,32,0,6,,,,,,,,,3,,,52,60
64512,note_on,2,0,2,,,,,,,,,6,,,56,92
64512,note_on,2,0,1,,,,,,,,,5,,,71,108
64558,note_on,46,0,2,,,,,,,,,6,,,56,0
64558,note_on,46,0,1,,,,,,,,,5,,,71,0
64560,note_on,2,0,2,,,,,,,,,6,,,54,92
64560,note_on,2,0,1,,,,,,,,,5,,,69,108
64606,note_on,46,0,1,,,,,,,,,5,,,69,0
64606,note_on,46,0,2,,,,,,,,,6,,,54,0
64608,note_on,2,0,2,,,,,,,,,6,,,56,92
64608,note_on,2,0,1,,,,,,,,,5,,,71,108
64654,note_on,46,0,1,,,,,,,,,5,,,71,0
64654,note_on,46,0,2,,,,,,,,,6,,,56,0
64656,note_on,2,0,2,,,,,,,,,6,,,59,92
64656,note_on,2,0,1,,,,,,,,,5,,,80,108
64672,note_on,160,0,6,,,,,,,,,3,,,52,0
64702,note_on,46,0,2,,,,,,,,,6,,,59,0
64702,note_on,46,0,1,,,,,,,,,5,,,80,0
64704,note_on,2,0,2,,,,,,,,,6,,,56,92
64704,note_on,2,0,1,,,,,,,,,5,,,71,108
64704,note_on,32,0,6,,,,,,,,,3,,,52,60
64750,note_on,46,0,2,,,,,,,,,6,,,56,0
64750,note_on,46,0,1,,,,,,,,,5,,,71,0
64752,note_on,2,0,1,,,,,,,,,5,,,69,108
64752,note_on,2,0,2,,,,,,,,,6,,,54,92
64798,note_on,46,0,2,,,,,,,,,6,,,54,0
64798,note_on,46,0,1,,,,,,,,,5,,,69,0
64800,note_on,2,0,2,,,,,,,,,6,,,56,92
64800,note_on,2,0,1,,,,,,,,,5,,,71,108
64846,note_on,46,0,2,,,,,,,,,6,,,56,0
64846,note_on,46,0,1,,,,,,,,,5,,,71,0
64848,note_on,2,0,2,,,,,,,,,6,,,59,92
64848,note_on,2,0,1,,,,,,,,,5,,,80,108
64864,note_on,160,0,6,,,,,,,,,3,,,52,0
64894,note_on,46,0,2,,,,,,,,,6,,,59,0
64894,note_on,46,0,1,,,,,,,,,5,,,80,0
64896,note_on,2,0,2,,,,,,,,,6,,,57,92
64896,note_on,4802,0,3,,,,,,,,,0,,,69,127
64896,note_on,4802,0,7,,,,,,,,,10,,,45,60
64896,note_on,32,0,6,,,,,,,,,3,,,57,60
64896,note_on,4802,0,4,,,,,,,,,1,,,69,127
64896,note_on,2,0,1,,,,,,,,,5,,,69,108
64990,note_on,94,0,1,,,,,,,,,5,,,69,0
64990,note_on,94,0,2,,,,,,,,,6,,,57,0
64990,note_on,94,0,6,,,,,,,,,3,,,57,0
64990,note_on,94,0,4,,,,,,,,,1,,,69,0
64990,note_on,94,0,7,,,,,,,,,10,,,45,0
64990,note_on,94,0,3,,,,,,,,,0,,,69,0
64992,note_on,2,0,4,,,,,,,,,1,,,57,127
64992,note_on,2,0,6,,,,,,,,,3,,,45,60
64992,note_on,2,0,3,,,,,,,,,0,,,57,127
64992,note_on,2,0,7,,,,,,,,,10,,,33,60
64992,note_on,2,0,1,,,,,,,,,5,,,57,108
64992,note_on,2,0,2,,,,,,,,,6,,,45,92
65024,note_on,32,0,1,,,,,,,,,5,,,57,0
65024,note_on,32,0,6,,,,,,,,,3,,,45,0
65024,note_on,32,0,3,,,,,,,,,0,,,57,0
65024,note_on,32,0,4,,,,,,,,,1,,,57,0
65024,note_on,32,0,2,,,,,,,,,6,,,45,0
65024,note_on,32,0,7,,,,,,,,,10,,,33,0
65088,note_on,64,0,4,,,,,,,,,1,,,57,127
65088,note_on,64,0,7,,,,,,,,,10,,,33,60
65088,note_on,64,0,1,,,,,,,,,5,,,57,108
65088,note_on,64,0,3,,,,,,,,,0,,,57,127
65088,note_on,64,0,2,,,,,,,,,6,,,45,92
65088,note_on,64,0,6,,,,,,,,,3,,,45,60
65120,note_on,32,0,4,,,,,,,,,1,,,57,0
65120,note_on,32,0,7,,,,,,,,,10,,,33,0
65120,note_on,32,0,3,,,,,,,,,0,,,57,0
65120,note_on,32,0,6,,,,,,,,,3,,,45,0
65120,note_on,32,0,1,,,,,,,,,5,,,57,0
65120,note_on,32,0,2,,,,,,,,,6,,,45,0
65184,note_on,64,0,1,,,,,,,,,5,,,57,108
65184,note_on,64,0,7,,,,,,,,,10,,,33,60
65184,note_on,64,0,6,,,,,,,,,3,,,45,60
65184,note_on,64,0,2,,,,,,,,,6,,,45,92
65184,note_on,64,0,3,,,,,,,,,0,,,57,127
65184,note_on,64,0,4,,,,,,,,,1,,,57,127
65216,note_on,32,0,6,,,,,,,,,3,,,45,0
65216,note_on,32,0,3,,,,,,,,,0,,,57,0
65216,note_on,32,0,4,,,,,,,,,1,,,57,0
65216,note_on,32,0,7,,,,,,,,,10,,,33,0
65216,note_on,32,0,1,,,,,,,,,5,,,57,0
65216,note_on,32,0,2,,,,,,,,,6,,,45,0
65280,note_on,64,0,7,,,,,,,,,10,,,33,60
65280,note_on,64,0,6,,,,,,,,,3,,,45,60
65280,note_on,64,0,2,,,,,,,,,6,,,45,92
65280,note_on,64,0,1,,,,,,,,,5,,,57,108
65280,note_on,64,0,3,,,,,,,,,0,,,57,127
65280,note_on,64,0,4,,,,,,,,,1,,,57,127
65440,note_on,160,0,1,,,,,,,,,5,,,57,0
65440,note_on,160,0,4,,,,,,,,,1,,,57,0
65440,note_on,160,0,6,,,,,,,,,3,,,45,0
65440,note_on,160,0,3,,,,,,,,,0,,,57,0
65440,note_on,160,0,7,,,,,,,,,10,,,33,0
65440,note_on,160,0,2,,,,,,,,,6,,,45,0
65520,note_on,80,0,1,,,,,,,,,5,,,64,108
65520,note_on,80,0,2,,,,,,,,,6,,,52,92
65520,note_on,80,0,3,,,,,,,,,0,,,64,127
65520,note_on,80,0,6,,,,,,,,,3,,,52,60
65520,note_on,80,0,7,,,,,,,,,10,,,40,60
65520,note_on,80,0,4,,,,,,,,,1,,,64,127
65566,note_on,46,0,3,,,,,,,,,0,,,64,0
65566,note_on,46,0,4,,,,,,,,,1,,,64,0
65566,note_on,46,0,6,,,,,,,,,3,,,52,0
65566,note_on,46,0,1,,,,,,,,,5,,,64,0
65566,note_on,46,0,2,,,,,,,,,6,,,52,0
65566,note_on,46,0,7,,,,,,,,,10,,,40,0
65568,note_on,2,0,3,,,,,,,,,0,,,66,127
65568,note_on,2,0,4,,,,,,,,,1,,,66,127
65568,note_on,2,0,1,,,,,,,,,5,,,66,108
65568,note_on,2,0,6,,,,,,,,,3,,,54,60
65568,note_on,2,0,2,,,,,,,,,6,,,54,92
65568,note_on,2,0,7,,,,,,,,,10,,,42,60
65614,note_on,46,0,4,,,,,,,,,1,,,66,0
65614,note_on,46,0,6,,,,,,,,,3,,,54,0
65614,note_on,46,0,2,,,,,,,,,6,,,54,0
65614,note_on,46,0,3,,,,,,,,,0,,,66,0
65614,note_on,46,0,7,,,,,,,,,10,,,42,0
65614,note_on,46,0,1,,,,,,,,,5,,,66,0
65616,note_on,2,0,6,,,,,,,,,3,,,56,60
65616,note_on,2,0,2,,,,,,,,,6,,,56,92
65616,note_on,2,0,3,,,,,,,,,0,,,68,127
65616,note_on,2,0,1,,,,,,,,,5,,,68,108
65616,note_on,2,0,7,,,,,,,,,10,,,44,60
65616,note_on,2,0,4,,,,,,,,,1,,,68,127
65662,note_on,46,0,1,,,,,,,,,5,,,68,0
65662,note_on,46,0,6,,,,,,,,,3,,,56,0
65662,note_on,46,0,4,,,,,,,,,1,,,68,0
65662,note_on,46,0,2,,,,,,,,,6,,,56,0
65662,note_on,46,0,3,,,,,,,,,0,,,68,0
65662,note_on,46,0,7,,,,,,,,,10,,,44,0
65664,note_on,2,0,1,,,,,,,,,5,,,69,108
65664,note_on,2,0,7,,,,,,,,,10,,,45,60
65664,note_on,2,0,6,,,,,,,,,3,,,57,60
65664,note_on,2,0,4,,,,,,,,,1,,,69,127
65664,note_on,2,0,3,,,,,,,,,0,,,69,127
65664,note_on,2,0,2,,,,,,,,,6,,,57,92
65758,note_on,94,0,3,,,,,,,,,0,,,69,0
65758,note_on,94,0,7,,,,,,,,,10,,,45,0
65758,note_on,94,0,4,,,,,,,,,1,,,69,0
65758,note_on,94,0,1,,,,,,,,,5,,,69,0
65758,note_on,94,0,6,,,,,,,,,3,,,57,0
65758,note_on,94,0,2,,,,,,,,,6,,,57,0
65760,note_on,2,0,1,,,,,,,,,5,,,57,108
65760,note_on,2,0,6,,,,,,,,,3,,,45,60
65760,note_on,2,0,3,,,,,,,,,0,,,57,127
65760,note_on,2,0,7,,,,,,,,,10,,,33,60
65760,note_on,2,0,2,,,,,,,,,6,,,45,92
65760,note_on,2,0,4,,,,,,,,,1,,,57,127
65792,note_on,32,0,1,,,,,,,,,5,,,57,0
65792,note_on,32,0,3,,,,,,,,,0,,,57,0
65792,note_on,32,0,4,,,,,,,,,1,,,57,0
65792,note_on,32,0,7,,,,,,,,,10,,,33,0
65792,note_on,32,0,2,,,,,,,,,6,,,45,0
65792,note_on,32,0,6,,,,,,,,,3,,,45,0
65856,note_on,64,0,1,,,,,,,,,5,,,57,108
65856,note_on,64,0,6,,,,,,,,,3,,,45,60
65856,note_on,64,0,4,,,,,,,,,1,,,57,127
65856,note_on,64,0,2,,,,,,,,,6,,,45,92
65856,note_on,64,0,3,,,,,,,,,0,,,57,127
65856,note_on,64,0,7,,,,,,,,,10,,,33,60
65888,note_on,32,0,6,,,,,,,,,3,,,45,0
65888,note_on,32,0,1,,,,,,,,,5,,,57,0
65888,note_on,32,0,7,,,,,,,,,10,,,33,0
65888,note_on,32,0,3,,,,,,,,,0,,,57,0
65888,note_on,32,0,2,,,,,,,,,6,,,45,0
65888,note_on,32,0,4,,,,,,,,,1,,,57,0
65952,note_on,64,0,6,,,,,,,,,3,,,45,60
65952,note_on,64,0,3,,,,,,,,,0,,,57,127
65952,note_on,64,0,7,,,,,,,,,10,,,33,60
65952,note_on,64,0,4,,,,,,,,,1,,,57,127
65952,note_on,64,0,1,,,,,,,,,5,,,57,108
65952,note_on,64,0,2,,,,,,,,,6,,,45,92
65984,note_on,32,0,4,,,,,,,,,1,,,57,0
65984,note_on,32,0,6,,,,,,,,,3,,,45,0
65984,note_on,32,0,1,,,,,,,,,5,,,57,0
65984,note_on,32,0,3,,,,,,,,,0,,,57,0
65984,note_on,32,0,2,,,,,,,,,6,,,45,0
65984,note_on,32,0,7,,,,,,,,,10,,,33,0
66048,note_on,64,0,6,,,,,,,,,3,,,45,60
66048,note_on,64,0,7,,,,,,,,,10,,,33,60
66048,note_on,64,0,1,,,,,,,,,5,,,57,108
66048,note_on,64,0,2,,,,,,,,,6,,,45,92
66048,note_on,64,0,4,,,,,,,,,1,,,57,127
66048,note_on,64,0,3,,,,,,,,,0,,,57,127
66208,note_on,160,0,7,,,,,,,,,10,,,33,0
66208,note_on,160,0,1,,,,,,,,,5,,,57,0
66208,note_on,160,0,3,,,,,,,,,0,,,57,0
66208,note_on,160,0,6,,,,,,,,,3,,,45,0
66208,note_on,160,0,2,,,,,,,,,6,,,45,0
66208,note_on,160,0,4,,,,,,,,,1,,,57,0
66288,note_on,80,0,3,,,,,,,,,0,,,64,127
66288,note_on,80,0,4,,,,,,,,,1,,,64,127
66288,note_on,80,0,2,,,,,,,,,6,,,52,92
66288,note_on,80,0,1,,,,,,,,,5,,,64,108
66288,note_on,80,0,7,,,,,,,,,10,,,40,60
66288,note_on,80,0,6,,,,,,,,,3,,,52,60
66334,note_on,46,0,7,,,,,,,,,10,,,40,0
66334,note_on,46,0,6,,,,,,,,,3,,,52,0
66334,note_on,46,0,1,,,,,,,,,5,,,64,0
66334,note_on,46,0,3,,,,,,,,,0,,,64,0
66334,note_on,46,0,2,,,,,,,,,6,,,52,0
66334,note_on,46,0,4,,,,,,,,,1,,,64,0
66336,note_on,2,0,1,,,,,,,,,5,,,66,108
66336,note_on,2,0,3,,,,,,,,,0,,,66,127
66336,note_on,2,0,6,,,,,,,,,3,,,54,60
66336,note_on,2,0,2,,,,,,,,,6,,,54,92
66336,note_on,2,0,4,,,,,,,,,1,,,66,127
66336,note_on,2,0,7,,,,,,,,,10,,,42,60
66382,note_on,46,0,1,,,,,,,,,5,,,66,0
66382,note_on,46,0,4,,,,,,,,,1,,,66,0
66382,note_on,46,0,7,,,,,,,,,10,,,42,0
66382,note_on,46,0,2,,,,,,,,,6,,,54,0
66382,note_on,46,0,6,,,,,,,,,3,,,54,0
66382,note_on,46,0,3,,,,,,,,,0,,,66,0
66384,note_on,2,0,1,,,,,,,,,5,,,68,108
66384,note_on,2,0,3,,,,,,,,,0,,,68,127
66384,note_on,2,0,6,,,,,,,,,3,,,56,60
66384,note_on,2,0,2,,,,,,,,,6,,,56,92
66384,note_on,2,0,4,,,,,,,,,1,,,68,127
66384,note_on,2,0,7,,,,,,,,,10,,,44,60
66430,note_on,46,0,4,,,,,,,,,1,,,68,0
66430,note_on,46,0,7,,,,,,,,,10,,,44,0
66430,note_on,46,0,6,,,,,,,,,3,,,56,0
66430,note_on,46,0,1,,,,,,,,,5,,,68,0
66430,note_on,46,0,3,,,,,,,,,0,,,68,0
66430,note_on,46,0,2,,,,,,,,,6,,,56,0
66432,note_on,2,0,6,,,,,,,,,3,,,57,60
66432,note_on,2,0,3,,,,,,,,,0,,,69,127
66432,note_on,2,0,2,,,,,,,,,6,,,57,92
66432,note_on,2,0,4,,,,,,,,,1,,,69,127
66432,note_on,2,0,1,,,,,,,,,5,,,69,108
66432,note_on,2,0,7,,,,,,,,,10,,,45,60
66478,note_on,46,0,6,,,,,,,,,3,,,57,0
66478,note_on,46,0,7,,,,,,,,,10,,,45,0
66478,note_on,46,0,2,,,,,,,,,6,,,57,0
66478,note_on,46,0,3,,,,,,,,,0,,,69,0
66478,note_on,46,0,1,,,,,,,,,5,,,69,0
66478,note_on,46,0,4,,,,,,,,,1,,,69,0
66480,note_on,2,0,7,,,,,,,,,10,,,45,60
66480,note_on,2,0,2,,,,,,,,,6,,,57,92
66480,note_on,2,0,4,,,,,,,,,1,,,69,127
66480,note_on,2,0,1,,,,,,,,,5,,,69,108
66480,note_on,2,0,3,,,,,,,,,0,,,69,127
66480,note_on,2,0,6,,,,,,,,,3,,,57,60
66526,note_on,46,0,7,,,,,,,,,10,,,45,0
66526,note_on,46,0,3,,,,,,,,,0,,,69,0
66526,note_on,46,0,2,,,,,,,,,6,,,57,0
66526,note_on,46,0,6,,,,,,,,,3,,,57,0
66526,note_on,46,0,4,,,,,,,,,1,,,69,0
66526,note_on,46,0,1,,,,,,,,,5,,,69,0
66528,note_on,2,0,4,,,,,,,,,1,,,71,127
66528,note_on,2,0,2,,,,,,,,,6,,,59,92
66528,note_on,2,0,3,,,,,,,,,0,,,71,127
66528,note_on,2,0,1,,,,,,,,,5,,,71,108
66528,note_on,2,0,6,,,,,,,,,3,,,59,60
66528,note_on,2,0,7,,,,,,,,,10,,,47,60
66574,note_on,46,0,1,,,,,,,,,5,,,71,0
66574,note_on,46,0,2,,,,,,,,,6,,,59,0
66574,note_on,46,0,6,,,,,,,,,3,,,59,0
66574,note_on,46,0,3,,,,,,,,,0,,,71,0
66574,note_on,46,0,4,,,,,,,,,1,,,71,0
66574,note_on,46,0,7,,,,,,,,,10,,,47,0
66576,note_on,2,0,7,,,,,,,,,10,,,47,60
66576,note_on,2,0,1,,,,,,,,,5,,,71,108
66576,note_on,2,0,3,,,,,,,,,0,,,71,127
66576,note_on,2,0,2,,,,,,,,,6,,,59,92
66576,note_on,2,0,4,,,,,,,,,1,,,71,127
66576,note_on,2,0,6,,,,,,,,,3,,,59,60
66622,note_on,46,0,4,,,,,,,,,1,,,71,0
66622,note_on,46,0,1,,,,,,,,,5,,,71,0
66622,note_on,46,0,3,,,,,,,,,0,,,71,0
66622,note_on,46,0,7,,,,,,,,,10,,,47,0
66622,note_on,46,0,2,,,,,,,,,6,,,59,0
66622,note_on,46,0,6,,,,,,,,,3,,,59,0
66624,note_on,2,0,3,,,,,,,,,0,,,73,127
66624,note_on,2,0,4,,,,,,,,,1,,,73,127
66624,note_on,2,0,2,,,,,,,,,6,,,61,92
66624,note_on,2,0,7,,,,,,,,,10,,,49,60
66624,note_on,2,0,6,,,,,,,,,3,,,61,60
66624,note_on,2,0,1,,,,,,,,,5,,,73,108
66670,note_on,46,0,3,,,,,,,,,0,,,73,0
66670,note_on,46,0,6,,,,,,,,,3,,,61,0
66670,note_on,46,0,2,,,,,,,,,6,,,61,0
66670,note_on,46,0,7,,,,,,,,,10,,,49,0
66670,note_on,46,0,4,,,,,,,,,1,,,73,0
66670,note_on,46,0,1,,,,,,,,,5,,,73,0
66672,note_on,2,0,2,,,,,,,,,6,,,61,92
66672,note_on,2,0,6,,,,,,,,,3,,,61,60
66672,note_on,2,0,3,,,,,,,,,0,,,73,127
66672,note_on,2,0,4,,,,,,,,,1,,,73,127
66672,note_on,2,0,1,,,,,,,,,5,,,73,108
66672,note_on,2,0,7,,,,,,,,,10,,,49,60
66718,note_on,46,0,4,,,,,,,,,1,,,73,0
66718,note_on,46,0,6,,,,,,,,,3,,,61,0
66718,note_on,46,0,2,,,,,,,,,6,,,61,0
66718,note_on,46,0,7,,,,,,,,,10,,,49,0
66718,note_on,46,0,1,,,,,,,,,5,,,73,0
66718,note_on,46,0,3,,,,,,,,,0,,,73,0
66720,note_on,2,0,2,,,,,,,,,6,,,62,92
66720,note_on,2,0,6,,,,,,,,,3,,,62,60
66720,note_on,2,0,4,,,,,,,,,1,,,74,127
66720,note_on,2,0,1,,,,,,,,,5,,,74,108
66720,note_on,2,0,3,,,,,,,,,0,,,74,127
66720,note_on,2,0,7,,,,,,,,,10,,,50,60
66766,note_on,46,0,1,,,,,,,,,5,,,74,0
66766,note_on,46,0,3,,,,,,,,,0,,,74,0
66766,note_on,46,0,7,,,,,,,,,10,,,50,0
66766,note_on,46,0,2,,,,,,,,,6,,,62,0
66766,note_on,46,0,4,,,,,,,,,1,,,74,0
66766,note_on,46,0,6,,,,,,,,,3,,,62,0
66768,note_on,2,0,6,,,,,,,,,3,,,62,60
66768,note_on,2,0,7,,,,,,,,,10,,,50,60
66768,note_on,2,0,3,,,,,,,,,0,,,74,127
66768,note_on,2,0,1,,,,,,,,,5,,,74,108
66768,note_on,2,0,4,,,,,,,,,1,,,74,127
66768,note_on,2,0,2,,,,,,,,,6,,,62,92
66814,note_on,46,0,4,,,,,,,,,1,,,74,0
66814,note_on,46,0,6,,,,,,,,,3,,,62,0
66814,note_on,46,0,7,,,,,,,,,10,,,50,0
66814,note_on,46,0,3,,,,,,,,,0,,,74,0
66814,note_on,46,0,1,,,,,,,,,5,,,74,0
66814,note_on,46,0,2,,,,,,,,,6,,,62,0
66816,note_on,2,0,2,,,,,,,,,6,,,64,92
66816,note_on,2,0,3,,,,,,,,,0,,,76,127
66816,note_on,2,0,7,,,,,,,,,10,,,52,60
66816,note_on,2,0,4,,,,,,,,,1,,,76,127
66816,note_on,2,0,1,,,,,,,,,5,,,76,108
66816,note_on,2,0,6,,,,,,,,,3,,,64,60
66910,note_on,94,0,6,,,,,,,,,3,,,64,0
66910,note_on,94,0,4,,,,,,,,,1,,,76,0
66910,note_on,94,0,2,,,,,,,,,6,,,64,0
66910,note_on,94,0,7,,,,,,,,,10,,,52,0
66910,note_on,94,0,1,,,,,,,,,5,,,76,0
66910,note_on,94,0,3,,,,,,,,,0,,,76,0
66912,note_on,2,0,4,,,,,,,,,1,,,64,127
66912,note_on,2,0,3,,,,,,,,,0,,,64,127
66912,note_on,2,0,6,,,,,,,,,3,,,52,60
66912,note_on,2,0,2,,,,,,,,,6,,,52,92
66912,note_on,2,0,1,,,,,,,,,5,,,64,108
66912,note_on,2,0,7,,,,,,,,,10,,,40,60
67006,note_on,94,0,3,,,,,,,,,0,,,64,0
67006,note_on,94,0,1,,,,,,,,,5,,,64,0
67006,note_on,94,0,7,,,,,,,,,10,,,40,0
67006,note_on,94,0,2,,,,,,,,,6,,,52,0
67006,note_on,94,0,4,,,,,,,,,1,,,64,0
67006,note_on,94,0,6,,,,,,,,,3,,,52,0
67104,note_on,98,0,6,,,,,,,,,3,,,61,60
67104,note_on,98,0,2,,,,,,,,,6,,,61,92
67104,note_on,98,0,3,,,,,,,,,0,,,73,127
67104,note_on,98,0,7,,,,,,,,,10,,,49,60
67104,note_on,98,0,1,,,,,,,,,5,,,73,108
67104,note_on,98,0,4,,,,,,,,,1,,,73,127
67198,note_on,94,0,1,,,,,,,,,5,,,73,0
67198,note_on,94,0,7,,,,,,,,,10,,,49,0
67198,note_on,94,0,4,,,,,,,,,1,,,73,0
67198,note_on,94,0,2,,,,,,,,,6,,,61,0
67198,note_on,94,0,3,,,,,,,,,0,,,73,0
67198,note_on,94,0,6,,,,,,,,,3,,,61,0
67200,note_on,2,0,3,,,,,,,,,0,,,71,127
67200,note_on,2,0,4,,,,,,,,,1,,,71,127
67200,note_on,2,0,2,,,,,,,,,6,,,59,92
67200,note_on,2,0,1,,,,,,,,,5,,,71,108
67200,note_on,2,0,7,,,,,,,,,10,,,47,60
67200,note_on,2,0,6,,,,,,,,,3,,,59,60
67294,note_on,94,0,7,,,,,,,,,10,,,47,0
67294,note_on,94,0,4,,,,,,,,,1,,,71,0
67294,note_on,94,0,1,,,,,,,,,5,,,71,0
67294,note_on,94,0,3,,,,,,,,,0,,,71,0
67294,note_on,94,0,2,,,,,,,,,6,,,59,0
67294,note_on,94,0,6,,,,,,,,,3,,,59,0
67296,note_on,2,0,2,,,,,,,,,6,,,64,92
67296,note_on,2,0,6,,,,,,,,,3,,,64,60
67296,note_on,2,0,7,,,,,,,,,10,,,52,60
67296,note_on,2,0,1,,,,,,,,,5,,,76,108
67296,note_on,2,0,3,,,,,,,,,0,,,76,127
67296,note_on,2,0,4,,,,,,,,,1,,,76,127
67390,note_on,94,0,2,,,,,,,,,6,,,64,0
67390,note_on,94,0,7,,,,,,,,,10,,,52,0
67390,note_on,94,0,6,,,,,,,,,3,,,64,0
67390,note_on,94,0,4,,,,,,,,,1,,,76,0
67390,note_on,94,0,3,,,,,,,,,0,,,76,0
67390,note_on,94,0,1,,,,,,,,,5,,,76,0
67392,note_on,2,0,4,,,,,,,,,1,,,68,127
67392,note_on,2,0,7,,,,,,,,,10,,,44,60
67392,note_on,2,0,2,,,,,,,,,6,,,56,92
67392,note_on,2,0,6,,,,,,,,,3,,,56,60
67392,note_on,2,0,3,,,,,,,,,0,,,68,127
67392,note_on,2,0,1,,,,,,,,,5,,,68,108
67486,note_on,94,0,6,,,,,,,,,3,,,56,0
67486,note_on,94,0,3,,,,,,,,,0,,,68,0
67486,note_on,94,0,7,,,,,,,,,10,,,44,0
67486,note_on,94,0,4,,,,,,,,,1,,,68,0
67486,note_on,94,0,1,,,,,,,,,5,,,68,0
67486,note_on,94,0,2,,,,,,,,,6,,,56,0
67488,note_on,2,0,4,,,,,,,,,1,,,66,127
67488,note_on,2,0,1,,,,,,,,,5,,,66,108
67488,note_on,2,0,2,,,,,,,,,6,,,54,92
67488,note_on,2,0,7,,,,,,,,,10,,,42,60
67488,note_on,2,0,6,,,,,,,,,3,,,54,60
67488,note_on,2,0,3,,,,,,,,,0,,,66,127
67510,note_on,22,0,3,,,,,,,,,0,,,66,0
67510,note_on,22,0,1,,,,,,,,,5,,,66,0
67510,note_on,22,0,4,,,,,,,,,1,,,66,0
67512,note_on,2,0,3,,,,,,,,,0,,,68,127
67512,note_on,2,0,1,,,,,,,,,5,,,68,108
67512,note_on,2,0,4,,,,,,,,,1,,,68,127
67534,note_on,22,0,4,,,,,,,,,1,,,68,0
67534,note_on,22,0,1,,,,,,,,,5,,,68,0
67534,note_on,22,0,3,,,,,,,,,0,,,68,0
67536,note_on,2,0,1,,,,,,,,,5,,,66,108
67536,note_on,2,0,4,,,,,,,,,1,,,66,127
67536,note_on,2,0,3,,,,,,,,,0,,,66,127
67582,note_on,46,0,4,,,,,,,,,1,,,66,0
67582,note_on,94,0,7,,,,,,,,,10,,,42,0
67582,note_on,46,0,1,,,,,,,,,5,,,66,0
67582,note_on,94,0,2,,,,,,,,,6,,,54,0
67582,note_on,46,0,3,,,,,,,,,0,,,66,0
67582,note_on,94,0,6,,,,,,,,,3,,,54,0
67584,note_on,2,0,4,,,,,,,,,1,,,64,127
67584,note_on,2,0,1,,,,,,,,,5,,,64,108
67584,note_on,2,0,2,,,,,,,,,6,,,52,92
67584,note_on,2,0,6,,,,,,,,,3,,,52,60
67584,note_on,2,0,3,,,,,,,,,0,,,64,127
67584,note_on,2,0,7,,,,,,,,,10,,,40,60
67678,note_on,94,0,3,,,,,,,,,0,,,64,0
67678,note_on,94,0,2,,,,,,,,,6,,,52,0
67678,note_on,94,0,1,,,,,,,,,5,,,64,0
67678,note_on,94,0,7,,,,,,,,,10,,,40,0
67678,note_on,94,0,6,,,,,,,,,3,,,52,0
67678,note_on,94,0,4,,,,,,,,,1,,,64,0
67680,note_on,2,0,7,,,,,,,,,10,,,52,60
67680,note_on,2,0,3,,,,,,,,,0,,,76,127
67680,note_on,2,0,1,,,,,,,,,5,,,76,108
67680,note_on,2,0,4,,,,,,,,,1,,,76,127
67680,note_on,2,0,6,,,,,,,,,3,,,64,60
67680,note_on,2,0,2,,,,,,,,,6,,,64,92
67774,note_on,94,0,3,,,,,,,,,0,,,76,0
67774,note_on,94,0,2,,,,,,,,,6,,,64,0
67774,note_on,94,0,1,,,,,,,,,5,,,76,0
67774,note_on,94,0,7,,,,,,,,,10,,,52,0
67774,note_on,94,0,4,,,,,,,,,1,,,76,0
67774,note_on,94,0,6,,,,,,,,,3,,,64,0
67776,note_on,2,0,3,,,,,,,,,0,,,66,127
67776,note_on,2,0,2,,,,,,,,,6,,,54,92
67776,note_on,2,0,7,,,,,,,,,10,,,42,60
67776,note_on,2,0,1,,,,,,,,,5,,,66,108
67776,note_on,2,0,6,,,,,,,,,3,,,54,60
67776,note_on,2,0,4,,,,,,,,,1,,,66,127
67870,note_on,94,0,7,,,,,,,,,10,,,42,0
67870,note_on,94,0,4,,,,,,,,,1,,,66,0
67870,note_on,94,0,6,,,,,,,,,3,,,54,0
67870,note_on,94,0,1,,,,,,,,,5,,,66,0
67870,note_on,94,0,2,,,,,,,,,6,,,54,0
67870,note_on,94,0,3,,,,,,,,,0,,,66,0
67872,note_on,2,0,6,,,,,,,,,3,,,52,60
67872,note_on,2,0,4,,,,,,,,,1,,,64,127
67872,note_on,2,0,1,,,,,,,,,5,,,64,108
67872,note_on,2,0,3,,,,,,,,,0,,,64,127
67872,note_on,2,0,7,,,,,,,,,10,,,40,60
67872,note_on,2,0,2,,,,,,,,,6,,,52,92
67894,note_on,22,0,3,,,,,,,,,0,,,64,0
67894,note_on,22,0,4,,,,,,,,,1,,,64,0
67894,note_on,22,0,1,,,,,,,,,5,,,64,0
67896,note_on,2,0,3,,,,,,,,,0,,,66,127
67896,note_on,2,0,1,,,,,,,,,5,,,66,108
67896,note_on,2,0,4,,,,,,,,,1,,,66,127
67918,note_on,22,0,4,,,,,,,,,1,,,66,0
67918,note_on,22,0,3,,,,,,,,,0,,,66,0
67918,note_on,22,0,1,,,,,,,,,5,,,66,0
67920,note_on,2,0,1,,,,,,,,,5,,,64,108
67920,note_on,2,0,3,,,,,,,,,0,,,64,127
67920,note_on,2,0,4,,,,,,,,,1,,,64,127
67966,note_on,46,0,4,,,,,,,,,1,,,64,0
67966,note_on,46,0,3,,,,,,,,,0,,,64,0
67966,note_on,94,0,7,,,,,,,,,10,,,40,0
67966,note_on,94,0,2,,,,,,,,,6,,,52,0
67966,note_on,94,0,6,,,,,,,,,3,,,52,0
67966,note_on,46,0,1,,,,,,,,,5,,,64,0
67968,note_on,2,0,3,,,,,,,,,0,,,62,127
67968,note_on,2,0,2,,,,,,,,,6,,,50,92
67968,note_on,2,0,7,,,,,,,,,10,,,38,60
67968,note_on,2,0,4,,,,,,,,,1,,,62,127
67968,note_on,2,0,1,,,,,,,,,5,,,62,108
67968,note_on,2,0,6,,,,,,,,,3,,,50,60
68062,note_on,94,0,7,,,,,,,,,10,,,38,0
68062,note_on,94,0,2,,,,,,,,,6,,,50,0
68062,note_on,94,0,1,,,,,,,,,5,,,62,0
68062,note_on,94,0,3,,,,,,,,,0,,,62,0
68062,note_on,94,0,4,,,,,,,,,1,,,62,0
68062,note_on,94,0,6,,,,,,,,,3,,,50,0
68064,note_on,2,0,2,,,,,,,,,6,,,64,92
68064,note_on,2,0,1,,,,,,,,,5,,,76,108
68064,note_on,2,0,3,,,,,,,,,0,,,76,127
68064,note_on,2,0,6,,,,,,,,,3,,,64,60
68064,note_on,2,0,7,,,,,,,,,10,,,52,60
68064,note_on,2,0,4,,,,,,,,,1,,,76,127
68158,note_on,94,0,1,,,,,,,,,5,,,76,0
68158,note_on,94,0,7,,,,,,,,,10,,,52,0
68158,note_on,94,0,6,,,,,,,,,3,,,64,0
68158,note_on,94,0,3,,,,,,,,,0,,,76,0
68158,note_on,94,0,4,,,,,,,,,1,,,76,0
68158,note_on,94,0,2,,,,,,,,,6,,,64,0
68160,note_on,2,0,3,,,,,,,,,0,,,64,127
68160,note_on,2,0,6,,,,,,,,,3,,,52,60
68160,note_on,2,0,1,,,,,,,,,5,,,64,108
68160,note_on,2,0,2,,,,,,,,,6,,,52,92
68160,note_on,2,0,7,,,,,,,,,10,,,40,60
68160,note_on,2,0,4,,,,,,,,,1,,,64,127
68254,note_on,94,0,7,,,,,,,,,10,,,40,0
68254,note_on,94,0,2,,,,,,,,,6,,,52,0
68254,note_on,94,0,3,,,,,,,,,0,,,64,0
68254,note_on,94,0,1,,,,,,,,,5,,,64,0
68254,note_on,94,0,4,,,,,,,,,1,,,64,0
68254,note_on,94,0,6,,,,,,,,,3,,,52,0
68256,note_on,2,0,4,,,,,,,,,1,,,62,127
68256,note_on,2,0,6,,,,,,,,,3,,,50,60
68256,note_on,2,0,1,,,,,,,,,5,,,62,108
68256,note_on,2,0,2,,,,,,,,,6,,,50,92
68256,note_on,2,0,3,,,,,,,,,0,,,62,127
68256,note_on,2,0,7,,,,,,,,,10,,,38,60
68278,note_on,22,0,1,,,,,,,,,5,,,62,0
68278,note_on,22,0,3,,,,,,,,,0,,,62,0
68278,note_on,22,0,4,,,,,,,,,1,,,62,0
68280,note_on,2,0,3,,,,,,,,,0,,,64,127
68280,note_on,2,0,4,,,,,,,,,1,,,64,127
68280,note_on,2,0,1,,,,,,,,,5,,,64,108
68302,note_on,22,0,4,,,,,,,,,1,,,64,0
68302,note_on,22,0,3,,,,,,,,,0,,,64,0
68302,note_on,22,0,1,,,,,,,,,5,,,64,0
68304,note_on,2,0,4,,,,,,,,,1,,,62,127
68304,note_on,2,0,3,,,,,,,,,0,,,62,127
68304,note_on,2,0,1,,,,,,,,,5,,,62,108
68350,note_on,94,0,7,,,,,,,,,10,,,38,0
68350,note_on,46,0,3,,,,,,,,,0,,,62,0
68350,note_on,46,0,1,,,,,,,,,5,,,62,0
68350,note_on,46,0,4,,,,,,,,,1,,,62,0
68350,note_on,94,0,2,,,,,,,,,6,,,50,0
68350,note_on,94,0,6,,,,,,,,,3,,,50,0
68352,note_on,2,0,3,,,,,,,,,0,,,61,127
68352,note_on,2,0,2,,,,,,,,,6,,,49,92
68352,note_on,2,0,7,,,,,,,,,10,,,37,60
68352,note_on,2,0,4,,,,,,,,,1,,,61,127
68352,note_on,2,0,1,,,,,,,,,5,,,61,108
68352,note_on,2,0,6,,,,,,,,,3,,,49,60
68446,note_on,94,0,4,,,,,,,,,1,,,61,0
68446,note_on,94,0,3,,,,,,,,,0,,,61,0
68446,note_on,94,0,6,,,,,,,,,3,,,49,0
68446,note_on,94,0,2,,,,,,,,,6,,,49,0
68446,note_on,94,0,1,,,,,,,,,5,,,61,0
68446,note_on,94,0,7,,,,,,,,,10,,,37,0
68448,note_on,2,0,4,,,,,,,,,1,,,76,127
68448,note_on,2,0,2,,,,,,,,,6,,,64,92
68448,note_on,2,0,1,,,,,,,,,5,,,76,108
68448,note_on,2,0,7,,,,,,,,,10,,,52,60
68448,note_on,2,0,6,,,,,,,,,3,,,64,60
68448,note_on,2,0,3,,,,,,,,,0,,,76,127
68542,note_on,94,0,6,,,,,,,,,3,,,64,0
68542,note_on,94,0,1,,,,,,,,,5,,,76,0
68542,note_on,94,0,2,,,,,,,,,6,,,64,0
68542,note_on,94,0,4,,,,,,,,,1,,,76,0
68542,note_on,94,0,3,,,,,,,,,0,,,76,0
68542,note_on,94,0,7,,,,,,,,,10,,,52,0
68544,note_on,2,0,2,,,,,,,,,6,,,50,92
68544,note_on,2,0,1,,,,,,,,,5,,,62,108
68544,note_on,2,0,4,,,,,,,,,1,,,62,127
68544,note_on,2,0,7,,,,,,,,,10,,,38,60
68544,note_on,2,0,6,,,,,,,,,3,,,50,60
68544,note_on,2,0,3,,,,,,,,,0,,,62,127
68638,note_on,94,0,4,,,,,,,,,1,,,62,0
68638,note_on,94,0,1,,,,,,,,,5,,,62,0
68638,note_on,94,0,3,,,,,,,,,0,,,62,0
68638,note_on,94,0,7,,,,,,,,,10,,,38,0
68638,note_on,94,0,2,,,,,,,,,6,,,50,0
68638,note_on,94,0,6,,,,,,,,,3,,,50,0
68640,note_on,2,0,7,,,,,,,,,10,,,37,60
68640,note_on,2,0,4,,,,,,,,,1,,,61,127
68640,note_on,2,0,6,,,,,,,,,3,,,49,60
68640,note_on,2,0,2,,,,,,,,,6,,,49,92
68640,note_on,2,0,3,,,,,,,,,0,,,61,127
68640,note_on,2,0,1,,,,,,,,,5,,,61,108
68662,note_on,22,0,3,,,,,,,,,0,,,61,0
68662,note_on,22,0,1,,,,,,,,,5,,,61,0
68662,note_on,22,0,4,,,,,,,,,1,,,61,0
68664,note_on,2,0,3,,,,,,,,,0,,,62,127
68664,note_on,2,0,4,,,,,,,,,1,,,62,127
68664,note_on,2,0,1,,,,,,,,,5,,,62,108
68686,note_on,22,0,3,,,,,,,,,0,,,62,0
68686,note_on,22,0,4,,,,,,,,,1,,,62,0
68686,note_on,22,0,1,,,,,,,,,5,,,62,0
68688,note_on,2,0,4,,,,,,,,,1,,,61,127
68688,note_on,2,0,1,,,,,,,,,5,,,61,108
68688,note_on,2,0,3,,,,,,,,,0,,,61,127
68734,note_on,46,0,1,,,,,,,,,5,,,61,0
68734,note_on,46,0,4,,,,,,,,,1,,,61,0
68734,note_on,94,0,6,,,,,,,,,3,,,49,0
68734,note_on,94,0,7,,,,,,,,,10,,,37,0
68734,note_on,46,0,3,,,,,,,,,0,,,61,0
68734,note_on,94,0,2,,,,,,,,,6,,,49,0
68736,note_on,2,0,1,,,,,,,,,5,,,59,108
68736,note_on,2,0,3,,,,,,,,,0,,,59,127
68736,note_on,2,0,2,,,,,,,,,6,,,47,92
68736,note_on,2,0,4,,,,,,,,,1,,,59,127
68736,note_on,2,0,7,,,,,,,,,10,,,35,60
68736,note_on,2,0,6,,,,,,,,,3,,,47,60
68830,note_on,94,0,7,,,,,,,,,10,,,35,0
68830,note_on,94,0,2,,,,,,,,,6,,,47,0
68830,note_on,94,0,1,,,,,,,,,5,,,59,0
68830,note_on,94,0,6,,,,,,,,,3,,,47,0
68830,note_on,94,0,4,,,,,,,,,1,,,59,0
68830,note_on,94,0,3,,,,,,,,,0,,,59,0
68832,note_on,2,0,2,,,,,,,,,6,,,64,92
68832,note_on,2,0,4,,,,,,,,,1,,,76,127
68832,note_on,2,0,3,,,,,,,,,0,,,76,127
68832,note_on,2,0,7,,,,,,,,,10,,,52,60
68832,note_on,2,0,6,,,,,,,,,3,,,64,60
68832,note_on,2,0,1,,,,,,,,,5,,,76,108
68926,note_on,94,0,2,,,,,,,,,6,,,64,0
68926,note_on,94,0,3,,,,,,,,,0,,,76,0
68926,note_on,94,0,7,,,,,,,,,10,,,52,0
68926,note_on,94,0,6,,,,,,,,,3,,,64,0
68926,note_on,94,0,4,,,,,,,,,1,,,76,0
68926,note_on,94,0,1,,,,,,,,,5,,,76,0
68928,note_on,2,0,6,,,,,,,,,3,,,49,60
68928,note_on,2,0,3,,,,,,,,,0,,,61,127
68928,note_on,2,0,4,,,,,,,,,1,,,61,127
68928,note_on,2,0,7,,,,,,,,,10,,,37,60
68928,note_on,2,0,2,,,,,,,,,6,,,49,92
68928,note_on,2,0,1,,,,,,,,,5,,,61,108
69022,note_on,94,0,7,,,,,,,,,10,,,37,0
69022,note_on,94,0,6,,,,,,,,,3,,,49,0
69022,note_on,94,0,1,,,,,,,,,5,,,61,0
69022,note_on,94,0,2,,,,,,,,,6,,,49,0
69022,note_on,94,0,4,,,,,,,,,1,,,61,0
69022,note_on,94,0,3,,,,,,,,,0,,,61,0
69024,note_on,2,0,7,,,,,,,,,10,,,35,60
69024,note_on,2,0,4,,,,,,,,,1,,,59,127
69024,note_on,2,0,1,,,,,,,,,5,,,59,108
69024,note_on,2,0,2,,,,,,,,,6,,,47,92
69024,note_on,2,0,6,,,,,,,,,3,,,47,60
69024,note_on,2,0,3,,,,,,,,,0,,,59,127
69118,note_on,94,0,6,,,,,,,,,3,,,47,0
69118,note_on,94,0,7,,,,,,,,,10,,,35,0
69118,note_on,94,0,4,,,,,,,,,1,,,59,0
69118,note_on,94,0,2,,,,,,,,,6,,,47,0
69118,note_on,94,0,1,,,,,,,,,5,,,59,0
69118,note_on,94,0,3,,,,,,,,,0,,,59,0
69120,note_on,2,0,7,,,,,,,,,10,,,33,60
69120,note_on,2,0,1,,,,,,,,,5,,,57,108
69120,note_on,2,0,6,,,,,,,,,3,,,45,60
69120,note_on,2,0,4,,,,,,,,,1,,,57,127
69120,note_on,2,0,3,,,,,,,,,0,,,57,127
69120,note_on,2,0,2,,,,,,,,,6,,,45,92
69166,note_on,46,0,1,,,,,,,,,5,,,57,0
69166,note_on,46,0,4,,,,,,,,,1,,,57,0
69166,note_on,46,0,3,,,,,,,,,0,,,57,0
69166,note_on,46,0,6,,,,,,,,,3,,,45,0
69166,note_on,46,0,7,,,,,,,,,10,,,33,0
69166,note_on,46,0,2,,,,,,,,,6,,,45,0
69168,note_on,2,0,2,,,,,,,,,6,,,45,92
69168,note_on,2,0,1,,,,,,,,,5,,,57,108
69168,note_on,2,0,7,,,,,,,,,10,,,33,60
69168,note_on,2,0,4,,,,,,,,,1,,,57,127
69168,note_on,2,0,6,,,,,,,,,3,,,45,60
69168,note_on,2,0,3,,,,,,,,,0,,,57,127
69214,note_on,46,0,2,,,,,,,,,6,,,45,0
69214,note_on,46,0,1,,,,,,,,,5,,,57,0
69214,note_on,46,0,4,,,,,,,,,1,,,57,0
69214,note_on,46,0,6,,,,,,,,,3,,,45,0
69214,note_on,46,0,3,,,,,,,,,0,,,57,0
69214,note_on,46,0,7,,,,,,,,,10,,,33,0
69216,note_on,2,0,7,,,,,,,,,10,,,35,60
69216,note_on,2,0,6,,,,,,,,,3,,,47,60
69216,note_on,2,0,1,,,,,,,,,5,,,59,108
69216,note_on,2,0,2,,,,,,,,,6,,,47,92
69216,note_on,2,0,4,,,,,,,,,1,,,59,127
69216,note_on,2,0,3,,,,,,,,,0,,,59,127
69262,note_on,46,0,6,,,,,,,,,3,,,47,0
69262,note_on,46,0,2,,,,,,,,,6,,,47,0
69262,note_on,46,0,1,,,,,,,,,5,,,59,0
69262,note_on,46,0,4,,,,,,,,,1,,,59,0
69262,note_on,46,0,3,,,,,,,,,0,,,59,0
69262,note_on,46,0,7,,,,,,,,,10,,,35,0
69264,note_on,2,0,1,,,,,,,,,5,,,59,108
69264,note_on,2,0,7,,,,,,,,,10,,,35,60
69264,note_on,2,0,4,,,,,,,,,1,,,59,127
69264,note_on,2,0,2,,,,,,,,,6,,,47,92
69264,note_on,2,0,6,,,,,,,,,3,,,47,60
69264,note_on,2,0,3,,,,,,,,,0,,,59,127
69310,note_on,46,0,4,,,,,,,,,1,,,59,0
69310,note_on,46,0,1,,,,,,,,,5,,,59,0
69310,note_on,46,0,7,,,,,,,,,10,,,35,0
69310,note_on,46,0,6,,,,,,,,,3,,,47,0
69310,note_on,46,0,2,,,,,,,,,6,,,47,0
69310,note_on,46,0,3,,,,,,,,,0,,,59,0
69312,note_on,2,0,7,,,,,,,,,10,,,37,60
69312,note_on,2,0,6,,,,,,,,,3,,,49,60
69312,note_on,2,0,3,,,,,,,,,0,,,61,127
69312,note_on,2,0,4,,,,,,,,,1,,,61,127
69312,note_on,2,0,1,,,,,,,,,5,,,61,108
69312,note_on,2,0,2,,,,,,,,,6,,,49,92
69358,note_on,46,0,2,,,,,,,,,6,,,49,0
69358,note_on,46,0,3,,,,,,,,,0,,,61,0
69358,note_on,46,0,1,,,,,,,,,5,,,61,0
69358,note_on,46,0,7,,,,,,,,,10,,,37,0
69358,note_on,46,0,4,,,,,,,,,1,,,61,0
69358,note_on,46,0,6,,,,,,,,,3,,,49,0
69360,note_on,2,0,1,,,,,,,,,5,,,61,108
69360,note_on,2,0,7,,,,,,,,,10,,,37,60
69360,note_on,2,0,6,,,,,,,,,3,,,49,60
69360,note_on,2,0,4,,,,,,,,,1,,,61,127
69360,note_on,2,0,3,,,,,,,,,0,,,61,127
69360,note_on,2,0,2,,,,,,,,,6,,,49,92
69406,note_on,46,0,6,,,,,,,,,3,,,49,0
69406,note_on,46,0,7,,,,,,,,,10,,,37,0
69406,note_on,46,0,2,,,,,,,,,6,,,49,0
69406,note_on,46,0,4,,,,,,,,,1,,,61,0
69406,note_on,46,0,3,,,,,,,,,0,,,61,0
69406,note_on,46,0,1,,,,,,,,,5,,,61,0
69408,note_on,2,0,4,,,,,,,,,1,,,62,127
69408,note_on,2,0,6,,,,,,,,,3,,,50,60
69408,note_on,2,0,3,,,,,,,,,0,,,62,127
69408,note_on,2,0,2,,,,,,,,,6,,,50,92
69408,note_on,2,0,1,,,,,,,,,5,,,62,108
69408,note_on,2,0,7,,,,,,,,,10,,,38,60
69454,note_on,46,0,2,,,,,,,,,6,,,50,0
69454,note_on,46,0,6,,,,,,,,,3,,,50,0
69454,note_on,46,0,1,,,,,,,,,5,,,62,0
69454,note_on,46,0,3,,,,,,,,,0,,,62,0
69454,note_on,46,0,4,,,,,,,,,1,,,62,0
69454,note_on,46,0,7,,,,,,,,,10,,,38,0
69456,note_on,2,0,2,,,,,,,,,6,,,50,92
69456,note_on,2,0,6,,,,,,,,,3,,,50,60
69456,note_on,2,0,3,,,,,,,,,0,,,62,127
69456,note_on,2,0,1,,,,,,,,,5,,,62,108
69456,note_on,2,0,4,,,,,,,,,1,,,62,127
69456,note_on,2,0,7,,,,,,,,,10,,,38,60
69502,note_on,46,0,3,,,,,,,,,0,,,62,0
69502,note_on,46,0,1,,,,,,,,,5,,,62,0
69502,note_on,46,0,2,,,,,,,,,6,,,50,0
69502,note_on,46,0,6,,,,,,,,,3,,,50,0
69502,note_on,46,0,4,,,,,,,,,1,,,62,0
69502,note_on,46,0,7,,,,,,,,,10,,,38,0
69504,note_on,2,0,4,,,,,,,,,1,,,64,127
69504,note_on,2,0,3,,,,,,,,,0,,,64,127
69504,note_on,2,0,1,,,,,,,,,5,,,64,108
69504,note_on,2,0,7,,,,,,,,,10,,,40,60
69504,note_on,2,0,2,,,,,,,,,6,,,52,92
69504,note_on,2,0,6,,,,,,,,,3,,,52,60
69664,note_on,160,0,4,,,,,,,,,1,,,64,0
69664,note_on,160,0,2,,,,,,,,,6,,,52,0
69664,note_on,160,0,3,,,,,,,,,0,,,64,0
69664,note_on,160,0,1,,,,,,,,,5,,,64,0
69664,note_on,160,0,7,,,,,,,,,10,,,40,0
69664,note_on,160,0,6,,,,,,,,,3,,,52,0
69792,note_on,128,0,1,,,,,,,,,5,,,71,108
69792,note_on,128,0,3,,,,,,,,,0,,,71,127
69792,note_on,128,0,7,,,,,,,,,10,,,47,60
69792,note_on,128,0,4,,,,,,,,,1,,,71,127
69792,note_on,128,0,6,,,,,,,,,3,,,59,60
69792,note_on,128,0,2,,,,,,,,,6,,,59,92
69886,note_on,94,0,2,,,,,,,,,6,,,59,0
69886,note_on,94,0,4,,,,,,,,,1,,,71,0
69886,note_on,94,0,1,,,,,,,,,5,,,71,0
69886,note_on,94,0,7,,,,,,,,,10,,,47,0
69886,note_on,94,0,3,,,,,,,,,0,,,71,0
69886,note_on,94,0,6,,,,,,,,,3,,,59,0
69888,note_on,2,0,6,,,,,,,,,3,,,61,60
69888,note_on,2,0,4,,,,,,,,,1,,,73,127
69888,note_on,2,0,3,,,,,,,,,0,,,73,127
69888,note_on,2,0,1,,,,,,,,,5,,,73,108
69888,note_on,2,0,2,,,,,,,,,6,,,61,92
69888,note_on,2,0,7,,,,,,,,,10,,,49,60
69982,note_on,94,0,2,,,,,,,,,6,,,61,0
69982,note_on,94,0,1,,,,,,,,,5,,,73,0
69982,note_on,94,0,7,,,,,,,,,10,,,49,0
69982,note_on,94,0,3,,,,,,,,,0,,,73,0
69982,note_on,94,0,4,,,,,,,,,1,,,73,0
69982,note_on,94,0,6,,,,,,,,,3,,,61,0
69984,note_on,2,0,2,,,,,,,,,6,,,59,92
69984,note_on,2,0,1,,,,,,,,,5,,,71,108
69984,note_on,2,0,3,,,,,,,,,0,,,71,127
69984,note_on,2,0,6,,,,,,,,,3,,,59,60
69984,note_on,2,0,4,,,,,,,,,1,,,71,127
69984,note_on,2,0,7,,,,,,,,,10,,,47,60
70030,note_on,46,0,6,,,,,,,,,3,,,59,0
70030,note_on,46,0,3,,,,,,,,,0,,,71,0
70030,note_on,46,0,2,,,,,,,,,6,,,59,0
70030,note_on,46,0,7,,,,,,,,,10,,,47,0
70030,note_on,46,0,4,,,,,,,,,1,,,71,0
70030,note_on,46,0,1,,,,,,,,,5,,,71,0
70032,note_on,2,0,6,,,,,,,,,3,,,57,60
70032,note_on,2,0,3,,,,,,,,,0,,,69,127
70032,note_on,2,0,7,,,,,,,,,10,,,45,60
70032,note_on,2,0,1,,,,,,,,,5,,,69,108
70032,note_on,2,0,4,,,,,,,,,1,,,69,127
70032,note_on,2,0,2,,,,,,,,,6,,,57,92
70078,note_on,46,0,7,,,,,,,,,10,,,45,0
70078,note_on,46,0,4,,,,,,,,,1,,,69,0
70078,note_on,46,0,2,,,,,,,,,6,,,57,0
70078,note_on,46,0,1,,,,,,,,,5,,,69,0
70078,note_on,46,0,3,,,,,,,,,0,,,69,0
70078,note_on,46,0,6,,,,,,,,,3,,,57,0
70080,note_on,2,0,7,,,,,,,,,10,,,52,60
70080,note_on,2,0,1,,,,,,,,,5,,,76,108
70080,note_on,2,0,4,,,,,,,,,1,,,76,127
70080,note_on,2,0,3,,,,,,,,,0,,,76,127
70080,note_on,2,0,2,,,,,,,,,6,,,64,92
70080,note_on,2,0,6,,,,,,,,,3,,,64,60
70174,note_on,94,0,2,,,,,,,,,6,,,64,0
70174,note_on,94,0,1,,,,,,,,,5,,,76,0
70174,note_on,94,0,6,,,,,,,,,3,,,64,0
70174,note_on,94,0,3,,,,,,,,,0,,,76,0
70174,note_on,94,0,7,,,,,,,,,10,,,52,0
70174,note_on,94,0,4,,,,,,,,,1,,,76,0
70176,note_on,2,0,7,,,,,,,,,10,,,40,60
70176,note_on,2,0,4,,,,,,,,,1,,,64,127
70176,note_on,2,0,3,,,,,,,,,0,,,64,127
70176,note_on,2,0,1,,,,,,,,,5,,,64,108
70176,note_on,2,0,2,,,,,,,,,6,,,52,92
70176,note_on,2,0,6,,,,,,,,,3,,,52,60
70270,note_on,94,0,3,,,,,,,,,0,,,64,0
70270,note_on,94,0,2,,,,,,,,,6,,,52,0
70270,note_on,94,0,7,,,,,,,,,10,,,40,0
70270,note_on,94,0,4,,,,,,,,,1,,,64,0
70270,note_on,94,0,6,,,,,,,,,3,,,52,0
70270,note_on,94,0,1,,,,,,,,,5,,,64,0
70272,note_on,2,0,7,,,,,,,,,10,,,45,60
70272,note_on,2,0,6,,,,,,,,,3,,,57,60
70272,note_on,2,0,2,,,,,,,,,6,,,57,92
70272,note_on,2,0,1,,,,,,,,,5,,,69,108
70272,note_on,2,0,4,,,,,,,,,1,,,69,127
70272,note_on,2,0,3,,,,,,,,,0,,,69,127
70432,note_on,160,0,6,,,,,,,,,3,,,57,0
70432,note_on,160,0,7,,,,,,,,,10,,,45,0
70432,note_on,160,0,4,,,,,,,,,1,,,69,0
70432,note_on,160,0,3,,,,,,,,,0,,,69,0
70432,note_on,160,0,2,,,,,,,,,6,,,57,0
70432,note_on,160,0,1,,,,,,,,,5,,,69,0
70560,note_on,128,0,1,,,,,,,,,5,,,71,108
70560,note_on,128,0,4,,,,,,,,,1,,,71,127
70560,note_on,128,0,2,,,,,,,,,6,,,59,92
70560,note_on,128,0,6,,,,,,,,,3,,,59,60
70560,note_on,128,0,7,,,,,,,,,10,,,47,60
70560,note_on,128,0,3,,,,,,,,,0,,,71,127
70654,note_on,94,0,1,,,,,,,,,5,,,71,0
70654,note_on,94,0,2,,,,,,,,,6,,,59,0
70654,note_on,94,0,7,,,,,,,,,10,,,47,0
70654,note_on,94,0,6,,,,,,,,,3,,,59,0
70654,note_on,94,0,3,,,,,,,,,0,,,71,0
70654,note_on,94,0,4,,,,,,,,,1,,,71,0
70656,note_on,2,0,1,,,,,,,,,5,,,73,108
70656,note_on,2,0,6,,,,,,,,,3,,,61,60
70656,set_tempo,0,1,0,,,,,,600000,,,,,,,
70656,note_on,2,0,3,,,,,,,,,0,,,73,127
70656,note_on,2,0,7,,,,,,,,,10,,,49,60
70656,note_on,2,0,4,,,,,,,,,1,,,73,127
70656,set_tempo,58368,1,0,,,,,,600000,,,,,,,
70656,note_on,2,0,2,,,,,,,,,6,,,61,92
70750,note_on,94,0,3,,,,,,,,,0,,,73,0
70750,note_on,94,0,4,,,,,,,,,1,,,73,0
70750,note_on,94,0,6,,,,,,,,,3,,,61,0
70750,note_on,94,0,1,,,,,,,,,5,,,73,0
70750,note_on,94,0,7,,,,,,,,,10,,,49,0
70750,note_on,94,0,2,,,,,,,,,6,,,61,0
70752,note_on,2,0,1,,,,,,,,,5,,,71,108
70752,note_on,2,0,6,,,,,,,,,3,,,59,60
70752,note_on,2,0,3,,,,,,,,,0,,,71,127
70752,note_on,2,0,4,,,,,,,,,1,,,71,127
70752,note_on,2,0,2,,,,,,,,,6,,,59,92
70752,note_on,2,0,7,,,,,,,,,10,,,47,60
70798,note_on,46,0,4,,,,,,,,,1,,,71,0
70798,note_on,46,0,2,,,,,,,,,6,,,59,0
70798,note_on,46,0,1,,,,,,,,,5,,,71,0
70798,note_on,46,0,6,,,,,,,,,3,,,59,0
70798,note_on,46,0,7,,,,,,,,,10,,,47,0
70798,note_on,46,0,3,,,,,,,,,0,,,71,0
70800,note_on,2,0,1,,,,,,,,,5,,,69,108
70800,note_on,2,0,2,,,,,,,,,6,,,57,92
70800,note_on,2,0,6,,,,,,,,,3,,,57,60
70800,note_on,2,0,3,,,,,,,,,0,,,69,127
70800,note_on,2,0,4,,,,,,,,,1,,,69,127
70800,note_on,2,0,7,,,,,,,,,10,,,45,60
70846,note_on,46,0,3,,,,,,,,,0,,,69,0
70846,note_on,46,0,6,,,,,,,,,3,,,57,0
70846,note_on,46,0,4,,,,,,,,,1,,,69,0
70846,note_on,46,0,1,,,,,,,,,5,,,69,0
70846,note_on,46,0,7,,,,,,,,,10,,,45,0
70846,note_on,46,0,2,,,,,,,,,6,,,57,0
70848,set_tempo,192,1,0,,,,,,666666,,,,,,,
70848,note_on,2,0,7,,,,,,,,,10,,,52,60
70848,set_tempo,0,1,0,,,,,,666666,,,,,,,
70848,note_on,2,0,1,,,,,,,,,5,,,76,108
70848,note_on,2,0,4,,,,,,,,,1,,,76,127
70848,note_on,2,0,3,,,,,,,,,0,,,76,127
70848,note_on,2,0,6,,,,,,,,,3,,,64,60
70848,note_on,2,0,2,,,,,,,,,6,,,64,92
70942,note_on,94,0,1,,,,,,,,,5,,,76,0
70942,note_on,94,0,4,,,,,,,,,1,,,76,0
70942,note_on,94,0,6,,,,,,,,,3,,,64,0
70942,note_on,94,0,2,,,,,,,,,6,,,64,0
70942,note_on,94,0,7,,,,,,,,,10,,,52,0
70942,note_on,94,0,3,,,,,,,,,0,,,76,0
70944,set_tempo,96,1,0,,,,,,1000000,,,,,,,
70944,note_on,2,0,7,,,,,,,,,10,,,40,60
70944,note_on,2,0,6,,,,,,,,,3,,,52,60
70944,note_on,2,0,3,,,,,,,,,0,,,64,127
70944,note_on,2,0,4,,,,,,,,,1,,,64,127
70944,note_on,2,0,1,,,,,,,,,5,,,64,108
70944,note_on,2,0,2,,,,,,,,,6,,,52,92
70944,set_tempo,0,1,0,,,,,,1000000,,,,,,,
70990,note_on,46,0,3,,,,,,,,,0,,,64,0
70990,note_on,46,0,4,,,,,,,,,1,,,64,0
70992,set_tempo,48,1,0,,,,,,1500000,,,,,,,
70992,note_on,2,0,3,,,,,,,,,0,,,80,127
70992,note_on,2,0,4,,,,,,,,,1,,,76,127
71038,note_on,46,0,3,,,,,,,,,0,,,80,0
71038,note_on,94,0,1,,,,,,,,,5,,,64,0
71038,note_on,94,0,2,,,,,,,,,6,,,52,0
71038,note_on,46,0,4,,,,,,,,,1,,,76,0
71038,note_on,94,0,7,,,,,,,,,10,,,40,0
71038,note_on,94,0,6,,,,,,,,,3,,,52,0
71040,note_on,2,0,2,,,,,,,,,6,,,45,92
71040,note_on,2,0,7,,,,,,,,,10,,,33,60
71040,note_on,0,0,2,,,,,,,,,6,,,57,92
71040,set_tempo,48,1,0,,,,,,1714285,,,,,,,
71040,note_on,2,0,6,,,,,,,,,3,,,45,60
71040,note_on,2,0,1,,,,,,,,,5,,,69,108
71040,note_on,2,0,4,,,,,,,,,1,,,73,127
71040,note_on,2,0,3,,,,,,,,,0,,,81,127
71064,note_on,24,0,1,,,,,,,,,5,,,73,108
71088,note_on,24,0,1,,,,,,,,,5,,,76,108
71112,note_on,24,0,1,,,,,,,,,5,,,81,108
71136,end_of_track,0,1,0,,,,,,,,,,,,,
71136,set_tempo,96,1,0,,,,,,3000000,,,,,,,
71296,note_on,184,0,1,,,,,,,,,5,,,69,0
71376,note_on,336,0,6,,,,,,,,,3,,,45,0
71376,note_on,336,0,7,,,,,,,,,10,,,33,0
71376,end_of_track,0,1,7,,,,,,,,,,,,,
71376,end_of_track,0,1,3,,,,,,,,,,,,,
71376,note_on,336,0,2,,,,,,,,,6,,,45,0
71376,note_on,0,0,2,,,,,,,,,6,,,57,0
71376,end_of_track,0,1,2,,,,,,,,,,,,,
71376,note_on,336,0,3,,,,,,,,,0,,,81,0
71376,end_of_track,0,1,6,,,,,,,,,,,,,
71376,note_on,336,0,4,,,,,,,,,1,,,73,0
71376,end_of_track,0,1,4,,,,,,,,,,,,,
71392,note_on,96,0,1,,,,,,,,,5,,,73,0
71392,note_on,0,0,1,,,,,,,,,5,,,76,0
71392,note_on,0,0,1,,,,,,,,,5,,,81,0
71392,end_of_track,0,1,1,,,,,,,,,,,,,
