tick,type,numerator,denominator,clocks_per_click,notated_32nd_notes_per_beat,time,meta,track,data,tempo,control,value,channel,program,key,note,velocity
0,time_signature,3,4,96,8,0,1,0,,,,,,,,,
0,control_change,,,,,0,0,3,,,7,100,0,,,,
0,control_change,,,,,0,0,3,,,0,0,0,,,,
0,track_name,,,,,0,1,3,,,,,,,,,
0,end_of_track,,,,,0,1,2,,,,,,,,,
0,track_name,,,,,0,1,2,,,,,,,,,
0,end_of_track,,,,,0,1,1,,,,,,,,,
0,control_change,,,,,0,0,3,,,91,107,0,,,,
0,track_name,,,,,0,1,1,,,,,,,,,
0,control_change,,,,,0,0,6,,,91,107,0,,,,
0,key_signature,,,,,0,1,6,,,,,,,Dm,,
0,key_signature,,,,,0,1,8,,,,,,,Dm,,
0,track_name,,,,,0,1,9,,,,,,,,,
0,control_change,,,,,0,0,9,,,0,0,2,,,,
0,program_change,,,,,0,0,9,,,,,2,49,,,
0,control_change,,,,,0,0,6,,,7,100,0,,,,
0,program_change,,,,,0,0,3,,,,,0,40,,,
0,key_signature,,,,,0,1,3,,,,,,,Dm,,
0,end_of_track,,,,,0,1,3,,,,,,,,,
0,track_name,,,,,0,1,6,,,,,,,,,
0,end_of_track,,,,,0,1,5,,,,,,,,,
0,key_signature,,,,,0,1,5,,,,,,,Dm,,
0,control_change,,,,,0,0,5,,,91,107,0,,,,
0,control_change,,,,,0,0,5,,,7,100,0,,,,
0,program_change,,,,,0,0,5,,,,,0,40,,,
0,control_change,,,,,0,0,5,,,0,0,0,,,,
0,track_name,,,,,0,1,5,,,,,,,,,
0,end_of_track,,,,,0,1,4,,,,,,,,,
0,key_signature,,,,,0,1,4,,,,,,,Dm,,
0,control_change,,,,,0,0,4,,,91,107,0,,,,
0,control_change,,,,,0,0,4,,,7,100,0,,,,
0,program_change,,,,,0,0,4,,,,,0,40,,,
0,control_change,,,,,0,0,4,,,0,0,0,,,,
0,track_name,,,,,0,1,4,,,,,,,,,
0,control_change,,,,,0,0,9,,,7,96,2,,,,
0,control_change,,,,,0,0,9,,,10,36,2,,,,
0,control_change,,,,,0,0,9,,,91,108,2,,,,
0,key_signature,,,,,0,1,9,,,,,,,Dm,,
0,track_name,,,,,0,1,10,,,,,,,,,
0,control_change,,,,,0,0,10,,,0,0,3,,,,
0,program_change,,,,,0,0,10,,,,,3,49,,,
0,control_change,,,,,0,0,10,,,7,92,3,,,,
0,control_change,,,,,0,0,10,,,91,108,3,,,,
0,key_signature,,,,,0,1,10,,,,,,,Dm,,
0,track_name,,,,,0,1,7,,,,,,,,,
0,control_change,,,,,0,0,7,,,0,0,0,,,,
0,program_change,,,,,0,0,7,,,,,0,40,,,
0,control_change,,,,,0,0,7,,,7,100,0,,,,
0,control_change,,,,,0,0,7,,,91,107,0,,,,
0,key_signature,,,,,0,1,7,,,,,,,Dm,,
0,set_tempo,,,,,0,1,0,,1333333,,,,,,,
0,sequencer_specific,,,,,0,1,0,"(0, 0, 119, 14, 1)",,,,,,,,
0,sequencer_specific,,,,,0,1,0,"(0, 0, 65)",,,,,,,,
0,track_name,,,,,0,1,8,,,,,,,,,
0,control_change,,,,,0,0,6,,,0,0,0,,,,
0,control_change,,,,,0,0,8,,,0,0,1,,,,
0,control_change,,,,,0,0,8,,,7,100,1,,,,
0,note_on,,,,,0,0,9,,,,,2,,,74,45
0,program_change,,,,,0,0,8,,,,,1,49,,,
0,program_change,,,,,0,0,6,,,,,0,40,,,
0,control_change,,,,,0,0,8,,,91,107,1,,,,
0,control_change,,,,,0,0,8,,,10,49,1,,,,
0,end_of_track,,,,,0,1,6,,,,,,,,,
256,note_off,,,,,256,0,9,,,,,2,,,74,100
288,note_on,,,,,32,0,9,,,,,2,,,74,45
364,note_off,,,,,76,0,9,,,,,2,,,74,100
384,note_on,,,,,20,0,9,,,,,2,,,74,45
640,note_off,,,,,256,0,9,,,,,2,,,74,100
672,note_on,,,,,32,0,9,,,,,2,,,74,45
748,note_off,,,,,76,0,9,,,,,2,,,74,100
768,note_on,,,,,20,0,9,,,,,2,,,74,45
1024,note_off,,,,,256,0,9,,,,,2,,,74,100
1056,note_on,,,,,32,0,9,,,,,2,,,74,45
1132,note_off,,,,,76,0,9,,,,,2,,,74,100
1152,note_on,,,,,1152,0,8,,,,,1,,,76,45
1152,note_on,,,,,20,0,9,,,,,2,,,74,45
1152,note_on,,,,,1152,0,10,,,,,3,,,69,45
1152,set_tempo,,,,,1152,1,0,,1333333,,,,,,,
1408,note_off,,,,,256,0,8,,,,,1,,,76,100
1408,note_off,,,,,256,0,10,,,,,3,,,69,100
1440,note_on,,,,,32,0,10,,,,,3,,,69,45
1440,note_on,,,,,32,0,8,,,,,1,,,76,45
1516,note_off,,,,,76,0,8,,,,,1,,,76,100
1516,note_off,,,,,76,0,10,,,,,3,,,69,100
1536,note_on,,,,,20,0,10,,,,,3,,,69,45
1536,note_on,,,,,1536,0,7,,,,,0,,,79,60
1536,note_on,,,,,20,0,8,,,,,1,,,76,45
1632,control_change,,,,,96,0,7,,,7,103,0,,,,
1728,control_change,,,,,96,0,7,,,7,104,0,,,,
1792,note_off,,,,,256,0,8,,,,,1,,,76,100
1792,note_off,,,,,256,0,10,,,,,3,,,69,100
1824,control_change,,,,,96,0,7,,,7,106,0,,,,
1824,note_on,,,,,32,0,8,,,,,1,,,76,45
1824,note_on,,,,,32,0,10,,,,,3,,,69,45
1900,note_off,,,,,76,0,10,,,,,3,,,69,100
1900,note_off,,,,,76,0,8,,,,,1,,,76,100
1920,note_on,,,,,20,0,8,,,,,1,,,76,45
1920,note_on,,,,,20,0,10,,,,,3,,,69,45
1920,control_change,,,,,96,0,7,,,7,108,0,,,,
2016,control_change,,,,,96,0,7,,,7,110,0,,,,
2112,control_change,,,,,96,0,7,,,7,111,0,,,,
2176,note_off,,,,,256,0,10,,,,,3,,,69,100
2176,note_off,,,,,256,0,8,,,,,1,,,76,100
2208,control_change,,,,,96,0,7,,,7,113,0,,,,
2208,note_on,,,,,32,0,10,,,,,3,,,69,45
2208,note_on,,,,,32,0,8,,,,,1,,,76,45
2244,note_off,,,,,1092,0,9,,,,,2,,,74,100
2284,note_off,,,,,76,0,8,,,,,1,,,76,100
2284,note_off,,,,,76,0,10,,,,,3,,,69,100
2304,note_on,,,,,20,0,10,,,,,3,,,57,45
2304,note_on,,,,,20,0,8,,,,,1,,,76,45
2304,note_on,,,,,60,0,9,,,,,2,,,73,45
2304,control_change,,,,,96,0,7,,,7,115,0,,,,
2400,control_change,,,,,96,0,7,,,7,116,0,,,,
2496,control_change,,,,,96,0,7,,,7,118,0,,,,
2560,note_off,,,,,256,0,9,,,,,2,,,73,100
2592,note_on,,,,,32,0,9,,,,,2,,,73,45
2592,control_change,,,,,96,0,7,,,7,120,0,,,,
2648,note_off,,,,,56,0,7,,,,,0,,,79,100
2668,note_off,,,,,76,0,9,,,,,2,,,73,100
2684,control_change,,,,,36,0,7,,,7,100,0,,,,
2688,note_on,,,,,4,0,7,,,,,0,,,81,78
2688,note_on,,,,,20,0,9,,,,,2,,,73,45
2944,note_off,,,,,256,0,9,,,,,2,,,73,100
2944,note_off,,,,,256,0,7,,,,,0,,,81,100
2976,note_on,,,,,32,0,9,,,,,2,,,73,45
2976,note_on,,,,,32,0,7,,,,,0,,,79,77
3052,note_off,,,,,76,0,9,,,,,2,,,73,100
3052,note_off,,,,,76,0,7,,,,,0,,,79,100
3072,note_on,,,,,20,0,9,,,,,2,,,73,45
3072,note_on,,,,,20,0,7,,,,,0,,,77,76
3328,note_off,,,,,256,0,7,,,,,0,,,77,100
3328,note_off,,,,,256,0,9,,,,,2,,,73,100
3360,note_on,,,,,32,0,9,,,,,2,,,73,45
3360,note_on,,,,,32,0,7,,,,,0,,,76,72
3396,note_off,,,,,1092,0,10,,,,,3,,,57,100
3396,note_off,,,,,1092,0,8,,,,,1,,,76,100
3436,note_off,,,,,76,0,9,,,,,2,,,73,100
3436,note_off,,,,,76,0,7,,,,,0,,,76,100
3456,note_on,,,,,60,0,10,,,,,3,,,62,45
3456,note_on,,,,,20,0,9,,,,,2,,,69,45
3456,note_on,,,,,20,0,7,,,,,0,,,77,71
3456,note_on,,,,,60,0,8,,,,,1,,,77,45
3712,note_off,,,,,256,0,7,,,,,0,,,77,100
3712,note_off,,,,,256,0,8,,,,,1,,,77,100
3712,note_off,,,,,256,0,10,,,,,3,,,62,100
3744,note_on,,,,,32,0,8,,,,,1,,,77,45
3744,note_on,,,,,32,0,10,,,,,3,,,62,45
3744,note_on,,,,,32,0,7,,,,,0,,,76,67
3820,note_off,,,,,76,0,7,,,,,0,,,76,100
3820,note_off,,,,,76,0,10,,,,,3,,,62,100
3820,note_off,,,,,76,0,8,,,,,1,,,77,100
3840,note_on,,,,,20,0,7,,,,,0,,,74,66
3840,note_on,,,,,20,0,10,,,,,3,,,62,45
3840,note_on,,,,,20,0,8,,,,,1,,,77,45
3840,set_tempo,,,,,2688,1,0,,1333333,,,,,,,
4032,set_tempo,,,,,192,1,0,,1363636,,,,,,,
4096,note_off,,,,,256,0,8,,,,,1,,,77,100
4096,note_off,,,,,256,0,10,,,,,3,,,62,100
4128,note_on,,,,,32,0,10,,,,,3,,,62,45
4128,note_on,,,,,32,0,8,,,,,1,,,77,45
4204,note_off,,,,,76,0,10,,,,,3,,,62,100
4204,note_off,,,,,76,0,8,,,,,1,,,77,100
4224,set_tempo,,,,,192,1,0,,1395348,,,,,,,
4224,note_on,,,,,20,0,8,,,,,1,,,77,45
4224,note_on,,,,,20,0,10,,,,,3,,,62,45
4416,set_tempo,,,,,192,1,0,,1428571,,,,,,,
4476,note_off,,,,,636,0,7,,,,,0,,,74,100
4480,note_off,,,,,256,0,10,,,,,3,,,62,100
4480,note_off,,,,,256,0,8,,,,,1,,,77,100
4512,note_on,,,,,32,0,8,,,,,1,,,77,45
4512,note_on,,,,,32,0,10,,,,,3,,,62,45
4548,note_off,,,,,1092,0,9,,,,,2,,,69,100
4588,note_off,,,,,76,0,8,,,,,1,,,77,100
4588,note_off,,,,,76,0,10,,,,,3,,,62,100
4608,note_on,,,,,20,0,8,,,,,1,,,82,45
4608,note_on,,,,,132,0,7,,,,,0,,,74,68
4608,note_on,,,,,20,0,10,,,,,3,,,74,45
4608,set_tempo,,,,,192,1,0,,1333333,,,,,,,
4608,note_on,,,,,60,0,9,,,,,2,,,77,45
4796,note_off,,,,,188,0,7,,,,,0,,,74,100
4800,note_on,,,,,4,0,7,,,,,0,,,77,69
4864,note_off,,,,,256,0,8,,,,,1,,,82,100
4864,note_off,,,,,256,0,10,,,,,3,,,74,100
4864,note_off,,,,,256,0,9,,,,,2,,,77,100
4896,note_on,,,,,32,0,8,,,,,1,,,82,45
4896,note_on,,,,,32,0,10,,,,,3,,,74,45
4896,note_on,,,,,32,0,9,,,,,2,,,77,45
4972,note_off,,,,,76,0,9,,,,,2,,,77,100
4972,note_off,,,,,76,0,8,,,,,1,,,82,100
4972,note_off,,,,,76,0,10,,,,,3,,,74,100
4972,note_off,,,,,172,0,7,,,,,0,,,77,100
4992,note_on,,,,,20,0,8,,,,,1,,,82,45
4992,note_on,,,,,20,0,7,,,,,0,,,82,70
4992,note_on,,,,,20,0,10,,,,,3,,,74,45
4992,note_on,,,,,20,0,9,,,,,2,,,77,45
5248,note_off,,,,,256,0,10,,,,,3,,,74,100
5248,note_off,,,,,256,0,9,,,,,2,,,77,100
5248,note_off,,,,,256,0,8,,,,,1,,,82,100
5280,note_on,,,,,32,0,8,,,,,1,,,82,45
5280,note_on,,,,,32,0,10,,,,,3,,,74,45
5280,note_on,,,,,32,0,9,,,,,2,,,77,45
5336,note_off,,,,,344,0,7,,,,,0,,,82,100
5356,note_off,,,,,76,0,9,,,,,2,,,77,100
5356,note_off,,,,,76,0,10,,,,,3,,,74,100
5356,note_off,,,,,76,0,8,,,,,1,,,82,100
5376,note_on,,,,,20,0,10,,,,,3,,,74,45
5376,note_on,,,,,40,0,7,,,,,0,,,84,73
5376,note_on,,,,,20,0,8,,,,,1,,,82,45
5376,note_on,,,,,20,0,9,,,,,2,,,77,45
5632,note_off,,,,,256,0,8,,,,,1,,,82,100
5632,note_off,,,,,256,0,7,,,,,0,,,84,100
5632,note_off,,,,,256,0,9,,,,,2,,,77,100
5632,note_off,,,,,256,0,10,,,,,3,,,74,100
5664,note_on,,,,,32,0,8,,,,,1,,,82,45
5664,note_on,,,,,32,0,7,,,,,0,,,86,75
5664,note_on,,,,,32,0,9,,,,,2,,,77,45
5664,note_on,,,,,32,0,10,,,,,3,,,74,45
5740,note_off,,,,,76,0,10,,,,,3,,,74,100
5740,note_off,,,,,76,0,8,,,,,1,,,82,100
5740,note_off,,,,,76,0,9,,,,,2,,,77,100
5740,note_off,,,,,76,0,7,,,,,0,,,86,100
5760,note_on,,,,,20,0,9,,,,,2,,,76,45
5760,note_on,,,,,20,0,8,,,,,1,,,79,45
5760,note_on,,,,,20,0,10,,,,,3,,,73,45
5760,note_on,,,,,20,0,7,,,,,0,,,82,74
5836,note_off,,,,,76,0,7,,,,,0,,,82,100
5856,note_on,,,,,20,0,7,,,,,0,,,81,73
5948,note_off,,,,,92,0,7,,,,,0,,,81,100
5952,note_on,,,,,4,0,7,,,,,0,,,79,71
6016,note_off,,,,,256,0,9,,,,,2,,,76,100
6028,note_off,,,,,76,0,7,,,,,0,,,79,100
6048,note_on,,,,,32,0,9,,,,,2,,,76,45
6048,note_on,,,,,20,0,7,,,,,0,,,77,70
6124,note_off,,,,,76,0,9,,,,,2,,,76,100
6140,note_off,,,,,92,0,7,,,,,0,,,77,100
6144,note_on,,,,,20,0,9,,,,,2,,,76,45
6144,note_on,,,,,4,0,7,,,,,0,,,76,69
6400,note_off,,,,,256,0,9,,,,,2,,,76,100
6432,note_on,,,,,32,0,9,,,,,2,,,76,45
6508,note_off,,,,,76,0,9,,,,,2,,,76,100
6528,note_on,,,,,20,0,9,,,,,2,,,76,45
6784,note_off,,,,,256,0,9,,,,,2,,,76,100
6816,note_on,,,,,32,0,9,,,,,2,,,76,45
6832,note_off,,,,,688,0,7,,,,,0,,,76,100
6852,note_off,,,,,1092,0,8,,,,,1,,,79,100
6852,note_off,,,,,1092,0,10,,,,,3,,,73,100
6892,note_off,,,,,76,0,9,,,,,2,,,76,100
6912,note_on,,,,,20,0,9,,,,,2,,,76,45
6912,note_on,,,,,80,0,7,,,,,0,,,72,70
6912,note_on,,,,,60,0,8,,,,,1,,,81,45
6912,note_on,,,,,60,0,10,,,,,3,,,72,45
7100,note_off,,,,,188,0,7,,,,,0,,,72,100
7104,note_on,,,,,4,0,7,,,,,0,,,76,71
7168,note_off,,,,,256,0,10,,,,,3,,,72,100
7168,note_off,,,,,256,0,8,,,,,1,,,81,100
7200,note_on,,,,,32,0,8,,,,,1,,,81,45
7200,note_on,,,,,32,0,10,,,,,3,,,72,45
7276,note_off,,,,,76,0,8,,,,,1,,,81,100
7276,note_off,,,,,76,0,10,,,,,3,,,72,100
7276,note_off,,,,,172,0,7,,,,,0,,,76,100
7296,note_on,,,,,20,0,8,,,,,1,,,81,45
7296,note_on,,,,,20,0,7,,,,,0,,,81,72
7296,note_on,,,,,20,0,10,,,,,3,,,72,45
7552,note_off,,,,,256,0,8,,,,,1,,,81,100
7552,note_off,,,,,256,0,10,,,,,3,,,72,100
7584,note_on,,,,,32,0,8,,,,,1,,,81,45
7584,note_on,,,,,32,0,10,,,,,3,,,72,45
7640,note_off,,,,,344,0,7,,,,,0,,,81,100
7660,note_off,,,,,76,0,8,,,,,1,,,81,100
7660,note_off,,,,,76,0,10,,,,,3,,,72,100
7680,note_on,,,,,20,0,8,,,,,1,,,81,45
7680,note_on,,,,,40,0,7,,,,,0,,,82,75
7680,note_on,,,,,20,0,10,,,,,3,,,72,45
7936,note_off,,,,,256,0,8,,,,,1,,,81,100
7936,note_off,,,,,256,0,7,,,,,0,,,82,100
7936,note_off,,,,,256,0,10,,,,,3,,,72,100
7968,note_on,,,,,32,0,7,,,,,0,,,84,78
7968,note_on,,,,,32,0,8,,,,,1,,,81,45
7968,note_on,,,,,32,0,10,,,,,3,,,72,45
8004,note_off,,,,,1092,0,9,,,,,2,,,76,100
8044,note_off,,,,,76,0,10,,,,,3,,,72,100
8044,note_off,,,,,76,0,7,,,,,0,,,84,100
8044,note_off,,,,,76,0,8,,,,,1,,,81,100
8064,note_on,,,,,20,0,7,,,,,0,,,81,78
8064,note_on,,,,,20,0,10,,,,,3,,,71,45
8064,note_on,,,,,60,0,9,,,,,2,,,74,45
8064,note_on,,,,,20,0,8,,,,,1,,,77,45
8140,note_off,,,,,76,0,7,,,,,0,,,81,100
8160,note_on,,,,,20,0,7,,,,,0,,,79,77
8252,note_off,,,,,92,0,7,,,,,0,,,79,100
8256,note_on,,,,,4,0,7,,,,,0,,,77,75
8320,note_off,,,,,256,0,9,,,,,2,,,74,100
8332,note_off,,,,,76,0,7,,,,,0,,,77,100
8352,note_on,,,,,20,0,7,,,,,0,,,76,73
8352,note_on,,,,,32,0,9,,,,,2,,,74,45
8428,note_off,,,,,76,0,9,,,,,2,,,74,100
8444,note_off,,,,,92,0,7,,,,,0,,,76,100
8448,note_on,,,,,4,0,7,,,,,0,,,74,71
8448,note_on,,,,,20,0,9,,,,,2,,,74,45
8704,note_off,,,,,256,0,9,,,,,2,,,74,100
8736,note_on,,,,,32,0,9,,,,,2,,,74,45
8812,note_off,,,,,76,0,9,,,,,2,,,74,100
8832,note_on,,,,,20,0,9,,,,,2,,,74,45
9088,note_off,,,,,256,0,9,,,,,2,,,74,100
9120,note_on,,,,,32,0,9,,,,,2,,,74,45
9136,note_off,,,,,688,0,7,,,,,0,,,74,100
9156,note_off,,,,,1092,0,8,,,,,1,,,77,100
9156,note_off,,,,,1092,0,10,,,,,3,,,71,100
9196,note_off,,,,,76,0,9,,,,,2,,,74,100
9216,note_on,,,,,20,0,9,,,,,2,,,74,45
9216,note_on,,,,,80,0,7,,,,,0,,,70,70
9216,note_on,,,,,60,0,8,,,,,1,,,79,45
9216,note_on,,,,,60,0,10,,,,,3,,,70,45
9404,note_off,,,,,188,0,7,,,,,0,,,70,100
9408,note_on,,,,,4,0,7,,,,,0,,,74,71
9472,note_off,,,,,256,0,8,,,,,1,,,79,100
9472,note_off,,,,,256,0,10,,,,,3,,,70,100
9504,note_on,,,,,32,0,8,,,,,1,,,79,45
9504,note_on,,,,,32,0,10,,,,,3,,,70,45
9580,note_off,,,,,76,0,8,,,,,1,,,79,100
9580,note_off,,,,,172,0,7,,,,,0,,,74,100
9580,note_off,,,,,76,0,10,,,,,3,,,70,100
9600,note_on,,,,,20,0,8,,,,,1,,,79,45
9600,note_on,,,,,20,0,7,,,,,0,,,79,73
9600,note_on,,,,,20,0,10,,,,,3,,,70,45
9856,note_off,,,,,256,0,8,,,,,1,,,79,100
9856,note_off,,,,,256,0,10,,,,,3,,,70,100
9888,note_on,,,,,32,0,10,,,,,3,,,70,45
9888,note_on,,,,,32,0,8,,,,,1,,,79,45
9944,note_off,,,,,344,0,7,,,,,0,,,79,100
9964,note_off,,,,,76,0,8,,,,,1,,,79,100
9964,note_off,,,,,76,0,10,,,,,3,,,70,100
9984,note_on,,,,,20,0,10,,,,,3,,,70,45
9984,note_on,,,,,20,0,8,,,,,1,,,79,45
9984,note_on,,,,,40,0,7,,,,,0,,,81,76
10240,note_off,,,,,256,0,7,,,,,0,,,81,100
10240,note_off,,,,,256,0,8,,,,,1,,,79,100
10240,note_off,,,,,256,0,10,,,,,3,,,70,100
10272,note_on,,,,,32,0,7,,,,,0,,,82,77
10272,note_on,,,,,32,0,8,,,,,1,,,79,45
10272,note_on,,,,,32,0,10,,,,,3,,,70,45
10308,note_off,,,,,1092,0,9,,,,,2,,,74,100
10348,note_off,,,,,76,0,7,,,,,0,,,82,100
10348,note_off,,,,,76,0,10,,,,,3,,,70,100
10348,note_off,,,,,76,0,8,,,,,1,,,79,100
10368,note_on,,,,,20,0,10,,,,,3,,,69,45
10368,note_on,,,,,20,0,8,,,,,1,,,76,45
10368,note_on,,,,,60,0,9,,,,,2,,,73,45
10368,note_on,,,,,20,0,7,,,,,0,,,74,79
10556,note_off,,,,,188,0,7,,,,,0,,,74,100
10560,note_on,,,,,4,0,7,,,,,0,,,73,75
10624,note_off,,,,,256,0,10,,,,,3,,,69,100
10624,note_off,,,,,256,0,8,,,,,1,,,76,100
10624,note_off,,,,,256,0,9,,,,,2,,,73,100
10656,note_on,,,,,32,0,9,,,,,2,,,73,45
10656,note_on,,,,,32,0,8,,,,,1,,,76,45
10656,note_on,,,,,32,0,10,,,,,3,,,69,45
10732,note_off,,,,,76,0,10,,,,,3,,,69,100
10732,note_off,,,,,76,0,9,,,,,2,,,73,100
10732,note_off,,,,,76,0,8,,,,,1,,,76,100
10752,note_on,,,,,20,0,9,,,,,2,,,73,45
10752,note_on,,,,,20,0,8,,,,,1,,,76,45
10752,note_on,,,,,20,0,10,,,,,3,,,69,45
11008,note_off,,,,,256,0,9,,,,,2,,,73,100
11008,note_off,,,,,256,0,10,,,,,3,,,69,100
11008,note_off,,,,,256,0,8,,,,,1,,,76,100
11040,note_on,,,,,32,0,8,,,,,1,,,76,45
11040,note_on,,,,,32,0,10,,,,,3,,,69,45
11040,note_on,,,,,32,0,9,,,,,2,,,73,45
11116,note_off,,,,,76,0,8,,,,,1,,,76,100
11116,note_off,,,,,76,0,10,,,,,3,,,69,100
11116,note_off,,,,,76,0,9,,,,,2,,,73,100
11136,note_on,,,,,20,0,9,,,,,2,,,73,45
11136,note_on,,,,,20,0,8,,,,,1,,,76,45
11136,note_on,,,,,20,0,10,,,,,3,,,69,45
11392,note_off,,,,,256,0,9,,,,,2,,,73,100
11392,note_off,,,,,256,0,8,,,,,1,,,76,100
11392,note_off,,,,,256,0,10,,,,,3,,,69,100
11424,note_on,,,,,32,0,8,,,,,1,,,76,45
11424,note_off,,,,,864,0,7,,,,,0,,,73,100
11424,note_on,,,,,32,0,10,,,,,3,,,69,45
11424,note_on,,,,,32,0,9,,,,,2,,,73,45
11500,note_off,,,,,76,0,9,,,,,2,,,73,100
11500,note_off,,,,,76,0,10,,,,,3,,,69,100
11500,note_off,,,,,76,0,8,,,,,1,,,76,100
11520,note_on,,,,,20,0,9,,,,,2,,,72,45
11520,note_on,,,,,20,0,8,,,,,1,,,76,45
11520,note_on,,,,,20,0,10,,,,,3,,,69,45
11776,note_off,,,,,256,0,9,,,,,2,,,72,100
11776,note_off,,,,,256,0,10,,,,,3,,,69,100
11776,note_off,,,,,256,0,8,,,,,1,,,76,100
11808,note_on,,,,,32,0,10,,,,,3,,,69,45
11808,note_on,,,,,32,0,9,,,,,2,,,72,45
11808,note_on,,,,,32,0,8,,,,,1,,,76,45
11884,note_off,,,,,76,0,9,,,,,2,,,72,100
11884,note_off,,,,,76,0,8,,,,,1,,,76,100
11884,note_off,,,,,76,0,10,,,,,3,,,69,100
11904,note_on,,,,,480,0,7,,,,,0,,,81,75
11904,note_on,,,,,20,0,10,,,,,3,,,69,45
11904,note_on,,,,,20,0,9,,,,,2,,,72,45
11904,note_on,,,,,20,0,8,,,,,1,,,76,45
12160,note_off,,,,,256,0,9,,,,,2,,,72,100
12160,note_off,,,,,256,0,10,,,,,3,,,69,100
12160,note_off,,,,,256,0,8,,,,,1,,,76,100
12192,note_on,,,,,32,0,9,,,,,2,,,72,45
12192,note_on,,,,,32,0,8,,,,,1,,,76,45
12192,note_on,,,,,32,0,10,,,,,3,,,69,45
12268,note_off,,,,,76,0,8,,,,,1,,,76,100
12268,note_off,,,,,76,0,9,,,,,2,,,72,100
12268,note_off,,,,,76,0,10,,,,,3,,,69,100
12288,note_on,,,,,20,0,9,,,,,2,,,72,45
12288,note_on,,,,,20,0,8,,,,,1,,,76,45
12288,note_on,,,,,20,0,10,,,,,3,,,69,45
12544,note_off,,,,,256,0,10,,,,,3,,,69,100
12544,note_off,,,,,256,0,8,,,,,1,,,76,100
12544,note_off,,,,,256,0,9,,,,,2,,,72,100
12576,note_on,,,,,32,0,8,,,,,1,,,76,45
12576,note_on,,,,,32,0,9,,,,,2,,,72,45
12576,note_on,,,,,32,0,10,,,,,3,,,69,45
12652,note_off,,,,,76,0,10,,,,,3,,,69,100
12652,note_off,,,,,76,0,8,,,,,1,,,76,100
12652,note_off,,,,,76,0,9,,,,,2,,,72,100
12672,note_on,,,,,20,0,9,,,,,2,,,72,45
12672,note_on,,,,,20,0,8,,,,,1,,,76,45
12672,note_on,,,,,20,0,10,,,,,3,,,69,45
12928,note_off,,,,,256,0,9,,,,,2,,,72,100
12960,note_on,,,,,32,0,9,,,,,2,,,72,45
13016,note_off,,,,,1112,0,7,,,,,0,,,81,100
13036,note_off,,,,,76,0,9,,,,,2,,,72,100
13056,note_on,,,,,40,0,7,,,,,0,,,69,70
13056,note_on,,,,,20,0,9,,,,,2,,,72,45
13312,note_off,,,,,256,0,7,,,,,0,,,69,100
13312,note_off,,,,,256,0,9,,,,,2,,,72,100
13344,note_on,,,,,32,0,7,,,,,0,,,71,72
13344,note_on,,,,,32,0,9,,,,,2,,,72,45
13420,note_off,,,,,76,0,7,,,,,0,,,71,100
13420,note_off,,,,,76,0,9,,,,,2,,,72,100
13440,note_on,,,,,20,0,9,,,,,2,,,72,45
13440,note_on,,,,,20,0,7,,,,,0,,,72,73
13696,note_off,,,,,256,0,7,,,,,0,,,72,100
13696,note_off,,,,,256,0,9,,,,,2,,,72,100
13728,note_on,,,,,32,0,9,,,,,2,,,72,45
13728,note_on,,,,,32,0,7,,,,,0,,,74,76
13764,note_off,,,,,1092,0,10,,,,,3,,,69,100
13764,note_off,,,,,1092,0,8,,,,,1,,,76,100
13804,note_off,,,,,76,0,9,,,,,2,,,72,100
13804,note_off,,,,,76,0,7,,,,,0,,,74,100
13824,note_on,,,,,20,0,7,,,,,0,,,72,80
13824,note_on,,,,,60,0,10,,,,,3,,,68,45
13824,note_on,,,,,60,0,8,,,,,1,,,76,45
13824,note_on,,,,,20,0,9,,,,,2,,,71,45
13824,note_on,,,,,0,0,8,,,,,1,,,74,45
14012,note_off,,,,,188,0,7,,,,,0,,,72,100
14016,note_on,,,,,4,0,7,,,,,0,,,71,78
14080,note_off,,,,,256,0,10,,,,,3,,,68,100
14080,note_off,,,,,0,0,8,,,,,1,,,74,100
14080,note_off,,,,,256,0,8,,,,,1,,,76,100
14112,note_on,,,,,0,0,8,,,,,1,,,74,45
14112,note_on,,,,,32,0,8,,,,,1,,,76,45
14112,note_on,,,,,32,0,10,,,,,3,,,68,45
14168,note_off,,,,,152,0,7,,,,,0,,,71,100
14188,note_off,,,,,76,0,10,,,,,3,,,68,100
14188,note_off,,,,,0,0,8,,,,,1,,,74,100
14188,note_off,,,,,76,0,8,,,,,1,,,76,100
14208,note_on,,,,,20,0,10,,,,,3,,,68,45
14208,note_on,,,,,20,0,8,,,,,1,,,76,45
14208,note_on,,,,,0,0,8,,,,,1,,,74,45
14208,note_on,,,,,40,0,7,,,,,0,,,83,81
14464,note_off,,,,,256,0,10,,,,,3,,,68,100
14464,note_off,,,,,0,0,8,,,,,1,,,74,100
14464,note_off,,,,,256,0,8,,,,,1,,,76,100
14496,note_on,,,,,0,0,8,,,,,1,,,74,45
14496,note_on,,,,,32,0,8,,,,,1,,,76,45
14496,note_on,,,,,32,0,10,,,,,3,,,68,45
14572,note_off,,,,,76,0,10,,,,,3,,,68,100
14572,note_off,,,,,0,0,8,,,,,1,,,74,100
14572,note_off,,,,,76,0,8,,,,,1,,,76,100
14592,note_on,,,,,20,0,10,,,,,3,,,68,45
14592,note_on,,,,,0,0,8,,,,,1,,,74,45
14592,note_on,,,,,20,0,8,,,,,1,,,76,45
14848,note_off,,,,,0,0,8,,,,,1,,,74,100
14848,note_off,,,,,256,0,10,,,,,3,,,68,100
14848,note_off,,,,,256,0,8,,,,,1,,,76,100
14880,note_on,,,,,32,0,8,,,,,1,,,76,45
14880,note_on,,,,,0,0,8,,,,,1,,,74,45
14880,note_on,,,,,32,0,10,,,,,3,,,68,45
14916,note_off,,,,,1092,0,9,,,,,2,,,71,100
14956,note_off,,,,,76,0,8,,,,,1,,,76,100
14956,note_off,,,,,0,0,8,,,,,1,,,74,100
14956,note_off,,,,,76,0,10,,,,,3,,,68,100
14976,note_on,,,,,20,0,10,,,,,3,,,68,45
14976,note_on,,,,,20,0,8,,,,,1,,,74,45
14976,note_on,,,,,60,0,9,,,,,2,,,71,45
14976,note_on,,,,,0,0,8,,,,,1,,,76,45
15232,note_off,,,,,256,0,9,,,,,2,,,71,100
15232,note_off,,,,,1024,0,7,,,,,0,,,83,64
15264,note_on,,,,,32,0,9,,,,,2,,,71,45
15264,note_on,,,,,32,0,7,,,,,0,,,81,79
15340,note_off,,,,,76,0,9,,,,,2,,,71,100
15340,note_off,,,,,76,0,7,,,,,0,,,81,100
15360,note_on,,,,,20,0,9,,,,,2,,,71,45
15360,note_on,,,,,20,0,7,,,,,0,,,80,79
15616,note_off,,,,,256,0,9,,,,,2,,,71,100
15616,note_off,,,,,256,0,7,,,,,0,,,80,100
15648,note_on,,,,,32,0,9,,,,,2,,,71,45
15648,note_on,,,,,32,0,7,,,,,0,,,77,77
15724,note_off,,,,,76,0,9,,,,,2,,,71,100
15724,note_off,,,,,76,0,7,,,,,0,,,77,100
15744,note_on,,,,,20,0,7,,,,,0,,,76,76
15744,note_on,,,,,20,0,9,,,,,2,,,71,45
16000,note_off,,,,,256,0,7,,,,,0,,,76,100
16000,note_off,,,,,256,0,9,,,,,2,,,71,100
16032,note_on,,,,,32,0,7,,,,,0,,,74,74
16032,note_on,,,,,32,0,9,,,,,2,,,71,45
16068,note_off,,,,,1092,0,10,,,,,3,,,68,100
16068,note_off,,,,,0,0,8,,,,,1,,,76,100
16068,note_off,,,,,1092,0,8,,,,,1,,,74,100
16108,note_off,,,,,76,0,7,,,,,0,,,74,100
16108,note_off,,,,,76,0,9,,,,,2,,,71,100
16128,note_on,,,,,20,0,7,,,,,0,,,74,78
16128,note_on,,,,,20,0,9,,,,,2,,,72,45
16128,note_on,,,,,60,0,8,,,,,1,,,76,45
16128,note_on,,,,,60,0,10,,,,,3,,,69,45
16220,note_off,,,,,92,0,7,,,,,0,,,74,100
16224,note_on,,,,,4,0,7,,,,,0,,,72,78
16268,note_off,,,,,44,0,7,,,,,0,,,72,100
16272,note_on,,,,,4,0,7,,,,,0,,,74,77
16316,note_off,,,,,44,0,7,,,,,0,,,74,100
16320,note_on,,,,,4,0,7,,,,,0,,,72,77
16340,note_off,,,,,20,0,7,,,,,0,,,72,100
16344,note_on,,,,,4,0,7,,,,,0,,,74,76
16364,note_off,,,,,20,0,7,,,,,0,,,74,100
16368,note_on,,,,,4,0,7,,,,,0,,,72,76
16384,note_off,,,,,256,0,10,,,,,3,,,69,100
16384,note_off,,,,,256,0,8,,,,,1,,,76,100
16384,note_off,,,,,256,0,9,,,,,2,,,72,100
16388,note_off,,,,,20,0,7,,,,,0,,,72,100
16392,note_on,,,,,4,0,7,,,,,0,,,74,76
16412,note_off,,,,,20,0,7,,,,,0,,,74,100
16416,note_on,,,,,32,0,8,,,,,1,,,76,45
16416,note_on,,,,,4,0,7,,,,,0,,,72,76
16416,note_on,,,,,32,0,9,,,,,2,,,72,45
16416,note_on,,,,,32,0,10,,,,,3,,,69,45
16436,note_off,,,,,20,0,7,,,,,0,,,72,100
16440,note_on,,,,,4,0,7,,,,,0,,,74,75
16460,note_off,,,,,20,0,7,,,,,0,,,74,100
16464,note_on,,,,,4,0,7,,,,,0,,,72,75
16484,note_off,,,,,20,0,7,,,,,0,,,72,100
16488,note_on,,,,,4,0,7,,,,,0,,,74,75
16492,note_off,,,,,76,0,8,,,,,1,,,76,100
16492,note_off,,,,,76,0,9,,,,,2,,,72,100
16492,note_off,,,,,76,0,10,,,,,3,,,69,100
16508,note_off,,,,,20,0,7,,,,,0,,,74,100
16512,note_on,,,,,4,0,7,,,,,0,,,72,75
16512,note_on,,,,,20,0,9,,,,,2,,,72,45
16512,note_on,,,,,20,0,10,,,,,3,,,69,45
16512,note_on,,,,,20,0,8,,,,,1,,,76,45
16664,note_off,,,,,152,0,7,,,,,0,,,72,100
16704,note_on,,,,,40,0,7,,,,,0,,,71,73
16768,note_off,,,,,256,0,8,,,,,1,,,76,100
16768,note_off,,,,,256,0,9,,,,,2,,,72,100
16768,note_off,,,,,256,0,10,,,,,3,,,69,100
16800,note_on,,,,,32,0,10,,,,,3,,,69,45
16800,note_on,,,,,32,0,9,,,,,2,,,72,45
16800,note_on,,,,,32,0,8,,,,,1,,,76,45
16856,note_off,,,,,152,0,7,,,,,0,,,71,100
16876,note_off,,,,,76,0,9,,,,,2,,,72,100
16876,note_off,,,,,76,0,8,,,,,1,,,76,100
16876,note_off,,,,,76,0,10,,,,,3,,,69,100
16896,note_on,,,,,40,0,7,,,,,0,,,69,71
16896,note_on,,,,,20,0,9,,,,,2,,,72,45
16896,note_on,,,,,20,0,8,,,,,1,,,76,45
16896,note_on,,,,,20,0,10,,,,,3,,,69,45
17152,note_off,,,,,256,0,10,,,,,3,,,69,100
17152,note_off,,,,,256,0,8,,,,,1,,,76,100
17152,note_off,,,,,256,0,9,,,,,2,,,72,100
17184,note_on,,,,,32,0,10,,,,,3,,,69,45
17184,note_on,,,,,32,0,8,,,,,1,,,76,45
17184,note_on,,,,,32,0,9,,,,,2,,,72,45
17240,note_off,,,,,344,0,7,,,,,0,,,69,100
17260,note_off,,,,,76,0,9,,,,,2,,,72,100
17260,note_off,,,,,76,0,8,,,,,1,,,76,100
17260,note_off,,,,,76,0,10,,,,,3,,,69,100
17280,note_on,,,,,20,0,8,,,,,1,,,76,45
17280,note_on,,,,,20,0,9,,,,,2,,,70,45
17280,note_on,,,,,20,0,10,,,,,3,,,69,45
17664,note_on,,,,,424,0,7,,,,,0,,,76,75
18008,note_off,,,,,344,0,7,,,,,0,,,76,100
18048,note_on,,,,,40,0,7,,,,,0,,,79,77
18304,note_off,,,,,256,0,7,,,,,0,,,79,100
18336,note_on,,,,,32,0,7,,,,,0,,,82,77
18372,note_off,,,,,1092,0,10,,,,,3,,,69,100
18372,note_off,,,,,1092,0,8,,,,,1,,,76,100
18412,note_off,,,,,76,0,7,,,,,0,,,82,100
18432,note_on,,,,,60,0,10,,,,,3,,,67,45
18432,note_on,,,,,60,0,8,,,,,1,,,76,45
18432,note_on,,,,,20,0,7,,,,,0,,,74,79
18620,note_off,,,,,188,0,7,,,,,0,,,74,100
18624,note_on,,,,,4,0,7,,,,,0,,,73,75
18688,note_off,,,,,256,0,8,,,,,1,,,76,100
18688,note_off,,,,,256,0,10,,,,,3,,,67,100
18720,note_on,,,,,32,0,8,,,,,1,,,76,45
18720,note_on,,,,,32,0,10,,,,,3,,,67,45
18796,note_off,,,,,76,0,10,,,,,3,,,67,100
18796,note_off,,,,,76,0,8,,,,,1,,,76,100
18816,note_on,,,,,20,0,8,,,,,1,,,76,45
18816,control_change,,,,,192,0,7,,,7,98,0,,,,
18816,set_tempo,,,,,14208,1,0,,1333333,,,,,,,
18816,note_on,,,,,20,0,10,,,,,3,,,67,45
18912,control_change,,,,,96,0,7,,,7,96,0,,,,
19008,set_tempo,,,,,192,1,0,,1363636,,,,,,,
19008,control_change,,,,,96,0,7,,,7,94,0,,,,
19072,note_off,,,,,256,0,10,,,,,3,,,67,100
19072,note_off,,,,,256,0,8,,,,,1,,,76,100
19104,note_on,,,,,32,0,8,,,,,1,,,76,45
19104,control_change,,,,,96,0,7,,,7,92,0,,,,
19104,note_on,,,,,32,0,10,,,,,3,,,67,45
19180,note_off,,,,,76,0,8,,,,,1,,,76,100
19180,note_off,,,,,76,0,10,,,,,3,,,67,100
19200,note_on,,,,,20,0,8,,,,,1,,,76,45
19200,note_on,,,,,20,0,10,,,,,3,,,67,45
19200,control_change,,,,,96,0,7,,,7,90,0,,,,
19200,set_tempo,,,,,192,1,0,,1395348,,,,,,,
19296,control_change,,,,,96,0,7,,,7,88,0,,,,
19392,control_change,,,,,96,0,7,,,7,86,0,,,,
19392,set_tempo,,,,,192,1,0,,1428571,,,,,,,
19456,note_off,,,,,256,0,8,,,,,1,,,76,100
19456,note_off,,,,,256,0,10,,,,,3,,,67,100
19488,note_on,,,,,32,0,8,,,,,1,,,76,45
19488,note_off,,,,,96,0,7,,,,,0,,,73,100
19488,control_change,,,,,0,0,7,,,7,84,0,,,,
19488,note_on,,,,,32,0,10,,,,,3,,,67,45
19524,note_off,,,,,2244,0,9,,,,,2,,,70,100
19564,note_off,,,,,76,0,8,,,,,1,,,76,100
19564,note_off,,,,,76,0,10,,,,,3,,,67,100
19580,control_change,,,,,92,0,7,,,7,100,0,,,,
19584,note_on,,,,,20,0,10,,,,,3,,,67,45
19584,note_on,,,,,60,0,9,,,,,2,,,69,45
19584,note_on,,,,,4,0,7,,,,,0,,,69,70
19584,set_tempo,,,,,192,1,0,,1333333,,,,,,,
19584,note_on,,,,,20,0,8,,,,,1,,,76,45
19676,note_off,,,,,92,0,7,,,,,0,,,69,100
19680,note_on,,,,,4,0,7,,,,,0,,,73,71
19772,note_off,,,,,92,0,7,,,,,0,,,73,100
19776,note_on,,,,,4,0,7,,,,,0,,,71,72
19840,note_off,,,,,256,0,9,,,,,2,,,69,100
19868,note_off,,,,,92,0,7,,,,,0,,,71,100
19872,note_on,,,,,4,0,7,,,,,0,,,69,74
19872,note_on,,,,,32,0,9,,,,,2,,,69,45
19948,note_off,,,,,76,0,7,,,,,0,,,69,100
19948,note_off,,,,,76,0,9,,,,,2,,,69,100
19968,note_on,,,,,20,0,9,,,,,2,,,69,45
19968,note_on,,,,,20,0,7,,,,,0,,,76,75
20060,note_off,,,,,92,0,7,,,,,0,,,76,100
20064,note_on,,,,,4,0,7,,,,,0,,,79,76
20156,note_off,,,,,92,0,7,,,,,0,,,79,100
20160,note_on,,,,,4,0,7,,,,,0,,,77,78
20224,note_off,,,,,256,0,9,,,,,2,,,69,100
20252,note_off,,,,,92,0,7,,,,,0,,,77,100
20256,note_on,,,,,4,0,7,,,,,0,,,76,79
20256,note_on,,,,,32,0,9,,,,,2,,,69,45
20332,note_off,,,,,76,0,9,,,,,2,,,69,100
20332,note_off,,,,,76,0,7,,,,,0,,,76,100
20352,note_on,,,,,20,0,9,,,,,2,,,69,45
20352,note_on,,,,,20,0,7,,,,,0,,,81,80
20504,note_off,,,,,152,0,7,,,,,0,,,81,100
20544,note_on,,,,,40,0,7,,,,,0,,,73,76
20608,note_off,,,,,256,0,9,,,,,2,,,69,100
20640,note_on,,,,,32,0,9,,,,,2,,,69,45
20676,note_off,,,,,1092,0,10,,,,,3,,,67,100
20676,note_off,,,,,1092,0,8,,,,,1,,,76,100
20696,note_off,,,,,152,0,7,,,,,0,,,73,100
20716,note_off,,,,,76,0,9,,,,,2,,,69,100
20736,note_on,,,,,40,0,7,,,,,0,,,73,74
20736,note_on,,,,,20,0,9,,,,,2,,,69,45
20736,note_on,,,,,60,0,8,,,,,1,,,74,45
20736,note_on,,,,,60,0,10,,,,,3,,,65,45
20876,note_off,,,,,140,0,7,,,,,0,,,73,100
20880,note_on,,,,,4,0,7,,,,,0,,,74,67
20900,note_off,,,,,20,0,7,,,,,0,,,74,100
20904,note_on,,,,,4,0,7,,,,,0,,,73,66
20924,note_off,,,,,20,0,7,,,,,0,,,73,100
20928,note_on,,,,,4,0,7,,,,,0,,,74,66
20992,note_off,,,,,256,0,8,,,,,1,,,74,100
20992,note_off,,,,,256,0,10,,,,,3,,,65,100
21024,note_on,,,,,32,0,8,,,,,1,,,74,45
21024,note_on,,,,,32,0,10,,,,,3,,,65,45
21100,note_off,,,,,76,0,8,,,,,1,,,74,100
21100,note_off,,,,,76,0,10,,,,,3,,,65,100
21120,note_on,,,,,20,0,10,,,,,3,,,65,45
21120,note_on,,,,,20,0,8,,,,,1,,,74,45
21376,note_off,,,,,256,0,8,,,,,1,,,74,100
21376,note_off,,,,,256,0,10,,,,,3,,,65,100
21408,note_on,,,,,32,0,8,,,,,1,,,74,45
21408,note_on,,,,,32,0,10,,,,,3,,,65,45
21484,note_off,,,,,76,0,10,,,,,3,,,65,100
21484,note_off,,,,,76,0,8,,,,,1,,,74,100
21504,note_on,,,,,20,0,8,,,,,1,,,74,45
21504,note_on,,,,,20,0,10,,,,,3,,,65,45
21760,note_off,,,,,256,0,10,,,,,3,,,65,100
21760,note_off,,,,,256,0,8,,,,,1,,,74,100
21788,note_off,,,,,860,0,7,,,,,0,,,74,100
21792,note_on,,,,,32,0,8,,,,,1,,,74,45
21792,note_on,,,,,32,0,10,,,,,3,,,65,45
21828,note_off,,,,,1092,0,9,,,,,2,,,69,100
21868,note_off,,,,,76,0,8,,,,,1,,,74,100
21868,note_off,,,,,76,0,10,,,,,3,,,65,100
21888,note_on,,,,,20,0,8,,,,,1,,,74,45
21888,note_on,,,,,100,0,7,,,,,0,,,69,73
21888,note_on,,,,,20,0,10,,,,,3,,,65,45
21888,note_on,,,,,60,0,9,,,,,2,,,69,45
22144,note_off,,,,,256,0,9,,,,,2,,,69,100
22176,note_on,,,,,32,0,9,,,,,2,,,69,45
22232,note_off,,,,,344,0,7,,,,,0,,,69,100
22252,note_off,,,,,76,0,9,,,,,2,,,69,100
22272,set_tempo,,,,,2688,1,0,,1333333,,,,,,,
22272,note_on,,,,,40,0,7,,,,,0,,,74,76
22272,note_on,,,,,20,0,9,,,,,2,,,69,45
22528,set_tempo,,,,,256,1,0,,1363636,,,,,,,
22528,note_off,,,,,256,0,9,,,,,2,,,69,100
22560,note_on,,,,,32,0,9,,,,,2,,,69,45
22616,note_off,,,,,344,0,7,,,,,0,,,74,100
22636,note_off,,,,,76,0,9,,,,,2,,,69,100
22656,note_on,,,,,40,0,7,,,,,0,,,77,79
22656,note_on,,,,,20,0,9,,,,,2,,,69,45
22784,set_tempo,,,,,256,1,0,,1395348,,,,,,,
22912,note_off,,,,,256,0,9,,,,,2,,,69,100
22944,note_on,,,,,32,0,9,,,,,2,,,69,45
22980,note_off,,,,,1092,0,8,,,,,1,,,74,100
22980,note_off,,,,,1092,0,10,,,,,3,,,65,100
23000,note_off,,,,,344,0,7,,,,,0,,,77,100
23020,note_off,,,,,76,0,9,,,,,2,,,69,100
23040,note_on,,,,,20,0,9,,,,,2,,,74,45
23040,note_on,,,,,60,0,10,,,,,3,,,59,45
23040,set_tempo,,,,,256,1,0,,1333333,,,,,,,
23040,note_on,,,,,60,0,8,,,,,1,,,77,45
23040,note_on,,,,,40,0,7,,,,,0,,,80,82
23296,note_off,,,,,256,0,8,,,,,1,,,77,100
23296,note_off,,,,,256,0,10,,,,,3,,,59,100
23328,note_on,,,,,32,0,8,,,,,1,,,77,45
23328,note_on,,,,,32,0,10,,,,,3,,,59,45
23384,note_off,,,,,344,0,7,,,,,0,,,80,100
23404,note_off,,,,,76,0,8,,,,,1,,,77,100
23404,note_off,,,,,76,0,10,,,,,3,,,59,100
23424,note_on,,,,,20,0,8,,,,,1,,,77,45
23424,note_on,,,,,40,0,7,,,,,0,,,79,80
23424,note_on,,,,,20,0,10,,,,,3,,,59,45
23680,note_off,,,,,256,0,7,,,,,0,,,79,100
23680,note_off,,,,,256,0,8,,,,,1,,,77,100
23680,note_off,,,,,256,0,10,,,,,3,,,59,100
23712,note_on,,,,,32,0,8,,,,,1,,,77,45
23712,note_on,,,,,32,0,7,,,,,0,,,77,78
23712,note_on,,,,,32,0,10,,,,,3,,,59,45
23788,note_off,,,,,76,0,10,,,,,3,,,59,100
23788,note_off,,,,,76,0,8,,,,,1,,,77,100
23788,note_off,,,,,76,0,7,,,,,0,,,77,100
23808,note_on,,,,,20,0,10,,,,,3,,,59,45
23808,note_on,,,,,20,0,7,,,,,0,,,76,78
23808,note_on,,,,,20,0,8,,,,,1,,,77,45
24064,note_off,,,,,256,0,7,,,,,0,,,76,100
24064,note_off,,,,,256,0,8,,,,,1,,,77,100
24064,note_off,,,,,256,0,10,,,,,3,,,59,100
24096,note_on,,,,,32,0,7,,,,,0,,,74,75
24096,note_on,,,,,32,0,10,,,,,3,,,59,45
24096,note_on,,,,,32,0,8,,,,,1,,,77,45
24132,note_off,,,,,1092,0,9,,,,,2,,,74,100
24172,note_off,,,,,76,0,10,,,,,3,,,59,100
24172,note_off,,,,,76,0,7,,,,,0,,,74,100
24172,note_off,,,,,76,0,8,,,,,1,,,77,100
24192,note_on,,,,,20,0,10,,,,,3,,,58,45
24192,note_on,,,,,20,0,7,,,,,0,,,76,75
24192,note_on,,,,,20,0,8,,,,,1,,,79,45
24192,note_on,,,,,60,0,9,,,,,2,,,72,45
24448,note_off,,,,,256,0,9,,,,,2,,,72,100
24480,note_on,,,,,32,0,9,,,,,2,,,72,45
24536,note_off,,,,,344,0,7,,,,,0,,,76,100
24556,note_off,,,,,76,0,9,,,,,2,,,72,100
24576,note_on,,,,,40,0,7,,,,,0,,,84,75
24576,note_on,,,,,20,0,9,,,,,2,,,76,45
24832,note_off,,,,,256,0,9,,,,,2,,,76,100
24864,note_on,,,,,32,0,9,,,,,2,,,76,45
24940,note_off,,,,,76,0,9,,,,,2,,,76,100
24960,note_on,,,,,20,0,9,,,,,2,,,76,45
25216,note_off,,,,,256,0,9,,,,,2,,,76,100
25248,note_on,,,,,32,0,9,,,,,2,,,76,45
25284,note_off,,,,,1092,0,10,,,,,3,,,58,100
25284,note_off,,,,,1092,0,8,,,,,1,,,79,100
25324,note_off,,,,,76,0,9,,,,,2,,,76,100
25344,note_on,,,,,60,0,8,,,,,1,,,79,45
25344,note_on,,,,,60,0,10,,,,,3,,,58,45
25344,note_on,,,,,20,0,9,,,,,2,,,76,45
25600,note_off,,,,,256,0,10,,,,,3,,,58,100
25600,note_off,,,,,256,0,8,,,,,1,,,79,100
25600,note_off,,,,,1024,0,7,,,,,0,,,84,100
25632,note_on,,,,,32,0,7,,,,,0,,,82,75
25632,note_on,,,,,32,0,10,,,,,3,,,58,45
25632,note_on,,,,,32,0,8,,,,,1,,,79,45
25708,note_off,,,,,76,0,10,,,,,3,,,58,100
25708,note_off,,,,,76,0,8,,,,,1,,,79,100
25724,note_off,,,,,92,0,7,,,,,0,,,82,100
25728,note_on,,,,,20,0,8,,,,,1,,,79,45
25728,note_on,,,,,4,0,7,,,,,0,,,81,75
25728,note_on,,,,,20,0,10,,,,,3,,,58,45
25984,note_off,,,,,256,0,10,,,,,3,,,58,100
25984,note_off,,,,,256,0,7,,,,,0,,,81,100
25984,note_off,,,,,256,0,8,,,,,1,,,79,100
26016,note_on,,,,,32,0,7,,,,,0,,,79,77
26016,note_on,,,,,32,0,8,,,,,1,,,79,45
26016,note_on,,,,,32,0,10,,,,,3,,,58,45
26092,note_off,,,,,76,0,8,,,,,1,,,79,100
26092,note_off,,,,,76,0,10,,,,,3,,,58,100
26108,note_off,,,,,92,0,7,,,,,0,,,79,100
26112,note_on,,,,,20,0,10,,,,,3,,,58,45
26112,note_on,,,,,20,0,8,,,,,1,,,79,45
26112,note_on,,,,,4,0,7,,,,,0,,,77,77
26300,note_off,,,,,188,0,7,,,,,0,,,77,100
26304,note_on,,,,,4,0,7,,,,,0,,,76,79
26368,note_off,,,,,256,0,10,,,,,3,,,58,100
26368,note_off,,,,,256,0,8,,,,,1,,,79,100
26396,note_off,,,,,92,0,7,,,,,0,,,76,100
26400,note_on,,,,,4,0,7,,,,,0,,,78,79
26400,note_on,,,,,32,0,10,,,,,3,,,58,45
26400,note_on,,,,,32,0,8,,,,,1,,,79,45
26436,note_off,,,,,1092,0,9,,,,,2,,,76,100
26476,note_off,,,,,76,0,7,,,,,0,,,78,100
26476,note_off,,,,,76,0,10,,,,,3,,,58,100
26476,note_off,,,,,76,0,8,,,,,1,,,79,100
26496,note_on,,,,,60,0,9,,,,,2,,,72,45
26496,note_on,,,,,20,0,10,,,,,3,,,57,45
26496,note_on,,,,,20,0,8,,,,,1,,,78,45
26496,note_on,,,,,20,0,7,,,,,0,,,78,80
26540,note_off,,,,,44,0,7,,,,,0,,,78,100
26544,note_on,,,,,4,0,7,,,,,0,,,79,81
26564,note_off,,,,,20,0,7,,,,,0,,,79,100
26568,note_on,,,,,4,0,7,,,,,0,,,78,81
26588,note_off,,,,,20,0,7,,,,,0,,,78,100
26592,note_on,,,,,4,0,7,,,,,0,,,79,82
26612,note_off,,,,,20,0,7,,,,,0,,,79,100
26616,note_on,,,,,4,0,7,,,,,0,,,78,83
26636,note_off,,,,,20,0,7,,,,,0,,,78,100
26640,note_on,,,,,4,0,7,,,,,0,,,79,83
26660,note_off,,,,,20,0,7,,,,,0,,,79,100
26664,note_on,,,,,4,0,7,,,,,0,,,78,84
26752,note_off,,,,,256,0,9,,,,,2,,,72,100
26776,note_off,,,,,112,0,7,,,,,0,,,78,100
26784,note_on,,,,,8,0,7,,,,,0,,,86,86
26784,note_on,,,,,32,0,9,,,,,2,,,72,45
26860,note_off,,,,,76,0,9,,,,,2,,,72,100
26876,note_off,,,,,92,0,7,,,,,0,,,86,100
26880,note_on,,,,,0,0,7,,,,,0,,,86,87
26880,control_change,,,,,4,0,7,,,7,98,0,,,,
26880,note_on,,,,,20,0,9,,,,,2,,,72,45
26976,control_change,,,,,96,0,7,,,7,96,0,,,,
27072,control_change,,,,,96,0,7,,,7,94,0,,,,
27136,note_off,,,,,256,0,9,,,,,2,,,72,100
27168,control_change,,,,,96,0,7,,,7,92,0,,,,
27168,note_on,,,,,32,0,9,,,,,2,,,72,45
27244,note_off,,,,,76,0,9,,,,,2,,,72,100
27264,control_change,,,,,96,0,7,,,7,90,0,,,,
27264,note_on,,,,,20,0,9,,,,,2,,,72,45
27360,control_change,,,,,96,0,7,,,7,88,0,,,,
27456,control_change,,,,,96,0,7,,,7,86,0,,,,
27520,note_off,,,,,256,0,9,,,,,2,,,72,100
27552,control_change,,,,,96,0,7,,,7,84,0,,,,
27552,note_on,,,,,32,0,9,,,,,2,,,72,45
27588,note_off,,,,,1092,0,10,,,,,3,,,57,100
27588,note_off,,,,,1092,0,8,,,,,1,,,78,100
27628,note_off,,,,,76,0,9,,,,,2,,,72,100
27648,control_change,,,,,96,0,7,,,7,82,0,,,,
27648,note_on,,,,,20,0,9,,,,,2,,,72,45
27648,note_on,,,,,60,0,10,,,,,3,,,57,45
27648,note_on,,,,,60,0,8,,,,,1,,,78,45
27904,note_off,,,,,256,0,7,,,,,0,,,86,100
27904,note_off,,,,,256,0,10,,,,,3,,,57,100
27904,note_off,,,,,256,0,8,,,,,1,,,78,100
27932,control_change,,,,,28,0,7,,,7,100,0,,,,
27936,note_on,,,,,32,0,10,,,,,3,,,57,45
27936,note_on,,,,,32,0,8,,,,,1,,,78,45
27936,note_on,,,,,4,0,7,,,,,0,,,84,70
28012,note_off,,,,,76,0,8,,,,,1,,,78,100
28012,note_off,,,,,76,0,10,,,,,3,,,57,100
28028,note_off,,,,,92,0,7,,,,,0,,,84,100
28032,note_on,,,,,4,0,7,,,,,0,,,82,70
28032,note_on,,,,,20,0,8,,,,,1,,,78,45
28032,note_on,,,,,20,0,10,,,,,3,,,57,45
28288,note_off,,,,,256,0,8,,,,,1,,,78,100
28288,note_off,,,,,256,0,10,,,,,3,,,57,100
28288,note_off,,,,,256,0,7,,,,,0,,,82,100
28320,note_on,,,,,32,0,8,,,,,1,,,78,45
28320,note_on,,,,,32,0,10,,,,,3,,,57,45
28320,note_on,,,,,32,0,7,,,,,0,,,81,72
28396,note_off,,,,,76,0,8,,,,,1,,,78,100
28396,note_off,,,,,76,0,10,,,,,3,,,57,100
28412,note_off,,,,,92,0,7,,,,,0,,,81,100
28416,note_on,,,,,20,0,8,,,,,1,,,78,45
28416,note_on,,,,,20,0,10,,,,,3,,,57,45
28416,note_on,,,,,4,0,7,,,,,0,,,79,73
28604,note_off,,,,,188,0,7,,,,,0,,,79,100
28608,note_on,,,,,4,0,7,,,,,0,,,78,74
28672,note_off,,,,,256,0,8,,,,,1,,,78,100
28672,note_off,,,,,256,0,10,,,,,3,,,57,100
28700,note_off,,,,,92,0,7,,,,,0,,,78,100
28704,note_on,,,,,4,0,7,,,,,0,,,79,74
28704,note_on,,,,,32,0,8,,,,,1,,,78,45
28704,note_on,,,,,32,0,10,,,,,3,,,57,45
28740,note_off,,,,,1092,0,9,,,,,2,,,72,100
28780,note_off,,,,,76,0,7,,,,,0,,,79,100
28780,note_off,,,,,76,0,8,,,,,1,,,78,100
28780,note_off,,,,,76,0,10,,,,,3,,,57,100
28800,note_on,,,,,20,0,7,,,,,0,,,79,77
28800,note_on,,,,,20,0,8,,,,,1,,,76,45
28800,note_on,,,,,20,0,10,,,,,3,,,57,45
28800,note_on,,,,,60,0,9,,,,,2,,,73,45
29056,note_off,,,,,256,0,9,,,,,2,,,73,100
29088,note_on,,,,,32,0,9,,,,,2,,,73,45
29164,note_off,,,,,76,0,9,,,,,2,,,73,100
29184,note_on,,,,,20,0,9,,,,,2,,,73,45
29260,note_off,,,,,460,0,7,,,,,0,,,79,100
29280,note_on,,,,,20,0,7,,,,,0,,,77,74
29372,note_off,,,,,92,0,7,,,,,0,,,77,100
29376,note_on,,,,,4,0,7,,,,,0,,,76,74
29440,note_off,,,,,256,0,9,,,,,2,,,73,100
29452,note_off,,,,,76,0,7,,,,,0,,,76,100
29472,note_on,,,,,32,0,9,,,,,2,,,73,45
29472,note_on,,,,,20,0,7,,,,,0,,,74,73
29548,note_off,,,,,76,0,9,,,,,2,,,73,100
29564,note_off,,,,,92,0,7,,,,,0,,,74,100
29568,note_on,,,,,20,0,9,,,,,2,,,73,45
29568,note_on,,,,,4,0,7,,,,,0,,,73,72
29720,note_off,,,,,152,0,7,,,,,0,,,73,100
29760,note_on,,,,,40,0,7,,,,,0,,,70,71
29824,note_off,,,,,256,0,9,,,,,2,,,73,100
29852,note_off,,,,,92,0,7,,,,,0,,,70,100
29856,note_on,,,,,32,0,9,,,,,2,,,73,45
29856,note_on,,,,,4,0,7,,,,,0,,,69,71
29892,note_off,,,,,1092,0,8,,,,,1,,,76,100
29892,note_off,,,,,1092,0,10,,,,,3,,,57,100
29932,note_off,,,,,76,0,9,,,,,2,,,73,100
29932,note_off,,,,,76,0,7,,,,,0,,,69,100
29952,note_on,,,,,20,0,9,,,,,2,,,73,45
29952,note_on,,,,,20,0,7,,,,,0,,,79,75
29952,note_on,,,,,60,0,10,,,,,3,,,57,45
29952,note_on,,,,,60,0,8,,,,,1,,,76,45
30208,note_off,,,,,256,0,10,,,,,3,,,57,100
30208,note_off,,,,,256,0,8,,,,,1,,,76,100
30240,note_on,,,,,32,0,10,,,,,3,,,57,45
30240,note_on,,,,,32,0,8,,,,,1,,,76,45
30316,note_off,,,,,76,0,10,,,,,3,,,57,100
30316,note_off,,,,,76,0,8,,,,,1,,,76,100
30336,note_on,,,,,20,0,10,,,,,3,,,57,45
30336,note_on,,,,,20,0,8,,,,,1,,,76,45
30412,note_off,,,,,460,0,7,,,,,0,,,79,100
30432,note_on,,,,,20,0,7,,,,,0,,,77,73
30524,note_off,,,,,92,0,7,,,,,0,,,77,100
30528,note_on,,,,,4,0,7,,,,,0,,,76,73
30592,note_off,,,,,256,0,8,,,,,1,,,76,100
30592,note_off,,,,,256,0,10,,,,,3,,,57,100
30604,note_off,,,,,76,0,7,,,,,0,,,76,100
30624,note_on,,,,,32,0,8,,,,,1,,,76,45
30624,note_on,,,,,32,0,10,,,,,3,,,57,45
30624,note_on,,,,,20,0,7,,,,,0,,,74,72
30700,note_off,,,,,76,0,10,,,,,3,,,57,100
30700,note_off,,,,,76,0,8,,,,,1,,,76,100
30716,note_off,,,,,92,0,7,,,,,0,,,74,100
30720,note_on,,,,,4,0,7,,,,,0,,,73,72
30720,note_on,,,,,20,0,10,,,,,3,,,57,45
30720,note_on,,,,,20,0,8,,,,,1,,,76,45
30872,note_off,,,,,152,0,7,,,,,0,,,73,100
30912,note_on,,,,,40,0,7,,,,,0,,,70,71
30976,note_off,,,,,256,0,10,,,,,3,,,57,100
30976,note_off,,,,,256,0,8,,,,,1,,,76,100
31004,note_off,,,,,92,0,7,,,,,0,,,70,100
31008,note_on,,,,,4,0,7,,,,,0,,,69,71
31008,note_on,,,,,32,0,10,,,,,3,,,57,45
31008,note_on,,,,,32,0,8,,,,,1,,,76,45
31044,note_off,,,,,1092,0,9,,,,,2,,,73,100
31084,note_off,,,,,76,0,10,,,,,3,,,57,100
31084,note_off,,,,,76,0,7,,,,,0,,,69,100
31084,note_off,,,,,76,0,8,,,,,1,,,76,100
31104,note_on,,,,,60,0,9,,,,,2,,,69,45
31104,note_on,,,,,20,0,7,,,,,0,,,77,74
31104,note_on,,,,,20,0,10,,,,,3,,,62,45
31104,note_on,,,,,20,0,8,,,,,1,,,74,45
31256,note_off,,,,,152,0,7,,,,,0,,,77,100
31296,note_on,,,,,40,0,7,,,,,0,,,76,77
31360,note_off,,,,,256,0,8,,,,,1,,,74,100
31360,note_off,,,,,256,0,9,,,,,2,,,69,100
31360,note_off,,,,,256,0,10,,,,,3,,,62,100
31372,note_off,,,,,76,0,7,,,,,0,,,76,100
31392,note_on,,,,,20,0,7,,,,,0,,,74,79
31392,note_on,,,,,32,0,10,,,,,3,,,55,45
31392,note_on,,,,,32,0,8,,,,,1,,,70,45
31392,note_on,,,,,32,0,9,,,,,2,,,70,45
31468,note_off,,,,,76,0,7,,,,,0,,,74,100
31468,note_off,,,,,76,0,9,,,,,2,,,70,100
31468,note_off,,,,,76,0,10,,,,,3,,,55,100
31468,note_off,,,,,76,0,8,,,,,1,,,70,100
31488,note_on,,,,,20,0,9,,,,,2,,,64,45
31488,note_on,,,,,20,0,8,,,,,1,,,64,45
31488,note_on,,,,,20,0,7,,,,,0,,,74,80
31488,note_on,,,,,20,0,10,,,,,3,,,57,45
31580,note_off,,,,,92,0,7,,,,,0,,,74,100
31584,note_on,,,,,4,0,7,,,,,0,,,73,79
31628,note_off,,,,,44,0,7,,,,,0,,,73,100
31632,note_on,,,,,4,0,7,,,,,0,,,74,79
31676,note_off,,,,,44,0,7,,,,,0,,,74,100
31680,note_on,,,,,4,0,7,,,,,0,,,73,78
31700,note_off,,,,,20,0,7,,,,,0,,,73,100
31704,note_on,,,,,4,0,7,,,,,0,,,74,78
31724,note_off,,,,,20,0,7,,,,,0,,,74,100
31728,note_on,,,,,4,0,7,,,,,0,,,73,77
31744,note_off,,,,,256,0,9,,,,,2,,,64,100
31744,note_off,,,,,256,0,8,,,,,1,,,64,100
31744,note_off,,,,,256,0,10,,,,,3,,,57,100
31748,note_off,,,,,20,0,7,,,,,0,,,73,100
31752,note_on,,,,,4,0,7,,,,,0,,,74,77
31772,note_off,,,,,20,0,7,,,,,0,,,74,100
31776,note_on,,,,,4,0,7,,,,,0,,,73,77
31776,note_on,,,,,32,0,10,,,,,3,,,57,45
31776,note_on,,,,,32,0,9,,,,,2,,,64,45
31776,note_on,,,,,32,0,8,,,,,1,,,64,45
31796,note_off,,,,,20,0,7,,,,,0,,,73,100
31800,note_on,,,,,4,0,7,,,,,0,,,74,76
31820,note_off,,,,,20,0,7,,,,,0,,,74,100
31824,note_on,,,,,4,0,7,,,,,0,,,73,76
31844,note_off,,,,,20,0,7,,,,,0,,,73,100
31848,note_on,,,,,4,0,7,,,,,0,,,74,76
31852,note_off,,,,,76,0,9,,,,,2,,,64,100
31852,note_off,,,,,76,0,10,,,,,3,,,57,100
31852,note_off,,,,,76,0,8,,,,,1,,,64,100
31868,note_off,,,,,20,0,7,,,,,0,,,74,100
31872,note_on,,,,,20,0,8,,,,,1,,,64,45
31872,note_on,,,,,4,0,7,,,,,0,,,73,76
31872,note_on,,,,,20,0,10,,,,,3,,,57,45
31872,note_on,,,,,20,0,9,,,,,2,,,64,45
32024,note_off,,,,,152,0,7,,,,,0,,,73,100
32064,note_on,,,,,40,0,7,,,,,0,,,74,73
32128,note_off,,,,,256,0,9,,,,,2,,,64,100
32128,note_off,,,,,256,0,10,,,,,3,,,57,100
32128,note_off,,,,,256,0,8,,,,,1,,,64,100
32160,note_on,,,,,32,0,10,,,,,3,,,57,45
32160,note_on,,,,,32,0,8,,,,,1,,,64,45
32160,note_on,,,,,32,0,9,,,,,2,,,64,45
32216,note_off,,,,,152,0,7,,,,,0,,,74,100
32236,note_off,,,,,76,0,9,,,,,2,,,64,100
32236,note_off,,,,,76,0,8,,,,,1,,,64,100
32236,note_off,,,,,76,0,10,,,,,3,,,57,100
32256,note_on,,,,,20,0,8,,,,,1,,,65,45
32256,note_on,,,,,20,0,10,,,,,3,,,62,45
32256,note_on,,,,,40,0,7,,,,,0,,,74,71
32256,note_on,,,,,20,0,9,,,,,2,,,65,45
32444,note_off,,,,,188,0,7,,,,,0,,,74,100
32448,note_on,,,,,4,0,7,,,,,0,,,82,72
32512,note_off,,,,,256,0,10,,,,,3,,,62,100
32544,note_on,,,,,32,0,10,,,,,3,,,74,45
32600,note_off,,,,,152,0,7,,,,,0,,,82,100
32600,note_off,,,,,344,0,9,,,,,2,,,65,100
32600,note_off,,,,,344,0,8,,,,,1,,,65,100
32620,note_off,,,,,76,0,10,,,,,3,,,74,100
32640,note_on,,,,,40,0,7,,,,,0,,,80,74
32640,note_on,,,,,40,0,9,,,,,2,,,76,45
32640,note_on,,,,,20,0,10,,,,,3,,,74,45
32640,note_on,,,,,40,0,8,,,,,1,,,76,45
32828,note_off,,,,,188,0,7,,,,,0,,,80,100
32832,note_on,,,,,4,0,7,,,,,0,,,76,75
32896,note_off,,,,,256,0,10,,,,,3,,,74,100
32928,note_on,,,,,32,0,10,,,,,3,,,74,45
32984,note_off,,,,,152,0,7,,,,,0,,,76,100
33004,note_off,,,,,76,0,10,,,,,3,,,74,100
33024,note_on,,,,,20,0,10,,,,,3,,,74,45
33024,note_on,,,,,40,0,7,,,,,0,,,74,75
33212,note_off,,,,,188,0,7,,,,,0,,,74,100
33216,note_on,,,,,4,0,7,,,,,0,,,80,75
33280,note_off,,,,,256,0,10,,,,,3,,,74,100
33312,note_on,,,,,32,0,10,,,,,3,,,74,45
33368,note_off,,,,,152,0,7,,,,,0,,,80,100
33388,note_off,,,,,76,0,10,,,,,3,,,74,100
33408,note_on,,,,,40,0,7,,,,,0,,,81,75
33408,note_on,,,,,20,0,10,,,,,3,,,73,45
33596,note_off,,,,,188,0,7,,,,,0,,,81,100
33600,note_on,,,,,4,0,7,,,,,0,,,79,75
33664,note_off,,,,,256,0,10,,,,,3,,,73,100
33696,note_on,,,,,32,0,10,,,,,3,,,73,45
33752,note_off,,,,,1112,0,9,,,,,2,,,76,100
33752,note_off,,,,,1112,0,8,,,,,1,,,76,100
33752,note_off,,,,,152,0,7,,,,,0,,,79,100
33772,note_off,,,,,76,0,10,,,,,3,,,73,100
33792,note_on,,,,,40,0,8,,,,,1,,,74,45
33792,note_on,,,,,20,0,10,,,,,3,,,72,45
33792,note_on,,,,,40,0,7,,,,,0,,,78,75
33792,note_on,,,,,40,0,9,,,,,2,,,74,45
33980,note_off,,,,,188,0,7,,,,,0,,,78,100
33984,note_on,,,,,4,0,7,,,,,0,,,74,74
34048,note_off,,,,,256,0,10,,,,,3,,,72,100
34080,note_on,,,,,32,0,10,,,,,3,,,72,45
34136,note_off,,,,,152,0,7,,,,,0,,,74,100
34156,note_off,,,,,76,0,10,,,,,3,,,72,100
34176,note_on,,,,,40,0,7,,,,,0,,,72,74
34176,note_on,,,,,20,0,10,,,,,3,,,72,45
34364,note_off,,,,,188,0,7,,,,,0,,,72,100
34368,note_on,,,,,4,0,7,,,,,0,,,78,73
34432,note_off,,,,,256,0,10,,,,,3,,,72,100
34464,note_on,,,,,32,0,10,,,,,3,,,72,45
34520,note_off,,,,,152,0,7,,,,,0,,,78,100
34540,note_off,,,,,76,0,10,,,,,3,,,72,100
34560,note_on,,,,,20,0,10,,,,,3,,,71,45
34560,note_on,,,,,40,0,7,,,,,0,,,79,73
34748,note_off,,,,,188,0,7,,,,,0,,,79,100
34752,note_on,,,,,4,0,7,,,,,0,,,77,73
34816,note_off,,,,,256,0,10,,,,,3,,,71,100
34848,note_on,,,,,32,0,10,,,,,3,,,71,45
34904,note_off,,,,,152,0,7,,,,,0,,,77,100
34904,note_off,,,,,1112,0,8,,,,,1,,,74,100
34904,note_off,,,,,1112,0,9,,,,,2,,,74,100
34924,note_off,,,,,76,0,10,,,,,3,,,71,100
34944,note_on,,,,,40,0,8,,,,,1,,,72,45
34944,note_on,,,,,20,0,10,,,,,3,,,70,45
34944,note_on,,,,,40,0,7,,,,,0,,,76,72
34944,note_on,,,,,40,0,9,,,,,2,,,72,45
35132,note_off,,,,,188,0,7,,,,,0,,,76,100
35136,note_on,,,,,4,0,7,,,,,0,,,72,72
35200,note_off,,,,,256,0,10,,,,,3,,,70,100
35232,note_on,,,,,32,0,10,,,,,3,,,70,45
35288,note_off,,,,,152,0,7,,,,,0,,,72,100
35308,note_off,,,,,76,0,10,,,,,3,,,70,100
35328,note_on,,,,,20,0,10,,,,,3,,,70,45
35328,note_on,,,,,40,0,7,,,,,0,,,70,71
35516,note_off,,,,,188,0,7,,,,,0,,,70,100
35520,note_on,,,,,4,0,7,,,,,0,,,76,71
35584,note_off,,,,,256,0,10,,,,,3,,,70,100
35616,note_on,,,,,32,0,10,,,,,3,,,70,45
35672,note_off,,,,,152,0,7,,,,,0,,,76,100
35692,note_off,,,,,76,0,10,,,,,3,,,70,100
35712,note_on,,,,,20,0,10,,,,,3,,,69,45
35712,note_on,,,,,40,0,7,,,,,0,,,77,71
35900,note_off,,,,,188,0,7,,,,,0,,,77,100
35904,note_on,,,,,4,0,7,,,,,0,,,74,70
35968,note_off,,,,,256,0,10,,,,,3,,,69,100
36000,note_on,,,,,32,0,10,,,,,3,,,69,45
36056,note_off,,,,,152,0,7,,,,,0,,,74,100
36056,note_off,,,,,1112,0,9,,,,,2,,,72,100
36056,note_off,,,,,1112,0,8,,,,,1,,,72,100
36076,note_off,,,,,76,0,10,,,,,3,,,69,100
36096,note_on,,,,,40,0,7,,,,,0,,,75,71
36096,set_tempo,,,,,13056,1,0,,1333333,,,,,,,
36096,note_on,,,,,40,0,9,,,,,2,,,70,45
36096,note_on,,,,,20,0,10,,,,,3,,,67,45
36096,note_on,,,,,40,0,8,,,,,1,,,70,45
36284,note_off,,,,,188,0,7,,,,,0,,,75,100
36288,set_tempo,,,,,192,1,0,,1363636,,,,,,,
36288,note_on,,,,,4,0,7,,,,,0,,,79,73
36352,note_off,,,,,256,0,10,,,,,3,,,67,100
36352,note_off,,,,,256,0,9,,,,,2,,,70,100
36352,note_off,,,,,256,0,8,,,,,1,,,70,100
36384,note_on,,,,,32,0,9,,,,,2,,,70,45
36384,note_on,,,,,32,0,10,,,,,3,,,67,45
36384,note_on,,,,,32,0,8,,,,,1,,,70,45
36440,note_off,,,,,152,0,7,,,,,0,,,79,100
36460,note_off,,,,,76,0,8,,,,,1,,,70,100
36460,note_off,,,,,76,0,9,,,,,2,,,70,100
36460,note_off,,,,,76,0,10,,,,,3,,,67,100
36480,set_tempo,,,,,192,1,0,,1395348,,,,,,,
36480,note_on,,,,,20,0,8,,,,,1,,,70,45
36480,note_on,,,,,20,0,9,,,,,2,,,70,45
36480,note_on,,,,,20,0,10,,,,,3,,,67,45
36480,note_on,,,,,40,0,7,,,,,0,,,82,75
36668,note_off,,,,,188,0,7,,,,,0,,,82,100
36672,set_tempo,,,,,192,1,0,,1428571,,,,,,,
36672,note_on,,,,,4,0,7,,,,,0,,,74,77
36736,note_off,,,,,256,0,10,,,,,3,,,67,100
36736,note_off,,,,,256,0,8,,,,,1,,,70,100
36736,note_off,,,,,256,0,9,,,,,2,,,70,100
36768,note_on,,,,,32,0,9,,,,,2,,,82,45
36768,note_on,,,,,32,0,10,,,,,3,,,67,45
36768,note_on,,,,,32,0,8,,,,,1,,,82,45
36824,note_off,,,,,152,0,7,,,,,0,,,74,100
36844,note_off,,,,,76,0,8,,,,,1,,,82,100
36844,note_off,,,,,76,0,10,,,,,3,,,67,100
36844,note_off,,,,,76,0,9,,,,,2,,,82,100
36864,note_on,,,,,40,0,7,,,,,0,,,85,79
36864,note_on,,,,,20,0,10,,,,,3,,,69,45
36864,note_on,,,,,20,0,8,,,,,1,,,76,45
36864,set_tempo,,,,,192,1,0,,1333333,,,,,,,
36864,note_on,,,,,20,0,9,,,,,2,,,76,45
37120,note_off,,,,,256,0,9,,,,,2,,,76,100
37120,note_off,,,,,256,0,10,,,,,3,,,69,100
37120,note_off,,,,,256,0,8,,,,,1,,,76,100
37152,note_on,,,,,32,0,10,,,,,3,,,69,45
37152,note_on,,,,,32,0,8,,,,,1,,,76,45
37152,note_on,,,,,32,0,9,,,,,2,,,73,45
37228,note_off,,,,,76,0,10,,,,,3,,,69,100
37228,note_off,,,,,76,0,8,,,,,1,,,76,100
37228,note_off,,,,,76,0,9,,,,,2,,,73,100
37248,note_on,,,,,20,0,10,,,,,3,,,61,45
37248,note_on,,,,,20,0,8,,,,,1,,,76,45
37248,note_on,,,,,20,0,9,,,,,2,,,73,45
37380,note_off,,,,,516,0,7,,,,,0,,,85,100
37440,note_on,,,,,60,0,7,,,,,0,,,81,77
37504,note_off,,,,,256,0,9,,,,,2,,,73,100
37504,note_off,,,,,256,0,10,,,,,3,,,61,100
37504,note_off,,,,,256,0,8,,,,,1,,,76,100
37536,note_on,,,,,32,0,10,,,,,3,,,61,45
37536,note_on,,,,,32,0,9,,,,,2,,,73,45
37536,note_on,,,,,32,0,8,,,,,1,,,76,45
37592,note_off,,,,,152,0,7,,,,,0,,,81,100
37612,note_off,,,,,76,0,8,,,,,1,,,76,100
37612,note_off,,,,,76,0,10,,,,,3,,,61,100
37612,note_off,,,,,76,0,9,,,,,2,,,73,100
37632,note_on,,,,,20,0,8,,,,,1,,,76,45
37632,note_on,,,,,40,0,7,,,,,0,,,88,81
37632,note_on,,,,,20,0,10,,,,,3,,,61,45
37632,note_on,,,,,20,0,9,,,,,2,,,73,45
37784,note_off,,,,,152,0,7,,,,,0,,,88,100
37824,note_on,,,,,40,0,7,,,,,0,,,79,75
37888,note_off,,,,,256,0,8,,,,,1,,,76,100
37888,note_off,,,,,256,0,10,,,,,3,,,61,100
37888,note_off,,,,,256,0,9,,,,,2,,,73,100
37920,note_on,,,,,32,0,8,,,,,1,,,76,45
37920,note_on,,,,,32,0,9,,,,,2,,,73,45
37920,note_on,,,,,32,0,10,,,,,3,,,61,45
37976,note_off,,,,,152,0,7,,,,,0,,,79,100
37996,note_off,,,,,76,0,8,,,,,1,,,76,100
37996,note_off,,,,,76,0,10,,,,,3,,,61,100
37996,note_off,,,,,76,0,9,,,,,2,,,73,100
38016,note_on,,,,,20,0,8,,,,,1,,,74,45
38016,note_on,,,,,20,0,10,,,,,3,,,62,45
38016,note_on,,,,,40,0,7,,,,,0,,,77,75
38016,note_on,,,,,20,0,9,,,,,2,,,69,45
38168,note_off,,,,,152,0,7,,,,,0,,,77,100
38208,note_on,,,,,40,0,7,,,,,0,,,76,78
38272,note_off,,,,,256,0,8,,,,,1,,,74,100
38272,note_off,,,,,256,0,9,,,,,2,,,69,100
38272,note_off,,,,,256,0,10,,,,,3,,,62,100
38284,note_off,,,,,76,0,7,,,,,0,,,76,100
38304,note_on,,,,,32,0,9,,,,,2,,,70,45
38304,note_on,,,,,20,0,7,,,,,0,,,74,80
38304,note_on,,,,,32,0,10,,,,,3,,,55,45
38304,note_on,,,,,32,0,8,,,,,1,,,70,45
38380,note_off,,,,,76,0,7,,,,,0,,,74,100
38380,note_off,,,,,76,0,9,,,,,2,,,70,100
38380,note_off,,,,,76,0,10,,,,,3,,,55,100
38380,note_off,,,,,76,0,8,,,,,1,,,70,100
38400,set_tempo,,,,,1536,1,0,,1333333,,,,,,,
38400,note_on,,,,,20,0,8,,,,,1,,,64,45
38400,note_on,,,,,20,0,9,,,,,2,,,64,45
38400,note_on,,,,,20,0,7,,,,,0,,,74,80
38400,note_on,,,,,20,0,10,,,,,3,,,57,45
38492,note_off,,,,,92,0,7,,,,,0,,,74,100
38496,note_on,,,,,4,0,7,,,,,0,,,73,79
38540,note_off,,,,,44,0,7,,,,,0,,,73,100
38544,note_on,,,,,4,0,7,,,,,0,,,74,78
38588,note_off,,,,,44,0,7,,,,,0,,,74,100
38592,set_tempo,,,,,192,1,0,,1363636,,,,,,,
38592,note_on,,,,,4,0,7,,,,,0,,,73,77
38612,note_off,,,,,20,0,7,,,,,0,,,73,100
38616,note_on,,,,,4,0,7,,,,,0,,,74,77
38636,note_off,,,,,20,0,7,,,,,0,,,74,100
38640,note_on,,,,,4,0,7,,,,,0,,,73,77
38660,note_off,,,,,20,0,7,,,,,0,,,73,100
38664,note_on,,,,,4,0,7,,,,,0,,,74,76
38684,note_off,,,,,20,0,7,,,,,0,,,74,100
38688,note_on,,,,,4,0,7,,,,,0,,,73,76
38708,note_off,,,,,20,0,7,,,,,0,,,73,100
38712,note_on,,,,,4,0,7,,,,,0,,,74,75
38732,note_off,,,,,20,0,7,,,,,0,,,74,100
38736,note_on,,,,,4,0,7,,,,,0,,,73,75
38756,note_off,,,,,20,0,7,,,,,0,,,73,100
38760,note_on,,,,,4,0,7,,,,,0,,,74,75
38780,note_off,,,,,20,0,7,,,,,0,,,74,100
38784,note_on,,,,,4,0,7,,,,,0,,,73,74
38784,set_tempo,,,,,192,1,0,,1395348,,,,,,,
38936,note_off,,,,,152,0,7,,,,,0,,,73,100
38976,set_tempo,,,,,192,1,0,,1428571,,,,,,,
38976,note_on,,,,,40,0,7,,,,,0,,,74,71
39128,note_off,,,,,728,0,9,,,,,2,,,64,100
39128,note_off,,,,,728,0,8,,,,,1,,,64,100
39128,note_off,,,,,728,0,10,,,,,3,,,57,100
39128,note_off,,,,,152,0,7,,,,,0,,,74,100
39168,note_on,,,,,40,0,8,,,,,1,,,65,45
39168,note_on,,,,,40,0,10,,,,,3,,,62,45
39168,set_tempo,,,,,192,1,0,,1333333,,,,,,,
39168,note_on,,,,,40,0,9,,,,,2,,,62,45
39168,note_on,,,,,40,0,7,,,,,0,,,74,68
39264,control_change,,,,,96,0,7,,,7,97,0,,,,
39336,control_change,,,,,72,0,7,,,7,94,0,,,,
39424,note_off,,,,,256,0,8,,,,,1,,,65,100
39424,note_off,,,,,256,0,9,,,,,2,,,62,100
39424,note_off,,,,,256,0,10,,,,,3,,,62,100
39456,control_change,,,,,120,0,7,,,7,91,0,,,,
39456,note_on,,,,,32,0,9,,,,,2,,,69,45
39456,note_on,,,,,32,0,8,,,,,1,,,77,45
39456,note_on,,,,,32,0,10,,,,,3,,,62,45
39532,note_off,,,,,76,0,8,,,,,1,,,77,100
39532,note_off,,,,,76,0,10,,,,,3,,,62,100
39532,note_off,,,,,76,0,9,,,,,2,,,69,100
39552,note_on,,,,,20,0,8,,,,,1,,,77,45
39552,note_on,,,,,20,0,10,,,,,3,,,62,45
39552,control_change,,,,,96,0,7,,,7,88,0,,,,
39552,note_on,,,,,20,0,9,,,,,2,,,74,45
39648,control_change,,,,,96,0,7,,,7,85,0,,,,
39744,control_change,,,,,96,0,7,,,7,82,0,,,,
39808,note_off,,,,,256,0,8,,,,,1,,,77,100
39808,note_off,,,,,256,0,10,,,,,3,,,62,100
39808,note_off,,,,,256,0,9,,,,,2,,,74,100
39840,control_change,,,,,96,0,7,,,7,79,0,,,,
39840,note_on,,,,,32,0,8,,,,,1,,,77,45
39840,note_on,,,,,32,0,10,,,,,3,,,62,45
39840,note_on,,,,,32,0,9,,,,,2,,,74,45
39856,note_off,,,,,16,0,7,,,,,0,,,74,100
39916,note_off,,,,,76,0,10,,,,,3,,,62,100
39916,note_off,,,,,76,0,9,,,,,2,,,74,100
39916,note_off,,,,,76,0,8,,,,,1,,,77,100
39936,note_on,,,,,20,0,9,,,,,2,,,74,45
39936,note_on,,,,,20,0,10,,,,,3,,,62,45
39936,control_change,,,,,80,0,7,,,7,100,0,,,,
39936,note_on,,,,,20,0,8,,,,,1,,,77,45
39936,set_tempo,,,,,768,1,0,,1333333,,,,,,,
40192,note_off,,,,,256,0,10,,,,,3,,,62,100
40192,note_off,,,,,256,0,8,,,,,1,,,77,100
40192,set_tempo,,,,,256,1,0,,1363636,,,,,,,
40192,note_off,,,,,256,0,9,,,,,2,,,74,100
40224,note_on,,,,,32,0,9,,,,,2,,,74,45
40224,note_on,,,,,32,0,10,,,,,3,,,62,45
40224,note_on,,,,,32,0,8,,,,,1,,,77,45
40300,note_off,,,,,76,0,9,,,,,2,,,74,100
40300,note_off,,,,,76,0,10,,,,,3,,,62,100
40300,note_off,,,,,76,0,8,,,,,1,,,77,100
40320,note_on,,,,,20,0,10,,,,,3,,,56,45
40320,note_on,,,,,20,0,9,,,,,2,,,74,45
40320,note_on,,,,,20,0,8,,,,,1,,,76,45
40448,set_tempo,,,,,256,1,0,,1395348,,,,,,,
40576,note_off,,,,,256,0,9,,,,,2,,,74,100
40576,note_off,,,,,256,0,8,,,,,1,,,76,100
40576,note_off,,,,,256,0,10,,,,,3,,,56,100
40608,note_on,,,,,32,0,9,,,,,2,,,74,45
40608,note_on,,,,,32,0,10,,,,,3,,,56,45
40608,note_on,,,,,32,0,8,,,,,1,,,76,45
40684,note_off,,,,,76,0,8,,,,,1,,,76,100
40684,note_off,,,,,76,0,10,,,,,3,,,56,100
40684,note_off,,,,,76,0,9,,,,,2,,,74,100
40704,note_on,,,,,20,0,10,,,,,3,,,57,45
40704,set_tempo,,,,,256,1,0,,1428571,,,,,,,
40704,note_on,,,,,20,0,9,,,,,2,,,74,45
40704,note_on,,,,,20,0,8,,,,,1,,,76,45
40800,set_tempo,,,,,96,1,0,,1463414,,,,,,,
40896,set_tempo,,,,,96,1,0,,1500000,,,,,,,
40960,note_off,,,,,256,0,10,,,,,3,,,57,100
40960,note_off,,,,,256,0,9,,,,,2,,,74,100
40960,note_off,,,,,256,0,8,,,,,1,,,76,100
40992,set_tempo,,,,,96,1,0,,1538461,,,,,,,
40992,note_on,,,,,32,0,10,,,,,3,,,57,45
40992,note_on,,,,,32,0,8,,,,,1,,,76,45
40992,note_on,,,,,32,0,9,,,,,2,,,74,45
41068,note_off,,,,,76,0,9,,,,,2,,,74,100
41068,note_off,,,,,76,0,8,,,,,1,,,76,100
41068,note_off,,,,,76,0,10,,,,,3,,,57,100
41088,note_on,,,,,20,0,8,,,,,1,,,76,45
41088,note_on,,,,,20,0,10,,,,,3,,,57,45
41088,set_tempo,,,,,96,1,0,,1578947,,,,,,,
41088,note_on,,,,,20,0,9,,,,,2,,,73,45
41136,set_tempo,,,,,48,1,0,,1621621,,,,,,,
41184,set_tempo,,,,,48,1,0,,1666666,,,,,,,
41232,set_tempo,,,,,48,1,0,,1714285,,,,,,,
41280,set_tempo,,,,,48,1,0,,1764705,,,,,,,
41328,set_tempo,,,,,48,1,0,,1818181,,,,,,,
41344,note_off,,,,,256,0,9,,,,,2,,,73,100
41344,note_off,,,,,256,0,8,,,,,1,,,76,100
41344,note_off,,,,,256,0,10,,,,,3,,,57,100
41376,note_on,,,,,32,0,8,,,,,1,,,76,45
41376,note_on,,,,,32,0,10,,,,,3,,,57,45
41376,note_on,,,,,32,0,9,,,,,2,,,73,45
41376,set_tempo,,,,,48,1,0,,1875000,,,,,,,
41424,set_tempo,,,,,48,1,0,,1935483,,,,,,,
41452,note_off,,,,,76,0,10,,,,,3,,,57,100
41452,note_off,,,,,76,0,9,,,,,2,,,73,100
41452,note_off,,,,,76,0,8,,,,,1,,,76,100
41472,note_on,,,,,20,0,9,,,,,2,,,74,45
41472,note_on,,,,,20,0,8,,,,,1,,,77,45
41472,end_of_track,,,,,0,1,0,,,,,,,,,
41472,set_tempo,,,,,48,1,0,,1666666,,,,,,,
41472,note_on,,,,,20,0,10,,,,,3,,,62,45
42564,note_off,,,,,1092,0,8,,,,,1,,,77,100
42564,end_of_track,,,,,0,1,9,,,,,,,,,
42564,note_off,,,,,1092,0,9,,,,,2,,,74,100
42564,note_off,,,,,1092,0,10,,,,,3,,,62,100
42564,end_of_track,,,,,0,1,8,,,,,,,,,
42564,end_of_track,,,,,0,1,10,,,,,,,,,
43392,program_change,,,,,3456,0,7,,,,,0,40,,,
43392,end_of_track,,,,,0,1,7,,,,,,,,,
