tick,type,numerator,denominator,clocks_per_click,notated_32nd_notes_per_beat,time,meta,track,data,tempo,control,value,channel,program,key,note,velocity
0,time_signature,4,4,96,8,0,1,0,,,,,,,,,
0,program_change,,,,,0,0,7,,,,,0,40,,,
0,control_change,,,,,0,0,7,,,7,100,0,,,,
0,control_change,,,,,0,0,7,,,10,50,0,,,,
0,control_change,,,,,0,0,7,,,91,65,0,,,,
0,key_signature,,,,,0,1,7,,,,,,,G,,
0,end_of_track,,,,,0,1,7,,,,,,,,,
0,control_change,,,,,0,0,7,,,0,0,0,,,,
0,track_name,,,,,0,1,8,,,,,,,,,
0,program_change,,,,,0,0,8,,,,,0,40,,,
0,control_change,,,,,0,0,8,,,7,100,0,,,,
0,control_change,,,,,0,0,8,,,10,50,0,,,,
0,control_change,,,,,0,0,8,,,91,65,0,,,,
0,key_signature,,,,,0,1,8,,,,,,,G,,
0,key_signature,,,,,0,1,14,,,,,,,G,,
0,control_change,,,,,0,0,8,,,0,0,0,,,,
0,track_name,,,,,0,1,7,,,,,,,,,
0,end_of_track,,,,,0,1,6,,,,,,,,,
0,key_signature,,,,,0,1,6,,,,,,,G,,
0,end_of_track,,,,,0,1,4,,,,,,,,,
0,track_name,,,,,0,1,5,,,,,,,,,
0,control_change,,,,,0,0,5,,,0,0,0,,,,
0,program_change,,,,,0,0,5,,,,,0,40,,,
0,control_change,,,,,0,0,5,,,7,100,0,,,,
0,control_change,,,,,0,0,5,,,10,50,0,,,,
0,control_change,,,,,0,0,5,,,91,65,0,,,,
0,key_signature,,,,,0,1,5,,,,,,,G,,
0,end_of_track,,,,,0,1,5,,,,,,,,,
0,track_name,,,,,0,1,6,,,,,,,,,
0,control_change,,,,,0,0,6,,,0,0,0,,,,
0,program_change,,,,,0,0,6,,,,,0,40,,,
0,control_change,,,,,0,0,6,,,7,100,0,,,,
0,control_change,,,,,0,0,6,,,10,50,0,,,,
0,control_change,,,,,0,0,6,,,91,65,0,,,,
0,control_change,,,,,0,0,14,,,91,60,5,,,,
0,control_change,,,,,0,0,14,,,7,55,5,,,,
0,program_change,,,,,0,0,14,,,,,5,6,,,
0,control_change,,,,,0,0,14,,,0,0,5,,,,
0,program_change,,,,,0,0,11,,,,,3,48,,,
0,control_change,,,,,0,0,11,,,0,0,3,,,,
0,track_name,,,,,0,1,11,,,,,,,,,
0,track_name,,,,,0,1,9,,,,,,,,,
0,control_change,,,,,0,0,9,,,0,0,1,,,,
0,program_change,,,,,0,0,9,,,,,1,48,,,
0,control_change,,,,,0,0,9,,,7,100,1,,,,
0,control_change,,,,,0,0,9,,,10,39,1,,,,
0,control_change,,,,,0,0,9,,,91,63,1,,,,
0,key_signature,,,,,0,1,9,,,,,,,G,,
0,note_on,,,,,0,0,9,,,,,1,,,79,85
0,key_signature,,,,,0,1,10,,,,,,,G,,
0,control_change,,,,,0,0,10,,,91,62,2,,,,
0,control_change,,,,,0,0,10,,,7,95,2,,,,
0,program_change,,,,,0,0,10,,,,,2,48,,,
0,control_change,,,,,0,0,11,,,7,82,3,,,,
0,key_signature,,,,,0,1,4,,,,,,,G,,
0,control_change,,,,,0,0,11,,,10,80,3,,,,
0,key_signature,,,,,0,1,11,,,,,,,G,,
0,track_name,,,,,0,1,14,,,,,,,,,
0,key_signature,,,,,0,1,13,,,,,,,G,,
0,control_change,,,,,0,0,13,,,91,60,5,,,,
0,control_change,,,,,0,0,13,,,7,55,5,,,,
0,program_change,,,,,0,0,13,,,,,5,6,,,
0,control_change,,,,,0,0,13,,,0,0,5,,,,
0,track_name,,,,,0,1,13,,,,,,,,,
0,key_signature,,,,,0,1,12,,,,,,,G,,
0,control_change,,,,,0,0,12,,,91,64,4,,,,
0,control_change,,,,,0,0,12,,,10,92,4,,,,
0,control_change,,,,,0,0,12,,,7,77,4,,,,
0,program_change,,,,,0,0,12,,,,,4,48,,,
0,control_change,,,,,0,0,12,,,0,0,4,,,,
0,track_name,,,,,0,1,12,,,,,,,,,
0,control_change,,,,,0,0,10,,,0,0,2,,,,
0,control_change,,,,,0,0,11,,,91,63,3,,,,
0,control_change,,,,,0,0,4,,,91,65,0,,,,
0,track_name,,,,,0,1,10,,,,,,,,,
0,control_change,,,,,0,0,4,,,7,100,0,,,,
0,sequencer_specific,,,,,0,1,0,"(0, 0, 119, 14, 1)",,,,,,,,
0,sequencer_specific,,,,,0,1,0,"(0, 0, 65)",,,,,,,,
0,track_name,,,,,0,1,1,,,,,,,,,
0,end_of_track,,,,,0,1,1,,,,,,,,,
0,track_name,,,,,0,1,2,,,,,,,,,
0,end_of_track,,,,,0,1,2,,,,,,,,,
0,track_name,,,,,0,1,3,,,,,,,,,
0,control_change,,,,,0,0,3,,,0,0,0,,,,
0,control_change,,,,,0,0,3,,,7,100,0,,,,
0,control_change,,,,,0,0,3,,,10,50,0,,,,
0,control_change,,,,,0,0,3,,,91,65,0,,,,
0,program_change,,,,,0,0,3,,,,,0,40,,,
0,key_signature,,,,,0,1,3,,,,,,,G,,
0,end_of_track,,,,,0,1,3,,,,,,,,,
0,track_name,,,,,0,1,4,,,,,,,,,
0,control_change,,,,,0,0,4,,,0,0,0,,,,
0,program_change,,,,,0,0,4,,,,,0,40,,,
0,set_tempo,,,,,0,1,0,,468750,,,,,,,
0,control_change,,,,,0,0,4,,,10,50,0,,,,
128,note_off,,,,,128,0,9,,,,,1,,,79,100
192,note_on,,,,,64,0,9,,,,,1,,,78,85
256,note_off,,,,,64,0,9,,,,,1,,,78,100
288,note_on,,,,,32,0,9,,,,,1,,,76,85
352,note_off,,,,,64,0,9,,,,,1,,,76,100
384,note_on,,,,,32,0,9,,,,,1,,,74,85
512,note_off,,,,,128,0,9,,,,,1,,,74,100
576,note_on,,,,,64,0,9,,,,,1,,,72,85
704,note_off,,,,,128,0,9,,,,,1,,,72,100
768,note_on,,,,,64,0,9,,,,,1,,,71,85
896,note_off,,,,,128,0,9,,,,,1,,,71,100
960,note_on,,,,,64,0,9,,,,,1,,,67,85
1088,note_off,,,,,128,0,9,,,,,1,,,67,100
1152,note_on,,,,,64,0,9,,,,,1,,,71,87
1280,note_off,,,,,128,0,9,,,,,1,,,71,100
1344,note_on,,,,,64,0,9,,,,,1,,,74,89
1472,note_off,,,,,128,0,9,,,,,1,,,74,100
1536,note_on,,,,,64,0,9,,,,,1,,,79,95
1536,note_on,,,,,1536,0,12,,,,,4,,,43,95
1536,note_on,,,,,1536,0,11,,,,,3,,,55,95
1536,note_on,,,,,1536,0,10,,,,,2,,,62,95
1536,note_on,,,,,0,0,13,,,,,5,,,74,95
1536,note_on,,,,,0,0,13,,,,,5,,,71,95
1536,note_on,,,,,1536,0,13,,,,,5,,,67,95
1536,note_on,,,,,1536,0,14,,,,,5,,,55,95
1792,note_off,,,,,256,0,14,,,,,5,,,55,100
1792,note_off,,,,,256,0,13,,,,,5,,,67,100
1792,note_off,,,,,256,0,9,,,,,1,,,79,100
1792,note_off,,,,,256,0,10,,,,,2,,,62,100
1792,note_off,,,,,256,0,11,,,,,3,,,55,100
1792,note_off,,,,,0,0,13,,,,,5,,,74,100
1792,note_off,,,,,256,0,12,,,,,4,,,43,100
1792,note_off,,,,,0,0,13,,,,,5,,,71,100
1920,note_on,,,,,128,0,13,,,,,5,,,74,92
1920,note_on,,,,,128,0,12,,,,,4,,,38,92
1920,note_on,,,,,0,0,9,,,,,1,,,78,92
1920,note_on,,,,,128,0,9,,,,,1,,,81,92
1920,note_on,,,,,0,0,13,,,,,5,,,66,92
1920,note_on,,,,,0,0,13,,,,,5,,,69,92
1920,note_on,,,,,128,0,14,,,,,5,,,50,92
1920,note_on,,,,,128,0,10,,,,,2,,,62,92
1920,note_on,,,,,128,0,11,,,,,3,,,50,92
2176,note_off,,,,,256,0,10,,,,,2,,,62,100
2176,note_off,,,,,256,0,14,,,,,5,,,50,100
2176,note_off,,,,,0,0,13,,,,,5,,,69,100
2176,note_off,,,,,0,0,13,,,,,5,,,66,100
2176,note_off,,,,,256,0,9,,,,,1,,,81,100
2176,note_off,,,,,0,0,9,,,,,1,,,78,100
2176,note_off,,,,,256,0,11,,,,,3,,,50,100
2176,note_off,,,,,256,0,13,,,,,5,,,74,100
2176,note_off,,,,,256,0,12,,,,,4,,,38,100
2304,note_on,,,,,0,0,13,,,,,5,,,74,89
2304,note_on,,,,,0,0,13,,,,,5,,,71,89
2304,note_on,,,,,128,0,13,,,,,5,,,67,89
2304,note_on,,,,,128,0,11,,,,,3,,,55,89
2304,note_on,,,,,128,0,14,,,,,5,,,55,89
2304,note_on,,,,,128,0,9,,,,,1,,,79,89
2304,note_on,,,,,128,0,10,,,,,2,,,62,89
2304,note_on,,,,,0,0,9,,,,,1,,,83,89
2304,note_on,,,,,128,0,12,,,,,4,,,43,89
2432,note_off,,,,,128,0,9,,,,,1,,,83,100
2496,note_on,,,,,64,0,9,,,,,1,,,81,87
2560,note_off,,,,,0,0,13,,,,,5,,,74,100
2560,note_off,,,,,256,0,10,,,,,2,,,62,100
2560,note_off,,,,,256,0,11,,,,,3,,,55,100
2560,note_off,,,,,256,0,12,,,,,4,,,43,100
2560,note_off,,,,,256,0,13,,,,,5,,,67,100
2560,note_off,,,,,0,0,13,,,,,5,,,71,100
2560,note_off,,,,,0,0,9,,,,,1,,,81,100
2560,note_off,,,,,256,0,14,,,,,5,,,55,100
2560,note_off,,,,,64,0,9,,,,,1,,,79,100
2592,note_on,,,,,32,0,9,,,,,1,,,83,86
2656,note_off,,,,,64,0,9,,,,,1,,,83,100
2688,note_on,,,,,32,0,9,,,,,1,,,79,86
2816,note_off,,,,,128,0,9,,,,,1,,,79,100
2880,note_on,,,,,0,0,13,,,,,5,,,71,90
2880,note_on,,,,,320,0,12,,,,,4,,,43,90
2880,note_on,,,,,320,0,10,,,,,2,,,62,90
2880,note_on,,,,,320,0,13,,,,,5,,,67,90
2880,note_on,,,,,0,0,13,,,,,5,,,74,90
2880,note_on,,,,,320,0,14,,,,,5,,,55,90
2880,note_on,,,,,320,0,11,,,,,3,,,55,90
2880,note_on,,,,,64,0,9,,,,,1,,,79,90
2880,note_on,,,,,0,0,9,,,,,1,,,83,90
3008,note_off,,,,,0,0,13,,,,,5,,,74,100
3008,note_off,,,,,0,0,13,,,,,5,,,71,100
3008,note_off,,,,,128,0,13,,,,,5,,,67,100
3008,note_off,,,,,128,0,10,,,,,2,,,62,100
3008,note_off,,,,,128,0,12,,,,,4,,,43,100
3008,note_off,,,,,128,0,14,,,,,5,,,55,100
3008,note_off,,,,,128,0,11,,,,,3,,,55,100
3008,note_off,,,,,128,0,9,,,,,1,,,79,100
3008,note_off,,,,,0,0,9,,,,,1,,,83,100
3072,note_on,,,,,64,0,12,,,,,4,,,50,90
3072,note_on,,,,,64,0,11,,,,,3,,,62,90
3072,note_on,,,,,0,0,9,,,,,1,,,81,90
3072,note_on,,,,,64,0,13,,,,,5,,,66,90
3072,note_on,,,,,64,0,10,,,,,2,,,62,90
3072,note_on,,,,,64,0,14,,,,,5,,,62,90
3072,note_on,,,,,0,0,13,,,,,5,,,69,90
3072,note_on,,,,,0,0,13,,,,,5,,,74,90
3072,note_on,,,,,64,0,9,,,,,1,,,78,90
3136,note_off,,,,,64,0,9,,,,,1,,,78,100
3136,note_off,,,,,0,0,9,,,,,1,,,81,100
3168,note_on,,,,,32,0,9,,,,,1,,,81,91
3168,note_on,,,,,0,0,9,,,,,1,,,86,91
3200,note_off,,,,,128,0,14,,,,,5,,,62,100
3200,note_off,,,,,128,0,13,,,,,5,,,66,100
3200,note_off,,,,,128,0,10,,,,,2,,,62,100
3200,note_off,,,,,0,0,13,,,,,5,,,69,100
3200,note_off,,,,,128,0,11,,,,,3,,,62,100
3200,note_off,,,,,128,0,12,,,,,4,,,50,100
3200,note_off,,,,,0,0,13,,,,,5,,,74,100
3232,note_off,,,,,0,0,9,,,,,1,,,86,100
3232,note_off,,,,,64,0,9,,,,,1,,,81,100
3264,note_on,,,,,0,0,13,,,,,5,,,69,91
3264,note_on,,,,,0,0,13,,,,,5,,,74,91
3264,note_on,,,,,64,0,13,,,,,5,,,66,91
3264,note_on,,,,,64,0,14,,,,,5,,,62,91
3264,note_on,,,,,64,0,10,,,,,2,,,62,91
3264,note_on,,,,,0,0,9,,,,,1,,,81,91
3264,note_on,,,,,64,0,12,,,,,4,,,50,91
3264,note_on,,,,,32,0,9,,,,,1,,,78,91
3264,note_on,,,,,64,0,11,,,,,3,,,62,91
3328,note_off,,,,,0,0,9,,,,,1,,,81,100
3328,note_off,,,,,64,0,9,,,,,1,,,78,100
3360,note_on,,,,,32,0,9,,,,,1,,,81,91
3360,note_on,,,,,0,0,9,,,,,1,,,86,91
3392,note_off,,,,,0,0,13,,,,,5,,,69,100
3392,note_off,,,,,128,0,12,,,,,4,,,50,100
3392,note_off,,,,,0,0,13,,,,,5,,,74,100
3392,note_off,,,,,128,0,10,,,,,2,,,62,100
3392,note_off,,,,,128,0,11,,,,,3,,,62,100
3392,note_off,,,,,128,0,14,,,,,5,,,62,100
3392,note_off,,,,,128,0,13,,,,,5,,,66,100
3424,note_off,,,,,0,0,9,,,,,1,,,86,100
3424,note_off,,,,,64,0,9,,,,,1,,,81,100
3456,note_on,,,,,64,0,14,,,,,5,,,62,90
3456,note_on,,,,,64,0,11,,,,,3,,,62,90
3456,note_on,,,,,0,0,9,,,,,1,,,81,90
3456,note_on,,,,,64,0,12,,,,,4,,,50,90
3456,note_on,,,,,64,0,10,,,,,2,,,62,90
3456,note_on,,,,,32,0,9,,,,,1,,,78,90
3456,note_on,,,,,0,0,13,,,,,5,,,69,90
3456,note_on,,,,,0,0,13,,,,,5,,,74,90
3456,note_on,,,,,64,0,13,,,,,5,,,66,90
3520,note_off,,,,,64,0,9,,,,,1,,,78,100
3520,note_off,,,,,0,0,9,,,,,1,,,81,100
3552,note_on,,,,,32,0,9,,,,,1,,,81,89
3552,note_on,,,,,0,0,9,,,,,1,,,86,89
3584,note_off,,,,,128,0,11,,,,,3,,,62,100
3584,note_off,,,,,128,0,10,,,,,2,,,62,100
3584,note_off,,,,,128,0,14,,,,,5,,,62,100
3584,note_off,,,,,0,0,13,,,,,5,,,69,100
3584,note_off,,,,,128,0,12,,,,,4,,,50,100
3584,note_off,,,,,0,0,13,,,,,5,,,74,100
3584,note_off,,,,,128,0,13,,,,,5,,,66,100
3616,note_off,,,,,64,0,9,,,,,1,,,81,100
3616,note_off,,,,,0,0,9,,,,,1,,,86,100
3648,note_on,,,,,64,0,10,,,,,2,,,62,88
3648,note_on,,,,,0,0,13,,,,,5,,,69,88
3648,note_on,,,,,0,0,13,,,,,5,,,66,88
3648,note_on,,,,,64,0,13,,,,,5,,,62,88
3648,note_on,,,,,32,0,9,,,,,1,,,78,88
3648,note_on,,,,,64,0,14,,,,,5,,,50,88
3648,note_on,,,,,0,0,9,,,,,1,,,81,88
3648,note_on,,,,,64,0,12,,,,,4,,,38,88
3648,note_on,,,,,64,0,11,,,,,3,,,50,88
3712,note_off,,,,,0,0,9,,,,,1,,,81,100
3712,note_off,,,,,64,0,9,,,,,1,,,78,100
3744,note_on,,,,,32,0,9,,,,,1,,,81,87
3744,note_on,,,,,0,0,9,,,,,1,,,86,87
3776,note_off,,,,,128,0,11,,,,,3,,,50,100
3776,note_off,,,,,128,0,12,,,,,4,,,38,100
3776,note_off,,,,,128,0,13,,,,,5,,,62,100
3776,note_off,,,,,0,0,13,,,,,5,,,66,100
3776,note_off,,,,,0,0,13,,,,,5,,,69,100
3776,note_off,,,,,128,0,14,,,,,5,,,50,100
3776,note_off,,,,,128,0,10,,,,,2,,,62,100
3808,note_off,,,,,0,0,9,,,,,1,,,86,100
3808,note_off,,,,,64,0,9,,,,,1,,,81,100
3840,note_on,,,,,64,0,10,,,,,2,,,62,86
3840,note_on,,,,,64,0,13,,,,,5,,,67,86
3840,note_on,,,,,0,0,13,,,,,5,,,71,86
3840,note_on,,,,,0,0,13,,,,,5,,,74,86
3840,note_on,,,,,0,0,9,,,,,1,,,83,86
3840,note_on,,,,,32,0,9,,,,,1,,,79,86
3840,note_on,,,,,64,0,12,,,,,4,,,43,86
3840,note_on,,,,,64,0,11,,,,,3,,,55,86
3840,note_on,,,,,64,0,14,,,,,5,,,55,86
3968,note_off,,,,,128,0,12,,,,,4,,,43,100
3968,note_off,,,,,128,0,11,,,,,3,,,55,100
3968,note_off,,,,,0,0,13,,,,,5,,,74,100
3968,note_off,,,,,128,0,13,,,,,5,,,67,100
3968,note_off,,,,,0,0,13,,,,,5,,,71,100
3968,note_off,,,,,128,0,9,,,,,1,,,79,100
3968,note_off,,,,,0,0,9,,,,,1,,,83,100
3968,note_off,,,,,128,0,10,,,,,2,,,62,100
3968,note_off,,,,,128,0,14,,,,,5,,,55,100
4032,note_on,,,,,64,0,9,,,,,1,,,83,85
4032,note_on,,,,,0,0,9,,,,,1,,,86,85
4032,note_on,,,,,64,0,13,,,,,5,,,67,100
4032,note_on,,,,,64,0,12,,,,,4,,,43,85
4032,note_on,,,,,0,0,13,,,,,5,,,74,100
4032,note_on,,,,,64,0,11,,,,,3,,,55,85
4032,note_on,,,,,64,0,14,,,,,5,,,55,100
4032,note_on,,,,,64,0,10,,,,,2,,,62,85
4032,note_on,,,,,0,0,13,,,,,5,,,71,100
4160,note_off,,,,,128,0,9,,,,,1,,,83,100
4160,note_off,,,,,128,0,10,,,,,2,,,62,100
4160,note_off,,,,,128,0,13,,,,,5,,,67,100
4160,note_off,,,,,128,0,11,,,,,3,,,55,100
4160,note_off,,,,,0,0,13,,,,,5,,,74,100
4160,note_off,,,,,128,0,12,,,,,4,,,43,100
4160,note_off,,,,,128,0,14,,,,,5,,,55,100
4160,note_off,,,,,0,0,9,,,,,1,,,86,100
4160,note_off,,,,,0,0,13,,,,,5,,,71,100
4224,note_on,,,,,64,0,12,,,,,4,,,43,85
4224,note_on,,,,,0,0,13,,,,,5,,,74,100
4224,note_on,,,,,0,0,13,,,,,5,,,71,100
4224,note_on,,,,,64,0,13,,,,,5,,,67,100
4224,note_on,,,,,64,0,10,,,,,2,,,62,85
4224,note_on,,,,,64,0,11,,,,,3,,,55,85
4224,note_on,,,,,64,0,14,,,,,5,,,55,100
4352,note_off,,,,,128,0,10,,,,,2,,,62,100
4352,note_off,,,,,128,0,11,,,,,3,,,55,100
4352,note_off,,,,,128,0,14,,,,,5,,,55,100
4352,note_off,,,,,128,0,12,,,,,4,,,43,100
4352,note_off,,,,,128,0,13,,,,,5,,,67,100
4352,note_off,,,,,0,0,13,,,,,5,,,71,100
4352,note_off,,,,,0,0,13,,,,,5,,,74,100
4416,note_on,,,,,256,0,9,,,,,1,,,79,60
4416,note_on,,,,,64,0,14,,,,,5,,,43,100
4416,note_on,,,,,0,0,9,,,,,1,,,83,60
4416,note_on,,,,,64,0,12,,,,,4,,,43,60
4416,note_on,,,,,64,0,11,,,,,3,,,43,60
4416,note_on,,,,,0,0,13,,,,,5,,,71,100
4416,note_on,,,,,64,0,10,,,,,2,,,62,60
4416,note_on,,,,,64,0,13,,,,,5,,,67,100
4544,note_off,,,,,128,0,14,,,,,5,,,43,100
4544,note_off,,,,,0,0,9,,,,,1,,,83,100
4544,note_off,,,,,0,0,13,,,,,5,,,71,100
4544,note_off,,,,,128,0,10,,,,,2,,,62,100
4544,note_off,,,,,128,0,11,,,,,3,,,43,100
4544,note_off,,,,,128,0,12,,,,,4,,,43,100
4544,note_off,,,,,128,0,9,,,,,1,,,79,100
4544,note_off,,,,,128,0,13,,,,,5,,,67,100
4608,note_on,,,,,64,0,10,,,,,2,,,62,60
4608,note_on,,,,,0,0,13,,,,,5,,,69,100
4608,note_on,,,,,0,0,9,,,,,1,,,81,60
4608,note_on,,,,,64,0,9,,,,,1,,,78,60
4608,note_on,,,,,64,0,11,,,,,3,,,62,60
4608,note_on,,,,,64,0,12,,,,,4,,,50,60
4608,note_on,,,,,64,0,14,,,,,5,,,62,100
4608,note_on,,,,,64,0,13,,,,,5,,,66,100
4672,note_off,,,,,0,0,9,,,,,1,,,81,100
4672,note_off,,,,,64,0,9,,,,,1,,,78,100
4704,note_on,,,,,0,0,9,,,,,1,,,86,60
4704,note_on,,,,,32,0,9,,,,,1,,,81,60
4736,note_off,,,,,128,0,11,,,,,3,,,62,100
4736,note_off,,,,,128,0,12,,,,,4,,,50,100
4736,note_off,,,,,128,0,13,,,,,5,,,66,100
4736,note_off,,,,,0,0,13,,,,,5,,,69,100
4736,note_off,,,,,128,0,10,,,,,2,,,62,100
4736,note_off,,,,,128,0,14,,,,,5,,,62,100
4768,note_off,,,,,0,0,9,,,,,1,,,86,100
4768,note_off,,,,,64,0,9,,,,,1,,,81,100
4800,note_on,,,,,64,0,13,,,,,5,,,66,100
4800,note_on,,,,,0,0,13,,,,,5,,,69,100
4800,note_on,,,,,32,0,9,,,,,1,,,78,60
4800,note_on,,,,,64,0,10,,,,,2,,,62,60
4800,note_on,,,,,64,0,11,,,,,3,,,62,60
4800,note_on,,,,,64,0,12,,,,,4,,,50,60
4800,note_on,,,,,64,0,14,,,,,5,,,62,100
4800,note_on,,,,,0,0,9,,,,,1,,,81,60
4864,note_off,,,,,64,0,9,,,,,1,,,78,100
4864,note_off,,,,,0,0,9,,,,,1,,,81,100
4896,note_on,,,,,32,0,9,,,,,1,,,81,60
4896,note_on,,,,,0,0,9,,,,,1,,,86,60
4928,note_off,,,,,128,0,11,,,,,3,,,62,100
4928,note_off,,,,,128,0,13,,,,,5,,,66,100
4928,note_off,,,,,128,0,12,,,,,4,,,50,100
4928,note_off,,,,,0,0,13,,,,,5,,,69,100
4928,note_off,,,,,128,0,14,,,,,5,,,62,100
4928,note_off,,,,,128,0,10,,,,,2,,,62,100
4960,note_off,,,,,0,0,9,,,,,1,,,86,100
4960,note_off,,,,,64,0,9,,,,,1,,,81,100
4992,note_on,,,,,64,0,14,,,,,5,,,62,100
4992,note_on,,,,,64,0,11,,,,,3,,,62,60
4992,note_on,,,,,0,0,13,,,,,5,,,69,100
4992,note_on,,,,,64,0,13,,,,,5,,,66,100
4992,note_on,,,,,0,0,9,,,,,1,,,81,60
4992,note_on,,,,,32,0,9,,,,,1,,,78,60
4992,note_on,,,,,64,0,10,,,,,2,,,62,60
4992,note_on,,,,,64,0,12,,,,,4,,,50,60
5056,note_off,,,,,0,0,9,,,,,1,,,81,100
5056,note_off,,,,,64,0,9,,,,,1,,,78,100
5088,note_on,,,,,0,0,9,,,,,1,,,86,60
5088,note_on,,,,,32,0,9,,,,,1,,,81,60
5120,note_off,,,,,128,0,12,,,,,4,,,50,100
5120,note_off,,,,,128,0,13,,,,,5,,,66,100
5120,note_off,,,,,128,0,11,,,,,3,,,62,100
5120,note_off,,,,,0,0,13,,,,,5,,,69,100
5120,note_off,,,,,128,0,14,,,,,5,,,62,100
5120,note_off,,,,,128,0,10,,,,,2,,,62,100
5152,note_off,,,,,0,0,9,,,,,1,,,86,100
5152,note_off,,,,,64,0,9,,,,,1,,,81,100
5184,note_on,,,,,0,0,13,,,,,5,,,69,100
5184,note_on,,,,,64,0,11,,,,,3,,,50,60
5184,note_on,,,,,64,0,12,,,,,4,,,38,60
5184,note_on,,,,,32,0,9,,,,,1,,,78,60
5184,note_on,,,,,0,0,9,,,,,1,,,81,60
5184,note_on,,,,,64,0,14,,,,,5,,,50,100
5184,note_on,,,,,64,0,10,,,,,2,,,62,60
5184,note_on,,,,,64,0,13,,,,,5,,,66,100
5248,note_off,,,,,64,0,9,,,,,1,,,78,100
5248,note_off,,,,,0,0,9,,,,,1,,,81,100
5280,note_on,,,,,0,0,9,,,,,1,,,86,60
5280,note_on,,,,,32,0,9,,,,,1,,,81,60
5312,note_off,,,,,0,0,13,,,,,5,,,69,100
5312,note_off,,,,,128,0,12,,,,,4,,,38,100
5312,note_off,,,,,128,0,11,,,,,3,,,50,100
5312,note_off,,,,,128,0,13,,,,,5,,,66,100
5312,note_off,,,,,128,0,14,,,,,5,,,50,100
5312,note_off,,,,,128,0,10,,,,,2,,,62,100
5344,note_off,,,,,0,0,9,,,,,1,,,86,100
5344,note_off,,,,,64,0,9,,,,,1,,,81,100
5376,note_on,,,,,64,0,12,,,,,4,,,43,60
5376,note_on,,,,,64,0,14,,,,,5,,,55,100
5376,note_on,,,,,0,0,13,,,,,5,,,71,100
5376,note_on,,,,,64,0,13,,,,,5,,,67,100
5376,note_on,,,,,64,0,11,,,,,3,,,55,60
5376,note_on,,,,,32,0,9,,,,,1,,,79,60
5376,note_on,,,,,0,0,9,,,,,1,,,83,60
5376,note_on,,,,,64,0,10,,,,,2,,,62,60
5504,note_off,,,,,128,0,10,,,,,2,,,62,100
5504,note_off,,,,,128,0,9,,,,,1,,,79,100
5504,note_off,,,,,0,0,9,,,,,1,,,83,100
5504,note_off,,,,,128,0,14,,,,,5,,,55,100
5504,note_off,,,,,128,0,11,,,,,3,,,55,100
5504,note_off,,,,,128,0,12,,,,,4,,,43,100
5504,note_off,,,,,0,0,13,,,,,5,,,71,100
5504,note_off,,,,,128,0,13,,,,,5,,,67,100
5568,note_on,,,,,64,0,14,,,,,5,,,55,100
5568,note_on,,,,,0,0,13,,,,,5,,,71,100
5568,note_on,,,,,64,0,11,,,,,3,,,55,60
5568,note_on,,,,,0,0,9,,,,,1,,,86,60
5568,note_on,,,,,64,0,9,,,,,1,,,83,60
5568,note_on,,,,,64,0,10,,,,,2,,,62,60
5568,note_on,,,,,64,0,13,,,,,5,,,67,100
5568,note_on,,,,,64,0,12,,,,,4,,,43,60
5696,note_off,,,,,0,0,9,,,,,1,,,86,100
5696,note_off,,,,,128,0,9,,,,,1,,,83,100
5696,note_off,,,,,128,0,12,,,,,4,,,43,100
5696,note_off,,,,,128,0,10,,,,,2,,,62,100
5696,note_off,,,,,128,0,14,,,,,5,,,55,100
5696,note_off,,,,,128,0,11,,,,,3,,,55,100
5696,note_off,,,,,0,0,13,,,,,5,,,71,100
5696,note_off,,,,,128,0,13,,,,,5,,,67,100
5760,note_on,,,,,64,0,12,,,,,4,,,43,60
5760,note_on,,,,,64,0,11,,,,,3,,,55,60
5760,note_on,,,,,64,0,14,,,,,5,,,55,100
5760,note_on,,,,,64,0,10,,,,,2,,,62,60
5760,note_on,,,,,64,0,13,,,,,5,,,67,100
5760,note_on,,,,,0,0,13,,,,,5,,,71,100
5888,note_off,,,,,0,0,13,,,,,5,,,71,100
5888,note_off,,,,,128,0,10,,,,,2,,,62,100
5888,note_off,,,,,128,0,13,,,,,5,,,67,100
5888,note_off,,,,,128,0,14,,,,,5,,,55,100
5888,note_off,,,,,128,0,12,,,,,4,,,43,100
5888,note_off,,,,,128,0,11,,,,,3,,,55,100
5952,note_on,,,,,0,0,13,,,,,5,,,71,100
5952,note_on,,,,,256,0,9,,,,,1,,,79,85
5952,note_on,,,,,64,0,12,,,,,4,,,43,85
5952,note_on,,,,,0,0,13,,,,,5,,,67,100
5952,note_on,,,,,64,0,14,,,,,5,,,43,100
5952,note_on,,,,,64,0,13,,,,,5,,,62,100
5952,note_on,,,,,0,0,10,,,,,2,,,62,85
5952,note_on,,,,,64,0,10,,,,,2,,,71,85
5952,note_on,,,,,64,0,11,,,,,3,,,43,85
6080,note_off,,,,,128,0,14,,,,,5,,,43,100
6080,note_off,,,,,128,0,11,,,,,3,,,43,100
6080,note_off,,,,,128,0,9,,,,,1,,,79,100
6080,note_off,,,,,128,0,12,,,,,4,,,43,100
6080,note_off,,,,,0,0,13,,,,,5,,,71,100
6080,note_off,,,,,0,0,10,,,,,2,,,62,100
6080,note_off,,,,,128,0,10,,,,,2,,,71,100
6080,note_off,,,,,0,0,13,,,,,5,,,67,100
6080,note_off,,,,,128,0,13,,,,,5,,,62,100
6144,note_on,,,,,64,0,10,,,,,2,,,69,86
6144,note_on,,,,,64,0,14,,,,,5,,,50,100
6144,note_on,,,,,64,0,13,,,,,5,,,62,100
6144,note_on,,,,,0,0,10,,,,,2,,,62,86
6144,note_on,,,,,0,0,13,,,,,5,,,66,100
6144,note_on,,,,,64,0,9,,,,,1,,,78,86
6144,note_on,,,,,64,0,11,,,,,3,,,50,86
6144,note_on,,,,,64,0,12,,,,,4,,,38,86
6144,note_on,,,,,0,0,13,,,,,5,,,69,100
6208,note_off,,,,,64,0,9,,,,,1,,,78,100
6240,note_on,,,,,32,0,9,,,,,1,,,76,87
6272,note_off,,,,,128,0,10,,,,,2,,,69,100
6272,note_off,,,,,0,0,10,,,,,2,,,62,100
6304,note_off,,,,,64,0,9,,,,,1,,,76,100
6336,note_on,,,,,64,0,10,,,,,2,,,74,87
6336,note_on,,,,,0,0,10,,,,,2,,,69,87
6336,note_on,,,,,32,0,9,,,,,1,,,74,87
6400,note_off,,,,,0,0,13,,,,,5,,,69,100
6400,note_off,,,,,64,0,9,,,,,1,,,74,100
6400,note_off,,,,,256,0,11,,,,,3,,,50,100
6400,note_off,,,,,256,0,13,,,,,5,,,62,100
6400,note_off,,,,,0,0,13,,,,,5,,,66,100
6400,note_off,,,,,256,0,12,,,,,4,,,38,100
6400,note_off,,,,,256,0,14,,,,,5,,,50,100
6432,note_on,,,,,32,0,9,,,,,1,,,78,88
6464,note_off,,,,,128,0,10,,,,,2,,,74,100
6464,note_off,,,,,0,0,10,,,,,2,,,69,100
6496,note_off,,,,,64,0,9,,,,,1,,,78,100
6528,note_on,,,,,32,0,9,,,,,1,,,79,89
6528,note_on,,,,,0,0,10,,,,,2,,,71,89
6528,note_on,,,,,128,0,14,,,,,5,,,52,100
6528,note_on,,,,,128,0,11,,,,,3,,,52,89
6528,note_on,,,,,128,0,13,,,,,5,,,67,100
6528,note_on,,,,,128,0,12,,,,,4,,,40,89
6528,note_on,,,,,0,0,13,,,,,5,,,71,100
6528,note_on,,,,,64,0,10,,,,,2,,,67,89
6592,note_off,,,,,64,0,9,,,,,1,,,79,100
6624,note_on,,,,,32,0,9,,,,,1,,,78,89
6688,note_off,,,,,64,0,9,,,,,1,,,78,100
6720,note_on,,,,,32,0,9,,,,,1,,,76,90
6784,note_off,,,,,256,0,11,,,,,3,,,52,100
6784,note_off,,,,,256,0,10,,,,,2,,,67,100
6784,note_off,,,,,0,0,10,,,,,2,,,71,100
6784,note_off,,,,,256,0,14,,,,,5,,,52,100
6784,note_off,,,,,256,0,13,,,,,5,,,67,100
6784,note_off,,,,,64,0,9,,,,,1,,,76,100
6784,note_off,,,,,256,0,12,,,,,4,,,40,100
6784,note_off,,,,,0,0,13,,,,,5,,,71,100
6816,note_on,,,,,32,0,9,,,,,1,,,79,91
6880,note_off,,,,,64,0,9,,,,,1,,,79,100
6912,note_on,,,,,128,0,14,,,,,5,,,54,100
6912,note_on,,,,,0,0,10,,,,,2,,,69,91
6912,note_on,,,,,128,0,10,,,,,2,,,62,91
6912,note_on,,,,,128,0,12,,,,,4,,,42,91
6912,note_on,,,,,128,0,13,,,,,5,,,74,100
6912,note_on,,,,,128,0,11,,,,,3,,,54,91
6912,note_on,,,,,32,0,9,,,,,1,,,81,91
6912,note_on,,,,,0,0,13,,,,,5,,,69,100
6976,note_off,,,,,64,0,9,,,,,1,,,81,100
7008,note_on,,,,,32,0,9,,,,,1,,,79,92
7072,note_off,,,,,64,0,9,,,,,1,,,79,100
7104,note_on,,,,,32,0,9,,,,,1,,,78,93
7168,note_off,,,,,256,0,11,,,,,3,,,54,100
7168,note_off,,,,,256,0,13,,,,,5,,,74,100
7168,note_off,,,,,256,0,10,,,,,2,,,69,100
7168,note_off,,,,,0,0,13,,,,,5,,,69,100
7168,note_off,,,,,256,0,14,,,,,5,,,54,100
7168,note_off,,,,,256,0,12,,,,,4,,,42,100
7168,note_off,,,,,64,0,9,,,,,1,,,78,100
7200,note_on,,,,,32,0,9,,,,,1,,,81,93
7264,note_off,,,,,64,0,9,,,,,1,,,81,100
7296,note_on,,,,,32,0,9,,,,,1,,,83,94
7296,note_on,,,,,0,0,13,,,,,5,,,74,100
7296,note_on,,,,,128,0,13,,,,,5,,,71,100
7296,note_on,,,,,128,0,14,,,,,5,,,55,100
7296,note_on,,,,,128,0,10,,,,,2,,,67,94
7296,note_on,,,,,128,0,11,,,,,3,,,55,94
7296,note_on,,,,,128,0,12,,,,,4,,,43,94
7360,note_off,,,,,64,0,9,,,,,1,,,83,100
7392,note_on,,,,,32,0,9,,,,,1,,,81,95
7424,note_off,,,,,128,0,10,,,,,2,,,62,100
7424,note_off,,,,,0,0,10,,,,,2,,,67,100
7456,note_off,,,,,64,0,9,,,,,1,,,81,100
7488,note_on,,,,,64,0,10,,,,,2,,,71,95
7488,note_on,,,,,32,0,9,,,,,1,,,79,95
7552,note_off,,,,,64,0,9,,,,,1,,,79,100
7552,note_off,,,,,0,0,13,,,,,5,,,74,100
7552,note_off,,,,,256,0,13,,,,,5,,,71,100
7584,note_on,,,,,32,0,9,,,,,1,,,83,96
7616,note_off,,,,,128,0,10,,,,,2,,,71,100
7648,note_off,,,,,64,0,9,,,,,1,,,83,100
7680,note_on,,,,,32,0,9,,,,,1,,,85,97
7680,note_on,,,,,64,0,10,,,,,2,,,64,97
7680,note_on,,,,,0,0,13,,,,,5,,,69,100
7680,note_on,,,,,0,0,13,,,,,5,,,73,100
7680,note_on,,,,,0,0,10,,,,,2,,,69,97
7680,note_on,,,,,128,0,13,,,,,5,,,76,100
7744,note_off,,,,,64,0,9,,,,,1,,,85,100
7776,note_on,,,,,32,0,9,,,,,1,,,83,97
7808,note_off,,,,,512,0,11,,,,,3,,,55,100
7808,note_off,,,,,512,0,14,,,,,5,,,55,100
7808,note_off,,,,,512,0,12,,,,,4,,,43,100
7840,note_off,,,,,64,0,9,,,,,1,,,83,100
7872,note_on,,,,,32,0,9,,,,,1,,,81,98
7936,note_off,,,,,256,0,10,,,,,2,,,64,100
7936,note_off,,,,,64,0,9,,,,,1,,,81,100
7936,note_off,,,,,0,0,13,,,,,5,,,73,100
7936,note_off,,,,,256,0,13,,,,,5,,,76,100
7936,note_off,,,,,0,0,13,,,,,5,,,69,100
7968,note_on,,,,,32,0,9,,,,,1,,,85,99
8032,note_off,,,,,64,0,9,,,,,1,,,85,100
8064,note_off,,,,,128,0,10,,,,,2,,,69,100
8064,note_on,,,,,0,0,10,,,,,2,,,62,99
8064,note_on,,,,,256,0,14,,,,,5,,,54,100
8064,note_on,,,,,32,0,9,,,,,1,,,86,99
8064,note_on,,,,,0,0,13,,,,,5,,,69,100
8064,note_on,,,,,256,0,11,,,,,3,,,54,99
8064,note_on,,,,,256,0,12,,,,,4,,,42,99
8064,note_on,,,,,128,0,13,,,,,5,,,74,100
8192,note_off,,,,,128,0,13,,,,,5,,,69,100
8192,note_off,,,,,128,0,9,,,,,1,,,86,100
8192,note_off,,,,,128,0,12,,,,,4,,,42,100
8192,note_off,,,,,128,0,14,,,,,5,,,54,100
8192,note_off,,,,,128,0,10,,,,,2,,,62,100
8192,note_off,,,,,128,0,11,,,,,3,,,54,100
8256,note_on,,,,,64,0,10,,,,,2,,,71,100
8256,note_on,,,,,0,0,10,,,,,2,,,74,100
8256,note_on,,,,,64,0,13,,,,,5,,,71,100
8256,note_on,,,,,64,0,11,,,,,3,,,55,100
8256,note_on,,,,,64,0,12,,,,,4,,,43,100
8256,note_on,,,,,64,0,14,,,,,5,,,55,100
8256,note_on,,,,,64,0,9,,,,,1,,,79,100
8320,note_off,,,,,64,0,13,,,,,5,,,74,100
8384,note_off,,,,,128,0,10,,,,,2,,,71,100
8384,note_off,,,,,0,0,10,,,,,2,,,74,100
8384,note_off,,,,,128,0,11,,,,,3,,,55,100
8384,note_off,,,,,128,0,9,,,,,1,,,79,100
8384,note_off,,,,,128,0,14,,,,,5,,,55,100
8384,note_off,,,,,128,0,12,,,,,4,,,43,100
8384,note_off,,,,,64,0,13,,,,,5,,,71,100
8448,note_on,,,,,64,0,12,,,,,4,,,45,100
8448,note_on,,,,,64,0,10,,,,,2,,,69,100
8448,note_on,,,,,64,0,9,,,,,1,,,78,100
8448,note_on,,,,,64,0,14,,,,,5,,,57,100
8448,note_on,,,,,0,0,13,,,,,5,,,74,100
8448,note_on,,,,,0,0,10,,,,,2,,,74,100
8448,note_on,,,,,64,0,13,,,,,5,,,69,100
8448,note_on,,,,,64,0,11,,,,,3,,,57,100
8448,note_on,,,,,0,0,13,,,,,5,,,66,100
8704,note_off,,,,,256,0,10,,,,,2,,,69,100
8704,note_off,,,,,0,0,10,,,,,2,,,74,100
8704,note_off,,,,,256,0,12,,,,,4,,,45,100
8704,note_off,,,,,0,0,13,,,,,5,,,66,100
8704,note_off,,,,,256,0,13,,,,,5,,,69,100
8704,note_off,,,,,0,0,13,,,,,5,,,74,100
8704,note_off,,,,,256,0,9,,,,,1,,,78,100
8704,note_off,,,,,256,0,11,,,,,3,,,57,100
8704,note_off,,,,,256,0,14,,,,,5,,,57,100
8832,note_on,,,,,128,0,11,,,,,3,,,45,100
8832,note_on,,,,,128,0,13,,,,,5,,,69,100
8832,note_on,,,,,0,0,13,,,,,5,,,73,100
8832,note_on,,,,,0,0,10,,,,,2,,,73,100
8832,note_on,,,,,0,0,13,,,,,5,,,64,100
8832,note_on,,,,,128,0,9,,,,,1,,,76,100
8832,note_on,,,,,128,0,10,,,,,2,,,69,100
8832,note_on,,,,,128,0,12,,,,,4,,,33,100
8832,note_on,,,,,128,0,14,,,,,5,,,45,100
9088,note_off,,,,,256,0,11,,,,,3,,,45,100
9088,note_off,,,,,256,0,13,,,,,5,,,69,100
9088,note_off,,,,,0,0,13,,,,,5,,,73,100
9088,note_off,,,,,0,0,13,,,,,5,,,64,100
9088,note_off,,,,,256,0,12,,,,,4,,,33,100
9088,note_off,,,,,256,0,14,,,,,5,,,45,100
9088,note_off,,,,,256,0,10,,,,,2,,,69,100
9088,note_off,,,,,0,0,10,,,,,2,,,73,100
9088,note_off,,,,,256,0,9,,,,,1,,,76,100
9216,note_on,,,,,128,0,10,,,,,2,,,66,100
9216,note_on,,,,,128,0,9,,,,,1,,,74,100
9216,note_on,,,,,0,0,13,,,,,5,,,66,100
9216,note_on,,,,,0,0,10,,,,,2,,,74,100
9216,note_on,,,,,128,0,11,,,,,3,,,50,100
9216,note_on,,,,,128,0,14,,,,,5,,,50,100
9216,note_on,,,,,128,0,13,,,,,5,,,74,100
9216,note_on,,,,,0,0,13,,,,,5,,,69,100
9216,note_on,,,,,128,0,12,,,,,4,,,38,100
9344,note_off,,,,,128,0,11,,,,,3,,,50,100
9344,note_off,,,,,128,0,12,,,,,4,,,38,100
9344,note_off,,,,,0,0,10,,,,,2,,,74,100
9344,note_off,,,,,128,0,10,,,,,2,,,66,100
9344,note_off,,,,,128,0,14,,,,,5,,,50,100
9408,note_on,,,,,64,0,11,,,,,3,,,50,70
9408,note_on,,,,,64,0,10,,,,,2,,,62,70
9408,note_on,,,,,64,0,12,,,,,4,,,38,70
9408,note_on,,,,,64,0,14,,,,,5,,,50,100
9472,note_off,,,,,0,0,13,,,,,5,,,66,100
9472,note_off,,,,,0,0,13,,,,,5,,,69,100
9472,note_off,,,,,256,0,13,,,,,5,,,74,100
9472,note_off,,,,,256,0,9,,,,,1,,,74,100
9536,note_off,,,,,128,0,14,,,,,5,,,50,100
9536,note_off,,,,,128,0,11,,,,,3,,,50,100
9536,note_off,,,,,128,0,10,,,,,2,,,62,100
9536,note_off,,,,,128,0,12,,,,,4,,,38,100
9600,note_on,,,,,64,0,14,,,,,5,,,48,100
9600,note_on,,,,,64,0,12,,,,,4,,,36,71
9600,note_on,,,,,64,0,11,,,,,3,,,48,71
9600,note_on,,,,,64,0,10,,,,,2,,,62,71
9600,note_on,,,,,128,0,13,,,,,5,,,66,100
9600,note_on,,,,,0,0,13,,,,,5,,,62,100
9696,note_on,,,,,224,0,9,,,,,1,,,62,71
9728,note_off,,,,,128,0,11,,,,,3,,,48,100
9728,note_off,,,,,128,0,12,,,,,4,,,36,100
9728,note_off,,,,,128,0,10,,,,,2,,,62,100
9728,note_off,,,,,128,0,14,,,,,5,,,48,100
9760,note_off,,,,,64,0,9,,,,,1,,,62,100
9792,note_on,,,,,64,0,11,,,,,3,,,48,72
9792,note_on,,,,,64,0,12,,,,,4,,,36,72
9792,note_on,,,,,64,0,14,,,,,5,,,48,100
9792,note_on,,,,,32,0,9,,,,,1,,,64,72
9792,note_on,,,,,64,0,10,,,,,2,,,62,72
9856,note_off,,,,,0,0,13,,,,,5,,,62,100
9856,note_off,,,,,256,0,13,,,,,5,,,66,100
9856,note_off,,,,,64,0,9,,,,,1,,,64,100
9888,note_on,,,,,32,0,9,,,,,1,,,66,72
9920,note_off,,,,,128,0,10,,,,,2,,,62,100
9920,note_off,,,,,128,0,14,,,,,5,,,48,100
9920,note_off,,,,,128,0,11,,,,,3,,,48,100
9920,note_off,,,,,128,0,12,,,,,4,,,36,100
9952,note_off,,,,,64,0,9,,,,,1,,,66,100
9984,note_on,,,,,64,0,10,,,,,2,,,62,72
9984,note_on,,,,,64,0,11,,,,,3,,,47,72
9984,note_on,,,,,64,0,12,,,,,4,,,35,72
9984,note_on,,,,,64,0,14,,,,,5,,,47,100
9984,note_on,,,,,32,0,9,,,,,1,,,67,72
9984,note_on,,,,,0,0,13,,,,,5,,,62,100
9984,note_on,,,,,128,0,13,,,,,5,,,67,100
10048,note_off,,,,,64,0,9,,,,,1,,,67,100
10080,note_on,,,,,32,0,9,,,,,1,,,69,73
10112,note_off,,,,,128,0,14,,,,,5,,,47,100
10112,note_off,,,,,128,0,11,,,,,3,,,47,100
10112,note_off,,,,,128,0,12,,,,,4,,,35,100
10112,note_off,,,,,128,0,10,,,,,2,,,62,100
10144,note_off,,,,,64,0,9,,,,,1,,,69,100
10176,note_on,,,,,64,0,11,,,,,3,,,47,73
10176,note_on,,,,,32,0,9,,,,,1,,,71,73
10176,note_on,,,,,64,0,14,,,,,5,,,47,100
10176,note_on,,,,,64,0,12,,,,,4,,,35,73
10176,note_on,,,,,64,0,10,,,,,2,,,62,73
10240,note_off,,,,,0,0,13,,,,,5,,,62,100
10240,note_off,,,,,64,0,9,,,,,1,,,71,100
10240,note_off,,,,,256,0,13,,,,,5,,,67,100
10272,note_on,,,,,32,0,9,,,,,1,,,72,74
10304,note_off,,,,,128,0,10,,,,,2,,,62,100
10304,note_off,,,,,128,0,12,,,,,4,,,35,100
10304,note_off,,,,,128,0,11,,,,,3,,,47,100
10304,note_off,,,,,128,0,14,,,,,5,,,47,100
10336,note_off,,,,,64,0,9,,,,,1,,,72,100
10368,note_on,,,,,64,0,12,,,,,4,,,35,74
10368,note_on,,,,,0,0,13,,,,,5,,,67,100
10368,note_on,,,,,128,0,13,,,,,5,,,65,100
10368,note_on,,,,,64,0,11,,,,,3,,,47,74
10368,note_on,,,,,64,0,10,,,,,2,,,62,74
10368,note_on,,,,,32,0,9,,,,,1,,,74,74
10368,note_on,,,,,64,0,14,,,,,5,,,47,100
10496,note_off,,,,,128,0,14,,,,,5,,,47,100
10496,note_off,,,,,128,0,12,,,,,4,,,35,100
10496,note_off,,,,,128,0,11,,,,,3,,,47,100
10496,note_off,,,,,128,0,10,,,,,2,,,62,100
10496,note_off,,,,,128,0,9,,,,,1,,,74,100
10560,note_on,,,,,64,0,12,,,,,4,,,35,75
10560,note_on,,,,,64,0,11,,,,,3,,,47,75
10560,note_on,,,,,64,0,14,,,,,5,,,47,100
10560,note_on,,,,,64,0,10,,,,,2,,,62,75
10560,note_on,,,,,64,0,9,,,,,1,,,65,75
10624,note_off,,,,,256,0,13,,,,,5,,,65,100
10624,note_off,,,,,0,0,13,,,,,5,,,67,100
10688,note_off,,,,,128,0,11,,,,,3,,,47,100
10688,note_off,,,,,128,0,10,,,,,2,,,62,100
10688,note_off,,,,,128,0,14,,,,,5,,,47,100
10688,note_off,,,,,128,0,12,,,,,4,,,35,100
10688,note_off,,,,,128,0,9,,,,,1,,,65,100
10752,note_on,,,,,64,0,12,,,,,4,,,36,75
10752,note_on,,,,,64,0,11,,,,,3,,,48,75
10752,note_on,,,,,64,0,14,,,,,5,,,48,100
10752,note_on,,,,,0,0,13,,,,,5,,,65,100
10752,note_on,,,,,128,0,13,,,,,5,,,67,100
10752,note_on,,,,,64,0,9,,,,,1,,,65,75
10752,note_on,,,,,64,0,10,,,,,2,,,55,75
10796,note_off,,,,,44,0,9,,,,,1,,,65,100
10800,note_on,,,,,4,0,9,,,,,1,,,67,76
10844,note_off,,,,,44,0,9,,,,,1,,,67,100
10848,note_on,,,,,4,0,9,,,,,1,,,65,76
10880,note_off,,,,,128,0,14,,,,,5,,,48,100
10880,note_off,,,,,128,0,12,,,,,4,,,36,100
10880,note_off,,,,,128,0,10,,,,,2,,,55,100
10880,note_off,,,,,128,0,11,,,,,3,,,48,100
10880,note_off,,,,,128,0,13,,,,,5,,,65,100
10940,note_off,,,,,92,0,9,,,,,1,,,65,100
10944,note_on,,,,,64,0,11,,,,,3,,,48,76
10944,note_on,,,,,64,0,14,,,,,5,,,48,100
10944,note_on,,,,,64,0,13,,,,,5,,,64,100
10944,note_on,,,,,64,0,12,,,,,4,,,36,76
10944,note_on,,,,,4,0,9,,,,,1,,,64,76
10944,note_on,,,,,64,0,10,,,,,2,,,55,76
11008,note_off,,,,,64,0,13,,,,,5,,,67,100
11072,note_off,,,,,128,0,9,,,,,1,,,64,100
11072,note_off,,,,,64,0,13,,,,,5,,,64,100
11072,note_off,,,,,128,0,14,,,,,5,,,48,100
11072,note_off,,,,,128,0,12,,,,,4,,,36,100
11072,note_off,,,,,128,0,10,,,,,2,,,55,100
11072,note_off,,,,,128,0,11,,,,,3,,,48,100
11136,note_on,,,,,64,0,10,,,,,2,,,55,77
11136,note_on,,,,,64,0,11,,,,,3,,,48,77
11136,note_on,,,,,64,0,12,,,,,4,,,36,77
11136,note_on,,,,,64,0,13,,,,,5,,,64,100
11136,note_on,,,,,0,0,13,,,,,5,,,67,100
11136,note_on,,,,,64,0,14,,,,,5,,,48,100
11232,note_on,,,,,160,0,9,,,,,1,,,64,77
11264,note_off,,,,,128,0,11,,,,,3,,,48,100
11264,note_off,,,,,128,0,12,,,,,4,,,36,100
11264,note_off,,,,,128,0,10,,,,,2,,,55,100
11264,note_off,,,,,128,0,14,,,,,5,,,48,100
11296,note_off,,,,,64,0,9,,,,,1,,,64,100
11328,note_on,,,,,64,0,10,,,,,2,,,55,78
11328,note_on,,,,,32,0,9,,,,,1,,,66,78
11328,note_on,,,,,64,0,11,,,,,3,,,48,78
11328,note_on,,,,,64,0,12,,,,,4,,,36,78
11328,note_on,,,,,64,0,14,,,,,5,,,48,100
11392,note_off,,,,,64,0,9,,,,,1,,,66,100
11392,note_off,,,,,0,0,13,,,,,5,,,67,100
11392,note_off,,,,,256,0,13,,,,,5,,,64,100
11424,note_on,,,,,32,0,9,,,,,1,,,67,78
11456,note_off,,,,,128,0,14,,,,,5,,,48,100
11456,note_off,,,,,128,0,11,,,,,3,,,48,100
11456,note_off,,,,,128,0,12,,,,,4,,,36,100
11456,note_off,,,,,128,0,10,,,,,2,,,55,100
11488,note_off,,,,,64,0,9,,,,,1,,,67,100
11520,note_on,,,,,64,0,12,,,,,4,,,37,78
11520,note_on,,,,,32,0,9,,,,,1,,,69,78
11520,note_on,,,,,64,0,10,,,,,2,,,64,78
11520,note_on,,,,,64,0,14,,,,,5,,,49,100
11520,note_on,,,,,128,0,13,,,,,5,,,67,100
11520,note_on,,,,,0,0,13,,,,,5,,,69,100
11520,note_on,,,,,64,0,11,,,,,3,,,49,78
11584,note_off,,,,,64,0,9,,,,,1,,,69,100
11616,note_on,,,,,32,0,9,,,,,1,,,71,79
11648,note_off,,,,,128,0,14,,,,,5,,,49,100
11648,note_off,,,,,128,0,12,,,,,4,,,37,100
11648,note_off,,,,,128,0,11,,,,,3,,,49,100
11648,note_off,,,,,128,0,10,,,,,2,,,64,100
11680,note_off,,,,,64,0,9,,,,,1,,,71,100
11712,note_on,,,,,64,0,10,,,,,2,,,64,79
11712,note_on,,,,,64,0,11,,,,,3,,,49,79
11712,note_on,,,,,32,0,9,,,,,1,,,73,79
11712,note_on,,,,,64,0,12,,,,,4,,,37,79
11712,note_on,,,,,64,0,14,,,,,5,,,49,100
11776,note_off,,,,,0,0,13,,,,,5,,,69,100
11776,note_off,,,,,64,0,9,,,,,1,,,73,100
11776,note_off,,,,,256,0,13,,,,,5,,,67,100
11808,note_on,,,,,32,0,9,,,,,1,,,74,80
11840,note_off,,,,,128,0,12,,,,,4,,,37,100
11840,note_off,,,,,128,0,14,,,,,5,,,49,100
11840,note_off,,,,,128,0,10,,,,,2,,,64,100
11840,note_off,,,,,128,0,11,,,,,3,,,49,100
11872,note_off,,,,,64,0,9,,,,,1,,,74,100
11904,note_on,,,,,0,0,13,,,,,5,,,67,100
11904,note_on,,,,,128,0,13,,,,,5,,,64,100
11904,note_on,,,,,64,0,12,,,,,4,,,37,80
11904,note_on,,,,,64,0,10,,,,,2,,,64,80
11904,note_on,,,,,32,0,9,,,,,1,,,76,80
11904,note_on,,,,,64,0,14,,,,,5,,,49,100
11904,note_on,,,,,64,0,11,,,,,3,,,49,80
12032,note_off,,,,,128,0,9,,,,,1,,,76,100
12032,note_off,,,,,128,0,10,,,,,2,,,64,100
12032,note_off,,,,,128,0,12,,,,,4,,,37,100
12032,note_off,,,,,128,0,11,,,,,3,,,49,100
12032,note_off,,,,,128,0,14,,,,,5,,,49,100
12096,note_on,,,,,64,0,11,,,,,3,,,49,81
12096,note_on,,,,,64,0,12,,,,,4,,,37,81
12096,note_on,,,,,64,0,9,,,,,1,,,67,81
12096,note_on,,,,,64,0,14,,,,,5,,,49,100
12096,note_on,,,,,64,0,10,,,,,2,,,64,81
12160,note_off,,,,,256,0,13,,,,,5,,,64,100
12160,note_off,,,,,0,0,13,,,,,5,,,67,100
12224,note_off,,,,,128,0,12,,,,,4,,,37,100
12224,note_off,,,,,128,0,14,,,,,5,,,49,100
12224,note_off,,,,,128,0,9,,,,,1,,,67,100
12224,note_off,,,,,128,0,10,,,,,2,,,64,100
12224,note_off,,,,,128,0,11,,,,,3,,,49,100
12288,note_on,,,,,64,0,9,,,,,1,,,67,81
12288,note_on,,,,,64,0,10,,,,,2,,,57,81
12288,note_on,,,,,0,0,13,,,,,5,,,67,100
12288,note_on,,,,,64,0,12,,,,,4,,,38,81
12288,note_on,,,,,128,0,13,,,,,5,,,69,100
12288,note_on,,,,,64,0,14,,,,,5,,,50,100
12288,note_on,,,,,64,0,11,,,,,3,,,50,81
12332,note_off,,,,,44,0,9,,,,,1,,,67,100
12336,note_on,,,,,4,0,9,,,,,1,,,69,82
12380,note_off,,,,,44,0,9,,,,,1,,,69,100
12384,note_on,,,,,4,0,9,,,,,1,,,67,82
12416,note_off,,,,,128,0,14,,,,,5,,,50,100
12416,note_off,,,,,128,0,11,,,,,3,,,50,100
12416,note_off,,,,,128,0,12,,,,,4,,,38,100
12416,note_off,,,,,128,0,13,,,,,5,,,67,100
12416,note_off,,,,,128,0,10,,,,,2,,,57,100
12476,note_off,,,,,92,0,9,,,,,1,,,67,100
12480,note_on,,,,,64,0,11,,,,,3,,,50,82
12480,note_on,,,,,64,0,13,,,,,5,,,66,100
12480,note_on,,,,,64,0,10,,,,,2,,,57,82
12480,note_on,,,,,4,0,9,,,,,1,,,66,82
12480,note_on,,,,,64,0,12,,,,,4,,,38,82
12480,note_on,,,,,64,0,14,,,,,5,,,50,100
12544,note_off,,,,,64,0,13,,,,,5,,,69,100
12608,note_off,,,,,128,0,10,,,,,2,,,57,100
12608,note_off,,,,,128,0,11,,,,,3,,,50,100
12608,note_off,,,,,64,0,13,,,,,5,,,66,100
12608,note_off,,,,,128,0,9,,,,,1,,,66,100
12608,note_off,,,,,128,0,12,,,,,4,,,38,100
12608,note_off,,,,,128,0,14,,,,,5,,,50,100
12672,note_on,,,,,0,0,13,,,,,5,,,69,100
12672,note_on,,,,,64,0,13,,,,,5,,,66,100
12672,note_on,,,,,64,0,11,,,,,3,,,50,83
12672,note_on,,,,,64,0,14,,,,,5,,,50,100
12672,note_on,,,,,64,0,12,,,,,4,,,38,83
12672,note_on,,,,,64,0,10,,,,,2,,,57,83
12768,note_on,,,,,160,0,9,,,,,1,,,66,83
12800,note_off,,,,,128,0,11,,,,,3,,,50,100
12800,note_off,,,,,128,0,10,,,,,2,,,57,100
12800,note_off,,,,,128,0,12,,,,,4,,,38,100
12800,note_off,,,,,128,0,14,,,,,5,,,50,100
12832,note_off,,,,,64,0,9,,,,,1,,,66,100
12864,note_on,,,,,32,0,9,,,,,1,,,67,84
12864,note_on,,,,,64,0,12,,,,,4,,,38,84
12864,note_on,,,,,64,0,14,,,,,5,,,50,100
12864,note_on,,,,,64,0,11,,,,,3,,,50,84
12864,note_on,,,,,64,0,10,,,,,2,,,57,84
12928,note_off,,,,,64,0,9,,,,,1,,,67,100
12928,note_off,,,,,0,0,13,,,,,5,,,69,100
12928,note_off,,,,,256,0,13,,,,,5,,,66,100
12960,note_on,,,,,32,0,9,,,,,1,,,69,84
12992,note_off,,,,,128,0,10,,,,,2,,,57,100
12992,note_off,,,,,128,0,14,,,,,5,,,50,100
12992,note_off,,,,,128,0,12,,,,,4,,,38,100
12992,note_off,,,,,128,0,11,,,,,3,,,50,100
13024,note_off,,,,,64,0,9,,,,,1,,,69,100
13056,note_on,,,,,64,0,12,,,,,4,,,38,84
13056,note_on,,,,,128,0,13,,,,,5,,,69,100
13056,note_on,,,,,32,0,9,,,,,1,,,71,84
13056,note_on,,,,,64,0,11,,,,,3,,,50,84
13056,note_on,,,,,0,0,13,,,,,5,,,71,100
13056,note_on,,,,,64,0,14,,,,,5,,,50,100
13056,note_on,,,,,64,0,10,,,,,2,,,66,84
13120,note_off,,,,,64,0,9,,,,,1,,,71,100
13152,note_on,,,,,32,0,9,,,,,1,,,72,85
13184,note_off,,,,,128,0,14,,,,,5,,,50,100
13184,note_off,,,,,128,0,12,,,,,4,,,38,100
13184,note_off,,,,,128,0,11,,,,,3,,,50,100
13184,note_off,,,,,128,0,10,,,,,2,,,66,100
13216,note_off,,,,,64,0,9,,,,,1,,,72,100
13248,note_on,,,,,64,0,14,,,,,5,,,50,100
13248,note_on,,,,,64,0,12,,,,,4,,,38,85
13248,note_on,,,,,64,0,11,,,,,3,,,50,85
13248,note_on,,,,,64,0,10,,,,,2,,,66,85
13248,note_on,,,,,32,0,9,,,,,1,,,74,85
13312,note_off,,,,,64,0,9,,,,,1,,,74,100
13312,note_off,,,,,256,0,13,,,,,5,,,69,100
13312,note_off,,,,,0,0,13,,,,,5,,,71,100
13344,note_on,,,,,32,0,9,,,,,1,,,76,86
13376,note_off,,,,,128,0,12,,,,,4,,,38,100
13376,note_off,,,,,128,0,14,,,,,5,,,50,100
13376,note_off,,,,,128,0,11,,,,,3,,,50,100
13376,note_off,,,,,128,0,10,,,,,2,,,66,100
13408,note_off,,,,,64,0,9,,,,,1,,,76,100
13440,note_on,,,,,32,0,9,,,,,1,,,78,86
13440,note_on,,,,,64,0,12,,,,,4,,,38,86
13440,note_on,,,,,64,0,14,,,,,5,,,50,100
13440,note_on,,,,,128,0,13,,,,,5,,,69,100
13440,note_on,,,,,0,0,13,,,,,5,,,66,100
13440,note_on,,,,,64,0,11,,,,,3,,,50,86
13440,note_on,,,,,64,0,10,,,,,2,,,66,86
13568,note_off,,,,,128,0,9,,,,,1,,,78,100
13568,note_off,,,,,128,0,14,,,,,5,,,50,100
13568,note_off,,,,,128,0,11,,,,,3,,,50,100
13568,note_off,,,,,128,0,10,,,,,2,,,66,100
13568,note_off,,,,,128,0,12,,,,,4,,,38,100
13632,note_on,,,,,64,0,14,,,,,5,,,50,100
13632,note_on,,,,,64,0,9,,,,,1,,,69,87
13632,note_on,,,,,64,0,11,,,,,3,,,50,87
13632,note_on,,,,,64,0,10,,,,,2,,,66,87
13632,note_on,,,,,64,0,12,,,,,4,,,38,87
13696,note_off,,,,,0,0,13,,,,,5,,,66,100
13696,note_off,,,,,256,0,13,,,,,5,,,69,100
13760,note_off,,,,,128,0,9,,,,,1,,,69,100
13760,note_off,,,,,128,0,10,,,,,2,,,66,100
13760,note_off,,,,,128,0,11,,,,,3,,,50,100
13760,note_off,,,,,128,0,12,,,,,4,,,38,100
13760,note_off,,,,,128,0,14,,,,,5,,,50,100
13824,note_on,,,,,64,0,11,,,,,3,,,52,87
13824,note_on,,,,,0,0,13,,,,,5,,,69,100
13824,note_on,,,,,64,0,9,,,,,1,,,69,87
13824,note_on,,,,,64,0,10,,,,,2,,,59,87
13824,note_on,,,,,64,0,12,,,,,4,,,40,87
13824,note_on,,,,,128,0,13,,,,,5,,,71,100
13824,note_on,,,,,64,0,14,,,,,5,,,52,100
13868,note_off,,,,,44,0,9,,,,,1,,,69,100
13872,note_on,,,,,4,0,9,,,,,1,,,71,88
13916,note_off,,,,,44,0,9,,,,,1,,,71,100
13920,note_on,,,,,4,0,9,,,,,1,,,69,88
13952,note_off,,,,,128,0,13,,,,,5,,,69,100
13952,note_off,,,,,128,0,12,,,,,4,,,40,100
13952,note_off,,,,,128,0,11,,,,,3,,,52,100
13952,note_off,,,,,128,0,10,,,,,2,,,59,100
13952,note_off,,,,,128,0,14,,,,,5,,,52,100
14012,note_off,,,,,92,0,9,,,,,1,,,69,100
14016,note_on,,,,,64,0,13,,,,,5,,,67,100
14016,note_on,,,,,4,0,9,,,,,1,,,67,88
14016,note_on,,,,,64,0,11,,,,,3,,,52,88
14016,note_on,,,,,64,0,10,,,,,2,,,59,88
14016,note_on,,,,,64,0,14,,,,,5,,,52,100
14016,note_on,,,,,64,0,12,,,,,4,,,40,88
14080,note_off,,,,,64,0,13,,,,,5,,,71,100
14144,note_off,,,,,64,0,13,,,,,5,,,67,100
14144,note_off,,,,,128,0,14,,,,,5,,,52,100
14144,note_off,,,,,128,0,11,,,,,3,,,52,100
14144,note_off,,,,,128,0,10,,,,,2,,,59,100
14144,note_off,,,,,128,0,9,,,,,1,,,67,100
14144,note_off,,,,,128,0,12,,,,,4,,,40,100
14208,note_on,,,,,64,0,12,,,,,4,,,40,89
14208,note_on,,,,,64,0,14,,,,,5,,,52,100
14208,note_on,,,,,64,0,11,,,,,3,,,52,89
14208,note_on,,,,,64,0,13,,,,,5,,,67,100
14208,note_on,,,,,0,0,13,,,,,5,,,71,100
14208,note_on,,,,,64,0,10,,,,,2,,,59,89
14304,note_on,,,,,160,0,9,,,,,1,,,67,89
14336,note_off,,,,,128,0,12,,,,,4,,,40,100
14336,note_off,,,,,128,0,11,,,,,3,,,52,100
14336,note_off,,,,,128,0,14,,,,,5,,,52,100
14336,note_off,,,,,128,0,10,,,,,2,,,59,100
14368,note_off,,,,,64,0,9,,,,,1,,,67,100
14400,note_on,,,,,64,0,11,,,,,3,,,52,90
14400,note_on,,,,,32,0,9,,,,,1,,,69,90
14400,note_on,,,,,64,0,14,,,,,5,,,52,100
14400,note_on,,,,,64,0,12,,,,,4,,,40,90
14400,note_on,,,,,64,0,10,,,,,2,,,59,90
14464,note_off,,,,,256,0,13,,,,,5,,,67,100
14464,note_off,,,,,0,0,13,,,,,5,,,71,100
14464,note_off,,,,,64,0,9,,,,,1,,,69,100
14496,note_on,,,,,32,0,9,,,,,1,,,71,90
14528,note_off,,,,,128,0,11,,,,,3,,,52,100
14528,note_off,,,,,128,0,10,,,,,2,,,59,100
14528,note_off,,,,,128,0,14,,,,,5,,,52,100
14528,note_off,,,,,128,0,12,,,,,4,,,40,100
14560,note_off,,,,,64,0,9,,,,,1,,,71,100
14592,note_on,,,,,128,0,13,,,,,5,,,72,100
14592,note_on,,,,,0,0,13,,,,,5,,,71,100
14592,note_on,,,,,32,0,9,,,,,1,,,72,90
14592,note_on,,,,,64,0,14,,,,,5,,,52,100
14592,note_on,,,,,64,0,10,,,,,2,,,67,90
14592,note_on,,,,,64,0,11,,,,,3,,,52,90
14592,note_on,,,,,64,0,12,,,,,4,,,40,90
14656,note_off,,,,,64,0,9,,,,,1,,,72,100
14688,note_on,,,,,32,0,9,,,,,1,,,74,91
14720,note_off,,,,,128,0,11,,,,,3,,,52,100
14720,note_off,,,,,128,0,12,,,,,4,,,40,100
14720,note_off,,,,,128,0,14,,,,,5,,,52,100
14720,note_off,,,,,128,0,10,,,,,2,,,67,100
14752,note_off,,,,,64,0,9,,,,,1,,,74,100
14784,note_on,,,,,32,0,9,,,,,1,,,76,91
14784,note_on,,,,,64,0,11,,,,,3,,,52,91
14784,note_on,,,,,64,0,10,,,,,2,,,67,91
14784,note_on,,,,,64,0,14,,,,,5,,,52,100
14784,note_on,,,,,64,0,12,,,,,4,,,40,91
14848,note_off,,,,,64,0,9,,,,,1,,,76,100
14848,note_off,,,,,0,0,13,,,,,5,,,71,100
14848,note_off,,,,,256,0,13,,,,,5,,,72,100
14880,note_on,,,,,32,0,9,,,,,1,,,78,92
14912,note_off,,,,,128,0,12,,,,,4,,,40,100
14912,note_off,,,,,128,0,11,,,,,3,,,52,100
14912,note_off,,,,,128,0,14,,,,,5,,,52,100
14912,note_off,,,,,128,0,10,,,,,2,,,67,100
14944,note_off,,,,,64,0,9,,,,,1,,,78,100
14976,note_on,,,,,32,0,9,,,,,1,,,79,92
14976,note_on,,,,,128,0,13,,,,,5,,,67,100
14976,note_on,,,,,0,0,13,,,,,5,,,71,100
14976,note_on,,,,,64,0,12,,,,,4,,,40,92
14976,note_on,,,,,64,0,14,,,,,5,,,52,100
14976,note_on,,,,,64,0,10,,,,,2,,,67,92
14976,note_on,,,,,64,0,11,,,,,3,,,52,92
15104,note_off,,,,,128,0,12,,,,,4,,,40,100
15104,note_off,,,,,128,0,11,,,,,3,,,52,100
15104,note_off,,,,,128,0,14,,,,,5,,,52,100
15104,note_off,,,,,128,0,9,,,,,1,,,79,100
15104,note_off,,,,,128,0,10,,,,,2,,,67,100
15168,note_on,,,,,64,0,9,,,,,1,,,71,93
15168,note_on,,,,,64,0,14,,,,,5,,,52,100
15168,note_on,,,,,64,0,12,,,,,4,,,40,93
15168,note_on,,,,,64,0,10,,,,,2,,,67,93
15168,note_on,,,,,64,0,11,,,,,3,,,52,93
15232,note_off,,,,,256,0,13,,,,,5,,,67,100
15232,note_off,,,,,0,0,13,,,,,5,,,71,100
15296,note_off,,,,,128,0,11,,,,,3,,,52,100
15296,note_off,,,,,128,0,10,,,,,2,,,67,100
15296,note_off,,,,,128,0,9,,,,,1,,,71,100
15296,note_off,,,,,128,0,14,,,,,5,,,52,100
15296,note_off,,,,,128,0,12,,,,,4,,,40,100
15360,note_on,,,,,64,0,9,,,,,1,,,71,93
15360,note_on,,,,,0,0,13,,,,,5,,,72,100
15360,note_on,,,,,64,0,10,,,,,2,,,60,93
15360,note_on,,,,,64,0,11,,,,,3,,,54,93
15360,note_on,,,,,128,0,13,,,,,5,,,71,100
15360,note_on,,,,,64,0,12,,,,,4,,,42,93
15360,note_on,,,,,64,0,14,,,,,5,,,54,100
15404,note_off,,,,,44,0,9,,,,,1,,,71,100
15408,note_on,,,,,4,0,9,,,,,1,,,72,94
15452,note_off,,,,,44,0,9,,,,,1,,,72,100
15456,note_on,,,,,4,0,9,,,,,1,,,71,94
15488,note_off,,,,,128,0,12,,,,,4,,,42,100
15488,note_off,,,,,128,0,11,,,,,3,,,54,100
15488,note_off,,,,,128,0,10,,,,,2,,,60,100
15488,note_off,,,,,128,0,13,,,,,5,,,71,100
15488,note_off,,,,,128,0,14,,,,,5,,,54,100
15548,note_off,,,,,92,0,9,,,,,1,,,71,100
15552,note_on,,,,,64,0,10,,,,,2,,,60,94
15552,note_on,,,,,4,0,9,,,,,1,,,69,94
15552,note_on,,,,,64,0,11,,,,,3,,,54,94
15552,note_on,,,,,64,0,14,,,,,5,,,54,100
15552,note_on,,,,,64,0,13,,,,,5,,,69,100
15552,note_on,,,,,64,0,12,,,,,4,,,42,94
15616,note_off,,,,,64,0,13,,,,,5,,,72,100
15680,note_off,,,,,128,0,11,,,,,3,,,54,100
15680,note_off,,,,,128,0,12,,,,,4,,,42,100
15680,note_off,,,,,64,0,13,,,,,5,,,69,100
15680,note_off,,,,,128,0,9,,,,,1,,,69,100
15680,note_off,,,,,128,0,14,,,,,5,,,54,100
15680,note_off,,,,,128,0,10,,,,,2,,,60,100
15744,note_on,,,,,64,0,14,,,,,5,,,54,100
15744,note_on,,,,,64,0,13,,,,,5,,,69,100
15744,note_on,,,,,0,0,13,,,,,5,,,72,100
15744,note_on,,,,,64,0,10,,,,,2,,,60,95
15744,note_on,,,,,64,0,11,,,,,3,,,54,95
15744,note_on,,,,,64,0,12,,,,,4,,,42,95
15840,note_on,,,,,160,0,9,,,,,1,,,69,95
15872,note_off,,,,,128,0,11,,,,,3,,,54,100
15872,note_off,,,,,128,0,10,,,,,2,,,60,100
15872,note_off,,,,,128,0,12,,,,,4,,,42,100
15872,note_off,,,,,128,0,14,,,,,5,,,54,100
15904,note_off,,,,,64,0,9,,,,,1,,,69,100
15936,note_on,,,,,64,0,10,,,,,2,,,60,96
15936,note_on,,,,,64,0,14,,,,,5,,,54,100
15936,note_on,,,,,32,0,9,,,,,1,,,71,96
15936,note_on,,,,,64,0,12,,,,,4,,,42,96
15936,note_on,,,,,64,0,11,,,,,3,,,54,96
16000,note_off,,,,,256,0,13,,,,,5,,,69,100
16000,note_off,,,,,0,0,13,,,,,5,,,72,100
16000,note_off,,,,,64,0,9,,,,,1,,,71,100
16032,note_on,,,,,32,0,9,,,,,1,,,72,96
16064,note_off,,,,,128,0,10,,,,,2,,,60,100
16064,note_off,,,,,128,0,14,,,,,5,,,54,100
16064,note_off,,,,,128,0,12,,,,,4,,,42,100
16064,note_off,,,,,128,0,11,,,,,3,,,54,100
16096,note_off,,,,,64,0,9,,,,,1,,,72,100
16128,note_on,,,,,64,0,10,,,,,2,,,57,96
16128,note_on,,,,,64,0,12,,,,,4,,,42,96
16128,note_on,,,,,32,0,9,,,,,1,,,74,96
16128,note_on,,,,,64,0,14,,,,,5,,,54,100
16128,note_on,,,,,128,0,13,,,,,5,,,72,100
16128,note_on,,,,,64,0,11,,,,,3,,,54,96
16128,note_on,,,,,0,0,13,,,,,5,,,74,100
16192,note_off,,,,,64,0,9,,,,,1,,,74,100
16224,note_on,,,,,32,0,9,,,,,1,,,76,97
16256,note_off,,,,,128,0,11,,,,,3,,,54,100
16256,note_off,,,,,128,0,10,,,,,2,,,57,100
16256,note_off,,,,,128,0,12,,,,,4,,,42,100
16256,note_off,,,,,128,0,14,,,,,5,,,54,100
16288,note_off,,,,,64,0,9,,,,,1,,,76,100
16320,note_on,,,,,64,0,14,,,,,5,,,54,100
16320,note_on,,,,,32,0,9,,,,,1,,,78,97
16320,note_on,,,,,64,0,11,,,,,3,,,54,97
16320,note_on,,,,,64,0,10,,,,,2,,,57,97
16320,note_on,,,,,64,0,12,,,,,4,,,42,97
16384,note_off,,,,,0,0,13,,,,,5,,,74,100
16384,note_off,,,,,256,0,13,,,,,5,,,72,100
16384,note_off,,,,,64,0,9,,,,,1,,,78,100
16416,note_on,,,,,32,0,9,,,,,1,,,79,98
16448,note_off,,,,,128,0,14,,,,,5,,,54,100
16448,note_off,,,,,128,0,10,,,,,2,,,57,100
16448,note_off,,,,,128,0,11,,,,,3,,,54,100
16448,note_off,,,,,128,0,12,,,,,4,,,42,100
16480,note_off,,,,,64,0,9,,,,,1,,,79,100
16512,note_on,,,,,64,0,10,,,,,2,,,57,98
16512,note_on,,,,,64,0,11,,,,,3,,,54,98
16512,note_on,,,,,64,0,12,,,,,4,,,42,98
16512,note_on,,,,,32,0,9,,,,,1,,,81,98
16512,note_on,,,,,64,0,14,,,,,5,,,54,100
16512,note_on,,,,,128,0,13,,,,,5,,,72,100
16640,note_off,,,,,128,0,14,,,,,5,,,54,100
16640,note_off,,,,,128,0,11,,,,,3,,,54,100
16640,note_off,,,,,128,0,9,,,,,1,,,81,100
16640,note_off,,,,,128,0,12,,,,,4,,,42,100
16640,note_off,,,,,128,0,10,,,,,2,,,57,100
16704,note_on,,,,,64,0,9,,,,,1,,,72,99
16704,note_on,,,,,64,0,10,,,,,2,,,57,99
16704,note_on,,,,,64,0,12,,,,,4,,,42,99
16704,note_on,,,,,64,0,11,,,,,3,,,54,99
16704,note_on,,,,,64,0,14,,,,,5,,,54,100
16768,note_off,,,,,256,0,13,,,,,5,,,72,100
16832,note_off,,,,,128,0,14,,,,,5,,,54,100
16832,note_off,,,,,128,0,10,,,,,2,,,57,100
16832,note_off,,,,,128,0,12,,,,,4,,,42,100
16832,note_off,,,,,128,0,11,,,,,3,,,54,100
16832,note_off,,,,,128,0,9,,,,,1,,,72,100
16896,note_on,,,,,64,0,10,,,,,2,,,62,99
16896,note_on,,,,,64,0,9,,,,,1,,,71,99
16896,note_on,,,,,64,0,12,,,,,4,,,43,99
16896,note_on,,,,,128,0,13,,,,,5,,,62,100
16896,note_on,,,,,64,0,11,,,,,3,,,55,99
16896,note_on,,,,,64,0,14,,,,,5,,,55,100
16896,note_on,,,,,0,0,13,,,,,5,,,71,100
16896,note_on,,,,,16896,0,8,,,,,0,,,71,90
16960,note_off,,,,,64,0,8,,,,,0,,,71,100
16992,note_on,,,,,32,0,8,,,,,0,,,79,90
17024,note_off,,,,,128,0,9,,,,,1,,,71,100
17024,note_off,,,,,128,0,10,,,,,2,,,62,100
17056,note_off,,,,,64,0,8,,,,,0,,,79,100
17088,note_on,,,,,32,0,8,,,,,0,,,78,90
17088,note_on,,,,,0,0,9,,,,,1,,,74,60
17088,note_on,,,,,64,0,9,,,,,1,,,59,60
17088,note_on,,,,,64,0,10,,,,,2,,,59,60
17152,note_off,,,,,256,0,13,,,,,5,,,62,100
17152,note_off,,,,,0,0,13,,,,,5,,,71,100
17152,note_off,,,,,256,0,12,,,,,4,,,43,100
17152,note_off,,,,,256,0,11,,,,,3,,,55,100
17152,note_off,,,,,64,0,8,,,,,0,,,78,100
17152,note_off,,,,,256,0,14,,,,,5,,,55,100
17184,note_on,,,,,32,0,8,,,,,0,,,79,90
17216,note_off,,,,,128,0,10,,,,,2,,,59,100
17216,note_off,,,,,128,0,9,,,,,1,,,59,100
17216,note_off,,,,,0,0,9,,,,,1,,,74,100
17248,note_off,,,,,64,0,8,,,,,0,,,79,100
17280,note_on,,,,,32,0,8,,,,,0,,,74,90
17280,note_on,,,,,64,0,10,,,,,2,,,59,60
17280,note_on,,,,,0,0,9,,,,,1,,,79,60
17280,note_on,,,,,64,0,9,,,,,1,,,59,60
17344,note_off,,,,,64,0,8,,,,,0,,,74,100
17376,note_on,,,,,32,0,8,,,,,0,,,79,90
17408,note_off,,,,,128,0,9,,,,,1,,,59,100
17408,note_off,,,,,128,0,10,,,,,2,,,59,100
17408,note_off,,,,,0,0,9,,,,,1,,,79,100
17440,note_off,,,,,64,0,8,,,,,0,,,79,100
17472,note_on,,,,,0,0,9,,,,,1,,,74,60
17472,note_on,,,,,64,0,9,,,,,1,,,59,60
17472,note_on,,,,,32,0,8,,,,,0,,,78,90
17472,note_on,,,,,64,0,10,,,,,2,,,59,60
17536,note_off,,,,,64,0,8,,,,,0,,,78,100
17568,note_on,,,,,32,0,8,,,,,0,,,79,90
17600,note_off,,,,,0,0,9,,,,,1,,,74,100
17600,note_off,,,,,128,0,9,,,,,1,,,59,100
17600,note_off,,,,,128,0,10,,,,,2,,,59,100
17632,note_off,,,,,64,0,8,,,,,0,,,79,100
17664,note_on,,,,,32,0,8,,,,,0,,,76,90
17664,note_on,,,,,64,0,10,,,,,2,,,60,60
17664,note_on,,,,,64,0,9,,,,,1,,,60,60
17728,note_off,,,,,64,0,8,,,,,0,,,76,100
17760,note_on,,,,,32,0,8,,,,,0,,,79,90
17792,note_off,,,,,128,0,10,,,,,2,,,60,100
17792,note_off,,,,,128,0,9,,,,,1,,,60,100
17824,note_off,,,,,64,0,8,,,,,0,,,79,100
17856,note_on,,,,,32,0,8,,,,,0,,,78,90
17856,note_on,,,,,64,0,9,,,,,1,,,60,60
17856,note_on,,,,,0,0,9,,,,,1,,,76,60
17856,note_on,,,,,64,0,10,,,,,2,,,60,60
17920,note_off,,,,,64,0,8,,,,,0,,,78,100
17952,note_on,,,,,32,0,8,,,,,0,,,79,90
17984,note_off,,,,,128,0,9,,,,,1,,,60,100
17984,note_off,,,,,0,0,9,,,,,1,,,76,100
17984,note_off,,,,,128,0,10,,,,,2,,,60,100
18016,note_off,,,,,64,0,8,,,,,0,,,79,100
18048,note_on,,,,,64,0,9,,,,,1,,,60,60
18048,note_on,,,,,64,0,10,,,,,2,,,60,60
18048,note_on,,,,,32,0,8,,,,,0,,,76,90
18048,note_on,,,,,0,0,9,,,,,1,,,79,60
18112,note_off,,,,,64,0,8,,,,,0,,,76,100
18144,note_on,,,,,32,0,8,,,,,0,,,79,90
18176,note_off,,,,,0,0,9,,,,,1,,,79,100
18176,note_off,,,,,128,0,9,,,,,1,,,60,100
18176,note_off,,,,,128,0,10,,,,,2,,,60,100
18208,note_off,,,,,64,0,8,,,,,0,,,79,100
18240,note_on,,,,,0,0,9,,,,,1,,,76,60
18240,note_on,,,,,32,0,8,,,,,0,,,78,90
18240,note_on,,,,,64,0,9,,,,,1,,,60,60
18240,note_on,,,,,64,0,10,,,,,2,,,60,60
18304,note_off,,,,,64,0,8,,,,,0,,,78,100
18336,note_on,,,,,32,0,8,,,,,0,,,79,90
18368,note_off,,,,,128,0,10,,,,,2,,,60,100
18368,note_off,,,,,128,0,9,,,,,1,,,60,100
18368,note_off,,,,,0,0,9,,,,,1,,,76,100
18400,note_off,,,,,64,0,8,,,,,0,,,79,100
18432,note_on,,,,,64,0,10,,,,,2,,,59,60
18432,note_on,,,,,32,0,8,,,,,0,,,74,90
18432,note_on,,,,,64,0,9,,,,,1,,,59,60
18496,note_off,,,,,64,0,8,,,,,0,,,74,100
18528,note_on,,,,,32,0,8,,,,,0,,,79,75
18560,note_off,,,,,128,0,10,,,,,2,,,59,100
18560,note_off,,,,,128,0,9,,,,,1,,,59,100
18592,note_off,,,,,64,0,8,,,,,0,,,79,100
18624,note_on,,,,,32,0,8,,,,,0,,,78,75
18624,note_on,,,,,64,0,10,,,,,2,,,59,60
18624,note_on,,,,,0,0,9,,,,,1,,,74,60
18624,note_on,,,,,64,0,9,,,,,1,,,59,60
18688,note_off,,,,,64,0,8,,,,,0,,,78,100
18720,note_on,,,,,32,0,8,,,,,0,,,79,75
18752,note_off,,,,,128,0,10,,,,,2,,,59,100
18752,note_off,,,,,0,0,9,,,,,1,,,74,100
18752,note_off,,,,,128,0,9,,,,,1,,,59,100
18784,note_off,,,,,64,0,8,,,,,0,,,79,100
18816,note_on,,,,,64,0,10,,,,,2,,,59,60
18816,note_on,,,,,32,0,8,,,,,0,,,74,75
18816,note_on,,,,,64,0,9,,,,,1,,,59,60
18816,note_on,,,,,0,0,9,,,,,1,,,79,60
18880,note_off,,,,,64,0,8,,,,,0,,,74,100
18912,note_on,,,,,32,0,8,,,,,0,,,79,75
18944,note_off,,,,,128,0,10,,,,,2,,,59,100
18944,note_off,,,,,0,0,9,,,,,1,,,79,100
18944,note_off,,,,,128,0,9,,,,,1,,,59,100
18976,note_off,,,,,64,0,8,,,,,0,,,79,100
19008,note_on,,,,,64,0,10,,,,,2,,,59,60
19008,note_on,,,,,32,0,8,,,,,0,,,78,75
19008,note_on,,,,,64,0,9,,,,,1,,,59,60
19008,note_on,,,,,0,0,9,,,,,1,,,74,60
19072,note_off,,,,,64,0,8,,,,,0,,,78,100
19104,note_on,,,,,32,0,8,,,,,0,,,79,75
19136,note_off,,,,,128,0,9,,,,,1,,,59,100
19136,note_off,,,,,0,0,9,,,,,1,,,74,100
19136,note_off,,,,,128,0,10,,,,,2,,,59,100
19168,note_off,,,,,64,0,8,,,,,0,,,79,100
19200,note_on,,,,,64,0,10,,,,,2,,,60,60
19200,note_on,,,,,32,0,8,,,,,0,,,76,75
19200,note_on,,,,,64,0,9,,,,,1,,,60,60
19264,note_off,,,,,64,0,8,,,,,0,,,76,100
19296,note_on,,,,,32,0,8,,,,,0,,,79,75
19328,note_off,,,,,128,0,10,,,,,2,,,60,100
19328,note_off,,,,,128,0,9,,,,,1,,,60,100
19360,note_off,,,,,64,0,8,,,,,0,,,79,100
19392,note_on,,,,,32,0,8,,,,,0,,,78,75
19392,note_on,,,,,64,0,10,,,,,2,,,60,60
19392,note_on,,,,,64,0,9,,,,,1,,,60,60
19392,note_on,,,,,0,0,9,,,,,1,,,76,60
19456,note_off,,,,,64,0,8,,,,,0,,,78,100
19488,note_on,,,,,32,0,8,,,,,0,,,79,75
19520,note_off,,,,,128,0,10,,,,,2,,,60,100
19520,note_off,,,,,0,0,9,,,,,1,,,76,100
19520,note_off,,,,,128,0,9,,,,,1,,,60,100
19552,note_off,,,,,64,0,8,,,,,0,,,79,100
19584,note_on,,,,,64,0,10,,,,,2,,,60,60
19584,note_on,,,,,64,0,9,,,,,1,,,60,60
19584,note_on,,,,,0,0,9,,,,,1,,,79,60
19584,note_on,,,,,32,0,8,,,,,0,,,76,75
19648,note_off,,,,,64,0,8,,,,,0,,,76,100
19680,note_on,,,,,32,0,8,,,,,0,,,79,75
19712,note_off,,,,,128,0,10,,,,,2,,,60,100
19712,note_off,,,,,128,0,9,,,,,1,,,60,100
19712,note_off,,,,,0,0,9,,,,,1,,,79,100
19744,note_off,,,,,64,0,8,,,,,0,,,79,100
19776,note_on,,,,,64,0,9,,,,,1,,,60,60
19776,note_on,,,,,0,0,9,,,,,1,,,76,60
19776,note_on,,,,,64,0,10,,,,,2,,,60,60
19776,note_on,,,,,32,0,8,,,,,0,,,78,75
19840,note_off,,,,,64,0,8,,,,,0,,,78,100
19872,note_on,,,,,32,0,8,,,,,0,,,79,75
19904,note_off,,,,,0,0,9,,,,,1,,,76,100
19904,note_off,,,,,128,0,9,,,,,1,,,60,100
19904,note_off,,,,,128,0,10,,,,,2,,,60,100
19936,note_off,,,,,64,0,8,,,,,0,,,79,100
19968,note_on,,,,,32,0,8,,,,,0,,,74,75
19968,note_on,,,,,64,0,9,,,,,1,,,59,60
19968,note_on,,,,,64,0,10,,,,,2,,,59,60
20032,note_off,,,,,64,0,8,,,,,0,,,74,100
20064,note_on,,,,,32,0,8,,,,,0,,,79,100
20096,note_off,,,,,128,0,10,,,,,2,,,59,100
20096,note_off,,,,,128,0,9,,,,,1,,,59,100
20128,note_off,,,,,64,0,8,,,,,0,,,79,100
20160,note_on,,,,,64,0,9,,,,,1,,,59,60
20160,note_on,,,,,32,0,8,,,,,0,,,78,100
20160,note_on,,,,,64,0,10,,,,,2,,,59,60
20160,note_on,,,,,0,0,9,,,,,1,,,74,60
20224,note_off,,,,,64,0,8,,,,,0,,,78,100
20256,note_on,,,,,32,0,8,,,,,0,,,79,100
20288,note_off,,,,,128,0,9,,,,,1,,,59,100
20288,note_off,,,,,128,0,10,,,,,2,,,59,100
20288,note_off,,,,,0,0,9,,,,,1,,,74,100
20320,note_off,,,,,64,0,8,,,,,0,,,79,100
20352,note_on,,,,,64,0,9,,,,,1,,,59,60
20352,note_on,,,,,64,0,10,,,,,2,,,59,60
20352,note_on,,,,,32,0,8,,,,,0,,,74,100
20352,note_on,,,,,0,0,9,,,,,1,,,79,60
20416,note_off,,,,,64,0,8,,,,,0,,,74,100
20448,note_on,,,,,32,0,8,,,,,0,,,79,100
20480,note_off,,,,,128,0,10,,,,,2,,,59,100
20480,note_off,,,,,128,0,9,,,,,1,,,59,100
20480,note_off,,,,,0,0,9,,,,,1,,,79,100
20512,note_off,,,,,64,0,8,,,,,0,,,79,100
20544,note_on,,,,,64,0,9,,,,,1,,,59,60
20544,note_on,,,,,0,0,9,,,,,1,,,74,60
20544,note_on,,,,,32,0,8,,,,,0,,,78,100
20544,note_on,,,,,64,0,10,,,,,2,,,59,60
20608,note_off,,,,,64,0,8,,,,,0,,,78,100
20640,note_on,,,,,32,0,8,,,,,0,,,79,100
20672,note_off,,,,,128,0,10,,,,,2,,,59,100
20672,note_off,,,,,128,0,9,,,,,1,,,59,100
20672,note_off,,,,,0,0,9,,,,,1,,,74,100
20704,note_off,,,,,64,0,8,,,,,0,,,79,100
20736,note_on,,,,,64,0,10,,,,,2,,,57,60
20736,note_on,,,,,32,0,8,,,,,0,,,72,100
20736,note_on,,,,,64,0,9,,,,,1,,,57,60
20800,note_off,,,,,64,0,8,,,,,0,,,72,100
20832,note_on,,,,,32,0,8,,,,,0,,,79,100
20864,note_off,,,,,128,0,9,,,,,1,,,57,100
20864,note_off,,,,,128,0,10,,,,,2,,,57,100
20896,note_off,,,,,64,0,8,,,,,0,,,79,100
20928,note_on,,,,,0,0,9,,,,,1,,,72,60
20928,note_on,,,,,64,0,10,,,,,2,,,57,60
20928,note_on,,,,,32,0,8,,,,,0,,,78,100
20928,note_on,,,,,64,0,9,,,,,1,,,57,60
20992,note_off,,,,,64,0,8,,,,,0,,,78,100
21024,note_on,,,,,32,0,8,,,,,0,,,79,100
21056,note_off,,,,,0,0,9,,,,,1,,,72,100
21056,note_off,,,,,128,0,9,,,,,1,,,57,100
21056,note_off,,,,,128,0,10,,,,,2,,,57,100
21088,note_off,,,,,64,0,8,,,,,0,,,79,100
21120,note_on,,,,,64,0,9,,,,,1,,,57,60
21120,note_on,,,,,32,0,8,,,,,0,,,72,100
21120,note_on,,,,,64,0,10,,,,,2,,,57,60
21120,note_on,,,,,0,0,9,,,,,1,,,79,60
21184,note_off,,,,,64,0,8,,,,,0,,,72,100
21216,note_on,,,,,32,0,8,,,,,0,,,79,100
21248,note_off,,,,,128,0,9,,,,,1,,,57,100
21248,note_off,,,,,0,0,9,,,,,1,,,79,100
21248,note_off,,,,,128,0,10,,,,,2,,,57,100
21280,note_off,,,,,64,0,8,,,,,0,,,79,100
21312,note_on,,,,,64,0,10,,,,,2,,,57,60
21312,note_on,,,,,64,0,9,,,,,1,,,57,60
21312,note_on,,,,,32,0,8,,,,,0,,,78,100
21312,note_on,,,,,0,0,9,,,,,1,,,72,60
21376,note_off,,,,,64,0,8,,,,,0,,,78,100
21408,note_on,,,,,32,0,8,,,,,0,,,79,100
21440,note_off,,,,,128,0,10,,,,,2,,,57,100
21440,note_off,,,,,0,0,9,,,,,1,,,72,100
21440,note_off,,,,,128,0,9,,,,,1,,,57,100
21472,note_off,,,,,64,0,8,,,,,0,,,79,100
21504,note_on,,,,,64,0,10,,,,,2,,,55,60
21504,note_on,,,,,32,0,8,,,,,0,,,71,100
21504,note_on,,,,,64,0,9,,,,,1,,,55,60
21568,note_off,,,,,64,0,8,,,,,0,,,71,100
21600,note_on,,,,,32,0,8,,,,,0,,,79,100
21632,note_off,,,,,128,0,10,,,,,2,,,55,100
21632,note_off,,,,,128,0,9,,,,,1,,,55,100
21664,note_off,,,,,64,0,8,,,,,0,,,79,100
21696,note_on,,,,,64,0,9,,,,,1,,,55,60
21696,note_on,,,,,64,0,10,,,,,2,,,55,60
21696,note_on,,,,,32,0,8,,,,,0,,,78,100
21696,note_on,,,,,0,0,9,,,,,1,,,71,60
21760,note_off,,,,,64,0,8,,,,,0,,,78,100
21792,note_on,,,,,32,0,8,,,,,0,,,79,100
21824,note_off,,,,,128,0,10,,,,,2,,,55,100
21824,note_off,,,,,0,0,9,,,,,1,,,71,100
21824,note_off,,,,,128,0,9,,,,,1,,,55,100
21856,note_off,,,,,64,0,8,,,,,0,,,79,100
21888,note_on,,,,,64,0,10,,,,,2,,,55,60
21888,note_on,,,,,0,0,9,,,,,1,,,79,60
21888,note_on,,,,,64,0,9,,,,,1,,,55,60
21888,note_on,,,,,32,0,8,,,,,0,,,71,100
21952,note_off,,,,,64,0,8,,,,,0,,,71,100
21984,note_on,,,,,32,0,8,,,,,0,,,79,100
22016,note_off,,,,,128,0,9,,,,,1,,,55,100
22016,note_off,,,,,128,0,10,,,,,2,,,55,100
22016,note_off,,,,,0,0,9,,,,,1,,,79,100
22048,note_off,,,,,64,0,8,,,,,0,,,79,100
22080,note_on,,,,,0,0,9,,,,,1,,,71,60
22080,note_on,,,,,32,0,8,,,,,0,,,78,100
22080,note_on,,,,,64,0,9,,,,,1,,,55,60
22080,note_on,,,,,64,0,10,,,,,2,,,55,60
22144,note_off,,,,,64,0,8,,,,,0,,,78,100
22176,note_on,,,,,32,0,8,,,,,0,,,79,100
22208,note_off,,,,,0,0,9,,,,,1,,,71,100
22208,note_off,,,,,128,0,9,,,,,1,,,55,100
22208,note_off,,,,,128,0,10,,,,,2,,,55,100
22240,note_off,,,,,64,0,8,,,,,0,,,79,100
22272,note_on,,,,,64,0,10,,,,,2,,,60,60
22272,note_on,,,,,64,0,9,,,,,1,,,60,60
22272,note_on,,,,,32,0,8,,,,,0,,,69,100
22336,note_off,,,,,64,0,8,,,,,0,,,69,100
22368,note_on,,,,,32,0,8,,,,,0,,,79,100
22400,note_off,,,,,128,0,9,,,,,1,,,60,100
22400,note_off,,,,,128,0,10,,,,,2,,,60,100
22432,note_off,,,,,64,0,8,,,,,0,,,79,100
22464,note_on,,,,,64,0,10,,,,,2,,,60,60
22464,note_on,,,,,32,0,8,,,,,0,,,78,100
22464,note_on,,,,,64,0,9,,,,,1,,,60,60
22464,note_on,,,,,0,0,9,,,,,1,,,69,60
22528,note_off,,,,,64,0,8,,,,,0,,,78,100
22560,note_on,,,,,32,0,8,,,,,0,,,79,100
22592,note_off,,,,,0,0,9,,,,,1,,,69,100
22592,note_off,,,,,128,0,9,,,,,1,,,60,100
22592,note_off,,,,,128,0,10,,,,,2,,,60,100
22624,note_off,,,,,64,0,8,,,,,0,,,79,100
22656,note_on,,,,,64,0,9,,,,,1,,,62,60
22656,note_on,,,,,0,0,9,,,,,1,,,79,60
22656,note_on,,,,,32,0,8,,,,,0,,,69,100
22656,note_on,,,,,64,0,10,,,,,2,,,62,60
22720,note_off,,,,,64,0,8,,,,,0,,,69,100
22752,note_on,,,,,32,0,8,,,,,0,,,78,100
22784,note_off,,,,,0,0,9,,,,,1,,,79,100
22784,note_off,,,,,128,0,10,,,,,2,,,62,100
22784,note_off,,,,,128,0,9,,,,,1,,,62,100
22816,note_off,,,,,64,0,8,,,,,0,,,78,100
22848,note_on,,,,,64,0,9,,,,,1,,,62,60
22848,note_on,,,,,0,0,9,,,,,1,,,69,60
22848,note_on,,,,,64,0,10,,,,,2,,,62,60
22848,note_on,,,,,32,0,8,,,,,0,,,76,100
22912,note_off,,,,,64,0,8,,,,,0,,,76,100
22944,note_on,,,,,32,0,8,,,,,0,,,78,100
22976,note_off,,,,,128,0,9,,,,,1,,,62,100
22976,note_off,,,,,0,0,9,,,,,1,,,69,100
22976,note_off,,,,,128,0,10,,,,,2,,,62,100
23008,note_off,,,,,64,0,8,,,,,0,,,78,100
23040,note_on,,,,,5888,0,12,,,,,4,,,43,100
23040,note_on,,,,,5888,0,11,,,,,3,,,43,100
23040,note_on,,,,,0,0,13,,,,,5,,,62,100
23040,note_on,,,,,5888,0,14,,,,,5,,,43,100
23040,note_on,,,,,64,0,9,,,,,1,,,79,100
23040,note_on,,,,,64,0,10,,,,,2,,,59,100
23040,note_on,,,,,0,0,10,,,,,2,,,62,100
23040,note_on,,,,,5888,0,13,,,,,5,,,59,100
23040,note_on,,,,,32,0,8,,,,,0,,,79,100
23168,note_off,,,,,128,0,8,,,,,0,,,79,100
23168,note_off,,,,,128,0,9,,,,,1,,,79,100
23232,note_on,,,,,64,0,9,,,,,1,,,78,100
23296,note_off,,,,,0,0,13,,,,,5,,,62,100
23296,note_off,,,,,256,0,11,,,,,3,,,43,100
23296,note_off,,,,,256,0,12,,,,,4,,,43,100
23296,note_off,,,,,256,0,14,,,,,5,,,43,100
23296,note_off,,,,,256,0,13,,,,,5,,,59,100
23296,note_off,,,,,64,0,9,,,,,1,,,78,100
23296,note_off,,,,,256,0,10,,,,,2,,,59,100
23296,note_off,,,,,0,0,10,,,,,2,,,62,100
23328,note_on,,,,,32,0,9,,,,,1,,,76,100
23392,note_off,,,,,64,0,9,,,,,1,,,76,100
23424,note_on,,,,,32,0,9,,,,,1,,,74,100
23552,note_off,,,,,128,0,9,,,,,1,,,74,100
23616,note_on,,,,,64,0,9,,,,,1,,,72,100
23744,note_off,,,,,128,0,9,,,,,1,,,72,100
23808,note_on,,,,,512,0,14,,,,,5,,,43,100
23808,note_on,,,,,512,0,12,,,,,4,,,43,100
23808,note_on,,,,,512,0,11,,,,,3,,,43,100
23808,note_on,,,,,64,0,9,,,,,1,,,71,100
23808,note_on,,,,,512,0,10,,,,,2,,,62,100
23808,note_on,,,,,0,0,13,,,,,5,,,62,100
23808,note_on,,,,,512,0,13,,,,,5,,,59,100
23936,note_off,,,,,128,0,9,,,,,1,,,71,100
24000,note_on,,,,,64,0,9,,,,,1,,,67,100
24064,note_off,,,,,0,0,13,,,,,5,,,62,100
24064,note_off,,,,,256,0,13,,,,,5,,,59,100
24064,note_off,,,,,256,0,14,,,,,5,,,43,100
24064,note_off,,,,,256,0,10,,,,,2,,,62,100
24064,note_off,,,,,256,0,11,,,,,3,,,43,100
24064,note_off,,,,,256,0,12,,,,,4,,,43,100
24128,note_off,,,,,128,0,9,,,,,1,,,67,100
24192,note_on,,,,,64,0,9,,,,,1,,,71,100
24320,note_off,,,,,128,0,9,,,,,1,,,71,100
24384,note_on,,,,,64,0,9,,,,,1,,,74,100
24512,note_off,,,,,128,0,9,,,,,1,,,74,100
24576,note_on,,,,,0,0,13,,,,,5,,,74,100
24576,note_on,,,,,512,0,11,,,,,3,,,55,100
24576,note_on,,,,,512,0,10,,,,,2,,,62,100
24576,note_on,,,,,512,0,13,,,,,5,,,71,100
24576,note_on,,,,,512,0,14,,,,,5,,,55,100
24576,note_on,,,,,64,0,9,,,,,1,,,79,100
24576,note_on,,,,,512,0,12,,,,,4,,,43,100
24832,note_off,,,,,256,0,12,,,,,4,,,43,100
24832,note_off,,,,,256,0,9,,,,,1,,,79,100
24832,note_off,,,,,0,0,13,,,,,5,,,74,100
24832,note_off,,,,,256,0,13,,,,,5,,,71,100
24832,note_off,,,,,256,0,10,,,,,2,,,62,100
24832,note_off,,,,,256,0,14,,,,,5,,,55,100
24832,note_off,,,,,256,0,11,,,,,3,,,55,100
24960,note_on,,,,,128,0,12,,,,,4,,,38,100
24960,note_on,,,,,128,0,14,,,,,5,,,50,100
24960,note_on,,,,,128,0,13,,,,,5,,,66,100
24960,note_on,,,,,0,0,13,,,,,5,,,69,100
24960,note_on,,,,,128,0,11,,,,,3,,,50,100
24960,note_on,,,,,128,0,9,,,,,1,,,81,100
24960,note_on,,,,,0,0,9,,,,,1,,,78,100
24960,note_on,,,,,128,0,10,,,,,2,,,62,100
25216,note_off,,,,,256,0,14,,,,,5,,,50,100
25216,note_off,,,,,256,0,13,,,,,5,,,66,100
25216,note_off,,,,,0,0,13,,,,,5,,,69,100
25216,note_off,,,,,0,0,9,,,,,1,,,78,100
25216,note_off,,,,,256,0,12,,,,,4,,,38,100
25216,note_off,,,,,256,0,11,,,,,3,,,50,100
25216,note_off,,,,,256,0,10,,,,,2,,,62,100
25216,note_off,,,,,256,0,9,,,,,1,,,81,100
25344,note_on,,,,,128,0,14,,,,,5,,,55,100
25344,note_on,,,,,0,0,9,,,,,1,,,79,100
25344,note_on,,,,,128,0,9,,,,,1,,,83,100
25344,note_on,,,,,128,0,12,,,,,4,,,43,100
25344,note_on,,,,,128,0,11,,,,,3,,,55,100
25344,note_on,,,,,128,0,13,,,,,5,,,71,100
25344,note_on,,,,,0,0,13,,,,,5,,,74,100
25344,note_on,,,,,128,0,10,,,,,2,,,62,100
25472,note_off,,,,,128,0,9,,,,,1,,,83,100
25536,note_on,,,,,64,0,9,,,,,1,,,81,85
25600,note_off,,,,,256,0,12,,,,,4,,,43,100
25600,note_off,,,,,256,0,13,,,,,5,,,71,100
25600,note_off,,,,,0,0,13,,,,,5,,,74,100
25600,note_off,,,,,64,0,9,,,,,1,,,79,100
25600,note_off,,,,,0,0,9,,,,,1,,,81,100
25600,note_off,,,,,256,0,14,,,,,5,,,55,100
25600,note_off,,,,,256,0,10,,,,,2,,,62,100
25600,note_off,,,,,256,0,11,,,,,3,,,55,100
25632,note_on,,,,,32,0,9,,,,,1,,,83,85
25696,note_off,,,,,64,0,9,,,,,1,,,83,100
25728,note_on,,,,,32,0,9,,,,,1,,,79,85
25728,note_on,,,,,0,0,13,,,,,5,,,62,100
25728,note_on,,,,,128,0,11,,,,,3,,,43,100
25728,note_on,,,,,128,0,14,,,,,5,,,43,100
25728,note_on,,,,,128,0,13,,,,,5,,,71,100
25728,note_on,,,,,128,0,12,,,,,4,,,43,100
25856,note_off,,,,,128,0,9,,,,,1,,,79,100
25920,note_on,,,,,0,0,9,,,,,1,,,67,85
25920,note_on,,,,,0,0,9,,,,,1,,,79,85
25920,note_on,,,,,320,0,10,,,,,2,,,67,85
25920,note_on,,,,,64,0,9,,,,,1,,,83,85
25984,note_off,,,,,256,0,11,,,,,3,,,43,100
25984,note_off,,,,,256,0,12,,,,,4,,,43,100
25984,note_off,,,,,0,0,13,,,,,5,,,62,100
25984,note_off,,,,,256,0,14,,,,,5,,,43,100
25984,note_off,,,,,256,0,13,,,,,5,,,71,100
26048,note_off,,,,,0,0,9,,,,,1,,,67,100
26048,note_off,,,,,0,0,9,,,,,1,,,79,100
26048,note_off,,,,,128,0,10,,,,,2,,,67,100
26048,note_off,,,,,128,0,9,,,,,1,,,83,100
26112,note_on,,,,,64,0,10,,,,,2,,,74,85
26112,note_on,,,,,64,0,9,,,,,1,,,78,85
26112,note_on,,,,,0,0,9,,,,,1,,,81,85
26112,note_on,,,,,0,0,9,,,,,1,,,74,85
26176,note_off,,,,,0,0,9,,,,,1,,,81,100
26176,note_off,,,,,64,0,9,,,,,1,,,78,100
26208,note_on,,,,,32,0,9,,,,,1,,,81,85
26208,note_on,,,,,0,0,9,,,,,1,,,86,85
26240,note_off,,,,,32,0,9,,,,,1,,,74,100
26240,note_off,,,,,128,0,10,,,,,2,,,74,100
26272,note_off,,,,,0,0,9,,,,,1,,,86,100
26272,note_off,,,,,32,0,9,,,,,1,,,81,100
26304,note_on,,,,,0,0,9,,,,,1,,,81,85
26304,note_on,,,,,0,0,9,,,,,1,,,74,85
26304,note_on,,,,,32,0,9,,,,,1,,,78,85
26304,note_on,,,,,64,0,10,,,,,2,,,74,85
26368,note_off,,,,,64,0,9,,,,,1,,,78,100
26368,note_off,,,,,0,0,9,,,,,1,,,81,100
26400,note_on,,,,,32,0,9,,,,,1,,,81,85
26400,note_on,,,,,0,0,9,,,,,1,,,86,85
26432,note_off,,,,,32,0,9,,,,,1,,,74,100
26432,note_off,,,,,128,0,10,,,,,2,,,74,100
26464,note_off,,,,,0,0,9,,,,,1,,,86,100
26464,note_off,,,,,32,0,9,,,,,1,,,81,100
26496,note_on,,,,,32,0,9,,,,,1,,,78,85
26496,note_on,,,,,0,0,9,,,,,1,,,74,85
26496,note_on,,,,,0,0,9,,,,,1,,,81,85
26496,note_on,,,,,64,0,10,,,,,2,,,74,85
26560,note_off,,,,,64,0,9,,,,,1,,,78,100
26560,note_off,,,,,0,0,9,,,,,1,,,81,100
26592,note_on,,,,,0,0,9,,,,,1,,,86,85
26592,note_on,,,,,32,0,9,,,,,1,,,81,85
26624,note_off,,,,,32,0,9,,,,,1,,,74,100
26624,note_off,,,,,128,0,10,,,,,2,,,74,100
26656,note_off,,,,,32,0,9,,,,,1,,,81,100
26656,note_off,,,,,0,0,9,,,,,1,,,86,100
26688,note_on,,,,,64,0,10,,,,,2,,,62,85
26688,note_on,,,,,0,0,9,,,,,1,,,81,85
26688,note_on,,,,,0,0,9,,,,,1,,,62,85
26688,note_on,,,,,32,0,9,,,,,1,,,78,85
26752,note_off,,,,,64,0,9,,,,,1,,,78,100
26752,note_off,,,,,0,0,9,,,,,1,,,81,100
26784,note_on,,,,,32,0,9,,,,,1,,,81,85
26784,note_on,,,,,0,0,9,,,,,1,,,86,85
26816,note_off,,,,,128,0,10,,,,,2,,,62,100
26816,note_off,,,,,32,0,9,,,,,1,,,62,100
26848,note_off,,,,,0,0,9,,,,,1,,,86,100
26848,note_off,,,,,32,0,9,,,,,1,,,81,100
26880,note_on,,,,,64,0,10,,,,,2,,,67,85
26880,note_on,,,,,32,0,9,,,,,1,,,83,85
26880,note_on,,,,,0,0,9,,,,,1,,,67,85
26880,note_on,,,,,0,0,9,,,,,1,,,79,85
27008,note_off,,,,,128,0,10,,,,,2,,,67,100
27008,note_off,,,,,0,0,9,,,,,1,,,67,100
27008,note_off,,,,,0,0,9,,,,,1,,,79,100
27008,note_off,,,,,128,0,9,,,,,1,,,83,100
27072,note_on,,,,,0,0,9,,,,,1,,,67,85
27072,note_on,,,,,64,0,9,,,,,1,,,86,85
27072,note_on,,,,,0,0,9,,,,,1,,,83,85
27072,note_on,,,,,64,0,10,,,,,2,,,67,85
27200,note_off,,,,,0,0,9,,,,,1,,,67,100
27200,note_off,,,,,128,0,9,,,,,1,,,86,100
27200,note_off,,,,,0,0,9,,,,,1,,,83,100
27200,note_off,,,,,128,0,10,,,,,2,,,67,100
27264,note_on,,,,,64,0,10,,,,,2,,,67,85
27264,note_on,,,,,64,0,9,,,,,1,,,67,85
27392,note_off,,,,,128,0,10,,,,,2,,,67,100
27392,note_off,,,,,128,0,9,,,,,1,,,67,100
27456,note_on,,,,,64,0,9,,,,,1,,,83,60
27456,note_on,,,,,0,0,9,,,,,1,,,67,60
27456,note_on,,,,,0,0,9,,,,,1,,,79,60
27456,note_on,,,,,64,0,10,,,,,2,,,67,60
27584,note_off,,,,,128,0,10,,,,,2,,,67,100
27584,note_off,,,,,0,0,9,,,,,1,,,79,100
27584,note_off,,,,,0,0,9,,,,,1,,,67,100
27584,note_off,,,,,128,0,9,,,,,1,,,83,100
27648,note_on,,,,,0,0,9,,,,,1,,,81,60
27648,note_on,,,,,64,0,9,,,,,1,,,78,60
27648,note_on,,,,,64,0,10,,,,,2,,,74,60
27648,note_on,,,,,0,0,9,,,,,1,,,74,60
27712,note_off,,,,,0,0,9,,,,,1,,,81,100
27712,note_off,,,,,64,0,9,,,,,1,,,78,100
27744,note_on,,,,,32,0,9,,,,,1,,,81,60
27744,note_on,,,,,0,0,9,,,,,1,,,86,60
27776,note_off,,,,,32,0,9,,,,,1,,,74,100
27776,note_off,,,,,128,0,10,,,,,2,,,74,100
27808,note_off,,,,,32,0,9,,,,,1,,,81,100
27808,note_off,,,,,0,0,9,,,,,1,,,86,100
27840,note_on,,,,,0,0,9,,,,,1,,,74,60
27840,note_on,,,,,32,0,9,,,,,1,,,78,60
27840,note_on,,,,,64,0,10,,,,,2,,,74,60
27840,note_on,,,,,0,0,9,,,,,1,,,81,60
27904,note_off,,,,,64,0,9,,,,,1,,,78,100
27904,note_off,,,,,0,0,9,,,,,1,,,81,100
27936,note_on,,,,,0,0,9,,,,,1,,,86,60
27936,note_on,,,,,32,0,9,,,,,1,,,81,60
27968,note_off,,,,,128,0,10,,,,,2,,,74,100
27968,note_off,,,,,32,0,9,,,,,1,,,74,100
28000,note_off,,,,,32,0,9,,,,,1,,,81,100
28000,note_off,,,,,0,0,9,,,,,1,,,86,100
28032,note_on,,,,,64,0,10,,,,,2,,,74,60
28032,note_on,,,,,32,0,9,,,,,1,,,78,60
28032,note_on,,,,,0,0,9,,,,,1,,,74,60
28032,note_on,,,,,0,0,9,,,,,1,,,81,60
28096,note_off,,,,,0,0,9,,,,,1,,,81,100
28096,note_off,,,,,64,0,9,,,,,1,,,78,100
28128,note_on,,,,,32,0,9,,,,,1,,,81,60
28128,note_on,,,,,0,0,9,,,,,1,,,86,60
28160,note_off,,,,,32,0,9,,,,,1,,,74,100
28160,note_off,,,,,128,0,10,,,,,2,,,74,100
28192,note_off,,,,,0,0,9,,,,,1,,,86,100
28192,note_off,,,,,32,0,9,,,,,1,,,81,100
28224,note_on,,,,,64,0,10,,,,,2,,,62,60
28224,note_on,,,,,32,0,9,,,,,1,,,78,60
28224,note_on,,,,,0,0,9,,,,,1,,,81,60
28224,note_on,,,,,0,0,9,,,,,1,,,62,60
28288,note_off,,,,,64,0,9,,,,,1,,,78,100
28288,note_off,,,,,0,0,9,,,,,1,,,81,100
28320,note_on,,,,,32,0,9,,,,,1,,,81,60
28320,note_on,,,,,0,0,9,,,,,1,,,86,60
28352,note_off,,,,,32,0,9,,,,,1,,,62,100
28352,note_off,,,,,128,0,10,,,,,2,,,62,100
28384,note_off,,,,,32,0,9,,,,,1,,,81,100
28384,note_off,,,,,0,0,9,,,,,1,,,86,100
28416,note_on,,,,,64,0,10,,,,,2,,,67,60
28416,note_on,,,,,32,0,9,,,,,1,,,83,60
28416,note_on,,,,,0,0,9,,,,,1,,,79,60
28416,note_on,,,,,0,0,9,,,,,1,,,67,60
28544,note_off,,,,,128,0,10,,,,,2,,,67,100
28544,note_off,,,,,0,0,9,,,,,1,,,79,100
28544,note_off,,,,,0,0,9,,,,,1,,,67,100
28544,note_off,,,,,128,0,9,,,,,1,,,83,100
28608,note_on,,,,,64,0,10,,,,,2,,,67,60
28608,note_on,,,,,0,0,9,,,,,1,,,67,60
28608,note_on,,,,,0,0,9,,,,,1,,,83,60
28608,note_on,,,,,64,0,9,,,,,1,,,86,60
28736,note_off,,,,,0,0,9,,,,,1,,,83,100
28736,note_off,,,,,0,0,9,,,,,1,,,67,100
28736,note_off,,,,,128,0,10,,,,,2,,,67,100
28736,note_off,,,,,128,0,9,,,,,1,,,86,100
28800,note_on,,,,,64,0,9,,,,,1,,,67,60
28800,note_on,,,,,64,0,10,,,,,2,,,67,60
28928,note_off,,,,,128,0,9,,,,,1,,,67,100
28928,note_off,,,,,128,0,10,,,,,2,,,67,100
28992,note_on,,,,,0,0,9,,,,,1,,,79,100
28992,note_on,,,,,0,0,9,,,,,1,,,67,100
28992,note_on,,,,,64,0,9,,,,,1,,,83,100
28992,note_on,,,,,64,0,10,,,,,2,,,67,100
29120,note_off,,,,,128,0,10,,,,,2,,,67,100
29120,note_off,,,,,0,0,9,,,,,1,,,67,100
29120,note_off,,,,,0,0,9,,,,,1,,,79,100
29120,note_off,,,,,128,0,9,,,,,1,,,83,100
29184,note_on,,,,,0,0,9,,,,,1,,,81,100
29184,note_on,,,,,0,0,9,,,,,1,,,76,100
29184,note_on,,,,,64,0,9,,,,,1,,,61,100
29184,note_on,,,,,64,0,10,,,,,2,,,61,100
29248,note_off,,,,,64,0,9,,,,,1,,,81,100
29280,note_on,,,,,32,0,9,,,,,1,,,79,100
29312,note_off,,,,,128,0,10,,,,,2,,,61,100
29312,note_off,,,,,32,0,9,,,,,1,,,61,100
29312,note_off,,,,,0,0,9,,,,,1,,,76,100
29344,note_off,,,,,32,0,9,,,,,1,,,79,100
29376,note_on,,,,,0,0,9,,,,,1,,,81,100
29376,note_on,,,,,0,0,9,,,,,1,,,76,100
29376,note_on,,,,,32,0,9,,,,,1,,,61,100
29376,note_on,,,,,64,0,10,,,,,2,,,61,100
29440,note_off,,,,,64,0,9,,,,,1,,,81,100
29472,note_on,,,,,32,0,9,,,,,1,,,83,100
29504,note_off,,,,,0,0,9,,,,,1,,,76,100
29504,note_off,,,,,32,0,9,,,,,1,,,61,100
29504,note_off,,,,,128,0,10,,,,,2,,,61,100
29536,note_off,,,,,32,0,9,,,,,1,,,83,100
29568,note_on,,,,,32,0,9,,,,,1,,,61,100
29568,note_on,,,,,64,0,10,,,,,2,,,61,100
29568,note_on,,,,,0,0,9,,,,,1,,,79,100
29568,note_on,,,,,0,0,9,,,,,1,,,76,100
29632,note_off,,,,,64,0,9,,,,,1,,,79,100
29664,note_on,,,,,32,0,9,,,,,1,,,78,100
29696,note_off,,,,,32,0,9,,,,,1,,,61,100
29696,note_off,,,,,128,0,10,,,,,2,,,61,100
29696,note_off,,,,,0,0,9,,,,,1,,,76,100
29728,note_off,,,,,32,0,9,,,,,1,,,78,100
29760,note_on,,,,,32,0,9,,,,,1,,,61,100
29760,note_on,,,,,0,0,9,,,,,1,,,76,100
29760,note_on,,,,,0,0,9,,,,,1,,,79,100
29760,note_on,,,,,64,0,10,,,,,2,,,61,100
29824,note_off,,,,,64,0,9,,,,,1,,,79,100
29856,note_on,,,,,32,0,9,,,,,1,,,81,100
29888,note_off,,,,,128,0,10,,,,,2,,,61,100
29888,note_off,,,,,32,0,9,,,,,1,,,61,100
29888,note_off,,,,,0,0,9,,,,,1,,,76,100
29920,note_off,,,,,32,0,9,,,,,1,,,81,100
29952,note_on,,,,,0,0,9,,,,,1,,,78,100
29952,note_on,,,,,3968,0,11,,,,,3,,,62,100
29952,note_on,,,,,32,0,9,,,,,1,,,62,100
29952,note_on,,,,,0,0,9,,,,,1,,,69,100
29952,note_on,,,,,64,0,10,,,,,2,,,62,100
29952,note_on,,,,,3968,0,12,,,,,4,,,50,100
29952,note_on,,,,,3968,0,14,,,,,5,,,62,100
29952,note_on,,,,,3968,0,13,,,,,5,,,66,100
29952,note_on,,,,,0,0,13,,,,,5,,,69,100
30016,note_off,,,,,64,0,9,,,,,1,,,62,100
30016,note_off,,,,,0,0,9,,,,,1,,,78,100
30016,note_off,,,,,0,0,9,,,,,1,,,69,100
30048,note_on,,,,,32,0,9,,,,,1,,,78,100
30048,note_on,,,,,0,0,9,,,,,1,,,81,100
30080,note_off,,,,,128,0,10,,,,,2,,,62,100
30080,note_off,,,,,128,0,11,,,,,3,,,62,100
30080,note_off,,,,,128,0,14,,,,,5,,,62,100
30080,note_off,,,,,0,0,13,,,,,5,,,69,100
30080,note_off,,,,,128,0,13,,,,,5,,,66,100
30080,note_off,,,,,128,0,12,,,,,4,,,50,100
30112,note_off,,,,,0,0,9,,,,,1,,,81,100
30112,note_off,,,,,64,0,9,,,,,1,,,78,100
30144,note_on,,,,,64,0,10,,,,,2,,,69,100
30144,note_on,,,,,0,0,9,,,,,1,,,78,100
30144,note_on,,,,,32,0,9,,,,,1,,,74,100
30144,note_on,,,,,64,0,11,,,,,3,,,62,100
30144,note_on,,,,,64,0,14,,,,,5,,,62,100
30144,note_on,,,,,0,0,13,,,,,5,,,69,100
30144,note_on,,,,,64,0,13,,,,,5,,,66,100
30144,note_on,,,,,64,0,12,,,,,4,,,50,100
30208,note_off,,,,,64,0,9,,,,,1,,,74,100
30208,note_off,,,,,0,0,9,,,,,1,,,78,100
30240,note_on,,,,,0,0,9,,,,,1,,,81,100
30240,note_on,,,,,32,0,9,,,,,1,,,78,100
30272,note_off,,,,,0,0,13,,,,,5,,,69,100
30272,note_off,,,,,128,0,12,,,,,4,,,50,100
30272,note_off,,,,,128,0,14,,,,,5,,,62,100
30272,note_off,,,,,128,0,13,,,,,5,,,66,100
30272,note_off,,,,,128,0,10,,,,,2,,,69,100
30272,note_off,,,,,128,0,11,,,,,3,,,62,100
30304,note_off,,,,,0,0,9,,,,,1,,,81,100
30304,note_off,,,,,64,0,9,,,,,1,,,78,100
30336,note_on,,,,,64,0,10,,,,,2,,,69,100
30336,note_on,,,,,0,0,9,,,,,1,,,78,100
30336,note_on,,,,,32,0,9,,,,,1,,,74,100
30336,note_on,,,,,64,0,11,,,,,3,,,62,100
30336,note_on,,,,,64,0,12,,,,,4,,,50,100
30336,note_on,,,,,64,0,13,,,,,5,,,66,100
30336,note_on,,,,,0,0,13,,,,,5,,,69,100
30336,note_on,,,,,64,0,14,,,,,5,,,62,100
30400,note_off,,,,,0,0,9,,,,,1,,,78,100
30400,note_off,,,,,64,0,9,,,,,1,,,74,100
30432,note_on,,,,,0,0,9,,,,,1,,,81,100
30432,note_on,,,,,32,0,9,,,,,1,,,78,100
30464,note_off,,,,,128,0,12,,,,,4,,,50,100
30464,note_off,,,,,0,0,13,,,,,5,,,69,100
30464,note_off,,,,,128,0,13,,,,,5,,,66,100
30464,note_off,,,,,128,0,11,,,,,3,,,62,100
30464,note_off,,,,,128,0,14,,,,,5,,,62,100
30464,note_off,,,,,128,0,10,,,,,2,,,69,100
30496,note_off,,,,,64,0,9,,,,,1,,,78,100
30496,note_off,,,,,0,0,9,,,,,1,,,81,100
30528,note_on,,,,,64,0,12,,,,,4,,,38,100
30528,note_on,,,,,0,0,9,,,,,1,,,78,100
30528,note_on,,,,,32,0,9,,,,,1,,,74,100
30528,note_on,,,,,64,0,10,,,,,2,,,69,100
30528,note_on,,,,,64,0,13,,,,,5,,,57,100
30528,note_on,,,,,0,0,13,,,,,5,,,66,100
30528,note_on,,,,,64,0,14,,,,,5,,,50,100
30528,note_on,,,,,64,0,11,,,,,3,,,50,100
30592,note_off,,,,,0,0,9,,,,,1,,,78,100
30592,note_off,,,,,64,0,9,,,,,1,,,74,100
30624,note_on,,,,,32,0,9,,,,,1,,,78,100
30624,note_on,,,,,0,0,9,,,,,1,,,81,100
30656,note_off,,,,,0,0,13,,,,,5,,,66,100
30656,note_off,,,,,128,0,13,,,,,5,,,57,100
30656,note_off,,,,,128,0,14,,,,,5,,,50,100
30656,note_off,,,,,128,0,12,,,,,4,,,38,100
30656,note_off,,,,,128,0,10,,,,,2,,,69,100
30656,note_off,,,,,128,0,11,,,,,3,,,50,100
30688,note_off,,,,,0,0,9,,,,,1,,,81,100
30688,note_off,,,,,64,0,9,,,,,1,,,78,100
30720,note_on,,,,,64,0,13,,,,,5,,,61,100
30720,note_on,,,,,64,0,14,,,,,5,,,57,100
30720,note_on,,,,,0,0,13,,,,,5,,,64,100
30720,note_on,,,,,64,0,10,,,,,2,,,69,100
30720,note_on,,,,,64,0,11,,,,,3,,,57,100
30720,note_on,,,,,64,0,12,,,,,4,,,45,100
30720,note_on,,,,,32,0,9,,,,,1,,,76,100
30720,note_on,,,,,0,0,9,,,,,1,,,73,100
30784,note_off,,,,,64,0,9,,,,,1,,,76,100
30784,note_off,,,,,0,0,9,,,,,1,,,73,100
30816,note_on,,,,,32,0,9,,,,,1,,,81,100
30816,note_on,,,,,0,0,9,,,,,1,,,76,100
30848,note_off,,,,,128,0,12,,,,,4,,,45,100
30848,note_off,,,,,128,0,14,,,,,5,,,57,100
30848,note_off,,,,,128,0,10,,,,,2,,,69,100
30848,note_off,,,,,128,0,11,,,,,3,,,57,100
30848,note_off,,,,,128,0,13,,,,,5,,,61,100
30848,note_off,,,,,0,0,13,,,,,5,,,64,100
30880,note_off,,,,,0,0,9,,,,,1,,,76,100
30880,note_off,,,,,64,0,9,,,,,1,,,81,100
30912,note_on,,,,,64,0,10,,,,,2,,,69,100
30912,note_on,,,,,0,0,13,,,,,5,,,64,100
30912,note_on,,,,,64,0,13,,,,,5,,,61,100
30912,note_on,,,,,32,0,9,,,,,1,,,76,100
30912,note_on,,,,,0,0,9,,,,,1,,,73,100
30912,note_on,,,,,64,0,14,,,,,5,,,57,100
30912,note_on,,,,,64,0,11,,,,,3,,,57,100
30912,note_on,,,,,64,0,12,,,,,4,,,45,100
30976,note_off,,,,,0,0,9,,,,,1,,,73,100
30976,note_off,,,,,64,0,9,,,,,1,,,76,100
31008,note_on,,,,,0,0,9,,,,,1,,,76,100
31008,note_on,,,,,32,0,9,,,,,1,,,81,100
31040,note_off,,,,,128,0,10,,,,,2,,,69,100
31040,note_off,,,,,128,0,11,,,,,3,,,57,100
31040,note_off,,,,,0,0,13,,,,,5,,,64,100
31040,note_off,,,,,128,0,13,,,,,5,,,61,100
31040,note_off,,,,,128,0,12,,,,,4,,,45,100
31040,note_off,,,,,128,0,14,,,,,5,,,57,100
31072,note_off,,,,,64,0,9,,,,,1,,,81,100
31072,note_off,,,,,0,0,9,,,,,1,,,76,100
31104,note_on,,,,,64,0,11,,,,,3,,,57,100
31104,note_on,,,,,64,0,10,,,,,2,,,69,100
31104,note_on,,,,,64,0,14,,,,,5,,,57,100
31104,note_on,,,,,64,0,12,,,,,4,,,45,100
31104,note_on,,,,,0,0,13,,,,,5,,,64,100
31104,note_on,,,,,64,0,13,,,,,5,,,61,100
31104,note_on,,,,,0,0,9,,,,,1,,,73,100
31104,note_on,,,,,32,0,9,,,,,1,,,76,100
31168,note_off,,,,,0,0,9,,,,,1,,,73,100
31168,note_off,,,,,64,0,9,,,,,1,,,76,100
31200,note_on,,,,,0,0,9,,,,,1,,,76,100
31200,note_on,,,,,32,0,9,,,,,1,,,81,100
31232,note_off,,,,,128,0,12,,,,,4,,,45,100
31232,note_off,,,,,0,0,13,,,,,5,,,64,100
31232,note_off,,,,,128,0,13,,,,,5,,,61,100
31232,note_off,,,,,128,0,10,,,,,2,,,69,100
31232,note_off,,,,,128,0,11,,,,,3,,,57,100
31232,note_off,,,,,128,0,14,,,,,5,,,57,100
31264,note_off,,,,,0,0,9,,,,,1,,,76,100
31264,note_off,,,,,64,0,9,,,,,1,,,81,100
31296,note_on,,,,,0,0,13,,,,,5,,,61,100
31296,note_on,,,,,64,0,11,,,,,3,,,45,100
31296,note_on,,,,,64,0,10,,,,,2,,,69,100
31296,note_on,,,,,64,0,12,,,,,4,,,33,100
31296,note_on,,,,,0,0,9,,,,,1,,,73,100
31296,note_on,,,,,32,0,9,,,,,1,,,76,100
31296,note_on,,,,,64,0,14,,,,,5,,,45,100
31296,note_on,,,,,64,0,13,,,,,5,,,57,100
31360,note_off,,,,,0,0,9,,,,,1,,,73,100
31360,note_off,,,,,64,0,9,,,,,1,,,76,100
31392,note_on,,,,,0,0,9,,,,,1,,,76,100
31392,note_on,,,,,32,0,9,,,,,1,,,81,100
31424,note_off,,,,,0,0,13,,,,,5,,,61,100
31424,note_off,,,,,128,0,13,,,,,5,,,57,100
31424,note_off,,,,,128,0,12,,,,,4,,,33,100
31424,note_off,,,,,128,0,11,,,,,3,,,45,100
31424,note_off,,,,,128,0,10,,,,,2,,,69,100
31424,note_off,,,,,128,0,14,,,,,5,,,45,100
31456,note_off,,,,,64,0,9,,,,,1,,,81,100
31456,note_off,,,,,0,0,9,,,,,1,,,76,100
31488,note_on,,,,,0,0,9,,,,,1,,,78,70
31488,note_on,,,,,0,0,13,,,,,5,,,69,100
31488,note_on,,,,,64,0,13,,,,,5,,,66,100
31488,note_on,,,,,32,0,9,,,,,1,,,74,70
31488,note_on,,,,,64,0,11,,,,,3,,,62,70
31488,note_on,,,,,64,0,12,,,,,4,,,50,70
31488,note_on,,,,,64,0,10,,,,,2,,,69,70
31488,note_on,,,,,64,0,14,,,,,5,,,62,100
31552,note_off,,,,,64,0,9,,,,,1,,,74,100
31552,note_off,,,,,0,0,9,,,,,1,,,78,100
31584,note_on,,,,,32,0,9,,,,,1,,,78,70
31584,note_on,,,,,0,0,9,,,,,1,,,81,70
31616,note_off,,,,,128,0,11,,,,,3,,,62,100
31616,note_off,,,,,128,0,13,,,,,5,,,66,100
31616,note_off,,,,,128,0,14,,,,,5,,,62,100
31616,note_off,,,,,0,0,13,,,,,5,,,69,100
31616,note_off,,,,,128,0,12,,,,,4,,,50,100
31616,note_off,,,,,128,0,10,,,,,2,,,69,100
31648,note_off,,,,,64,0,9,,,,,1,,,78,100
31648,note_off,,,,,0,0,9,,,,,1,,,81,100
31680,note_on,,,,,32,0,9,,,,,1,,,74,70
31680,note_on,,,,,64,0,13,,,,,5,,,66,100
31680,note_on,,,,,64,0,11,,,,,3,,,62,70
31680,note_on,,,,,0,0,9,,,,,1,,,78,70
31680,note_on,,,,,0,0,13,,,,,5,,,69,100
31680,note_on,,,,,64,0,14,,,,,5,,,62,100
31680,note_on,,,,,64,0,12,,,,,4,,,50,70
31680,note_on,,,,,64,0,10,,,,,2,,,69,70
31744,note_off,,,,,0,0,9,,,,,1,,,78,100
31744,note_off,,,,,64,0,9,,,,,1,,,74,100
31776,note_on,,,,,0,0,9,,,,,1,,,81,70
31776,note_on,,,,,32,0,9,,,,,1,,,78,70
31808,note_off,,,,,128,0,14,,,,,5,,,62,100
31808,note_off,,,,,128,0,13,,,,,5,,,66,100
31808,note_off,,,,,128,0,12,,,,,4,,,50,100
31808,note_off,,,,,128,0,10,,,,,2,,,69,100
31808,note_off,,,,,0,0,13,,,,,5,,,69,100
31808,note_off,,,,,128,0,11,,,,,3,,,62,100
31840,note_off,,,,,0,0,9,,,,,1,,,81,100
31840,note_off,,,,,64,0,9,,,,,1,,,78,100
31872,note_on,,,,,0,0,13,,,,,5,,,69,100
31872,note_on,,,,,64,0,13,,,,,5,,,66,100
31872,note_on,,,,,64,0,12,,,,,4,,,50,70
31872,note_on,,,,,64,0,10,,,,,2,,,69,70
31872,note_on,,,,,64,0,14,,,,,5,,,62,100
31872,note_on,,,,,32,0,9,,,,,1,,,74,70
31872,note_on,,,,,0,0,9,,,,,1,,,78,70
31872,note_on,,,,,64,0,11,,,,,3,,,62,70
31936,note_off,,,,,64,0,9,,,,,1,,,74,100
31936,note_off,,,,,0,0,9,,,,,1,,,78,100
31968,note_on,,,,,0,0,9,,,,,1,,,81,70
31968,note_on,,,,,32,0,9,,,,,1,,,78,70
32000,note_off,,,,,128,0,13,,,,,5,,,66,100
32000,note_off,,,,,0,0,13,,,,,5,,,69,100
32000,note_off,,,,,128,0,14,,,,,5,,,62,100
32000,note_off,,,,,128,0,11,,,,,3,,,62,100
32000,note_off,,,,,128,0,12,,,,,4,,,50,100
32000,note_off,,,,,128,0,10,,,,,2,,,69,100
32032,note_off,,,,,0,0,9,,,,,1,,,81,100
32032,note_off,,,,,64,0,9,,,,,1,,,78,100
32064,note_on,,,,,64,0,13,,,,,5,,,57,100
32064,note_on,,,,,0,0,13,,,,,5,,,66,100
32064,note_on,,,,,64,0,14,,,,,5,,,50,100
32064,note_on,,,,,32,0,9,,,,,1,,,74,70
32064,note_on,,,,,0,0,9,,,,,1,,,78,70
32064,note_on,,,,,64,0,12,,,,,4,,,38,70
32064,note_on,,,,,64,0,10,,,,,2,,,69,70
32064,note_on,,,,,64,0,11,,,,,3,,,50,70
32128,note_off,,,,,64,0,9,,,,,1,,,74,100
32128,note_off,,,,,0,0,9,,,,,1,,,78,100
32160,note_on,,,,,32,0,9,,,,,1,,,78,70
32160,note_on,,,,,0,0,9,,,,,1,,,81,70
32192,note_off,,,,,128,0,14,,,,,5,,,50,100
32192,note_off,,,,,128,0,10,,,,,2,,,69,100
32192,note_off,,,,,0,0,13,,,,,5,,,66,100
32192,note_off,,,,,128,0,13,,,,,5,,,57,100
32192,note_off,,,,,128,0,12,,,,,4,,,38,100
32192,note_off,,,,,128,0,11,,,,,3,,,50,100
32224,note_off,,,,,0,0,9,,,,,1,,,81,100
32224,note_off,,,,,64,0,9,,,,,1,,,78,100
32256,note_on,,,,,64,0,14,,,,,5,,,57,100
32256,note_on,,,,,64,0,12,,,,,4,,,45,70
32256,note_on,,,,,64,0,11,,,,,3,,,57,70
32256,note_on,,,,,0,0,13,,,,,5,,,64,100
32256,note_on,,,,,64,0,10,,,,,2,,,69,70
32256,note_on,,,,,0,0,9,,,,,1,,,73,70
32256,note_on,,,,,32,0,9,,,,,1,,,76,70
32256,note_on,,,,,64,0,13,,,,,5,,,61,100
32320,note_off,,,,,0,0,9,,,,,1,,,73,100
32320,note_off,,,,,64,0,9,,,,,1,,,76,100
32352,note_on,,,,,0,0,9,,,,,1,,,76,70
32352,note_on,,,,,32,0,9,,,,,1,,,81,70
32384,note_off,,,,,128,0,13,,,,,5,,,61,100
32384,note_off,,,,,128,0,14,,,,,5,,,57,100
32384,note_off,,,,,128,0,12,,,,,4,,,45,100
32384,note_off,,,,,0,0,13,,,,,5,,,64,100
32384,note_off,,,,,128,0,10,,,,,2,,,69,100
32384,note_off,,,,,128,0,11,,,,,3,,,57,100
32416,note_off,,,,,0,0,9,,,,,1,,,76,100
32416,note_off,,,,,64,0,9,,,,,1,,,81,100
32448,note_on,,,,,0,0,13,,,,,5,,,64,100
32448,note_on,,,,,64,0,13,,,,,5,,,61,100
32448,note_on,,,,,0,0,9,,,,,1,,,73,70
32448,note_on,,,,,32,0,9,,,,,1,,,76,70
32448,note_on,,,,,64,0,12,,,,,4,,,45,70
32448,note_on,,,,,64,0,14,,,,,5,,,57,100
32448,note_on,,,,,64,0,11,,,,,3,,,57,70
32448,note_on,,,,,64,0,10,,,,,2,,,69,70
32512,note_off,,,,,0,0,9,,,,,1,,,73,100
32512,note_off,,,,,64,0,9,,,,,1,,,76,100
32544,note_on,,,,,0,0,9,,,,,1,,,76,70
32544,note_on,,,,,32,0,9,,,,,1,,,81,70
32576,note_off,,,,,128,0,11,,,,,3,,,57,100
32576,note_off,,,,,128,0,12,,,,,4,,,45,100
32576,note_off,,,,,128,0,10,,,,,2,,,69,100
32576,note_off,,,,,128,0,14,,,,,5,,,57,100
32576,note_off,,,,,128,0,13,,,,,5,,,61,100
32576,note_off,,,,,0,0,13,,,,,5,,,64,100
32608,note_off,,,,,0,0,9,,,,,1,,,76,100
32608,note_off,,,,,64,0,9,,,,,1,,,81,100
32640,note_on,,,,,64,0,11,,,,,3,,,57,70
32640,note_on,,,,,64,0,14,,,,,5,,,57,100
32640,note_on,,,,,64,0,13,,,,,5,,,61,100
32640,note_on,,,,,32,0,9,,,,,1,,,76,70
32640,note_on,,,,,64,0,12,,,,,4,,,45,70
32640,note_on,,,,,0,0,9,,,,,1,,,73,70
32640,note_on,,,,,0,0,13,,,,,5,,,64,100
32640,note_on,,,,,64,0,10,,,,,2,,,69,70
32704,note_off,,,,,64,0,9,,,,,1,,,76,100
32704,note_off,,,,,0,0,9,,,,,1,,,73,100
32736,note_on,,,,,32,0,9,,,,,1,,,81,70
32736,note_on,,,,,0,0,9,,,,,1,,,76,70
32768,note_off,,,,,128,0,14,,,,,5,,,57,100
32768,note_off,,,,,128,0,11,,,,,3,,,57,100
32768,note_off,,,,,128,0,12,,,,,4,,,45,100
32768,note_off,,,,,128,0,13,,,,,5,,,61,100
32768,note_off,,,,,128,0,10,,,,,2,,,69,100
32768,note_off,,,,,0,0,13,,,,,5,,,64,100
32800,note_off,,,,,64,0,9,,,,,1,,,81,100
32800,note_off,,,,,0,0,9,,,,,1,,,76,100
32832,note_on,,,,,64,0,12,,,,,4,,,33,70
32832,note_on,,,,,64,0,14,,,,,5,,,45,100
32832,note_on,,,,,32,0,9,,,,,1,,,76,70
32832,note_on,,,,,0,0,9,,,,,1,,,73,70
32832,note_on,,,,,0,0,13,,,,,5,,,61,100
32832,note_on,,,,,64,0,13,,,,,5,,,57,100
32832,note_on,,,,,64,0,10,,,,,2,,,69,70
32832,note_on,,,,,64,0,11,,,,,3,,,45,70
32896,note_off,,,,,64,0,9,,,,,1,,,76,100
32896,note_off,,,,,0,0,9,,,,,1,,,73,100
32928,note_on,,,,,32,0,9,,,,,1,,,81,70
32928,note_on,,,,,0,0,9,,,,,1,,,76,70
32960,note_off,,,,,128,0,13,,,,,5,,,57,100
32960,note_off,,,,,128,0,10,,,,,2,,,69,100
32960,note_off,,,,,128,0,11,,,,,3,,,45,100
32960,note_off,,,,,128,0,12,,,,,4,,,33,100
32960,note_off,,,,,128,0,14,,,,,5,,,45,100
32960,note_off,,,,,0,0,13,,,,,5,,,61,100
32992,note_off,,,,,0,0,9,,,,,1,,,76,100
32992,note_off,,,,,64,0,9,,,,,1,,,81,100
33024,note_on,,,,,64,0,13,,,,,5,,,57,100
33024,note_on,,,,,0,0,13,,,,,5,,,66,100
33024,note_on,,,,,64,0,14,,,,,5,,,50,100
33024,note_on,,,,,0,0,9,,,,,1,,,78,70
33024,note_on,,,,,64,0,11,,,,,3,,,50,70
33024,note_on,,,,,32,0,9,,,,,1,,,74,70
33024,note_on,,,,,64,0,10,,,,,2,,,69,70
33024,note_on,,,,,64,0,12,,,,,4,,,38,70
33024,note_on,,,,,9856,0,8,,,,,0,,,78,100
33088,note_off,,,,,64,0,8,,,,,0,,,78,100
33120,note_on,,,,,32,0,8,,,,,0,,,81,100
33152,note_off,,,,,0,0,9,,,,,1,,,78,100
33152,note_off,,,,,128,0,9,,,,,1,,,74,100
33152,note_off,,,,,128,0,10,,,,,2,,,69,100
33184,note_off,,,,,64,0,8,,,,,0,,,81,100
33216,note_on,,,,,32,0,8,,,,,0,,,79,100
33216,note_on,,,,,64,0,10,,,,,2,,,62,60
33216,note_on,,,,,64,0,9,,,,,1,,,62,60
33280,note_off,,,,,256,0,13,,,,,5,,,57,100
33280,note_off,,,,,256,0,11,,,,,3,,,50,100
33280,note_off,,,,,256,0,12,,,,,4,,,38,100
33280,note_off,,,,,0,0,13,,,,,5,,,66,100
33280,note_off,,,,,256,0,14,,,,,5,,,50,100
33280,note_off,,,,,64,0,8,,,,,0,,,79,100
33312,note_on,,,,,32,0,8,,,,,0,,,81,100
33344,note_off,,,,,128,0,10,,,,,2,,,62,100
33344,note_off,,,,,128,0,9,,,,,1,,,62,100
33376,note_off,,,,,64,0,8,,,,,0,,,81,100
33408,note_on,,,,,32,0,8,,,,,0,,,78,100
33408,note_on,,,,,64,0,10,,,,,2,,,62,60
33408,note_on,,,,,64,0,9,,,,,1,,,62,60
33472,note_off,,,,,64,0,8,,,,,0,,,78,100
33504,note_on,,,,,32,0,8,,,,,0,,,76,100
33536,note_off,,,,,128,0,10,,,,,2,,,62,100
33536,note_off,,,,,128,0,9,,,,,1,,,62,100
33568,note_off,,,,,64,0,8,,,,,0,,,76,100
33600,note_on,,,,,64,0,10,,,,,2,,,62,60
33600,note_on,,,,,64,0,9,,,,,1,,,62,60
33600,note_on,,,,,32,0,8,,,,,0,,,74,100
33664,note_off,,,,,64,0,8,,,,,0,,,74,100
33696,note_on,,,,,32,0,8,,,,,0,,,73,100
33728,note_off,,,,,128,0,10,,,,,2,,,62,100
33728,note_off,,,,,128,0,9,,,,,1,,,62,100
33760,note_off,,,,,64,0,8,,,,,0,,,73,100
33792,note_on,,,,,64,0,9,,,,,1,,,55,60
33792,note_on,,,,,64,0,10,,,,,2,,,55,60
33792,note_on,,,,,32,0,8,,,,,0,,,71,100
33856,note_off,,,,,64,0,8,,,,,0,,,71,100
33888,note_on,,,,,32,0,8,,,,,0,,,83,100
33920,note_off,,,,,128,0,9,,,,,1,,,55,100
33920,note_off,,,,,128,0,10,,,,,2,,,55,100
33952,note_off,,,,,64,0,8,,,,,0,,,83,100
33984,note_on,,,,,64,0,9,,,,,1,,,55,60
33984,note_on,,,,,64,0,10,,,,,2,,,55,60
33984,note_on,,,,,32,0,8,,,,,0,,,81,100
34048,note_off,,,,,64,0,8,,,,,0,,,81,100
34080,note_on,,,,,32,0,8,,,,,0,,,83,100
34112,note_off,,,,,128,0,10,,,,,2,,,55,100
34112,note_off,,,,,128,0,9,,,,,1,,,55,100
34144,note_off,,,,,64,0,8,,,,,0,,,83,100
34176,note_on,,,,,64,0,9,,,,,1,,,55,60
34176,note_on,,,,,32,0,8,,,,,0,,,79,100
34176,note_on,,,,,64,0,10,,,,,2,,,55,60
34240,note_off,,,,,64,0,8,,,,,0,,,79,100
34272,note_on,,,,,32,0,8,,,,,0,,,78,100
34304,note_off,,,,,128,0,9,,,,,1,,,55,100
34304,note_off,,,,,128,0,10,,,,,2,,,55,100
34336,note_off,,,,,64,0,8,,,,,0,,,78,100
34368,note_on,,,,,64,0,9,,,,,1,,,55,60
34368,note_on,,,,,32,0,8,,,,,0,,,76,100
34368,note_on,,,,,64,0,10,,,,,2,,,55,60
34432,note_off,,,,,64,0,8,,,,,0,,,76,100
34464,note_on,,,,,32,0,8,,,,,0,,,74,100
34496,note_off,,,,,128,0,9,,,,,1,,,55,100
34496,note_off,,,,,128,0,10,,,,,2,,,55,100
34528,note_off,,,,,64,0,8,,,,,0,,,74,100
34560,note_on,,,,,64,0,9,,,,,1,,,57,60
34560,note_on,,,,,32,0,8,,,,,0,,,73,100
34560,note_on,,,,,64,0,10,,,,,2,,,57,60
34624,note_off,,,,,64,0,8,,,,,0,,,73,100
34656,note_on,,,,,32,0,8,,,,,0,,,76,100
34688,note_off,,,,,128,0,10,,,,,2,,,57,100
34688,note_off,,,,,128,0,9,,,,,1,,,57,100
34720,note_off,,,,,64,0,8,,,,,0,,,76,100
34752,note_on,,,,,32,0,8,,,,,0,,,74,100
34752,note_on,,,,,64,0,10,,,,,2,,,57,60
34752,note_on,,,,,64,0,9,,,,,1,,,57,60
34816,note_off,,,,,64,0,8,,,,,0,,,74,100
34848,note_on,,,,,32,0,8,,,,,0,,,76,100
34880,note_off,,,,,128,0,9,,,,,1,,,57,100
34880,note_off,,,,,128,0,10,,,,,2,,,57,100
34912,note_off,,,,,64,0,8,,,,,0,,,76,100
34944,note_on,,,,,64,0,10,,,,,2,,,57,60
34944,note_on,,,,,32,0,8,,,,,0,,,73,100
34944,note_on,,,,,64,0,9,,,,,1,,,57,60
35008,note_off,,,,,64,0,8,,,,,0,,,73,100
35040,note_on,,,,,32,0,8,,,,,0,,,74,100
35072,note_off,,,,,128,0,10,,,,,2,,,57,100
35072,note_off,,,,,128,0,9,,,,,1,,,57,100
35104,note_off,,,,,64,0,8,,,,,0,,,74,100
35136,note_on,,,,,64,0,9,,,,,1,,,57,60
35136,note_on,,,,,32,0,8,,,,,0,,,71,100
35136,note_on,,,,,64,0,10,,,,,2,,,57,60
35200,note_off,,,,,64,0,8,,,,,0,,,71,100
35232,note_on,,,,,32,0,8,,,,,0,,,73,100
35264,note_off,,,,,128,0,9,,,,,1,,,57,100
35264,note_off,,,,,128,0,10,,,,,2,,,57,100
35296,note_off,,,,,64,0,8,,,,,0,,,73,100
35328,note_on,,,,,64,0,9,,,,,1,,,69,60
35328,note_on,,,,,64,0,10,,,,,2,,,69,60
35328,note_on,,,,,32,0,8,,,,,0,,,69,100
35392,note_off,,,,,64,0,8,,,,,0,,,69,100
35424,note_on,,,,,32,0,8,,,,,0,,,73,100
35456,note_off,,,,,128,0,9,,,,,1,,,69,100
35456,note_off,,,,,128,0,10,,,,,2,,,69,100
35488,note_off,,,,,64,0,8,,,,,0,,,73,100
35520,note_on,,,,,64,0,9,,,,,1,,,69,60
35520,note_on,,,,,32,0,8,,,,,0,,,71,100
35520,note_on,,,,,64,0,10,,,,,2,,,69,60
35584,note_off,,,,,64,0,8,,,,,0,,,71,100
35616,note_on,,,,,32,0,8,,,,,0,,,73,100
35648,note_off,,,,,128,0,10,,,,,2,,,69,100
35648,note_off,,,,,128,0,9,,,,,1,,,69,100
35680,note_off,,,,,64,0,8,,,,,0,,,73,100
35712,note_on,,,,,32,0,8,,,,,0,,,69,100
35712,note_on,,,,,0,0,9,,,,,1,,,67,60
35712,note_on,,,,,64,0,9,,,,,1,,,73,60
35712,note_on,,,,,64,0,10,,,,,2,,,67,60
35776,note_off,,,,,64,0,8,,,,,0,,,69,100
35808,note_on,,,,,32,0,8,,,,,0,,,73,100
35840,note_off,,,,,128,0,10,,,,,2,,,67,100
35840,note_off,,,,,0,0,9,,,,,1,,,67,100
35840,note_off,,,,,128,0,9,,,,,1,,,73,100
35872,note_off,,,,,64,0,8,,,,,0,,,73,100
35904,note_on,,,,,64,0,9,,,,,1,,,69,60
35904,note_on,,,,,32,0,8,,,,,0,,,71,100
35904,note_on,,,,,0,0,9,,,,,1,,,67,60
35904,note_on,,,,,64,0,10,,,,,2,,,67,60
35968,note_off,,,,,64,0,8,,,,,0,,,71,100
36000,note_on,,,,,32,0,8,,,,,0,,,73,100
36032,note_off,,,,,128,0,9,,,,,1,,,69,100
36032,note_off,,,,,0,0,9,,,,,1,,,67,100
36032,note_off,,,,,128,0,10,,,,,2,,,67,100
36064,note_off,,,,,64,0,8,,,,,0,,,73,100
36096,note_on,,,,,64,0,9,,,,,1,,,66,60
36096,note_on,,,,,32,0,8,,,,,0,,,69,100
36096,note_on,,,,,64,0,10,,,,,2,,,66,60
36160,note_off,,,,,64,0,8,,,,,0,,,69,100
36192,note_on,,,,,32,0,8,,,,,0,,,74,100
36224,note_off,,,,,128,0,10,,,,,2,,,66,100
36224,note_off,,,,,128,0,9,,,,,1,,,66,100
36256,note_off,,,,,64,0,8,,,,,0,,,74,100
36288,note_on,,,,,64,0,10,,,,,2,,,66,60
36288,note_on,,,,,0,0,9,,,,,1,,,66,60
36288,note_on,,,,,64,0,9,,,,,1,,,69,60
36288,note_on,,,,,32,0,8,,,,,0,,,73,100
36352,note_off,,,,,64,0,8,,,,,0,,,73,100
36384,note_on,,,,,32,0,8,,,,,0,,,74,100
36416,note_off,,,,,128,0,9,,,,,1,,,69,100
36416,note_off,,,,,0,0,9,,,,,1,,,66,100
36416,note_off,,,,,128,0,10,,,,,2,,,66,100
36448,note_off,,,,,64,0,8,,,,,0,,,74,100
36480,note_on,,,,,32,0,8,,,,,0,,,69,100
36480,note_on,,,,,64,0,10,,,,,2,,,66,60
36480,note_on,,,,,64,0,9,,,,,1,,,74,60
36480,note_on,,,,,0,0,9,,,,,1,,,66,60
36544,note_off,,,,,64,0,8,,,,,0,,,69,100
36576,note_on,,,,,32,0,8,,,,,0,,,74,100
36608,note_off,,,,,0,0,9,,,,,1,,,66,100
36608,note_off,,,,,128,0,9,,,,,1,,,74,100
36608,note_off,,,,,128,0,10,,,,,2,,,66,100
36640,note_off,,,,,64,0,8,,,,,0,,,74,100
36672,note_on,,,,,32,0,8,,,,,0,,,73,100
36672,note_on,,,,,64,0,10,,,,,2,,,66,60
36672,note_on,,,,,64,0,9,,,,,1,,,69,60
36672,note_on,,,,,0,0,9,,,,,1,,,66,60
36736,note_off,,,,,64,0,8,,,,,0,,,73,100
36768,note_on,,,,,32,0,8,,,,,0,,,74,100
36800,note_off,,,,,128,0,9,,,,,1,,,69,100
36800,note_off,,,,,0,0,9,,,,,1,,,66,100
36800,note_off,,,,,128,0,10,,,,,2,,,66,100
36832,note_off,,,,,64,0,8,,,,,0,,,74,100
36864,note_on,,,,,64,0,10,,,,,2,,,67,60
36864,note_on,,,,,32,0,8,,,,,0,,,71,100
36864,note_on,,,,,64,0,9,,,,,1,,,67,60
36928,note_off,,,,,64,0,8,,,,,0,,,71,100
36960,note_on,,,,,32,0,8,,,,,0,,,74,100
36992,note_off,,,,,128,0,9,,,,,1,,,67,100
36992,note_off,,,,,128,0,10,,,,,2,,,67,100
37024,note_off,,,,,64,0,8,,,,,0,,,74,100
37056,note_on,,,,,64,0,10,,,,,2,,,67,60
37056,note_on,,,,,0,0,9,,,,,1,,,67,60
37056,note_on,,,,,32,0,8,,,,,0,,,73,100
37056,note_on,,,,,64,0,9,,,,,1,,,71,60
37120,note_off,,,,,64,0,8,,,,,0,,,73,100
37152,note_on,,,,,32,0,8,,,,,0,,,74,100
37184,note_off,,,,,128,0,10,,,,,2,,,67,100
37184,note_off,,,,,128,0,9,,,,,1,,,71,100
37184,note_off,,,,,0,0,9,,,,,1,,,67,100
37216,note_off,,,,,64,0,8,,,,,0,,,74,100
37248,note_on,,,,,64,0,9,,,,,1,,,74,60
37248,note_on,,,,,0,0,9,,,,,1,,,67,60
37248,note_on,,,,,64,0,10,,,,,2,,,67,60
37248,note_on,,,,,32,0,8,,,,,0,,,71,100
37312,note_off,,,,,64,0,8,,,,,0,,,71,100
37344,note_on,,,,,32,0,8,,,,,0,,,74,100
37376,note_off,,,,,128,0,9,,,,,1,,,74,100
37376,note_off,,,,,0,0,9,,,,,1,,,67,100
37376,note_off,,,,,128,0,10,,,,,2,,,67,100
37408,note_off,,,,,64,0,8,,,,,0,,,74,100
37440,note_on,,,,,0,0,9,,,,,1,,,67,60
37440,note_on,,,,,32,0,8,,,,,0,,,73,100
37440,note_on,,,,,64,0,10,,,,,2,,,67,60
37440,note_on,,,,,64,0,9,,,,,1,,,71,60
37504,note_off,,,,,64,0,8,,,,,0,,,73,100
37536,note_on,,,,,32,0,8,,,,,0,,,74,100
37568,note_off,,,,,128,0,10,,,,,2,,,67,100
37568,note_off,,,,,128,0,9,,,,,1,,,71,100
37568,note_off,,,,,0,0,9,,,,,1,,,67,100
37600,note_off,,,,,64,0,8,,,,,0,,,74,100
37632,note_on,,,,,64,0,10,,,,,2,,,68,60
37632,note_on,,,,,64,0,9,,,,,1,,,68,60
37632,note_on,,,,,32,0,8,,,,,0,,,71,100
37696,note_off,,,,,64,0,8,,,,,0,,,71,100
37728,note_on,,,,,32,0,8,,,,,0,,,76,100
37760,note_off,,,,,128,0,9,,,,,1,,,68,100
37760,note_off,,,,,128,0,10,,,,,2,,,68,100
37792,note_off,,,,,64,0,8,,,,,0,,,76,100
37824,note_on,,,,,32,0,8,,,,,0,,,74,100
37824,note_on,,,,,0,0,9,,,,,1,,,68,60
37824,note_on,,,,,64,0,10,,,,,2,,,68,60
37824,note_on,,,,,64,0,9,,,,,1,,,71,60
37888,note_off,,,,,64,0,8,,,,,0,,,74,100
37920,note_on,,,,,32,0,8,,,,,0,,,76,100
37952,note_off,,,,,128,0,10,,,,,2,,,68,100
37952,note_off,,,,,0,0,9,,,,,1,,,68,100
37952,note_off,,,,,128,0,9,,,,,1,,,71,100
37984,note_off,,,,,64,0,8,,,,,0,,,76,100
38016,note_on,,,,,32,0,8,,,,,0,,,71,100
38016,note_on,,,,,64,0,10,,,,,2,,,68,60
38016,note_on,,,,,64,0,9,,,,,1,,,76,60
38016,note_on,,,,,0,0,9,,,,,1,,,68,60
38080,note_off,,,,,64,0,8,,,,,0,,,71,100
38112,note_on,,,,,32,0,8,,,,,0,,,76,100
38144,note_off,,,,,128,0,10,,,,,2,,,68,100
38144,note_off,,,,,128,0,9,,,,,1,,,76,100
38144,note_off,,,,,0,0,9,,,,,1,,,68,100
38176,note_off,,,,,64,0,8,,,,,0,,,76,100
38208,note_on,,,,,32,0,8,,,,,0,,,74,100
38208,note_on,,,,,64,0,10,,,,,2,,,68,60
38208,note_on,,,,,64,0,9,,,,,1,,,71,60
38208,note_on,,,,,0,0,9,,,,,1,,,68,60
38272,note_off,,,,,64,0,8,,,,,0,,,74,100
38304,note_on,,,,,32,0,8,,,,,0,,,76,100
38336,note_off,,,,,0,0,9,,,,,1,,,68,100
38336,note_off,,,,,128,0,9,,,,,1,,,71,100
38336,note_off,,,,,128,0,10,,,,,2,,,68,100
38368,note_off,,,,,64,0,8,,,,,0,,,76,100
38400,note_on,,,,,64,0,9,,,,,1,,,69,60
38400,note_on,,,,,32,0,8,,,,,0,,,73,100
38400,note_on,,,,,64,0,10,,,,,2,,,69,60
38464,note_off,,,,,64,0,8,,,,,0,,,73,100
38496,note_on,,,,,32,0,8,,,,,0,,,76,100
38528,note_off,,,,,128,0,9,,,,,1,,,69,100
38528,note_off,,,,,128,0,10,,,,,2,,,69,100
38560,note_off,,,,,64,0,8,,,,,0,,,76,100
38592,note_on,,,,,64,0,10,,,,,2,,,69,60
38592,note_on,,,,,64,0,9,,,,,1,,,73,60
38592,note_on,,,,,0,0,9,,,,,1,,,69,60
38592,note_on,,,,,32,0,8,,,,,0,,,74,100
38656,note_off,,,,,64,0,8,,,,,0,,,74,100
38688,note_on,,,,,32,0,8,,,,,0,,,76,100
38720,note_off,,,,,128,0,9,,,,,1,,,73,100
38720,note_off,,,,,128,0,10,,,,,2,,,69,100
38720,note_off,,,,,0,0,9,,,,,1,,,69,100
38752,note_off,,,,,64,0,8,,,,,0,,,76,100
38784,note_on,,,,,32,0,8,,,,,0,,,73,100
38784,note_on,,,,,0,0,9,,,,,1,,,69,60
38784,note_on,,,,,64,0,9,,,,,1,,,76,60
38784,note_on,,,,,64,0,10,,,,,2,,,69,60
38848,note_off,,,,,64,0,8,,,,,0,,,73,100
38880,note_on,,,,,32,0,8,,,,,0,,,76,100
38912,note_off,,,,,0,0,9,,,,,1,,,69,100
38912,note_off,,,,,128,0,9,,,,,1,,,76,100
38912,note_off,,,,,128,0,10,,,,,2,,,69,100
38944,note_off,,,,,64,0,8,,,,,0,,,76,100
38976,note_on,,,,,0,0,9,,,,,1,,,69,60
38976,note_on,,,,,64,0,9,,,,,1,,,73,60
38976,note_on,,,,,32,0,8,,,,,0,,,74,100
38976,note_on,,,,,64,0,10,,,,,2,,,69,60
39040,note_off,,,,,64,0,8,,,,,0,,,74,100
39072,note_on,,,,,32,0,8,,,,,0,,,76,100
39104,note_off,,,,,128,0,9,,,,,1,,,73,100
39104,note_off,,,,,0,0,9,,,,,1,,,69,100
39104,note_off,,,,,128,0,10,,,,,2,,,69,100
39136,note_off,,,,,64,0,8,,,,,0,,,76,100
39168,note_on,,,,,64,0,9,,,,,1,,,70,60
39168,note_on,,,,,32,0,8,,,,,0,,,73,100
39168,note_on,,,,,64,0,10,,,,,2,,,70,60
39232,note_off,,,,,64,0,8,,,,,0,,,73,100
39264,note_on,,,,,32,0,8,,,,,0,,,78,100
39296,note_off,,,,,128,0,9,,,,,1,,,70,100
39296,note_off,,,,,128,0,10,,,,,2,,,70,100
39328,note_off,,,,,64,0,8,,,,,0,,,78,100
39360,note_on,,,,,64,0,10,,,,,2,,,70,60
39360,note_on,,,,,32,0,8,,,,,0,,,76,100
39360,note_on,,,,,64,0,9,,,,,1,,,73,60
39360,note_on,,,,,0,0,9,,,,,1,,,70,60
39424,note_off,,,,,64,0,8,,,,,0,,,76,100
39456,note_on,,,,,32,0,8,,,,,0,,,78,100
39488,note_off,,,,,128,0,9,,,,,1,,,73,100
39488,note_off,,,,,0,0,9,,,,,1,,,70,100
39488,note_off,,,,,128,0,10,,,,,2,,,70,100
39520,note_off,,,,,64,0,8,,,,,0,,,78,100
39552,note_on,,,,,64,0,10,,,,,2,,,70,60
39552,note_on,,,,,64,0,9,,,,,1,,,78,60
39552,note_on,,,,,0,0,9,,,,,1,,,70,60
39552,note_on,,,,,32,0,8,,,,,0,,,73,100
39616,note_off,,,,,64,0,8,,,,,0,,,73,100
39648,note_on,,,,,32,0,8,,,,,0,,,78,100
39680,note_off,,,,,128,0,9,,,,,1,,,78,100
39680,note_off,,,,,0,0,9,,,,,1,,,70,100
39680,note_off,,,,,128,0,10,,,,,2,,,70,100
39712,note_off,,,,,64,0,8,,,,,0,,,78,100
39744,note_on,,,,,64,0,9,,,,,1,,,73,60
39744,note_on,,,,,0,0,9,,,,,1,,,70,60
39744,note_on,,,,,64,0,10,,,,,2,,,70,60
39744,note_on,,,,,32,0,8,,,,,0,,,76,100
39808,note_off,,,,,64,0,8,,,,,0,,,76,100
39840,note_on,,,,,32,0,8,,,,,0,,,78,100
39872,note_off,,,,,128,0,9,,,,,1,,,73,100
39872,note_off,,,,,128,0,10,,,,,2,,,70,100
39872,note_off,,,,,0,0,9,,,,,1,,,70,100
39904,note_off,,,,,64,0,8,,,,,0,,,78,100
39936,note_on,,,,,64,0,10,,,,,2,,,71,60
39936,note_on,,,,,64,0,9,,,,,1,,,71,60
39936,note_on,,,,,32,0,8,,,,,0,,,74,100
40000,note_off,,,,,64,0,8,,,,,0,,,74,100
40032,note_on,,,,,32,0,8,,,,,0,,,78,100
40064,note_off,,,,,128,0,9,,,,,1,,,71,100
40064,note_off,,,,,128,0,10,,,,,2,,,71,100
40096,note_off,,,,,64,0,8,,,,,0,,,78,100
40128,note_on,,,,,0,0,9,,,,,1,,,71,60
40128,note_on,,,,,64,0,9,,,,,1,,,74,60
40128,note_on,,,,,64,0,10,,,,,2,,,71,60
40128,note_on,,,,,32,0,8,,,,,0,,,76,100
40192,note_off,,,,,64,0,8,,,,,0,,,76,100
40224,note_on,,,,,32,0,8,,,,,0,,,78,100
40256,note_off,,,,,128,0,10,,,,,2,,,71,100
40256,note_off,,,,,128,0,9,,,,,1,,,74,100
40256,note_off,,,,,0,0,9,,,,,1,,,71,100
40288,note_off,,,,,64,0,8,,,,,0,,,78,100
40320,note_on,,,,,64,0,9,,,,,1,,,78,60
40320,note_on,,,,,0,0,9,,,,,1,,,71,60
40320,note_on,,,,,32,0,8,,,,,0,,,74,100
40320,note_on,,,,,64,0,10,,,,,2,,,71,60
40384,note_off,,,,,64,0,8,,,,,0,,,74,100
40416,note_on,,,,,32,0,8,,,,,0,,,78,100
40448,note_off,,,,,128,0,10,,,,,2,,,71,100
40448,note_off,,,,,128,0,9,,,,,1,,,78,100
40448,note_off,,,,,0,0,9,,,,,1,,,71,100
40480,note_off,,,,,64,0,8,,,,,0,,,78,100
40512,note_on,,,,,64,0,9,,,,,1,,,74,60
40512,note_on,,,,,64,0,10,,,,,2,,,71,60
40512,note_on,,,,,32,0,8,,,,,0,,,76,100
40512,note_on,,,,,0,0,9,,,,,1,,,71,60
40576,note_off,,,,,64,0,8,,,,,0,,,76,100
40608,note_on,,,,,32,0,8,,,,,0,,,78,100
40640,note_off,,,,,128,0,9,,,,,1,,,74,100
40640,note_off,,,,,0,0,9,,,,,1,,,71,100
40640,note_off,,,,,128,0,10,,,,,2,,,71,100
40672,note_off,,,,,64,0,8,,,,,0,,,78,100
40704,note_on,,,,,64,0,9,,,,,1,,,71,60
40704,note_on,,,,,32,0,8,,,,,0,,,74,100
40704,note_on,,,,,64,0,10,,,,,2,,,71,60
40768,note_off,,,,,64,0,8,,,,,0,,,74,100
40800,note_on,,,,,32,0,8,,,,,0,,,79,100
40832,note_off,,,,,128,0,10,,,,,2,,,71,100
40832,note_off,,,,,128,0,9,,,,,1,,,71,100
40864,note_off,,,,,64,0,8,,,,,0,,,79,100
40896,note_on,,,,,64,0,10,,,,,2,,,71,60
40896,note_on,,,,,64,0,9,,,,,1,,,74,60
40896,note_on,,,,,0,0,9,,,,,1,,,71,60
40896,note_on,,,,,32,0,8,,,,,0,,,78,100
40960,note_off,,,,,64,0,8,,,,,0,,,78,100
40992,note_on,,,,,32,0,8,,,,,0,,,79,100
41024,note_off,,,,,128,0,10,,,,,2,,,71,100
41024,note_off,,,,,128,0,9,,,,,1,,,74,100
41024,note_off,,,,,0,0,9,,,,,1,,,71,100
41056,note_off,,,,,64,0,8,,,,,0,,,79,100
41088,note_on,,,,,64,0,10,,,,,2,,,71,60
41088,note_on,,,,,32,0,8,,,,,0,,,74,100
41088,note_on,,,,,64,0,9,,,,,1,,,79,60
41088,note_on,,,,,0,0,9,,,,,1,,,71,60
41152,note_off,,,,,64,0,8,,,,,0,,,74,100
41184,note_on,,,,,32,0,8,,,,,0,,,79,100
41216,note_off,,,,,128,0,10,,,,,2,,,71,100
41216,note_off,,,,,0,0,9,,,,,1,,,71,100
41216,note_off,,,,,128,0,9,,,,,1,,,79,100
41248,note_off,,,,,64,0,8,,,,,0,,,79,100
41280,note_on,,,,,0,0,9,,,,,1,,,71,60
41280,note_on,,,,,64,0,10,,,,,2,,,71,60
41280,note_on,,,,,32,0,8,,,,,0,,,78,100
41280,note_on,,,,,64,0,9,,,,,1,,,74,60
41344,note_off,,,,,64,0,8,,,,,0,,,78,100
41376,note_on,,,,,32,0,8,,,,,0,,,79,100
41408,note_off,,,,,0,0,9,,,,,1,,,71,100
41408,note_off,,,,,128,0,9,,,,,1,,,74,100
41408,note_off,,,,,128,0,10,,,,,2,,,71,100
41440,note_off,,,,,64,0,8,,,,,0,,,79,100
41472,note_on,,,,,32,0,8,,,,,0,,,73,100
41472,note_on,,,,,64,0,10,,,,,2,,,69,60
41472,note_on,,,,,64,0,9,,,,,1,,,76,60
41472,note_on,,,,,0,0,9,,,,,1,,,69,60
41536,note_off,,,,,64,0,8,,,,,0,,,73,100
41568,note_on,,,,,32,0,8,,,,,0,,,69,100
41600,note_off,,,,,128,0,10,,,,,2,,,69,100
41600,note_off,,,,,128,0,9,,,,,1,,,76,100
41600,note_off,,,,,0,0,9,,,,,1,,,69,100
41632,note_off,,,,,64,0,8,,,,,0,,,69,100
41664,note_on,,,,,32,0,8,,,,,0,,,71,100
41664,note_on,,,,,64,0,9,,,,,1,,,69,60
41664,note_on,,,,,64,0,10,,,,,2,,,69,60
41728,note_off,,,,,64,0,8,,,,,0,,,71,100
41760,note_on,,,,,32,0,8,,,,,0,,,73,100
41792,note_off,,,,,128,0,10,,,,,2,,,69,100
41792,note_off,,,,,128,0,9,,,,,1,,,69,100
41824,note_off,,,,,64,0,8,,,,,0,,,73,100
41856,note_on,,,,,64,0,9,,,,,1,,,67,60
41856,note_on,,,,,64,0,10,,,,,2,,,67,60
41856,note_on,,,,,32,0,8,,,,,0,,,74,100
41920,note_off,,,,,64,0,8,,,,,0,,,74,100
41952,note_on,,,,,32,0,8,,,,,0,,,76,100
41984,note_off,,,,,128,0,10,,,,,2,,,67,100
41984,note_off,,,,,128,0,9,,,,,1,,,67,100
42016,note_off,,,,,64,0,8,,,,,0,,,76,100
42048,note_on,,,,,32,0,8,,,,,0,,,78,100
42048,note_on,,,,,64,0,10,,,,,2,,,67,60
42048,note_on,,,,,64,0,9,,,,,1,,,67,60
42112,note_off,,,,,64,0,8,,,,,0,,,78,100
42144,note_on,,,,,32,0,8,,,,,0,,,79,100
42176,note_off,,,,,128,0,10,,,,,2,,,67,100
42176,note_off,,,,,128,0,9,,,,,1,,,67,100
42208,note_off,,,,,64,0,8,,,,,0,,,79,100
42240,note_on,,,,,64,0,10,,,,,2,,,66,60
42240,note_on,,,,,32,0,8,,,,,0,,,81,100
42240,note_on,,,,,64,0,9,,,,,1,,,66,60
42304,note_off,,,,,64,0,8,,,,,0,,,81,100
42336,note_on,,,,,32,0,8,,,,,0,,,74,100
42368,note_off,,,,,128,0,9,,,,,1,,,66,100
42368,note_off,,,,,128,0,10,,,,,2,,,66,100
42400,note_off,,,,,64,0,8,,,,,0,,,74,100
42432,note_on,,,,,32,0,8,,,,,0,,,76,100
42432,note_on,,,,,64,0,9,,,,,1,,,66,60
42432,note_on,,,,,64,0,10,,,,,2,,,66,60
42496,note_off,,,,,64,0,8,,,,,0,,,76,100
42528,note_on,,,,,32,0,8,,,,,0,,,78,100
42560,note_off,,,,,128,0,10,,,,,2,,,66,100
42560,note_off,,,,,128,0,9,,,,,1,,,66,100
42592,note_off,,,,,64,0,8,,,,,0,,,78,100
42624,note_on,,,,,64,0,9,,,,,1,,,64,60
42624,note_on,,,,,32,0,8,,,,,0,,,79,100
42624,note_on,,,,,64,0,10,,,,,2,,,64,60
42688,note_off,,,,,64,0,8,,,,,0,,,79,100
42720,note_on,,,,,32,0,8,,,,,0,,,81,100
42752,note_off,,,,,128,0,10,,,,,2,,,64,100
42752,note_off,,,,,128,0,9,,,,,1,,,64,100
42784,note_off,,,,,64,0,8,,,,,0,,,81,100
42816,note_on,,,,,64,0,10,,,,,2,,,64,60
42816,note_on,,,,,32,0,8,,,,,0,,,83,100
42816,note_on,,,,,64,0,9,,,,,1,,,64,60
42880,note_off,,,,,64,0,8,,,,,0,,,83,100
42912,note_on,,,,,32,0,8,,,,,0,,,85,100
42944,note_off,,,,,128,0,9,,,,,1,,,64,100
42944,note_off,,,,,128,0,10,,,,,2,,,64,100
42976,note_off,,,,,64,0,8,,,,,0,,,85,100
43008,note_on,,,,,64,0,9,,,,,1,,,62,60
43008,note_on,,,,,32,0,8,,,,,0,,,86,100
43008,note_on,,,,,64,0,10,,,,,2,,,62,60
43264,note_off,,,,,256,0,9,,,,,1,,,62,100
43264,note_off,,,,,256,0,8,,,,,0,,,86,100
43264,note_off,,,,,256,0,10,,,,,2,,,62,100
43488,note_on,,,,,224,0,8,,,,,0,,,74,100
43552,note_off,,,,,64,0,8,,,,,0,,,74,100
43584,note_on,,,,,32,0,8,,,,,0,,,73,100
43648,note_off,,,,,64,0,8,,,,,0,,,73,100
43680,note_on,,,,,32,0,8,,,,,0,,,74,100
43744,note_off,,,,,64,0,8,,,,,0,,,74,100
43776,note_on,,,,,512,0,10,,,,,2,,,62,60
43776,note_on,,,,,32,0,8,,,,,0,,,66,100
43776,note_on,,,,,512,0,9,,,,,1,,,62,60
43840,note_off,,,,,64,0,8,,,,,0,,,66,100
43872,note_on,,,,,32,0,8,,,,,0,,,74,100
43904,note_off,,,,,128,0,10,,,,,2,,,62,100
43904,note_off,,,,,128,0,9,,,,,1,,,62,100
43936,note_off,,,,,64,0,8,,,,,0,,,74,100
43968,note_on,,,,,64,0,10,,,,,2,,,67,60
43968,note_on,,,,,64,0,9,,,,,1,,,67,60
43968,note_on,,,,,32,0,8,,,,,0,,,73,100
44032,note_off,,,,,64,0,8,,,,,0,,,73,100
44064,note_on,,,,,32,0,8,,,,,0,,,74,100
44096,note_off,,,,,128,0,10,,,,,2,,,67,100
44096,note_off,,,,,128,0,9,,,,,1,,,67,100
44128,note_off,,,,,64,0,8,,,,,0,,,74,100
44160,note_on,,,,,64,0,9,,,,,1,,,69,60
44160,note_on,,,,,32,0,8,,,,,0,,,64,100
44160,note_on,,,,,64,0,10,,,,,2,,,69,60
44224,note_off,,,,,64,0,8,,,,,0,,,64,100
44256,note_on,,,,,32,0,8,,,,,0,,,73,100
44288,note_off,,,,,128,0,9,,,,,1,,,69,100
44288,note_off,,,,,128,0,10,,,,,2,,,69,100
44320,note_off,,,,,64,0,8,,,,,0,,,73,100
44352,note_on,,,,,32,0,8,,,,,0,,,71,100
44352,note_on,,,,,64,0,9,,,,,1,,,57,60
44352,note_on,,,,,64,0,10,,,,,2,,,57,60
44416,note_off,,,,,64,0,8,,,,,0,,,71,100
44448,note_on,,,,,32,0,8,,,,,0,,,73,100
44480,note_off,,,,,128,0,9,,,,,1,,,57,100
44480,note_off,,,,,128,0,10,,,,,2,,,57,100
44512,note_off,,,,,64,0,8,,,,,0,,,73,100
44544,note_on,,,,,32,0,8,,,,,0,,,74,100
44544,note_on,,,,,11264,0,11,,,,,3,,,50,85
44544,note_on,,,,,64,0,9,,,,,1,,,74,85
44544,note_on,,,,,0,0,10,,,,,2,,,57,85
44544,note_on,,,,,64,0,10,,,,,2,,,54,85
44544,note_on,,,,,11264,0,13,,,,,5,,,66,100
44544,note_on,,,,,11264,0,12,,,,,4,,,38,85
44544,note_on,,,,,0,0,13,,,,,5,,,69,100
44544,note_on,,,,,11264,0,14,,,,,5,,,50,100
44672,note_off,,,,,128,0,8,,,,,0,,,74,100
44672,note_off,,,,,128,0,9,,,,,1,,,74,100
44736,note_on,,,,,64,0,9,,,,,1,,,73,85
44800,note_off,,,,,0,0,10,,,,,2,,,57,100
44800,note_off,,,,,256,0,13,,,,,5,,,66,100
44800,note_off,,,,,0,0,13,,,,,5,,,69,100
44800,note_off,,,,,256,0,14,,,,,5,,,50,100
44800,note_off,,,,,256,0,10,,,,,2,,,54,100
44800,note_off,,,,,256,0,11,,,,,3,,,50,100
44800,note_off,,,,,256,0,12,,,,,4,,,38,100
44800,note_off,,,,,64,0,9,,,,,1,,,73,100
44832,note_on,,,,,32,0,9,,,,,1,,,71,85
44896,note_off,,,,,64,0,9,,,,,1,,,71,100
44928,note_on,,,,,32,0,9,,,,,1,,,69,85
45056,note_off,,,,,128,0,9,,,,,1,,,69,100
45120,note_on,,,,,64,0,9,,,,,1,,,67,85
45248,note_off,,,,,128,0,9,,,,,1,,,67,100
45312,note_on,,,,,512,0,11,,,,,3,,,50,85
45312,note_on,,,,,512,0,13,,,,,5,,,69,100
45312,note_on,,,,,0,0,13,,,,,5,,,66,100
45312,note_on,,,,,512,0,10,,,,,2,,,57,85
45312,note_on,,,,,64,0,9,,,,,1,,,66,85
45312,note_on,,,,,512,0,12,,,,,4,,,38,85
45312,note_on,,,,,512,0,14,,,,,5,,,50,100
45440,note_off,,,,,128,0,9,,,,,1,,,66,100
45504,note_on,,,,,64,0,9,,,,,1,,,62,85
45568,note_off,,,,,256,0,14,,,,,5,,,50,100
45568,note_off,,,,,256,0,11,,,,,3,,,50,100
45568,note_off,,,,,0,0,13,,,,,5,,,66,100
45568,note_off,,,,,256,0,13,,,,,5,,,69,100
45568,note_off,,,,,256,0,12,,,,,4,,,38,100
45568,note_off,,,,,256,0,10,,,,,2,,,57,100
45632,note_off,,,,,128,0,9,,,,,1,,,62,100
45696,note_on,,,,,64,0,9,,,,,1,,,66,85
45824,note_off,,,,,128,0,9,,,,,1,,,66,100
45888,note_on,,,,,64,0,9,,,,,1,,,69,85
46016,note_off,,,,,128,0,9,,,,,1,,,69,100
46080,note_on,,,,,512,0,10,,,,,2,,,69,85
46080,note_on,,,,,512,0,12,,,,,4,,,38,85
46080,note_on,,,,,64,0,9,,,,,1,,,74,85
46080,note_on,,,,,512,0,14,,,,,5,,,50,100
46080,note_on,,,,,512,0,11,,,,,3,,,50,85
46080,note_on,,,,,0,0,13,,,,,5,,,74,100
46080,note_on,,,,,0,0,13,,,,,5,,,69,100
46080,note_on,,,,,512,0,13,,,,,5,,,66,100
46336,note_off,,,,,256,0,9,,,,,1,,,74,100
46336,note_off,,,,,256,0,14,,,,,5,,,50,100
46336,note_off,,,,,256,0,12,,,,,4,,,38,100
46336,note_off,,,,,256,0,10,,,,,2,,,69,100
46336,note_off,,,,,256,0,11,,,,,3,,,50,100
46336,note_off,,,,,256,0,13,,,,,5,,,66,100
46336,note_off,,,,,0,0,13,,,,,5,,,69,100
46336,note_off,,,,,0,0,13,,,,,5,,,74,100
46464,note_on,,,,,0,0,9,,,,,1,,,73,85
46464,note_on,,,,,128,0,14,,,,,5,,,45,100
46464,note_on,,,,,128,0,11,,,,,3,,,45,85
46464,note_on,,,,,128,0,9,,,,,1,,,76,85
46464,note_on,,,,,128,0,13,,,,,5,,,69,100
46464,note_on,,,,,0,0,13,,,,,5,,,64,100
46464,note_on,,,,,0,0,13,,,,,5,,,73,100
46464,note_on,,,,,128,0,10,,,,,2,,,69,85
46464,note_on,,,,,128,0,12,,,,,4,,,33,85
46720,note_off,,,,,256,0,9,,,,,1,,,76,100
46720,note_off,,,,,0,0,9,,,,,1,,,73,100
46720,note_off,,,,,0,0,13,,,,,5,,,73,100
46720,note_off,,,,,256,0,12,,,,,4,,,33,100
46720,note_off,,,,,0,0,13,,,,,5,,,64,100
46720,note_off,,,,,256,0,11,,,,,3,,,45,100
46720,note_off,,,,,256,0,14,,,,,5,,,45,100
46720,note_off,,,,,256,0,10,,,,,2,,,69,100
46720,note_off,,,,,256,0,13,,,,,5,,,69,100
46848,note_on,,,,,128,0,11,,,,,3,,,50,85
46848,note_on,,,,,128,0,10,,,,,2,,,69,85
46848,note_on,,,,,0,0,13,,,,,5,,,74,100
46848,note_on,,,,,128,0,9,,,,,1,,,74,85
46848,note_on,,,,,128,0,12,,,,,4,,,38,85
46848,note_on,,,,,128,0,14,,,,,5,,,50,100
46848,note_on,,,,,128,0,13,,,,,5,,,66,100
46848,note_on,,,,,0,0,9,,,,,1,,,78,85
46848,note_on,,,,,0,0,13,,,,,5,,,69,100
46976,note_off,,,,,128,0,9,,,,,1,,,78,100
47040,note_on,,,,,64,0,9,,,,,1,,,76,85
47104,note_off,,,,,256,0,14,,,,,5,,,50,100
47104,note_off,,,,,64,0,9,,,,,1,,,74,100
47104,note_off,,,,,0,0,9,,,,,1,,,76,100
47104,note_off,,,,,256,0,10,,,,,2,,,69,100
47104,note_off,,,,,256,0,13,,,,,5,,,66,100
47104,note_off,,,,,0,0,13,,,,,5,,,69,100
47104,note_off,,,,,0,0,13,,,,,5,,,74,100
47104,note_off,,,,,256,0,12,,,,,4,,,38,100
47104,note_off,,,,,256,0,11,,,,,3,,,50,100
47136,note_on,,,,,32,0,9,,,,,1,,,78,85
47200,note_off,,,,,64,0,9,,,,,1,,,78,100
47232,note_on,,,,,32,0,9,,,,,1,,,74,85
47360,note_off,,,,,128,0,9,,,,,1,,,74,100
47424,note_on,,,,,320,0,12,,,,,4,,,38,85
47424,note_on,,,,,320,0,14,,,,,5,,,50,100
47424,note_on,,,,,320,0,10,,,,,2,,,69,85
47424,note_on,,,,,0,0,9,,,,,1,,,78,85
47424,note_on,,,,,320,0,13,,,,,5,,,66,100
47424,note_on,,,,,0,0,13,,,,,5,,,69,100
47424,note_on,,,,,0,0,13,,,,,5,,,74,100
47424,note_on,,,,,64,0,9,,,,,1,,,74,85
47424,note_on,,,,,320,0,11,,,,,3,,,50,85
47552,note_off,,,,,128,0,14,,,,,5,,,50,100
47552,note_off,,,,,128,0,10,,,,,2,,,69,100
47552,note_off,,,,,128,0,11,,,,,3,,,50,100
47552,note_off,,,,,128,0,12,,,,,4,,,38,100
47552,note_off,,,,,0,0,9,,,,,1,,,78,100
47552,note_off,,,,,0,0,13,,,,,5,,,74,100
47552,note_off,,,,,0,0,13,,,,,5,,,69,100
47552,note_off,,,,,128,0,9,,,,,1,,,74,100
47552,note_off,,,,,128,0,13,,,,,5,,,66,100
47616,note_on,,,,,0,0,9,,,,,1,,,76,85
47616,note_on,,,,,64,0,9,,,,,1,,,73,85
47616,note_on,,,,,64,0,14,,,,,5,,,57,100
47616,note_on,,,,,64,0,13,,,,,5,,,69,100
47616,note_on,,,,,0,0,13,,,,,5,,,64,100
47616,note_on,,,,,0,0,13,,,,,5,,,73,100
47616,note_on,,,,,64,0,11,,,,,3,,,57,85
47616,note_on,,,,,64,0,12,,,,,4,,,45,85
47616,note_on,,,,,64,0,10,,,,,2,,,69,85
47680,note_off,,,,,0,0,9,,,,,1,,,76,100
47680,note_off,,,,,64,0,9,,,,,1,,,73,100
47712,note_on,,,,,32,0,9,,,,,1,,,76,85
47712,note_on,,,,,0,0,9,,,,,1,,,81,85
47744,note_off,,,,,128,0,11,,,,,3,,,57,100
47744,note_off,,,,,0,0,13,,,,,5,,,64,100
47744,note_off,,,,,128,0,12,,,,,4,,,45,100
47744,note_off,,,,,128,0,10,,,,,2,,,69,100
47744,note_off,,,,,0,0,13,,,,,5,,,73,100
47744,note_off,,,,,128,0,14,,,,,5,,,57,100
47744,note_off,,,,,128,0,13,,,,,5,,,69,100
47776,note_off,,,,,64,0,9,,,,,1,,,76,100
47776,note_off,,,,,0,0,9,,,,,1,,,81,100
47808,note_on,,,,,64,0,12,,,,,4,,,45,85
47808,note_on,,,,,0,0,9,,,,,1,,,76,85
47808,note_on,,,,,32,0,9,,,,,1,,,73,85
47808,note_on,,,,,64,0,14,,,,,5,,,57,100
47808,note_on,,,,,64,0,10,,,,,2,,,69,85
47808,note_on,,,,,0,0,13,,,,,5,,,73,100
47808,note_on,,,,,0,0,13,,,,,5,,,64,100
47808,note_on,,,,,64,0,13,,,,,5,,,69,100
47808,note_on,,,,,64,0,11,,,,,3,,,57,85
47872,note_off,,,,,0,0,9,,,,,1,,,76,100
47872,note_off,,,,,64,0,9,,,,,1,,,73,100
47904,note_on,,,,,32,0,9,,,,,1,,,76,85
47904,note_on,,,,,0,0,9,,,,,1,,,81,85
47936,note_off,,,,,128,0,10,,,,,2,,,69,100
47936,note_off,,,,,0,0,13,,,,,5,,,73,100
47936,note_off,,,,,0,0,13,,,,,5,,,64,100
47936,note_off,,,,,128,0,12,,,,,4,,,45,100
47936,note_off,,,,,128,0,13,,,,,5,,,69,100
47936,note_off,,,,,128,0,14,,,,,5,,,57,100
47936,note_off,,,,,128,0,11,,,,,3,,,57,100
47968,note_off,,,,,0,0,9,,,,,1,,,81,100
47968,note_off,,,,,64,0,9,,,,,1,,,76,100
48000,note_on,,,,,0,0,13,,,,,5,,,64,100
48000,note_on,,,,,0,0,13,,,,,5,,,73,100
48000,note_on,,,,,64,0,13,,,,,5,,,69,100
48000,note_on,,,,,64,0,11,,,,,3,,,57,85
48000,note_on,,,,,64,0,14,,,,,5,,,57,100
48000,note_on,,,,,64,0,12,,,,,4,,,45,85
48000,note_on,,,,,32,0,9,,,,,1,,,73,85
48000,note_on,,,,,0,0,9,,,,,1,,,76,85
48000,note_on,,,,,64,0,10,,,,,2,,,69,85
48064,note_off,,,,,64,0,9,,,,,1,,,73,100
48064,note_off,,,,,0,0,9,,,,,1,,,76,100
48096,note_on,,,,,32,0,9,,,,,1,,,76,85
48096,note_on,,,,,0,0,9,,,,,1,,,81,85
48128,note_off,,,,,128,0,12,,,,,4,,,45,100
48128,note_off,,,,,128,0,11,,,,,3,,,57,100
48128,note_off,,,,,128,0,14,,,,,5,,,57,100
48128,note_off,,,,,0,0,13,,,,,5,,,73,100
48128,note_off,,,,,0,0,13,,,,,5,,,64,100
48128,note_off,,,,,128,0,13,,,,,5,,,69,100
48128,note_off,,,,,128,0,10,,,,,2,,,69,100
48160,note_off,,,,,64,0,9,,,,,1,,,76,100
48160,note_off,,,,,0,0,9,,,,,1,,,81,100
48192,note_on,,,,,64,0,12,,,,,4,,,33,85
48192,note_on,,,,,0,0,9,,,,,1,,,76,85
48192,note_on,,,,,0,0,13,,,,,5,,,64,100
48192,note_on,,,,,32,0,9,,,,,1,,,73,85
48192,note_on,,,,,64,0,13,,,,,5,,,61,100
48192,note_on,,,,,64,0,14,,,,,5,,,45,100
48192,note_on,,,,,0,0,13,,,,,5,,,69,100
48192,note_on,,,,,64,0,10,,,,,2,,,69,85
48192,note_on,,,,,64,0,11,,,,,3,,,45,85
48256,note_off,,,,,0,0,9,,,,,1,,,76,100
48256,note_off,,,,,64,0,9,,,,,1,,,73,100
48288,note_on,,,,,32,0,9,,,,,1,,,76,85
48288,note_on,,,,,0,0,9,,,,,1,,,81,85
48320,note_off,,,,,128,0,14,,,,,5,,,45,100
48320,note_off,,,,,128,0,12,,,,,4,,,33,100
48320,note_off,,,,,128,0,11,,,,,3,,,45,100
48320,note_off,,,,,128,0,13,,,,,5,,,61,100
48320,note_off,,,,,0,0,13,,,,,5,,,64,100
48320,note_off,,,,,0,0,13,,,,,5,,,69,100
48320,note_off,,,,,128,0,10,,,,,2,,,69,100
48352,note_off,,,,,0,0,9,,,,,1,,,81,100
48352,note_off,,,,,64,0,9,,,,,1,,,76,100
48384,note_on,,,,,32,0,9,,,,,1,,,74,85
48384,note_on,,,,,64,0,14,,,,,5,,,50,100
48384,note_on,,,,,64,0,11,,,,,3,,,50,85
48384,note_on,,,,,64,0,12,,,,,4,,,38,85
48384,note_on,,,,,0,0,13,,,,,5,,,74,100
48384,note_on,,,,,0,0,13,,,,,5,,,69,100
48384,note_on,,,,,64,0,10,,,,,2,,,69,85
48384,note_on,,,,,64,0,13,,,,,5,,,66,100
48384,note_on,,,,,0,0,9,,,,,1,,,78,85
48512,note_off,,,,,0,0,13,,,,,5,,,69,100
48512,note_off,,,,,128,0,13,,,,,5,,,66,100
48512,note_off,,,,,0,0,9,,,,,1,,,78,100
48512,note_off,,,,,128,0,14,,,,,5,,,50,100
48512,note_off,,,,,128,0,10,,,,,2,,,69,100
48512,note_off,,,,,128,0,12,,,,,4,,,38,100
48512,note_off,,,,,0,0,13,,,,,5,,,74,100
48512,note_off,,,,,128,0,11,,,,,3,,,50,100
48512,note_off,,,,,128,0,9,,,,,1,,,74,100
48576,note_on,,,,,0,0,13,,,,,5,,,74,100
48576,note_on,,,,,64,0,12,,,,,4,,,38,85
48576,note_on,,,,,0,0,13,,,,,5,,,69,100
48576,note_on,,,,,64,0,13,,,,,5,,,66,100
48576,note_on,,,,,64,0,14,,,,,5,,,50,100
48576,note_on,,,,,0,0,9,,,,,1,,,81,85
48576,note_on,,,,,64,0,9,,,,,1,,,78,85
48576,note_on,,,,,64,0,10,,,,,2,,,69,85
48576,note_on,,,,,64,0,11,,,,,3,,,50,85
48704,note_off,,,,,128,0,14,,,,,5,,,50,100
48704,note_off,,,,,128,0,12,,,,,4,,,38,100
48704,note_off,,,,,128,0,13,,,,,5,,,66,100
48704,note_off,,,,,128,0,10,,,,,2,,,69,100
48704,note_off,,,,,0,0,13,,,,,5,,,74,100
48704,note_off,,,,,0,0,13,,,,,5,,,69,100
48704,note_off,,,,,128,0,9,,,,,1,,,78,100
48704,note_off,,,,,0,0,9,,,,,1,,,81,100
48704,note_off,,,,,128,0,11,,,,,3,,,50,100
48768,note_on,,,,,64,0,12,,,,,4,,,38,85
48768,note_on,,,,,64,0,11,,,,,3,,,50,85
48768,note_on,,,,,64,0,10,,,,,2,,,69,85
48768,note_on,,,,,64,0,14,,,,,5,,,50,100
48768,note_on,,,,,0,0,13,,,,,5,,,74,100
48768,note_on,,,,,0,0,13,,,,,5,,,69,100
48768,note_on,,,,,64,0,13,,,,,5,,,66,100
48896,note_off,,,,,128,0,11,,,,,3,,,50,100
48896,note_off,,,,,0,0,13,,,,,5,,,74,100
48896,note_off,,,,,0,0,13,,,,,5,,,69,100
48896,note_off,,,,,128,0,13,,,,,5,,,66,100
48896,note_off,,,,,128,0,12,,,,,4,,,38,100
48896,note_off,,,,,128,0,10,,,,,2,,,69,100
48896,note_off,,,,,128,0,14,,,,,5,,,50,100
48960,note_on,,,,,0,0,9,,,,,1,,,78,60
48960,note_on,,,,,256,0,9,,,,,1,,,74,60
48960,note_on,,,,,0,0,13,,,,,5,,,66,100
48960,note_on,,,,,64,0,10,,,,,2,,,69,60
48960,note_on,,,,,64,0,13,,,,,5,,,69,100
48960,note_on,,,,,64,0,12,,,,,4,,,38,60
48960,note_on,,,,,64,0,14,,,,,5,,,38,100
48960,note_on,,,,,64,0,11,,,,,3,,,38,60
49088,note_off,,,,,128,0,14,,,,,5,,,38,100
49088,note_off,,,,,128,0,10,,,,,2,,,69,100
49088,note_off,,,,,128,0,9,,,,,1,,,74,100
49088,note_off,,,,,0,0,9,,,,,1,,,78,100
49088,note_off,,,,,128,0,13,,,,,5,,,69,100
49088,note_off,,,,,0,0,13,,,,,5,,,66,100
49088,note_off,,,,,128,0,12,,,,,4,,,38,100
49088,note_off,,,,,128,0,11,,,,,3,,,38,100
49152,note_on,,,,,64,0,14,,,,,5,,,57,100
49152,note_on,,,,,0,0,13,,,,,5,,,73,100
49152,note_on,,,,,64,0,13,,,,,5,,,64,100
49152,note_on,,,,,64,0,10,,,,,2,,,69,60
49152,note_on,,,,,64,0,9,,,,,1,,,73,60
49152,note_on,,,,,0,0,9,,,,,1,,,76,60
49152,note_on,,,,,64,0,12,,,,,4,,,45,60
49152,note_on,,,,,64,0,11,,,,,3,,,57,60
49216,note_off,,,,,64,0,9,,,,,1,,,73,100
49216,note_off,,,,,0,0,9,,,,,1,,,76,100
49248,note_on,,,,,0,0,9,,,,,1,,,81,60
49248,note_on,,,,,32,0,9,,,,,1,,,76,60
49280,note_off,,,,,0,0,13,,,,,5,,,73,100
49280,note_off,,,,,128,0,10,,,,,2,,,69,100
49280,note_off,,,,,128,0,14,,,,,5,,,57,100
49280,note_off,,,,,128,0,13,,,,,5,,,64,100
49280,note_off,,,,,128,0,12,,,,,4,,,45,100
49280,note_off,,,,,128,0,11,,,,,3,,,57,100
49312,note_off,,,,,64,0,9,,,,,1,,,76,100
49312,note_off,,,,,0,0,9,,,,,1,,,81,100
49344,note_on,,,,,64,0,11,,,,,3,,,57,60
49344,note_on,,,,,64,0,10,,,,,2,,,69,60
49344,note_on,,,,,32,0,9,,,,,1,,,73,60
49344,note_on,,,,,0,0,9,,,,,1,,,76,60
49344,note_on,,,,,64,0,14,,,,,5,,,57,100
49344,note_on,,,,,64,0,13,,,,,5,,,64,100
49344,note_on,,,,,0,0,13,,,,,5,,,73,100
49344,note_on,,,,,64,0,12,,,,,4,,,45,60
49408,note_off,,,,,0,0,9,,,,,1,,,76,100
49408,note_off,,,,,64,0,9,,,,,1,,,73,100
49440,note_on,,,,,32,0,9,,,,,1,,,76,60
49440,note_on,,,,,0,0,9,,,,,1,,,81,60
49472,note_off,,,,,0,0,13,,,,,5,,,73,100
49472,note_off,,,,,128,0,14,,,,,5,,,57,100
49472,note_off,,,,,128,0,13,,,,,5,,,64,100
49472,note_off,,,,,128,0,11,,,,,3,,,57,100
49472,note_off,,,,,128,0,12,,,,,4,,,45,100
49472,note_off,,,,,128,0,10,,,,,2,,,69,100
49504,note_off,,,,,0,0,9,,,,,1,,,81,100
49504,note_off,,,,,64,0,9,,,,,1,,,76,100
49536,note_on,,,,,64,0,14,,,,,5,,,57,100
49536,note_on,,,,,0,0,13,,,,,5,,,73,100
49536,note_on,,,,,64,0,10,,,,,2,,,69,60
49536,note_on,,,,,64,0,13,,,,,5,,,64,100
49536,note_on,,,,,64,0,12,,,,,4,,,45,60
49536,note_on,,,,,0,0,9,,,,,1,,,76,60
49536,note_on,,,,,32,0,9,,,,,1,,,73,60
49536,note_on,,,,,64,0,11,,,,,3,,,57,60
49600,note_off,,,,,0,0,9,,,,,1,,,76,100
49600,note_off,,,,,64,0,9,,,,,1,,,73,100
49632,note_on,,,,,32,0,9,,,,,1,,,76,60
49632,note_on,,,,,0,0,9,,,,,1,,,81,60
49664,note_off,,,,,128,0,14,,,,,5,,,57,100
49664,note_off,,,,,0,0,13,,,,,5,,,73,100
49664,note_off,,,,,128,0,11,,,,,3,,,57,100
49664,note_off,,,,,128,0,10,,,,,2,,,69,100
49664,note_off,,,,,128,0,13,,,,,5,,,64,100
49664,note_off,,,,,128,0,12,,,,,4,,,45,100
49696,note_off,,,,,0,0,9,,,,,1,,,81,100
49696,note_off,,,,,64,0,9,,,,,1,,,76,100
49728,note_on,,,,,0,0,9,,,,,1,,,76,60
49728,note_on,,,,,32,0,9,,,,,1,,,73,60
49728,note_on,,,,,64,0,11,,,,,3,,,45,60
49728,note_on,,,,,64,0,13,,,,,5,,,64,100
49728,note_on,,,,,64,0,12,,,,,4,,,33,60
49728,note_on,,,,,64,0,14,,,,,5,,,45,100
49728,note_on,,,,,64,0,10,,,,,2,,,69,60
49728,note_on,,,,,0,0,13,,,,,5,,,73,100
49792,note_off,,,,,0,0,9,,,,,1,,,76,100
49792,note_off,,,,,64,0,9,,,,,1,,,73,100
49824,note_on,,,,,0,0,9,,,,,1,,,81,60
49824,note_on,,,,,32,0,9,,,,,1,,,76,60
49856,note_off,,,,,128,0,11,,,,,3,,,45,100
49856,note_off,,,,,128,0,10,,,,,2,,,69,100
49856,note_off,,,,,128,0,14,,,,,5,,,45,100
49856,note_off,,,,,128,0,13,,,,,5,,,64,100
49856,note_off,,,,,0,0,13,,,,,5,,,73,100
49856,note_off,,,,,128,0,12,,,,,4,,,33,100
49888,note_off,,,,,0,0,9,,,,,1,,,81,100
49888,note_off,,,,,64,0,9,,,,,1,,,76,100
49920,note_on,,,,,0,0,13,,,,,5,,,74,100
49920,note_on,,,,,64,0,11,,,,,3,,,50,60
49920,note_on,,,,,64,0,13,,,,,5,,,66,100
49920,note_on,,,,,64,0,10,,,,,2,,,69,60
49920,note_on,,,,,64,0,14,,,,,5,,,50,100
49920,note_on,,,,,0,0,9,,,,,1,,,78,60
49920,note_on,,,,,32,0,9,,,,,1,,,74,60
49920,note_on,,,,,64,0,12,,,,,4,,,38,60
50048,note_off,,,,,128,0,10,,,,,2,,,69,100
50048,note_off,,,,,128,0,12,,,,,4,,,38,100
50048,note_off,,,,,128,0,13,,,,,5,,,66,100
50048,note_off,,,,,0,0,13,,,,,5,,,74,100
50048,note_off,,,,,128,0,9,,,,,1,,,74,100
50048,note_off,,,,,0,0,9,,,,,1,,,78,100
50048,note_off,,,,,128,0,14,,,,,5,,,50,100
50048,note_off,,,,,128,0,11,,,,,3,,,50,100
50112,note_on,,,,,64,0,12,,,,,4,,,38,60
50112,note_on,,,,,64,0,9,,,,,1,,,78,60
50112,note_on,,,,,64,0,14,,,,,5,,,50,100
50112,note_on,,,,,64,0,11,,,,,3,,,50,60
50112,note_on,,,,,0,0,9,,,,,1,,,81,60
50112,note_on,,,,,64,0,10,,,,,2,,,69,60
50112,note_on,,,,,0,0,13,,,,,5,,,74,100
50112,note_on,,,,,64,0,13,,,,,5,,,66,100
50240,note_off,,,,,128,0,9,,,,,1,,,78,100
50240,note_off,,,,,0,0,13,,,,,5,,,74,100
50240,note_off,,,,,128,0,14,,,,,5,,,50,100
50240,note_off,,,,,128,0,13,,,,,5,,,66,100
50240,note_off,,,,,128,0,11,,,,,3,,,50,100
50240,note_off,,,,,0,0,9,,,,,1,,,81,100
50240,note_off,,,,,128,0,10,,,,,2,,,69,100
50240,note_off,,,,,128,0,12,,,,,4,,,38,100
50304,note_on,,,,,64,0,10,,,,,2,,,69,60
50304,note_on,,,,,64,0,12,,,,,4,,,38,60
50304,note_on,,,,,64,0,14,,,,,5,,,50,100
50304,note_on,,,,,0,0,13,,,,,5,,,74,100
50304,note_on,,,,,64,0,13,,,,,5,,,66,100
50304,note_on,,,,,64,0,11,,,,,3,,,50,60
50432,note_off,,,,,128,0,12,,,,,4,,,38,100
50432,note_off,,,,,128,0,11,,,,,3,,,50,100
50432,note_off,,,,,0,0,13,,,,,5,,,74,100
50432,note_off,,,,,128,0,13,,,,,5,,,66,100
50432,note_off,,,,,128,0,14,,,,,5,,,50,100
50432,note_off,,,,,128,0,10,,,,,2,,,69,100
50496,note_on,,,,,64,0,12,,,,,4,,,38,85
50496,note_on,,,,,64,0,10,,,,,2,,,69,85
50496,note_on,,,,,0,0,13,,,,,5,,,69,100
50496,note_on,,,,,0,0,13,,,,,5,,,66,100
50496,note_on,,,,,64,0,13,,,,,5,,,62,100
50496,note_on,,,,,64,0,11,,,,,3,,,38,85
50496,note_on,,,,,64,0,14,,,,,5,,,38,100
50496,note_on,,,,,256,0,9,,,,,1,,,78,85
50624,note_off,,,,,128,0,14,,,,,5,,,38,100
50624,note_off,,,,,0,0,13,,,,,5,,,66,100
50624,note_off,,,,,128,0,13,,,,,5,,,62,100
50624,note_off,,,,,128,0,9,,,,,1,,,78,100
50624,note_off,,,,,128,0,12,,,,,4,,,38,100
50624,note_off,,,,,128,0,11,,,,,3,,,38,100
50624,note_off,,,,,128,0,10,,,,,2,,,69,100
50624,note_off,,,,,0,0,13,,,,,5,,,69,100
50688,note_on,,,,,64,0,13,,,,,5,,,59,100
50688,note_on,,,,,64,0,12,,,,,4,,,40,85
50688,note_on,,,,,64,0,11,,,,,3,,,52,85
50688,note_on,,,,,64,0,14,,,,,5,,,52,100
50688,note_on,,,,,64,0,10,,,,,2,,,59,85
50688,note_on,,,,,0,0,13,,,,,5,,,67,100
50688,note_on,,,,,64,0,9,,,,,1,,,79,85
50752,note_off,,,,,64,0,9,,,,,1,,,79,100
50784,note_on,,,,,32,0,9,,,,,1,,,78,86
50816,note_off,,,,,128,0,12,,,,,4,,,40,100
50816,note_off,,,,,128,0,14,,,,,5,,,52,100
50816,note_off,,,,,128,0,11,,,,,3,,,52,100
50816,note_off,,,,,128,0,10,,,,,2,,,59,100
50848,note_off,,,,,64,0,9,,,,,1,,,78,100
50880,note_on,,,,,64,0,14,,,,,5,,,52,100
50880,note_on,,,,,32,0,9,,,,,1,,,79,86
50880,note_on,,,,,64,0,12,,,,,4,,,40,86
50880,note_on,,,,,64,0,10,,,,,2,,,59,86
50880,note_on,,,,,64,0,11,,,,,3,,,52,86
50944,note_off,,,,,256,0,13,,,,,5,,,59,100
50944,note_off,,,,,0,0,13,,,,,5,,,67,100
50944,note_off,,,,,64,0,9,,,,,1,,,79,100
50976,note_on,,,,,32,0,9,,,,,1,,,76,87
51008,note_off,,,,,128,0,14,,,,,5,,,52,100
51008,note_off,,,,,128,0,11,,,,,3,,,52,100
51008,note_off,,,,,128,0,10,,,,,2,,,59,100
51008,note_off,,,,,128,0,12,,,,,4,,,40,100
51040,note_off,,,,,64,0,9,,,,,1,,,76,100
51072,note_on,,,,,64,0,12,,,,,4,,,40,87
51072,note_on,,,,,32,0,9,,,,,1,,,79,87
51072,note_on,,,,,0,0,13,,,,,5,,,67,100
51072,note_on,,,,,128,0,13,,,,,5,,,59,100
51072,note_on,,,,,64,0,14,,,,,5,,,52,100
51072,note_on,,,,,64,0,10,,,,,2,,,71,87
51072,note_on,,,,,64,0,11,,,,,3,,,52,87
51136,note_off,,,,,64,0,9,,,,,1,,,79,100
51168,note_on,,,,,32,0,9,,,,,1,,,78,88
51200,note_off,,,,,128,0,11,,,,,3,,,52,100
51200,note_off,,,,,128,0,14,,,,,5,,,52,100
51200,note_off,,,,,128,0,12,,,,,4,,,40,100
51200,note_off,,,,,128,0,10,,,,,2,,,71,100
51232,note_off,,,,,64,0,9,,,,,1,,,78,100
51264,note_on,,,,,64,0,10,,,,,2,,,71,88
51264,note_on,,,,,64,0,14,,,,,5,,,52,100
51264,note_on,,,,,64,0,12,,,,,4,,,40,88
51264,note_on,,,,,32,0,9,,,,,1,,,79,88
51264,note_on,,,,,64,0,11,,,,,3,,,52,88
51328,note_off,,,,,256,0,13,,,,,5,,,59,100
51328,note_off,,,,,0,0,13,,,,,5,,,67,100
51328,note_off,,,,,64,0,9,,,,,1,,,79,100
51360,note_on,,,,,32,0,9,,,,,1,,,76,88
51392,note_off,,,,,128,0,10,,,,,2,,,71,100
51392,note_off,,,,,128,0,11,,,,,3,,,52,100
51392,note_off,,,,,128,0,12,,,,,4,,,40,100
51392,note_off,,,,,128,0,14,,,,,5,,,52,100
51424,note_off,,,,,64,0,9,,,,,1,,,76,100
51456,note_on,,,,,64,0,10,,,,,2,,,64,89
51456,note_on,,,,,64,0,14,,,,,5,,,50,100
51456,note_on,,,,,0,0,13,,,,,5,,,68,100
51456,note_on,,,,,0,0,13,,,,,5,,,64,100
51456,note_on,,,,,64,0,11,,,,,3,,,50,89
51456,note_on,,,,,128,0,13,,,,,5,,,71,100
51456,note_on,,,,,64,0,12,,,,,4,,,38,89
51456,note_on,,,,,32,0,9,,,,,1,,,80,89
51520,note_off,,,,,64,0,9,,,,,1,,,80,100
51552,note_on,,,,,32,0,9,,,,,1,,,78,89
51584,note_off,,,,,128,0,12,,,,,4,,,38,100
51584,note_off,,,,,128,0,14,,,,,5,,,50,100
51584,note_off,,,,,128,0,11,,,,,3,,,50,100
51584,note_off,,,,,128,0,10,,,,,2,,,64,100
51616,note_off,,,,,64,0,9,,,,,1,,,78,100
51648,note_on,,,,,64,0,10,,,,,2,,,64,90
51648,note_on,,,,,32,0,9,,,,,1,,,80,90
51648,note_on,,,,,64,0,12,,,,,4,,,38,90
51648,note_on,,,,,64,0,11,,,,,3,,,50,90
51648,note_on,,,,,64,0,14,,,,,5,,,50,100
51712,note_off,,,,,0,0,13,,,,,5,,,64,100
51712,note_off,,,,,256,0,13,,,,,5,,,71,100
51712,note_off,,,,,0,0,13,,,,,5,,,68,100
51712,note_off,,,,,64,0,9,,,,,1,,,80,100
51744,note_on,,,,,32,0,9,,,,,1,,,76,90
51776,note_off,,,,,128,0,11,,,,,3,,,50,100
51776,note_off,,,,,128,0,14,,,,,5,,,50,100
51776,note_off,,,,,128,0,12,,,,,4,,,38,100
51776,note_off,,,,,128,0,10,,,,,2,,,64,100
51808,note_off,,,,,64,0,9,,,,,1,,,76,100
51840,note_on,,,,,64,0,12,,,,,4,,,38,91
51840,note_on,,,,,64,0,11,,,,,3,,,50,91
51840,note_on,,,,,0,0,13,,,,,5,,,71,100
51840,note_on,,,,,0,0,13,,,,,5,,,68,100
51840,note_on,,,,,128,0,13,,,,,5,,,64,100
51840,note_on,,,,,64,0,14,,,,,5,,,50,100
51840,note_on,,,,,32,0,9,,,,,1,,,80,91
51840,note_on,,,,,64,0,10,,,,,2,,,64,91
51904,note_off,,,,,64,0,9,,,,,1,,,80,100
51936,note_on,,,,,32,0,9,,,,,1,,,78,91
51968,note_off,,,,,128,0,11,,,,,3,,,50,100
51968,note_off,,,,,128,0,12,,,,,4,,,38,100
51968,note_off,,,,,128,0,14,,,,,5,,,50,100
51968,note_off,,,,,128,0,10,,,,,2,,,64,100
52000,note_off,,,,,64,0,9,,,,,1,,,78,100
52032,note_on,,,,,32,0,9,,,,,1,,,80,92
52032,note_on,,,,,64,0,12,,,,,4,,,38,92
52032,note_on,,,,,64,0,10,,,,,2,,,64,92
52032,note_on,,,,,64,0,11,,,,,3,,,50,92
52032,note_on,,,,,64,0,14,,,,,5,,,50,100
52096,note_off,,,,,256,0,13,,,,,5,,,64,100
52096,note_off,,,,,0,0,13,,,,,5,,,68,100
52096,note_off,,,,,0,0,13,,,,,5,,,71,100
52096,note_off,,,,,64,0,9,,,,,1,,,80,100
52128,note_on,,,,,32,0,9,,,,,1,,,76,92
52160,note_off,,,,,128,0,11,,,,,3,,,50,100
52160,note_off,,,,,128,0,14,,,,,5,,,50,100
52160,note_off,,,,,128,0,12,,,,,4,,,38,100
52160,note_off,,,,,128,0,10,,,,,2,,,64,100
52192,note_off,,,,,64,0,9,,,,,1,,,76,100
52224,note_on,,,,,64,0,10,,,,,2,,,64,92
52224,note_on,,,,,64,0,11,,,,,3,,,49,92
52224,note_on,,,,,64,0,14,,,,,5,,,49,100
52224,note_on,,,,,32,0,9,,,,,1,,,81,92
52224,note_on,,,,,64,0,12,,,,,4,,,37,92
52224,note_on,,,,,128,0,13,,,,,5,,,73,100
52224,note_on,,,,,0,0,10,,,,,2,,,73,92
52224,note_on,,,,,0,0,13,,,,,5,,,64,100
52224,note_on,,,,,0,0,13,,,,,5,,,69,100
52288,note_off,,,,,64,0,9,,,,,1,,,81,100
52320,note_on,,,,,32,0,9,,,,,1,,,80,93
52352,note_off,,,,,128,0,11,,,,,3,,,49,100
52352,note_off,,,,,128,0,10,,,,,2,,,64,100
52352,note_off,,,,,0,0,10,,,,,2,,,73,100
52352,note_off,,,,,128,0,12,,,,,4,,,37,100
52352,note_off,,,,,128,0,14,,,,,5,,,49,100
52384,note_off,,,,,64,0,9,,,,,1,,,80,100
52416,note_on,,,,,64,0,11,,,,,3,,,49,93
52416,note_on,,,,,32,0,9,,,,,1,,,81,93
52416,note_on,,,,,0,0,10,,,,,2,,,73,93
52416,note_on,,,,,64,0,10,,,,,2,,,64,93
52416,note_on,,,,,64,0,14,,,,,5,,,49,100
52416,note_on,,,,,64,0,12,,,,,4,,,37,93
52480,note_off,,,,,0,0,13,,,,,5,,,64,100
52480,note_off,,,,,0,0,13,,,,,5,,,69,100
52480,note_off,,,,,256,0,13,,,,,5,,,73,100
52480,note_off,,,,,64,0,9,,,,,1,,,81,100
52512,note_on,,,,,32,0,9,,,,,1,,,76,94
52544,note_off,,,,,128,0,11,,,,,3,,,49,100
52544,note_off,,,,,0,0,10,,,,,2,,,73,100
52544,note_off,,,,,128,0,10,,,,,2,,,64,100
52544,note_off,,,,,128,0,12,,,,,4,,,37,100
52544,note_off,,,,,128,0,14,,,,,5,,,49,100
52576,note_off,,,,,64,0,9,,,,,1,,,76,100
52608,note_on,,,,,64,0,14,,,,,5,,,49,100
52608,note_on,,,,,0,0,13,,,,,5,,,69,100
52608,note_on,,,,,0,0,10,,,,,2,,,73,94
52608,note_on,,,,,64,0,10,,,,,2,,,64,94
52608,note_on,,,,,128,0,13,,,,,5,,,73,100
52608,note_on,,,,,32,0,9,,,,,1,,,81,94
52608,note_on,,,,,64,0,11,,,,,3,,,49,94
52608,note_on,,,,,64,0,12,,,,,4,,,37,94
52608,note_on,,,,,0,0,13,,,,,5,,,64,100
52672,note_off,,,,,64,0,9,,,,,1,,,81,100
52704,note_on,,,,,32,0,9,,,,,1,,,80,95
52736,note_off,,,,,128,0,11,,,,,3,,,49,100
52736,note_off,,,,,128,0,12,,,,,4,,,37,100
52736,note_off,,,,,128,0,10,,,,,2,,,64,100
52736,note_off,,,,,0,0,10,,,,,2,,,73,100
52736,note_off,,,,,128,0,14,,,,,5,,,49,100
52768,note_off,,,,,64,0,9,,,,,1,,,80,100
52800,note_on,,,,,64,0,11,,,,,3,,,49,95
52800,note_on,,,,,32,0,9,,,,,1,,,81,95
52800,note_on,,,,,64,0,14,,,,,5,,,49,100
52800,note_on,,,,,64,0,12,,,,,4,,,37,95
52800,note_on,,,,,64,0,10,,,,,2,,,64,95
52800,note_on,,,,,0,0,10,,,,,2,,,73,95
52864,note_off,,,,,256,0,13,,,,,5,,,73,100
52864,note_off,,,,,0,0,13,,,,,5,,,69,100
52864,note_off,,,,,0,0,13,,,,,5,,,64,100
52864,note_off,,,,,64,0,9,,,,,1,,,81,100
52896,note_on,,,,,32,0,9,,,,,1,,,76,96
52928,note_off,,,,,128,0,10,,,,,2,,,64,100
52928,note_off,,,,,128,0,14,,,,,5,,,49,100
52928,note_off,,,,,128,0,11,,,,,3,,,49,100
52928,note_off,,,,,0,0,10,,,,,2,,,73,100
52928,note_off,,,,,128,0,12,,,,,4,,,37,100
52960,note_off,,,,,64,0,9,,,,,1,,,76,100
52992,note_on,,,,,64,0,12,,,,,4,,,42,96
52992,note_on,,,,,0,0,13,,,,,5,,,61,100
52992,note_on,,,,,64,0,11,,,,,3,,,54,96
52992,note_on,,,,,0,0,13,,,,,5,,,70,100
52992,note_on,,,,,128,0,13,,,,,5,,,66,100
52992,note_on,,,,,32,0,9,,,,,1,,,82,96
52992,note_on,,,,,0,0,10,,,,,2,,,73,96
52992,note_on,,,,,64,0,10,,,,,2,,,66,96
52992,note_on,,,,,64,0,14,,,,,5,,,54,100
53056,note_off,,,,,64,0,9,,,,,1,,,82,100
53088,note_on,,,,,32,0,9,,,,,1,,,80,96
53120,note_off,,,,,128,0,12,,,,,4,,,42,100
53120,note_off,,,,,128,0,10,,,,,2,,,66,100
53120,note_off,,,,,0,0,10,,,,,2,,,73,100
53120,note_off,,,,,128,0,14,,,,,5,,,54,100
53120,note_off,,,,,128,0,11,,,,,3,,,54,100
53152,note_off,,,,,64,0,9,,,,,1,,,80,100
53184,note_on,,,,,32,0,9,,,,,1,,,82,97
53184,note_on,,,,,64,0,11,,,,,3,,,54,97
53184,note_on,,,,,64,0,14,,,,,5,,,54,100
53184,note_on,,,,,64,0,12,,,,,4,,,42,97
53184,note_on,,,,,0,0,10,,,,,2,,,73,97
53184,note_on,,,,,64,0,10,,,,,2,,,66,97
53248,note_off,,,,,0,0,13,,,,,5,,,70,100
53248,note_off,,,,,0,0,13,,,,,5,,,61,100
53248,note_off,,,,,256,0,13,,,,,5,,,66,100
53248,note_off,,,,,64,0,9,,,,,1,,,82,100
53280,note_on,,,,,32,0,9,,,,,1,,,78,97
53312,note_off,,,,,128,0,11,,,,,3,,,54,100
53312,note_off,,,,,128,0,14,,,,,5,,,54,100
53312,note_off,,,,,128,0,12,,,,,4,,,42,100
53312,note_off,,,,,0,0,10,,,,,2,,,73,100
53312,note_off,,,,,128,0,10,,,,,2,,,66,100
53344,note_off,,,,,64,0,9,,,,,1,,,78,100
53376,note_on,,,,,0,0,13,,,,,5,,,66,100
53376,note_on,,,,,0,0,13,,,,,5,,,70,100
53376,note_on,,,,,32,0,9,,,,,1,,,82,98
53376,note_on,,,,,64,0,12,,,,,4,,,40,98
53376,note_on,,,,,64,0,14,,,,,5,,,52,100
53376,note_on,,,,,64,0,10,,,,,2,,,66,98
53376,note_on,,,,,0,0,10,,,,,2,,,73,98
53376,note_on,,,,,128,0,13,,,,,5,,,64,100
53376,note_on,,,,,64,0,11,,,,,3,,,52,98
53440,note_off,,,,,64,0,9,,,,,1,,,82,100
53472,note_on,,,,,32,0,9,,,,,1,,,80,98
53504,note_off,,,,,128,0,12,,,,,4,,,40,100
53504,note_off,,,,,128,0,14,,,,,5,,,52,100
53504,note_off,,,,,128,0,11,,,,,3,,,52,100
53504,note_off,,,,,128,0,10,,,,,2,,,66,100
53504,note_off,,,,,0,0,10,,,,,2,,,73,100
53536,note_off,,,,,64,0,9,,,,,1,,,80,100
53568,note_on,,,,,64,0,14,,,,,5,,,52,100
53568,note_on,,,,,64,0,10,,,,,2,,,66,99
53568,note_on,,,,,32,0,9,,,,,1,,,82,99
53568,note_on,,,,,0,0,10,,,,,2,,,73,99
53568,note_on,,,,,64,0,11,,,,,3,,,52,99
53568,note_on,,,,,64,0,12,,,,,4,,,40,99
53632,note_off,,,,,256,0,13,,,,,5,,,64,100
53632,note_off,,,,,0,0,13,,,,,5,,,66,100
53632,note_off,,,,,64,0,9,,,,,1,,,82,100
53632,note_off,,,,,0,0,13,,,,,5,,,70,100
53664,note_on,,,,,32,0,9,,,,,1,,,78,99
53696,note_off,,,,,128,0,11,,,,,3,,,52,100
53696,note_off,,,,,128,0,12,,,,,4,,,40,100
53696,note_off,,,,,128,0,10,,,,,2,,,66,100
53696,note_off,,,,,0,0,10,,,,,2,,,73,100
53696,note_off,,,,,128,0,14,,,,,5,,,52,100
53728,note_off,,,,,64,0,9,,,,,1,,,78,100
53760,note_on,,,,,0,0,10,,,,,2,,,71,99
53760,note_on,,,,,64,0,12,,,,,4,,,38,99
53760,note_on,,,,,64,0,10,,,,,2,,,66,99
53760,note_on,,,,,128,0,13,,,,,5,,,62,100
53760,note_on,,,,,32,0,9,,,,,1,,,83,99
53760,note_on,,,,,0,0,13,,,,,5,,,66,100
53760,note_on,,,,,64,0,14,,,,,5,,,50,100
53760,note_on,,,,,0,0,13,,,,,5,,,71,100
53760,note_on,,,,,64,0,11,,,,,3,,,50,99
53888,note_off,,,,,128,0,9,,,,,1,,,83,100
53952,note_on,,,,,64,0,9,,,,,1,,,71,85
54016,note_off,,,,,0,0,10,,,,,2,,,71,100
54016,note_off,,,,,256,0,10,,,,,2,,,66,100
54016,note_off,,,,,256,0,14,,,,,5,,,50,100
54016,note_off,,,,,256,0,11,,,,,3,,,50,100
54016,note_off,,,,,0,0,13,,,,,5,,,66,100
54016,note_off,,,,,0,0,13,,,,,5,,,71,100
54016,note_off,,,,,256,0,12,,,,,4,,,38,100
54016,note_off,,,,,256,0,13,,,,,5,,,62,100
54080,note_off,,,,,128,0,9,,,,,1,,,71,100
54144,note_on,,,,,64,0,9,,,,,1,,,74,85
54272,note_off,,,,,128,0,9,,,,,1,,,74,100
54336,note_on,,,,,64,0,9,,,,,1,,,78,85
54464,note_off,,,,,128,0,9,,,,,1,,,78,100
54528,note_on,,,,,512,0,10,,,,,2,,,66,85
54528,note_on,,,,,512,0,14,,,,,5,,,47,100
54528,note_on,,,,,512,0,11,,,,,3,,,47,85
54528,note_on,,,,,512,0,12,,,,,4,,,35,85
54528,note_on,,,,,512,0,13,,,,,5,,,62,100
54528,note_on,,,,,64,0,9,,,,,1,,,83,85
54656,note_off,,,,,128,0,13,,,,,5,,,62,100
54656,note_off,,,,,128,0,14,,,,,5,,,47,100
54656,note_off,,,,,128,0,11,,,,,3,,,47,100
54656,note_off,,,,,128,0,9,,,,,1,,,83,100
54656,note_off,,,,,128,0,12,,,,,4,,,35,100
54720,note_on,,,,,64,0,14,,,,,5,,,49,100
54720,note_on,,,,,64,0,11,,,,,3,,,49,85
54720,note_on,,,,,64,0,9,,,,,1,,,81,85
54720,note_on,,,,,64,0,12,,,,,4,,,37,85
54720,note_on,,,,,64,0,13,,,,,5,,,64,100
54784,note_off,,,,,64,0,9,,,,,1,,,81,100
54816,note_on,,,,,32,0,9,,,,,1,,,79,85
54848,note_off,,,,,128,0,12,,,,,4,,,37,100
54848,note_off,,,,,128,0,13,,,,,5,,,64,100
54848,note_off,,,,,128,0,11,,,,,3,,,49,100
54848,note_off,,,,,128,0,14,,,,,5,,,49,100
54880,note_off,,,,,64,0,9,,,,,1,,,79,100
54912,note_on,,,,,64,0,12,,,,,4,,,38,85
54912,note_on,,,,,64,0,14,,,,,5,,,50,100
54912,note_on,,,,,64,0,11,,,,,3,,,50,85
54912,note_on,,,,,32,0,9,,,,,1,,,78,85
54912,note_on,,,,,64,0,13,,,,,5,,,66,100
54912,note_off,,,,,384,0,10,,,,,2,,,66,100
55040,note_off,,,,,128,0,11,,,,,3,,,50,100
55040,note_off,,,,,128,0,14,,,,,5,,,50,100
55040,note_off,,,,,128,0,9,,,,,1,,,78,100
55040,note_off,,,,,128,0,12,,,,,4,,,38,100
55040,note_off,,,,,128,0,13,,,,,5,,,66,100
55104,note_on,,,,,64,0,11,,,,,3,,,52,85
55104,note_on,,,,,0,0,10,,,,,2,,,67,85
55104,note_on,,,,,64,0,9,,,,,1,,,76,85
55104,note_on,,,,,64,0,14,,,,,5,,,52,100
55104,note_on,,,,,64,0,12,,,,,4,,,40,85
55104,note_on,,,,,64,0,13,,,,,5,,,67,100
55104,note_on,,,,,192,0,10,,,,,2,,,71,85
55232,note_off,,,,,128,0,13,,,,,5,,,67,100
55232,note_off,,,,,128,0,9,,,,,1,,,76,100
55232,note_off,,,,,128,0,12,,,,,4,,,40,100
55232,note_off,,,,,128,0,10,,,,,2,,,71,100
55232,note_off,,,,,0,0,10,,,,,2,,,67,100
55232,note_off,,,,,128,0,14,,,,,5,,,52,100
55232,note_off,,,,,128,0,11,,,,,3,,,52,100
55296,note_on,,,,,64,0,14,,,,,5,,,54,100
55296,note_on,,,,,0,0,13,,,,,5,,,66,100
55296,note_on,,,,,64,0,13,,,,,5,,,62,100
55296,note_on,,,,,64,0,11,,,,,3,,,54,85
55296,note_on,,,,,0,0,10,,,,,2,,,66,85
55296,note_on,,,,,64,0,10,,,,,2,,,71,85
55296,note_on,,,,,64,0,9,,,,,1,,,74,85
55296,note_on,,,,,64,0,12,,,,,4,,,42,85
55552,note_off,,,,,256,0,10,,,,,2,,,71,100
55552,note_off,,,,,256,0,12,,,,,4,,,42,100
55552,note_off,,,,,256,0,11,,,,,3,,,54,100
55552,note_off,,,,,256,0,13,,,,,5,,,62,100
55552,note_off,,,,,0,0,13,,,,,5,,,66,100
55552,note_off,,,,,256,0,14,,,,,5,,,54,100
55552,note_off,,,,,256,0,9,,,,,1,,,74,100
55552,note_off,,,,,0,0,10,,,,,2,,,66,100
55680,note_on,,,,,128,0,13,,,,,5,,,58,100
55680,note_on,,,,,0,0,10,,,,,2,,,66,85
55680,note_on,,,,,0,0,13,,,,,5,,,61,100
55680,note_on,,,,,128,0,14,,,,,5,,,42,100
55680,note_on,,,,,128,0,10,,,,,2,,,70,85
55680,note_on,,,,,128,0,11,,,,,3,,,42,85
55680,note_on,,,,,128,0,9,,,,,1,,,73,85
55680,note_on,,,,,128,0,12,,,,,4,,,42,85
55936,note_off,,,,,256,0,12,,,,,4,,,42,100
55936,note_off,,,,,256,0,14,,,,,5,,,42,100
55936,note_off,,,,,0,0,10,,,,,2,,,66,100
55936,note_off,,,,,256,0,11,,,,,3,,,42,100
55936,note_off,,,,,256,0,10,,,,,2,,,70,100
55936,note_off,,,,,256,0,13,,,,,5,,,58,100
55936,note_off,,,,,0,0,13,,,,,5,,,61,100
55936,note_off,,,,,256,0,9,,,,,1,,,73,100
56064,note_on,,,,,128,0,9,,,,,1,,,71,85
56064,note_on,,,,,128,0,14,,,,,5,,,47,100
56064,note_on,,,,,128,0,11,,,,,3,,,47,85
56064,note_on,,,,,11392,0,8,,,,,0,,,71,85
56064,note_on,,,,,0,0,13,,,,,5,,,54,100
56064,note_on,,,,,128,0,12,,,,,4,,,35,85
56064,note_on,,,,,128,0,10,,,,,2,,,71,85
56064,note_on,,,,,128,0,13,,,,,5,,,59,100
56064,note_on,,,,,0,0,10,,,,,2,,,66,85
56064,note_on,,,,,0,0,13,,,,,5,,,62,100
56128,note_off,,,,,64,0,8,,,,,0,,,71,100
56160,note_on,,,,,32,0,8,,,,,0,,,83,85
56192,note_off,,,,,128,0,10,,,,,2,,,71,100
56192,note_off,,,,,128,0,9,,,,,1,,,71,100
56192,note_off,,,,,0,0,10,,,,,2,,,66,100
56224,note_off,,,,,64,0,8,,,,,0,,,83,100
56256,note_on,,,,,64,0,10,,,,,2,,,75,60
56256,note_on,,,,,32,0,8,,,,,0,,,81,85
56256,note_on,,,,,64,0,9,,,,,1,,,75,60
56256,note_on,,,,,0,0,9,,,,,1,,,78,60
56320,note_off,,,,,256,0,14,,,,,5,,,47,100
56320,note_off,,,,,64,0,8,,,,,0,,,81,100
56320,note_off,,,,,256,0,12,,,,,4,,,35,100
56320,note_off,,,,,256,0,11,,,,,3,,,47,100
56320,note_off,,,,,0,0,13,,,,,5,,,62,100
56320,note_off,,,,,0,0,13,,,,,5,,,54,100
56320,note_off,,,,,256,0,13,,,,,5,,,59,100
56352,note_on,,,,,32,0,8,,,,,0,,,83,85
56384,note_off,,,,,128,0,10,,,,,2,,,75,100
56384,note_off,,,,,0,0,9,,,,,1,,,78,100
56384,note_off,,,,,128,0,9,,,,,1,,,75,100
56416,note_off,,,,,64,0,8,,,,,0,,,83,100
56448,note_on,,,,,64,0,10,,,,,2,,,75,60
56448,note_on,,,,,32,0,8,,,,,0,,,78,85
56448,note_on,,,,,64,0,9,,,,,1,,,75,60
56448,note_on,,,,,0,0,9,,,,,1,,,83,60
56512,note_off,,,,,64,0,8,,,,,0,,,78,100
56544,note_on,,,,,32,0,8,,,,,0,,,83,85
56576,note_off,,,,,128,0,10,,,,,2,,,75,100
56576,note_off,,,,,0,0,9,,,,,1,,,83,100
56576,note_off,,,,,128,0,9,,,,,1,,,75,100
56608,note_off,,,,,64,0,8,,,,,0,,,83,100
56640,note_on,,,,,64,0,9,,,,,1,,,75,60
56640,note_on,,,,,0,0,9,,,,,1,,,78,60
56640,note_on,,,,,64,0,10,,,,,2,,,75,60
56640,note_on,,,,,32,0,8,,,,,0,,,81,85
56704,note_off,,,,,64,0,8,,,,,0,,,81,100
56736,note_on,,,,,32,0,8,,,,,0,,,83,85
56768,note_off,,,,,0,0,9,,,,,1,,,78,100
56768,note_off,,,,,128,0,9,,,,,1,,,75,100
56768,note_off,,,,,128,0,10,,,,,2,,,75,100
56800,note_off,,,,,64,0,8,,,,,0,,,83,100
56832,note_on,,,,,64,0,9,,,,,1,,,76,60
56832,note_on,,,,,32,0,8,,,,,0,,,79,85
56832,note_on,,,,,64,0,10,,,,,2,,,76,60
56896,note_off,,,,,64,0,8,,,,,0,,,79,100
56928,note_on,,,,,32,0,8,,,,,0,,,83,85
56960,note_off,,,,,128,0,10,,,,,2,,,76,100
56960,note_off,,,,,128,0,9,,,,,1,,,76,100
56992,note_off,,,,,64,0,8,,,,,0,,,83,100
57024,note_on,,,,,32,0,8,,,,,0,,,81,85
57024,note_on,,,,,64,0,10,,,,,2,,,76,60
57024,note_on,,,,,0,0,9,,,,,1,,,79,60
57024,note_on,,,,,64,0,9,,,,,1,,,76,60
57088,note_off,,,,,64,0,8,,,,,0,,,81,100
57120,note_on,,,,,32,0,8,,,,,0,,,83,85
57152,note_off,,,,,0,0,9,,,,,1,,,79,100
57152,note_off,,,,,128,0,9,,,,,1,,,76,100
57152,note_off,,,,,128,0,10,,,,,2,,,76,100
57184,note_off,,,,,64,0,8,,,,,0,,,83,100
57216,note_on,,,,,32,0,8,,,,,0,,,79,85
57216,note_on,,,,,0,0,9,,,,,1,,,83,60
57216,note_on,,,,,64,0,9,,,,,1,,,76,60
57216,note_on,,,,,64,0,10,,,,,2,,,76,60
57280,note_off,,,,,64,0,8,,,,,0,,,79,100
57312,note_on,,,,,32,0,8,,,,,0,,,83,85
57344,note_off,,,,,128,0,10,,,,,2,,,76,100
57344,note_off,,,,,0,0,9,,,,,1,,,83,100
57344,note_off,,,,,128,0,9,,,,,1,,,76,100
57376,note_off,,,,,64,0,8,,,,,0,,,83,100
57408,note_on,,,,,32,0,8,,,,,0,,,81,85
57408,note_on,,,,,0,0,9,,,,,1,,,79,60
57408,note_on,,,,,64,0,9,,,,,1,,,76,60
57408,note_on,,,,,64,0,10,,,,,2,,,76,60
57472,note_off,,,,,64,0,8,,,,,0,,,81,100
57504,note_on,,,,,32,0,8,,,,,0,,,83,85
57536,note_off,,,,,128,0,10,,,,,2,,,76,100
57536,note_off,,,,,128,0,9,,,,,1,,,76,100
57536,note_off,,,,,0,0,9,,,,,1,,,79,100
57568,note_off,,,,,64,0,8,,,,,0,,,83,100
57600,note_on,,,,,64,0,10,,,,,2,,,73,60
57600,note_on,,,,,32,0,8,,,,,0,,,76,85
57600,note_on,,,,,64,0,9,,,,,1,,,73,60
57664,note_off,,,,,64,0,8,,,,,0,,,76,100
57696,note_on,,,,,32,0,8,,,,,0,,,81,85
57728,note_off,,,,,128,0,9,,,,,1,,,73,100
57728,note_off,,,,,128,0,10,,,,,2,,,73,100
57760,note_off,,,,,64,0,8,,,,,0,,,81,100
57792,note_on,,,,,64,0,9,,,,,1,,,73,60
57792,note_on,,,,,32,0,8,,,,,0,,,79,85
57792,note_on,,,,,0,0,9,,,,,1,,,76,60
57792,note_on,,,,,64,0,10,,,,,2,,,73,60
57856,note_off,,,,,64,0,8,,,,,0,,,79,100
57888,note_on,,,,,32,0,8,,,,,0,,,81,85
57920,note_off,,,,,0,0,9,,,,,1,,,76,100
57920,note_off,,,,,128,0,10,,,,,2,,,73,100
57920,note_off,,,,,128,0,9,,,,,1,,,73,100
57952,note_off,,,,,64,0,8,,,,,0,,,81,100
57984,note_on,,,,,32,0,8,,,,,0,,,76,85
57984,note_on,,,,,64,0,10,,,,,2,,,73,60
57984,note_on,,,,,0,0,9,,,,,1,,,81,60
57984,note_on,,,,,64,0,9,,,,,1,,,73,60
58048,note_off,,,,,64,0,8,,,,,0,,,76,100
58080,note_on,,,,,32,0,8,,,,,0,,,81,85
58112,note_off,,,,,128,0,10,,,,,2,,,73,100
58112,note_off,,,,,0,0,9,,,,,1,,,81,100
58112,note_off,,,,,128,0,9,,,,,1,,,73,100
58144,note_off,,,,,64,0,8,,,,,0,,,81,100
58176,note_on,,,,,32,0,8,,,,,0,,,79,85
58176,note_on,,,,,64,0,10,,,,,2,,,73,60
58176,note_on,,,,,64,0,9,,,,,1,,,73,60
58176,note_on,,,,,0,0,9,,,,,1,,,76,60
58240,note_off,,,,,64,0,8,,,,,0,,,79,100
58272,note_on,,,,,32,0,8,,,,,0,,,81,85
58304,note_off,,,,,0,0,9,,,,,1,,,76,100
58304,note_off,,,,,128,0,10,,,,,2,,,73,100
58304,note_off,,,,,128,0,9,,,,,1,,,73,100
58336,note_off,,,,,64,0,8,,,,,0,,,81,100
58368,note_on,,,,,64,0,9,,,,,1,,,74,60
58368,note_on,,,,,32,0,8,,,,,0,,,78,85
58368,note_on,,,,,64,0,10,,,,,2,,,74,60
58432,note_off,,,,,64,0,8,,,,,0,,,78,100
58464,note_on,,,,,32,0,8,,,,,0,,,81,85
58496,note_off,,,,,128,0,9,,,,,1,,,74,100
58496,note_off,,,,,128,0,10,,,,,2,,,74,100
58528,note_off,,,,,64,0,8,,,,,0,,,81,100
58560,note_on,,,,,0,0,9,,,,,1,,,78,60
58560,note_on,,,,,64,0,9,,,,,1,,,74,60
58560,note_on,,,,,32,0,8,,,,,0,,,79,85
58560,note_on,,,,,64,0,10,,,,,2,,,74,60
58624,note_off,,,,,64,0,8,,,,,0,,,79,100
58656,note_on,,,,,32,0,8,,,,,0,,,81,85
58688,note_off,,,,,128,0,9,,,,,1,,,74,100
58688,note_off,,,,,128,0,10,,,,,2,,,74,100
58688,note_off,,,,,0,0,9,,,,,1,,,78,100
58720,note_off,,,,,64,0,8,,,,,0,,,81,100
58752,note_on,,,,,64,0,10,,,,,2,,,74,60
58752,note_on,,,,,0,0,9,,,,,1,,,81,60
58752,note_on,,,,,64,0,9,,,,,1,,,74,60
58752,note_on,,,,,32,0,8,,,,,0,,,78,85
58816,note_off,,,,,64,0,8,,,,,0,,,78,100
58848,note_on,,,,,32,0,8,,,,,0,,,81,85
58880,note_off,,,,,128,0,10,,,,,2,,,74,100
58880,note_off,,,,,0,0,9,,,,,1,,,81,100
58880,note_off,,,,,128,0,9,,,,,1,,,74,100
58912,note_off,,,,,64,0,8,,,,,0,,,81,100
58944,note_on,,,,,64,0,9,,,,,1,,,74,60
58944,note_on,,,,,0,0,9,,,,,1,,,78,60
58944,note_on,,,,,32,0,8,,,,,0,,,79,85
58944,note_on,,,,,64,0,10,,,,,2,,,74,60
59008,note_off,,,,,64,0,8,,,,,0,,,79,100
59040,note_on,,,,,32,0,8,,,,,0,,,81,85
59072,note_off,,,,,0,0,9,,,,,1,,,78,100
59072,note_off,,,,,128,0,9,,,,,1,,,74,100
59072,note_off,,,,,128,0,10,,,,,2,,,74,100
59104,note_off,,,,,64,0,8,,,,,0,,,81,100
59136,note_on,,,,,64,0,9,,,,,1,,,71,60
59136,note_on,,,,,64,0,10,,,,,2,,,71,60
59136,note_on,,,,,32,0,8,,,,,0,,,74,85
59200,note_off,,,,,64,0,8,,,,,0,,,74,100
59232,note_on,,,,,32,0,8,,,,,0,,,79,85
59264,note_off,,,,,128,0,9,,,,,1,,,71,100
59264,note_off,,,,,128,0,10,,,,,2,,,71,100
59296,note_off,,,,,64,0,8,,,,,0,,,79,100
59328,note_on,,,,,32,0,8,,,,,0,,,78,85
59328,note_on,,,,,0,0,9,,,,,1,,,74,60
59328,note_on,,,,,64,0,9,,,,,1,,,71,60
59328,note_on,,,,,64,0,10,,,,,2,,,71,60
59392,note_off,,,,,64,0,8,,,,,0,,,78,100
59424,note_on,,,,,32,0,8,,,,,0,,,79,85
59456,note_off,,,,,0,0,9,,,,,1,,,74,100
59456,note_off,,,,,128,0,9,,,,,1,,,71,100
59456,note_off,,,,,128,0,10,,,,,2,,,71,100
59488,note_off,,,,,64,0,8,,,,,0,,,79,100
59520,note_on,,,,,32,0,8,,,,,0,,,74,85
59520,note_on,,,,,64,0,9,,,,,1,,,71,60
59520,note_on,,,,,0,0,9,,,,,1,,,79,60
59520,note_on,,,,,64,0,10,,,,,2,,,71,60
59584,note_off,,,,,64,0,8,,,,,0,,,74,100
59616,note_on,,,,,32,0,8,,,,,0,,,79,85
59648,note_off,,,,,128,0,10,,,,,2,,,71,100
59648,note_off,,,,,0,0,9,,,,,1,,,79,100
59648,note_off,,,,,128,0,9,,,,,1,,,71,100
59680,note_off,,,,,64,0,8,,,,,0,,,79,100
59712,note_on,,,,,0,0,9,,,,,1,,,74,60
59712,note_on,,,,,64,0,9,,,,,1,,,71,60
59712,note_on,,,,,32,0,8,,,,,0,,,78,85
59712,note_on,,,,,64,0,10,,,,,2,,,71,60
59776,note_off,,,,,64,0,8,,,,,0,,,78,100
59808,note_on,,,,,32,0,8,,,,,0,,,79,85
59840,note_off,,,,,128,0,10,,,,,2,,,71,100
59840,note_off,,,,,128,0,9,,,,,1,,,71,100
59840,note_off,,,,,0,0,9,,,,,1,,,74,100
59872,note_off,,,,,64,0,8,,,,,0,,,79,100
59904,note_on,,,,,64,0,10,,,,,2,,,73,60
59904,note_on,,,,,32,0,8,,,,,0,,,76,85
59904,note_on,,,,,64,0,9,,,,,1,,,73,60
59968,note_off,,,,,64,0,8,,,,,0,,,76,100
60000,note_on,,,,,32,0,8,,,,,0,,,79,85
60032,note_off,,,,,128,0,9,,,,,1,,,73,100
60032,note_off,,,,,128,0,10,,,,,2,,,73,100
60064,note_off,,,,,64,0,8,,,,,0,,,79,100
60096,note_on,,,,,64,0,9,,,,,1,,,73,60
60096,note_on,,,,,64,0,10,,,,,2,,,73,60
60096,note_on,,,,,0,0,9,,,,,1,,,76,60
60096,note_on,,,,,32,0,8,,,,,0,,,78,85
60160,note_off,,,,,64,0,8,,,,,0,,,78,100
60192,note_on,,,,,32,0,8,,,,,0,,,79,85
60224,note_off,,,,,0,0,9,,,,,1,,,76,100
60224,note_off,,,,,128,0,9,,,,,1,,,73,100
60224,note_off,,,,,128,0,10,,,,,2,,,73,100
60256,note_off,,,,,64,0,8,,,,,0,,,79,100
60288,note_on,,,,,0,0,9,,,,,1,,,79,60
60288,note_on,,,,,64,0,9,,,,,1,,,73,60
60288,note_on,,,,,64,0,10,,,,,2,,,73,60
60288,note_on,,,,,32,0,8,,,,,0,,,76,85
60352,note_off,,,,,64,0,8,,,,,0,,,76,100
60384,note_on,,,,,32,0,8,,,,,0,,,79,85
60416,note_off,,,,,0,0,9,,,,,1,,,79,100
60416,note_off,,,,,128,0,9,,,,,1,,,73,100
60416,note_off,,,,,128,0,10,,,,,2,,,73,100
60448,note_off,,,,,64,0,8,,,,,0,,,79,100
60480,note_on,,,,,32,0,8,,,,,0,,,78,85
60480,note_on,,,,,64,0,9,,,,,1,,,73,60
60480,note_on,,,,,0,0,9,,,,,1,,,76,60
60480,note_on,,,,,64,0,10,,,,,2,,,73,60
60544,note_off,,,,,64,0,8,,,,,0,,,78,100
60576,note_on,,,,,32,0,8,,,,,0,,,79,85
60608,note_off,,,,,0,0,9,,,,,1,,,76,100
60608,note_off,,,,,128,0,9,,,,,1,,,73,100
60608,note_off,,,,,128,0,10,,,,,2,,,73,100
60640,note_off,,,,,64,0,8,,,,,0,,,79,100
60672,note_on,,,,,32,0,8,,,,,0,,,73,85
60672,note_on,,,,,64,0,10,,,,,2,,,70,60
60672,note_on,,,,,64,0,9,,,,,1,,,70,60
60736,note_off,,,,,64,0,8,,,,,0,,,73,100
60768,note_on,,,,,32,0,8,,,,,0,,,78,85
60800,note_off,,,,,128,0,10,,,,,2,,,70,100
60800,note_off,,,,,128,0,9,,,,,1,,,70,100
60832,note_off,,,,,64,0,8,,,,,0,,,78,100
60864,note_on,,,,,64,0,10,,,,,2,,,70,60
60864,note_on,,,,,32,0,8,,,,,0,,,76,85
60864,note_on,,,,,0,0,9,,,,,1,,,73,60
60864,note_on,,,,,64,0,9,,,,,1,,,70,60
60928,note_off,,,,,64,0,8,,,,,0,,,76,100
60960,note_on,,,,,32,0,8,,,,,0,,,78,85
60992,note_off,,,,,128,0,10,,,,,2,,,70,100
60992,note_off,,,,,0,0,9,,,,,1,,,73,100
60992,note_off,,,,,128,0,9,,,,,1,,,70,100
61024,note_off,,,,,64,0,8,,,,,0,,,78,100
61056,note_on,,,,,64,0,10,,,,,2,,,70,60
61056,note_on,,,,,0,0,9,,,,,1,,,78,60
61056,note_on,,,,,64,0,9,,,,,1,,,70,60
61056,note_on,,,,,32,0,8,,,,,0,,,73,85
61120,note_off,,,,,64,0,8,,,,,0,,,73,100
61152,note_on,,,,,32,0,8,,,,,0,,,78,85
61184,note_off,,,,,0,0,9,,,,,1,,,78,100
61184,note_off,,,,,128,0,9,,,,,1,,,70,100
61184,note_off,,,,,128,0,10,,,,,2,,,70,100
61216,note_off,,,,,64,0,8,,,,,0,,,78,100
61248,note_on,,,,,0,0,9,,,,,1,,,73,60
61248,note_on,,,,,32,0,8,,,,,0,,,76,85
61248,note_on,,,,,64,0,10,,,,,2,,,70,60
61248,note_on,,,,,64,0,9,,,,,1,,,70,60
61312,note_off,,,,,64,0,8,,,,,0,,,76,100
61344,note_on,,,,,32,0,8,,,,,0,,,78,85
61376,note_off,,,,,128,0,9,,,,,1,,,70,100
61376,note_off,,,,,128,0,10,,,,,2,,,70,100
61376,note_off,,,,,0,0,9,,,,,1,,,73,100
61408,note_off,,,,,64,0,8,,,,,0,,,78,100
61440,note_on,,,,,0,0,9,,,,,1,,,74,60
61440,note_on,,,,,64,0,10,,,,,2,,,71,60
61440,note_on,,,,,64,0,9,,,,,1,,,71,60
61440,note_on,,,,,32,0,8,,,,,0,,,74,85
61504,note_off,,,,,64,0,8,,,,,0,,,74,100
61536,note_on,,,,,32,0,8,,,,,0,,,71,85
61568,note_off,,,,,128,0,9,,,,,1,,,74,100
61600,note_off,,,,,64,0,8,,,,,0,,,71,100
61632,note_on,,,,,64,0,9,,,,,1,,,78,60
61632,note_on,,,,,32,0,8,,,,,0,,,74,85
61696,note_off,,,,,64,0,9,,,,,1,,,71,100
61696,note_off,,,,,64,0,8,,,,,0,,,74,100
61696,note_off,,,,,256,0,10,,,,,2,,,71,100
61728,note_on,,,,,32,0,8,,,,,0,,,78,85
61760,note_off,,,,,64,0,9,,,,,1,,,78,100
61792,note_off,,,,,64,0,8,,,,,0,,,78,100
61824,note_on,,,,,64,0,9,,,,,1,,,74,60
61824,note_on,,,,,32,0,8,,,,,0,,,83,85
61888,note_off,,,,,64,0,8,,,,,0,,,83,100
61920,note_on,,,,,32,0,8,,,,,0,,,71,85
61952,note_off,,,,,128,0,9,,,,,1,,,74,100
61984,note_off,,,,,64,0,8,,,,,0,,,71,100
62016,note_on,,,,,32,0,8,,,,,0,,,74,85
62016,note_on,,,,,64,0,9,,,,,1,,,71,60
62080,note_off,,,,,64,0,8,,,,,0,,,74,100
62112,note_on,,,,,32,0,8,,,,,0,,,78,85
62144,note_off,,,,,128,0,9,,,,,1,,,71,100
62176,note_off,,,,,64,0,8,,,,,0,,,78,100
62208,note_on,,,,,512,0,10,,,,,2,,,59,60
62208,note_on,,,,,32,0,8,,,,,0,,,83,85
62208,note_on,,,,,64,0,9,,,,,1,,,59,60
62272,note_off,,,,,64,0,8,,,,,0,,,83,100
62304,note_on,,,,,32,0,8,,,,,0,,,71,85
62368,note_off,,,,,64,0,8,,,,,0,,,71,100
62400,note_on,,,,,32,0,8,,,,,0,,,74,85
62400,note_on,,,,,192,0,9,,,,,1,,,78,60
62464,note_off,,,,,64,0,8,,,,,0,,,74,100
62464,note_off,,,,,64,0,9,,,,,1,,,59,100
62464,note_off,,,,,256,0,10,,,,,2,,,59,100
62496,note_on,,,,,32,0,8,,,,,0,,,78,85
62528,note_off,,,,,64,0,9,,,,,1,,,78,100
62560,note_off,,,,,64,0,8,,,,,0,,,78,100
62592,note_on,,,,,64,0,9,,,,,1,,,74,60
62592,note_on,,,,,32,0,8,,,,,0,,,83,85
62656,note_off,,,,,64,0,8,,,,,0,,,83,100
62688,note_on,,,,,32,0,8,,,,,0,,,71,85
62720,note_off,,,,,128,0,9,,,,,1,,,74,100
62752,note_off,,,,,64,0,8,,,,,0,,,71,100
62784,note_on,,,,,32,0,8,,,,,0,,,74,85
62784,note_on,,,,,64,0,9,,,,,1,,,71,60
62848,note_off,,,,,64,0,8,,,,,0,,,74,100
62880,note_on,,,,,32,0,8,,,,,0,,,78,85
62912,note_off,,,,,128,0,9,,,,,1,,,71,100
62944,note_off,,,,,64,0,8,,,,,0,,,78,100
62976,note_on,,,,,512,0,10,,,,,2,,,59,60
62976,note_on,,,,,64,0,9,,,,,1,,,59,60
62976,note_on,,,,,32,0,8,,,,,0,,,83,85
63040,note_off,,,,,64,0,8,,,,,0,,,83,100
63072,note_on,,,,,32,0,8,,,,,0,,,71,85
63136,note_off,,,,,64,0,8,,,,,0,,,71,100
63168,note_on,,,,,192,0,9,,,,,1,,,62,60
63168,note_on,,,,,32,0,8,,,,,0,,,69,85
63232,note_off,,,,,64,0,9,,,,,1,,,59,100
63232,note_off,,,,,256,0,10,,,,,2,,,59,100
63232,note_off,,,,,64,0,8,,,,,0,,,69,100
63264,note_on,,,,,32,0,8,,,,,0,,,71,85
63296,note_off,,,,,64,0,9,,,,,1,,,62,100
63328,note_off,,,,,64,0,8,,,,,0,,,71,100
63360,note_on,,,,,64,0,9,,,,,1,,,59,60
63360,note_on,,,,,32,0,8,,,,,0,,,62,85
63360,note_on,,,,,0,0,9,,,,,1,,,71,60
63360,note_on,,,,,128,0,10,,,,,2,,,59,60
63424,note_off,,,,,64,0,8,,,,,0,,,62,100
63456,note_on,,,,,32,0,8,,,,,0,,,71,85
63488,note_off,,,,,128,0,9,,,,,1,,,71,100
63520,note_off,,,,,64,0,8,,,,,0,,,71,100
63552,note_on,,,,,32,0,8,,,,,0,,,69,85
63552,note_on,,,,,64,0,9,,,,,1,,,62,60
63616,note_off,,,,,256,0,10,,,,,2,,,59,100
63616,note_off,,,,,64,0,9,,,,,1,,,59,100
63616,note_off,,,,,64,0,8,,,,,0,,,69,100
63648,note_on,,,,,32,0,8,,,,,0,,,71,85
63680,note_off,,,,,64,0,9,,,,,1,,,62,100
63712,note_off,,,,,64,0,8,,,,,0,,,71,100
63744,note_on,,,,,128,0,10,,,,,2,,,61,60
63744,note_on,,,,,64,0,9,,,,,1,,,61,60
63744,note_on,,,,,32,0,8,,,,,0,,,64,85
63808,note_off,,,,,64,0,8,,,,,0,,,64,100
63840,note_on,,,,,32,0,8,,,,,0,,,71,85
63904,note_off,,,,,64,0,8,,,,,0,,,71,100
63936,note_on,,,,,192,0,9,,,,,1,,,64,60
63936,note_on,,,,,32,0,8,,,,,0,,,69,85
64000,note_off,,,,,64,0,8,,,,,0,,,69,100
64000,note_off,,,,,256,0,10,,,,,2,,,61,100
64000,note_off,,,,,64,0,9,,,,,1,,,61,100
64032,note_on,,,,,32,0,8,,,,,0,,,71,85
64064,note_off,,,,,64,0,9,,,,,1,,,64,100
64096,note_off,,,,,64,0,8,,,,,0,,,71,100
64128,note_on,,,,,32,0,8,,,,,0,,,64,85
64128,note_on,,,,,128,0,10,,,,,2,,,61,60
64128,note_on,,,,,0,0,9,,,,,1,,,71,60
64128,note_on,,,,,64,0,9,,,,,1,,,61,60
64192,note_off,,,,,64,0,8,,,,,0,,,64,100
64224,note_on,,,,,32,0,8,,,,,0,,,71,85
64256,note_off,,,,,128,0,9,,,,,1,,,71,100
64288,note_off,,,,,64,0,8,,,,,0,,,71,100
64320,note_on,,,,,32,0,8,,,,,0,,,69,85
64320,note_on,,,,,64,0,9,,,,,1,,,64,60
64384,note_off,,,,,64,0,8,,,,,0,,,69,100
64384,note_off,,,,,64,0,9,,,,,1,,,61,100
64384,note_off,,,,,256,0,10,,,,,2,,,61,100
64416,note_on,,,,,32,0,8,,,,,0,,,71,85
64448,note_off,,,,,64,0,9,,,,,1,,,64,100
64480,note_off,,,,,64,0,8,,,,,0,,,71,100
64512,note_on,,,,,128,0,10,,,,,2,,,62,60
64512,note_on,,,,,64,0,9,,,,,1,,,62,60
64512,note_on,,,,,32,0,8,,,,,0,,,66,85
64576,note_off,,,,,64,0,8,,,,,0,,,66,100
64608,note_on,,,,,32,0,8,,,,,0,,,71,85
64672,note_off,,,,,64,0,8,,,,,0,,,71,100
64704,note_on,,,,,192,0,9,,,,,1,,,66,60
64704,note_on,,,,,32,0,8,,,,,0,,,69,85
64768,note_off,,,,,256,0,10,,,,,2,,,62,100
64768,note_off,,,,,64,0,9,,,,,1,,,62,100
64768,note_off,,,,,64,0,8,,,,,0,,,69,100
64800,note_on,,,,,32,0,8,,,,,0,,,71,85
64832,note_off,,,,,64,0,9,,,,,1,,,66,100
64864,note_off,,,,,64,0,8,,,,,0,,,71,100
64896,note_on,,,,,128,0,10,,,,,2,,,62,60
64896,note_on,,,,,0,0,9,,,,,1,,,71,60
64896,note_on,,,,,64,0,9,,,,,1,,,62,60
64896,note_on,,,,,32,0,8,,,,,0,,,66,85
64960,note_off,,,,,64,0,8,,,,,0,,,66,100
64992,note_on,,,,,32,0,8,,,,,0,,,71,85
65024,note_off,,,,,128,0,9,,,,,1,,,71,100
65056,note_off,,,,,64,0,8,,,,,0,,,71,100
65088,note_on,,,,,32,0,8,,,,,0,,,69,85
65088,note_on,,,,,64,0,9,,,,,1,,,66,60
65152,note_off,,,,,64,0,8,,,,,0,,,69,100
65152,note_off,,,,,64,0,9,,,,,1,,,62,100
65152,note_off,,,,,256,0,10,,,,,2,,,62,100
65184,note_on,,,,,32,0,8,,,,,0,,,71,85
65216,note_off,,,,,64,0,9,,,,,1,,,66,100
65248,note_off,,,,,64,0,8,,,,,0,,,71,100
65280,note_on,,,,,32,0,8,,,,,0,,,67,85
65280,note_on,,,,,64,0,9,,,,,1,,,64,60
65280,note_on,,,,,128,0,10,,,,,2,,,64,60
65344,note_off,,,,,64,0,8,,,,,0,,,67,100
65376,note_on,,,,,32,0,8,,,,,0,,,71,85
65440,note_off,,,,,64,0,8,,,,,0,,,71,100
65472,note_on,,,,,32,0,8,,,,,0,,,69,85
65472,note_on,,,,,192,0,9,,,,,1,,,67,60
65536,note_off,,,,,64,0,8,,,,,0,,,69,100
65536,note_off,,,,,64,0,9,,,,,1,,,64,100
65536,note_off,,,,,256,0,10,,,,,2,,,64,100
65568,note_on,,,,,32,0,8,,,,,0,,,71,85
65600,note_off,,,,,64,0,9,,,,,1,,,67,100
65632,note_off,,,,,64,0,8,,,,,0,,,71,100
65664,note_on,,,,,128,0,10,,,,,2,,,64,60
65664,note_on,,,,,0,0,9,,,,,1,,,71,60
65664,note_on,,,,,64,0,9,,,,,1,,,64,60
65664,note_on,,,,,32,0,8,,,,,0,,,67,85
65728,note_off,,,,,64,0,8,,,,,0,,,67,100
65760,note_on,,,,,32,0,8,,,,,0,,,71,85
65792,note_off,,,,,128,0,9,,,,,1,,,71,100
65824,note_off,,,,,64,0,8,,,,,0,,,71,100
65856,note_on,,,,,64,0,9,,,,,1,,,67,60
65856,note_on,,,,,32,0,8,,,,,0,,,69,85
65920,note_off,,,,,64,0,8,,,,,0,,,69,100
65920,note_off,,,,,64,0,9,,,,,1,,,64,100
65920,note_off,,,,,256,0,10,,,,,2,,,64,100
65952,note_on,,,,,32,0,8,,,,,0,,,71,85
65984,note_off,,,,,64,0,9,,,,,1,,,67,100
66016,note_off,,,,,64,0,8,,,,,0,,,71,100
66048,note_on,,,,,128,0,10,,,,,2,,,59,60
66048,note_on,,,,,32,0,8,,,,,0,,,62,85
66048,note_on,,,,,64,0,9,,,,,1,,,59,60
66112,note_off,,,,,64,0,8,,,,,0,,,62,100
66144,note_on,,,,,32,0,8,,,,,0,,,71,85
66208,note_off,,,,,64,0,8,,,,,0,,,71,100
66240,note_on,,,,,32,0,8,,,,,0,,,69,85
66240,note_on,,,,,192,0,9,,,,,1,,,62,60
66304,note_off,,,,,64,0,8,,,,,0,,,69,100
66304,note_off,,,,,64,0,9,,,,,1,,,59,100
66304,note_off,,,,,256,0,10,,,,,2,,,59,100
66336,note_on,,,,,32,0,8,,,,,0,,,71,85
66368,note_off,,,,,64,0,9,,,,,1,,,62,100
66400,note_off,,,,,64,0,8,,,,,0,,,71,100
66432,note_on,,,,,0,0,9,,,,,1,,,71,60
66432,note_on,,,,,32,0,8,,,,,0,,,62,85
66432,note_on,,,,,128,0,10,,,,,2,,,59,60
66432,note_on,,,,,64,0,9,,,,,1,,,59,60
66496,note_off,,,,,64,0,8,,,,,0,,,62,100
66528,note_on,,,,,32,0,8,,,,,0,,,71,85
66560,note_off,,,,,128,0,9,,,,,1,,,71,100
66592,note_off,,,,,64,0,8,,,,,0,,,71,100
66624,note_on,,,,,64,0,9,,,,,1,,,62,60
66624,note_on,,,,,32,0,8,,,,,0,,,69,85
66688,note_off,,,,,64,0,8,,,,,0,,,69,100
66688,note_off,,,,,64,0,9,,,,,1,,,59,100
66688,note_off,,,,,256,0,10,,,,,2,,,59,100
66720,note_on,,,,,32,0,8,,,,,0,,,71,85
66752,note_off,,,,,64,0,9,,,,,1,,,62,100
66784,note_off,,,,,64,0,8,,,,,0,,,71,100
66816,note_on,,,,,32,0,8,,,,,0,,,64,85
66816,note_on,,,,,64,0,9,,,,,1,,,61,60
66816,note_on,,,,,128,0,10,,,,,2,,,61,60
66880,note_off,,,,,64,0,8,,,,,0,,,64,100
66912,note_on,,,,,32,0,8,,,,,0,,,71,85
66976,note_off,,,,,64,0,8,,,,,0,,,71,100
67008,note_on,,,,,32,0,8,,,,,0,,,69,85
67008,note_on,,,,,192,0,9,,,,,1,,,64,60
67072,note_off,,,,,256,0,10,,,,,2,,,61,100
67072,note_off,,,,,64,0,8,,,,,0,,,69,100
67072,note_off,,,,,64,0,9,,,,,1,,,61,100
67104,note_on,,,,,32,0,8,,,,,0,,,71,85
67136,note_off,,,,,64,0,9,,,,,1,,,64,100
67168,note_off,,,,,64,0,8,,,,,0,,,71,100
67200,note_on,,,,,128,0,10,,,,,2,,,61,60
67200,note_on,,,,,32,0,8,,,,,0,,,64,85
67200,note_on,,,,,0,0,9,,,,,1,,,71,60
67200,note_on,,,,,64,0,9,,,,,1,,,61,60
67264,note_off,,,,,64,0,8,,,,,0,,,64,100
67296,note_on,,,,,32,0,8,,,,,0,,,71,85
67328,note_off,,,,,128,0,9,,,,,1,,,71,100
67360,note_off,,,,,64,0,8,,,,,0,,,71,100
67392,note_on,,,,,32,0,8,,,,,0,,,69,85
67392,note_on,,,,,64,0,9,,,,,1,,,64,60
67456,note_off,,,,,64,0,9,,,,,1,,,61,100
67456,note_off,,,,,256,0,10,,,,,2,,,61,100
67456,note_off,,,,,64,0,8,,,,,0,,,69,100
67488,note_on,,,,,32,0,8,,,,,0,,,71,85
67520,note_off,,,,,64,0,9,,,,,1,,,64,100
67552,note_off,,,,,64,0,8,,,,,0,,,71,100
67584,note_on,,,,,64,0,9,,,,,1,,,66,60
67584,note_on,,,,,128,0,10,,,,,2,,,66,60
67584,note_on,,,,,32,0,8,,,,,0,,,66,85
67648,note_off,,,,,64,0,8,,,,,0,,,66,100
67680,note_on,,,,,32,0,8,,,,,0,,,71,85
67744,note_off,,,,,64,0,8,,,,,0,,,71,100
67776,note_on,,,,,32,0,8,,,,,0,,,69,85
67776,note_on,,,,,192,0,9,,,,,1,,,66,60
67840,note_off,,,,,64,0,8,,,,,0,,,69,100
67840,note_off,,,,,64,0,9,,,,,1,,,66,100
67840,note_off,,,,,256,0,10,,,,,2,,,66,100
67872,note_on,,,,,32,0,8,,,,,0,,,71,85
67904,note_off,,,,,64,0,9,,,,,1,,,66,100
67936,note_off,,,,,64,0,8,,,,,0,,,71,100
67968,note_on,,,,,32,0,8,,,,,0,,,66,85
67968,note_on,,,,,0,0,9,,,,,1,,,70,60
67968,note_on,,,,,64,0,9,,,,,1,,,66,60
67968,note_on,,,,,128,0,10,,,,,2,,,66,60
68096,note_off,,,,,128,0,9,,,,,1,,,70,100
68096,note_off,,,,,128,0,8,,,,,0,,,66,100
68160,note_on,,,,,64,0,9,,,,,1,,,66,60
68160,note_on,,,,,64,0,8,,,,,0,,,70,85
68224,note_off,,,,,256,0,10,,,,,2,,,66,100
68224,note_off,,,,,64,0,9,,,,,1,,,66,100
68288,note_off,,,,,64,0,9,,,,,1,,,66,100
68288,note_off,,,,,128,0,8,,,,,0,,,70,100
68352,note_on,,,,,0,0,10,,,,,2,,,66,70
68352,note_on,,,,,64,0,9,,,,,1,,,71,70
68352,note_on,,,,,128,0,10,,,,,2,,,62,70
68352,note_on,,,,,12032,0,11,,,,,3,,,47,70
68352,note_on,,,,,12032,0,13,,,,,5,,,62,100
68352,note_on,,,,,12032,0,14,,,,,5,,,47,100
68352,note_on,,,,,0,0,13,,,,,5,,,66,100
68352,note_on,,,,,64,0,8,,,,,0,,,71,70
68352,note_on,,,,,12032,0,12,,,,,4,,,35,70
68480,note_off,,,,,128,0,9,,,,,1,,,71,100
68480,note_off,,,,,128,0,8,,,,,0,,,71,100
68544,note_on,,,,,64,0,9,,,,,1,,,69,70
68608,note_off,,,,,64,0,9,,,,,1,,,69,100
68608,note_off,,,,,256,0,10,,,,,2,,,62,100
68608,note_off,,,,,0,0,10,,,,,2,,,66,100
68608,note_off,,,,,256,0,14,,,,,5,,,47,100
68608,note_off,,,,,256,0,11,,,,,3,,,47,100
68608,note_off,,,,,0,0,13,,,,,5,,,66,100
68608,note_off,,,,,256,0,13,,,,,5,,,62,100
68608,note_off,,,,,256,0,12,,,,,4,,,35,100
68640,note_on,,,,,32,0,9,,,,,1,,,67,70
68704,note_off,,,,,64,0,9,,,,,1,,,67,100
68736,note_on,,,,,32,0,9,,,,,1,,,66,70
68864,note_off,,,,,128,0,9,,,,,1,,,66,100
68928,note_on,,,,,64,0,9,,,,,1,,,64,71
69056,note_off,,,,,128,0,9,,,,,1,,,64,100
69120,note_on,,,,,512,0,11,,,,,3,,,47,71
69120,note_on,,,,,0,0,10,,,,,2,,,66,71
69120,note_on,,,,,512,0,10,,,,,2,,,62,71
69120,note_on,,,,,512,0,12,,,,,4,,,35,71
69120,note_on,,,,,512,0,13,,,,,5,,,62,100
69120,note_on,,,,,64,0,9,,,,,1,,,62,71
69120,note_on,,,,,512,0,14,,,,,5,,,47,100
69120,note_on,,,,,0,0,13,,,,,5,,,66,100
69248,note_off,,,,,128,0,9,,,,,1,,,62,100
69312,note_on,,,,,64,0,9,,,,,1,,,59,72
69376,note_off,,,,,256,0,12,,,,,4,,,35,100
69376,note_off,,,,,256,0,10,,,,,2,,,62,100
69376,note_off,,,,,0,0,10,,,,,2,,,66,100
69376,note_off,,,,,256,0,11,,,,,3,,,47,100
69376,note_off,,,,,256,0,14,,,,,5,,,47,100
69376,note_off,,,,,0,0,13,,,,,5,,,66,100
69376,note_off,,,,,256,0,13,,,,,5,,,62,100
69440,note_off,,,,,128,0,9,,,,,1,,,59,100
69504,note_on,,,,,64,0,9,,,,,1,,,62,72
69632,note_off,,,,,128,0,9,,,,,1,,,62,100
69696,note_on,,,,,64,0,9,,,,,1,,,66,73
69824,note_off,,,,,128,0,9,,,,,1,,,66,100
69888,note_on,,,,,512,0,10,,,,,2,,,66,73
69888,note_on,,,,,64,0,9,,,,,1,,,71,73
69888,note_on,,,,,512,0,11,,,,,3,,,47,73
69888,note_on,,,,,512,0,12,,,,,4,,,35,73
69888,note_on,,,,,0,0,13,,,,,5,,,66,100
69888,note_on,,,,,512,0,13,,,,,5,,,62,100
69888,note_on,,,,,512,0,14,,,,,5,,,47,100
70144,note_off,,,,,256,0,14,,,,,5,,,47,100
70144,note_off,,,,,0,0,13,,,,,5,,,66,100
70144,note_off,,,,,256,0,13,,,,,5,,,62,100
70144,note_off,,,,,256,0,10,,,,,2,,,66,100
70144,note_off,,,,,256,0,11,,,,,3,,,47,100
70144,note_off,,,,,256,0,9,,,,,1,,,71,100
70144,note_off,,,,,256,0,12,,,,,4,,,35,100
70272,note_on,,,,,0,0,13,,,,,5,,,61,100
70272,note_on,,,,,128,0,13,,,,,5,,,66,100
70272,note_on,,,,,0,0,13,,,,,5,,,70,100
70272,note_on,,,,,128,0,10,,,,,2,,,66,74
70272,note_on,,,,,128,0,14,,,,,5,,,42,100
70272,note_on,,,,,128,0,12,,,,,4,,,42,74
70272,note_on,,,,,128,0,9,,,,,1,,,70,74
70272,note_on,,,,,128,0,11,,,,,3,,,42,74
70272,note_on,,,,,0,0,9,,,,,1,,,73,74
70528,note_off,,,,,256,0,11,,,,,3,,,42,100
70528,note_off,,,,,256,0,10,,,,,2,,,66,100
70528,note_off,,,,,0,0,13,,,,,5,,,61,100
70528,note_off,,,,,0,0,13,,,,,5,,,70,100
70528,note_off,,,,,256,0,13,,,,,5,,,66,100
70528,note_off,,,,,256,0,9,,,,,1,,,70,100
70528,note_off,,,,,0,0,9,,,,,1,,,73,100
70528,note_off,,,,,256,0,12,,,,,4,,,42,100
70528,note_off,,,,,256,0,14,,,,,5,,,42,100
70656,note_on,,,,,128,0,11,,,,,3,,,47,75
70656,note_on,,,,,128,0,10,,,,,2,,,66,75
70656,note_on,,,,,128,0,14,,,,,5,,,47,100
70656,note_on,,,,,128,0,9,,,,,1,,,74,75
70656,note_on,,,,,0,0,9,,,,,1,,,71,75
70656,note_on,,,,,0,0,13,,,,,5,,,66,100
70656,note_on,,,,,0,0,13,,,,,5,,,71,100
70656,note_on,,,,,128,0,12,,,,,4,,,47,75
70656,note_on,,,,,128,0,13,,,,,5,,,62,100
70784,note_off,,,,,128,0,14,,,,,5,,,47,100
70784,note_off,,,,,128,0,11,,,,,3,,,47,100
70784,note_off,,,,,128,0,13,,,,,5,,,62,100
70784,note_off,,,,,128,0,12,,,,,4,,,47,100
70784,note_off,,,,,0,0,13,,,,,5,,,71,100
70784,note_off,,,,,128,0,9,,,,,1,,,74,100
70784,note_off,,,,,0,0,13,,,,,5,,,66,100
70848,note_on,,,,,64,0,14,,,,,5,,,45,100
70848,note_on,,,,,64,0,11,,,,,3,,,45,76
70848,note_on,,,,,0,0,13,,,,,5,,,64,100
70848,note_on,,,,,64,0,12,,,,,4,,,45,76
70848,note_on,,,,,0,0,13,,,,,5,,,61,100
70848,note_on,,,,,64,0,13,,,,,5,,,69,100
70848,note_on,,,,,64,0,9,,,,,1,,,73,76
70912,note_off,,,,,256,0,10,,,,,2,,,66,100
70912,note_off,,,,,0,0,9,,,,,1,,,73,100
70912,note_off,,,,,64,0,9,,,,,1,,,71,100
70944,note_on,,,,,32,0,9,,,,,1,,,74,76
70976,note_off,,,,,128,0,12,,,,,4,,,45,100
70976,note_off,,,,,128,0,11,,,,,3,,,45,100
70976,note_off,,,,,128,0,13,,,,,5,,,69,100
70976,note_off,,,,,0,0,13,,,,,5,,,64,100
70976,note_off,,,,,0,0,13,,,,,5,,,61,100
70976,note_off,,,,,128,0,14,,,,,5,,,45,100
71008,note_off,,,,,64,0,9,,,,,1,,,74,100
71040,note_on,,,,,64,0,14,,,,,5,,,43,100
71040,note_on,,,,,0,0,13,,,,,5,,,62,100
71040,note_on,,,,,0,0,13,,,,,5,,,59,100
71040,note_on,,,,,32,0,9,,,,,1,,,71,76
71040,note_on,,,,,64,0,11,,,,,3,,,43,76
71040,note_on,,,,,64,0,12,,,,,4,,,43,76
71040,note_on,,,,,64,0,13,,,,,5,,,67,100
71296,note_off,,,,,256,0,11,,,,,3,,,43,100
71296,note_off,,,,,256,0,12,,,,,4,,,43,100
71296,note_off,,,,,256,0,14,,,,,5,,,43,100
71296,note_off,,,,,256,0,9,,,,,1,,,71,100
71296,note_off,,,,,256,0,13,,,,,5,,,67,100
71296,note_off,,,,,0,0,13,,,,,5,,,62,100
71296,note_off,,,,,0,0,13,,,,,5,,,59,100
71424,note_on,,,,,0,0,10,,,,,2,,,62,77
71424,note_on,,,,,128,0,12,,,,,4,,,42,77
71424,note_on,,,,,128,0,11,,,,,3,,,42,77
71424,note_on,,,,,128,0,9,,,,,1,,,74,77
71424,note_on,,,,,0,0,13,,,,,5,,,66,100
71424,note_on,,,,,128,0,13,,,,,5,,,57,100
71424,note_on,,,,,128,0,14,,,,,5,,,42,100
71424,note_on,,,,,0,0,13,,,,,5,,,62,100
71424,note_on,,,,,512,0,10,,,,,2,,,57,77
71552,note_off,,,,,128,0,9,,,,,1,,,74,100
71616,note_on,,,,,64,0,9,,,,,1,,,73,77
71680,note_off,,,,,256,0,14,,,,,5,,,42,100
71680,note_off,,,,,256,0,13,,,,,5,,,57,100
71680,note_off,,,,,0,0,13,,,,,5,,,66,100
71680,note_off,,,,,0,0,10,,,,,2,,,62,100
71680,note_off,,,,,256,0,11,,,,,3,,,42,100
71680,note_off,,,,,0,0,13,,,,,5,,,62,100
71680,note_off,,,,,64,0,9,,,,,1,,,73,100
71680,note_off,,,,,256,0,10,,,,,2,,,57,100
71680,note_off,,,,,256,0,12,,,,,4,,,42,100
71712,note_on,,,,,32,0,9,,,,,1,,,71,78
71776,note_off,,,,,64,0,9,,,,,1,,,71,100
71808,note_on,,,,,32,0,9,,,,,1,,,69,78
71936,note_off,,,,,128,0,9,,,,,1,,,69,100
72000,note_on,,,,,64,0,9,,,,,1,,,67,78
72128,note_off,,,,,128,0,9,,,,,1,,,67,100
72192,note_on,,,,,64,0,9,,,,,1,,,66,79
72192,note_on,,,,,512,0,12,,,,,4,,,38,79
72192,note_on,,,,,512,0,14,,,,,5,,,38,100
72192,note_on,,,,,0,0,13,,,,,5,,,69,100
72192,note_on,,,,,0,0,13,,,,,5,,,66,100
72192,note_on,,,,,512,0,13,,,,,5,,,62,100
72192,note_on,,,,,512,0,11,,,,,3,,,38,79
72192,note_on,,,,,512,0,10,,,,,2,,,57,79
72192,note_on,,,,,0,0,10,,,,,2,,,66,79
72320,note_off,,,,,128,0,9,,,,,1,,,66,100
72384,note_on,,,,,64,0,9,,,,,1,,,62,79
72448,note_off,,,,,256,0,11,,,,,3,,,38,100
72448,note_off,,,,,0,0,13,,,,,5,,,69,100
72448,note_off,,,,,256,0,13,,,,,5,,,62,100
72448,note_off,,,,,0,0,13,,,,,5,,,66,100
72448,note_off,,,,,256,0,14,,,,,5,,,38,100
72448,note_off,,,,,256,0,12,,,,,4,,,38,100
72448,note_off,,,,,256,0,10,,,,,2,,,57,100
72448,note_off,,,,,0,0,10,,,,,2,,,66,100
72512,note_off,,,,,128,0,9,,,,,1,,,62,100
72576,note_on,,,,,64,0,9,,,,,1,,,66,80
72704,note_off,,,,,128,0,9,,,,,1,,,66,100
72768,note_on,,,,,64,0,9,,,,,1,,,69,80
72896,note_off,,,,,128,0,9,,,,,1,,,69,100
72960,note_on,,,,,0,0,13,,,,,5,,,69,100
72960,note_on,,,,,0,0,13,,,,,5,,,66,100
72960,note_on,,,,,512,0,13,,,,,5,,,62,100
72960,note_on,,,,,512,0,12,,,,,4,,,38,81
72960,note_on,,,,,64,0,9,,,,,1,,,74,81
72960,note_on,,,,,512,0,14,,,,,5,,,50,100
72960,note_on,,,,,512,0,11,,,,,3,,,50,81
72960,note_on,,,,,512,0,10,,,,,2,,,69,81
73216,note_off,,,,,256,0,13,,,,,5,,,62,100
73216,note_off,,,,,256,0,9,,,,,1,,,74,100
73216,note_off,,,,,0,0,13,,,,,5,,,66,100
73216,note_off,,,,,0,0,13,,,,,5,,,69,100
73216,note_off,,,,,256,0,11,,,,,3,,,50,100
73216,note_off,,,,,256,0,14,,,,,5,,,50,100
73216,note_off,,,,,256,0,12,,,,,4,,,38,100
73216,note_off,,,,,256,0,10,,,,,2,,,69,100
73344,note_on,,,,,128,0,9,,,,,1,,,73,82
73344,note_on,,,,,0,0,9,,,,,1,,,76,82
73344,note_on,,,,,128,0,11,,,,,3,,,45,82
73344,note_on,,,,,128,0,12,,,,,4,,,33,82
73344,note_on,,,,,0,0,13,,,,,5,,,64,100
73344,note_on,,,,,0,0,13,,,,,5,,,61,100
73344,note_on,,,,,128,0,13,,,,,5,,,69,100
73344,note_on,,,,,128,0,10,,,,,2,,,69,82
73344,note_on,,,,,128,0,14,,,,,5,,,45,100
73600,note_off,,,,,256,0,11,,,,,3,,,45,100
73600,note_off,,,,,256,0,10,,,,,2,,,69,100
73600,note_off,,,,,256,0,14,,,,,5,,,45,100
73600,note_off,,,,,0,0,9,,,,,1,,,76,100
73600,note_off,,,,,256,0,12,,,,,4,,,33,100
73600,note_off,,,,,256,0,13,,,,,5,,,69,100
73600,note_off,,,,,256,0,9,,,,,1,,,73,100
73600,note_off,,,,,0,0,13,,,,,5,,,64,100
73600,note_off,,,,,0,0,13,,,,,5,,,61,100
73728,note_on,,,,,128,0,13,,,,,5,,,62,100
73728,note_on,,,,,128,0,10,,,,,2,,,69,83
73728,note_on,,,,,128,0,12,,,,,4,,,38,83
73728,note_on,,,,,128,0,14,,,,,5,,,50,100
73728,note_on,,,,,0,0,13,,,,,5,,,66,100
73728,note_on,,,,,128,0,9,,,,,1,,,78,83
73728,note_on,,,,,128,0,11,,,,,3,,,50,83
73728,note_on,,,,,0,0,9,,,,,1,,,74,83
73728,note_on,,,,,0,0,13,,,,,5,,,69,100
73856,note_off,,,,,128,0,9,,,,,1,,,78,100
73920,note_on,,,,,64,0,9,,,,,1,,,76,83
73984,note_off,,,,,256,0,10,,,,,2,,,69,100
73984,note_off,,,,,0,0,9,,,,,1,,,76,100
73984,note_off,,,,,64,0,9,,,,,1,,,74,100
74016,note_on,,,,,32,0,9,,,,,1,,,78,83
74080,note_off,,,,,64,0,9,,,,,1,,,78,100
74112,note_on,,,,,32,0,9,,,,,1,,,74,84
74112,note_off,,,,,384,0,13,,,,,5,,,62,100
74112,note_off,,,,,384,0,14,,,,,5,,,50,100
74112,note_off,,,,,384,0,11,,,,,3,,,50,100
74112,note_off,,,,,384,0,12,,,,,4,,,38,100
74112,note_off,,,,,0,0,13,,,,,5,,,69,100
74112,note_off,,,,,0,0,13,,,,,5,,,66,100
74304,note_on,,,,,192,0,13,,,,,5,,,66,100
74304,note_on,,,,,192,0,14,,,,,5,,,48,100
74304,note_on,,,,,192,0,11,,,,,3,,,48,84
74304,note_on,,,,,192,0,12,,,,,4,,,36,84
74304,note_on,,,,,0,0,13,,,,,5,,,62,100
74368,note_off,,,,,256,0,9,,,,,1,,,74,100
74432,note_off,,,,,128,0,12,,,,,4,,,36,100
74432,note_off,,,,,128,0,11,,,,,3,,,48,100
74432,note_off,,,,,0,0,13,,,,,5,,,62,100
74432,note_off,,,,,128,0,14,,,,,5,,,48,100
74432,note_off,,,,,128,0,13,,,,,5,,,66,100
74496,note_on,,,,,128,0,9,,,,,1,,,79,84
74496,note_on,,,,,64,0,14,,,,,5,,,47,100
74496,note_on,,,,,64,0,12,,,,,4,,,35,84
74496,note_on,,,,,64,0,11,,,,,3,,,47,84
74496,note_on,,,,,0,0,13,,,,,5,,,62,100
74496,note_on,,,,,512,0,10,,,,,2,,,62,84
74496,note_on,,,,,0,0,10,,,,,2,,,67,84
74496,note_on,,,,,64,0,13,,,,,5,,,67,100
74624,note_off,,,,,128,0,9,,,,,1,,,79,100
74688,note_on,,,,,64,0,9,,,,,1,,,78,85
74752,note_off,,,,,256,0,14,,,,,5,,,47,100
74752,note_off,,,,,256,0,12,,,,,4,,,35,100
74752,note_off,,,,,256,0,10,,,,,2,,,62,100
74752,note_off,,,,,0,0,13,,,,,5,,,62,100
74752,note_off,,,,,64,0,9,,,,,1,,,78,100
74752,note_off,,,,,0,0,10,,,,,2,,,67,100
74752,note_off,,,,,256,0,13,,,,,5,,,67,100
74752,note_off,,,,,256,0,11,,,,,3,,,47,100
74784,note_on,,,,,32,0,9,,,,,1,,,76,85
74848,note_off,,,,,64,0,9,,,,,1,,,76,100
74880,note_on,,,,,32,0,9,,,,,1,,,74,85
75008,note_off,,,,,128,0,9,,,,,1,,,74,100
75072,note_on,,,,,64,0,9,,,,,1,,,72,85
75200,note_off,,,,,128,0,9,,,,,1,,,72,100
75264,note_on,,,,,64,0,9,,,,,1,,,71,85
75264,note_on,,,,,512,0,14,,,,,5,,,55,100
75264,note_on,,,,,512,0,13,,,,,5,,,67,100
75264,note_on,,,,,0,0,13,,,,,5,,,71,100
75264,note_on,,,,,0,0,13,,,,,5,,,74,100
75264,note_on,,,,,512,0,11,,,,,3,,,55,85
75264,note_on,,,,,512,0,10,,,,,2,,,62,85
75264,note_on,,,,,512,0,12,,,,,4,,,43,85
75392,note_off,,,,,128,0,9,,,,,1,,,71,100
75456,note_on,,,,,64,0,9,,,,,1,,,67,85
75520,note_off,,,,,256,0,10,,,,,2,,,62,100
75520,note_off,,,,,0,0,13,,,,,5,,,74,100
75520,note_off,,,,,0,0,13,,,,,5,,,71,100
75520,note_off,,,,,256,0,13,,,,,5,,,67,100
75520,note_off,,,,,256,0,11,,,,,3,,,55,100
75520,note_off,,,,,256,0,12,,,,,4,,,43,100
75520,note_off,,,,,256,0,14,,,,,5,,,55,100
75584,note_off,,,,,128,0,9,,,,,1,,,67,100
75648,note_on,,,,,64,0,9,,,,,1,,,71,85
75776,note_off,,,,,128,0,9,,,,,1,,,71,100
75840,note_on,,,,,64,0,9,,,,,1,,,74,85
75968,note_off,,,,,128,0,9,,,,,1,,,74,100
76032,note_on,,,,,512,0,14,,,,,5,,,55,100
76032,note_on,,,,,0,0,13,,,,,5,,,74,100
76032,note_on,,,,,0,0,13,,,,,5,,,71,100
76032,note_on,,,,,512,0,13,,,,,5,,,67,100
76032,note_on,,,,,512,0,12,,,,,4,,,43,85
76032,note_on,,,,,64,0,9,,,,,1,,,79,85
76032,note_on,,,,,512,0,10,,,,,2,,,62,85
76032,note_on,,,,,512,0,11,,,,,3,,,55,85
76288,note_off,,,,,256,0,9,,,,,1,,,79,100
76288,note_off,,,,,256,0,12,,,,,4,,,43,100
76288,note_off,,,,,256,0,10,,,,,2,,,62,100
76288,note_off,,,,,256,0,13,,,,,5,,,67,100
76288,note_off,,,,,0,0,13,,,,,5,,,71,100
76288,note_off,,,,,0,0,13,,,,,5,,,74,100
76288,note_off,,,,,256,0,14,,,,,5,,,55,100
76288,note_off,,,,,256,0,11,,,,,3,,,55,100
76416,note_on,,,,,0,0,9,,,,,1,,,81,85
76416,note_on,,,,,128,0,9,,,,,1,,,78,85
76416,note_on,,,,,128,0,14,,,,,5,,,50,100
76416,note_on,,,,,0,0,13,,,,,5,,,69,100
76416,note_on,,,,,128,0,11,,,,,3,,,50,85
76416,note_on,,,,,128,0,13,,,,,5,,,74,100
76416,note_on,,,,,128,0,12,,,,,4,,,38,85
76416,note_on,,,,,0,0,13,,,,,5,,,66,100
76416,note_on,,,,,128,0,10,,,,,2,,,62,85
76672,note_off,,,,,256,0,14,,,,,5,,,50,100
76672,note_off,,,,,256,0,11,,,,,3,,,50,100
76672,note_off,,,,,0,0,13,,,,,5,,,66,100
76672,note_off,,,,,256,0,9,,,,,1,,,78,100
76672,note_off,,,,,256,0,10,,,,,2,,,62,100
76672,note_off,,,,,256,0,13,,,,,5,,,74,100
76672,note_off,,,,,256,0,12,,,,,4,,,38,100
76672,note_off,,,,,0,0,9,,,,,1,,,81,100
76672,note_off,,,,,0,0,13,,,,,5,,,69,100
76800,note_on,,,,,128,0,14,,,,,5,,,55,100
76800,note_on,,,,,0,0,13,,,,,5,,,74,100
76800,note_on,,,,,128,0,13,,,,,5,,,67,100
76800,note_on,,,,,128,0,9,,,,,1,,,79,85
76800,note_on,,,,,0,0,9,,,,,1,,,83,85
76800,note_on,,,,,0,0,13,,,,,5,,,71,100
76800,note_on,,,,,128,0,11,,,,,3,,,55,85
76800,note_on,,,,,128,0,10,,,,,2,,,62,85
76800,note_on,,,,,128,0,12,,,,,4,,,43,85
76928,note_off,,,,,128,0,9,,,,,1,,,83,100
76992,note_on,,,,,64,0,9,,,,,1,,,81,85
77056,note_off,,,,,256,0,11,,,,,3,,,55,100
77056,note_off,,,,,256,0,13,,,,,5,,,67,100
77056,note_off,,,,,0,0,13,,,,,5,,,71,100
77056,note_off,,,,,0,0,13,,,,,5,,,74,100
77056,note_off,,,,,0,0,9,,,,,1,,,81,100
77056,note_off,,,,,64,0,9,,,,,1,,,79,100
77056,note_off,,,,,256,0,14,,,,,5,,,55,100
77056,note_off,,,,,256,0,10,,,,,2,,,62,100
77056,note_off,,,,,256,0,12,,,,,4,,,43,100
77088,note_on,,,,,32,0,9,,,,,1,,,83,85
77152,note_off,,,,,64,0,9,,,,,1,,,83,100
77184,note_on,,,,,0,0,13,,,,,5,,,62,100
77184,note_on,,,,,0,0,13,,,,,5,,,67,100
77184,note_on,,,,,128,0,13,,,,,5,,,59,100
77184,note_on,,,,,128,0,11,,,,,3,,,43,85
77184,note_on,,,,,128,0,14,,,,,5,,,43,100
77184,note_on,,,,,128,0,12,,,,,4,,,43,85
77184,note_on,,,,,32,0,9,,,,,1,,,79,85
77376,note_on,,,,,192,0,9,,,,,1,,,71,60
77376,note_on,,,,,320,0,10,,,,,2,,,71,60
77440,note_off,,,,,256,0,14,,,,,5,,,43,100
77440,note_off,,,,,256,0,11,,,,,3,,,43,100
77440,note_off,,,,,256,0,12,,,,,4,,,43,100
77440,note_off,,,,,256,0,13,,,,,5,,,59,100
77440,note_off,,,,,0,0,13,,,,,5,,,67,100
77440,note_off,,,,,0,0,13,,,,,5,,,62,100
77440,note_off,,,,,64,0,9,,,,,1,,,79,100
77504,note_off,,,,,64,0,9,,,,,1,,,71,100
77504,note_off,,,,,128,0,10,,,,,2,,,71,100
77568,note_on,,,,,9088,0,8,,,,,0,,,76,85
77568,note_on,,,,,64,0,10,,,,,2,,,72,60
77568,note_on,,,,,64,0,9,,,,,1,,,72,60
77632,note_off,,,,,64,0,8,,,,,0,,,76,100
77664,note_on,,,,,32,0,8,,,,,0,,,79,85
77696,note_off,,,,,128,0,10,,,,,2,,,72,100
77696,note_off,,,,,128,0,9,,,,,1,,,72,100
77728,note_off,,,,,64,0,8,,,,,0,,,79,100
77760,note_on,,,,,64,0,10,,,,,2,,,72,60
77760,note_on,,,,,0,0,9,,,,,1,,,76,60
77760,note_on,,,,,64,0,9,,,,,1,,,72,60
77760,note_on,,,,,32,0,8,,,,,0,,,78,85
77824,note_off,,,,,64,0,8,,,,,0,,,78,100
77856,note_on,,,,,32,0,8,,,,,0,,,79,85
77888,note_off,,,,,128,0,9,,,,,1,,,72,100
77888,note_off,,,,,128,0,10,,,,,2,,,72,100
77888,note_off,,,,,0,0,9,,,,,1,,,76,100
77920,note_off,,,,,64,0,8,,,,,0,,,79,100
77952,note_on,,,,,64,0,10,,,,,2,,,72,60
77952,note_on,,,,,32,0,8,,,,,0,,,76,85
77952,note_on,,,,,0,0,9,,,,,1,,,79,60
77952,note_on,,,,,64,0,9,,,,,1,,,72,60
78016,note_off,,,,,64,0,8,,,,,0,,,76,100
78048,note_on,,,,,32,0,8,,,,,0,,,79,85
78080,note_off,,,,,128,0,10,,,,,2,,,72,100
78080,note_off,,,,,0,0,9,,,,,1,,,79,100
78080,note_off,,,,,128,0,9,,,,,1,,,72,100
78112,note_off,,,,,64,0,8,,,,,0,,,79,100
78144,note_on,,,,,64,0,10,,,,,2,,,72,60
78144,note_on,,,,,32,0,8,,,,,0,,,78,85
78144,note_on,,,,,64,0,9,,,,,1,,,72,60
78144,note_on,,,,,0,0,9,,,,,1,,,76,60
78208,note_off,,,,,64,0,8,,,,,0,,,78,100
78240,note_on,,,,,32,0,8,,,,,0,,,79,85
78272,note_off,,,,,128,0,10,,,,,2,,,72,100
78272,note_off,,,,,128,0,9,,,,,1,,,72,100
78272,note_off,,,,,0,0,9,,,,,1,,,76,100
78304,note_off,,,,,64,0,8,,,,,0,,,79,100
78336,note_on,,,,,32,0,8,,,,,0,,,74,85
78336,note_on,,,,,64,0,10,,,,,2,,,71,60
78336,note_on,,,,,64,0,9,,,,,1,,,71,60
78400,note_off,,,,,64,0,8,,,,,0,,,74,100
78432,note_on,,,,,32,0,8,,,,,0,,,79,85
78464,note_off,,,,,128,0,9,,,,,1,,,71,100
78464,note_off,,,,,128,0,10,,,,,2,,,71,100
78496,note_off,,,,,64,0,8,,,,,0,,,79,100
78528,note_on,,,,,64,0,9,,,,,1,,,71,60
78528,note_on,,,,,0,0,9,,,,,1,,,74,60
78528,note_on,,,,,64,0,10,,,,,2,,,71,60
78528,note_on,,,,,32,0,8,,,,,0,,,78,85
78592,note_off,,,,,64,0,8,,,,,0,,,78,100
78624,note_on,,,,,32,0,8,,,,,0,,,79,85
78656,note_off,,,,,0,0,9,,,,,1,,,74,100
78656,note_off,,,,,128,0,10,,,,,2,,,71,100
78656,note_off,,,,,128,0,9,,,,,1,,,71,100
78688,note_off,,,,,64,0,8,,,,,0,,,79,100
78720,note_on,,,,,64,0,10,,,,,2,,,71,60
78720,note_on,,,,,0,0,9,,,,,1,,,79,60
78720,note_on,,,,,64,0,9,,,,,1,,,71,60
78720,note_on,,,,,32,0,8,,,,,0,,,74,85
78784,note_off,,,,,64,0,8,,,,,0,,,74,100
78816,note_on,,,,,32,0,8,,,,,0,,,79,85
78848,note_off,,,,,128,0,10,,,,,2,,,71,100
78848,note_off,,,,,0,0,9,,,,,1,,,79,100
78848,note_off,,,,,128,0,9,,,,,1,,,71,100
78880,note_off,,,,,64,0,8,,,,,0,,,79,100
78912,note_on,,,,,0,0,9,,,,,1,,,74,60
78912,note_on,,,,,64,0,10,,,,,2,,,71,60
78912,note_on,,,,,64,0,9,,,,,1,,,71,60
78912,note_on,,,,,32,0,8,,,,,0,,,78,85
78976,note_off,,,,,64,0,8,,,,,0,,,78,100
79008,note_on,,,,,32,0,8,,,,,0,,,79,85
79040,note_off,,,,,0,0,9,,,,,1,,,74,100
79040,note_off,,,,,128,0,10,,,,,2,,,71,100
79040,note_off,,,,,128,0,9,,,,,1,,,71,100
79072,note_off,,,,,64,0,8,,,,,0,,,79,100
79104,note_on,,,,,64,0,10,,,,,2,,,72,60
79104,note_on,,,,,64,0,9,,,,,1,,,72,60
79104,note_on,,,,,32,0,8,,,,,0,,,76,85
79168,note_off,,,,,64,0,8,,,,,0,,,76,100
79200,note_on,,,,,32,0,8,,,,,0,,,79,85
79232,note_off,,,,,128,0,10,,,,,2,,,72,100
79232,note_off,,,,,128,0,9,,,,,1,,,72,100
79264,note_off,,,,,64,0,8,,,,,0,,,79,100
79296,note_on,,,,,64,0,9,,,,,1,,,72,60
79296,note_on,,,,,0,0,9,,,,,1,,,76,60
79296,note_on,,,,,64,0,10,,,,,2,,,72,60
79296,note_on,,,,,32,0,8,,,,,0,,,78,85
79360,note_off,,,,,64,0,8,,,,,0,,,78,100
79392,note_on,,,,,32,0,8,,,,,0,,,79,85
79424,note_off,,,,,0,0,9,,,,,1,,,76,100
79424,note_off,,,,,128,0,9,,,,,1,,,72,100
79424,note_off,,,,,128,0,10,,,,,2,,,72,100
79456,note_off,,,,,64,0,8,,,,,0,,,79,100
79488,note_on,,,,,64,0,10,,,,,2,,,72,60
79488,note_on,,,,,32,0,8,,,,,0,,,76,85
79488,note_on,,,,,0,0,9,,,,,1,,,79,60
79488,note_on,,,,,64,0,9,,,,,1,,,72,60
79552,note_off,,,,,64,0,8,,,,,0,,,76,100
79584,note_on,,,,,32,0,8,,,,,0,,,79,85
79616,note_off,,,,,128,0,10,,,,,2,,,72,100
79616,note_off,,,,,128,0,9,,,,,1,,,72,100
79616,note_off,,,,,0,0,9,,,,,1,,,79,100
79648,note_off,,,,,64,0,8,,,,,0,,,79,100
79680,note_on,,,,,32,0,8,,,,,0,,,78,85
79680,note_on,,,,,64,0,10,,,,,2,,,72,60
79680,note_on,,,,,0,0,9,,,,,1,,,76,60
79680,note_on,,,,,64,0,9,,,,,1,,,72,60
79744,note_off,,,,,64,0,8,,,,,0,,,78,100
79776,note_on,,,,,32,0,8,,,,,0,,,79,85
79808,note_off,,,,,128,0,9,,,,,1,,,72,100
79808,note_off,,,,,0,0,9,,,,,1,,,76,100
79808,note_off,,,,,128,0,10,,,,,2,,,72,100
79840,note_off,,,,,64,0,8,,,,,0,,,79,100
79872,note_on,,,,,64,0,10,,,,,2,,,71,60
79872,note_on,,,,,32,0,8,,,,,0,,,74,85
79872,note_on,,,,,64,0,9,,,,,1,,,71,60
79936,note_off,,,,,64,0,8,,,,,0,,,74,100
79968,note_on,,,,,32,0,8,,,,,0,,,79,85
80000,note_off,,,,,128,0,9,,,,,1,,,71,100
80000,note_off,,,,,128,0,10,,,,,2,,,71,100
80032,note_off,,,,,64,0,8,,,,,0,,,79,100
80064,note_on,,,,,0,0,9,,,,,1,,,74,60
80064,note_on,,,,,64,0,10,,,,,2,,,71,60
80064,note_on,,,,,64,0,9,,,,,1,,,71,60
80064,note_on,,,,,32,0,8,,,,,0,,,78,85
80128,note_off,,,,,64,0,8,,,,,0,,,78,100
80160,note_on,,,,,32,0,8,,,,,0,,,79,85
80192,note_off,,,,,0,0,9,,,,,1,,,74,100
80192,note_off,,,,,128,0,9,,,,,1,,,71,100
80192,note_off,,,,,128,0,10,,,,,2,,,71,100
80224,note_off,,,,,64,0,8,,,,,0,,,79,100
80256,note_on,,,,,0,0,9,,,,,1,,,79,60
80256,note_on,,,,,64,0,9,,,,,1,,,71,60
80256,note_on,,,,,32,0,8,,,,,0,,,74,85
80256,note_on,,,,,64,0,10,,,,,2,,,71,60
80320,note_off,,,,,64,0,8,,,,,0,,,74,100
80352,note_on,,,,,32,0,8,,,,,0,,,79,85
80384,note_off,,,,,0,0,9,,,,,1,,,79,100
80384,note_off,,,,,128,0,9,,,,,1,,,71,100
80384,note_off,,,,,128,0,10,,,,,2,,,71,100
80416,note_off,,,,,64,0,8,,,,,0,,,79,100
80448,note_on,,,,,64,0,9,,,,,1,,,71,60
80448,note_on,,,,,32,0,8,,,,,0,,,78,85
80448,note_on,,,,,64,0,10,,,,,2,,,71,60
80448,note_on,,,,,0,0,9,,,,,1,,,74,60
80512,note_off,,,,,64,0,8,,,,,0,,,78,100
80544,note_on,,,,,32,0,8,,,,,0,,,79,85
80576,note_off,,,,,128,0,10,,,,,2,,,71,100
80576,note_off,,,,,0,0,9,,,,,1,,,74,100
80576,note_off,,,,,128,0,9,,,,,1,,,71,100
80608,note_off,,,,,64,0,8,,,,,0,,,79,100
80640,note_on,,,,,64,0,10,,,,,2,,,69,60
80640,note_on,,,,,64,0,9,,,,,1,,,69,60
80640,note_on,,,,,32,0,8,,,,,0,,,72,85
80704,note_off,,,,,64,0,8,,,,,0,,,72,100
80736,note_on,,,,,32,0,8,,,,,0,,,79,85
80768,note_off,,,,,128,0,10,,,,,2,,,69,100
80768,note_off,,,,,128,0,9,,,,,1,,,69,100
80800,note_off,,,,,64,0,8,,,,,0,,,79,100
80832,note_on,,,,,64,0,9,,,,,1,,,69,60
80832,note_on,,,,,64,0,10,,,,,2,,,69,60
80832,note_on,,,,,0,0,9,,,,,1,,,72,60
80832,note_on,,,,,32,0,8,,,,,0,,,78,85
80896,note_off,,,,,64,0,8,,,,,0,,,78,100
80928,note_on,,,,,32,0,8,,,,,0,,,79,85
80960,note_off,,,,,128,0,10,,,,,2,,,69,100
80960,note_off,,,,,0,0,9,,,,,1,,,72,100
80960,note_off,,,,,128,0,9,,,,,1,,,69,100
80992,note_off,,,,,64,0,8,,,,,0,,,79,100
81024,note_on,,,,,32,0,8,,,,,0,,,72,85
81024,note_on,,,,,64,0,10,,,,,2,,,69,60
81024,note_on,,,,,0,0,9,,,,,1,,,79,60
81024,note_on,,,,,64,0,9,,,,,1,,,69,60
81088,note_off,,,,,64,0,8,,,,,0,,,72,100
81120,note_on,,,,,32,0,8,,,,,0,,,79,85
81152,note_off,,,,,128,0,9,,,,,1,,,69,100
81152,note_off,,,,,0,0,9,,,,,1,,,79,100
81152,note_off,,,,,128,0,10,,,,,2,,,69,100
81184,note_off,,,,,64,0,8,,,,,0,,,79,100
81216,note_on,,,,,64,0,10,,,,,2,,,69,60
81216,note_on,,,,,64,0,9,,,,,1,,,69,60
81216,note_on,,,,,32,0,8,,,,,0,,,78,85
81216,note_on,,,,,0,0,9,,,,,1,,,72,60
81280,note_off,,,,,64,0,8,,,,,0,,,78,100
81312,note_on,,,,,32,0,8,,,,,0,,,79,85
81344,note_off,,,,,128,0,10,,,,,2,,,69,100
81344,note_off,,,,,0,0,9,,,,,1,,,72,100
81344,note_off,,,,,128,0,9,,,,,1,,,69,100
81376,note_off,,,,,64,0,8,,,,,0,,,79,100
81408,note_on,,,,,64,0,10,,,,,2,,,67,60
81408,note_on,,,,,64,0,9,,,,,1,,,67,60
81408,note_on,,,,,32,0,8,,,,,0,,,71,85
81472,note_off,,,,,64,0,8,,,,,0,,,71,100
81504,note_on,,,,,32,0,8,,,,,0,,,79,85
81536,note_off,,,,,128,0,10,,,,,2,,,67,100
81536,note_off,,,,,128,0,9,,,,,1,,,67,100
81568,note_off,,,,,64,0,8,,,,,0,,,79,100
81600,note_on,,,,,64,0,9,,,,,1,,,67,60
81600,note_on,,,,,0,0,9,,,,,1,,,71,60
81600,note_on,,,,,64,0,10,,,,,2,,,67,60
81600,note_on,,,,,32,0,8,,,,,0,,,78,85
81664,note_off,,,,,64,0,8,,,,,0,,,78,100
81696,note_on,,,,,32,0,8,,,,,0,,,79,85
81728,note_off,,,,,128,0,9,,,,,1,,,67,100
81728,note_off,,,,,128,0,10,,,,,2,,,67,100
81728,note_off,,,,,0,0,9,,,,,1,,,71,100
81760,note_off,,,,,64,0,8,,,,,0,,,79,100
81792,note_on,,,,,64,0,10,,,,,2,,,67,60
81792,note_on,,,,,32,0,8,,,,,0,,,71,85
81792,note_on,,,,,64,0,9,,,,,1,,,67,60
81792,note_on,,,,,0,0,9,,,,,1,,,79,60
81856,note_off,,,,,64,0,8,,,,,0,,,71,100
81888,note_on,,,,,32,0,8,,,,,0,,,79,85
81920,note_off,,,,,0,0,9,,,,,1,,,79,100
81920,note_off,,,,,128,0,10,,,,,2,,,67,100
81920,note_off,,,,,128,0,9,,,,,1,,,67,100
81952,note_off,,,,,64,0,8,,,,,0,,,79,100
81984,note_on,,,,,64,0,9,,,,,1,,,67,60
81984,note_on,,,,,0,0,9,,,,,1,,,71,60
81984,note_on,,,,,32,0,8,,,,,0,,,78,85
81984,note_on,,,,,64,0,10,,,,,2,,,67,60
82048,note_off,,,,,64,0,8,,,,,0,,,78,100
82080,note_on,,,,,32,0,8,,,,,0,,,79,85
82112,note_off,,,,,128,0,10,,,,,2,,,67,100
82112,note_off,,,,,0,0,9,,,,,1,,,71,100
82112,note_off,,,,,128,0,9,,,,,1,,,67,100
82144,note_off,,,,,64,0,8,,,,,0,,,79,100
82176,note_on,,,,,32,0,8,,,,,0,,,69,85
82176,note_on,,,,,64,0,10,,,,,2,,,60,60
82176,note_on,,,,,64,0,9,,,,,1,,,60,60
82240,note_off,,,,,64,0,8,,,,,0,,,69,100
82272,note_on,,,,,32,0,8,,,,,0,,,79,85
82304,note_off,,,,,128,0,9,,,,,1,,,60,100
82304,note_off,,,,,128,0,10,,,,,2,,,60,100
82336,note_off,,,,,64,0,8,,,,,0,,,79,100
82368,note_on,,,,,64,0,9,,,,,1,,,60,60
82368,note_on,,,,,0,0,9,,,,,1,,,69,60
82368,note_on,,,,,64,0,10,,,,,2,,,60,60
82368,note_on,,,,,32,0,8,,,,,0,,,78,85
82432,note_off,,,,,64,0,8,,,,,0,,,78,100
82464,note_on,,,,,32,0,8,,,,,0,,,79,85
82496,note_off,,,,,128,0,9,,,,,1,,,60,100
82496,note_off,,,,,0,0,9,,,,,1,,,69,100
82496,note_off,,,,,128,0,10,,,,,2,,,60,100
82528,note_off,,,,,64,0,8,,,,,0,,,79,100
82560,note_on,,,,,0,0,9,,,,,1,,,79,60
82560,note_on,,,,,32,0,8,,,,,0,,,69,85
82560,note_on,,,,,64,0,10,,,,,2,,,62,60
82560,note_on,,,,,64,0,9,,,,,1,,,62,60
82624,note_off,,,,,64,0,8,,,,,0,,,69,100
82656,note_on,,,,,32,0,8,,,,,0,,,78,85
82688,note_off,,,,,128,0,9,,,,,1,,,62,100
82688,note_off,,,,,0,0,9,,,,,1,,,79,100
82688,note_off,,,,,128,0,10,,,,,2,,,62,100
82720,note_off,,,,,64,0,8,,,,,0,,,78,100
82752,note_on,,,,,64,0,9,,,,,1,,,62,60
82752,note_on,,,,,0,0,9,,,,,1,,,69,60
82752,note_on,,,,,64,0,10,,,,,2,,,62,60
82752,note_on,,,,,32,0,8,,,,,0,,,76,85
82816,note_off,,,,,64,0,8,,,,,0,,,76,100
82848,note_on,,,,,32,0,8,,,,,0,,,78,85
82880,note_off,,,,,0,0,9,,,,,1,,,69,100
82880,note_off,,,,,128,0,9,,,,,1,,,62,100
82880,note_off,,,,,128,0,10,,,,,2,,,62,100
82912,note_off,,,,,64,0,8,,,,,0,,,78,100
82944,note_on,,,,,5504,0,14,,,,,5,,,43,100
82944,note_on,,,,,0,0,13,,,,,5,,,62,100
82944,note_on,,,,,0,0,9,,,,,1,,,67,60
82944,note_on,,,,,64,0,9,,,,,1,,,55,60
82944,note_on,,,,,5504,0,13,,,,,5,,,71,100
82944,note_on,,,,,5504,0,12,,,,,4,,,43,60
82944,note_on,,,,,32,0,8,,,,,0,,,79,85
82944,note_on,,,,,64,0,10,,,,,2,,,62,60
82944,note_on,,,,,5504,0,11,,,,,3,,,43,60
83072,note_off,,,,,128,0,10,,,,,2,,,62,100
83072,note_off,,,,,128,0,12,,,,,4,,,43,100
83072,note_off,,,,,128,0,14,,,,,5,,,43,100
83072,note_off,,,,,128,0,11,,,,,3,,,43,100
83136,note_on,,,,,64,0,10,,,,,2,,,62,70
83136,note_on,,,,,64,0,11,,,,,3,,,43,70
83136,note_on,,,,,64,0,12,,,,,4,,,43,70
83136,note_on,,,,,64,0,14,,,,,5,,,43,100
83200,note_off,,,,,256,0,13,,,,,5,,,71,100
83200,note_off,,,,,256,0,9,,,,,1,,,55,100
83200,note_off,,,,,0,0,13,,,,,5,,,62,100
83200,note_off,,,,,0,0,9,,,,,1,,,67,100
83200,note_off,,,,,256,0,8,,,,,0,,,79,100
83200,end_of_track,,,,,0,1,8,,,,,,,,,
83264,note_off,,,,,128,0,11,,,,,3,,,43,100
83264,note_off,,,,,128,0,10,,,,,2,,,62,100
83264,note_off,,,,,128,0,12,,,,,4,,,43,100
83264,note_off,,,,,128,0,14,,,,,5,,,43,100
83328,note_on,,,,,128,0,13,,,,,5,,,71,100
83328,note_on,,,,,0,0,13,,,,,5,,,62,100
83328,note_on,,,,,64,0,12,,,,,4,,,43,70
83328,note_on,,,,,64,0,10,,,,,2,,,62,70
83328,note_on,,,,,64,0,14,,,,,5,,,43,100
83328,note_on,,,,,64,0,11,,,,,3,,,43,70
83424,note_on,,,,,224,0,9,,,,,1,,,62,71
83456,note_off,,,,,128,0,14,,,,,5,,,43,100
83456,note_off,,,,,128,0,11,,,,,3,,,43,100
83456,note_off,,,,,128,0,12,,,,,4,,,43,100
83456,note_off,,,,,128,0,10,,,,,2,,,62,100
83488,note_off,,,,,64,0,9,,,,,1,,,62,100
83520,note_on,,,,,64,0,12,,,,,4,,,43,71
83520,note_on,,,,,64,0,10,,,,,2,,,62,71
83520,note_on,,,,,64,0,14,,,,,5,,,43,100
83520,note_on,,,,,64,0,11,,,,,3,,,43,71
83520,note_on,,,,,32,0,9,,,,,1,,,64,71
83584,note_off,,,,,0,0,13,,,,,5,,,62,100
83584,note_off,,,,,256,0,13,,,,,5,,,71,100
83584,note_off,,,,,64,0,9,,,,,1,,,64,100
83616,note_on,,,,,32,0,9,,,,,1,,,66,71
83648,note_off,,,,,128,0,11,,,,,3,,,43,100
83648,note_off,,,,,128,0,10,,,,,2,,,62,100
83648,note_off,,,,,128,0,14,,,,,5,,,43,100
83648,note_off,,,,,128,0,12,,,,,4,,,43,100
83680,note_off,,,,,64,0,9,,,,,1,,,66,100
83712,note_on,,,,,64,0,10,,,,,2,,,62,72
83712,note_on,,,,,64,0,11,,,,,3,,,47,72
83712,note_on,,,,,64,0,12,,,,,4,,,35,72
83712,note_on,,,,,32,0,9,,,,,1,,,67,72
83712,note_on,,,,,64,0,14,,,,,5,,,47,100
83712,note_on,,,,,0,0,13,,,,,5,,,62,100
83712,note_on,,,,,128,0,13,,,,,5,,,67,100
83776,note_off,,,,,64,0,9,,,,,1,,,67,100
83808,note_on,,,,,32,0,9,,,,,1,,,69,72
83840,note_off,,,,,128,0,14,,,,,5,,,47,100
83840,note_off,,,,,128,0,11,,,,,3,,,47,100
83840,note_off,,,,,128,0,12,,,,,4,,,35,100
83840,note_off,,,,,128,0,10,,,,,2,,,62,100
83872,note_off,,,,,64,0,9,,,,,1,,,69,100
83904,note_on,,,,,32,0,9,,,,,1,,,71,73
83904,note_on,,,,,64,0,11,,,,,3,,,47,73
83904,note_on,,,,,64,0,12,,,,,4,,,35,73
83904,note_on,,,,,64,0,10,,,,,2,,,62,73
83904,note_on,,,,,64,0,14,,,,,5,,,47,100
83968,note_off,,,,,256,0,13,,,,,5,,,67,100
83968,note_off,,,,,0,0,13,,,,,5,,,62,100
83968,note_off,,,,,64,0,9,,,,,1,,,71,100
84000,note_on,,,,,32,0,9,,,,,1,,,72,73
84032,note_off,,,,,128,0,14,,,,,5,,,47,100
84032,note_off,,,,,128,0,10,,,,,2,,,62,100
84032,note_off,,,,,128,0,12,,,,,4,,,35,100
84032,note_off,,,,,128,0,11,,,,,3,,,47,100
84064,note_off,,,,,64,0,9,,,,,1,,,72,100
84096,note_on,,,,,64,0,12,,,,,4,,,35,73
84096,note_on,,,,,128,0,13,,,,,5,,,65,100
84096,note_on,,,,,64,0,10,,,,,2,,,62,73
84096,note_on,,,,,64,0,14,,,,,5,,,47,100
84096,note_on,,,,,64,0,11,,,,,3,,,47,73
84096,note_on,,,,,0,0,13,,,,,5,,,67,100
84096,note_on,,,,,32,0,9,,,,,1,,,74,73
84224,note_off,,,,,128,0,9,,,,,1,,,74,100
84224,note_off,,,,,128,0,14,,,,,5,,,47,100
84224,note_off,,,,,128,0,12,,,,,4,,,35,100
84224,note_off,,,,,128,0,11,,,,,3,,,47,100
84224,note_off,,,,,128,0,10,,,,,2,,,62,100
84288,note_on,,,,,64,0,11,,,,,3,,,47,74
84288,note_on,,,,,64,0,10,,,,,2,,,62,74
84288,note_on,,,,,64,0,9,,,,,1,,,65,74
84288,note_on,,,,,64,0,12,,,,,4,,,35,74
84288,note_on,,,,,64,0,14,,,,,5,,,47,100
84352,note_off,,,,,256,0,13,,,,,5,,,65,100
84352,note_off,,,,,0,0,13,,,,,5,,,67,100
84416,note_off,,,,,128,0,10,,,,,2,,,62,100
84416,note_off,,,,,128,0,12,,,,,4,,,35,100
84416,note_off,,,,,128,0,14,,,,,5,,,47,100
84416,note_off,,,,,128,0,11,,,,,3,,,47,100
84416,note_off,,,,,128,0,9,,,,,1,,,65,100
84480,note_on,,,,,0,0,13,,,,,5,,,65,100
84480,note_on,,,,,128,0,13,,,,,5,,,67,100
84480,note_on,,,,,64,0,14,,,,,5,,,48,100
84480,note_on,,,,,64,0,10,,,,,2,,,55,75
84480,note_on,,,,,64,0,9,,,,,1,,,65,75
84480,note_on,,,,,64,0,12,,,,,4,,,36,75
84480,note_on,,,,,64,0,11,,,,,3,,,48,75
84524,note_off,,,,,44,0,9,,,,,1,,,65,100
84528,note_on,,,,,4,0,9,,,,,1,,,67,75
84572,note_off,,,,,44,0,9,,,,,1,,,67,100
84576,note_on,,,,,4,0,9,,,,,1,,,65,75
84608,note_off,,,,,128,0,11,,,,,3,,,48,100
84608,note_off,,,,,128,0,12,,,,,4,,,36,100
84608,note_off,,,,,128,0,13,,,,,5,,,65,100
84608,note_off,,,,,128,0,10,,,,,2,,,55,100
84608,note_off,,,,,128,0,14,,,,,5,,,48,100
84668,note_off,,,,,92,0,9,,,,,1,,,65,100
84672,note_on,,,,,64,0,11,,,,,3,,,48,76
84672,note_on,,,,,64,0,13,,,,,5,,,64,100
84672,note_on,,,,,64,0,10,,,,,2,,,55,76
84672,note_on,,,,,64,0,12,,,,,4,,,36,76
84672,note_on,,,,,64,0,14,,,,,5,,,48,100
84672,note_on,,,,,4,0,9,,,,,1,,,64,76
84736,note_off,,,,,64,0,13,,,,,5,,,67,100
84800,note_off,,,,,128,0,12,,,,,4,,,36,100
84800,note_off,,,,,64,0,13,,,,,5,,,64,100
84800,note_off,,,,,128,0,10,,,,,2,,,55,100
84800,note_off,,,,,128,0,9,,,,,1,,,64,100
84800,note_off,,,,,128,0,14,,,,,5,,,48,100
84800,note_off,,,,,128,0,11,,,,,3,,,48,100
84864,note_on,,,,,0,0,13,,,,,5,,,67,100
84864,note_on,,,,,64,0,10,,,,,2,,,55,77
84864,note_on,,,,,64,0,13,,,,,5,,,64,100
84864,note_on,,,,,64,0,12,,,,,4,,,36,77
84864,note_on,,,,,64,0,11,,,,,3,,,48,77
84864,note_on,,,,,64,0,14,,,,,5,,,48,100
84960,note_on,,,,,160,0,9,,,,,1,,,64,77
84992,note_off,,,,,128,0,10,,,,,2,,,55,100
84992,note_off,,,,,128,0,12,,,,,4,,,36,100
84992,note_off,,,,,128,0,11,,,,,3,,,48,100
84992,note_off,,,,,128,0,14,,,,,5,,,48,100
85024,note_off,,,,,64,0,9,,,,,1,,,64,100
85056,note_on,,,,,64,0,10,,,,,2,,,55,77
85056,note_on,,,,,64,0,12,,,,,4,,,36,77
85056,note_on,,,,,64,0,11,,,,,3,,,48,77
85056,note_on,,,,,32,0,9,,,,,1,,,66,77
85056,note_on,,,,,64,0,14,,,,,5,,,48,100
85120,note_off,,,,,256,0,13,,,,,5,,,64,100
85120,note_off,,,,,0,0,13,,,,,5,,,67,100
85120,note_off,,,,,64,0,9,,,,,1,,,66,100
85152,note_on,,,,,32,0,9,,,,,1,,,67,78
85184,note_off,,,,,128,0,14,,,,,5,,,48,100
85184,note_off,,,,,128,0,10,,,,,2,,,55,100
85184,note_off,,,,,128,0,12,,,,,4,,,36,100
85184,note_off,,,,,128,0,11,,,,,3,,,48,100
85216,note_off,,,,,64,0,9,,,,,1,,,67,100
85248,note_on,,,,,32,0,9,,,,,1,,,69,78
85248,note_on,,,,,64,0,11,,,,,3,,,49,78
85248,note_on,,,,,64,0,12,,,,,4,,,37,78
85248,note_on,,,,,64,0,10,,,,,2,,,64,78
85248,note_on,,,,,64,0,14,,,,,5,,,49,100
85248,note_on,,,,,128,0,13,,,,,5,,,67,100
85248,note_on,,,,,0,0,13,,,,,5,,,69,100
85312,note_off,,,,,64,0,9,,,,,1,,,69,100
85344,note_on,,,,,32,0,9,,,,,1,,,71,79
85376,note_off,,,,,128,0,14,,,,,5,,,49,100
85376,note_off,,,,,128,0,12,,,,,4,,,37,100
85376,note_off,,,,,128,0,11,,,,,3,,,49,100
85376,note_off,,,,,128,0,10,,,,,2,,,64,100
85408,note_off,,,,,64,0,9,,,,,1,,,71,100
85440,note_on,,,,,32,0,9,,,,,1,,,73,79
85440,note_on,,,,,64,0,14,,,,,5,,,49,100
85440,note_on,,,,,64,0,12,,,,,4,,,37,79
85440,note_on,,,,,64,0,11,,,,,3,,,49,79
85440,note_on,,,,,64,0,10,,,,,2,,,64,79
85504,note_off,,,,,64,0,9,,,,,1,,,73,100
85504,note_off,,,,,256,0,13,,,,,5,,,67,100
85504,note_off,,,,,0,0,13,,,,,5,,,69,100
85536,note_on,,,,,32,0,9,,,,,1,,,74,79
85568,note_off,,,,,128,0,12,,,,,4,,,37,100
85568,note_off,,,,,128,0,14,,,,,5,,,49,100
85568,note_off,,,,,128,0,11,,,,,3,,,49,100
85568,note_off,,,,,128,0,10,,,,,2,,,64,100
85600,note_off,,,,,64,0,9,,,,,1,,,74,100
85632,note_on,,,,,64,0,10,,,,,2,,,64,80
85632,note_on,,,,,64,0,12,,,,,4,,,37,80
85632,note_on,,,,,64,0,11,,,,,3,,,49,80
85632,note_on,,,,,32,0,9,,,,,1,,,76,80
85632,note_on,,,,,0,0,13,,,,,5,,,67,100
85632,note_on,,,,,128,0,13,,,,,5,,,64,100
85632,note_on,,,,,64,0,14,,,,,5,,,49,100
85760,note_off,,,,,128,0,10,,,,,2,,,64,100
85760,note_off,,,,,128,0,12,,,,,4,,,37,100
85760,note_off,,,,,128,0,11,,,,,3,,,49,100
85760,note_off,,,,,128,0,9,,,,,1,,,76,100
85760,note_off,,,,,128,0,14,,,,,5,,,49,100
85824,note_on,,,,,64,0,9,,,,,1,,,67,81
85824,note_on,,,,,64,0,12,,,,,4,,,37,81
85824,note_on,,,,,64,0,11,,,,,3,,,49,81
85824,note_on,,,,,64,0,14,,,,,5,,,49,100
85824,note_on,,,,,64,0,10,,,,,2,,,64,81
85888,note_off,,,,,0,0,13,,,,,5,,,67,100
85888,note_off,,,,,256,0,13,,,,,5,,,64,100
85952,note_off,,,,,128,0,14,,,,,5,,,49,100
85952,note_off,,,,,128,0,10,,,,,2,,,64,100
85952,note_off,,,,,128,0,12,,,,,4,,,37,100
85952,note_off,,,,,128,0,9,,,,,1,,,67,100
85952,note_off,,,,,128,0,11,,,,,3,,,49,100
86016,note_on,,,,,128,0,13,,,,,5,,,69,100
86016,note_on,,,,,64,0,12,,,,,4,,,38,81
86016,note_on,,,,,64,0,11,,,,,3,,,50,81
86016,note_on,,,,,64,0,9,,,,,1,,,67,81
86016,note_on,,,,,64,0,14,,,,,5,,,50,100
86016,note_on,,,,,64,0,10,,,,,2,,,57,81
86016,note_on,,,,,0,0,13,,,,,5,,,67,100
86060,note_off,,,,,44,0,9,,,,,1,,,67,100
86064,note_on,,,,,4,0,9,,,,,1,,,69,82
86108,note_off,,,,,44,0,9,,,,,1,,,69,100
86112,note_on,,,,,4,0,9,,,,,1,,,67,82
86144,note_off,,,,,128,0,11,,,,,3,,,50,100
86144,note_off,,,,,128,0,14,,,,,5,,,50,100
86144,note_off,,,,,128,0,12,,,,,4,,,38,100
86144,note_off,,,,,128,0,10,,,,,2,,,57,100
86144,note_off,,,,,128,0,13,,,,,5,,,67,100
86204,note_off,,,,,92,0,9,,,,,1,,,67,100
86208,note_on,,,,,64,0,13,,,,,5,,,66,100
86208,note_on,,,,,64,0,11,,,,,3,,,50,82
86208,note_on,,,,,64,0,10,,,,,2,,,57,82
86208,note_on,,,,,64,0,12,,,,,4,,,38,82
86208,note_on,,,,,4,0,9,,,,,1,,,66,82
86208,note_on,,,,,64,0,14,,,,,5,,,50,100
86272,note_off,,,,,64,0,13,,,,,5,,,69,100
86336,note_off,,,,,128,0,11,,,,,3,,,50,100
86336,note_off,,,,,128,0,12,,,,,4,,,38,100
86336,note_off,,,,,64,0,13,,,,,5,,,66,100
86336,note_off,,,,,128,0,14,,,,,5,,,50,100
86336,note_off,,,,,128,0,9,,,,,1,,,66,100
86336,note_off,,,,,128,0,10,,,,,2,,,57,100
86400,note_on,,,,,64,0,10,,,,,2,,,57,83
86400,note_on,,,,,64,0,13,,,,,5,,,66,100
86400,note_on,,,,,64,0,14,,,,,5,,,50,100
86400,note_on,,,,,0,0,13,,,,,5,,,69,100
86400,note_on,,,,,64,0,11,,,,,3,,,50,83
86400,note_on,,,,,64,0,12,,,,,4,,,38,83
86496,note_on,,,,,160,0,9,,,,,1,,,66,83
86528,note_off,,,,,128,0,11,,,,,3,,,50,100
86528,note_off,,,,,128,0,12,,,,,4,,,38,100
86528,note_off,,,,,128,0,10,,,,,2,,,57,100
86528,note_off,,,,,128,0,14,,,,,5,,,50,100
86560,note_off,,,,,64,0,9,,,,,1,,,66,100
86592,note_on,,,,,64,0,14,,,,,5,,,50,100
86592,note_on,,,,,64,0,10,,,,,2,,,57,84
86592,note_on,,,,,32,0,9,,,,,1,,,67,84
86592,note_on,,,,,64,0,12,,,,,4,,,38,84
86592,note_on,,,,,64,0,11,,,,,3,,,50,84
86656,note_off,,,,,64,0,9,,,,,1,,,67,100
86656,note_off,,,,,256,0,13,,,,,5,,,66,100
86656,note_off,,,,,0,0,13,,,,,5,,,69,100
86688,note_on,,,,,32,0,9,,,,,1,,,69,84
86720,note_off,,,,,128,0,10,,,,,2,,,57,100
86720,note_off,,,,,128,0,14,,,,,5,,,50,100
86720,note_off,,,,,128,0,11,,,,,3,,,50,100
86720,note_off,,,,,128,0,12,,,,,4,,,38,100
86752,note_off,,,,,64,0,9,,,,,1,,,69,100
86784,note_on,,,,,32,0,9,,,,,1,,,71,84
86784,note_on,,,,,64,0,11,,,,,3,,,50,84
86784,note_on,,,,,0,0,13,,,,,5,,,71,100
86784,note_on,,,,,64,0,12,,,,,4,,,38,84
86784,note_on,,,,,64,0,10,,,,,2,,,66,84
86784,note_on,,,,,64,0,14,,,,,5,,,50,100
86784,note_on,,,,,128,0,13,,,,,5,,,69,100
86848,note_off,,,,,64,0,9,,,,,1,,,71,100
86880,note_on,,,,,32,0,9,,,,,1,,,72,85
86912,note_off,,,,,128,0,10,,,,,2,,,66,100
86912,note_off,,,,,128,0,14,,,,,5,,,50,100
86912,note_off,,,,,128,0,11,,,,,3,,,50,100
86912,note_off,,,,,128,0,12,,,,,4,,,38,100
86944,note_off,,,,,64,0,9,,,,,1,,,72,100
86976,note_on,,,,,64,0,12,,,,,4,,,38,85
86976,note_on,,,,,64,0,10,,,,,2,,,66,85
86976,note_on,,,,,64,0,14,,,,,5,,,50,100
86976,note_on,,,,,32,0,9,,,,,1,,,74,85
86976,note_on,,,,,64,0,11,,,,,3,,,50,85
87040,note_off,,,,,256,0,13,,,,,5,,,69,100
87040,note_off,,,,,64,0,9,,,,,1,,,74,100
87040,note_off,,,,,0,0,13,,,,,5,,,71,100
87072,note_on,,,,,32,0,9,,,,,1,,,76,86
87104,note_off,,,,,128,0,11,,,,,3,,,50,100
87104,note_off,,,,,128,0,12,,,,,4,,,38,100
87104,note_off,,,,,128,0,10,,,,,2,,,66,100
87104,note_off,,,,,128,0,14,,,,,5,,,50,100
87136,note_off,,,,,64,0,9,,,,,1,,,76,100
87168,note_on,,,,,128,0,13,,,,,5,,,69,100
87168,note_on,,,,,0,0,13,,,,,5,,,66,100
87168,note_on,,,,,64,0,10,,,,,2,,,66,86
87168,note_on,,,,,32,0,9,,,,,1,,,78,86
87168,note_on,,,,,64,0,14,,,,,5,,,50,100
87168,note_on,,,,,64,0,11,,,,,3,,,50,86
87168,note_on,,,,,64,0,12,,,,,4,,,38,86
87296,note_off,,,,,128,0,9,,,,,1,,,78,100
87296,note_off,,,,,128,0,10,,,,,2,,,66,100
87296,note_off,,,,,128,0,11,,,,,3,,,50,100
87296,note_off,,,,,128,0,12,,,,,4,,,38,100
87296,note_off,,,,,128,0,14,,,,,5,,,50,100
87360,note_on,,,,,64,0,11,,,,,3,,,50,87
87360,note_on,,,,,64,0,10,,,,,2,,,66,87
87360,note_on,,,,,64,0,9,,,,,1,,,69,87
87360,note_on,,,,,64,0,12,,,,,4,,,38,87
87360,note_on,,,,,64,0,14,,,,,5,,,50,100
87424,note_off,,,,,256,0,13,,,,,5,,,69,100
87424,note_off,,,,,0,0,13,,,,,5,,,66,100
87488,note_off,,,,,128,0,11,,,,,3,,,50,100
87488,note_off,,,,,128,0,10,,,,,2,,,66,100
87488,note_off,,,,,128,0,14,,,,,5,,,50,100
87488,note_off,,,,,128,0,9,,,,,1,,,69,100
87488,note_off,,,,,128,0,12,,,,,4,,,38,100
87552,note_on,,,,,64,0,14,,,,,5,,,52,100
87552,note_on,,,,,0,0,13,,,,,5,,,69,100
87552,note_on,,,,,128,0,13,,,,,5,,,71,100
87552,note_on,,,,,64,0,9,,,,,1,,,69,88
87552,note_on,,,,,64,0,10,,,,,2,,,59,88
87552,note_on,,,,,64,0,11,,,,,3,,,52,88
87552,note_on,,,,,64,0,12,,,,,4,,,40,88
87596,note_off,,,,,44,0,9,,,,,1,,,69,100
87600,note_on,,,,,4,0,9,,,,,1,,,71,88
87644,note_off,,,,,44,0,9,,,,,1,,,71,100
87648,note_on,,,,,4,0,9,,,,,1,,,69,88
87680,note_off,,,,,128,0,14,,,,,5,,,52,100
87680,note_off,,,,,128,0,11,,,,,3,,,52,100
87680,note_off,,,,,128,0,10,,,,,2,,,59,100
87680,note_off,,,,,128,0,13,,,,,5,,,69,100
87680,note_off,,,,,128,0,12,,,,,4,,,40,100
87740,note_off,,,,,92,0,9,,,,,1,,,69,100
87744,note_on,,,,,64,0,14,,,,,5,,,52,100
87744,note_on,,,,,64,0,12,,,,,4,,,40,88
87744,note_on,,,,,4,0,9,,,,,1,,,67,88
87744,note_on,,,,,64,0,13,,,,,5,,,67,100
87744,note_on,,,,,64,0,10,,,,,2,,,59,88
87744,note_on,,,,,64,0,11,,,,,3,,,52,88
87808,note_off,,,,,64,0,13,,,,,5,,,71,100
87872,note_off,,,,,128,0,9,,,,,1,,,67,100
87872,note_off,,,,,128,0,10,,,,,2,,,59,100
87872,note_off,,,,,64,0,13,,,,,5,,,67,100
87872,note_off,,,,,128,0,14,,,,,5,,,52,100
87872,note_off,,,,,128,0,12,,,,,4,,,40,100
87872,note_off,,,,,128,0,11,,,,,3,,,52,100
87936,note_on,,,,,64,0,11,,,,,3,,,52,89
87936,note_on,,,,,64,0,10,,,,,2,,,59,89
87936,note_on,,,,,0,0,13,,,,,5,,,71,100
87936,note_on,,,,,64,0,13,,,,,5,,,67,100
87936,note_on,,,,,64,0,12,,,,,4,,,40,89
87936,note_on,,,,,64,0,14,,,,,5,,,52,100
88032,note_on,,,,,160,0,9,,,,,1,,,67,90
88064,note_off,,,,,128,0,10,,,,,2,,,59,100
88064,note_off,,,,,128,0,14,,,,,5,,,52,100
88064,note_off,,,,,128,0,12,,,,,4,,,40,100
88064,note_off,,,,,128,0,11,,,,,3,,,52,100
88096,note_off,,,,,64,0,9,,,,,1,,,67,100
88128,note_on,,,,,64,0,11,,,,,3,,,52,90
88128,note_on,,,,,64,0,12,,,,,4,,,40,90
88128,note_on,,,,,64,0,14,,,,,5,,,52,100
88128,note_on,,,,,32,0,9,,,,,1,,,69,90
88128,note_on,,,,,64,0,10,,,,,2,,,59,90
88192,note_off,,,,,256,0,13,,,,,5,,,67,100
88192,note_off,,,,,0,0,13,,,,,5,,,71,100
88192,note_off,,,,,64,0,9,,,,,1,,,69,100
88224,note_on,,,,,32,0,9,,,,,1,,,71,90
88256,note_off,,,,,128,0,11,,,,,3,,,52,100
88256,note_off,,,,,128,0,12,,,,,4,,,40,100
88256,note_off,,,,,128,0,10,,,,,2,,,59,100
88256,note_off,,,,,128,0,14,,,,,5,,,52,100
88288,note_off,,,,,64,0,9,,,,,1,,,71,100
88320,note_on,,,,,0,0,13,,,,,5,,,71,100
88320,note_on,,,,,128,0,13,,,,,5,,,72,100
88320,note_on,,,,,64,0,14,,,,,5,,,52,100
88320,note_on,,,,,64,0,10,,,,,2,,,67,91
88320,note_on,,,,,64,0,12,,,,,4,,,40,91
88320,note_on,,,,,64,0,11,,,,,3,,,52,91
88320,note_on,,,,,32,0,9,,,,,1,,,72,91
88384,note_off,,,,,64,0,9,,,,,1,,,72,100
88416,note_on,,,,,32,0,9,,,,,1,,,74,91
88448,note_off,,,,,128,0,14,,,,,5,,,52,100
88448,note_off,,,,,128,0,11,,,,,3,,,52,100
88448,note_off,,,,,128,0,12,,,,,4,,,40,100
88448,note_off,,,,,128,0,10,,,,,2,,,67,100
88480,note_off,,,,,64,0,9,,,,,1,,,74,100
88512,note_on,,,,,64,0,11,,,,,3,,,52,92
88512,note_on,,,,,64,0,14,,,,,5,,,52,100
88512,note_on,,,,,64,0,12,,,,,4,,,40,92
88512,note_on,,,,,32,0,9,,,,,1,,,76,92
88512,note_on,,,,,64,0,10,,,,,2,,,67,92
88576,note_off,,,,,64,0,9,,,,,1,,,76,100
88576,note_off,,,,,0,0,13,,,,,5,,,71,100
88576,note_off,,,,,256,0,13,,,,,5,,,72,100
88608,note_on,,,,,32,0,9,,,,,1,,,78,92
88640,note_off,,,,,128,0,12,,,,,4,,,40,100
88640,note_off,,,,,128,0,11,,,,,3,,,52,100
88640,note_off,,,,,128,0,14,,,,,5,,,52,100
88640,note_off,,,,,128,0,10,,,,,2,,,67,100
88672,note_off,,,,,64,0,9,,,,,1,,,78,100
88704,note_on,,,,,64,0,11,,,,,3,,,52,92
88704,note_on,,,,,32,0,9,,,,,1,,,79,92
88704,note_on,,,,,128,0,13,,,,,5,,,67,100
88704,note_on,,,,,0,0,13,,,,,5,,,71,100
88704,note_on,,,,,64,0,12,,,,,4,,,40,92
88704,note_on,,,,,64,0,10,,,,,2,,,67,92
88704,note_on,,,,,64,0,14,,,,,5,,,52,100
88832,note_off,,,,,128,0,9,,,,,1,,,79,100
88832,note_off,,,,,128,0,14,,,,,5,,,52,100
88832,note_off,,,,,128,0,11,,,,,3,,,52,100
88832,note_off,,,,,128,0,10,,,,,2,,,67,100
88832,note_off,,,,,128,0,12,,,,,4,,,40,100
88896,note_on,,,,,64,0,14,,,,,5,,,52,100
88896,note_on,,,,,64,0,11,,,,,3,,,52,93
88896,note_on,,,,,64,0,9,,,,,1,,,71,93
88896,note_on,,,,,64,0,10,,,,,2,,,67,93
88896,note_on,,,,,64,0,12,,,,,4,,,40,93
88960,note_off,,,,,0,0,13,,,,,5,,,71,100
88960,note_off,,,,,256,0,13,,,,,5,,,67,100
89024,note_off,,,,,128,0,14,,,,,5,,,52,100
89024,note_off,,,,,128,0,11,,,,,3,,,52,100
89024,note_off,,,,,128,0,9,,,,,1,,,71,100
89024,note_off,,,,,128,0,10,,,,,2,,,67,100
89024,note_off,,,,,128,0,12,,,,,4,,,40,100
89088,note_on,,,,,64,0,9,,,,,1,,,71,94
89088,note_on,,,,,128,0,13,,,,,5,,,71,100
89088,note_on,,,,,64,0,11,,,,,3,,,54,94
89088,note_on,,,,,64,0,12,,,,,4,,,42,94
89088,note_on,,,,,64,0,10,,,,,2,,,60,94
89088,note_on,,,,,0,0,13,,,,,5,,,72,100
89088,note_on,,,,,64,0,14,,,,,5,,,54,100
89132,note_off,,,,,44,0,9,,,,,1,,,71,100
89136,note_on,,,,,4,0,9,,,,,1,,,72,94
89180,note_off,,,,,44,0,9,,,,,1,,,72,100
89184,note_on,,,,,4,0,9,,,,,1,,,71,94
89216,note_off,,,,,128,0,12,,,,,4,,,42,100
89216,note_off,,,,,128,0,10,,,,,2,,,60,100
89216,note_off,,,,,128,0,14,,,,,5,,,54,100
89216,note_off,,,,,128,0,11,,,,,3,,,54,100
89216,note_off,,,,,128,0,13,,,,,5,,,71,100
89276,note_off,,,,,92,0,9,,,,,1,,,71,100
89280,note_on,,,,,64,0,14,,,,,5,,,54,100
89280,note_on,,,,,64,0,12,,,,,4,,,42,95
89280,note_on,,,,,64,0,13,,,,,5,,,69,100
89280,note_on,,,,,4,0,9,,,,,1,,,69,95
89280,note_on,,,,,64,0,10,,,,,2,,,60,95
89280,note_on,,,,,64,0,11,,,,,3,,,54,95
89344,note_off,,,,,64,0,13,,,,,5,,,72,100
89408,note_off,,,,,128,0,10,,,,,2,,,60,100
89408,note_off,,,,,64,0,13,,,,,5,,,69,100
89408,note_off,,,,,128,0,12,,,,,4,,,42,100
89408,note_off,,,,,128,0,14,,,,,5,,,54,100
89408,note_off,,,,,128,0,9,,,,,1,,,69,100
89408,note_off,,,,,128,0,11,,,,,3,,,54,100
89472,note_on,,,,,64,0,14,,,,,5,,,54,100
89472,note_on,,,,,64,0,13,,,,,5,,,69,100
89472,note_on,,,,,64,0,12,,,,,4,,,42,96
89472,note_on,,,,,0,0,13,,,,,5,,,72,100
89472,note_on,,,,,64,0,11,,,,,3,,,54,96
89472,note_on,,,,,64,0,10,,,,,2,,,60,96
89568,note_on,,,,,160,0,9,,,,,1,,,69,96
89600,note_off,,,,,128,0,12,,,,,4,,,42,100
89600,note_off,,,,,128,0,14,,,,,5,,,54,100
89600,note_off,,,,,128,0,11,,,,,3,,,54,100
89600,note_off,,,,,128,0,10,,,,,2,,,60,100
89632,note_off,,,,,64,0,9,,,,,1,,,69,100
89664,note_on,,,,,64,0,14,,,,,5,,,54,100
89664,note_on,,,,,64,0,11,,,,,3,,,54,96
89664,note_on,,,,,64,0,10,,,,,2,,,60,96
89664,note_on,,,,,32,0,9,,,,,1,,,71,96
89664,note_on,,,,,64,0,12,,,,,4,,,42,96
89728,note_off,,,,,64,0,9,,,,,1,,,71,100
89728,note_off,,,,,256,0,13,,,,,5,,,69,100
89728,note_off,,,,,0,0,13,,,,,5,,,72,100
89760,note_on,,,,,32,0,9,,,,,1,,,72,97
89792,note_off,,,,,128,0,11,,,,,3,,,54,100
89792,note_off,,,,,128,0,12,,,,,4,,,42,100
89792,note_off,,,,,128,0,14,,,,,5,,,54,100
89792,note_off,,,,,128,0,10,,,,,2,,,60,100
89824,note_off,,,,,64,0,9,,,,,1,,,72,100
89856,note_on,,,,,64,0,11,,,,,3,,,54,97
89856,note_on,,,,,32,0,9,,,,,1,,,74,97
89856,note_on,,,,,0,0,13,,,,,5,,,74,100
89856,note_on,,,,,64,0,10,,,,,2,,,57,97
89856,note_on,,,,,64,0,14,,,,,5,,,54,100
89856,note_on,,,,,64,0,12,,,,,4,,,42,97
89856,note_on,,,,,128,0,13,,,,,5,,,72,100
89920,note_off,,,,,64,0,9,,,,,1,,,74,100
89952,note_on,,,,,32,0,9,,,,,1,,,76,98
89984,note_off,,,,,128,0,14,,,,,5,,,54,100
89984,note_off,,,,,128,0,12,,,,,4,,,42,100
89984,note_off,,,,,128,0,10,,,,,2,,,57,100
89984,note_off,,,,,128,0,11,,,,,3,,,54,100
90016,note_off,,,,,64,0,9,,,,,1,,,76,100
90048,note_on,,,,,32,0,9,,,,,1,,,78,98
90048,note_on,,,,,64,0,14,,,,,5,,,54,100
90048,note_on,,,,,64,0,12,,,,,4,,,42,98
90048,note_on,,,,,64,0,11,,,,,3,,,54,98
90048,note_on,,,,,64,0,10,,,,,2,,,57,98
90112,note_off,,,,,256,0,13,,,,,5,,,72,100
90112,note_off,,,,,64,0,9,,,,,1,,,78,100
90112,note_off,,,,,0,0,13,,,,,5,,,74,100
90144,note_on,,,,,32,0,9,,,,,1,,,79,98
90176,note_off,,,,,128,0,11,,,,,3,,,54,100
90176,note_off,,,,,128,0,12,,,,,4,,,42,100
90176,note_off,,,,,128,0,10,,,,,2,,,57,100
90176,note_off,,,,,128,0,14,,,,,5,,,54,100
90208,note_off,,,,,64,0,9,,,,,1,,,79,100
90240,note_on,,,,,64,0,14,,,,,5,,,54,100
90240,note_on,,,,,64,0,11,,,,,3,,,54,99
90240,note_on,,,,,64,0,10,,,,,2,,,57,99
90240,note_on,,,,,32,0,9,,,,,1,,,81,99
90240,note_on,,,,,64,0,12,,,,,4,,,42,99
90240,note_on,,,,,128,0,13,,,,,5,,,72,100
90368,note_off,,,,,128,0,10,,,,,2,,,57,100
90368,note_off,,,,,128,0,12,,,,,4,,,42,100
90368,note_off,,,,,128,0,14,,,,,5,,,54,100
90368,note_off,,,,,128,0,9,,,,,1,,,81,100
90368,note_off,,,,,128,0,11,,,,,3,,,54,100
90432,note_on,,,,,64,0,12,,,,,4,,,42,99
90432,note_on,,,,,64,0,11,,,,,3,,,54,99
90432,note_on,,,,,64,0,14,,,,,5,,,54,100
90432,note_on,,,,,64,0,9,,,,,1,,,72,99
90432,note_on,,,,,64,0,10,,,,,2,,,57,99
90496,note_off,,,,,256,0,13,,,,,5,,,72,100
90560,note_off,,,,,128,0,12,,,,,4,,,42,100
90560,note_off,,,,,128,0,11,,,,,3,,,54,100
90560,note_off,,,,,128,0,10,,,,,2,,,57,100
90560,note_off,,,,,128,0,9,,,,,1,,,72,100
90560,note_off,,,,,128,0,14,,,,,5,,,54,100
90624,note_on,,,,,64,0,9,,,,,1,,,71,100
90624,note_on,,,,,64,0,10,,,,,2,,,62,100
90624,note_on,,,,,64,0,12,,,,,4,,,43,100
90624,note_on,,,,,128,0,13,,,,,5,,,71,100
90624,note_on,,,,,64,0,14,,,,,5,,,55,100
90624,note_on,,,,,0,0,13,,,,,5,,,74,100
90624,note_on,,,,,64,0,11,,,,,3,,,55,100
90752,note_off,,,,,128,0,13,,,,,5,,,71,100
90752,note_off,,,,,128,0,11,,,,,3,,,55,100
90752,note_off,,,,,128,0,14,,,,,5,,,55,100
90752,note_off,,,,,128,0,12,,,,,4,,,43,100
90752,note_off,,,,,0,0,13,,,,,5,,,74,100
90752,note_off,,,,,128,0,9,,,,,1,,,71,100
90816,note_on,,,,,64,0,13,,,,,5,,,66,100
90816,note_on,,,,,0,0,13,,,,,5,,,71,100
90816,note_on,,,,,64,0,9,,,,,1,,,79,100
90816,note_on,,,,,64,0,14,,,,,5,,,47,100
90816,note_on,,,,,64,0,11,,,,,3,,,47,100
90816,note_on,,,,,64,0,12,,,,,4,,,35,100
90880,note_off,,,,,256,0,10,,,,,2,,,62,100
90880,note_off,,,,,64,0,14,,,,,5,,,47,100
90880,note_off,,,,,64,0,11,,,,,3,,,47,100
90880,note_off,,,,,64,0,12,,,,,4,,,35,100
90912,note_on,,,,,32,0,11,,,,,3,,,48,100
90912,note_on,,,,,32,0,12,,,,,4,,,36,100
90912,note_on,,,,,32,0,14,,,,,5,,,48,100
90944,note_off,,,,,128,0,13,,,,,5,,,66,100
90944,note_off,,,,,0,0,13,,,,,5,,,71,100
90944,note_off,,,,,128,0,9,,,,,1,,,79,100
90976,note_off,,,,,64,0,14,,,,,5,,,48,100
90976,note_off,,,,,64,0,12,,,,,4,,,36,100
90976,note_off,,,,,64,0,11,,,,,3,,,48,100
91008,note_on,,,,,32,0,12,,,,,4,,,38,100
91008,note_on,,,,,128,0,10,,,,,2,,,69,100
91008,note_on,,,,,0,0,10,,,,,2,,,62,100
91008,note_on,,,,,32,0,14,,,,,5,,,50,100
91008,note_on,,,,,0,0,13,,,,,5,,,67,100
91008,note_on,,,,,64,0,9,,,,,1,,,69,100
91008,note_on,,,,,64,0,13,,,,,5,,,69,100
91008,note_on,,,,,32,0,11,,,,,3,,,50,100
91136,note_off,,,,,128,0,13,,,,,5,,,67,100
91136,note_off,,,,,128,0,12,,,,,4,,,38,100
91136,note_off,,,,,128,0,14,,,,,5,,,50,100
91136,note_off,,,,,128,0,11,,,,,3,,,50,100
91136,note_off,,,,,128,0,9,,,,,1,,,69,100
91200,note_on,,,,,64,0,14,,,,,5,,,38,100
91200,note_on,,,,,64,0,9,,,,,1,,,78,100
91200,note_on,,,,,64,0,12,,,,,4,,,38,100
91200,note_on,,,,,64,0,11,,,,,3,,,38,100
91200,note_on,,,,,64,0,13,,,,,5,,,66,100
91264,note_off,,,,,256,0,10,,,,,2,,,69,100
91264,note_off,,,,,0,0,10,,,,,2,,,62,100
91264,note_off,,,,,64,0,13,,,,,5,,,69,100
91328,note_off,,,,,128,0,14,,,,,5,,,38,100
91328,note_off,,,,,64,0,13,,,,,5,,,66,100
91328,note_off,,,,,128,0,9,,,,,1,,,78,100
91328,note_off,,,,,128,0,11,,,,,3,,,38,100
91328,note_off,,,,,128,0,12,,,,,4,,,38,100
91392,note_on,,,,,64,0,14,,,,,5,,,43,100
91392,note_on,,,,,64,0,12,,,,,4,,,43,100
91392,note_on,,,,,0,0,10,,,,,2,,,62,100
91392,note_on,,,,,128,0,10,,,,,2,,,71,100
91392,note_on,,,,,0,0,13,,,,,5,,,67,100
91392,note_on,,,,,64,0,13,,,,,5,,,62,100
91392,note_on,,,,,64,0,11,,,,,3,,,43,100
91392,note_on,,,,,64,0,9,,,,,1,,,79,100
91392,note_on,,,,,0,0,13,,,,,5,,,59,100
91520,note_off,,,,,128,0,9,,,,,1,,,79,100
91584,note_on,,,,,64,0,9,,,,,1,,,78,85
91648,note_off,,,,,256,0,13,,,,,5,,,62,100
91648,note_off,,,,,0,0,13,,,,,5,,,59,100
91648,note_off,,,,,0,0,13,,,,,5,,,67,100
91648,note_off,,,,,256,0,14,,,,,5,,,43,100
91648,note_off,,,,,64,0,9,,,,,1,,,78,100
91648,note_off,,,,,256,0,11,,,,,3,,,43,100
91648,note_off,,,,,256,0,10,,,,,2,,,71,100
91648,note_off,,,,,0,0,10,,,,,2,,,62,100
91648,note_off,,,,,256,0,12,,,,,4,,,43,100
91680,note_on,,,,,32,0,9,,,,,1,,,76,85
91744,note_off,,,,,64,0,9,,,,,1,,,76,100
91776,note_on,,,,,32,0,9,,,,,1,,,74,85
91904,note_off,,,,,128,0,9,,,,,1,,,74,100
91968,note_on,,,,,64,0,9,,,,,1,,,72,85
92096,note_off,,,,,128,0,9,,,,,1,,,72,100
92160,note_on,,,,,0,0,13,,,,,5,,,62,100
92160,note_on,,,,,512,0,13,,,,,5,,,59,100
92160,note_on,,,,,512,0,14,,,,,5,,,43,100
92160,note_on,,,,,512,0,10,,,,,2,,,62,85
92160,note_on,,,,,64,0,9,,,,,1,,,71,85
92160,note_on,,,,,512,0,12,,,,,4,,,43,85
92160,note_on,,,,,512,0,11,,,,,3,,,43,85
92288,note_off,,,,,128,0,9,,,,,1,,,71,100
92352,note_on,,,,,64,0,9,,,,,1,,,67,85
92416,note_off,,,,,256,0,11,,,,,3,,,43,100
92416,note_off,,,,,0,0,13,,,,,5,,,62,100
92416,note_off,,,,,256,0,12,,,,,4,,,43,100
92416,note_off,,,,,256,0,14,,,,,5,,,43,100
92416,note_off,,,,,256,0,13,,,,,5,,,59,100
92416,note_off,,,,,256,0,10,,,,,2,,,62,100
92480,note_off,,,,,128,0,9,,,,,1,,,67,100
92544,note_on,,,,,64,0,9,,,,,1,,,71,85
92672,note_off,,,,,128,0,9,,,,,1,,,71,100
92736,note_on,,,,,64,0,9,,,,,1,,,74,85
92864,note_off,,,,,128,0,9,,,,,1,,,74,100
92928,note_on,,,,,64,0,9,,,,,1,,,79,85
92928,note_on,,,,,512,0,12,,,,,4,,,43,85
92928,note_on,,,,,0,0,13,,,,,5,,,71,100
92928,note_on,,,,,512,0,14,,,,,5,,,55,100
92928,note_on,,,,,0,0,13,,,,,5,,,74,100
92928,note_on,,,,,512,0,13,,,,,5,,,67,100
92928,note_on,,,,,512,0,11,,,,,3,,,55,85
92928,note_on,,,,,512,0,10,,,,,2,,,62,85
93184,note_off,,,,,256,0,13,,,,,5,,,67,100
93184,note_off,,,,,256,0,14,,,,,5,,,55,100
93184,note_off,,,,,256,0,12,,,,,4,,,43,100
93184,note_off,,,,,256,0,11,,,,,3,,,55,100
93184,note_off,,,,,0,0,13,,,,,5,,,74,100
93184,note_off,,,,,256,0,10,,,,,2,,,62,100
93184,note_off,,,,,256,0,9,,,,,1,,,79,100
93184,note_off,,,,,0,0,13,,,,,5,,,71,100
93312,note_on,,,,,128,0,12,,,,,4,,,38,85
93312,note_on,,,,,128,0,11,,,,,3,,,50,85
93312,note_on,,,,,128,0,10,,,,,2,,,62,85
93312,note_on,,,,,128,0,14,,,,,5,,,50,100
93312,note_on,,,,,0,0,13,,,,,5,,,66,100
93312,note_on,,,,,0,0,13,,,,,5,,,69,100
93312,note_on,,,,,128,0,13,,,,,5,,,74,100
93312,note_on,,,,,128,0,9,,,,,1,,,78,85
93312,note_on,,,,,0,0,9,,,,,1,,,81,85
93568,note_off,,,,,256,0,14,,,,,5,,,50,100
93568,note_off,,,,,256,0,11,,,,,3,,,50,100
93568,note_off,,,,,256,0,12,,,,,4,,,38,100
93568,note_off,,,,,256,0,9,,,,,1,,,78,100
93568,note_off,,,,,0,0,9,,,,,1,,,81,100
93568,note_off,,,,,256,0,10,,,,,2,,,62,100
93568,note_off,,,,,256,0,13,,,,,5,,,74,100
93568,note_off,,,,,0,0,13,,,,,5,,,66,100
93568,note_off,,,,,0,0,13,,,,,5,,,69,100
93696,note_on,,,,,128,0,9,,,,,1,,,83,85
93696,note_on,,,,,0,0,13,,,,,5,,,71,100
93696,note_on,,,,,128,0,14,,,,,5,,,55,100
93696,note_on,,,,,0,0,13,,,,,5,,,74,100
93696,note_on,,,,,128,0,11,,,,,3,,,55,85
93696,note_on,,,,,128,0,12,,,,,4,,,43,85
93696,note_on,,,,,0,0,9,,,,,1,,,79,85
93696,note_on,,,,,128,0,10,,,,,2,,,62,85
93696,note_on,,,,,128,0,13,,,,,5,,,67,100
93824,note_off,,,,,128,0,9,,,,,1,,,83,100
93888,note_on,,,,,64,0,9,,,,,1,,,81,85
93952,note_off,,,,,256,0,11,,,,,3,,,55,100
93952,note_off,,,,,256,0,10,,,,,2,,,62,100
93952,note_off,,,,,256,0,14,,,,,5,,,55,100
93952,note_off,,,,,256,0,12,,,,,4,,,43,100
93952,note_off,,,,,0,0,13,,,,,5,,,74,100
93952,note_off,,,,,256,0,13,,,,,5,,,67,100
93952,note_off,,,,,64,0,9,,,,,1,,,79,100
93952,note_off,,,,,0,0,9,,,,,1,,,81,100
93952,note_off,,,,,0,0,13,,,,,5,,,71,100
93984,note_on,,,,,32,0,9,,,,,1,,,83,85
94048,note_off,,,,,64,0,9,,,,,1,,,83,100
94080,note_on,,,,,32,0,9,,,,,1,,,79,85
94336,note_off,,,,,256,0,9,,,,,1,,,79,100
94464,note_on,,,,,128,0,9,,,,,1,,,79,100
94464,note_on,,,,,512,0,13,,,,,5,,,71,100
94464,note_on,,,,,0,0,13,,,,,5,,,74,100
94464,note_on,,,,,0,0,10,,,,,2,,,62,100
94464,note_on,,,,,512,0,10,,,,,2,,,59,100
94464,set_tempo,,,,,94464,1,0,,468750,,,,,,,
94464,note_on,,,,,512,0,11,,,,,3,,,55,100
94464,note_on,,,,,512,0,14,,,,,5,,,55,100
94464,note_on,,,,,512,0,12,,,,,4,,,43,100
94592,note_off,,,,,128,0,9,,,,,1,,,79,100
94596,set_tempo,,,,,132,1,0,,472440,,,,,,,
94656,note_on,,,,,64,0,9,,,,,1,,,78,101
94720,note_off,,,,,256,0,13,,,,,5,,,71,100
94720,note_off,,,,,0,0,13,,,,,5,,,74,100
94720,note_off,,,,,256,0,11,,,,,3,,,55,100
94720,note_off,,,,,64,0,9,,,,,1,,,78,100
94720,note_off,,,,,256,0,12,,,,,4,,,43,100
94720,note_off,,,,,0,0,10,,,,,2,,,62,100
94720,note_off,,,,,256,0,10,,,,,2,,,59,100
94720,note_off,,,,,256,0,14,,,,,5,,,55,100
94732,set_tempo,,,,,136,1,0,,476190,,,,,,,
94752,note_on,,,,,32,0,9,,,,,1,,,76,101
94816,note_off,,,,,64,0,9,,,,,1,,,76,100
94848,note_on,,,,,32,0,9,,,,,1,,,74,102
94864,set_tempo,,,,,132,1,0,,480000,,,,,,,
94976,note_off,,,,,128,0,9,,,,,1,,,74,100
95000,set_tempo,,,,,136,1,0,,483870,,,,,,,
95040,note_on,,,,,64,0,9,,,,,1,,,72,103
95136,set_tempo,,,,,136,1,0,,487804,,,,,,,
95168,note_off,,,,,128,0,9,,,,,1,,,72,100
95232,note_on,,,,,512,0,12,,,,,4,,,43,104
95232,note_on,,,,,0,0,13,,,,,5,,,74,100
95232,note_on,,,,,512,0,11,,,,,3,,,55,104
95232,note_on,,,,,512,0,10,,,,,2,,,62,104
95232,note_on,,,,,512,0,13,,,,,5,,,71,100
95232,note_on,,,,,64,0,9,,,,,1,,,71,104
95232,note_on,,,,,512,0,14,,,,,5,,,55,100
95308,set_tempo,,,,,172,1,0,,495867,,,,,,,
95360,note_off,,,,,128,0,9,,,,,1,,,71,100
95384,set_tempo,,,,,76,1,0,,500000,,,,,,,
95424,note_on,,,,,64,0,9,,,,,1,,,74,106
95460,set_tempo,,,,,76,1,0,,504201,,,,,,,
95488,note_off,,,,,256,0,11,,,,,3,,,55,100
95488,note_off,,,,,0,0,13,,,,,5,,,74,100
95488,note_off,,,,,256,0,12,,,,,4,,,43,100
95488,note_off,,,,,256,0,14,,,,,5,,,55,100
95488,note_off,,,,,256,0,10,,,,,2,,,62,100
95488,note_off,,,,,256,0,13,,,,,5,,,71,100
95536,set_tempo,,,,,76,1,0,,508474,,,,,,,
95552,note_off,,,,,128,0,9,,,,,1,,,74,100
95616,note_on,,,,,64,0,9,,,,,1,,,79,107
95616,set_tempo,,,,,80,1,0,,512820,,,,,,,
95692,set_tempo,,,,,76,1,0,,517241,,,,,,,
95744,note_off,,,,,128,0,9,,,,,1,,,79,100
95768,set_tempo,,,,,76,1,0,,521739,,,,,,,
95808,note_on,,,,,320,0,14,,,,,5,,,47,100
95808,note_on,,,,,320,0,11,,,,,3,,,47,108
95808,note_on,,,,,0,0,13,,,,,5,,,62,100
95808,note_on,,,,,0,0,10,,,,,2,,,67,108
95808,note_on,,,,,320,0,10,,,,,2,,,62,108
95808,note_on,,,,,320,0,13,,,,,5,,,66,100
95808,note_on,,,,,64,0,9,,,,,1,,,71,108
95808,note_on,,,,,320,0,12,,,,,4,,,35,108
95844,set_tempo,,,,,76,1,0,,526315,,,,,,,
95920,set_tempo,,,,,76,1,0,,530973,,,,,,,
95936,note_off,,,,,128,0,12,,,,,4,,,35,100
95936,note_off,,,,,0,0,13,,,,,5,,,62,100
95936,note_off,,,,,128,0,13,,,,,5,,,66,100
95936,note_off,,,,,128,0,11,,,,,3,,,47,100
95936,note_off,,,,,128,0,14,,,,,5,,,47,100
95936,note_off,,,,,0,0,10,,,,,2,,,67,100
95936,note_off,,,,,128,0,10,,,,,2,,,62,100
95936,note_off,,,,,128,0,9,,,,,1,,,71,100
96000,note_on,,,,,0,0,10,,,,,2,,,69,109
96000,note_on,,,,,64,0,12,,,,,4,,,36,109
96000,note_on,,,,,64,0,13,,,,,5,,,67,100
96000,note_on,,,,,64,0,11,,,,,3,,,48,109
96000,note_on,,,,,64,0,10,,,,,2,,,64,109
96000,note_on,,,,,64,0,9,,,,,1,,,69,109
96000,note_on,,,,,0,0,13,,,,,5,,,69,100
96000,note_on,,,,,64,0,14,,,,,5,,,48,100
96000,set_tempo,,,,,80,1,0,,535714,,,,,,,
96036,set_tempo,,,,,36,1,0,,540540,,,,,,,
96076,set_tempo,,,,,40,1,0,,545454,,,,,,,
96112,set_tempo,,,,,36,1,0,,550458,,,,,,,
96128,note_off,,,,,128,0,9,,,,,1,,,69,100
96152,set_tempo,,,,,40,1,0,,555555,,,,,,,
96192,note_on,,,,,64,0,9,,,,,1,,,79,111
96192,set_tempo,,,,,40,1,0,,560747,,,,,,,
96228,set_tempo,,,,,36,1,0,,566037,,,,,,,
96256,note_off,,,,,256,0,13,,,,,5,,,67,100
96256,note_off,,,,,256,0,11,,,,,3,,,48,100
96256,note_off,,,,,256,0,12,,,,,4,,,36,100
96256,note_off,,,,,0,0,13,,,,,5,,,69,100
96256,note_off,,,,,256,0,14,,,,,5,,,48,100
96256,note_off,,,,,256,0,10,,,,,2,,,64,100
96256,note_off,,,,,0,0,10,,,,,2,,,69,100
96268,set_tempo,,,,,40,1,0,,571428,,,,,,,
96304,set_tempo,,,,,36,1,0,,576923,,,,,,,
96320,note_off,,,,,128,0,9,,,,,1,,,79,100
96344,set_tempo,,,,,40,1,0,,582524,,,,,,,
96384,note_on,,,,,128,0,13,,,,,5,,,66,100
96384,note_on,,,,,0,0,10,,,,,2,,,69,112
96384,note_on,,,,,128,0,12,,,,,4,,,38,112
96384,note_on,,,,,0,0,13,,,,,5,,,69,100
96384,note_on,,,,,128,0,10,,,,,2,,,62,112
96384,note_on,,,,,128,0,14,,,,,5,,,50,100
96384,note_on,,,,,64,0,9,,,,,1,,,62,112
96384,note_on,,,,,128,0,11,,,,,3,,,50,112
96384,set_tempo,,,,,40,1,0,,588235,,,,,,,
96400,set_tempo,,,,,16,1,0,,594059,,,,,,,
96416,set_tempo,,,,,16,1,0,,600000,,,,,,,
96432,set_tempo,,,,,16,1,0,,606060,,,,,,,
96448,set_tempo,,,,,16,1,0,,612244,,,,,,,
96464,set_tempo,,,,,16,1,0,,618556,,,,,,,
96480,set_tempo,,,,,16,1,0,,625000,,,,,,,
96496,set_tempo,,,,,16,1,0,,631578,,,,,,,
96512,note_off,,,,,128,0,9,,,,,1,,,62,100
96512,set_tempo,,,,,16,1,0,,638297,,,,,,,
96528,set_tempo,,,,,16,1,0,,645161,,,,,,,
96544,set_tempo,,,,,16,1,0,,652173,,,,,,,
96560,set_tempo,,,,,16,1,0,,659340,,,,,,,
96576,set_tempo,,,,,16,1,0,,666666,,,,,,,
96576,note_on,,,,,64,0,9,,,,,1,,,78,113
96588,set_tempo,,,,,12,1,0,,674157,,,,,,,
96600,set_tempo,,,,,12,1,0,,681818,,,,,,,
96612,set_tempo,,,,,12,1,0,,689655,,,,,,,
96624,set_tempo,,,,,12,1,0,,697674,,,,,,,
96640,note_off,,,,,0,0,13,,,,,5,,,69,100
96640,note_off,,,,,256,0,12,,,,,4,,,38,100
96640,note_off,,,,,0,0,10,,,,,2,,,69,100
96640,note_off,,,,,256,0,10,,,,,2,,,62,100
96640,set_tempo,,,,,16,1,0,,705882,,,,,,,
96640,note_off,,,,,256,0,11,,,,,3,,,50,100
96640,note_off,,,,,256,0,13,,,,,5,,,66,100
96640,note_off,,,,,256,0,14,,,,,5,,,50,100
96652,set_tempo,,,,,12,1,0,,714285,,,,,,,
96664,set_tempo,,,,,12,1,0,,722891,,,,,,,
96676,set_tempo,,,,,12,1,0,,731707,,,,,,,
96688,set_tempo,,,,,12,1,0,,740740,,,,,,,
96704,note_off,,,,,128,0,9,,,,,1,,,78,100
96704,set_tempo,,,,,16,1,0,,750000,,,,,,,
96716,set_tempo,,,,,12,1,0,,759493,,,,,,,
96728,set_tempo,,,,,12,1,0,,769230,,,,,,,
96740,set_tempo,,,,,12,1,0,,779220,,,,,,,
96752,set_tempo,,,,,12,1,0,,789473,,,,,,,
96768,note_on,,,,,0,0,10,,,,,2,,,62,114
96768,note_on,,,,,128,0,10,,,,,2,,,71,114
96768,note_on,,,,,128,0,14,,,,,5,,,43,100
96768,set_tempo,,,,,16,1,0,,800000,,,,,,,
96768,note_on,,,,,64,0,9,,,,,1,,,79,114
96768,note_on,,,,,128,0,12,,,,,4,,,31,114
96768,end_of_track,,,,,0,1,0,,,,,,,,,
96768,note_on,,,,,128,0,11,,,,,3,,,43,114
96780,note_on,,,,,140,0,13,,,,,5,,,59,100
96812,note_on,,,,,32,0,13,,,,,5,,,62,100
96844,note_on,,,,,32,0,13,,,,,5,,,67,100
97796,note_off,,,,,1028,0,12,,,,,4,,,31,100
97796,end_of_track,,,,,0,1,12,,,,,,,,,
97796,note_off,,,,,1028,0,14,,,,,5,,,43,100
97796,note_off,,,,,1028,0,10,,,,,2,,,71,100
97796,note_off,,,,,0,0,10,,,,,2,,,62,100
97796,end_of_track,,,,,0,1,10,,,,,,,,,
97796,note_off,,,,,1028,0,11,,,,,3,,,43,100
97796,end_of_track,,,,,0,1,11,,,,,,,,,
97796,note_off,,,,,1028,0,9,,,,,1,,,79,100
97796,end_of_track,,,,,0,1,14,,,,,,,,,
97808,note_off,,,,,964,0,13,,,,,5,,,59,100
97840,note_off,,,,,32,0,13,,,,,5,,,62,100
97872,end_of_track,,,,,0,1,13,,,,,,,,,
97872,note_off,,,,,32,0,13,,,,,5,,,67,100
99456,program_change,,,,,1660,0,9,,,,,1,48,,,
99456,end_of_track,,,,,0,1,9,,,,,,,,,
