tick,type,numerator,denominator,clocks_per_click,notated_32nd_notes_per_beat,time,meta,track,data,tempo,control,value,channel,program,key,note,velocity
0,time_signature,3,4,96,8,0,1,0,,,,,,,,,
0,end_of_track,,,,,0,1,6,,,,,,,,,
0,track_name,,,,,0,1,7,,,,,,,,,
0,control_change,,,,,0,0,7,,,0,0,0,,,,
0,program_change,,,,,0,0,7,,,,,0,48,,,
0,control_change,,,,,0,0,7,,,7,100,0,,,,
0,control_change,,,,,0,0,7,,,10,57,0,,,,
0,control_change,,,,,0,0,7,,,91,65,0,,,,
0,key_signature,,,,,0,1,7,,,,,,,F,,
0,note_on,,,,,0,0,7,,,,,0,,,77,80
0,note_on,,,,,0,0,15,,,,,7,,,53,100
0,key_signature,,,,,0,1,15,,,,,,,F,,
0,control_change,,,,,0,0,15,,,91,64,7,,,,
0,control_change,,,,,0,0,15,,,10,64,7,,,,
0,control_change,,,,,0,0,15,,,7,55,7,,,,
0,program_change,,,,,0,0,15,,,,,7,6,,,
0,control_change,,,,,0,0,15,,,0,0,7,,,,
0,track_name,,,,,0,1,15,,,,,,,,,
0,note_on,,,,,0,0,14,,,,,7,,,72,100
0,note_on,,,,,0,0,14,,,,,7,,,69,100
0,key_signature,,,,,0,1,14,,,,,,,F,,
0,control_change,,,,,0,0,14,,,91,64,7,,,,
0,key_signature,,,,,0,1,6,,,,,,,F,,
0,control_change,,,,,0,0,6,,,91,65,0,,,,
0,control_change,,,,,0,0,6,,,10,57,0,,,,
0,control_change,,,,,0,0,6,,,7,100,0,,,,
0,program_change,,,,,0,0,3,,,,,0,48,,,
0,key_signature,,,,,0,1,3,,,,,,,F,,
0,end_of_track,,,,,0,1,3,,,,,,,,,
0,track_name,,,,,0,1,4,,,,,,,,,
0,control_change,,,,,0,0,4,,,0,0,0,,,,
0,program_change,,,,,0,0,4,,,,,0,48,,,
0,control_change,,,,,0,0,4,,,7,100,0,,,,
0,control_change,,,,,0,0,4,,,10,57,0,,,,
0,control_change,,,,,0,0,4,,,91,65,0,,,,
0,key_signature,,,,,0,1,4,,,,,,,F,,
0,control_change,,,,,0,0,14,,,10,64,7,,,,
0,end_of_track,,,,,0,1,4,,,,,,,,,
0,control_change,,,,,0,0,5,,,0,0,0,,,,
0,program_change,,,,,0,0,5,,,,,0,48,,,
0,control_change,,,,,0,0,5,,,7,100,0,,,,
0,control_change,,,,,0,0,5,,,10,57,0,,,,
0,control_change,,,,,0,0,5,,,91,65,0,,,,
0,key_signature,,,,,0,1,5,,,,,,,F,,
0,end_of_track,,,,,0,1,5,,,,,,,,,
0,track_name,,,,,0,1,6,,,,,,,,,
0,control_change,,,,,0,0,6,,,0,0,0,,,,
0,program_change,,,,,0,0,6,,,,,0,48,,,
0,track_name,,,,,0,1,5,,,,,,,,,
0,control_change,,,,,0,0,14,,,7,55,7,,,,
0,program_change,,,,,0,0,14,,,,,7,6,,,
0,control_change,,,,,0,0,14,,,0,0,7,,,,
0,track_name,,,,,0,1,9,,,,,,,,,
0,control_change,,,,,0,0,9,,,0,0,2,,,,
0,program_change,,,,,0,0,9,,,,,2,48,,,
0,control_change,,,,,0,0,9,,,7,100,2,,,,
0,control_change,,,,,0,0,9,,,10,55,2,,,,
0,control_change,,,,,0,0,9,,,91,65,2,,,,
0,key_signature,,,,,0,1,9,,,,,,,F,,
0,note_on,,,,,0,0,9,,,,,2,,,77,20
0,note_on,,,,,0,0,11,,,,,4,,,72,70
0,note_on,,,,,0,0,11,,,,,4,,,69,70
0,track_name,,,,,0,1,12,,,,,,,,,
0,key_signature,,,,,0,1,11,,,,,,,F,,
0,control_change,,,,,0,0,11,,,7,96,4,,,,
0,program_change,,,,,0,0,11,,,,,4,48,,,
0,control_change,,,,,0,0,11,,,0,0,4,,,,
0,track_name,,,,,0,1,11,,,,,,,,,
0,note_on,,,,,0,0,10,,,,,3,,,77,20
0,key_signature,,,,,0,1,10,,,,,,,F,,
0,control_change,,,,,0,0,10,,,91,63,3,,,,
0,control_change,,,,,0,0,10,,,10,42,3,,,,
0,control_change,,,,,0,0,10,,,7,100,3,,,,
0,program_change,,,,,0,0,10,,,,,3,48,,,
0,control_change,,,,,0,0,11,,,91,67,4,,,,
0,control_change,,,,,0,0,3,,,91,65,0,,,,
0,control_change,,,,,0,0,12,,,0,0,5,,,,
0,control_change,,,,,0,0,12,,,7,82,5,,,,
0,track_name,,,,,0,1,14,,,,,,,,,
0,control_change,,,,,0,0,10,,,0,0,3,,,,
0,track_name,,,,,0,1,8,,,,,,,,,
0,control_change,,,,,0,0,8,,,0,0,1,,,,
0,program_change,,,,,0,0,8,,,,,1,48,,,
0,control_change,,,,,0,0,8,,,7,100,1,,,,
0,control_change,,,,,0,0,8,,,10,41,1,,,,
0,control_change,,,,,0,0,8,,,91,60,1,,,,
0,key_signature,,,,,0,1,8,,,,,,,F,,
0,note_on,,,,,0,0,8,,,,,1,,,77,80
0,program_change,,,,,0,0,12,,,,,5,48,,,
0,note_on,,,,,0,0,13,,,,,6,,,41,70
0,control_change,,,,,0,0,13,,,91,63,6,,,,
0,control_change,,,,,0,0,13,,,10,90,6,,,,
0,control_change,,,,,0,0,13,,,7,77,6,,,,
0,program_change,,,,,0,0,13,,,,,6,48,,,
0,control_change,,,,,0,0,13,,,0,0,6,,,,
0,track_name,,,,,0,1,13,,,,,,,,,
0,note_on,,,,,0,0,12,,,,,5,,,53,70
0,key_signature,,,,,0,1,12,,,,,,,F,,
0,control_change,,,,,0,0,12,,,91,63,5,,,,
0,control_change,,,,,0,0,12,,,10,84,5,,,,
0,key_signature,,,,,0,1,13,,,,,,,F,,
0,control_change,,,,,0,0,3,,,10,57,0,,,,
0,track_name,,,,,0,1,10,,,,,,,,,
0,control_change,,,,,0,0,3,,,0,0,0,,,,
0,track_name,,,,,0,1,3,,,,,,,,,
0,end_of_track,,,,,0,1,2,,,,,,,,,
0,track_name,,,,,0,1,2,,,,,,,,,
0,end_of_track,,,,,0,1,1,,,,,,,,,
0,track_name,,,,,0,1,1,,,,,,,,,
0,sequencer_specific,,,,,0,1,0,"(0, 0, 65)",,,,,,,,
0,sequencer_specific,,,,,0,1,0,"(0, 0, 119, 14, 1)",,,,,,,,
0,set_tempo,,,,,0,1,0,,638297,,,,,,,
0,control_change,,,,,0,0,3,,,7,100,0,,,,
256,note_off,,,,,256,0,9,,,,,2,,,77,100
256,note_off,,,,,256,0,8,,,,,1,,,77,100
256,note_off,,,,,256,0,7,,,,,0,,,77,100
256,note_off,,,,,256,0,10,,,,,3,,,77,100
384,note_on,,,,,128,0,8,,,,,1,,,65,70
384,note_on,,,,,128,0,9,,,,,2,,,65,20
384,note_on,,,,,128,0,7,,,,,0,,,65,70
384,note_on,,,,,128,0,10,,,,,3,,,65,20
512,note_off,,,,,0,0,11,,,,,4,,,72,100
512,note_off,,,,,512,0,11,,,,,4,,,69,100
512,note_off,,,,,512,0,12,,,,,5,,,53,100
512,note_off,,,,,512,0,13,,,,,6,,,41,100
512,note_off,,,,,512,0,15,,,,,7,,,53,100
512,note_off,,,,,512,0,14,,,,,7,,,69,100
512,note_off,,,,,0,0,14,,,,,7,,,72,100
640,note_off,,,,,256,0,8,,,,,1,,,65,100
640,note_off,,,,,256,0,10,,,,,3,,,65,100
640,note_off,,,,,256,0,9,,,,,2,,,65,100
640,note_off,,,,,256,0,7,,,,,0,,,65,100
1056,note_on,,,,,544,0,13,,,,,6,,,41,70
1056,note_on,,,,,0,0,14,,,,,7,,,72,100
1056,note_on,,,,,416,0,8,,,,,1,,,77,83
1056,note_on,,,,,416,0,9,,,,,2,,,77,20
1056,note_on,,,,,416,0,7,,,,,0,,,77,83
1056,note_on,,,,,544,0,15,,,,,7,,,53,100
1056,note_on,,,,,544,0,14,,,,,7,,,69,100
1056,note_on,,,,,544,0,12,,,,,5,,,53,70
1056,note_on,,,,,0,0,11,,,,,4,,,72,70
1056,note_on,,,,,544,0,11,,,,,4,,,69,70
1056,note_on,,,,,416,0,10,,,,,3,,,77,20
1120,note_off,,,,,64,0,11,,,,,4,,,69,100
1120,note_off,,,,,0,0,14,,,,,7,,,72,100
1120,note_off,,,,,64,0,14,,,,,7,,,69,100
1120,note_off,,,,,64,0,10,,,,,3,,,77,100
1120,note_off,,,,,64,0,8,,,,,1,,,77,100
1120,note_off,,,,,64,0,15,,,,,7,,,53,100
1120,note_off,,,,,0,0,11,,,,,4,,,72,100
1120,note_off,,,,,64,0,12,,,,,5,,,53,100
1120,note_off,,,,,64,0,9,,,,,2,,,77,100
1120,note_off,,,,,64,0,13,,,,,6,,,41,100
1120,note_off,,,,,64,0,7,,,,,0,,,77,100
1152,note_on,,,,,0,0,11,,,,,4,,,72,70
1152,note_on,,,,,32,0,8,,,,,1,,,76,81
1152,note_on,,,,,32,0,13,,,,,6,,,36,70
1152,note_on,,,,,32,0,9,,,,,2,,,79,20
1152,note_on,,,,,32,0,15,,,,,7,,,48,100
1152,note_on,,,,,32,0,12,,,,,5,,,48,70
1152,note_on,,,,,32,0,11,,,,,4,,,67,70
1152,note_on,,,,,32,0,10,,,,,3,,,76,20
1152,note_on,,,,,0,0,14,,,,,7,,,67,100
1152,note_on,,,,,32,0,14,,,,,7,,,64,100
1152,note_on,,,,,32,0,7,,,,,0,,,79,81
1408,note_off,,,,,256,0,9,,,,,2,,,79,100
1408,note_off,,,,,256,0,8,,,,,1,,,76,100
1408,note_off,,,,,256,0,7,,,,,0,,,79,100
1408,note_off,,,,,256,0,10,,,,,3,,,76,100
1536,note_on,,,,,128,0,7,,,,,0,,,64,71
1536,note_on,,,,,128,0,10,,,,,3,,,60,20
1536,note_on,,,,,128,0,9,,,,,2,,,64,20
1536,note_on,,,,,128,0,8,,,,,1,,,60,71
1664,note_off,,,,,512,0,11,,,,,4,,,67,100
1664,note_off,,,,,0,0,11,,,,,4,,,72,100
1664,note_off,,,,,512,0,15,,,,,7,,,48,100
1664,note_off,,,,,512,0,14,,,,,7,,,64,100
1664,note_off,,,,,512,0,13,,,,,6,,,36,100
1664,note_off,,,,,0,0,14,,,,,7,,,67,100
1664,note_off,,,,,512,0,12,,,,,5,,,48,100
1792,note_off,,,,,256,0,8,,,,,1,,,60,100
1792,note_off,,,,,256,0,10,,,,,3,,,60,100
1792,note_off,,,,,256,0,7,,,,,0,,,64,100
1792,note_off,,,,,256,0,9,,,,,2,,,64,100
2208,note_on,,,,,0,0,11,,,,,4,,,72,70
2208,note_on,,,,,416,0,8,,,,,1,,,76,83
2208,note_on,,,,,544,0,12,,,,,5,,,48,70
2208,note_on,,,,,544,0,15,,,,,7,,,48,100
2208,note_on,,,,,416,0,7,,,,,0,,,79,83
2208,note_on,,,,,544,0,13,,,,,6,,,36,70
2208,note_on,,,,,544,0,11,,,,,4,,,67,70
2208,note_on,,,,,416,0,10,,,,,3,,,76,20
2208,note_on,,,,,0,0,14,,,,,7,,,64,100
2208,note_on,,,,,544,0,14,,,,,7,,,67,100
2208,note_on,,,,,416,0,9,,,,,2,,,79,20
2272,note_off,,,,,64,0,11,,,,,4,,,67,100
2272,note_off,,,,,64,0,14,,,,,7,,,67,100
2272,note_off,,,,,64,0,10,,,,,3,,,76,100
2272,note_off,,,,,64,0,15,,,,,7,,,48,100
2272,note_off,,,,,0,0,14,,,,,7,,,64,100
2272,note_off,,,,,64,0,8,,,,,1,,,76,100
2272,note_off,,,,,64,0,12,,,,,5,,,48,100
2272,note_off,,,,,64,0,9,,,,,2,,,79,100
2272,note_off,,,,,64,0,13,,,,,6,,,36,100
2272,note_off,,,,,64,0,7,,,,,0,,,79,100
2272,note_off,,,,,0,0,11,,,,,4,,,72,100
2304,note_on,,,,,32,0,13,,,,,6,,,41,70
2304,note_on,,,,,32,0,15,,,,,7,,,53,100
2304,note_on,,,,,0,0,14,,,,,7,,,72,100
2304,note_on,,,,,32,0,14,,,,,7,,,69,100
2304,note_on,,,,,32,0,10,,,,,3,,,77,20
2304,note_on,,,,,32,0,12,,,,,5,,,53,70
2304,note_on,,,,,0,0,11,,,,,4,,,72,70
2304,note_on,,,,,32,0,7,,,,,0,,,81,81
2304,note_on,,,,,32,0,11,,,,,4,,,65,70
2304,note_on,,,,,32,0,9,,,,,2,,,81,20
2304,note_on,,,,,32,0,8,,,,,1,,,77,81
2560,note_off,,,,,256,0,7,,,,,0,,,81,100
2560,note_off,,,,,256,0,8,,,,,1,,,77,100
2560,note_off,,,,,256,0,9,,,,,2,,,81,100
2560,note_off,,,,,256,0,10,,,,,3,,,77,100
2688,note_on,,,,,128,0,8,,,,,1,,,69,71
2688,note_on,,,,,128,0,9,,,,,2,,,65,20
2688,note_on,,,,,128,0,10,,,,,3,,,69,20
2688,note_on,,,,,128,0,7,,,,,0,,,65,71
2816,note_off,,,,,512,0,12,,,,,5,,,53,100
2816,note_off,,,,,512,0,14,,,,,7,,,69,100
2816,note_off,,,,,512,0,15,,,,,7,,,53,100
2816,note_off,,,,,0,0,11,,,,,4,,,72,100
2816,note_off,,,,,0,0,14,,,,,7,,,72,100
2816,note_off,,,,,512,0,11,,,,,4,,,65,100
2816,note_off,,,,,512,0,13,,,,,6,,,41,100
2944,note_off,,,,,256,0,8,,,,,1,,,69,100
2944,note_off,,,,,256,0,7,,,,,0,,,65,100
2944,note_off,,,,,256,0,9,,,,,2,,,65,100
2944,note_off,,,,,256,0,10,,,,,3,,,69,100
3360,note_on,,,,,416,0,10,,,,,3,,,77,20
3360,note_on,,,,,0,0,14,,,,,7,,,72,100
3360,note_on,,,,,544,0,14,,,,,7,,,69,100
3360,note_on,,,,,416,0,7,,,,,0,,,81,83
3360,note_on,,,,,416,0,9,,,,,2,,,81,20
3360,note_on,,,,,544,0,11,,,,,4,,,65,70
3360,note_on,,,,,544,0,12,,,,,5,,,53,70
3360,note_on,,,,,544,0,15,,,,,7,,,53,100
3360,note_on,,,,,416,0,8,,,,,1,,,77,70
3360,note_on,,,,,0,0,11,,,,,4,,,72,70
3360,note_on,,,,,544,0,13,,,,,6,,,41,70
3424,note_off,,,,,0,0,14,,,,,7,,,72,100
3424,note_off,,,,,64,0,7,,,,,0,,,81,100
3424,note_off,,,,,64,0,8,,,,,1,,,77,100
3424,note_off,,,,,64,0,12,,,,,5,,,53,100
3424,note_off,,,,,64,0,9,,,,,2,,,81,100
3424,note_off,,,,,64,0,13,,,,,6,,,41,100
3424,note_off,,,,,64,0,14,,,,,7,,,69,100
3424,note_off,,,,,64,0,10,,,,,3,,,77,100
3424,note_off,,,,,0,0,11,,,,,4,,,72,100
3424,note_off,,,,,64,0,15,,,,,7,,,53,100
3424,note_off,,,,,64,0,11,,,,,4,,,65,100
3456,note_on,,,,,0,0,11,,,,,4,,,72,70
3456,note_on,,,,,32,0,11,,,,,4,,,67,70
3456,note_on,,,,,32,0,12,,,,,5,,,60,70
3456,note_on,,,,,32,0,13,,,,,6,,,48,70
3456,note_on,,,,,32,0,14,,,,,7,,,67,100
3456,note_on,,,,,32,0,15,,,,,7,,,60,100
3456,note_on,,,,,32,0,9,,,,,2,,,79,20
3456,note_on,,,,,32,0,8,,,,,1,,,76,65
3456,note_on,,,,,32,0,7,,,,,0,,,79,81
3456,note_on,,,,,32,0,10,,,,,3,,,76,20
3456,note_on,,,,,0,0,14,,,,,7,,,76,100
3644,note_off,,,,,188,0,9,,,,,2,,,79,100
3644,note_off,,,,,188,0,7,,,,,0,,,79,100
3648,note_on,,,,,4,0,9,,,,,2,,,76,20
3648,note_on,,,,,4,0,7,,,,,0,,,76,76
3712,note_off,,,,,0,0,14,,,,,7,,,76,100
3712,note_off,,,,,256,0,12,,,,,5,,,60,100
3712,note_off,,,,,256,0,14,,,,,7,,,67,100
3712,note_off,,,,,256,0,13,,,,,6,,,48,100
3712,note_off,,,,,256,0,15,,,,,7,,,60,100
3776,note_off,,,,,128,0,7,,,,,0,,,76,100
3776,note_off,,,,,128,0,9,,,,,2,,,76,100
3840,note_on,,,,,64,0,9,,,,,2,,,72,20
3840,note_on,,,,,128,0,15,,,,,7,,,48,100
3840,note_on,,,,,0,0,14,,,,,7,,,67,100
3840,note_on,,,,,128,0,13,,,,,6,,,36,70
3840,note_on,,,,,128,0,12,,,,,5,,,48,70
3840,note_on,,,,,128,0,14,,,,,7,,,64,100
3840,note_on,,,,,64,0,7,,,,,0,,,72,71
4224,note_off,,,,,768,0,8,,,,,1,,,76,100
4224,note_off,,,,,0,0,11,,,,,4,,,72,100
4224,note_off,,,,,384,0,14,,,,,7,,,64,100
4224,note_off,,,,,384,0,15,,,,,7,,,48,100
4224,note_off,,,,,768,0,10,,,,,3,,,76,100
4224,note_off,,,,,384,0,12,,,,,5,,,48,100
4224,note_off,,,,,384,0,13,,,,,6,,,36,100
4224,note_off,,,,,0,0,14,,,,,7,,,67,100
4224,note_off,,,,,768,0,11,,,,,4,,,67,100
4352,note_off,,,,,512,0,9,,,,,2,,,72,100
4352,note_off,,,,,512,0,7,,,,,0,,,72,100
4416,note_on,,,,,192,0,14,,,,,7,,,67,100
4416,note_on,,,,,0,0,14,,,,,7,,,62,100
4416,note_on,,,,,192,0,12,,,,,5,,,46,63
4416,note_on,,,,,192,0,15,,,,,7,,,46,100
4416,note_on,,,,,192,0,13,,,,,6,,,34,63
4544,note_off,,,,,0,0,14,,,,,7,,,62,100
4544,note_off,,,,,128,0,12,,,,,5,,,46,100
4544,note_off,,,,,128,0,14,,,,,7,,,67,100
4544,note_off,,,,,128,0,13,,,,,6,,,34,100
4544,note_off,,,,,128,0,15,,,,,7,,,46,100
4608,note_on,,,,,64,0,14,,,,,7,,,65,100
4608,note_on,,,,,384,0,8,,,,,1,,,77,11
4608,note_on,,,,,64,0,15,,,,,7,,,45,100
4608,note_on,,,,,0,0,14,,,,,7,,,60,100
4608,note_on,,,,,0,0,11,,,,,4,,,72,61
4608,note_on,,,,,384,0,11,,,,,4,,,69,61
4608,note_on,,,,,384,0,10,,,,,3,,,77,11
4608,note_on,,,,,64,0,13,,,,,6,,,33,61
4608,note_on,,,,,64,0,12,,,,,5,,,45,61
4608,note_on,,,,,256,0,9,,,,,2,,,77,11
4608,note_on,,,,,256,0,7,,,,,0,,,77,61
4864,note_off,,,,,256,0,10,,,,,3,,,77,100
4864,note_off,,,,,256,0,9,,,,,2,,,77,100
4864,note_off,,,,,256,0,8,,,,,1,,,77,100
4864,note_off,,,,,256,0,7,,,,,0,,,77,100
4992,note_on,,,,,128,0,7,,,,,0,,,65,60
4992,note_on,,,,,128,0,9,,,,,2,,,65,10
4992,note_on,,,,,128,0,8,,,,,1,,,65,10
4992,note_on,,,,,128,0,10,,,,,3,,,65,10
5120,note_off,,,,,512,0,12,,,,,5,,,45,100
5120,note_off,,,,,512,0,13,,,,,6,,,33,100
5120,note_off,,,,,0,0,11,,,,,4,,,72,100
5120,note_off,,,,,0,0,14,,,,,7,,,60,100
5120,note_off,,,,,512,0,14,,,,,7,,,65,100
5120,note_off,,,,,512,0,11,,,,,4,,,69,100
5120,note_off,,,,,512,0,15,,,,,7,,,45,100
5248,note_off,,,,,256,0,10,,,,,3,,,65,100
5248,note_off,,,,,256,0,9,,,,,2,,,65,100
5248,note_off,,,,,256,0,8,,,,,1,,,65,100
5248,note_off,,,,,256,0,7,,,,,0,,,65,100
5664,note_on,,,,,416,0,10,,,,,3,,,77,10
5664,note_on,,,,,416,0,9,,,,,2,,,77,10
5664,note_on,,,,,544,0,14,,,,,7,,,69,100
5664,note_on,,,,,0,0,14,,,,,7,,,72,100
5664,note_on,,,,,544,0,13,,,,,6,,,41,60
5664,note_on,,,,,544,0,12,,,,,5,,,53,60
5664,note_on,,,,,544,0,15,,,,,7,,,53,100
5664,note_on,,,,,416,0,7,,,,,0,,,77,60
5664,note_on,,,,,416,0,8,,,,,1,,,77,60
5664,note_on,,,,,544,0,11,,,,,4,,,69,60
5664,note_on,,,,,0,0,11,,,,,4,,,72,60
5728,note_off,,,,,64,0,10,,,,,3,,,77,100
5728,note_off,,,,,64,0,8,,,,,1,,,77,100
5728,note_off,,,,,64,0,11,,,,,4,,,69,100
5728,note_off,,,,,0,0,11,,,,,4,,,72,100
5728,note_off,,,,,64,0,15,,,,,7,,,53,100
5728,note_off,,,,,0,0,14,,,,,7,,,72,100
5728,note_off,,,,,64,0,7,,,,,0,,,77,100
5728,note_off,,,,,64,0,9,,,,,2,,,77,100
5728,note_off,,,,,64,0,12,,,,,5,,,53,100
5728,note_off,,,,,64,0,13,,,,,6,,,41,100
5728,note_off,,,,,64,0,14,,,,,7,,,69,100
5760,note_on,,,,,32,0,9,,,,,2,,,79,10
5760,note_on,,,,,0,0,11,,,,,4,,,72,60
5760,note_on,,,,,32,0,10,,,,,3,,,76,10
5760,note_on,,,,,32,0,15,,,,,7,,,48,100
5760,note_on,,,,,32,0,14,,,,,7,,,64,100
5760,note_on,,,,,0,0,14,,,,,7,,,67,100
5760,note_on,,,,,32,0,8,,,,,1,,,76,60
5760,note_on,,,,,32,0,11,,,,,4,,,67,60
5760,note_on,,,,,32,0,7,,,,,0,,,79,60
5760,note_on,,,,,32,0,12,,,,,5,,,48,60
5760,note_on,,,,,32,0,13,,,,,6,,,36,60
6016,note_off,,,,,256,0,8,,,,,1,,,76,100
6016,note_off,,,,,256,0,7,,,,,0,,,79,100
6016,note_off,,,,,256,0,9,,,,,2,,,79,100
6016,note_off,,,,,256,0,10,,,,,3,,,76,100
6144,note_on,,,,,128,0,8,,,,,1,,,60,60
6144,note_on,,,,,128,0,10,,,,,3,,,60,10
6144,note_on,,,,,128,0,7,,,,,0,,,64,60
6144,note_on,,,,,128,0,9,,,,,2,,,64,10
6272,note_off,,,,,0,0,14,,,,,7,,,67,100
6272,note_off,,,,,512,0,12,,,,,5,,,48,100
6272,note_off,,,,,512,0,14,,,,,7,,,64,100
6272,note_off,,,,,512,0,11,,,,,4,,,67,100
6272,note_off,,,,,0,0,11,,,,,4,,,72,100
6272,note_off,,,,,512,0,15,,,,,7,,,48,100
6272,note_off,,,,,512,0,13,,,,,6,,,36,100
6400,note_off,,,,,256,0,9,,,,,2,,,64,100
6400,note_off,,,,,256,0,10,,,,,3,,,60,100
6400,note_off,,,,,256,0,8,,,,,1,,,60,100
6400,note_off,,,,,256,0,7,,,,,0,,,64,100
6816,note_on,,,,,544,0,13,,,,,6,,,36,60
6816,note_on,,,,,544,0,11,,,,,4,,,67,60
6816,note_on,,,,,544,0,12,,,,,5,,,48,60
6816,note_on,,,,,0,0,11,,,,,4,,,72,60
6816,note_on,,,,,416,0,7,,,,,0,,,79,60
6816,note_on,,,,,416,0,10,,,,,3,,,76,10
6816,note_on,,,,,0,0,14,,,,,7,,,67,100
6816,note_on,,,,,544,0,14,,,,,7,,,64,100
6816,note_on,,,,,416,0,9,,,,,2,,,79,10
6816,note_on,,,,,544,0,15,,,,,7,,,48,100
6816,note_on,,,,,416,0,8,,,,,1,,,76,60
6880,note_off,,,,,64,0,14,,,,,7,,,64,100
6880,note_off,,,,,0,0,14,,,,,7,,,67,100
6880,note_off,,,,,64,0,7,,,,,0,,,79,100
6880,note_off,,,,,64,0,10,,,,,3,,,76,100
6880,note_off,,,,,64,0,9,,,,,2,,,79,100
6880,note_off,,,,,64,0,12,,,,,5,,,48,100
6880,note_off,,,,,64,0,13,,,,,6,,,36,100
6880,note_off,,,,,64,0,8,,,,,1,,,76,100
6880,note_off,,,,,64,0,11,,,,,4,,,67,100
6880,note_off,,,,,0,0,11,,,,,4,,,72,100
6880,note_off,,,,,64,0,15,,,,,7,,,48,100
6912,note_on,,,,,32,0,10,,,,,3,,,77,10
6912,note_on,,,,,32,0,13,,,,,6,,,41,60
6912,note_on,,,,,32,0,14,,,,,7,,,69,100
6912,note_on,,,,,0,0,14,,,,,7,,,72,100
6912,note_on,,,,,32,0,9,,,,,2,,,81,10
6912,note_on,,,,,0,0,11,,,,,4,,,72,60
6912,note_on,,,,,32,0,11,,,,,4,,,65,60
6912,note_on,,,,,32,0,12,,,,,5,,,53,60
6912,note_on,,,,,32,0,8,,,,,1,,,77,60
6912,note_on,,,,,32,0,7,,,,,0,,,81,60
6912,note_on,,,,,32,0,15,,,,,7,,,53,100
7168,note_off,,,,,256,0,7,,,,,0,,,81,100
7168,note_off,,,,,256,0,10,,,,,3,,,77,100
7168,note_off,,,,,256,0,9,,,,,2,,,81,100
7168,note_off,,,,,256,0,8,,,,,1,,,77,100
7296,note_on,,,,,128,0,7,,,,,0,,,65,60
7296,note_on,,,,,128,0,8,,,,,1,,,69,60
7296,note_on,,,,,128,0,9,,,,,2,,,65,10
7296,note_on,,,,,128,0,10,,,,,3,,,69,10
7424,note_off,,,,,512,0,12,,,,,5,,,53,100
7424,note_off,,,,,512,0,11,,,,,4,,,65,100
7424,note_off,,,,,0,0,14,,,,,7,,,72,100
7424,note_off,,,,,512,0,14,,,,,7,,,69,100
7424,note_off,,,,,0,0,11,,,,,4,,,72,100
7424,note_off,,,,,512,0,15,,,,,7,,,53,100
7424,note_off,,,,,512,0,13,,,,,6,,,41,100
7552,note_off,,,,,256,0,7,,,,,0,,,65,100
7552,note_off,,,,,256,0,10,,,,,3,,,69,100
7552,note_off,,,,,256,0,9,,,,,2,,,65,100
7552,note_off,,,,,256,0,8,,,,,1,,,69,100
7968,note_on,,,,,416,0,7,,,,,0,,,81,60
7968,note_on,,,,,416,0,8,,,,,1,,,77,60
7968,note_on,,,,,0,0,14,,,,,7,,,69,100
7968,note_on,,,,,544,0,14,,,,,7,,,72,100
7968,note_on,,,,,544,0,12,,,,,5,,,53,60
7968,note_on,,,,,416,0,9,,,,,2,,,81,10
7968,note_on,,,,,544,0,11,,,,,4,,,65,60
7968,note_on,,,,,544,0,13,,,,,6,,,41,60
7968,note_on,,,,,416,0,10,,,,,3,,,77,10
7968,note_on,,,,,544,0,15,,,,,7,,,53,100
7968,note_on,,,,,0,0,11,,,,,4,,,72,60
8032,note_off,,,,,64,0,11,,,,,4,,,65,100
8032,note_off,,,,,64,0,12,,,,,5,,,53,100
8032,note_off,,,,,64,0,13,,,,,6,,,41,100
8032,note_off,,,,,64,0,7,,,,,0,,,81,100
8032,note_off,,,,,64,0,10,,,,,3,,,77,100
8032,note_off,,,,,64,0,15,,,,,7,,,53,100
8032,note_off,,,,,0,0,14,,,,,7,,,69,100
8032,note_off,,,,,64,0,14,,,,,7,,,72,100
8032,note_off,,,,,64,0,8,,,,,1,,,77,100
8032,note_off,,,,,0,0,11,,,,,4,,,72,100
8032,note_off,,,,,64,0,9,,,,,2,,,81,100
8064,note_on,,,,,32,0,8,,,,,1,,,76,60
8064,note_on,,,,,32,0,10,,,,,3,,,76,10
8064,note_on,,,,,32,0,12,,,,,5,,,60,60
8064,note_on,,,,,32,0,7,,,,,0,,,79,60
8064,note_on,,,,,0,0,11,,,,,4,,,72,60
8064,note_on,,,,,32,0,9,,,,,2,,,79,10
8064,set_tempo,,,,,8064,1,0,,810810,,,,,,,
8064,note_on,,,,,32,0,15,,,,,7,,,60,100
8064,note_on,,,,,32,0,13,,,,,6,,,48,60
8064,note_on,,,,,32,0,14,,,,,7,,,64,100
8064,note_on,,,,,0,0,14,,,,,7,,,67,100
8064,note_on,,,,,32,0,11,,,,,4,,,67,60
8832,note_off,,,,,768,0,8,,,,,1,,,76,100
8832,note_off,,,,,768,0,13,,,,,6,,,48,100
8832,note_off,,,,,768,0,10,,,,,3,,,76,100
8832,note_off,,,,,768,0,7,,,,,0,,,79,100
8832,note_off,,,,,768,0,9,,,,,2,,,79,100
8832,note_off,,,,,768,0,14,,,,,7,,,64,100
8832,note_off,,,,,768,0,15,,,,,7,,,60,100
8832,note_off,,,,,0,0,14,,,,,7,,,67,100
8832,note_off,,,,,0,0,11,,,,,4,,,72,100
8832,note_off,,,,,768,0,11,,,,,4,,,67,100
8832,note_off,,,,,768,0,12,,,,,5,,,60,100
9216,program_change,,,,,384,0,8,,,,,1,40,,,
9216,program_change,,,,,384,0,7,,,,,0,40,,,
9216,program_change,,,,,384,0,12,,,,,5,42,,,
9408,note_on,,,,,192,0,7,,,,,0,,,77,85
9408,set_tempo,,,,,1344,1,0,,681818,,,,,,,
9408,note_on,,,,,192,0,12,,,,,5,,,57,85
9568,set_tempo,,,,,160,1,0,,674157,,,,,,,
9580,note_off,,,,,172,0,12,,,,,5,,,57,100
9580,note_off,,,,,172,0,7,,,,,0,,,77,100
9600,note_on,,,,,20,0,12,,,,,5,,,57,85
9600,note_on,,,,,20,0,7,,,,,0,,,77,85
9728,set_tempo,,,,,160,1,0,,666666,,,,,,,
9788,note_off,,,,,188,0,7,,,,,0,,,77,100
9788,note_off,,,,,188,0,12,,,,,5,,,57,100
9792,note_on,,,,,4,0,12,,,,,5,,,53,86
9792,note_on,,,,,4,0,7,,,,,0,,,75,86
9888,set_tempo,,,,,160,1,0,,659340,,,,,,,
9964,note_off,,,,,172,0,7,,,,,0,,,75,100
9964,note_off,,,,,172,0,12,,,,,5,,,53,100
9984,note_on,,,,,20,0,7,,,,,0,,,75,86
9984,note_on,,,,,20,0,12,,,,,5,,,53,86
10048,set_tempo,,,,,160,1,0,,652173,,,,,,,
10172,note_off,,,,,188,0,7,,,,,0,,,75,100
10172,note_off,,,,,188,0,12,,,,,5,,,53,100
10176,note_on,,,,,4,0,7,,,,,0,,,74,87
10176,note_on,,,,,4,0,12,,,,,5,,,58,87
10208,set_tempo,,,,,160,1,0,,645161,,,,,,,
10348,note_off,,,,,172,0,12,,,,,5,,,58,100
10348,note_off,,,,,172,0,7,,,,,0,,,74,100
10368,note_on,,,,,20,0,7,,,,,0,,,74,88
10368,note_on,,,,,20,0,12,,,,,5,,,58,88
10368,set_tempo,,,,,160,1,0,,638297,,,,,,,
10556,note_off,,,,,188,0,12,,,,,5,,,58,100
10556,note_off,,,,,188,0,7,,,,,0,,,74,100
10560,note_on,,,,,4,0,12,,,,,5,,,59,88
10560,note_on,,,,,4,0,7,,,,,0,,,79,88
10732,note_off,,,,,172,0,7,,,,,0,,,79,100
10732,note_off,,,,,172,0,12,,,,,5,,,59,100
10752,note_on,,,,,20,0,7,,,,,0,,,79,89
10752,note_on,,,,,20,0,12,,,,,5,,,59,89
10940,note_off,,,,,188,0,7,,,,,0,,,79,100
10940,note_off,,,,,188,0,12,,,,,5,,,59,100
10944,note_on,,,,,4,0,7,,,,,0,,,77,90
10944,note_on,,,,,4,0,12,,,,,5,,,55,90
11116,note_off,,,,,172,0,7,,,,,0,,,77,100
11116,note_off,,,,,172,0,12,,,,,5,,,55,100
11136,note_on,,,,,20,0,12,,,,,5,,,55,90
11136,note_on,,,,,20,0,7,,,,,0,,,77,90
11324,note_off,,,,,188,0,7,,,,,0,,,77,100
11324,note_off,,,,,188,0,12,,,,,5,,,55,100
11328,note_on,,,,,4,0,7,,,,,0,,,76,91
11328,note_on,,,,,4,0,12,,,,,5,,,60,91
11500,note_off,,,,,172,0,7,,,,,0,,,76,100
11500,note_off,,,,,172,0,12,,,,,5,,,60,100
11520,note_on,,,,,20,0,7,,,,,0,,,76,92
11520,note_on,,,,,20,0,12,,,,,5,,,60,92
11708,note_off,,,,,188,0,7,,,,,0,,,76,100
11708,note_off,,,,,188,0,12,,,,,5,,,60,100
11712,note_on,,,,,4,0,12,,,,,5,,,53,92
11712,note_on,,,,,2496,0,8,,,,,1,,,77,92
11712,note_on,,,,,4,0,7,,,,,0,,,81,92
11884,note_off,,,,,172,0,8,,,,,1,,,77,100
11884,note_off,,,,,172,0,7,,,,,0,,,81,100
11884,note_off,,,,,172,0,12,,,,,5,,,53,100
11904,note_on,,,,,20,0,7,,,,,0,,,81,93
11904,note_on,,,,,20,0,12,,,,,5,,,53,93
11904,note_on,,,,,20,0,8,,,,,1,,,77,93
12092,note_off,,,,,188,0,8,,,,,1,,,77,100
12092,note_off,,,,,188,0,7,,,,,0,,,81,100
12092,note_off,,,,,188,0,12,,,,,5,,,53,100
12096,note_on,,,,,4,0,8,,,,,1,,,76,94
12096,note_on,,,,,4,0,7,,,,,0,,,79,94
12096,note_on,,,,,4,0,12,,,,,5,,,57,94
12268,note_off,,,,,172,0,8,,,,,1,,,76,100
12268,note_off,,,,,172,0,12,,,,,5,,,57,100
12268,note_off,,,,,172,0,7,,,,,0,,,79,100
12288,note_on,,,,,20,0,8,,,,,1,,,76,94
12288,note_on,,,,,20,0,12,,,,,5,,,57,94
12288,note_on,,,,,20,0,7,,,,,0,,,79,94
12476,note_off,,,,,188,0,12,,,,,5,,,57,100
12476,note_off,,,,,188,0,7,,,,,0,,,79,100
12476,note_off,,,,,188,0,8,,,,,1,,,76,100
12480,note_on,,,,,4,0,8,,,,,1,,,74,95
12480,note_on,,,,,4,0,12,,,,,5,,,58,95
12480,note_on,,,,,4,0,7,,,,,0,,,77,95
12652,note_off,,,,,172,0,12,,,,,5,,,58,100
12652,note_off,,,,,172,0,8,,,,,1,,,74,100
12652,note_off,,,,,172,0,7,,,,,0,,,77,100
12672,note_on,,,,,20,0,12,,,,,5,,,58,96
12672,note_on,,,,,20,0,7,,,,,0,,,77,96
12672,note_on,,,,,20,0,8,,,,,1,,,74,96
12860,note_off,,,,,188,0,8,,,,,1,,,74,100
12860,note_off,,,,,188,0,7,,,,,0,,,77,100
12860,note_off,,,,,188,0,12,,,,,5,,,58,100
12864,note_on,,,,,4,0,8,,,,,1,,,79,96
12864,note_on,,,,,4,0,7,,,,,0,,,82,96
12864,note_on,,,,,4,0,12,,,,,5,,,55,96
13036,note_off,,,,,172,0,8,,,,,1,,,79,100
13036,note_off,,,,,172,0,12,,,,,5,,,55,100
13036,note_off,,,,,172,0,7,,,,,0,,,82,100
13056,note_on,,,,,20,0,8,,,,,1,,,79,97
13056,note_on,,,,,20,0,7,,,,,0,,,82,97
13056,note_on,,,,,20,0,12,,,,,5,,,55,97
13244,note_off,,,,,188,0,12,,,,,5,,,55,100
13244,note_off,,,,,188,0,8,,,,,1,,,79,100
13244,note_off,,,,,188,0,7,,,,,0,,,82,100
13248,note_on,,,,,4,0,12,,,,,5,,,59,98
13248,note_on,,,,,4,0,8,,,,,1,,,77,98
13248,note_on,,,,,4,0,7,,,,,0,,,81,98
13420,note_off,,,,,172,0,7,,,,,0,,,81,100
13420,note_off,,,,,172,0,12,,,,,5,,,59,100
13420,note_off,,,,,172,0,8,,,,,1,,,77,100
13440,note_on,,,,,20,0,7,,,,,0,,,81,98
13440,note_on,,,,,20,0,12,,,,,5,,,59,98
13440,note_on,,,,,20,0,8,,,,,1,,,77,98
13628,note_off,,,,,188,0,7,,,,,0,,,81,100
13628,note_off,,,,,188,0,12,,,,,5,,,59,100
13628,note_off,,,,,188,0,8,,,,,1,,,77,100
13632,note_on,,,,,4,0,12,,,,,5,,,60,99
13632,note_on,,,,,4,0,7,,,,,0,,,79,99
13632,note_on,,,,,4,0,8,,,,,1,,,76,99
13804,note_off,,,,,172,0,12,,,,,5,,,60,100
13804,note_off,,,,,172,0,7,,,,,0,,,79,100
13804,note_off,,,,,172,0,8,,,,,1,,,76,100
13824,note_on,,,,,20,0,8,,,,,1,,,76,100
13824,note_on,,,,,20,0,12,,,,,5,,,60,84
13824,set_tempo,,,,,3456,1,0,,681818,,,,,,,
13824,note_on,,,,,20,0,7,,,,,0,,,79,100
14012,program_change,,,,,188,0,7,,,,,0,48,,,
14016,set_tempo,,,,,192,1,0,,674157,,,,,,,
14204,note_off,,,,,380,0,12,,,,,5,,,60,100
14204,program_change,,,,,0,0,12,,,,,5,48,,,
14204,note_off,,,,,192,0,7,,,,,0,,,79,100
14204,note_off,,,,,380,0,8,,,,,1,,,76,100
14208,program_change,,,,,5376,0,10,,,,,3,48,,,
14208,note_on,,,,,5376,0,15,,,,,7,,,57,100
14208,set_tempo,,,,,192,1,0,,666666,,,,,,,
14208,note_on,,,,,5376,0,14,,,,,7,,,72,100
14208,note_on,,,,,0,0,14,,,,,7,,,69,100
14208,note_on,,,,,4,0,12,,,,,5,,,57,87
14208,program_change,,,,,4,0,8,,,,,1,48,,,
14208,note_on,,,,,5376,0,9,,,,,2,,,84,50
14208,program_change,,,,,5376,0,13,,,,,6,48,,,
14208,note_on,,,,,4,0,7,,,,,0,,,84,100
14208,note_on,,,,,5376,0,11,,,,,4,,,69,100
14212,note_on,,,,,4,0,13,,,,,6,,,45,100
14336,note_off,,,,,128,0,15,,,,,7,,,57,100
14336,note_off,,,,,0,0,14,,,,,7,,,69,100
14336,note_off,,,,,128,0,14,,,,,7,,,72,100
14336,note_off,,,,,128,0,12,,,,,5,,,57,100
14340,note_off,,,,,128,0,13,,,,,6,,,45,100
14400,note_on,,,,,64,0,12,,,,,5,,,57,89
14400,note_on,,,,,64,0,15,,,,,7,,,57,100
14400,set_tempo,,,,,192,1,0,,659340,,,,,,,
14400,note_on,,,,,0,0,14,,,,,7,,,69,100
14400,note_on,,,,,64,0,14,,,,,7,,,72,100
14404,note_on,,,,,64,0,13,,,,,6,,,45,100
14528,note_off,,,,,128,0,15,,,,,7,,,57,100
14528,note_off,,,,,0,0,14,,,,,7,,,69,100
14528,note_off,,,,,128,0,14,,,,,7,,,72,100
14528,note_off,,,,,128,0,12,,,,,5,,,57,100
14532,note_off,,,,,128,0,13,,,,,6,,,45,100
14592,note_on,,,,,64,0,12,,,,,5,,,57,91
14592,note_on,,,,,64,0,14,,,,,7,,,72,100
14592,note_on,,,,,0,0,14,,,,,7,,,69,100
14592,note_on,,,,,64,0,15,,,,,7,,,57,100
14592,note_on,,,,,384,0,10,,,,,3,,,76,50
14592,set_tempo,,,,,192,1,0,,652173,,,,,,,
14592,note_on,,,,,384,0,11,,,,,4,,,72,100
14592,note_on,,,,,384,0,8,,,,,1,,,76,100
14596,note_on,,,,,64,0,13,,,,,6,,,45,100
14720,note_off,,,,,128,0,14,,,,,7,,,72,100
14720,note_off,,,,,128,0,15,,,,,7,,,57,100
14720,note_off,,,,,0,0,14,,,,,7,,,69,100
14720,note_off,,,,,128,0,12,,,,,5,,,57,100
14724,note_off,,,,,128,0,13,,,,,6,,,45,100
14784,note_on,,,,,64,0,15,,,,,7,,,57,100
14784,note_on,,,,,64,0,14,,,,,7,,,72,100
14784,set_tempo,,,,,192,1,0,,645161,,,,,,,
14784,note_on,,,,,64,0,12,,,,,5,,,57,93
14784,note_on,,,,,0,0,14,,,,,7,,,69,100
14788,note_on,,,,,64,0,13,,,,,6,,,45,100
14912,note_off,,,,,128,0,14,,,,,7,,,72,100
14912,note_off,,,,,0,0,14,,,,,7,,,69,100
14912,note_off,,,,,128,0,15,,,,,7,,,57,100
14912,note_off,,,,,128,0,12,,,,,5,,,57,100
14916,note_off,,,,,128,0,13,,,,,6,,,45,100
14936,note_off,,,,,344,0,10,,,,,3,,,76,100
14936,note_off,,,,,344,0,8,,,,,1,,,76,100
14936,note_off,,,,,344,0,11,,,,,4,,,72,100
14976,note_on,,,,,40,0,10,,,,,3,,,77,50
14976,set_tempo,,,,,192,1,0,,638297,,,,,,,
14976,note_on,,,,,0,0,14,,,,,7,,,72,100
14976,note_on,,,,,64,0,14,,,,,7,,,69,100
14976,note_on,,,,,64,0,15,,,,,7,,,62,100
14976,note_on,,,,,40,0,8,,,,,1,,,77,100
14976,note_on,,,,,40,0,11,,,,,4,,,74,100
14976,note_on,,,,,64,0,12,,,,,5,,,62,100
14980,note_on,,,,,64,0,13,,,,,6,,,50,100
15104,note_off,,,,,128,0,14,,,,,7,,,69,100
15104,note_off,,,,,128,0,12,,,,,5,,,62,100
15104,note_off,,,,,128,0,15,,,,,7,,,62,100
15104,note_off,,,,,0,0,14,,,,,7,,,72,100
15108,note_off,,,,,128,0,13,,,,,6,,,50,100
15168,note_on,,,,,64,0,14,,,,,7,,,69,100
15168,note_on,,,,,64,0,12,,,,,5,,,62,100
15168,note_on,,,,,0,0,14,,,,,7,,,72,100
15168,note_on,,,,,64,0,15,,,,,7,,,62,100
15172,note_on,,,,,64,0,13,,,,,6,,,50,100
15296,note_off,,,,,0,0,14,,,,,7,,,72,100
15296,note_off,,,,,128,0,14,,,,,7,,,69,100
15296,note_off,,,,,128,0,15,,,,,7,,,62,100
15296,note_off,,,,,128,0,12,,,,,5,,,62,100
15300,note_off,,,,,128,0,13,,,,,6,,,50,100
15356,note_off,,,,,380,0,11,,,,,4,,,69,100
15356,note_off,,,,,1148,0,7,,,,,0,,,84,64
15356,note_off,,,,,1148,0,9,,,,,2,,,84,64
15360,note_on,,,,,4,0,9,,,,,2,,,82,50
15360,note_on,,,,,0,0,14,,,,,7,,,65,100
15360,note_on,,,,,64,0,14,,,,,7,,,62,100
15360,note_on,,,,,64,0,12,,,,,5,,,55,100
15360,note_on,,,,,64,0,15,,,,,7,,,55,100
15360,note_on,,,,,4,0,7,,,,,0,,,82,100
15360,note_on,,,,,4,0,11,,,,,4,,,67,100
15364,note_on,,,,,64,0,13,,,,,6,,,43,100
15488,note_off,,,,,128,0,15,,,,,7,,,55,100
15488,note_off,,,,,128,0,12,,,,,5,,,55,100
15488,note_off,,,,,0,0,14,,,,,7,,,65,100
15488,note_off,,,,,128,0,14,,,,,7,,,62,100
15492,note_off,,,,,128,0,13,,,,,6,,,43,100
15552,note_on,,,,,0,0,14,,,,,7,,,65,100
15552,note_on,,,,,64,0,14,,,,,7,,,62,100
15552,note_on,,,,,64,0,12,,,,,5,,,55,100
15552,note_on,,,,,64,0,15,,,,,7,,,55,100
15556,note_on,,,,,64,0,13,,,,,6,,,43,100
15680,note_off,,,,,0,0,14,,,,,7,,,65,100
15680,note_off,,,,,128,0,15,,,,,7,,,55,100
15680,note_off,,,,,128,0,12,,,,,5,,,55,100
15680,note_off,,,,,128,0,14,,,,,7,,,62,100
15684,note_off,,,,,128,0,13,,,,,6,,,43,100
15744,note_on,,,,,64,0,14,,,,,7,,,62,100
15744,note_on,,,,,64,0,15,,,,,7,,,55,100
15744,note_on,,,,,0,0,14,,,,,7,,,65,100
15744,note_on,,,,,64,0,12,,,,,5,,,55,100
15748,note_on,,,,,64,0,13,,,,,6,,,43,100
15872,note_off,,,,,128,0,12,,,,,5,,,55,100
15872,note_off,,,,,0,0,14,,,,,7,,,65,100
15872,note_off,,,,,128,0,15,,,,,7,,,55,100
15872,note_off,,,,,128,0,14,,,,,7,,,62,100
15876,note_off,,,,,128,0,13,,,,,6,,,43,100
15936,note_on,,,,,64,0,14,,,,,7,,,62,100
15936,note_on,,,,,0,0,14,,,,,7,,,65,100
15936,note_on,,,,,64,0,12,,,,,5,,,55,100
15936,note_on,,,,,64,0,15,,,,,7,,,55,100
15940,note_on,,,,,64,0,13,,,,,6,,,43,100
16012,note_off,,,,,652,0,11,,,,,4,,,74,100
16012,note_off,,,,,1036,0,10,,,,,3,,,77,100
16012,note_off,,,,,1036,0,8,,,,,1,,,77,100
16064,note_off,,,,,128,0,14,,,,,7,,,62,100
16064,note_off,,,,,128,0,15,,,,,7,,,55,100
16064,note_off,,,,,128,0,12,,,,,5,,,55,100
16064,note_off,,,,,0,0,14,,,,,7,,,65,100
16068,note_off,,,,,128,0,13,,,,,6,,,43,100
16128,note_on,,,,,64,0,15,,,,,7,,,60,100
16128,note_on,,,,,116,0,10,,,,,3,,,76,50
16128,note_on,,,,,64,0,14,,,,,7,,,67,100
16128,note_on,,,,,0,0,14,,,,,7,,,70,100
16128,note_on,,,,,64,0,12,,,,,5,,,60,100
16128,note_on,,,,,116,0,11,,,,,4,,,72,100
16128,note_on,,,,,116,0,8,,,,,1,,,76,100
16132,note_on,,,,,64,0,13,,,,,6,,,48,100
16256,note_off,,,,,128,0,12,,,,,5,,,60,100
16256,note_off,,,,,128,0,14,,,,,7,,,67,100
16256,note_off,,,,,0,0,14,,,,,7,,,70,100
16256,note_off,,,,,128,0,15,,,,,7,,,60,100
16260,note_off,,,,,128,0,13,,,,,6,,,48,100
16320,note_on,,,,,64,0,14,,,,,7,,,67,100
16320,note_on,,,,,0,0,14,,,,,7,,,70,100
16320,note_on,,,,,64,0,12,,,,,5,,,60,100
16320,note_on,,,,,64,0,15,,,,,7,,,60,100
16324,note_on,,,,,64,0,13,,,,,6,,,48,100
16448,note_off,,,,,128,0,14,,,,,7,,,67,100
16448,note_off,,,,,0,0,14,,,,,7,,,70,100
16448,note_off,,,,,128,0,15,,,,,7,,,60,100
16448,note_off,,,,,128,0,12,,,,,5,,,60,100
16452,note_off,,,,,128,0,13,,,,,6,,,48,100
16508,note_off,,,,,380,0,11,,,,,4,,,67,100
16508,note_off,,,,,1148,0,7,,,,,0,,,82,64
16508,note_off,,,,,1148,0,9,,,,,2,,,82,64
16512,note_on,,,,,4,0,11,,,,,4,,,65,100
16512,note_on,,,,,4,0,7,,,,,0,,,81,100
16512,note_on,,,,,64,0,15,,,,,7,,,53,100
16512,note_on,,,,,4,0,9,,,,,2,,,81,50
16512,note_on,,,,,0,0,14,,,,,7,,,64,100
16512,note_on,,,,,64,0,14,,,,,7,,,60,100
16512,note_on,,,,,64,0,12,,,,,5,,,53,100
16516,note_on,,,,,64,0,13,,,,,6,,,41,100
16640,note_off,,,,,128,0,15,,,,,7,,,53,100
16640,note_off,,,,,128,0,14,,,,,7,,,60,100
16640,note_off,,,,,128,0,12,,,,,5,,,53,100
16640,note_off,,,,,0,0,14,,,,,7,,,64,100
16644,note_off,,,,,128,0,13,,,,,6,,,41,100
16704,note_on,,,,,64,0,12,,,,,5,,,53,100
16704,note_on,,,,,0,0,14,,,,,7,,,64,100
16704,note_on,,,,,64,0,15,,,,,7,,,53,100
16704,note_on,,,,,64,0,14,,,,,7,,,60,100
16708,note_on,,,,,64,0,13,,,,,6,,,41,100
16832,note_off,,,,,0,0,14,,,,,7,,,64,100
16832,note_off,,,,,128,0,12,,,,,5,,,53,100
16832,note_off,,,,,128,0,14,,,,,7,,,60,100
16832,note_off,,,,,128,0,15,,,,,7,,,53,100
16836,note_off,,,,,128,0,13,,,,,6,,,41,100
16896,note_on,,,,,0,0,14,,,,,7,,,64,100
16896,note_on,,,,,64,0,14,,,,,7,,,60,100
16896,note_on,,,,,64,0,15,,,,,7,,,53,100
16896,note_on,,,,,64,0,12,,,,,5,,,53,99
16900,note_on,,,,,64,0,13,,,,,6,,,41,99
17024,note_off,,,,,128,0,12,,,,,5,,,53,100
17024,note_off,,,,,128,0,14,,,,,7,,,60,100
17024,note_off,,,,,0,0,14,,,,,7,,,64,100
17024,note_off,,,,,128,0,15,,,,,7,,,53,100
17028,note_off,,,,,128,0,13,,,,,6,,,41,100
17088,note_on,,,,,64,0,14,,,,,7,,,60,100
17088,note_on,,,,,0,0,14,,,,,7,,,64,100
17088,note_on,,,,,64,0,15,,,,,7,,,53,100
17088,note_on,,,,,64,0,12,,,,,5,,,53,98
17092,note_on,,,,,64,0,13,,,,,6,,,41,98
17164,note_off,,,,,652,0,11,,,,,4,,,72,100
17164,note_off,,,,,1036,0,10,,,,,3,,,76,100
17164,note_off,,,,,1036,0,8,,,,,1,,,76,100
17216,note_off,,,,,128,0,14,,,,,7,,,60,100
17216,note_off,,,,,0,0,14,,,,,7,,,64,100
17216,note_off,,,,,128,0,15,,,,,7,,,53,100
17216,note_off,,,,,128,0,12,,,,,5,,,53,100
17220,note_off,,,,,128,0,13,,,,,6,,,41,100
17280,note_on,,,,,116,0,8,,,,,1,,,74,98
17280,note_on,,,,,0,0,14,,,,,7,,,69,100
17280,note_on,,,,,64,0,15,,,,,7,,,58,100
17280,note_on,,,,,64,0,12,,,,,5,,,58,98
17280,note_on,,,,,64,0,14,,,,,7,,,65,100
17280,note_on,,,,,116,0,11,,,,,4,,,70,98
17280,note_on,,,,,116,0,10,,,,,3,,,74,48
17284,note_on,,,,,64,0,13,,,,,6,,,46,98
17408,note_off,,,,,128,0,15,,,,,7,,,58,100
17408,note_off,,,,,128,0,14,,,,,7,,,65,100
17408,note_off,,,,,0,0,14,,,,,7,,,69,100
17408,note_off,,,,,128,0,12,,,,,5,,,58,100
17412,note_off,,,,,128,0,13,,,,,6,,,46,100
17472,note_on,,,,,64,0,12,,,,,5,,,58,97
17472,note_on,,,,,64,0,14,,,,,7,,,65,100
17472,note_on,,,,,0,0,14,,,,,7,,,69,100
17472,note_on,,,,,64,0,15,,,,,7,,,58,100
17476,note_on,,,,,64,0,13,,,,,6,,,46,97
17600,note_off,,,,,128,0,15,,,,,7,,,58,100
17600,note_off,,,,,128,0,12,,,,,5,,,58,100
17600,note_off,,,,,128,0,14,,,,,7,,,65,100
17600,note_off,,,,,0,0,14,,,,,7,,,69,100
17604,note_off,,,,,128,0,13,,,,,6,,,46,100
17660,note_off,,,,,380,0,11,,,,,4,,,65,100
17660,note_off,,,,,1148,0,9,,,,,2,,,81,64
17660,note_off,,,,,1148,0,7,,,,,0,,,81,64
17664,note_on,,,,,4,0,7,,,,,0,,,79,96
17664,note_on,,,,,0,0,14,,,,,7,,,62,100
17664,note_on,,,,,64,0,15,,,,,7,,,52,100
17664,note_on,,,,,4,0,11,,,,,4,,,64,96
17664,note_on,,,,,64,0,14,,,,,7,,,58,100
17664,note_on,,,,,64,0,12,,,,,5,,,52,96
17664,note_on,,,,,4,0,9,,,,,2,,,79,46
17668,note_on,,,,,64,0,13,,,,,6,,,40,96
17792,note_off,,,,,128,0,14,,,,,7,,,58,100
17792,note_off,,,,,128,0,15,,,,,7,,,52,100
17792,note_off,,,,,0,0,14,,,,,7,,,62,100
17792,note_off,,,,,128,0,12,,,,,5,,,52,100
17796,note_off,,,,,128,0,13,,,,,6,,,40,100
17856,note_on,,,,,64,0,14,,,,,7,,,58,100
17856,note_on,,,,,0,0,14,,,,,7,,,62,100
17856,note_on,,,,,64,0,15,,,,,7,,,52,100
17856,note_on,,,,,64,0,12,,,,,5,,,52,96
17860,note_on,,,,,64,0,13,,,,,6,,,40,96
17984,note_off,,,,,0,0,14,,,,,7,,,62,100
17984,note_off,,,,,128,0,14,,,,,7,,,58,100
17984,note_off,,,,,128,0,15,,,,,7,,,52,100
17984,note_off,,,,,128,0,12,,,,,5,,,52,100
17988,note_off,,,,,128,0,13,,,,,6,,,40,100
18048,note_on,,,,,0,0,14,,,,,7,,,62,100
18048,note_on,,,,,64,0,15,,,,,7,,,52,100
18048,note_on,,,,,64,0,14,,,,,7,,,58,100
18048,note_on,,,,,64,0,12,,,,,5,,,52,95
18052,note_on,,,,,64,0,13,,,,,6,,,40,95
18176,note_off,,,,,0,0,14,,,,,7,,,62,100
18176,note_off,,,,,128,0,14,,,,,7,,,58,100
18176,note_off,,,,,128,0,15,,,,,7,,,52,100
18176,note_off,,,,,128,0,12,,,,,5,,,52,100
18180,note_off,,,,,128,0,13,,,,,6,,,40,100
18240,note_on,,,,,0,0,14,,,,,7,,,62,100
18240,note_on,,,,,64,0,14,,,,,7,,,58,100
18240,note_on,,,,,64,0,12,,,,,5,,,52,94
18240,note_on,,,,,64,0,15,,,,,7,,,52,100
18244,note_on,,,,,64,0,13,,,,,6,,,40,94
18316,note_off,,,,,652,0,11,,,,,4,,,70,100
18316,note_off,,,,,1036,0,8,,,,,1,,,74,100
18316,note_off,,,,,1036,0,10,,,,,3,,,74,100
18368,note_off,,,,,0,0,14,,,,,7,,,62,100
18368,note_off,,,,,128,0,14,,,,,7,,,58,100
18368,note_off,,,,,128,0,15,,,,,7,,,52,100
18368,note_off,,,,,128,0,12,,,,,5,,,52,100
18372,note_off,,,,,128,0,13,,,,,6,,,40,100
18432,note_on,,,,,116,0,8,,,,,1,,,72,94
18432,note_on,,,,,116,0,11,,,,,4,,,69,94
18432,note_on,,,,,64,0,15,,,,,7,,,57,100
18432,note_on,,,,,64,0,12,,,,,5,,,57,94
18432,note_on,,,,,116,0,10,,,,,3,,,72,44
18432,note_on,,,,,64,0,14,,,,,7,,,64,100
18432,note_on,,,,,0,0,14,,,,,7,,,67,100
18432,set_tempo,,,,,3456,1,0,,638297,,,,,,,
18436,note_on,,,,,64,0,13,,,,,6,,,45,94
18560,note_off,,,,,128,0,14,,,,,7,,,64,100
18560,note_off,,,,,128,0,15,,,,,7,,,57,100
18560,note_off,,,,,0,0,14,,,,,7,,,67,100
18560,note_off,,,,,128,0,12,,,,,5,,,57,100
18564,note_off,,,,,128,0,13,,,,,6,,,45,100
18624,note_on,,,,,64,0,15,,,,,7,,,57,100
18624,note_on,,,,,64,0,14,,,,,7,,,64,100
18624,note_on,,,,,64,0,12,,,,,5,,,57,93
18624,note_on,,,,,0,0,14,,,,,7,,,67,100
18628,note_on,,,,,64,0,13,,,,,6,,,45,93
18752,note_off,,,,,0,0,14,,,,,7,,,67,100
18752,note_off,,,,,128,0,14,,,,,7,,,64,100
18752,note_off,,,,,128,0,15,,,,,7,,,57,100
18752,note_off,,,,,128,0,12,,,,,5,,,57,100
18756,note_off,,,,,128,0,13,,,,,6,,,45,100
18812,note_off,,,,,1148,0,9,,,,,2,,,79,64
18812,note_off,,,,,380,0,11,,,,,4,,,64,100
18812,note_off,,,,,1148,0,7,,,,,0,,,79,64
18816,note_on,,,,,0,0,14,,,,,7,,,60,100
18816,note_on,,,,,4,0,7,,,,,0,,,77,92
18816,note_on,,,,,4,0,9,,,,,2,,,77,42
18816,note_on,,,,,64,0,14,,,,,7,,,57,100
18816,note_on,,,,,64,0,15,,,,,7,,,50,100
18816,note_on,,,,,4,0,11,,,,,4,,,62,92
18816,note_on,,,,,64,0,12,,,,,5,,,50,92
18816,set_tempo,,,,,384,1,0,,645161,,,,,,,
18820,note_on,,,,,64,0,13,,,,,6,,,38,92
18944,note_off,,,,,128,0,12,,,,,5,,,50,100
18944,note_off,,,,,0,0,14,,,,,7,,,60,100
18944,note_off,,,,,128,0,14,,,,,7,,,57,100
18944,note_off,,,,,128,0,15,,,,,7,,,50,100
18948,note_off,,,,,128,0,13,,,,,6,,,38,100
19008,note_on,,,,,64,0,15,,,,,7,,,50,100
19008,note_on,,,,,64,0,14,,,,,7,,,57,100
19008,note_on,,,,,64,0,12,,,,,5,,,50,92
19008,note_on,,,,,0,0,14,,,,,7,,,60,100
19012,note_on,,,,,64,0,13,,,,,6,,,38,92
19136,note_off,,,,,0,0,14,,,,,7,,,60,100
19136,note_off,,,,,128,0,14,,,,,7,,,57,100
19136,note_off,,,,,128,0,15,,,,,7,,,50,100
19136,note_off,,,,,128,0,12,,,,,5,,,50,100
19140,note_off,,,,,128,0,13,,,,,6,,,38,100
19200,note_on,,,,,0,0,14,,,,,7,,,60,100
19200,note_on,,,,,64,0,14,,,,,7,,,57,100
19200,note_on,,,,,64,0,12,,,,,5,,,50,91
19200,set_tempo,,,,,384,1,0,,652173,,,,,,,
19200,note_on,,,,,64,0,15,,,,,7,,,50,100
19204,note_on,,,,,64,0,13,,,,,6,,,38,91
19328,note_off,,,,,128,0,14,,,,,7,,,57,100
19328,note_off,,,,,0,0,14,,,,,7,,,60,100
19328,note_off,,,,,128,0,12,,,,,5,,,50,100
19328,note_off,,,,,128,0,15,,,,,7,,,50,100
19332,note_off,,,,,128,0,13,,,,,6,,,38,100
19392,note_on,,,,,64,0,15,,,,,7,,,50,100
19392,note_on,,,,,0,0,14,,,,,7,,,60,100
19392,note_on,,,,,64,0,12,,,,,5,,,50,90
19392,note_on,,,,,64,0,14,,,,,7,,,57,100
19396,note_on,,,,,64,0,13,,,,,6,,,38,90
19468,note_off,,,,,652,0,11,,,,,4,,,69,100
19468,note_off,,,,,1036,0,8,,,,,1,,,72,100
19468,note_off,,,,,1036,0,10,,,,,3,,,72,100
19520,note_off,,,,,128,0,12,,,,,5,,,50,100
19520,note_off,,,,,128,0,14,,,,,7,,,57,100
19520,note_off,,,,,0,0,14,,,,,7,,,60,100
19520,note_off,,,,,128,0,15,,,,,7,,,50,100
19524,note_off,,,,,128,0,13,,,,,6,,,38,100
19584,set_tempo,,,,,384,1,0,,659340,,,,,,,
19584,note_on,,,,,116,0,11,,,,,4,,,67,90
19584,note_on,,,,,0,0,14,,,,,7,,,65,100
19584,note_on,,,,,116,0,10,,,,,3,,,70,40
19584,note_on,,,,,64,0,12,,,,,5,,,55,90
19584,note_on,,,,,64,0,15,,,,,7,,,55,100
19584,note_on,,,,,116,0,8,,,,,1,,,70,90
19584,note_on,,,,,64,0,14,,,,,7,,,62,100
19588,note_on,,,,,64,0,13,,,,,6,,,43,90
19712,note_off,,,,,128,0,15,,,,,7,,,55,100
19712,note_off,,,,,128,0,12,,,,,5,,,55,100
19712,note_off,,,,,0,0,14,,,,,7,,,65,100
19712,note_off,,,,,128,0,14,,,,,7,,,62,100
19716,note_off,,,,,128,0,13,,,,,6,,,43,100
19776,note_on,,,,,0,0,14,,,,,7,,,65,100
19776,note_on,,,,,64,0,14,,,,,7,,,62,100
19776,note_on,,,,,64,0,15,,,,,7,,,55,100
19776,note_on,,,,,64,0,12,,,,,5,,,55,89
19780,note_on,,,,,64,0,13,,,,,6,,,43,89
19904,note_off,,,,,128,0,14,,,,,7,,,62,100
19904,note_off,,,,,0,0,14,,,,,7,,,65,100
19904,note_off,,,,,128,0,12,,,,,5,,,55,100
19904,note_off,,,,,128,0,15,,,,,7,,,55,100
19908,note_off,,,,,128,0,13,,,,,6,,,43,100
19964,note_off,,,,,1148,0,9,,,,,2,,,77,64
19964,note_off,,,,,1148,0,7,,,,,0,,,77,64
19964,note_off,,,,,380,0,11,,,,,4,,,62,100
19968,note_on,,,,,0,0,14,,,,,7,,,58,100
19968,note_on,,,,,64,0,14,,,,,7,,,55,100
19968,note_on,,,,,4,0,7,,,,,0,,,76,88
19968,note_on,,,,,4,0,11,,,,,4,,,60,88
19968,note_on,,,,,64,0,12,,,,,5,,,48,88
19968,set_tempo,,,,,384,1,0,,666666,,,,,,,
19968,note_on,,,,,4,0,9,,,,,2,,,76,38
19968,note_on,,,,,64,0,15,,,,,7,,,48,100
19972,note_on,,,,,64,0,13,,,,,6,,,36,88
20096,note_off,,,,,128,0,15,,,,,7,,,48,100
20096,note_off,,,,,0,0,14,,,,,7,,,58,100
20096,note_off,,,,,128,0,12,,,,,5,,,48,100
20096,note_off,,,,,128,0,14,,,,,7,,,55,100
20100,note_off,,,,,128,0,13,,,,,6,,,36,100
20160,note_on,,,,,64,0,12,,,,,5,,,48,88
20160,note_on,,,,,64,0,14,,,,,7,,,55,100
20160,note_on,,,,,0,0,14,,,,,7,,,58,100
20160,note_on,,,,,64,0,15,,,,,7,,,48,100
20164,note_on,,,,,64,0,13,,,,,6,,,36,88
20288,note_off,,,,,128,0,12,,,,,5,,,48,100
20288,note_off,,,,,128,0,15,,,,,7,,,48,100
20288,note_off,,,,,0,0,14,,,,,7,,,58,100
20288,note_off,,,,,128,0,14,,,,,7,,,55,100
20292,note_off,,,,,128,0,13,,,,,6,,,36,100
20352,note_on,,,,,0,0,14,,,,,7,,,58,100
20352,note_on,,,,,64,0,14,,,,,7,,,55,100
20352,note_on,,,,,64,0,12,,,,,5,,,48,87
20352,note_on,,,,,64,0,15,,,,,7,,,48,100
20352,set_tempo,,,,,384,1,0,,674157,,,,,,,
20356,note_on,,,,,64,0,13,,,,,6,,,36,87
20480,note_off,,,,,128,0,14,,,,,7,,,55,100
20480,note_off,,,,,128,0,15,,,,,7,,,48,100
20480,note_off,,,,,0,0,14,,,,,7,,,58,100
20480,note_off,,,,,128,0,12,,,,,5,,,48,100
20484,note_off,,,,,128,0,13,,,,,6,,,36,100
20544,note_on,,,,,64,0,14,,,,,7,,,55,100
20544,note_on,,,,,0,0,14,,,,,7,,,58,100
20544,note_on,,,,,64,0,15,,,,,7,,,48,100
20544,note_on,,,,,64,0,12,,,,,5,,,48,86
20548,note_on,,,,,64,0,13,,,,,6,,,36,86
20620,note_off,,,,,1036,0,10,,,,,3,,,70,100
20620,note_off,,,,,652,0,11,,,,,4,,,67,100
20620,note_off,,,,,1036,0,8,,,,,1,,,70,100
20656,note_off,,,,,688,0,9,,,,,2,,,76,100
20656,note_off,,,,,688,0,7,,,,,0,,,76,100
20656,note_off,,,,,36,0,11,,,,,4,,,60,100
20672,note_off,,,,,128,0,12,,,,,5,,,48,100
20672,note_off,,,,,128,0,15,,,,,7,,,48,100
20672,note_off,,,,,0,0,14,,,,,7,,,58,100
20672,note_off,,,,,128,0,14,,,,,7,,,55,100
20676,note_off,,,,,128,0,13,,,,,6,,,36,100
20728,program_change,,,,,72,0,7,,,,,0,40,,,
20728,program_change,,,,,0,0,7,,,,,0,40,,,
20736,note_on,,,,,64,0,12,,,,,5,,,53,86
20736,note_on,,,,,116,0,8,,,,,1,,,69,86
20736,set_tempo,,,,,384,1,0,,681818,,,,,,,
20736,note_on,,,,,64,0,15,,,,,7,,,53,100
20736,note_on,,,,,116,0,10,,,,,3,,,69,36
20736,note_on,,,,,64,0,14,,,,,7,,,60,100
20736,note_on,,,,,0,0,11,,,,,4,,,60,86
20736,note_on,,,,,8,0,7,,,,,0,,,77,100
20736,note_on,,,,,0,0,14,,,,,7,,,57,100
20736,note_on,,,,,80,0,9,,,,,2,,,77,86
20736,note_on,,,,,80,0,11,,,,,4,,,65,86
20740,note_on,,,,,64,0,13,,,,,6,,,41,85
20772,set_tempo,,,,,36,1,0,,674157,,,,,,,
20800,note_off,,,,,64,0,7,,,,,0,,,77,100
20812,set_tempo,,,,,40,1,0,,666666,,,,,,,
20832,note_on,,,,,32,0,7,,,,,0,,,72,100
20848,set_tempo,,,,,36,1,0,,659340,,,,,,,
20888,set_tempo,,,,,40,1,0,,652173,,,,,,,
20896,note_off,,,,,64,0,7,,,,,0,,,72,100
20928,set_tempo,,,,,40,1,0,,645161,,,,,,,
20928,note_on,,,,,32,0,7,,,,,0,,,70,100
20964,set_tempo,,,,,36,1,0,,638297,,,,,,,
20992,note_off,,,,,64,0,7,,,,,0,,,70,100
21004,set_tempo,,,,,40,1,0,,631578,,,,,,,
21024,note_on,,,,,32,0,7,,,,,0,,,72,100
21040,set_tempo,,,,,36,1,0,,625000,,,,,,,
21080,note_off,,,,,0,0,11,,,,,4,,,60,100
21080,note_off,,,,,344,0,11,,,,,4,,,65,100
21080,note_off,,,,,344,0,9,,,,,2,,,77,100
21080,set_tempo,,,,,40,1,0,,618556,,,,,,,
21080,note_off,,,,,344,0,12,,,,,5,,,53,100
21080,note_off,,,,,344,0,15,,,,,7,,,53,100
21080,note_off,,,,,344,0,8,,,,,1,,,69,100
21080,note_off,,,,,344,0,10,,,,,3,,,69,100
21084,note_off,,,,,344,0,13,,,,,6,,,41,100
21088,note_off,,,,,64,0,7,,,,,0,,,72,100
21120,set_tempo,,,,,40,1,0,,612244,,,,,,,
21120,note_on,,,,,32,0,7,,,,,0,,,69,100
21120,note_off,,,,,0,0,14,,,,,7,,,57,100
21120,note_off,,,,,384,0,14,,,,,7,,,60,100
21248,note_off,,,,,128,0,7,,,,,0,,,69,100
21312,note_on,,,,,64,0,7,,,,,0,,,81,100
21440,note_off,,,,,128,0,7,,,,,0,,,81,100
21504,note_on,,,,,420,0,13,,,,,6,,,41,85
21504,note_on,,,,,64,0,7,,,,,0,,,81,100
21504,note_on,,,,,424,0,12,,,,,5,,,53,85
21504,note_on,,,,,0,0,14,,,,,7,,,69,100
21504,note_on,,,,,384,0,14,,,,,7,,,72,100
21504,note_on,,,,,424,0,15,,,,,7,,,53,100
21692,note_off,,,,,188,0,7,,,,,0,,,81,100
21696,note_on,,,,,4,0,7,,,,,0,,,77,100
21760,note_off,,,,,64,0,7,,,,,0,,,77,100
21760,note_off,,,,,256,0,13,,,,,6,,,41,100
21760,note_off,,,,,0,0,14,,,,,7,,,69,100
21760,note_off,,,,,256,0,12,,,,,5,,,53,100
21760,note_off,,,,,256,0,14,,,,,7,,,72,100
21760,note_off,,,,,256,0,15,,,,,7,,,53,100
21792,note_on,,,,,32,0,7,,,,,0,,,81,100
21856,note_off,,,,,64,0,7,,,,,0,,,81,100
21888,note_on,,,,,0,0,14,,,,,7,,,76,100
21888,note_on,,,,,128,0,15,,,,,7,,,60,100
21888,note_on,,,,,32,0,7,,,,,0,,,79,100
21888,note_on,,,,,128,0,14,,,,,7,,,67,100
21888,note_on,,,,,128,0,12,,,,,5,,,60,85
21888,note_on,,,,,128,0,13,,,,,6,,,48,85
21952,note_off,,,,,64,0,7,,,,,0,,,79,100
21984,note_on,,,,,32,0,7,,,,,0,,,76,100
22048,note_off,,,,,64,0,7,,,,,0,,,76,100
22080,note_on,,,,,32,0,7,,,,,0,,,74,100
22144,note_off,,,,,256,0,15,,,,,7,,,60,100
22144,note_off,,,,,0,0,14,,,,,7,,,76,100
22144,note_off,,,,,64,0,7,,,,,0,,,74,100
22144,note_off,,,,,256,0,12,,,,,5,,,60,100
22144,note_off,,,,,256,0,13,,,,,6,,,48,100
22144,note_off,,,,,256,0,14,,,,,7,,,67,100
22176,note_on,,,,,32,0,7,,,,,0,,,76,100
22240,note_off,,,,,64,0,7,,,,,0,,,76,100
22272,note_on,,,,,32,0,7,,,,,0,,,72,100
22400,note_off,,,,,128,0,7,,,,,0,,,72,100
22464,note_on,,,,,64,0,7,,,,,0,,,82,100
22592,note_off,,,,,128,0,7,,,,,0,,,82,100
22656,note_on,,,,,512,0,13,,,,,6,,,36,85
22656,note_on,,,,,512,0,14,,,,,7,,,67,100
22656,note_on,,,,,512,0,15,,,,,7,,,48,100
22656,note_on,,,,,0,0,14,,,,,7,,,70,100
22656,note_on,,,,,64,0,7,,,,,0,,,82,100
22656,note_on,,,,,512,0,12,,,,,5,,,48,85
22844,note_off,,,,,188,0,7,,,,,0,,,82,100
22848,note_on,,,,,4,0,7,,,,,0,,,79,100
22912,note_off,,,,,0,0,14,,,,,7,,,70,100
22912,note_off,,,,,64,0,7,,,,,0,,,79,100
22912,note_off,,,,,256,0,15,,,,,7,,,48,100
22912,note_off,,,,,256,0,13,,,,,6,,,36,100
22912,note_off,,,,,256,0,12,,,,,5,,,48,100
22912,note_off,,,,,256,0,14,,,,,7,,,67,100
22944,note_on,,,,,32,0,7,,,,,0,,,82,100
23008,note_off,,,,,64,0,7,,,,,0,,,82,100
23040,note_on,,,,,128,0,14,,,,,7,,,72,100
23040,note_on,,,,,32,0,7,,,,,0,,,81,100
23040,note_on,,,,,0,0,14,,,,,7,,,69,100
23040,note_on,,,,,128,0,13,,,,,6,,,41,85
23040,note_on,,,,,128,0,12,,,,,5,,,53,85
23040,note_on,,,,,128,0,15,,,,,7,,,53,100
23104,note_off,,,,,64,0,7,,,,,0,,,81,100
23136,note_on,,,,,32,0,7,,,,,0,,,77,100
23200,note_off,,,,,64,0,7,,,,,0,,,77,100
23232,note_on,,,,,32,0,7,,,,,0,,,76,100
23296,note_off,,,,,256,0,13,,,,,6,,,41,100
23296,note_off,,,,,0,0,14,,,,,7,,,69,100
23296,note_off,,,,,256,0,12,,,,,5,,,53,100
23296,note_off,,,,,256,0,15,,,,,7,,,53,100
23296,note_off,,,,,256,0,14,,,,,7,,,72,100
23296,note_off,,,,,64,0,7,,,,,0,,,76,100
23328,note_on,,,,,32,0,7,,,,,0,,,77,100
23392,note_off,,,,,64,0,7,,,,,0,,,77,100
23424,note_on,,,,,32,0,7,,,,,0,,,72,100
23552,note_off,,,,,128,0,7,,,,,0,,,72,100
23616,note_on,,,,,64,0,7,,,,,0,,,81,100
23744,note_off,,,,,128,0,7,,,,,0,,,81,100
23808,note_on,,,,,512,0,13,,,,,6,,,41,85
23808,note_on,,,,,64,0,7,,,,,0,,,81,100
23808,note_on,,,,,512,0,14,,,,,7,,,69,100
23808,note_on,,,,,512,0,12,,,,,5,,,53,85
23808,note_on,,,,,0,0,14,,,,,7,,,72,100
23808,note_on,,,,,512,0,15,,,,,7,,,53,100
23996,note_off,,,,,188,0,7,,,,,0,,,81,100
24000,note_on,,,,,4,0,7,,,,,0,,,77,100
24064,note_off,,,,,256,0,12,,,,,5,,,53,100
24064,note_off,,,,,256,0,14,,,,,7,,,69,100
24064,note_off,,,,,256,0,13,,,,,6,,,41,100
24064,note_off,,,,,0,0,14,,,,,7,,,72,100
24064,note_off,,,,,64,0,7,,,,,0,,,77,100
24064,note_off,,,,,256,0,15,,,,,7,,,53,100
24096,note_on,,,,,32,0,7,,,,,0,,,81,100
24160,note_off,,,,,64,0,7,,,,,0,,,81,100
24192,note_on,,,,,0,0,14,,,,,7,,,76,100
24192,note_on,,,,,128,0,14,,,,,7,,,67,100
24192,program_change,,,,,3112,0,8,,,,,1,40,,,
24192,note_on,,,,,128,0,15,,,,,7,,,60,100
24192,note_on,,,,,32,0,7,,,,,0,,,79,100
24192,note_on,,,,,128,0,13,,,,,6,,,48,85
24192,note_on,,,,,128,0,12,,,,,5,,,60,85
24256,note_off,,,,,64,0,7,,,,,0,,,79,100
24288,note_on,,,,,32,0,7,,,,,0,,,76,100
24352,note_off,,,,,64,0,7,,,,,0,,,76,100
24384,note_on,,,,,32,0,7,,,,,0,,,77,100
24448,note_off,,,,,64,0,7,,,,,0,,,77,100
24448,note_off,,,,,256,0,15,,,,,7,,,60,100
24448,note_off,,,,,256,0,14,,,,,7,,,67,100
24448,note_off,,,,,0,0,14,,,,,7,,,76,100
24448,note_off,,,,,256,0,13,,,,,6,,,48,100
24448,note_off,,,,,256,0,12,,,,,5,,,60,100
24480,note_on,,,,,32,0,7,,,,,0,,,79,100
24544,note_off,,,,,64,0,7,,,,,0,,,79,100
24576,note_on,,,,,32,0,7,,,,,0,,,76,100
24640,note_off,,,,,64,0,7,,,,,0,,,76,100
24672,note_on,,,,,32,0,7,,,,,0,,,72,100
24736,note_off,,,,,64,0,7,,,,,0,,,72,100
24768,note_on,,,,,32,0,7,,,,,0,,,74,100
24832,note_off,,,,,64,0,7,,,,,0,,,74,100
24864,note_on,,,,,32,0,7,,,,,0,,,71,100
24928,note_off,,,,,64,0,7,,,,,0,,,71,100
24960,note_on,,,,,0,0,14,,,,,7,,,67,100
24960,note_on,,,,,32,0,7,,,,,0,,,72,100
24960,note_on,,,,,512,0,12,,,,,5,,,48,85
24960,note_on,,,,,512,0,13,,,,,6,,,36,85
24960,note_on,,,,,512,0,15,,,,,7,,,48,100
24960,note_on,,,,,512,0,14,,,,,7,,,64,100
25216,note_off,,,,,256,0,7,,,,,0,,,72,100
25216,note_off,,,,,256,0,12,,,,,5,,,48,100
25216,note_off,,,,,256,0,13,,,,,6,,,36,100
25216,note_off,,,,,256,0,15,,,,,7,,,48,100
25216,note_off,,,,,0,0,14,,,,,7,,,67,100
25216,note_off,,,,,256,0,14,,,,,7,,,64,100
25344,note_on,,,,,128,0,15,,,,,7,,,53,100
25344,note_on,,,,,0,0,14,,,,,7,,,69,100
25344,note_on,,,,,128,0,13,,,,,6,,,41,70
25344,note_on,,,,,128,0,14,,,,,7,,,72,100
25344,note_on,,,,,1152,0,8,,,,,1,,,77,85
25344,note_on,,,,,128,0,12,,,,,5,,,53,70
25408,note_off,,,,,64,0,8,,,,,1,,,77,100
25440,note_on,,,,,32,0,8,,,,,1,,,72,85
25504,note_off,,,,,64,0,8,,,,,1,,,72,100
25536,note_on,,,,,32,0,8,,,,,1,,,70,85
25600,note_off,,,,,256,0,12,,,,,5,,,53,100
25600,note_off,,,,,256,0,15,,,,,7,,,53,100
25600,note_off,,,,,0,0,14,,,,,7,,,69,100
25600,note_off,,,,,256,0,14,,,,,7,,,72,100
25600,note_off,,,,,256,0,13,,,,,6,,,41,100
25600,note_off,,,,,64,0,8,,,,,1,,,70,100
25632,note_on,,,,,32,0,8,,,,,1,,,72,85
25696,note_off,,,,,64,0,8,,,,,1,,,72,100
25728,note_on,,,,,32,0,8,,,,,1,,,69,85
25856,note_off,,,,,128,0,8,,,,,1,,,69,100
25920,note_on,,,,,64,0,8,,,,,1,,,81,85
26048,note_off,,,,,128,0,8,,,,,1,,,81,100
26112,note_on,,,,,512,0,14,,,,,7,,,69,100
26112,note_on,,,,,0,0,14,,,,,7,,,72,100
26112,note_on,,,,,64,0,8,,,,,1,,,81,85
26112,note_on,,,,,512,0,15,,,,,7,,,53,100
26112,note_on,,,,,512,0,12,,,,,5,,,53,70
26112,note_on,,,,,512,0,13,,,,,6,,,41,70
26300,note_off,,,,,188,0,8,,,,,1,,,81,100
26304,note_on,,,,,4,0,8,,,,,1,,,77,85
26368,note_off,,,,,256,0,12,,,,,5,,,53,100
26368,note_off,,,,,256,0,15,,,,,7,,,53,100
26368,note_off,,,,,64,0,8,,,,,1,,,77,100
26368,note_off,,,,,256,0,14,,,,,7,,,69,100
26368,note_off,,,,,0,0,14,,,,,7,,,72,100
26368,note_off,,,,,256,0,13,,,,,6,,,41,100
26400,note_on,,,,,32,0,8,,,,,1,,,81,85
26464,note_off,,,,,64,0,8,,,,,1,,,81,100
26496,note_on,,,,,128,0,14,,,,,7,,,67,100
26496,note_on,,,,,0,0,14,,,,,7,,,76,100
26496,note_on,,,,,32,0,8,,,,,1,,,79,85
26496,note_on,,,,,128,0,13,,,,,6,,,48,70
26496,note_on,,,,,128,0,12,,,,,5,,,60,70
26496,note_on,,,,,128,0,15,,,,,7,,,60,100
26560,note_off,,,,,64,0,8,,,,,1,,,79,100
26592,note_on,,,,,32,0,8,,,,,1,,,76,85
26656,note_off,,,,,64,0,8,,,,,1,,,76,100
26688,note_on,,,,,32,0,8,,,,,1,,,74,85
26752,note_off,,,,,256,0,13,,,,,6,,,48,100
26752,note_off,,,,,64,0,8,,,,,1,,,74,100
26752,note_off,,,,,0,0,14,,,,,7,,,76,100
26752,note_off,,,,,256,0,14,,,,,7,,,67,100
26752,note_off,,,,,256,0,15,,,,,7,,,60,100
26752,note_off,,,,,256,0,12,,,,,5,,,60,100
26784,note_on,,,,,32,0,8,,,,,1,,,76,85
26848,note_off,,,,,64,0,8,,,,,1,,,76,100
26880,note_on,,,,,32,0,8,,,,,1,,,72,85
27008,note_off,,,,,128,0,8,,,,,1,,,72,100
27072,note_on,,,,,64,0,8,,,,,1,,,82,85
27200,note_off,,,,,128,0,8,,,,,1,,,82,100
27264,note_on,,,,,512,0,15,,,,,7,,,48,100
27264,note_on,,,,,512,0,13,,,,,6,,,36,70
27264,note_on,,,,,0,0,14,,,,,7,,,67,100
27264,note_on,,,,,512,0,12,,,,,5,,,48,70
27264,note_on,,,,,512,0,14,,,,,7,,,70,100
27264,note_on,,,,,64,0,8,,,,,1,,,82,85
27452,note_off,,,,,188,0,8,,,,,1,,,82,100
27456,note_on,,,,,4,0,8,,,,,1,,,79,85
27520,note_off,,,,,256,0,14,,,,,7,,,70,100
27520,note_off,,,,,0,0,14,,,,,7,,,67,100
27520,note_off,,,,,256,0,12,,,,,5,,,48,100
27520,note_off,,,,,64,0,8,,,,,1,,,79,100
27520,note_off,,,,,256,0,15,,,,,7,,,48,100
27520,note_off,,,,,256,0,13,,,,,6,,,36,100
27552,note_on,,,,,32,0,8,,,,,1,,,82,85
27616,note_off,,,,,64,0,8,,,,,1,,,82,100
27648,note_on,,,,,128,0,12,,,,,5,,,53,70
27648,note_on,,,,,128,0,15,,,,,7,,,53,100
27648,note_on,,,,,128,0,14,,,,,7,,,72,100
27648,note_on,,,,,0,0,14,,,,,7,,,69,100
27648,note_on,,,,,32,0,8,,,,,1,,,81,85
27648,note_on,,,,,128,0,13,,,,,6,,,41,70
27712,note_off,,,,,64,0,8,,,,,1,,,81,100
27744,note_on,,,,,32,0,8,,,,,1,,,77,86
27808,note_off,,,,,64,0,8,,,,,1,,,77,100
27840,note_on,,,,,32,0,8,,,,,1,,,76,87
27904,note_off,,,,,256,0,15,,,,,7,,,53,100
27904,note_off,,,,,256,0,14,,,,,7,,,72,100
27904,note_off,,,,,64,0,8,,,,,1,,,76,100
27904,note_off,,,,,256,0,13,,,,,6,,,41,100
27904,note_off,,,,,256,0,12,,,,,5,,,53,100
27904,note_off,,,,,0,0,14,,,,,7,,,69,100
27936,note_on,,,,,32,0,8,,,,,1,,,77,89
28000,note_off,,,,,64,0,8,,,,,1,,,77,100
28032,note_on,,,,,32,0,8,,,,,1,,,72,90
28160,note_off,,,,,128,0,8,,,,,1,,,72,100
28224,note_on,,,,,64,0,8,,,,,1,,,81,93
28352,note_off,,,,,128,0,8,,,,,1,,,81,100
28416,note_on,,,,,512,0,12,,,,,5,,,53,74
28416,note_on,,,,,512,0,15,,,,,7,,,53,100
28416,note_on,,,,,64,0,8,,,,,1,,,81,95
28416,note_on,,,,,0,0,14,,,,,7,,,72,100
28416,note_on,,,,,512,0,14,,,,,7,,,69,100
28416,note_on,,,,,512,0,13,,,,,6,,,41,74
28604,note_off,,,,,188,0,8,,,,,1,,,81,100
28608,note_on,,,,,4,0,8,,,,,1,,,77,98
28672,note_off,,,,,256,0,15,,,,,7,,,53,100
28672,note_off,,,,,64,0,8,,,,,1,,,77,100
28672,note_off,,,,,256,0,12,,,,,5,,,53,100
28672,note_off,,,,,256,0,14,,,,,7,,,69,100
28672,note_off,,,,,0,0,14,,,,,7,,,72,100
28672,note_off,,,,,256,0,13,,,,,6,,,41,100
28704,note_on,,,,,32,0,8,,,,,1,,,81,99
28768,note_off,,,,,64,0,8,,,,,1,,,81,100
28800,note_on,,,,,0,0,14,,,,,7,,,76,100
28800,note_on,,,,,128,0,13,,,,,6,,,48,77
28800,note_on,,,,,128,0,12,,,,,5,,,60,77
28800,note_on,,,,,128,0,14,,,,,7,,,67,100
28800,note_on,,,,,128,0,15,,,,,7,,,60,100
28800,note_on,,,,,32,0,8,,,,,1,,,79,100
28864,note_off,,,,,64,0,8,,,,,1,,,79,100
28896,note_on,,,,,32,0,8,,,,,1,,,76,100
28960,note_off,,,,,64,0,8,,,,,1,,,76,100
28992,note_on,,,,,32,0,8,,,,,1,,,74,100
29056,note_off,,,,,256,0,13,,,,,6,,,48,100
29056,note_off,,,,,256,0,15,,,,,7,,,60,100
29056,note_off,,,,,0,0,14,,,,,7,,,76,100
29056,note_off,,,,,256,0,14,,,,,7,,,67,100
29056,note_off,,,,,256,0,12,,,,,5,,,60,100
29056,note_off,,,,,64,0,8,,,,,1,,,74,100
29088,note_on,,,,,32,0,8,,,,,1,,,76,100
29152,note_off,,,,,64,0,8,,,,,1,,,76,100
29184,note_on,,,,,32,0,8,,,,,1,,,72,100
29248,note_off,,,,,64,0,8,,,,,1,,,72,100
29280,note_on,,,,,32,0,8,,,,,1,,,79,100
29344,note_off,,,,,64,0,8,,,,,1,,,79,100
29376,note_on,,,,,32,0,8,,,,,1,,,77,100
29440,note_off,,,,,64,0,8,,,,,1,,,77,100
29472,note_on,,,,,32,0,8,,,,,1,,,79,100
29536,note_off,,,,,64,0,8,,,,,1,,,79,100
29568,note_on,,,,,512,0,14,,,,,7,,,70,100
29568,note_on,,,,,512,0,12,,,,,5,,,48,82
29568,note_on,,,,,512,0,15,,,,,7,,,48,100
29568,note_on,,,,,512,0,13,,,,,6,,,36,82
29568,note_on,,,,,32,0,8,,,,,1,,,76,100
29568,note_on,,,,,0,0,14,,,,,7,,,67,100
29632,note_off,,,,,64,0,8,,,,,1,,,76,100
29664,note_on,,,,,32,0,8,,,,,1,,,82,100
29728,note_off,,,,,64,0,8,,,,,1,,,82,100
29760,note_on,,,,,32,0,8,,,,,1,,,81,100
29824,note_off,,,,,64,0,8,,,,,1,,,81,100
29824,note_off,,,,,256,0,15,,,,,7,,,48,100
29824,note_off,,,,,256,0,12,,,,,5,,,48,100
29824,note_off,,,,,256,0,13,,,,,6,,,36,100
29824,note_off,,,,,256,0,14,,,,,7,,,70,100
29824,note_off,,,,,0,0,14,,,,,7,,,67,100
29856,note_on,,,,,32,0,8,,,,,1,,,79,100
29920,note_off,,,,,64,0,8,,,,,1,,,79,100
29952,note_on,,,,,0,0,14,,,,,7,,,72,100
29952,note_on,,,,,128,0,15,,,,,7,,,53,100
29952,note_on,,,,,128,0,13,,,,,6,,,41,84
29952,note_on,,,,,128,0,12,,,,,5,,,53,84
29952,note_on,,,,,32,0,8,,,,,1,,,81,100
29952,note_on,,,,,128,0,14,,,,,7,,,69,100
30044,note_off,,,,,92,0,8,,,,,1,,,81,100
30048,note_on,,,,,4,0,8,,,,,1,,,77,100
30140,note_off,,,,,92,0,8,,,,,1,,,77,100
30144,note_on,,,,,4,0,8,,,,,1,,,79,100
30208,note_off,,,,,64,0,8,,,,,1,,,79,100
30208,note_off,,,,,256,0,15,,,,,7,,,53,100
30208,note_off,,,,,256,0,13,,,,,6,,,41,100
30208,note_off,,,,,256,0,12,,,,,5,,,53,100
30208,note_off,,,,,0,0,14,,,,,7,,,72,100
30208,note_off,,,,,256,0,14,,,,,7,,,69,100
30240,note_on,,,,,32,0,8,,,,,1,,,81,100
30304,note_off,,,,,64,0,8,,,,,1,,,81,100
30336,note_on,,,,,128,0,12,,,,,5,,,55,85
30336,note_on,,,,,0,0,14,,,,,7,,,74,100
30336,note_on,,,,,128,0,14,,,,,7,,,71,100
30336,note_on,,,,,128,0,13,,,,,6,,,43,85
30336,note_on,,,,,128,0,15,,,,,7,,,55,100
30336,note_on,,,,,32,0,8,,,,,1,,,71,100
30400,note_off,,,,,64,0,8,,,,,1,,,71,100
30432,note_on,,,,,32,0,8,,,,,1,,,74,98
30496,note_off,,,,,64,0,8,,,,,1,,,74,100
30528,note_on,,,,,32,0,8,,,,,1,,,72,96
30592,note_off,,,,,0,0,14,,,,,7,,,74,100
30592,note_off,,,,,256,0,14,,,,,7,,,71,100
30592,note_off,,,,,256,0,12,,,,,5,,,55,100
30592,note_off,,,,,64,0,8,,,,,1,,,72,100
30592,note_off,,,,,256,0,13,,,,,6,,,43,100
30592,note_off,,,,,256,0,15,,,,,7,,,55,100
30624,note_on,,,,,32,0,8,,,,,1,,,71,94
30688,note_off,,,,,64,0,8,,,,,1,,,71,100
30720,note_on,,,,,0,0,14,,,,,7,,,65,100
30720,note_on,,,,,128,0,14,,,,,7,,,67,100
30720,note_on,,,,,128,0,15,,,,,7,,,47,100
30720,note_on,,,,,128,0,13,,,,,6,,,35,85
30720,note_on,,,,,128,0,12,,,,,5,,,47,85
30720,note_on,,,,,32,0,8,,,,,1,,,79,92
30784,note_off,,,,,64,0,8,,,,,1,,,79,100
30816,note_on,,,,,32,0,8,,,,,1,,,74,90
30880,note_off,,,,,64,0,8,,,,,1,,,74,100
30912,note_on,,,,,32,0,8,,,,,1,,,76,88
30976,note_off,,,,,256,0,13,,,,,6,,,35,100
30976,note_off,,,,,256,0,12,,,,,5,,,47,100
30976,note_off,,,,,0,0,14,,,,,7,,,65,100
30976,note_off,,,,,256,0,15,,,,,7,,,47,100
30976,note_off,,,,,256,0,14,,,,,7,,,67,100
30976,note_off,,,,,64,0,8,,,,,1,,,76,100
31008,note_on,,,,,32,0,8,,,,,1,,,77,86
31072,note_off,,,,,64,0,8,,,,,1,,,77,100
31104,program_change,,,,,10024,0,9,,,,,2,40,,,
31104,note_on,,,,,128,0,12,,,,,5,,,48,85
31104,note_on,,,,,128,0,15,,,,,7,,,48,100
31104,note_on,,,,,32,0,8,,,,,1,,,76,85
31104,note_on,,,,,0,0,14,,,,,7,,,67,100
31104,note_on,,,,,128,0,14,,,,,7,,,64,100
31104,note_on,,,,,128,0,13,,,,,6,,,36,85
31200,note_on,,,,,96,0,9,,,,,2,,,79,85
31232,note_off,,,,,128,0,8,,,,,1,,,76,100
31264,note_off,,,,,64,0,9,,,,,2,,,79,100
31296,note_on,,,,,32,0,9,,,,,2,,,77,85
31296,note_on,,,,,64,0,8,,,,,1,,,72,85
31360,note_off,,,,,256,0,13,,,,,6,,,36,100
31360,note_off,,,,,256,0,12,,,,,5,,,48,100
31360,note_off,,,,,64,0,9,,,,,2,,,77,100
31360,note_off,,,,,256,0,14,,,,,7,,,64,100
31360,note_off,,,,,256,0,15,,,,,7,,,48,100
31360,note_off,,,,,0,0,14,,,,,7,,,67,100
31392,note_on,,,,,32,0,9,,,,,2,,,79,85
31424,note_off,,,,,128,0,8,,,,,1,,,72,100
31456,note_off,,,,,64,0,9,,,,,2,,,79,100
31488,note_on,,,,,32,0,9,,,,,2,,,76,85
31488,note_on,,,,,64,0,8,,,,,1,,,79,85
31552,note_off,,,,,64,0,9,,,,,2,,,76,100
31584,note_on,,,,,32,0,9,,,,,2,,,77,86
31648,note_off,,,,,64,0,9,,,,,2,,,77,100
31680,note_on,,,,,6464,0,7,,,,,0,,,72,86
31680,note_on,,,,,32,0,9,,,,,2,,,74,86
31744,note_off,,,,,64,0,9,,,,,2,,,74,100
31744,note_off,,,,,256,0,8,,,,,1,,,79,100
31776,note_on,,,,,32,0,9,,,,,2,,,76,86
31808,note_off,,,,,128,0,7,,,,,0,,,72,100
31840,note_off,,,,,64,0,9,,,,,2,,,76,100
31872,note_on,,,,,32,0,9,,,,,2,,,72,86
31872,note_on,,,,,512,0,12,,,,,5,,,52,85
31872,note_on,,,,,64,0,7,,,,,0,,,79,86
31872,note_on,,,,,512,0,13,,,,,6,,,40,85
31872,note_on,,,,,0,0,14,,,,,7,,,67,100
31872,note_on,,,,,512,0,14,,,,,7,,,72,100
31872,note_on,,,,,512,0,15,,,,,7,,,52,100
31936,note_off,,,,,64,0,9,,,,,2,,,72,100
31968,note_on,,,,,32,0,9,,,,,2,,,74,86
32000,note_off,,,,,128,0,7,,,,,0,,,79,100
32032,note_off,,,,,64,0,9,,,,,2,,,74,100
32064,note_on,,,,,32,0,9,,,,,2,,,70,87
32064,note_on,,,,,64,0,7,,,,,0,,,72,87
32128,note_off,,,,,256,0,13,,,,,6,,,40,100
32128,note_off,,,,,0,0,14,,,,,7,,,67,100
32128,note_off,,,,,256,0,15,,,,,7,,,52,100
32128,note_off,,,,,256,0,12,,,,,5,,,52,100
32128,note_off,,,,,64,0,9,,,,,2,,,70,100
32128,note_off,,,,,256,0,14,,,,,7,,,72,100
32160,note_on,,,,,32,0,9,,,,,2,,,72,87
32192,note_off,,,,,128,0,7,,,,,0,,,72,100
32224,note_off,,,,,64,0,9,,,,,2,,,72,100
32256,note_on,,,,,128,0,14,,,,,7,,,69,100
32256,note_on,,,,,0,0,14,,,,,7,,,72,100
32256,note_on,,,,,64,0,7,,,,,0,,,72,87
32256,note_on,,,,,128,0,12,,,,,5,,,53,85
32256,note_on,,,,,32,0,9,,,,,2,,,69,87
32256,note_on,,,,,128,0,15,,,,,7,,,53,100
32256,note_on,,,,,128,0,13,,,,,6,,,41,85
32320,note_off,,,,,64,0,9,,,,,2,,,69,100
32352,note_on,,,,,32,0,9,,,,,2,,,81,87
32416,note_off,,,,,64,0,9,,,,,2,,,81,100
32448,note_on,,,,,32,0,9,,,,,2,,,79,87
32448,note_on,,,,,704,0,8,,,,,1,,,72,87
32512,note_off,,,,,64,0,9,,,,,2,,,79,100
32512,note_off,,,,,256,0,7,,,,,0,,,72,100
32512,note_off,,,,,0,0,14,,,,,7,,,72,100
32512,note_off,,,,,256,0,12,,,,,5,,,53,100
32512,note_off,,,,,256,0,15,,,,,7,,,53,100
32512,note_off,,,,,256,0,13,,,,,6,,,41,100
32512,note_off,,,,,256,0,14,,,,,7,,,69,100
32544,note_on,,,,,32,0,9,,,,,2,,,81,88
32576,note_off,,,,,128,0,8,,,,,1,,,72,100
32608,note_off,,,,,64,0,9,,,,,2,,,81,100
32640,note_on,,,,,32,0,9,,,,,2,,,77,88
32640,note_on,,,,,64,0,8,,,,,1,,,81,88
32704,note_off,,,,,64,0,9,,,,,2,,,77,100
32736,note_on,,,,,32,0,9,,,,,2,,,79,88
32800,note_off,,,,,64,0,9,,,,,2,,,79,100
32832,note_on,,,,,320,0,7,,,,,0,,,72,88
32832,note_on,,,,,32,0,9,,,,,2,,,76,88
32896,note_off,,,,,256,0,8,,,,,1,,,81,100
32896,note_off,,,,,64,0,9,,,,,2,,,76,100
32928,note_on,,,,,32,0,9,,,,,2,,,77,88
32960,note_off,,,,,128,0,7,,,,,0,,,72,100
32992,note_off,,,,,64,0,9,,,,,2,,,77,100
33024,note_on,,,,,512,0,14,,,,,7,,,74,100
33024,note_on,,,,,512,0,15,,,,,7,,,54,100
33024,note_on,,,,,64,0,7,,,,,0,,,81,89
33024,note_on,,,,,0,0,14,,,,,7,,,69,100
33024,note_on,,,,,32,0,9,,,,,2,,,74,89
33024,note_on,,,,,512,0,13,,,,,6,,,42,85
33024,note_on,,,,,512,0,12,,,,,5,,,54,85
33088,note_off,,,,,64,0,9,,,,,2,,,74,100
33120,note_on,,,,,32,0,9,,,,,2,,,76,89
33152,note_off,,,,,128,0,7,,,,,0,,,81,100
33184,note_off,,,,,64,0,9,,,,,2,,,76,100
33216,note_on,,,,,64,0,7,,,,,0,,,74,89
33216,note_on,,,,,32,0,9,,,,,2,,,72,89
33280,note_off,,,,,64,0,9,,,,,2,,,72,100
33280,note_off,,,,,256,0,13,,,,,6,,,42,100
33280,note_off,,,,,256,0,14,,,,,7,,,74,100
33280,note_off,,,,,0,0,14,,,,,7,,,69,100
33280,note_off,,,,,256,0,12,,,,,5,,,54,100
33280,note_off,,,,,256,0,15,,,,,7,,,54,100
33312,note_on,,,,,32,0,9,,,,,2,,,74,89
33344,note_off,,,,,128,0,7,,,,,0,,,74,100
33376,note_off,,,,,64,0,9,,,,,2,,,74,100
33408,note_on,,,,,128,0,15,,,,,7,,,55,100
33408,note_on,,,,,128,0,13,,,,,6,,,43,85
33408,note_on,,,,,64,0,7,,,,,0,,,74,89
33408,note_on,,,,,128,0,12,,,,,5,,,55,85
33408,note_on,,,,,32,0,9,,,,,2,,,71,89
33408,note_on,,,,,128,0,14,,,,,7,,,71,100
33408,note_on,,,,,0,0,14,,,,,7,,,74,100
33472,note_off,,,,,64,0,9,,,,,2,,,71,100
33504,note_on,,,,,32,0,9,,,,,2,,,83,90
33568,note_off,,,,,64,0,9,,,,,2,,,83,100
33600,note_on,,,,,704,0,8,,,,,1,,,74,90
33600,note_on,,,,,32,0,9,,,,,2,,,81,90
33664,note_off,,,,,256,0,14,,,,,7,,,71,100
33664,note_off,,,,,0,0,14,,,,,7,,,74,100
33664,note_off,,,,,256,0,12,,,,,5,,,55,100
33664,note_off,,,,,64,0,9,,,,,2,,,81,100
33664,note_off,,,,,256,0,13,,,,,6,,,43,100
33664,note_off,,,,,256,0,7,,,,,0,,,74,100
33664,note_off,,,,,256,0,15,,,,,7,,,55,100
33696,note_on,,,,,32,0,9,,,,,2,,,83,90
33728,note_off,,,,,128,0,8,,,,,1,,,74,100
33760,note_off,,,,,64,0,9,,,,,2,,,83,100
33792,note_on,,,,,64,0,8,,,,,1,,,83,90
33792,note_on,,,,,32,0,9,,,,,2,,,79,90
33856,note_off,,,,,64,0,9,,,,,2,,,79,100
33888,note_on,,,,,32,0,9,,,,,2,,,81,91
33952,note_off,,,,,64,0,9,,,,,2,,,81,100
33984,note_on,,,,,320,0,7,,,,,0,,,74,91
33984,note_on,,,,,32,0,9,,,,,2,,,77,91
34048,note_off,,,,,256,0,8,,,,,1,,,83,100
34048,note_off,,,,,64,0,9,,,,,2,,,77,100
34080,note_on,,,,,32,0,9,,,,,2,,,79,91
34112,note_off,,,,,128,0,7,,,,,0,,,74,100
34144,note_off,,,,,64,0,9,,,,,2,,,79,100
34176,note_on,,,,,32,0,9,,,,,2,,,76,91
34176,note_on,,,,,512,0,12,,,,,5,,,56,85
34176,note_on,,,,,512,0,14,,,,,7,,,76,100
34176,note_on,,,,,512,0,13,,,,,6,,,44,85
34176,note_on,,,,,64,0,7,,,,,0,,,83,91
34176,note_on,,,,,512,0,15,,,,,7,,,56,100
34176,note_on,,,,,0,0,14,,,,,7,,,71,100
34240,note_off,,,,,64,0,9,,,,,2,,,76,100
34272,note_on,,,,,32,0,9,,,,,2,,,77,91
34304,note_off,,,,,128,0,7,,,,,0,,,83,100
34336,note_off,,,,,64,0,9,,,,,2,,,77,100
34368,note_on,,,,,64,0,7,,,,,0,,,76,92
34368,note_on,,,,,32,0,9,,,,,2,,,74,92
34432,note_off,,,,,256,0,14,,,,,7,,,76,100
34432,note_off,,,,,0,0,14,,,,,7,,,71,100
34432,note_off,,,,,64,0,9,,,,,2,,,74,100
34432,note_off,,,,,256,0,13,,,,,6,,,44,100
34432,note_off,,,,,256,0,15,,,,,7,,,56,100
34432,note_off,,,,,256,0,12,,,,,5,,,56,100
34464,note_on,,,,,32,0,9,,,,,2,,,76,92
34496,note_off,,,,,128,0,7,,,,,0,,,76,100
34528,note_off,,,,,64,0,9,,,,,2,,,76,100
34560,note_on,,,,,128,0,14,,,,,7,,,72,100
34560,note_on,,,,,0,0,14,,,,,7,,,76,100
34560,note_on,,,,,128,0,12,,,,,5,,,57,85
34560,note_on,,,,,128,0,13,,,,,6,,,45,85
34560,note_on,,,,,128,0,15,,,,,7,,,57,100
34560,note_on,,,,,64,0,7,,,,,0,,,76,92
34560,note_on,,,,,32,0,9,,,,,2,,,72,92
34624,note_off,,,,,64,0,9,,,,,2,,,72,100
34656,note_on,,,,,32,0,9,,,,,2,,,81,92
34720,note_off,,,,,64,0,9,,,,,2,,,81,100
34752,note_on,,,,,704,0,8,,,,,1,,,76,92
34752,note_on,,,,,32,0,9,,,,,2,,,79,92
34816,note_off,,,,,64,0,9,,,,,2,,,79,100
34816,note_off,,,,,256,0,7,,,,,0,,,76,100
34816,note_off,,,,,256,0,14,,,,,7,,,72,100
34816,note_off,,,,,256,0,12,,,,,5,,,57,100
34816,note_off,,,,,256,0,13,,,,,6,,,45,100
34816,note_off,,,,,0,0,14,,,,,7,,,76,100
34816,note_off,,,,,256,0,15,,,,,7,,,57,100
34848,note_on,,,,,32,0,9,,,,,2,,,81,93
34880,note_off,,,,,128,0,8,,,,,1,,,76,100
34912,note_off,,,,,64,0,9,,,,,2,,,81,100
34944,note_on,,,,,64,0,8,,,,,1,,,81,93
34944,note_on,,,,,32,0,9,,,,,2,,,77,93
35008,note_off,,,,,64,0,9,,,,,2,,,77,100
35040,note_on,,,,,32,0,9,,,,,2,,,79,93
35104,note_off,,,,,64,0,9,,,,,2,,,79,100
35136,note_on,,,,,32,0,9,,,,,2,,,76,93
35136,note_on,,,,,320,0,7,,,,,0,,,76,93
35200,note_off,,,,,256,0,8,,,,,1,,,81,100
35200,note_off,,,,,64,0,9,,,,,2,,,76,100
35232,note_on,,,,,32,0,9,,,,,2,,,77,93
35264,note_off,,,,,128,0,7,,,,,0,,,76,100
35296,note_off,,,,,64,0,9,,,,,2,,,77,100
35328,note_on,,,,,512,0,12,,,,,5,,,53,85
35328,note_on,,,,,0,0,14,,,,,7,,,69,100
35328,note_on,,,,,64,0,7,,,,,0,,,81,94
35328,note_on,,,,,512,0,14,,,,,7,,,74,100
35328,note_on,,,,,32,0,9,,,,,2,,,74,94
35328,note_on,,,,,512,0,13,,,,,6,,,41,85
35328,note_on,,,,,512,0,15,,,,,7,,,53,100
35392,note_off,,,,,64,0,9,,,,,2,,,74,100
35424,note_on,,,,,32,0,9,,,,,2,,,76,94
35456,note_off,,,,,128,0,7,,,,,0,,,81,100
35488,note_off,,,,,64,0,9,,,,,2,,,76,100
35520,note_on,,,,,64,0,7,,,,,0,,,77,94
35520,note_on,,,,,32,0,9,,,,,2,,,72,94
35584,note_off,,,,,256,0,13,,,,,6,,,41,100
35584,note_off,,,,,256,0,14,,,,,7,,,74,100
35584,note_off,,,,,256,0,15,,,,,7,,,53,100
35584,note_off,,,,,0,0,14,,,,,7,,,69,100
35584,note_off,,,,,64,0,9,,,,,2,,,72,100
35584,note_off,,,,,256,0,12,,,,,5,,,53,100
35616,note_on,,,,,32,0,9,,,,,2,,,74,94
35648,note_off,,,,,128,0,7,,,,,0,,,77,100
35680,note_off,,,,,64,0,9,,,,,2,,,74,100
35712,note_on,,,,,128,0,12,,,,,5,,,55,85
35712,note_on,,,,,32,0,9,,,,,2,,,71,94
35712,note_on,,,,,512,0,8,,,,,1,,,74,94
35712,note_on,,,,,128,0,13,,,,,6,,,43,85
35712,note_on,,,,,128,0,14,,,,,7,,,71,100
35712,note_on,,,,,0,0,14,,,,,7,,,74,100
35712,note_on,,,,,64,0,7,,,,,0,,,77,94
35712,note_on,,,,,128,0,15,,,,,7,,,55,100
35804,note_off,,,,,92,0,9,,,,,2,,,71,100
35808,note_on,,,,,4,0,9,,,,,2,,,67,95
35872,note_off,,,,,64,0,9,,,,,2,,,67,100
35904,note_off,,,,,192,0,8,,,,,1,,,74,100
35904,note_off,,,,,192,0,7,,,,,0,,,77,100
35904,note_on,,,,,32,0,9,,,,,2,,,71,95
35968,note_off,,,,,256,0,13,,,,,6,,,43,100
35968,note_off,,,,,256,0,14,,,,,7,,,71,100
35968,note_off,,,,,256,0,15,,,,,7,,,55,100
35968,note_off,,,,,256,0,12,,,,,5,,,55,100
35968,note_off,,,,,0,0,14,,,,,7,,,74,100
35996,note_off,,,,,92,0,9,,,,,2,,,71,100
36000,note_on,,,,,96,0,7,,,,,0,,,79,95
36000,note_on,,,,,4,0,9,,,,,2,,,74,95
36000,note_on,,,,,96,0,8,,,,,1,,,76,95
36064,note_off,,,,,64,0,7,,,,,0,,,79,100
36064,note_off,,,,,64,0,9,,,,,2,,,74,100
36064,note_off,,,,,64,0,8,,,,,1,,,76,100
36096,note_on,,,,,0,0,14,,,,,7,,,62,100
36096,note_on,,,,,128,0,12,,,,,5,,,43,85
36096,note_on,,,,,32,0,8,,,,,1,,,74,95
36096,note_on,,,,,128,0,15,,,,,7,,,43,100
36096,note_on,,,,,128,0,13,,,,,6,,,43,85
36096,note_on,,,,,32,0,7,,,,,0,,,77,95
36096,note_on,,,,,128,0,14,,,,,7,,,71,100
36096,note_on,,,,,32,0,9,,,,,2,,,74,96
36188,note_off,,,,,92,0,9,,,,,2,,,74,100
36192,note_on,,,,,4,0,9,,,,,2,,,71,96
36256,note_off,,,,,64,0,9,,,,,2,,,71,100
36288,note_off,,,,,192,0,8,,,,,1,,,74,100
36288,note_on,,,,,32,0,9,,,,,2,,,74,96
36288,note_off,,,,,192,0,7,,,,,0,,,77,100
36352,note_off,,,,,256,0,12,,,,,5,,,43,100
36352,note_off,,,,,256,0,14,,,,,7,,,71,100
36352,note_off,,,,,256,0,15,,,,,7,,,43,100
36352,note_off,,,,,0,0,14,,,,,7,,,62,100
36352,note_off,,,,,256,0,13,,,,,6,,,43,100
36380,note_off,,,,,92,0,9,,,,,2,,,74,100
36384,note_on,,,,,96,0,7,,,,,0,,,79,96
36384,note_on,,,,,96,0,8,,,,,1,,,76,96
36384,note_on,,,,,4,0,9,,,,,2,,,77,96
36448,note_off,,,,,64,0,9,,,,,2,,,77,100
36448,note_off,,,,,64,0,8,,,,,1,,,76,100
36448,note_off,,,,,64,0,7,,,,,0,,,79,100
36480,note_on,,,,,32,0,7,,,,,0,,,77,96
36480,note_on,,,,,128,0,12,,,,,5,,,43,85
36480,note_on,,,,,32,0,8,,,,,1,,,74,96
36480,note_on,,,,,32,0,9,,,,,2,,,77,96
36480,note_on,,,,,128,0,14,,,,,7,,,71,100
36480,note_on,,,,,128,0,15,,,,,7,,,43,100
36480,note_on,,,,,0,0,14,,,,,7,,,62,100
36480,note_on,,,,,128,0,13,,,,,6,,,43,85
36576,note_on,,,,,96,0,9,,,,,2,,,74,96
36608,note_off,,,,,32,0,9,,,,,2,,,77,100
36640,note_off,,,,,160,0,8,,,,,1,,,74,100
36672,note_off,,,,,192,0,7,,,,,0,,,77,100
36672,note_off,,,,,64,0,9,,,,,2,,,74,100
36672,note_on,,,,,0,0,9,,,,,2,,,77,97
36736,note_off,,,,,256,0,15,,,,,7,,,43,100
36736,note_off,,,,,256,0,14,,,,,7,,,71,100
36736,note_off,,,,,256,0,12,,,,,5,,,43,100
36736,note_off,,,,,256,0,13,,,,,6,,,43,100
36736,note_off,,,,,0,0,14,,,,,7,,,62,100
36764,note_off,,,,,92,0,9,,,,,2,,,77,100
36768,note_on,,,,,128,0,8,,,,,1,,,76,97
36768,note_on,,,,,96,0,7,,,,,0,,,79,97
36768,note_on,,,,,4,0,9,,,,,2,,,83,97
36832,note_off,,,,,64,0,8,,,,,1,,,76,100
36832,note_off,,,,,64,0,9,,,,,2,,,83,100
36832,note_off,,,,,64,0,7,,,,,0,,,79,100
36864,note_on,,,,,32,0,9,,,,,2,,,83,97
36864,note_on,,,,,32,0,7,,,,,0,,,77,97
36864,note_on,,,,,128,0,14,,,,,7,,,71,100
36864,note_on,,,,,128,0,15,,,,,7,,,43,100
36864,note_on,,,,,0,0,14,,,,,7,,,62,100
36864,note_on,,,,,128,0,12,,,,,5,,,43,85
36864,note_on,,,,,32,0,8,,,,,1,,,74,97
36864,note_on,,,,,128,0,13,,,,,6,,,43,85
36956,note_off,,,,,92,0,9,,,,,2,,,83,100
36960,note_on,,,,,4,0,9,,,,,2,,,79,97
37024,note_off,,,,,64,0,9,,,,,2,,,79,100
37056,note_on,,,,,32,0,9,,,,,2,,,83,97
37120,note_off,,,,,256,0,15,,,,,7,,,43,100
37120,note_off,,,,,256,0,12,,,,,5,,,43,100
37120,note_off,,,,,0,0,14,,,,,7,,,62,100
37120,note_off,,,,,256,0,14,,,,,7,,,71,100
37120,note_off,,,,,256,0,13,,,,,6,,,43,100
37148,note_off,,,,,92,0,9,,,,,2,,,83,100
37152,note_on,,,,,4,0,9,,,,,2,,,79,98
37216,note_off,,,,,64,0,9,,,,,2,,,79,100
37244,note_off,,,,,380,0,8,,,,,1,,,74,100
37244,note_off,,,,,380,0,7,,,,,0,,,77,100
37248,note_on,,,,,128,0,12,,,,,5,,,43,85
37248,note_on,,,,,32,0,9,,,,,2,,,79,98
37248,note_on,,,,,128,0,14,,,,,7,,,71,100
37248,note_on,,,,,0,0,14,,,,,7,,,62,100
37248,note_on,,,,,4,0,7,,,,,0,,,74,98
37248,note_on,,,,,128,0,15,,,,,7,,,43,100
37248,note_on,,,,,128,0,13,,,,,6,,,43,85
37248,note_on,,,,,4,0,8,,,,,1,,,71,98
37340,note_off,,,,,92,0,9,,,,,2,,,79,100
37344,note_on,,,,,4,0,9,,,,,2,,,77,98
37408,note_off,,,,,64,0,9,,,,,2,,,77,100
37440,note_on,,,,,32,0,9,,,,,2,,,83,98
37504,note_off,,,,,0,0,14,,,,,7,,,62,100
37504,note_off,,,,,256,0,13,,,,,6,,,43,100
37504,note_off,,,,,256,0,15,,,,,7,,,43,100
37504,note_off,,,,,256,0,7,,,,,0,,,74,100
37504,note_off,,,,,256,0,14,,,,,7,,,71,100
37504,note_off,,,,,256,0,8,,,,,1,,,71,100
37504,note_off,,,,,256,0,12,,,,,5,,,43,100
37532,note_off,,,,,92,0,9,,,,,2,,,83,100
37536,note_on,,,,,4,0,9,,,,,2,,,79,98
37600,note_off,,,,,64,0,9,,,,,2,,,79,100
37632,note_on,,,,,32,0,9,,,,,2,,,79,99
37632,note_on,,,,,128,0,12,,,,,5,,,43,85
37632,note_on,,,,,128,0,14,,,,,7,,,71,100
37632,note_on,,,,,128,0,15,,,,,7,,,43,100
37632,note_on,,,,,128,0,7,,,,,0,,,71,99
37632,note_on,,,,,128,0,13,,,,,6,,,43,85
37632,note_on,,,,,128,0,8,,,,,1,,,67,99
37632,note_on,,,,,0,0,14,,,,,7,,,62,100
37724,note_off,,,,,92,0,9,,,,,2,,,79,100
37728,note_on,,,,,4,0,9,,,,,2,,,77,99
37792,note_off,,,,,64,0,9,,,,,2,,,77,100
37824,note_on,,,,,32,0,9,,,,,2,,,83,99
37888,note_off,,,,,256,0,8,,,,,1,,,67,100
37888,note_off,,,,,0,0,14,,,,,7,,,62,100
37888,note_off,,,,,256,0,13,,,,,6,,,43,100
37888,note_off,,,,,256,0,7,,,,,0,,,71,100
37888,note_off,,,,,256,0,15,,,,,7,,,43,100
37888,note_off,,,,,256,0,14,,,,,7,,,71,100
37888,note_off,,,,,256,0,12,,,,,5,,,43,100
37916,note_off,,,,,92,0,9,,,,,2,,,83,100
37920,note_on,,,,,4,0,9,,,,,2,,,79,99
37984,note_off,,,,,64,0,9,,,,,2,,,79,100
38016,note_on,,,,,32,0,9,,,,,2,,,76,99
38016,note_on,,,,,128,0,12,,,,,5,,,48,85
38016,note_on,,,,,128,0,8,,,,,1,,,67,99
38016,note_on,,,,,128,0,7,,,,,0,,,72,99
38016,note_on,,,,,128,0,13,,,,,6,,,36,85
38016,note_on,,,,,0,0,14,,,,,7,,,67,100
38016,note_on,,,,,128,0,14,,,,,7,,,64,100
38016,note_on,,,,,128,0,15,,,,,7,,,48,100
38144,note_off,,,,,128,0,9,,,,,2,,,76,100
38208,note_on,,,,,64,0,9,,,,,2,,,84,100
38272,note_off,,,,,256,0,15,,,,,7,,,48,100
38272,note_off,,,,,256,0,13,,,,,6,,,36,100
38272,note_off,,,,,256,0,8,,,,,1,,,67,100
38272,note_off,,,,,0,0,14,,,,,7,,,67,100
38272,note_off,,,,,256,0,7,,,,,0,,,72,100
38272,note_off,,,,,256,0,12,,,,,5,,,48,100
38272,note_off,,,,,256,0,14,,,,,7,,,64,100
38336,note_off,,,,,128,0,9,,,,,2,,,84,100
38400,note_on,,,,,64,0,9,,,,,2,,,76,100
38528,note_off,,,,,128,0,9,,,,,2,,,76,100
38592,note_on,,,,,64,0,9,,,,,2,,,84,100
38592,note_on,,,,,320,0,7,,,,,0,,,79,100
38592,note_on,,,,,320,0,12,,,,,5,,,48,85
38592,note_on,,,,,0,0,14,,,,,7,,,67,100
38592,note_on,,,,,320,0,14,,,,,7,,,64,100
38592,note_on,,,,,320,0,15,,,,,7,,,48,100
38592,note_on,,,,,320,0,8,,,,,1,,,76,100
38592,note_on,,,,,320,0,13,,,,,6,,,36,85
38720,note_off,,,,,128,0,8,,,,,1,,,76,100
38720,note_off,,,,,128,0,15,,,,,7,,,48,100
38720,note_off,,,,,128,0,12,,,,,5,,,48,100
38720,note_off,,,,,128,0,9,,,,,2,,,84,100
38720,note_off,,,,,0,0,14,,,,,7,,,67,100
38720,note_off,,,,,128,0,14,,,,,7,,,64,100
38720,note_off,,,,,128,0,13,,,,,6,,,36,100
38720,note_off,,,,,128,0,7,,,,,0,,,79,100
38784,note_on,,,,,0,0,14,,,,,7,,,64,100
38784,note_on,,,,,64,0,14,,,,,7,,,74,100
38784,note_on,,,,,64,0,8,,,,,1,,,79,100
38784,note_on,,,,,64,0,12,,,,,5,,,55,85
38784,note_on,,,,,64,0,9,,,,,2,,,74,100
38784,note_on,,,,,64,0,13,,,,,6,,,43,85
38784,note_on,,,,,64,0,7,,,,,0,,,71,100
38784,note_on,,,,,64,0,15,,,,,7,,,55,100
38912,note_off,,,,,128,0,9,,,,,2,,,74,100
38912,note_off,,,,,128,0,13,,,,,6,,,43,100
38912,note_off,,,,,128,0,12,,,,,5,,,55,100
38912,note_off,,,,,128,0,15,,,,,7,,,55,100
38912,note_off,,,,,128,0,14,,,,,7,,,74,100
38912,note_off,,,,,0,0,14,,,,,7,,,64,100
38912,note_off,,,,,128,0,8,,,,,1,,,79,100
38912,note_off,,,,,128,0,7,,,,,0,,,71,100
38976,note_on,,,,,64,0,13,,,,,6,,,43,85
38976,note_on,,,,,64,0,14,,,,,7,,,59,100
38976,note_on,,,,,64,0,7,,,,,0,,,79,100
38976,note_on,,,,,64,0,12,,,,,5,,,43,85
38976,note_on,,,,,64,0,15,,,,,7,,,43,100
38976,note_on,,,,,64,0,9,,,,,2,,,83,100
38976,note_on,,,,,0,0,14,,,,,7,,,62,100
38976,note_on,,,,,64,0,8,,,,,1,,,74,100
39104,note_off,,,,,128,0,12,,,,,5,,,43,100
39104,note_off,,,,,128,0,13,,,,,6,,,43,100
39104,note_off,,,,,128,0,9,,,,,2,,,83,100
39104,note_off,,,,,128,0,15,,,,,7,,,43,100
39104,note_off,,,,,128,0,8,,,,,1,,,74,100
39104,note_off,,,,,128,0,14,,,,,7,,,59,100
39104,note_off,,,,,128,0,7,,,,,0,,,79,100
39104,note_off,,,,,0,0,14,,,,,7,,,62,100
39168,note_on,,,,,64,0,7,,,,,0,,,76,100
39168,note_on,,,,,64,0,8,,,,,1,,,72,100
39168,note_on,,,,,64,0,15,,,,,7,,,48,100
39168,program_change,,,,,18088,0,10,,,,,3,40,,,
39168,note_on,,,,,64,0,12,,,,,5,,,48,85
39168,note_on,,,,,64,0,9,,,,,2,,,84,100
39168,note_on,,,,,64,0,13,,,,,6,,,36,85
39168,note_on,,,,,64,0,14,,,,,7,,,67,100
39168,note_on,,,,,0,0,14,,,,,7,,,64,100
39264,note_on,,,,,96,0,10,,,,,3,,,79,85
39296,note_off,,,,,128,0,7,,,,,0,,,76,100
39296,note_off,,,,,128,0,8,,,,,1,,,72,100
39328,note_off,,,,,64,0,10,,,,,3,,,79,100
39360,note_on,,,,,64,0,7,,,,,0,,,72,85
39360,note_on,,,,,32,0,10,,,,,3,,,77,85
39424,note_off,,,,,256,0,12,,,,,5,,,48,100
39424,note_off,,,,,256,0,13,,,,,6,,,36,100
39424,note_off,,,,,64,0,10,,,,,3,,,77,100
39424,note_off,,,,,256,0,9,,,,,2,,,84,100
39424,note_off,,,,,256,0,14,,,,,7,,,67,100
39424,note_off,,,,,256,0,15,,,,,7,,,48,100
39424,note_off,,,,,0,0,14,,,,,7,,,64,100
39456,note_on,,,,,32,0,10,,,,,3,,,79,85
39488,note_off,,,,,128,0,7,,,,,0,,,72,100
39520,note_off,,,,,64,0,10,,,,,3,,,79,100
39552,note_on,,,,,64,0,7,,,,,0,,,79,85
39552,note_on,,,,,32,0,10,,,,,3,,,76,85
39616,note_off,,,,,64,0,10,,,,,3,,,76,100
39648,note_on,,,,,32,0,10,,,,,3,,,77,85
39712,note_off,,,,,64,0,10,,,,,3,,,77,100
39744,note_on,,,,,32,0,10,,,,,3,,,74,86
39744,note_on,,,,,320,0,9,,,,,2,,,72,86
39808,note_off,,,,,256,0,7,,,,,0,,,79,100
39808,note_off,,,,,64,0,10,,,,,3,,,74,100
39840,note_on,,,,,32,0,10,,,,,3,,,76,86
39872,note_off,,,,,128,0,9,,,,,2,,,72,100
39904,note_off,,,,,64,0,10,,,,,3,,,76,100
39936,note_on,,,,,512,0,13,,,,,6,,,40,85
39936,note_on,,,,,64,0,9,,,,,2,,,79,86
39936,note_on,,,,,0,0,14,,,,,7,,,67,100
39936,note_on,,,,,512,0,12,,,,,5,,,52,85
39936,note_on,,,,,32,0,10,,,,,3,,,72,86
39936,note_on,,,,,512,0,15,,,,,7,,,52,100
39936,note_on,,,,,512,0,14,,,,,7,,,72,100
40000,note_off,,,,,64,0,10,,,,,3,,,72,100
40032,note_on,,,,,32,0,10,,,,,3,,,74,86
40064,note_off,,,,,128,0,9,,,,,2,,,79,100
40096,note_off,,,,,64,0,10,,,,,3,,,74,100
40128,note_on,,,,,32,0,10,,,,,3,,,70,86
40128,note_on,,,,,64,0,9,,,,,2,,,72,86
40192,note_off,,,,,256,0,12,,,,,5,,,52,100
40192,note_off,,,,,256,0,13,,,,,6,,,40,100
40192,note_off,,,,,0,0,14,,,,,7,,,67,100
40192,note_off,,,,,256,0,14,,,,,7,,,72,100
40192,note_off,,,,,64,0,10,,,,,3,,,70,100
40192,note_off,,,,,256,0,15,,,,,7,,,52,100
40224,note_on,,,,,32,0,10,,,,,3,,,72,87
40256,note_off,,,,,128,0,9,,,,,2,,,72,100
40288,note_off,,,,,64,0,10,,,,,3,,,72,100
40320,note_on,,,,,0,0,14,,,,,7,,,72,100
40320,note_on,,,,,32,0,10,,,,,3,,,69,87
40320,note_on,,,,,128,0,13,,,,,6,,,41,85
40320,note_on,,,,,128,0,14,,,,,7,,,69,100
40320,note_on,,,,,128,0,12,,,,,5,,,53,85
40320,note_on,,,,,64,0,9,,,,,2,,,72,87
40320,note_on,,,,,128,0,15,,,,,7,,,53,100
40384,note_off,,,,,64,0,10,,,,,3,,,69,100
40416,note_on,,,,,32,0,10,,,,,3,,,81,87
40480,note_off,,,,,64,0,10,,,,,3,,,81,100
40512,note_on,,,,,32,0,10,,,,,3,,,79,87
40512,note_on,,,,,704,0,7,,,,,0,,,72,87
40576,note_off,,,,,256,0,14,,,,,7,,,69,100
40576,note_off,,,,,0,0,14,,,,,7,,,72,100
40576,note_off,,,,,256,0,13,,,,,6,,,41,100
40576,note_off,,,,,256,0,9,,,,,2,,,72,100
40576,note_off,,,,,256,0,15,,,,,7,,,53,100
40576,note_off,,,,,256,0,12,,,,,5,,,53,100
40576,note_off,,,,,64,0,10,,,,,3,,,79,100
40608,note_on,,,,,32,0,10,,,,,3,,,81,87
40640,note_off,,,,,128,0,7,,,,,0,,,72,100
40672,note_off,,,,,64,0,10,,,,,3,,,81,100
40704,note_on,,,,,32,0,10,,,,,3,,,77,88
40704,note_on,,,,,64,0,7,,,,,0,,,81,88
40768,note_off,,,,,64,0,10,,,,,3,,,77,100
40800,note_on,,,,,32,0,10,,,,,3,,,79,88
40864,note_off,,,,,64,0,10,,,,,3,,,79,100
40896,note_on,,,,,320,0,9,,,,,2,,,72,88
40896,note_on,,,,,32,0,10,,,,,3,,,76,88
40960,note_off,,,,,64,0,10,,,,,3,,,76,100
40960,note_off,,,,,256,0,7,,,,,0,,,81,100
40992,note_on,,,,,32,0,10,,,,,3,,,77,88
41024,note_off,,,,,128,0,9,,,,,2,,,72,100
41056,note_off,,,,,64,0,10,,,,,3,,,77,100
41088,note_on,,,,,0,0,14,,,,,7,,,69,100
41088,note_on,,,,,32,0,10,,,,,3,,,74,89
41088,note_on,,,,,512,0,15,,,,,7,,,54,100
41088,note_on,,,,,512,0,13,,,,,6,,,42,85
41088,note_on,,,,,64,0,9,,,,,2,,,81,89
41088,note_on,,,,,512,0,12,,,,,5,,,54,85
41088,note_on,,,,,512,0,14,,,,,7,,,74,100
41152,note_off,,,,,64,0,10,,,,,3,,,74,100
41184,note_on,,,,,32,0,10,,,,,3,,,76,89
41216,note_off,,,,,128,0,9,,,,,2,,,81,100
41248,note_off,,,,,64,0,10,,,,,3,,,76,100
41280,note_on,,,,,64,0,9,,,,,2,,,74,89
41280,note_on,,,,,32,0,10,,,,,3,,,72,89
41344,note_off,,,,,0,0,14,,,,,7,,,69,100
41344,note_off,,,,,256,0,12,,,,,5,,,54,100
41344,note_off,,,,,256,0,15,,,,,7,,,54,100
41344,note_off,,,,,256,0,13,,,,,6,,,42,100
41344,note_off,,,,,64,0,10,,,,,3,,,72,100
41344,note_off,,,,,256,0,14,,,,,7,,,74,100
41376,note_on,,,,,32,0,10,,,,,3,,,74,89
41408,note_off,,,,,128,0,9,,,,,2,,,74,100
41440,note_off,,,,,64,0,10,,,,,3,,,74,100
41472,note_on,,,,,64,0,9,,,,,2,,,74,89
41472,note_on,,,,,128,0,15,,,,,7,,,55,100
41472,note_on,,,,,128,0,14,,,,,7,,,71,100
41472,note_on,,,,,0,0,14,,,,,7,,,74,100
41472,note_on,,,,,128,0,12,,,,,5,,,55,85
41472,note_on,,,,,32,0,10,,,,,3,,,71,89
41472,note_on,,,,,128,0,13,,,,,6,,,43,85
41536,note_off,,,,,64,0,10,,,,,3,,,71,100
41568,note_on,,,,,32,0,10,,,,,3,,,83,90
41632,note_off,,,,,64,0,10,,,,,3,,,83,100
41664,note_on,,,,,32,0,10,,,,,3,,,81,90
41664,note_on,,,,,704,0,7,,,,,0,,,74,90
41728,note_off,,,,,0,0,14,,,,,7,,,74,100
41728,note_off,,,,,256,0,14,,,,,7,,,71,100
41728,note_off,,,,,64,0,10,,,,,3,,,81,100
41728,note_off,,,,,256,0,15,,,,,7,,,55,100
41728,note_off,,,,,256,0,9,,,,,2,,,74,100
41728,note_off,,,,,256,0,12,,,,,5,,,55,100
41728,note_off,,,,,256,0,13,,,,,6,,,43,100
41760,note_on,,,,,32,0,10,,,,,3,,,83,90
41792,note_off,,,,,128,0,7,,,,,0,,,74,100
41824,note_off,,,,,64,0,10,,,,,3,,,83,100
41856,note_on,,,,,32,0,10,,,,,3,,,79,90
41856,note_on,,,,,64,0,7,,,,,0,,,83,90
41920,note_off,,,,,64,0,10,,,,,3,,,79,100
41952,note_on,,,,,32,0,10,,,,,3,,,81,90
42016,note_off,,,,,64,0,10,,,,,3,,,81,100
42048,note_on,,,,,320,0,9,,,,,2,,,74,91
42048,note_on,,,,,32,0,10,,,,,3,,,77,91
42112,note_off,,,,,64,0,10,,,,,3,,,77,100
42112,note_off,,,,,256,0,7,,,,,0,,,83,100
42144,note_on,,,,,32,0,10,,,,,3,,,79,91
42176,note_off,,,,,128,0,9,,,,,2,,,74,100
42208,note_off,,,,,64,0,10,,,,,3,,,79,100
42240,note_on,,,,,512,0,12,,,,,5,,,56,85
42240,note_on,,,,,0,0,14,,,,,7,,,71,100
42240,note_on,,,,,512,0,15,,,,,7,,,56,100
42240,note_on,,,,,512,0,13,,,,,6,,,44,85
42240,note_on,,,,,512,0,14,,,,,7,,,76,100
42240,note_on,,,,,32,0,10,,,,,3,,,76,91
42240,note_on,,,,,64,0,9,,,,,2,,,83,91
42304,note_off,,,,,64,0,10,,,,,3,,,76,100
42336,note_on,,,,,32,0,10,,,,,3,,,77,91
42368,note_off,,,,,128,0,9,,,,,2,,,83,100
42400,note_off,,,,,64,0,10,,,,,3,,,77,100
42432,note_on,,,,,32,0,10,,,,,3,,,74,91
42432,note_on,,,,,64,0,9,,,,,2,,,76,91
42496,note_off,,,,,256,0,14,,,,,7,,,76,100
42496,note_off,,,,,256,0,13,,,,,6,,,44,100
42496,note_off,,,,,256,0,15,,,,,7,,,56,100
42496,note_off,,,,,256,0,12,,,,,5,,,56,100
42496,note_off,,,,,0,0,14,,,,,7,,,71,100
42496,note_off,,,,,64,0,10,,,,,3,,,74,100
42528,note_on,,,,,32,0,10,,,,,3,,,76,92
42560,note_off,,,,,128,0,9,,,,,2,,,76,100
42592,note_off,,,,,64,0,10,,,,,3,,,76,100
42624,note_on,,,,,128,0,14,,,,,7,,,72,100
42624,note_on,,,,,128,0,13,,,,,6,,,45,85
42624,note_on,,,,,32,0,10,,,,,3,,,72,92
42624,note_on,,,,,128,0,15,,,,,7,,,57,100
42624,note_on,,,,,0,0,14,,,,,7,,,76,100
42624,note_on,,,,,64,0,9,,,,,2,,,76,92
42624,note_on,,,,,128,0,12,,,,,5,,,57,85
42688,note_off,,,,,64,0,10,,,,,3,,,72,100
42720,note_on,,,,,32,0,10,,,,,3,,,81,92
42784,note_off,,,,,64,0,10,,,,,3,,,81,100
42816,note_on,,,,,32,0,10,,,,,3,,,79,92
42816,note_on,,,,,704,0,7,,,,,0,,,76,92
42880,note_off,,,,,256,0,13,,,,,6,,,45,100
42880,note_off,,,,,256,0,15,,,,,7,,,57,100
42880,note_off,,,,,256,0,9,,,,,2,,,76,100
42880,note_off,,,,,64,0,10,,,,,3,,,79,100
42880,note_off,,,,,0,0,14,,,,,7,,,76,100
42880,note_off,,,,,256,0,14,,,,,7,,,72,100
42880,note_off,,,,,256,0,12,,,,,5,,,57,100
42912,note_on,,,,,32,0,10,,,,,3,,,81,93
42944,note_off,,,,,128,0,7,,,,,0,,,76,100
42976,note_off,,,,,64,0,10,,,,,3,,,81,100
43008,note_on,,,,,64,0,7,,,,,0,,,81,93
43008,note_on,,,,,32,0,10,,,,,3,,,77,93
43072,note_off,,,,,64,0,10,,,,,3,,,77,100
43104,note_on,,,,,32,0,10,,,,,3,,,79,93
43168,note_off,,,,,64,0,10,,,,,3,,,79,100
43200,note_on,,,,,32,0,10,,,,,3,,,76,93
43264,note_off,,,,,256,0,7,,,,,0,,,81,100
43296,note_on,,,,,96,0,10,,,,,3,,,77,93
43328,note_off,,,,,32,0,10,,,,,3,,,76,100
43360,note_off,,,,,32,0,10,,,,,3,,,77,100
43392,note_on,,,,,32,0,10,,,,,3,,,74,94
43392,note_on,,,,,512,0,15,,,,,7,,,53,100
43392,note_on,,,,,512,0,9,,,,,2,,,81,94
43392,note_on,,,,,512,0,12,,,,,5,,,53,85
43392,note_on,,,,,512,0,13,,,,,6,,,41,85
43392,note_on,,,,,512,0,14,,,,,7,,,74,100
43392,note_on,,,,,0,0,14,,,,,7,,,69,100
43456,note_off,,,,,64,0,10,,,,,3,,,74,100
43488,note_on,,,,,32,0,10,,,,,3,,,76,94
43520,note_off,,,,,128,0,9,,,,,2,,,81,100
43552,note_off,,,,,64,0,10,,,,,3,,,76,100
43584,note_on,,,,,64,0,9,,,,,2,,,77,94
43584,note_on,,,,,32,0,10,,,,,3,,,72,94
43648,note_off,,,,,0,0,14,,,,,7,,,69,100
43648,note_off,,,,,256,0,14,,,,,7,,,74,100
43648,note_off,,,,,64,0,10,,,,,3,,,72,100
43648,note_off,,,,,256,0,13,,,,,6,,,41,100
43648,note_off,,,,,256,0,15,,,,,7,,,53,100
43648,note_off,,,,,256,0,12,,,,,5,,,53,100
43680,note_on,,,,,32,0,10,,,,,3,,,74,94
43712,note_off,,,,,128,0,9,,,,,2,,,77,100
43744,note_off,,,,,64,0,10,,,,,3,,,74,100
43776,note_on,,,,,128,0,14,,,,,7,,,71,100
43776,note_on,,,,,128,0,15,,,,,7,,,55,100
43776,note_on,,,,,32,0,10,,,,,3,,,71,94
43776,note_on,,,,,128,0,13,,,,,6,,,43,85
43776,note_on,,,,,128,0,12,,,,,5,,,55,85
43776,note_on,,,,,64,0,9,,,,,2,,,77,94
43776,note_on,,,,,512,0,7,,,,,0,,,74,94
43776,note_on,,,,,0,0,14,,,,,7,,,74,100
43868,note_off,,,,,92,0,10,,,,,3,,,71,100
43872,note_on,,,,,4,0,10,,,,,3,,,67,95
43936,note_off,,,,,64,0,10,,,,,3,,,67,100
43968,note_off,,,,,192,0,7,,,,,0,,,74,100
43968,note_on,,,,,32,0,10,,,,,3,,,71,95
43968,note_off,,,,,192,0,9,,,,,2,,,77,100
44032,note_off,,,,,256,0,15,,,,,7,,,55,100
44032,note_off,,,,,0,0,14,,,,,7,,,74,100
44032,note_off,,,,,256,0,14,,,,,7,,,71,100
44032,note_off,,,,,256,0,13,,,,,6,,,43,100
44032,note_off,,,,,256,0,12,,,,,5,,,55,100
44060,note_off,,,,,92,0,10,,,,,3,,,71,100
44064,note_on,,,,,96,0,7,,,,,0,,,76,95
44064,note_on,,,,,96,0,9,,,,,2,,,79,95
44064,note_on,,,,,4,0,10,,,,,3,,,74,95
44128,note_off,,,,,64,0,7,,,,,0,,,76,100
44128,note_off,,,,,64,0,9,,,,,2,,,79,100
44128,note_off,,,,,64,0,10,,,,,3,,,74,100
44160,note_on,,,,,32,0,10,,,,,3,,,74,95
44160,note_on,,,,,128,0,15,,,,,7,,,43,100
44160,note_on,,,,,32,0,7,,,,,0,,,74,95
44160,note_on,,,,,32,0,9,,,,,2,,,77,95
44160,note_on,,,,,0,0,14,,,,,7,,,62,100
44160,note_on,,,,,128,0,14,,,,,7,,,71,100
44160,note_on,,,,,128,0,13,,,,,6,,,43,85
44160,note_on,,,,,128,0,12,,,,,5,,,43,85
44252,note_off,,,,,92,0,10,,,,,3,,,74,100
44256,note_on,,,,,4,0,10,,,,,3,,,71,95
44320,note_off,,,,,64,0,10,,,,,3,,,71,100
44352,note_off,,,,,192,0,7,,,,,0,,,74,100
44352,note_off,,,,,192,0,9,,,,,2,,,77,100
44352,note_on,,,,,32,0,10,,,,,3,,,74,96
44416,note_off,,,,,256,0,12,,,,,5,,,43,100
44416,note_off,,,,,256,0,13,,,,,6,,,43,100
44416,note_off,,,,,256,0,14,,,,,7,,,71,100
44416,note_off,,,,,0,0,14,,,,,7,,,62,100
44416,note_off,,,,,256,0,15,,,,,7,,,43,100
44444,note_off,,,,,92,0,10,,,,,3,,,74,100
44448,note_on,,,,,4,0,10,,,,,3,,,77,96
44448,note_on,,,,,96,0,9,,,,,2,,,79,96
44448,note_on,,,,,96,0,7,,,,,0,,,76,96
44512,note_off,,,,,64,0,7,,,,,0,,,76,100
44512,note_off,,,,,64,0,9,,,,,2,,,79,100
44512,note_off,,,,,64,0,10,,,,,3,,,77,100
44544,note_on,,,,,128,0,12,,,,,5,,,43,85
44544,note_on,,,,,32,0,9,,,,,2,,,77,96
44544,note_on,,,,,0,0,14,,,,,7,,,62,100
44544,note_on,,,,,128,0,14,,,,,7,,,71,100
44544,note_on,,,,,32,0,10,,,,,3,,,77,95
44544,note_on,,,,,128,0,13,,,,,6,,,43,85
44544,note_on,,,,,128,0,15,,,,,7,,,43,100
44544,note_on,,,,,32,0,7,,,,,0,,,74,96
44636,note_off,,,,,92,0,10,,,,,3,,,77,100
44640,note_on,,,,,4,0,10,,,,,3,,,74,96
44704,note_off,,,,,160,0,7,,,,,0,,,74,100
44736,note_off,,,,,192,0,9,,,,,2,,,77,100
44736,note_off,,,,,96,0,10,,,,,3,,,74,100
44736,note_on,,,,,0,0,10,,,,,3,,,77,97
44800,note_off,,,,,256,0,14,,,,,7,,,71,100
44800,note_off,,,,,0,0,14,,,,,7,,,62,100
44800,note_off,,,,,256,0,15,,,,,7,,,43,100
44800,note_off,,,,,256,0,13,,,,,6,,,43,100
44800,note_off,,,,,256,0,12,,,,,5,,,43,100
44828,note_off,,,,,92,0,10,,,,,3,,,77,100
44832,note_on,,,,,128,0,7,,,,,0,,,76,97
44832,note_on,,,,,96,0,9,,,,,2,,,79,97
44832,note_on,,,,,4,0,10,,,,,3,,,83,97
44896,note_off,,,,,64,0,7,,,,,0,,,76,100
44896,note_off,,,,,64,0,9,,,,,2,,,79,100
44896,note_off,,,,,64,0,10,,,,,3,,,83,100
44928,note_on,,,,,32,0,7,,,,,0,,,74,97
44928,note_on,,,,,0,0,14,,,,,7,,,62,100
44928,note_on,,,,,128,0,14,,,,,7,,,71,100
44928,note_on,,,,,32,0,10,,,,,3,,,83,97
44928,note_on,,,,,128,0,13,,,,,6,,,43,85
44928,note_on,,,,,128,0,12,,,,,5,,,43,85
44928,note_on,,,,,32,0,9,,,,,2,,,77,97
44928,note_on,,,,,128,0,15,,,,,7,,,43,100
45020,note_off,,,,,92,0,10,,,,,3,,,83,100
45024,note_on,,,,,4,0,10,,,,,3,,,79,97
45088,note_off,,,,,64,0,10,,,,,3,,,79,100
45120,note_on,,,,,32,0,10,,,,,3,,,83,97
45184,note_off,,,,,256,0,13,,,,,6,,,43,100
45184,note_off,,,,,256,0,12,,,,,5,,,43,100
45184,note_off,,,,,256,0,15,,,,,7,,,43,100
45184,note_off,,,,,256,0,14,,,,,7,,,71,100
45184,note_off,,,,,0,0,14,,,,,7,,,62,100
45212,note_off,,,,,92,0,10,,,,,3,,,83,100
45216,note_on,,,,,4,0,10,,,,,3,,,79,98
45280,note_off,,,,,64,0,10,,,,,3,,,79,100
45308,note_off,,,,,380,0,9,,,,,2,,,77,100
45308,note_off,,,,,380,0,7,,,,,0,,,74,100
45312,note_on,,,,,128,0,13,,,,,6,,,43,85
45312,note_on,,,,,128,0,14,,,,,7,,,71,100
45312,note_on,,,,,0,0,14,,,,,7,,,62,100
45312,note_on,,,,,4,0,9,,,,,2,,,74,98
45312,note_on,,,,,32,0,10,,,,,3,,,79,98
45312,note_on,,,,,4,0,7,,,,,0,,,71,98
45312,note_on,,,,,128,0,15,,,,,7,,,43,100
45312,note_on,,,,,128,0,12,,,,,5,,,43,85
45404,note_off,,,,,92,0,10,,,,,3,,,79,100
45408,note_on,,,,,4,0,10,,,,,3,,,77,98
45472,note_off,,,,,64,0,10,,,,,3,,,77,100
45504,note_on,,,,,32,0,10,,,,,3,,,83,98
45568,note_off,,,,,256,0,15,,,,,7,,,43,100
45568,note_off,,,,,256,0,13,,,,,6,,,43,100
45568,note_off,,,,,256,0,12,,,,,5,,,43,100
45568,note_off,,,,,256,0,14,,,,,7,,,71,100
45568,note_off,,,,,0,0,14,,,,,7,,,62,100
45568,note_off,,,,,256,0,9,,,,,2,,,74,100
45568,note_off,,,,,256,0,7,,,,,0,,,71,100
45596,note_off,,,,,92,0,10,,,,,3,,,83,100
45600,note_on,,,,,4,0,10,,,,,3,,,79,98
45664,note_off,,,,,64,0,10,,,,,3,,,79,100
45696,note_on,,,,,32,0,10,,,,,3,,,79,99
45696,note_on,,,,,128,0,7,,,,,0,,,67,99
45696,note_on,,,,,128,0,13,,,,,6,,,43,85
45696,note_on,,,,,128,0,12,,,,,5,,,43,85
45696,note_on,,,,,128,0,14,,,,,7,,,71,100
45696,note_on,,,,,0,0,14,,,,,7,,,62,100
45696,note_on,,,,,128,0,15,,,,,7,,,43,100
45696,note_on,,,,,128,0,9,,,,,2,,,71,99
45788,note_off,,,,,92,0,10,,,,,3,,,79,100
45792,note_on,,,,,4,0,10,,,,,3,,,77,99
45856,note_off,,,,,64,0,10,,,,,3,,,77,100
45888,note_on,,,,,32,0,10,,,,,3,,,83,99
45952,note_off,,,,,256,0,9,,,,,2,,,71,100
45952,note_off,,,,,256,0,7,,,,,0,,,67,100
45952,note_off,,,,,256,0,12,,,,,5,,,43,100
45952,note_off,,,,,256,0,13,,,,,6,,,43,100
45952,note_off,,,,,256,0,15,,,,,7,,,43,100
45952,note_off,,,,,0,0,14,,,,,7,,,62,100
45952,note_off,,,,,256,0,14,,,,,7,,,71,100
45980,note_off,,,,,92,0,10,,,,,3,,,83,100
45984,note_on,,,,,4,0,10,,,,,3,,,79,99
46048,note_off,,,,,64,0,10,,,,,3,,,79,100
46080,note_on,,,,,128,0,13,,,,,6,,,36,85
46080,note_on,,,,,128,0,7,,,,,0,,,67,99
46080,note_on,,,,,128,0,14,,,,,7,,,64,100
46080,note_on,,,,,128,0,15,,,,,7,,,48,100
46080,note_on,,,,,128,0,12,,,,,5,,,48,85
46080,note_on,,,,,128,0,9,,,,,2,,,72,99
46080,note_on,,,,,0,0,14,,,,,7,,,67,100
46080,note_on,,,,,32,0,10,,,,,3,,,76,99
46208,note_off,,,,,128,0,10,,,,,3,,,76,100
46272,note_on,,,,,64,0,10,,,,,3,,,84,100
46336,note_off,,,,,0,0,14,,,,,7,,,67,100
46336,note_off,,,,,256,0,9,,,,,2,,,72,100
46336,note_off,,,,,256,0,12,,,,,5,,,48,100
46336,note_off,,,,,256,0,7,,,,,0,,,67,100
46336,note_off,,,,,256,0,15,,,,,7,,,48,100
46336,note_off,,,,,256,0,13,,,,,6,,,36,100
46336,note_off,,,,,256,0,14,,,,,7,,,64,100
46400,note_off,,,,,128,0,10,,,,,3,,,84,100
46464,note_on,,,,,64,0,10,,,,,3,,,76,100
46592,note_off,,,,,128,0,10,,,,,3,,,76,100
46656,note_on,,,,,320,0,14,,,,,7,,,64,100
46656,note_on,,,,,320,0,15,,,,,7,,,48,100
46656,note_on,,,,,320,0,13,,,,,6,,,36,85
46656,note_on,,,,,320,0,7,,,,,0,,,76,100
46656,note_on,,,,,64,0,10,,,,,3,,,84,100
46656,note_on,,,,,320,0,12,,,,,5,,,48,85
46656,note_on,,,,,0,0,14,,,,,7,,,67,100
46656,note_on,,,,,320,0,9,,,,,2,,,79,100
46784,note_off,,,,,128,0,15,,,,,7,,,48,100
46784,note_off,,,,,128,0,13,,,,,6,,,36,100
46784,note_off,,,,,128,0,14,,,,,7,,,64,100
46784,note_off,,,,,128,0,9,,,,,2,,,79,100
46784,note_off,,,,,128,0,7,,,,,0,,,76,100
46784,note_off,,,,,0,0,14,,,,,7,,,67,100
46784,note_off,,,,,128,0,10,,,,,3,,,84,100
46784,note_off,,,,,128,0,12,,,,,5,,,48,100
46848,note_on,,,,,64,0,10,,,,,3,,,74,100
46848,note_on,,,,,64,0,15,,,,,7,,,55,100
46848,note_on,,,,,64,0,7,,,,,0,,,79,100
46848,note_on,,,,,64,0,12,,,,,5,,,55,85
46848,note_on,,,,,64,0,9,,,,,2,,,71,100
46848,note_on,,,,,64,0,14,,,,,7,,,74,100
46848,note_on,,,,,0,0,14,,,,,7,,,64,100
46848,note_on,,,,,64,0,13,,,,,6,,,43,85
46976,note_off,,,,,128,0,15,,,,,7,,,55,100
46976,note_off,,,,,0,0,14,,,,,7,,,64,100
46976,note_off,,,,,128,0,13,,,,,6,,,43,100
46976,note_off,,,,,128,0,9,,,,,2,,,71,100
46976,note_off,,,,,128,0,14,,,,,7,,,74,100
46976,note_off,,,,,128,0,12,,,,,5,,,55,100
46976,note_off,,,,,128,0,7,,,,,0,,,79,100
46976,note_off,,,,,128,0,10,,,,,3,,,74,100
47040,note_on,,,,,64,0,13,,,,,6,,,43,85
47040,note_on,,,,,64,0,14,,,,,7,,,59,100
47040,note_on,,,,,0,0,14,,,,,7,,,62,100
47040,note_on,,,,,64,0,15,,,,,7,,,43,100
47040,note_on,,,,,64,0,12,,,,,5,,,43,85
47040,note_on,,,,,64,0,7,,,,,0,,,74,100
47040,note_on,,,,,64,0,10,,,,,3,,,83,100
47040,note_on,,,,,64,0,9,,,,,2,,,79,100
47168,note_off,,,,,128,0,12,,,,,5,,,43,100
47168,note_off,,,,,128,0,10,,,,,3,,,83,100
47168,note_off,,,,,128,0,7,,,,,0,,,74,100
47168,note_off,,,,,128,0,13,,,,,6,,,43,100
47168,note_off,,,,,128,0,15,,,,,7,,,43,100
47168,note_off,,,,,128,0,9,,,,,2,,,79,100
47168,note_off,,,,,128,0,14,,,,,7,,,59,100
47168,note_off,,,,,0,0,14,,,,,7,,,62,100
47224,program_change,,,,,56,0,9,,,,,2,48,,,
47224,program_change,,,,,56,0,7,,,,,0,48,,,
47224,program_change,,,,,7928,0,8,,,,,1,48,,,
47224,program_change,,,,,56,0,10,,,,,3,48,,,
47232,note_on,,,,,8,0,7,,,,,0,,,72,100
47232,note_on,,,,,8,0,8,,,,,1,,,79,85
47232,note_on,,,,,64,0,12,,,,,5,,,48,85
47232,note_on,,,,,8,0,9,,,,,2,,,76,85
47232,note_on,,,,,0,0,11,,,,,4,,,67,85
47232,note_on,,,,,26152,0,11,,,,,4,,,64,85
47232,note_on,,,,,64,0,14,,,,,7,,,64,100
47232,note_on,,,,,0,0,14,,,,,7,,,67,100
47232,note_on,,,,,64,0,15,,,,,7,,,48,100
47232,note_on,,,,,64,0,13,,,,,6,,,36,85
47232,note_on,,,,,8,0,10,,,,,3,,,84,85
47488,note_off,,,,,256,0,8,,,,,1,,,79,100
47488,note_off,,,,,256,0,9,,,,,2,,,76,100
47488,note_off,,,,,256,0,10,,,,,3,,,84,100
47488,note_off,,,,,256,0,7,,,,,0,,,72,100
47616,note_on,,,,,128,0,9,,,,,2,,,72,35
47616,note_on,,,,,128,0,7,,,,,0,,,72,85
47616,note_on,,,,,128,0,10,,,,,3,,,76,35
47616,note_on,,,,,128,0,8,,,,,1,,,76,85
47744,note_off,,,,,512,0,13,,,,,6,,,36,100
47744,note_off,,,,,512,0,15,,,,,7,,,48,100
47744,note_off,,,,,512,0,11,,,,,4,,,64,100
47744,note_off,,,,,512,0,14,,,,,7,,,64,100
47744,note_off,,,,,0,0,14,,,,,7,,,67,100
47744,note_off,,,,,0,0,11,,,,,4,,,67,100
47744,note_off,,,,,512,0,12,,,,,5,,,48,100
47872,note_off,,,,,256,0,10,,,,,3,,,76,100
47872,note_off,,,,,256,0,7,,,,,0,,,72,100
47872,note_off,,,,,256,0,8,,,,,1,,,76,100
47872,note_off,,,,,256,0,9,,,,,2,,,72,100
48288,note_on,,,,,544,0,12,,,,,5,,,48,85
48288,note_on,,,,,416,0,8,,,,,1,,,79,85
48288,note_on,,,,,544,0,13,,,,,6,,,36,85
48288,note_on,,,,,416,0,7,,,,,0,,,82,85
48288,note_on,,,,,416,0,9,,,,,2,,,82,35
48288,note_on,,,,,544,0,15,,,,,7,,,48,100
48288,note_on,,,,,416,0,10,,,,,3,,,79,35
48288,note_on,,,,,544,0,11,,,,,4,,,64,85
48288,note_on,,,,,544,0,14,,,,,7,,,67,100
48288,note_on,,,,,0,0,14,,,,,7,,,70,100
48352,note_off,,,,,64,0,8,,,,,1,,,79,100
48352,note_off,,,,,64,0,15,,,,,7,,,48,100
48352,note_off,,,,,64,0,9,,,,,2,,,82,100
48352,note_off,,,,,64,0,14,,,,,7,,,67,100
48352,note_off,,,,,64,0,12,,,,,5,,,48,100
48352,note_off,,,,,64,0,7,,,,,0,,,82,100
48352,note_off,,,,,64,0,13,,,,,6,,,36,100
48352,note_off,,,,,64,0,11,,,,,4,,,64,100
48352,note_off,,,,,0,0,14,,,,,7,,,70,100
48352,note_off,,,,,64,0,10,,,,,3,,,79,100
48384,note_on,,,,,32,0,14,,,,,7,,,72,100
48384,note_on,,,,,0,0,14,,,,,7,,,69,100
48384,note_on,,,,,32,0,11,,,,,4,,,60,85
48384,note_on,,,,,32,0,10,,,,,3,,,77,35
48384,note_on,,,,,32,0,13,,,,,6,,,41,85
48384,note_on,,,,,32,0,7,,,,,0,,,81,85
48384,note_on,,,,,32,0,12,,,,,5,,,53,85
48384,note_on,,,,,32,0,15,,,,,7,,,53,100
48384,note_on,,,,,32,0,8,,,,,1,,,77,85
48384,note_on,,,,,32,0,9,,,,,2,,,81,35
48640,note_off,,,,,256,0,7,,,,,0,,,81,100
48640,note_off,,,,,256,0,10,,,,,3,,,77,100
48640,note_off,,,,,256,0,8,,,,,1,,,77,100
48640,note_off,,,,,256,0,9,,,,,2,,,81,100
48768,note_on,,,,,128,0,10,,,,,3,,,69,35
48768,note_on,,,,,128,0,9,,,,,2,,,65,35
48768,note_on,,,,,128,0,8,,,,,1,,,69,85
48768,note_on,,,,,128,0,7,,,,,0,,,65,85
48896,note_off,,,,,512,0,11,,,,,4,,,60,100
48896,note_off,,,,,512,0,13,,,,,6,,,41,100
48896,note_off,,,,,512,0,15,,,,,7,,,53,100
48896,note_off,,,,,512,0,12,,,,,5,,,53,100
48896,note_off,,,,,512,0,14,,,,,7,,,72,100
48896,note_off,,,,,0,0,14,,,,,7,,,69,100
49024,note_off,,,,,256,0,7,,,,,0,,,65,100
49024,note_off,,,,,256,0,9,,,,,2,,,65,100
49024,note_off,,,,,256,0,8,,,,,1,,,69,100
49024,note_off,,,,,256,0,10,,,,,3,,,69,100
49536,note_on,,,,,0,0,11,,,,,4,,,69,85
49536,note_on,,,,,640,0,13,,,,,6,,,33,85
49536,note_on,,,,,640,0,12,,,,,5,,,45,85
49536,note_on,,,,,512,0,10,,,,,3,,,72,35
49536,note_on,,,,,512,0,8,,,,,1,,,72,85
49536,note_on,,,,,0,0,14,,,,,7,,,60,100
49536,note_on,,,,,640,0,14,,,,,7,,,65,100
49536,note_on,,,,,512,0,9,,,,,2,,,77,35
49536,note_on,,,,,640,0,11,,,,,4,,,65,85
49536,note_on,,,,,512,0,7,,,,,0,,,77,85
49536,note_on,,,,,640,0,15,,,,,7,,,45,100
49792,note_off,,,,,256,0,8,,,,,1,,,72,100
49792,note_off,,,,,256,0,9,,,,,2,,,77,100
49792,note_off,,,,,256,0,10,,,,,3,,,72,100
49792,note_off,,,,,256,0,7,,,,,0,,,77,100
49920,note_on,,,,,128,0,8,,,,,1,,,69,85
49920,note_on,,,,,128,0,7,,,,,0,,,65,85
49920,note_on,,,,,128,0,10,,,,,3,,,69,35
49920,note_on,,,,,128,0,9,,,,,2,,,65,35
50048,note_off,,,,,512,0,15,,,,,7,,,45,100
50048,note_off,,,,,512,0,12,,,,,5,,,45,100
50048,note_off,,,,,512,0,11,,,,,4,,,65,100
50048,note_off,,,,,0,0,14,,,,,7,,,60,100
50048,note_off,,,,,512,0,14,,,,,7,,,65,100
50048,note_off,,,,,0,0,11,,,,,4,,,69,100
50048,note_off,,,,,512,0,13,,,,,6,,,33,100
50176,note_off,,,,,256,0,10,,,,,3,,,69,100
50176,note_off,,,,,256,0,8,,,,,1,,,69,100
50176,note_off,,,,,256,0,7,,,,,0,,,65,100
50176,note_off,,,,,256,0,9,,,,,2,,,65,100
50592,note_on,,,,,416,0,9,,,,,2,,,75,35
50592,note_on,,,,,544,0,12,,,,,5,,,45,85
50592,note_on,,,,,416,0,8,,,,,1,,,72,85
50592,note_on,,,,,544,0,11,,,,,4,,,65,85
50592,note_on,,,,,544,0,15,,,,,7,,,45,100
50592,note_on,,,,,0,0,14,,,,,7,,,65,100
50592,note_on,,,,,416,0,10,,,,,3,,,72,35
50592,note_on,,,,,544,0,14,,,,,7,,,63,100
50592,note_on,,,,,544,0,13,,,,,6,,,33,85
50592,note_on,,,,,416,0,7,,,,,0,,,75,85
50656,note_off,,,,,64,0,9,,,,,2,,,75,100
50656,note_off,,,,,0,0,14,,,,,7,,,65,100
50656,note_off,,,,,64,0,14,,,,,7,,,63,100
50656,note_off,,,,,64,0,10,,,,,3,,,72,100
50656,note_off,,,,,64,0,15,,,,,7,,,45,100
50656,note_off,,,,,64,0,7,,,,,0,,,75,100
50656,note_off,,,,,64,0,12,,,,,5,,,45,100
50656,note_off,,,,,64,0,8,,,,,1,,,72,100
50656,note_off,,,,,64,0,11,,,,,4,,,65,100
50656,note_off,,,,,64,0,13,,,,,6,,,33,100
50688,note_on,,,,,0,0,14,,,,,7,,,70,100
50688,note_on,,,,,32,0,9,,,,,2,,,74,35
50688,note_on,,,,,32,0,7,,,,,0,,,74,85
50688,note_on,,,,,32,0,8,,,,,1,,,70,85
50688,note_on,,,,,32,0,14,,,,,7,,,62,100
50688,note_on,,,,,32,0,11,,,,,4,,,65,85
50688,note_on,,,,,32,0,15,,,,,7,,,46,100
50688,note_on,,,,,32,0,13,,,,,6,,,34,85
50688,note_on,,,,,32,0,10,,,,,3,,,70,35
50688,note_on,,,,,32,0,12,,,,,5,,,46,85
50944,note_off,,,,,256,0,7,,,,,0,,,74,100
50944,note_off,,,,,256,0,9,,,,,2,,,74,100
50944,note_off,,,,,256,0,8,,,,,1,,,70,100
50944,note_off,,,,,256,0,10,,,,,3,,,70,100
51072,note_on,,,,,128,0,10,,,,,3,,,62,35
51072,note_on,,,,,128,0,9,,,,,2,,,58,35
51072,note_on,,,,,128,0,8,,,,,1,,,62,85
51072,note_on,,,,,128,0,7,,,,,0,,,58,85
51200,note_off,,,,,512,0,12,,,,,5,,,46,100
51200,note_off,,,,,512,0,15,,,,,7,,,46,100
51200,note_off,,,,,512,0,11,,,,,4,,,65,100
51200,note_off,,,,,512,0,13,,,,,6,,,34,100
51200,note_off,,,,,0,0,14,,,,,7,,,70,100
51200,note_off,,,,,512,0,14,,,,,7,,,62,100
51328,note_off,,,,,256,0,9,,,,,2,,,58,100
51328,note_off,,,,,256,0,8,,,,,1,,,62,100
51328,note_off,,,,,256,0,7,,,,,0,,,58,100
51328,note_off,,,,,256,0,10,,,,,3,,,62,100
51840,note_on,,,,,0,0,11,,,,,4,,,71,85
51840,note_on,,,,,512,0,7,,,,,0,,,79,85
51840,note_on,,,,,0,0,14,,,,,7,,,62,100
51840,note_on,,,,,640,0,14,,,,,7,,,67,100
51840,note_on,,,,,640,0,11,,,,,4,,,67,85
51840,note_on,,,,,512,0,10,,,,,3,,,74,35
51840,note_on,,,,,640,0,15,,,,,7,,,47,100
51840,note_on,,,,,640,0,13,,,,,6,,,35,85
51840,note_on,,,,,640,0,12,,,,,5,,,47,85
51840,note_on,,,,,512,0,8,,,,,1,,,74,85
51840,note_on,,,,,512,0,9,,,,,2,,,79,35
52096,note_off,,,,,256,0,10,,,,,3,,,74,100
52096,note_off,,,,,256,0,8,,,,,1,,,74,100
52096,note_off,,,,,256,0,9,,,,,2,,,79,100
52096,note_off,,,,,256,0,7,,,,,0,,,79,100
52224,note_on,,,,,128,0,10,,,,,3,,,59,35
52224,note_on,,,,,128,0,7,,,,,0,,,55,85
52224,note_on,,,,,128,0,9,,,,,2,,,55,35
52224,note_on,,,,,128,0,8,,,,,1,,,59,85
52352,note_off,,,,,512,0,14,,,,,7,,,67,100
52352,note_off,,,,,0,0,14,,,,,7,,,62,100
52352,note_off,,,,,512,0,13,,,,,6,,,35,100
52352,note_off,,,,,512,0,12,,,,,5,,,47,100
52352,note_off,,,,,512,0,15,,,,,7,,,47,100
52352,note_off,,,,,512,0,11,,,,,4,,,67,100
52352,note_off,,,,,0,0,11,,,,,4,,,71,100
52480,note_off,,,,,256,0,7,,,,,0,,,55,100
52480,note_off,,,,,256,0,10,,,,,3,,,59,100
52480,note_off,,,,,256,0,9,,,,,2,,,55,100
52480,note_off,,,,,256,0,8,,,,,1,,,59,100
52896,note_on,,,,,416,0,10,,,,,3,,,74,35
52896,note_on,,,,,544,0,13,,,,,6,,,35,85
52896,note_on,,,,,416,0,7,,,,,0,,,77,85
52896,note_on,,,,,544,0,12,,,,,5,,,47,85
52896,note_on,,,,,544,0,11,,,,,4,,,67,85
52896,note_on,,,,,416,0,9,,,,,2,,,77,35
52896,note_on,,,,,544,0,15,,,,,7,,,47,100
52896,note_on,,,,,544,0,14,,,,,7,,,65,100
52896,note_on,,,,,0,0,14,,,,,7,,,67,100
52896,note_on,,,,,416,0,8,,,,,1,,,74,85
52960,note_off,,,,,64,0,15,,,,,7,,,47,100
52960,note_off,,,,,64,0,7,,,,,0,,,77,100
52960,note_off,,,,,64,0,10,,,,,3,,,74,100
52960,note_off,,,,,64,0,9,,,,,2,,,77,100
52960,note_off,,,,,64,0,11,,,,,4,,,67,100
52960,note_off,,,,,0,0,14,,,,,7,,,67,100
52960,note_off,,,,,64,0,14,,,,,7,,,65,100
52960,note_off,,,,,64,0,12,,,,,5,,,47,100
52960,note_off,,,,,64,0,8,,,,,1,,,74,100
52960,note_off,,,,,64,0,13,,,,,6,,,35,100
52992,note_on,,,,,0,0,14,,,,,7,,,67,100
52992,note_on,,,,,32,0,7,,,,,0,,,76,85
52992,note_on,,,,,32,0,14,,,,,7,,,64,100
52992,note_on,,,,,32,0,13,,,,,6,,,36,85
52992,note_on,,,,,32,0,10,,,,,3,,,72,35
52992,note_on,,,,,32,0,12,,,,,5,,,48,85
52992,note_on,,,,,32,0,11,,,,,4,,,67,85
52992,note_on,,,,,32,0,8,,,,,1,,,72,85
52992,note_on,,,,,32,0,9,,,,,2,,,76,35
52992,note_on,,,,,32,0,15,,,,,7,,,48,100
53248,note_off,,,,,256,0,7,,,,,0,,,76,100
53248,note_off,,,,,256,0,10,,,,,3,,,72,100
53248,note_off,,,,,256,0,8,,,,,1,,,72,100
53248,note_off,,,,,256,0,9,,,,,2,,,76,100
53376,note_on,,,,,128,0,8,,,,,1,,,64,85
53376,note_on,,,,,128,0,9,,,,,2,,,60,35
53376,note_on,,,,,128,0,10,,,,,3,,,64,35
53376,note_on,,,,,128,0,7,,,,,0,,,60,85
53504,note_off,,,,,512,0,12,,,,,5,,,48,100
53504,note_off,,,,,512,0,13,,,,,6,,,36,100
53504,note_off,,,,,512,0,11,,,,,4,,,67,100
53504,note_off,,,,,512,0,15,,,,,7,,,48,100
53504,note_off,,,,,512,0,14,,,,,7,,,64,100
53504,note_off,,,,,0,0,14,,,,,7,,,67,100
53632,note_off,,,,,256,0,7,,,,,0,,,60,100
53632,note_off,,,,,256,0,8,,,,,1,,,64,100
53632,note_off,,,,,256,0,9,,,,,2,,,60,100
53632,note_off,,,,,256,0,10,,,,,3,,,64,100
53760,program_change,,,,,128,0,8,,,,,1,40,,,
53760,program_change,,,,,128,0,7,,,,,0,40,,,
54140,program_change,,,,,636,0,12,,,,,5,42,,,
54144,note_on,,,,,4,0,12,,,,,5,,,48,85
54144,note_on,,,,,384,0,8,,,,,1,,,79,85
54332,note_off,,,,,188,0,8,,,,,1,,,79,100
54336,note_on,,,,,4,0,8,,,,,1,,,77,85
54400,note_off,,,,,256,0,12,,,,,5,,,48,100
54508,note_off,,,,,172,0,8,,,,,1,,,77,100
54528,note_on,,,,,20,0,8,,,,,1,,,76,85
54528,note_on,,,,,128,0,12,,,,,5,,,60,85
54716,note_off,,,,,188,0,8,,,,,1,,,76,100
54720,note_on,,,,,4,0,8,,,,,1,,,74,85
54784,note_off,,,,,256,0,12,,,,,5,,,60,100
54892,note_off,,,,,172,0,8,,,,,1,,,74,100
54912,note_on,,,,,20,0,8,,,,,1,,,76,85
54912,note_on,,,,,128,0,12,,,,,5,,,48,85
55100,note_off,,,,,188,0,8,,,,,1,,,76,100
55104,note_on,,,,,4,0,8,,,,,1,,,72,85
55168,note_off,,,,,256,0,12,,,,,5,,,48,100
55276,note_off,,,,,172,0,8,,,,,1,,,72,100
55296,note_on,,,,,20,0,8,,,,,1,,,79,85
55296,note_on,,,,,1536,0,7,,,,,0,,,79,85
55296,note_on,,,,,128,0,12,,,,,5,,,48,85
55484,note_off,,,,,188,0,7,,,,,0,,,79,100
55488,note_on,,,,,4,0,7,,,,,0,,,77,85
55552,note_off,,,,,256,0,12,,,,,5,,,48,100
55660,note_off,,,,,172,0,7,,,,,0,,,77,100
55680,note_on,,,,,20,0,7,,,,,0,,,76,85
55680,note_on,,,,,128,0,12,,,,,5,,,60,85
55868,note_off,,,,,188,0,7,,,,,0,,,76,100
55872,note_on,,,,,4,0,7,,,,,0,,,74,85
55936,note_off,,,,,256,0,12,,,,,5,,,60,100
56044,note_off,,,,,172,0,7,,,,,0,,,74,100
56064,note_on,,,,,20,0,7,,,,,0,,,76,85
56064,note_on,,,,,128,0,12,,,,,5,,,48,85
56252,note_off,,,,,188,0,7,,,,,0,,,76,100
56256,note_on,,,,,4,0,7,,,,,0,,,72,85
56320,note_off,,,,,256,0,12,,,,,5,,,48,100
56332,note_off,,,,,1036,0,8,,,,,1,,,79,100
56428,note_off,,,,,172,0,7,,,,,0,,,72,100
56448,note_on,,,,,116,0,8,,,,,1,,,77,85
56448,note_on,,,,,20,0,7,,,,,0,,,80,85
56448,note_on,,,,,128,0,12,,,,,5,,,41,85
56704,note_off,,,,,256,0,8,,,,,1,,,77,100
56704,note_off,,,,,256,0,12,,,,,5,,,41,100
56704,note_off,,,,,256,0,7,,,,,0,,,80,100
56736,note_on,,,,,32,0,7,,,,,0,,,82,85
56736,note_on,,,,,32,0,8,,,,,1,,,79,85
56820,note_off,,,,,84,0,8,,,,,1,,,79,100
56820,note_off,,,,,84,0,7,,,,,0,,,82,100
56832,note_on,,,,,12,0,8,,,,,1,,,77,85
56832,note_on,,,,,12,0,7,,,,,0,,,80,85
56832,note_on,,,,,128,0,12,,,,,5,,,53,85
57088,note_off,,,,,256,0,7,,,,,0,,,80,100
57088,note_off,,,,,256,0,8,,,,,1,,,77,100
57088,note_off,,,,,256,0,12,,,,,5,,,53,100
57120,note_on,,,,,32,0,8,,,,,1,,,79,85
57120,note_on,,,,,32,0,7,,,,,0,,,82,85
57204,note_off,,,,,84,0,7,,,,,0,,,82,100
57204,note_off,,,,,84,0,8,,,,,1,,,79,100
57216,note_on,,,,,128,0,12,,,,,5,,,41,85
57216,note_on,,,,,12,0,8,,,,,1,,,77,85
57216,note_on,,,,,12,0,7,,,,,0,,,80,85
57472,note_off,,,,,256,0,8,,,,,1,,,77,100
57472,note_off,,,,,256,0,12,,,,,5,,,41,100
57472,note_off,,,,,256,0,7,,,,,0,,,80,100
57504,note_on,,,,,32,0,8,,,,,1,,,79,85
57504,note_on,,,,,32,0,7,,,,,0,,,82,85
57588,note_off,,,,,84,0,7,,,,,0,,,82,100
57588,note_off,,,,,84,0,8,,,,,1,,,79,100
57600,note_on,,,,,12,0,8,,,,,1,,,80,85
57600,note_on,,,,,128,0,12,,,,,5,,,41,85
57600,note_on,,,,,12,0,7,,,,,0,,,84,85
57856,note_off,,,,,256,0,12,,,,,5,,,41,100
57984,note_on,,,,,128,0,12,,,,,5,,,53,85
58116,note_off,,,,,516,0,7,,,,,0,,,84,100
58116,note_off,,,,,516,0,8,,,,,1,,,80,100
58176,note_on,,,,,60,0,7,,,,,0,,,82,85
58176,note_on,,,,,60,0,8,,,,,1,,,79,85
58176,set_tempo,,,,,37056,1,0,,612244,,,,,,,
58240,note_off,,,,,256,0,12,,,,,5,,,53,100
58348,note_off,,,,,172,0,7,,,,,0,,,82,100
58348,note_off,,,,,172,0,8,,,,,1,,,79,100
58368,note_on,,,,,20,0,7,,,,,0,,,80,85
58368,note_on,,,,,128,0,12,,,,,5,,,41,85
58368,note_on,,,,,20,0,8,,,,,1,,,77,85
58540,note_off,,,,,172,0,7,,,,,0,,,80,100
58540,note_off,,,,,172,0,8,,,,,1,,,77,100
58560,note_on,,,,,20,0,8,,,,,1,,,76,85
58560,note_on,,,,,20,0,7,,,,,0,,,79,85
58608,set_tempo,,,,,432,1,0,,618556,,,,,,,
58624,note_off,,,,,256,0,12,,,,,5,,,41,100
58732,note_off,,,,,172,0,8,,,,,1,,,76,100
58732,note_off,,,,,172,0,7,,,,,0,,,79,100
58752,note_on,,,,,20,0,7,,,,,0,,,80,85
58752,note_on,,,,,20,0,8,,,,,1,,,77,85
58752,note_on,,,,,128,0,12,,,,,5,,,58,85
58924,note_off,,,,,172,0,7,,,,,0,,,80,100
58924,note_off,,,,,172,0,8,,,,,1,,,77,100
58944,note_on,,,,,20,0,8,,,,,1,,,79,85
58944,note_on,,,,,20,0,7,,,,,0,,,82,85
59008,note_off,,,,,256,0,12,,,,,5,,,58,100
59040,set_tempo,,,,,432,1,0,,625000,,,,,,,
59116,note_off,,,,,172,0,8,,,,,1,,,79,100
59116,note_off,,,,,172,0,7,,,,,0,,,82,100
59136,note_on,,,,,128,0,12,,,,,5,,,60,85
59136,note_on,,,,,20,0,8,,,,,1,,,77,85
59136,note_on,,,,,20,0,7,,,,,0,,,80,85
59228,note_off,,,,,92,0,8,,,,,1,,,77,100
59228,note_off,,,,,92,0,7,,,,,0,,,80,100
59232,note_on,,,,,4,0,8,,,,,1,,,76,85
59232,note_on,,,,,4,0,7,,,,,0,,,79,85
59276,note_off,,,,,44,0,8,,,,,1,,,76,100
59276,note_off,,,,,44,0,7,,,,,0,,,79,100
59280,note_on,,,,,4,0,8,,,,,1,,,77,85
59280,note_on,,,,,4,0,7,,,,,0,,,80,85
59324,note_off,,,,,44,0,8,,,,,1,,,77,100
59324,note_off,,,,,44,0,7,,,,,0,,,80,100
59328,note_on,,,,,4,0,7,,,,,0,,,79,85
59328,note_on,,,,,4,0,8,,,,,1,,,76,85
59372,note_off,,,,,44,0,7,,,,,0,,,79,100
59372,note_off,,,,,44,0,8,,,,,1,,,76,100
59376,note_on,,,,,4,0,7,,,,,0,,,80,85
59376,note_on,,,,,4,0,8,,,,,1,,,77,85
59392,note_off,,,,,256,0,12,,,,,5,,,60,100
59420,note_off,,,,,44,0,7,,,,,0,,,80,100
59420,note_off,,,,,44,0,8,,,,,1,,,77,100
59424,note_on,,,,,4,0,7,,,,,0,,,79,85
59424,note_on,,,,,4,0,8,,,,,1,,,76,85
59468,note_off,,,,,44,0,7,,,,,0,,,79,100
59468,note_off,,,,,44,0,8,,,,,1,,,76,100
59472,note_on,,,,,4,0,8,,,,,1,,,77,85
59472,note_on,,,,,4,0,7,,,,,0,,,80,85
59472,set_tempo,,,,,432,1,0,,631578,,,,,,,
59516,note_off,,,,,44,0,8,,,,,1,,,77,100
59516,note_off,,,,,44,0,7,,,,,0,,,80,100
59520,note_on,,,,,128,0,12,,,,,5,,,48,85
59520,note_on,,,,,4,0,7,,,,,0,,,79,85
59520,note_on,,,,,4,0,8,,,,,1,,,76,85
59648,note_off,,,,,128,0,7,,,,,0,,,79,100
59648,note_off,,,,,128,0,8,,,,,1,,,76,100
59712,note_on,,,,,64,0,8,,,,,1,,,77,85
59712,note_on,,,,,64,0,7,,,,,0,,,77,85
59776,note_off,,,,,256,0,12,,,,,5,,,48,100
59840,note_off,,,,,128,0,8,,,,,1,,,77,100
59840,note_off,,,,,128,0,7,,,,,0,,,77,100
59900,program_change,,,,,124,0,12,,,,,5,48,,,
59904,note_on,,,,,4,0,12,,,,,5,,,53,85
59904,set_tempo,,,,,432,1,0,,638297,,,,,,,
59904,note_on,,,,,64,0,8,,,,,1,,,77,85
59904,note_on,,,,,64,0,7,,,,,0,,,77,85
59904,note_on,,,,,6400,0,14,,,,,7,,,72,100
59904,note_on,,,,,0,0,14,,,,,7,,,68,100
59904,note_on,,,,,6400,0,15,,,,,7,,,53,100
59904,note_on,,,,,6400,0,13,,,,,6,,,41,85
60032,note_off,,,,,0,0,14,,,,,7,,,68,100
60032,note_off,,,,,128,0,14,,,,,7,,,72,100
60032,note_off,,,,,128,0,12,,,,,5,,,53,100
60032,note_off,,,,,128,0,15,,,,,7,,,53,100
60032,note_off,,,,,128,0,13,,,,,6,,,41,100
60096,note_on,,,,,64,0,14,,,,,7,,,73,100
60096,note_on,,,,,64,0,12,,,,,5,,,61,85
60096,note_on,,,,,64,0,15,,,,,7,,,61,100
60096,note_on,,,,,64,0,13,,,,,6,,,49,85
60224,note_off,,,,,128,0,15,,,,,7,,,61,100
60224,note_off,,,,,128,0,12,,,,,5,,,61,100
60224,note_off,,,,,128,0,14,,,,,7,,,73,100
60224,note_off,,,,,128,0,13,,,,,6,,,49,100
60288,note_on,,,,,64,0,12,,,,,5,,,60,85
60288,note_on,,,,,64,0,15,,,,,7,,,60,100
60288,note_on,,,,,64,0,14,,,,,7,,,72,100
60288,note_on,,,,,64,0,13,,,,,6,,,48,85
60416,note_off,,,,,512,0,7,,,,,0,,,77,100
60416,note_off,,,,,128,0,14,,,,,7,,,72,100
60416,note_off,,,,,128,0,15,,,,,7,,,60,100
60416,note_off,,,,,512,0,8,,,,,1,,,77,100
60416,note_off,,,,,128,0,13,,,,,6,,,48,100
60416,note_off,,,,,128,0,12,,,,,5,,,60,100
60480,note_on,,,,,64,0,13,,,,,6,,,46,85
60480,note_on,,,,,64,0,15,,,,,7,,,58,100
60480,set_tempo,,,,,576,1,0,,631578,,,,,,,
60480,note_on,,,,,64,0,14,,,,,7,,,70,100
60480,note_on,,,,,64,0,12,,,,,5,,,58,85
60608,note_off,,,,,128,0,12,,,,,5,,,58,100
60608,note_off,,,,,128,0,13,,,,,6,,,46,100
60608,note_off,,,,,128,0,14,,,,,7,,,70,100
60608,note_off,,,,,128,0,15,,,,,7,,,58,100
60672,note_on,,,,,64,0,12,,,,,5,,,56,85
60672,note_on,,,,,64,0,15,,,,,7,,,56,100
60672,note_on,,,,,64,0,14,,,,,7,,,68,100
60672,note_on,,,,,64,0,13,,,,,6,,,44,85
60800,note_off,,,,,128,0,15,,,,,7,,,56,100
60800,note_off,,,,,128,0,13,,,,,6,,,44,100
60800,note_off,,,,,128,0,12,,,,,5,,,56,100
60800,note_off,,,,,128,0,14,,,,,7,,,68,100
60864,note_on,,,,,64,0,13,,,,,6,,,43,85
60864,note_on,,,,,64,0,12,,,,,5,,,55,85
60864,note_on,,,,,64,0,15,,,,,7,,,55,100
60864,note_on,,,,,64,0,14,,,,,7,,,67,100
60992,note_off,,,,,128,0,14,,,,,7,,,67,100
60992,note_off,,,,,128,0,12,,,,,5,,,55,100
60992,note_off,,,,,128,0,15,,,,,7,,,55,100
60992,note_off,,,,,128,0,13,,,,,6,,,43,100
61056,set_tempo,,,,,576,1,0,,625000,,,,,,,
61056,note_on,,,,,0,0,14,,,,,7,,,65,100
61056,note_on,,,,,64,0,13,,,,,6,,,41,85
61056,note_on,,,,,64,0,15,,,,,7,,,53,100
61056,note_on,,,,,64,0,12,,,,,5,,,53,85
61056,note_on,,,,,64,0,14,,,,,7,,,68,100
61184,note_off,,,,,128,0,12,,,,,5,,,53,100
61184,note_off,,,,,128,0,13,,,,,6,,,41,100
61184,note_off,,,,,128,0,15,,,,,7,,,53,100
61184,note_off,,,,,128,0,14,,,,,7,,,68,100
61184,note_off,,,,,0,0,14,,,,,7,,,65,100
61248,note_on,,,,,64,0,12,,,,,5,,,60,85
61248,note_on,,,,,64,0,13,,,,,6,,,48,85
61248,note_on,,,,,64,0,14,,,,,7,,,72,100
61248,note_on,,,,,64,0,15,,,,,7,,,60,100
61376,note_off,,,,,128,0,12,,,,,5,,,60,100
61376,note_off,,,,,128,0,14,,,,,7,,,72,100
61376,note_off,,,,,128,0,15,,,,,7,,,60,100
61376,note_off,,,,,128,0,13,,,,,6,,,48,100
61440,note_on,,,,,64,0,14,,,,,7,,,70,100
61440,note_on,,,,,64,0,12,,,,,5,,,58,85
61440,note_on,,,,,64,0,15,,,,,7,,,58,100
61440,note_on,,,,,64,0,13,,,,,6,,,46,85
61568,note_off,,,,,128,0,13,,,,,6,,,46,100
61568,note_off,,,,,128,0,12,,,,,5,,,58,100
61568,note_off,,,,,128,0,15,,,,,7,,,58,100
61568,note_off,,,,,128,0,14,,,,,7,,,70,100
61632,note_on,,,,,64,0,14,,,,,7,,,68,100
61632,note_on,,,,,64,0,12,,,,,5,,,56,85
61632,set_tempo,,,,,576,1,0,,618556,,,,,,,
61632,note_on,,,,,64,0,15,,,,,7,,,56,100
61632,note_on,,,,,64,0,13,,,,,6,,,44,85
61760,note_off,,,,,128,0,13,,,,,6,,,44,100
61760,note_off,,,,,128,0,12,,,,,5,,,56,100
61760,note_off,,,,,128,0,15,,,,,7,,,56,100
61760,note_off,,,,,128,0,14,,,,,7,,,68,100
61824,note_on,,,,,64,0,14,,,,,7,,,67,100
61824,note_on,,,,,64,0,15,,,,,7,,,55,100
61824,note_on,,,,,64,0,12,,,,,5,,,55,85
61824,note_on,,,,,64,0,13,,,,,6,,,43,85
61824,program_change,,,,,8192,0,10,,,,,3,40,,,
61824,program_change,,,,,8192,0,9,,,,,2,40,,,
61952,note_off,,,,,128,0,12,,,,,5,,,55,100
61952,note_off,,,,,128,0,13,,,,,6,,,43,100
61952,note_off,,,,,128,0,15,,,,,7,,,55,100
61952,note_off,,,,,128,0,14,,,,,7,,,67,100
62016,note_on,,,,,64,0,14,,,,,7,,,65,100
62016,note_on,,,,,64,0,12,,,,,5,,,53,85
62016,note_on,,,,,64,0,15,,,,,7,,,53,100
62016,note_on,,,,,64,0,13,,,,,6,,,41,85
62144,note_off,,,,,128,0,12,,,,,5,,,53,100
62144,note_off,,,,,128,0,13,,,,,6,,,41,100
62144,note_off,,,,,128,0,14,,,,,7,,,65,100
62144,note_off,,,,,128,0,15,,,,,7,,,53,100
62208,note_on,,,,,64,0,13,,,,,6,,,36,85
62208,note_on,,,,,64,0,15,,,,,7,,,48,100
62208,note_on,,,,,64,0,12,,,,,5,,,48,85
62208,note_on,,,,,0,0,14,,,,,7,,,67,100
62208,note_on,,,,,64,0,14,,,,,7,,,64,100
62208,set_tempo,,,,,576,1,0,,612244,,,,,,,
62208,note_on,,,,,384,0,10,,,,,3,,,79,60
62396,note_off,,,,,188,0,10,,,,,3,,,79,100
62400,note_on,,,,,4,0,10,,,,,3,,,77,70
62464,note_off,,,,,0,0,14,,,,,7,,,67,100
62464,note_off,,,,,256,0,14,,,,,7,,,64,100
62464,note_off,,,,,256,0,13,,,,,6,,,36,100
62464,note_off,,,,,256,0,12,,,,,5,,,48,100
62464,note_off,,,,,256,0,15,,,,,7,,,48,100
62572,note_off,,,,,172,0,10,,,,,3,,,77,100
62588,program_change,,,,,124,0,12,,,,,5,42,,,
62592,note_on,,,,,4,0,12,,,,,5,,,60,70
62592,note_on,,,,,20,0,10,,,,,3,,,76,70
62780,note_off,,,,,188,0,10,,,,,3,,,76,100
62784,note_on,,,,,4,0,10,,,,,3,,,74,70
62848,note_off,,,,,256,0,12,,,,,5,,,60,100
62956,note_off,,,,,172,0,10,,,,,3,,,74,100
62976,note_on,,,,,128,0,12,,,,,5,,,48,70
62976,note_on,,,,,20,0,10,,,,,3,,,76,70
63164,note_off,,,,,188,0,10,,,,,3,,,76,100
63168,note_on,,,,,4,0,10,,,,,3,,,72,70
63232,note_off,,,,,256,0,12,,,,,5,,,48,100
63340,note_off,,,,,172,0,10,,,,,3,,,72,100
63360,note_on,,,,,128,0,12,,,,,5,,,48,70
63360,note_on,,,,,1536,0,9,,,,,2,,,79,60
63360,note_on,,,,,20,0,10,,,,,3,,,79,70
63548,note_off,,,,,188,0,9,,,,,2,,,79,100
63552,note_on,,,,,4,0,9,,,,,2,,,77,70
63616,note_off,,,,,256,0,12,,,,,5,,,48,100
63724,note_off,,,,,172,0,9,,,,,2,,,77,100
63744,note_on,,,,,128,0,12,,,,,5,,,60,70
63744,note_on,,,,,20,0,9,,,,,2,,,76,70
63932,note_off,,,,,188,0,9,,,,,2,,,76,100
63936,note_on,,,,,4,0,9,,,,,2,,,74,70
64000,note_off,,,,,256,0,12,,,,,5,,,60,100
64108,note_off,,,,,172,0,9,,,,,2,,,74,100
64128,note_on,,,,,20,0,9,,,,,2,,,76,70
64128,note_on,,,,,128,0,12,,,,,5,,,48,70
64316,note_off,,,,,188,0,9,,,,,2,,,76,100
64320,note_on,,,,,4,0,9,,,,,2,,,72,70
64384,note_off,,,,,256,0,12,,,,,5,,,48,100
64396,note_off,,,,,1036,0,10,,,,,3,,,79,100
64492,note_off,,,,,172,0,9,,,,,2,,,72,100
64512,note_on,,,,,128,0,12,,,,,5,,,41,70
64512,note_on,,,,,116,0,10,,,,,3,,,77,70
64512,note_on,,,,,20,0,9,,,,,2,,,80,70
64768,note_off,,,,,256,0,12,,,,,5,,,41,100
64768,note_off,,,,,256,0,9,,,,,2,,,80,100
64768,note_off,,,,,256,0,10,,,,,3,,,77,100
64800,note_on,,,,,32,0,10,,,,,3,,,79,70
64800,note_on,,,,,32,0,9,,,,,2,,,82,70
64884,note_off,,,,,84,0,9,,,,,2,,,82,100
64884,note_off,,,,,84,0,10,,,,,3,,,79,100
64896,note_on,,,,,128,0,12,,,,,5,,,53,70
64896,note_on,,,,,12,0,9,,,,,2,,,80,70
64896,note_on,,,,,12,0,10,,,,,3,,,77,70
65152,note_off,,,,,256,0,9,,,,,2,,,80,100
65152,note_off,,,,,256,0,12,,,,,5,,,53,100
65152,note_off,,,,,256,0,10,,,,,3,,,77,100
65184,note_on,,,,,32,0,9,,,,,2,,,82,70
65184,note_on,,,,,32,0,10,,,,,3,,,79,70
65268,note_off,,,,,84,0,9,,,,,2,,,82,100
65268,note_off,,,,,84,0,10,,,,,3,,,79,100
65280,note_on,,,,,128,0,12,,,,,5,,,41,70
65280,note_on,,,,,12,0,10,,,,,3,,,77,70
65280,note_on,,,,,12,0,9,,,,,2,,,80,70
65536,note_off,,,,,256,0,10,,,,,3,,,77,100
65536,note_off,,,,,256,0,12,,,,,5,,,41,100
65536,note_off,,,,,256,0,9,,,,,2,,,80,100
65568,note_on,,,,,32,0,9,,,,,2,,,82,70
65568,note_on,,,,,32,0,10,,,,,3,,,79,70
65652,note_off,,,,,84,0,9,,,,,2,,,82,100
65652,note_off,,,,,84,0,10,,,,,3,,,79,100
65664,note_on,,,,,12,0,10,,,,,3,,,80,70
65664,note_on,,,,,128,0,12,,,,,5,,,41,70
65664,note_on,,,,,12,0,9,,,,,2,,,84,70
65920,note_off,,,,,256,0,12,,,,,5,,,41,100
66048,note_on,,,,,128,0,12,,,,,5,,,53,70
66180,note_off,,,,,516,0,10,,,,,3,,,80,100
66180,note_off,,,,,516,0,9,,,,,2,,,84,100
66240,note_on,,,,,60,0,9,,,,,2,,,82,70
66240,note_on,,,,,60,0,10,,,,,3,,,79,70
66240,set_tempo,,,,,4032,1,0,,638297,,,,,,,
66304,note_off,,,,,256,0,12,,,,,5,,,53,100
66360,set_tempo,,,,,120,1,0,,645161,,,,,,,
66412,note_off,,,,,172,0,10,,,,,3,,,79,100
66412,note_off,,,,,172,0,9,,,,,2,,,82,100
66432,note_on,,,,,128,0,12,,,,,5,,,41,70
66432,note_on,,,,,20,0,10,,,,,3,,,77,70
66432,note_on,,,,,20,0,9,,,,,2,,,80,70
66484,set_tempo,,,,,124,1,0,,652173,,,,,,,
66604,note_off,,,,,172,0,10,,,,,3,,,77,100
66604,note_off,,,,,172,0,9,,,,,2,,,80,100
66608,set_tempo,,,,,124,1,0,,659340,,,,,,,
66624,note_on,,,,,20,0,10,,,,,3,,,76,70
66624,note_on,,,,,20,0,9,,,,,2,,,79,70
66688,note_off,,,,,256,0,12,,,,,5,,,41,100
66732,set_tempo,,,,,124,1,0,,666666,,,,,,,
66796,note_off,,,,,172,0,10,,,,,3,,,76,100
66796,note_off,,,,,172,0,9,,,,,2,,,79,100
66816,note_on,,,,,20,0,9,,,,,2,,,80,70
66816,note_on,,,,,128,0,12,,,,,5,,,58,70
66816,note_on,,,,,20,0,10,,,,,3,,,77,70
66856,set_tempo,,,,,124,1,0,,674157,,,,,,,
66980,set_tempo,,,,,124,1,0,,681818,,,,,,,
66988,note_off,,,,,172,0,10,,,,,3,,,77,100
66988,note_off,,,,,172,0,9,,,,,2,,,80,100
67008,note_on,,,,,20,0,10,,,,,3,,,79,70
67008,note_on,,,,,20,0,9,,,,,2,,,82,70
67072,note_off,,,,,256,0,12,,,,,5,,,58,100
67104,set_tempo,,,,,124,1,0,,689655,,,,,,,
67180,note_off,,,,,172,0,9,,,,,2,,,82,100
67180,note_off,,,,,172,0,10,,,,,3,,,79,100
67200,note_on,,,,,20,0,9,,,,,2,,,80,70
67200,note_on,,,,,128,0,12,,,,,5,,,60,70
67200,note_on,,,,,20,0,10,,,,,3,,,77,70
67224,set_tempo,,,,,120,1,0,,697674,,,,,,,
67292,note_off,,,,,92,0,10,,,,,3,,,77,100
67292,note_off,,,,,92,0,9,,,,,2,,,80,100
67296,note_on,,,,,4,0,10,,,,,3,,,76,70
67296,note_on,,,,,4,0,9,,,,,2,,,79,70
67340,note_off,,,,,44,0,10,,,,,3,,,76,100
67340,note_off,,,,,44,0,9,,,,,2,,,79,100
67344,note_on,,,,,4,0,9,,,,,2,,,80,70
67344,note_on,,,,,4,0,10,,,,,3,,,77,70
67348,set_tempo,,,,,124,1,0,,705882,,,,,,,
67388,note_off,,,,,44,0,10,,,,,3,,,77,100
67388,note_off,,,,,44,0,9,,,,,2,,,80,100
67392,note_on,,,,,4,0,10,,,,,3,,,76,70
67392,note_on,,,,,4,0,9,,,,,2,,,79,70
67436,note_off,,,,,44,0,9,,,,,2,,,79,100
67436,note_off,,,,,44,0,10,,,,,3,,,76,100
67440,note_on,,,,,4,0,10,,,,,3,,,77,70
67440,note_on,,,,,4,0,9,,,,,2,,,80,70
67456,note_off,,,,,256,0,12,,,,,5,,,60,100
67472,set_tempo,,,,,124,1,0,,714285,,,,,,,
67484,note_off,,,,,44,0,9,,,,,2,,,80,100
67484,note_off,,,,,44,0,10,,,,,3,,,77,100
67488,note_on,,,,,4,0,9,,,,,2,,,79,70
67488,note_on,,,,,4,0,10,,,,,3,,,76,70
67532,note_off,,,,,44,0,9,,,,,2,,,79,100
67532,note_off,,,,,44,0,10,,,,,3,,,76,100
67536,note_on,,,,,4,0,10,,,,,3,,,77,70
67536,note_on,,,,,4,0,9,,,,,2,,,80,70
67580,note_off,,,,,44,0,9,,,,,2,,,80,100
67580,note_off,,,,,44,0,10,,,,,3,,,77,100
67584,note_on,,,,,4,0,10,,,,,3,,,76,70
67584,note_on,,,,,4,0,9,,,,,2,,,79,70
67584,note_on,,,,,128,0,12,,,,,5,,,48,70
67596,set_tempo,,,,,124,1,0,,722891,,,,,,,
67712,note_off,,,,,128,0,9,,,,,2,,,79,100
67712,note_off,,,,,128,0,10,,,,,3,,,76,100
67720,set_tempo,,,,,124,1,0,,731707,,,,,,,
67776,note_on,,,,,64,0,9,,,,,2,,,77,70
67776,note_on,,,,,64,0,10,,,,,3,,,77,70
67840,note_off,,,,,256,0,12,,,,,5,,,48,100
67844,set_tempo,,,,,124,1,0,,740740,,,,,,,
67904,note_off,,,,,128,0,10,,,,,3,,,77,100
67904,note_off,,,,,128,0,9,,,,,2,,,77,100
67964,program_change,,,,,124,0,12,,,,,5,48,,,
67968,note_on,,,,,64,0,10,,,,,3,,,77,70
67968,note_on,,,,,4,0,12,,,,,5,,,53,70
67968,note_on,,,,,64,0,9,,,,,2,,,77,70
67968,set_tempo,,,,,124,1,0,,750000,,,,,,,
68224,note_off,,,,,256,0,12,,,,,5,,,53,100
68224,note_off,,,,,256,0,9,,,,,2,,,77,100
68224,note_off,,,,,256,0,10,,,,,3,,,77,100
68344,program_change,,,,,120,0,10,,,,,3,48,,,
68344,program_change,,,,,120,0,9,,,,,2,48,,,
68344,program_change,,,,,7928,0,8,,,,,1,48,,,
68344,program_change,,,,,7928,0,7,,,,,0,48,,,
68348,set_tempo,,,,,380,1,0,,750000,,,,,,,
68348,program_change,,,,,124,0,12,,,,,5,48,,,
68352,program_change,,,,,8,0,8,,,,,1,48,,,
68352,note_on,,,,,0,0,14,,,,,7,,,69,100
68352,note_on,,,,,5888,0,14,,,,,7,,,72,100
68352,program_change,,,,,4,0,12,,,,,5,48,,,
68352,program_change,,,,,8,0,7,,,,,0,48,,,
68356,program_change,,,,,5892,0,13,,,,,6,48,,,
68356,note_on,,,,,14852,0,11,,,,,4,,,69,85
68356,note_on,,,,,4,0,12,,,,,5,,,57,100
68356,note_on,,,,,5892,0,15,,,,,7,,,57,100
68356,note_on,,,,,12,0,9,,,,,2,,,84,85
68360,note_on,,,,,4,0,13,,,,,6,,,45,100
68364,note_on,,,,,12,0,7,,,,,0,,,84,85
68428,set_tempo,,,,,80,1,0,,740740,,,,,,,
68480,note_off,,,,,128,0,14,,,,,7,,,72,100
68480,note_off,,,,,0,0,14,,,,,7,,,69,100
68484,note_off,,,,,128,0,12,,,,,5,,,57,100
68484,note_off,,,,,128,0,15,,,,,7,,,57,100
68488,note_off,,,,,128,0,13,,,,,6,,,45,100
68512,set_tempo,,,,,84,1,0,,731707,,,,,,,
68544,note_on,,,,,64,0,14,,,,,7,,,72,100
68544,note_on,,,,,0,0,14,,,,,7,,,69,100
68548,note_on,,,,,64,0,12,,,,,5,,,57,100
68548,note_on,,,,,64,0,15,,,,,7,,,57,100
68552,note_on,,,,,64,0,13,,,,,6,,,45,100
68592,set_tempo,,,,,80,1,0,,722891,,,,,,,
68672,note_off,,,,,128,0,14,,,,,7,,,72,100
68672,note_off,,,,,0,0,14,,,,,7,,,69,100
68676,note_off,,,,,128,0,12,,,,,5,,,57,100
68676,set_tempo,,,,,84,1,0,,714285,,,,,,,
68676,note_off,,,,,128,0,15,,,,,7,,,57,100
68680,note_off,,,,,128,0,13,,,,,6,,,45,100
68736,note_on,,,,,0,0,14,,,,,7,,,69,100
68736,note_on,,,,,64,0,14,,,,,7,,,72,100
68740,note_on,,,,,64,0,12,,,,,5,,,57,100
68740,note_on,,,,,396,0,10,,,,,3,,,76,100
68740,note_on,,,,,64,0,15,,,,,7,,,57,100
68740,note_on,,,,,384,0,11,,,,,4,,,72,100
68744,note_on,,,,,64,0,13,,,,,6,,,45,100
68748,note_on,,,,,396,0,8,,,,,1,,,76,100
68760,set_tempo,,,,,84,1,0,,705882,,,,,,,
68840,set_tempo,,,,,80,1,0,,697674,,,,,,,
68864,note_off,,,,,0,0,14,,,,,7,,,69,100
68864,note_off,,,,,128,0,14,,,,,7,,,72,100
68868,note_off,,,,,128,0,15,,,,,7,,,57,100
68868,note_off,,,,,128,0,12,,,,,5,,,57,100
68872,note_off,,,,,128,0,13,,,,,6,,,45,100
68924,set_tempo,,,,,84,1,0,,689655,,,,,,,
68928,note_on,,,,,64,0,14,,,,,7,,,72,100
68928,note_on,,,,,0,0,14,,,,,7,,,69,100
68932,note_on,,,,,64,0,12,,,,,5,,,57,100
68932,note_on,,,,,64,0,15,,,,,7,,,57,100
68936,note_on,,,,,64,0,13,,,,,6,,,45,100
69008,set_tempo,,,,,84,1,0,,681818,,,,,,,
69056,note_off,,,,,128,0,14,,,,,7,,,72,100
69056,note_off,,,,,0,0,14,,,,,7,,,69,100
69060,note_off,,,,,128,0,12,,,,,5,,,57,100
69060,note_off,,,,,128,0,15,,,,,7,,,57,100
69064,note_off,,,,,128,0,13,,,,,6,,,45,100
69084,note_off,,,,,344,0,11,,,,,4,,,72,100
69084,note_off,,,,,344,0,10,,,,,3,,,76,100
69088,set_tempo,,,,,80,1,0,,674157,,,,,,,
69092,note_off,,,,,344,0,8,,,,,1,,,76,100
69120,note_on,,,,,64,0,14,,,,,7,,,69,100
69120,note_on,,,,,0,0,14,,,,,7,,,72,100
69124,note_on,,,,,64,0,12,,,,,5,,,62,100
69124,note_on,,,,,64,0,15,,,,,7,,,62,100
69124,note_on,,,,,40,0,11,,,,,4,,,74,100
69124,note_on,,,,,40,0,10,,,,,3,,,77,100
69128,note_on,,,,,64,0,13,,,,,6,,,50,100
69132,note_on,,,,,40,0,8,,,,,1,,,77,100
69172,set_tempo,,,,,84,1,0,,666666,,,,,,,
69248,note_off,,,,,128,0,14,,,,,7,,,69,100
69248,note_off,,,,,0,0,14,,,,,7,,,72,100
69252,note_off,,,,,128,0,12,,,,,5,,,62,100
69252,note_off,,,,,128,0,15,,,,,7,,,62,100
69256,set_tempo,,,,,84,1,0,,659340,,,,,,,
69256,note_off,,,,,128,0,13,,,,,6,,,50,100
69312,note_on,,,,,0,0,14,,,,,7,,,72,100
69312,note_on,,,,,64,0,14,,,,,7,,,69,100
69316,note_on,,,,,64,0,15,,,,,7,,,62,100
69316,note_on,,,,,64,0,12,,,,,5,,,62,100
69320,note_on,,,,,64,0,13,,,,,6,,,50,100
69336,set_tempo,,,,,80,1,0,,652173,,,,,,,
69420,set_tempo,,,,,84,1,0,,645161,,,,,,,
69440,note_off,,,,,0,0,14,,,,,7,,,72,100
69440,note_off,,,,,128,0,14,,,,,7,,,69,100
69444,note_off,,,,,128,0,12,,,,,5,,,62,100
69444,note_off,,,,,128,0,15,,,,,7,,,62,100
69448,note_off,,,,,128,0,13,,,,,6,,,50,100
69504,note_on,,,,,0,0,14,,,,,7,,,65,100
69504,note_on,,,,,64,0,14,,,,,7,,,62,100
69504,note_off,,,,,380,0,11,,,,,4,,,69,64
69504,set_tempo,,,,,84,1,0,,638297,,,,,,,
69504,note_off,,,,,1148,0,9,,,,,2,,,84,64
69508,note_on,,,,,64,0,15,,,,,7,,,55,100
69508,note_on,,,,,4,0,9,,,,,2,,,82,100
69508,note_on,,,,,4,0,11,,,,,4,,,67,100
69508,note_on,,,,,64,0,12,,,,,5,,,55,100
69512,note_on,,,,,64,0,13,,,,,6,,,43,100
69512,note_off,,,,,1148,0,7,,,,,0,,,84,64
69516,note_on,,,,,4,0,7,,,,,0,,,82,100
69632,note_off,,,,,128,0,14,,,,,7,,,62,100
69632,note_off,,,,,0,0,14,,,,,7,,,65,100
69636,note_off,,,,,128,0,15,,,,,7,,,55,100
69636,note_off,,,,,128,0,12,,,,,5,,,55,100
69640,note_off,,,,,128,0,13,,,,,6,,,43,100
69696,note_on,,,,,64,0,14,,,,,7,,,62,100
69696,note_on,,,,,0,0,14,,,,,7,,,65,100
69700,note_on,,,,,64,0,15,,,,,7,,,55,100
69700,note_on,,,,,64,0,12,,,,,5,,,55,100
69704,note_on,,,,,64,0,13,,,,,6,,,43,100
69824,note_off,,,,,0,0,14,,,,,7,,,65,100
69824,note_off,,,,,128,0,14,,,,,7,,,62,100
69828,note_off,,,,,128,0,12,,,,,5,,,55,100
69828,note_off,,,,,128,0,15,,,,,7,,,55,100
69832,note_off,,,,,128,0,13,,,,,6,,,43,100
69888,note_on,,,,,64,0,14,,,,,7,,,62,100
69888,note_on,,,,,0,0,14,,,,,7,,,65,100
69892,note_on,,,,,64,0,15,,,,,7,,,55,100
69892,note_on,,,,,64,0,12,,,,,5,,,55,100
69896,note_on,,,,,64,0,13,,,,,6,,,43,100
70016,note_off,,,,,0,0,14,,,,,7,,,65,100
70016,note_off,,,,,128,0,14,,,,,7,,,62,100
70020,note_off,,,,,128,0,15,,,,,7,,,55,100
70020,note_off,,,,,128,0,12,,,,,5,,,55,100
70024,note_off,,,,,128,0,13,,,,,6,,,43,100
70080,note_on,,,,,64,0,14,,,,,7,,,62,100
70080,note_on,,,,,0,0,14,,,,,7,,,65,100
70084,note_on,,,,,64,0,12,,,,,5,,,55,100
70084,note_on,,,,,64,0,15,,,,,7,,,55,100
70088,note_on,,,,,64,0,13,,,,,6,,,43,100
70160,note_off,,,,,652,0,11,,,,,4,,,74,100
70160,note_off,,,,,1036,0,10,,,,,3,,,77,100
70168,note_off,,,,,1036,0,8,,,,,1,,,77,100
70208,note_off,,,,,0,0,14,,,,,7,,,65,100
70208,note_off,,,,,128,0,14,,,,,7,,,62,100
70212,note_off,,,,,128,0,15,,,,,7,,,55,100
70212,note_off,,,,,128,0,12,,,,,5,,,55,100
70216,note_off,,,,,128,0,13,,,,,6,,,43,100
70272,note_on,,,,,0,0,14,,,,,7,,,70,100
70272,note_on,,,,,64,0,14,,,,,7,,,67,100
70276,note_on,,,,,64,0,12,,,,,5,,,60,100
70276,note_on,,,,,116,0,11,,,,,4,,,72,100
70276,note_on,,,,,64,0,15,,,,,7,,,60,100
70276,note_on,,,,,116,0,10,,,,,3,,,76,100
70280,note_on,,,,,64,0,13,,,,,6,,,48,100
70284,note_on,,,,,116,0,8,,,,,1,,,76,100
70400,note_off,,,,,128,0,14,,,,,7,,,67,100
70400,note_off,,,,,0,0,14,,,,,7,,,70,100
70404,note_off,,,,,128,0,12,,,,,5,,,60,100
70404,note_off,,,,,128,0,15,,,,,7,,,60,100
70408,note_off,,,,,128,0,13,,,,,6,,,48,100
70464,note_on,,,,,0,0,14,,,,,7,,,70,100
70464,note_on,,,,,64,0,14,,,,,7,,,67,100
70468,note_on,,,,,64,0,15,,,,,7,,,60,100
70468,note_on,,,,,64,0,12,,,,,5,,,60,100
70472,note_on,,,,,64,0,13,,,,,6,,,48,100
70592,note_off,,,,,128,0,14,,,,,7,,,67,100
70592,note_off,,,,,0,0,14,,,,,7,,,70,100
70596,note_off,,,,,128,0,15,,,,,7,,,60,100
70596,note_off,,,,,128,0,12,,,,,5,,,60,100
70600,note_off,,,,,128,0,13,,,,,6,,,48,100
70656,note_off,,,,,1148,0,9,,,,,2,,,82,64
70656,note_on,,,,,64,0,14,,,,,7,,,60,100
70656,note_on,,,,,0,0,14,,,,,7,,,64,100
70656,note_off,,,,,380,0,11,,,,,4,,,67,100
70660,note_on,,,,,64,0,15,,,,,7,,,53,100
70660,note_on,,,,,4,0,9,,,,,2,,,81,100
70660,note_on,,,,,64,0,12,,,,,5,,,53,100
70660,note_on,,,,,4,0,11,,,,,4,,,65,100
70664,note_off,,,,,1148,0,7,,,,,0,,,82,64
70664,note_on,,,,,64,0,13,,,,,6,,,41,100
70668,note_on,,,,,4,0,7,,,,,0,,,81,100
70784,note_off,,,,,0,0,14,,,,,7,,,64,100
70784,note_off,,,,,128,0,14,,,,,7,,,60,100
70788,note_off,,,,,128,0,15,,,,,7,,,53,100
70788,note_off,,,,,128,0,12,,,,,5,,,53,100
70792,note_off,,,,,128,0,13,,,,,6,,,41,100
70848,note_on,,,,,64,0,14,,,,,7,,,60,100
70848,note_on,,,,,0,0,14,,,,,7,,,64,100
70852,note_on,,,,,64,0,12,,,,,5,,,53,100
70852,note_on,,,,,64,0,15,,,,,7,,,53,100
70856,note_on,,,,,64,0,13,,,,,6,,,41,100
70976,note_off,,,,,128,0,14,,,,,7,,,60,100
70976,note_off,,,,,0,0,14,,,,,7,,,64,100
70980,note_off,,,,,128,0,15,,,,,7,,,53,100
70980,note_off,,,,,128,0,12,,,,,5,,,53,100
70984,note_off,,,,,128,0,13,,,,,6,,,41,100
71040,note_on,,,,,0,0,14,,,,,7,,,64,100
71040,note_on,,,,,64,0,14,,,,,7,,,60,100
71044,note_on,,,,,64,0,12,,,,,5,,,53,99
71044,note_on,,,,,64,0,15,,,,,7,,,53,100
71048,note_on,,,,,64,0,13,,,,,6,,,41,99
71168,note_off,,,,,128,0,14,,,,,7,,,60,100
71168,note_off,,,,,0,0,14,,,,,7,,,64,100
71172,note_off,,,,,128,0,12,,,,,5,,,53,100
71172,note_off,,,,,128,0,15,,,,,7,,,53,100
71176,note_off,,,,,128,0,13,,,,,6,,,41,100
71232,note_on,,,,,0,0,14,,,,,7,,,64,100
71232,note_on,,,,,64,0,14,,,,,7,,,60,100
71236,note_on,,,,,64,0,12,,,,,5,,,53,98
71236,note_on,,,,,64,0,15,,,,,7,,,53,100
71240,note_on,,,,,64,0,13,,,,,6,,,41,98
71312,note_off,,,,,652,0,11,,,,,4,,,72,100
71312,note_off,,,,,1036,0,10,,,,,3,,,76,100
71320,note_off,,,,,1036,0,8,,,,,1,,,76,100
71360,note_off,,,,,0,0,14,,,,,7,,,64,100
71360,note_off,,,,,128,0,14,,,,,7,,,60,100
71364,note_off,,,,,128,0,15,,,,,7,,,53,100
71364,note_off,,,,,128,0,12,,,,,5,,,53,100
71368,note_off,,,,,128,0,13,,,,,6,,,41,100
71424,note_on,,,,,0,0,14,,,,,7,,,69,100
71424,note_on,,,,,64,0,14,,,,,7,,,65,100
71428,note_on,,,,,116,0,11,,,,,4,,,70,98
71428,note_on,,,,,64,0,12,,,,,5,,,58,98
71428,note_on,,,,,64,0,15,,,,,7,,,58,100
71428,note_on,,,,,116,0,10,,,,,3,,,74,98
71432,note_on,,,,,64,0,13,,,,,6,,,46,98
71436,note_on,,,,,116,0,8,,,,,1,,,74,98
71552,note_off,,,,,0,0,14,,,,,7,,,69,100
71552,note_off,,,,,128,0,14,,,,,7,,,65,100
71556,note_off,,,,,128,0,12,,,,,5,,,58,100
71556,note_off,,,,,128,0,15,,,,,7,,,58,100
71560,note_off,,,,,128,0,13,,,,,6,,,46,100
71616,note_on,,,,,0,0,14,,,,,7,,,69,100
71616,note_on,,,,,64,0,14,,,,,7,,,65,100
71620,note_on,,,,,64,0,12,,,,,5,,,58,97
71620,note_on,,,,,64,0,15,,,,,7,,,58,100
71624,note_on,,,,,64,0,13,,,,,6,,,46,97
71744,note_off,,,,,0,0,14,,,,,7,,,69,100
71744,note_off,,,,,128,0,14,,,,,7,,,65,100
71748,note_off,,,,,128,0,12,,,,,5,,,58,100
71748,note_off,,,,,128,0,15,,,,,7,,,58,100
71752,note_off,,,,,128,0,13,,,,,6,,,46,100
71808,note_on,,,,,0,0,14,,,,,7,,,62,100
71808,note_off,,,,,380,0,11,,,,,4,,,65,100
71808,note_on,,,,,64,0,14,,,,,7,,,58,100
71808,note_off,,,,,1148,0,9,,,,,2,,,81,64
71812,note_on,,,,,4,0,11,,,,,4,,,64,96
71812,note_on,,,,,64,0,15,,,,,7,,,52,100
71812,note_on,,,,,4,0,9,,,,,2,,,79,96
71812,note_on,,,,,64,0,12,,,,,5,,,52,96
71816,note_on,,,,,64,0,13,,,,,6,,,40,96
71816,note_off,,,,,1148,0,7,,,,,0,,,81,64
71820,note_on,,,,,4,0,7,,,,,0,,,79,96
71936,note_off,,,,,0,0,14,,,,,7,,,62,100
71936,note_off,,,,,128,0,14,,,,,7,,,58,100
71940,note_off,,,,,128,0,15,,,,,7,,,52,100
71940,note_off,,,,,128,0,12,,,,,5,,,52,100
71944,note_off,,,,,128,0,13,,,,,6,,,40,100
72000,note_on,,,,,0,0,14,,,,,7,,,62,100
72000,note_on,,,,,64,0,14,,,,,7,,,58,100
72004,note_on,,,,,64,0,12,,,,,5,,,52,96
72004,note_on,,,,,64,0,15,,,,,7,,,52,100
72008,note_on,,,,,64,0,13,,,,,6,,,40,96
72128,note_off,,,,,128,0,14,,,,,7,,,58,100
72128,note_off,,,,,0,0,14,,,,,7,,,62,100
72132,note_off,,,,,128,0,12,,,,,5,,,52,100
72132,note_off,,,,,128,0,15,,,,,7,,,52,100
72136,note_off,,,,,128,0,13,,,,,6,,,40,100
72192,note_on,,,,,0,0,14,,,,,7,,,62,100
72192,note_on,,,,,64,0,14,,,,,7,,,58,100
72196,note_on,,,,,64,0,12,,,,,5,,,52,95
72196,note_on,,,,,64,0,15,,,,,7,,,52,100
72200,note_on,,,,,64,0,13,,,,,6,,,40,95
72320,note_off,,,,,128,0,14,,,,,7,,,58,100
72320,note_off,,,,,0,0,14,,,,,7,,,62,100
72324,note_off,,,,,128,0,12,,,,,5,,,52,100
72324,note_off,,,,,128,0,15,,,,,7,,,52,100
72328,note_off,,,,,128,0,13,,,,,6,,,40,100
72384,note_on,,,,,64,0,14,,,,,7,,,58,100
72384,note_on,,,,,0,0,14,,,,,7,,,62,100
72388,note_on,,,,,64,0,15,,,,,7,,,52,100
72388,note_on,,,,,64,0,12,,,,,5,,,52,94
72392,note_on,,,,,64,0,13,,,,,6,,,40,94
72464,note_off,,,,,1036,0,10,,,,,3,,,74,100
72464,note_off,,,,,652,0,11,,,,,4,,,70,100
72472,note_off,,,,,1036,0,8,,,,,1,,,74,100
72512,note_off,,,,,128,0,14,,,,,7,,,58,100
72512,note_off,,,,,0,0,14,,,,,7,,,62,100
72516,note_off,,,,,128,0,12,,,,,5,,,52,100
72516,note_off,,,,,128,0,15,,,,,7,,,52,100
72520,note_off,,,,,128,0,13,,,,,6,,,40,100
72576,note_on,,,,,0,0,14,,,,,7,,,67,100
72576,note_on,,,,,64,0,14,,,,,7,,,64,100
72576,set_tempo,,,,,3072,1,0,,638297,,,,,,,
72580,note_on,,,,,64,0,15,,,,,7,,,57,100
72580,note_on,,,,,116,0,11,,,,,4,,,69,94
72580,note_on,,,,,116,0,10,,,,,3,,,72,94
72580,note_on,,,,,64,0,12,,,,,5,,,57,94
72584,note_on,,,,,64,0,13,,,,,6,,,45,94
72588,note_on,,,,,116,0,8,,,,,1,,,72,94
72704,note_off,,,,,0,0,14,,,,,7,,,67,100
72704,note_off,,,,,128,0,14,,,,,7,,,64,100
72708,note_off,,,,,128,0,12,,,,,5,,,57,100
72708,note_off,,,,,128,0,15,,,,,7,,,57,100
72712,note_off,,,,,128,0,13,,,,,6,,,45,100
72768,note_on,,,,,0,0,14,,,,,7,,,67,100
72768,note_on,,,,,64,0,14,,,,,7,,,64,100
72772,note_on,,,,,64,0,12,,,,,5,,,57,94
72772,note_on,,,,,64,0,15,,,,,7,,,57,100
72776,note_on,,,,,64,0,13,,,,,6,,,45,93
72896,note_off,,,,,0,0,14,,,,,7,,,67,100
72896,note_off,,,,,128,0,14,,,,,7,,,64,100
72900,note_off,,,,,128,0,12,,,,,5,,,57,100
72900,note_off,,,,,128,0,15,,,,,7,,,57,100
72904,note_off,,,,,128,0,13,,,,,6,,,45,100
72960,note_on,,,,,64,0,14,,,,,7,,,57,100
72960,note_on,,,,,0,0,14,,,,,7,,,60,100
72960,set_tempo,,,,,384,1,0,,645161,,,,,,,
72960,note_off,,,,,380,0,11,,,,,4,,,64,100
72960,note_off,,,,,1148,0,9,,,,,2,,,79,64
72964,note_on,,,,,64,0,12,,,,,5,,,50,93
72964,note_on,,,,,4,0,11,,,,,4,,,62,92
72964,note_on,,,,,64,0,15,,,,,7,,,50,100
72964,note_on,,,,,4,0,9,,,,,2,,,77,92
72968,note_off,,,,,1148,0,7,,,,,0,,,79,64
72968,note_on,,,,,64,0,13,,,,,6,,,38,92
72972,note_on,,,,,4,0,7,,,,,0,,,77,92
73088,note_off,,,,,0,0,14,,,,,7,,,60,100
73088,note_off,,,,,128,0,14,,,,,7,,,57,100
73092,note_off,,,,,128,0,12,,,,,5,,,50,100
73092,note_off,,,,,128,0,15,,,,,7,,,50,100
73096,note_off,,,,,128,0,13,,,,,6,,,38,100
73152,note_on,,,,,64,0,14,,,,,7,,,57,100
73152,note_on,,,,,0,0,14,,,,,7,,,60,100
73156,note_on,,,,,64,0,15,,,,,7,,,50,100
73156,note_on,,,,,64,0,12,,,,,5,,,50,92
73160,note_on,,,,,64,0,13,,,,,6,,,38,92
73280,note_off,,,,,0,0,14,,,,,7,,,60,100
73280,note_off,,,,,128,0,14,,,,,7,,,57,100
73284,note_off,,,,,128,0,12,,,,,5,,,50,100
73284,note_off,,,,,128,0,15,,,,,7,,,50,100
73288,note_off,,,,,128,0,13,,,,,6,,,38,100
73344,note_on,,,,,64,0,14,,,,,7,,,57,100
73344,set_tempo,,,,,384,1,0,,652173,,,,,,,
73344,note_on,,,,,0,0,14,,,,,7,,,60,100
73348,note_on,,,,,64,0,15,,,,,7,,,50,100
73348,note_on,,,,,64,0,12,,,,,5,,,50,91
73352,note_on,,,,,64,0,13,,,,,6,,,38,91
73472,note_off,,,,,128,0,14,,,,,7,,,57,100
73472,note_off,,,,,0,0,14,,,,,7,,,60,100
73476,note_off,,,,,128,0,15,,,,,7,,,50,100
73476,note_off,,,,,128,0,12,,,,,5,,,50,100
73480,note_off,,,,,128,0,13,,,,,6,,,38,100
73536,note_on,,,,,64,0,14,,,,,7,,,57,100
73536,note_on,,,,,0,0,14,,,,,7,,,60,100
73540,note_on,,,,,64,0,12,,,,,5,,,50,90
73540,note_on,,,,,64,0,15,,,,,7,,,50,100
73544,note_on,,,,,64,0,13,,,,,6,,,38,90
73616,note_off,,,,,1036,0,10,,,,,3,,,72,100
73616,note_off,,,,,652,0,11,,,,,4,,,69,100
73624,note_off,,,,,1036,0,8,,,,,1,,,72,100
73664,note_off,,,,,0,0,14,,,,,7,,,60,100
73664,note_off,,,,,128,0,14,,,,,7,,,57,100
73668,note_off,,,,,128,0,12,,,,,5,,,50,100
73668,note_off,,,,,128,0,15,,,,,7,,,50,100
73672,note_off,,,,,128,0,13,,,,,6,,,38,100
73728,note_on,,,,,0,0,14,,,,,7,,,65,100
73728,set_tempo,,,,,384,1,0,,659340,,,,,,,
73728,note_on,,,,,64,0,14,,,,,7,,,62,100
73732,note_on,,,,,116,0,10,,,,,3,,,70,90
73732,note_on,,,,,116,0,11,,,,,4,,,67,90
73732,note_on,,,,,64,0,15,,,,,7,,,55,100
73732,note_on,,,,,64,0,12,,,,,5,,,55,89
73736,note_on,,,,,64,0,13,,,,,6,,,43,90
73740,note_on,,,,,116,0,8,,,,,1,,,70,90
73856,note_off,,,,,0,0,14,,,,,7,,,65,100
73856,note_off,,,,,128,0,14,,,,,7,,,62,100
73860,note_off,,,,,128,0,12,,,,,5,,,55,100
73860,note_off,,,,,128,0,15,,,,,7,,,55,100
73864,note_off,,,,,128,0,13,,,,,6,,,43,100
73920,note_on,,,,,64,0,14,,,,,7,,,62,100
73920,note_on,,,,,0,0,14,,,,,7,,,65,100
73924,note_on,,,,,64,0,15,,,,,7,,,55,100
73924,note_on,,,,,64,0,12,,,,,5,,,55,88
73928,note_on,,,,,64,0,13,,,,,6,,,43,89
74048,note_off,,,,,0,0,14,,,,,7,,,65,100
74048,note_off,,,,,128,0,14,,,,,7,,,62,100
74052,note_off,,,,,128,0,12,,,,,5,,,55,100
74052,note_off,,,,,128,0,15,,,,,7,,,55,100
74056,note_off,,,,,128,0,13,,,,,6,,,43,100
74112,note_off,,,,,1148,0,9,,,,,2,,,77,64
74112,set_tempo,,,,,384,1,0,,666666,,,,,,,
74112,note_on,,,,,0,0,14,,,,,7,,,58,100
74112,note_on,,,,,64,0,14,,,,,7,,,55,100
74112,note_off,,,,,380,0,11,,,,,4,,,62,100
74116,note_on,,,,,4,0,11,,,,,4,,,60,88
74116,note_on,,,,,4,0,9,,,,,2,,,76,88
74116,note_on,,,,,64,0,12,,,,,5,,,48,87
74116,note_on,,,,,64,0,15,,,,,7,,,48,100
74120,note_on,,,,,64,0,13,,,,,6,,,36,88
74120,note_off,,,,,1148,0,7,,,,,0,,,77,64
74124,note_on,,,,,4,0,7,,,,,0,,,76,88
74240,note_off,,,,,128,0,14,,,,,7,,,55,100
74240,note_off,,,,,0,0,14,,,,,7,,,58,100
74244,note_off,,,,,128,0,12,,,,,5,,,48,100
74244,note_off,,,,,128,0,15,,,,,7,,,48,100
74248,note_off,,,,,128,0,13,,,,,6,,,36,100
74304,note_on,,,,,64,0,14,,,,,7,,,55,100
74304,note_on,,,,,0,0,14,,,,,7,,,58,100
74308,note_on,,,,,64,0,12,,,,,5,,,48,86
74308,note_on,,,,,64,0,15,,,,,7,,,48,100
74312,note_on,,,,,64,0,13,,,,,6,,,36,88
74432,note_off,,,,,128,0,14,,,,,7,,,55,100
74432,note_off,,,,,0,0,14,,,,,7,,,58,100
74436,note_off,,,,,128,0,12,,,,,5,,,48,100
74436,note_off,,,,,128,0,15,,,,,7,,,48,100
74440,note_off,,,,,128,0,13,,,,,6,,,36,100
74496,note_on,,,,,0,0,14,,,,,7,,,58,100
74496,note_on,,,,,64,0,14,,,,,7,,,55,100
74496,set_tempo,,,,,384,1,0,,674157,,,,,,,
74500,note_on,,,,,64,0,12,,,,,5,,,48,85
74500,note_on,,,,,64,0,15,,,,,7,,,48,100
74504,note_on,,,,,64,0,13,,,,,6,,,36,87
74624,note_off,,,,,0,0,14,,,,,7,,,58,100
74624,note_off,,,,,128,0,14,,,,,7,,,55,100
74628,note_off,,,,,128,0,15,,,,,7,,,48,100
74628,note_off,,,,,128,0,12,,,,,5,,,48,100
74632,note_off,,,,,128,0,13,,,,,6,,,36,100
74688,note_on,,,,,64,0,14,,,,,7,,,55,100
74688,note_on,,,,,0,0,14,,,,,7,,,58,100
74692,note_on,,,,,64,0,12,,,,,5,,,48,85
74692,note_on,,,,,64,0,15,,,,,7,,,48,100
74696,note_on,,,,,64,0,13,,,,,6,,,36,86
74768,note_off,,,,,1036,0,10,,,,,3,,,70,100
74768,note_off,,,,,652,0,11,,,,,4,,,67,100
74776,note_off,,,,,1036,0,8,,,,,1,,,70,100
74804,note_off,,,,,36,0,11,,,,,4,,,60,100
74804,note_off,,,,,688,0,9,,,,,2,,,76,100
74812,note_off,,,,,688,0,7,,,,,0,,,76,100
74816,note_off,,,,,128,0,14,,,,,7,,,55,100
74816,note_off,,,,,0,0,14,,,,,7,,,58,100
74820,note_off,,,,,128,0,15,,,,,7,,,48,100
74820,note_off,,,,,128,0,12,,,,,5,,,48,100
74824,note_off,,,,,128,0,13,,,,,6,,,36,100
74880,note_on,,,,,64,0,14,,,,,7,,,60,100
74880,note_on,,,,,56,0,13,,,,,6,,,41,85
74880,set_tempo,,,,,384,1,0,,681818,,,,,,,
74880,note_on,,,,,76,0,9,,,,,2,,,77,85
74880,note_on,,,,,0,0,11,,,,,4,,,65,85
74880,note_on,,,,,76,0,11,,,,,4,,,60,85
74880,note_on,,,,,60,0,12,,,,,5,,,53,85
74880,note_on,,,,,60,0,15,,,,,7,,,53,100
74880,note_on,,,,,112,0,10,,,,,3,,,69,85
74880,note_on,,,,,0,0,14,,,,,7,,,57,100
74888,note_on,,,,,76,0,7,,,,,0,,,77,85
74888,note_on,,,,,112,0,8,,,,,1,,,69,85
75136,note_off,,,,,256,0,15,,,,,7,,,53,100
75136,note_off,,,,,256,0,10,,,,,3,,,69,100
75136,note_off,,,,,256,0,12,,,,,5,,,53,100
75136,note_off,,,,,0,0,11,,,,,4,,,65,100
75136,note_off,,,,,256,0,11,,,,,4,,,60,100
75136,note_off,,,,,256,0,9,,,,,2,,,77,100
75136,note_off,,,,,256,0,13,,,,,6,,,41,100
75144,note_off,,,,,256,0,8,,,,,1,,,69,100
75144,note_off,,,,,256,0,7,,,,,0,,,77,100
75264,note_on,,,,,0,0,14,,,,,7,,,69,100
75264,note_on,,,,,0,0,14,,,,,7,,,72,100
75264,note_off,,,,,0,0,14,,,,,7,,,57,100
75264,note_off,,,,,384,0,14,,,,,7,,,60,100
75264,program_change,,,,,128,0,12,,,,,5,48,,,
75268,program_change,,,,,4,0,12,,,,,5,48,,,
75272,program_change,,,,,136,0,13,,,,,6,48,,,
75272,note_on,,,,,136,0,9,,,,,2,,,84,80
75272,note_on,,,,,136,0,11,,,,,4,,,69,80
75272,note_on,,,,,4,0,12,,,,,5,,,57,80
75272,note_on,,,,,136,0,15,,,,,7,,,57,100
75276,note_on,,,,,4,0,13,,,,,6,,,45,80
75280,note_on,,,,,136,0,7,,,,,0,,,84,80
75392,note_off,,,,,128,0,14,,,,,7,,,72,100
75392,note_off,,,,,0,0,14,,,,,7,,,69,100
75400,note_off,,,,,128,0,12,,,,,5,,,57,100
75400,note_off,,,,,128,0,15,,,,,7,,,57,100
75404,note_off,,,,,128,0,13,,,,,6,,,45,100
75456,note_on,,,,,64,0,14,,,,,7,,,72,100
75456,note_on,,,,,0,0,14,,,,,7,,,69,100
75464,note_on,,,,,64,0,15,,,,,7,,,57,100
75464,note_on,,,,,64,0,12,,,,,5,,,57,80
75468,note_on,,,,,64,0,13,,,,,6,,,45,80
75584,note_off,,,,,0,0,14,,,,,7,,,69,100
75584,note_off,,,,,128,0,14,,,,,7,,,72,100
75592,note_off,,,,,128,0,15,,,,,7,,,57,100
75592,note_off,,,,,128,0,12,,,,,5,,,57,100
75596,note_off,,,,,128,0,13,,,,,6,,,45,100
75648,note_on,,,,,0,0,14,,,,,7,,,69,100
75648,note_on,,,,,64,0,14,,,,,7,,,72,100
75656,note_on,,,,,64,0,12,,,,,5,,,57,80
75656,note_on,,,,,64,0,15,,,,,7,,,57,100
75656,note_on,,,,,520,0,10,,,,,3,,,77,80
75656,note_on,,,,,384,0,11,,,,,4,,,72,80
75660,note_on,,,,,64,0,13,,,,,6,,,45,80
75664,note_on,,,,,520,0,8,,,,,1,,,77,80
75776,note_off,,,,,128,0,14,,,,,7,,,72,100
75776,note_off,,,,,0,0,14,,,,,7,,,69,100
75784,note_off,,,,,128,0,15,,,,,7,,,57,100
75784,note_off,,,,,128,0,12,,,,,5,,,57,100
75788,note_off,,,,,128,0,13,,,,,6,,,45,100
75840,note_on,,,,,0,0,14,,,,,7,,,69,100
75840,note_on,,,,,64,0,14,,,,,7,,,72,100
75848,note_on,,,,,64,0,15,,,,,7,,,57,100
75848,note_on,,,,,64,0,12,,,,,5,,,57,80
75852,note_on,,,,,64,0,13,,,,,6,,,45,80
75968,note_off,,,,,0,0,14,,,,,7,,,69,100
75968,note_off,,,,,128,0,14,,,,,7,,,72,100
75976,note_off,,,,,128,0,15,,,,,7,,,57,100
75976,note_off,,,,,128,0,12,,,,,5,,,57,100
75980,note_off,,,,,128,0,13,,,,,6,,,45,100
76000,note_off,,,,,344,0,11,,,,,4,,,72,100
76000,note_off,,,,,344,0,10,,,,,3,,,77,100
76008,note_off,,,,,344,0,8,,,,,1,,,77,100
76032,note_on,,,,,64,0,14,,,,,7,,,69,100
76032,note_on,,,,,0,0,14,,,,,7,,,72,100
76040,note_on,,,,,40,0,11,,,,,4,,,74,80
76040,note_on,,,,,40,0,10,,,,,3,,,77,80
76040,note_on,,,,,64,0,15,,,,,7,,,62,100
76040,note_on,,,,,64,0,12,,,,,5,,,62,80
76044,note_on,,,,,64,0,13,,,,,6,,,50,80
76048,note_on,,,,,40,0,8,,,,,1,,,77,80
76160,note_off,,,,,0,0,14,,,,,7,,,72,100
76160,note_off,,,,,128,0,14,,,,,7,,,69,100
76168,note_off,,,,,128,0,12,,,,,5,,,62,100
76168,note_off,,,,,128,0,15,,,,,7,,,62,100
76172,note_off,,,,,128,0,13,,,,,6,,,50,100
76224,note_on,,,,,0,0,14,,,,,7,,,72,100
76224,note_on,,,,,64,0,14,,,,,7,,,69,100
76232,note_on,,,,,64,0,12,,,,,5,,,62,80
76232,note_on,,,,,64,0,15,,,,,7,,,62,100
76236,note_on,,,,,64,0,13,,,,,6,,,50,80
76352,note_off,,,,,0,0,14,,,,,7,,,72,100
76352,note_off,,,,,128,0,14,,,,,7,,,69,100
76360,note_off,,,,,128,0,12,,,,,5,,,62,100
76360,note_off,,,,,128,0,15,,,,,7,,,62,100
76364,note_off,,,,,128,0,13,,,,,6,,,50,100
76416,note_on,,,,,64,0,14,,,,,7,,,62,100
76416,note_on,,,,,0,0,14,,,,,7,,,65,100
76420,note_off,,,,,1148,0,9,,,,,2,,,84,64
76420,note_off,,,,,380,0,11,,,,,4,,,69,64
76424,note_on,,,,,4,0,9,,,,,2,,,82,80
76424,note_on,,,,,64,0,12,,,,,5,,,55,80
76424,note_on,,,,,4,0,11,,,,,4,,,67,80
76424,note_on,,,,,64,0,15,,,,,7,,,55,100
76428,note_off,,,,,1148,0,7,,,,,0,,,84,64
76428,note_on,,,,,64,0,13,,,,,6,,,43,80
76432,note_on,,,,,4,0,7,,,,,0,,,82,80
76544,note_off,,,,,128,0,14,,,,,7,,,62,100
76544,note_off,,,,,0,0,14,,,,,7,,,65,100
76552,note_off,,,,,128,0,15,,,,,7,,,55,100
76552,note_off,,,,,128,0,12,,,,,5,,,55,100
76556,note_off,,,,,128,0,13,,,,,6,,,43,100
76608,note_on,,,,,64,0,14,,,,,7,,,62,100
76608,note_on,,,,,0,0,14,,,,,7,,,65,100
76616,note_on,,,,,64,0,12,,,,,5,,,55,80
76616,note_on,,,,,64,0,15,,,,,7,,,55,100
76620,note_on,,,,,64,0,13,,,,,6,,,43,80
76736,note_off,,,,,128,0,14,,,,,7,,,62,100
76736,note_off,,,,,0,0,14,,,,,7,,,65,100
76744,note_off,,,,,128,0,15,,,,,7,,,55,100
76744,note_off,,,,,128,0,12,,,,,5,,,55,100
76748,note_off,,,,,128,0,13,,,,,6,,,43,100
76800,note_on,,,,,64,0,14,,,,,7,,,62,100
76800,note_on,,,,,0,0,14,,,,,7,,,65,100
76808,note_on,,,,,64,0,12,,,,,5,,,55,80
76808,note_on,,,,,64,0,15,,,,,7,,,55,100
76812,note_on,,,,,64,0,13,,,,,6,,,43,80
76928,note_off,,,,,128,0,14,,,,,7,,,62,100
76928,note_off,,,,,0,0,14,,,,,7,,,65,100
76936,note_off,,,,,128,0,15,,,,,7,,,55,100
76936,note_off,,,,,128,0,12,,,,,5,,,55,100
76940,note_off,,,,,128,0,13,,,,,6,,,43,100
76992,note_on,,,,,0,0,14,,,,,7,,,65,100
76992,note_on,,,,,64,0,14,,,,,7,,,62,100
77000,note_on,,,,,64,0,15,,,,,7,,,55,100
77000,note_on,,,,,64,0,12,,,,,5,,,55,80
77004,note_on,,,,,64,0,13,,,,,6,,,43,80
77076,note_off,,,,,652,0,11,,,,,4,,,74,100
77076,note_off,,,,,1036,0,10,,,,,3,,,77,100
77084,note_off,,,,,1036,0,8,,,,,1,,,77,100
77120,note_off,,,,,0,0,14,,,,,7,,,65,100
77120,note_off,,,,,128,0,14,,,,,7,,,62,100
77128,note_off,,,,,128,0,12,,,,,5,,,55,100
77128,note_off,,,,,128,0,15,,,,,7,,,55,100
77132,note_off,,,,,128,0,13,,,,,6,,,43,100
77184,note_on,,,,,64,0,14,,,,,7,,,67,100
77184,note_on,,,,,0,0,14,,,,,7,,,70,100
77192,note_on,,,,,64,0,12,,,,,5,,,60,80
77192,note_on,,,,,116,0,11,,,,,4,,,72,80
77192,note_on,,,,,64,0,15,,,,,7,,,60,100
77192,note_on,,,,,116,0,10,,,,,3,,,76,80
77196,note_on,,,,,64,0,13,,,,,6,,,48,80
77200,note_on,,,,,116,0,8,,,,,1,,,76,80
77312,note_off,,,,,0,0,14,,,,,7,,,70,100
77312,note_off,,,,,128,0,14,,,,,7,,,67,100
77320,note_off,,,,,128,0,15,,,,,7,,,60,100
77320,note_off,,,,,128,0,12,,,,,5,,,60,100
77324,note_off,,,,,128,0,13,,,,,6,,,48,100
77376,note_on,,,,,0,0,14,,,,,7,,,70,100
77376,note_on,,,,,64,0,14,,,,,7,,,67,100
77384,note_on,,,,,64,0,12,,,,,5,,,60,80
77384,note_on,,,,,64,0,15,,,,,7,,,60,100
77388,note_on,,,,,64,0,13,,,,,6,,,48,80
77504,note_off,,,,,128,0,14,,,,,7,,,67,100
77504,note_off,,,,,0,0,14,,,,,7,,,70,100
77512,note_off,,,,,128,0,15,,,,,7,,,60,100
77512,note_off,,,,,128,0,12,,,,,5,,,60,100
77516,note_off,,,,,128,0,13,,,,,6,,,48,100
77568,note_on,,,,,0,0,14,,,,,7,,,64,100
77568,note_on,,,,,64,0,14,,,,,7,,,60,100
77572,note_off,,,,,380,0,11,,,,,4,,,67,64
77572,note_off,,,,,1148,0,9,,,,,2,,,82,64
77576,note_on,,,,,4,0,11,,,,,4,,,65,80
77576,note_on,,,,,64,0,12,,,,,5,,,53,80
77576,note_on,,,,,64,0,15,,,,,7,,,53,100
77576,note_on,,,,,4,0,9,,,,,2,,,81,80
77580,note_on,,,,,64,0,13,,,,,6,,,41,80
77580,note_off,,,,,1148,0,7,,,,,0,,,82,64
77584,note_on,,,,,4,0,7,,,,,0,,,81,80
77696,note_off,,,,,0,0,14,,,,,7,,,64,100
77696,note_off,,,,,128,0,14,,,,,7,,,60,100
77704,note_off,,,,,128,0,12,,,,,5,,,53,100
77704,note_off,,,,,128,0,15,,,,,7,,,53,100
77708,note_off,,,,,128,0,13,,,,,6,,,41,100
77760,note_on,,,,,0,0,14,,,,,7,,,64,100
77760,note_on,,,,,64,0,14,,,,,7,,,60,100
77768,note_on,,,,,64,0,12,,,,,5,,,53,80
77768,note_on,,,,,64,0,15,,,,,7,,,53,100
77772,note_on,,,,,64,0,13,,,,,6,,,41,80
77888,note_off,,,,,128,0,14,,,,,7,,,60,100
77888,note_off,,,,,0,0,14,,,,,7,,,64,100
77896,note_off,,,,,128,0,15,,,,,7,,,53,100
77896,note_off,,,,,128,0,12,,,,,5,,,53,100
77900,note_off,,,,,128,0,13,,,,,6,,,41,100
77952,note_on,,,,,0,0,14,,,,,7,,,64,100
77952,note_on,,,,,64,0,14,,,,,7,,,60,100
77960,note_on,,,,,64,0,15,,,,,7,,,53,100
77960,note_on,,,,,64,0,12,,,,,5,,,53,79
77964,note_on,,,,,64,0,13,,,,,6,,,41,79
78080,note_off,,,,,128,0,14,,,,,7,,,60,100
78080,note_off,,,,,0,0,14,,,,,7,,,64,100
78088,note_off,,,,,128,0,15,,,,,7,,,53,100
78088,note_off,,,,,128,0,12,,,,,5,,,53,100
78092,note_off,,,,,128,0,13,,,,,6,,,41,100
78144,note_on,,,,,64,0,14,,,,,7,,,60,100
78144,note_on,,,,,0,0,14,,,,,7,,,64,100
78152,note_on,,,,,64,0,12,,,,,5,,,53,78
78152,note_on,,,,,64,0,15,,,,,7,,,53,100
78156,note_on,,,,,64,0,13,,,,,6,,,41,78
78228,note_off,,,,,1036,0,10,,,,,3,,,76,100
78228,note_off,,,,,652,0,11,,,,,4,,,72,100
78236,note_off,,,,,1036,0,8,,,,,1,,,76,100
78272,note_off,,,,,128,0,14,,,,,7,,,60,100
78272,note_off,,,,,0,0,14,,,,,7,,,64,100
78280,note_off,,,,,128,0,12,,,,,5,,,53,100
78280,note_off,,,,,128,0,15,,,,,7,,,53,100
78284,note_off,,,,,128,0,13,,,,,6,,,41,100
78336,note_on,,,,,64,0,14,,,,,7,,,65,100
78336,note_on,,,,,0,0,14,,,,,7,,,69,100
78344,note_on,,,,,64,0,12,,,,,5,,,58,78
78344,note_on,,,,,64,0,15,,,,,7,,,58,100
78344,note_on,,,,,116,0,11,,,,,4,,,70,78
78344,note_on,,,,,116,0,10,,,,,3,,,74,78
78348,note_on,,,,,64,0,13,,,,,6,,,46,78
78352,note_on,,,,,116,0,8,,,,,1,,,74,78
78464,note_off,,,,,128,0,14,,,,,7,,,65,100
78464,note_off,,,,,0,0,14,,,,,7,,,69,100
78472,note_off,,,,,128,0,15,,,,,7,,,58,100
78472,note_off,,,,,128,0,12,,,,,5,,,58,100
78476,note_off,,,,,128,0,13,,,,,6,,,46,100
78528,note_on,,,,,64,0,14,,,,,7,,,65,100
78528,note_on,,,,,0,0,14,,,,,7,,,69,100
78536,note_on,,,,,64,0,15,,,,,7,,,58,100
78536,note_on,,,,,64,0,12,,,,,5,,,58,77
78540,note_on,,,,,64,0,13,,,,,6,,,46,77
78656,note_off,,,,,0,0,14,,,,,7,,,69,100
78656,note_off,,,,,128,0,14,,,,,7,,,65,100
78664,note_off,,,,,128,0,12,,,,,5,,,58,100
78664,note_off,,,,,128,0,15,,,,,7,,,58,100
78668,note_off,,,,,128,0,13,,,,,6,,,46,100
78720,note_on,,,,,64,0,14,,,,,7,,,58,100
78720,note_on,,,,,0,0,14,,,,,7,,,62,100
78724,note_off,,,,,1148,0,9,,,,,2,,,81,64
78724,note_off,,,,,380,0,11,,,,,4,,,65,64
78728,note_on,,,,,64,0,12,,,,,5,,,52,76
78728,note_on,,,,,4,0,9,,,,,2,,,79,76
78728,note_on,,,,,64,0,15,,,,,7,,,52,100
78728,note_on,,,,,4,0,11,,,,,4,,,64,76
78732,note_on,,,,,64,0,13,,,,,6,,,40,76
78732,note_off,,,,,1148,0,7,,,,,0,,,81,64
78736,note_on,,,,,4,0,7,,,,,0,,,79,76
78848,note_off,,,,,0,0,14,,,,,7,,,62,100
78848,note_off,,,,,128,0,14,,,,,7,,,58,100
78856,note_off,,,,,128,0,15,,,,,7,,,52,100
78856,note_off,,,,,128,0,12,,,,,5,,,52,100
78860,note_off,,,,,128,0,13,,,,,6,,,40,100
78912,note_on,,,,,64,0,14,,,,,7,,,58,100
78912,note_on,,,,,0,0,14,,,,,7,,,62,100
78920,note_on,,,,,64,0,12,,,,,5,,,52,76
78920,note_on,,,,,64,0,15,,,,,7,,,52,100
78924,note_on,,,,,64,0,13,,,,,6,,,40,76
79040,note_off,,,,,0,0,14,,,,,7,,,62,100
79040,note_off,,,,,128,0,14,,,,,7,,,58,100
79048,note_off,,,,,128,0,15,,,,,7,,,52,100
79048,note_off,,,,,128,0,12,,,,,5,,,52,100
79052,note_off,,,,,128,0,13,,,,,6,,,40,100
79104,note_on,,,,,64,0,14,,,,,7,,,58,100
79104,note_on,,,,,0,0,14,,,,,7,,,62,100
79112,note_on,,,,,64,0,12,,,,,5,,,52,75
79112,note_on,,,,,64,0,15,,,,,7,,,52,100
79116,note_on,,,,,64,0,13,,,,,6,,,40,75
79232,note_off,,,,,128,0,14,,,,,7,,,58,100
79232,note_off,,,,,0,0,14,,,,,7,,,62,100
79240,note_off,,,,,128,0,12,,,,,5,,,52,100
79240,note_off,,,,,128,0,15,,,,,7,,,52,100
79244,note_off,,,,,128,0,13,,,,,6,,,40,100
79296,note_on,,,,,0,0,14,,,,,7,,,62,100
79296,note_on,,,,,64,0,14,,,,,7,,,58,100
79304,note_on,,,,,64,0,15,,,,,7,,,52,100
79304,note_on,,,,,64,0,12,,,,,5,,,52,74
79308,note_on,,,,,64,0,13,,,,,6,,,40,74
79380,note_off,,,,,1036,0,10,,,,,3,,,74,100
79380,note_off,,,,,652,0,11,,,,,4,,,70,100
79388,note_off,,,,,1036,0,8,,,,,1,,,74,100
79424,note_off,,,,,0,0,14,,,,,7,,,62,100
79424,note_off,,,,,128,0,14,,,,,7,,,58,100
79432,note_off,,,,,128,0,15,,,,,7,,,52,100
79432,note_off,,,,,128,0,12,,,,,5,,,52,100
79436,note_off,,,,,128,0,13,,,,,6,,,40,100
79488,set_tempo,,,,,4608,1,0,,681818,,,,,,,
79488,note_on,,,,,64,0,14,,,,,7,,,64,100
79488,note_on,,,,,0,0,14,,,,,7,,,67,100
79496,note_on,,,,,64,0,15,,,,,7,,,57,100
79496,note_on,,,,,116,0,11,,,,,4,,,69,74
79496,note_on,,,,,64,0,12,,,,,5,,,57,74
79496,note_on,,,,,116,0,10,,,,,3,,,72,74
79500,note_on,,,,,64,0,13,,,,,6,,,45,74
79504,note_on,,,,,116,0,8,,,,,1,,,72,74
79616,note_off,,,,,0,0,14,,,,,7,,,67,100
79616,note_off,,,,,128,0,14,,,,,7,,,64,100
79624,note_off,,,,,128,0,15,,,,,7,,,57,100
79624,note_off,,,,,128,0,12,,,,,5,,,57,100
79628,note_off,,,,,128,0,13,,,,,6,,,45,100
79680,note_on,,,,,0,0,14,,,,,7,,,67,100
79680,note_on,,,,,64,0,14,,,,,7,,,64,100
79688,note_on,,,,,64,0,12,,,,,5,,,57,74
79688,note_on,,,,,64,0,15,,,,,7,,,57,100
79692,note_on,,,,,64,0,13,,,,,6,,,45,73
79716,set_tempo,,,,,228,1,0,,689655,,,,,,,
79808,note_off,,,,,128,0,14,,,,,7,,,64,100
79808,note_off,,,,,0,0,14,,,,,7,,,67,100
79816,note_off,,,,,128,0,15,,,,,7,,,57,100
79816,note_off,,,,,128,0,12,,,,,5,,,57,100
79820,note_off,,,,,128,0,13,,,,,6,,,45,100
79872,note_on,,,,,64,0,14,,,,,7,,,57,100
79872,note_on,,,,,0,0,14,,,,,7,,,60,100
79876,note_off,,,,,380,0,11,,,,,4,,,64,64
79876,note_off,,,,,1148,0,9,,,,,2,,,79,64
79880,note_on,,,,,4,0,11,,,,,4,,,62,72
79880,note_on,,,,,64,0,15,,,,,7,,,50,100
79880,note_on,,,,,64,0,12,,,,,5,,,50,73
79880,note_on,,,,,4,0,9,,,,,2,,,77,72
79884,note_off,,,,,1148,0,7,,,,,0,,,79,64
79884,note_on,,,,,64,0,13,,,,,6,,,38,72
79888,note_on,,,,,4,0,7,,,,,0,,,77,72
79948,set_tempo,,,,,232,1,0,,697674,,,,,,,
80000,note_off,,,,,0,0,14,,,,,7,,,60,100
80000,note_off,,,,,128,0,14,,,,,7,,,57,100
80008,note_off,,,,,128,0,15,,,,,7,,,50,100
80008,note_off,,,,,128,0,12,,,,,5,,,50,100
80012,note_off,,,,,128,0,13,,,,,6,,,38,100
80064,note_on,,,,,0,0,14,,,,,7,,,60,100
80064,note_on,,,,,64,0,14,,,,,7,,,57,100
80072,note_on,,,,,64,0,15,,,,,7,,,50,100
80072,note_on,,,,,64,0,12,,,,,5,,,50,72
80076,note_on,,,,,64,0,13,,,,,6,,,38,72
80176,set_tempo,,,,,228,1,0,,705882,,,,,,,
80192,note_off,,,,,0,0,14,,,,,7,,,60,100
80192,note_off,,,,,128,0,14,,,,,7,,,57,100
80200,note_off,,,,,128,0,15,,,,,7,,,50,100
80200,note_off,,,,,128,0,12,,,,,5,,,50,100
80204,note_off,,,,,128,0,13,,,,,6,,,38,100
80256,note_on,,,,,0,0,14,,,,,7,,,60,100
80256,note_on,,,,,64,0,14,,,,,7,,,57,100
80264,note_on,,,,,64,0,12,,,,,5,,,50,71
80264,note_on,,,,,64,0,15,,,,,7,,,50,100
80268,note_on,,,,,64,0,13,,,,,6,,,38,71
80384,note_off,,,,,0,0,14,,,,,7,,,60,100
80384,note_off,,,,,128,0,14,,,,,7,,,57,100
80392,note_off,,,,,128,0,12,,,,,5,,,50,100
80392,note_off,,,,,128,0,15,,,,,7,,,50,100
80396,note_off,,,,,128,0,13,,,,,6,,,38,100
80408,set_tempo,,,,,232,1,0,,714285,,,,,,,
80448,note_on,,,,,0,0,14,,,,,7,,,60,100
80448,note_on,,,,,64,0,14,,,,,7,,,57,100
80456,note_on,,,,,64,0,12,,,,,5,,,50,70
80456,note_on,,,,,64,0,15,,,,,7,,,50,100
80460,note_on,,,,,64,0,13,,,,,6,,,38,70
80532,note_off,,,,,1036,0,10,,,,,3,,,72,100
80532,note_off,,,,,652,0,11,,,,,4,,,69,100
80540,note_off,,,,,1036,0,8,,,,,1,,,72,100
80576,note_off,,,,,0,0,14,,,,,7,,,60,100
80576,note_off,,,,,128,0,14,,,,,7,,,57,100
80584,note_off,,,,,128,0,15,,,,,7,,,50,100
80584,note_off,,,,,128,0,12,,,,,5,,,50,100
80588,note_off,,,,,128,0,13,,,,,6,,,38,100
80640,set_tempo,,,,,232,1,0,,722891,,,,,,,
80640,note_on,,,,,64,0,14,,,,,7,,,62,100
80640,note_on,,,,,0,0,14,,,,,7,,,65,100
80648,note_on,,,,,64,0,15,,,,,7,,,55,100
80648,note_on,,,,,116,0,10,,,,,3,,,70,70
80648,note_on,,,,,64,0,12,,,,,5,,,55,69
80648,note_on,,,,,116,0,11,,,,,4,,,67,70
80652,note_on,,,,,64,0,13,,,,,6,,,43,70
80656,note_on,,,,,116,0,8,,,,,1,,,70,70
80768,note_off,,,,,0,0,14,,,,,7,,,65,100
80768,note_off,,,,,128,0,14,,,,,7,,,62,100
80776,note_off,,,,,128,0,12,,,,,5,,,55,100
80776,note_off,,,,,128,0,15,,,,,7,,,55,100
80780,note_off,,,,,128,0,13,,,,,6,,,43,100
80832,note_on,,,,,64,0,14,,,,,7,,,62,100
80832,note_on,,,,,0,0,14,,,,,7,,,65,100
80840,note_on,,,,,64,0,15,,,,,7,,,55,100
80840,note_on,,,,,64,0,12,,,,,5,,,55,68
80844,note_on,,,,,64,0,13,,,,,6,,,43,69
80868,set_tempo,,,,,228,1,0,,731707,,,,,,,
80960,note_off,,,,,128,0,14,,,,,7,,,62,100
80960,note_off,,,,,0,0,14,,,,,7,,,65,100
80968,note_off,,,,,128,0,15,,,,,7,,,55,100
80968,note_off,,,,,128,0,12,,,,,5,,,55,100
80972,note_off,,,,,128,0,13,,,,,6,,,43,100
81024,note_on,,,,,64,0,14,,,,,7,,,55,100
81024,note_on,,,,,0,0,14,,,,,7,,,58,100
81028,note_off,,,,,380,0,11,,,,,4,,,62,64
81028,note_off,,,,,1148,0,9,,,,,2,,,77,64
81032,note_on,,,,,64,0,12,,,,,5,,,48,67
81032,note_on,,,,,4,0,11,,,,,4,,,60,68
81032,note_on,,,,,4,0,9,,,,,2,,,76,68
81032,note_on,,,,,64,0,15,,,,,7,,,48,100
81036,note_on,,,,,64,0,13,,,,,6,,,36,68
81036,note_off,,,,,1148,0,7,,,,,0,,,77,64
81040,note_on,,,,,4,0,7,,,,,0,,,76,68
81100,set_tempo,,,,,232,1,0,,740740,,,,,,,
81152,note_off,,,,,128,0,14,,,,,7,,,55,100
81152,note_off,,,,,0,0,14,,,,,7,,,58,100
81160,note_off,,,,,128,0,15,,,,,7,,,48,100
81160,note_off,,,,,128,0,12,,,,,5,,,48,100
81164,note_off,,,,,128,0,13,,,,,6,,,36,100
81216,note_on,,,,,64,0,14,,,,,7,,,55,100
81216,note_on,,,,,0,0,14,,,,,7,,,58,100
81224,note_on,,,,,64,0,12,,,,,5,,,48,66
81224,note_on,,,,,64,0,15,,,,,7,,,48,100
81228,note_on,,,,,64,0,13,,,,,6,,,36,68
81328,set_tempo,,,,,228,1,0,,750000,,,,,,,
81344,note_off,,,,,0,0,14,,,,,7,,,58,100
81344,note_off,,,,,128,0,14,,,,,7,,,55,100
81352,note_off,,,,,128,0,12,,,,,5,,,48,100
81352,note_off,,,,,128,0,15,,,,,7,,,48,100
81356,note_off,,,,,128,0,13,,,,,6,,,36,100
81408,note_on,,,,,64,0,14,,,,,7,,,55,100
81408,note_on,,,,,0,0,14,,,,,7,,,58,100
81416,note_on,,,,,64,0,15,,,,,7,,,48,100
81416,note_on,,,,,64,0,12,,,,,5,,,48,65
81420,note_on,,,,,64,0,13,,,,,6,,,36,67
81536,note_off,,,,,128,0,14,,,,,7,,,55,100
81536,note_off,,,,,0,0,14,,,,,7,,,58,100
81544,note_off,,,,,128,0,15,,,,,7,,,48,100
81544,note_off,,,,,128,0,12,,,,,5,,,48,100
81548,note_off,,,,,128,0,13,,,,,6,,,36,100
81560,set_tempo,,,,,232,1,0,,759493,,,,,,,
81600,note_on,,,,,64,0,14,,,,,7,,,55,100
81600,note_on,,,,,0,0,14,,,,,7,,,58,100
81608,note_on,,,,,64,0,15,,,,,7,,,48,100
81608,note_on,,,,,64,0,12,,,,,5,,,48,65
81612,note_on,,,,,64,0,13,,,,,6,,,36,66
81684,note_off,,,,,1036,0,10,,,,,3,,,70,100
81684,note_off,,,,,652,0,11,,,,,4,,,67,100
81692,note_off,,,,,1036,0,8,,,,,1,,,70,100
81720,note_off,,,,,688,0,9,,,,,2,,,76,100
81720,note_off,,,,,36,0,11,,,,,4,,,60,100
81728,note_off,,,,,128,0,14,,,,,7,,,55,100
81728,note_off,,,,,688,0,7,,,,,0,,,76,100
81728,note_off,,,,,0,0,14,,,,,7,,,58,100
81736,note_off,,,,,128,0,15,,,,,7,,,48,100
81736,note_off,,,,,128,0,12,,,,,5,,,48,100
81740,note_off,,,,,128,0,13,,,,,6,,,36,100
81792,note_on,,,,,72,0,9,,,,,2,,,77,60
81792,note_on,,,,,56,0,15,,,,,7,,,53,100
81792,note_on,,,,,72,0,11,,,,,4,,,60,60
81792,note_on,,,,,52,0,13,,,,,6,,,41,60
81792,set_tempo,,,,,232,1,0,,769230,,,,,,,
81792,note_on,,,,,0,0,11,,,,,4,,,65,60
81792,note_on,,,,,108,0,10,,,,,3,,,69,60
81792,note_on,,,,,56,0,12,,,,,5,,,53,60
81800,note_on,,,,,72,0,7,,,,,0,,,77,60
81800,note_on,,,,,108,0,8,,,,,1,,,69,60
81852,note_on,,,,,124,0,14,,,,,7,,,57,100
81916,note_on,,,,,64,0,14,,,,,7,,,60,100
81980,note_on,,,,,64,0,14,,,,,7,,,65,100
82620,note_off,,,,,640,0,14,,,,,7,,,57,100
82684,note_off,,,,,64,0,14,,,,,7,,,60,100
82748,note_off,,,,,64,0,14,,,,,7,,,65,100
82748,end_of_track,,,,,0,1,14,,,,,,,,,
82940,end_of_track,,,,,0,1,10,,,,,,,,,
82940,end_of_track,,,,,0,1,12,,,,,,,,,
82940,note_off,,,,,1148,0,12,,,,,5,,,53,100
82940,note_off,,,,,1148,0,13,,,,,6,,,41,100
82940,end_of_track,,,,,0,1,13,,,,,,,,,
82940,end_of_track,,,,,0,1,9,,,,,,,,,
82940,note_off,,,,,1148,0,9,,,,,2,,,77,100
82940,note_off,,,,,1148,0,10,,,,,3,,,69,100
82940,end_of_track,,,,,0,1,15,,,,,,,,,
82940,end_of_track,,,,,0,1,11,,,,,,,,,
82940,note_off,,,,,0,0,11,,,,,4,,,65,100
82940,note_off,,,,,1148,0,11,,,,,4,,,60,100
82940,note_off,,,,,1148,0,15,,,,,7,,,53,100
82948,note_off,,,,,1148,0,8,,,,,1,,,69,100
82948,end_of_track,,,,,0,1,8,,,,,,,,,
82948,end_of_track,,,,,0,1,7,,,,,,,,,
82948,note_off,,,,,1148,0,7,,,,,0,,,77,100
84096,end_of_track,,,,,0,1,0,,,,,,,,,
84096,set_tempo,,,,,2304,1,0,,638297,,,,,,,
