tick,type,numerator,denominator,clocks_per_click,notated_32nd_notes_per_beat,time,meta,track,data,tempo,control,value,channel,program,key,note,velocity
0,time_signature,6,8,96,8,0,1,0,,,,,,,,,
0,key_signature,,,,,0,1,5,,,,,,,Bm,,
0,end_of_track,,,,,0,1,5,,,,,,,,,
0,track_name,,,,,0,1,6,,,,,,,,,
0,control_change,,,,,0,0,6,,,0,0,0,,,,
0,program_change,,,,,0,0,6,,,,,0,48,,,
0,control_change,,,,,0,0,6,,,7,100,0,,,,
0,control_change,,,,,0,0,6,,,10,56,0,,,,
0,control_change,,,,,0,0,6,,,91,60,0,,,,
0,key_signature,,,,,0,1,6,,,,,,,Bm,,
0,end_of_track,,,,,0,1,6,,,,,,,,,
0,track_name,,,,,0,1,7,,,,,,,,,
0,control_change,,,,,0,0,7,,,0,0,0,,,,
0,program_change,,,,,0,0,7,,,,,0,48,,,
0,control_change,,,,,0,0,7,,,7,100,0,,,,
0,control_change,,,,,0,0,7,,,10,56,0,,,,
0,control_change,,,,,0,0,7,,,91,60,0,,,,
0,key_signature,,,,,0,1,7,,,,,,,Bm,,
0,note_on,,,,,0,0,7,,,,,0,,,71,115
0,track_name,,,,,0,1,8,,,,,,,,,
0,control_change,,,,,0,0,8,,,0,0,1,,,,
0,program_change,,,,,0,0,8,,,,,1,48,,,
0,control_change,,,,,0,0,8,,,7,100,1,,,,
0,control_change,,,,,0,0,8,,,10,47,1,,,,
0,control_change,,,,,0,0,8,,,91,67,1,,,,
0,key_signature,,,,,0,1,8,,,,,,,Bm,,
0,note_on,,,,,0,0,8,,,,,1,,,71,50
0,control_change,,,,,0,0,3,,,91,60,0,,,,
0,control_change,,,,,0,0,5,,,91,60,0,,,,
0,control_change,,,,,0,0,5,,,10,56,0,,,,
0,control_change,,,,,0,0,5,,,7,100,0,,,,
0,program_change,,,,,0,0,5,,,,,0,48,,,
0,control_change,,,,,0,0,3,,,10,56,0,,,,
0,control_change,,,,,0,0,3,,,7,100,0,,,,
0,control_change,,,,,0,0,3,,,0,0,0,,,,
0,track_name,,,,,0,1,3,,,,,,,,,
0,end_of_track,,,,,0,1,2,,,,,,,,,
0,track_name,,,,,0,1,2,,,,,,,,,
0,end_of_track,,,,,0,1,1,,,,,,,,,
0,track_name,,,,,0,1,1,,,,,,,,,
0,key_signature,,,,,0,1,3,,,,,,,Bm,,
0,track_name,,,,,0,1,13,,,,,,,,,
0,control_change,,,,,0,0,13,,,0,0,6,,,,
0,program_change,,,,,0,0,13,,,,,6,48,,,
0,control_change,,,,,0,0,13,,,7,85,6,,,,
0,note_on,,,,,0,0,12,,,,,5,,,47,100
0,control_change,,,,,0,0,13,,,10,89,6,,,,
0,key_signature,,,,,0,1,13,,,,,,,Bm,,
0,note_on,,,,,0,0,13,,,,,6,,,35,100
0,end_of_track,,,,,0,1,3,,,,,,,,,
0,track_name,,,,,0,1,4,,,,,,,,,
0,control_change,,,,,0,0,4,,,0,0,0,,,,
0,program_change,,,,,0,0,4,,,,,0,48,,,
0,control_change,,,,,0,0,4,,,7,100,0,,,,
0,control_change,,,,,0,0,4,,,10,56,0,,,,
0,control_change,,,,,0,0,4,,,91,60,0,,,,
0,key_signature,,,,,0,1,4,,,,,,,Bm,,
0,end_of_track,,,,,0,1,4,,,,,,,,,
0,track_name,,,,,0,1,5,,,,,,,,,
0,control_change,,,,,0,0,5,,,0,0,0,,,,
0,control_change,,,,,0,0,13,,,91,61,6,,,,
0,key_signature,,,,,0,1,12,,,,,,,Bm,,
0,program_change,,,,,0,0,3,,,,,0,48,,,
0,control_change,,,,,0,0,12,,,10,72,5,,,,
0,key_signature,,,,,0,1,11,,,,,,,Bm,,
0,control_change,,,,,0,0,11,,,91,64,4,,,,
0,control_change,,,,,0,0,11,,,7,95,4,,,,
0,program_change,,,,,0,0,11,,,,,4,48,,,
0,control_change,,,,,0,0,11,,,0,0,4,,,,
0,track_name,,,,,0,1,11,,,,,,,,,
0,control_change,,,,,0,0,9,,,7,100,2,,,,
0,control_change,,,,,0,0,12,,,91,62,5,,,,
0,program_change,,,,,0,0,9,,,,,2,48,,,
0,note_on,,,,,0,0,10,,,,,3,,,71,50
0,key_signature,,,,,0,1,10,,,,,,,Bm,,
0,control_change,,,,,0,0,15,,,0,0,7,,,,
0,control_change,,,,,0,0,10,,,91,61,3,,,,
0,control_change,,,,,0,0,10,,,7,100,3,,,,
0,program_change,,,,,0,0,10,,,,,3,48,,,
0,control_change,,,,,0,0,10,,,0,0,3,,,,
0,track_name,,,,,0,1,10,,,,,,,,,
0,control_change,,,,,0,0,9,,,0,0,2,,,,
0,note_on,,,,,0,0,15,,,,,7,,,47,100
0,key_signature,,,,,0,1,15,,,,,,,Bm,,
0,control_change,,,,,0,0,15,,,91,62,7,,,,
0,control_change,,,,,0,0,15,,,7,55,7,,,,
0,program_change,,,,,0,0,15,,,,,7,6,,,
0,track_name,,,,,0,1,9,,,,,,,,,
0,control_change,,,,,0,0,10,,,10,40,3,,,,
0,note_on,,,,,0,0,11,,,,,4,,,66,100
0,note_on,,,,,0,0,11,,,,,4,,,62,100
0,control_change,,,,,0,0,9,,,91,64,2,,,,
0,control_change,,,,,0,0,12,,,7,90,5,,,,
0,sequencer_specific,,,,,0,1,0,"(0, 0, 65)",,,,,,,,
0,sequencer_specific,,,,,0,1,0,"(0, 0, 119, 14, 1)",,,,,,,,
0,set_tempo,,,,,0,1,0,,500000,,,,,,,
0,program_change,,,,,0,0,12,,,,,5,48,,,
0,control_change,,,,,0,0,12,,,0,0,5,,,,
0,track_name,,,,,0,1,12,,,,,,,,,
0,track_name,,,,,0,1,14,,,,,,,,,
0,control_change,,,,,0,0,14,,,0,0,7,,,,
0,program_change,,,,,0,0,14,,,,,7,6,,,
0,control_change,,,,,0,0,9,,,10,54,2,,,,
0,control_change,,,,,0,0,14,,,91,62,7,,,,
0,control_change,,,,,0,0,14,,,7,55,7,,,,
0,note_on,,,,,0,0,14,,,,,7,,,62,100
0,note_on,,,,,0,0,14,,,,,7,,,66,100
0,note_on,,,,,0,0,9,,,,,2,,,71,50
0,key_signature,,,,,0,1,9,,,,,,,Bm,,
0,key_signature,,,,,0,1,14,,,,,,,Bm,,
0,track_name,,,,,0,1,15,,,,,,,,,
128,note_off,,,,,128,0,10,,,,,3,,,71,100
128,note_off,,,,,128,0,9,,,,,2,,,71,100
128,note_off,,,,,128,0,8,,,,,1,,,71,100
128,note_off,,,,,128,0,7,,,,,0,,,71,100
192,note_on,,,,,64,0,10,,,,,3,,,74,50
192,note_on,,,,,64,0,9,,,,,2,,,74,50
192,note_on,,,,,64,0,7,,,,,0,,,74,115
192,note_on,,,,,64,0,8,,,,,1,,,74,50
256,note_off,,,,,64,0,9,,,,,2,,,74,100
256,note_off,,,,,64,0,8,,,,,1,,,74,100
256,note_off,,,,,256,0,15,,,,,7,,,47,100
256,note_off,,,,,64,0,10,,,,,3,,,74,100
256,note_off,,,,,256,0,11,,,,,4,,,62,100
256,note_off,,,,,0,0,11,,,,,4,,,66,100
256,note_off,,,,,0,0,14,,,,,7,,,66,100
256,note_off,,,,,256,0,14,,,,,7,,,62,100
256,note_off,,,,,64,0,7,,,,,0,,,74,100
256,note_off,,,,,256,0,12,,,,,5,,,47,100
256,note_off,,,,,256,0,13,,,,,6,,,35,100
288,note_on,,,,,32,0,7,,,,,0,,,73,115
288,note_on,,,,,32,0,9,,,,,2,,,73,50
288,note_on,,,,,32,0,8,,,,,1,,,73,50
288,note_on,,,,,32,0,10,,,,,3,,,73,50
352,note_off,,,,,64,0,10,,,,,3,,,73,100
352,note_off,,,,,64,0,7,,,,,0,,,73,100
352,note_off,,,,,64,0,8,,,,,1,,,73,100
352,note_off,,,,,64,0,9,,,,,2,,,73,100
384,note_on,,,,,32,0,7,,,,,0,,,71,115
384,note_on,,,,,32,0,9,,,,,2,,,71,50
384,note_on,,,,,32,0,8,,,,,1,,,71,50
384,note_on,,,,,32,0,10,,,,,3,,,71,50
512,note_off,,,,,128,0,7,,,,,0,,,71,100
512,note_off,,,,,128,0,9,,,,,2,,,71,100
512,note_off,,,,,128,0,8,,,,,1,,,71,100
512,note_off,,,,,128,0,10,,,,,3,,,71,100
576,note_on,,,,,320,0,13,,,,,6,,,35,100
576,note_on,,,,,64,0,7,,,,,0,,,66,115
576,note_on,,,,,64,0,9,,,,,2,,,66,50
576,note_on,,,,,64,0,8,,,,,1,,,66,50
576,note_on,,,,,320,0,12,,,,,5,,,47,100
576,note_on,,,,,0,0,11,,,,,4,,,66,100
576,note_on,,,,,64,0,10,,,,,3,,,66,50
576,note_on,,,,,320,0,11,,,,,4,,,62,100
576,note_on,,,,,0,0,14,,,,,7,,,66,100
576,note_on,,,,,320,0,14,,,,,7,,,62,100
576,note_on,,,,,320,0,15,,,,,7,,,47,100
704,note_off,,,,,128,0,10,,,,,3,,,66,100
704,note_off,,,,,128,0,7,,,,,0,,,66,100
704,note_off,,,,,128,0,9,,,,,2,,,66,100
704,note_off,,,,,128,0,8,,,,,1,,,66,100
768,note_on,,,,,64,0,7,,,,,0,,,71,115
768,note_on,,,,,64,0,8,,,,,1,,,71,50
768,note_on,,,,,64,0,9,,,,,2,,,71,50
768,note_on,,,,,64,0,10,,,,,3,,,71,50
832,note_off,,,,,256,0,12,,,,,5,,,47,100
832,note_off,,,,,256,0,14,,,,,7,,,62,100
832,note_off,,,,,256,0,15,,,,,7,,,47,100
832,note_off,,,,,0,0,14,,,,,7,,,66,100
832,note_off,,,,,256,0,11,,,,,4,,,62,100
832,note_off,,,,,0,0,11,,,,,4,,,66,100
832,note_off,,,,,256,0,13,,,,,6,,,35,100
896,note_off,,,,,128,0,8,,,,,1,,,71,100
896,note_off,,,,,128,0,7,,,,,0,,,71,100
896,note_off,,,,,128,0,10,,,,,3,,,71,100
896,note_off,,,,,128,0,9,,,,,2,,,71,100
960,note_on,,,,,64,0,7,,,,,0,,,66,115
960,note_on,,,,,64,0,10,,,,,3,,,66,50
960,note_on,,,,,64,0,8,,,,,1,,,66,50
960,note_on,,,,,64,0,9,,,,,2,,,66,50
1088,note_off,,,,,128,0,9,,,,,2,,,66,100
1088,note_off,,,,,128,0,8,,,,,1,,,66,100
1088,note_off,,,,,128,0,10,,,,,3,,,66,100
1088,note_off,,,,,128,0,7,,,,,0,,,66,100
1152,note_on,,,,,320,0,15,,,,,7,,,47,100
1152,note_on,,,,,64,0,9,,,,,2,,,62,50
1152,note_on,,,,,64,0,10,,,,,3,,,62,50
1152,note_on,,,,,64,0,8,,,,,1,,,62,50
1152,set_tempo,,,,,1152,1,0,,500000,,,,,,,
1152,note_on,,,,,0,0,14,,,,,7,,,66,100
1152,note_on,,,,,0,0,11,,,,,4,,,66,100
1152,note_on,,,,,320,0,11,,,,,4,,,62,100
1152,note_on,,,,,320,0,12,,,,,5,,,47,100
1152,note_on,,,,,320,0,13,,,,,6,,,35,100
1152,note_on,,,,,320,0,14,,,,,7,,,62,100
1152,note_on,,,,,64,0,7,,,,,0,,,62,115
1280,note_off,,,,,128,0,8,,,,,1,,,62,100
1280,note_off,,,,,128,0,10,,,,,3,,,62,100
1280,note_off,,,,,128,0,7,,,,,0,,,62,100
1280,note_off,,,,,128,0,9,,,,,2,,,62,100
1344,note_on,,,,,64,0,10,,,,,3,,,66,50
1344,note_on,,,,,64,0,7,,,,,0,,,66,115
1344,note_on,,,,,64,0,8,,,,,1,,,66,50
1344,note_on,,,,,64,0,9,,,,,2,,,66,50
1408,note_off,,,,,256,0,12,,,,,5,,,47,100
1408,note_off,,,,,64,0,10,,,,,3,,,66,100
1408,note_off,,,,,64,0,7,,,,,0,,,66,100
1408,note_off,,,,,256,0,13,,,,,6,,,35,100
1408,note_off,,,,,0,0,14,,,,,7,,,66,100
1408,note_off,,,,,256,0,11,,,,,4,,,62,100
1408,note_off,,,,,256,0,15,,,,,7,,,47,100
1408,note_off,,,,,64,0,9,,,,,2,,,66,100
1408,note_off,,,,,64,0,8,,,,,1,,,66,100
1408,note_off,,,,,256,0,14,,,,,7,,,62,100
1408,note_off,,,,,0,0,11,,,,,4,,,66,100
1440,note_on,,,,,32,0,10,,,,,3,,,64,50
1440,note_on,,,,,32,0,7,,,,,0,,,64,115
1440,note_on,,,,,32,0,8,,,,,1,,,64,50
1440,note_on,,,,,32,0,9,,,,,2,,,64,50
1504,note_off,,,,,64,0,9,,,,,2,,,64,100
1504,note_off,,,,,64,0,7,,,,,0,,,64,100
1504,note_off,,,,,64,0,10,,,,,3,,,64,100
1504,note_off,,,,,64,0,8,,,,,1,,,64,100
1536,note_on,,,,,32,0,10,,,,,3,,,62,50
1536,note_on,,,,,32,0,9,,,,,2,,,62,50
1536,note_on,,,,,32,0,7,,,,,0,,,62,115
1536,note_on,,,,,32,0,8,,,,,1,,,62,50
1664,note_off,,,,,128,0,8,,,,,1,,,62,100
1664,note_off,,,,,128,0,10,,,,,3,,,62,100
1664,note_off,,,,,128,0,7,,,,,0,,,62,100
1664,note_off,,,,,128,0,9,,,,,2,,,62,100
1728,note_on,,,,,0,0,11,,,,,4,,,66,100
1728,note_on,,,,,320,0,15,,,,,7,,,47,100
1728,note_on,,,,,0,0,14,,,,,7,,,66,100
1728,note_on,,,,,320,0,14,,,,,7,,,62,100
1728,note_on,,,,,64,0,10,,,,,3,,,59,50
1728,note_on,,,,,320,0,11,,,,,4,,,62,100
1728,note_on,,,,,320,0,12,,,,,5,,,47,100
1728,note_on,,,,,64,0,8,,,,,1,,,59,50
1728,note_on,,,,,64,0,7,,,,,0,,,59,115
1728,note_on,,,,,64,0,9,,,,,2,,,59,50
1728,note_on,,,,,320,0,13,,,,,6,,,35,100
1856,note_off,,,,,128,0,7,,,,,0,,,59,100
1856,note_off,,,,,128,0,8,,,,,1,,,59,100
1856,note_off,,,,,128,0,10,,,,,3,,,59,100
1856,note_off,,,,,128,0,9,,,,,2,,,59,100
1920,note_on,,,,,64,0,9,,,,,2,,,62,50
1920,note_on,,,,,64,0,10,,,,,3,,,62,50
1920,note_on,,,,,64,0,7,,,,,0,,,62,115
1920,note_on,,,,,64,0,8,,,,,1,,,62,50
1984,note_off,,,,,256,0,12,,,,,5,,,47,100
1984,note_off,,,,,256,0,15,,,,,7,,,47,100
1984,note_off,,,,,256,0,11,,,,,4,,,62,100
1984,note_off,,,,,0,0,11,,,,,4,,,66,100
1984,note_off,,,,,256,0,13,,,,,6,,,35,100
1984,note_off,,,,,256,0,14,,,,,7,,,62,100
1984,note_off,,,,,0,0,14,,,,,7,,,66,100
2048,note_off,,,,,128,0,9,,,,,2,,,62,100
2048,note_off,,,,,128,0,10,,,,,3,,,62,100
2048,note_off,,,,,128,0,8,,,,,1,,,62,100
2048,note_off,,,,,128,0,7,,,,,0,,,62,100
2112,note_on,,,,,64,0,7,,,,,0,,,66,115
2112,note_on,,,,,64,0,9,,,,,2,,,66,50
2112,note_on,,,,,64,0,10,,,,,3,,,66,50
2112,note_on,,,,,64,0,8,,,,,1,,,66,50
2240,note_off,,,,,128,0,10,,,,,3,,,66,100
2240,note_off,,,,,128,0,8,,,,,1,,,66,100
2240,note_off,,,,,128,0,7,,,,,0,,,66,100
2240,note_off,,,,,128,0,9,,,,,2,,,66,100
2304,note_on,,,,,64,0,9,,,,,2,,,71,50
2304,note_on,,,,,64,0,8,,,,,1,,,71,50
2304,note_on,,,,,320,0,15,,,,,7,,,59,100
2304,note_on,,,,,0,0,11,,,,,4,,,66,100
2304,note_on,,,,,320,0,11,,,,,4,,,62,100
2304,note_on,,,,,0,0,14,,,,,7,,,78,100
2304,note_on,,,,,320,0,14,,,,,7,,,74,100
2304,note_on,,,,,64,0,7,,,,,0,,,71,115
2304,note_on,,,,,320,0,13,,,,,6,,,47,100
2304,note_on,,,,,320,0,12,,,,,5,,,59,100
2304,note_on,,,,,64,0,10,,,,,3,,,71,50
2432,note_off,,,,,128,0,15,,,,,7,,,59,100
2432,note_off,,,,,128,0,13,,,,,6,,,47,100
2432,note_off,,,,,128,0,14,,,,,7,,,74,100
2432,note_off,,,,,0,0,14,,,,,7,,,78,100
2432,note_off,,,,,128,0,12,,,,,5,,,59,100
2496,note_on,,,,,64,0,13,,,,,6,,,42,100
2496,note_on,,,,,64,0,15,,,,,7,,,54,100
2496,note_on,,,,,64,0,14,,,,,7,,,71,100
2496,note_on,,,,,64,0,12,,,,,5,,,54,100
2560,note_off,,,,,256,0,8,,,,,1,,,71,100
2560,note_off,,,,,64,0,12,,,,,5,,,54,100
2560,note_off,,,,,256,0,9,,,,,2,,,71,100
2560,note_off,,,,,256,0,10,,,,,3,,,71,100
2560,note_off,,,,,64,0,15,,,,,7,,,54,100
2560,note_off,,,,,256,0,7,,,,,0,,,71,100
2560,note_off,,,,,64,0,13,,,,,6,,,42,100
2560,note_off,,,,,64,0,14,,,,,7,,,71,100
2592,note_on,,,,,32,0,12,,,,,5,,,52,100
2592,note_on,,,,,32,0,13,,,,,6,,,40,100
2592,note_on,,,,,32,0,14,,,,,7,,,67,100
2592,note_on,,,,,32,0,15,,,,,7,,,52,100
2656,note_off,,,,,64,0,12,,,,,5,,,52,100
2656,note_off,,,,,64,0,13,,,,,6,,,40,100
2656,note_off,,,,,64,0,14,,,,,7,,,67,100
2656,note_off,,,,,64,0,15,,,,,7,,,52,100
2688,note_on,,,,,32,0,15,,,,,7,,,50,100
2688,note_on,,,,,128,0,10,,,,,3,,,59,49
2688,note_on,,,,,32,0,14,,,,,7,,,66,100
2688,note_on,,,,,128,0,8,,,,,1,,,59,49
2688,note_on,,,,,128,0,9,,,,,2,,,59,49
2688,note_on,,,,,32,0,12,,,,,5,,,50,99
2688,note_on,,,,,128,0,7,,,,,0,,,59,114
2688,note_on,,,,,32,0,13,,,,,6,,,38,99
2688,note_off,,,,,0,0,11,,,,,4,,,66,100
2688,note_off,,,,,384,0,11,,,,,4,,,62,100
2816,note_off,,,,,128,0,7,,,,,0,,,59,100
2816,note_off,,,,,128,0,12,,,,,5,,,50,100
2816,note_off,,,,,128,0,10,,,,,3,,,59,100
2816,note_off,,,,,128,0,8,,,,,1,,,59,100
2816,note_off,,,,,128,0,14,,,,,7,,,66,100
2816,note_off,,,,,128,0,9,,,,,2,,,59,100
2816,note_off,,,,,128,0,15,,,,,7,,,50,100
2816,note_off,,,,,128,0,13,,,,,6,,,38,100
2880,note_on,,,,,64,0,15,,,,,7,,,47,100
2880,note_on,,,,,64,0,12,,,,,5,,,47,97
2880,note_on,,,,,64,0,13,,,,,6,,,35,97
2880,note_on,,,,,0,0,14,,,,,7,,,62,100
2880,note_on,,,,,64,0,14,,,,,7,,,66,100
3008,note_off,,,,,128,0,15,,,,,7,,,47,100
3008,note_off,,,,,128,0,13,,,,,6,,,35,100
3008,note_off,,,,,0,0,14,,,,,7,,,62,100
3008,note_off,,,,,128,0,14,,,,,7,,,66,100
3008,note_off,,,,,128,0,12,,,,,5,,,47,100
3072,note_on,,,,,64,0,15,,,,,7,,,50,100
3072,note_on,,,,,64,0,12,,,,,5,,,50,95
3072,note_on,,,,,0,0,14,,,,,7,,,66,100
3072,note_on,,,,,64,0,14,,,,,7,,,71,100
3072,note_on,,,,,64,0,13,,,,,6,,,38,95
3200,note_off,,,,,128,0,15,,,,,7,,,50,100
3200,note_off,,,,,0,0,14,,,,,7,,,66,100
3200,note_off,,,,,128,0,14,,,,,7,,,71,100
3200,note_off,,,,,128,0,13,,,,,6,,,38,100
3200,note_off,,,,,128,0,12,,,,,5,,,50,100
3264,note_on,,,,,64,0,15,,,,,7,,,54,100
3264,note_on,,,,,64,0,12,,,,,5,,,54,93
3264,note_on,,,,,0,0,14,,,,,7,,,71,100
3264,note_on,,,,,64,0,13,,,,,6,,,42,93
3264,note_on,,,,,64,0,14,,,,,7,,,74,100
3392,note_off,,,,,128,0,13,,,,,6,,,42,100
3392,note_off,,,,,0,0,14,,,,,7,,,71,100
3392,note_off,,,,,128,0,14,,,,,7,,,74,100
3392,note_off,,,,,128,0,12,,,,,5,,,54,100
3392,note_off,,,,,128,0,15,,,,,7,,,54,100
3456,note_on,,,,,64,0,13,,,,,6,,,47,90
3456,note_on,,,,,64,0,15,,,,,7,,,59,100
3456,note_on,,,,,64,0,14,,,,,7,,,78,100
3456,note_on,,,,,64,0,12,,,,,5,,,59,90
3456,note_on,,,,,640,0,10,,,,,3,,,74,90
3456,note_on,,,,,0,0,14,,,,,7,,,74,100
3456,note_on,,,,,768,0,11,,,,,4,,,66,90
3456,note_on,,,,,640,0,9,,,,,2,,,78,90
3584,note_off,,,,,128,0,15,,,,,7,,,59,100
3584,note_off,,,,,128,0,11,,,,,4,,,66,100
3584,note_off,,,,,128,0,14,,,,,7,,,78,100
3584,note_off,,,,,0,0,14,,,,,7,,,74,100
3584,note_off,,,,,128,0,13,,,,,6,,,47,100
3584,note_off,,,,,128,0,10,,,,,3,,,74,100
3584,note_off,,,,,128,0,12,,,,,5,,,59,100
3584,note_off,,,,,128,0,9,,,,,2,,,78,100
3648,note_on,,,,,64,0,10,,,,,3,,,78,96
3648,note_on,,,,,64,0,9,,,,,2,,,83,96
3648,note_on,,,,,64,0,11,,,,,4,,,62,96
3776,note_off,,,,,128,0,9,,,,,2,,,83,100
3776,note_off,,,,,128,0,11,,,,,4,,,62,100
3776,note_off,,,,,128,0,10,,,,,3,,,78,100
3840,note_on,,,,,256,0,12,,,,,5,,,59,103
3840,note_on,,,,,256,0,15,,,,,7,,,59,100
3840,note_on,,,,,256,0,13,,,,,6,,,47,103
3840,note_on,,,,,64,0,10,,,,,3,,,74,103
3840,note_on,,,,,64,0,11,,,,,4,,,66,103
3840,note_on,,,,,256,0,14,,,,,7,,,78,100
3840,note_on,,,,,64,0,9,,,,,2,,,78,103
3840,note_on,,,,,0,0,14,,,,,7,,,74,100
3968,note_off,,,,,128,0,15,,,,,7,,,59,100
3968,note_off,,,,,128,0,13,,,,,6,,,47,100
3968,note_off,,,,,128,0,11,,,,,4,,,66,100
3968,note_off,,,,,128,0,10,,,,,3,,,74,100
3968,note_off,,,,,128,0,12,,,,,5,,,59,100
3968,note_off,,,,,128,0,14,,,,,7,,,78,100
3968,note_off,,,,,0,0,14,,,,,7,,,74,100
3968,note_off,,,,,128,0,9,,,,,2,,,78,100
4032,note_on,,,,,1216,0,7,,,,,0,,,83,109
4032,note_on,,,,,64,0,15,,,,,7,,,52,100
4032,note_on,,,,,64,0,11,,,,,4,,,71,109
4032,note_on,,,,,1216,0,8,,,,,1,,,79,109
4032,note_on,,,,,64,0,12,,,,,5,,,52,109
4032,note_on,,,,,0,0,14,,,,,7,,,74,100
4032,note_on,,,,,64,0,9,,,,,2,,,79,109
4032,note_on,,,,,64,0,13,,,,,6,,,40,109
4032,note_on,,,,,64,0,10,,,,,3,,,76,109
4032,note_on,,,,,64,0,14,,,,,7,,,71,100
4096,note_off,,,,,64,0,9,,,,,2,,,79,100
4096,note_off,,,,,64,0,10,,,,,3,,,76,100
4128,note_on,,,,,32,0,10,,,,,3,,,78,110
4128,note_on,,,,,32,0,9,,,,,2,,,81,110
4160,note_off,,,,,128,0,14,,,,,7,,,71,100
4160,note_off,,,,,0,0,14,,,,,7,,,74,100
4160,note_off,,,,,128,0,11,,,,,4,,,71,100
4160,note_off,,,,,128,0,13,,,,,6,,,40,100
4160,note_off,,,,,128,0,7,,,,,0,,,83,100
4160,note_off,,,,,128,0,12,,,,,5,,,52,100
4160,note_off,,,,,128,0,15,,,,,7,,,52,100
4160,note_off,,,,,128,0,8,,,,,1,,,79,100
4192,note_off,,,,,64,0,9,,,,,2,,,81,100
4192,note_off,,,,,64,0,10,,,,,3,,,78,100
4224,note_on,,,,,64,0,7,,,,,0,,,88,110
4224,note_on,,,,,32,0,10,,,,,3,,,76,110
4224,note_on,,,,,64,0,8,,,,,1,,,83,110
4224,note_on,,,,,64,0,11,,,,,4,,,67,110
4224,note_on,,,,,0,0,11,,,,,4,,,64,110
4224,note_on,,,,,32,0,9,,,,,2,,,79,110
4288,note_off,,,,,64,0,9,,,,,2,,,79,100
4288,note_off,,,,,64,0,10,,,,,3,,,76,100
4320,note_on,,,,,32,0,9,,,,,2,,,81,109
4320,note_on,,,,,32,0,10,,,,,3,,,78,109
4352,note_off,,,,,128,0,11,,,,,4,,,67,100
4352,note_off,,,,,128,0,8,,,,,1,,,83,100
4352,note_off,,,,,0,0,11,,,,,4,,,64,100
4352,note_off,,,,,128,0,7,,,,,0,,,88,100
4384,note_off,,,,,64,0,9,,,,,2,,,81,100
4384,note_off,,,,,64,0,10,,,,,3,,,78,100
4416,note_on,,,,,256,0,14,,,,,7,,,71,100
4416,note_on,,,,,32,0,9,,,,,2,,,79,108
4416,note_on,,,,,64,0,8,,,,,1,,,79,108
4416,note_on,,,,,64,0,7,,,,,0,,,83,108
4416,note_on,,,,,32,0,10,,,,,3,,,76,108
4416,note_on,,,,,0,0,14,,,,,7,,,74,100
4416,note_on,,,,,256,0,15,,,,,7,,,52,100
4416,note_on,,,,,256,0,12,,,,,5,,,52,108
4416,note_on,,,,,64,0,11,,,,,4,,,71,108
4416,note_on,,,,,256,0,13,,,,,6,,,40,108
4480,note_off,,,,,64,0,10,,,,,3,,,76,100
4480,note_off,,,,,64,0,9,,,,,2,,,79,100
4512,note_on,,,,,32,0,10,,,,,3,,,74,107
4512,note_on,,,,,32,0,9,,,,,2,,,78,107
4544,note_off,,,,,128,0,12,,,,,5,,,52,100
4544,note_off,,,,,128,0,7,,,,,0,,,83,100
4544,note_off,,,,,128,0,8,,,,,1,,,79,100
4544,note_off,,,,,128,0,14,,,,,7,,,71,100
4544,note_off,,,,,0,0,14,,,,,7,,,74,100
4544,note_off,,,,,128,0,11,,,,,4,,,71,100
4544,note_off,,,,,128,0,15,,,,,7,,,52,100
4544,note_off,,,,,128,0,13,,,,,6,,,40,100
4576,note_off,,,,,64,0,9,,,,,2,,,78,100
4576,note_off,,,,,64,0,10,,,,,3,,,74,100
4608,note_on,,,,,64,0,11,,,,,4,,,64,106
4608,note_on,,,,,32,0,10,,,,,3,,,73,106
4608,note_on,,,,,32,0,9,,,,,2,,,76,106
4608,note_on,,,,,64,0,13,,,,,6,,,45,106
4608,note_on,,,,,64,0,12,,,,,5,,,57,106
4608,note_on,,,,,64,0,8,,,,,1,,,81,106
4608,note_on,,,,,64,0,14,,,,,7,,,73,100
4608,note_on,,,,,0,0,14,,,,,7,,,76,100
4608,note_on,,,,,64,0,15,,,,,7,,,57,100
4608,note_on,,,,,64,0,7,,,,,0,,,85,106
4672,note_off,,,,,64,0,8,,,,,1,,,81,100
4672,note_off,,,,,64,0,7,,,,,0,,,85,100
4704,note_on,,,,,32,0,7,,,,,0,,,86,105
4704,note_on,,,,,32,0,8,,,,,1,,,83,105
4736,note_off,,,,,128,0,12,,,,,5,,,57,100
4736,note_off,,,,,128,0,14,,,,,7,,,73,100
4736,note_off,,,,,0,0,14,,,,,7,,,76,100
4736,note_off,,,,,128,0,15,,,,,7,,,57,100
4736,note_off,,,,,128,0,13,,,,,6,,,45,100
4736,note_off,,,,,128,0,11,,,,,4,,,64,100
4736,note_off,,,,,128,0,10,,,,,3,,,73,100
4736,note_off,,,,,128,0,9,,,,,2,,,76,100
4768,note_off,,,,,64,0,7,,,,,0,,,86,100
4768,note_off,,,,,64,0,8,,,,,1,,,83,100
4800,note_on,,,,,32,0,8,,,,,1,,,81,104
4800,note_on,,,,,64,0,11,,,,,4,,,69,104
4800,note_on,,,,,0,0,11,,,,,4,,,61,104
4800,note_on,,,,,32,0,7,,,,,0,,,85,104
4800,note_on,,,,,64,0,9,,,,,2,,,81,104
4800,note_on,,,,,64,0,10,,,,,3,,,76,104
4864,note_off,,,,,64,0,7,,,,,0,,,85,100
4864,note_off,,,,,64,0,8,,,,,1,,,81,100
4896,note_on,,,,,32,0,8,,,,,1,,,83,104
4896,note_on,,,,,32,0,7,,,,,0,,,86,104
4928,note_off,,,,,0,0,11,,,,,4,,,61,100
4928,note_off,,,,,128,0,9,,,,,2,,,81,100
4928,note_off,,,,,128,0,10,,,,,3,,,76,100
4928,note_off,,,,,128,0,11,,,,,4,,,69,100
4960,note_off,,,,,64,0,7,,,,,0,,,86,100
4960,note_off,,,,,64,0,8,,,,,1,,,83,100
4992,note_on,,,,,0,0,14,,,,,7,,,76,100
4992,note_on,,,,,256,0,15,,,,,7,,,57,100
4992,note_on,,,,,32,0,8,,,,,1,,,81,103
4992,note_on,,,,,256,0,12,,,,,5,,,57,103
4992,note_on,,,,,64,0,11,,,,,4,,,64,103
4992,note_on,,,,,64,0,9,,,,,2,,,76,103
4992,note_on,,,,,256,0,13,,,,,6,,,45,103
4992,note_on,,,,,32,0,7,,,,,0,,,85,103
4992,note_on,,,,,64,0,10,,,,,3,,,73,103
4992,note_on,,,,,256,0,14,,,,,7,,,73,100
5056,note_off,,,,,64,0,7,,,,,0,,,85,100
5056,note_off,,,,,64,0,8,,,,,1,,,81,100
5088,note_on,,,,,32,0,7,,,,,0,,,83,102
5088,note_on,,,,,32,0,8,,,,,1,,,79,102
5120,note_off,,,,,128,0,11,,,,,4,,,64,100
5120,note_off,,,,,128,0,15,,,,,7,,,57,100
5120,note_off,,,,,128,0,14,,,,,7,,,73,100
5120,note_off,,,,,128,0,12,,,,,5,,,57,100
5120,note_off,,,,,128,0,9,,,,,2,,,76,100
5120,note_off,,,,,128,0,13,,,,,6,,,45,100
5120,note_off,,,,,128,0,10,,,,,3,,,73,100
5120,note_off,,,,,0,0,14,,,,,7,,,76,100
5152,note_off,,,,,64,0,7,,,,,0,,,83,100
5152,note_off,,,,,64,0,8,,,,,1,,,79,100
5184,note_on,,,,,64,0,10,,,,,3,,,74,101
5184,note_on,,,,,64,0,15,,,,,7,,,50,100
5184,note_on,,,,,32,0,7,,,,,0,,,81,101
5184,note_on,,,,,32,0,8,,,,,1,,,78,101
5184,note_on,,,,,0,0,14,,,,,7,,,73,100
5184,note_on,,,,,64,0,14,,,,,7,,,69,100
5184,note_on,,,,,64,0,9,,,,,2,,,78,101
5184,note_on,,,,,64,0,12,,,,,5,,,50,101
5184,note_on,,,,,64,0,13,,,,,6,,,38,101
5184,note_on,,,,,64,0,11,,,,,4,,,69,101
5248,note_off,,,,,64,0,10,,,,,3,,,74,100
5248,note_off,,,,,64,0,9,,,,,2,,,78,100
5280,note_on,,,,,32,0,9,,,,,2,,,79,100
5280,note_on,,,,,32,0,10,,,,,3,,,76,100
5312,note_off,,,,,128,0,11,,,,,4,,,69,100
5312,note_off,,,,,128,0,13,,,,,6,,,38,100
5312,note_off,,,,,128,0,12,,,,,5,,,50,100
5312,note_off,,,,,128,0,15,,,,,7,,,50,100
5312,note_off,,,,,128,0,7,,,,,0,,,81,100
5312,note_off,,,,,128,0,14,,,,,7,,,69,100
5312,note_off,,,,,0,0,14,,,,,7,,,73,100
5312,note_off,,,,,128,0,8,,,,,1,,,78,100
5344,note_off,,,,,64,0,10,,,,,3,,,76,100
5344,note_off,,,,,64,0,9,,,,,2,,,79,100
5376,note_on,,,,,64,0,7,,,,,0,,,86,99
5376,note_on,,,,,32,0,9,,,,,2,,,78,99
5376,note_on,,,,,32,0,10,,,,,3,,,74,99
5376,note_on,,,,,64,0,8,,,,,1,,,81,99
5376,note_on,,,,,64,0,11,,,,,4,,,66,99
5376,note_on,,,,,0,0,11,,,,,4,,,62,99
5440,note_off,,,,,64,0,9,,,,,2,,,78,100
5440,note_off,,,,,64,0,10,,,,,3,,,74,100
5472,note_on,,,,,32,0,9,,,,,2,,,79,98
5472,note_on,,,,,32,0,10,,,,,3,,,76,98
5504,note_off,,,,,128,0,8,,,,,1,,,81,100
5504,note_off,,,,,128,0,11,,,,,4,,,66,100
5504,note_off,,,,,128,0,7,,,,,0,,,86,100
5504,note_off,,,,,0,0,11,,,,,4,,,62,100
5536,note_off,,,,,64,0,9,,,,,2,,,79,100
5536,note_off,,,,,64,0,10,,,,,3,,,76,100
5568,note_on,,,,,256,0,13,,,,,6,,,38,98
5568,note_on,,,,,32,0,10,,,,,3,,,74,98
5568,note_on,,,,,256,0,12,,,,,5,,,50,98
5568,note_on,,,,,64,0,11,,,,,4,,,69,98
5568,note_on,,,,,256,0,15,,,,,7,,,50,100
5568,note_on,,,,,64,0,7,,,,,0,,,81,98
5568,note_on,,,,,0,0,14,,,,,7,,,73,100
5568,note_on,,,,,64,0,8,,,,,1,,,78,98
5568,note_on,,,,,256,0,14,,,,,7,,,69,100
5568,note_on,,,,,32,0,9,,,,,2,,,78,98
5632,note_off,,,,,64,0,10,,,,,3,,,74,100
5632,note_off,,,,,64,0,9,,,,,2,,,78,100
5664,note_on,,,,,32,0,10,,,,,3,,,73,97
5664,note_on,,,,,32,0,9,,,,,2,,,76,97
5696,note_off,,,,,128,0,11,,,,,4,,,69,100
5696,note_off,,,,,128,0,15,,,,,7,,,50,100
5696,note_off,,,,,128,0,8,,,,,1,,,78,100
5696,note_off,,,,,128,0,13,,,,,6,,,38,100
5696,note_off,,,,,128,0,7,,,,,0,,,81,100
5696,note_off,,,,,128,0,12,,,,,5,,,50,100
5696,note_off,,,,,128,0,14,,,,,7,,,69,100
5696,note_off,,,,,0,0,14,,,,,7,,,73,100
5728,note_off,,,,,64,0,10,,,,,3,,,73,100
5728,note_off,,,,,64,0,9,,,,,2,,,76,100
5760,note_on,,,,,64,0,11,,,,,4,,,62,96
5760,note_on,,,,,64,0,8,,,,,1,,,79,96
5760,note_on,,,,,32,0,9,,,,,2,,,74,96
5760,note_on,,,,,32,0,10,,,,,3,,,71,96
5760,note_on,,,,,64,0,14,,,,,7,,,71,100
5760,note_on,,,,,0,0,14,,,,,7,,,74,100
5760,note_on,,,,,64,0,12,,,,,5,,,55,96
5760,note_on,,,,,64,0,7,,,,,0,,,83,96
5760,note_on,,,,,64,0,13,,,,,6,,,43,96
5760,note_on,,,,,64,0,15,,,,,7,,,55,100
5824,note_off,,,,,64,0,8,,,,,1,,,79,100
5824,note_off,,,,,64,0,7,,,,,0,,,83,100
5856,note_on,,,,,32,0,8,,,,,1,,,81,95
5856,note_on,,,,,32,0,7,,,,,0,,,85,95
5888,note_off,,,,,128,0,13,,,,,6,,,43,100
5888,note_off,,,,,128,0,11,,,,,4,,,62,100
5888,note_off,,,,,128,0,9,,,,,2,,,74,100
5888,note_off,,,,,128,0,12,,,,,5,,,55,100
5888,note_off,,,,,128,0,15,,,,,7,,,55,100
5888,note_off,,,,,128,0,10,,,,,3,,,71,100
5888,note_off,,,,,0,0,14,,,,,7,,,74,100
5888,note_off,,,,,128,0,14,,,,,7,,,71,100
5920,note_off,,,,,64,0,8,,,,,1,,,81,100
5920,note_off,,,,,64,0,7,,,,,0,,,85,100
5952,note_on,,,,,32,0,7,,,,,0,,,83,94
5952,note_on,,,,,64,0,10,,,,,3,,,74,94
5952,note_on,,,,,64,0,11,,,,,4,,,67,94
5952,note_on,,,,,0,0,11,,,,,4,,,59,94
5952,note_on,,,,,32,0,8,,,,,1,,,79,94
5952,note_on,,,,,64,0,9,,,,,2,,,79,94
6016,note_off,,,,,64,0,7,,,,,0,,,83,100
6016,note_off,,,,,64,0,8,,,,,1,,,79,100
6048,note_on,,,,,32,0,8,,,,,1,,,81,93
6048,note_on,,,,,32,0,7,,,,,0,,,85,93
6080,note_off,,,,,128,0,9,,,,,2,,,79,100
6080,note_off,,,,,128,0,11,,,,,4,,,67,100
6080,note_off,,,,,0,0,11,,,,,4,,,59,100
6080,note_off,,,,,128,0,10,,,,,3,,,74,100
6112,note_off,,,,,64,0,7,,,,,0,,,85,100
6112,note_off,,,,,64,0,8,,,,,1,,,81,100
6144,note_on,,,,,256,0,14,,,,,7,,,71,100
6144,note_on,,,,,0,0,14,,,,,7,,,74,100
6144,note_on,,,,,64,0,10,,,,,3,,,71,92
6144,note_on,,,,,256,0,12,,,,,5,,,55,92
6144,note_on,,,,,256,0,15,,,,,7,,,55,100
6144,note_on,,,,,64,0,9,,,,,2,,,74,92
6144,note_on,,,,,32,0,8,,,,,1,,,79,92
6144,note_on,,,,,256,0,13,,,,,6,,,43,92
6144,note_on,,,,,32,0,7,,,,,0,,,83,92
6144,note_on,,,,,64,0,11,,,,,4,,,62,92
6208,note_off,,,,,64,0,8,,,,,1,,,79,100
6208,note_off,,,,,64,0,7,,,,,0,,,83,100
6240,note_on,,,,,32,0,8,,,,,1,,,78,92
6240,note_on,,,,,32,0,7,,,,,0,,,81,92
6272,note_off,,,,,128,0,13,,,,,6,,,43,100
6272,note_off,,,,,128,0,12,,,,,5,,,55,100
6272,note_off,,,,,128,0,9,,,,,2,,,74,100
6272,note_off,,,,,128,0,14,,,,,7,,,71,100
6272,note_off,,,,,128,0,15,,,,,7,,,55,100
6272,note_off,,,,,0,0,14,,,,,7,,,74,100
6272,note_off,,,,,128,0,10,,,,,3,,,71,100
6272,note_off,,,,,128,0,11,,,,,4,,,62,100
6304,note_off,,,,,64,0,7,,,,,0,,,81,100
6304,note_off,,,,,64,0,8,,,,,1,,,78,100
6336,note_on,,,,,32,0,7,,,,,0,,,79,91
6336,note_on,,,,,64,0,15,,,,,7,,,46,100
6336,note_on,,,,,64,0,9,,,,,2,,,76,91
6336,note_on,,,,,64,0,12,,,,,5,,,46,91
6336,note_on,,,,,64,0,11,,,,,4,,,70,91
6336,note_on,,,,,0,0,14,,,,,7,,,67,100
6336,note_on,,,,,64,0,13,,,,,6,,,34,91
6336,note_on,,,,,64,0,14,,,,,7,,,64,100
6336,note_on,,,,,64,0,10,,,,,3,,,73,91
6336,note_on,,,,,32,0,8,,,,,1,,,76,91
6400,note_off,,,,,64,0,8,,,,,1,,,76,100
6400,note_off,,,,,64,0,7,,,,,0,,,79,100
6432,note_on,,,,,32,0,8,,,,,1,,,78,90
6432,note_on,,,,,32,0,7,,,,,0,,,81,90
6464,note_off,,,,,128,0,9,,,,,2,,,76,100
6464,note_off,,,,,128,0,13,,,,,6,,,34,100
6464,note_off,,,,,128,0,12,,,,,5,,,46,100
6464,note_off,,,,,0,0,14,,,,,7,,,67,100
6464,note_off,,,,,128,0,15,,,,,7,,,46,100
6464,note_off,,,,,128,0,11,,,,,4,,,70,100
6464,note_off,,,,,128,0,14,,,,,7,,,64,100
6464,note_off,,,,,128,0,10,,,,,3,,,73,100
6496,note_off,,,,,64,0,8,,,,,1,,,78,100
6496,note_off,,,,,64,0,7,,,,,0,,,81,100
6528,note_on,,,,,64,0,14,,,,,7,,,64,100
6528,note_on,,,,,0,0,14,,,,,7,,,67,100
6528,note_on,,,,,64,0,9,,,,,2,,,73,89
6528,note_on,,,,,32,0,8,,,,,1,,,76,89
6528,note_on,,,,,64,0,13,,,,,6,,,34,89
6528,note_on,,,,,64,0,12,,,,,5,,,46,89
6528,note_on,,,,,64,0,11,,,,,4,,,61,89
6528,note_on,,,,,64,0,15,,,,,7,,,46,100
6528,note_on,,,,,32,0,7,,,,,0,,,79,89
6528,note_on,,,,,64,0,10,,,,,3,,,70,89
6592,note_off,,,,,64,0,7,,,,,0,,,79,100
6592,note_off,,,,,64,0,8,,,,,1,,,76,100
6624,note_on,,,,,32,0,8,,,,,1,,,78,88
6624,note_on,,,,,32,0,7,,,,,0,,,81,88
6656,note_off,,,,,128,0,15,,,,,7,,,46,100
6656,note_off,,,,,128,0,12,,,,,5,,,46,100
6656,note_off,,,,,128,0,10,,,,,3,,,70,100
6656,note_off,,,,,0,0,14,,,,,7,,,67,100
6656,note_off,,,,,128,0,14,,,,,7,,,64,100
6656,note_off,,,,,128,0,9,,,,,2,,,73,100
6656,note_off,,,,,128,0,11,,,,,4,,,61,100
6656,note_off,,,,,128,0,13,,,,,6,,,34,100
6688,note_off,,,,,64,0,8,,,,,1,,,78,100
6688,note_off,,,,,64,0,7,,,,,0,,,81,100
6720,note_on,,,,,64,0,10,,,,,3,,,73,87
6720,note_on,,,,,64,0,13,,,,,6,,,34,87
6720,note_on,,,,,64,0,15,,,,,7,,,46,100
6720,note_on,,,,,32,0,7,,,,,0,,,79,87
6720,note_on,,,,,32,0,8,,,,,1,,,76,87
6720,note_on,,,,,64,0,12,,,,,5,,,46,87
6720,note_on,,,,,64,0,14,,,,,7,,,64,100
6720,note_on,,,,,0,0,14,,,,,7,,,67,100
6720,note_on,,,,,64,0,9,,,,,2,,,70,87
6784,note_off,,,,,64,0,7,,,,,0,,,79,100
6784,note_off,,,,,64,0,8,,,,,1,,,76,100
6816,note_on,,,,,32,0,7,,,,,0,,,81,86
6816,note_on,,,,,32,0,8,,,,,1,,,78,86
6848,note_off,,,,,128,0,10,,,,,3,,,73,100
6848,note_off,,,,,128,0,13,,,,,6,,,34,100
6848,note_off,,,,,128,0,9,,,,,2,,,70,100
6848,note_off,,,,,128,0,14,,,,,7,,,64,100
6848,note_off,,,,,128,0,15,,,,,7,,,46,100
6848,note_off,,,,,128,0,12,,,,,5,,,46,100
6848,note_off,,,,,0,0,14,,,,,7,,,67,100
6880,note_off,,,,,64,0,8,,,,,1,,,78,100
6880,note_off,,,,,64,0,7,,,,,0,,,81,100
6912,note_on,,,,,64,0,14,,,,,7,,,62,100
6912,note_on,,,,,256,0,11,,,,,4,,,66,86
6912,note_on,,,,,0,0,11,,,,,4,,,59,86
6912,note_on,,,,,0,0,14,,,,,7,,,66,100
6912,note_on,,,,,32,0,7,,,,,0,,,78,86
6912,note_on,,,,,64,0,10,,,,,3,,,74,86
6912,note_on,,,,,64,0,12,,,,,5,,,47,86
6912,note_on,,,,,64,0,15,,,,,7,,,47,100
6912,note_on,,,,,64,0,13,,,,,6,,,35,86
6912,note_on,,,,,32,0,8,,,,,1,,,74,86
7040,note_off,,,,,128,0,10,,,,,3,,,74,100
7040,note_off,,,,,128,0,14,,,,,7,,,62,100
7040,note_off,,,,,128,0,11,,,,,4,,,66,100
7040,note_off,,,,,128,0,8,,,,,1,,,74,100
7040,note_off,,,,,128,0,13,,,,,6,,,35,100
7040,note_off,,,,,0,0,14,,,,,7,,,66,100
7040,note_off,,,,,128,0,12,,,,,5,,,47,100
7040,note_off,,,,,128,0,15,,,,,7,,,47,100
7040,note_off,,,,,128,0,7,,,,,0,,,78,100
7040,note_off,,,,,0,0,11,,,,,4,,,59,100
7104,note_on,,,,,64,0,8,,,,,1,,,78,60
7104,note_on,,,,,64,0,15,,,,,7,,,47,100
7104,note_on,,,,,64,0,13,,,,,6,,,35,60
7104,note_on,,,,,64,0,7,,,,,0,,,83,60
7104,note_on,,,,,0,0,14,,,,,7,,,66,100
7104,note_on,,,,,256,0,9,,,,,2,,,74,60
7104,note_on,,,,,64,0,12,,,,,5,,,47,60
7104,note_on,,,,,64,0,14,,,,,7,,,62,100
7104,note_on,,,,,64,0,10,,,,,3,,,71,60
7232,note_off,,,,,128,0,9,,,,,2,,,74,100
7232,note_off,,,,,128,0,12,,,,,5,,,47,100
7232,note_off,,,,,128,0,13,,,,,6,,,35,100
7232,note_off,,,,,128,0,7,,,,,0,,,83,100
7232,note_off,,,,,128,0,14,,,,,7,,,62,100
7232,note_off,,,,,128,0,8,,,,,1,,,78,100
7232,note_off,,,,,128,0,15,,,,,7,,,47,100
7232,note_off,,,,,0,0,14,,,,,7,,,66,100
7232,note_off,,,,,128,0,10,,,,,3,,,71,100
7296,note_on,,,,,64,0,13,,,,,6,,,35,60
7296,note_on,,,,,64,0,9,,,,,2,,,71,60
7296,note_on,,,,,64,0,12,,,,,5,,,47,60
7296,note_on,,,,,0,0,14,,,,,7,,,66,100
7296,note_on,,,,,64,0,14,,,,,7,,,62,100
7296,note_on,,,,,64,0,10,,,,,3,,,74,60
7296,note_on,,,,,64,0,15,,,,,7,,,47,100
7296,note_on,,,,,64,0,7,,,,,0,,,78,60
7296,note_on,,,,,64,0,8,,,,,1,,,74,60
7424,note_off,,,,,128,0,14,,,,,7,,,62,100
7424,note_off,,,,,128,0,7,,,,,0,,,78,100
7424,note_off,,,,,0,0,14,,,,,7,,,66,100
7424,note_off,,,,,128,0,15,,,,,7,,,47,100
7424,note_off,,,,,128,0,13,,,,,6,,,35,100
7424,note_off,,,,,128,0,10,,,,,3,,,74,100
7424,note_off,,,,,128,0,8,,,,,1,,,74,100
7424,note_off,,,,,128,0,9,,,,,2,,,71,100
7424,note_off,,,,,128,0,12,,,,,5,,,47,100
7488,note_on,,,,,0,0,14,,,,,7,,,67,100
7488,note_on,,,,,448,0,11,,,,,4,,,70,60
7488,note_on,,,,,64,0,15,,,,,7,,,46,100
7488,note_on,,,,,64,0,13,,,,,6,,,34,60
7488,note_on,,,,,0,0,11,,,,,4,,,61,60
7488,note_on,,,,,64,0,8,,,,,1,,,76,60
7488,note_on,,,,,64,0,12,,,,,5,,,46,60
7488,note_on,,,,,64,0,14,,,,,7,,,64,100
7488,note_on,,,,,64,0,7,,,,,0,,,79,60
7488,note_on,,,,,64,0,10,,,,,3,,,73,60
7552,note_off,,,,,64,0,7,,,,,0,,,79,100
7552,note_off,,,,,64,0,8,,,,,1,,,76,100
7584,note_on,,,,,32,0,8,,,,,1,,,78,60
7584,note_on,,,,,32,0,7,,,,,0,,,81,60
7616,note_off,,,,,0,0,11,,,,,4,,,61,100
7616,note_off,,,,,128,0,11,,,,,4,,,70,100
7616,note_off,,,,,128,0,15,,,,,7,,,46,100
7616,note_off,,,,,128,0,12,,,,,5,,,46,100
7616,note_off,,,,,128,0,10,,,,,3,,,73,100
7616,note_off,,,,,128,0,14,,,,,7,,,64,100
7616,note_off,,,,,0,0,14,,,,,7,,,67,100
7616,note_off,,,,,128,0,13,,,,,6,,,34,100
7648,note_off,,,,,64,0,8,,,,,1,,,78,100
7648,note_off,,,,,64,0,7,,,,,0,,,81,100
7680,note_on,,,,,64,0,15,,,,,7,,,46,100
7680,note_on,,,,,64,0,13,,,,,6,,,34,60
7680,note_on,,,,,32,0,7,,,,,0,,,79,60
7680,note_on,,,,,256,0,9,,,,,2,,,73,60
7680,note_on,,,,,0,0,14,,,,,7,,,67,100
7680,note_on,,,,,64,0,14,,,,,7,,,64,100
7680,note_on,,,,,32,0,8,,,,,1,,,76,60
7680,note_on,,,,,64,0,12,,,,,5,,,46,60
7680,note_on,,,,,64,0,10,,,,,3,,,70,60
7744,note_off,,,,,64,0,7,,,,,0,,,79,100
7744,note_off,,,,,64,0,8,,,,,1,,,76,100
7776,note_on,,,,,32,0,7,,,,,0,,,81,60
7776,note_on,,,,,32,0,8,,,,,1,,,78,60
7808,note_off,,,,,128,0,9,,,,,2,,,73,100
7808,note_off,,,,,128,0,15,,,,,7,,,46,100
7808,note_off,,,,,128,0,12,,,,,5,,,46,100
7808,note_off,,,,,0,0,14,,,,,7,,,67,100
7808,note_off,,,,,128,0,10,,,,,3,,,70,100
7808,note_off,,,,,128,0,13,,,,,6,,,34,100
7808,note_off,,,,,128,0,14,,,,,7,,,64,100
7840,note_off,,,,,64,0,8,,,,,1,,,78,100
7840,note_off,,,,,64,0,7,,,,,0,,,81,100
7872,note_on,,,,,64,0,13,,,,,6,,,34,60
7872,note_on,,,,,0,0,14,,,,,7,,,67,100
7872,note_on,,,,,64,0,14,,,,,7,,,64,100
7872,note_on,,,,,64,0,9,,,,,2,,,70,60
7872,note_on,,,,,32,0,7,,,,,0,,,79,60
7872,note_on,,,,,64,0,15,,,,,7,,,46,100
7872,note_on,,,,,64,0,10,,,,,3,,,73,60
7872,note_on,,,,,32,0,8,,,,,1,,,76,60
7872,note_on,,,,,64,0,12,,,,,5,,,46,60
7936,note_off,,,,,64,0,8,,,,,1,,,76,100
7936,note_off,,,,,64,0,7,,,,,0,,,79,100
7968,note_on,,,,,32,0,7,,,,,0,,,81,60
7968,note_on,,,,,32,0,8,,,,,1,,,78,60
8000,note_off,,,,,128,0,10,,,,,3,,,73,100
8000,note_off,,,,,128,0,15,,,,,7,,,46,100
8000,note_off,,,,,128,0,9,,,,,2,,,70,100
8000,note_off,,,,,128,0,14,,,,,7,,,64,100
8000,note_off,,,,,0,0,14,,,,,7,,,67,100
8000,note_off,,,,,128,0,12,,,,,5,,,46,100
8000,note_off,,,,,128,0,13,,,,,6,,,34,100
8032,note_off,,,,,64,0,8,,,,,1,,,78,100
8032,note_off,,,,,64,0,7,,,,,0,,,81,100
8064,note_on,,,,,448,0,11,,,,,4,,,66,60
8064,note_on,,,,,0,0,14,,,,,7,,,66,100
8064,note_on,,,,,64,0,14,,,,,7,,,62,100
8064,note_on,,,,,64,0,12,,,,,5,,,47,60
8064,note_on,,,,,64,0,13,,,,,6,,,35,60
8064,note_on,,,,,32,0,8,,,,,1,,,74,60
8064,note_on,,,,,64,0,10,,,,,3,,,74,60
8064,note_on,,,,,32,0,7,,,,,0,,,78,60
8064,note_on,,,,,64,0,15,,,,,7,,,47,100
8064,note_on,,,,,0,0,11,,,,,4,,,59,60
8192,note_off,,,,,0,0,14,,,,,7,,,66,100
8192,note_off,,,,,128,0,7,,,,,0,,,78,100
8192,note_off,,,,,128,0,14,,,,,7,,,62,100
8192,note_off,,,,,128,0,12,,,,,5,,,47,100
8192,note_off,,,,,128,0,13,,,,,6,,,35,100
8192,note_off,,,,,128,0,11,,,,,4,,,66,100
8192,note_off,,,,,0,0,11,,,,,4,,,59,100
8192,note_off,,,,,128,0,10,,,,,3,,,74,100
8192,note_off,,,,,128,0,8,,,,,1,,,74,100
8192,note_off,,,,,128,0,15,,,,,7,,,47,100
8256,note_on,,,,,64,0,13,,,,,6,,,35,90
8256,note_on,,,,,64,0,10,,,,,3,,,71,90
8256,note_on,,,,,64,0,14,,,,,7,,,62,100
8256,note_on,,,,,64,0,15,,,,,7,,,47,100
8256,note_on,,,,,0,0,14,,,,,7,,,66,100
8256,note_on,,,,,64,0,7,,,,,0,,,83,90
8256,note_on,,,,,64,0,8,,,,,1,,,78,90
8256,note_on,,,,,64,0,12,,,,,5,,,47,90
8256,note_on,,,,,256,0,9,,,,,2,,,74,90
8384,note_off,,,,,128,0,8,,,,,1,,,78,100
8384,note_off,,,,,128,0,7,,,,,0,,,83,100
8384,note_off,,,,,128,0,10,,,,,3,,,71,100
8384,note_off,,,,,128,0,15,,,,,7,,,47,100
8384,note_off,,,,,128,0,9,,,,,2,,,74,100
8384,note_off,,,,,0,0,14,,,,,7,,,66,100
8384,note_off,,,,,128,0,13,,,,,6,,,35,100
8384,note_off,,,,,128,0,14,,,,,7,,,62,100
8384,note_off,,,,,128,0,12,,,,,5,,,47,100
8448,note_on,,,,,64,0,9,,,,,2,,,71,90
8448,note_on,,,,,64,0,13,,,,,6,,,35,90
8448,note_on,,,,,0,0,14,,,,,7,,,66,100
8448,note_on,,,,,64,0,14,,,,,7,,,62,100
8448,note_on,,,,,64,0,12,,,,,5,,,47,90
8448,note_on,,,,,64,0,7,,,,,0,,,78,90
8448,note_on,,,,,64,0,15,,,,,7,,,47,100
8448,note_on,,,,,64,0,8,,,,,1,,,74,90
8448,note_on,,,,,64,0,10,,,,,3,,,74,90
8576,note_off,,,,,128,0,7,,,,,0,,,78,100
8576,note_off,,,,,128,0,8,,,,,1,,,74,100
8576,note_off,,,,,128,0,10,,,,,3,,,74,100
8576,note_off,,,,,128,0,12,,,,,5,,,47,100
8576,note_off,,,,,128,0,13,,,,,6,,,35,100
8576,note_off,,,,,128,0,9,,,,,2,,,71,100
8576,note_off,,,,,128,0,14,,,,,7,,,62,100
8576,note_off,,,,,0,0,14,,,,,7,,,66,100
8576,note_off,,,,,128,0,15,,,,,7,,,47,100
8640,note_on,,,,,0,0,11,,,,,4,,,68,90
8640,note_on,,,,,448,0,11,,,,,4,,,59,90
8640,note_on,,,,,64,0,12,,,,,5,,,53,90
8640,note_on,,,,,64,0,15,,,,,7,,,53,100
8640,note_on,,,,,0,0,14,,,,,7,,,74,100
8640,note_on,,,,,64,0,8,,,,,1,,,80,90
8640,note_on,,,,,64,0,9,,,,,2,,,74,90
8640,note_on,,,,,64,0,10,,,,,3,,,71,90
8640,note_on,,,,,64,0,13,,,,,6,,,41,90
8640,note_on,,,,,64,0,14,,,,,7,,,71,100
8704,note_off,,,,,64,0,10,,,,,3,,,71,100
8704,note_off,,,,,64,0,9,,,,,2,,,74,100
8736,note_on,,,,,32,0,10,,,,,3,,,73,90
8736,note_on,,,,,32,0,9,,,,,2,,,76,90
8768,note_off,,,,,0,0,14,,,,,7,,,74,100
8768,note_off,,,,,128,0,14,,,,,7,,,71,100
8768,note_off,,,,,128,0,13,,,,,6,,,41,100
8768,note_off,,,,,128,0,15,,,,,7,,,53,100
8768,note_off,,,,,128,0,11,,,,,4,,,59,100
8768,note_off,,,,,0,0,11,,,,,4,,,68,100
8768,note_off,,,,,128,0,8,,,,,1,,,80,100
8768,note_off,,,,,128,0,12,,,,,5,,,53,100
8800,note_off,,,,,64,0,10,,,,,3,,,73,100
8800,note_off,,,,,64,0,9,,,,,2,,,76,100
8832,note_on,,,,,64,0,12,,,,,5,,,53,90
8832,note_on,,,,,64,0,15,,,,,7,,,53,100
8832,note_on,,,,,64,0,14,,,,,7,,,71,100
8832,note_on,,,,,256,0,7,,,,,0,,,80,90
8832,note_on,,,,,64,0,13,,,,,6,,,41,90
8832,note_on,,,,,32,0,10,,,,,3,,,71,90
8832,note_on,,,,,0,0,14,,,,,7,,,74,100
8832,note_on,,,,,64,0,8,,,,,1,,,77,90
8832,note_on,,,,,32,0,9,,,,,2,,,74,90
8896,note_off,,,,,64,0,9,,,,,2,,,74,100
8896,note_off,,,,,64,0,10,,,,,3,,,71,100
8928,note_on,,,,,32,0,9,,,,,2,,,76,90
8928,note_on,,,,,32,0,10,,,,,3,,,73,90
8960,note_off,,,,,128,0,14,,,,,7,,,71,100
8960,note_off,,,,,128,0,12,,,,,5,,,53,100
8960,note_off,,,,,0,0,14,,,,,7,,,74,100
8960,note_off,,,,,128,0,15,,,,,7,,,53,100
8960,note_off,,,,,128,0,7,,,,,0,,,80,100
8960,note_off,,,,,128,0,13,,,,,6,,,41,100
8960,note_off,,,,,128,0,8,,,,,1,,,77,100
8992,note_off,,,,,64,0,10,,,,,3,,,73,100
8992,note_off,,,,,64,0,9,,,,,2,,,76,100
9024,note_on,,,,,0,0,14,,,,,7,,,74,100
9024,note_on,,,,,64,0,14,,,,,7,,,71,100
9024,note_on,,,,,64,0,7,,,,,0,,,77,90
9024,note_on,,,,,64,0,13,,,,,6,,,41,90
9024,note_on,,,,,64,0,8,,,,,1,,,80,90
9024,note_on,,,,,64,0,12,,,,,5,,,53,90
9024,note_on,,,,,64,0,15,,,,,7,,,53,100
9024,note_on,,,,,32,0,10,,,,,3,,,71,90
9024,note_on,,,,,32,0,9,,,,,2,,,74,90
9088,note_off,,,,,64,0,9,,,,,2,,,74,100
9088,note_off,,,,,64,0,10,,,,,3,,,71,100
9120,note_on,,,,,32,0,10,,,,,3,,,73,90
9120,note_on,,,,,32,0,9,,,,,2,,,76,90
9152,note_off,,,,,128,0,8,,,,,1,,,80,100
9152,note_off,,,,,128,0,15,,,,,7,,,53,100
9152,note_off,,,,,128,0,13,,,,,6,,,41,100
9152,note_off,,,,,128,0,7,,,,,0,,,77,100
9152,note_off,,,,,128,0,14,,,,,7,,,71,100
9152,note_off,,,,,0,0,14,,,,,7,,,74,100
9152,note_off,,,,,128,0,12,,,,,5,,,53,100
9184,note_off,,,,,64,0,10,,,,,3,,,73,100
9184,note_off,,,,,64,0,9,,,,,2,,,76,100
9216,note_on,,,,,32,0,9,,,,,2,,,73,90
9216,note_on,,,,,64,0,15,,,,,7,,,54,100
9216,note_on,,,,,0,0,14,,,,,7,,,73,100
9216,note_on,,,,,64,0,14,,,,,7,,,70,100
9216,note_on,,,,,64,0,8,,,,,1,,,82,90
9216,note_on,,,,,64,0,13,,,,,6,,,42,90
9216,note_on,,,,,448,0,11,,,,,4,,,61,90
9216,note_on,,,,,0,0,11,,,,,4,,,66,90
9216,note_on,,,,,32,0,10,,,,,3,,,70,90
9216,note_on,,,,,64,0,12,,,,,5,,,54,90
9344,note_off,,,,,128,0,9,,,,,2,,,73,100
9344,note_off,,,,,128,0,8,,,,,1,,,82,100
9344,note_off,,,,,128,0,13,,,,,6,,,42,100
9344,note_off,,,,,0,0,11,,,,,4,,,66,100
9344,note_off,,,,,128,0,15,,,,,7,,,54,100
9344,note_off,,,,,128,0,10,,,,,3,,,70,100
9344,note_off,,,,,128,0,12,,,,,5,,,54,100
9344,note_off,,,,,128,0,11,,,,,4,,,61,100
9344,note_off,,,,,0,0,14,,,,,7,,,73,100
9344,note_off,,,,,128,0,14,,,,,7,,,70,100
9408,note_on,,,,,64,0,8,,,,,1,,,78,60
9408,note_on,,,,,64,0,13,,,,,6,,,42,60
9408,note_on,,,,,64,0,15,,,,,7,,,54,100
9408,note_on,,,,,64,0,12,,,,,5,,,54,60
9408,note_on,,,,,64,0,14,,,,,7,,,70,100
9408,note_on,,,,,64,0,9,,,,,2,,,78,60
9408,note_on,,,,,0,0,14,,,,,7,,,73,100
9408,note_on,,,,,256,0,7,,,,,0,,,82,60
9408,note_on,,,,,64,0,10,,,,,3,,,73,60
9536,note_off,,,,,128,0,10,,,,,3,,,73,100
9536,note_off,,,,,128,0,15,,,,,7,,,54,100
9536,note_off,,,,,128,0,14,,,,,7,,,70,100
9536,note_off,,,,,128,0,13,,,,,6,,,42,100
9536,note_off,,,,,128,0,9,,,,,2,,,78,100
9536,note_off,,,,,128,0,7,,,,,0,,,82,100
9536,note_off,,,,,128,0,12,,,,,5,,,54,100
9536,note_off,,,,,0,0,14,,,,,7,,,73,100
9536,note_off,,,,,128,0,8,,,,,1,,,78,100
9600,note_on,,,,,64,0,9,,,,,2,,,73,60
9600,note_on,,,,,64,0,8,,,,,1,,,82,60
9600,note_on,,,,,64,0,10,,,,,3,,,70,60
9600,note_on,,,,,64,0,7,,,,,0,,,78,60
9600,note_on,,,,,64,0,14,,,,,7,,,70,100
9600,note_on,,,,,64,0,12,,,,,5,,,54,60
9600,note_on,,,,,64,0,13,,,,,6,,,42,60
9600,note_on,,,,,64,0,15,,,,,7,,,54,100
9600,note_on,,,,,0,0,14,,,,,7,,,73,100
9728,note_off,,,,,128,0,8,,,,,1,,,82,100
9728,note_off,,,,,128,0,13,,,,,6,,,42,100
9728,note_off,,,,,128,0,14,,,,,7,,,70,100
9728,note_off,,,,,128,0,9,,,,,2,,,73,100
9728,note_off,,,,,0,0,14,,,,,7,,,73,100
9728,note_off,,,,,128,0,7,,,,,0,,,78,100
9728,note_off,,,,,128,0,12,,,,,5,,,54,100
9728,note_off,,,,,128,0,10,,,,,3,,,70,100
9728,note_off,,,,,128,0,15,,,,,7,,,54,100
9792,note_on,,,,,64,0,8,,,,,1,,,80,60
9792,note_on,,,,,64,0,10,,,,,3,,,71,60
9792,note_on,,,,,64,0,9,,,,,2,,,74,60
9792,note_on,,,,,0,0,11,,,,,4,,,68,60
9792,note_on,,,,,64,0,14,,,,,7,,,74,100
9792,note_on,,,,,64,0,13,,,,,6,,,41,60
9792,note_on,,,,,64,0,12,,,,,5,,,53,60
9792,note_on,,,,,448,0,11,,,,,4,,,65,60
9792,note_on,,,,,0,0,14,,,,,7,,,71,100
9792,note_on,,,,,64,0,15,,,,,7,,,53,100
9856,note_off,,,,,64,0,10,,,,,3,,,71,100
9856,note_off,,,,,64,0,9,,,,,2,,,74,100
9888,note_on,,,,,32,0,10,,,,,3,,,73,64
9888,note_on,,,,,32,0,9,,,,,2,,,76,64
9920,note_off,,,,,128,0,12,,,,,5,,,53,100
9920,note_off,,,,,128,0,15,,,,,7,,,53,100
9920,note_off,,,,,128,0,13,,,,,6,,,41,100
9920,note_off,,,,,128,0,14,,,,,7,,,74,100
9920,note_off,,,,,0,0,14,,,,,7,,,71,100
9920,note_off,,,,,0,0,11,,,,,4,,,68,100
9920,note_off,,,,,128,0,11,,,,,4,,,65,100
9920,note_off,,,,,128,0,8,,,,,1,,,80,100
9952,note_off,,,,,64,0,9,,,,,2,,,76,100
9952,note_off,,,,,64,0,10,,,,,3,,,73,100
9984,note_on,,,,,64,0,13,,,,,6,,,41,69
9984,note_on,,,,,64,0,8,,,,,1,,,76,69
9984,note_on,,,,,32,0,9,,,,,2,,,74,69
9984,note_on,,,,,64,0,12,,,,,5,,,53,69
9984,note_on,,,,,64,0,15,,,,,7,,,53,100
9984,note_on,,,,,256,0,7,,,,,0,,,80,69
9984,note_on,,,,,32,0,10,,,,,3,,,71,69
9984,note_on,,,,,64,0,14,,,,,7,,,74,100
9984,note_on,,,,,0,0,14,,,,,7,,,71,100
10048,note_off,,,,,64,0,10,,,,,3,,,71,100
10048,note_off,,,,,64,0,9,,,,,2,,,74,100
10080,note_on,,,,,32,0,9,,,,,2,,,76,74
10080,note_on,,,,,32,0,10,,,,,3,,,73,74
10112,note_off,,,,,128,0,12,,,,,5,,,53,100
10112,note_off,,,,,128,0,7,,,,,0,,,80,100
10112,note_off,,,,,128,0,15,,,,,7,,,53,100
10112,note_off,,,,,128,0,14,,,,,7,,,74,100
10112,note_off,,,,,0,0,14,,,,,7,,,71,100
10112,note_off,,,,,128,0,8,,,,,1,,,76,100
10112,note_off,,,,,128,0,13,,,,,6,,,41,100
10144,note_off,,,,,64,0,10,,,,,3,,,73,100
10144,note_off,,,,,64,0,9,,,,,2,,,76,100
10176,note_on,,,,,64,0,8,,,,,1,,,80,79
10176,note_on,,,,,0,0,14,,,,,7,,,71,100
10176,note_on,,,,,64,0,14,,,,,7,,,74,100
10176,note_on,,,,,32,0,9,,,,,2,,,74,79
10176,note_on,,,,,64,0,12,,,,,5,,,53,79
10176,note_on,,,,,32,0,10,,,,,3,,,71,79
10176,note_on,,,,,64,0,15,,,,,7,,,53,100
10176,note_on,,,,,64,0,13,,,,,6,,,41,79
10176,note_on,,,,,64,0,7,,,,,0,,,77,79
10240,note_off,,,,,64,0,9,,,,,2,,,74,100
10240,note_off,,,,,64,0,10,,,,,3,,,71,100
10272,note_on,,,,,32,0,9,,,,,2,,,76,84
10272,note_on,,,,,32,0,10,,,,,3,,,73,84
10304,note_off,,,,,128,0,13,,,,,6,,,41,100
10304,note_off,,,,,128,0,14,,,,,7,,,74,100
10304,note_off,,,,,128,0,15,,,,,7,,,53,100
10304,note_off,,,,,128,0,8,,,,,1,,,80,100
10304,note_off,,,,,128,0,12,,,,,5,,,53,100
10304,note_off,,,,,128,0,7,,,,,0,,,77,100
10304,note_off,,,,,0,0,14,,,,,7,,,71,100
10336,note_off,,,,,64,0,10,,,,,3,,,73,100
10336,note_off,,,,,64,0,9,,,,,2,,,76,100
10368,note_on,,,,,64,0,14,,,,,7,,,70,100
10368,note_on,,,,,0,0,14,,,,,7,,,73,100
10368,note_on,,,,,64,0,8,,,,,1,,,82,100
10368,note_on,,,,,32,0,10,,,,,3,,,70,100
10368,note_on,,,,,64,0,12,,,,,5,,,54,100
10368,note_on,,,,,64,0,13,,,,,6,,,42,100
10368,note_on,,,,,64,0,15,,,,,7,,,54,100
10368,note_on,,,,,32,0,9,,,,,2,,,73,100
10368,note_on,,,,,0,0,11,,,,,4,,,61,100
10368,note_on,,,,,448,0,11,,,,,4,,,66,100
10496,note_off,,,,,128,0,10,,,,,3,,,70,100
10496,note_off,,,,,128,0,8,,,,,1,,,82,100
10496,note_off,,,,,128,0,9,,,,,2,,,73,100
10560,note_on,,,,,64,0,8,,,,,1,,,78,99
10560,note_on,,,,,256,0,7,,,,,0,,,82,99
10560,note_on,,,,,64,0,10,,,,,3,,,73,99
10560,note_on,,,,,64,0,9,,,,,2,,,78,99
10624,note_off,,,,,256,0,15,,,,,7,,,54,100
10624,note_off,,,,,256,0,13,,,,,6,,,42,100
10624,note_off,,,,,256,0,14,,,,,7,,,70,100
10624,note_off,,,,,0,0,14,,,,,7,,,73,100
10624,note_off,,,,,256,0,12,,,,,5,,,54,100
10624,note_off,,,,,0,0,11,,,,,4,,,61,100
10624,note_off,,,,,256,0,11,,,,,4,,,66,100
10688,note_off,,,,,128,0,8,,,,,1,,,78,100
10688,note_off,,,,,128,0,10,,,,,3,,,73,100
10688,note_off,,,,,128,0,7,,,,,0,,,82,100
10688,note_off,,,,,128,0,9,,,,,2,,,78,100
10752,note_on,,,,,64,0,10,,,,,3,,,70,97
10752,note_on,,,,,64,0,7,,,,,0,,,78,97
10752,note_on,,,,,64,0,9,,,,,2,,,73,97
10880,note_off,,,,,128,0,10,,,,,3,,,70,100
10880,note_off,,,,,128,0,7,,,,,0,,,78,100
10880,note_off,,,,,128,0,9,,,,,2,,,73,100
10944,note_on,,,,,0,0,11,,,,,4,,,58,95
10944,note_on,,,,,320,0,11,,,,,4,,,61,95
10944,note_on,,,,,320,0,13,,,,,6,,,42,95
10944,note_on,,,,,0,0,14,,,,,7,,,73,100
10944,note_on,,,,,320,0,14,,,,,7,,,70,100
10944,note_on,,,,,64,0,10,,,,,3,,,82,95
10944,note_on,,,,,320,0,12,,,,,5,,,54,95
10944,note_on,,,,,256,0,8,,,,,1,,,78,95
10944,note_on,,,,,320,0,15,,,,,7,,,54,100
11072,note_off,,,,,128,0,10,,,,,3,,,82,100
11072,note_off,,,,,128,0,8,,,,,1,,,78,100
11136,note_on,,,,,256,0,9,,,,,2,,,82,93
11136,note_on,,,,,64,0,10,,,,,3,,,78,93
11136,note_on,,,,,64,0,8,,,,,1,,,73,93
11136,note_on,,,,,256,0,7,,,,,0,,,78,93
11200,note_off,,,,,256,0,15,,,,,7,,,54,100
11200,note_off,,,,,0,0,11,,,,,4,,,58,100
11200,note_off,,,,,256,0,13,,,,,6,,,42,100
11200,note_off,,,,,256,0,12,,,,,5,,,54,100
11200,note_off,,,,,256,0,14,,,,,7,,,70,100
11200,note_off,,,,,0,0,14,,,,,7,,,73,100
11200,note_off,,,,,256,0,11,,,,,4,,,61,100
11264,note_off,,,,,128,0,9,,,,,2,,,82,100
11264,note_off,,,,,128,0,7,,,,,0,,,78,100
11264,note_off,,,,,128,0,8,,,,,1,,,73,100
11264,note_off,,,,,128,0,10,,,,,3,,,78,100
11328,note_on,,,,,64,0,7,,,,,0,,,73,91
11328,note_on,,,,,64,0,9,,,,,2,,,78,91
11456,note_off,,,,,128,0,9,,,,,2,,,78,100
11456,note_off,,,,,128,0,7,,,,,0,,,73,100
11520,note_on,,,,,0,0,14,,,,,7,,,73,100
11520,note_on,,,,,320,0,14,,,,,7,,,70,100
11520,note_on,,,,,0,0,11,,,,,4,,,58,89
11520,note_on,,,,,320,0,12,,,,,5,,,54,89
11520,note_on,,,,,256,0,10,,,,,3,,,78,89
11520,note_on,,,,,320,0,13,,,,,6,,,42,89
11520,note_on,,,,,320,0,11,,,,,4,,,61,89
11520,note_on,,,,,320,0,15,,,,,7,,,54,100
11520,note_on,,,,,256,0,8,,,,,1,,,73,89
11648,note_off,,,,,128,0,10,,,,,3,,,78,100
11648,note_off,,,,,128,0,8,,,,,1,,,73,100
11712,note_on,,,,,64,0,10,,,,,3,,,73,87
11712,note_on,,,,,64,0,8,,,,,1,,,70,87
11712,note_on,,,,,256,0,7,,,,,0,,,73,87
11712,note_on,,,,,256,0,9,,,,,2,,,78,87
11776,note_off,,,,,256,0,13,,,,,6,,,42,100
11776,note_off,,,,,0,0,11,,,,,4,,,58,100
11776,note_off,,,,,256,0,12,,,,,5,,,54,100
11776,note_off,,,,,256,0,11,,,,,4,,,61,100
11776,note_off,,,,,256,0,14,,,,,7,,,70,100
11776,note_off,,,,,256,0,15,,,,,7,,,54,100
11776,note_off,,,,,0,0,14,,,,,7,,,73,100
11840,note_off,,,,,128,0,8,,,,,1,,,70,100
11840,note_off,,,,,128,0,7,,,,,0,,,73,100
11840,note_off,,,,,128,0,9,,,,,2,,,78,100
11840,note_off,,,,,128,0,10,,,,,3,,,73,100
11904,note_on,,,,,64,0,9,,,,,2,,,73,85
11904,note_on,,,,,64,0,7,,,,,0,,,70,85
12032,note_off,,,,,128,0,9,,,,,2,,,73,100
12032,note_off,,,,,128,0,7,,,,,0,,,70,100
12096,note_on,,,,,0,0,11,,,,,4,,,58,83
12096,note_on,,,,,320,0,13,,,,,6,,,42,83
12096,note_on,,,,,320,0,11,,,,,4,,,61,83
12096,note_on,,,,,0,0,14,,,,,7,,,73,100
12096,note_on,,,,,256,0,8,,,,,1,,,70,83
12096,note_on,,,,,256,0,10,,,,,3,,,73,83
12096,note_on,,,,,320,0,15,,,,,7,,,54,100
12096,note_on,,,,,320,0,12,,,,,5,,,54,83
12096,note_on,,,,,320,0,14,,,,,7,,,70,100
12224,note_off,,,,,128,0,8,,,,,1,,,70,100
12224,note_off,,,,,128,0,10,,,,,3,,,73,100
12288,note_on,,,,,64,0,8,,,,,1,,,66,81
12288,note_on,,,,,256,0,9,,,,,2,,,73,81
12288,note_on,,,,,64,0,10,,,,,3,,,70,81
12288,note_on,,,,,256,0,7,,,,,0,,,70,81
12352,note_off,,,,,256,0,15,,,,,7,,,54,100
12352,note_off,,,,,0,0,14,,,,,7,,,73,100
12352,note_off,,,,,256,0,14,,,,,7,,,70,100
12352,note_off,,,,,0,0,11,,,,,4,,,58,100
12352,note_off,,,,,256,0,13,,,,,6,,,42,100
12352,note_off,,,,,256,0,11,,,,,4,,,61,100
12352,note_off,,,,,256,0,12,,,,,5,,,54,100
12416,note_off,,,,,128,0,9,,,,,2,,,73,100
12416,note_off,,,,,128,0,10,,,,,3,,,70,100
12416,note_off,,,,,128,0,8,,,,,1,,,66,100
12416,note_off,,,,,128,0,7,,,,,0,,,70,100
12480,note_on,,,,,64,0,9,,,,,2,,,70,79
12480,note_on,,,,,64,0,7,,,,,0,,,66,79
12608,note_off,,,,,128,0,9,,,,,2,,,70,100
12608,note_off,,,,,128,0,7,,,,,0,,,66,100
12672,note_on,,,,,0,0,11,,,,,4,,,61,77
12672,note_on,,,,,320,0,11,,,,,4,,,58,77
12672,note_on,,,,,320,0,15,,,,,7,,,54,100
12672,note_on,,,,,0,0,14,,,,,7,,,73,100
12672,note_on,,,,,320,0,14,,,,,7,,,70,100
12672,note_on,,,,,320,0,12,,,,,5,,,54,77
12672,note_on,,,,,320,0,13,,,,,6,,,42,77
12672,note_on,,,,,256,0,10,,,,,3,,,70,77
12800,note_off,,,,,128,0,10,,,,,3,,,70,100
12864,note_on,,,,,64,0,10,,,,,3,,,66,75
12864,note_on,,,,,256,0,9,,,,,2,,,70,75
12928,note_off,,,,,0,0,11,,,,,4,,,61,100
12928,note_off,,,,,256,0,11,,,,,4,,,58,100
12928,note_off,,,,,0,0,14,,,,,7,,,73,100
12928,note_off,,,,,256,0,14,,,,,7,,,70,100
12928,note_off,,,,,256,0,12,,,,,5,,,54,100
12928,note_off,,,,,256,0,13,,,,,6,,,42,100
12928,note_off,,,,,256,0,15,,,,,7,,,54,100
12992,note_off,,,,,128,0,9,,,,,2,,,70,100
12992,note_off,,,,,128,0,10,,,,,3,,,66,100
13056,note_on,,,,,64,0,9,,,,,2,,,66,73
13184,note_off,,,,,128,0,9,,,,,2,,,66,100
13248,note_on,,,,,320,0,11,,,,,4,,,66,70
13248,note_on,,,,,832,0,8,,,,,1,,,70,20
13248,note_on,,,,,640,0,7,,,,,0,,,73,20
13248,note_on,,,,,320,0,13,,,,,6,,,42,70
13248,note_on,,,,,0,0,14,,,,,7,,,73,100
13248,note_on,,,,,320,0,14,,,,,7,,,70,100
13248,note_on,,,,,256,0,10,,,,,3,,,70,80
13248,note_on,,,,,320,0,15,,,,,7,,,54,100
13248,note_on,,,,,64,0,9,,,,,2,,,73,80
13248,note_on,,,,,320,0,12,,,,,5,,,54,70
13376,note_off,,,,,128,0,12,,,,,5,,,54,100
13376,note_off,,,,,0,0,14,,,,,7,,,73,100
13376,note_off,,,,,128,0,14,,,,,7,,,70,100
13376,note_off,,,,,128,0,15,,,,,7,,,54,100
13376,note_off,,,,,128,0,13,,,,,6,,,42,100
13440,note_on,,,,,64,0,12,,,,,5,,,54,71
13440,note_off,,,,,192,0,11,,,,,4,,,66,100
13440,note_on,,,,,64,0,15,,,,,7,,,54,100
13440,note_on,,,,,64,0,13,,,,,6,,,42,71
13440,note_on,,,,,0,0,14,,,,,7,,,73,100
13440,note_on,,,,,64,0,14,,,,,7,,,70,100
13536,note_on,,,,,96,0,11,,,,,4,,,67,72
13568,note_off,,,,,128,0,13,,,,,6,,,42,100
13568,note_off,,,,,128,0,15,,,,,7,,,54,100
13568,note_off,,,,,0,0,14,,,,,7,,,73,100
13568,note_off,,,,,128,0,12,,,,,5,,,54,100
13568,note_off,,,,,128,0,14,,,,,7,,,70,100
13600,note_off,,,,,64,0,11,,,,,4,,,67,100
13632,note_off,,,,,384,0,7,,,,,0,,,73,100
13632,note_on,,,,,0,0,14,,,,,7,,,73,100
13632,note_on,,,,,64,0,13,,,,,6,,,42,73
13632,note_on,,,,,64,0,14,,,,,7,,,70,100
13632,note_on,,,,,32,0,11,,,,,4,,,66,73
13632,note_off,,,,,384,0,8,,,,,1,,,70,100
13632,note_off,,,,,384,0,10,,,,,3,,,70,100
13632,note_on,,,,,64,0,15,,,,,7,,,54,100
13632,note_on,,,,,64,0,12,,,,,5,,,54,73
13632,note_off,,,,,384,0,9,,,,,2,,,73,100
13696,note_off,,,,,64,0,11,,,,,4,,,66,100
13728,note_on,,,,,32,0,11,,,,,4,,,64,74
13760,note_off,,,,,128,0,15,,,,,7,,,54,100
13760,note_off,,,,,128,0,12,,,,,5,,,54,100
13760,note_off,,,,,128,0,14,,,,,7,,,70,100
13760,note_off,,,,,0,0,14,,,,,7,,,73,100
13760,note_off,,,,,128,0,13,,,,,6,,,42,100
13792,note_off,,,,,64,0,11,,,,,4,,,64,100
13824,note_on,,,,,192,0,7,,,,,0,,,74,25
13824,note_on,,,,,64,0,14,,,,,7,,,78,100
13824,note_on,,,,,192,0,9,,,,,2,,,74,85
13824,note_on,,,,,192,0,10,,,,,3,,,71,85
13824,note_on,,,,,64,0,15,,,,,7,,,59,100
13824,note_on,,,,,64,0,12,,,,,5,,,59,75
13824,note_on,,,,,0,0,14,,,,,7,,,74,100
13824,note_on,,,,,0,0,11,,,,,4,,,66,75
13824,note_on,,,,,64,0,13,,,,,6,,,47,75
13824,note_on,,,,,32,0,11,,,,,4,,,62,75
13824,note_on,,,,,192,0,8,,,,,1,,,71,25
13952,note_off,,,,,128,0,13,,,,,6,,,47,100
13952,note_off,,,,,128,0,8,,,,,1,,,71,100
13952,note_off,,,,,128,0,14,,,,,7,,,78,100
13952,note_off,,,,,128,0,12,,,,,5,,,59,100
13952,note_off,,,,,0,0,14,,,,,7,,,74,100
13952,note_off,,,,,128,0,15,,,,,7,,,59,100
13952,note_off,,,,,128,0,10,,,,,3,,,71,100
14016,note_on,,,,,64,0,14,,,,,7,,,78,100
14016,note_on,,,,,0,0,14,,,,,7,,,74,100
14016,note_on,,,,,64,0,8,,,,,1,,,83,27
14016,note_on,,,,,64,0,15,,,,,7,,,59,100
14016,note_off,,,,,192,0,11,,,,,4,,,62,100
14016,note_on,,,,,64,0,12,,,,,5,,,59,77
14016,note_on,,,,,64,0,10,,,,,3,,,83,87
14016,note_on,,,,,64,0,13,,,,,6,,,47,77
14016,note_off,,,,,0,0,11,,,,,4,,,66,100
14112,note_on,,,,,0,0,11,,,,,4,,,67,78
14112,note_on,,,,,96,0,11,,,,,4,,,64,78
14144,note_off,,,,,128,0,12,,,,,5,,,59,100
14144,note_off,,,,,128,0,10,,,,,3,,,83,100
14144,note_off,,,,,128,0,8,,,,,1,,,83,100
14144,note_off,,,,,128,0,15,,,,,7,,,59,100
14144,note_off,,,,,128,0,13,,,,,6,,,47,100
14144,note_off,,,,,128,0,14,,,,,7,,,78,100
14144,note_off,,,,,0,0,14,,,,,7,,,74,100
14176,note_off,,,,,64,0,11,,,,,4,,,64,100
14176,note_off,,,,,0,0,11,,,,,4,,,67,100
14208,note_on,,,,,0,0,14,,,,,7,,,74,100
14208,note_on,,,,,64,0,12,,,,,5,,,59,79
14208,note_on,,,,,64,0,15,,,,,7,,,59,100
14208,note_on,,,,,0,0,11,,,,,4,,,66,79
14208,note_on,,,,,64,0,10,,,,,3,,,71,89
14208,note_off,,,,,384,0,9,,,,,2,,,74,100
14208,note_off,,,,,384,0,7,,,,,0,,,74,100
14208,note_on,,,,,64,0,14,,,,,7,,,78,100
14208,note_on,,,,,64,0,8,,,,,1,,,71,29
14208,note_on,,,,,64,0,13,,,,,6,,,47,79
14208,note_on,,,,,32,0,11,,,,,4,,,62,79
14272,note_off,,,,,0,0,11,,,,,4,,,66,100
14272,note_off,,,,,64,0,11,,,,,4,,,62,100
14304,note_on,,,,,0,0,11,,,,,4,,,64,80
14304,note_on,,,,,32,0,11,,,,,4,,,61,80
14336,note_off,,,,,128,0,14,,,,,7,,,78,100
14336,note_off,,,,,128,0,8,,,,,1,,,71,100
14336,note_off,,,,,128,0,15,,,,,7,,,59,100
14336,note_off,,,,,128,0,12,,,,,5,,,59,100
14336,note_off,,,,,128,0,13,,,,,6,,,47,100
14336,note_off,,,,,0,0,14,,,,,7,,,74,100
14336,note_off,,,,,128,0,10,,,,,3,,,71,100
14368,note_off,,,,,0,0,11,,,,,4,,,64,100
14368,note_off,,,,,64,0,11,,,,,4,,,61,100
14400,note_on,,,,,192,0,7,,,,,0,,,75,31
14400,note_on,,,,,64,0,12,,,,,5,,,57,81
14400,note_on,,,,,192,0,9,,,,,2,,,75,91
14400,note_on,,,,,0,0,11,,,,,4,,,63,81
14400,note_on,,,,,0,0,14,,,,,7,,,71,100
14400,note_on,,,,,64,0,14,,,,,7,,,74,100
14400,note_on,,,,,64,0,13,,,,,6,,,45,81
14400,note_on,,,,,32,0,11,,,,,4,,,59,81
14400,note_on,,,,,64,0,15,,,,,7,,,57,100
14400,note_on,,,,,64,0,8,,,,,1,,,71,31
14400,note_on,,,,,64,0,10,,,,,3,,,71,91
14528,note_off,,,,,128,0,13,,,,,6,,,45,100
14528,note_off,,,,,128,0,12,,,,,5,,,57,100
14528,note_off,,,,,0,0,14,,,,,7,,,71,100
14528,note_off,,,,,128,0,14,,,,,7,,,74,100
14528,note_off,,,,,128,0,8,,,,,1,,,71,100
14528,note_off,,,,,128,0,15,,,,,7,,,57,100
14528,note_off,,,,,128,0,10,,,,,3,,,71,100
14592,note_on,,,,,0,0,14,,,,,7,,,71,100
14592,note_on,,,,,64,0,14,,,,,7,,,74,100
14592,note_on,,,,,64,0,15,,,,,7,,,57,100
14592,note_on,,,,,64,0,13,,,,,6,,,45,83
14592,note_on,,,,,64,0,8,,,,,1,,,83,33
14592,note_on,,,,,64,0,12,,,,,5,,,57,83
14592,note_on,,,,,64,0,10,,,,,3,,,83,93
14592,note_off,,,,,192,0,11,,,,,4,,,63,100
14656,note_off,,,,,64,0,11,,,,,4,,,59,100
14688,note_on,,,,,32,0,11,,,,,4,,,64,84
14720,note_off,,,,,0,0,14,,,,,7,,,71,100
14720,note_off,,,,,128,0,15,,,,,7,,,57,100
14720,note_off,,,,,128,0,12,,,,,5,,,57,100
14720,note_off,,,,,128,0,8,,,,,1,,,83,100
14720,note_off,,,,,128,0,13,,,,,6,,,45,100
14720,note_off,,,,,128,0,14,,,,,7,,,74,100
14720,note_off,,,,,128,0,10,,,,,3,,,83,100
14752,note_off,,,,,64,0,11,,,,,4,,,64,100
14784,note_on,,,,,64,0,13,,,,,6,,,45,85
14784,note_on,,,,,64,0,15,,,,,7,,,57,100
14784,note_on,,,,,64,0,14,,,,,7,,,74,100
14784,note_off,,,,,384,0,7,,,,,0,,,75,100
14784,note_off,,,,,384,0,9,,,,,2,,,75,100
14784,note_on,,,,,0,0,11,,,,,4,,,63,85
14784,note_on,,,,,64,0,12,,,,,5,,,57,85
14784,note_on,,,,,0,0,14,,,,,7,,,71,100
14784,note_on,,,,,32,0,11,,,,,4,,,66,85
14784,note_on,,,,,64,0,8,,,,,1,,,71,35
14784,note_on,,,,,64,0,10,,,,,3,,,71,95
14848,note_off,,,,,64,0,11,,,,,4,,,63,100
14880,note_on,,,,,32,0,11,,,,,4,,,61,86
14912,note_off,,,,,32,0,11,,,,,4,,,66,100
14912,note_off,,,,,128,0,8,,,,,1,,,71,100
14912,note_off,,,,,128,0,10,,,,,3,,,71,100
14912,note_off,,,,,0,0,14,,,,,7,,,71,100
14912,note_off,,,,,128,0,14,,,,,7,,,74,100
14912,note_off,,,,,128,0,12,,,,,5,,,57,100
14912,note_off,,,,,128,0,15,,,,,7,,,57,100
14912,note_off,,,,,128,0,13,,,,,6,,,45,100
14944,note_off,,,,,32,0,11,,,,,4,,,61,100
14976,note_on,,,,,64,0,8,,,,,1,,,71,37
14976,note_on,,,,,64,0,13,,,,,6,,,43,87
14976,note_on,,,,,192,0,9,,,,,2,,,76,97
14976,note_on,,,,,64,0,15,,,,,7,,,55,100
14976,note_on,,,,,64,0,10,,,,,3,,,71,97
14976,note_on,,,,,32,0,11,,,,,4,,,67,87
14976,note_on,,,,,192,0,7,,,,,0,,,76,37
14976,note_on,,,,,64,0,12,,,,,5,,,55,87
14976,note_on,,,,,64,0,14,,,,,7,,,76,100
14976,note_on,,,,,0,0,14,,,,,7,,,71,100
14976,note_on,,,,,0,0,11,,,,,4,,,59,87
15104,note_off,,,,,128,0,13,,,,,6,,,43,100
15104,note_off,,,,,128,0,15,,,,,7,,,55,100
15104,note_off,,,,,128,0,12,,,,,5,,,55,100
15104,note_off,,,,,128,0,14,,,,,7,,,76,100
15104,note_off,,,,,0,0,14,,,,,7,,,71,100
15104,note_off,,,,,128,0,8,,,,,1,,,71,100
15104,note_off,,,,,128,0,10,,,,,3,,,71,100
15168,note_on,,,,,64,0,12,,,,,5,,,55,89
15168,note_on,,,,,64,0,13,,,,,6,,,43,89
15168,note_on,,,,,64,0,10,,,,,3,,,83,99
15168,note_on,,,,,64,0,15,,,,,7,,,55,100
15168,note_on,,,,,64,0,8,,,,,1,,,83,39
15168,note_on,,,,,64,0,14,,,,,7,,,76,100
15168,note_on,,,,,0,0,14,,,,,7,,,71,100
15168,note_off,,,,,0,0,11,,,,,4,,,59,100
15168,note_off,,,,,192,0,11,,,,,4,,,67,100
15264,note_on,,,,,0,0,11,,,,,4,,,61,90
15264,note_on,,,,,96,0,11,,,,,4,,,69,90
15296,note_off,,,,,128,0,8,,,,,1,,,83,100
15296,note_off,,,,,128,0,14,,,,,7,,,76,100
15296,note_off,,,,,0,0,14,,,,,7,,,71,100
15296,note_off,,,,,128,0,12,,,,,5,,,55,100
15296,note_off,,,,,128,0,10,,,,,3,,,83,100
15296,note_off,,,,,128,0,15,,,,,7,,,55,100
15296,note_off,,,,,128,0,13,,,,,6,,,43,100
15328,note_off,,,,,0,0,11,,,,,4,,,61,100
15328,note_off,,,,,64,0,11,,,,,4,,,69,100
15360,note_on,,,,,64,0,8,,,,,1,,,71,41
15360,note_on,,,,,64,0,13,,,,,6,,,43,91
15360,note_on,,,,,64,0,10,,,,,3,,,71,101
15360,note_on,,,,,64,0,12,,,,,5,,,55,91
15360,note_off,,,,,384,0,7,,,,,0,,,76,100
15360,note_on,,,,,0,0,11,,,,,4,,,59,91
15360,note_on,,,,,32,0,11,,,,,4,,,67,91
15360,note_off,,,,,384,0,9,,,,,2,,,76,100
15360,note_on,,,,,64,0,15,,,,,7,,,55,100
15360,note_on,,,,,64,0,14,,,,,7,,,76,100
15360,note_on,,,,,0,0,14,,,,,7,,,71,100
15424,note_off,,,,,64,0,11,,,,,4,,,67,100
15424,note_off,,,,,0,0,11,,,,,4,,,59,100
15456,note_on,,,,,32,0,11,,,,,4,,,66,92
15456,note_on,,,,,0,0,11,,,,,4,,,57,92
15488,note_off,,,,,128,0,8,,,,,1,,,71,100
15488,note_off,,,,,128,0,10,,,,,3,,,71,100
15488,note_off,,,,,128,0,13,,,,,6,,,43,100
15488,note_off,,,,,128,0,12,,,,,5,,,55,100
15488,note_off,,,,,0,0,14,,,,,7,,,71,100
15488,note_off,,,,,128,0,15,,,,,7,,,55,100
15488,note_off,,,,,128,0,14,,,,,7,,,76,100
15520,note_off,,,,,0,0,11,,,,,4,,,57,100
15520,note_off,,,,,64,0,11,,,,,4,,,66,100
15552,note_on,,,,,0,0,11,,,,,4,,,56,93
15552,note_on,,,,,192,0,9,,,,,2,,,77,103
15552,note_on,,,,,64,0,14,,,,,7,,,65,100
15552,note_on,,,,,0,0,14,,,,,7,,,71,100
15552,note_on,,,,,64,0,8,,,,,1,,,71,43
15552,note_on,,,,,192,0,7,,,,,0,,,77,43
15552,note_on,,,,,64,0,13,,,,,6,,,37,93
15552,note_on,,,,,64,0,12,,,,,5,,,49,93
15552,note_on,,,,,64,0,15,,,,,7,,,49,100
15552,note_on,,,,,32,0,11,,,,,4,,,65,93
15552,note_on,,,,,64,0,10,,,,,3,,,71,103
15680,note_off,,,,,128,0,12,,,,,5,,,49,100
15680,note_off,,,,,128,0,15,,,,,7,,,49,100
15680,note_off,,,,,128,0,8,,,,,1,,,71,100
15680,note_off,,,,,128,0,11,,,,,4,,,65,100
15680,note_off,,,,,128,0,10,,,,,3,,,71,100
15680,note_off,,,,,128,0,14,,,,,7,,,65,100
15680,note_off,,,,,0,0,14,,,,,7,,,71,100
15680,note_off,,,,,0,0,11,,,,,4,,,56,100
15680,note_off,,,,,128,0,13,,,,,6,,,37,100
15744,note_on,,,,,64,0,14,,,,,7,,,65,100
15744,note_on,,,,,0,0,14,,,,,7,,,71,100
15744,note_on,,,,,64,0,13,,,,,6,,,37,95
15744,note_on,,,,,64,0,11,,,,,4,,,73,95
15744,note_on,,,,,0,0,11,,,,,4,,,68,95
15744,note_on,,,,,64,0,10,,,,,3,,,83,105
15744,note_on,,,,,64,0,8,,,,,1,,,83,45
15744,note_on,,,,,64,0,15,,,,,7,,,49,100
15744,note_on,,,,,64,0,12,,,,,5,,,49,95
15872,note_off,,,,,0,0,14,,,,,7,,,71,100
15872,note_off,,,,,128,0,13,,,,,6,,,37,100
15872,note_off,,,,,128,0,8,,,,,1,,,83,100
15872,note_off,,,,,128,0,10,,,,,3,,,83,100
15872,note_off,,,,,128,0,12,,,,,5,,,49,100
15872,note_off,,,,,128,0,15,,,,,7,,,49,100
15872,note_off,,,,,0,0,11,,,,,4,,,68,100
15872,note_off,,,,,128,0,14,,,,,7,,,65,100
15872,note_off,,,,,128,0,11,,,,,4,,,73,100
15936,note_off,,,,,384,0,7,,,,,0,,,77,100
15936,note_on,,,,,64,0,12,,,,,5,,,49,97
15936,note_on,,,,,0,0,11,,,,,4,,,65,97
15936,note_on,,,,,64,0,11,,,,,4,,,68,97
15936,note_on,,,,,64,0,10,,,,,3,,,71,107
15936,note_on,,,,,64,0,13,,,,,6,,,37,97
15936,note_off,,,,,384,0,9,,,,,2,,,77,100
15936,note_on,,,,,64,0,14,,,,,7,,,65,100
15936,note_on,,,,,64,0,8,,,,,1,,,71,47
15936,note_on,,,,,64,0,15,,,,,7,,,49,100
15936,note_on,,,,,0,0,14,,,,,7,,,71,100
16064,note_off,,,,,128,0,15,,,,,7,,,49,100
16064,note_off,,,,,0,0,14,,,,,7,,,71,100
16064,note_off,,,,,128,0,10,,,,,3,,,71,100
16064,note_off,,,,,128,0,8,,,,,1,,,71,100
16064,note_off,,,,,128,0,14,,,,,7,,,65,100
16064,note_off,,,,,128,0,12,,,,,5,,,49,100
16064,note_off,,,,,128,0,11,,,,,4,,,68,100
16064,note_off,,,,,0,0,11,,,,,4,,,65,100
16064,note_off,,,,,128,0,13,,,,,6,,,37,100
16128,note_on,,,,,64,0,14,,,,,7,,,70,100
16128,note_on,,,,,64,0,11,,,,,4,,,66,99
16128,note_on,,,,,0,0,11,,,,,4,,,61,99
16128,note_on,,,,,0,0,14,,,,,7,,,73,100
16128,note_on,,,,,192,0,9,,,,,2,,,78,109
16128,note_on,,,,,64,0,8,,,,,1,,,70,49
16128,note_on,,,,,64,0,15,,,,,7,,,54,100
16128,note_on,,,,,64,0,12,,,,,5,,,54,99
16128,note_on,,,,,64,0,13,,,,,6,,,42,99
16128,note_on,,,,,192,0,7,,,,,0,,,78,49
16128,note_on,,,,,64,0,10,,,,,3,,,70,109
16256,note_off,,,,,128,0,8,,,,,1,,,70,100
16256,note_off,,,,,128,0,7,,,,,0,,,78,100
16256,note_off,,,,,128,0,12,,,,,5,,,54,100
16256,note_off,,,,,128,0,15,,,,,7,,,54,100
16256,note_off,,,,,0,0,14,,,,,7,,,73,100
16256,note_off,,,,,128,0,13,,,,,6,,,42,100
16256,note_off,,,,,128,0,10,,,,,3,,,70,100
16256,note_off,,,,,128,0,11,,,,,4,,,61,100
16256,note_off,,,,,128,0,14,,,,,7,,,70,100
16256,note_off,,,,,128,0,9,,,,,2,,,78,100
16320,note_on,,,,,64,0,14,,,,,7,,,70,100
16320,note_on,,,,,0,0,14,,,,,7,,,73,100
16320,note_on,,,,,64,0,13,,,,,6,,,42,90
16320,note_on,,,,,64,0,15,,,,,7,,,54,100
16320,note_on,,,,,64,0,7,,,,,0,,,66,40
16320,note_on,,,,,64,0,9,,,,,2,,,66,100
16320,note_on,,,,,64,0,12,,,,,5,,,54,90
16448,note_off,,,,,128,0,13,,,,,6,,,42,100
16448,note_off,,,,,128,0,9,,,,,2,,,66,100
16448,note_off,,,,,0,0,14,,,,,7,,,73,100
16448,note_off,,,,,128,0,7,,,,,0,,,66,100
16448,note_off,,,,,128,0,14,,,,,7,,,70,100
16448,note_off,,,,,128,0,15,,,,,7,,,54,100
16448,note_off,,,,,128,0,12,,,,,5,,,54,100
16512,note_on,,,,,64,0,12,,,,,5,,,54,90
16512,note_off,,,,,256,0,11,,,,,4,,,66,100
16512,note_on,,,,,256,0,8,,,,,1,,,71,90
16512,note_on,,,,,64,0,9,,,,,2,,,74,90
16512,note_on,,,,,0,0,11,,,,,4,,,66,90
16512,note_on,,,,,0,0,14,,,,,7,,,71,100
16512,note_on,,,,,64,0,14,,,,,7,,,74,100
16512,note_on,,,,,64,0,13,,,,,6,,,42,90
16512,note_on,,,,,64,0,7,,,,,0,,,78,90
16512,note_on,,,,,256,0,10,,,,,3,,,71,90
16512,note_on,,,,,64,0,15,,,,,7,,,54,100
16640,note_off,,,,,128,0,8,,,,,1,,,71,100
16640,note_off,,,,,128,0,15,,,,,7,,,54,100
16640,note_off,,,,,128,0,7,,,,,0,,,78,100
16640,note_off,,,,,0,0,14,,,,,7,,,71,100
16640,note_off,,,,,128,0,14,,,,,7,,,74,100
16640,note_off,,,,,128,0,10,,,,,3,,,71,100
16640,note_off,,,,,128,0,11,,,,,4,,,66,100
16640,note_off,,,,,128,0,9,,,,,2,,,74,100
16640,note_off,,,,,128,0,13,,,,,6,,,42,100
16640,note_off,,,,,128,0,12,,,,,5,,,54,100
16704,note_on,,,,,64,0,8,,,,,1,,,73,90
16704,note_on,,,,,64,0,12,,,,,5,,,54,90
16704,note_on,,,,,64,0,10,,,,,3,,,70,90
16704,note_on,,,,,64,0,7,,,,,0,,,76,90
16704,note_on,,,,,64,0,11,,,,,4,,,66,90
16704,note_on,,,,,64,0,9,,,,,2,,,73,90
16704,note_on,,,,,64,0,14,,,,,7,,,73,100
16704,note_on,,,,,0,0,14,,,,,7,,,76,100
16704,note_on,,,,,64,0,15,,,,,7,,,54,100
16704,note_on,,,,,64,0,13,,,,,6,,,42,90
16768,note_off,,,,,64,0,7,,,,,0,,,76,100
16800,note_on,,,,,32,0,7,,,,,0,,,74,90
16832,note_off,,,,,128,0,8,,,,,1,,,73,100
16832,note_off,,,,,128,0,9,,,,,2,,,73,100
16832,note_off,,,,,128,0,15,,,,,7,,,54,100
16832,note_off,,,,,128,0,11,,,,,4,,,66,100
16832,note_off,,,,,128,0,14,,,,,7,,,73,100
16832,note_off,,,,,0,0,14,,,,,7,,,76,100
16832,note_off,,,,,128,0,10,,,,,3,,,70,100
16832,note_off,,,,,128,0,13,,,,,6,,,42,100
16832,note_off,,,,,128,0,12,,,,,5,,,54,100
16864,note_off,,,,,64,0,7,,,,,0,,,74,100
16896,note_on,,,,,64,0,15,,,,,7,,,54,100
16896,note_on,,,,,32,0,7,,,,,0,,,76,90
16896,note_on,,,,,64,0,8,,,,,1,,,73,90
16896,note_on,,,,,64,0,12,,,,,5,,,54,90
16896,note_on,,,,,64,0,11,,,,,4,,,66,90
16896,note_on,,,,,0,0,11,,,,,4,,,58,90
16896,note_on,,,,,64,0,14,,,,,7,,,73,100
16896,note_on,,,,,64,0,13,,,,,6,,,42,90
16896,note_on,,,,,64,0,9,,,,,2,,,78,90
16896,note_on,,,,,0,0,14,,,,,7,,,76,100
16960,note_off,,,,,64,0,7,,,,,0,,,76,100
16992,note_on,,,,,32,0,7,,,,,0,,,78,90
16992,note_on,,,,,160,0,10,,,,,3,,,73,90
17024,note_off,,,,,128,0,14,,,,,7,,,73,100
17024,note_off,,,,,0,0,11,,,,,4,,,58,100
17024,note_off,,,,,128,0,11,,,,,4,,,66,100
17024,note_off,,,,,0,0,14,,,,,7,,,76,100
17024,note_off,,,,,128,0,8,,,,,1,,,73,100
17024,note_off,,,,,128,0,13,,,,,6,,,42,100
17024,note_off,,,,,128,0,9,,,,,2,,,78,100
17024,note_off,,,,,128,0,12,,,,,5,,,54,100
17024,note_off,,,,,128,0,15,,,,,7,,,54,100
17056,note_off,,,,,64,0,7,,,,,0,,,78,100
17056,note_off,,,,,64,0,10,,,,,3,,,73,100
17088,note_on,,,,,32,0,7,,,,,0,,,76,90
17088,note_on,,,,,64,0,11,,,,,4,,,70,90
17088,note_on,,,,,64,0,13,,,,,6,,,42,90
17088,note_on,,,,,0,0,14,,,,,7,,,76,100
17088,note_on,,,,,64,0,14,,,,,7,,,73,100
17088,note_on,,,,,0,0,11,,,,,4,,,66,90
17088,note_on,,,,,64,0,8,,,,,1,,,73,90
17088,note_on,,,,,64,0,12,,,,,5,,,54,90
17088,note_on,,,,,32,0,10,,,,,3,,,76,90
17088,note_on,,,,,64,0,15,,,,,7,,,54,100
17152,note_off,,,,,64,0,10,,,,,3,,,76,100
17184,note_on,,,,,32,0,10,,,,,3,,,73,90
17216,note_off,,,,,128,0,12,,,,,5,,,54,100
17216,note_off,,,,,0,0,14,,,,,7,,,76,100
17216,note_off,,,,,0,0,11,,,,,4,,,66,100
17216,note_off,,,,,128,0,14,,,,,7,,,73,100
17216,note_off,,,,,128,0,8,,,,,1,,,73,100
17216,note_off,,,,,128,0,7,,,,,0,,,76,100
17216,note_off,,,,,128,0,13,,,,,6,,,42,100
17216,note_off,,,,,128,0,15,,,,,7,,,54,100
17216,note_off,,,,,128,0,11,,,,,4,,,70,100
17248,note_off,,,,,64,0,10,,,,,3,,,73,100
17280,note_on,,,,,64,0,13,,,,,6,,,42,90
17280,note_on,,,,,64,0,12,,,,,5,,,54,90
17280,note_on,,,,,64,0,8,,,,,1,,,71,90
17280,note_on,,,,,64,0,7,,,,,0,,,74,90
17280,note_on,,,,,64,0,11,,,,,4,,,66,90
17280,note_on,,,,,256,0,9,,,,,2,,,71,90
17280,note_on,,,,,32,0,10,,,,,3,,,66,90
17280,note_on,,,,,64,0,15,,,,,7,,,54,100
17280,note_on,,,,,0,0,14,,,,,7,,,74,100
17280,note_on,,,,,64,0,14,,,,,7,,,71,100
17344,note_off,,,,,64,0,7,,,,,0,,,74,100
17376,note_on,,,,,32,0,7,,,,,0,,,73,90
17408,note_off,,,,,0,0,14,,,,,7,,,74,100
17408,note_off,,,,,128,0,12,,,,,5,,,54,100
17408,note_off,,,,,128,0,15,,,,,7,,,54,100
17408,note_off,,,,,128,0,13,,,,,6,,,42,100
17408,note_off,,,,,128,0,10,,,,,3,,,66,100
17408,note_off,,,,,128,0,8,,,,,1,,,71,100
17408,note_off,,,,,128,0,11,,,,,4,,,66,100
17408,note_off,,,,,128,0,9,,,,,2,,,71,100
17408,note_off,,,,,128,0,14,,,,,7,,,71,100
17440,note_off,,,,,64,0,7,,,,,0,,,73,100
17472,note_on,,,,,32,0,7,,,,,0,,,74,90
17472,note_on,,,,,0,0,11,,,,,4,,,59,90
17472,note_on,,,,,64,0,15,,,,,7,,,54,100
17472,note_on,,,,,64,0,13,,,,,6,,,42,90
17472,note_on,,,,,64,0,11,,,,,4,,,66,90
17472,note_on,,,,,64,0,14,,,,,7,,,71,100
17472,note_on,,,,,64,0,12,,,,,5,,,54,90
17472,note_on,,,,,64,0,8,,,,,1,,,71,90
17472,note_on,,,,,64,0,9,,,,,2,,,78,90
17472,note_on,,,,,0,0,14,,,,,7,,,74,100
17536,note_off,,,,,64,0,7,,,,,0,,,74,100
17568,note_on,,,,,32,0,7,,,,,0,,,76,90
17568,note_on,,,,,160,0,10,,,,,3,,,71,90
17600,note_off,,,,,128,0,12,,,,,5,,,54,100
17600,note_off,,,,,128,0,9,,,,,2,,,78,100
17600,note_off,,,,,128,0,15,,,,,7,,,54,100
17600,note_off,,,,,0,0,11,,,,,4,,,59,100
17600,note_off,,,,,128,0,11,,,,,4,,,66,100
17600,note_off,,,,,128,0,14,,,,,7,,,71,100
17600,note_off,,,,,0,0,14,,,,,7,,,74,100
17600,note_off,,,,,128,0,8,,,,,1,,,71,100
17600,note_off,,,,,128,0,13,,,,,6,,,42,100
17632,note_off,,,,,64,0,10,,,,,3,,,71,100
17632,note_off,,,,,64,0,7,,,,,0,,,76,100
17664,note_on,,,,,64,0,8,,,,,1,,,71,90
17664,note_on,,,,,64,0,11,,,,,4,,,71,90
17664,note_on,,,,,0,0,11,,,,,4,,,66,90
17664,note_on,,,,,64,0,13,,,,,6,,,42,90
17664,note_on,,,,,64,0,12,,,,,5,,,54,90
17664,note_on,,,,,64,0,15,,,,,7,,,54,100
17664,note_on,,,,,64,0,14,,,,,7,,,71,100
17664,note_on,,,,,32,0,7,,,,,0,,,74,90
17664,note_on,,,,,0,0,14,,,,,7,,,74,100
17664,note_on,,,,,32,0,10,,,,,3,,,74,90
17728,note_off,,,,,64,0,10,,,,,3,,,74,100
17760,note_on,,,,,32,0,10,,,,,3,,,71,90
17792,note_off,,,,,128,0,13,,,,,6,,,42,100
17792,note_off,,,,,128,0,15,,,,,7,,,54,100
17792,note_off,,,,,128,0,12,,,,,5,,,54,100
17792,note_off,,,,,128,0,11,,,,,4,,,71,100
17792,note_off,,,,,128,0,14,,,,,7,,,71,100
17792,note_off,,,,,0,0,14,,,,,7,,,74,100
17792,note_off,,,,,128,0,8,,,,,1,,,71,100
17792,note_off,,,,,0,0,11,,,,,4,,,66,100
17792,note_off,,,,,128,0,7,,,,,0,,,74,100
17824,note_off,,,,,64,0,10,,,,,3,,,71,100
17856,note_on,,,,,64,0,12,,,,,5,,,54,90
17856,note_on,,,,,64,0,8,,,,,1,,,70,90
17856,note_on,,,,,64,0,15,,,,,7,,,54,100
17856,note_on,,,,,32,0,10,,,,,3,,,66,90
17856,note_on,,,,,64,0,11,,,,,4,,,66,90
17856,note_on,,,,,256,0,9,,,,,2,,,70,90
17856,note_on,,,,,64,0,7,,,,,0,,,73,90
17856,note_on,,,,,0,0,14,,,,,7,,,73,100
17856,note_on,,,,,64,0,14,,,,,7,,,70,100
17856,note_on,,,,,64,0,13,,,,,6,,,42,90
17920,note_off,,,,,64,0,7,,,,,0,,,73,100
17952,note_on,,,,,32,0,7,,,,,0,,,71,90
17984,note_off,,,,,128,0,11,,,,,4,,,66,100
17984,note_off,,,,,0,0,14,,,,,7,,,73,100
17984,note_off,,,,,128,0,10,,,,,3,,,66,100
17984,note_off,,,,,128,0,14,,,,,7,,,70,100
17984,note_off,,,,,128,0,12,,,,,5,,,54,100
17984,note_off,,,,,128,0,9,,,,,2,,,70,100
17984,note_off,,,,,128,0,15,,,,,7,,,54,100
17984,note_off,,,,,128,0,8,,,,,1,,,70,100
17984,note_off,,,,,128,0,13,,,,,6,,,42,100
18016,note_off,,,,,64,0,7,,,,,0,,,71,100
18048,note_on,,,,,64,0,8,,,,,1,,,70,90
18048,note_on,,,,,64,0,12,,,,,5,,,54,90
18048,note_on,,,,,64,0,14,,,,,7,,,70,100
18048,note_on,,,,,0,0,14,,,,,7,,,73,100
18048,note_on,,,,,64,0,11,,,,,4,,,66,90
18048,note_on,,,,,0,0,11,,,,,4,,,58,90
18048,note_on,,,,,32,0,7,,,,,0,,,73,90
18048,note_on,,,,,64,0,15,,,,,7,,,54,100
18048,note_on,,,,,64,0,9,,,,,2,,,78,90
18048,note_on,,,,,64,0,13,,,,,6,,,42,90
18112,note_off,,,,,64,0,7,,,,,0,,,73,100
18144,note_on,,,,,32,0,7,,,,,0,,,74,90
18144,note_on,,,,,160,0,10,,,,,3,,,70,90
18176,note_off,,,,,128,0,12,,,,,5,,,54,100
18176,note_off,,,,,128,0,9,,,,,2,,,78,100
18176,note_off,,,,,0,0,14,,,,,7,,,73,100
18176,note_off,,,,,128,0,14,,,,,7,,,70,100
18176,note_off,,,,,0,0,11,,,,,4,,,58,100
18176,note_off,,,,,128,0,15,,,,,7,,,54,100
18176,note_off,,,,,128,0,13,,,,,6,,,42,100
18176,note_off,,,,,128,0,11,,,,,4,,,66,100
18176,note_off,,,,,128,0,8,,,,,1,,,70,100
18208,note_off,,,,,64,0,7,,,,,0,,,74,100
18208,note_off,,,,,64,0,10,,,,,3,,,70,100
18240,note_on,,,,,64,0,15,,,,,7,,,54,100
18240,note_on,,,,,64,0,13,,,,,6,,,42,90
18240,note_on,,,,,64,0,14,,,,,7,,,70,100
18240,note_on,,,,,0,0,14,,,,,7,,,73,100
18240,note_on,,,,,64,0,8,,,,,1,,,70,90
18240,note_on,,,,,32,0,10,,,,,3,,,73,90
18240,note_on,,,,,64,0,11,,,,,4,,,70,90
18240,note_on,,,,,0,0,11,,,,,4,,,66,90
18240,note_on,,,,,32,0,7,,,,,0,,,73,90
18240,note_on,,,,,64,0,12,,,,,5,,,54,90
18304,note_off,,,,,64,0,10,,,,,3,,,73,100
18336,note_on,,,,,32,0,10,,,,,3,,,70,100
18368,note_off,,,,,128,0,12,,,,,5,,,54,100
18368,note_off,,,,,128,0,11,,,,,4,,,70,100
18368,note_off,,,,,0,0,11,,,,,4,,,66,100
18368,note_off,,,,,128,0,15,,,,,7,,,54,100
18368,note_off,,,,,128,0,13,,,,,6,,,42,100
18368,note_off,,,,,0,0,14,,,,,7,,,73,100
18368,note_off,,,,,128,0,14,,,,,7,,,70,100
18368,note_off,,,,,128,0,7,,,,,0,,,73,100
18368,note_off,,,,,128,0,8,,,,,1,,,70,100
18400,note_off,,,,,64,0,10,,,,,3,,,70,100
18432,note_on,,,,,256,0,9,,,,,2,,,71,90
18432,note_on,,,,,64,0,13,,,,,6,,,42,90
18432,note_on,,,,,64,0,12,,,,,5,,,54,90
18432,note_on,,,,,0,0,14,,,,,7,,,74,100
18432,note_on,,,,,64,0,14,,,,,7,,,71,100
18432,note_on,,,,,64,0,15,,,,,7,,,54,100
18432,note_on,,,,,64,0,11,,,,,4,,,66,90
18432,note_on,,,,,64,0,8,,,,,1,,,71,90
18432,note_on,,,,,64,0,7,,,,,0,,,74,90
18432,note_on,,,,,32,0,10,,,,,3,,,66,90
18496,note_off,,,,,64,0,7,,,,,0,,,74,100
18528,note_on,,,,,32,0,7,,,,,0,,,73,88
18560,note_off,,,,,128,0,8,,,,,1,,,71,100
18560,note_off,,,,,128,0,14,,,,,7,,,71,100
18560,note_off,,,,,0,0,14,,,,,7,,,74,100
18560,note_off,,,,,128,0,9,,,,,2,,,71,100
18560,note_off,,,,,128,0,12,,,,,5,,,54,100
18560,note_off,,,,,128,0,13,,,,,6,,,42,100
18560,note_off,,,,,128,0,10,,,,,3,,,66,100
18560,note_off,,,,,128,0,15,,,,,7,,,54,100
18560,note_off,,,,,128,0,11,,,,,4,,,66,100
18592,note_off,,,,,64,0,7,,,,,0,,,73,100
18624,note_on,,,,,64,0,9,,,,,2,,,78,86
18624,note_on,,,,,64,0,13,,,,,6,,,42,86
18624,note_on,,,,,64,0,12,,,,,5,,,54,86
18624,note_on,,,,,64,0,11,,,,,4,,,59,86
18624,note_on,,,,,0,0,11,,,,,4,,,66,86
18624,note_on,,,,,0,0,14,,,,,7,,,74,100
18624,note_on,,,,,64,0,15,,,,,7,,,54,100
18624,note_on,,,,,32,0,7,,,,,0,,,74,86
18624,note_on,,,,,64,0,8,,,,,1,,,71,86
18624,note_on,,,,,64,0,14,,,,,7,,,71,100
18688,note_off,,,,,64,0,7,,,,,0,,,74,100
18720,note_on,,,,,160,0,10,,,,,3,,,71,83
18720,note_on,,,,,32,0,7,,,,,0,,,76,83
18752,note_off,,,,,128,0,14,,,,,7,,,71,100
18752,note_off,,,,,128,0,9,,,,,2,,,78,100
18752,note_off,,,,,0,0,11,,,,,4,,,66,100
18752,note_off,,,,,128,0,12,,,,,5,,,54,100
18752,note_off,,,,,128,0,8,,,,,1,,,71,100
18752,note_off,,,,,128,0,11,,,,,4,,,59,100
18752,note_off,,,,,0,0,14,,,,,7,,,74,100
18752,note_off,,,,,128,0,15,,,,,7,,,54,100
18752,note_off,,,,,128,0,13,,,,,6,,,42,100
18784,note_off,,,,,64,0,7,,,,,0,,,76,100
18784,note_off,,,,,64,0,10,,,,,3,,,71,100
18816,note_on,,,,,64,0,14,,,,,7,,,71,100
18816,note_on,,,,,32,0,7,,,,,0,,,74,81
18816,note_on,,,,,64,0,8,,,,,1,,,71,81
18816,note_on,,,,,64,0,12,,,,,5,,,54,81
18816,note_on,,,,,64,0,15,,,,,7,,,54,100
18816,note_on,,,,,32,0,10,,,,,3,,,74,81
18816,note_on,,,,,64,0,13,,,,,6,,,42,81
18816,note_on,,,,,0,0,14,,,,,7,,,74,100
18816,note_on,,,,,0,0,11,,,,,4,,,71,81
18816,note_on,,,,,64,0,11,,,,,4,,,66,81
18880,note_off,,,,,64,0,10,,,,,3,,,74,100
18912,note_on,,,,,32,0,10,,,,,3,,,71,100
18944,note_off,,,,,0,0,14,,,,,7,,,74,100
18944,note_off,,,,,128,0,14,,,,,7,,,71,100
18944,note_off,,,,,128,0,13,,,,,6,,,42,100
18944,note_off,,,,,128,0,15,,,,,7,,,54,100
18944,note_off,,,,,0,0,11,,,,,4,,,71,100
18944,note_off,,,,,128,0,7,,,,,0,,,74,100
18944,note_off,,,,,128,0,8,,,,,1,,,71,100
18944,note_off,,,,,128,0,11,,,,,4,,,66,100
18944,note_off,,,,,128,0,12,,,,,5,,,54,100
18976,note_off,,,,,64,0,10,,,,,3,,,71,100
19008,note_on,,,,,64,0,15,,,,,7,,,54,100
19008,note_on,,,,,64,0,13,,,,,6,,,42,80
19008,note_on,,,,,64,0,7,,,,,0,,,76,80
19008,note_on,,,,,256,0,9,,,,,2,,,73,80
19008,note_on,,,,,0,0,14,,,,,7,,,76,100
19008,note_on,,,,,32,0,10,,,,,3,,,66,80
19008,note_on,,,,,64,0,12,,,,,5,,,54,80
19008,note_on,,,,,64,0,11,,,,,4,,,66,80
19008,note_on,,,,,64,0,14,,,,,7,,,73,100
19008,note_on,,,,,64,0,8,,,,,1,,,73,80
19072,note_off,,,,,64,0,7,,,,,0,,,76,100
19104,note_on,,,,,32,0,7,,,,,0,,,74,81
19136,note_off,,,,,128,0,15,,,,,7,,,54,100
19136,note_off,,,,,128,0,10,,,,,3,,,66,100
19136,note_off,,,,,128,0,11,,,,,4,,,66,100
19136,note_off,,,,,128,0,9,,,,,2,,,73,100
19136,note_off,,,,,128,0,12,,,,,5,,,54,100
19136,note_off,,,,,128,0,14,,,,,7,,,73,100
19136,note_off,,,,,0,0,14,,,,,7,,,76,100
19136,note_off,,,,,128,0,8,,,,,1,,,73,100
19136,note_off,,,,,128,0,13,,,,,6,,,42,100
19168,note_off,,,,,64,0,7,,,,,0,,,74,100
19200,note_on,,,,,64,0,12,,,,,5,,,54,82
19200,note_on,,,,,64,0,11,,,,,4,,,58,82
19200,note_on,,,,,0,0,11,,,,,4,,,66,82
19200,note_on,,,,,64,0,14,,,,,7,,,73,100
19200,note_on,,,,,0,0,14,,,,,7,,,76,100
19200,note_on,,,,,64,0,8,,,,,1,,,73,82
19200,note_on,,,,,64,0,15,,,,,7,,,54,100
19200,note_on,,,,,64,0,9,,,,,2,,,78,82
19200,note_on,,,,,32,0,7,,,,,0,,,76,82
19200,note_on,,,,,64,0,13,,,,,6,,,42,82
19264,note_off,,,,,64,0,7,,,,,0,,,76,100
19296,note_on,,,,,160,0,10,,,,,3,,,73,83
19296,note_on,,,,,32,0,7,,,,,0,,,78,83
19328,note_off,,,,,128,0,13,,,,,6,,,42,100
19328,note_off,,,,,128,0,8,,,,,1,,,73,100
19328,note_off,,,,,0,0,14,,,,,7,,,76,100
19328,note_off,,,,,128,0,14,,,,,7,,,73,100
19328,note_off,,,,,128,0,9,,,,,2,,,78,100
19328,note_off,,,,,128,0,11,,,,,4,,,58,100
19328,note_off,,,,,0,0,11,,,,,4,,,66,100
19328,note_off,,,,,128,0,12,,,,,5,,,54,100
19328,note_off,,,,,128,0,15,,,,,7,,,54,100
19360,note_off,,,,,64,0,7,,,,,0,,,78,100
19360,note_off,,,,,64,0,10,,,,,3,,,73,100
19392,note_on,,,,,64,0,15,,,,,7,,,54,100
19392,note_on,,,,,32,0,7,,,,,0,,,76,84
19392,note_on,,,,,32,0,10,,,,,3,,,76,84
19392,note_on,,,,,64,0,11,,,,,4,,,66,84
19392,note_on,,,,,0,0,11,,,,,4,,,70,84
19392,note_on,,,,,64,0,8,,,,,1,,,73,84
19392,note_on,,,,,0,0,14,,,,,7,,,76,100
19392,note_on,,,,,64,0,14,,,,,7,,,73,100
19392,note_on,,,,,64,0,13,,,,,6,,,42,84
19392,note_on,,,,,64,0,12,,,,,5,,,54,84
19456,note_off,,,,,64,0,10,,,,,3,,,76,100
19488,note_on,,,,,32,0,10,,,,,3,,,73,85
19520,note_off,,,,,128,0,11,,,,,4,,,66,100
19520,note_off,,,,,128,0,7,,,,,0,,,76,100
19520,note_off,,,,,128,0,8,,,,,1,,,73,100
19520,note_off,,,,,128,0,15,,,,,7,,,54,100
19520,note_off,,,,,0,0,11,,,,,4,,,70,100
19520,note_off,,,,,128,0,13,,,,,6,,,42,100
19520,note_off,,,,,128,0,14,,,,,7,,,73,100
19520,note_off,,,,,0,0,14,,,,,7,,,76,100
19520,note_off,,,,,128,0,12,,,,,5,,,54,100
19552,note_off,,,,,64,0,10,,,,,3,,,73,100
19584,note_on,,,,,256,0,9,,,,,2,,,71,87
19584,note_on,,,,,64,0,8,,,,,1,,,71,87
19584,note_on,,,,,64,0,14,,,,,7,,,71,100
19584,note_on,,,,,0,0,14,,,,,7,,,74,100
19584,note_on,,,,,32,0,10,,,,,3,,,66,87
19584,note_on,,,,,64,0,11,,,,,4,,,66,87
19584,note_on,,,,,64,0,13,,,,,6,,,42,87
19584,note_on,,,,,64,0,12,,,,,5,,,54,87
19584,note_on,,,,,64,0,7,,,,,0,,,74,87
19584,note_on,,,,,64,0,15,,,,,7,,,54,100
19648,note_off,,,,,64,0,7,,,,,0,,,74,100
19680,note_on,,,,,32,0,7,,,,,0,,,73,88
19712,note_off,,,,,128,0,15,,,,,7,,,54,100
19712,note_off,,,,,128,0,13,,,,,6,,,42,100
19712,note_off,,,,,0,0,14,,,,,7,,,74,100
19712,note_off,,,,,128,0,14,,,,,7,,,71,100
19712,note_off,,,,,128,0,9,,,,,2,,,71,100
19712,note_off,,,,,128,0,11,,,,,4,,,66,100
19712,note_off,,,,,128,0,10,,,,,3,,,66,100
19712,note_off,,,,,128,0,8,,,,,1,,,71,100
19712,note_off,,,,,128,0,12,,,,,5,,,54,100
19744,note_off,,,,,64,0,7,,,,,0,,,73,100
19776,note_on,,,,,0,0,14,,,,,7,,,74,100
19776,note_on,,,,,64,0,14,,,,,7,,,71,100
19776,note_on,,,,,64,0,8,,,,,1,,,71,89
19776,note_on,,,,,64,0,11,,,,,4,,,59,89
19776,note_on,,,,,0,0,11,,,,,4,,,66,89
19776,note_on,,,,,32,0,7,,,,,0,,,74,89
19776,note_on,,,,,64,0,12,,,,,5,,,54,89
19776,note_on,,,,,64,0,9,,,,,2,,,78,89
19776,note_on,,,,,64,0,13,,,,,6,,,42,89
19776,note_on,,,,,64,0,15,,,,,7,,,54,100
19840,note_off,,,,,64,0,7,,,,,0,,,74,100
19872,note_on,,,,,32,0,7,,,,,0,,,76,90
19872,note_on,,,,,160,0,10,,,,,3,,,71,90
19904,note_off,,,,,0,0,14,,,,,7,,,74,100
19904,note_off,,,,,128,0,14,,,,,7,,,71,100
19904,note_off,,,,,128,0,9,,,,,2,,,78,100
19904,note_off,,,,,128,0,15,,,,,7,,,54,100
19904,note_off,,,,,128,0,8,,,,,1,,,71,100
19904,note_off,,,,,128,0,13,,,,,6,,,42,100
19904,note_off,,,,,128,0,11,,,,,4,,,59,100
19904,note_off,,,,,0,0,11,,,,,4,,,66,100
19904,note_off,,,,,128,0,12,,,,,5,,,54,100
19936,note_off,,,,,64,0,10,,,,,3,,,71,100
19936,note_off,,,,,64,0,7,,,,,0,,,76,100
19968,note_on,,,,,64,0,13,,,,,6,,,42,91
19968,note_on,,,,,0,0,14,,,,,7,,,74,100
19968,note_on,,,,,64,0,14,,,,,7,,,71,100
19968,note_on,,,,,64,0,11,,,,,4,,,66,91
19968,note_on,,,,,0,0,11,,,,,4,,,71,91
19968,note_on,,,,,64,0,12,,,,,5,,,54,91
19968,note_on,,,,,32,0,10,,,,,3,,,74,91
19968,note_on,,,,,64,0,8,,,,,1,,,71,91
19968,note_on,,,,,64,0,15,,,,,7,,,54,100
19968,note_on,,,,,32,0,7,,,,,0,,,74,91
20032,note_off,,,,,64,0,10,,,,,3,,,74,100
20064,note_on,,,,,32,0,10,,,,,3,,,71,92
20096,note_off,,,,,128,0,8,,,,,1,,,71,100
20096,note_off,,,,,128,0,15,,,,,7,,,54,100
20096,note_off,,,,,128,0,11,,,,,4,,,66,100
20096,note_off,,,,,0,0,14,,,,,7,,,74,100
20096,note_off,,,,,128,0,14,,,,,7,,,71,100
20096,note_off,,,,,0,0,11,,,,,4,,,71,100
20096,note_off,,,,,128,0,7,,,,,0,,,74,100
20096,note_off,,,,,128,0,13,,,,,6,,,42,100
20096,note_off,,,,,128,0,12,,,,,5,,,54,100
20128,note_off,,,,,64,0,10,,,,,3,,,71,100
20160,note_on,,,,,32,0,10,,,,,3,,,66,35
20160,note_on,,,,,0,0,10,,,,,3,,,70,35
20160,note_on,,,,,0,0,9,,,,,2,,,76,35
20160,note_on,,,,,256,0,9,,,,,2,,,73,35
20160,note_on,,,,,64,0,15,,,,,7,,,54,100
20160,note_on,,,,,64,0,12,,,,,5,,,54,85
20160,note_on,,,,,0,0,8,,,,,1,,,70,85
20160,note_on,,,,,64,0,13,,,,,6,,,42,85
20160,note_on,,,,,64,0,11,,,,,4,,,61,85
20160,note_on,,,,,64,0,14,,,,,7,,,70,100
20160,note_on,,,,,64,0,7,,,,,0,,,73,85
20160,note_on,,,,,64,0,8,,,,,1,,,66,85
20160,note_on,,,,,0,0,7,,,,,0,,,76,85
20160,note_on,,,,,0,0,14,,,,,7,,,76,100
20288,note_off,,,,,128,0,12,,,,,5,,,54,100
20288,note_off,,,,,128,0,13,,,,,6,,,42,100
20288,note_off,,,,,128,0,14,,,,,7,,,70,100
20288,note_off,,,,,0,0,14,,,,,7,,,76,100
20288,note_off,,,,,128,0,15,,,,,7,,,54,100
20352,note_on,,,,,64,0,12,,,,,5,,,58,86
20352,note_on,,,,,0,0,14,,,,,7,,,73,100
20352,note_on,,,,,64,0,14,,,,,7,,,76,100
20352,note_on,,,,,64,0,15,,,,,7,,,58,100
20352,note_on,,,,,64,0,13,,,,,6,,,46,86
20416,note_off,,,,,0,0,8,,,,,1,,,70,100
20416,note_off,,,,,256,0,8,,,,,1,,,66,100
20416,note_off,,,,,256,0,10,,,,,3,,,66,100
20416,note_off,,,,,0,0,10,,,,,3,,,70,100
20416,note_off,,,,,256,0,9,,,,,2,,,73,100
20416,note_off,,,,,256,0,7,,,,,0,,,73,100
20416,note_off,,,,,0,0,7,,,,,0,,,76,100
20416,note_off,,,,,0,0,9,,,,,2,,,76,100
20416,note_off,,,,,256,0,11,,,,,4,,,61,100
20480,note_off,,,,,128,0,15,,,,,7,,,58,100
20480,note_off,,,,,128,0,12,,,,,5,,,58,100
20480,note_off,,,,,0,0,14,,,,,7,,,73,100
20480,note_off,,,,,128,0,13,,,,,6,,,46,100
20480,note_off,,,,,128,0,14,,,,,7,,,76,100
20544,note_on,,,,,64,0,14,,,,,7,,,76,100
20544,note_on,,,,,64,0,12,,,,,5,,,61,88
20544,note_on,,,,,64,0,15,,,,,7,,,61,100
20544,note_on,,,,,64,0,13,,,,,6,,,49,88
20672,note_off,,,,,128,0,12,,,,,5,,,61,100
20672,note_off,,,,,128,0,13,,,,,6,,,49,100
20672,note_off,,,,,128,0,14,,,,,7,,,76,100
20672,note_off,,,,,128,0,15,,,,,7,,,61,100
20736,note_on,,,,,64,0,12,,,,,5,,,54,89
20736,note_on,,,,,64,0,14,,,,,7,,,70,100
20736,note_on,,,,,0,0,14,,,,,7,,,76,100
20736,note_on,,,,,0,0,8,,,,,1,,,70,89
20736,note_on,,,,,320,0,8,,,,,1,,,66,89
20736,note_on,,,,,320,0,10,,,,,3,,,66,39
20736,note_on,,,,,0,0,10,,,,,3,,,70,39
20736,note_on,,,,,320,0,11,,,,,4,,,61,89
20736,note_on,,,,,64,0,15,,,,,7,,,54,100
20736,note_on,,,,,320,0,9,,,,,2,,,73,39
20736,note_on,,,,,0,0,9,,,,,2,,,76,39
20736,note_on,,,,,0,0,7,,,,,0,,,76,89
20736,note_on,,,,,64,0,13,,,,,6,,,42,89
20736,note_on,,,,,320,0,7,,,,,0,,,73,89
20864,note_off,,,,,0,0,14,,,,,7,,,76,100
20864,note_off,,,,,128,0,13,,,,,6,,,42,100
20864,note_off,,,,,128,0,15,,,,,7,,,54,100
20864,note_off,,,,,128,0,14,,,,,7,,,70,100
20864,note_off,,,,,128,0,12,,,,,5,,,54,100
20928,note_on,,,,,64,0,14,,,,,7,,,76,100
20928,note_on,,,,,64,0,12,,,,,5,,,58,91
20928,note_on,,,,,64,0,15,,,,,7,,,58,100
20928,note_on,,,,,64,0,13,,,,,6,,,46,91
20928,note_on,,,,,0,0,14,,,,,7,,,73,100
20992,note_off,,,,,256,0,9,,,,,2,,,73,100
20992,note_off,,,,,0,0,9,,,,,2,,,76,100
20992,note_off,,,,,0,0,8,,,,,1,,,70,100
20992,note_off,,,,,256,0,10,,,,,3,,,66,100
20992,note_off,,,,,0,0,10,,,,,3,,,70,100
20992,note_off,,,,,0,0,7,,,,,0,,,76,100
20992,note_off,,,,,256,0,7,,,,,0,,,73,100
20992,note_off,,,,,256,0,11,,,,,4,,,61,100
20992,note_off,,,,,256,0,8,,,,,1,,,66,100
21056,note_off,,,,,128,0,15,,,,,7,,,58,100
21056,note_off,,,,,128,0,12,,,,,5,,,58,100
21056,note_off,,,,,0,0,14,,,,,7,,,73,100
21056,note_off,,,,,128,0,14,,,,,7,,,76,100
21056,note_off,,,,,128,0,13,,,,,6,,,46,100
21120,note_on,,,,,64,0,12,,,,,5,,,61,93
21120,note_on,,,,,64,0,13,,,,,6,,,49,93
21120,note_on,,,,,64,0,14,,,,,7,,,76,100
21120,note_on,,,,,64,0,15,,,,,7,,,61,100
21248,note_off,,,,,128,0,12,,,,,5,,,61,100
21248,note_off,,,,,128,0,14,,,,,7,,,76,100
21248,note_off,,,,,128,0,15,,,,,7,,,61,100
21248,note_off,,,,,128,0,13,,,,,6,,,49,100
21312,note_on,,,,,0,0,7,,,,,0,,,76,94
21312,note_on,,,,,320,0,7,,,,,0,,,73,94
21312,note_on,,,,,320,0,9,,,,,2,,,73,44
21312,note_on,,,,,0,0,9,,,,,2,,,76,44
21312,note_on,,,,,64,0,15,,,,,7,,,54,100
21312,note_on,,,,,320,0,10,,,,,3,,,66,44
21312,note_on,,,,,320,0,11,,,,,4,,,61,94
21312,note_on,,,,,0,0,10,,,,,3,,,70,44
21312,note_on,,,,,64,0,12,,,,,5,,,54,94
21312,note_on,,,,,320,0,8,,,,,1,,,66,94
21312,note_on,,,,,0,0,8,,,,,1,,,70,94
21312,note_on,,,,,64,0,14,,,,,7,,,70,100
21312,note_on,,,,,0,0,14,,,,,7,,,76,100
21312,note_on,,,,,64,0,13,,,,,6,,,42,94
21440,note_off,,,,,128,0,13,,,,,6,,,42,100
21440,note_off,,,,,0,0,14,,,,,7,,,76,100
21440,note_off,,,,,128,0,15,,,,,7,,,54,100
21440,note_off,,,,,128,0,12,,,,,5,,,54,100
21440,note_off,,,,,128,0,14,,,,,7,,,70,100
21504,note_on,,,,,64,0,15,,,,,7,,,58,100
21504,note_on,,,,,0,0,14,,,,,7,,,73,100
21504,note_on,,,,,64,0,14,,,,,7,,,76,100
21504,note_on,,,,,64,0,12,,,,,5,,,58,96
21504,note_on,,,,,64,0,13,,,,,6,,,46,96
21568,note_off,,,,,256,0,7,,,,,0,,,73,100
21568,note_off,,,,,0,0,7,,,,,0,,,76,100
21568,note_off,,,,,256,0,9,,,,,2,,,73,100
21568,note_off,,,,,0,0,9,,,,,2,,,76,100
21568,note_off,,,,,256,0,11,,,,,4,,,61,100
21568,note_off,,,,,0,0,8,,,,,1,,,70,100
21568,note_off,,,,,256,0,8,,,,,1,,,66,100
21568,note_off,,,,,256,0,10,,,,,3,,,66,100
21568,note_off,,,,,0,0,10,,,,,3,,,70,100
21632,note_off,,,,,128,0,12,,,,,5,,,58,100
21632,note_off,,,,,128,0,13,,,,,6,,,46,100
21632,note_off,,,,,0,0,14,,,,,7,,,73,100
21632,note_off,,,,,128,0,14,,,,,7,,,76,100
21632,note_off,,,,,128,0,15,,,,,7,,,58,100
21696,note_on,,,,,64,0,12,,,,,5,,,61,98
21696,note_on,,,,,64,0,15,,,,,7,,,61,100
21696,note_on,,,,,64,0,14,,,,,7,,,76,100
21696,note_on,,,,,64,0,13,,,,,6,,,49,98
21824,note_off,,,,,128,0,15,,,,,7,,,61,100
21824,note_off,,,,,128,0,14,,,,,7,,,76,100
21824,note_off,,,,,128,0,12,,,,,5,,,61,100
21824,note_off,,,,,128,0,13,,,,,6,,,49,100
21888,note_on,,,,,320,0,9,,,,,2,,,73,49
21888,note_on,,,,,0,0,9,,,,,2,,,76,49
21888,note_on,,,,,320,0,8,,,,,1,,,66,99
21888,note_on,,,,,0,0,8,,,,,1,,,70,99
21888,note_on,,,,,320,0,10,,,,,3,,,66,49
21888,note_on,,,,,320,0,11,,,,,4,,,61,99
21888,note_on,,,,,64,0,13,,,,,6,,,42,99
21888,note_on,,,,,64,0,12,,,,,5,,,54,99
21888,note_on,,,,,0,0,7,,,,,0,,,76,99
21888,note_on,,,,,320,0,7,,,,,0,,,73,99
21888,note_on,,,,,0,0,10,,,,,3,,,70,49
21888,note_on,,,,,64,0,14,,,,,7,,,73,100
21888,note_on,,,,,0,0,14,,,,,7,,,70,100
21888,note_on,,,,,64,0,15,,,,,7,,,54,100
22144,note_off,,,,,256,0,7,,,,,0,,,73,100
22144,note_off,,,,,0,0,9,,,,,2,,,76,100
22144,note_off,,,,,256,0,12,,,,,5,,,54,100
22144,note_off,,,,,256,0,11,,,,,4,,,61,100
22144,note_off,,,,,256,0,15,,,,,7,,,54,100
22144,note_off,,,,,256,0,14,,,,,7,,,73,100
22144,note_off,,,,,0,0,10,,,,,3,,,70,100
22144,note_off,,,,,256,0,10,,,,,3,,,66,100
22144,note_off,,,,,0,0,14,,,,,7,,,70,100
22144,note_off,,,,,0,0,8,,,,,1,,,70,100
22144,note_off,,,,,256,0,8,,,,,1,,,66,100
22144,note_off,,,,,256,0,13,,,,,6,,,42,100
22144,note_off,,,,,0,0,7,,,,,0,,,76,100
22144,note_off,,,,,256,0,9,,,,,2,,,73,100
22464,note_on,,,,,320,0,7,,,,,0,,,74,100
22464,note_on,,,,,320,0,9,,,,,2,,,74,50
22464,note_on,,,,,320,0,14,,,,,7,,,62,100
22464,note_on,,,,,320,0,13,,,,,6,,,35,100
22464,note_on,,,,,320,0,12,,,,,5,,,47,100
22464,note_on,,,,,320,0,11,,,,,4,,,62,100
22464,note_on,,,,,0,0,11,,,,,4,,,66,100
22464,note_on,,,,,320,0,10,,,,,3,,,71,50
22464,note_on,,,,,320,0,8,,,,,1,,,71,100
22464,note_on,,,,,320,0,15,,,,,7,,,47,100
22464,note_on,,,,,0,0,14,,,,,7,,,66,100
22528,note_off,,,,,64,0,13,,,,,6,,,35,100
22528,note_off,,,,,64,0,12,,,,,5,,,47,100
22528,note_off,,,,,64,0,10,,,,,3,,,71,100
22528,note_off,,,,,0,0,11,,,,,4,,,66,100
22528,note_off,,,,,64,0,9,,,,,2,,,74,100
22528,note_off,,,,,64,0,15,,,,,7,,,47,100
22528,note_off,,,,,64,0,11,,,,,4,,,62,100
22528,note_off,,,,,64,0,7,,,,,0,,,74,100
22528,note_off,,,,,64,0,8,,,,,1,,,71,100
22560,note_on,,,,,0,0,11,,,,,4,,,66,100
22560,note_on,,,,,32,0,11,,,,,4,,,62,100
22560,note_on,,,,,32,0,10,,,,,3,,,71,50
22560,note_on,,,,,32,0,12,,,,,5,,,47,100
22560,note_on,,,,,32,0,7,,,,,0,,,74,100
22560,note_on,,,,,32,0,8,,,,,1,,,71,100
22560,note_on,,,,,32,0,13,,,,,6,,,35,100
22560,note_on,,,,,32,0,15,,,,,7,,,47,100
22560,note_on,,,,,32,0,9,,,,,2,,,74,50
22592,note_off,,,,,0,0,14,,,,,7,,,66,100
22592,note_off,,,,,128,0,14,,,,,7,,,62,100
22624,note_off,,,,,64,0,13,,,,,6,,,35,100
22624,note_off,,,,,64,0,7,,,,,0,,,74,100
22624,note_off,,,,,64,0,15,,,,,7,,,47,100
22624,note_off,,,,,64,0,11,,,,,4,,,62,100
22624,note_off,,,,,0,0,11,,,,,4,,,66,100
22624,note_off,,,,,64,0,9,,,,,2,,,74,100
22624,note_off,,,,,64,0,12,,,,,5,,,47,100
22624,note_off,,,,,64,0,10,,,,,3,,,71,100
22624,note_off,,,,,64,0,8,,,,,1,,,71,100
22656,note_on,,,,,64,0,14,,,,,7,,,62,100
22656,note_on,,,,,32,0,12,,,,,5,,,47,100
22656,note_on,,,,,32,0,10,,,,,3,,,71,50
22656,note_on,,,,,32,0,13,,,,,6,,,35,100
22656,note_on,,,,,32,0,9,,,,,2,,,74,50
22656,note_on,,,,,32,0,8,,,,,1,,,71,100
22656,note_on,,,,,0,0,14,,,,,7,,,66,100
22656,note_on,,,,,32,0,11,,,,,4,,,62,100
22656,note_on,,,,,0,0,11,,,,,4,,,66,100
22656,note_on,,,,,32,0,15,,,,,7,,,47,100
22656,note_on,,,,,32,0,7,,,,,0,,,74,100
22720,note_off,,,,,64,0,7,,,,,0,,,74,100
22720,note_off,,,,,64,0,15,,,,,7,,,47,100
22720,note_off,,,,,64,0,12,,,,,5,,,47,100
22720,note_off,,,,,64,0,9,,,,,2,,,74,100
22720,note_off,,,,,64,0,8,,,,,1,,,71,100
22720,note_off,,,,,64,0,10,,,,,3,,,71,100
22720,note_off,,,,,64,0,11,,,,,4,,,62,100
22720,note_off,,,,,0,0,11,,,,,4,,,66,100
22720,note_off,,,,,64,0,13,,,,,6,,,35,100
22752,note_on,,,,,32,0,11,,,,,4,,,62,100
22752,note_on,,,,,32,0,9,,,,,2,,,74,50
22752,note_on,,,,,32,0,12,,,,,5,,,47,100
22752,note_on,,,,,32,0,10,,,,,3,,,71,50
22752,note_on,,,,,32,0,15,,,,,7,,,47,100
22752,note_on,,,,,32,0,7,,,,,0,,,74,100
22752,note_on,,,,,0,0,11,,,,,4,,,66,100
22752,note_on,,,,,32,0,13,,,,,6,,,35,100
22752,note_on,,,,,32,0,8,,,,,1,,,71,100
22784,note_off,,,,,0,0,14,,,,,7,,,66,100
22784,note_off,,,,,128,0,14,,,,,7,,,62,100
22816,note_off,,,,,64,0,9,,,,,2,,,74,100
22816,note_off,,,,,64,0,12,,,,,5,,,47,100
22816,note_off,,,,,64,0,11,,,,,4,,,62,100
22816,note_off,,,,,64,0,7,,,,,0,,,74,100
22816,note_off,,,,,64,0,10,,,,,3,,,71,100
22816,note_off,,,,,64,0,8,,,,,1,,,71,100
22816,note_off,,,,,64,0,15,,,,,7,,,47,100
22816,note_off,,,,,0,0,11,,,,,4,,,66,100
22816,note_off,,,,,64,0,13,,,,,6,,,35,100
22848,note_on,,,,,32,0,15,,,,,7,,,47,100
22848,note_on,,,,,32,0,12,,,,,5,,,47,100
22848,note_on,,,,,32,0,10,,,,,3,,,71,50
22848,note_on,,,,,32,0,13,,,,,6,,,35,100
22848,note_on,,,,,32,0,7,,,,,0,,,74,100
22848,note_on,,,,,0,0,11,,,,,4,,,66,100
22848,note_on,,,,,32,0,11,,,,,4,,,62,100
22848,note_on,,,,,32,0,9,,,,,2,,,74,50
22848,note_on,,,,,32,0,8,,,,,1,,,71,100
22848,note_on,,,,,0,0,14,,,,,7,,,66,100
22848,note_on,,,,,64,0,14,,,,,7,,,62,100
22912,note_off,,,,,64,0,9,,,,,2,,,74,100
22912,note_off,,,,,0,0,11,,,,,4,,,66,100
22912,note_off,,,,,64,0,13,,,,,6,,,35,100
22912,note_off,,,,,64,0,11,,,,,4,,,62,100
22912,note_off,,,,,64,0,15,,,,,7,,,47,100
22912,note_off,,,,,64,0,7,,,,,0,,,74,100
22912,note_off,,,,,64,0,10,,,,,3,,,71,100
22912,note_off,,,,,64,0,12,,,,,5,,,47,100
22912,note_off,,,,,64,0,8,,,,,1,,,71,100
22944,note_on,,,,,32,0,11,,,,,4,,,62,100
22944,note_on,,,,,32,0,9,,,,,2,,,74,50
22944,note_on,,,,,32,0,12,,,,,5,,,47,100
22944,note_on,,,,,32,0,10,,,,,3,,,71,50
22944,note_on,,,,,32,0,13,,,,,6,,,35,100
22944,note_on,,,,,32,0,8,,,,,1,,,71,100
22944,note_on,,,,,32,0,15,,,,,7,,,47,100
22944,note_on,,,,,0,0,11,,,,,4,,,66,100
22944,note_on,,,,,32,0,7,,,,,0,,,74,100
22976,note_off,,,,,0,0,14,,,,,7,,,66,100
22976,note_off,,,,,128,0,14,,,,,7,,,62,100
23008,note_off,,,,,64,0,8,,,,,1,,,71,100
23008,note_off,,,,,64,0,13,,,,,6,,,35,100
23008,note_off,,,,,64,0,12,,,,,5,,,47,100
23008,note_off,,,,,64,0,11,,,,,4,,,62,100
23008,note_off,,,,,64,0,15,,,,,7,,,47,100
23008,note_off,,,,,64,0,7,,,,,0,,,74,100
23008,note_off,,,,,64,0,9,,,,,2,,,74,100
23008,note_off,,,,,64,0,10,,,,,3,,,71,100
23008,note_off,,,,,0,0,11,,,,,4,,,66,100
23040,note_on,,,,,32,0,13,,,,,6,,,40,100
23040,note_on,,,,,32,0,7,,,,,0,,,73,100
23040,note_on,,,,,32,0,12,,,,,5,,,52,100
23040,note_on,,,,,32,0,8,,,,,1,,,71,100
23040,note_on,,,,,32,0,11,,,,,4,,,64,100
23040,note_on,,,,,0,0,11,,,,,4,,,67,100
23040,note_on,,,,,32,0,15,,,,,7,,,52,100
23040,note_on,,,,,32,0,9,,,,,2,,,73,50
23040,note_on,,,,,0,0,14,,,,,7,,,71,100
23040,note_on,,,,,32,0,10,,,,,3,,,71,50
23040,note_on,,,,,64,0,14,,,,,7,,,73,100
23104,note_off,,,,,64,0,8,,,,,1,,,71,100
23104,note_off,,,,,64,0,10,,,,,3,,,71,100
23104,note_off,,,,,0,0,11,,,,,4,,,67,100
23104,note_off,,,,,64,0,9,,,,,2,,,73,100
23104,note_off,,,,,64,0,12,,,,,5,,,52,100
23104,note_off,,,,,64,0,13,,,,,6,,,40,100
23104,note_off,,,,,64,0,7,,,,,0,,,73,100
23104,note_off,,,,,64,0,15,,,,,7,,,52,100
23104,note_off,,,,,64,0,11,,,,,4,,,64,100
23136,note_on,,,,,32,0,10,,,,,3,,,71,50
23136,note_on,,,,,32,0,15,,,,,7,,,52,100
23136,note_on,,,,,32,0,9,,,,,2,,,73,50
23136,note_on,,,,,32,0,7,,,,,0,,,73,100
23136,note_on,,,,,0,0,11,,,,,4,,,67,100
23136,note_on,,,,,32,0,13,,,,,6,,,40,100
23136,note_on,,,,,32,0,8,,,,,1,,,71,100
23136,note_on,,,,,32,0,12,,,,,5,,,52,100
23136,note_on,,,,,32,0,11,,,,,4,,,64,100
23168,note_off,,,,,128,0,14,,,,,7,,,73,100
23168,note_off,,,,,0,0,14,,,,,7,,,71,100
23200,note_off,,,,,64,0,9,,,,,2,,,73,100
23200,note_off,,,,,64,0,13,,,,,6,,,40,100
23200,note_off,,,,,64,0,7,,,,,0,,,73,100
23200,note_off,,,,,64,0,8,,,,,1,,,71,100
23200,note_off,,,,,64,0,10,,,,,3,,,71,100
23200,note_off,,,,,64,0,12,,,,,5,,,52,100
23200,note_off,,,,,0,0,11,,,,,4,,,67,100
23200,note_off,,,,,64,0,11,,,,,4,,,64,100
23200,note_off,,,,,64,0,15,,,,,7,,,52,100
23232,note_on,,,,,64,0,14,,,,,7,,,71,100
23232,note_on,,,,,32,0,8,,,,,1,,,71,100
23232,note_on,,,,,0,0,11,,,,,4,,,67,100
23232,note_on,,,,,32,0,11,,,,,4,,,64,100
23232,note_on,,,,,0,0,14,,,,,7,,,73,100
23232,note_on,,,,,32,0,7,,,,,0,,,73,100
23232,note_on,,,,,32,0,13,,,,,6,,,40,100
23232,note_on,,,,,32,0,12,,,,,5,,,52,100
23232,note_on,,,,,32,0,10,,,,,3,,,71,50
23232,note_on,,,,,32,0,9,,,,,2,,,73,50
23232,note_on,,,,,32,0,15,,,,,7,,,52,100
23296,note_off,,,,,64,0,13,,,,,6,,,40,100
23296,note_off,,,,,64,0,12,,,,,5,,,52,100
23296,note_off,,,,,64,0,8,,,,,1,,,71,100
23296,note_off,,,,,64,0,7,,,,,0,,,73,100
23296,note_off,,,,,0,0,11,,,,,4,,,67,100
23296,note_off,,,,,64,0,11,,,,,4,,,64,100
23296,note_off,,,,,64,0,10,,,,,3,,,71,100
23296,note_off,,,,,64,0,9,,,,,2,,,73,100
23296,note_off,,,,,64,0,15,,,,,7,,,52,100
23328,note_on,,,,,32,0,9,,,,,2,,,73,50
23328,note_on,,,,,32,0,8,,,,,1,,,71,100
23328,note_on,,,,,32,0,12,,,,,5,,,52,100
23328,note_on,,,,,32,0,11,,,,,4,,,64,100
23328,note_on,,,,,32,0,13,,,,,6,,,40,100
23328,note_on,,,,,32,0,15,,,,,7,,,52,100
23328,note_on,,,,,32,0,10,,,,,3,,,71,50
23328,note_on,,,,,0,0,11,,,,,4,,,67,100
23328,note_on,,,,,32,0,7,,,,,0,,,73,100
23360,note_off,,,,,128,0,14,,,,,7,,,71,100
23360,note_off,,,,,0,0,14,,,,,7,,,73,100
23392,note_off,,,,,64,0,10,,,,,3,,,71,100
23392,note_off,,,,,64,0,9,,,,,2,,,73,100
23392,note_off,,,,,64,0,13,,,,,6,,,40,100
23392,note_off,,,,,0,0,11,,,,,4,,,67,100
23392,note_off,,,,,64,0,11,,,,,4,,,64,100
23392,note_off,,,,,64,0,12,,,,,5,,,52,100
23392,note_off,,,,,64,0,15,,,,,7,,,52,100
23392,note_off,,,,,64,0,7,,,,,0,,,73,100
23392,note_off,,,,,64,0,8,,,,,1,,,71,100
23424,note_on,,,,,32,0,9,,,,,2,,,73,50
23424,note_on,,,,,0,0,11,,,,,4,,,67,100
23424,note_on,,,,,0,0,14,,,,,7,,,73,100
23424,note_on,,,,,32,0,10,,,,,3,,,71,50
23424,note_on,,,,,32,0,8,,,,,1,,,71,100
23424,note_on,,,,,64,0,14,,,,,7,,,71,100
23424,note_on,,,,,32,0,13,,,,,6,,,40,100
23424,note_on,,,,,32,0,12,,,,,5,,,52,100
23424,note_on,,,,,32,0,11,,,,,4,,,64,100
23424,note_on,,,,,32,0,7,,,,,0,,,73,100
23424,note_on,,,,,32,0,15,,,,,7,,,52,100
23488,note_off,,,,,64,0,10,,,,,3,,,71,100
23488,note_off,,,,,64,0,9,,,,,2,,,73,100
23488,note_off,,,,,64,0,11,,,,,4,,,64,100
23488,note_off,,,,,0,0,11,,,,,4,,,67,100
23488,note_off,,,,,64,0,7,,,,,0,,,73,100
23488,note_off,,,,,64,0,13,,,,,6,,,40,100
23488,note_off,,,,,64,0,15,,,,,7,,,52,100
23488,note_off,,,,,64,0,12,,,,,5,,,52,100
23488,note_off,,,,,64,0,8,,,,,1,,,71,100
23520,note_on,,,,,32,0,11,,,,,4,,,64,100
23520,note_on,,,,,0,0,11,,,,,4,,,67,100
23520,note_on,,,,,32,0,12,,,,,5,,,52,100
23520,note_on,,,,,32,0,13,,,,,6,,,40,100
23520,note_on,,,,,32,0,10,,,,,3,,,71,50
23520,note_on,,,,,32,0,15,,,,,7,,,52,100
23520,note_on,,,,,32,0,9,,,,,2,,,73,50
23520,note_on,,,,,32,0,8,,,,,1,,,71,100
23520,note_on,,,,,32,0,7,,,,,0,,,73,100
23552,note_off,,,,,0,0,14,,,,,7,,,73,100
23552,note_off,,,,,128,0,14,,,,,7,,,71,100
23584,note_off,,,,,64,0,9,,,,,2,,,73,100
23584,note_off,,,,,64,0,11,,,,,4,,,64,100
23584,note_off,,,,,0,0,11,,,,,4,,,67,100
23584,note_off,,,,,64,0,8,,,,,1,,,71,100
23584,note_off,,,,,64,0,10,,,,,3,,,71,100
23584,note_off,,,,,64,0,7,,,,,0,,,73,100
23584,note_off,,,,,64,0,12,,,,,5,,,52,100
23584,note_off,,,,,64,0,13,,,,,6,,,40,100
23584,note_off,,,,,64,0,15,,,,,7,,,52,100
23616,note_on,,,,,0,0,14,,,,,7,,,73,100
23616,note_on,,,,,32,0,7,,,,,0,,,73,100
23616,note_on,,,,,32,0,11,,,,,4,,,61,100
23616,note_on,,,,,32,0,9,,,,,2,,,73,50
23616,note_on,,,,,32,0,15,,,,,7,,,54,100
23616,note_on,,,,,64,0,14,,,,,7,,,70,100
23616,note_on,,,,,32,0,12,,,,,5,,,54,100
23616,note_on,,,,,32,0,10,,,,,3,,,70,50
23616,note_on,,,,,32,0,13,,,,,6,,,42,100
23616,note_on,,,,,0,0,11,,,,,4,,,66,100
23616,note_on,,,,,32,0,8,,,,,1,,,70,100
23680,note_off,,,,,64,0,13,,,,,6,,,42,100
23680,note_off,,,,,64,0,15,,,,,7,,,54,100
23680,note_off,,,,,64,0,10,,,,,3,,,70,100
23680,note_off,,,,,64,0,9,,,,,2,,,73,100
23680,note_off,,,,,0,0,11,,,,,4,,,66,100
23680,note_off,,,,,64,0,11,,,,,4,,,61,100
23680,note_off,,,,,64,0,8,,,,,1,,,70,100
23680,note_off,,,,,64,0,12,,,,,5,,,54,100
23680,note_off,,,,,64,0,7,,,,,0,,,73,100
23712,note_on,,,,,32,0,7,,,,,0,,,73,100
23712,note_on,,,,,32,0,11,,,,,4,,,61,100
23712,note_on,,,,,32,0,9,,,,,2,,,73,50
23712,note_on,,,,,32,0,15,,,,,7,,,54,100
23712,note_on,,,,,32,0,13,,,,,6,,,42,100
23712,note_on,,,,,32,0,12,,,,,5,,,54,100
23712,note_on,,,,,32,0,8,,,,,1,,,70,100
23712,note_on,,,,,32,0,10,,,,,3,,,70,50
23712,note_on,,,,,0,0,11,,,,,4,,,66,100
23744,note_off,,,,,128,0,14,,,,,7,,,70,100
23744,note_off,,,,,0,0,14,,,,,7,,,73,100
23776,note_off,,,,,64,0,9,,,,,2,,,73,100
23776,note_off,,,,,64,0,7,,,,,0,,,73,100
23776,note_off,,,,,0,0,11,,,,,4,,,66,100
23776,note_off,,,,,64,0,10,,,,,3,,,70,100
23776,note_off,,,,,64,0,13,,,,,6,,,42,100
23776,note_off,,,,,64,0,11,,,,,4,,,61,100
23776,note_off,,,,,64,0,15,,,,,7,,,54,100
23776,note_off,,,,,64,0,8,,,,,1,,,70,100
23776,note_off,,,,,64,0,12,,,,,5,,,54,100
23808,note_on,,,,,32,0,12,,,,,5,,,54,100
23808,note_on,,,,,32,0,9,,,,,2,,,73,50
23808,note_on,,,,,32,0,15,,,,,7,,,54,100
23808,note_on,,,,,64,0,14,,,,,7,,,70,100
23808,note_on,,,,,0,0,14,,,,,7,,,73,100
23808,note_on,,,,,32,0,13,,,,,6,,,42,100
23808,note_on,,,,,32,0,7,,,,,0,,,73,100
23808,note_on,,,,,32,0,11,,,,,4,,,61,100
23808,note_on,,,,,32,0,8,,,,,1,,,70,100
23808,note_on,,,,,0,0,11,,,,,4,,,66,100
23808,note_on,,,,,32,0,10,,,,,3,,,70,50
23872,note_off,,,,,64,0,13,,,,,6,,,42,100
23872,note_off,,,,,64,0,8,,,,,1,,,70,100
23872,note_off,,,,,0,0,11,,,,,4,,,66,100
23872,note_off,,,,,64,0,11,,,,,4,,,61,100
23872,note_off,,,,,64,0,7,,,,,0,,,73,100
23872,note_off,,,,,64,0,15,,,,,7,,,54,100
23872,note_off,,,,,64,0,12,,,,,5,,,54,100
23872,note_off,,,,,64,0,9,,,,,2,,,73,100
23872,note_off,,,,,64,0,10,,,,,3,,,70,100
23904,note_on,,,,,32,0,11,,,,,4,,,61,100
23904,note_on,,,,,0,0,11,,,,,4,,,66,100
23904,note_on,,,,,32,0,9,,,,,2,,,73,50
23904,note_on,,,,,32,0,12,,,,,5,,,54,100
23904,note_on,,,,,32,0,8,,,,,1,,,70,100
23904,note_on,,,,,32,0,13,,,,,6,,,42,100
23904,note_on,,,,,32,0,15,,,,,7,,,54,100
23904,note_on,,,,,32,0,10,,,,,3,,,70,50
23904,note_on,,,,,32,0,7,,,,,0,,,73,100
23936,note_off,,,,,128,0,14,,,,,7,,,70,100
23936,note_off,,,,,0,0,14,,,,,7,,,73,100
23968,note_off,,,,,64,0,9,,,,,2,,,73,100
23968,note_off,,,,,64,0,10,,,,,3,,,70,100
23968,note_off,,,,,64,0,11,,,,,4,,,61,100
23968,note_off,,,,,64,0,12,,,,,5,,,54,100
23968,note_off,,,,,0,0,11,,,,,4,,,66,100
23968,note_off,,,,,64,0,13,,,,,6,,,42,100
23968,note_off,,,,,64,0,7,,,,,0,,,73,100
23968,note_off,,,,,64,0,15,,,,,7,,,54,100
23968,note_off,,,,,64,0,8,,,,,1,,,70,100
24000,note_on,,,,,32,0,13,,,,,6,,,42,100
24000,note_on,,,,,64,0,14,,,,,7,,,70,100
24000,note_on,,,,,0,0,14,,,,,7,,,73,100
24000,note_on,,,,,32,0,15,,,,,7,,,54,100
24000,note_on,,,,,32,0,12,,,,,5,,,54,100
24000,note_on,,,,,32,0,9,,,,,2,,,73,50
24000,note_on,,,,,32,0,10,,,,,3,,,70,50
24000,note_on,,,,,32,0,8,,,,,1,,,70,100
24000,note_on,,,,,32,0,7,,,,,0,,,73,100
24000,note_on,,,,,32,0,11,,,,,4,,,61,100
24000,note_on,,,,,0,0,11,,,,,4,,,66,100
24064,note_off,,,,,64,0,12,,,,,5,,,54,100
24064,note_off,,,,,64,0,11,,,,,4,,,61,100
24064,note_off,,,,,64,0,15,,,,,7,,,54,100
24064,note_off,,,,,0,0,11,,,,,4,,,66,100
24064,note_off,,,,,64,0,7,,,,,0,,,73,100
24064,note_off,,,,,64,0,9,,,,,2,,,73,100
24064,note_off,,,,,64,0,13,,,,,6,,,42,100
24064,note_off,,,,,64,0,8,,,,,1,,,70,100
24064,note_off,,,,,64,0,10,,,,,3,,,70,100
24096,note_on,,,,,32,0,8,,,,,1,,,70,100
24096,note_on,,,,,32,0,9,,,,,2,,,73,50
24096,note_on,,,,,0,0,11,,,,,4,,,66,100
24096,note_on,,,,,32,0,11,,,,,4,,,61,100
24096,note_on,,,,,32,0,15,,,,,7,,,54,100
24096,note_on,,,,,32,0,12,,,,,5,,,54,100
24096,note_on,,,,,32,0,10,,,,,3,,,70,50
24096,note_on,,,,,32,0,7,,,,,0,,,73,100
24096,note_on,,,,,32,0,13,,,,,6,,,42,100
24128,note_off,,,,,0,0,14,,,,,7,,,73,100
24128,note_off,,,,,128,0,14,,,,,7,,,70,100
24160,note_off,,,,,64,0,15,,,,,7,,,54,100
24160,note_off,,,,,64,0,13,,,,,6,,,42,100
24160,note_off,,,,,64,0,8,,,,,1,,,70,100
24160,note_off,,,,,64,0,12,,,,,5,,,54,100
24160,note_off,,,,,64,0,9,,,,,2,,,73,100
24160,note_off,,,,,64,0,10,,,,,3,,,70,100
24160,note_off,,,,,64,0,11,,,,,4,,,61,100
24160,note_off,,,,,0,0,11,,,,,4,,,66,100
24160,note_off,,,,,64,0,7,,,,,0,,,73,100
24188,program_change,,,,,28,0,7,,,,,0,40,,,
24192,note_on,,,,,0,0,14,,,,,7,,,66,100
24192,note_on,,,,,32,0,9,,,,,2,,,71,50
24192,note_on,,,,,32,0,8,,,,,1,,,71,100
24192,note_on,,,,,32,0,15,,,,,7,,,47,100
24192,note_on,,,,,0,0,11,,,,,4,,,66,100
24192,note_on,,,,,64,0,14,,,,,7,,,62,100
24192,note_on,,,,,32,0,12,,,,,5,,,47,100
24192,note_on,,,,,32,0,10,,,,,3,,,71,50
24192,note_on,,,,,4,0,7,,,,,0,,,71,100
24192,note_on,,,,,32,0,13,,,,,6,,,35,100
24192,note_on,,,,,32,0,11,,,,,4,,,62,100
24256,note_off,,,,,64,0,7,,,,,0,,,71,100
24288,note_on,,,,,32,0,7,,,,,0,,,66,100
24352,note_off,,,,,64,0,7,,,,,0,,,66,100
24384,note_on,,,,,32,0,7,,,,,0,,,62,100
24448,note_off,,,,,256,0,12,,,,,5,,,47,100
24448,note_off,,,,,256,0,15,,,,,7,,,47,100
24448,note_off,,,,,256,0,10,,,,,3,,,71,100
24448,note_off,,,,,256,0,9,,,,,2,,,71,100
24448,note_off,,,,,256,0,8,,,,,1,,,71,100
24448,note_off,,,,,256,0,13,,,,,6,,,35,100
24448,note_off,,,,,0,0,14,,,,,7,,,66,100
24448,note_off,,,,,256,0,14,,,,,7,,,62,100
24448,note_off,,,,,0,0,11,,,,,4,,,66,100
24448,note_off,,,,,256,0,11,,,,,4,,,62,100
24476,note_off,,,,,92,0,7,,,,,0,,,62,100
24480,note_on,,,,,4,0,7,,,,,0,,,66,100
24572,note_off,,,,,92,0,7,,,,,0,,,66,100
24576,note_on,,,,,4,0,7,,,,,0,,,71,100
24640,note_off,,,,,64,0,7,,,,,0,,,71,100
24672,note_on,,,,,32,0,7,,,,,0,,,73,100
24736,note_off,,,,,64,0,7,,,,,0,,,73,100
24768,note_on,,,,,320,0,13,,,,,6,,,47,85
24768,note_on,,,,,320,0,12,,,,,5,,,59,85
24768,note_on,,,,,320,0,14,,,,,7,,,78,100
24768,note_on,,,,,32,0,7,,,,,0,,,71,100
24768,note_on,,,,,320,0,15,,,,,7,,,59,100
24768,note_on,,,,,0,0,14,,,,,7,,,74,100
24832,note_off,,,,,64,0,7,,,,,0,,,71,100
24864,note_on,,,,,32,0,7,,,,,0,,,66,100
24928,note_off,,,,,64,0,7,,,,,0,,,66,100
24960,note_on,,,,,32,0,7,,,,,0,,,62,100
25024,note_off,,,,,0,0,14,,,,,7,,,74,100
25024,note_off,,,,,256,0,13,,,,,6,,,47,100
25024,note_off,,,,,256,0,14,,,,,7,,,78,100
25024,note_off,,,,,256,0,15,,,,,7,,,59,100
25024,note_off,,,,,256,0,12,,,,,5,,,59,100
25052,note_off,,,,,92,0,7,,,,,0,,,62,100
25056,note_on,,,,,4,0,7,,,,,0,,,66,100
25148,note_off,,,,,92,0,7,,,,,0,,,66,100
25152,note_on,,,,,4,0,7,,,,,0,,,71,100
25216,note_off,,,,,64,0,7,,,,,0,,,71,100
25248,note_on,,,,,32,0,7,,,,,0,,,74,100
25312,note_off,,,,,64,0,7,,,,,0,,,74,100
25344,note_on,,,,,320,0,14,,,,,7,,,70,100
25344,note_on,,,,,320,0,15,,,,,7,,,54,100
25344,note_on,,,,,320,0,13,,,,,6,,,42,85
25344,note_on,,,,,32,0,7,,,,,0,,,73,100
25344,note_on,,,,,0,0,14,,,,,7,,,73,100
25344,note_on,,,,,320,0,12,,,,,5,,,54,85
25408,note_off,,,,,64,0,7,,,,,0,,,73,100
25440,note_on,,,,,32,0,7,,,,,0,,,70,100
25504,note_off,,,,,64,0,7,,,,,0,,,70,100
25536,note_on,,,,,32,0,7,,,,,0,,,66,100
25600,note_off,,,,,256,0,14,,,,,7,,,70,100
25600,note_off,,,,,0,0,14,,,,,7,,,73,100
25600,note_off,,,,,256,0,15,,,,,7,,,54,100
25600,note_off,,,,,256,0,13,,,,,6,,,42,100
25600,note_off,,,,,256,0,12,,,,,5,,,54,100
25628,note_off,,,,,92,0,7,,,,,0,,,66,100
25632,note_on,,,,,4,0,7,,,,,0,,,70,100
25724,note_off,,,,,92,0,7,,,,,0,,,70,100
25728,note_on,,,,,4,0,7,,,,,0,,,73,100
25792,note_off,,,,,64,0,7,,,,,0,,,73,100
25824,note_on,,,,,32,0,7,,,,,0,,,74,100
25888,note_off,,,,,64,0,7,,,,,0,,,74,100
25920,note_on,,,,,32,0,7,,,,,0,,,73,100
25920,note_on,,,,,320,0,15,,,,,7,,,42,100
25920,note_on,,,,,320,0,14,,,,,7,,,58,100
25920,note_on,,,,,0,0,14,,,,,7,,,61,100
25920,note_on,,,,,320,0,13,,,,,6,,,42,85
25920,note_on,,,,,320,0,12,,,,,5,,,42,85
25984,note_off,,,,,64,0,7,,,,,0,,,73,100
26016,note_on,,,,,32,0,7,,,,,0,,,70,100
26080,note_off,,,,,64,0,7,,,,,0,,,70,100
26112,note_on,,,,,32,0,7,,,,,0,,,66,100
26176,note_off,,,,,256,0,15,,,,,7,,,42,100
26176,note_off,,,,,256,0,13,,,,,6,,,42,100
26176,note_off,,,,,256,0,12,,,,,5,,,42,100
26176,note_off,,,,,0,0,14,,,,,7,,,61,100
26176,note_off,,,,,256,0,14,,,,,7,,,58,100
26204,note_off,,,,,92,0,7,,,,,0,,,66,100
26208,note_on,,,,,4,0,7,,,,,0,,,70,100
26300,note_off,,,,,92,0,7,,,,,0,,,70,100
26304,note_on,,,,,4,0,7,,,,,0,,,73,100
26368,note_off,,,,,64,0,7,,,,,0,,,73,100
26400,note_on,,,,,32,0,7,,,,,0,,,76,100
26464,note_off,,,,,64,0,7,,,,,0,,,76,100
26496,note_on,,,,,32,0,7,,,,,0,,,74,100
26496,note_on,,,,,320,0,15,,,,,7,,,59,100
26496,note_on,,,,,0,0,14,,,,,7,,,74,100
26496,note_on,,,,,320,0,12,,,,,5,,,59,85
26496,note_on,,,,,320,0,14,,,,,7,,,78,100
26496,note_on,,,,,320,0,13,,,,,6,,,47,85
26560,note_off,,,,,64,0,7,,,,,0,,,74,100
26592,note_on,,,,,32,0,7,,,,,0,,,73,100
26656,note_off,,,,,64,0,7,,,,,0,,,73,100
26688,note_on,,,,,32,0,7,,,,,0,,,71,100
26752,note_off,,,,,0,0,14,,,,,7,,,74,100
26752,note_off,,,,,256,0,12,,,,,5,,,59,100
26752,note_off,,,,,256,0,15,,,,,7,,,59,100
26752,note_off,,,,,256,0,14,,,,,7,,,78,100
26752,note_off,,,,,64,0,7,,,,,0,,,71,100
26752,note_off,,,,,256,0,13,,,,,6,,,47,100
26784,note_on,,,,,32,0,7,,,,,0,,,73,100
26848,note_off,,,,,64,0,7,,,,,0,,,73,100
26880,note_on,,,,,32,0,7,,,,,0,,,74,100
26944,note_off,,,,,64,0,7,,,,,0,,,74,100
26976,note_on,,,,,32,0,7,,,,,0,,,76,100
27040,note_off,,,,,64,0,7,,,,,0,,,76,100
27072,note_on,,,,,320,0,14,,,,,7,,,66,100
27072,note_on,,,,,320,0,13,,,,,6,,,35,85
27072,note_on,,,,,0,0,14,,,,,7,,,62,100
27072,note_on,,,,,32,0,7,,,,,0,,,78,100
27072,note_on,,,,,320,0,15,,,,,7,,,47,100
27072,note_on,,,,,320,0,12,,,,,5,,,47,85
27116,note_off,,,,,44,0,7,,,,,0,,,78,100
27120,note_on,,,,,4,0,7,,,,,0,,,79,100
27164,note_off,,,,,44,0,7,,,,,0,,,79,100
27168,note_on,,,,,4,0,7,,,,,0,,,78,100
27232,note_off,,,,,64,0,7,,,,,0,,,78,100
27264,note_on,,,,,32,0,7,,,,,0,,,76,100
27328,note_off,,,,,256,0,13,,,,,6,,,35,100
27328,note_off,,,,,256,0,15,,,,,7,,,47,100
27328,note_off,,,,,256,0,14,,,,,7,,,66,100
27328,note_off,,,,,256,0,12,,,,,5,,,47,100
27328,note_off,,,,,0,0,14,,,,,7,,,62,100
27356,note_off,,,,,92,0,7,,,,,0,,,76,100
27360,note_on,,,,,4,0,7,,,,,0,,,74,100
27424,note_off,,,,,64,0,7,,,,,0,,,74,100
27456,note_on,,,,,32,0,7,,,,,0,,,73,100
27548,note_off,,,,,92,0,7,,,,,0,,,73,100
27552,note_on,,,,,4,0,7,,,,,0,,,71,100
27616,note_off,,,,,64,0,7,,,,,0,,,71,100
27648,note_on,,,,,320,0,13,,,,,6,,,40,85
27648,note_on,,,,,32,0,7,,,,,0,,,79,100
27648,note_on,,,,,320,0,14,,,,,7,,,67,100
27648,note_on,,,,,320,0,12,,,,,5,,,52,85
27648,note_on,,,,,0,0,14,,,,,7,,,71,100
27648,note_on,,,,,320,0,15,,,,,7,,,52,100
27692,note_off,,,,,44,0,7,,,,,0,,,79,100
27696,note_on,,,,,4,0,7,,,,,0,,,81,100
27740,note_off,,,,,44,0,7,,,,,0,,,81,100
27744,note_on,,,,,4,0,7,,,,,0,,,79,100
27808,note_off,,,,,64,0,7,,,,,0,,,79,100
27840,note_on,,,,,32,0,7,,,,,0,,,78,100
27904,note_off,,,,,0,0,14,,,,,7,,,71,100
27904,note_off,,,,,256,0,14,,,,,7,,,67,100
27904,note_off,,,,,256,0,12,,,,,5,,,52,100
27904,note_off,,,,,256,0,15,,,,,7,,,52,100
27904,note_off,,,,,256,0,13,,,,,6,,,40,100
27932,note_off,,,,,92,0,7,,,,,0,,,78,100
27936,note_on,,,,,4,0,7,,,,,0,,,76,100
28000,note_off,,,,,64,0,7,,,,,0,,,76,100
28032,note_on,,,,,32,0,7,,,,,0,,,74,100
28124,note_off,,,,,92,0,7,,,,,0,,,74,100
28128,note_on,,,,,4,0,7,,,,,0,,,73,100
28192,note_off,,,,,64,0,7,,,,,0,,,73,100
28224,note_on,,,,,320,0,15,,,,,7,,,47,100
28224,note_on,,,,,0,0,14,,,,,7,,,62,100
28224,note_on,,,,,320,0,14,,,,,7,,,66,100
28224,note_on,,,,,320,0,13,,,,,6,,,35,75
28224,note_on,,,,,32,0,7,,,,,0,,,78,90
28224,note_on,,,,,320,0,12,,,,,5,,,47,75
28268,note_off,,,,,44,0,7,,,,,0,,,78,100
28272,note_on,,,,,4,0,7,,,,,0,,,79,90
28316,note_off,,,,,44,0,7,,,,,0,,,79,100
28320,note_on,,,,,4,0,7,,,,,0,,,78,90
28384,note_off,,,,,64,0,7,,,,,0,,,78,100
28416,note_on,,,,,32,0,7,,,,,0,,,76,90
28480,note_off,,,,,256,0,15,,,,,7,,,47,100
28480,note_off,,,,,256,0,13,,,,,6,,,35,100
28480,note_off,,,,,0,0,14,,,,,7,,,62,100
28480,note_off,,,,,256,0,14,,,,,7,,,66,100
28480,note_off,,,,,256,0,12,,,,,5,,,47,100
28508,note_off,,,,,92,0,7,,,,,0,,,76,100
28512,note_on,,,,,4,0,7,,,,,0,,,74,90
28576,note_off,,,,,64,0,7,,,,,0,,,74,100
28608,note_on,,,,,32,0,7,,,,,0,,,73,90
28700,note_off,,,,,92,0,7,,,,,0,,,73,100
28704,note_on,,,,,4,0,7,,,,,0,,,71,90
28768,note_off,,,,,64,0,7,,,,,0,,,71,100
28800,note_on,,,,,32,0,7,,,,,0,,,79,90
28800,note_on,,,,,320,0,13,,,,,6,,,40,75
28800,note_on,,,,,320,0,15,,,,,7,,,52,100
28800,note_on,,,,,320,0,12,,,,,5,,,52,75
28800,note_on,,,,,0,0,14,,,,,7,,,71,100
28800,note_on,,,,,320,0,14,,,,,7,,,67,100
28844,note_off,,,,,44,0,7,,,,,0,,,79,100
28848,note_on,,,,,4,0,7,,,,,0,,,81,90
28892,note_off,,,,,44,0,7,,,,,0,,,81,100
28896,note_on,,,,,4,0,7,,,,,0,,,79,90
28960,note_off,,,,,64,0,7,,,,,0,,,79,100
28992,note_on,,,,,32,0,7,,,,,0,,,78,90
29056,note_off,,,,,256,0,14,,,,,7,,,67,100
29056,note_off,,,,,0,0,14,,,,,7,,,71,100
29056,note_off,,,,,256,0,13,,,,,6,,,40,100
29056,note_off,,,,,256,0,12,,,,,5,,,52,100
29056,note_off,,,,,256,0,15,,,,,7,,,52,100
29084,note_off,,,,,92,0,7,,,,,0,,,78,100
29088,note_on,,,,,4,0,7,,,,,0,,,76,90
29152,note_off,,,,,64,0,7,,,,,0,,,76,100
29184,note_on,,,,,32,0,7,,,,,0,,,74,90
29276,note_off,,,,,92,0,7,,,,,0,,,74,100
29280,note_on,,,,,4,0,7,,,,,0,,,73,100
29344,note_off,,,,,64,0,7,,,,,0,,,73,100
29376,note_on,,,,,320,0,14,,,,,7,,,62,100
29376,note_on,,,,,320,0,15,,,,,7,,,47,100
29376,note_on,,,,,320,0,12,,,,,5,,,47,85
29376,note_on,,,,,32,0,7,,,,,0,,,78,100
29376,note_on,,,,,0,0,14,,,,,7,,,66,100
29376,note_on,,,,,320,0,13,,,,,6,,,35,85
29504,note_off,,,,,128,0,7,,,,,0,,,78,100
29568,note_on,,,,,64,0,7,,,,,0,,,76,100
29632,note_off,,,,,256,0,15,,,,,7,,,47,100
29632,note_off,,,,,256,0,12,,,,,5,,,47,100
29632,note_off,,,,,256,0,14,,,,,7,,,62,100
29632,note_off,,,,,0,0,14,,,,,7,,,66,100
29632,note_off,,,,,256,0,13,,,,,6,,,35,100
29660,note_off,,,,,92,0,7,,,,,0,,,76,100
29664,note_on,,,,,4,0,7,,,,,0,,,74,100
29728,note_off,,,,,64,0,7,,,,,0,,,74,100
29760,note_on,,,,,32,0,7,,,,,0,,,73,100
29852,note_off,,,,,92,0,7,,,,,0,,,73,100
29856,note_on,,,,,4,0,7,,,,,0,,,71,100
29920,note_off,,,,,64,0,7,,,,,0,,,71,100
29952,note_on,,,,,32,0,7,,,,,0,,,82,100
29952,note_on,,,,,320,0,12,,,,,5,,,54,85
29952,note_on,,,,,320,0,13,,,,,6,,,42,85
29952,note_on,,,,,0,0,14,,,,,7,,,70,100
29952,note_on,,,,,320,0,14,,,,,7,,,73,100
29952,note_on,,,,,320,0,15,,,,,7,,,54,100
30044,note_off,,,,,92,0,7,,,,,0,,,82,100
30048,note_on,,,,,4,0,7,,,,,0,,,83,100
30112,note_off,,,,,64,0,7,,,,,0,,,83,100
30144,note_on,,,,,32,0,7,,,,,0,,,80,100
30236,note_off,,,,,92,0,7,,,,,0,,,80,100
30240,note_on,,,,,4,0,7,,,,,0,,,82,100
30304,note_off,,,,,64,0,7,,,,,0,,,82,100
30336,note_on,,,,,32,0,7,,,,,0,,,78,100
30336,note_off,,,,,384,0,12,,,,,5,,,54,100
30336,note_off,,,,,0,0,14,,,,,7,,,70,100
30336,note_off,,,,,384,0,14,,,,,7,,,73,100
30336,note_off,,,,,384,0,13,,,,,6,,,42,100
30336,note_off,,,,,384,0,15,,,,,7,,,54,100
30464,note_off,,,,,128,0,7,,,,,0,,,78,100
30528,note_on,,,,,192,0,12,,,,,5,,,54,85
30528,note_on,,,,,192,0,15,,,,,7,,,54,100
30528,note_on,,,,,192,0,13,,,,,6,,,42,85
30528,note_on,,,,,192,0,14,,,,,7,,,70,100
30592,note_off,,,,,64,0,14,,,,,7,,,70,100
30592,note_off,,,,,64,0,12,,,,,5,,,54,100
30592,note_off,,,,,64,0,15,,,,,7,,,54,100
30592,note_off,,,,,64,0,13,,,,,6,,,42,100
30624,note_on,,,,,32,0,14,,,,,7,,,71,100
30624,note_on,,,,,32,0,15,,,,,7,,,55,100
30624,note_on,,,,,32,0,12,,,,,5,,,55,85
30624,note_on,,,,,32,0,13,,,,,6,,,43,85
30688,note_off,,,,,64,0,15,,,,,7,,,55,100
30688,note_off,,,,,64,0,12,,,,,5,,,55,100
30688,note_off,,,,,64,0,14,,,,,7,,,71,100
30688,note_off,,,,,64,0,13,,,,,6,,,43,100
30720,note_on,,,,,32,0,12,,,,,5,,,54,85
30720,note_on,,,,,32,0,14,,,,,7,,,70,100
30720,note_on,,,,,32,0,15,,,,,7,,,54,100
30720,note_on,,,,,32,0,13,,,,,6,,,42,85
30784,note_off,,,,,64,0,13,,,,,6,,,42,100
30784,note_off,,,,,64,0,12,,,,,5,,,54,100
30784,note_off,,,,,64,0,14,,,,,7,,,70,100
30784,note_off,,,,,64,0,15,,,,,7,,,54,100
30816,note_on,,,,,32,0,12,,,,,5,,,52,85
30816,note_on,,,,,32,0,14,,,,,7,,,67,100
30816,note_on,,,,,32,0,15,,,,,7,,,52,100
30816,note_on,,,,,32,0,13,,,,,6,,,40,85
30880,note_off,,,,,64,0,14,,,,,7,,,67,100
30880,note_off,,,,,64,0,15,,,,,7,,,52,100
30880,note_off,,,,,64,0,13,,,,,6,,,40,100
30880,note_off,,,,,64,0,12,,,,,5,,,52,100
30912,note_on,,,,,32,0,14,,,,,7,,,66,100
30912,note_on,,,,,32,0,13,,,,,6,,,38,85
30912,note_on,,,,,32,0,12,,,,,5,,,50,85
30912,note_on,,,,,32,0,15,,,,,7,,,50,100
30976,note_off,,,,,64,0,13,,,,,6,,,38,100
30976,note_off,,,,,64,0,14,,,,,7,,,66,100
30976,note_off,,,,,64,0,15,,,,,7,,,50,100
30976,note_off,,,,,64,0,12,,,,,5,,,50,100
31008,note_on,,,,,32,0,14,,,,,7,,,64,100
31008,note_on,,,,,32,0,15,,,,,7,,,49,100
31008,note_on,,,,,32,0,13,,,,,6,,,37,85
31008,note_on,,,,,32,0,12,,,,,5,,,49,85
31072,note_off,,,,,64,0,14,,,,,7,,,64,100
31072,note_off,,,,,64,0,15,,,,,7,,,49,100
31072,note_off,,,,,64,0,13,,,,,6,,,37,100
31072,note_off,,,,,64,0,12,,,,,5,,,49,100
31104,note_on,,,,,32,0,12,,,,,5,,,47,85
31104,note_on,,,,,640,0,7,,,,,0,,,78,100
31104,note_on,,,,,32,0,14,,,,,7,,,63,100
31104,note_on,,,,,32,0,13,,,,,6,,,35,85
31104,note_on,,,,,32,0,15,,,,,7,,,47,100
31104,note_on,,,,,0,0,14,,,,,7,,,66,100
31196,note_off,,,,,92,0,7,,,,,0,,,78,100
31200,note_on,,,,,4,0,7,,,,,0,,,75,100
31232,note_off,,,,,128,0,13,,,,,6,,,35,100
31232,note_off,,,,,128,0,15,,,,,7,,,47,100
31232,note_off,,,,,128,0,14,,,,,7,,,63,100
31232,note_off,,,,,0,0,14,,,,,7,,,66,100
31232,note_off,,,,,128,0,12,,,,,5,,,47,100
31292,note_off,,,,,92,0,7,,,,,0,,,75,100
31296,note_on,,,,,4,0,7,,,,,0,,,71,100
31296,note_on,,,,,64,0,15,,,,,7,,,47,100
31296,note_on,,,,,64,0,12,,,,,5,,,47,85
31296,note_on,,,,,64,0,14,,,,,7,,,66,100
31296,note_on,,,,,0,0,14,,,,,7,,,63,100
31296,note_on,,,,,64,0,13,,,,,6,,,35,85
31360,note_off,,,,,64,0,7,,,,,0,,,71,100
31392,note_on,,,,,32,0,7,,,,,0,,,78,100
31424,note_off,,,,,128,0,13,,,,,6,,,35,100
31424,note_off,,,,,128,0,14,,,,,7,,,66,100
31424,note_off,,,,,0,0,14,,,,,7,,,63,100
31424,note_off,,,,,128,0,15,,,,,7,,,47,100
31424,note_off,,,,,128,0,12,,,,,5,,,47,100
31456,note_off,,,,,64,0,7,,,,,0,,,78,100
31488,note_on,,,,,0,0,14,,,,,7,,,63,100
31488,note_on,,,,,32,0,7,,,,,0,,,75,100
31488,note_on,,,,,64,0,15,,,,,7,,,47,100
31488,note_on,,,,,64,0,14,,,,,7,,,66,100
31488,note_on,,,,,64,0,12,,,,,5,,,47,85
31488,note_on,,,,,64,0,13,,,,,6,,,35,85
31552,note_off,,,,,64,0,7,,,,,0,,,75,100
31584,note_on,,,,,32,0,7,,,,,0,,,71,100
31616,note_off,,,,,0,0,14,,,,,7,,,63,100
31616,note_off,,,,,128,0,15,,,,,7,,,47,100
31616,note_off,,,,,128,0,12,,,,,5,,,47,100
31616,note_off,,,,,128,0,14,,,,,7,,,66,100
31616,note_off,,,,,128,0,13,,,,,6,,,35,100
31648,note_off,,,,,64,0,7,,,,,0,,,71,100
31680,note_on,,,,,32,0,7,,,,,0,,,78,100
31680,note_on,,,,,64,0,15,,,,,7,,,47,100
31680,note_on,,,,,64,0,13,,,,,6,,,35,85
31680,note_on,,,,,64,0,12,,,,,5,,,47,85
31680,note_on,,,,,64,0,14,,,,,7,,,66,100
31680,note_on,,,,,0,0,14,,,,,7,,,63,100
31772,note_off,,,,,92,0,7,,,,,0,,,78,100
31776,note_on,,,,,4,0,7,,,,,0,,,75,100
31808,note_off,,,,,128,0,15,,,,,7,,,47,100
31808,note_off,,,,,128,0,13,,,,,6,,,35,100
31808,note_off,,,,,128,0,12,,,,,5,,,47,100
31808,note_off,,,,,0,0,14,,,,,7,,,63,100
31808,note_off,,,,,128,0,14,,,,,7,,,66,100
31868,note_off,,,,,92,0,7,,,,,0,,,75,100
31872,note_on,,,,,64,0,14,,,,,7,,,66,100
31872,note_on,,,,,64,0,15,,,,,7,,,47,100
31872,note_on,,,,,4,0,7,,,,,0,,,71,100
31872,note_on,,,,,64,0,13,,,,,6,,,35,85
31872,note_on,,,,,0,0,14,,,,,7,,,63,100
31872,note_on,,,,,64,0,12,,,,,5,,,47,85
31936,note_off,,,,,64,0,7,,,,,0,,,71,100
31968,note_on,,,,,32,0,7,,,,,0,,,78,100
32000,note_off,,,,,128,0,12,,,,,5,,,47,100
32000,note_off,,,,,128,0,15,,,,,7,,,47,100
32000,note_off,,,,,128,0,13,,,,,6,,,35,100
32000,note_off,,,,,0,0,14,,,,,7,,,63,100
32000,note_off,,,,,128,0,14,,,,,7,,,66,100
32032,note_off,,,,,64,0,7,,,,,0,,,78,100
32064,note_on,,,,,64,0,13,,,,,6,,,35,85
32064,note_on,,,,,64,0,14,,,,,7,,,66,100
32064,note_on,,,,,0,0,14,,,,,7,,,63,100
32064,note_on,,,,,64,0,15,,,,,7,,,47,100
32064,note_on,,,,,32,0,7,,,,,0,,,75,100
32064,note_on,,,,,64,0,12,,,,,5,,,47,85
32128,note_off,,,,,64,0,7,,,,,0,,,75,100
32160,note_on,,,,,32,0,7,,,,,0,,,71,100
32192,note_off,,,,,128,0,14,,,,,7,,,66,100
32192,note_off,,,,,0,0,14,,,,,7,,,63,100
32192,note_off,,,,,128,0,12,,,,,5,,,47,100
32192,note_off,,,,,128,0,15,,,,,7,,,47,100
32192,note_off,,,,,128,0,13,,,,,6,,,35,100
32224,note_off,,,,,64,0,7,,,,,0,,,71,100
32256,note_on,,,,,64,0,14,,,,,7,,,67,100
32256,note_on,,,,,0,0,14,,,,,7,,,71,100
32256,note_on,,,,,64,0,13,,,,,6,,,40,85
32256,note_on,,,,,64,0,15,,,,,7,,,52,100
32256,note_on,,,,,32,0,7,,,,,0,,,79,100
32256,note_on,,,,,64,0,12,,,,,5,,,52,85
32348,note_off,,,,,92,0,7,,,,,0,,,79,100
32352,note_on,,,,,4,0,7,,,,,0,,,76,100
32384,note_off,,,,,128,0,12,,,,,5,,,52,100
32384,note_off,,,,,128,0,13,,,,,6,,,40,100
32384,note_off,,,,,128,0,14,,,,,7,,,67,100
32384,note_off,,,,,128,0,15,,,,,7,,,52,100
32384,note_off,,,,,0,0,14,,,,,7,,,71,100
32444,note_off,,,,,92,0,7,,,,,0,,,76,100
32448,note_on,,,,,64,0,13,,,,,6,,,40,85
32448,note_on,,,,,64,0,12,,,,,5,,,52,85
32448,note_on,,,,,64,0,15,,,,,7,,,52,100
32448,note_on,,,,,64,0,14,,,,,7,,,67,100
32448,note_on,,,,,0,0,14,,,,,7,,,71,100
32448,note_on,,,,,4,0,7,,,,,0,,,71,100
32512,note_off,,,,,64,0,7,,,,,0,,,71,100
32544,note_on,,,,,32,0,7,,,,,0,,,79,100
32576,note_off,,,,,128,0,15,,,,,7,,,52,100
32576,note_off,,,,,128,0,14,,,,,7,,,67,100
32576,note_off,,,,,0,0,14,,,,,7,,,71,100
32576,note_off,,,,,128,0,13,,,,,6,,,40,100
32576,note_off,,,,,128,0,12,,,,,5,,,52,100
32608,note_off,,,,,64,0,7,,,,,0,,,79,100
32640,note_on,,,,,64,0,14,,,,,7,,,67,100
32640,note_on,,,,,0,0,14,,,,,7,,,71,100
32640,note_on,,,,,64,0,12,,,,,5,,,52,85
32640,note_on,,,,,32,0,7,,,,,0,,,76,100
32640,note_on,,,,,64,0,13,,,,,6,,,40,85
32640,note_on,,,,,64,0,15,,,,,7,,,52,100
32704,note_off,,,,,64,0,7,,,,,0,,,76,100
32736,note_on,,,,,32,0,7,,,,,0,,,71,100
32768,note_off,,,,,128,0,14,,,,,7,,,67,100
32768,note_off,,,,,128,0,12,,,,,5,,,52,100
32768,note_off,,,,,128,0,15,,,,,7,,,52,100
32768,note_off,,,,,0,0,14,,,,,7,,,71,100
32768,note_off,,,,,128,0,13,,,,,6,,,40,100
32800,note_off,,,,,64,0,7,,,,,0,,,71,100
32832,note_on,,,,,32,0,7,,,,,0,,,79,100
32832,note_on,,,,,64,0,15,,,,,7,,,52,100
32832,note_on,,,,,64,0,14,,,,,7,,,67,100
32832,note_on,,,,,64,0,13,,,,,6,,,40,85
32832,note_on,,,,,0,0,14,,,,,7,,,71,100
32832,note_on,,,,,64,0,12,,,,,5,,,52,85
32924,note_off,,,,,92,0,7,,,,,0,,,79,100
32928,note_on,,,,,4,0,7,,,,,0,,,76,100
32960,note_off,,,,,128,0,12,,,,,5,,,52,100
32960,note_off,,,,,128,0,14,,,,,7,,,67,100
32960,note_off,,,,,0,0,14,,,,,7,,,71,100
32960,note_off,,,,,128,0,15,,,,,7,,,52,100
32960,note_off,,,,,128,0,13,,,,,6,,,40,100
33020,note_off,,,,,92,0,7,,,,,0,,,76,100
33024,note_on,,,,,64,0,14,,,,,7,,,67,100
33024,note_on,,,,,64,0,12,,,,,5,,,52,85
33024,note_on,,,,,0,0,14,,,,,7,,,71,100
33024,note_on,,,,,64,0,15,,,,,7,,,52,100
33024,note_on,,,,,4,0,7,,,,,0,,,71,100
33024,note_on,,,,,64,0,13,,,,,6,,,40,85
33088,note_off,,,,,64,0,7,,,,,0,,,71,100
33120,note_on,,,,,32,0,7,,,,,0,,,79,100
33152,note_off,,,,,128,0,13,,,,,6,,,40,100
33152,note_off,,,,,128,0,14,,,,,7,,,67,100
33152,note_off,,,,,128,0,12,,,,,5,,,52,100
33152,note_off,,,,,128,0,15,,,,,7,,,52,100
33152,note_off,,,,,0,0,14,,,,,7,,,71,100
33184,note_off,,,,,64,0,7,,,,,0,,,79,100
33216,note_on,,,,,32,0,7,,,,,0,,,76,100
33216,note_on,,,,,64,0,12,,,,,5,,,52,85
33216,note_on,,,,,0,0,14,,,,,7,,,71,100
33216,note_on,,,,,64,0,15,,,,,7,,,52,100
33216,note_on,,,,,64,0,13,,,,,6,,,40,85
33216,note_on,,,,,64,0,14,,,,,7,,,67,100
33280,note_off,,,,,64,0,7,,,,,0,,,76,100
33312,note_on,,,,,32,0,7,,,,,0,,,71,100
33344,note_off,,,,,128,0,14,,,,,7,,,67,100
33344,note_off,,,,,0,0,14,,,,,7,,,71,100
33344,note_off,,,,,128,0,12,,,,,5,,,52,100
33344,note_off,,,,,128,0,13,,,,,6,,,40,100
33344,note_off,,,,,128,0,15,,,,,7,,,52,100
33376,note_off,,,,,64,0,7,,,,,0,,,71,100
33408,note_on,,,,,64,0,12,,,,,5,,,45,85
33408,note_on,,,,,64,0,15,,,,,7,,,45,100
33408,note_on,,,,,32,0,7,,,,,0,,,79,100
33408,note_on,,,,,64,0,13,,,,,6,,,33,85
33408,note_on,,,,,0,0,14,,,,,7,,,69,100
33408,note_on,,,,,64,0,14,,,,,7,,,61,100
33500,note_off,,,,,92,0,7,,,,,0,,,79,100
33504,note_on,,,,,4,0,7,,,,,0,,,73,100
33536,note_off,,,,,128,0,15,,,,,7,,,45,100
33536,note_off,,,,,128,0,13,,,,,6,,,33,100
33536,note_off,,,,,0,0,14,,,,,7,,,69,100
33536,note_off,,,,,128,0,14,,,,,7,,,61,100
33536,note_off,,,,,128,0,12,,,,,5,,,45,100
33596,note_off,,,,,92,0,7,,,,,0,,,73,100
33600,note_on,,,,,64,0,15,,,,,7,,,45,100
33600,note_on,,,,,4,0,7,,,,,0,,,69,100
33600,note_on,,,,,64,0,13,,,,,6,,,33,85
33600,note_on,,,,,0,0,14,,,,,7,,,61,100
33600,note_on,,,,,64,0,14,,,,,7,,,69,100
33600,note_on,,,,,64,0,12,,,,,5,,,45,85
33664,note_off,,,,,64,0,7,,,,,0,,,69,100
33696,note_on,,,,,32,0,7,,,,,0,,,79,100
33728,note_off,,,,,128,0,12,,,,,5,,,45,100
33728,note_off,,,,,128,0,15,,,,,7,,,45,100
33728,note_off,,,,,128,0,13,,,,,6,,,33,100
33728,note_off,,,,,128,0,14,,,,,7,,,69,100
33728,note_off,,,,,0,0,14,,,,,7,,,61,100
33760,note_off,,,,,64,0,7,,,,,0,,,79,100
33792,note_on,,,,,32,0,7,,,,,0,,,73,100
33792,note_on,,,,,64,0,15,,,,,7,,,45,100
33792,note_on,,,,,64,0,14,,,,,7,,,69,100
33792,note_on,,,,,64,0,12,,,,,5,,,45,85
33792,note_on,,,,,0,0,14,,,,,7,,,61,100
33792,note_on,,,,,64,0,13,,,,,6,,,33,85
33856,note_off,,,,,64,0,7,,,,,0,,,73,100
33888,note_on,,,,,32,0,7,,,,,0,,,69,100
33920,note_off,,,,,128,0,14,,,,,7,,,69,100
33920,note_off,,,,,0,0,14,,,,,7,,,61,100
33920,note_off,,,,,128,0,13,,,,,6,,,33,100
33920,note_off,,,,,128,0,15,,,,,7,,,45,100
33920,note_off,,,,,128,0,12,,,,,5,,,45,100
33952,note_off,,,,,64,0,7,,,,,0,,,69,100
33984,note_on,,,,,64,0,15,,,,,7,,,45,100
33984,note_on,,,,,32,0,7,,,,,0,,,79,100
33984,note_on,,,,,0,0,14,,,,,7,,,61,100
33984,note_on,,,,,64,0,14,,,,,7,,,69,100
33984,note_on,,,,,64,0,13,,,,,6,,,33,85
33984,note_on,,,,,64,0,12,,,,,5,,,45,85
34076,note_off,,,,,92,0,7,,,,,0,,,79,100
34080,note_on,,,,,4,0,7,,,,,0,,,73,100
34112,note_off,,,,,128,0,12,,,,,5,,,45,100
34112,note_off,,,,,0,0,14,,,,,7,,,61,100
34112,note_off,,,,,128,0,14,,,,,7,,,69,100
34112,note_off,,,,,128,0,13,,,,,6,,,33,100
34112,note_off,,,,,128,0,15,,,,,7,,,45,100
34172,note_off,,,,,92,0,7,,,,,0,,,73,100
34176,note_on,,,,,0,0,14,,,,,7,,,61,100
34176,note_on,,,,,64,0,14,,,,,7,,,69,100
34176,note_on,,,,,64,0,13,,,,,6,,,33,85
34176,note_on,,,,,4,0,7,,,,,0,,,69,100
34176,note_on,,,,,64,0,12,,,,,5,,,45,85
34176,note_on,,,,,64,0,15,,,,,7,,,45,100
34240,note_off,,,,,64,0,7,,,,,0,,,69,100
34272,note_on,,,,,32,0,7,,,,,0,,,79,100
34304,note_off,,,,,128,0,12,,,,,5,,,45,100
34304,note_off,,,,,0,0,14,,,,,7,,,61,100
34304,note_off,,,,,128,0,14,,,,,7,,,69,100
34304,note_off,,,,,128,0,13,,,,,6,,,33,100
34304,note_off,,,,,128,0,15,,,,,7,,,45,100
34336,note_off,,,,,64,0,7,,,,,0,,,79,100
34368,note_on,,,,,32,0,7,,,,,0,,,73,100
34368,note_on,,,,,0,0,14,,,,,7,,,61,100
34368,note_on,,,,,64,0,13,,,,,6,,,33,85
34368,note_on,,,,,64,0,15,,,,,7,,,45,100
34368,note_on,,,,,64,0,14,,,,,7,,,69,100
34368,note_on,,,,,64,0,12,,,,,5,,,45,85
34432,note_off,,,,,64,0,7,,,,,0,,,73,100
34464,note_on,,,,,32,0,7,,,,,0,,,69,100
34496,note_off,,,,,128,0,14,,,,,7,,,69,100
34496,note_off,,,,,128,0,13,,,,,6,,,33,100
34496,note_off,,,,,128,0,15,,,,,7,,,45,100
34496,note_off,,,,,0,0,14,,,,,7,,,61,100
34496,note_off,,,,,128,0,12,,,,,5,,,45,100
34528,note_off,,,,,64,0,7,,,,,0,,,69,100
34560,note_on,,,,,64,0,15,,,,,7,,,50,100
34560,note_on,,,,,32,0,7,,,,,0,,,78,100
34560,note_on,,,,,64,0,13,,,,,6,,,38,85
34560,note_on,,,,,0,0,14,,,,,7,,,69,100
34560,note_on,,,,,64,0,12,,,,,5,,,50,85
34560,note_on,,,,,64,0,14,,,,,7,,,66,100
34652,note_off,,,,,92,0,7,,,,,0,,,78,100
34656,note_on,,,,,4,0,7,,,,,0,,,74,100
34688,note_off,,,,,128,0,13,,,,,6,,,38,100
34688,note_off,,,,,128,0,15,,,,,7,,,50,100
34688,note_off,,,,,0,0,14,,,,,7,,,69,100
34688,note_off,,,,,128,0,12,,,,,5,,,50,100
34688,note_off,,,,,128,0,14,,,,,7,,,66,100
34748,note_off,,,,,92,0,7,,,,,0,,,74,100
34752,note_on,,,,,4,0,7,,,,,0,,,69,100
34752,note_on,,,,,64,0,12,,,,,5,,,50,85
34752,note_on,,,,,64,0,13,,,,,6,,,38,85
34752,note_on,,,,,64,0,15,,,,,7,,,50,100
34752,note_on,,,,,64,0,14,,,,,7,,,66,100
34752,note_on,,,,,0,0,14,,,,,7,,,69,100
34816,note_off,,,,,64,0,7,,,,,0,,,69,100
34848,note_on,,,,,32,0,7,,,,,0,,,78,100
34880,note_off,,,,,128,0,12,,,,,5,,,50,100
34880,note_off,,,,,128,0,13,,,,,6,,,38,100
34880,note_off,,,,,128,0,15,,,,,7,,,50,100
34880,note_off,,,,,128,0,14,,,,,7,,,66,100
34880,note_off,,,,,0,0,14,,,,,7,,,69,100
34912,note_off,,,,,64,0,7,,,,,0,,,78,100
34944,note_on,,,,,64,0,15,,,,,7,,,50,100
34944,note_on,,,,,64,0,13,,,,,6,,,38,85
34944,note_on,,,,,0,0,14,,,,,7,,,69,100
34944,note_on,,,,,64,0,12,,,,,5,,,50,85
34944,note_on,,,,,64,0,14,,,,,7,,,66,100
34944,note_on,,,,,32,0,7,,,,,0,,,74,100
35008,note_off,,,,,64,0,7,,,,,0,,,74,100
35040,note_on,,,,,32,0,7,,,,,0,,,69,100
35072,note_off,,,,,128,0,15,,,,,7,,,50,100
35072,note_off,,,,,128,0,12,,,,,5,,,50,100
35072,note_off,,,,,128,0,14,,,,,7,,,66,100
35072,note_off,,,,,0,0,14,,,,,7,,,69,100
35072,note_off,,,,,128,0,13,,,,,6,,,38,100
35104,note_off,,,,,64,0,7,,,,,0,,,69,100
35136,note_on,,,,,0,0,14,,,,,7,,,69,100
35136,note_on,,,,,64,0,14,,,,,7,,,66,100
35136,note_on,,,,,32,0,7,,,,,0,,,78,100
35136,note_on,,,,,64,0,13,,,,,6,,,38,85
35136,note_on,,,,,64,0,12,,,,,5,,,50,85
35136,note_on,,,,,64,0,15,,,,,7,,,50,100
35228,note_off,,,,,92,0,7,,,,,0,,,78,100
35232,note_on,,,,,4,0,7,,,,,0,,,74,100
35264,note_off,,,,,128,0,15,,,,,7,,,50,100
35264,note_off,,,,,128,0,13,,,,,6,,,38,100
35264,note_off,,,,,0,0,14,,,,,7,,,69,100
35264,note_off,,,,,128,0,12,,,,,5,,,50,100
35264,note_off,,,,,128,0,14,,,,,7,,,66,100
35324,note_off,,,,,92,0,7,,,,,0,,,74,100
35328,note_on,,,,,64,0,14,,,,,7,,,66,100
35328,note_on,,,,,0,0,14,,,,,7,,,69,100
35328,note_on,,,,,64,0,13,,,,,6,,,38,85
35328,note_on,,,,,64,0,12,,,,,5,,,50,85
35328,note_on,,,,,4,0,7,,,,,0,,,69,100
35328,note_on,,,,,64,0,15,,,,,7,,,50,100
35392,note_off,,,,,64,0,7,,,,,0,,,69,100
35424,note_on,,,,,32,0,7,,,,,0,,,78,100
35456,note_off,,,,,128,0,13,,,,,6,,,38,100
35456,note_off,,,,,0,0,14,,,,,7,,,69,100
35456,note_off,,,,,128,0,14,,,,,7,,,66,100
35456,note_off,,,,,128,0,12,,,,,5,,,50,100
35456,note_off,,,,,128,0,15,,,,,7,,,50,100
35488,note_off,,,,,64,0,7,,,,,0,,,78,100
35520,note_on,,,,,64,0,14,,,,,7,,,66,100
35520,note_on,,,,,64,0,12,,,,,5,,,50,85
35520,note_on,,,,,64,0,13,,,,,6,,,38,85
35520,note_on,,,,,32,0,7,,,,,0,,,74,100
35520,note_on,,,,,64,0,15,,,,,7,,,50,100
35520,note_on,,,,,0,0,14,,,,,7,,,69,100
35584,note_off,,,,,64,0,7,,,,,0,,,74,100
35616,note_on,,,,,32,0,7,,,,,0,,,69,100
35648,note_off,,,,,0,0,14,,,,,7,,,69,100
35648,note_off,,,,,128,0,15,,,,,7,,,50,100
35648,note_off,,,,,128,0,14,,,,,7,,,66,100
35648,note_off,,,,,128,0,13,,,,,6,,,38,100
35648,note_off,,,,,128,0,12,,,,,5,,,50,100
35680,note_off,,,,,64,0,7,,,,,0,,,69,100
35712,note_on,,,,,64,0,12,,,,,5,,,50,85
35712,note_on,,,,,64,0,15,,,,,7,,,50,100
35712,note_on,,,,,32,0,7,,,,,0,,,83,100
35712,note_on,,,,,64,0,13,,,,,6,,,38,85
35712,note_on,,,,,0,0,14,,,,,7,,,66,100
35712,note_on,,,,,64,0,14,,,,,7,,,71,100
35804,note_off,,,,,92,0,7,,,,,0,,,83,100
35808,note_on,,,,,4,0,7,,,,,0,,,78,100
35840,note_off,,,,,0,0,14,,,,,7,,,66,100
35840,note_off,,,,,128,0,12,,,,,5,,,50,100
35840,note_off,,,,,128,0,15,,,,,7,,,50,100
35840,note_off,,,,,128,0,13,,,,,6,,,38,100
35840,note_off,,,,,128,0,14,,,,,7,,,71,100
35900,note_off,,,,,92,0,7,,,,,0,,,78,100
35904,note_on,,,,,4,0,7,,,,,0,,,74,100
35904,note_on,,,,,64,0,14,,,,,7,,,71,100
35904,note_on,,,,,0,0,14,,,,,7,,,66,100
35904,note_on,,,,,64,0,12,,,,,5,,,50,85
35904,note_on,,,,,64,0,13,,,,,6,,,38,85
35904,note_on,,,,,64,0,15,,,,,7,,,50,100
35968,note_off,,,,,64,0,7,,,,,0,,,74,100
36000,note_on,,,,,32,0,7,,,,,0,,,83,100
36032,note_off,,,,,0,0,14,,,,,7,,,66,100
36032,note_off,,,,,128,0,14,,,,,7,,,71,100
36032,note_off,,,,,128,0,15,,,,,7,,,50,100
36032,note_off,,,,,128,0,13,,,,,6,,,38,100
36032,note_off,,,,,128,0,12,,,,,5,,,50,100
36064,note_off,,,,,64,0,7,,,,,0,,,83,100
36096,note_on,,,,,32,0,7,,,,,0,,,78,100
36096,note_on,,,,,0,0,14,,,,,7,,,66,100
36096,note_on,,,,,64,0,15,,,,,7,,,50,100
36096,note_on,,,,,64,0,14,,,,,7,,,71,100
36096,note_on,,,,,64,0,13,,,,,6,,,38,85
36096,note_on,,,,,64,0,12,,,,,5,,,50,85
36160,note_off,,,,,64,0,7,,,,,0,,,78,100
36192,note_on,,,,,32,0,7,,,,,0,,,74,100
36224,note_off,,,,,0,0,14,,,,,7,,,66,100
36224,note_off,,,,,128,0,12,,,,,5,,,50,100
36224,note_off,,,,,128,0,13,,,,,6,,,38,100
36224,note_off,,,,,128,0,15,,,,,7,,,50,100
36224,note_off,,,,,128,0,14,,,,,7,,,71,100
36256,note_off,,,,,64,0,7,,,,,0,,,74,100
36288,note_on,,,,,64,0,15,,,,,7,,,50,100
36288,note_on,,,,,64,0,13,,,,,6,,,38,85
36288,note_on,,,,,64,0,12,,,,,5,,,50,85
36288,note_on,,,,,64,0,14,,,,,7,,,71,100
36288,note_on,,,,,0,0,14,,,,,7,,,66,100
36288,note_on,,,,,32,0,7,,,,,0,,,83,100
36380,note_off,,,,,92,0,7,,,,,0,,,83,100
36384,note_on,,,,,4,0,7,,,,,0,,,78,100
36416,note_off,,,,,128,0,12,,,,,5,,,50,100
36416,note_off,,,,,0,0,14,,,,,7,,,66,100
36416,note_off,,,,,128,0,13,,,,,6,,,38,100
36416,note_off,,,,,128,0,14,,,,,7,,,71,100
36416,note_off,,,,,128,0,15,,,,,7,,,50,100
36476,note_off,,,,,92,0,7,,,,,0,,,78,100
36480,note_on,,,,,64,0,15,,,,,7,,,50,100
36480,note_on,,,,,64,0,13,,,,,6,,,38,85
36480,note_on,,,,,64,0,12,,,,,5,,,50,85
36480,note_on,,,,,64,0,14,,,,,7,,,71,100
36480,note_on,,,,,0,0,14,,,,,7,,,66,100
36480,note_on,,,,,4,0,7,,,,,0,,,74,100
36544,note_off,,,,,64,0,7,,,,,0,,,74,100
36576,note_on,,,,,32,0,7,,,,,0,,,83,100
36608,note_off,,,,,128,0,14,,,,,7,,,71,100
36608,note_off,,,,,0,0,14,,,,,7,,,66,100
36608,note_off,,,,,128,0,12,,,,,5,,,50,100
36608,note_off,,,,,128,0,15,,,,,7,,,50,100
36608,note_off,,,,,128,0,13,,,,,6,,,38,100
36640,note_off,,,,,64,0,7,,,,,0,,,83,100
36672,note_on,,,,,0,0,14,,,,,7,,,66,100
36672,note_on,,,,,64,0,14,,,,,7,,,71,100
36672,note_on,,,,,64,0,12,,,,,5,,,50,85
36672,note_on,,,,,64,0,13,,,,,6,,,38,85
36672,note_on,,,,,64,0,15,,,,,7,,,50,100
36672,note_on,,,,,32,0,7,,,,,0,,,78,100
36736,note_off,,,,,64,0,7,,,,,0,,,78,100
36768,note_on,,,,,32,0,7,,,,,0,,,74,100
36800,note_off,,,,,128,0,13,,,,,6,,,38,100
36800,note_off,,,,,0,0,14,,,,,7,,,66,100
36800,note_off,,,,,128,0,14,,,,,7,,,71,100
36800,note_off,,,,,128,0,15,,,,,7,,,50,100
36800,note_off,,,,,128,0,12,,,,,5,,,50,100
36832,note_off,,,,,64,0,7,,,,,0,,,74,100
36864,note_on,,,,,0,0,14,,,,,7,,,65,100
36864,note_on,,,,,64,0,14,,,,,7,,,71,100
36864,note_on,,,,,64,0,12,,,,,5,,,49,85
36864,note_on,,,,,64,0,15,,,,,7,,,49,100
36864,note_on,,,,,32,0,7,,,,,0,,,83,100
36864,note_on,,,,,64,0,13,,,,,6,,,37,85
36956,note_off,,,,,92,0,7,,,,,0,,,83,100
36960,note_on,,,,,4,0,7,,,,,0,,,77,100
36992,note_off,,,,,128,0,15,,,,,7,,,49,100
36992,note_off,,,,,0,0,14,,,,,7,,,65,100
36992,note_off,,,,,128,0,13,,,,,6,,,37,100
36992,note_off,,,,,128,0,14,,,,,7,,,71,100
36992,note_off,,,,,128,0,12,,,,,5,,,49,100
37052,note_off,,,,,92,0,7,,,,,0,,,77,100
37056,note_on,,,,,64,0,12,,,,,5,,,49,85
37056,note_on,,,,,64,0,13,,,,,6,,,37,85
37056,note_on,,,,,64,0,15,,,,,7,,,49,100
37056,note_on,,,,,64,0,14,,,,,7,,,71,100
37056,note_on,,,,,0,0,14,,,,,7,,,65,100
37056,note_on,,,,,4,0,7,,,,,0,,,73,100
37120,note_off,,,,,64,0,7,,,,,0,,,73,100
37152,note_on,,,,,32,0,7,,,,,0,,,83,100
37184,note_off,,,,,128,0,13,,,,,6,,,37,100
37184,note_off,,,,,128,0,14,,,,,7,,,71,100
37184,note_off,,,,,128,0,15,,,,,7,,,49,100
37184,note_off,,,,,0,0,14,,,,,7,,,65,100
37184,note_off,,,,,128,0,12,,,,,5,,,49,100
37216,note_off,,,,,64,0,7,,,,,0,,,83,100
37248,note_on,,,,,32,0,7,,,,,0,,,77,100
37248,note_on,,,,,64,0,12,,,,,5,,,49,85
37248,note_on,,,,,0,0,14,,,,,7,,,65,100
37248,note_on,,,,,64,0,14,,,,,7,,,71,100
37248,note_on,,,,,64,0,13,,,,,6,,,37,85
37248,note_on,,,,,64,0,15,,,,,7,,,49,100
37312,note_off,,,,,64,0,7,,,,,0,,,77,100
37344,note_on,,,,,32,0,7,,,,,0,,,73,100
37376,note_off,,,,,128,0,12,,,,,5,,,49,100
37376,note_off,,,,,128,0,15,,,,,7,,,49,100
37376,note_off,,,,,128,0,13,,,,,6,,,37,100
37376,note_off,,,,,0,0,14,,,,,7,,,65,100
37376,note_off,,,,,128,0,14,,,,,7,,,71,100
37408,note_off,,,,,64,0,7,,,,,0,,,73,100
37440,note_on,,,,,0,0,14,,,,,7,,,65,100
37440,note_on,,,,,64,0,14,,,,,7,,,71,100
37440,note_on,,,,,64,0,13,,,,,6,,,37,85
37440,note_on,,,,,64,0,15,,,,,7,,,49,100
37440,note_on,,,,,64,0,12,,,,,5,,,49,85
37440,note_on,,,,,32,0,7,,,,,0,,,83,100
37532,note_off,,,,,92,0,7,,,,,0,,,83,100
37536,note_on,,,,,4,0,7,,,,,0,,,77,100
37568,note_off,,,,,128,0,15,,,,,7,,,49,100
37568,note_off,,,,,128,0,13,,,,,6,,,37,100
37568,note_off,,,,,128,0,12,,,,,5,,,49,100
37568,note_off,,,,,128,0,14,,,,,7,,,71,100
37568,note_off,,,,,0,0,14,,,,,7,,,65,100
37628,note_off,,,,,92,0,7,,,,,0,,,77,100
37632,note_on,,,,,4,0,7,,,,,0,,,73,100
37632,note_on,,,,,64,0,15,,,,,7,,,49,100
37632,note_on,,,,,64,0,12,,,,,5,,,49,85
37632,note_on,,,,,0,0,14,,,,,7,,,65,100
37632,note_on,,,,,64,0,14,,,,,7,,,71,100
37632,note_on,,,,,64,0,13,,,,,6,,,37,85
37696,note_off,,,,,64,0,7,,,,,0,,,73,100
37728,note_on,,,,,32,0,7,,,,,0,,,83,100
37760,note_off,,,,,128,0,12,,,,,5,,,49,100
37760,note_off,,,,,128,0,14,,,,,7,,,71,100
37760,note_off,,,,,0,0,14,,,,,7,,,65,100
37760,note_off,,,,,128,0,15,,,,,7,,,49,100
37760,note_off,,,,,128,0,13,,,,,6,,,37,100
37792,note_off,,,,,64,0,7,,,,,0,,,83,100
37824,note_on,,,,,32,0,7,,,,,0,,,77,100
37824,note_on,,,,,64,0,12,,,,,5,,,49,85
37824,note_on,,,,,0,0,14,,,,,7,,,65,100
37824,note_on,,,,,64,0,14,,,,,7,,,71,100
37824,note_on,,,,,64,0,15,,,,,7,,,49,100
37824,note_on,,,,,64,0,13,,,,,6,,,37,85
37888,note_off,,,,,64,0,7,,,,,0,,,77,100
37920,note_on,,,,,32,0,7,,,,,0,,,73,100
37952,note_off,,,,,128,0,13,,,,,6,,,37,100
37952,note_off,,,,,128,0,15,,,,,7,,,49,100
37952,note_off,,,,,128,0,14,,,,,7,,,71,100
37952,note_off,,,,,0,0,14,,,,,7,,,65,100
37952,note_off,,,,,128,0,12,,,,,5,,,49,100
37984,note_off,,,,,64,0,7,,,,,0,,,73,100
38016,note_on,,,,,32,0,7,,,,,0,,,81,100
38016,note_on,,,,,64,0,13,,,,,6,,,42,85
38016,note_on,,,,,0,0,14,,,,,7,,,73,100
38016,note_on,,,,,64,0,14,,,,,7,,,69,100
38016,note_on,,,,,64,0,12,,,,,5,,,54,85
38016,note_on,,,,,64,0,15,,,,,7,,,54,100
38108,note_off,,,,,92,0,7,,,,,0,,,81,100
38112,note_on,,,,,4,0,7,,,,,0,,,78,100
38144,note_off,,,,,128,0,15,,,,,7,,,54,100
38144,note_off,,,,,0,0,14,,,,,7,,,73,100
38144,note_off,,,,,128,0,14,,,,,7,,,69,100
38144,note_off,,,,,128,0,13,,,,,6,,,42,100
38144,note_off,,,,,128,0,12,,,,,5,,,54,100
38204,note_off,,,,,92,0,7,,,,,0,,,78,100
38208,note_on,,,,,0,0,14,,,,,7,,,73,100
38208,note_on,,,,,64,0,14,,,,,7,,,69,100
38208,note_on,,,,,64,0,13,,,,,6,,,42,85
38208,note_on,,,,,64,0,12,,,,,5,,,54,85
38208,note_on,,,,,4,0,7,,,,,0,,,73,100
38208,note_on,,,,,64,0,15,,,,,7,,,54,100
38272,note_off,,,,,64,0,7,,,,,0,,,73,100
38304,note_on,,,,,32,0,7,,,,,0,,,81,100
38336,note_off,,,,,128,0,14,,,,,7,,,69,100
38336,note_off,,,,,128,0,12,,,,,5,,,54,100
38336,note_off,,,,,0,0,14,,,,,7,,,73,100
38336,note_off,,,,,128,0,15,,,,,7,,,54,100
38336,note_off,,,,,128,0,13,,,,,6,,,42,100
38368,note_off,,,,,64,0,7,,,,,0,,,81,100
38400,note_on,,,,,64,0,12,,,,,5,,,54,85
38400,note_on,,,,,64,0,13,,,,,6,,,42,85
38400,note_on,,,,,0,0,14,,,,,7,,,73,100
38400,note_on,,,,,64,0,15,,,,,7,,,54,100
38400,note_on,,,,,32,0,7,,,,,0,,,78,100
38400,note_on,,,,,64,0,14,,,,,7,,,69,100
38464,note_off,,,,,64,0,7,,,,,0,,,78,100
38496,note_on,,,,,32,0,7,,,,,0,,,73,100
38528,note_off,,,,,128,0,13,,,,,6,,,42,100
38528,note_off,,,,,128,0,15,,,,,7,,,54,100
38528,note_off,,,,,128,0,14,,,,,7,,,69,100
38528,note_off,,,,,128,0,12,,,,,5,,,54,100
38528,note_off,,,,,0,0,14,,,,,7,,,73,100
38560,note_off,,,,,64,0,7,,,,,0,,,73,100
38592,note_on,,,,,32,0,7,,,,,0,,,81,100
38592,note_on,,,,,64,0,14,,,,,7,,,69,100
38592,note_on,,,,,64,0,12,,,,,5,,,54,85
38592,note_on,,,,,64,0,13,,,,,6,,,42,85
38592,note_on,,,,,64,0,15,,,,,7,,,54,100
38592,note_on,,,,,0,0,14,,,,,7,,,73,100
38684,note_off,,,,,92,0,7,,,,,0,,,81,100
38688,note_on,,,,,4,0,7,,,,,0,,,78,100
38720,note_off,,,,,0,0,14,,,,,7,,,73,100
38720,note_off,,,,,128,0,14,,,,,7,,,69,100
38720,note_off,,,,,128,0,13,,,,,6,,,42,100
38720,note_off,,,,,128,0,15,,,,,7,,,54,100
38720,note_off,,,,,128,0,12,,,,,5,,,54,100
38780,note_off,,,,,92,0,7,,,,,0,,,78,100
38784,note_on,,,,,64,0,12,,,,,5,,,54,85
38784,note_on,,,,,64,0,13,,,,,6,,,42,85
38784,note_on,,,,,4,0,7,,,,,0,,,73,100
38784,note_on,,,,,64,0,15,,,,,7,,,54,100
38784,note_on,,,,,64,0,14,,,,,7,,,69,100
38784,note_on,,,,,0,0,14,,,,,7,,,73,100
38848,note_off,,,,,64,0,7,,,,,0,,,73,100
38880,note_on,,,,,32,0,7,,,,,0,,,81,100
38912,note_off,,,,,128,0,12,,,,,5,,,54,100
38912,note_off,,,,,128,0,13,,,,,6,,,42,100
38912,note_off,,,,,128,0,15,,,,,7,,,54,100
38912,note_off,,,,,128,0,14,,,,,7,,,69,100
38912,note_off,,,,,0,0,14,,,,,7,,,73,100
38944,note_off,,,,,64,0,7,,,,,0,,,81,100
38976,note_on,,,,,64,0,13,,,,,6,,,42,85
38976,note_on,,,,,64,0,12,,,,,5,,,54,85
38976,note_on,,,,,32,0,7,,,,,0,,,78,100
38976,note_on,,,,,0,0,14,,,,,7,,,73,100
38976,note_on,,,,,64,0,14,,,,,7,,,69,100
38976,note_on,,,,,64,0,15,,,,,7,,,54,100
39040,note_off,,,,,64,0,7,,,,,0,,,78,100
39072,note_on,,,,,32,0,7,,,,,0,,,73,100
39104,note_off,,,,,128,0,14,,,,,7,,,69,100
39104,note_off,,,,,128,0,13,,,,,6,,,42,100
39104,note_off,,,,,128,0,12,,,,,5,,,54,100
39104,note_off,,,,,0,0,14,,,,,7,,,73,100
39104,note_off,,,,,128,0,15,,,,,7,,,54,100
39136,note_off,,,,,64,0,7,,,,,0,,,73,100
39168,note_on,,,,,64,0,13,,,,,6,,,49,85
39168,note_on,,,,,64,0,15,,,,,7,,,61,100
39168,note_on,,,,,32,0,7,,,,,0,,,80,100
39168,note_on,,,,,64,0,14,,,,,7,,,68,100
39168,note_on,,,,,64,0,12,,,,,5,,,61,85
39168,note_on,,,,,0,0,14,,,,,7,,,66,100
39260,note_off,,,,,92,0,7,,,,,0,,,80,100
39264,note_on,,,,,4,0,7,,,,,0,,,78,100
39296,note_off,,,,,128,0,15,,,,,7,,,61,100
39296,note_off,,,,,128,0,14,,,,,7,,,68,100
39296,note_off,,,,,128,0,13,,,,,6,,,49,100
39296,note_off,,,,,128,0,12,,,,,5,,,61,100
39296,note_off,,,,,0,0,14,,,,,7,,,66,100
39356,note_off,,,,,92,0,7,,,,,0,,,78,100
39360,note_on,,,,,64,0,14,,,,,7,,,68,100
39360,note_on,,,,,0,0,14,,,,,7,,,66,100
39360,note_on,,,,,64,0,12,,,,,5,,,61,85
39360,note_on,,,,,64,0,15,,,,,7,,,61,100
39360,note_on,,,,,64,0,13,,,,,6,,,49,85
39360,note_on,,,,,4,0,7,,,,,0,,,73,100
39424,note_off,,,,,64,0,7,,,,,0,,,73,100
39456,note_on,,,,,32,0,7,,,,,0,,,80,100
39488,note_off,,,,,128,0,15,,,,,7,,,61,100
39488,note_off,,,,,128,0,13,,,,,6,,,49,100
39488,note_off,,,,,128,0,14,,,,,7,,,68,100
39488,note_off,,,,,128,0,12,,,,,5,,,61,100
39488,note_off,,,,,0,0,14,,,,,7,,,66,100
39520,note_off,,,,,64,0,7,,,,,0,,,80,100
39552,note_on,,,,,64,0,15,,,,,7,,,61,100
39552,note_on,,,,,64,0,12,,,,,5,,,61,85
39552,note_on,,,,,64,0,13,,,,,6,,,49,85
39552,note_on,,,,,64,0,14,,,,,7,,,68,100
39552,note_on,,,,,0,0,14,,,,,7,,,66,100
39552,note_on,,,,,32,0,7,,,,,0,,,78,100
39616,note_off,,,,,64,0,7,,,,,0,,,78,100
39648,note_on,,,,,32,0,7,,,,,0,,,73,100
39680,note_off,,,,,128,0,12,,,,,5,,,61,100
39680,note_off,,,,,128,0,13,,,,,6,,,49,100
39680,note_off,,,,,0,0,14,,,,,7,,,66,100
39680,note_off,,,,,128,0,14,,,,,7,,,68,100
39680,note_off,,,,,128,0,15,,,,,7,,,61,100
39712,note_off,,,,,64,0,7,,,,,0,,,73,100
39744,note_on,,,,,64,0,13,,,,,6,,,49,85
39744,note_on,,,,,32,0,7,,,,,0,,,80,100
39744,note_on,,,,,64,0,15,,,,,7,,,61,100
39744,note_on,,,,,64,0,14,,,,,7,,,68,100
39744,note_on,,,,,0,0,14,,,,,7,,,66,100
39744,note_on,,,,,64,0,12,,,,,5,,,61,85
39836,note_off,,,,,92,0,7,,,,,0,,,80,100
39840,note_on,,,,,4,0,7,,,,,0,,,78,100
39872,note_off,,,,,128,0,15,,,,,7,,,61,100
39872,note_off,,,,,128,0,13,,,,,6,,,49,100
39872,note_off,,,,,128,0,14,,,,,7,,,68,100
39872,note_off,,,,,0,0,14,,,,,7,,,66,100
39872,note_off,,,,,128,0,12,,,,,5,,,61,100
39932,note_off,,,,,92,0,7,,,,,0,,,78,100
39936,note_on,,,,,64,0,12,,,,,5,,,61,85
39936,note_on,,,,,0,0,14,,,,,7,,,66,100
39936,note_on,,,,,64,0,14,,,,,7,,,68,100
39936,note_on,,,,,4,0,7,,,,,0,,,73,100
39936,note_on,,,,,64,0,13,,,,,6,,,49,85
39936,note_on,,,,,64,0,15,,,,,7,,,61,100
40000,note_off,,,,,64,0,7,,,,,0,,,73,100
40032,note_on,,,,,32,0,7,,,,,0,,,80,100
40064,note_off,,,,,128,0,15,,,,,7,,,61,100
40064,note_off,,,,,0,0,14,,,,,7,,,66,100
40064,note_off,,,,,128,0,14,,,,,7,,,68,100
40064,note_off,,,,,128,0,13,,,,,6,,,49,100
40064,note_off,,,,,128,0,12,,,,,5,,,61,100
40096,note_off,,,,,64,0,7,,,,,0,,,80,100
40128,note_on,,,,,64,0,13,,,,,6,,,49,85
40128,note_on,,,,,64,0,12,,,,,5,,,61,85
40128,note_on,,,,,64,0,15,,,,,7,,,61,100
40128,note_on,,,,,32,0,7,,,,,0,,,78,100
40128,note_on,,,,,0,0,14,,,,,7,,,66,100
40128,note_on,,,,,64,0,14,,,,,7,,,68,100
40192,note_off,,,,,64,0,7,,,,,0,,,78,100
40224,note_on,,,,,32,0,7,,,,,0,,,73,100
40256,note_off,,,,,128,0,15,,,,,7,,,61,100
40256,note_off,,,,,128,0,14,,,,,7,,,68,100
40256,note_off,,,,,0,0,14,,,,,7,,,66,100
40256,note_off,,,,,128,0,13,,,,,6,,,49,100
40256,note_off,,,,,128,0,12,,,,,5,,,61,100
40288,note_off,,,,,64,0,7,,,,,0,,,73,100
40320,note_on,,,,,32,0,7,,,,,0,,,80,100
40320,note_on,,,,,64,0,15,,,,,7,,,49,100
40320,note_on,,,,,0,0,14,,,,,7,,,65,100
40320,note_on,,,,,64,0,13,,,,,6,,,37,85
40320,note_on,,,,,64,0,12,,,,,5,,,49,85
40320,note_on,,,,,64,0,14,,,,,7,,,68,100
40412,note_off,,,,,92,0,7,,,,,0,,,80,100
40416,note_on,,,,,4,0,7,,,,,0,,,77,100
40448,note_off,,,,,128,0,14,,,,,7,,,68,100
40448,note_off,,,,,128,0,13,,,,,6,,,37,100
40448,note_off,,,,,0,0,14,,,,,7,,,65,100
40448,note_off,,,,,128,0,12,,,,,5,,,49,100
40448,note_off,,,,,128,0,15,,,,,7,,,49,100
40508,note_off,,,,,92,0,7,,,,,0,,,77,100
40512,note_on,,,,,64,0,13,,,,,6,,,37,85
40512,note_on,,,,,64,0,12,,,,,5,,,49,85
40512,note_on,,,,,4,0,7,,,,,0,,,73,100
40512,note_on,,,,,0,0,14,,,,,7,,,65,100
40512,note_on,,,,,64,0,14,,,,,7,,,68,100
40512,note_on,,,,,64,0,15,,,,,7,,,49,100
40576,note_off,,,,,64,0,7,,,,,0,,,73,100
40608,note_on,,,,,32,0,7,,,,,0,,,80,100
40640,note_off,,,,,128,0,14,,,,,7,,,68,100
40640,note_off,,,,,0,0,14,,,,,7,,,65,100
40640,note_off,,,,,128,0,15,,,,,7,,,49,100
40640,note_off,,,,,128,0,13,,,,,6,,,37,100
40640,note_off,,,,,128,0,12,,,,,5,,,49,100
40672,note_off,,,,,64,0,7,,,,,0,,,80,100
40704,note_on,,,,,32,0,7,,,,,0,,,77,100
40704,note_on,,,,,64,0,14,,,,,7,,,68,100
40704,note_on,,,,,0,0,14,,,,,7,,,65,100
40704,note_on,,,,,64,0,13,,,,,6,,,37,85
40704,note_on,,,,,64,0,15,,,,,7,,,49,100
40704,note_on,,,,,64,0,12,,,,,5,,,49,85
40768,note_off,,,,,64,0,7,,,,,0,,,77,100
40800,note_on,,,,,32,0,7,,,,,0,,,73,100
40832,note_off,,,,,128,0,15,,,,,7,,,49,100
40832,note_off,,,,,0,0,14,,,,,7,,,65,100
40832,note_off,,,,,128,0,14,,,,,7,,,68,100
40832,note_off,,,,,128,0,12,,,,,5,,,49,100
40832,note_off,,,,,128,0,13,,,,,6,,,37,100
40864,note_off,,,,,64,0,7,,,,,0,,,73,100
40896,note_on,,,,,64,0,12,,,,,5,,,49,85
40896,note_on,,,,,64,0,13,,,,,6,,,37,85
40896,note_on,,,,,32,0,7,,,,,0,,,80,100
40896,note_on,,,,,64,0,15,,,,,7,,,49,100
40896,note_on,,,,,64,0,14,,,,,7,,,68,100
40896,note_on,,,,,0,0,14,,,,,7,,,65,100
40988,note_off,,,,,92,0,7,,,,,0,,,80,100
40992,note_on,,,,,4,0,7,,,,,0,,,77,100
41024,note_off,,,,,128,0,14,,,,,7,,,68,100
41024,note_off,,,,,128,0,15,,,,,7,,,49,100
41024,note_off,,,,,128,0,12,,,,,5,,,49,100
41024,note_off,,,,,0,0,14,,,,,7,,,65,100
41024,note_off,,,,,128,0,13,,,,,6,,,37,100
41084,note_off,,,,,92,0,7,,,,,0,,,77,100
41088,note_on,,,,,64,0,13,,,,,6,,,37,85
41088,note_on,,,,,64,0,15,,,,,7,,,49,100
41088,note_on,,,,,0,0,14,,,,,7,,,65,100
41088,note_on,,,,,4,0,7,,,,,0,,,73,100
41088,note_on,,,,,64,0,14,,,,,7,,,68,100
41088,note_on,,,,,64,0,12,,,,,5,,,49,85
41152,note_off,,,,,64,0,7,,,,,0,,,73,100
41184,note_on,,,,,32,0,7,,,,,0,,,80,100
41216,note_off,,,,,128,0,14,,,,,7,,,68,100
41216,note_off,,,,,128,0,13,,,,,6,,,37,100
41216,note_off,,,,,0,0,14,,,,,7,,,65,100
41216,note_off,,,,,128,0,12,,,,,5,,,49,100
41216,note_off,,,,,128,0,15,,,,,7,,,49,100
41248,note_off,,,,,64,0,7,,,,,0,,,80,100
41280,note_on,,,,,32,0,7,,,,,0,,,77,100
41280,note_on,,,,,64,0,15,,,,,7,,,49,100
41280,note_on,,,,,0,0,14,,,,,7,,,65,100
41280,note_on,,,,,64,0,13,,,,,6,,,37,85
41280,note_on,,,,,64,0,12,,,,,5,,,49,85
41280,note_on,,,,,64,0,14,,,,,7,,,68,100
41344,note_off,,,,,64,0,7,,,,,0,,,77,100
41376,note_on,,,,,32,0,7,,,,,0,,,73,100
41408,note_off,,,,,128,0,12,,,,,5,,,49,100
41408,note_off,,,,,128,0,14,,,,,7,,,68,100
41408,note_off,,,,,128,0,15,,,,,7,,,49,100
41408,note_off,,,,,128,0,13,,,,,6,,,37,100
41408,note_off,,,,,0,0,14,,,,,7,,,65,100
41440,note_off,,,,,64,0,7,,,,,0,,,73,100
41472,note_on,,,,,64,0,15,,,,,7,,,54,100
41472,note_on,,,,,64,0,12,,,,,5,,,54,100
41472,note_on,,,,,64,0,14,,,,,7,,,70,100
41472,note_on,,,,,0,0,14,,,,,7,,,73,100
41472,note_on,,,,,32,0,7,,,,,0,,,78,100
41472,note_on,,,,,64,0,13,,,,,6,,,42,100
41600,note_off,,,,,128,0,13,,,,,6,,,42,100
41600,note_off,,,,,128,0,12,,,,,5,,,54,100
41600,note_off,,,,,128,0,7,,,,,0,,,78,100
41600,note_off,,,,,0,0,14,,,,,7,,,73,100
41600,note_off,,,,,128,0,14,,,,,7,,,70,100
41600,note_off,,,,,128,0,15,,,,,7,,,54,100
41664,note_on,,,,,64,0,7,,,,,0,,,66,100
41664,note_on,,,,,0,0,14,,,,,7,,,73,100
41664,note_on,,,,,64,0,14,,,,,7,,,70,100
41664,note_on,,,,,64,0,13,,,,,6,,,42,96
41664,note_on,,,,,64,0,12,,,,,5,,,54,96
41664,note_on,,,,,64,0,15,,,,,7,,,54,100
41792,note_off,,,,,128,0,14,,,,,7,,,70,100
41792,note_off,,,,,0,0,14,,,,,7,,,73,100
41792,note_off,,,,,128,0,15,,,,,7,,,54,100
41792,note_off,,,,,128,0,7,,,,,0,,,66,100
41792,note_off,,,,,128,0,13,,,,,6,,,42,100
41792,note_off,,,,,128,0,12,,,,,5,,,54,100
41852,program_change,,,,,60,0,7,,,,,0,48,,,
41856,note_on,,,,,17408,0,8,,,,,1,,,71,91
41856,note_on,,,,,64,0,15,,,,,7,,,54,100
41856,note_on,,,,,17408,0,10,,,,,3,,,71,91
41856,note_on,,,,,0,0,14,,,,,7,,,74,100
41856,note_on,,,,,17408,0,9,,,,,2,,,74,91
41856,note_on,,,,,17408,0,11,,,,,4,,,66,91
41856,note_on,,,,,4,0,7,,,,,0,,,78,91
41856,note_on,,,,,64,0,13,,,,,6,,,42,91
41856,note_on,,,,,64,0,14,,,,,7,,,71,100
41856,note_on,,,,,64,0,12,,,,,5,,,54,91
41984,note_off,,,,,128,0,7,,,,,0,,,78,100
41984,note_off,,,,,128,0,14,,,,,7,,,71,100
41984,note_off,,,,,0,0,14,,,,,7,,,74,100
41984,note_off,,,,,128,0,12,,,,,5,,,54,100
41984,note_off,,,,,128,0,8,,,,,1,,,71,100
41984,note_off,,,,,128,0,15,,,,,7,,,54,100
41984,note_off,,,,,128,0,10,,,,,3,,,71,100
41984,note_off,,,,,128,0,9,,,,,2,,,74,100
41984,note_off,,,,,128,0,11,,,,,4,,,66,100
41984,note_off,,,,,128,0,13,,,,,6,,,42,100
42048,note_on,,,,,64,0,14,,,,,7,,,73,100
42048,note_on,,,,,64,0,10,,,,,3,,,70,86
42048,note_on,,,,,64,0,9,,,,,2,,,73,86
42048,note_on,,,,,64,0,11,,,,,4,,,66,86
42048,note_on,,,,,64,0,8,,,,,1,,,73,86
42048,note_on,,,,,0,0,14,,,,,7,,,76,100
42048,note_on,,,,,64,0,12,,,,,5,,,54,86
42048,note_on,,,,,64,0,13,,,,,6,,,42,86
42048,note_on,,,,,64,0,7,,,,,0,,,76,86
42048,note_on,,,,,64,0,15,,,,,7,,,54,100
42112,note_off,,,,,64,0,7,,,,,0,,,76,100
42144,note_on,,,,,32,0,7,,,,,0,,,74,85
42176,note_off,,,,,128,0,14,,,,,7,,,73,100
42176,note_off,,,,,128,0,13,,,,,6,,,42,100
42176,note_off,,,,,128,0,9,,,,,2,,,73,100
42176,note_off,,,,,128,0,10,,,,,3,,,70,100
42176,note_off,,,,,0,0,14,,,,,7,,,76,100
42176,note_off,,,,,128,0,8,,,,,1,,,73,100
42176,note_off,,,,,128,0,15,,,,,7,,,54,100
42176,note_off,,,,,128,0,11,,,,,4,,,66,100
42176,note_off,,,,,128,0,12,,,,,5,,,54,100
42208,note_off,,,,,64,0,7,,,,,0,,,74,100
42240,note_on,,,,,64,0,14,,,,,7,,,73,100
42240,note_on,,,,,64,0,11,,,,,4,,,66,85
42240,note_on,,,,,0,0,11,,,,,4,,,58,85
42240,note_on,,,,,0,0,14,,,,,7,,,76,100
42240,note_on,,,,,64,0,13,,,,,6,,,42,85
42240,note_on,,,,,32,0,7,,,,,0,,,76,85
42240,note_on,,,,,64,0,9,,,,,2,,,78,85
42240,note_on,,,,,64,0,8,,,,,1,,,73,85
42240,note_on,,,,,64,0,15,,,,,7,,,54,100
42240,note_on,,,,,64,0,12,,,,,5,,,54,85
42304,note_off,,,,,64,0,7,,,,,0,,,76,100
42336,note_on,,,,,32,0,7,,,,,0,,,78,85
42336,note_on,,,,,160,0,10,,,,,3,,,73,85
42368,note_off,,,,,128,0,13,,,,,6,,,42,100
42368,note_off,,,,,128,0,9,,,,,2,,,78,100
42368,note_off,,,,,128,0,11,,,,,4,,,66,100
42368,note_off,,,,,128,0,12,,,,,5,,,54,100
42368,note_off,,,,,0,0,11,,,,,4,,,58,100
42368,note_off,,,,,128,0,14,,,,,7,,,73,100
42368,note_off,,,,,0,0,14,,,,,7,,,76,100
42368,note_off,,,,,128,0,8,,,,,1,,,73,100
42368,note_off,,,,,128,0,15,,,,,7,,,54,100
42400,note_off,,,,,64,0,7,,,,,0,,,78,100
42400,note_off,,,,,64,0,10,,,,,3,,,73,100
42432,note_on,,,,,64,0,12,,,,,5,,,54,85
42432,note_on,,,,,0,0,11,,,,,4,,,66,85
42432,note_on,,,,,64,0,8,,,,,1,,,73,85
42432,note_on,,,,,64,0,13,,,,,6,,,42,85
42432,note_on,,,,,64,0,15,,,,,7,,,54,100
42432,note_on,,,,,64,0,11,,,,,4,,,70,85
42432,note_on,,,,,0,0,14,,,,,7,,,76,100
42432,note_on,,,,,64,0,14,,,,,7,,,73,100
42432,note_on,,,,,32,0,7,,,,,0,,,76,85
42432,note_on,,,,,32,0,10,,,,,3,,,76,85
42496,note_off,,,,,64,0,10,,,,,3,,,76,100
42528,note_on,,,,,32,0,10,,,,,3,,,73,85
42560,note_off,,,,,128,0,13,,,,,6,,,42,100
42560,note_off,,,,,128,0,7,,,,,0,,,76,100
42560,note_off,,,,,128,0,12,,,,,5,,,54,100
42560,note_off,,,,,128,0,8,,,,,1,,,73,100
42560,note_off,,,,,128,0,15,,,,,7,,,54,100
42560,note_off,,,,,128,0,14,,,,,7,,,73,100
42560,note_off,,,,,0,0,14,,,,,7,,,76,100
42560,note_off,,,,,128,0,11,,,,,4,,,70,100
42560,note_off,,,,,0,0,11,,,,,4,,,66,100
42592,note_off,,,,,64,0,10,,,,,3,,,73,100
42624,note_on,,,,,64,0,13,,,,,6,,,42,85
42624,note_on,,,,,64,0,12,,,,,5,,,54,85
42624,note_on,,,,,256,0,9,,,,,2,,,71,85
42624,note_on,,,,,64,0,14,,,,,7,,,71,100
42624,note_on,,,,,64,0,8,,,,,1,,,71,85
42624,note_on,,,,,64,0,15,,,,,7,,,54,100
42624,note_on,,,,,0,0,14,,,,,7,,,74,100
42624,note_on,,,,,64,0,7,,,,,0,,,74,85
42624,note_on,,,,,32,0,10,,,,,3,,,66,85
42624,note_on,,,,,64,0,11,,,,,4,,,66,85
42688,note_off,,,,,64,0,7,,,,,0,,,74,100
42720,note_on,,,,,32,0,7,,,,,0,,,73,85
42752,note_off,,,,,128,0,8,,,,,1,,,71,100
42752,note_off,,,,,128,0,14,,,,,7,,,71,100
42752,note_off,,,,,128,0,9,,,,,2,,,71,100
42752,note_off,,,,,128,0,11,,,,,4,,,66,100
42752,note_off,,,,,128,0,10,,,,,3,,,66,100
42752,note_off,,,,,128,0,12,,,,,5,,,54,100
42752,note_off,,,,,128,0,15,,,,,7,,,54,100
42752,note_off,,,,,0,0,14,,,,,7,,,74,100
42752,note_off,,,,,128,0,13,,,,,6,,,42,100
42784,note_off,,,,,64,0,7,,,,,0,,,73,100
42816,note_on,,,,,64,0,9,,,,,2,,,78,85
42816,note_on,,,,,64,0,12,,,,,5,,,54,85
42816,note_on,,,,,64,0,14,,,,,7,,,71,100
42816,note_on,,,,,0,0,14,,,,,7,,,74,100
42816,note_on,,,,,64,0,11,,,,,4,,,66,85
42816,note_on,,,,,64,0,8,,,,,1,,,71,85
42816,note_on,,,,,64,0,15,,,,,7,,,54,100
42816,note_on,,,,,64,0,13,,,,,6,,,42,85
42816,note_on,,,,,32,0,7,,,,,0,,,74,85
42816,note_on,,,,,0,0,11,,,,,4,,,59,85
42880,note_off,,,,,64,0,7,,,,,0,,,74,100
42912,note_on,,,,,160,0,10,,,,,3,,,71,85
42912,note_on,,,,,32,0,7,,,,,0,,,76,85
42944,note_off,,,,,128,0,15,,,,,7,,,54,100
42944,note_off,,,,,128,0,11,,,,,4,,,66,100
42944,note_off,,,,,128,0,12,,,,,5,,,54,100
42944,note_off,,,,,128,0,13,,,,,6,,,42,100
42944,note_off,,,,,128,0,9,,,,,2,,,78,100
42944,note_off,,,,,0,0,11,,,,,4,,,59,100
42944,note_off,,,,,128,0,8,,,,,1,,,71,100
42944,note_off,,,,,128,0,14,,,,,7,,,71,100
42944,note_off,,,,,0,0,14,,,,,7,,,74,100
42976,note_off,,,,,64,0,10,,,,,3,,,71,100
42976,note_off,,,,,64,0,7,,,,,0,,,76,100
43008,note_on,,,,,32,0,7,,,,,0,,,74,85
43008,note_on,,,,,64,0,13,,,,,6,,,42,85
43008,note_on,,,,,64,0,11,,,,,4,,,71,85
43008,note_on,,,,,64,0,12,,,,,5,,,54,85
43008,note_on,,,,,0,0,11,,,,,4,,,66,85
43008,note_on,,,,,64,0,15,,,,,7,,,54,100
43008,note_on,,,,,0,0,14,,,,,7,,,74,100
43008,note_on,,,,,64,0,8,,,,,1,,,71,85
43008,note_on,,,,,32,0,10,,,,,3,,,74,85
43008,note_on,,,,,64,0,14,,,,,7,,,71,100
43072,note_off,,,,,64,0,10,,,,,3,,,74,100
43104,note_on,,,,,32,0,10,,,,,3,,,71,85
43136,note_off,,,,,128,0,13,,,,,6,,,42,100
43136,note_off,,,,,128,0,8,,,,,1,,,71,100
43136,note_off,,,,,128,0,12,,,,,5,,,54,100
43136,note_off,,,,,128,0,14,,,,,7,,,71,100
43136,note_off,,,,,0,0,14,,,,,7,,,74,100
43136,note_off,,,,,0,0,11,,,,,4,,,66,100
43136,note_off,,,,,128,0,7,,,,,0,,,74,100
43136,note_off,,,,,128,0,11,,,,,4,,,71,100
43136,note_off,,,,,128,0,15,,,,,7,,,54,100
43168,note_off,,,,,64,0,10,,,,,3,,,71,100
43200,note_on,,,,,64,0,15,,,,,7,,,54,100
43200,note_on,,,,,64,0,8,,,,,1,,,70,85
43200,note_on,,,,,64,0,7,,,,,0,,,73,85
43200,note_on,,,,,64,0,12,,,,,5,,,54,85
43200,note_on,,,,,256,0,9,,,,,2,,,70,85
43200,note_on,,,,,64,0,14,,,,,7,,,70,100
43200,note_on,,,,,0,0,14,,,,,7,,,73,100
43200,note_on,,,,,64,0,11,,,,,4,,,66,85
43200,note_on,,,,,32,0,10,,,,,3,,,66,85
43200,note_on,,,,,64,0,13,,,,,6,,,42,85
43264,note_off,,,,,64,0,7,,,,,0,,,73,100
43296,note_on,,,,,32,0,7,,,,,0,,,71,85
43328,note_off,,,,,128,0,13,,,,,6,,,42,100
43328,note_off,,,,,128,0,9,,,,,2,,,70,100
43328,note_off,,,,,0,0,14,,,,,7,,,73,100
43328,note_off,,,,,128,0,14,,,,,7,,,70,100
43328,note_off,,,,,128,0,15,,,,,7,,,54,100
43328,note_off,,,,,128,0,11,,,,,4,,,66,100
43328,note_off,,,,,128,0,8,,,,,1,,,70,100
43328,note_off,,,,,128,0,12,,,,,5,,,54,100
43328,note_off,,,,,128,0,10,,,,,3,,,66,100
43360,note_off,,,,,64,0,7,,,,,0,,,71,100
43392,note_on,,,,,64,0,15,,,,,7,,,54,100
43392,note_on,,,,,0,0,11,,,,,4,,,58,85
43392,note_on,,,,,64,0,14,,,,,7,,,70,100
43392,note_on,,,,,64,0,8,,,,,1,,,70,85
43392,note_on,,,,,64,0,9,,,,,2,,,78,85
43392,note_on,,,,,0,0,14,,,,,7,,,73,100
43392,note_on,,,,,64,0,12,,,,,5,,,54,85
43392,note_on,,,,,64,0,13,,,,,6,,,42,85
43392,note_on,,,,,32,0,7,,,,,0,,,73,85
43392,note_on,,,,,64,0,11,,,,,4,,,66,85
43456,note_off,,,,,64,0,7,,,,,0,,,73,100
43488,note_on,,,,,32,0,7,,,,,0,,,74,85
43488,note_on,,,,,160,0,10,,,,,3,,,70,85
43520,note_off,,,,,128,0,15,,,,,7,,,54,100
43520,note_off,,,,,128,0,13,,,,,6,,,42,100
43520,note_off,,,,,128,0,14,,,,,7,,,70,100
43520,note_off,,,,,128,0,9,,,,,2,,,78,100
43520,note_off,,,,,128,0,12,,,,,5,,,54,100
43520,note_off,,,,,128,0,8,,,,,1,,,70,100
43520,note_off,,,,,0,0,14,,,,,7,,,73,100
43520,note_off,,,,,0,0,11,,,,,4,,,58,100
43520,note_off,,,,,128,0,11,,,,,4,,,66,100
43552,note_off,,,,,64,0,7,,,,,0,,,74,100
43552,note_off,,,,,64,0,10,,,,,3,,,70,100
43584,note_on,,,,,32,0,10,,,,,3,,,73,85
43584,note_on,,,,,0,0,11,,,,,4,,,66,85
43584,note_on,,,,,32,0,7,,,,,0,,,73,85
43584,note_on,,,,,64,0,12,,,,,5,,,54,85
43584,note_on,,,,,64,0,13,,,,,6,,,42,85
43584,note_on,,,,,64,0,11,,,,,4,,,70,85
43584,note_on,,,,,64,0,14,,,,,7,,,70,100
43584,note_on,,,,,0,0,14,,,,,7,,,73,100
43584,note_on,,,,,64,0,8,,,,,1,,,70,85
43584,note_on,,,,,64,0,15,,,,,7,,,54,100
43648,note_off,,,,,64,0,10,,,,,3,,,73,100
43680,note_on,,,,,32,0,10,,,,,3,,,70,85
43712,note_off,,,,,128,0,11,,,,,4,,,70,100
43712,note_off,,,,,128,0,13,,,,,6,,,42,100
43712,note_off,,,,,128,0,15,,,,,7,,,54,100
43712,note_off,,,,,0,0,11,,,,,4,,,66,100
43712,note_off,,,,,128,0,14,,,,,7,,,70,100
43712,note_off,,,,,128,0,7,,,,,0,,,73,100
43712,note_off,,,,,128,0,8,,,,,1,,,70,100
43712,note_off,,,,,128,0,12,,,,,5,,,54,100
43712,note_off,,,,,0,0,14,,,,,7,,,73,100
43744,note_off,,,,,64,0,10,,,,,3,,,70,100
43776,note_on,,,,,64,0,14,,,,,7,,,71,100
43776,note_on,,,,,64,0,13,,,,,6,,,42,75
43776,note_on,,,,,64,0,15,,,,,7,,,54,100
43776,note_on,,,,,64,0,8,,,,,1,,,71,75
43776,note_on,,,,,0,0,14,,,,,7,,,74,100
43776,note_on,,,,,32,0,10,,,,,3,,,66,75
43776,note_on,,,,,64,0,7,,,,,0,,,74,75
43776,note_on,,,,,256,0,9,,,,,2,,,71,75
43776,note_on,,,,,64,0,12,,,,,5,,,54,75
43776,note_on,,,,,64,0,11,,,,,4,,,66,75
43840,note_off,,,,,64,0,7,,,,,0,,,74,100
43872,note_on,,,,,32,0,7,,,,,0,,,73,75
43904,note_off,,,,,128,0,12,,,,,5,,,54,100
43904,note_off,,,,,128,0,15,,,,,7,,,54,100
43904,note_off,,,,,128,0,13,,,,,6,,,42,100
43904,note_off,,,,,128,0,10,,,,,3,,,66,100
43904,note_off,,,,,128,0,9,,,,,2,,,71,100
43904,note_off,,,,,128,0,11,,,,,4,,,66,100
43904,note_off,,,,,128,0,14,,,,,7,,,71,100
43904,note_off,,,,,0,0,14,,,,,7,,,74,100
43904,note_off,,,,,128,0,8,,,,,1,,,71,100
43936,note_off,,,,,64,0,7,,,,,0,,,73,100
43968,note_on,,,,,64,0,11,,,,,4,,,59,76
43968,note_on,,,,,32,0,7,,,,,0,,,74,76
43968,note_on,,,,,0,0,11,,,,,4,,,66,76
43968,note_on,,,,,64,0,14,,,,,7,,,71,100
43968,note_on,,,,,64,0,13,,,,,6,,,42,76
43968,note_on,,,,,0,0,14,,,,,7,,,74,100
43968,note_on,,,,,64,0,9,,,,,2,,,78,76
43968,note_on,,,,,64,0,8,,,,,1,,,71,76
43968,note_on,,,,,64,0,15,,,,,7,,,54,100
43968,note_on,,,,,64,0,12,,,,,5,,,54,76
44032,note_off,,,,,64,0,7,,,,,0,,,74,100
44064,note_on,,,,,160,0,10,,,,,3,,,71,77
44064,note_on,,,,,32,0,7,,,,,0,,,76,77
44096,note_off,,,,,128,0,8,,,,,1,,,71,100
44096,note_off,,,,,0,0,14,,,,,7,,,74,100
44096,note_off,,,,,0,0,11,,,,,4,,,66,100
44096,note_off,,,,,128,0,11,,,,,4,,,59,100
44096,note_off,,,,,128,0,9,,,,,2,,,78,100
44096,note_off,,,,,128,0,12,,,,,5,,,54,100
44096,note_off,,,,,128,0,15,,,,,7,,,54,100
44096,note_off,,,,,128,0,14,,,,,7,,,71,100
44096,note_off,,,,,128,0,13,,,,,6,,,42,100
44128,note_off,,,,,64,0,10,,,,,3,,,71,100
44128,note_off,,,,,64,0,7,,,,,0,,,76,100
44160,note_on,,,,,32,0,10,,,,,3,,,74,78
44160,note_on,,,,,64,0,12,,,,,5,,,54,78
44160,note_on,,,,,32,0,7,,,,,0,,,74,78
44160,note_on,,,,,64,0,13,,,,,6,,,42,78
44160,note_on,,,,,64,0,15,,,,,7,,,54,100
44160,note_on,,,,,64,0,11,,,,,4,,,66,78
44160,note_on,,,,,64,0,14,,,,,7,,,71,100
44160,note_on,,,,,64,0,8,,,,,1,,,71,78
44160,note_on,,,,,0,0,11,,,,,4,,,71,78
44160,note_on,,,,,0,0,14,,,,,7,,,74,100
44224,note_off,,,,,64,0,10,,,,,3,,,74,100
44256,note_on,,,,,32,0,10,,,,,3,,,71,79
44288,note_off,,,,,128,0,11,,,,,4,,,66,100
44288,note_off,,,,,128,0,13,,,,,6,,,42,100
44288,note_off,,,,,128,0,14,,,,,7,,,71,100
44288,note_off,,,,,0,0,14,,,,,7,,,74,100
44288,note_off,,,,,0,0,11,,,,,4,,,71,100
44288,note_off,,,,,128,0,7,,,,,0,,,74,100
44288,note_off,,,,,128,0,15,,,,,7,,,54,100
44288,note_off,,,,,128,0,8,,,,,1,,,71,100
44288,note_off,,,,,128,0,12,,,,,5,,,54,100
44320,note_off,,,,,64,0,10,,,,,3,,,71,100
44352,note_on,,,,,256,0,9,,,,,2,,,73,79
44352,note_on,,,,,64,0,8,,,,,1,,,73,79
44352,note_on,,,,,0,0,14,,,,,7,,,76,100
44352,note_on,,,,,32,0,10,,,,,3,,,66,79
44352,note_on,,,,,64,0,13,,,,,6,,,42,79
44352,note_on,,,,,64,0,11,,,,,4,,,66,79
44352,note_on,,,,,64,0,7,,,,,0,,,76,79
44352,note_on,,,,,64,0,14,,,,,7,,,73,100
44352,note_on,,,,,64,0,12,,,,,5,,,54,79
44352,note_on,,,,,64,0,15,,,,,7,,,54,100
44416,note_off,,,,,64,0,7,,,,,0,,,76,100
44448,note_on,,,,,32,0,7,,,,,0,,,74,80
44480,note_off,,,,,128,0,8,,,,,1,,,73,100
44480,note_off,,,,,128,0,12,,,,,5,,,54,100
44480,note_off,,,,,128,0,10,,,,,3,,,66,100
44480,note_off,,,,,0,0,14,,,,,7,,,76,100
44480,note_off,,,,,128,0,15,,,,,7,,,54,100
44480,note_off,,,,,128,0,13,,,,,6,,,42,100
44480,note_off,,,,,128,0,11,,,,,4,,,66,100
44480,note_off,,,,,128,0,14,,,,,7,,,73,100
44480,note_off,,,,,128,0,9,,,,,2,,,73,100
44512,note_off,,,,,64,0,7,,,,,0,,,74,100
44544,note_on,,,,,64,0,15,,,,,7,,,54,100
44544,note_on,,,,,0,0,14,,,,,7,,,76,100
44544,note_on,,,,,64,0,14,,,,,7,,,73,100
44544,note_on,,,,,64,0,9,,,,,2,,,78,81
44544,note_on,,,,,64,0,8,,,,,1,,,73,81
44544,note_on,,,,,64,0,11,,,,,4,,,58,81
44544,note_on,,,,,0,0,11,,,,,4,,,66,81
44544,note_on,,,,,64,0,13,,,,,6,,,42,81
44544,note_on,,,,,64,0,12,,,,,5,,,54,81
44544,note_on,,,,,32,0,7,,,,,0,,,76,81
44608,note_off,,,,,64,0,7,,,,,0,,,76,100
44640,note_on,,,,,160,0,10,,,,,3,,,73,82
44640,note_on,,,,,32,0,7,,,,,0,,,78,82
44672,note_off,,,,,128,0,11,,,,,4,,,58,100
44672,note_off,,,,,0,0,11,,,,,4,,,66,100
44672,note_off,,,,,128,0,15,,,,,7,,,54,100
44672,note_off,,,,,0,0,14,,,,,7,,,76,100
44672,note_off,,,,,128,0,9,,,,,2,,,78,100
44672,note_off,,,,,128,0,13,,,,,6,,,42,100
44672,note_off,,,,,128,0,12,,,,,5,,,54,100
44672,note_off,,,,,128,0,8,,,,,1,,,73,100
44672,note_off,,,,,128,0,14,,,,,7,,,73,100
44704,note_off,,,,,64,0,7,,,,,0,,,78,100
44704,note_off,,,,,64,0,10,,,,,3,,,73,100
44736,note_on,,,,,32,0,7,,,,,0,,,76,83
44736,note_on,,,,,32,0,10,,,,,3,,,76,83
44736,note_on,,,,,64,0,8,,,,,1,,,73,83
44736,note_on,,,,,64,0,15,,,,,7,,,54,100
44736,note_on,,,,,64,0,13,,,,,6,,,42,83
44736,note_on,,,,,0,0,14,,,,,7,,,76,100
44736,note_on,,,,,64,0,14,,,,,7,,,73,100
44736,note_on,,,,,64,0,12,,,,,5,,,54,83
44736,note_on,,,,,64,0,11,,,,,4,,,66,83
44736,note_on,,,,,0,0,11,,,,,4,,,70,83
44800,note_off,,,,,64,0,10,,,,,3,,,76,100
44832,note_on,,,,,32,0,10,,,,,3,,,73,84
44864,note_off,,,,,128,0,11,,,,,4,,,66,100
44864,note_off,,,,,128,0,15,,,,,7,,,54,100
44864,note_off,,,,,128,0,12,,,,,5,,,54,100
44864,note_off,,,,,128,0,13,,,,,6,,,42,100
44864,note_off,,,,,128,0,14,,,,,7,,,73,100
44864,note_off,,,,,0,0,14,,,,,7,,,76,100
44864,note_off,,,,,128,0,8,,,,,1,,,73,100
44864,note_off,,,,,128,0,7,,,,,0,,,76,100
44864,note_off,,,,,0,0,11,,,,,4,,,70,100
44896,note_off,,,,,64,0,10,,,,,3,,,73,100
44928,note_on,,,,,64,0,15,,,,,7,,,54,100
44928,note_on,,,,,64,0,12,,,,,5,,,54,84
44928,note_on,,,,,256,0,9,,,,,2,,,71,84
44928,note_on,,,,,64,0,13,,,,,6,,,42,84
44928,note_on,,,,,64,0,8,,,,,1,,,71,84
44928,note_on,,,,,64,0,7,,,,,0,,,74,84
44928,note_on,,,,,32,0,10,,,,,3,,,66,84
44928,note_on,,,,,64,0,11,,,,,4,,,66,84
44928,note_on,,,,,0,0,14,,,,,7,,,74,100
44928,note_on,,,,,64,0,14,,,,,7,,,71,100
44992,note_off,,,,,64,0,7,,,,,0,,,74,100
45024,note_on,,,,,32,0,7,,,,,0,,,73,85
45056,note_off,,,,,128,0,11,,,,,4,,,66,100
45056,note_off,,,,,128,0,15,,,,,7,,,54,100
45056,note_off,,,,,0,0,14,,,,,7,,,74,100
45056,note_off,,,,,128,0,14,,,,,7,,,71,100
45056,note_off,,,,,128,0,8,,,,,1,,,71,100
45056,note_off,,,,,128,0,9,,,,,2,,,71,100
45056,note_off,,,,,128,0,12,,,,,5,,,54,100
45056,note_off,,,,,128,0,10,,,,,3,,,66,100
45056,note_off,,,,,128,0,13,,,,,6,,,42,100
45088,note_off,,,,,64,0,7,,,,,0,,,73,100
45120,note_on,,,,,64,0,13,,,,,6,,,42,85
45120,note_on,,,,,0,0,11,,,,,4,,,66,85
45120,note_on,,,,,64,0,11,,,,,4,,,59,85
45120,note_on,,,,,64,0,12,,,,,5,,,54,85
45120,note_on,,,,,64,0,8,,,,,1,,,71,85
45120,note_on,,,,,64,0,9,,,,,2,,,78,85
45120,note_on,,,,,64,0,15,,,,,7,,,54,100
45120,note_on,,,,,32,0,7,,,,,0,,,74,85
45120,note_on,,,,,64,0,14,,,,,7,,,71,100
45120,note_on,,,,,0,0,14,,,,,7,,,74,100
45184,note_off,,,,,64,0,7,,,,,0,,,74,100
45216,note_on,,,,,160,0,10,,,,,3,,,71,85
45216,note_on,,,,,32,0,7,,,,,0,,,76,85
45248,note_off,,,,,128,0,13,,,,,6,,,42,100
45248,note_off,,,,,128,0,9,,,,,2,,,78,100
45248,note_off,,,,,128,0,12,,,,,5,,,54,100
45248,note_off,,,,,128,0,11,,,,,4,,,59,100
45248,note_off,,,,,0,0,11,,,,,4,,,66,100
45248,note_off,,,,,128,0,14,,,,,7,,,71,100
45248,note_off,,,,,128,0,15,,,,,7,,,54,100
45248,note_off,,,,,0,0,14,,,,,7,,,74,100
45248,note_off,,,,,128,0,8,,,,,1,,,71,100
45280,note_off,,,,,64,0,10,,,,,3,,,71,100
45280,note_off,,,,,64,0,7,,,,,0,,,76,100
45312,note_on,,,,,64,0,12,,,,,5,,,54,85
45312,note_on,,,,,64,0,11,,,,,4,,,66,85
45312,note_on,,,,,0,0,14,,,,,7,,,74,100
45312,note_on,,,,,64,0,15,,,,,7,,,54,100
45312,program_change,,,,,64,0,9,,,,,2,40,,,
45312,note_on,,,,,64,0,8,,,,,1,,,71,85
45312,note_on,,,,,64,0,13,,,,,6,,,42,85
45312,note_on,,,,,64,0,14,,,,,7,,,71,100
45312,note_on,,,,,32,0,10,,,,,3,,,74,85
45312,note_on,,,,,32,0,7,,,,,0,,,74,85
45312,note_on,,,,,0,0,11,,,,,4,,,71,85
45314,program_change,,,,,2,0,12,,,,,5,43,,,
45376,note_off,,,,,64,0,10,,,,,3,,,74,100
45408,note_on,,,,,32,0,10,,,,,3,,,71,85
45440,note_off,,,,,0,0,11,,,,,4,,,71,100
45440,note_off,,,,,128,0,11,,,,,4,,,66,100
45440,note_off,,,,,128,0,15,,,,,7,,,54,100
45440,note_off,,,,,0,0,14,,,,,7,,,74,100
45440,note_off,,,,,128,0,13,,,,,6,,,42,100
45440,note_off,,,,,128,0,7,,,,,0,,,74,100
45440,note_off,,,,,128,0,8,,,,,1,,,71,100
45440,note_off,,,,,128,0,14,,,,,7,,,71,100
45440,note_off,,,,,126,0,12,,,,,5,,,54,100
45472,note_off,,,,,64,0,10,,,,,3,,,71,100
45504,note_on,,,,,64,0,14,,,,,7,,,70,100
45504,note_on,,,,,0,0,14,,,,,7,,,73,100
45504,note_on,,,,,64,0,8,,,,,1,,,70,85
45504,note_on,,,,,64,0,13,,,,,6,,,42,85
45504,note_on,,,,,64,0,7,,,,,0,,,73,85
45504,note_on,,,,,32,0,10,,,,,3,,,70,85
45504,note_on,,,,,192,0,9,,,,,2,,,73,100
45504,note_on,,,,,64,0,15,,,,,7,,,54,100
45504,note_on,,,,,64,0,11,,,,,4,,,61,85
45504,note_on,,,,,64,0,12,,,,,5,,,54,100
45568,note_off,,,,,64,0,9,,,,,2,,,73,100
45600,note_on,,,,,32,0,9,,,,,2,,,78,100
45664,note_off,,,,,64,0,9,,,,,2,,,78,100
45692,note_off,,,,,188,0,12,,,,,5,,,54,100
45696,note_on,,,,,32,0,9,,,,,2,,,76,100
45696,note_on,,,,,4,0,12,,,,,5,,,58,85
45760,note_off,,,,,0,0,14,,,,,7,,,73,100
45760,note_off,,,,,256,0,7,,,,,0,,,73,100
45760,note_off,,,,,256,0,13,,,,,6,,,42,100
45760,note_off,,,,,256,0,8,,,,,1,,,70,100
45760,note_off,,,,,64,0,9,,,,,2,,,76,100
45760,note_off,,,,,256,0,15,,,,,7,,,54,100
45760,note_off,,,,,256,0,14,,,,,7,,,70,100
45760,note_off,,,,,256,0,10,,,,,3,,,70,100
45760,note_off,,,,,256,0,11,,,,,4,,,61,100
45792,note_on,,,,,32,0,9,,,,,2,,,78,100
45824,note_off,,,,,128,0,12,,,,,5,,,58,100
45856,note_off,,,,,64,0,9,,,,,2,,,78,100
45888,program_change,,,,,128,0,7,,,,,0,40,,,
45888,note_on,,,,,32,0,9,,,,,2,,,73,100
45888,note_on,,,,,64,0,12,,,,,5,,,54,85
45952,note_off,,,,,64,0,9,,,,,2,,,73,100
45984,note_on,,,,,32,0,9,,,,,2,,,78,100
46016,note_off,,,,,128,0,12,,,,,5,,,54,100
46048,note_off,,,,,64,0,9,,,,,2,,,78,100
46080,note_on,,,,,64,0,12,,,,,5,,,54,85
46080,note_on,,,,,0,0,14,,,,,7,,,73,100
46080,note_on,,,,,320,0,14,,,,,7,,,70,100
46080,note_on,,,,,32,0,9,,,,,2,,,82,100
46080,note_on,,,,,320,0,15,,,,,7,,,54,100
46080,note_on,,,,,320,0,13,,,,,6,,,42,85
46080,note_on,,,,,192,0,7,,,,,0,,,73,100
46172,note_off,,,,,92,0,9,,,,,2,,,82,100
46176,note_on,,,,,4,0,9,,,,,2,,,78,100
46268,note_off,,,,,188,0,12,,,,,5,,,54,100
46268,note_off,,,,,92,0,9,,,,,2,,,78,100
46268,note_off,,,,,188,0,7,,,,,0,,,73,100
46272,note_on,,,,,4,0,7,,,,,0,,,78,100
46272,note_on,,,,,4,0,12,,,,,5,,,58,85
46272,note_on,,,,,4,0,9,,,,,2,,,76,100
46336,note_off,,,,,256,0,13,,,,,6,,,42,100
46336,note_off,,,,,64,0,9,,,,,2,,,76,100
46336,note_off,,,,,256,0,15,,,,,7,,,54,100
46336,note_off,,,,,0,0,14,,,,,7,,,73,100
46336,note_off,,,,,256,0,14,,,,,7,,,70,100
46368,note_on,,,,,32,0,9,,,,,2,,,78,100
46400,note_off,,,,,128,0,7,,,,,0,,,78,100
46400,note_off,,,,,128,0,12,,,,,5,,,58,100
46432,note_off,,,,,64,0,9,,,,,2,,,78,100
46464,note_on,,,,,64,0,7,,,,,0,,,82,100
46464,note_on,,,,,32,0,9,,,,,2,,,73,100
46464,note_on,,,,,64,0,12,,,,,5,,,54,85
46528,note_off,,,,,64,0,9,,,,,2,,,73,100
46560,note_on,,,,,32,0,9,,,,,2,,,78,100
46592,note_off,,,,,128,0,12,,,,,5,,,54,100
46592,note_off,,,,,128,0,7,,,,,0,,,82,100
46624,note_off,,,,,64,0,9,,,,,2,,,78,100
46656,note_on,,,,,0,0,14,,,,,7,,,73,100
46656,note_on,,,,,320,0,13,,,,,6,,,42,85
46656,note_on,,,,,32,0,9,,,,,2,,,82,100
46656,note_on,,,,,64,0,12,,,,,5,,,54,85
46656,note_on,,,,,64,0,7,,,,,0,,,73,100
46656,note_on,,,,,320,0,15,,,,,7,,,54,100
46656,note_on,,,,,320,0,14,,,,,7,,,70,100
46748,note_off,,,,,92,0,9,,,,,2,,,82,100
46752,note_on,,,,,4,0,9,,,,,2,,,78,100
46844,note_off,,,,,188,0,12,,,,,5,,,54,100
46844,note_off,,,,,92,0,9,,,,,2,,,78,100
46844,note_off,,,,,188,0,7,,,,,0,,,73,100
46848,note_on,,,,,4,0,7,,,,,0,,,78,100
46848,note_on,,,,,4,0,9,,,,,2,,,76,100
46848,note_on,,,,,4,0,12,,,,,5,,,58,85
46912,note_off,,,,,256,0,14,,,,,7,,,70,100
46912,note_off,,,,,256,0,13,,,,,6,,,42,100
46912,note_off,,,,,0,0,14,,,,,7,,,73,100
46912,note_off,,,,,64,0,9,,,,,2,,,76,100
46912,note_off,,,,,256,0,15,,,,,7,,,54,100
46944,note_on,,,,,32,0,9,,,,,2,,,78,100
46976,note_off,,,,,128,0,7,,,,,0,,,78,100
46976,note_off,,,,,128,0,12,,,,,5,,,58,100
47008,note_off,,,,,64,0,9,,,,,2,,,78,100
47040,note_on,,,,,32,0,9,,,,,2,,,73,100
47040,note_on,,,,,64,0,7,,,,,0,,,82,100
47040,note_on,,,,,64,0,12,,,,,5,,,54,85
47104,note_off,,,,,64,0,9,,,,,2,,,73,100
47136,note_on,,,,,32,0,9,,,,,2,,,78,100
47168,note_off,,,,,128,0,12,,,,,5,,,54,100
47168,note_off,,,,,128,0,7,,,,,0,,,82,100
47200,note_off,,,,,64,0,9,,,,,2,,,78,100
47232,note_on,,,,,320,0,13,,,,,6,,,42,85
47232,note_on,,,,,64,0,12,,,,,5,,,54,85
47232,note_on,,,,,32,0,9,,,,,2,,,82,100
47232,program_change,,,,,1472,0,8,,,,,1,40,,,
47232,note_on,,,,,320,0,15,,,,,7,,,54,100
47232,note_on,,,,,64,0,7,,,,,0,,,73,100
47232,program_change,,,,,1472,0,10,,,,,3,40,,,
47232,note_on,,,,,320,0,14,,,,,7,,,70,100
47232,note_on,,,,,0,0,14,,,,,7,,,73,100
47324,note_off,,,,,92,0,9,,,,,2,,,82,100
47328,note_on,,,,,4,0,9,,,,,2,,,78,100
47360,note_off,,,,,128,0,7,,,,,0,,,73,100
47420,note_off,,,,,92,0,9,,,,,2,,,78,100
47420,note_off,,,,,188,0,12,,,,,5,,,54,100
47424,note_on,,,,,4,0,12,,,,,5,,,58,85
47424,note_on,,,,,4,0,9,,,,,2,,,76,100
47424,note_on,,,,,64,0,7,,,,,0,,,78,100
47488,note_off,,,,,64,0,9,,,,,2,,,76,100
47488,note_off,,,,,256,0,13,,,,,6,,,42,100
47488,note_off,,,,,0,0,14,,,,,7,,,73,100
47488,note_off,,,,,256,0,14,,,,,7,,,70,100
47488,note_off,,,,,256,0,15,,,,,7,,,54,100
47520,note_on,,,,,32,0,9,,,,,2,,,78,100
47552,note_off,,,,,128,0,7,,,,,0,,,78,100
47552,note_off,,,,,128,0,12,,,,,5,,,58,100
47584,note_off,,,,,64,0,9,,,,,2,,,78,100
47616,note_on,,,,,64,0,12,,,,,5,,,54,85
47616,note_on,,,,,64,0,7,,,,,0,,,82,100
47616,note_on,,,,,32,0,9,,,,,2,,,73,100
47680,note_off,,,,,64,0,9,,,,,2,,,73,100
47712,note_on,,,,,32,0,9,,,,,2,,,78,100
47744,note_off,,,,,128,0,7,,,,,0,,,82,100
47744,note_off,,,,,128,0,12,,,,,5,,,54,100
47776,note_off,,,,,64,0,9,,,,,2,,,78,100
47808,note_on,,,,,320,0,14,,,,,7,,,63,100
47808,note_on,,,,,64,0,12,,,,,5,,,59,85
47808,note_on,,,,,32,0,9,,,,,2,,,75,100
47808,note_on,,,,,0,0,14,,,,,7,,,66,100
47808,note_on,,,,,320,0,13,,,,,6,,,35,85
47808,note_on,,,,,320,0,15,,,,,7,,,47,100
47808,note_on,,,,,64,0,7,,,,,0,,,83,100
47904,note_on,,,,,672,0,8,,,,,1,,,71,100
47936,note_off,,,,,128,0,7,,,,,0,,,83,100
47968,note_off,,,,,64,0,8,,,,,1,,,71,100
47996,note_off,,,,,188,0,12,,,,,5,,,59,100
48000,note_on,,,,,4,0,12,,,,,5,,,63,85
48000,note_on,,,,,64,0,7,,,,,0,,,71,100
48000,note_on,,,,,32,0,8,,,,,1,,,69,100
48064,note_off,,,,,64,0,8,,,,,1,,,69,100
48064,note_off,,,,,0,0,14,,,,,7,,,66,100
48064,note_off,,,,,256,0,15,,,,,7,,,47,100
48064,note_off,,,,,256,0,13,,,,,6,,,35,100
48064,note_off,,,,,256,0,9,,,,,2,,,75,100
48064,note_off,,,,,256,0,14,,,,,7,,,63,100
48096,note_on,,,,,32,0,8,,,,,1,,,71,100
48128,note_off,,,,,128,0,7,,,,,0,,,71,100
48128,note_off,,,,,128,0,12,,,,,5,,,63,100
48160,note_off,,,,,64,0,8,,,,,1,,,71,100
48192,note_on,,,,,32,0,8,,,,,1,,,66,100
48192,note_on,,,,,64,0,12,,,,,5,,,59,85
48256,note_off,,,,,64,0,8,,,,,1,,,66,100
48288,note_on,,,,,32,0,8,,,,,1,,,71,100
48320,note_off,,,,,128,0,12,,,,,5,,,59,100
48352,note_off,,,,,64,0,8,,,,,1,,,71,100
48384,note_on,,,,,320,0,14,,,,,7,,,63,100
48384,note_on,,,,,320,0,15,,,,,7,,,47,100
48384,note_on,,,,,1152,0,10,,,,,3,,,66,100
48384,note_on,,,,,64,0,12,,,,,5,,,59,85
48384,note_on,,,,,32,0,8,,,,,1,,,75,100
48384,note_on,,,,,320,0,13,,,,,6,,,35,85
48384,note_on,,,,,0,0,14,,,,,7,,,66,100
48476,note_off,,,,,92,0,8,,,,,1,,,75,100
48480,note_on,,,,,4,0,8,,,,,1,,,71,100
48572,note_off,,,,,188,0,12,,,,,5,,,59,100
48572,note_off,,,,,92,0,8,,,,,1,,,71,100
48572,note_off,,,,,188,0,10,,,,,3,,,66,100
48576,note_on,,,,,4,0,12,,,,,5,,,63,85
48576,note_on,,,,,4,0,8,,,,,1,,,69,100
48576,note_on,,,,,4,0,10,,,,,3,,,71,100
48640,note_off,,,,,256,0,15,,,,,7,,,47,100
48640,note_off,,,,,256,0,14,,,,,7,,,63,100
48640,note_off,,,,,256,0,13,,,,,6,,,35,100
48640,note_off,,,,,64,0,8,,,,,1,,,69,100
48640,note_off,,,,,0,0,14,,,,,7,,,66,100
48672,note_on,,,,,32,0,8,,,,,1,,,71,100
48704,note_off,,,,,128,0,10,,,,,3,,,71,100
48704,note_off,,,,,128,0,12,,,,,5,,,63,100
48736,note_off,,,,,64,0,8,,,,,1,,,71,100
48768,note_on,,,,,32,0,8,,,,,1,,,66,100
48768,note_on,,,,,64,0,10,,,,,3,,,75,100
48768,note_on,,,,,64,0,12,,,,,5,,,59,85
48832,note_off,,,,,64,0,8,,,,,1,,,66,100
48864,note_on,,,,,32,0,8,,,,,1,,,71,100
48896,note_off,,,,,128,0,12,,,,,5,,,59,100
48896,note_off,,,,,128,0,10,,,,,3,,,75,100
48928,note_off,,,,,64,0,8,,,,,1,,,71,100
48960,note_on,,,,,320,0,13,,,,,6,,,35,85
48960,note_on,,,,,64,0,12,,,,,5,,,59,85
48960,note_on,,,,,64,0,10,,,,,3,,,66,100
48960,note_on,,,,,320,0,15,,,,,7,,,47,100
48960,note_on,,,,,32,0,8,,,,,1,,,75,100
48960,note_on,,,,,0,0,14,,,,,7,,,66,100
48960,note_on,,,,,320,0,14,,,,,7,,,63,100
49052,note_off,,,,,92,0,8,,,,,1,,,75,100
49056,note_on,,,,,4,0,8,,,,,1,,,71,100
49148,note_off,,,,,92,0,8,,,,,1,,,71,100
49148,note_off,,,,,188,0,12,,,,,5,,,59,100
49148,note_off,,,,,188,0,10,,,,,3,,,66,100
49152,note_on,,,,,4,0,8,,,,,1,,,69,100
49152,note_on,,,,,4,0,12,,,,,5,,,63,85
49152,note_on,,,,,4,0,10,,,,,3,,,71,100
49216,note_off,,,,,64,0,8,,,,,1,,,69,100
49216,note_off,,,,,256,0,13,,,,,6,,,35,100
49216,note_off,,,,,256,0,14,,,,,7,,,63,100
49216,note_off,,,,,0,0,14,,,,,7,,,66,100
49216,note_off,,,,,256,0,15,,,,,7,,,47,100
49248,note_on,,,,,32,0,8,,,,,1,,,71,100
49280,note_off,,,,,128,0,10,,,,,3,,,71,100
49280,note_off,,,,,128,0,12,,,,,5,,,63,100
49312,note_off,,,,,64,0,8,,,,,1,,,71,100
49344,note_on,,,,,64,0,10,,,,,3,,,75,100
49344,note_on,,,,,64,0,12,,,,,5,,,59,85
49344,note_on,,,,,32,0,8,,,,,1,,,66,100
49408,note_off,,,,,64,0,8,,,,,1,,,66,100
49440,note_on,,,,,32,0,8,,,,,1,,,71,100
49472,note_off,,,,,128,0,10,,,,,3,,,75,100
49472,note_off,,,,,128,0,12,,,,,5,,,59,100
49504,note_off,,,,,64,0,8,,,,,1,,,71,100
49536,note_on,,,,,0,0,14,,,,,7,,,66,100
49536,note_on,,,,,320,0,15,,,,,7,,,47,100
49536,note_on,,,,,320,0,14,,,,,7,,,63,100
49536,note_on,,,,,32,0,8,,,,,1,,,75,100
49536,note_on,,,,,320,0,13,,,,,6,,,35,85
49536,note_on,,,,,64,0,10,,,,,3,,,66,100
49536,note_on,,,,,64,0,12,,,,,5,,,59,85
49628,note_off,,,,,92,0,8,,,,,1,,,75,100
49632,note_on,,,,,4,0,8,,,,,1,,,71,100
49724,note_off,,,,,188,0,12,,,,,5,,,59,100
49724,note_off,,,,,92,0,8,,,,,1,,,71,100
49724,note_off,,,,,188,0,10,,,,,3,,,66,100
49728,note_on,,,,,4,0,12,,,,,5,,,63,85
49728,note_on,,,,,4,0,10,,,,,3,,,71,100
49728,note_on,,,,,4,0,8,,,,,1,,,69,100
49792,note_off,,,,,256,0,13,,,,,6,,,35,100
49792,note_off,,,,,256,0,15,,,,,7,,,47,100
49792,note_off,,,,,64,0,8,,,,,1,,,69,100
49792,note_off,,,,,0,0,14,,,,,7,,,66,100
49792,note_off,,,,,256,0,14,,,,,7,,,63,100
49824,note_on,,,,,32,0,8,,,,,1,,,71,100
49856,note_off,,,,,128,0,12,,,,,5,,,63,100
49856,note_off,,,,,128,0,10,,,,,3,,,71,100
49888,note_off,,,,,64,0,8,,,,,1,,,71,100
49920,note_on,,,,,64,0,12,,,,,5,,,59,85
49920,note_on,,,,,64,0,10,,,,,3,,,75,100
49920,note_on,,,,,32,0,8,,,,,1,,,66,100
49984,note_off,,,,,64,0,8,,,,,1,,,66,100
50016,note_on,,,,,32,0,8,,,,,1,,,71,100
50048,note_off,,,,,128,0,12,,,,,5,,,59,100
50048,note_off,,,,,128,0,10,,,,,3,,,75,100
50080,note_off,,,,,64,0,8,,,,,1,,,71,100
50112,note_on,,,,,320,0,13,,,,,6,,,40,85
50112,note_on,,,,,320,0,15,,,,,7,,,52,100
50112,note_on,,,,,64,0,12,,,,,5,,,52,85
50112,note_on,,,,,320,0,14,,,,,7,,,68,100
50112,note_on,,,,,0,0,14,,,,,7,,,71,100
50112,note_on,,,,,64,0,10,,,,,3,,,76,100
50112,note_on,,,,,32,0,8,,,,,1,,,68,100
50208,note_on,,,,,2080,0,7,,,,,0,,,76,100
50240,note_off,,,,,128,0,10,,,,,3,,,76,100
50272,note_off,,,,,64,0,7,,,,,0,,,76,100
50300,note_off,,,,,188,0,12,,,,,5,,,52,100
50304,note_on,,,,,32,0,7,,,,,0,,,74,100
50304,note_on,,,,,64,0,10,,,,,3,,,64,100
50304,note_on,,,,,4,0,12,,,,,5,,,56,85
50368,note_off,,,,,256,0,13,,,,,6,,,40,100
50368,note_off,,,,,64,0,7,,,,,0,,,74,100
50368,note_off,,,,,256,0,8,,,,,1,,,68,100
50368,note_off,,,,,256,0,14,,,,,7,,,68,100
50368,note_off,,,,,256,0,15,,,,,7,,,52,100
50368,note_off,,,,,0,0,14,,,,,7,,,71,100
50400,note_on,,,,,32,0,7,,,,,0,,,76,100
50432,note_off,,,,,128,0,12,,,,,5,,,56,100
50432,note_off,,,,,128,0,10,,,,,3,,,64,100
50464,note_off,,,,,64,0,7,,,,,0,,,76,100
50496,note_on,,,,,64,0,12,,,,,5,,,52,85
50496,note_on,,,,,32,0,7,,,,,0,,,71,100
50560,note_off,,,,,64,0,7,,,,,0,,,71,100
50592,note_on,,,,,32,0,7,,,,,0,,,76,100
50624,note_off,,,,,128,0,12,,,,,5,,,52,100
50656,note_off,,,,,64,0,7,,,,,0,,,76,100
50688,note_on,,,,,0,0,14,,,,,7,,,71,100
50688,note_on,,,,,32,0,7,,,,,0,,,80,100
50688,note_on,,,,,2624,0,9,,,,,2,,,71,100
50688,note_on,,,,,320,0,15,,,,,7,,,52,100
50688,note_on,,,,,64,0,12,,,,,5,,,52,85
50688,note_on,,,,,320,0,13,,,,,6,,,40,85
50688,note_on,,,,,320,0,14,,,,,7,,,68,100
50780,note_off,,,,,92,0,7,,,,,0,,,80,100
50784,note_on,,,,,4,0,7,,,,,0,,,76,100
50876,note_off,,,,,92,0,7,,,,,0,,,76,100
50876,note_off,,,,,188,0,12,,,,,5,,,52,100
50876,note_off,,,,,188,0,9,,,,,2,,,71,100
50880,note_on,,,,,4,0,7,,,,,0,,,75,100
50880,note_on,,,,,4,0,9,,,,,2,,,76,100
50880,note_on,,,,,4,0,12,,,,,5,,,56,85
50944,note_off,,,,,64,0,7,,,,,0,,,75,100
50944,note_off,,,,,256,0,13,,,,,6,,,40,100
50944,note_off,,,,,256,0,14,,,,,7,,,68,100
50944,note_off,,,,,0,0,14,,,,,7,,,71,100
50944,note_off,,,,,256,0,15,,,,,7,,,52,100
50976,note_on,,,,,32,0,7,,,,,0,,,76,100
51008,note_off,,,,,128,0,12,,,,,5,,,56,100
51008,note_off,,,,,128,0,9,,,,,2,,,76,100
51040,note_off,,,,,64,0,7,,,,,0,,,76,100
51072,note_on,,,,,32,0,7,,,,,0,,,71,100
51072,note_on,,,,,64,0,12,,,,,5,,,52,85
51072,note_on,,,,,64,0,9,,,,,2,,,80,100
51136,note_off,,,,,64,0,7,,,,,0,,,71,100
51168,note_on,,,,,32,0,7,,,,,0,,,76,100
51200,note_off,,,,,128,0,9,,,,,2,,,80,100
51200,note_off,,,,,128,0,12,,,,,5,,,52,100
51232,note_off,,,,,64,0,7,,,,,0,,,76,100
51264,note_on,,,,,320,0,14,,,,,7,,,68,100
51264,note_on,,,,,0,0,14,,,,,7,,,71,100
51264,note_on,,,,,320,0,13,,,,,6,,,40,85
51264,note_on,,,,,320,0,15,,,,,7,,,52,100
51264,note_on,,,,,64,0,9,,,,,2,,,71,100
51264,note_on,,,,,32,0,7,,,,,0,,,80,100
51264,note_on,,,,,64,0,12,,,,,5,,,52,85
51356,note_off,,,,,92,0,7,,,,,0,,,80,100
51360,note_on,,,,,4,0,7,,,,,0,,,76,100
51452,note_off,,,,,92,0,7,,,,,0,,,76,100
51452,note_off,,,,,188,0,12,,,,,5,,,52,100
51452,note_off,,,,,188,0,9,,,,,2,,,71,100
51456,note_on,,,,,4,0,7,,,,,0,,,75,100
51456,note_on,,,,,4,0,12,,,,,5,,,56,85
51456,note_on,,,,,4,0,9,,,,,2,,,76,100
51520,note_off,,,,,0,0,14,,,,,7,,,71,100
51520,note_off,,,,,256,0,14,,,,,7,,,68,100
51520,note_off,,,,,64,0,7,,,,,0,,,75,100
51520,note_off,,,,,256,0,13,,,,,6,,,40,100
51520,note_off,,,,,256,0,15,,,,,7,,,52,100
51552,note_on,,,,,32,0,7,,,,,0,,,76,100
51584,note_off,,,,,128,0,9,,,,,2,,,76,100
51584,note_off,,,,,128,0,12,,,,,5,,,56,100
51616,note_off,,,,,64,0,7,,,,,0,,,76,100
51648,note_on,,,,,64,0,12,,,,,5,,,52,85
51648,note_on,,,,,64,0,9,,,,,2,,,80,100
51648,note_on,,,,,32,0,7,,,,,0,,,71,100
51712,note_off,,,,,64,0,7,,,,,0,,,71,100
51744,note_on,,,,,32,0,7,,,,,0,,,76,100
51776,note_off,,,,,128,0,12,,,,,5,,,52,100
51776,note_off,,,,,128,0,9,,,,,2,,,80,100
51808,note_off,,,,,64,0,7,,,,,0,,,76,100
51840,note_on,,,,,32,0,7,,,,,0,,,80,100
51840,note_on,,,,,320,0,13,,,,,6,,,40,85
51840,note_on,,,,,0,0,14,,,,,7,,,71,100
51840,note_on,,,,,320,0,14,,,,,7,,,68,100
51840,note_on,,,,,320,0,15,,,,,7,,,52,100
51840,note_on,,,,,64,0,9,,,,,2,,,71,100
51840,note_on,,,,,64,0,12,,,,,5,,,52,85
51932,note_off,,,,,92,0,7,,,,,0,,,80,100
51936,note_on,,,,,4,0,7,,,,,0,,,76,100
52028,note_off,,,,,92,0,7,,,,,0,,,76,100
52028,note_off,,,,,188,0,9,,,,,2,,,71,100
52028,note_off,,,,,188,0,12,,,,,5,,,52,100
52032,note_on,,,,,4,0,7,,,,,0,,,75,100
52032,note_on,,,,,4,0,9,,,,,2,,,76,100
52032,note_on,,,,,4,0,12,,,,,5,,,56,85
52096,note_off,,,,,256,0,13,,,,,6,,,40,100
52096,note_off,,,,,256,0,14,,,,,7,,,68,100
52096,note_off,,,,,64,0,7,,,,,0,,,75,100
52096,note_off,,,,,0,0,14,,,,,7,,,71,100
52096,note_off,,,,,256,0,15,,,,,7,,,52,100
52128,note_on,,,,,32,0,7,,,,,0,,,76,100
52160,note_off,,,,,128,0,12,,,,,5,,,56,100
52160,note_off,,,,,128,0,9,,,,,2,,,76,100
52192,note_off,,,,,64,0,7,,,,,0,,,76,100
52224,note_on,,,,,32,0,7,,,,,0,,,71,100
52224,note_on,,,,,64,0,9,,,,,2,,,80,100
52224,note_on,,,,,64,0,12,,,,,5,,,52,85
52288,note_off,,,,,64,0,7,,,,,0,,,71,100
52320,note_on,,,,,32,0,7,,,,,0,,,76,100
52352,note_off,,,,,128,0,12,,,,,5,,,52,100
52352,note_off,,,,,128,0,9,,,,,2,,,80,100
52384,note_off,,,,,64,0,7,,,,,0,,,76,100
52416,note_on,,,,,320,0,15,,,,,7,,,45,100
52416,note_on,,,,,64,0,12,,,,,5,,,57,85
52416,note_on,,,,,320,0,13,,,,,6,,,33,85
52416,note_on,,,,,0,0,14,,,,,7,,,64,100
52416,note_on,,,,,320,0,14,,,,,7,,,61,100
52416,note_on,,,,,64,0,9,,,,,2,,,81,100
52416,note_on,,,,,32,0,7,,,,,0,,,73,100
52512,note_on,,,,,2080,0,10,,,,,3,,,69,100
52544,note_off,,,,,128,0,9,,,,,2,,,81,100
52576,note_off,,,,,64,0,10,,,,,3,,,69,100
52604,note_off,,,,,188,0,12,,,,,5,,,57,100
52608,note_on,,,,,4,0,12,,,,,5,,,61,85
52608,note_on,,,,,64,0,9,,,,,2,,,69,100
52608,note_on,,,,,32,0,10,,,,,3,,,68,100
52672,note_off,,,,,256,0,13,,,,,6,,,33,100
52672,note_off,,,,,256,0,7,,,,,0,,,73,100
52672,note_off,,,,,64,0,10,,,,,3,,,68,100
52672,note_off,,,,,0,0,14,,,,,7,,,64,100
52672,note_off,,,,,256,0,14,,,,,7,,,61,100
52672,note_off,,,,,256,0,15,,,,,7,,,45,100
52704,note_on,,,,,32,0,10,,,,,3,,,69,100
52736,note_off,,,,,128,0,12,,,,,5,,,61,100
52736,note_off,,,,,128,0,9,,,,,2,,,69,100
52768,note_off,,,,,64,0,10,,,,,3,,,69,100
52800,note_on,,,,,64,0,12,,,,,5,,,57,85
52800,note_on,,,,,32,0,10,,,,,3,,,64,100
52864,note_off,,,,,64,0,10,,,,,3,,,64,100
52896,note_on,,,,,32,0,10,,,,,3,,,69,100
52928,note_off,,,,,128,0,12,,,,,5,,,57,100
52960,note_off,,,,,64,0,10,,,,,3,,,69,100
52992,note_on,,,,,2624,0,8,,,,,1,,,64,100
52992,note_on,,,,,320,0,15,,,,,7,,,45,100
52992,note_on,,,,,320,0,14,,,,,7,,,61,100
52992,note_on,,,,,0,0,14,,,,,7,,,64,100
52992,note_on,,,,,32,0,10,,,,,3,,,73,100
52992,note_on,,,,,320,0,13,,,,,6,,,33,85
52992,note_on,,,,,64,0,12,,,,,5,,,57,85
53084,note_off,,,,,92,0,10,,,,,3,,,73,100
53088,note_on,,,,,4,0,10,,,,,3,,,69,100
53180,note_off,,,,,188,0,8,,,,,1,,,64,100
53180,note_off,,,,,92,0,10,,,,,3,,,69,100
53180,note_off,,,,,188,0,12,,,,,5,,,57,100
53184,note_on,,,,,4,0,8,,,,,1,,,69,100
53184,note_on,,,,,4,0,10,,,,,3,,,68,100
53184,note_on,,,,,4,0,12,,,,,5,,,61,85
53248,note_off,,,,,256,0,15,,,,,7,,,45,100
53248,note_off,,,,,256,0,14,,,,,7,,,61,100
53248,note_off,,,,,64,0,10,,,,,3,,,68,100
53248,note_off,,,,,256,0,13,,,,,6,,,33,100
53248,note_off,,,,,0,0,14,,,,,7,,,64,100
53280,note_on,,,,,32,0,10,,,,,3,,,69,100
53312,note_off,,,,,128,0,8,,,,,1,,,69,100
53312,note_off,,,,,128,0,12,,,,,5,,,61,100
53344,note_off,,,,,64,0,10,,,,,3,,,69,100
53376,note_on,,,,,32,0,10,,,,,3,,,64,100
53376,note_on,,,,,64,0,8,,,,,1,,,73,100
53376,note_on,,,,,64,0,12,,,,,5,,,57,85
53440,note_off,,,,,64,0,10,,,,,3,,,64,100
53472,note_on,,,,,32,0,10,,,,,3,,,69,100
53504,note_off,,,,,128,0,8,,,,,1,,,73,100
53504,note_off,,,,,128,0,12,,,,,5,,,57,100
53536,note_off,,,,,64,0,10,,,,,3,,,69,100
53568,note_on,,,,,0,0,14,,,,,7,,,64,100
53568,note_on,,,,,32,0,10,,,,,3,,,73,100
53568,note_on,,,,,320,0,14,,,,,7,,,61,100
53568,note_on,,,,,320,0,13,,,,,6,,,33,85
53568,note_on,,,,,320,0,15,,,,,7,,,45,100
53568,note_on,,,,,64,0,8,,,,,1,,,64,100
53568,note_on,,,,,64,0,12,,,,,5,,,57,85
53660,note_off,,,,,92,0,10,,,,,3,,,73,100
53664,note_on,,,,,4,0,10,,,,,3,,,69,100
53756,note_off,,,,,92,0,10,,,,,3,,,69,100
53756,note_off,,,,,188,0,8,,,,,1,,,64,100
53756,note_off,,,,,188,0,12,,,,,5,,,57,100
53760,note_on,,,,,4,0,12,,,,,5,,,61,85
53760,note_on,,,,,4,0,10,,,,,3,,,68,100
53760,note_on,,,,,4,0,8,,,,,1,,,69,100
53824,note_off,,,,,0,0,14,,,,,7,,,64,100
53824,note_off,,,,,64,0,10,,,,,3,,,68,100
53824,note_off,,,,,256,0,15,,,,,7,,,45,100
53824,note_off,,,,,256,0,14,,,,,7,,,61,100
53824,note_off,,,,,256,0,13,,,,,6,,,33,100
53856,note_on,,,,,32,0,10,,,,,3,,,69,100
53888,note_off,,,,,128,0,12,,,,,5,,,61,100
53888,note_off,,,,,128,0,8,,,,,1,,,69,100
53920,note_off,,,,,64,0,10,,,,,3,,,69,100
53952,note_on,,,,,32,0,10,,,,,3,,,64,100
53952,note_on,,,,,64,0,12,,,,,5,,,57,85
53952,note_on,,,,,64,0,8,,,,,1,,,73,100
54016,note_off,,,,,64,0,10,,,,,3,,,64,100
54048,note_on,,,,,32,0,10,,,,,3,,,69,100
54080,note_off,,,,,128,0,8,,,,,1,,,73,100
54080,note_off,,,,,128,0,12,,,,,5,,,57,100
54112,note_off,,,,,64,0,10,,,,,3,,,69,100
54144,note_on,,,,,32,0,10,,,,,3,,,73,100
54144,note_on,,,,,64,0,12,,,,,5,,,57,85
54144,note_on,,,,,64,0,8,,,,,1,,,64,100
54144,note_on,,,,,320,0,13,,,,,6,,,33,85
54144,note_on,,,,,320,0,15,,,,,7,,,45,100
54144,note_on,,,,,320,0,14,,,,,7,,,61,100
54144,note_on,,,,,0,0,14,,,,,7,,,64,100
54236,note_off,,,,,92,0,10,,,,,3,,,73,100
54240,note_on,,,,,4,0,10,,,,,3,,,69,100
54332,note_off,,,,,188,0,12,,,,,5,,,57,100
54332,note_off,,,,,188,0,8,,,,,1,,,64,100
54332,note_off,,,,,92,0,10,,,,,3,,,69,100
54336,note_on,,,,,4,0,12,,,,,5,,,61,85
54336,note_on,,,,,4,0,8,,,,,1,,,69,100
54336,note_on,,,,,4,0,10,,,,,3,,,68,100
54400,note_off,,,,,256,0,14,,,,,7,,,61,100
54400,note_off,,,,,0,0,14,,,,,7,,,64,100
54400,note_off,,,,,64,0,10,,,,,3,,,68,100
54400,note_off,,,,,256,0,15,,,,,7,,,45,100
54400,note_off,,,,,256,0,13,,,,,6,,,33,100
54432,note_on,,,,,32,0,10,,,,,3,,,69,100
54464,note_off,,,,,128,0,8,,,,,1,,,69,100
54464,note_off,,,,,128,0,12,,,,,5,,,61,100
54496,note_off,,,,,64,0,10,,,,,3,,,69,100
54528,note_on,,,,,32,0,10,,,,,3,,,64,100
54528,note_on,,,,,64,0,8,,,,,1,,,73,100
54528,note_on,,,,,64,0,12,,,,,5,,,57,85
54592,note_off,,,,,64,0,10,,,,,3,,,64,100
54624,note_on,,,,,32,0,10,,,,,3,,,69,100
54656,note_off,,,,,128,0,12,,,,,5,,,57,100
54656,note_off,,,,,128,0,8,,,,,1,,,73,100
54688,note_off,,,,,64,0,10,,,,,3,,,69,100
54720,note_on,,,,,320,0,15,,,,,7,,,50,100
54720,note_on,,,,,320,0,14,,,,,7,,,66,100
54720,note_on,,,,,320,0,13,,,,,6,,,38,85
54720,note_on,,,,,32,0,10,,,,,3,,,66,100
54720,note_on,,,,,0,0,14,,,,,7,,,69,100
54720,note_on,,,,,64,0,8,,,,,1,,,74,100
54720,note_on,,,,,64,0,12,,,,,5,,,50,85
54816,note_on,,,,,2080,0,9,,,,,2,,,74,100
54848,note_off,,,,,128,0,8,,,,,1,,,74,100
54880,note_off,,,,,64,0,9,,,,,2,,,74,100
54908,note_off,,,,,188,0,12,,,,,5,,,50,100
54912,note_on,,,,,64,0,8,,,,,1,,,62,100
54912,note_on,,,,,32,0,9,,,,,2,,,73,100
54912,note_on,,,,,4,0,12,,,,,5,,,54,85
54976,note_off,,,,,256,0,15,,,,,7,,,50,100
54976,note_off,,,,,0,0,14,,,,,7,,,69,100
54976,note_off,,,,,256,0,14,,,,,7,,,66,100
54976,note_off,,,,,256,0,13,,,,,6,,,38,100
54976,note_off,,,,,64,0,9,,,,,2,,,73,100
54976,note_off,,,,,256,0,10,,,,,3,,,66,100
55008,note_on,,,,,32,0,9,,,,,2,,,74,100
55040,note_off,,,,,128,0,8,,,,,1,,,62,100
55040,note_off,,,,,128,0,12,,,,,5,,,54,100
55072,note_off,,,,,64,0,9,,,,,2,,,74,100
55104,note_on,,,,,32,0,9,,,,,2,,,69,100
55104,note_on,,,,,64,0,12,,,,,5,,,50,85
55168,note_off,,,,,64,0,9,,,,,2,,,69,100
55200,note_on,,,,,32,0,9,,,,,2,,,74,100
55232,note_off,,,,,128,0,12,,,,,5,,,50,100
55264,note_off,,,,,64,0,9,,,,,2,,,74,100
55296,note_on,,,,,0,0,14,,,,,7,,,69,100
55296,note_on,,,,,2624,0,7,,,,,0,,,69,100
55296,note_on,,,,,320,0,14,,,,,7,,,66,100
55296,note_on,,,,,32,0,9,,,,,2,,,78,100
55296,note_on,,,,,64,0,12,,,,,5,,,50,85
55296,note_on,,,,,320,0,15,,,,,7,,,50,100
55296,note_on,,,,,320,0,13,,,,,6,,,38,85
55388,note_off,,,,,92,0,9,,,,,2,,,78,100
55392,note_on,,,,,4,0,9,,,,,2,,,74,100
55484,note_off,,,,,188,0,7,,,,,0,,,69,100
55484,note_off,,,,,188,0,12,,,,,5,,,50,100
55484,note_off,,,,,92,0,9,,,,,2,,,74,100
55488,note_on,,,,,4,0,9,,,,,2,,,73,100
55488,note_on,,,,,4,0,7,,,,,0,,,74,100
55488,note_on,,,,,4,0,12,,,,,5,,,54,85
55552,note_off,,,,,256,0,13,,,,,6,,,38,100
55552,note_off,,,,,64,0,9,,,,,2,,,73,100
55552,note_off,,,,,256,0,15,,,,,7,,,50,100
55552,note_off,,,,,256,0,14,,,,,7,,,66,100
55552,note_off,,,,,0,0,14,,,,,7,,,69,100
55584,note_on,,,,,32,0,9,,,,,2,,,74,100
55616,note_off,,,,,128,0,12,,,,,5,,,54,100
55616,note_off,,,,,128,0,7,,,,,0,,,74,100
55648,note_off,,,,,64,0,9,,,,,2,,,74,100
55680,note_on,,,,,32,0,9,,,,,2,,,69,100
55680,note_on,,,,,64,0,7,,,,,0,,,78,100
55680,note_on,,,,,64,0,12,,,,,5,,,50,85
55744,note_off,,,,,64,0,9,,,,,2,,,69,100
55776,note_on,,,,,32,0,9,,,,,2,,,74,100
55808,note_off,,,,,128,0,12,,,,,5,,,50,100
55808,note_off,,,,,128,0,7,,,,,0,,,78,100
55840,note_off,,,,,64,0,9,,,,,2,,,74,100
55872,note_on,,,,,64,0,7,,,,,0,,,79,100
55872,note_on,,,,,320,0,13,,,,,6,,,43,85
55872,note_on,,,,,32,0,9,,,,,2,,,71,100
55872,note_on,,,,,320,0,15,,,,,7,,,43,100
55872,note_on,,,,,320,0,14,,,,,7,,,59,100
55872,note_on,,,,,0,0,14,,,,,7,,,62,100
55872,note_on,,,,,64,0,12,,,,,5,,,55,85
55968,note_on,,,,,928,0,8,,,,,1,,,74,100
56000,note_off,,,,,128,0,7,,,,,0,,,79,100
56032,note_off,,,,,64,0,8,,,,,1,,,74,100
56060,note_off,,,,,188,0,12,,,,,5,,,55,100
56064,note_on,,,,,4,0,12,,,,,5,,,59,85
56064,note_on,,,,,64,0,7,,,,,0,,,67,100
56064,note_on,,,,,32,0,8,,,,,1,,,73,100
56128,note_off,,,,,256,0,9,,,,,2,,,71,100
56128,note_off,,,,,256,0,15,,,,,7,,,43,100
56128,note_off,,,,,256,0,13,,,,,6,,,43,100
56128,note_off,,,,,64,0,8,,,,,1,,,73,100
56128,note_off,,,,,256,0,14,,,,,7,,,59,100
56128,note_off,,,,,0,0,14,,,,,7,,,62,100
56160,note_on,,,,,32,0,8,,,,,1,,,74,100
56192,note_off,,,,,128,0,12,,,,,5,,,59,100
56192,note_off,,,,,128,0,7,,,,,0,,,67,100
56224,note_off,,,,,64,0,8,,,,,1,,,74,100
56256,note_on,,,,,32,0,8,,,,,1,,,71,100
56256,note_on,,,,,64,0,12,,,,,5,,,56,85
56320,note_off,,,,,64,0,8,,,,,1,,,71,100
56352,note_on,,,,,32,0,8,,,,,1,,,74,100
56384,note_off,,,,,128,0,12,,,,,5,,,56,100
56416,note_off,,,,,64,0,8,,,,,1,,,74,100
56448,note_on,,,,,320,0,14,,,,,7,,,68,100
56448,note_on,,,,,32,0,8,,,,,1,,,80,100
56448,note_on,,,,,0,0,14,,,,,7,,,71,100
56448,note_on,,,,,320,0,15,,,,,7,,,52,100
56448,note_on,,,,,320,0,9,,,,,2,,,71,100
56448,note_on,,,,,320,0,13,,,,,6,,,40,85
56448,note_on,,,,,64,0,12,,,,,5,,,52,85
56540,note_off,,,,,92,0,8,,,,,1,,,80,100
56544,note_on,,,,,4,0,8,,,,,1,,,76,100
56636,note_off,,,,,188,0,9,,,,,2,,,71,100
56636,note_off,,,,,188,0,12,,,,,5,,,52,100
56636,note_off,,,,,92,0,8,,,,,1,,,76,100
56640,note_on,,,,,4,0,12,,,,,5,,,56,85
56640,note_on,,,,,4,0,9,,,,,2,,,76,100
56640,note_on,,,,,4,0,8,,,,,1,,,74,100
56704,note_off,,,,,256,0,14,,,,,7,,,68,100
56704,note_off,,,,,0,0,14,,,,,7,,,71,100
56704,note_off,,,,,256,0,13,,,,,6,,,40,100
56704,note_off,,,,,64,0,8,,,,,1,,,74,100
56704,note_off,,,,,256,0,15,,,,,7,,,52,100
56736,note_on,,,,,32,0,8,,,,,1,,,76,100
56768,note_off,,,,,128,0,9,,,,,2,,,76,100
56768,note_off,,,,,128,0,12,,,,,5,,,56,100
56800,note_off,,,,,64,0,8,,,,,1,,,76,100
56832,note_on,,,,,32,0,8,,,,,1,,,71,100
56832,note_on,,,,,64,0,12,,,,,5,,,52,85
56832,note_on,,,,,64,0,9,,,,,2,,,80,100
56896,note_off,,,,,64,0,8,,,,,1,,,71,100
56928,note_on,,,,,32,0,8,,,,,1,,,76,100
56960,note_off,,,,,128,0,12,,,,,5,,,52,100
56960,note_off,,,,,128,0,9,,,,,2,,,80,100
56992,note_off,,,,,64,0,8,,,,,1,,,76,100
57024,note_on,,,,,64,0,9,,,,,2,,,81,100
57024,note_on,,,,,320,0,15,,,,,7,,,57,100
57024,note_on,,,,,32,0,8,,,,,1,,,73,100
57024,note_on,,,,,320,0,13,,,,,6,,,45,85
57024,note_on,,,,,64,0,12,,,,,5,,,57,85
57024,note_on,,,,,320,0,14,,,,,7,,,73,100
57024,note_on,,,,,0,0,14,,,,,7,,,76,100
57120,note_on,,,,,2144,0,10,,,,,3,,,76,100
57152,note_off,,,,,128,0,9,,,,,2,,,81,100
57184,note_off,,,,,64,0,10,,,,,3,,,76,100
57212,note_off,,,,,188,0,12,,,,,5,,,57,100
57216,note_on,,,,,64,0,9,,,,,2,,,69,100
57216,note_on,,,,,32,0,10,,,,,3,,,74,100
57216,note_on,,,,,4,0,12,,,,,5,,,61,85
57280,note_off,,,,,256,0,14,,,,,7,,,73,100
57280,note_off,,,,,256,0,15,,,,,7,,,57,100
57280,note_off,,,,,256,0,13,,,,,6,,,45,100
57280,note_off,,,,,64,0,10,,,,,3,,,74,100
57280,note_off,,,,,0,0,14,,,,,7,,,76,100
57280,note_off,,,,,256,0,8,,,,,1,,,73,100
57312,note_on,,,,,32,0,10,,,,,3,,,76,100
57344,note_off,,,,,128,0,12,,,,,5,,,61,100
57344,note_off,,,,,128,0,9,,,,,2,,,69,100
57376,note_off,,,,,64,0,10,,,,,3,,,76,100
57408,note_on,,,,,64,0,12,,,,,5,,,58,85
57408,note_on,,,,,32,0,10,,,,,3,,,73,100
57472,note_off,,,,,64,0,10,,,,,3,,,73,100
57504,note_on,,,,,32,0,10,,,,,3,,,76,100
57536,note_off,,,,,128,0,12,,,,,5,,,58,100
57568,note_off,,,,,64,0,10,,,,,3,,,76,100
57600,note_on,,,,,32,0,10,,,,,3,,,82,100
57600,note_on,,,,,320,0,15,,,,,7,,,54,100
57600,note_on,,,,,320,0,8,,,,,1,,,73,100
57600,note_on,,,,,320,0,14,,,,,7,,,70,100
57600,note_on,,,,,320,0,13,,,,,6,,,42,85
57600,note_on,,,,,0,0,14,,,,,7,,,73,100
57600,note_on,,,,,64,0,12,,,,,5,,,54,85
57692,note_off,,,,,92,0,10,,,,,3,,,82,100
57696,note_on,,,,,4,0,10,,,,,3,,,78,100
57788,note_off,,,,,188,0,8,,,,,1,,,73,100
57788,note_off,,,,,188,0,12,,,,,5,,,54,100
57788,note_off,,,,,92,0,10,,,,,3,,,78,100
57792,note_on,,,,,4,0,8,,,,,1,,,78,100
57792,note_on,,,,,4,0,10,,,,,3,,,76,100
57792,note_on,,,,,4,0,12,,,,,5,,,58,85
57856,note_off,,,,,64,0,10,,,,,3,,,76,100
57856,note_off,,,,,0,0,14,,,,,7,,,73,100
57856,note_off,,,,,256,0,14,,,,,7,,,70,100
57856,note_off,,,,,256,0,15,,,,,7,,,54,100
57856,note_off,,,,,256,0,13,,,,,6,,,42,100
57888,note_on,,,,,32,0,10,,,,,3,,,78,100
57920,note_off,,,,,128,0,8,,,,,1,,,78,100
57920,note_off,,,,,128,0,12,,,,,5,,,58,100
57952,note_off,,,,,64,0,10,,,,,3,,,78,100
57984,note_on,,,,,64,0,12,,,,,5,,,54,85
57984,note_on,,,,,64,0,8,,,,,1,,,82,100
57984,note_on,,,,,32,0,10,,,,,3,,,73,100
58048,note_off,,,,,64,0,10,,,,,3,,,73,100
58080,note_on,,,,,32,0,10,,,,,3,,,78,100
58112,note_off,,,,,128,0,8,,,,,1,,,82,100
58112,note_off,,,,,128,0,12,,,,,5,,,54,100
58144,note_off,,,,,64,0,10,,,,,3,,,78,100
58176,note_on,,,,,64,0,8,,,,,1,,,83,100
58176,note_on,,,,,320,0,13,,,,,6,,,35,85
58176,note_on,,,,,320,0,14,,,,,7,,,62,100
58176,note_on,,,,,0,0,14,,,,,7,,,66,100
58176,note_on,,,,,320,0,15,,,,,7,,,47,100
58176,note_on,,,,,64,0,12,,,,,5,,,59,85
58176,note_on,,,,,32,0,10,,,,,3,,,74,100
58272,note_on,,,,,2080,0,7,,,,,0,,,78,100
58304,note_off,,,,,128,0,8,,,,,1,,,83,100
58336,note_off,,,,,64,0,7,,,,,0,,,78,100
58364,note_off,,,,,188,0,12,,,,,5,,,59,100
58368,note_on,,,,,64,0,8,,,,,1,,,71,100
58368,note_on,,,,,4,0,12,,,,,5,,,62,85
58368,note_on,,,,,32,0,7,,,,,0,,,76,100
58432,note_off,,,,,0,0,14,,,,,7,,,66,100
58432,note_off,,,,,256,0,15,,,,,7,,,47,100
58432,note_off,,,,,256,0,10,,,,,3,,,74,100
58432,note_off,,,,,64,0,7,,,,,0,,,76,100
58432,note_off,,,,,256,0,13,,,,,6,,,35,100
58432,note_off,,,,,256,0,14,,,,,7,,,62,100
58464,note_on,,,,,32,0,7,,,,,0,,,78,100
58496,note_off,,,,,128,0,12,,,,,5,,,62,100
58496,note_off,,,,,128,0,8,,,,,1,,,71,100
58528,note_off,,,,,64,0,7,,,,,0,,,78,100
58560,note_on,,,,,64,0,12,,,,,5,,,59,85
58560,note_on,,,,,32,0,7,,,,,0,,,74,100
58624,note_off,,,,,64,0,7,,,,,0,,,74,100
58656,note_on,,,,,32,0,7,,,,,0,,,78,100
58688,note_off,,,,,128,0,12,,,,,5,,,59,100
58720,note_off,,,,,64,0,7,,,,,0,,,78,100
58752,note_on,,,,,32,0,7,,,,,0,,,83,100
58752,note_on,,,,,320,0,14,,,,,7,,,62,100
58752,note_on,,,,,0,0,14,,,,,7,,,66,100
58752,note_on,,,,,1408,0,9,,,,,2,,,74,100
58752,note_on,,,,,64,0,12,,,,,5,,,59,85
58752,note_on,,,,,320,0,13,,,,,6,,,35,85
58752,note_on,,,,,320,0,15,,,,,7,,,47,100
58844,note_off,,,,,92,0,7,,,,,0,,,83,100
58848,note_on,,,,,4,0,7,,,,,0,,,78,100
58940,note_off,,,,,188,0,9,,,,,2,,,74,100
58940,note_off,,,,,188,0,12,,,,,5,,,59,100
58940,note_off,,,,,92,0,7,,,,,0,,,78,100
58944,note_on,,,,,4,0,7,,,,,0,,,76,100
58944,note_on,,,,,4,0,12,,,,,5,,,62,85
58944,note_on,,,,,4,0,9,,,,,2,,,78,100
59008,note_off,,,,,256,0,13,,,,,6,,,35,100
59008,note_off,,,,,64,0,7,,,,,0,,,76,100
59008,note_off,,,,,256,0,14,,,,,7,,,62,100
59008,note_off,,,,,256,0,15,,,,,7,,,47,100
59008,note_off,,,,,0,0,14,,,,,7,,,66,100
59040,note_on,,,,,32,0,7,,,,,0,,,78,100
59072,note_off,,,,,128,0,12,,,,,5,,,62,100
59072,note_off,,,,,128,0,9,,,,,2,,,78,100
59104,note_off,,,,,64,0,7,,,,,0,,,78,100
59136,note_on,,,,,32,0,7,,,,,0,,,74,100
59136,note_on,,,,,64,0,12,,,,,5,,,59,85
59136,note_on,,,,,64,0,9,,,,,2,,,83,100
59200,note_off,,,,,64,0,7,,,,,0,,,74,100
59232,note_on,,,,,32,0,7,,,,,0,,,78,100
59264,note_off,,,,,128,0,9,,,,,2,,,83,100
59264,note_off,,,,,128,0,12,,,,,5,,,59,100
59296,note_off,,,,,64,0,7,,,,,0,,,78,100
59328,note_on,,,,,320,0,14,,,,,7,,,62,100
59328,note_on,,,,,0,0,14,,,,,7,,,66,100
59328,note_on,,,,,320,0,15,,,,,7,,,47,100
59328,note_on,,,,,64,0,9,,,,,2,,,74,100
59328,note_on,,,,,64,0,12,,,,,5,,,59,85
59328,note_on,,,,,320,0,13,,,,,6,,,35,85
59328,note_on,,,,,32,0,7,,,,,0,,,83,100
59420,note_off,,,,,92,0,7,,,,,0,,,83,100
59424,note_on,,,,,4,0,7,,,,,0,,,78,100
59516,note_off,,,,,188,0,9,,,,,2,,,74,100
59516,note_off,,,,,92,0,7,,,,,0,,,78,100
59516,note_off,,,,,188,0,12,,,,,5,,,59,100
59520,note_on,,,,,4,0,12,,,,,5,,,62,85
59520,note_on,,,,,4,0,7,,,,,0,,,76,100
59520,note_on,,,,,4,0,9,,,,,2,,,78,100
59584,note_off,,,,,256,0,15,,,,,7,,,47,100
59584,note_off,,,,,0,0,14,,,,,7,,,66,100
59584,note_off,,,,,256,0,14,,,,,7,,,62,100
59584,note_off,,,,,256,0,13,,,,,6,,,35,100
59584,note_off,,,,,64,0,7,,,,,0,,,76,100
59616,note_on,,,,,32,0,7,,,,,0,,,78,100
59648,note_off,,,,,128,0,12,,,,,5,,,62,100
59648,note_off,,,,,128,0,9,,,,,2,,,78,100
59680,note_off,,,,,64,0,7,,,,,0,,,78,100
59712,note_on,,,,,64,0,9,,,,,2,,,83,100
59712,note_on,,,,,64,0,12,,,,,5,,,59,85
59712,note_on,,,,,32,0,7,,,,,0,,,74,100
59776,note_off,,,,,64,0,7,,,,,0,,,74,100
59808,note_on,,,,,32,0,7,,,,,0,,,78,100
59840,note_off,,,,,128,0,12,,,,,5,,,59,100
59840,note_off,,,,,128,0,9,,,,,2,,,83,100
59872,note_off,,,,,64,0,7,,,,,0,,,78,100
59898,program_change,,,,,26,0,7,,,,,0,48,,,
59898,program_change,,,,,1466,0,10,,,,,3,48,,,
59898,program_change,,,,,58,0,9,,,,,2,48,,,
59898,program_change,,,,,1402,0,8,,,,,1,48,,,
59902,program_change,,,,,62,0,12,,,,,5,48,,,
59904,note_on,,,,,6,0,10,,,,,3,,,77,100
59904,note_on,,,,,0,0,14,,,,,7,,,71,100
59904,note_on,,,,,6,0,7,,,,,0,,,83,100
59904,note_on,,,,,14144,0,11,,,,,4,,,71,100
59904,note_on,,,,,6,0,8,,,,,1,,,80,100
59904,note_on,,,,,320,0,14,,,,,7,,,65,100
59904,note_on,,,,,2,0,12,,,,,5,,,49,100
59904,note_on,,,,,320,0,13,,,,,6,,,37,100
59904,note_on,,,,,320,0,15,,,,,7,,,49,100
59904,note_on,,,,,6,0,9,,,,,2,,,83,50
60032,note_off,,,,,128,0,11,,,,,4,,,71,100
60032,note_off,,,,,128,0,12,,,,,5,,,49,100
60096,note_on,,,,,64,0,11,,,,,4,,,68,100
60096,note_on,,,,,64,0,12,,,,,5,,,53,100
60160,note_off,,,,,256,0,8,,,,,1,,,80,100
60160,note_off,,,,,256,0,13,,,,,6,,,37,100
60160,note_off,,,,,256,0,9,,,,,2,,,83,100
60160,note_off,,,,,256,0,14,,,,,7,,,65,100
60160,note_off,,,,,0,0,14,,,,,7,,,71,100
60160,note_off,,,,,256,0,15,,,,,7,,,49,100
60160,note_off,,,,,256,0,7,,,,,0,,,83,100
60160,note_off,,,,,256,0,10,,,,,3,,,77,100
60224,note_off,,,,,128,0,12,,,,,5,,,53,100
60224,note_off,,,,,128,0,11,,,,,4,,,68,100
60288,note_on,,,,,64,0,12,,,,,5,,,56,100
60288,note_on,,,,,64,0,11,,,,,4,,,65,100
60416,note_off,,,,,128,0,12,,,,,5,,,56,100
60416,note_off,,,,,128,0,11,,,,,4,,,65,100
60480,note_on,,,,,320,0,9,,,,,2,,,83,50
60480,note_on,,,,,320,0,14,,,,,7,,,65,100
60480,note_on,,,,,320,0,13,,,,,6,,,37,100
60480,note_on,,,,,0,0,14,,,,,7,,,71,100
60480,note_on,,,,,64,0,12,,,,,5,,,59,100
60480,note_on,,,,,320,0,15,,,,,7,,,49,100
60480,note_on,,,,,64,0,11,,,,,4,,,61,100
60480,note_on,,,,,320,0,8,,,,,1,,,80,100
60480,note_on,,,,,320,0,10,,,,,3,,,77,100
60480,note_on,,,,,320,0,7,,,,,0,,,83,100
60608,note_off,,,,,128,0,12,,,,,5,,,59,100
60608,note_off,,,,,128,0,11,,,,,4,,,61,100
60672,note_on,,,,,64,0,11,,,,,4,,,65,100
60672,note_on,,,,,64,0,12,,,,,5,,,56,100
60736,note_off,,,,,256,0,15,,,,,7,,,49,100
60736,note_off,,,,,256,0,14,,,,,7,,,65,100
60736,note_off,,,,,0,0,14,,,,,7,,,71,100
60736,note_off,,,,,256,0,8,,,,,1,,,80,100
60736,note_off,,,,,256,0,10,,,,,3,,,77,100
60736,note_off,,,,,256,0,7,,,,,0,,,83,100
60736,note_off,,,,,256,0,13,,,,,6,,,37,100
60736,note_off,,,,,256,0,9,,,,,2,,,83,100
60800,note_off,,,,,128,0,12,,,,,5,,,56,100
60800,note_off,,,,,128,0,11,,,,,4,,,65,100
60864,note_on,,,,,64,0,11,,,,,4,,,68,100
60864,note_on,,,,,64,0,12,,,,,5,,,53,100
60992,note_off,,,,,128,0,11,,,,,4,,,68,100
60992,note_off,,,,,128,0,12,,,,,5,,,53,100
61056,note_on,,,,,320,0,8,,,,,1,,,80,100
61056,note_on,,,,,320,0,10,,,,,3,,,77,100
61056,note_on,,,,,64,0,11,,,,,4,,,71,100
61056,note_on,,,,,320,0,13,,,,,6,,,37,100
61056,note_on,,,,,64,0,12,,,,,5,,,49,100
61056,note_on,,,,,320,0,15,,,,,7,,,49,100
61056,note_on,,,,,320,0,7,,,,,0,,,83,100
61056,note_on,,,,,0,0,14,,,,,7,,,71,100
61056,note_on,,,,,320,0,14,,,,,7,,,65,100
61056,note_on,,,,,320,0,9,,,,,2,,,83,50
61184,note_off,,,,,128,0,12,,,,,5,,,49,100
61184,note_off,,,,,128,0,11,,,,,4,,,71,100
61248,note_on,,,,,64,0,12,,,,,5,,,53,100
61248,note_on,,,,,64,0,11,,,,,4,,,68,100
61312,note_off,,,,,256,0,10,,,,,3,,,77,100
61312,note_off,,,,,256,0,14,,,,,7,,,65,100
61312,note_off,,,,,0,0,14,,,,,7,,,71,100
61312,note_off,,,,,256,0,15,,,,,7,,,49,100
61312,note_off,,,,,256,0,7,,,,,0,,,83,100
61312,note_off,,,,,256,0,13,,,,,6,,,37,100
61312,note_off,,,,,256,0,8,,,,,1,,,80,100
61312,note_off,,,,,256,0,9,,,,,2,,,83,100
61376,note_off,,,,,128,0,12,,,,,5,,,53,100
61376,note_off,,,,,128,0,11,,,,,4,,,68,100
61440,note_on,,,,,64,0,12,,,,,5,,,56,100
61440,note_on,,,,,64,0,11,,,,,4,,,65,100
61568,note_off,,,,,128,0,11,,,,,4,,,65,100
61568,note_off,,,,,128,0,12,,,,,5,,,56,100
61632,note_on,,,,,320,0,15,,,,,7,,,49,100
61632,note_on,,,,,320,0,8,,,,,1,,,80,100
61632,note_on,,,,,0,0,14,,,,,7,,,71,100
61632,note_on,,,,,320,0,14,,,,,7,,,65,100
61632,note_on,,,,,320,0,9,,,,,2,,,83,50
61632,note_on,,,,,320,0,13,,,,,6,,,37,100
61632,note_on,,,,,320,0,10,,,,,3,,,77,100
61632,note_on,,,,,64,0,12,,,,,5,,,59,100
61632,note_on,,,,,320,0,7,,,,,0,,,83,100
61632,note_on,,,,,64,0,11,,,,,4,,,61,100
61760,note_off,,,,,128,0,12,,,,,5,,,59,100
61760,note_off,,,,,128,0,11,,,,,4,,,61,100
61824,note_on,,,,,64,0,12,,,,,5,,,56,100
61824,note_on,,,,,64,0,11,,,,,4,,,65,100
61888,note_off,,,,,256,0,14,,,,,7,,,65,100
61888,note_off,,,,,0,0,14,,,,,7,,,71,100
61888,note_off,,,,,256,0,8,,,,,1,,,80,100
61888,note_off,,,,,256,0,15,,,,,7,,,49,100
61888,note_off,,,,,256,0,13,,,,,6,,,37,100
61888,note_off,,,,,256,0,7,,,,,0,,,83,100
61888,note_off,,,,,256,0,10,,,,,3,,,77,100
61888,note_off,,,,,256,0,9,,,,,2,,,83,100
61952,note_off,,,,,128,0,12,,,,,5,,,56,100
61952,note_off,,,,,128,0,11,,,,,4,,,65,100
62016,note_on,,,,,64,0,12,,,,,5,,,53,100
62016,note_on,,,,,64,0,11,,,,,4,,,68,100
62144,note_off,,,,,128,0,12,,,,,5,,,53,100
62144,note_off,,,,,128,0,11,,,,,4,,,68,100
62208,note_on,,,,,320,0,10,,,,,3,,,77,100
62208,note_on,,,,,320,0,15,,,,,7,,,49,100
62208,note_on,,,,,64,0,12,,,,,5,,,49,100
62208,note_on,,,,,320,0,8,,,,,1,,,80,100
62208,note_on,,,,,320,0,7,,,,,0,,,83,100
62208,note_on,,,,,0,0,11,,,,,4,,,68,100
62208,note_on,,,,,320,0,13,,,,,6,,,37,100
62208,note_on,,,,,64,0,11,,,,,4,,,65,100
62208,note_on,,,,,320,0,14,,,,,7,,,65,100
62208,note_on,,,,,0,0,14,,,,,7,,,71,100
62208,note_on,,,,,320,0,9,,,,,2,,,83,50
62464,note_off,,,,,256,0,9,,,,,2,,,83,100
62464,note_off,,,,,256,0,12,,,,,5,,,49,100
62464,note_off,,,,,0,0,11,,,,,4,,,68,100
62464,note_off,,,,,256,0,11,,,,,4,,,65,100
62464,note_off,,,,,256,0,14,,,,,7,,,65,100
62464,note_off,,,,,256,0,10,,,,,3,,,77,100
62464,note_off,,,,,256,0,15,,,,,7,,,49,100
62464,note_off,,,,,256,0,13,,,,,6,,,37,100
62464,note_off,,,,,0,0,14,,,,,7,,,71,100
62464,note_off,,,,,256,0,8,,,,,1,,,80,100
62464,note_off,,,,,256,0,7,,,,,0,,,83,100
62784,note_on,,,,,320,0,9,,,,,2,,,81,50
62784,note_on,,,,,320,0,12,,,,,5,,,42,100
62784,note_on,,,,,0,0,11,,,,,4,,,69,100
62784,note_on,,,,,320,0,11,,,,,4,,,61,100
62784,note_on,,,,,320,0,8,,,,,1,,,78,100
62784,note_on,,,,,320,0,7,,,,,0,,,81,100
62784,note_on,,,,,320,0,13,,,,,6,,,42,100
62784,note_on,,,,,320,0,14,,,,,7,,,69,100
62784,note_on,,,,,0,0,14,,,,,7,,,61,100
62784,note_on,,,,,320,0,10,,,,,3,,,78,50
62784,note_on,,,,,320,0,15,,,,,7,,,42,100
62912,note_off,,,,,128,0,13,,,,,6,,,42,100
62912,note_off,,,,,128,0,14,,,,,7,,,69,100
62912,note_off,,,,,0,0,14,,,,,7,,,61,100
62912,note_off,,,,,128,0,15,,,,,7,,,42,100
62912,note_off,,,,,128,0,12,,,,,5,,,42,100
62976,note_on,,,,,0,0,14,,,,,7,,,69,100
62976,note_on,,,,,64,0,15,,,,,7,,,54,100
62976,note_on,,,,,64,0,14,,,,,7,,,73,100
62976,note_on,,,,,64,0,12,,,,,5,,,54,99
62976,note_on,,,,,64,0,13,,,,,6,,,42,99
63040,note_off,,,,,256,0,8,,,,,1,,,78,100
63040,note_off,,,,,0,0,11,,,,,4,,,69,100
63040,note_off,,,,,256,0,9,,,,,2,,,81,100
63040,note_off,,,,,256,0,7,,,,,0,,,81,100
63040,note_off,,,,,256,0,10,,,,,3,,,78,100
63040,note_off,,,,,256,0,11,,,,,4,,,61,100
63104,note_off,,,,,128,0,15,,,,,7,,,54,100
63104,note_off,,,,,128,0,14,,,,,7,,,73,100
63104,note_off,,,,,0,0,14,,,,,7,,,69,100
63104,note_off,,,,,128,0,12,,,,,5,,,54,100
63104,note_off,,,,,128,0,13,,,,,6,,,42,100
63168,note_on,,,,,64,0,13,,,,,6,,,42,97
63168,note_on,,,,,64,0,12,,,,,5,,,42,97
63168,note_on,,,,,64,0,15,,,,,7,,,42,100
63168,note_on,,,,,64,0,14,,,,,7,,,61,100
63168,note_on,,,,,0,0,14,,,,,7,,,69,100
63296,note_off,,,,,128,0,13,,,,,6,,,42,100
63296,note_off,,,,,128,0,15,,,,,7,,,42,100
63296,note_off,,,,,128,0,14,,,,,7,,,61,100
63296,note_off,,,,,0,0,14,,,,,7,,,69,100
63296,note_off,,,,,128,0,12,,,,,5,,,42,100
63360,note_on,,,,,320,0,10,,,,,3,,,78,45
63360,note_on,,,,,320,0,8,,,,,1,,,78,95
63360,note_on,,,,,320,0,7,,,,,0,,,80,95
63360,note_on,,,,,64,0,13,,,,,6,,,35,95
63360,note_on,,,,,64,0,12,,,,,5,,,47,95
63360,note_on,,,,,320,0,11,,,,,4,,,62,95
63360,note_on,,,,,0,0,11,,,,,4,,,71,95
63360,note_on,,,,,0,0,14,,,,,7,,,66,100
63360,note_on,,,,,320,0,9,,,,,2,,,80,45
63360,note_on,,,,,64,0,15,,,,,7,,,47,100
63360,note_on,,,,,64,0,14,,,,,7,,,68,100
63488,note_off,,,,,128,0,12,,,,,5,,,47,100
63488,note_off,,,,,128,0,15,,,,,7,,,47,100
63488,note_off,,,,,128,0,14,,,,,7,,,68,100
63488,note_off,,,,,128,0,13,,,,,6,,,35,100
63488,note_off,,,,,0,0,14,,,,,7,,,66,100
63552,note_on,,,,,64,0,12,,,,,5,,,59,93
63552,note_on,,,,,0,0,14,,,,,7,,,68,100
63552,note_on,,,,,64,0,15,,,,,7,,,59,100
63552,note_on,,,,,64,0,14,,,,,7,,,78,100
63552,note_on,,,,,64,0,13,,,,,6,,,47,93
63616,note_off,,,,,256,0,8,,,,,1,,,78,100
63616,note_off,,,,,256,0,7,,,,,0,,,80,100
63616,note_off,,,,,256,0,10,,,,,3,,,78,100
63616,note_off,,,,,256,0,9,,,,,2,,,80,100
63616,note_off,,,,,256,0,11,,,,,4,,,62,100
63616,note_off,,,,,0,0,11,,,,,4,,,71,100
63680,note_off,,,,,128,0,15,,,,,7,,,59,100
63680,note_off,,,,,128,0,14,,,,,7,,,78,100
63680,note_off,,,,,0,0,14,,,,,7,,,68,100
63680,note_off,,,,,128,0,13,,,,,6,,,47,100
63680,note_off,,,,,128,0,12,,,,,5,,,59,100
63744,note_on,,,,,64,0,12,,,,,5,,,47,91
63744,note_on,,,,,64,0,14,,,,,7,,,66,100
63744,note_on,,,,,0,0,14,,,,,7,,,68,100
63744,note_on,,,,,64,0,13,,,,,6,,,35,91
63744,note_on,,,,,64,0,15,,,,,7,,,47,100
63872,note_off,,,,,0,0,14,,,,,7,,,68,100
63872,note_off,,,,,128,0,15,,,,,7,,,47,100
63872,note_off,,,,,128,0,14,,,,,7,,,66,100
63872,note_off,,,,,128,0,12,,,,,5,,,47,100
63872,note_off,,,,,128,0,13,,,,,6,,,35,100
63936,note_on,,,,,320,0,10,,,,,3,,,77,39
63936,note_on,,,,,320,0,8,,,,,1,,,77,89
63936,note_on,,,,,0,0,14,,,,,7,,,68,100
63936,note_on,,,,,64,0,14,,,,,7,,,65,100
63936,note_on,,,,,320,0,7,,,,,0,,,80,89
63936,note_on,,,,,320,0,9,,,,,2,,,80,39
63936,note_on,,,,,320,0,11,,,,,4,,,61,89
63936,note_on,,,,,64,0,13,,,,,6,,,37,89
63936,note_on,,,,,64,0,15,,,,,7,,,49,100
63936,note_on,,,,,64,0,12,,,,,5,,,49,89
63936,note_on,,,,,0,0,11,,,,,4,,,68,89
64064,note_off,,,,,0,0,14,,,,,7,,,68,100
64064,note_off,,,,,128,0,14,,,,,7,,,65,100
64064,note_off,,,,,128,0,12,,,,,5,,,49,100
64064,note_off,,,,,128,0,13,,,,,6,,,37,100
64064,note_off,,,,,128,0,15,,,,,7,,,49,100
64128,note_on,,,,,64,0,12,,,,,5,,,61,87
64128,note_on,,,,,64,0,15,,,,,7,,,61,100
64128,note_on,,,,,64,0,14,,,,,7,,,77,100
64128,note_on,,,,,0,0,14,,,,,7,,,68,100
64128,note_on,,,,,64,0,13,,,,,6,,,49,87
64192,note_off,,,,,0,0,11,,,,,4,,,68,100
64192,note_off,,,,,256,0,10,,,,,3,,,77,100
64192,note_off,,,,,256,0,11,,,,,4,,,61,100
64192,note_off,,,,,256,0,8,,,,,1,,,77,100
64192,note_off,,,,,256,0,9,,,,,2,,,80,100
64192,note_off,,,,,256,0,7,,,,,0,,,80,100
64256,note_off,,,,,128,0,13,,,,,6,,,49,100
64256,note_off,,,,,128,0,15,,,,,7,,,61,100
64256,note_off,,,,,128,0,14,,,,,7,,,77,100
64256,note_off,,,,,0,0,14,,,,,7,,,68,100
64256,note_off,,,,,128,0,12,,,,,5,,,61,100
64320,note_on,,,,,64,0,13,,,,,6,,,37,86
64320,note_on,,,,,64,0,15,,,,,7,,,49,100
64320,note_on,,,,,64,0,14,,,,,7,,,65,100
64320,note_on,,,,,0,0,14,,,,,7,,,68,100
64320,note_on,,,,,64,0,12,,,,,5,,,49,86
64448,note_off,,,,,128,0,13,,,,,6,,,37,100
64448,note_off,,,,,128,0,15,,,,,7,,,49,100
64448,note_off,,,,,0,0,14,,,,,7,,,68,100
64448,note_off,,,,,128,0,12,,,,,5,,,49,100
64448,note_off,,,,,128,0,14,,,,,7,,,65,100
64512,note_on,,,,,320,0,8,,,,,1,,,78,40
64512,note_on,,,,,64,0,12,,,,,5,,,54,90
64512,note_on,,,,,320,0,10,,,,,3,,,78,40
64512,note_on,,,,,64,0,13,,,,,6,,,42,90
64512,note_on,,,,,64,0,15,,,,,7,,,54,100
64512,note_on,,,,,0,0,11,,,,,4,,,69,90
64512,note_on,,,,,320,0,11,,,,,4,,,61,90
64512,note_on,,,,,64,0,14,,,,,7,,,69,100
64512,note_on,,,,,0,0,14,,,,,7,,,73,100
64512,note_on,,,,,320,0,7,,,,,0,,,78,90
64512,note_on,,,,,320,0,9,,,,,2,,,78,40
64640,note_off,,,,,128,0,10,,,,,3,,,78,100
64640,note_off,,,,,128,0,8,,,,,1,,,78,100
64640,note_off,,,,,128,0,7,,,,,0,,,78,100
64640,note_off,,,,,128,0,9,,,,,2,,,78,100
64704,note_on,,,,,64,0,10,,,,,3,,,81,40
64704,note_on,,,,,64,0,7,,,,,0,,,81,90
64704,note_on,,,,,64,0,8,,,,,1,,,81,40
64704,note_on,,,,,64,0,9,,,,,2,,,81,40
64768,note_off,,,,,64,0,9,,,,,2,,,81,100
64768,note_off,,,,,64,0,10,,,,,3,,,81,100
64768,note_off,,,,,64,0,8,,,,,1,,,81,100
64768,note_off,,,,,256,0,12,,,,,5,,,54,100
64768,note_off,,,,,256,0,15,,,,,7,,,54,100
64768,note_off,,,,,0,0,11,,,,,4,,,69,100
64768,note_off,,,,,256,0,13,,,,,6,,,42,100
64768,note_off,,,,,64,0,7,,,,,0,,,81,100
64768,note_off,,,,,256,0,11,,,,,4,,,61,100
64768,note_off,,,,,0,0,14,,,,,7,,,73,100
64768,note_off,,,,,256,0,14,,,,,7,,,69,100
64800,note_on,,,,,32,0,8,,,,,1,,,80,40
64800,note_on,,,,,32,0,9,,,,,2,,,80,40
64800,note_on,,,,,32,0,7,,,,,0,,,80,90
64800,note_on,,,,,32,0,10,,,,,3,,,80,40
64864,note_off,,,,,64,0,9,,,,,2,,,80,100
64864,note_off,,,,,64,0,7,,,,,0,,,80,100
64864,note_off,,,,,64,0,8,,,,,1,,,80,100
64864,note_off,,,,,64,0,10,,,,,3,,,80,100
64896,note_on,,,,,32,0,9,,,,,2,,,78,40
64896,note_on,,,,,32,0,10,,,,,3,,,78,40
64896,note_on,,,,,32,0,7,,,,,0,,,78,90
64896,note_on,,,,,32,0,8,,,,,1,,,78,40
65024,note_off,,,,,128,0,7,,,,,0,,,78,100
65024,note_off,,,,,128,0,10,,,,,3,,,78,100
65024,note_off,,,,,128,0,9,,,,,2,,,78,100
65024,note_off,,,,,128,0,8,,,,,1,,,78,100
65088,note_on,,,,,0,0,14,,,,,7,,,73,100
65088,note_on,,,,,64,0,10,,,,,3,,,73,40
65088,note_on,,,,,320,0,14,,,,,7,,,69,100
65088,note_on,,,,,320,0,15,,,,,7,,,54,100
65088,note_on,,,,,320,0,12,,,,,5,,,54,90
65088,note_on,,,,,64,0,7,,,,,0,,,73,90
65088,note_on,,,,,0,0,11,,,,,4,,,61,90
65088,note_on,,,,,320,0,11,,,,,4,,,57,90
65088,note_on,,,,,320,0,13,,,,,6,,,42,90
65088,note_on,,,,,64,0,8,,,,,1,,,73,40
65088,note_on,,,,,64,0,9,,,,,2,,,73,40
65216,note_off,,,,,128,0,8,,,,,1,,,73,100
65216,note_off,,,,,128,0,9,,,,,2,,,73,100
65216,note_off,,,,,128,0,7,,,,,0,,,73,100
65216,note_off,,,,,128,0,10,,,,,3,,,73,100
65280,note_on,,,,,64,0,9,,,,,2,,,78,40
65280,note_on,,,,,64,0,8,,,,,1,,,78,40
65280,note_on,,,,,64,0,10,,,,,3,,,78,40
65280,note_on,,,,,64,0,7,,,,,0,,,78,90
65344,note_off,,,,,0,0,11,,,,,4,,,61,100
65344,note_off,,,,,256,0,14,,,,,7,,,69,100
65344,note_off,,,,,256,0,13,,,,,6,,,42,100
65344,note_off,,,,,256,0,15,,,,,7,,,54,100
65344,note_off,,,,,256,0,11,,,,,4,,,57,100
65344,note_off,,,,,0,0,14,,,,,7,,,73,100
65344,note_off,,,,,256,0,12,,,,,5,,,54,100
65408,note_off,,,,,128,0,9,,,,,2,,,78,100
65408,note_off,,,,,128,0,10,,,,,3,,,78,100
65408,note_off,,,,,128,0,8,,,,,1,,,78,100
65408,note_off,,,,,128,0,7,,,,,0,,,78,100
65472,note_on,,,,,64,0,7,,,,,0,,,73,90
65472,note_on,,,,,64,0,8,,,,,1,,,73,40
65472,note_on,,,,,64,0,10,,,,,3,,,73,40
65472,note_on,,,,,64,0,9,,,,,2,,,73,40
65600,note_off,,,,,128,0,10,,,,,3,,,73,100
65600,note_off,,,,,128,0,7,,,,,0,,,73,100
65600,note_off,,,,,128,0,9,,,,,2,,,73,100
65600,note_off,,,,,128,0,8,,,,,1,,,73,100
65664,note_on,,,,,0,0,14,,,,,7,,,73,100
65664,note_on,,,,,320,0,15,,,,,7,,,54,100
65664,note_on,,,,,320,0,12,,,,,5,,,54,90
65664,note_on,,,,,320,0,13,,,,,6,,,42,90
65664,note_on,,,,,320,0,11,,,,,4,,,57,90
65664,note_on,,,,,64,0,7,,,,,0,,,69,90
65664,note_on,,,,,64,0,10,,,,,3,,,69,40
65664,note_on,,,,,64,0,8,,,,,1,,,69,40
65664,note_on,,,,,0,0,11,,,,,4,,,61,90
65664,note_on,,,,,320,0,14,,,,,7,,,69,100
65664,note_on,,,,,64,0,9,,,,,2,,,69,40
65792,note_off,,,,,128,0,7,,,,,0,,,69,100
65792,note_off,,,,,128,0,8,,,,,1,,,69,100
65792,note_off,,,,,128,0,9,,,,,2,,,69,100
65792,note_off,,,,,128,0,10,,,,,3,,,69,100
65856,note_on,,,,,64,0,7,,,,,0,,,73,90
65856,note_on,,,,,64,0,8,,,,,1,,,73,40
65856,note_on,,,,,64,0,10,,,,,3,,,73,40
65856,note_on,,,,,64,0,9,,,,,2,,,73,40
65920,note_off,,,,,256,0,15,,,,,7,,,54,100
65920,note_off,,,,,256,0,12,,,,,5,,,54,100
65920,note_off,,,,,0,0,14,,,,,7,,,73,100
65920,note_off,,,,,64,0,9,,,,,2,,,73,100
65920,note_off,,,,,0,0,11,,,,,4,,,61,100
65920,note_off,,,,,64,0,7,,,,,0,,,73,100
65920,note_off,,,,,256,0,14,,,,,7,,,69,100
65920,note_off,,,,,64,0,10,,,,,3,,,73,100
65920,note_off,,,,,256,0,13,,,,,6,,,42,100
65920,note_off,,,,,64,0,8,,,,,1,,,73,100
65920,note_off,,,,,256,0,11,,,,,4,,,57,100
65952,note_on,,,,,32,0,8,,,,,1,,,71,40
65952,note_on,,,,,32,0,10,,,,,3,,,71,40
65952,note_on,,,,,32,0,9,,,,,2,,,71,40
65952,note_on,,,,,32,0,7,,,,,0,,,71,90
66016,note_off,,,,,64,0,7,,,,,0,,,71,100
66016,note_off,,,,,64,0,9,,,,,2,,,71,100
66016,note_off,,,,,64,0,10,,,,,3,,,71,100
66016,note_off,,,,,64,0,8,,,,,1,,,71,100
66048,note_on,,,,,32,0,7,,,,,0,,,69,90
66048,note_on,,,,,32,0,10,,,,,3,,,69,40
66048,note_on,,,,,32,0,8,,,,,1,,,69,40
66048,note_on,,,,,32,0,9,,,,,2,,,69,40
66176,note_off,,,,,128,0,7,,,,,0,,,69,100
66176,note_off,,,,,128,0,10,,,,,3,,,69,100
66176,note_off,,,,,128,0,9,,,,,2,,,69,100
66176,note_off,,,,,128,0,8,,,,,1,,,69,100
66240,note_on,,,,,0,0,14,,,,,7,,,73,100
66240,note_on,,,,,320,0,14,,,,,7,,,69,100
66240,note_on,,,,,64,0,10,,,,,3,,,66,40
66240,note_on,,,,,320,0,13,,,,,6,,,42,90
66240,note_on,,,,,320,0,15,,,,,7,,,54,100
66240,note_on,,,,,320,0,12,,,,,5,,,54,90
66240,note_on,,,,,320,0,11,,,,,4,,,57,90
66240,note_on,,,,,0,0,11,,,,,4,,,61,90
66240,note_on,,,,,64,0,7,,,,,0,,,66,90
66240,note_on,,,,,64,0,8,,,,,1,,,66,40
66240,note_on,,,,,64,0,9,,,,,2,,,66,40
66368,note_off,,,,,128,0,8,,,,,1,,,66,100
66368,note_off,,,,,128,0,9,,,,,2,,,66,100
66368,note_off,,,,,128,0,7,,,,,0,,,66,100
66368,note_off,,,,,128,0,10,,,,,3,,,66,100
66432,note_on,,,,,64,0,7,,,,,0,,,69,93
66432,note_on,,,,,64,0,9,,,,,2,,,69,43
66432,note_on,,,,,64,0,8,,,,,1,,,69,43
66432,note_on,,,,,64,0,10,,,,,3,,,69,43
66496,note_off,,,,,0,0,11,,,,,4,,,61,100
66496,note_off,,,,,256,0,14,,,,,7,,,69,100
66496,note_off,,,,,256,0,12,,,,,5,,,54,100
66496,note_off,,,,,0,0,14,,,,,7,,,73,100
66496,note_off,,,,,256,0,15,,,,,7,,,54,100
66496,note_off,,,,,256,0,11,,,,,4,,,57,100
66496,note_off,,,,,256,0,13,,,,,6,,,42,100
66560,note_off,,,,,128,0,9,,,,,2,,,69,100
66560,note_off,,,,,128,0,7,,,,,0,,,69,100
66560,note_off,,,,,128,0,8,,,,,1,,,69,100
66560,note_off,,,,,128,0,10,,,,,3,,,69,100
66624,note_on,,,,,64,0,9,,,,,2,,,73,46
66624,note_on,,,,,64,0,7,,,,,0,,,73,96
66624,note_on,,,,,64,0,10,,,,,3,,,73,46
66624,note_on,,,,,64,0,8,,,,,1,,,73,46
66752,note_off,,,,,128,0,7,,,,,0,,,73,100
66752,note_off,,,,,128,0,9,,,,,2,,,73,100
66752,note_off,,,,,128,0,8,,,,,1,,,73,100
66752,note_off,,,,,128,0,10,,,,,3,,,73,100
66816,note_on,,,,,320,0,15,,,,,7,,,54,100
66816,note_on,,,,,64,0,9,,,,,2,,,78,49
66816,note_on,,,,,320,0,11,,,,,4,,,57,99
66816,note_on,,,,,0,0,14,,,,,7,,,73,100
66816,note_on,,,,,320,0,14,,,,,7,,,69,100
66816,note_on,,,,,320,0,12,,,,,5,,,54,99
66816,note_on,,,,,64,0,7,,,,,0,,,78,99
66816,note_on,,,,,64,0,8,,,,,1,,,78,49
66816,note_on,,,,,64,0,10,,,,,3,,,78,49
66816,note_on,,,,,320,0,13,,,,,6,,,42,99
66816,note_on,,,,,0,0,11,,,,,4,,,61,99
66944,note_off,,,,,0,0,14,,,,,7,,,73,100
66944,note_off,,,,,128,0,12,,,,,5,,,54,100
66944,note_off,,,,,128,0,14,,,,,7,,,69,100
66944,note_off,,,,,128,0,15,,,,,7,,,54,100
66944,note_off,,,,,128,0,13,,,,,6,,,42,100
67008,note_on,,,,,64,0,12,,,,,5,,,49,90
67008,note_on,,,,,64,0,14,,,,,7,,,64,100
67008,note_on,,,,,64,0,15,,,,,7,,,49,100
67008,note_on,,,,,64,0,13,,,,,6,,,37,90
67072,note_off,,,,,256,0,8,,,,,1,,,78,100
67072,note_off,,,,,256,0,10,,,,,3,,,78,100
67072,note_off,,,,,64,0,14,,,,,7,,,64,100
67072,note_off,,,,,64,0,15,,,,,7,,,49,100
67072,note_off,,,,,64,0,13,,,,,6,,,37,100
67072,note_off,,,,,256,0,7,,,,,0,,,78,100
67072,note_off,,,,,256,0,9,,,,,2,,,78,100
67072,note_off,,,,,64,0,12,,,,,5,,,49,100
67104,note_on,,,,,32,0,14,,,,,7,,,62,100
67104,note_on,,,,,32,0,12,,,,,5,,,47,90
67104,note_on,,,,,32,0,15,,,,,7,,,47,100
67104,note_on,,,,,32,0,13,,,,,6,,,35,90
67168,note_off,,,,,64,0,15,,,,,7,,,47,100
67168,note_off,,,,,64,0,13,,,,,6,,,35,100
67168,note_off,,,,,64,0,14,,,,,7,,,62,100
67168,note_off,,,,,64,0,12,,,,,5,,,47,100
67200,note_off,,,,,0,0,11,,,,,4,,,61,100
67200,note_on,,,,,32,0,12,,,,,5,,,45,90
67200,note_on,,,,,128,0,10,,,,,3,,,66,40
67200,note_on,,,,,32,0,13,,,,,6,,,33,90
67200,note_on,,,,,32,0,15,,,,,7,,,45,100
67200,note_off,,,,,384,0,11,,,,,4,,,57,100
67200,note_on,,,,,128,0,7,,,,,0,,,66,90
67200,note_on,,,,,0,0,14,,,,,7,,,61,100
67200,note_on,,,,,128,0,8,,,,,1,,,66,40
67200,note_on,,,,,32,0,14,,,,,7,,,66,100
67200,note_on,,,,,128,0,9,,,,,2,,,66,40
67328,note_off,,,,,0,0,14,,,,,7,,,61,100
67328,note_off,,,,,128,0,10,,,,,3,,,66,100
67328,note_off,,,,,128,0,12,,,,,5,,,45,100
67328,note_off,,,,,128,0,9,,,,,2,,,66,100
67328,note_off,,,,,128,0,14,,,,,7,,,66,100
67328,note_off,,,,,128,0,15,,,,,7,,,45,100
67328,note_off,,,,,128,0,8,,,,,1,,,66,100
67328,note_off,,,,,128,0,7,,,,,0,,,66,100
67328,note_off,,,,,128,0,13,,,,,6,,,33,100
67392,note_on,,,,,64,0,13,,,,,6,,,42,90
67392,note_on,,,,,0,0,14,,,,,7,,,61,100
67392,note_on,,,,,64,0,12,,,,,5,,,42,90
67392,note_on,,,,,64,0,14,,,,,7,,,57,100
67392,note_on,,,,,64,0,15,,,,,7,,,42,100
67520,note_off,,,,,128,0,15,,,,,7,,,42,100
67520,note_off,,,,,128,0,12,,,,,5,,,42,100
67520,note_off,,,,,128,0,13,,,,,6,,,42,100
67520,note_off,,,,,128,0,14,,,,,7,,,57,100
67520,note_off,,,,,0,0,14,,,,,7,,,61,100
67584,note_on,,,,,64,0,14,,,,,7,,,66,100
67584,note_on,,,,,0,0,14,,,,,7,,,61,100
67584,note_on,,,,,64,0,13,,,,,6,,,33,93
67584,note_on,,,,,64,0,15,,,,,7,,,45,100
67584,note_on,,,,,64,0,12,,,,,5,,,45,93
67712,note_off,,,,,128,0,13,,,,,6,,,33,100
67712,note_off,,,,,128,0,14,,,,,7,,,66,100
67712,note_off,,,,,0,0,14,,,,,7,,,61,100
67712,note_off,,,,,128,0,12,,,,,5,,,45,100
67712,note_off,,,,,128,0,15,,,,,7,,,45,100
67776,note_on,,,,,0,0,14,,,,,7,,,66,100
67776,note_on,,,,,64,0,12,,,,,5,,,49,96
67776,note_on,,,,,64,0,14,,,,,7,,,69,100
67776,note_on,,,,,64,0,15,,,,,7,,,49,100
67776,note_on,,,,,64,0,13,,,,,6,,,37,96
67904,note_off,,,,,128,0,14,,,,,7,,,69,100
67904,note_off,,,,,128,0,15,,,,,7,,,49,100
67904,note_off,,,,,0,0,14,,,,,7,,,66,100
67904,note_off,,,,,128,0,13,,,,,6,,,37,100
67904,note_off,,,,,128,0,12,,,,,5,,,49,100
67968,note_on,,,,,0,0,14,,,,,7,,,69,100
67968,note_on,,,,,640,0,9,,,,,2,,,81,100
67968,note_on,,,,,64,0,13,,,,,6,,,42,100
67968,note_on,,,,,640,0,8,,,,,1,,,78,50
67968,note_on,,,,,640,0,7,,,,,0,,,81,50
67968,note_on,,,,,64,0,14,,,,,7,,,73,100
67968,note_on,,,,,64,0,15,,,,,7,,,54,100
67968,note_on,,,,,64,0,12,,,,,5,,,54,100
67968,note_on,,,,,640,0,10,,,,,3,,,78,100
68032,note_off,,,,,64,0,8,,,,,1,,,78,100
68032,note_off,,,,,64,0,9,,,,,2,,,81,100
68032,note_off,,,,,64,0,10,,,,,3,,,78,100
68032,note_off,,,,,64,0,7,,,,,0,,,81,100
68064,note_on,,,,,32,0,7,,,,,0,,,83,49
68064,note_on,,,,,32,0,8,,,,,1,,,80,49
68064,note_on,,,,,32,0,10,,,,,3,,,80,99
68064,note_on,,,,,32,0,9,,,,,2,,,83,99
68096,note_off,,,,,128,0,14,,,,,7,,,73,100
68096,note_off,,,,,0,0,14,,,,,7,,,69,100
68096,note_off,,,,,128,0,13,,,,,6,,,42,100
68096,note_off,,,,,128,0,15,,,,,7,,,54,100
68096,note_off,,,,,128,0,12,,,,,5,,,54,100
68128,note_off,,,,,64,0,8,,,,,1,,,80,100
68128,note_off,,,,,64,0,9,,,,,2,,,83,100
68128,note_off,,,,,64,0,7,,,,,0,,,83,100
68128,note_off,,,,,64,0,10,,,,,3,,,80,100
68160,note_on,,,,,64,0,12,,,,,5,,,48,97
68160,note_on,,,,,64,0,13,,,,,6,,,36,97
68160,note_on,,,,,0,0,11,,,,,4,,,60,97
68160,note_on,,,,,32,0,9,,,,,2,,,81,97
68160,note_on,,,,,0,0,14,,,,,7,,,66,100
68160,note_on,,,,,64,0,14,,,,,7,,,63,100
68160,note_on,,,,,64,0,15,,,,,7,,,48,100
68160,note_on,,,,,32,0,10,,,,,3,,,78,97
68160,note_on,,,,,960,0,11,,,,,4,,,63,97
68160,note_on,,,,,32,0,8,,,,,1,,,78,47
68160,note_on,,,,,32,0,7,,,,,0,,,81,47
68224,note_off,,,,,64,0,10,,,,,3,,,78,100
68224,note_off,,,,,64,0,8,,,,,1,,,78,100
68224,note_off,,,,,64,0,7,,,,,0,,,81,100
68224,note_off,,,,,64,0,9,,,,,2,,,81,100
68256,note_on,,,,,32,0,7,,,,,0,,,83,46
68256,note_on,,,,,32,0,8,,,,,1,,,80,46
68256,note_on,,,,,32,0,9,,,,,2,,,83,96
68256,note_on,,,,,32,0,10,,,,,3,,,80,96
68288,note_off,,,,,128,0,11,,,,,4,,,63,100
68288,note_off,,,,,0,0,11,,,,,4,,,60,100
68288,note_off,,,,,128,0,15,,,,,7,,,48,100
68288,note_off,,,,,128,0,14,,,,,7,,,63,100
68288,note_off,,,,,0,0,14,,,,,7,,,66,100
68288,note_off,,,,,128,0,12,,,,,5,,,48,100
68288,note_off,,,,,128,0,13,,,,,6,,,36,100
68320,note_off,,,,,64,0,9,,,,,2,,,83,100
68320,note_off,,,,,64,0,10,,,,,3,,,80,100
68320,note_off,,,,,64,0,7,,,,,0,,,83,100
68320,note_off,,,,,64,0,8,,,,,1,,,80,100
68352,note_on,,,,,32,0,9,,,,,2,,,81,94
68352,note_on,,,,,64,0,11,,,,,4,,,66,94
68352,note_on,,,,,32,0,7,,,,,0,,,81,44
68352,note_on,,,,,32,0,10,,,,,3,,,78,94
68352,note_on,,,,,0,0,11,,,,,4,,,63,94
68352,note_on,,,,,64,0,12,,,,,5,,,48,94
68352,note_on,,,,,64,0,15,,,,,7,,,48,100
68352,note_on,,,,,64,0,13,,,,,6,,,36,94
68352,note_on,,,,,32,0,8,,,,,1,,,78,44
68352,note_on,,,,,64,0,14,,,,,7,,,63,100
68352,note_on,,,,,0,0,14,,,,,7,,,66,100
68416,note_off,,,,,64,0,9,,,,,2,,,81,100
68416,note_off,,,,,64,0,10,,,,,3,,,78,100
68416,note_off,,,,,64,0,8,,,,,1,,,78,100
68416,note_off,,,,,64,0,7,,,,,0,,,81,100
68448,note_on,,,,,32,0,10,,,,,3,,,80,92
68448,note_on,,,,,32,0,8,,,,,1,,,80,42
68448,note_on,,,,,32,0,7,,,,,0,,,83,42
68448,note_on,,,,,32,0,9,,,,,2,,,83,92
68480,note_off,,,,,128,0,15,,,,,7,,,48,100
68480,note_off,,,,,0,0,11,,,,,4,,,63,100
68480,note_off,,,,,128,0,13,,,,,6,,,36,100
68480,note_off,,,,,128,0,14,,,,,7,,,63,100
68480,note_off,,,,,0,0,14,,,,,7,,,66,100
68480,note_off,,,,,128,0,12,,,,,5,,,48,100
68480,note_off,,,,,128,0,11,,,,,4,,,66,100
68512,note_off,,,,,64,0,7,,,,,0,,,83,100
68512,note_off,,,,,64,0,8,,,,,1,,,80,100
68512,note_off,,,,,64,0,9,,,,,2,,,83,100
68512,note_off,,,,,64,0,10,,,,,3,,,80,100
68544,note_on,,,,,64,0,11,,,,,4,,,68,91
68544,note_on,,,,,64,0,13,,,,,6,,,37,91
68544,note_on,,,,,0,0,11,,,,,4,,,65,91
68544,note_on,,,,,32,0,10,,,,,3,,,77,91
68544,note_on,,,,,64,0,12,,,,,5,,,49,91
68544,note_on,,,,,32,0,9,,,,,2,,,80,91
68544,note_on,,,,,64,0,14,,,,,7,,,68,100
68544,note_on,,,,,0,0,14,,,,,7,,,65,100
68544,note_on,,,,,64,0,15,,,,,7,,,49,100
68544,note_on,,,,,32,0,7,,,,,0,,,80,41
68544,note_on,,,,,32,0,8,,,,,1,,,77,41
68672,note_off,,,,,128,0,12,,,,,5,,,49,100
68672,note_off,,,,,128,0,8,,,,,1,,,77,100
68672,note_off,,,,,128,0,13,,,,,6,,,37,100
68672,note_off,,,,,128,0,15,,,,,7,,,49,100
68672,note_off,,,,,0,0,11,,,,,4,,,65,100
68672,note_off,,,,,128,0,10,,,,,3,,,77,100
68672,note_off,,,,,128,0,9,,,,,2,,,80,100
68672,note_off,,,,,128,0,11,,,,,4,,,68,100
68672,note_off,,,,,0,0,14,,,,,7,,,65,100
68672,note_off,,,,,128,0,7,,,,,0,,,80,100
68672,note_off,,,,,128,0,14,,,,,7,,,68,100
68736,note_on,,,,,64,0,14,,,,,7,,,68,100
68736,note_on,,,,,0,0,14,,,,,7,,,65,100
68736,note_on,,,,,64,0,11,,,,,4,,,61,70
68736,note_on,,,,,64,0,10,,,,,3,,,80,70
68736,note_on,,,,,0,0,11,,,,,4,,,65,70
68736,note_on,,,,,64,0,15,,,,,7,,,49,100
68736,note_on,,,,,64,0,8,,,,,1,,,80,20
68736,note_on,,,,,64,0,9,,,,,2,,,85,70
68736,note_on,,,,,64,0,13,,,,,6,,,37,70
68736,note_on,,,,,64,0,7,,,,,0,,,85,20
68736,note_on,,,,,64,0,12,,,,,5,,,49,70
68864,note_off,,,,,128,0,9,,,,,2,,,85,100
68864,note_off,,,,,128,0,12,,,,,5,,,49,100
68864,note_off,,,,,0,0,11,,,,,4,,,65,100
68864,note_off,,,,,128,0,13,,,,,6,,,37,100
68864,note_off,,,,,128,0,7,,,,,0,,,85,100
68864,note_off,,,,,128,0,8,,,,,1,,,80,100
68864,note_off,,,,,128,0,11,,,,,4,,,61,100
68864,note_off,,,,,128,0,14,,,,,7,,,68,100
68864,note_off,,,,,0,0,14,,,,,7,,,65,100
68864,note_off,,,,,128,0,15,,,,,7,,,49,100
68864,note_off,,,,,128,0,10,,,,,3,,,80,100
68928,note_on,,,,,64,0,7,,,,,0,,,80,20
68928,note_on,,,,,64,0,13,,,,,6,,,37,70
68928,note_on,,,,,0,0,11,,,,,4,,,68,70
68928,note_on,,,,,64,0,14,,,,,7,,,68,100
68928,note_on,,,,,64,0,8,,,,,1,,,77,20
68928,note_on,,,,,0,0,14,,,,,7,,,65,100
68928,note_on,,,,,64,0,10,,,,,3,,,77,70
68928,note_on,,,,,64,0,11,,,,,4,,,65,70
68928,note_on,,,,,64,0,9,,,,,2,,,80,70
68928,note_on,,,,,64,0,15,,,,,7,,,49,100
68928,note_on,,,,,64,0,12,,,,,5,,,49,70
69056,note_off,,,,,128,0,8,,,,,1,,,77,100
69056,note_off,,,,,128,0,13,,,,,6,,,37,100
69056,note_off,,,,,128,0,15,,,,,7,,,49,100
69056,note_off,,,,,128,0,7,,,,,0,,,80,100
69056,note_off,,,,,0,0,14,,,,,7,,,65,100
69056,note_off,,,,,128,0,14,,,,,7,,,68,100
69056,note_off,,,,,128,0,9,,,,,2,,,80,100
69056,note_off,,,,,128,0,12,,,,,5,,,49,100
69056,note_off,,,,,128,0,10,,,,,3,,,77,100
69056,note_off,,,,,128,0,11,,,,,4,,,65,100
69056,note_off,,,,,0,0,11,,,,,4,,,68,100
69120,note_on,,,,,64,0,12,,,,,5,,,48,70
69120,note_on,,,,,64,0,10,,,,,3,,,78,70
69120,note_on,,,,,64,0,8,,,,,1,,,78,20
69120,note_on,,,,,64,0,9,,,,,2,,,81,70
69120,note_on,,,,,64,0,14,,,,,7,,,66,100
69120,note_on,,,,,0,0,14,,,,,7,,,63,100
69120,note_on,,,,,64,0,13,,,,,6,,,36,70
69120,note_on,,,,,64,0,15,,,,,7,,,48,100
69120,note_on,,,,,64,0,7,,,,,0,,,81,20
69120,note_on,,,,,0,0,11,,,,,4,,,66,70
69120,note_on,,,,,64,0,11,,,,,4,,,63,70
69184,note_off,,,,,64,0,7,,,,,0,,,81,100
69184,note_off,,,,,64,0,10,,,,,3,,,78,100
69184,note_off,,,,,64,0,9,,,,,2,,,81,100
69184,note_off,,,,,64,0,8,,,,,1,,,78,100
69216,note_on,,,,,32,0,8,,,,,1,,,80,20
69216,note_on,,,,,32,0,7,,,,,0,,,83,20
69216,note_on,,,,,32,0,9,,,,,2,,,83,70
69216,note_on,,,,,32,0,10,,,,,3,,,80,70
69248,note_off,,,,,128,0,11,,,,,4,,,63,100
69248,note_off,,,,,0,0,11,,,,,4,,,66,100
69248,note_off,,,,,128,0,14,,,,,7,,,66,100
69248,note_off,,,,,128,0,12,,,,,5,,,48,100
69248,note_off,,,,,128,0,15,,,,,7,,,48,100
69248,note_off,,,,,128,0,13,,,,,6,,,36,100
69248,note_off,,,,,0,0,14,,,,,7,,,63,100
69280,note_off,,,,,64,0,7,,,,,0,,,83,100
69280,note_off,,,,,64,0,8,,,,,1,,,80,100
69280,note_off,,,,,64,0,10,,,,,3,,,80,100
69280,note_off,,,,,64,0,9,,,,,2,,,83,100
69312,note_on,,,,,64,0,12,,,,,5,,,48,70
69312,note_on,,,,,64,0,13,,,,,6,,,36,70
69312,note_on,,,,,0,0,11,,,,,4,,,63,70
69312,note_on,,,,,32,0,7,,,,,0,,,81,20
69312,note_on,,,,,64,0,14,,,,,7,,,63,100
69312,note_on,,,,,0,0,14,,,,,7,,,66,100
69312,note_on,,,,,32,0,9,,,,,2,,,81,70
69312,note_on,,,,,32,0,8,,,,,1,,,78,20
69312,note_on,,,,,64,0,15,,,,,7,,,48,100
69312,note_on,,,,,64,0,11,,,,,4,,,60,70
69312,note_on,,,,,32,0,10,,,,,3,,,78,70
69376,note_off,,,,,64,0,9,,,,,2,,,81,100
69376,note_off,,,,,64,0,10,,,,,3,,,78,100
69376,note_off,,,,,64,0,7,,,,,0,,,81,100
69376,note_off,,,,,64,0,8,,,,,1,,,78,100
69408,note_on,,,,,32,0,10,,,,,3,,,80,70
69408,note_on,,,,,32,0,9,,,,,2,,,83,70
69408,note_on,,,,,32,0,7,,,,,0,,,83,20
69408,note_on,,,,,32,0,8,,,,,1,,,80,20
69440,note_off,,,,,128,0,15,,,,,7,,,48,100
69440,note_off,,,,,0,0,11,,,,,4,,,63,100
69440,note_off,,,,,128,0,11,,,,,4,,,60,100
69440,note_off,,,,,128,0,12,,,,,5,,,48,100
69440,note_off,,,,,128,0,13,,,,,6,,,36,100
69440,note_off,,,,,128,0,14,,,,,7,,,63,100
69440,note_off,,,,,0,0,14,,,,,7,,,66,100
69472,note_off,,,,,64,0,9,,,,,2,,,83,100
69472,note_off,,,,,64,0,10,,,,,3,,,80,100
69472,note_off,,,,,64,0,8,,,,,1,,,80,100
69472,note_off,,,,,64,0,7,,,,,0,,,83,100
69504,note_on,,,,,0,0,11,,,,,4,,,66,70
69504,note_on,,,,,64,0,11,,,,,4,,,63,70
69504,note_on,,,,,32,0,9,,,,,2,,,81,70
69504,note_on,,,,,64,0,15,,,,,7,,,48,100
69504,note_on,,,,,32,0,8,,,,,1,,,78,20
69504,note_on,,,,,32,0,7,,,,,0,,,81,20
69504,note_on,,,,,32,0,10,,,,,3,,,78,70
69504,note_on,,,,,64,0,13,,,,,6,,,36,70
69504,note_on,,,,,64,0,12,,,,,5,,,48,70
69504,note_on,,,,,64,0,14,,,,,7,,,63,100
69504,note_on,,,,,0,0,14,,,,,7,,,66,100
69568,note_off,,,,,64,0,7,,,,,0,,,81,100
69568,note_off,,,,,64,0,9,,,,,2,,,81,100
69568,note_off,,,,,64,0,8,,,,,1,,,78,100
69568,note_off,,,,,64,0,10,,,,,3,,,78,100
69600,note_on,,,,,32,0,9,,,,,2,,,83,70
69600,note_on,,,,,32,0,10,,,,,3,,,80,70
69600,note_on,,,,,32,0,8,,,,,1,,,80,20
69600,note_on,,,,,32,0,7,,,,,0,,,83,20
69632,note_off,,,,,0,0,14,,,,,7,,,66,100
69632,note_off,,,,,128,0,11,,,,,4,,,63,100
69632,note_off,,,,,128,0,15,,,,,7,,,48,100
69632,note_off,,,,,128,0,13,,,,,6,,,36,100
69632,note_off,,,,,128,0,12,,,,,5,,,48,100
69632,note_off,,,,,128,0,14,,,,,7,,,63,100
69632,note_off,,,,,0,0,11,,,,,4,,,66,100
69664,note_off,,,,,64,0,8,,,,,1,,,80,100
69664,note_off,,,,,64,0,9,,,,,2,,,83,100
69664,note_off,,,,,64,0,10,,,,,3,,,80,100
69664,note_off,,,,,64,0,7,,,,,0,,,83,100
69696,note_on,,,,,64,0,11,,,,,4,,,65,70
69696,note_on,,,,,0,0,11,,,,,4,,,68,70
69696,note_on,,,,,32,0,9,,,,,2,,,80,70
69696,note_on,,,,,64,0,14,,,,,7,,,68,100
69696,note_on,,,,,32,0,7,,,,,0,,,80,20
69696,note_on,,,,,64,0,12,,,,,5,,,49,70
69696,note_on,,,,,64,0,13,,,,,6,,,37,70
69696,note_on,,,,,0,0,14,,,,,7,,,65,100
69696,note_on,,,,,32,0,8,,,,,1,,,77,20
69696,note_on,,,,,64,0,15,,,,,7,,,49,100
69696,note_on,,,,,32,0,10,,,,,3,,,77,70
69824,note_off,,,,,128,0,10,,,,,3,,,77,100
69824,note_off,,,,,128,0,13,,,,,6,,,37,100
69824,note_off,,,,,128,0,12,,,,,5,,,49,100
69824,note_off,,,,,0,0,11,,,,,4,,,68,100
69824,note_off,,,,,128,0,15,,,,,7,,,49,100
69824,note_off,,,,,128,0,8,,,,,1,,,77,100
69824,note_off,,,,,128,0,14,,,,,7,,,68,100
69824,note_off,,,,,0,0,14,,,,,7,,,65,100
69824,note_off,,,,,128,0,9,,,,,2,,,80,100
69824,note_off,,,,,128,0,11,,,,,4,,,65,100
69824,note_off,,,,,128,0,7,,,,,0,,,80,100
69888,note_on,,,,,64,0,15,,,,,7,,,49,100
69888,note_on,,,,,64,0,10,,,,,3,,,80,90
69888,note_on,,,,,64,0,14,,,,,7,,,68,100
69888,note_on,,,,,64,0,11,,,,,4,,,61,90
69888,note_on,,,,,64,0,9,,,,,2,,,85,90
69888,note_on,,,,,64,0,12,,,,,5,,,49,90
69888,note_on,,,,,0,0,11,,,,,4,,,65,90
69888,note_on,,,,,64,0,7,,,,,0,,,85,40
69888,note_on,,,,,64,0,13,,,,,6,,,37,90
69888,note_on,,,,,0,0,14,,,,,7,,,65,100
69888,note_on,,,,,64,0,8,,,,,1,,,80,40
70016,note_off,,,,,128,0,7,,,,,0,,,85,100
70016,note_off,,,,,128,0,13,,,,,6,,,37,100
70016,note_off,,,,,128,0,8,,,,,1,,,80,100
70016,note_off,,,,,128,0,14,,,,,7,,,68,100
70016,note_off,,,,,0,0,14,,,,,7,,,65,100
70016,note_off,,,,,128,0,10,,,,,3,,,80,100
70016,note_off,,,,,0,0,11,,,,,4,,,65,100
70016,note_off,,,,,128,0,11,,,,,4,,,61,100
70016,note_off,,,,,128,0,9,,,,,2,,,85,100
70016,note_off,,,,,128,0,12,,,,,5,,,49,100
70016,note_off,,,,,128,0,15,,,,,7,,,49,100
70080,note_on,,,,,64,0,12,,,,,5,,,49,93
70080,note_on,,,,,0,0,11,,,,,4,,,68,93
70080,note_on,,,,,64,0,11,,,,,4,,,65,93
70080,note_on,,,,,64,0,8,,,,,1,,,77,43
70080,note_on,,,,,64,0,7,,,,,0,,,80,43
70080,note_on,,,,,0,0,14,,,,,7,,,65,100
70080,note_on,,,,,64,0,15,,,,,7,,,49,100
70080,note_on,,,,,64,0,13,,,,,6,,,37,93
70080,note_on,,,,,64,0,10,,,,,3,,,77,93
70080,note_on,,,,,64,0,14,,,,,7,,,68,100
70080,note_on,,,,,64,0,9,,,,,2,,,80,93
70208,note_off,,,,,128,0,15,,,,,7,,,49,100
70208,note_off,,,,,0,0,11,,,,,4,,,68,100
70208,note_off,,,,,128,0,8,,,,,1,,,77,100
70208,note_off,,,,,128,0,9,,,,,2,,,80,100
70208,note_off,,,,,128,0,10,,,,,3,,,77,100
70208,note_off,,,,,128,0,12,,,,,5,,,49,100
70208,note_off,,,,,128,0,7,,,,,0,,,80,100
70208,note_off,,,,,128,0,14,,,,,7,,,68,100
70208,note_off,,,,,0,0,14,,,,,7,,,65,100
70208,note_off,,,,,128,0,13,,,,,6,,,37,100
70208,note_off,,,,,128,0,11,,,,,4,,,65,100
70272,note_on,,,,,64,0,13,,,,,6,,,36,97
70272,note_on,,,,,64,0,10,,,,,3,,,78,97
70272,note_on,,,,,0,0,14,,,,,7,,,73,100
70272,note_on,,,,,64,0,14,,,,,7,,,69,100
70272,note_on,,,,,64,0,9,,,,,2,,,81,97
70272,note_on,,,,,0,0,11,,,,,4,,,66,97
70272,note_on,,,,,64,0,11,,,,,4,,,63,97
70272,note_on,,,,,64,0,8,,,,,1,,,78,47
70272,note_on,,,,,64,0,12,,,,,5,,,48,97
70272,note_on,,,,,64,0,15,,,,,7,,,48,100
70272,note_on,,,,,64,0,7,,,,,0,,,81,47
70336,note_off,,,,,64,0,9,,,,,2,,,81,100
70336,note_off,,,,,64,0,8,,,,,1,,,78,100
70336,note_off,,,,,64,0,10,,,,,3,,,78,100
70336,note_off,,,,,64,0,7,,,,,0,,,81,100
70368,note_on,,,,,32,0,7,,,,,0,,,83,49
70368,note_on,,,,,32,0,8,,,,,1,,,80,49
70368,note_on,,,,,32,0,9,,,,,2,,,83,99
70368,note_on,,,,,32,0,10,,,,,3,,,80,99
70400,note_off,,,,,0,0,11,,,,,4,,,66,100
70400,note_off,,,,,128,0,14,,,,,7,,,69,100
70400,note_off,,,,,0,0,14,,,,,7,,,73,100
70400,note_off,,,,,128,0,11,,,,,4,,,63,100
70400,note_off,,,,,128,0,12,,,,,5,,,48,100
70400,note_off,,,,,128,0,15,,,,,7,,,48,100
70400,note_off,,,,,128,0,13,,,,,6,,,36,100
70432,note_off,,,,,64,0,10,,,,,3,,,80,100
70432,note_off,,,,,64,0,7,,,,,0,,,83,100
70432,note_off,,,,,64,0,8,,,,,1,,,80,100
70432,note_off,,,,,64,0,9,,,,,2,,,83,100
70464,note_on,,,,,64,0,15,,,,,7,,,48,100
70464,note_on,,,,,32,0,10,,,,,3,,,78,101
70464,note_on,,,,,0,0,14,,,,,7,,,73,100
70464,note_on,,,,,64,0,13,,,,,6,,,36,101
70464,note_on,,,,,64,0,11,,,,,4,,,60,101
70464,note_on,,,,,32,0,8,,,,,1,,,78,51
70464,note_on,,,,,32,0,7,,,,,0,,,81,51
70464,note_on,,,,,64,0,12,,,,,5,,,48,101
70464,note_on,,,,,0,0,11,,,,,4,,,63,101
70464,note_on,,,,,32,0,9,,,,,2,,,81,101
70464,note_on,,,,,64,0,14,,,,,7,,,69,100
70528,note_off,,,,,64,0,8,,,,,1,,,78,100
70528,note_off,,,,,64,0,10,,,,,3,,,78,100
70528,note_off,,,,,64,0,9,,,,,2,,,81,100
70528,note_off,,,,,64,0,7,,,,,0,,,81,100
70560,note_on,,,,,32,0,8,,,,,1,,,80,53
70560,note_on,,,,,32,0,10,,,,,3,,,80,103
70560,note_on,,,,,32,0,9,,,,,2,,,83,103
70560,note_on,,,,,32,0,7,,,,,0,,,83,53
70592,note_off,,,,,128,0,14,,,,,7,,,69,100
70592,note_off,,,,,128,0,15,,,,,7,,,48,100
70592,note_off,,,,,0,0,14,,,,,7,,,73,100
70592,note_off,,,,,128,0,11,,,,,4,,,60,100
70592,note_off,,,,,128,0,13,,,,,6,,,36,100
70592,note_off,,,,,128,0,12,,,,,5,,,48,100
70592,note_off,,,,,0,0,11,,,,,4,,,63,100
70624,note_off,,,,,64,0,7,,,,,0,,,83,100
70624,note_off,,,,,64,0,10,,,,,3,,,80,100
70624,note_off,,,,,64,0,9,,,,,2,,,83,100
70624,note_off,,,,,64,0,8,,,,,1,,,80,100
70656,note_on,,,,,0,0,11,,,,,4,,,66,105
70656,note_on,,,,,32,0,9,,,,,2,,,81,105
70656,note_on,,,,,64,0,12,,,,,5,,,48,105
70656,note_on,,,,,64,0,13,,,,,6,,,36,105
70656,note_on,,,,,32,0,10,,,,,3,,,78,105
70656,note_on,,,,,32,0,8,,,,,1,,,78,55
70656,note_on,,,,,64,0,15,,,,,7,,,48,100
70656,note_on,,,,,32,0,7,,,,,0,,,81,55
70656,note_on,,,,,64,0,11,,,,,4,,,63,105
70656,note_on,,,,,0,0,14,,,,,7,,,73,100
70656,note_on,,,,,64,0,14,,,,,7,,,69,100
70720,note_off,,,,,64,0,7,,,,,0,,,81,100
70720,note_off,,,,,64,0,10,,,,,3,,,78,100
70720,note_off,,,,,64,0,9,,,,,2,,,81,100
70720,note_off,,,,,64,0,8,,,,,1,,,78,100
70752,note_on,,,,,32,0,8,,,,,1,,,80,57
70752,note_on,,,,,32,0,9,,,,,2,,,83,107
70752,note_on,,,,,32,0,7,,,,,0,,,83,57
70752,note_on,,,,,32,0,10,,,,,3,,,80,107
70784,note_off,,,,,128,0,12,,,,,5,,,48,100
70784,note_off,,,,,0,0,14,,,,,7,,,73,100
70784,note_off,,,,,128,0,15,,,,,7,,,48,100
70784,note_off,,,,,128,0,14,,,,,7,,,69,100
70784,note_off,,,,,128,0,11,,,,,4,,,63,100
70784,note_off,,,,,0,0,11,,,,,4,,,66,100
70784,note_off,,,,,128,0,13,,,,,6,,,36,100
70816,note_off,,,,,64,0,7,,,,,0,,,83,100
70816,note_off,,,,,64,0,9,,,,,2,,,83,100
70816,note_off,,,,,64,0,10,,,,,3,,,80,100
70816,note_off,,,,,64,0,8,,,,,1,,,80,100
70844,program_change,,,,,28,0,7,,,,,0,40,,,
70844,program_change,,,,,28,0,8,,,,,1,40,,,
70848,note_on,,,,,0,0,14,,,,,7,,,68,100
70848,note_on,,,,,64,0,13,,,,,6,,,37,109
70848,note_on,,,,,32,0,10,,,,,3,,,77,109
70848,note_on,,,,,64,0,15,,,,,7,,,49,100
70848,note_on,,,,,64,0,14,,,,,7,,,65,100
70848,note_on,,,,,64,0,11,,,,,4,,,61,109
70848,note_on,,,,,4,0,8,,,,,1,,,77,109
70848,note_on,,,,,32,0,9,,,,,2,,,80,109
70848,note_on,,,,,0,0,11,,,,,4,,,68,109
70848,note_on,,,,,64,0,12,,,,,5,,,49,109
70848,note_on,,,,,4,0,7,,,,,0,,,80,109
70912,note_off,,,,,64,0,7,,,,,0,,,80,100
70944,note_on,,,,,32,0,7,,,,,0,,,83,100
70976,note_off,,,,,128,0,12,,,,,5,,,49,100
70976,note_off,,,,,128,0,13,,,,,6,,,37,100
70976,note_off,,,,,128,0,8,,,,,1,,,77,100
70976,note_off,,,,,128,0,15,,,,,7,,,49,100
70976,note_off,,,,,128,0,14,,,,,7,,,65,100
70976,note_off,,,,,0,0,14,,,,,7,,,68,100
71008,note_off,,,,,64,0,7,,,,,0,,,83,100
71040,note_on,,,,,64,0,8,,,,,1,,,80,100
71040,note_on,,,,,64,0,13,,,,,6,,,37,85
71040,note_on,,,,,0,0,14,,,,,7,,,68,100
71040,note_on,,,,,32,0,7,,,,,0,,,83,100
71040,note_on,,,,,64,0,12,,,,,5,,,49,85
71040,note_on,,,,,64,0,14,,,,,7,,,71,100
71040,note_on,,,,,64,0,15,,,,,7,,,49,100
71104,note_off,,,,,256,0,10,,,,,3,,,77,100
71104,note_off,,,,,64,0,7,,,,,0,,,83,100
71104,note_off,,,,,256,0,9,,,,,2,,,80,100
71104,note_off,,,,,0,0,11,,,,,4,,,68,100
71104,note_off,,,,,256,0,11,,,,,4,,,61,100
71136,note_on,,,,,32,0,7,,,,,0,,,80,100
71168,note_off,,,,,128,0,15,,,,,7,,,49,100
71168,note_off,,,,,128,0,12,,,,,5,,,49,100
71168,note_off,,,,,0,0,14,,,,,7,,,68,100
71168,note_off,,,,,128,0,14,,,,,7,,,71,100
71168,note_off,,,,,128,0,13,,,,,6,,,37,100
71168,note_off,,,,,128,0,8,,,,,1,,,80,100
71200,note_off,,,,,64,0,7,,,,,0,,,80,100
71232,note_on,,,,,32,0,7,,,,,0,,,80,100
71232,note_on,,,,,64,0,12,,,,,5,,,49,85
71232,note_on,,,,,64,0,8,,,,,1,,,77,100
71232,note_on,,,,,64,0,15,,,,,7,,,49,100
71232,note_on,,,,,64,0,13,,,,,6,,,37,85
71232,note_on,,,,,64,0,14,,,,,7,,,71,100
71232,note_on,,,,,0,0,14,,,,,7,,,68,100
71296,note_off,,,,,64,0,7,,,,,0,,,80,100
71328,note_on,,,,,32,0,7,,,,,0,,,77,100
71360,note_off,,,,,128,0,8,,,,,1,,,77,100
71360,note_off,,,,,128,0,13,,,,,6,,,37,100
71360,note_off,,,,,128,0,12,,,,,5,,,49,100
71360,note_off,,,,,128,0,15,,,,,7,,,49,100
71360,note_off,,,,,128,0,14,,,,,7,,,71,100
71360,note_off,,,,,0,0,14,,,,,7,,,68,100
71392,note_off,,,,,64,0,7,,,,,0,,,77,100
71424,program_change,,,,,320,0,9,,,,,2,40,,,
71424,note_on,,,,,64,0,14,,,,,7,,,68,100
71424,note_on,,,,,32,0,7,,,,,0,,,77,100
71424,note_on,,,,,0,0,14,,,,,7,,,65,100
71424,note_on,,,,,64,0,12,,,,,5,,,49,85
71424,note_on,,,,,64,0,15,,,,,7,,,49,100
71424,note_on,,,,,64,0,13,,,,,6,,,37,85
71424,program_change,,,,,320,0,10,,,,,3,40,,,
71424,note_on,,,,,64,0,8,,,,,1,,,73,100
71488,note_off,,,,,64,0,7,,,,,0,,,77,100
71520,note_on,,,,,32,0,7,,,,,0,,,73,100
71552,note_off,,,,,128,0,12,,,,,5,,,49,100
71552,note_off,,,,,0,0,14,,,,,7,,,65,100
71552,note_off,,,,,128,0,14,,,,,7,,,68,100
71552,note_off,,,,,128,0,13,,,,,6,,,37,100
71552,note_off,,,,,128,0,15,,,,,7,,,49,100
71584,note_off,,,,,64,0,7,,,,,0,,,73,100
71616,note_on,,,,,0,0,14,,,,,7,,,65,100
71616,note_on,,,,,64,0,15,,,,,7,,,49,100
71616,note_on,,,,,64,0,12,,,,,5,,,49,85
71616,note_on,,,,,64,0,13,,,,,6,,,37,85
71616,note_on,,,,,64,0,14,,,,,7,,,68,100
71616,note_on,,,,,32,0,7,,,,,0,,,73,100
71616,note_on,,,,,192,0,9,,,,,2,,,80,100
71680,note_off,,,,,256,0,8,,,,,1,,,73,100
71680,note_off,,,,,64,0,7,,,,,0,,,73,100
71712,note_on,,,,,32,0,7,,,,,0,,,74,100
71744,note_off,,,,,0,0,14,,,,,7,,,65,100
71744,note_off,,,,,128,0,14,,,,,7,,,68,100
71744,note_off,,,,,128,0,12,,,,,5,,,49,100
71744,note_off,,,,,128,0,9,,,,,2,,,80,100
71744,note_off,,,,,128,0,15,,,,,7,,,49,100
71744,note_off,,,,,128,0,13,,,,,6,,,37,100
71776,note_off,,,,,64,0,7,,,,,0,,,74,100
71808,note_on,,,,,64,0,14,,,,,7,,,68,100
71808,note_on,,,,,64,0,9,,,,,2,,,77,100
71808,note_on,,,,,64,0,15,,,,,7,,,49,100
71808,note_on,,,,,0,0,14,,,,,7,,,65,100
71808,note_on,,,,,64,0,13,,,,,6,,,37,85
71808,note_on,,,,,64,0,12,,,,,5,,,49,85
71808,note_on,,,,,32,0,7,,,,,0,,,74,100
71872,note_off,,,,,64,0,7,,,,,0,,,74,100
71904,note_on,,,,,32,0,7,,,,,0,,,71,100
71936,note_off,,,,,128,0,15,,,,,7,,,49,100
71936,note_off,,,,,128,0,14,,,,,7,,,68,100
71936,note_off,,,,,0,0,14,,,,,7,,,65,100
71936,note_off,,,,,128,0,12,,,,,5,,,49,100
71936,note_off,,,,,128,0,9,,,,,2,,,77,100
71936,note_off,,,,,128,0,13,,,,,6,,,37,100
71968,note_off,,,,,64,0,7,,,,,0,,,71,100
72000,note_on,,,,,64,0,15,,,,,7,,,49,100
72000,note_on,,,,,64,0,12,,,,,5,,,49,85
72000,note_on,,,,,64,0,9,,,,,2,,,73,100
72000,note_on,,,,,0,0,14,,,,,7,,,65,100
72000,note_on,,,,,64,0,14,,,,,7,,,68,100
72000,note_on,,,,,32,0,7,,,,,0,,,71,100
72000,note_on,,,,,64,0,13,,,,,6,,,37,85
72064,note_off,,,,,64,0,7,,,,,0,,,71,100
72096,note_on,,,,,32,0,7,,,,,0,,,80,100
72128,note_off,,,,,128,0,13,,,,,6,,,37,100
72128,note_off,,,,,128,0,12,,,,,5,,,49,100
72128,note_off,,,,,128,0,14,,,,,7,,,68,100
72128,note_off,,,,,0,0,14,,,,,7,,,65,100
72128,note_off,,,,,128,0,15,,,,,7,,,49,100
72160,note_off,,,,,64,0,7,,,,,0,,,80,100
72192,note_on,,,,,768,0,10,,,,,3,,,80,100
72192,note_on,,,,,64,0,12,,,,,5,,,49,85
72192,note_on,,,,,64,0,14,,,,,7,,,68,100
72192,note_on,,,,,0,0,14,,,,,7,,,65,100
72192,note_on,,,,,64,0,15,,,,,7,,,49,100
72192,note_on,,,,,64,0,13,,,,,6,,,37,85
72192,note_on,,,,,32,0,7,,,,,0,,,80,100
72256,note_off,,,,,256,0,9,,,,,2,,,73,100
72256,note_off,,,,,64,0,7,,,,,0,,,80,100
72288,note_on,,,,,32,0,7,,,,,0,,,83,100
72320,note_off,,,,,128,0,14,,,,,7,,,68,100
72320,note_off,,,,,128,0,12,,,,,5,,,49,100
72320,note_off,,,,,128,0,13,,,,,6,,,37,100
72320,note_off,,,,,128,0,10,,,,,3,,,80,100
72320,note_off,,,,,128,0,15,,,,,7,,,49,100
72320,note_off,,,,,0,0,14,,,,,7,,,65,100
72352,note_off,,,,,64,0,7,,,,,0,,,83,100
72384,note_on,,,,,32,0,7,,,,,0,,,83,100
72384,note_on,,,,,64,0,10,,,,,3,,,77,100
72384,note_on,,,,,64,0,13,,,,,6,,,37,85
72384,note_on,,,,,64,0,14,,,,,7,,,68,100
72384,note_on,,,,,0,0,14,,,,,7,,,65,100
72384,note_on,,,,,64,0,12,,,,,5,,,49,85
72384,note_on,,,,,64,0,15,,,,,7,,,49,100
72448,note_off,,,,,64,0,7,,,,,0,,,83,100
72480,note_on,,,,,32,0,7,,,,,0,,,80,100
72512,note_off,,,,,128,0,10,,,,,3,,,77,100
72512,note_off,,,,,128,0,14,,,,,7,,,68,100
72512,note_off,,,,,0,0,14,,,,,7,,,65,100
72512,note_off,,,,,128,0,12,,,,,5,,,49,100
72512,note_off,,,,,128,0,15,,,,,7,,,49,100
72512,note_off,,,,,128,0,13,,,,,6,,,37,100
72544,note_off,,,,,64,0,7,,,,,0,,,80,100
72576,note_on,,,,,64,0,15,,,,,7,,,54,100
72576,note_on,,,,,64,0,12,,,,,5,,,54,85
72576,note_on,,,,,64,0,13,,,,,6,,,42,85
72576,note_on,,,,,32,0,7,,,,,0,,,81,100
72576,note_on,,,,,0,0,14,,,,,7,,,73,100
72576,note_on,,,,,64,0,14,,,,,7,,,69,100
72576,note_on,,,,,64,0,10,,,,,3,,,73,100
72672,note_on,,,,,416,0,9,,,,,2,,,78,100
72704,note_off,,,,,128,0,12,,,,,5,,,54,100
72704,note_off,,,,,0,0,14,,,,,7,,,73,100
72704,note_off,,,,,128,0,14,,,,,7,,,69,100
72704,note_off,,,,,128,0,15,,,,,7,,,54,100
72704,note_off,,,,,128,0,13,,,,,6,,,42,100
72736,note_off,,,,,64,0,9,,,,,2,,,78,100
72768,note_on,,,,,64,0,15,,,,,7,,,54,100
72768,note_on,,,,,32,0,9,,,,,2,,,78,100
72768,note_on,,,,,64,0,12,,,,,5,,,54,85
72768,note_on,,,,,64,0,13,,,,,6,,,42,85
72768,note_on,,,,,0,0,14,,,,,7,,,73,100
72768,note_on,,,,,64,0,14,,,,,7,,,69,100
72768,note_on,,,,,1088,0,8,,,,,1,,,73,100
72832,note_off,,,,,256,0,10,,,,,3,,,73,100
72832,note_off,,,,,64,0,9,,,,,2,,,78,100
72832,note_off,,,,,256,0,7,,,,,0,,,81,100
72864,note_on,,,,,32,0,9,,,,,2,,,73,100
72896,note_off,,,,,128,0,12,,,,,5,,,54,100
72896,note_off,,,,,128,0,14,,,,,7,,,69,100
72896,note_off,,,,,128,0,8,,,,,1,,,73,100
72896,note_off,,,,,128,0,13,,,,,6,,,42,100
72896,note_off,,,,,0,0,14,,,,,7,,,73,100
72896,note_off,,,,,128,0,15,,,,,7,,,54,100
72928,note_off,,,,,64,0,9,,,,,2,,,73,100
72960,note_on,,,,,64,0,13,,,,,6,,,42,85
72960,note_on,,,,,64,0,8,,,,,1,,,70,100
72960,note_on,,,,,64,0,14,,,,,7,,,70,100
72960,note_on,,,,,32,0,9,,,,,2,,,73,100
72960,note_on,,,,,64,0,12,,,,,5,,,54,85
72960,note_on,,,,,64,0,15,,,,,7,,,54,100
72960,note_on,,,,,0,0,14,,,,,7,,,73,100
73024,note_off,,,,,64,0,9,,,,,2,,,73,100
73056,note_on,,,,,32,0,9,,,,,2,,,70,100
73088,note_off,,,,,128,0,14,,,,,7,,,70,100
73088,note_off,,,,,0,0,14,,,,,7,,,73,100
73088,note_off,,,,,128,0,8,,,,,1,,,70,100
73088,note_off,,,,,128,0,15,,,,,7,,,54,100
73088,note_off,,,,,128,0,12,,,,,5,,,54,100
73088,note_off,,,,,128,0,13,,,,,6,,,42,100
73120,note_off,,,,,64,0,9,,,,,2,,,70,100
73152,note_on,,,,,64,0,8,,,,,1,,,66,100
73152,note_on,,,,,0,0,14,,,,,7,,,76,100
73152,note_on,,,,,64,0,15,,,,,7,,,54,100
73152,note_on,,,,,64,0,14,,,,,7,,,70,100
73152,note_on,,,,,32,0,9,,,,,2,,,70,100
73152,note_on,,,,,64,0,13,,,,,6,,,42,85
73152,note_on,,,,,64,0,12,,,,,5,,,54,85
73216,note_off,,,,,64,0,9,,,,,2,,,70,100
73248,note_on,,,,,32,0,9,,,,,2,,,66,100
73280,note_off,,,,,0,0,14,,,,,7,,,76,100
73280,note_off,,,,,128,0,15,,,,,7,,,54,100
73280,note_off,,,,,128,0,13,,,,,6,,,42,100
73280,note_off,,,,,128,0,12,,,,,5,,,54,100
73280,note_off,,,,,128,0,14,,,,,7,,,70,100
73312,note_off,,,,,64,0,9,,,,,2,,,66,100
73344,note_on,,,,,64,0,15,,,,,7,,,54,100
73344,note_on,,,,,512,0,7,,,,,0,,,73,100
73344,note_on,,,,,64,0,13,,,,,6,,,42,85
73344,note_on,,,,,64,0,12,,,,,5,,,54,85
73344,note_on,,,,,32,0,9,,,,,2,,,66,100
73344,note_on,,,,,64,0,14,,,,,7,,,76,100
73344,note_on,,,,,0,0,14,,,,,7,,,70,100
73408,note_off,,,,,256,0,8,,,,,1,,,66,100
73408,note_off,,,,,64,0,9,,,,,2,,,66,100
73440,note_on,,,,,32,0,9,,,,,2,,,67,100
73472,note_off,,,,,128,0,15,,,,,7,,,54,100
73472,note_off,,,,,128,0,7,,,,,0,,,73,100
73472,note_off,,,,,0,0,14,,,,,7,,,70,100
73472,note_off,,,,,128,0,14,,,,,7,,,76,100
73472,note_off,,,,,128,0,13,,,,,6,,,42,100
73472,note_off,,,,,128,0,12,,,,,5,,,54,100
73504,note_off,,,,,64,0,9,,,,,2,,,67,100
73536,note_on,,,,,64,0,12,,,,,5,,,54,85
73536,note_on,,,,,64,0,15,,,,,7,,,54,100
73536,note_on,,,,,32,0,9,,,,,2,,,67,100
73536,note_on,,,,,0,0,14,,,,,7,,,70,100
73536,note_on,,,,,64,0,14,,,,,7,,,76,100
73536,note_on,,,,,64,0,13,,,,,6,,,42,85
73536,note_on,,,,,64,0,7,,,,,0,,,70,100
73600,note_off,,,,,64,0,9,,,,,2,,,67,100
73632,note_on,,,,,32,0,9,,,,,2,,,64,100
73664,note_off,,,,,128,0,7,,,,,0,,,70,100
73664,note_off,,,,,128,0,13,,,,,6,,,42,100
73664,note_off,,,,,128,0,14,,,,,7,,,76,100
73664,note_off,,,,,0,0,14,,,,,7,,,70,100
73664,note_off,,,,,128,0,12,,,,,5,,,54,100
73664,note_off,,,,,128,0,15,,,,,7,,,54,100
73696,note_off,,,,,64,0,9,,,,,2,,,64,100
73728,note_on,,,,,64,0,13,,,,,6,,,42,85
73728,note_on,,,,,0,0,14,,,,,7,,,76,100
73728,note_on,,,,,32,0,9,,,,,2,,,64,100
73728,note_on,,,,,64,0,7,,,,,0,,,66,100
73728,note_on,,,,,64,0,14,,,,,7,,,70,100
73728,note_on,,,,,64,0,12,,,,,5,,,54,85
73728,note_on,,,,,64,0,15,,,,,7,,,54,100
73792,note_off,,,,,64,0,9,,,,,2,,,64,100
73824,note_on,,,,,32,0,9,,,,,2,,,73,100
73856,note_off,,,,,128,0,13,,,,,6,,,42,100
73856,note_off,,,,,128,0,15,,,,,7,,,54,100
73856,note_off,,,,,128,0,12,,,,,5,,,54,100
73856,note_off,,,,,128,0,14,,,,,7,,,70,100
73856,note_off,,,,,0,0,14,,,,,7,,,76,100
73888,note_off,,,,,64,0,9,,,,,2,,,73,100
73920,note_on,,,,,64,0,15,,,,,7,,,54,100
73920,note_on,,,,,64,0,13,,,,,6,,,42,85
73920,note_on,,,,,64,0,14,,,,,7,,,76,100
73920,note_on,,,,,1088,0,10,,,,,3,,,73,100
73920,note_on,,,,,0,0,14,,,,,7,,,70,100
73920,note_on,,,,,64,0,12,,,,,5,,,54,85
73920,note_on,,,,,32,0,9,,,,,2,,,73,100
73984,note_off,,,,,256,0,7,,,,,0,,,66,100
73984,note_off,,,,,64,0,9,,,,,2,,,73,100
74016,note_on,,,,,32,0,9,,,,,2,,,76,100
74048,note_off,,,,,0,0,14,,,,,7,,,70,100
74048,note_off,,,,,128,0,14,,,,,7,,,76,100
74048,note_off,,,,,128,0,10,,,,,3,,,73,100
74048,note_off,,,,,128,0,15,,,,,7,,,54,100
74048,note_off,,,,,128,0,12,,,,,5,,,54,100
74048,note_off,,,,,128,0,13,,,,,6,,,42,100
74080,note_off,,,,,64,0,9,,,,,2,,,76,100
74112,note_on,,,,,64,0,12,,,,,5,,,54,85
74112,note_on,,,,,64,0,15,,,,,7,,,54,100
74112,note_on,,,,,64,0,10,,,,,3,,,70,100
74112,note_on,,,,,64,0,14,,,,,7,,,76,100
74112,note_on,,,,,64,0,13,,,,,6,,,42,85
74112,note_on,,,,,0,0,14,,,,,7,,,70,100
74112,note_on,,,,,32,0,9,,,,,2,,,76,100
74176,note_off,,,,,64,0,9,,,,,2,,,76,100
74208,note_on,,,,,32,0,9,,,,,2,,,73,100
74240,note_off,,,,,128,0,13,,,,,6,,,42,100
74240,note_off,,,,,128,0,12,,,,,5,,,54,100
74240,note_off,,,,,0,0,14,,,,,7,,,70,100
74240,note_off,,,,,128,0,10,,,,,3,,,70,100
74240,note_off,,,,,128,0,15,,,,,7,,,54,100
74240,note_off,,,,,128,0,14,,,,,7,,,76,100
74272,note_off,,,,,64,0,9,,,,,2,,,73,100
74304,note_on,,,,,64,0,13,,,,,6,,,35,85
74304,note_on,,,,,64,0,14,,,,,7,,,62,100
74304,note_on,,,,,64,0,10,,,,,3,,,66,100
74304,note_on,,,,,0,0,14,,,,,7,,,66,100
74304,note_on,,,,,64,0,15,,,,,7,,,47,100
74304,note_on,,,,,32,0,9,,,,,2,,,74,100
74304,note_on,,,,,64,0,12,,,,,5,,,47,85
74400,note_on,,,,,992,0,8,,,,,1,,,83,100
74432,note_off,,,,,0,0,14,,,,,7,,,66,100
74432,note_off,,,,,128,0,14,,,,,7,,,62,100
74432,note_off,,,,,128,0,12,,,,,5,,,47,100
74432,note_off,,,,,128,0,13,,,,,6,,,35,100
74432,note_off,,,,,128,0,15,,,,,7,,,47,100
74464,note_off,,,,,64,0,8,,,,,1,,,83,100
74496,note_on,,,,,64,0,12,,,,,5,,,47,85
74496,note_on,,,,,512,0,7,,,,,0,,,78,100
74496,note_on,,,,,0,0,14,,,,,7,,,66,100
74496,note_on,,,,,64,0,14,,,,,7,,,62,100
74496,note_on,,,,,32,0,8,,,,,1,,,83,100
74496,note_on,,,,,64,0,13,,,,,6,,,35,85
74496,note_on,,,,,64,0,15,,,,,7,,,47,100
74560,note_off,,,,,256,0,10,,,,,3,,,66,100
74560,note_off,,,,,256,0,9,,,,,2,,,74,100
74560,note_off,,,,,64,0,8,,,,,1,,,83,100
74592,note_on,,,,,32,0,8,,,,,1,,,78,100
74624,note_off,,,,,128,0,12,,,,,5,,,47,100
74624,note_off,,,,,128,0,7,,,,,0,,,78,100
74624,note_off,,,,,128,0,13,,,,,6,,,35,100
74624,note_off,,,,,128,0,15,,,,,7,,,47,100
74624,note_off,,,,,128,0,14,,,,,7,,,62,100
74624,note_off,,,,,0,0,14,,,,,7,,,66,100
74656,note_off,,,,,64,0,8,,,,,1,,,78,100
74688,note_on,,,,,64,0,13,,,,,6,,,35,85
74688,note_on,,,,,64,0,14,,,,,7,,,63,100
74688,note_on,,,,,0,0,14,,,,,7,,,66,100
74688,note_on,,,,,32,0,8,,,,,1,,,78,100
74688,note_on,,,,,64,0,15,,,,,7,,,47,100
74688,note_on,,,,,64,0,7,,,,,0,,,75,100
74688,note_on,,,,,64,0,12,,,,,5,,,47,85
74752,note_off,,,,,64,0,8,,,,,1,,,78,100
74784,note_on,,,,,32,0,8,,,,,1,,,75,100
74816,note_off,,,,,128,0,14,,,,,7,,,63,100
74816,note_off,,,,,0,0,14,,,,,7,,,66,100
74816,note_off,,,,,128,0,13,,,,,6,,,35,100
74816,note_off,,,,,128,0,7,,,,,0,,,75,100
74816,note_off,,,,,128,0,15,,,,,7,,,47,100
74816,note_off,,,,,128,0,12,,,,,5,,,47,100
74848,note_off,,,,,64,0,8,,,,,1,,,75,100
74880,note_on,,,,,64,0,13,,,,,6,,,35,85
74880,note_on,,,,,32,0,8,,,,,1,,,75,100
74880,note_on,,,,,64,0,7,,,,,0,,,71,100
74880,note_on,,,,,64,0,14,,,,,7,,,63,100
74880,note_on,,,,,64,0,12,,,,,5,,,47,85
74880,note_on,,,,,64,0,15,,,,,7,,,47,100
74880,note_on,,,,,0,0,14,,,,,7,,,69,100
74944,note_off,,,,,64,0,8,,,,,1,,,75,100
74976,note_on,,,,,32,0,8,,,,,1,,,71,100
75008,note_off,,,,,128,0,14,,,,,7,,,63,100
75008,note_off,,,,,128,0,13,,,,,6,,,35,100
75008,note_off,,,,,0,0,14,,,,,7,,,69,100
75008,note_off,,,,,128,0,15,,,,,7,,,47,100
75008,note_off,,,,,128,0,12,,,,,5,,,47,100
75040,note_off,,,,,64,0,8,,,,,1,,,71,100
75072,note_on,,,,,32,0,8,,,,,1,,,71,100
75072,note_on,,,,,64,0,13,,,,,6,,,35,85
75072,note_on,,,,,64,0,15,,,,,7,,,47,100
75072,note_on,,,,,512,0,10,,,,,3,,,78,100
75072,note_on,,,,,64,0,14,,,,,7,,,63,100
75072,note_on,,,,,0,0,14,,,,,7,,,69,100
75072,note_on,,,,,64,0,12,,,,,5,,,47,85
75136,note_off,,,,,256,0,7,,,,,0,,,71,100
75136,note_off,,,,,64,0,8,,,,,1,,,71,100
75168,note_on,,,,,32,0,8,,,,,1,,,72,100
75200,note_off,,,,,128,0,15,,,,,7,,,47,100
75200,note_off,,,,,128,0,13,,,,,6,,,35,100
75200,note_off,,,,,128,0,10,,,,,3,,,78,100
75200,note_off,,,,,128,0,14,,,,,7,,,63,100
75200,note_off,,,,,0,0,14,,,,,7,,,69,100
75200,note_off,,,,,128,0,12,,,,,5,,,47,100
75232,note_off,,,,,64,0,8,,,,,1,,,72,100
75264,note_on,,,,,64,0,10,,,,,3,,,75,100
75264,note_on,,,,,64,0,14,,,,,7,,,63,100
75264,note_on,,,,,64,0,12,,,,,5,,,47,85
75264,note_on,,,,,0,0,14,,,,,7,,,69,100
75264,note_on,,,,,64,0,13,,,,,6,,,35,85
75264,note_on,,,,,32,0,8,,,,,1,,,72,100
75264,note_on,,,,,64,0,15,,,,,7,,,47,100
75328,note_off,,,,,64,0,8,,,,,1,,,72,100
75360,note_on,,,,,32,0,8,,,,,1,,,69,100
75392,note_off,,,,,0,0,14,,,,,7,,,69,100
75392,note_off,,,,,128,0,13,,,,,6,,,35,100
75392,note_off,,,,,128,0,12,,,,,5,,,47,100
75392,note_off,,,,,128,0,10,,,,,3,,,75,100
75392,note_off,,,,,128,0,15,,,,,7,,,47,100
75392,note_off,,,,,128,0,14,,,,,7,,,63,100
75424,note_off,,,,,64,0,8,,,,,1,,,69,100
75456,note_on,,,,,32,0,8,,,,,1,,,69,100
75456,note_on,,,,,64,0,13,,,,,6,,,35,85
75456,note_on,,,,,64,0,15,,,,,7,,,47,100
75456,note_on,,,,,64,0,10,,,,,3,,,71,100
75456,note_on,,,,,64,0,12,,,,,5,,,47,85
75456,note_on,,,,,0,0,14,,,,,7,,,69,100
75456,note_on,,,,,64,0,14,,,,,7,,,63,100
75520,note_off,,,,,64,0,8,,,,,1,,,69,100
75552,note_on,,,,,32,0,8,,,,,1,,,78,100
75584,note_off,,,,,0,0,14,,,,,7,,,69,100
75584,note_off,,,,,128,0,14,,,,,7,,,63,100
75584,note_off,,,,,128,0,12,,,,,5,,,47,100
75584,note_off,,,,,128,0,13,,,,,6,,,35,100
75584,note_off,,,,,128,0,15,,,,,7,,,47,100
75616,note_off,,,,,64,0,8,,,,,1,,,78,100
75648,note_on,,,,,0,0,14,,,,,7,,,69,100
75648,note_on,,,,,64,0,12,,,,,5,,,47,85
75648,note_on,,,,,64,0,14,,,,,7,,,63,100
75648,note_on,,,,,64,0,13,,,,,6,,,35,85
75648,note_on,,,,,64,0,15,,,,,7,,,47,100
75648,note_on,,,,,1088,0,9,,,,,2,,,78,100
75648,note_on,,,,,32,0,8,,,,,1,,,78,100
75712,note_off,,,,,64,0,8,,,,,1,,,78,100
75712,note_off,,,,,256,0,10,,,,,3,,,71,100
75744,note_on,,,,,32,0,8,,,,,1,,,81,100
75776,note_off,,,,,128,0,15,,,,,7,,,47,100
75776,note_off,,,,,0,0,14,,,,,7,,,69,100
75776,note_off,,,,,128,0,9,,,,,2,,,78,100
75776,note_off,,,,,128,0,13,,,,,6,,,35,100
75776,note_off,,,,,128,0,14,,,,,7,,,63,100
75776,note_off,,,,,128,0,12,,,,,5,,,47,100
75808,note_off,,,,,64,0,8,,,,,1,,,81,100
75840,note_on,,,,,32,0,8,,,,,1,,,81,100
75840,note_on,,,,,64,0,12,,,,,5,,,47,85
75840,note_on,,,,,0,0,14,,,,,7,,,69,100
75840,note_on,,,,,64,0,14,,,,,7,,,63,100
75840,note_on,,,,,64,0,13,,,,,6,,,35,85
75840,note_on,,,,,64,0,9,,,,,2,,,75,100
75840,note_on,,,,,64,0,15,,,,,7,,,47,100
75904,note_off,,,,,64,0,8,,,,,1,,,81,100
75936,note_on,,,,,32,0,8,,,,,1,,,78,100
75968,note_off,,,,,128,0,9,,,,,2,,,75,100
75968,note_off,,,,,128,0,13,,,,,6,,,35,100
75968,note_off,,,,,128,0,12,,,,,5,,,47,100
75968,note_off,,,,,128,0,14,,,,,7,,,63,100
75968,note_off,,,,,128,0,15,,,,,7,,,47,100
75968,note_off,,,,,0,0,14,,,,,7,,,69,100
76000,note_off,,,,,64,0,8,,,,,1,,,78,100
76032,note_on,,,,,32,0,8,,,,,1,,,79,100
76032,note_on,,,,,64,0,14,,,,,7,,,67,100
76032,note_on,,,,,64,0,9,,,,,2,,,71,100
76032,note_on,,,,,0,0,14,,,,,7,,,71,100
76032,note_on,,,,,64,0,15,,,,,7,,,52,100
76032,note_on,,,,,64,0,12,,,,,5,,,52,85
76032,note_on,,,,,64,0,13,,,,,6,,,40,85
76128,note_on,,,,,416,0,10,,,,,3,,,76,100
76160,note_off,,,,,128,0,15,,,,,7,,,52,100
76160,note_off,,,,,0,0,14,,,,,7,,,71,100
76160,note_off,,,,,128,0,12,,,,,5,,,52,100
76160,note_off,,,,,128,0,13,,,,,6,,,40,100
76160,note_off,,,,,128,0,14,,,,,7,,,67,100
76192,note_off,,,,,64,0,10,,,,,3,,,76,100
76224,note_on,,,,,64,0,15,,,,,7,,,52,100
76224,note_on,,,,,64,0,13,,,,,6,,,40,85
76224,note_on,,,,,64,0,14,,,,,7,,,67,100
76224,note_on,,,,,0,0,14,,,,,7,,,71,100
76224,note_on,,,,,32,0,10,,,,,3,,,76,100
76224,note_on,,,,,64,0,12,,,,,5,,,52,85
76224,note_on,,,,,1088,0,7,,,,,0,,,71,100
76288,note_off,,,,,256,0,8,,,,,1,,,79,100
76288,note_off,,,,,256,0,9,,,,,2,,,71,100
76288,note_off,,,,,64,0,10,,,,,3,,,76,100
76320,note_on,,,,,32,0,10,,,,,3,,,71,100
76352,note_off,,,,,128,0,14,,,,,7,,,67,100
76352,note_off,,,,,128,0,13,,,,,6,,,40,100
76352,note_off,,,,,128,0,12,,,,,5,,,52,100
76352,note_off,,,,,128,0,7,,,,,0,,,71,100
76352,note_off,,,,,0,0,14,,,,,7,,,71,100
76352,note_off,,,,,128,0,15,,,,,7,,,52,100
76384,note_off,,,,,64,0,10,,,,,3,,,71,100
76416,note_on,,,,,32,0,10,,,,,3,,,71,100
76416,note_on,,,,,0,0,14,,,,,7,,,71,100
76416,note_on,,,,,64,0,14,,,,,7,,,68,100
76416,note_on,,,,,64,0,15,,,,,7,,,52,100
76416,note_on,,,,,64,0,12,,,,,5,,,52,85
76416,note_on,,,,,64,0,13,,,,,6,,,40,85
76416,note_on,,,,,64,0,7,,,,,0,,,68,100
76480,note_off,,,,,64,0,10,,,,,3,,,71,100
76512,note_on,,,,,32,0,10,,,,,3,,,68,100
76544,note_off,,,,,128,0,13,,,,,6,,,40,100
76544,note_off,,,,,128,0,12,,,,,5,,,52,100
76544,note_off,,,,,128,0,15,,,,,7,,,52,100
76544,note_off,,,,,128,0,7,,,,,0,,,68,100
76544,note_off,,,,,128,0,14,,,,,7,,,68,100
76544,note_off,,,,,0,0,14,,,,,7,,,71,100
76576,note_off,,,,,64,0,10,,,,,3,,,68,100
76608,note_on,,,,,0,0,14,,,,,7,,,74,100
76608,note_on,,,,,64,0,7,,,,,0,,,64,100
76608,note_on,,,,,64,0,12,,,,,5,,,52,85
76608,note_on,,,,,64,0,14,,,,,7,,,68,100
76608,note_on,,,,,32,0,10,,,,,3,,,68,100
76608,note_on,,,,,64,0,15,,,,,7,,,52,100
76608,note_on,,,,,64,0,13,,,,,6,,,40,85
76672,note_off,,,,,64,0,10,,,,,3,,,68,100
76704,note_on,,,,,32,0,10,,,,,3,,,64,100
76736,note_off,,,,,128,0,15,,,,,7,,,52,100
76736,note_off,,,,,0,0,14,,,,,7,,,74,100
76736,note_off,,,,,128,0,14,,,,,7,,,68,100
76736,note_off,,,,,128,0,12,,,,,5,,,52,100
76736,note_off,,,,,128,0,13,,,,,6,,,40,100
76768,note_off,,,,,64,0,10,,,,,3,,,64,100
76800,note_on,,,,,64,0,13,,,,,6,,,40,85
76800,note_on,,,,,64,0,12,,,,,5,,,52,85
76800,note_on,,,,,32,0,10,,,,,3,,,64,100
76800,note_on,,,,,0,0,14,,,,,7,,,74,100
76800,note_on,,,,,64,0,14,,,,,7,,,68,100
76800,note_on,,,,,512,0,9,,,,,2,,,71,100
76800,note_on,,,,,64,0,15,,,,,7,,,52,100
76864,note_off,,,,,64,0,10,,,,,3,,,64,100
76864,note_off,,,,,256,0,7,,,,,0,,,64,100
76896,note_on,,,,,32,0,10,,,,,3,,,65,100
76928,note_off,,,,,128,0,15,,,,,7,,,52,100
76928,note_off,,,,,128,0,13,,,,,6,,,40,100
76928,note_off,,,,,128,0,9,,,,,2,,,71,100
76928,note_off,,,,,128,0,14,,,,,7,,,68,100
76928,note_off,,,,,0,0,14,,,,,7,,,74,100
76928,note_off,,,,,128,0,12,,,,,5,,,52,100
76960,note_off,,,,,64,0,10,,,,,3,,,65,100
76992,note_on,,,,,32,0,10,,,,,3,,,65,100
76992,note_on,,,,,64,0,13,,,,,6,,,40,85
76992,note_on,,,,,64,0,12,,,,,5,,,52,85
76992,note_on,,,,,64,0,14,,,,,7,,,68,100
76992,note_on,,,,,0,0,14,,,,,7,,,74,100
76992,note_on,,,,,64,0,15,,,,,7,,,52,100
76992,note_on,,,,,64,0,9,,,,,2,,,68,100
77056,note_off,,,,,64,0,10,,,,,3,,,65,100
77088,note_on,,,,,32,0,10,,,,,3,,,62,100
77120,note_off,,,,,128,0,9,,,,,2,,,68,100
77120,note_off,,,,,128,0,15,,,,,7,,,52,100
77120,note_off,,,,,128,0,13,,,,,6,,,40,100
77120,note_off,,,,,0,0,14,,,,,7,,,74,100
77120,note_off,,,,,128,0,12,,,,,5,,,52,100
77120,note_off,,,,,128,0,14,,,,,7,,,68,100
77152,note_off,,,,,64,0,10,,,,,3,,,62,100
77184,note_on,,,,,64,0,15,,,,,7,,,52,100
77184,note_on,,,,,64,0,13,,,,,6,,,40,85
77184,note_on,,,,,0,0,14,,,,,7,,,74,100
77184,note_on,,,,,64,0,14,,,,,7,,,68,100
77184,note_on,,,,,32,0,10,,,,,3,,,62,100
77184,note_on,,,,,64,0,12,,,,,5,,,52,85
77184,note_on,,,,,64,0,9,,,,,2,,,64,100
77248,note_off,,,,,64,0,10,,,,,3,,,62,100
77280,note_on,,,,,32,0,10,,,,,3,,,71,100
77312,note_off,,,,,128,0,13,,,,,6,,,40,100
77312,note_off,,,,,128,0,14,,,,,7,,,68,100
77312,note_off,,,,,0,0,14,,,,,7,,,74,100
77312,note_off,,,,,128,0,15,,,,,7,,,52,100
77312,note_off,,,,,128,0,12,,,,,5,,,52,100
77344,note_off,,,,,64,0,10,,,,,3,,,71,100
77376,note_on,,,,,64,0,15,,,,,7,,,52,100
77376,note_on,,,,,32,0,10,,,,,3,,,71,100
77376,note_on,,,,,1088,0,8,,,,,1,,,71,100
77376,note_on,,,,,64,0,12,,,,,5,,,52,85
77376,note_on,,,,,0,0,14,,,,,7,,,74,100
77376,note_on,,,,,64,0,13,,,,,6,,,40,85
77376,note_on,,,,,64,0,14,,,,,7,,,68,100
77440,note_off,,,,,256,0,9,,,,,2,,,64,100
77472,note_on,,,,,96,0,10,,,,,3,,,74,100
77504,note_off,,,,,128,0,8,,,,,1,,,71,100
77504,note_off,,,,,128,0,15,,,,,7,,,52,100
77504,note_off,,,,,32,0,10,,,,,3,,,71,100
77504,note_off,,,,,0,0,14,,,,,7,,,74,100
77504,note_off,,,,,128,0,14,,,,,7,,,68,100
77504,note_off,,,,,128,0,13,,,,,6,,,40,100
77504,note_off,,,,,128,0,12,,,,,5,,,52,100
77536,note_off,,,,,32,0,10,,,,,3,,,74,100
77568,note_on,,,,,64,0,12,,,,,5,,,52,85
77568,note_on,,,,,32,0,10,,,,,3,,,74,100
77568,note_on,,,,,64,0,14,,,,,7,,,68,100
77568,note_on,,,,,0,0,14,,,,,7,,,74,100
77568,note_on,,,,,64,0,15,,,,,7,,,52,100
77568,note_on,,,,,64,0,13,,,,,6,,,40,85
77568,note_on,,,,,64,0,8,,,,,1,,,68,100
77632,note_off,,,,,64,0,10,,,,,3,,,74,100
77664,note_on,,,,,32,0,10,,,,,3,,,71,100
77696,note_off,,,,,128,0,12,,,,,5,,,52,100
77696,note_off,,,,,128,0,13,,,,,6,,,40,100
77696,note_off,,,,,128,0,15,,,,,7,,,52,100
77696,note_off,,,,,0,0,14,,,,,7,,,74,100
77696,note_off,,,,,128,0,14,,,,,7,,,68,100
77696,note_off,,,,,128,0,8,,,,,1,,,68,100
77728,note_off,,,,,64,0,10,,,,,3,,,71,100
77760,note_on,,,,,64,0,8,,,,,1,,,64,100
77760,note_on,,,,,0,0,14,,,,,7,,,64,100
77760,note_on,,,,,64,0,15,,,,,7,,,45,100
77760,note_on,,,,,64,0,14,,,,,7,,,60,100
77760,note_on,,,,,32,0,10,,,,,3,,,72,100
77760,note_on,,,,,64,0,13,,,,,6,,,33,85
77760,note_on,,,,,64,0,12,,,,,5,,,45,85
77856,note_on,,,,,416,0,9,,,,,2,,,76,100
77888,note_off,,,,,128,0,14,,,,,7,,,60,100
77888,note_off,,,,,128,0,12,,,,,5,,,45,100
77888,note_off,,,,,128,0,15,,,,,7,,,45,100
77888,note_off,,,,,128,0,13,,,,,6,,,33,100
77888,note_off,,,,,0,0,14,,,,,7,,,64,100
77920,note_off,,,,,64,0,9,,,,,2,,,76,100
77952,note_on,,,,,64,0,14,,,,,7,,,60,100
77952,note_on,,,,,1088,0,7,,,,,0,,,81,100
77952,note_on,,,,,0,0,14,,,,,7,,,64,100
77952,note_on,,,,,32,0,9,,,,,2,,,76,100
77952,note_on,,,,,64,0,15,,,,,7,,,45,100
77952,note_on,,,,,64,0,13,,,,,6,,,33,85
77952,note_on,,,,,64,0,12,,,,,5,,,45,85
78016,note_off,,,,,256,0,10,,,,,3,,,72,100
78016,note_off,,,,,64,0,9,,,,,2,,,76,100
78016,note_off,,,,,256,0,8,,,,,1,,,64,100
78048,note_on,,,,,32,0,9,,,,,2,,,74,100
78080,note_off,,,,,128,0,12,,,,,5,,,45,100
78080,note_off,,,,,128,0,15,,,,,7,,,45,100
78080,note_off,,,,,128,0,13,,,,,6,,,33,100
78080,note_off,,,,,128,0,7,,,,,0,,,81,100
78080,note_off,,,,,128,0,14,,,,,7,,,60,100
78080,note_off,,,,,0,0,14,,,,,7,,,64,100
78112,note_off,,,,,64,0,9,,,,,2,,,74,100
78144,note_on,,,,,64,0,13,,,,,6,,,33,85
78144,note_on,,,,,32,0,9,,,,,2,,,74,100
78144,note_on,,,,,0,0,14,,,,,7,,,64,100
78144,note_on,,,,,64,0,15,,,,,7,,,45,100
78144,note_on,,,,,64,0,12,,,,,5,,,45,85
78144,note_on,,,,,64,0,7,,,,,0,,,76,100
78144,note_on,,,,,64,0,14,,,,,7,,,61,100
78208,note_off,,,,,64,0,9,,,,,2,,,74,100
78240,note_on,,,,,32,0,9,,,,,2,,,73,100
78272,note_off,,,,,128,0,14,,,,,7,,,61,100
78272,note_off,,,,,128,0,7,,,,,0,,,76,100
78272,note_off,,,,,128,0,15,,,,,7,,,45,100
78272,note_off,,,,,0,0,14,,,,,7,,,64,100
78272,note_off,,,,,128,0,13,,,,,6,,,33,100
78272,note_off,,,,,128,0,12,,,,,5,,,45,100
78304,note_off,,,,,64,0,9,,,,,2,,,73,100
78336,note_on,,,,,64,0,13,,,,,6,,,33,85
78336,note_on,,,,,0,0,14,,,,,7,,,67,100
78336,note_on,,,,,64,0,7,,,,,0,,,69,100
78336,note_on,,,,,64,0,15,,,,,7,,,45,100
78336,note_on,,,,,64,0,14,,,,,7,,,64,100
78336,note_on,,,,,32,0,9,,,,,2,,,73,100
78336,note_on,,,,,64,0,12,,,,,5,,,45,85
78400,note_off,,,,,64,0,9,,,,,2,,,73,100
78432,note_on,,,,,32,0,9,,,,,2,,,67,100
78464,note_off,,,,,128,0,14,,,,,7,,,64,100
78464,note_off,,,,,0,0,14,,,,,7,,,67,100
78464,note_off,,,,,128,0,15,,,,,7,,,45,100
78464,note_off,,,,,128,0,13,,,,,6,,,33,100
78464,note_off,,,,,128,0,12,,,,,5,,,45,100
78496,note_off,,,,,64,0,9,,,,,2,,,67,100
78528,note_on,,,,,64,0,15,,,,,7,,,45,100
78528,note_on,,,,,64,0,13,,,,,6,,,33,85
78528,note_on,,,,,32,0,9,,,,,2,,,67,100
78528,note_on,,,,,0,0,14,,,,,7,,,67,100
78528,note_on,,,,,64,0,14,,,,,7,,,64,100
78528,note_on,,,,,64,0,12,,,,,5,,,45,85
78528,note_on,,,,,512,0,10,,,,,3,,,76,100
78592,note_off,,,,,256,0,7,,,,,0,,,69,100
78592,note_off,,,,,64,0,9,,,,,2,,,67,100
78624,note_on,,,,,32,0,9,,,,,2,,,73,100
78656,note_off,,,,,0,0,14,,,,,7,,,67,100
78656,note_off,,,,,128,0,10,,,,,3,,,76,100
78656,note_off,,,,,128,0,13,,,,,6,,,33,100
78656,note_off,,,,,128,0,15,,,,,7,,,45,100
78656,note_off,,,,,128,0,14,,,,,7,,,64,100
78656,note_off,,,,,128,0,12,,,,,5,,,45,100
78688,note_off,,,,,64,0,9,,,,,2,,,73,100
78720,note_on,,,,,64,0,12,,,,,5,,,45,85
78720,note_on,,,,,64,0,15,,,,,7,,,45,100
78720,note_on,,,,,64,0,13,,,,,6,,,33,85
78720,note_on,,,,,64,0,14,,,,,7,,,64,100
78720,note_on,,,,,0,0,14,,,,,7,,,67,100
78720,note_on,,,,,32,0,9,,,,,2,,,73,100
78720,note_on,,,,,64,0,10,,,,,3,,,73,100
78784,note_off,,,,,64,0,9,,,,,2,,,73,100
78816,note_on,,,,,32,0,9,,,,,2,,,74,100
78848,note_off,,,,,128,0,15,,,,,7,,,45,100
78848,note_off,,,,,0,0,14,,,,,7,,,67,100
78848,note_off,,,,,128,0,12,,,,,5,,,45,100
78848,note_off,,,,,128,0,14,,,,,7,,,64,100
78848,note_off,,,,,128,0,13,,,,,6,,,33,100
78848,note_off,,,,,128,0,10,,,,,3,,,73,100
78880,note_off,,,,,64,0,9,,,,,2,,,74,100
78912,note_on,,,,,64,0,13,,,,,6,,,38,85
78912,note_on,,,,,0,0,14,,,,,7,,,69,100
78912,note_on,,,,,64,0,14,,,,,7,,,66,100
78912,note_on,,,,,32,0,9,,,,,2,,,74,100
78912,note_on,,,,,64,0,10,,,,,3,,,69,100
78912,note_on,,,,,64,0,15,,,,,7,,,50,100
78912,note_on,,,,,64,0,12,,,,,5,,,50,85
79008,note_on,,,,,992,0,8,,,,,1,,,78,100
79040,note_off,,,,,128,0,12,,,,,5,,,50,100
79040,note_off,,,,,128,0,13,,,,,6,,,38,100
79040,note_off,,,,,128,0,15,,,,,7,,,50,100
79040,note_off,,,,,0,0,14,,,,,7,,,69,100
79040,note_off,,,,,128,0,14,,,,,7,,,66,100
79072,note_off,,,,,64,0,8,,,,,1,,,78,100
79104,note_on,,,,,64,0,13,,,,,6,,,38,85
79104,note_on,,,,,0,0,14,,,,,7,,,69,100
79104,note_on,,,,,64,0,14,,,,,7,,,66,100
79104,note_on,,,,,64,0,12,,,,,5,,,50,85
79104,note_on,,,,,32,0,8,,,,,1,,,78,100
79104,note_on,,,,,512,0,7,,,,,0,,,81,100
79104,note_on,,,,,64,0,15,,,,,7,,,50,100
79168,note_off,,,,,64,0,8,,,,,1,,,78,100
79168,note_off,,,,,256,0,9,,,,,2,,,74,100
79168,note_off,,,,,256,0,10,,,,,3,,,69,100
79200,note_on,,,,,32,0,8,,,,,1,,,76,100
79232,note_off,,,,,128,0,13,,,,,6,,,38,100
79232,note_off,,,,,128,0,15,,,,,7,,,50,100
79232,note_off,,,,,0,0,14,,,,,7,,,69,100
79232,note_off,,,,,128,0,14,,,,,7,,,66,100
79232,note_off,,,,,128,0,7,,,,,0,,,81,100
79232,note_off,,,,,128,0,12,,,,,5,,,50,100
79264,note_off,,,,,64,0,8,,,,,1,,,76,100
79296,note_on,,,,,64,0,12,,,,,5,,,47,85
79296,note_on,,,,,32,0,8,,,,,1,,,76,100
79296,note_on,,,,,64,0,14,,,,,7,,,69,100
79296,note_on,,,,,0,0,14,,,,,7,,,63,100
79296,note_on,,,,,64,0,7,,,,,0,,,69,100
79296,note_on,,,,,64,0,13,,,,,6,,,35,85
79296,note_on,,,,,64,0,15,,,,,7,,,47,100
79360,note_off,,,,,64,0,8,,,,,1,,,76,100
79392,note_on,,,,,32,0,8,,,,,1,,,74,100
79424,note_off,,,,,0,0,14,,,,,7,,,63,100
79424,note_off,,,,,128,0,7,,,,,0,,,69,100
79424,note_off,,,,,128,0,12,,,,,5,,,47,100
79424,note_off,,,,,128,0,14,,,,,7,,,69,100
79424,note_off,,,,,128,0,15,,,,,7,,,47,100
79424,note_off,,,,,128,0,13,,,,,6,,,35,100
79456,note_off,,,,,64,0,8,,,,,1,,,74,100
79488,note_on,,,,,64,0,14,,,,,7,,,63,100
79488,note_on,,,,,64,0,15,,,,,7,,,47,100
79488,note_on,,,,,0,0,14,,,,,7,,,66,100
79488,note_on,,,,,32,0,8,,,,,1,,,75,100
79488,note_on,,,,,64,0,12,,,,,5,,,47,85
79488,note_on,,,,,64,0,7,,,,,0,,,69,100
79488,note_on,,,,,64,0,13,,,,,6,,,35,85
79552,note_off,,,,,64,0,8,,,,,1,,,75,100
79584,note_on,,,,,32,0,8,,,,,1,,,71,100
79616,note_off,,,,,0,0,14,,,,,7,,,66,100
79616,note_off,,,,,128,0,13,,,,,6,,,35,100
79616,note_off,,,,,128,0,12,,,,,5,,,47,100
79616,note_off,,,,,128,0,15,,,,,7,,,47,100
79616,note_off,,,,,128,0,14,,,,,7,,,63,100
79648,note_off,,,,,64,0,8,,,,,1,,,71,100
79680,note_on,,,,,32,0,8,,,,,1,,,71,100
79680,note_on,,,,,64,0,15,,,,,7,,,47,100
79680,note_on,,,,,0,0,14,,,,,7,,,66,100
79680,note_on,,,,,512,0,9,,,,,2,,,78,100
79680,note_on,,,,,64,0,12,,,,,5,,,47,85
79680,note_on,,,,,64,0,13,,,,,6,,,35,85
79680,note_on,,,,,64,0,14,,,,,7,,,63,100
79744,note_off,,,,,256,0,7,,,,,0,,,69,100
79744,note_off,,,,,64,0,8,,,,,1,,,71,100
79776,note_on,,,,,32,0,8,,,,,1,,,75,100
79808,note_off,,,,,128,0,12,,,,,5,,,47,100
79808,note_off,,,,,0,0,14,,,,,7,,,66,100
79808,note_off,,,,,128,0,15,,,,,7,,,47,100
79808,note_off,,,,,128,0,13,,,,,6,,,35,100
79808,note_off,,,,,128,0,14,,,,,7,,,63,100
79808,note_off,,,,,128,0,9,,,,,2,,,78,100
79840,note_off,,,,,64,0,8,,,,,1,,,75,100
79872,note_on,,,,,64,0,15,,,,,7,,,47,100
79872,note_on,,,,,0,0,14,,,,,7,,,66,100
79872,note_on,,,,,64,0,13,,,,,6,,,35,85
79872,note_on,,,,,64,0,12,,,,,5,,,47,85
79872,note_on,,,,,64,0,9,,,,,2,,,75,100
79872,note_on,,,,,32,0,8,,,,,1,,,75,100
79872,note_on,,,,,64,0,14,,,,,7,,,63,100
79936,note_off,,,,,64,0,8,,,,,1,,,75,100
79968,note_on,,,,,32,0,8,,,,,1,,,76,100
80000,note_off,,,,,128,0,9,,,,,2,,,75,100
80000,note_off,,,,,128,0,15,,,,,7,,,47,100
80000,note_off,,,,,128,0,12,,,,,5,,,47,100
80000,note_off,,,,,128,0,13,,,,,6,,,35,100
80000,note_off,,,,,0,0,14,,,,,7,,,66,100
80000,note_off,,,,,128,0,14,,,,,7,,,63,100
80032,note_off,,,,,64,0,8,,,,,1,,,76,100
80064,note_on,,,,,64,0,12,,,,,5,,,52,85
80064,note_on,,,,,64,0,13,,,,,6,,,40,85
80064,note_on,,,,,64,0,14,,,,,7,,,67,100
80064,note_on,,,,,64,0,9,,,,,2,,,71,100
80064,note_on,,,,,0,0,14,,,,,7,,,71,100
80064,note_on,,,,,32,0,8,,,,,1,,,76,100
80064,note_on,,,,,64,0,15,,,,,7,,,52,100
80160,note_on,,,,,992,0,10,,,,,3,,,79,100
80192,note_off,,,,,128,0,13,,,,,6,,,40,100
80192,note_off,,,,,128,0,15,,,,,7,,,52,100
80192,note_off,,,,,0,0,14,,,,,7,,,71,100
80192,note_off,,,,,128,0,14,,,,,7,,,67,100
80192,note_off,,,,,128,0,12,,,,,5,,,52,100
80224,note_off,,,,,64,0,10,,,,,3,,,79,100
80256,note_on,,,,,32,0,10,,,,,3,,,79,100
80256,note_on,,,,,64,0,15,,,,,7,,,52,100
80256,note_on,,,,,512,0,7,,,,,0,,,83,100
80256,note_on,,,,,64,0,12,,,,,5,,,52,85
80256,note_on,,,,,64,0,14,,,,,7,,,67,100
80256,note_on,,,,,0,0,14,,,,,7,,,71,100
80256,note_on,,,,,64,0,13,,,,,6,,,40,85
80320,note_off,,,,,256,0,8,,,,,1,,,76,100
80320,note_off,,,,,64,0,10,,,,,3,,,79,100
80320,note_off,,,,,256,0,9,,,,,2,,,71,100
80352,note_on,,,,,32,0,10,,,,,3,,,83,100
80384,note_off,,,,,128,0,13,,,,,6,,,40,100
80384,note_off,,,,,128,0,12,,,,,5,,,52,100
80384,note_off,,,,,128,0,7,,,,,0,,,83,100
80384,note_off,,,,,0,0,14,,,,,7,,,71,100
80384,note_off,,,,,128,0,14,,,,,7,,,67,100
80384,note_off,,,,,128,0,15,,,,,7,,,52,100
80416,note_off,,,,,64,0,10,,,,,3,,,83,100
80448,note_on,,,,,0,0,14,,,,,7,,,71,100
80448,note_on,,,,,32,0,10,,,,,3,,,83,100
80448,note_on,,,,,64,0,15,,,,,7,,,49,100
80448,note_on,,,,,64,0,7,,,,,0,,,71,100
80448,note_on,,,,,64,0,13,,,,,6,,,37,85
80448,note_on,,,,,64,0,14,,,,,7,,,65,100
80448,note_on,,,,,64,0,12,,,,,5,,,49,85
80512,note_off,,,,,64,0,10,,,,,3,,,83,100
80544,note_on,,,,,32,0,10,,,,,3,,,77,100
80576,note_off,,,,,128,0,12,,,,,5,,,49,100
80576,note_off,,,,,128,0,13,,,,,6,,,37,100
80576,note_off,,,,,0,0,14,,,,,7,,,71,100
80576,note_off,,,,,128,0,14,,,,,7,,,65,100
80576,note_off,,,,,128,0,15,,,,,7,,,49,100
80576,note_off,,,,,128,0,7,,,,,0,,,71,100
80608,note_off,,,,,64,0,10,,,,,3,,,77,100
80640,note_on,,,,,64,0,13,,,,,6,,,37,85
80640,note_on,,,,,64,0,12,,,,,5,,,49,85
80640,note_on,,,,,0,0,14,,,,,7,,,68,100
80640,note_on,,,,,32,0,10,,,,,3,,,77,100
80640,note_on,,,,,64,0,7,,,,,0,,,71,100
80640,note_on,,,,,64,0,14,,,,,7,,,65,100
80640,note_on,,,,,64,0,15,,,,,7,,,49,100
80704,note_off,,,,,64,0,10,,,,,3,,,77,100
80736,note_on,,,,,32,0,10,,,,,3,,,73,100
80768,note_off,,,,,128,0,14,,,,,7,,,65,100
80768,note_off,,,,,128,0,12,,,,,5,,,49,100
80768,note_off,,,,,0,0,14,,,,,7,,,68,100
80768,note_off,,,,,128,0,15,,,,,7,,,49,100
80768,note_off,,,,,128,0,13,,,,,6,,,37,100
80800,note_off,,,,,64,0,10,,,,,3,,,73,100
80832,note_on,,,,,64,0,12,,,,,5,,,49,85
80832,note_on,,,,,64,0,15,,,,,7,,,49,100
80832,note_on,,,,,64,0,14,,,,,7,,,65,100
80832,note_on,,,,,512,0,8,,,,,1,,,80,100
80832,note_on,,,,,64,0,13,,,,,6,,,37,85
80832,note_on,,,,,32,0,10,,,,,3,,,73,100
80832,note_on,,,,,0,0,14,,,,,7,,,68,100
80896,note_off,,,,,256,0,7,,,,,0,,,71,100
80896,note_off,,,,,64,0,10,,,,,3,,,73,100
80928,note_on,,,,,32,0,10,,,,,3,,,74,100
80960,note_off,,,,,128,0,8,,,,,1,,,80,100
80960,note_off,,,,,128,0,15,,,,,7,,,49,100
80960,note_off,,,,,0,0,14,,,,,7,,,68,100
80960,note_off,,,,,128,0,14,,,,,7,,,65,100
80960,note_off,,,,,128,0,12,,,,,5,,,49,100
80960,note_off,,,,,128,0,13,,,,,6,,,37,100
80992,note_off,,,,,64,0,10,,,,,3,,,74,100
81024,note_on,,,,,64,0,12,,,,,5,,,49,85
81024,note_on,,,,,64,0,15,,,,,7,,,49,100
81024,note_on,,,,,64,0,8,,,,,1,,,77,100
81024,note_on,,,,,64,0,13,,,,,6,,,37,85
81024,note_on,,,,,0,0,14,,,,,7,,,68,100
81024,note_on,,,,,64,0,14,,,,,7,,,65,100
81024,note_on,,,,,32,0,10,,,,,3,,,74,100
81088,note_off,,,,,64,0,10,,,,,3,,,74,100
81120,note_on,,,,,32,0,10,,,,,3,,,71,100
81152,note_off,,,,,128,0,15,,,,,7,,,49,100
81152,note_off,,,,,0,0,14,,,,,7,,,68,100
81152,note_off,,,,,128,0,14,,,,,7,,,65,100
81152,note_off,,,,,128,0,12,,,,,5,,,49,100
81152,note_off,,,,,128,0,13,,,,,6,,,37,100
81152,note_off,,,,,128,0,8,,,,,1,,,77,100
81184,note_off,,,,,64,0,10,,,,,3,,,71,100
81216,note_on,,,,,64,0,12,,,,,5,,,54,85
81216,note_on,,,,,32,0,10,,,,,3,,,69,100
81216,note_on,,,,,64,0,13,,,,,6,,,42,85
81216,note_on,,,,,64,0,14,,,,,7,,,69,100
81216,note_on,,,,,0,0,14,,,,,7,,,73,100
81216,note_on,,,,,64,0,15,,,,,7,,,54,100
81216,note_on,,,,,64,0,8,,,,,1,,,73,100
81312,note_on,,,,,416,0,7,,,,,0,,,66,100
81376,note_off,,,,,64,0,7,,,,,0,,,66,100
81408,note_on,,,,,32,0,7,,,,,0,,,66,100
81472,note_off,,,,,256,0,12,,,,,5,,,54,100
81472,note_off,,,,,0,0,14,,,,,7,,,73,100
81472,note_off,,,,,256,0,8,,,,,1,,,73,100
81472,note_off,,,,,256,0,14,,,,,7,,,69,100
81472,note_off,,,,,256,0,10,,,,,3,,,69,100
81472,note_off,,,,,256,0,15,,,,,7,,,54,100
81472,note_off,,,,,256,0,13,,,,,6,,,42,100
81472,note_off,,,,,64,0,7,,,,,0,,,66,100
81504,note_on,,,,,32,0,7,,,,,0,,,69,100
81568,note_off,,,,,64,0,7,,,,,0,,,69,100
81600,note_on,,,,,32,0,7,,,,,0,,,69,100
81664,note_off,,,,,64,0,7,,,,,0,,,69,100
81696,note_on,,,,,32,0,7,,,,,0,,,73,100
81760,note_off,,,,,64,0,7,,,,,0,,,73,100
81792,note_on,,,,,320,0,12,,,,,5,,,54,85
81792,note_on,,,,,320,0,13,,,,,6,,,42,85
81792,note_on,,,,,32,0,7,,,,,0,,,73,100
81792,note_on,,,,,320,0,15,,,,,7,,,54,100
81792,note_on,,,,,320,0,14,,,,,7,,,69,100
81792,note_on,,,,,0,0,14,,,,,7,,,73,100
81856,note_off,,,,,64,0,7,,,,,0,,,73,100
81888,note_on,,,,,32,0,7,,,,,0,,,78,100
81952,note_off,,,,,64,0,7,,,,,0,,,78,100
81984,note_on,,,,,32,0,7,,,,,0,,,78,100
82048,note_off,,,,,64,0,7,,,,,0,,,78,100
82048,note_off,,,,,256,0,12,,,,,5,,,54,100
82048,note_off,,,,,256,0,15,,,,,7,,,54,100
82048,note_off,,,,,0,0,14,,,,,7,,,73,100
82048,note_off,,,,,256,0,14,,,,,7,,,69,100
82048,note_off,,,,,256,0,13,,,,,6,,,42,100
82080,note_on,,,,,32,0,7,,,,,0,,,81,100
82144,note_off,,,,,64,0,7,,,,,0,,,81,100
82176,note_on,,,,,32,0,7,,,,,0,,,81,100
82240,note_off,,,,,64,0,7,,,,,0,,,81,100
82272,note_on,,,,,32,0,7,,,,,0,,,75,100
82336,note_off,,,,,64,0,7,,,,,0,,,75,100
82368,note_on,,,,,0,0,14,,,,,7,,,69,100
82368,note_on,,,,,320,0,14,,,,,7,,,63,100
82368,note_on,,,,,320,0,13,,,,,6,,,35,85
82368,note_on,,,,,32,0,7,,,,,0,,,75,100
82368,note_on,,,,,320,0,12,,,,,5,,,47,85
82368,note_on,,,,,320,0,15,,,,,7,,,47,100
82432,note_off,,,,,64,0,7,,,,,0,,,75,100
82464,note_on,,,,,32,0,7,,,,,0,,,71,100
82528,note_off,,,,,64,0,7,,,,,0,,,71,100
82560,note_on,,,,,32,0,7,,,,,0,,,71,100
82624,note_off,,,,,256,0,15,,,,,7,,,47,100
82624,note_off,,,,,64,0,7,,,,,0,,,71,100
82624,note_off,,,,,256,0,14,,,,,7,,,63,100
82624,note_off,,,,,0,0,14,,,,,7,,,69,100
82624,note_off,,,,,256,0,12,,,,,5,,,47,100
82624,note_off,,,,,256,0,13,,,,,6,,,35,100
82656,note_on,,,,,32,0,7,,,,,0,,,81,100
82720,note_off,,,,,64,0,7,,,,,0,,,81,100
82752,note_on,,,,,32,0,7,,,,,0,,,79,100
82816,note_off,,,,,64,0,7,,,,,0,,,79,100
82848,note_on,,,,,32,0,7,,,,,0,,,78,100
82912,note_off,,,,,64,0,7,,,,,0,,,78,100
82944,note_on,,,,,320,0,12,,,,,5,,,52,85
82944,note_on,,,,,320,0,13,,,,,6,,,40,85
82944,note_on,,,,,0,0,14,,,,,7,,,71,100
82944,note_on,,,,,320,0,14,,,,,7,,,67,100
82944,note_on,,,,,320,0,15,,,,,7,,,52,100
82944,note_on,,,,,32,0,7,,,,,0,,,79,100
83036,note_off,,,,,92,0,7,,,,,0,,,79,100
83040,note_on,,,,,4,0,7,,,,,0,,,81,100
83132,note_off,,,,,92,0,7,,,,,0,,,81,100
83136,note_on,,,,,4,0,7,,,,,0,,,83,100
83200,note_off,,,,,256,0,15,,,,,7,,,52,100
83200,note_off,,,,,256,0,14,,,,,7,,,67,100
83200,note_off,,,,,256,0,12,,,,,5,,,52,100
83200,note_off,,,,,0,0,14,,,,,7,,,71,100
83200,note_off,,,,,256,0,13,,,,,6,,,40,100
83200,note_off,,,,,64,0,7,,,,,0,,,83,100
83232,note_on,,,,,32,0,7,,,,,0,,,76,100
83296,note_off,,,,,64,0,7,,,,,0,,,76,100
83328,note_on,,,,,32,0,7,,,,,0,,,78,100
83392,note_off,,,,,64,0,7,,,,,0,,,78,100
83424,note_on,,,,,32,0,7,,,,,0,,,74,100
83488,note_off,,,,,64,0,7,,,,,0,,,74,100
83520,note_on,,,,,320,0,13,,,,,6,,,33,85
83520,note_on,,,,,320,0,15,,,,,7,,,45,100
83520,note_on,,,,,320,0,14,,,,,7,,,67,100
83520,note_on,,,,,0,0,14,,,,,7,,,64,100
83520,note_on,,,,,32,0,7,,,,,0,,,73,100
83520,note_on,,,,,320,0,12,,,,,5,,,45,85
83612,note_off,,,,,92,0,7,,,,,0,,,73,100
83616,note_on,,,,,4,0,7,,,,,0,,,74,100
83708,note_off,,,,,92,0,7,,,,,0,,,74,100
83712,note_on,,,,,4,0,7,,,,,0,,,76,100
83776,note_off,,,,,256,0,15,,,,,7,,,45,100
83776,note_off,,,,,256,0,12,,,,,5,,,45,100
83776,note_off,,,,,256,0,13,,,,,6,,,33,100
83776,note_off,,,,,0,0,14,,,,,7,,,64,100
83776,note_off,,,,,256,0,14,,,,,7,,,67,100
83776,note_off,,,,,64,0,7,,,,,0,,,76,100
83808,note_on,,,,,32,0,7,,,,,0,,,69,100
83872,note_off,,,,,64,0,7,,,,,0,,,69,100
83904,note_on,,,,,32,0,7,,,,,0,,,71,100
83968,note_off,,,,,64,0,7,,,,,0,,,71,100
84000,note_on,,,,,32,0,7,,,,,0,,,67,100
84064,note_off,,,,,64,0,7,,,,,0,,,67,100
84096,note_on,,,,,320,0,13,,,,,6,,,38,85
84096,note_on,,,,,32,0,7,,,,,0,,,66,100
84096,note_on,,,,,320,0,12,,,,,5,,,50,85
84096,note_on,,,,,320,0,14,,,,,7,,,66,100
84096,note_on,,,,,0,0,14,,,,,7,,,69,100
84096,note_on,,,,,320,0,15,,,,,7,,,50,100
84188,note_off,,,,,92,0,7,,,,,0,,,66,100
84192,note_on,,,,,4,0,7,,,,,0,,,69,100
84284,note_off,,,,,92,0,7,,,,,0,,,69,100
84288,note_on,,,,,4,0,7,,,,,0,,,74,100
84352,note_off,,,,,256,0,14,,,,,7,,,66,100
84352,note_off,,,,,0,0,14,,,,,7,,,69,100
84352,note_off,,,,,256,0,15,,,,,7,,,50,100
84352,note_off,,,,,256,0,12,,,,,5,,,50,100
84352,note_off,,,,,256,0,13,,,,,6,,,38,100
84352,note_off,,,,,64,0,7,,,,,0,,,74,100
84384,note_on,,,,,32,0,7,,,,,0,,,66,100
84448,note_off,,,,,64,0,7,,,,,0,,,66,100
84480,note_on,,,,,32,0,7,,,,,0,,,64,100
84544,note_off,,,,,64,0,7,,,,,0,,,64,100
84576,note_on,,,,,32,0,7,,,,,0,,,62,100
84640,note_off,,,,,64,0,7,,,,,0,,,62,100
84672,note_on,,,,,320,0,15,,,,,7,,,52,100
84672,note_on,,,,,320,0,14,,,,,7,,,67,100
84672,note_on,,,,,0,0,14,,,,,7,,,71,100
84672,note_on,,,,,320,0,12,,,,,5,,,52,85
84672,note_on,,,,,32,0,7,,,,,0,,,55,100
84672,note_on,,,,,320,0,13,,,,,6,,,40,85
84764,note_off,,,,,92,0,7,,,,,0,,,55,100
84768,note_on,,,,,4,0,7,,,,,0,,,64,100
84860,note_off,,,,,92,0,7,,,,,0,,,64,100
84864,note_on,,,,,4,0,7,,,,,0,,,74,100
84928,note_off,,,,,256,0,14,,,,,7,,,67,100
84928,note_off,,,,,0,0,14,,,,,7,,,71,100
84928,note_off,,,,,64,0,7,,,,,0,,,74,100
84928,note_off,,,,,256,0,15,,,,,7,,,52,100
84928,note_off,,,,,256,0,12,,,,,5,,,52,100
84928,note_off,,,,,256,0,13,,,,,6,,,40,100
84960,note_on,,,,,32,0,7,,,,,0,,,72,100
85024,note_off,,,,,64,0,7,,,,,0,,,72,100
85056,note_on,,,,,128,0,12,,,,,5,,,54,85
85056,note_on,,,,,128,0,15,,,,,7,,,54,100
85056,note_on,,,,,32,0,7,,,,,0,,,62,100
85056,note_on,,,,,128,0,13,,,,,6,,,42,85
85056,note_on,,,,,128,0,14,,,,,7,,,72,100
85056,note_on,,,,,0,0,14,,,,,7,,,74,100
85120,note_off,,,,,64,0,7,,,,,0,,,62,100
85152,note_on,,,,,32,0,7,,,,,0,,,72,100
85184,note_off,,,,,128,0,15,,,,,7,,,54,100
85184,note_off,,,,,128,0,13,,,,,6,,,42,100
85184,note_off,,,,,128,0,12,,,,,5,,,54,100
85184,note_off,,,,,0,0,14,,,,,7,,,74,100
85184,note_off,,,,,128,0,14,,,,,7,,,72,100
85216,note_off,,,,,64,0,7,,,,,0,,,72,100
85248,note_on,,,,,64,0,15,,,,,7,,,55,100
85248,note_on,,,,,32,0,7,,,,,0,,,55,100
85248,note_on,,,,,64,0,13,,,,,6,,,43,85
85248,note_on,,,,,64,0,14,,,,,7,,,71,100
85248,note_on,,,,,0,0,14,,,,,7,,,74,100
85248,note_on,,,,,64,0,12,,,,,5,,,55,85
85340,note_off,,,,,92,0,7,,,,,0,,,55,100
85344,note_on,,,,,4,0,7,,,,,0,,,62,100
85436,note_off,,,,,92,0,7,,,,,0,,,62,100
85440,note_on,,,,,4,0,7,,,,,0,,,71,100
85504,note_off,,,,,256,0,12,,,,,5,,,55,100
85504,note_off,,,,,256,0,14,,,,,7,,,71,100
85504,note_off,,,,,0,0,14,,,,,7,,,74,100
85504,note_off,,,,,256,0,13,,,,,6,,,43,100
85504,note_off,,,,,256,0,15,,,,,7,,,55,100
85504,note_off,,,,,64,0,7,,,,,0,,,71,100
85536,note_on,,,,,32,0,7,,,,,0,,,74,100
85600,note_off,,,,,64,0,7,,,,,0,,,74,100
85632,note_on,,,,,128,0,15,,,,,7,,,54,100
85632,note_on,,,,,128,0,13,,,,,6,,,42,85
85632,note_on,,,,,128,0,12,,,,,5,,,54,85
85632,note_on,,,,,32,0,7,,,,,0,,,76,100
85632,note_on,,,,,0,0,14,,,,,7,,,73,100
85632,note_on,,,,,128,0,14,,,,,7,,,69,100
85696,note_off,,,,,64,0,7,,,,,0,,,76,100
85728,note_on,,,,,32,0,7,,,,,0,,,78,100
85760,note_off,,,,,128,0,14,,,,,7,,,69,100
85760,note_off,,,,,0,0,14,,,,,7,,,73,100
85760,note_off,,,,,128,0,12,,,,,5,,,54,100
85760,note_off,,,,,128,0,13,,,,,6,,,42,100
85760,note_off,,,,,128,0,15,,,,,7,,,54,100
85792,note_off,,,,,64,0,7,,,,,0,,,78,100
85824,note_on,,,,,64,0,13,,,,,6,,,40,85
85824,note_on,,,,,64,0,12,,,,,5,,,52,85
85824,note_on,,,,,64,0,14,,,,,7,,,67,100
85824,note_on,,,,,64,0,15,,,,,7,,,52,100
85824,note_on,,,,,32,0,7,,,,,0,,,79,100
85824,note_on,,,,,0,0,14,,,,,7,,,71,100
85916,note_off,,,,,92,0,7,,,,,0,,,79,100
85920,note_on,,,,,4,0,7,,,,,0,,,78,100
86012,note_off,,,,,92,0,7,,,,,0,,,78,100
86016,note_on,,,,,4,0,7,,,,,0,,,76,100
86080,note_off,,,,,64,0,7,,,,,0,,,76,100
86112,note_on,,,,,32,0,7,,,,,0,,,74,100
86176,note_off,,,,,64,0,7,,,,,0,,,74,100
86208,note_on,,,,,32,0,7,,,,,0,,,73,100
86208,note_off,,,,,384,0,15,,,,,7,,,52,100
86208,note_off,,,,,384,0,12,,,,,5,,,52,100
86208,note_off,,,,,0,0,14,,,,,7,,,71,100
86208,note_off,,,,,384,0,14,,,,,7,,,67,100
86208,note_off,,,,,384,0,13,,,,,6,,,40,100
86272,note_off,,,,,64,0,7,,,,,0,,,73,100
86304,note_on,,,,,32,0,7,,,,,0,,,71,100
86368,note_off,,,,,64,0,7,,,,,0,,,71,100
86400,note_on,,,,,32,0,7,,,,,0,,,66,100
86400,note_on,,,,,0,0,14,,,,,7,,,73,100
86400,note_on,,,,,192,0,15,,,,,7,,,54,100
86400,note_on,,,,,192,0,14,,,,,7,,,70,100
86400,note_on,,,,,192,0,12,,,,,5,,,54,85
86400,note_on,,,,,192,0,13,,,,,6,,,42,85
86492,note_off,,,,,92,0,7,,,,,0,,,66,100
86496,note_on,,,,,4,0,7,,,,,0,,,70,100
86588,note_off,,,,,92,0,7,,,,,0,,,70,100
86592,note_on,,,,,4,0,7,,,,,0,,,76,100
86656,note_off,,,,,256,0,12,,,,,5,,,54,100
86656,note_off,,,,,256,0,13,,,,,6,,,42,100
86656,note_off,,,,,64,0,7,,,,,0,,,76,100
86656,note_off,,,,,0,0,14,,,,,7,,,73,100
86656,note_off,,,,,256,0,15,,,,,7,,,54,100
86656,note_off,,,,,256,0,14,,,,,7,,,70,100
86688,note_on,,,,,32,0,7,,,,,0,,,79,100
86752,note_off,,,,,64,0,7,,,,,0,,,79,100
86784,note_on,,,,,128,0,15,,,,,7,,,46,100
86784,note_on,,,,,128,0,13,,,,,6,,,34,85
86784,note_on,,,,,128,0,14,,,,,7,,,64,100
86784,note_on,,,,,32,0,7,,,,,0,,,78,99
86784,note_on,,,,,128,0,12,,,,,5,,,46,85
86784,note_on,,,,,0,0,14,,,,,7,,,66,100
86848,note_off,,,,,64,0,7,,,,,0,,,78,100
86880,note_on,,,,,32,0,7,,,,,0,,,76,98
86912,note_off,,,,,0,0,14,,,,,7,,,66,100
86912,note_off,,,,,128,0,12,,,,,5,,,46,100
86912,note_off,,,,,128,0,13,,,,,6,,,34,100
86912,note_off,,,,,128,0,14,,,,,7,,,64,100
86912,note_off,,,,,128,0,15,,,,,7,,,46,100
86944,note_off,,,,,64,0,7,,,,,0,,,76,100
86976,note_on,,,,,32,0,7,,,,,0,,,74,96
86976,note_on,,,,,64,0,14,,,,,7,,,62,100
86976,note_on,,,,,64,0,15,,,,,7,,,47,100
86976,note_on,,,,,64,0,12,,,,,5,,,47,85
86976,note_on,,,,,64,0,13,,,,,6,,,35,85
86976,note_on,,,,,0,0,14,,,,,7,,,66,100
87168,note_off,,,,,192,0,7,,,,,0,,,74,100
87264,note_on,,,,,96,0,7,,,,,0,,,73,92
87328,note_off,,,,,64,0,7,,,,,0,,,73,100
87360,note_off,,,,,384,0,12,,,,,5,,,47,100
87360,note_off,,,,,384,0,13,,,,,6,,,35,100
87360,note_off,,,,,384,0,14,,,,,7,,,62,100
87360,note_off,,,,,384,0,15,,,,,7,,,47,100
87360,note_off,,,,,0,0,14,,,,,7,,,66,100
87360,note_on,,,,,32,0,7,,,,,0,,,71,91
87488,note_off,,,,,128,0,7,,,,,0,,,71,100
87548,program_change,,,,,7228,0,9,,,,,2,48,,,
87548,program_change,,,,,6076,0,10,,,,,3,48,,,
87548,program_change,,,,,6076,0,8,,,,,1,48,,,
87548,program_change,,,,,60,0,7,,,,,0,48,,,
87552,note_on,,,,,192,0,15,,,,,7,,,47,100
87552,note_on,,,,,16448,0,11,,,,,4,,,62,70
87552,note_on,,,,,0,0,14,,,,,7,,,62,100
87552,note_on,,,,,4,0,10,,,,,3,,,71,20
87552,note_on,,,,,192,0,14,,,,,7,,,66,100
87552,note_on,,,,,0,0,11,,,,,4,,,66,70
87552,note_on,,,,,192,0,12,,,,,5,,,47,70
87552,note_on,,,,,4,0,7,,,,,0,,,74,20
87552,note_on,,,,,4,0,9,,,,,2,,,74,70
87552,note_on,,,,,4,0,8,,,,,1,,,71,70
87552,note_on,,,,,192,0,13,,,,,6,,,35,70
87616,note_off,,,,,64,0,12,,,,,5,,,47,100
87616,note_off,,,,,64,0,10,,,,,3,,,71,100
87616,note_off,,,,,64,0,9,,,,,2,,,74,100
87616,note_off,,,,,64,0,7,,,,,0,,,74,100
87616,note_off,,,,,0,0,11,,,,,4,,,66,100
87616,note_off,,,,,64,0,13,,,,,6,,,35,100
87616,note_off,,,,,64,0,11,,,,,4,,,62,100
87616,note_off,,,,,64,0,8,,,,,1,,,71,100
87616,note_off,,,,,64,0,15,,,,,7,,,47,100
87648,note_on,,,,,32,0,13,,,,,6,,,35,71
87648,note_on,,,,,32,0,10,,,,,3,,,71,21
87648,note_on,,,,,0,0,11,,,,,4,,,66,71
87648,note_on,,,,,32,0,11,,,,,4,,,62,71
87648,note_on,,,,,32,0,8,,,,,1,,,71,71
87648,note_on,,,,,32,0,12,,,,,5,,,47,71
87648,note_on,,,,,32,0,7,,,,,0,,,74,21
87648,note_on,,,,,32,0,9,,,,,2,,,74,71
87648,note_on,,,,,32,0,15,,,,,7,,,47,100
87680,note_off,,,,,0,0,14,,,,,7,,,62,100
87680,note_off,,,,,128,0,14,,,,,7,,,66,100
87712,note_off,,,,,64,0,8,,,,,1,,,71,100
87712,note_off,,,,,64,0,10,,,,,3,,,71,100
87712,note_off,,,,,64,0,13,,,,,6,,,35,100
87712,note_off,,,,,64,0,12,,,,,5,,,47,100
87712,note_off,,,,,64,0,9,,,,,2,,,74,100
87712,note_off,,,,,64,0,15,,,,,7,,,47,100
87712,note_off,,,,,64,0,11,,,,,4,,,62,100
87712,note_off,,,,,0,0,11,,,,,4,,,66,100
87712,note_off,,,,,64,0,7,,,,,0,,,74,100
87744,note_on,,,,,32,0,12,,,,,5,,,47,72
87744,note_on,,,,,32,0,7,,,,,0,,,74,22
87744,note_on,,,,,32,0,15,,,,,7,,,47,100
87744,note_on,,,,,64,0,14,,,,,7,,,66,100
87744,note_on,,,,,0,0,14,,,,,7,,,62,100
87744,note_on,,,,,32,0,9,,,,,2,,,74,72
87744,note_on,,,,,32,0,10,,,,,3,,,71,22
87744,note_on,,,,,32,0,8,,,,,1,,,71,72
87744,note_on,,,,,32,0,13,,,,,6,,,35,72
87744,note_on,,,,,32,0,11,,,,,4,,,62,72
87744,note_on,,,,,0,0,11,,,,,4,,,66,72
87808,note_off,,,,,64,0,10,,,,,3,,,71,100
87808,note_off,,,,,64,0,8,,,,,1,,,71,100
87808,note_off,,,,,64,0,7,,,,,0,,,74,100
87808,note_off,,,,,64,0,13,,,,,6,,,35,100
87808,note_off,,,,,64,0,11,,,,,4,,,62,100
87808,note_off,,,,,64,0,15,,,,,7,,,47,100
87808,note_off,,,,,0,0,11,,,,,4,,,66,100
87808,note_off,,,,,64,0,12,,,,,5,,,47,100
87808,note_off,,,,,64,0,9,,,,,2,,,74,100
87840,note_on,,,,,32,0,9,,,,,2,,,74,73
87840,note_on,,,,,32,0,7,,,,,0,,,74,23
87840,note_on,,,,,32,0,15,,,,,7,,,47,100
87840,note_on,,,,,0,0,11,,,,,4,,,66,73
87840,note_on,,,,,32,0,13,,,,,6,,,35,73
87840,note_on,,,,,32,0,12,,,,,5,,,47,73
87840,note_on,,,,,32,0,11,,,,,4,,,62,73
87840,note_on,,,,,32,0,10,,,,,3,,,71,23
87840,note_on,,,,,32,0,8,,,,,1,,,71,73
87872,note_off,,,,,128,0,14,,,,,7,,,66,100
87872,note_off,,,,,0,0,14,,,,,7,,,62,100
87904,note_off,,,,,64,0,12,,,,,5,,,47,100
87904,note_off,,,,,64,0,13,,,,,6,,,35,100
87904,note_off,,,,,64,0,10,,,,,3,,,71,100
87904,note_off,,,,,64,0,7,,,,,0,,,74,100
87904,note_off,,,,,64,0,9,,,,,2,,,74,100
87904,note_off,,,,,0,0,11,,,,,4,,,66,100
87904,note_off,,,,,64,0,15,,,,,7,,,47,100
87904,note_off,,,,,64,0,11,,,,,4,,,62,100
87904,note_off,,,,,64,0,8,,,,,1,,,71,100
87936,note_on,,,,,32,0,7,,,,,0,,,74,24
87936,note_on,,,,,32,0,12,,,,,5,,,47,74
87936,note_on,,,,,32,0,10,,,,,3,,,71,24
87936,note_on,,,,,32,0,8,,,,,1,,,71,74
87936,note_on,,,,,32,0,11,,,,,4,,,62,74
87936,note_on,,,,,64,0,14,,,,,7,,,66,100
87936,note_on,,,,,0,0,14,,,,,7,,,62,100
87936,note_on,,,,,32,0,15,,,,,7,,,47,100
87936,note_on,,,,,32,0,13,,,,,6,,,35,74
87936,note_on,,,,,32,0,9,,,,,2,,,74,74
87936,note_on,,,,,0,0,11,,,,,4,,,66,74
88000,note_off,,,,,64,0,10,,,,,3,,,71,100
88000,note_off,,,,,64,0,7,,,,,0,,,74,100
88000,note_off,,,,,64,0,15,,,,,7,,,47,100
88000,note_off,,,,,64,0,13,,,,,6,,,35,100
88000,note_off,,,,,64,0,11,,,,,4,,,62,100
88000,note_off,,,,,0,0,11,,,,,4,,,66,100
88000,note_off,,,,,64,0,8,,,,,1,,,71,100
88000,note_off,,,,,64,0,9,,,,,2,,,74,100
88000,note_off,,,,,64,0,12,,,,,5,,,47,100
88032,note_on,,,,,32,0,9,,,,,2,,,74,76
88032,note_on,,,,,0,0,11,,,,,4,,,66,76
88032,note_on,,,,,32,0,11,,,,,4,,,62,76
88032,note_on,,,,,32,0,12,,,,,5,,,47,76
88032,note_on,,,,,32,0,7,,,,,0,,,74,26
88032,note_on,,,,,32,0,15,,,,,7,,,47,100
88032,note_on,,,,,32,0,10,,,,,3,,,71,26
88032,note_on,,,,,32,0,8,,,,,1,,,71,76
88032,note_on,,,,,32,0,13,,,,,6,,,35,76
88064,note_off,,,,,128,0,14,,,,,7,,,66,100
88064,note_off,,,,,0,0,14,,,,,7,,,62,100
88096,note_off,,,,,64,0,15,,,,,7,,,47,100
88096,note_off,,,,,64,0,7,,,,,0,,,74,100
88096,note_off,,,,,64,0,9,,,,,2,,,74,100
88096,note_off,,,,,64,0,12,,,,,5,,,47,100
88096,note_off,,,,,64,0,10,,,,,3,,,71,100
88096,note_off,,,,,64,0,8,,,,,1,,,71,100
88096,note_off,,,,,64,0,11,,,,,4,,,62,100
88096,note_off,,,,,0,0,11,,,,,4,,,66,100
88096,note_off,,,,,64,0,13,,,,,6,,,35,100
88128,note_on,,,,,32,0,7,,,,,0,,,73,27
88128,note_on,,,,,0,0,14,,,,,7,,,73,100
88128,note_on,,,,,64,0,14,,,,,7,,,71,100
88128,note_on,,,,,32,0,11,,,,,4,,,64,77
88128,note_on,,,,,0,0,11,,,,,4,,,67,77
88128,note_on,,,,,32,0,9,,,,,2,,,73,77
88128,note_on,,,,,32,0,10,,,,,3,,,71,27
88128,note_on,,,,,32,0,13,,,,,6,,,40,77
88128,note_on,,,,,32,0,12,,,,,5,,,52,77
88128,note_on,,,,,32,0,8,,,,,1,,,71,77
88128,note_on,,,,,32,0,15,,,,,7,,,52,100
88192,note_off,,,,,64,0,9,,,,,2,,,73,100
88192,note_off,,,,,64,0,10,,,,,3,,,71,100
88192,note_off,,,,,64,0,12,,,,,5,,,52,100
88192,note_off,,,,,0,0,11,,,,,4,,,67,100
88192,note_off,,,,,64,0,11,,,,,4,,,64,100
88192,note_off,,,,,64,0,7,,,,,0,,,73,100
88192,note_off,,,,,64,0,13,,,,,6,,,40,100
88192,note_off,,,,,64,0,15,,,,,7,,,52,100
88192,note_off,,,,,64,0,8,,,,,1,,,71,100
88224,note_on,,,,,0,0,11,,,,,4,,,67,78
88224,note_on,,,,,32,0,10,,,,,3,,,71,28
88224,note_on,,,,,32,0,13,,,,,6,,,40,78
88224,note_on,,,,,32,0,11,,,,,4,,,64,78
88224,note_on,,,,,32,0,9,,,,,2,,,73,78
88224,note_on,,,,,32,0,12,,,,,5,,,52,78
88224,note_on,,,,,32,0,8,,,,,1,,,71,78
88224,note_on,,,,,32,0,7,,,,,0,,,73,28
88224,note_on,,,,,32,0,15,,,,,7,,,52,100
88256,note_off,,,,,128,0,14,,,,,7,,,71,100
88256,note_off,,,,,0,0,14,,,,,7,,,73,100
88288,note_off,,,,,64,0,8,,,,,1,,,71,100
88288,note_off,,,,,64,0,12,,,,,5,,,52,100
88288,note_off,,,,,64,0,15,,,,,7,,,52,100
88288,note_off,,,,,64,0,9,,,,,2,,,73,100
88288,note_off,,,,,64,0,13,,,,,6,,,40,100
88288,note_off,,,,,64,0,7,,,,,0,,,73,100
88288,note_off,,,,,0,0,11,,,,,4,,,67,100
88288,note_off,,,,,64,0,11,,,,,4,,,64,100
88288,note_off,,,,,64,0,10,,,,,3,,,71,100
88320,note_on,,,,,32,0,15,,,,,7,,,52,100
88320,note_on,,,,,32,0,13,,,,,6,,,40,79
88320,note_on,,,,,0,0,11,,,,,4,,,67,79
88320,note_on,,,,,32,0,11,,,,,4,,,64,79
88320,note_on,,,,,32,0,9,,,,,2,,,73,79
88320,note_on,,,,,32,0,12,,,,,5,,,52,79
88320,note_on,,,,,64,0,14,,,,,7,,,71,100
88320,note_on,,,,,32,0,8,,,,,1,,,71,79
88320,note_on,,,,,32,0,7,,,,,0,,,73,29
88320,note_on,,,,,32,0,10,,,,,3,,,71,29
88320,note_on,,,,,0,0,14,,,,,7,,,73,100
88384,note_off,,,,,64,0,13,,,,,6,,,40,100
88384,note_off,,,,,64,0,11,,,,,4,,,64,100
88384,note_off,,,,,0,0,11,,,,,4,,,67,100
88384,note_off,,,,,64,0,12,,,,,5,,,52,100
88384,note_off,,,,,64,0,8,,,,,1,,,71,100
88384,note_off,,,,,64,0,15,,,,,7,,,52,100
88384,note_off,,,,,64,0,7,,,,,0,,,73,100
88384,note_off,,,,,64,0,9,,,,,2,,,73,100
88384,note_off,,,,,64,0,10,,,,,3,,,71,100
88416,note_on,,,,,32,0,13,,,,,6,,,40,81
88416,note_on,,,,,32,0,9,,,,,2,,,73,81
88416,note_on,,,,,32,0,11,,,,,4,,,64,81
88416,note_on,,,,,0,0,11,,,,,4,,,67,81
88416,note_on,,,,,32,0,7,,,,,0,,,73,31
88416,note_on,,,,,32,0,12,,,,,5,,,52,81
88416,note_on,,,,,32,0,10,,,,,3,,,71,31
88416,note_on,,,,,32,0,8,,,,,1,,,71,81
88416,note_on,,,,,32,0,15,,,,,7,,,52,100
88448,note_off,,,,,0,0,14,,,,,7,,,73,100
88448,note_off,,,,,128,0,14,,,,,7,,,71,100
88480,note_off,,,,,64,0,12,,,,,5,,,52,100
88480,note_off,,,,,64,0,13,,,,,6,,,40,100
88480,note_off,,,,,64,0,15,,,,,7,,,52,100
88480,note_off,,,,,64,0,10,,,,,3,,,71,100
88480,note_off,,,,,64,0,9,,,,,2,,,73,100
88480,note_off,,,,,64,0,8,,,,,1,,,71,100
88480,note_off,,,,,64,0,7,,,,,0,,,73,100
88480,note_off,,,,,64,0,11,,,,,4,,,64,100
88480,note_off,,,,,0,0,11,,,,,4,,,67,100
88512,note_on,,,,,32,0,15,,,,,7,,,52,100
88512,note_on,,,,,0,0,11,,,,,4,,,67,82
88512,note_on,,,,,32,0,8,,,,,1,,,71,82
88512,note_on,,,,,32,0,10,,,,,3,,,71,32
88512,note_on,,,,,32,0,12,,,,,5,,,52,82
88512,note_on,,,,,32,0,11,,,,,4,,,64,82
88512,note_on,,,,,32,0,9,,,,,2,,,73,82
88512,note_on,,,,,32,0,7,,,,,0,,,73,32
88512,note_on,,,,,32,0,13,,,,,6,,,40,82
88512,note_on,,,,,0,0,14,,,,,7,,,73,100
88512,note_on,,,,,64,0,14,,,,,7,,,71,100
88576,note_off,,,,,64,0,12,,,,,5,,,52,100
88576,note_off,,,,,64,0,15,,,,,7,,,52,100
88576,note_off,,,,,0,0,11,,,,,4,,,67,100
88576,note_off,,,,,64,0,11,,,,,4,,,64,100
88576,note_off,,,,,64,0,13,,,,,6,,,40,100
88576,note_off,,,,,64,0,9,,,,,2,,,73,100
88576,note_off,,,,,64,0,10,,,,,3,,,71,100
88576,note_off,,,,,64,0,8,,,,,1,,,71,100
88576,note_off,,,,,64,0,7,,,,,0,,,73,100
88608,note_on,,,,,32,0,12,,,,,5,,,52,83
88608,note_on,,,,,32,0,10,,,,,3,,,71,33
88608,note_on,,,,,32,0,13,,,,,6,,,40,83
88608,note_on,,,,,32,0,11,,,,,4,,,64,83
88608,note_on,,,,,0,0,11,,,,,4,,,67,83
88608,note_on,,,,,32,0,7,,,,,0,,,73,33
88608,note_on,,,,,32,0,15,,,,,7,,,52,100
88608,note_on,,,,,32,0,9,,,,,2,,,73,83
88608,note_on,,,,,32,0,8,,,,,1,,,71,83
88640,note_off,,,,,0,0,14,,,,,7,,,73,100
88640,note_off,,,,,128,0,14,,,,,7,,,71,100
88672,note_off,,,,,64,0,9,,,,,2,,,73,100
88672,note_off,,,,,64,0,7,,,,,0,,,73,100
88672,note_off,,,,,64,0,10,,,,,3,,,71,100
88672,note_off,,,,,64,0,15,,,,,7,,,52,100
88672,note_off,,,,,0,0,11,,,,,4,,,67,100
88672,note_off,,,,,64,0,11,,,,,4,,,64,100
88672,note_off,,,,,64,0,12,,,,,5,,,52,100
88672,note_off,,,,,64,0,8,,,,,1,,,71,100
88672,note_off,,,,,64,0,13,,,,,6,,,40,100
88704,note_on,,,,,0,0,11,,,,,4,,,66,84
88704,note_on,,,,,32,0,9,,,,,2,,,73,84
88704,note_on,,,,,32,0,7,,,,,0,,,73,34
88704,note_on,,,,,32,0,8,,,,,1,,,70,84
88704,note_on,,,,,32,0,12,,,,,5,,,54,84
88704,note_on,,,,,32,0,15,,,,,7,,,54,100
88704,note_on,,,,,32,0,10,,,,,3,,,70,34
88704,note_on,,,,,64,0,14,,,,,7,,,70,100
88704,note_on,,,,,0,0,14,,,,,7,,,73,100
88704,note_on,,,,,32,0,11,,,,,4,,,61,84
88704,note_on,,,,,32,0,13,,,,,6,,,42,84
88736,note_off,,,,,32,0,11,,,,,4,,,61,100
88736,note_off,,,,,0,0,11,,,,,4,,,66,100
88768,note_off,,,,,64,0,15,,,,,7,,,54,100
88768,note_off,,,,,64,0,8,,,,,1,,,70,100
88768,note_off,,,,,64,0,12,,,,,5,,,54,100
88768,note_off,,,,,64,0,13,,,,,6,,,42,100
88768,note_off,,,,,64,0,9,,,,,2,,,73,100
88768,note_off,,,,,64,0,7,,,,,0,,,73,100
88768,note_off,,,,,64,0,10,,,,,3,,,70,100
88800,note_on,,,,,32,0,13,,,,,6,,,42,85
88800,note_on,,,,,32,0,8,,,,,1,,,70,85
88800,note_on,,,,,32,0,10,,,,,3,,,70,35
88800,note_on,,,,,32,0,12,,,,,5,,,54,85
88800,note_on,,,,,32,0,7,,,,,0,,,73,35
88800,note_on,,,,,32,0,9,,,,,2,,,73,85
88800,note_on,,,,,0,0,11,,,,,4,,,66,85
88800,note_on,,,,,64,0,11,,,,,4,,,61,85
88800,note_on,,,,,32,0,15,,,,,7,,,54,100
88832,note_off,,,,,128,0,14,,,,,7,,,70,100
88832,note_off,,,,,0,0,11,,,,,4,,,66,100
88832,note_off,,,,,32,0,11,,,,,4,,,61,100
88832,note_off,,,,,0,0,14,,,,,7,,,73,100
88864,note_off,,,,,64,0,10,,,,,3,,,70,100
88864,note_off,,,,,64,0,13,,,,,6,,,42,100
88864,note_off,,,,,64,0,12,,,,,5,,,54,100
88864,note_off,,,,,64,0,7,,,,,0,,,73,100
88864,note_off,,,,,64,0,8,,,,,1,,,70,100
88864,note_off,,,,,64,0,15,,,,,7,,,54,100
88864,note_off,,,,,64,0,9,,,,,2,,,73,100
88896,note_on,,,,,32,0,8,,,,,1,,,70,85
88896,note_on,,,,,0,0,14,,,,,7,,,73,100
88896,note_on,,,,,32,0,12,,,,,5,,,54,85
88896,note_on,,,,,32,0,10,,,,,3,,,70,35
88896,note_on,,,,,32,0,15,,,,,7,,,54,100
88896,note_on,,,,,32,0,13,,,,,6,,,42,85
88896,note_on,,,,,64,0,11,,,,,4,,,61,85
88896,note_on,,,,,32,0,7,,,,,0,,,73,35
88896,note_on,,,,,0,0,11,,,,,4,,,66,85
88896,note_on,,,,,64,0,14,,,,,7,,,70,100
88896,note_on,,,,,32,0,9,,,,,2,,,73,85
88928,note_off,,,,,32,0,11,,,,,4,,,61,100
88928,note_off,,,,,0,0,11,,,,,4,,,66,100
88960,note_off,,,,,64,0,9,,,,,2,,,73,100
88960,note_off,,,,,64,0,7,,,,,0,,,73,100
88960,note_off,,,,,64,0,15,,,,,7,,,54,100
88960,note_off,,,,,64,0,13,,,,,6,,,42,100
88960,note_off,,,,,64,0,8,,,,,1,,,70,100
88960,note_off,,,,,64,0,12,,,,,5,,,54,100
88960,note_off,,,,,64,0,10,,,,,3,,,70,100
88992,note_on,,,,,32,0,15,,,,,7,,,54,100
88992,note_on,,,,,32,0,13,,,,,6,,,42,85
88992,note_on,,,,,32,0,9,,,,,2,,,73,85
88992,note_on,,,,,32,0,12,,,,,5,,,54,85
88992,note_on,,,,,32,0,10,,,,,3,,,70,35
88992,note_on,,,,,64,0,11,,,,,4,,,61,85
88992,note_on,,,,,0,0,11,,,,,4,,,66,85
88992,note_on,,,,,32,0,8,,,,,1,,,70,85
88992,note_on,,,,,32,0,7,,,,,0,,,73,35
89024,note_off,,,,,32,0,11,,,,,4,,,61,100
89024,note_off,,,,,0,0,14,,,,,7,,,73,100
89024,note_off,,,,,0,0,11,,,,,4,,,66,100
89024,note_off,,,,,128,0,14,,,,,7,,,70,100
89056,note_off,,,,,64,0,15,,,,,7,,,54,100
89056,note_off,,,,,64,0,7,,,,,0,,,73,100
89056,note_off,,,,,64,0,12,,,,,5,,,54,100
89056,note_off,,,,,64,0,13,,,,,6,,,42,100
89056,note_off,,,,,64,0,8,,,,,1,,,70,100
89056,note_off,,,,,64,0,9,,,,,2,,,73,100
89056,note_off,,,,,64,0,10,,,,,3,,,70,100
89088,note_on,,,,,64,0,11,,,,,4,,,61,85
89088,note_on,,,,,0,0,11,,,,,4,,,66,85
89088,note_on,,,,,32,0,9,,,,,2,,,73,85
89088,note_on,,,,,32,0,7,,,,,0,,,73,35
89088,note_on,,,,,32,0,13,,,,,6,,,42,85
89088,note_on,,,,,32,0,12,,,,,5,,,54,85
89088,note_on,,,,,32,0,15,,,,,7,,,54,100
89088,note_on,,,,,32,0,10,,,,,3,,,70,35
89088,note_on,,,,,64,0,14,,,,,7,,,70,100
89088,note_on,,,,,32,0,8,,,,,1,,,70,85
89088,note_on,,,,,0,0,14,,,,,7,,,73,100
89120,note_off,,,,,0,0,11,,,,,4,,,66,100
89120,note_off,,,,,32,0,11,,,,,4,,,61,100
89152,note_off,,,,,64,0,7,,,,,0,,,73,100
89152,note_off,,,,,64,0,10,,,,,3,,,70,100
89152,note_off,,,,,64,0,13,,,,,6,,,42,100
89152,note_off,,,,,64,0,12,,,,,5,,,54,100
89152,note_off,,,,,64,0,9,,,,,2,,,73,100
89152,note_off,,,,,64,0,15,,,,,7,,,54,100
89152,note_off,,,,,64,0,8,,,,,1,,,70,100
89184,note_on,,,,,32,0,13,,,,,6,,,42,85
89184,note_on,,,,,32,0,7,,,,,0,,,73,35
89184,note_on,,,,,32,0,15,,,,,7,,,54,100
89184,note_on,,,,,32,0,9,,,,,2,,,73,85
89184,note_on,,,,,32,0,10,,,,,3,,,70,35
89184,note_on,,,,,0,0,11,,,,,4,,,66,85
89184,note_on,,,,,64,0,11,,,,,4,,,61,85
89184,note_on,,,,,32,0,12,,,,,5,,,54,85
89184,note_on,,,,,32,0,8,,,,,1,,,70,85
89216,note_off,,,,,128,0,14,,,,,7,,,70,100
89216,note_off,,,,,32,0,11,,,,,4,,,61,100
89216,note_off,,,,,0,0,11,,,,,4,,,66,100
89216,note_off,,,,,0,0,14,,,,,7,,,73,100
89248,note_off,,,,,64,0,7,,,,,0,,,73,100
89248,note_off,,,,,64,0,15,,,,,7,,,54,100
89248,note_off,,,,,64,0,8,,,,,1,,,70,100
89248,note_off,,,,,64,0,13,,,,,6,,,42,100
89248,note_off,,,,,64,0,9,,,,,2,,,73,100
89248,note_off,,,,,64,0,12,,,,,5,,,54,100
89248,note_off,,,,,64,0,10,,,,,3,,,70,100
89276,program_change,,,,,28,0,7,,,,,0,40,,,
89280,note_on,,,,,32,0,8,,,,,1,,,71,85
89280,note_on,,,,,32,0,9,,,,,2,,,71,85
89280,note_on,,,,,32,0,13,,,,,6,,,35,85
89280,note_on,,,,,32,0,12,,,,,5,,,47,85
89280,note_on,,,,,32,0,15,,,,,7,,,47,100
89280,note_on,,,,,32,0,10,,,,,3,,,71,35
89280,note_on,,,,,64,0,11,,,,,4,,,62,85
89280,note_on,,,,,0,0,11,,,,,4,,,66,85
89280,note_on,,,,,4,0,7,,,,,0,,,71,85
89282,program_change,,,,,2,0,12,,,,,5,43,,,
89294,note_on,,,,,78,0,14,,,,,7,,,66,100
89310,note_on,,,,,16,0,14,,,,,7,,,71,100
89326,note_on,,,,,16,0,14,,,,,7,,,74,100
89344,note_off,,,,,62,0,12,,,,,5,,,47,100
89344,note_off,,,,,64,0,7,,,,,0,,,71,100
89376,note_on,,,,,32,0,12,,,,,5,,,63,75
89376,note_on,,,,,32,0,7,,,,,0,,,78,95
89408,note_off,,,,,128,0,11,,,,,4,,,62,100
89408,note_off,,,,,0,0,11,,,,,4,,,66,100
89440,note_off,,,,,64,0,12,,,,,5,,,63,100
89440,note_off,,,,,64,0,7,,,,,0,,,78,100
89472,note_on,,,,,32,0,12,,,,,5,,,63,75
89472,note_on,,,,,0,0,11,,,,,4,,,59,60
89472,note_on,,,,,32,0,7,,,,,0,,,78,95
89472,note_on,,,,,64,0,11,,,,,4,,,63,60
89536,note_off,,,,,256,0,13,,,,,6,,,35,100
89536,note_off,,,,,256,0,15,,,,,7,,,47,100
89536,note_off,,,,,64,0,12,,,,,5,,,63,100
89536,note_off,,,,,64,0,7,,,,,0,,,78,100
89536,note_off,,,,,256,0,8,,,,,1,,,71,100
89536,note_off,,,,,256,0,9,,,,,2,,,71,100
89536,note_off,,,,,256,0,10,,,,,3,,,71,100
89550,note_off,,,,,224,0,14,,,,,7,,,66,100
89566,note_off,,,,,16,0,14,,,,,7,,,71,100
89568,note_on,,,,,32,0,7,,,,,0,,,78,95
89568,note_on,,,,,32,0,12,,,,,5,,,63,75
89582,note_off,,,,,16,0,14,,,,,7,,,74,100
89600,note_off,,,,,0,0,11,,,,,4,,,59,100
89600,note_off,,,,,128,0,11,,,,,4,,,63,100
89632,note_off,,,,,64,0,12,,,,,5,,,63,100
89632,note_off,,,,,64,0,7,,,,,0,,,78,100
89664,note_on,,,,,64,0,11,,,,,4,,,63,60
89664,note_on,,,,,0,0,11,,,,,4,,,59,60
89664,note_on,,,,,32,0,12,,,,,5,,,59,75
89664,note_on,,,,,32,0,7,,,,,0,,,75,95
89728,note_off,,,,,64,0,12,,,,,5,,,59,100
89728,note_off,,,,,64,0,7,,,,,0,,,75,100
89760,note_on,,,,,32,0,12,,,,,5,,,63,75
89760,note_on,,,,,32,0,7,,,,,0,,,78,95
89792,note_off,,,,,128,0,11,,,,,4,,,63,100
89792,note_off,,,,,0,0,11,,,,,4,,,59,100
89824,note_off,,,,,64,0,12,,,,,5,,,63,100
89824,note_off,,,,,64,0,7,,,,,0,,,78,100
89856,note_on,,,,,64,0,11,,,,,4,,,63,60
89856,note_on,,,,,0,0,11,,,,,4,,,59,60
89856,program_change,,,,,320,0,8,,,,,1,40,,,
89856,program_change,,,,,320,0,9,,,,,2,40,,,
89856,program_change,,,,,320,0,10,,,,,3,40,,,
89856,note_on,,,,,32,0,12,,,,,5,,,47,75
89856,note_on,,,,,32,0,7,,,,,0,,,71,95
89920,note_off,,,,,64,0,7,,,,,0,,,71,100
89920,note_off,,,,,64,0,12,,,,,5,,,47,100
89952,note_on,,,,,32,0,7,,,,,0,,,78,95
89952,note_on,,,,,32,0,12,,,,,5,,,63,75
89984,note_off,,,,,128,0,11,,,,,4,,,63,100
89984,note_off,,,,,0,0,11,,,,,4,,,59,100
90016,note_off,,,,,64,0,12,,,,,5,,,63,100
90016,note_off,,,,,64,0,7,,,,,0,,,78,100
90048,note_on,,,,,32,0,7,,,,,0,,,78,95
90048,note_on,,,,,0,0,11,,,,,4,,,59,60
90048,note_on,,,,,64,0,11,,,,,4,,,63,60
90048,note_on,,,,,32,0,12,,,,,5,,,63,75
90112,note_off,,,,,64,0,7,,,,,0,,,78,100
90112,note_off,,,,,64,0,12,,,,,5,,,63,100
90144,note_on,,,,,32,0,12,,,,,5,,,63,75
90144,note_on,,,,,32,0,7,,,,,0,,,78,95
90176,note_off,,,,,128,0,11,,,,,4,,,63,100
90176,note_off,,,,,0,0,11,,,,,4,,,59,100
90208,note_off,,,,,64,0,7,,,,,0,,,78,100
90208,note_off,,,,,64,0,12,,,,,5,,,63,100
90240,note_on,,,,,64,0,11,,,,,4,,,63,60
90240,note_on,,,,,0,0,11,,,,,4,,,59,60
90240,note_on,,,,,32,0,12,,,,,5,,,59,75
90240,note_on,,,,,32,0,7,,,,,0,,,75,95
90304,note_off,,,,,64,0,7,,,,,0,,,75,100
90304,note_off,,,,,64,0,12,,,,,5,,,59,100
90336,note_on,,,,,32,0,7,,,,,0,,,78,95
90336,note_on,,,,,32,0,12,,,,,5,,,63,75
90368,note_off,,,,,128,0,11,,,,,4,,,63,100
90368,note_off,,,,,0,0,11,,,,,4,,,59,100
90400,note_off,,,,,64,0,7,,,,,0,,,78,100
90400,note_off,,,,,64,0,12,,,,,5,,,63,100
90432,note_on,,,,,32,0,12,,,,,5,,,47,75
90432,note_on,,,,,64,0,11,,,,,4,,,63,60
90432,note_on,,,,,0,0,11,,,,,4,,,59,60
90432,note_on,,,,,32,0,7,,,,,0,,,71,95
90496,note_off,,,,,64,0,12,,,,,5,,,47,100
90496,note_off,,,,,64,0,7,,,,,0,,,71,100
90528,note_on,,,,,32,0,12,,,,,5,,,63,75
90528,note_on,,,,,32,0,7,,,,,0,,,78,95
90560,note_off,,,,,128,0,11,,,,,4,,,63,100
90560,note_off,,,,,0,0,11,,,,,4,,,59,100
90592,note_off,,,,,64,0,12,,,,,5,,,63,100
90592,note_off,,,,,64,0,7,,,,,0,,,78,100
90624,note_on,,,,,64,0,11,,,,,4,,,63,60
90624,note_on,,,,,32,0,7,,,,,0,,,78,95
90624,note_on,,,,,32,0,12,,,,,5,,,63,75
90624,note_on,,,,,0,0,11,,,,,4,,,59,60
90688,note_off,,,,,64,0,12,,,,,5,,,63,100
90688,note_off,,,,,64,0,7,,,,,0,,,78,100
90720,note_on,,,,,32,0,12,,,,,5,,,63,75
90720,note_on,,,,,32,0,7,,,,,0,,,78,95
90752,note_off,,,,,128,0,11,,,,,4,,,63,100
90752,note_off,,,,,0,0,11,,,,,4,,,59,100
90784,note_off,,,,,64,0,7,,,,,0,,,78,100
90784,note_off,,,,,64,0,12,,,,,5,,,63,100
90816,note_on,,,,,64,0,11,,,,,4,,,63,60
90816,note_on,,,,,0,0,11,,,,,4,,,59,60
90816,note_on,,,,,32,0,12,,,,,5,,,59,75
90816,note_on,,,,,32,0,7,,,,,0,,,75,95
90880,note_off,,,,,64,0,12,,,,,5,,,59,100
90880,note_off,,,,,64,0,7,,,,,0,,,75,100
90912,note_on,,,,,32,0,12,,,,,5,,,63,75
90912,note_on,,,,,32,0,7,,,,,0,,,78,95
90944,note_off,,,,,0,0,11,,,,,4,,,59,100
90944,note_off,,,,,128,0,11,,,,,4,,,63,100
90976,note_off,,,,,64,0,12,,,,,5,,,63,100
90976,note_off,,,,,64,0,7,,,,,0,,,78,100
91008,note_on,,,,,64,0,11,,,,,4,,,63,60
91008,note_on,,,,,0,0,11,,,,,4,,,59,60
91008,note_on,,,,,32,0,7,,,,,0,,,69,95
91008,note_on,,,,,32,0,12,,,,,5,,,47,75
91072,note_off,,,,,64,0,7,,,,,0,,,69,100
91072,note_off,,,,,64,0,12,,,,,5,,,47,100
91104,note_on,,,,,32,0,12,,,,,5,,,63,75
91104,note_on,,,,,32,0,7,,,,,0,,,78,95
91136,note_off,,,,,128,0,11,,,,,4,,,63,100
91136,note_off,,,,,0,0,11,,,,,4,,,59,100
91168,note_off,,,,,64,0,12,,,,,5,,,63,100
91168,note_off,,,,,64,0,7,,,,,0,,,78,100
91200,note_on,,,,,0,0,11,,,,,4,,,59,60
91200,note_on,,,,,64,0,11,,,,,4,,,63,60
91200,note_on,,,,,32,0,12,,,,,5,,,63,75
91200,note_on,,,,,32,0,7,,,,,0,,,78,95
91264,note_off,,,,,64,0,12,,,,,5,,,63,100
91264,note_off,,,,,64,0,7,,,,,0,,,78,100
91296,note_on,,,,,32,0,7,,,,,0,,,78,95
91296,note_on,,,,,32,0,12,,,,,5,,,63,75
91328,note_off,,,,,0,0,11,,,,,4,,,59,100
91328,note_off,,,,,128,0,11,,,,,4,,,63,100
91360,note_off,,,,,64,0,7,,,,,0,,,78,100
91360,note_off,,,,,64,0,12,,,,,5,,,63,100
91392,note_on,,,,,32,0,12,,,,,5,,,59,75
91392,note_on,,,,,0,0,11,,,,,4,,,59,60
91392,note_on,,,,,64,0,11,,,,,4,,,63,60
91392,note_on,,,,,32,0,7,,,,,0,,,75,95
91456,note_off,,,,,64,0,12,,,,,5,,,59,100
91456,note_off,,,,,64,0,7,,,,,0,,,75,100
91488,note_on,,,,,32,0,12,,,,,5,,,63,75
91488,note_on,,,,,32,0,7,,,,,0,,,78,95
91520,note_off,,,,,128,0,11,,,,,4,,,63,100
91520,note_off,,,,,0,0,11,,,,,4,,,59,100
91552,note_off,,,,,64,0,7,,,,,0,,,78,100
91552,note_off,,,,,64,0,12,,,,,5,,,63,100
91584,note_on,,,,,64,0,11,,,,,4,,,63,60
91584,note_on,,,,,0,0,11,,,,,4,,,59,60
91584,note_on,,,,,32,0,7,,,,,0,,,69,95
91584,note_on,,,,,32,0,12,,,,,5,,,47,75
91648,note_off,,,,,64,0,7,,,,,0,,,69,100
91648,note_off,,,,,64,0,12,,,,,5,,,47,100
91680,note_on,,,,,32,0,7,,,,,0,,,78,95
91680,note_on,,,,,32,0,12,,,,,5,,,63,75
91712,note_off,,,,,128,0,11,,,,,4,,,63,100
91712,note_off,,,,,0,0,11,,,,,4,,,59,100
91744,note_off,,,,,64,0,7,,,,,0,,,78,100
91744,note_off,,,,,64,0,12,,,,,5,,,63,100
91776,note_on,,,,,32,0,7,,,,,0,,,78,95
91776,note_on,,,,,32,0,12,,,,,5,,,63,75
91776,note_on,,,,,0,0,11,,,,,4,,,59,60
91776,note_on,,,,,64,0,11,,,,,4,,,63,60
91840,note_off,,,,,64,0,12,,,,,5,,,63,100
91840,note_off,,,,,64,0,7,,,,,0,,,78,100
91872,note_on,,,,,32,0,12,,,,,5,,,63,75
91872,note_on,,,,,32,0,7,,,,,0,,,78,95
91904,note_off,,,,,0,0,11,,,,,4,,,59,100
91904,note_off,,,,,128,0,11,,,,,4,,,63,100
91936,note_off,,,,,64,0,12,,,,,5,,,63,100
91936,note_off,,,,,64,0,7,,,,,0,,,78,100
91968,note_on,,,,,32,0,12,,,,,5,,,59,75
91968,note_on,,,,,32,0,7,,,,,0,,,75,95
91968,note_on,,,,,0,0,11,,,,,4,,,59,60
91968,note_on,,,,,64,0,11,,,,,4,,,63,60
92032,note_off,,,,,64,0,7,,,,,0,,,75,100
92032,note_off,,,,,64,0,12,,,,,5,,,59,100
92064,note_on,,,,,32,0,12,,,,,5,,,63,75
92064,note_on,,,,,32,0,7,,,,,0,,,78,95
92096,note_off,,,,,0,0,11,,,,,4,,,59,100
92096,note_off,,,,,128,0,11,,,,,4,,,63,100
92128,note_off,,,,,64,0,12,,,,,5,,,63,100
92128,note_off,,,,,64,0,7,,,,,0,,,78,100
92160,note_on,,,,,32,0,7,,,,,0,,,80,95
92160,note_on,,,,,64,0,11,,,,,4,,,64,60
92160,note_on,,,,,0,0,11,,,,,4,,,52,60
92160,note_on,,,,,32,0,12,,,,,5,,,52,75
92224,note_off,,,,,64,0,12,,,,,5,,,52,100
92256,note_on,,,,,32,0,12,,,,,5,,,56,75
92256,note_on,,,,,2400,0,8,,,,,1,,,71,85
92288,note_off,,,,,0,0,11,,,,,4,,,52,100
92288,note_off,,,,,128,0,11,,,,,4,,,64,100
92320,note_off,,,,,64,0,12,,,,,5,,,56,100
92320,note_off,,,,,64,0,8,,,,,1,,,71,100
92352,note_on,,,,,0,0,11,,,,,4,,,52,60
92352,note_on,,,,,32,0,12,,,,,5,,,56,75
92352,note_on,,,,,64,0,11,,,,,4,,,56,60
92352,note_on,,,,,32,0,8,,,,,1,,,71,85
92416,note_off,,,,,64,0,12,,,,,5,,,56,100
92416,note_off,,,,,256,0,7,,,,,0,,,80,100
92416,note_off,,,,,64,0,8,,,,,1,,,71,100
92448,note_on,,,,,32,0,8,,,,,1,,,71,85
92448,note_on,,,,,32,0,12,,,,,5,,,56,75
92480,note_off,,,,,128,0,11,,,,,4,,,56,100
92480,note_off,,,,,0,0,11,,,,,4,,,52,100
92512,note_off,,,,,64,0,8,,,,,1,,,71,100
92512,note_off,,,,,64,0,12,,,,,5,,,56,100
92544,note_on,,,,,0,0,11,,,,,4,,,52,60
92544,note_on,,,,,32,0,8,,,,,1,,,68,85
92544,note_on,,,,,64,0,11,,,,,4,,,56,60
92544,note_on,,,,,32,0,12,,,,,5,,,52,75
92608,note_off,,,,,64,0,12,,,,,5,,,52,100
92608,note_off,,,,,64,0,8,,,,,1,,,68,100
92640,note_on,,,,,32,0,12,,,,,5,,,56,75
92640,note_on,,,,,32,0,8,,,,,1,,,71,85
92672,note_off,,,,,0,0,11,,,,,4,,,52,100
92672,note_off,,,,,128,0,11,,,,,4,,,56,100
92704,note_off,,,,,64,0,8,,,,,1,,,71,100
92704,note_off,,,,,64,0,12,,,,,5,,,56,100
92736,note_on,,,,,32,0,8,,,,,1,,,64,85
92736,note_on,,,,,64,0,11,,,,,4,,,56,60
92736,note_on,,,,,0,0,11,,,,,4,,,52,60
92736,note_on,,,,,32,0,12,,,,,5,,,40,75
92800,note_off,,,,,64,0,8,,,,,1,,,64,100
92800,note_off,,,,,64,0,12,,,,,5,,,40,100
92832,note_on,,,,,32,0,12,,,,,5,,,56,75
92832,note_on,,,,,32,0,8,,,,,1,,,71,85
92864,note_off,,,,,128,0,11,,,,,4,,,56,100
92864,note_off,,,,,0,0,11,,,,,4,,,52,100
92896,note_off,,,,,64,0,8,,,,,1,,,71,100
92896,note_off,,,,,64,0,12,,,,,5,,,56,100
92928,note_on,,,,,64,0,11,,,,,4,,,56,60
92928,note_on,,,,,0,0,11,,,,,4,,,52,60
92928,note_on,,,,,32,0,8,,,,,1,,,71,85
92928,note_on,,,,,32,0,12,,,,,5,,,56,75
92992,note_off,,,,,64,0,8,,,,,1,,,71,100
92992,note_off,,,,,64,0,12,,,,,5,,,56,100
93024,note_on,,,,,32,0,8,,,,,1,,,71,85
93024,note_on,,,,,32,0,12,,,,,5,,,56,75
93056,note_off,,,,,0,0,11,,,,,4,,,52,100
93056,note_off,,,,,128,0,11,,,,,4,,,56,100
93088,note_off,,,,,64,0,8,,,,,1,,,71,100
93088,note_off,,,,,64,0,12,,,,,5,,,56,100
93120,note_on,,,,,0,0,11,,,,,4,,,52,60
93120,note_on,,,,,64,0,11,,,,,4,,,56,60
93120,note_on,,,,,32,0,12,,,,,5,,,52,75
93120,note_on,,,,,32,0,8,,,,,1,,,68,85
93184,note_off,,,,,64,0,12,,,,,5,,,52,100
93184,note_off,,,,,64,0,8,,,,,1,,,68,100
93216,note_on,,,,,32,0,12,,,,,5,,,56,75
93216,note_on,,,,,32,0,8,,,,,1,,,71,85
93248,note_off,,,,,0,0,11,,,,,4,,,52,100
93248,note_off,,,,,128,0,11,,,,,4,,,56,100
93280,note_off,,,,,64,0,12,,,,,5,,,56,100
93280,note_off,,,,,64,0,8,,,,,1,,,71,100
93312,note_on,,,,,32,0,12,,,,,5,,,40,75
93312,note_on,,,,,0,0,11,,,,,4,,,52,60
93312,note_on,,,,,64,0,11,,,,,4,,,56,60
93312,note_on,,,,,32,0,8,,,,,1,,,64,85
93376,note_off,,,,,64,0,12,,,,,5,,,40,100
93376,note_off,,,,,64,0,8,,,,,1,,,64,100
93408,note_on,,,,,32,0,8,,,,,1,,,71,85
93408,note_on,,,,,32,0,12,,,,,5,,,56,75
93440,note_off,,,,,128,0,11,,,,,4,,,56,100
93440,note_off,,,,,0,0,11,,,,,4,,,52,100
93472,note_off,,,,,64,0,12,,,,,5,,,56,100
93472,note_off,,,,,64,0,8,,,,,1,,,71,100
93504,note_on,,,,,0,0,11,,,,,4,,,52,60
93504,note_on,,,,,32,0,12,,,,,5,,,56,75
93504,note_on,,,,,64,0,11,,,,,4,,,56,60
93504,note_on,,,,,32,0,8,,,,,1,,,71,85
93568,note_off,,,,,64,0,12,,,,,5,,,56,100
93568,note_off,,,,,64,0,8,,,,,1,,,71,100
93600,note_on,,,,,32,0,12,,,,,5,,,56,75
93600,note_on,,,,,32,0,8,,,,,1,,,71,85
93632,note_off,,,,,128,0,11,,,,,4,,,56,100
93632,note_off,,,,,0,0,11,,,,,4,,,52,100
93664,note_off,,,,,64,0,12,,,,,5,,,56,100
93664,note_off,,,,,64,0,8,,,,,1,,,71,100
93696,note_on,,,,,32,0,12,,,,,5,,,52,75
93696,note_on,,,,,32,0,8,,,,,1,,,68,85
93696,note_on,,,,,64,0,11,,,,,4,,,56,60
93696,note_on,,,,,0,0,11,,,,,4,,,52,60
93760,note_off,,,,,64,0,12,,,,,5,,,52,100
93760,note_off,,,,,64,0,8,,,,,1,,,68,100
93792,note_on,,,,,32,0,8,,,,,1,,,71,85
93792,note_on,,,,,32,0,12,,,,,5,,,56,75
93824,note_off,,,,,128,0,11,,,,,4,,,56,100
93824,note_off,,,,,0,0,11,,,,,4,,,52,100
93856,note_off,,,,,64,0,8,,,,,1,,,71,100
93856,note_off,,,,,64,0,12,,,,,5,,,56,100
93888,note_on,,,,,32,0,12,,,,,5,,,40,75
93888,note_on,,,,,64,0,11,,,,,4,,,56,60
93888,note_on,,,,,32,0,8,,,,,1,,,62,85
93888,note_on,,,,,0,0,11,,,,,4,,,52,60
93952,note_off,,,,,64,0,12,,,,,5,,,40,100
93952,note_off,,,,,64,0,8,,,,,1,,,62,100
93984,note_on,,,,,32,0,8,,,,,1,,,71,85
93984,note_on,,,,,32,0,12,,,,,5,,,56,75
94016,note_off,,,,,128,0,11,,,,,4,,,56,100
94016,note_off,,,,,0,0,11,,,,,4,,,52,100
94048,note_off,,,,,64,0,12,,,,,5,,,56,100
94048,note_off,,,,,64,0,8,,,,,1,,,71,100
94080,note_on,,,,,32,0,12,,,,,5,,,56,75
94080,note_on,,,,,32,0,8,,,,,1,,,71,85
94080,note_on,,,,,0,0,11,,,,,4,,,52,60
94080,note_on,,,,,64,0,11,,,,,4,,,56,60
94144,note_off,,,,,64,0,12,,,,,5,,,56,100
94144,note_off,,,,,64,0,8,,,,,1,,,71,100
94176,note_on,,,,,32,0,12,,,,,5,,,56,75
94176,note_on,,,,,32,0,8,,,,,1,,,71,85
94208,note_off,,,,,128,0,11,,,,,4,,,56,100
94208,note_off,,,,,0,0,11,,,,,4,,,52,100
94240,note_off,,,,,64,0,12,,,,,5,,,56,100
94240,note_off,,,,,64,0,8,,,,,1,,,71,100
94272,note_on,,,,,0,0,11,,,,,4,,,52,60
94272,note_on,,,,,64,0,11,,,,,4,,,56,60
94272,note_on,,,,,32,0,12,,,,,5,,,52,75
94272,note_on,,,,,32,0,8,,,,,1,,,68,85
94336,note_off,,,,,64,0,12,,,,,5,,,52,100
94336,note_off,,,,,64,0,8,,,,,1,,,68,100
94368,note_on,,,,,32,0,12,,,,,5,,,56,75
94368,note_on,,,,,32,0,8,,,,,1,,,71,85
94400,note_off,,,,,128,0,11,,,,,4,,,56,100
94400,note_off,,,,,0,0,11,,,,,4,,,52,100
94432,note_off,,,,,64,0,12,,,,,5,,,56,100
94432,note_off,,,,,64,0,8,,,,,1,,,71,100
94464,note_on,,,,,32,0,12,,,,,5,,,40,75
94464,note_on,,,,,0,0,11,,,,,4,,,52,60
94464,note_on,,,,,64,0,11,,,,,4,,,56,60
94464,note_on,,,,,32,0,8,,,,,1,,,62,85
94528,note_off,,,,,64,0,12,,,,,5,,,40,100
94528,note_off,,,,,64,0,8,,,,,1,,,62,100
94560,note_on,,,,,32,0,8,,,,,1,,,71,85
94560,note_on,,,,,32,0,12,,,,,5,,,56,75
94592,note_off,,,,,128,0,11,,,,,4,,,56,100
94592,note_off,,,,,0,0,11,,,,,4,,,52,100
94624,note_off,,,,,64,0,12,,,,,5,,,56,100
94624,note_off,,,,,64,0,8,,,,,1,,,71,100
94656,note_on,,,,,32,0,12,,,,,5,,,56,75
94656,note_on,,,,,32,0,8,,,,,1,,,71,85
94656,note_on,,,,,0,0,11,,,,,4,,,52,60
94656,note_on,,,,,64,0,11,,,,,4,,,56,60
94720,note_off,,,,,64,0,12,,,,,5,,,56,100
94720,note_off,,,,,64,0,8,,,,,1,,,71,100
94752,note_on,,,,,32,0,12,,,,,5,,,56,75
94752,note_on,,,,,32,0,8,,,,,1,,,71,85
94784,note_off,,,,,0,0,11,,,,,4,,,52,100
94784,note_off,,,,,128,0,11,,,,,4,,,56,100
94816,note_off,,,,,64,0,12,,,,,5,,,56,100
94816,note_off,,,,,64,0,8,,,,,1,,,71,100
94848,note_on,,,,,32,0,12,,,,,5,,,52,75
94848,note_on,,,,,0,0,11,,,,,4,,,52,60
94848,note_on,,,,,64,0,11,,,,,4,,,56,60
94848,note_on,,,,,32,0,8,,,,,1,,,68,85
94912,note_off,,,,,64,0,8,,,,,1,,,68,100
94912,note_off,,,,,64,0,12,,,,,5,,,52,100
94944,note_on,,,,,32,0,12,,,,,5,,,56,75
94944,note_on,,,,,32,0,8,,,,,1,,,71,85
94976,note_off,,,,,0,0,11,,,,,4,,,52,100
94976,note_off,,,,,128,0,11,,,,,4,,,56,100
95008,note_off,,,,,64,0,12,,,,,5,,,56,100
95008,note_off,,,,,64,0,8,,,,,1,,,71,100
95040,note_on,,,,,64,0,11,,,,,4,,,57,60
95040,note_on,,,,,32,0,12,,,,,5,,,45,75
95040,note_on,,,,,32,0,8,,,,,1,,,73,85
95104,note_off,,,,,64,0,12,,,,,5,,,45,100
95136,note_on,,,,,32,0,12,,,,,5,,,61,75
95136,note_on,,,,,5280,0,9,,,,,2,,,76,95
95168,note_off,,,,,128,0,11,,,,,4,,,57,100
95200,note_off,,,,,64,0,9,,,,,2,,,76,100
95200,note_off,,,,,64,0,12,,,,,5,,,61,100
95232,note_on,,,,,32,0,9,,,,,2,,,76,95
95232,note_on,,,,,64,0,11,,,,,4,,,61,60
95232,note_on,,,,,0,0,11,,,,,4,,,57,60
95232,note_on,,,,,32,0,12,,,,,5,,,61,75
95296,note_off,,,,,64,0,9,,,,,2,,,76,100
95296,note_off,,,,,64,0,12,,,,,5,,,61,100
95296,note_off,,,,,256,0,8,,,,,1,,,73,100
95328,note_on,,,,,32,0,12,,,,,5,,,61,75
95328,note_on,,,,,32,0,9,,,,,2,,,76,95
95360,note_off,,,,,128,0,11,,,,,4,,,61,100
95360,note_off,,,,,0,0,11,,,,,4,,,57,100
95392,note_off,,,,,64,0,12,,,,,5,,,61,100
95392,note_off,,,,,64,0,9,,,,,2,,,76,100
95424,note_on,,,,,32,0,9,,,,,2,,,73,95
95424,note_on,,,,,0,0,11,,,,,4,,,57,60
95424,note_on,,,,,32,0,12,,,,,5,,,57,75
95424,note_on,,,,,64,0,11,,,,,4,,,61,60
95488,note_off,,,,,64,0,12,,,,,5,,,57,100
95488,note_off,,,,,64,0,9,,,,,2,,,73,100
95520,note_on,,,,,32,0,12,,,,,5,,,61,75
95520,note_on,,,,,32,0,9,,,,,2,,,76,95
95552,note_off,,,,,128,0,11,,,,,4,,,61,100
95552,note_off,,,,,0,0,11,,,,,4,,,57,100
95584,note_off,,,,,64,0,9,,,,,2,,,76,100
95584,note_off,,,,,64,0,12,,,,,5,,,61,100
95616,note_on,,,,,32,0,9,,,,,2,,,69,95
95616,note_on,,,,,0,0,11,,,,,4,,,57,60
95616,note_on,,,,,64,0,11,,,,,4,,,61,60
95616,note_on,,,,,32,0,12,,,,,5,,,45,75
95680,note_off,,,,,64,0,12,,,,,5,,,45,100
95680,note_off,,,,,64,0,9,,,,,2,,,69,100
95712,note_on,,,,,32,0,9,,,,,2,,,76,95
95712,note_on,,,,,32,0,12,,,,,5,,,61,75
95744,note_off,,,,,128,0,11,,,,,4,,,61,100
95744,note_off,,,,,0,0,11,,,,,4,,,57,100
95776,note_off,,,,,64,0,12,,,,,5,,,61,100
95776,note_off,,,,,64,0,9,,,,,2,,,76,100
95808,note_on,,,,,32,0,12,,,,,5,,,61,75
95808,note_on,,,,,64,0,11,,,,,4,,,61,60
95808,note_on,,,,,0,0,11,,,,,4,,,57,60
95808,note_on,,,,,32,0,9,,,,,2,,,76,95
95872,note_off,,,,,64,0,9,,,,,2,,,76,100
95872,note_off,,,,,64,0,12,,,,,5,,,61,100
95904,note_on,,,,,32,0,12,,,,,5,,,61,75
95904,note_on,,,,,32,0,9,,,,,2,,,76,95
95936,note_off,,,,,0,0,11,,,,,4,,,57,100
95936,note_off,,,,,128,0,11,,,,,4,,,61,100
95968,note_off,,,,,64,0,9,,,,,2,,,76,100
95968,note_off,,,,,64,0,12,,,,,5,,,61,100
96000,note_on,,,,,0,0,11,,,,,4,,,57,60
96000,note_on,,,,,32,0,9,,,,,2,,,73,95
96000,note_on,,,,,32,0,12,,,,,5,,,57,75
96000,note_on,,,,,64,0,11,,,,,4,,,61,60
96064,note_off,,,,,64,0,9,,,,,2,,,73,100
96064,note_off,,,,,64,0,12,,,,,5,,,57,100
96096,note_on,,,,,32,0,9,,,,,2,,,76,95
96096,note_on,,,,,32,0,12,,,,,5,,,61,75
96128,note_off,,,,,0,0,11,,,,,4,,,57,100
96128,note_off,,,,,128,0,11,,,,,4,,,61,100
96160,note_off,,,,,64,0,12,,,,,5,,,61,100
96160,note_off,,,,,64,0,9,,,,,2,,,76,100
96192,note_on,,,,,0,0,11,,,,,4,,,57,60
96192,note_on,,,,,32,0,12,,,,,5,,,45,75
96192,note_on,,,,,32,0,9,,,,,2,,,69,95
96192,note_on,,,,,64,0,11,,,,,4,,,61,60
96256,note_off,,,,,64,0,12,,,,,5,,,45,100
96256,note_off,,,,,64,0,9,,,,,2,,,69,100
96288,note_on,,,,,32,0,12,,,,,5,,,61,75
96288,note_on,,,,,32,0,9,,,,,2,,,76,95
96320,note_off,,,,,0,0,11,,,,,4,,,57,100
96320,note_off,,,,,128,0,11,,,,,4,,,61,100
96352,note_off,,,,,64,0,12,,,,,5,,,61,100
96352,note_off,,,,,64,0,9,,,,,2,,,76,100
96384,note_on,,,,,32,0,9,,,,,2,,,76,95
96384,note_on,,,,,0,0,11,,,,,4,,,57,60
96384,note_on,,,,,64,0,11,,,,,4,,,61,60
96384,note_on,,,,,32,0,12,,,,,5,,,61,75
96448,note_off,,,,,64,0,12,,,,,5,,,61,100
96448,note_off,,,,,64,0,9,,,,,2,,,76,100
96480,note_on,,,,,32,0,9,,,,,2,,,76,95
96480,note_on,,,,,32,0,12,,,,,5,,,61,75
96512,note_off,,,,,0,0,11,,,,,4,,,57,100
96512,note_off,,,,,128,0,11,,,,,4,,,61,100
96544,note_off,,,,,64,0,9,,,,,2,,,76,100
96544,note_off,,,,,64,0,12,,,,,5,,,61,100
96576,note_on,,,,,32,0,9,,,,,2,,,73,95
96576,note_on,,,,,32,0,12,,,,,5,,,57,75
96576,note_on,,,,,64,0,11,,,,,4,,,61,60
96576,note_on,,,,,0,0,11,,,,,4,,,57,60
96640,note_off,,,,,64,0,9,,,,,2,,,73,100
96640,note_off,,,,,64,0,12,,,,,5,,,57,100
96672,note_on,,,,,32,0,12,,,,,5,,,61,75
96672,note_on,,,,,32,0,9,,,,,2,,,76,95
96704,note_off,,,,,128,0,11,,,,,4,,,61,100
96704,note_off,,,,,0,0,11,,,,,4,,,57,100
96736,note_off,,,,,64,0,9,,,,,2,,,76,100
96736,note_off,,,,,64,0,12,,,,,5,,,61,100
96768,note_on,,,,,64,0,11,,,,,4,,,61,60
96768,note_on,,,,,0,0,11,,,,,4,,,57,60
96768,note_on,,,,,32,0,9,,,,,2,,,67,95
96768,note_on,,,,,32,0,12,,,,,5,,,45,75
96832,note_off,,,,,64,0,9,,,,,2,,,67,100
96832,note_off,,,,,64,0,12,,,,,5,,,45,100
96864,note_on,,,,,32,0,9,,,,,2,,,76,95
96864,note_on,,,,,32,0,12,,,,,5,,,61,75
96896,note_off,,,,,128,0,11,,,,,4,,,61,100
96896,note_off,,,,,0,0,11,,,,,4,,,57,100
96928,note_off,,,,,64,0,9,,,,,2,,,76,100
96928,note_off,,,,,64,0,12,,,,,5,,,61,100
96960,note_on,,,,,64,0,11,,,,,4,,,61,60
96960,note_on,,,,,32,0,12,,,,,5,,,61,75
96960,note_on,,,,,32,0,9,,,,,2,,,76,95
96960,note_on,,,,,0,0,11,,,,,4,,,57,60
97024,note_off,,,,,64,0,12,,,,,5,,,61,100
97024,note_off,,,,,64,0,9,,,,,2,,,76,100
97056,note_on,,,,,32,0,9,,,,,2,,,76,95
97056,note_on,,,,,32,0,12,,,,,5,,,61,75
97088,note_off,,,,,0,0,11,,,,,4,,,57,100
97088,note_off,,,,,128,0,11,,,,,4,,,61,100
97120,note_off,,,,,64,0,9,,,,,2,,,76,100
97120,note_off,,,,,64,0,12,,,,,5,,,61,100
97152,note_on,,,,,0,0,11,,,,,4,,,57,60
97152,note_on,,,,,64,0,11,,,,,4,,,61,60
97152,note_on,,,,,32,0,9,,,,,2,,,73,95
97152,note_on,,,,,32,0,12,,,,,5,,,57,75
97216,note_off,,,,,64,0,9,,,,,2,,,73,100
97216,note_off,,,,,64,0,12,,,,,5,,,57,100
97248,note_on,,,,,32,0,12,,,,,5,,,61,75
97248,note_on,,,,,32,0,9,,,,,2,,,76,95
97280,note_off,,,,,0,0,11,,,,,4,,,57,100
97280,note_off,,,,,128,0,11,,,,,4,,,61,100
97312,note_off,,,,,64,0,9,,,,,2,,,76,100
97312,note_off,,,,,64,0,12,,,,,5,,,61,100
97344,note_on,,,,,32,0,12,,,,,5,,,45,75
97344,note_on,,,,,32,0,9,,,,,2,,,67,95
97344,note_on,,,,,64,0,11,,,,,4,,,61,60
97344,note_on,,,,,0,0,11,,,,,4,,,57,60
97408,note_off,,,,,64,0,12,,,,,5,,,45,100
97408,note_off,,,,,64,0,9,,,,,2,,,67,100
97440,note_on,,,,,32,0,12,,,,,5,,,61,75
97440,note_on,,,,,32,0,9,,,,,2,,,76,95
97472,note_off,,,,,128,0,11,,,,,4,,,61,100
97472,note_off,,,,,0,0,11,,,,,4,,,57,100
97504,note_off,,,,,64,0,12,,,,,5,,,61,100
97504,note_off,,,,,64,0,9,,,,,2,,,76,100
97536,note_on,,,,,64,0,11,,,,,4,,,61,60
97536,note_on,,,,,0,0,11,,,,,4,,,57,60
97536,note_on,,,,,32,0,12,,,,,5,,,61,75
97536,note_on,,,,,32,0,9,,,,,2,,,76,95
97600,note_off,,,,,64,0,12,,,,,5,,,61,100
97600,note_off,,,,,64,0,9,,,,,2,,,76,100
97632,note_on,,,,,32,0,9,,,,,2,,,76,95
97632,note_on,,,,,32,0,12,,,,,5,,,61,75
97664,note_off,,,,,0,0,11,,,,,4,,,57,100
97664,note_off,,,,,128,0,11,,,,,4,,,61,100
97696,note_off,,,,,64,0,9,,,,,2,,,76,100
97696,note_off,,,,,64,0,12,,,,,5,,,61,100
97728,note_on,,,,,0,0,11,,,,,4,,,57,60
97728,note_on,,,,,64,0,11,,,,,4,,,61,60
97728,note_on,,,,,32,0,9,,,,,2,,,73,95
97728,note_on,,,,,32,0,12,,,,,5,,,57,75
97792,note_off,,,,,64,0,9,,,,,2,,,73,100
97792,note_off,,,,,64,0,12,,,,,5,,,57,100
97824,note_on,,,,,32,0,12,,,,,5,,,61,75
97824,note_on,,,,,32,0,9,,,,,2,,,76,95
97856,note_off,,,,,128,0,11,,,,,4,,,61,100
97856,note_off,,,,,0,0,11,,,,,4,,,57,100
97888,note_off,,,,,64,0,9,,,,,2,,,76,100
97888,note_off,,,,,64,0,12,,,,,5,,,61,100
97920,note_on,,,,,64,0,11,,,,,4,,,62,60
97920,note_on,,,,,32,0,12,,,,,5,,,50,75
97920,note_on,,,,,32,0,9,,,,,2,,,78,95
97984,note_off,,,,,64,0,12,,,,,5,,,50,100
98016,note_on,,,,,32,0,12,,,,,5,,,66,75
98016,note_on,,,,,8160,0,10,,,,,3,,,81,100
98048,note_off,,,,,128,0,11,,,,,4,,,62,100
98080,note_off,,,,,64,0,12,,,,,5,,,66,100
98080,note_off,,,,,64,0,10,,,,,3,,,81,100
98112,note_on,,,,,0,0,11,,,,,4,,,62,60
98112,note_on,,,,,64,0,11,,,,,4,,,66,60
98112,note_on,,,,,32,0,12,,,,,5,,,66,75
98112,note_on,,,,,32,0,10,,,,,3,,,81,100
98176,note_off,,,,,64,0,10,,,,,3,,,81,100
98176,note_off,,,,,256,0,9,,,,,2,,,78,100
98176,note_off,,,,,64,0,12,,,,,5,,,66,100
98208,note_on,,,,,32,0,10,,,,,3,,,81,100
98208,note_on,,,,,32,0,12,,,,,5,,,66,75
98240,note_off,,,,,128,0,11,,,,,4,,,66,100
98240,note_off,,,,,0,0,11,,,,,4,,,62,100
98272,note_off,,,,,64,0,10,,,,,3,,,81,100
98272,note_off,,,,,64,0,12,,,,,5,,,66,100
98304,note_on,,,,,64,0,11,,,,,4,,,66,60
98304,note_on,,,,,32,0,10,,,,,3,,,78,100
98304,note_on,,,,,0,0,11,,,,,4,,,62,60
98304,note_on,,,,,32,0,12,,,,,5,,,62,75
98368,note_off,,,,,64,0,10,,,,,3,,,78,100
98368,note_off,,,,,64,0,12,,,,,5,,,62,100
98400,note_on,,,,,32,0,12,,,,,5,,,66,75
98400,note_on,,,,,32,0,10,,,,,3,,,81,100
98432,note_off,,,,,0,0,11,,,,,4,,,62,100
98432,note_off,,,,,128,0,11,,,,,4,,,66,100
98464,note_off,,,,,64,0,12,,,,,5,,,66,100
98464,note_off,,,,,64,0,10,,,,,3,,,81,100
98496,note_on,,,,,32,0,12,,,,,5,,,50,75
98496,note_on,,,,,64,0,11,,,,,4,,,66,60
98496,note_on,,,,,32,0,10,,,,,3,,,74,100
98496,note_on,,,,,0,0,11,,,,,4,,,62,60
98560,note_off,,,,,64,0,12,,,,,5,,,50,100
98560,note_off,,,,,64,0,10,,,,,3,,,74,100
98592,note_on,,,,,32,0,10,,,,,3,,,81,100
98592,note_on,,,,,32,0,12,,,,,5,,,66,75
98624,note_off,,,,,128,0,11,,,,,4,,,66,100
98624,note_off,,,,,0,0,11,,,,,4,,,62,100
98656,note_off,,,,,64,0,10,,,,,3,,,81,100
98656,note_off,,,,,64,0,12,,,,,5,,,66,100
98688,note_on,,,,,64,0,11,,,,,4,,,66,60
98688,note_on,,,,,32,0,10,,,,,3,,,81,100
98688,note_on,,,,,0,0,11,,,,,4,,,62,60
98688,note_on,,,,,32,0,12,,,,,5,,,66,75
98752,note_off,,,,,64,0,10,,,,,3,,,81,100
98752,note_off,,,,,64,0,12,,,,,5,,,66,100
98784,note_on,,,,,32,0,12,,,,,5,,,66,75
98784,note_on,,,,,32,0,10,,,,,3,,,81,100
98816,note_off,,,,,128,0,11,,,,,4,,,66,100
98816,note_off,,,,,0,0,11,,,,,4,,,62,100
98848,note_off,,,,,64,0,10,,,,,3,,,81,100
98848,note_off,,,,,64,0,12,,,,,5,,,66,100
98880,note_on,,,,,0,0,11,,,,,4,,,62,60
98880,note_on,,,,,32,0,12,,,,,5,,,62,75
98880,note_on,,,,,32,0,10,,,,,3,,,78,100
98880,note_on,,,,,64,0,11,,,,,4,,,66,60
98944,note_off,,,,,64,0,12,,,,,5,,,62,100
98944,note_off,,,,,64,0,10,,,,,3,,,78,100
98976,note_on,,,,,32,0,10,,,,,3,,,81,100
98976,note_on,,,,,32,0,12,,,,,5,,,66,75
99008,note_off,,,,,128,0,11,,,,,4,,,66,100
99008,note_off,,,,,0,0,11,,,,,4,,,62,100
99040,note_off,,,,,64,0,12,,,,,5,,,66,100
99040,note_off,,,,,64,0,10,,,,,3,,,81,100
99072,note_on,,,,,32,0,12,,,,,5,,,50,75
99072,note_on,,,,,32,0,10,,,,,3,,,74,100
99072,note_on,,,,,64,0,11,,,,,4,,,66,60
99072,note_on,,,,,0,0,11,,,,,4,,,62,60
99136,note_off,,,,,64,0,10,,,,,3,,,74,100
99136,note_off,,,,,64,0,12,,,,,5,,,50,100
99168,note_on,,,,,32,0,12,,,,,5,,,66,75
99168,note_on,,,,,32,0,10,,,,,3,,,81,100
99200,note_off,,,,,128,0,11,,,,,4,,,66,100
99200,note_off,,,,,0,0,11,,,,,4,,,62,100
99232,note_off,,,,,64,0,12,,,,,5,,,66,100
99232,note_off,,,,,64,0,10,,,,,3,,,81,100
99264,note_on,,,,,0,0,11,,,,,4,,,62,60
99264,note_on,,,,,32,0,12,,,,,5,,,66,75
99264,note_on,,,,,32,0,10,,,,,3,,,81,100
99264,note_on,,,,,64,0,11,,,,,4,,,66,60
99328,note_off,,,,,64,0,12,,,,,5,,,66,100
99328,note_off,,,,,64,0,10,,,,,3,,,81,100
99360,note_on,,,,,32,0,10,,,,,3,,,81,100
99360,note_on,,,,,32,0,12,,,,,5,,,66,75
99392,note_off,,,,,0,0,11,,,,,4,,,62,100
99392,note_off,,,,,128,0,11,,,,,4,,,66,100
99424,note_off,,,,,64,0,12,,,,,5,,,66,100
99424,note_off,,,,,64,0,10,,,,,3,,,81,100
99456,note_on,,,,,32,0,12,,,,,5,,,62,75
99456,note_on,,,,,32,0,10,,,,,3,,,78,100
99456,note_on,,,,,64,0,11,,,,,4,,,66,60
99456,note_on,,,,,0,0,11,,,,,4,,,62,60
99520,note_off,,,,,64,0,12,,,,,5,,,62,100
99520,note_off,,,,,64,0,10,,,,,3,,,78,100
99552,note_on,,,,,32,0,12,,,,,5,,,66,75
99552,note_on,,,,,32,0,10,,,,,3,,,81,100
99584,note_off,,,,,0,0,11,,,,,4,,,62,100
99584,note_off,,,,,128,0,11,,,,,4,,,66,100
99616,note_off,,,,,64,0,10,,,,,3,,,81,100
99616,note_off,,,,,64,0,12,,,,,5,,,66,100
99648,note_on,,,,,64,0,11,,,,,4,,,66,60
99648,note_on,,,,,0,0,11,,,,,4,,,62,60
99648,note_on,,,,,32,0,12,,,,,5,,,50,75
99648,note_on,,,,,32,0,10,,,,,3,,,72,100
99712,note_off,,,,,64,0,10,,,,,3,,,72,100
99712,note_off,,,,,64,0,12,,,,,5,,,50,100
99744,note_on,,,,,32,0,12,,,,,5,,,66,75
99744,note_on,,,,,32,0,10,,,,,3,,,81,100
99776,note_off,,,,,0,0,11,,,,,4,,,62,100
99776,note_off,,,,,128,0,11,,,,,4,,,66,100
99808,note_off,,,,,64,0,12,,,,,5,,,66,100
99808,note_off,,,,,64,0,10,,,,,3,,,81,100
99840,note_on,,,,,32,0,12,,,,,5,,,66,75
99840,note_on,,,,,32,0,10,,,,,3,,,81,100
99840,note_on,,,,,64,0,11,,,,,4,,,66,60
99840,note_on,,,,,0,0,11,,,,,4,,,62,60
99904,note_off,,,,,64,0,12,,,,,5,,,66,100
99904,note_off,,,,,64,0,10,,,,,3,,,81,100
99936,note_on,,,,,32,0,10,,,,,3,,,81,100
99936,note_on,,,,,32,0,12,,,,,5,,,66,75
99968,note_off,,,,,128,0,11,,,,,4,,,66,100
99968,note_off,,,,,0,0,11,,,,,4,,,62,100
100000,note_off,,,,,64,0,12,,,,,5,,,66,100
100000,note_off,,,,,64,0,10,,,,,3,,,81,100
100032,note_on,,,,,0,0,11,,,,,4,,,62,60
100032,note_on,,,,,32,0,12,,,,,5,,,62,75
100032,note_on,,,,,64,0,11,,,,,4,,,66,60
100032,note_on,,,,,32,0,10,,,,,3,,,78,100
100096,note_off,,,,,64,0,12,,,,,5,,,62,100
100096,note_off,,,,,64,0,10,,,,,3,,,78,100
100128,note_on,,,,,32,0,10,,,,,3,,,81,100
100128,note_on,,,,,32,0,12,,,,,5,,,66,75
100160,note_off,,,,,128,0,11,,,,,4,,,66,100
100160,note_off,,,,,0,0,11,,,,,4,,,62,100
100192,note_off,,,,,64,0,10,,,,,3,,,81,100
100192,note_off,,,,,64,0,12,,,,,5,,,66,100
100224,note_on,,,,,0,0,11,,,,,4,,,66,60
100224,note_on,,,,,32,0,12,,,,,5,,,50,75
100224,note_on,,,,,32,0,10,,,,,3,,,72,100
100224,note_on,,,,,64,0,11,,,,,4,,,62,60
100288,note_off,,,,,64,0,10,,,,,3,,,72,100
100288,note_off,,,,,64,0,12,,,,,5,,,50,100
100320,note_on,,,,,32,0,10,,,,,3,,,81,100
100320,note_on,,,,,32,0,12,,,,,5,,,66,75
100352,note_off,,,,,0,0,11,,,,,4,,,66,100
100352,note_off,,,,,128,0,11,,,,,4,,,62,100
100384,note_off,,,,,64,0,12,,,,,5,,,66,100
100384,note_off,,,,,64,0,10,,,,,3,,,81,100
100416,note_on,,,,,32,0,12,,,,,5,,,66,75
100416,note_on,,,,,0,0,11,,,,,4,,,66,60
100416,note_on,,,,,64,0,11,,,,,4,,,62,60
100416,note_on,,,,,32,0,10,,,,,3,,,81,100
100480,note_off,,,,,64,0,12,,,,,5,,,66,100
100480,note_off,,,,,64,0,10,,,,,3,,,81,100
100512,note_on,,,,,32,0,12,,,,,5,,,66,75
100512,note_on,,,,,32,0,10,,,,,3,,,81,100
100544,note_off,,,,,0,0,11,,,,,4,,,66,100
100544,note_off,,,,,128,0,11,,,,,4,,,62,100
100576,note_off,,,,,64,0,12,,,,,5,,,66,100
100576,note_off,,,,,64,0,10,,,,,3,,,81,100
100608,note_on,,,,,0,0,11,,,,,4,,,66,60
100608,note_on,,,,,64,0,11,,,,,4,,,62,60
100608,note_on,,,,,32,0,12,,,,,5,,,62,75
100608,note_on,,,,,32,0,10,,,,,3,,,78,100
100672,note_off,,,,,64,0,12,,,,,5,,,62,100
100672,note_off,,,,,64,0,10,,,,,3,,,78,100
100704,note_on,,,,,32,0,12,,,,,5,,,66,75
100704,note_on,,,,,32,0,10,,,,,3,,,81,100
100736,note_off,,,,,0,0,11,,,,,4,,,66,100
100736,note_off,,,,,128,0,11,,,,,4,,,62,100
100768,note_off,,,,,64,0,10,,,,,3,,,81,100
100768,note_off,,,,,64,0,12,,,,,5,,,66,100
100798,program_change,,,,,30,0,12,,,,,5,48,,,
100800,note_on,,,,,64,0,11,,,,,4,,,55,60
100800,note_on,,,,,0,0,11,,,,,4,,,62,60
100800,note_on,,,,,0,0,14,,,,,7,,,71,100
100800,note_on,,,,,11218,0,14,,,,,7,,,74,100
100800,program_change,,,,,11264,0,13,,,,,6,48,,,
100800,note_on,,,,,2,0,12,,,,,5,,,55,85
100800,note_on,,,,,32,0,10,,,,,3,,,83,100
100802,note_on,,,,,2,0,13,,,,,6,,,43,85
100802,note_on,,,,,11266,0,15,,,,,7,,,55,100
100896,note_on,,,,,5600,0,8,,,,,1,,,83,100
100928,note_off,,,,,128,0,14,,,,,7,,,74,100
100928,note_off,,,,,128,0,12,,,,,5,,,55,100
100928,note_off,,,,,0,0,14,,,,,7,,,71,100
100930,note_off,,,,,128,0,15,,,,,7,,,55,100
100930,note_off,,,,,128,0,13,,,,,6,,,43,100
100960,note_off,,,,,64,0,8,,,,,1,,,83,100
100992,note_on,,,,,64,0,12,,,,,5,,,55,85
100992,note_on,,,,,32,0,8,,,,,1,,,83,100
100992,note_on,,,,,0,0,14,,,,,7,,,71,100
100992,note_on,,,,,64,0,14,,,,,7,,,74,100
100994,note_on,,,,,64,0,13,,,,,6,,,43,85
100994,note_on,,,,,64,0,15,,,,,7,,,55,100
101056,note_off,,,,,0,0,11,,,,,4,,,62,100
101056,note_off,,,,,64,0,8,,,,,1,,,83,100
101056,note_off,,,,,256,0,10,,,,,3,,,83,100
101056,note_off,,,,,256,0,11,,,,,4,,,55,100
101088,note_on,,,,,32,0,8,,,,,1,,,79,100
101120,note_off,,,,,128,0,14,,,,,7,,,74,100
101120,note_off,,,,,0,0,14,,,,,7,,,71,100
101120,note_off,,,,,128,0,12,,,,,5,,,55,100
101122,note_off,,,,,128,0,15,,,,,7,,,55,100
101122,note_off,,,,,128,0,13,,,,,6,,,43,100
101152,note_off,,,,,64,0,8,,,,,1,,,79,100
101184,note_on,,,,,64,0,12,,,,,5,,,55,85
101184,note_on,,,,,32,0,8,,,,,1,,,79,100
101184,note_on,,,,,64,0,14,,,,,7,,,74,100
101184,note_on,,,,,0,0,14,,,,,7,,,71,100
101186,note_on,,,,,64,0,13,,,,,6,,,43,85
101186,note_on,,,,,64,0,15,,,,,7,,,55,100
101248,note_off,,,,,64,0,8,,,,,1,,,79,100
101280,note_on,,,,,32,0,8,,,,,1,,,76,100
101312,note_off,,,,,128,0,12,,,,,5,,,55,100
101312,note_off,,,,,128,0,14,,,,,7,,,74,100
101312,note_off,,,,,0,0,14,,,,,7,,,71,100
101314,note_off,,,,,128,0,15,,,,,7,,,55,100
101314,note_off,,,,,128,0,13,,,,,6,,,43,100
101344,note_off,,,,,64,0,8,,,,,1,,,76,100
101376,note_on,,,,,64,0,12,,,,,5,,,48,85
101376,note_on,,,,,0,0,14,,,,,7,,,67,100
101376,note_on,,,,,64,0,14,,,,,7,,,64,100
101376,note_on,,,,,32,0,8,,,,,1,,,76,100
101378,note_on,,,,,64,0,15,,,,,7,,,48,100
101378,note_on,,,,,64,0,13,,,,,6,,,36,85
101440,note_off,,,,,64,0,8,,,,,1,,,76,100
101472,note_on,,,,,32,0,8,,,,,1,,,79,100
101504,note_off,,,,,128,0,12,,,,,5,,,48,100
101504,note_off,,,,,128,0,14,,,,,7,,,64,100
101504,note_off,,,,,0,0,14,,,,,7,,,67,100
101506,note_off,,,,,128,0,13,,,,,6,,,36,100
101506,note_off,,,,,128,0,15,,,,,7,,,48,100
101536,note_off,,,,,64,0,8,,,,,1,,,79,100
101568,note_on,,,,,64,0,12,,,,,5,,,48,85
101568,note_on,,,,,0,0,14,,,,,7,,,67,100
101568,note_on,,,,,32,0,8,,,,,1,,,79,100
101568,note_on,,,,,64,0,14,,,,,7,,,64,100
101570,note_on,,,,,64,0,15,,,,,7,,,48,100
101570,note_on,,,,,64,0,13,,,,,6,,,36,85
101632,note_off,,,,,64,0,8,,,,,1,,,79,100
101664,note_on,,,,,32,0,8,,,,,1,,,76,100
101696,note_off,,,,,128,0,12,,,,,5,,,48,100
101696,note_off,,,,,0,0,14,,,,,7,,,67,100
101696,note_off,,,,,128,0,14,,,,,7,,,64,100
101698,note_off,,,,,128,0,15,,,,,7,,,48,100
101698,note_off,,,,,128,0,13,,,,,6,,,36,100
101728,note_off,,,,,64,0,8,,,,,1,,,76,100
101760,note_on,,,,,0,0,14,,,,,7,,,67,100
101760,note_on,,,,,64,0,14,,,,,7,,,64,100
101760,note_on,,,,,32,0,8,,,,,1,,,76,100
101760,note_on,,,,,64,0,12,,,,,5,,,48,85
101762,note_on,,,,,64,0,15,,,,,7,,,48,100
101762,note_on,,,,,64,0,13,,,,,6,,,36,85
101824,note_off,,,,,64,0,8,,,,,1,,,76,100
101856,note_on,,,,,32,0,8,,,,,1,,,72,100
101888,note_off,,,,,128,0,14,,,,,7,,,64,100
101888,note_off,,,,,0,0,14,,,,,7,,,67,100
101888,note_off,,,,,128,0,12,,,,,5,,,48,100
101890,note_off,,,,,128,0,13,,,,,6,,,36,100
101890,note_off,,,,,128,0,15,,,,,7,,,48,100
101920,note_off,,,,,64,0,8,,,,,1,,,72,100
101952,note_on,,,,,64,0,12,,,,,5,,,52,85
101952,note_on,,,,,0,0,14,,,,,7,,,67,100
101952,note_on,,,,,64,0,14,,,,,7,,,72,100
101952,note_on,,,,,32,0,8,,,,,1,,,72,100
101954,note_on,,,,,64,0,13,,,,,6,,,40,85
101954,note_on,,,,,64,0,15,,,,,7,,,52,100
102016,note_off,,,,,64,0,8,,,,,1,,,72,100
102048,note_on,,,,,32,0,8,,,,,1,,,79,100
102080,note_off,,,,,0,0,14,,,,,7,,,67,100
102080,note_off,,,,,128,0,14,,,,,7,,,72,100
102080,note_off,,,,,128,0,12,,,,,5,,,52,100
102082,note_off,,,,,128,0,15,,,,,7,,,52,100
102082,note_off,,,,,128,0,13,,,,,6,,,40,100
102112,note_off,,,,,64,0,8,,,,,1,,,79,100
102144,note_on,,,,,32,0,8,,,,,1,,,79,100
102144,note_on,,,,,0,0,14,,,,,7,,,67,100
102144,note_on,,,,,64,0,14,,,,,7,,,72,100
102144,note_on,,,,,64,0,12,,,,,5,,,52,85
102146,note_on,,,,,64,0,15,,,,,7,,,52,100
102146,note_on,,,,,64,0,13,,,,,6,,,40,85
102208,note_off,,,,,64,0,8,,,,,1,,,79,100
102240,note_on,,,,,32,0,8,,,,,1,,,76,101
102272,note_off,,,,,128,0,14,,,,,7,,,72,100
102272,note_off,,,,,128,0,12,,,,,5,,,52,100
102272,note_off,,,,,0,0,14,,,,,7,,,67,100
102274,note_off,,,,,128,0,13,,,,,6,,,40,100
102274,note_off,,,,,128,0,15,,,,,7,,,52,100
102304,note_off,,,,,64,0,8,,,,,1,,,76,100
102336,note_on,,,,,64,0,14,,,,,7,,,72,100
102336,note_on,,,,,0,0,14,,,,,7,,,67,100
102336,note_on,,,,,64,0,12,,,,,5,,,52,85
102336,note_on,,,,,32,0,8,,,,,1,,,76,102
102338,note_on,,,,,64,0,13,,,,,6,,,40,85
102338,note_on,,,,,64,0,15,,,,,7,,,52,100
102400,note_off,,,,,64,0,8,,,,,1,,,76,100
102432,note_on,,,,,32,0,8,,,,,1,,,72,103
102464,note_off,,,,,128,0,12,,,,,5,,,52,100
102464,note_off,,,,,0,0,14,,,,,7,,,67,100
102464,note_off,,,,,128,0,14,,,,,7,,,72,100
102466,note_off,,,,,128,0,15,,,,,7,,,52,100
102466,note_off,,,,,128,0,13,,,,,6,,,40,100
102496,note_off,,,,,64,0,8,,,,,1,,,72,100
102528,note_on,,,,,64,0,14,,,,,7,,,67,100
102528,note_on,,,,,32,0,8,,,,,1,,,72,104
102528,note_on,,,,,64,0,12,,,,,5,,,52,85
102528,note_on,,,,,0,0,14,,,,,7,,,72,100
102530,note_on,,,,,64,0,15,,,,,7,,,52,100
102530,note_on,,,,,64,0,13,,,,,6,,,40,85
102592,note_off,,,,,64,0,8,,,,,1,,,72,100
102624,note_on,,,,,32,0,8,,,,,1,,,76,105
102656,note_off,,,,,128,0,14,,,,,7,,,67,100
102656,note_off,,,,,0,0,14,,,,,7,,,72,100
102656,note_off,,,,,128,0,12,,,,,5,,,52,100
102658,note_off,,,,,128,0,15,,,,,7,,,52,100
102658,note_off,,,,,128,0,13,,,,,6,,,40,100
102688,note_off,,,,,64,0,8,,,,,1,,,76,100
102720,note_on,,,,,64,0,12,,,,,5,,,52,85
102720,note_on,,,,,32,0,8,,,,,1,,,76,106
102720,note_on,,,,,64,0,14,,,,,7,,,67,100
102720,note_on,,,,,0,0,14,,,,,7,,,72,100
102722,note_on,,,,,64,0,15,,,,,7,,,52,100
102722,note_on,,,,,64,0,13,,,,,6,,,40,85
102784,note_off,,,,,64,0,8,,,,,1,,,76,100
102816,note_on,,,,,32,0,8,,,,,1,,,72,107
102848,note_off,,,,,128,0,12,,,,,5,,,52,100
102848,note_off,,,,,0,0,14,,,,,7,,,72,100
102848,note_off,,,,,128,0,14,,,,,7,,,67,100
102850,note_off,,,,,128,0,13,,,,,6,,,40,100
102850,note_off,,,,,128,0,15,,,,,7,,,52,100
102880,note_off,,,,,64,0,8,,,,,1,,,72,100
102912,note_on,,,,,64,0,12,,,,,5,,,52,85
102912,note_on,,,,,0,0,14,,,,,7,,,72,100
102912,note_on,,,,,64,0,14,,,,,7,,,69,100
102912,note_on,,,,,32,0,8,,,,,1,,,72,108
102914,note_on,,,,,64,0,15,,,,,7,,,52,100
102914,note_on,,,,,64,0,13,,,,,6,,,40,85
102976,note_off,,,,,64,0,8,,,,,1,,,72,100
103008,note_on,,,,,32,0,8,,,,,1,,,71,109
103040,note_off,,,,,128,0,14,,,,,7,,,69,100
103040,note_off,,,,,0,0,14,,,,,7,,,72,100
103040,note_off,,,,,128,0,12,,,,,5,,,52,100
103042,note_off,,,,,128,0,13,,,,,6,,,40,100
103042,note_off,,,,,128,0,15,,,,,7,,,52,100
103072,note_off,,,,,64,0,8,,,,,1,,,71,100
103104,note_on,,,,,10688,0,7,,,,,0,,,66,100
103104,note_on,,,,,0,0,14,,,,,7,,,73,100
103104,note_on,,,,,64,0,14,,,,,7,,,70,100
103104,note_on,,,,,2048,0,11,,,,,4,,,66,85
103104,note_on,,,,,64,0,12,,,,,5,,,54,85
103104,note_on,,,,,32,0,8,,,,,1,,,70,109
103106,note_on,,,,,64,0,13,,,,,6,,,42,85
103106,note_on,,,,,64,0,15,,,,,7,,,54,100
103168,note_off,,,,,64,0,7,,,,,0,,,66,100
103200,note_on,,,,,32,0,7,,,,,0,,,73,100
103232,note_off,,,,,128,0,11,,,,,4,,,66,100
103232,note_off,,,,,128,0,8,,,,,1,,,70,100
103264,note_off,,,,,64,0,7,,,,,0,,,73,100
103296,note_on,,,,,32,0,7,,,,,0,,,66,100
103296,note_on,,,,,2240,0,10,,,,,3,,,70,100
103296,note_on,,,,,64,0,11,,,,,4,,,66,85
103296,note_on,,,,,64,0,8,,,,,1,,,70,100
103360,note_off,,,,,0,0,14,,,,,7,,,73,100
103360,note_off,,,,,256,0,12,,,,,5,,,54,100
103360,note_off,,,,,256,0,14,,,,,7,,,70,100
103360,note_off,,,,,64,0,7,,,,,0,,,66,100
103362,note_off,,,,,256,0,15,,,,,7,,,54,100
103362,note_off,,,,,256,0,13,,,,,6,,,42,100
103392,note_on,,,,,32,0,7,,,,,0,,,73,100
103424,note_off,,,,,128,0,10,,,,,3,,,70,100
103424,note_off,,,,,128,0,11,,,,,4,,,66,100
103424,note_off,,,,,128,0,8,,,,,1,,,70,100
103456,note_off,,,,,64,0,7,,,,,0,,,73,100
103488,note_on,,,,,32,0,7,,,,,0,,,66,100
103488,note_on,,,,,64,0,10,,,,,3,,,78,100
103488,note_on,,,,,64,0,8,,,,,1,,,70,100
103488,note_on,,,,,64,0,11,,,,,4,,,66,85
103552,note_off,,,,,64,0,7,,,,,0,,,66,100
103584,note_on,,,,,32,0,7,,,,,0,,,73,100
103616,note_off,,,,,128,0,11,,,,,4,,,66,100
103616,note_off,,,,,128,0,8,,,,,1,,,70,100
103616,note_off,,,,,128,0,10,,,,,3,,,78,100
103648,note_off,,,,,64,0,7,,,,,0,,,73,100
103680,note_on,,,,,64,0,11,,,,,4,,,66,85
103680,note_on,,,,,32,0,7,,,,,0,,,66,100
103680,note_on,,,,,64,0,8,,,,,1,,,71,100
103744,note_off,,,,,64,0,7,,,,,0,,,66,100
103776,note_on,,,,,32,0,7,,,,,0,,,74,100
103808,note_off,,,,,128,0,8,,,,,1,,,71,100
103808,note_off,,,,,128,0,11,,,,,4,,,66,100
103840,note_off,,,,,64,0,7,,,,,0,,,74,100
103872,note_on,,,,,32,0,7,,,,,0,,,66,100
103872,note_on,,,,,256,0,10,,,,,3,,,71,100
103872,note_on,,,,,64,0,11,,,,,4,,,66,85
103872,note_on,,,,,64,0,8,,,,,1,,,71,100
103936,note_off,,,,,64,0,7,,,,,0,,,66,100
103968,note_on,,,,,32,0,7,,,,,0,,,74,100
104000,note_off,,,,,128,0,8,,,,,1,,,71,100
104000,note_off,,,,,128,0,10,,,,,3,,,71,100
104000,note_off,,,,,128,0,11,,,,,4,,,66,100
104032,note_off,,,,,64,0,7,,,,,0,,,74,100
104064,note_on,,,,,32,0,7,,,,,0,,,66,100
104064,note_on,,,,,64,0,11,,,,,4,,,66,85
104064,note_on,,,,,64,0,10,,,,,3,,,78,100
104064,note_on,,,,,64,0,8,,,,,1,,,71,100
104128,note_off,,,,,64,0,7,,,,,0,,,66,100
104160,note_on,,,,,32,0,7,,,,,0,,,74,100
104192,note_off,,,,,128,0,8,,,,,1,,,71,100
104192,note_off,,,,,128,0,11,,,,,4,,,66,100
104192,note_off,,,,,128,0,10,,,,,3,,,78,100
104224,note_off,,,,,64,0,7,,,,,0,,,74,100
104256,note_on,,,,,64,0,11,,,,,4,,,66,85
104256,note_on,,,,,64,0,8,,,,,1,,,73,100
104256,note_on,,,,,32,0,7,,,,,0,,,66,100
104320,note_off,,,,,64,0,7,,,,,0,,,66,100
104352,note_on,,,,,32,0,7,,,,,0,,,76,100
104384,note_off,,,,,128,0,11,,,,,4,,,66,100
104384,note_off,,,,,128,0,8,,,,,1,,,73,100
104416,note_off,,,,,64,0,7,,,,,0,,,76,100
104448,note_on,,,,,32,0,7,,,,,0,,,66,100
104448,note_on,,,,,64,0,8,,,,,1,,,73,100
104448,note_on,,,,,64,0,11,,,,,4,,,66,85
104448,note_on,,,,,256,0,10,,,,,3,,,73,100
104512,note_off,,,,,64,0,7,,,,,0,,,66,100
104544,note_on,,,,,32,0,7,,,,,0,,,76,100
104576,note_off,,,,,128,0,10,,,,,3,,,73,100
104576,note_off,,,,,128,0,8,,,,,1,,,73,100
104576,note_off,,,,,128,0,11,,,,,4,,,66,100
104608,note_off,,,,,64,0,7,,,,,0,,,76,100
104640,note_on,,,,,64,0,8,,,,,1,,,73,100
104640,note_on,,,,,64,0,10,,,,,3,,,78,100
104640,note_on,,,,,64,0,11,,,,,4,,,66,85
104640,note_on,,,,,32,0,7,,,,,0,,,66,100
104704,note_off,,,,,64,0,7,,,,,0,,,66,100
104736,note_on,,,,,32,0,7,,,,,0,,,76,100
104768,note_off,,,,,128,0,8,,,,,1,,,73,100
104768,note_off,,,,,128,0,10,,,,,3,,,78,100
104768,note_off,,,,,128,0,11,,,,,4,,,66,100
104800,note_off,,,,,64,0,7,,,,,0,,,76,100
104832,note_on,,,,,64,0,8,,,,,1,,,71,100
104832,note_on,,,,,32,0,7,,,,,0,,,66,100
104832,note_on,,,,,64,0,11,,,,,4,,,66,85
104896,note_off,,,,,64,0,7,,,,,0,,,66,100
104928,note_on,,,,,32,0,7,,,,,0,,,74,100
104960,note_off,,,,,128,0,8,,,,,1,,,71,100
104960,note_off,,,,,128,0,11,,,,,4,,,66,100
104992,note_off,,,,,64,0,7,,,,,0,,,74,100
105024,note_on,,,,,256,0,10,,,,,3,,,71,100
105024,note_on,,,,,32,0,7,,,,,0,,,66,100
105024,note_on,,,,,64,0,8,,,,,1,,,71,100
105024,note_on,,,,,64,0,11,,,,,4,,,66,85
105088,note_off,,,,,64,0,7,,,,,0,,,66,100
105120,note_on,,,,,32,0,7,,,,,0,,,74,100
105152,note_off,,,,,128,0,11,,,,,4,,,66,100
105152,note_off,,,,,128,0,10,,,,,3,,,71,100
105152,note_off,,,,,128,0,8,,,,,1,,,71,100
105184,note_off,,,,,64,0,7,,,,,0,,,74,100
105216,note_on,,,,,64,0,10,,,,,3,,,78,100
105216,note_on,,,,,32,0,7,,,,,0,,,66,100
105216,note_on,,,,,64,0,8,,,,,1,,,71,100
105216,note_on,,,,,64,0,11,,,,,4,,,66,85
105280,note_off,,,,,64,0,7,,,,,0,,,66,100
105312,note_on,,,,,32,0,7,,,,,0,,,74,100
105344,note_off,,,,,128,0,8,,,,,1,,,71,100
105344,note_off,,,,,128,0,10,,,,,3,,,78,100
105344,note_off,,,,,128,0,11,,,,,4,,,66,100
105376,note_off,,,,,64,0,7,,,,,0,,,74,100
105408,note_on,,,,,32,0,7,,,,,0,,,66,100
105408,note_on,,,,,64,0,8,,,,,1,,,70,100
105408,note_on,,,,,64,0,11,,,,,4,,,66,85
105472,note_off,,,,,64,0,7,,,,,0,,,66,100
105504,note_on,,,,,32,0,7,,,,,0,,,73,100
105536,note_off,,,,,128,0,11,,,,,4,,,66,100
105536,note_off,,,,,128,0,8,,,,,1,,,70,100
105568,note_off,,,,,64,0,7,,,,,0,,,73,100
105600,note_on,,,,,64,0,11,,,,,4,,,66,85
105600,note_on,,,,,256,0,10,,,,,3,,,70,100
105600,note_on,,,,,32,0,7,,,,,0,,,66,100
105600,note_on,,,,,64,0,8,,,,,1,,,70,100
105664,note_off,,,,,64,0,7,,,,,0,,,66,100
105696,note_on,,,,,32,0,7,,,,,0,,,73,100
105728,note_off,,,,,128,0,11,,,,,4,,,66,100
105728,note_off,,,,,128,0,10,,,,,3,,,70,100
105728,note_off,,,,,128,0,8,,,,,1,,,70,100
105760,note_off,,,,,64,0,7,,,,,0,,,73,100
105792,note_on,,,,,64,0,10,,,,,3,,,78,100
105792,note_on,,,,,32,0,7,,,,,0,,,66,100
105792,note_on,,,,,64,0,8,,,,,1,,,70,100
105792,note_on,,,,,64,0,11,,,,,4,,,66,85
105856,note_off,,,,,64,0,7,,,,,0,,,66,100
105888,note_on,,,,,32,0,7,,,,,0,,,73,100
105920,note_off,,,,,128,0,11,,,,,4,,,66,100
105920,note_off,,,,,128,0,10,,,,,3,,,78,100
105920,note_off,,,,,128,0,8,,,,,1,,,70,100
105952,note_off,,,,,64,0,7,,,,,0,,,73,100
105984,note_on,,,,,64,0,11,,,,,4,,,66,85
105984,note_on,,,,,32,0,7,,,,,0,,,66,100
105984,note_on,,,,,64,0,8,,,,,1,,,71,100
106048,note_off,,,,,64,0,7,,,,,0,,,66,100
106080,note_on,,,,,32,0,7,,,,,0,,,74,100
106112,note_off,,,,,128,0,11,,,,,4,,,66,100
106112,note_off,,,,,128,0,8,,,,,1,,,71,100
106144,note_off,,,,,64,0,7,,,,,0,,,74,100
106176,note_on,,,,,256,0,10,,,,,3,,,71,100
106176,note_on,,,,,32,0,7,,,,,0,,,66,100
106176,note_on,,,,,64,0,8,,,,,1,,,71,100
106176,note_on,,,,,64,0,11,,,,,4,,,66,85
106240,note_off,,,,,64,0,7,,,,,0,,,66,100
106272,note_on,,,,,32,0,7,,,,,0,,,74,100
106304,note_off,,,,,128,0,8,,,,,1,,,71,100
106304,note_off,,,,,128,0,10,,,,,3,,,71,100
106304,note_off,,,,,128,0,11,,,,,4,,,66,100
106336,note_off,,,,,64,0,7,,,,,0,,,74,100
106368,note_on,,,,,64,0,8,,,,,1,,,71,100
106368,note_on,,,,,32,0,7,,,,,0,,,66,100
106368,note_on,,,,,64,0,11,,,,,4,,,66,85
106368,note_on,,,,,64,0,10,,,,,3,,,78,100
106432,note_off,,,,,64,0,7,,,,,0,,,66,100
106464,note_on,,,,,32,0,7,,,,,0,,,74,100
106496,note_off,,,,,128,0,8,,,,,1,,,71,100
106496,note_off,,,,,128,0,11,,,,,4,,,66,100
106496,note_off,,,,,128,0,10,,,,,3,,,78,100
106528,note_off,,,,,64,0,7,,,,,0,,,74,100
106560,note_on,,,,,64,0,11,,,,,4,,,66,85
106560,note_on,,,,,64,0,8,,,,,1,,,73,100
106560,note_on,,,,,32,0,7,,,,,0,,,66,100
106624,note_off,,,,,64,0,7,,,,,0,,,66,100
106656,note_on,,,,,32,0,7,,,,,0,,,76,100
106688,note_off,,,,,128,0,11,,,,,4,,,66,100
106688,note_off,,,,,128,0,8,,,,,1,,,73,100
106720,note_off,,,,,64,0,7,,,,,0,,,76,100
106752,note_on,,,,,64,0,11,,,,,4,,,66,85
106752,note_on,,,,,64,0,8,,,,,1,,,73,100
106752,note_on,,,,,32,0,7,,,,,0,,,66,100
106752,note_on,,,,,256,0,10,,,,,3,,,73,100
106816,note_off,,,,,64,0,7,,,,,0,,,66,100
106848,note_on,,,,,32,0,7,,,,,0,,,76,100
106880,note_off,,,,,128,0,8,,,,,1,,,73,100
106880,note_off,,,,,128,0,11,,,,,4,,,66,100
106880,note_off,,,,,128,0,10,,,,,3,,,73,100
106912,note_off,,,,,64,0,7,,,,,0,,,76,100
106944,note_on,,,,,64,0,10,,,,,3,,,78,100
106944,note_on,,,,,32,0,7,,,,,0,,,66,100
106944,note_on,,,,,64,0,11,,,,,4,,,66,85
106944,note_on,,,,,64,0,8,,,,,1,,,73,100
107008,note_off,,,,,64,0,7,,,,,0,,,66,100
107040,note_on,,,,,32,0,7,,,,,0,,,76,100
107072,note_off,,,,,128,0,10,,,,,3,,,78,100
107072,note_off,,,,,128,0,11,,,,,4,,,66,100
107072,note_off,,,,,128,0,8,,,,,1,,,73,100
107104,note_off,,,,,64,0,7,,,,,0,,,76,100
107136,note_on,,,,,64,0,11,,,,,4,,,66,100
107136,note_on,,,,,64,0,8,,,,,1,,,71,100
107136,note_on,,,,,32,0,7,,,,,0,,,66,100
107200,note_off,,,,,64,0,7,,,,,0,,,66,100
107232,note_on,,,,,32,0,7,,,,,0,,,74,97
107264,note_off,,,,,128,0,11,,,,,4,,,66,100
107264,note_off,,,,,128,0,8,,,,,1,,,71,100
107296,note_off,,,,,64,0,7,,,,,0,,,74,100
107328,note_on,,,,,64,0,11,,,,,4,,,66,94
107328,note_on,,,,,256,0,10,,,,,3,,,71,94
107328,note_on,,,,,64,0,8,,,,,1,,,71,94
107328,note_on,,,,,32,0,7,,,,,0,,,66,94
107392,note_off,,,,,64,0,7,,,,,0,,,66,100
107424,note_on,,,,,32,0,7,,,,,0,,,74,91
107456,note_off,,,,,128,0,8,,,,,1,,,71,100
107456,note_off,,,,,128,0,10,,,,,3,,,71,100
107456,note_off,,,,,128,0,11,,,,,4,,,66,100
107488,note_off,,,,,64,0,7,,,,,0,,,74,100
107520,note_on,,,,,64,0,8,,,,,1,,,71,87
107520,note_on,,,,,64,0,11,,,,,4,,,66,87
107520,note_on,,,,,64,0,10,,,,,3,,,78,87
107520,note_on,,,,,32,0,7,,,,,0,,,66,87
107584,note_off,,,,,64,0,7,,,,,0,,,66,100
107616,note_on,,,,,32,0,7,,,,,0,,,74,84
107648,note_off,,,,,128,0,11,,,,,4,,,66,100
107648,note_off,,,,,128,0,8,,,,,1,,,71,100
107648,note_off,,,,,128,0,10,,,,,3,,,78,100
107680,note_off,,,,,64,0,7,,,,,0,,,74,100
107712,note_on,,,,,64,0,10,,,,,3,,,70,81
107712,note_on,,,,,9536,0,9,,,,,2,,,66,75
107712,note_on,,,,,32,0,7,,,,,0,,,66,81
107712,note_on,,,,,0,0,7,,,,,0,,,73,81
107712,note_on,,,,,64,0,8,,,,,1,,,70,81
107712,note_on,,,,,64,0,11,,,,,4,,,66,81
107776,note_off,,,,,64,0,9,,,,,2,,,66,100
107808,note_on,,,,,32,0,9,,,,,2,,,73,75
107840,note_off,,,,,128,0,10,,,,,3,,,70,100
107840,note_off,,,,,128,0,8,,,,,1,,,70,100
107840,note_off,,,,,128,0,11,,,,,4,,,66,100
107872,note_off,,,,,160,0,7,,,,,0,,,73,100
107904,note_on,,,,,64,0,11,,,,,4,,,66,60
107904,note_on,,,,,64,0,10,,,,,3,,,70,75
107904,note_on,,,,,64,0,8,,,,,1,,,70,75
107904,note_on,,,,,96,0,9,,,,,2,,,66,75
107968,note_off,,,,,64,0,9,,,,,2,,,73,100
107968,note_off,,,,,96,0,7,,,,,0,,,66,100
107968,note_off,,,,,0,0,9,,,,,2,,,66,100
108000,note_on,,,,,32,0,9,,,,,2,,,73,75
108032,note_off,,,,,128,0,10,,,,,3,,,70,100
108032,note_off,,,,,128,0,8,,,,,1,,,70,100
108032,note_off,,,,,128,0,11,,,,,4,,,66,100
108064,note_off,,,,,64,0,9,,,,,2,,,73,100
108096,note_on,,,,,64,0,11,,,,,4,,,66,60
108096,note_on,,,,,32,0,9,,,,,2,,,66,75
108096,note_on,,,,,64,0,10,,,,,3,,,70,75
108096,note_on,,,,,64,0,8,,,,,1,,,78,75
108160,note_off,,,,,64,0,9,,,,,2,,,66,100
108192,note_on,,,,,32,0,9,,,,,2,,,73,75
108224,note_off,,,,,128,0,8,,,,,1,,,78,100
108224,note_off,,,,,128,0,11,,,,,4,,,66,100
108224,note_off,,,,,128,0,10,,,,,3,,,70,100
108256,note_off,,,,,64,0,9,,,,,2,,,73,100
108288,note_on,,,,,64,0,11,,,,,4,,,66,60
108288,note_on,,,,,32,0,9,,,,,2,,,66,75
108288,note_on,,,,,64,0,10,,,,,3,,,71,75
108352,note_off,,,,,64,0,9,,,,,2,,,66,100
108384,note_on,,,,,32,0,9,,,,,2,,,74,75
108416,note_off,,,,,128,0,11,,,,,4,,,66,100
108416,note_off,,,,,128,0,10,,,,,3,,,71,100
108448,note_off,,,,,64,0,9,,,,,2,,,74,100
108480,note_on,,,,,64,0,11,,,,,4,,,66,60
108480,note_on,,,,,32,0,9,,,,,2,,,66,75
108480,note_on,,,,,64,0,10,,,,,3,,,71,75
108480,note_on,,,,,256,0,8,,,,,1,,,71,75
108544,note_off,,,,,64,0,9,,,,,2,,,66,100
108576,note_on,,,,,32,0,9,,,,,2,,,74,75
108608,note_off,,,,,128,0,10,,,,,3,,,71,100
108608,note_off,,,,,128,0,11,,,,,4,,,66,100
108608,note_off,,,,,128,0,8,,,,,1,,,71,100
108640,note_off,,,,,64,0,9,,,,,2,,,74,100
108672,note_on,,,,,64,0,11,,,,,4,,,66,60
108672,note_on,,,,,32,0,9,,,,,2,,,66,75
108672,note_on,,,,,64,0,8,,,,,1,,,78,75
108672,note_on,,,,,64,0,10,,,,,3,,,71,75
108736,note_off,,,,,64,0,9,,,,,2,,,66,100
108768,note_on,,,,,32,0,9,,,,,2,,,74,75
108800,note_off,,,,,128,0,11,,,,,4,,,66,100
108800,note_off,,,,,128,0,10,,,,,3,,,71,100
108800,note_off,,,,,128,0,8,,,,,1,,,78,100
108832,note_off,,,,,64,0,9,,,,,2,,,74,100
108864,note_on,,,,,64,0,11,,,,,4,,,66,60
108864,note_on,,,,,32,0,9,,,,,2,,,66,75
108864,note_on,,,,,64,0,10,,,,,3,,,73,75
108928,note_off,,,,,64,0,9,,,,,2,,,66,100
108960,note_on,,,,,32,0,9,,,,,2,,,76,75
108992,note_off,,,,,128,0,10,,,,,3,,,73,100
108992,note_off,,,,,128,0,11,,,,,4,,,66,100
109024,note_off,,,,,64,0,9,,,,,2,,,76,100
109056,note_on,,,,,64,0,11,,,,,4,,,66,60
109056,note_on,,,,,256,0,8,,,,,1,,,73,75
109056,note_on,,,,,64,0,10,,,,,3,,,73,75
109056,note_on,,,,,32,0,9,,,,,2,,,66,75
109120,note_off,,,,,64,0,9,,,,,2,,,66,100
109152,note_on,,,,,32,0,9,,,,,2,,,76,75
109184,note_off,,,,,128,0,10,,,,,3,,,73,100
109184,note_off,,,,,128,0,8,,,,,1,,,73,100
109184,note_off,,,,,128,0,11,,,,,4,,,66,100
109216,note_off,,,,,64,0,9,,,,,2,,,76,100
109248,note_on,,,,,32,0,9,,,,,2,,,66,75
109248,note_on,,,,,64,0,11,,,,,4,,,66,60
109248,note_on,,,,,64,0,8,,,,,1,,,78,75
109248,note_on,,,,,64,0,10,,,,,3,,,73,75
109312,note_off,,,,,64,0,9,,,,,2,,,66,100
109344,note_on,,,,,32,0,9,,,,,2,,,76,75
109376,note_off,,,,,128,0,8,,,,,1,,,78,100
109376,note_off,,,,,128,0,11,,,,,4,,,66,100
109376,note_off,,,,,128,0,10,,,,,3,,,73,100
109408,note_off,,,,,64,0,9,,,,,2,,,76,100
109440,note_on,,,,,64,0,10,,,,,3,,,71,75
109440,note_on,,,,,64,0,11,,,,,4,,,66,60
109440,note_on,,,,,32,0,9,,,,,2,,,66,75
109504,note_off,,,,,64,0,9,,,,,2,,,66,100
109536,note_on,,,,,32,0,9,,,,,2,,,74,75
109568,note_off,,,,,128,0,11,,,,,4,,,66,100
109568,note_off,,,,,128,0,10,,,,,3,,,71,100
109600,note_off,,,,,64,0,9,,,,,2,,,74,100
109632,note_on,,,,,32,0,9,,,,,2,,,66,75
109632,note_on,,,,,64,0,11,,,,,4,,,66,60
109632,note_on,,,,,64,0,10,,,,,3,,,71,75
109632,note_on,,,,,256,0,8,,,,,1,,,71,75
109696,note_off,,,,,64,0,9,,,,,2,,,66,100
109728,note_on,,,,,32,0,9,,,,,2,,,74,75
109760,note_off,,,,,128,0,8,,,,,1,,,71,100
109760,note_off,,,,,128,0,11,,,,,4,,,66,100
109760,note_off,,,,,128,0,10,,,,,3,,,71,100
109792,note_off,,,,,64,0,9,,,,,2,,,74,100
109824,note_on,,,,,64,0,10,,,,,3,,,71,75
109824,note_on,,,,,32,0,9,,,,,2,,,66,75
109824,note_on,,,,,64,0,8,,,,,1,,,78,75
109824,note_on,,,,,64,0,11,,,,,4,,,66,60
109888,note_off,,,,,64,0,9,,,,,2,,,66,100
109920,note_on,,,,,32,0,9,,,,,2,,,74,75
109952,note_off,,,,,128,0,8,,,,,1,,,78,100
109952,note_off,,,,,128,0,10,,,,,3,,,71,100
109952,note_off,,,,,128,0,11,,,,,4,,,66,100
109984,note_off,,,,,64,0,9,,,,,2,,,74,100
110016,note_on,,,,,64,0,10,,,,,3,,,70,75
110016,note_on,,,,,32,0,9,,,,,2,,,66,75
110016,note_on,,,,,64,0,11,,,,,4,,,66,60
110080,note_off,,,,,64,0,9,,,,,2,,,66,100
110112,note_on,,,,,32,0,9,,,,,2,,,73,75
110144,note_off,,,,,128,0,11,,,,,4,,,66,100
110144,note_off,,,,,128,0,10,,,,,3,,,70,100
110176,note_off,,,,,64,0,9,,,,,2,,,73,100
110208,note_on,,,,,32,0,9,,,,,2,,,66,75
110208,note_on,,,,,64,0,11,,,,,4,,,66,60
110208,note_on,,,,,64,0,10,,,,,3,,,70,75
110208,note_on,,,,,256,0,8,,,,,1,,,70,75
110272,note_off,,,,,64,0,9,,,,,2,,,66,100
110304,note_on,,,,,32,0,9,,,,,2,,,73,75
110336,note_off,,,,,128,0,10,,,,,3,,,70,100
110336,note_off,,,,,128,0,8,,,,,1,,,70,100
110336,note_off,,,,,128,0,11,,,,,4,,,66,100
110368,note_off,,,,,64,0,9,,,,,2,,,73,100
110400,note_on,,,,,64,0,10,,,,,3,,,70,75
110400,note_on,,,,,64,0,11,,,,,4,,,66,60
110400,note_on,,,,,32,0,9,,,,,2,,,66,75
110400,note_on,,,,,64,0,8,,,,,1,,,78,75
110464,note_off,,,,,64,0,9,,,,,2,,,66,100
110496,note_on,,,,,32,0,9,,,,,2,,,73,75
110528,note_off,,,,,128,0,8,,,,,1,,,78,100
110528,note_off,,,,,128,0,11,,,,,4,,,66,100
110528,note_off,,,,,128,0,10,,,,,3,,,70,100
110560,note_off,,,,,64,0,9,,,,,2,,,73,100
110592,note_on,,,,,64,0,11,,,,,4,,,66,60
110592,note_on,,,,,32,0,9,,,,,2,,,66,75
110592,note_on,,,,,64,0,10,,,,,3,,,71,75
110656,note_off,,,,,64,0,9,,,,,2,,,66,100
110688,note_on,,,,,32,0,9,,,,,2,,,74,75
110720,note_off,,,,,128,0,10,,,,,3,,,71,100
110720,note_off,,,,,128,0,11,,,,,4,,,66,100
110752,note_off,,,,,64,0,9,,,,,2,,,74,100
110784,note_on,,,,,256,0,8,,,,,1,,,71,75
110784,note_on,,,,,64,0,11,,,,,4,,,66,60
110784,note_on,,,,,64,0,10,,,,,3,,,71,75
110784,note_on,,,,,32,0,9,,,,,2,,,66,75
110848,note_off,,,,,64,0,9,,,,,2,,,66,100
110880,note_on,,,,,32,0,9,,,,,2,,,74,75
110912,note_off,,,,,128,0,11,,,,,4,,,66,100
110912,note_off,,,,,128,0,10,,,,,3,,,71,100
110912,note_off,,,,,128,0,8,,,,,1,,,71,100
110944,note_off,,,,,64,0,9,,,,,2,,,74,100
110976,note_on,,,,,64,0,8,,,,,1,,,78,75
110976,note_on,,,,,64,0,10,,,,,3,,,71,75
110976,note_on,,,,,32,0,9,,,,,2,,,66,75
110976,note_on,,,,,64,0,11,,,,,4,,,66,60
111040,note_off,,,,,64,0,9,,,,,2,,,66,100
111072,note_on,,,,,32,0,9,,,,,2,,,74,75
111104,note_off,,,,,128,0,11,,,,,4,,,66,100
111104,note_off,,,,,128,0,10,,,,,3,,,71,100
111104,note_off,,,,,128,0,8,,,,,1,,,78,100
111136,note_off,,,,,64,0,9,,,,,2,,,74,100
111168,note_on,,,,,32,0,9,,,,,2,,,66,75
111168,note_on,,,,,64,0,11,,,,,4,,,66,60
111168,note_on,,,,,64,0,10,,,,,3,,,73,75
111232,note_off,,,,,64,0,9,,,,,2,,,66,100
111264,note_on,,,,,32,0,9,,,,,2,,,76,75
111296,note_off,,,,,128,0,11,,,,,4,,,66,100
111296,note_off,,,,,128,0,10,,,,,3,,,73,100
111328,note_off,,,,,64,0,9,,,,,2,,,76,100
111360,note_on,,,,,32,0,9,,,,,2,,,66,75
111360,note_on,,,,,256,0,8,,,,,1,,,73,75
111360,note_on,,,,,64,0,11,,,,,4,,,66,60
111360,note_on,,,,,64,0,10,,,,,3,,,73,75
111424,note_off,,,,,64,0,9,,,,,2,,,66,100
111456,note_on,,,,,32,0,9,,,,,2,,,76,75
111488,note_off,,,,,128,0,11,,,,,4,,,66,100
111488,note_off,,,,,128,0,8,,,,,1,,,73,100
111488,note_off,,,,,128,0,10,,,,,3,,,73,100
111520,note_off,,,,,64,0,9,,,,,2,,,76,100
111552,note_on,,,,,64,0,8,,,,,1,,,78,75
111552,note_on,,,,,32,0,9,,,,,2,,,66,75
111552,note_on,,,,,64,0,11,,,,,4,,,66,60
111552,note_on,,,,,64,0,10,,,,,3,,,73,75
111616,note_off,,,,,64,0,9,,,,,2,,,66,100
111648,note_on,,,,,32,0,9,,,,,2,,,76,75
111680,note_off,,,,,128,0,11,,,,,4,,,66,100
111680,note_off,,,,,128,0,8,,,,,1,,,78,100
111680,note_off,,,,,128,0,10,,,,,3,,,73,100
111712,note_off,,,,,64,0,9,,,,,2,,,76,100
111744,note_on,,,,,32,0,9,,,,,2,,,66,75
111744,note_on,,,,,64,0,11,,,,,4,,,66,60
111744,note_on,,,,,64,0,10,,,,,3,,,71,75
111808,note_off,,,,,64,0,9,,,,,2,,,66,100
111840,note_on,,,,,32,0,9,,,,,2,,,74,75
111872,note_off,,,,,128,0,11,,,,,4,,,66,100
111872,note_off,,,,,128,0,10,,,,,3,,,71,100
111904,note_off,,,,,64,0,9,,,,,2,,,74,100
111936,note_on,,,,,64,0,10,,,,,3,,,71,75
111936,note_on,,,,,256,0,8,,,,,1,,,71,75
111936,note_on,,,,,64,0,11,,,,,4,,,66,60
111936,note_on,,,,,32,0,9,,,,,2,,,66,75
112000,note_off,,,,,64,0,9,,,,,2,,,66,100
112032,note_on,,,,,32,0,9,,,,,2,,,74,75
112064,note_off,,,,,128,0,10,,,,,3,,,71,100
112064,note_off,,,,,128,0,11,,,,,4,,,66,100
112064,note_off,,,,,128,0,8,,,,,1,,,71,100
112096,note_off,,,,,64,0,9,,,,,2,,,74,100
112128,note_on,,,,,64,0,8,,,,,1,,,78,75
112128,note_on,,,,,32,0,9,,,,,2,,,66,75
112128,note_on,,,,,64,0,10,,,,,3,,,71,75
112128,note_on,,,,,64,0,11,,,,,4,,,66,60
112192,note_off,,,,,64,0,9,,,,,2,,,66,100
112224,note_on,,,,,32,0,9,,,,,2,,,74,75
112256,note_off,,,,,128,0,10,,,,,3,,,71,100
112256,note_off,,,,,128,0,8,,,,,1,,,78,100
112256,note_off,,,,,128,0,11,,,,,4,,,66,100
112288,note_off,,,,,64,0,9,,,,,2,,,74,100
112320,note_on,,,,,64,0,8,,,,,1,,,70,75
112320,note_on,,,,,64,0,11,,,,,4,,,66,90
112320,note_on,,,,,8958,0,15,,,,,7,,,54,100
112320,note_on,,,,,8960,0,14,,,,,7,,,73,100
112320,note_on,,,,,0,0,9,,,,,2,,,73,75
112320,note_on,,,,,32,0,9,,,,,2,,,66,75
112320,note_on,,,,,8958,0,13,,,,,6,,,42,85
112320,note_on,,,,,8960,0,12,,,,,5,,,54,85
112320,note_on,,,,,0,0,14,,,,,7,,,70,100
112320,note_on,,,,,64,0,10,,,,,3,,,70,75
112448,note_off,,,,,128,0,13,,,,,6,,,42,100
112448,note_off,,,,,0,0,14,,,,,7,,,70,100
112448,note_off,,,,,128,0,14,,,,,7,,,73,100
112448,note_off,,,,,128,0,15,,,,,7,,,54,100
112448,note_off,,,,,128,0,12,,,,,5,,,54,100
112512,note_on,,,,,64,0,14,,,,,7,,,73,100
112512,note_on,,,,,64,0,15,,,,,7,,,54,100
112512,note_on,,,,,0,0,14,,,,,7,,,70,100
112512,note_on,,,,,64,0,12,,,,,5,,,54,85
112512,note_on,,,,,64,0,13,,,,,6,,,42,85
112576,note_off,,,,,0,0,9,,,,,2,,,73,100
112576,note_off,,,,,256,0,9,,,,,2,,,66,100
112576,note_off,,,,,256,0,11,,,,,4,,,66,100
112576,note_off,,,,,256,0,8,,,,,1,,,70,100
112576,note_off,,,,,256,0,10,,,,,3,,,70,100
112640,note_off,,,,,128,0,12,,,,,5,,,54,100
112640,note_off,,,,,128,0,13,,,,,6,,,42,100
112640,note_off,,,,,128,0,14,,,,,7,,,73,100
112640,note_off,,,,,0,0,14,,,,,7,,,70,100
112640,note_off,,,,,128,0,15,,,,,7,,,54,100
112704,note_on,,,,,64,0,15,,,,,7,,,54,100
112704,note_on,,,,,0,0,14,,,,,7,,,70,100
112704,note_on,,,,,4736,0,7,,,,,0,,,73,85
112704,note_on,,,,,64,0,14,,,,,7,,,73,100
112704,note_on,,,,,64,0,12,,,,,5,,,54,85
112704,note_on,,,,,64,0,13,,,,,6,,,42,85
112832,note_off,,,,,128,0,7,,,,,0,,,73,100
112832,note_off,,,,,128,0,14,,,,,7,,,73,100
112832,note_off,,,,,0,0,14,,,,,7,,,70,100
112832,note_off,,,,,128,0,13,,,,,6,,,42,100
112832,note_off,,,,,128,0,12,,,,,5,,,54,100
112832,note_off,,,,,128,0,15,,,,,7,,,54,100
112896,note_on,,,,,64,0,14,,,,,7,,,73,100
112896,note_on,,,,,0,0,14,,,,,7,,,70,100
112896,note_on,,,,,64,0,13,,,,,6,,,42,85
112896,note_on,,,,,64,0,7,,,,,0,,,73,86
112896,note_on,,,,,64,0,12,,,,,5,,,54,85
112896,note_on,,,,,64,0,15,,,,,7,,,54,100
113024,note_off,,,,,128,0,12,,,,,5,,,54,100
113024,note_off,,,,,128,0,15,,,,,7,,,54,100
113024,note_off,,,,,128,0,14,,,,,7,,,73,100
113024,note_off,,,,,0,0,14,,,,,7,,,70,100
113024,note_off,,,,,128,0,13,,,,,6,,,42,100
113084,note_off,,,,,188,0,7,,,,,0,,,73,100
113088,note_on,,,,,4,0,7,,,,,0,,,70,87
113088,note_on,,,,,64,0,12,,,,,5,,,54,85
113088,note_on,,,,,64,0,14,,,,,7,,,73,100
113088,note_on,,,,,64,0,15,,,,,7,,,54,100
113088,note_on,,,,,64,0,13,,,,,6,,,42,85
113088,note_on,,,,,0,0,14,,,,,7,,,70,100
113216,note_off,,,,,128,0,7,,,,,0,,,70,100
113216,note_off,,,,,128,0,12,,,,,5,,,54,100
113216,note_off,,,,,128,0,13,,,,,6,,,42,100
113216,note_off,,,,,128,0,14,,,,,7,,,73,100
113216,note_off,,,,,0,0,14,,,,,7,,,70,100
113216,note_off,,,,,128,0,15,,,,,7,,,54,100
113280,note_on,,,,,64,0,7,,,,,0,,,76,89
113280,note_on,,,,,64,0,12,,,,,5,,,54,85
113280,note_on,,,,,64,0,15,,,,,7,,,54,100
113280,note_on,,,,,0,0,14,,,,,7,,,70,100
113280,note_on,,,,,64,0,14,,,,,7,,,73,100
113280,note_on,,,,,64,0,13,,,,,6,,,42,85
113408,note_off,,,,,128,0,14,,,,,7,,,73,100
113408,note_off,,,,,128,0,13,,,,,6,,,42,100
113408,note_off,,,,,128,0,15,,,,,7,,,54,100
113408,note_off,,,,,128,0,7,,,,,0,,,76,100
113408,note_off,,,,,128,0,12,,,,,5,,,54,100
113408,note_off,,,,,0,0,14,,,,,7,,,70,100
113472,note_on,,,,,64,0,13,,,,,6,,,42,85
113472,note_on,,,,,64,0,15,,,,,7,,,54,100
113472,note_on,,,,,64,0,12,,,,,5,,,54,85
113472,note_on,,,,,0,0,14,,,,,7,,,70,100
113472,note_on,,,,,64,0,7,,,,,0,,,76,90
113472,note_on,,,,,64,0,14,,,,,7,,,76,100
113600,note_off,,,,,128,0,13,,,,,6,,,42,100
113600,note_off,,,,,128,0,12,,,,,5,,,54,100
113600,note_off,,,,,0,0,14,,,,,7,,,70,100
113600,note_off,,,,,128,0,15,,,,,7,,,54,100
113600,note_off,,,,,128,0,14,,,,,7,,,76,100
113660,note_off,,,,,188,0,7,,,,,0,,,76,100
113664,note_on,,,,,64,0,12,,,,,5,,,54,85
113664,note_on,,,,,64,0,13,,,,,6,,,42,85
113664,note_on,,,,,64,0,14,,,,,7,,,70,100
113664,note_on,,,,,64,0,15,,,,,7,,,54,100
113664,note_on,,,,,4,0,7,,,,,0,,,73,91
113664,note_on,,,,,0,0,14,,,,,7,,,76,100
113792,note_off,,,,,128,0,13,,,,,6,,,42,100
113792,note_off,,,,,0,0,14,,,,,7,,,76,100
113792,note_off,,,,,128,0,14,,,,,7,,,70,100
113792,note_off,,,,,128,0,15,,,,,7,,,54,100
113792,note_off,,,,,128,0,7,,,,,0,,,73,100
113792,note_off,,,,,128,0,12,,,,,5,,,54,100
113856,note_on,,,,,0,0,14,,,,,7,,,76,100
113856,note_on,,,,,64,0,14,,,,,7,,,70,100
113856,note_on,,,,,64,0,15,,,,,7,,,54,100
113856,note_on,,,,,64,0,13,,,,,6,,,42,85
113856,note_on,,,,,64,0,7,,,,,0,,,79,93
113856,note_on,,,,,64,0,12,,,,,5,,,54,85
113984,note_off,,,,,128,0,15,,,,,7,,,54,100
113984,note_off,,,,,128,0,13,,,,,6,,,42,100
113984,note_off,,,,,128,0,12,,,,,5,,,54,100
113984,note_off,,,,,128,0,7,,,,,0,,,79,100
113984,note_off,,,,,128,0,14,,,,,7,,,70,100
113984,note_off,,,,,0,0,14,,,,,7,,,76,100
114048,note_on,,,,,64,0,7,,,,,0,,,79,94
114048,note_on,,,,,64,0,15,,,,,7,,,52,100
114048,note_on,,,,,64,0,14,,,,,7,,,67,100
114048,note_on,,,,,0,0,14,,,,,7,,,71,100
114048,note_on,,,,,64,0,12,,,,,5,,,52,85
114048,note_on,,,,,64,0,13,,,,,6,,,40,85
114176,note_off,,,,,128,0,13,,,,,6,,,40,100
114176,note_off,,,,,128,0,15,,,,,7,,,52,100
114176,note_off,,,,,128,0,12,,,,,5,,,52,100
114176,note_off,,,,,0,0,14,,,,,7,,,71,100
114176,note_off,,,,,128,0,14,,,,,7,,,67,100
114236,note_off,,,,,188,0,7,,,,,0,,,79,100
114240,note_on,,,,,64,0,15,,,,,7,,,52,100
114240,note_on,,,,,64,0,12,,,,,5,,,52,85
114240,note_on,,,,,4,0,7,,,,,0,,,76,95
114240,note_on,,,,,0,0,14,,,,,7,,,71,100
114240,note_on,,,,,64,0,14,,,,,7,,,67,100
114240,note_on,,,,,64,0,13,,,,,6,,,40,85
114368,note_off,,,,,128,0,13,,,,,6,,,40,100
114368,note_off,,,,,128,0,7,,,,,0,,,76,100
114368,note_off,,,,,128,0,14,,,,,7,,,67,100
114368,note_off,,,,,128,0,12,,,,,5,,,52,100
114368,note_off,,,,,128,0,15,,,,,7,,,52,100
114368,note_off,,,,,0,0,14,,,,,7,,,71,100
114432,note_on,,,,,64,0,15,,,,,7,,,52,100
114432,note_on,,,,,64,0,7,,,,,0,,,82,97
114432,note_on,,,,,64,0,13,,,,,6,,,40,85
114432,note_on,,,,,64,0,12,,,,,5,,,52,85
114432,note_on,,,,,0,0,14,,,,,7,,,71,100
114432,note_on,,,,,64,0,14,,,,,7,,,67,100
114560,note_off,,,,,128,0,7,,,,,0,,,82,100
114560,note_off,,,,,128,0,14,,,,,7,,,67,100
114560,note_off,,,,,128,0,13,,,,,6,,,40,100
114560,note_off,,,,,128,0,12,,,,,5,,,52,100
114560,note_off,,,,,0,0,14,,,,,7,,,71,100
114560,note_off,,,,,128,0,15,,,,,7,,,52,100
114624,note_on,,,,,64,0,12,,,,,5,,,52,85
114624,note_on,,,,,64,0,14,,,,,7,,,70,100
114624,note_on,,,,,0,0,14,,,,,7,,,66,100
114624,note_on,,,,,64,0,7,,,,,0,,,82,98
114624,note_on,,,,,64,0,15,,,,,7,,,52,100
114624,note_on,,,,,64,0,13,,,,,6,,,40,85
114752,note_off,,,,,128,0,15,,,,,7,,,52,100
114752,note_off,,,,,128,0,14,,,,,7,,,70,100
114752,note_off,,,,,0,0,14,,,,,7,,,66,100
114752,note_off,,,,,128,0,13,,,,,6,,,40,100
114752,note_off,,,,,128,0,12,,,,,5,,,52,100
114812,note_off,,,,,188,0,7,,,,,0,,,82,100
114816,note_on,,,,,64,0,14,,,,,7,,,70,100
114816,note_on,,,,,64,0,15,,,,,7,,,52,100
114816,note_on,,,,,64,0,12,,,,,5,,,52,85
114816,note_on,,,,,64,0,13,,,,,6,,,40,85
114816,note_on,,,,,4,0,7,,,,,0,,,78,99
114816,note_on,,,,,0,0,14,,,,,7,,,66,100
114944,note_off,,,,,128,0,7,,,,,0,,,78,100
114944,note_off,,,,,128,0,14,,,,,7,,,70,100
114944,note_off,,,,,128,0,15,,,,,7,,,52,100
114944,note_off,,,,,128,0,12,,,,,5,,,52,100
114944,note_off,,,,,128,0,13,,,,,6,,,40,100
114944,note_off,,,,,0,0,14,,,,,7,,,66,100
115008,note_on,,,,,64,0,7,,,,,0,,,83,100
115008,note_on,,,,,0,0,14,,,,,7,,,66,100
115008,note_on,,,,,64,0,13,,,,,6,,,38,85
115008,note_on,,,,,64,0,12,,,,,5,,,50,85
115008,note_on,,,,,64,0,15,,,,,7,,,50,100
115008,note_on,,,,,64,0,14,,,,,7,,,71,100
115136,note_off,,,,,128,0,14,,,,,7,,,71,100
115136,note_off,,,,,0,0,14,,,,,7,,,66,100
115136,note_off,,,,,128,0,13,,,,,6,,,38,100
115136,note_off,,,,,128,0,12,,,,,5,,,50,100
115136,note_off,,,,,128,0,7,,,,,0,,,83,100
115136,note_off,,,,,128,0,15,,,,,7,,,50,100
115200,note_on,,,,,64,0,13,,,,,6,,,40,85
115200,note_on,,,,,64,0,12,,,,,5,,,52,85
115200,note_on,,,,,64,0,7,,,,,0,,,84,100
115200,note_on,,,,,0,0,14,,,,,7,,,67,100
115200,note_on,,,,,64,0,14,,,,,7,,,72,100
115200,note_on,,,,,64,0,15,,,,,7,,,52,100
115292,note_off,,,,,92,0,7,,,,,0,,,84,100
115296,note_on,,,,,4,0,7,,,,,0,,,83,100
115328,note_off,,,,,128,0,14,,,,,7,,,72,100
115328,note_off,,,,,128,0,13,,,,,6,,,40,100
115328,note_off,,,,,0,0,14,,,,,7,,,67,100
115328,note_off,,,,,128,0,15,,,,,7,,,52,100
115328,note_off,,,,,128,0,12,,,,,5,,,52,100
115388,note_off,,,,,92,0,7,,,,,0,,,83,100
115392,note_on,,,,,64,0,14,,,,,7,,,72,100
115392,note_on,,,,,0,0,14,,,,,7,,,67,100
115392,note_on,,,,,64,0,15,,,,,7,,,52,100
115392,note_on,,,,,64,0,12,,,,,5,,,52,85
115392,note_on,,,,,64,0,13,,,,,6,,,40,85
115392,note_on,,,,,4,0,7,,,,,0,,,84,100
115456,note_off,,,,,64,0,7,,,,,0,,,84,100
115488,note_on,,,,,32,0,7,,,,,0,,,86,100
115520,note_off,,,,,128,0,14,,,,,7,,,72,100
115520,note_off,,,,,0,0,14,,,,,7,,,67,100
115520,note_off,,,,,128,0,15,,,,,7,,,52,100
115520,note_off,,,,,128,0,12,,,,,5,,,52,100
115520,note_off,,,,,128,0,13,,,,,6,,,40,100
115552,note_off,,,,,64,0,7,,,,,0,,,86,100
115584,note_on,,,,,64,0,14,,,,,7,,,72,100
115584,note_on,,,,,0,0,14,,,,,7,,,67,100
115584,note_on,,,,,64,0,12,,,,,5,,,52,85
115584,note_on,,,,,32,0,7,,,,,0,,,84,100
115584,note_on,,,,,64,0,13,,,,,6,,,40,85
115584,note_on,,,,,64,0,15,,,,,7,,,52,100
115648,note_off,,,,,64,0,7,,,,,0,,,84,100
115680,note_on,,,,,32,0,7,,,,,0,,,83,100
115712,note_off,,,,,128,0,12,,,,,5,,,52,100
115712,note_off,,,,,0,0,14,,,,,7,,,67,100
115712,note_off,,,,,128,0,14,,,,,7,,,72,100
115712,note_off,,,,,128,0,13,,,,,6,,,40,100
115712,note_off,,,,,128,0,15,,,,,7,,,52,100
115744,note_off,,,,,64,0,7,,,,,0,,,83,100
115776,note_on,,,,,64,0,12,,,,,5,,,54,85
115776,note_on,,,,,0,0,14,,,,,7,,,73,100
115776,note_on,,,,,64,0,14,,,,,7,,,70,100
115776,note_on,,,,,64,0,13,,,,,6,,,42,85
115776,note_on,,,,,64,0,15,,,,,7,,,54,100
115776,note_on,,,,,32,0,7,,,,,0,,,82,100
115868,note_off,,,,,92,0,7,,,,,0,,,82,100
115872,note_on,,,,,4,0,7,,,,,0,,,83,100
115904,note_off,,,,,128,0,13,,,,,6,,,42,100
115904,note_off,,,,,128,0,12,,,,,5,,,54,100
115904,note_off,,,,,128,0,15,,,,,7,,,54,100
115904,note_off,,,,,128,0,14,,,,,7,,,70,100
115904,note_off,,,,,0,0,14,,,,,7,,,73,100
115964,note_off,,,,,92,0,7,,,,,0,,,83,100
115968,note_on,,,,,64,0,13,,,,,6,,,42,85
115968,note_on,,,,,4,0,7,,,,,0,,,85,100
115968,note_on,,,,,64,0,15,,,,,7,,,54,100
115968,note_on,,,,,64,0,12,,,,,5,,,54,85
115968,note_on,,,,,0,0,14,,,,,7,,,73,100
115968,note_on,,,,,64,0,14,,,,,7,,,70,100
116032,note_off,,,,,64,0,7,,,,,0,,,85,100
116064,note_on,,,,,32,0,7,,,,,0,,,83,100
116096,note_off,,,,,128,0,15,,,,,7,,,54,100
116096,note_off,,,,,128,0,13,,,,,6,,,42,100
116096,note_off,,,,,128,0,12,,,,,5,,,54,100
116096,note_off,,,,,128,0,14,,,,,7,,,70,100
116096,note_off,,,,,0,0,14,,,,,7,,,73,100
116128,note_off,,,,,64,0,7,,,,,0,,,83,100
116160,note_on,,,,,64,0,14,,,,,7,,,67,100
116160,note_on,,,,,64,0,13,,,,,6,,,40,85
116160,note_on,,,,,64,0,12,,,,,5,,,52,85
116160,note_on,,,,,64,0,15,,,,,7,,,52,100
116160,note_on,,,,,32,0,7,,,,,0,,,85,100
116160,note_on,,,,,0,0,14,,,,,7,,,71,100
116224,note_off,,,,,64,0,7,,,,,0,,,85,100
116256,note_on,,,,,32,0,7,,,,,0,,,82,100
116288,note_off,,,,,128,0,13,,,,,6,,,40,100
116288,note_off,,,,,128,0,14,,,,,7,,,67,100
116288,note_off,,,,,128,0,15,,,,,7,,,52,100
116288,note_off,,,,,0,0,14,,,,,7,,,71,100
116288,note_off,,,,,128,0,12,,,,,5,,,52,100
116320,note_off,,,,,64,0,7,,,,,0,,,82,100
116352,note_on,,,,,64,0,12,,,,,5,,,50,85
116352,note_on,,,,,64,0,14,,,,,7,,,71,100
116352,note_on,,,,,0,0,14,,,,,7,,,66,100
116352,note_on,,,,,32,0,7,,,,,0,,,83,90
116352,note_on,,,,,64,0,15,,,,,7,,,50,100
116352,note_on,,,,,64,0,13,,,,,6,,,38,85
116444,note_off,,,,,92,0,7,,,,,0,,,83,100
116448,note_on,,,,,4,0,7,,,,,0,,,85,90
116480,note_off,,,,,128,0,12,,,,,5,,,50,100
116480,note_off,,,,,0,0,14,,,,,7,,,66,100
116480,note_off,,,,,128,0,14,,,,,7,,,71,100
116480,note_off,,,,,128,0,15,,,,,7,,,50,100
116480,note_off,,,,,128,0,13,,,,,6,,,38,100
116540,note_off,,,,,92,0,7,,,,,0,,,85,100
116544,note_on,,,,,64,0,13,,,,,6,,,38,85
116544,note_on,,,,,64,0,12,,,,,5,,,50,85
116544,note_on,,,,,4,0,7,,,,,0,,,86,90
116544,note_on,,,,,64,0,15,,,,,7,,,50,100
116544,note_on,,,,,64,0,14,,,,,7,,,71,100
116544,note_on,,,,,0,0,14,,,,,7,,,66,100
116608,note_off,,,,,64,0,7,,,,,0,,,86,100
116640,note_on,,,,,32,0,7,,,,,0,,,85,90
116672,note_off,,,,,128,0,12,,,,,5,,,50,100
116672,note_off,,,,,128,0,14,,,,,7,,,71,100
116672,note_off,,,,,0,0,14,,,,,7,,,66,100
116672,note_off,,,,,128,0,13,,,,,6,,,38,100
116672,note_off,,,,,128,0,15,,,,,7,,,50,100
116704,note_off,,,,,64,0,7,,,,,0,,,85,100
116736,note_on,,,,,32,0,7,,,,,0,,,86,90
116736,note_on,,,,,64,0,14,,,,,7,,,71,100
116736,note_on,,,,,64,0,13,,,,,6,,,38,85
116736,note_on,,,,,0,0,14,,,,,7,,,66,100
116736,note_on,,,,,64,0,15,,,,,7,,,50,100
116736,note_on,,,,,64,0,12,,,,,5,,,50,85
116800,note_off,,,,,64,0,7,,,,,0,,,86,100
116832,note_on,,,,,32,0,7,,,,,0,,,83,90
116864,note_off,,,,,128,0,13,,,,,6,,,38,100
116864,note_off,,,,,128,0,15,,,,,7,,,50,100
116864,note_off,,,,,128,0,14,,,,,7,,,71,100
116864,note_off,,,,,0,0,14,,,,,7,,,66,100
116864,note_off,,,,,128,0,12,,,,,5,,,50,100
116896,note_off,,,,,64,0,7,,,,,0,,,83,100
116928,note_on,,,,,64,0,12,,,,,5,,,52,85
116928,note_on,,,,,64,0,13,,,,,6,,,40,85
116928,note_on,,,,,32,0,7,,,,,0,,,84,90
116928,note_on,,,,,64,0,14,,,,,7,,,72,100
116928,note_on,,,,,0,0,14,,,,,7,,,67,100
116928,note_on,,,,,64,0,15,,,,,7,,,52,100
117020,note_off,,,,,92,0,7,,,,,0,,,84,100
117024,note_on,,,,,4,0,7,,,,,0,,,83,90
117056,note_off,,,,,128,0,15,,,,,7,,,52,100
117056,note_off,,,,,128,0,12,,,,,5,,,52,100
117056,note_off,,,,,128,0,13,,,,,6,,,40,100
117056,note_off,,,,,128,0,14,,,,,7,,,72,100
117056,note_off,,,,,0,0,14,,,,,7,,,67,100
117116,note_off,,,,,92,0,7,,,,,0,,,83,100
117120,note_on,,,,,4,0,7,,,,,0,,,84,90
117120,note_on,,,,,64,0,13,,,,,6,,,40,85
117120,note_on,,,,,64,0,15,,,,,7,,,52,100
117120,note_on,,,,,64,0,14,,,,,7,,,72,100
117120,note_on,,,,,64,0,12,,,,,5,,,52,85
117120,note_on,,,,,0,0,14,,,,,7,,,67,100
117184,note_off,,,,,64,0,7,,,,,0,,,84,100
117216,note_on,,,,,32,0,7,,,,,0,,,86,90
117248,note_off,,,,,128,0,14,,,,,7,,,72,100
117248,note_off,,,,,128,0,15,,,,,7,,,52,100
117248,note_off,,,,,128,0,12,,,,,5,,,52,100
117248,note_off,,,,,128,0,13,,,,,6,,,40,100
117248,note_off,,,,,0,0,14,,,,,7,,,67,100
117280,note_off,,,,,64,0,7,,,,,0,,,86,100
117312,note_on,,,,,0,0,14,,,,,7,,,67,100
117312,note_on,,,,,32,0,7,,,,,0,,,84,90
117312,note_on,,,,,64,0,14,,,,,7,,,72,100
117312,note_on,,,,,64,0,12,,,,,5,,,52,85
117312,note_on,,,,,64,0,15,,,,,7,,,52,100
117312,note_on,,,,,64,0,13,,,,,6,,,40,85
117376,note_off,,,,,64,0,7,,,,,0,,,84,100
117408,note_on,,,,,32,0,7,,,,,0,,,83,90
117440,note_off,,,,,128,0,13,,,,,6,,,40,100
117440,note_off,,,,,128,0,12,,,,,5,,,52,100
117440,note_off,,,,,128,0,15,,,,,7,,,52,100
117440,note_off,,,,,128,0,14,,,,,7,,,72,100
117440,note_off,,,,,0,0,14,,,,,7,,,67,100
117472,note_off,,,,,64,0,7,,,,,0,,,83,100
117504,note_on,,,,,0,0,14,,,,,7,,,70,100
117504,note_on,,,,,64,0,13,,,,,6,,,42,85
117504,note_on,,,,,64,0,12,,,,,5,,,54,85
117504,note_on,,,,,64,0,15,,,,,7,,,54,100
117504,note_on,,,,,64,0,14,,,,,7,,,73,100
117504,note_on,,,,,32,0,7,,,,,0,,,82,100
117596,note_off,,,,,92,0,7,,,,,0,,,82,100
117600,note_on,,,,,4,0,7,,,,,0,,,83,100
117632,note_off,,,,,128,0,14,,,,,7,,,73,100
117632,note_off,,,,,128,0,13,,,,,6,,,42,100
117632,note_off,,,,,0,0,14,,,,,7,,,70,100
117632,note_off,,,,,128,0,15,,,,,7,,,54,100
117632,note_off,,,,,128,0,12,,,,,5,,,54,100
117692,note_off,,,,,92,0,7,,,,,0,,,83,100
117696,note_on,,,,,0,0,14,,,,,7,,,70,100
117696,note_on,,,,,64,0,14,,,,,7,,,73,100
117696,note_on,,,,,4,0,7,,,,,0,,,85,100
117696,note_on,,,,,64,0,12,,,,,5,,,54,85
117696,note_on,,,,,64,0,13,,,,,6,,,42,85
117696,note_on,,,,,64,0,15,,,,,7,,,54,100
117760,note_off,,,,,64,0,7,,,,,0,,,85,100
117792,note_on,,,,,32,0,7,,,,,0,,,83,100
117824,note_off,,,,,0,0,14,,,,,7,,,70,100
117824,note_off,,,,,128,0,14,,,,,7,,,73,100
117824,note_off,,,,,128,0,15,,,,,7,,,54,100
117824,note_off,,,,,128,0,13,,,,,6,,,42,100
117824,note_off,,,,,128,0,12,,,,,5,,,54,100
117856,note_off,,,,,64,0,7,,,,,0,,,83,100
117888,note_on,,,,,64,0,12,,,,,5,,,52,85
117888,note_on,,,,,0,0,14,,,,,7,,,68,100
117888,note_on,,,,,64,0,14,,,,,7,,,73,100
117888,note_on,,,,,64,0,15,,,,,7,,,52,100
117888,note_on,,,,,32,0,7,,,,,0,,,85,100
117888,note_on,,,,,64,0,13,,,,,6,,,40,85
117952,note_off,,,,,64,0,7,,,,,0,,,85,100
117984,note_on,,,,,32,0,7,,,,,0,,,82,100
118016,note_off,,,,,128,0,15,,,,,7,,,52,100
118016,note_off,,,,,128,0,12,,,,,5,,,52,100
118016,note_off,,,,,128,0,14,,,,,7,,,73,100
118016,note_off,,,,,0,0,14,,,,,7,,,68,100
118016,note_off,,,,,128,0,13,,,,,6,,,40,100
118048,note_off,,,,,64,0,7,,,,,0,,,82,100
118080,note_on,,,,,32,0,7,,,,,0,,,83,100
118080,note_on,,,,,64,0,14,,,,,7,,,71,100
118080,note_on,,,,,64,0,12,,,,,5,,,50,85
118080,note_on,,,,,0,0,14,,,,,7,,,66,100
118080,note_on,,,,,64,0,13,,,,,6,,,38,85
118080,note_on,,,,,64,0,15,,,,,7,,,50,100
118172,note_off,,,,,92,0,7,,,,,0,,,83,100
118176,note_on,,,,,4,0,7,,,,,0,,,82,100
118208,note_off,,,,,128,0,12,,,,,5,,,50,100
118208,note_off,,,,,128,0,13,,,,,6,,,38,100
118208,note_off,,,,,128,0,15,,,,,7,,,50,100
118208,note_off,,,,,0,0,14,,,,,7,,,66,100
118208,note_off,,,,,128,0,14,,,,,7,,,71,100
118268,note_off,,,,,92,0,7,,,,,0,,,82,100
118272,note_on,,,,,64,0,15,,,,,7,,,50,100
118272,note_on,,,,,64,0,12,,,,,5,,,50,85
118272,note_on,,,,,0,0,14,,,,,7,,,66,100
118272,note_on,,,,,64,0,14,,,,,7,,,71,100
118272,note_on,,,,,4,0,7,,,,,0,,,83,100
118272,note_on,,,,,64,0,13,,,,,6,,,38,85
118336,note_off,,,,,64,0,7,,,,,0,,,83,100
118368,note_on,,,,,32,0,7,,,,,0,,,86,100
118400,note_off,,,,,128,0,15,,,,,7,,,50,100
118400,note_off,,,,,128,0,13,,,,,6,,,38,100
118400,note_off,,,,,128,0,14,,,,,7,,,71,100
118400,note_off,,,,,0,0,14,,,,,7,,,66,100
118400,note_off,,,,,128,0,12,,,,,5,,,50,100
118432,note_off,,,,,64,0,7,,,,,0,,,86,100
118464,note_on,,,,,64,0,13,,,,,6,,,40,85
118464,note_on,,,,,0,0,14,,,,,7,,,74,100
118464,note_on,,,,,64,0,12,,,,,5,,,52,85
118464,note_on,,,,,32,0,7,,,,,0,,,85,100
118464,note_on,,,,,64,0,14,,,,,7,,,71,100
118464,note_on,,,,,64,0,15,,,,,7,,,52,100
118528,note_off,,,,,64,0,7,,,,,0,,,85,100
118560,note_on,,,,,32,0,7,,,,,0,,,83,100
118592,note_off,,,,,128,0,13,,,,,6,,,40,100
118592,note_off,,,,,128,0,14,,,,,7,,,71,100
118592,note_off,,,,,128,0,12,,,,,5,,,52,100
118592,note_off,,,,,0,0,14,,,,,7,,,74,100
118592,note_off,,,,,128,0,15,,,,,7,,,52,100
118624,note_off,,,,,64,0,7,,,,,0,,,83,100
118656,note_on,,,,,64,0,12,,,,,5,,,54,85
118656,note_on,,,,,64,0,15,,,,,7,,,54,100
118656,note_on,,,,,64,0,14,,,,,7,,,70,100
118656,note_on,,,,,32,0,7,,,,,0,,,82,100
118656,note_on,,,,,64,0,13,,,,,6,,,42,85
118656,note_on,,,,,0,0,14,,,,,7,,,73,100
118720,note_off,,,,,64,0,7,,,,,0,,,82,100
118752,note_on,,,,,32,0,7,,,,,0,,,80,100
118784,note_off,,,,,128,0,13,,,,,6,,,42,100
118784,note_off,,,,,0,0,14,,,,,7,,,73,100
118784,note_off,,,,,128,0,15,,,,,7,,,54,100
118784,note_off,,,,,128,0,12,,,,,5,,,54,100
118784,note_off,,,,,128,0,14,,,,,7,,,70,100
118816,note_off,,,,,64,0,7,,,,,0,,,80,100
118848,note_on,,,,,64,0,12,,,,,5,,,54,85
118848,note_on,,,,,64,0,15,,,,,7,,,54,100
118848,note_on,,,,,0,0,14,,,,,7,,,73,100
118848,note_on,,,,,64,0,14,,,,,7,,,70,100
118848,note_on,,,,,64,0,13,,,,,6,,,42,85
118848,note_on,,,,,32,0,7,,,,,0,,,78,100
118976,note_off,,,,,128,0,14,,,,,7,,,70,100
118976,note_off,,,,,128,0,13,,,,,6,,,42,100
118976,note_off,,,,,128,0,15,,,,,7,,,54,100
118976,note_off,,,,,0,0,14,,,,,7,,,73,100
118976,note_off,,,,,128,0,7,,,,,0,,,78,100
118976,note_off,,,,,128,0,12,,,,,5,,,54,100
119040,note_on,,,,,64,0,14,,,,,7,,,67,100
119040,note_on,,,,,64,0,15,,,,,7,,,52,100
119040,note_on,,,,,64,0,12,,,,,5,,,52,85
119040,note_on,,,,,64,0,13,,,,,6,,,40,85
119168,note_off,,,,,128,0,14,,,,,7,,,67,100
119168,note_off,,,,,128,0,15,,,,,7,,,52,100
119168,note_off,,,,,128,0,13,,,,,6,,,40,100
119168,note_off,,,,,128,0,12,,,,,5,,,52,100
119232,note_on,,,,,64,0,14,,,,,7,,,66,100
119232,note_on,,,,,0,0,14,,,,,7,,,69,100
119232,note_on,,,,,6656,0,8,,,,,1,,,78,85
119232,note_on,,,,,64,0,15,,,,,7,,,50,100
119232,note_on,,,,,64,0,13,,,,,6,,,38,85
119232,note_on,,,,,6656,0,11,,,,,4,,,74,60
119232,note_on,,,,,64,0,12,,,,,5,,,50,85
119232,note_on,,,,,256,0,7,,,,,0,,,86,85
119296,note_off,,,,,64,0,7,,,,,0,,,86,100
119328,note_on,,,,,32,0,7,,,,,0,,,95,85
119360,note_off,,,,,128,0,8,,,,,1,,,78,100
119360,note_off,,,,,128,0,11,,,,,4,,,74,100
119392,note_off,,,,,64,0,7,,,,,0,,,95,100
119424,note_on,,,,,64,0,8,,,,,1,,,83,85
119424,note_on,,,,,32,0,7,,,,,0,,,86,85
119424,note_on,,,,,64,0,11,,,,,4,,,74,60
119488,note_off,,,,,64,0,7,,,,,0,,,86,100
119488,note_off,,,,,256,0,14,,,,,7,,,66,100
119488,note_off,,,,,0,0,14,,,,,7,,,69,100
119488,note_off,,,,,256,0,12,,,,,5,,,50,100
119488,note_off,,,,,256,0,15,,,,,7,,,50,100
119488,note_off,,,,,256,0,13,,,,,6,,,38,100
119520,note_on,,,,,6944,0,10,,,,,3,,,74,85
119520,note_on,,,,,32,0,7,,,,,0,,,95,85
119552,note_off,,,,,128,0,11,,,,,4,,,74,100
119552,note_off,,,,,128,0,8,,,,,1,,,83,100
119584,note_off,,,,,64,0,7,,,,,0,,,95,100
119584,note_off,,,,,64,0,10,,,,,3,,,74,100
119616,note_on,,,,,64,0,11,,,,,4,,,74,60
119616,note_on,,,,,32,0,7,,,,,0,,,86,85
119616,note_on,,,,,32,0,10,,,,,3,,,78,85
119616,note_on,,,,,7040,0,9,,,,,2,,,83,85
119680,note_off,,,,,64,0,10,,,,,3,,,78,100
119680,note_off,,,,,64,0,7,,,,,0,,,86,100
119712,note_on,,,,,32,0,10,,,,,3,,,74,85
119712,note_on,,,,,32,0,7,,,,,0,,,95,85
119744,note_off,,,,,128,0,9,,,,,2,,,83,100
119744,note_off,,,,,128,0,11,,,,,4,,,74,100
119776,note_off,,,,,64,0,10,,,,,3,,,74,100
119776,note_off,,,,,64,0,7,,,,,0,,,95,100
119808,note_on,,,,,256,0,8,,,,,1,,,83,85
119808,note_on,,,,,32,0,10,,,,,3,,,83,85
119808,note_on,,,,,0,0,11,,,,,4,,,76,60
119808,note_on,,,,,32,0,7,,,,,0,,,85,85
119808,note_on,,,,,64,0,11,,,,,4,,,73,60
119808,note_on,,,,,64,0,9,,,,,2,,,79,85
119872,note_off,,,,,64,0,7,,,,,0,,,85,100
119904,note_on,,,,,32,0,7,,,,,0,,,95,85
119936,note_off,,,,,0,0,11,,,,,4,,,76,100
119936,note_off,,,,,128,0,11,,,,,4,,,73,100
119968,note_off,,,,,64,0,7,,,,,0,,,95,100
119996,note_off,,,,,188,0,9,,,,,2,,,79,100
119996,note_off,,,,,188,0,8,,,,,1,,,83,100
120000,note_on,,,,,4,0,8,,,,,1,,,79,85
120000,note_on,,,,,0,0,11,,,,,4,,,76,60
120000,note_on,,,,,32,0,7,,,,,0,,,85,85
120000,note_on,,,,,4,0,9,,,,,2,,,76,85
120000,note_on,,,,,64,0,11,,,,,4,,,73,60
120064,note_off,,,,,64,0,7,,,,,0,,,85,100
120096,note_on,,,,,32,0,7,,,,,0,,,95,85
120128,note_off,,,,,128,0,8,,,,,1,,,79,100
120128,note_off,,,,,0,0,11,,,,,4,,,76,100
120128,note_off,,,,,128,0,11,,,,,4,,,73,100
120128,note_off,,,,,128,0,9,,,,,2,,,76,100
120160,note_off,,,,,64,0,7,,,,,0,,,95,100
120192,note_on,,,,,32,0,7,,,,,0,,,85,85
120192,note_on,,,,,0,0,11,,,,,4,,,76,60
120192,note_off,,,,,384,0,10,,,,,3,,,83,100
120192,note_on,,,,,64,0,8,,,,,1,,,76,85
120192,note_on,,,,,64,0,9,,,,,2,,,73,85
120192,note_on,,,,,64,0,11,,,,,4,,,73,60
120256,note_off,,,,,64,0,7,,,,,0,,,85,100
120288,note_on,,,,,32,0,7,,,,,0,,,95,85
120320,note_off,,,,,128,0,11,,,,,4,,,73,100
120320,note_off,,,,,0,0,11,,,,,4,,,76,100
120320,note_off,,,,,128,0,9,,,,,2,,,73,100
120320,note_off,,,,,128,0,8,,,,,1,,,76,100
120352,note_off,,,,,64,0,7,,,,,0,,,95,100
120384,note_on,,,,,64,0,11,,,,,4,,,73,60
120384,note_on,,,,,64,0,9,,,,,2,,,73,85
120384,note_on,,,,,0,0,11,,,,,4,,,76,60
120384,note_on,,,,,64,0,8,,,,,1,,,76,85
120384,note_on,,,,,32,0,7,,,,,0,,,85,85
120448,note_off,,,,,64,0,7,,,,,0,,,85,100
120480,note_on,,,,,32,0,7,,,,,0,,,93,85
120512,note_off,,,,,128,0,8,,,,,1,,,76,100
120512,note_off,,,,,0,0,11,,,,,4,,,76,100
120512,note_off,,,,,128,0,11,,,,,4,,,73,100
120544,note_off,,,,,64,0,7,,,,,0,,,93,100
120576,note_on,,,,,32,0,7,,,,,0,,,85,85
120576,note_on,,,,,0,0,11,,,,,4,,,76,60
120576,note_on,,,,,64,0,11,,,,,4,,,73,60
120576,note_on,,,,,64,0,8,,,,,1,,,81,85
120640,note_off,,,,,256,0,9,,,,,2,,,73,100
120640,note_off,,,,,64,0,7,,,,,0,,,85,100
120672,note_on,,,,,480,0,10,,,,,3,,,73,85
120672,note_on,,,,,32,0,7,,,,,0,,,93,85
120704,note_off,,,,,128,0,11,,,,,4,,,73,100
120704,note_off,,,,,0,0,11,,,,,4,,,76,100
120704,note_off,,,,,128,0,8,,,,,1,,,81,100
120736,note_off,,,,,64,0,7,,,,,0,,,93,100
120736,note_off,,,,,64,0,10,,,,,3,,,73,100
120768,note_on,,,,,32,0,7,,,,,0,,,85,85
120768,note_on,,,,,0,0,11,,,,,4,,,76,60
120768,note_on,,,,,64,0,11,,,,,4,,,73,60
120768,note_on,,,,,32,0,10,,,,,3,,,76,85
120768,note_on,,,,,128,0,9,,,,,2,,,81,85
120832,note_off,,,,,64,0,10,,,,,3,,,76,100
120832,note_off,,,,,64,0,7,,,,,0,,,85,100
120864,note_on,,,,,32,0,7,,,,,0,,,93,85
120864,note_on,,,,,32,0,10,,,,,3,,,73,85
120896,note_off,,,,,128,0,11,,,,,4,,,73,100
120896,note_off,,,,,128,0,9,,,,,2,,,81,100
120896,note_off,,,,,0,0,11,,,,,4,,,76,100
120928,note_off,,,,,64,0,7,,,,,0,,,93,100
120928,note_off,,,,,64,0,10,,,,,3,,,73,100
120960,note_on,,,,,64,0,11,,,,,4,,,71,60
120960,note_on,,,,,0,0,11,,,,,4,,,74,60
120960,note_on,,,,,256,0,8,,,,,1,,,81,85
120960,note_on,,,,,64,0,9,,,,,2,,,78,85
120960,note_on,,,,,32,0,7,,,,,0,,,83,85
120960,note_on,,,,,32,0,10,,,,,3,,,81,85
121024,note_off,,,,,64,0,7,,,,,0,,,83,100
121056,note_on,,,,,32,0,7,,,,,0,,,93,85
121088,note_off,,,,,0,0,11,,,,,4,,,74,100
121088,note_off,,,,,128,0,11,,,,,4,,,71,100
121120,note_off,,,,,64,0,7,,,,,0,,,93,100
121148,note_off,,,,,188,0,8,,,,,1,,,81,100
121148,note_off,,,,,188,0,9,,,,,2,,,78,100
121152,note_on,,,,,4,0,9,,,,,2,,,74,85
121152,note_on,,,,,32,0,7,,,,,0,,,83,85
121152,note_on,,,,,4,0,8,,,,,1,,,78,85
121152,note_on,,,,,64,0,11,,,,,4,,,71,60
121152,note_on,,,,,0,0,11,,,,,4,,,74,60
121216,note_off,,,,,64,0,7,,,,,0,,,83,100
121248,note_on,,,,,32,0,7,,,,,0,,,93,85
121280,note_off,,,,,128,0,8,,,,,1,,,78,100
121280,note_off,,,,,128,0,11,,,,,4,,,71,100
121280,note_off,,,,,0,0,11,,,,,4,,,74,100
121280,note_off,,,,,128,0,9,,,,,2,,,74,100
121312,note_off,,,,,64,0,7,,,,,0,,,93,100
121344,note_on,,,,,32,0,7,,,,,0,,,83,85
121344,note_on,,,,,64,0,8,,,,,1,,,74,85
121344,note_on,,,,,64,0,11,,,,,4,,,71,60
121344,note_off,,,,,384,0,10,,,,,3,,,81,100
121344,note_on,,,,,0,0,11,,,,,4,,,74,60
121344,note_on,,,,,64,0,9,,,,,2,,,71,85
121408,note_off,,,,,64,0,7,,,,,0,,,83,100
121440,note_on,,,,,32,0,7,,,,,0,,,93,85
121472,note_off,,,,,128,0,8,,,,,1,,,74,100
121472,note_off,,,,,128,0,11,,,,,4,,,71,100
121472,note_off,,,,,0,0,11,,,,,4,,,74,100
121472,note_off,,,,,128,0,9,,,,,2,,,71,100
121504,note_off,,,,,64,0,7,,,,,0,,,93,100
121536,note_on,,,,,32,0,7,,,,,0,,,83,85
121536,note_on,,,,,64,0,8,,,,,1,,,74,85
121536,note_on,,,,,64,0,9,,,,,2,,,71,85
121536,note_on,,,,,64,0,11,,,,,4,,,71,60
121536,note_on,,,,,0,0,11,,,,,4,,,74,60
121600,note_off,,,,,64,0,7,,,,,0,,,83,100
121632,note_on,,,,,32,0,7,,,,,0,,,91,85
121664,note_off,,,,,128,0,11,,,,,4,,,71,100
121664,note_off,,,,,128,0,8,,,,,1,,,74,100
121664,note_off,,,,,0,0,11,,,,,4,,,74,100
121696,note_off,,,,,64,0,7,,,,,0,,,91,100
121728,note_on,,,,,64,0,8,,,,,1,,,79,85
121728,note_on,,,,,32,0,7,,,,,0,,,83,85
121728,note_on,,,,,0,0,11,,,,,4,,,74,60
121728,note_on,,,,,64,0,11,,,,,4,,,71,60
121792,note_off,,,,,64,0,7,,,,,0,,,83,100
121792,note_off,,,,,256,0,9,,,,,2,,,71,100
121824,note_on,,,,,32,0,7,,,,,0,,,91,85
121824,note_on,,,,,480,0,10,,,,,3,,,71,85
121856,note_off,,,,,0,0,11,,,,,4,,,74,100
121856,note_off,,,,,128,0,11,,,,,4,,,71,100
121856,note_off,,,,,128,0,8,,,,,1,,,79,100
121888,note_off,,,,,64,0,10,,,,,3,,,71,100
121888,note_off,,,,,64,0,7,,,,,0,,,91,100
121920,note_on,,,,,32,0,10,,,,,3,,,74,85
121920,note_on,,,,,128,0,9,,,,,2,,,79,85
121920,note_on,,,,,32,0,7,,,,,0,,,83,85
121920,note_on,,,,,0,0,11,,,,,4,,,74,60
121920,note_on,,,,,64,0,11,,,,,4,,,71,60
121984,note_off,,,,,64,0,7,,,,,0,,,83,100
121984,note_off,,,,,64,0,10,,,,,3,,,74,100
122016,note_on,,,,,32,0,7,,,,,0,,,91,85
122016,note_on,,,,,32,0,10,,,,,3,,,71,85
122048,note_off,,,,,128,0,9,,,,,2,,,79,100
122048,note_off,,,,,0,0,11,,,,,4,,,74,100
122048,note_off,,,,,128,0,11,,,,,4,,,71,100
122080,note_off,,,,,64,0,7,,,,,0,,,91,100
122080,note_off,,,,,64,0,10,,,,,3,,,71,100
122112,note_on,,,,,32,0,7,,,,,0,,,81,85
122112,note_on,,,,,0,0,11,,,,,4,,,73,60
122112,note_on,,,,,64,0,11,,,,,4,,,69,60
122112,note_on,,,,,64,0,9,,,,,2,,,76,85
122112,note_on,,,,,32,0,10,,,,,3,,,79,85
122112,note_on,,,,,256,0,8,,,,,1,,,79,85
122176,note_off,,,,,64,0,7,,,,,0,,,81,100
122208,note_on,,,,,32,0,7,,,,,0,,,91,85
122240,note_off,,,,,128,0,11,,,,,4,,,69,100
122240,note_off,,,,,0,0,11,,,,,4,,,73,100
122272,note_off,,,,,64,0,7,,,,,0,,,91,100
122300,note_off,,,,,188,0,9,,,,,2,,,76,100
122300,note_off,,,,,188,0,8,,,,,1,,,79,100
122304,note_on,,,,,4,0,8,,,,,1,,,76,85
122304,note_on,,,,,32,0,7,,,,,0,,,81,85
122304,note_on,,,,,4,0,9,,,,,2,,,73,85
122304,note_on,,,,,0,0,11,,,,,4,,,73,60
122304,note_on,,,,,64,0,11,,,,,4,,,69,60
122368,note_off,,,,,64,0,7,,,,,0,,,81,100
122400,note_on,,,,,32,0,7,,,,,0,,,91,85
122432,note_off,,,,,128,0,8,,,,,1,,,76,100
122432,note_off,,,,,0,0,11,,,,,4,,,73,100
122432,note_off,,,,,128,0,11,,,,,4,,,69,100
122432,note_off,,,,,128,0,9,,,,,2,,,73,100
122464,note_off,,,,,64,0,7,,,,,0,,,91,100
122496,note_on,,,,,64,0,11,,,,,4,,,69,60
122496,note_on,,,,,0,0,11,,,,,4,,,73,60
122496,note_on,,,,,64,0,8,,,,,1,,,73,85
122496,note_on,,,,,64,0,9,,,,,2,,,69,85
122496,note_on,,,,,32,0,7,,,,,0,,,81,85
122496,note_off,,,,,384,0,10,,,,,3,,,79,100
122560,note_off,,,,,64,0,7,,,,,0,,,81,100
122592,note_on,,,,,32,0,7,,,,,0,,,91,85
122624,note_off,,,,,128,0,9,,,,,2,,,69,100
122624,note_off,,,,,128,0,11,,,,,4,,,69,100
122624,note_off,,,,,0,0,11,,,,,4,,,73,100
122624,note_off,,,,,128,0,8,,,,,1,,,73,100
122656,note_off,,,,,64,0,7,,,,,0,,,91,100
122688,note_on,,,,,64,0,8,,,,,1,,,73,85
122688,note_on,,,,,64,0,9,,,,,2,,,69,85
122688,note_on,,,,,0,0,11,,,,,4,,,73,60
122688,note_on,,,,,64,0,11,,,,,4,,,69,60
122688,note_on,,,,,32,0,7,,,,,0,,,81,85
122752,note_off,,,,,64,0,7,,,,,0,,,81,100
122784,note_on,,,,,32,0,7,,,,,0,,,90,85
122816,note_off,,,,,0,0,11,,,,,4,,,73,100
122816,note_off,,,,,128,0,11,,,,,4,,,69,100
122816,note_off,,,,,128,0,8,,,,,1,,,73,100
122848,note_off,,,,,64,0,7,,,,,0,,,90,100
122880,note_on,,,,,32,0,7,,,,,0,,,81,85
122880,note_on,,,,,0,0,11,,,,,4,,,73,60
122880,note_on,,,,,64,0,8,,,,,1,,,78,85
122880,note_on,,,,,64,0,11,,,,,4,,,69,60
122944,note_off,,,,,64,0,7,,,,,0,,,81,100
122944,note_off,,,,,256,0,9,,,,,2,,,69,100
122976,note_on,,,,,32,0,7,,,,,0,,,90,85
122976,note_on,,,,,480,0,10,,,,,3,,,69,85
123008,note_off,,,,,128,0,8,,,,,1,,,78,100
123008,note_off,,,,,128,0,11,,,,,4,,,69,100
123008,note_off,,,,,0,0,11,,,,,4,,,73,100
123040,note_off,,,,,64,0,10,,,,,3,,,69,100
123040,note_off,,,,,64,0,7,,,,,0,,,90,100
123072,note_on,,,,,64,0,11,,,,,4,,,69,60
123072,note_on,,,,,0,0,11,,,,,4,,,73,60
123072,note_on,,,,,128,0,9,,,,,2,,,78,85
123072,note_on,,,,,32,0,10,,,,,3,,,73,85
123072,note_on,,,,,32,0,7,,,,,0,,,81,85
123136,note_off,,,,,64,0,10,,,,,3,,,73,100
123136,note_off,,,,,64,0,7,,,,,0,,,81,100
123168,note_on,,,,,32,0,7,,,,,0,,,90,85
123168,note_on,,,,,32,0,10,,,,,3,,,69,85
123200,note_off,,,,,128,0,9,,,,,2,,,78,100
123200,note_off,,,,,0,0,11,,,,,4,,,73,100
123200,note_off,,,,,128,0,11,,,,,4,,,69,100
123232,note_off,,,,,64,0,10,,,,,3,,,69,100
123232,note_off,,,,,64,0,7,,,,,0,,,90,100
123264,note_on,,,,,32,0,10,,,,,3,,,78,85
123264,note_on,,,,,64,0,9,,,,,2,,,74,85
123264,note_on,,,,,0,0,11,,,,,4,,,71,60
123264,note_on,,,,,64,0,11,,,,,4,,,67,60
123264,note_on,,,,,256,0,8,,,,,1,,,78,85
123264,note_on,,,,,32,0,7,,,,,0,,,79,85
123328,note_off,,,,,64,0,7,,,,,0,,,79,100
123360,note_on,,,,,32,0,7,,,,,0,,,90,85
123392,note_off,,,,,0,0,11,,,,,4,,,71,100
123392,note_off,,,,,128,0,11,,,,,4,,,67,100
123424,note_off,,,,,64,0,7,,,,,0,,,90,100
123452,note_off,,,,,188,0,9,,,,,2,,,74,100
123452,note_off,,,,,188,0,8,,,,,1,,,78,100
123456,note_on,,,,,32,0,7,,,,,0,,,79,85
123456,note_on,,,,,4,0,9,,,,,2,,,71,85
123456,note_on,,,,,4,0,8,,,,,1,,,74,85
123456,note_on,,,,,64,0,11,,,,,4,,,67,60
123456,note_on,,,,,0,0,11,,,,,4,,,71,60
123520,note_off,,,,,64,0,7,,,,,0,,,79,100
123552,note_on,,,,,32,0,7,,,,,0,,,90,85
123584,note_off,,,,,128,0,8,,,,,1,,,74,100
123584,note_off,,,,,128,0,9,,,,,2,,,71,100
123584,note_off,,,,,128,0,11,,,,,4,,,67,100
123584,note_off,,,,,0,0,11,,,,,4,,,71,100
123616,note_off,,,,,64,0,7,,,,,0,,,90,100
123648,note_on,,,,,64,0,8,,,,,1,,,71,85
123648,note_on,,,,,0,0,11,,,,,4,,,71,60
123648,note_on,,,,,32,0,7,,,,,0,,,79,85
123648,note_on,,,,,64,0,9,,,,,2,,,67,85
123648,note_on,,,,,64,0,11,,,,,4,,,67,60
123648,note_off,,,,,384,0,10,,,,,3,,,78,100
123712,note_off,,,,,64,0,7,,,,,0,,,79,100
123744,note_on,,,,,32,0,7,,,,,0,,,90,85
123776,note_off,,,,,0,0,11,,,,,4,,,71,100
123776,note_off,,,,,128,0,8,,,,,1,,,71,100
123776,note_off,,,,,128,0,11,,,,,4,,,67,100
123776,note_off,,,,,128,0,9,,,,,2,,,67,100
123808,note_off,,,,,64,0,7,,,,,0,,,90,100
123840,note_on,,,,,0,0,11,,,,,4,,,71,60
123840,note_on,,,,,64,0,8,,,,,1,,,71,85
123840,note_on,,,,,64,0,9,,,,,2,,,67,85
123840,note_on,,,,,32,0,7,,,,,0,,,79,85
123840,note_on,,,,,64,0,11,,,,,4,,,67,60
123904,note_off,,,,,64,0,7,,,,,0,,,79,100
123936,note_on,,,,,32,0,7,,,,,0,,,88,85
123968,note_off,,,,,128,0,8,,,,,1,,,71,100
123968,note_off,,,,,0,0,11,,,,,4,,,71,100
123968,note_off,,,,,128,0,11,,,,,4,,,67,100
124000,note_off,,,,,64,0,7,,,,,0,,,88,100
124032,note_on,,,,,32,0,7,,,,,0,,,79,85
124032,note_on,,,,,64,0,11,,,,,4,,,67,60
124032,note_on,,,,,0,0,11,,,,,4,,,71,60
124032,note_on,,,,,64,0,8,,,,,1,,,76,85
124096,note_off,,,,,64,0,7,,,,,0,,,79,100
124096,note_off,,,,,256,0,9,,,,,2,,,67,100
124128,note_on,,,,,32,0,7,,,,,0,,,88,85
124128,note_on,,,,,480,0,10,,,,,3,,,67,85
124160,note_off,,,,,128,0,11,,,,,4,,,67,100
124160,note_off,,,,,0,0,11,,,,,4,,,71,100
124160,note_off,,,,,128,0,8,,,,,1,,,76,100
124192,note_off,,,,,64,0,10,,,,,3,,,67,100
124192,note_off,,,,,64,0,7,,,,,0,,,88,100
124224,note_on,,,,,32,0,10,,,,,3,,,71,85
124224,note_on,,,,,0,0,11,,,,,4,,,71,60
124224,note_on,,,,,64,0,11,,,,,4,,,67,60
124224,note_on,,,,,128,0,9,,,,,2,,,76,85
124224,note_on,,,,,32,0,7,,,,,0,,,79,85
124288,note_off,,,,,64,0,10,,,,,3,,,71,100
124288,note_off,,,,,64,0,7,,,,,0,,,79,100
124320,note_on,,,,,32,0,10,,,,,3,,,67,85
124320,note_on,,,,,32,0,7,,,,,0,,,88,85
124352,note_off,,,,,128,0,11,,,,,4,,,67,100
124352,note_off,,,,,128,0,9,,,,,2,,,76,100
124352,note_off,,,,,0,0,11,,,,,4,,,71,100
124384,note_off,,,,,64,0,10,,,,,3,,,67,100
124384,note_off,,,,,64,0,7,,,,,0,,,88,100
124416,note_on,,,,,64,0,11,,,,,4,,,66,60
124416,note_on,,,,,32,0,7,,,,,0,,,78,85
124416,note_on,,,,,256,0,8,,,,,1,,,76,85
124416,note_on,,,,,32,0,10,,,,,3,,,76,85
124416,note_on,,,,,64,0,9,,,,,2,,,73,85
124416,note_on,,,,,0,0,11,,,,,4,,,69,60
124480,note_off,,,,,64,0,7,,,,,0,,,78,100
124512,note_on,,,,,32,0,7,,,,,0,,,88,85
124544,note_off,,,,,128,0,11,,,,,4,,,66,100
124544,note_off,,,,,0,0,11,,,,,4,,,69,100
124576,note_off,,,,,64,0,7,,,,,0,,,88,100
124604,note_off,,,,,188,0,9,,,,,2,,,73,100
124604,note_off,,,,,188,0,8,,,,,1,,,76,100
124608,note_on,,,,,32,0,7,,,,,0,,,78,85
124608,note_on,,,,,4,0,8,,,,,1,,,73,85
124608,note_on,,,,,64,0,11,,,,,4,,,66,60
124608,note_on,,,,,0,0,11,,,,,4,,,69,60
124608,note_on,,,,,4,0,9,,,,,2,,,69,85
124672,note_off,,,,,64,0,7,,,,,0,,,78,100
124704,note_on,,,,,32,0,7,,,,,0,,,88,85
124736,note_off,,,,,128,0,11,,,,,4,,,66,100
124736,note_off,,,,,128,0,9,,,,,2,,,69,100
124736,note_off,,,,,0,0,11,,,,,4,,,69,100
124736,note_off,,,,,128,0,8,,,,,1,,,73,100
124768,note_off,,,,,64,0,7,,,,,0,,,88,100
124800,note_off,,,,,384,0,10,,,,,3,,,76,100
124800,note_on,,,,,64,0,9,,,,,2,,,66,85
124800,note_on,,,,,32,0,7,,,,,0,,,78,85
124800,note_on,,,,,0,0,11,,,,,4,,,69,60
124800,note_on,,,,,64,0,11,,,,,4,,,66,60
124800,note_on,,,,,64,0,8,,,,,1,,,69,85
124864,note_off,,,,,64,0,7,,,,,0,,,78,100
124896,note_on,,,,,32,0,7,,,,,0,,,88,85
124928,note_off,,,,,128,0,9,,,,,2,,,66,100
124928,note_off,,,,,128,0,11,,,,,4,,,66,100
124928,note_off,,,,,0,0,11,,,,,4,,,69,100
124928,note_off,,,,,128,0,8,,,,,1,,,69,100
124960,note_off,,,,,64,0,7,,,,,0,,,88,100
124992,note_on,,,,,64,0,11,,,,,4,,,66,60
124992,note_on,,,,,0,0,11,,,,,4,,,69,60
124992,note_on,,,,,64,0,8,,,,,1,,,69,85
124992,note_on,,,,,32,0,7,,,,,0,,,78,85
124992,note_on,,,,,64,0,9,,,,,2,,,66,85
125056,note_off,,,,,64,0,7,,,,,0,,,78,100
125088,note_on,,,,,32,0,7,,,,,0,,,86,85
125120,note_off,,,,,128,0,8,,,,,1,,,69,100
125120,note_off,,,,,0,0,11,,,,,4,,,69,100
125120,note_off,,,,,128,0,11,,,,,4,,,66,100
125152,note_off,,,,,64,0,7,,,,,0,,,86,100
125184,note_on,,,,,64,0,8,,,,,1,,,74,85
125184,note_on,,,,,64,0,11,,,,,4,,,66,60
125184,note_on,,,,,0,0,11,,,,,4,,,69,60
125184,note_on,,,,,32,0,7,,,,,0,,,78,85
125248,note_off,,,,,64,0,7,,,,,0,,,78,100
125248,note_off,,,,,256,0,9,,,,,2,,,66,100
125280,note_on,,,,,32,0,7,,,,,0,,,86,85
125280,note_on,,,,,480,0,10,,,,,3,,,66,85
125312,note_off,,,,,128,0,8,,,,,1,,,74,100
125312,note_off,,,,,128,0,11,,,,,4,,,66,100
125312,note_off,,,,,0,0,11,,,,,4,,,69,100
125344,note_off,,,,,64,0,10,,,,,3,,,66,100
125344,note_off,,,,,64,0,7,,,,,0,,,86,100
125376,note_on,,,,,64,0,11,,,,,4,,,66,60
125376,note_on,,,,,32,0,7,,,,,0,,,78,85
125376,note_on,,,,,32,0,10,,,,,3,,,69,85
125376,note_on,,,,,128,0,9,,,,,2,,,74,85
125376,note_on,,,,,0,0,11,,,,,4,,,69,60
125440,note_off,,,,,64,0,7,,,,,0,,,78,100
125440,note_off,,,,,64,0,10,,,,,3,,,69,100
125472,note_on,,,,,32,0,7,,,,,0,,,86,85
125472,note_on,,,,,32,0,10,,,,,3,,,66,85
125504,note_off,,,,,0,0,11,,,,,4,,,69,100
125504,note_off,,,,,128,0,9,,,,,2,,,74,100
125504,note_off,,,,,128,0,11,,,,,4,,,66,100
125536,note_off,,,,,64,0,10,,,,,3,,,66,100
125536,note_off,,,,,64,0,7,,,,,0,,,86,100
125568,note_on,,,,,64,0,11,,,,,4,,,64,60
125568,note_on,,,,,64,0,9,,,,,2,,,71,85
125568,note_on,,,,,32,0,10,,,,,3,,,74,85
125568,note_on,,,,,256,0,8,,,,,1,,,74,85
125568,note_on,,,,,32,0,7,,,,,0,,,76,85
125568,note_on,,,,,0,0,11,,,,,4,,,67,60
125632,note_off,,,,,64,0,7,,,,,0,,,76,100
125664,note_on,,,,,32,0,7,,,,,0,,,86,85
125696,note_off,,,,,128,0,11,,,,,4,,,64,100
125696,note_off,,,,,0,0,11,,,,,4,,,67,100
125728,note_off,,,,,64,0,7,,,,,0,,,86,100
125756,note_off,,,,,188,0,9,,,,,2,,,71,100
125756,note_off,,,,,188,0,8,,,,,1,,,74,100
125760,note_on,,,,,4,0,9,,,,,2,,,67,85
125760,note_on,,,,,64,0,11,,,,,4,,,64,60
125760,note_on,,,,,4,0,8,,,,,1,,,71,85
125760,note_on,,,,,32,0,7,,,,,0,,,76,85
125760,note_on,,,,,0,0,11,,,,,4,,,67,60
125824,note_off,,,,,64,0,7,,,,,0,,,76,100
125856,note_on,,,,,32,0,7,,,,,0,,,86,85
125888,note_off,,,,,128,0,11,,,,,4,,,64,100
125888,note_off,,,,,0,0,11,,,,,4,,,67,100
125888,note_off,,,,,128,0,9,,,,,2,,,67,100
125888,note_off,,,,,128,0,8,,,,,1,,,71,100
125920,note_off,,,,,64,0,7,,,,,0,,,86,100
125952,note_on,,,,,0,0,11,,,,,4,,,67,60
125952,note_on,,,,,32,0,7,,,,,0,,,76,85
125952,note_on,,,,,64,0,8,,,,,1,,,67,85
125952,note_on,,,,,64,0,9,,,,,2,,,64,85
125952,note_on,,,,,64,0,11,,,,,4,,,64,60
125952,note_off,,,,,384,0,10,,,,,3,,,74,100
126016,note_off,,,,,64,0,7,,,,,0,,,76,100
126048,note_on,,,,,32,0,7,,,,,0,,,86,85
126080,note_off,,,,,128,0,11,,,,,4,,,64,100
126080,note_off,,,,,128,0,9,,,,,2,,,64,100
126080,note_off,,,,,128,0,8,,,,,1,,,67,100
126080,note_off,,,,,0,0,11,,,,,4,,,67,100
126112,note_off,,,,,64,0,7,,,,,0,,,86,100
126144,note_on,,,,,0,0,11,,,,,4,,,67,60
126144,note_on,,,,,64,0,11,,,,,4,,,64,60
126144,note_on,,,,,64,0,8,,,,,1,,,67,85
126144,note_on,,,,,64,0,9,,,,,2,,,64,85
126144,note_on,,,,,32,0,7,,,,,0,,,76,85
126208,note_off,,,,,64,0,7,,,,,0,,,76,100
126240,note_on,,,,,32,0,7,,,,,0,,,85,85
126272,note_off,,,,,0,0,11,,,,,4,,,67,100
126272,note_off,,,,,128,0,11,,,,,4,,,64,100
126272,note_off,,,,,128,0,8,,,,,1,,,67,100
126304,note_off,,,,,64,0,7,,,,,0,,,85,100
126336,note_on,,,,,32,0,7,,,,,0,,,76,85
126336,note_on,,,,,64,0,11,,,,,4,,,64,60
126336,note_on,,,,,64,0,8,,,,,1,,,73,85
126336,note_on,,,,,0,0,11,,,,,4,,,67,60
126400,note_off,,,,,64,0,7,,,,,0,,,76,100
126400,note_off,,,,,256,0,9,,,,,2,,,64,100
126432,note_on,,,,,32,0,7,,,,,0,,,85,85
126432,note_on,,,,,480,0,10,,,,,3,,,64,85
126464,note_off,,,,,128,0,8,,,,,1,,,73,100
126464,note_off,,,,,0,0,11,,,,,4,,,67,100
126464,note_off,,,,,128,0,11,,,,,4,,,64,100
126496,note_off,,,,,64,0,7,,,,,0,,,85,100
126496,note_off,,,,,64,0,10,,,,,3,,,64,100
126528,note_on,,,,,32,0,10,,,,,3,,,67,85
126528,note_on,,,,,64,0,11,,,,,4,,,64,60
126528,note_on,,,,,32,0,7,,,,,0,,,76,85
126528,note_on,,,,,128,0,9,,,,,2,,,73,85
126528,note_on,,,,,0,0,11,,,,,4,,,67,60
126592,note_off,,,,,64,0,7,,,,,0,,,76,100
126592,note_off,,,,,64,0,10,,,,,3,,,67,100
126624,note_on,,,,,32,0,10,,,,,3,,,64,85
126624,note_on,,,,,32,0,7,,,,,0,,,85,85
126656,note_off,,,,,128,0,11,,,,,4,,,64,100
126656,note_off,,,,,128,0,9,,,,,2,,,73,100
126656,note_off,,,,,0,0,11,,,,,4,,,67,100
126688,note_off,,,,,64,0,10,,,,,3,,,64,100
126688,note_off,,,,,64,0,7,,,,,0,,,85,100
126720,note_on,,,,,32,0,7,,,,,0,,,74,85
126720,note_on,,,,,0,0,11,,,,,4,,,66,60
126720,note_on,,,,,64,0,9,,,,,2,,,69,85
126720,note_on,,,,,64,0,11,,,,,4,,,62,60
126720,note_on,,,,,256,0,8,,,,,1,,,73,85
126720,note_on,,,,,32,0,10,,,,,3,,,73,85
126784,note_off,,,,,64,0,7,,,,,0,,,74,100
126816,note_on,,,,,32,0,7,,,,,0,,,85,85
126848,note_off,,,,,128,0,11,,,,,4,,,62,100
126848,note_off,,,,,0,0,11,,,,,4,,,66,100
126880,note_off,,,,,64,0,7,,,,,0,,,85,100
126908,note_off,,,,,188,0,9,,,,,2,,,69,100
126908,note_off,,,,,188,0,8,,,,,1,,,73,100
126912,note_on,,,,,4,0,8,,,,,1,,,69,85
126912,note_on,,,,,4,0,9,,,,,2,,,66,85
126912,note_on,,,,,32,0,7,,,,,0,,,74,85
126912,note_on,,,,,64,0,11,,,,,4,,,62,60
126912,note_on,,,,,0,0,11,,,,,4,,,66,60
126976,note_off,,,,,64,0,7,,,,,0,,,74,100
127008,note_on,,,,,32,0,7,,,,,0,,,85,85
127040,note_off,,,,,128,0,8,,,,,1,,,69,100
127040,note_off,,,,,0,0,11,,,,,4,,,66,100
127040,note_off,,,,,128,0,9,,,,,2,,,66,100
127040,note_off,,,,,128,0,11,,,,,4,,,62,100
127072,note_off,,,,,64,0,7,,,,,0,,,85,100
127104,note_on,,,,,64,0,11,,,,,4,,,62,60
127104,note_on,,,,,0,0,11,,,,,4,,,66,60
127104,note_on,,,,,64,0,8,,,,,1,,,66,85
127104,note_off,,,,,384,0,10,,,,,3,,,73,100
127104,note_on,,,,,32,0,7,,,,,0,,,74,85
127104,note_on,,,,,64,0,9,,,,,2,,,62,85
127168,note_off,,,,,64,0,7,,,,,0,,,74,100
127200,note_on,,,,,32,0,7,,,,,0,,,85,85
127232,note_off,,,,,128,0,9,,,,,2,,,62,100
127232,note_off,,,,,0,0,11,,,,,4,,,66,100
127232,note_off,,,,,128,0,8,,,,,1,,,66,100
127232,note_off,,,,,128,0,11,,,,,4,,,62,100
127264,note_off,,,,,64,0,7,,,,,0,,,85,100
127296,note_on,,,,,32,0,7,,,,,0,,,74,85
127296,note_on,,,,,64,0,8,,,,,1,,,66,85
127296,note_on,,,,,0,0,11,,,,,4,,,66,60
127296,note_on,,,,,64,0,11,,,,,4,,,62,60
127296,note_on,,,,,64,0,9,,,,,2,,,62,85
127360,note_off,,,,,64,0,7,,,,,0,,,74,100
127392,note_on,,,,,32,0,7,,,,,0,,,83,85
127424,note_off,,,,,128,0,8,,,,,1,,,66,100
127424,note_off,,,,,128,0,11,,,,,4,,,62,100
127424,note_off,,,,,0,0,11,,,,,4,,,66,100
127456,note_off,,,,,64,0,7,,,,,0,,,83,100
127488,note_on,,,,,64,0,8,,,,,1,,,71,85
127488,note_on,,,,,0,0,11,,,,,4,,,66,60
127488,note_on,,,,,64,0,11,,,,,4,,,62,60
127488,note_on,,,,,32,0,7,,,,,0,,,74,85
127552,note_off,,,,,64,0,7,,,,,0,,,74,100
127552,note_off,,,,,256,0,9,,,,,2,,,62,100
127584,note_on,,,,,32,0,7,,,,,0,,,83,85
127584,note_on,,,,,480,0,10,,,,,3,,,62,85
127616,note_off,,,,,128,0,11,,,,,4,,,62,100
127616,note_off,,,,,128,0,8,,,,,1,,,71,100
127616,note_off,,,,,0,0,11,,,,,4,,,66,100
127648,note_off,,,,,64,0,7,,,,,0,,,83,100
127648,note_off,,,,,64,0,10,,,,,3,,,62,100
127680,note_on,,,,,32,0,10,,,,,3,,,66,85
127680,note_on,,,,,128,0,9,,,,,2,,,71,85
127680,note_on,,,,,32,0,7,,,,,0,,,74,85
127680,note_on,,,,,64,0,11,,,,,4,,,62,60
127680,note_on,,,,,0,0,11,,,,,4,,,66,60
127744,note_off,,,,,64,0,10,,,,,3,,,66,100
127744,note_off,,,,,64,0,7,,,,,0,,,74,100
127776,note_on,,,,,32,0,10,,,,,3,,,62,85
127776,note_on,,,,,32,0,7,,,,,0,,,83,85
127808,note_off,,,,,128,0,9,,,,,2,,,71,100
127808,note_off,,,,,128,0,11,,,,,4,,,62,100
127808,note_off,,,,,0,0,11,,,,,4,,,66,100
127840,note_off,,,,,64,0,7,,,,,0,,,83,100
127840,note_off,,,,,64,0,10,,,,,3,,,62,100
127872,note_on,,,,,0,0,11,,,,,4,,,64,60
127872,note_on,,,,,64,0,11,,,,,4,,,67,60
127872,note_on,,,,,64,0,9,,,,,2,,,67,85
127872,note_on,,,,,32,0,10,,,,,3,,,71,85
127872,note_on,,,,,32,0,7,,,,,0,,,76,85
127872,note_on,,,,,256,0,8,,,,,1,,,71,85
127936,note_off,,,,,64,0,7,,,,,0,,,76,100
127968,note_on,,,,,32,0,7,,,,,0,,,83,86
128000,note_off,,,,,128,0,11,,,,,4,,,67,100
128000,note_off,,,,,0,0,11,,,,,4,,,64,100
128032,note_off,,,,,64,0,7,,,,,0,,,83,100
128060,note_off,,,,,188,0,9,,,,,2,,,67,100
128060,note_off,,,,,188,0,8,,,,,1,,,71,100
128064,note_on,,,,,64,0,11,,,,,4,,,67,60
128064,note_on,,,,,4,0,9,,,,,2,,,64,87
128064,note_on,,,,,0,0,11,,,,,4,,,64,60
128064,note_on,,,,,4,0,8,,,,,1,,,67,87
128064,note_on,,,,,32,0,7,,,,,0,,,76,87
128128,note_off,,,,,64,0,7,,,,,0,,,76,100
128160,note_on,,,,,32,0,7,,,,,0,,,83,88
128192,note_off,,,,,128,0,8,,,,,1,,,67,100
128192,note_off,,,,,0,0,11,,,,,4,,,64,100
128192,note_off,,,,,128,0,11,,,,,4,,,67,100
128192,note_off,,,,,128,0,9,,,,,2,,,64,100
128224,note_off,,,,,64,0,7,,,,,0,,,83,100
128256,note_on,,,,,64,0,8,,,,,1,,,64,89
128256,note_on,,,,,0,0,11,,,,,4,,,64,60
128256,note_off,,,,,384,0,10,,,,,3,,,71,100
128256,note_on,,,,,64,0,9,,,,,2,,,61,89
128256,note_on,,,,,64,0,11,,,,,4,,,67,60
128256,note_on,,,,,32,0,7,,,,,0,,,76,89
128320,note_off,,,,,64,0,7,,,,,0,,,76,100
128352,note_on,,,,,32,0,7,,,,,0,,,83,91
128384,note_off,,,,,128,0,11,,,,,4,,,67,100
128384,note_off,,,,,0,0,11,,,,,4,,,64,100
128384,note_off,,,,,128,0,9,,,,,2,,,61,100
128384,note_off,,,,,128,0,8,,,,,1,,,64,100
128416,note_off,,,,,64,0,7,,,,,0,,,83,100
128448,note_on,,,,,64,0,8,,,,,1,,,64,92
128448,note_on,,,,,64,0,9,,,,,2,,,61,92
128448,note_on,,,,,64,0,11,,,,,4,,,66,60
128448,note_on,,,,,32,0,7,,,,,0,,,78,92
128512,note_off,,,,,64,0,7,,,,,0,,,78,100
128544,note_on,,,,,32,0,7,,,,,0,,,82,93
128576,note_off,,,,,128,0,8,,,,,1,,,64,100
128576,note_off,,,,,128,0,11,,,,,4,,,66,100
128608,note_off,,,,,64,0,7,,,,,0,,,82,100
128640,note_on,,,,,32,0,7,,,,,0,,,78,94
128640,note_on,,,,,64,0,8,,,,,1,,,73,94
128640,note_on,,,,,64,0,11,,,,,4,,,66,60
128704,note_off,,,,,64,0,7,,,,,0,,,78,100
128704,note_off,,,,,256,0,9,,,,,2,,,61,100
128736,note_on,,,,,32,0,7,,,,,0,,,82,96
128736,note_on,,,,,480,0,10,,,,,3,,,70,96
128768,note_off,,,,,128,0,8,,,,,1,,,73,100
128768,note_off,,,,,128,0,11,,,,,4,,,66,100
128800,note_off,,,,,64,0,7,,,,,0,,,82,100
128800,note_off,,,,,64,0,10,,,,,3,,,70,100
128832,note_on,,,,,32,0,7,,,,,0,,,78,97
128832,note_on,,,,,128,0,9,,,,,2,,,73,97
128832,note_on,,,,,64,0,11,,,,,4,,,66,60
128832,note_on,,,,,32,0,10,,,,,3,,,73,97
128896,note_off,,,,,64,0,10,,,,,3,,,73,100
128896,note_off,,,,,64,0,7,,,,,0,,,78,100
128928,note_on,,,,,32,0,10,,,,,3,,,78,98
128928,note_on,,,,,32,0,7,,,,,0,,,82,98
128960,note_off,,,,,128,0,11,,,,,4,,,66,100
128960,note_off,,,,,128,0,9,,,,,2,,,73,100
128992,note_off,,,,,64,0,10,,,,,3,,,78,100
128992,note_off,,,,,64,0,7,,,,,0,,,82,100
129024,note_on,,,,,32,0,7,,,,,0,,,71,99
129024,note_on,,,,,9536,0,12,,,,,5,,,47,100
129024,note_on,,,,,64,0,11,,,,,4,,,62,60
129024,note_on,,,,,256,0,8,,,,,1,,,74,99
129024,note_on,,,,,32,0,10,,,,,3,,,74,99
129024,note_on,,,,,9536,0,15,,,,,7,,,47,100
129024,note_on,,,,,0,0,11,,,,,4,,,66,60
129024,note_on,,,,,9536,0,13,,,,,6,,,35,100
129024,note_on,,,,,64,0,9,,,,,2,,,71,99
129024,note_on,,,,,9536,0,14,,,,,7,,,66,100
129024,note_on,,,,,0,0,14,,,,,7,,,62,100
129152,note_off,,,,,0,0,11,,,,,4,,,66,100
129152,note_off,,,,,128,0,7,,,,,0,,,71,100
129152,note_off,,,,,128,0,14,,,,,7,,,66,100
129152,note_off,,,,,128,0,11,,,,,4,,,62,100
129152,note_off,,,,,128,0,12,,,,,5,,,47,100
129152,note_off,,,,,0,0,14,,,,,7,,,62,100
129152,note_off,,,,,128,0,15,,,,,7,,,47,100
129152,note_off,,,,,128,0,8,,,,,1,,,74,100
129152,note_off,,,,,128,0,13,,,,,6,,,35,100
129212,program_change,,,,,60,0,8,,,,,1,48,,,
129212,program_change,,,,,60,0,7,,,,,0,48,,,
129216,note_on,,,,,64,0,15,,,,,7,,,47,100
129216,note_on,,,,,4,0,8,,,,,1,,,78,100
129216,note_on,,,,,64,0,11,,,,,4,,,71,100
129216,note_on,,,,,0,0,11,,,,,4,,,62,100
129216,note_on,,,,,64,0,13,,,,,6,,,35,100
129216,note_on,,,,,4,0,7,,,,,0,,,83,100
129216,note_on,,,,,64,0,14,,,,,7,,,66,100
129216,note_on,,,,,0,0,14,,,,,7,,,62,100
129216,note_on,,,,,64,0,12,,,,,5,,,47,100
129280,note_off,,,,,256,0,9,,,,,2,,,71,100
129280,note_off,,,,,256,0,10,,,,,3,,,74,100
129344,note_off,,,,,128,0,13,,,,,6,,,35,100
129344,note_off,,,,,0,0,14,,,,,7,,,62,100
129344,note_off,,,,,128,0,15,,,,,7,,,47,100
129344,note_off,,,,,128,0,7,,,,,0,,,83,100
129344,note_off,,,,,128,0,14,,,,,7,,,66,100
129344,note_off,,,,,128,0,11,,,,,4,,,71,100
129344,note_off,,,,,0,0,11,,,,,4,,,62,100
129344,note_off,,,,,128,0,8,,,,,1,,,78,100
129344,note_off,,,,,128,0,12,,,,,5,,,47,100
129408,note_on,,,,,0,0,11,,,,,4,,,66,100
129408,note_on,,,,,64,0,11,,,,,4,,,74,100
129408,note_on,,,,,64,0,13,,,,,6,,,35,100
129408,note_on,,,,,0,0,14,,,,,7,,,62,100
129408,note_on,,,,,64,0,14,,,,,7,,,66,100
129408,note_on,,,,,64,0,15,,,,,7,,,47,100
129408,note_on,,,,,64,0,12,,,,,5,,,47,100
129412,note_on,,,,,68,0,7,,,,,0,,,78,100
129412,note_on,,,,,68,0,8,,,,,1,,,74,100
129536,note_off,,,,,128,0,11,,,,,4,,,74,100
129536,note_off,,,,,128,0,15,,,,,7,,,47,100
129536,note_off,,,,,128,0,14,,,,,7,,,66,100
129536,note_off,,,,,0,0,11,,,,,4,,,66,100
129536,note_off,,,,,128,0,13,,,,,6,,,35,100
129536,note_off,,,,,128,0,12,,,,,5,,,47,100
129536,note_off,,,,,0,0,14,,,,,7,,,62,100
129540,note_off,,,,,128,0,8,,,,,1,,,74,100
129540,note_off,,,,,128,0,7,,,,,0,,,78,100
129600,note_on,,,,,64,0,15,,,,,7,,,46,100
129600,note_on,,,,,64,0,13,,,,,6,,,34,99
129600,note_on,,,,,0,0,14,,,,,7,,,67,100
129600,note_on,,,,,64,0,14,,,,,7,,,64,100
129600,note_on,,,,,64,0,12,,,,,5,,,46,99
129604,note_on,,,,,64,0,8,,,,,1,,,76,99
129604,note_on,,,,,64,0,7,,,,,0,,,79,99
129668,note_off,,,,,64,0,8,,,,,1,,,76,100
129668,note_off,,,,,64,0,7,,,,,0,,,79,100
129700,note_on,,,,,32,0,7,,,,,0,,,81,98
129700,note_on,,,,,32,0,8,,,,,1,,,78,98
129728,note_off,,,,,128,0,12,,,,,5,,,46,100
129728,note_off,,,,,0,0,14,,,,,7,,,67,100
129728,note_off,,,,,128,0,14,,,,,7,,,64,100
129728,note_off,,,,,128,0,15,,,,,7,,,46,100
129728,note_off,,,,,128,0,13,,,,,6,,,34,100
129764,note_off,,,,,64,0,8,,,,,1,,,78,100
129764,note_off,,,,,64,0,7,,,,,0,,,81,100
129792,note_on,,,,,64,0,15,,,,,7,,,46,100
129792,note_on,,,,,64,0,14,,,,,7,,,64,100
129792,note_on,,,,,0,0,11,,,,,4,,,61,98
129792,note_on,,,,,256,0,11,,,,,4,,,70,98
129792,note_on,,,,,0,0,14,,,,,7,,,67,100
129792,note_on,,,,,64,0,13,,,,,6,,,34,98
129792,note_on,,,,,64,0,12,,,,,5,,,46,98
129796,note_on,,,,,32,0,8,,,,,1,,,76,98
129796,note_on,,,,,32,0,7,,,,,0,,,79,98
129860,note_off,,,,,64,0,8,,,,,1,,,76,100
129860,note_off,,,,,64,0,7,,,,,0,,,79,100
129892,note_on,,,,,32,0,7,,,,,0,,,81,97
129892,note_on,,,,,32,0,8,,,,,1,,,78,97
129920,note_off,,,,,0,0,14,,,,,7,,,67,100
129920,note_off,,,,,128,0,14,,,,,7,,,64,100
129920,note_off,,,,,128,0,15,,,,,7,,,46,100
129920,note_off,,,,,128,0,11,,,,,4,,,70,100
129920,note_off,,,,,0,0,11,,,,,4,,,61,100
129920,note_off,,,,,128,0,12,,,,,5,,,46,100
129920,note_off,,,,,128,0,13,,,,,6,,,34,100
129956,note_off,,,,,64,0,7,,,,,0,,,81,100
129956,note_off,,,,,64,0,8,,,,,1,,,78,100
129984,note_on,,,,,64,0,14,,,,,7,,,64,100
129984,note_on,,,,,64,0,11,,,,,4,,,73,96
129984,note_on,,,,,0,0,11,,,,,4,,,64,96
129984,note_on,,,,,64,0,12,,,,,5,,,46,96
129984,note_on,,,,,0,0,14,,,,,7,,,67,100
129984,note_on,,,,,64,0,13,,,,,6,,,34,96
129984,note_on,,,,,64,0,15,,,,,7,,,46,100
129988,note_on,,,,,32,0,7,,,,,0,,,79,96
129988,note_on,,,,,32,0,8,,,,,1,,,76,96
130052,note_off,,,,,64,0,8,,,,,1,,,76,100
130052,note_off,,,,,64,0,7,,,,,0,,,79,100
130084,note_on,,,,,32,0,7,,,,,0,,,81,95
130084,note_on,,,,,32,0,8,,,,,1,,,78,95
130112,note_off,,,,,128,0,15,,,,,7,,,46,100
130112,note_off,,,,,0,0,14,,,,,7,,,67,100
130112,note_off,,,,,128,0,12,,,,,5,,,46,100
130112,note_off,,,,,128,0,13,,,,,6,,,34,100
130112,note_off,,,,,128,0,14,,,,,7,,,64,100
130112,note_off,,,,,0,0,11,,,,,4,,,64,100
130112,note_off,,,,,128,0,11,,,,,4,,,73,100
130148,note_off,,,,,64,0,7,,,,,0,,,81,100
130148,note_off,,,,,64,0,8,,,,,1,,,78,100
130176,note_on,,,,,64,0,13,,,,,6,,,35,95
130176,note_on,,,,,64,0,11,,,,,4,,,74,95
130176,note_on,,,,,0,0,11,,,,,4,,,66,95
130176,program_change,,,,,896,0,9,,,,,2,48,,,
130176,note_on,,,,,0,0,14,,,,,7,,,66,100
130176,note_on,,,,,64,0,14,,,,,7,,,62,100
130176,note_on,,,,,64,0,12,,,,,5,,,47,95
130176,note_on,,,,,64,0,15,,,,,7,,,47,100
130176,program_change,,,,,896,0,10,,,,,3,48,,,
130180,note_on,,,,,32,0,7,,,,,0,,,78,95
130180,note_on,,,,,32,0,8,,,,,1,,,74,95
130304,note_off,,,,,0,0,14,,,,,7,,,66,100
130304,note_off,,,,,128,0,13,,,,,6,,,35,100
130304,note_off,,,,,128,0,15,,,,,7,,,47,100
130304,note_off,,,,,0,0,11,,,,,4,,,66,100
130304,note_off,,,,,128,0,11,,,,,4,,,74,100
130304,note_off,,,,,128,0,12,,,,,5,,,47,100
130304,note_off,,,,,128,0,14,,,,,7,,,62,100
130368,note_on,,,,,64,0,13,,,,,6,,,35,93
130368,note_on,,,,,64,0,15,,,,,7,,,47,100
130368,note_on,,,,,0,0,14,,,,,7,,,66,100
130368,note_on,,,,,64,0,14,,,,,7,,,62,100
130368,note_on,,,,,192,0,10,,,,,3,,,74,93
130368,note_on,,,,,64,0,11,,,,,4,,,62,93
130368,note_on,,,,,0,0,11,,,,,4,,,59,93
130368,note_on,,,,,192,0,9,,,,,2,,,78,93
130368,note_on,,,,,64,0,12,,,,,5,,,47,93
130436,note_off,,,,,256,0,7,,,,,0,,,78,100
130436,note_off,,,,,256,0,8,,,,,1,,,74,100
130496,note_off,,,,,128,0,15,,,,,7,,,47,100
130496,note_off,,,,,0,0,14,,,,,7,,,66,100
130496,note_off,,,,,0,0,11,,,,,4,,,59,100
130496,note_off,,,,,128,0,13,,,,,6,,,35,100
130496,note_off,,,,,128,0,14,,,,,7,,,62,100
130496,note_off,,,,,128,0,11,,,,,4,,,62,100
130496,note_off,,,,,128,0,9,,,,,2,,,78,100
130496,note_off,,,,,128,0,10,,,,,3,,,74,100
130496,note_off,,,,,128,0,12,,,,,5,,,47,100
130560,note_on,,,,,64,0,14,,,,,7,,,62,100
130560,note_on,,,,,0,0,14,,,,,7,,,66,100
130560,note_on,,,,,64,0,12,,,,,5,,,47,89
130560,note_on,,,,,0,0,11,,,,,4,,,62,89
130560,note_on,,,,,64,0,15,,,,,7,,,47,100
130560,note_on,,,,,64,0,13,,,,,6,,,35,89
130560,note_on,,,,,64,0,10,,,,,3,,,71,89
130560,note_on,,,,,64,0,9,,,,,2,,,74,89
130560,note_on,,,,,64,0,11,,,,,4,,,66,89
130688,note_off,,,,,128,0,14,,,,,7,,,62,100
130688,note_off,,,,,128,0,15,,,,,7,,,47,100
130688,note_off,,,,,128,0,12,,,,,5,,,47,100
130688,note_off,,,,,128,0,10,,,,,3,,,71,100
130688,note_off,,,,,128,0,9,,,,,2,,,74,100
130688,note_off,,,,,0,0,14,,,,,7,,,66,100
130688,note_off,,,,,128,0,13,,,,,6,,,35,100
130688,note_off,,,,,128,0,11,,,,,4,,,66,100
130688,note_off,,,,,0,0,11,,,,,4,,,62,100
130752,note_on,,,,,64,0,12,,,,,5,,,53,84
130752,note_on,,,,,64,0,15,,,,,7,,,53,100
130752,note_on,,,,,64,0,10,,,,,3,,,71,84
130752,note_on,,,,,0,0,14,,,,,7,,,74,100
130752,note_on,,,,,64,0,14,,,,,7,,,71,100
130752,note_on,,,,,64,0,9,,,,,2,,,74,84
130752,note_on,,,,,64,0,13,,,,,6,,,41,84
130816,note_off,,,,,64,0,9,,,,,2,,,74,100
130816,note_off,,,,,64,0,10,,,,,3,,,71,100
130848,note_on,,,,,32,0,10,,,,,3,,,73,82
130848,note_on,,,,,32,0,9,,,,,2,,,76,82
130880,note_off,,,,,128,0,12,,,,,5,,,53,100
130880,note_off,,,,,0,0,14,,,,,7,,,74,100
130880,note_off,,,,,128,0,14,,,,,7,,,71,100
130880,note_off,,,,,128,0,13,,,,,6,,,41,100
130880,note_off,,,,,128,0,15,,,,,7,,,53,100
130912,note_off,,,,,64,0,9,,,,,2,,,76,100
130912,note_off,,,,,64,0,10,,,,,3,,,73,100
130944,note_on,,,,,32,0,9,,,,,2,,,74,80
130944,note_on,,,,,256,0,11,,,,,4,,,65,80
130944,note_on,,,,,0,0,11,,,,,4,,,59,80
130944,note_on,,,,,32,0,10,,,,,3,,,71,80
130944,note_on,,,,,64,0,13,,,,,6,,,41,80
130944,note_on,,,,,64,0,14,,,,,7,,,71,100
130944,note_on,,,,,0,0,14,,,,,7,,,74,100
130944,note_on,,,,,64,0,15,,,,,7,,,53,100
130944,note_on,,,,,64,0,12,,,,,5,,,53,80
131008,note_off,,,,,64,0,9,,,,,2,,,74,100
131008,note_off,,,,,64,0,10,,,,,3,,,71,100
131040,note_on,,,,,32,0,10,,,,,3,,,73,77
131040,note_on,,,,,32,0,9,,,,,2,,,76,77
131072,note_off,,,,,128,0,13,,,,,6,,,41,100
131072,note_off,,,,,128,0,12,,,,,5,,,53,100
131072,note_off,,,,,0,0,14,,,,,7,,,74,100
131072,note_off,,,,,128,0,14,,,,,7,,,71,100
131072,note_off,,,,,128,0,11,,,,,4,,,65,100
131072,note_off,,,,,0,0,11,,,,,4,,,59,100
131072,note_off,,,,,128,0,15,,,,,7,,,53,100
131104,note_off,,,,,64,0,9,,,,,2,,,76,100
131104,note_off,,,,,64,0,10,,,,,3,,,73,100
131136,note_on,,,,,32,0,9,,,,,2,,,74,75
131136,note_on,,,,,0,0,14,,,,,7,,,74,100
131136,note_on,,,,,64,0,15,,,,,7,,,53,100
131136,note_on,,,,,64,0,12,,,,,5,,,53,75
131136,note_on,,,,,64,0,13,,,,,6,,,41,75
131136,note_on,,,,,64,0,14,,,,,7,,,71,100
131136,note_on,,,,,32,0,10,,,,,3,,,71,75
131136,note_on,,,,,0,0,11,,,,,4,,,65,75
131136,note_on,,,,,64,0,11,,,,,4,,,68,75
131200,note_off,,,,,64,0,10,,,,,3,,,71,100
131200,note_off,,,,,64,0,9,,,,,2,,,74,100
131232,note_on,,,,,32,0,10,,,,,3,,,73,73
131232,note_on,,,,,32,0,9,,,,,2,,,76,73
131264,note_off,,,,,0,0,14,,,,,7,,,74,100
131264,note_off,,,,,128,0,11,,,,,4,,,68,100
131264,note_off,,,,,128,0,13,,,,,6,,,41,100
131264,note_off,,,,,0,0,11,,,,,4,,,65,100
131264,note_off,,,,,128,0,15,,,,,7,,,53,100
131264,note_off,,,,,128,0,14,,,,,7,,,71,100
131264,note_off,,,,,128,0,12,,,,,5,,,53,100
131296,note_off,,,,,64,0,9,,,,,2,,,76,100
131296,note_off,,,,,64,0,10,,,,,3,,,73,100
131328,note_on,,,,,64,0,12,,,,,5,,,54,70
131328,note_on,,,,,892,0,7,,,,,0,,,70,20
131328,note_on,,,,,32,0,9,,,,,2,,,73,70
131328,note_on,,,,,64,0,15,,,,,7,,,54,100
131328,note_on,,,,,32,0,10,,,,,3,,,70,70
131328,note_on,,,,,64,0,14,,,,,7,,,70,100
131328,note_on,,,,,0,0,11,,,,,4,,,61,70
131328,note_on,,,,,892,0,8,,,,,1,,,73,20
131328,note_on,,,,,0,0,14,,,,,7,,,73,100
131328,note_on,,,,,64,0,13,,,,,6,,,42,70
131328,note_on,,,,,64,0,11,,,,,4,,,66,70
131456,note_off,,,,,128,0,15,,,,,7,,,54,100
131456,note_off,,,,,128,0,12,,,,,5,,,54,100
131456,note_off,,,,,128,0,14,,,,,7,,,70,100
131456,note_off,,,,,128,0,13,,,,,6,,,42,100
131456,note_off,,,,,0,0,14,,,,,7,,,73,100
131520,note_off,,,,,192,0,11,,,,,4,,,66,100
131520,note_on,,,,,64,0,12,,,,,5,,,54,71
131520,note_on,,,,,0,0,14,,,,,7,,,73,100
131520,note_on,,,,,64,0,14,,,,,7,,,70,100
131520,note_on,,,,,64,0,13,,,,,6,,,42,71
131520,note_on,,,,,64,0,15,,,,,7,,,54,100
131584,note_off,,,,,64,0,11,,,,,4,,,61,100
131616,note_on,,,,,32,0,11,,,,,4,,,67,72
131648,note_off,,,,,0,0,14,,,,,7,,,73,100
131648,note_off,,,,,128,0,14,,,,,7,,,70,100
131648,note_off,,,,,128,0,13,,,,,6,,,42,100
131648,note_off,,,,,128,0,15,,,,,7,,,54,100
131648,note_off,,,,,128,0,12,,,,,5,,,54,100
131680,note_off,,,,,64,0,11,,,,,4,,,67,100
131712,note_off,,,,,384,0,9,,,,,2,,,73,100
131712,note_on,,,,,64,0,12,,,,,5,,,54,73
131712,note_on,,,,,64,0,14,,,,,7,,,70,100
131712,note_on,,,,,64,0,15,,,,,7,,,54,100
131712,note_on,,,,,0,0,14,,,,,7,,,73,100
131712,note_off,,,,,384,0,8,,,,,1,,,73,100
131712,note_off,,,,,384,0,7,,,,,0,,,70,100
131712,note_on,,,,,64,0,13,,,,,6,,,42,73
131712,note_off,,,,,384,0,10,,,,,3,,,70,100
131712,note_on,,,,,32,0,11,,,,,4,,,66,73
131776,note_off,,,,,64,0,11,,,,,4,,,66,100
131808,note_on,,,,,32,0,11,,,,,4,,,64,74
131840,note_off,,,,,128,0,12,,,,,5,,,54,100
131840,note_off,,,,,128,0,13,,,,,6,,,42,100
131840,note_off,,,,,0,0,14,,,,,7,,,73,100
131840,note_off,,,,,128,0,15,,,,,7,,,54,100
131840,note_off,,,,,128,0,14,,,,,7,,,70,100
131872,note_off,,,,,64,0,11,,,,,4,,,64,100
131904,note_on,,,,,64,0,12,,,,,5,,,59,75
131904,note_on,,,,,192,0,10,,,,,3,,,71,75
131904,note_on,,,,,0,0,11,,,,,4,,,66,75
131904,note_on,,,,,32,0,11,,,,,4,,,62,75
131904,note_on,,,,,192,0,9,,,,,2,,,74,75
131904,note_on,,,,,64,0,13,,,,,6,,,47,75
131904,note_on,,,,,192,0,8,,,,,1,,,74,25
131904,note_on,,,,,192,0,7,,,,,0,,,71,25
131904,note_on,,,,,64,0,15,,,,,7,,,59,100
131904,note_on,,,,,64,0,14,,,,,7,,,78,100
131904,note_on,,,,,0,0,14,,,,,7,,,74,100
132032,note_off,,,,,128,0,15,,,,,7,,,59,100
132032,note_off,,,,,128,0,10,,,,,3,,,71,100
132032,note_off,,,,,128,0,7,,,,,0,,,71,100
132032,note_off,,,,,0,0,14,,,,,7,,,74,100
132032,note_off,,,,,128,0,14,,,,,7,,,78,100
132032,note_off,,,,,128,0,13,,,,,6,,,47,100
132032,note_off,,,,,128,0,12,,,,,5,,,59,100
132096,note_on,,,,,64,0,14,,,,,7,,,78,100
132096,note_on,,,,,0,0,14,,,,,7,,,74,100
132096,note_off,,,,,0,0,11,,,,,4,,,66,100
132096,note_off,,,,,192,0,11,,,,,4,,,62,100
132096,note_on,,,,,64,0,13,,,,,6,,,47,77
132096,note_on,,,,,64,0,12,,,,,5,,,59,77
132096,note_on,,,,,64,0,10,,,,,3,,,83,77
132096,note_on,,,,,64,0,15,,,,,7,,,59,100
132096,note_on,,,,,64,0,7,,,,,0,,,83,27
132192,note_on,,,,,96,0,11,,,,,4,,,64,78
132192,note_on,,,,,0,0,11,,,,,4,,,67,78
132224,note_off,,,,,128,0,7,,,,,0,,,83,100
132224,note_off,,,,,128,0,15,,,,,7,,,59,100
132224,note_off,,,,,128,0,10,,,,,3,,,83,100
132224,note_off,,,,,128,0,13,,,,,6,,,47,100
132224,note_off,,,,,128,0,14,,,,,7,,,78,100
132224,note_off,,,,,128,0,12,,,,,5,,,59,100
132224,note_off,,,,,0,0,14,,,,,7,,,74,100
132256,note_off,,,,,64,0,11,,,,,4,,,64,100
132256,note_off,,,,,0,0,11,,,,,4,,,67,100
132288,note_on,,,,,64,0,15,,,,,7,,,59,100
132288,note_on,,,,,32,0,11,,,,,4,,,62,79
132288,note_on,,,,,0,0,11,,,,,4,,,66,79
132288,note_off,,,,,384,0,8,,,,,1,,,74,100
132288,note_on,,,,,64,0,7,,,,,0,,,71,29
132288,note_on,,,,,64,0,14,,,,,7,,,78,100
132288,note_on,,,,,0,0,14,,,,,7,,,74,100
132288,note_on,,,,,64,0,12,,,,,5,,,59,79
132288,note_off,,,,,384,0,9,,,,,2,,,74,100
132288,note_on,,,,,64,0,10,,,,,3,,,71,79
132288,note_on,,,,,64,0,13,,,,,6,,,47,79
132352,note_off,,,,,64,0,11,,,,,4,,,62,100
132352,note_off,,,,,0,0,11,,,,,4,,,66,100
132384,note_on,,,,,32,0,11,,,,,4,,,61,80
132384,note_on,,,,,0,0,11,,,,,4,,,64,80
132416,note_off,,,,,128,0,14,,,,,7,,,78,100
132416,note_off,,,,,128,0,10,,,,,3,,,71,100
132416,note_off,,,,,128,0,12,,,,,5,,,59,100
132416,note_off,,,,,0,0,14,,,,,7,,,74,100
132416,note_off,,,,,128,0,7,,,,,0,,,71,100
132416,note_off,,,,,128,0,13,,,,,6,,,47,100
132416,note_off,,,,,128,0,15,,,,,7,,,59,100
132448,note_off,,,,,0,0,11,,,,,4,,,64,100
132448,note_off,,,,,64,0,11,,,,,4,,,61,100
132480,note_on,,,,,0,0,14,,,,,7,,,71,100
132480,note_on,,,,,64,0,14,,,,,7,,,75,100
132480,note_on,,,,,64,0,13,,,,,6,,,45,81
132480,note_on,,,,,64,0,7,,,,,0,,,71,31
132480,note_on,,,,,64,0,12,,,,,5,,,57,81
132480,note_on,,,,,64,0,10,,,,,3,,,71,81
132480,note_on,,,,,192,0,9,,,,,2,,,75,81
132480,note_on,,,,,0,0,11,,,,,4,,,63,81
132480,note_on,,,,,32,0,11,,,,,4,,,59,81
132480,note_on,,,,,192,0,8,,,,,1,,,75,31
132480,note_on,,,,,64,0,15,,,,,7,,,57,100
132608,note_off,,,,,128,0,14,,,,,7,,,75,100
132608,note_off,,,,,128,0,11,,,,,4,,,59,100
132608,note_off,,,,,128,0,10,,,,,3,,,71,100
132608,note_off,,,,,128,0,12,,,,,5,,,57,100
132608,note_off,,,,,128,0,7,,,,,0,,,71,100
132608,note_off,,,,,128,0,15,,,,,7,,,57,100
132608,note_off,,,,,0,0,14,,,,,7,,,71,100
132608,note_off,,,,,128,0,13,,,,,6,,,45,100
132672,note_on,,,,,64,0,10,,,,,3,,,83,83
132672,note_on,,,,,64,0,7,,,,,0,,,83,33
132672,note_on,,,,,0,0,11,,,,,4,,,66,83
132672,note_on,,,,,64,0,15,,,,,7,,,57,100
132672,note_on,,,,,64,0,12,,,,,5,,,57,83
132672,note_off,,,,,64,0,11,,,,,4,,,63,100
132672,note_on,,,,,64,0,14,,,,,7,,,75,100
132672,note_on,,,,,64,0,13,,,,,6,,,45,83
132672,note_on,,,,,0,0,14,,,,,7,,,71,100
132768,note_on,,,,,96,0,11,,,,,4,,,64,84
132800,note_off,,,,,128,0,13,,,,,6,,,45,100
132800,note_off,,,,,128,0,12,,,,,5,,,57,100
132800,note_off,,,,,128,0,10,,,,,3,,,83,100
132800,note_off,,,,,128,0,14,,,,,7,,,75,100
132800,note_off,,,,,0,0,14,,,,,7,,,71,100
132800,note_off,,,,,128,0,15,,,,,7,,,57,100
132800,note_off,,,,,128,0,7,,,,,0,,,83,100
132832,note_off,,,,,64,0,11,,,,,4,,,64,100
132864,note_on,,,,,64,0,13,,,,,6,,,45,85
132864,note_on,,,,,64,0,7,,,,,0,,,71,35
132864,note_on,,,,,64,0,10,,,,,3,,,71,85
132864,note_on,,,,,64,0,15,,,,,7,,,57,100
132864,note_off,,,,,384,0,8,,,,,1,,,75,100
132864,note_on,,,,,64,0,12,,,,,5,,,57,85
132864,note_on,,,,,32,0,11,,,,,4,,,63,85
132864,note_on,,,,,0,0,14,,,,,7,,,71,100
132864,note_off,,,,,384,0,9,,,,,2,,,75,100
132864,note_on,,,,,64,0,14,,,,,7,,,75,100
132928,note_off,,,,,0,0,11,,,,,4,,,63,100
132928,note_off,,,,,64,0,11,,,,,4,,,66,100
132960,note_on,,,,,32,0,11,,,,,4,,,61,86
132992,note_off,,,,,128,0,7,,,,,0,,,71,100
132992,note_off,,,,,128,0,12,,,,,5,,,57,100
132992,note_off,,,,,128,0,10,,,,,3,,,71,100
132992,note_off,,,,,128,0,15,,,,,7,,,57,100
132992,note_off,,,,,0,0,14,,,,,7,,,71,100
132992,note_off,,,,,128,0,13,,,,,6,,,45,100
132992,note_off,,,,,128,0,14,,,,,7,,,75,100
133024,note_off,,,,,64,0,11,,,,,4,,,61,100
133056,note_on,,,,,64,0,10,,,,,3,,,71,87
133056,note_on,,,,,64,0,13,,,,,6,,,43,87
133056,note_on,,,,,32,0,11,,,,,4,,,67,87
133056,note_on,,,,,192,0,9,,,,,2,,,76,87
133056,note_on,,,,,0,0,11,,,,,4,,,59,87
133056,note_on,,,,,192,0,8,,,,,1,,,76,37
133056,note_on,,,,,64,0,7,,,,,0,,,71,37
133056,note_on,,,,,64,0,12,,,,,5,,,55,87
133056,note_on,,,,,0,0,14,,,,,7,,,71,100
133056,note_on,,,,,64,0,15,,,,,7,,,55,100
133056,note_on,,,,,64,0,14,,,,,7,,,76,100
133184,note_off,,,,,128,0,15,,,,,7,,,55,100
133184,note_off,,,,,128,0,7,,,,,0,,,71,100
133184,note_off,,,,,128,0,14,,,,,7,,,76,100
133184,note_off,,,,,128,0,10,,,,,3,,,71,100
133184,note_off,,,,,0,0,14,,,,,7,,,71,100
133184,note_off,,,,,128,0,12,,,,,5,,,55,100
133184,note_off,,,,,128,0,13,,,,,6,,,43,100
133248,note_on,,,,,64,0,13,,,,,6,,,43,89
133248,note_off,,,,,0,0,11,,,,,4,,,59,100
133248,note_on,,,,,0,0,14,,,,,7,,,71,100
133248,note_on,,,,,64,0,14,,,,,7,,,76,100
133248,note_on,,,,,64,0,7,,,,,0,,,83,39
133248,note_on,,,,,64,0,15,,,,,7,,,55,100
133248,note_on,,,,,64,0,12,,,,,5,,,55,89
133248,note_on,,,,,64,0,10,,,,,3,,,83,89
133248,note_off,,,,,192,0,11,,,,,4,,,67,100
133344,note_on,,,,,96,0,11,,,,,4,,,69,90
133344,note_on,,,,,0,0,11,,,,,4,,,61,90
133376,note_off,,,,,128,0,12,,,,,5,,,55,100
133376,note_off,,,,,128,0,14,,,,,7,,,76,100
133376,note_off,,,,,128,0,13,,,,,6,,,43,100
133376,note_off,,,,,128,0,7,,,,,0,,,83,100
133376,note_off,,,,,128,0,15,,,,,7,,,55,100
133376,note_off,,,,,0,0,14,,,,,7,,,71,100
133376,note_off,,,,,128,0,10,,,,,3,,,83,100
133408,note_off,,,,,64,0,11,,,,,4,,,69,100
133408,note_off,,,,,0,0,11,,,,,4,,,61,100
133440,note_on,,,,,32,0,11,,,,,4,,,67,91
133440,note_on,,,,,0,0,11,,,,,4,,,59,91
133440,note_off,,,,,384,0,9,,,,,2,,,76,100
133440,note_on,,,,,0,0,14,,,,,7,,,71,100
133440,note_on,,,,,64,0,14,,,,,7,,,76,100
133440,note_on,,,,,64,0,13,,,,,6,,,43,91
133440,note_off,,,,,384,0,8,,,,,1,,,76,100
133440,note_on,,,,,64,0,7,,,,,0,,,71,41
133440,note_on,,,,,64,0,12,,,,,5,,,55,91
133440,note_on,,,,,64,0,15,,,,,7,,,55,100
133440,note_on,,,,,64,0,10,,,,,3,,,71,91
133504,note_off,,,,,0,0,11,,,,,4,,,59,100
133504,note_off,,,,,64,0,11,,,,,4,,,67,100
133536,note_on,,,,,32,0,11,,,,,4,,,66,92
133536,note_on,,,,,0,0,11,,,,,4,,,57,92
133568,note_off,,,,,128,0,12,,,,,5,,,55,100
133568,note_off,,,,,128,0,15,,,,,7,,,55,100
133568,note_off,,,,,128,0,7,,,,,0,,,71,100
133568,note_off,,,,,128,0,13,,,,,6,,,43,100
133568,note_off,,,,,128,0,10,,,,,3,,,71,100
133568,note_off,,,,,128,0,14,,,,,7,,,76,100
133568,note_off,,,,,0,0,14,,,,,7,,,71,100
133600,note_off,,,,,64,0,11,,,,,4,,,66,100
133600,note_off,,,,,0,0,11,,,,,4,,,57,100
133632,note_on,,,,,0,0,14,,,,,7,,,71,100
133632,note_on,,,,,64,0,14,,,,,7,,,65,100
133632,note_on,,,,,64,0,13,,,,,6,,,37,93
133632,note_on,,,,,192,0,8,,,,,1,,,77,43
133632,note_on,,,,,64,0,12,,,,,5,,,49,93
133632,note_on,,,,,64,0,7,,,,,0,,,71,43
133632,note_on,,,,,192,0,9,,,,,2,,,77,93
133632,note_on,,,,,0,0,11,,,,,4,,,56,93
133632,note_on,,,,,64,0,15,,,,,7,,,49,100
133632,note_on,,,,,64,0,10,,,,,3,,,71,93
133632,note_on,,,,,32,0,11,,,,,4,,,68,93
133760,note_off,,,,,128,0,15,,,,,7,,,49,100
133760,note_off,,,,,128,0,12,,,,,5,,,49,100
133760,note_off,,,,,128,0,7,,,,,0,,,71,100
133760,note_off,,,,,128,0,10,,,,,3,,,71,100
133760,note_off,,,,,0,0,11,,,,,4,,,56,100
133760,note_off,,,,,128,0,11,,,,,4,,,68,100
133760,note_off,,,,,128,0,13,,,,,6,,,37,100
133760,note_off,,,,,0,0,14,,,,,7,,,71,100
133760,note_off,,,,,128,0,14,,,,,7,,,65,100
133824,note_on,,,,,0,0,11,,,,,4,,,68,95
133824,note_on,,,,,0,0,14,,,,,7,,,71,100
133824,note_on,,,,,64,0,14,,,,,7,,,65,100
133824,note_on,,,,,64,0,11,,,,,4,,,73,95
133824,note_on,,,,,64,0,10,,,,,3,,,83,95
133824,note_on,,,,,64,0,12,,,,,5,,,49,95
133824,note_on,,,,,64,0,15,,,,,7,,,49,100
133824,note_on,,,,,64,0,13,,,,,6,,,37,95
133824,note_on,,,,,64,0,7,,,,,0,,,83,45
133952,note_off,,,,,0,0,11,,,,,4,,,68,100
133952,note_off,,,,,0,0,14,,,,,7,,,71,100
133952,note_off,,,,,128,0,14,,,,,7,,,65,100
133952,note_off,,,,,128,0,13,,,,,6,,,37,100
133952,note_off,,,,,128,0,7,,,,,0,,,83,100
133952,note_off,,,,,128,0,12,,,,,5,,,49,100
133952,note_off,,,,,128,0,10,,,,,3,,,83,100
133952,note_off,,,,,128,0,15,,,,,7,,,49,100
133952,note_off,,,,,128,0,11,,,,,4,,,73,100
134016,note_on,,,,,0,0,11,,,,,4,,,65,97
134016,note_on,,,,,64,0,14,,,,,7,,,65,100
134016,note_on,,,,,64,0,15,,,,,7,,,49,100
134016,note_on,,,,,64,0,7,,,,,0,,,71,47
134016,note_off,,,,,384,0,8,,,,,1,,,77,100
134016,note_on,,,,,64,0,10,,,,,3,,,71,97
134016,note_on,,,,,0,0,14,,,,,7,,,71,100
134016,note_on,,,,,64,0,11,,,,,4,,,68,97
134016,note_off,,,,,384,0,9,,,,,2,,,77,100
134016,note_on,,,,,64,0,13,,,,,6,,,37,97
134016,note_on,,,,,64,0,12,,,,,5,,,49,97
134144,note_off,,,,,0,0,14,,,,,7,,,71,100
134144,note_off,,,,,128,0,11,,,,,4,,,68,100
134144,note_off,,,,,128,0,10,,,,,3,,,71,100
134144,note_off,,,,,128,0,13,,,,,6,,,37,100
134144,note_off,,,,,128,0,15,,,,,7,,,49,100
134144,note_off,,,,,128,0,7,,,,,0,,,71,100
134144,note_off,,,,,0,0,11,,,,,4,,,65,100
134144,note_off,,,,,128,0,14,,,,,7,,,65,100
134144,note_off,,,,,128,0,12,,,,,5,,,49,100
134208,note_on,,,,,192,0,9,,,,,2,,,78,100
134208,note_on,,,,,64,0,12,,,,,5,,,54,100
134208,note_on,,,,,192,0,8,,,,,1,,,78,50
134208,note_on,,,,,64,0,10,,,,,3,,,70,100
134208,note_on,,,,,64,0,15,,,,,7,,,54,100
134208,note_on,,,,,0,0,11,,,,,4,,,61,100
134208,note_on,,,,,64,0,11,,,,,4,,,66,100
134208,note_on,,,,,64,0,13,,,,,6,,,42,100
134208,note_on,,,,,64,0,7,,,,,0,,,70,50
134208,note_on,,,,,0,0,14,,,,,7,,,70,100
134208,note_on,,,,,64,0,14,,,,,7,,,73,100
134272,note_off,,,,,64,0,8,,,,,1,,,78,100
134272,note_off,,,,,64,0,9,,,,,2,,,78,100
134304,note_on,,,,,32,0,8,,,,,1,,,79,45
134304,note_on,,,,,32,0,9,,,,,2,,,79,95
134336,note_off,,,,,0,0,14,,,,,7,,,70,100
134336,note_off,,,,,128,0,12,,,,,5,,,54,100
134336,note_off,,,,,128,0,11,,,,,4,,,66,100
134336,note_off,,,,,128,0,15,,,,,7,,,54,100
134336,note_off,,,,,128,0,13,,,,,6,,,42,100
134336,note_off,,,,,128,0,14,,,,,7,,,73,100
134368,note_off,,,,,64,0,8,,,,,1,,,79,100
134368,note_off,,,,,64,0,9,,,,,2,,,79,100
134400,note_on,,,,,64,0,13,,,,,6,,,46,89
134400,note_on,,,,,64,0,11,,,,,4,,,73,89
134400,note_on,,,,,64,0,12,,,,,5,,,58,89
134400,note_on,,,,,64,0,15,,,,,7,,,58,100
134400,note_on,,,,,32,0,9,,,,,2,,,78,89
134400,note_on,,,,,0,0,14,,,,,7,,,73,100
134400,note_on,,,,,64,0,14,,,,,7,,,78,100
134400,note_on,,,,,32,0,8,,,,,1,,,78,39
134464,note_off,,,,,64,0,8,,,,,1,,,78,100
134464,note_off,,,,,64,0,11,,,,,4,,,61,100
134464,note_off,,,,,256,0,10,,,,,3,,,70,100
134464,note_off,,,,,256,0,7,,,,,0,,,70,100
134464,note_off,,,,,64,0,9,,,,,2,,,78,100
134496,note_on,,,,,32,0,8,,,,,1,,,76,33
134496,note_on,,,,,32,0,9,,,,,2,,,76,83
134528,note_off,,,,,128,0,12,,,,,5,,,58,100
134528,note_off,,,,,128,0,15,,,,,7,,,58,100
134528,note_off,,,,,128,0,14,,,,,7,,,78,100
134528,note_off,,,,,128,0,13,,,,,6,,,46,100
134528,note_off,,,,,64,0,11,,,,,4,,,73,100
134528,note_off,,,,,0,0,14,,,,,7,,,73,100
134560,note_off,,,,,64,0,8,,,,,1,,,76,100
134560,note_off,,,,,64,0,9,,,,,2,,,76,100
134592,note_on,,,,,64,0,12,,,,,5,,,54,77
134592,note_on,,,,,32,0,8,,,,,1,,,74,27
134592,note_on,,,,,32,0,9,,,,,2,,,74,77
134592,note_on,,,,,0,0,14,,,,,7,,,73,100
134592,note_on,,,,,64,0,14,,,,,7,,,70,100
134592,note_on,,,,,64,0,11,,,,,4,,,70,77
134592,note_on,,,,,0,0,11,,,,,4,,,66,77
134592,note_on,,,,,64,0,13,,,,,6,,,42,77
134592,note_on,,,,,64,0,15,,,,,7,,,54,100
134656,note_off,,,,,64,0,8,,,,,1,,,74,100
134656,note_off,,,,,64,0,9,,,,,2,,,74,100
134688,note_on,,,,,32,0,8,,,,,1,,,73,21
134688,note_on,,,,,32,0,9,,,,,2,,,73,71
134720,note_off,,,,,0,0,14,,,,,7,,,73,100
134720,note_off,,,,,128,0,13,,,,,6,,,42,100
134720,note_off,,,,,128,0,15,,,,,7,,,54,100
134720,note_off,,,,,0,0,11,,,,,4,,,66,100
134720,note_off,,,,,128,0,12,,,,,5,,,54,100
134720,note_off,,,,,128,0,14,,,,,7,,,70,100
134720,note_off,,,,,128,0,11,,,,,4,,,70,100
134752,note_off,,,,,64,0,9,,,,,2,,,73,100
134752,note_off,,,,,64,0,8,,,,,1,,,73,100
134784,note_on,,,,,64,0,14,,,,,7,,,66,100
134784,note_on,,,,,0,0,14,,,,,7,,,74,100
134784,note_on,,,,,320,0,10,,,,,3,,,78,80
134784,note_on,,,,,64,0,11,,,,,4,,,71,80
134784,note_on,,,,,0,0,11,,,,,4,,,66,80
134784,note_on,,,,,64,0,12,,,,,5,,,59,80
134784,note_on,,,,,320,0,7,,,,,0,,,78,30
134784,note_on,,,,,32,0,8,,,,,1,,,74,30
134784,note_on,,,,,64,0,13,,,,,6,,,47,80
134784,note_on,,,,,32,0,9,,,,,2,,,74,80
134784,note_on,,,,,64,0,15,,,,,7,,,59,100
134912,note_off,,,,,128,0,9,,,,,2,,,74,100
134912,note_off,,,,,128,0,12,,,,,5,,,59,100
134912,note_off,,,,,128,0,13,,,,,6,,,47,100
134912,note_off,,,,,0,0,14,,,,,7,,,74,100
134912,note_off,,,,,128,0,14,,,,,7,,,66,100
134912,note_off,,,,,128,0,8,,,,,1,,,74,100
134912,note_off,,,,,128,0,15,,,,,7,,,59,100
134976,note_on,,,,,64,0,15,,,,,7,,,59,100
134976,note_on,,,,,0,0,14,,,,,7,,,75,100
134976,note_on,,,,,64,0,9,,,,,2,,,75,81
134976,note_on,,,,,64,0,12,,,,,5,,,59,81
134976,note_off,,,,,192,0,11,,,,,4,,,71,100
134976,note_on,,,,,64,0,14,,,,,7,,,66,100
134976,note_on,,,,,64,0,8,,,,,1,,,75,31
134976,note_on,,,,,64,0,13,,,,,6,,,47,81
135040,note_off,,,,,64,0,11,,,,,4,,,66,100
135072,note_on,,,,,32,0,11,,,,,4,,,73,82
135104,note_off,,,,,128,0,15,,,,,7,,,59,100
135104,note_off,,,,,128,0,14,,,,,7,,,66,100
135104,note_off,,,,,128,0,12,,,,,5,,,59,100
135104,note_off,,,,,128,0,13,,,,,6,,,47,100
135104,note_off,,,,,0,0,14,,,,,7,,,75,100
135136,note_off,,,,,64,0,11,,,,,4,,,73,100
135168,note_on,,,,,0,0,14,,,,,7,,,75,100
135168,note_off,,,,,384,0,7,,,,,0,,,78,100
135168,note_on,,,,,64,0,14,,,,,7,,,66,100
135168,note_off,,,,,384,0,10,,,,,3,,,78,100
135168,note_on,,,,,64,0,13,,,,,6,,,47,83
135168,note_on,,,,,32,0,11,,,,,4,,,71,83
135168,note_on,,,,,64,0,12,,,,,5,,,59,83
135168,note_on,,,,,64,0,15,,,,,7,,,59,100
135232,note_off,,,,,256,0,8,,,,,1,,,75,100
135232,note_off,,,,,256,0,9,,,,,2,,,75,100
135232,note_off,,,,,64,0,11,,,,,4,,,71,100
135264,note_on,,,,,32,0,11,,,,,4,,,69,84
135296,note_off,,,,,0,0,14,,,,,7,,,75,100
135296,note_off,,,,,128,0,14,,,,,7,,,66,100
135296,note_off,,,,,128,0,13,,,,,6,,,47,100
135296,note_off,,,,,128,0,12,,,,,5,,,59,100
135296,note_off,,,,,128,0,15,,,,,7,,,59,100
135328,note_off,,,,,64,0,11,,,,,4,,,69,100
135360,note_on,,,,,64,0,14,,,,,7,,,67,100
135360,note_on,,,,,32,0,11,,,,,4,,,67,85
135360,note_on,,,,,0,0,14,,,,,7,,,76,100
135360,note_on,,,,,0,0,11,,,,,4,,,71,85
135360,note_on,,,,,192,0,7,,,,,0,,,79,35
135360,note_on,,,,,128,0,9,,,,,2,,,76,85
135360,note_on,,,,,64,0,13,,,,,6,,,52,85
135360,note_on,,,,,128,0,8,,,,,1,,,76,35
135360,note_on,,,,,64,0,15,,,,,7,,,64,100
135360,note_on,,,,,64,0,12,,,,,5,,,64,85
135360,note_on,,,,,192,0,10,,,,,3,,,79,85
135488,note_off,,,,,128,0,9,,,,,2,,,76,100
135488,note_off,,,,,128,0,13,,,,,6,,,52,100
135488,note_off,,,,,128,0,15,,,,,7,,,64,100
135488,note_off,,,,,128,0,12,,,,,5,,,64,100
135488,note_off,,,,,0,0,14,,,,,7,,,76,100
135488,note_off,,,,,128,0,14,,,,,7,,,67,100
135488,note_off,,,,,128,0,8,,,,,1,,,76,100
135552,note_on,,,,,0,0,14,,,,,7,,,76,100
135552,note_on,,,,,64,0,14,,,,,7,,,67,100
135552,note_on,,,,,64,0,8,,,,,1,,,64,37
135552,note_on,,,,,64,0,13,,,,,6,,,52,87
135552,note_off,,,,,192,0,11,,,,,4,,,67,100
135552,note_off,,,,,0,0,11,,,,,4,,,71,100
135552,note_on,,,,,64,0,9,,,,,2,,,64,87
135552,note_on,,,,,64,0,12,,,,,5,,,64,87
135552,note_on,,,,,64,0,15,,,,,7,,,64,100
135648,note_on,,,,,0,0,11,,,,,4,,,73,88
135648,note_on,,,,,96,0,11,,,,,4,,,69,88
135680,note_off,,,,,128,0,9,,,,,2,,,64,100
135680,note_off,,,,,128,0,12,,,,,5,,,64,100
135680,note_off,,,,,128,0,14,,,,,7,,,67,100
135680,note_off,,,,,0,0,14,,,,,7,,,76,100
135680,note_off,,,,,128,0,13,,,,,6,,,52,100
135680,note_off,,,,,128,0,15,,,,,7,,,64,100
135680,note_off,,,,,128,0,8,,,,,1,,,64,100
135712,note_off,,,,,0,0,11,,,,,4,,,73,100
135712,note_off,,,,,64,0,11,,,,,4,,,69,100
135744,note_off,,,,,384,0,7,,,,,0,,,79,100
135744,note_on,,,,,64,0,8,,,,,1,,,76,39
135744,note_on,,,,,64,0,9,,,,,2,,,76,89
135744,note_on,,,,,64,0,13,,,,,6,,,52,89
135744,note_on,,,,,0,0,11,,,,,4,,,71,89
135744,note_on,,,,,0,0,14,,,,,7,,,76,100
135744,note_on,,,,,64,0,14,,,,,7,,,67,100
135744,note_on,,,,,32,0,11,,,,,4,,,67,89
135744,note_on,,,,,64,0,12,,,,,5,,,64,89
135744,note_off,,,,,384,0,10,,,,,3,,,79,100
135744,note_on,,,,,64,0,15,,,,,7,,,64,100
135808,note_off,,,,,0,0,11,,,,,4,,,71,100
135808,note_off,,,,,64,0,11,,,,,4,,,67,100
135840,note_on,,,,,32,0,11,,,,,4,,,66,90
135840,note_on,,,,,0,0,11,,,,,4,,,69,90
135872,note_off,,,,,128,0,15,,,,,7,,,64,100
135872,note_off,,,,,128,0,8,,,,,1,,,76,100
135872,note_off,,,,,128,0,12,,,,,5,,,64,100
135872,note_off,,,,,128,0,9,,,,,2,,,76,100
135872,note_off,,,,,128,0,14,,,,,7,,,67,100
135872,note_off,,,,,0,0,14,,,,,7,,,76,100
135872,note_off,,,,,128,0,13,,,,,6,,,52,100
135904,note_off,,,,,0,0,11,,,,,4,,,69,100
135904,note_off,,,,,64,0,11,,,,,4,,,66,100
135936,note_on,,,,,64,0,14,,,,,7,,,68,100
135936,note_on,,,,,64,0,12,,,,,5,,,62,91
135936,note_on,,,,,64,0,13,,,,,6,,,50,91
135936,note_on,,,,,64,0,8,,,,,1,,,76,41
135936,note_on,,,,,192,0,7,,,,,0,,,80,41
135936,note_on,,,,,0,0,14,,,,,7,,,76,100
135936,note_on,,,,,64,0,15,,,,,7,,,62,100
135936,note_on,,,,,192,0,10,,,,,3,,,80,91
135936,note_on,,,,,32,0,11,,,,,4,,,64,91
135936,note_on,,,,,0,0,11,,,,,4,,,68,91
135936,note_on,,,,,64,0,9,,,,,2,,,76,91
136064,note_off,,,,,128,0,11,,,,,4,,,64,100
136064,note_off,,,,,128,0,8,,,,,1,,,76,100
136064,note_off,,,,,128,0,12,,,,,5,,,62,100
136064,note_off,,,,,128,0,15,,,,,7,,,62,100
136064,note_off,,,,,0,0,14,,,,,7,,,76,100
136064,note_off,,,,,128,0,14,,,,,7,,,68,100
136064,note_off,,,,,128,0,9,,,,,2,,,76,100
136064,note_off,,,,,128,0,13,,,,,6,,,50,100
136128,note_on,,,,,64,0,9,,,,,2,,,64,93
136128,note_on,,,,,64,0,12,,,,,5,,,62,93
136128,note_on,,,,,64,0,15,,,,,7,,,62,100
136128,note_on,,,,,64,0,13,,,,,6,,,50,93
136128,note_on,,,,,0,0,11,,,,,4,,,71,93
136128,note_on,,,,,64,0,14,,,,,7,,,68,100
136128,note_off,,,,,64,0,11,,,,,4,,,68,100
136128,note_on,,,,,64,0,8,,,,,1,,,64,43
136128,note_on,,,,,0,0,14,,,,,7,,,76,100
136224,note_on,,,,,96,0,11,,,,,4,,,69,94
136256,note_off,,,,,128,0,13,,,,,6,,,50,100
136256,note_off,,,,,128,0,14,,,,,7,,,68,100
136256,note_off,,,,,128,0,9,,,,,2,,,64,100
136256,note_off,,,,,128,0,12,,,,,5,,,62,100
136256,note_off,,,,,128,0,15,,,,,7,,,62,100
136256,note_off,,,,,0,0,14,,,,,7,,,76,100
136256,note_off,,,,,128,0,8,,,,,1,,,64,100
136288,note_off,,,,,64,0,11,,,,,4,,,69,100
136320,note_on,,,,,64,0,8,,,,,1,,,76,45
136320,note_on,,,,,0,0,14,,,,,7,,,76,100
136320,note_on,,,,,32,0,11,,,,,4,,,68,95
136320,note_off,,,,,384,0,7,,,,,0,,,80,100
136320,note_on,,,,,64,0,15,,,,,7,,,62,100
136320,note_off,,,,,384,0,10,,,,,3,,,80,100
136320,note_on,,,,,64,0,9,,,,,2,,,76,95
136320,note_on,,,,,64,0,12,,,,,5,,,62,95
136320,note_on,,,,,64,0,14,,,,,7,,,68,100
136320,note_on,,,,,64,0,13,,,,,6,,,50,95
136384,note_off,,,,,0,0,11,,,,,4,,,68,100
136384,note_off,,,,,64,0,11,,,,,4,,,71,100
136416,note_on,,,,,32,0,11,,,,,4,,,66,96
136448,note_off,,,,,128,0,13,,,,,6,,,50,100
136448,note_off,,,,,128,0,14,,,,,7,,,68,100
136448,note_off,,,,,0,0,14,,,,,7,,,76,100
136448,note_off,,,,,128,0,12,,,,,5,,,62,100
136448,note_off,,,,,128,0,9,,,,,2,,,76,100
136448,note_off,,,,,128,0,8,,,,,1,,,76,100
136448,note_off,,,,,128,0,15,,,,,7,,,62,100
136480,note_off,,,,,64,0,11,,,,,4,,,66,100
136512,note_on,,,,,64,0,14,,,,,7,,,76,100
136512,note_on,,,,,0,0,14,,,,,7,,,69,100
136512,note_on,,,,,192,0,7,,,,,0,,,81,47
136512,note_on,,,,,0,0,11,,,,,4,,,64,97
136512,note_on,,,,,64,0,8,,,,,1,,,76,47
136512,note_on,,,,,192,0,10,,,,,3,,,81,97
136512,note_on,,,,,64,0,9,,,,,2,,,76,97
136512,note_on,,,,,32,0,11,,,,,4,,,73,97
136512,note_on,,,,,64,0,13,,,,,6,,,49,97
136512,note_on,,,,,64,0,15,,,,,7,,,61,100
136512,note_on,,,,,64,0,12,,,,,5,,,61,97
136640,note_off,,,,,128,0,12,,,,,5,,,61,100
136640,note_off,,,,,128,0,13,,,,,6,,,49,100
136640,note_off,,,,,128,0,8,,,,,1,,,76,100
136640,note_off,,,,,128,0,9,,,,,2,,,76,100
136640,note_off,,,,,0,0,14,,,,,7,,,69,100
136640,note_off,,,,,128,0,15,,,,,7,,,61,100
136640,note_off,,,,,128,0,14,,,,,7,,,76,100
136704,note_on,,,,,64,0,9,,,,,2,,,64,99
136704,note_off,,,,,192,0,11,,,,,4,,,73,100
136704,note_on,,,,,0,0,14,,,,,7,,,69,100
136704,note_on,,,,,64,0,14,,,,,7,,,76,100
136704,note_off,,,,,0,0,11,,,,,4,,,64,100
136704,note_on,,,,,64,0,12,,,,,5,,,61,99
136704,note_on,,,,,64,0,15,,,,,7,,,61,100
136704,note_on,,,,,64,0,8,,,,,1,,,64,49
136704,note_on,,,,,64,0,13,,,,,6,,,49,99
136800,note_on,,,,,0,0,11,,,,,4,,,66,100
136800,note_on,,,,,96,0,11,,,,,4,,,74,100
136832,note_off,,,,,128,0,13,,,,,6,,,49,100
136832,note_off,,,,,0,0,14,,,,,7,,,69,100
136832,note_off,,,,,128,0,14,,,,,7,,,76,100
136832,note_off,,,,,128,0,15,,,,,7,,,61,100
136832,note_off,,,,,128,0,9,,,,,2,,,64,100
136832,note_off,,,,,128,0,8,,,,,1,,,64,100
136832,note_off,,,,,128,0,12,,,,,5,,,61,100
136864,note_off,,,,,0,0,11,,,,,4,,,66,100
136864,note_off,,,,,64,0,11,,,,,4,,,74,100
136896,note_on,,,,,0,0,11,,,,,4,,,64,101
136896,note_on,,,,,32,0,11,,,,,4,,,73,101
136896,note_on,,,,,64,0,14,,,,,7,,,76,100
136896,note_on,,,,,0,0,14,,,,,7,,,69,100
136896,note_off,,,,,384,0,7,,,,,0,,,81,100
136896,note_on,,,,,64,0,13,,,,,6,,,49,101
136896,note_on,,,,,64,0,9,,,,,2,,,76,101
136896,note_on,,,,,64,0,12,,,,,5,,,61,101
136896,note_off,,,,,384,0,10,,,,,3,,,81,100
136896,note_on,,,,,64,0,8,,,,,1,,,76,51
136896,note_on,,,,,64,0,15,,,,,7,,,61,100
136960,note_off,,,,,64,0,11,,,,,4,,,73,100
136960,note_off,,,,,0,0,11,,,,,4,,,64,100
136992,note_on,,,,,32,0,11,,,,,4,,,71,102
136992,note_on,,,,,0,0,11,,,,,4,,,62,102
137024,note_off,,,,,128,0,8,,,,,1,,,76,100
137024,note_off,,,,,128,0,9,,,,,2,,,76,100
137024,note_off,,,,,128,0,13,,,,,6,,,49,100
137024,note_off,,,,,128,0,15,,,,,7,,,61,100
137024,note_off,,,,,0,0,14,,,,,7,,,69,100
137024,note_off,,,,,128,0,14,,,,,7,,,76,100
137024,note_off,,,,,128,0,12,,,,,5,,,61,100
137056,note_off,,,,,0,0,11,,,,,4,,,62,100
137056,note_off,,,,,64,0,11,,,,,4,,,71,100
137088,note_on,,,,,64,0,9,,,,,2,,,76,103
137088,note_on,,,,,192,0,7,,,,,0,,,82,53
137088,note_on,,,,,0,0,11,,,,,4,,,61,103
137088,note_on,,,,,32,0,11,,,,,4,,,70,103
137088,note_on,,,,,64,0,12,,,,,5,,,54,103
137088,note_on,,,,,64,0,13,,,,,6,,,42,103
137088,note_on,,,,,64,0,8,,,,,1,,,76,53
137088,note_on,,,,,192,0,10,,,,,3,,,82,103
137088,note_on,,,,,64,0,14,,,,,7,,,70,100
137088,note_on,,,,,0,0,14,,,,,7,,,76,100
137088,note_on,,,,,64,0,15,,,,,7,,,54,100
137216,note_off,,,,,128,0,12,,,,,5,,,54,100
137216,note_off,,,,,128,0,14,,,,,7,,,70,100
137216,note_off,,,,,0,0,14,,,,,7,,,76,100
137216,note_off,,,,,128,0,9,,,,,2,,,76,100
137216,note_off,,,,,128,0,15,,,,,7,,,54,100
137216,note_off,,,,,128,0,8,,,,,1,,,76,100
137216,note_off,,,,,128,0,11,,,,,4,,,70,100
137216,note_off,,,,,0,0,11,,,,,4,,,61,100
137216,note_off,,,,,128,0,13,,,,,6,,,42,100
137280,note_on,,,,,0,0,14,,,,,7,,,76,100
137280,note_on,,,,,64,0,14,,,,,7,,,70,100
137280,note_on,,,,,64,0,12,,,,,5,,,54,105
137280,note_on,,,,,64,0,8,,,,,1,,,64,55
137280,note_on,,,,,64,0,11,,,,,4,,,73,105
137280,note_on,,,,,0,0,11,,,,,4,,,66,105
137280,note_on,,,,,64,0,15,,,,,7,,,54,100
137280,note_on,,,,,64,0,9,,,,,2,,,64,105
137280,note_on,,,,,64,0,13,,,,,6,,,42,105
137408,note_off,,,,,128,0,13,,,,,6,,,42,100
137408,note_off,,,,,128,0,8,,,,,1,,,64,100
137408,note_off,,,,,128,0,9,,,,,2,,,64,100
137408,note_off,,,,,128,0,11,,,,,4,,,73,100
137408,note_off,,,,,0,0,11,,,,,4,,,66,100
137408,note_off,,,,,128,0,14,,,,,7,,,70,100
137408,note_off,,,,,0,0,14,,,,,7,,,76,100
137408,note_off,,,,,128,0,12,,,,,5,,,54,100
137408,note_off,,,,,128,0,15,,,,,7,,,54,100
137472,note_on,,,,,64,0,15,,,,,7,,,54,100
137472,note_on,,,,,64,0,12,,,,,5,,,54,107
137472,note_on,,,,,0,0,11,,,,,4,,,61,107
137472,note_on,,,,,64,0,11,,,,,4,,,70,107
137472,note_on,,,,,64,0,8,,,,,1,,,76,57
137472,note_on,,,,,64,0,9,,,,,2,,,76,107
137472,note_on,,,,,64,0,13,,,,,6,,,42,107
137472,note_on,,,,,0,0,14,,,,,7,,,76,100
137472,note_on,,,,,64,0,14,,,,,7,,,70,100
137472,note_off,,,,,384,0,10,,,,,3,,,82,100
137472,note_off,,,,,384,0,7,,,,,0,,,82,100
137600,note_off,,,,,128,0,9,,,,,2,,,76,100
137600,note_off,,,,,128,0,12,,,,,5,,,54,100
137600,note_off,,,,,128,0,8,,,,,1,,,76,100
137600,note_off,,,,,128,0,13,,,,,6,,,42,100
137600,note_off,,,,,0,0,11,,,,,4,,,61,100
137600,note_off,,,,,128,0,15,,,,,7,,,54,100
137600,note_off,,,,,128,0,14,,,,,7,,,70,100
137600,note_off,,,,,0,0,14,,,,,7,,,76,100
137600,note_off,,,,,128,0,11,,,,,4,,,70,100
137664,note_on,,,,,192,0,10,,,,,3,,,83,110
137664,note_on,,,,,64,0,15,,,,,7,,,59,100
137664,note_on,,,,,0,0,11,,,,,4,,,59,110
137664,note_on,,,,,192,0,7,,,,,0,,,83,60
137664,note_on,,,,,64,0,11,,,,,4,,,66,110
137664,note_on,,,,,64,0,9,,,,,2,,,74,110
137664,note_on,,,,,0,0,14,,,,,7,,,74,100
137664,note_on,,,,,64,0,8,,,,,1,,,74,60
137664,note_on,,,,,64,0,13,,,,,6,,,47,110
137664,note_on,,,,,64,0,14,,,,,7,,,71,100
137664,note_on,,,,,0,0,14,,,,,7,,,78,100
137664,note_on,,,,,64,0,12,,,,,5,,,59,110
137728,note_off,,,,,64,0,13,,,,,6,,,47,100
137728,note_off,,,,,64,0,8,,,,,1,,,74,100
137728,note_off,,,,,64,0,10,,,,,3,,,83,100
137728,note_off,,,,,64,0,15,,,,,7,,,59,100
137728,note_off,,,,,0,0,11,,,,,4,,,59,100
137728,note_off,,,,,64,0,11,,,,,4,,,66,100
137728,note_off,,,,,64,0,9,,,,,2,,,74,100
137728,note_off,,,,,64,0,7,,,,,0,,,83,100
137728,note_off,,,,,64,0,12,,,,,5,,,59,100
137760,note_on,,,,,32,0,7,,,,,0,,,83,60
137760,note_on,,,,,32,0,8,,,,,1,,,74,60
137760,note_on,,,,,32,0,13,,,,,6,,,35,110
137760,note_on,,,,,32,0,12,,,,,5,,,47,110
137760,note_on,,,,,32,0,9,,,,,2,,,74,110
137760,note_on,,,,,32,0,10,,,,,3,,,83,110
137760,note_on,,,,,32,0,11,,,,,4,,,66,110
137760,note_on,,,,,32,0,15,,,,,7,,,47,100
137760,note_on,,,,,0,0,11,,,,,4,,,59,110
137792,note_off,,,,,0,0,14,,,,,7,,,74,100
137792,note_off,,,,,0,0,14,,,,,7,,,78,100
137792,note_off,,,,,128,0,14,,,,,7,,,71,100
137824,note_off,,,,,64,0,12,,,,,5,,,47,100
137824,note_off,,,,,0,0,11,,,,,4,,,59,100
137824,note_off,,,,,64,0,13,,,,,6,,,35,100
137824,note_off,,,,,64,0,11,,,,,4,,,66,100
137824,note_off,,,,,64,0,10,,,,,3,,,83,100
137824,note_off,,,,,64,0,7,,,,,0,,,83,100
137824,note_off,,,,,64,0,8,,,,,1,,,74,100
137824,note_off,,,,,64,0,9,,,,,2,,,74,100
137824,note_off,,,,,64,0,15,,,,,7,,,47,100
137856,note_on,,,,,32,0,8,,,,,1,,,74,60
137856,note_on,,,,,32,0,10,,,,,3,,,83,110
137856,note_on,,,,,32,0,12,,,,,5,,,47,110
137856,note_on,,,,,32,0,9,,,,,2,,,74,110
137856,note_on,,,,,32,0,13,,,,,6,,,35,110
137856,note_on,,,,,0,0,11,,,,,4,,,59,110
137856,note_on,,,,,32,0,11,,,,,4,,,66,110
137856,note_on,,,,,32,0,15,,,,,7,,,47,100
137856,note_on,,,,,0,0,14,,,,,7,,,66,100
137856,note_on,,,,,64,0,14,,,,,7,,,62,100
137856,note_on,,,,,32,0,7,,,,,0,,,83,60
137920,note_off,,,,,64,0,9,,,,,2,,,74,100
137920,note_off,,,,,64,0,7,,,,,0,,,83,100
137920,note_off,,,,,64,0,12,,,,,5,,,47,100
137920,note_off,,,,,64,0,10,,,,,3,,,83,100
137920,note_off,,,,,0,0,11,,,,,4,,,59,100
137920,note_off,,,,,64,0,8,,,,,1,,,74,100
137920,note_off,,,,,64,0,15,,,,,7,,,47,100
137920,note_off,,,,,64,0,11,,,,,4,,,66,100
137920,note_off,,,,,64,0,13,,,,,6,,,35,100
137952,note_on,,,,,32,0,9,,,,,2,,,74,110
137952,note_on,,,,,32,0,11,,,,,4,,,66,110
137952,note_on,,,,,32,0,13,,,,,6,,,35,110
137952,note_on,,,,,32,0,15,,,,,7,,,47,100
137952,note_on,,,,,32,0,7,,,,,0,,,83,60
137952,note_on,,,,,32,0,10,,,,,3,,,83,110
137952,note_on,,,,,0,0,11,,,,,4,,,59,110
137952,note_on,,,,,32,0,12,,,,,5,,,47,110
137952,note_on,,,,,32,0,8,,,,,1,,,74,60
137984,note_off,,,,,0,0,14,,,,,7,,,66,100
137984,note_off,,,,,128,0,14,,,,,7,,,62,100
138016,note_off,,,,,64,0,9,,,,,2,,,74,100
138016,note_off,,,,,64,0,15,,,,,7,,,47,100
138016,note_off,,,,,64,0,10,,,,,3,,,83,100
138016,note_off,,,,,64,0,12,,,,,5,,,47,100
138016,note_off,,,,,64,0,11,,,,,4,,,66,100
138016,note_off,,,,,0,0,11,,,,,4,,,59,100
138016,note_off,,,,,64,0,7,,,,,0,,,83,100
138016,note_off,,,,,64,0,8,,,,,1,,,74,100
138016,note_off,,,,,64,0,13,,,,,6,,,35,100
138048,note_on,,,,,32,0,11,,,,,4,,,66,110
138048,note_on,,,,,0,0,11,,,,,4,,,62,110
138048,note_on,,,,,32,0,10,,,,,3,,,83,110
138048,note_on,,,,,32,0,7,,,,,0,,,83,60
138048,note_on,,,,,64,0,14,,,,,7,,,62,100
138048,note_on,,,,,32,0,15,,,,,7,,,47,100
138048,note_on,,,,,32,0,8,,,,,1,,,74,60
138048,note_on,,,,,32,0,13,,,,,6,,,35,110
138048,note_on,,,,,32,0,9,,,,,2,,,74,110
138048,note_on,,,,,0,0,14,,,,,7,,,66,100
138048,note_on,,,,,32,0,12,,,,,5,,,47,110
138112,note_off,,,,,64,0,8,,,,,1,,,74,100
138112,note_off,,,,,64,0,11,,,,,4,,,66,100
138112,note_off,,,,,0,0,11,,,,,4,,,62,100
138112,note_off,,,,,64,0,13,,,,,6,,,35,100
138112,note_off,,,,,64,0,15,,,,,7,,,47,100
138112,note_off,,,,,64,0,7,,,,,0,,,83,100
138112,note_off,,,,,64,0,10,,,,,3,,,83,100
138112,note_off,,,,,64,0,9,,,,,2,,,74,100
138112,note_off,,,,,64,0,12,,,,,5,,,47,100
138144,note_on,,,,,32,0,13,,,,,6,,,35,110
138144,note_on,,,,,0,0,11,,,,,4,,,62,110
138144,note_on,,,,,32,0,10,,,,,3,,,83,110
138144,note_on,,,,,32,0,12,,,,,5,,,47,110
138144,note_on,,,,,32,0,8,,,,,1,,,74,60
138144,note_on,,,,,32,0,9,,,,,2,,,74,110
138144,note_on,,,,,32,0,15,,,,,7,,,47,100
138144,note_on,,,,,32,0,11,,,,,4,,,66,110
138144,note_on,,,,,32,0,7,,,,,0,,,83,60
138176,note_off,,,,,0,0,14,,,,,7,,,66,100
138176,note_off,,,,,128,0,14,,,,,7,,,62,100
138208,note_off,,,,,64,0,11,,,,,4,,,66,100
138208,note_off,,,,,0,0,11,,,,,4,,,62,100
138208,note_off,,,,,64,0,15,,,,,7,,,47,100
138208,note_off,,,,,64,0,12,,,,,5,,,47,100
138208,note_off,,,,,64,0,9,,,,,2,,,74,100
138208,note_off,,,,,64,0,7,,,,,0,,,83,100
138208,note_off,,,,,64,0,10,,,,,3,,,83,100
138208,note_off,,,,,64,0,13,,,,,6,,,35,100
138208,note_off,,,,,64,0,8,,,,,1,,,74,100
138240,note_on,,,,,32,0,12,,,,,5,,,52,110
138240,note_on,,,,,32,0,8,,,,,1,,,73,60
138240,note_on,,,,,0,0,14,,,,,7,,,71,100
138240,note_on,,,,,32,0,7,,,,,0,,,83,60
138240,note_on,,,,,32,0,10,,,,,3,,,83,110
138240,note_on,,,,,32,0,15,,,,,7,,,52,100
138240,note_on,,,,,32,0,13,,,,,6,,,40,110
138240,note_on,,,,,32,0,11,,,,,4,,,67,110
138240,note_on,,,,,64,0,14,,,,,7,,,73,100
138240,note_on,,,,,0,0,11,,,,,4,,,64,110
138240,note_on,,,,,32,0,9,,,,,2,,,73,110
138304,note_off,,,,,64,0,15,,,,,7,,,52,100
138304,note_off,,,,,64,0,7,,,,,0,,,83,100
138304,note_off,,,,,64,0,13,,,,,6,,,40,100
138304,note_off,,,,,64,0,11,,,,,4,,,67,100
138304,note_off,,,,,64,0,8,,,,,1,,,73,100
138304,note_off,,,,,64,0,10,,,,,3,,,83,100
138304,note_off,,,,,64,0,12,,,,,5,,,52,100
138304,note_off,,,,,64,0,9,,,,,2,,,73,100
138304,note_off,,,,,0,0,11,,,,,4,,,64,100
138336,note_on,,,,,32,0,15,,,,,7,,,52,100
138336,note_on,,,,,32,0,9,,,,,2,,,73,110
138336,note_on,,,,,32,0,13,,,,,6,,,40,110
138336,note_on,,,,,0,0,11,,,,,4,,,64,110
138336,note_on,,,,,32,0,12,,,,,5,,,52,110
138336,note_on,,,,,32,0,7,,,,,0,,,83,60
138336,note_on,,,,,32,0,8,,,,,1,,,73,60
138336,note_on,,,,,32,0,11,,,,,4,,,67,110
138336,note_on,,,,,32,0,10,,,,,3,,,83,110
138368,note_off,,,,,0,0,14,,,,,7,,,71,100
138368,note_off,,,,,128,0,14,,,,,7,,,73,100
138400,note_off,,,,,64,0,11,,,,,4,,,67,100
138400,note_off,,,,,0,0,11,,,,,4,,,64,100
138400,note_off,,,,,64,0,7,,,,,0,,,83,100
138400,note_off,,,,,64,0,13,,,,,6,,,40,100
138400,note_off,,,,,64,0,12,,,,,5,,,52,100
138400,note_off,,,,,64,0,10,,,,,3,,,83,100
138400,note_off,,,,,64,0,8,,,,,1,,,73,100
138400,note_off,,,,,64,0,15,,,,,7,,,52,100
138400,note_off,,,,,64,0,9,,,,,2,,,73,100
138432,note_on,,,,,32,0,15,,,,,7,,,52,100
138432,note_on,,,,,32,0,7,,,,,0,,,83,60
138432,note_on,,,,,32,0,9,,,,,2,,,73,110
138432,note_on,,,,,32,0,11,,,,,4,,,67,110
138432,note_on,,,,,0,0,11,,,,,4,,,64,110
138432,note_on,,,,,32,0,13,,,,,6,,,40,110
138432,note_on,,,,,32,0,12,,,,,5,,,52,110
138432,note_on,,,,,32,0,10,,,,,3,,,83,110
138432,note_on,,,,,32,0,8,,,,,1,,,73,60
138432,note_on,,,,,64,0,14,,,,,7,,,73,100
138432,note_on,,,,,0,0,14,,,,,7,,,71,100
138496,note_off,,,,,0,0,11,,,,,4,,,64,100
138496,note_off,,,,,64,0,11,,,,,4,,,67,100
138496,note_off,,,,,64,0,15,,,,,7,,,52,100
138496,note_off,,,,,64,0,13,,,,,6,,,40,100
138496,note_off,,,,,64,0,9,,,,,2,,,73,100
138496,note_off,,,,,64,0,10,,,,,3,,,83,100
138496,note_off,,,,,64,0,7,,,,,0,,,83,100
138496,note_off,,,,,64,0,12,,,,,5,,,52,100
138496,note_off,,,,,64,0,8,,,,,1,,,73,100
138528,note_on,,,,,32,0,12,,,,,5,,,52,110
138528,note_on,,,,,32,0,7,,,,,0,,,83,60
138528,note_on,,,,,32,0,10,,,,,3,,,83,110
138528,note_on,,,,,32,0,9,,,,,2,,,73,110
138528,note_on,,,,,0,0,11,,,,,4,,,64,110
138528,note_on,,,,,32,0,11,,,,,4,,,67,110
138528,note_on,,,,,32,0,15,,,,,7,,,52,100
138528,note_on,,,,,32,0,8,,,,,1,,,73,60
138528,note_on,,,,,32,0,13,,,,,6,,,40,110
138560,note_off,,,,,0,0,14,,,,,7,,,71,100
138560,note_off,,,,,128,0,14,,,,,7,,,73,100
138592,note_off,,,,,64,0,7,,,,,0,,,83,100
138592,note_off,,,,,64,0,12,,,,,5,,,52,100
138592,note_off,,,,,0,0,11,,,,,4,,,64,100
138592,note_off,,,,,64,0,9,,,,,2,,,73,100
138592,note_off,,,,,64,0,13,,,,,6,,,40,100
138592,note_off,,,,,64,0,15,,,,,7,,,52,100
138592,note_off,,,,,64,0,8,,,,,1,,,73,100
138592,note_off,,,,,64,0,10,,,,,3,,,83,100
138592,note_off,,,,,64,0,11,,,,,4,,,67,100
138624,note_on,,,,,32,0,7,,,,,0,,,83,60
138624,note_on,,,,,32,0,10,,,,,3,,,83,110
138624,note_on,,,,,32,0,12,,,,,5,,,52,110
138624,note_on,,,,,32,0,9,,,,,2,,,73,110
138624,note_on,,,,,0,0,14,,,,,7,,,71,100
138624,note_on,,,,,32,0,13,,,,,6,,,40,110
138624,note_on,,,,,32,0,8,,,,,1,,,73,60
138624,note_on,,,,,64,0,14,,,,,7,,,73,100
138624,note_on,,,,,32,0,11,,,,,4,,,67,110
138624,note_on,,,,,32,0,15,,,,,7,,,52,100
138688,note_off,,,,,64,0,10,,,,,3,,,83,100
138688,note_off,,,,,64,0,9,,,,,2,,,73,100
138688,note_off,,,,,64,0,11,,,,,4,,,67,100
138688,note_off,,,,,64,0,13,,,,,6,,,40,100
138688,note_off,,,,,64,0,8,,,,,1,,,73,100
138688,note_off,,,,,64,0,12,,,,,5,,,52,100
138688,note_off,,,,,64,0,15,,,,,7,,,52,100
138688,note_off,,,,,64,0,7,,,,,0,,,83,100
138720,note_on,,,,,32,0,8,,,,,1,,,73,60
138720,note_on,,,,,32,0,7,,,,,0,,,83,60
138720,note_on,,,,,32,0,15,,,,,7,,,52,100
138720,note_on,,,,,32,0,10,,,,,3,,,83,110
138720,note_on,,,,,32,0,11,,,,,4,,,67,110
138720,note_on,,,,,32,0,9,,,,,2,,,73,110
138720,note_on,,,,,32,0,13,,,,,6,,,40,110
138720,note_on,,,,,32,0,12,,,,,5,,,52,110
138752,note_off,,,,,0,0,14,,,,,7,,,71,100
138752,note_off,,,,,128,0,14,,,,,7,,,73,100
138784,note_off,,,,,64,0,11,,,,,4,,,67,100
138784,note_off,,,,,64,0,8,,,,,1,,,73,100
138784,note_off,,,,,64,0,12,,,,,5,,,52,100
138784,note_off,,,,,64,0,13,,,,,6,,,40,100
138784,note_off,,,,,64,0,9,,,,,2,,,73,100
138784,note_off,,,,,64,0,15,,,,,7,,,52,100
138784,note_off,,,,,64,0,7,,,,,0,,,83,100
138784,note_off,,,,,64,0,10,,,,,3,,,83,100
138816,note_on,,,,,32,0,12,,,,,5,,,54,110
138816,note_on,,,,,0,0,11,,,,,4,,,61,110
138816,note_on,,,,,32,0,11,,,,,4,,,66,110
138816,note_on,,,,,32,0,15,,,,,7,,,54,100
138816,note_on,,,,,0,0,14,,,,,7,,,73,100
138816,note_on,,,,,64,0,14,,,,,7,,,70,100
138816,note_on,,,,,32,0,10,,,,,3,,,82,110
138816,note_on,,,,,32,0,7,,,,,0,,,82,60
138816,note_on,,,,,32,0,8,,,,,1,,,73,60
138816,note_on,,,,,32,0,9,,,,,2,,,73,110
138816,note_on,,,,,32,0,13,,,,,6,,,42,110
138880,note_off,,,,,64,0,8,,,,,1,,,73,100
138880,note_off,,,,,0,0,11,,,,,4,,,61,100
138880,note_off,,,,,64,0,12,,,,,5,,,54,100
138880,note_off,,,,,64,0,11,,,,,4,,,66,100
138880,note_off,,,,,64,0,9,,,,,2,,,73,100
138880,note_off,,,,,64,0,10,,,,,3,,,82,100
138880,note_off,,,,,64,0,7,,,,,0,,,82,100
138880,note_off,,,,,64,0,15,,,,,7,,,54,100
138880,note_off,,,,,64,0,13,,,,,6,,,42,100
138912,note_on,,,,,32,0,7,,,,,0,,,82,60
138912,note_on,,,,,32,0,11,,,,,4,,,66,110
138912,note_on,,,,,32,0,15,,,,,7,,,54,100
138912,note_on,,,,,32,0,12,,,,,5,,,54,110
138912,note_on,,,,,32,0,13,,,,,6,,,42,110
138912,note_on,,,,,0,0,11,,,,,4,,,61,110
138912,note_on,,,,,32,0,8,,,,,1,,,73,60
138912,note_on,,,,,32,0,9,,,,,2,,,73,110
138912,note_on,,,,,32,0,10,,,,,3,,,82,110
138944,note_off,,,,,128,0,14,,,,,7,,,70,100
138944,note_off,,,,,0,0,14,,,,,7,,,73,100
138976,note_off,,,,,64,0,10,,,,,3,,,82,100
138976,note_off,,,,,64,0,8,,,,,1,,,73,100
138976,note_off,,,,,64,0,13,,,,,6,,,42,100
138976,note_off,,,,,0,0,11,,,,,4,,,61,100
138976,note_off,,,,,64,0,12,,,,,5,,,54,100
138976,note_off,,,,,64,0,11,,,,,4,,,66,100
138976,note_off,,,,,64,0,15,,,,,7,,,54,100
138976,note_off,,,,,64,0,7,,,,,0,,,82,100
138976,note_off,,,,,64,0,9,,,,,2,,,73,100
139008,note_on,,,,,0,0,14,,,,,7,,,73,100
139008,note_on,,,,,0,0,11,,,,,4,,,61,110
139008,note_on,,,,,32,0,12,,,,,5,,,54,110
139008,note_on,,,,,32,0,10,,,,,3,,,82,110
139008,note_on,,,,,32,0,15,,,,,7,,,54,100
139008,note_on,,,,,32,0,11,,,,,4,,,66,110
139008,note_on,,,,,0,0,11,,,,,4,,,66,110
139008,note_on,,,,,32,0,9,,,,,2,,,73,110
139008,note_on,,,,,32,0,13,,,,,6,,,42,110
139008,note_on,,,,,32,0,7,,,,,0,,,82,60
139008,note_on,,,,,32,0,8,,,,,1,,,73,60
139008,note_on,,,,,64,0,14,,,,,7,,,70,100
139072,note_off,,,,,64,0,10,,,,,3,,,82,100
139072,note_off,,,,,64,0,13,,,,,6,,,42,100
139072,note_off,,,,,64,0,7,,,,,0,,,82,100
139072,note_off,,,,,64,0,9,,,,,2,,,73,100
139072,note_off,,,,,64,0,12,,,,,5,,,54,100
139072,note_off,,,,,64,0,11,,,,,4,,,66,100
139072,note_off,,,,,0,0,11,,,,,4,,,66,100
139072,note_off,,,,,0,0,11,,,,,4,,,61,100
139072,note_off,,,,,64,0,15,,,,,7,,,54,100
139072,note_off,,,,,64,0,8,,,,,1,,,73,100
139104,note_on,,,,,32,0,10,,,,,3,,,82,110
139104,note_on,,,,,32,0,7,,,,,0,,,82,60
139104,note_on,,,,,32,0,9,,,,,2,,,73,110
139104,note_on,,,,,32,0,13,,,,,6,,,42,110
139104,note_on,,,,,32,0,11,,,,,4,,,61,110
139104,note_on,,,,,32,0,12,,,,,5,,,54,110
139104,note_on,,,,,32,0,8,,,,,1,,,73,60
139104,note_on,,,,,32,0,15,,,,,7,,,54,100
139136,note_off,,,,,0,0,14,,,,,7,,,73,100
139136,note_off,,,,,128,0,14,,,,,7,,,70,100
139168,note_off,,,,,64,0,11,,,,,4,,,61,100
139168,note_off,,,,,64,0,8,,,,,1,,,73,100
139168,note_off,,,,,64,0,13,,,,,6,,,42,100
139168,note_off,,,,,64,0,9,,,,,2,,,73,100
139168,note_off,,,,,64,0,10,,,,,3,,,82,100
139168,note_off,,,,,64,0,7,,,,,0,,,82,100
139168,note_off,,,,,64,0,15,,,,,7,,,54,100
139168,note_off,,,,,64,0,12,,,,,5,,,54,100
139200,note_on,,,,,32,0,11,,,,,4,,,66,110
139200,note_on,,,,,32,0,8,,,,,1,,,73,60
139200,note_on,,,,,32,0,7,,,,,0,,,82,60
139200,note_on,,,,,0,0,14,,,,,7,,,73,100
139200,note_on,,,,,32,0,12,,,,,5,,,54,110
139200,note_on,,,,,32,0,15,,,,,7,,,54,100
139200,note_on,,,,,32,0,10,,,,,3,,,82,110
139200,note_on,,,,,32,0,9,,,,,2,,,73,110
139200,note_on,,,,,64,0,14,,,,,7,,,70,100
139200,note_on,,,,,32,0,13,,,,,6,,,42,110
139264,note_off,,,,,64,0,13,,,,,6,,,42,100
139264,note_off,,,,,64,0,12,,,,,5,,,54,100
139264,note_off,,,,,64,0,15,,,,,7,,,54,100
139264,note_off,,,,,64,0,7,,,,,0,,,82,100
139264,note_off,,,,,64,0,11,,,,,4,,,66,100
139264,note_off,,,,,64,0,8,,,,,1,,,73,100
139264,note_off,,,,,64,0,10,,,,,3,,,82,100
139264,note_off,,,,,64,0,9,,,,,2,,,73,100
139296,note_on,,,,,32,0,8,,,,,1,,,73,60
139296,note_on,,,,,32,0,10,,,,,3,,,82,110
139296,note_on,,,,,32,0,12,,,,,5,,,54,110
139296,note_on,,,,,32,0,9,,,,,2,,,73,110
139296,note_on,,,,,32,0,11,,,,,4,,,66,110
139296,note_on,,,,,32,0,13,,,,,6,,,42,110
139296,note_on,,,,,32,0,15,,,,,7,,,54,100
139296,note_on,,,,,32,0,7,,,,,0,,,82,60
139328,note_off,,,,,128,0,14,,,,,7,,,70,100
139328,note_off,,,,,0,0,14,,,,,7,,,73,100
139360,note_off,,,,,64,0,9,,,,,2,,,73,100
139360,note_off,,,,,64,0,7,,,,,0,,,82,100
139360,note_off,,,,,64,0,11,,,,,4,,,66,100
139360,note_off,,,,,64,0,15,,,,,7,,,54,100
139360,note_off,,,,,64,0,12,,,,,5,,,54,100
139360,note_off,,,,,64,0,10,,,,,3,,,82,100
139360,note_off,,,,,64,0,8,,,,,1,,,73,100
139360,note_off,,,,,64,0,13,,,,,6,,,42,100
139392,note_on,,,,,64,0,14,,,,,7,,,66,100
139392,note_on,,,,,32,0,10,,,,,3,,,83,110
139392,note_on,,,,,32,0,9,,,,,2,,,71,110
139392,note_on,,,,,32,0,8,,,,,1,,,71,60
139392,note_on,,,,,32,0,15,,,,,7,,,47,100
139392,note_on,,,,,0,0,14,,,,,7,,,74,100
139392,note_on,,,,,32,0,12,,,,,5,,,47,110
139392,note_on,,,,,32,0,13,,,,,6,,,35,110
139392,note_on,,,,,0,0,11,,,,,4,,,62,110
139392,note_on,,,,,32,0,7,,,,,0,,,83,60
139392,note_on,,,,,32,0,11,,,,,4,,,66,110
139648,note_off,,,,,256,0,12,,,,,5,,,47,100
139648,note_off,,,,,256,0,7,,,,,0,,,83,100
139648,note_off,,,,,0,0,11,,,,,4,,,62,100
139648,note_off,,,,,256,0,15,,,,,7,,,47,100
139648,note_off,,,,,256,0,13,,,,,6,,,35,100
139648,note_off,,,,,256,0,10,,,,,3,,,83,100
139648,note_off,,,,,0,0,14,,,,,7,,,74,100
139648,note_off,,,,,256,0,9,,,,,2,,,71,100
139648,note_off,,,,,256,0,14,,,,,7,,,66,100
139648,note_off,,,,,256,0,8,,,,,1,,,71,100
139648,note_off,,,,,256,0,11,,,,,4,,,66,100
139968,note_on,,,,,320,0,11,,,,,4,,,66,115
139968,note_on,,,,,0,0,11,,,,,4,,,59,115
139968,note_on,,,,,320,0,10,,,,,3,,,71,75
139968,note_on,,,,,320,0,9,,,,,2,,,74,75
139968,note_on,,,,,320,0,8,,,,,1,,,71,115
139968,note_on,,,,,320,0,15,,,,,7,,,47,100
139968,note_on,,,,,320,0,12,,,,,5,,,47,115
139968,set_tempo,,,,,138816,1,0,,500000,,,,,,,
139968,note_on,,,,,320,0,7,,,,,0,,,74,115
139968,note_on,,,,,320,0,13,,,,,6,,,35,115
139968,note_on,,,,,320,0,14,,,,,7,,,62,100
139968,note_on,,,,,0,0,14,,,,,7,,,66,100
139982,set_tempo,,,,,14,1,0,,504201,,,,,,,
139996,set_tempo,,,,,14,1,0,,504201,,,,,,,
140010,set_tempo,,,,,14,1,0,,508474,,,,,,,
140024,set_tempo,,,,,14,1,0,,508474,,,,,,,
140032,note_off,,,,,64,0,13,,,,,6,,,35,100
140032,note_off,,,,,64,0,7,,,,,0,,,74,100
140032,note_off,,,,,64,0,11,,,,,4,,,66,100
140032,note_off,,,,,64,0,12,,,,,5,,,47,100
140032,note_off,,,,,64,0,9,,,,,2,,,74,100
140032,note_off,,,,,64,0,15,,,,,7,,,47,100
140032,note_off,,,,,64,0,10,,,,,3,,,71,100
140032,note_off,,,,,0,0,11,,,,,4,,,59,100
140032,note_off,,,,,64,0,8,,,,,1,,,71,100
140040,set_tempo,,,,,16,1,0,,512820,,,,,,,
140054,set_tempo,,,,,14,1,0,,512820,,,,,,,
140064,note_on,,,,,0,0,11,,,,,4,,,59,115
140064,note_on,,,,,32,0,7,,,,,0,,,74,115
140064,note_on,,,,,32,0,11,,,,,4,,,66,115
140064,note_on,,,,,32,0,13,,,,,6,,,35,115
140064,note_on,,,,,32,0,9,,,,,2,,,74,75
140064,note_on,,,,,32,0,15,,,,,7,,,47,100
140064,note_on,,,,,32,0,12,,,,,5,,,47,115
140064,note_on,,,,,32,0,8,,,,,1,,,71,115
140064,note_on,,,,,32,0,10,,,,,3,,,71,75
140068,set_tempo,,,,,14,1,0,,517241,,,,,,,
140082,set_tempo,,,,,14,1,0,,517241,,,,,,,
140096,note_off,,,,,128,0,14,,,,,7,,,62,100
140096,note_off,,,,,0,0,14,,,,,7,,,66,100
140096,set_tempo,,,,,14,1,0,,521739,,,,,,,
140112,set_tempo,,,,,16,1,0,,521739,,,,,,,
140126,set_tempo,,,,,14,1,0,,526315,,,,,,,
140128,note_off,,,,,64,0,10,,,,,3,,,71,100
140128,note_off,,,,,64,0,8,,,,,1,,,71,100
140128,note_off,,,,,0,0,11,,,,,4,,,59,100
140128,note_off,,,,,64,0,15,,,,,7,,,47,100
140128,note_off,,,,,64,0,9,,,,,2,,,74,100
140128,note_off,,,,,64,0,12,,,,,5,,,47,100
140128,note_off,,,,,64,0,13,,,,,6,,,35,100
140128,note_off,,,,,64,0,11,,,,,4,,,66,100
140128,note_off,,,,,64,0,7,,,,,0,,,74,100
140140,set_tempo,,,,,14,1,0,,526315,,,,,,,
140154,set_tempo,,,,,14,1,0,,530973,,,,,,,
140160,note_on,,,,,32,0,13,,,,,6,,,35,115
140160,note_on,,,,,32,0,12,,,,,5,,,47,115
140160,note_on,,,,,32,0,9,,,,,2,,,74,75
140160,note_on,,,,,32,0,11,,,,,4,,,66,115
140160,note_on,,,,,32,0,10,,,,,3,,,71,75
140160,note_on,,,,,0,0,11,,,,,4,,,59,115
140160,note_on,,,,,0,0,14,,,,,7,,,66,100
140160,note_on,,,,,32,0,7,,,,,0,,,74,115
140160,note_on,,,,,32,0,8,,,,,1,,,71,115
140160,note_on,,,,,64,0,14,,,,,7,,,62,100
140160,note_on,,,,,32,0,15,,,,,7,,,47,100
140168,set_tempo,,,,,14,1,0,,530973,,,,,,,
140184,set_tempo,,,,,16,1,0,,535714,,,,,,,
140198,set_tempo,,,,,14,1,0,,535714,,,,,,,
140212,set_tempo,,,,,14,1,0,,540540,,,,,,,
140224,note_off,,,,,64,0,12,,,,,5,,,47,100
140224,note_off,,,,,64,0,15,,,,,7,,,47,100
140224,note_off,,,,,64,0,13,,,,,6,,,35,100
140224,note_off,,,,,64,0,8,,,,,1,,,71,100
140224,note_off,,,,,64,0,11,,,,,4,,,66,100
140224,note_off,,,,,64,0,9,,,,,2,,,74,100
140224,note_off,,,,,0,0,11,,,,,4,,,59,100
140224,note_off,,,,,64,0,7,,,,,0,,,74,100
140224,note_off,,,,,64,0,10,,,,,3,,,71,100
140226,set_tempo,,,,,14,1,0,,540540,,,,,,,
140240,set_tempo,,,,,14,1,0,,545454,,,,,,,
140256,note_on,,,,,32,0,11,,,,,4,,,66,115
140256,note_on,,,,,32,0,13,,,,,6,,,35,115
140256,note_on,,,,,0,0,11,,,,,4,,,59,115
140256,note_on,,,,,32,0,12,,,,,5,,,47,115
140256,set_tempo,,,,,16,1,0,,545454,,,,,,,
140256,note_on,,,,,32,0,9,,,,,2,,,74,75
140256,note_on,,,,,32,0,8,,,,,1,,,71,115
140256,note_on,,,,,32,0,10,,,,,3,,,71,75
140256,note_on,,,,,32,0,15,,,,,7,,,47,100
140256,note_on,,,,,32,0,7,,,,,0,,,74,115
140270,set_tempo,,,,,14,1,0,,550458,,,,,,,
140284,set_tempo,,,,,14,1,0,,550458,,,,,,,
140288,note_off,,,,,128,0,14,,,,,7,,,62,100
140288,note_off,,,,,0,0,14,,,,,7,,,66,100
140298,set_tempo,,,,,14,1,0,,555555,,,,,,,
140312,set_tempo,,,,,14,1,0,,555555,,,,,,,
140320,note_off,,,,,64,0,12,,,,,5,,,47,100
140320,note_off,,,,,64,0,9,,,,,2,,,74,100
140320,note_off,,,,,64,0,10,,,,,3,,,71,100
140320,note_off,,,,,64,0,8,,,,,1,,,71,100
140320,note_off,,,,,64,0,7,,,,,0,,,74,100
140320,note_off,,,,,64,0,15,,,,,7,,,47,100
140320,note_off,,,,,64,0,11,,,,,4,,,66,100
140320,note_off,,,,,0,0,11,,,,,4,,,59,100
140320,note_off,,,,,64,0,13,,,,,6,,,35,100
140328,set_tempo,,,,,16,1,0,,560747,,,,,,,
140342,set_tempo,,,,,14,1,0,,560747,,,,,,,
140352,note_on,,,,,64,0,14,,,,,7,,,62,100
140352,note_on,,,,,32,0,8,,,,,1,,,71,115
140352,note_on,,,,,32,0,7,,,,,0,,,74,115
140352,note_on,,,,,32,0,13,,,,,6,,,35,115
140352,note_on,,,,,32,0,10,,,,,3,,,71,75
140352,note_on,,,,,32,0,11,,,,,4,,,66,115
140352,note_on,,,,,32,0,12,,,,,5,,,47,115
140352,note_on,,,,,0,0,14,,,,,7,,,66,100
140352,note_on,,,,,0,0,11,,,,,4,,,62,115
140352,note_on,,,,,32,0,9,,,,,2,,,74,75
140352,note_on,,,,,32,0,15,,,,,7,,,47,100
140356,set_tempo,,,,,14,1,0,,566037,,,,,,,
140370,set_tempo,,,,,14,1,0,,566037,,,,,,,
140384,set_tempo,,,,,14,1,0,,571428,,,,,,,
140400,set_tempo,,,,,16,1,0,,571428,,,,,,,
140414,set_tempo,,,,,14,1,0,,576923,,,,,,,
140416,note_off,,,,,64,0,7,,,,,0,,,74,100
140416,note_off,,,,,64,0,8,,,,,1,,,71,100
140416,note_off,,,,,64,0,11,,,,,4,,,66,100
140416,note_off,,,,,0,0,11,,,,,4,,,62,100
140416,note_off,,,,,64,0,13,,,,,6,,,35,100
140416,note_off,,,,,64,0,10,,,,,3,,,71,100
140416,note_off,,,,,64,0,9,,,,,2,,,74,100
140416,note_off,,,,,64,0,12,,,,,5,,,47,100
140416,note_off,,,,,64,0,15,,,,,7,,,47,100
140428,set_tempo,,,,,14,1,0,,576923,,,,,,,
140442,set_tempo,,,,,14,1,0,,582524,,,,,,,
140448,note_on,,,,,32,0,13,,,,,6,,,35,115
140448,note_on,,,,,32,0,15,,,,,7,,,47,100
140448,note_on,,,,,32,0,9,,,,,2,,,74,75
140448,note_on,,,,,32,0,7,,,,,0,,,74,115
140448,note_on,,,,,0,0,11,,,,,4,,,62,115
140448,note_on,,,,,32,0,11,,,,,4,,,66,115
140448,note_on,,,,,32,0,8,,,,,1,,,71,115
140448,note_on,,,,,32,0,12,,,,,5,,,47,115
140448,note_on,,,,,32,0,10,,,,,3,,,71,75
140456,set_tempo,,,,,14,1,0,,582524,,,,,,,
140472,set_tempo,,,,,16,1,0,,588235,,,,,,,
140480,note_off,,,,,128,0,14,,,,,7,,,62,100
140480,note_off,,,,,0,0,14,,,,,7,,,66,100
140486,set_tempo,,,,,14,1,0,,588235,,,,,,,
140500,set_tempo,,,,,14,1,0,,594059,,,,,,,
140512,note_off,,,,,64,0,9,,,,,2,,,74,100
140512,note_off,,,,,64,0,8,,,,,1,,,71,100
140512,note_off,,,,,64,0,12,,,,,5,,,47,100
140512,note_off,,,,,64,0,7,,,,,0,,,74,100
140512,note_off,,,,,64,0,11,,,,,4,,,66,100
140512,note_off,,,,,0,0,11,,,,,4,,,62,100
140512,note_off,,,,,64,0,10,,,,,3,,,71,100
140512,note_off,,,,,64,0,13,,,,,6,,,35,100
140512,note_off,,,,,64,0,15,,,,,7,,,47,100
140514,set_tempo,,,,,14,1,0,,594059,,,,,,,
140528,set_tempo,,,,,14,1,0,,600000,,,,,,,
140544,note_on,,,,,0,0,14,,,,,7,,,59,100
140544,note_on,,,,,32,0,10,,,,,3,,,71,75
140544,note_on,,,,,32,0,9,,,,,2,,,73,75
140544,note_on,,,,,32,0,13,,,,,6,,,40,115
140544,note_on,,,,,32,0,7,,,,,0,,,73,115
140544,note_on,,,,,64,0,14,,,,,7,,,61,100
140544,note_on,,,,,32,0,15,,,,,7,,,52,100
140544,note_on,,,,,0,0,11,,,,,4,,,64,115
140544,note_on,,,,,32,0,12,,,,,5,,,52,115
140544,note_on,,,,,32,0,8,,,,,1,,,71,115
140544,set_tempo,,,,,16,1,0,,600000,,,,,,,
140544,note_on,,,,,32,0,11,,,,,4,,,67,115
140558,set_tempo,,,,,14,1,0,,606060,,,,,,,
140572,set_tempo,,,,,14,1,0,,606060,,,,,,,
140586,set_tempo,,,,,14,1,0,,612244,,,,,,,
140600,set_tempo,,,,,14,1,0,,612244,,,,,,,
140608,note_off,,,,,64,0,7,,,,,0,,,73,100
140608,note_off,,,,,64,0,9,,,,,2,,,73,100
140608,note_off,,,,,64,0,12,,,,,5,,,52,100
140608,note_off,,,,,64,0,10,,,,,3,,,71,100
140608,note_off,,,,,64,0,15,,,,,7,,,52,100
140608,note_off,,,,,64,0,8,,,,,1,,,71,100
140608,note_off,,,,,64,0,13,,,,,6,,,40,100
140608,note_off,,,,,64,0,11,,,,,4,,,67,100
140608,note_off,,,,,0,0,11,,,,,4,,,64,100
140616,set_tempo,,,,,16,1,0,,618556,,,,,,,
140630,set_tempo,,,,,14,1,0,,618556,,,,,,,
140640,note_on,,,,,32,0,8,,,,,1,,,71,115
140640,note_on,,,,,32,0,15,,,,,7,,,52,100
140640,note_on,,,,,32,0,10,,,,,3,,,71,75
140640,note_on,,,,,0,0,11,,,,,4,,,64,115
140640,note_on,,,,,32,0,9,,,,,2,,,73,75
140640,note_on,,,,,32,0,13,,,,,6,,,40,115
140640,note_on,,,,,32,0,12,,,,,5,,,52,115
140640,note_on,,,,,32,0,11,,,,,4,,,67,115
140640,note_on,,,,,32,0,7,,,,,0,,,73,115
140644,set_tempo,,,,,14,1,0,,625000,,,,,,,
140658,set_tempo,,,,,14,1,0,,625000,,,,,,,
140672,note_off,,,,,128,0,14,,,,,7,,,61,100
140672,note_off,,,,,0,0,14,,,,,7,,,59,100
140672,set_tempo,,,,,14,1,0,,631578,,,,,,,
140688,set_tempo,,,,,16,1,0,,631578,,,,,,,
140702,set_tempo,,,,,14,1,0,,638297,,,,,,,
140704,note_off,,,,,64,0,12,,,,,5,,,52,100
140704,note_off,,,,,64,0,15,,,,,7,,,52,100
140704,note_off,,,,,64,0,7,,,,,0,,,73,100
140704,note_off,,,,,0,0,11,,,,,4,,,64,100
140704,note_off,,,,,64,0,11,,,,,4,,,67,100
140704,note_off,,,,,64,0,8,,,,,1,,,71,100
140704,note_off,,,,,64,0,9,,,,,2,,,73,100
140704,note_off,,,,,64,0,10,,,,,3,,,71,100
140704,note_off,,,,,64,0,13,,,,,6,,,40,100
140716,set_tempo,,,,,14,1,0,,638297,,,,,,,
140730,set_tempo,,,,,14,1,0,,645161,,,,,,,
140736,note_on,,,,,32,0,11,,,,,4,,,67,115
140736,note_on,,,,,32,0,8,,,,,1,,,71,115
140736,note_on,,,,,32,0,7,,,,,0,,,73,115
140736,note_on,,,,,32,0,9,,,,,2,,,73,75
140736,note_on,,,,,64,0,14,,,,,7,,,61,100
140736,note_on,,,,,32,0,10,,,,,3,,,71,75
140736,note_on,,,,,0,0,14,,,,,7,,,59,100
140736,note_on,,,,,32,0,15,,,,,7,,,52,100
140736,note_on,,,,,32,0,12,,,,,5,,,52,115
140736,note_on,,,,,32,0,13,,,,,6,,,40,115
140736,note_on,,,,,0,0,11,,,,,4,,,64,115
140744,set_tempo,,,,,14,1,0,,645161,,,,,,,
140760,set_tempo,,,,,16,1,0,,652173,,,,,,,
140774,set_tempo,,,,,14,1,0,,652173,,,,,,,
140788,set_tempo,,,,,14,1,0,,659340,,,,,,,
140800,note_off,,,,,64,0,7,,,,,0,,,73,100
140800,note_off,,,,,0,0,11,,,,,4,,,64,100
140800,note_off,,,,,64,0,11,,,,,4,,,67,100
140800,note_off,,,,,64,0,12,,,,,5,,,52,100
140800,note_off,,,,,64,0,15,,,,,7,,,52,100
140800,note_off,,,,,64,0,8,,,,,1,,,71,100
140800,note_off,,,,,64,0,9,,,,,2,,,73,100
140800,note_off,,,,,64,0,13,,,,,6,,,40,100
140800,note_off,,,,,64,0,10,,,,,3,,,71,100
140802,set_tempo,,,,,14,1,0,,659340,,,,,,,
140816,set_tempo,,,,,14,1,0,,666666,,,,,,,
140832,note_on,,,,,32,0,8,,,,,1,,,71,115
140832,note_on,,,,,32,0,12,,,,,5,,,52,115
140832,set_tempo,,,,,16,1,0,,666666,,,,,,,
140832,note_on,,,,,32,0,13,,,,,6,,,40,115
140832,note_on,,,,,32,0,7,,,,,0,,,73,115
140832,note_on,,,,,32,0,15,,,,,7,,,52,100
140832,note_on,,,,,32,0,9,,,,,2,,,73,75
140832,note_on,,,,,0,0,11,,,,,4,,,64,115
140832,note_on,,,,,32,0,11,,,,,4,,,67,115
140832,note_on,,,,,32,0,10,,,,,3,,,71,75
140846,set_tempo,,,,,14,1,0,,674157,,,,,,,
140860,set_tempo,,,,,14,1,0,,674157,,,,,,,
140864,note_off,,,,,128,0,14,,,,,7,,,61,100
140864,note_off,,,,,0,0,14,,,,,7,,,59,100
140874,set_tempo,,,,,14,1,0,,681818,,,,,,,
140888,set_tempo,,,,,14,1,0,,681818,,,,,,,
140896,note_off,,,,,64,0,7,,,,,0,,,73,100
140896,note_off,,,,,64,0,8,,,,,1,,,71,100
140896,note_off,,,,,64,0,15,,,,,7,,,52,100
140896,note_off,,,,,64,0,9,,,,,2,,,73,100
140896,note_off,,,,,64,0,11,,,,,4,,,67,100
140896,note_off,,,,,64,0,10,,,,,3,,,71,100
140896,note_off,,,,,0,0,11,,,,,4,,,64,100
140896,note_off,,,,,64,0,13,,,,,6,,,40,100
140896,note_off,,,,,64,0,12,,,,,5,,,52,100
140904,set_tempo,,,,,16,1,0,,689655,,,,,,,
140918,set_tempo,,,,,14,1,0,,689655,,,,,,,
140928,note_on,,,,,32,0,12,,,,,5,,,52,115
140928,note_on,,,,,32,0,8,,,,,1,,,71,115
140928,note_on,,,,,32,0,11,,,,,4,,,67,115
140928,note_on,,,,,32,0,15,,,,,7,,,52,100
140928,note_on,,,,,32,0,7,,,,,0,,,73,115
140928,note_on,,,,,32,0,9,,,,,2,,,73,75
140928,note_on,,,,,0,0,14,,,,,7,,,59,100
140928,note_on,,,,,32,0,13,,,,,6,,,40,115
140928,note_on,,,,,64,0,14,,,,,7,,,61,100
140928,note_on,,,,,32,0,10,,,,,3,,,71,75
140932,set_tempo,,,,,14,1,0,,697674,,,,,,,
140946,set_tempo,,,,,14,1,0,,697674,,,,,,,
140960,set_tempo,,,,,14,1,0,,705882,,,,,,,
140976,set_tempo,,,,,16,1,0,,705882,,,,,,,
140990,set_tempo,,,,,14,1,0,,714285,,,,,,,
140992,note_off,,,,,64,0,12,,,,,5,,,52,100
140992,note_off,,,,,64,0,11,,,,,4,,,67,100
140992,note_off,,,,,64,0,7,,,,,0,,,73,100
140992,note_off,,,,,64,0,9,,,,,2,,,73,100
140992,note_off,,,,,64,0,10,,,,,3,,,71,100
140992,note_off,,,,,64,0,13,,,,,6,,,40,100
140992,note_off,,,,,64,0,8,,,,,1,,,71,100
140992,note_off,,,,,64,0,15,,,,,7,,,52,100
141004,set_tempo,,,,,14,1,0,,714285,,,,,,,
141018,set_tempo,,,,,14,1,0,,722891,,,,,,,
141024,note_on,,,,,32,0,8,,,,,1,,,71,115
141024,note_on,,,,,32,0,7,,,,,0,,,73,115
141024,note_on,,,,,32,0,9,,,,,2,,,73,75
141024,note_on,,,,,32,0,10,,,,,3,,,71,75
141024,note_on,,,,,32,0,13,,,,,6,,,40,115
141024,note_on,,,,,32,0,15,,,,,7,,,52,100
141024,note_on,,,,,32,0,12,,,,,5,,,52,115
141024,note_on,,,,,32,0,11,,,,,4,,,67,115
141032,set_tempo,,,,,14,1,0,,722891,,,,,,,
141048,set_tempo,,,,,16,1,0,,731707,,,,,,,
141056,note_off,,,,,0,0,14,,,,,7,,,59,100
141056,note_off,,,,,128,0,14,,,,,7,,,61,100
141062,set_tempo,,,,,14,1,0,,731707,,,,,,,
141076,set_tempo,,,,,14,1,0,,740740,,,,,,,
141088,note_off,,,,,64,0,11,,,,,4,,,67,100
141088,note_off,,,,,64,0,13,,,,,6,,,40,100
141088,note_off,,,,,64,0,8,,,,,1,,,71,100
141088,note_off,,,,,64,0,15,,,,,7,,,52,100
141088,note_off,,,,,64,0,7,,,,,0,,,73,100
141088,note_off,,,,,64,0,10,,,,,3,,,71,100
141088,note_off,,,,,64,0,12,,,,,5,,,52,100
141088,note_off,,,,,64,0,9,,,,,2,,,73,100
141090,set_tempo,,,,,14,1,0,,740740,,,,,,,
141104,set_tempo,,,,,14,1,0,,750000,,,,,,,
141120,note_on,,,,,32,0,9,,,,,2,,,73,75
141120,note_on,,,,,32,0,15,,,,,7,,,54,100
141120,note_on,,,,,32,0,10,,,,,3,,,70,75
141120,note_on,,,,,32,0,8,,,,,1,,,70,115
141120,note_on,,,,,64,0,14,,,,,7,,,58,100
141120,note_on,,,,,0,0,11,,,,,4,,,61,115
141120,note_on,,,,,32,0,11,,,,,4,,,66,115
141120,set_tempo,,,,,16,1,0,,750000,,,,,,,
141120,note_on,,,,,32,0,7,,,,,0,,,73,115
141120,note_on,,,,,32,0,12,,,,,5,,,54,115
141120,note_on,,,,,32,0,13,,,,,6,,,42,115
141120,note_on,,,,,0,0,14,,,,,7,,,61,100
141134,set_tempo,,,,,14,1,0,,759493,,,,,,,
141148,set_tempo,,,,,14,1,0,,759493,,,,,,,
141162,set_tempo,,,,,14,1,0,,769230,,,,,,,
141176,set_tempo,,,,,14,1,0,,769230,,,,,,,
141184,note_off,,,,,64,0,8,,,,,1,,,70,100
141184,note_off,,,,,64,0,7,,,,,0,,,73,100
141184,note_off,,,,,64,0,12,,,,,5,,,54,100
141184,note_off,,,,,64,0,11,,,,,4,,,66,100
141184,note_off,,,,,64,0,13,,,,,6,,,42,100
141184,note_off,,,,,64,0,15,,,,,7,,,54,100
141184,note_off,,,,,64,0,10,,,,,3,,,70,100
141184,note_off,,,,,0,0,11,,,,,4,,,61,100
141184,note_off,,,,,64,0,9,,,,,2,,,73,100
141192,set_tempo,,,,,16,1,0,,779220,,,,,,,
141206,set_tempo,,,,,14,1,0,,779220,,,,,,,
141216,note_on,,,,,0,0,11,,,,,4,,,61,115
141216,note_on,,,,,32,0,11,,,,,4,,,66,115
141216,note_on,,,,,32,0,8,,,,,1,,,70,115
141216,note_on,,,,,32,0,12,,,,,5,,,54,115
141216,note_on,,,,,32,0,15,,,,,7,,,54,100
141216,note_on,,,,,32,0,7,,,,,0,,,73,115
141216,note_on,,,,,32,0,13,,,,,6,,,42,115
141216,note_on,,,,,32,0,9,,,,,2,,,73,75
141216,note_on,,,,,32,0,10,,,,,3,,,70,75
141220,set_tempo,,,,,14,1,0,,789473,,,,,,,
141234,set_tempo,,,,,14,1,0,,789473,,,,,,,
141248,set_tempo,,,,,14,1,0,,800000,,,,,,,
141248,note_off,,,,,128,0,14,,,,,7,,,58,100
141248,note_off,,,,,0,0,14,,,,,7,,,61,100
141264,set_tempo,,,,,16,1,0,,800000,,,,,,,
141278,set_tempo,,,,,14,1,0,,810810,,,,,,,
141280,note_off,,,,,0,0,11,,,,,4,,,61,100
141280,note_off,,,,,64,0,7,,,,,0,,,73,100
141280,note_off,,,,,64,0,12,,,,,5,,,54,100
141280,note_off,,,,,64,0,11,,,,,4,,,66,100
141280,note_off,,,,,64,0,9,,,,,2,,,73,100
141280,note_off,,,,,64,0,15,,,,,7,,,54,100
141280,note_off,,,,,64,0,10,,,,,3,,,70,100
141280,note_off,,,,,64,0,13,,,,,6,,,42,100
141280,note_off,,,,,64,0,8,,,,,1,,,70,100
141292,set_tempo,,,,,14,1,0,,810810,,,,,,,
141306,set_tempo,,,,,14,1,0,,821917,,,,,,,
141312,note_on,,,,,32,0,15,,,,,7,,,54,100
141312,note_on,,,,,32,0,10,,,,,3,,,70,75
141312,note_on,,,,,32,0,13,,,,,6,,,42,115
141312,note_on,,,,,32,0,7,,,,,0,,,73,115
141312,note_on,,,,,0,0,11,,,,,4,,,61,115
141312,note_on,,,,,64,0,14,,,,,7,,,58,100
141312,note_on,,,,,0,0,14,,,,,7,,,61,100
141312,note_on,,,,,32,0,12,,,,,5,,,54,115
141312,note_on,,,,,32,0,11,,,,,4,,,66,115
141312,note_on,,,,,32,0,8,,,,,1,,,70,115
141312,note_on,,,,,32,0,9,,,,,2,,,73,75
141320,set_tempo,,,,,14,1,0,,821917,,,,,,,
141336,set_tempo,,,,,16,1,0,,833333,,,,,,,
141350,set_tempo,,,,,14,1,0,,833333,,,,,,,
141364,set_tempo,,,,,14,1,0,,845070,,,,,,,
141376,note_off,,,,,64,0,15,,,,,7,,,54,100
141376,note_off,,,,,64,0,8,,,,,1,,,70,100
141376,note_off,,,,,64,0,13,,,,,6,,,42,100
141376,note_off,,,,,64,0,9,,,,,2,,,73,100
141376,note_off,,,,,64,0,10,,,,,3,,,70,100
141376,note_off,,,,,64,0,12,,,,,5,,,54,100
141376,note_off,,,,,64,0,11,,,,,4,,,66,100
141376,note_off,,,,,0,0,11,,,,,4,,,61,100
141376,note_off,,,,,64,0,7,,,,,0,,,73,100
141378,set_tempo,,,,,14,1,0,,845070,,,,,,,
141392,set_tempo,,,,,14,1,0,,857142,,,,,,,
141408,note_on,,,,,32,0,13,,,,,6,,,42,115
141408,note_on,,,,,32,0,15,,,,,7,,,54,100
141408,note_on,,,,,32,0,10,,,,,3,,,70,75
141408,note_on,,,,,0,0,11,,,,,4,,,61,115
141408,note_on,,,,,32,0,7,,,,,0,,,73,115
141408,note_on,,,,,32,0,8,,,,,1,,,70,115
141408,note_on,,,,,32,0,12,,,,,5,,,54,115
141408,note_on,,,,,32,0,9,,,,,2,,,73,75
141408,note_on,,,,,32,0,11,,,,,4,,,66,115
141408,set_tempo,,,,,16,1,0,,857142,,,,,,,
141422,set_tempo,,,,,14,1,0,,869565,,,,,,,
141436,set_tempo,,,,,14,1,0,,869565,,,,,,,
141440,note_off,,,,,128,0,14,,,,,7,,,58,100
141440,note_off,,,,,0,0,14,,,,,7,,,61,100
141450,set_tempo,,,,,14,1,0,,882352,,,,,,,
141464,set_tempo,,,,,14,1,0,,882352,,,,,,,
141472,note_off,,,,,64,0,9,,,,,2,,,73,100
141472,note_off,,,,,64,0,10,,,,,3,,,70,100
141472,note_off,,,,,64,0,12,,,,,5,,,54,100
141472,note_off,,,,,64,0,15,,,,,7,,,54,100
141472,note_off,,,,,64,0,7,,,,,0,,,73,100
141472,note_off,,,,,64,0,13,,,,,6,,,42,100
141472,note_off,,,,,64,0,8,,,,,1,,,70,100
141472,note_off,,,,,64,0,11,,,,,4,,,66,100
141472,note_off,,,,,0,0,11,,,,,4,,,61,100
141480,set_tempo,,,,,16,1,0,,895522,,,,,,,
141494,set_tempo,,,,,14,1,0,,895522,,,,,,,
141504,note_on,,,,,32,0,12,,,,,5,,,54,115
141504,note_on,,,,,32,0,9,,,,,2,,,73,75
141504,note_on,,,,,0,0,14,,,,,7,,,61,100
141504,note_on,,,,,64,0,14,,,,,7,,,58,100
141504,note_on,,,,,32,0,11,,,,,4,,,66,115
141504,note_on,,,,,32,0,7,,,,,0,,,73,115
141504,note_on,,,,,32,0,8,,,,,1,,,70,115
141504,note_on,,,,,32,0,13,,,,,6,,,42,115
141504,note_on,,,,,32,0,15,,,,,7,,,54,100
141504,note_on,,,,,32,0,10,,,,,3,,,70,75
141508,set_tempo,,,,,14,1,0,,909090,,,,,,,
141522,set_tempo,,,,,14,1,0,,909090,,,,,,,
141536,set_tempo,,,,,14,1,0,,923076,,,,,,,
141552,set_tempo,,,,,16,1,0,,923076,,,,,,,
141566,set_tempo,,,,,14,1,0,,937500,,,,,,,
141568,note_off,,,,,64,0,15,,,,,7,,,54,100
141568,note_off,,,,,64,0,8,,,,,1,,,70,100
141568,note_off,,,,,64,0,10,,,,,3,,,70,100
141568,note_off,,,,,64,0,12,,,,,5,,,54,100
141568,note_off,,,,,64,0,11,,,,,4,,,66,100
141568,note_off,,,,,64,0,9,,,,,2,,,73,100
141568,note_off,,,,,64,0,13,,,,,6,,,42,100
141568,note_off,,,,,64,0,7,,,,,0,,,73,100
141580,set_tempo,,,,,14,1,0,,937500,,,,,,,
141594,set_tempo,,,,,14,1,0,,952380,,,,,,,
141600,note_on,,,,,32,0,10,,,,,3,,,70,75
141600,note_on,,,,,32,0,11,,,,,4,,,66,115
141600,note_on,,,,,32,0,9,,,,,2,,,73,75
141600,note_on,,,,,32,0,8,,,,,1,,,70,115
141600,note_on,,,,,32,0,12,,,,,5,,,54,115
141600,note_on,,,,,32,0,7,,,,,0,,,73,115
141600,note_on,,,,,32,0,13,,,,,6,,,42,115
141600,note_on,,,,,32,0,15,,,,,7,,,54,100
141608,set_tempo,,,,,14,1,0,,952380,,,,,,,
141624,set_tempo,,,,,16,1,0,,967741,,,,,,,
141632,note_off,,,,,0,0,14,,,,,7,,,61,100
141632,note_off,,,,,128,0,14,,,,,7,,,58,100
141638,set_tempo,,,,,14,1,0,,967741,,,,,,,
141652,set_tempo,,,,,14,1,0,,983606,,,,,,,
141664,note_off,,,,,64,0,11,,,,,4,,,66,100
141664,note_off,,,,,64,0,10,,,,,3,,,70,100
141664,note_off,,,,,64,0,13,,,,,6,,,42,100
141664,note_off,,,,,64,0,8,,,,,1,,,70,100
141664,note_off,,,,,64,0,9,,,,,2,,,73,100
141664,note_off,,,,,64,0,12,,,,,5,,,54,100
141664,note_off,,,,,64,0,15,,,,,7,,,54,100
141664,note_off,,,,,64,0,7,,,,,0,,,73,100
141666,set_tempo,,,,,14,1,0,,2000000,,,,,,,
141680,set_tempo,,,,,14,1,0,,2000000,,,,,,,
141696,set_tempo,,,,,16,1,0,,1000000,,,,,,,
141696,end_of_track,,,,,0,1,0,,,,,,,,,
141696,note_on,,,,,32,0,9,,,,,2,,,71,75
141696,note_on,,,,,32,0,11,,,,,4,,,66,115
141696,note_on,,,,,32,0,13,,,,,6,,,35,115
141696,note_on,,,,,0,0,11,,,,,4,,,62,115
141696,note_on,,,,,32,0,10,,,,,3,,,71,75
141696,note_on,,,,,32,0,15,,,,,7,,,47,100
141696,note_on,,,,,32,0,12,,,,,5,,,47,115
141696,note_on,,,,,32,0,7,,,,,0,,,71,115
141696,note_on,,,,,32,0,8,,,,,1,,,71,115
141710,note_on,,,,,78,0,14,,,,,7,,,59,100
141726,note_on,,,,,16,0,14,,,,,7,,,62,100
141742,note_on,,,,,16,0,14,,,,,7,,,66,100
141758,note_on,,,,,16,0,14,,,,,7,,,71,100
142464,note_off,,,,,768,0,12,,,,,5,,,47,100
142464,note_off,,,,,768,0,9,,,,,2,,,71,100
142464,end_of_track,,,,,0,1,11,,,,,,,,,
142464,note_off,,,,,0,0,11,,,,,4,,,62,100
142464,note_off,,,,,768,0,11,,,,,4,,,66,100
142464,note_off,,,,,768,0,13,,,,,6,,,35,100
142464,end_of_track,,,,,0,1,13,,,,,,,,,
142464,note_off,,,,,768,0,15,,,,,7,,,47,100
142464,end_of_track,,,,,0,1,10,,,,,,,,,
142464,note_off,,,,,768,0,10,,,,,3,,,71,100
142464,end_of_track,,,,,0,1,9,,,,,,,,,
142464,end_of_track,,,,,0,1,15,,,,,,,,,
142464,end_of_track,,,,,0,1,12,,,,,,,,,
142464,end_of_track,,,,,0,1,8,,,,,,,,,
142464,note_off,,,,,768,0,8,,,,,1,,,71,100
142464,note_off,,,,,768,0,7,,,,,0,,,71,100
142478,note_off,,,,,720,0,14,,,,,7,,,59,100
142494,note_off,,,,,16,0,14,,,,,7,,,62,100
142510,note_off,,,,,16,0,14,,,,,7,,,66,100
142526,note_off,,,,,16,0,14,,,,,7,,,71,100
142526,end_of_track,,,,,0,1,14,,,,,,,,,
144000,end_of_track,,,,,0,1,7,,,,,,,,,
144000,program_change,,,,,1536,0,7,,,,,0,48,,,
