tick,type,time,meta,track,numerator,denominator,clocks_per_click,notated_32nd_notes_per_beat,channel,tempo,program,note,velocity
0,track_name,0,1,0,,,,,,,,,
0,time_signature,0,1,0,4,4,24,8,,,,,
0,channel_prefix,0,1,0,,,,,0,,,,
0,copyright,0,1,0,,,,,,,,,
0,channel_prefix,0,1,0,,,,,0,,,,
0,track_name,0,1,0,,,,,,,,,
0,channel_prefix,0,1,0,,,,,0,,,,
0,instrument_name,0,1,0,,,,,,,,,
0,set_tempo,0,1,0,,,,,,555555,,,
0,program_change,0,0,0,,,,,0,,40,,
0,note_on,0,0,0,,,,,0,,,74,96
0,channel_prefix,0,1,0,,,,,1,,,,
0,track_name,0,1,0,,,,,,,,,
0,channel_prefix,0,1,0,,,,,1,,,,
0,instrument_name,0,1,0,,,,,,,,,
0,program_change,0,0,0,,,,,1,,40,,
0,note_on,0,0,0,,,,,1,,,74,96
0,channel_prefix,0,1,0,,,,,2,,,,
0,track_name,0,1,0,,,,,,,,,
0,channel_prefix,0,1,0,,,,,2,,,,
0,instrument_name,0,1,0,,,,,,,,,
0,program_change,0,0,0,,,,,2,,40,,
0,channel_prefix,0,1,0,,,,,3,,,,
0,track_name,0,1,0,,,,,,,,,
0,channel_prefix,0,1,0,,,,,3,,,,
0,instrument_name,0,1,0,,,,,,,,,
0,program_change,0,0,0,,,,,3,,41,,
0,channel_prefix,0,1,0,,,,,4,,,,
0,track_name,0,1,0,,,,,,,,,
0,channel_prefix,0,1,0,,,,,4,,,,
0,instrument_name,0,1,0,,,,,,,,,
0,program_change,0,0,0,,,,,4,,42,,
42,note_off,42,0,0,,,,,0,,,74,0
42,note_off,0,0,0,,,,,1,,,74,0
48,note_on,6,0,0,,,,,0,,,74,96
48,note_on,0,0,0,,,,,1,,,74,96
90,note_off,42,0,0,,,,,0,,,74,0
90,note_off,0,0,0,,,,,1,,,74,0
96,note_on,6,0,0,,,,,0,,,74,96
96,note_on,0,0,0,,,,,1,,,74,96
148,note_off,52,0,0,,,,,0,,,74,0
148,note_off,0,0,0,,,,,1,,,74,0
156,note_on,8,0,0,,,,,0,,,76,96
156,note_on,0,0,0,,,,,1,,,76,96
166,note_off,10,0,0,,,,,0,,,76,0
166,note_off,0,0,0,,,,,1,,,76,0
168,note_on,2,0,0,,,,,0,,,78,96
168,note_on,0,0,0,,,,,1,,,78,96
178,note_off,10,0,0,,,,,0,,,78,0
178,note_off,0,0,0,,,,,1,,,78,0
180,note_on,2,0,0,,,,,0,,,79,96
180,note_on,0,0,0,,,,,1,,,79,96
190,note_off,10,0,0,,,,,0,,,79,0
190,note_off,0,0,0,,,,,1,,,79,0
192,note_on,2,0,0,,,,,0,,,81,96
192,note_on,0,0,0,,,,,1,,,81,96
213,note_off,21,0,0,,,,,0,,,81,0
213,note_off,0,0,0,,,,,1,,,81,0
216,note_on,3,0,0,,,,,0,,,81,96
216,note_on,0,0,0,,,,,1,,,81,96
237,note_off,21,0,0,,,,,0,,,81,0
237,note_off,0,0,0,,,,,1,,,81,0
240,note_on,3,0,0,,,,,0,,,81,96
240,note_on,0,0,0,,,,,1,,,81,96
250,note_off,10,0,0,,,,,0,,,81,0
250,note_off,0,0,0,,,,,1,,,81,0
252,note_on,2,0,0,,,,,0,,,79,96
252,note_on,0,0,0,,,,,1,,,79,96
262,note_off,10,0,0,,,,,0,,,79,0
262,note_off,0,0,0,,,,,1,,,79,0
264,note_on,2,0,0,,,,,0,,,78,96
264,note_on,0,0,0,,,,,1,,,78,96
274,note_off,10,0,0,,,,,0,,,78,0
274,note_off,0,0,0,,,,,1,,,78,0
276,note_on,2,0,0,,,,,0,,,76,96
276,note_on,0,0,0,,,,,1,,,76,96
286,note_off,10,0,0,,,,,0,,,76,0
286,note_off,0,0,0,,,,,1,,,76,0
288,note_on,2,0,0,,,,,0,,,74,96
288,note_on,0,0,0,,,,,1,,,74,96
309,note_off,21,0,0,,,,,0,,,74,0
309,note_off,0,0,0,,,,,1,,,74,0
312,note_on,3,0,0,,,,,0,,,74,96
312,note_on,0,0,0,,,,,1,,,74,96
333,note_off,21,0,0,,,,,0,,,74,0
333,note_off,0,0,0,,,,,1,,,74,0
336,note_on,3,0,0,,,,,0,,,74,96
336,note_on,0,0,0,,,,,1,,,74,96
346,note_off,10,0,0,,,,,0,,,74,0
346,note_off,0,0,0,,,,,1,,,74,0
348,note_on,2,0,0,,,,,0,,,76,96
348,note_on,0,0,0,,,,,1,,,76,96
358,note_off,10,0,0,,,,,0,,,76,0
358,note_off,0,0,0,,,,,1,,,76,0
360,note_on,2,0,0,,,,,0,,,78,96
360,note_on,0,0,0,,,,,1,,,78,96
370,note_off,10,0,0,,,,,0,,,78,0
370,note_off,0,0,0,,,,,1,,,78,0
372,note_on,2,0,0,,,,,0,,,79,96
372,note_on,0,0,0,,,,,1,,,79,96
382,note_off,10,0,0,,,,,0,,,79,0
382,note_off,0,0,0,,,,,1,,,79,0
384,note_on,2,0,0,,,,,0,,,81,96
384,note_on,0,0,0,,,,,1,,,81,96
384,note_on,0,0,0,,,,,2,,,69,96
426,note_off,42,0,0,,,,,2,,,69,0
432,note_on,6,0,0,,,,,2,,,69,96
474,note_off,42,0,0,,,,,2,,,69,0
480,note_on,6,0,0,,,,,2,,,69,96
532,note_off,52,0,0,,,,,2,,,69,0
540,note_on,8,0,0,,,,,2,,,71,96
550,note_off,10,0,0,,,,,2,,,71,0
552,note_off,2,0,0,,,,,0,,,81,0
552,note_off,0,0,0,,,,,1,,,81,0
552,note_on,0,0,0,,,,,2,,,73,96
562,note_off,10,0,0,,,,,2,,,73,0
564,note_on,2,0,0,,,,,2,,,74,96
574,note_off,10,0,0,,,,,2,,,74,0
576,note_on,2,0,0,,,,,0,,,79,96
576,note_on,0,0,0,,,,,1,,,79,96
576,note_on,0,0,0,,,,,2,,,76,96
597,note_off,21,0,0,,,,,2,,,76,0
600,note_on,3,0,0,,,,,2,,,76,96
621,note_off,21,0,0,,,,,2,,,76,0
624,note_on,3,0,0,,,,,2,,,76,96
634,note_off,10,0,0,,,,,2,,,76,0
636,note_on,2,0,0,,,,,2,,,74,96
646,note_off,10,0,0,,,,,2,,,74,0
648,note_on,2,0,0,,,,,2,,,73,96
658,note_off,10,0,0,,,,,2,,,73,0
660,note_on,2,0,0,,,,,2,,,71,96
670,note_off,10,0,0,,,,,2,,,71,0
672,note_on,2,0,0,,,,,2,,,69,96
693,note_off,21,0,0,,,,,2,,,69,0
696,note_on,3,0,0,,,,,2,,,69,96
717,note_off,21,0,0,,,,,2,,,69,0
720,note_on,3,0,0,,,,,2,,,69,96
730,note_off,10,0,0,,,,,2,,,69,0
732,note_on,2,0,0,,,,,2,,,69,96
742,note_off,10,0,0,,,,,2,,,69,0
744,note_off,2,0,0,,,,,0,,,79,0
744,note_off,0,0,0,,,,,1,,,79,0
744,note_on,0,0,0,,,,,2,,,71,96
754,note_off,10,0,0,,,,,2,,,71,0
756,note_on,2,0,0,,,,,2,,,73,96
766,note_off,10,0,0,,,,,2,,,73,0
768,note_on,2,0,0,,,,,0,,,78,96
768,note_on,0,0,0,,,,,1,,,78,96
768,note_on,0,0,0,,,,,2,,,74,96
768,note_on,0,0,0,,,,,3,,,62,96
810,note_off,42,0,0,,,,,3,,,62,0
816,note_on,6,0,0,,,,,3,,,62,96
858,note_off,42,0,0,,,,,3,,,62,0
864,note_on,6,0,0,,,,,3,,,62,96
916,note_off,52,0,0,,,,,3,,,62,0
924,note_on,8,0,0,,,,,3,,,64,96
934,note_off,10,0,0,,,,,3,,,64,0
936,note_off,2,0,0,,,,,0,,,78,0
936,note_off,0,0,0,,,,,1,,,78,0
936,note_off,0,0,0,,,,,2,,,74,0
936,note_on,0,0,0,,,,,3,,,66,96
946,note_off,10,0,0,,,,,3,,,66,0
948,note_on,2,0,0,,,,,3,,,67,96
958,note_off,10,0,0,,,,,3,,,67,0
960,note_on,2,0,0,,,,,0,,,76,96
960,note_on,0,0,0,,,,,1,,,76,96
960,note_on,0,0,0,,,,,2,,,73,96
960,note_on,0,0,0,,,,,3,,,69,96
981,note_off,21,0,0,,,,,3,,,69,0
984,note_on,3,0,0,,,,,3,,,69,96
1005,note_off,21,0,0,,,,,3,,,69,0
1008,note_on,3,0,0,,,,,3,,,69,96
1018,note_off,10,0,0,,,,,3,,,69,0
1020,note_on,2,0,0,,,,,3,,,67,96
1030,note_off,10,0,0,,,,,3,,,67,0
1032,note_on,2,0,0,,,,,3,,,66,96
1042,note_off,10,0,0,,,,,3,,,66,0
1044,note_off,2,0,0,,,,,0,,,76,0
1044,note_off,0,0,0,,,,,1,,,76,0
1044,note_off,0,0,0,,,,,2,,,73,0
1044,note_on,0,0,0,,,,,3,,,64,96
1054,note_off,10,0,0,,,,,3,,,64,0
1056,note_on,2,0,0,,,,,0,,,78,96
1056,note_on,0,0,0,,,,,1,,,78,96
1056,note_on,0,0,0,,,,,2,,,74,96
1056,note_on,0,0,0,,,,,3,,,62,96
1077,note_off,21,0,0,,,,,3,,,62,0
1080,note_on,3,0,0,,,,,3,,,62,96
1101,note_off,21,0,0,,,,,3,,,62,0
1104,note_on,3,0,0,,,,,3,,,62,96
1114,note_off,10,0,0,,,,,3,,,62,0
1116,note_on,2,0,0,,,,,3,,,64,96
1126,note_off,10,0,0,,,,,3,,,64,0
1128,note_on,2,0,0,,,,,3,,,66,96
1138,note_off,10,0,0,,,,,3,,,66,0
1140,note_off,2,0,0,,,,,0,,,78,0
1140,note_off,0,0,0,,,,,1,,,78,0
1140,note_off,0,0,0,,,,,2,,,74,0
1140,note_on,0,0,0,,,,,3,,,67,96
1150,note_off,10,0,0,,,,,3,,,67,0
1152,note_on,2,0,0,,,,,0,,,76,96
1152,note_on,0,0,0,,,,,1,,,76,96
1152,note_on,0,0,0,,,,,2,,,73,96
1152,note_on,0,0,0,,,,,3,,,69,96
1152,note_on,0,0,0,,,,,4,,,45,96
1194,note_off,42,0,0,,,,,0,,,76,0
1194,note_off,0,0,0,,,,,1,,,76,0
1194,note_off,0,0,0,,,,,4,,,45,0
1200,note_on,6,0,0,,,,,0,,,76,96
1200,note_on,0,0,0,,,,,1,,,76,96
1200,note_on,0,0,0,,,,,4,,,45,96
1242,note_off,42,0,0,,,,,0,,,76,0
1242,note_off,0,0,0,,,,,1,,,76,0
1242,note_off,0,0,0,,,,,4,,,45,0
1248,note_on,6,0,0,,,,,0,,,76,96
1248,note_on,0,0,0,,,,,1,,,76,96
1248,note_on,0,0,0,,,,,4,,,45,96
1300,note_off,52,0,0,,,,,0,,,76,0
1300,note_off,0,0,0,,,,,1,,,76,0
1300,note_off,0,0,0,,,,,4,,,45,0
1308,note_on,8,0,0,,,,,0,,,74,96
1308,note_on,0,0,0,,,,,1,,,74,96
1308,note_on,0,0,0,,,,,4,,,47,96
1318,note_off,10,0,0,,,,,0,,,74,0
1318,note_off,0,0,0,,,,,1,,,74,0
1318,note_off,0,0,0,,,,,4,,,47,0
1320,note_on,2,0,0,,,,,0,,,76,96
1320,note_on,0,0,0,,,,,1,,,76,96
1320,note_off,0,0,0,,,,,3,,,69,0
1320,note_on,0,0,0,,,,,4,,,49,96
1330,note_off,10,0,0,,,,,0,,,76,0
1330,note_off,0,0,0,,,,,1,,,76,0
1330,note_off,0,0,0,,,,,4,,,49,0
1332,note_on,2,0,0,,,,,0,,,78,96
1332,note_on,0,0,0,,,,,1,,,78,96
1332,note_on,0,0,0,,,,,4,,,50,96
1342,note_off,10,0,0,,,,,0,,,78,0
1342,note_off,0,0,0,,,,,1,,,78,0
1342,note_off,0,0,0,,,,,4,,,50,0
1344,note_on,2,0,0,,,,,0,,,79,96
1344,note_on,0,0,0,,,,,1,,,79,96
1344,note_on,0,0,0,,,,,3,,,67,96
1344,note_on,0,0,0,,,,,4,,,52,96
1365,note_off,21,0,0,,,,,0,,,79,0
1365,note_off,0,0,0,,,,,1,,,79,0
1365,note_off,0,0,0,,,,,4,,,52,0
1368,note_on,3,0,0,,,,,0,,,79,96
1368,note_on,0,0,0,,,,,1,,,79,96
1368,note_on,0,0,0,,,,,4,,,52,96
1389,note_off,21,0,0,,,,,0,,,79,0
1389,note_off,0,0,0,,,,,1,,,79,0
1389,note_off,0,0,0,,,,,4,,,52,0
1392,note_on,3,0,0,,,,,0,,,79,96
1392,note_on,0,0,0,,,,,1,,,79,96
1392,note_on,0,0,0,,,,,4,,,52,96
1402,note_off,10,0,0,,,,,0,,,79,0
1402,note_off,0,0,0,,,,,1,,,79,0
1402,note_off,0,0,0,,,,,4,,,52,0
1404,note_on,2,0,0,,,,,0,,,78,96
1404,note_on,0,0,0,,,,,1,,,78,96
1404,note_on,0,0,0,,,,,4,,,50,96
1414,note_off,10,0,0,,,,,0,,,78,0
1414,note_off,0,0,0,,,,,1,,,78,0
1414,note_off,0,0,0,,,,,4,,,50,0
1416,note_on,2,0,0,,,,,0,,,76,96
1416,note_on,0,0,0,,,,,1,,,76,96
1416,note_on,0,0,0,,,,,4,,,49,96
1426,note_off,10,0,0,,,,,0,,,76,0
1426,note_off,0,0,0,,,,,1,,,76,0
1426,note_off,0,0,0,,,,,4,,,49,0
1428,note_on,2,0,0,,,,,0,,,74,96
1428,note_on,0,0,0,,,,,1,,,74,96
1428,note_on,0,0,0,,,,,4,,,47,96
1438,note_off,10,0,0,,,,,0,,,74,0
1438,note_off,0,0,0,,,,,1,,,74,0
1438,note_off,0,0,0,,,,,4,,,47,0
1440,note_on,2,0,0,,,,,0,,,76,96
1440,note_on,0,0,0,,,,,1,,,76,96
1440,note_on,0,0,0,,,,,4,,,45,96
1461,note_off,21,0,0,,,,,0,,,76,0
1461,note_off,0,0,0,,,,,1,,,76,0
1461,note_off,0,0,0,,,,,4,,,45,0
1464,note_on,3,0,0,,,,,0,,,76,96
1464,note_on,0,0,0,,,,,1,,,76,96
1464,note_on,0,0,0,,,,,4,,,45,96
1485,note_off,21,0,0,,,,,0,,,76,0
1485,note_off,0,0,0,,,,,1,,,76,0
1485,note_off,0,0,0,,,,,4,,,45,0
1488,note_on,3,0,0,,,,,0,,,76,96
1488,note_on,0,0,0,,,,,1,,,76,96
1488,note_off,0,0,0,,,,,2,,,73,0
1488,note_on,0,0,0,,,,,4,,,45,96
1498,note_off,10,0,0,,,,,0,,,76,0
1498,note_off,0,0,0,,,,,1,,,76,0
1498,note_off,0,0,0,,,,,4,,,45,0
1500,note_on,2,0,0,,,,,0,,,73,96
1500,note_on,0,0,0,,,,,1,,,73,96
1500,note_on,0,0,0,,,,,4,,,45,96
1510,note_off,10,0,0,,,,,0,,,73,0
1510,note_off,0,0,0,,,,,1,,,73,0
1510,note_off,0,0,0,,,,,4,,,45,0
1512,note_on,2,0,0,,,,,0,,,74,96
1512,note_on,0,0,0,,,,,1,,,74,96
1512,note_off,0,0,0,,,,,3,,,67,0
1512,note_on,0,0,0,,,,,4,,,47,96
1522,note_off,10,0,0,,,,,0,,,74,0
1522,note_off,0,0,0,,,,,1,,,74,0
1522,note_off,0,0,0,,,,,4,,,47,0
1524,note_on,2,0,0,,,,,0,,,76,96
1524,note_on,0,0,0,,,,,1,,,76,96
1524,note_on,0,0,0,,,,,4,,,49,96
1534,note_off,10,0,0,,,,,0,,,76,0
1534,note_off,0,0,0,,,,,1,,,76,0
1534,note_off,0,0,0,,,,,4,,,49,0
1536,note_on,2,0,0,,,,,0,,,69,96
1536,note_on,0,0,0,,,,,1,,,69,96
1536,note_on,0,0,0,,,,,2,,,74,96
1536,note_on,0,0,0,,,,,3,,,66,96
1536,note_on,0,0,0,,,,,4,,,50,96
1557,note_off,21,0,0,,,,,0,,,69,0
1557,note_off,0,0,0,,,,,1,,,69,0
1557,note_off,0,0,0,,,,,2,,,74,0
1560,note_on,3,0,0,,,,,0,,,81,96
1560,note_on,0,0,0,,,,,1,,,81,96
1560,note_on,0,0,0,,,,,2,,,78,96
1570,note_off,10,0,0,,,,,0,,,81,0
1570,note_off,0,0,0,,,,,1,,,81,0
1570,note_off,0,0,0,,,,,2,,,78,0
1572,note_on,2,0,0,,,,,0,,,79,96
1572,note_on,0,0,0,,,,,1,,,79,96
1572,note_on,0,0,0,,,,,2,,,76,96
1582,note_off,10,0,0,,,,,0,,,79,0
1582,note_off,0,0,0,,,,,1,,,79,0
1582,note_off,0,0,0,,,,,2,,,76,0
1584,note_on,2,0,0,,,,,0,,,81,96
1584,note_on,0,0,0,,,,,1,,,81,96
1584,note_on,0,0,0,,,,,2,,,78,96
1605,note_off,21,0,0,,,,,0,,,81,0
1605,note_off,0,0,0,,,,,1,,,81,0
1605,note_off,0,0,0,,,,,2,,,78,0
1608,note_on,3,0,0,,,,,0,,,78,96
1608,note_on,0,0,0,,,,,1,,,78,96
1608,note_on,0,0,0,,,,,2,,,74,96
1620,note_off,12,0,0,,,,,3,,,66,0
1620,note_off,0,0,0,,,,,4,,,50,0
1629,note_off,9,0,0,,,,,0,,,78,0
1629,note_off,0,0,0,,,,,1,,,78,0
1629,note_off,0,0,0,,,,,2,,,74,0
1632,note_on,3,0,0,,,,,0,,,79,96
1632,note_on,0,0,0,,,,,1,,,79,96
1632,note_on,0,0,0,,,,,2,,,76,96
1653,note_off,21,0,0,,,,,0,,,79,0
1653,note_off,0,0,0,,,,,1,,,79,0
1653,note_off,0,0,0,,,,,2,,,76,0
1656,note_on,3,0,0,,,,,0,,,79,96
1656,note_on,0,0,0,,,,,1,,,79,96
1656,note_on,0,0,0,,,,,2,,,76,96
1666,note_off,10,0,0,,,,,0,,,79,0
1666,note_off,0,0,0,,,,,1,,,79,0
1666,note_off,0,0,0,,,,,2,,,76,0
1668,note_on,2,0,0,,,,,0,,,78,96
1668,note_on,0,0,0,,,,,1,,,78,96
1668,note_on,0,0,0,,,,,2,,,74,96
1678,note_off,10,0,0,,,,,0,,,78,0
1678,note_off,0,0,0,,,,,1,,,78,0
1678,note_off,0,0,0,,,,,2,,,74,0
1680,note_on,2,0,0,,,,,0,,,79,96
1680,note_on,0,0,0,,,,,1,,,79,96
1680,note_on,0,0,0,,,,,2,,,76,96
1701,note_off,21,0,0,,,,,0,,,79,0
1701,note_off,0,0,0,,,,,1,,,79,0
1701,note_off,0,0,0,,,,,2,,,76,0
1704,note_on,3,0,0,,,,,0,,,76,96
1704,note_on,0,0,0,,,,,1,,,76,96
1704,note_on,0,0,0,,,,,2,,,69,96
1725,note_off,21,0,0,,,,,0,,,76,0
1725,note_off,0,0,0,,,,,1,,,76,0
1725,note_off,0,0,0,,,,,2,,,69,0
1728,note_on,3,0,0,,,,,0,,,78,96
1728,note_on,0,0,0,,,,,1,,,78,96
1728,note_on,0,0,0,,,,,2,,,74,96
1752,note_on,24,0,0,,,,,3,,,69,96
1752,note_on,0,0,0,,,,,4,,,54,96
1762,note_off,10,0,0,,,,,3,,,69,0
1762,note_off,0,0,0,,,,,4,,,54,0
1764,note_on,2,0,0,,,,,3,,,68,96
1764,note_on,0,0,0,,,,,4,,,52,96
1774,note_off,10,0,0,,,,,3,,,68,0
1774,note_off,0,0,0,,,,,4,,,52,0
1776,note_on,2,0,0,,,,,3,,,69,96
1776,note_on,0,0,0,,,,,4,,,54,96
1797,note_off,21,0,0,,,,,3,,,69,0
1797,note_off,0,0,0,,,,,4,,,54,0
1800,note_on,3,0,0,,,,,3,,,66,96
1800,note_on,0,0,0,,,,,4,,,50,96
1812,note_off,12,0,0,,,,,0,,,78,0
1812,note_off,0,0,0,,,,,1,,,78,0
1812,note_off,0,0,0,,,,,2,,,74,0
1821,note_off,9,0,0,,,,,3,,,66,0
1821,note_off,0,0,0,,,,,4,,,50,0
1824,note_on,3,0,0,,,,,3,,,67,96
1824,note_on,0,0,0,,,,,4,,,52,96
1845,note_off,21,0,0,,,,,3,,,67,0
1845,note_off,0,0,0,,,,,4,,,52,0
1848,note_on,3,0,0,,,,,3,,,67,96
1848,note_on,0,0,0,,,,,4,,,52,96
1858,note_off,10,0,0,,,,,3,,,67,0
1858,note_off,0,0,0,,,,,4,,,52,0
1860,note_on,2,0,0,,,,,3,,,66,96
1860,note_on,0,0,0,,,,,4,,,50,96
1870,note_off,10,0,0,,,,,3,,,66,0
1870,note_off,0,0,0,,,,,4,,,50,0
1872,note_on,2,0,0,,,,,3,,,67,96
1872,note_on,0,0,0,,,,,4,,,52,96
1893,note_off,21,0,0,,,,,3,,,67,0
1893,note_off,0,0,0,,,,,4,,,52,0
1896,note_on,3,0,0,,,,,3,,,64,96
1896,note_on,0,0,0,,,,,4,,,45,96
1917,note_off,21,0,0,,,,,3,,,64,0
1917,note_off,0,0,0,,,,,4,,,45,0
1920,note_on,3,0,0,,,,,3,,,66,96
1920,note_on,0,0,0,,,,,4,,,50,96
1944,note_on,24,0,0,,,,,0,,,81,80
1944,note_on,0,0,0,,,,,1,,,81,80
1944,note_on,0,0,0,,,,,2,,,78,80
1954,note_off,10,0,0,,,,,0,,,81,0
1954,note_off,0,0,0,,,,,1,,,81,0
1954,note_off,0,0,0,,,,,2,,,78,0
1956,note_on,2,0,0,,,,,0,,,79,80
1956,note_on,0,0,0,,,,,1,,,79,80
1956,note_on,0,0,0,,,,,2,,,76,80
1966,note_off,10,0,0,,,,,0,,,79,0
1966,note_off,0,0,0,,,,,1,,,79,0
1966,note_off,0,0,0,,,,,2,,,76,0
1968,note_on,2,0,0,,,,,0,,,81,80
1968,note_on,0,0,0,,,,,1,,,81,80
1968,note_on,0,0,0,,,,,2,,,78,80
1989,note_off,21,0,0,,,,,0,,,81,0
1989,note_off,0,0,0,,,,,1,,,81,0
1989,note_off,0,0,0,,,,,2,,,78,0
1992,note_on,3,0,0,,,,,0,,,78,80
1992,note_on,0,0,0,,,,,1,,,78,80
1992,note_on,0,0,0,,,,,2,,,74,80
2004,note_off,12,0,0,,,,,3,,,66,0
2004,note_off,0,0,0,,,,,4,,,50,0
2013,note_off,9,0,0,,,,,0,,,78,0
2013,note_off,0,0,0,,,,,1,,,78,0
2013,note_off,0,0,0,,,,,2,,,74,0
2016,note_on,3,0,0,,,,,0,,,79,80
2016,note_on,0,0,0,,,,,1,,,79,80
2016,note_on,0,0,0,,,,,2,,,76,80
2037,note_off,21,0,0,,,,,0,,,79,0
2037,note_off,0,0,0,,,,,1,,,79,0
2037,note_off,0,0,0,,,,,2,,,76,0
2040,note_on,3,0,0,,,,,0,,,79,80
2040,note_on,0,0,0,,,,,1,,,79,80
2040,note_on,0,0,0,,,,,2,,,76,80
2050,note_off,10,0,0,,,,,0,,,79,0
2050,note_off,0,0,0,,,,,1,,,79,0
2050,note_off,0,0,0,,,,,2,,,76,0
2052,note_on,2,0,0,,,,,0,,,78,80
2052,note_on,0,0,0,,,,,1,,,78,80
2052,note_on,0,0,0,,,,,2,,,74,80
2062,note_off,10,0,0,,,,,0,,,78,0
2062,note_off,0,0,0,,,,,1,,,78,0
2062,note_off,0,0,0,,,,,2,,,74,0
2064,note_on,2,0,0,,,,,0,,,79,80
2064,note_on,0,0,0,,,,,1,,,79,80
2064,note_on,0,0,0,,,,,2,,,76,80
2085,note_off,21,0,0,,,,,0,,,79,0
2085,note_off,0,0,0,,,,,1,,,79,0
2085,note_off,0,0,0,,,,,2,,,76,0
2088,note_on,3,0,0,,,,,0,,,76,80
2088,note_on,0,0,0,,,,,1,,,76,80
2088,note_on,0,0,0,,,,,2,,,69,80
2109,note_off,21,0,0,,,,,0,,,76,0
2109,note_off,0,0,0,,,,,1,,,76,0
2109,note_off,0,0,0,,,,,2,,,69,0
2112,note_on,3,0,0,,,,,0,,,78,80
2112,note_on,0,0,0,,,,,1,,,78,80
2112,note_on,0,0,0,,,,,2,,,74,80
2136,note_on,24,0,0,,,,,3,,,69,80
2136,note_on,0,0,0,,,,,4,,,54,80
2146,note_off,10,0,0,,,,,3,,,69,0
2146,note_off,0,0,0,,,,,4,,,54,0
2148,note_on,2,0,0,,,,,3,,,67,80
2148,note_on,0,0,0,,,,,4,,,52,80
2158,note_off,10,0,0,,,,,3,,,67,0
2158,note_off,0,0,0,,,,,4,,,52,0
2160,note_on,2,0,0,,,,,3,,,69,80
2160,note_on,0,0,0,,,,,4,,,54,80
2181,note_off,21,0,0,,,,,3,,,69,0
2181,note_off,0,0,0,,,,,4,,,54,0
2184,note_on,3,0,0,,,,,3,,,66,80
2184,note_on,0,0,0,,,,,4,,,50,80
2196,note_off,12,0,0,,,,,0,,,78,0
2196,note_off,0,0,0,,,,,1,,,78,0
2196,note_off,0,0,0,,,,,2,,,74,0
2205,note_off,9,0,0,,,,,3,,,66,0
2205,note_off,0,0,0,,,,,4,,,50,0
2208,note_on,3,0,0,,,,,3,,,67,80
2208,note_on,0,0,0,,,,,4,,,52,80
2229,note_off,21,0,0,,,,,3,,,67,0
2229,note_off,0,0,0,,,,,4,,,52,0
2232,note_on,3,0,0,,,,,3,,,67,80
2232,note_on,0,0,0,,,,,4,,,52,80
2242,note_off,10,0,0,,,,,3,,,67,0
2242,note_off,0,0,0,,,,,4,,,52,0
2244,note_on,2,0,0,,,,,3,,,66,80
2244,note_on,0,0,0,,,,,4,,,50,80
2254,note_off,10,0,0,,,,,3,,,66,0
2254,note_off,0,0,0,,,,,4,,,50,0
2256,note_on,2,0,0,,,,,3,,,67,80
2256,note_on,0,0,0,,,,,4,,,52,80
2277,note_off,21,0,0,,,,,3,,,67,0
2277,note_off,0,0,0,,,,,4,,,52,0
2280,note_on,3,0,0,,,,,3,,,64,80
2280,note_on,0,0,0,,,,,4,,,45,80
2301,note_off,21,0,0,,,,,3,,,64,0
2301,note_off,0,0,0,,,,,4,,,45,0
2304,note_on,3,0,0,,,,,0,,,78,96
2304,note_on,0,0,0,,,,,1,,,78,96
2304,note_on,0,0,0,,,,,2,,,74,96
2304,note_on,0,0,0,,,,,3,,,66,96
2304,note_on,0,0,0,,,,,4,,,50,96
2325,note_off,21,0,0,,,,,3,,,66,0
2325,note_off,0,0,0,,,,,4,,,50,0
2328,note_on,3,0,0,,,,,3,,,69,96
2328,note_on,0,0,0,,,,,4,,,62,96
2346,note_off,18,0,0,,,,,0,,,78,0
2346,note_off,0,0,0,,,,,1,,,78,0
2346,note_off,0,0,0,,,,,2,,,74,0
2349,note_off,3,0,0,,,,,3,,,69,0
2349,note_off,0,0,0,,,,,4,,,62,0
2352,note_on,3,0,0,,,,,0,,,78,96
2352,note_on,0,0,0,,,,,1,,,78,96
2352,note_on,0,0,0,,,,,2,,,74,96
2352,note_on,0,0,0,,,,,3,,,66,96
2352,note_on,0,0,0,,,,,4,,,57,96
2373,note_off,21,0,0,,,,,3,,,66,0
2373,note_off,0,0,0,,,,,4,,,57,0
2376,note_on,3,0,0,,,,,3,,,62,96
2376,note_on,0,0,0,,,,,4,,,54,96
2394,note_off,18,0,0,,,,,0,,,78,0
2394,note_off,0,0,0,,,,,1,,,78,0
2394,note_off,0,0,0,,,,,2,,,74,0
2397,note_off,3,0,0,,,,,3,,,62,0
2397,note_off,0,0,0,,,,,4,,,54,0
2400,note_on,3,0,0,,,,,0,,,78,96
2400,note_on,0,0,0,,,,,1,,,78,96
2400,note_on,0,0,0,,,,,2,,,74,96
2400,note_on,0,0,0,,,,,3,,,57,96
2400,note_on,0,0,0,,,,,4,,,50,96
2421,note_off,21,0,0,,,,,3,,,57,0
2421,note_off,0,0,0,,,,,4,,,50,0
2424,note_on,3,0,0,,,,,3,,,69,96
2424,note_on,0,0,0,,,,,4,,,62,96
2445,note_off,21,0,0,,,,,3,,,69,0
2445,note_off,0,0,0,,,,,4,,,62,0
2448,note_on,3,0,0,,,,,3,,,66,96
2448,note_on,0,0,0,,,,,4,,,57,96
2452,note_off,4,0,0,,,,,0,,,78,0
2452,note_off,0,0,0,,,,,1,,,78,0
2452,note_off,0,0,0,,,,,2,,,74,0
2460,note_on,8,0,0,,,,,0,,,76,96
2460,note_on,0,0,0,,,,,1,,,76,96
2460,note_on,0,0,0,,,,,2,,,73,96
2469,note_off,9,0,0,,,,,3,,,66,0
2469,note_off,0,0,0,,,,,4,,,57,0
2470,note_off,1,0,0,,,,,0,,,76,0
2470,note_off,0,0,0,,,,,1,,,76,0
2470,note_off,0,0,0,,,,,2,,,73,0
2472,note_on,2,0,0,,,,,0,,,78,96
2472,note_on,0,0,0,,,,,1,,,78,96
2472,note_on,0,0,0,,,,,2,,,74,96
2472,note_on,0,0,0,,,,,3,,,62,96
2472,note_on,0,0,0,,,,,4,,,54,96
2482,note_off,10,0,0,,,,,0,,,78,0
2482,note_off,0,0,0,,,,,1,,,78,0
2482,note_off,0,0,0,,,,,2,,,74,0
2484,note_on,2,0,0,,,,,0,,,79,96
2484,note_on,0,0,0,,,,,1,,,79,96
2484,note_on,0,0,0,,,,,2,,,76,96
2493,note_off,9,0,0,,,,,3,,,62,0
2493,note_off,0,0,0,,,,,4,,,54,0
2494,note_off,1,0,0,,,,,0,,,79,0
2494,note_off,0,0,0,,,,,1,,,79,0
2494,note_off,0,0,0,,,,,2,,,76,0
2496,note_on,2,0,0,,,,,0,,,81,96
2496,note_on,0,0,0,,,,,1,,,81,96
2496,note_on,0,0,0,,,,,2,,,78,96
2496,note_on,0,0,0,,,,,3,,,57,96
2496,note_on,0,0,0,,,,,4,,,50,96
2517,note_off,21,0,0,,,,,0,,,81,0
2517,note_off,0,0,0,,,,,1,,,81,0
2517,note_off,0,0,0,,,,,2,,,78,0
2520,note_on,3,0,0,,,,,0,,,81,96
2520,note_on,0,0,0,,,,,1,,,81,96
2520,note_on,0,0,0,,,,,2,,,78,96
2538,note_off,18,0,0,,,,,3,,,57,0
2538,note_off,0,0,0,,,,,4,,,50,0
2541,note_off,3,0,0,,,,,0,,,81,0
2541,note_off,0,0,0,,,,,1,,,81,0
2541,note_off,0,0,0,,,,,2,,,78,0
2544,note_on,3,0,0,,,,,0,,,81,96
2544,note_on,0,0,0,,,,,1,,,81,96
2544,note_on,0,0,0,,,,,2,,,78,96
2554,note_off,10,0,0,,,,,0,,,81,0
2554,note_off,0,0,0,,,,,1,,,81,0
2554,note_off,0,0,0,,,,,2,,,78,0
2556,note_on,2,0,0,,,,,0,,,79,96
2556,note_on,0,0,0,,,,,1,,,79,96
2556,note_on,0,0,0,,,,,2,,,76,96
2566,note_off,10,0,0,,,,,0,,,79,0
2566,note_off,0,0,0,,,,,1,,,79,0
2566,note_off,0,0,0,,,,,2,,,76,0
2568,note_on,2,0,0,,,,,0,,,78,96
2568,note_on,0,0,0,,,,,1,,,78,96
2568,note_on,0,0,0,,,,,2,,,74,96
2568,note_on,0,0,0,,,,,3,,,57,96
2568,note_on,0,0,0,,,,,4,,,57,96
2578,note_off,10,0,0,,,,,0,,,78,0
2578,note_off,0,0,0,,,,,1,,,78,0
2578,note_off,0,0,0,,,,,2,,,74,0
2580,note_on,2,0,0,,,,,0,,,76,96
2580,note_on,0,0,0,,,,,1,,,76,96
2580,note_on,0,0,0,,,,,2,,,73,96
2589,note_off,9,0,0,,,,,3,,,57,0
2589,note_off,0,0,0,,,,,4,,,57,0
2590,note_off,1,0,0,,,,,0,,,76,0
2590,note_off,0,0,0,,,,,1,,,76,0
2590,note_off,0,0,0,,,,,2,,,73,0
2592,note_on,2,0,0,,,,,0,,,78,96
2592,note_on,0,0,0,,,,,1,,,78,96
2592,note_on,0,0,0,,,,,2,,,74,96
2592,note_on,0,0,0,,,,,3,,,57,96
2592,note_on,0,0,0,,,,,4,,,50,96
2613,note_off,21,0,0,,,,,3,,,57,0
2613,note_off,0,0,0,,,,,4,,,50,0
2616,note_on,3,0,0,,,,,3,,,69,96
2616,note_on,0,0,0,,,,,4,,,62,96
2634,note_off,18,0,0,,,,,0,,,78,0
2634,note_off,0,0,0,,,,,1,,,78,0
2634,note_off,0,0,0,,,,,2,,,74,0
2637,note_off,3,0,0,,,,,3,,,69,0
2637,note_off,0,0,0,,,,,4,,,62,0
2640,note_on,3,0,0,,,,,0,,,78,96
2640,note_on,0,0,0,,,,,1,,,78,96
2640,note_on,0,0,0,,,,,2,,,74,96
2640,note_on,0,0,0,,,,,3,,,66,96
2640,note_on,0,0,0,,,,,4,,,57,96
2661,note_off,21,0,0,,,,,3,,,66,0
2661,note_off,0,0,0,,,,,4,,,57,0
2664,note_on,3,0,0,,,,,3,,,62,96
2664,note_on,0,0,0,,,,,4,,,54,96
2682,note_off,18,0,0,,,,,0,,,78,0
2682,note_off,0,0,0,,,,,1,,,78,0
2682,note_off,0,0,0,,,,,2,,,74,0
2685,note_off,3,0,0,,,,,3,,,62,0
2685,note_off,0,0,0,,,,,4,,,54,0
2688,note_on,3,0,0,,,,,0,,,78,96
2688,note_on,0,0,0,,,,,1,,,78,96
2688,note_on,0,0,0,,,,,2,,,74,96
2688,note_on,0,0,0,,,,,3,,,57,96
2688,note_on,0,0,0,,,,,4,,,50,96
2709,note_off,21,0,0,,,,,3,,,57,0
2709,note_off,0,0,0,,,,,4,,,50,0
2712,note_on,3,0,0,,,,,3,,,69,96
2712,note_on,0,0,0,,,,,4,,,62,96
2733,note_off,21,0,0,,,,,3,,,69,0
2733,note_off,0,0,0,,,,,4,,,62,0
2736,note_on,3,0,0,,,,,3,,,66,96
2736,note_on,0,0,0,,,,,4,,,57,96
2740,note_off,4,0,0,,,,,0,,,78,0
2740,note_off,0,0,0,,,,,1,,,78,0
2740,note_off,0,0,0,,,,,2,,,74,0
2748,note_on,8,0,0,,,,,0,,,76,96
2748,note_on,0,0,0,,,,,1,,,76,96
2748,note_on,0,0,0,,,,,2,,,73,96
2757,note_off,9,0,0,,,,,3,,,66,0
2757,note_off,0,0,0,,,,,4,,,57,0
2758,note_off,1,0,0,,,,,0,,,76,0
2758,note_off,0,0,0,,,,,1,,,76,0
2758,note_off,0,0,0,,,,,2,,,73,0
2760,note_on,2,0,0,,,,,0,,,78,96
2760,note_on,0,0,0,,,,,1,,,78,96
2760,note_on,0,0,0,,,,,2,,,74,96
2760,note_on,0,0,0,,,,,3,,,62,96
2760,note_on,0,0,0,,,,,4,,,54,96
2770,note_off,10,0,0,,,,,0,,,78,0
2770,note_off,0,0,0,,,,,1,,,78,0
2770,note_off,0,0,0,,,,,2,,,74,0
2772,note_on,2,0,0,,,,,0,,,79,96
2772,note_on,0,0,0,,,,,1,,,79,96
2772,note_on,0,0,0,,,,,2,,,76,96
2781,note_off,9,0,0,,,,,3,,,62,0
2781,note_off,0,0,0,,,,,4,,,54,0
2782,note_off,1,0,0,,,,,0,,,79,0
2782,note_off,0,0,0,,,,,1,,,79,0
2782,note_off,0,0,0,,,,,2,,,76,0
2784,note_on,2,0,0,,,,,0,,,81,96
2784,note_on,0,0,0,,,,,1,,,81,96
2784,note_on,0,0,0,,,,,2,,,78,96
2784,note_on,0,0,0,,,,,3,,,57,96
2784,note_on,0,0,0,,,,,4,,,50,96
2805,note_off,21,0,0,,,,,0,,,81,0
2805,note_off,0,0,0,,,,,1,,,81,0
2805,note_off,0,0,0,,,,,2,,,78,0
2808,note_on,3,0,0,,,,,0,,,81,96
2808,note_on,0,0,0,,,,,1,,,81,96
2808,note_on,0,0,0,,,,,2,,,78,96
2826,note_off,18,0,0,,,,,3,,,57,0
2826,note_off,0,0,0,,,,,4,,,50,0
2829,note_off,3,0,0,,,,,0,,,81,0
2829,note_off,0,0,0,,,,,1,,,81,0
2829,note_off,0,0,0,,,,,2,,,78,0
2832,note_on,3,0,0,,,,,0,,,81,96
2832,note_on,0,0,0,,,,,1,,,81,96
2832,note_on,0,0,0,,,,,2,,,78,96
2842,note_off,10,0,0,,,,,0,,,81,0
2842,note_off,0,0,0,,,,,1,,,81,0
2842,note_off,0,0,0,,,,,2,,,78,0
2844,note_on,2,0,0,,,,,0,,,79,96
2844,note_on,0,0,0,,,,,1,,,79,96
2844,note_on,0,0,0,,,,,2,,,76,96
2854,note_off,10,0,0,,,,,0,,,79,0
2854,note_off,0,0,0,,,,,1,,,79,0
2854,note_off,0,0,0,,,,,2,,,76,0
2856,note_on,2,0,0,,,,,0,,,78,96
2856,note_on,0,0,0,,,,,1,,,78,96
2856,note_on,0,0,0,,,,,2,,,74,96
2856,note_on,0,0,0,,,,,3,,,57,96
2856,note_on,0,0,0,,,,,4,,,57,96
2866,note_off,10,0,0,,,,,0,,,78,0
2866,note_off,0,0,0,,,,,1,,,78,0
2866,note_off,0,0,0,,,,,2,,,74,0
2868,note_on,2,0,0,,,,,0,,,76,96
2868,note_on,0,0,0,,,,,1,,,76,96
2868,note_on,0,0,0,,,,,2,,,73,96
2877,note_off,9,0,0,,,,,3,,,57,0
2877,note_off,0,0,0,,,,,4,,,57,0
2878,note_off,1,0,0,,,,,0,,,76,0
2878,note_off,0,0,0,,,,,1,,,76,0
2878,note_off,0,0,0,,,,,2,,,73,0
2880,note_on,2,0,0,,,,,0,,,78,96
2880,note_on,0,0,0,,,,,1,,,78,96
2880,note_on,0,0,0,,,,,2,,,74,96
2880,note_on,0,0,0,,,,,3,,,57,96
2880,note_on,0,0,0,,,,,4,,,50,96
2922,note_off,42,0,0,,,,,0,,,78,0
2922,note_off,0,0,0,,,,,1,,,78,0
2922,note_off,0,0,0,,,,,2,,,74,0
2922,note_off,0,0,0,,,,,3,,,57,0
2922,note_off,0,0,0,,,,,4,,,50,0
2952,note_on,30,0,0,,,,,0,,,82,80
2952,note_on,0,0,0,,,,,1,,,82,80
2952,note_on,0,0,0,,,,,2,,,77,80
2952,note_on,0,0,0,,,,,3,,,74,80
2973,note_off,21,0,0,,,,,0,,,82,0
2973,note_off,0,0,0,,,,,1,,,82,0
2973,note_off,0,0,0,,,,,2,,,77,0
2973,note_off,0,0,0,,,,,3,,,74,0
2976,note_on,3,0,0,,,,,0,,,80,80
2976,note_on,0,0,0,,,,,1,,,80,80
2976,note_on,0,0,0,,,,,2,,,76,80
2976,note_on,0,0,0,,,,,3,,,74,80
2997,note_off,21,0,0,,,,,2,,,76,0
2997,note_off,0,0,0,,,,,3,,,74,0
3000,note_off,3,0,0,,,,,0,,,80,0
3000,note_on,0,0,0,,,,,0,,,81,80
3000,note_off,0,0,0,,,,,1,,,80,0
3000,note_on,0,0,0,,,,,1,,,81,80
3000,note_on,0,0,0,,,,,2,,,76,80
3000,note_on,0,0,0,,,,,3,,,72,80
3042,note_off,42,0,0,,,,,2,,,76,0
3042,note_off,0,0,0,,,,,3,,,72,0
3048,note_off,6,0,0,,,,,0,,,81,0
3048,note_on,0,0,0,,,,,0,,,82,80
3048,note_off,0,0,0,,,,,1,,,81,0
3048,note_on,0,0,0,,,,,1,,,82,80
3048,note_on,0,0,0,,,,,2,,,70,80
3048,note_on,0,0,0,,,,,3,,,67,80
3069,note_off,21,0,0,,,,,0,,,82,0
3069,note_off,0,0,0,,,,,1,,,82,0
3069,note_off,0,0,0,,,,,2,,,70,0
3069,note_off,0,0,0,,,,,3,,,67,0
3072,note_on,3,0,0,,,,,0,,,73,80
3072,note_on,0,0,0,,,,,1,,,73,80
3072,note_on,0,0,0,,,,,2,,,69,80
3072,note_on,0,0,0,,,,,3,,,67,80
3093,note_off,21,0,0,,,,,2,,,69,0
3093,note_off,0,0,0,,,,,3,,,67,0
3096,note_off,3,0,0,,,,,0,,,73,0
3096,note_on,0,0,0,,,,,0,,,74,80
3096,note_off,0,0,0,,,,,1,,,73,0
3096,note_on,0,0,0,,,,,1,,,74,80
3096,note_on,0,0,0,,,,,2,,,69,80
3096,note_on,0,0,0,,,,,3,,,65,80
3138,note_off,42,0,0,,,,,2,,,69,0
3138,note_off,0,0,0,,,,,3,,,65,0
3144,note_off,6,0,0,,,,,0,,,74,0
3144,note_on,0,0,0,,,,,0,,,81,80
3144,note_off,0,0,0,,,,,1,,,74,0
3144,note_on,0,0,0,,,,,1,,,81,80
3144,note_on,0,0,0,,,,,2,,,75,80
3144,note_on,0,0,0,,,,,3,,,72,80
3165,note_off,21,0,0,,,,,0,,,81,0
3165,note_off,0,0,0,,,,,1,,,81,0
3165,note_off,0,0,0,,,,,2,,,75,0
3165,note_off,0,0,0,,,,,3,,,72,0
3168,note_on,3,0,0,,,,,0,,,78,80
3168,note_on,0,0,0,,,,,1,,,78,80
3168,note_on,0,0,0,,,,,2,,,74,80
3168,note_on,0,0,0,,,,,3,,,72,80
3189,note_off,21,0,0,,,,,2,,,74,0
3189,note_off,0,0,0,,,,,3,,,72,0
3192,note_off,3,0,0,,,,,0,,,78,0
3192,note_on,0,0,0,,,,,0,,,79,80
3192,note_off,0,0,0,,,,,1,,,78,0
3192,note_on,0,0,0,,,,,1,,,79,80
3192,note_on,0,0,0,,,,,2,,,74,80
3192,note_on,0,0,0,,,,,3,,,70,80
3234,note_off,42,0,0,,,,,2,,,74,0
3234,note_off,0,0,0,,,,,3,,,70,0
3240,note_off,6,0,0,,,,,0,,,79,0
3240,note_on,0,0,0,,,,,0,,,81,80
3240,note_off,0,0,0,,,,,1,,,79,0
3240,note_on,0,0,0,,,,,1,,,81,80
3240,note_on,0,0,0,,,,,2,,,74,80
3240,note_on,0,0,0,,,,,3,,,65,80
3261,note_off,21,0,0,,,,,0,,,81,0
3261,note_off,0,0,0,,,,,1,,,81,0
3261,note_off,0,0,0,,,,,2,,,74,0
3261,note_off,0,0,0,,,,,3,,,65,0
3264,note_on,3,0,0,,,,,0,,,71,80
3264,note_on,0,0,0,,,,,1,,,71,80
3264,note_on,0,0,0,,,,,2,,,67,80
3264,note_on,0,0,0,,,,,3,,,65,80
3285,note_off,21,0,0,,,,,2,,,67,0
3285,note_off,0,0,0,,,,,3,,,65,0
3288,note_off,3,0,0,,,,,0,,,71,0
3288,note_on,0,0,0,,,,,0,,,72,80
3288,note_off,0,0,0,,,,,1,,,71,0
3288,note_on,0,0,0,,,,,1,,,72,80
3288,note_on,0,0,0,,,,,2,,,67,80
3288,note_on,0,0,0,,,,,3,,,64,80
3330,note_off,42,0,0,,,,,2,,,67,0
3330,note_off,0,0,0,,,,,3,,,64,0
3336,note_off,6,0,0,,,,,0,,,72,0
3336,note_on,0,0,0,,,,,0,,,79,80
3336,note_off,0,0,0,,,,,1,,,72,0
3336,note_on,0,0,0,,,,,1,,,79,80
3336,note_on,0,0,0,,,,,2,,,74,80
3336,note_on,0,0,0,,,,,3,,,70,80
3357,note_off,21,0,0,,,,,0,,,79,0
3357,note_off,0,0,0,,,,,1,,,79,0
3357,note_off,0,0,0,,,,,2,,,74,0
3357,note_off,0,0,0,,,,,3,,,70,0
3360,note_on,3,0,0,,,,,0,,,76,80
3360,note_on,0,0,0,,,,,1,,,76,80
3360,note_on,0,0,0,,,,,2,,,72,80
3360,note_on,0,0,0,,,,,3,,,70,80
3381,note_off,21,0,0,,,,,2,,,72,0
3381,note_off,0,0,0,,,,,3,,,70,0
3384,note_off,3,0,0,,,,,0,,,76,0
3384,note_on,0,0,0,,,,,0,,,77,80
3384,note_off,0,0,0,,,,,1,,,76,0
3384,note_on,0,0,0,,,,,1,,,77,80
3384,note_on,0,0,0,,,,,2,,,72,80
3384,note_on,0,0,0,,,,,3,,,69,80
3426,note_off,42,0,0,,,,,2,,,72,0
3426,note_off,0,0,0,,,,,3,,,69,0
3432,note_off,6,0,0,,,,,0,,,77,0
3432,note_on,0,0,0,,,,,0,,,79,80
3432,note_off,0,0,0,,,,,1,,,77,0
3432,note_on,0,0,0,,,,,1,,,79,80
3432,note_on,0,0,0,,,,,2,,,72,80
3432,note_on,0,0,0,,,,,3,,,63,80
3453,note_off,21,0,0,,,,,0,,,79,0
3453,note_off,0,0,0,,,,,1,,,79,0
3453,note_off,0,0,0,,,,,2,,,72,0
3453,note_off,0,0,0,,,,,3,,,63,0
3456,note_on,3,0,0,,,,,0,,,69,80
3456,note_on,0,0,0,,,,,1,,,69,80
3456,note_on,0,0,0,,,,,2,,,65,80
3456,note_on,0,0,0,,,,,3,,,63,80
3477,note_off,21,0,0,,,,,2,,,65,0
3477,note_off,0,0,0,,,,,3,,,63,0
3480,note_off,3,0,0,,,,,0,,,69,0
3480,note_on,0,0,0,,,,,0,,,70,80
3480,note_off,0,0,0,,,,,1,,,69,0
3480,note_on,0,0,0,,,,,1,,,70,80
3480,note_on,0,0,0,,,,,2,,,65,80
3480,note_on,0,0,0,,,,,3,,,62,80
3522,note_off,42,0,0,,,,,2,,,65,0
3522,note_off,0,0,0,,,,,3,,,62,0
3528,note_off,6,0,0,,,,,0,,,70,0
3528,note_on,0,0,0,,,,,0,,,77,80
3528,note_off,0,0,0,,,,,1,,,70,0
3528,note_on,0,0,0,,,,,1,,,77,80
3528,note_on,0,0,0,,,,,2,,,72,80
3528,note_on,0,0,0,,,,,3,,,69,80
3549,note_off,21,0,0,,,,,0,,,77,0
3549,note_off,0,0,0,,,,,1,,,77,0
3549,note_off,0,0,0,,,,,2,,,72,0
3549,note_off,0,0,0,,,,,3,,,69,0
3552,note_on,3,0,0,,,,,0,,,74,80
3552,note_on,0,0,0,,,,,1,,,74,80
3552,note_on,0,0,0,,,,,2,,,70,80
3552,note_on,0,0,0,,,,,3,,,69,80
3573,note_off,21,0,0,,,,,2,,,70,0
3573,note_off,0,0,0,,,,,3,,,69,0
3576,note_off,3,0,0,,,,,0,,,74,0
3576,note_on,0,0,0,,,,,0,,,75,80
3576,note_off,0,0,0,,,,,1,,,74,0
3576,note_on,0,0,0,,,,,1,,,75,80
3576,note_on,0,0,0,,,,,2,,,70,80
3576,note_on,0,0,0,,,,,3,,,67,80
3618,note_off,42,0,0,,,,,2,,,70,0
3618,note_off,0,0,0,,,,,3,,,67,0
3624,note_off,6,0,0,,,,,0,,,75,0
3624,note_on,0,0,0,,,,,0,,,79,80
3624,note_off,0,0,0,,,,,1,,,75,0
3624,note_on,0,0,0,,,,,1,,,79,80
3624,note_on,0,0,0,,,,,2,,,70,80
3624,note_on,0,0,0,,,,,3,,,67,80
3645,note_off,21,0,0,,,,,0,,,79,0
3645,note_off,0,0,0,,,,,1,,,79,0
3645,note_off,0,0,0,,,,,2,,,70,0
3645,note_off,0,0,0,,,,,3,,,67,0
3648,note_on,3,0,0,,,,,0,,,73,80
3648,note_on,0,0,0,,,,,1,,,73,80
3648,note_on,0,0,0,,,,,2,,,69,80
3648,note_on,0,0,0,,,,,3,,,67,80
3669,note_off,21,0,0,,,,,2,,,69,0
3669,note_off,0,0,0,,,,,3,,,67,0
3672,note_off,3,0,0,,,,,0,,,73,0
3672,note_on,0,0,0,,,,,0,,,74,80
3672,note_off,0,0,0,,,,,1,,,73,0
3672,note_on,0,0,0,,,,,1,,,74,80
3672,note_on,0,0,0,,,,,2,,,69,80
3672,note_on,0,0,0,,,,,3,,,66,80
3714,note_off,42,0,0,,,,,2,,,69,0
3714,note_off,0,0,0,,,,,3,,,66,0
3720,note_off,6,0,0,,,,,0,,,74,0
3720,note_on,0,0,0,,,,,0,,,81,96
3720,note_off,0,0,0,,,,,1,,,74,0
3720,note_on,0,0,0,,,,,1,,,81,96
3720,note_on,0,0,0,,,,,2,,,81,96
3720,note_on,0,0,0,,,,,3,,,60,96
3720,note_on,0,0,0,,,,,4,,,45,96
3741,note_off,21,0,0,,,,,0,,,81,0
3741,note_off,0,0,0,,,,,1,,,81,0
3741,note_off,0,0,0,,,,,2,,,81,0
3741,note_off,0,0,0,,,,,3,,,60,0
3741,note_off,0,0,0,,,,,4,,,45,0
3744,note_on,3,0,0,,,,,0,,,78,96
3744,note_on,0,0,0,,,,,1,,,78,96
3744,note_on,0,0,0,,,,,2,,,78,96
3744,note_on,0,0,0,,,,,3,,,57,96
3744,note_on,0,0,0,,,,,4,,,50,96
3765,note_off,21,0,0,,,,,0,,,78,0
3765,note_off,0,0,0,,,,,1,,,78,0
3765,note_off,0,0,0,,,,,2,,,78,0
3765,note_off,0,0,0,,,,,3,,,57,0
3765,note_off,0,0,0,,,,,4,,,50,0
3768,note_on,3,0,0,,,,,0,,,76,96
3768,note_on,0,0,0,,,,,1,,,76,96
3768,note_on,0,0,0,,,,,2,,,76,96
3768,note_on,0,0,0,,,,,3,,,69,96
3768,note_on,0,0,0,,,,,4,,,54,96
3778,note_off,10,0,0,,,,,0,,,76,0
3778,note_off,0,0,0,,,,,1,,,76,0
3778,note_off,0,0,0,,,,,2,,,76,0
3780,note_on,2,0,0,,,,,0,,,74,96
3780,note_on,0,0,0,,,,,1,,,74,96
3780,note_on,0,0,0,,,,,2,,,74,96
3789,note_off,9,0,0,,,,,3,,,69,0
3789,note_off,0,0,0,,,,,4,,,54,0
3790,note_off,1,0,0,,,,,0,,,74,0
3790,note_off,0,0,0,,,,,1,,,74,0
3790,note_off,0,0,0,,,,,2,,,74,0
3792,note_on,2,0,0,,,,,0,,,76,96
3792,note_on,0,0,0,,,,,1,,,76,96
3792,note_on,0,0,0,,,,,2,,,76,96
3792,note_on,0,0,0,,,,,3,,,71,96
3792,note_on,0,0,0,,,,,4,,,55,96
3813,note_off,21,0,0,,,,,0,,,76,0
3813,note_off,0,0,0,,,,,1,,,76,0
3813,note_off,0,0,0,,,,,2,,,76,0
3813,note_off,0,0,0,,,,,3,,,71,0
3813,note_off,0,0,0,,,,,4,,,55,0
3816,note_on,3,0,0,,,,,0,,,73,96
3816,note_on,0,0,0,,,,,1,,,73,96
3816,note_on,0,0,0,,,,,2,,,73,96
3816,note_on,0,0,0,,,,,3,,,64,96
3816,note_on,0,0,0,,,,,4,,,57,96
3837,note_off,21,0,0,,,,,0,,,73,0
3837,note_off,0,0,0,,,,,1,,,73,0
3837,note_off,0,0,0,,,,,2,,,73,0
3837,note_off,0,0,0,,,,,3,,,64,0
3837,note_off,0,0,0,,,,,4,,,57,0
3840,note_on,3,0,0,,,,,0,,,67,96
3840,note_on,0,0,0,,,,,1,,,67,96
3840,note_on,0,0,0,,,,,2,,,64,96
3840,note_on,0,0,0,,,,,3,,,61,96
3840,note_on,0,0,0,,,,,4,,,45,96
3850,note_off,10,0,0,,,,,3,,,61,0
3850,note_off,0,0,0,,,,,4,,,45,0
3852,note_on,2,0,0,,,,,3,,,62,96
3852,note_on,0,0,0,,,,,4,,,47,96
3862,note_off,10,0,0,,,,,3,,,62,0
3862,note_off,0,0,0,,,,,4,,,47,0
3864,note_on,2,0,0,,,,,3,,,64,96
3864,note_on,0,0,0,,,,,4,,,49,96
3874,note_off,10,0,0,,,,,3,,,64,0
3874,note_off,0,0,0,,,,,4,,,49,0
3876,note_on,2,0,0,,,,,3,,,66,96
3876,note_on,0,0,0,,,,,4,,,50,96
3882,note_off,6,0,0,,,,,0,,,67,0
3882,note_off,0,0,0,,,,,1,,,67,0
3882,note_off,0,0,0,,,,,2,,,64,0
3886,note_off,4,0,0,,,,,3,,,66,0
3886,note_off,0,0,0,,,,,4,,,50,0
3888,note_on,2,0,0,,,,,0,,,67,96
3888,note_on,0,0,0,,,,,1,,,67,96
3888,note_on,0,0,0,,,,,2,,,64,96
3888,note_on,0,0,0,,,,,3,,,67,96
3888,note_on,0,0,0,,,,,4,,,52,96
3898,note_off,10,0,0,,,,,3,,,67,0
3898,note_off,0,0,0,,,,,4,,,52,0
3900,note_on,2,0,0,,,,,3,,,66,96
3900,note_on,0,0,0,,,,,4,,,50,96
3910,note_off,10,0,0,,,,,3,,,66,0
3910,note_off,0,0,0,,,,,4,,,50,0
3912,note_on,2,0,0,,,,,3,,,64,96
3912,note_on,0,0,0,,,,,4,,,49,96
3922,note_off,10,0,0,,,,,3,,,64,0
3922,note_off,0,0,0,,,,,4,,,49,0
3924,note_on,2,0,0,,,,,3,,,62,96
3924,note_on,0,0,0,,,,,4,,,47,96
3930,note_off,6,0,0,,,,,0,,,67,0
3930,note_off,0,0,0,,,,,1,,,67,0
3930,note_off,0,0,0,,,,,2,,,64,0
3934,note_off,4,0,0,,,,,3,,,62,0
3934,note_off,0,0,0,,,,,4,,,47,0
3936,note_on,2,0,0,,,,,0,,,67,96
3936,note_on,0,0,0,,,,,1,,,67,96
3936,note_on,0,0,0,,,,,2,,,64,96
3936,note_on,0,0,0,,,,,3,,,61,96
3936,note_on,0,0,0,,,,,4,,,45,96
3946,note_off,10,0,0,,,,,3,,,61,0
3946,note_off,0,0,0,,,,,4,,,45,0
3948,note_on,2,0,0,,,,,3,,,62,96
3948,note_on,0,0,0,,,,,4,,,47,96
3958,note_off,10,0,0,,,,,3,,,62,0
3958,note_off,0,0,0,,,,,4,,,47,0
3960,note_on,2,0,0,,,,,3,,,64,96
3960,note_on,0,0,0,,,,,4,,,49,96
3970,note_off,10,0,0,,,,,3,,,64,0
3970,note_off,0,0,0,,,,,4,,,49,0
3972,note_on,2,0,0,,,,,3,,,66,96
3972,note_on,0,0,0,,,,,4,,,50,96
3982,note_off,10,0,0,,,,,3,,,66,0
3982,note_off,0,0,0,,,,,4,,,50,0
3984,note_on,2,0,0,,,,,3,,,67,96
3984,note_on,0,0,0,,,,,4,,,52,96
3994,note_off,10,0,0,,,,,3,,,67,0
3994,note_off,0,0,0,,,,,4,,,52,0
3996,note_on,2,0,0,,,,,3,,,64,96
3996,note_on,0,0,0,,,,,4,,,49,96
3999,note_off,3,0,0,,,,,0,,,67,0
3999,note_off,0,0,0,,,,,1,,,67,0
3999,note_off,0,0,0,,,,,2,,,64,0
4006,note_off,7,0,0,,,,,3,,,64,0
4006,note_off,0,0,0,,,,,4,,,49,0
4008,note_on,2,0,0,,,,,0,,,81,96
4008,note_on,0,0,0,,,,,1,,,81,96
4008,note_on,0,0,0,,,,,2,,,81,96
4008,note_on,0,0,0,,,,,3,,,62,96
4008,note_on,0,0,0,,,,,4,,,47,96
4018,note_off,10,0,0,,,,,3,,,62,0
4018,note_off,0,0,0,,,,,4,,,47,0
4020,note_on,2,0,0,,,,,3,,,61,96
4020,note_on,0,0,0,,,,,4,,,45,96
4029,note_off,9,0,0,,,,,0,,,81,0
4029,note_off,0,0,0,,,,,1,,,81,0
4029,note_off,0,0,0,,,,,2,,,81,0
4030,note_off,1,0,0,,,,,3,,,61,0
4030,note_off,0,0,0,,,,,4,,,45,0
4032,note_on,2,0,0,,,,,0,,,78,96
4032,note_on,0,0,0,,,,,1,,,78,96
4032,note_on,0,0,0,,,,,2,,,78,96
4032,note_on,0,0,0,,,,,3,,,57,96
4032,note_on,0,0,0,,,,,4,,,50,96
4053,note_off,21,0,0,,,,,0,,,78,0
4053,note_off,0,0,0,,,,,1,,,78,0
4053,note_off,0,0,0,,,,,2,,,78,0
4053,note_off,0,0,0,,,,,3,,,57,0
4053,note_off,0,0,0,,,,,4,,,50,0
4056,note_on,3,0,0,,,,,0,,,76,96
4056,note_on,0,0,0,,,,,1,,,76,96
4056,note_on,0,0,0,,,,,2,,,76,96
4056,note_on,0,0,0,,,,,3,,,69,96
4056,note_on,0,0,0,,,,,4,,,54,96
4066,note_off,10,0,0,,,,,0,,,76,0
4066,note_off,0,0,0,,,,,1,,,76,0
4066,note_off,0,0,0,,,,,2,,,76,0
4068,note_on,2,0,0,,,,,0,,,74,96
4068,note_on,0,0,0,,,,,1,,,74,96
4068,note_on,0,0,0,,,,,2,,,74,96
4077,note_off,9,0,0,,,,,3,,,69,0
4077,note_off,0,0,0,,,,,4,,,54,0
4078,note_off,1,0,0,,,,,0,,,74,0
4078,note_off,0,0,0,,,,,1,,,74,0
4078,note_off,0,0,0,,,,,2,,,74,0
4080,note_on,2,0,0,,,,,0,,,76,96
4080,note_on,0,0,0,,,,,1,,,76,96
4080,note_on,0,0,0,,,,,2,,,76,96
4080,note_on,0,0,0,,,,,3,,,71,96
4080,note_on,0,0,0,,,,,4,,,55,96
4101,note_off,21,0,0,,,,,0,,,76,0
4101,note_off,0,0,0,,,,,1,,,76,0
4101,note_off,0,0,0,,,,,2,,,76,0
4101,note_off,0,0,0,,,,,3,,,71,0
4101,note_off,0,0,0,,,,,4,,,55,0
4104,note_on,3,0,0,,,,,0,,,73,96
4104,note_on,0,0,0,,,,,1,,,73,96
4104,note_on,0,0,0,,,,,2,,,73,96
4104,note_on,0,0,0,,,,,3,,,64,96
4104,note_on,0,0,0,,,,,4,,,57,96
4125,note_off,21,0,0,,,,,0,,,73,0
4125,note_off,0,0,0,,,,,1,,,73,0
4125,note_off,0,0,0,,,,,2,,,73,0
4125,note_off,0,0,0,,,,,3,,,64,0
4125,note_off,0,0,0,,,,,4,,,57,0
4128,note_on,3,0,0,,,,,0,,,67,96
4128,note_on,0,0,0,,,,,1,,,67,96
4128,note_on,0,0,0,,,,,2,,,64,96
4128,note_on,0,0,0,,,,,3,,,61,96
4128,note_on,0,0,0,,,,,4,,,45,96
4138,note_off,10,0,0,,,,,3,,,61,0
4138,note_off,0,0,0,,,,,4,,,45,0
4140,note_on,2,0,0,,,,,3,,,62,96
4140,note_on,0,0,0,,,,,4,,,47,96
4150,note_off,10,0,0,,,,,3,,,62,0
4150,note_off,0,0,0,,,,,4,,,47,0
4152,note_on,2,0,0,,,,,3,,,64,96
4152,note_on,0,0,0,,,,,4,,,49,96
4162,note_off,10,0,0,,,,,3,,,64,0
4162,note_off,0,0,0,,,,,4,,,49,0
4164,note_on,2,0,0,,,,,3,,,66,96
4164,note_on,0,0,0,,,,,4,,,50,96
4170,note_off,6,0,0,,,,,0,,,67,0
4170,note_off,0,0,0,,,,,1,,,67,0
4170,note_off,0,0,0,,,,,2,,,64,0
4174,note_off,4,0,0,,,,,3,,,66,0
4174,note_off,0,0,0,,,,,4,,,50,0
4176,note_on,2,0,0,,,,,0,,,67,96
4176,note_on,0,0,0,,,,,1,,,67,96
4176,note_on,0,0,0,,,,,2,,,64,96
4176,note_on,0,0,0,,,,,3,,,67,96
4176,note_on,0,0,0,,,,,4,,,52,96
4186,note_off,10,0,0,,,,,3,,,67,0
4186,note_off,0,0,0,,,,,4,,,52,0
4188,note_on,2,0,0,,,,,3,,,66,96
4188,note_on,0,0,0,,,,,4,,,50,96
4198,note_off,10,0,0,,,,,3,,,66,0
4198,note_off,0,0,0,,,,,4,,,50,0
4200,note_on,2,0,0,,,,,3,,,64,96
4200,note_on,0,0,0,,,,,4,,,49,96
4210,note_off,10,0,0,,,,,3,,,64,0
4210,note_off,0,0,0,,,,,4,,,49,0
4212,note_on,2,0,0,,,,,3,,,62,96
4212,note_on,0,0,0,,,,,4,,,47,96
4218,note_off,6,0,0,,,,,0,,,67,0
4218,note_off,0,0,0,,,,,1,,,67,0
4218,note_off,0,0,0,,,,,2,,,64,0
4222,note_off,4,0,0,,,,,3,,,62,0
4222,note_off,0,0,0,,,,,4,,,47,0
4224,note_on,2,0,0,,,,,0,,,67,96
4224,note_on,0,0,0,,,,,1,,,67,96
4224,note_on,0,0,0,,,,,2,,,64,96
4224,note_on,0,0,0,,,,,3,,,61,96
4224,note_on,0,0,0,,,,,4,,,45,96
4234,note_off,10,0,0,,,,,3,,,61,0
4234,note_off,0,0,0,,,,,4,,,45,0
4236,note_on,2,0,0,,,,,3,,,62,96
4236,note_on,0,0,0,,,,,4,,,47,96
4246,note_off,10,0,0,,,,,3,,,62,0
4246,note_off,0,0,0,,,,,4,,,47,0
4248,note_on,2,0,0,,,,,3,,,64,96
4248,note_on,0,0,0,,,,,4,,,49,96
4258,note_off,10,0,0,,,,,3,,,64,0
4258,note_off,0,0,0,,,,,4,,,49,0
4260,note_on,2,0,0,,,,,3,,,66,96
4260,note_on,0,0,0,,,,,4,,,50,96
4270,note_off,10,0,0,,,,,3,,,66,0
4270,note_off,0,0,0,,,,,4,,,50,0
4272,note_on,2,0,0,,,,,3,,,67,96
4272,note_on,0,0,0,,,,,4,,,52,96
4282,note_off,10,0,0,,,,,3,,,67,0
4282,note_off,0,0,0,,,,,4,,,52,0
4284,note_on,2,0,0,,,,,3,,,64,96
4284,note_on,0,0,0,,,,,4,,,49,96
4287,note_off,3,0,0,,,,,0,,,67,0
4287,note_off,0,0,0,,,,,1,,,67,0
4287,note_off,0,0,0,,,,,2,,,64,0
4294,note_off,7,0,0,,,,,3,,,64,0
4294,note_off,0,0,0,,,,,4,,,49,0
4296,note_on,2,0,0,,,,,0,,,81,96
4296,note_on,0,0,0,,,,,1,,,81,96
4296,note_on,0,0,0,,,,,2,,,81,96
4296,note_on,0,0,0,,,,,3,,,62,96
4296,note_on,0,0,0,,,,,4,,,47,96
4306,note_off,10,0,0,,,,,3,,,62,0
4306,note_off,0,0,0,,,,,4,,,47,0
4308,note_on,2,0,0,,,,,3,,,61,96
4308,note_on,0,0,0,,,,,4,,,45,96
4317,note_off,9,0,0,,,,,0,,,81,0
4317,note_off,0,0,0,,,,,1,,,81,0
4317,note_off,0,0,0,,,,,2,,,81,0
4318,note_off,1,0,0,,,,,3,,,61,0
4318,note_off,0,0,0,,,,,4,,,45,0
4320,note_on,2,0,0,,,,,0,,,78,96
4320,note_on,0,0,0,,,,,1,,,78,96
4320,note_on,0,0,0,,,,,2,,,78,96
4320,note_on,0,0,0,,,,,3,,,57,96
4320,note_on,0,0,0,,,,,4,,,50,96
4341,note_off,21,0,0,,,,,0,,,78,0
4341,note_off,0,0,0,,,,,1,,,78,0
4341,note_off,0,0,0,,,,,2,,,78,0
4341,note_off,0,0,0,,,,,3,,,57,0
4341,note_off,0,0,0,,,,,4,,,50,0
4344,note_on,3,0,0,,,,,0,,,76,96
4344,note_on,0,0,0,,,,,1,,,76,96
4344,note_on,0,0,0,,,,,2,,,76,96
4344,note_on,0,0,0,,,,,3,,,69,96
4344,note_on,0,0,0,,,,,4,,,54,96
4354,note_off,10,0,0,,,,,0,,,76,0
4354,note_off,0,0,0,,,,,1,,,76,0
4354,note_off,0,0,0,,,,,2,,,76,0
4356,note_on,2,0,0,,,,,0,,,74,96
4356,note_on,0,0,0,,,,,1,,,74,96
4356,note_on,0,0,0,,,,,2,,,74,96
4365,note_off,9,0,0,,,,,3,,,69,0
4365,note_off,0,0,0,,,,,4,,,54,0
4366,note_off,1,0,0,,,,,0,,,74,0
4366,note_off,0,0,0,,,,,1,,,74,0
4366,note_off,0,0,0,,,,,2,,,74,0
4368,note_on,2,0,0,,,,,0,,,76,96
4368,note_on,0,0,0,,,,,1,,,76,96
4368,note_on,0,0,0,,,,,2,,,76,96
4368,note_on,0,0,0,,,,,3,,,71,96
4368,note_on,0,0,0,,,,,4,,,55,96
4389,note_off,21,0,0,,,,,0,,,76,0
4389,note_off,0,0,0,,,,,1,,,76,0
4389,note_off,0,0,0,,,,,2,,,76,0
4389,note_off,0,0,0,,,,,3,,,71,0
4389,note_off,0,0,0,,,,,4,,,55,0
4392,note_on,3,0,0,,,,,0,,,73,96
4392,note_on,0,0,0,,,,,1,,,73,96
4392,note_on,0,0,0,,,,,2,,,73,96
4392,note_on,0,0,0,,,,,3,,,64,96
4392,note_on,0,0,0,,,,,4,,,57,96
4413,note_off,21,0,0,,,,,0,,,73,0
4413,note_off,0,0,0,,,,,1,,,73,0
4413,note_off,0,0,0,,,,,2,,,73,0
4413,note_off,0,0,0,,,,,3,,,64,0
4413,note_off,0,0,0,,,,,4,,,57,0
4416,note_on,3,0,0,,,,,0,,,78,96
4416,note_on,0,0,0,,,,,1,,,74,96
4416,note_on,0,0,0,,,,,2,,,74,96
4416,note_on,0,0,0,,,,,3,,,66,96
4416,note_on,0,0,0,,,,,4,,,50,96
4426,note_off,10,0,0,,,,,0,,,78,0
4428,note_on,2,0,0,,,,,0,,,74,96
4438,note_off,10,0,0,,,,,0,,,74,0
4440,note_on,2,0,0,,,,,0,,,62,96
4450,note_off,10,0,0,,,,,0,,,62,0
4452,note_on,2,0,0,,,,,0,,,74,96
4458,note_off,6,0,0,,,,,1,,,74,0
4458,note_off,0,0,0,,,,,2,,,74,0
4458,note_off,0,0,0,,,,,3,,,66,0
4458,note_off,0,0,0,,,,,4,,,50,0
4462,note_off,4,0,0,,,,,0,,,74,0
4464,note_on,2,0,0,,,,,0,,,78,96
4474,note_off,10,0,0,,,,,0,,,78,0
4476,note_on,2,0,0,,,,,0,,,79,96
4486,note_off,10,0,0,,,,,0,,,79,0
4488,note_on,2,0,0,,,,,0,,,81,96
4498,note_off,10,0,0,,,,,0,,,81,0
4500,note_on,2,0,0,,,,,0,,,79,96
4510,note_off,10,0,0,,,,,0,,,79,0
4512,note_on,2,0,0,,,,,0,,,78,96
4512,note_on,0,0,0,,,,,4,,,50,96
4522,note_off,10,0,0,,,,,0,,,78,0
4524,note_on,2,0,0,,,,,0,,,74,96
4534,note_off,10,0,0,,,,,0,,,74,0
4536,note_on,2,0,0,,,,,0,,,62,96
4546,note_off,10,0,0,,,,,0,,,62,0
4548,note_on,2,0,0,,,,,0,,,74,96
4554,note_off,6,0,0,,,,,4,,,50,0
4558,note_off,4,0,0,,,,,0,,,74,0
4560,note_on,2,0,0,,,,,0,,,78,96
4570,note_off,10,0,0,,,,,0,,,78,0
4572,note_on,2,0,0,,,,,0,,,79,96
4582,note_off,10,0,0,,,,,0,,,79,0
4584,note_on,2,0,0,,,,,0,,,81,96
4594,note_off,10,0,0,,,,,0,,,81,0
4596,note_on,2,0,0,,,,,0,,,79,96
4606,note_off,10,0,0,,,,,0,,,79,0
4608,note_on,2,0,0,,,,,0,,,78,96
4608,note_on,0,0,0,,,,,4,,,50,96
4618,note_off,10,0,0,,,,,0,,,78,0
4620,note_on,2,0,0,,,,,0,,,74,96
4630,note_off,10,0,0,,,,,0,,,74,0
4632,note_on,2,0,0,,,,,0,,,62,96
4642,note_off,10,0,0,,,,,0,,,62,0
4644,note_on,2,0,0,,,,,0,,,78,96
4650,note_off,6,0,0,,,,,4,,,50,0
4654,note_off,4,0,0,,,,,0,,,78,0
4656,note_on,2,0,0,,,,,0,,,81,96
4666,note_off,10,0,0,,,,,0,,,81,0
4668,note_on,2,0,0,,,,,0,,,83,96
4678,note_off,10,0,0,,,,,0,,,83,0
4680,note_on,2,0,0,,,,,0,,,85,96
4690,note_off,10,0,0,,,,,0,,,85,0
4692,note_on,2,0,0,,,,,0,,,81,96
4702,note_off,10,0,0,,,,,0,,,81,0
4704,note_on,2,0,0,,,,,0,,,86,96
4704,note_on,0,0,0,,,,,4,,,50,96
4714,note_off,10,0,0,,,,,0,,,86,0
4716,note_on,2,0,0,,,,,0,,,78,96
4726,note_off,10,0,0,,,,,0,,,78,0
4728,note_on,2,0,0,,,,,0,,,62,96
4738,note_off,10,0,0,,,,,0,,,62,0
4740,note_on,2,0,0,,,,,0,,,78,96
4746,note_off,6,0,0,,,,,4,,,50,0
4750,note_off,4,0,0,,,,,0,,,78,0
4752,note_on,2,0,0,,,,,0,,,81,96
4762,note_off,10,0,0,,,,,0,,,81,0
4764,note_on,2,0,0,,,,,0,,,83,96
4774,note_off,10,0,0,,,,,0,,,83,0
4776,note_on,2,0,0,,,,,0,,,85,96
4786,note_off,10,0,0,,,,,0,,,85,0
4788,note_on,2,0,0,,,,,0,,,81,96
4798,note_off,10,0,0,,,,,0,,,81,0
4800,note_on,2,0,0,,,,,0,,,86,96
4800,note_on,0,0,0,,,,,4,,,50,96
4810,note_off,10,0,0,,,,,0,,,86,0
4812,note_on,2,0,0,,,,,0,,,78,96
4822,note_off,10,0,0,,,,,0,,,78,0
4824,note_on,2,0,0,,,,,0,,,62,96
4834,note_off,10,0,0,,,,,0,,,62,0
4836,note_on,2,0,0,,,,,0,,,78,96
4842,note_off,6,0,0,,,,,4,,,50,0
4846,note_off,4,0,0,,,,,0,,,78,0
4848,note_on,2,0,0,,,,,0,,,81,96
4858,note_off,10,0,0,,,,,0,,,81,0
4860,note_on,2,0,0,,,,,0,,,83,96
4870,note_off,10,0,0,,,,,0,,,83,0
4872,note_on,2,0,0,,,,,0,,,85,96
4882,note_off,10,0,0,,,,,0,,,85,0
4884,note_on,2,0,0,,,,,0,,,81,96
4894,note_off,10,0,0,,,,,0,,,81,0
4896,note_on,2,0,0,,,,,0,,,86,96
4896,note_on,0,0,0,,,,,0,,,78,96
4896,note_on,0,0,0,,,,,0,,,62,96
4896,note_on,0,0,0,,,,,4,,,50,96
4917,note_off,21,0,0,,,,,4,,,50,0
4920,note_on,3,0,0,,,,,4,,,50,96
4938,note_off,18,0,0,,,,,0,,,86,0
4938,note_off,0,0,0,,,,,0,,,78,0
4938,note_off,0,0,0,,,,,0,,,62,0
4941,note_off,3,0,0,,,,,4,,,50,0
4944,note_on,3,0,0,,,,,4,,,57,96
4954,note_off,10,0,0,,,,,4,,,57,0
4956,note_on,2,0,0,,,,,4,,,55,96
4966,note_off,10,0,0,,,,,4,,,55,0
4968,note_on,2,0,0,,,,,4,,,54,96
4978,note_off,10,0,0,,,,,4,,,54,0
4980,note_on,2,0,0,,,,,4,,,52,96
4990,note_off,10,0,0,,,,,4,,,52,0
4992,note_on,2,0,0,,,,,0,,,81,96
4992,note_on,0,0,0,,,,,4,,,50,96
5002,note_off,10,0,0,,,,,0,,,81,0
5004,note_on,2,0,0,,,,,0,,,78,96
5014,note_off,10,0,0,,,,,0,,,78,0
5016,note_on,2,0,0,,,,,0,,,62,96
5026,note_off,10,0,0,,,,,0,,,62,0
5028,note_on,2,0,0,,,,,0,,,78,96
5034,note_off,6,0,0,,,,,4,,,50,0
5038,note_off,4,0,0,,,,,0,,,78,0
5040,note_on,2,0,0,,,,,0,,,81,96
5050,note_off,10,0,0,,,,,0,,,81,0
5052,note_on,2,0,0,,,,,0,,,83,96
5062,note_off,10,0,0,,,,,0,,,83,0
5064,note_on,2,0,0,,,,,0,,,84,96
5074,note_off,10,0,0,,,,,0,,,84,0
5076,note_on,2,0,0,,,,,0,,,81,96
5086,note_off,10,0,0,,,,,0,,,81,0
5088,note_on,2,0,0,,,,,0,,,83,96
5088,note_on,0,0,0,,,,,4,,,55,96
5098,note_off,10,0,0,,,,,0,,,83,0
5100,note_on,2,0,0,,,,,0,,,79,96
5110,note_off,10,0,0,,,,,0,,,79,0
5112,note_on,2,0,0,,,,,0,,,62,96
5122,note_off,10,0,0,,,,,0,,,62,0
5124,note_on,2,0,0,,,,,0,,,79,96
5130,note_off,6,0,0,,,,,4,,,55,0
5134,note_off,4,0,0,,,,,0,,,79,0
5136,note_on,2,0,0,,,,,0,,,83,96
5146,note_off,10,0,0,,,,,0,,,83,0
5148,note_on,2,0,0,,,,,0,,,84,96
5158,note_off,10,0,0,,,,,0,,,84,0
5160,note_on,2,0,0,,,,,0,,,86,96
5170,note_off,10,0,0,,,,,0,,,86,0
5172,note_on,2,0,0,,,,,0,,,83,96
5182,note_off,10,0,0,,,,,0,,,83,0
5184,note_on,2,0,0,,,,,0,,,81,96
5184,note_on,0,0,0,,,,,4,,,54,96
5194,note_off,10,0,0,,,,,0,,,81,0
5196,note_on,2,0,0,,,,,0,,,78,96
5206,note_off,10,0,0,,,,,0,,,78,0
5208,note_on,2,0,0,,,,,0,,,62,96
5218,note_off,10,0,0,,,,,0,,,62,0
5220,note_on,2,0,0,,,,,0,,,78,96
5226,note_off,6,0,0,,,,,4,,,54,0
5230,note_off,4,0,0,,,,,0,,,78,0
5232,note_on,2,0,0,,,,,0,,,81,96
5242,note_off,10,0,0,,,,,0,,,81,0
5244,note_on,2,0,0,,,,,0,,,83,96
5254,note_off,10,0,0,,,,,0,,,83,0
5256,note_on,2,0,0,,,,,0,,,84,96
5266,note_off,10,0,0,,,,,0,,,84,0
5268,note_on,2,0,0,,,,,0,,,81,96
5278,note_off,10,0,0,,,,,0,,,81,0
5280,note_on,2,0,0,,,,,0,,,79,96
5280,note_on,0,0,0,,,,,4,,,52,96
5290,note_off,10,0,0,,,,,0,,,79,0
5292,note_on,2,0,0,,,,,0,,,76,96
5302,note_off,10,0,0,,,,,0,,,76,0
5304,note_on,2,0,0,,,,,0,,,62,96
5314,note_off,10,0,0,,,,,0,,,62,0
5316,note_on,2,0,0,,,,,0,,,76,96
5322,note_off,6,0,0,,,,,4,,,52,0
5326,note_off,4,0,0,,,,,0,,,76,0
5328,note_on,2,0,0,,,,,0,,,79,96
5338,note_off,10,0,0,,,,,0,,,79,0
5340,note_on,2,0,0,,,,,0,,,81,96
5350,note_off,10,0,0,,,,,0,,,81,0
5352,note_on,2,0,0,,,,,0,,,83,96
5362,note_off,10,0,0,,,,,0,,,83,0
5364,note_on,2,0,0,,,,,0,,,79,96
5374,note_off,10,0,0,,,,,0,,,79,0
5376,note_on,2,0,0,,,,,0,,,78,96
5376,note_on,0,0,0,,,,,4,,,50,96
5386,note_off,10,0,0,,,,,0,,,78,0
5388,note_on,2,0,0,,,,,0,,,74,96
5398,note_off,10,0,0,,,,,0,,,74,0
5400,note_on,2,0,0,,,,,0,,,62,96
5410,note_off,10,0,0,,,,,0,,,62,0
5412,note_on,2,0,0,,,,,0,,,74,96
5418,note_off,6,0,0,,,,,4,,,50,0
5422,note_off,4,0,0,,,,,0,,,74,0
5424,note_on,2,0,0,,,,,0,,,78,96
5434,note_off,10,0,0,,,,,0,,,78,0
5436,note_on,2,0,0,,,,,0,,,79,96
5446,note_off,10,0,0,,,,,0,,,79,0
5448,note_on,2,0,0,,,,,0,,,81,96
5458,note_off,10,0,0,,,,,0,,,81,0
5460,note_on,2,0,0,,,,,0,,,78,96
5470,note_off,10,0,0,,,,,0,,,78,0
5472,note_on,2,0,0,,,,,0,,,76,96
5472,note_on,0,0,0,,,,,4,,,45,96
5482,note_off,10,0,0,,,,,0,,,76,0
5484,note_on,2,0,0,,,,,0,,,73,96
5494,note_off,10,0,0,,,,,0,,,73,0
5496,note_on,2,0,0,,,,,0,,,69,96
5506,note_off,10,0,0,,,,,0,,,69,0
5508,note_on,2,0,0,,,,,0,,,73,96
5514,note_off,6,0,0,,,,,4,,,45,0
5518,note_off,4,0,0,,,,,0,,,73,0
5520,note_on,2,0,0,,,,,0,,,76,96
5520,note_on,0,0,0,,,,,4,,,49,96
5530,note_off,10,0,0,,,,,0,,,76,0
5532,note_on,2,0,0,,,,,0,,,78,96
5542,note_off,10,0,0,,,,,0,,,78,0
5544,note_on,2,0,0,,,,,0,,,79,96
5554,note_off,10,0,0,,,,,0,,,79,0
5556,note_on,2,0,0,,,,,0,,,76,96
5562,note_off,6,0,0,,,,,4,,,49,0
5566,note_off,4,0,0,,,,,0,,,76,0
5568,note_on,2,0,0,,,,,0,,,81,96
5568,note_on,0,0,0,,,,,4,,,50,96
5578,note_off,10,0,0,,,,,0,,,81,0
5580,note_on,2,0,0,,,,,0,,,78,96
5590,note_off,10,0,0,,,,,0,,,78,0
5592,note_on,2,0,0,,,,,0,,,62,96
5602,note_off,10,0,0,,,,,0,,,62,0
5604,note_on,2,0,0,,,,,0,,,78,96
5610,note_off,6,0,0,,,,,4,,,50,0
5614,note_off,4,0,0,,,,,0,,,78,0
5616,note_on,2,0,0,,,,,0,,,81,96
5626,note_off,10,0,0,,,,,0,,,81,0
5628,note_on,2,0,0,,,,,0,,,83,96
5638,note_off,10,0,0,,,,,0,,,83,0
5640,note_on,2,0,0,,,,,0,,,84,96
5650,note_off,10,0,0,,,,,0,,,84,0
5652,note_on,2,0,0,,,,,0,,,81,96
5662,note_off,10,0,0,,,,,0,,,81,0
5664,note_on,2,0,0,,,,,0,,,83,96
5664,note_on,0,0,0,,,,,4,,,55,96
5674,note_off,10,0,0,,,,,0,,,83,0
5676,note_on,2,0,0,,,,,0,,,79,96
5686,note_off,10,0,0,,,,,0,,,79,0
5688,note_on,2,0,0,,,,,0,,,62,96
5698,note_off,10,0,0,,,,,0,,,62,0
5700,note_on,2,0,0,,,,,0,,,79,96
5706,note_off,6,0,0,,,,,4,,,55,0
5710,note_off,4,0,0,,,,,0,,,79,0
5712,note_on,2,0,0,,,,,0,,,83,96
5722,note_off,10,0,0,,,,,0,,,83,0
5724,note_on,2,0,0,,,,,0,,,84,96
5734,note_off,10,0,0,,,,,0,,,84,0
5736,note_on,2,0,0,,,,,0,,,86,96
5746,note_off,10,0,0,,,,,0,,,86,0
5748,note_on,2,0,0,,,,,0,,,83,96
5758,note_off,10,0,0,,,,,0,,,83,0
5760,note_on,2,0,0,,,,,0,,,81,96
5760,note_on,0,0,0,,,,,4,,,54,96
5770,note_off,10,0,0,,,,,0,,,81,0
5772,note_on,2,0,0,,,,,0,,,78,96
5782,note_off,10,0,0,,,,,0,,,78,0
5784,note_on,2,0,0,,,,,0,,,62,96
5794,note_off,10,0,0,,,,,0,,,62,0
5796,note_on,2,0,0,,,,,0,,,78,96
5802,note_off,6,0,0,,,,,4,,,54,0
5806,note_off,4,0,0,,,,,0,,,78,0
5808,note_on,2,0,0,,,,,0,,,81,96
5818,note_off,10,0,0,,,,,0,,,81,0
5820,note_on,2,0,0,,,,,0,,,83,96
5830,note_off,10,0,0,,,,,0,,,83,0
5832,note_on,2,0,0,,,,,0,,,84,96
5842,note_off,10,0,0,,,,,0,,,84,0
5844,note_on,2,0,0,,,,,0,,,81,96
5854,note_off,10,0,0,,,,,0,,,81,0
5856,note_on,2,0,0,,,,,0,,,79,96
5856,note_on,0,0,0,,,,,4,,,52,96
5866,note_off,10,0,0,,,,,0,,,79,0
5868,note_on,2,0,0,,,,,0,,,76,96
5878,note_off,10,0,0,,,,,0,,,76,0
5880,note_on,2,0,0,,,,,0,,,62,96
5890,note_off,10,0,0,,,,,0,,,62,0
5892,note_on,2,0,0,,,,,0,,,76,96
5898,note_off,6,0,0,,,,,4,,,52,0
5902,note_off,4,0,0,,,,,0,,,76,0
5904,note_on,2,0,0,,,,,0,,,79,96
5914,note_off,10,0,0,,,,,0,,,79,0
5916,note_on,2,0,0,,,,,0,,,81,96
5926,note_off,10,0,0,,,,,0,,,81,0
5928,note_on,2,0,0,,,,,0,,,83,96
5938,note_off,10,0,0,,,,,0,,,83,0
5940,note_on,2,0,0,,,,,0,,,79,96
5950,note_off,10,0,0,,,,,0,,,79,0
5952,note_on,2,0,0,,,,,0,,,78,96
5952,note_on,0,0,0,,,,,4,,,50,96
5962,note_off,10,0,0,,,,,0,,,78,0
5964,note_on,2,0,0,,,,,0,,,74,96
5974,note_off,10,0,0,,,,,0,,,74,0
5976,note_on,2,0,0,,,,,0,,,62,96
5986,note_off,10,0,0,,,,,0,,,62,0
5988,note_on,2,0,0,,,,,0,,,74,96
5994,note_off,6,0,0,,,,,4,,,50,0
5998,note_off,4,0,0,,,,,0,,,74,0
6000,note_on,2,0,0,,,,,0,,,78,96
6010,note_off,10,0,0,,,,,0,,,78,0
6012,note_on,2,0,0,,,,,0,,,79,96
6022,note_off,10,0,0,,,,,0,,,79,0
6024,note_on,2,0,0,,,,,0,,,81,96
6034,note_off,10,0,0,,,,,0,,,81,0
6036,note_on,2,0,0,,,,,0,,,78,96
6046,note_off,10,0,0,,,,,0,,,78,0
6048,note_on,2,0,0,,,,,0,,,76,96
6048,note_on,0,0,0,,,,,0,,,73,96
6048,note_on,0,0,0,,,,,0,,,69,96
6048,note_on,0,0,0,,,,,4,,,57,96
6069,note_off,21,0,0,,,,,4,,,57,0
6072,note_on,3,0,0,,,,,4,,,55,96
6090,note_off,18,0,0,,,,,0,,,76,0
6090,note_off,0,0,0,,,,,0,,,73,0
6090,note_off,0,0,0,,,,,0,,,69,0
6093,note_off,3,0,0,,,,,4,,,55,0
6096,note_on,3,0,0,,,,,4,,,54,96
6117,note_off,21,0,0,,,,,4,,,54,0
6120,note_on,3,0,0,,,,,4,,,52,96
6141,note_off,21,0,0,,,,,4,,,52,0
6144,note_on,3,0,0,,,,,0,,,81,96
6144,note_on,0,0,0,,,,,4,,,50,96
6175,note_off,31,0,0,,,,,0,,,81,0
6180,note_on,5,0,0,,,,,0,,,83,96
6185,note_off,5,0,0,,,,,0,,,83,0
6186,note_on,1,0,0,,,,,0,,,81,96
6186,note_off,0,0,0,,,,,4,,,50,0
6191,note_off,5,0,0,,,,,0,,,81,0
6192,note_on,1,0,0,,,,,0,,,86,96
6192,note_on,0,0,0,,,,,4,,,54,96
6213,note_off,21,0,0,,,,,0,,,86,0
6216,note_on,3,0,0,,,,,0,,,83,96
6222,note_off,6,0,0,,,,,0,,,83,0
6222,note_on,0,0,0,,,,,0,,,81,96
6228,note_off,6,0,0,,,,,0,,,81,0
6228,note_on,0,0,0,,,,,0,,,83,96
6234,note_off,6,0,0,,,,,0,,,83,0
6234,note_on,0,0,0,,,,,0,,,81,96
6234,note_off,0,0,0,,,,,4,,,54,0
6239,note_off,5,0,0,,,,,0,,,81,0
6240,note_on,1,0,0,,,,,0,,,83,96
6240,note_on,0,0,0,,,,,4,,,55,96
6271,note_off,31,0,0,,,,,0,,,83,0
6276,note_on,5,0,0,,,,,0,,,85,96
6281,note_off,5,0,0,,,,,0,,,85,0
6282,note_on,1,0,0,,,,,0,,,83,96
6282,note_off,0,0,0,,,,,4,,,55,0
6287,note_off,5,0,0,,,,,0,,,83,0
6288,note_on,1,0,0,,,,,0,,,88,96
6288,note_on,0,0,0,,,,,4,,,56,96
6309,note_off,21,0,0,,,,,0,,,88,0
6312,note_on,3,0,0,,,,,0,,,85,96
6318,note_off,6,0,0,,,,,0,,,85,0
6318,note_on,0,0,0,,,,,0,,,83,96
6324,note_off,6,0,0,,,,,0,,,83,0
6324,note_on,0,0,0,,,,,0,,,85,96
6330,note_off,6,0,0,,,,,0,,,85,0
6330,note_on,0,0,0,,,,,0,,,83,96
6330,note_off,0,0,0,,,,,4,,,56,0
6335,note_off,5,0,0,,,,,0,,,83,0
6336,note_on,1,0,0,,,,,0,,,85,96
6336,note_on,0,0,0,,,,,4,,,57,96
6367,note_off,31,0,0,,,,,0,,,85,0
6372,note_on,5,0,0,,,,,0,,,86,96
6377,note_off,5,0,0,,,,,0,,,86,0
6378,note_on,1,0,0,,,,,0,,,85,96
6378,note_off,0,0,0,,,,,4,,,57,0
6383,note_off,5,0,0,,,,,0,,,85,0
6384,note_on,1,0,0,,,,,0,,,90,96
6384,note_on,0,0,0,,,,,4,,,58,96
6405,note_off,21,0,0,,,,,0,,,90,0
6408,note_on,3,0,0,,,,,0,,,86,96
6414,note_off,6,0,0,,,,,0,,,86,0
6414,note_on,0,0,0,,,,,0,,,85,96
6420,note_off,6,0,0,,,,,0,,,85,0
6420,note_on,0,0,0,,,,,0,,,86,96
6426,note_off,6,0,0,,,,,0,,,86,0
6426,note_on,0,0,0,,,,,0,,,85,96
6426,note_off,0,0,0,,,,,4,,,58,0
6431,note_off,5,0,0,,,,,0,,,85,0
6432,note_on,1,0,0,,,,,0,,,86,96
6432,note_on,0,0,0,,,,,4,,,59,96
6463,note_off,31,0,0,,,,,0,,,86,0
6468,note_on,5,0,0,,,,,0,,,88,96
6473,note_off,5,0,0,,,,,0,,,88,0
6474,note_on,1,0,0,,,,,0,,,86,96
6474,note_off,0,0,0,,,,,4,,,59,0
6479,note_off,5,0,0,,,,,0,,,86,0
6480,note_on,1,0,0,,,,,0,,,91,96
6480,note_on,0,0,0,,,,,4,,,59,96
6501,note_off,21,0,0,,,,,0,,,91,0
6504,note_on,3,0,0,,,,,0,,,88,96
6510,note_off,6,0,0,,,,,0,,,88,0
6510,note_on,0,0,0,,,,,0,,,86,96
6516,note_off,6,0,0,,,,,0,,,86,0
6516,note_on,0,0,0,,,,,0,,,88,96
6522,note_off,6,0,0,,,,,0,,,88,0
6522,note_on,0,0,0,,,,,0,,,86,96
6522,note_off,0,0,0,,,,,4,,,59,0
6527,note_off,5,0,0,,,,,0,,,86,0
6528,note_on,1,0,0,,,,,0,,,88,96
6528,note_on,0,0,0,,,,,4,,,61,96
6559,note_off,31,0,0,,,,,0,,,88,0
6564,note_on,5,0,0,,,,,0,,,90,96
6569,note_off,5,0,0,,,,,0,,,90,0
6570,note_on,1,0,0,,,,,0,,,88,96
6570,note_off,0,0,0,,,,,4,,,61,0
6575,note_off,5,0,0,,,,,0,,,88,0
6576,note_on,1,0,0,,,,,0,,,93,96
6576,note_on,0,0,0,,,,,4,,,61,96
6597,note_off,21,0,0,,,,,0,,,93,0
6600,note_on,3,0,0,,,,,0,,,90,96
6606,note_off,6,0,0,,,,,0,,,90,0
6606,note_on,0,0,0,,,,,0,,,88,96
6612,note_off,6,0,0,,,,,0,,,88,0
6612,note_on,0,0,0,,,,,0,,,90,96
6618,note_off,6,0,0,,,,,0,,,90,0
6618,note_on,0,0,0,,,,,0,,,88,96
6618,note_off,0,0,0,,,,,4,,,61,0
6623,note_off,5,0,0,,,,,0,,,88,0
6624,note_on,1,0,0,,,,,0,,,90,96
6624,note_on,0,0,0,,,,,4,,,62,96
6645,note_off,21,0,0,,,,,4,,,62,0
6648,note_on,3,0,0,,,,,4,,,50,96
6666,note_off,18,0,0,,,,,0,,,90,0
6669,note_off,3,0,0,,,,,4,,,50,0
6672,note_on,3,0,0,,,,,4,,,54,96
6693,note_off,21,0,0,,,,,4,,,54,0
6696,note_on,3,0,0,,,,,0,,,81,96
6696,note_on,0,0,0,,,,,4,,,50,96
6717,note_off,21,0,0,,,,,0,,,81,0
6717,note_off,0,0,0,,,,,4,,,50,0
6720,note_on,3,0,0,,,,,0,,,83,96
6720,note_on,0,0,0,,,,,4,,,55,96
6741,note_off,21,0,0,,,,,4,,,55,0
6744,note_on,3,0,0,,,,,4,,,57,96
6756,note_off,12,0,0,,,,,0,,,83,0
6756,note_on,0,0,0,,,,,0,,,85,96
6765,note_off,9,0,0,,,,,4,,,57,0
6768,note_off,3,0,0,,,,,0,,,85,0
6768,note_on,0,0,0,,,,,0,,,86,96
6768,note_on,0,0,0,,,,,4,,,59,96
6789,note_off,21,0,0,,,,,4,,,59,0
6792,note_on,3,0,0,,,,,4,,,61,96
6799,note_off,7,0,0,,,,,0,,,86,0
6804,note_on,5,0,0,,,,,0,,,85,96
6809,note_off,5,0,0,,,,,0,,,85,0
6810,note_on,1,0,0,,,,,0,,,83,96
6813,note_off,3,0,0,,,,,4,,,61,0
6815,note_off,2,0,0,,,,,0,,,83,0
6816,note_on,1,0,0,,,,,0,,,81,96
6816,note_on,0,0,0,,,,,4,,,62,96
6837,note_off,21,0,0,,,,,0,,,81,0
6840,note_on,3,0,0,,,,,0,,,79,96
6850,note_off,10,0,0,,,,,0,,,79,0
6852,note_on,2,0,0,,,,,0,,,78,96
6858,note_off,6,0,0,,,,,4,,,62,0
6862,note_off,4,0,0,,,,,0,,,78,0
6864,note_on,2,0,0,,,,,0,,,76,96
6885,note_off,21,0,0,,,,,0,,,76,0
6888,note_on,3,0,0,,,,,0,,,78,96
6898,note_off,10,0,0,,,,,0,,,78,0
6900,note_on,2,0,0,,,,,0,,,74,96
6910,note_off,10,0,0,,,,,0,,,74,0
6912,note_on,2,0,0,,,,,0,,,83,80
6912,note_on,0,0,0,,,,,4,,,62,96
6933,note_off,21,0,0,,,,,4,,,62,0
6936,note_on,3,0,0,,,,,4,,,50,96
6957,note_off,21,0,0,,,,,4,,,50,0
6960,note_off,3,0,0,,,,,0,,,83,0
6960,note_on,0,0,0,,,,,0,,,81,80
6960,note_on,0,0,0,,,,,4,,,54,96
6981,note_off,21,0,0,,,,,0,,,81,0
6981,note_off,0,0,0,,,,,4,,,54,0
6984,note_on,3,0,0,,,,,0,,,81,80
6984,note_on,0,0,0,,,,,4,,,50,96
7005,note_off,21,0,0,,,,,0,,,81,0
7005,note_off,0,0,0,,,,,4,,,50,0
7008,note_on,3,0,0,,,,,0,,,83,80
7008,note_on,0,0,0,,,,,4,,,55,96
7029,note_off,21,0,0,,,,,4,,,55,0
7032,note_on,3,0,0,,,,,4,,,57,96
7044,note_off,12,0,0,,,,,0,,,83,0
7044,note_on,0,0,0,,,,,0,,,85,80
7053,note_off,9,0,0,,,,,4,,,57,0
7056,note_off,3,0,0,,,,,0,,,85,0
7056,note_on,0,0,0,,,,,0,,,86,80
7056,note_on,0,0,0,,,,,4,,,59,96
7077,note_off,21,0,0,,,,,4,,,59,0
7080,note_on,3,0,0,,,,,4,,,61,96
7087,note_off,7,0,0,,,,,0,,,86,0
7092,note_on,5,0,0,,,,,0,,,85,80
7097,note_off,5,0,0,,,,,0,,,85,0
7098,note_on,1,0,0,,,,,0,,,83,80
7101,note_off,3,0,0,,,,,4,,,61,0
7103,note_off,2,0,0,,,,,0,,,83,0
7104,note_on,1,0,0,,,,,0,,,81,80
7104,note_on,0,0,0,,,,,4,,,62,96
7125,note_off,21,0,0,,,,,0,,,81,0
7128,note_on,3,0,0,,,,,0,,,79,80
7138,note_off,10,0,0,,,,,0,,,79,0
7140,note_on,2,0,0,,,,,0,,,78,80
7146,note_off,6,0,0,,,,,4,,,62,0
7150,note_off,4,0,0,,,,,0,,,78,0
7152,note_on,2,0,0,,,,,0,,,76,80
7173,note_off,21,0,0,,,,,0,,,76,0
7176,note_on,3,0,0,,,,,0,,,78,80
7186,note_off,10,0,0,,,,,0,,,78,0
7188,note_on,2,0,0,,,,,0,,,74,80
7198,note_off,10,0,0,,,,,0,,,74,0
7200,note_on,2,0,0,,,,,0,,,83,96
7200,note_on,0,0,0,,,,,4,,,62,96
7221,note_off,21,0,0,,,,,4,,,62,0
7224,note_on,3,0,0,,,,,4,,,50,96
7245,note_off,21,0,0,,,,,4,,,50,0
7248,note_off,3,0,0,,,,,0,,,83,0
7248,note_on,0,0,0,,,,,0,,,81,96
7248,note_on,0,0,0,,,,,4,,,54,96
7269,note_off,21,0,0,,,,,0,,,81,0
7269,note_off,0,0,0,,,,,4,,,54,0
7272,note_on,3,0,0,,,,,0,,,81,96
7272,note_on,0,0,0,,,,,4,,,50,96
7293,note_off,21,0,0,,,,,0,,,81,0
7293,note_off,0,0,0,,,,,4,,,50,0
7296,note_on,3,0,0,,,,,0,,,83,96
7296,note_on,0,0,0,,,,,4,,,56,96
7308,note_off,12,0,0,,,,,0,,,83,0
7308,note_on,0,0,0,,,,,0,,,81,96
7318,note_off,10,0,0,,,,,0,,,81,0
7320,note_on,2,0,0,,,,,0,,,80,96
7332,note_off,12,0,0,,,,,0,,,80,0
7332,note_on,0,0,0,,,,,0,,,78,96
7342,note_off,10,0,0,,,,,0,,,78,0
7344,note_on,2,0,0,,,,,0,,,76,96
7359,note_off,15,0,0,,,,,4,,,56,0
7365,note_off,6,0,0,,,,,0,,,76,0
7368,note_on,3,0,0,,,,,0,,,74,96
7368,note_on,0,0,0,,,,,4,,,52,96
7389,note_off,21,0,0,,,,,0,,,74,0
7389,note_off,0,0,0,,,,,4,,,52,0
7392,note_on,3,0,0,,,,,0,,,76,96
7392,note_on,0,0,0,,,,,4,,,57,96
7398,note_off,6,0,0,,,,,0,,,76,0
7398,note_on,0,0,0,,,,,0,,,74,96
7404,note_off,6,0,0,,,,,0,,,74,0
7404,note_on,0,0,0,,,,,0,,,76,96
7410,note_off,6,0,0,,,,,0,,,76,0
7410,note_on,0,0,0,,,,,0,,,74,96
7413,note_off,3,0,0,,,,,4,,,57,0
7415,note_off,2,0,0,,,,,0,,,74,0
7416,note_on,1,0,0,,,,,0,,,73,96
7416,note_on,0,0,0,,,,,4,,,59,96
7437,note_off,21,0,0,,,,,0,,,73,0
7437,note_off,0,0,0,,,,,4,,,59,0
7440,note_on,3,0,0,,,,,4,,,61,96
7461,note_off,21,0,0,,,,,4,,,61,0
7464,note_on,3,0,0,,,,,0,,,69,96
7464,note_on,0,0,0,,,,,4,,,57,96
7485,note_off,21,0,0,,,,,0,,,69,0
7485,note_off,0,0,0,,,,,4,,,57,0
7488,note_on,3,0,0,,,,,0,,,68,96
7488,note_on,0,0,0,,,,,4,,,52,96
7500,note_off,12,0,0,,,,,0,,,68,0
7500,note_on,0,0,0,,,,,0,,,69,96
7510,note_off,10,0,0,,,,,0,,,69,0
7512,note_on,2,0,0,,,,,0,,,71,96
7524,note_off,12,0,0,,,,,0,,,71,0
7524,note_on,0,0,0,,,,,0,,,69,96
7534,note_off,10,0,0,,,,,0,,,69,0
7536,note_on,2,0,0,,,,,0,,,73,96
7548,note_off,12,0,0,,,,,0,,,73,0
7548,note_on,0,0,0,,,,,0,,,71,96
7558,note_off,10,0,0,,,,,0,,,71,0
7560,note_on,2,0,0,,,,,0,,,74,96
7572,note_off,12,0,0,,,,,0,,,74,0
7572,note_on,0,0,0,,,,,0,,,73,96
7582,note_off,10,0,0,,,,,0,,,73,0
7584,note_on,2,0,0,,,,,0,,,76,96
7632,note_off,48,0,0,,,,,0,,,76,0
7632,note_on,0,0,0,,,,,0,,,74,96
7653,note_off,21,0,0,,,,,0,,,74,0
7656,note_on,3,0,0,,,,,0,,,73,96
7668,note_off,12,0,0,,,,,0,,,73,0
7668,note_on,0,0,0,,,,,0,,,71,96
7678,note_off,10,0,0,,,,,0,,,71,0
7680,note_on,2,0,0,,,,,0,,,74,96
7692,note_off,12,0,0,,,,,0,,,74,0
7692,note_on,0,0,0,,,,,0,,,73,96
7702,note_off,10,0,0,,,,,0,,,73,0
7704,note_on,2,0,0,,,,,0,,,76,96
7716,note_off,12,0,0,,,,,0,,,76,0
7716,note_on,0,0,0,,,,,0,,,74,96
7726,note_off,10,0,0,,,,,0,,,74,0
7728,note_on,2,0,0,,,,,0,,,78,96
7740,note_off,12,0,0,,,,,0,,,78,0
7740,note_on,0,0,0,,,,,0,,,76,96
7750,note_off,10,0,0,,,,,0,,,76,0
7752,note_on,2,0,0,,,,,0,,,80,96
7764,note_off,12,0,0,,,,,0,,,80,0
7764,note_on,0,0,0,,,,,0,,,78,96
7774,note_off,10,0,0,,,,,0,,,78,0
7776,note_on,2,0,0,,,,,0,,,81,96
7800,note_off,24,0,0,,,,,4,,,52,0
7800,note_on,0,0,0,,,,,4,,,61,96
7821,note_off,21,0,0,,,,,4,,,61,0
7824,note_off,3,0,0,,,,,0,,,81,0
7824,note_on,0,0,0,,,,,0,,,80,96
7824,note_on,0,0,0,,,,,4,,,59,96
7845,note_off,21,0,0,,,,,0,,,80,0
7845,note_off,0,0,0,,,,,4,,,59,0
7848,note_on,3,0,0,,,,,0,,,78,96
7848,note_on,0,0,0,,,,,4,,,57,96
7860,note_off,12,0,0,,,,,0,,,78,0
7860,note_on,0,0,0,,,,,0,,,76,96
7869,note_off,9,0,0,,,,,4,,,57,0
7870,note_off,1,0,0,,,,,0,,,76,0
7872,note_on,2,0,0,,,,,0,,,86,96
7872,note_on,0,0,0,,,,,4,,,56,96
7893,note_off,21,0,0,,,,,4,,,56,0
7896,note_on,3,0,0,,,,,4,,,57,96
7903,note_off,7,0,0,,,,,0,,,86,0
7908,note_on,5,0,0,,,,,0,,,85,96
7913,note_off,5,0,0,,,,,0,,,85,0
7914,note_on,1,0,0,,,,,0,,,83,96
7917,note_off,3,0,0,,,,,4,,,57,0
7919,note_off,2,0,0,,,,,0,,,83,0
7920,note_on,1,0,0,,,,,0,,,85,96
7920,note_on,0,0,0,,,,,4,,,64,96
7926,note_off,6,0,0,,,,,0,,,85,0
7926,note_on,0,0,0,,,,,0,,,83,96
7932,note_off,6,0,0,,,,,0,,,83,0
7932,note_on,0,0,0,,,,,0,,,85,96
7938,note_off,6,0,0,,,,,0,,,85,0
7938,note_on,0,0,0,,,,,0,,,83,96
7941,note_off,3,0,0,,,,,4,,,64,0
7944,note_off,3,0,0,,,,,0,,,83,0
7944,note_on,0,0,0,,,,,0,,,85,96
7944,note_on,0,0,0,,,,,4,,,52,96
7950,note_off,6,0,0,,,,,0,,,85,0
7950,note_on,0,0,0,,,,,0,,,83,96
7956,note_off,6,0,0,,,,,0,,,83,0
7956,note_on,0,0,0,,,,,0,,,85,96
7962,note_off,6,0,0,,,,,0,,,85,0
7962,note_on,0,0,0,,,,,0,,,83,96
7965,note_off,3,0,0,,,,,4,,,52,0
7967,note_off,2,0,0,,,,,0,,,83,0
7968,note_on,1,0,0,,,,,0,,,81,96
7968,note_on,0,0,0,,,,,4,,,57,96
7989,note_off,21,0,0,,,,,4,,,57,0
7992,note_on,3,0,0,,,,,4,,,59,96
8010,note_off,18,0,0,,,,,0,,,81,0
8013,note_off,3,0,0,,,,,4,,,59,0
8016,note_on,3,0,0,,,,,4,,,61,96
8037,note_off,21,0,0,,,,,4,,,61,0
8040,note_on,3,0,0,,,,,0,,,69,80
8040,note_on,0,0,0,,,,,4,,,57,96
8061,note_off,21,0,0,,,,,0,,,69,0
8061,note_off,0,0,0,,,,,4,,,57,0
8064,note_on,3,0,0,,,,,0,,,68,80
8064,note_on,0,0,0,,,,,4,,,52,80
8076,note_off,12,0,0,,,,,0,,,68,0
8076,note_on,0,0,0,,,,,0,,,69,80
8086,note_off,10,0,0,,,,,0,,,69,0
8088,note_on,2,0,0,,,,,0,,,71,80
8100,note_off,12,0,0,,,,,0,,,71,0
8100,note_on,0,0,0,,,,,0,,,69,80
8110,note_off,10,0,0,,,,,0,,,69,0
8112,note_on,2,0,0,,,,,0,,,73,80
8124,note_off,12,0,0,,,,,0,,,73,0
8124,note_on,0,0,0,,,,,0,,,71,80
8134,note_off,10,0,0,,,,,0,,,71,0
8136,note_on,2,0,0,,,,,0,,,74,80
8148,note_off,12,0,0,,,,,0,,,74,0
8148,note_on,0,0,0,,,,,0,,,73,80
8158,note_off,10,0,0,,,,,0,,,73,0
8160,note_on,2,0,0,,,,,0,,,76,80
8208,note_off,48,0,0,,,,,0,,,76,0
8208,note_on,0,0,0,,,,,0,,,74,80
8229,note_off,21,0,0,,,,,0,,,74,0
8232,note_on,3,0,0,,,,,0,,,73,80
8244,note_off,12,0,0,,,,,0,,,73,0
8244,note_on,0,0,0,,,,,0,,,71,80
8254,note_off,10,0,0,,,,,0,,,71,0
8256,note_on,2,0,0,,,,,0,,,74,80
8268,note_off,12,0,0,,,,,0,,,74,0
8268,note_on,0,0,0,,,,,0,,,73,80
8278,note_off,10,0,0,,,,,0,,,73,0
8280,note_on,2,0,0,,,,,0,,,76,80
8292,note_off,12,0,0,,,,,0,,,76,0
8292,note_on,0,0,0,,,,,0,,,74,80
8302,note_off,10,0,0,,,,,0,,,74,0
8304,note_on,2,0,0,,,,,0,,,78,80
8316,note_off,12,0,0,,,,,0,,,78,0
8316,note_on,0,0,0,,,,,0,,,76,80
8326,note_off,10,0,0,,,,,0,,,76,0
8328,note_on,2,0,0,,,,,0,,,80,80
8340,note_off,12,0,0,,,,,0,,,80,0
8340,note_on,0,0,0,,,,,0,,,78,80
8350,note_off,10,0,0,,,,,0,,,78,0
8352,note_on,2,0,0,,,,,0,,,81,80
8376,note_off,24,0,0,,,,,4,,,52,0
8376,note_on,0,0,0,,,,,4,,,61,80
8397,note_off,21,0,0,,,,,4,,,61,0
8400,note_off,3,0,0,,,,,0,,,81,0
8400,note_on,0,0,0,,,,,0,,,80,80
8400,note_on,0,0,0,,,,,4,,,59,80
8421,note_off,21,0,0,,,,,0,,,80,0
8421,note_off,0,0,0,,,,,4,,,59,0
8424,note_on,3,0,0,,,,,0,,,78,80
8424,note_on,0,0,0,,,,,4,,,57,80
8436,note_off,12,0,0,,,,,0,,,78,0
8436,note_on,0,0,0,,,,,0,,,76,80
8445,note_off,9,0,0,,,,,4,,,57,0
8446,note_off,1,0,0,,,,,0,,,76,0
8448,note_on,2,0,0,,,,,0,,,86,80
8448,note_on,0,0,0,,,,,4,,,56,80
8460,note_off,12,0,0,,,,,0,,,86,0
8460,note_on,0,0,0,,,,,0,,,83,80
8469,note_off,9,0,0,,,,,4,,,56,0
8470,note_off,1,0,0,,,,,0,,,83,0
8472,note_on,2,0,0,,,,,0,,,85,80
8472,note_on,0,0,0,,,,,4,,,57,80
8484,note_off,12,0,0,,,,,0,,,85,0
8484,note_on,0,0,0,,,,,0,,,81,80
8493,note_off,9,0,0,,,,,4,,,57,0
8494,note_off,1,0,0,,,,,0,,,81,0
8496,note_on,2,0,0,,,,,0,,,85,80
8496,note_on,0,0,0,,,,,4,,,64,80
8502,note_off,6,0,0,,,,,0,,,85,0
8502,note_on,0,0,0,,,,,0,,,83,80
8508,note_off,6,0,0,,,,,0,,,83,0
8508,note_on,0,0,0,,,,,0,,,85,80
8514,note_off,6,0,0,,,,,0,,,85,0
8514,note_on,0,0,0,,,,,0,,,83,80
8517,note_off,3,0,0,,,,,4,,,64,0
8520,note_off,3,0,0,,,,,0,,,83,0
8520,note_on,0,0,0,,,,,0,,,85,80
8520,note_on,0,0,0,,,,,4,,,52,80
8526,note_off,6,0,0,,,,,0,,,85,0
8526,note_on,0,0,0,,,,,0,,,83,80
8532,note_off,6,0,0,,,,,0,,,83,0
8532,note_on,0,0,0,,,,,0,,,85,80
8538,note_off,6,0,0,,,,,0,,,85,0
8538,note_on,0,0,0,,,,,0,,,83,80
8541,note_off,3,0,0,,,,,4,,,52,0
8543,note_off,2,0,0,,,,,0,,,83,0
8544,note_on,1,0,0,,,,,0,,,81,80
8544,note_on,0,0,0,,,,,0,,,69,80
8544,note_on,0,0,0,,,,,1,,,69,96
8544,note_on,0,0,0,,,,,3,,,61,96
8544,note_on,0,0,0,,,,,4,,,45,80
8565,note_off,21,0,0,,,,,3,,,61,0
8565,note_off,0,0,0,,,,,4,,,45,0
8568,note_on,3,0,0,,,,,3,,,73,96
8568,note_on,0,0,0,,,,,4,,,57,80
8586,note_off,18,0,0,,,,,0,,,81,0
8586,note_off,0,0,0,,,,,0,,,69,0
8586,note_off,0,0,0,,,,,1,,,69,0
8589,note_off,3,0,0,,,,,3,,,73,0
8589,note_off,0,0,0,,,,,4,,,57,0
8592,note_on,3,0,0,,,,,0,,,69,80
8592,note_on,0,0,0,,,,,1,,,69,96
8592,note_on,0,0,0,,,,,3,,,69,96
8592,note_on,0,0,0,,,,,4,,,52,80
8613,note_off,21,0,0,,,,,3,,,69,0
8613,note_off,0,0,0,,,,,4,,,52,0
8616,note_on,3,0,0,,,,,3,,,64,96
8616,note_on,0,0,0,,,,,4,,,49,80
8634,note_off,18,0,0,,,,,0,,,69,0
8634,note_off,0,0,0,,,,,1,,,69,0
8637,note_off,3,0,0,,,,,3,,,64,0
8637,note_off,0,0,0,,,,,4,,,49,0
8640,note_on,3,0,0,,,,,0,,,69,80
8640,note_on,0,0,0,,,,,1,,,69,96
8640,note_on,0,0,0,,,,,3,,,61,96
8640,note_on,0,0,0,,,,,4,,,45,80
8661,note_off,21,0,0,,,,,3,,,61,0
8661,note_off,0,0,0,,,,,4,,,45,0
8664,note_on,3,0,0,,,,,3,,,73,96
8664,note_on,0,0,0,,,,,4,,,57,80
8685,note_off,21,0,0,,,,,3,,,73,0
8685,note_off,0,0,0,,,,,4,,,57,0
8688,note_on,3,0,0,,,,,3,,,69,96
8688,note_on,0,0,0,,,,,4,,,52,80
8692,note_off,4,0,0,,,,,0,,,69,0
8692,note_off,0,0,0,,,,,1,,,69,0
8700,note_on,8,0,0,,,,,0,,,71,80
8700,note_on,0,0,0,,,,,1,,,71,96
8709,note_off,9,0,0,,,,,3,,,69,0
8709,note_off,0,0,0,,,,,4,,,52,0
8710,note_off,1,0,0,,,,,0,,,71,0
8710,note_off,0,0,0,,,,,1,,,71,0
8712,note_on,2,0,0,,,,,0,,,73,80
8712,note_on,0,0,0,,,,,1,,,73,96
8712,note_on,0,0,0,,,,,3,,,64,96
8712,note_on,0,0,0,,,,,4,,,49,80
8722,note_off,10,0,0,,,,,0,,,73,0
8722,note_off,0,0,0,,,,,1,,,73,0
8724,note_on,2,0,0,,,,,0,,,74,80
8724,note_on,0,0,0,,,,,1,,,74,96
8733,note_off,9,0,0,,,,,3,,,64,0
8733,note_off,0,0,0,,,,,4,,,49,0
8734,note_off,1,0,0,,,,,0,,,74,0
8734,note_off,0,0,0,,,,,1,,,74,0
8736,note_on,2,0,0,,,,,0,,,76,80
8736,note_on,0,0,0,,,,,1,,,76,96
8736,note_on,0,0,0,,,,,3,,,61,96
8736,note_on,0,0,0,,,,,4,,,45,80
8757,note_off,21,0,0,,,,,0,,,76,0
8757,note_off,0,0,0,,,,,1,,,76,0
8760,note_on,3,0,0,,,,,0,,,76,80
8760,note_on,0,0,0,,,,,1,,,76,96
8778,note_off,18,0,0,,,,,3,,,61,0
8778,note_off,0,0,0,,,,,4,,,45,0
8781,note_off,3,0,0,,,,,0,,,76,0
8781,note_off,0,0,0,,,,,1,,,76,0
8784,note_on,3,0,0,,,,,0,,,76,80
8784,note_on,0,0,0,,,,,1,,,76,96
8794,note_off,10,0,0,,,,,0,,,76,0
8794,note_off,0,0,0,,,,,1,,,76,0
8796,note_on,2,0,0,,,,,0,,,74,80
8796,note_on,0,0,0,,,,,1,,,74,96
8806,note_off,10,0,0,,,,,0,,,74,0
8806,note_off,0,0,0,,,,,1,,,74,0
8808,note_on,2,0,0,,,,,0,,,73,80
8808,note_on,0,0,0,,,,,1,,,73,96
8818,note_off,10,0,0,,,,,0,,,73,0
8818,note_off,0,0,0,,,,,1,,,73,0
8820,note_on,2,0,0,,,,,0,,,71,80
8820,note_on,0,0,0,,,,,1,,,71,96
8830,note_off,10,0,0,,,,,0,,,71,0
8830,note_off,0,0,0,,,,,1,,,71,0
8832,note_on,2,0,0,,,,,0,,,69,80
8832,note_on,0,0,0,,,,,1,,,69,96
8832,note_on,0,0,0,,,,,3,,,61,96
8832,note_on,0,0,0,,,,,4,,,45,80
8853,note_off,21,0,0,,,,,0,,,69,0
8853,note_off,0,0,0,,,,,1,,,69,0
8856,note_on,3,0,0,,,,,0,,,69,80
8856,note_on,0,0,0,,,,,1,,,69,96
8874,note_off,18,0,0,,,,,3,,,61,0
8874,note_off,0,0,0,,,,,4,,,45,0
8877,note_off,3,0,0,,,,,0,,,69,0
8877,note_off,0,0,0,,,,,1,,,69,0
8880,note_on,3,0,0,,,,,0,,,69,80
8880,note_on,0,0,0,,,,,1,,,69,96
8890,note_off,10,0,0,,,,,0,,,69,0
8890,note_off,0,0,0,,,,,1,,,69,0
8892,note_on,2,0,0,,,,,0,,,71,80
8892,note_on,0,0,0,,,,,1,,,71,96
8902,note_off,10,0,0,,,,,0,,,71,0
8902,note_off,0,0,0,,,,,1,,,71,0
8904,note_on,2,0,0,,,,,0,,,73,80
8904,note_on,0,0,0,,,,,1,,,73,96
8914,note_off,10,0,0,,,,,0,,,73,0
8914,note_off,0,0,0,,,,,1,,,73,0
8916,note_on,2,0,0,,,,,0,,,74,80
8916,note_on,0,0,0,,,,,1,,,74,96
8926,note_off,10,0,0,,,,,0,,,74,0
8926,note_off,0,0,0,,,,,1,,,74,0
8928,note_on,2,0,0,,,,,0,,,76,80
8928,note_on,0,0,0,,,,,1,,,76,96
8928,note_on,0,0,0,,,,,2,,,64,96
8928,note_on,0,0,0,,,,,3,,,59,96
8928,note_on,0,0,0,,,,,4,,,52,80
8949,note_off,21,0,0,,,,,3,,,59,0
8949,note_off,0,0,0,,,,,4,,,52,0
8952,note_on,3,0,0,,,,,3,,,68,96
8952,note_on,0,0,0,,,,,4,,,64,80
8970,note_off,18,0,0,,,,,2,,,64,0
8973,note_off,3,0,0,,,,,3,,,68,0
8973,note_off,0,0,0,,,,,4,,,64,0
8976,note_on,3,0,0,,,,,2,,,64,96
8976,note_on,0,0,0,,,,,3,,,64,96
8976,note_on,0,0,0,,,,,4,,,59,80
8997,note_off,21,0,0,,,,,3,,,64,0
8997,note_off,0,0,0,,,,,4,,,59,0
9000,note_on,3,0,0,,,,,3,,,59,96
9000,note_on,0,0,0,,,,,4,,,56,80
9018,note_off,18,0,0,,,,,2,,,64,0
9021,note_off,3,0,0,,,,,3,,,59,0
9021,note_off,0,0,0,,,,,4,,,56,0
9024,note_on,3,0,0,,,,,2,,,64,96
9024,note_on,0,0,0,,,,,3,,,56,96
9024,note_on,0,0,0,,,,,4,,,52,80
9045,note_off,21,0,0,,,,,3,,,56,0
9045,note_off,0,0,0,,,,,4,,,52,0
9048,note_on,3,0,0,,,,,3,,,68,96
9048,note_on,0,0,0,,,,,4,,,64,80
9069,note_off,21,0,0,,,,,3,,,68,0
9069,note_off,0,0,0,,,,,4,,,64,0
9072,note_on,3,0,0,,,,,3,,,64,96
9072,note_on,0,0,0,,,,,4,,,59,80
9076,note_off,4,0,0,,,,,2,,,64,0
9084,note_on,8,0,0,,,,,2,,,66,96
9093,note_off,9,0,0,,,,,3,,,64,0
9093,note_off,0,0,0,,,,,4,,,59,0
9094,note_off,1,0,0,,,,,2,,,66,0
9096,note_off,2,0,0,,,,,0,,,76,0
9096,note_off,0,0,0,,,,,1,,,76,0
9096,note_on,0,0,0,,,,,2,,,68,96
9096,note_on,0,0,0,,,,,3,,,59,96
9096,note_on,0,0,0,,,,,4,,,56,80
9106,note_off,10,0,0,,,,,2,,,68,0
9108,note_on,2,0,0,,,,,2,,,69,96
9117,note_off,9,0,0,,,,,3,,,59,0
9117,note_off,0,0,0,,,,,4,,,56,0
9118,note_off,1,0,0,,,,,2,,,69,0
9120,note_on,2,0,0,,,,,0,,,74,80
9120,note_on,0,0,0,,,,,1,,,74,96
9120,note_on,0,0,0,,,,,2,,,71,96
9120,note_on,0,0,0,,,,,3,,,56,96
9120,note_on,0,0,0,,,,,4,,,52,80
9141,note_off,21,0,0,,,,,2,,,71,0
9144,note_on,3,0,0,,,,,2,,,71,96
9162,note_off,18,0,0,,,,,3,,,56,0
9162,note_off,0,0,0,,,,,4,,,52,0
9165,note_off,3,0,0,,,,,2,,,71,0
9168,note_on,3,0,0,,,,,2,,,71,96
9178,note_off,10,0,0,,,,,2,,,71,0
9180,note_on,2,0,0,,,,,2,,,69,96
9190,note_off,10,0,0,,,,,2,,,69,0
9192,note_on,2,0,0,,,,,2,,,68,96
9202,note_off,10,0,0,,,,,2,,,68,0
9204,note_on,2,0,0,,,,,2,,,66,96
9214,note_off,10,0,0,,,,,2,,,66,0
9216,note_on,2,0,0,,,,,2,,,64,96
9216,note_on,0,0,0,,,,,3,,,56,96
9216,note_on,0,0,0,,,,,4,,,52,80
9237,note_off,21,0,0,,,,,2,,,64,0
9240,note_on,3,0,0,,,,,2,,,64,96
9258,note_off,18,0,0,,,,,3,,,56,0
9258,note_off,0,0,0,,,,,4,,,52,0
9261,note_off,3,0,0,,,,,2,,,64,0
9264,note_on,3,0,0,,,,,2,,,64,96
9274,note_off,10,0,0,,,,,2,,,64,0
9276,note_on,2,0,0,,,,,2,,,64,96
9286,note_off,10,0,0,,,,,2,,,64,0
9288,note_off,2,0,0,,,,,0,,,74,0
9288,note_off,0,0,0,,,,,1,,,74,0
9288,note_on,0,0,0,,,,,2,,,66,96
9298,note_off,10,0,0,,,,,2,,,66,0
9300,note_on,2,0,0,,,,,2,,,68,96
9310,note_off,10,0,0,,,,,2,,,68,0
9312,note_on,2,0,0,,,,,0,,,73,80
9312,note_on,0,0,0,,,,,1,,,73,96
9312,note_on,0,0,0,,,,,2,,,69,96
9312,note_on,0,0,0,,,,,3,,,57,96
9312,note_on,0,0,0,,,,,4,,,45,80
9333,note_off,21,0,0,,,,,4,,,45,0
9336,note_on,3,0,0,,,,,4,,,57,80
9354,note_off,18,0,0,,,,,3,,,57,0
9357,note_off,3,0,0,,,,,4,,,57,0
9360,note_on,3,0,0,,,,,3,,,57,96
9360,note_on,0,0,0,,,,,4,,,52,80
9381,note_off,21,0,0,,,,,4,,,52,0
9384,note_on,3,0,0,,,,,4,,,49,80
9402,note_off,18,0,0,,,,,3,,,57,0
9405,note_off,3,0,0,,,,,4,,,49,0
9408,note_on,3,0,0,,,,,3,,,57,96
9408,note_on,0,0,0,,,,,4,,,45,80
9429,note_off,21,0,0,,,,,4,,,45,0
9432,note_on,3,0,0,,,,,4,,,57,80
9453,note_off,21,0,0,,,,,4,,,57,0
9456,note_on,3,0,0,,,,,4,,,49,80
9460,note_off,4,0,0,,,,,3,,,57,0
9468,note_on,8,0,0,,,,,3,,,59,96
9477,note_off,9,0,0,,,,,4,,,49,0
9478,note_off,1,0,0,,,,,3,,,59,0
9480,note_off,2,0,0,,,,,0,,,73,0
9480,note_off,0,0,0,,,,,1,,,73,0
9480,note_off,0,0,0,,,,,2,,,69,0
9480,note_on,0,0,0,,,,,3,,,61,96
9480,note_on,0,0,0,,,,,4,,,45,80
9490,note_off,10,0,0,,,,,3,,,61,0
9492,note_on,2,0,0,,,,,3,,,62,96
9501,note_off,9,0,0,,,,,4,,,45,0
9502,note_off,1,0,0,,,,,3,,,62,0
9504,note_on,2,0,0,,,,,0,,,71,80
9504,note_on,0,0,0,,,,,1,,,71,96
9504,note_on,0,0,0,,,,,2,,,68,96
9504,note_on,0,0,0,,,,,3,,,64,96
9504,note_on,0,0,0,,,,,4,,,40,80
9525,note_off,21,0,0,,,,,3,,,64,0
9528,note_on,3,0,0,,,,,3,,,64,96
9546,note_off,18,0,0,,,,,4,,,40,0
9549,note_off,3,0,0,,,,,3,,,64,0
9552,note_on,3,0,0,,,,,3,,,64,96
9562,note_off,10,0,0,,,,,3,,,64,0
9564,note_on,2,0,0,,,,,3,,,62,96
9574,note_off,10,0,0,,,,,3,,,62,0
9576,note_on,2,0,0,,,,,3,,,61,96
9586,note_off,10,0,0,,,,,3,,,61,0
9588,note_off,2,0,0,,,,,0,,,71,0
9588,note_off,0,0,0,,,,,1,,,71,0
9588,note_off,0,0,0,,,,,2,,,68,0
9588,note_on,0,0,0,,,,,3,,,59,96
9598,note_off,10,0,0,,,,,3,,,59,0
9600,note_on,2,0,0,,,,,0,,,73,80
9600,note_on,0,0,0,,,,,1,,,73,96
9600,note_on,0,0,0,,,,,2,,,69,96
9600,note_on,0,0,0,,,,,3,,,57,96
9600,note_on,0,0,0,,,,,4,,,57,80
9621,note_off,21,0,0,,,,,3,,,57,0
9624,note_on,3,0,0,,,,,3,,,57,96
9642,note_off,18,0,0,,,,,4,,,57,0
9645,note_off,3,0,0,,,,,3,,,57,0
9648,note_on,3,0,0,,,,,3,,,57,96
9658,note_off,10,0,0,,,,,3,,,57,0
9660,note_on,2,0,0,,,,,3,,,59,96
9670,note_off,10,0,0,,,,,3,,,59,0
9672,note_on,2,0,0,,,,,3,,,61,96
9682,note_off,10,0,0,,,,,3,,,61,0
9684,note_off,2,0,0,,,,,0,,,73,0
9684,note_off,0,0,0,,,,,1,,,73,0
9684,note_off,0,0,0,,,,,2,,,69,0
9684,note_on,0,0,0,,,,,3,,,62,96
9694,note_off,10,0,0,,,,,3,,,62,0
9696,note_on,2,0,0,,,,,0,,,71,80
9696,note_on,0,0,0,,,,,1,,,71,96
9696,note_on,0,0,0,,,,,2,,,68,96
9696,note_on,0,0,0,,,,,3,,,64,96
9696,note_on,0,0,0,,,,,4,,,52,80
9738,note_off,42,0,0,,,,,0,,,71,0
9738,note_off,0,0,0,,,,,1,,,71,0
9738,note_off,0,0,0,,,,,4,,,52,0
9744,note_on,6,0,0,,,,,0,,,71,80
9744,note_on,0,0,0,,,,,1,,,71,96
9744,note_on,0,0,0,,,,,4,,,52,80
9786,note_off,42,0,0,,,,,0,,,71,0
9786,note_off,0,0,0,,,,,1,,,71,0
9786,note_off,0,0,0,,,,,4,,,52,0
9792,note_on,6,0,0,,,,,0,,,71,80
9792,note_on,0,0,0,,,,,1,,,71,96
9792,note_on,0,0,0,,,,,4,,,52,80
9844,note_off,52,0,0,,,,,0,,,71,0
9844,note_off,0,0,0,,,,,1,,,71,0
9844,note_off,0,0,0,,,,,4,,,52,0
9852,note_on,8,0,0,,,,,0,,,69,80
9852,note_on,0,0,0,,,,,1,,,69,96
9852,note_on,0,0,0,,,,,4,,,54,80
9862,note_off,10,0,0,,,,,0,,,69,0
9862,note_off,0,0,0,,,,,1,,,69,0
9862,note_off,0,0,0,,,,,4,,,54,0
9864,note_on,2,0,0,,,,,0,,,71,80
9864,note_on,0,0,0,,,,,1,,,71,96
9864,note_off,0,0,0,,,,,3,,,64,0
9864,note_on,0,0,0,,,,,4,,,56,80
9874,note_off,10,0,0,,,,,0,,,71,0
9874,note_off,0,0,0,,,,,1,,,71,0
9874,note_off,0,0,0,,,,,4,,,56,0
9876,note_on,2,0,0,,,,,0,,,73,80
9876,note_on,0,0,0,,,,,1,,,73,96
9876,note_on,0,0,0,,,,,4,,,57,80
9886,note_off,10,0,0,,,,,0,,,73,0
9886,note_off,0,0,0,,,,,1,,,73,0
9886,note_off,0,0,0,,,,,4,,,57,0
9888,note_on,2,0,0,,,,,0,,,74,80
9888,note_on,0,0,0,,,,,1,,,74,96
9888,note_on,0,0,0,,,,,3,,,62,96
9888,note_on,0,0,0,,,,,4,,,59,80
9909,note_off,21,0,0,,,,,0,,,74,0
9909,note_off,0,0,0,,,,,1,,,74,0
9909,note_off,0,0,0,,,,,4,,,59,0
9912,note_on,3,0,0,,,,,0,,,74,80
9912,note_on,0,0,0,,,,,1,,,74,96
9912,note_on,0,0,0,,,,,4,,,59,80
9933,note_off,21,0,0,,,,,0,,,74,0
9933,note_off,0,0,0,,,,,1,,,74,0
9933,note_off,0,0,0,,,,,4,,,59,0
9936,note_on,3,0,0,,,,,0,,,74,80
9936,note_on,0,0,0,,,,,1,,,74,96
9936,note_on,0,0,0,,,,,4,,,59,80
9946,note_off,10,0,0,,,,,0,,,74,0
9946,note_off,0,0,0,,,,,1,,,74,0
9946,note_off,0,0,0,,,,,4,,,59,0
9948,note_on,2,0,0,,,,,0,,,73,80
9948,note_on,0,0,0,,,,,1,,,73,96
9948,note_off,0,0,0,,,,,2,,,68,0
9948,note_on,0,0,0,,,,,4,,,57,80
9958,note_off,10,0,0,,,,,0,,,73,0
9958,note_off,0,0,0,,,,,1,,,73,0
9958,note_off,0,0,0,,,,,4,,,57,0
9960,note_on,2,0,0,,,,,0,,,71,80
9960,note_on,0,0,0,,,,,1,,,71,96
9960,note_on,0,0,0,,,,,4,,,56,80
9970,note_off,10,0,0,,,,,0,,,71,0
9970,note_off,0,0,0,,,,,1,,,71,0
9970,note_off,0,0,0,,,,,4,,,56,0
9972,note_on,2,0,0,,,,,0,,,69,80
9972,note_on,0,0,0,,,,,1,,,69,96
9972,note_on,0,0,0,,,,,4,,,54,80
9982,note_off,10,0,0,,,,,0,,,69,0
9982,note_off,0,0,0,,,,,1,,,69,0
9982,note_off,0,0,0,,,,,4,,,54,0
9984,note_on,2,0,0,,,,,0,,,68,80
9984,note_on,0,0,0,,,,,1,,,68,96
9984,note_on,0,0,0,,,,,2,,,71,96
9984,note_on,0,0,0,,,,,4,,,52,80
10005,note_off,21,0,0,,,,,0,,,68,0
10005,note_off,0,0,0,,,,,1,,,68,0
10005,note_off,0,0,0,,,,,4,,,52,0
10008,note_on,3,0,0,,,,,0,,,68,80
10008,note_on,0,0,0,,,,,1,,,68,96
10008,note_on,0,0,0,,,,,4,,,52,80
10029,note_off,21,0,0,,,,,0,,,68,0
10029,note_off,0,0,0,,,,,1,,,68,0
10029,note_off,0,0,0,,,,,4,,,52,0
10032,note_on,3,0,0,,,,,0,,,68,80
10032,note_on,0,0,0,,,,,1,,,68,96
10032,note_on,0,0,0,,,,,4,,,52,80
10042,note_off,10,0,0,,,,,0,,,68,0
10042,note_off,0,0,0,,,,,1,,,68,0
10042,note_off,0,0,0,,,,,4,,,52,0
10044,note_on,2,0,0,,,,,0,,,68,80
10044,note_on,0,0,0,,,,,1,,,68,96
10044,note_on,0,0,0,,,,,4,,,52,80
10054,note_off,10,0,0,,,,,0,,,68,0
10054,note_off,0,0,0,,,,,1,,,68,0
10054,note_off,0,0,0,,,,,4,,,52,0
10056,note_on,2,0,0,,,,,0,,,69,80
10056,note_on,0,0,0,,,,,1,,,69,96
10056,note_off,0,0,0,,,,,3,,,62,0
10056,note_on,0,0,0,,,,,4,,,54,80
10066,note_off,10,0,0,,,,,0,,,69,0
10066,note_off,0,0,0,,,,,1,,,69,0
10066,note_off,0,0,0,,,,,4,,,54,0
10068,note_on,2,0,0,,,,,0,,,71,80
10068,note_on,0,0,0,,,,,1,,,71,96
10068,note_off,0,0,0,,,,,2,,,71,0
10068,note_on,0,0,0,,,,,4,,,56,80
10078,note_off,10,0,0,,,,,0,,,71,0
10078,note_off,0,0,0,,,,,1,,,71,0
10078,note_off,0,0,0,,,,,4,,,56,0
10080,note_on,2,0,0,,,,,0,,,73,80
10080,note_on,0,0,0,,,,,1,,,73,96
10080,note_on,0,0,0,,,,,2,,,69,96
10080,note_on,0,0,0,,,,,3,,,61,96
10080,note_on,0,0,0,,,,,4,,,57,80
10101,note_off,21,0,0,,,,,3,,,61,0
10101,note_off,0,0,0,,,,,4,,,57,0
10104,note_on,3,0,0,,,,,3,,,64,96
10104,note_on,0,0,0,,,,,4,,,57,80
10122,note_off,18,0,0,,,,,0,,,73,0
10122,note_off,0,0,0,,,,,1,,,73,0
10122,note_off,0,0,0,,,,,2,,,69,0
10125,note_off,3,0,0,,,,,3,,,64,0
10125,note_off,0,0,0,,,,,4,,,57,0
10128,note_on,3,0,0,,,,,0,,,73,80
10128,note_on,0,0,0,,,,,1,,,73,96
10128,note_on,0,0,0,,,,,2,,,69,96
10128,note_on,0,0,0,,,,,3,,,61,96
10128,note_on,0,0,0,,,,,4,,,52,80
10149,note_off,21,0,0,,,,,3,,,61,0
10149,note_off,0,0,0,,,,,4,,,52,0
10152,note_on,3,0,0,,,,,3,,,57,96
10152,note_on,0,0,0,,,,,4,,,49,80
10170,note_off,18,0,0,,,,,0,,,73,0
10170,note_off,0,0,0,,,,,1,,,73,0
10170,note_off,0,0,0,,,,,2,,,69,0
10173,note_off,3,0,0,,,,,3,,,57,0
10173,note_off,0,0,0,,,,,4,,,49,0
10176,note_on,3,0,0,,,,,0,,,73,80
10176,note_on,0,0,0,,,,,1,,,73,96
10176,note_on,0,0,0,,,,,2,,,69,96
10176,note_on,0,0,0,,,,,3,,,64,96
10176,note_on,0,0,0,,,,,4,,,45,80
10197,note_off,21,0,0,,,,,3,,,64,0
10197,note_off,0,0,0,,,,,4,,,45,0
10200,note_on,3,0,0,,,,,3,,,64,96
10200,note_on,0,0,0,,,,,4,,,57,80
10221,note_off,21,0,0,,,,,3,,,64,0
10221,note_off,0,0,0,,,,,4,,,57,0
10224,note_on,3,0,0,,,,,3,,,61,96
10224,note_on,0,0,0,,,,,4,,,52,80
10228,note_off,4,0,0,,,,,0,,,73,0
10228,note_off,0,0,0,,,,,1,,,73,0
10228,note_off,0,0,0,,,,,2,,,69,0
10236,note_on,8,0,0,,,,,0,,,71,80
10236,note_on,0,0,0,,,,,1,,,71,96
10236,note_on,0,0,0,,,,,2,,,68,96
10245,note_off,9,0,0,,,,,3,,,61,0
10245,note_off,0,0,0,,,,,4,,,52,0
10246,note_off,1,0,0,,,,,0,,,71,0
10246,note_off,0,0,0,,,,,1,,,71,0
10246,note_off,0,0,0,,,,,2,,,68,0
10248,note_on,2,0,0,,,,,0,,,73,80
10248,note_on,0,0,0,,,,,1,,,73,96
10248,note_on,0,0,0,,,,,2,,,69,96
10248,note_on,0,0,0,,,,,3,,,57,96
10248,note_on,0,0,0,,,,,4,,,49,80
10258,note_off,10,0,0,,,,,0,,,73,0
10258,note_off,0,0,0,,,,,1,,,73,0
10258,note_off,0,0,0,,,,,2,,,69,0
10260,note_on,2,0,0,,,,,0,,,74,80
10260,note_on,0,0,0,,,,,1,,,74,96
10260,note_on,0,0,0,,,,,2,,,71,96
10269,note_off,9,0,0,,,,,3,,,57,0
10269,note_off,0,0,0,,,,,4,,,49,0
10270,note_off,1,0,0,,,,,0,,,74,0
10270,note_off,0,0,0,,,,,1,,,74,0
10270,note_off,0,0,0,,,,,2,,,71,0
10272,note_on,2,0,0,,,,,0,,,76,80
10272,note_on,0,0,0,,,,,1,,,76,96
10272,note_on,0,0,0,,,,,2,,,73,96
10272,note_on,0,0,0,,,,,3,,,52,96
10272,note_on,0,0,0,,,,,4,,,45,80
10293,note_off,21,0,0,,,,,0,,,76,0
10293,note_off,0,0,0,,,,,1,,,76,0
10293,note_off,0,0,0,,,,,2,,,73,0
10296,note_on,3,0,0,,,,,0,,,76,80
10296,note_on,0,0,0,,,,,1,,,76,96
10296,note_on,0,0,0,,,,,2,,,73,96
10314,note_off,18,0,0,,,,,3,,,52,0
10314,note_off,0,0,0,,,,,4,,,45,0
10317,note_off,3,0,0,,,,,0,,,76,0
10317,note_off,0,0,0,,,,,1,,,76,0
10317,note_off,0,0,0,,,,,2,,,73,0
10320,note_on,3,0,0,,,,,0,,,76,80
10320,note_on,0,0,0,,,,,1,,,76,96
10320,note_on,0,0,0,,,,,2,,,73,96
10330,note_off,10,0,0,,,,,0,,,76,0
10330,note_off,0,0,0,,,,,1,,,76,0
10330,note_off,0,0,0,,,,,2,,,73,0
10332,note_on,2,0,0,,,,,0,,,74,80
10332,note_on,0,0,0,,,,,1,,,74,96
10332,note_on,0,0,0,,,,,2,,,71,96
10342,note_off,10,0,0,,,,,0,,,74,0
10342,note_off,0,0,0,,,,,1,,,74,0
10342,note_off,0,0,0,,,,,2,,,71,0
10344,note_on,2,0,0,,,,,0,,,73,80
10344,note_on,0,0,0,,,,,1,,,73,96
10344,note_on,0,0,0,,,,,2,,,69,96
10344,note_on,0,0,0,,,,,3,,,52,96
10344,note_on,0,0,0,,,,,4,,,52,80
10354,note_off,10,0,0,,,,,0,,,73,0
10354,note_off,0,0,0,,,,,1,,,73,0
10354,note_off,0,0,0,,,,,2,,,69,0
10356,note_on,2,0,0,,,,,0,,,71,80
10356,note_on,0,0,0,,,,,1,,,71,96
10356,note_on,0,0,0,,,,,2,,,68,96
10365,note_off,9,0,0,,,,,3,,,52,0
10365,note_off,0,0,0,,,,,4,,,52,0
10366,note_off,1,0,0,,,,,0,,,71,0
10366,note_off,0,0,0,,,,,1,,,71,0
10366,note_off,0,0,0,,,,,2,,,68,0
10368,note_on,2,0,0,,,,,0,,,73,80
10368,note_on,0,0,0,,,,,1,,,73,96
10368,note_on,0,0,0,,,,,2,,,69,96
10368,note_on,0,0,0,,,,,3,,,52,96
10368,note_on,0,0,0,,,,,4,,,45,80
10389,note_off,21,0,0,,,,,3,,,52,0
10389,note_off,0,0,0,,,,,4,,,45,0
10392,note_on,3,0,0,,,,,3,,,64,96
10392,note_on,0,0,0,,,,,4,,,57,80
10410,note_off,18,0,0,,,,,0,,,73,0
10410,note_off,0,0,0,,,,,1,,,73,0
10410,note_off,0,0,0,,,,,2,,,69,0
10413,note_off,3,0,0,,,,,3,,,64,0
10413,note_off,0,0,0,,,,,4,,,57,0
10416,note_on,3,0,0,,,,,0,,,73,80
10416,note_on,0,0,0,,,,,1,,,73,96
10416,note_on,0,0,0,,,,,2,,,69,96
10416,note_on,0,0,0,,,,,3,,,61,96
10416,note_on,0,0,0,,,,,4,,,52,80
10437,note_off,21,0,0,,,,,3,,,61,0
10437,note_off,0,0,0,,,,,4,,,52,0
10440,note_on,3,0,0,,,,,3,,,57,96
10440,note_on,0,0,0,,,,,4,,,49,80
10458,note_off,18,0,0,,,,,0,,,73,0
10458,note_off,0,0,0,,,,,1,,,73,0
10458,note_off,0,0,0,,,,,2,,,69,0
10461,note_off,3,0,0,,,,,3,,,57,0
10461,note_off,0,0,0,,,,,4,,,49,0
10464,note_on,3,0,0,,,,,0,,,73,80
10464,note_on,0,0,0,,,,,1,,,73,96
10464,note_on,0,0,0,,,,,2,,,69,96
10464,note_on,0,0,0,,,,,3,,,64,96
10464,note_on,0,0,0,,,,,4,,,45,80
10485,note_off,21,0,0,,,,,3,,,64,0
10485,note_off,0,0,0,,,,,4,,,45,0
10488,note_on,3,0,0,,,,,3,,,64,96
10488,note_on,0,0,0,,,,,4,,,57,80
10509,note_off,21,0,0,,,,,3,,,64,0
10509,note_off,0,0,0,,,,,4,,,57,0
10512,note_on,3,0,0,,,,,3,,,61,96
10512,note_on,0,0,0,,,,,4,,,52,80
10516,note_off,4,0,0,,,,,0,,,73,0
10516,note_off,0,0,0,,,,,1,,,73,0
10516,note_off,0,0,0,,,,,2,,,69,0
10524,note_on,8,0,0,,,,,0,,,71,80
10524,note_on,0,0,0,,,,,1,,,71,96
10524,note_on,0,0,0,,,,,2,,,68,96
10533,note_off,9,0,0,,,,,3,,,61,0
10533,note_off,0,0,0,,,,,4,,,52,0
10534,note_off,1,0,0,,,,,0,,,71,0
10534,note_off,0,0,0,,,,,1,,,71,0
10534,note_off,0,0,0,,,,,2,,,68,0
10536,note_on,2,0,0,,,,,0,,,73,80
10536,note_on,0,0,0,,,,,1,,,73,96
10536,note_on,0,0,0,,,,,2,,,69,96
10536,note_on,0,0,0,,,,,3,,,57,96
10536,note_on,0,0,0,,,,,4,,,49,80
10546,note_off,10,0,0,,,,,0,,,73,0
10546,note_off,0,0,0,,,,,1,,,73,0
10546,note_off,0,0,0,,,,,2,,,69,0
10548,note_on,2,0,0,,,,,0,,,74,80
10548,note_on,0,0,0,,,,,1,,,74,96
10548,note_on,0,0,0,,,,,2,,,71,96
10557,note_off,9,0,0,,,,,3,,,57,0
10557,note_off,0,0,0,,,,,4,,,49,0
10558,note_off,1,0,0,,,,,0,,,74,0
10558,note_off,0,0,0,,,,,1,,,74,0
10558,note_off,0,0,0,,,,,2,,,71,0
10560,note_on,2,0,0,,,,,0,,,76,80
10560,note_on,0,0,0,,,,,1,,,76,96
10560,note_on,0,0,0,,,,,2,,,73,96
10560,note_on,0,0,0,,,,,3,,,52,96
10560,note_on,0,0,0,,,,,4,,,45,80
10581,note_off,21,0,0,,,,,0,,,76,0
10581,note_off,0,0,0,,,,,1,,,76,0
10581,note_off,0,0,0,,,,,2,,,73,0
10584,note_on,3,0,0,,,,,0,,,76,80
10584,note_on,0,0,0,,,,,1,,,76,96
10584,note_on,0,0,0,,,,,2,,,73,96
10602,note_off,18,0,0,,,,,3,,,52,0
10602,note_off,0,0,0,,,,,4,,,45,0
10605,note_off,3,0,0,,,,,0,,,76,0
10605,note_off,0,0,0,,,,,1,,,76,0
10605,note_off,0,0,0,,,,,2,,,73,0
10608,note_on,3,0,0,,,,,0,,,76,80
10608,note_on,0,0,0,,,,,1,,,76,96
10608,note_on,0,0,0,,,,,2,,,73,96
10618,note_off,10,0,0,,,,,0,,,76,0
10618,note_off,0,0,0,,,,,1,,,76,0
10618,note_off,0,0,0,,,,,2,,,73,0
10620,note_on,2,0,0,,,,,0,,,74,80
10620,note_on,0,0,0,,,,,1,,,74,96
10620,note_on,0,0,0,,,,,2,,,71,96
10630,note_off,10,0,0,,,,,0,,,74,0
10630,note_off,0,0,0,,,,,1,,,74,0
10630,note_off,0,0,0,,,,,2,,,71,0
10632,note_on,2,0,0,,,,,0,,,73,80
10632,note_on,0,0,0,,,,,1,,,73,96
10632,note_on,0,0,0,,,,,2,,,69,96
10632,note_on,0,0,0,,,,,3,,,64,96
10632,note_on,0,0,0,,,,,4,,,52,80
10642,note_off,10,0,0,,,,,0,,,73,0
10642,note_off,0,0,0,,,,,1,,,73,0
10642,note_off,0,0,0,,,,,2,,,69,0
10644,note_on,2,0,0,,,,,0,,,71,80
10644,note_on,0,0,0,,,,,1,,,71,96
10644,note_on,0,0,0,,,,,2,,,68,96
10653,note_off,9,0,0,,,,,3,,,64,0
10653,note_off,0,0,0,,,,,4,,,52,0
10654,note_off,1,0,0,,,,,0,,,71,0
10654,note_off,0,0,0,,,,,1,,,71,0
10654,note_off,0,0,0,,,,,2,,,68,0
10656,note_on,2,0,0,,,,,0,,,73,80
10656,note_on,0,0,0,,,,,1,,,73,96
10656,note_on,0,0,0,,,,,2,,,69,96
10656,note_on,0,0,0,,,,,3,,,64,96
10656,note_on,0,0,0,,,,,4,,,45,80
10666,note_off,10,0,0,,,,,3,,,64,0
10666,note_off,0,0,0,,,,,4,,,45,0
10668,note_on,2,0,0,,,,,3,,,62,96
10668,note_on,0,0,0,,,,,4,,,47,80
10677,note_off,9,0,0,,,,,0,,,73,0
10677,note_off,0,0,0,,,,,1,,,73,0
10677,note_off,0,0,0,,,,,2,,,69,0
10678,note_off,1,0,0,,,,,3,,,62,0
10678,note_off,0,0,0,,,,,4,,,47,0
10680,note_on,2,0,0,,,,,0,,,81,80
10680,note_on,0,0,0,,,,,1,,,81,96
10680,note_on,0,0,0,,,,,2,,,81,96
10680,note_on,0,0,0,,,,,3,,,64,96
10680,note_on,0,0,0,,,,,4,,,49,80
10690,note_off,10,0,0,,,,,3,,,64,0
10690,note_off,0,0,0,,,,,4,,,49,0
10692,note_on,2,0,0,,,,,3,,,66,96
10692,note_on,0,0,0,,,,,4,,,50,80
10701,note_off,9,0,0,,,,,0,,,81,0
10701,note_off,0,0,0,,,,,1,,,81,0
10701,note_off,0,0,0,,,,,2,,,81,0
10702,note_off,1,0,0,,,,,3,,,66,0
10702,note_off,0,0,0,,,,,4,,,50,0
10704,note_on,2,0,0,,,,,0,,,71,80
10704,note_on,0,0,0,,,,,1,,,71,96
10704,note_on,0,0,0,,,,,2,,,71,96
10704,note_on,0,0,0,,,,,3,,,68,96
10704,note_on,0,0,0,,,,,4,,,52,80
10725,note_off,21,0,0,,,,,0,,,71,0
10725,note_off,0,0,0,,,,,1,,,71,0
10725,note_off,0,0,0,,,,,2,,,71,0
10725,note_off,0,0,0,,,,,3,,,68,0
10725,note_off,0,0,0,,,,,4,,,52,0
10728,note_on,3,0,0,,,,,0,,,80,80
10728,note_on,0,0,0,,,,,1,,,80,96
10728,note_on,0,0,0,,,,,2,,,80,96
10728,note_on,0,0,0,,,,,3,,,59,96
10728,note_on,0,0,0,,,,,4,,,40,80
10749,note_off,21,0,0,,,,,0,,,80,0
10749,note_off,0,0,0,,,,,1,,,80,0
10749,note_off,0,0,0,,,,,2,,,80,0
10749,note_off,0,0,0,,,,,3,,,59,0
10749,note_off,0,0,0,,,,,4,,,40,0
10752,note_on,3,0,0,,,,,0,,,81,80
10752,note_on,0,0,0,,,,,1,,,81,96
10752,note_on,0,0,0,,,,,2,,,81,96
10752,note_on,0,0,0,,,,,3,,,61,96
10752,note_on,0,0,0,,,,,4,,,45,80
10776,note_off,24,0,0,,,,,0,,,81,0
10776,note_on,0,0,0,,,,,0,,,85,80
10782,note_off,6,0,0,,,,,0,,,85,0
10782,note_on,0,0,0,,,,,0,,,83,80
10788,note_off,6,0,0,,,,,0,,,83,0
10788,note_on,0,0,0,,,,,0,,,85,80
10794,note_off,6,0,0,,,,,0,,,85,0
10794,note_on,0,0,0,,,,,0,,,83,80
10794,note_off,0,0,0,,,,,1,,,81,0
10794,note_off,0,0,0,,,,,2,,,81,0
10794,note_off,0,0,0,,,,,3,,,61,0
10794,note_off,0,0,0,,,,,4,,,45,0
10800,note_off,6,0,0,,,,,0,,,83,0
10800,note_on,0,0,0,,,,,0,,,85,80
10806,note_off,6,0,0,,,,,0,,,85,0
10806,note_on,0,0,0,,,,,0,,,83,80
10812,note_off,6,0,0,,,,,0,,,83,0
10812,note_on,0,0,0,,,,,0,,,85,80
10818,note_off,6,0,0,,,,,0,,,85,0
10818,note_on,0,0,0,,,,,0,,,83,80
10824,note_off,6,0,0,,,,,0,,,83,0
10824,note_on,0,0,0,,,,,0,,,81,80
10845,note_off,21,0,0,,,,,0,,,81,0
10848,note_on,3,0,0,,,,,0,,,88,80
10848,note_on,0,0,0,,,,,4,,,45,80
10869,note_off,21,0,0,,,,,0,,,88,0
10872,note_on,3,0,0,,,,,0,,,86,80
10882,note_off,10,0,0,,,,,0,,,86,0
10884,note_on,2,0,0,,,,,0,,,85,80
10890,note_off,6,0,0,,,,,4,,,45,0
10894,note_off,4,0,0,,,,,0,,,85,0
10896,note_on,2,0,0,,,,,0,,,83,80
10917,note_off,21,0,0,,,,,0,,,83,0
10920,note_on,3,0,0,,,,,0,,,81,80
10941,note_off,21,0,0,,,,,0,,,81,0
10944,note_on,3,0,0,,,,,0,,,81,80
10944,note_on,0,0,0,,,,,4,,,45,80
10968,note_off,24,0,0,,,,,0,,,81,0
10968,note_on,0,0,0,,,,,0,,,85,80
10974,note_off,6,0,0,,,,,0,,,85,0
10974,note_on,0,0,0,,,,,0,,,83,80
10980,note_off,6,0,0,,,,,0,,,83,0
10980,note_on,0,0,0,,,,,0,,,85,80
10986,note_off,6,0,0,,,,,0,,,85,0
10986,note_on,0,0,0,,,,,0,,,83,80
10986,note_off,0,0,0,,,,,4,,,45,0
10992,note_off,6,0,0,,,,,0,,,83,0
10992,note_on,0,0,0,,,,,0,,,85,80
10998,note_off,6,0,0,,,,,0,,,85,0
10998,note_on,0,0,0,,,,,0,,,83,80
11004,note_off,6,0,0,,,,,0,,,83,0
11004,note_on,0,0,0,,,,,0,,,85,80
11010,note_off,6,0,0,,,,,0,,,85,0
11010,note_on,0,0,0,,,,,0,,,83,80
11016,note_off,6,0,0,,,,,0,,,83,0
11016,note_on,0,0,0,,,,,0,,,81,80
11037,note_off,21,0,0,,,,,0,,,81,0
11040,note_on,3,0,0,,,,,0,,,88,80
11040,note_on,0,0,0,,,,,4,,,45,80
11061,note_off,21,0,0,,,,,0,,,88,0
11064,note_on,3,0,0,,,,,0,,,86,80
11074,note_off,10,0,0,,,,,0,,,86,0
11076,note_on,2,0,0,,,,,0,,,85,80
11082,note_off,6,0,0,,,,,4,,,45,0
11086,note_off,4,0,0,,,,,0,,,85,0
11088,note_on,2,0,0,,,,,0,,,83,80
11109,note_off,21,0,0,,,,,0,,,83,0
11112,note_on,3,0,0,,,,,0,,,81,80
11133,note_off,21,0,0,,,,,0,,,81,0
11136,note_on,3,0,0,,,,,0,,,80,80
11136,note_on,0,0,0,,,,,4,,,52,80
11148,note_off,12,0,0,,,,,0,,,80,0
11148,note_on,0,0,0,,,,,0,,,76,80
11158,note_off,10,0,0,,,,,0,,,76,0
11160,note_on,2,0,0,,,,,0,,,78,80
11172,note_off,12,0,0,,,,,0,,,78,0
11172,note_on,0,0,0,,,,,0,,,75,80
11182,note_off,10,0,0,,,,,0,,,75,0
11184,note_on,2,0,0,,,,,0,,,76,80
11226,note_off,42,0,0,,,,,0,,,76,0
11232,note_on,6,0,0,,,,,0,,,76,80
11232,note_on,0,0,0,,,,,1,,,73,80
11232,note_on,0,0,0,,,,,2,,,73,80
11242,note_off,10,0,0,,,,,0,,,76,0
11244,note_on,2,0,0,,,,,0,,,76,80
11253,note_off,9,0,0,,,,,1,,,73,0
11253,note_off,0,0,0,,,,,2,,,73,0
11256,note_off,3,0,0,,,,,0,,,76,0
11256,note_on,0,0,0,,,,,0,,,73,80
11256,note_on,0,0,0,,,,,1,,,69,80
11256,note_on,0,0,0,,,,,2,,,69,80
11268,note_off,12,0,0,,,,,0,,,73,0
11268,note_on,0,0,0,,,,,0,,,73,80
11277,note_off,9,0,0,,,,,1,,,69,0
11277,note_off,0,0,0,,,,,2,,,69,0
11278,note_off,1,0,0,,,,,0,,,73,0
11280,note_on,2,0,0,,,,,0,,,73,80
11280,note_on,0,0,0,,,,,1,,,69,80
11280,note_on,0,0,0,,,,,2,,,69,80
11292,note_off,12,0,0,,,,,0,,,73,0
11292,note_on,0,0,0,,,,,0,,,76,80
11301,note_off,9,0,0,,,,,1,,,69,0
11301,note_off,0,0,0,,,,,2,,,69,0
11302,note_off,1,0,0,,,,,0,,,76,0
11304,note_on,2,0,0,,,,,0,,,76,80
11304,note_on,0,0,0,,,,,1,,,73,80
11304,note_on,0,0,0,,,,,2,,,73,80
11314,note_off,10,0,0,,,,,0,,,76,0
11316,note_on,2,0,0,,,,,0,,,76,80
11325,note_off,9,0,0,,,,,1,,,73,0
11325,note_off,0,0,0,,,,,2,,,73,0
11326,note_off,1,0,0,,,,,0,,,76,0
11328,note_on,2,0,0,,,,,0,,,76,80
11328,note_on,0,0,0,,,,,1,,,73,80
11328,note_on,0,0,0,,,,,2,,,73,80
11338,note_off,10,0,0,,,,,0,,,76,0
11340,note_on,2,0,0,,,,,0,,,76,80
11349,note_off,9,0,0,,,,,1,,,73,0
11349,note_off,0,0,0,,,,,2,,,73,0
11352,note_off,3,0,0,,,,,0,,,76,0
11352,note_on,0,0,0,,,,,0,,,73,80
11352,note_on,0,0,0,,,,,1,,,69,80
11352,note_on,0,0,0,,,,,2,,,69,80
11364,note_off,12,0,0,,,,,0,,,73,0
11364,note_on,0,0,0,,,,,0,,,73,80
11373,note_off,9,0,0,,,,,1,,,69,0
11373,note_off,0,0,0,,,,,2,,,69,0
11374,note_off,1,0,0,,,,,0,,,73,0
11376,note_on,2,0,0,,,,,0,,,73,80
11376,note_on,0,0,0,,,,,1,,,69,80
11376,note_on,0,0,0,,,,,2,,,69,80
11388,note_off,12,0,0,,,,,0,,,73,0
11388,note_on,0,0,0,,,,,0,,,76,80
11397,note_off,9,0,0,,,,,1,,,69,0
11397,note_off,0,0,0,,,,,2,,,69,0
11398,note_off,1,0,0,,,,,0,,,76,0
11400,note_on,2,0,0,,,,,0,,,76,80
11400,note_on,0,0,0,,,,,1,,,73,80
11400,note_on,0,0,0,,,,,2,,,73,80
11410,note_off,10,0,0,,,,,0,,,76,0
11412,note_on,2,0,0,,,,,0,,,76,80
11421,note_off,9,0,0,,,,,1,,,73,0
11421,note_off,0,0,0,,,,,2,,,73,0
11422,note_off,1,0,0,,,,,0,,,76,0
11424,note_on,2,0,0,,,,,0,,,76,80
11424,note_on,0,0,0,,,,,1,,,71,80
11424,note_on,0,0,0,,,,,2,,,71,80
11434,note_off,10,0,0,,,,,0,,,76,0
11436,note_on,2,0,0,,,,,0,,,74,80
11445,note_off,9,0,0,,,,,1,,,71,0
11445,note_off,0,0,0,,,,,2,,,71,0
11448,note_off,3,0,0,,,,,0,,,74,0
11448,note_on,0,0,0,,,,,0,,,71,80
11448,note_on,0,0,0,,,,,1,,,68,80
11448,note_on,0,0,0,,,,,2,,,68,80
11460,note_off,12,0,0,,,,,0,,,71,0
11460,note_on,0,0,0,,,,,0,,,71,80
11469,note_off,9,0,0,,,,,1,,,68,0
11469,note_off,0,0,0,,,,,2,,,68,0
11470,note_off,1,0,0,,,,,0,,,71,0
11472,note_on,2,0,0,,,,,0,,,71,80
11472,note_on,0,0,0,,,,,1,,,68,80
11472,note_on,0,0,0,,,,,2,,,68,80
11484,note_off,12,0,0,,,,,0,,,71,0
11484,note_on,0,0,0,,,,,0,,,74,80
11493,note_off,9,0,0,,,,,1,,,68,0
11493,note_off,0,0,0,,,,,2,,,68,0
11494,note_off,1,0,0,,,,,0,,,74,0
11496,note_on,2,0,0,,,,,0,,,76,80
11496,note_on,0,0,0,,,,,1,,,71,80
11496,note_on,0,0,0,,,,,2,,,71,80
11506,note_off,10,0,0,,,,,0,,,76,0
11508,note_on,2,0,0,,,,,0,,,76,80
11517,note_off,9,0,0,,,,,1,,,71,0
11517,note_off,0,0,0,,,,,2,,,71,0
11518,note_off,1,0,0,,,,,0,,,76,0
11520,note_on,2,0,0,,,,,0,,,76,80
11520,note_on,0,0,0,,,,,1,,,71,80
11520,note_on,0,0,0,,,,,2,,,71,80
11530,note_off,10,0,0,,,,,0,,,76,0
11532,note_on,2,0,0,,,,,0,,,74,80
11541,note_off,9,0,0,,,,,1,,,71,0
11541,note_off,0,0,0,,,,,2,,,71,0
11544,note_off,3,0,0,,,,,0,,,74,0
11544,note_on,0,0,0,,,,,0,,,71,80
11544,note_on,0,0,0,,,,,1,,,68,80
11544,note_on,0,0,0,,,,,2,,,68,80
11556,note_off,12,0,0,,,,,0,,,71,0
11556,note_on,0,0,0,,,,,0,,,71,80
11565,note_off,9,0,0,,,,,1,,,68,0
11565,note_off,0,0,0,,,,,2,,,68,0
11566,note_off,1,0,0,,,,,0,,,71,0
11568,note_on,2,0,0,,,,,0,,,71,80
11568,note_on,0,0,0,,,,,1,,,68,80
11568,note_on,0,0,0,,,,,2,,,68,80
11580,note_off,12,0,0,,,,,0,,,71,0
11580,note_on,0,0,0,,,,,0,,,74,80
11589,note_off,9,0,0,,,,,1,,,68,0
11589,note_off,0,0,0,,,,,2,,,68,0
11590,note_off,1,0,0,,,,,0,,,74,0
11592,note_on,2,0,0,,,,,0,,,76,80
11592,note_on,0,0,0,,,,,1,,,71,80
11592,note_on,0,0,0,,,,,2,,,71,80
11602,note_off,10,0,0,,,,,0,,,76,0
11604,note_on,2,0,0,,,,,0,,,76,80
11613,note_off,9,0,0,,,,,1,,,71,0
11613,note_off,0,0,0,,,,,2,,,71,0
11614,note_off,1,0,0,,,,,0,,,76,0
11616,note_on,2,0,0,,,,,0,,,76,80
11616,note_on,0,0,0,,,,,1,,,69,80
11616,note_on,0,0,0,,,,,2,,,69,80
11626,note_off,10,0,0,,,,,0,,,76,0
11628,note_on,2,0,0,,,,,0,,,73,80
11637,note_off,9,0,0,,,,,1,,,69,0
11637,note_off,0,0,0,,,,,2,,,69,0
11640,note_off,3,0,0,,,,,0,,,73,0
11640,note_on,0,0,0,,,,,0,,,69,80
11640,note_on,0,0,0,,,,,1,,,66,80
11640,note_on,0,0,0,,,,,2,,,66,80
11652,note_off,12,0,0,,,,,0,,,69,0
11652,note_on,0,0,0,,,,,0,,,69,80
11661,note_off,9,0,0,,,,,1,,,66,0
11661,note_off,0,0,0,,,,,2,,,66,0
11662,note_off,1,0,0,,,,,0,,,69,0
11664,note_on,2,0,0,,,,,0,,,69,80
11664,note_on,0,0,0,,,,,1,,,66,80
11664,note_on,0,0,0,,,,,2,,,66,80
11676,note_off,12,0,0,,,,,0,,,69,0
11676,note_on,0,0,0,,,,,0,,,73,80
11685,note_off,9,0,0,,,,,1,,,66,0
11685,note_off,0,0,0,,,,,2,,,66,0
11686,note_off,1,0,0,,,,,0,,,73,0
11688,note_on,2,0,0,,,,,0,,,76,80
11688,note_on,0,0,0,,,,,1,,,69,80
11688,note_on,0,0,0,,,,,2,,,69,80
11698,note_off,10,0,0,,,,,0,,,76,0
11700,note_on,2,0,0,,,,,0,,,76,80
11709,note_off,9,0,0,,,,,1,,,69,0
11709,note_off,0,0,0,,,,,2,,,69,0
11710,note_off,1,0,0,,,,,0,,,76,0
11712,note_on,2,0,0,,,,,0,,,76,80
11712,note_on,0,0,0,,,,,1,,,69,80
11712,note_on,0,0,0,,,,,2,,,69,80
11722,note_off,10,0,0,,,,,0,,,76,0
11724,note_on,2,0,0,,,,,0,,,73,80
11733,note_off,9,0,0,,,,,1,,,69,0
11733,note_off,0,0,0,,,,,2,,,69,0
11736,note_off,3,0,0,,,,,0,,,73,0
11736,note_on,0,0,0,,,,,0,,,69,80
11736,note_on,0,0,0,,,,,1,,,66,80
11736,note_on,0,0,0,,,,,2,,,66,80
11748,note_off,12,0,0,,,,,0,,,69,0
11748,note_on,0,0,0,,,,,0,,,69,80
11757,note_off,9,0,0,,,,,1,,,66,0
11757,note_off,0,0,0,,,,,2,,,66,0
11758,note_off,1,0,0,,,,,0,,,69,0
11760,note_on,2,0,0,,,,,0,,,69,80
11760,note_on,0,0,0,,,,,1,,,66,80
11760,note_on,0,0,0,,,,,2,,,66,80
11772,note_off,12,0,0,,,,,0,,,69,0
11772,note_on,0,0,0,,,,,0,,,73,80
11781,note_off,9,0,0,,,,,1,,,66,0
11781,note_off,0,0,0,,,,,2,,,66,0
11782,note_off,1,0,0,,,,,0,,,73,0
11784,note_on,2,0,0,,,,,0,,,76,80
11784,note_on,0,0,0,,,,,1,,,69,80
11784,note_on,0,0,0,,,,,2,,,69,80
11794,note_off,10,0,0,,,,,0,,,76,0
11796,note_on,2,0,0,,,,,0,,,76,80
11805,note_off,9,0,0,,,,,1,,,69,0
11805,note_off,0,0,0,,,,,2,,,69,0
11806,note_off,1,0,0,,,,,0,,,76,0
11808,note_on,2,0,0,,,,,0,,,76,80
11808,note_on,0,0,0,,,,,1,,,68,80
11808,note_on,0,0,0,,,,,2,,,68,80
11818,note_off,10,0,0,,,,,0,,,76,0
11820,note_on,2,0,0,,,,,0,,,71,80
11829,note_off,9,0,0,,,,,1,,,68,0
11829,note_off,0,0,0,,,,,2,,,68,0
11832,note_off,3,0,0,,,,,0,,,71,0
11832,note_on,0,0,0,,,,,0,,,64,80
11832,note_on,0,0,0,,,,,1,,,64,80
11832,note_on,0,0,0,,,,,2,,,64,80
11844,note_off,12,0,0,,,,,0,,,64,0
11844,note_on,0,0,0,,,,,0,,,64,80
11853,note_off,9,0,0,,,,,1,,,64,0
11853,note_off,0,0,0,,,,,2,,,64,0
11854,note_off,1,0,0,,,,,0,,,64,0
11856,note_on,2,0,0,,,,,0,,,64,80
11856,note_on,0,0,0,,,,,1,,,64,80
11856,note_on,0,0,0,,,,,2,,,64,80
11868,note_off,12,0,0,,,,,0,,,64,0
11868,note_on,0,0,0,,,,,0,,,71,80
11877,note_off,9,0,0,,,,,1,,,64,0
11877,note_off,0,0,0,,,,,2,,,64,0
11878,note_off,1,0,0,,,,,0,,,71,0
11880,note_on,2,0,0,,,,,0,,,76,80
11880,note_on,0,0,0,,,,,1,,,68,80
11880,note_on,0,0,0,,,,,2,,,68,80
11890,note_off,10,0,0,,,,,0,,,76,0
11892,note_on,2,0,0,,,,,0,,,76,80
11901,note_off,9,0,0,,,,,1,,,68,0
11901,note_off,0,0,0,,,,,2,,,68,0
11902,note_off,1,0,0,,,,,0,,,76,0
11904,note_on,2,0,0,,,,,0,,,76,80
11904,note_on,0,0,0,,,,,1,,,68,80
11904,note_on,0,0,0,,,,,2,,,68,80
11914,note_off,10,0,0,,,,,0,,,76,0
11916,note_on,2,0,0,,,,,0,,,71,80
11925,note_off,9,0,0,,,,,1,,,68,0
11925,note_off,0,0,0,,,,,2,,,68,0
11928,note_off,3,0,0,,,,,0,,,71,0
11928,note_on,0,0,0,,,,,0,,,64,80
11928,note_on,0,0,0,,,,,1,,,64,80
11928,note_on,0,0,0,,,,,2,,,64,80
11940,note_off,12,0,0,,,,,0,,,64,0
11940,note_on,0,0,0,,,,,0,,,64,80
11949,note_off,9,0,0,,,,,1,,,64,0
11949,note_off,0,0,0,,,,,2,,,64,0
11950,note_off,1,0,0,,,,,0,,,64,0
11952,note_on,2,0,0,,,,,0,,,64,80
11952,note_on,0,0,0,,,,,1,,,64,80
11952,note_on,0,0,0,,,,,2,,,64,80
11964,note_off,12,0,0,,,,,0,,,64,0
11964,note_on,0,0,0,,,,,0,,,71,80
11973,note_off,9,0,0,,,,,1,,,64,0
11973,note_off,0,0,0,,,,,2,,,64,0
11974,note_off,1,0,0,,,,,0,,,71,0
11976,note_on,2,0,0,,,,,0,,,76,80
11976,note_on,0,0,0,,,,,1,,,71,80
11976,note_on,0,0,0,,,,,2,,,71,80
11986,note_off,10,0,0,,,,,0,,,76,0
11988,note_on,2,0,0,,,,,0,,,76,80
11997,note_off,9,0,0,,,,,1,,,71,0
11997,note_off,0,0,0,,,,,2,,,71,0
11998,note_off,1,0,0,,,,,0,,,76,0
12000,note_on,2,0,0,,,,,0,,,76,80
12000,note_on,0,0,0,,,,,1,,,73,72
12000,note_on,0,0,0,,,,,2,,,73,72
12010,note_off,10,0,0,,,,,0,,,76,0
12012,note_on,2,0,0,,,,,0,,,76,80
12021,note_off,9,0,0,,,,,1,,,73,0
12021,note_off,0,0,0,,,,,2,,,73,0
12024,note_off,3,0,0,,,,,0,,,76,0
12024,note_on,0,0,0,,,,,0,,,73,80
12024,note_on,0,0,0,,,,,1,,,69,72
12024,note_on,0,0,0,,,,,2,,,69,72
12036,note_off,12,0,0,,,,,0,,,73,0
12036,note_on,0,0,0,,,,,0,,,73,80
12045,note_off,9,0,0,,,,,1,,,69,0
12045,note_off,0,0,0,,,,,2,,,69,0
12046,note_off,1,0,0,,,,,0,,,73,0
12048,note_on,2,0,0,,,,,0,,,73,80
12048,note_on,0,0,0,,,,,1,,,69,72
12048,note_on,0,0,0,,,,,2,,,69,72
12060,note_off,12,0,0,,,,,0,,,73,0
12060,note_on,0,0,0,,,,,0,,,76,80
12069,note_off,9,0,0,,,,,1,,,69,0
12069,note_off,0,0,0,,,,,2,,,69,0
12070,note_off,1,0,0,,,,,0,,,76,0
12072,note_on,2,0,0,,,,,0,,,76,80
12072,note_on,0,0,0,,,,,1,,,73,72
12072,note_on,0,0,0,,,,,2,,,73,72
12082,note_off,10,0,0,,,,,0,,,76,0
12084,note_on,2,0,0,,,,,0,,,76,80
12093,note_off,9,0,0,,,,,1,,,73,0
12093,note_off,0,0,0,,,,,2,,,73,0
12094,note_off,1,0,0,,,,,0,,,76,0
12096,note_on,2,0,0,,,,,0,,,76,80
12096,note_on,0,0,0,,,,,1,,,73,72
12096,note_on,0,0,0,,,,,2,,,73,72
12106,note_off,10,0,0,,,,,0,,,76,0
12108,note_on,2,0,0,,,,,0,,,76,80
12117,note_off,9,0,0,,,,,1,,,73,0
12117,note_off,0,0,0,,,,,2,,,73,0
12120,note_off,3,0,0,,,,,0,,,76,0
12120,note_on,0,0,0,,,,,0,,,73,80
12120,note_on,0,0,0,,,,,1,,,69,72
12120,note_on,0,0,0,,,,,2,,,69,72
12132,note_off,12,0,0,,,,,0,,,73,0
12132,note_on,0,0,0,,,,,0,,,73,80
12141,note_off,9,0,0,,,,,1,,,69,0
12141,note_off,0,0,0,,,,,2,,,69,0
12142,note_off,1,0,0,,,,,0,,,73,0
12144,note_on,2,0,0,,,,,0,,,73,80
12144,note_on,0,0,0,,,,,1,,,69,72
12144,note_on,0,0,0,,,,,2,,,69,72
12156,note_off,12,0,0,,,,,0,,,73,0
12156,note_on,0,0,0,,,,,0,,,76,80
12165,note_off,9,0,0,,,,,1,,,69,0
12165,note_off,0,0,0,,,,,2,,,69,0
12166,note_off,1,0,0,,,,,0,,,76,0
12168,note_on,2,0,0,,,,,0,,,76,80
12168,note_on,0,0,0,,,,,1,,,73,72
12168,note_on,0,0,0,,,,,2,,,73,72
12178,note_off,10,0,0,,,,,0,,,76,0
12180,note_on,2,0,0,,,,,0,,,76,80
12189,note_off,9,0,0,,,,,1,,,73,0
12189,note_off,0,0,0,,,,,2,,,73,0
12190,note_off,1,0,0,,,,,0,,,76,0
12192,note_on,2,0,0,,,,,0,,,76,80
12192,note_on,0,0,0,,,,,1,,,71,72
12192,note_on,0,0,0,,,,,2,,,71,72
12202,note_off,10,0,0,,,,,0,,,76,0
12204,note_on,2,0,0,,,,,0,,,74,80
12213,note_off,9,0,0,,,,,1,,,71,0
12213,note_off,0,0,0,,,,,2,,,71,0
12216,note_off,3,0,0,,,,,0,,,74,0
12216,note_on,0,0,0,,,,,0,,,71,80
12216,note_on,0,0,0,,,,,1,,,68,72
12216,note_on,0,0,0,,,,,2,,,68,72
12228,note_off,12,0,0,,,,,0,,,71,0
12228,note_on,0,0,0,,,,,0,,,71,80
12237,note_off,9,0,0,,,,,1,,,68,0
12237,note_off,0,0,0,,,,,2,,,68,0
12238,note_off,1,0,0,,,,,0,,,71,0
12240,note_on,2,0,0,,,,,0,,,71,80
12240,note_on,0,0,0,,,,,1,,,68,72
12240,note_on,0,0,0,,,,,2,,,68,72
12252,note_off,12,0,0,,,,,0,,,71,0
12252,note_on,0,0,0,,,,,0,,,74,80
12261,note_off,9,0,0,,,,,1,,,68,0
12261,note_off,0,0,0,,,,,2,,,68,0
12262,note_off,1,0,0,,,,,0,,,74,0
12264,note_on,2,0,0,,,,,0,,,76,80
12264,note_on,0,0,0,,,,,1,,,71,72
12264,note_on,0,0,0,,,,,2,,,71,72
12274,note_off,10,0,0,,,,,0,,,76,0
12276,note_on,2,0,0,,,,,0,,,76,80
12285,note_off,9,0,0,,,,,1,,,71,0
12285,note_off,0,0,0,,,,,2,,,71,0
12286,note_off,1,0,0,,,,,0,,,76,0
12288,note_on,2,0,0,,,,,0,,,76,80
12288,note_on,0,0,0,,,,,1,,,71,72
12288,note_on,0,0,0,,,,,2,,,71,72
12298,note_off,10,0,0,,,,,0,,,76,0
12300,note_on,2,0,0,,,,,0,,,74,80
12309,note_off,9,0,0,,,,,1,,,71,0
12309,note_off,0,0,0,,,,,2,,,71,0
12312,note_off,3,0,0,,,,,0,,,74,0
12312,note_on,0,0,0,,,,,0,,,71,80
12312,note_on,0,0,0,,,,,1,,,68,72
12312,note_on,0,0,0,,,,,2,,,68,72
12324,note_off,12,0,0,,,,,0,,,71,0
12324,note_on,0,0,0,,,,,0,,,71,80
12333,note_off,9,0,0,,,,,1,,,68,0
12333,note_off,0,0,0,,,,,2,,,68,0
12334,note_off,1,0,0,,,,,0,,,71,0
12336,note_on,2,0,0,,,,,0,,,71,80
12336,note_on,0,0,0,,,,,1,,,68,72
12336,note_on,0,0,0,,,,,2,,,68,72
12348,note_off,12,0,0,,,,,0,,,71,0
12348,note_on,0,0,0,,,,,0,,,74,80
12357,note_off,9,0,0,,,,,1,,,68,0
12357,note_off,0,0,0,,,,,2,,,68,0
12358,note_off,1,0,0,,,,,0,,,74,0
12360,note_on,2,0,0,,,,,0,,,76,80
12360,note_on,0,0,0,,,,,1,,,71,72
12360,note_on,0,0,0,,,,,2,,,71,72
12370,note_off,10,0,0,,,,,0,,,76,0
12372,note_on,2,0,0,,,,,0,,,76,80
12381,note_off,9,0,0,,,,,1,,,71,0
12381,note_off,0,0,0,,,,,2,,,71,0
12382,note_off,1,0,0,,,,,0,,,76,0
12384,note_on,2,0,0,,,,,0,,,76,80
12384,note_on,0,0,0,,,,,1,,,69,72
12384,note_on,0,0,0,,,,,2,,,69,72
12394,note_off,10,0,0,,,,,0,,,76,0
12396,note_on,2,0,0,,,,,0,,,73,80
12405,note_off,9,0,0,,,,,1,,,69,0
12405,note_off,0,0,0,,,,,2,,,69,0
12408,note_off,3,0,0,,,,,0,,,73,0
12408,note_on,0,0,0,,,,,0,,,69,80
12408,note_on,0,0,0,,,,,1,,,66,72
12408,note_on,0,0,0,,,,,2,,,66,72
12420,note_off,12,0,0,,,,,0,,,69,0
12420,note_on,0,0,0,,,,,0,,,69,80
12429,note_off,9,0,0,,,,,1,,,66,0
12429,note_off,0,0,0,,,,,2,,,66,0
12430,note_off,1,0,0,,,,,0,,,69,0
12432,note_on,2,0,0,,,,,0,,,69,80
12432,note_on,0,0,0,,,,,1,,,66,72
12432,note_on,0,0,0,,,,,2,,,66,72
12444,note_off,12,0,0,,,,,0,,,69,0
12444,note_on,0,0,0,,,,,0,,,73,80
12453,note_off,9,0,0,,,,,1,,,66,0
12453,note_off,0,0,0,,,,,2,,,66,0
12454,note_off,1,0,0,,,,,0,,,73,0
12456,note_on,2,0,0,,,,,0,,,76,80
12456,note_on,0,0,0,,,,,1,,,69,72
12456,note_on,0,0,0,,,,,2,,,69,72
12466,note_off,10,0,0,,,,,0,,,76,0
12468,note_on,2,0,0,,,,,0,,,76,80
12477,note_off,9,0,0,,,,,1,,,69,0
12477,note_off,0,0,0,,,,,2,,,69,0
12478,note_off,1,0,0,,,,,0,,,76,0
12480,note_on,2,0,0,,,,,0,,,76,80
12480,note_on,0,0,0,,,,,1,,,69,72
12480,note_on,0,0,0,,,,,2,,,69,72
12490,note_off,10,0,0,,,,,0,,,76,0
12492,note_on,2,0,0,,,,,0,,,73,80
12501,note_off,9,0,0,,,,,1,,,69,0
12501,note_off,0,0,0,,,,,2,,,69,0
12504,note_off,3,0,0,,,,,0,,,73,0
12504,note_on,0,0,0,,,,,0,,,69,80
12504,note_on,0,0,0,,,,,1,,,66,72
12504,note_on,0,0,0,,,,,2,,,66,72
12516,note_off,12,0,0,,,,,0,,,69,0
12516,note_on,0,0,0,,,,,0,,,69,80
12525,note_off,9,0,0,,,,,1,,,66,0
12525,note_off,0,0,0,,,,,2,,,66,0
12526,note_off,1,0,0,,,,,0,,,69,0
12528,note_on,2,0,0,,,,,0,,,69,80
12528,note_on,0,0,0,,,,,1,,,66,72
12528,note_on,0,0,0,,,,,2,,,66,72
12540,note_off,12,0,0,,,,,0,,,69,0
12540,note_on,0,0,0,,,,,0,,,73,80
12549,note_off,9,0,0,,,,,1,,,66,0
12549,note_off,0,0,0,,,,,2,,,66,0
12550,note_off,1,0,0,,,,,0,,,73,0
12552,note_on,2,0,0,,,,,0,,,76,80
12552,note_on,0,0,0,,,,,1,,,69,72
12552,note_on,0,0,0,,,,,2,,,69,72
12562,note_off,10,0,0,,,,,0,,,76,0
12564,note_on,2,0,0,,,,,0,,,76,80
12573,note_off,9,0,0,,,,,1,,,69,0
12573,note_off,0,0,0,,,,,2,,,69,0
12574,note_off,1,0,0,,,,,0,,,76,0
12576,note_on,2,0,0,,,,,0,,,76,80
12576,note_on,0,0,0,,,,,0,,,71,80
12576,note_on,0,0,0,,,,,0,,,64,80
12576,note_on,0,0,0,,,,,1,,,68,72
12576,note_on,0,0,0,,,,,2,,,68,72
12600,note_off,24,0,0,,,,,4,,,52,0
12600,note_on,0,0,0,,,,,4,,,64,80
12618,note_off,18,0,0,,,,,0,,,76,0
12618,note_off,0,0,0,,,,,0,,,71,0
12618,note_off,0,0,0,,,,,0,,,64,0
12618,note_off,0,0,0,,,,,1,,,68,0
12618,note_off,0,0,0,,,,,2,,,68,0
12621,note_off,3,0,0,,,,,4,,,64,0
12624,note_on,3,0,0,,,,,4,,,59,80
12645,note_off,21,0,0,,,,,4,,,59,0
12648,note_on,3,0,0,,,,,4,,,56,80
12669,note_off,21,0,0,,,,,4,,,56,0
12672,note_on,3,0,0,,,,,0,,,64,80
12672,note_on,0,0,0,,,,,4,,,52,80
12682,note_off,10,0,0,,,,,0,,,64,0
12684,note_on,2,0,0,,,,,0,,,66,80
12694,note_off,10,0,0,,,,,0,,,66,0
12696,note_on,2,0,0,,,,,0,,,68,80
12706,note_off,10,0,0,,,,,0,,,68,0
12708,note_on,2,0,0,,,,,0,,,64,80
12714,note_off,6,0,0,,,,,4,,,52,0
12718,note_off,4,0,0,,,,,0,,,64,0
12720,note_on,2,0,0,,,,,0,,,69,80
12730,note_off,10,0,0,,,,,0,,,69,0
12732,note_on,2,0,0,,,,,0,,,71,80
12742,note_off,10,0,0,,,,,0,,,71,0
12744,note_on,2,0,0,,,,,0,,,73,80
12754,note_off,10,0,0,,,,,0,,,73,0
12756,note_on,2,0,0,,,,,0,,,69,80
12766,note_off,10,0,0,,,,,0,,,69,0
12768,note_on,2,0,0,,,,,0,,,76,80
12768,note_on,0,0,0,,,,,4,,,52,80
12778,note_off,10,0,0,,,,,0,,,76,0
12780,note_on,2,0,0,,,,,0,,,78,80
12790,note_off,10,0,0,,,,,0,,,78,0
12792,note_on,2,0,0,,,,,0,,,80,80
12802,note_off,10,0,0,,,,,0,,,80,0
12804,note_on,2,0,0,,,,,0,,,76,80
12810,note_off,6,0,0,,,,,4,,,52,0
12814,note_off,4,0,0,,,,,0,,,76,0
12816,note_on,2,0,0,,,,,0,,,81,80
12826,note_off,10,0,0,,,,,0,,,81,0
12828,note_on,2,0,0,,,,,0,,,83,80
12838,note_off,10,0,0,,,,,0,,,83,0
12840,note_on,2,0,0,,,,,0,,,85,80
12850,note_off,10,0,0,,,,,0,,,85,0
12852,note_on,2,0,0,,,,,0,,,81,80
12862,note_off,10,0,0,,,,,0,,,81,0
12864,note_on,2,0,0,,,,,0,,,88,80
12864,note_on,0,0,0,,,,,4,,,52,80
12885,note_off,21,0,0,,,,,4,,,52,0
12888,note_on,3,0,0,,,,,4,,,64,80
12906,note_off,18,0,0,,,,,0,,,88,0
12909,note_off,3,0,0,,,,,4,,,64,0
12912,note_on,3,0,0,,,,,4,,,59,80
12933,note_off,21,0,0,,,,,4,,,59,0
12936,note_on,3,0,0,,,,,4,,,56,80
12957,note_off,21,0,0,,,,,4,,,56,0
12960,note_on,3,0,0,,,,,0,,,88,80
12960,note_on,0,0,0,,,,,3,,,64,64
12960,note_on,0,0,0,,,,,4,,,52,64
12972,note_off,12,0,0,,,,,0,,,88,0
12972,note_on,0,0,0,,,,,0,,,80,80
12984,note_off,12,0,0,,,,,0,,,80,0
12984,note_on,0,0,0,,,,,0,,,71,80
12994,note_off,10,0,0,,,,,0,,,71,0
12996,note_on,2,0,0,,,,,0,,,71,80
13002,note_off,6,0,0,,,,,3,,,64,0
13002,note_off,0,0,0,,,,,4,,,52,0
13006,note_off,4,0,0,,,,,0,,,71,0
13008,note_on,2,0,0,,,,,0,,,71,80
13008,note_on,0,0,0,,,,,3,,,64,64
13008,note_on,0,0,0,,,,,4,,,52,64
13020,note_off,12,0,0,,,,,0,,,71,0
13020,note_on,0,0,0,,,,,0,,,80,80
13032,note_off,12,0,0,,,,,0,,,80,0
13032,note_on,0,0,0,,,,,0,,,88,80
13042,note_off,10,0,0,,,,,0,,,88,0
13044,note_on,2,0,0,,,,,0,,,88,80
13050,note_off,6,0,0,,,,,3,,,64,0
13050,note_off,0,0,0,,,,,4,,,52,0
13054,note_off,4,0,0,,,,,0,,,88,0
13056,note_on,2,0,0,,,,,0,,,88,80
13056,note_on,0,0,0,,,,,3,,,64,64
13056,note_on,0,0,0,,,,,4,,,52,64
13068,note_off,12,0,0,,,,,0,,,88,0
13068,note_on,0,0,0,,,,,0,,,80,80
13080,note_off,12,0,0,,,,,0,,,80,0
13080,note_on,0,0,0,,,,,0,,,71,80
13090,note_off,10,0,0,,,,,0,,,71,0
13092,note_on,2,0,0,,,,,0,,,71,80
13102,note_off,10,0,0,,,,,0,,,71,0
13104,note_on,2,0,0,,,,,0,,,71,80
13108,note_off,4,0,0,,,,,3,,,64,0
13108,note_off,0,0,0,,,,,4,,,52,0
13116,note_off,8,0,0,,,,,0,,,71,0
13116,note_on,0,0,0,,,,,0,,,80,80
13116,note_on,0,0,0,,,,,3,,,64,64
13116,note_on,0,0,0,,,,,4,,,52,64
13126,note_off,10,0,0,,,,,3,,,64,0
13126,note_off,0,0,0,,,,,4,,,52,0
13128,note_off,2,0,0,,,,,0,,,80,0
13128,note_on,0,0,0,,,,,0,,,88,80
13128,note_on,0,0,0,,,,,3,,,66,64
13128,note_on,0,0,0,,,,,4,,,54,64
13138,note_off,10,0,0,,,,,0,,,88,0
13138,note_off,0,0,0,,,,,3,,,66,0
13138,note_off,0,0,0,,,,,4,,,54,0
13140,note_on,2,0,0,,,,,0,,,88,80
13140,note_on,0,0,0,,,,,3,,,68,64
13140,note_on,0,0,0,,,,,4,,,56,64
13150,note_off,10,0,0,,,,,0,,,88,0
13150,note_off,0,0,0,,,,,3,,,68,0
13150,note_off,0,0,0,,,,,4,,,56,0
13152,note_on,2,0,0,,,,,0,,,88,80
13152,note_on,0,0,0,,,,,1,,,66,64
13152,note_on,0,0,0,,,,,2,,,66,64
13152,note_on,0,0,0,,,,,3,,,69,64
13152,note_on,0,0,0,,,,,4,,,57,64
13164,note_off,12,0,0,,,,,0,,,88,0
13164,note_on,0,0,0,,,,,0,,,78,80
13176,note_off,12,0,0,,,,,0,,,78,0
13176,note_on,0,0,0,,,,,0,,,69,80
13186,note_off,10,0,0,,,,,0,,,69,0
13188,note_on,2,0,0,,,,,0,,,69,80
13194,note_off,6,0,0,,,,,1,,,66,0
13194,note_off,0,0,0,,,,,2,,,66,0
13194,note_off,0,0,0,,,,,3,,,69,0
13194,note_off,0,0,0,,,,,4,,,57,0
13198,note_off,4,0,0,,,,,0,,,69,0
13200,note_on,2,0,0,,,,,0,,,69,80
13200,note_on,0,0,0,,,,,1,,,66,64
13200,note_on,0,0,0,,,,,2,,,66,64
13212,note_off,12,0,0,,,,,0,,,69,0
13212,note_on,0,0,0,,,,,0,,,78,80
13224,note_off,12,0,0,,,,,0,,,78,0
13224,note_on,0,0,0,,,,,0,,,88,80
13234,note_off,10,0,0,,,,,0,,,88,0
13236,note_on,2,0,0,,,,,0,,,88,80
13242,note_off,6,0,0,,,,,1,,,66,0
13242,note_off,0,0,0,,,,,2,,,66,0
13246,note_off,4,0,0,,,,,0,,,88,0
13248,note_on,2,0,0,,,,,0,,,88,80
13248,note_on,0,0,0,,,,,1,,,66,64
13248,note_on,0,0,0,,,,,2,,,66,64
13260,note_off,12,0,0,,,,,0,,,88,0
13260,note_on,0,0,0,,,,,0,,,78,80
13272,note_off,12,0,0,,,,,0,,,78,0
13272,note_on,0,0,0,,,,,0,,,69,80
13282,note_off,10,0,0,,,,,0,,,69,0
13284,note_on,2,0,0,,,,,0,,,69,80
13294,note_off,10,0,0,,,,,0,,,69,0
13296,note_on,2,0,0,,,,,0,,,69,80
13300,note_off,4,0,0,,,,,1,,,66,0
13300,note_off,0,0,0,,,,,2,,,66,0
13308,note_off,8,0,0,,,,,0,,,69,0
13308,note_on,0,0,0,,,,,0,,,78,80
13308,note_on,0,0,0,,,,,1,,,64,64
13308,note_on,0,0,0,,,,,2,,,64,64
13318,note_off,10,0,0,,,,,1,,,64,0
13318,note_off,0,0,0,,,,,2,,,64,0
13320,note_off,2,0,0,,,,,0,,,78,0
13320,note_on,0,0,0,,,,,0,,,88,80
13320,note_on,0,0,0,,,,,1,,,62,64
13320,note_on,0,0,0,,,,,2,,,62,64
13330,note_off,10,0,0,,,,,0,,,88,0
13330,note_off,0,0,0,,,,,1,,,62,0
13330,note_off,0,0,0,,,,,2,,,62,0
13332,note_on,2,0,0,,,,,0,,,88,80
13332,note_on,0,0,0,,,,,1,,,61,64
13332,note_on,0,0,0,,,,,2,,,61,64
13342,note_off,10,0,0,,,,,0,,,88,0
13342,note_off,0,0,0,,,,,1,,,61,0
13342,note_off,0,0,0,,,,,2,,,61,0
13344,note_on,2,0,0,,,,,0,,,86,80
13344,note_on,0,0,0,,,,,1,,,66,64
13344,note_on,0,0,0,,,,,2,,,66,64
13344,note_on,0,0,0,,,,,3,,,62,64
13344,note_on,0,0,0,,,,,4,,,50,64
13356,note_off,12,0,0,,,,,0,,,86,0
13356,note_on,0,0,0,,,,,0,,,78,80
13368,note_off,12,0,0,,,,,0,,,78,0
13368,note_on,0,0,0,,,,,0,,,69,80
13378,note_off,10,0,0,,,,,0,,,69,0
13380,note_on,2,0,0,,,,,0,,,69,80
13386,note_off,6,0,0,,,,,1,,,66,0
13386,note_off,0,0,0,,,,,2,,,66,0
13386,note_off,0,0,0,,,,,3,,,62,0
13386,note_off,0,0,0,,,,,4,,,50,0
13390,note_off,4,0,0,,,,,0,,,69,0
13392,note_on,2,0,0,,,,,0,,,69,80
13392,note_on,0,0,0,,,,,3,,,62,64
13392,note_on,0,0,0,,,,,4,,,50,64
13404,note_off,12,0,0,,,,,0,,,69,0
13404,note_on,0,0,0,,,,,0,,,78,80
13416,note_off,12,0,0,,,,,0,,,78,0
13416,note_on,0,0,0,,,,,0,,,86,80
13426,note_off,10,0,0,,,,,0,,,86,0
13428,note_on,2,0,0,,,,,0,,,86,80
13434,note_off,6,0,0,,,,,3,,,62,0
13434,note_off,0,0,0,,,,,4,,,50,0
13438,note_off,4,0,0,,,,,0,,,86,0
13440,note_on,2,0,0,,,,,0,,,86,80
13440,note_on,0,0,0,,,,,3,,,62,64
13440,note_on,0,0,0,,,,,4,,,50,64
13452,note_off,12,0,0,,,,,0,,,86,0
13452,note_on,0,0,0,,,,,0,,,78,80
13464,note_off,12,0,0,,,,,0,,,78,0
13464,note_on,0,0,0,,,,,0,,,69,80
13474,note_off,10,0,0,,,,,0,,,69,0
13476,note_on,2,0,0,,,,,0,,,69,80
13486,note_off,10,0,0,,,,,0,,,69,0
13488,note_on,2,0,0,,,,,0,,,69,80
13492,note_off,4,0,0,,,,,3,,,62,0
13492,note_off,0,0,0,,,,,4,,,50,0
13500,note_off,8,0,0,,,,,0,,,69,0
13500,note_on,0,0,0,,,,,0,,,78,80
13500,note_on,0,0,0,,,,,3,,,62,64
13500,note_on,0,0,0,,,,,4,,,50,64
13510,note_off,10,0,0,,,,,3,,,62,0
13510,note_off,0,0,0,,,,,4,,,50,0
13512,note_off,2,0,0,,,,,0,,,78,0
13512,note_on,0,0,0,,,,,0,,,86,80
13512,note_on,0,0,0,,,,,3,,,64,64
13512,note_on,0,0,0,,,,,4,,,52,64
13522,note_off,10,0,0,,,,,0,,,86,0
13522,note_off,0,0,0,,,,,3,,,64,0
13522,note_off,0,0,0,,,,,4,,,52,0
13524,note_on,2,0,0,,,,,0,,,86,80
13524,note_on,0,0,0,,,,,3,,,66,64
13524,note_on,0,0,0,,,,,4,,,54,64
13534,note_off,10,0,0,,,,,0,,,86,0
13534,note_off,0,0,0,,,,,3,,,66,0
13534,note_off,0,0,0,,,,,4,,,54,0
13536,note_on,2,0,0,,,,,0,,,86,80
13536,note_on,0,0,0,,,,,1,,,64,64
13536,note_on,0,0,0,,,,,2,,,64,64
13536,note_on,0,0,0,,,,,3,,,68,64
13536,note_on,0,0,0,,,,,4,,,56,64
13548,note_off,12,0,0,,,,,0,,,86,0
13548,note_on,0,0,0,,,,,0,,,76,80
13560,note_off,12,0,0,,,,,0,,,76,0
13560,note_on,0,0,0,,,,,0,,,68,80
13570,note_off,10,0,0,,,,,0,,,68,0
13572,note_on,2,0,0,,,,,0,,,68,80
13578,note_off,6,0,0,,,,,1,,,64,0
13578,note_off,0,0,0,,,,,2,,,64,0
13578,note_off,0,0,0,,,,,3,,,68,0
13578,note_off,0,0,0,,,,,4,,,56,0
13582,note_off,4,0,0,,,,,0,,,68,0
13584,note_on,2,0,0,,,,,0,,,68,80
13584,note_on,0,0,0,,,,,1,,,64,64
13584,note_on,0,0,0,,,,,2,,,64,64
13596,note_off,12,0,0,,,,,0,,,68,0
13596,note_on,0,0,0,,,,,0,,,76,80
13608,note_off,12,0,0,,,,,0,,,76,0
13608,note_on,0,0,0,,,,,0,,,86,80
13618,note_off,10,0,0,,,,,0,,,86,0
13620,note_on,2,0,0,,,,,0,,,86,80
13626,note_off,6,0,0,,,,,1,,,64,0
13626,note_off,0,0,0,,,,,2,,,64,0
13630,note_off,4,0,0,,,,,0,,,86,0
13632,note_on,2,0,0,,,,,0,,,86,80
13632,note_on,0,0,0,,,,,1,,,64,64
13632,note_on,0,0,0,,,,,2,,,64,64
13644,note_off,12,0,0,,,,,0,,,86,0
13644,note_on,0,0,0,,,,,0,,,76,80
13656,note_off,12,0,0,,,,,0,,,76,0
13656,note_on,0,0,0,,,,,0,,,68,80
13666,note_off,10,0,0,,,,,0,,,68,0
13668,note_on,2,0,0,,,,,0,,,68,80
13678,note_off,10,0,0,,,,,0,,,68,0
13680,note_on,2,0,0,,,,,0,,,68,80
13684,note_off,4,0,0,,,,,1,,,64,0
13684,note_off,0,0,0,,,,,2,,,64,0
13692,note_off,8,0,0,,,,,0,,,68,0
13692,note_on,0,0,0,,,,,0,,,76,80
13692,note_on,0,0,0,,,,,1,,,62,64
13692,note_on,0,0,0,,,,,2,,,62,64
13702,note_off,10,0,0,,,,,1,,,62,0
13702,note_off,0,0,0,,,,,2,,,62,0
13704,note_off,2,0,0,,,,,0,,,76,0
13704,note_on,0,0,0,,,,,0,,,86,80
13704,note_on,0,0,0,,,,,1,,,61,64
13704,note_on,0,0,0,,,,,2,,,61,64
13714,note_off,10,0,0,,,,,0,,,86,0
13714,note_off,0,0,0,,,,,1,,,61,0
13714,note_off,0,0,0,,,,,2,,,61,0
13716,note_on,2,0,0,,,,,0,,,86,80
13716,note_on,0,0,0,,,,,1,,,59,64
13716,note_on,0,0,0,,,,,2,,,59,64
13726,note_off,10,0,0,,,,,0,,,86,0
13726,note_off,0,0,0,,,,,1,,,59,0
13726,note_off,0,0,0,,,,,2,,,59,0
13728,note_on,2,0,0,,,,,0,,,85,80
13728,note_on,0,0,0,,,,,1,,,64,64
13728,note_on,0,0,0,,,,,2,,,64,64
13728,note_on,0,0,0,,,,,3,,,61,64
13728,note_on,0,0,0,,,,,4,,,49,64
13740,note_off,12,0,0,,,,,0,,,85,0
13740,note_on,0,0,0,,,,,0,,,76,80
13752,note_off,12,0,0,,,,,0,,,76,0
13752,note_on,0,0,0,,,,,0,,,68,80
13762,note_off,10,0,0,,,,,0,,,68,0
13764,note_on,2,0,0,,,,,0,,,68,80
13770,note_off,6,0,0,,,,,1,,,64,0
13770,note_off,0,0,0,,,,,2,,,64,0
13770,note_off,0,0,0,,,,,3,,,61,0
13770,note_off,0,0,0,,,,,4,,,49,0
13774,note_off,4,0,0,,,,,0,,,68,0
13776,note_on,2,0,0,,,,,0,,,68,80
13776,note_on,0,0,0,,,,,3,,,61,64
13776,note_on,0,0,0,,,,,4,,,49,64
13788,note_off,12,0,0,,,,,0,,,68,0
13788,note_on,0,0,0,,,,,0,,,76,80
13800,note_off,12,0,0,,,,,0,,,76,0
13800,note_on,0,0,0,,,,,0,,,85,80
13810,note_off,10,0,0,,,,,0,,,85,0
13812,note_on,2,0,0,,,,,0,,,85,80
13818,note_off,6,0,0,,,,,3,,,61,0
13818,note_off,0,0,0,,,,,4,,,49,0
13822,note_off,4,0,0,,,,,0,,,85,0
13824,note_on,2,0,0,,,,,0,,,85,80
13824,note_on,0,0,0,,,,,3,,,61,64
13824,note_on,0,0,0,,,,,4,,,49,64
13836,note_off,12,0,0,,,,,0,,,85,0
13836,note_on,0,0,0,,,,,0,,,76,80
13848,note_off,12,0,0,,,,,0,,,76,0
13848,note_on,0,0,0,,,,,0,,,68,80
13858,note_off,10,0,0,,,,,0,,,68,0
13860,note_on,2,0,0,,,,,0,,,68,80
13870,note_off,10,0,0,,,,,0,,,68,0
13872,note_on,2,0,0,,,,,0,,,68,80
13876,note_off,4,0,0,,,,,3,,,61,0
13876,note_off,0,0,0,,,,,4,,,49,0
13884,note_off,8,0,0,,,,,0,,,68,0
13884,note_on,0,0,0,,,,,0,,,76,80
13884,note_on,0,0,0,,,,,3,,,61,64
13884,note_on,0,0,0,,,,,4,,,49,64
13894,note_off,10,0,0,,,,,3,,,61,0
13894,note_off,0,0,0,,,,,4,,,49,0
13896,note_off,2,0,0,,,,,0,,,76,0
13896,note_on,0,0,0,,,,,0,,,85,80
13896,note_on,0,0,0,,,,,3,,,62,64
13896,note_on,0,0,0,,,,,4,,,50,64
13906,note_off,10,0,0,,,,,0,,,85,0
13906,note_off,0,0,0,,,,,3,,,62,0
13906,note_off,0,0,0,,,,,4,,,50,0
13908,note_on,2,0,0,,,,,0,,,85,80
13908,note_on,0,0,0,,,,,3,,,64,64
13908,note_on,0,0,0,,,,,4,,,52,64
13918,note_off,10,0,0,,,,,0,,,85,0
13918,note_off,0,0,0,,,,,3,,,64,0
13918,note_off,0,0,0,,,,,4,,,52,0
13920,note_on,2,0,0,,,,,0,,,85,80
13920,note_on,0,0,0,,,,,1,,,62,64
13920,note_on,0,0,0,,,,,2,,,62,64
13920,note_on,0,0,0,,,,,3,,,66,64
13920,note_on,0,0,0,,,,,4,,,54,64
13932,note_off,12,0,0,,,,,0,,,85,0
13932,note_on,0,0,0,,,,,0,,,74,80
13944,note_off,12,0,0,,,,,0,,,74,0
13944,note_on,0,0,0,,,,,0,,,66,80
13954,note_off,10,0,0,,,,,0,,,66,0
13956,note_on,2,0,0,,,,,0,,,66,80
13962,note_off,6,0,0,,,,,1,,,62,0
13962,note_off,0,0,0,,,,,2,,,62,0
13962,note_off,0,0,0,,,,,3,,,66,0
13962,note_off,0,0,0,,,,,4,,,54,0
13966,note_off,4,0,0,,,,,0,,,66,0
13968,note_on,2,0,0,,,,,0,,,66,80
13968,note_on,0,0,0,,,,,1,,,62,64
13968,note_on,0,0,0,,,,,2,,,62,64
13980,note_off,12,0,0,,,,,0,,,66,0
13980,note_on,0,0,0,,,,,0,,,74,80
13992,note_off,12,0,0,,,,,0,,,74,0
13992,note_on,0,0,0,,,,,0,,,85,80
14002,note_off,10,0,0,,,,,0,,,85,0
14004,note_on,2,0,0,,,,,0,,,85,80
14010,note_off,6,0,0,,,,,1,,,62,0
14010,note_off,0,0,0,,,,,2,,,62,0
14014,note_off,4,0,0,,,,,0,,,85,0
14016,note_on,2,0,0,,,,,0,,,85,80
14016,note_on,0,0,0,,,,,1,,,62,64
14016,note_on,0,0,0,,,,,2,,,62,64
14028,note_off,12,0,0,,,,,0,,,85,0
14028,note_on,0,0,0,,,,,0,,,74,80
14040,note_off,12,0,0,,,,,0,,,74,0
14040,note_on,0,0,0,,,,,0,,,66,80
14050,note_off,10,0,0,,,,,0,,,66,0
14052,note_on,2,0,0,,,,,0,,,66,80
14062,note_off,10,0,0,,,,,0,,,66,0
14064,note_on,2,0,0,,,,,0,,,66,80
14068,note_off,4,0,0,,,,,1,,,62,0
14068,note_off,0,0,0,,,,,2,,,62,0
14076,note_off,8,0,0,,,,,0,,,66,0
14076,note_on,0,0,0,,,,,0,,,74,80
14076,note_on,0,0,0,,,,,1,,,61,64
14076,note_on,0,0,0,,,,,2,,,61,64
14086,note_off,10,0,0,,,,,1,,,61,0
14086,note_off,0,0,0,,,,,2,,,61,0
14088,note_off,2,0,0,,,,,0,,,74,0
14088,note_on,0,0,0,,,,,0,,,85,80
14088,note_on,0,0,0,,,,,1,,,59,64
14088,note_on,0,0,0,,,,,2,,,59,64
14098,note_off,10,0,0,,,,,0,,,85,0
14098,note_off,0,0,0,,,,,1,,,59,0
14098,note_off,0,0,0,,,,,2,,,59,0
14100,note_on,2,0,0,,,,,0,,,85,80
14100,note_on,0,0,0,,,,,1,,,57,64
14100,note_on,0,0,0,,,,,2,,,57,64
14110,note_off,10,0,0,,,,,0,,,85,0
14110,note_off,0,0,0,,,,,1,,,57,0
14110,note_off,0,0,0,,,,,2,,,57,0
14112,note_on,2,0,0,,,,,0,,,83,80
14112,note_on,0,0,0,,,,,1,,,62,64
14112,note_on,0,0,0,,,,,2,,,62,64
14112,note_on,0,0,0,,,,,3,,,59,64
14112,note_on,0,0,0,,,,,4,,,47,64
14124,note_off,12,0,0,,,,,0,,,83,0
14124,note_on,0,0,0,,,,,0,,,74,80
14136,note_off,12,0,0,,,,,0,,,74,0
14136,note_on,0,0,0,,,,,0,,,66,80
14146,note_off,10,0,0,,,,,0,,,66,0
14148,note_on,2,0,0,,,,,0,,,66,80
14154,note_off,6,0,0,,,,,1,,,62,0
14154,note_off,0,0,0,,,,,2,,,62,0
14154,note_off,0,0,0,,,,,3,,,59,0
14154,note_off,0,0,0,,,,,4,,,47,0
14158,note_off,4,0,0,,,,,0,,,66,0
14160,note_on,2,0,0,,,,,0,,,66,80
14160,note_on,0,0,0,,,,,3,,,59,64
14160,note_on,0,0,0,,,,,4,,,47,64
14172,note_off,12,0,0,,,,,0,,,66,0
14172,note_on,0,0,0,,,,,0,,,74,80
14184,note_off,12,0,0,,,,,0,,,74,0
14184,note_on,0,0,0,,,,,0,,,83,80
14194,note_off,10,0,0,,,,,0,,,83,0
14196,note_on,2,0,0,,,,,0,,,83,80
14202,note_off,6,0,0,,,,,3,,,59,0
14202,note_off,0,0,0,,,,,4,,,47,0
14206,note_off,4,0,0,,,,,0,,,83,0
14208,note_on,2,0,0,,,,,0,,,83,80
14208,note_on,0,0,0,,,,,3,,,59,64
14208,note_on,0,0,0,,,,,4,,,47,64
14220,note_off,12,0,0,,,,,0,,,83,0
14220,note_on,0,0,0,,,,,0,,,74,80
14232,note_off,12,0,0,,,,,0,,,74,0
14232,note_on,0,0,0,,,,,0,,,66,80
14242,note_off,10,0,0,,,,,0,,,66,0
14244,note_on,2,0,0,,,,,0,,,66,80
14254,note_off,10,0,0,,,,,0,,,66,0
14256,note_on,2,0,0,,,,,0,,,66,80
14260,note_off,4,0,0,,,,,3,,,59,0
14260,note_off,0,0,0,,,,,4,,,47,0
14268,note_off,8,0,0,,,,,0,,,66,0
14268,note_on,0,0,0,,,,,0,,,74,80
14268,note_on,0,0,0,,,,,3,,,59,64
14268,note_on,0,0,0,,,,,4,,,47,64
14278,note_off,10,0,0,,,,,3,,,59,0
14278,note_off,0,0,0,,,,,4,,,47,0
14280,note_off,2,0,0,,,,,0,,,74,0
14280,note_on,0,0,0,,,,,0,,,83,80
14280,note_on,0,0,0,,,,,3,,,61,64
14280,note_on,0,0,0,,,,,4,,,49,64
14290,note_off,10,0,0,,,,,0,,,83,0
14290,note_off,0,0,0,,,,,3,,,61,0
14290,note_off,0,0,0,,,,,4,,,49,0
14292,note_on,2,0,0,,,,,0,,,83,80
14292,note_on,0,0,0,,,,,3,,,62,64
14292,note_on,0,0,0,,,,,4,,,50,64
14302,note_off,10,0,0,,,,,0,,,83,0
14302,note_off,0,0,0,,,,,3,,,62,0
14302,note_off,0,0,0,,,,,4,,,50,0
14304,note_on,2,0,0,,,,,0,,,83,80
14304,note_on,0,0,0,,,,,1,,,61,64
14304,note_on,0,0,0,,,,,2,,,61,64
14304,note_on,0,0,0,,,,,3,,,53,64
14304,note_on,0,0,0,,,,,4,,,41,64
14316,note_off,12,0,0,,,,,0,,,83,0
14316,note_on,0,0,0,,,,,0,,,73,80
14328,note_off,12,0,0,,,,,0,,,73,0
14328,note_on,0,0,0,,,,,0,,,65,80
14338,note_off,10,0,0,,,,,0,,,65,0
14340,note_on,2,0,0,,,,,0,,,65,80
14346,note_off,6,0,0,,,,,1,,,61,0
14346,note_off,0,0,0,,,,,2,,,61,0
14346,note_off,0,0,0,,,,,3,,,53,0
14346,note_off,0,0,0,,,,,4,,,41,0
14350,note_off,4,0,0,,,,,0,,,65,0
14352,note_on,2,0,0,,,,,0,,,65,80
14352,note_on,0,0,0,,,,,1,,,61,64
14352,note_on,0,0,0,,,,,2,,,61,64
14364,note_off,12,0,0,,,,,0,,,65,0
14364,note_on,0,0,0,,,,,0,,,73,80
14376,note_off,12,0,0,,,,,0,,,73,0
14376,note_on,0,0,0,,,,,0,,,83,80
14386,note_off,10,0,0,,,,,0,,,83,0
14388,note_on,2,0,0,,,,,0,,,83,80
14394,note_off,6,0,0,,,,,1,,,61,0
14394,note_off,0,0,0,,,,,2,,,61,0
14398,note_off,4,0,0,,,,,0,,,83,0
14400,note_on,2,0,0,,,,,0,,,83,80
14400,note_on,0,0,0,,,,,1,,,61,64
14400,note_on,0,0,0,,,,,2,,,61,64
14412,note_off,12,0,0,,,,,0,,,83,0
14412,note_on,0,0,0,,,,,0,,,73,80
14424,note_off,12,0,0,,,,,0,,,73,0
14424,note_on,0,0,0,,,,,0,,,65,80
14434,note_off,10,0,0,,,,,0,,,65,0
14436,note_on,2,0,0,,,,,0,,,65,80
14446,note_off,10,0,0,,,,,0,,,65,0
14448,note_on,2,0,0,,,,,0,,,65,80
14452,note_off,4,0,0,,,,,1,,,61,0
14452,note_off,0,0,0,,,,,2,,,61,0
14460,note_off,8,0,0,,,,,0,,,65,0
14460,note_on,0,0,0,,,,,0,,,73,80
14460,note_on,0,0,0,,,,,1,,,61,64
14460,note_on,0,0,0,,,,,2,,,61,64
14470,note_off,10,0,0,,,,,1,,,61,0
14470,note_off,0,0,0,,,,,2,,,61,0
14472,note_off,2,0,0,,,,,0,,,73,0
14472,note_on,0,0,0,,,,,0,,,83,80
14472,note_on,0,0,0,,,,,1,,,63,64
14472,note_on,0,0,0,,,,,2,,,63,64
14482,note_off,10,0,0,,,,,0,,,83,0
14482,note_off,0,0,0,,,,,1,,,63,0
14482,note_off,0,0,0,,,,,2,,,63,0
14484,note_on,2,0,0,,,,,0,,,83,80
14484,note_on,0,0,0,,,,,1,,,65,64
14484,note_on,0,0,0,,,,,2,,,65,64
14494,note_off,10,0,0,,,,,0,,,83,0
14494,note_off,0,0,0,,,,,1,,,65,0
14494,note_off,0,0,0,,,,,2,,,65,0
14496,note_on,2,0,0,,,,,0,,,81,80
14496,note_on,0,0,0,,,,,1,,,66,64
14496,note_on,0,0,0,,,,,2,,,66,64
14496,note_on,0,0,0,,,,,3,,,66,64
14496,note_on,0,0,0,,,,,4,,,54,64
14508,note_off,12,0,0,,,,,0,,,81,0
14508,note_on,0,0,0,,,,,0,,,73,80
14520,note_off,12,0,0,,,,,0,,,73,0
14520,note_on,0,0,0,,,,,0,,,66,80
14530,note_off,10,0,0,,,,,0,,,66,0
14532,note_on,2,0,0,,,,,0,,,66,80
14538,note_off,6,0,0,,,,,1,,,66,0
14538,note_off,0,0,0,,,,,2,,,66,0
14538,note_off,0,0,0,,,,,3,,,66,0
14538,note_off,0,0,0,,,,,4,,,54,0
14542,note_off,4,0,0,,,,,0,,,66,0
14544,note_on,2,0,0,,,,,0,,,66,80
14544,note_on,0,0,0,,,,,3,,,66,64
14544,note_on,0,0,0,,,,,4,,,54,64
14556,note_off,12,0,0,,,,,0,,,66,0
14556,note_on,0,0,0,,,,,0,,,73,80
14568,note_off,12,0,0,,,,,0,,,73,0
14568,note_on,0,0,0,,,,,0,,,81,80
14578,note_off,10,0,0,,,,,0,,,81,0
14580,note_on,2,0,0,,,,,0,,,81,80
14586,note_off,6,0,0,,,,,3,,,66,0
14586,note_off,0,0,0,,,,,4,,,54,0
14590,note_off,4,0,0,,,,,0,,,81,0
14592,note_on,2,0,0,,,,,0,,,81,80
14592,note_on,0,0,0,,,,,3,,,66,64
14592,note_on,0,0,0,,,,,4,,,54,64
14604,note_off,12,0,0,,,,,0,,,81,0
14604,note_on,0,0,0,,,,,0,,,73,80
14616,note_off,12,0,0,,,,,0,,,73,0
14616,note_on,0,0,0,,,,,0,,,66,80
14626,note_off,10,0,0,,,,,0,,,66,0
14628,note_on,2,0,0,,,,,0,,,66,80
14638,note_off,10,0,0,,,,,0,,,66,0
14640,note_on,2,0,0,,,,,0,,,66,80
14644,note_off,4,0,0,,,,,3,,,66,0
14644,note_off,0,0,0,,,,,4,,,54,0
14652,note_off,8,0,0,,,,,0,,,66,0
14652,note_on,0,0,0,,,,,0,,,73,80
14652,note_on,0,0,0,,,,,3,,,66,64
14652,note_on,0,0,0,,,,,4,,,54,64
14662,note_off,10,0,0,,,,,3,,,66,0
14662,note_off,0,0,0,,,,,4,,,54,0
14664,note_off,2,0,0,,,,,0,,,73,0
14664,note_on,0,0,0,,,,,0,,,81,80
14664,note_on,0,0,0,,,,,3,,,68,64
14664,note_on,0,0,0,,,,,4,,,56,64
14674,note_off,10,0,0,,,,,0,,,81,0
14674,note_off,0,0,0,,,,,3,,,68,0
14674,note_off,0,0,0,,,,,4,,,56,0
14676,note_on,2,0,0,,,,,0,,,81,80
14676,note_on,0,0,0,,,,,3,,,69,64
14676,note_on,0,0,0,,,,,4,,,57,64
14686,note_off,10,0,0,,,,,0,,,81,0
14686,note_off,0,0,0,,,,,3,,,69,0
14686,note_off,0,0,0,,,,,4,,,57,0
14688,note_on,2,0,0,,,,,0,,,81,80
14688,note_on,0,0,0,,,,,1,,,59,64
14688,note_on,0,0,0,,,,,2,,,59,64
14688,note_on,0,0,0,,,,,3,,,59,64
14688,note_on,0,0,0,,,,,4,,,47,64
14700,note_off,12,0,0,,,,,0,,,81,0
14700,note_on,0,0,0,,,,,0,,,71,80
14712,note_off,12,0,0,,,,,0,,,71,0
14712,note_on,0,0,0,,,,,0,,,63,80
14722,note_off,10,0,0,,,,,0,,,63,0
14724,note_on,2,0,0,,,,,0,,,63,80
14730,note_off,6,0,0,,,,,1,,,59,0
14730,note_off,0,0,0,,,,,2,,,59,0
14730,note_off,0,0,0,,,,,3,,,59,0
14730,note_off,0,0,0,,,,,4,,,47,0
14734,note_off,4,0,0,,,,,0,,,63,0
14736,note_on,2,0,0,,,,,0,,,63,80
14736,note_on,0,0,0,,,,,1,,,59,64
14736,note_on,0,0,0,,,,,2,,,59,64
14748,note_off,12,0,0,,,,,0,,,63,0
14748,note_on,0,0,0,,,,,0,,,71,80
14760,note_off,12,0,0,,,,,0,,,71,0
14760,note_on,0,0,0,,,,,0,,,81,80
14770,note_off,10,0,0,,,,,0,,,81,0
14772,note_on,2,0,0,,,,,0,,,81,80
14778,note_off,6,0,0,,,,,1,,,59,0
14778,note_off,0,0,0,,,,,2,,,59,0
14782,note_off,4,0,0,,,,,0,,,81,0
14784,note_on,2,0,0,,,,,0,,,81,80
14784,note_on,0,0,0,,,,,1,,,59,64
14784,note_on,0,0,0,,,,,2,,,59,64
14796,note_off,12,0,0,,,,,0,,,81,0
14796,note_on,0,0,0,,,,,0,,,71,80
14808,note_off,12,0,0,,,,,0,,,71,0
14808,note_on,0,0,0,,,,,0,,,63,80
14818,note_off,10,0,0,,,,,0,,,63,0
14820,note_on,2,0,0,,,,,0,,,63,80
14830,note_off,10,0,0,,,,,0,,,63,0
14832,note_on,2,0,0,,,,,0,,,63,80
14836,note_off,4,0,0,,,,,1,,,59,0
14836,note_off,0,0,0,,,,,2,,,59,0
14844,note_off,8,0,0,,,,,0,,,63,0
14844,note_on,0,0,0,,,,,0,,,71,80
14844,note_on,0,0,0,,,,,1,,,59,64
14844,note_on,0,0,0,,,,,2,,,59,64
14854,note_off,10,0,0,,,,,1,,,59,0
14854,note_off,0,0,0,,,,,2,,,59,0
14856,note_off,2,0,0,,,,,0,,,71,0
14856,note_on,0,0,0,,,,,0,,,81,80
14856,note_on,0,0,0,,,,,1,,,61,64
14856,note_on,0,0,0,,,,,2,,,61,64
14866,note_off,10,0,0,,,,,0,,,81,0
14866,note_off,0,0,0,,,,,1,,,61,0
14866,note_off,0,0,0,,,,,2,,,61,0
14868,note_on,2,0,0,,,,,0,,,81,80
14868,note_on,0,0,0,,,,,1,,,63,64
14868,note_on,0,0,0,,,,,2,,,63,64
14878,note_off,10,0,0,,,,,0,,,81,0
14878,note_off,0,0,0,,,,,1,,,63,0
14878,note_off,0,0,0,,,,,2,,,63,0
14880,note_on,2,0,0,,,,,0,,,79,80
14880,note_on,0,0,0,,,,,1,,,64,64
14880,note_on,0,0,0,,,,,2,,,64,64
14880,note_on,0,0,0,,,,,3,,,64,64
14880,note_on,0,0,0,,,,,4,,,52,64
14892,note_off,12,0,0,,,,,0,,,79,0
14892,note_on,0,0,0,,,,,0,,,71,80
14904,note_off,12,0,0,,,,,0,,,71,0
14904,note_on,0,0,0,,,,,0,,,64,80
14914,note_off,10,0,0,,,,,0,,,64,0
14916,note_on,2,0,0,,,,,0,,,64,80
14922,note_off,6,0,0,,,,,1,,,64,0
14922,note_off,0,0,0,,,,,2,,,64,0
14922,note_off,0,0,0,,,,,3,,,64,0
14922,note_off,0,0,0,,,,,4,,,52,0
14926,note_off,4,0,0,,,,,0,,,64,0
14928,note_on,2,0,0,,,,,0,,,64,80
14928,note_on,0,0,0,,,,,3,,,64,64
14928,note_on,0,0,0,,,,,4,,,52,64
14940,note_off,12,0,0,,,,,0,,,64,0
14940,note_on,0,0,0,,,,,0,,,71,80
14952,note_off,12,0,0,,,,,0,,,71,0
14952,note_on,0,0,0,,,,,0,,,79,80
14962,note_off,10,0,0,,,,,0,,,79,0
14964,note_on,2,0,0,,,,,0,,,79,80
14970,note_off,6,0,0,,,,,3,,,64,0
14970,note_off,0,0,0,,,,,4,,,52,0
14974,note_off,4,0,0,,,,,0,,,79,0
14976,note_on,2,0,0,,,,,0,,,79,80
14976,note_on,0,0,0,,,,,3,,,64,64
14976,note_on,0,0,0,,,,,4,,,52,64
14988,note_off,12,0,0,,,,,0,,,79,0
14988,note_on,0,0,0,,,,,0,,,71,80
15000,note_off,12,0,0,,,,,0,,,71,0
15000,note_on,0,0,0,,,,,0,,,64,80
15010,note_off,10,0,0,,,,,0,,,64,0
15012,note_on,2,0,0,,,,,0,,,64,80
15022,note_off,10,0,0,,,,,0,,,64,0
15024,note_on,2,0,0,,,,,0,,,64,80
15028,note_off,4,0,0,,,,,3,,,64,0
15028,note_off,0,0,0,,,,,4,,,52,0
15036,note_off,8,0,0,,,,,0,,,64,0
15036,note_on,0,0,0,,,,,0,,,71,80
15036,note_on,0,0,0,,,,,3,,,64,64
15036,note_on,0,0,0,,,,,4,,,52,64
15046,note_off,10,0,0,,,,,3,,,64,0
15046,note_off,0,0,0,,,,,4,,,52,0
15048,note_off,2,0,0,,,,,0,,,71,0
15048,note_on,0,0,0,,,,,0,,,79,80
15048,note_on,0,0,0,,,,,3,,,66,64
15048,note_on,0,0,0,,,,,4,,,54,64
15058,note_off,10,0,0,,,,,0,,,79,0
15058,note_off,0,0,0,,,,,3,,,66,0
15058,note_off,0,0,0,,,,,4,,,54,0
15060,note_on,2,0,0,,,,,0,,,79,80
15060,note_on,0,0,0,,,,,3,,,67,64
15060,note_on,0,0,0,,,,,4,,,55,64
15070,note_off,10,0,0,,,,,0,,,79,0
15070,note_off,0,0,0,,,,,3,,,67,0
15070,note_off,0,0,0,,,,,4,,,55,0
15072,note_on,2,0,0,,,,,0,,,76,80
15072,note_on,0,0,0,,,,,1,,,66,64
15072,note_on,0,0,0,,,,,2,,,66,64
15072,note_on,0,0,0,,,,,3,,,58,64
15072,note_on,0,0,0,,,,,4,,,46,64
15084,note_off,12,0,0,,,,,0,,,76,0
15084,note_on,0,0,0,,,,,0,,,70,80
15096,note_off,12,0,0,,,,,0,,,70,0
15096,note_on,0,0,0,,,,,0,,,66,80
15106,note_off,10,0,0,,,,,0,,,66,0
15108,note_on,2,0,0,,,,,0,,,66,80
15114,note_off,6,0,0,,,,,1,,,66,0
15114,note_off,0,0,0,,,,,2,,,66,0
15114,note_off,0,0,0,,,,,3,,,58,0
15114,note_off,0,0,0,,,,,4,,,46,0
15118,note_off,4,0,0,,,,,0,,,66,0
15120,note_on,2,0,0,,,,,0,,,66,80
15120,note_on,0,0,0,,,,,1,,,66,64
15120,note_on,0,0,0,,,,,2,,,66,64
15132,note_off,12,0,0,,,,,0,,,66,0
15132,note_on,0,0,0,,,,,0,,,70,80
15144,note_off,12,0,0,,,,,0,,,70,0
15144,note_on,0,0,0,,,,,0,,,76,80
15154,note_off,10,0,0,,,,,0,,,76,0
15156,note_on,2,0,0,,,,,0,,,76,80
15162,note_off,6,0,0,,,,,1,,,66,0
15162,note_off,0,0,0,,,,,2,,,66,0
15166,note_off,4,0,0,,,,,0,,,76,0
15168,note_on,2,0,0,,,,,0,,,76,80
15168,note_on,0,0,0,,,,,1,,,66,64
15168,note_on,0,0,0,,,,,2,,,66,64
15180,note_off,12,0,0,,,,,0,,,76,0
15180,note_on,0,0,0,,,,,0,,,70,80
15192,note_off,12,0,0,,,,,0,,,70,0
15192,note_on,0,0,0,,,,,0,,,66,80
15202,note_off,10,0,0,,,,,0,,,66,0
15204,note_on,2,0,0,,,,,0,,,66,80
15214,note_off,10,0,0,,,,,0,,,66,0
15216,note_on,2,0,0,,,,,0,,,66,80
15220,note_off,4,0,0,,,,,1,,,66,0
15220,note_off,0,0,0,,,,,2,,,66,0
15228,note_off,8,0,0,,,,,0,,,66,0
15228,note_on,0,0,0,,,,,0,,,70,80
15228,note_on,0,0,0,,,,,1,,,64,64
15228,note_on,0,0,0,,,,,2,,,64,64
15238,note_off,10,0,0,,,,,1,,,64,0
15238,note_off,0,0,0,,,,,2,,,64,0
15240,note_off,2,0,0,,,,,0,,,70,0
15240,note_on,0,0,0,,,,,0,,,76,80
15240,note_on,0,0,0,,,,,1,,,62,64
15240,note_on,0,0,0,,,,,2,,,62,64
15250,note_off,10,0,0,,,,,0,,,76,0
15250,note_off,0,0,0,,,,,1,,,62,0
15250,note_off,0,0,0,,,,,2,,,62,0
15252,note_on,2,0,0,,,,,0,,,76,80
15252,note_on,0,0,0,,,,,1,,,61,64
15252,note_on,0,0,0,,,,,2,,,61,64
15262,note_off,10,0,0,,,,,0,,,76,0
15262,note_off,0,0,0,,,,,1,,,61,0
15262,note_off,0,0,0,,,,,2,,,61,0
15264,note_on,2,0,0,,,,,0,,,74,80
15264,note_on,0,0,0,,,,,1,,,59,64
15264,note_on,0,0,0,,,,,2,,,59,64
15264,note_on,0,0,0,,,,,3,,,59,64
15264,note_on,0,0,0,,,,,4,,,47,64
15276,note_off,12,0,0,,,,,0,,,74,0
15276,note_on,0,0,0,,,,,0,,,66,80
15288,note_off,12,0,0,,,,,0,,,66,0
15288,note_on,0,0,0,,,,,0,,,59,80
15298,note_off,10,0,0,,,,,0,,,59,0
15300,note_on,2,0,0,,,,,0,,,59,80
15306,note_off,6,0,0,,,,,1,,,59,0
15306,note_off,0,0,0,,,,,2,,,59,0
15306,note_off,0,0,0,,,,,3,,,59,0
15306,note_off,0,0,0,,,,,4,,,47,0
15310,note_off,4,0,0,,,,,0,,,59,0
15312,note_on,2,0,0,,,,,0,,,59,80
15312,note_on,0,0,0,,,,,3,,,59,64
15312,note_on,0,0,0,,,,,4,,,47,64
15324,note_off,12,0,0,,,,,0,,,59,0
15324,note_on,0,0,0,,,,,0,,,66,80
15336,note_off,12,0,0,,,,,0,,,66,0
15336,note_on,0,0,0,,,,,0,,,74,80
15346,note_off,10,0,0,,,,,0,,,74,0
15348,note_on,2,0,0,,,,,0,,,74,80
15354,note_off,6,0,0,,,,,3,,,59,0
15354,note_off,0,0,0,,,,,4,,,47,0
15358,note_off,4,0,0,,,,,0,,,74,0
15360,note_on,2,0,0,,,,,0,,,74,80
15360,note_on,0,0,0,,,,,3,,,59,64
15360,note_on,0,0,0,,,,,4,,,47,64
15372,note_off,12,0,0,,,,,0,,,74,0
15372,note_on,0,0,0,,,,,0,,,66,80
15384,note_off,12,0,0,,,,,0,,,66,0
15384,note_on,0,0,0,,,,,0,,,59,80
15394,note_off,10,0,0,,,,,0,,,59,0
15396,note_on,2,0,0,,,,,0,,,59,80
15406,note_off,10,0,0,,,,,0,,,59,0
15408,note_on,2,0,0,,,,,0,,,59,80
15412,note_off,4,0,0,,,,,3,,,59,0
15412,note_off,0,0,0,,,,,4,,,47,0
15420,note_off,8,0,0,,,,,0,,,59,0
15420,note_on,0,0,0,,,,,0,,,66,80
15420,note_on,0,0,0,,,,,3,,,59,64
15420,note_on,0,0,0,,,,,4,,,47,64
15430,note_off,10,0,0,,,,,3,,,59,0
15430,note_off,0,0,0,,,,,4,,,47,0
15432,note_off,2,0,0,,,,,0,,,66,0
15432,note_on,0,0,0,,,,,0,,,74,80
15432,note_on,0,0,0,,,,,3,,,61,64
15432,note_on,0,0,0,,,,,4,,,49,64
15442,note_off,10,0,0,,,,,0,,,74,0
15442,note_off,0,0,0,,,,,3,,,61,0
15442,note_off,0,0,0,,,,,4,,,49,0
15444,note_on,2,0,0,,,,,0,,,79,80
15444,note_on,0,0,0,,,,,3,,,62,64
15444,note_on,0,0,0,,,,,4,,,50,64
15454,note_off,10,0,0,,,,,0,,,79,0
15454,note_off,0,0,0,,,,,3,,,62,0
15454,note_off,0,0,0,,,,,4,,,50,0
15456,note_on,2,0,0,,,,,0,,,79,80
15456,note_on,0,0,0,,,,,1,,,64,64
15456,note_on,0,0,0,,,,,2,,,64,64
15456,note_on,0,0,0,,,,,3,,,64,64
15456,note_on,0,0,0,,,,,4,,,52,64
15468,note_off,12,0,0,,,,,0,,,79,0
15468,note_on,0,0,0,,,,,0,,,71,80
15480,note_off,12,0,0,,,,,0,,,71,0
15480,note_on,0,0,0,,,,,0,,,64,80
15490,note_off,10,0,0,,,,,0,,,64,0
15492,note_on,2,0,0,,,,,0,,,64,80
15498,note_off,6,0,0,,,,,1,,,64,0
15498,note_off,0,0,0,,,,,2,,,64,0
15498,note_off,0,0,0,,,,,3,,,64,0
15498,note_off,0,0,0,,,,,4,,,52,0
15502,note_off,4,0,0,,,,,0,,,64,0
15504,note_on,2,0,0,,,,,0,,,64,80
15504,note_on,0,0,0,,,,,1,,,64,64
15504,note_on,0,0,0,,,,,2,,,64,64
15516,note_off,12,0,0,,,,,0,,,64,0
15516,note_on,0,0,0,,,,,0,,,71,80
15528,note_off,12,0,0,,,,,0,,,71,0
15528,note_on,0,0,0,,,,,0,,,79,80
15538,note_off,10,0,0,,,,,0,,,79,0
15540,note_on,2,0,0,,,,,0,,,79,80
15546,note_off,6,0,0,,,,,1,,,64,0
15546,note_off,0,0,0,,,,,2,,,64,0
15550,note_off,4,0,0,,,,,0,,,79,0
15552,note_on,2,0,0,,,,,0,,,79,80
15552,note_on,0,0,0,,,,,1,,,64,64
15552,note_on,0,0,0,,,,,2,,,64,64
15564,note_off,12,0,0,,,,,0,,,79,0
15564,note_on,0,0,0,,,,,0,,,71,80
15576,note_off,12,0,0,,,,,0,,,71,0
15576,note_on,0,0,0,,,,,0,,,64,80
15586,note_off,10,0,0,,,,,0,,,64,0
15588,note_on,2,0,0,,,,,0,,,64,80
15598,note_off,10,0,0,,,,,0,,,64,0
15600,note_on,2,0,0,,,,,0,,,64,80
15604,note_off,4,0,0,,,,,1,,,64,0
15604,note_off,0,0,0,,,,,2,,,64,0
15612,note_off,8,0,0,,,,,0,,,64,0
15612,note_on,0,0,0,,,,,0,,,71,80
15612,note_on,0,0,0,,,,,1,,,64,64
15612,note_on,0,0,0,,,,,2,,,64,64
15622,note_off,10,0,0,,,,,1,,,64,0
15622,note_off,0,0,0,,,,,2,,,64,0
15624,note_off,2,0,0,,,,,0,,,71,0
15624,note_on,0,0,0,,,,,0,,,79,80
15624,note_on,0,0,0,,,,,1,,,62,64
15624,note_on,0,0,0,,,,,2,,,62,64
15634,note_off,10,0,0,,,,,0,,,79,0
15634,note_off,0,0,0,,,,,1,,,62,0
15634,note_off,0,0,0,,,,,2,,,62,0
15636,note_on,2,0,0,,,,,0,,,82,80
15636,note_on,0,0,0,,,,,1,,,61,64
15636,note_on,0,0,0,,,,,2,,,61,64
15646,note_off,10,0,0,,,,,0,,,82,0
15646,note_off,0,0,0,,,,,1,,,61,0
15646,note_off,0,0,0,,,,,2,,,61,0
15648,note_on,2,0,0,,,,,0,,,82,80
15648,note_on,0,0,0,,,,,1,,,66,64
15648,note_on,0,0,0,,,,,2,,,66,64
15648,note_on,0,0,0,,,,,3,,,66,64
15648,note_on,0,0,0,,,,,4,,,54,64
15660,note_off,12,0,0,,,,,0,,,82,0
15660,note_on,0,0,0,,,,,0,,,73,80
15672,note_off,12,0,0,,,,,0,,,73,0
15672,note_on,0,0,0,,,,,0,,,64,80
15682,note_off,10,0,0,,,,,0,,,64,0
15684,note_on,2,0,0,,,,,0,,,64,80
15690,note_off,6,0,0,,,,,1,,,66,0
15690,note_off,0,0,0,,,,,2,,,66,0
15690,note_off,0,0,0,,,,,3,,,66,0
15690,note_off,0,0,0,,,,,4,,,54,0
15694,note_off,4,0,0,,,,,0,,,64,0
15696,note_on,2,0,0,,,,,0,,,64,80
15696,note_on,0,0,0,,,,,3,,,66,64
15696,note_on,0,0,0,,,,,4,,,54,64
15708,note_off,12,0,0,,,,,0,,,64,0
15708,note_on,0,0,0,,,,,0,,,73,80
15720,note_off,12,0,0,,,,,0,,,73,0
15720,note_on,0,0,0,,,,,0,,,82,80
15730,note_off,10,0,0,,,,,0,,,82,0
15732,note_on,2,0,0,,,,,0,,,82,80
15738,note_off,6,0,0,,,,,3,,,66,0
15738,note_off,0,0,0,,,,,4,,,54,0
15742,note_off,4,0,0,,,,,0,,,82,0
15744,note_on,2,0,0,,,,,0,,,82,80
15744,note_on,0,0,0,,,,,3,,,66,64
15744,note_on,0,0,0,,,,,4,,,54,64
15756,note_off,12,0,0,,,,,0,,,82,0
15756,note_on,0,0,0,,,,,0,,,73,80
15768,note_off,12,0,0,,,,,0,,,73,0
15768,note_on,0,0,0,,,,,0,,,64,80
15778,note_off,10,0,0,,,,,0,,,64,0
15780,note_on,2,0,0,,,,,0,,,64,80
15790,note_off,10,0,0,,,,,0,,,64,0
15792,note_on,2,0,0,,,,,0,,,64,80
15796,note_off,4,0,0,,,,,3,,,66,0
15796,note_off,0,0,0,,,,,4,,,54,0
15804,note_off,8,0,0,,,,,0,,,64,0
15804,note_on,0,0,0,,,,,0,,,73,80
15804,note_on,0,0,0,,,,,3,,,66,64
15804,note_on,0,0,0,,,,,4,,,54,64
15814,note_off,10,0,0,,,,,3,,,66,0
15814,note_off,0,0,0,,,,,4,,,54,0
15816,note_off,2,0,0,,,,,0,,,73,0
15816,note_on,0,0,0,,,,,0,,,82,80
15816,note_on,0,0,0,,,,,3,,,64,64
15816,note_on,0,0,0,,,,,4,,,52,64
15826,note_off,10,0,0,,,,,0,,,82,0
15826,note_off,0,0,0,,,,,3,,,64,0
15826,note_off,0,0,0,,,,,4,,,52,0
15828,note_on,2,0,0,,,,,0,,,83,80
15828,note_on,0,0,0,,,,,3,,,66,64
15828,note_on,0,0,0,,,,,4,,,54,64
15838,note_off,10,0,0,,,,,0,,,83,0
15838,note_off,0,0,0,,,,,3,,,66,0
15838,note_off,0,0,0,,,,,4,,,54,0
15840,note_on,2,0,0,,,,,0,,,83,80
15840,note_on,0,0,0,,,,,1,,,59,64
15840,note_on,0,0,0,,,,,2,,,59,64
15840,note_on,0,0,0,,,,,3,,,59,64
15840,note_on,0,0,0,,,,,4,,,47,64
15852,note_off,12,0,0,,,,,0,,,83,0
15852,note_on,0,0,0,,,,,0,,,74,80
15864,note_off,12,0,0,,,,,0,,,74,0
15864,note_on,0,0,0,,,,,0,,,66,80
15874,note_off,10,0,0,,,,,0,,,66,0
15876,note_on,2,0,0,,,,,0,,,66,80
15882,note_off,6,0,0,,,,,1,,,59,0
15882,note_off,0,0,0,,,,,2,,,59,0
15882,note_off,0,0,0,,,,,3,,,59,0
15882,note_off,0,0,0,,,,,4,,,47,0
15886,note_off,4,0,0,,,,,0,,,66,0
15888,note_on,2,0,0,,,,,0,,,66,80
15888,note_on,0,0,0,,,,,1,,,59,64
15888,note_on,0,0,0,,,,,2,,,59,64
15900,note_off,12,0,0,,,,,0,,,66,0
15900,note_on,0,0,0,,,,,0,,,74,80
15912,note_off,12,0,0,,,,,0,,,74,0
15912,note_on,0,0,0,,,,,0,,,83,80
15922,note_off,10,0,0,,,,,0,,,83,0
15924,note_on,2,0,0,,,,,0,,,83,80
15930,note_off,6,0,0,,,,,1,,,59,0
15930,note_off,0,0,0,,,,,2,,,59,0
15934,note_off,4,0,0,,,,,0,,,83,0
15936,note_on,2,0,0,,,,,0,,,83,80
15936,note_on,0,0,0,,,,,1,,,59,64
15936,note_on,0,0,0,,,,,2,,,59,64
15948,note_off,12,0,0,,,,,0,,,83,0
15948,note_on,0,0,0,,,,,0,,,74,80
15960,note_off,12,0,0,,,,,0,,,74,0
15960,note_on,0,0,0,,,,,0,,,66,80
15970,note_off,10,0,0,,,,,0,,,66,0
15972,note_on,2,0,0,,,,,0,,,66,80
15982,note_off,10,0,0,,,,,0,,,66,0
15984,note_on,2,0,0,,,,,0,,,66,80
15988,note_off,4,0,0,,,,,1,,,59,0
15988,note_off,0,0,0,,,,,2,,,59,0
15996,note_off,8,0,0,,,,,0,,,66,0
15996,note_on,0,0,0,,,,,0,,,74,80
15996,note_on,0,0,0,,,,,1,,,61,64
15996,note_on,0,0,0,,,,,2,,,61,64
16006,note_off,10,0,0,,,,,1,,,61,0
16006,note_off,0,0,0,,,,,2,,,61,0
16008,note_off,2,0,0,,,,,0,,,74,0
16008,note_on,0,0,0,,,,,0,,,83,80
16008,note_on,0,0,0,,,,,1,,,62,64
16008,note_on,0,0,0,,,,,2,,,62,64
16018,note_off,10,0,0,,,,,0,,,83,0
16018,note_off,0,0,0,,,,,1,,,62,0
16018,note_off,0,0,0,,,,,2,,,62,0
16020,note_on,2,0,0,,,,,0,,,83,80
16020,note_on,0,0,0,,,,,1,,,61,64
16020,note_on,0,0,0,,,,,2,,,61,64
16030,note_off,10,0,0,,,,,0,,,83,0
16030,note_off,0,0,0,,,,,1,,,61,0
16030,note_off,0,0,0,,,,,2,,,61,0
16032,note_on,2,0,0,,,,,0,,,83,80
16032,note_on,0,0,0,,,,,0,,,74,80
16032,note_on,0,0,0,,,,,0,,,66,80
16032,note_on,0,0,0,,,,,1,,,59,64
16032,note_on,0,0,0,,,,,2,,,59,64
16032,note_on,0,0,0,,,,,4,,,47,64
16053,note_off,21,0,0,,,,,4,,,47,0
16056,note_on,3,0,0,,,,,4,,,49,64
16074,note_off,18,0,0,,,,,0,,,83,0
16074,note_off,0,0,0,,,,,0,,,74,0
16074,note_off,0,0,0,,,,,0,,,66,0
16074,note_off,0,0,0,,,,,1,,,59,0
16074,note_off,0,0,0,,,,,2,,,59,0
16077,note_off,3,0,0,,,,,4,,,49,0
16080,note_on,3,0,0,,,,,0,,,86,80
16080,note_on,0,0,0,,,,,4,,,50,64
16101,note_off,21,0,0,,,,,4,,,50,0
16104,note_on,3,0,0,,,,,4,,,49,64
16125,note_off,21,0,0,,,,,4,,,49,0
16128,note_on,3,0,0,,,,,4,,,47,64
16143,note_off,15,0,0,,,,,0,,,86,0
16152,note_on,9,0,0,,,,,0,,,90,80
16170,note_off,18,0,0,,,,,4,,,47,0
16173,note_off,3,0,0,,,,,0,,,90,0
16176,note_on,3,0,0,,,,,0,,,86,80
16188,note_off,12,0,0,,,,,0,,,86,0
16188,note_on,0,0,0,,,,,0,,,85,80
16198,note_off,10,0,0,,,,,0,,,85,0
16200,note_on,2,0,0,,,,,0,,,83,80
16210,note_off,10,0,0,,,,,0,,,83,0
16212,note_on,2,0,0,,,,,0,,,82,80
16222,note_off,10,0,0,,,,,0,,,82,0
16224,note_on,2,0,0,,,,,0,,,83,80
16224,note_on,0,0,0,,,,,4,,,47,64
16245,note_off,21,0,0,,,,,0,,,83,0
16248,note_on,3,0,0,,,,,0,,,86,80
16266,note_off,18,0,0,,,,,4,,,47,0
16269,note_off,3,0,0,,,,,0,,,86,0
16272,note_on,3,0,0,,,,,0,,,85,80
16284,note_off,12,0,0,,,,,0,,,85,0
16284,note_on,0,0,0,,,,,0,,,83,80
16294,note_off,10,0,0,,,,,0,,,83,0
16296,note_on,2,0,0,,,,,0,,,82,80
16306,note_off,10,0,0,,,,,0,,,82,0
16308,note_on,2,0,0,,,,,0,,,79,80
16318,note_off,10,0,0,,,,,0,,,79,0
16320,note_on,2,0,0,,,,,0,,,78,80
16320,note_on,0,0,0,,,,,4,,,47,64
16341,note_off,21,0,0,,,,,0,,,78,0
16344,note_on,3,0,0,,,,,0,,,81,80
16362,note_off,18,0,0,,,,,4,,,47,0
16365,note_off,3,0,0,,,,,0,,,81,0
16368,note_on,3,0,0,,,,,0,,,79,80
16380,note_off,12,0,0,,,,,0,,,79,0
16380,note_on,0,0,0,,,,,0,,,78,80
16390,note_off,10,0,0,,,,,0,,,78,0
16392,note_on,2,0,0,,,,,0,,,76,80
16402,note_off,10,0,0,,,,,0,,,76,0
16404,note_on,2,0,0,,,,,0,,,75,80
16414,note_off,10,0,0,,,,,0,,,75,0
16416,note_on,2,0,0,,,,,0,,,76,80
16416,note_on,0,0,0,,,,,4,,,55,64
16437,note_off,21,0,0,,,,,4,,,55,0
16440,note_on,3,0,0,,,,,4,,,55,64
16461,note_off,21,0,0,,,,,4,,,55,0
16464,note_on,3,0,0,,,,,4,,,52,64
16485,note_off,21,0,0,,,,,4,,,52,0
16488,note_on,3,0,0,,,,,4,,,49,64
16509,note_off,21,0,0,,,,,4,,,49,0
16512,note_on,3,0,0,,,,,4,,,46,64
16521,note_off,9,0,0,,,,,0,,,76,0
16536,note_on,15,0,0,,,,,0,,,88,80
16554,note_off,18,0,0,,,,,4,,,46,0
16557,note_off,3,0,0,,,,,0,,,88,0
16560,note_on,3,0,0,,,,,0,,,86,80
16572,note_off,12,0,0,,,,,0,,,86,0
16572,note_on,0,0,0,,,,,0,,,85,80
16582,note_off,10,0,0,,,,,0,,,85,0
16584,note_on,2,0,0,,,,,0,,,83,80
16596,note_off,12,0,0,,,,,0,,,83,0
16596,note_on,0,0,0,,,,,0,,,82,80
16606,note_off,10,0,0,,,,,0,,,82,0
16608,note_on,2,0,0,,,,,0,,,83,80
16608,note_on,0,0,0,,,,,4,,,47,64
16629,note_off,21,0,0,,,,,0,,,83,0
16632,note_on,3,0,0,,,,,0,,,86,80
16650,note_off,18,0,0,,,,,4,,,47,0
16653,note_off,3,0,0,,,,,0,,,86,0
16656,note_on,3,0,0,,,,,0,,,85,80
16668,note_off,12,0,0,,,,,0,,,85,0
16668,note_on,0,0,0,,,,,0,,,83,80
16678,note_off,10,0,0,,,,,0,,,83,0
16680,note_on,2,0,0,,,,,0,,,82,80
16690,note_off,10,0,0,,,,,0,,,82,0
16692,note_on,2,0,0,,,,,0,,,79,80
16702,note_off,10,0,0,,,,,0,,,79,0
16704,note_on,2,0,0,,,,,0,,,78,80
16704,note_on,0,0,0,,,,,4,,,47,64
16725,note_off,21,0,0,,,,,0,,,78,0
16728,note_on,3,0,0,,,,,0,,,81,80
16746,note_off,18,0,0,,,,,4,,,47,0
16749,note_off,3,0,0,,,,,0,,,81,0
16752,note_on,3,0,0,,,,,0,,,79,80
16764,note_off,12,0,0,,,,,0,,,79,0
16764,note_on,0,0,0,,,,,0,,,78,80
16774,note_off,10,0,0,,,,,0,,,78,0
16776,note_on,2,0,0,,,,,0,,,76,80
16786,note_off,10,0,0,,,,,0,,,76,0
16788,note_on,2,0,0,,,,,0,,,75,80
16798,note_off,10,0,0,,,,,0,,,75,0
16800,note_on,2,0,0,,,,,0,,,76,80
16800,note_on,0,0,0,,,,,4,,,55,64
16821,note_off,21,0,0,,,,,4,,,55,0
16824,note_on,3,0,0,,,,,4,,,55,64
16845,note_off,21,0,0,,,,,4,,,55,0
16848,note_on,3,0,0,,,,,4,,,52,64
16869,note_off,21,0,0,,,,,4,,,52,0
16872,note_on,3,0,0,,,,,4,,,49,64
16893,note_off,21,0,0,,,,,4,,,49,0
16896,note_on,3,0,0,,,,,4,,,46,64
16912,note_off,16,0,0,,,,,0,,,76,0
16912,note_on,0,0,0,,,,,0,,,78,80
16928,note_off,16,0,0,,,,,0,,,78,0
16928,note_on,0,0,0,,,,,0,,,80,80
16938,note_off,10,0,0,,,,,4,,,46,0
16944,note_off,6,0,0,,,,,0,,,80,0
16944,note_on,0,0,0,,,,,0,,,82,80
16944,note_on,0,0,0,,,,,4,,,54,64
16960,note_off,16,0,0,,,,,0,,,82,0
16960,note_on,0,0,0,,,,,0,,,83,80
16976,note_off,16,0,0,,,,,0,,,83,0
16976,note_on,0,0,0,,,,,0,,,85,80
16986,note_off,10,0,0,,,,,4,,,54,0
16990,note_off,4,0,0,,,,,0,,,85,0
16992,note_on,2,0,0,,,,,0,,,86,80
16992,note_on,0,0,0,,,,,4,,,47,64
17008,note_off,16,0,0,,,,,0,,,86,0
17008,note_on,0,0,0,,,,,0,,,85,80
17024,note_off,16,0,0,,,,,0,,,85,0
17024,note_on,0,0,0,,,,,0,,,83,80
17034,note_off,10,0,0,,,,,4,,,47,0
17040,note_off,6,0,0,,,,,0,,,83,0
17040,note_on,0,0,0,,,,,0,,,88,80
17040,note_on,0,0,0,,,,,4,,,55,64
17056,note_off,16,0,0,,,,,0,,,88,0
17056,note_on,0,0,0,,,,,0,,,82,80
17072,note_off,16,0,0,,,,,0,,,82,0
17072,note_on,0,0,0,,,,,0,,,83,80
17082,note_off,10,0,0,,,,,4,,,55,0
17086,note_off,4,0,0,,,,,0,,,83,0
17088,note_on,2,0,0,,,,,0,,,83,80
17088,note_on,0,0,0,,,,,4,,,54,64
17094,note_off,6,0,0,,,,,0,,,83,0
17094,note_on,0,0,0,,,,,0,,,82,80
17100,note_off,6,0,0,,,,,0,,,82,0
17100,note_on,0,0,0,,,,,0,,,83,80
17106,note_off,6,0,0,,,,,0,,,83,0
17106,note_on,0,0,0,,,,,0,,,82,80
17112,note_off,6,0,0,,,,,0,,,82,0
17112,note_on,0,0,0,,,,,0,,,83,80
17118,note_off,6,0,0,,,,,0,,,83,0
17118,note_on,0,0,0,,,,,0,,,82,80
17124,note_off,6,0,0,,,,,0,,,82,0
17124,note_on,0,0,0,,,,,0,,,83,80
17130,note_off,6,0,0,,,,,0,,,83,0
17130,note_on,0,0,0,,,,,0,,,82,80
17130,note_off,0,0,0,,,,,4,,,54,0
17136,note_off,6,0,0,,,,,0,,,82,0
17136,note_on,0,0,0,,,,,0,,,83,80
17136,note_on,0,0,0,,,,,4,,,42,64
17142,note_off,6,0,0,,,,,0,,,83,0
17142,note_on,0,0,0,,,,,0,,,82,80
17148,note_off,6,0,0,,,,,0,,,82,0
17148,note_on,0,0,0,,,,,0,,,83,80
17154,note_off,6,0,0,,,,,0,,,83,0
17154,note_on,0,0,0,,,,,0,,,82,80
17159,note_off,5,0,0,,,,,0,,,82,0
17160,note_on,1,0,0,,,,,0,,,83,80
17178,note_off,18,0,0,,,,,4,,,42,0
17181,note_off,3,0,0,,,,,0,,,83,0
17184,note_on,3,0,0,,,,,0,,,83,80
17184,note_on,0,0,0,,,,,1,,,59,96
17184,note_on,0,0,0,,,,,2,,,59,96
17184,note_on,0,0,0,,,,,3,,,59,96
17184,note_on,0,0,0,,,,,4,,,47,96
17226,note_off,42,0,0,,,,,0,,,83,0
17226,note_off,0,0,0,,,,,1,,,59,0
17226,note_off,0,0,0,,,,,2,,,59,0
17226,note_off,0,0,0,,,,,3,,,59,0
17226,note_off,0,0,0,,,,,4,,,47,0
17232,note_on,6,0,0,,,,,0,,,59,80
17232,note_on,0,0,0,,,,,1,,,59,96
17232,note_on,0,0,0,,,,,2,,,59,96
17232,note_on,0,0,0,,,,,3,,,59,96
17232,note_on,0,0,0,,,,,4,,,47,96
17274,note_off,42,0,0,,,,,0,,,59,0
17274,note_off,0,0,0,,,,,1,,,59,0
17274,note_off,0,0,0,,,,,2,,,59,0
17274,note_off,0,0,0,,,,,3,,,59,0
17274,note_off,0,0,0,,,,,4,,,47,0
17280,note_on,6,0,0,,,,,0,,,59,80
17280,note_on,0,0,0,,,,,1,,,59,96
17280,note_on,0,0,0,,,,,2,,,59,96
17280,note_on,0,0,0,,,,,3,,,59,96
17280,note_on,0,0,0,,,,,4,,,47,96
17332,note_off,52,0,0,,,,,0,,,59,0
17332,note_off,0,0,0,,,,,1,,,59,0
17332,note_off,0,0,0,,,,,2,,,59,0
17332,note_off,0,0,0,,,,,3,,,59,0
17332,note_off,0,0,0,,,,,4,,,47,0
17340,note_on,8,0,0,,,,,0,,,61,80
17340,note_on,0,0,0,,,,,1,,,61,96
17340,note_on,0,0,0,,,,,2,,,61,96
17340,note_on,0,0,0,,,,,3,,,61,96
17340,note_on,0,0,0,,,,,4,,,49,96
17350,note_off,10,0,0,,,,,0,,,61,0
17350,note_off,0,0,0,,,,,1,,,61,0
17350,note_off,0,0,0,,,,,2,,,61,0
17350,note_off,0,0,0,,,,,3,,,61,0
17350,note_off,0,0,0,,,,,4,,,49,0
17352,note_on,2,0,0,,,,,0,,,62,80
17352,note_on,0,0,0,,,,,1,,,62,96
17352,note_on,0,0,0,,,,,2,,,62,96
17352,note_on,0,0,0,,,,,3,,,62,96
17352,note_on,0,0,0,,,,,4,,,50,96
17362,note_off,10,0,0,,,,,0,,,62,0
17362,note_off,0,0,0,,,,,1,,,62,0
17362,note_off,0,0,0,,,,,2,,,62,0
17362,note_off,0,0,0,,,,,3,,,62,0
17362,note_off,0,0,0,,,,,4,,,50,0
17364,note_on,2,0,0,,,,,0,,,64,80
17364,note_on,0,0,0,,,,,1,,,64,96
17364,note_on,0,0,0,,,,,2,,,64,96
17364,note_on,0,0,0,,,,,3,,,64,96
17364,note_on,0,0,0,,,,,4,,,52,96
17374,note_off,10,0,0,,,,,0,,,64,0
17374,note_off,0,0,0,,,,,1,,,64,0
17374,note_off,0,0,0,,,,,2,,,64,0
17374,note_off,0,0,0,,,,,3,,,64,0
17374,note_off,0,0,0,,,,,4,,,52,0
17376,note_on,2,0,0,,,,,0,,,66,80
17376,note_on,0,0,0,,,,,1,,,66,96
17376,note_on,0,0,0,,,,,2,,,66,96
17376,note_on,0,0,0,,,,,3,,,66,96
17376,note_on,0,0,0,,,,,4,,,54,96
17397,note_off,21,0,0,,,,,0,,,66,0
17397,note_off,0,0,0,,,,,1,,,66,0
17397,note_off,0,0,0,,,,,2,,,66,0
17397,note_off,0,0,0,,,,,3,,,66,0
17397,note_off,0,0,0,,,,,4,,,54,0
17400,note_on,3,0,0,,,,,0,,,66,80
17400,note_on,0,0,0,,,,,1,,,66,96
17400,note_on,0,0,0,,,,,2,,,66,96
17400,note_on,0,0,0,,,,,3,,,66,96
17400,note_on,0,0,0,,,,,4,,,54,96
17421,note_off,21,0,0,,,,,0,,,66,0
17421,note_off,0,0,0,,,,,1,,,66,0
17421,note_off,0,0,0,,,,,2,,,66,0
17421,note_off,0,0,0,,,,,3,,,66,0
17421,note_off,0,0,0,,,,,4,,,54,0
17424,note_on,3,0,0,,,,,0,,,66,80
17424,note_on,0,0,0,,,,,1,,,66,96
17424,note_on,0,0,0,,,,,2,,,66,96
17424,note_on,0,0,0,,,,,3,,,66,96
17424,note_on,0,0,0,,,,,4,,,54,96
17434,note_off,10,0,0,,,,,0,,,66,0
17434,note_off,0,0,0,,,,,1,,,66,0
17434,note_off,0,0,0,,,,,2,,,66,0
17434,note_off,0,0,0,,,,,3,,,66,0
17434,note_off,0,0,0,,,,,4,,,54,0
17436,note_on,2,0,0,,,,,0,,,64,80
17436,note_on,0,0,0,,,,,1,,,64,96
17436,note_on,0,0,0,,,,,2,,,64,96
17436,note_on,0,0,0,,,,,3,,,64,96
17436,note_on,0,0,0,,,,,4,,,52,96
17446,note_off,10,0,0,,,,,0,,,64,0
17446,note_off,0,0,0,,,,,1,,,64,0
17446,note_off,0,0,0,,,,,2,,,64,0
17446,note_off,0,0,0,,,,,3,,,64,0
17446,note_off,0,0,0,,,,,4,,,52,0
17448,note_on,2,0,0,,,,,0,,,62,80
17448,note_on,0,0,0,,,,,1,,,62,96
17448,note_on,0,0,0,,,,,2,,,62,96
17448,note_on,0,0,0,,,,,3,,,62,96
17448,note_on,0,0,0,,,,,4,,,50,96
17458,note_off,10,0,0,,,,,0,,,62,0
17458,note_off,0,0,0,,,,,1,,,62,0
17458,note_off,0,0,0,,,,,2,,,62,0
17458,note_off,0,0,0,,,,,3,,,62,0
17458,note_off,0,0,0,,,,,4,,,50,0
17460,note_on,2,0,0,,,,,0,,,61,80
17460,note_on,0,0,0,,,,,1,,,61,96
17460,note_on,0,0,0,,,,,2,,,61,96
17460,note_on,0,0,0,,,,,3,,,61,96
17460,note_on,0,0,0,,,,,4,,,49,96
17470,note_off,10,0,0,,,,,0,,,61,0
17470,note_off,0,0,0,,,,,1,,,61,0
17470,note_off,0,0,0,,,,,2,,,61,0
17470,note_off,0,0,0,,,,,3,,,61,0
17470,note_off,0,0,0,,,,,4,,,49,0
17472,note_on,2,0,0,,,,,0,,,59,80
17472,note_on,0,0,0,,,,,1,,,59,96
17472,note_on,0,0,0,,,,,2,,,59,96
17472,note_on,0,0,0,,,,,3,,,59,96
17472,note_on,0,0,0,,,,,4,,,47,96
17493,note_off,21,0,0,,,,,0,,,59,0
17493,note_off,0,0,0,,,,,1,,,59,0
17493,note_off,0,0,0,,,,,2,,,59,0
17496,note_on,3,0,0,,,,,0,,,78,80
17496,note_on,0,0,0,,,,,1,,,78,96
17496,note_on,0,0,0,,,,,2,,,74,96
17506,note_off,10,0,0,,,,,0,,,78,0
17506,note_off,0,0,0,,,,,1,,,78,0
17506,note_off,0,0,0,,,,,2,,,74,0
17508,note_on,2,0,0,,,,,0,,,76,80
17508,note_on,0,0,0,,,,,1,,,76,96
17508,note_on,0,0,0,,,,,2,,,73,96
17514,note_off,6,0,0,,,,,3,,,59,0
17514,note_off,0,0,0,,,,,4,,,47,0
17518,note_off,4,0,0,,,,,0,,,76,0
17518,note_off,0,0,0,,,,,1,,,76,0
17518,note_off,0,0,0,,,,,2,,,73,0
17520,note_on,2,0,0,,,,,0,,,78,80
17520,note_on,0,0,0,,,,,1,,,78,96
17520,note_on,0,0,0,,,,,2,,,74,96
17541,note_off,21,0,0,,,,,0,,,78,0
17541,note_off,0,0,0,,,,,1,,,78,0
17541,note_off,0,0,0,,,,,2,,,74,0
17544,note_on,3,0,0,,,,,0,,,74,80
17544,note_on,0,0,0,,,,,1,,,74,96
17544,note_on,0,0,0,,,,,2,,,71,96
17565,note_off,21,0,0,,,,,0,,,74,0
17565,note_off,0,0,0,,,,,1,,,74,0
17565,note_off,0,0,0,,,,,2,,,71,0
17568,note_on,3,0,0,,,,,0,,,76,80
17568,note_on,0,0,0,,,,,1,,,76,96
17568,note_on,0,0,0,,,,,2,,,73,96
17589,note_off,21,0,0,,,,,0,,,76,0
17589,note_off,0,0,0,,,,,1,,,76,0
17589,note_off,0,0,0,,,,,2,,,73,0
17592,note_on,3,0,0,,,,,0,,,76,80
17592,note_on,0,0,0,,,,,1,,,76,96
17592,note_on,0,0,0,,,,,2,,,73,96
17602,note_off,10,0,0,,,,,0,,,76,0
17602,note_off,0,0,0,,,,,1,,,76,0
17602,note_off,0,0,0,,,,,2,,,73,0
17604,note_on,2,0,0,,,,,0,,,74,80
17604,note_on,0,0,0,,,,,1,,,74,96
17604,note_on,0,0,0,,,,,2,,,71,96
17614,note_off,10,0,0,,,,,0,,,74,0
17614,note_off,0,0,0,,,,,1,,,74,0
17614,note_off,0,0,0,,,,,2,,,71,0
17616,note_on,2,0,0,,,,,0,,,76,80
17616,note_on,0,0,0,,,,,1,,,76,96
17616,note_on,0,0,0,,,,,2,,,73,96
17637,note_off,21,0,0,,,,,0,,,76,0
17637,note_off,0,0,0,,,,,1,,,76,0
17637,note_off,0,0,0,,,,,2,,,73,0
17640,note_on,3,0,0,,,,,0,,,73,80
17640,note_on,0,0,0,,,,,1,,,73,96
17640,note_on,0,0,0,,,,,2,,,66,96
17661,note_off,21,0,0,,,,,0,,,73,0
17661,note_off,0,0,0,,,,,1,,,73,0
17661,note_off,0,0,0,,,,,2,,,66,0
17664,note_on,3,0,0,,,,,0,,,74,80
17664,note_on,0,0,0,,,,,1,,,74,96
17664,note_on,0,0,0,,,,,2,,,71,96
17664,note_on,0,0,0,,,,,3,,,74,96
17664,note_on,0,0,0,,,,,4,,,59,96
17706,note_off,42,0,0,,,,,0,,,74,0
17706,note_off,0,0,0,,,,,1,,,74,0
17706,note_off,0,0,0,,,,,2,,,71,0
17706,note_off,0,0,0,,,,,3,,,74,0
17706,note_off,0,0,0,,,,,4,,,59,0
17712,note_on,6,0,0,,,,,3,,,74,96
17712,note_on,0,0,0,,,,,4,,,59,96
17754,note_off,42,0,0,,,,,3,,,74,0
17754,note_off,0,0,0,,,,,4,,,59,0
17760,note_on,6,0,0,,,,,2,,,74,96
17760,note_on,0,0,0,,,,,3,,,74,96
17760,note_on,0,0,0,,,,,4,,,59,96
17812,note_off,52,0,0,,,,,3,,,74,0
17812,note_off,0,0,0,,,,,4,,,59,0
17820,note_on,8,0,0,,,,,3,,,73,96
17820,note_on,0,0,0,,,,,4,,,57,96
17830,note_off,10,0,0,,,,,3,,,73,0
17830,note_off,0,0,0,,,,,4,,,57,0
17832,note_on,2,0,0,,,,,3,,,71,96
17832,note_on,0,0,0,,,,,4,,,55,96
17842,note_off,10,0,0,,,,,3,,,71,0
17842,note_off,0,0,0,,,,,4,,,55,0
17844,note_on,2,0,0,,,,,3,,,69,96
17844,note_on,0,0,0,,,,,4,,,54,96
17854,note_off,10,0,0,,,,,3,,,69,0
17854,note_off,0,0,0,,,,,4,,,54,0
17856,note_on,2,0,0,,,,,0,,,79,80
17856,note_on,0,0,0,,,,,1,,,79,96
17856,note_on,0,0,0,,,,,3,,,67,96
17856,note_on,0,0,0,,,,,4,,,52,96
17865,note_off,9,0,0,,,,,2,,,74,0
17877,note_off,12,0,0,,,,,3,,,67,0
17877,note_off,0,0,0,,,,,4,,,52,0
17880,note_on,3,0,0,,,,,2,,,64,96
17880,note_on,0,0,0,,,,,3,,,67,96
17880,note_on,0,0,0,,,,,4,,,52,96
17901,note_off,21,0,0,,,,,2,,,64,0
17901,note_off,0,0,0,,,,,3,,,67,0
17901,note_off,0,0,0,,,,,4,,,52,0
17904,note_on,3,0,0,,,,,2,,,67,96
17904,note_on,0,0,0,,,,,3,,,67,96
17904,note_on,0,0,0,,,,,4,,,52,96
17914,note_off,10,0,0,,,,,3,,,67,0
17914,note_off,0,0,0,,,,,4,,,52,0
17916,note_on,2,0,0,,,,,3,,,67,96
17916,note_on,0,0,0,,,,,4,,,52,96
17925,note_off,9,0,0,,,,,2,,,67,0
17926,note_off,1,0,0,,,,,3,,,67,0
17926,note_off,0,0,0,,,,,4,,,52,0
17928,note_on,2,0,0,,,,,2,,,74,96
17928,note_on,0,0,0,,,,,3,,,69,96
17928,note_on,0,0,0,,,,,4,,,54,96
17938,note_off,10,0,0,,,,,3,,,69,0
17938,note_off,0,0,0,,,,,4,,,54,0
17940,note_on,2,0,0,,,,,3,,,71,96
17940,note_on,0,0,0,,,,,4,,,55,96
17949,note_off,9,0,0,,,,,2,,,74,0
17950,note_off,1,0,0,,,,,3,,,71,0
17950,note_off,0,0,0,,,,,4,,,55,0
17952,note_on,2,0,0,,,,,2,,,73,96
17952,note_on,0,0,0,,,,,3,,,73,96
17952,note_on,0,0,0,,,,,4,,,57,96
17994,note_off,42,0,0,,,,,3,,,73,0
17994,note_off,0,0,0,,,,,4,,,57,0
18000,note_on,6,0,0,,,,,3,,,73,96
18000,note_on,0,0,0,,,,,4,,,57,96
18042,note_off,42,0,0,,,,,3,,,73,0
18042,note_off,0,0,0,,,,,4,,,57,0
18045,note_off,3,0,0,,,,,0,,,79,0
18045,note_off,0,0,0,,,,,1,,,79,0
18048,note_on,3,0,0,,,,,3,,,73,96
18048,note_on,0,0,0,,,,,4,,,57,96
18072,note_on,24,0,0,,,,,0,,,69,80
18072,note_on,0,0,0,,,,,1,,,69,96
18093,note_off,21,0,0,,,,,0,,,69,0
18093,note_off,0,0,0,,,,,1,,,69,0
18096,note_on,3,0,0,,,,,0,,,73,80
18096,note_on,0,0,0,,,,,1,,,73,96
18100,note_off,4,0,0,,,,,3,,,73,0
18100,note_off,0,0,0,,,,,4,,,57,0
18108,note_on,8,0,0,,,,,3,,,71,96
18108,note_on,0,0,0,,,,,4,,,55,96
18117,note_off,9,0,0,,,,,0,,,73,0
18117,note_off,0,0,0,,,,,1,,,73,0
18118,note_off,1,0,0,,,,,3,,,71,0
18118,note_off,0,0,0,,,,,4,,,55,0
18120,note_on,2,0,0,,,,,0,,,76,80
18120,note_on,0,0,0,,,,,1,,,76,96
18120,note_on,0,0,0,,,,,3,,,69,96
18120,note_on,0,0,0,,,,,4,,,54,96
18130,note_off,10,0,0,,,,,3,,,69,0
18130,note_off,0,0,0,,,,,4,,,54,0
18132,note_on,2,0,0,,,,,3,,,67,96
18132,note_on,0,0,0,,,,,4,,,52,96
18141,note_off,9,0,0,,,,,0,,,76,0
18141,note_off,0,0,0,,,,,1,,,76,0
18141,note_off,0,0,0,,,,,2,,,73,0
18142,note_off,1,0,0,,,,,3,,,67,0
18142,note_off,0,0,0,,,,,4,,,52,0
18144,note_on,2,0,0,,,,,0,,,78,80
18144,note_on,0,0,0,,,,,1,,,78,96
18144,note_on,0,0,0,,,,,3,,,66,96
18144,note_on,0,0,0,,,,,4,,,50,96
18165,note_off,21,0,0,,,,,3,,,66,0
18165,note_off,0,0,0,,,,,4,,,50,0
18168,note_on,3,0,0,,,,,2,,,62,96
18168,note_on,0,0,0,,,,,3,,,66,96
18168,note_on,0,0,0,,,,,4,,,50,96
18189,note_off,21,0,0,,,,,2,,,62,0
18189,note_off,0,0,0,,,,,3,,,66,0
18189,note_off,0,0,0,,,,,4,,,50,0
18192,note_on,3,0,0,,,,,2,,,66,96
18192,note_on,0,0,0,,,,,3,,,66,96
18192,note_on,0,0,0,,,,,4,,,50,96
18202,note_off,10,0,0,,,,,3,,,66,0
18202,note_off,0,0,0,,,,,4,,,50,0
18204,note_on,2,0,0,,,,,3,,,66,96
18204,note_on,0,0,0,,,,,4,,,50,96
18213,note_off,9,0,0,,,,,2,,,66,0
18214,note_off,1,0,0,,,,,3,,,66,0
18214,note_off,0,0,0,,,,,4,,,50,0
18216,note_on,2,0,0,,,,,2,,,73,96
18216,note_on,0,0,0,,,,,3,,,67,96
18216,note_on,0,0,0,,,,,4,,,52,96
18226,note_off,10,0,0,,,,,3,,,67,0
18226,note_off,0,0,0,,,,,4,,,52,0
18228,note_on,2,0,0,,,,,3,,,69,96
18228,note_on,0,0,0,,,,,4,,,54,96
18237,note_off,9,0,0,,,,,2,,,73,0
18238,note_off,1,0,0,,,,,3,,,69,0
18238,note_off,0,0,0,,,,,4,,,54,0
18240,note_on,2,0,0,,,,,2,,,71,96
18240,note_on,0,0,0,,,,,3,,,71,96
18240,note_on,0,0,0,,,,,4,,,55,96
18282,note_off,42,0,0,,,,,3,,,71,0
18282,note_off,0,0,0,,,,,4,,,55,0
18288,note_on,6,0,0,,,,,3,,,71,96
18288,note_on,0,0,0,,,,,4,,,55,96
18330,note_off,42,0,0,,,,,3,,,71,0
18330,note_off,0,0,0,,,,,4,,,55,0
18333,note_off,3,0,0,,,,,0,,,78,0
18333,note_off,0,0,0,,,,,1,,,78,0
18336,note_on,3,0,0,,,,,3,,,71,96
18336,note_on,0,0,0,,,,,4,,,55,96
18360,note_on,24,0,0,,,,,0,,,67,80
18360,note_on,0,0,0,,,,,1,,,67,96
18381,note_off,21,0,0,,,,,0,,,67,0
18381,note_off,0,0,0,,,,,1,,,67,0
18384,note_on,3,0,0,,,,,0,,,71,80
18384,note_on,0,0,0,,,,,1,,,71,96
18388,note_off,4,0,0,,,,,3,,,71,0
18388,note_off,0,0,0,,,,,4,,,55,0
18396,note_on,8,0,0,,,,,3,,,69,96
18396,note_on,0,0,0,,,,,4,,,54,96
18405,note_off,9,0,0,,,,,0,,,71,0
18405,note_off,0,0,0,,,,,1,,,71,0
18406,note_off,1,0,0,,,,,3,,,69,0
18406,note_off,0,0,0,,,,,4,,,54,0
18408,note_on,2,0,0,,,,,0,,,74,80
18408,note_on,0,0,0,,,,,1,,,74,96
18408,note_on,0,0,0,,,,,3,,,67,96
18408,note_on,0,0,0,,,,,4,,,52,96
18418,note_off,10,0,0,,,,,3,,,67,0
18418,note_off,0,0,0,,,,,4,,,52,0
18420,note_on,2,0,0,,,,,3,,,66,96
18420,note_on,0,0,0,,,,,4,,,50,96
18429,note_off,9,0,0,,,,,0,,,74,0
18429,note_off,0,0,0,,,,,1,,,74,0
18429,note_off,0,0,0,,,,,2,,,71,0
18430,note_off,1,0,0,,,,,3,,,66,0
18430,note_off,0,0,0,,,,,4,,,50,0
18432,note_on,2,0,0,,,,,0,,,76,80
18432,note_on,0,0,0,,,,,1,,,76,96
18432,note_on,0,0,0,,,,,3,,,64,96
18432,note_on,0,0,0,,,,,4,,,49,96
18453,note_off,21,0,0,,,,,3,,,64,0
18453,note_off,0,0,0,,,,,4,,,49,0
18456,note_on,3,0,0,,,,,2,,,61,96
18456,note_on,0,0,0,,,,,3,,,64,96
18456,note_on,0,0,0,,,,,4,,,49,96
18477,note_off,21,0,0,,,,,2,,,61,0
18477,note_off,0,0,0,,,,,3,,,64,0
18477,note_off,0,0,0,,,,,4,,,49,0
18480,note_on,3,0,0,,,,,2,,,64,96
18480,note_on,0,0,0,,,,,3,,,64,96
18480,note_on,0,0,0,,,,,4,,,49,96
18490,note_off,10,0,0,,,,,3,,,64,0
18490,note_off,0,0,0,,,,,4,,,49,0
18492,note_on,2,0,0,,,,,3,,,64,96
18492,note_on,0,0,0,,,,,4,,,49,96
18501,note_off,9,0,0,,,,,2,,,64,0
18502,note_off,1,0,0,,,,,3,,,64,0
18502,note_off,0,0,0,,,,,4,,,49,0
18504,note_on,2,0,0,,,,,2,,,71,96
18504,note_on,0,0,0,,,,,3,,,66,96
18504,note_on,0,0,0,,,,,4,,,50,96
18514,note_off,10,0,0,,,,,3,,,66,0
18514,note_off,0,0,0,,,,,4,,,50,0
18516,note_on,2,0,0,,,,,3,,,67,96
18516,note_on,0,0,0,,,,,4,,,52,96
18525,note_off,9,0,0,,,,,2,,,71,0
18526,note_off,1,0,0,,,,,3,,,67,0
18526,note_off,0,0,0,,,,,4,,,52,0
18528,note_on,2,0,0,,,,,2,,,70,96
18528,note_on,0,0,0,,,,,3,,,61,96
18528,note_on,0,0,0,,,,,4,,,54,96
18570,note_off,42,0,0,,,,,3,,,61,0
18570,note_off,0,0,0,,,,,4,,,54,0
18576,note_on,6,0,0,,,,,3,,,61,96
18576,note_on,0,0,0,,,,,4,,,54,96
18618,note_off,42,0,0,,,,,3,,,61,0
18618,note_off,0,0,0,,,,,4,,,54,0
18621,note_off,3,0,0,,,,,0,,,76,0
18621,note_off,0,0,0,,,,,1,,,76,0
18624,note_on,3,0,0,,,,,3,,,61,96
18624,note_on,0,0,0,,,,,4,,,54,96
18648,note_on,24,0,0,,,,,0,,,66,80
18648,note_on,0,0,0,,,,,1,,,66,96
18666,note_off,18,0,0,,,,,3,,,61,0
18669,note_off,3,0,0,,,,,0,,,66,0
18669,note_off,0,0,0,,,,,1,,,66,0
18672,note_on,3,0,0,,,,,0,,,70,80
18672,note_on,0,0,0,,,,,1,,,70,96
18672,note_on,0,0,0,,,,,3,,,66,96
18676,note_off,4,0,0,,,,,4,,,54,0
18684,note_on,8,0,0,,,,,4,,,52,96
18693,note_off,9,0,0,,,,,0,,,70,0
18693,note_off,0,0,0,,,,,1,,,70,0
18694,note_off,1,0,0,,,,,4,,,52,0
18696,note_on,2,0,0,,,,,0,,,73,80
18696,note_on,0,0,0,,,,,1,,,73,96
18696,note_off,0,0,0,,,,,2,,,70,0
18696,note_on,0,0,0,,,,,4,,,50,96
18706,note_off,10,0,0,,,,,4,,,50,0
18708,note_on,2,0,0,,,,,4,,,49,96
18714,note_off,6,0,0,,,,,3,,,66,0
18717,note_off,3,0,0,,,,,0,,,73,0
18717,note_off,0,0,0,,,,,1,,,73,0
18718,note_off,1,0,0,,,,,4,,,49,0
18720,note_on,2,0,0,,,,,0,,,74,80
18720,note_on,0,0,0,,,,,1,,,74,96
18720,note_on,0,0,0,,,,,2,,,71,96
18720,note_on,0,0,0,,,,,3,,,66,96
18720,note_on,0,0,0,,,,,4,,,47,96
18762,note_off,42,0,0,,,,,0,,,74,0
18762,note_off,0,0,0,,,,,1,,,74,0
18762,note_off,0,0,0,,,,,2,,,71,0
18762,note_off,0,0,0,,,,,3,,,66,0
18762,note_off,0,0,0,,,,,4,,,47,0
18768,note_on,6,0,0,,,,,0,,,59,80
18768,note_on,0,0,0,,,,,1,,,59,96
18768,note_on,0,0,0,,,,,2,,,59,96
18768,note_on,0,0,0,,,,,3,,,59,96
18768,note_on,0,0,0,,,,,4,,,47,96
18810,note_off,42,0,0,,,,,0,,,59,0
18810,note_off,0,0,0,,,,,1,,,59,0
18810,note_off,0,0,0,,,,,2,,,59,0
18810,note_off,0,0,0,,,,,3,,,59,0
18810,note_off,0,0,0,,,,,4,,,47,0
18816,note_on,6,0,0,,,,,0,,,59,80
18816,note_on,0,0,0,,,,,1,,,59,96
18816,note_on,0,0,0,,,,,2,,,59,96
18816,note_on,0,0,0,,,,,3,,,59,96
18816,note_on,0,0,0,,,,,4,,,47,96
18868,note_off,52,0,0,,,,,0,,,59,0
18868,note_off,0,0,0,,,,,1,,,59,0
18868,note_off,0,0,0,,,,,2,,,59,0
18868,note_off,0,0,0,,,,,3,,,59,0
18868,note_off,0,0,0,,,,,4,,,47,0
18876,note_on,8,0,0,,,,,0,,,61,80
18876,note_on,0,0,0,,,,,1,,,61,96
18876,note_on,0,0,0,,,,,2,,,61,96
18876,note_on,0,0,0,,,,,3,,,61,96
18876,note_on,0,0,0,,,,,4,,,49,96
18886,note_off,10,0,0,,,,,0,,,61,0
18886,note_off,0,0,0,,,,,1,,,61,0
18886,note_off,0,0,0,,,,,2,,,61,0
18886,note_off,0,0,0,,,,,3,,,61,0
18886,note_off,0,0,0,,,,,4,,,49,0
18888,note_on,2,0,0,,,,,0,,,62,80
18888,note_on,0,0,0,,,,,1,,,62,96
18888,note_on,0,0,0,,,,,2,,,62,96
18888,note_on,0,0,0,,,,,3,,,62,96
18888,note_on,0,0,0,,,,,4,,,50,96
18898,note_off,10,0,0,,,,,0,,,62,0
18898,note_off,0,0,0,,,,,1,,,62,0
18898,note_off,0,0,0,,,,,2,,,62,0
18898,note_off,0,0,0,,,,,3,,,62,0
18898,note_off,0,0,0,,,,,4,,,50,0
18900,note_on,2,0,0,,,,,0,,,64,80
18900,note_on,0,0,0,,,,,1,,,64,96
18900,note_on,0,0,0,,,,,2,,,64,96
18900,note_on,0,0,0,,,,,3,,,64,96
18900,note_on,0,0,0,,,,,4,,,52,96
18910,note_off,10,0,0,,,,,0,,,64,0
18910,note_off,0,0,0,,,,,1,,,64,0
18910,note_off,0,0,0,,,,,2,,,64,0
18910,note_off,0,0,0,,,,,3,,,64,0
18910,note_off,0,0,0,,,,,4,,,52,0
18912,note_on,2,0,0,,,,,0,,,66,80
18912,note_on,0,0,0,,,,,1,,,66,96
18912,note_on,0,0,0,,,,,2,,,66,96
18912,note_on,0,0,0,,,,,3,,,66,96
18912,note_on,0,0,0,,,,,4,,,54,96
18933,note_off,21,0,0,,,,,0,,,66,0
18933,note_off,0,0,0,,,,,1,,,66,0
18933,note_off,0,0,0,,,,,2,,,66,0
18933,note_off,0,0,0,,,,,3,,,66,0
18933,note_off,0,0,0,,,,,4,,,54,0
18936,note_on,3,0,0,,,,,0,,,66,80
18936,note_on,0,0,0,,,,,1,,,66,96
18936,note_on,0,0,0,,,,,2,,,66,96
18936,note_on,0,0,0,,,,,3,,,66,96
18936,note_on,0,0,0,,,,,4,,,54,96
18957,note_off,21,0,0,,,,,0,,,66,0
18957,note_off,0,0,0,,,,,1,,,66,0
18957,note_off,0,0,0,,,,,2,,,66,0
18957,note_off,0,0,0,,,,,3,,,66,0
18957,note_off,0,0,0,,,,,4,,,54,0
18960,note_on,3,0,0,,,,,0,,,66,80
18960,note_on,0,0,0,,,,,1,,,66,96
18960,note_on,0,0,0,,,,,2,,,66,96
18960,note_on,0,0,0,,,,,3,,,66,96
18960,note_on,0,0,0,,,,,4,,,54,96
18970,note_off,10,0,0,,,,,0,,,66,0
18970,note_off,0,0,0,,,,,1,,,66,0
18970,note_off,0,0,0,,,,,2,,,66,0
18970,note_off,0,0,0,,,,,3,,,66,0
18970,note_off,0,0,0,,,,,4,,,54,0
18972,note_on,2,0,0,,,,,0,,,64,80
18972,note_on,0,0,0,,,,,1,,,64,96
18972,note_on,0,0,0,,,,,2,,,64,96
18972,note_on,0,0,0,,,,,3,,,64,96
18972,note_on,0,0,0,,,,,4,,,52,96
18982,note_off,10,0,0,,,,,0,,,64,0
18982,note_off,0,0,0,,,,,1,,,64,0
18982,note_off,0,0,0,,,,,2,,,64,0
18982,note_off,0,0,0,,,,,3,,,64,0
18982,note_off,0,0,0,,,,,4,,,52,0
18984,note_on,2,0,0,,,,,0,,,62,80
18984,note_on,0,0,0,,,,,1,,,62,96
18984,note_on,0,0,0,,,,,2,,,62,96
18984,note_on,0,0,0,,,,,3,,,62,96
18984,note_on,0,0,0,,,,,4,,,50,96
18994,note_off,10,0,0,,,,,0,,,62,0
18994,note_off,0,0,0,,,,,1,,,62,0
18994,note_off,0,0,0,,,,,2,,,62,0
18994,note_off,0,0,0,,,,,3,,,62,0
18994,note_off,0,0,0,,,,,4,,,50,0
18996,note_on,2,0,0,,,,,0,,,61,80
18996,note_on,0,0,0,,,,,1,,,61,96
18996,note_on,0,0,0,,,,,2,,,61,96
18996,note_on,0,0,0,,,,,3,,,61,96
18996,note_on,0,0,0,,,,,4,,,49,96
19006,note_off,10,0,0,,,,,0,,,61,0
19006,note_off,0,0,0,,,,,1,,,61,0
19006,note_off,0,0,0,,,,,2,,,61,0
19006,note_off,0,0,0,,,,,3,,,61,0
19006,note_off,0,0,0,,,,,4,,,49,0
19008,note_on,2,0,0,,,,,0,,,59,80
19008,note_on,0,0,0,,,,,1,,,59,96
19008,note_on,0,0,0,,,,,2,,,59,96
19008,note_on,0,0,0,,,,,3,,,59,96
19008,note_on,0,0,0,,,,,4,,,47,96
19018,note_off,10,0,0,,,,,0,,,59,0
19018,note_off,0,0,0,,,,,1,,,59,0
19018,note_off,0,0,0,,,,,2,,,59,0
19018,note_off,0,0,0,,,,,3,,,59,0
19018,note_off,0,0,0,,,,,4,,,47,0
19020,note_on,2,0,0,,,,,0,,,61,80
19020,note_on,0,0,0,,,,,1,,,61,96
19020,note_on,0,0,0,,,,,2,,,61,96
19020,note_on,0,0,0,,,,,3,,,61,96
19020,note_on,0,0,0,,,,,4,,,49,96
19030,note_off,10,0,0,,,,,0,,,61,0
19030,note_off,0,0,0,,,,,1,,,61,0
19030,note_off,0,0,0,,,,,2,,,61,0
19030,note_off,0,0,0,,,,,3,,,61,0
19030,note_off,0,0,0,,,,,4,,,49,0
19032,note_on,2,0,0,,,,,0,,,62,80
19032,note_on,0,0,0,,,,,1,,,62,96
19032,note_on,0,0,0,,,,,2,,,62,96
19032,note_on,0,0,0,,,,,3,,,62,96
19032,note_on,0,0,0,,,,,4,,,50,96
19042,note_off,10,0,0,,,,,0,,,62,0
19042,note_off,0,0,0,,,,,1,,,62,0
19042,note_off,0,0,0,,,,,2,,,62,0
19042,note_off,0,0,0,,,,,3,,,62,0
19042,note_off,0,0,0,,,,,4,,,50,0
19044,note_on,2,0,0,,,,,0,,,64,80
19044,note_on,0,0,0,,,,,1,,,64,96
19044,note_on,0,0,0,,,,,2,,,64,96
19044,note_on,0,0,0,,,,,3,,,64,96
19044,note_on,0,0,0,,,,,4,,,52,96
19054,note_off,10,0,0,,,,,0,,,64,0
19054,note_off,0,0,0,,,,,1,,,64,0
19054,note_off,0,0,0,,,,,2,,,64,0
19054,note_off,0,0,0,,,,,3,,,64,0
19054,note_off,0,0,0,,,,,4,,,52,0
19056,note_on,2,0,0,,,,,0,,,66,80
19056,note_on,0,0,0,,,,,1,,,66,96
19056,note_on,0,0,0,,,,,2,,,66,96
19056,note_on,0,0,0,,,,,3,,,66,96
19056,note_on,0,0,0,,,,,4,,,54,96
19077,note_off,21,0,0,,,,,0,,,66,0
19077,note_off,0,0,0,,,,,1,,,66,0
19077,note_off,0,0,0,,,,,2,,,66,0
19077,note_off,0,0,0,,,,,3,,,66,0
19077,note_off,0,0,0,,,,,4,,,54,0
19080,note_on,3,0,0,,,,,0,,,66,80
19080,note_on,0,0,0,,,,,1,,,66,96
19080,note_on,0,0,0,,,,,2,,,66,96
19080,note_on,0,0,0,,,,,3,,,54,96
19080,note_on,0,0,0,,,,,4,,,42,96
19101,note_off,21,0,0,,,,,0,,,66,0
19101,note_off,0,0,0,,,,,1,,,66,0
19101,note_off,0,0,0,,,,,2,,,66,0
19101,note_off,0,0,0,,,,,3,,,54,0
19101,note_off,0,0,0,,,,,4,,,42,0
19104,note_on,3,0,0,,,,,0,,,78,80
19104,note_on,0,0,0,,,,,1,,,59,96
19104,note_on,0,0,0,,,,,2,,,59,96
19104,note_on,0,0,0,,,,,3,,,59,96
19104,note_on,0,0,0,,,,,4,,,47,96
19110,note_off,6,0,0,,,,,0,,,78,0
19110,note_on,0,0,0,,,,,0,,,83,80
19116,note_off,6,0,0,,,,,0,,,83,0
19116,note_on,0,0,0,,,,,0,,,81,80
19122,note_off,6,0,0,,,,,0,,,81,0
19122,note_on,0,0,0,,,,,0,,,79,80
19128,note_off,6,0,0,,,,,0,,,79,0
19128,note_on,0,0,0,,,,,0,,,78,80
19138,note_off,10,0,0,,,,,0,,,78,0
19140,note_on,2,0,0,,,,,0,,,76,80
19146,note_off,6,0,0,,,,,1,,,59,0
19146,note_off,0,0,0,,,,,2,,,59,0
19146,note_off,0,0,0,,,,,3,,,59,0
19146,note_off,0,0,0,,,,,4,,,47,0
19150,note_off,4,0,0,,,,,0,,,76,0
19152,note_on,2,0,0,,,,,0,,,74,80
19152,note_on,0,0,0,,,,,4,,,47,96
19162,note_off,10,0,0,,,,,0,,,74,0
19164,note_on,2,0,0,,,,,0,,,73,80
19174,note_off,10,0,0,,,,,0,,,73,0
19176,note_on,2,0,0,,,,,0,,,71,80
19186,note_off,10,0,0,,,,,0,,,71,0
19188,note_on,2,0,0,,,,,0,,,78,80
19194,note_off,6,0,0,,,,,4,,,47,0
19198,note_off,4,0,0,,,,,0,,,78,0
19200,note_on,2,0,0,,,,,0,,,78,80
19200,note_on,0,0,0,,,,,4,,,50,96
19206,note_off,6,0,0,,,,,0,,,78,0
19206,note_on,0,0,0,,,,,0,,,83,80
19212,note_off,6,0,0,,,,,0,,,83,0
19212,note_on,0,0,0,,,,,0,,,81,80
19218,note_off,6,0,0,,,,,0,,,81,0
19218,note_on,0,0,0,,,,,0,,,79,80
19224,note_off,6,0,0,,,,,0,,,79,0
19224,note_on,0,0,0,,,,,0,,,78,80
19234,note_off,10,0,0,,,,,0,,,78,0
19236,note_on,2,0,0,,,,,0,,,76,80
19242,note_off,6,0,0,,,,,4,,,50,0
19246,note_off,4,0,0,,,,,0,,,76,0
19248,note_on,2,0,0,,,,,0,,,74,80
19248,note_on,0,0,0,,,,,4,,,47,96
19258,note_off,10,0,0,,,,,0,,,74,0
19260,note_on,2,0,0,,,,,0,,,73,80
19270,note_off,10,0,0,,,,,0,,,73,0
19272,note_on,2,0,0,,,,,0,,,71,80
19282,note_off,10,0,0,,,,,0,,,71,0
19284,note_on,2,0,0,,,,,0,,,78,80
19290,note_off,6,0,0,,,,,4,,,47,0
19294,note_off,4,0,0,,,,,0,,,78,0
19296,note_on,2,0,0,,,,,0,,,79,80
19296,note_on,0,0,0,,,,,4,,,50,96
19302,note_off,6,0,0,,,,,0,,,79,0
19302,note_on,0,0,0,,,,,0,,,83,80
19308,note_off,6,0,0,,,,,0,,,83,0
19308,note_on,0,0,0,,,,,0,,,81,80
19314,note_off,6,0,0,,,,,0,,,81,0
19314,note_on,0,0,0,,,,,0,,,79,80
19320,note_off,6,0,0,,,,,0,,,79,0
19320,note_on,0,0,0,,,,,0,,,78,80
19330,note_off,10,0,0,,,,,0,,,78,0
19332,note_on,2,0,0,,,,,0,,,76,80
19338,note_off,6,0,0,,,,,4,,,50,0
19342,note_off,4,0,0,,,,,0,,,76,0
19344,note_on,2,0,0,,,,,0,,,74,80
19344,note_on,0,0,0,,,,,4,,,47,96
19354,note_off,10,0,0,,,,,0,,,74,0
19356,note_on,2,0,0,,,,,0,,,73,80
19366,note_off,10,0,0,,,,,0,,,73,0
19368,note_on,2,0,0,,,,,0,,,71,80
19378,note_off,10,0,0,,,,,0,,,71,0
19380,note_on,2,0,0,,,,,0,,,78,80
19386,note_off,6,0,0,,,,,4,,,47,0
19390,note_off,4,0,0,,,,,0,,,78,0
19392,note_on,2,0,0,,,,,0,,,79,80
19392,note_on,0,0,0,,,,,4,,,52,96
19402,note_off,10,0,0,,,,,0,,,79,0
19404,note_on,2,0,0,,,,,0,,,83,80
19413,note_off,9,0,0,,,,,4,,,52,0
19414,note_off,1,0,0,,,,,0,,,83,0
19416,note_on,2,0,0,,,,,0,,,79,80
19416,note_on,0,0,0,,,,,4,,,54,96
19426,note_off,10,0,0,,,,,0,,,79,0
19428,note_on,2,0,0,,,,,0,,,76,80
19437,note_off,9,0,0,,,,,4,,,54,0
19438,note_off,1,0,0,,,,,0,,,76,0
19440,note_on,2,0,0,,,,,0,,,79,80
19440,note_on,0,0,0,,,,,4,,,55,96
19450,note_off,10,0,0,,,,,0,,,79,0
19452,note_on,2,0,0,,,,,0,,,83,80
19461,note_off,9,0,0,,,,,4,,,55,0
19462,note_off,1,0,0,,,,,0,,,83,0
19464,note_on,2,0,0,,,,,0,,,79,80
19464,note_on,0,0,0,,,,,4,,,54,96
19474,note_off,10,0,0,,,,,0,,,79,0
19476,note_on,2,0,0,,,,,0,,,76,80
19485,note_off,9,0,0,,,,,4,,,54,0
19486,note_off,1,0,0,,,,,0,,,76,0
19488,note_on,2,0,0,,,,,0,,,80,80
19488,note_on,0,0,0,,,,,4,,,53,96
19494,note_off,6,0,0,,,,,0,,,80,0
19494,note_on,0,0,0,,,,,0,,,85,80
19500,note_off,6,0,0,,,,,0,,,85,0
19500,note_on,0,0,0,,,,,0,,,83,80
19506,note_off,6,0,0,,,,,0,,,83,0
19506,note_on,0,0,0,,,,,0,,,81,80
19512,note_off,6,0,0,,,,,0,,,81,0
19512,note_on,0,0,0,,,,,0,,,80,80
19522,note_off,10,0,0,,,,,0,,,80,0
19524,note_on,2,0,0,,,,,0,,,78,80
19530,note_off,6,0,0,,,,,4,,,53,0
19534,note_off,4,0,0,,,,,0,,,78,0
19536,note_on,2,0,0,,,,,0,,,77,80
19536,note_on,0,0,0,,,,,4,,,49,96
19546,note_off,10,0,0,,,,,0,,,77,0
19548,note_on,2,0,0,,,,,0,,,75,80
19558,note_off,10,0,0,,,,,0,,,75,0
19560,note_on,2,0,0,,,,,0,,,73,80
19570,note_off,10,0,0,,,,,0,,,73,0
19572,note_on,2,0,0,,,,,0,,,80,80
19578,note_off,6,0,0,,,,,4,,,49,0
19582,note_off,4,0,0,,,,,0,,,80,0
19584,note_on,2,0,0,,,,,0,,,80,80
19584,note_on,0,0,0,,,,,4,,,53,96
19590,note_off,6,0,0,,,,,0,,,80,0
19590,note_on,0,0,0,,,,,0,,,85,80
19596,note_off,6,0,0,,,,,0,,,85,0
19596,note_on,0,0,0,,,,,0,,,83,80
19602,note_off,6,0,0,,,,,0,,,83,0
19602,note_on,0,0,0,,,,,0,,,81,80
19608,note_off,6,0,0,,,,,0,,,81,0
19608,note_on,0,0,0,,,,,0,,,80,80
19618,note_off,10,0,0,,,,,0,,,80,0
19620,note_on,2,0,0,,,,,0,,,78,80
19626,note_off,6,0,0,,,,,4,,,53,0
19630,note_off,4,0,0,,,,,0,,,78,0
19632,note_on,2,0,0,,,,,0,,,77,80
19632,note_on,0,0,0,,,,,4,,,49,96
19642,note_off,10,0,0,,,,,0,,,77,0
19644,note_on,2,0,0,,,,,0,,,75,80
19654,note_off,10,0,0,,,,,0,,,75,0
19656,note_on,2,0,0,,,,,0,,,73,80
19666,note_off,10,0,0,,,,,0,,,73,0
19668,note_on,2,0,0,,,,,0,,,80,80
19674,note_off,6,0,0,,,,,4,,,49,0
19678,note_off,4,0,0,,,,,0,,,80,0
19680,note_on,2,0,0,,,,,0,,,82,80
19680,note_on,0,0,0,,,,,4,,,54,96
19690,note_off,10,0,0,,,,,0,,,82,0
19692,note_on,2,0,0,,,,,0,,,85,80
19701,note_off,9,0,0,,,,,4,,,54,0
19702,note_off,1,0,0,,,,,0,,,85,0
19704,note_on,2,0,0,,,,,0,,,82,80
19704,note_on,0,0,0,,,,,4,,,56,96
19714,note_off,10,0,0,,,,,0,,,82,0
19716,note_on,2,0,0,,,,,0,,,78,80
19725,note_off,9,0,0,,,,,4,,,56,0
19726,note_off,1,0,0,,,,,0,,,78,0
19728,note_on,2,0,0,,,,,0,,,82,80
19728,note_on,0,0,0,,,,,4,,,58,96
19738,note_off,10,0,0,,,,,0,,,82,0
19740,note_on,2,0,0,,,,,0,,,85,80
19749,note_off,9,0,0,,,,,4,,,58,0
19750,note_off,1,0,0,,,,,0,,,85,0
19752,note_on,2,0,0,,,,,0,,,82,80
19752,note_on,0,0,0,,,,,4,,,56,96
19762,note_off,10,0,0,,,,,0,,,82,0
19764,note_on,2,0,0,,,,,0,,,78,80
19773,note_off,9,0,0,,,,,4,,,56,0
19774,note_off,1,0,0,,,,,0,,,78,0
19776,note_on,2,0,0,,,,,0,,,81,80
19776,note_on,0,0,0,,,,,4,,,54,96
19782,note_off,6,0,0,,,,,0,,,81,0
19782,note_on,0,0,0,,,,,0,,,86,80
19788,note_off,6,0,0,,,,,0,,,86,0
19788,note_on,0,0,0,,,,,0,,,85,80
19794,note_off,6,0,0,,,,,0,,,85,0
19794,note_on,0,0,0,,,,,0,,,83,80
19800,note_off,6,0,0,,,,,0,,,83,0
19800,note_on,0,0,0,,,,,0,,,81,80
19810,note_off,10,0,0,,,,,0,,,81,0
19812,note_on,2,0,0,,,,,0,,,79,80
19818,note_off,6,0,0,,,,,4,,,54,0
19822,note_off,4,0,0,,,,,0,,,79,0
19824,note_on,2,0,0,,,,,0,,,78,80
19824,note_on,0,0,0,,,,,4,,,50,96
19834,note_off,10,0,0,,,,,0,,,78,0
19836,note_on,2,0,0,,,,,0,,,76,80
19846,note_off,10,0,0,,,,,0,,,76,0
19848,note_on,2,0,0,,,,,0,,,74,80
19858,note_off,10,0,0,,,,,0,,,74,0
19860,note_on,2,0,0,,,,,0,,,81,80
19866,note_off,6,0,0,,,,,4,,,50,0
19870,note_off,4,0,0,,,,,0,,,81,0
19872,note_on,2,0,0,,,,,0,,,81,80
19872,note_on,0,0,0,,,,,4,,,54,96
19878,note_off,6,0,0,,,,,0,,,81,0
19878,note_on,0,0,0,,,,,0,,,86,80
19884,note_off,6,0,0,,,,,0,,,86,0
19884,note_on,0,0,0,,,,,0,,,85,80
19890,note_off,6,0,0,,,,,0,,,85,0
19890,note_on,0,0,0,,,,,0,,,83,80
19896,note_off,6,0,0,,,,,0,,,83,0
19896,note_on,0,0,0,,,,,0,,,81,80
19906,note_off,10,0,0,,,,,0,,,81,0
19908,note_on,2,0,0,,,,,0,,,79,80
19914,note_off,6,0,0,,,,,4,,,54,0
19918,note_off,4,0,0,,,,,0,,,79,0
19920,note_on,2,0,0,,,,,0,,,78,80
19920,note_on,0,0,0,,,,,4,,,50,96
19930,note_off,10,0,0,,,,,0,,,78,0
19932,note_on,2,0,0,,,,,0,,,76,80
19942,note_off,10,0,0,,,,,0,,,76,0
19944,note_on,2,0,0,,,,,0,,,74,80
19954,note_off,10,0,0,,,,,0,,,74,0
19956,note_on,2,0,0,,,,,0,,,81,80
19962,note_off,6,0,0,,,,,4,,,50,0
19966,note_off,4,0,0,,,,,0,,,81,0
19968,note_on,2,0,0,,,,,0,,,83,80
19968,note_on,0,0,0,,,,,4,,,55,96
19978,note_off,10,0,0,,,,,0,,,83,0
19980,note_on,2,0,0,,,,,0,,,86,80
19989,note_off,9,0,0,,,,,4,,,55,0
19990,note_off,1,0,0,,,,,0,,,86,0
19992,note_on,2,0,0,,,,,0,,,83,80
19992,note_on,0,0,0,,,,,4,,,57,96
20002,note_off,10,0,0,,,,,0,,,83,0
20004,note_on,2,0,0,,,,,0,,,79,80
20013,note_off,9,0,0,,,,,4,,,57,0
20014,note_off,1,0,0,,,,,0,,,79,0
20016,note_on,2,0,0,,,,,0,,,83,80
20016,note_on,0,0,0,,,,,4,,,59,96
20026,note_off,10,0,0,,,,,0,,,83,0
20028,note_on,2,0,0,,,,,0,,,86,80
20037,note_off,9,0,0,,,,,4,,,59,0
20038,note_off,1,0,0,,,,,0,,,86,0
20040,note_on,2,0,0,,,,,0,,,83,80
20040,note_on,0,0,0,,,,,4,,,57,96
20050,note_off,10,0,0,,,,,0,,,83,0
20052,note_on,2,0,0,,,,,0,,,79,80
20061,note_off,9,0,0,,,,,4,,,57,0
20062,note_off,1,0,0,,,,,0,,,79,0
20064,note_on,2,0,0,,,,,0,,,83,80
20064,note_on,0,0,0,,,,,4,,,56,96
20070,note_off,6,0,0,,,,,0,,,83,0
20070,note_on,0,0,0,,,,,0,,,88,80
20076,note_off,6,0,0,,,,,0,,,88,0
20076,note_on,0,0,0,,,,,0,,,86,80
20082,note_off,6,0,0,,,,,0,,,86,0
20082,note_on,0,0,0,,,,,0,,,85,80
20088,note_off,6,0,0,,,,,0,,,85,0
20088,note_on,0,0,0,,,,,0,,,83,80
20098,note_off,10,0,0,,,,,0,,,83,0
20100,note_on,2,0,0,,,,,0,,,81,80
20106,note_off,6,0,0,,,,,4,,,56,0
20110,note_off,4,0,0,,,,,0,,,81,0
20112,note_on,2,0,0,,,,,0,,,80,80
20112,note_on,0,0,0,,,,,4,,,52,96
20122,note_off,10,0,0,,,,,0,,,80,0
20124,note_on,2,0,0,,,,,0,,,78,80
20134,note_off,10,0,0,,,,,0,,,78,0
20136,note_on,2,0,0,,,,,0,,,76,80
20146,note_off,10,0,0,,,,,0,,,76,0
20148,note_on,2,0,0,,,,,0,,,83,80
20154,note_off,6,0,0,,,,,4,,,52,0
20158,note_off,4,0,0,,,,,0,,,83,0
20160,note_on,2,0,0,,,,,0,,,83,80
20160,note_on,0,0,0,,,,,4,,,56,96
20166,note_off,6,0,0,,,,,0,,,83,0
20166,note_on,0,0,0,,,,,0,,,88,80
20172,note_off,6,0,0,,,,,0,,,88,0
20172,note_on,0,0,0,,,,,0,,,86,80
20178,note_off,6,0,0,,,,,0,,,86,0
20178,note_on,0,0,0,,,,,0,,,85,80
20184,note_off,6,0,0,,,,,0,,,85,0
20184,note_on,0,0,0,,,,,0,,,83,80
20194,note_off,10,0,0,,,,,0,,,83,0
20196,note_on,2,0,0,,,,,0,,,81,80
20202,note_off,6,0,0,,,,,4,,,56,0
20206,note_off,4,0,0,,,,,0,,,81,0
20208,note_on,2,0,0,,,,,0,,,80,80
20208,note_on,0,0,0,,,,,4,,,52,96
20218,note_off,10,0,0,,,,,0,,,80,0
20220,note_on,2,0,0,,,,,0,,,78,80
20230,note_off,10,0,0,,,,,0,,,78,0
20232,note_on,2,0,0,,,,,0,,,76,80
20242,note_off,10,0,0,,,,,0,,,76,0
20244,note_on,2,0,0,,,,,0,,,83,80
20250,note_off,6,0,0,,,,,4,,,52,0
20254,note_off,4,0,0,,,,,0,,,83,0
20256,note_on,2,0,0,,,,,0,,,85,80
20256,note_on,0,0,0,,,,,4,,,57,96
20266,note_off,10,0,0,,,,,0,,,85,0
20268,note_on,2,0,0,,,,,0,,,88,80
20277,note_off,9,0,0,,,,,4,,,57,0
20278,note_off,1,0,0,,,,,0,,,88,0
20280,note_on,2,0,0,,,,,0,,,85,80
20280,note_on,0,0,0,,,,,4,,,59,96
20290,note_off,10,0,0,,,,,0,,,85,0
20292,note_on,2,0,0,,,,,0,,,81,80
20301,note_off,9,0,0,,,,,4,,,59,0
20302,note_off,1,0,0,,,,,0,,,81,0
20304,note_on,2,0,0,,,,,0,,,85,80
20304,note_on,0,0,0,,,,,4,,,61,96
20314,note_off,10,0,0,,,,,0,,,85,0
20316,note_on,2,0,0,,,,,0,,,88,80
20325,note_off,9,0,0,,,,,4,,,61,0
20326,note_off,1,0,0,,,,,0,,,88,0
20328,note_on,2,0,0,,,,,0,,,85,80
20328,note_on,0,0,0,,,,,4,,,59,96
20338,note_off,10,0,0,,,,,0,,,85,0
20340,note_on,2,0,0,,,,,0,,,81,80
20349,note_off,9,0,0,,,,,4,,,59,0
20350,note_off,1,0,0,,,,,0,,,81,0
20352,note_on,2,0,0,,,,,0,,,85,80
20352,note_on,0,0,0,,,,,4,,,58,96
20358,note_off,6,0,0,,,,,0,,,85,0
20358,note_on,0,0,0,,,,,0,,,90,80
20364,note_off,6,0,0,,,,,0,,,90,0
20364,note_on,0,0,0,,,,,0,,,88,80
20370,note_off,6,0,0,,,,,0,,,88,0
20370,note_on,0,0,0,,,,,0,,,86,80
20376,note_off,6,0,0,,,,,0,,,86,0
20376,note_on,0,0,0,,,,,0,,,85,80
20386,note_off,10,0,0,,,,,0,,,85,0
20388,note_on,2,0,0,,,,,0,,,83,80
20394,note_off,6,0,0,,,,,4,,,58,0
20398,note_off,4,0,0,,,,,0,,,83,0
20400,note_on,2,0,0,,,,,0,,,82,80
20400,note_on,0,0,0,,,,,4,,,54,96
20410,note_off,10,0,0,,,,,0,,,82,0
20412,note_on,2,0,0,,,,,0,,,80,80
20422,note_off,10,0,0,,,,,0,,,80,0
20424,note_on,2,0,0,,,,,0,,,78,80
20434,note_off,10,0,0,,,,,0,,,78,0
20436,note_on,2,0,0,,,,,0,,,85,80
20442,note_off,6,0,0,,,,,4,,,54,0
20446,note_off,4,0,0,,,,,0,,,85,0
20448,note_on,2,0,0,,,,,0,,,85,80
20448,note_on,0,0,0,,,,,4,,,58,96
20454,note_off,6,0,0,,,,,0,,,85,0
20454,note_on,0,0,0,,,,,0,,,90,80
20460,note_off,6,0,0,,,,,0,,,90,0
20460,note_on,0,0,0,,,,,0,,,88,80
20466,note_off,6,0,0,,,,,0,,,88,0
20466,note_on,0,0,0,,,,,0,,,86,80
20472,note_off,6,0,0,,,,,0,,,86,0
20472,note_on,0,0,0,,,,,0,,,85,80
20482,note_off,10,0,0,,,,,0,,,85,0
20484,note_on,2,0,0,,,,,0,,,83,80
20490,note_off,6,0,0,,,,,4,,,58,0
20494,note_off,4,0,0,,,,,0,,,83,0
20496,note_on,2,0,0,,,,,0,,,82,80
20496,note_on,0,0,0,,,,,4,,,54,96
20506,note_off,10,0,0,,,,,0,,,82,0
20508,note_on,2,0,0,,,,,0,,,80,80
20518,note_off,10,0,0,,,,,0,,,80,0
20520,note_on,2,0,0,,,,,0,,,78,80
20530,note_off,10,0,0,,,,,0,,,78,0
20532,note_on,2,0,0,,,,,0,,,85,80
20538,note_off,6,0,0,,,,,4,,,54,0
20542,note_off,4,0,0,,,,,0,,,85,0
20544,note_on,2,0,0,,,,,0,,,86,80
20544,note_on,0,0,0,,,,,4,,,59,96
20565,note_off,21,0,0,,,,,4,,,59,0
20568,note_on,3,0,0,,,,,4,,,61,96
20586,note_off,18,0,0,,,,,0,,,86,0
20589,note_off,3,0,0,,,,,4,,,61,0
20592,note_on,3,0,0,,,,,4,,,62,96
20613,note_off,21,0,0,,,,,4,,,62,0
20616,note_on,3,0,0,,,,,4,,,61,96
20637,note_off,21,0,0,,,,,4,,,61,0
20640,note_on,3,0,0,,,,,0,,,86,80
20640,note_on,0,0,0,,,,,4,,,59,96
20652,note_off,12,0,0,,,,,0,,,86,0
20652,note_on,0,0,0,,,,,0,,,90,80
20658,note_off,6,0,0,,,,,0,,,90,0
20658,note_on,0,0,0,,,,,0,,,88,80
20661,note_off,3,0,0,,,,,4,,,59,0
20664,note_off,3,0,0,,,,,0,,,88,0
20664,note_on,0,0,0,,,,,0,,,86,80
20664,note_on,0,0,0,,,,,4,,,47,96
20674,note_off,10,0,0,,,,,0,,,86,0
20676,note_on,2,0,0,,,,,0,,,83,80
20685,note_off,9,0,0,,,,,4,,,47,0
20686,note_off,1,0,0,,,,,0,,,83,0
20688,note_on,2,0,0,,,,,0,,,88,80
20694,note_off,6,0,0,,,,,0,,,88,0
20694,note_on,0,0,0,,,,,0,,,86,80
20700,note_off,6,0,0,,,,,0,,,86,0
20700,note_on,0,0,0,,,,,0,,,88,80
20706,note_off,6,0,0,,,,,0,,,88,0
20706,note_on,0,0,0,,,,,0,,,86,80
20712,note_off,6,0,0,,,,,0,,,86,0
20712,note_on,0,0,0,,,,,0,,,88,80
20712,note_on,0,0,0,,,,,4,,,59,96
20718,note_off,6,0,0,,,,,0,,,88,0
20718,note_on,0,0,0,,,,,0,,,86,80
20724,note_off,6,0,0,,,,,0,,,86,0
20724,note_on,0,0,0,,,,,0,,,88,80
20730,note_off,6,0,0,,,,,0,,,88,0
20730,note_on,0,0,0,,,,,0,,,86,80
20733,note_off,3,0,0,,,,,4,,,59,0
20735,note_off,2,0,0,,,,,0,,,86,0
20736,note_on,1,0,0,,,,,0,,,85,80
20736,note_on,0,0,0,,,,,4,,,57,96
20748,note_off,12,0,0,,,,,0,,,85,0
20748,note_on,0,0,0,,,,,0,,,88,80
20754,note_off,6,0,0,,,,,0,,,88,0
20754,note_on,0,0,0,,,,,0,,,86,80
20757,note_off,3,0,0,,,,,4,,,57,0
20760,note_off,3,0,0,,,,,0,,,86,0
20760,note_on,0,0,0,,,,,0,,,85,80
20760,note_on,0,0,0,,,,,4,,,45,96
20770,note_off,10,0,0,,,,,0,,,85,0
20772,note_on,2,0,0,,,,,0,,,81,80
20781,note_off,9,0,0,,,,,4,,,45,0
20782,note_off,1,0,0,,,,,0,,,81,0
20784,note_on,2,0,0,,,,,0,,,86,80
20790,note_off,6,0,0,,,,,0,,,86,0
20790,note_on,0,0,0,,,,,0,,,85,80
20796,note_off,6,0,0,,,,,0,,,85,0
20796,note_on,0,0,0,,,,,0,,,86,80
20802,note_off,6,0,0,,,,,0,,,86,0
20802,note_on,0,0,0,,,,,0,,,85,80
20808,note_off,6,0,0,,,,,0,,,85,0
20808,note_on,0,0,0,,,,,0,,,86,80
20808,note_on,0,0,0,,,,,4,,,57,96
20814,note_off,6,0,0,,,,,0,,,86,0
20814,note_on,0,0,0,,,,,0,,,85,80
20820,note_off,6,0,0,,,,,0,,,85,0
20820,note_on,0,0,0,,,,,0,,,86,80
20826,note_off,6,0,0,,,,,0,,,86,0
20826,note_on,0,0,0,,,,,0,,,85,80
20829,note_off,3,0,0,,,,,4,,,57,0
20831,note_off,2,0,0,,,,,0,,,85,0
20832,note_on,1,0,0,,,,,0,,,83,80
20832,note_on,0,0,0,,,,,4,,,55,96
20844,note_off,12,0,0,,,,,0,,,83,0
20844,note_on,0,0,0,,,,,0,,,86,80
20850,note_off,6,0,0,,,,,0,,,86,0
20850,note_on,0,0,0,,,,,0,,,85,80
20853,note_off,3,0,0,,,,,4,,,55,0
20856,note_off,3,0,0,,,,,0,,,85,0
20856,note_on,0,0,0,,,,,0,,,83,80
20856,note_on,0,0,0,,,,,4,,,43,96
20866,note_off,10,0,0,,,,,0,,,83,0
20868,note_on,2,0,0,,,,,0,,,79,80
20877,note_off,9,0,0,,,,,4,,,43,0
20878,note_off,1,0,0,,,,,0,,,79,0
20880,note_on,2,0,0,,,,,0,,,85,80
20886,note_off,6,0,0,,,,,0,,,85,0
20886,note_on,0,0,0,,,,,0,,,83,80
20892,note_off,6,0,0,,,,,0,,,83,0
20892,note_on,0,0,0,,,,,0,,,85,80
20898,note_off,6,0,0,,,,,0,,,85,0
20898,note_on,0,0,0,,,,,0,,,83,80
20904,note_off,6,0,0,,,,,0,,,83,0
20904,note_on,0,0,0,,,,,0,,,85,80
20904,note_on,0,0,0,,,,,4,,,55,96
20910,note_off,6,0,0,,,,,0,,,85,0
20910,note_on,0,0,0,,,,,0,,,83,80
20916,note_off,6,0,0,,,,,0,,,83,0
20916,note_on,0,0,0,,,,,0,,,85,80
20922,note_off,6,0,0,,,,,0,,,85,0
20922,note_on,0,0,0,,,,,0,,,83,80
20925,note_off,3,0,0,,,,,4,,,55,0
20927,note_off,2,0,0,,,,,0,,,83,0
20928,note_on,1,0,0,,,,,0,,,81,80
20928,note_on,0,0,0,,,,,4,,,54,96
20934,note_off,6,0,0,,,,,0,,,81,0
20934,note_on,0,0,0,,,,,0,,,81,80
20940,note_off,6,0,0,,,,,0,,,81,0
20940,note_on,0,0,0,,,,,0,,,83,80
20946,note_off,6,0,0,,,,,0,,,83,0
20946,note_on,0,0,0,,,,,0,,,85,80
20949,note_off,3,0,0,,,,,4,,,54,0
20952,note_off,3,0,0,,,,,0,,,85,0
20952,note_on,0,0,0,,,,,0,,,86,80
20952,note_on,0,0,0,,,,,4,,,42,96
20962,note_off,10,0,0,,,,,0,,,86,0
20964,note_on,2,0,0,,,,,0,,,81,80
20973,note_off,9,0,0,,,,,4,,,42,0
20974,note_off,1,0,0,,,,,0,,,81,0
20976,note_on,2,0,0,,,,,0,,,78,80
20986,note_off,10,0,0,,,,,0,,,78,0
20988,note_on,2,0,0,,,,,0,,,74,80
20998,note_off,10,0,0,,,,,0,,,74,0
21000,note_on,2,0,0,,,,,0,,,78,80
21000,note_on,0,0,0,,,,,4,,,50,96
21010,note_off,10,0,0,,,,,0,,,78,0
21012,note_on,2,0,0,,,,,0,,,81,80
21021,note_off,9,0,0,,,,,4,,,50,0
21022,note_off,1,0,0,,,,,0,,,81,0
21024,note_on,2,0,0,,,,,0,,,76,80
21024,note_on,0,0,0,,,,,4,,,57,96
21034,note_off,10,0,0,,,,,0,,,76,0
21036,note_on,2,0,0,,,,,0,,,69,80
21042,note_off,6,0,0,,,,,0,,,69,0
21042,note_on,0,0,0,,,,,0,,,71,80
21045,note_off,3,0,0,,,,,4,,,57,0
21048,note_off,3,0,0,,,,,0,,,71,0
21048,note_on,0,0,0,,,,,0,,,73,80
21048,note_on,0,0,0,,,,,4,,,45,96
21060,note_off,12,0,0,,,,,0,,,73,0
21060,note_on,0,0,0,,,,,0,,,74,80
21069,note_off,9,0,0,,,,,4,,,45,0
21072,note_off,3,0,0,,,,,0,,,74,0
21072,note_on,0,0,0,,,,,0,,,76,80
21082,note_off,10,0,0,,,,,0,,,76,0
21084,note_on,2,0,0,,,,,0,,,78,80
21094,note_off,10,0,0,,,,,0,,,78,0
21096,note_on,2,0,0,,,,,0,,,79,80
21096,note_on,0,0,0,,,,,4,,,61,96
21106,note_off,10,0,0,,,,,0,,,79,0
21108,note_on,2,0,0,,,,,0,,,76,80
21117,note_off,9,0,0,,,,,4,,,61,0
21118,note_off,1,0,0,,,,,0,,,76,0
21120,note_on,2,0,0,,,,,0,,,78,80
21120,note_on,0,0,0,,,,,4,,,62,96
21132,note_off,12,0,0,,,,,0,,,78,0
21132,note_on,0,0,0,,,,,0,,,81,80
21138,note_off,6,0,0,,,,,0,,,81,0
21138,note_on,0,0,0,,,,,0,,,79,80
21141,note_off,3,0,0,,,,,4,,,62,0
21144,note_off,3,0,0,,,,,0,,,79,0
21144,note_on,0,0,0,,,,,0,,,78,80
21144,note_on,0,0,0,,,,,4,,,50,96
21154,note_off,10,0,0,,,,,0,,,78,0
21156,note_on,2,0,0,,,,,0,,,74,80
21165,note_off,9,0,0,,,,,4,,,50,0
21166,note_off,1,0,0,,,,,0,,,74,0
21168,note_on,2,0,0,,,,,0,,,78,80
21178,note_off,10,0,0,,,,,0,,,78,0
21180,note_on,2,0,0,,,,,0,,,81,80
21190,note_off,10,0,0,,,,,0,,,81,0
21192,note_on,2,0,0,,,,,0,,,78,80
21192,note_on,0,0,0,,,,,4,,,50,96
21202,note_off,10,0,0,,,,,0,,,78,0
21204,note_on,2,0,0,,,,,0,,,74,80
21213,note_off,9,0,0,,,,,4,,,50,0
21214,note_off,1,0,0,,,,,0,,,74,0
21216,note_on,2,0,0,,,,,0,,,73,80
21216,note_on,0,0,0,,,,,4,,,57,96
21226,note_off,10,0,0,,,,,0,,,73,0
21228,note_on,2,0,0,,,,,0,,,69,80
21234,note_off,6,0,0,,,,,0,,,69,0
21234,note_on,0,0,0,,,,,0,,,71,80
21237,note_off,3,0,0,,,,,4,,,57,0
21240,note_off,3,0,0,,,,,0,,,71,0
21240,note_on,0,0,0,,,,,0,,,73,80
21240,note_on,0,0,0,,,,,4,,,45,96
21252,note_off,12,0,0,,,,,0,,,73,0
21252,note_on,0,0,0,,,,,0,,,74,80
21261,note_off,9,0,0,,,,,4,,,45,0
21264,note_off,3,0,0,,,,,0,,,74,0
21264,note_on,0,0,0,,,,,0,,,76,80
21274,note_off,10,0,0,,,,,0,,,76,0
21276,note_on,2,0,0,,,,,0,,,78,80
21286,note_off,10,0,0,,,,,0,,,78,0
21288,note_on,2,0,0,,,,,0,,,79,80
21288,note_on,0,0,0,,,,,4,,,60,96
21298,note_off,10,0,0,,,,,0,,,79,0
21300,note_on,2,0,0,,,,,0,,,76,80
21309,note_off,9,0,0,,,,,4,,,60,0
21310,note_off,1,0,0,,,,,0,,,76,0
21312,note_on,2,0,0,,,,,0,,,78,80
21312,note_on,0,0,0,,,,,4,,,62,96
21324,note_off,12,0,0,,,,,0,,,78,0
21324,note_on,0,0,0,,,,,0,,,81,80
21330,note_off,6,0,0,,,,,0,,,81,0
21330,note_on,0,0,0,,,,,0,,,79,80
21333,note_off,3,0,0,,,,,4,,,62,0
21336,note_off,3,0,0,,,,,0,,,79,0
21336,note_on,0,0,0,,,,,0,,,78,80
21336,note_on,0,0,0,,,,,4,,,50,96
21346,note_off,10,0,0,,,,,0,,,78,0
21348,note_on,2,0,0,,,,,0,,,74,80
21357,note_off,9,0,0,,,,,4,,,50,0
21358,note_off,1,0,0,,,,,0,,,74,0
21360,note_on,2,0,0,,,,,0,,,78,80
21370,note_off,10,0,0,,,,,0,,,78,0
21372,note_on,2,0,0,,,,,0,,,79,80
21382,note_off,10,0,0,,,,,0,,,79,0
21384,note_on,2,0,0,,,,,0,,,81,80
21384,note_on,0,0,0,,,,,4,,,50,96
21394,note_off,10,0,0,,,,,0,,,81,0
21396,note_on,2,0,0,,,,,0,,,78,80
21405,note_off,9,0,0,,,,,4,,,50,0
21406,note_off,1,0,0,,,,,0,,,78,0
21408,note_on,2,0,0,,,,,0,,,79,80
21408,note_on,0,0,0,,,,,4,,,57,96
21414,note_off,6,0,0,,,,,0,,,79,0
21414,note_on,0,0,0,,,,,0,,,78,80
21420,note_off,6,0,0,,,,,0,,,78,0
21420,note_on,0,0,0,,,,,0,,,79,80
21426,note_off,6,0,0,,,,,0,,,79,0
21426,note_on,0,0,0,,,,,0,,,78,80
21429,note_off,3,0,0,,,,,4,,,57,0
21432,note_off,3,0,0,,,,,0,,,78,0
21432,note_on,0,0,0,,,,,0,,,79,80
21432,note_on,0,0,0,,,,,4,,,55,96
21438,note_off,6,0,0,,,,,0,,,79,0
21438,note_on,0,0,0,,,,,0,,,78,80
21444,note_off,6,0,0,,,,,0,,,78,0
21444,note_on,0,0,0,,,,,0,,,79,80
21450,note_off,6,0,0,,,,,0,,,79,0
21450,note_on,0,0,0,,,,,0,,,78,80
21453,note_off,3,0,0,,,,,4,,,55,0
21455,note_off,2,0,0,,,,,0,,,78,0
21456,note_on,1,0,0,,,,,0,,,76,80
21456,note_on,0,0,0,,,,,4,,,57,96
21477,note_off,21,0,0,,,,,4,,,57,0
21480,note_on,3,0,0,,,,,4,,,45,96
21498,note_off,18,0,0,,,,,0,,,76,0
21501,note_off,3,0,0,,,,,4,,,45,0
21504,note_on,3,0,0,,,,,0,,,86,80
21504,note_on,0,0,0,,,,,1,,,74,80
21504,note_on,0,0,0,,,,,4,,,50,96
21514,note_off,10,0,0,,,,,0,,,86,0
21516,note_on,2,0,0,,,,,0,,,69,80
21516,note_on,0,0,0,,,,,0,,,62,80
21526,note_off,10,0,0,,,,,0,,,69,0
21526,note_off,0,0,0,,,,,0,,,62,0
21528,note_on,2,0,0,,,,,0,,,69,80
21528,note_on,0,0,0,,,,,0,,,62,80
21538,note_off,10,0,0,,,,,0,,,69,0
21538,note_off,0,0,0,,,,,0,,,62,0
21540,note_on,2,0,0,,,,,0,,,86,80
21546,note_off,6,0,0,,,,,1,,,74,0
21546,note_off,0,0,0,,,,,4,,,50,0
21550,note_off,4,0,0,,,,,0,,,86,0
21552,note_on,2,0,0,,,,,0,,,86,80
21552,note_on,0,0,0,,,,,1,,,74,80
21562,note_off,10,0,0,,,,,0,,,86,0
21564,note_on,2,0,0,,,,,0,,,69,80
21564,note_on,0,0,0,,,,,0,,,62,80
21574,note_off,10,0,0,,,,,0,,,69,0
21574,note_off,0,0,0,,,,,0,,,62,0
21576,note_on,2,0,0,,,,,0,,,69,80
21576,note_on,0,0,0,,,,,0,,,62,80
21586,note_off,10,0,0,,,,,0,,,69,0
21586,note_off,0,0,0,,,,,0,,,62,0
21588,note_on,2,0,0,,,,,0,,,86,80
21594,note_off,6,0,0,,,,,1,,,74,0
21598,note_off,4,0,0,,,,,0,,,86,0
21600,note_on,2,0,0,,,,,0,,,86,80
21600,note_on,0,0,0,,,,,1,,,74,80
21612,note_off,12,0,0,,,,,0,,,86,0
21612,note_on,0,0,0,,,,,0,,,69,80
21612,note_on,0,0,0,,,,,0,,,62,80
21622,note_off,10,0,0,,,,,0,,,69,0
21622,note_off,0,0,0,,,,,0,,,62,0
21624,note_on,2,0,0,,,,,0,,,86,80
21636,note_off,12,0,0,,,,,0,,,86,0
21636,note_on,0,0,0,,,,,0,,,69,80
21636,note_on,0,0,0,,,,,0,,,62,80
21646,note_off,10,0,0,,,,,0,,,69,0
21646,note_off,0,0,0,,,,,0,,,62,0
21648,note_on,2,0,0,,,,,0,,,86,80
21652,note_off,4,0,0,,,,,1,,,74,0
21660,note_off,8,0,0,,,,,0,,,86,0
21660,note_on,0,0,0,,,,,0,,,69,80
21660,note_on,0,0,0,,,,,0,,,62,80
21660,note_on,0,0,0,,,,,1,,,76,80
21670,note_off,10,0,0,,,,,0,,,69,0
21670,note_off,0,0,0,,,,,0,,,62,0
21670,note_off,0,0,0,,,,,1,,,76,0
21672,note_on,2,0,0,,,,,0,,,86,80
21672,note_on,0,0,0,,,,,1,,,78,80
21682,note_off,10,0,0,,,,,1,,,78,0
21684,note_off,2,0,0,,,,,0,,,86,0
21684,note_on,0,0,0,,,,,0,,,69,80
21684,note_on,0,0,0,,,,,0,,,62,80
21684,note_on,0,0,0,,,,,1,,,79,80
21694,note_off,10,0,0,,,,,0,,,69,0
21694,note_off,0,0,0,,,,,0,,,62,0
21694,note_off,0,0,0,,,,,1,,,79,0
21696,note_on,2,0,0,,,,,0,,,85,80
21696,note_on,0,0,0,,,,,1,,,81,80
21706,note_off,10,0,0,,,,,0,,,85,0
21708,note_on,2,0,0,,,,,0,,,69,80
21717,note_off,9,0,0,,,,,1,,,81,0
21718,note_off,1,0,0,,,,,0,,,69,0
21720,note_on,2,0,0,,,,,0,,,69,80
21720,note_on,0,0,0,,,,,1,,,81,80
21730,note_off,10,0,0,,,,,0,,,69,0
21732,note_on,2,0,0,,,,,0,,,85,80
21742,note_off,10,0,0,,,,,0,,,85,0
21744,note_on,2,0,0,,,,,0,,,85,80
21751,note_off,7,0,0,,,,,1,,,81,0
21754,note_off,3,0,0,,,,,0,,,85,0
21756,note_on,2,0,0,,,,,0,,,69,80
21756,note_on,0,0,0,,,,,1,,,79,80
21766,note_off,10,0,0,,,,,0,,,69,0
21766,note_off,0,0,0,,,,,1,,,79,0
21768,note_on,2,0,0,,,,,0,,,69,80
21768,note_on,0,0,0,,,,,1,,,78,80
21778,note_off,10,0,0,,,,,0,,,69,0
21778,note_off,0,0,0,,,,,1,,,78,0
21780,note_on,2,0,0,,,,,0,,,85,80
21780,note_on,0,0,0,,,,,1,,,76,80
21790,note_off,10,0,0,,,,,0,,,85,0
21790,note_off,0,0,0,,,,,1,,,76,0
21792,note_on,2,0,0,,,,,0,,,83,80
21792,note_on,0,0,0,,,,,1,,,74,80
21804,note_off,12,0,0,,,,,0,,,83,0
21804,note_on,0,0,0,,,,,0,,,69,80
21813,note_off,9,0,0,,,,,1,,,74,0
21814,note_off,1,0,0,,,,,0,,,69,0
21816,note_on,2,0,0,,,,,0,,,83,80
21816,note_on,0,0,0,,,,,1,,,74,80
21828,note_off,12,0,0,,,,,0,,,83,0
21828,note_on,0,0,0,,,,,0,,,69,80
21837,note_off,9,0,0,,,,,1,,,74,0
21838,note_off,1,0,0,,,,,0,,,69,0
21840,note_on,2,0,0,,,,,0,,,83,80
21840,note_on,0,0,0,,,,,1,,,74,80
21850,note_off,10,0,0,,,,,1,,,74,0
21852,note_off,2,0,0,,,,,0,,,83,0
21852,note_on,0,0,0,,,,,0,,,69,80
21852,note_on,0,0,0,,,,,1,,,76,80
21862,note_off,10,0,0,,,,,0,,,69,0
21862,note_off,0,0,0,,,,,1,,,76,0
21864,note_on,2,0,0,,,,,0,,,83,80
21864,note_on,0,0,0,,,,,1,,,78,80
21874,note_off,10,0,0,,,,,1,,,78,0
21876,note_off,2,0,0,,,,,0,,,83,0
21876,note_on,0,0,0,,,,,0,,,69,80
21876,note_on,0,0,0,,,,,1,,,79,80
21886,note_off,10,0,0,,,,,0,,,69,0
21886,note_off,0,0,0,,,,,1,,,79,0
21888,note_on,2,0,0,,,,,0,,,81,80
21888,note_on,0,0,0,,,,,1,,,81,80
21888,note_on,0,0,0,,,,,2,,,69,80
21898,note_off,10,0,0,,,,,0,,,81,0
21900,note_on,2,0,0,,,,,0,,,69,80
21910,note_off,10,0,0,,,,,0,,,69,0
21912,note_on,2,0,0,,,,,0,,,69,80
21922,note_off,10,0,0,,,,,0,,,69,0
21924,note_on,2,0,0,,,,,0,,,81,80
21930,note_off,6,0,0,,,,,2,,,69,0
21934,note_off,4,0,0,,,,,0,,,81,0
21936,note_on,2,0,0,,,,,0,,,81,80
21936,note_on,0,0,0,,,,,2,,,69,80
21946,note_off,10,0,0,,,,,0,,,81,0
21948,note_on,2,0,0,,,,,0,,,69,80
21958,note_off,10,0,0,,,,,0,,,69,0
21960,note_on,2,0,0,,,,,0,,,69,80
21970,note_off,10,0,0,,,,,0,,,69,0
21972,note_on,2,0,0,,,,,0,,,81,80
21978,note_off,6,0,0,,,,,2,,,69,0
21982,note_off,4,0,0,,,,,0,,,81,0
21984,note_on,2,0,0,,,,,0,,,81,80
21984,note_on,0,0,0,,,,,2,,,69,80
21996,note_off,12,0,0,,,,,0,,,81,0
21996,note_on,0,0,0,,,,,0,,,69,80
22006,note_off,10,0,0,,,,,0,,,69,0
22008,note_on,2,0,0,,,,,0,,,81,80
22020,note_off,12,0,0,,,,,0,,,81,0
22020,note_on,0,0,0,,,,,0,,,69,80
22030,note_off,10,0,0,,,,,0,,,69,0
22032,note_on,2,0,0,,,,,0,,,81,80
22036,note_off,4,0,0,,,,,2,,,69,0
22044,note_off,8,0,0,,,,,0,,,81,0
22044,note_on,0,0,0,,,,,0,,,69,80
22044,note_on,0,0,0,,,,,2,,,71,80
22054,note_off,10,0,0,,,,,0,,,69,0
22054,note_off,0,0,0,,,,,2,,,71,0
22056,note_on,2,0,0,,,,,0,,,81,80
22056,note_off,0,0,0,,,,,1,,,81,0
22056,note_on,0,0,0,,,,,2,,,73,80
22066,note_off,10,0,0,,,,,2,,,73,0
22068,note_off,2,0,0,,,,,0,,,81,0
22068,note_on,0,0,0,,,,,0,,,69,80
22068,note_on,0,0,0,,,,,2,,,74,80
22078,note_off,10,0,0,,,,,0,,,69,0
22078,note_off,0,0,0,,,,,2,,,74,0
22080,note_on,2,0,0,,,,,0,,,79,80
22080,note_on,0,0,0,,,,,1,,,79,80
22080,note_on,0,0,0,,,,,2,,,76,80
22090,note_off,10,0,0,,,,,0,,,79,0
22092,note_on,2,0,0,,,,,0,,,69,80
22101,note_off,9,0,0,,,,,2,,,76,0
22102,note_off,1,0,0,,,,,0,,,69,0
22104,note_on,2,0,0,,,,,0,,,69,80
22104,note_on,0,0,0,,,,,2,,,76,80
22114,note_off,10,0,0,,,,,0,,,69,0
22116,note_on,2,0,0,,,,,0,,,79,80
22125,note_off,9,0,0,,,,,2,,,76,0
22126,note_off,1,0,0,,,,,0,,,79,0
22128,note_on,2,0,0,,,,,0,,,79,80
22128,note_on,0,0,0,,,,,2,,,76,80
22138,note_off,10,0,0,,,,,0,,,79,0
22138,note_off,0,0,0,,,,,2,,,76,0
22140,note_on,2,0,0,,,,,0,,,69,80
22140,note_on,0,0,0,,,,,2,,,74,80
22150,note_off,10,0,0,,,,,0,,,69,0
22150,note_off,0,0,0,,,,,2,,,74,0
22152,note_on,2,0,0,,,,,0,,,69,80
22152,note_on,0,0,0,,,,,2,,,73,80
22162,note_off,10,0,0,,,,,0,,,69,0
22162,note_off,0,0,0,,,,,2,,,73,0
22164,note_on,2,0,0,,,,,0,,,79,80
22164,note_on,0,0,0,,,,,2,,,71,80
22174,note_off,10,0,0,,,,,0,,,79,0
22174,note_off,0,0,0,,,,,2,,,71,0
22176,note_on,2,0,0,,,,,0,,,79,80
22176,note_on,0,0,0,,,,,2,,,69,80
22188,note_off,12,0,0,,,,,0,,,79,0
22188,note_on,0,0,0,,,,,0,,,69,80
22197,note_off,9,0,0,,,,,2,,,69,0
22198,note_off,1,0,0,,,,,0,,,69,0
22200,note_on,2,0,0,,,,,0,,,79,80
22200,note_on,0,0,0,,,,,2,,,69,80
22212,note_off,12,0,0,,,,,0,,,79,0
22212,note_on,0,0,0,,,,,0,,,69,80
22221,note_off,9,0,0,,,,,2,,,69,0
22222,note_off,1,0,0,,,,,0,,,69,0
22224,note_on,2,0,0,,,,,0,,,79,80
22224,note_on,0,0,0,,,,,2,,,69,80
22234,note_off,10,0,0,,,,,2,,,69,0
22236,note_off,2,0,0,,,,,0,,,79,0
22236,note_on,0,0,0,,,,,0,,,69,80
22236,note_on,0,0,0,,,,,2,,,69,80
22246,note_off,10,0,0,,,,,0,,,69,0
22246,note_off,0,0,0,,,,,2,,,69,0
22248,note_on,2,0,0,,,,,0,,,79,80
22248,note_off,0,0,0,,,,,1,,,79,0
22248,note_on,0,0,0,,,,,2,,,71,80
22258,note_off,10,0,0,,,,,2,,,71,0
22260,note_off,2,0,0,,,,,0,,,79,0
22260,note_on,0,0,0,,,,,0,,,69,80
22260,note_on,0,0,0,,,,,2,,,73,80
22270,note_off,10,0,0,,,,,0,,,69,0
22270,note_off,0,0,0,,,,,2,,,73,0
22272,note_on,2,0,0,,,,,0,,,78,80
22272,note_on,0,0,0,,,,,1,,,78,80
22272,note_on,0,0,0,,,,,2,,,74,80
22272,note_on,0,0,0,,,,,3,,,62,80
22282,note_off,10,0,0,,,,,0,,,78,0
22284,note_on,2,0,0,,,,,0,,,69,80
22294,note_off,10,0,0,,,,,0,,,69,0
22296,note_on,2,0,0,,,,,0,,,69,80
22306,note_off,10,0,0,,,,,0,,,69,0
22308,note_on,2,0,0,,,,,0,,,78,80
22314,note_off,6,0,0,,,,,3,,,62,0
22318,note_off,4,0,0,,,,,0,,,78,0
22320,note_on,2,0,0,,,,,0,,,78,80
22320,note_on,0,0,0,,,,,3,,,62,80
22330,note_off,10,0,0,,,,,0,,,78,0
22332,note_on,2,0,0,,,,,0,,,69,80
22342,note_off,10,0,0,,,,,0,,,69,0
22344,note_on,2,0,0,,,,,0,,,69,80
22354,note_off,10,0,0,,,,,0,,,69,0
22356,note_on,2,0,0,,,,,0,,,78,80
22362,note_off,6,0,0,,,,,3,,,62,0
22366,note_off,4,0,0,,,,,0,,,78,0
22368,note_on,2,0,0,,,,,0,,,78,80
22368,note_on,0,0,0,,,,,3,,,62,80
22380,note_off,12,0,0,,,,,0,,,78,0
22380,note_on,0,0,0,,,,,0,,,69,80
22390,note_off,10,0,0,,,,,0,,,69,0
22392,note_on,2,0,0,,,,,0,,,78,80
22404,note_off,12,0,0,,,,,0,,,78,0
22404,note_on,0,0,0,,,,,0,,,69,80
22414,note_off,10,0,0,,,,,0,,,69,0
22416,note_on,2,0,0,,,,,0,,,78,80
22420,note_off,4,0,0,,,,,3,,,62,0
22428,note_off,8,0,0,,,,,0,,,78,0
22428,note_on,0,0,0,,,,,0,,,69,80
22428,note_on,0,0,0,,,,,3,,,64,80
22438,note_off,10,0,0,,,,,0,,,69,0
22438,note_off,0,0,0,,,,,3,,,64,0
22440,note_on,2,0,0,,,,,0,,,78,80
22440,note_off,0,0,0,,,,,1,,,78,0
22440,note_off,0,0,0,,,,,2,,,74,0
22440,note_on,0,0,0,,,,,3,,,66,80
22450,note_off,10,0,0,,,,,3,,,66,0
22452,note_off,2,0,0,,,,,0,,,78,0
22452,note_on,0,0,0,,,,,0,,,69,80
22452,note_on,0,0,0,,,,,3,,,67,80
22462,note_off,10,0,0,,,,,0,,,69,0
22462,note_off,0,0,0,,,,,3,,,67,0
22464,note_on,2,0,0,,,,,0,,,76,80
22464,note_on,0,0,0,,,,,1,,,76,80
22464,note_on,0,0,0,,,,,2,,,73,80
22464,note_on,0,0,0,,,,,3,,,69,80
22474,note_off,10,0,0,,,,,0,,,76,0
22476,note_on,2,0,0,,,,,0,,,69,80
22485,note_off,9,0,0,,,,,3,,,69,0
22486,note_off,1,0,0,,,,,0,,,69,0
22488,note_on,2,0,0,,,,,0,,,69,80
22488,note_on,0,0,0,,,,,3,,,69,80
22498,note_off,10,0,0,,,,,0,,,69,0
22500,note_on,2,0,0,,,,,0,,,76,80
22509,note_off,9,0,0,,,,,3,,,69,0
22510,note_off,1,0,0,,,,,0,,,76,0
22512,note_on,2,0,0,,,,,0,,,76,80
22512,note_on,0,0,0,,,,,3,,,69,80
22522,note_off,10,0,0,,,,,0,,,76,0
22522,note_off,0,0,0,,,,,3,,,69,0
22524,note_on,2,0,0,,,,,0,,,69,80
22524,note_on,0,0,0,,,,,3,,,67,80
22534,note_off,10,0,0,,,,,0,,,69,0
22534,note_off,0,0,0,,,,,3,,,67,0
22536,note_on,2,0,0,,,,,0,,,69,80
22536,note_on,0,0,0,,,,,3,,,66,80
22546,note_off,10,0,0,,,,,0,,,69,0
22546,note_off,0,0,0,,,,,3,,,66,0
22548,note_on,2,0,0,,,,,0,,,76,80
22548,note_off,0,0,0,,,,,1,,,76,0
22548,note_off,0,0,0,,,,,2,,,73,0
22548,note_on,0,0,0,,,,,3,,,64,80
22558,note_off,10,0,0,,,,,0,,,76,0
22558,note_off,0,0,0,,,,,3,,,64,0
22560,note_on,2,0,0,,,,,0,,,78,80
22560,note_on,0,0,0,,,,,1,,,78,80
22560,note_on,0,0,0,,,,,2,,,74,80
22560,note_on,0,0,0,,,,,3,,,62,80
22572,note_off,12,0,0,,,,,0,,,78,0
22572,note_on,0,0,0,,,,,0,,,69,80
22581,note_off,9,0,0,,,,,3,,,62,0
22582,note_off,1,0,0,,,,,0,,,69,0
22584,note_on,2,0,0,,,,,0,,,78,80
22584,note_on,0,0,0,,,,,3,,,62,80
22596,note_off,12,0,0,,,,,0,,,78,0
22596,note_on,0,0,0,,,,,0,,,69,80
22605,note_off,9,0,0,,,,,3,,,62,0
22606,note_off,1,0,0,,,,,0,,,69,0
22608,note_on,2,0,0,,,,,0,,,78,80
22608,note_on,0,0,0,,,,,3,,,62,80
22618,note_off,10,0,0,,,,,3,,,62,0
22620,note_off,2,0,0,,,,,0,,,78,0
22620,note_on,0,0,0,,,,,0,,,69,80
22620,note_on,0,0,0,,,,,3,,,64,80
22630,note_off,10,0,0,,,,,0,,,69,0
22630,note_off,0,0,0,,,,,3,,,64,0
22632,note_on,2,0,0,,,,,0,,,78,80
22632,note_on,0,0,0,,,,,3,,,66,80
22642,note_off,10,0,0,,,,,3,,,66,0
22644,note_off,2,0,0,,,,,0,,,78,0
22644,note_on,0,0,0,,,,,0,,,69,80
22644,note_off,0,0,0,,,,,1,,,78,0
22644,note_off,0,0,0,,,,,2,,,74,0
22644,note_on,0,0,0,,,,,3,,,67,80
22654,note_off,10,0,0,,,,,0,,,69,0
22654,note_off,0,0,0,,,,,3,,,67,0
22656,note_on,2,0,0,,,,,0,,,76,80
22656,note_on,0,0,0,,,,,1,,,76,80
22656,note_on,0,0,0,,,,,2,,,73,80
22656,note_on,0,0,0,,,,,3,,,69,80
22656,note_on,0,0,0,,,,,4,,,45,80
22666,note_off,10,0,0,,,,,0,,,76,0
22668,note_on,2,0,0,,,,,0,,,69,80
22678,note_off,10,0,0,,,,,0,,,69,0
22680,note_on,2,0,0,,,,,0,,,69,80
22690,note_off,10,0,0,,,,,0,,,69,0
22692,note_on,2,0,0,,,,,0,,,76,80
22698,note_off,6,0,0,,,,,1,,,76,0
22698,note_off,0,0,0,,,,,4,,,45,0
22702,note_off,4,0,0,,,,,0,,,76,0
22704,note_on,2,0,0,,,,,0,,,76,80
22704,note_on,0,0,0,,,,,1,,,76,80
22704,note_on,0,0,0,,,,,4,,,45,80
22714,note_off,10,0,0,,,,,0,,,76,0
22716,note_on,2,0,0,,,,,0,,,69,80
22726,note_off,10,0,0,,,,,0,,,69,0
22728,note_on,2,0,0,,,,,0,,,69,80
22738,note_off,10,0,0,,,,,0,,,69,0
22740,note_on,2,0,0,,,,,0,,,81,80
22746,note_off,6,0,0,,,,,1,,,76,0
22746,note_off,0,0,0,,,,,4,,,45,0
22750,note_off,4,0,0,,,,,0,,,81,0
22752,note_on,2,0,0,,,,,0,,,81,80
22752,note_on,0,0,0,,,,,1,,,76,80
22752,note_on,0,0,0,,,,,4,,,45,80
22764,note_off,12,0,0,,,,,0,,,81,0
22764,note_on,0,0,0,,,,,0,,,69,80
22774,note_off,10,0,0,,,,,0,,,69,0
22776,note_on,2,0,0,,,,,0,,,81,80
22788,note_off,12,0,0,,,,,0,,,81,0
22788,note_on,0,0,0,,,,,0,,,69,80
22798,note_off,10,0,0,,,,,0,,,69,0
22800,note_on,2,0,0,,,,,0,,,81,80
22804,note_off,4,0,0,,,,,1,,,76,0
22804,note_off,0,0,0,,,,,4,,,45,0
22812,note_off,8,0,0,,,,,0,,,81,0
22812,note_on,0,0,0,,,,,0,,,69,80
22812,note_on,0,0,0,,,,,1,,,74,80
22812,note_on,0,0,0,,,,,4,,,47,80
22822,note_off,10,0,0,,,,,0,,,69,0
22822,note_off,0,0,0,,,,,1,,,74,0
22822,note_off,0,0,0,,,,,4,,,47,0
22824,note_on,2,0,0,,,,,0,,,81,80
22824,note_on,0,0,0,,,,,1,,,76,80
22824,note_off,0,0,0,,,,,3,,,69,0
22824,note_on,0,0,0,,,,,4,,,49,80
22834,note_off,10,0,0,,,,,1,,,76,0
22834,note_off,0,0,0,,,,,4,,,49,0
22836,note_off,2,0,0,,,,,0,,,81,0
22836,note_on,0,0,0,,,,,0,,,69,80
22836,note_on,0,0,0,,,,,1,,,78,80
22836,note_on,0,0,0,,,,,4,,,50,80
22846,note_off,10,0,0,,,,,0,,,69,0
22846,note_off,0,0,0,,,,,1,,,78,0
22846,note_off,0,0,0,,,,,4,,,50,0
22848,note_on,2,0,0,,,,,0,,,79,80
22848,note_on,0,0,0,,,,,1,,,79,80
22848,note_on,0,0,0,,,,,3,,,64,80
22848,note_on,0,0,0,,,,,4,,,52,80
22858,note_off,10,0,0,,,,,0,,,79,0
22860,note_on,2,0,0,,,,,0,,,69,80
22869,note_off,9,0,0,,,,,1,,,79,0
22869,note_off,0,0,0,,,,,4,,,52,0
22870,note_off,1,0,0,,,,,0,,,69,0
22872,note_on,2,0,0,,,,,0,,,69,80
22872,note_on,0,0,0,,,,,1,,,79,80
22872,note_on,0,0,0,,,,,4,,,52,80
22882,note_off,10,0,0,,,,,0,,,69,0
22884,note_on,2,0,0,,,,,0,,,79,80
22893,note_off,9,0,0,,,,,1,,,79,0
22893,note_off,0,0,0,,,,,4,,,52,0
22894,note_off,1,0,0,,,,,0,,,79,0
22896,note_on,2,0,0,,,,,0,,,79,80
22896,note_on,0,0,0,,,,,1,,,79,80
22896,note_on,0,0,0,,,,,4,,,52,80
22906,note_off,10,0,0,,,,,0,,,79,0
22906,note_off,0,0,0,,,,,1,,,79,0
22906,note_off,0,0,0,,,,,4,,,52,0
22908,note_on,2,0,0,,,,,0,,,69,80
22908,note_on,0,0,0,,,,,1,,,78,80
22908,note_on,0,0,0,,,,,4,,,50,80
22918,note_off,10,0,0,,,,,0,,,69,0
22918,note_off,0,0,0,,,,,1,,,78,0
22918,note_off,0,0,0,,,,,4,,,50,0
22920,note_on,2,0,0,,,,,0,,,69,80
22920,note_on,0,0,0,,,,,1,,,76,80
22920,note_on,0,0,0,,,,,4,,,49,80
22930,note_off,10,0,0,,,,,0,,,69,0
22930,note_off,0,0,0,,,,,1,,,76,0
22930,note_off,0,0,0,,,,,4,,,49,0
22932,note_on,2,0,0,,,,,0,,,79,80
22932,note_on,0,0,0,,,,,1,,,74,80
22932,note_on,0,0,0,,,,,4,,,47,80
22942,note_off,10,0,0,,,,,0,,,79,0
22942,note_off,0,0,0,,,,,1,,,74,0
22942,note_off,0,0,0,,,,,4,,,47,0
22944,note_on,2,0,0,,,,,0,,,79,80
22944,note_on,0,0,0,,,,,1,,,76,80
22944,note_on,0,0,0,,,,,4,,,45,80
22956,note_off,12,0,0,,,,,0,,,79,0
22956,note_on,0,0,0,,,,,0,,,69,80
22965,note_off,9,0,0,,,,,1,,,76,0
22965,note_off,0,0,0,,,,,4,,,45,0
22966,note_off,1,0,0,,,,,0,,,69,0
22968,note_on,2,0,0,,,,,0,,,79,80
22968,note_on,0,0,0,,,,,1,,,76,80
22968,note_on,0,0,0,,,,,4,,,45,80
22980,note_off,12,0,0,,,,,0,,,79,0
22980,note_on,0,0,0,,,,,0,,,69,80
22989,note_off,9,0,0,,,,,1,,,76,0
22989,note_off,0,0,0,,,,,4,,,45,0
22990,note_off,1,0,0,,,,,0,,,69,0
22992,note_on,2,0,0,,,,,0,,,79,80
22992,note_on,0,0,0,,,,,1,,,76,80
22992,note_off,0,0,0,,,,,2,,,73,0
22992,note_on,0,0,0,,,,,4,,,45,80
23002,note_off,10,0,0,,,,,1,,,76,0
23002,note_off,0,0,0,,,,,4,,,45,0
23004,note_off,2,0,0,,,,,0,,,79,0
23004,note_on,0,0,0,,,,,0,,,69,80
23004,note_on,0,0,0,,,,,1,,,73,80
23004,note_on,0,0,0,,,,,4,,,45,80
23014,note_off,10,0,0,,,,,0,,,69,0
23014,note_off,0,0,0,,,,,1,,,73,0
23014,note_off,0,0,0,,,,,4,,,45,0
23016,note_on,2,0,0,,,,,0,,,79,80
23016,note_on,0,0,0,,,,,1,,,74,80
23016,note_off,0,0,0,,,,,3,,,64,0
23016,note_on,0,0,0,,,,,4,,,47,80
23026,note_off,10,0,0,,,,,1,,,74,0
23026,note_off,0,0,0,,,,,4,,,47,0
23028,note_off,2,0,0,,,,,0,,,79,0
23028,note_on,0,0,0,,,,,0,,,69,80
23028,note_on,0,0,0,,,,,1,,,76,80
23028,note_on,0,0,0,,,,,4,,,49,80
23038,note_off,10,0,0,,,,,0,,,69,0
23038,note_off,0,0,0,,,,,1,,,76,0
23038,note_off,0,0,0,,,,,4,,,49,0
23040,note_on,2,0,0,,,,,0,,,78,80
23040,note_on,0,0,0,,,,,0,,,69,80
23040,note_on,0,0,0,,,,,0,,,62,80
23040,note_on,0,0,0,,,,,1,,,69,80
23040,note_on,0,0,0,,,,,2,,,74,80
23040,note_on,0,0,0,,,,,3,,,66,80
23040,note_on,0,0,0,,,,,4,,,50,80
23082,note_off,42,0,0,,,,,0,,,78,0
23082,note_off,0,0,0,,,,,0,,,69,0
23082,note_off,0,0,0,,,,,0,,,62,0
23082,note_off,0,0,0,,,,,1,,,69,0
23082,note_off,0,0,0,,,,,2,,,74,0
23082,note_off,0,0,0,,,,,3,,,66,0
23082,note_off,0,0,0,,,,,4,,,50,0
23112,note_on,30,0,0,,,,,0,,,82,80
23112,note_on,0,0,0,,,,,1,,,74,80
23112,note_on,0,0,0,,,,,2,,,74,80
23133,note_off,21,0,0,,,,,0,,,82,0
23133,note_off,0,0,0,,,,,1,,,74,0
23133,note_off,0,0,0,,,,,2,,,74,0
23136,note_on,3,0,0,,,,,0,,,80,80
23136,note_on,0,0,0,,,,,1,,,74,80
23136,note_on,0,0,0,,,,,2,,,74,80
23157,note_off,21,0,0,,,,,0,,,80,0
23157,note_off,0,0,0,,,,,1,,,74,0
23157,note_off,0,0,0,,,,,2,,,74,0
23160,note_on,3,0,0,,,,,0,,,81,80
23160,note_on,0,0,0,,,,,1,,,72,80
23160,note_on,0,0,0,,,,,2,,,72,80
23181,note_off,21,0,0,,,,,1,,,72,0
23181,note_off,0,0,0,,,,,2,,,72,0
23202,note_off,21,0,0,,,,,0,,,81,0
23208,note_on,6,0,0,,,,,0,,,82,80
23208,note_on,0,0,0,,,,,1,,,67,80
23208,note_on,0,0,0,,,,,2,,,67,80
23229,note_off,21,0,0,,,,,0,,,82,0
23229,note_off,0,0,0,,,,,1,,,67,0
23229,note_off,0,0,0,,,,,2,,,67,0
23232,note_on,3,0,0,,,,,0,,,73,80
23232,note_on,0,0,0,,,,,1,,,67,80
23232,note_on,0,0,0,,,,,2,,,67,80
23253,note_off,21,0,0,,,,,1,,,67,0
23253,note_off,0,0,0,,,,,2,,,67,0
23256,note_off,3,0,0,,,,,0,,,73,0
23256,note_on,0,0,0,,,,,0,,,74,80
23256,note_on,0,0,0,,,,,1,,,65,80
23256,note_on,0,0,0,,,,,2,,,65,80
23277,note_off,21,0,0,,,,,1,,,65,0
23277,note_off,0,0,0,,,,,2,,,65,0
23280,note_off,3,0,0,,,,,0,,,74,0
23280,note_on,0,0,0,,,,,0,,,80,80
23304,note_off,24,0,0,,,,,0,,,80,0
23304,note_on,0,0,0,,,,,0,,,81,80
23304,note_on,0,0,0,,,,,1,,,72,80
23304,note_on,0,0,0,,,,,2,,,72,80
23325,note_off,21,0,0,,,,,0,,,81,0
23325,note_off,0,0,0,,,,,1,,,72,0
23325,note_off,0,0,0,,,,,2,,,72,0
23328,note_on,3,0,0,,,,,0,,,78,80
23328,note_on,0,0,0,,,,,1,,,72,80
23328,note_on,0,0,0,,,,,2,,,72,80
23349,note_off,21,0,0,,,,,1,,,72,0
23349,note_off,0,0,0,,,,,2,,,72,0
23352,note_off,3,0,0,,,,,0,,,78,0
23352,note_on,0,0,0,,,,,0,,,79,80
23352,note_on,0,0,0,,,,,1,,,70,80
23352,note_on,0,0,0,,,,,2,,,70,80
23373,note_off,21,0,0,,,,,1,,,70,0
23373,note_off,0,0,0,,,,,2,,,70,0
23400,note_off,27,0,0,,,,,0,,,79,0
23400,note_on,0,0,0,,,,,0,,,81,80
23400,note_on,0,0,0,,,,,1,,,65,80
23400,note_on,0,0,0,,,,,2,,,65,80
23421,note_off,21,0,0,,,,,0,,,81,0
23421,note_off,0,0,0,,,,,1,,,65,0
23421,note_off,0,0,0,,,,,2,,,65,0
23424,note_on,3,0,0,,,,,0,,,71,80
23424,note_on,0,0,0,,,,,1,,,65,80
23424,note_on,0,0,0,,,,,2,,,65,80
23445,note_off,21,0,0,,,,,1,,,65,0
23445,note_off,0,0,0,,,,,2,,,65,0
23448,note_off,3,0,0,,,,,0,,,71,0
23448,note_on,0,0,0,,,,,0,,,72,80
23448,note_on,0,0,0,,,,,1,,,64,80
23448,note_on,0,0,0,,,,,2,,,64,80
23469,note_off,21,0,0,,,,,1,,,64,0
23469,note_off,0,0,0,,,,,2,,,64,0
23472,note_off,3,0,0,,,,,0,,,72,0
23472,note_on,0,0,0,,,,,0,,,78,80
23496,note_off,24,0,0,,,,,0,,,78,0
23496,note_on,0,0,0,,,,,0,,,79,80
23496,note_on,0,0,0,,,,,1,,,70,80
23496,note_on,0,0,0,,,,,2,,,70,80
23517,note_off,21,0,0,,,,,0,,,79,0
23517,note_off,0,0,0,,,,,1,,,70,0
23517,note_off,0,0,0,,,,,2,,,70,0
23520,note_on,3,0,0,,,,,0,,,76,80
23520,note_on,0,0,0,,,,,1,,,70,80
23520,note_on,0,0,0,,,,,2,,,70,80
23541,note_off,21,0,0,,,,,1,,,70,0
23541,note_off,0,0,0,,,,,2,,,70,0
23544,note_off,3,0,0,,,,,0,,,76,0
23544,note_on,0,0,0,,,,,0,,,77,80
23544,note_on,0,0,0,,,,,1,,,69,80
23544,note_on,0,0,0,,,,,2,,,69,80
23565,note_off,21,0,0,,,,,1,,,69,0
23565,note_off,0,0,0,,,,,2,,,69,0
23592,note_off,27,0,0,,,,,0,,,77,0
23592,note_on,0,0,0,,,,,0,,,79,80
23592,note_on,0,0,0,,,,,1,,,63,80
23592,note_on,0,0,0,,,,,2,,,63,80
23613,note_off,21,0,0,,,,,0,,,79,0
23613,note_off,0,0,0,,,,,1,,,63,0
23613,note_off,0,0,0,,,,,2,,,63,0
23616,note_on,3,0,0,,,,,0,,,69,80
23616,note_on,0,0,0,,,,,1,,,63,80
23616,note_on,0,0,0,,,,,2,,,63,80
23637,note_off,21,0,0,,,,,1,,,63,0
23637,note_off,0,0,0,,,,,2,,,63,0
23640,note_off,3,0,0,,,,,0,,,69,0
23640,note_on,0,0,0,,,,,0,,,70,80
23640,note_on,0,0,0,,,,,1,,,62,80
23640,note_on,0,0,0,,,,,2,,,62,80
23661,note_off,21,0,0,,,,,1,,,62,0
23661,note_off,0,0,0,,,,,2,,,62,0
23664,note_off,3,0,0,,,,,0,,,70,0
23664,note_on,0,0,0,,,,,0,,,76,80
23688,note_off,24,0,0,,,,,0,,,76,0
23688,note_on,0,0,0,,,,,0,,,77,80
23688,note_on,0,0,0,,,,,1,,,69,80
23688,note_on,0,0,0,,,,,2,,,69,80
23709,note_off,21,0,0,,,,,0,,,77,0
23709,note_off,0,0,0,,,,,1,,,69,0
23709,note_off,0,0,0,,,,,2,,,69,0
23712,note_on,3,0,0,,,,,0,,,74,80
23712,note_on,0,0,0,,,,,1,,,69,80
23712,note_on,0,0,0,,,,,2,,,69,80
23733,note_off,21,0,0,,,,,1,,,69,0
23733,note_off,0,0,0,,,,,2,,,69,0
23736,note_off,3,0,0,,,,,0,,,74,0
23736,note_on,0,0,0,,,,,0,,,75,80
23736,note_on,0,0,0,,,,,1,,,67,80
23736,note_on,0,0,0,,,,,2,,,67,80
23757,note_off,21,0,0,,,,,1,,,67,0
23757,note_off,0,0,0,,,,,2,,,67,0
23760,note_off,3,0,0,,,,,0,,,75,0
23760,note_on,0,0,0,,,,,0,,,78,80
23784,note_off,24,0,0,,,,,0,,,78,0
23784,note_on,0,0,0,,,,,0,,,79,80
23784,note_on,0,0,0,,,,,1,,,67,80
23784,note_on,0,0,0,,,,,2,,,67,80
23805,note_off,21,0,0,,,,,0,,,79,0
23805,note_off,0,0,0,,,,,1,,,67,0
23805,note_off,0,0,0,,,,,2,,,67,0
23808,note_on,3,0,0,,,,,0,,,73,80
23808,note_on,0,0,0,,,,,1,,,67,80
23808,note_on,0,0,0,,,,,2,,,67,80
23829,note_off,21,0,0,,,,,1,,,67,0
23829,note_off,0,0,0,,,,,2,,,67,0
23832,note_off,3,0,0,,,,,0,,,73,0
23832,note_on,0,0,0,,,,,0,,,74,80
23832,note_on,0,0,0,,,,,1,,,65,80
23832,note_on,0,0,0,,,,,2,,,65,80
23853,note_off,21,0,0,,,,,1,,,65,0
23853,note_off,0,0,0,,,,,2,,,65,0
23856,note_off,3,0,0,,,,,0,,,74,0
23856,note_on,0,0,0,,,,,0,,,80,80
23880,note_off,24,0,0,,,,,0,,,80,0
23880,note_on,0,0,0,,,,,0,,,81,80
23880,note_on,0,0,0,,,,,1,,,62,80
23880,note_on,0,0,0,,,,,2,,,62,80
23901,note_off,21,0,0,,,,,0,,,81,0
23901,note_off,0,0,0,,,,,1,,,62,0
23901,note_off,0,0,0,,,,,2,,,62,0
23904,note_on,3,0,0,,,,,0,,,70,80
23904,note_on,0,0,0,,,,,1,,,57,80
23904,note_on,0,0,0,,,,,2,,,57,80
23946,note_off,42,0,0,,,,,1,,,57,0
23946,note_off,0,0,0,,,,,2,,,57,0
23952,note_off,6,0,0,,,,,0,,,70,0
23952,note_on,0,0,0,,,,,0,,,69,80
23973,note_off,21,0,0,,,,,0,,,69,0
23976,note_on,3,0,0,,,,,0,,,69,80
23997,note_off,21,0,0,,,,,0,,,69,0
24000,note_on,3,0,0,,,,,0,,,67,80
24000,note_on,0,0,0,,,,,1,,,57,80
24000,note_on,0,0,0,,,,,2,,,57,80
24016,note_off,16,0,0,,,,,0,,,67,0
24016,note_on,0,0,0,,,,,0,,,70,80
24032,note_off,16,0,0,,,,,0,,,70,0
24032,note_on,0,0,0,,,,,0,,,76,80
24042,note_off,10,0,0,,,,,1,,,57,0
24042,note_off,0,0,0,,,,,2,,,57,0
24046,note_off,4,0,0,,,,,0,,,76,0
24048,note_on,2,0,0,,,,,0,,,82,80
24064,note_off,16,0,0,,,,,0,,,82,0
24064,note_on,0,0,0,,,,,0,,,79,80
24080,note_off,16,0,0,,,,,0,,,79,0
24080,note_on,0,0,0,,,,,0,,,76,80
24094,note_off,14,0,0,,,,,0,,,76,0
24096,note_on,2,0,0,,,,,0,,,74,80
24096,note_on,0,0,0,,,,,1,,,57,80
24096,note_on,0,0,0,,,,,2,,,57,80
24138,note_off,42,0,0,,,,,1,,,57,0
24138,note_off,0,0,0,,,,,2,,,57,0
24144,note_off,6,0,0,,,,,0,,,74,0
24144,note_on,0,0,0,,,,,0,,,73,80
24165,note_off,21,0,0,,,,,0,,,73,0
24168,note_on,3,0,0,,,,,0,,,69,80
24189,note_off,21,0,0,,,,,0,,,69,0
24192,note_on,3,0,0,,,,,0,,,67,80
24192,note_on,0,0,0,,,,,1,,,57,80
24192,note_on,0,0,0,,,,,2,,,57,80
24208,note_off,16,0,0,,,,,0,,,67,0
24208,note_on,0,0,0,,,,,0,,,70,80
24224,note_off,16,0,0,,,,,0,,,70,0
24224,note_on,0,0,0,,,,,0,,,76,80
24234,note_off,10,0,0,,,,,1,,,57,0
24234,note_off,0,0,0,,,,,2,,,57,0
24238,note_off,4,0,0,,,,,0,,,76,0
24240,note_on,2,0,0,,,,,0,,,82,80
24256,note_off,16,0,0,,,,,0,,,82,0
24256,note_on,0,0,0,,,,,0,,,79,80
24272,note_off,16,0,0,,,,,0,,,79,0
24272,note_on,0,0,0,,,,,0,,,75,80
24286,note_off,14,0,0,,,,,0,,,75,0
24288,note_on,2,0,0,,,,,0,,,85,80
24288,note_on,0,0,0,,,,,1,,,57,80
24288,note_on,0,0,0,,,,,2,,,57,80
24330,note_off,42,0,0,,,,,1,,,57,0
24330,note_off,0,0,0,,,,,2,,,57,0
24352,note_off,22,0,0,,,,,0,,,85,0
24352,note_on,0,0,0,,,,,0,,,86,80
24368,note_off,16,0,0,,,,,0,,,86,0
24368,note_on,0,0,0,,,,,0,,,84,80
24382,note_off,14,0,0,,,,,0,,,84,0
24384,note_on,2,0,0,,,,,0,,,82,80
24400,note_off,16,0,0,,,,,0,,,82,0
24400,note_on,0,0,0,,,,,0,,,81,80
24416,note_off,16,0,0,,,,,0,,,81,0
24416,note_on,0,0,0,,,,,0,,,79,80
24432,note_off,16,0,0,,,,,0,,,79,0
24432,note_on,0,0,0,,,,,0,,,77,80
24448,note_off,16,0,0,,,,,0,,,77,0
24448,note_on,0,0,0,,,,,0,,,76,80
24464,note_off,16,0,0,,,,,0,,,76,0
24464,note_on,0,0,0,,,,,0,,,74,80
24478,note_off,14,0,0,,,,,0,,,74,0
24480,note_on,2,0,0,,,,,0,,,69,80
24480,note_on,0,0,0,,,,,1,,,57,80
24480,note_on,0,0,0,,,,,2,,,57,80
24496,note_off,16,0,0,,,,,0,,,69,0
24496,note_on,0,0,0,,,,,0,,,74,80
24512,note_off,16,0,0,,,,,0,,,74,0
24512,note_on,0,0,0,,,,,0,,,79,80
24522,note_off,10,0,0,,,,,1,,,57,0
24522,note_off,0,0,0,,,,,2,,,57,0
24528,note_off,6,0,0,,,,,0,,,79,0
24528,note_on,0,0,0,,,,,0,,,77,80
24544,note_off,16,0,0,,,,,0,,,77,0
24544,note_on,0,0,0,,,,,0,,,76,80
24560,note_off,16,0,0,,,,,0,,,76,0
24560,note_on,0,0,0,,,,,0,,,74,80
24574,note_off,14,0,0,,,,,0,,,74,0
24576,note_on,2,0,0,,,,,0,,,82,80
24592,note_off,16,0,0,,,,,0,,,82,0
24592,note_on,0,0,0,,,,,0,,,85,80
24608,note_off,16,0,0,,,,,0,,,85,0
24608,note_on,0,0,0,,,,,0,,,86,80
24624,note_off,16,0,0,,,,,0,,,86,0
24624,note_on,0,0,0,,,,,0,,,77,80
24624,note_on,0,0,0,,,,,1,,,62,80
24624,note_on,0,0,0,,,,,2,,,62,80
24640,note_off,16,0,0,,,,,0,,,77,0
24640,note_on,0,0,0,,,,,0,,,76,80
24656,note_off,16,0,0,,,,,0,,,76,0
24656,note_on,0,0,0,,,,,0,,,74,80
24666,note_off,10,0,0,,,,,1,,,62,0
24666,note_off,0,0,0,,,,,2,,,62,0
24670,note_off,4,0,0,,,,,0,,,74,0
24672,note_on,2,0,0,,,,,0,,,78,80
24672,note_on,0,0,0,,,,,1,,,69,80
24672,note_on,0,0,0,,,,,2,,,69,80
24714,note_off,42,0,0,,,,,1,,,69,0
24714,note_off,0,0,0,,,,,2,,,69,0
24720,note_on,6,0,0,,,,,1,,,57,80
24720,note_on,0,0,0,,,,,2,,,57,80
24732,note_off,12,0,0,,,,,0,,,78,0
24732,note_on,0,0,0,,,,,0,,,76,80
24744,note_off,12,0,0,,,,,0,,,76,0
24744,note_on,0,0,0,,,,,0,,,74,80
24756,note_off,12,0,0,,,,,0,,,74,0
24756,note_on,0,0,0,,,,,0,,,76,80
24762,note_off,6,0,0,,,,,1,,,57,0
24762,note_off,0,0,0,,,,,2,,,57,0
24766,note_off,4,0,0,,,,,0,,,76,0
24768,note_on,2,0,0,,,,,0,,,74,80
24768,note_on,0,0,0,,,,,1,,,62,80
24768,note_on,0,0,0,,,,,2,,,62,80
24810,note_off,42,0,0,,,,,1,,,62,0
24810,note_off,0,0,0,,,,,2,,,62,0
24832,note_off,22,0,0,,,,,0,,,74,0
24832,note_on,0,0,0,,,,,0,,,86,80
24848,note_off,16,0,0,,,,,0,,,86,0
24848,note_on,0,0,0,,,,,0,,,84,80
24862,note_off,14,0,0,,,,,0,,,84,0
24864,note_on,2,0,0,,,,,0,,,82,80
24880,note_off,16,0,0,,,,,0,,,82,0
24880,note_on,0,0,0,,,,,0,,,81,80
24896,note_off,16,0,0,,,,,0,,,81,0
24896,note_on,0,0,0,,,,,0,,,79,80
24912,note_off,16,0,0,,,,,0,,,79,0
24912,note_on,0,0,0,,,,,0,,,77,80
24928,note_off,16,0,0,,,,,0,,,77,0
24928,note_on,0,0,0,,,,,0,,,76,80
24944,note_off,16,0,0,,,,,0,,,76,0
24944,note_on,0,0,0,,,,,0,,,74,80
24958,note_off,14,0,0,,,,,0,,,74,0
24960,note_on,2,0,0,,,,,0,,,69,80
24960,note_on,0,0,0,,,,,1,,,57,80
24960,note_on,0,0,0,,,,,2,,,57,80
24976,note_off,16,0,0,,,,,0,,,69,0
24976,note_on,0,0,0,,,,,0,,,74,80
24992,note_off,16,0,0,,,,,0,,,74,0
24992,note_on,0,0,0,,,,,0,,,79,80
25002,note_off,10,0,0,,,,,1,,,57,0
25002,note_off,0,0,0,,,,,2,,,57,0
25008,note_off,6,0,0,,,,,0,,,79,0
25008,note_on,0,0,0,,,,,0,,,77,80
25024,note_off,16,0,0,,,,,0,,,77,0
25024,note_on,0,0,0,,,,,0,,,76,80
25040,note_off,16,0,0,,,,,0,,,76,0
25040,note_on,0,0,0,,,,,0,,,74,80
25054,note_off,14,0,0,,,,,0,,,74,0
25056,note_on,2,0,0,,,,,0,,,83,80
25072,note_off,16,0,0,,,,,0,,,83,0
25072,note_on,0,0,0,,,,,0,,,85,80
25088,note_off,16,0,0,,,,,0,,,85,0
25088,note_on,0,0,0,,,,,0,,,86,80
25104,note_off,16,0,0,,,,,0,,,86,0
25104,note_on,0,0,0,,,,,0,,,77,80
25104,note_on,0,0,0,,,,,1,,,62,80
25104,note_on,0,0,0,,,,,2,,,62,80
25120,note_off,16,0,0,,,,,0,,,77,0
25120,note_on,0,0,0,,,,,0,,,76,80
25136,note_off,16,0,0,,,,,0,,,76,0
25136,note_on,0,0,0,,,,,0,,,74,80
25146,note_off,10,0,0,,,,,1,,,62,0
25146,note_off,0,0,0,,,,,2,,,62,0
25150,note_off,4,0,0,,,,,0,,,74,0
25152,note_on,2,0,0,,,,,0,,,69,80
25152,note_on,0,0,0,,,,,1,,,69,80
25152,note_on,0,0,0,,,,,2,,,69,80
25194,note_off,42,0,0,,,,,0,,,69,0
25194,note_off,0,0,0,,,,,1,,,69,0
25194,note_off,0,0,0,,,,,2,,,69,0
25200,note_on,6,0,0,,,,,0,,,78,80
25200,note_on,0,0,0,,,,,1,,,57,80
25200,note_on,0,0,0,,,,,2,,,57,80
25206,note_off,6,0,0,,,,,0,,,78,0
25206,note_on,0,0,0,,,,,0,,,76,80
25212,note_off,6,0,0,,,,,0,,,76,0
25212,note_on,0,0,0,,,,,0,,,78,80
25218,note_off,6,0,0,,,,,0,,,78,0
25218,note_on,0,0,0,,,,,0,,,76,80
25224,note_off,6,0,0,,,,,0,,,76,0
25224,note_on,0,0,0,,,,,0,,,78,80
25230,note_off,6,0,0,,,,,0,,,78,0
25230,note_on,0,0,0,,,,,0,,,76,80
25236,note_off,6,0,0,,,,,0,,,76,0
25236,note_on,0,0,0,,,,,0,,,78,80
25242,note_off,6,0,0,,,,,0,,,78,0
25242,note_on,0,0,0,,,,,0,,,76,80
25242,note_off,0,0,0,,,,,1,,,57,0
25242,note_off,0,0,0,,,,,2,,,57,0
25247,note_off,5,0,0,,,,,0,,,76,0
25248,note_on,1,0,0,,,,,0,,,78,96
25248,note_on,0,0,0,,,,,1,,,78,96
25248,note_on,0,0,0,,,,,2,,,74,96
25248,note_on,0,0,0,,,,,3,,,66,96
25248,note_on,0,0,0,,,,,4,,,50,96
25269,note_off,21,0,0,,,,,3,,,66,0
25269,note_off,0,0,0,,,,,4,,,50,0
25272,note_on,3,0,0,,,,,3,,,69,96
25272,note_on,0,0,0,,,,,4,,,62,96
25290,note_off,18,0,0,,,,,0,,,78,0
25290,note_off,0,0,0,,,,,1,,,78,0
25290,note_off,0,0,0,,,,,2,,,74,0
25293,note_off,3,0,0,,,,,3,,,69,0
25293,note_off,0,0,0,,,,,4,,,62,0
25296,note_on,3,0,0,,,,,0,,,78,96
25296,note_on,0,0,0,,,,,1,,,78,96
25296,note_on,0,0,0,,,,,2,,,74,96
25296,note_on,0,0,0,,,,,3,,,66,96
25296,note_on,0,0,0,,,,,4,,,57,96
25317,note_off,21,0,0,,,,,3,,,66,0
25317,note_off,0,0,0,,,,,4,,,57,0
25320,note_on,3,0,0,,,,,3,,,62,96
25320,note_on,0,0,0,,,,,4,,,54,96
25338,note_off,18,0,0,,,,,0,,,78,0
25338,note_off,0,0,0,,,,,1,,,78,0
25338,note_off,0,0,0,,,,,2,,,74,0
25341,note_off,3,0,0,,,,,3,,,62,0
25341,note_off,0,0,0,,,,,4,,,54,0
25344,note_on,3,0,0,,,,,0,,,78,96
25344,note_on,0,0,0,,,,,1,,,78,96
25344,note_on,0,0,0,,,,,2,,,74,96
25344,note_on,0,0,0,,,,,3,,,57,96
25344,note_on,0,0,0,,,,,4,,,50,96
25365,note_off,21,0,0,,,,,3,,,57,0
25365,note_off,0,0,0,,,,,4,,,50,0
25368,note_on,3,0,0,,,,,3,,,69,96
25368,note_on,0,0,0,,,,,4,,,62,96
25389,note_off,21,0,0,,,,,3,,,69,0
25389,note_off,0,0,0,,,,,4,,,62,0
25392,note_on,3,0,0,,,,,3,,,66,96
25392,note_on,0,0,0,,,,,4,,,57,96
25396,note_off,4,0,0,,,,,0,,,78,0
25396,note_off,0,0,0,,,,,1,,,78,0
25396,note_off,0,0,0,,,,,2,,,74,0
25404,note_on,8,0,0,,,,,0,,,76,96
25404,note_on,0,0,0,,,,,1,,,76,96
25404,note_on,0,0,0,,,,,2,,,73,96
25413,note_off,9,0,0,,,,,3,,,66,0
25413,note_off,0,0,0,,,,,4,,,57,0
25414,note_off,1,0,0,,,,,0,,,76,0
25414,note_off,0,0,0,,,,,1,,,76,0
25414,note_off,0,0,0,,,,,2,,,73,0
25416,note_on,2,0,0,,,,,0,,,78,96
25416,note_on,0,0,0,,,,,1,,,78,96
25416,note_on,0,0,0,,,,,2,,,74,96
25416,note_on,0,0,0,,,,,3,,,62,96
25416,note_on,0,0,0,,,,,4,,,54,96
25426,note_off,10,0,0,,,,,0,,,78,0
25426,note_off,0,0,0,,,,,1,,,78,0
25426,note_off,0,0,0,,,,,2,,,74,0
25428,note_on,2,0,0,,,,,0,,,79,96
25428,note_on,0,0,0,,,,,1,,,79,96
25428,note_on,0,0,0,,,,,2,,,76,96
25437,note_off,9,0,0,,,,,3,,,62,0
25437,note_off,0,0,0,,,,,4,,,54,0
25438,note_off,1,0,0,,,,,0,,,79,0
25438,note_off,0,0,0,,,,,1,,,79,0
25438,note_off,0,0,0,,,,,2,,,76,0
25440,note_on,2,0,0,,,,,0,,,81,96
25440,note_on,0,0,0,,,,,1,,,81,96
25440,note_on,0,0,0,,,,,2,,,78,96
25440,note_on,0,0,0,,,,,3,,,57,96
25440,note_on,0,0,0,,,,,4,,,50,96
25461,note_off,21,0,0,,,,,0,,,81,0
25461,note_off,0,0,0,,,,,1,,,81,0
25461,note_off,0,0,0,,,,,2,,,78,0
25464,note_on,3,0,0,,,,,0,,,81,96
25464,note_on,0,0,0,,,,,1,,,81,96
25464,note_on,0,0,0,,,,,2,,,78,96
25482,note_off,18,0,0,,,,,3,,,57,0
25482,note_off,0,0,0,,,,,4,,,50,0
25485,note_off,3,0,0,,,,,0,,,81,0
25485,note_off,0,0,0,,,,,1,,,81,0
25485,note_off,0,0,0,,,,,2,,,78,0
25488,note_on,3,0,0,,,,,0,,,81,96
25488,note_on,0,0,0,,,,,1,,,81,96
25488,note_on,0,0,0,,,,,2,,,78,96
25498,note_off,10,0,0,,,,,0,,,81,0
25498,note_off,0,0,0,,,,,1,,,81,0
25498,note_off,0,0,0,,,,,2,,,78,0
25500,note_on,2,0,0,,,,,0,,,79,96
25500,note_on,0,0,0,,,,,1,,,79,96
25500,note_on,0,0,0,,,,,2,,,76,96
25510,note_off,10,0,0,,,,,0,,,79,0
25510,note_off,0,0,0,,,,,1,,,79,0
25510,note_off,0,0,0,,,,,2,,,76,0
25512,note_on,2,0,0,,,,,0,,,78,96
25512,note_on,0,0,0,,,,,1,,,78,96
25512,note_on,0,0,0,,,,,2,,,74,96
25512,note_on,0,0,0,,,,,3,,,57,96
25512,note_on,0,0,0,,,,,4,,,57,96
25522,note_off,10,0,0,,,,,0,,,78,0
25522,note_off,0,0,0,,,,,1,,,78,0
25522,note_off,0,0,0,,,,,2,,,74,0
25524,note_on,2,0,0,,,,,0,,,76,96
25524,note_on,0,0,0,,,,,1,,,76,96
25524,note_on,0,0,0,,,,,2,,,73,96
25533,note_off,9,0,0,,,,,3,,,57,0
25533,note_off,0,0,0,,,,,4,,,57,0
25534,note_off,1,0,0,,,,,0,,,76,0
25534,note_off,0,0,0,,,,,1,,,76,0
25534,note_off,0,0,0,,,,,2,,,73,0
25536,note_on,2,0,0,,,,,0,,,78,96
25536,note_on,0,0,0,,,,,1,,,78,96
25536,note_on,0,0,0,,,,,2,,,74,96
25536,note_on,0,0,0,,,,,3,,,57,96
25536,note_on,0,0,0,,,,,4,,,50,96
25546,note_off,10,0,0,,,,,2,,,74,0
25548,note_on,2,0,0,,,,,2,,,81,96
25557,note_off,9,0,0,,,,,0,,,78,0
25557,note_off,0,0,0,,,,,1,,,78,0
25557,note_off,0,0,0,,,,,3,,,57,0
25557,note_off,0,0,0,,,,,4,,,50,0
25558,note_off,1,0,0,,,,,2,,,81,0
25560,note_on,2,0,0,,,,,0,,,76,96
25560,note_on,0,0,0,,,,,1,,,76,96
25560,note_on,0,0,0,,,,,2,,,79,96
25560,note_on,0,0,0,,,,,3,,,69,96
25560,note_on,0,0,0,,,,,4,,,50,96
25570,note_off,10,0,0,,,,,0,,,76,0
25570,note_off,0,0,0,,,,,1,,,76,0
25570,note_off,0,0,0,,,,,2,,,79,0
25572,note_on,2,0,0,,,,,0,,,74,96
25572,note_on,0,0,0,,,,,1,,,74,96
25572,note_on,0,0,0,,,,,2,,,78,96
25581,note_off,9,0,0,,,,,3,,,69,0
25581,note_off,0,0,0,,,,,4,,,50,0
25582,note_off,1,0,0,,,,,0,,,74,0
25582,note_off,0,0,0,,,,,1,,,74,0
25582,note_off,0,0,0,,,,,2,,,78,0
25584,note_on,2,0,0,,,,,0,,,76,96
25584,note_on,0,0,0,,,,,1,,,76,96
25584,note_on,0,0,0,,,,,2,,,79,96
25584,note_on,0,0,0,,,,,3,,,71,96
25584,note_on,0,0,0,,,,,4,,,43,96
25605,note_off,21,0,0,,,,,0,,,76,0
25605,note_off,0,0,0,,,,,1,,,76,0
25605,note_off,0,0,0,,,,,2,,,79,0
25605,note_off,0,0,0,,,,,3,,,71,0
25605,note_off,0,0,0,,,,,4,,,43,0
25608,note_on,3,0,0,,,,,0,,,73,96
25608,note_on,0,0,0,,,,,1,,,73,96
25608,note_on,0,0,0,,,,,2,,,76,96
25608,note_on,0,0,0,,,,,3,,,69,96
25608,note_on,0,0,0,,,,,4,,,45,96
25629,note_off,21,0,0,,,,,0,,,73,0
25629,note_off,0,0,0,,,,,1,,,73,0
25629,note_off,0,0,0,,,,,2,,,76,0
25629,note_off,0,0,0,,,,,3,,,69,0
25629,note_off,0,0,0,,,,,4,,,45,0
25632,note_on,3,0,0,,,,,0,,,67,96
25632,note_on,0,0,0,,,,,1,,,67,96
25632,note_on,0,0,0,,,,,2,,,64,96
25632,note_on,0,0,0,,,,,3,,,61,96
25632,note_on,0,0,0,,,,,4,,,45,96
25642,note_off,10,0,0,,,,,3,,,61,0
25642,note_off,0,0,0,,,,,4,,,45,0
25644,note_on,2,0,0,,,,,3,,,62,96
25644,note_on,0,0,0,,,,,4,,,47,96
25654,note_off,10,0,0,,,,,3,,,62,0
25654,note_off,0,0,0,,,,,4,,,47,0
25656,note_on,2,0,0,,,,,3,,,64,96
25656,note_on,0,0,0,,,,,4,,,49,96
25666,note_off,10,0,0,,,,,3,,,64,0
25666,note_off,0,0,0,,,,,4,,,49,0
25668,note_on,2,0,0,,,,,3,,,66,96
25668,note_on,0,0,0,,,,,4,,,50,96
25674,note_off,6,0,0,,,,,0,,,67,0
25674,note_off,0,0,0,,,,,1,,,67,0
25674,note_off,0,0,0,,,,,2,,,64,0
25678,note_off,4,0,0,,,,,3,,,66,0
25678,note_off,0,0,0,,,,,4,,,50,0
25680,note_on,2,0,0,,,,,0,,,67,96
25680,note_on,0,0,0,,,,,1,,,67,96
25680,note_on,0,0,0,,,,,2,,,64,96
25680,note_on,0,0,0,,,,,3,,,67,96
25680,note_on,0,0,0,,,,,4,,,52,96
25690,note_off,10,0,0,,,,,3,,,67,0
25690,note_off,0,0,0,,,,,4,,,52,0
25692,note_on,2,0,0,,,,,3,,,66,96
25692,note_on,0,0,0,,,,,4,,,50,96
25702,note_off,10,0,0,,,,,3,,,66,0
25702,note_off,0,0,0,,,,,4,,,50,0
25704,note_on,2,0,0,,,,,3,,,64,96
25704,note_on,0,0,0,,,,,4,,,49,96
25714,note_off,10,0,0,,,,,3,,,64,0
25714,note_off,0,0,0,,,,,4,,,49,0
25716,note_on,2,0,0,,,,,3,,,62,96
25716,note_on,0,0,0,,,,,4,,,47,96
25722,note_off,6,0,0,,,,,0,,,67,0
25722,note_off,0,0,0,,,,,1,,,67,0
25722,note_off,0,0,0,,,,,2,,,64,0
25726,note_off,4,0,0,,,,,3,,,62,0
25726,note_off,0,0,0,,,,,4,,,47,0
25728,note_on,2,0,0,,,,,0,,,67,96
25728,note_on,0,0,0,,,,,1,,,67,96
25728,note_on,0,0,0,,,,,2,,,64,96
25728,note_on,0,0,0,,,,,3,,,61,96
25728,note_on,0,0,0,,,,,4,,,45,96
25738,note_off,10,0,0,,,,,3,,,61,0
25738,note_off,0,0,0,,,,,4,,,45,0
25740,note_on,2,0,0,,,,,3,,,62,96
25740,note_on,0,0,0,,,,,4,,,47,96
25750,note_off,10,0,0,,,,,3,,,62,0
25750,note_off,0,0,0,,,,,4,,,47,0
25752,note_on,2,0,0,,,,,3,,,64,96
25752,note_on,0,0,0,,,,,4,,,49,96
25762,note_off,10,0,0,,,,,3,,,64,0
25762,note_off,0,0,0,,,,,4,,,49,0
25764,note_on,2,0,0,,,,,3,,,66,96
25764,note_on,0,0,0,,,,,4,,,50,96
25774,note_off,10,0,0,,,,,3,,,66,0
25774,note_off,0,0,0,,,,,4,,,50,0
25776,note_on,2,0,0,,,,,3,,,67,96
25776,note_on,0,0,0,,,,,4,,,52,96
25786,note_off,10,0,0,,,,,3,,,67,0
25786,note_off,0,0,0,,,,,4,,,52,0
25788,note_on,2,0,0,,,,,3,,,64,96
25788,note_on,0,0,0,,,,,4,,,49,96
25791,note_off,3,0,0,,,,,0,,,67,0
25791,note_off,0,0,0,,,,,1,,,67,0
25791,note_off,0,0,0,,,,,2,,,64,0
25798,note_off,7,0,0,,,,,3,,,64,0
25798,note_off,0,0,0,,,,,4,,,49,0
25800,note_on,2,0,0,,,,,0,,,81,96
25800,note_on,0,0,0,,,,,1,,,81,96
25800,note_on,0,0,0,,,,,2,,,76,96
25800,note_on,0,0,0,,,,,3,,,62,96
25800,note_on,0,0,0,,,,,4,,,47,96
25810,note_off,10,0,0,,,,,3,,,62,0
25810,note_off,0,0,0,,,,,4,,,47,0
25812,note_on,2,0,0,,,,,3,,,61,96
25812,note_on,0,0,0,,,,,4,,,45,96
25821,note_off,9,0,0,,,,,0,,,81,0
25821,note_off,0,0,0,,,,,1,,,81,0
25821,note_off,0,0,0,,,,,2,,,76,0
25822,note_off,1,0,0,,,,,3,,,61,0
25822,note_off,0,0,0,,,,,4,,,45,0
25824,note_on,2,0,0,,,,,0,,,78,96
25824,note_on,0,0,0,,,,,1,,,78,96
25824,note_on,0,0,0,,,,,2,,,74,96
25824,note_on,0,0,0,,,,,3,,,57,96
25824,note_on,0,0,0,,,,,4,,,50,96
25834,note_off,10,0,0,,,,,2,,,74,0
25836,note_on,2,0,0,,,,,2,,,81,96
25845,note_off,9,0,0,,,,,0,,,78,0
25845,note_off,0,0,0,,,,,1,,,78,0
25845,note_off,0,0,0,,,,,3,,,57,0
25845,note_off,0,0,0,,,,,4,,,50,0
25846,note_off,1,0,0,,,,,2,,,81,0
25848,note_on,2,0,0,,,,,0,,,76,96
25848,note_on,0,0,0,,,,,1,,,76,96
25848,note_on,0,0,0,,,,,2,,,79,96
25848,note_on,0,0,0,,,,,3,,,69,96
25848,note_on,0,0,0,,,,,4,,,50,96
25858,note_off,10,0,0,,,,,0,,,76,0
25858,note_off,0,0,0,,,,,1,,,76,0
25858,note_off,0,0,0,,,,,2,,,79,0
25860,note_on,2,0,0,,,,,0,,,74,96
25860,note_on,0,0,0,,,,,1,,,74,96
25860,note_on,0,0,0,,,,,2,,,78,96
25869,note_off,9,0,0,,,,,3,,,69,0
25869,note_off,0,0,0,,,,,4,,,50,0
25870,note_off,1,0,0,,,,,0,,,74,0
25870,note_off,0,0,0,,,,,1,,,74,0
25870,note_off,0,0,0,,,,,2,,,78,0
25872,note_on,2,0,0,,,,,0,,,76,96
25872,note_on,0,0,0,,,,,1,,,76,96
25872,note_on,0,0,0,,,,,2,,,79,96
25872,note_on,0,0,0,,,,,3,,,71,96
25872,note_on,0,0,0,,,,,4,,,43,96
25893,note_off,21,0,0,,,,,0,,,76,0
25893,note_off,0,0,0,,,,,1,,,76,0
25893,note_off,0,0,0,,,,,2,,,79,0
25893,note_off,0,0,0,,,,,3,,,71,0
25893,note_off,0,0,0,,,,,4,,,43,0
25896,note_on,3,0,0,,,,,0,,,73,96
25896,note_on,0,0,0,,,,,1,,,73,96
25896,note_on,0,0,0,,,,,2,,,76,96
25896,note_on,0,0,0,,,,,3,,,69,96
25896,note_on,0,0,0,,,,,4,,,45,96
25917,note_off,21,0,0,,,,,0,,,73,0
25917,note_off,0,0,0,,,,,1,,,73,0
25917,note_off,0,0,0,,,,,2,,,76,0
25917,note_off,0,0,0,,,,,3,,,69,0
25917,note_off,0,0,0,,,,,4,,,45,0
25920,note_on,3,0,0,,,,,0,,,67,96
25920,note_on,0,0,0,,,,,1,,,67,96
25920,note_on,0,0,0,,,,,2,,,64,96
25920,note_on,0,0,0,,,,,3,,,61,96
25920,note_on,0,0,0,,,,,4,,,45,96
25930,note_off,10,0,0,,,,,3,,,61,0
25930,note_off,0,0,0,,,,,4,,,45,0
25932,note_on,2,0,0,,,,,3,,,62,96
25932,note_on,0,0,0,,,,,4,,,47,96
25942,note_off,10,0,0,,,,,3,,,62,0
25942,note_off,0,0,0,,,,,4,,,47,0
25944,note_on,2,0,0,,,,,3,,,64,96
25944,note_on,0,0,0,,,,,4,,,49,96
25954,note_off,10,0,0,,,,,3,,,64,0
25954,note_off,0,0,0,,,,,4,,,49,0
25956,note_on,2,0,0,,,,,3,,,66,96
25956,note_on,0,0,0,,,,,4,,,50,96
25962,note_off,6,0,0,,,,,0,,,67,0
25962,note_off,0,0,0,,,,,1,,,67,0
25962,note_off,0,0,0,,,,,2,,,64,0
25966,note_off,4,0,0,,,,,3,,,66,0
25966,note_off,0,0,0,,,,,4,,,50,0
25968,note_on,2,0,0,,,,,0,,,67,96
25968,note_on,0,0,0,,,,,1,,,67,96
25968,note_on,0,0,0,,,,,2,,,64,96
25968,note_on,0,0,0,,,,,3,,,67,96
25968,note_on,0,0,0,,,,,4,,,52,96
25978,note_off,10,0,0,,,,,3,,,67,0
25978,note_off,0,0,0,,,,,4,,,52,0
25980,note_on,2,0,0,,,,,3,,,66,96
25980,note_on,0,0,0,,,,,4,,,50,96
25990,note_off,10,0,0,,,,,3,,,66,0
25990,note_off,0,0,0,,,,,4,,,50,0
25992,note_on,2,0,0,,,,,3,,,64,96
25992,note_on,0,0,0,,,,,4,,,49,96
26002,note_off,10,0,0,,,,,3,,,64,0
26002,note_off,0,0,0,,,,,4,,,49,0
26004,note_on,2,0,0,,,,,3,,,62,96
26004,note_on,0,0,0,,,,,4,,,47,96
26010,note_off,6,0,0,,,,,0,,,67,0
26010,note_off,0,0,0,,,,,1,,,67,0
26010,note_off,0,0,0,,,,,2,,,64,0
26014,note_off,4,0,0,,,,,3,,,62,0
26014,note_off,0,0,0,,,,,4,,,47,0
26016,note_on,2,0,0,,,,,0,,,67,96
26016,note_on,0,0,0,,,,,1,,,67,96
26016,note_on,0,0,0,,,,,2,,,64,96
26016,note_on,0,0,0,,,,,3,,,61,96
26016,note_on,0,0,0,,,,,4,,,45,96
26026,note_off,10,0,0,,,,,3,,,61,0
26026,note_off,0,0,0,,,,,4,,,45,0
26028,note_on,2,0,0,,,,,3,,,62,96
26028,note_on,0,0,0,,,,,4,,,47,96
26038,note_off,10,0,0,,,,,3,,,62,0
26038,note_off,0,0,0,,,,,4,,,47,0
26040,note_on,2,0,0,,,,,3,,,64,96
26040,note_on,0,0,0,,,,,4,,,49,96
26050,note_off,10,0,0,,,,,3,,,64,0
26050,note_off,0,0,0,,,,,4,,,49,0
26052,note_on,2,0,0,,,,,3,,,66,96
26052,note_on,0,0,0,,,,,4,,,50,96
26062,note_off,10,0,0,,,,,3,,,66,0
26062,note_off,0,0,0,,,,,4,,,50,0
26064,note_on,2,0,0,,,,,3,,,67,96
26064,note_on,0,0,0,,,,,4,,,52,96
26074,note_off,10,0,0,,,,,3,,,67,0
26074,note_off,0,0,0,,,,,4,,,52,0
26076,note_on,2,0,0,,,,,3,,,64,96
26076,note_on,0,0,0,,,,,4,,,49,96
26079,note_off,3,0,0,,,,,0,,,67,0
26079,note_off,0,0,0,,,,,1,,,67,0
26079,note_off,0,0,0,,,,,2,,,64,0
26086,note_off,7,0,0,,,,,3,,,64,0
26086,note_off,0,0,0,,,,,4,,,49,0
26088,note_on,2,0,0,,,,,0,,,81,96
26088,note_on,0,0,0,,,,,1,,,81,96
26088,note_on,0,0,0,,,,,2,,,76,96
26088,note_on,0,0,0,,,,,3,,,62,96
26088,note_on,0,0,0,,,,,4,,,47,96
26098,note_off,10,0,0,,,,,3,,,62,0
26098,note_off,0,0,0,,,,,4,,,47,0
26100,note_on,2,0,0,,,,,3,,,61,96
26100,note_on,0,0,0,,,,,4,,,45,96
26109,note_off,9,0,0,,,,,0,,,81,0
26109,note_off,0,0,0,,,,,1,,,81,0
26109,note_off,0,0,0,,,,,2,,,76,0
26110,note_off,1,0,0,,,,,3,,,61,0
26110,note_off,0,0,0,,,,,4,,,45,0
26112,note_on,2,0,0,,,,,0,,,78,96
26112,note_on,0,0,0,,,,,1,,,78,96
26112,note_on,0,0,0,,,,,2,,,74,96
26112,note_on,0,0,0,,,,,3,,,57,96
26112,note_on,0,0,0,,,,,4,,,50,96
26122,note_off,10,0,0,,,,,2,,,74,0
26124,note_on,2,0,0,,,,,2,,,81,96
26133,note_off,9,0,0,,,,,0,,,78,0
26133,note_off,0,0,0,,,,,1,,,78,0
26133,note_off,0,0,0,,,,,3,,,57,0
26133,note_off,0,0,0,,,,,4,,,50,0
26134,note_off,1,0,0,,,,,2,,,81,0
26136,note_on,2,0,0,,,,,0,,,76,96
26136,note_on,0,0,0,,,,,1,,,76,96
26136,note_on,0,0,0,,,,,2,,,79,96
26136,note_on,0,0,0,,,,,3,,,69,96
26136,note_on,0,0,0,,,,,4,,,38,96
26146,note_off,10,0,0,,,,,0,,,76,0
26146,note_off,0,0,0,,,,,1,,,76,0
26146,note_off,0,0,0,,,,,2,,,79,0
26148,note_on,2,0,0,,,,,0,,,74,96
26148,note_on,0,0,0,,,,,1,,,74,96
26148,note_on,0,0,0,,,,,2,,,78,96
26157,note_off,9,0,0,,,,,3,,,69,0
26157,note_off,0,0,0,,,,,4,,,38,0
26158,note_off,1,0,0,,,,,0,,,74,0
26158,note_off,0,0,0,,,,,1,,,74,0
26158,note_off,0,0,0,,,,,2,,,78,0
26160,note_on,2,0,0,,,,,0,,,76,96
26160,note_on,0,0,0,,,,,1,,,76,96
26160,note_on,0,0,0,,,,,2,,,79,96
26160,note_on,0,0,0,,,,,3,,,71,96
26160,note_on,0,0,0,,,,,4,,,43,96
26181,note_off,21,0,0,,,,,0,,,76,0
26181,note_off,0,0,0,,,,,1,,,76,0
26181,note_off,0,0,0,,,,,2,,,79,0
26181,note_off,0,0,0,,,,,3,,,71,0
26181,note_off,0,0,0,,,,,4,,,43,0
26184,note_on,3,0,0,,,,,0,,,73,96
26184,note_on,0,0,0,,,,,1,,,73,96
26184,note_on,0,0,0,,,,,2,,,76,96
26184,note_on,0,0,0,,,,,3,,,69,96
26184,note_on,0,0,0,,,,,4,,,45,96
26205,note_off,21,0,0,,,,,0,,,73,0
26205,note_off,0,0,0,,,,,1,,,73,0
26205,note_off,0,0,0,,,,,2,,,76,0
26205,note_off,0,0,0,,,,,3,,,69,0
26205,note_off,0,0,0,,,,,4,,,45,0
26208,note_on,3,0,0,,,,,0,,,74,96
26208,note_on,0,0,0,,,,,1,,,74,96
26208,note_on,0,0,0,,,,,2,,,74,96
26208,note_on,0,0,0,,,,,3,,,66,96
26208,note_on,0,0,0,,,,,4,,,50,96
26400,note_off,192,0,0,,,,,0,,,74,0
26400,note_off,0,0,0,,,,,1,,,74,0
26400,note_off,0,0,0,,,,,2,,,74,0
26400,note_off,0,0,0,,,,,3,,,66,0
26400,note_off,0,0,0,,,,,4,,,50,0
26784,end_of_track,384,1,0,,,,,,,,,
