tick,type,numerator,denominator,clocks_per_click,notated_32nd_notes_per_beat,time,meta,track,data,tempo,control,value,channel,program,note,velocity
0,time_signature,3,4,96,8,0,1,0,,,,,,,,
0,note_on,,,,,0,0,15,,,,,7,,76,100
0,control_change,,,,,0,0,15,,,91,105,7,,,
0,control_change,,,,,0,0,15,,,7,45,7,,,
0,program_change,,,,,0,0,15,,,,,7,19,,
0,control_change,,,,,0,0,15,,,0,0,7,,,
0,track_name,,,,,0,1,15,,,,,,,,
0,track_name,,,,,0,1,8,,,,,,,,
0,control_change,,,,,0,0,8,,,0,0,1,,,
0,program_change,,,,,0,0,8,,,,,1,48,,
0,control_change,,,,,0,0,8,,,7,104,1,,,
0,control_change,,,,,0,0,8,,,10,49,1,,,
0,control_change,,,,,0,0,8,,,91,107,1,,,
0,note_on,,,,,0,0,8,,,,,1,,76,100
0,note_on,,,,,0,0,14,,,,,6,,57,100
0,control_change,,,,,0,0,14,,,91,107,6,,,
0,note_on,,,,,0,0,15,,,,,7,,72,100
0,note_on,,,,,0,0,15,,,,,7,,81,100
0,track_name,,,,,0,1,16,,,,,,,,
0,control_change,,,,,0,0,16,,,0,0,7,,,
0,end_of_track,,,,,0,1,5,,,,,,,,
0,track_name,,,,,0,1,6,,,,,,,,
0,control_change,,,,,0,0,6,,,0,0,0,,,
0,program_change,,,,,0,0,6,,,,,0,40,,
0,control_change,,,,,0,0,6,,,7,100,0,,,
0,control_change,,,,,0,0,6,,,91,107,0,,,
0,end_of_track,,,,,0,1,6,,,,,,,,
0,control_change,,,,,0,0,14,,,10,77,6,,,
0,track_name,,,,,0,1,7,,,,,,,,
0,program_change,,,,,0,0,7,,,,,0,40,,
0,control_change,,,,,0,0,7,,,7,100,0,,,
0,control_change,,,,,0,0,7,,,91,107,0,,,
0,note_on,,,,,0,0,16,,,,,7,,57,100
0,control_change,,,,,0,0,16,,,91,105,7,,,
0,control_change,,,,,0,0,16,,,7,45,7,,,
0,program_change,,,,,0,0,16,,,,,7,19,,
0,control_change,,,,,0,0,7,,,0,0,0,,,
0,control_change,,,,,0,0,14,,,7,45,6,,,
0,program_change,,,,,0,0,14,,,,,6,6,,
0,control_change,,,,,0,0,14,,,0,0,6,,,
0,control_change,,,,,0,0,13,,,7,45,6,,,
0,program_change,,,,,0,0,13,,,,,6,6,,
0,control_change,,,,,0,0,13,,,0,0,6,,,
0,track_name,,,,,0,1,13,,,,,,,,
0,track_name,,,,,0,1,11,,,,,,,,
0,control_change,,,,,0,0,11,,,0,0,4,,,
0,program_change,,,,,0,0,11,,,,,4,48,,
0,control_change,,,,,0,0,13,,,10,77,6,,,
0,control_change,,,,,0,0,11,,,7,82,4,,,
0,control_change,,,,,0,0,11,,,91,107,4,,,
0,note_on,,,,,0,0,11,,,,,4,,57,100
0,note_on,,,,,0,0,12,,,,,5,,45,100
0,control_change,,,,,0,0,12,,,91,108,5,,,
0,control_change,,,,,0,0,12,,,10,90,5,,,
0,control_change,,,,,0,0,12,,,7,65,5,,,
0,program_change,,,,,0,0,12,,,,,5,48,,
0,control_change,,,,,0,0,11,,,10,79,4,,,
0,control_change,,,,,0,0,5,,,91,107,0,,,
0,control_change,,,,,0,0,13,,,91,107,6,,,
0,note_on,,,,,0,0,13,,,,,6,,69,100
0,track_name,,,,,0,1,14,,,,,,,,
0,control_change,,,,,0,0,12,,,0,0,5,,,
0,track_name,,,,,0,1,9,,,,,,,,
0,control_change,,,,,0,0,9,,,0,0,2,,,
0,program_change,,,,,0,0,9,,,,,2,48,,
0,control_change,,,,,0,0,9,,,7,100,2,,,
0,control_change,,,,,0,0,9,,,10,36,2,,,
0,note_on,,,,,0,0,13,,,,,6,,64,100
0,control_change,,,,,0,0,9,,,91,108,2,,,
0,track_name,,,,,0,1,10,,,,,,,,
0,control_change,,,,,0,0,10,,,0,0,3,,,
0,program_change,,,,,0,0,10,,,,,3,48,,
0,control_change,,,,,0,0,10,,,7,92,3,,,
0,control_change,,,,,0,0,10,,,91,108,3,,,
0,note_on,,,,,0,0,10,,,,,3,,69,100
0,note_on,,,,,0,0,13,,,,,6,,60,100
0,note_on,,,,,0,0,9,,,,,2,,72,100
0,control_change,,,,,0,0,5,,,7,100,0,,,
0,track_name,,,,,0,1,12,,,,,,,,
0,control_change,,,,,0,0,5,,,0,0,0,,,
0,sequencer_specific,,,,,0,1,0,"(0, 0, 119, 14, 1)",,,,,,,
0,sequencer_specific,,,,,0,1,0,"(0, 0, 65)",,,,,,,
0,track_name,,,,,0,1,1,,,,,,,,
0,end_of_track,,,,,0,1,1,,,,,,,,
0,track_name,,,,,0,1,2,,,,,,,,
0,end_of_track,,,,,0,1,2,,,,,,,,
0,track_name,,,,,0,1,3,,,,,,,,
0,program_change,,,,,0,0,5,,,,,0,40,,
0,control_change,,,,,0,0,3,,,0,0,0,,,
0,control_change,,,,,0,0,3,,,7,100,0,,,
0,set_tempo,,,,,0,1,0,,500000,,,,,,
0,program_change,,,,,0,0,3,,,,,0,40,,
0,track_name,,,,,0,1,4,,,,,,,,
0,control_change,,,,,0,0,4,,,0,0,0,,,
0,end_of_track,,,,,0,1,3,,,,,,,,
0,program_change,,,,,0,0,4,,,,,0,40,,
0,control_change,,,,,0,0,4,,,7,100,0,,,
0,control_change,,,,,0,0,4,,,91,107,0,,,
0,track_name,,,,,0,1,5,,,,,,,,
0,control_change,,,,,0,0,3,,,91,107,0,,,
0,end_of_track,,,,,0,1,4,,,,,,,,
100,note_off,,,,,100,0,16,,,,,7,,57,100
100,note_off,,,,,100,0,12,,,,,5,,45,100
100,note_off,,,,,100,0,14,,,,,6,,57,100
100,note_off,,,,,100,0,11,,,,,4,,57,100
192,note_on,,,,,92,0,12,,,,,5,,33,100
192,note_on,,,,,92,0,14,,,,,6,,45,100
192,note_on,,,,,92,0,11,,,,,4,,45,100
192,note_on,,,,,92,0,16,,,,,7,,45,100
200,note_off,,,,,200,0,8,,,,,1,,76,100
200,note_off,,,,,200,0,10,,,,,3,,69,100
200,note_off,,,,,200,0,9,,,,,2,,72,100
292,note_off,,,,,100,0,14,,,,,6,,45,100
292,note_off,,,,,100,0,16,,,,,7,,45,100
292,note_off,,,,,100,0,11,,,,,4,,45,100
292,note_off,,,,,100,0,12,,,,,5,,33,100
384,note_on,,,,,92,0,16,,,,,7,,45,100
384,note_off,,,,,384,0,13,,,,,6,,64,100
384,note_on,,,,,184,0,8,,,,,1,,69,100
384,note_on,,,,,184,0,9,,,,,2,,72,100
384,note_on,,,,,184,0,10,,,,,3,,64,100
384,note_on,,,,,92,0,12,,,,,5,,33,100
384,note_on,,,,,92,0,11,,,,,4,,45,100
384,note_on,,,,,92,0,14,,,,,6,,45,100
484,note_off,,,,,100,0,11,,,,,4,,45,100
484,note_off,,,,,100,0,16,,,,,7,,45,100
484,note_off,,,,,100,0,12,,,,,5,,33,100
484,note_off,,,,,100,0,14,,,,,6,,45,100
516,note_off,,,,,516,0,15,,,,,7,,76,100
516,note_off,,,,,0,0,15,,,,,7,,72,100
516,note_off,,,,,0,0,15,,,,,7,,81,100
516,note_off,,,,,132,0,13,,,,,6,,69,100
516,note_off,,,,,0,0,13,,,,,6,,60,100
576,note_on,,,,,92,0,16,,,,,7,,52,100
576,note_on,,,,,60,0,13,,,,,6,,68,100
576,note_on,,,,,92,0,11,,,,,4,,52,100
576,note_on,,,,,92,0,14,,,,,6,,52,100
576,note_on,,,,,60,0,15,,,,,7,,79,100
576,note_on,,,,,92,0,12,,,,,5,,40,100
584,note_off,,,,,200,0,9,,,,,2,,72,100
584,note_off,,,,,200,0,8,,,,,1,,69,100
584,note_off,,,,,200,0,10,,,,,3,,64,100
668,note_off,,,,,92,0,15,,,,,7,,79,100
672,note_on,,,,,4,0,15,,,,,7,,77,100
676,note_off,,,,,100,0,16,,,,,7,,52,100
676,note_off,,,,,100,0,13,,,,,6,,68,100
676,note_off,,,,,100,0,11,,,,,4,,52,100
676,note_off,,,,,100,0,14,,,,,6,,52,100
676,note_off,,,,,100,0,12,,,,,5,,40,100
764,note_off,,,,,92,0,15,,,,,7,,77,100
768,note_on,,,,,92,0,12,,,,,5,,42,100
768,note_on,,,,,92,0,16,,,,,7,,54,100
768,note_on,,,,,92,0,14,,,,,6,,54,100
768,note_on,,,,,92,0,11,,,,,4,,54,100
768,note_on,,,,,92,0,13,,,,,6,,69,100
768,note_on,,,,,4,0,15,,,,,7,,76,100
860,note_off,,,,,92,0,15,,,,,7,,76,100
864,note_on,,,,,4,0,15,,,,,7,,74,100
868,note_off,,,,,100,0,11,,,,,4,,54,100
868,note_off,,,,,100,0,13,,,,,6,,69,100
868,note_off,,,,,100,0,12,,,,,5,,42,100
868,note_off,,,,,100,0,14,,,,,6,,54,100
868,note_off,,,,,100,0,16,,,,,7,,54,100
956,note_off,,,,,92,0,15,,,,,7,,74,100
960,note_on,,,,,92,0,16,,,,,7,,56,100
960,note_on,,,,,92,0,11,,,,,4,,56,100
960,note_on,,,,,4,0,15,,,,,7,,72,100
960,note_on,,,,,92,0,13,,,,,6,,68,100
960,note_on,,,,,0,0,13,,,,,6,,62,100
960,note_on,,,,,92,0,12,,,,,5,,44,100
960,note_on,,,,,92,0,14,,,,,6,,56,100
1052,note_off,,,,,92,0,15,,,,,7,,72,100
1056,note_on,,,,,472,0,10,,,,,3,,71,100
1056,note_on,,,,,472,0,8,,,,,1,,77,100
1056,note_on,,,,,472,0,9,,,,,2,,74,100
1056,note_on,,,,,4,0,15,,,,,7,,71,100
1060,note_off,,,,,100,0,16,,,,,7,,56,100
1060,note_off,,,,,100,0,13,,,,,6,,68,100
1060,note_off,,,,,0,0,13,,,,,6,,62,100
1060,note_off,,,,,100,0,12,,,,,5,,44,100
1060,note_off,,,,,100,0,14,,,,,6,,56,100
1060,note_off,,,,,100,0,11,,,,,4,,56,100
1120,note_off,,,,,64,0,10,,,,,3,,71,100
1120,note_off,,,,,64,0,8,,,,,1,,77,100
1120,note_off,,,,,64,0,9,,,,,2,,74,100
1148,note_off,,,,,92,0,15,,,,,7,,71,100
1152,note_on,,,,,92,0,13,,,,,6,,64,100
1152,note_on,,,,,0,0,13,,,,,6,,69,100
1152,note_on,,,,,0,0,13,,,,,6,,60,100
1152,note_on,,,,,32,0,10,,,,,3,,72,100
1152,note_on,,,,,0,0,15,,,,,7,,60,100
1152,note_on,,,,,92,0,14,,,,,6,,57,100
1152,note_on,,,,,92,0,16,,,,,7,,57,100
1152,note_on,,,,,92,0,11,,,,,4,,57,100
1152,note_on,,,,,32,0,9,,,,,2,,72,100
1152,note_on,,,,,4,0,15,,,,,7,,69,100
1152,set_tempo,,,,,1152,1,0,,500000,,,,,,
1152,note_on,,,,,32,0,8,,,,,1,,76,100
1152,note_on,,,,,92,0,12,,,,,5,,45,100
1252,note_off,,,,,100,0,16,,,,,7,,57,100
1252,note_off,,,,,100,0,11,,,,,4,,57,100
1252,note_off,,,,,100,0,12,,,,,5,,45,100
1252,note_off,,,,,100,0,14,,,,,6,,57,100
1344,note_on,,,,,92,0,16,,,,,7,,45,100
1344,note_on,,,,,92,0,12,,,,,5,,33,100
1344,note_on,,,,,92,0,11,,,,,4,,45,100
1344,note_on,,,,,92,0,14,,,,,6,,45,100
1352,note_off,,,,,200,0,8,,,,,1,,76,100
1352,note_off,,,,,200,0,9,,,,,2,,72,100
1352,note_off,,,,,200,0,10,,,,,3,,72,100
1444,note_off,,,,,100,0,12,,,,,5,,33,100
1444,note_off,,,,,100,0,11,,,,,4,,45,100
1444,note_off,,,,,100,0,16,,,,,7,,45,100
1444,note_off,,,,,100,0,14,,,,,6,,45,100
1536,note_on,,,,,184,0,8,,,,,1,,69,100
1536,note_on,,,,,184,0,9,,,,,2,,72,100
1536,note_on,,,,,92,0,16,,,,,7,,45,100
1536,note_on,,,,,184,0,10,,,,,3,,64,100
1536,note_on,,,,,92,0,14,,,,,6,,45,100
1536,note_on,,,,,92,0,12,,,,,5,,33,100
1536,note_off,,,,,384,0,13,,,,,6,,64,100
1536,note_on,,,,,92,0,11,,,,,4,,45,100
1636,note_off,,,,,100,0,16,,,,,7,,45,100
1636,note_off,,,,,100,0,11,,,,,4,,45,100
1636,note_off,,,,,100,0,14,,,,,6,,45,100
1636,note_off,,,,,100,0,12,,,,,5,,33,100
1668,note_off,,,,,0,0,13,,,,,6,,60,100
1668,note_off,,,,,132,0,13,,,,,6,,69,100
1668,note_off,,,,,516,0,15,,,,,7,,69,100
1668,note_off,,,,,0,0,15,,,,,7,,60,100
1728,note_on,,,,,92,0,14,,,,,6,,52,100
1728,note_on,,,,,60,0,13,,,,,6,,68,100
1728,note_on,,,,,92,0,11,,,,,4,,52,100
1728,note_on,,,,,92,0,12,,,,,5,,40,100
1728,note_on,,,,,92,0,16,,,,,7,,52,100
1728,note_on,,,,,60,0,15,,,,,7,,67,100
1736,note_off,,,,,200,0,10,,,,,3,,64,100
1736,note_off,,,,,200,0,9,,,,,2,,72,100
1736,note_off,,,,,200,0,8,,,,,1,,69,100
1820,note_off,,,,,92,0,15,,,,,7,,67,100
1824,note_on,,,,,4,0,15,,,,,7,,65,100
1828,note_off,,,,,100,0,12,,,,,5,,40,100
1828,note_off,,,,,100,0,14,,,,,6,,52,100
1828,note_off,,,,,100,0,16,,,,,7,,52,100
1828,note_off,,,,,100,0,13,,,,,6,,68,100
1828,note_off,,,,,100,0,11,,,,,4,,52,100
1916,note_off,,,,,92,0,15,,,,,7,,65,100
1920,note_on,,,,,92,0,14,,,,,6,,54,100
1920,note_on,,,,,92,0,16,,,,,7,,54,100
1920,note_on,,,,,92,0,13,,,,,6,,69,100
1920,note_on,,,,,92,0,11,,,,,4,,54,100
1920,note_on,,,,,4,0,15,,,,,7,,64,100
1920,note_on,,,,,92,0,12,,,,,5,,42,100
2012,note_off,,,,,92,0,15,,,,,7,,64,100
2016,note_on,,,,,4,0,15,,,,,7,,62,100
2020,note_off,,,,,100,0,14,,,,,6,,54,100
2020,note_off,,,,,100,0,12,,,,,5,,42,100
2020,note_off,,,,,100,0,13,,,,,6,,69,100
2020,note_off,,,,,100,0,11,,,,,4,,54,100
2020,note_off,,,,,100,0,16,,,,,7,,54,100
2108,note_off,,,,,92,0,15,,,,,7,,62,100
2112,note_on,,,,,92,0,13,,,,,6,,68,100
2112,note_on,,,,,92,0,12,,,,,5,,44,100
2112,note_on,,,,,4,0,15,,,,,7,,60,100
2112,note_on,,,,,92,0,16,,,,,7,,56,100
2112,note_on,,,,,92,0,11,,,,,4,,56,100
2112,note_on,,,,,92,0,14,,,,,6,,56,100
2112,note_on,,,,,0,0,13,,,,,6,,62,100
2204,note_off,,,,,92,0,15,,,,,7,,60,100
2208,note_on,,,,,472,0,10,,,,,3,,71,100
2208,note_on,,,,,472,0,9,,,,,2,,74,100
2208,note_on,,,,,4,0,15,,,,,7,,59,100
2208,note_on,,,,,472,0,8,,,,,1,,77,100
2212,note_off,,,,,0,0,13,,,,,6,,62,100
2212,note_off,,,,,100,0,11,,,,,4,,56,100
2212,note_off,,,,,100,0,12,,,,,5,,44,100
2212,note_off,,,,,100,0,14,,,,,6,,56,100
2212,note_off,,,,,100,0,13,,,,,6,,68,100
2212,note_off,,,,,100,0,16,,,,,7,,56,100
2272,note_off,,,,,64,0,8,,,,,1,,77,100
2272,note_off,,,,,64,0,9,,,,,2,,74,100
2272,note_off,,,,,64,0,10,,,,,3,,71,100
2300,note_off,,,,,92,0,15,,,,,7,,59,100
2304,note_on,,,,,92,0,14,,,,,6,,57,100
2304,note_on,,,,,32,0,9,,,,,2,,72,100
2304,note_on,,,,,92,0,11,,,,,4,,57,100
2304,note_on,,,,,92,0,16,,,,,7,,57,100
2304,note_on,,,,,0,0,15,,,,,7,,64,100
2304,note_on,,,,,0,0,13,,,,,6,,60,100
2304,note_on,,,,,4,0,15,,,,,7,,60,100
2304,note_on,,,,,32,0,8,,,,,1,,76,100
2304,note_on,,,,,0,0,13,,,,,6,,64,100
2304,note_on,,,,,92,0,12,,,,,5,,45,100
2304,note_on,,,,,32,0,10,,,,,3,,72,100
2304,note_on,,,,,92,0,13,,,,,6,,69,100
2404,note_off,,,,,100,0,16,,,,,7,,57,100
2404,note_off,,,,,100,0,12,,,,,5,,45,100
2404,note_off,,,,,100,0,11,,,,,4,,57,100
2404,note_off,,,,,100,0,14,,,,,6,,57,100
2404,note_off,,,,,100,0,10,,,,,3,,72,100
2496,note_on,,,,,92,0,11,,,,,4,,45,100
2496,note_on,,,,,92,0,14,,,,,6,,45,100
2496,note_on,,,,,92,0,12,,,,,5,,33,100
2496,note_on,,,,,92,0,16,,,,,7,,45,100
2496,note_on,,,,,92,0,10,,,,,3,,57,100
2560,note_off,,,,,256,0,9,,,,,2,,72,100
2560,note_off,,,,,256,0,8,,,,,1,,76,100
2596,note_off,,,,,100,0,10,,,,,3,,57,100
2596,note_off,,,,,100,0,12,,,,,5,,33,100
2596,note_off,,,,,100,0,11,,,,,4,,45,100
2596,note_off,,,,,100,0,16,,,,,7,,45,100
2596,note_off,,,,,100,0,14,,,,,6,,45,100
2688,note_on,,,,,92,0,10,,,,,3,,57,100
2688,note_on,,,,,92,0,12,,,,,5,,33,100
2688,note_on,,,,,92,0,14,,,,,6,,45,100
2688,note_on,,,,,128,0,8,,,,,1,,74,100
2688,note_on,,,,,128,0,9,,,,,2,,77,100
2688,note_on,,,,,92,0,16,,,,,7,,45,100
2688,note_on,,,,,92,0,11,,,,,4,,45,100
2788,note_off,,,,,100,0,12,,,,,5,,33,100
2788,note_off,,,,,100,0,11,,,,,4,,45,100
2788,note_off,,,,,100,0,10,,,,,3,,57,100
2788,note_off,,,,,100,0,16,,,,,7,,45,100
2788,note_off,,,,,100,0,14,,,,,6,,45,100
2820,note_off,,,,,516,0,15,,,,,7,,60,100
2820,note_off,,,,,0,0,13,,,,,6,,64,100
2820,note_off,,,,,0,0,13,,,,,6,,60,100
2820,note_off,,,,,0,0,15,,,,,7,,64,100
2820,note_off,,,,,516,0,13,,,,,6,,69,100
2876,note_off,,,,,188,0,9,,,,,2,,77,100
2876,note_off,,,,,188,0,8,,,,,1,,74,100
2880,note_on,,,,,60,0,13,,,,,6,,59,100
2880,note_on,,,,,4,0,9,,,,,2,,76,100
2880,note_on,,,,,4,0,8,,,,,1,,72,100
2880,note_on,,,,,92,0,14,,,,,6,,47,100
2880,note_on,,,,,92,0,11,,,,,4,,47,100
2880,note_on,,,,,92,0,16,,,,,7,,47,100
2880,note_on,,,,,92,0,10,,,,,3,,59,100
2880,note_on,,,,,0,0,15,,,,,7,,62,100
2880,note_on,,,,,0,0,13,,,,,6,,62,100
2880,note_on,,,,,60,0,15,,,,,7,,59,100
2880,note_on,,,,,92,0,12,,,,,5,,35,100
2980,note_off,,,,,100,0,13,,,,,6,,59,100
2980,note_off,,,,,100,0,10,,,,,3,,59,100
2980,note_off,,,,,100,0,9,,,,,2,,76,100
2980,note_off,,,,,100,0,12,,,,,5,,35,100
2980,note_off,,,,,0,0,13,,,,,6,,62,100
2980,note_off,,,,,100,0,14,,,,,6,,47,100
2980,note_off,,,,,100,0,8,,,,,1,,72,100
2980,note_off,,,,,0,0,15,,,,,7,,62,100
2980,note_off,,,,,100,0,15,,,,,7,,59,100
2980,note_off,,,,,100,0,11,,,,,4,,47,100
2980,note_off,,,,,100,0,16,,,,,7,,47,100
3072,note_on,,,,,92,0,14,,,,,6,,48,100
3072,note_on,,,,,92,0,12,,,,,5,,36,100
3072,note_on,,,,,92,0,9,,,,,2,,74,100
3072,note_on,,,,,0,0,15,,,,,7,,64,100
3072,note_on,,,,,92,0,16,,,,,7,,48,100
3072,note_on,,,,,92,0,8,,,,,1,,71,100
3072,note_on,,,,,92,0,15,,,,,7,,60,100
3072,note_on,,,,,92,0,11,,,,,4,,48,100
3072,note_on,,,,,0,0,13,,,,,6,,64,100
3072,note_on,,,,,92,0,13,,,,,6,,60,100
3072,note_on,,,,,92,0,10,,,,,3,,60,100
3172,note_off,,,,,100,0,16,,,,,7,,48,100
3172,note_off,,,,,0,0,15,,,,,7,,64,100
3172,note_off,,,,,100,0,15,,,,,7,,60,100
3172,note_off,,,,,100,0,11,,,,,4,,48,100
3172,note_off,,,,,0,0,13,,,,,6,,64,100
3172,note_off,,,,,100,0,13,,,,,6,,60,100
3172,note_off,,,,,100,0,10,,,,,3,,60,100
3172,note_off,,,,,100,0,12,,,,,5,,36,100
3172,note_off,,,,,100,0,14,,,,,6,,48,100
3260,note_off,,,,,188,0,8,,,,,1,,71,100
3260,note_off,,,,,188,0,9,,,,,2,,74,100
3264,note_on,,,,,92,0,15,,,,,7,,62,100
3264,note_on,,,,,92,0,12,,,,,5,,38,100
3264,note_on,,,,,0,0,13,,,,,6,,65,100
3264,note_on,,,,,92,0,16,,,,,7,,50,100
3264,note_on,,,,,92,0,10,,,,,3,,62,100
3264,note_on,,,,,92,0,13,,,,,6,,62,100
3264,note_on,,,,,4,0,8,,,,,1,,69,100
3264,note_on,,,,,0,0,15,,,,,7,,65,100
3264,note_on,,,,,92,0,11,,,,,4,,50,100
3264,note_on,,,,,92,0,14,,,,,6,,50,100
3264,note_on,,,,,4,0,9,,,,,2,,72,100
3364,note_off,,,,,100,0,12,,,,,5,,38,100
3364,note_off,,,,,0,0,13,,,,,6,,65,100
3364,note_off,,,,,100,0,16,,,,,7,,50,100
3364,note_off,,,,,100,0,14,,,,,6,,50,100
3364,note_off,,,,,100,0,15,,,,,7,,62,100
3364,note_off,,,,,100,0,11,,,,,4,,50,100
3364,note_off,,,,,0,0,15,,,,,7,,65,100
3364,note_off,,,,,100,0,8,,,,,1,,69,100
3364,note_off,,,,,100,0,10,,,,,3,,62,100
3364,note_off,,,,,100,0,13,,,,,6,,62,100
3364,note_off,,,,,100,0,9,,,,,2,,72,100
3456,note_on,,,,,92,0,14,,,,,6,,52,100
3456,note_on,,,,,92,0,8,,,,,1,,68,100
3456,note_on,,,,,92,0,16,,,,,7,,52,100
3456,note_on,,,,,0,0,13,,,,,6,,59,100
3456,note_on,,,,,92,0,13,,,,,6,,56,100
3456,note_on,,,,,0,0,15,,,,,7,,64,100
3456,note_on,,,,,0,0,15,,,,,7,,59,100
3456,note_on,,,,,92,0,15,,,,,7,,68,100
3456,note_on,,,,,0,0,13,,,,,6,,64,100
3456,note_on,,,,,92,0,10,,,,,3,,59,100
3456,note_on,,,,,92,0,11,,,,,4,,52,100
3456,note_on,,,,,92,0,12,,,,,5,,40,100
3456,note_on,,,,,92,0,9,,,,,2,,71,100
3916,note_off,,,,,460,0,11,,,,,4,,52,100
3916,note_off,,,,,460,0,8,,,,,1,,68,100
3916,note_off,,,,,460,0,16,,,,,7,,52,100
3916,note_off,,,,,460,0,12,,,,,5,,40,100
3916,note_off,,,,,460,0,14,,,,,6,,52,100
3972,note_off,,,,,0,0,15,,,,,7,,59,100
3972,note_off,,,,,516,0,15,,,,,7,,68,100
3972,note_off,,,,,0,0,13,,,,,6,,64,100
3972,note_off,,,,,0,0,13,,,,,6,,59,100
3972,note_off,,,,,516,0,13,,,,,6,,56,100
3972,note_off,,,,,0,0,15,,,,,7,,64,100
4032,note_on,,,,,60,0,13,,,,,6,,64,100
4032,note_on,,,,,116,0,11,,,,,4,,52,100
4032,note_on,,,,,116,0,8,,,,,1,,66,100
4032,note_on,,,,,116,0,12,,,,,5,,40,100
4032,note_on,,,,,116,0,14,,,,,6,,52,100
4032,note_on,,,,,116,0,16,,,,,7,,52,100
4132,note_off,,,,,100,0,12,,,,,5,,40,100
4132,note_off,,,,,100,0,13,,,,,6,,64,100
4132,note_off,,,,,100,0,16,,,,,7,,52,100
4132,note_off,,,,,100,0,14,,,,,6,,52,100
4132,note_off,,,,,100,0,11,,,,,4,,52,100
4132,note_off,,,,,100,0,8,,,,,1,,66,100
4224,note_on,,,,,92,0,12,,,,,5,,42,93
4224,note_on,,,,,92,0,16,,,,,7,,54,100
4224,note_on,,,,,92,0,14,,,,,6,,54,100
4224,note_on,,,,,92,0,8,,,,,1,,64,93
4224,note_on,,,,,92,0,13,,,,,6,,66,100
4224,note_on,,,,,92,0,11,,,,,4,,54,93
4324,note_off,,,,,100,0,13,,,,,6,,66,100
4324,note_off,,,,,100,0,16,,,,,7,,54,100
4324,note_off,,,,,100,0,11,,,,,4,,54,100
4324,note_off,,,,,100,0,14,,,,,6,,54,100
4324,note_off,,,,,100,0,12,,,,,5,,42,100
4416,note_on,,,,,0,0,13,,,,,6,,68,100
4416,note_on,,,,,92,0,16,,,,,7,,56,100
4416,note_on,,,,,92,0,13,,,,,6,,64,100
4416,note_on,,,,,92,0,12,,,,,5,,44,86
4416,note_on,,,,,92,0,11,,,,,4,,56,86
4416,note_on,,,,,92,0,14,,,,,6,,56,100
4480,note_off,,,,,256,0,8,,,,,1,,64,100
4492,note_off,,,,,1036,0,9,,,,,2,,71,100
4492,note_off,,,,,1036,0,10,,,,,3,,59,100
4516,note_off,,,,,100,0,12,,,,,5,,44,100
4516,note_off,,,,,100,0,11,,,,,4,,56,100
4516,note_off,,,,,0,0,13,,,,,6,,68,100
4516,note_off,,,,,100,0,13,,,,,6,,64,100
4516,note_off,,,,,100,0,14,,,,,6,,56,100
4516,note_off,,,,,100,0,16,,,,,7,,56,100
4608,note_on,,,,,128,0,8,,,,,1,,76,71
4608,note_on,,,,,116,0,10,,,,,3,,69,71
4608,note_on,,,,,636,0,15,,,,,7,,72,100
4608,note_on,,,,,0,0,15,,,,,7,,81,100
4608,note_on,,,,,92,0,12,,,,,5,,45,71
4608,note_on,,,,,116,0,9,,,,,2,,72,71
4608,note_on,,,,,92,0,16,,,,,7,,57,100
4608,note_on,,,,,92,0,11,,,,,4,,57,71
4608,note_on,,,,,92,0,13,,,,,6,,69,100
4608,note_on,,,,,0,0,13,,,,,6,,60,100
4608,note_on,,,,,92,0,14,,,,,6,,57,100
4708,note_off,,,,,100,0,11,,,,,4,,57,100
4708,note_off,,,,,100,0,16,,,,,7,,57,100
4708,note_off,,,,,100,0,14,,,,,6,,57,100
4708,note_off,,,,,100,0,12,,,,,5,,45,100
4800,note_on,,,,,92,0,12,,,,,5,,33,70
4800,note_on,,,,,92,0,14,,,,,6,,45,100
4800,note_on,,,,,92,0,16,,,,,7,,45,100
4800,note_on,,,,,92,0,11,,,,,4,,45,70
4808,note_off,,,,,200,0,8,,,,,1,,76,100
4808,note_off,,,,,200,0,9,,,,,2,,72,100
4808,note_off,,,,,200,0,10,,,,,3,,69,100
4900,note_off,,,,,100,0,12,,,,,5,,33,100
4900,note_off,,,,,100,0,16,,,,,7,,45,100
4900,note_off,,,,,100,0,11,,,,,4,,45,100
4900,note_off,,,,,100,0,14,,,,,6,,45,100
4992,note_on,,,,,92,0,16,,,,,7,,45,100
4992,note_on,,,,,184,0,9,,,,,2,,72,70
4992,note_on,,,,,92,0,14,,,,,6,,45,100
4992,note_on,,,,,92,0,11,,,,,4,,45,70
4992,note_on,,,,,92,0,12,,,,,5,,33,70
4992,note_on,,,,,184,0,8,,,,,1,,69,70
4992,note_on,,,,,184,0,10,,,,,3,,64,70
5092,note_off,,,,,100,0,11,,,,,4,,45,100
5092,note_off,,,,,100,0,14,,,,,6,,45,100
5092,note_off,,,,,100,0,16,,,,,7,,45,100
5092,note_off,,,,,100,0,12,,,,,5,,33,100
5124,note_off,,,,,516,0,13,,,,,6,,69,100
5124,note_off,,,,,0,0,13,,,,,6,,60,100
5124,note_off,,,,,0,0,15,,,,,7,,81,100
5124,note_off,,,,,516,0,15,,,,,7,,72,100
5184,note_on,,,,,92,0,12,,,,,5,,40,70
5184,note_on,,,,,92,0,16,,,,,7,,52,100
5184,note_on,,,,,60,0,13,,,,,6,,68,100
5184,note_on,,,,,92,0,14,,,,,6,,52,100
5184,note_on,,,,,60,0,15,,,,,7,,79,100
5184,note_on,,,,,92,0,11,,,,,4,,52,70
5192,note_off,,,,,200,0,10,,,,,3,,64,100
5192,note_off,,,,,200,0,8,,,,,1,,69,100
5192,note_off,,,,,200,0,9,,,,,2,,72,100
5276,note_off,,,,,92,0,15,,,,,7,,79,100
5280,note_on,,,,,4,0,15,,,,,7,,77,100
5284,note_off,,,,,100,0,14,,,,,6,,52,100
5284,note_off,,,,,100,0,13,,,,,6,,68,100
5284,note_off,,,,,100,0,16,,,,,7,,52,100
5284,note_off,,,,,100,0,11,,,,,4,,52,100
5284,note_off,,,,,100,0,12,,,,,5,,40,100
5372,note_off,,,,,92,0,15,,,,,7,,77,100
5376,note_on,,,,,92,0,13,,,,,6,,69,100
5376,note_on,,,,,92,0,12,,,,,5,,42,70
5376,note_on,,,,,92,0,11,,,,,4,,54,70
5376,note_on,,,,,4,0,15,,,,,7,,76,100
5376,note_on,,,,,92,0,14,,,,,6,,54,100
5376,note_on,,,,,92,0,16,,,,,7,,54,100
5468,note_off,,,,,92,0,15,,,,,7,,76,100
5472,note_on,,,,,4,0,15,,,,,7,,74,100
5476,note_off,,,,,100,0,13,,,,,6,,69,100
5476,note_off,,,,,100,0,12,,,,,5,,42,100
5476,note_off,,,,,100,0,16,,,,,7,,54,100
5476,note_off,,,,,100,0,11,,,,,4,,54,100
5476,note_off,,,,,100,0,14,,,,,6,,54,100
5564,note_off,,,,,92,0,15,,,,,7,,74,100
5568,note_on,,,,,92,0,13,,,,,6,,68,100
5568,note_on,,,,,92,0,12,,,,,5,,44,70
5568,note_on,,,,,0,0,13,,,,,6,,62,100
5568,note_on,,,,,92,0,16,,,,,7,,56,100
5568,note_on,,,,,92,0,14,,,,,6,,56,100
5568,note_on,,,,,92,0,11,,,,,4,,56,70
5568,note_on,,,,,4,0,15,,,,,7,,72,100
5660,note_off,,,,,92,0,15,,,,,7,,72,100
5664,note_on,,,,,472,0,9,,,,,2,,74,70
5664,note_on,,,,,472,0,8,,,,,1,,77,70
5664,note_on,,,,,4,0,15,,,,,7,,71,100
5664,note_on,,,,,472,0,10,,,,,3,,71,70
5668,note_off,,,,,0,0,13,,,,,6,,62,100
5668,note_off,,,,,100,0,11,,,,,4,,56,100
5668,note_off,,,,,100,0,16,,,,,7,,56,100
5668,note_off,,,,,100,0,13,,,,,6,,68,100
5668,note_off,,,,,100,0,12,,,,,5,,44,100
5668,note_off,,,,,100,0,14,,,,,6,,56,100
5728,note_off,,,,,64,0,8,,,,,1,,77,100
5728,note_off,,,,,64,0,9,,,,,2,,74,100
5728,note_off,,,,,64,0,10,,,,,3,,71,100
5756,note_off,,,,,92,0,15,,,,,7,,71,100
5760,note_on,,,,,92,0,13,,,,,6,,69,100
5760,note_on,,,,,32,0,8,,,,,1,,76,70
5760,note_on,,,,,92,0,11,,,,,4,,57,70
5760,note_on,,,,,32,0,10,,,,,3,,72,70
5760,note_on,,,,,32,0,9,,,,,2,,72,70
5760,note_on,,,,,4,0,15,,,,,7,,69,100
5760,note_on,,,,,92,0,14,,,,,6,,57,100
5760,note_on,,,,,0,0,15,,,,,7,,60,100
5760,note_on,,,,,0,0,13,,,,,6,,60,100
5760,note_on,,,,,92,0,16,,,,,7,,57,100
5760,note_on,,,,,92,0,12,,,,,5,,45,70
5860,note_off,,,,,100,0,11,,,,,4,,57,100
5860,note_off,,,,,100,0,14,,,,,6,,57,100
5860,note_off,,,,,100,0,16,,,,,7,,57,100
5860,note_off,,,,,100,0,12,,,,,5,,45,100
5952,note_on,,,,,92,0,11,,,,,4,,45,70
5952,note_on,,,,,92,0,16,,,,,7,,45,100
5952,note_on,,,,,92,0,14,,,,,6,,45,100
5952,note_on,,,,,92,0,12,,,,,5,,33,70
5960,note_off,,,,,200,0,10,,,,,3,,72,100
5960,note_off,,,,,200,0,8,,,,,1,,76,100
5960,note_off,,,,,200,0,9,,,,,2,,72,100
6052,note_off,,,,,100,0,16,,,,,7,,45,100
6052,note_off,,,,,100,0,14,,,,,6,,45,100
6052,note_off,,,,,100,0,12,,,,,5,,33,100
6052,note_off,,,,,100,0,11,,,,,4,,45,100
6144,note_on,,,,,184,0,8,,,,,1,,69,70
6144,note_on,,,,,92,0,12,,,,,5,,33,70
6144,note_on,,,,,184,0,9,,,,,2,,72,70
6144,note_on,,,,,92,0,14,,,,,6,,45,100
6144,note_on,,,,,92,0,11,,,,,4,,45,70
6144,note_on,,,,,184,0,10,,,,,3,,64,70
6144,note_on,,,,,92,0,16,,,,,7,,45,100
6244,note_off,,,,,100,0,12,,,,,5,,33,100
6244,note_off,,,,,100,0,14,,,,,6,,45,100
6244,note_off,,,,,100,0,16,,,,,7,,45,100
6244,note_off,,,,,100,0,11,,,,,4,,45,100
6276,note_off,,,,,516,0,13,,,,,6,,69,100
6276,note_off,,,,,0,0,13,,,,,6,,60,100
6276,note_off,,,,,516,0,15,,,,,7,,69,100
6276,note_off,,,,,0,0,15,,,,,7,,60,100
6336,note_on,,,,,92,0,11,,,,,4,,52,70
6336,note_on,,,,,92,0,14,,,,,6,,52,100
6336,note_on,,,,,60,0,13,,,,,6,,68,100
6336,note_on,,,,,92,0,16,,,,,7,,52,100
6336,note_on,,,,,60,0,15,,,,,7,,67,100
6336,note_on,,,,,92,0,12,,,,,5,,40,70
6344,note_off,,,,,200,0,8,,,,,1,,69,100
6344,note_off,,,,,200,0,9,,,,,2,,72,100
6344,note_off,,,,,200,0,10,,,,,3,,64,100
6428,note_off,,,,,92,0,15,,,,,7,,67,100
6432,note_on,,,,,4,0,15,,,,,7,,65,100
6436,note_off,,,,,100,0,13,,,,,6,,68,100
6436,note_off,,,,,100,0,14,,,,,6,,52,100
6436,note_off,,,,,100,0,11,,,,,4,,52,100
6436,note_off,,,,,100,0,12,,,,,5,,40,100
6436,note_off,,,,,100,0,16,,,,,7,,52,100
6524,note_off,,,,,92,0,15,,,,,7,,65,100
6528,note_on,,,,,92,0,16,,,,,7,,54,100
6528,note_on,,,,,92,0,13,,,,,6,,69,100
6528,note_on,,,,,4,0,15,,,,,7,,64,100
6528,note_on,,,,,92,0,14,,,,,6,,54,100
6528,note_on,,,,,92,0,12,,,,,5,,42,70
6528,note_on,,,,,92,0,11,,,,,4,,54,70
6620,note_off,,,,,92,0,15,,,,,7,,64,100
6624,note_on,,,,,4,0,15,,,,,7,,62,100
6628,note_off,,,,,100,0,13,,,,,6,,69,100
6628,note_off,,,,,100,0,12,,,,,5,,42,100
6628,note_off,,,,,100,0,16,,,,,7,,54,100
6628,note_off,,,,,100,0,14,,,,,6,,54,100
6628,note_off,,,,,100,0,11,,,,,4,,54,100
6716,note_off,,,,,92,0,15,,,,,7,,62,100
6720,note_on,,,,,92,0,12,,,,,5,,44,70
6720,note_on,,,,,4,0,15,,,,,7,,60,100
6720,note_on,,,,,92,0,11,,,,,4,,56,70
6720,note_on,,,,,92,0,14,,,,,6,,56,100
6720,note_on,,,,,92,0,16,,,,,7,,56,100
6720,note_on,,,,,92,0,13,,,,,6,,68,100
6720,note_on,,,,,0,0,13,,,,,6,,62,100
6812,note_off,,,,,92,0,15,,,,,7,,60,100
6816,note_on,,,,,4,0,15,,,,,7,,59,100
6816,note_on,,,,,472,0,9,,,,,2,,74,70
6816,note_on,,,,,472,0,10,,,,,3,,71,70
6816,note_on,,,,,472,0,8,,,,,1,,77,70
6820,note_off,,,,,0,0,13,,,,,6,,62,100
6820,note_off,,,,,100,0,16,,,,,7,,56,100
6820,note_off,,,,,100,0,13,,,,,6,,68,100
6820,note_off,,,,,100,0,12,,,,,5,,44,100
6820,note_off,,,,,100,0,11,,,,,4,,56,100
6820,note_off,,,,,100,0,14,,,,,6,,56,100
6880,note_off,,,,,64,0,9,,,,,2,,74,100
6880,note_off,,,,,64,0,8,,,,,1,,77,100
6880,note_off,,,,,64,0,10,,,,,3,,71,100
6908,note_off,,,,,92,0,15,,,,,7,,59,100
6912,note_on,,,,,32,0,9,,,,,2,,72,70
6912,note_on,,,,,0,0,15,,,,,7,,64,100
6912,note_on,,,,,92,0,14,,,,,6,,57,100
6912,note_on,,,,,92,0,12,,,,,5,,45,70
6912,note_on,,,,,4,0,15,,,,,7,,60,100
6912,note_on,,,,,32,0,8,,,,,1,,76,70
6912,note_on,,,,,92,0,11,,,,,4,,57,70
6912,note_on,,,,,0,0,13,,,,,6,,60,100
6912,note_on,,,,,92,0,13,,,,,6,,69,100
6912,note_on,,,,,92,0,16,,,,,7,,57,100
6912,note_on,,,,,32,0,10,,,,,3,,72,70
7012,note_off,,,,,100,0,16,,,,,7,,57,100
7012,note_off,,,,,100,0,11,,,,,4,,57,100
7012,note_off,,,,,100,0,10,,,,,3,,72,100
7012,note_off,,,,,100,0,12,,,,,5,,45,100
7012,note_off,,,,,100,0,14,,,,,6,,57,100
7104,note_on,,,,,92,0,10,,,,,3,,57,70
7104,note_on,,,,,92,0,16,,,,,7,,45,100
7104,note_on,,,,,92,0,11,,,,,4,,45,70
7104,note_on,,,,,92,0,12,,,,,5,,33,70
7104,note_on,,,,,92,0,14,,,,,6,,45,100
7168,note_off,,,,,256,0,8,,,,,1,,76,100
7168,note_off,,,,,256,0,9,,,,,2,,72,100
7204,note_off,,,,,100,0,12,,,,,5,,33,100
7204,note_off,,,,,100,0,16,,,,,7,,45,100
7204,note_off,,,,,100,0,10,,,,,3,,57,100
7204,note_off,,,,,100,0,11,,,,,4,,45,100
7204,note_off,,,,,100,0,14,,,,,6,,45,100
7296,note_on,,,,,92,0,10,,,,,3,,57,70
7296,note_on,,,,,92,0,14,,,,,6,,45,100
7296,note_on,,,,,92,0,16,,,,,7,,45,100
7296,note_on,,,,,128,0,8,,,,,1,,74,70
7296,note_on,,,,,92,0,11,,,,,4,,45,70
7296,note_on,,,,,128,0,9,,,,,2,,77,70
7296,note_on,,,,,92,0,12,,,,,5,,33,70
7396,note_off,,,,,100,0,12,,,,,5,,33,100
7396,note_off,,,,,100,0,10,,,,,3,,57,100
7396,note_off,,,,,100,0,11,,,,,4,,45,100
7396,note_off,,,,,100,0,16,,,,,7,,45,100
7396,note_off,,,,,100,0,14,,,,,6,,45,100
7428,note_off,,,,,516,0,13,,,,,6,,69,100
7428,note_off,,,,,0,0,13,,,,,6,,60,100
7428,note_off,,,,,0,0,15,,,,,7,,64,100
7428,note_off,,,,,516,0,15,,,,,7,,60,100
7484,note_off,,,,,188,0,8,,,,,1,,74,100
7484,note_off,,,,,188,0,9,,,,,2,,77,100
7488,note_on,,,,,60,0,15,,,,,7,,59,100
7488,note_on,,,,,92,0,16,,,,,7,,47,100
7488,note_on,,,,,60,0,13,,,,,6,,59,100
7488,note_on,,,,,92,0,10,,,,,3,,59,70
7488,note_on,,,,,4,0,8,,,,,1,,72,70
7488,note_on,,,,,92,0,11,,,,,4,,47,70
7488,note_on,,,,,0,0,13,,,,,6,,62,100
7488,note_on,,,,,0,0,15,,,,,7,,62,100
7488,note_on,,,,,92,0,12,,,,,5,,35,70
7488,note_on,,,,,4,0,9,,,,,2,,76,70
7488,note_on,,,,,92,0,14,,,,,6,,47,100
7588,note_off,,,,,100,0,10,,,,,3,,59,100
7588,note_off,,,,,0,0,13,,,,,6,,62,100
7588,note_off,,,,,100,0,13,,,,,6,,59,100
7588,note_off,,,,,100,0,15,,,,,7,,59,100
7588,note_off,,,,,100,0,11,,,,,4,,47,100
7588,note_off,,,,,0,0,15,,,,,7,,62,100
7588,note_off,,,,,100,0,14,,,,,6,,47,100
7588,note_off,,,,,100,0,12,,,,,5,,35,100
7588,note_off,,,,,100,0,8,,,,,1,,72,100
7588,note_off,,,,,100,0,9,,,,,2,,76,100
7588,note_off,,,,,100,0,16,,,,,7,,47,100
7680,note_on,,,,,92,0,16,,,,,7,,48,100
7680,note_on,,,,,92,0,15,,,,,7,,60,100
7680,note_on,,,,,0,0,15,,,,,7,,64,100
7680,note_on,,,,,92,0,8,,,,,1,,71,70
7680,note_on,,,,,92,0,13,,,,,6,,60,100
7680,note_on,,,,,0,0,13,,,,,6,,64,100
7680,note_on,,,,,92,0,10,,,,,3,,60,70
7680,note_on,,,,,92,0,14,,,,,6,,48,100
7680,note_on,,,,,92,0,9,,,,,2,,74,70
7680,note_on,,,,,92,0,12,,,,,5,,36,70
7680,note_on,,,,,92,0,11,,,,,4,,48,70
7780,note_off,,,,,100,0,14,,,,,6,,48,100
7780,note_off,,,,,100,0,15,,,,,7,,60,100
7780,note_off,,,,,0,0,15,,,,,7,,64,100
7780,note_off,,,,,100,0,12,,,,,5,,36,100
7780,note_off,,,,,100,0,16,,,,,7,,48,100
7780,note_off,,,,,100,0,11,,,,,4,,48,100
7780,note_off,,,,,100,0,13,,,,,6,,60,100
7780,note_off,,,,,0,0,13,,,,,6,,64,100
7780,note_off,,,,,100,0,10,,,,,3,,60,100
7868,note_off,,,,,188,0,8,,,,,1,,71,100
7868,note_off,,,,,188,0,9,,,,,2,,74,100
7872,note_on,,,,,92,0,16,,,,,7,,50,100
7872,note_on,,,,,4,0,9,,,,,2,,72,70
7872,note_on,,,,,4,0,8,,,,,1,,69,70
7872,note_on,,,,,92,0,10,,,,,3,,62,70
7872,note_on,,,,,92,0,12,,,,,5,,38,70
7872,note_on,,,,,0,0,15,,,,,7,,65,100
7872,note_on,,,,,92,0,13,,,,,6,,62,100
7872,note_on,,,,,92,0,15,,,,,7,,62,100
7872,note_on,,,,,92,0,11,,,,,4,,50,70
7872,note_on,,,,,0,0,13,,,,,6,,65,100
7872,note_on,,,,,92,0,14,,,,,6,,50,100
7972,note_off,,,,,100,0,12,,,,,5,,38,100
7972,note_off,,,,,100,0,14,,,,,6,,50,100
7972,note_off,,,,,100,0,11,,,,,4,,50,100
7972,note_off,,,,,100,0,16,,,,,7,,50,100
7972,note_off,,,,,100,0,9,,,,,2,,72,100
7972,note_off,,,,,100,0,13,,,,,6,,62,100
7972,note_off,,,,,100,0,8,,,,,1,,69,100
7972,note_off,,,,,0,0,13,,,,,6,,65,100
7972,note_off,,,,,100,0,15,,,,,7,,62,100
7972,note_off,,,,,100,0,10,,,,,3,,62,100
7972,note_off,,,,,0,0,15,,,,,7,,65,100
8064,note_on,,,,,92,0,12,,,,,5,,40,70
8064,note_on,,,,,92,0,11,,,,,4,,52,70
8064,note_on,,,,,92,0,15,,,,,7,,56,100
8064,note_on,,,,,92,0,10,,,,,3,,59,70
8064,note_on,,,,,92,0,14,,,,,6,,52,100
8064,note_on,,,,,0,0,13,,,,,6,,64,100
8064,note_on,,,,,92,0,9,,,,,2,,71,70
8064,note_on,,,,,0,0,15,,,,,7,,64,100
8064,note_on,,,,,92,0,16,,,,,7,,52,100
8064,note_on,,,,,92,0,8,,,,,1,,68,70
8064,note_on,,,,,92,0,13,,,,,6,,56,100
8524,note_off,,,,,460,0,16,,,,,7,,52,100
8524,note_off,,,,,460,0,12,,,,,5,,40,100
8524,note_off,,,,,460,0,14,,,,,6,,52,100
8524,note_off,,,,,460,0,11,,,,,4,,52,100
8580,note_off,,,,,516,0,15,,,,,7,,56,100
8580,note_off,,,,,0,0,15,,,,,7,,64,100
8580,note_off,,,,,516,0,13,,,,,6,,56,100
8580,note_off,,,,,0,0,13,,,,,6,,64,100
8640,note_on,,,,,116,0,14,,,,,6,,52,100
8640,note_on,,,,,116,0,16,,,,,7,,52,100
8640,note_on,,,,,60,0,13,,,,,6,,64,100
8640,note_on,,,,,116,0,11,,,,,4,,52,85
8640,note_on,,,,,116,0,12,,,,,5,,40,85
8640,set_tempo,,,,,7488,1,0,,500000,,,,,,
8740,note_off,,,,,100,0,13,,,,,6,,64,100
8740,note_off,,,,,100,0,11,,,,,4,,52,100
8740,note_off,,,,,100,0,12,,,,,5,,40,100
8740,note_off,,,,,100,0,14,,,,,6,,52,100
8740,note_off,,,,,100,0,16,,,,,7,,52,100
8784,set_tempo,,,,,144,1,0,,504201,,,,,,
8832,note_on,,,,,92,0,14,,,,,6,,54,100
8832,note_on,,,,,92,0,12,,,,,5,,42,91
8832,note_on,,,,,92,0,13,,,,,6,,66,100
8832,note_on,,,,,92,0,16,,,,,7,,54,100
8832,note_on,,,,,92,0,11,,,,,4,,54,91
8928,set_tempo,,,,,144,1,0,,508474,,,,,,
8932,note_off,,,,,100,0,12,,,,,5,,42,100
8932,note_off,,,,,100,0,14,,,,,6,,54,100
8932,note_off,,,,,100,0,13,,,,,6,,66,100
8932,note_off,,,,,100,0,16,,,,,7,,54,100
8932,note_off,,,,,100,0,11,,,,,4,,54,100
9024,note_on,,,,,92,0,14,,,,,6,,56,100
9024,note_on,,,,,92,0,11,,,,,4,,56,96
9024,note_on,,,,,92,0,12,,,,,5,,44,96
9024,note_on,,,,,0,0,13,,,,,6,,68,100
9024,note_on,,,,,92,0,13,,,,,6,,64,100
9024,note_on,,,,,92,0,16,,,,,7,,56,100
9072,set_tempo,,,,,144,1,0,,512820,,,,,,
9100,note_off,,,,,1036,0,10,,,,,3,,59,100
9100,note_off,,,,,1036,0,8,,,,,1,,68,100
9100,note_off,,,,,1036,0,9,,,,,2,,71,100
9124,note_off,,,,,100,0,14,,,,,6,,56,100
9124,note_off,,,,,0,0,13,,,,,6,,68,100
9124,note_off,,,,,100,0,11,,,,,4,,56,100
9124,note_off,,,,,100,0,13,,,,,6,,64,100
9124,note_off,,,,,100,0,12,,,,,5,,44,100
9124,note_off,,,,,100,0,16,,,,,7,,56,100
9216,note_on,,,,,636,0,15,,,,,7,,64,100
9216,note_on,,,,,0,0,15,,,,,7,,69,100
9216,note_on,,,,,92,0,14,,,,,6,,57,100
9216,note_on,,,,,116,0,8,,,,,1,,84,95
9216,note_on,,,,,92,0,11,,,,,4,,57,95
9216,set_tempo,,,,,144,1,0,,517241,,,,,,
9216,note_on,,,,,116,0,10,,,,,3,,64,95
9216,note_on,,,,,92,0,13,,,,,6,,60,100
9216,note_on,,,,,0,0,13,,,,,6,,69,100
9216,note_on,,,,,92,0,16,,,,,7,,57,100
9216,note_on,,,,,92,0,12,,,,,5,,45,95
9216,note_on,,,,,0,0,15,,,,,7,,72,100
9296,note_off,,,,,80,0,8,,,,,1,,84,100
9316,note_off,,,,,100,0,16,,,,,7,,57,100
9316,note_off,,,,,100,0,12,,,,,5,,45,100
9316,note_off,,,,,100,0,14,,,,,6,,57,100
9316,note_off,,,,,0,0,13,,,,,6,,69,100
9316,note_off,,,,,100,0,13,,,,,6,,60,100
9316,note_off,,,,,100,0,11,,,,,4,,57,100
9408,note_on,,,,,92,0,14,,,,,6,,45,100
9408,note_on,,,,,92,0,12,,,,,5,,33,96
9408,note_on,,,,,0,0,13,,,,,6,,62,100
9408,note_on,,,,,92,0,13,,,,,6,,69,100
9408,note_on,,,,,92,0,16,,,,,7,,45,100
9408,note_on,,,,,112,0,8,,,,,1,,76,96
9408,note_on,,,,,92,0,11,,,,,4,,45,96
9416,note_off,,,,,200,0,10,,,,,3,,64,100
9488,note_off,,,,,80,0,8,,,,,1,,76,100
9508,note_off,,,,,0,0,13,,,,,6,,62,100
9508,note_off,,,,,100,0,12,,,,,5,,33,100
9508,note_off,,,,,100,0,13,,,,,6,,69,100
9508,note_off,,,,,100,0,11,,,,,4,,45,100
9508,note_off,,,,,100,0,14,,,,,6,,45,100
9508,note_off,,,,,100,0,16,,,,,7,,45,100
9600,note_on,,,,,184,0,10,,,,,3,,64,98
9600,note_on,,,,,0,0,13,,,,,6,,64,100
9600,note_on,,,,,92,0,11,,,,,4,,45,98
9600,set_tempo,,,,,384,1,0,,500000,,,,,,
9600,note_on,,,,,92,0,16,,,,,7,,45,100
9600,note_on,,,,,92,0,14,,,,,6,,45,100
9600,note_on,,,,,92,0,13,,,,,6,,69,100
9600,note_on,,,,,92,0,12,,,,,5,,33,98
9600,note_on,,,,,112,0,8,,,,,1,,84,98
9680,note_off,,,,,80,0,8,,,,,1,,84,100
9700,note_off,,,,,100,0,14,,,,,6,,45,100
9700,note_off,,,,,100,0,11,,,,,4,,45,100
9700,note_off,,,,,100,0,16,,,,,7,,45,100
9700,note_off,,,,,100,0,12,,,,,5,,33,100
9700,note_off,,,,,0,0,13,,,,,6,,64,100
9700,note_off,,,,,100,0,13,,,,,6,,69,100
9792,note_on,,,,,92,0,16,,,,,7,,57,100
9792,note_on,,,,,92,0,14,,,,,6,,57,100
9792,note_on,,,,,92,0,12,,,,,5,,45,99
9792,note_on,,,,,112,0,8,,,,,1,,76,99
9792,note_on,,,,,0,0,13,,,,,6,,60,100
9792,note_on,,,,,92,0,11,,,,,4,,57,99
9792,note_on,,,,,92,0,13,,,,,6,,69,100
9800,note_off,,,,,200,0,10,,,,,3,,64,100
9872,note_off,,,,,80,0,8,,,,,1,,76,100
9892,note_off,,,,,0,0,13,,,,,6,,60,100
9892,note_off,,,,,100,0,12,,,,,5,,45,100
9892,note_off,,,,,100,0,13,,,,,6,,69,100
9892,note_off,,,,,100,0,14,,,,,6,,57,100
9892,note_off,,,,,100,0,11,,,,,4,,57,100
9892,note_off,,,,,100,0,16,,,,,7,,57,100
9984,note_on,,,,,112,0,8,,,,,1,,84,101
9984,note_on,,,,,92,0,14,,,,,6,,59,100
9984,note_on,,,,,92,0,11,,,,,4,,59,101
9984,note_on,,,,,92,0,12,,,,,5,,47,101
9984,note_on,,,,,0,0,13,,,,,6,,62,100
9984,note_on,,,,,92,0,13,,,,,6,,71,100
9984,note_on,,,,,92,0,16,,,,,7,,59,100
10064,note_off,,,,,80,0,8,,,,,1,,84,100
10084,note_off,,,,,100,0,11,,,,,4,,59,100
10084,note_off,,,,,100,0,14,,,,,6,,59,100
10084,note_off,,,,,100,0,12,,,,,5,,47,100
10084,note_off,,,,,100,0,16,,,,,7,,59,100
10084,note_off,,,,,100,0,13,,,,,6,,71,100
10084,note_off,,,,,0,0,13,,,,,6,,62,100
10176,note_on,,,,,92,0,12,,,,,5,,48,103
10176,note_on,,,,,92,0,14,,,,,6,,60,100
10176,note_on,,,,,92,0,11,,,,,4,,60,103
10176,note_on,,,,,112,0,8,,,,,1,,76,103
10176,note_on,,,,,92,0,13,,,,,6,,72,100
10176,note_on,,,,,0,0,13,,,,,6,,64,100
10176,note_on,,,,,92,0,16,,,,,7,,60,100
10252,note_off,,,,,1036,0,15,,,,,7,,64,100
10252,note_off,,,,,0,0,15,,,,,7,,72,100
10252,note_off,,,,,0,0,15,,,,,7,,69,100
10256,note_off,,,,,80,0,8,,,,,1,,76,100
10272,note_on,,,,,472,0,10,,,,,3,,64,104
10276,note_off,,,,,100,0,12,,,,,5,,48,100
10276,note_off,,,,,100,0,16,,,,,7,,60,100
10276,note_off,,,,,100,0,11,,,,,4,,60,100
10276,note_off,,,,,100,0,14,,,,,6,,60,100
10276,note_off,,,,,100,0,13,,,,,6,,72,100
10276,note_off,,,,,0,0,13,,,,,6,,64,100
10336,note_off,,,,,64,0,10,,,,,3,,64,100
10368,note_on,,,,,116,0,15,,,,,7,,77,100
10368,note_on,,,,,92,0,16,,,,,7,,62,100
10368,note_on,,,,,92,0,11,,,,,4,,62,105
10368,note_on,,,,,0,0,15,,,,,7,,72,100
10368,note_on,,,,,32,0,10,,,,,3,,69,105
10368,note_on,,,,,112,0,8,,,,,1,,84,105
10368,note_on,,,,,0,0,13,,,,,6,,72,100
10368,note_on,,,,,92,0,13,,,,,6,,65,100
10368,note_on,,,,,92,0,14,,,,,6,,62,100
10368,note_on,,,,,0,0,15,,,,,7,,69,100
10368,note_on,,,,,1268,0,9,,,,,2,,77,105
10368,note_on,,,,,92,0,12,,,,,5,,50,105
10432,note_off,,,,,64,0,8,,,,,1,,84,100
10448,note_off,,,,,80,0,9,,,,,2,,77,100
10464,note_on,,,,,32,0,8,,,,,1,,86,105
10468,note_off,,,,,100,0,11,,,,,4,,62,100
10468,note_off,,,,,100,0,16,,,,,7,,62,100
10468,note_off,,,,,100,0,14,,,,,6,,62,100
10468,note_off,,,,,100,0,13,,,,,6,,65,100
10468,note_off,,,,,0,0,13,,,,,6,,72,100
10468,note_off,,,,,100,0,12,,,,,5,,50,100
10528,note_off,,,,,64,0,8,,,,,1,,86,100
10560,note_on,,,,,92,0,16,,,,,7,,50,100
10560,note_on,,,,,92,0,13,,,,,6,,69,100
10560,note_on,,,,,0,0,13,,,,,6,,72,100
10560,note_on,,,,,92,0,12,,,,,5,,38,105
10560,note_on,,,,,32,0,8,,,,,1,,84,105
10560,note_on,,,,,92,0,14,,,,,6,,50,100
10560,note_on,,,,,92,0,11,,,,,4,,50,105
10560,note_on,,,,,112,0,9,,,,,2,,69,105
10568,note_off,,,,,200,0,10,,,,,3,,69,100
10624,note_off,,,,,64,0,8,,,,,1,,84,100
10640,note_off,,,,,80,0,9,,,,,2,,69,100
10656,note_on,,,,,32,0,8,,,,,1,,86,105
10660,note_off,,,,,100,0,16,,,,,7,,50,100
10660,note_off,,,,,100,0,14,,,,,6,,50,100
10660,note_off,,,,,100,0,11,,,,,4,,50,100
10660,note_off,,,,,0,0,13,,,,,6,,72,100
10660,note_off,,,,,100,0,12,,,,,5,,38,100
10660,note_off,,,,,100,0,13,,,,,6,,69,100
10720,note_off,,,,,64,0,8,,,,,1,,86,100
10752,note_on,,,,,92,0,14,,,,,6,,50,100
10752,note_on,,,,,92,0,12,,,,,5,,38,105
10752,note_on,,,,,92,0,16,,,,,7,,50,100
10752,note_on,,,,,112,0,9,,,,,2,,77,105
10752,note_on,,,,,32,0,8,,,,,1,,84,105
10752,note_on,,,,,184,0,10,,,,,3,,69,105
10752,note_on,,,,,92,0,13,,,,,6,,72,100
10752,note_on,,,,,0,0,13,,,,,6,,69,100
10752,note_on,,,,,92,0,11,,,,,4,,50,105
10816,note_off,,,,,64,0,8,,,,,1,,84,100
10832,note_off,,,,,80,0,9,,,,,2,,77,100
10848,note_on,,,,,32,0,8,,,,,1,,86,105
10852,note_off,,,,,100,0,12,,,,,5,,38,100
10852,note_off,,,,,100,0,13,,,,,6,,72,100
10852,note_off,,,,,0,0,13,,,,,6,,69,100
10852,note_off,,,,,100,0,16,,,,,7,,50,100
10852,note_off,,,,,100,0,11,,,,,4,,50,100
10852,note_off,,,,,100,0,14,,,,,6,,50,100
10912,note_off,,,,,64,0,8,,,,,1,,86,100
10944,note_on,,,,,92,0,11,,,,,4,,50,105
10944,note_on,,,,,92,0,16,,,,,7,,50,100
10944,note_on,,,,,112,0,9,,,,,2,,69,105
10944,note_on,,,,,32,0,8,,,,,1,,84,105
10944,note_on,,,,,92,0,13,,,,,6,,69,100
10944,note_on,,,,,92,0,12,,,,,5,,38,105
10944,note_on,,,,,92,0,14,,,,,6,,50,100
10944,note_on,,,,,0,0,13,,,,,6,,65,100
10952,note_off,,,,,200,0,10,,,,,3,,69,100
11008,note_off,,,,,64,0,8,,,,,1,,84,100
11024,note_off,,,,,80,0,9,,,,,2,,69,100
11040,note_on,,,,,32,0,8,,,,,1,,86,105
11044,note_off,,,,,100,0,13,,,,,6,,69,100
11044,note_off,,,,,100,0,14,,,,,6,,50,100
11044,note_off,,,,,100,0,12,,,,,5,,38,100
11044,note_off,,,,,100,0,16,,,,,7,,50,100
11044,note_off,,,,,100,0,11,,,,,4,,50,100
11044,note_off,,,,,0,0,13,,,,,6,,65,100
11104,note_off,,,,,64,0,8,,,,,1,,86,100
11136,note_on,,,,,112,0,9,,,,,2,,77,105
11136,note_on,,,,,92,0,13,,,,,6,,64,100
11136,note_on,,,,,0,0,13,,,,,6,,67,100
11136,note_on,,,,,92,0,14,,,,,6,,52,100
11136,note_on,,,,,92,0,12,,,,,5,,40,105
11136,note_on,,,,,92,0,11,,,,,4,,52,105
11136,note_on,,,,,32,0,8,,,,,1,,84,105
11136,note_on,,,,,92,0,16,,,,,7,,52,100
11200,note_off,,,,,64,0,8,,,,,1,,84,100
11216,note_off,,,,,80,0,9,,,,,2,,77,100
11232,note_on,,,,,32,0,8,,,,,1,,86,105
11236,note_off,,,,,100,0,16,,,,,7,,52,100
11236,note_off,,,,,100,0,11,,,,,4,,52,100
11236,note_off,,,,,100,0,12,,,,,5,,40,100
11236,note_off,,,,,100,0,14,,,,,6,,52,100
11236,note_off,,,,,100,0,13,,,,,6,,64,100
11236,note_off,,,,,0,0,13,,,,,6,,67,100
11296,note_off,,,,,64,0,8,,,,,1,,86,100
11328,note_on,,,,,32,0,8,,,,,1,,84,105
11328,note_on,,,,,0,0,13,,,,,6,,69,100
11328,note_on,,,,,92,0,13,,,,,6,,65,100
11328,note_on,,,,,112,0,9,,,,,2,,69,105
11328,note_on,,,,,92,0,12,,,,,5,,41,105
11328,note_on,,,,,92,0,14,,,,,6,,53,100
11328,note_on,,,,,92,0,16,,,,,7,,53,100
11328,note_on,,,,,92,0,11,,,,,4,,53,105
11392,note_off,,,,,64,0,8,,,,,1,,84,100
11404,note_off,,,,,0,0,15,,,,,7,,69,100
11404,note_off,,,,,1036,0,15,,,,,7,,77,100
11404,note_off,,,,,0,0,15,,,,,7,,72,100
11408,note_off,,,,,80,0,9,,,,,2,,69,100
11424,note_on,,,,,32,0,8,,,,,1,,86,105
11424,note_on,,,,,472,0,10,,,,,3,,69,105
11428,note_off,,,,,100,0,16,,,,,7,,53,100
11428,note_off,,,,,100,0,14,,,,,6,,53,100
11428,note_off,,,,,100,0,12,,,,,5,,41,100
11428,note_off,,,,,100,0,11,,,,,4,,53,100
11428,note_off,,,,,0,0,13,,,,,6,,69,100
11428,note_off,,,,,100,0,13,,,,,6,,65,100
11488,note_off,,,,,64,0,10,,,,,3,,69,100
11488,note_off,,,,,64,0,8,,,,,1,,86,100
11520,note_on,,,,,92,0,16,,,,,7,,55,100
11520,note_on,,,,,0,0,13,,,,,6,,71,100
11520,note_on,,,,,92,0,14,,,,,6,,55,100
11520,note_on,,,,,92,0,13,,,,,6,,62,100
11520,note_on,,,,,32,0,8,,,,,1,,83,105
11520,note_on,,,,,0,0,15,,,,,7,,74,100
11520,note_on,,,,,116,0,15,,,,,7,,77,100
11520,note_on,,,,,0,0,15,,,,,7,,71,100
11520,note_on,,,,,92,0,12,,,,,5,,43,105
11520,note_on,,,,,92,0,11,,,,,4,,55,105
11520,note_on,,,,,112,0,9,,,,,2,,77,105
11520,note_on,,,,,32,0,10,,,,,3,,62,105
11584,note_off,,,,,64,0,9,,,,,2,,77,100
11600,note_off,,,,,80,0,8,,,,,1,,83,100
11616,note_on,,,,,32,0,9,,,,,2,,79,105
11620,note_off,,,,,100,0,12,,,,,5,,43,100
11620,note_off,,,,,100,0,14,,,,,6,,55,100
11620,note_off,,,,,100,0,16,,,,,7,,55,100
11620,note_off,,,,,100,0,11,,,,,4,,55,100
11620,note_off,,,,,100,0,13,,,,,6,,62,100
11620,note_off,,,,,0,0,13,,,,,6,,71,100
11680,note_off,,,,,64,0,9,,,,,2,,79,100
11712,note_on,,,,,92,0,16,,,,,7,,43,100
11712,note_on,,,,,92,0,11,,,,,4,,43,105
11712,note_on,,,,,112,0,8,,,,,1,,74,105
11712,note_on,,,,,0,0,13,,,,,6,,71,100
11712,note_on,,,,,32,0,9,,,,,2,,77,105
11712,note_on,,,,,92,0,12,,,,,5,,31,105
11712,note_on,,,,,92,0,13,,,,,6,,65,100
11712,note_on,,,,,92,0,14,,,,,6,,43,100
11720,note_off,,,,,200,0,10,,,,,3,,62,100
11776,note_off,,,,,64,0,9,,,,,2,,77,100
11792,note_off,,,,,80,0,8,,,,,1,,74,100
11808,note_on,,,,,32,0,9,,,,,2,,79,105
11812,note_off,,,,,100,0,14,,,,,6,,43,100
11812,note_off,,,,,0,0,13,,,,,6,,71,100
11812,note_off,,,,,100,0,16,,,,,7,,43,100
11812,note_off,,,,,100,0,12,,,,,5,,31,100
11812,note_off,,,,,100,0,11,,,,,4,,43,100
11812,note_off,,,,,100,0,13,,,,,6,,65,100
11872,note_off,,,,,64,0,9,,,,,2,,79,100
11904,note_on,,,,,92,0,13,,,,,6,,71,100
11904,note_on,,,,,32,0,9,,,,,2,,77,105
11904,note_on,,,,,0,0,13,,,,,6,,65,100
11904,note_on,,,,,184,0,10,,,,,3,,62,105
11904,note_on,,,,,92,0,12,,,,,5,,31,105
11904,note_on,,,,,92,0,11,,,,,4,,43,105
11904,note_on,,,,,92,0,16,,,,,7,,43,100
11904,note_on,,,,,112,0,8,,,,,1,,83,105
11904,note_on,,,,,92,0,14,,,,,6,,43,100
11968,note_off,,,,,64,0,9,,,,,2,,77,100
11984,note_off,,,,,80,0,8,,,,,1,,83,100
12000,note_on,,,,,32,0,9,,,,,2,,79,105
12004,note_off,,,,,100,0,14,,,,,6,,43,100
12004,note_off,,,,,100,0,11,,,,,4,,43,100
12004,note_off,,,,,100,0,12,,,,,5,,31,100
12004,note_off,,,,,0,0,13,,,,,6,,65,100
12004,note_off,,,,,100,0,16,,,,,7,,43,100
12004,note_off,,,,,100,0,13,,,,,6,,71,100
12064,note_off,,,,,64,0,9,,,,,2,,79,100
12096,note_on,,,,,92,0,13,,,,,6,,71,100
12096,note_on,,,,,112,0,8,,,,,1,,74,105
12096,note_on,,,,,92,0,14,,,,,6,,55,100
12096,note_on,,,,,92,0,11,,,,,4,,55,105
12096,note_on,,,,,32,0,9,,,,,2,,77,105
12096,note_on,,,,,92,0,16,,,,,7,,55,100
12096,note_on,,,,,0,0,13,,,,,6,,67,100
12096,note_on,,,,,92,0,12,,,,,5,,43,105
12104,note_off,,,,,200,0,10,,,,,3,,62,100
12160,note_off,,,,,64,0,9,,,,,2,,77,100
12176,note_off,,,,,80,0,8,,,,,1,,74,100
12192,note_on,,,,,32,0,9,,,,,2,,79,105
12196,note_off,,,,,0,0,13,,,,,6,,67,100
12196,note_off,,,,,100,0,13,,,,,6,,71,100
12196,note_off,,,,,100,0,16,,,,,7,,55,100
12196,note_off,,,,,100,0,11,,,,,4,,55,100
12196,note_off,,,,,100,0,12,,,,,5,,43,100
12196,note_off,,,,,100,0,14,,,,,6,,55,100
12256,note_off,,,,,64,0,9,,,,,2,,79,100
12288,note_on,,,,,92,0,16,,,,,7,,57,100
12288,note_on,,,,,92,0,13,,,,,6,,69,100
12288,note_on,,,,,0,0,13,,,,,6,,65,100
12288,note_on,,,,,92,0,11,,,,,4,,57,105
12288,note_on,,,,,112,0,8,,,,,1,,83,105
12288,note_on,,,,,92,0,12,,,,,5,,45,105
12288,note_on,,,,,92,0,14,,,,,6,,57,100
12288,note_on,,,,,32,0,9,,,,,2,,77,105
12352,note_off,,,,,64,0,9,,,,,2,,77,100
12368,note_off,,,,,80,0,8,,,,,1,,83,100
12384,note_on,,,,,32,0,9,,,,,2,,79,105
12388,note_off,,,,,100,0,16,,,,,7,,57,100
12388,note_off,,,,,100,0,12,,,,,5,,45,100
12388,note_off,,,,,100,0,14,,,,,6,,57,100
12388,note_off,,,,,100,0,13,,,,,6,,69,100
12388,note_off,,,,,0,0,13,,,,,6,,65,100
12388,note_off,,,,,100,0,11,,,,,4,,57,100
12448,note_off,,,,,64,0,9,,,,,2,,79,100
12480,note_on,,,,,112,0,8,,,,,1,,74,105
12480,note_on,,,,,92,0,12,,,,,5,,47,105
12480,note_on,,,,,92,0,14,,,,,6,,59,100
12480,note_on,,,,,92,0,16,,,,,7,,59,100
12480,note_on,,,,,92,0,11,,,,,4,,59,105
12480,note_on,,,,,32,0,9,,,,,2,,77,105
12480,note_on,,,,,92,0,13,,,,,6,,71,100
12480,note_on,,,,,0,0,13,,,,,6,,67,100
12544,note_off,,,,,64,0,9,,,,,2,,77,100
12556,note_off,,,,,1036,0,15,,,,,7,,77,100
12556,note_off,,,,,0,0,15,,,,,7,,74,100
12556,note_off,,,,,0,0,15,,,,,7,,71,100
12560,note_off,,,,,80,0,8,,,,,1,,74,100
12576,note_on,,,,,472,0,10,,,,,3,,62,105
12576,note_on,,,,,32,0,9,,,,,2,,79,105
12580,note_off,,,,,100,0,11,,,,,4,,59,100
12580,note_off,,,,,100,0,14,,,,,6,,59,100
12580,note_off,,,,,100,0,12,,,,,5,,47,100
12580,note_off,,,,,100,0,13,,,,,6,,71,100
12580,note_off,,,,,0,0,13,,,,,6,,67,100
12580,note_off,,,,,100,0,16,,,,,7,,59,100
12640,note_off,,,,,64,0,10,,,,,3,,62,100
12640,note_off,,,,,64,0,9,,,,,2,,79,100
12672,note_on,,,,,112,0,8,,,,,1,,83,105
12672,note_on,,,,,32,0,10,,,,,3,,67,105
12672,note_on,,,,,32,0,9,,,,,2,,76,105
12672,note_on,,,,,92,0,11,,,,,4,,60,105
12672,note_on,,,,,0,0,15,,,,,7,,67,100
12672,note_on,,,,,92,0,14,,,,,6,,60,100
12672,note_on,,,,,92,0,12,,,,,5,,48,105
12672,note_on,,,,,116,0,15,,,,,7,,76,100
12672,note_on,,,,,92,0,13,,,,,6,,64,100
12672,note_on,,,,,92,0,16,,,,,7,,60,100
12672,note_on,,,,,0,0,13,,,,,6,,71,100
12672,note_on,,,,,0,0,15,,,,,7,,71,100
12736,note_off,,,,,64,0,8,,,,,1,,83,100
12752,note_off,,,,,80,0,9,,,,,2,,76,100
12768,note_on,,,,,32,0,8,,,,,1,,84,105
12772,note_off,,,,,100,0,12,,,,,5,,48,100
12772,note_off,,,,,100,0,14,,,,,6,,60,100
12772,note_off,,,,,100,0,11,,,,,4,,60,100
12772,note_off,,,,,100,0,16,,,,,7,,60,100
12772,note_off,,,,,0,0,13,,,,,6,,71,100
12772,note_off,,,,,100,0,13,,,,,6,,64,100
12832,note_off,,,,,64,0,8,,,,,1,,84,100
12864,note_on,,,,,92,0,12,,,,,5,,36,105
12864,note_on,,,,,32,0,8,,,,,1,,83,105
12864,note_on,,,,,92,0,16,,,,,7,,48,100
12864,note_on,,,,,92,0,14,,,,,6,,48,100
12864,note_on,,,,,0,0,13,,,,,6,,71,100
12864,note_on,,,,,112,0,9,,,,,2,,67,105
12864,note_on,,,,,92,0,11,,,,,4,,48,105
12864,note_on,,,,,92,0,13,,,,,6,,67,100
12872,note_off,,,,,200,0,10,,,,,3,,67,100
12928,note_off,,,,,64,0,8,,,,,1,,83,100
12944,note_off,,,,,80,0,9,,,,,2,,67,100
12960,note_on,,,,,32,0,8,,,,,1,,84,105
12964,note_off,,,,,100,0,11,,,,,4,,48,100
12964,note_off,,,,,100,0,13,,,,,6,,67,100
12964,note_off,,,,,0,0,13,,,,,6,,71,100
12964,note_off,,,,,100,0,14,,,,,6,,48,100
12964,note_off,,,,,100,0,16,,,,,7,,48,100
12964,note_off,,,,,100,0,12,,,,,5,,36,100
13024,note_off,,,,,64,0,8,,,,,1,,84,100
13056,note_on,,,,,92,0,12,,,,,5,,36,104
13056,note_on,,,,,32,0,8,,,,,1,,83,104
13056,note_on,,,,,184,0,10,,,,,3,,67,104
13056,note_on,,,,,92,0,16,,,,,7,,48,100
13056,note_on,,,,,0,0,13,,,,,6,,71,100
13056,note_on,,,,,92,0,13,,,,,6,,67,100
13056,note_on,,,,,92,0,11,,,,,4,,48,104
13056,note_on,,,,,92,0,14,,,,,6,,48,100
13056,note_on,,,,,112,0,9,,,,,2,,76,104
13120,note_off,,,,,64,0,8,,,,,1,,83,100
13136,note_off,,,,,80,0,9,,,,,2,,76,100
13152,note_on,,,,,32,0,8,,,,,1,,84,104
13156,note_off,,,,,100,0,11,,,,,4,,48,100
13156,note_off,,,,,0,0,13,,,,,6,,71,100
13156,note_off,,,,,100,0,14,,,,,6,,48,100
13156,note_off,,,,,100,0,12,,,,,5,,36,100
13156,note_off,,,,,100,0,16,,,,,7,,48,100
13156,note_off,,,,,100,0,13,,,,,6,,67,100
13216,note_off,,,,,64,0,8,,,,,1,,84,100
13248,note_on,,,,,92,0,13,,,,,6,,67,100
13248,note_on,,,,,92,0,12,,,,,5,,36,104
13248,note_on,,,,,92,0,11,,,,,4,,48,104
13248,note_on,,,,,92,0,16,,,,,7,,48,100
13248,note_on,,,,,112,0,9,,,,,2,,67,104
13248,note_on,,,,,0,0,13,,,,,6,,64,100
13248,note_on,,,,,92,0,14,,,,,6,,48,100
13248,note_on,,,,,32,0,8,,,,,1,,83,104
13256,note_off,,,,,200,0,10,,,,,3,,67,100
13312,note_off,,,,,64,0,8,,,,,1,,83,100
13328,note_off,,,,,80,0,9,,,,,2,,67,100
13344,note_on,,,,,32,0,8,,,,,1,,84,104
13348,note_off,,,,,100,0,14,,,,,6,,48,100
13348,note_off,,,,,100,0,12,,,,,5,,36,100
13348,note_off,,,,,0,0,13,,,,,6,,64,100
13348,note_off,,,,,100,0,11,,,,,4,,48,100
13348,note_off,,,,,100,0,13,,,,,6,,67,100
13348,note_off,,,,,100,0,16,,,,,7,,48,100
13408,note_off,,,,,64,0,8,,,,,1,,84,100
13440,note_on,,,,,92,0,13,,,,,6,,65,100
13440,note_on,,,,,112,0,9,,,,,2,,76,103
13440,note_on,,,,,92,0,11,,,,,4,,50,103
13440,note_on,,,,,0,0,13,,,,,6,,62,100
13440,note_on,,,,,92,0,16,,,,,7,,50,100
13440,note_on,,,,,92,0,12,,,,,5,,38,103
13440,note_on,,,,,32,0,8,,,,,1,,83,103
13440,note_on,,,,,92,0,14,,,,,6,,50,100
13504,note_off,,,,,64,0,8,,,,,1,,83,100
13520,note_off,,,,,80,0,9,,,,,2,,76,100
13536,note_on,,,,,32,0,8,,,,,1,,84,103
13540,note_off,,,,,100,0,12,,,,,5,,38,100
13540,note_off,,,,,100,0,11,,,,,4,,50,100
13540,note_off,,,,,100,0,13,,,,,6,,65,100
13540,note_off,,,,,100,0,16,,,,,7,,50,100
13540,note_off,,,,,0,0,13,,,,,6,,62,100
13540,note_off,,,,,100,0,14,,,,,6,,50,100
13600,note_off,,,,,64,0,8,,,,,1,,84,100
13632,note_on,,,,,92,0,14,,,,,6,,52,100
13632,note_on,,,,,92,0,12,,,,,5,,40,103
13632,note_on,,,,,92,0,16,,,,,7,,52,100
13632,note_on,,,,,32,0,8,,,,,1,,83,103
13632,note_on,,,,,92,0,13,,,,,6,,67,100
13632,note_on,,,,,0,0,13,,,,,6,,64,100
13632,note_on,,,,,112,0,9,,,,,2,,67,103
13632,note_on,,,,,92,0,11,,,,,4,,52,103
13696,note_off,,,,,64,0,8,,,,,1,,83,100
13708,note_off,,,,,0,0,15,,,,,7,,67,100
13708,note_off,,,,,1036,0,15,,,,,7,,76,100
13708,note_off,,,,,0,0,15,,,,,7,,71,100
13712,note_off,,,,,80,0,9,,,,,2,,67,100
13728,note_on,,,,,472,0,10,,,,,3,,67,102
13728,note_on,,,,,32,0,8,,,,,1,,84,102
13732,note_off,,,,,100,0,11,,,,,4,,52,100
13732,note_off,,,,,100,0,16,,,,,7,,52,100
13732,note_off,,,,,100,0,14,,,,,6,,52,100
13732,note_off,,,,,100,0,12,,,,,5,,40,100
13732,note_off,,,,,100,0,13,,,,,6,,67,100
13732,note_off,,,,,0,0,13,,,,,6,,64,100
13792,note_off,,,,,64,0,10,,,,,3,,67,100
13792,note_off,,,,,64,0,8,,,,,1,,84,100
13824,note_on,,,,,32,0,8,,,,,1,,81,102
13824,note_on,,,,,92,0,11,,,,,4,,53,102
13824,note_on,,,,,112,0,9,,,,,2,,76,102
13824,note_on,,,,,92,0,13,,,,,6,,60,100
13824,note_on,,,,,92,0,16,,,,,7,,53,100
13824,note_on,,,,,0,0,13,,,,,6,,69,100
13824,note_on,,,,,92,0,14,,,,,6,,53,100
13824,note_on,,,,,32,0,10,,,,,3,,60,102
13824,note_on,,,,,116,0,15,,,,,7,,76,100
13824,note_on,,,,,0,0,15,,,,,7,,72,100
13824,note_on,,,,,0,0,15,,,,,7,,69,100
13824,note_on,,,,,92,0,12,,,,,5,,41,102
13888,note_off,,,,,64,0,9,,,,,2,,76,100
13904,note_off,,,,,80,0,8,,,,,1,,81,100
13920,note_on,,,,,32,0,9,,,,,2,,77,102
13924,note_off,,,,,100,0,14,,,,,6,,53,100
13924,note_off,,,,,100,0,16,,,,,7,,53,100
13924,note_off,,,,,100,0,12,,,,,5,,41,100
13924,note_off,,,,,100,0,11,,,,,4,,53,100
13924,note_off,,,,,0,0,13,,,,,6,,69,100
13924,note_off,,,,,100,0,13,,,,,6,,60,100
13984,note_off,,,,,64,0,9,,,,,2,,77,100
14016,note_on,,,,,112,0,8,,,,,1,,72,102
14016,note_on,,,,,32,0,9,,,,,2,,76,102
14016,note_on,,,,,92,0,11,,,,,4,,41,102
14016,note_on,,,,,92,0,14,,,,,6,,41,100
14016,note_on,,,,,0,0,13,,,,,6,,69,100
14016,note_on,,,,,92,0,12,,,,,5,,41,102
14016,note_on,,,,,92,0,13,,,,,6,,64,100
14016,note_on,,,,,92,0,16,,,,,7,,41,100
14024,note_off,,,,,200,0,10,,,,,3,,60,100
14080,note_off,,,,,64,0,9,,,,,2,,76,100
14096,note_off,,,,,80,0,8,,,,,1,,72,100
14112,note_on,,,,,32,0,9,,,,,2,,77,101
14116,note_off,,,,,100,0,11,,,,,4,,41,100
14116,note_off,,,,,100,0,12,,,,,5,,41,100
14116,note_off,,,,,100,0,16,,,,,7,,41,100
14116,note_off,,,,,100,0,13,,,,,6,,64,100
14116,note_off,,,,,100,0,14,,,,,6,,41,100
14116,note_off,,,,,0,0,13,,,,,6,,69,100
14176,note_off,,,,,64,0,9,,,,,2,,77,100
14208,note_on,,,,,92,0,11,,,,,4,,41,101
14208,note_on,,,,,92,0,16,,,,,7,,41,100
14208,note_on,,,,,32,0,9,,,,,2,,76,101
14208,note_on,,,,,92,0,14,,,,,6,,41,100
14208,note_on,,,,,92,0,12,,,,,5,,41,101
14208,note_on,,,,,92,0,13,,,,,6,,64,100
14208,note_on,,,,,0,0,13,,,,,6,,69,100
14208,note_on,,,,,112,0,8,,,,,1,,81,101
14208,note_on,,,,,184,0,10,,,,,3,,60,101
14272,note_off,,,,,64,0,9,,,,,2,,76,100
14288,note_off,,,,,80,0,8,,,,,1,,81,100
14304,note_on,,,,,32,0,9,,,,,2,,77,101
14308,note_off,,,,,100,0,12,,,,,5,,41,100
14308,note_off,,,,,100,0,13,,,,,6,,64,100
14308,note_off,,,,,100,0,16,,,,,7,,41,100
14308,note_off,,,,,100,0,14,,,,,6,,41,100
14308,note_off,,,,,100,0,11,,,,,4,,41,100
14308,note_off,,,,,0,0,13,,,,,6,,69,100
14368,note_off,,,,,64,0,9,,,,,2,,77,100
14400,note_on,,,,,92,0,11,,,,,4,,53,101
14400,note_on,,,,,92,0,16,,,,,7,,53,100
14400,note_on,,,,,92,0,13,,,,,6,,69,100
14400,note_on,,,,,0,0,13,,,,,6,,65,100
14400,note_on,,,,,92,0,12,,,,,5,,41,101
14400,note_on,,,,,92,0,14,,,,,6,,53,100
14400,note_on,,,,,32,0,9,,,,,2,,76,101
14400,note_on,,,,,112,0,8,,,,,1,,72,101
14408,note_off,,,,,200,0,10,,,,,3,,60,100
14464,note_off,,,,,64,0,9,,,,,2,,76,100
14480,note_off,,,,,80,0,8,,,,,1,,72,100
14496,note_on,,,,,32,0,9,,,,,2,,77,100
14500,note_off,,,,,100,0,16,,,,,7,,53,100
14500,note_off,,,,,0,0,13,,,,,6,,65,100
14500,note_off,,,,,100,0,13,,,,,6,,69,100
14500,note_off,,,,,100,0,14,,,,,6,,53,100
14500,note_off,,,,,100,0,11,,,,,4,,53,100
14500,note_off,,,,,100,0,12,,,,,5,,41,100
14560,note_off,,,,,64,0,9,,,,,2,,77,100
14592,note_on,,,,,32,0,9,,,,,2,,76,100
14592,note_on,,,,,92,0,16,,,,,7,,55,100
14592,note_on,,,,,92,0,12,,,,,5,,43,100
14592,note_on,,,,,112,0,8,,,,,1,,81,100
14592,note_on,,,,,92,0,11,,,,,4,,55,100
14592,note_on,,,,,0,0,13,,,,,6,,67,100
14592,note_on,,,,,92,0,13,,,,,6,,64,100
14592,note_on,,,,,92,0,14,,,,,6,,55,100
14656,note_off,,,,,64,0,9,,,,,2,,76,100
14672,note_off,,,,,80,0,8,,,,,1,,81,100
14688,note_on,,,,,32,0,9,,,,,2,,77,100
14692,note_off,,,,,100,0,14,,,,,6,,55,100
14692,note_off,,,,,100,0,12,,,,,5,,43,100
14692,note_off,,,,,100,0,11,,,,,4,,55,100
14692,note_off,,,,,0,0,13,,,,,6,,67,100
14692,note_off,,,,,100,0,13,,,,,6,,64,100
14692,note_off,,,,,100,0,16,,,,,7,,55,100
14752,note_off,,,,,64,0,9,,,,,2,,77,100
14784,note_on,,,,,112,0,8,,,,,1,,72,99
14784,note_on,,,,,92,0,11,,,,,4,,57,99
14784,note_on,,,,,92,0,12,,,,,5,,45,99
14784,note_on,,,,,32,0,9,,,,,2,,76,99
14784,note_on,,,,,92,0,14,,,,,6,,57,100
14784,note_on,,,,,92,0,13,,,,,6,,69,100
14784,note_on,,,,,0,0,13,,,,,6,,65,100
14784,note_on,,,,,92,0,16,,,,,7,,57,100
14848,note_off,,,,,64,0,9,,,,,2,,76,100
14860,note_off,,,,,0,0,15,,,,,7,,69,100
14860,note_off,,,,,1036,0,15,,,,,7,,76,100
14860,note_off,,,,,0,0,15,,,,,7,,72,100
14864,note_off,,,,,80,0,8,,,,,1,,72,100
14880,note_on,,,,,472,0,10,,,,,3,,60,99
14880,note_on,,,,,32,0,9,,,,,2,,77,99
14884,note_off,,,,,100,0,12,,,,,5,,45,100
14884,note_off,,,,,100,0,11,,,,,4,,57,100
14884,note_off,,,,,100,0,14,,,,,6,,57,100
14884,note_off,,,,,100,0,13,,,,,6,,69,100
14884,note_off,,,,,0,0,13,,,,,6,,65,100
14884,note_off,,,,,100,0,16,,,,,7,,57,100
14944,note_off,,,,,64,0,9,,,,,2,,77,100
14944,note_off,,,,,64,0,10,,,,,3,,60,100
14976,note_on,,,,,32,0,10,,,,,3,,65,100
14976,note_on,,,,,0,0,13,,,,,6,,69,100
14976,note_on,,,,,116,0,15,,,,,7,,74,100
14976,note_on,,,,,92,0,16,,,,,7,,59,100
14976,note_on,,,,,92,0,13,,,,,6,,62,100
14976,note_on,,,,,32,0,9,,,,,2,,74,100
14976,note_on,,,,,0,0,15,,,,,7,,69,100
14976,note_on,,,,,92,0,14,,,,,6,,59,100
14976,note_on,,,,,92,0,11,,,,,4,,59,100
14976,note_on,,,,,92,0,12,,,,,5,,47,100
14976,note_on,,,,,0,0,15,,,,,7,,65,100
14976,note_on,,,,,112,0,8,,,,,1,,81,100
15040,note_off,,,,,64,0,8,,,,,1,,81,100
15056,note_off,,,,,80,0,9,,,,,2,,74,100
15072,note_on,,,,,32,0,8,,,,,1,,83,100
15076,note_off,,,,,100,0,12,,,,,5,,47,100
15076,note_off,,,,,100,0,16,,,,,7,,59,100
15076,note_off,,,,,0,0,13,,,,,6,,69,100
15076,note_off,,,,,100,0,14,,,,,6,,59,100
15076,note_off,,,,,100,0,13,,,,,6,,62,100
15076,note_off,,,,,100,0,11,,,,,4,,59,100
15136,note_off,,,,,64,0,8,,,,,1,,83,100
15168,note_on,,,,,0,0,13,,,,,6,,69,100
15168,note_on,,,,,92,0,16,,,,,7,,47,100
15168,note_on,,,,,92,0,12,,,,,5,,35,100
15168,note_on,,,,,92,0,13,,,,,6,,65,100
15168,note_on,,,,,112,0,9,,,,,2,,65,100
15168,note_on,,,,,92,0,14,,,,,6,,47,100
15168,note_on,,,,,92,0,11,,,,,4,,47,100
15168,note_on,,,,,32,0,8,,,,,1,,81,100
15176,note_off,,,,,200,0,10,,,,,3,,65,100
15232,note_off,,,,,64,0,8,,,,,1,,81,100
15248,note_off,,,,,80,0,9,,,,,2,,65,100
15264,note_on,,,,,32,0,8,,,,,1,,83,101
15268,note_off,,,,,0,0,13,,,,,6,,69,100
15268,note_off,,,,,100,0,14,,,,,6,,47,100
15268,note_off,,,,,100,0,11,,,,,4,,47,100
15268,note_off,,,,,100,0,12,,,,,5,,35,100
15268,note_off,,,,,100,0,16,,,,,7,,47,100
15268,note_off,,,,,100,0,13,,,,,6,,65,100
15328,note_off,,,,,64,0,8,,,,,1,,83,100
15360,note_on,,,,,112,0,9,,,,,2,,74,101
15360,note_on,,,,,92,0,12,,,,,5,,35,101
15360,note_on,,,,,92,0,14,,,,,6,,47,100
15360,note_on,,,,,92,0,13,,,,,6,,65,100
15360,note_on,,,,,92,0,16,,,,,7,,47,100
15360,note_on,,,,,92,0,11,,,,,4,,47,101
15360,note_on,,,,,184,0,10,,,,,3,,65,101
15360,note_on,,,,,0,0,13,,,,,6,,69,100
15360,note_on,,,,,32,0,8,,,,,1,,81,101
15424,note_off,,,,,64,0,8,,,,,1,,81,100
15440,note_off,,,,,80,0,9,,,,,2,,74,100
15456,note_on,,,,,32,0,8,,,,,1,,83,102
15460,note_off,,,,,100,0,13,,,,,6,,65,100
15460,note_off,,,,,100,0,12,,,,,5,,35,100
15460,note_off,,,,,100,0,11,,,,,4,,47,100
15460,note_off,,,,,100,0,14,,,,,6,,47,100
15460,note_off,,,,,100,0,16,,,,,7,,47,100
15460,note_off,,,,,0,0,13,,,,,6,,69,100
15520,note_off,,,,,64,0,8,,,,,1,,83,100
15552,note_on,,,,,92,0,14,,,,,6,,47,100
15552,note_on,,,,,32,0,8,,,,,1,,81,102
15552,note_on,,,,,112,0,9,,,,,2,,65,102
15552,note_on,,,,,92,0,16,,,,,7,,47,100
15552,note_on,,,,,0,0,13,,,,,6,,62,100
15552,note_on,,,,,92,0,12,,,,,5,,35,102
15552,note_on,,,,,92,0,11,,,,,4,,47,102
15552,note_on,,,,,92,0,13,,,,,6,,65,100
15560,note_off,,,,,200,0,10,,,,,3,,65,100
15616,note_off,,,,,64,0,8,,,,,1,,81,100
15632,note_off,,,,,80,0,9,,,,,2,,65,100
15648,note_on,,,,,32,0,8,,,,,1,,83,102
15652,note_off,,,,,100,0,14,,,,,6,,47,100
15652,note_off,,,,,0,0,13,,,,,6,,62,100
15652,note_off,,,,,100,0,12,,,,,5,,35,100
15652,note_off,,,,,100,0,13,,,,,6,,65,100
15652,note_off,,,,,100,0,11,,,,,4,,47,100
15652,note_off,,,,,100,0,16,,,,,7,,47,100
15712,note_off,,,,,64,0,8,,,,,1,,83,100
15744,note_on,,,,,92,0,16,,,,,7,,48,100
15744,note_on,,,,,32,0,8,,,,,1,,81,103
15744,note_on,,,,,92,0,11,,,,,4,,48,103
15744,note_on,,,,,92,0,12,,,,,5,,36,103
15744,note_on,,,,,92,0,14,,,,,6,,48,100
15744,note_on,,,,,92,0,13,,,,,6,,64,100
15744,note_on,,,,,0,0,13,,,,,6,,60,100
15744,note_on,,,,,112,0,9,,,,,2,,74,103
15808,note_off,,,,,64,0,8,,,,,1,,81,100
15824,note_off,,,,,80,0,9,,,,,2,,74,100
15840,note_on,,,,,32,0,8,,,,,1,,83,103
15844,note_off,,,,,100,0,13,,,,,6,,64,100
15844,note_off,,,,,100,0,14,,,,,6,,48,100
15844,note_off,,,,,100,0,16,,,,,7,,48,100
15844,note_off,,,,,100,0,12,,,,,5,,36,100
15844,note_off,,,,,0,0,13,,,,,6,,60,100
15844,note_off,,,,,100,0,11,,,,,4,,48,100
15904,note_off,,,,,64,0,8,,,,,1,,83,100
15936,note_on,,,,,92,0,13,,,,,6,,65,100
15936,note_on,,,,,0,0,13,,,,,6,,62,100
15936,note_on,,,,,112,0,9,,,,,2,,65,104
15936,note_on,,,,,32,0,8,,,,,1,,81,104
15936,note_on,,,,,92,0,14,,,,,6,,50,100
15936,note_on,,,,,92,0,16,,,,,7,,50,100
15936,note_on,,,,,92,0,12,,,,,5,,38,104
15936,note_on,,,,,92,0,11,,,,,4,,50,104
16000,note_off,,,,,64,0,8,,,,,1,,81,100
16012,note_off,,,,,1036,0,15,,,,,7,,74,100
16012,note_off,,,,,0,0,15,,,,,7,,69,100
16012,note_off,,,,,0,0,15,,,,,7,,65,100
16016,note_off,,,,,80,0,9,,,,,2,,65,100
16032,note_on,,,,,32,0,8,,,,,1,,83,104
16032,note_on,,,,,472,0,10,,,,,3,,65,104
16036,note_off,,,,,100,0,11,,,,,4,,50,100
16036,note_off,,,,,100,0,16,,,,,7,,50,100
16036,note_off,,,,,100,0,14,,,,,6,,50,100
16036,note_off,,,,,100,0,13,,,,,6,,65,100
16036,note_off,,,,,0,0,13,,,,,6,,62,100
16036,note_off,,,,,100,0,12,,,,,5,,38,100
16096,note_off,,,,,64,0,8,,,,,1,,83,100
16096,note_off,,,,,64,0,10,,,,,3,,65,100
16128,note_on,,,,,92,0,16,,,,,7,,52,100
16128,note_on,,,,,92,0,12,,,,,5,,40,104
16128,note_on,,,,,0,0,15,,,,,7,,68,100
16128,note_on,,,,,0,0,15,,,,,7,,64,100
16128,note_on,,,,,92,0,13,,,,,6,,59,100
16128,note_on,,,,,92,0,14,,,,,6,,52,100
16128,note_on,,,,,112,0,9,,,,,2,,74,104
16128,note_on,,,,,0,0,13,,,,,6,,68,100
16128,note_on,,,,,116,0,15,,,,,7,,71,100
16128,note_on,,,,,32,0,10,,,,,3,,59,104
16128,note_on,,,,,92,0,11,,,,,4,,52,104
16128,note_on,,,,,32,0,8,,,,,1,,80,104
16192,note_off,,,,,64,0,9,,,,,2,,74,100
16224,note_on,,,,,32,0,9,,,,,2,,76,105
16228,note_off,,,,,100,0,16,,,,,7,,52,100
16228,note_off,,,,,100,0,14,,,,,6,,52,100
16228,note_off,,,,,100,0,11,,,,,4,,52,100
16228,note_off,,,,,100,0,13,,,,,6,,59,100
16228,note_off,,,,,100,0,12,,,,,5,,40,100
16228,note_off,,,,,0,0,13,,,,,6,,68,100
16288,note_off,,,,,64,0,9,,,,,2,,76,100
16320,note_on,,,,,92,0,16,,,,,7,,40,100
16320,note_on,,,,,92,0,12,,,,,5,,40,105
16320,note_on,,,,,92,0,13,,,,,6,,64,100
16320,note_on,,,,,92,0,11,,,,,4,,40,105
16320,note_on,,,,,0,0,13,,,,,6,,68,100
16320,note_on,,,,,92,0,14,,,,,6,,40,100
16320,note_on,,,,,32,0,9,,,,,2,,74,105
16328,note_off,,,,,200,0,10,,,,,3,,59,100
16384,note_off,,,,,64,0,9,,,,,2,,74,100
16384,note_off,,,,,256,0,8,,,,,1,,80,100
16416,note_on,,,,,32,0,9,,,,,2,,76,104
16420,note_off,,,,,100,0,11,,,,,4,,40,100
16420,note_off,,,,,100,0,13,,,,,6,,64,100
16420,note_off,,,,,0,0,13,,,,,6,,68,100
16420,note_off,,,,,100,0,12,,,,,5,,40,100
16420,note_off,,,,,100,0,16,,,,,7,,40,100
16420,note_off,,,,,100,0,14,,,,,6,,40,100
16480,note_off,,,,,64,0,9,,,,,2,,76,100
16512,note_on,,,,,32,0,9,,,,,2,,74,104
16512,note_on,,,,,92,0,13,,,,,6,,64,100
16512,note_on,,,,,92,0,14,,,,,6,,40,100
16512,note_on,,,,,0,0,13,,,,,6,,68,100
16512,note_on,,,,,92,0,12,,,,,5,,40,104
16512,note_on,,,,,92,0,11,,,,,4,,40,104
16512,note_on,,,,,92,0,16,,,,,7,,40,100
16512,note_on,,,,,184,0,10,,,,,3,,59,104
16576,note_off,,,,,64,0,9,,,,,2,,74,100
16608,note_on,,,,,32,0,9,,,,,2,,76,103
16612,note_off,,,,,100,0,14,,,,,6,,40,100
16612,note_off,,,,,100,0,12,,,,,5,,40,100
16612,note_off,,,,,100,0,16,,,,,7,,40,100
16612,note_off,,,,,100,0,13,,,,,6,,64,100
16612,note_off,,,,,100,0,11,,,,,4,,40,100
16612,note_off,,,,,0,0,13,,,,,6,,68,100
16672,note_off,,,,,64,0,9,,,,,2,,76,100
16704,note_on,,,,,92,0,14,,,,,6,,52,100
16704,note_on,,,,,0,0,13,,,,,6,,64,100
16704,note_on,,,,,92,0,11,,,,,4,,52,102
16704,note_on,,,,,32,0,9,,,,,2,,74,102
16704,note_on,,,,,92,0,12,,,,,5,,40,102
16704,note_on,,,,,92,0,13,,,,,6,,68,100
16704,note_on,,,,,92,0,16,,,,,7,,52,100
16704,note_on,,,,,320,0,8,,,,,1,,80,102
16712,note_off,,,,,200,0,10,,,,,3,,59,100
16740,note_off,,,,,612,0,15,,,,,7,,71,100
16740,note_off,,,,,0,0,15,,,,,7,,64,100
16740,note_off,,,,,0,0,15,,,,,7,,68,100
16768,note_off,,,,,64,0,9,,,,,2,,74,100
16800,note_on,,,,,32,0,9,,,,,2,,76,102
16804,note_off,,,,,100,0,16,,,,,7,,52,100
16804,note_off,,,,,100,0,11,,,,,4,,52,100
16804,note_off,,,,,100,0,13,,,,,6,,68,100
16804,note_off,,,,,0,0,13,,,,,6,,64,100
16804,note_off,,,,,100,0,14,,,,,6,,52,100
16804,note_off,,,,,100,0,8,,,,,1,,80,100
16804,note_off,,,,,100,0,12,,,,,5,,40,100
16864,note_off,,,,,64,0,9,,,,,2,,76,100
16896,note_on,,,,,0,0,13,,,,,6,,64,100
16896,note_on,,,,,32,0,9,,,,,2,,74,101
16896,note_on,,,,,92,0,8,,,,,1,,81,101
16896,note_on,,,,,0,0,15,,,,,7,,80,100
16896,note_on,,,,,92,0,16,,,,,7,,54,100
16896,note_on,,,,,0,0,15,,,,,7,,74,100
16896,note_on,,,,,156,0,15,,,,,7,,71,100
16896,note_on,,,,,92,0,12,,,,,5,,42,101
16896,note_on,,,,,92,0,11,,,,,4,,54,101
16896,note_on,,,,,92,0,13,,,,,6,,66,100
16896,note_on,,,,,92,0,14,,,,,6,,54,100
16960,note_off,,,,,64,0,9,,,,,2,,74,100
16992,note_on,,,,,32,0,9,,,,,2,,76,100
16996,note_off,,,,,100,0,11,,,,,4,,54,100
16996,note_off,,,,,100,0,14,,,,,6,,54,100
16996,note_off,,,,,100,0,13,,,,,6,,66,100
16996,note_off,,,,,100,0,16,,,,,7,,54,100
16996,note_off,,,,,100,0,12,,,,,5,,42,100
16996,note_off,,,,,100,0,8,,,,,1,,81,100
16996,note_off,,,,,0,0,13,,,,,6,,64,100
17056,note_off,,,,,64,0,9,,,,,2,,76,100
17088,note_on,,,,,92,0,16,,,,,7,,56,100
17088,note_on,,,,,32,0,9,,,,,2,,74,100
17088,note_on,,,,,92,0,8,,,,,1,,83,100
17088,note_on,,,,,92,0,11,,,,,4,,56,100
17088,note_on,,,,,0,0,13,,,,,6,,64,100
17088,note_on,,,,,92,0,12,,,,,5,,44,100
17088,note_on,,,,,92,0,14,,,,,6,,56,100
17088,note_on,,,,,92,0,13,,,,,6,,68,100
17152,note_off,,,,,64,0,9,,,,,2,,74,100
17184,note_on,,,,,472,0,10,,,,,3,,64,99
17184,note_on,,,,,32,0,9,,,,,2,,76,99
17188,note_off,,,,,100,0,13,,,,,6,,68,100
17188,note_off,,,,,0,0,13,,,,,6,,64,100
17188,note_off,,,,,100,0,12,,,,,5,,44,100
17188,note_off,,,,,100,0,16,,,,,7,,56,100
17188,note_off,,,,,100,0,14,,,,,6,,56,100
17188,note_off,,,,,100,0,8,,,,,1,,83,100
17188,note_off,,,,,100,0,11,,,,,4,,56,100
17200,note_off,,,,,304,0,15,,,,,7,,71,100
17200,note_off,,,,,0,0,15,,,,,7,,74,100
17200,note_off,,,,,0,0,15,,,,,7,,80,100
17248,note_off,,,,,64,0,10,,,,,3,,64,100
17248,note_off,,,,,64,0,9,,,,,2,,76,100
17280,note_on,,,,,32,0,10,,,,,3,,64,102
17280,note_on,,,,,92,0,14,,,,,6,,57,100
17280,note_on,,,,,92,0,12,,,,,5,,45,102
17280,note_on,,,,,0,0,15,,,,,7,,76,100
17280,note_on,,,,,92,0,8,,,,,1,,76,102
17280,note_on,,,,,32,0,9,,,,,2,,72,102
17280,note_on,,,,,0,0,13,,,,,6,,60,100
17280,note_on,,,,,0,0,13,,,,,6,,69,100
17280,note_on,,,,,92,0,11,,,,,4,,57,102
17280,note_on,,,,,0,0,15,,,,,7,,81,100
17280,note_on,,,,,92,0,16,,,,,7,,57,100
17280,note_on,,,,,92,0,13,,,,,6,,64,100
17280,note_on,,,,,80,0,15,,,,,7,,72,100
17380,note_off,,,,,100,0,11,,,,,4,,57,100
17380,note_off,,,,,100,0,16,,,,,7,,57,100
17380,note_off,,,,,100,0,12,,,,,5,,45,100
17380,note_off,,,,,100,0,14,,,,,6,,57,100
17472,note_on,,,,,92,0,11,,,,,4,,45,100
17472,note_on,,,,,92,0,12,,,,,5,,33,100
17472,note_on,,,,,92,0,16,,,,,7,,45,100
17472,note_on,,,,,92,0,14,,,,,6,,45,100
17480,note_off,,,,,200,0,10,,,,,3,,64,100
17480,note_off,,,,,200,0,8,,,,,1,,76,100
17480,note_off,,,,,200,0,9,,,,,2,,72,100
17572,note_off,,,,,100,0,16,,,,,7,,45,100
17572,note_off,,,,,100,0,12,,,,,5,,33,100
17572,note_off,,,,,100,0,14,,,,,6,,45,100
17572,note_off,,,,,100,0,11,,,,,4,,45,100
17664,note_off,,,,,384,0,13,,,,,6,,64,100
17664,note_on,,,,,184,0,10,,,,,3,,64,100
17664,note_on,,,,,184,0,8,,,,,1,,69,100
17664,note_on,,,,,92,0,11,,,,,4,,45,100
17664,note_on,,,,,184,0,9,,,,,2,,72,100
17664,note_on,,,,,92,0,12,,,,,5,,33,100
17664,note_on,,,,,92,0,14,,,,,6,,45,100
17664,note_on,,,,,92,0,16,,,,,7,,45,100
17764,note_off,,,,,100,0,11,,,,,4,,45,100
17764,note_off,,,,,100,0,12,,,,,5,,33,100
17764,note_off,,,,,100,0,14,,,,,6,,45,100
17764,note_off,,,,,100,0,16,,,,,7,,45,100
17796,note_off,,,,,132,0,13,,,,,6,,69,100
17796,note_off,,,,,0,0,13,,,,,6,,60,100
17796,note_off,,,,,0,0,15,,,,,7,,81,100
17796,note_off,,,,,0,0,15,,,,,7,,76,100
17796,note_off,,,,,516,0,15,,,,,7,,72,100
17856,note_on,,,,,60,0,13,,,,,6,,68,100
17856,note_on,,,,,92,0,16,,,,,7,,52,100
17856,note_on,,,,,60,0,15,,,,,7,,79,100
17856,note_on,,,,,92,0,14,,,,,6,,52,100
17856,note_on,,,,,92,0,11,,,,,4,,52,100
17856,note_on,,,,,92,0,12,,,,,5,,40,100
17864,note_off,,,,,200,0,10,,,,,3,,64,100
17864,note_off,,,,,200,0,9,,,,,2,,72,100
17864,note_off,,,,,200,0,8,,,,,1,,69,100
17948,note_off,,,,,92,0,15,,,,,7,,79,100
17952,note_on,,,,,4,0,15,,,,,7,,77,100
17956,note_off,,,,,100,0,11,,,,,4,,52,100
17956,note_off,,,,,100,0,12,,,,,5,,40,100
17956,note_off,,,,,100,0,16,,,,,7,,52,100
17956,note_off,,,,,100,0,14,,,,,6,,52,100
17956,note_off,,,,,100,0,13,,,,,6,,68,100
18044,note_off,,,,,92,0,15,,,,,7,,77,100
18048,note_on,,,,,92,0,12,,,,,5,,42,100
18048,note_on,,,,,92,0,13,,,,,6,,69,100
18048,note_on,,,,,92,0,14,,,,,6,,54,100
18048,note_on,,,,,92,0,16,,,,,7,,54,100
18048,note_on,,,,,4,0,15,,,,,7,,76,100
18048,note_on,,,,,92,0,11,,,,,4,,54,100
18140,note_off,,,,,92,0,15,,,,,7,,76,100
18144,note_on,,,,,4,0,15,,,,,7,,74,100
18148,note_off,,,,,100,0,11,,,,,4,,54,100
18148,note_off,,,,,100,0,14,,,,,6,,54,100
18148,note_off,,,,,100,0,13,,,,,6,,69,100
18148,note_off,,,,,100,0,12,,,,,5,,42,100
18148,note_off,,,,,100,0,16,,,,,7,,54,100
18236,note_off,,,,,92,0,15,,,,,7,,74,100
18240,note_on,,,,,92,0,11,,,,,4,,56,100
18240,note_on,,,,,4,0,15,,,,,7,,72,100
18240,note_on,,,,,0,0,13,,,,,6,,62,100
18240,note_on,,,,,92,0,13,,,,,6,,68,100
18240,note_on,,,,,92,0,14,,,,,6,,56,100
18240,note_on,,,,,92,0,16,,,,,7,,56,100
18240,note_on,,,,,92,0,12,,,,,5,,44,100
18332,note_off,,,,,92,0,15,,,,,7,,72,100
18336,note_on,,,,,4,0,15,,,,,7,,71,100
18336,note_on,,,,,472,0,9,,,,,2,,74,100
18336,note_on,,,,,472,0,10,,,,,3,,71,100
18336,note_on,,,,,472,0,8,,,,,1,,77,100
18340,note_off,,,,,100,0,14,,,,,6,,56,100
18340,note_off,,,,,100,0,12,,,,,5,,44,100
18340,note_off,,,,,100,0,13,,,,,6,,68,100
18340,note_off,,,,,0,0,13,,,,,6,,62,100
18340,note_off,,,,,100,0,11,,,,,4,,56,100
18340,note_off,,,,,100,0,16,,,,,7,,56,100
18400,note_off,,,,,64,0,10,,,,,3,,71,100
18400,note_off,,,,,64,0,8,,,,,1,,77,100
18400,note_off,,,,,64,0,9,,,,,2,,74,100
18428,note_off,,,,,92,0,15,,,,,7,,71,100
18432,note_on,,,,,92,0,11,,,,,4,,57,100
18432,note_on,,,,,92,0,16,,,,,7,,57,100
18432,note_on,,,,,0,0,13,,,,,6,,60,100
18432,note_on,,,,,32,0,10,,,,,3,,72,100
18432,note_on,,,,,92,0,12,,,,,5,,45,100
18432,note_on,,,,,0,0,13,,,,,6,,69,100
18432,note_on,,,,,92,0,13,,,,,6,,64,100
18432,note_on,,,,,4,0,15,,,,,7,,69,100
18432,note_on,,,,,92,0,14,,,,,6,,57,100
18432,note_on,,,,,0,0,15,,,,,7,,60,100
18432,note_on,,,,,32,0,8,,,,,1,,76,100
18432,note_on,,,,,32,0,9,,,,,2,,72,100
18532,note_off,,,,,100,0,14,,,,,6,,57,100
18532,note_off,,,,,100,0,16,,,,,7,,57,100
18532,note_off,,,,,100,0,12,,,,,5,,45,100
18532,note_off,,,,,100,0,11,,,,,4,,57,100
18624,note_on,,,,,92,0,12,,,,,5,,33,96
18624,note_on,,,,,92,0,14,,,,,6,,45,100
18624,note_on,,,,,92,0,16,,,,,7,,45,100
18624,note_on,,,,,92,0,11,,,,,4,,45,96
18632,note_off,,,,,200,0,8,,,,,1,,76,100
18632,note_off,,,,,200,0,9,,,,,2,,72,100
18632,note_off,,,,,200,0,10,,,,,3,,72,100
18724,note_off,,,,,100,0,12,,,,,5,,33,100
18724,note_off,,,,,100,0,16,,,,,7,,45,100
18724,note_off,,,,,100,0,11,,,,,4,,45,100
18724,note_off,,,,,100,0,14,,,,,6,,45,100
18816,note_on,,,,,92,0,12,,,,,5,,33,92
18816,note_on,,,,,184,0,10,,,,,3,,64,92
18816,note_on,,,,,184,0,8,,,,,1,,69,92
18816,note_on,,,,,184,0,9,,,,,2,,72,92
18816,note_on,,,,,92,0,11,,,,,4,,45,92
18816,note_on,,,,,92,0,14,,,,,6,,45,100
18816,note_off,,,,,384,0,13,,,,,6,,64,100
18816,note_on,,,,,92,0,16,,,,,7,,45,100
18916,note_off,,,,,100,0,12,,,,,5,,33,100
18916,note_off,,,,,100,0,11,,,,,4,,45,100
18916,note_off,,,,,100,0,16,,,,,7,,45,100
18916,note_off,,,,,100,0,14,,,,,6,,45,100
18948,note_off,,,,,132,0,13,,,,,6,,69,100
18948,note_off,,,,,516,0,15,,,,,7,,69,100
18948,note_off,,,,,0,0,15,,,,,7,,60,100
18948,note_off,,,,,0,0,13,,,,,6,,60,100
19008,note_on,,,,,92,0,12,,,,,5,,40,88
19008,note_on,,,,,92,0,11,,,,,4,,40,88
19008,note_on,,,,,60,0,15,,,,,7,,67,100
19008,note_on,,,,,92,0,14,,,,,6,,40,100
19008,note_on,,,,,60,0,13,,,,,6,,56,100
19008,note_on,,,,,92,0,16,,,,,7,,40,100
19016,note_off,,,,,200,0,10,,,,,3,,64,100
19016,note_off,,,,,200,0,9,,,,,2,,72,100
19016,note_off,,,,,200,0,8,,,,,1,,69,100
19100,note_off,,,,,92,0,15,,,,,7,,67,100
19104,note_on,,,,,4,0,15,,,,,7,,65,100
19108,note_off,,,,,100,0,12,,,,,5,,40,100
19108,note_off,,,,,100,0,11,,,,,4,,40,100
19108,note_off,,,,,100,0,16,,,,,7,,40,100
19108,note_off,,,,,100,0,14,,,,,6,,40,100
19108,note_off,,,,,100,0,13,,,,,6,,56,100
19196,note_off,,,,,92,0,15,,,,,7,,65,100
19200,note_on,,,,,92,0,16,,,,,7,,42,100
19200,note_on,,,,,92,0,12,,,,,5,,42,84
19200,note_on,,,,,4,0,15,,,,,7,,64,100
19200,note_on,,,,,92,0,14,,,,,6,,42,100
19200,note_on,,,,,92,0,11,,,,,4,,42,84
19200,note_on,,,,,92,0,13,,,,,6,,57,100
19292,note_off,,,,,92,0,15,,,,,7,,64,100
19296,note_on,,,,,4,0,15,,,,,7,,62,100
19300,note_off,,,,,100,0,11,,,,,4,,42,100
19300,note_off,,,,,100,0,12,,,,,5,,42,100
19300,note_off,,,,,100,0,13,,,,,6,,57,100
19300,note_off,,,,,100,0,16,,,,,7,,42,100
19300,note_off,,,,,100,0,14,,,,,6,,42,100
19388,note_off,,,,,92,0,15,,,,,7,,62,100
19392,note_on,,,,,92,0,12,,,,,5,,44,80
19392,note_on,,,,,92,0,13,,,,,6,,62,100
19392,note_on,,,,,0,0,13,,,,,6,,56,100
19392,note_on,,,,,92,0,11,,,,,4,,44,80
19392,note_on,,,,,92,0,14,,,,,6,,44,100
19392,note_on,,,,,92,0,16,,,,,7,,44,100
19392,note_on,,,,,4,0,15,,,,,7,,60,100
19484,note_off,,,,,92,0,15,,,,,7,,60,100
19488,note_on,,,,,472,0,10,,,,,3,,59,78
19488,note_on,,,,,472,0,9,,,,,2,,62,78
19488,note_on,,,,,472,0,8,,,,,1,,65,78
19488,note_on,,,,,4,0,15,,,,,7,,59,100
19492,note_off,,,,,100,0,12,,,,,5,,44,100
19492,note_off,,,,,0,0,13,,,,,6,,56,100
19492,note_off,,,,,100,0,13,,,,,6,,62,100
19492,note_off,,,,,100,0,16,,,,,7,,44,100
19492,note_off,,,,,100,0,11,,,,,4,,44,100
19492,note_off,,,,,100,0,14,,,,,6,,44,100
19552,note_off,,,,,64,0,8,,,,,1,,65,100
19552,note_off,,,,,64,0,9,,,,,2,,62,100
19552,note_off,,,,,64,0,10,,,,,3,,59,100
19580,note_off,,,,,92,0,15,,,,,7,,59,100
19584,note_on,,,,,92,0,13,,,,,6,,57,100
19584,note_on,,,,,92,0,16,,,,,7,,45,100
19584,note_on,,,,,32,0,10,,,,,3,,60,75
19584,note_on,,,,,0,0,13,,,,,6,,60,100
19584,note_on,,,,,92,0,11,,,,,4,,45,75
19584,note_on,,,,,92,0,14,,,,,6,,45,100
19584,note_on,,,,,92,0,12,,,,,5,,33,75
19584,note_on,,,,,0,0,15,,,,,7,,60,100
19584,note_on,,,,,4,0,15,,,,,7,,57,100
19584,note_on,,,,,32,0,9,,,,,2,,60,75
19584,note_on,,,,,32,0,8,,,,,1,,64,75
19684,note_off,,,,,100,0,14,,,,,6,,45,100
19684,note_off,,,,,100,0,12,,,,,5,,33,100
19684,note_off,,,,,100,0,16,,,,,7,,45,100
19684,note_off,,,,,100,0,11,,,,,4,,45,100
19776,note_on,,,,,92,0,11,,,,,4,,45,75
19776,note_on,,,,,92,0,16,,,,,7,,45,100
19776,note_on,,,,,92,0,12,,,,,5,,33,75
19776,note_on,,,,,92,0,14,,,,,6,,45,100
19784,note_off,,,,,200,0,8,,,,,1,,64,100
19784,note_off,,,,,200,0,9,,,,,2,,60,100
19784,note_off,,,,,200,0,10,,,,,3,,60,100
19876,note_off,,,,,100,0,12,,,,,5,,33,100
19876,note_off,,,,,100,0,14,,,,,6,,45,100
19876,note_off,,,,,100,0,11,,,,,4,,45,100
19876,note_off,,,,,100,0,16,,,,,7,,45,100
19968,note_on,,,,,92,0,12,,,,,5,,33,75
19968,note_on,,,,,184,0,8,,,,,1,,57,75
19968,note_on,,,,,92,0,16,,,,,7,,45,100
19968,note_on,,,,,184,0,10,,,,,3,,52,75
19968,note_on,,,,,92,0,11,,,,,4,,45,75
19968,note_on,,,,,92,0,14,,,,,6,,45,100
19968,note_on,,,,,184,0,9,,,,,2,,60,75
20068,note_off,,,,,100,0,16,,,,,7,,45,100
20068,note_off,,,,,100,0,12,,,,,5,,33,100
20068,note_off,,,,,100,0,14,,,,,6,,45,100
20068,note_off,,,,,100,0,11,,,,,4,,45,100
20100,note_off,,,,,516,0,15,,,,,7,,57,100
20100,note_off,,,,,0,0,13,,,,,6,,60,100
20100,note_off,,,,,516,0,13,,,,,6,,57,100
20100,note_off,,,,,0,0,15,,,,,7,,60,100
20160,note_on,,,,,60,0,15,,,,,7,,56,100
20160,note_on,,,,,92,0,14,,,,,6,,40,100
20160,note_on,,,,,92,0,16,,,,,7,,40,100
20160,note_on,,,,,60,0,13,,,,,6,,56,100
20160,note_on,,,,,92,0,11,,,,,4,,40,75
20160,note_on,,,,,92,0,12,,,,,5,,40,75
20168,note_off,,,,,200,0,8,,,,,1,,57,100
20168,note_off,,,,,200,0,9,,,,,2,,60,100
20168,note_off,,,,,200,0,10,,,,,3,,52,100
20260,note_off,,,,,100,0,12,,,,,5,,40,100
20260,note_off,,,,,100,0,13,,,,,6,,56,100
20260,note_off,,,,,100,0,11,,,,,4,,40,100
20260,note_off,,,,,100,0,15,,,,,7,,56,100
20260,note_off,,,,,100,0,16,,,,,7,,40,100
20260,note_off,,,,,100,0,14,,,,,6,,40,100
20352,note_on,,,,,92,0,14,,,,,6,,42,100
20352,note_on,,,,,92,0,13,,,,,6,,57,100
20352,note_on,,,,,92,0,11,,,,,4,,42,75
20352,note_on,,,,,92,0,16,,,,,7,,42,100
20352,note_on,,,,,92,0,15,,,,,7,,57,100
20352,note_on,,,,,92,0,12,,,,,5,,42,75
20452,note_off,,,,,100,0,15,,,,,7,,57,100
20452,note_off,,,,,100,0,16,,,,,7,,42,100
20452,note_off,,,,,100,0,11,,,,,4,,42,100
20452,note_off,,,,,100,0,14,,,,,6,,42,100
20452,note_off,,,,,100,0,13,,,,,6,,57,100
20452,note_off,,,,,100,0,12,,,,,5,,42,100
20544,note_on,,,,,92,0,14,,,,,6,,44,100
20544,note_on,,,,,92,0,12,,,,,5,,44,75
20544,note_on,,,,,0,0,13,,,,,6,,62,100
20544,note_on,,,,,92,0,16,,,,,7,,44,100
20544,note_on,,,,,0,0,15,,,,,7,,62,100
20544,note_on,,,,,92,0,15,,,,,7,,56,100
20544,note_on,,,,,92,0,13,,,,,6,,56,100
20544,note_on,,,,,92,0,11,,,,,4,,44,75
20640,note_on,,,,,472,0,8,,,,,1,,65,75
20640,note_on,,,,,472,0,10,,,,,3,,59,75
20640,note_on,,,,,472,0,9,,,,,2,,62,75
20644,note_off,,,,,100,0,14,,,,,6,,44,100
20644,note_off,,,,,0,0,13,,,,,6,,62,100
20644,note_off,,,,,100,0,13,,,,,6,,56,100
20644,note_off,,,,,100,0,12,,,,,5,,44,100
20644,note_off,,,,,0,0,15,,,,,7,,62,100
20644,note_off,,,,,100,0,15,,,,,7,,56,100
20644,note_off,,,,,100,0,16,,,,,7,,44,100
20644,note_off,,,,,100,0,11,,,,,4,,44,100
20704,note_off,,,,,64,0,8,,,,,1,,65,100
20704,note_off,,,,,64,0,10,,,,,3,,59,100
20704,note_off,,,,,64,0,9,,,,,2,,62,100
20736,note_on,,,,,0,0,15,,,,,7,,60,100
20736,note_on,,,,,92,0,11,,,,,4,,45,75
20736,note_on,,,,,32,0,8,,,,,1,,64,75
20736,note_on,,,,,92,0,16,,,,,7,,45,100
20736,note_on,,,,,92,0,14,,,,,6,,45,100
20736,note_on,,,,,32,0,9,,,,,2,,60,75
20736,note_on,,,,,92,0,12,,,,,5,,33,75
20736,note_on,,,,,32,0,10,,,,,3,,60,75
20736,note_on,,,,,0,0,13,,,,,6,,60,100
20736,note_on,,,,,92,0,15,,,,,7,,57,100
20736,note_on,,,,,92,0,13,,,,,6,,57,100
20836,note_off,,,,,100,0,14,,,,,6,,45,100
20836,note_off,,,,,100,0,12,,,,,5,,33,100
20836,note_off,,,,,100,0,11,,,,,4,,45,100
20836,note_off,,,,,100,0,16,,,,,7,,45,100
20928,note_on,,,,,92,0,12,,,,,5,,33,75
20928,note_on,,,,,92,0,16,,,,,7,,45,100
20928,note_on,,,,,92,0,11,,,,,4,,45,75
20928,note_on,,,,,92,0,14,,,,,6,,45,100
20936,note_off,,,,,200,0,10,,,,,3,,60,100
20936,note_off,,,,,200,0,8,,,,,1,,64,100
20936,note_off,,,,,200,0,9,,,,,2,,60,100
21028,note_off,,,,,100,0,12,,,,,5,,33,100
21028,note_off,,,,,100,0,16,,,,,7,,45,100
21028,note_off,,,,,100,0,11,,,,,4,,45,100
21028,note_off,,,,,100,0,14,,,,,6,,45,100
21120,note_on,,,,,92,0,12,,,,,5,,33,75
21120,note_on,,,,,184,0,8,,,,,1,,57,75
21120,note_on,,,,,184,0,10,,,,,3,,52,75
21120,note_on,,,,,184,0,9,,,,,2,,60,75
21120,note_on,,,,,92,0,14,,,,,6,,45,100
21120,note_on,,,,,92,0,16,,,,,7,,45,100
21120,note_on,,,,,92,0,11,,,,,4,,45,75
21220,note_off,,,,,100,0,14,,,,,6,,45,100
21220,note_off,,,,,100,0,16,,,,,7,,45,100
21220,note_off,,,,,100,0,12,,,,,5,,33,100
21220,note_off,,,,,100,0,11,,,,,4,,45,100
21252,note_off,,,,,0,0,15,,,,,7,,60,100
21252,note_off,,,,,516,0,15,,,,,7,,57,100
21252,note_off,,,,,516,0,13,,,,,6,,57,100
21252,note_off,,,,,0,0,13,,,,,6,,60,100
21312,note_on,,,,,60,0,15,,,,,7,,68,100
21312,note_on,,,,,92,0,16,,,,,7,,40,100
21312,note_on,,,,,60,0,13,,,,,6,,68,100
21312,note_on,,,,,92,0,11,,,,,4,,40,90
21312,note_on,,,,,92,0,14,,,,,6,,40,100
21312,note_on,,,,,92,0,12,,,,,5,,40,90
21320,note_off,,,,,200,0,9,,,,,2,,60,100
21320,note_off,,,,,200,0,8,,,,,1,,57,100
21320,note_off,,,,,200,0,10,,,,,3,,52,100
21412,note_off,,,,,100,0,16,,,,,7,,40,100
21412,note_off,,,,,100,0,12,,,,,5,,40,100
21412,note_off,,,,,100,0,14,,,,,6,,40,100
21412,note_off,,,,,100,0,11,,,,,4,,40,100
21412,note_off,,,,,100,0,15,,,,,7,,68,100
21412,note_off,,,,,100,0,13,,,,,6,,68,100
21504,note_on,,,,,92,0,12,,,,,5,,42,93
21504,note_on,,,,,92,0,13,,,,,6,,69,100
21504,note_on,,,,,92,0,11,,,,,4,,42,93
21504,note_on,,,,,92,0,14,,,,,6,,42,100
21504,note_on,,,,,92,0,15,,,,,7,,69,100
21504,note_on,,,,,92,0,16,,,,,7,,42,100
21604,note_off,,,,,100,0,11,,,,,4,,42,100
21604,note_off,,,,,100,0,12,,,,,5,,42,100
21604,note_off,,,,,100,0,15,,,,,7,,69,100
21604,note_off,,,,,100,0,14,,,,,6,,42,100
21604,note_off,,,,,100,0,16,,,,,7,,42,100
21604,note_off,,,,,100,0,13,,,,,6,,69,100
21696,note_on,,,,,0,0,13,,,,,6,,68,100
21696,note_on,,,,,92,0,12,,,,,5,,44,97
21696,note_on,,,,,92,0,16,,,,,7,,44,100
21696,note_on,,,,,92,0,11,,,,,4,,44,97
21696,note_on,,,,,92,0,15,,,,,7,,71,100
21696,note_on,,,,,0,0,15,,,,,7,,68,100
21696,note_on,,,,,92,0,14,,,,,6,,44,100
21696,note_on,,,,,92,0,13,,,,,6,,71,100
21792,note_on,,,,,472,0,10,,,,,3,,71,99
21792,note_on,,,,,472,0,8,,,,,1,,77,99
21792,note_on,,,,,472,0,9,,,,,2,,74,99
21796,note_off,,,,,0,0,13,,,,,6,,68,100
21796,note_off,,,,,0,0,15,,,,,7,,68,100
21796,note_off,,,,,100,0,11,,,,,4,,44,100
21796,note_off,,,,,100,0,14,,,,,6,,44,100
21796,note_off,,,,,100,0,15,,,,,7,,71,100
21796,note_off,,,,,100,0,13,,,,,6,,71,100
21796,note_off,,,,,100,0,16,,,,,7,,44,100
21796,note_off,,,,,100,0,12,,,,,5,,44,100
21856,note_off,,,,,64,0,10,,,,,3,,71,100
21856,note_off,,,,,64,0,9,,,,,2,,74,100
21856,note_off,,,,,64,0,8,,,,,1,,77,100
21888,note_on,,,,,32,0,10,,,,,3,,64,101
21888,note_on,,,,,92,0,11,,,,,4,,45,101
21888,note_on,,,,,92,0,14,,,,,6,,45,100
21888,note_on,,,,,92,0,15,,,,,7,,72,100
21888,note_on,,,,,0,0,15,,,,,7,,69,100
21888,note_on,,,,,32,0,9,,,,,2,,72,101
21888,note_on,,,,,92,0,13,,,,,6,,72,100
21888,note_on,,,,,92,0,12,,,,,5,,33,101
21888,note_on,,,,,0,0,13,,,,,6,,69,100
21888,note_on,,,,,32,0,8,,,,,1,,76,101
21888,note_on,,,,,92,0,16,,,,,7,,45,100
21988,note_off,,,,,100,0,8,,,,,1,,76,100
21988,note_off,,,,,100,0,9,,,,,2,,72,100
22080,note_on,,,,,92,0,8,,,,,1,,69,100
22080,note_on,,,,,92,0,9,,,,,2,,69,100
22144,note_off,,,,,256,0,11,,,,,4,,45,100
22144,note_off,,,,,256,0,13,,,,,6,,72,100
22144,note_off,,,,,256,0,14,,,,,6,,45,100
22144,note_off,,,,,0,0,15,,,,,7,,69,100
22144,note_off,,,,,256,0,15,,,,,7,,72,100
22144,note_off,,,,,256,0,16,,,,,7,,45,100
22144,note_off,,,,,256,0,10,,,,,3,,64,100
22144,note_off,,,,,256,0,12,,,,,5,,33,100
22144,note_off,,,,,0,0,13,,,,,6,,69,100
22180,note_off,,,,,100,0,8,,,,,1,,69,100
22180,note_off,,,,,100,0,9,,,,,2,,69,100
22272,note_on,,,,,92,0,9,,,,,2,,81,100
22272,note_on,,,,,92,0,8,,,,,1,,81,100
22352,note_off,,,,,80,0,9,,,,,2,,81,100
22352,note_off,,,,,80,0,8,,,,,1,,81,100
22464,note_on,,,,,112,0,9,,,,,2,,81,100
22464,note_on,,,,,320,0,12,,,,,5,,36,100
22464,note_on,,,,,320,0,13,,,,,6,,60,100
22464,note_on,,,,,320,0,14,,,,,6,,48,100
22464,note_on,,,,,112,0,8,,,,,1,,81,100
22464,note_on,,,,,320,0,15,,,,,7,,60,100
22464,note_on,,,,,320,0,11,,,,,4,,48,100
22464,note_on,,,,,320,0,10,,,,,3,,60,100
22464,note_on,,,,,320,0,16,,,,,7,,48,100
22544,note_off,,,,,80,0,9,,,,,2,,81,100
22544,note_off,,,,,80,0,8,,,,,1,,81,100
22564,note_off,,,,,100,0,11,,,,,4,,48,100
22564,note_off,,,,,100,0,12,,,,,5,,36,100
22564,note_off,,,,,100,0,13,,,,,6,,60,100
22564,note_off,,,,,100,0,15,,,,,7,,60,100
22564,note_off,,,,,100,0,10,,,,,3,,60,100
22564,note_off,,,,,100,0,16,,,,,7,,48,100
22564,note_off,,,,,100,0,14,,,,,6,,48,100
22656,note_on,,,,,92,0,16,,,,,7,,50,100
22656,note_on,,,,,112,0,8,,,,,1,,81,100
22656,note_on,,,,,92,0,10,,,,,3,,62,100
22656,note_on,,,,,92,0,14,,,,,6,,50,100
22656,note_on,,,,,92,0,15,,,,,7,,62,100
22656,note_on,,,,,92,0,11,,,,,4,,50,100
22656,note_on,,,,,112,0,9,,,,,2,,81,100
22656,note_on,,,,,92,0,13,,,,,6,,62,100
22656,note_on,,,,,92,0,12,,,,,5,,38,100
22736,note_off,,,,,80,0,9,,,,,2,,81,100
22736,note_off,,,,,80,0,8,,,,,1,,81,100
22756,note_off,,,,,100,0,12,,,,,5,,38,100
22756,note_off,,,,,100,0,10,,,,,3,,62,100
22756,note_off,,,,,100,0,15,,,,,7,,62,100
22756,note_off,,,,,100,0,16,,,,,7,,50,100
22756,note_off,,,,,100,0,11,,,,,4,,50,100
22756,note_off,,,,,100,0,13,,,,,6,,62,100
22756,note_off,,,,,100,0,14,,,,,6,,50,100
22848,note_on,,,,,112,0,9,,,,,2,,81,100
22848,note_on,,,,,92,0,11,,,,,4,,52,100
22848,note_on,,,,,92,0,15,,,,,7,,64,100
22848,note_on,,,,,92,0,13,,,,,6,,64,100
22848,note_on,,,,,112,0,8,,,,,1,,81,100
22848,note_on,,,,,92,0,14,,,,,6,,52,100
22848,note_on,,,,,92,0,10,,,,,3,,64,100
22848,note_on,,,,,92,0,16,,,,,7,,52,100
22848,note_on,,,,,92,0,12,,,,,5,,40,100
22928,note_off,,,,,80,0,9,,,,,2,,81,100
22928,note_off,,,,,80,0,8,,,,,1,,81,100
22948,note_off,,,,,100,0,10,,,,,3,,64,100
22948,note_off,,,,,100,0,16,,,,,7,,52,100
22948,note_off,,,,,100,0,12,,,,,5,,40,100
22948,note_off,,,,,100,0,14,,,,,6,,52,100
22948,note_off,,,,,100,0,13,,,,,6,,64,100
22948,note_off,,,,,100,0,15,,,,,7,,64,100
22948,note_off,,,,,100,0,11,,,,,4,,52,100
23040,note_on,,,,,112,0,8,,,,,1,,81,100
23040,note_on,,,,,92,0,10,,,,,3,,65,100
23040,note_on,,,,,92,0,16,,,,,7,,53,100
23040,note_on,,,,,92,0,13,,,,,6,,65,100
23040,note_on,,,,,92,0,14,,,,,6,,53,100
23040,note_on,,,,,92,0,12,,,,,5,,41,100
23040,note_on,,,,,92,0,15,,,,,7,,65,100
23040,note_on,,,,,112,0,9,,,,,2,,81,100
23040,note_on,,,,,92,0,11,,,,,4,,53,100
23120,note_off,,,,,80,0,8,,,,,1,,81,100
23120,note_off,,,,,80,0,9,,,,,2,,81,100
23232,note_on,,,,,112,0,9,,,,,2,,69,100
23232,note_on,,,,,112,0,8,,,,,1,,69,100
23296,note_off,,,,,256,0,11,,,,,4,,53,100
23296,note_off,,,,,256,0,13,,,,,6,,65,100
23296,note_off,,,,,256,0,10,,,,,3,,65,100
23296,note_off,,,,,256,0,15,,,,,7,,65,100
23296,note_off,,,,,256,0,12,,,,,5,,41,100
23296,note_off,,,,,256,0,16,,,,,7,,53,100
23296,note_off,,,,,256,0,14,,,,,6,,53,100
23312,note_off,,,,,80,0,8,,,,,1,,69,100
23312,note_off,,,,,80,0,9,,,,,2,,69,100
23424,note_on,,,,,112,0,9,,,,,2,,81,75
23424,note_on,,,,,112,0,8,,,,,1,,81,75
23504,note_off,,,,,80,0,9,,,,,2,,81,100
23504,note_off,,,,,80,0,8,,,,,1,,81,100
23616,note_on,,,,,320,0,16,,,,,7,,48,100
23616,note_on,,,,,320,0,14,,,,,6,,48,100
23616,note_on,,,,,112,0,8,,,,,1,,81,75
23616,note_on,,,,,112,0,9,,,,,2,,81,75
23616,note_on,,,,,320,0,13,,,,,6,,60,100
23616,note_on,,,,,320,0,11,,,,,4,,48,75
23616,note_on,,,,,320,0,15,,,,,7,,60,100
23616,note_on,,,,,320,0,10,,,,,3,,60,75
23616,note_on,,,,,320,0,12,,,,,5,,36,75
23696,note_off,,,,,80,0,9,,,,,2,,81,100
23696,note_off,,,,,80,0,8,,,,,1,,81,100
23716,note_off,,,,,100,0,13,,,,,6,,60,100
23716,note_off,,,,,100,0,11,,,,,4,,48,100
23716,note_off,,,,,100,0,15,,,,,7,,60,100
23716,note_off,,,,,100,0,16,,,,,7,,48,100
23716,note_off,,,,,100,0,10,,,,,3,,60,100
23716,note_off,,,,,100,0,12,,,,,5,,36,100
23716,note_off,,,,,100,0,14,,,,,6,,48,100
23808,note_on,,,,,92,0,12,,,,,5,,38,75
23808,note_on,,,,,92,0,15,,,,,7,,62,100
23808,note_on,,,,,92,0,13,,,,,6,,62,100
23808,note_on,,,,,92,0,11,,,,,4,,50,75
23808,note_on,,,,,92,0,16,,,,,7,,50,100
23808,note_on,,,,,92,0,10,,,,,3,,62,75
23808,note_on,,,,,112,0,9,,,,,2,,81,75
23808,note_on,,,,,112,0,8,,,,,1,,81,75
23808,note_on,,,,,92,0,14,,,,,6,,50,100
23888,note_off,,,,,80,0,9,,,,,2,,81,100
23888,note_off,,,,,80,0,8,,,,,1,,81,100
23908,note_off,,,,,100,0,16,,,,,7,,50,100
23908,note_off,,,,,100,0,13,,,,,6,,62,100
23908,note_off,,,,,100,0,11,,,,,4,,50,100
23908,note_off,,,,,100,0,15,,,,,7,,62,100
23908,note_off,,,,,100,0,14,,,,,6,,50,100
23908,note_off,,,,,100,0,12,,,,,5,,38,100
23908,note_off,,,,,100,0,10,,,,,3,,62,100
24000,note_on,,,,,92,0,13,,,,,6,,64,100
24000,note_on,,,,,92,0,11,,,,,4,,52,75
24000,note_on,,,,,112,0,8,,,,,1,,81,75
24000,note_on,,,,,92,0,16,,,,,7,,52,100
24000,note_on,,,,,92,0,15,,,,,7,,64,100
24000,note_on,,,,,112,0,9,,,,,2,,81,75
24000,note_on,,,,,92,0,12,,,,,5,,40,75
24000,note_on,,,,,92,0,10,,,,,3,,64,75
24000,note_on,,,,,92,0,14,,,,,6,,52,100
24080,note_off,,,,,80,0,8,,,,,1,,81,100
24080,note_off,,,,,80,0,9,,,,,2,,81,100
24100,note_off,,,,,100,0,12,,,,,5,,40,100
24100,note_off,,,,,100,0,14,,,,,6,,52,100
24100,note_off,,,,,100,0,13,,,,,6,,64,100
24100,note_off,,,,,100,0,16,,,,,7,,52,100
24100,note_off,,,,,100,0,15,,,,,7,,64,100
24100,note_off,,,,,100,0,11,,,,,4,,52,100
24100,note_off,,,,,100,0,10,,,,,3,,64,100
24192,note_on,,,,,92,0,13,,,,,6,,65,100
24192,note_on,,,,,92,0,16,,,,,7,,53,100
24192,note_on,,,,,92,0,11,,,,,4,,53,75
24192,note_on,,,,,112,0,8,,,,,1,,81,75
24192,note_on,,,,,92,0,12,,,,,5,,41,75
24192,note_on,,,,,112,0,9,,,,,2,,81,75
24192,note_on,,,,,92,0,14,,,,,6,,53,100
24192,note_on,,,,,92,0,10,,,,,3,,65,75
24192,note_on,,,,,92,0,15,,,,,7,,65,100
24272,note_off,,,,,80,0,9,,,,,2,,81,100
24272,note_off,,,,,80,0,8,,,,,1,,81,100
24384,note_on,,,,,112,0,8,,,,,1,,69,75
24384,note_on,,,,,112,0,9,,,,,2,,69,75
24448,note_off,,,,,256,0,16,,,,,7,,53,100
24448,note_off,,,,,256,0,11,,,,,4,,53,100
24448,note_off,,,,,256,0,15,,,,,7,,65,100
24448,note_off,,,,,256,0,12,,,,,5,,41,100
24448,note_off,,,,,256,0,13,,,,,6,,65,100
24448,note_off,,,,,256,0,10,,,,,3,,65,100
24448,note_off,,,,,256,0,14,,,,,6,,53,100
24464,note_off,,,,,80,0,8,,,,,1,,69,100
24464,note_off,,,,,80,0,9,,,,,2,,69,100
24576,note_on,,,,,112,0,8,,,,,1,,81,100
24576,note_on,,,,,112,0,9,,,,,2,,81,100
24656,note_off,,,,,80,0,9,,,,,2,,81,100
24656,note_off,,,,,80,0,8,,,,,1,,81,100
24768,note_on,,,,,320,0,10,,,,,3,,60,100
24768,note_on,,,,,112,0,9,,,,,2,,81,100
24768,note_on,,,,,320,0,12,,,,,5,,36,100
24768,note_on,,,,,320,0,15,,,,,7,,60,100
24768,note_on,,,,,320,0,11,,,,,4,,48,100
24768,note_on,,,,,112,0,8,,,,,1,,81,100
24768,note_on,,,,,320,0,13,,,,,6,,60,100
24768,note_on,,,,,320,0,14,,,,,6,,48,100
24768,note_on,,,,,320,0,16,,,,,7,,48,100
24848,note_off,,,,,80,0,8,,,,,1,,81,100
24848,note_off,,,,,80,0,9,,,,,2,,81,100
24868,note_off,,,,,100,0,16,,,,,7,,48,100
24868,note_off,,,,,100,0,15,,,,,7,,60,100
24868,note_off,,,,,100,0,13,,,,,6,,60,100
24868,note_off,,,,,100,0,14,,,,,6,,48,100
24868,note_off,,,,,100,0,12,,,,,5,,36,100
24868,note_off,,,,,100,0,10,,,,,3,,60,100
24868,note_off,,,,,100,0,11,,,,,4,,48,100
24960,note_on,,,,,92,0,11,,,,,4,,50,100
24960,note_on,,,,,92,0,16,,,,,7,,50,100
24960,note_on,,,,,92,0,12,,,,,5,,38,100
24960,note_on,,,,,92,0,13,,,,,6,,62,100
24960,note_on,,,,,112,0,9,,,,,2,,81,100
24960,note_on,,,,,92,0,14,,,,,6,,50,100
24960,note_on,,,,,92,0,15,,,,,7,,62,100
24960,note_on,,,,,92,0,10,,,,,3,,62,100
24960,note_on,,,,,112,0,8,,,,,1,,81,100
25040,note_off,,,,,80,0,8,,,,,1,,81,100
25040,note_off,,,,,80,0,9,,,,,2,,81,100
25060,note_off,,,,,100,0,13,,,,,6,,62,100
25060,note_off,,,,,100,0,15,,,,,7,,62,100
25060,note_off,,,,,100,0,12,,,,,5,,38,100
25060,note_off,,,,,100,0,10,,,,,3,,62,100
25060,note_off,,,,,100,0,11,,,,,4,,50,100
25060,note_off,,,,,100,0,16,,,,,7,,50,100
25060,note_off,,,,,100,0,14,,,,,6,,50,100
25152,note_on,,,,,92,0,13,,,,,6,,64,100
25152,note_on,,,,,92,0,15,,,,,7,,64,100
25152,note_on,,,,,112,0,9,,,,,2,,81,100
25152,note_on,,,,,92,0,16,,,,,7,,52,100
25152,note_on,,,,,92,0,14,,,,,6,,52,100
25152,note_on,,,,,92,0,11,,,,,4,,52,100
25152,note_on,,,,,92,0,10,,,,,3,,64,100
25152,note_on,,,,,92,0,12,,,,,5,,40,100
25152,note_on,,,,,112,0,8,,,,,1,,81,100
25232,note_off,,,,,80,0,8,,,,,1,,81,100
25232,note_off,,,,,80,0,9,,,,,2,,81,100
25252,note_off,,,,,100,0,12,,,,,5,,40,100
25252,note_off,,,,,100,0,10,,,,,3,,64,100
25252,note_off,,,,,100,0,11,,,,,4,,52,100
25252,note_off,,,,,100,0,14,,,,,6,,52,100
25252,note_off,,,,,100,0,16,,,,,7,,52,100
25252,note_off,,,,,100,0,15,,,,,7,,64,100
25252,note_off,,,,,100,0,13,,,,,6,,64,100
25344,note_on,,,,,0,0,15,,,,,7,,69,100
25344,note_on,,,,,92,0,15,,,,,7,,65,100
25344,note_on,,,,,112,0,8,,,,,1,,81,100
25344,note_on,,,,,92,0,13,,,,,6,,65,100
25344,note_on,,,,,92,0,11,,,,,4,,53,100
25344,note_on,,,,,92,0,10,,,,,3,,65,100
25344,note_on,,,,,112,0,9,,,,,2,,81,100
25344,note_on,,,,,92,0,16,,,,,7,,53,100
25344,note_on,,,,,92,0,14,,,,,6,,53,100
25344,note_on,,,,,0,0,13,,,,,6,,69,100
25344,note_on,,,,,92,0,12,,,,,5,,41,100
25424,note_off,,,,,80,0,8,,,,,1,,81,100
25424,note_off,,,,,80,0,9,,,,,2,,81,100
25536,note_on,,,,,112,0,8,,,,,1,,72,100
25536,note_on,,,,,112,0,9,,,,,2,,72,100
25600,note_off,,,,,0,0,15,,,,,7,,69,100
25600,note_off,,,,,256,0,12,,,,,5,,41,100
25600,note_off,,,,,256,0,11,,,,,4,,53,100
25600,note_off,,,,,256,0,16,,,,,7,,53,100
25600,note_off,,,,,256,0,14,,,,,6,,53,100
25600,note_off,,,,,0,0,13,,,,,6,,69,100
25600,note_off,,,,,256,0,13,,,,,6,,65,100
25600,note_off,,,,,256,0,15,,,,,7,,65,100
25600,note_off,,,,,256,0,10,,,,,3,,65,100
25616,note_off,,,,,80,0,9,,,,,2,,72,100
25616,note_off,,,,,80,0,8,,,,,1,,72,100
25728,note_on,,,,,0,0,15,,,,,7,,65,100
25728,note_on,,,,,0,0,15,,,,,7,,69,100
25728,note_on,,,,,128,0,12,,,,,5,,38,100
25728,note_on,,,,,128,0,10,,,,,3,,65,100
25728,note_on,,,,,0,0,13,,,,,6,,65,100
25728,note_on,,,,,112,0,8,,,,,1,,71,100
25728,note_on,,,,,128,0,14,,,,,6,,50,100
25728,note_on,,,,,128,0,13,,,,,6,,59,100
25728,note_on,,,,,128,0,15,,,,,7,,59,100
25728,note_on,,,,,0,0,13,,,,,6,,69,100
25728,note_on,,,,,128,0,11,,,,,4,,50,100
25728,note_on,,,,,128,0,16,,,,,7,,50,100
25728,note_on,,,,,112,0,9,,,,,2,,71,100
25808,note_off,,,,,80,0,9,,,,,2,,71,100
25808,note_off,,,,,80,0,8,,,,,1,,71,100
25920,note_on,,,,,112,0,8,,,,,1,,81,100
25920,note_on,,,,,112,0,9,,,,,2,,81,100
25984,note_off,,,,,0,0,13,,,,,6,,69,100
25984,note_off,,,,,0,0,13,,,,,6,,65,100
25984,note_off,,,,,256,0,10,,,,,3,,65,100
25984,note_off,,,,,256,0,13,,,,,6,,59,100
25984,note_off,,,,,256,0,12,,,,,5,,38,100
25984,note_off,,,,,256,0,14,,,,,6,,50,100
25984,note_off,,,,,256,0,11,,,,,4,,50,100
25984,note_off,,,,,0,0,15,,,,,7,,69,100
25984,note_off,,,,,0,0,15,,,,,7,,65,100
25984,note_off,,,,,256,0,15,,,,,7,,59,100
25984,note_off,,,,,256,0,16,,,,,7,,50,100
26000,note_off,,,,,80,0,9,,,,,2,,81,100
26000,note_off,,,,,80,0,8,,,,,1,,81,100
26112,note_on,,,,,128,0,12,,,,,5,,40,100
26112,note_on,,,,,128,0,16,,,,,7,,52,100
26112,note_on,,,,,128,0,11,,,,,4,,52,100
26112,note_on,,,,,128,0,10,,,,,3,,64,100
26112,note_on,,,,,128,0,13,,,,,6,,59,100
26112,note_on,,,,,0,0,13,,,,,6,,64,100
26112,note_on,,,,,0,0,13,,,,,6,,68,100
26112,note_on,,,,,112,0,8,,,,,1,,71,100
26112,note_on,,,,,112,0,9,,,,,2,,71,100
26112,note_on,,,,,128,0,15,,,,,7,,59,100
26112,note_on,,,,,0,0,15,,,,,7,,64,100
26112,note_on,,,,,0,0,15,,,,,7,,68,100
26112,note_on,,,,,128,0,14,,,,,6,,52,100
26192,note_off,,,,,80,0,8,,,,,1,,71,100
26192,note_off,,,,,80,0,9,,,,,2,,71,100
26304,note_on,,,,,112,0,8,,,,,1,,80,100
26304,note_on,,,,,112,0,9,,,,,2,,80,100
26368,note_off,,,,,256,0,15,,,,,7,,59,100
26368,note_off,,,,,256,0,12,,,,,5,,40,100
26368,note_off,,,,,256,0,16,,,,,7,,52,100
26368,note_off,,,,,256,0,11,,,,,4,,52,100
26368,note_off,,,,,0,0,15,,,,,7,,64,100
26368,note_off,,,,,256,0,14,,,,,6,,52,100
26368,note_off,,,,,256,0,13,,,,,6,,59,100
26368,note_off,,,,,0,0,13,,,,,6,,64,100
26368,note_off,,,,,0,0,13,,,,,6,,68,100
26368,note_off,,,,,256,0,10,,,,,3,,64,100
26368,note_off,,,,,0,0,15,,,,,7,,68,100
26384,note_off,,,,,80,0,8,,,,,1,,80,100
26384,note_off,,,,,80,0,9,,,,,2,,80,100
26496,note_on,,,,,128,0,12,,,,,5,,33,100
26496,note_on,,,,,128,0,11,,,,,4,,45,100
26496,note_on,,,,,128,0,13,,,,,6,,60,100
26496,note_on,,,,,0,0,13,,,,,6,,64,100
26496,note_on,,,,,0,0,13,,,,,6,,69,100
26496,note_on,,,,,128,0,15,,,,,7,,60,100
26496,note_on,,,,,0,0,15,,,,,7,,69,100
26496,note_on,,,,,26496,0,7,,,,,0,,81,100
26496,note_on,,,,,0,0,15,,,,,7,,64,100
26496,note_on,,,,,112,0,8,,,,,1,,81,100
26496,note_on,,,,,128,0,16,,,,,7,,45,100
26496,note_on,,,,,128,0,10,,,,,3,,60,100
26496,note_on,,,,,128,0,14,,,,,6,,45,100
26496,note_on,,,,,112,0,9,,,,,2,,81,100
26560,note_off,,,,,64,0,7,,,,,0,,81,100
26592,note_on,,,,,32,0,7,,,,,0,,77,100
26656,note_off,,,,,64,0,7,,,,,0,,77,100
26688,note_on,,,,,32,0,7,,,,,0,,76,100
26752,note_off,,,,,256,0,13,,,,,6,,60,100
26752,note_off,,,,,0,0,13,,,,,6,,64,100
26752,note_off,,,,,0,0,13,,,,,6,,69,100
26752,note_off,,,,,64,0,7,,,,,0,,76,100
26752,note_off,,,,,256,0,11,,,,,4,,45,100
26752,note_off,,,,,256,0,14,,,,,6,,45,100
26752,note_off,,,,,0,0,15,,,,,7,,64,100
26752,note_off,,,,,256,0,12,,,,,5,,33,100
26752,note_off,,,,,256,0,15,,,,,7,,60,100
26752,note_off,,,,,256,0,16,,,,,7,,45,100
26752,note_off,,,,,256,0,10,,,,,3,,60,100
26752,note_off,,,,,0,0,15,,,,,7,,69,100
26752,note_off,,,,,256,0,9,,,,,2,,81,100
26752,note_off,,,,,256,0,8,,,,,1,,81,100
26784,note_on,,,,,32,0,7,,,,,0,,74,100
26848,note_off,,,,,64,0,7,,,,,0,,74,100
26880,program_change,,,,,128,0,11,,,,,4,42,,
26880,note_on,,,,,32,0,7,,,,,0,,72,100
26944,note_off,,,,,64,0,7,,,,,0,,72,100
26976,note_on,,,,,32,0,7,,,,,0,,74,100
27040,note_off,,,,,64,0,7,,,,,0,,74,100
27072,note_on,,,,,320,0,13,,,,,6,,68,100
27072,note_on,,,,,0,0,13,,,,,6,,71,100
27072,note_on,,,,,320,0,14,,,,,6,,52,100
27072,note_on,,,,,32,0,7,,,,,0,,71,97
27072,note_on,,,,,192,0,11,,,,,4,,52,85
27136,note_off,,,,,64,0,7,,,,,0,,71,100
27168,note_on,,,,,32,0,7,,,,,0,,72,94
27172,note_off,,,,,100,0,14,,,,,6,,52,100
27172,note_off,,,,,100,0,11,,,,,4,,52,100
27172,note_off,,,,,100,0,13,,,,,6,,68,100
27172,note_off,,,,,0,0,13,,,,,6,,71,100
27232,note_off,,,,,64,0,7,,,,,0,,72,100
27264,note_on,,,,,32,0,7,,,,,0,,69,91
27264,note_on,,,,,92,0,14,,,,,6,,48,100
27264,note_on,,,,,92,0,11,,,,,4,,48,85
27264,note_on,,,,,0,0,13,,,,,6,,69,100
27264,note_on,,,,,92,0,13,,,,,6,,64,100
27328,note_off,,,,,64,0,7,,,,,0,,69,100
27360,note_on,,,,,32,0,7,,,,,0,,76,85
27364,note_off,,,,,0,0,13,,,,,6,,69,100
27364,note_off,,,,,100,0,13,,,,,6,,64,100
27364,note_off,,,,,100,0,14,,,,,6,,48,100
27364,note_off,,,,,100,0,11,,,,,4,,48,100
27424,note_off,,,,,64,0,7,,,,,0,,76,100
27456,note_on,,,,,0,0,13,,,,,6,,71,100
27456,note_on,,,,,92,0,13,,,,,6,,68,100
27456,note_on,,,,,92,0,11,,,,,4,,52,85
27456,note_on,,,,,92,0,14,,,,,6,,52,100
27456,note_on,,,,,32,0,7,,,,,0,,78,85
27520,note_off,,,,,64,0,7,,,,,0,,78,100
27552,note_on,,,,,32,0,7,,,,,0,,80,85
27556,note_off,,,,,100,0,11,,,,,4,,52,100
27556,note_off,,,,,0,0,13,,,,,6,,71,100
27556,note_off,,,,,100,0,14,,,,,6,,52,100
27556,note_off,,,,,100,0,13,,,,,6,,68,100
27616,note_off,,,,,64,0,7,,,,,0,,80,100
27648,note_on,,,,,0,0,13,,,,,6,,72,100
27648,note_on,,,,,92,0,14,,,,,6,,45,100
27648,note_on,,,,,92,0,13,,,,,6,,69,100
27648,note_on,,,,,32,0,7,,,,,0,,81,85
27648,note_on,,,,,92,0,11,,,,,4,,45,85
27712,note_off,,,,,64,0,7,,,,,0,,81,100
27744,note_on,,,,,32,0,7,,,,,0,,77,85
27808,note_off,,,,,64,0,7,,,,,0,,77,100
27840,note_on,,,,,32,0,7,,,,,0,,76,85
27904,note_off,,,,,256,0,11,,,,,4,,45,100
27904,note_off,,,,,256,0,13,,,,,6,,69,100
27904,note_off,,,,,0,0,13,,,,,6,,72,100
27904,note_off,,,,,256,0,14,,,,,6,,45,100
27904,note_off,,,,,64,0,7,,,,,0,,76,100
27936,note_on,,,,,32,0,7,,,,,0,,74,85
28000,note_off,,,,,64,0,7,,,,,0,,74,100
28032,note_on,,,,,32,0,7,,,,,0,,72,85
28096,note_off,,,,,64,0,7,,,,,0,,72,100
28128,note_on,,,,,32,0,7,,,,,0,,74,85
28192,note_off,,,,,64,0,7,,,,,0,,74,100
28224,note_on,,,,,320,0,11,,,,,4,,52,85
28224,note_on,,,,,320,0,14,,,,,6,,52,100
28224,note_on,,,,,32,0,7,,,,,0,,71,85
28224,note_on,,,,,0,0,13,,,,,6,,71,100
28224,note_on,,,,,320,0,13,,,,,6,,68,100
28288,note_off,,,,,64,0,7,,,,,0,,71,100
28320,note_on,,,,,32,0,7,,,,,0,,72,85
28324,note_off,,,,,100,0,11,,,,,4,,52,100
28324,note_off,,,,,0,0,13,,,,,6,,71,100
28324,note_off,,,,,100,0,14,,,,,6,,52,100
28324,note_off,,,,,100,0,13,,,,,6,,68,100
28384,note_off,,,,,64,0,7,,,,,0,,72,100
28416,note_on,,,,,32,0,7,,,,,0,,69,85
28416,note_on,,,,,92,0,14,,,,,6,,48,100
28416,note_on,,,,,92,0,11,,,,,4,,48,85
28416,note_on,,,,,92,0,13,,,,,6,,64,100
28416,note_on,,,,,0,0,13,,,,,6,,69,100
28480,note_off,,,,,64,0,7,,,,,0,,69,100
28512,note_on,,,,,32,0,7,,,,,0,,76,90
28516,note_off,,,,,100,0,11,,,,,4,,48,100
28516,note_off,,,,,100,0,14,,,,,6,,48,100
28516,note_off,,,,,0,0,13,,,,,6,,69,100
28516,note_off,,,,,100,0,13,,,,,6,,64,100
28576,note_off,,,,,64,0,7,,,,,0,,76,100
28608,note_on,,,,,92,0,14,,,,,6,,52,100
28608,note_on,,,,,32,0,7,,,,,0,,78,94
28608,note_on,,,,,92,0,13,,,,,6,,68,100
28608,note_on,,,,,0,0,13,,,,,6,,71,100
28608,note_on,,,,,92,0,11,,,,,4,,52,85
28672,note_off,,,,,64,0,7,,,,,0,,78,100
28704,note_on,,,,,32,0,7,,,,,0,,80,99
28708,note_off,,,,,100,0,14,,,,,6,,52,100
28708,note_off,,,,,100,0,11,,,,,4,,52,100
28708,note_off,,,,,0,0,13,,,,,6,,71,100
28708,note_off,,,,,100,0,13,,,,,6,,68,100
28768,note_off,,,,,64,0,7,,,,,0,,80,100
28800,note_on,,,,,32,0,7,,,,,0,,81,104
28800,note_on,,,,,0,0,13,,,,,6,,72,100
28800,note_on,,,,,92,0,11,,,,,4,,45,85
28800,note_on,,,,,92,0,14,,,,,6,,45,100
28800,note_on,,,,,92,0,13,,,,,6,,69,100
28928,note_off,,,,,128,0,7,,,,,0,,81,100
28992,note_on,,,,,64,0,7,,,,,0,,79,100
29056,note_off,,,,,64,0,7,,,,,0,,79,100
29088,note_on,,,,,32,0,7,,,,,0,,77,100
29152,note_off,,,,,64,0,7,,,,,0,,77,100
29184,note_off,,,,,384,0,13,,,,,6,,69,100
29184,note_on,,,,,32,0,7,,,,,0,,76,100
29184,note_off,,,,,0,0,13,,,,,6,,72,100
29248,note_off,,,,,64,0,7,,,,,0,,76,100
29260,note_off,,,,,460,0,14,,,,,6,,45,100
29260,note_off,,,,,460,0,11,,,,,4,,45,100
29280,note_on,,,,,32,0,7,,,,,0,,74,100
29344,note_off,,,,,64,0,7,,,,,0,,74,100
29376,note_on,,,,,116,0,11,,,,,4,,47,85
29376,note_on,,,,,116,0,14,,,,,6,,47,100
29376,note_on,,,,,32,0,7,,,,,0,,72,100
29440,note_off,,,,,64,0,11,,,,,4,,47,100
29440,note_off,,,,,64,0,14,,,,,6,,47,100
29440,note_off,,,,,64,0,7,,,,,0,,72,100
29472,note_on,,,,,32,0,14,,,,,6,,48,100
29472,note_on,,,,,32,0,7,,,,,0,,71,100
29472,note_on,,,,,32,0,11,,,,,4,,48,85
29536,note_off,,,,,64,0,14,,,,,6,,48,100
29536,note_off,,,,,64,0,11,,,,,4,,48,100
29536,note_off,,,,,64,0,7,,,,,0,,71,100
29568,note_on,,,,,32,0,14,,,,,6,,50,100
29568,note_on,,,,,32,0,11,,,,,4,,50,85
29568,note_on,,,,,32,0,7,,,,,0,,69,100
29632,note_off,,,,,64,0,11,,,,,4,,50,100
29632,note_off,,,,,64,0,14,,,,,6,,50,100
29664,note_on,,,,,32,0,11,,,,,4,,52,85
29664,note_on,,,,,32,0,14,,,,,6,,52,100
29728,note_off,,,,,64,0,14,,,,,6,,52,100
29728,note_off,,,,,64,0,11,,,,,4,,52,100
29760,note_on,,,,,32,0,14,,,,,6,,54,100
29760,note_on,,,,,32,0,11,,,,,4,,54,85
29768,note_off,,,,,200,0,7,,,,,0,,69,100
29824,note_off,,,,,64,0,11,,,,,4,,54,100
29824,note_off,,,,,64,0,14,,,,,6,,54,100
29856,note_on,,,,,32,0,14,,,,,6,,56,100
29856,note_on,,,,,32,0,11,,,,,4,,56,85
29920,note_off,,,,,64,0,11,,,,,4,,56,100
29920,note_off,,,,,64,0,14,,,,,6,,56,100
29952,note_on,,,,,32,0,11,,,,,4,,57,85
29952,note_on,,,,,768,0,13,,,,,6,,64,100
29952,note_on,,,,,0,0,13,,,,,6,,73,100
29952,note_on,,,,,32,0,14,,,,,6,,57,100
30048,note_on,,,,,280,0,7,,,,,0,,81,105
30112,note_off,,,,,64,0,7,,,,,0,,81,100
30144,note_on,,,,,32,0,7,,,,,0,,79,105
30208,note_off,,,,,64,0,7,,,,,0,,79,100
30240,note_on,,,,,32,0,7,,,,,0,,81,105
30304,note_off,,,,,64,0,7,,,,,0,,81,100
30336,note_off,,,,,0,0,13,,,,,6,,73,100
30336,note_off,,,,,384,0,13,,,,,6,,64,100
30336,note_on,,,,,32,0,7,,,,,0,,76,104
30400,note_off,,,,,64,0,7,,,,,0,,76,100
30412,note_off,,,,,460,0,14,,,,,6,,57,100
30412,note_off,,,,,460,0,11,,,,,4,,57,100
30432,note_on,,,,,32,0,7,,,,,0,,81,104
30496,note_off,,,,,64,0,7,,,,,0,,81,100
30528,note_on,,,,,116,0,11,,,,,4,,55,85
30528,note_on,,,,,116,0,14,,,,,6,,55,100
30528,note_on,,,,,32,0,7,,,,,0,,76,103
30528,note_on,,,,,192,0,13,,,,,6,,64,100
30528,note_on,,,,,0,0,13,,,,,6,,73,100
30592,note_off,,,,,64,0,7,,,,,0,,76,100
30624,note_on,,,,,32,0,7,,,,,0,,73,103
30628,note_off,,,,,100,0,14,,,,,6,,55,100
30628,note_off,,,,,0,0,13,,,,,6,,73,100
30628,note_off,,,,,100,0,13,,,,,6,,64,100
30628,note_off,,,,,100,0,11,,,,,4,,55,100
30688,note_off,,,,,64,0,7,,,,,0,,73,100
30720,note_on,,,,,32,0,7,,,,,0,,74,102
30720,note_on,,,,,92,0,13,,,,,6,,74,100
30720,note_on,,,,,0,0,13,,,,,6,,69,100
30720,note_on,,,,,0,0,13,,,,,6,,62,100
30720,note_on,,,,,92,0,11,,,,,4,,53,85
30720,note_on,,,,,92,0,14,,,,,6,,53,100
30784,note_off,,,,,64,0,7,,,,,0,,74,100
30816,note_on,,,,,32,0,7,,,,,0,,77,102
30880,note_off,,,,,64,0,7,,,,,0,,77,100
30912,note_on,,,,,32,0,7,,,,,0,,74,101
30976,note_off,,,,,0,0,13,,,,,6,,62,100
30976,note_off,,,,,0,0,13,,,,,6,,69,100
30976,note_off,,,,,256,0,14,,,,,6,,53,100
30976,note_off,,,,,256,0,13,,,,,6,,74,100
30976,note_off,,,,,256,0,11,,,,,4,,53,100
30976,note_off,,,,,64,0,7,,,,,0,,74,100
31008,note_on,,,,,32,0,7,,,,,0,,69,101
31072,note_off,,,,,64,0,7,,,,,0,,69,100
31104,note_on,,,,,128,0,11,,,,,4,,55,85
31104,note_on,,,,,128,0,14,,,,,6,,55,100
31104,note_on,,,,,32,0,7,,,,,0,,71,101
31104,note_on,,,,,0,0,13,,,,,6,,71,100
31104,note_on,,,,,128,0,13,,,,,6,,62,100
31168,note_off,,,,,64,0,7,,,,,0,,71,100
31200,note_on,,,,,32,0,7,,,,,0,,79,100
31264,note_off,,,,,64,0,7,,,,,0,,79,100
31296,note_on,,,,,32,0,7,,,,,0,,77,100
31360,note_off,,,,,64,0,7,,,,,0,,77,100
31392,note_on,,,,,32,0,7,,,,,0,,79,100
31456,note_off,,,,,64,0,7,,,,,0,,79,100
31488,note_off,,,,,0,0,13,,,,,6,,71,100
31488,note_on,,,,,32,0,7,,,,,0,,74,100
31488,note_off,,,,,384,0,13,,,,,6,,62,100
31552,note_off,,,,,64,0,7,,,,,0,,74,100
31564,note_off,,,,,460,0,14,,,,,6,,55,100
31564,note_off,,,,,460,0,11,,,,,4,,55,100
31584,note_on,,,,,32,0,7,,,,,0,,79,100
31648,note_off,,,,,64,0,7,,,,,0,,79,100
31680,note_on,,,,,116,0,14,,,,,6,,53,100
31680,note_on,,,,,32,0,7,,,,,0,,74,100
31680,note_on,,,,,0,0,13,,,,,6,,62,100
31680,note_on,,,,,116,0,11,,,,,4,,53,85
31680,note_on,,,,,192,0,13,,,,,6,,71,100
31744,note_off,,,,,64,0,7,,,,,0,,74,100
31776,note_on,,,,,32,0,7,,,,,0,,71,100
31780,note_off,,,,,0,0,13,,,,,6,,62,100
31780,note_off,,,,,100,0,14,,,,,6,,53,100
31780,note_off,,,,,100,0,11,,,,,4,,53,100
31780,note_off,,,,,100,0,13,,,,,6,,71,100
31840,note_off,,,,,64,0,7,,,,,0,,71,100
31872,note_on,,,,,0,0,13,,,,,6,,67,100
31872,note_on,,,,,0,0,13,,,,,6,,60,100
31872,note_on,,,,,92,0,13,,,,,6,,72,100
31872,note_on,,,,,92,0,11,,,,,4,,52,85
31872,note_on,,,,,92,0,14,,,,,6,,52,100
31872,note_on,,,,,32,0,7,,,,,0,,72,100
31936,note_off,,,,,64,0,7,,,,,0,,72,100
31968,note_on,,,,,32,0,7,,,,,0,,76,100
32032,note_off,,,,,64,0,7,,,,,0,,76,100
32064,note_on,,,,,32,0,7,,,,,0,,72,100
32128,note_off,,,,,0,0,13,,,,,6,,60,100
32128,note_off,,,,,0,0,13,,,,,6,,67,100
32128,note_off,,,,,256,0,13,,,,,6,,72,100
32128,note_off,,,,,256,0,11,,,,,4,,52,100
32128,note_off,,,,,64,0,7,,,,,0,,72,100
32128,note_off,,,,,256,0,14,,,,,6,,52,100
32160,note_on,,,,,32,0,7,,,,,0,,67,100
32224,note_off,,,,,64,0,7,,,,,0,,67,100
32256,note_on,,,,,128,0,11,,,,,4,,53,85
32256,note_on,,,,,32,0,7,,,,,0,,69,100
32256,note_on,,,,,0,0,13,,,,,6,,69,100
32256,note_on,,,,,128,0,13,,,,,6,,60,100
32256,note_on,,,,,128,0,14,,,,,6,,53,100
32320,note_off,,,,,64,0,7,,,,,0,,69,100
32352,note_on,,,,,32,0,7,,,,,0,,77,100
32416,note_off,,,,,64,0,7,,,,,0,,77,100
32448,note_on,,,,,32,0,7,,,,,0,,76,100
32512,note_off,,,,,64,0,7,,,,,0,,76,100
32544,note_on,,,,,32,0,7,,,,,0,,77,99
32608,note_off,,,,,64,0,7,,,,,0,,77,100
32640,note_off,,,,,0,0,13,,,,,6,,69,100
32640,note_on,,,,,32,0,7,,,,,0,,72,99
32640,note_off,,,,,384,0,13,,,,,6,,60,100
32704,note_off,,,,,64,0,7,,,,,0,,72,100
32716,note_off,,,,,460,0,11,,,,,4,,53,100
32716,note_off,,,,,460,0,14,,,,,6,,53,100
32736,note_on,,,,,32,0,7,,,,,0,,77,98
32800,note_off,,,,,64,0,7,,,,,0,,77,100
32832,note_on,,,,,32,0,7,,,,,0,,72,98
32832,note_on,,,,,0,0,13,,,,,6,,60,100
32832,note_on,,,,,192,0,13,,,,,6,,69,100
32832,note_on,,,,,116,0,11,,,,,4,,52,85
32832,note_on,,,,,116,0,14,,,,,6,,52,100
32896,note_off,,,,,64,0,7,,,,,0,,72,100
32928,note_on,,,,,32,0,7,,,,,0,,69,98
32932,note_off,,,,,0,0,13,,,,,6,,60,100
32932,note_off,,,,,100,0,13,,,,,6,,69,100
32932,note_off,,,,,100,0,11,,,,,4,,52,100
32932,note_off,,,,,100,0,14,,,,,6,,52,100
32992,note_off,,,,,64,0,7,,,,,0,,69,100
33024,note_on,,,,,32,0,7,,,,,0,,71,97
33024,note_on,,,,,92,0,14,,,,,6,,50,100
33024,note_on,,,,,92,0,13,,,,,6,,66,100
33024,note_on,,,,,0,0,13,,,,,6,,71,100
33024,note_on,,,,,0,0,13,,,,,6,,59,100
33024,note_on,,,,,92,0,11,,,,,4,,50,85
33088,note_off,,,,,64,0,7,,,,,0,,71,100
33120,note_on,,,,,32,0,7,,,,,0,,74,97
33184,note_off,,,,,64,0,7,,,,,0,,74,100
33216,note_on,,,,,32,0,7,,,,,0,,71,96
33280,note_off,,,,,0,0,13,,,,,6,,71,100
33280,note_off,,,,,256,0,13,,,,,6,,66,100
33280,note_off,,,,,0,0,13,,,,,6,,59,100
33280,note_off,,,,,256,0,11,,,,,4,,50,100
33280,note_off,,,,,64,0,7,,,,,0,,71,100
33280,note_off,,,,,256,0,14,,,,,6,,50,100
33312,note_on,,,,,32,0,7,,,,,0,,66,96
33376,note_off,,,,,64,0,7,,,,,0,,66,100
33408,note_on,,,,,128,0,14,,,,,6,,52,100
33408,note_on,,,,,128,0,11,,,,,4,,52,85
33408,note_on,,,,,128,0,13,,,,,6,,59,100
33408,note_on,,,,,0,0,13,,,,,6,,68,100
33408,note_on,,,,,32,0,7,,,,,0,,68,96
33472,note_off,,,,,64,0,7,,,,,0,,68,100
33504,note_on,,,,,32,0,7,,,,,0,,76,95
33568,note_off,,,,,64,0,7,,,,,0,,76,100
33600,note_on,,,,,32,0,7,,,,,0,,74,95
33664,note_off,,,,,64,0,7,,,,,0,,74,100
33696,note_on,,,,,32,0,7,,,,,0,,76,94
33760,note_off,,,,,64,0,7,,,,,0,,76,100
33792,program_change,,,,,7040,0,8,,,,,1,40,,
33792,note_on,,,,,32,0,7,,,,,0,,71,94
33792,note_off,,,,,384,0,13,,,,,6,,59,100
33792,note_off,,,,,0,0,13,,,,,6,,68,100
33856,note_off,,,,,64,0,7,,,,,0,,71,100
33868,note_off,,,,,460,0,11,,,,,4,,52,100
33868,note_off,,,,,460,0,14,,,,,6,,52,100
33888,note_on,,,,,32,0,7,,,,,0,,76,93
33952,note_off,,,,,64,0,7,,,,,0,,76,100
33984,note_on,,,,,192,0,13,,,,,6,,68,100
33984,note_on,,,,,0,0,13,,,,,6,,59,100
33984,note_on,,,,,32,0,7,,,,,0,,71,93
33984,note_on,,,,,116,0,11,,,,,4,,50,85
33984,note_on,,,,,116,0,14,,,,,6,,50,100
34048,note_off,,,,,64,0,7,,,,,0,,71,100
34080,note_on,,,,,32,0,7,,,,,0,,68,93
34084,note_off,,,,,100,0,13,,,,,6,,68,100
34084,note_off,,,,,0,0,13,,,,,6,,59,100
34084,note_off,,,,,100,0,11,,,,,4,,50,100
34084,note_off,,,,,100,0,14,,,,,6,,50,100
34144,note_off,,,,,64,0,7,,,,,0,,68,100
34176,note_on,,,,,32,0,7,,,,,0,,69,92
34176,note_on,,,,,92,0,11,,,,,4,,48,85
34176,note_on,,,,,0,0,13,,,,,6,,64,100
34176,note_on,,,,,0,0,13,,,,,6,,57,100
34176,note_on,,,,,92,0,13,,,,,6,,69,100
34176,note_on,,,,,92,0,14,,,,,6,,48,100
34240,note_off,,,,,64,0,7,,,,,0,,69,100
34272,note_on,,,,,32,0,7,,,,,0,,72,92
34336,note_off,,,,,64,0,7,,,,,0,,72,100
34368,note_on,,,,,32,0,7,,,,,0,,69,91
34432,note_off,,,,,0,0,13,,,,,6,,64,100
34432,note_off,,,,,256,0,14,,,,,6,,48,100
34432,note_off,,,,,64,0,7,,,,,0,,69,100
34432,note_off,,,,,256,0,11,,,,,4,,48,100
34432,note_off,,,,,0,0,13,,,,,6,,57,100
34432,note_off,,,,,256,0,13,,,,,6,,69,100
34464,note_on,,,,,32,0,7,,,,,0,,64,91
34528,note_off,,,,,64,0,7,,,,,0,,64,100
34560,note_on,,,,,32,0,7,,,,,0,,65,90
34560,note_on,,,,,768,0,8,,,,,1,,81,80
34560,note_on,,,,,128,0,13,,,,,6,,57,100
34560,note_on,,,,,0,0,13,,,,,6,,62,100
34560,note_on,,,,,0,0,13,,,,,6,,65,100
34560,note_on,,,,,128,0,11,,,,,4,,50,85
34560,note_on,,,,,128,0,14,,,,,6,,50,100
34624,note_off,,,,,64,0,7,,,,,0,,65,100
34640,note_off,,,,,80,0,8,,,,,1,,81,100
34656,note_on,,,,,32,0,7,,,,,0,,62,90
34720,note_off,,,,,64,0,7,,,,,0,,62,100
34752,note_on,,,,,112,0,8,,,,,1,,69,80
34752,note_on,,,,,32,0,7,,,,,0,,65,90
34816,note_off,,,,,64,0,7,,,,,0,,65,100
34832,note_off,,,,,80,0,8,,,,,1,,69,100
34848,note_on,,,,,32,0,7,,,,,0,,69,90
34912,note_off,,,,,64,0,7,,,,,0,,69,100
34944,note_on,,,,,112,0,8,,,,,1,,81,80
34944,note_on,,,,,32,0,7,,,,,0,,74,90
35024,note_off,,,,,80,0,8,,,,,1,,81,100
35036,note_off,,,,,92,0,7,,,,,0,,74,100
35040,note_on,,,,,4,0,7,,,,,0,,73,91
35072,note_off,,,,,512,0,13,,,,,6,,57,100
35072,note_off,,,,,0,0,13,,,,,6,,65,100
35072,note_off,,,,,0,0,13,,,,,6,,62,100
35072,note_off,,,,,512,0,11,,,,,4,,50,100
35072,note_off,,,,,512,0,14,,,,,6,,50,100
35104,note_off,,,,,64,0,7,,,,,0,,73,100
35136,note_on,,,,,32,0,7,,,,,0,,74,91
35136,note_on,,,,,112,0,8,,,,,1,,81,80
35216,note_off,,,,,80,0,8,,,,,1,,81,100
35228,note_off,,,,,92,0,7,,,,,0,,74,100
35232,note_on,,,,,4,0,7,,,,,0,,73,91
35296,note_off,,,,,64,0,7,,,,,0,,73,100
35328,note_on,,,,,32,0,7,,,,,0,,74,91
35328,note_on,,,,,112,0,8,,,,,1,,81,80
35408,note_off,,,,,80,0,8,,,,,1,,81,100
35420,note_off,,,,,92,0,7,,,,,0,,74,100
35424,note_on,,,,,4,0,7,,,,,0,,73,91
35488,note_off,,,,,64,0,7,,,,,0,,73,100
35520,note_on,,,,,112,0,8,,,,,1,,81,80
35520,note_on,,,,,32,0,7,,,,,0,,74,92
35600,note_off,,,,,80,0,8,,,,,1,,81,100
35612,note_off,,,,,92,0,7,,,,,0,,74,100
35616,note_on,,,,,4,0,7,,,,,0,,73,92
35680,note_off,,,,,64,0,7,,,,,0,,73,100
35712,note_on,,,,,640,0,11,,,,,4,,53,85
35712,note_on,,,,,640,0,14,,,,,6,,53,100
35712,note_on,,,,,112,0,8,,,,,1,,81,80
35712,note_on,,,,,640,0,13,,,,,6,,65,100
35712,note_on,,,,,0,0,13,,,,,6,,74,100
35712,note_on,,,,,0,0,13,,,,,6,,69,100
35712,note_on,,,,,32,0,7,,,,,0,,74,92
35776,note_off,,,,,64,0,7,,,,,0,,74,100
35792,note_off,,,,,80,0,8,,,,,1,,81,100
35808,note_on,,,,,32,0,7,,,,,0,,62,92
35872,note_off,,,,,64,0,7,,,,,0,,62,100
35904,note_on,,,,,32,0,7,,,,,0,,65,92
35904,note_on,,,,,112,0,8,,,,,1,,69,80
35968,note_off,,,,,64,0,7,,,,,0,,65,100
35984,note_off,,,,,80,0,8,,,,,1,,69,100
36000,note_on,,,,,32,0,7,,,,,0,,69,93
36064,note_off,,,,,64,0,7,,,,,0,,69,100
36096,note_on,,,,,32,0,7,,,,,0,,74,93
36188,note_off,,,,,92,0,7,,,,,0,,74,100
36192,note_on,,,,,4,0,7,,,,,0,,72,93
36224,note_off,,,,,0,0,13,,,,,6,,69,100
36224,note_off,,,,,512,0,13,,,,,6,,65,100
36224,note_off,,,,,0,0,13,,,,,6,,74,100
36256,note_off,,,,,64,0,7,,,,,0,,72,100
36288,note_on,,,,,32,0,7,,,,,0,,74,93
36324,note_off,,,,,612,0,11,,,,,4,,53,100
36324,note_off,,,,,612,0,14,,,,,6,,53,100
36380,note_off,,,,,92,0,7,,,,,0,,74,100
36384,note_on,,,,,4,0,7,,,,,0,,71,93
36448,note_off,,,,,64,0,7,,,,,0,,71,100
36480,note_on,,,,,156,0,14,,,,,6,,50,100
36480,note_on,,,,,32,0,7,,,,,0,,72,94
36480,note_on,,,,,0,0,13,,,,,6,,72,100
36480,note_on,,,,,0,0,13,,,,,6,,69,100
36480,note_on,,,,,256,0,13,,,,,6,,65,100
36480,note_on,,,,,156,0,11,,,,,4,,50,85
36572,note_off,,,,,92,0,7,,,,,0,,72,100
36576,note_on,,,,,4,0,7,,,,,0,,71,94
36640,note_off,,,,,64,0,7,,,,,0,,71,100
36672,note_on,,,,,32,0,7,,,,,0,,72,94
36736,note_off,,,,,256,0,13,,,,,6,,65,100
36736,note_off,,,,,0,0,13,,,,,6,,69,100
36736,note_off,,,,,0,0,13,,,,,6,,72,100
36736,note_off,,,,,256,0,11,,,,,4,,50,100
36736,note_off,,,,,256,0,14,,,,,6,,50,100
36764,note_off,,,,,92,0,7,,,,,0,,72,100
36768,note_on,,,,,4,0,7,,,,,0,,69,94
36832,note_off,,,,,64,0,7,,,,,0,,69,100
36864,note_on,,,,,0,0,13,,,,,6,,71,100
36864,note_on,,,,,32,0,7,,,,,0,,68,94
36864,note_on,,,,,128,0,14,,,,,6,,52,100
36864,note_on,,,,,128,0,11,,,,,4,,52,85
36864,note_on,,,,,128,0,13,,,,,6,,64,100
36864,note_on,,,,,880,0,8,,,,,1,,83,80
36864,note_on,,,,,0,0,13,,,,,6,,68,100
36928,note_off,,,,,64,0,7,,,,,0,,68,100
36944,note_off,,,,,80,0,8,,,,,1,,83,100
36960,note_on,,,,,32,0,7,,,,,0,,64,95
37024,note_off,,,,,64,0,7,,,,,0,,64,100
37056,note_on,,,,,112,0,8,,,,,1,,71,80
37056,note_on,,,,,32,0,7,,,,,0,,68,95
37120,note_off,,,,,64,0,7,,,,,0,,68,100
37136,note_off,,,,,80,0,8,,,,,1,,71,100
37152,note_on,,,,,32,0,7,,,,,0,,71,95
37216,note_off,,,,,64,0,7,,,,,0,,71,100
37248,note_on,,,,,112,0,8,,,,,1,,83,80
37248,note_on,,,,,32,0,7,,,,,0,,76,95
37328,note_off,,,,,80,0,8,,,,,1,,83,100
37340,note_off,,,,,92,0,7,,,,,0,,76,100
37344,note_on,,,,,4,0,7,,,,,0,,74,96
37376,note_off,,,,,512,0,14,,,,,6,,52,100
37376,note_off,,,,,0,0,13,,,,,6,,71,100
37376,note_off,,,,,0,0,13,,,,,6,,68,100
37376,note_off,,,,,512,0,13,,,,,6,,64,100
37376,note_off,,,,,512,0,11,,,,,4,,52,100
37408,note_off,,,,,64,0,7,,,,,0,,74,100
37440,note_on,,,,,32,0,7,,,,,0,,76,96
37440,note_on,,,,,112,0,8,,,,,1,,83,80
37520,note_off,,,,,80,0,8,,,,,1,,83,100
37532,note_off,,,,,92,0,7,,,,,0,,76,100
37536,note_on,,,,,4,0,7,,,,,0,,74,96
37600,note_off,,,,,64,0,7,,,,,0,,74,100
37632,note_on,,,,,32,0,7,,,,,0,,76,96
37632,note_on,,,,,112,0,8,,,,,1,,83,80
37712,note_off,,,,,80,0,8,,,,,1,,83,100
37724,note_off,,,,,92,0,7,,,,,0,,76,100
37728,note_on,,,,,4,0,7,,,,,0,,74,96
37792,note_off,,,,,64,0,7,,,,,0,,74,100
37824,note_on,,,,,112,0,8,,,,,1,,83,80
37824,note_on,,,,,32,0,7,,,,,0,,76,97
37904,note_off,,,,,80,0,8,,,,,1,,83,100
37916,note_off,,,,,92,0,7,,,,,0,,76,100
37920,note_on,,,,,4,0,7,,,,,0,,74,97
37984,note_off,,,,,64,0,7,,,,,0,,74,100
38016,note_on,,,,,640,0,13,,,,,6,,68,100
38016,note_on,,,,,640,0,14,,,,,6,,56,100
38016,note_on,,,,,0,0,13,,,,,6,,71,100
38016,note_on,,,,,32,0,7,,,,,0,,76,97
38016,note_on,,,,,0,0,13,,,,,6,,76,100
38016,note_on,,,,,112,0,8,,,,,1,,83,80
38016,note_on,,,,,640,0,11,,,,,4,,56,85
38080,note_off,,,,,64,0,7,,,,,0,,76,100
38096,note_off,,,,,80,0,8,,,,,1,,83,100
38112,note_on,,,,,32,0,7,,,,,0,,64,97
38176,note_off,,,,,64,0,7,,,,,0,,64,100
38208,note_on,,,,,32,0,7,,,,,0,,68,97
38208,note_on,,,,,112,0,8,,,,,1,,71,80
38272,note_off,,,,,64,0,7,,,,,0,,68,100
38288,note_off,,,,,80,0,8,,,,,1,,71,100
38304,note_on,,,,,32,0,7,,,,,0,,71,98
38368,note_off,,,,,64,0,7,,,,,0,,71,100
38400,note_on,,,,,32,0,7,,,,,0,,76,98
38492,note_off,,,,,92,0,7,,,,,0,,76,100
38496,note_on,,,,,4,0,7,,,,,0,,74,98
38528,note_off,,,,,512,0,13,,,,,6,,68,100
38528,note_off,,,,,0,0,13,,,,,6,,76,100
38528,note_off,,,,,0,0,13,,,,,6,,71,100
38560,note_off,,,,,64,0,7,,,,,0,,74,100
38592,note_on,,,,,32,0,7,,,,,0,,76,98
38628,note_off,,,,,612,0,14,,,,,6,,56,100
38628,note_off,,,,,612,0,11,,,,,4,,56,100
38684,note_off,,,,,92,0,7,,,,,0,,76,100
38688,note_on,,,,,4,0,7,,,,,0,,72,98
38752,note_off,,,,,64,0,7,,,,,0,,72,100
38784,note_on,,,,,156,0,14,,,,,6,,52,100
38784,note_on,,,,,0,0,13,,,,,6,,74,100
38784,note_on,,,,,0,0,13,,,,,6,,71,100
38784,note_on,,,,,256,0,13,,,,,6,,68,100
38784,note_on,,,,,156,0,11,,,,,4,,52,85
38784,note_on,,,,,32,0,7,,,,,0,,74,99
38876,note_off,,,,,92,0,7,,,,,0,,74,100
38880,note_on,,,,,4,0,7,,,,,0,,72,99
38944,note_off,,,,,64,0,7,,,,,0,,72,100
38976,note_on,,,,,32,0,7,,,,,0,,74,99
39040,note_off,,,,,256,0,13,,,,,6,,68,100
39040,note_off,,,,,0,0,13,,,,,6,,71,100
39040,note_off,,,,,0,0,13,,,,,6,,74,100
39040,note_off,,,,,256,0,14,,,,,6,,52,100
39040,note_off,,,,,256,0,11,,,,,4,,52,100
39068,note_off,,,,,92,0,7,,,,,0,,74,100
39072,note_on,,,,,4,0,7,,,,,0,,71,99
39136,note_off,,,,,64,0,7,,,,,0,,71,100
39168,note_on,,,,,128,0,11,,,,,4,,57,85
39168,note_on,,,,,880,0,8,,,,,1,,76,85
39168,note_on,,,,,32,0,7,,,,,0,,72,99
39168,note_on,,,,,128,0,14,,,,,6,,57,100
39168,note_on,,,,,0,0,13,,,,,6,,72,100
39168,note_on,,,,,0,0,13,,,,,6,,69,100
39168,note_on,,,,,128,0,13,,,,,6,,64,100
39232,note_off,,,,,64,0,7,,,,,0,,72,100
39248,note_off,,,,,80,0,8,,,,,1,,76,100
39264,note_on,,,,,32,0,7,,,,,0,,69,100
39328,note_off,,,,,64,0,7,,,,,0,,69,100
39360,note_on,,,,,112,0,8,,,,,1,,64,85
39360,note_on,,,,,32,0,7,,,,,0,,72,100
39424,note_off,,,,,64,0,7,,,,,0,,72,100
39440,note_off,,,,,80,0,8,,,,,1,,64,100
39456,note_on,,,,,32,0,7,,,,,0,,76,100
39520,note_off,,,,,64,0,7,,,,,0,,76,100
39552,note_on,,,,,112,0,8,,,,,1,,76,85
39552,note_on,,,,,32,0,7,,,,,0,,81,100
39632,note_off,,,,,80,0,8,,,,,1,,76,100
39644,note_off,,,,,92,0,7,,,,,0,,81,100
39648,note_on,,,,,4,0,7,,,,,0,,79,100
39680,note_off,,,,,0,0,13,,,,,6,,69,100
39680,note_off,,,,,512,0,14,,,,,6,,57,100
39680,note_off,,,,,512,0,13,,,,,6,,64,100
39680,note_off,,,,,0,0,13,,,,,6,,72,100
39680,note_off,,,,,512,0,11,,,,,4,,57,100
39712,note_off,,,,,64,0,7,,,,,0,,79,100
39744,note_on,,,,,32,0,7,,,,,0,,81,100
39744,note_on,,,,,112,0,8,,,,,1,,76,85
39824,note_off,,,,,80,0,8,,,,,1,,76,100
39836,note_off,,,,,92,0,7,,,,,0,,81,100
39840,note_on,,,,,4,0,7,,,,,0,,79,100
39904,note_off,,,,,64,0,7,,,,,0,,79,100
39936,note_on,,,,,112,0,8,,,,,1,,76,85
39936,note_on,,,,,32,0,7,,,,,0,,81,100
40016,note_off,,,,,80,0,8,,,,,1,,76,100
40028,note_off,,,,,92,0,7,,,,,0,,81,100
40032,note_on,,,,,4,0,7,,,,,0,,79,100
40096,note_off,,,,,64,0,7,,,,,0,,79,100
40128,note_on,,,,,112,0,8,,,,,1,,76,85
40128,note_on,,,,,32,0,7,,,,,0,,81,100
40208,note_off,,,,,80,0,8,,,,,1,,76,100
40220,note_off,,,,,92,0,7,,,,,0,,81,100
40224,note_on,,,,,4,0,7,,,,,0,,79,100
40288,note_off,,,,,64,0,7,,,,,0,,79,100
40320,note_on,,,,,32,0,7,,,,,0,,81,100
40320,note_on,,,,,640,0,11,,,,,4,,60,85
40320,note_on,,,,,112,0,8,,,,,1,,76,85
40320,note_on,,,,,0,0,13,,,,,6,,76,100
40320,note_on,,,,,640,0,14,,,,,6,,60,100
40320,note_on,,,,,640,0,13,,,,,6,,81,100
40320,note_on,,,,,0,0,13,,,,,6,,72,100
40384,note_off,,,,,64,0,7,,,,,0,,81,100
40400,note_off,,,,,80,0,8,,,,,1,,76,100
40416,note_on,,,,,32,0,7,,,,,0,,69,100
40480,note_off,,,,,64,0,7,,,,,0,,69,100
40512,note_on,,,,,112,0,8,,,,,1,,64,85
40512,note_on,,,,,32,0,7,,,,,0,,72,100
40576,note_off,,,,,64,0,7,,,,,0,,72,100
40592,note_off,,,,,80,0,8,,,,,1,,64,100
40608,note_on,,,,,32,0,7,,,,,0,,76,100
40672,note_off,,,,,64,0,7,,,,,0,,76,100
40704,note_on,,,,,32,0,7,,,,,0,,81,100
40796,note_off,,,,,92,0,7,,,,,0,,81,100
40800,note_on,,,,,4,0,7,,,,,0,,79,100
40832,note_off,,,,,0,0,13,,,,,6,,76,100
40832,note_off,,,,,512,0,13,,,,,6,,81,100
40832,note_off,,,,,0,0,13,,,,,6,,72,100
40864,note_off,,,,,64,0,7,,,,,0,,79,100
40896,note_on,,,,,32,0,7,,,,,0,,81,100
40932,note_off,,,,,612,0,14,,,,,6,,60,100
40932,note_off,,,,,612,0,11,,,,,4,,60,100
40988,note_off,,,,,92,0,7,,,,,0,,81,100
40992,note_on,,,,,4,0,7,,,,,0,,78,100
41056,note_off,,,,,64,0,7,,,,,0,,78,100
41088,note_on,,,,,0,0,13,,,,,6,,76,100
41088,note_on,,,,,256,0,13,,,,,6,,79,100
41088,note_on,,,,,156,0,11,,,,,4,,57,85
41088,note_on,,,,,32,0,7,,,,,0,,79,100
41088,note_on,,,,,0,0,13,,,,,6,,72,100
41088,note_on,,,,,156,0,14,,,,,6,,57,100
41180,note_off,,,,,92,0,7,,,,,0,,79,100
41184,note_on,,,,,4,0,7,,,,,0,,78,100
41248,note_off,,,,,64,0,7,,,,,0,,78,100
41280,note_on,,,,,32,0,7,,,,,0,,79,100
41344,note_off,,,,,256,0,11,,,,,4,,57,100
41344,note_off,,,,,256,0,14,,,,,6,,57,100
41344,note_off,,,,,0,0,13,,,,,6,,76,100
41344,note_off,,,,,0,0,13,,,,,6,,72,100
41344,note_off,,,,,256,0,13,,,,,6,,79,100
41372,note_off,,,,,92,0,7,,,,,0,,79,100
41376,note_on,,,,,4,0,7,,,,,0,,76,100
41440,note_off,,,,,64,0,7,,,,,0,,76,100
41472,note_on,,,,,128,0,11,,,,,4,,59,85
41472,note_on,,,,,128,0,13,,,,,6,,78,100
41472,note_on,,,,,0,0,13,,,,,6,,71,100
41472,note_on,,,,,0,0,13,,,,,6,,75,100
41472,note_on,,,,,128,0,14,,,,,6,,59,100
41472,note_on,,,,,880,0,8,,,,,1,,78,90
41472,note_on,,,,,32,0,7,,,,,0,,75,100
41536,note_off,,,,,64,0,7,,,,,0,,75,100
41552,note_off,,,,,80,0,8,,,,,1,,78,100
41568,note_on,,,,,32,0,7,,,,,0,,71,100
41632,note_off,,,,,64,0,7,,,,,0,,71,100
41664,note_on,,,,,32,0,7,,,,,0,,75,100
41664,note_on,,,,,112,0,8,,,,,1,,66,90
41728,note_off,,,,,64,0,7,,,,,0,,75,100
41744,note_off,,,,,80,0,8,,,,,1,,66,100
41760,note_on,,,,,32,0,7,,,,,0,,78,101
41824,note_off,,,,,64,0,7,,,,,0,,78,100
41856,note_on,,,,,32,0,7,,,,,0,,83,101
41856,note_on,,,,,112,0,8,,,,,1,,78,90
41936,note_off,,,,,80,0,8,,,,,1,,78,100
41948,note_off,,,,,92,0,7,,,,,0,,83,100
41952,note_on,,,,,4,0,7,,,,,0,,81,102
41984,note_off,,,,,0,0,13,,,,,6,,75,100
41984,note_off,,,,,512,0,11,,,,,4,,59,100
41984,note_off,,,,,512,0,13,,,,,6,,78,100
41984,note_off,,,,,0,0,13,,,,,6,,71,100
41984,note_off,,,,,512,0,14,,,,,6,,59,100
42016,note_off,,,,,64,0,7,,,,,0,,81,100
42048,note_on,,,,,112,0,8,,,,,1,,78,90
42048,note_on,,,,,32,0,7,,,,,0,,83,102
42128,note_off,,,,,80,0,8,,,,,1,,78,100
42140,note_off,,,,,92,0,7,,,,,0,,83,100
42144,note_on,,,,,4,0,7,,,,,0,,81,102
42208,note_off,,,,,64,0,7,,,,,0,,81,100
42240,note_on,,,,,112,0,8,,,,,1,,78,90
42240,note_on,,,,,32,0,7,,,,,0,,83,103
42320,note_off,,,,,80,0,8,,,,,1,,78,100
42332,note_off,,,,,92,0,7,,,,,0,,83,100
42336,note_on,,,,,4,0,7,,,,,0,,81,103
42400,note_off,,,,,64,0,7,,,,,0,,81,100
42432,note_on,,,,,112,0,8,,,,,1,,78,90
42432,note_on,,,,,32,0,7,,,,,0,,83,104
42512,note_off,,,,,80,0,8,,,,,1,,78,100
42524,note_off,,,,,92,0,7,,,,,0,,83,100
42528,note_on,,,,,4,0,7,,,,,0,,81,104
42592,note_off,,,,,64,0,7,,,,,0,,81,100
42624,note_on,,,,,32,0,7,,,,,0,,83,104
42624,note_on,,,,,640,0,13,,,,,6,,66,100
42624,note_on,,,,,0,0,13,,,,,6,,71,100
42624,note_on,,,,,0,0,13,,,,,6,,78,100
42624,note_on,,,,,112,0,8,,,,,1,,78,90
42624,note_on,,,,,640,0,14,,,,,6,,63,100
42624,note_on,,,,,640,0,11,,,,,4,,63,85
42688,note_off,,,,,64,0,7,,,,,0,,83,100
42704,note_off,,,,,80,0,8,,,,,1,,78,100
42720,note_on,,,,,32,0,7,,,,,0,,71,105
42784,note_off,,,,,64,0,7,,,,,0,,71,100
42816,note_on,,,,,32,0,7,,,,,0,,75,105
42816,note_on,,,,,112,0,8,,,,,1,,66,90
42880,note_off,,,,,64,0,7,,,,,0,,75,100
42896,note_off,,,,,80,0,8,,,,,1,,66,100
42912,note_on,,,,,32,0,7,,,,,0,,78,106
42976,note_off,,,,,64,0,7,,,,,0,,78,100
43008,program_change,,,,,112,0,8,,,,,1,48,,
43008,note_on,,,,,32,0,7,,,,,0,,83,106
43100,note_off,,,,,92,0,7,,,,,0,,83,100
43104,note_on,,,,,4,0,7,,,,,0,,81,107
43136,note_off,,,,,0,0,13,,,,,6,,71,100
43136,note_off,,,,,512,0,13,,,,,6,,66,100
43136,note_off,,,,,0,0,13,,,,,6,,78,100
43168,note_off,,,,,64,0,7,,,,,0,,81,100
43200,note_on,,,,,32,0,7,,,,,0,,83,107
43236,note_off,,,,,612,0,11,,,,,4,,63,100
43236,note_off,,,,,612,0,14,,,,,6,,63,100
43292,note_off,,,,,92,0,7,,,,,0,,83,100
43296,note_on,,,,,4,0,7,,,,,0,,79,107
43360,note_off,,,,,64,0,7,,,,,0,,79,100
43392,note_on,,,,,0,0,13,,,,,6,,69,100
43392,note_on,,,,,0,0,13,,,,,6,,66,100
43392,note_on,,,,,156,0,14,,,,,6,,59,100
43392,note_on,,,,,256,0,13,,,,,6,,75,100
43392,note_on,,,,,156,0,11,,,,,4,,59,85
43392,note_on,,,,,32,0,7,,,,,0,,81,108
43484,note_off,,,,,92,0,7,,,,,0,,81,100
43488,note_on,,,,,4,0,7,,,,,0,,79,108
43552,note_off,,,,,64,0,7,,,,,0,,79,100
43584,note_on,,,,,32,0,7,,,,,0,,81,109
43648,note_off,,,,,256,0,13,,,,,6,,75,100
43648,note_off,,,,,0,0,13,,,,,6,,69,100
43648,note_off,,,,,256,0,11,,,,,4,,59,100
43648,note_off,,,,,0,0,13,,,,,6,,66,100
43648,note_off,,,,,256,0,14,,,,,6,,59,100
43676,note_off,,,,,92,0,7,,,,,0,,81,100
43680,note_on,,,,,4,0,7,,,,,0,,78,109
43744,note_off,,,,,64,0,7,,,,,0,,78,100
43772,program_change,,,,,124,0,11,,,,,4,48,,
43776,note_on,,,,,128,0,13,,,,,6,,71,100
43776,note_on,,,,,4,0,11,,,,,4,,64,100
43776,note_on,,,,,0,0,13,,,,,6,,76,100
43776,note_on,,,,,128,0,14,,,,,6,,64,100
43776,note_on,,,,,0,0,13,,,,,6,,67,100
43776,note_on,,,,,17024,0,10,,,,,3,,64,100
43776,note_on,,,,,768,0,8,,,,,1,,83,100
43776,note_on,,,,,32,0,7,,,,,0,,79,109
43776,note_on,,,,,0,0,15,,,,,7,,76,100
43776,note_on,,,,,17024,0,9,,,,,2,,79,100
43776,note_on,,,,,17024,0,16,,,,,7,,64,100
43776,note_on,,,,,17024,0,12,,,,,5,,52,100
43776,note_on,,,,,17024,0,15,,,,,7,,79,100
43876,note_off,,,,,100,0,14,,,,,6,,64,100
43876,note_off,,,,,100,0,16,,,,,7,,64,100
43876,note_off,,,,,100,0,12,,,,,5,,52,100
43876,note_off,,,,,100,0,11,,,,,4,,64,100
43968,note_on,,,,,92,0,12,,,,,5,,40,100
43968,note_on,,,,,92,0,11,,,,,4,,52,100
43968,note_on,,,,,92,0,14,,,,,6,,52,100
43968,note_on,,,,,92,0,16,,,,,7,,52,100
43976,note_off,,,,,200,0,7,,,,,0,,79,100
43976,note_off,,,,,200,0,8,,,,,1,,83,100
43976,note_off,,,,,200,0,9,,,,,2,,79,100
43976,note_off,,,,,200,0,10,,,,,3,,64,100
44068,note_off,,,,,100,0,16,,,,,7,,52,100
44068,note_off,,,,,100,0,14,,,,,6,,52,100
44068,note_off,,,,,100,0,12,,,,,5,,40,100
44068,note_off,,,,,100,0,11,,,,,4,,52,100
44160,note_on,,,,,92,0,11,,,,,4,,52,100
44160,note_on,,,,,184,0,8,,,,,1,,76,100
44160,note_on,,,,,184,0,9,,,,,2,,79,100
44160,note_on,,,,,184,0,10,,,,,3,,71,100
44160,note_on,,,,,92,0,12,,,,,5,,40,100
44160,note_on,,,,,92,0,16,,,,,7,,52,100
44160,note_on,,,,,92,0,14,,,,,6,,52,100
44160,note_off,,,,,384,0,13,,,,,6,,71,100
44260,note_off,,,,,100,0,11,,,,,4,,52,100
44260,note_off,,,,,100,0,16,,,,,7,,52,100
44260,note_off,,,,,100,0,14,,,,,6,,52,100
44260,note_off,,,,,100,0,12,,,,,5,,40,100
44292,note_off,,,,,516,0,15,,,,,7,,79,100
44292,note_off,,,,,132,0,13,,,,,6,,76,100
44292,note_off,,,,,0,0,13,,,,,6,,67,100
44292,note_off,,,,,0,0,15,,,,,7,,76,100
44352,note_on,,,,,92,0,11,,,,,4,,59,100
44352,note_on,,,,,92,0,16,,,,,7,,59,100
44352,note_on,,,,,60,0,13,,,,,6,,66,100
44352,note_on,,,,,92,0,14,,,,,6,,59,100
44352,note_on,,,,,60,0,15,,,,,7,,86,100
44352,note_on,,,,,0,0,13,,,,,6,,75,100
44352,note_on,,,,,92,0,12,,,,,5,,47,100
44360,note_off,,,,,200,0,9,,,,,2,,79,100
44360,note_off,,,,,200,0,10,,,,,3,,71,100
44360,note_off,,,,,200,0,8,,,,,1,,76,100
44444,note_off,,,,,92,0,15,,,,,7,,86,100
44448,note_on,,,,,4,0,15,,,,,7,,84,100
44452,note_off,,,,,100,0,11,,,,,4,,59,100
44452,note_off,,,,,100,0,16,,,,,7,,59,100
44452,note_off,,,,,100,0,14,,,,,6,,59,100
44452,note_off,,,,,100,0,13,,,,,6,,66,100
44452,note_off,,,,,0,0,13,,,,,6,,75,100
44452,note_off,,,,,100,0,12,,,,,5,,47,100
44540,note_off,,,,,92,0,15,,,,,7,,84,100
44544,note_on,,,,,92,0,11,,,,,4,,61,100
44544,note_on,,,,,92,0,13,,,,,6,,67,100
44544,note_on,,,,,4,0,15,,,,,7,,83,100
44544,note_on,,,,,0,0,13,,,,,6,,76,100
44544,note_on,,,,,92,0,16,,,,,7,,61,100
44544,note_on,,,,,92,0,12,,,,,5,,49,100
44544,note_on,,,,,92,0,14,,,,,6,,61,100
44636,note_off,,,,,92,0,15,,,,,7,,83,100
44640,note_on,,,,,4,0,15,,,,,7,,81,100
44644,note_off,,,,,100,0,12,,,,,5,,49,100
44644,note_off,,,,,0,0,13,,,,,6,,76,100
44644,note_off,,,,,100,0,13,,,,,6,,67,100
44644,note_off,,,,,100,0,11,,,,,4,,61,100
44644,note_off,,,,,100,0,16,,,,,7,,61,100
44644,note_off,,,,,100,0,14,,,,,6,,61,100
44732,note_off,,,,,92,0,15,,,,,7,,81,100
44736,note_on,,,,,4,0,15,,,,,7,,79,100
44736,note_on,,,,,0,0,13,,,,,6,,69,100
44736,note_on,,,,,92,0,12,,,,,5,,51,100
44736,note_on,,,,,92,0,11,,,,,4,,63,100
44736,note_on,,,,,92,0,16,,,,,7,,63,100
44736,note_on,,,,,92,0,13,,,,,6,,75,100
44736,note_on,,,,,92,0,14,,,,,6,,63,100
44828,note_off,,,,,92,0,15,,,,,7,,79,100
44832,note_on,,,,,4,0,15,,,,,7,,78,100
44832,note_on,,,,,472,0,8,,,,,1,,84,100
44832,note_on,,,,,472,0,9,,,,,2,,81,100
44832,note_on,,,,,472,0,10,,,,,3,,66,100
44836,note_off,,,,,0,0,13,,,,,6,,69,100
44836,note_off,,,,,100,0,13,,,,,6,,75,100
44836,note_off,,,,,100,0,16,,,,,7,,63,100
44836,note_off,,,,,100,0,11,,,,,4,,63,100
44836,note_off,,,,,100,0,12,,,,,5,,51,100
44836,note_off,,,,,100,0,14,,,,,6,,63,100
44896,note_off,,,,,64,0,8,,,,,1,,84,100
44896,note_off,,,,,64,0,9,,,,,2,,81,100
44896,note_off,,,,,64,0,10,,,,,3,,66,100
44924,note_off,,,,,92,0,15,,,,,7,,78,100
44928,note_on,,,,,92,0,11,,,,,4,,64,100
44928,note_on,,,,,32,0,9,,,,,2,,79,100
44928,note_on,,,,,0,0,15,,,,,7,,67,100
44928,note_on,,,,,4,0,15,,,,,7,,76,100
44928,note_on,,,,,32,0,8,,,,,1,,83,100
44928,note_on,,,,,92,0,12,,,,,5,,52,100
44928,note_on,,,,,92,0,14,,,,,6,,64,100
44928,note_on,,,,,92,0,16,,,,,7,,64,100
44928,note_on,,,,,0,0,13,,,,,6,,76,100
44928,note_on,,,,,32,0,10,,,,,3,,67,100
44928,note_on,,,,,92,0,13,,,,,6,,71,100
44928,note_on,,,,,0,0,13,,,,,6,,67,100
45028,note_off,,,,,100,0,16,,,,,7,,64,100
45028,note_off,,,,,100,0,12,,,,,5,,52,100
45028,note_off,,,,,100,0,14,,,,,6,,64,100
45028,note_off,,,,,100,0,11,,,,,4,,64,100
45120,note_on,,,,,92,0,16,,,,,7,,52,100
45120,note_on,,,,,92,0,12,,,,,5,,40,100
45120,note_on,,,,,92,0,14,,,,,6,,52,100
45120,note_on,,,,,92,0,11,,,,,4,,52,100
45128,note_off,,,,,200,0,10,,,,,3,,67,100
45128,note_off,,,,,200,0,8,,,,,1,,83,100
45128,note_off,,,,,200,0,9,,,,,2,,79,100
45220,note_off,,,,,100,0,14,,,,,6,,52,100
45220,note_off,,,,,100,0,12,,,,,5,,40,100
45220,note_off,,,,,100,0,16,,,,,7,,52,100
45220,note_off,,,,,100,0,11,,,,,4,,52,100
45312,note_on,,,,,92,0,11,,,,,4,,52,100
45312,note_on,,,,,92,0,12,,,,,5,,40,100
45312,note_off,,,,,384,0,13,,,,,6,,71,100
45312,note_on,,,,,184,0,8,,,,,1,,76,100
45312,note_on,,,,,92,0,14,,,,,6,,52,100
45312,note_on,,,,,184,0,10,,,,,3,,71,100
45312,note_on,,,,,184,0,9,,,,,2,,79,100
45312,note_on,,,,,92,0,16,,,,,7,,52,100
45412,note_off,,,,,100,0,12,,,,,5,,40,100
45412,note_off,,,,,100,0,11,,,,,4,,52,100
45412,note_off,,,,,100,0,14,,,,,6,,52,100
45412,note_off,,,,,100,0,16,,,,,7,,52,100
45444,note_off,,,,,132,0,13,,,,,6,,76,100
45444,note_off,,,,,516,0,15,,,,,7,,76,100
45444,note_off,,,,,0,0,15,,,,,7,,67,100
45444,note_off,,,,,0,0,13,,,,,6,,67,100
45504,note_on,,,,,60,0,15,,,,,7,,74,100
45504,note_on,,,,,92,0,11,,,,,4,,59,100
45504,note_on,,,,,92,0,14,,,,,6,,59,100
45504,note_on,,,,,92,0,12,,,,,5,,47,100
45504,note_on,,,,,92,0,16,,,,,7,,59,100
45504,note_on,,,,,0,0,13,,,,,6,,75,100
45504,note_on,,,,,60,0,13,,,,,6,,66,100
45512,note_off,,,,,200,0,10,,,,,3,,71,100
45512,note_off,,,,,200,0,8,,,,,1,,76,100
45512,note_off,,,,,200,0,9,,,,,2,,79,100
45596,note_off,,,,,92,0,15,,,,,7,,74,100
45600,note_on,,,,,4,0,15,,,,,7,,72,100
45604,note_off,,,,,100,0,12,,,,,5,,47,100
45604,note_off,,,,,100,0,14,,,,,6,,59,100
45604,note_off,,,,,100,0,16,,,,,7,,59,100
45604,note_off,,,,,0,0,13,,,,,6,,75,100
45604,note_off,,,,,100,0,13,,,,,6,,66,100
45604,note_off,,,,,100,0,11,,,,,4,,59,100
45692,note_off,,,,,92,0,15,,,,,7,,72,100
45696,note_on,,,,,4,0,15,,,,,7,,71,100
45696,note_on,,,,,92,0,11,,,,,4,,61,100
45696,note_on,,,,,92,0,14,,,,,6,,61,100
45696,note_on,,,,,92,0,12,,,,,5,,49,100
45696,note_on,,,,,92,0,16,,,,,7,,61,100
45696,note_on,,,,,92,0,13,,,,,6,,67,100
45696,note_on,,,,,0,0,13,,,,,6,,76,100
45788,note_off,,,,,92,0,15,,,,,7,,71,100
45792,note_on,,,,,4,0,15,,,,,7,,69,100
45796,note_off,,,,,100,0,13,,,,,6,,67,100
45796,note_off,,,,,0,0,13,,,,,6,,76,100
45796,note_off,,,,,100,0,14,,,,,6,,61,100
45796,note_off,,,,,100,0,11,,,,,4,,61,100
45796,note_off,,,,,100,0,12,,,,,5,,49,100
45796,note_off,,,,,100,0,16,,,,,7,,61,100
45884,note_off,,,,,92,0,15,,,,,7,,69,100
45888,note_on,,,,,4,0,15,,,,,7,,67,100
45888,note_on,,,,,92,0,16,,,,,7,,63,100
45888,note_on,,,,,0,0,13,,,,,6,,69,100
45888,note_on,,,,,92,0,13,,,,,6,,75,100
45888,note_on,,,,,92,0,12,,,,,5,,51,100
45888,note_on,,,,,92,0,14,,,,,6,,63,100
45888,note_on,,,,,92,0,11,,,,,4,,63,100
45980,note_off,,,,,92,0,15,,,,,7,,67,100
45984,note_on,,,,,472,0,8,,,,,1,,84,100
45984,note_on,,,,,4,0,15,,,,,7,,66,100
45984,note_on,,,,,472,0,10,,,,,3,,66,100
45984,note_on,,,,,472,0,9,,,,,2,,81,100
45988,note_off,,,,,100,0,11,,,,,4,,63,100
45988,note_off,,,,,0,0,13,,,,,6,,69,100
45988,note_off,,,,,100,0,12,,,,,5,,51,100
45988,note_off,,,,,100,0,14,,,,,6,,63,100
45988,note_off,,,,,100,0,16,,,,,7,,63,100
45988,note_off,,,,,100,0,13,,,,,6,,75,100
46048,note_off,,,,,64,0,8,,,,,1,,84,100
46048,note_off,,,,,64,0,10,,,,,3,,66,100
46048,note_off,,,,,64,0,9,,,,,2,,81,100
46076,note_off,,,,,92,0,15,,,,,7,,66,100
46080,note_on,,,,,92,0,16,,,,,7,,64,100
46080,note_on,,,,,4,0,15,,,,,7,,67,100
46080,note_on,,,,,92,0,11,,,,,4,,64,100
46080,note_on,,,,,92,0,12,,,,,5,,52,100
46080,note_on,,,,,92,0,14,,,,,6,,64,100
46080,note_on,,,,,32,0,8,,,,,1,,83,100
46080,note_on,,,,,32,0,10,,,,,3,,67,100
46080,note_on,,,,,0,0,13,,,,,6,,71,100
46080,note_on,,,,,0,0,13,,,,,6,,67,100
46080,note_on,,,,,92,0,13,,,,,6,,76,100
46080,note_on,,,,,0,0,15,,,,,7,,71,100
46080,note_on,,,,,32,0,9,,,,,2,,79,100
46180,note_off,,,,,100,0,11,,,,,4,,64,100
46180,note_off,,,,,100,0,10,,,,,3,,67,100
46180,note_off,,,,,100,0,14,,,,,6,,64,100
46180,note_off,,,,,100,0,16,,,,,7,,64,100
46180,note_off,,,,,100,0,12,,,,,5,,52,100
46272,note_on,,,,,92,0,11,,,,,4,,52,100
46272,note_on,,,,,92,0,14,,,,,6,,52,100
46272,note_on,,,,,92,0,16,,,,,7,,52,100
46272,note_on,,,,,92,0,12,,,,,5,,40,100
46272,note_on,,,,,92,0,10,,,,,3,,67,100
46336,note_off,,,,,256,0,8,,,,,1,,83,100
46336,note_off,,,,,256,0,9,,,,,2,,79,100
46372,note_off,,,,,100,0,10,,,,,3,,67,100
46372,note_off,,,,,100,0,12,,,,,5,,40,100
46372,note_off,,,,,100,0,16,,,,,7,,52,100
46372,note_off,,,,,100,0,14,,,,,6,,52,100
46372,note_off,,,,,100,0,11,,,,,4,,52,100
46464,note_on,,,,,92,0,10,,,,,3,,67,100
46464,note_on,,,,,92,0,16,,,,,7,,52,100
46464,note_on,,,,,92,0,14,,,,,6,,52,100
46464,note_on,,,,,92,0,12,,,,,5,,40,100
46464,note_on,,,,,128,0,8,,,,,1,,81,100
46464,note_on,,,,,128,0,9,,,,,2,,84,100
46464,note_on,,,,,92,0,11,,,,,4,,52,100
46564,note_off,,,,,100,0,14,,,,,6,,52,100
46564,note_off,,,,,100,0,11,,,,,4,,52,100
46564,note_off,,,,,100,0,12,,,,,5,,40,100
46564,note_off,,,,,100,0,16,,,,,7,,52,100
46564,note_off,,,,,100,0,10,,,,,3,,67,100
46596,note_off,,,,,516,0,13,,,,,6,,76,100
46596,note_off,,,,,0,0,13,,,,,6,,67,100
46596,note_off,,,,,0,0,13,,,,,6,,71,100
46596,note_off,,,,,516,0,15,,,,,7,,67,100
46596,note_off,,,,,0,0,15,,,,,7,,71,100
46652,note_off,,,,,188,0,9,,,,,2,,84,100
46652,note_off,,,,,188,0,8,,,,,1,,81,100
46656,note_on,,,,,0,0,15,,,,,7,,69,100
46656,note_on,,,,,60,0,13,,,,,6,,66,100
46656,note_on,,,,,60,0,15,,,,,7,,66,100
46656,note_on,,,,,92,0,16,,,,,7,,54,100
46656,note_on,,,,,92,0,12,,,,,5,,42,100
46656,note_on,,,,,4,0,8,,,,,1,,79,100
46656,note_on,,,,,4,0,9,,,,,2,,83,100
46656,note_on,,,,,92,0,14,,,,,6,,54,100
46656,note_on,,,,,92,0,10,,,,,3,,69,100
46656,note_on,,,,,92,0,11,,,,,4,,54,100
46656,note_on,,,,,0,0,13,,,,,6,,69,100
46756,note_off,,,,,0,0,13,,,,,6,,69,100
46756,note_off,,,,,100,0,10,,,,,3,,69,100
46756,note_off,,,,,100,0,13,,,,,6,,66,100
46756,note_off,,,,,100,0,12,,,,,5,,42,100
46756,note_off,,,,,100,0,15,,,,,7,,66,100
46756,note_off,,,,,100,0,16,,,,,7,,54,100
46756,note_off,,,,,100,0,14,,,,,6,,54,100
46756,note_off,,,,,100,0,11,,,,,4,,54,100
46756,note_off,,,,,0,0,15,,,,,7,,69,100
46756,note_off,,,,,100,0,9,,,,,2,,83,100
46756,note_off,,,,,100,0,8,,,,,1,,79,100
46848,note_on,,,,,92,0,8,,,,,1,,78,100
46848,note_on,,,,,92,0,14,,,,,6,,55,100
46848,note_on,,,,,92,0,15,,,,,7,,67,100
46848,note_on,,,,,92,0,11,,,,,4,,55,100
46848,note_on,,,,,0,0,15,,,,,7,,71,100
46848,note_on,,,,,92,0,12,,,,,5,,43,100
46848,note_on,,,,,92,0,13,,,,,6,,67,100
46848,note_on,,,,,0,0,13,,,,,6,,71,100
46848,note_on,,,,,92,0,10,,,,,3,,71,100
46848,note_on,,,,,92,0,9,,,,,2,,81,100
46848,note_on,,,,,92,0,16,,,,,7,,55,100
46948,note_off,,,,,100,0,13,,,,,6,,67,100
46948,note_off,,,,,0,0,13,,,,,6,,71,100
46948,note_off,,,,,100,0,12,,,,,5,,43,100
46948,note_off,,,,,100,0,11,,,,,4,,55,100
46948,note_off,,,,,0,0,15,,,,,7,,71,100
46948,note_off,,,,,100,0,15,,,,,7,,67,100
46948,note_off,,,,,100,0,10,,,,,3,,71,100
46948,note_off,,,,,100,0,16,,,,,7,,55,100
46948,note_off,,,,,100,0,14,,,,,6,,55,100
47036,note_off,,,,,188,0,9,,,,,2,,81,100
47036,note_off,,,,,188,0,8,,,,,1,,78,100
47040,note_on,,,,,4,0,9,,,,,2,,79,100
47040,note_on,,,,,4,0,8,,,,,1,,76,100
47040,note_on,,,,,92,0,11,,,,,4,,57,100
47040,note_on,,,,,92,0,14,,,,,6,,57,100
47040,note_on,,,,,0,0,13,,,,,6,,72,100
47040,note_on,,,,,92,0,16,,,,,7,,57,100
47040,note_on,,,,,92,0,10,,,,,3,,72,100
47040,note_on,,,,,92,0,12,,,,,5,,45,100
47040,note_on,,,,,92,0,15,,,,,7,,69,100
47040,note_on,,,,,0,0,15,,,,,7,,72,100
47040,note_on,,,,,92,0,13,,,,,6,,69,100
47140,note_off,,,,,100,0,11,,,,,4,,57,100
47140,note_off,,,,,100,0,13,,,,,6,,69,100
47140,note_off,,,,,100,0,12,,,,,5,,45,100
47140,note_off,,,,,0,0,13,,,,,6,,72,100
47140,note_off,,,,,100,0,15,,,,,7,,69,100
47140,note_off,,,,,0,0,15,,,,,7,,72,100
47140,note_off,,,,,100,0,14,,,,,6,,57,100
47140,note_off,,,,,100,0,10,,,,,3,,72,100
47140,note_off,,,,,100,0,16,,,,,7,,57,100
47140,note_off,,,,,100,0,8,,,,,1,,76,100
47140,note_off,,,,,100,0,9,,,,,2,,79,100
47232,note_on,,,,,0,0,13,,,,,6,,71,100
47232,note_on,,,,,92,0,14,,,,,6,,59,100
47232,note_on,,,,,0,0,15,,,,,7,,71,100
47232,note_on,,,,,92,0,10,,,,,3,,63,100
47232,note_on,,,,,92,0,15,,,,,7,,75,100
47232,note_on,,,,,92,0,11,,,,,4,,59,100
47232,note_on,,,,,0,0,13,,,,,6,,66,100
47232,note_on,,,,,92,0,13,,,,,6,,63,100
47232,note_on,,,,,0,0,15,,,,,7,,66,100
47232,note_on,,,,,92,0,8,,,,,1,,75,100
47232,note_on,,,,,92,0,9,,,,,2,,78,100
47232,note_on,,,,,92,0,12,,,,,5,,47,100
47232,note_on,,,,,92,0,16,,,,,7,,59,100
47692,note_off,,,,,460,0,12,,,,,5,,47,100
47692,note_off,,,,,460,0,14,,,,,6,,59,100
47692,note_off,,,,,460,0,8,,,,,1,,75,100
47692,note_off,,,,,460,0,16,,,,,7,,59,100
47692,note_off,,,,,460,0,11,,,,,4,,59,100
47748,note_off,,,,,516,0,15,,,,,7,,75,100
47748,note_off,,,,,516,0,13,,,,,6,,63,100
47748,note_off,,,,,0,0,13,,,,,6,,66,100
47748,note_off,,,,,0,0,13,,,,,6,,71,100
47748,note_off,,,,,0,0,15,,,,,7,,66,100
47748,note_off,,,,,0,0,15,,,,,7,,71,100
47808,note_on,,,,,116,0,8,,,,,1,,73,98
47808,note_on,,,,,116,0,16,,,,,7,,59,100
47808,note_on,,,,,60,0,13,,,,,6,,71,100
47808,note_on,,,,,116,0,11,,,,,4,,59,98
47808,note_on,,,,,116,0,12,,,,,5,,47,98
47808,note_on,,,,,116,0,14,,,,,6,,59,100
47908,note_off,,,,,100,0,12,,,,,5,,47,100
47908,note_off,,,,,100,0,13,,,,,6,,71,100
47908,note_off,,,,,100,0,16,,,,,7,,59,100
47908,note_off,,,,,100,0,11,,,,,4,,59,100
47908,note_off,,,,,100,0,8,,,,,1,,73,100
47908,note_off,,,,,100,0,14,,,,,6,,59,100
48000,note_on,,,,,92,0,11,,,,,4,,61,97
48000,note_on,,,,,92,0,8,,,,,1,,71,97
48000,note_on,,,,,92,0,12,,,,,5,,49,97
48000,note_on,,,,,92,0,16,,,,,7,,61,100
48000,note_on,,,,,92,0,13,,,,,6,,73,100
48000,note_on,,,,,92,0,14,,,,,6,,61,100
48100,note_off,,,,,100,0,16,,,,,7,,61,100
48100,note_off,,,,,100,0,12,,,,,5,,49,100
48100,note_off,,,,,100,0,14,,,,,6,,61,100
48100,note_off,,,,,100,0,11,,,,,4,,61,100
48100,note_off,,,,,100,0,13,,,,,6,,73,100
48192,note_on,,,,,92,0,13,,,,,6,,71,100
48192,note_on,,,,,92,0,14,,,,,6,,63,100
48192,note_on,,,,,92,0,16,,,,,7,,63,100
48192,note_on,,,,,92,0,11,,,,,4,,63,96
48192,note_on,,,,,0,0,13,,,,,6,,75,100
48192,note_on,,,,,92,0,12,,,,,5,,51,96
48256,note_off,,,,,256,0,8,,,,,1,,71,100
48268,note_off,,,,,1036,0,10,,,,,3,,63,100
48268,note_off,,,,,1036,0,9,,,,,2,,78,100
48292,note_off,,,,,100,0,11,,,,,4,,63,100
48292,note_off,,,,,100,0,16,,,,,7,,63,100
48292,note_off,,,,,100,0,12,,,,,5,,51,100
48292,note_off,,,,,0,0,13,,,,,6,,75,100
48292,note_off,,,,,100,0,13,,,,,6,,71,100
48292,note_off,,,,,100,0,14,,,,,6,,63,100
48384,note_on,,,,,116,0,9,,,,,2,,76,100
48384,note_on,,,,,128,0,8,,,,,1,,76,100
48384,note_on,,,,,92,0,16,,,,,7,,64,100
48384,note_on,,,,,92,0,12,,,,,5,,52,100
48384,note_on,,,,,92,0,14,,,,,6,,64,100
48384,note_on,,,,,0,0,15,,,,,7,,76,100
48384,note_on,,,,,92,0,13,,,,,6,,79,100
48384,note_on,,,,,0,0,13,,,,,6,,71,100
48384,note_on,,,,,116,0,10,,,,,3,,67,100
48384,note_on,,,,,0,0,13,,,,,6,,76,100
48384,note_on,,,,,636,0,15,,,,,7,,67,100
48384,note_on,,,,,0,0,15,,,,,7,,71,100
48384,note_on,,,,,92,0,11,,,,,4,,64,100
48448,note_off,,,,,64,0,8,,,,,1,,76,100
48448,note_off,,,,,64,0,9,,,,,2,,76,100
48480,note_on,,,,,32,0,8,,,,,1,,83,101
48480,note_on,,,,,32,0,9,,,,,2,,83,101
48484,note_off,,,,,100,0,12,,,,,5,,52,100
48484,note_off,,,,,100,0,16,,,,,7,,64,100
48484,note_off,,,,,100,0,11,,,,,4,,64,100
48484,note_off,,,,,100,0,14,,,,,6,,64,100
48544,note_off,,,,,64,0,9,,,,,2,,83,100
48544,note_off,,,,,64,0,8,,,,,1,,83,100
48576,note_on,,,,,32,0,9,,,,,2,,83,102
48576,note_on,,,,,92,0,16,,,,,7,,52,100
48576,note_on,,,,,92,0,12,,,,,5,,40,102
48576,note_on,,,,,92,0,14,,,,,6,,52,100
48576,note_on,,,,,92,0,11,,,,,4,,52,102
48576,note_on,,,,,32,0,8,,,,,1,,83,102
48640,note_off,,,,,256,0,13,,,,,6,,79,100
48640,note_off,,,,,0,0,13,,,,,6,,71,100
48640,note_off,,,,,0,0,13,,,,,6,,76,100
48640,note_off,,,,,64,0,9,,,,,2,,83,100
48640,note_off,,,,,64,0,8,,,,,1,,83,100
48672,note_on,,,,,32,0,9,,,,,2,,83,103
48672,note_on,,,,,32,0,8,,,,,1,,83,103
48676,note_off,,,,,100,0,12,,,,,5,,40,100
48676,note_off,,,,,100,0,16,,,,,7,,52,100
48676,note_off,,,,,100,0,14,,,,,6,,52,100
48676,note_off,,,,,100,0,11,,,,,4,,52,100
48736,note_off,,,,,64,0,9,,,,,2,,83,100
48736,note_off,,,,,64,0,8,,,,,1,,83,100
48768,note_on,,,,,32,0,8,,,,,1,,83,104
48768,note_on,,,,,32,0,9,,,,,2,,83,104
48768,note_on,,,,,92,0,16,,,,,7,,52,100
48768,note_on,,,,,92,0,12,,,,,5,,40,104
48768,note_on,,,,,92,0,14,,,,,6,,52,100
48768,note_on,,,,,92,0,11,,,,,4,,52,104
48768,note_on,,,,,128,0,13,,,,,6,,67,100
48832,note_off,,,,,64,0,8,,,,,1,,83,100
48832,note_off,,,,,64,0,9,,,,,2,,83,100
48864,note_on,,,,,32,0,8,,,,,1,,83,106
48864,note_on,,,,,32,0,9,,,,,2,,83,106
48868,note_off,,,,,100,0,16,,,,,7,,52,100
48868,note_off,,,,,100,0,12,,,,,5,,40,100
48868,note_off,,,,,100,0,11,,,,,4,,52,100
48868,note_off,,,,,100,0,14,,,,,6,,52,100
48896,note_off,,,,,128,0,13,,,,,6,,67,100
48928,note_off,,,,,64,0,9,,,,,2,,83,100
48928,note_off,,,,,64,0,8,,,,,1,,83,100
48960,note_on,,,,,92,0,16,,,,,7,,52,100
48960,note_on,,,,,92,0,14,,,,,6,,52,100
48960,note_on,,,,,64,0,13,,,,,6,,79,100
48960,note_on,,,,,92,0,12,,,,,5,,40,107
48960,note_on,,,,,32,0,8,,,,,1,,83,107
48960,note_on,,,,,32,0,9,,,,,2,,83,107
48960,note_on,,,,,92,0,11,,,,,4,,52,107
49024,note_off,,,,,64,0,8,,,,,1,,83,100
49024,note_off,,,,,64,0,9,,,,,2,,83,100
49052,note_off,,,,,92,0,13,,,,,6,,79,100
49056,note_on,,,,,32,0,9,,,,,2,,83,108
49056,note_on,,,,,32,0,8,,,,,1,,83,108
49056,note_on,,,,,4,0,13,,,,,6,,78,100
49060,note_off,,,,,100,0,14,,,,,6,,52,100
49060,note_off,,,,,100,0,16,,,,,7,,52,100
49060,note_off,,,,,100,0,11,,,,,4,,52,100
49060,note_off,,,,,100,0,12,,,,,5,,40,100
49120,note_off,,,,,64,0,8,,,,,1,,83,100
49120,note_off,,,,,64,0,9,,,,,2,,83,100
49148,note_off,,,,,92,0,13,,,,,6,,78,100
49152,note_on,,,,,4,0,13,,,,,6,,76,100
49152,note_on,,,,,32,0,9,,,,,2,,76,109
49152,note_on,,,,,92,0,12,,,,,5,,43,109
49152,note_on,,,,,32,0,8,,,,,1,,76,109
49152,note_on,,,,,92,0,11,,,,,4,,55,109
49152,note_on,,,,,92,0,14,,,,,6,,55,100
49152,note_on,,,,,92,0,16,,,,,7,,55,100
49216,note_off,,,,,64,0,9,,,,,2,,76,100
49216,note_off,,,,,64,0,8,,,,,1,,76,100
49244,note_off,,,,,92,0,13,,,,,6,,76,100
49248,note_on,,,,,4,0,13,,,,,6,,78,100
49248,note_on,,,,,32,0,8,,,,,1,,83,105
49248,note_on,,,,,32,0,9,,,,,2,,83,105
49252,note_off,,,,,100,0,12,,,,,5,,43,100
49252,note_off,,,,,100,0,11,,,,,4,,55,100
49252,note_off,,,,,100,0,16,,,,,7,,55,100
49252,note_off,,,,,100,0,14,,,,,6,,55,100
49312,note_off,,,,,64,0,8,,,,,1,,83,100
49312,note_off,,,,,64,0,9,,,,,2,,83,100
49340,note_off,,,,,92,0,13,,,,,6,,78,100
49344,note_on,,,,,92,0,14,,,,,6,,52,100
49344,note_on,,,,,32,0,8,,,,,1,,83,105
49344,note_on,,,,,92,0,12,,,,,5,,40,105
49344,note_on,,,,,92,0,16,,,,,7,,52,100
49344,note_on,,,,,4,0,13,,,,,6,,79,100
49344,note_on,,,,,92,0,11,,,,,4,,52,105
49344,note_on,,,,,32,0,9,,,,,2,,83,105
49408,note_off,,,,,64,0,9,,,,,2,,83,100
49408,note_off,,,,,64,0,8,,,,,1,,83,100
49420,note_off,,,,,1036,0,15,,,,,7,,67,100
49420,note_off,,,,,0,0,15,,,,,7,,71,100
49420,note_off,,,,,0,0,15,,,,,7,,76,100
49440,note_on,,,,,32,0,8,,,,,1,,83,105
49440,note_on,,,,,32,0,9,,,,,2,,83,105
49444,note_off,,,,,100,0,11,,,,,4,,52,100
49444,note_off,,,,,100,0,16,,,,,7,,52,100
49444,note_off,,,,,100,0,12,,,,,5,,40,100
49444,note_off,,,,,100,0,14,,,,,6,,52,100
49504,note_off,,,,,64,0,9,,,,,2,,83,100
49504,note_off,,,,,64,0,8,,,,,1,,83,100
49536,note_on,,,,,116,0,15,,,,,7,,69,100
49536,note_on,,,,,192,0,13,,,,,6,,69,100
49536,note_on,,,,,32,0,8,,,,,1,,76,110
49536,note_on,,,,,32,0,9,,,,,2,,76,110
49536,note_on,,,,,92,0,11,,,,,4,,48,110
49536,note_on,,,,,0,0,15,,,,,7,,67,100
49536,note_on,,,,,92,0,14,,,,,6,,48,100
49536,note_on,,,,,0,0,15,,,,,7,,76,100
49536,note_on,,,,,92,0,16,,,,,7,,48,100
49536,note_on,,,,,92,0,12,,,,,5,,36,110
49536,note_on,,,,,0,0,15,,,,,7,,72,100
49600,note_off,,,,,64,0,8,,,,,1,,76,100
49600,note_off,,,,,64,0,9,,,,,2,,76,100
49628,note_off,,,,,92,0,13,,,,,6,,79,100
49632,note_on,,,,,32,0,8,,,,,1,,84,110
49632,note_on,,,,,4,0,13,,,,,6,,78,100
49632,note_on,,,,,32,0,9,,,,,2,,84,110
49636,note_off,,,,,100,0,14,,,,,6,,48,100
49636,note_off,,,,,100,0,16,,,,,7,,48,100
49636,note_off,,,,,100,0,11,,,,,4,,48,100
49636,note_off,,,,,100,0,12,,,,,5,,36,100
49696,note_off,,,,,64,0,8,,,,,1,,84,100
49696,note_off,,,,,64,0,9,,,,,2,,84,100
49724,note_off,,,,,92,0,13,,,,,6,,78,100
49728,note_on,,,,,32,0,9,,,,,2,,84,110
49728,note_on,,,,,92,0,14,,,,,6,,45,100
49728,note_on,,,,,32,0,8,,,,,1,,84,110
49728,note_on,,,,,4,0,13,,,,,6,,79,100
49728,note_on,,,,,92,0,12,,,,,5,,33,110
49728,note_on,,,,,92,0,16,,,,,7,,45,100
49728,note_on,,,,,92,0,11,,,,,4,,45,110
49792,note_off,,,,,64,0,8,,,,,1,,84,100
49792,note_off,,,,,64,0,13,,,,,6,,69,100
49792,note_off,,,,,1408,0,10,,,,,3,,67,100
49792,note_off,,,,,64,0,9,,,,,2,,84,100
49820,note_off,,,,,28,0,13,,,,,6,,79,100
49824,note_on,,,,,32,0,8,,,,,1,,84,110
49824,note_on,,,,,32,0,9,,,,,2,,84,110
49824,note_on,,,,,4,0,13,,,,,6,,76,100
49828,note_off,,,,,100,0,12,,,,,5,,33,100
49828,note_off,,,,,100,0,16,,,,,7,,45,100
49828,note_off,,,,,100,0,14,,,,,6,,45,100
49828,note_off,,,,,100,0,11,,,,,4,,45,100
49888,note_off,,,,,64,0,8,,,,,1,,84,100
49888,note_off,,,,,64,0,9,,,,,2,,84,100
49916,note_off,,,,,92,0,13,,,,,6,,76,100
49920,note_on,,,,,128,0,10,,,,,3,,64,110
49920,note_on,,,,,92,0,16,,,,,7,,45,100
49920,note_on,,,,,92,0,11,,,,,4,,45,110
49920,note_on,,,,,4,0,13,,,,,6,,64,100
49920,note_on,,,,,0,0,13,,,,,6,,72,100
49920,note_on,,,,,32,0,9,,,,,2,,84,110
49920,note_on,,,,,92,0,12,,,,,5,,33,110
49920,note_on,,,,,32,0,8,,,,,1,,84,110
49920,note_on,,,,,92,0,14,,,,,6,,45,100
49984,note_off,,,,,64,0,9,,,,,2,,84,100
49984,note_off,,,,,64,0,8,,,,,1,,84,100
50016,note_on,,,,,32,0,8,,,,,1,,84,110
50016,note_on,,,,,32,0,9,,,,,2,,84,110
50020,note_off,,,,,100,0,14,,,,,6,,45,100
50020,note_off,,,,,100,0,12,,,,,5,,33,100
50020,note_off,,,,,100,0,16,,,,,7,,45,100
50020,note_off,,,,,100,0,11,,,,,4,,45,100
50048,note_off,,,,,128,0,13,,,,,6,,72,100
50080,note_off,,,,,64,0,9,,,,,2,,84,100
50080,note_off,,,,,64,0,8,,,,,1,,84,100
50112,note_on,,,,,32,0,8,,,,,1,,84,110
50112,note_on,,,,,92,0,14,,,,,6,,57,100
50112,note_on,,,,,32,0,9,,,,,2,,84,110
50112,note_on,,,,,64,0,13,,,,,6,,72,100
50112,note_on,,,,,92,0,12,,,,,5,,45,110
50112,note_on,,,,,92,0,16,,,,,7,,57,100
50112,note_on,,,,,92,0,11,,,,,4,,57,110
50176,note_off,,,,,64,0,9,,,,,2,,84,100
50176,note_off,,,,,64,0,8,,,,,1,,84,100
50176,note_off,,,,,256,0,10,,,,,3,,64,100
50204,note_off,,,,,92,0,13,,,,,6,,72,100
50208,note_on,,,,,32,0,8,,,,,1,,84,109
50208,note_on,,,,,4,0,13,,,,,6,,71,100
50208,note_on,,,,,32,0,9,,,,,2,,84,109
50212,note_off,,,,,100,0,12,,,,,5,,45,100
50212,note_off,,,,,100,0,14,,,,,6,,57,100
50212,note_off,,,,,100,0,16,,,,,7,,57,100
50212,note_off,,,,,100,0,11,,,,,4,,57,100
50272,note_off,,,,,64,0,8,,,,,1,,84,100
50272,note_off,,,,,64,0,9,,,,,2,,84,100
50300,note_off,,,,,92,0,13,,,,,6,,71,100
50304,note_on,,,,,128,0,10,,,,,3,,72,109
50304,note_on,,,,,92,0,16,,,,,7,,60,100
50304,note_on,,,,,92,0,12,,,,,5,,48,109
50304,note_on,,,,,32,0,8,,,,,1,,76,109
50304,note_on,,,,,92,0,14,,,,,6,,60,100
50304,note_on,,,,,32,0,9,,,,,2,,76,109
50304,note_on,,,,,92,0,11,,,,,4,,60,109
50304,note_on,,,,,4,0,13,,,,,6,,69,100
50368,note_off,,,,,64,0,8,,,,,1,,76,100
50368,note_off,,,,,64,0,9,,,,,2,,76,100
50396,note_off,,,,,92,0,13,,,,,6,,69,100
50400,note_on,,,,,32,0,9,,,,,2,,84,109
50400,note_on,,,,,32,0,8,,,,,1,,84,109
50400,note_on,,,,,4,0,13,,,,,6,,71,100
50404,note_off,,,,,100,0,12,,,,,5,,48,100
50404,note_off,,,,,100,0,16,,,,,7,,60,100
50404,note_off,,,,,100,0,11,,,,,4,,60,100
50404,note_off,,,,,100,0,14,,,,,6,,60,100
50432,note_off,,,,,32,0,13,,,,,6,,64,100
50464,note_off,,,,,64,0,8,,,,,1,,84,100
50464,note_off,,,,,64,0,9,,,,,2,,84,100
50492,note_off,,,,,60,0,13,,,,,6,,71,100
50496,note_on,,,,,92,0,16,,,,,7,,57,100
50496,note_on,,,,,4,0,13,,,,,6,,72,100
50496,note_on,,,,,92,0,14,,,,,6,,57,100
50496,note_on,,,,,92,0,12,,,,,5,,45,109
50496,note_on,,,,,92,0,11,,,,,4,,57,109
50496,note_on,,,,,32,0,8,,,,,1,,84,109
50496,note_on,,,,,32,0,9,,,,,2,,84,109
50560,note_off,,,,,64,0,8,,,,,1,,84,100
50560,note_off,,,,,64,0,9,,,,,2,,84,100
50572,note_off,,,,,0,0,15,,,,,7,,72,100
50572,note_off,,,,,0,0,15,,,,,7,,76,100
50572,note_off,,,,,1036,0,15,,,,,7,,69,100
50572,note_off,,,,,0,0,15,,,,,7,,67,100
50592,note_on,,,,,96,0,13,,,,,6,,69,100
50592,note_on,,,,,32,0,9,,,,,2,,84,109
50592,note_on,,,,,32,0,8,,,,,1,,84,109
50596,note_off,,,,,100,0,12,,,,,5,,45,100
50596,note_off,,,,,100,0,16,,,,,7,,57,100
50596,note_off,,,,,100,0,11,,,,,4,,57,100
50596,note_off,,,,,100,0,14,,,,,6,,57,100
50624,note_off,,,,,32,0,13,,,,,6,,72,100
50656,note_off,,,,,64,0,8,,,,,1,,84,100
50656,note_off,,,,,64,0,9,,,,,2,,84,100
50684,note_off,,,,,60,0,13,,,,,6,,69,100
50688,note_on,,,,,0,0,15,,,,,7,,72,100
50688,note_on,,,,,92,0,11,,,,,4,,54,109
50688,note_on,,,,,32,0,9,,,,,2,,74,109
50688,note_on,,,,,92,0,16,,,,,7,,54,100
50688,note_on,,,,,4,0,13,,,,,6,,62,100
50688,note_on,,,,,92,0,12,,,,,5,,42,109
50688,note_on,,,,,0,0,15,,,,,7,,69,100
50688,note_on,,,,,32,0,8,,,,,1,,74,109
50688,note_on,,,,,92,0,14,,,,,6,,54,100
50688,note_on,,,,,116,0,15,,,,,7,,74,100
50688,note_on,,,,,0,0,15,,,,,7,,66,100
50752,note_off,,,,,64,0,8,,,,,1,,74,100
50752,note_off,,,,,64,0,9,,,,,2,,74,100
50784,note_on,,,,,32,0,8,,,,,1,,81,108
50784,note_on,,,,,32,0,9,,,,,2,,81,108
50784,note_on,,,,,96,0,13,,,,,6,,71,100
50788,note_off,,,,,100,0,12,,,,,5,,42,100
50788,note_off,,,,,100,0,16,,,,,7,,54,100
50788,note_off,,,,,100,0,11,,,,,4,,54,100
50788,note_off,,,,,100,0,14,,,,,6,,54,100
50848,note_off,,,,,64,0,9,,,,,2,,81,100
50848,note_off,,,,,64,0,8,,,,,1,,81,100
50876,note_off,,,,,92,0,13,,,,,6,,71,100
50880,note_on,,,,,4,0,13,,,,,6,,72,100
50880,note_on,,,,,92,0,16,,,,,7,,50,100
50880,note_on,,,,,92,0,14,,,,,6,,50,100
50880,note_on,,,,,32,0,9,,,,,2,,81,108
50880,note_on,,,,,92,0,12,,,,,5,,38,108
50880,note_on,,,,,32,0,8,,,,,1,,81,108
50880,note_on,,,,,92,0,11,,,,,4,,50,108
50944,note_off,,,,,64,0,8,,,,,1,,81,100
50944,note_off,,,,,640,0,10,,,,,3,,72,100
50944,note_off,,,,,64,0,13,,,,,6,,62,100
50944,note_off,,,,,64,0,9,,,,,2,,81,100
50972,note_off,,,,,28,0,13,,,,,6,,72,100
50976,note_on,,,,,32,0,9,,,,,2,,81,108
50976,note_on,,,,,4,0,13,,,,,6,,69,100
50976,note_on,,,,,32,0,8,,,,,1,,81,108
50980,note_off,,,,,100,0,16,,,,,7,,50,100
50980,note_off,,,,,100,0,14,,,,,6,,50,100
50980,note_off,,,,,100,0,12,,,,,5,,38,100
50980,note_off,,,,,100,0,11,,,,,4,,50,100
51040,note_off,,,,,64,0,8,,,,,1,,81,100
51040,note_off,,,,,64,0,9,,,,,2,,81,100
51068,note_off,,,,,92,0,13,,,,,6,,69,100
51072,note_on,,,,,32,0,9,,,,,2,,81,108
51072,note_on,,,,,92,0,11,,,,,4,,50,108
51072,note_on,,,,,92,0,14,,,,,6,,50,100
51072,note_on,,,,,128,0,10,,,,,3,,66,108
51072,note_on,,,,,32,0,8,,,,,1,,81,108
51072,note_on,,,,,92,0,16,,,,,7,,50,100
51072,note_on,,,,,0,0,13,,,,,6,,57,100
51072,note_on,,,,,4,0,13,,,,,6,,66,100
51072,note_on,,,,,92,0,12,,,,,5,,38,108
51136,note_off,,,,,64,0,8,,,,,1,,81,100
51136,note_off,,,,,64,0,9,,,,,2,,81,100
51168,note_on,,,,,32,0,8,,,,,1,,81,108
51168,note_on,,,,,32,0,9,,,,,2,,81,108
51172,note_off,,,,,100,0,14,,,,,6,,50,100
51172,note_off,,,,,100,0,16,,,,,7,,50,100
51172,note_off,,,,,100,0,11,,,,,4,,50,100
51172,note_off,,,,,100,0,12,,,,,5,,38,100
51200,note_off,,,,,128,0,13,,,,,6,,66,100
51232,note_off,,,,,64,0,8,,,,,1,,81,100
51232,note_off,,,,,64,0,9,,,,,2,,81,100
51264,note_on,,,,,32,0,9,,,,,2,,81,108
51264,note_on,,,,,92,0,16,,,,,7,,50,100
51264,note_on,,,,,92,0,12,,,,,5,,38,108
51264,note_on,,,,,92,0,11,,,,,4,,50,108
51264,note_on,,,,,32,0,8,,,,,1,,81,108
51264,note_on,,,,,92,0,14,,,,,6,,50,100
51264,note_on,,,,,64,0,13,,,,,6,,78,100
51328,note_off,,,,,64,0,8,,,,,1,,81,100
51328,note_off,,,,,64,0,9,,,,,2,,81,100
51356,note_off,,,,,92,0,13,,,,,6,,78,100
51360,note_on,,,,,32,0,9,,,,,2,,81,107
51360,note_on,,,,,32,0,8,,,,,1,,81,107
51360,note_on,,,,,4,0,13,,,,,6,,76,100
51364,note_off,,,,,100,0,16,,,,,7,,50,100
51364,note_off,,,,,100,0,12,,,,,5,,38,100
51364,note_off,,,,,100,0,11,,,,,4,,50,100
51364,note_off,,,,,100,0,14,,,,,6,,50,100
51424,note_off,,,,,64,0,8,,,,,1,,81,100
51424,note_off,,,,,64,0,9,,,,,2,,81,100
51452,note_off,,,,,92,0,13,,,,,6,,76,100
51456,note_on,,,,,92,0,11,,,,,4,,54,107
51456,note_on,,,,,32,0,8,,,,,1,,74,107
51456,note_on,,,,,92,0,16,,,,,7,,54,100
51456,note_on,,,,,32,0,9,,,,,2,,74,107
51456,note_on,,,,,4,0,13,,,,,6,,74,100
51456,note_on,,,,,92,0,12,,,,,5,,42,107
51456,note_on,,,,,92,0,14,,,,,6,,54,100
51520,note_off,,,,,64,0,8,,,,,1,,74,100
51520,note_off,,,,,64,0,9,,,,,2,,74,100
51548,note_off,,,,,92,0,13,,,,,6,,74,100
51552,note_on,,,,,32,0,9,,,,,2,,81,107
51552,note_on,,,,,32,0,8,,,,,1,,81,107
51552,note_on,,,,,4,0,13,,,,,6,,76,100
51556,note_off,,,,,100,0,16,,,,,7,,54,100
51556,note_off,,,,,100,0,11,,,,,4,,54,100
51556,note_off,,,,,100,0,12,,,,,5,,42,100
51556,note_off,,,,,100,0,14,,,,,6,,54,100
51584,note_off,,,,,32,0,13,,,,,6,,57,100
51616,note_off,,,,,64,0,9,,,,,2,,81,100
51616,note_off,,,,,64,0,8,,,,,1,,81,100
51644,note_off,,,,,60,0,13,,,,,6,,76,100
51648,note_on,,,,,32,0,9,,,,,2,,81,107
51648,note_on,,,,,92,0,12,,,,,5,,38,107
51648,note_on,,,,,92,0,14,,,,,6,,50,100
51648,note_on,,,,,32,0,8,,,,,1,,81,107
51648,note_on,,,,,92,0,11,,,,,4,,50,107
51648,note_on,,,,,92,0,16,,,,,7,,50,100
51648,note_on,,,,,4,0,13,,,,,6,,78,100
51712,note_off,,,,,64,0,8,,,,,1,,81,100
51712,note_off,,,,,64,0,9,,,,,2,,81,100
51724,note_off,,,,,0,0,15,,,,,7,,66,100
51724,note_off,,,,,0,0,15,,,,,7,,69,100
51724,note_off,,,,,0,0,15,,,,,7,,72,100
51724,note_off,,,,,1036,0,15,,,,,7,,74,100
51744,note_on,,,,,96,0,13,,,,,6,,74,100
51744,note_on,,,,,32,0,8,,,,,1,,81,107
51744,note_on,,,,,32,0,9,,,,,2,,81,107
51748,note_off,,,,,100,0,11,,,,,4,,50,100
51748,note_off,,,,,100,0,14,,,,,6,,50,100
51748,note_off,,,,,100,0,16,,,,,7,,50,100
51748,note_off,,,,,100,0,12,,,,,5,,38,100
51808,note_off,,,,,64,0,9,,,,,2,,81,100
51808,note_off,,,,,64,0,8,,,,,1,,81,100
51836,note_off,,,,,92,0,13,,,,,6,,74,100
51840,note_on,,,,,0,0,15,,,,,7,,74,100
51840,note_on,,,,,92,0,11,,,,,4,,47,107
51840,note_on,,,,,0,0,15,,,,,7,,67,100
51840,note_on,,,,,116,0,15,,,,,7,,66,100
51840,note_on,,,,,4,0,13,,,,,6,,64,100
51840,note_on,,,,,92,0,16,,,,,7,,47,100
51840,note_on,,,,,92,0,14,,,,,6,,47,100
51840,note_on,,,,,32,0,8,,,,,1,,74,107
51840,note_on,,,,,32,0,9,,,,,2,,74,107
51840,note_on,,,,,92,0,12,,,,,5,,35,107
51840,note_on,,,,,0,0,15,,,,,7,,71,100
51904,note_off,,,,,64,0,9,,,,,2,,74,100
51904,note_off,,,,,64,0,8,,,,,1,,74,100
51932,note_off,,,,,92,0,13,,,,,6,,78,100
51936,note_on,,,,,32,0,8,,,,,1,,83,106
51936,note_on,,,,,32,0,9,,,,,2,,83,106
51936,note_on,,,,,4,0,13,,,,,6,,76,100
51940,note_off,,,,,100,0,14,,,,,6,,47,100
51940,note_off,,,,,100,0,11,,,,,4,,47,100
51940,note_off,,,,,100,0,16,,,,,7,,47,100
51940,note_off,,,,,100,0,12,,,,,5,,35,100
52000,note_off,,,,,64,0,8,,,,,1,,83,100
52000,note_off,,,,,64,0,9,,,,,2,,83,100
52028,note_off,,,,,92,0,13,,,,,6,,76,100
52032,note_on,,,,,32,0,8,,,,,1,,83,106
52032,note_on,,,,,92,0,14,,,,,6,,43,100
52032,note_on,,,,,32,0,9,,,,,2,,83,106
52032,note_on,,,,,92,0,12,,,,,5,,31,106
52032,note_on,,,,,4,0,13,,,,,6,,78,100
52032,note_on,,,,,92,0,11,,,,,4,,43,106
52032,note_on,,,,,92,0,16,,,,,7,,43,100
52096,note_off,,,,,64,0,9,,,,,2,,83,100
52096,note_off,,,,,64,0,8,,,,,1,,83,100
52096,note_off,,,,,1024,0,10,,,,,3,,66,100
52096,note_off,,,,,64,0,13,,,,,6,,64,100
52124,note_off,,,,,28,0,13,,,,,6,,78,100
52128,note_on,,,,,32,0,9,,,,,2,,83,106
52128,note_on,,,,,32,0,8,,,,,1,,83,106
52128,note_on,,,,,4,0,13,,,,,6,,74,100
52132,note_off,,,,,100,0,16,,,,,7,,43,100
52132,note_off,,,,,100,0,12,,,,,5,,31,100
52132,note_off,,,,,100,0,11,,,,,4,,43,100
52132,note_off,,,,,100,0,14,,,,,6,,43,100
52192,note_off,,,,,64,0,9,,,,,2,,83,100
52192,note_off,,,,,64,0,8,,,,,1,,83,100
52220,note_off,,,,,92,0,13,,,,,6,,74,100
52224,note_on,,,,,92,0,11,,,,,4,,43,106
52224,note_on,,,,,32,0,9,,,,,2,,83,106
52224,note_on,,,,,92,0,14,,,,,6,,43,100
52224,note_on,,,,,4,0,13,,,,,6,,62,100
52224,note_on,,,,,0,0,13,,,,,6,,71,100
52224,note_on,,,,,92,0,12,,,,,5,,31,106
52224,note_on,,,,,128,0,10,,,,,3,,62,106
52224,note_on,,,,,92,0,16,,,,,7,,43,100
52224,note_on,,,,,32,0,8,,,,,1,,83,106
52288,note_off,,,,,64,0,9,,,,,2,,83,100
52288,note_off,,,,,64,0,8,,,,,1,,83,100
52320,note_on,,,,,32,0,9,,,,,2,,83,106
52320,note_on,,,,,32,0,8,,,,,1,,83,106
52324,note_off,,,,,100,0,14,,,,,6,,43,100
52324,note_off,,,,,100,0,11,,,,,4,,43,100
52324,note_off,,,,,100,0,12,,,,,5,,31,100
52324,note_off,,,,,100,0,16,,,,,7,,43,100
52352,note_off,,,,,128,0,13,,,,,6,,71,100
52384,note_off,,,,,64,0,8,,,,,1,,83,100
52384,note_off,,,,,64,0,9,,,,,2,,83,100
52416,note_on,,,,,92,0,11,,,,,4,,55,106
52416,note_on,,,,,92,0,12,,,,,5,,43,106
52416,note_on,,,,,64,0,13,,,,,6,,71,100
52416,note_on,,,,,32,0,9,,,,,2,,83,106
52416,note_on,,,,,32,0,8,,,,,1,,83,106
52416,note_on,,,,,92,0,14,,,,,6,,55,100
52416,note_on,,,,,92,0,16,,,,,7,,55,100
52480,note_off,,,,,64,0,8,,,,,1,,83,100
52480,note_off,,,,,256,0,10,,,,,3,,62,100
52480,note_off,,,,,64,0,9,,,,,2,,83,100
52508,note_off,,,,,92,0,13,,,,,6,,71,100
52512,note_on,,,,,4,0,13,,,,,6,,69,100
52512,note_on,,,,,32,0,8,,,,,1,,83,105
52512,note_on,,,,,32,0,9,,,,,2,,83,105
52516,note_off,,,,,100,0,14,,,,,6,,55,100
52516,note_off,,,,,100,0,12,,,,,5,,43,100
52516,note_off,,,,,100,0,16,,,,,7,,55,100
52516,note_off,,,,,100,0,11,,,,,4,,55,100
52576,note_off,,,,,64,0,9,,,,,2,,83,100
52576,note_off,,,,,64,0,8,,,,,1,,83,100
52604,note_off,,,,,92,0,13,,,,,6,,69,100
52608,note_on,,,,,32,0,8,,,,,1,,74,105
52608,note_on,,,,,32,0,9,,,,,2,,74,105
52608,note_on,,,,,4,0,13,,,,,6,,67,100
52608,note_on,,,,,92,0,12,,,,,5,,47,105
52608,note_on,,,,,128,0,10,,,,,3,,71,105
52608,note_on,,,,,92,0,14,,,,,6,,59,100
52608,note_on,,,,,92,0,16,,,,,7,,59,100
52608,note_on,,,,,92,0,11,,,,,4,,59,105
52672,note_off,,,,,64,0,8,,,,,1,,74,100
52672,note_off,,,,,64,0,9,,,,,2,,74,100
52700,note_off,,,,,92,0,13,,,,,6,,67,100
52704,note_on,,,,,32,0,9,,,,,2,,83,105
52704,note_on,,,,,32,0,8,,,,,1,,83,105
52704,note_on,,,,,4,0,13,,,,,6,,69,100
52708,note_off,,,,,100,0,12,,,,,5,,47,100
52708,note_off,,,,,100,0,16,,,,,7,,59,100
52708,note_off,,,,,100,0,14,,,,,6,,59,100
52708,note_off,,,,,100,0,11,,,,,4,,59,100
52736,note_off,,,,,32,0,13,,,,,6,,62,100
52768,note_off,,,,,64,0,9,,,,,2,,83,100
52768,note_off,,,,,64,0,8,,,,,1,,83,100
52796,note_off,,,,,60,0,13,,,,,6,,69,100
52800,note_on,,,,,92,0,14,,,,,6,,55,100
52800,note_on,,,,,32,0,9,,,,,2,,83,105
52800,note_on,,,,,4,0,13,,,,,6,,71,100
52800,note_on,,,,,92,0,16,,,,,7,,55,100
52800,note_on,,,,,92,0,12,,,,,5,,43,105
52800,note_on,,,,,92,0,11,,,,,4,,55,105
52800,note_on,,,,,32,0,8,,,,,1,,83,105
52864,note_off,,,,,64,0,9,,,,,2,,83,100
52864,note_off,,,,,64,0,8,,,,,1,,83,100
52876,note_off,,,,,0,0,15,,,,,7,,67,100
52876,note_off,,,,,1036,0,15,,,,,7,,66,100
52876,note_off,,,,,0,0,15,,,,,7,,71,100
52876,note_off,,,,,0,0,15,,,,,7,,74,100
52896,note_on,,,,,32,0,9,,,,,2,,83,105
52896,note_on,,,,,96,0,13,,,,,6,,67,100
52896,note_on,,,,,32,0,8,,,,,1,,83,105
52900,note_off,,,,,100,0,11,,,,,4,,55,100
52900,note_off,,,,,100,0,12,,,,,5,,43,100
52900,note_off,,,,,100,0,14,,,,,6,,55,100
52900,note_off,,,,,100,0,16,,,,,7,,55,100
52928,note_off,,,,,32,0,13,,,,,6,,71,100
52960,note_off,,,,,64,0,9,,,,,2,,83,100
52960,note_off,,,,,64,0,8,,,,,1,,83,100
52988,note_off,,,,,60,0,13,,,,,6,,67,100
52992,note_on,,,,,116,0,15,,,,,7,,72,100
52992,note_on,,,,,32,0,9,,,,,2,,72,105
52992,note_on,,,,,92,0,11,,,,,4,,52,105
52992,note_on,,,,,92,0,16,,,,,7,,52,100
52992,note_on,,,,,92,0,12,,,,,5,,40,105
52992,note_on,,,,,92,0,14,,,,,6,,52,100
52992,note_on,,,,,0,0,15,,,,,7,,71,100
52992,note_on,,,,,0,0,15,,,,,7,,67,100
52992,note_on,,,,,0,0,15,,,,,7,,64,100
52992,note_on,,,,,4,0,13,,,,,6,,60,100
52992,note_on,,,,,32,0,8,,,,,1,,72,105
53056,note_off,,,,,64,0,9,,,,,2,,72,100
53056,note_off,,,,,64,0,8,,,,,1,,72,100
53088,note_on,,,,,32,0,8,,,,,1,,79,104
53088,note_on,,,,,96,0,13,,,,,6,,69,100
53088,note_on,,,,,32,0,9,,,,,2,,79,104
53092,note_off,,,,,100,0,14,,,,,6,,52,100
53092,note_off,,,,,100,0,11,,,,,4,,52,100
53092,note_off,,,,,100,0,16,,,,,7,,52,100
53092,note_off,,,,,100,0,12,,,,,5,,40,100
53152,note_off,,,,,64,0,8,,,,,1,,79,100
53152,note_off,,,,,64,0,9,,,,,2,,79,100
53180,note_off,,,,,92,0,13,,,,,6,,69,100
53184,note_on,,,,,4,0,13,,,,,6,,71,100
53184,note_on,,,,,32,0,8,,,,,1,,79,104
53184,note_on,,,,,92,0,16,,,,,7,,48,100
53184,note_on,,,,,92,0,12,,,,,5,,36,104
53184,note_on,,,,,92,0,11,,,,,4,,48,104
53184,note_on,,,,,92,0,14,,,,,6,,48,100
53184,note_on,,,,,32,0,9,,,,,2,,79,104
53248,note_off,,,,,64,0,8,,,,,1,,79,100
53248,note_off,,,,,64,0,9,,,,,2,,79,100
53248,note_off,,,,,64,0,13,,,,,6,,60,100
53248,note_off,,,,,640,0,10,,,,,3,,71,100
53276,note_off,,,,,28,0,13,,,,,6,,71,100
53280,note_on,,,,,4,0,13,,,,,6,,67,100
53280,note_on,,,,,32,0,9,,,,,2,,79,104
53280,note_on,,,,,32,0,8,,,,,1,,79,104
53284,note_off,,,,,100,0,14,,,,,6,,48,100
53284,note_off,,,,,100,0,11,,,,,4,,48,100
53284,note_off,,,,,100,0,12,,,,,5,,36,100
53284,note_off,,,,,100,0,16,,,,,7,,48,100
53344,note_off,,,,,64,0,8,,,,,1,,79,100
53344,note_off,,,,,64,0,9,,,,,2,,79,100
53372,note_off,,,,,92,0,13,,,,,6,,67,100
53376,note_on,,,,,92,0,12,,,,,5,,36,104
53376,note_on,,,,,32,0,8,,,,,1,,79,104
53376,note_on,,,,,128,0,10,,,,,3,,64,104
53376,note_on,,,,,92,0,11,,,,,4,,48,104
53376,note_on,,,,,32,0,9,,,,,2,,79,104
53376,note_on,,,,,92,0,16,,,,,7,,48,100
53376,note_on,,,,,0,0,13,,,,,6,,55,100
53376,note_on,,,,,4,0,13,,,,,6,,64,100
53376,note_on,,,,,92,0,14,,,,,6,,48,100
53440,note_off,,,,,64,0,9,,,,,2,,79,100
53440,note_off,,,,,64,0,8,,,,,1,,79,100
53472,note_on,,,,,32,0,9,,,,,2,,79,104
53472,note_on,,,,,32,0,8,,,,,1,,79,104
53476,note_off,,,,,100,0,11,,,,,4,,48,100
53476,note_off,,,,,100,0,14,,,,,6,,48,100
53476,note_off,,,,,100,0,16,,,,,7,,48,100
53476,note_off,,,,,100,0,12,,,,,5,,36,100
53504,note_off,,,,,128,0,13,,,,,6,,64,100
53536,note_off,,,,,64,0,9,,,,,2,,79,100
53536,note_off,,,,,64,0,8,,,,,1,,79,100
53568,note_on,,,,,92,0,14,,,,,6,,48,100
53568,note_on,,,,,64,0,13,,,,,6,,76,100
53568,note_on,,,,,32,0,9,,,,,2,,79,104
53568,note_on,,,,,92,0,11,,,,,4,,48,104
53568,note_on,,,,,92,0,12,,,,,5,,36,104
53568,note_on,,,,,92,0,16,,,,,7,,48,100
53568,note_on,,,,,32,0,8,,,,,1,,79,104
53632,note_off,,,,,64,0,9,,,,,2,,79,100
53632,note_off,,,,,64,0,8,,,,,1,,79,100
53660,note_off,,,,,92,0,13,,,,,6,,76,100
53664,note_on,,,,,32,0,8,,,,,1,,79,103
53664,note_on,,,,,32,0,9,,,,,2,,79,103
53664,note_on,,,,,4,0,13,,,,,6,,74,100
53668,note_off,,,,,100,0,14,,,,,6,,48,100
53668,note_off,,,,,100,0,12,,,,,5,,36,100
53668,note_off,,,,,100,0,11,,,,,4,,48,100
53668,note_off,,,,,100,0,16,,,,,7,,48,100
53728,note_off,,,,,64,0,9,,,,,2,,79,100
53728,note_off,,,,,64,0,8,,,,,1,,79,100
53756,note_off,,,,,92,0,13,,,,,6,,74,100
53760,note_on,,,,,32,0,9,,,,,2,,72,103
53760,note_on,,,,,92,0,12,,,,,5,,40,103
53760,note_on,,,,,92,0,11,,,,,4,,52,103
53760,note_on,,,,,92,0,16,,,,,7,,52,100
53760,note_on,,,,,32,0,8,,,,,1,,72,103
53760,note_on,,,,,92,0,14,,,,,6,,52,100
53760,note_on,,,,,4,0,13,,,,,6,,72,100
53824,note_off,,,,,64,0,9,,,,,2,,72,100
53824,note_off,,,,,64,0,8,,,,,1,,72,100
53852,note_off,,,,,92,0,13,,,,,6,,72,100
53856,note_on,,,,,32,0,8,,,,,1,,79,103
53856,note_on,,,,,32,0,9,,,,,2,,79,103
53856,note_on,,,,,4,0,13,,,,,6,,74,100
53860,note_off,,,,,100,0,14,,,,,6,,52,100
53860,note_off,,,,,100,0,12,,,,,5,,40,100
53860,note_off,,,,,100,0,11,,,,,4,,52,100
53860,note_off,,,,,100,0,16,,,,,7,,52,100
53888,note_off,,,,,32,0,13,,,,,6,,55,100
53920,note_off,,,,,64,0,9,,,,,2,,79,100
53920,note_off,,,,,64,0,8,,,,,1,,79,100
53948,note_off,,,,,60,0,13,,,,,6,,74,100
53952,note_on,,,,,92,0,12,,,,,5,,36,103
53952,note_on,,,,,32,0,9,,,,,2,,79,103
53952,note_on,,,,,92,0,11,,,,,4,,48,103
53952,note_on,,,,,32,0,8,,,,,1,,79,103
53952,note_on,,,,,92,0,16,,,,,7,,48,100
53952,note_on,,,,,4,0,13,,,,,6,,76,100
53952,note_on,,,,,92,0,14,,,,,6,,48,100
54016,note_off,,,,,64,0,9,,,,,2,,79,100
54016,note_off,,,,,64,0,8,,,,,1,,79,100
54028,note_off,,,,,0,0,15,,,,,7,,71,100
54028,note_off,,,,,0,0,15,,,,,7,,67,100
54028,note_off,,,,,0,0,15,,,,,7,,64,100
54028,note_off,,,,,1036,0,15,,,,,7,,72,100
54048,note_on,,,,,32,0,9,,,,,2,,79,103
54048,note_on,,,,,96,0,13,,,,,6,,72,100
54048,note_on,,,,,32,0,8,,,,,1,,79,103
54052,note_off,,,,,100,0,14,,,,,6,,48,100
54052,note_off,,,,,100,0,16,,,,,7,,48,100
54052,note_off,,,,,100,0,11,,,,,4,,48,100
54052,note_off,,,,,100,0,12,,,,,5,,36,100
54112,note_off,,,,,64,0,8,,,,,1,,79,100
54112,note_off,,,,,64,0,9,,,,,2,,79,100
54140,note_off,,,,,92,0,13,,,,,6,,72,100
54144,note_on,,,,,4,0,13,,,,,6,,66,100
54144,note_on,,,,,92,0,16,,,,,7,,45,100
54144,note_on,,,,,92,0,11,,,,,4,,45,103
54144,note_on,,,,,32,0,9,,,,,2,,72,103
54144,note_on,,,,,92,0,14,,,,,6,,45,100
54144,note_on,,,,,0,0,15,,,,,7,,64,100
54144,note_on,,,,,116,0,15,,,,,7,,66,100
54144,note_on,,,,,0,0,15,,,,,7,,69,100
54144,note_on,,,,,0,0,15,,,,,7,,72,100
54144,note_on,,,,,32,0,8,,,,,1,,72,103
54144,note_on,,,,,92,0,12,,,,,5,,33,103
54208,note_off,,,,,64,0,8,,,,,1,,72,100
54208,note_off,,,,,64,0,9,,,,,2,,72,100
54236,note_off,,,,,92,0,13,,,,,6,,76,100
54240,note_on,,,,,4,0,13,,,,,6,,74,100
54240,note_on,,,,,32,0,8,,,,,1,,81,102
54240,note_on,,,,,32,0,9,,,,,2,,81,102
54244,note_off,,,,,100,0,12,,,,,5,,33,100
54244,note_off,,,,,100,0,14,,,,,6,,45,100
54244,note_off,,,,,100,0,11,,,,,4,,45,100
54244,note_off,,,,,100,0,16,,,,,7,,45,100
54304,note_off,,,,,64,0,9,,,,,2,,81,100
54304,note_off,,,,,64,0,8,,,,,1,,81,100
54332,note_off,,,,,92,0,13,,,,,6,,74,100
54336,note_on,,,,,92,0,16,,,,,7,,42,100
54336,note_on,,,,,32,0,8,,,,,1,,81,102
54336,note_on,,,,,92,0,11,,,,,4,,42,102
54336,note_on,,,,,92,0,14,,,,,6,,42,100
54336,note_on,,,,,92,0,12,,,,,5,,42,102
54336,note_on,,,,,4,0,13,,,,,6,,76,100
54336,note_on,,,,,32,0,9,,,,,2,,81,102
54400,note_off,,,,,64,0,8,,,,,1,,81,100
54400,note_off,,,,,1024,0,10,,,,,3,,64,100
54400,note_off,,,,,64,0,13,,,,,6,,66,100
54400,note_off,,,,,64,0,9,,,,,2,,81,100
54428,note_off,,,,,28,0,13,,,,,6,,76,100
54432,note_on,,,,,4,0,13,,,,,6,,72,100
54432,note_on,,,,,32,0,8,,,,,1,,81,102
54432,note_on,,,,,32,0,9,,,,,2,,81,102
54436,note_off,,,,,100,0,12,,,,,5,,42,100
54436,note_off,,,,,100,0,14,,,,,6,,42,100
54436,note_off,,,,,100,0,16,,,,,7,,42,100
54436,note_off,,,,,100,0,11,,,,,4,,42,100
54496,note_off,,,,,64,0,9,,,,,2,,81,100
54496,note_off,,,,,64,0,8,,,,,1,,81,100
54524,note_off,,,,,92,0,13,,,,,6,,72,100
54528,note_on,,,,,92,0,16,,,,,7,,42,100
54528,note_on,,,,,32,0,8,,,,,1,,81,102
54528,note_on,,,,,0,0,13,,,,,6,,69,100
54528,note_on,,,,,4,0,13,,,,,6,,60,100
54528,note_on,,,,,32,0,9,,,,,2,,81,102
54528,note_on,,,,,92,0,12,,,,,5,,42,102
54528,note_on,,,,,128,0,10,,,,,3,,60,102
54528,note_on,,,,,92,0,14,,,,,6,,42,100
54528,note_on,,,,,92,0,11,,,,,4,,42,102
54592,note_off,,,,,64,0,9,,,,,2,,81,100
54592,note_off,,,,,64,0,8,,,,,1,,81,100
54624,note_on,,,,,32,0,9,,,,,2,,81,102
54624,note_on,,,,,32,0,8,,,,,1,,81,102
54628,note_off,,,,,100,0,12,,,,,5,,42,100
54628,note_off,,,,,100,0,16,,,,,7,,42,100
54628,note_off,,,,,100,0,11,,,,,4,,42,100
54628,note_off,,,,,100,0,14,,,,,6,,42,100
54656,note_off,,,,,128,0,13,,,,,6,,69,100
54688,note_off,,,,,64,0,8,,,,,1,,81,100
54688,note_off,,,,,64,0,9,,,,,2,,81,100
54720,note_on,,,,,32,0,8,,,,,1,,81,102
54720,note_on,,,,,92,0,12,,,,,5,,42,102
54720,note_on,,,,,92,0,11,,,,,4,,54,102
54720,note_on,,,,,32,0,9,,,,,2,,81,102
54720,note_on,,,,,92,0,16,,,,,7,,54,100
54720,note_on,,,,,64,0,13,,,,,6,,69,100
54720,note_on,,,,,92,0,14,,,,,6,,54,100
54784,note_off,,,,,256,0,10,,,,,3,,60,100
54784,note_off,,,,,64,0,9,,,,,2,,81,100
54784,note_off,,,,,64,0,8,,,,,1,,81,100
54812,note_off,,,,,92,0,13,,,,,6,,69,100
54816,note_on,,,,,32,0,9,,,,,2,,81,101
54816,note_on,,,,,32,0,8,,,,,1,,81,101
54816,note_on,,,,,4,0,13,,,,,6,,67,100
54820,note_off,,,,,100,0,11,,,,,4,,54,100
54820,note_off,,,,,100,0,16,,,,,7,,54,100
54820,note_off,,,,,100,0,12,,,,,5,,42,100
54820,note_off,,,,,100,0,14,,,,,6,,54,100
54880,note_off,,,,,64,0,8,,,,,1,,81,100
54880,note_off,,,,,64,0,9,,,,,2,,81,100
54908,note_off,,,,,92,0,13,,,,,6,,67,100
54912,note_on,,,,,32,0,9,,,,,2,,72,101
54912,note_on,,,,,128,0,10,,,,,3,,69,101
54912,note_on,,,,,92,0,14,,,,,6,,57,100
54912,note_on,,,,,92,0,12,,,,,5,,45,101
54912,note_on,,,,,32,0,8,,,,,1,,72,101
54912,note_on,,,,,4,0,13,,,,,6,,66,100
54912,note_on,,,,,92,0,16,,,,,7,,57,100
54912,note_on,,,,,92,0,11,,,,,4,,57,101
54976,note_off,,,,,64,0,9,,,,,2,,72,100
54976,note_off,,,,,64,0,8,,,,,1,,72,100
55004,note_off,,,,,92,0,13,,,,,6,,66,100
55008,note_on,,,,,4,0,13,,,,,6,,67,100
55008,note_on,,,,,32,0,9,,,,,2,,81,101
55008,note_on,,,,,32,0,8,,,,,1,,81,101
55012,note_off,,,,,100,0,16,,,,,7,,57,100
55012,note_off,,,,,100,0,11,,,,,4,,57,100
55012,note_off,,,,,100,0,12,,,,,5,,45,100
55012,note_off,,,,,100,0,14,,,,,6,,57,100
55040,note_off,,,,,32,0,13,,,,,6,,60,100
55072,note_off,,,,,64,0,9,,,,,2,,81,100
55072,note_off,,,,,64,0,8,,,,,1,,81,100
55100,note_off,,,,,60,0,13,,,,,6,,67,100
55104,note_on,,,,,92,0,12,,,,,5,,42,101
55104,note_on,,,,,4,0,13,,,,,6,,69,100
55104,note_on,,,,,92,0,16,,,,,7,,54,100
55104,note_on,,,,,32,0,8,,,,,1,,81,101
55104,note_on,,,,,92,0,11,,,,,4,,54,101
55104,note_on,,,,,32,0,9,,,,,2,,81,101
55104,note_on,,,,,92,0,14,,,,,6,,54,100
55168,note_off,,,,,64,0,9,,,,,2,,81,100
55168,note_off,,,,,64,0,8,,,,,1,,81,100
55180,note_off,,,,,0,0,15,,,,,7,,64,100
55180,note_off,,,,,0,0,15,,,,,7,,72,100
55180,note_off,,,,,0,0,15,,,,,7,,69,100
55180,note_off,,,,,1036,0,15,,,,,7,,66,100
55200,note_on,,,,,32,0,9,,,,,2,,81,101
55200,note_on,,,,,32,0,8,,,,,1,,81,101
55200,note_on,,,,,96,0,13,,,,,6,,66,100
55204,note_off,,,,,100,0,14,,,,,6,,54,100
55204,note_off,,,,,100,0,11,,,,,4,,54,100
55204,note_off,,,,,100,0,16,,,,,7,,54,100
55204,note_off,,,,,100,0,12,,,,,5,,42,100
55232,note_off,,,,,32,0,13,,,,,6,,69,100
55264,note_off,,,,,64,0,9,,,,,2,,81,100
55264,note_off,,,,,64,0,8,,,,,1,,81,100
55292,note_off,,,,,60,0,13,,,,,6,,66,100
55296,note_on,,,,,92,0,11,,,,,4,,51,100
55296,note_on,,,,,4,0,13,,,,,6,,59,100
55296,note_on,,,,,32,0,8,,,,,1,,71,100
55296,note_on,,,,,0,0,15,,,,,7,,71,100
55296,note_on,,,,,0,0,15,,,,,7,,69,100
55296,note_on,,,,,0,0,15,,,,,7,,66,100
55296,note_on,,,,,116,0,15,,,,,7,,63,100
55296,note_on,,,,,92,0,12,,,,,5,,39,100
55296,note_on,,,,,92,0,14,,,,,6,,51,100
55296,note_on,,,,,92,0,16,,,,,7,,51,100
55296,note_on,,,,,32,0,9,,,,,2,,71,100
55360,note_off,,,,,64,0,9,,,,,2,,71,100
55360,note_off,,,,,64,0,8,,,,,1,,71,100
55392,note_on,,,,,32,0,8,,,,,1,,78,100
55392,note_on,,,,,96,0,13,,,,,6,,67,100
55392,note_on,,,,,32,0,9,,,,,2,,78,100
55396,note_off,,,,,100,0,12,,,,,5,,39,100
55396,note_off,,,,,100,0,11,,,,,4,,51,100
55396,note_off,,,,,100,0,16,,,,,7,,51,100
55396,note_off,,,,,100,0,14,,,,,6,,51,100
55456,note_off,,,,,64,0,8,,,,,1,,78,100
55456,note_off,,,,,64,0,9,,,,,2,,78,100
55484,note_off,,,,,92,0,13,,,,,6,,67,100
55488,note_on,,,,,32,0,8,,,,,1,,78,101
55488,note_on,,,,,92,0,12,,,,,5,,35,101
55488,note_on,,,,,92,0,11,,,,,4,,47,101
55488,note_on,,,,,4,0,13,,,,,6,,69,100
55488,note_on,,,,,92,0,16,,,,,7,,47,100
55488,note_on,,,,,32,0,9,,,,,2,,78,101
55488,note_on,,,,,92,0,14,,,,,6,,47,100
55552,note_off,,,,,640,0,10,,,,,3,,69,100
55552,note_off,,,,,64,0,9,,,,,2,,78,100
55552,note_off,,,,,64,0,8,,,,,1,,78,100
55552,note_off,,,,,64,0,13,,,,,6,,59,100
55580,note_off,,,,,28,0,13,,,,,6,,69,100
55584,note_on,,,,,4,0,13,,,,,6,,66,100
55584,note_on,,,,,32,0,8,,,,,1,,78,101
55584,note_on,,,,,32,0,9,,,,,2,,78,101
55588,note_off,,,,,100,0,11,,,,,4,,47,100
55588,note_off,,,,,100,0,12,,,,,5,,35,100
55588,note_off,,,,,100,0,16,,,,,7,,47,100
55588,note_off,,,,,100,0,14,,,,,6,,47,100
55648,note_off,,,,,64,0,9,,,,,2,,78,100
55648,note_off,,,,,64,0,8,,,,,1,,78,100
55676,note_off,,,,,92,0,13,,,,,6,,66,100
55680,note_on,,,,,0,0,13,,,,,6,,54,100
55680,note_on,,,,,92,0,16,,,,,7,,47,100
55680,note_on,,,,,32,0,9,,,,,2,,78,102
55680,note_on,,,,,92,0,14,,,,,6,,47,100
55680,note_on,,,,,4,0,13,,,,,6,,63,100
55680,note_on,,,,,92,0,12,,,,,5,,35,102
55680,note_on,,,,,32,0,8,,,,,1,,78,102
55680,note_on,,,,,128,0,10,,,,,3,,66,102
55680,note_on,,,,,92,0,11,,,,,4,,47,102
55744,note_off,,,,,64,0,9,,,,,2,,78,100
55744,note_off,,,,,64,0,8,,,,,1,,78,100
55776,note_on,,,,,32,0,8,,,,,1,,78,102
55776,note_on,,,,,32,0,9,,,,,2,,78,102
55780,note_off,,,,,100,0,12,,,,,5,,35,100
55780,note_off,,,,,100,0,16,,,,,7,,47,100
55780,note_off,,,,,100,0,11,,,,,4,,47,100
55780,note_off,,,,,100,0,14,,,,,6,,47,100
55808,note_off,,,,,128,0,13,,,,,6,,63,100
55840,note_off,,,,,64,0,8,,,,,1,,78,100
55840,note_off,,,,,64,0,9,,,,,2,,78,100
55872,note_on,,,,,32,0,9,,,,,2,,78,103
55872,note_on,,,,,32,0,8,,,,,1,,78,103
55872,note_on,,,,,64,0,13,,,,,6,,75,100
55872,note_on,,,,,92,0,16,,,,,7,,47,100
55872,note_on,,,,,92,0,14,,,,,6,,47,100
55872,note_on,,,,,92,0,11,,,,,4,,47,103
55872,note_on,,,,,92,0,12,,,,,5,,35,103
55936,note_off,,,,,64,0,8,,,,,1,,78,100
55936,note_off,,,,,64,0,9,,,,,2,,78,100
55964,note_off,,,,,92,0,13,,,,,6,,75,100
55968,note_on,,,,,4,0,13,,,,,6,,73,100
55968,note_on,,,,,32,0,8,,,,,1,,78,104
55968,note_on,,,,,32,0,9,,,,,2,,78,104
55972,note_off,,,,,100,0,16,,,,,7,,47,100
55972,note_off,,,,,100,0,12,,,,,5,,35,100
55972,note_off,,,,,100,0,14,,,,,6,,47,100
55972,note_off,,,,,100,0,11,,,,,4,,47,100
56032,note_off,,,,,64,0,8,,,,,1,,78,100
56032,note_off,,,,,64,0,9,,,,,2,,78,100
56060,note_off,,,,,92,0,13,,,,,6,,73,100
56064,note_on,,,,,92,0,16,,,,,7,,51,100
56064,note_on,,,,,4,0,13,,,,,6,,71,100
56064,note_on,,,,,32,0,8,,,,,1,,71,104
56064,note_on,,,,,32,0,9,,,,,2,,71,104
56064,note_on,,,,,92,0,12,,,,,5,,39,104
56064,note_on,,,,,92,0,11,,,,,4,,51,104
56064,note_on,,,,,92,0,14,,,,,6,,51,100
56128,note_off,,,,,64,0,9,,,,,2,,71,100
56128,note_off,,,,,64,0,8,,,,,1,,71,100
56140,note_off,,,,,460,0,10,,,,,3,,66,100
56156,note_off,,,,,92,0,13,,,,,6,,71,100
56160,note_on,,,,,32,0,9,,,,,2,,78,105
56160,note_on,,,,,4,0,13,,,,,6,,73,100
56160,note_on,,,,,32,0,8,,,,,1,,78,105
56164,note_off,,,,,100,0,16,,,,,7,,51,100
56164,note_off,,,,,100,0,12,,,,,5,,39,100
56164,note_off,,,,,100,0,14,,,,,6,,51,100
56164,note_off,,,,,100,0,11,,,,,4,,51,100
56192,note_off,,,,,32,0,13,,,,,6,,54,100
56224,note_off,,,,,64,0,8,,,,,1,,78,100
56224,note_off,,,,,64,0,9,,,,,2,,78,100
56252,note_off,,,,,60,0,13,,,,,6,,73,100
56256,note_on,,,,,32,0,8,,,,,1,,78,105
56256,note_on,,,,,4,0,13,,,,,6,,75,100
56256,note_on,,,,,92,0,12,,,,,5,,35,105
56256,note_on,,,,,116,0,10,,,,,3,,63,105
56256,note_on,,,,,32,0,9,,,,,2,,78,105
56256,note_on,,,,,92,0,16,,,,,7,,47,100
56256,note_on,,,,,92,0,11,,,,,4,,47,105
56256,note_on,,,,,92,0,14,,,,,6,,47,100
56320,note_off,,,,,64,0,9,,,,,2,,78,100
56320,note_off,,,,,64,0,8,,,,,1,,78,100
56332,note_off,,,,,0,0,15,,,,,7,,69,100
56332,note_off,,,,,0,0,15,,,,,7,,71,100
56332,note_off,,,,,1036,0,15,,,,,7,,63,100
56332,note_off,,,,,0,0,15,,,,,7,,66,100
56352,note_on,,,,,96,0,13,,,,,6,,71,100
56352,note_on,,,,,32,0,9,,,,,2,,78,106
56352,note_on,,,,,32,0,8,,,,,1,,78,106
56356,note_off,,,,,100,0,10,,,,,3,,63,100
56356,note_off,,,,,100,0,11,,,,,4,,47,100
56356,note_off,,,,,100,0,16,,,,,7,,47,100
56356,note_off,,,,,100,0,14,,,,,6,,47,100
56356,note_off,,,,,100,0,12,,,,,5,,35,100
56416,note_off,,,,,64,0,9,,,,,2,,78,100
56416,note_off,,,,,64,0,8,,,,,1,,78,100
56444,note_off,,,,,92,0,13,,,,,6,,75,100
56444,note_off,,,,,0,0,13,,,,,6,,71,100
56448,note_on,,,,,32,0,8,,,,,1,,79,100
56448,note_on,,,,,32,0,9,,,,,2,,76,100
56448,note_on,,,,,92,0,16,,,,,7,,52,100
56448,note_on,,,,,92,0,14,,,,,6,,52,100
56448,note_on,,,,,92,0,11,,,,,4,,52,100
56448,note_on,,,,,92,0,10,,,,,3,,59,100
56448,note_on,,,,,0,0,15,,,,,7,,71,100
56448,note_on,,,,,116,0,15,,,,,7,,64,100
56448,note_on,,,,,0,0,15,,,,,7,,67,100
56448,note_on,,,,,92,0,12,,,,,5,,40,100
56448,note_on,,,,,4,0,13,,,,,6,,67,100
56448,note_on,,,,,0,0,13,,,,,6,,76,100
56908,note_off,,,,,460,0,8,,,,,1,,79,100
56908,note_off,,,,,460,0,9,,,,,2,,76,100
56960,note_off,,,,,0,0,13,,,,,6,,76,100
56960,note_off,,,,,512,0,13,,,,,6,,67,100
57024,note_on,,,,,116,0,9,,,,,2,,78,102
57024,note_on,,,,,116,0,8,,,,,1,,81,102
57060,note_off,,,,,612,0,11,,,,,4,,52,100
57060,note_off,,,,,612,0,14,,,,,6,,52,100
57060,note_off,,,,,612,0,10,,,,,3,,59,100
57060,note_off,,,,,612,0,16,,,,,7,,52,100
57060,note_off,,,,,612,0,12,,,,,5,,40,100
57060,note_off,,,,,612,0,15,,,,,7,,64,100
57060,note_off,,,,,0,0,15,,,,,7,,71,100
57060,note_off,,,,,0,0,15,,,,,7,,67,100
57124,note_off,,,,,100,0,9,,,,,2,,78,100
57124,note_off,,,,,100,0,8,,,,,1,,81,100
57216,note_on,,,,,156,0,10,,,,,3,,71,103
57216,note_on,,,,,92,0,8,,,,,1,,83,103
57216,note_on,,,,,0,0,15,,,,,7,,79,100
57216,note_on,,,,,0,0,15,,,,,7,,71,100
57216,note_on,,,,,156,0,15,,,,,7,,76,100
57216,note_on,,,,,92,0,9,,,,,2,,79,103
57216,note_on,,,,,156,0,16,,,,,7,,52,100
57216,note_on,,,,,156,0,14,,,,,6,,52,100
57216,note_on,,,,,256,0,13,,,,,6,,76,100
57216,note_on,,,,,0,0,13,,,,,6,,71,100
57216,note_on,,,,,0,0,13,,,,,6,,79,100
57216,note_on,,,,,156,0,11,,,,,4,,52,103
57216,note_on,,,,,156,0,12,,,,,5,,40,103
57472,note_off,,,,,256,0,12,,,,,5,,40,100
57472,note_off,,,,,256,0,16,,,,,7,,52,100
57472,note_off,,,,,256,0,14,,,,,6,,52,100
57472,note_off,,,,,256,0,15,,,,,7,,76,100
57472,note_off,,,,,0,0,15,,,,,7,,71,100
57472,note_off,,,,,0,0,15,,,,,7,,79,100
57472,note_off,,,,,256,0,13,,,,,6,,76,100
57472,note_off,,,,,0,0,13,,,,,6,,71,100
57472,note_off,,,,,256,0,8,,,,,1,,83,100
57472,note_off,,,,,256,0,9,,,,,2,,79,100
57472,note_off,,,,,0,0,13,,,,,6,,79,100
57472,note_off,,,,,256,0,11,,,,,4,,52,100
57472,note_off,,,,,256,0,10,,,,,3,,71,100
57600,note_on,,,,,128,0,8,,,,,1,,81,103
57600,note_on,,,,,128,0,9,,,,,2,,78,103
57600,note_on,,,,,128,0,10,,,,,3,,72,103
57600,note_on,,,,,128,0,11,,,,,4,,57,103
57600,note_on,,,,,128,0,15,,,,,7,,72,100
57600,note_on,,,,,0,0,15,,,,,7,,76,100
57600,note_on,,,,,128,0,12,,,,,5,,45,103
57600,note_on,,,,,128,0,14,,,,,6,,57,100
57600,note_on,,,,,128,0,13,,,,,6,,72,100
57600,note_on,,,,,128,0,16,,,,,7,,57,100
57600,note_on,,,,,0,0,13,,,,,6,,79,100
57600,note_on,,,,,0,0,13,,,,,6,,76,100
57600,note_on,,,,,0,0,15,,,,,7,,79,100
57700,note_off,,,,,100,0,9,,,,,2,,78,100
57700,note_off,,,,,100,0,8,,,,,1,,81,100
57792,note_on,,,,,92,0,9,,,,,2,,76,99
57792,note_on,,,,,92,0,8,,,,,1,,79,99
57856,note_off,,,,,256,0,15,,,,,7,,72,100
57856,note_off,,,,,256,0,10,,,,,3,,72,100
57856,note_off,,,,,0,0,15,,,,,7,,79,100
57856,note_off,,,,,256,0,11,,,,,4,,57,100
57856,note_off,,,,,0,0,15,,,,,7,,76,100
57856,note_off,,,,,0,0,13,,,,,6,,79,100
57856,note_off,,,,,0,0,13,,,,,6,,76,100
57856,note_off,,,,,256,0,13,,,,,6,,72,100
57856,note_off,,,,,256,0,14,,,,,6,,57,100
57856,note_off,,,,,256,0,16,,,,,7,,57,100
57856,note_off,,,,,256,0,12,,,,,5,,45,100
57892,note_off,,,,,100,0,8,,,,,1,,79,100
57892,note_off,,,,,100,0,9,,,,,2,,76,100
57984,note_on,,,,,128,0,10,,,,,3,,63,100
57984,note_on,,,,,92,0,9,,,,,2,,76,100
57984,note_on,,,,,128,0,12,,,,,5,,47,100
57984,note_on,,,,,128,0,14,,,,,6,,59,100
57984,note_on,,,,,92,0,8,,,,,1,,79,100
57984,note_on,,,,,0,0,15,,,,,7,,75,100
57984,note_on,,,,,0,0,13,,,,,6,,75,100
57984,note_on,,,,,128,0,13,,,,,6,,71,100
57984,note_on,,,,,128,0,11,,,,,4,,59,100
57984,note_on,,,,,128,0,15,,,,,7,,71,100
57984,note_on,,,,,128,0,16,,,,,7,,59,100
57984,note_on,,,,,0,0,13,,,,,6,,78,100
57984,note_on,,,,,0,0,15,,,,,7,,78,100
58076,note_off,,,,,92,0,8,,,,,1,,79,100
58080,note_on,,,,,4,0,8,,,,,1,,78,97
58108,note_off,,,,,124,0,9,,,,,2,,76,100
58112,note_on,,,,,4,0,9,,,,,2,,75,97
58124,note_off,,,,,44,0,8,,,,,1,,78,100
58128,note_on,,,,,4,0,8,,,,,1,,79,97
58172,note_off,,,,,44,0,8,,,,,1,,79,100
58172,note_off,,,,,60,0,9,,,,,2,,75,100
58176,note_on,,,,,4,0,9,,,,,2,,76,97
58176,note_on,,,,,4,0,8,,,,,1,,78,97
58220,note_off,,,,,44,0,8,,,,,1,,78,100
58224,note_on,,,,,4,0,8,,,,,1,,79,96
58236,note_off,,,,,60,0,9,,,,,2,,76,100
58240,note_off,,,,,256,0,16,,,,,7,,59,100
58240,note_off,,,,,0,0,15,,,,,7,,75,100
58240,note_on,,,,,4,0,9,,,,,2,,75,96
58240,note_off,,,,,0,0,15,,,,,7,,78,100
58240,note_off,,,,,256,0,15,,,,,7,,71,100
58240,note_off,,,,,256,0,12,,,,,5,,47,100
58240,note_off,,,,,0,0,13,,,,,6,,75,100
58240,note_off,,,,,256,0,11,,,,,4,,59,100
58240,note_off,,,,,0,0,13,,,,,6,,78,100
58240,note_off,,,,,256,0,13,,,,,6,,71,100
58240,note_off,,,,,256,0,14,,,,,6,,59,100
58268,note_off,,,,,44,0,8,,,,,1,,79,100
58272,note_on,,,,,4,0,8,,,,,1,,78,96
58300,note_off,,,,,60,0,9,,,,,2,,75,99
58304,note_on,,,,,4,0,9,,,,,2,,76,96
58316,note_off,,,,,44,0,8,,,,,1,,78,100
58320,note_on,,,,,4,0,8,,,,,1,,79,96
58364,note_off,,,,,60,0,9,,,,,2,,76,100
58364,note_off,,,,,44,0,8,,,,,1,,79,100
58368,note_on,,,,,128,0,12,,,,,5,,35,95
58368,note_on,,,,,128,0,14,,,,,6,,47,100
58368,note_on,,,,,128,0,13,,,,,6,,66,100
58368,note_on,,,,,0,0,13,,,,,6,,71,100
58368,note_on,,,,,128,0,11,,,,,4,,47,95
58368,note_on,,,,,128,0,15,,,,,7,,66,100
58368,note_on,,,,,0,0,15,,,,,7,,71,100
58368,note_on,,,,,0,0,15,,,,,7,,75,100
58368,note_on,,,,,128,0,16,,,,,7,,47,100
58368,note_on,,,,,4,0,8,,,,,1,,78,95
58368,note_on,,,,,0,0,13,,,,,6,,75,100
58368,note_on,,,,,4,0,9,,,,,2,,75,95
58444,note_off,,,,,460,0,10,,,,,3,,63,100
58468,note_off,,,,,100,0,9,,,,,2,,75,100
58468,note_off,,,,,100,0,8,,,,,1,,78,100
58560,note_on,,,,,92,0,9,,,,,2,,76,94
58560,note_on,,,,,92,0,8,,,,,1,,76,94
58560,note_on,,,,,116,0,10,,,,,3,,71,94
58624,note_off,,,,,256,0,15,,,,,7,,66,100
58624,note_off,,,,,0,0,15,,,,,7,,75,100
58624,note_off,,,,,256,0,11,,,,,4,,47,100
58624,note_off,,,,,256,0,13,,,,,6,,66,100
58624,note_off,,,,,0,0,13,,,,,6,,71,100
58624,note_off,,,,,0,0,15,,,,,7,,71,100
58624,note_off,,,,,256,0,16,,,,,7,,47,100
58624,note_off,,,,,256,0,14,,,,,6,,47,100
58624,note_off,,,,,256,0,12,,,,,5,,35,100
58624,note_off,,,,,0,0,13,,,,,6,,75,100
58660,note_off,,,,,100,0,9,,,,,2,,76,100
58660,note_off,,,,,100,0,10,,,,,3,,71,100
58660,note_off,,,,,100,0,8,,,,,1,,76,100
58748,program_change,,,,,124,0,11,,,,,4,42,,
58752,note_on,,,,,0,0,13,,,,,6,,71,100
58752,note_on,,,,,0,0,13,,,,,6,,76,100
58752,note_on,,,,,4,0,11,,,,,4,,52,85
58752,note_on,,,,,128,0,16,,,,,7,,52,100
58752,note_on,,,,,0,0,15,,,,,7,,76,100
58752,note_on,,,,,0,0,15,,,,,7,,71,100
58752,note_on,,,,,128,0,15,,,,,7,,67,100
58752,note_on,,,,,14776,0,7,,,,,0,,76,93
58752,note_on,,,,,92,0,10,,,,,3,,67,93
58752,note_on,,,,,128,0,12,,,,,5,,40,93
58752,note_on,,,,,128,0,13,,,,,6,,67,100
58752,note_on,,,,,128,0,14,,,,,6,,52,100
58752,note_on,,,,,92,0,9,,,,,2,,76,93
58752,note_on,,,,,92,0,8,,,,,1,,76,93
58816,note_off,,,,,64,0,7,,,,,0,,76,100
58848,note_on,,,,,32,0,7,,,,,0,,76,100
58912,note_off,,,,,64,0,7,,,,,0,,76,100
58944,note_on,,,,,32,0,7,,,,,0,,71,100
59008,note_off,,,,,256,0,9,,,,,2,,76,100
59008,note_off,,,,,256,0,10,,,,,3,,67,100
59008,note_off,,,,,256,0,8,,,,,1,,76,100
59008,note_off,,,,,256,0,15,,,,,7,,67,100
59008,note_off,,,,,256,0,12,,,,,5,,40,100
59008,note_off,,,,,0,0,15,,,,,7,,71,100
59008,note_off,,,,,0,0,15,,,,,7,,76,100
59008,note_off,,,,,256,0,16,,,,,7,,52,100
59008,note_off,,,,,64,0,7,,,,,0,,71,100
59040,note_on,,,,,32,0,7,,,,,0,,76,100
59104,note_off,,,,,64,0,7,,,,,0,,76,100
59136,note_on,,,,,32,0,7,,,,,0,,83,100
59200,note_off,,,,,64,0,7,,,,,0,,83,100
59232,note_on,,,,,32,0,7,,,,,0,,76,100
59264,note_off,,,,,512,0,13,,,,,6,,67,100
59264,note_off,,,,,0,0,13,,,,,6,,71,100
59264,note_off,,,,,0,0,13,,,,,6,,76,100
59296,note_off,,,,,64,0,7,,,,,0,,76,100
59328,note_on,,,,,32,0,7,,,,,0,,71,100
59364,note_off,,,,,612,0,14,,,,,6,,52,100
59364,note_off,,,,,612,0,11,,,,,4,,52,100
59392,note_off,,,,,64,0,7,,,,,0,,71,100
59424,note_on,,,,,32,0,7,,,,,0,,76,100
59488,note_off,,,,,64,0,7,,,,,0,,76,100
59520,note_on,,,,,32,0,7,,,,,0,,83,100
59520,note_on,,,,,256,0,13,,,,,6,,67,100
59520,note_on,,,,,156,0,11,,,,,4,,52,85
59520,note_on,,,,,0,0,13,,,,,6,,76,100
59520,note_on,,,,,0,0,13,,,,,6,,71,100
59520,note_on,,,,,156,0,14,,,,,6,,52,100
59584,note_off,,,,,64,0,7,,,,,0,,83,100
59616,note_on,,,,,32,0,7,,,,,0,,76,100
59680,note_off,,,,,64,0,7,,,,,0,,76,100
59712,note_on,,,,,32,0,7,,,,,0,,71,100
59776,note_off,,,,,64,0,7,,,,,0,,71,100
59776,note_off,,,,,256,0,11,,,,,4,,52,100
59776,note_off,,,,,0,0,13,,,,,6,,71,100
59776,note_off,,,,,256,0,14,,,,,6,,52,100
59776,note_off,,,,,0,0,13,,,,,6,,76,100
59776,note_off,,,,,256,0,13,,,,,6,,67,100
59808,note_on,,,,,32,0,7,,,,,0,,76,100
59872,note_off,,,,,64,0,7,,,,,0,,76,100
59904,note_on,,,,,32,0,7,,,,,0,,83,100
59904,note_on,,,,,0,0,13,,,,,6,,75,100
59904,note_on,,,,,128,0,14,,,,,6,,51,100
59904,note_on,,,,,0,0,13,,,,,6,,71,100
59904,note_on,,,,,128,0,13,,,,,6,,66,100
59904,note_on,,,,,128,0,11,,,,,4,,51,85
59968,note_off,,,,,64,0,7,,,,,0,,83,100
60000,note_on,,,,,32,0,7,,,,,0,,78,100
60064,note_off,,,,,64,0,7,,,,,0,,78,100
60096,note_on,,,,,32,0,7,,,,,0,,71,100
60160,note_off,,,,,64,0,7,,,,,0,,71,100
60192,note_on,,,,,32,0,7,,,,,0,,78,99
60256,note_off,,,,,64,0,7,,,,,0,,78,100
60288,note_on,,,,,32,0,7,,,,,0,,83,99
60352,note_off,,,,,64,0,7,,,,,0,,83,100
60384,note_on,,,,,32,0,7,,,,,0,,78,98
60416,note_off,,,,,0,0,13,,,,,6,,75,100
60416,note_off,,,,,512,0,13,,,,,6,,66,100
60416,note_off,,,,,0,0,13,,,,,6,,71,100
60448,note_off,,,,,64,0,7,,,,,0,,78,100
60480,note_on,,,,,32,0,7,,,,,0,,71,98
60516,note_off,,,,,612,0,11,,,,,4,,51,100
60516,note_off,,,,,612,0,14,,,,,6,,51,100
60544,note_off,,,,,64,0,7,,,,,0,,71,100
60576,note_on,,,,,32,0,7,,,,,0,,78,98
60640,note_off,,,,,64,0,7,,,,,0,,78,100
60672,note_on,,,,,256,0,13,,,,,6,,66,100
60672,note_on,,,,,0,0,13,,,,,6,,71,100
60672,note_on,,,,,0,0,13,,,,,6,,75,100
60672,note_on,,,,,32,0,7,,,,,0,,83,97
60672,note_on,,,,,156,0,14,,,,,6,,51,100
60672,note_on,,,,,156,0,11,,,,,4,,51,85
60736,note_off,,,,,64,0,7,,,,,0,,83,100
60768,note_on,,,,,32,0,7,,,,,0,,78,97
60832,note_off,,,,,64,0,7,,,,,0,,78,100
60864,note_on,,,,,32,0,7,,,,,0,,71,96
60928,note_off,,,,,256,0,11,,,,,4,,51,100
60928,note_off,,,,,256,0,14,,,,,6,,51,100
60928,note_off,,,,,256,0,13,,,,,6,,66,100
60928,note_off,,,,,64,0,7,,,,,0,,71,100
60928,note_off,,,,,0,0,13,,,,,6,,71,100
60928,note_off,,,,,0,0,13,,,,,6,,75,100
60960,note_on,,,,,32,0,7,,,,,0,,78,96
61024,note_off,,,,,64,0,7,,,,,0,,78,100
61056,note_on,,,,,0,0,13,,,,,6,,71,100
61056,note_on,,,,,128,0,13,,,,,6,,67,100
61056,note_on,,,,,32,0,7,,,,,0,,83,96
61056,note_on,,,,,128,0,11,,,,,4,,52,85
61056,note_on,,,,,0,0,13,,,,,6,,76,100
61056,note_on,,,,,128,0,14,,,,,6,,52,100
61120,note_off,,,,,64,0,7,,,,,0,,83,100
61152,note_on,,,,,32,0,7,,,,,0,,79,95
61216,note_off,,,,,64,0,7,,,,,0,,79,100
61248,note_on,,,,,32,0,7,,,,,0,,71,95
61312,note_off,,,,,64,0,7,,,,,0,,71,100
61344,note_on,,,,,32,0,7,,,,,0,,79,94
61408,note_off,,,,,64,0,7,,,,,0,,79,100
61440,note_on,,,,,32,0,7,,,,,0,,83,94
61504,note_off,,,,,64,0,7,,,,,0,,83,100
61536,note_on,,,,,32,0,7,,,,,0,,79,93
61568,note_off,,,,,0,0,13,,,,,6,,76,100
61568,note_off,,,,,512,0,13,,,,,6,,67,100
61568,note_off,,,,,0,0,13,,,,,6,,71,100
61600,note_off,,,,,64,0,7,,,,,0,,79,100
61632,note_on,,,,,32,0,7,,,,,0,,71,93
61668,note_off,,,,,612,0,14,,,,,6,,52,100
61668,note_off,,,,,612,0,11,,,,,4,,52,100
61696,note_off,,,,,64,0,7,,,,,0,,71,100
61728,note_on,,,,,32,0,7,,,,,0,,79,93
61792,note_off,,,,,64,0,7,,,,,0,,79,100
61824,note_on,,,,,0,0,13,,,,,6,,71,100
61824,note_on,,,,,156,0,11,,,,,4,,52,85
61824,note_on,,,,,156,0,14,,,,,6,,52,100
61824,note_on,,,,,32,0,7,,,,,0,,83,92
61824,note_on,,,,,256,0,13,,,,,6,,67,100
61824,note_on,,,,,0,0,13,,,,,6,,76,100
61888,note_off,,,,,64,0,7,,,,,0,,83,100
61920,note_on,,,,,32,0,7,,,,,0,,79,92
61984,note_off,,,,,64,0,7,,,,,0,,79,100
62016,note_on,,,,,32,0,7,,,,,0,,71,91
62080,note_off,,,,,64,0,7,,,,,0,,71,100
62080,note_off,,,,,0,0,13,,,,,6,,71,100
62080,note_off,,,,,0,0,13,,,,,6,,76,100
62080,note_off,,,,,256,0,13,,,,,6,,67,100
62080,note_off,,,,,256,0,14,,,,,6,,52,100
62080,note_off,,,,,256,0,11,,,,,4,,52,100
62112,note_on,,,,,32,0,7,,,,,0,,79,91
62176,note_off,,,,,64,0,7,,,,,0,,79,100
62208,note_on,,,,,128,0,11,,,,,4,,51,85
62208,note_on,,,,,128,0,14,,,,,6,,51,100
62208,note_on,,,,,0,0,13,,,,,6,,75,100
62208,note_on,,,,,0,0,13,,,,,6,,69,100
62208,note_on,,,,,32,0,7,,,,,0,,83,90
62208,note_on,,,,,128,0,13,,,,,6,,71,100
62272,note_off,,,,,64,0,7,,,,,0,,83,100
62304,note_on,,,,,32,0,7,,,,,0,,81,90
62368,note_off,,,,,64,0,7,,,,,0,,81,100
62400,note_on,,,,,32,0,7,,,,,0,,71,91
62464,note_off,,,,,64,0,7,,,,,0,,71,100
62496,note_on,,,,,32,0,7,,,,,0,,81,91
62560,note_off,,,,,64,0,7,,,,,0,,81,100
62592,note_on,,,,,32,0,7,,,,,0,,83,92
62656,note_off,,,,,64,0,7,,,,,0,,83,100
62688,note_on,,,,,32,0,7,,,,,0,,81,92
62720,note_off,,,,,512,0,13,,,,,6,,71,100
62720,note_off,,,,,0,0,13,,,,,6,,69,100
62720,note_off,,,,,0,0,13,,,,,6,,75,100
62752,note_off,,,,,64,0,7,,,,,0,,81,100
62784,note_on,,,,,32,0,7,,,,,0,,71,93
62820,note_off,,,,,612,0,14,,,,,6,,51,100
62820,note_off,,,,,612,0,11,,,,,4,,51,100
62848,note_off,,,,,64,0,7,,,,,0,,71,100
62880,note_on,,,,,32,0,7,,,,,0,,81,94
62944,note_off,,,,,64,0,7,,,,,0,,81,100
62976,note_on,,,,,156,0,14,,,,,6,,47,100
62976,note_on,,,,,156,0,11,,,,,4,,47,85
62976,note_on,,,,,0,0,13,,,,,6,,69,100
62976,note_on,,,,,256,0,13,,,,,6,,75,100
62976,note_on,,,,,32,0,7,,,,,0,,83,94
62976,note_on,,,,,0,0,13,,,,,6,,66,100
63040,note_off,,,,,64,0,7,,,,,0,,83,100
63072,note_on,,,,,32,0,7,,,,,0,,81,95
63136,note_off,,,,,64,0,7,,,,,0,,81,100
63168,note_on,,,,,32,0,7,,,,,0,,71,95
63232,note_off,,,,,256,0,11,,,,,4,,47,100
63232,note_off,,,,,256,0,14,,,,,6,,47,100
63232,note_off,,,,,64,0,7,,,,,0,,71,100
63232,note_off,,,,,0,0,13,,,,,6,,69,100
63232,note_off,,,,,256,0,13,,,,,6,,75,100
63232,note_off,,,,,0,0,13,,,,,6,,66,100
63264,note_on,,,,,32,0,7,,,,,0,,81,96
63328,note_off,,,,,64,0,7,,,,,0,,81,100
63360,note_on,,,,,32,0,7,,,,,0,,83,96
63360,note_on,,,,,128,0,14,,,,,6,,52,100
63360,note_on,,,,,128,0,11,,,,,4,,52,85
63360,note_on,,,,,0,0,13,,,,,6,,71,100
63360,note_on,,,,,128,0,13,,,,,6,,67,100
63360,note_on,,,,,0,0,13,,,,,6,,76,100
63424,note_off,,,,,64,0,7,,,,,0,,83,100
63456,note_on,,,,,32,0,7,,,,,0,,79,97
63520,note_off,,,,,64,0,7,,,,,0,,79,100
63552,note_on,,,,,32,0,7,,,,,0,,71,98
63616,note_off,,,,,64,0,7,,,,,0,,71,100
63648,note_on,,,,,32,0,7,,,,,0,,79,98
63712,note_off,,,,,64,0,7,,,,,0,,79,100
63744,note_on,,,,,32,0,7,,,,,0,,83,99
63808,note_off,,,,,64,0,7,,,,,0,,83,100
63840,note_on,,,,,32,0,7,,,,,0,,79,99
63872,note_off,,,,,512,0,13,,,,,6,,67,100
63872,note_off,,,,,0,0,13,,,,,6,,71,100
63872,note_off,,,,,0,0,13,,,,,6,,76,100
63904,note_off,,,,,64,0,7,,,,,0,,79,100
63936,note_on,,,,,32,0,7,,,,,0,,71,100
63972,note_off,,,,,612,0,14,,,,,6,,52,100
63972,note_off,,,,,612,0,11,,,,,4,,52,100
64000,note_off,,,,,64,0,7,,,,,0,,71,100
64032,note_on,,,,,32,0,7,,,,,0,,79,101
64096,note_off,,,,,64,0,7,,,,,0,,79,100
64128,note_on,,,,,32,0,7,,,,,0,,83,101
64128,note_on,,,,,0,0,13,,,,,6,,76,100
64128,note_on,,,,,156,0,11,,,,,4,,52,85
64128,note_on,,,,,256,0,13,,,,,6,,67,100
64128,note_on,,,,,0,0,13,,,,,6,,71,100
64128,note_on,,,,,156,0,14,,,,,6,,52,100
64192,note_off,,,,,64,0,7,,,,,0,,83,100
64224,note_on,,,,,32,0,7,,,,,0,,79,102
64288,note_off,,,,,64,0,7,,,,,0,,79,100
64320,note_on,,,,,32,0,7,,,,,0,,71,102
64384,note_off,,,,,256,0,13,,,,,6,,67,100
64384,note_off,,,,,0,0,13,,,,,6,,71,100
64384,note_off,,,,,0,0,13,,,,,6,,76,100
64384,note_off,,,,,256,0,14,,,,,6,,52,100
64384,note_off,,,,,64,0,7,,,,,0,,71,100
64384,note_off,,,,,256,0,11,,,,,4,,52,100
64416,note_on,,,,,32,0,7,,,,,0,,79,103
64480,note_off,,,,,64,0,7,,,,,0,,79,100
64512,note_on,,,,,128,0,13,,,,,6,,66,100
64512,note_on,,,,,128,0,14,,,,,6,,59,100
64512,note_on,,,,,128,0,11,,,,,4,,59,85
64512,note_on,,,,,32,0,7,,,,,0,,78,103
64512,note_on,,,,,0,0,13,,,,,6,,71,100
64512,note_on,,,,,0,0,13,,,,,6,,75,100
64612,note_off,,,,,100,0,14,,,,,6,,59,100
64612,note_off,,,,,100,0,11,,,,,4,,59,100
64704,note_on,,,,,92,0,14,,,,,6,,47,100
64704,note_on,,,,,92,0,11,,,,,4,,47,85
64712,note_off,,,,,200,0,7,,,,,0,,78,100
64768,note_off,,,,,0,0,13,,,,,6,,71,100
64768,note_off,,,,,0,0,13,,,,,6,,75,100
64768,note_off,,,,,256,0,13,,,,,6,,66,100
64804,note_off,,,,,100,0,11,,,,,4,,47,100
64804,note_off,,,,,100,0,14,,,,,6,,47,100
64896,note_on,,,,,92,0,14,,,,,6,,47,100
64896,note_on,,,,,92,0,11,,,,,4,,47,85
64896,note_on,,,,,184,0,7,,,,,0,,71,100
64996,note_off,,,,,100,0,14,,,,,6,,47,100
64996,note_off,,,,,100,0,11,,,,,4,,47,100
65088,note_on,,,,,92,0,14,,,,,6,,47,100
65088,note_on,,,,,92,0,11,,,,,4,,47,85
65088,note_on,,,,,320,0,13,,,,,6,,63,100
65096,note_off,,,,,200,0,7,,,,,0,,71,100
65188,note_off,,,,,100,0,13,,,,,6,,63,100
65188,note_off,,,,,100,0,11,,,,,4,,47,100
65188,note_off,,,,,100,0,14,,,,,6,,47,100
65280,note_on,,,,,92,0,13,,,,,6,,64,100
65280,note_on,,,,,92,0,14,,,,,6,,49,100
65280,note_on,,,,,92,0,11,,,,,4,,49,85
65380,note_off,,,,,100,0,11,,,,,4,,49,100
65380,note_off,,,,,100,0,13,,,,,6,,64,100
65380,note_off,,,,,100,0,14,,,,,6,,49,100
65472,note_on,,,,,92,0,13,,,,,6,,66,100
65472,note_on,,,,,92,0,11,,,,,4,,51,85
65472,note_on,,,,,92,0,14,,,,,6,,51,100
65572,note_off,,,,,100,0,13,,,,,6,,66,100
65572,note_off,,,,,100,0,11,,,,,4,,51,100
65572,note_off,,,,,100,0,14,,,,,6,,51,100
65664,note_on,,,,,0,0,13,,,,,6,,68,100
65664,note_on,,,,,92,0,13,,,,,6,,59,100
65664,note_on,,,,,92,0,11,,,,,4,,52,85
65664,note_on,,,,,92,0,14,,,,,6,,52,100
65760,note_on,,,,,664,0,7,,,,,0,,83,102
65824,note_off,,,,,64,0,7,,,,,0,,83,100
65856,note_on,,,,,32,0,7,,,,,0,,81,102
65920,note_off,,,,,256,0,11,,,,,4,,52,100
65920,note_off,,,,,64,0,7,,,,,0,,81,100
65920,note_off,,,,,256,0,13,,,,,6,,59,100
65920,note_off,,,,,0,0,13,,,,,6,,68,100
65920,note_off,,,,,256,0,14,,,,,6,,52,100
65952,note_on,,,,,32,0,7,,,,,0,,80,101
66016,note_off,,,,,64,0,7,,,,,0,,80,100
66048,note_on,,,,,32,0,7,,,,,0,,76,100
66112,note_off,,,,,64,0,7,,,,,0,,76,100
66144,note_on,,,,,32,0,7,,,,,0,,80,100
66208,note_off,,,,,64,0,7,,,,,0,,80,100
66240,note_on,,,,,32,0,7,,,,,0,,76,99
66240,note_on,,,,,320,0,14,,,,,6,,52,100
66240,note_on,,,,,0,0,13,,,,,6,,68,100
66240,note_on,,,,,320,0,11,,,,,4,,52,85
66240,note_on,,,,,320,0,13,,,,,6,,64,100
66304,note_off,,,,,64,0,7,,,,,0,,76,100
66336,note_on,,,,,32,0,7,,,,,0,,80,98
66340,note_off,,,,,0,0,13,,,,,6,,68,100
66340,note_off,,,,,100,0,11,,,,,4,,52,100
66340,note_off,,,,,100,0,14,,,,,6,,52,100
66340,note_off,,,,,100,0,13,,,,,6,,64,100
66400,note_off,,,,,64,0,7,,,,,0,,80,100
66432,note_on,,,,,92,0,11,,,,,4,,56,85
66432,note_on,,,,,32,0,7,,,,,0,,74,97
66432,note_on,,,,,92,0,14,,,,,6,,56,100
66432,note_on,,,,,92,0,13,,,,,6,,64,100
66432,note_on,,,,,0,0,13,,,,,6,,68,100
66496,note_off,,,,,64,0,7,,,,,0,,74,100
66528,note_on,,,,,32,0,7,,,,,0,,80,97
66532,note_off,,,,,100,0,13,,,,,6,,64,100
66532,note_off,,,,,0,0,13,,,,,6,,68,100
66532,note_off,,,,,100,0,14,,,,,6,,56,100
66532,note_off,,,,,100,0,11,,,,,4,,56,100
66592,note_off,,,,,64,0,7,,,,,0,,80,100
66624,note_on,,,,,32,0,7,,,,,0,,74,96
66624,note_on,,,,,92,0,13,,,,,6,,62,100
66624,note_on,,,,,0,0,13,,,,,6,,68,100
66624,note_on,,,,,92,0,14,,,,,6,,52,100
66624,note_on,,,,,92,0,11,,,,,4,,52,85
66688,note_off,,,,,64,0,7,,,,,0,,74,100
66720,note_on,,,,,32,0,7,,,,,0,,80,95
66724,note_off,,,,,0,0,13,,,,,6,,68,100
66724,note_off,,,,,100,0,13,,,,,6,,62,100
66724,note_off,,,,,100,0,11,,,,,4,,52,100
66724,note_off,,,,,100,0,14,,,,,6,,52,100
66784,note_off,,,,,64,0,7,,,,,0,,80,100
66816,note_on,,,,,0,0,13,,,,,6,,69,100
66816,note_on,,,,,0,0,13,,,,,6,,64,100
66816,note_on,,,,,92,0,13,,,,,6,,57,100
66816,note_on,,,,,92,0,14,,,,,6,,49,100
66816,note_on,,,,,32,0,7,,,,,0,,81,98
66816,note_on,,,,,92,0,11,,,,,4,,49,85
66880,note_off,,,,,64,0,7,,,,,0,,81,100
66912,note_on,,,,,32,0,7,,,,,0,,76,100
66976,note_off,,,,,64,0,7,,,,,0,,76,100
67008,note_on,,,,,32,0,7,,,,,0,,74,100
67072,note_off,,,,,64,0,7,,,,,0,,74,100
67072,note_off,,,,,256,0,13,,,,,6,,57,100
67072,note_off,,,,,256,0,11,,,,,4,,49,100
67072,note_off,,,,,256,0,14,,,,,6,,49,100
67072,note_off,,,,,0,0,13,,,,,6,,69,100
67072,note_off,,,,,0,0,13,,,,,6,,64,100
67104,note_on,,,,,32,0,7,,,,,0,,73,99
67168,note_off,,,,,64,0,7,,,,,0,,73,100
67200,note_on,,,,,32,0,7,,,,,0,,69,98
67264,note_off,,,,,64,0,7,,,,,0,,69,100
67296,note_on,,,,,32,0,7,,,,,0,,73,98
67360,note_off,,,,,64,0,7,,,,,0,,73,100
67392,note_on,,,,,320,0,11,,,,,4,,57,85
67392,note_on,,,,,320,0,14,,,,,6,,57,100
67392,note_on,,,,,0,0,13,,,,,6,,69,100
67392,note_on,,,,,320,0,13,,,,,6,,73,100
67392,note_on,,,,,32,0,7,,,,,0,,69,97
67456,note_off,,,,,64,0,7,,,,,0,,69,100
67488,note_on,,,,,32,0,7,,,,,0,,73,96
67492,note_off,,,,,100,0,13,,,,,6,,73,100
67492,note_off,,,,,0,0,13,,,,,6,,69,100
67492,note_off,,,,,100,0,11,,,,,4,,57,100
67492,note_off,,,,,100,0,14,,,,,6,,57,100
67552,note_off,,,,,64,0,7,,,,,0,,73,100
67584,note_on,,,,,0,0,13,,,,,6,,69,100
67584,note_on,,,,,92,0,13,,,,,6,,73,100
67584,note_on,,,,,92,0,14,,,,,6,,61,100
67584,note_on,,,,,32,0,7,,,,,0,,67,95
67584,note_on,,,,,92,0,11,,,,,4,,61,85
67648,note_off,,,,,64,0,7,,,,,0,,67,100
67680,note_on,,,,,32,0,7,,,,,0,,73,95
67684,note_off,,,,,100,0,13,,,,,6,,73,100
67684,note_off,,,,,100,0,14,,,,,6,,61,100
67684,note_off,,,,,100,0,11,,,,,4,,61,100
67684,note_off,,,,,0,0,13,,,,,6,,69,100
67744,note_off,,,,,64,0,7,,,,,0,,73,100
67776,note_on,,,,,92,0,14,,,,,6,,57,100
67776,note_on,,,,,32,0,7,,,,,0,,67,94
67776,note_on,,,,,92,0,11,,,,,4,,57,85
67776,note_on,,,,,92,0,13,,,,,6,,73,100
67776,note_on,,,,,0,0,13,,,,,6,,67,100
67840,note_off,,,,,64,0,7,,,,,0,,67,100
67872,note_on,,,,,32,0,7,,,,,0,,73,93
67876,note_off,,,,,0,0,13,,,,,6,,67,100
67876,note_off,,,,,100,0,11,,,,,4,,57,100
67876,note_off,,,,,100,0,13,,,,,6,,73,100
67876,note_off,,,,,100,0,14,,,,,6,,57,100
67936,note_off,,,,,64,0,7,,,,,0,,73,100
67968,note_on,,,,,92,0,11,,,,,4,,54,85
67968,note_on,,,,,92,0,13,,,,,6,,62,100
67968,note_on,,,,,0,0,13,,,,,6,,69,100
67968,note_on,,,,,92,0,14,,,,,6,,54,100
67968,note_on,,,,,32,0,7,,,,,0,,74,96
67968,note_on,,,,,0,0,13,,,,,6,,74,100
68032,note_off,,,,,64,0,7,,,,,0,,74,100
68064,note_on,,,,,32,0,7,,,,,0,,81,98
68128,note_off,,,,,64,0,7,,,,,0,,81,100
68160,note_on,,,,,32,0,7,,,,,0,,79,98
68224,note_off,,,,,256,0,13,,,,,6,,62,100
68224,note_off,,,,,64,0,7,,,,,0,,79,100
68224,note_off,,,,,0,0,13,,,,,6,,74,100
68224,note_off,,,,,0,0,13,,,,,6,,69,100
68224,note_off,,,,,256,0,11,,,,,4,,54,100
68224,note_off,,,,,256,0,14,,,,,6,,54,100
68256,note_on,,,,,32,0,7,,,,,0,,78,97
68320,note_off,,,,,64,0,7,,,,,0,,78,100
68352,note_on,,,,,32,0,7,,,,,0,,74,96
68416,note_off,,,,,64,0,7,,,,,0,,74,100
68448,note_on,,,,,32,0,7,,,,,0,,78,96
68512,note_off,,,,,64,0,7,,,,,0,,78,100
68544,note_on,,,,,320,0,13,,,,,6,,66,100
68544,note_on,,,,,32,0,7,,,,,0,,74,95
68544,note_on,,,,,0,0,13,,,,,6,,74,100
68544,note_on,,,,,320,0,11,,,,,4,,50,85
68544,note_on,,,,,320,0,14,,,,,6,,50,100
68608,note_off,,,,,64,0,7,,,,,0,,74,100
68640,note_on,,,,,32,0,7,,,,,0,,78,94
68644,note_off,,,,,100,0,11,,,,,4,,50,100
68644,note_off,,,,,100,0,14,,,,,6,,50,100
68644,note_off,,,,,100,0,13,,,,,6,,66,100
68644,note_off,,,,,0,0,13,,,,,6,,74,100
68704,note_off,,,,,64,0,7,,,,,0,,78,100
68736,note_on,,,,,0,0,13,,,,,6,,74,100
68736,note_on,,,,,32,0,7,,,,,0,,72,93
68736,note_on,,,,,92,0,14,,,,,6,,54,100
68736,note_on,,,,,92,0,11,,,,,4,,54,85
68736,note_on,,,,,92,0,13,,,,,6,,66,100
68800,note_off,,,,,64,0,7,,,,,0,,72,100
68832,note_on,,,,,32,0,7,,,,,0,,78,93
68836,note_off,,,,,100,0,14,,,,,6,,54,100
68836,note_off,,,,,100,0,11,,,,,4,,54,100
68836,note_off,,,,,100,0,13,,,,,6,,66,100
68836,note_off,,,,,0,0,13,,,,,6,,74,100
68896,note_off,,,,,64,0,7,,,,,0,,78,100
68928,note_on,,,,,92,0,11,,,,,4,,50,85
68928,note_on,,,,,92,0,14,,,,,6,,50,100
68928,note_on,,,,,32,0,7,,,,,0,,72,92
68928,note_on,,,,,0,0,13,,,,,6,,72,100
68928,note_on,,,,,92,0,13,,,,,6,,66,100
68992,note_off,,,,,64,0,7,,,,,0,,72,100
69024,note_on,,,,,32,0,7,,,,,0,,78,91
69028,note_off,,,,,100,0,13,,,,,6,,66,100
69028,note_off,,,,,100,0,11,,,,,4,,50,100
69028,note_off,,,,,0,0,13,,,,,6,,72,100
69028,note_off,,,,,100,0,14,,,,,6,,50,100
69088,note_off,,,,,64,0,7,,,,,0,,78,100
69120,note_on,,,,,92,0,11,,,,,4,,47,85
69120,note_on,,,,,92,0,13,,,,,6,,64,100
69120,note_on,,,,,92,0,14,,,,,6,,47,100
69120,note_on,,,,,0,0,13,,,,,6,,67,100
69120,note_on,,,,,0,0,13,,,,,6,,71,100
69120,note_on,,,,,32,0,7,,,,,0,,79,94
69184,note_off,,,,,64,0,7,,,,,0,,79,100
69216,note_on,,,,,32,0,7,,,,,0,,74,96
69280,note_off,,,,,64,0,7,,,,,0,,74,100
69312,note_on,,,,,32,0,7,,,,,0,,72,96
69376,note_off,,,,,0,0,13,,,,,6,,67,100
69376,note_off,,,,,64,0,7,,,,,0,,72,100
69376,note_off,,,,,256,0,13,,,,,6,,64,100
69376,note_off,,,,,256,0,14,,,,,6,,47,100
69376,note_off,,,,,256,0,11,,,,,4,,47,100
69376,note_off,,,,,0,0,13,,,,,6,,71,100
69408,note_on,,,,,32,0,7,,,,,0,,71,95
69472,note_off,,,,,64,0,7,,,,,0,,71,100
69504,note_on,,,,,32,0,7,,,,,0,,67,94
69568,note_off,,,,,64,0,7,,,,,0,,67,100
69600,note_on,,,,,32,0,7,,,,,0,,71,94
69664,note_off,,,,,64,0,7,,,,,0,,71,100
69696,note_on,,,,,320,0,14,,,,,6,,55,100
69696,note_on,,,,,320,0,13,,,,,6,,71,100
69696,note_on,,,,,0,0,13,,,,,6,,67,100
69696,note_on,,,,,32,0,7,,,,,0,,67,93
69696,note_on,,,,,320,0,11,,,,,4,,55,85
69760,note_off,,,,,64,0,7,,,,,0,,67,100
69792,note_on,,,,,32,0,7,,,,,0,,71,92
69796,note_off,,,,,100,0,13,,,,,6,,71,100
69796,note_off,,,,,100,0,11,,,,,4,,55,100
69796,note_off,,,,,0,0,13,,,,,6,,67,100
69796,note_off,,,,,100,0,14,,,,,6,,55,100
69856,note_off,,,,,64,0,7,,,,,0,,71,100
69888,note_on,,,,,32,0,7,,,,,0,,65,91
69888,note_on,,,,,92,0,14,,,,,6,,59,100
69888,note_on,,,,,92,0,11,,,,,4,,59,85
69888,note_on,,,,,0,0,13,,,,,6,,67,100
69888,note_on,,,,,92,0,13,,,,,6,,71,100
69952,note_off,,,,,64,0,7,,,,,0,,65,100
69984,note_on,,,,,32,0,7,,,,,0,,71,91
69988,note_off,,,,,100,0,11,,,,,4,,59,100
69988,note_off,,,,,100,0,14,,,,,6,,59,100
69988,note_off,,,,,100,0,13,,,,,6,,71,100
69988,note_off,,,,,0,0,13,,,,,6,,67,100
70048,note_off,,,,,64,0,7,,,,,0,,71,100
70080,note_on,,,,,32,0,7,,,,,0,,65,90
70080,note_on,,,,,92,0,14,,,,,6,,55,100
70080,note_on,,,,,92,0,13,,,,,6,,71,100
70080,note_on,,,,,0,0,13,,,,,6,,65,100
70080,note_on,,,,,92,0,11,,,,,4,,55,85
70144,note_off,,,,,64,0,7,,,,,0,,65,100
70176,note_on,,,,,32,0,7,,,,,0,,71,89
70180,note_off,,,,,0,0,13,,,,,6,,65,100
70180,note_off,,,,,100,0,11,,,,,4,,55,100
70180,note_off,,,,,100,0,13,,,,,6,,71,100
70180,note_off,,,,,100,0,14,,,,,6,,55,100
70240,note_off,,,,,64,0,7,,,,,0,,71,100
70272,note_on,,,,,0,0,13,,,,,6,,67,100
70272,note_on,,,,,0,0,13,,,,,6,,72,100
70272,note_on,,,,,92,0,14,,,,,6,,52,100
70272,note_on,,,,,92,0,11,,,,,4,,52,85
70272,note_on,,,,,32,0,7,,,,,0,,72,92
70272,note_on,,,,,92,0,13,,,,,6,,60,100
70336,note_off,,,,,64,0,7,,,,,0,,72,100
70368,note_on,,,,,32,0,7,,,,,0,,79,85
70432,note_off,,,,,64,0,7,,,,,0,,79,100
70464,note_on,,,,,32,0,7,,,,,0,,77,85
70528,note_off,,,,,0,0,13,,,,,6,,67,100
70528,note_off,,,,,256,0,11,,,,,4,,52,100
70528,note_off,,,,,256,0,14,,,,,6,,52,100
70528,note_off,,,,,64,0,7,,,,,0,,77,100
70528,note_off,,,,,0,0,13,,,,,6,,72,100
70528,note_off,,,,,256,0,13,,,,,6,,60,100
70560,note_on,,,,,32,0,7,,,,,0,,76,86
70624,note_off,,,,,64,0,7,,,,,0,,76,100
70656,note_on,,,,,32,0,7,,,,,0,,72,86
70720,note_off,,,,,64,0,7,,,,,0,,72,100
70752,note_on,,,,,32,0,7,,,,,0,,76,87
70816,note_off,,,,,64,0,7,,,,,0,,76,100
70848,note_on,,,,,32,0,7,,,,,0,,72,87
70848,note_on,,,,,0,0,13,,,,,6,,64,100
70848,note_on,,,,,320,0,13,,,,,6,,72,100
70848,note_on,,,,,320,0,14,,,,,6,,48,100
70848,note_on,,,,,320,0,11,,,,,4,,48,85
70912,note_off,,,,,64,0,7,,,,,0,,72,100
70944,note_on,,,,,32,0,7,,,,,0,,76,88
70948,note_off,,,,,100,0,14,,,,,6,,48,100
70948,note_off,,,,,100,0,11,,,,,4,,48,100
70948,note_off,,,,,100,0,13,,,,,6,,72,100
70948,note_off,,,,,0,0,13,,,,,6,,64,100
71008,note_off,,,,,64,0,7,,,,,0,,76,100
71040,note_on,,,,,0,0,13,,,,,6,,64,100
71040,note_on,,,,,32,0,7,,,,,0,,70,88
71040,note_on,,,,,92,0,11,,,,,4,,52,85
71040,note_on,,,,,92,0,14,,,,,6,,52,100
71040,note_on,,,,,92,0,13,,,,,6,,72,100
71104,note_off,,,,,64,0,7,,,,,0,,70,100
71136,note_on,,,,,32,0,7,,,,,0,,76,89
71140,note_off,,,,,100,0,11,,,,,4,,52,100
71140,note_off,,,,,100,0,13,,,,,6,,72,100
71140,note_off,,,,,100,0,14,,,,,6,,52,100
71140,note_off,,,,,0,0,13,,,,,6,,64,100
71200,note_off,,,,,64,0,7,,,,,0,,76,100
71232,note_on,,,,,0,0,13,,,,,6,,64,100
71232,note_on,,,,,92,0,11,,,,,4,,48,85
71232,note_on,,,,,32,0,7,,,,,0,,70,89
71232,note_on,,,,,92,0,14,,,,,6,,48,100
71232,note_on,,,,,92,0,13,,,,,6,,70,100
71296,note_off,,,,,64,0,7,,,,,0,,70,100
71328,note_on,,,,,32,0,7,,,,,0,,76,90
71332,note_off,,,,,100,0,14,,,,,6,,48,100
71332,note_off,,,,,100,0,11,,,,,4,,48,100
71332,note_off,,,,,100,0,13,,,,,6,,70,100
71332,note_off,,,,,0,0,13,,,,,6,,64,100
71392,note_off,,,,,64,0,7,,,,,0,,76,100
71424,note_on,,,,,92,0,14,,,,,6,,53,100
71424,note_on,,,,,0,0,13,,,,,6,,69,100
71424,note_on,,,,,32,0,7,,,,,0,,77,90
71424,note_on,,,,,92,0,11,,,,,4,,53,85
71424,note_on,,,,,92,0,13,,,,,6,,62,100
71488,note_off,,,,,64,0,7,,,,,0,,77,100
71520,note_on,,,,,32,0,7,,,,,0,,81,91
71524,note_off,,,,,100,0,11,,,,,4,,53,100
71524,note_off,,,,,0,0,13,,,,,6,,69,100
71524,note_off,,,,,100,0,13,,,,,6,,62,100
71524,note_off,,,,,100,0,14,,,,,6,,53,100
71584,note_off,,,,,64,0,7,,,,,0,,81,100
71616,note_on,,,,,32,0,7,,,,,0,,79,92
71616,note_on,,,,,92,0,14,,,,,6,,50,100
71616,note_on,,,,,92,0,11,,,,,4,,50,85
71616,note_on,,,,,92,0,13,,,,,6,,62,100
71616,note_on,,,,,0,0,13,,,,,6,,66,100
71680,note_off,,,,,64,0,7,,,,,0,,79,100
71712,note_on,,,,,32,0,7,,,,,0,,78,92
71716,note_off,,,,,0,0,13,,,,,6,,66,100
71716,note_off,,,,,100,0,13,,,,,6,,62,100
71716,note_off,,,,,100,0,14,,,,,6,,50,100
71716,note_off,,,,,100,0,11,,,,,4,,50,100
71776,note_off,,,,,64,0,7,,,,,0,,78,100
71808,note_on,,,,,92,0,13,,,,,6,,62,100
71808,note_on,,,,,32,0,7,,,,,0,,74,93
71808,note_on,,,,,92,0,11,,,,,4,,54,85
71808,note_on,,,,,92,0,14,,,,,6,,54,100
71808,note_on,,,,,0,0,13,,,,,6,,74,100
71808,note_on,,,,,0,0,13,,,,,6,,69,100
71872,note_off,,,,,64,0,7,,,,,0,,74,100
71904,note_on,,,,,32,0,7,,,,,0,,78,93
71968,note_off,,,,,64,0,7,,,,,0,,78,100
72000,note_on,,,,,32,0,7,,,,,0,,74,94
72064,note_off,,,,,0,0,13,,,,,6,,69,100
72064,note_off,,,,,0,0,13,,,,,6,,74,100
72064,note_off,,,,,256,0,13,,,,,6,,62,100
72064,note_off,,,,,64,0,7,,,,,0,,74,100
72064,note_off,,,,,256,0,11,,,,,4,,54,100
72064,note_off,,,,,256,0,14,,,,,6,,54,100
72096,note_on,,,,,32,0,7,,,,,0,,78,94
72160,note_off,,,,,64,0,7,,,,,0,,78,100
72192,note_on,,,,,0,0,13,,,,,6,,69,100
72192,note_on,,,,,32,0,7,,,,,0,,72,95
72192,note_on,,,,,128,0,11,,,,,4,,50,85
72192,note_on,,,,,0,0,13,,,,,6,,72,100
72192,note_on,,,,,128,0,14,,,,,6,,50,100
72192,note_on,,,,,128,0,13,,,,,6,,66,100
72256,note_off,,,,,64,0,7,,,,,0,,72,100
72288,note_on,,,,,32,0,7,,,,,0,,78,95
72352,note_off,,,,,64,0,7,,,,,0,,78,100
72384,note_on,,,,,32,0,7,,,,,0,,72,96
72448,note_off,,,,,256,0,11,,,,,4,,50,100
72448,note_off,,,,,256,0,13,,,,,6,,66,100
72448,note_off,,,,,0,0,13,,,,,6,,69,100
72448,note_off,,,,,0,0,13,,,,,6,,72,100
72448,note_off,,,,,64,0,7,,,,,0,,72,100
72448,note_off,,,,,256,0,14,,,,,6,,50,100
72480,note_on,,,,,32,0,7,,,,,0,,78,96
72544,note_off,,,,,64,0,7,,,,,0,,78,100
72576,note_on,,,,,128,0,14,,,,,6,,55,100
72576,note_on,,,,,128,0,11,,,,,4,,55,85
72576,note_on,,,,,128,0,13,,,,,6,,64,100
72576,note_on,,,,,0,0,13,,,,,6,,71,100
72576,note_on,,,,,32,0,7,,,,,0,,79,97
72640,note_off,,,,,64,0,7,,,,,0,,79,100
72672,note_on,,,,,32,0,7,,,,,0,,83,98
72676,note_off,,,,,0,0,13,,,,,6,,71,100
72676,note_off,,,,,100,0,13,,,,,6,,64,100
72676,note_off,,,,,100,0,11,,,,,4,,55,100
72676,note_off,,,,,100,0,14,,,,,6,,55,100
72736,note_off,,,,,64,0,7,,,,,0,,83,100
72768,note_on,,,,,0,0,13,,,,,6,,68,100
72768,note_on,,,,,92,0,14,,,,,6,,52,100
72768,note_on,,,,,92,0,11,,,,,4,,52,85
72768,note_on,,,,,32,0,7,,,,,0,,81,98
72768,note_on,,,,,92,0,13,,,,,6,,64,100
72832,note_off,,,,,64,0,7,,,,,0,,81,100
72864,note_on,,,,,32,0,7,,,,,0,,80,99
72868,note_off,,,,,100,0,14,,,,,6,,52,100
72868,note_off,,,,,100,0,13,,,,,6,,64,100
72868,note_off,,,,,0,0,13,,,,,6,,68,100
72868,note_off,,,,,100,0,11,,,,,4,,52,100
72928,note_off,,,,,64,0,7,,,,,0,,80,100
72960,note_on,,,,,92,0,11,,,,,4,,56,85
72960,note_on,,,,,32,0,7,,,,,0,,76,99
72960,note_on,,,,,92,0,14,,,,,6,,56,100
72960,note_on,,,,,92,0,13,,,,,6,,64,100
72960,note_on,,,,,0,0,13,,,,,6,,71,100
72960,note_on,,,,,0,0,13,,,,,6,,76,100
73024,note_off,,,,,64,0,7,,,,,0,,76,100
73056,note_on,,,,,32,0,7,,,,,0,,80,100
73120,note_off,,,,,64,0,7,,,,,0,,80,100
73152,note_on,,,,,32,0,7,,,,,0,,76,100
73216,note_off,,,,,256,0,13,,,,,6,,64,100
73216,note_off,,,,,64,0,7,,,,,0,,76,100
73216,note_off,,,,,256,0,11,,,,,4,,56,100
73216,note_off,,,,,256,0,14,,,,,6,,56,100
73216,note_off,,,,,0,0,13,,,,,6,,71,100
73216,note_off,,,,,0,0,13,,,,,6,,76,100
73248,note_on,,,,,32,0,7,,,,,0,,80,101
73312,note_off,,,,,64,0,7,,,,,0,,80,100
73344,note_on,,,,,32,0,7,,,,,0,,74,101
73344,note_on,,,,,128,0,13,,,,,6,,68,100
73344,note_on,,,,,0,0,13,,,,,6,,71,100
73344,note_on,,,,,128,0,14,,,,,6,,52,100
73344,note_on,,,,,0,0,13,,,,,6,,74,100
73344,note_on,,,,,128,0,11,,,,,4,,52,85
73408,note_off,,,,,64,0,7,,,,,0,,74,100
73440,note_on,,,,,32,0,7,,,,,0,,80,102
73504,note_off,,,,,64,0,7,,,,,0,,80,100
73536,note_on,,,,,32,0,7,,,,,0,,74,102
73600,note_off,,,,,256,0,13,,,,,6,,68,100
73600,note_off,,,,,256,0,14,,,,,6,,52,100
73600,note_off,,,,,0,0,13,,,,,6,,71,100
73600,note_off,,,,,256,0,11,,,,,4,,52,100
73600,note_off,,,,,64,0,7,,,,,0,,74,100
73600,note_off,,,,,0,0,13,,,,,6,,74,100
73632,note_on,,,,,32,0,7,,,,,0,,80,103
73696,note_off,,,,,64,0,7,,,,,0,,80,100
73728,note_on,,,,,128,0,13,,,,,6,,64,100
73728,note_on,,,,,0,0,13,,,,,6,,69,100
73728,note_on,,,,,128,0,14,,,,,6,,57,100
73728,note_on,,,,,0,0,13,,,,,6,,72,100
73728,note_on,,,,,128,0,11,,,,,4,,57,85
73728,note_on,,,,,32,0,7,,,,,0,,81,104
73792,note_off,,,,,64,0,7,,,,,0,,81,100
73824,note_on,,,,,32,0,7,,,,,0,,83,104
73888,note_off,,,,,64,0,7,,,,,0,,83,100
73920,note_on,,,,,32,0,7,,,,,0,,79,103
73984,note_off,,,,,0,0,13,,,,,6,,69,100
73984,note_off,,,,,256,0,13,,,,,6,,64,100
73984,note_off,,,,,0,0,13,,,,,6,,72,100
73984,note_off,,,,,256,0,11,,,,,4,,57,100
73984,note_off,,,,,256,0,14,,,,,6,,57,100
73984,note_off,,,,,64,0,7,,,,,0,,79,100
74016,note_on,,,,,32,0,7,,,,,0,,81,102
74080,note_off,,,,,64,0,7,,,,,0,,81,100
74112,note_on,,,,,32,0,7,,,,,0,,77,102
74112,note_on,,,,,128,0,11,,,,,4,,62,85
74112,note_on,,,,,128,0,14,,,,,6,,62,100
74112,note_on,,,,,128,0,13,,,,,6,,77,100
74176,note_off,,,,,64,0,7,,,,,0,,77,100
74208,note_on,,,,,32,0,7,,,,,0,,79,101
74212,note_off,,,,,100,0,11,,,,,4,,62,100
74212,note_off,,,,,100,0,14,,,,,6,,62,100
74212,note_off,,,,,100,0,13,,,,,6,,77,100
74272,note_off,,,,,64,0,7,,,,,0,,79,100
74304,note_on,,,,,32,0,7,,,,,0,,76,100
74304,note_on,,,,,92,0,13,,,,,6,,76,100
74304,note_on,,,,,92,0,11,,,,,4,,60,85
74304,note_on,,,,,92,0,14,,,,,6,,60,100
74368,note_off,,,,,64,0,7,,,,,0,,76,100
74400,note_on,,,,,32,0,7,,,,,0,,77,99
74404,note_off,,,,,100,0,13,,,,,6,,76,100
74404,note_off,,,,,100,0,11,,,,,4,,60,100
74404,note_off,,,,,100,0,14,,,,,6,,60,100
74464,note_off,,,,,64,0,7,,,,,0,,77,100
74496,note_on,,,,,32,0,7,,,,,0,,74,99
74496,note_on,,,,,92,0,11,,,,,4,,59,85
74496,note_on,,,,,92,0,13,,,,,6,,74,100
74496,note_on,,,,,92,0,14,,,,,6,,59,100
74560,note_off,,,,,64,0,7,,,,,0,,74,100
74592,note_on,,,,,32,0,7,,,,,0,,76,98
74596,note_off,,,,,100,0,13,,,,,6,,74,100
74596,note_off,,,,,100,0,14,,,,,6,,59,100
74596,note_off,,,,,100,0,11,,,,,4,,59,100
74656,note_off,,,,,64,0,7,,,,,0,,76,100
74688,note_on,,,,,92,0,11,,,,,4,,57,85
74688,note_on,,,,,32,0,7,,,,,0,,72,97
74688,note_on,,,,,92,0,13,,,,,6,,72,100
74688,note_on,,,,,92,0,14,,,,,6,,57,100
74752,note_off,,,,,64,0,7,,,,,0,,72,100
74784,note_on,,,,,32,0,7,,,,,0,,74,96
74788,note_off,,,,,100,0,14,,,,,6,,57,100
74788,note_off,,,,,100,0,11,,,,,4,,57,100
74788,note_off,,,,,100,0,13,,,,,6,,72,100
74848,note_off,,,,,64,0,7,,,,,0,,74,100
74880,note_on,,,,,32,0,7,,,,,0,,71,94
74880,note_on,,,,,92,0,14,,,,,6,,55,100
74880,note_on,,,,,92,0,13,,,,,6,,71,100
74880,note_on,,,,,92,0,11,,,,,4,,55,85
74944,note_off,,,,,64,0,7,,,,,0,,71,100
74976,note_on,,,,,32,0,7,,,,,0,,72,94
74980,note_off,,,,,100,0,14,,,,,6,,55,100
74980,note_off,,,,,100,0,13,,,,,6,,71,100
74980,note_off,,,,,100,0,11,,,,,4,,55,100
75040,note_off,,,,,64,0,7,,,,,0,,72,100
75072,note_on,,,,,32,0,7,,,,,0,,69,95
75072,note_on,,,,,92,0,14,,,,,6,,53,100
75072,note_on,,,,,92,0,11,,,,,4,,53,85
75072,note_on,,,,,92,0,13,,,,,6,,69,100
75136,note_off,,,,,64,0,7,,,,,0,,69,100
75168,note_on,,,,,32,0,7,,,,,0,,71,95
75172,note_off,,,,,100,0,11,,,,,4,,53,100
75172,note_off,,,,,100,0,14,,,,,6,,53,100
75172,note_off,,,,,100,0,13,,,,,6,,69,100
75232,note_off,,,,,64,0,7,,,,,0,,71,100
75264,note_on,,,,,92,0,13,,,,,6,,67,100
75264,note_on,,,,,32,0,7,,,,,0,,67,96
75264,note_on,,,,,92,0,11,,,,,4,,52,85
75264,note_on,,,,,92,0,14,,,,,6,,52,100
75328,note_off,,,,,64,0,7,,,,,0,,67,100
75360,note_on,,,,,32,0,7,,,,,0,,69,97
75364,note_off,,,,,100,0,13,,,,,6,,67,100
75364,note_off,,,,,100,0,11,,,,,4,,52,100
75364,note_off,,,,,100,0,14,,,,,6,,52,100
75424,note_off,,,,,64,0,7,,,,,0,,69,100
75456,note_on,,,,,92,0,13,,,,,6,,65,100
75456,note_on,,,,,32,0,7,,,,,0,,65,97
75456,note_on,,,,,92,0,14,,,,,6,,50,100
75456,note_on,,,,,92,0,11,,,,,4,,50,85
75520,note_off,,,,,64,0,7,,,,,0,,65,100
75552,note_on,,,,,32,0,7,,,,,0,,67,98
75556,note_off,,,,,100,0,14,,,,,6,,50,100
75556,note_off,,,,,100,0,13,,,,,6,,65,100
75556,note_off,,,,,100,0,11,,,,,4,,50,100
75616,note_off,,,,,64,0,7,,,,,0,,67,100
75648,note_on,,,,,92,0,14,,,,,6,,48,100
75648,note_on,,,,,32,0,7,,,,,0,,64,99
75648,note_on,,,,,92,0,13,,,,,6,,64,100
75648,note_on,,,,,92,0,11,,,,,4,,48,85
75712,note_off,,,,,64,0,7,,,,,0,,64,100
75744,note_on,,,,,32,0,7,,,,,0,,65,99
75748,note_off,,,,,100,0,14,,,,,6,,48,100
75748,note_off,,,,,100,0,11,,,,,4,,48,100
75748,note_off,,,,,100,0,13,,,,,6,,64,100
75808,note_off,,,,,64,0,7,,,,,0,,65,100
75840,note_on,,,,,32,0,7,,,,,0,,62,100
75840,note_on,,,,,92,0,13,,,,,6,,62,100
75840,note_on,,,,,92,0,11,,,,,4,,47,85
75840,note_on,,,,,92,0,14,,,,,6,,47,100
75904,note_off,,,,,64,0,7,,,,,0,,62,100
75936,note_on,,,,,32,0,7,,,,,0,,64,101
75940,note_off,,,,,100,0,13,,,,,6,,62,100
75940,note_off,,,,,100,0,11,,,,,4,,47,100
75940,note_off,,,,,100,0,14,,,,,6,,47,100
76000,note_off,,,,,64,0,7,,,,,0,,64,100
76032,note_on,,,,,92,0,13,,,,,6,,60,100
76032,note_on,,,,,92,0,14,,,,,6,,48,100
76032,note_on,,,,,92,0,11,,,,,4,,48,85
76032,note_on,,,,,32,0,7,,,,,0,,60,101
76032,note_on,,,,,0,0,13,,,,,6,,64,100
76160,note_off,,,,,128,0,7,,,,,0,,60,100
76224,note_on,,,,,64,0,7,,,,,0,,62,100
76288,note_off,,,,,256,0,14,,,,,6,,48,100
76288,note_off,,,,,64,0,7,,,,,0,,62,100
76288,note_off,,,,,256,0,11,,,,,4,,48,100
76288,note_off,,,,,0,0,13,,,,,6,,64,100
76288,note_off,,,,,256,0,13,,,,,6,,60,100
76320,note_on,,,,,32,0,7,,,,,0,,64,100
76384,note_off,,,,,64,0,7,,,,,0,,64,100
76416,note_on,,,,,32,0,7,,,,,0,,65,100
76480,note_off,,,,,64,0,7,,,,,0,,65,100
76512,note_on,,,,,32,0,7,,,,,0,,67,100
76576,note_off,,,,,64,0,7,,,,,0,,67,100
76608,note_on,,,,,320,0,13,,,,,6,,62,100
76608,note_on,,,,,0,0,13,,,,,6,,67,100
76608,note_on,,,,,320,0,11,,,,,4,,55,85
76608,note_on,,,,,320,0,14,,,,,6,,55,100
76608,note_on,,,,,32,0,7,,,,,0,,69,100
76672,note_off,,,,,64,0,7,,,,,0,,69,100
76704,note_on,,,,,32,0,7,,,,,0,,71,100
76708,note_off,,,,,100,0,13,,,,,6,,62,100
76708,note_off,,,,,100,0,11,,,,,4,,55,100
76708,note_off,,,,,0,0,13,,,,,6,,67,100
76708,note_off,,,,,100,0,14,,,,,6,,55,100
76768,note_off,,,,,64,0,7,,,,,0,,71,100
76800,note_on,,,,,92,0,13,,,,,6,,60,100
76800,note_on,,,,,92,0,11,,,,,4,,48,85
76800,note_on,,,,,32,0,7,,,,,0,,72,100
76800,note_on,,,,,92,0,14,,,,,6,,48,100
76800,note_on,,,,,0,0,13,,,,,6,,64,100
76900,note_off,,,,,100,0,14,,,,,6,,48,100
76900,note_off,,,,,100,0,13,,,,,6,,60,100
76900,note_off,,,,,0,0,13,,,,,6,,64,100
76900,note_off,,,,,100,0,7,,,,,0,,72,100
76900,note_off,,,,,100,0,11,,,,,4,,48,100
76992,note_on,,,,,92,0,13,,,,,6,,59,100
76992,note_on,,,,,92,0,11,,,,,4,,47,85
76992,note_on,,,,,92,0,14,,,,,6,,47,100
76992,note_on,,,,,92,0,7,,,,,0,,74,100
76992,note_on,,,,,0,0,13,,,,,6,,62,100
77092,note_off,,,,,100,0,7,,,,,0,,74,100
77092,note_off,,,,,100,0,14,,,,,6,,47,100
77092,note_off,,,,,100,0,11,,,,,4,,47,100
77092,note_off,,,,,0,0,13,,,,,6,,62,100
77092,note_off,,,,,100,0,13,,,,,6,,59,100
77184,note_on,,,,,92,0,7,,,,,0,,76,100
77184,note_on,,,,,92,0,13,,,,,6,,60,100
77184,note_on,,,,,0,0,13,,,,,6,,64,100
77184,note_on,,,,,92,0,11,,,,,4,,48,85
77184,note_on,,,,,92,0,14,,,,,6,,48,100
77276,note_off,,,,,92,0,7,,,,,0,,76,100
77280,note_on,,,,,4,0,7,,,,,0,,72,100
77372,note_off,,,,,92,0,7,,,,,0,,72,100
77376,note_on,,,,,4,0,7,,,,,0,,71,101
77440,note_off,,,,,256,0,14,,,,,6,,48,100
77440,note_off,,,,,0,0,13,,,,,6,,64,100
77440,note_off,,,,,256,0,13,,,,,6,,60,100
77440,note_off,,,,,256,0,11,,,,,4,,48,100
77468,note_off,,,,,92,0,7,,,,,0,,71,100
77472,note_on,,,,,4,0,7,,,,,0,,72,101
77536,note_off,,,,,64,0,7,,,,,0,,72,100
77568,note_on,,,,,32,0,7,,,,,0,,74,102
77568,note_on,,,,,128,0,13,,,,,6,,62,100
77568,note_on,,,,,0,0,13,,,,,6,,67,100
77568,note_on,,,,,0,0,13,,,,,6,,71,100
77568,note_on,,,,,128,0,11,,,,,4,,55,85
77568,note_on,,,,,128,0,14,,,,,6,,55,100
77660,note_off,,,,,92,0,7,,,,,0,,74,100
77664,note_on,,,,,4,0,7,,,,,0,,71,103
77756,note_off,,,,,92,0,7,,,,,0,,71,100
77760,note_on,,,,,4,0,7,,,,,0,,69,103
77824,note_off,,,,,0,0,13,,,,,6,,71,100
77824,note_off,,,,,256,0,14,,,,,6,,55,100
77824,note_off,,,,,0,0,13,,,,,6,,67,100
77824,note_off,,,,,256,0,13,,,,,6,,62,100
77824,note_off,,,,,256,0,11,,,,,4,,55,100
77852,note_off,,,,,92,0,7,,,,,0,,69,100
77856,note_on,,,,,4,0,7,,,,,0,,71,104
77920,note_off,,,,,64,0,7,,,,,0,,71,100
77952,note_on,,,,,128,0,14,,,,,6,,52,100
77952,note_on,,,,,32,0,7,,,,,0,,72,104
77952,note_on,,,,,128,0,11,,,,,4,,52,85
77952,note_on,,,,,0,0,13,,,,,6,,60,100
77952,note_on,,,,,0,0,13,,,,,6,,67,100
77952,note_on,,,,,128,0,13,,,,,6,,72,100
78044,note_off,,,,,92,0,7,,,,,0,,72,100
78048,note_on,,,,,4,0,7,,,,,0,,67,105
78140,note_off,,,,,92,0,7,,,,,0,,67,100
78144,note_on,,,,,4,0,7,,,,,0,,65,106
78208,note_off,,,,,256,0,11,,,,,4,,52,100
78208,note_off,,,,,256,0,13,,,,,6,,72,100
78208,note_off,,,,,0,0,13,,,,,6,,67,100
78208,note_off,,,,,0,0,13,,,,,6,,60,100
78208,note_off,,,,,256,0,14,,,,,6,,52,100
78236,note_off,,,,,92,0,7,,,,,0,,65,100
78240,note_on,,,,,4,0,7,,,,,0,,67,106
78304,note_off,,,,,64,0,7,,,,,0,,67,100
78336,note_on,,,,,128,0,14,,,,,6,,53,100
78336,note_on,,,,,128,0,11,,,,,4,,53,85
78336,note_on,,,,,0,0,13,,,,,6,,64,100
78336,note_on,,,,,0,0,13,,,,,6,,69,100
78336,note_on,,,,,32,0,7,,,,,0,,76,107
78336,note_on,,,,,128,0,13,,,,,6,,72,100
78416,note_off,,,,,80,0,7,,,,,0,,76,100
78528,note_on,,,,,112,0,7,,,,,0,,72,108
78592,note_off,,,,,256,0,14,,,,,6,,53,100
78592,note_off,,,,,256,0,11,,,,,4,,53,100
78592,note_off,,,,,0,0,13,,,,,6,,69,100
78592,note_off,,,,,0,0,13,,,,,6,,64,100
78592,note_off,,,,,256,0,13,,,,,6,,72,100
78608,note_off,,,,,80,0,7,,,,,0,,72,100
78720,note_on,,,,,128,0,14,,,,,6,,55,100
78720,note_on,,,,,128,0,13,,,,,6,,71,100
78720,note_on,,,,,112,0,7,,,,,0,,72,110
78720,note_on,,,,,128,0,11,,,,,4,,55,85
78720,note_on,,,,,0,0,13,,,,,6,,67,100
78720,note_on,,,,,0,0,13,,,,,6,,62,100
78720,set_tempo,,,,,69120,1,0,,500000,,,,,,
78812,note_off,,,,,92,0,7,,,,,0,,72,100
78816,note_on,,,,,4,0,7,,,,,0,,71,110
78860,note_off,,,,,44,0,7,,,,,0,,71,100
78864,note_on,,,,,4,0,7,,,,,0,,72,109
78908,note_off,,,,,44,0,7,,,,,0,,72,100
78912,note_on,,,,,4,0,7,,,,,0,,71,109
78912,set_tempo,,,,,192,1,0,,504201,,,,,,
78956,note_off,,,,,44,0,7,,,,,0,,71,100
78960,note_on,,,,,4,0,7,,,,,0,,72,108
78976,note_off,,,,,256,0,11,,,,,4,,55,100
78976,note_off,,,,,256,0,14,,,,,6,,55,100
78976,note_off,,,,,0,0,13,,,,,6,,62,100
78976,note_off,,,,,0,0,13,,,,,6,,67,100
78976,note_off,,,,,256,0,13,,,,,6,,71,100
79004,note_off,,,,,44,0,7,,,,,0,,72,100
79008,note_on,,,,,4,0,7,,,,,0,,71,108
79052,note_off,,,,,44,0,7,,,,,0,,71,100
79056,note_on,,,,,4,0,7,,,,,0,,72,107
79100,note_off,,,,,44,0,7,,,,,0,,72,100
79104,note_on,,,,,128,0,13,,,,,6,,71,100
79104,note_on,,,,,0,0,13,,,,,6,,62,100
79104,note_on,,,,,0,0,13,,,,,6,,67,100
79104,note_on,,,,,4,0,7,,,,,0,,71,107
79104,set_tempo,,,,,192,1,0,,508474,,,,,,
79104,note_on,,,,,128,0,14,,,,,6,,43,100
79104,note_on,,,,,128,0,11,,,,,4,,43,85
79200,set_tempo,,,,,96,1,0,,512820,,,,,,
79204,note_off,,,,,100,0,7,,,,,0,,71,100
79296,set_tempo,,,,,96,1,0,,517241,,,,,,
79296,note_on,,,,,92,0,7,,,,,0,,72,105
79360,note_off,,,,,256,0,13,,,,,6,,71,100
79360,note_off,,,,,256,0,14,,,,,6,,43,100
79360,note_off,,,,,0,0,13,,,,,6,,62,100
79360,note_off,,,,,0,0,13,,,,,6,,67,100
79360,note_off,,,,,256,0,11,,,,,4,,43,100
79392,set_tempo,,,,,96,1,0,,521739,,,,,,
79396,note_off,,,,,100,0,7,,,,,0,,72,100
79484,program_change,,,,,124,0,11,,,,,4,48,,
79488,note_on,,,,,20480,0,12,,,,,5,,48,100
79488,note_on,,,,,128,0,13,,,,,6,,72,100
79488,note_on,,,,,128,0,14,,,,,6,,60,100
79488,note_on,,,,,0,0,13,,,,,6,,64,100
79488,note_on,,,,,20480,0,9,,,,,2,,76,100
79488,note_on,,,,,0,0,15,,,,,7,,64,100
79488,note_on,,,,,0,0,15,,,,,7,,67,100
79488,note_on,,,,,20480,0,15,,,,,7,,72,100
79488,note_on,,,,,20480,0,8,,,,,1,,79,100
79488,note_on,,,,,4,0,11,,,,,4,,60,100
79488,note_on,,,,,0,0,13,,,,,6,,67,100
79488,note_on,,,,,20480,0,16,,,,,7,,60,100
79488,note_on,,,,,92,0,7,,,,,0,,72,103
79488,note_on,,,,,20480,0,10,,,,,3,,60,100
79488,set_tempo,,,,,96,1,0,,500000,,,,,,
79588,note_off,,,,,100,0,11,,,,,4,,60,100
79588,note_off,,,,,100,0,16,,,,,7,,60,100
79588,note_off,,,,,100,0,12,,,,,5,,48,100
79588,note_off,,,,,100,0,14,,,,,6,,60,100
79680,note_on,,,,,92,0,12,,,,,5,,36,100
79680,note_on,,,,,92,0,11,,,,,4,,48,100
79680,note_on,,,,,92,0,16,,,,,7,,48,100
79680,note_on,,,,,92,0,14,,,,,6,,48,100
79688,note_off,,,,,200,0,7,,,,,0,,72,100
79688,note_off,,,,,200,0,8,,,,,1,,79,100
79688,note_off,,,,,200,0,9,,,,,2,,76,100
79688,note_off,,,,,200,0,10,,,,,3,,60,100
79780,note_off,,,,,100,0,16,,,,,7,,48,100
79780,note_off,,,,,100,0,12,,,,,5,,36,100
79780,note_off,,,,,100,0,14,,,,,6,,48,100
79780,note_off,,,,,100,0,11,,,,,4,,48,100
79872,note_on,,,,,184,0,8,,,,,1,,72,100
79872,note_on,,,,,184,0,9,,,,,2,,76,100
79872,note_on,,,,,92,0,16,,,,,7,,48,100
79872,note_on,,,,,92,0,12,,,,,5,,36,100
79872,note_on,,,,,92,0,11,,,,,4,,48,100
79872,note_on,,,,,92,0,14,,,,,6,,48,100
79872,note_on,,,,,184,0,10,,,,,3,,67,100
79948,note_off,,,,,0,0,15,,,,,7,,64,100
79948,note_off,,,,,0,0,15,,,,,7,,67,100
79948,note_off,,,,,460,0,15,,,,,7,,72,100
79948,note_off,,,,,0,0,13,,,,,6,,67,100
79948,note_off,,,,,0,0,13,,,,,6,,64,100
79948,note_off,,,,,460,0,13,,,,,6,,72,100
79972,note_off,,,,,100,0,11,,,,,4,,48,100
79972,note_off,,,,,100,0,16,,,,,7,,48,100
79972,note_off,,,,,100,0,12,,,,,5,,36,100
79972,note_off,,,,,100,0,14,,,,,6,,48,100
80064,note_on,,,,,92,0,11,,,,,4,,55,100
80064,note_on,,,,,0,0,13,,,,,6,,71,100
80064,note_on,,,,,116,0,13,,,,,6,,67,100
80064,note_on,,,,,92,0,14,,,,,6,,55,100
80064,note_on,,,,,116,0,15,,,,,7,,67,100
80064,note_on,,,,,92,0,12,,,,,5,,43,100
80064,note_on,,,,,92,0,16,,,,,7,,55,100
80064,note_on,,,,,0,0,15,,,,,7,,71,100
80072,note_off,,,,,200,0,10,,,,,3,,67,100
80072,note_off,,,,,200,0,8,,,,,1,,72,100
80072,note_off,,,,,200,0,9,,,,,2,,76,100
80164,note_off,,,,,0,0,15,,,,,7,,71,100
80164,note_off,,,,,100,0,13,,,,,6,,67,100
80164,note_off,,,,,0,0,13,,,,,6,,71,100
80164,note_off,,,,,100,0,16,,,,,7,,55,100
80164,note_off,,,,,100,0,14,,,,,6,,55,100
80164,note_off,,,,,100,0,12,,,,,5,,43,100
80164,note_off,,,,,100,0,11,,,,,4,,55,100
80164,note_off,,,,,100,0,15,,,,,7,,67,100
80256,note_on,,,,,92,0,13,,,,,6,,69,100
80256,note_on,,,,,92,0,16,,,,,7,,57,100
80256,note_on,,,,,92,0,14,,,,,6,,57,100
80256,note_on,,,,,0,0,13,,,,,6,,72,100
80256,note_on,,,,,92,0,12,,,,,5,,45,100
80256,note_on,,,,,92,0,15,,,,,7,,69,100
80256,note_on,,,,,92,0,11,,,,,4,,57,100
80256,note_on,,,,,0,0,15,,,,,7,,72,100
80356,note_off,,,,,100,0,13,,,,,6,,69,100
80356,note_off,,,,,100,0,14,,,,,6,,57,100
80356,note_off,,,,,100,0,15,,,,,7,,69,100
80356,note_off,,,,,0,0,15,,,,,7,,72,100
80356,note_off,,,,,0,0,13,,,,,6,,72,100
80356,note_off,,,,,100,0,11,,,,,4,,57,100
80356,note_off,,,,,100,0,12,,,,,5,,45,100
80356,note_off,,,,,100,0,16,,,,,7,,57,100
80448,note_on,,,,,92,0,11,,,,,4,,59,100
80448,note_on,,,,,92,0,12,,,,,5,,47,100
80448,note_on,,,,,92,0,14,,,,,6,,59,100
80448,note_on,,,,,92,0,15,,,,,7,,65,100
80448,note_on,,,,,0,0,15,,,,,7,,69,100
80448,note_on,,,,,92,0,16,,,,,7,,59,100
80448,note_on,,,,,92,0,13,,,,,6,,65,100
80448,note_on,,,,,0,0,13,,,,,6,,69,100
80544,note_on,,,,,472,0,9,,,,,2,,77,100
80544,note_on,,,,,472,0,8,,,,,1,,81,100
80544,note_on,,,,,472,0,10,,,,,3,,62,100
80548,note_off,,,,,100,0,12,,,,,5,,47,100
80548,note_off,,,,,100,0,15,,,,,7,,65,100
80548,note_off,,,,,100,0,14,,,,,6,,59,100
80548,note_off,,,,,0,0,13,,,,,6,,69,100
80548,note_off,,,,,0,0,15,,,,,7,,69,100
80548,note_off,,,,,100,0,16,,,,,7,,59,100
80548,note_off,,,,,100,0,11,,,,,4,,59,100
80548,note_off,,,,,100,0,13,,,,,6,,65,100
80608,note_off,,,,,64,0,10,,,,,3,,62,100
80608,note_off,,,,,64,0,9,,,,,2,,77,100
80608,note_off,,,,,64,0,8,,,,,1,,81,100
80640,note_on,,,,,32,0,9,,,,,2,,76,100
80640,note_on,,,,,92,0,14,,,,,6,,61,100
80640,note_on,,,,,32,0,10,,,,,3,,64,100
80640,note_on,,,,,92,0,16,,,,,7,,61,100
80640,note_on,,,,,0,0,15,,,,,7,,69,100
80640,note_on,,,,,92,0,15,,,,,7,,73,100
80640,note_on,,,,,0,0,15,,,,,7,,67,100
80640,note_on,,,,,92,0,11,,,,,4,,61,100
80640,note_on,,,,,92,0,12,,,,,5,,49,100
80640,note_on,,,,,92,0,13,,,,,6,,73,100
80640,note_on,,,,,0,0,13,,,,,6,,69,100
80640,note_on,,,,,0,0,13,,,,,6,,67,100
80640,note_on,,,,,32,0,8,,,,,1,,79,100
80740,note_off,,,,,100,0,12,,,,,5,,49,100
80740,note_off,,,,,100,0,11,,,,,4,,61,100
80740,note_off,,,,,100,0,14,,,,,6,,61,100
80740,note_off,,,,,100,0,16,,,,,7,,61,100
80832,note_on,,,,,92,0,12,,,,,5,,33,100
80832,note_on,,,,,92,0,14,,,,,6,,45,100
80832,note_on,,,,,92,0,11,,,,,4,,45,100
80832,note_on,,,,,92,0,16,,,,,7,,45,100
80840,note_off,,,,,200,0,8,,,,,1,,79,100
80840,note_off,,,,,200,0,10,,,,,3,,64,100
80840,note_off,,,,,200,0,9,,,,,2,,76,100
80932,note_off,,,,,100,0,11,,,,,4,,45,100
80932,note_off,,,,,100,0,14,,,,,6,,45,100
80932,note_off,,,,,100,0,12,,,,,5,,33,100
80932,note_off,,,,,100,0,16,,,,,7,,45,100
81024,note_on,,,,,184,0,8,,,,,1,,73,100
81024,note_on,,,,,184,0,9,,,,,2,,69,100
81024,note_on,,,,,184,0,10,,,,,3,,64,100
81024,note_on,,,,,92,0,12,,,,,5,,33,100
81024,note_on,,,,,92,0,14,,,,,6,,45,100
81024,note_on,,,,,92,0,16,,,,,7,,45,100
81024,note_on,,,,,92,0,11,,,,,4,,45,100
81100,note_off,,,,,460,0,15,,,,,7,,73,100
81100,note_off,,,,,460,0,13,,,,,6,,73,100
81100,note_off,,,,,0,0,15,,,,,7,,67,100
81100,note_off,,,,,0,0,13,,,,,6,,67,100
81100,note_off,,,,,0,0,15,,,,,7,,69,100
81100,note_off,,,,,0,0,13,,,,,6,,69,100
81124,note_off,,,,,100,0,11,,,,,4,,45,100
81124,note_off,,,,,100,0,14,,,,,6,,45,100
81124,note_off,,,,,100,0,16,,,,,7,,45,100
81124,note_off,,,,,100,0,12,,,,,5,,33,100
81216,note_on,,,,,92,0,11,,,,,4,,45,100
81216,note_on,,,,,92,0,16,,,,,7,,45,100
81216,note_on,,,,,92,0,12,,,,,5,,33,100
81216,note_on,,,,,116,0,15,,,,,7,,57,100
81216,note_on,,,,,92,0,14,,,,,6,,45,100
81216,note_on,,,,,116,0,13,,,,,6,,57,100
81216,note_on,,,,,0,0,13,,,,,6,,61,100
81216,note_on,,,,,0,0,15,,,,,7,,61,100
81224,note_off,,,,,200,0,10,,,,,3,,64,100
81224,note_off,,,,,200,0,9,,,,,2,,69,100
81224,note_off,,,,,200,0,8,,,,,1,,73,100
81316,note_off,,,,,100,0,13,,,,,6,,57,100
81316,note_off,,,,,0,0,15,,,,,7,,61,100
81316,note_off,,,,,100,0,15,,,,,7,,57,100
81316,note_off,,,,,0,0,13,,,,,6,,61,100
81316,note_off,,,,,100,0,11,,,,,4,,45,100
81316,note_off,,,,,100,0,16,,,,,7,,45,100
81316,note_off,,,,,100,0,14,,,,,6,,45,100
81316,note_off,,,,,100,0,12,,,,,5,,33,100
81408,note_on,,,,,92,0,14,,,,,6,,47,100
81408,note_on,,,,,92,0,16,,,,,7,,47,100
81408,note_on,,,,,92,0,11,,,,,4,,47,100
81408,note_on,,,,,92,0,15,,,,,7,,59,100
81408,note_on,,,,,0,0,15,,,,,7,,62,100
81408,note_on,,,,,0,0,13,,,,,6,,62,100
81408,note_on,,,,,92,0,13,,,,,6,,59,100
81408,note_on,,,,,92,0,12,,,,,5,,35,100
81508,note_off,,,,,100,0,12,,,,,5,,35,100
81508,note_off,,,,,100,0,15,,,,,7,,59,100
81508,note_off,,,,,0,0,15,,,,,7,,62,100
81508,note_off,,,,,0,0,13,,,,,6,,62,100
81508,note_off,,,,,100,0,16,,,,,7,,47,100
81508,note_off,,,,,100,0,13,,,,,6,,59,100
81508,note_off,,,,,100,0,11,,,,,4,,47,100
81508,note_off,,,,,100,0,14,,,,,6,,47,100
81600,note_on,,,,,92,0,14,,,,,6,,49,100
81600,note_on,,,,,92,0,16,,,,,7,,49,100
81600,note_on,,,,,92,0,15,,,,,7,,61,100
81600,note_on,,,,,92,0,12,,,,,5,,37,100
81600,note_on,,,,,92,0,11,,,,,4,,49,100
81600,note_on,,,,,92,0,13,,,,,6,,61,100
81600,note_on,,,,,0,0,13,,,,,6,,64,100
81600,note_on,,,,,0,0,15,,,,,7,,64,100
81696,note_on,,,,,472,0,10,,,,,3,,69,100
81696,note_on,,,,,472,0,8,,,,,1,,79,100
81696,note_on,,,,,472,0,9,,,,,2,,76,100
81700,note_off,,,,,0,0,13,,,,,6,,64,100
81700,note_off,,,,,100,0,16,,,,,7,,49,100
81700,note_off,,,,,100,0,11,,,,,4,,49,100
81700,note_off,,,,,100,0,15,,,,,7,,61,100
81700,note_off,,,,,100,0,14,,,,,6,,49,100
81700,note_off,,,,,100,0,13,,,,,6,,61,100
81700,note_off,,,,,0,0,15,,,,,7,,64,100
81700,note_off,,,,,100,0,12,,,,,5,,37,100
81760,note_off,,,,,64,0,9,,,,,2,,76,100
81760,note_off,,,,,64,0,10,,,,,3,,69,100
81760,note_off,,,,,64,0,8,,,,,1,,79,100
81792,note_on,,,,,92,0,14,,,,,6,,50,100
81792,note_on,,,,,92,0,11,,,,,4,,50,100
81792,note_on,,,,,92,0,16,,,,,7,,50,100
81792,note_on,,,,,32,0,8,,,,,1,,77,100
81792,note_on,,,,,32,0,10,,,,,3,,57,100
81792,note_on,,,,,0,0,13,,,,,6,,65,100
81792,note_on,,,,,92,0,13,,,,,6,,62,100
81792,note_on,,,,,92,0,15,,,,,7,,62,100
81792,note_on,,,,,32,0,9,,,,,2,,74,100
81792,note_on,,,,,92,0,12,,,,,5,,38,100
81792,note_on,,,,,0,0,15,,,,,7,,65,100
81892,note_off,,,,,100,0,14,,,,,6,,50,100
81892,note_off,,,,,100,0,16,,,,,7,,50,100
81892,note_off,,,,,100,0,11,,,,,4,,50,100
81892,note_off,,,,,100,0,12,,,,,5,,38,100
81984,note_on,,,,,92,0,14,,,,,6,,38,100
81984,note_on,,,,,92,0,11,,,,,4,,38,100
81984,note_on,,,,,92,0,16,,,,,7,,38,100
81984,note_on,,,,,92,0,12,,,,,5,,38,100
81992,note_off,,,,,200,0,10,,,,,3,,57,100
81992,note_off,,,,,200,0,8,,,,,1,,77,100
81992,note_off,,,,,200,0,9,,,,,2,,74,100
82084,note_off,,,,,100,0,16,,,,,7,,38,100
82084,note_off,,,,,100,0,11,,,,,4,,38,100
82084,note_off,,,,,100,0,14,,,,,6,,38,100
82084,note_off,,,,,100,0,12,,,,,5,,38,100
82176,note_on,,,,,184,0,10,,,,,3,,57,100
82176,note_on,,,,,184,0,8,,,,,1,,65,100
82176,note_on,,,,,184,0,9,,,,,2,,62,100
82176,note_on,,,,,92,0,14,,,,,6,,38,100
82176,note_on,,,,,92,0,11,,,,,4,,38,100
82176,note_on,,,,,92,0,12,,,,,5,,38,100
82176,note_on,,,,,92,0,16,,,,,7,,38,100
82252,note_off,,,,,460,0,15,,,,,7,,62,100
82252,note_off,,,,,0,0,15,,,,,7,,65,100
82252,note_off,,,,,460,0,13,,,,,6,,62,100
82252,note_off,,,,,0,0,13,,,,,6,,65,100
82276,note_off,,,,,100,0,16,,,,,7,,38,100
82276,note_off,,,,,100,0,11,,,,,4,,38,100
82276,note_off,,,,,100,0,14,,,,,6,,38,100
82276,note_off,,,,,100,0,12,,,,,5,,38,100
82368,note_on,,,,,92,0,16,,,,,7,,53,100
82368,note_on,,,,,116,0,13,,,,,6,,69,100
82368,note_on,,,,,92,0,11,,,,,4,,53,100
82368,note_on,,,,,92,0,14,,,,,6,,53,100
82368,note_on,,,,,0,0,13,,,,,6,,65,100
82368,note_on,,,,,92,0,12,,,,,5,,41,100
82368,note_on,,,,,0,0,15,,,,,7,,65,100
82368,note_on,,,,,116,0,15,,,,,7,,69,100
82376,note_off,,,,,200,0,8,,,,,1,,65,100
82376,note_off,,,,,200,0,10,,,,,3,,57,100
82376,note_off,,,,,200,0,9,,,,,2,,62,100
82468,note_off,,,,,100,0,12,,,,,5,,41,100
82468,note_off,,,,,100,0,16,,,,,7,,53,100
82468,note_off,,,,,100,0,14,,,,,6,,53,100
82468,note_off,,,,,0,0,15,,,,,7,,65,100
82468,note_off,,,,,100,0,11,,,,,4,,53,100
82468,note_off,,,,,0,0,13,,,,,6,,65,100
82468,note_off,,,,,100,0,15,,,,,7,,69,100
82468,note_off,,,,,100,0,13,,,,,6,,69,100
82560,note_on,,,,,0,0,13,,,,,6,,64,100
82560,note_on,,,,,92,0,11,,,,,4,,52,100
82560,note_on,,,,,0,0,15,,,,,7,,64,100
82560,note_on,,,,,92,0,13,,,,,6,,67,100
82560,note_on,,,,,92,0,14,,,,,6,,52,100
82560,note_on,,,,,92,0,12,,,,,5,,40,100
82560,note_on,,,,,92,0,16,,,,,7,,52,100
82560,note_on,,,,,92,0,15,,,,,7,,67,100
82660,note_off,,,,,100,0,14,,,,,6,,52,100
82660,note_off,,,,,100,0,15,,,,,7,,67,100
82660,note_off,,,,,0,0,15,,,,,7,,64,100
82660,note_off,,,,,100,0,16,,,,,7,,52,100
82660,note_off,,,,,0,0,13,,,,,6,,64,100
82660,note_off,,,,,100,0,12,,,,,5,,40,100
82660,note_off,,,,,100,0,11,,,,,4,,52,100
82660,note_off,,,,,100,0,13,,,,,6,,67,100
82752,note_on,,,,,92,0,16,,,,,7,,50,100
82752,note_on,,,,,92,0,12,,,,,5,,38,100
82752,note_on,,,,,0,0,13,,,,,6,,65,100
82752,note_on,,,,,92,0,11,,,,,4,,50,100
82752,note_on,,,,,92,0,13,,,,,6,,69,100
82752,note_on,,,,,92,0,14,,,,,6,,50,100
82752,note_on,,,,,92,0,15,,,,,7,,69,100
82752,note_on,,,,,0,0,15,,,,,7,,65,100
82848,note_on,,,,,472,0,10,,,,,3,,65,100
82848,note_on,,,,,472,0,9,,,,,2,,74,100
82848,note_on,,,,,472,0,8,,,,,1,,77,100
82852,note_off,,,,,100,0,15,,,,,7,,69,100
82852,note_off,,,,,0,0,15,,,,,7,,65,100
82852,note_off,,,,,100,0,14,,,,,6,,50,100
82852,note_off,,,,,100,0,11,,,,,4,,50,100
82852,note_off,,,,,100,0,16,,,,,7,,50,100
82852,note_off,,,,,100,0,13,,,,,6,,69,100
82852,note_off,,,,,100,0,12,,,,,5,,38,100
82852,note_off,,,,,0,0,13,,,,,6,,65,100
82912,note_off,,,,,64,0,8,,,,,1,,77,100
82912,note_off,,,,,64,0,10,,,,,3,,65,100
82912,note_off,,,,,64,0,9,,,,,2,,74,100
82944,note_on,,,,,92,0,11,,,,,4,,59,100
82944,note_on,,,,,92,0,13,,,,,6,,71,100
82944,note_on,,,,,0,0,13,,,,,6,,65,100
82944,note_on,,,,,32,0,9,,,,,2,,74,100
82944,note_on,,,,,92,0,14,,,,,6,,59,100
82944,note_on,,,,,0,0,13,,,,,6,,67,100
82944,note_on,,,,,0,0,15,,,,,7,,65,100
82944,note_on,,,,,92,0,16,,,,,7,,59,100
82944,note_on,,,,,32,0,8,,,,,1,,77,100
82944,note_on,,,,,32,0,10,,,,,3,,67,100
82944,note_on,,,,,92,0,12,,,,,5,,47,100
82944,note_on,,,,,0,0,15,,,,,7,,67,100
82944,note_on,,,,,92,0,15,,,,,7,,71,100
83044,note_off,,,,,100,0,11,,,,,4,,59,100
83044,note_off,,,,,100,0,16,,,,,7,,59,100
83044,note_off,,,,,100,0,14,,,,,6,,59,100
83044,note_off,,,,,100,0,12,,,,,5,,47,100
83136,note_on,,,,,92,0,16,,,,,7,,43,100
83136,note_on,,,,,92,0,12,,,,,5,,31,100
83136,note_on,,,,,92,0,14,,,,,6,,43,100
83136,note_on,,,,,92,0,11,,,,,4,,43,100
83144,note_off,,,,,200,0,10,,,,,3,,67,100
83144,note_off,,,,,200,0,9,,,,,2,,74,100
83144,note_off,,,,,200,0,8,,,,,1,,77,100
83236,note_off,,,,,100,0,16,,,,,7,,43,100
83236,note_off,,,,,100,0,11,,,,,4,,43,100
83236,note_off,,,,,100,0,14,,,,,6,,43,100
83236,note_off,,,,,100,0,12,,,,,5,,31,100
83328,note_on,,,,,184,0,9,,,,,2,,67,99
83328,note_on,,,,,92,0,14,,,,,6,,43,100
83328,note_on,,,,,92,0,12,,,,,5,,31,99
83328,note_on,,,,,184,0,10,,,,,3,,62,99
83328,note_on,,,,,184,0,8,,,,,1,,71,99
83328,note_on,,,,,92,0,11,,,,,4,,43,99
83328,note_on,,,,,92,0,16,,,,,7,,43,100
83404,note_off,,,,,460,0,13,,,,,6,,71,100
83404,note_off,,,,,0,0,13,,,,,6,,67,100
83404,note_off,,,,,0,0,13,,,,,6,,65,100
83404,note_off,,,,,460,0,15,,,,,7,,71,100
83404,note_off,,,,,0,0,15,,,,,7,,65,100
83404,note_off,,,,,0,0,15,,,,,7,,67,100
83428,note_off,,,,,100,0,12,,,,,5,,31,100
83428,note_off,,,,,100,0,14,,,,,6,,43,100
83428,note_off,,,,,100,0,11,,,,,4,,43,100
83428,note_off,,,,,100,0,16,,,,,7,,43,100
83520,note_on,,,,,92,0,14,,,,,6,,43,100
83520,note_on,,,,,116,0,15,,,,,7,,55,100
83520,note_on,,,,,0,0,15,,,,,7,,59,100
83520,note_on,,,,,116,0,13,,,,,6,,55,100
83520,note_on,,,,,0,0,13,,,,,6,,59,100
83520,note_on,,,,,92,0,16,,,,,7,,43,100
83520,note_on,,,,,92,0,12,,,,,5,,31,99
83520,note_on,,,,,92,0,11,,,,,4,,43,99
83528,note_off,,,,,200,0,10,,,,,3,,62,100
83528,note_off,,,,,200,0,8,,,,,1,,71,100
83528,note_off,,,,,200,0,9,,,,,2,,67,100
83620,note_off,,,,,100,0,12,,,,,5,,31,100
83620,note_off,,,,,100,0,14,,,,,6,,43,100
83620,note_off,,,,,100,0,15,,,,,7,,55,100
83620,note_off,,,,,0,0,15,,,,,7,,59,100
83620,note_off,,,,,100,0,16,,,,,7,,43,100
83620,note_off,,,,,0,0,13,,,,,6,,59,100
83620,note_off,,,,,100,0,13,,,,,6,,55,100
83620,note_off,,,,,100,0,11,,,,,4,,43,100
83712,note_on,,,,,0,0,13,,,,,6,,60,100
83712,note_on,,,,,92,0,13,,,,,6,,57,100
83712,note_on,,,,,92,0,16,,,,,7,,45,100
83712,note_on,,,,,92,0,11,,,,,4,,45,98
83712,note_on,,,,,92,0,12,,,,,5,,33,98
83712,note_on,,,,,92,0,14,,,,,6,,45,100
83712,note_on,,,,,92,0,15,,,,,7,,57,100
83712,note_on,,,,,0,0,15,,,,,7,,60,100
83812,note_off,,,,,100,0,11,,,,,4,,45,100
83812,note_off,,,,,0,0,13,,,,,6,,60,100
83812,note_off,,,,,100,0,13,,,,,6,,57,100
83812,note_off,,,,,100,0,14,,,,,6,,45,100
83812,note_off,,,,,0,0,15,,,,,7,,60,100
83812,note_off,,,,,100,0,12,,,,,5,,33,100
83812,note_off,,,,,100,0,15,,,,,7,,57,100
83812,note_off,,,,,100,0,16,,,,,7,,45,100
83904,note_on,,,,,92,0,12,,,,,5,,35,97
83904,note_on,,,,,0,0,13,,,,,6,,62,100
83904,note_on,,,,,92,0,15,,,,,7,,59,100
83904,note_on,,,,,92,0,11,,,,,4,,47,97
83904,note_on,,,,,0,0,15,,,,,7,,62,100
83904,note_on,,,,,92,0,14,,,,,6,,47,100
83904,note_on,,,,,92,0,16,,,,,7,,47,100
83904,note_on,,,,,92,0,13,,,,,6,,59,100
84000,note_on,,,,,472,0,10,,,,,3,,67,97
84000,note_on,,,,,472,0,9,,,,,2,,74,97
84000,note_on,,,,,472,0,8,,,,,1,,77,97
84004,note_off,,,,,100,0,13,,,,,6,,59,100
84004,note_off,,,,,100,0,12,,,,,5,,35,100
84004,note_off,,,,,0,0,13,,,,,6,,62,100
84004,note_off,,,,,100,0,14,,,,,6,,47,100
84004,note_off,,,,,100,0,16,,,,,7,,47,100
84004,note_off,,,,,100,0,11,,,,,4,,47,100
84004,note_off,,,,,100,0,15,,,,,7,,59,100
84004,note_off,,,,,0,0,15,,,,,7,,62,100
84064,note_off,,,,,64,0,8,,,,,1,,77,100
84064,note_off,,,,,64,0,9,,,,,2,,74,100
84064,note_off,,,,,64,0,10,,,,,3,,67,100
84096,note_on,,,,,32,0,10,,,,,3,,55,97
84096,note_on,,,,,92,0,14,,,,,6,,48,100
84096,note_on,,,,,0,0,13,,,,,6,,64,100
84096,note_on,,,,,92,0,13,,,,,6,,60,100
84096,note_on,,,,,32,0,9,,,,,2,,72,97
84096,note_on,,,,,92,0,16,,,,,7,,48,100
84096,note_on,,,,,92,0,12,,,,,5,,36,97
84096,note_on,,,,,0,0,15,,,,,7,,64,100
84096,note_on,,,,,32,0,8,,,,,1,,76,97
84096,note_on,,,,,92,0,15,,,,,7,,60,100
84096,note_on,,,,,92,0,11,,,,,4,,48,97
84196,note_off,,,,,100,0,16,,,,,7,,48,100
84196,note_off,,,,,100,0,12,,,,,5,,36,100
84196,note_off,,,,,100,0,14,,,,,6,,48,100
84196,note_off,,,,,100,0,11,,,,,4,,48,100
84288,note_on,,,,,92,0,16,,,,,7,,36,100
84288,note_on,,,,,92,0,14,,,,,6,,36,100
84288,note_on,,,,,92,0,12,,,,,5,,36,96
84288,note_on,,,,,92,0,11,,,,,4,,36,96
84296,note_off,,,,,200,0,8,,,,,1,,76,100
84296,note_off,,,,,200,0,9,,,,,2,,72,100
84296,note_off,,,,,200,0,10,,,,,3,,55,100
84388,note_off,,,,,100,0,12,,,,,5,,36,100
84388,note_off,,,,,100,0,11,,,,,4,,36,100
84388,note_off,,,,,100,0,14,,,,,6,,36,100
84388,note_off,,,,,100,0,16,,,,,7,,36,100
84480,note_on,,,,,184,0,9,,,,,2,,60,95
84480,note_on,,,,,184,0,10,,,,,3,,55,95
84480,note_on,,,,,92,0,11,,,,,4,,36,95
84480,note_on,,,,,92,0,12,,,,,5,,36,95
84480,note_on,,,,,184,0,8,,,,,1,,64,95
84480,note_on,,,,,92,0,16,,,,,7,,36,100
84480,note_on,,,,,92,0,14,,,,,6,,36,100
84556,note_off,,,,,460,0,13,,,,,6,,60,100
84556,note_off,,,,,0,0,15,,,,,7,,64,100
84556,note_off,,,,,0,0,13,,,,,6,,64,100
84556,note_off,,,,,460,0,15,,,,,7,,60,100
84580,note_off,,,,,100,0,11,,,,,4,,36,100
84580,note_off,,,,,100,0,12,,,,,5,,36,100
84580,note_off,,,,,100,0,14,,,,,6,,36,100
84580,note_off,,,,,100,0,16,,,,,7,,36,100
84672,note_on,,,,,116,0,15,,,,,7,,67,100
84672,note_on,,,,,92,0,14,,,,,6,,48,100
84672,note_on,,,,,92,0,12,,,,,5,,36,95
84672,note_on,,,,,116,0,13,,,,,6,,67,100
84672,note_on,,,,,0,0,13,,,,,6,,64,100
84672,note_on,,,,,92,0,11,,,,,4,,48,95
84672,note_on,,,,,92,0,16,,,,,7,,48,100
84672,note_on,,,,,0,0,15,,,,,7,,64,100
84680,note_off,,,,,200,0,8,,,,,1,,64,100
84680,note_off,,,,,200,0,9,,,,,2,,60,100
84680,note_off,,,,,200,0,10,,,,,3,,55,100
84772,note_off,,,,,100,0,14,,,,,6,,48,100
84772,note_off,,,,,0,0,15,,,,,7,,64,100
84772,note_off,,,,,100,0,15,,,,,7,,67,100
84772,note_off,,,,,100,0,12,,,,,5,,36,100
84772,note_off,,,,,100,0,16,,,,,7,,48,100
84772,note_off,,,,,0,0,13,,,,,6,,64,100
84772,note_off,,,,,100,0,13,,,,,6,,67,100
84772,note_off,,,,,100,0,11,,,,,4,,48,100
84864,note_on,,,,,92,0,16,,,,,7,,47,100
84864,note_on,,,,,92,0,13,,,,,6,,67,100
84864,note_on,,,,,92,0,15,,,,,7,,67,100
84864,note_on,,,,,0,0,15,,,,,7,,62,100
84864,note_on,,,,,92,0,12,,,,,5,,35,96
84864,note_on,,,,,92,0,11,,,,,4,,47,96
84864,note_on,,,,,0,0,13,,,,,6,,62,100
84864,note_on,,,,,92,0,14,,,,,6,,47,100
84964,note_off,,,,,100,0,15,,,,,7,,67,100
84964,note_off,,,,,0,0,15,,,,,7,,62,100
84964,note_off,,,,,100,0,14,,,,,6,,47,100
84964,note_off,,,,,100,0,11,,,,,4,,47,100
84964,note_off,,,,,100,0,13,,,,,6,,67,100
84964,note_off,,,,,100,0,12,,,,,5,,35,100
84964,note_off,,,,,0,0,13,,,,,6,,62,100
84964,note_off,,,,,100,0,16,,,,,7,,47,100
85056,note_on,,,,,92,0,16,,,,,7,,45,100
85056,note_on,,,,,92,0,13,,,,,6,,69,100
85056,note_on,,,,,0,0,13,,,,,6,,64,100
85056,note_on,,,,,92,0,12,,,,,5,,33,97
85056,note_on,,,,,92,0,11,,,,,4,,45,97
85056,note_on,,,,,92,0,15,,,,,7,,69,100
85056,note_on,,,,,92,0,14,,,,,6,,45,100
85056,note_on,,,,,0,0,15,,,,,7,,64,100
85152,note_on,,,,,472,0,10,,,,,3,,69,97
85152,note_on,,,,,472,0,9,,,,,2,,72,97
85152,note_on,,,,,472,0,8,,,,,1,,76,97
85156,note_off,,,,,100,0,16,,,,,7,,45,100
85156,note_off,,,,,0,0,15,,,,,7,,64,100
85156,note_off,,,,,100,0,12,,,,,5,,33,100
85156,note_off,,,,,100,0,14,,,,,6,,45,100
85156,note_off,,,,,100,0,15,,,,,7,,69,100
85156,note_off,,,,,100,0,11,,,,,4,,45,100
85156,note_off,,,,,0,0,13,,,,,6,,64,100
85156,note_off,,,,,100,0,13,,,,,6,,69,100
85216,note_off,,,,,64,0,8,,,,,1,,76,100
85216,note_off,,,,,64,0,9,,,,,2,,72,100
85216,note_off,,,,,64,0,10,,,,,3,,69,100
85248,note_on,,,,,32,0,8,,,,,1,,76,97
85248,note_on,,,,,92,0,12,,,,,5,,40,97
85248,note_on,,,,,92,0,16,,,,,7,,52,100
85248,note_on,,,,,0,0,13,,,,,6,,71,100
85248,note_on,,,,,0,0,13,,,,,6,,68,100
85248,note_on,,,,,92,0,13,,,,,6,,64,100
85248,note_on,,,,,92,0,11,,,,,4,,52,97
85248,note_on,,,,,32,0,9,,,,,2,,71,97
85248,note_on,,,,,92,0,14,,,,,6,,52,100
85248,note_on,,,,,32,0,10,,,,,3,,68,97
85248,note_on,,,,,0,0,15,,,,,7,,71,100
85248,note_on,,,,,0,0,15,,,,,7,,68,100
85248,note_on,,,,,92,0,15,,,,,7,,64,100
85348,note_off,,,,,100,0,12,,,,,5,,40,100
85348,note_off,,,,,100,0,16,,,,,7,,52,100
85348,note_off,,,,,100,0,14,,,,,6,,52,100
85348,note_off,,,,,100,0,11,,,,,4,,52,100
85440,note_on,,,,,92,0,16,,,,,7,,40,100
85440,note_on,,,,,92,0,12,,,,,5,,40,98
85440,note_on,,,,,92,0,14,,,,,6,,40,100
85440,note_on,,,,,92,0,11,,,,,4,,40,98
85448,note_off,,,,,200,0,9,,,,,2,,71,100
85448,note_off,,,,,200,0,8,,,,,1,,76,100
85448,note_off,,,,,200,0,10,,,,,3,,68,100
85540,note_off,,,,,100,0,16,,,,,7,,40,100
85540,note_off,,,,,100,0,14,,,,,6,,40,100
85540,note_off,,,,,100,0,12,,,,,5,,40,100
85540,note_off,,,,,100,0,11,,,,,4,,40,100
85632,note_on,,,,,92,0,11,,,,,4,,40,99
85632,note_on,,,,,92,0,14,,,,,6,,40,100
85632,note_on,,,,,184,0,9,,,,,2,,68,99
85632,note_on,,,,,184,0,10,,,,,3,,64,99
85632,note_on,,,,,92,0,12,,,,,5,,40,99
85632,note_on,,,,,92,0,16,,,,,7,,40,100
85632,note_on,,,,,184,0,8,,,,,1,,71,99
85708,note_off,,,,,0,0,13,,,,,6,,71,100
85708,note_off,,,,,0,0,13,,,,,6,,68,100
85708,note_off,,,,,460,0,13,,,,,6,,64,100
85708,note_off,,,,,0,0,15,,,,,7,,68,100
85708,note_off,,,,,460,0,15,,,,,7,,64,100
85708,note_off,,,,,0,0,15,,,,,7,,71,100
85732,note_off,,,,,100,0,12,,,,,5,,40,100
85732,note_off,,,,,100,0,16,,,,,7,,40,100
85732,note_off,,,,,100,0,14,,,,,6,,40,100
85732,note_off,,,,,100,0,11,,,,,4,,40,100
85824,note_on,,,,,92,0,16,,,,,7,,52,100
85824,note_on,,,,,116,0,13,,,,,6,,64,100
85824,note_on,,,,,92,0,11,,,,,4,,52,99
85824,note_on,,,,,116,0,15,,,,,7,,64,100
85824,note_on,,,,,92,0,12,,,,,5,,40,99
85824,note_on,,,,,92,0,14,,,,,6,,52,100
85832,note_off,,,,,200,0,8,,,,,1,,71,100
85832,note_off,,,,,200,0,9,,,,,2,,68,100
85832,note_off,,,,,200,0,10,,,,,3,,64,100
85924,note_off,,,,,100,0,13,,,,,6,,64,100
85924,note_off,,,,,100,0,11,,,,,4,,52,100
85924,note_off,,,,,100,0,16,,,,,7,,52,100
85924,note_off,,,,,100,0,14,,,,,6,,52,100
85924,note_off,,,,,100,0,15,,,,,7,,64,100
85924,note_off,,,,,100,0,12,,,,,5,,40,100
86016,note_on,,,,,92,0,12,,,,,5,,42,100
86016,note_on,,,,,92,0,13,,,,,6,,66,100
86016,note_on,,,,,92,0,16,,,,,7,,54,100
86016,note_on,,,,,92,0,14,,,,,6,,54,100
86016,note_on,,,,,92,0,15,,,,,7,,66,100
86016,note_on,,,,,92,0,11,,,,,4,,54,100
86116,note_off,,,,,100,0,13,,,,,6,,66,100
86116,note_off,,,,,100,0,16,,,,,7,,54,100
86116,note_off,,,,,100,0,15,,,,,7,,66,100
86116,note_off,,,,,100,0,14,,,,,6,,54,100
86116,note_off,,,,,100,0,12,,,,,5,,42,100
86116,note_off,,,,,100,0,11,,,,,4,,54,100
86208,note_on,,,,,92,0,13,,,,,6,,62,100
86208,note_on,,,,,0,0,13,,,,,6,,68,100
86208,note_on,,,,,0,0,15,,,,,7,,68,100
86208,note_on,,,,,92,0,16,,,,,7,,56,100
86208,note_on,,,,,92,0,11,,,,,4,,56,101
86208,note_on,,,,,92,0,14,,,,,6,,56,100
86208,note_on,,,,,92,0,12,,,,,5,,44,101
86208,note_on,,,,,92,0,15,,,,,7,,62,100
86304,note_on,,,,,472,0,10,,,,,3,,64,101
86304,note_on,,,,,472,0,8,,,,,1,,76,101
86304,note_on,,,,,472,0,9,,,,,2,,71,101
86308,note_off,,,,,0,0,15,,,,,7,,68,100
86308,note_off,,,,,100,0,15,,,,,7,,62,100
86308,note_off,,,,,100,0,13,,,,,6,,62,100
86308,note_off,,,,,100,0,12,,,,,5,,44,100
86308,note_off,,,,,100,0,16,,,,,7,,56,100
86308,note_off,,,,,100,0,11,,,,,4,,56,100
86308,note_off,,,,,100,0,14,,,,,6,,56,100
86308,note_off,,,,,0,0,13,,,,,6,,68,100
86368,note_off,,,,,64,0,9,,,,,2,,71,100
86368,note_off,,,,,64,0,8,,,,,1,,76,100
86368,note_off,,,,,64,0,10,,,,,3,,64,100
86400,note_on,,,,,32,0,9,,,,,2,,69,101
86400,note_on,,,,,92,0,14,,,,,6,,57,100
86400,note_on,,,,,92,0,12,,,,,5,,45,101
86400,note_on,,,,,32,0,10,,,,,3,,60,101
86400,note_on,,,,,32,0,8,,,,,1,,76,101
86400,note_on,,,,,0,0,13,,,,,6,,69,100
86400,note_on,,,,,92,0,13,,,,,6,,60,100
86400,note_on,,,,,0,0,15,,,,,7,,69,100
86400,note_on,,,,,92,0,16,,,,,7,,57,100
86400,note_on,,,,,92,0,15,,,,,7,,60,100
86400,note_on,,,,,92,0,11,,,,,4,,57,101
86500,note_off,,,,,100,0,16,,,,,7,,57,100
86500,note_off,,,,,100,0,14,,,,,6,,57,100
86500,note_off,,,,,100,0,11,,,,,4,,57,100
86500,note_off,,,,,100,0,12,,,,,5,,45,100
86592,note_on,,,,,92,0,14,,,,,6,,45,100
86592,note_on,,,,,92,0,11,,,,,4,,45,98
86592,note_on,,,,,92,0,16,,,,,7,,45,100
86592,note_on,,,,,92,0,12,,,,,5,,33,98
86600,note_off,,,,,200,0,9,,,,,2,,69,100
86600,note_off,,,,,200,0,8,,,,,1,,76,100
86600,note_off,,,,,200,0,10,,,,,3,,60,100
86692,note_off,,,,,100,0,16,,,,,7,,45,100
86692,note_off,,,,,100,0,14,,,,,6,,45,100
86692,note_off,,,,,100,0,12,,,,,5,,33,100
86692,note_off,,,,,100,0,11,,,,,4,,45,100
86784,note_on,,,,,92,0,16,,,,,7,,45,100
86784,note_on,,,,,184,0,8,,,,,1,,60,96
86784,note_on,,,,,92,0,11,,,,,4,,45,96
86784,note_on,,,,,92,0,14,,,,,6,,45,100
86784,note_on,,,,,184,0,9,,,,,2,,64,96
86784,note_on,,,,,184,0,10,,,,,3,,57,96
86784,note_on,,,,,92,0,12,,,,,5,,33,96
86860,note_off,,,,,460,0,15,,,,,7,,60,100
86860,note_off,,,,,0,0,15,,,,,7,,69,100
86860,note_off,,,,,0,0,13,,,,,6,,69,100
86860,note_off,,,,,460,0,13,,,,,6,,60,100
86884,note_off,,,,,100,0,16,,,,,7,,45,100
86884,note_off,,,,,100,0,12,,,,,5,,33,100
86884,note_off,,,,,100,0,11,,,,,4,,45,100
86884,note_off,,,,,100,0,14,,,,,6,,45,100
86976,note_on,,,,,92,0,12,,,,,5,,40,93
86976,note_on,,,,,92,0,16,,,,,7,,52,100
86976,note_on,,,,,116,0,15,,,,,7,,64,100
86976,note_on,,,,,116,0,13,,,,,6,,64,100
86976,note_on,,,,,92,0,11,,,,,4,,52,93
86976,note_on,,,,,92,0,14,,,,,6,,52,100
86984,note_off,,,,,200,0,10,,,,,3,,57,100
86984,note_off,,,,,200,0,9,,,,,2,,64,100
86984,note_off,,,,,200,0,8,,,,,1,,60,100
87076,note_off,,,,,100,0,14,,,,,6,,52,100
87076,note_off,,,,,100,0,12,,,,,5,,40,100
87076,note_off,,,,,100,0,13,,,,,6,,64,100
87076,note_off,,,,,100,0,16,,,,,7,,52,100
87076,note_off,,,,,100,0,11,,,,,4,,52,100
87076,note_off,,,,,100,0,15,,,,,7,,64,100
87168,note_on,,,,,92,0,11,,,,,4,,54,91
87168,note_on,,,,,92,0,13,,,,,6,,66,100
87168,note_on,,,,,92,0,16,,,,,7,,54,100
87168,note_on,,,,,92,0,15,,,,,7,,66,100
87168,note_on,,,,,92,0,12,,,,,5,,42,91
87168,note_on,,,,,92,0,14,,,,,6,,54,100
87268,note_off,,,,,100,0,13,,,,,6,,66,100
87268,note_off,,,,,100,0,15,,,,,7,,66,100
87268,note_off,,,,,100,0,11,,,,,4,,54,100
87268,note_off,,,,,100,0,12,,,,,5,,42,100
87268,note_off,,,,,100,0,14,,,,,6,,54,100
87268,note_off,,,,,100,0,16,,,,,7,,54,100
87360,note_on,,,,,92,0,16,,,,,7,,56,100
87360,note_on,,,,,92,0,11,,,,,4,,56,88
87360,note_on,,,,,92,0,12,,,,,5,,44,88
87360,note_on,,,,,92,0,14,,,,,6,,56,100
87360,note_on,,,,,92,0,15,,,,,7,,62,100
87360,note_on,,,,,7672,0,7,,,,,0,,74,94
87360,note_on,,,,,0,0,13,,,,,6,,68,100
87360,note_on,,,,,0,0,15,,,,,7,,68,100
87360,note_on,,,,,92,0,13,,,,,6,,62,100
87460,note_off,,,,,100,0,15,,,,,7,,62,100
87460,note_off,,,,,100,0,14,,,,,6,,56,100
87460,note_off,,,,,100,0,16,,,,,7,,56,100
87460,note_off,,,,,0,0,15,,,,,7,,68,100
87460,note_off,,,,,100,0,7,,,,,0,,74,100
87460,note_off,,,,,100,0,11,,,,,4,,56,100
87460,note_off,,,,,100,0,12,,,,,5,,44,100
87460,note_off,,,,,100,0,13,,,,,6,,62,100
87460,note_off,,,,,0,0,13,,,,,6,,68,100
87548,program_change,,,,,88,0,11,,,,,4,42,,
87552,note_on,,,,,4,0,11,,,,,4,,57,75
87552,note_on,,,,,92,0,12,,,,,5,,45,86
87552,note_on,,,,,92,0,14,,,,,6,,57,100
87552,note_on,,,,,92,0,15,,,,,7,,61,100
87552,note_on,,,,,0,0,15,,,,,7,,64,100
87552,note_on,,,,,0,0,15,,,,,7,,69,100
87552,note_on,,,,,92,0,7,,,,,0,,73,94
87552,note_on,,,,,92,0,16,,,,,7,,57,100
87580,note_on,,,,,120,0,13,,,,,6,,61,100
87612,note_on,,,,,32,0,13,,,,,6,,64,100
87644,note_on,,,,,32,0,13,,,,,6,,67,100
87740,note_off,,,,,188,0,7,,,,,0,,73,100
87744,note_on,,,,,4,0,7,,,,,0,,82,95
87808,note_off,,,,,256,0,15,,,,,7,,61,100
87808,note_off,,,,,0,0,15,,,,,7,,69,100
87808,note_off,,,,,256,0,12,,,,,5,,45,100
87808,note_off,,,,,256,0,16,,,,,7,,57,100
87808,note_off,,,,,0,0,15,,,,,7,,64,100
87932,note_off,,,,,188,0,7,,,,,0,,82,100
87936,note_on,,,,,4,0,7,,,,,0,,81,96
88124,note_off,,,,,188,0,7,,,,,0,,81,100
88128,note_on,,,,,4,0,7,,,,,0,,79,97
88256,note_off,,,,,128,0,7,,,,,0,,79,100
88320,note_on,,,,,64,0,7,,,,,0,,73,98
88508,note_off,,,,,188,0,7,,,,,0,,73,100
88512,note_on,,,,,4,0,7,,,,,0,,79,99
88584,note_off,,,,,0,0,13,,,,,6,,64,100
88584,note_off,,,,,0,0,13,,,,,6,,67,100
88584,note_off,,,,,940,0,13,,,,,6,,61,100
88588,note_off,,,,,1036,0,11,,,,,4,,57,100
88588,note_off,,,,,1036,0,14,,,,,6,,57,100
88640,note_off,,,,,128,0,7,,,,,0,,79,100
88704,note_on,,,,,116,0,14,,,,,6,,50,100
88704,note_on,,,,,64,0,7,,,,,0,,78,97
88704,note_on,,,,,116,0,11,,,,,4,,50,75
88732,note_on,,,,,148,0,13,,,,,6,,62,100
88764,note_on,,,,,32,0,13,,,,,6,,66,100
88796,note_on,,,,,32,0,13,,,,,6,,69,100
88828,note_on,,,,,32,0,13,,,,,6,,72,100
88892,note_off,,,,,188,0,7,,,,,0,,78,100
88896,note_on,,,,,4,0,7,,,,,0,,75,99
89084,note_off,,,,,188,0,7,,,,,0,,75,100
89088,note_on,,,,,4,0,7,,,,,0,,74,97
89276,note_off,,,,,188,0,7,,,,,0,,74,100
89280,note_on,,,,,4,0,7,,,,,0,,72,96
89408,note_off,,,,,128,0,7,,,,,0,,72,100
89472,note_on,,,,,64,0,7,,,,,0,,66,94
89660,note_off,,,,,188,0,7,,,,,0,,66,100
89664,note_on,,,,,4,0,7,,,,,0,,72,93
89736,note_off,,,,,0,0,13,,,,,6,,72,100
89736,note_off,,,,,908,0,13,,,,,6,,62,100
89736,note_off,,,,,0,0,13,,,,,6,,66,100
89736,note_off,,,,,0,0,13,,,,,6,,69,100
89740,note_off,,,,,1036,0,11,,,,,4,,50,100
89740,note_off,,,,,1036,0,14,,,,,6,,50,100
89792,note_off,,,,,128,0,7,,,,,0,,72,100
89856,note_on,,,,,116,0,14,,,,,6,,55,100
89856,note_on,,,,,116,0,11,,,,,4,,55,75
89856,note_on,,,,,64,0,7,,,,,0,,71,92
89884,note_on,,,,,148,0,13,,,,,6,,59,100
89916,note_on,,,,,32,0,13,,,,,6,,62,100
89948,note_on,,,,,32,0,13,,,,,6,,65,100
90044,note_off,,,,,188,0,7,,,,,0,,71,100
90048,note_on,,,,,4,0,7,,,,,0,,80,92
90236,note_off,,,,,188,0,7,,,,,0,,80,100
90240,note_on,,,,,4,0,7,,,,,0,,79,93
90428,note_off,,,,,188,0,7,,,,,0,,79,100
90432,note_on,,,,,4,0,7,,,,,0,,77,94
90560,note_off,,,,,128,0,7,,,,,0,,77,100
90624,note_on,,,,,64,0,7,,,,,0,,71,95
90812,note_off,,,,,188,0,7,,,,,0,,71,100
90816,note_on,,,,,4,0,7,,,,,0,,77,96
90888,note_off,,,,,940,0,13,,,,,6,,59,100
90888,note_off,,,,,0,0,13,,,,,6,,65,100
90888,note_off,,,,,0,0,13,,,,,6,,62,100
90892,note_off,,,,,1036,0,14,,,,,6,,55,100
90892,note_off,,,,,1036,0,11,,,,,4,,55,100
90944,note_off,,,,,128,0,7,,,,,0,,77,100
91008,note_on,,,,,116,0,11,,,,,4,,48,75
91008,note_on,,,,,116,0,14,,,,,6,,48,100
91008,note_on,,,,,64,0,7,,,,,0,,76,98
91036,note_on,,,,,148,0,13,,,,,6,,60,100
91068,note_on,,,,,32,0,13,,,,,6,,64,100
91100,note_on,,,,,32,0,13,,,,,6,,67,100
91132,note_on,,,,,32,0,13,,,,,6,,70,100
91196,note_off,,,,,188,0,7,,,,,0,,76,100
91200,note_on,,,,,4,0,7,,,,,0,,74,97
91388,note_off,,,,,188,0,7,,,,,0,,74,100
91392,note_on,,,,,4,0,7,,,,,0,,72,96
91580,note_off,,,,,188,0,7,,,,,0,,72,100
91584,note_on,,,,,4,0,7,,,,,0,,70,95
91712,note_off,,,,,128,0,7,,,,,0,,70,100
91776,note_on,,,,,64,0,7,,,,,0,,64,93
91964,note_off,,,,,188,0,7,,,,,0,,64,100
91968,note_on,,,,,4,0,7,,,,,0,,70,92
92040,note_off,,,,,0,0,13,,,,,6,,70,100
92040,note_off,,,,,0,0,13,,,,,6,,67,100
92040,note_off,,,,,908,0,13,,,,,6,,60,100
92040,note_off,,,,,0,0,13,,,,,6,,64,100
92044,note_off,,,,,1036,0,14,,,,,6,,48,100
92044,note_off,,,,,1036,0,11,,,,,4,,48,100
92096,note_off,,,,,128,0,7,,,,,0,,70,100
92160,note_on,,,,,116,0,14,,,,,6,,53,100
92160,note_on,,,,,116,0,11,,,,,4,,53,75
92160,note_on,,,,,64,0,7,,,,,0,,69,91
92188,note_on,,,,,148,0,13,,,,,6,,65,100
92220,note_on,,,,,32,0,13,,,,,6,,69,100
92252,note_on,,,,,32,0,13,,,,,6,,72,100
92348,note_off,,,,,188,0,7,,,,,0,,69,100
92352,note_on,,,,,4,0,7,,,,,0,,79,96
92540,note_off,,,,,188,0,7,,,,,0,,79,100
92544,note_on,,,,,4,0,7,,,,,0,,77,95
92732,note_off,,,,,188,0,7,,,,,0,,77,100
92736,note_on,,,,,4,0,7,,,,,0,,76,94
92864,note_off,,,,,128,0,7,,,,,0,,76,100
92928,note_on,,,,,64,0,7,,,,,0,,74,93
93116,note_off,,,,,188,0,7,,,,,0,,74,100
93120,note_on,,,,,4,0,7,,,,,0,,73,92
93192,note_off,,,,,0,0,13,,,,,6,,69,100
93192,note_off,,,,,0,0,13,,,,,6,,72,100
93192,note_off,,,,,940,0,13,,,,,6,,65,100
93196,note_off,,,,,1036,0,11,,,,,4,,53,100
93196,note_off,,,,,1036,0,14,,,,,6,,53,100
93248,note_off,,,,,128,0,7,,,,,0,,73,100
93312,note_on,,,,,116,0,14,,,,,6,,46,100
93312,note_on,,,,,64,0,7,,,,,0,,74,91
93312,note_on,,,,,116,0,11,,,,,4,,46,75
93340,note_on,,,,,148,0,13,,,,,6,,64,100
93372,note_on,,,,,32,0,13,,,,,6,,67,100
93404,note_on,,,,,32,0,13,,,,,6,,70,100
93500,note_off,,,,,188,0,7,,,,,0,,74,100
93504,note_on,,,,,4,0,7,,,,,0,,82,98
93692,note_off,,,,,188,0,7,,,,,0,,82,100
93696,note_on,,,,,4,0,7,,,,,0,,81,97
93884,note_off,,,,,188,0,7,,,,,0,,81,100
93888,note_on,,,,,4,0,7,,,,,0,,79,96
94016,note_off,,,,,128,0,7,,,,,0,,79,100
94080,note_on,,,,,64,0,7,,,,,0,,78,95
94268,note_off,,,,,188,0,7,,,,,0,,78,100
94272,note_on,,,,,4,0,7,,,,,0,,76,94
94344,note_off,,,,,940,0,13,,,,,6,,64,100
94344,note_off,,,,,0,0,13,,,,,6,,67,100
94344,note_off,,,,,0,0,13,,,,,6,,70,100
94348,note_off,,,,,1036,0,14,,,,,6,,46,100
94348,note_off,,,,,1036,0,11,,,,,4,,46,100
94400,note_off,,,,,128,0,7,,,,,0,,76,100
94464,note_on,,,,,64,0,7,,,,,0,,78,93
94464,note_on,,,,,116,0,11,,,,,4,,45,75
94464,note_on,,,,,116,0,14,,,,,6,,45,100
94492,note_on,,,,,148,0,13,,,,,6,,66,100
94524,note_on,,,,,32,0,13,,,,,6,,69,100
94556,note_on,,,,,32,0,13,,,,,6,,72,100
94652,note_off,,,,,188,0,7,,,,,0,,78,100
94656,note_on,,,,,4,0,7,,,,,0,,84,100
94844,note_off,,,,,188,0,7,,,,,0,,84,100
94848,note_on,,,,,4,0,7,,,,,0,,83,99
95036,note_off,,,,,188,0,7,,,,,0,,83,100
95040,note_on,,,,,4,0,7,,,,,0,,81,98
95168,note_off,,,,,128,0,7,,,,,0,,81,100
95232,note_on,,,,,64,0,7,,,,,0,,80,97
95420,note_off,,,,,188,0,7,,,,,0,,80,100
95424,note_on,,,,,4,0,7,,,,,0,,78,96
95496,note_off,,,,,0,0,13,,,,,6,,72,100
95496,note_off,,,,,940,0,13,,,,,6,,66,100
95496,note_off,,,,,0,0,13,,,,,6,,69,100
95500,note_off,,,,,1036,0,11,,,,,4,,45,100
95500,note_off,,,,,1036,0,14,,,,,6,,45,100
95552,note_off,,,,,128,0,7,,,,,0,,78,100
95616,note_on,,,,,64,0,7,,,,,0,,80,95
95616,note_on,,,,,116,0,14,,,,,6,,52,100
95616,note_on,,,,,116,0,11,,,,,4,,52,75
95644,note_on,,,,,148,0,13,,,,,6,,64,100
95676,note_on,,,,,32,0,13,,,,,6,,68,100
95708,note_on,,,,,32,0,13,,,,,6,,71,100
95740,note_on,,,,,32,0,13,,,,,6,,74,100
95804,note_off,,,,,188,0,7,,,,,0,,80,100
95808,note_on,,,,,4,0,7,,,,,0,,81,97
95996,note_off,,,,,188,0,7,,,,,0,,81,100
96000,note_on,,,,,4,0,7,,,,,0,,83,100
96188,note_off,,,,,188,0,7,,,,,0,,83,100
96192,note_on,,,,,4,0,7,,,,,0,,77,100
96320,note_off,,,,,128,0,7,,,,,0,,77,100
96384,note_on,,,,,64,0,7,,,,,0,,80,96
96572,note_off,,,,,188,0,7,,,,,0,,80,100
96576,note_on,,,,,4,0,7,,,,,0,,74,91
96648,note_off,,,,,0,0,13,,,,,6,,71,100
96648,note_off,,,,,0,0,13,,,,,6,,68,100
96648,note_off,,,,,908,0,13,,,,,6,,64,100
96648,note_off,,,,,0,0,13,,,,,6,,74,100
96652,note_off,,,,,1036,0,11,,,,,4,,52,100
96652,note_off,,,,,1036,0,14,,,,,6,,52,100
96704,note_off,,,,,128,0,7,,,,,0,,74,100
96768,note_on,,,,,116,0,14,,,,,6,,52,100
96768,note_on,,,,,64,0,7,,,,,0,,80,85
96768,note_on,,,,,116,0,11,,,,,4,,52,75
96796,note_on,,,,,148,0,13,,,,,6,,64,100
96828,note_on,,,,,32,0,13,,,,,6,,68,100
96860,note_on,,,,,32,0,13,,,,,6,,71,100
96892,note_on,,,,,32,0,13,,,,,6,,74,100
96956,note_off,,,,,188,0,7,,,,,0,,80,100
96960,note_on,,,,,4,0,7,,,,,0,,81,80
97148,note_off,,,,,188,0,7,,,,,0,,81,100
97152,set_tempo,,,,,17664,1,0,,500000,,,,,,
97152,note_on,,,,,4,0,7,,,,,0,,83,84
97340,note_off,,,,,188,0,7,,,,,0,,83,100
97344,set_tempo,,,,,192,1,0,,504201,,,,,,
97344,note_on,,,,,4,0,7,,,,,0,,77,89
97472,note_off,,,,,128,0,7,,,,,0,,77,100
97536,set_tempo,,,,,192,1,0,,508474,,,,,,
97536,note_on,,,,,64,0,7,,,,,0,,80,94
97632,set_tempo,,,,,96,1,0,,512820,,,,,,
97724,note_off,,,,,188,0,7,,,,,0,,80,100
97728,set_tempo,,,,,96,1,0,,517241,,,,,,
97728,note_on,,,,,4,0,7,,,,,0,,74,99
97800,note_off,,,,,0,0,13,,,,,6,,74,100
97800,note_off,,,,,0,0,13,,,,,6,,68,100
97800,note_off,,,,,0,0,13,,,,,6,,71,100
97800,note_off,,,,,908,0,13,,,,,6,,64,100
97804,note_off,,,,,1036,0,11,,,,,4,,52,100
97804,note_off,,,,,1036,0,14,,,,,6,,52,100
97824,set_tempo,,,,,96,1,0,,521739,,,,,,
97856,note_off,,,,,128,0,7,,,,,0,,74,100
97916,program_change,,,,,112,0,11,,,,,4,48,,
97920,note_on,,,,,0,0,13,,,,,6,,69,100
97920,note_on,,,,,120,0,13,,,,,6,,60,100
97920,note_on,,,,,64,0,7,,,,,0,,72,104
97920,note_on,,,,,4,0,11,,,,,4,,57,100
97920,note_on,,,,,116,0,14,,,,,6,,57,100
97920,set_tempo,,,,,96,1,0,,526315,,,,,,
97920,note_on,,,,,0,0,15,,,,,7,,69,100
97920,note_on,,,,,10112,0,16,,,,,7,,57,100
97920,note_on,,,,,0,0,15,,,,,7,,72,100
97920,note_on,,,,,10112,0,15,,,,,7,,76,100
97920,note_on,,,,,10936,0,10,,,,,3,,64,100
97920,note_on,,,,,10112,0,12,,,,,5,,45,100
98020,note_off,,,,,100,0,12,,,,,5,,45,100
98020,note_off,,,,,0,0,13,,,,,6,,69,100
98020,note_off,,,,,100,0,13,,,,,6,,60,100
98020,note_off,,,,,100,0,16,,,,,7,,57,100
98020,note_off,,,,,100,0,11,,,,,4,,57,100
98020,note_off,,,,,100,0,14,,,,,6,,57,100
98048,note_off,,,,,128,0,7,,,,,0,,72,100
98112,note_on,,,,,11128,0,8,,,,,1,,76,105
98112,note_on,,,,,92,0,11,,,,,4,,45,105
98112,note_on,,,,,0,0,13,,,,,6,,62,100
98112,note_on,,,,,92,0,13,,,,,6,,69,100
98112,note_on,,,,,92,0,14,,,,,6,,45,100
98112,note_on,,,,,92,0,16,,,,,7,,45,100
98112,note_on,,,,,92,0,12,,,,,5,,33,105
98120,note_off,,,,,200,0,10,,,,,3,,64,100
98192,note_off,,,,,80,0,8,,,,,1,,76,100
98212,note_off,,,,,100,0,13,,,,,6,,69,100
98212,note_off,,,,,0,0,13,,,,,6,,62,100
98212,note_off,,,,,100,0,16,,,,,7,,45,100
98212,note_off,,,,,100,0,12,,,,,5,,33,100
98212,note_off,,,,,100,0,14,,,,,6,,45,100
98212,note_off,,,,,100,0,11,,,,,4,,45,100
98304,set_tempo,,,,,384,1,0,,500000,,,,,,
98304,note_on,,,,,92,0,11,,,,,4,,45,105
98304,note_on,,,,,92,0,12,,,,,5,,33,105
98304,note_on,,,,,92,0,16,,,,,7,,45,100
98304,note_on,,,,,184,0,10,,,,,3,,64,105
98304,note_on,,,,,112,0,8,,,,,1,,84,105
98304,note_on,,,,,0,0,13,,,,,6,,64,100
98304,note_on,,,,,92,0,13,,,,,6,,69,100
98304,note_on,,,,,92,0,14,,,,,6,,45,100
98384,note_off,,,,,80,0,8,,,,,1,,84,100
98404,note_off,,,,,100,0,14,,,,,6,,45,100
98404,note_off,,,,,0,0,13,,,,,6,,64,100
98404,note_off,,,,,100,0,13,,,,,6,,69,100
98404,note_off,,,,,100,0,16,,,,,7,,45,100
98404,note_off,,,,,100,0,11,,,,,4,,45,100
98404,note_off,,,,,100,0,12,,,,,5,,33,100
98496,note_on,,,,,92,0,11,,,,,4,,57,105
98496,note_on,,,,,92,0,13,,,,,6,,69,100
98496,note_on,,,,,0,0,13,,,,,6,,60,100
98496,note_on,,,,,112,0,8,,,,,1,,76,105
98496,note_on,,,,,92,0,16,,,,,7,,57,100
98496,note_on,,,,,92,0,12,,,,,5,,45,105
98496,note_on,,,,,92,0,14,,,,,6,,57,100
98504,note_off,,,,,200,0,10,,,,,3,,64,100
98576,note_off,,,,,80,0,8,,,,,1,,76,100
98596,note_off,,,,,100,0,12,,,,,5,,45,100
98596,note_off,,,,,100,0,11,,,,,4,,57,100
98596,note_off,,,,,100,0,14,,,,,6,,57,100
98596,note_off,,,,,0,0,13,,,,,6,,60,100
98596,note_off,,,,,100,0,13,,,,,6,,69,100
98596,note_off,,,,,100,0,16,,,,,7,,57,100
98688,note_on,,,,,92,0,16,,,,,7,,59,100
98688,note_on,,,,,92,0,13,,,,,6,,71,100
98688,note_on,,,,,92,0,14,,,,,6,,59,100
98688,note_on,,,,,112,0,8,,,,,1,,84,105
98688,note_on,,,,,92,0,11,,,,,4,,59,105
98688,note_on,,,,,92,0,12,,,,,5,,47,105
98688,note_on,,,,,0,0,13,,,,,6,,62,100
98768,note_off,,,,,80,0,8,,,,,1,,84,100
98788,note_off,,,,,100,0,13,,,,,6,,71,100
98788,note_off,,,,,0,0,13,,,,,6,,62,100
98788,note_off,,,,,100,0,14,,,,,6,,59,100
98788,note_off,,,,,100,0,11,,,,,4,,59,100
98788,note_off,,,,,100,0,12,,,,,5,,47,100
98788,note_off,,,,,100,0,16,,,,,7,,59,100
98880,note_on,,,,,92,0,12,,,,,5,,48,105
98880,note_on,,,,,92,0,14,,,,,6,,60,100
98880,note_on,,,,,112,0,8,,,,,1,,76,105
98880,note_on,,,,,92,0,13,,,,,6,,72,100
98880,note_on,,,,,0,0,13,,,,,6,,64,100
98880,note_on,,,,,92,0,16,,,,,7,,60,100
98880,note_on,,,,,92,0,11,,,,,4,,60,105
98956,note_off,,,,,1036,0,15,,,,,7,,76,100
98956,note_off,,,,,0,0,15,,,,,7,,72,100
98956,note_off,,,,,0,0,15,,,,,7,,69,100
98960,note_off,,,,,80,0,8,,,,,1,,76,100
98976,note_on,,,,,472,0,10,,,,,3,,64,105
98980,note_off,,,,,0,0,13,,,,,6,,64,100
98980,note_off,,,,,100,0,13,,,,,6,,72,100
98980,note_off,,,,,100,0,12,,,,,5,,48,100
98980,note_off,,,,,100,0,14,,,,,6,,60,100
98980,note_off,,,,,100,0,11,,,,,4,,60,100
98980,note_off,,,,,100,0,16,,,,,7,,60,100
99040,note_off,,,,,64,0,10,,,,,3,,64,100
99072,note_on,,,,,0,0,15,,,,,7,,69,100
99072,note_on,,,,,92,0,16,,,,,7,,62,100
99072,note_on,,,,,92,0,11,,,,,4,,62,105
99072,note_on,,,,,112,0,8,,,,,1,,84,105
99072,note_on,,,,,92,0,14,,,,,6,,62,100
99072,note_on,,,,,12088,0,9,,,,,2,,77,105
99072,note_on,,,,,116,0,15,,,,,7,,77,100
99072,note_on,,,,,0,0,13,,,,,6,,72,100
99072,note_on,,,,,92,0,13,,,,,6,,65,100
99072,note_on,,,,,92,0,12,,,,,5,,50,105
99072,note_on,,,,,32,0,10,,,,,3,,69,105
99072,note_on,,,,,0,0,15,,,,,7,,72,100
99136,note_off,,,,,64,0,8,,,,,1,,84,100
99152,note_off,,,,,80,0,9,,,,,2,,77,100
99168,note_on,,,,,32,0,8,,,,,1,,86,105
99172,note_off,,,,,100,0,11,,,,,4,,62,100
99172,note_off,,,,,100,0,14,,,,,6,,62,100
99172,note_off,,,,,100,0,12,,,,,5,,50,100
99172,note_off,,,,,100,0,16,,,,,7,,62,100
99172,note_off,,,,,0,0,13,,,,,6,,72,100
99172,note_off,,,,,100,0,13,,,,,6,,65,100
99232,note_off,,,,,64,0,8,,,,,1,,86,100
99264,note_on,,,,,32,0,8,,,,,1,,84,105
99264,note_on,,,,,92,0,11,,,,,4,,50,105
99264,note_on,,,,,92,0,12,,,,,5,,38,105
99264,note_on,,,,,112,0,9,,,,,2,,69,105
99264,note_on,,,,,92,0,16,,,,,7,,50,100
99264,note_on,,,,,92,0,14,,,,,6,,50,100
99264,note_on,,,,,0,0,13,,,,,6,,72,100
99264,note_on,,,,,92,0,13,,,,,6,,69,100
99272,note_off,,,,,200,0,10,,,,,3,,69,100
99328,note_off,,,,,64,0,8,,,,,1,,84,100
99344,note_off,,,,,80,0,9,,,,,2,,69,100
99360,note_on,,,,,32,0,8,,,,,1,,86,105
99364,note_off,,,,,100,0,12,,,,,5,,38,100
99364,note_off,,,,,100,0,14,,,,,6,,50,100
99364,note_off,,,,,100,0,13,,,,,6,,69,100
99364,note_off,,,,,0,0,13,,,,,6,,72,100
99364,note_off,,,,,100,0,11,,,,,4,,50,100
99364,note_off,,,,,100,0,16,,,,,7,,50,100
99424,note_off,,,,,64,0,8,,,,,1,,86,100
99456,note_on,,,,,32,0,8,,,,,1,,84,105
99456,note_on,,,,,92,0,12,,,,,5,,38,105
99456,note_on,,,,,92,0,11,,,,,4,,50,105
99456,note_on,,,,,112,0,9,,,,,2,,77,105
99456,note_on,,,,,92,0,16,,,,,7,,50,100
99456,note_on,,,,,92,0,14,,,,,6,,50,100
99456,note_on,,,,,184,0,10,,,,,3,,69,105
99456,note_on,,,,,92,0,13,,,,,6,,72,100
99456,note_on,,,,,0,0,13,,,,,6,,69,100
99520,note_off,,,,,64,0,8,,,,,1,,84,100
99536,note_off,,,,,80,0,9,,,,,2,,77,100
99552,note_on,,,,,32,0,8,,,,,1,,86,105
99556,note_off,,,,,100,0,11,,,,,4,,50,100
99556,note_off,,,,,100,0,12,,,,,5,,38,100
99556,note_off,,,,,100,0,16,,,,,7,,50,100
99556,note_off,,,,,100,0,14,,,,,6,,50,100
99556,note_off,,,,,100,0,13,,,,,6,,72,100
99556,note_off,,,,,0,0,13,,,,,6,,69,100
99616,note_off,,,,,64,0,8,,,,,1,,86,100
99648,note_on,,,,,92,0,13,,,,,6,,69,100
99648,note_on,,,,,92,0,16,,,,,7,,50,100
99648,note_on,,,,,112,0,9,,,,,2,,69,105
99648,note_on,,,,,92,0,14,,,,,6,,50,100
99648,note_on,,,,,0,0,13,,,,,6,,65,100
99648,note_on,,,,,92,0,12,,,,,5,,38,105
99648,note_on,,,,,92,0,11,,,,,4,,50,105
99648,note_on,,,,,32,0,8,,,,,1,,84,105
99656,note_off,,,,,200,0,10,,,,,3,,69,100
99712,note_off,,,,,64,0,8,,,,,1,,84,100
99728,note_off,,,,,80,0,9,,,,,2,,69,100
99744,note_on,,,,,32,0,8,,,,,1,,86,105
99748,note_off,,,,,0,0,13,,,,,6,,65,100
99748,note_off,,,,,100,0,13,,,,,6,,69,100
99748,note_off,,,,,100,0,14,,,,,6,,50,100
99748,note_off,,,,,100,0,11,,,,,4,,50,100
99748,note_off,,,,,100,0,16,,,,,7,,50,100
99748,note_off,,,,,100,0,12,,,,,5,,38,100
99808,note_off,,,,,64,0,8,,,,,1,,86,100
99840,note_on,,,,,92,0,14,,,,,6,,52,100
99840,note_on,,,,,92,0,12,,,,,5,,40,105
99840,note_on,,,,,92,0,16,,,,,7,,52,100
99840,note_on,,,,,92,0,11,,,,,4,,52,105
99840,note_on,,,,,112,0,9,,,,,2,,77,105
99840,note_on,,,,,0,0,13,,,,,6,,67,100
99840,note_on,,,,,92,0,13,,,,,6,,64,100
99840,note_on,,,,,32,0,8,,,,,1,,84,105
99904,note_off,,,,,64,0,8,,,,,1,,84,100
99920,note_off,,,,,80,0,9,,,,,2,,77,100
99936,note_on,,,,,32,0,8,,,,,1,,86,105
99940,note_off,,,,,100,0,13,,,,,6,,64,100
99940,note_off,,,,,0,0,13,,,,,6,,67,100
99940,note_off,,,,,100,0,11,,,,,4,,52,100
99940,note_off,,,,,100,0,16,,,,,7,,52,100
99940,note_off,,,,,100,0,12,,,,,5,,40,100
99940,note_off,,,,,100,0,14,,,,,6,,52,100
100000,note_off,,,,,64,0,8,,,,,1,,86,100
100032,note_on,,,,,112,0,9,,,,,2,,69,105
100032,note_on,,,,,92,0,11,,,,,4,,53,105
100032,note_on,,,,,92,0,12,,,,,5,,41,105
100032,note_on,,,,,32,0,8,,,,,1,,84,105
100032,note_on,,,,,92,0,16,,,,,7,,53,100
100032,note_on,,,,,92,0,14,,,,,6,,53,100
100032,note_on,,,,,92,0,13,,,,,6,,65,100
100032,note_on,,,,,0,0,13,,,,,6,,69,100
100096,note_off,,,,,64,0,8,,,,,1,,84,100
100108,note_off,,,,,1036,0,15,,,,,7,,77,100
100108,note_off,,,,,0,0,15,,,,,7,,72,100
100108,note_off,,,,,0,0,15,,,,,7,,69,100
100112,note_off,,,,,80,0,9,,,,,2,,69,100
100128,note_on,,,,,472,0,10,,,,,3,,69,105
100128,note_on,,,,,32,0,8,,,,,1,,86,105
100132,note_off,,,,,100,0,14,,,,,6,,53,100
100132,note_off,,,,,100,0,11,,,,,4,,53,100
100132,note_off,,,,,100,0,16,,,,,7,,53,100
100132,note_off,,,,,100,0,12,,,,,5,,41,100
100132,note_off,,,,,100,0,13,,,,,6,,65,100
100132,note_off,,,,,0,0,13,,,,,6,,69,100
100192,note_off,,,,,64,0,10,,,,,3,,69,100
100192,note_off,,,,,64,0,8,,,,,1,,86,100
100224,note_on,,,,,92,0,14,,,,,6,,55,100
100224,note_on,,,,,92,0,11,,,,,4,,55,105
100224,note_on,,,,,92,0,16,,,,,7,,55,100
100224,note_on,,,,,116,0,15,,,,,7,,77,100
100224,note_on,,,,,112,0,9,,,,,2,,77,105
100224,note_on,,,,,32,0,10,,,,,3,,62,105
100224,note_on,,,,,0,0,15,,,,,7,,74,100
100224,note_on,,,,,0,0,13,,,,,6,,71,100
100224,note_on,,,,,0,0,15,,,,,7,,71,100
100224,note_on,,,,,92,0,12,,,,,5,,43,105
100224,note_on,,,,,92,0,13,,,,,6,,62,100
100224,note_on,,,,,32,0,8,,,,,1,,83,105
100288,note_off,,,,,64,0,9,,,,,2,,77,100
100304,note_off,,,,,80,0,8,,,,,1,,83,100
100320,note_on,,,,,32,0,9,,,,,2,,79,105
100324,note_off,,,,,100,0,16,,,,,7,,55,100
100324,note_off,,,,,100,0,14,,,,,6,,55,100
100324,note_off,,,,,100,0,13,,,,,6,,62,100
100324,note_off,,,,,100,0,12,,,,,5,,43,100
100324,note_off,,,,,0,0,13,,,,,6,,71,100
100324,note_off,,,,,100,0,11,,,,,4,,55,100
100384,note_off,,,,,64,0,9,,,,,2,,79,100
100416,note_on,,,,,112,0,8,,,,,1,,74,105
100416,note_on,,,,,32,0,9,,,,,2,,77,105
100416,note_on,,,,,92,0,14,,,,,6,,43,100
100416,note_on,,,,,92,0,11,,,,,4,,43,105
100416,note_on,,,,,92,0,16,,,,,7,,43,100
100416,note_on,,,,,0,0,13,,,,,6,,71,100
100416,note_on,,,,,92,0,13,,,,,6,,65,100
100416,note_on,,,,,92,0,12,,,,,5,,31,105
100424,note_off,,,,,200,0,10,,,,,3,,62,100
100480,note_off,,,,,64,0,9,,,,,2,,77,100
100496,note_off,,,,,80,0,8,,,,,1,,74,100
100512,note_on,,,,,32,0,9,,,,,2,,79,105
100516,note_off,,,,,100,0,11,,,,,4,,43,100
100516,note_off,,,,,100,0,16,,,,,7,,43,100
100516,note_off,,,,,0,0,13,,,,,6,,71,100
100516,note_off,,,,,100,0,14,,,,,6,,43,100
100516,note_off,,,,,100,0,13,,,,,6,,65,100
100516,note_off,,,,,100,0,12,,,,,5,,31,100
100576,note_off,,,,,64,0,9,,,,,2,,79,100
100608,note_on,,,,,92,0,14,,,,,6,,43,100
100608,note_on,,,,,112,0,8,,,,,1,,83,105
100608,note_on,,,,,32,0,9,,,,,2,,77,105
100608,note_on,,,,,92,0,12,,,,,5,,31,105
100608,note_on,,,,,92,0,11,,,,,4,,43,105
100608,note_on,,,,,92,0,13,,,,,6,,71,100
100608,note_on,,,,,0,0,13,,,,,6,,65,100
100608,note_on,,,,,184,0,10,,,,,3,,62,105
100608,note_on,,,,,92,0,16,,,,,7,,43,100
100672,note_off,,,,,64,0,9,,,,,2,,77,100
100688,note_off,,,,,80,0,8,,,,,1,,83,100
100704,note_on,,,,,32,0,9,,,,,2,,79,105
100708,note_off,,,,,0,0,13,,,,,6,,65,100
100708,note_off,,,,,100,0,16,,,,,7,,43,100
100708,note_off,,,,,100,0,12,,,,,5,,31,100
100708,note_off,,,,,100,0,11,,,,,4,,43,100
100708,note_off,,,,,100,0,14,,,,,6,,43,100
100708,note_off,,,,,100,0,13,,,,,6,,71,100
100768,note_off,,,,,64,0,9,,,,,2,,79,100
100800,note_on,,,,,92,0,16,,,,,7,,55,100
100800,note_on,,,,,92,0,12,,,,,5,,43,105
100800,note_on,,,,,32,0,9,,,,,2,,77,105
100800,note_on,,,,,92,0,11,,,,,4,,55,105
100800,note_on,,,,,92,0,13,,,,,6,,71,100
100800,note_on,,,,,112,0,8,,,,,1,,74,105
100800,note_on,,,,,92,0,14,,,,,6,,55,100
100800,note_on,,,,,0,0,13,,,,,6,,67,100
100808,note_off,,,,,200,0,10,,,,,3,,62,100
100864,note_off,,,,,64,0,9,,,,,2,,77,100
100880,note_off,,,,,80,0,8,,,,,1,,74,100
100896,note_on,,,,,32,0,9,,,,,2,,79,105
100900,note_off,,,,,100,0,16,,,,,7,,55,100
100900,note_off,,,,,100,0,14,,,,,6,,55,100
100900,note_off,,,,,0,0,13,,,,,6,,67,100
100900,note_off,,,,,100,0,13,,,,,6,,71,100
100900,note_off,,,,,100,0,11,,,,,4,,55,100
100900,note_off,,,,,100,0,12,,,,,5,,43,100
100960,note_off,,,,,64,0,9,,,,,2,,79,100
100992,note_on,,,,,92,0,11,,,,,4,,57,105
100992,note_on,,,,,92,0,14,,,,,6,,57,100
100992,note_on,,,,,112,0,8,,,,,1,,83,105
100992,note_on,,,,,92,0,13,,,,,6,,69,100
100992,note_on,,,,,32,0,9,,,,,2,,77,105
100992,note_on,,,,,92,0,16,,,,,7,,57,100
100992,note_on,,,,,0,0,13,,,,,6,,65,100
100992,note_on,,,,,92,0,12,,,,,5,,45,105
101056,note_off,,,,,64,0,9,,,,,2,,77,100
101072,note_off,,,,,80,0,8,,,,,1,,83,100
101088,note_on,,,,,32,0,9,,,,,2,,79,105
101092,note_off,,,,,100,0,13,,,,,6,,69,100
101092,note_off,,,,,0,0,13,,,,,6,,65,100
101092,note_off,,,,,100,0,12,,,,,5,,45,100
101092,note_off,,,,,100,0,16,,,,,7,,57,100
101092,note_off,,,,,100,0,14,,,,,6,,57,100
101092,note_off,,,,,100,0,11,,,,,4,,57,100
101152,note_off,,,,,64,0,9,,,,,2,,79,100
101184,note_on,,,,,92,0,14,,,,,6,,59,100
101184,note_on,,,,,92,0,13,,,,,6,,71,100
101184,note_on,,,,,92,0,11,,,,,4,,59,105
101184,note_on,,,,,32,0,9,,,,,2,,77,105
101184,note_on,,,,,92,0,16,,,,,7,,59,100
101184,note_on,,,,,112,0,8,,,,,1,,74,105
101184,note_on,,,,,0,0,13,,,,,6,,67,100
101184,note_on,,,,,92,0,12,,,,,5,,47,105
101248,note_off,,,,,64,0,9,,,,,2,,77,100
101260,note_off,,,,,0,0,15,,,,,7,,74,100
101260,note_off,,,,,0,0,15,,,,,7,,71,100
101260,note_off,,,,,1036,0,15,,,,,7,,77,100
101264,note_off,,,,,80,0,8,,,,,1,,74,100
101280,note_on,,,,,32,0,9,,,,,2,,79,105
101280,note_on,,,,,472,0,10,,,,,3,,62,105
101284,note_off,,,,,100,0,14,,,,,6,,59,100
101284,note_off,,,,,100,0,16,,,,,7,,59,100
101284,note_off,,,,,100,0,13,,,,,6,,71,100
101284,note_off,,,,,0,0,13,,,,,6,,67,100
101284,note_off,,,,,100,0,12,,,,,5,,47,100
101284,note_off,,,,,100,0,11,,,,,4,,59,100
101344,note_off,,,,,64,0,10,,,,,3,,62,100
101344,note_off,,,,,64,0,9,,,,,2,,79,100
101376,note_on,,,,,92,0,13,,,,,6,,64,100
101376,note_on,,,,,116,0,15,,,,,7,,76,100
101376,note_on,,,,,0,0,13,,,,,6,,71,100
101376,note_on,,,,,0,0,15,,,,,7,,71,100
101376,note_on,,,,,0,0,15,,,,,7,,67,100
101376,note_on,,,,,92,0,12,,,,,5,,48,105
101376,note_on,,,,,32,0,9,,,,,2,,76,105
101376,note_on,,,,,92,0,11,,,,,4,,60,105
101376,note_on,,,,,92,0,16,,,,,7,,60,100
101376,note_on,,,,,32,0,10,,,,,3,,67,105
101376,note_on,,,,,112,0,8,,,,,1,,83,105
101376,note_on,,,,,92,0,14,,,,,6,,60,100
101440,note_off,,,,,64,0,8,,,,,1,,83,100
101456,note_off,,,,,80,0,9,,,,,2,,76,100
101472,note_on,,,,,32,0,8,,,,,1,,84,105
101476,note_off,,,,,100,0,13,,,,,6,,64,100
101476,note_off,,,,,0,0,13,,,,,6,,71,100
101476,note_off,,,,,100,0,16,,,,,7,,60,100
101476,note_off,,,,,100,0,11,,,,,4,,60,100
101476,note_off,,,,,100,0,12,,,,,5,,48,100
101476,note_off,,,,,100,0,14,,,,,6,,60,100
101536,note_off,,,,,64,0,8,,,,,1,,84,100
101568,note_on,,,,,92,0,14,,,,,6,,48,100
101568,note_on,,,,,92,0,13,,,,,6,,67,100
101568,note_on,,,,,92,0,12,,,,,5,,36,105
101568,note_on,,,,,112,0,9,,,,,2,,67,105
101568,note_on,,,,,92,0,11,,,,,4,,48,105
101568,note_on,,,,,0,0,13,,,,,6,,71,100
101568,note_on,,,,,32,0,8,,,,,1,,83,105
101568,note_on,,,,,92,0,16,,,,,7,,48,100
101576,note_off,,,,,200,0,10,,,,,3,,67,100
101632,note_off,,,,,64,0,8,,,,,1,,83,100
101648,note_off,,,,,80,0,9,,,,,2,,67,100
101664,note_on,,,,,32,0,8,,,,,1,,84,104
101668,note_off,,,,,100,0,12,,,,,5,,36,100
101668,note_off,,,,,100,0,16,,,,,7,,48,100
101668,note_off,,,,,100,0,13,,,,,6,,67,100
101668,note_off,,,,,100,0,11,,,,,4,,48,100
101668,note_off,,,,,0,0,13,,,,,6,,71,100
101668,note_off,,,,,100,0,14,,,,,6,,48,100
101728,note_off,,,,,64,0,8,,,,,1,,84,100
101760,note_on,,,,,92,0,14,,,,,6,,48,100
101760,note_on,,,,,32,0,8,,,,,1,,83,104
101760,note_on,,,,,184,0,10,,,,,3,,67,104
101760,note_on,,,,,112,0,9,,,,,2,,76,104
101760,note_on,,,,,92,0,11,,,,,4,,48,104
101760,note_on,,,,,92,0,16,,,,,7,,48,100
101760,note_on,,,,,92,0,13,,,,,6,,67,100
101760,note_on,,,,,92,0,12,,,,,5,,36,104
101760,note_on,,,,,0,0,13,,,,,6,,71,100
101824,note_off,,,,,64,0,8,,,,,1,,83,100
101840,note_off,,,,,80,0,9,,,,,2,,76,100
101856,note_on,,,,,32,0,8,,,,,1,,84,103
101860,note_off,,,,,0,0,13,,,,,6,,71,100
101860,note_off,,,,,100,0,13,,,,,6,,67,100
101860,note_off,,,,,100,0,16,,,,,7,,48,100
101860,note_off,,,,,100,0,14,,,,,6,,48,100
101860,note_off,,,,,100,0,11,,,,,4,,48,100
101860,note_off,,,,,100,0,12,,,,,5,,36,100
101920,note_off,,,,,64,0,8,,,,,1,,84,100
101952,note_on,,,,,92,0,12,,,,,5,,36,103
101952,note_on,,,,,0,0,13,,,,,6,,64,100
101952,note_on,,,,,92,0,16,,,,,7,,48,100
101952,note_on,,,,,92,0,13,,,,,6,,67,100
101952,note_on,,,,,92,0,14,,,,,6,,48,100
101952,note_on,,,,,32,0,8,,,,,1,,83,103
101952,note_on,,,,,112,0,9,,,,,2,,67,103
101952,note_on,,,,,92,0,11,,,,,4,,48,103
101960,note_off,,,,,200,0,10,,,,,3,,67,100
102016,note_off,,,,,64,0,8,,,,,1,,83,100
102032,note_off,,,,,80,0,9,,,,,2,,67,100
102048,note_on,,,,,32,0,8,,,,,1,,84,103
102052,note_off,,,,,100,0,12,,,,,5,,36,100
102052,note_off,,,,,100,0,16,,,,,7,,48,100
102052,note_off,,,,,100,0,14,,,,,6,,48,100
102052,note_off,,,,,100,0,11,,,,,4,,48,100
102052,note_off,,,,,100,0,13,,,,,6,,67,100
102052,note_off,,,,,0,0,13,,,,,6,,64,100
102112,note_off,,,,,64,0,8,,,,,1,,84,100
102144,note_on,,,,,92,0,16,,,,,7,,50,100
102144,note_on,,,,,92,0,11,,,,,4,,50,102
102144,note_on,,,,,32,0,8,,,,,1,,83,102
102144,note_on,,,,,0,0,13,,,,,6,,62,100
102144,note_on,,,,,92,0,13,,,,,6,,65,100
102144,note_on,,,,,112,0,9,,,,,2,,76,102
102144,note_on,,,,,92,0,14,,,,,6,,50,100
102144,note_on,,,,,92,0,12,,,,,5,,38,102
102208,note_off,,,,,64,0,8,,,,,1,,83,100
102224,note_off,,,,,80,0,9,,,,,2,,76,100
102240,note_on,,,,,32,0,8,,,,,1,,84,102
102244,note_off,,,,,100,0,11,,,,,4,,50,100
102244,note_off,,,,,100,0,13,,,,,6,,65,100
102244,note_off,,,,,100,0,16,,,,,7,,50,100
102244,note_off,,,,,100,0,14,,,,,6,,50,100
102244,note_off,,,,,0,0,13,,,,,6,,62,100
102244,note_off,,,,,100,0,12,,,,,5,,38,100
102304,note_off,,,,,64,0,8,,,,,1,,84,100
102336,note_on,,,,,92,0,12,,,,,5,,40,101
102336,note_on,,,,,112,0,9,,,,,2,,67,101
102336,note_on,,,,,92,0,13,,,,,6,,67,100
102336,note_on,,,,,92,0,16,,,,,7,,52,100
102336,note_on,,,,,92,0,14,,,,,6,,52,100
102336,note_on,,,,,0,0,13,,,,,6,,64,100
102336,note_on,,,,,92,0,11,,,,,4,,52,101
102336,note_on,,,,,32,0,8,,,,,1,,83,101
102400,note_off,,,,,64,0,8,,,,,1,,83,100
102412,note_off,,,,,1036,0,15,,,,,7,,76,100
102412,note_off,,,,,0,0,15,,,,,7,,71,100
102412,note_off,,,,,0,0,15,,,,,7,,67,100
102416,note_off,,,,,80,0,9,,,,,2,,67,100
102432,note_on,,,,,472,0,10,,,,,3,,67,101
102432,note_on,,,,,32,0,8,,,,,1,,84,101
102436,note_off,,,,,100,0,14,,,,,6,,52,100
102436,note_off,,,,,100,0,16,,,,,7,,52,100
102436,note_off,,,,,100,0,11,,,,,4,,52,100
102436,note_off,,,,,100,0,12,,,,,5,,40,100
102436,note_off,,,,,0,0,13,,,,,6,,64,100
102436,note_off,,,,,100,0,13,,,,,6,,67,100
102496,note_off,,,,,64,0,8,,,,,1,,84,100
102496,note_off,,,,,64,0,10,,,,,3,,67,100
102528,note_on,,,,,92,0,14,,,,,6,,53,100
102528,note_on,,,,,92,0,12,,,,,5,,41,101
102528,note_on,,,,,0,0,15,,,,,7,,72,100
102528,note_on,,,,,112,0,9,,,,,2,,76,101
102528,note_on,,,,,0,0,15,,,,,7,,69,100
102528,note_on,,,,,116,0,15,,,,,7,,76,100
102528,note_on,,,,,32,0,8,,,,,1,,81,101
102528,note_on,,,,,32,0,10,,,,,3,,60,101
102528,note_on,,,,,0,0,13,,,,,6,,69,100
102528,note_on,,,,,92,0,13,,,,,6,,60,100
102528,note_on,,,,,92,0,16,,,,,7,,53,100
102528,note_on,,,,,92,0,11,,,,,4,,53,101
102592,note_off,,,,,64,0,9,,,,,2,,76,100
102608,note_off,,,,,80,0,8,,,,,1,,81,100
102624,note_on,,,,,32,0,9,,,,,2,,77,100
102628,note_off,,,,,100,0,14,,,,,6,,53,100
102628,note_off,,,,,100,0,13,,,,,6,,60,100
102628,note_off,,,,,100,0,11,,,,,4,,53,100
102628,note_off,,,,,100,0,16,,,,,7,,53,100
102628,note_off,,,,,100,0,12,,,,,5,,41,100
102628,note_off,,,,,0,0,13,,,,,6,,69,100
102688,note_off,,,,,64,0,9,,,,,2,,77,100
102720,note_on,,,,,92,0,11,,,,,4,,41,100
102720,note_on,,,,,0,0,13,,,,,6,,69,100
102720,note_on,,,,,92,0,12,,,,,5,,41,100
102720,note_on,,,,,92,0,16,,,,,7,,41,100
102720,note_on,,,,,32,0,9,,,,,2,,76,100
102720,note_on,,,,,92,0,14,,,,,6,,41,100
102720,note_on,,,,,112,0,8,,,,,1,,72,100
102720,note_on,,,,,92,0,13,,,,,6,,64,100
102728,note_off,,,,,200,0,10,,,,,3,,60,100
102784,note_off,,,,,64,0,9,,,,,2,,76,100
102800,note_off,,,,,80,0,8,,,,,1,,72,100
102816,note_on,,,,,32,0,9,,,,,2,,77,99
102820,note_off,,,,,0,0,13,,,,,6,,69,100
102820,note_off,,,,,100,0,13,,,,,6,,64,100
102820,note_off,,,,,100,0,12,,,,,5,,41,100
102820,note_off,,,,,100,0,16,,,,,7,,41,100
102820,note_off,,,,,100,0,11,,,,,4,,41,100
102820,note_off,,,,,100,0,14,,,,,6,,41,100
102880,note_off,,,,,64,0,9,,,,,2,,77,100
102912,note_on,,,,,184,0,10,,,,,3,,60,99
102912,note_on,,,,,92,0,11,,,,,4,,41,99
102912,note_on,,,,,112,0,8,,,,,1,,81,99
102912,note_on,,,,,92,0,16,,,,,7,,41,100
102912,note_on,,,,,0,0,13,,,,,6,,69,100
102912,note_on,,,,,92,0,14,,,,,6,,41,100
102912,note_on,,,,,32,0,9,,,,,2,,76,99
102912,note_on,,,,,92,0,13,,,,,6,,64,100
102912,note_on,,,,,92,0,12,,,,,5,,41,99
102976,note_off,,,,,64,0,9,,,,,2,,76,100
102992,note_off,,,,,80,0,8,,,,,1,,81,100
103008,note_on,,,,,32,0,9,,,,,2,,77,98
103012,note_off,,,,,100,0,12,,,,,5,,41,100
103012,note_off,,,,,100,0,11,,,,,4,,41,100
103012,note_off,,,,,0,0,13,,,,,6,,69,100
103012,note_off,,,,,100,0,13,,,,,6,,64,100
103012,note_off,,,,,100,0,14,,,,,6,,41,100
103012,note_off,,,,,100,0,16,,,,,7,,41,100
103072,note_off,,,,,64,0,9,,,,,2,,77,100
103104,note_on,,,,,92,0,13,,,,,6,,69,100
103104,note_on,,,,,0,0,13,,,,,6,,65,100
103104,note_on,,,,,92,0,16,,,,,7,,53,100
103104,note_on,,,,,92,0,12,,,,,5,,41,98
103104,note_on,,,,,92,0,11,,,,,4,,53,98
103104,note_on,,,,,112,0,8,,,,,1,,72,98
103104,note_on,,,,,92,0,14,,,,,6,,53,100
103104,note_on,,,,,32,0,9,,,,,2,,76,98
103112,note_off,,,,,200,0,10,,,,,3,,60,100
103168,note_off,,,,,64,0,9,,,,,2,,76,100
103184,note_off,,,,,80,0,8,,,,,1,,72,100
103200,note_on,,,,,32,0,9,,,,,2,,77,98
103204,note_off,,,,,100,0,13,,,,,6,,69,100
103204,note_off,,,,,0,0,13,,,,,6,,65,100
103204,note_off,,,,,100,0,14,,,,,6,,53,100
103204,note_off,,,,,100,0,16,,,,,7,,53,100
103204,note_off,,,,,100,0,12,,,,,5,,41,100
103204,note_off,,,,,100,0,11,,,,,4,,53,100
103264,note_off,,,,,64,0,9,,,,,2,,77,100
103296,note_on,,,,,0,0,13,,,,,6,,67,100
103296,note_on,,,,,92,0,14,,,,,6,,55,100
103296,note_on,,,,,92,0,16,,,,,7,,55,100
103296,note_on,,,,,92,0,13,,,,,6,,64,100
103296,note_on,,,,,32,0,9,,,,,2,,76,97
103296,note_on,,,,,92,0,11,,,,,4,,55,97
103296,note_on,,,,,112,0,8,,,,,1,,81,97
103296,note_on,,,,,92,0,12,,,,,5,,43,97
103360,note_off,,,,,64,0,9,,,,,2,,76,100
103376,note_off,,,,,80,0,8,,,,,1,,81,100
103392,note_on,,,,,32,0,9,,,,,2,,77,97
103396,note_off,,,,,100,0,12,,,,,5,,43,100
103396,note_off,,,,,100,0,11,,,,,4,,55,100
103396,note_off,,,,,100,0,14,,,,,6,,55,100
103396,note_off,,,,,100,0,13,,,,,6,,64,100
103396,note_off,,,,,0,0,13,,,,,6,,67,100
103396,note_off,,,,,100,0,16,,,,,7,,55,100
103456,note_off,,,,,64,0,9,,,,,2,,77,100
103488,note_on,,,,,92,0,14,,,,,6,,57,100
103488,note_on,,,,,0,0,13,,,,,6,,65,100
103488,note_on,,,,,112,0,8,,,,,1,,72,96
103488,note_on,,,,,92,0,13,,,,,6,,69,100
103488,note_on,,,,,92,0,12,,,,,5,,45,96
103488,note_on,,,,,32,0,9,,,,,2,,76,96
103488,note_on,,,,,92,0,16,,,,,7,,57,100
103488,note_on,,,,,92,0,11,,,,,4,,57,96
103552,note_off,,,,,64,0,9,,,,,2,,76,100
103564,note_off,,,,,0,0,15,,,,,7,,72,100
103564,note_off,,,,,1036,0,15,,,,,7,,76,100
103564,note_off,,,,,0,0,15,,,,,7,,69,100
103568,note_off,,,,,80,0,8,,,,,1,,72,100
103584,note_on,,,,,472,0,10,,,,,3,,60,96
103584,note_on,,,,,32,0,9,,,,,2,,77,96
103588,note_off,,,,,100,0,16,,,,,7,,57,100
103588,note_off,,,,,100,0,14,,,,,6,,57,100
103588,note_off,,,,,100,0,13,,,,,6,,69,100
103588,note_off,,,,,100,0,11,,,,,4,,57,100
103588,note_off,,,,,100,0,12,,,,,5,,45,100
103588,note_off,,,,,0,0,13,,,,,6,,65,100
103648,note_off,,,,,64,0,10,,,,,3,,60,100
103648,note_off,,,,,64,0,9,,,,,2,,77,100
103680,note_on,,,,,32,0,10,,,,,3,,65,96
103680,note_on,,,,,92,0,13,,,,,6,,62,100
103680,note_on,,,,,112,0,8,,,,,1,,81,96
103680,note_on,,,,,92,0,16,,,,,7,,59,100
103680,note_on,,,,,92,0,12,,,,,5,,47,96
103680,note_on,,,,,92,0,11,,,,,4,,59,96
103680,note_on,,,,,32,0,9,,,,,2,,74,96
103680,note_on,,,,,0,0,13,,,,,6,,69,100
103680,note_on,,,,,0,0,15,,,,,7,,69,100
103680,note_on,,,,,0,0,15,,,,,7,,65,100
103680,note_on,,,,,116,0,15,,,,,7,,74,100
103680,note_on,,,,,92,0,14,,,,,6,,59,100
103744,note_off,,,,,64,0,8,,,,,1,,81,100
103760,note_off,,,,,80,0,9,,,,,2,,74,100
103776,note_on,,,,,32,0,8,,,,,1,,83,95
103780,note_off,,,,,100,0,14,,,,,6,,59,100
103780,note_off,,,,,100,0,13,,,,,6,,62,100
103780,note_off,,,,,0,0,13,,,,,6,,69,100
103780,note_off,,,,,100,0,16,,,,,7,,59,100
103780,note_off,,,,,100,0,11,,,,,4,,59,100
103780,note_off,,,,,100,0,12,,,,,5,,47,100
103840,note_off,,,,,64,0,8,,,,,1,,83,100
103872,note_on,,,,,92,0,16,,,,,7,,47,100
103872,note_on,,,,,92,0,11,,,,,4,,47,96
103872,note_on,,,,,32,0,8,,,,,1,,81,96
103872,note_on,,,,,92,0,12,,,,,5,,35,96
103872,note_on,,,,,0,0,13,,,,,6,,69,100
103872,note_on,,,,,92,0,13,,,,,6,,65,100
103872,note_on,,,,,92,0,14,,,,,6,,47,100
103872,note_on,,,,,112,0,9,,,,,2,,65,96
103880,note_off,,,,,200,0,10,,,,,3,,65,100
103936,note_off,,,,,64,0,8,,,,,1,,81,100
103952,note_off,,,,,80,0,9,,,,,2,,65,100
103968,note_on,,,,,32,0,8,,,,,1,,83,97
103972,note_off,,,,,100,0,13,,,,,6,,65,100
103972,note_off,,,,,0,0,13,,,,,6,,69,100
103972,note_off,,,,,100,0,11,,,,,4,,47,100
103972,note_off,,,,,100,0,16,,,,,7,,47,100
103972,note_off,,,,,100,0,12,,,,,5,,35,100
103972,note_off,,,,,100,0,14,,,,,6,,47,100
104032,note_off,,,,,64,0,8,,,,,1,,83,100
104064,note_on,,,,,112,0,9,,,,,2,,74,98
104064,note_on,,,,,184,0,10,,,,,3,,65,98
104064,note_on,,,,,92,0,12,,,,,5,,35,98
104064,note_on,,,,,92,0,14,,,,,6,,47,100
104064,note_on,,,,,92,0,11,,,,,4,,47,98
104064,note_on,,,,,92,0,16,,,,,7,,47,100
104064,note_on,,,,,0,0,13,,,,,6,,69,100
104064,note_on,,,,,92,0,13,,,,,6,,65,100
104064,note_on,,,,,32,0,8,,,,,1,,81,98
104128,note_off,,,,,64,0,8,,,,,1,,81,100
104144,note_off,,,,,80,0,9,,,,,2,,74,100
104160,note_on,,,,,32,0,8,,,,,1,,83,99
104164,note_off,,,,,100,0,11,,,,,4,,47,100
104164,note_off,,,,,100,0,16,,,,,7,,47,100
104164,note_off,,,,,100,0,13,,,,,6,,65,100
104164,note_off,,,,,100,0,12,,,,,5,,35,100
104164,note_off,,,,,100,0,14,,,,,6,,47,100
104164,note_off,,,,,0,0,13,,,,,6,,69,100
104224,note_off,,,,,64,0,8,,,,,1,,83,100
104256,note_on,,,,,92,0,11,,,,,4,,47,99
104256,note_on,,,,,112,0,9,,,,,2,,65,99
104256,note_on,,,,,92,0,16,,,,,7,,47,100
104256,note_on,,,,,32,0,8,,,,,1,,81,99
104256,note_on,,,,,92,0,12,,,,,5,,35,99
104256,note_on,,,,,92,0,14,,,,,6,,47,100
104256,note_on,,,,,0,0,13,,,,,6,,62,100
104256,note_on,,,,,92,0,13,,,,,6,,65,100
104264,note_off,,,,,200,0,10,,,,,3,,65,100
104320,note_off,,,,,64,0,8,,,,,1,,81,100
104336,note_off,,,,,80,0,9,,,,,2,,65,100
104352,note_on,,,,,32,0,8,,,,,1,,83,100
104356,note_off,,,,,100,0,13,,,,,6,,65,100
104356,note_off,,,,,0,0,13,,,,,6,,62,100
104356,note_off,,,,,100,0,12,,,,,5,,35,100
104356,note_off,,,,,100,0,11,,,,,4,,47,100
104356,note_off,,,,,100,0,14,,,,,6,,47,100
104356,note_off,,,,,100,0,16,,,,,7,,47,100
104416,note_off,,,,,64,0,8,,,,,1,,83,100
104448,note_on,,,,,92,0,11,,,,,4,,48,101
104448,note_on,,,,,32,0,8,,,,,1,,81,101
104448,note_on,,,,,92,0,12,,,,,5,,36,101
104448,note_on,,,,,112,0,9,,,,,2,,74,101
104448,note_on,,,,,92,0,16,,,,,7,,48,100
104448,note_on,,,,,0,0,13,,,,,6,,60,100
104448,note_on,,,,,92,0,13,,,,,6,,64,100
104448,note_on,,,,,92,0,14,,,,,6,,48,100
104512,note_off,,,,,64,0,8,,,,,1,,81,100
104528,note_off,,,,,80,0,9,,,,,2,,74,100
104544,note_on,,,,,32,0,8,,,,,1,,83,102
104548,note_off,,,,,0,0,13,,,,,6,,60,100
104548,note_off,,,,,100,0,11,,,,,4,,48,100
104548,note_off,,,,,100,0,13,,,,,6,,64,100
104548,note_off,,,,,100,0,14,,,,,6,,48,100
104548,note_off,,,,,100,0,12,,,,,5,,36,100
104548,note_off,,,,,100,0,16,,,,,7,,48,100
104608,note_off,,,,,64,0,8,,,,,1,,83,100
104640,note_on,,,,,32,0,8,,,,,1,,81,103
104640,note_on,,,,,92,0,13,,,,,6,,65,100
104640,note_on,,,,,92,0,12,,,,,5,,38,103
104640,note_on,,,,,92,0,14,,,,,6,,50,100
104640,note_on,,,,,92,0,11,,,,,4,,50,103
104640,note_on,,,,,0,0,13,,,,,6,,62,100
104640,note_on,,,,,112,0,9,,,,,2,,65,103
104640,note_on,,,,,92,0,16,,,,,7,,50,100
104704,note_off,,,,,64,0,8,,,,,1,,81,100
104716,note_off,,,,,1036,0,15,,,,,7,,74,100
104716,note_off,,,,,0,0,15,,,,,7,,65,100
104716,note_off,,,,,0,0,15,,,,,7,,69,100
104720,note_off,,,,,80,0,9,,,,,2,,65,100
104736,note_on,,,,,472,0,10,,,,,3,,65,104
104736,note_on,,,,,32,0,8,,,,,1,,83,104
104740,note_off,,,,,100,0,16,,,,,7,,50,100
104740,note_off,,,,,100,0,13,,,,,6,,65,100
104740,note_off,,,,,100,0,11,,,,,4,,50,100
104740,note_off,,,,,0,0,13,,,,,6,,62,100
104740,note_off,,,,,100,0,12,,,,,5,,38,100
104740,note_off,,,,,100,0,14,,,,,6,,50,100
104800,note_off,,,,,64,0,10,,,,,3,,65,100
104800,note_off,,,,,64,0,8,,,,,1,,83,100
104832,note_on,,,,,92,0,11,,,,,4,,52,104
104832,note_on,,,,,92,0,13,,,,,6,,59,100
104832,note_on,,,,,92,0,16,,,,,7,,52,100
104832,note_on,,,,,0,0,13,,,,,6,,68,100
104832,note_on,,,,,92,0,14,,,,,6,,52,100
104832,note_on,,,,,32,0,10,,,,,3,,59,104
104832,note_on,,,,,112,0,9,,,,,2,,74,104
104832,note_on,,,,,92,0,12,,,,,5,,40,104
104832,note_on,,,,,116,0,15,,,,,7,,71,100
104832,note_on,,,,,0,0,15,,,,,7,,64,100
104832,note_on,,,,,0,0,15,,,,,7,,68,100
104832,note_on,,,,,32,0,8,,,,,1,,80,104
104896,note_off,,,,,64,0,9,,,,,2,,74,100
104928,note_on,,,,,32,0,9,,,,,2,,76,100
104932,note_off,,,,,100,0,14,,,,,6,,52,100
104932,note_off,,,,,0,0,13,,,,,6,,68,100
104932,note_off,,,,,100,0,13,,,,,6,,59,100
104932,note_off,,,,,100,0,12,,,,,5,,40,100
104932,note_off,,,,,100,0,16,,,,,7,,52,100
104932,note_off,,,,,100,0,11,,,,,4,,52,100
104992,note_off,,,,,64,0,9,,,,,2,,76,100
105024,note_on,,,,,0,0,13,,,,,6,,68,100
105024,note_on,,,,,32,0,9,,,,,2,,74,100
105024,note_on,,,,,92,0,13,,,,,6,,64,100
105024,note_on,,,,,92,0,16,,,,,7,,40,100
105024,note_on,,,,,92,0,12,,,,,5,,40,100
105024,note_on,,,,,92,0,14,,,,,6,,40,100
105024,note_on,,,,,92,0,11,,,,,4,,40,100
105032,note_off,,,,,200,0,10,,,,,3,,59,100
105088,note_off,,,,,64,0,9,,,,,2,,74,100
105088,note_off,,,,,256,0,8,,,,,1,,80,100
105120,note_on,,,,,32,0,9,,,,,2,,76,100
105124,note_off,,,,,100,0,16,,,,,7,,40,100
105124,note_off,,,,,100,0,12,,,,,5,,40,100
105124,note_off,,,,,100,0,14,,,,,6,,40,100
105124,note_off,,,,,100,0,11,,,,,4,,40,100
105124,note_off,,,,,100,0,13,,,,,6,,64,100
105124,note_off,,,,,0,0,13,,,,,6,,68,100
105184,note_off,,,,,64,0,9,,,,,2,,76,100
105216,note_on,,,,,184,0,10,,,,,3,,59,100
105216,note_on,,,,,92,0,13,,,,,6,,64,100
105216,note_on,,,,,0,0,13,,,,,6,,68,100
105216,note_on,,,,,92,0,16,,,,,7,,40,100
105216,note_on,,,,,92,0,14,,,,,6,,40,100
105216,note_on,,,,,92,0,12,,,,,5,,40,100
105216,note_on,,,,,92,0,11,,,,,4,,40,100
105216,note_on,,,,,32,0,9,,,,,2,,74,100
105280,note_off,,,,,64,0,9,,,,,2,,74,100
105312,note_on,,,,,32,0,9,,,,,2,,76,100
105316,note_off,,,,,0,0,13,,,,,6,,68,100
105316,note_off,,,,,100,0,13,,,,,6,,64,100
105316,note_off,,,,,100,0,11,,,,,4,,40,100
105316,note_off,,,,,100,0,16,,,,,7,,40,100
105316,note_off,,,,,100,0,14,,,,,6,,40,100
105316,note_off,,,,,100,0,12,,,,,5,,40,100
105376,note_off,,,,,64,0,9,,,,,2,,76,100
105408,note_on,,,,,92,0,14,,,,,6,,52,100
105408,note_on,,,,,92,0,16,,,,,7,,52,100
105408,note_on,,,,,92,0,11,,,,,4,,52,100
105408,note_on,,,,,320,0,8,,,,,1,,80,100
105408,note_on,,,,,92,0,13,,,,,6,,68,100
105408,note_on,,,,,0,0,13,,,,,6,,64,100
105408,note_on,,,,,32,0,9,,,,,2,,74,100
105408,note_on,,,,,92,0,12,,,,,5,,40,100
105416,note_off,,,,,200,0,10,,,,,3,,59,100
105444,note_off,,,,,0,0,15,,,,,7,,68,100
105444,note_off,,,,,612,0,15,,,,,7,,71,100
105444,note_off,,,,,0,0,15,,,,,7,,64,100
105472,note_off,,,,,64,0,9,,,,,2,,74,100
105504,note_on,,,,,32,0,9,,,,,2,,76,100
105508,note_off,,,,,100,0,11,,,,,4,,52,100
105508,note_off,,,,,0,0,13,,,,,6,,64,100
105508,note_off,,,,,100,0,13,,,,,6,,68,100
105508,note_off,,,,,100,0,14,,,,,6,,52,100
105508,note_off,,,,,100,0,16,,,,,7,,52,100
105508,note_off,,,,,100,0,8,,,,,1,,80,100
105508,note_off,,,,,100,0,12,,,,,5,,40,100
105568,note_off,,,,,64,0,9,,,,,2,,76,100
105600,note_on,,,,,0,0,15,,,,,7,,80,100
105600,note_on,,,,,0,0,15,,,,,7,,74,100
105600,note_on,,,,,92,0,13,,,,,6,,66,100
105600,note_on,,,,,92,0,8,,,,,1,,81,100
105600,note_on,,,,,0,0,13,,,,,6,,64,100
105600,note_on,,,,,92,0,12,,,,,5,,42,100
105600,note_on,,,,,32,0,9,,,,,2,,74,100
105600,note_on,,,,,92,0,16,,,,,7,,54,100
105600,note_on,,,,,156,0,15,,,,,7,,71,100
105600,note_on,,,,,92,0,11,,,,,4,,54,100
105600,note_on,,,,,92,0,14,,,,,6,,54,100
105664,note_off,,,,,64,0,9,,,,,2,,74,100
105696,note_on,,,,,32,0,9,,,,,2,,76,100
105700,note_off,,,,,100,0,8,,,,,1,,81,100
105700,note_off,,,,,0,0,13,,,,,6,,64,100
105700,note_off,,,,,100,0,11,,,,,4,,54,100
105700,note_off,,,,,100,0,12,,,,,5,,42,100
105700,note_off,,,,,100,0,16,,,,,7,,54,100
105700,note_off,,,,,100,0,14,,,,,6,,54,100
105700,note_off,,,,,100,0,13,,,,,6,,66,100
105760,note_off,,,,,64,0,9,,,,,2,,76,100
105792,note_on,,,,,92,0,13,,,,,6,,68,100
105792,note_on,,,,,0,0,13,,,,,6,,64,100
105792,note_on,,,,,92,0,12,,,,,5,,44,100
105792,note_on,,,,,92,0,16,,,,,7,,56,100
105792,note_on,,,,,92,0,11,,,,,4,,56,100
105792,note_on,,,,,92,0,8,,,,,1,,83,100
105792,note_on,,,,,92,0,14,,,,,6,,56,100
105792,note_on,,,,,32,0,9,,,,,2,,74,100
105856,note_off,,,,,64,0,9,,,,,2,,74,100
105888,note_on,,,,,472,0,10,,,,,3,,64,100
105888,note_on,,,,,32,0,9,,,,,2,,76,100
105892,note_off,,,,,100,0,14,,,,,6,,56,100
105892,note_off,,,,,100,0,13,,,,,6,,68,100
105892,note_off,,,,,0,0,13,,,,,6,,64,100
105892,note_off,,,,,100,0,16,,,,,7,,56,100
105892,note_off,,,,,100,0,11,,,,,4,,56,100
105892,note_off,,,,,100,0,12,,,,,5,,44,100
105892,note_off,,,,,100,0,8,,,,,1,,83,100
105904,note_off,,,,,0,0,15,,,,,7,,80,100
105904,note_off,,,,,304,0,15,,,,,7,,71,100
105904,note_off,,,,,0,0,15,,,,,7,,74,100
105952,note_off,,,,,64,0,10,,,,,3,,64,100
105952,note_off,,,,,64,0,9,,,,,2,,76,100
105984,note_on,,,,,92,0,8,,,,,1,,76,100
105984,note_on,,,,,92,0,12,,,,,5,,45,100
105984,note_on,,,,,92,0,14,,,,,6,,57,100
105984,note_on,,,,,0,0,13,,,,,6,,60,100
105984,note_on,,,,,0,0,13,,,,,6,,69,100
105984,note_on,,,,,0,0,15,,,,,7,,81,100
105984,note_on,,,,,32,0,10,,,,,3,,64,100
105984,note_on,,,,,92,0,13,,,,,6,,64,100
105984,note_on,,,,,80,0,15,,,,,7,,72,100
105984,note_on,,,,,32,0,9,,,,,2,,72,100
105984,note_on,,,,,92,0,16,,,,,7,,57,100
105984,note_on,,,,,0,0,15,,,,,7,,76,100
105984,note_on,,,,,92,0,11,,,,,4,,57,100
106084,note_off,,,,,100,0,11,,,,,4,,57,100
106084,note_off,,,,,100,0,16,,,,,7,,57,100
106084,note_off,,,,,100,0,12,,,,,5,,45,100
106084,note_off,,,,,100,0,14,,,,,6,,57,100
106176,note_on,,,,,92,0,14,,,,,6,,45,100
106176,note_on,,,,,92,0,12,,,,,5,,33,99
106176,note_on,,,,,92,0,16,,,,,7,,45,100
106176,note_on,,,,,92,0,11,,,,,4,,45,99
106184,note_off,,,,,200,0,8,,,,,1,,76,100
106184,note_off,,,,,200,0,9,,,,,2,,72,100
106184,note_off,,,,,200,0,10,,,,,3,,64,100
106276,note_off,,,,,100,0,16,,,,,7,,45,100
106276,note_off,,,,,100,0,12,,,,,5,,33,100
106276,note_off,,,,,100,0,11,,,,,4,,45,100
106276,note_off,,,,,100,0,14,,,,,6,,45,100
106368,note_on,,,,,184,0,8,,,,,1,,69,98
106368,note_on,,,,,184,0,9,,,,,2,,72,98
106368,note_on,,,,,92,0,16,,,,,7,,45,100
106368,note_on,,,,,184,0,10,,,,,3,,64,98
106368,note_on,,,,,92,0,12,,,,,5,,33,98
106368,note_on,,,,,92,0,14,,,,,6,,45,100
106368,note_on,,,,,92,0,11,,,,,4,,45,98
106368,note_off,,,,,384,0,13,,,,,6,,64,100
106468,note_off,,,,,100,0,11,,,,,4,,45,100
106468,note_off,,,,,100,0,16,,,,,7,,45,100
106468,note_off,,,,,100,0,12,,,,,5,,33,100
106468,note_off,,,,,100,0,14,,,,,6,,45,100
106500,note_off,,,,,0,0,15,,,,,7,,81,100
106500,note_off,,,,,516,0,15,,,,,7,,72,100
106500,note_off,,,,,0,0,15,,,,,7,,76,100
106500,note_off,,,,,0,0,13,,,,,6,,60,100
106500,note_off,,,,,132,0,13,,,,,6,,69,100
106560,note_on,,,,,60,0,13,,,,,6,,56,100
106560,note_on,,,,,60,0,15,,,,,7,,79,100
106560,note_on,,,,,92,0,11,,,,,4,,40,92
106560,note_on,,,,,92,0,14,,,,,6,,40,100
106560,note_on,,,,,92,0,16,,,,,7,,40,100
106560,note_on,,,,,92,0,12,,,,,5,,40,92
106568,note_off,,,,,200,0,8,,,,,1,,69,100
106568,note_off,,,,,200,0,9,,,,,2,,72,100
106568,note_off,,,,,200,0,10,,,,,3,,64,100
106652,note_off,,,,,92,0,15,,,,,7,,79,100
106656,note_on,,,,,4,0,15,,,,,7,,77,100
106660,note_off,,,,,100,0,16,,,,,7,,40,100
106660,note_off,,,,,100,0,14,,,,,6,,40,100
106660,note_off,,,,,100,0,12,,,,,5,,40,100
106660,note_off,,,,,100,0,11,,,,,4,,40,100
106660,note_off,,,,,100,0,13,,,,,6,,56,100
106748,note_off,,,,,92,0,15,,,,,7,,77,100
106752,note_on,,,,,92,0,16,,,,,7,,42,100
106752,note_on,,,,,92,0,13,,,,,6,,57,100
106752,note_on,,,,,92,0,12,,,,,5,,42,91
106752,note_on,,,,,92,0,11,,,,,4,,42,91
106752,note_on,,,,,4,0,15,,,,,7,,76,100
106752,note_on,,,,,92,0,14,,,,,6,,42,100
106844,note_off,,,,,92,0,15,,,,,7,,76,100
106848,note_on,,,,,4,0,15,,,,,7,,74,100
106852,note_off,,,,,100,0,14,,,,,6,,42,100
106852,note_off,,,,,100,0,12,,,,,5,,42,100
106852,note_off,,,,,100,0,16,,,,,7,,42,100
106852,note_off,,,,,100,0,13,,,,,6,,57,100
106852,note_off,,,,,100,0,11,,,,,4,,42,100
106940,note_off,,,,,92,0,15,,,,,7,,74,100
106944,note_on,,,,,0,0,13,,,,,6,,56,100
106944,note_on,,,,,92,0,13,,,,,6,,62,100
106944,note_on,,,,,4,0,15,,,,,7,,72,100
106944,note_on,,,,,92,0,14,,,,,6,,44,100
106944,note_on,,,,,92,0,11,,,,,4,,44,89
106944,note_on,,,,,92,0,12,,,,,5,,44,89
106944,note_on,,,,,92,0,16,,,,,7,,44,100
107036,note_off,,,,,92,0,15,,,,,7,,72,100
107040,note_on,,,,,472,0,10,,,,,3,,59,89
107040,note_on,,,,,472,0,9,,,,,2,,62,89
107040,note_on,,,,,472,0,8,,,,,1,,65,89
107040,note_on,,,,,4,0,15,,,,,7,,71,100
107044,note_off,,,,,100,0,14,,,,,6,,44,100
107044,note_off,,,,,100,0,12,,,,,5,,44,100
107044,note_off,,,,,100,0,13,,,,,6,,62,100
107044,note_off,,,,,100,0,16,,,,,7,,44,100
107044,note_off,,,,,0,0,13,,,,,6,,56,100
107044,note_off,,,,,100,0,11,,,,,4,,44,100
107104,note_off,,,,,64,0,10,,,,,3,,59,100
107104,note_off,,,,,64,0,9,,,,,2,,62,100
107104,note_off,,,,,64,0,8,,,,,1,,65,100
107132,note_off,,,,,92,0,15,,,,,7,,71,100
107136,note_on,,,,,32,0,10,,,,,3,,60,88
107136,note_on,,,,,0,0,13,,,,,6,,64,100
107136,note_on,,,,,0,0,13,,,,,6,,60,100
107136,note_on,,,,,4,0,15,,,,,7,,60,100
107136,note_on,,,,,0,0,15,,,,,7,,69,100
107136,note_on,,,,,32,0,8,,,,,1,,64,88
107136,note_on,,,,,92,0,12,,,,,5,,33,88
107136,note_on,,,,,92,0,13,,,,,6,,57,100
107136,note_on,,,,,92,0,11,,,,,4,,45,88
107136,note_on,,,,,32,0,9,,,,,2,,60,88
107136,note_on,,,,,92,0,16,,,,,7,,45,100
107136,note_on,,,,,92,0,14,,,,,6,,45,100
107236,note_off,,,,,100,0,12,,,,,5,,33,100
107236,note_off,,,,,100,0,14,,,,,6,,45,100
107236,note_off,,,,,100,0,16,,,,,7,,45,100
107236,note_off,,,,,100,0,11,,,,,4,,45,100
107328,note_on,,,,,92,0,16,,,,,7,,45,100
107328,note_on,,,,,92,0,11,,,,,4,,45,87
107328,note_on,,,,,92,0,12,,,,,5,,33,87
107328,note_on,,,,,92,0,14,,,,,6,,45,100
107336,note_off,,,,,200,0,10,,,,,3,,60,100
107336,note_off,,,,,200,0,9,,,,,2,,60,100
107336,note_off,,,,,200,0,8,,,,,1,,64,100
107428,note_off,,,,,100,0,14,,,,,6,,45,100
107428,note_off,,,,,100,0,11,,,,,4,,45,100
107428,note_off,,,,,100,0,16,,,,,7,,45,100
107428,note_off,,,,,100,0,12,,,,,5,,33,100
107520,note_on,,,,,184,0,8,,,,,1,,57,86
107520,note_on,,,,,184,0,10,,,,,3,,52,86
107520,note_on,,,,,184,0,9,,,,,2,,60,86
107520,note_on,,,,,92,0,14,,,,,6,,45,100
107520,note_off,,,,,384,0,13,,,,,6,,64,100
107520,note_on,,,,,92,0,16,,,,,7,,45,100
107520,note_on,,,,,92,0,12,,,,,5,,33,86
107520,note_on,,,,,92,0,11,,,,,4,,45,86
107620,note_off,,,,,100,0,12,,,,,5,,33,100
107620,note_off,,,,,100,0,11,,,,,4,,45,100
107620,note_off,,,,,100,0,14,,,,,6,,45,100
107620,note_off,,,,,100,0,16,,,,,7,,45,100
107652,note_off,,,,,132,0,13,,,,,6,,57,100
107652,note_off,,,,,0,0,13,,,,,6,,60,100
107652,note_off,,,,,516,0,15,,,,,7,,60,100
107652,note_off,,,,,0,0,15,,,,,7,,69,100
107712,note_on,,,,,92,0,11,,,,,4,,52,96
107712,note_on,,,,,92,0,16,,,,,7,,52,100
107712,note_on,,,,,60,0,13,,,,,6,,68,100
107712,note_on,,,,,92,0,14,,,,,6,,52,100
107712,note_on,,,,,92,0,12,,,,,5,,40,96
107712,note_on,,,,,60,0,15,,,,,7,,67,100
107720,note_off,,,,,200,0,10,,,,,3,,52,100
107720,note_off,,,,,200,0,8,,,,,1,,57,100
107720,note_off,,,,,200,0,9,,,,,2,,60,100
107804,note_off,,,,,92,0,15,,,,,7,,67,100
107808,note_on,,,,,4,0,15,,,,,7,,65,100
107812,note_off,,,,,100,0,14,,,,,6,,52,100
107812,note_off,,,,,100,0,12,,,,,5,,40,100
107812,note_off,,,,,100,0,11,,,,,4,,52,100
107812,note_off,,,,,100,0,13,,,,,6,,68,100
107812,note_off,,,,,100,0,16,,,,,7,,52,100
107900,note_off,,,,,92,0,15,,,,,7,,65,100
107904,note_on,,,,,92,0,12,,,,,5,,42,97
107904,note_on,,,,,92,0,16,,,,,7,,54,100
107904,note_on,,,,,4,0,15,,,,,7,,64,100
107904,note_on,,,,,92,0,13,,,,,6,,69,100
107904,note_on,,,,,92,0,14,,,,,6,,54,100
107904,note_on,,,,,92,0,11,,,,,4,,54,97
107996,note_off,,,,,92,0,15,,,,,7,,64,100
108000,note_on,,,,,4,0,15,,,,,7,,62,100
108004,note_off,,,,,100,0,11,,,,,4,,54,100
108004,note_off,,,,,100,0,16,,,,,7,,54,100
108004,note_off,,,,,100,0,14,,,,,6,,54,100
108004,note_off,,,,,100,0,12,,,,,5,,42,100
108004,note_off,,,,,100,0,13,,,,,6,,69,100
108092,note_off,,,,,92,0,15,,,,,7,,62,100
108096,note_on,,,,,4,0,15,,,,,7,,60,100
108096,note_on,,,,,92,0,12,,,,,5,,44,99
108096,note_on,,,,,92,0,16,,,,,7,,56,100
108096,note_on,,,,,92,0,11,,,,,4,,56,99
108096,note_on,,,,,0,0,13,,,,,6,,68,100
108096,note_on,,,,,92,0,13,,,,,6,,62,100
108096,note_on,,,,,92,0,14,,,,,6,,56,100
108188,note_off,,,,,92,0,15,,,,,7,,60,100
108192,note_on,,,,,472,0,9,,,,,2,,74,100
108192,note_on,,,,,4,0,15,,,,,7,,59,100
108192,note_on,,,,,472,0,10,,,,,3,,71,100
108192,note_on,,,,,472,0,8,,,,,1,,77,100
108196,note_off,,,,,100,0,14,,,,,6,,56,100
108196,note_off,,,,,100,0,11,,,,,4,,56,100
108196,note_off,,,,,100,0,12,,,,,5,,44,100
108196,note_off,,,,,100,0,13,,,,,6,,62,100
108196,note_off,,,,,0,0,13,,,,,6,,68,100
108196,note_off,,,,,100,0,16,,,,,7,,56,100
108256,note_off,,,,,64,0,9,,,,,2,,74,100
108256,note_off,,,,,64,0,10,,,,,3,,71,100
108256,note_off,,,,,64,0,8,,,,,1,,77,100
108284,note_off,,,,,92,0,15,,,,,7,,59,100
108288,note_on,,,,,32,0,10,,,,,3,,72,101
108288,note_on,,,,,92,0,13,,,,,6,,64,100
108288,note_on,,,,,0,0,13,,,,,6,,60,100
108288,note_on,,,,,92,0,12,,,,,5,,45,101
108288,note_on,,,,,0,0,13,,,,,6,,69,100
108288,note_on,,,,,32,0,8,,,,,1,,76,101
108288,note_on,,,,,92,0,16,,,,,7,,57,100
108288,note_on,,,,,92,0,11,,,,,4,,57,101
108288,note_on,,,,,32,0,9,,,,,2,,72,101
108288,note_on,,,,,92,0,14,,,,,6,,57,100
108288,note_on,,,,,4,0,15,,,,,7,,60,100
108388,note_off,,,,,100,0,9,,,,,2,,72,100
108388,note_off,,,,,100,0,8,,,,,1,,76,100
108480,note_on,,,,,92,0,9,,,,,2,,69,100
108480,note_on,,,,,92,0,8,,,,,1,,69,100
108544,note_off,,,,,256,0,11,,,,,4,,57,100
108544,note_off,,,,,256,0,10,,,,,3,,72,100
108544,note_off,,,,,256,0,14,,,,,6,,57,100
108544,note_off,,,,,0,0,13,,,,,6,,69,100
108544,note_off,,,,,0,0,13,,,,,6,,60,100
108544,note_off,,,,,256,0,13,,,,,6,,64,100
108544,note_off,,,,,256,0,12,,,,,5,,45,100
108544,note_off,,,,,256,0,16,,,,,7,,57,100
108544,note_off,,,,,256,0,15,,,,,7,,60,100
108580,note_off,,,,,100,0,8,,,,,1,,69,100
108580,note_off,,,,,100,0,9,,,,,2,,69,100
108672,note_on,,,,,92,0,9,,,,,2,,81,100
108672,note_on,,,,,92,0,8,,,,,1,,81,100
108752,note_off,,,,,80,0,8,,,,,1,,81,100
108752,note_off,,,,,80,0,9,,,,,2,,81,100
108864,note_on,,,,,320,0,14,,,,,6,,48,100
108864,note_on,,,,,320,0,15,,,,,7,,60,100
108864,note_on,,,,,320,0,16,,,,,7,,48,100
108864,note_on,,,,,320,0,12,,,,,5,,36,100
108864,note_on,,,,,320,0,11,,,,,4,,48,100
108864,note_on,,,,,320,0,10,,,,,3,,60,100
108864,note_on,,,,,112,0,8,,,,,1,,81,100
108864,note_on,,,,,112,0,9,,,,,2,,81,100
108864,note_on,,,,,320,0,13,,,,,6,,60,100
108944,note_off,,,,,80,0,9,,,,,2,,81,100
108944,note_off,,,,,80,0,8,,,,,1,,81,100
108964,note_off,,,,,100,0,15,,,,,7,,60,100
108964,note_off,,,,,100,0,13,,,,,6,,60,100
108964,note_off,,,,,100,0,10,,,,,3,,60,100
108964,note_off,,,,,100,0,14,,,,,6,,48,100
108964,note_off,,,,,100,0,16,,,,,7,,48,100
108964,note_off,,,,,100,0,12,,,,,5,,36,100
108964,note_off,,,,,100,0,11,,,,,4,,48,100
109056,note_on,,,,,92,0,10,,,,,3,,62,100
109056,note_on,,,,,92,0,14,,,,,6,,50,100
109056,note_on,,,,,92,0,13,,,,,6,,62,100
109056,note_on,,,,,112,0,9,,,,,2,,81,100
109056,note_on,,,,,112,0,8,,,,,1,,81,100
109056,note_on,,,,,92,0,16,,,,,7,,50,100
109056,note_on,,,,,92,0,15,,,,,7,,62,100
109056,note_on,,,,,92,0,12,,,,,5,,38,100
109056,note_on,,,,,92,0,11,,,,,4,,50,100
109136,note_off,,,,,80,0,8,,,,,1,,81,100
109136,note_off,,,,,80,0,9,,,,,2,,81,100
109156,note_off,,,,,100,0,10,,,,,3,,62,100
109156,note_off,,,,,100,0,12,,,,,5,,38,100
109156,note_off,,,,,100,0,15,,,,,7,,62,100
109156,note_off,,,,,100,0,16,,,,,7,,50,100
109156,note_off,,,,,100,0,13,,,,,6,,62,100
109156,note_off,,,,,100,0,14,,,,,6,,50,100
109156,note_off,,,,,100,0,11,,,,,4,,50,100
109248,note_on,,,,,92,0,11,,,,,4,,52,100
109248,note_on,,,,,92,0,16,,,,,7,,52,100
109248,note_on,,,,,92,0,10,,,,,3,,64,100
109248,note_on,,,,,92,0,14,,,,,6,,52,100
109248,note_on,,,,,92,0,12,,,,,5,,40,100
109248,note_on,,,,,112,0,8,,,,,1,,81,100
109248,note_on,,,,,112,0,9,,,,,2,,81,100
109248,note_on,,,,,92,0,13,,,,,6,,64,100
109248,note_on,,,,,92,0,15,,,,,7,,64,100
109328,note_off,,,,,80,0,8,,,,,1,,81,100
109328,note_off,,,,,80,0,9,,,,,2,,81,100
109348,note_off,,,,,100,0,10,,,,,3,,64,100
109348,note_off,,,,,100,0,13,,,,,6,,64,100
109348,note_off,,,,,100,0,15,,,,,7,,64,100
109348,note_off,,,,,100,0,11,,,,,4,,52,100
109348,note_off,,,,,100,0,16,,,,,7,,52,100
109348,note_off,,,,,100,0,12,,,,,5,,40,100
109348,note_off,,,,,100,0,14,,,,,6,,52,100
109440,note_on,,,,,112,0,8,,,,,1,,81,100
109440,note_on,,,,,92,0,10,,,,,3,,65,100
109440,note_on,,,,,112,0,9,,,,,2,,81,100
109440,note_on,,,,,92,0,14,,,,,6,,53,100
109440,note_on,,,,,92,0,16,,,,,7,,53,100
109440,note_on,,,,,92,0,13,,,,,6,,65,100
109440,note_on,,,,,92,0,15,,,,,7,,65,100
109440,note_on,,,,,92,0,11,,,,,4,,53,100
109440,note_on,,,,,92,0,12,,,,,5,,41,100
109520,note_off,,,,,80,0,9,,,,,2,,81,100
109520,note_off,,,,,80,0,8,,,,,1,,81,100
109632,note_on,,,,,112,0,8,,,,,1,,69,100
109632,note_on,,,,,112,0,9,,,,,2,,69,100
109696,note_off,,,,,256,0,11,,,,,4,,53,100
109696,note_off,,,,,256,0,13,,,,,6,,65,100
109696,note_off,,,,,256,0,15,,,,,7,,65,100
109696,note_off,,,,,256,0,16,,,,,7,,53,100
109696,note_off,,,,,256,0,14,,,,,6,,53,100
109696,note_off,,,,,256,0,12,,,,,5,,41,100
109696,note_off,,,,,256,0,10,,,,,3,,65,100
109712,note_off,,,,,80,0,9,,,,,2,,69,100
109712,note_off,,,,,80,0,8,,,,,1,,69,100
109824,note_on,,,,,112,0,8,,,,,1,,81,90
109824,note_on,,,,,112,0,9,,,,,2,,81,90
109904,note_off,,,,,80,0,9,,,,,2,,81,100
109904,note_off,,,,,80,0,8,,,,,1,,81,100
110016,note_on,,,,,320,0,13,,,,,6,,60,100
110016,note_on,,,,,112,0,8,,,,,1,,81,92
110016,note_on,,,,,112,0,9,,,,,2,,81,92
110016,note_on,,,,,320,0,10,,,,,3,,60,92
110016,note_on,,,,,320,0,12,,,,,5,,36,92
110016,note_on,,,,,320,0,15,,,,,7,,60,100
110016,note_on,,,,,320,0,16,,,,,7,,48,100
110016,note_on,,,,,320,0,14,,,,,6,,48,100
110016,note_on,,,,,320,0,11,,,,,4,,48,92
110096,note_off,,,,,80,0,9,,,,,2,,81,100
110096,note_off,,,,,80,0,8,,,,,1,,81,100
110116,note_off,,,,,100,0,14,,,,,6,,48,100
110116,note_off,,,,,100,0,16,,,,,7,,48,100
110116,note_off,,,,,100,0,12,,,,,5,,36,100
110116,note_off,,,,,100,0,15,,,,,7,,60,100
110116,note_off,,,,,100,0,13,,,,,6,,60,100
110116,note_off,,,,,100,0,11,,,,,4,,48,100
110116,note_off,,,,,100,0,10,,,,,3,,60,100
110208,note_on,,,,,112,0,8,,,,,1,,81,95
110208,note_on,,,,,92,0,15,,,,,7,,62,100
110208,note_on,,,,,92,0,10,,,,,3,,62,95
110208,note_on,,,,,92,0,11,,,,,4,,50,95
110208,note_on,,,,,92,0,14,,,,,6,,50,100
110208,note_on,,,,,92,0,13,,,,,6,,62,100
110208,note_on,,,,,92,0,12,,,,,5,,38,95
110208,note_on,,,,,92,0,16,,,,,7,,50,100
110208,note_on,,,,,112,0,9,,,,,2,,81,95
110288,note_off,,,,,80,0,8,,,,,1,,81,100
110288,note_off,,,,,80,0,9,,,,,2,,81,100
110308,note_off,,,,,100,0,12,,,,,5,,38,100
110308,note_off,,,,,100,0,16,,,,,7,,50,100
110308,note_off,,,,,100,0,15,,,,,7,,62,100
110308,note_off,,,,,100,0,14,,,,,6,,50,100
110308,note_off,,,,,100,0,11,,,,,4,,50,100
110308,note_off,,,,,100,0,13,,,,,6,,62,100
110308,note_off,,,,,100,0,10,,,,,3,,62,100
110400,note_on,,,,,92,0,16,,,,,7,,52,100
110400,note_on,,,,,92,0,12,,,,,5,,40,98
110400,note_on,,,,,92,0,15,,,,,7,,64,100
110400,note_on,,,,,112,0,9,,,,,2,,81,98
110400,note_on,,,,,92,0,11,,,,,4,,52,98
110400,note_on,,,,,112,0,8,,,,,1,,81,98
110400,note_on,,,,,92,0,14,,,,,6,,52,100
110400,note_on,,,,,92,0,10,,,,,3,,64,98
110400,note_on,,,,,92,0,13,,,,,6,,64,100
110480,note_off,,,,,80,0,9,,,,,2,,81,100
110480,note_off,,,,,80,0,8,,,,,1,,81,100
110500,note_off,,,,,100,0,11,,,,,4,,52,100
110500,note_off,,,,,100,0,15,,,,,7,,64,100
110500,note_off,,,,,100,0,16,,,,,7,,52,100
110500,note_off,,,,,100,0,14,,,,,6,,52,100
110500,note_off,,,,,100,0,10,,,,,3,,64,100
110500,note_off,,,,,100,0,12,,,,,5,,40,100
110500,note_off,,,,,100,0,13,,,,,6,,64,100
110592,note_on,,,,,92,0,10,,,,,3,,65,101
110592,note_on,,,,,92,0,16,,,,,7,,53,100
110592,note_on,,,,,112,0,8,,,,,1,,81,101
110592,note_on,,,,,92,0,14,,,,,6,,53,100
110592,note_on,,,,,0,0,15,,,,,7,,69,100
110592,note_on,,,,,92,0,15,,,,,7,,65,100
110592,note_on,,,,,0,0,13,,,,,6,,69,100
110592,note_on,,,,,92,0,13,,,,,6,,65,100
110592,note_on,,,,,92,0,12,,,,,5,,41,101
110592,note_on,,,,,112,0,9,,,,,2,,81,101
110592,note_on,,,,,92,0,11,,,,,4,,53,101
110672,note_off,,,,,80,0,8,,,,,1,,81,100
110672,note_off,,,,,80,0,9,,,,,2,,81,100
110784,note_on,,,,,112,0,8,,,,,1,,72,100
110784,note_on,,,,,112,0,9,,,,,2,,72,100
110848,note_off,,,,,256,0,12,,,,,5,,41,100
110848,note_off,,,,,256,0,13,,,,,6,,65,100
110848,note_off,,,,,0,0,13,,,,,6,,69,100
110848,note_off,,,,,256,0,14,,,,,6,,53,100
110848,note_off,,,,,256,0,16,,,,,7,,53,100
110848,note_off,,,,,256,0,15,,,,,7,,65,100
110848,note_off,,,,,0,0,15,,,,,7,,69,100
110848,note_off,,,,,256,0,10,,,,,3,,65,100
110848,note_off,,,,,256,0,11,,,,,4,,53,100
110864,note_off,,,,,80,0,8,,,,,1,,72,100
110864,note_off,,,,,80,0,9,,,,,2,,72,100
110976,note_on,,,,,128,0,12,,,,,5,,38,100
110976,note_on,,,,,128,0,16,,,,,7,,50,100
110976,note_on,,,,,0,0,15,,,,,7,,65,100
110976,note_on,,,,,0,0,15,,,,,7,,69,100
110976,note_on,,,,,0,0,13,,,,,6,,69,100
110976,note_on,,,,,128,0,15,,,,,7,,59,100
110976,note_on,,,,,112,0,9,,,,,2,,71,100
110976,note_on,,,,,0,0,13,,,,,6,,65,100
110976,note_on,,,,,112,0,8,,,,,1,,71,100
110976,note_on,,,,,128,0,11,,,,,4,,50,100
110976,note_on,,,,,128,0,10,,,,,3,,65,100
110976,note_on,,,,,128,0,14,,,,,6,,50,100
110976,note_on,,,,,128,0,13,,,,,6,,59,100
111056,note_off,,,,,80,0,9,,,,,2,,71,100
111056,note_off,,,,,80,0,8,,,,,1,,71,100
111168,note_on,,,,,112,0,9,,,,,2,,81,100
111168,note_on,,,,,112,0,8,,,,,1,,81,100
111232,note_off,,,,,256,0,13,,,,,6,,59,100
111232,note_off,,,,,0,0,13,,,,,6,,65,100
111232,note_off,,,,,256,0,10,,,,,3,,65,100
111232,note_off,,,,,256,0,15,,,,,7,,59,100
111232,note_off,,,,,0,0,15,,,,,7,,69,100
111232,note_off,,,,,0,0,13,,,,,6,,69,100
111232,note_off,,,,,256,0,12,,,,,5,,38,100
111232,note_off,,,,,0,0,15,,,,,7,,65,100
111232,note_off,,,,,256,0,16,,,,,7,,50,100
111232,note_off,,,,,256,0,11,,,,,4,,50,100
111232,note_off,,,,,256,0,14,,,,,6,,50,100
111248,note_off,,,,,80,0,8,,,,,1,,81,100
111248,note_off,,,,,80,0,9,,,,,2,,81,100
111360,note_on,,,,,112,0,8,,,,,1,,71,100
111360,note_on,,,,,128,0,10,,,,,3,,64,100
111360,note_on,,,,,0,0,13,,,,,6,,68,100
111360,note_on,,,,,0,0,13,,,,,6,,64,100
111360,note_on,,,,,128,0,13,,,,,6,,59,100
111360,note_on,,,,,128,0,14,,,,,6,,52,100
111360,note_on,,,,,0,0,15,,,,,7,,68,100
111360,note_on,,,,,0,0,15,,,,,7,,64,100
111360,note_on,,,,,128,0,16,,,,,7,,52,100
111360,note_on,,,,,128,0,11,,,,,4,,52,100
111360,note_on,,,,,128,0,12,,,,,5,,40,100
111360,note_on,,,,,112,0,9,,,,,2,,71,100
111360,note_on,,,,,128,0,15,,,,,7,,59,100
111440,note_off,,,,,80,0,8,,,,,1,,71,100
111440,note_off,,,,,80,0,9,,,,,2,,71,100
111552,note_on,,,,,112,0,8,,,,,1,,80,100
111552,note_on,,,,,112,0,9,,,,,2,,80,100
111616,note_off,,,,,0,0,13,,,,,6,,68,100
111616,note_off,,,,,0,0,13,,,,,6,,64,100
111616,note_off,,,,,256,0,13,,,,,6,,59,100
111616,note_off,,,,,256,0,16,,,,,7,,52,100
111616,note_off,,,,,256,0,12,,,,,5,,40,100
111616,note_off,,,,,256,0,10,,,,,3,,64,100
111616,note_off,,,,,256,0,14,,,,,6,,52,100
111616,note_off,,,,,0,0,15,,,,,7,,68,100
111616,note_off,,,,,0,0,15,,,,,7,,64,100
111616,note_off,,,,,256,0,15,,,,,7,,59,100
111616,note_off,,,,,256,0,11,,,,,4,,52,100
111632,note_off,,,,,80,0,9,,,,,2,,80,100
111632,note_off,,,,,80,0,8,,,,,1,,80,100
111744,note_on,,,,,128,0,12,,,,,5,,33,100
111744,note_on,,,,,0,0,13,,,,,6,,64,100
111744,note_on,,,,,13696,0,7,,,,,0,,81,100
111744,note_on,,,,,128,0,13,,,,,6,,60,100
111744,note_on,,,,,112,0,9,,,,,2,,81,100
111744,note_on,,,,,128,0,14,,,,,6,,45,100
111744,note_on,,,,,0,0,13,,,,,6,,69,100
111744,note_on,,,,,128,0,16,,,,,7,,45,100
111744,note_on,,,,,128,0,11,,,,,4,,45,100
111744,note_on,,,,,112,0,8,,,,,1,,81,100
111744,note_on,,,,,128,0,10,,,,,3,,60,100
111744,note_on,,,,,128,0,15,,,,,7,,60,100
111744,note_on,,,,,0,0,15,,,,,7,,64,100
111744,note_on,,,,,0,0,15,,,,,7,,69,100
111868,note_off,,,,,124,0,7,,,,,0,,81,100
111872,note_on,,,,,4,0,7,,,,,0,,76,100
111956,note_off,,,,,84,0,7,,,,,0,,76,100
112000,note_off,,,,,256,0,16,,,,,7,,45,100
112000,note_off,,,,,256,0,12,,,,,5,,33,100
112000,note_off,,,,,256,0,9,,,,,2,,81,100
112000,note_off,,,,,256,0,11,,,,,4,,45,100
112000,note_on,,,,,44,0,7,,,,,0,,76,100
112000,note_off,,,,,256,0,14,,,,,6,,45,100
112000,note_off,,,,,0,0,13,,,,,6,,69,100
112000,note_off,,,,,0,0,15,,,,,7,,64,100
112000,note_off,,,,,256,0,15,,,,,7,,60,100
112000,note_off,,,,,0,0,13,,,,,6,,64,100
112000,note_off,,,,,256,0,13,,,,,6,,60,100
112000,note_off,,,,,256,0,8,,,,,1,,81,100
112000,note_off,,,,,0,0,15,,,,,7,,69,100
112000,note_off,,,,,256,0,10,,,,,3,,60,100
112084,note_off,,,,,84,0,7,,,,,0,,76,100
112124,program_change,,,,,124,0,11,,,,,4,42,,
112128,note_on,,,,,0,0,13,,,,,6,,72,100
112128,note_on,,,,,4,0,11,,,,,4,,57,75
112128,note_on,,,,,44,0,7,,,,,0,,81,100
112128,note_on,,,,,128,0,14,,,,,6,,57,100
112128,note_on,,,,,128,0,13,,,,,6,,64,100
112252,note_off,,,,,124,0,7,,,,,0,,81,100
112256,note_on,,,,,4,0,7,,,,,0,,76,99
112340,note_off,,,,,84,0,7,,,,,0,,76,100
112384,note_off,,,,,256,0,13,,,,,6,,64,100
112384,note_off,,,,,256,0,11,,,,,4,,57,100
112384,note_off,,,,,0,0,13,,,,,6,,72,100
112384,note_on,,,,,44,0,7,,,,,0,,76,99
112384,note_off,,,,,256,0,14,,,,,6,,57,100
112468,note_off,,,,,84,0,7,,,,,0,,76,100
112512,note_on,,,,,44,0,7,,,,,0,,81,99
112636,note_off,,,,,124,0,7,,,,,0,,81,100
112640,note_on,,,,,4,0,7,,,,,0,,76,99
112724,note_off,,,,,84,0,7,,,,,0,,76,100
112768,note_on,,,,,44,0,7,,,,,0,,76,98
112800,note_on,,,,,416,0,13,,,,,6,,64,100
112800,note_on,,,,,0,0,13,,,,,6,,72,100
112800,note_on,,,,,416,0,11,,,,,4,,57,75
112800,note_on,,,,,416,0,14,,,,,6,,57,100
112852,note_off,,,,,84,0,7,,,,,0,,76,100
112864,note_off,,,,,0,0,13,,,,,6,,72,100
112864,note_off,,,,,64,0,13,,,,,6,,64,100
112864,note_off,,,,,64,0,14,,,,,6,,57,100
112864,note_off,,,,,64,0,11,,,,,4,,57,100
112896,note_on,,,,,32,0,14,,,,,6,,56,100
112896,note_on,,,,,44,0,7,,,,,0,,83,98
112896,note_on,,,,,32,0,11,,,,,4,,56,75
112896,note_on,,,,,32,0,13,,,,,6,,71,100
112896,note_on,,,,,0,0,13,,,,,6,,64,100
113020,note_off,,,,,124,0,7,,,,,0,,83,100
113024,note_on,,,,,4,0,7,,,,,0,,76,98
113108,note_off,,,,,84,0,7,,,,,0,,76,100
113152,note_off,,,,,256,0,11,,,,,4,,56,100
113152,note_off,,,,,0,0,13,,,,,6,,64,100
113152,note_on,,,,,44,0,7,,,,,0,,76,97
113152,note_off,,,,,256,0,14,,,,,6,,56,100
113152,note_off,,,,,256,0,13,,,,,6,,71,100
113236,note_off,,,,,84,0,7,,,,,0,,76,100
113280,note_on,,,,,128,0,14,,,,,6,,55,100
113280,note_on,,,,,128,0,11,,,,,4,,55,75
113280,note_on,,,,,128,0,13,,,,,6,,71,100
113280,note_on,,,,,0,0,13,,,,,6,,64,100
113280,note_on,,,,,44,0,7,,,,,0,,83,97
113404,note_off,,,,,124,0,7,,,,,0,,83,100
113408,note_on,,,,,4,0,7,,,,,0,,76,97
113492,note_off,,,,,84,0,7,,,,,0,,76,100
113536,note_on,,,,,44,0,7,,,,,0,,76,97
113536,note_off,,,,,256,0,13,,,,,6,,71,100
113536,note_off,,,,,0,0,13,,,,,6,,64,100
113536,note_off,,,,,256,0,11,,,,,4,,55,100
113536,note_off,,,,,256,0,14,,,,,6,,55,100
113620,note_off,,,,,84,0,7,,,,,0,,76,100
113664,note_on,,,,,44,0,7,,,,,0,,83,96
113788,note_off,,,,,124,0,7,,,,,0,,83,100
113792,note_on,,,,,4,0,7,,,,,0,,76,96
113876,note_off,,,,,84,0,7,,,,,0,,76,100
113920,note_on,,,,,44,0,7,,,,,0,,76,96
113952,note_on,,,,,416,0,14,,,,,6,,55,100
113952,note_on,,,,,0,0,13,,,,,6,,71,100
113952,note_on,,,,,416,0,13,,,,,6,,64,100
113952,note_on,,,,,416,0,11,,,,,4,,55,75
114004,note_off,,,,,84,0,7,,,,,0,,76,100
114016,note_off,,,,,0,0,13,,,,,6,,71,100
114016,note_off,,,,,64,0,14,,,,,6,,55,100
114016,note_off,,,,,64,0,13,,,,,6,,64,100
114016,note_off,,,,,64,0,11,,,,,4,,55,100
114048,note_on,,,,,44,0,7,,,,,0,,84,95
114048,note_on,,,,,0,0,13,,,,,6,,64,100
114048,note_on,,,,,32,0,13,,,,,6,,69,100
114048,note_on,,,,,32,0,14,,,,,6,,54,100
114048,note_on,,,,,32,0,11,,,,,4,,54,75
114172,note_off,,,,,124,0,7,,,,,0,,84,100
114176,note_on,,,,,4,0,7,,,,,0,,76,95
114260,note_off,,,,,84,0,7,,,,,0,,76,100
114304,note_off,,,,,256,0,11,,,,,4,,54,100
114304,note_off,,,,,0,0,13,,,,,6,,64,100
114304,note_off,,,,,256,0,13,,,,,6,,69,100
114304,note_on,,,,,44,0,7,,,,,0,,76,95
114304,note_off,,,,,256,0,14,,,,,6,,54,100
114388,note_off,,,,,84,0,7,,,,,0,,76,100
114432,note_on,,,,,128,0,14,,,,,6,,53,100
114432,note_on,,,,,44,0,7,,,,,0,,84,95
114432,note_on,,,,,128,0,13,,,,,6,,69,100
114432,note_on,,,,,0,0,13,,,,,6,,62,100
114432,note_on,,,,,128,0,11,,,,,4,,53,75
114556,note_off,,,,,124,0,7,,,,,0,,84,100
114560,note_on,,,,,4,0,7,,,,,0,,76,94
114644,note_off,,,,,84,0,7,,,,,0,,76,100
114688,note_off,,,,,0,0,13,,,,,6,,62,100
114688,note_off,,,,,256,0,13,,,,,6,,69,100
114688,note_off,,,,,256,0,14,,,,,6,,53,100
114688,note_on,,,,,44,0,7,,,,,0,,76,94
114688,note_off,,,,,256,0,11,,,,,4,,53,100
114772,note_off,,,,,84,0,7,,,,,0,,76,100
114816,note_on,,,,,44,0,7,,,,,0,,84,94
114940,note_off,,,,,124,0,7,,,,,0,,84,100
114944,note_on,,,,,4,0,7,,,,,0,,76,93
115028,note_off,,,,,84,0,7,,,,,0,,76,100
115072,note_on,,,,,44,0,7,,,,,0,,76,93
115104,note_on,,,,,416,0,13,,,,,6,,62,100
115104,note_on,,,,,416,0,14,,,,,6,,53,100
115104,note_on,,,,,416,0,11,,,,,4,,53,75
115104,note_on,,,,,0,0,13,,,,,6,,69,100
115156,note_off,,,,,84,0,7,,,,,0,,76,100
115168,note_off,,,,,0,0,13,,,,,6,,69,100
115168,note_off,,,,,64,0,11,,,,,4,,53,100
115168,note_off,,,,,64,0,13,,,,,6,,62,100
115168,note_off,,,,,64,0,14,,,,,6,,53,100
115200,note_on,,,,,0,0,13,,,,,6,,68,100
115200,note_on,,,,,44,0,7,,,,,0,,86,93
115200,note_on,,,,,32,0,13,,,,,6,,59,100
115200,note_on,,,,,32,0,14,,,,,6,,52,100
115200,note_on,,,,,32,0,11,,,,,4,,52,75
115324,note_off,,,,,124,0,7,,,,,0,,86,100
115328,note_on,,,,,4,0,7,,,,,0,,76,93
115412,note_off,,,,,84,0,7,,,,,0,,76,100
115456,note_off,,,,,256,0,14,,,,,6,,52,100
115456,note_off,,,,,256,0,11,,,,,4,,52,100
115456,note_on,,,,,44,0,7,,,,,0,,76,92
115456,note_off,,,,,256,0,13,,,,,6,,59,100
115456,note_off,,,,,0,0,13,,,,,6,,68,100
115540,note_off,,,,,84,0,7,,,,,0,,76,100
115584,note_on,,,,,128,0,13,,,,,6,,59,100
115584,note_on,,,,,0,0,13,,,,,6,,68,100
115584,note_on,,,,,128,0,14,,,,,6,,52,100
115584,note_on,,,,,128,0,11,,,,,4,,52,75
115584,note_on,,,,,44,0,7,,,,,0,,86,92
115708,note_off,,,,,124,0,7,,,,,0,,86,100
115712,note_on,,,,,4,0,7,,,,,0,,76,92
115796,note_off,,,,,84,0,7,,,,,0,,76,100
115840,note_off,,,,,256,0,14,,,,,6,,52,100
115840,note_off,,,,,0,0,13,,,,,6,,68,100
115840,note_off,,,,,256,0,13,,,,,6,,59,100
115840,note_off,,,,,256,0,11,,,,,4,,52,100
115840,note_on,,,,,44,0,7,,,,,0,,76,91
115924,note_off,,,,,84,0,7,,,,,0,,76,100
115968,note_on,,,,,44,0,7,,,,,0,,86,91
116092,note_off,,,,,124,0,7,,,,,0,,86,100
116096,note_on,,,,,4,0,7,,,,,0,,76,91
116180,note_off,,,,,84,0,7,,,,,0,,76,100
116224,note_on,,,,,44,0,7,,,,,0,,76,91
116256,note_on,,,,,416,0,14,,,,,6,,52,100
116256,note_on,,,,,0,0,13,,,,,6,,59,100
116256,note_on,,,,,416,0,13,,,,,6,,68,100
116256,note_on,,,,,416,0,11,,,,,4,,52,75
116308,note_off,,,,,84,0,7,,,,,0,,76,100
116320,note_off,,,,,0,0,13,,,,,6,,59,100
116320,note_off,,,,,64,0,13,,,,,6,,68,100
116320,note_off,,,,,64,0,11,,,,,4,,52,100
116320,note_off,,,,,64,0,14,,,,,6,,52,100
116352,note_on,,,,,44,0,7,,,,,0,,84,94
116352,note_on,,,,,32,0,14,,,,,6,,57,100
116352,note_on,,,,,32,0,13,,,,,6,,64,100
116352,note_on,,,,,0,0,13,,,,,6,,72,100
116352,note_on,,,,,32,0,11,,,,,4,,57,75
116476,note_off,,,,,124,0,7,,,,,0,,84,100
116480,note_on,,,,,4,0,7,,,,,0,,76,94
116564,note_off,,,,,84,0,7,,,,,0,,76,100
116608,note_off,,,,,256,0,11,,,,,4,,57,100
116608,note_off,,,,,256,0,13,,,,,6,,64,100
116608,note_off,,,,,0,0,13,,,,,6,,72,100
116608,note_on,,,,,44,0,7,,,,,0,,76,94
116608,note_off,,,,,256,0,14,,,,,6,,57,100
116692,note_off,,,,,84,0,7,,,,,0,,76,100
116736,note_on,,,,,128,0,11,,,,,4,,57,75
116736,note_on,,,,,44,0,7,,,,,0,,84,94
116736,note_on,,,,,0,0,13,,,,,6,,72,100
116736,note_on,,,,,128,0,14,,,,,6,,57,100
116736,note_on,,,,,128,0,13,,,,,6,,64,100
116860,note_off,,,,,124,0,7,,,,,0,,84,100
116864,note_on,,,,,4,0,7,,,,,0,,76,95
116948,note_off,,,,,84,0,7,,,,,0,,76,100
116992,note_off,,,,,256,0,11,,,,,4,,57,100
116992,note_off,,,,,0,0,13,,,,,6,,72,100
116992,note_off,,,,,256,0,13,,,,,6,,64,100
116992,note_off,,,,,256,0,14,,,,,6,,57,100
116992,note_on,,,,,44,0,7,,,,,0,,76,95
117076,note_off,,,,,84,0,7,,,,,0,,76,100
117120,note_on,,,,,44,0,7,,,,,0,,84,95
117244,note_off,,,,,124,0,7,,,,,0,,84,100
117248,note_on,,,,,4,0,7,,,,,0,,76,95
117332,note_off,,,,,84,0,7,,,,,0,,76,100
117376,note_on,,,,,44,0,7,,,,,0,,76,96
117408,note_on,,,,,416,0,13,,,,,6,,64,100
117408,note_on,,,,,416,0,11,,,,,4,,57,75
117408,note_on,,,,,416,0,14,,,,,6,,57,100
117408,note_on,,,,,0,0,13,,,,,6,,72,100
117460,note_off,,,,,84,0,7,,,,,0,,76,100
117472,note_off,,,,,64,0,11,,,,,4,,57,100
117472,note_off,,,,,0,0,13,,,,,6,,72,100
117472,note_off,,,,,64,0,13,,,,,6,,64,100
117472,note_off,,,,,64,0,14,,,,,6,,57,100
117504,note_on,,,,,32,0,11,,,,,4,,56,75
117504,note_on,,,,,32,0,13,,,,,6,,65,100
117504,note_on,,,,,32,0,14,,,,,6,,56,100
117504,note_on,,,,,0,0,13,,,,,6,,71,100
117504,note_on,,,,,44,0,7,,,,,0,,83,96
117628,note_off,,,,,124,0,7,,,,,0,,83,100
117632,note_on,,,,,4,0,7,,,,,0,,76,96
117716,note_off,,,,,84,0,7,,,,,0,,76,100
117760,note_off,,,,,256,0,14,,,,,6,,56,100
117760,note_off,,,,,256,0,11,,,,,4,,56,100
117760,note_on,,,,,44,0,7,,,,,0,,76,96
117760,note_off,,,,,0,0,13,,,,,6,,71,100
117760,note_off,,,,,256,0,13,,,,,6,,65,100
117844,note_off,,,,,84,0,7,,,,,0,,76,100
117888,note_on,,,,,0,0,13,,,,,6,,64,100
117888,note_on,,,,,128,0,14,,,,,6,,55,100
117888,note_on,,,,,128,0,13,,,,,6,,71,100
117888,note_on,,,,,128,0,11,,,,,4,,55,75
117888,note_on,,,,,44,0,7,,,,,0,,83,97
118012,note_off,,,,,124,0,7,,,,,0,,83,100
118016,note_on,,,,,4,0,7,,,,,0,,76,97
118100,note_off,,,,,84,0,7,,,,,0,,76,100
118144,note_off,,,,,0,0,13,,,,,6,,64,100
118144,note_off,,,,,256,0,14,,,,,6,,55,100
118144,note_off,,,,,256,0,11,,,,,4,,55,100
118144,note_on,,,,,44,0,7,,,,,0,,76,97
118144,note_off,,,,,256,0,13,,,,,6,,71,100
118228,note_off,,,,,84,0,7,,,,,0,,76,100
118272,note_on,,,,,44,0,7,,,,,0,,83,97
118396,note_off,,,,,124,0,7,,,,,0,,83,100
118400,note_on,,,,,4,0,7,,,,,0,,76,98
118484,note_off,,,,,84,0,7,,,,,0,,76,100
118528,note_on,,,,,44,0,7,,,,,0,,76,98
118560,note_on,,,,,416,0,11,,,,,4,,55,75
118560,note_on,,,,,0,0,13,,,,,6,,71,100
118560,note_on,,,,,416,0,13,,,,,6,,64,100
118560,note_on,,,,,416,0,14,,,,,6,,55,100
118612,note_off,,,,,84,0,7,,,,,0,,76,100
118624,note_off,,,,,64,0,11,,,,,4,,55,100
118624,note_off,,,,,64,0,14,,,,,6,,55,100
118624,note_off,,,,,64,0,13,,,,,6,,64,100
118624,note_off,,,,,0,0,13,,,,,6,,71,100
118656,note_on,,,,,44,0,7,,,,,0,,81,98
118656,note_on,,,,,32,0,11,,,,,4,,54,75
118656,note_on,,,,,32,0,14,,,,,6,,54,100
118656,note_on,,,,,32,0,13,,,,,6,,69,100
118656,note_on,,,,,0,0,13,,,,,6,,64,100
118780,note_off,,,,,124,0,7,,,,,0,,81,100
118784,note_on,,,,,4,0,7,,,,,0,,76,98
118868,note_off,,,,,84,0,7,,,,,0,,76,100
118912,note_off,,,,,256,0,13,,,,,6,,69,100
118912,note_on,,,,,44,0,7,,,,,0,,76,99
118912,note_off,,,,,256,0,11,,,,,4,,54,100
118912,note_off,,,,,0,0,13,,,,,6,,64,100
118912,note_off,,,,,256,0,14,,,,,6,,54,100
118996,note_off,,,,,84,0,7,,,,,0,,76,100
119040,note_on,,,,,44,0,7,,,,,0,,81,99
119040,note_on,,,,,128,0,13,,,,,6,,69,100
119040,note_on,,,,,128,0,14,,,,,6,,53,100
119040,note_on,,,,,128,0,11,,,,,4,,53,75
119040,note_on,,,,,0,0,13,,,,,6,,62,100
119164,note_off,,,,,124,0,7,,,,,0,,81,100
119168,note_on,,,,,4,0,7,,,,,0,,76,99
119252,note_off,,,,,84,0,7,,,,,0,,76,100
119296,note_off,,,,,256,0,11,,,,,4,,53,100
119296,note_off,,,,,0,0,13,,,,,6,,62,100
119296,note_off,,,,,256,0,13,,,,,6,,69,100
119296,note_on,,,,,44,0,7,,,,,0,,76,99
119296,note_off,,,,,256,0,14,,,,,6,,53,100
119380,note_off,,,,,84,0,7,,,,,0,,76,100
119424,note_on,,,,,44,0,7,,,,,0,,81,100
119548,note_off,,,,,124,0,7,,,,,0,,81,100
119552,note_on,,,,,4,0,7,,,,,0,,76,100
119636,note_off,,,,,84,0,7,,,,,0,,76,100
119680,note_on,,,,,44,0,7,,,,,0,,76,100
119712,note_on,,,,,0,0,13,,,,,6,,69,100
119712,note_on,,,,,416,0,13,,,,,6,,62,100
119712,note_on,,,,,416,0,11,,,,,4,,53,75
119712,note_on,,,,,416,0,14,,,,,6,,53,100
119764,note_off,,,,,84,0,7,,,,,0,,76,100
119776,note_off,,,,,64,0,13,,,,,6,,62,100
119776,note_off,,,,,0,0,13,,,,,6,,69,100
119776,note_off,,,,,64,0,14,,,,,6,,53,100
119776,note_off,,,,,64,0,11,,,,,4,,53,100
119808,note_on,,,,,32,0,13,,,,,6,,59,100
119808,note_on,,,,,0,0,13,,,,,6,,68,100
119808,note_on,,,,,44,0,7,,,,,0,,80,101
119808,note_on,,,,,32,0,11,,,,,4,,52,75
119808,note_on,,,,,32,0,14,,,,,6,,52,100
119932,note_off,,,,,124,0,7,,,,,0,,80,100
119936,note_on,,,,,4,0,7,,,,,0,,76,100
120020,note_off,,,,,84,0,7,,,,,0,,76,100
120064,note_off,,,,,256,0,13,,,,,6,,59,100
120064,note_off,,,,,0,0,13,,,,,6,,68,100
120064,note_on,,,,,44,0,7,,,,,0,,76,99
120064,note_off,,,,,256,0,14,,,,,6,,52,100
120064,note_off,,,,,256,0,11,,,,,4,,52,100
120148,note_off,,,,,84,0,7,,,,,0,,76,100
120192,note_on,,,,,128,0,13,,,,,6,,59,100
120192,note_on,,,,,0,0,13,,,,,6,,68,100
120192,note_on,,,,,44,0,7,,,,,0,,80,98
120192,note_on,,,,,128,0,14,,,,,6,,52,100
120192,note_on,,,,,128,0,11,,,,,4,,52,75
120316,note_off,,,,,124,0,7,,,,,0,,80,100
120320,note_on,,,,,4,0,7,,,,,0,,76,97
120404,note_off,,,,,84,0,7,,,,,0,,76,100
120448,note_on,,,,,44,0,7,,,,,0,,76,95
120448,note_off,,,,,0,0,13,,,,,6,,68,100
120448,note_off,,,,,256,0,13,,,,,6,,59,100
120448,note_off,,,,,256,0,14,,,,,6,,52,100
120448,note_off,,,,,256,0,11,,,,,4,,52,100
120532,note_off,,,,,84,0,7,,,,,0,,76,100
120576,note_on,,,,,44,0,7,,,,,0,,80,94
120700,note_off,,,,,124,0,7,,,,,0,,80,100
120704,note_on,,,,,4,0,7,,,,,0,,76,93
120788,note_off,,,,,84,0,7,,,,,0,,76,100
120832,note_on,,,,,44,0,7,,,,,0,,76,92
120864,note_on,,,,,416,0,11,,,,,4,,52,75
120864,note_on,,,,,416,0,13,,,,,6,,59,100
120864,note_on,,,,,0,0,13,,,,,6,,68,100
120864,note_on,,,,,416,0,14,,,,,6,,52,100
120916,note_off,,,,,84,0,7,,,,,0,,76,100
120928,note_off,,,,,64,0,11,,,,,4,,52,100
120928,note_off,,,,,64,0,13,,,,,6,,59,100
120928,note_off,,,,,0,0,13,,,,,6,,68,100
120928,note_off,,,,,64,0,14,,,,,6,,52,100
120960,note_on,,,,,32,0,11,,,,,4,,52,75
120960,note_on,,,,,32,0,14,,,,,6,,52,100
120960,note_on,,,,,0,0,13,,,,,6,,62,100
120960,note_on,,,,,32,0,13,,,,,6,,68,100
120960,note_on,,,,,44,0,7,,,,,0,,83,91
120960,note_on,,,,,0,0,13,,,,,6,,59,100
121084,note_off,,,,,124,0,7,,,,,0,,83,100
121088,note_on,,,,,4,0,7,,,,,0,,74,88
121172,note_off,,,,,84,0,7,,,,,0,,74,100
121216,note_off,,,,,256,0,13,,,,,6,,68,100
121216,note_off,,,,,0,0,13,,,,,6,,59,100
121216,note_off,,,,,0,0,13,,,,,6,,62,100
121216,note_off,,,,,256,0,11,,,,,4,,52,100
121216,note_off,,,,,256,0,14,,,,,6,,52,100
121216,note_on,,,,,44,0,7,,,,,0,,74,89
121300,note_off,,,,,84,0,7,,,,,0,,74,100
121344,note_on,,,,,128,0,14,,,,,6,,52,100
121344,note_on,,,,,44,0,7,,,,,0,,83,91
121344,note_on,,,,,128,0,11,,,,,4,,52,75
121344,note_on,,,,,0,0,13,,,,,6,,62,100
121344,note_on,,,,,0,0,13,,,,,6,,59,100
121344,note_on,,,,,128,0,13,,,,,6,,68,100
121468,note_off,,,,,124,0,7,,,,,0,,83,100
121472,note_on,,,,,4,0,7,,,,,0,,74,92
121556,note_off,,,,,84,0,7,,,,,0,,74,100
121600,note_off,,,,,256,0,14,,,,,6,,52,100
121600,note_on,,,,,44,0,7,,,,,0,,74,94
121600,note_off,,,,,0,0,13,,,,,6,,62,100
121600,note_off,,,,,256,0,13,,,,,6,,68,100
121600,note_off,,,,,0,0,13,,,,,6,,59,100
121600,note_off,,,,,256,0,11,,,,,4,,52,100
121684,note_off,,,,,84,0,7,,,,,0,,74,100
121728,note_on,,,,,44,0,7,,,,,0,,83,96
121852,note_off,,,,,124,0,7,,,,,0,,83,100
121856,note_on,,,,,4,0,7,,,,,0,,74,97
121940,note_off,,,,,84,0,7,,,,,0,,74,100
121984,note_on,,,,,44,0,7,,,,,0,,74,99
122016,note_on,,,,,0,0,13,,,,,6,,68,100
122016,note_on,,,,,0,0,13,,,,,6,,62,100
122016,note_on,,,,,416,0,13,,,,,6,,59,100
122016,note_on,,,,,416,0,14,,,,,6,,52,100
122016,note_on,,,,,416,0,11,,,,,4,,52,75
122068,note_off,,,,,84,0,7,,,,,0,,74,100
122080,note_off,,,,,64,0,13,,,,,6,,59,100
122080,note_off,,,,,64,0,14,,,,,6,,52,100
122080,note_off,,,,,64,0,11,,,,,4,,52,100
122080,note_off,,,,,0,0,13,,,,,6,,62,100
122080,note_off,,,,,0,0,13,,,,,6,,68,100
122112,note_on,,,,,44,0,7,,,,,0,,72,100
122112,note_on,,,,,32,0,14,,,,,6,,45,100
122112,note_on,,,,,32,0,13,,,,,6,,60,100
122112,note_on,,,,,0,0,13,,,,,6,,64,100
122112,note_on,,,,,0,0,13,,,,,6,,69,100
122112,note_on,,,,,32,0,11,,,,,4,,45,75
122236,note_off,,,,,124,0,7,,,,,0,,72,100
122240,note_on,,,,,4,0,7,,,,,0,,69,100
122324,note_off,,,,,84,0,7,,,,,0,,69,100
122368,note_off,,,,,256,0,14,,,,,6,,45,100
122368,note_off,,,,,256,0,13,,,,,6,,60,100
122368,note_off,,,,,256,0,11,,,,,4,,45,100
122368,note_off,,,,,0,0,13,,,,,6,,69,100
122368,note_off,,,,,0,0,13,,,,,6,,64,100
122368,note_on,,,,,44,0,7,,,,,0,,69,100
122452,note_off,,,,,84,0,7,,,,,0,,69,100
122496,note_on,,,,,128,0,11,,,,,4,,48,76
122496,note_on,,,,,128,0,13,,,,,6,,64,100
122496,note_on,,,,,44,0,7,,,,,0,,81,100
122496,note_on,,,,,128,0,14,,,,,6,,48,100
122496,note_on,,,,,0,0,13,,,,,6,,69,100
122620,note_off,,,,,124,0,7,,,,,0,,81,100
122624,note_on,,,,,4,0,7,,,,,0,,72,100
122708,note_off,,,,,84,0,7,,,,,0,,72,100
122752,note_off,,,,,256,0,11,,,,,4,,48,100
122752,note_off,,,,,0,0,13,,,,,6,,69,100
122752,note_off,,,,,256,0,14,,,,,6,,48,100
122752,note_on,,,,,44,0,7,,,,,0,,72,100
122752,note_off,,,,,256,0,13,,,,,6,,64,100
122836,note_off,,,,,84,0,7,,,,,0,,72,100
122880,note_on,,,,,44,0,7,,,,,0,,81,100
123004,note_off,,,,,124,0,7,,,,,0,,81,100
123008,note_on,,,,,4,0,7,,,,,0,,72,100
123092,note_off,,,,,84,0,7,,,,,0,,72,100
123136,note_on,,,,,44,0,7,,,,,0,,72,100
123168,note_on,,,,,0,0,13,,,,,6,,69,100
123168,note_on,,,,,416,0,11,,,,,4,,48,78
123168,note_on,,,,,416,0,14,,,,,6,,48,100
123168,note_on,,,,,416,0,13,,,,,6,,64,100
123220,note_off,,,,,84,0,7,,,,,0,,72,100
123232,note_off,,,,,64,0,13,,,,,6,,64,100
123232,note_off,,,,,64,0,14,,,,,6,,48,100
123232,note_off,,,,,64,0,11,,,,,4,,48,100
123232,note_off,,,,,0,0,13,,,,,6,,69,100
123264,note_on,,,,,0,0,13,,,,,6,,71,100
123264,note_on,,,,,32,0,13,,,,,6,,69,100
123264,note_on,,,,,32,0,11,,,,,4,,50,78
123264,note_on,,,,,44,0,7,,,,,0,,81,100
123264,note_on,,,,,32,0,14,,,,,6,,50,100
123388,note_off,,,,,124,0,7,,,,,0,,81,100
123392,note_on,,,,,4,0,7,,,,,0,,71,100
123476,note_off,,,,,84,0,7,,,,,0,,71,100
123520,note_off,,,,,256,0,11,,,,,4,,50,100
123520,note_off,,,,,0,0,13,,,,,6,,71,100
123520,note_off,,,,,256,0,13,,,,,6,,69,100
123520,note_on,,,,,44,0,7,,,,,0,,71,100
123520,note_off,,,,,256,0,14,,,,,6,,50,100
123604,note_off,,,,,84,0,7,,,,,0,,71,100
123648,note_on,,,,,128,0,13,,,,,6,,71,100
123648,note_on,,,,,128,0,14,,,,,6,,50,100
123648,note_on,,,,,0,0,13,,,,,6,,69,100
123648,note_on,,,,,128,0,11,,,,,4,,50,79
123648,note_on,,,,,44,0,7,,,,,0,,81,100
123772,note_off,,,,,124,0,7,,,,,0,,81,100
123776,note_on,,,,,4,0,7,,,,,0,,71,101
123860,note_off,,,,,84,0,7,,,,,0,,71,100
123904,note_off,,,,,256,0,14,,,,,6,,50,100
123904,note_off,,,,,0,0,13,,,,,6,,69,100
123904,note_off,,,,,256,0,13,,,,,6,,71,100
123904,note_off,,,,,256,0,11,,,,,4,,50,100
123904,note_on,,,,,44,0,7,,,,,0,,71,101
123988,note_off,,,,,84,0,7,,,,,0,,71,100
124032,note_on,,,,,44,0,7,,,,,0,,81,101
124156,note_off,,,,,124,0,7,,,,,0,,81,100
124160,note_on,,,,,4,0,7,,,,,0,,71,101
124244,note_off,,,,,84,0,7,,,,,0,,71,100
124288,note_on,,,,,44,0,7,,,,,0,,71,102
124320,note_on,,,,,416,0,11,,,,,4,,50,81
124320,note_on,,,,,416,0,14,,,,,6,,50,100
124320,note_on,,,,,416,0,13,,,,,6,,69,100
124320,note_on,,,,,0,0,13,,,,,6,,71,100
124372,note_off,,,,,84,0,7,,,,,0,,71,100
124384,note_off,,,,,0,0,13,,,,,6,,71,100
124384,note_off,,,,,64,0,11,,,,,4,,50,100
124384,note_off,,,,,64,0,14,,,,,6,,50,100
124384,note_off,,,,,64,0,13,,,,,6,,69,100
124416,note_on,,,,,32,0,13,,,,,6,,68,100
124416,note_on,,,,,32,0,11,,,,,4,,52,81
124416,note_on,,,,,32,0,14,,,,,6,,52,100
124416,note_on,,,,,0,0,13,,,,,6,,71,100
124416,note_on,,,,,44,0,7,,,,,0,,80,102
124540,note_off,,,,,124,0,7,,,,,0,,80,100
124544,note_on,,,,,4,0,7,,,,,0,,71,102
124628,note_off,,,,,84,0,7,,,,,0,,71,100
124672,note_on,,,,,44,0,7,,,,,0,,71,103
124672,note_off,,,,,256,0,14,,,,,6,,52,100
124672,note_off,,,,,0,0,13,,,,,6,,71,100
124672,note_off,,,,,256,0,13,,,,,6,,68,100
124672,note_off,,,,,256,0,11,,,,,4,,52,100
124756,note_off,,,,,84,0,7,,,,,0,,71,100
124800,note_on,,,,,0,0,13,,,,,6,,71,100
124800,note_on,,,,,128,0,13,,,,,6,,68,100
124800,note_on,,,,,128,0,14,,,,,6,,52,100
124800,note_on,,,,,128,0,11,,,,,4,,52,83
124800,note_on,,,,,44,0,7,,,,,0,,80,103
124924,note_off,,,,,124,0,7,,,,,0,,80,100
124928,note_on,,,,,4,0,7,,,,,0,,71,103
125012,note_off,,,,,84,0,7,,,,,0,,71,100
125056,note_off,,,,,256,0,11,,,,,4,,52,100
125056,note_on,,,,,44,0,7,,,,,0,,71,103
125056,note_off,,,,,256,0,13,,,,,6,,68,100
125056,note_off,,,,,0,0,13,,,,,6,,71,100
125056,note_off,,,,,256,0,14,,,,,6,,52,100
125140,note_off,,,,,84,0,7,,,,,0,,71,100
125184,note_on,,,,,44,0,7,,,,,0,,80,104
125308,note_off,,,,,124,0,7,,,,,0,,80,100
125312,note_on,,,,,4,0,7,,,,,0,,71,104
125396,note_off,,,,,84,0,7,,,,,0,,71,100
125440,note_on,,,,,44,0,7,,,,,0,,71,104
125472,note_on,,,,,416,0,11,,,,,4,,52,84
125472,note_on,,,,,416,0,14,,,,,6,,52,100
125472,note_on,,,,,0,0,13,,,,,6,,71,100
125472,note_on,,,,,416,0,13,,,,,6,,68,100
125524,note_off,,,,,84,0,7,,,,,0,,71,100
125536,note_off,,,,,64,0,14,,,,,6,,52,100
125536,note_off,,,,,64,0,11,,,,,4,,52,100
125536,note_off,,,,,0,0,13,,,,,6,,71,100
125536,note_off,,,,,64,0,13,,,,,6,,68,100
125564,program_change,,,,,28,0,11,,,,,4,48,,
125568,note_on,,,,,32,0,13,,,,,6,,64,100
125568,note_on,,,,,13568,0,9,,,,,2,,81,100
125568,note_on,,,,,44,0,7,,,,,0,,81,104
125568,note_on,,,,,13568,0,10,,,,,3,,60,100
125568,note_on,,,,,13568,0,8,,,,,1,,81,100
125568,note_on,,,,,32,0,14,,,,,6,,45,100
125568,note_on,,,,,13568,0,16,,,,,7,,45,100
125568,note_on,,,,,0,0,13,,,,,6,,60,100
125568,note_on,,,,,13568,0,12,,,,,5,,33,100
125568,note_on,,,,,0,0,13,,,,,6,,69,100
125568,note_on,,,,,13568,0,15,,,,,7,,64,100
125568,note_on,,,,,0,0,15,,,,,7,,60,100
125568,note_on,,,,,4,0,11,,,,,4,,45,100
125568,note_on,,,,,0,0,15,,,,,7,,69,100
125648,note_off,,,,,80,0,9,,,,,2,,81,100
125648,note_off,,,,,80,0,8,,,,,1,,81,100
125668,end_of_track,,,,,0,1,7,,,,,,,,
125668,note_off,,,,,100,0,7,,,,,0,,81,100
125760,note_on,,,,,112,0,9,,,,,2,,69,100
125760,note_on,,,,,112,0,8,,,,,1,,69,100
125824,note_off,,,,,0,0,13,,,,,6,,69,100
125824,note_off,,,,,256,0,16,,,,,7,,45,100
125824,note_off,,,,,256,0,11,,,,,4,,45,100
125824,note_off,,,,,256,0,12,,,,,5,,33,100
125824,note_off,,,,,256,0,15,,,,,7,,64,100
125824,note_off,,,,,256,0,10,,,,,3,,60,100
125824,note_off,,,,,0,0,13,,,,,6,,60,100
125824,note_off,,,,,256,0,14,,,,,6,,45,100
125824,note_off,,,,,0,0,15,,,,,7,,60,100
125824,note_off,,,,,0,0,15,,,,,7,,69,100
125824,note_off,,,,,256,0,13,,,,,6,,64,100
125840,note_off,,,,,80,0,8,,,,,1,,69,100
125840,note_off,,,,,80,0,9,,,,,2,,69,100
125952,note_on,,,,,112,0,8,,,,,1,,81,100
125952,note_on,,,,,112,0,9,,,,,2,,81,100
126032,note_off,,,,,80,0,9,,,,,2,,81,100
126032,note_off,,,,,80,0,8,,,,,1,,81,100
126144,note_on,,,,,320,0,16,,,,,7,,48,100
126144,note_on,,,,,320,0,12,,,,,5,,36,100
126144,note_on,,,,,320,0,11,,,,,4,,48,100
126144,note_on,,,,,320,0,15,,,,,7,,60,100
126144,note_on,,,,,320,0,14,,,,,6,,48,100
126144,note_on,,,,,112,0,8,,,,,1,,81,100
126144,note_on,,,,,320,0,10,,,,,3,,60,100
126144,note_on,,,,,320,0,13,,,,,6,,60,100
126144,note_on,,,,,112,0,9,,,,,2,,81,100
126224,note_off,,,,,80,0,8,,,,,1,,81,100
126224,note_off,,,,,80,0,9,,,,,2,,81,100
126244,note_off,,,,,100,0,10,,,,,3,,60,100
126244,note_off,,,,,100,0,14,,,,,6,,48,100
126244,note_off,,,,,100,0,13,,,,,6,,60,100
126244,note_off,,,,,100,0,15,,,,,7,,60,100
126244,note_off,,,,,100,0,16,,,,,7,,48,100
126244,note_off,,,,,100,0,11,,,,,4,,48,100
126244,note_off,,,,,100,0,12,,,,,5,,36,100
126336,note_on,,,,,92,0,11,,,,,4,,50,100
126336,note_on,,,,,92,0,13,,,,,6,,62,100
126336,note_on,,,,,92,0,16,,,,,7,,50,100
126336,note_on,,,,,92,0,10,,,,,3,,62,100
126336,note_on,,,,,112,0,8,,,,,1,,81,100
126336,note_on,,,,,112,0,9,,,,,2,,81,100
126336,note_on,,,,,92,0,15,,,,,7,,62,100
126336,note_on,,,,,92,0,12,,,,,5,,38,100
126336,note_on,,,,,92,0,14,,,,,6,,50,100
126416,note_off,,,,,80,0,8,,,,,1,,81,100
126416,note_off,,,,,80,0,9,,,,,2,,81,100
126436,note_off,,,,,100,0,11,,,,,4,,50,100
126436,note_off,,,,,100,0,12,,,,,5,,38,100
126436,note_off,,,,,100,0,10,,,,,3,,62,100
126436,note_off,,,,,100,0,13,,,,,6,,62,100
126436,note_off,,,,,100,0,15,,,,,7,,62,100
126436,note_off,,,,,100,0,14,,,,,6,,50,100
126436,note_off,,,,,100,0,16,,,,,7,,50,100
126528,note_on,,,,,112,0,9,,,,,2,,81,100
126528,note_on,,,,,92,0,12,,,,,5,,40,100
126528,note_on,,,,,92,0,16,,,,,7,,52,100
126528,note_on,,,,,92,0,11,,,,,4,,52,100
126528,note_on,,,,,92,0,13,,,,,6,,64,100
126528,note_on,,,,,92,0,10,,,,,3,,64,100
126528,note_on,,,,,112,0,8,,,,,1,,81,100
126528,note_on,,,,,92,0,15,,,,,7,,64,100
126528,note_on,,,,,92,0,14,,,,,6,,52,100
126608,note_off,,,,,80,0,9,,,,,2,,81,100
126608,note_off,,,,,80,0,8,,,,,1,,81,100
126628,note_off,,,,,100,0,16,,,,,7,,52,100
126628,note_off,,,,,100,0,12,,,,,5,,40,100
126628,note_off,,,,,100,0,14,,,,,6,,52,100
126628,note_off,,,,,100,0,15,,,,,7,,64,100
126628,note_off,,,,,100,0,11,,,,,4,,52,100
126628,note_off,,,,,100,0,13,,,,,6,,64,100
126628,note_off,,,,,100,0,10,,,,,3,,64,100
126720,note_on,,,,,92,0,10,,,,,3,,65,100
126720,note_on,,,,,112,0,9,,,,,2,,81,100
126720,note_on,,,,,92,0,13,,,,,6,,65,100
126720,note_on,,,,,92,0,11,,,,,4,,53,100
126720,note_on,,,,,92,0,15,,,,,7,,65,100
126720,note_on,,,,,112,0,8,,,,,1,,81,100
126720,note_on,,,,,92,0,16,,,,,7,,53,100
126720,note_on,,,,,92,0,14,,,,,6,,53,100
126720,note_on,,,,,92,0,12,,,,,5,,41,100
126800,note_off,,,,,80,0,8,,,,,1,,81,100
126800,note_off,,,,,80,0,9,,,,,2,,81,100
126912,note_on,,,,,112,0,9,,,,,2,,69,100
126912,note_on,,,,,112,0,8,,,,,1,,69,100
126976,note_off,,,,,256,0,15,,,,,7,,65,100
126976,note_off,,,,,256,0,10,,,,,3,,65,100
126976,note_off,,,,,256,0,12,,,,,5,,41,100
126976,note_off,,,,,256,0,11,,,,,4,,53,100
126976,note_off,,,,,256,0,16,,,,,7,,53,100
126976,note_off,,,,,256,0,13,,,,,6,,65,100
126976,note_off,,,,,256,0,14,,,,,6,,53,100
126992,note_off,,,,,80,0,8,,,,,1,,69,100
126992,note_off,,,,,80,0,9,,,,,2,,69,100
127104,note_on,,,,,112,0,8,,,,,1,,81,100
127104,note_on,,,,,112,0,9,,,,,2,,81,100
127184,note_off,,,,,80,0,8,,,,,1,,81,100
127184,note_off,,,,,80,0,9,,,,,2,,81,100
127296,note_on,,,,,112,0,8,,,,,1,,81,100
127296,note_on,,,,,112,0,9,,,,,2,,81,100
127296,note_on,,,,,320,0,15,,,,,7,,60,100
127296,note_on,,,,,320,0,11,,,,,4,,48,100
127296,note_on,,,,,320,0,10,,,,,3,,60,100
127296,note_on,,,,,320,0,12,,,,,5,,36,100
127296,note_on,,,,,320,0,16,,,,,7,,48,100
127296,note_on,,,,,320,0,13,,,,,6,,60,100
127296,note_on,,,,,320,0,14,,,,,6,,48,100
127376,note_off,,,,,80,0,8,,,,,1,,81,100
127376,note_off,,,,,80,0,9,,,,,2,,81,100
127396,note_off,,,,,100,0,16,,,,,7,,48,100
127396,note_off,,,,,100,0,11,,,,,4,,48,100
127396,note_off,,,,,100,0,14,,,,,6,,48,100
127396,note_off,,,,,100,0,15,,,,,7,,60,100
127396,note_off,,,,,100,0,13,,,,,6,,60,100
127396,note_off,,,,,100,0,12,,,,,5,,36,100
127396,note_off,,,,,100,0,10,,,,,3,,60,100
127488,note_on,,,,,92,0,14,,,,,6,,50,100
127488,note_on,,,,,112,0,9,,,,,2,,81,100
127488,note_on,,,,,92,0,12,,,,,5,,38,100
127488,note_on,,,,,92,0,10,,,,,3,,62,100
127488,note_on,,,,,92,0,11,,,,,4,,50,100
127488,note_on,,,,,92,0,16,,,,,7,,50,100
127488,note_on,,,,,92,0,15,,,,,7,,62,100
127488,note_on,,,,,112,0,8,,,,,1,,81,100
127488,note_on,,,,,92,0,13,,,,,6,,62,100
127568,note_off,,,,,80,0,9,,,,,2,,81,100
127568,note_off,,,,,80,0,8,,,,,1,,81,100
127588,note_off,,,,,100,0,16,,,,,7,,50,100
127588,note_off,,,,,100,0,15,,,,,7,,62,100
127588,note_off,,,,,100,0,11,,,,,4,,50,100
127588,note_off,,,,,100,0,14,,,,,6,,50,100
127588,note_off,,,,,100,0,10,,,,,3,,62,100
127588,note_off,,,,,100,0,13,,,,,6,,62,100
127588,note_off,,,,,100,0,12,,,,,5,,38,100
127680,note_on,,,,,92,0,16,,,,,7,,52,100
127680,note_on,,,,,92,0,15,,,,,7,,64,100
127680,note_on,,,,,92,0,13,,,,,6,,64,100
127680,note_on,,,,,92,0,10,,,,,3,,64,100
127680,note_on,,,,,92,0,11,,,,,4,,52,100
127680,note_on,,,,,112,0,9,,,,,2,,81,100
127680,note_on,,,,,92,0,14,,,,,6,,52,100
127680,note_on,,,,,112,0,8,,,,,1,,81,100
127680,note_on,,,,,92,0,12,,,,,5,,40,100
127760,note_off,,,,,80,0,9,,,,,2,,81,100
127760,note_off,,,,,80,0,8,,,,,1,,81,100
127780,note_off,,,,,100,0,12,,,,,5,,40,100
127780,note_off,,,,,100,0,11,,,,,4,,52,100
127780,note_off,,,,,100,0,10,,,,,3,,64,100
127780,note_off,,,,,100,0,16,,,,,7,,52,100
127780,note_off,,,,,100,0,13,,,,,6,,64,100
127780,note_off,,,,,100,0,15,,,,,7,,64,100
127780,note_off,,,,,100,0,14,,,,,6,,52,100
127872,note_on,,,,,92,0,16,,,,,7,,53,100
127872,note_on,,,,,92,0,12,,,,,5,,41,100
127872,note_on,,,,,0,0,15,,,,,7,,69,100
127872,note_on,,,,,92,0,15,,,,,7,,65,100
127872,note_on,,,,,92,0,14,,,,,6,,53,100
127872,note_on,,,,,112,0,8,,,,,1,,81,100
127872,note_on,,,,,92,0,10,,,,,3,,65,100
127872,note_on,,,,,0,0,13,,,,,6,,69,100
127872,note_on,,,,,92,0,11,,,,,4,,53,100
127872,note_on,,,,,92,0,13,,,,,6,,65,100
127872,note_on,,,,,112,0,9,,,,,2,,81,100
127952,note_off,,,,,80,0,8,,,,,1,,81,100
127952,note_off,,,,,80,0,9,,,,,2,,81,100
128064,note_on,,,,,112,0,8,,,,,1,,72,100
128064,note_on,,,,,112,0,9,,,,,2,,72,100
128128,note_off,,,,,256,0,14,,,,,6,,53,100
128128,note_off,,,,,256,0,16,,,,,7,,53,100
128128,note_off,,,,,256,0,10,,,,,3,,65,100
128128,note_off,,,,,256,0,12,,,,,5,,41,100
128128,note_off,,,,,0,0,15,,,,,7,,69,100
128128,note_off,,,,,256,0,15,,,,,7,,65,100
128128,note_off,,,,,256,0,13,,,,,6,,65,100
128128,note_off,,,,,0,0,13,,,,,6,,69,100
128128,note_off,,,,,256,0,11,,,,,4,,53,100
128144,note_off,,,,,80,0,9,,,,,2,,72,100
128144,note_off,,,,,80,0,8,,,,,1,,72,100
128256,note_on,,,,,128,0,16,,,,,7,,50,100
128256,note_on,,,,,128,0,13,,,,,6,,59,100
128256,note_on,,,,,128,0,10,,,,,3,,65,100
128256,note_on,,,,,0,0,13,,,,,6,,69,100
128256,note_on,,,,,112,0,8,,,,,1,,71,100
128256,note_on,,,,,128,0,12,,,,,5,,38,100
128256,note_on,,,,,0,0,15,,,,,7,,69,100
128256,note_on,,,,,112,0,9,,,,,2,,71,100
128256,note_on,,,,,128,0,15,,,,,7,,59,100
128256,note_on,,,,,128,0,14,,,,,6,,50,100
128256,note_on,,,,,128,0,11,,,,,4,,50,100
128256,note_on,,,,,0,0,15,,,,,7,,65,100
128256,note_on,,,,,0,0,13,,,,,6,,65,100
128336,note_off,,,,,80,0,9,,,,,2,,71,100
128336,note_off,,,,,80,0,8,,,,,1,,71,100
128448,note_on,,,,,112,0,9,,,,,2,,81,100
128448,note_on,,,,,112,0,8,,,,,1,,81,100
128512,note_off,,,,,256,0,16,,,,,7,,50,100
128512,note_off,,,,,256,0,12,,,,,5,,38,100
128512,note_off,,,,,256,0,13,,,,,6,,59,100
128512,note_off,,,,,0,0,13,,,,,6,,65,100
128512,note_off,,,,,0,0,13,,,,,6,,69,100
128512,note_off,,,,,256,0,14,,,,,6,,50,100
128512,note_off,,,,,0,0,15,,,,,7,,65,100
128512,note_off,,,,,256,0,10,,,,,3,,65,100
128512,note_off,,,,,256,0,11,,,,,4,,50,100
128512,note_off,,,,,256,0,15,,,,,7,,59,100
128512,note_off,,,,,0,0,15,,,,,7,,69,100
128528,note_off,,,,,80,0,9,,,,,2,,81,100
128528,note_off,,,,,80,0,8,,,,,1,,81,100
128640,note_on,,,,,112,0,9,,,,,2,,71,100
128640,note_on,,,,,0,0,13,,,,,6,,68,100
128640,note_on,,,,,0,0,13,,,,,6,,64,100
128640,note_on,,,,,128,0,13,,,,,6,,59,100
128640,note_on,,,,,128,0,16,,,,,7,,52,100
128640,note_on,,,,,128,0,15,,,,,7,,59,100
128640,note_on,,,,,0,0,15,,,,,7,,64,100
128640,note_on,,,,,0,0,15,,,,,7,,68,100
128640,note_on,,,,,128,0,14,,,,,6,,52,100
128640,note_on,,,,,128,0,11,,,,,4,,52,100
128640,note_on,,,,,128,0,10,,,,,3,,64,100
128640,note_on,,,,,112,0,8,,,,,1,,71,100
128640,note_on,,,,,128,0,12,,,,,5,,40,100
128720,note_off,,,,,80,0,8,,,,,1,,71,100
128720,note_off,,,,,80,0,9,,,,,2,,71,100
128832,note_on,,,,,112,0,8,,,,,1,,80,100
128832,note_on,,,,,112,0,9,,,,,2,,80,100
128896,note_off,,,,,256,0,12,,,,,5,,40,100
128896,note_off,,,,,256,0,14,,,,,6,,52,100
128896,note_off,,,,,0,0,15,,,,,7,,64,100
128896,note_off,,,,,256,0,15,,,,,7,,59,100
128896,note_off,,,,,256,0,11,,,,,4,,52,100
128896,note_off,,,,,0,0,13,,,,,6,,64,100
128896,note_off,,,,,256,0,13,,,,,6,,59,100
128896,note_off,,,,,256,0,10,,,,,3,,64,100
128896,note_off,,,,,256,0,16,,,,,7,,52,100
128896,note_off,,,,,0,0,13,,,,,6,,68,100
128896,note_off,,,,,0,0,15,,,,,7,,68,100
128912,note_off,,,,,80,0,9,,,,,2,,80,100
128912,note_off,,,,,80,0,8,,,,,1,,80,100
129024,note_on,,,,,128,0,15,,,,,7,,60,100
129024,note_on,,,,,128,0,10,,,,,3,,60,100
129024,note_on,,,,,128,0,11,,,,,4,,45,100
129024,note_on,,,,,0,0,15,,,,,7,,64,100
129024,note_on,,,,,0,0,15,,,,,7,,69,100
129024,note_on,,,,,112,0,8,,,,,1,,81,100
129024,note_on,,,,,128,0,12,,,,,5,,33,100
129024,note_on,,,,,112,0,9,,,,,2,,81,100
129024,note_on,,,,,128,0,13,,,,,6,,60,100
129024,note_on,,,,,0,0,13,,,,,6,,64,100
129024,note_on,,,,,0,0,13,,,,,6,,69,100
129024,note_on,,,,,128,0,14,,,,,6,,45,100
129024,note_on,,,,,128,0,16,,,,,7,,45,100
129152,note_off,,,,,128,0,9,,,,,2,,81,100
129152,note_off,,,,,128,0,8,,,,,1,,81,100
129216,note_on,,,,,64,0,9,,,,,2,,79,100
129216,note_on,,,,,64,0,8,,,,,1,,79,100
129280,note_off,,,,,256,0,16,,,,,7,,45,100
129280,note_off,,,,,64,0,8,,,,,1,,79,100
129280,note_off,,,,,0,0,13,,,,,6,,69,100
129280,note_off,,,,,0,0,13,,,,,6,,64,100
129280,note_off,,,,,64,0,9,,,,,2,,79,100
129280,note_off,,,,,256,0,12,,,,,5,,33,100
129280,note_off,,,,,256,0,13,,,,,6,,60,100
129280,note_off,,,,,256,0,15,,,,,7,,60,100
129280,note_off,,,,,0,0,15,,,,,7,,64,100
129280,note_off,,,,,256,0,14,,,,,6,,45,100
129280,note_off,,,,,256,0,10,,,,,3,,60,100
129280,note_off,,,,,256,0,11,,,,,4,,45,100
129280,note_off,,,,,0,0,15,,,,,7,,69,100
129312,note_on,,,,,32,0,8,,,,,1,,77,100
129312,note_on,,,,,32,0,9,,,,,2,,77,100
129376,note_off,,,,,64,0,8,,,,,1,,77,100
129376,note_off,,,,,64,0,9,,,,,2,,77,100
129408,note_on,,,,,32,0,9,,,,,2,,76,100
129408,note_on,,,,,32,0,8,,,,,1,,76,100
129488,note_off,,,,,80,0,9,,,,,2,,76,100
129488,note_off,,,,,80,0,8,,,,,1,,76,100
129600,note_on,,,,,112,0,8,,,,,1,,74,100
129600,note_on,,,,,112,0,9,,,,,2,,74,100
129680,note_off,,,,,80,0,9,,,,,2,,74,100
129680,note_off,,,,,80,0,8,,,,,1,,74,100
129792,note_on,,,,,112,0,9,,,,,2,,72,100
129792,note_on,,,,,112,0,8,,,,,1,,72,100
129872,note_off,,,,,80,0,8,,,,,1,,72,100
129872,note_off,,,,,80,0,9,,,,,2,,72,100
129984,note_on,,,,,112,0,8,,,,,1,,71,100
129984,note_on,,,,,112,0,9,,,,,2,,71,100
130064,note_off,,,,,80,0,9,,,,,2,,71,100
130064,note_off,,,,,80,0,8,,,,,1,,71,100
130176,note_on,,,,,896,0,16,,,,,7,,57,100
130176,note_on,,,,,896,0,13,,,,,6,,69,100
130176,note_on,,,,,112,0,9,,,,,2,,69,100
130176,note_on,,,,,112,0,8,,,,,1,,69,100
130176,note_on,,,,,896,0,11,,,,,4,,57,100
130176,note_on,,,,,896,0,12,,,,,5,,45,100
130176,note_on,,,,,896,0,10,,,,,3,,69,100
130176,note_on,,,,,896,0,15,,,,,7,,69,100
130176,note_on,,,,,896,0,14,,,,,6,,57,100
130304,note_off,,,,,128,0,11,,,,,4,,57,100
130304,note_off,,,,,128,0,10,,,,,3,,69,100
130304,note_off,,,,,128,0,14,,,,,6,,57,100
130304,note_off,,,,,128,0,16,,,,,7,,57,100
130304,note_off,,,,,128,0,9,,,,,2,,69,100
130304,note_off,,,,,128,0,13,,,,,6,,69,100
130304,note_off,,,,,128,0,15,,,,,7,,69,100
130304,note_off,,,,,128,0,8,,,,,1,,69,100
130304,note_off,,,,,128,0,12,,,,,5,,45,100
130368,note_on,,,,,64,0,8,,,,,1,,67,100
130368,note_on,,,,,64,0,9,,,,,2,,67,100
130368,note_on,,,,,64,0,10,,,,,3,,67,100
130368,note_on,,,,,64,0,15,,,,,7,,67,100
130368,note_on,,,,,64,0,14,,,,,6,,55,100
130368,note_on,,,,,64,0,13,,,,,6,,67,100
130368,note_on,,,,,64,0,11,,,,,4,,55,100
130368,note_on,,,,,64,0,12,,,,,5,,43,100
130368,note_on,,,,,64,0,16,,,,,7,,55,100
130432,note_off,,,,,64,0,16,,,,,7,,55,100
130432,note_off,,,,,64,0,12,,,,,5,,43,100
130432,note_off,,,,,64,0,13,,,,,6,,67,100
130432,note_off,,,,,64,0,14,,,,,6,,55,100
130432,note_off,,,,,64,0,9,,,,,2,,67,100
130432,note_off,,,,,64,0,8,,,,,1,,67,100
130432,note_off,,,,,64,0,11,,,,,4,,55,100
130432,note_off,,,,,64,0,10,,,,,3,,67,100
130432,note_off,,,,,64,0,15,,,,,7,,67,100
130464,note_on,,,,,32,0,14,,,,,6,,53,100
130464,note_on,,,,,32,0,16,,,,,7,,53,100
130464,note_on,,,,,32,0,12,,,,,5,,41,100
130464,note_on,,,,,32,0,9,,,,,2,,65,100
130464,note_on,,,,,32,0,8,,,,,1,,65,100
130464,note_on,,,,,32,0,10,,,,,3,,65,100
130464,note_on,,,,,32,0,13,,,,,6,,65,100
130464,note_on,,,,,32,0,11,,,,,4,,53,100
130464,note_on,,,,,32,0,15,,,,,7,,65,100
130528,note_off,,,,,64,0,15,,,,,7,,65,100
130528,note_off,,,,,64,0,8,,,,,1,,65,100
130528,note_off,,,,,64,0,14,,,,,6,,53,100
130528,note_off,,,,,64,0,9,,,,,2,,65,100
130528,note_off,,,,,64,0,13,,,,,6,,65,100
130528,note_off,,,,,64,0,10,,,,,3,,65,100
130528,note_off,,,,,64,0,12,,,,,5,,41,100
130528,note_off,,,,,64,0,11,,,,,4,,53,100
130528,note_off,,,,,64,0,16,,,,,7,,53,100
130560,note_on,,,,,32,0,14,,,,,6,,52,100
130560,note_on,,,,,32,0,13,,,,,6,,64,100
130560,note_on,,,,,32,0,10,,,,,3,,64,100
130560,note_on,,,,,32,0,8,,,,,1,,64,100
130560,note_on,,,,,32,0,9,,,,,2,,64,100
130560,note_on,,,,,32,0,16,,,,,7,,52,100
130560,note_on,,,,,32,0,12,,,,,5,,40,100
130560,note_on,,,,,32,0,15,,,,,7,,64,100
130560,note_on,,,,,32,0,11,,,,,4,,52,100
130640,note_off,,,,,80,0,12,,,,,5,,40,100
130640,note_off,,,,,80,0,16,,,,,7,,52,100
130640,note_off,,,,,80,0,15,,,,,7,,64,100
130640,note_off,,,,,80,0,14,,,,,6,,52,100
130640,note_off,,,,,80,0,10,,,,,3,,64,100
130640,note_off,,,,,80,0,13,,,,,6,,64,100
130640,note_off,,,,,80,0,8,,,,,1,,64,100
130640,note_off,,,,,80,0,9,,,,,2,,64,100
130640,note_off,,,,,80,0,11,,,,,4,,52,100
130752,note_on,,,,,112,0,13,,,,,6,,62,100
130752,note_on,,,,,112,0,8,,,,,1,,62,100
130752,note_on,,,,,112,0,11,,,,,4,,50,100
130752,note_on,,,,,112,0,14,,,,,6,,50,100
130752,note_on,,,,,112,0,9,,,,,2,,62,100
130752,note_on,,,,,112,0,10,,,,,3,,62,100
130752,note_on,,,,,112,0,16,,,,,7,,50,100
130752,note_on,,,,,112,0,12,,,,,5,,38,100
130752,note_on,,,,,112,0,15,,,,,7,,62,100
130832,note_off,,,,,80,0,12,,,,,5,,38,100
130832,note_off,,,,,80,0,11,,,,,4,,50,100
130832,note_off,,,,,80,0,8,,,,,1,,62,100
130832,note_off,,,,,80,0,16,,,,,7,,50,100
130832,note_off,,,,,80,0,13,,,,,6,,62,100
130832,note_off,,,,,80,0,15,,,,,7,,62,100
130832,note_off,,,,,80,0,14,,,,,6,,50,100
130832,note_off,,,,,80,0,9,,,,,2,,62,100
130832,note_off,,,,,80,0,10,,,,,3,,62,100
130944,note_on,,,,,112,0,9,,,,,2,,60,100
130944,note_on,,,,,112,0,11,,,,,4,,48,100
130944,note_on,,,,,112,0,14,,,,,6,,48,100
130944,note_on,,,,,112,0,13,,,,,6,,60,100
130944,note_on,,,,,112,0,12,,,,,5,,36,100
130944,note_on,,,,,112,0,10,,,,,3,,60,100
130944,note_on,,,,,112,0,8,,,,,1,,60,100
130944,note_on,,,,,112,0,15,,,,,7,,60,100
130944,note_on,,,,,112,0,16,,,,,7,,48,100
131024,note_off,,,,,80,0,11,,,,,4,,48,100
131024,note_off,,,,,80,0,10,,,,,3,,60,100
131024,note_off,,,,,80,0,8,,,,,1,,60,100
131024,note_off,,,,,80,0,16,,,,,7,,48,100
131024,note_off,,,,,80,0,15,,,,,7,,60,100
131024,note_off,,,,,80,0,13,,,,,6,,60,100
131024,note_off,,,,,80,0,9,,,,,2,,60,100
131024,note_off,,,,,80,0,14,,,,,6,,48,100
131024,note_off,,,,,80,0,12,,,,,5,,36,100
131136,note_on,,,,,112,0,15,,,,,7,,59,100
131136,note_on,,,,,112,0,9,,,,,2,,59,100
131136,note_on,,,,,112,0,11,,,,,4,,47,100
131136,note_on,,,,,112,0,16,,,,,7,,47,100
131136,note_on,,,,,112,0,12,,,,,5,,35,100
131136,note_on,,,,,112,0,14,,,,,6,,47,100
131136,note_on,,,,,112,0,10,,,,,3,,59,100
131136,note_on,,,,,112,0,8,,,,,1,,59,100
131136,note_on,,,,,112,0,13,,,,,6,,59,100
131216,note_off,,,,,80,0,11,,,,,4,,47,100
131216,note_off,,,,,80,0,14,,,,,6,,47,100
131216,note_off,,,,,80,0,10,,,,,3,,59,100
131216,note_off,,,,,80,0,16,,,,,7,,47,100
131216,note_off,,,,,80,0,12,,,,,5,,35,100
131216,note_off,,,,,80,0,8,,,,,1,,59,100
131216,note_off,,,,,80,0,13,,,,,6,,59,100
131216,note_off,,,,,80,0,9,,,,,2,,59,100
131216,note_off,,,,,80,0,15,,,,,7,,59,100
131328,note_on,,,,,112,0,8,,,,,1,,57,100
131328,note_on,,,,,112,0,11,,,,,4,,45,100
131328,note_on,,,,,112,0,10,,,,,3,,57,100
131328,note_on,,,,,112,0,16,,,,,7,,45,100
131328,note_on,,,,,112,0,14,,,,,6,,45,100
131328,set_tempo,,,,,33024,1,0,,500000,,,,,,
131328,note_on,,,,,112,0,9,,,,,2,,57,100
131328,note_on,,,,,112,0,15,,,,,7,,57,100
131328,note_on,,,,,112,0,13,,,,,6,,57,100
131328,note_on,,,,,112,0,12,,,,,5,,33,100
131584,note_off,,,,,256,0,13,,,,,6,,57,100
131584,note_off,,,,,256,0,15,,,,,7,,57,100
131584,note_off,,,,,256,0,11,,,,,4,,45,100
131584,note_off,,,,,256,0,8,,,,,1,,57,100
131584,note_off,,,,,256,0,10,,,,,3,,57,100
131584,note_off,,,,,256,0,9,,,,,2,,57,100
131584,note_off,,,,,256,0,16,,,,,7,,45,100
131584,note_off,,,,,256,0,12,,,,,5,,33,100
131584,note_off,,,,,256,0,14,,,,,6,,45,100
131904,note_on,,,,,320,0,11,,,,,4,,48,100
131904,note_on,,,,,320,0,10,,,,,3,,60,100
131904,note_on,,,,,320,0,8,,,,,1,,60,100
131904,note_on,,,,,320,0,16,,,,,7,,48,100
131904,note_on,,,,,320,0,13,,,,,6,,60,100
131904,note_on,,,,,320,0,14,,,,,6,,48,100
131904,note_on,,,,,320,0,15,,,,,7,,60,100
131904,set_tempo,,,,,576,1,0,,504201,,,,,,
131904,note_on,,,,,320,0,9,,,,,2,,60,100
131904,note_on,,,,,320,0,12,,,,,5,,36,100
132004,note_off,,,,,100,0,14,,,,,6,,48,100
132004,note_off,,,,,100,0,11,,,,,4,,48,100
132004,note_off,,,,,100,0,10,,,,,3,,60,100
132004,note_off,,,,,100,0,9,,,,,2,,60,100
132004,note_off,,,,,100,0,12,,,,,5,,36,100
132004,note_off,,,,,100,0,8,,,,,1,,60,100
132004,note_off,,,,,100,0,16,,,,,7,,48,100
132004,note_off,,,,,100,0,13,,,,,6,,60,100
132004,note_off,,,,,100,0,15,,,,,7,,60,100
132096,note_on,,,,,92,0,12,,,,,5,,38,100
132096,note_on,,,,,92,0,13,,,,,6,,62,100
132096,note_on,,,,,92,0,16,,,,,7,,50,100
132096,note_on,,,,,92,0,11,,,,,4,,50,100
132096,note_on,,,,,92,0,10,,,,,3,,62,100
132096,note_on,,,,,92,0,9,,,,,2,,62,100
132096,note_on,,,,,92,0,15,,,,,7,,62,100
132096,note_on,,,,,92,0,14,,,,,6,,50,100
132096,note_on,,,,,92,0,8,,,,,1,,62,100
132196,note_off,,,,,100,0,13,,,,,6,,62,100
132196,note_off,,,,,100,0,14,,,,,6,,50,100
132196,note_off,,,,,100,0,15,,,,,7,,62,100
132196,note_off,,,,,100,0,11,,,,,4,,50,100
132196,note_off,,,,,100,0,16,,,,,7,,50,100
132196,note_off,,,,,100,0,9,,,,,2,,62,100
132196,note_off,,,,,100,0,12,,,,,5,,38,100
132196,note_off,,,,,100,0,10,,,,,3,,62,100
132196,note_off,,,,,100,0,8,,,,,1,,62,100
132288,note_on,,,,,92,0,14,,,,,6,,52,100
132288,note_on,,,,,92,0,11,,,,,4,,52,100
132288,note_on,,,,,92,0,9,,,,,2,,64,100
132288,note_on,,,,,92,0,10,,,,,3,,64,100
132288,note_on,,,,,92,0,12,,,,,5,,40,100
132288,note_on,,,,,92,0,16,,,,,7,,52,100
132288,note_on,,,,,92,0,8,,,,,1,,64,100
132288,note_on,,,,,92,0,15,,,,,7,,64,100
132288,note_on,,,,,92,0,13,,,,,6,,64,100
132388,note_off,,,,,100,0,9,,,,,2,,64,100
132388,note_off,,,,,100,0,15,,,,,7,,64,100
132388,note_off,,,,,100,0,13,,,,,6,,64,100
132388,note_off,,,,,100,0,16,,,,,7,,52,100
132388,note_off,,,,,100,0,10,,,,,3,,64,100
132388,note_off,,,,,100,0,12,,,,,5,,40,100
132388,note_off,,,,,100,0,11,,,,,4,,52,100
132388,note_off,,,,,100,0,14,,,,,6,,52,100
132388,note_off,,,,,100,0,8,,,,,1,,64,100
132480,note_on,,,,,92,0,12,,,,,5,,41,100
132480,note_on,,,,,92,0,11,,,,,4,,53,100
132480,note_on,,,,,92,0,8,,,,,1,,65,100
132480,note_on,,,,,92,0,10,,,,,3,,65,100
132480,note_on,,,,,92,0,14,,,,,6,,53,100
132480,note_on,,,,,92,0,15,,,,,7,,65,100
132480,note_on,,,,,92,0,9,,,,,2,,65,100
132480,note_on,,,,,92,0,13,,,,,6,,65,100
132480,note_on,,,,,92,0,16,,,,,7,,53,100
132480,set_tempo,,,,,576,1,0,,508474,,,,,,
132736,note_off,,,,,256,0,12,,,,,5,,41,100
132736,note_off,,,,,256,0,8,,,,,1,,65,100
132736,note_off,,,,,256,0,15,,,,,7,,65,100
132736,note_off,,,,,256,0,13,,,,,6,,65,100
132736,note_off,,,,,256,0,16,,,,,7,,53,100
132736,note_off,,,,,256,0,10,,,,,3,,65,100
132736,note_off,,,,,256,0,9,,,,,2,,65,100
132736,note_off,,,,,256,0,14,,,,,6,,53,100
132736,note_off,,,,,256,0,11,,,,,4,,53,100
132768,set_tempo,,,,,288,1,0,,512820,,,,,,
133056,note_on,,,,,320,0,16,,,,,7,,48,100
133056,note_on,,,,,320,0,15,,,,,7,,60,100
133056,note_on,,,,,320,0,9,,,,,2,,60,100
133056,note_on,,,,,320,0,12,,,,,5,,36,100
133056,note_on,,,,,320,0,10,,,,,3,,60,100
133056,note_on,,,,,320,0,11,,,,,4,,48,100
133056,set_tempo,,,,,288,1,0,,517241,,,,,,
133056,note_on,,,,,320,0,8,,,,,1,,60,100
133056,note_on,,,,,320,0,14,,,,,6,,48,100
133056,note_on,,,,,320,0,13,,,,,6,,60,100
133156,note_off,,,,,100,0,8,,,,,1,,60,100
133156,note_off,,,,,100,0,13,,,,,6,,60,100
133156,note_off,,,,,100,0,16,,,,,7,,48,100
133156,note_off,,,,,100,0,15,,,,,7,,60,100
133156,note_off,,,,,100,0,10,,,,,3,,60,100
133156,note_off,,,,,100,0,9,,,,,2,,60,100
133156,note_off,,,,,100,0,14,,,,,6,,48,100
133156,note_off,,,,,100,0,12,,,,,5,,36,100
133156,note_off,,,,,100,0,11,,,,,4,,48,100
133248,note_on,,,,,92,0,14,,,,,6,,50,100
133248,note_on,,,,,92,0,13,,,,,6,,62,100
133248,note_on,,,,,92,0,8,,,,,1,,62,100
133248,note_on,,,,,92,0,9,,,,,2,,62,100
133248,note_on,,,,,92,0,15,,,,,7,,62,100
133248,note_on,,,,,92,0,10,,,,,3,,62,100
133248,note_on,,,,,92,0,12,,,,,5,,38,100
133248,note_on,,,,,92,0,11,,,,,4,,50,100
133248,note_on,,,,,92,0,16,,,,,7,,50,100
133344,set_tempo,,,,,288,1,0,,521739,,,,,,
133348,note_off,,,,,100,0,16,,,,,7,,50,100
133348,note_off,,,,,100,0,15,,,,,7,,62,100
133348,note_off,,,,,100,0,12,,,,,5,,38,100
133348,note_off,,,,,100,0,8,,,,,1,,62,100
133348,note_off,,,,,100,0,10,,,,,3,,62,100
133348,note_off,,,,,100,0,11,,,,,4,,50,100
133348,note_off,,,,,100,0,13,,,,,6,,62,100
133348,note_off,,,,,100,0,14,,,,,6,,50,100
133348,note_off,,,,,100,0,9,,,,,2,,62,100
133440,note_on,,,,,92,0,12,,,,,5,,40,100
133440,note_on,,,,,92,0,11,,,,,4,,52,100
133440,note_on,,,,,92,0,14,,,,,6,,52,100
133440,note_on,,,,,92,0,9,,,,,2,,64,100
133440,note_on,,,,,92,0,16,,,,,7,,52,100
133440,note_on,,,,,92,0,13,,,,,6,,64,100
133440,note_on,,,,,92,0,10,,,,,3,,64,100
133440,note_on,,,,,92,0,8,,,,,1,,64,100
133440,note_on,,,,,92,0,15,,,,,7,,64,100
133540,note_off,,,,,100,0,16,,,,,7,,52,100
133540,note_off,,,,,100,0,11,,,,,4,,52,100
133540,note_off,,,,,100,0,13,,,,,6,,64,100
133540,note_off,,,,,100,0,10,,,,,3,,64,100
133540,note_off,,,,,100,0,8,,,,,1,,64,100
133540,note_off,,,,,100,0,14,,,,,6,,52,100
133540,note_off,,,,,100,0,12,,,,,5,,40,100
133540,note_off,,,,,100,0,15,,,,,7,,64,100
133540,note_off,,,,,100,0,9,,,,,2,,64,100
133632,note_on,,,,,92,0,14,,,,,6,,53,100
133632,set_tempo,,,,,288,1,0,,526315,,,,,,
133632,note_on,,,,,92,0,8,,,,,1,,65,100
133632,note_on,,,,,92,0,12,,,,,5,,41,100
133632,note_on,,,,,92,0,11,,,,,4,,53,100
133632,note_on,,,,,92,0,13,,,,,6,,65,100
133632,note_on,,,,,92,0,16,,,,,7,,53,100
133632,note_on,,,,,92,0,15,,,,,7,,65,100
133632,note_on,,,,,92,0,9,,,,,2,,65,100
133632,note_on,,,,,92,0,10,,,,,3,,65,100
133680,set_tempo,,,,,48,1,0,,530973,,,,,,
133728,set_tempo,,,,,48,1,0,,535714,,,,,,
133776,set_tempo,,,,,48,1,0,,540540,,,,,,
133824,set_tempo,,,,,48,1,0,,545454,,,,,,
133872,set_tempo,,,,,48,1,0,,550458,,,,,,
133888,note_off,,,,,256,0,10,,,,,3,,65,100
133888,note_off,,,,,256,0,13,,,,,6,,65,100
133888,note_off,,,,,256,0,11,,,,,4,,53,100
133888,note_off,,,,,256,0,12,,,,,5,,41,100
133888,note_off,,,,,256,0,14,,,,,6,,53,100
133888,note_off,,,,,256,0,15,,,,,7,,65,100
133888,note_off,,,,,256,0,8,,,,,1,,65,100
133888,note_off,,,,,256,0,9,,,,,2,,65,100
133888,note_off,,,,,256,0,16,,,,,7,,53,100
133920,set_tempo,,,,,48,1,0,,555555,,,,,,
133968,set_tempo,,,,,48,1,0,,560747,,,,,,
134016,note_on,,,,,128,0,13,,,,,6,,62,100
134016,note_on,,,,,128,0,12,,,,,5,,38,100
134016,note_on,,,,,128,0,10,,,,,3,,62,100
134016,note_on,,,,,128,0,8,,,,,1,,62,100
134016,note_on,,,,,128,0,14,,,,,6,,50,100
134016,note_on,,,,,128,0,15,,,,,7,,62,100
134016,note_on,,,,,128,0,16,,,,,7,,50,100
134016,note_on,,,,,128,0,9,,,,,2,,62,100
134016,set_tempo,,,,,48,1,0,,566037,,,,,,
134016,note_on,,,,,128,0,11,,,,,4,,50,100
134040,set_tempo,,,,,24,1,0,,571428,,,,,,
134064,set_tempo,,,,,24,1,0,,576923,,,,,,
134088,set_tempo,,,,,24,1,0,,582524,,,,,,
134112,set_tempo,,,,,24,1,0,,588235,,,,,,
134136,set_tempo,,,,,24,1,0,,594059,,,,,,
134160,set_tempo,,,,,24,1,0,,600000,,,,,,
134184,set_tempo,,,,,24,1,0,,606060,,,,,,
134208,set_tempo,,,,,24,1,0,,612244,,,,,,
134232,set_tempo,,,,,24,1,0,,618556,,,,,,
134256,set_tempo,,,,,24,1,0,,625000,,,,,,
134272,note_off,,,,,256,0,12,,,,,5,,38,100
134272,note_off,,,,,256,0,13,,,,,6,,62,100
134272,note_off,,,,,256,0,9,,,,,2,,62,100
134272,note_off,,,,,256,0,8,,,,,1,,62,100
134272,note_off,,,,,256,0,15,,,,,7,,62,100
134272,note_off,,,,,256,0,10,,,,,3,,62,100
134272,note_off,,,,,256,0,11,,,,,4,,50,100
134272,note_off,,,,,256,0,14,,,,,6,,50,100
134272,note_off,,,,,256,0,16,,,,,7,,50,100
134280,set_tempo,,,,,24,1,0,,631578,,,,,,
134304,set_tempo,,,,,24,1,0,,638297,,,,,,
134328,set_tempo,,,,,24,1,0,,645161,,,,,,
134352,set_tempo,,,,,24,1,0,,652173,,,,,,
134376,set_tempo,,,,,24,1,0,,659340,,,,,,
134400,set_tempo,,,,,24,1,0,,882352,,,,,,
134400,note_on,,,,,128,0,11,,,,,4,,52,100
134400,note_on,,,,,128,0,14,,,,,6,,52,100
134400,note_on,,,,,128,0,9,,,,,2,,64,100
134400,note_on,,,,,128,0,16,,,,,7,,52,100
134400,note_on,,,,,128,0,15,,,,,7,,64,100
134400,note_on,,,,,128,0,12,,,,,5,,40,100
134400,note_on,,,,,128,0,8,,,,,1,,64,100
134400,note_on,,,,,128,0,10,,,,,3,,64,100
134400,note_on,,,,,128,0,13,,,,,6,,64,100
134656,note_off,,,,,256,0,11,,,,,4,,52,100
134656,note_off,,,,,256,0,9,,,,,2,,64,100
134656,note_off,,,,,256,0,16,,,,,7,,52,100
134656,note_off,,,,,256,0,8,,,,,1,,64,100
134656,note_off,,,,,256,0,15,,,,,7,,64,100
134656,note_off,,,,,256,0,10,,,,,3,,64,100
134656,note_off,,,,,256,0,14,,,,,6,,52,100
134656,note_off,,,,,256,0,13,,,,,6,,64,100
134656,note_off,,,,,256,0,12,,,,,5,,40,100
134784,end_of_track,,,,,0,1,0,,,,,,,,
134784,set_tempo,,,,,384,1,0,,1034482,,,,,,
134784,note_on,,,,,128,0,10,,,,,3,,57,100
134784,note_on,,,,,128,0,13,,,,,6,,57,100
134784,note_on,,,,,128,0,14,,,,,6,,45,100
134784,note_on,,,,,128,0,11,,,,,4,,45,100
134784,note_on,,,,,128,0,12,,,,,5,,33,100
134784,note_on,,,,,128,0,8,,,,,1,,57,100
134784,note_on,,,,,128,0,16,,,,,7,,45,100
134784,note_on,,,,,128,0,15,,,,,7,,57,100
134784,note_on,,,,,128,0,9,,,,,2,,57,100
135704,end_of_track,,,,,0,1,16,,,,,,,,
135704,note_off,,,,,920,0,13,,,,,6,,57,100
135704,note_off,,,,,920,0,8,,,,,1,,57,100
135704,note_off,,,,,920,0,9,,,,,2,,57,100
135704,end_of_track,,,,,0,1,9,,,,,,,,
135704,end_of_track,,,,,0,1,12,,,,,,,,
135704,note_off,,,,,920,0,12,,,,,5,,33,100
135704,note_off,,,,,920,0,16,,,,,7,,45,100
135704,end_of_track,,,,,0,1,13,,,,,,,,
135704,note_off,,,,,920,0,10,,,,,3,,57,100
135704,end_of_track,,,,,0,1,11,,,,,,,,
135704,note_off,,,,,920,0,11,,,,,4,,45,100
135704,end_of_track,,,,,0,1,15,,,,,,,,
135704,note_off,,,,,920,0,15,,,,,7,,57,100
135704,note_off,,,,,920,0,14,,,,,6,,45,100
135704,end_of_track,,,,,0,1,14,,,,,,,,
135704,end_of_track,,,,,0,1,10,,,,,,,,
137088,end_of_track,,,,,0,1,8,,,,,,,,
137088,program_change,,,,,1384,0,8,,,,,1,48,,
