tick,type,numerator,denominator,clocks_per_click,notated_32nd_notes_per_beat,time,meta,track,data,tempo,control,value,channel,program,key,note,velocity
0,time_signature,3,4,96,8,0,1,0,,,,,,,,,
0,control_change,,,,,0,0,8,,,10,64,0,,,,
0,control_change,,,,,0,0,8,,,7,100,0,,,,
0,program_change,,,,,0,0,8,,,,,0,40,,,
0,control_change,,,,,0,0,8,,,0,0,0,,,,
0,track_name,,,,,0,1,8,,,,,,,,,
0,end_of_track,,,,,0,1,7,,,,,,,,,
0,key_signature,,,,,0,1,7,,,,,,,D,,
0,control_change,,,,,0,0,7,,,91,67,0,,,,
0,control_change,,,,,0,0,7,,,10,64,0,,,,
0,control_change,,,,,0,0,7,,,7,100,0,,,,
0,program_change,,,,,0,0,7,,,,,0,40,,,
0,control_change,,,,,0,0,8,,,91,67,0,,,,
0,control_change,,,,,0,0,7,,,0,0,0,,,,
0,end_of_track,,,,,0,1,6,,,,,,,,,
0,key_signature,,,,,0,1,6,,,,,,,D,,
0,control_change,,,,,0,0,6,,,91,67,0,,,,
0,control_change,,,,,0,0,6,,,10,64,0,,,,
0,control_change,,,,,0,0,6,,,7,100,0,,,,
0,program_change,,,,,0,0,6,,,,,0,40,,,
0,control_change,,,,,0,0,6,,,0,0,0,,,,
0,track_name,,,,,0,1,6,,,,,,,,,
0,end_of_track,,,,,0,1,5,,,,,,,,,
0,key_signature,,,,,0,1,5,,,,,,,D,,
0,control_change,,,,,0,0,5,,,91,67,0,,,,
0,track_name,,,,,0,1,7,,,,,,,,,
0,key_signature,,,,,0,1,8,,,,,,,D,,
0,control_change,,,,,0,0,12,,,91,61,4,,,,
0,control_change,,,,,0,0,12,,,10,78,4,,,,
0,program_change,,,,,0,0,9,,,,,1,40,,,
0,control_change,,,,,0,0,9,,,7,100,1,,,,
0,control_change,,,,,0,0,9,,,10,52,1,,,,
0,control_change,,,,,0,0,9,,,91,67,1,,,,
0,key_signature,,,,,0,1,9,,,,,,,D,,
0,track_name,,,,,0,1,10,,,,,,,,,
0,control_change,,,,,0,0,10,,,0,0,2,,,,
0,program_change,,,,,0,0,10,,,,,2,48,,,
0,control_change,,,,,0,0,10,,,7,100,2,,,,
0,control_change,,,,,0,0,10,,,10,43,2,,,,
0,control_change,,,,,0,0,10,,,91,65,2,,,,
0,key_signature,,,,,0,1,10,,,,,,,D,,
0,note_on,,,,,0,0,10,,,,,2,,,71,60
0,track_name,,,,,0,1,11,,,,,,,,,
0,control_change,,,,,0,0,11,,,0,0,3,,,,
0,program_change,,,,,0,0,11,,,,,3,48,,,
0,control_change,,,,,0,0,11,,,7,95,3,,,,
0,control_change,,,,,0,0,11,,,10,64,3,,,,
0,control_change,,,,,0,0,11,,,91,61,3,,,,
0,key_signature,,,,,0,1,11,,,,,,,D,,
0,note_on,,,,,0,0,11,,,,,3,,,71,60
0,track_name,,,,,0,1,12,,,,,,,,,
0,control_change,,,,,0,0,12,,,0,0,4,,,,
0,program_change,,,,,0,0,12,,,,,4,48,,,
0,control_change,,,,,0,0,12,,,7,82,4,,,,
0,control_change,,,,,0,0,5,,,10,64,0,,,,
0,control_change,,,,,0,0,9,,,0,0,1,,,,
0,control_change,,,,,0,0,5,,,7,100,0,,,,
0,control_change,,,,,0,0,5,,,0,0,0,,,,
0,program_change,,,,,0,0,5,,,,,0,40,,,
0,control_change,,,,,0,0,13,,,10,98,5,,,,
0,control_change,,,,,0,0,13,,,91,62,5,,,,
0,key_signature,,,,,0,1,13,,,,,,,D,,
0,note_on,,,,,0,0,13,,,,,5,,,47,60
0,track_name,,,,,0,1,14,,,,,,,,,
0,control_change,,,,,0,0,14,,,0,0,6,,,,
0,program_change,,,,,0,0,14,,,,,6,6,,,
0,control_change,,,,,0,0,14,,,7,55,6,,,,
0,control_change,,,,,0,0,14,,,91,61,6,,,,
0,key_signature,,,,,0,1,14,,,,,,,D,,
0,note_on,,,,,0,0,14,,,,,6,,,74,100
0,note_on,,,,,0,0,14,,,,,6,,,66,100
0,track_name,,,,,0,1,15,,,,,,,,,
0,control_change,,,,,0,0,15,,,0,0,6,,,,
0,program_change,,,,,0,0,15,,,,,6,6,,,
0,control_change,,,,,0,0,15,,,7,55,6,,,,
0,control_change,,,,,0,0,15,,,91,61,6,,,,
0,key_signature,,,,,0,1,15,,,,,,,D,,
0,note_on,,,,,0,0,15,,,,,6,,,59,100
0,set_tempo,,,,,0,1,0,,1000000,,,,,,,
0,sequencer_specific,,,,,0,1,0,"(0, 0, 119, 14, 1)",,,,,,,,
0,sequencer_specific,,,,,0,1,0,"(0, 0, 65)",,,,,,,,
0,program_change,,,,,0,0,13,,,,,5,48,,,
0,control_change,,,,,0,0,13,,,0,0,5,,,,
0,control_change,,,,,0,0,13,,,7,77,5,,,,
0,track_name,,,,,0,1,9,,,,,,,,,
0,control_change,,,,,0,0,4,,,7,100,0,,,,
0,program_change,,,,,0,0,4,,,,,0,40,,,
0,control_change,,,,,0,0,4,,,0,0,0,,,,
0,track_name,,,,,0,1,4,,,,,,,,,
0,end_of_track,,,,,0,1,3,,,,,,,,,
0,key_signature,,,,,0,1,4,,,,,,,D,,
0,end_of_track,,,,,0,1,4,,,,,,,,,
0,track_name,,,,,0,1,13,,,,,,,,,
0,key_signature,,,,,0,1,3,,,,,,,D,,
0,program_change,,,,,0,0,3,,,,,0,40,,,
0,control_change,,,,,0,0,4,,,10,64,0,,,,
0,control_change,,,,,0,0,3,,,91,67,0,,,,
0,control_change,,,,,0,0,3,,,7,100,0,,,,
0,control_change,,,,,0,0,3,,,0,0,0,,,,
0,track_name,,,,,0,1,3,,,,,,,,,
0,end_of_track,,,,,0,1,2,,,,,,,,,
0,track_name,,,,,0,1,5,,,,,,,,,
0,track_name,,,,,0,1,2,,,,,,,,,
0,end_of_track,,,,,0,1,1,,,,,,,,,
0,track_name,,,,,0,1,1,,,,,,,,,
0,key_signature,,,,,0,1,12,,,,,,,D,,
0,note_on,,,,,0,0,12,,,,,4,,,59,60
0,control_change,,,,,0,0,3,,,10,64,0,,,,
0,control_change,,,,,0,0,4,,,91,67,0,,,,
256,note_off,,,,,256,0,12,,,,,4,,,59,100
256,note_off,,,,,0,0,14,,,,,6,,,66,100
256,note_off,,,,,256,0,14,,,,,6,,,74,100
256,note_off,,,,,256,0,13,,,,,5,,,47,100
256,note_off,,,,,256,0,15,,,,,6,,,59,100
256,note_off,,,,,256,0,10,,,,,2,,,71,100
256,note_off,,,,,256,0,11,,,,,3,,,71,100
384,note_on,,,,,128,0,13,,,,,5,,,35,60
384,note_on,,,,,128,0,10,,,,,2,,,59,60
384,note_on,,,,,128,0,11,,,,,3,,,59,60
384,note_on,,,,,128,0,14,,,,,6,,,66,100
384,note_on,,,,,0,0,14,,,,,6,,,62,100
384,note_on,,,,,128,0,12,,,,,4,,,47,60
384,note_on,,,,,128,0,15,,,,,6,,,47,100
640,note_off,,,,,256,0,11,,,,,3,,,59,100
640,note_off,,,,,256,0,14,,,,,6,,,66,100
640,note_off,,,,,0,0,14,,,,,6,,,62,100
640,note_off,,,,,256,0,12,,,,,4,,,47,100
640,note_off,,,,,256,0,15,,,,,6,,,47,100
640,note_off,,,,,256,0,13,,,,,5,,,35,100
640,note_off,,,,,256,0,10,,,,,2,,,59,100
1056,note_on,,,,,0,0,14,,,,,6,,,62,100
1056,note_on,,,,,416,0,10,,,,,2,,,71,60
1056,note_on,,,,,416,0,11,,,,,3,,,71,60
1056,note_on,,,,,416,0,14,,,,,6,,,67,100
1056,note_on,,,,,416,0,15,,,,,6,,,59,100
1056,note_on,,,,,416,0,12,,,,,4,,,59,60
1056,note_on,,,,,416,0,13,,,,,5,,,47,60
1120,note_off,,,,,64,0,10,,,,,2,,,71,100
1120,note_off,,,,,64,0,15,,,,,6,,,59,100
1120,note_off,,,,,64,0,12,,,,,4,,,59,100
1120,note_off,,,,,64,0,13,,,,,5,,,47,100
1120,note_off,,,,,64,0,14,,,,,6,,,67,100
1120,note_off,,,,,64,0,11,,,,,3,,,71,100
1120,note_off,,,,,0,0,14,,,,,6,,,62,100
1152,note_on,,,,,32,0,13,,,,,5,,,46,60
1152,note_on,,,,,32,0,10,,,,,2,,,70,60
1152,note_on,,,,,32,0,11,,,,,3,,,70,60
1152,note_on,,,,,32,0,15,,,,,6,,,58,100
1152,note_on,,,,,32,0,14,,,,,6,,,64,100
1152,note_on,,,,,0,0,14,,,,,6,,,67,100
1152,note_on,,,,,32,0,12,,,,,4,,,58,60
1408,note_off,,,,,256,0,15,,,,,6,,,58,100
1408,note_off,,,,,256,0,13,,,,,5,,,46,100
1408,note_off,,,,,256,0,14,,,,,6,,,64,100
1408,note_off,,,,,256,0,10,,,,,2,,,70,100
1408,note_off,,,,,0,0,14,,,,,6,,,67,100
1408,note_off,,,,,256,0,12,,,,,4,,,58,100
1408,note_off,,,,,256,0,11,,,,,3,,,70,100
1536,note_on,,,,,128,0,13,,,,,5,,,34,60
1536,note_on,,,,,128,0,12,,,,,4,,,46,60
1536,note_on,,,,,0,0,14,,,,,6,,,64,100
1536,note_on,,,,,128,0,14,,,,,6,,,61,100
1536,note_on,,,,,128,0,10,,,,,2,,,58,60
1536,note_on,,,,,128,0,11,,,,,3,,,58,60
1536,note_on,,,,,128,0,15,,,,,6,,,46,100
1792,note_off,,,,,256,0,12,,,,,4,,,46,100
1792,note_off,,,,,256,0,13,,,,,5,,,34,100
1792,note_off,,,,,0,0,14,,,,,6,,,64,100
1792,note_off,,,,,256,0,14,,,,,6,,,61,100
1792,note_off,,,,,256,0,15,,,,,6,,,46,100
1792,note_off,,,,,256,0,10,,,,,2,,,58,100
1792,note_off,,,,,256,0,11,,,,,3,,,58,100
2208,note_on,,,,,416,0,11,,,,,3,,,69,60
2208,note_on,,,,,416,0,13,,,,,5,,,45,60
2208,note_on,,,,,416,0,15,,,,,6,,,57,100
2208,note_on,,,,,416,0,10,,,,,2,,,69,60
2208,note_on,,,,,0,0,14,,,,,6,,,61,100
2208,note_on,,,,,416,0,14,,,,,6,,,66,100
2208,note_on,,,,,416,0,12,,,,,4,,,57,60
2272,note_off,,,,,64,0,13,,,,,5,,,45,100
2272,note_off,,,,,64,0,15,,,,,6,,,57,100
2272,note_off,,,,,64,0,10,,,,,2,,,69,100
2272,note_off,,,,,64,0,11,,,,,3,,,69,100
2272,note_off,,,,,0,0,14,,,,,6,,,61,100
2272,note_off,,,,,64,0,14,,,,,6,,,66,100
2272,note_off,,,,,64,0,12,,,,,4,,,57,100
2304,note_on,,,,,32,0,12,,,,,4,,,56,60
2304,note_on,,,,,32,0,10,,,,,2,,,68,60
2304,note_on,,,,,32,0,15,,,,,6,,,56,100
2304,note_on,,,,,0,0,14,,,,,6,,,62,100
2304,note_on,,,,,32,0,14,,,,,6,,,66,100
2304,note_on,,,,,32,0,13,,,,,5,,,44,60
2304,note_on,,,,,32,0,11,,,,,3,,,68,60
2560,note_off,,,,,0,0,14,,,,,6,,,62,100
2560,note_off,,,,,256,0,14,,,,,6,,,66,100
2560,note_off,,,,,256,0,12,,,,,4,,,56,100
2560,note_off,,,,,256,0,13,,,,,5,,,44,100
2560,note_off,,,,,256,0,15,,,,,6,,,56,100
2560,note_off,,,,,256,0,11,,,,,3,,,68,100
2560,note_off,,,,,256,0,10,,,,,2,,,68,100
2688,note_on,,,,,128,0,15,,,,,6,,,44,100
2688,note_on,,,,,128,0,14,,,,,6,,,62,100
2688,note_on,,,,,0,0,14,,,,,6,,,59,100
2688,note_on,,,,,128,0,10,,,,,2,,,56,60
2688,note_on,,,,,128,0,12,,,,,4,,,44,60
2688,note_on,,,,,128,0,11,,,,,3,,,56,60
2688,note_on,,,,,128,0,13,,,,,5,,,44,60
2944,note_off,,,,,256,0,14,,,,,6,,,62,100
2944,note_off,,,,,0,0,14,,,,,6,,,59,100
2944,note_off,,,,,256,0,12,,,,,4,,,44,100
2944,note_off,,,,,256,0,13,,,,,5,,,44,100
2944,note_off,,,,,256,0,15,,,,,6,,,44,100
2944,note_off,,,,,256,0,11,,,,,3,,,56,100
2944,note_off,,,,,256,0,10,,,,,2,,,56,100
3360,note_on,,,,,416,0,11,,,,,3,,,67,60
3360,note_on,,,,,416,0,14,,,,,6,,,64,100
3360,note_on,,,,,0,0,14,,,,,6,,,59,100
3360,note_on,,,,,416,0,15,,,,,6,,,55,100
3360,note_on,,,,,416,0,12,,,,,4,,,55,60
3360,note_on,,,,,416,0,10,,,,,2,,,67,60
3360,note_on,,,,,416,0,13,,,,,5,,,43,60
3424,note_off,,,,,64,0,14,,,,,6,,,64,100
3424,note_off,,,,,64,0,12,,,,,4,,,55,100
3424,note_off,,,,,64,0,15,,,,,6,,,55,100
3424,note_off,,,,,64,0,10,,,,,2,,,67,100
3424,note_off,,,,,64,0,13,,,,,5,,,43,100
3424,note_off,,,,,64,0,11,,,,,3,,,67,100
3424,note_off,,,,,0,0,14,,,,,6,,,59,100
3456,note_on,,,,,32,0,12,,,,,4,,,54,60
3456,note_on,,,,,32,0,10,,,,,2,,,66,60
3456,note_on,,,,,32,0,14,,,,,6,,,64,100
3456,note_on,,,,,0,0,14,,,,,6,,,61,100
3456,note_on,,,,,32,0,13,,,,,5,,,42,60
3456,note_on,,,,,32,0,11,,,,,3,,,66,60
3456,note_on,,,,,32,0,15,,,,,6,,,54,100
3456,note_on,,,,,0,0,14,,,,,6,,,58,100
3712,note_off,,,,,256,0,11,,,,,3,,,66,100
3712,note_off,,,,,256,0,15,,,,,6,,,54,100
3712,note_off,,,,,256,0,10,,,,,2,,,66,100
3712,note_off,,,,,256,0,12,,,,,4,,,54,100
3712,note_off,,,,,256,0,13,,,,,5,,,42,100
3712,note_off,,,,,256,0,14,,,,,6,,,64,100
3712,note_off,,,,,0,0,14,,,,,6,,,58,100
3712,note_off,,,,,0,0,14,,,,,6,,,61,100
4128,note_on,,,,,416,0,13,,,,,5,,,49,60
4128,note_on,,,,,416,0,12,,,,,4,,,61,60
4128,note_on,,,,,416,0,15,,,,,6,,,61,100
4128,note_on,,,,,416,0,10,,,,,2,,,73,60
4128,note_on,,,,,416,0,11,,,,,3,,,73,60
4192,note_off,,,,,64,0,15,,,,,6,,,61,100
4192,note_off,,,,,64,0,12,,,,,4,,,61,100
4192,note_off,,,,,64,0,10,,,,,2,,,73,100
4192,note_off,,,,,64,0,11,,,,,3,,,73,100
4192,note_off,,,,,64,0,13,,,,,5,,,49,100
4224,note_on,,,,,32,0,12,,,,,4,,,62,60
4224,note_on,,,,,32,0,13,,,,,5,,,50,60
4224,note_on,,,,,512,0,14,,,,,6,,,69,100
4224,note_on,,,,,32,0,11,,,,,3,,,74,60
4224,note_on,,,,,32,0,15,,,,,6,,,62,100
4224,note_on,,,,,32,0,10,,,,,2,,,74,60
4224,note_on,,,,,0,0,14,,,,,6,,,66,100
4416,note_off,,,,,192,0,15,,,,,6,,,62,100
4416,note_off,,,,,192,0,12,,,,,4,,,62,100
4416,note_off,,,,,192,0,11,,,,,3,,,74,100
4416,note_off,,,,,192,0,10,,,,,2,,,74,100
4416,note_off,,,,,192,0,13,,,,,5,,,50,100
4480,note_off,,,,,256,0,14,,,,,6,,,69,100
4480,note_off,,,,,0,0,14,,,,,6,,,66,100
4512,note_on,,,,,96,0,12,,,,,4,,,64,60
4512,note_on,,,,,96,0,11,,,,,3,,,76,60
4512,note_on,,,,,96,0,15,,,,,6,,,64,100
4512,note_on,,,,,96,0,13,,,,,5,,,52,60
4512,note_on,,,,,96,0,10,,,,,2,,,76,60
4576,note_off,,,,,64,0,13,,,,,5,,,52,100
4576,note_off,,,,,64,0,15,,,,,6,,,64,100
4576,note_off,,,,,64,0,12,,,,,4,,,64,100
4576,note_off,,,,,64,0,10,,,,,2,,,76,100
4576,note_off,,,,,64,0,11,,,,,3,,,76,100
4608,note_on,,,,,32,0,10,,,,,2,,,70,60
4608,note_on,,,,,32,0,13,,,,,5,,,46,60
4608,note_on,,,,,32,0,15,,,,,6,,,58,100
4608,note_on,,,,,32,0,11,,,,,3,,,70,60
4608,note_on,,,,,0,0,14,,,,,6,,,61,100
4608,note_on,,,,,128,0,14,,,,,6,,,64,100
4608,note_on,,,,,32,0,12,,,,,4,,,58,60
4800,note_off,,,,,192,0,11,,,,,3,,,70,100
4800,note_off,,,,,192,0,12,,,,,4,,,58,100
4800,note_off,,,,,192,0,10,,,,,2,,,70,100
4800,note_off,,,,,192,0,15,,,,,6,,,58,100
4800,note_off,,,,,192,0,13,,,,,5,,,46,100
4864,note_off,,,,,256,0,14,,,,,6,,,64,100
4864,note_off,,,,,0,0,14,,,,,6,,,61,100
4896,note_on,,,,,96,0,13,,,,,5,,,49,60
4896,note_on,,,,,96,0,15,,,,,6,,,61,100
4896,note_on,,,,,96,0,10,,,,,2,,,73,60
4896,note_on,,,,,96,0,12,,,,,4,,,61,60
4896,note_on,,,,,96,0,11,,,,,3,,,73,60
4960,note_off,,,,,64,0,12,,,,,4,,,61,100
4960,note_off,,,,,64,0,11,,,,,3,,,73,100
4960,note_off,,,,,64,0,15,,,,,6,,,61,100
4960,note_off,,,,,64,0,13,,,,,5,,,49,100
4960,note_off,,,,,64,0,10,,,,,2,,,73,100
4992,note_on,,,,,32,0,15,,,,,6,,,52,100
4992,note_on,,,,,32,0,13,,,,,5,,,40,60
4992,note_on,,,,,32,0,11,,,,,3,,,64,60
4992,note_on,,,,,32,0,12,,,,,4,,,52,60
4992,note_on,,,,,32,0,10,,,,,2,,,64,60
4992,note_on,,,,,0,0,14,,,,,6,,,59,100
4992,note_on,,,,,128,0,14,,,,,6,,,67,100
5184,note_off,,,,,192,0,13,,,,,5,,,40,100
5184,note_off,,,,,192,0,11,,,,,3,,,64,100
5184,note_off,,,,,192,0,12,,,,,4,,,52,100
5184,note_off,,,,,192,0,15,,,,,6,,,52,100
5184,note_off,,,,,192,0,10,,,,,2,,,64,100
5248,note_off,,,,,0,0,14,,,,,6,,,59,100
5248,note_off,,,,,256,0,14,,,,,6,,,67,100
5280,note_on,,,,,96,0,12,,,,,4,,,55,60
5280,note_on,,,,,96,0,11,,,,,3,,,67,60
5280,note_on,,,,,96,0,13,,,,,5,,,43,60
5280,note_on,,,,,96,0,10,,,,,2,,,67,60
5280,note_on,,,,,96,0,15,,,,,6,,,55,100
5344,note_off,,,,,64,0,15,,,,,6,,,55,100
5344,note_off,,,,,64,0,13,,,,,5,,,43,100
5344,note_off,,,,,64,0,10,,,,,2,,,67,100
5344,note_off,,,,,64,0,11,,,,,3,,,67,100
5344,note_off,,,,,64,0,12,,,,,4,,,55,100
5376,note_on,,,,,32,0,11,,,,,3,,,61,60
5376,note_on,,,,,32,0,15,,,,,6,,,49,100
5376,note_on,,,,,32,0,12,,,,,4,,,49,60
5376,note_on,,,,,32,0,10,,,,,2,,,61,60
5376,note_on,,,,,0,0,14,,,,,6,,,64,100
5376,note_on,,,,,128,0,14,,,,,6,,,55,100
5376,note_on,,,,,32,0,13,,,,,5,,,37,60
5568,note_off,,,,,192,0,11,,,,,3,,,61,100
5568,note_off,,,,,192,0,15,,,,,6,,,49,100
5568,note_off,,,,,192,0,12,,,,,4,,,49,100
5568,note_off,,,,,192,0,10,,,,,2,,,61,100
5568,note_off,,,,,192,0,13,,,,,5,,,37,100
5632,note_off,,,,,0,0,14,,,,,6,,,64,100
5632,note_off,,,,,256,0,14,,,,,6,,,55,100
5664,note_on,,,,,96,0,13,,,,,5,,,40,60
5664,note_on,,,,,96,0,11,,,,,3,,,64,60
5664,note_on,,,,,96,0,15,,,,,6,,,52,100
5664,note_on,,,,,96,0,10,,,,,2,,,64,60
5664,note_on,,,,,96,0,12,,,,,4,,,52,60
5728,note_off,,,,,64,0,13,,,,,5,,,40,100
5728,note_off,,,,,64,0,12,,,,,4,,,52,100
5728,note_off,,,,,64,0,15,,,,,6,,,52,100
5728,note_off,,,,,64,0,11,,,,,3,,,64,100
5728,note_off,,,,,64,0,10,,,,,2,,,64,100
5760,note_on,,,,,32,0,11,,,,,3,,,58,60
5760,note_on,,,,,32,0,15,,,,,6,,,46,100
5760,note_on,,,,,0,0,14,,,,,6,,,61,100
5760,note_on,,,,,32,0,13,,,,,5,,,34,60
5760,note_on,,,,,32,0,10,,,,,2,,,58,60
5760,note_on,,,,,128,0,14,,,,,6,,,64,100
5760,note_on,,,,,32,0,12,,,,,4,,,46,60
6016,note_off,,,,,256,0,14,,,,,6,,,64,100
6016,note_off,,,,,256,0,12,,,,,4,,,46,100
6016,note_off,,,,,256,0,10,,,,,2,,,58,100
6016,note_off,,,,,0,0,14,,,,,6,,,61,100
6016,note_off,,,,,256,0,11,,,,,3,,,58,100
6016,note_off,,,,,256,0,15,,,,,6,,,46,100
6016,note_off,,,,,256,0,13,,,,,5,,,34,100
6432,note_on,,,,,416,0,11,,,,,3,,,73,60
6432,note_on,,,,,416,0,12,,,,,4,,,61,60
6432,note_on,,,,,416,0,15,,,,,6,,,61,100
6432,note_on,,,,,416,0,13,,,,,5,,,49,60
6432,note_on,,,,,416,0,10,,,,,2,,,73,60
6496,note_off,,,,,64,0,10,,,,,2,,,73,100
6496,note_off,,,,,64,0,15,,,,,6,,,61,100
6496,note_off,,,,,64,0,11,,,,,3,,,73,100
6496,note_off,,,,,64,0,13,,,,,5,,,49,100
6496,note_off,,,,,64,0,12,,,,,4,,,61,100
6528,set_tempo,,,,,6528,1,0,,1000000,,,,,,,
6528,note_on,,,,,0,0,14,,,,,6,,,66,100
6528,note_on,,,,,32,0,15,,,,,6,,,62,100
6528,note_on,,,,,32,0,10,,,,,2,,,74,60
6528,note_on,,,,,32,0,13,,,,,5,,,50,60
6528,note_on,,,,,32,0,12,,,,,4,,,62,60
6528,note_on,,,,,32,0,11,,,,,3,,,74,60
6528,note_on,,,,,512,0,14,,,,,6,,,69,100
6720,note_off,,,,,192,0,15,,,,,6,,,62,100
6720,note_off,,,,,192,0,11,,,,,3,,,74,100
6720,note_off,,,,,192,0,12,,,,,4,,,62,100
6720,note_off,,,,,192,0,13,,,,,5,,,50,100
6720,note_off,,,,,192,0,10,,,,,2,,,74,100
6784,note_off,,,,,0,0,14,,,,,6,,,66,100
6784,note_off,,,,,256,0,14,,,,,6,,,69,100
6816,note_on,,,,,96,0,15,,,,,6,,,58,100
6816,note_on,,,,,96,0,11,,,,,3,,,70,60
6816,note_on,,,,,96,0,12,,,,,4,,,58,60
6816,note_on,,,,,96,0,10,,,,,2,,,70,60
6816,note_on,,,,,96,0,13,,,,,5,,,46,60
6832,set_tempo,,,,,304,1,0,,1016949,,,,,,,
6880,note_off,,,,,64,0,13,,,,,5,,,46,100
6880,note_off,,,,,64,0,15,,,,,6,,,58,100
6880,note_off,,,,,64,0,12,,,,,4,,,58,100
6880,note_off,,,,,64,0,10,,,,,2,,,70,100
6880,note_off,,,,,64,0,11,,,,,3,,,70,100
6912,note_on,,,,,32,0,11,,,,,3,,,71,60
6912,note_on,,,,,32,0,15,,,,,6,,,59,100
6912,note_on,,,,,32,0,12,,,,,4,,,59,60
6912,note_on,,,,,128,0,14,,,,,6,,,66,100
6912,note_on,,,,,32,0,10,,,,,2,,,71,60
6912,note_on,,,,,32,0,13,,,,,5,,,47,60
6912,note_on,,,,,0,0,14,,,,,6,,,62,100
7104,note_off,,,,,192,0,10,,,,,2,,,71,100
7104,note_off,,,,,192,0,12,,,,,4,,,59,100
7104,note_off,,,,,192,0,14,,,,,6,,,66,100
7104,note_off,,,,,192,0,13,,,,,5,,,47,100
7104,note_off,,,,,0,0,14,,,,,6,,,62,100
7104,note_off,,,,,192,0,11,,,,,3,,,71,100
7104,note_off,,,,,192,0,15,,,,,6,,,59,100
7140,set_tempo,,,,,308,1,0,,1034482,,,,,,,
7200,note_on,,,,,96,0,13,,,,,5,,,41,60
7200,note_on,,,,,96,0,10,,,,,2,,,65,60
7200,note_on,,,,,96,0,14,,,,,6,,,59,100
7200,note_on,,,,,0,0,14,,,,,6,,,66,100
7200,note_on,,,,,96,0,12,,,,,4,,,53,60
7200,note_on,,,,,96,0,15,,,,,6,,,53,100
7200,note_on,,,,,96,0,11,,,,,3,,,65,60
7264,note_off,,,,,64,0,13,,,,,5,,,41,100
7264,note_off,,,,,64,0,11,,,,,3,,,65,100
7264,note_off,,,,,64,0,10,,,,,2,,,65,100
7264,note_off,,,,,64,0,14,,,,,6,,,59,100
7264,note_off,,,,,0,0,14,,,,,6,,,66,100
7264,note_off,,,,,64,0,12,,,,,4,,,53,100
7264,note_off,,,,,64,0,15,,,,,6,,,53,100
7296,note_on,,,,,32,0,15,,,,,6,,,54,100
7296,note_on,,,,,32,0,13,,,,,5,,,42,60
7296,note_on,,,,,32,0,11,,,,,3,,,66,60
7296,note_on,,,,,32,0,10,,,,,2,,,66,60
7296,note_on,,,,,32,0,14,,,,,6,,,59,100
7296,note_on,,,,,0,0,14,,,,,6,,,61,100
7296,note_on,,,,,32,0,12,,,,,4,,,54,60
7448,set_tempo,,,,,308,1,0,,1052631,,,,,,,
7552,note_off,,,,,256,0,10,,,,,2,,,66,100
7552,note_off,,,,,256,0,15,,,,,6,,,54,100
7552,note_off,,,,,0,0,14,,,,,6,,,61,100
7552,note_off,,,,,256,0,14,,,,,6,,,59,100
7552,note_off,,,,,256,0,12,,,,,4,,,54,100
7552,note_off,,,,,256,0,11,,,,,3,,,66,100
7552,note_off,,,,,256,0,13,,,,,5,,,42,100
7680,note_on,,,,,128,0,12,,,,,4,,,42,56
7680,note_on,,,,,128,0,10,,,,,2,,,66,56
7680,note_on,,,,,128,0,14,,,,,6,,,61,100
7680,note_on,,,,,0,0,14,,,,,6,,,58,100
7680,note_on,,,,,128,0,13,,,,,5,,,42,56
7680,note_on,,,,,128,0,15,,,,,6,,,42,100
7680,note_on,,,,,128,0,11,,,,,3,,,54,56
7756,set_tempo,,,,,308,1,0,,1071428,,,,,,,
7936,note_off,,,,,256,0,13,,,,,5,,,42,100
7936,note_off,,,,,256,0,12,,,,,4,,,42,100
7936,note_off,,,,,256,0,10,,,,,2,,,66,100
7936,note_off,,,,,256,0,11,,,,,3,,,54,100
7936,note_off,,,,,256,0,14,,,,,6,,,61,100
7936,note_off,,,,,256,0,15,,,,,6,,,42,100
7936,note_off,,,,,0,0,14,,,,,6,,,58,100
8060,program_change,,,,,8060,0,9,,,,,1,40,,,
8064,note_on,,,,,128,0,14,,,,,6,,,54,100
8064,set_tempo,,,,,308,1,0,,1090909,,,,,,,
8064,note_on,,,,,128,0,15,,,,,6,,,47,100
8064,note_on,,,,,0,0,14,,,,,6,,,62,100
8064,note_on,,,,,128,0,13,,,,,5,,,35,51
8064,note_on,,,,,128,0,10,,,,,2,,,59,51
8064,note_on,,,,,8064,0,8,,,,,0,,,78,55
8064,note_on,,,,,128,0,11,,,,,3,,,71,51
8064,note_on,,,,,128,0,12,,,,,4,,,47,51
8064,note_on,,,,,4,0,9,,,,,1,,,74,55
8100,set_tempo,,,,,36,1,0,,1071428,,,,,,,
8140,set_tempo,,,,,40,1,0,,1052631,,,,,,,
8156,note_off,,,,,92,0,8,,,,,0,,,78,100
8160,note_on,,,,,4,0,8,,,,,0,,,76,57
8176,set_tempo,,,,,36,1,0,,1034482,,,,,,,
8192,note_off,,,,,128,0,9,,,,,1,,,74,100
8216,set_tempo,,,,,40,1,0,,1016949,,,,,,,
8224,note_off,,,,,64,0,8,,,,,0,,,76,100
8256,note_on,,,,,32,0,8,,,,,0,,,78,59
8256,note_on,,,,,64,0,9,,,,,1,,,74,59
8256,set_tempo,,,,,40,1,0,,1000000,,,,,,,
8320,note_off,,,,,256,0,12,,,,,4,,,47,100
8320,note_off,,,,,256,0,11,,,,,3,,,71,100
8320,note_off,,,,,256,0,10,,,,,2,,,59,100
8320,note_off,,,,,256,0,15,,,,,6,,,47,100
8320,note_off,,,,,256,0,14,,,,,6,,,54,100
8320,note_off,,,,,0,0,14,,,,,6,,,62,100
8320,note_off,,,,,256,0,13,,,,,5,,,35,100
8348,note_off,,,,,92,0,8,,,,,0,,,78,100
8352,note_on,,,,,4,0,8,,,,,0,,,79,62
8384,note_off,,,,,128,0,9,,,,,1,,,74,100
8416,note_off,,,,,64,0,8,,,,,0,,,79,100
8448,note_on,,,,,128,0,11,,,,,3,,,71,60
8448,note_on,,,,,64,0,9,,,,,1,,,74,64
8448,note_on,,,,,32,0,8,,,,,0,,,78,64
8540,note_off,,,,,92,0,8,,,,,0,,,78,100
8544,note_on,,,,,4,0,8,,,,,0,,,76,67
8576,note_off,,,,,128,0,9,,,,,1,,,74,100
8608,note_off,,,,,64,0,8,,,,,0,,,76,100
8640,note_on,,,,,64,0,9,,,,,1,,,74,69
8640,note_on,,,,,32,0,8,,,,,0,,,78,69
8732,note_off,,,,,92,0,8,,,,,0,,,78,100
8736,note_on,,,,,4,0,8,,,,,0,,,79,72
8768,note_off,,,,,128,0,9,,,,,1,,,74,100
8800,note_off,,,,,64,0,8,,,,,0,,,79,100
8832,note_on,,,,,64,0,9,,,,,1,,,74,74
8832,note_on,,,,,32,0,8,,,,,0,,,78,74
8832,note_off,,,,,384,0,11,,,,,3,,,71,100
8924,note_off,,,,,92,0,8,,,,,0,,,78,100
8928,note_on,,,,,4,0,8,,,,,0,,,79,75
8960,note_off,,,,,128,0,9,,,,,1,,,74,100
8992,note_off,,,,,64,0,8,,,,,0,,,79,100
9024,note_on,,,,,192,0,11,,,,,3,,,71,60
9024,note_on,,,,,32,0,8,,,,,0,,,76,75
9024,note_on,,,,,64,0,9,,,,,1,,,74,75
9116,note_off,,,,,92,0,8,,,,,0,,,76,100
9120,note_on,,,,,4,0,8,,,,,0,,,78,75
9152,note_off,,,,,128,0,11,,,,,3,,,71,100
9152,note_off,,,,,128,0,9,,,,,1,,,74,100
9184,note_off,,,,,64,0,8,,,,,0,,,78,100
9216,note_on,,,,,64,0,9,,,,,1,,,76,75
9216,note_on,,,,,32,0,8,,,,,0,,,79,75
9216,note_on,,,,,64,0,11,,,,,3,,,64,60
9308,note_off,,,,,92,0,9,,,,,1,,,76,100
9308,note_off,,,,,92,0,8,,,,,0,,,79,100
9312,note_on,,,,,4,0,9,,,,,1,,,74,75
9312,note_on,,,,,4,0,8,,,,,0,,,78,75
9376,note_off,,,,,64,0,9,,,,,1,,,74,100
9376,note_off,,,,,64,0,8,,,,,0,,,78,100
9408,note_on,,,,,32,0,8,,,,,0,,,79,75
9408,note_on,,,,,32,0,9,,,,,1,,,76,75
9472,note_off,,,,,256,0,11,,,,,3,,,64,100
9500,note_off,,,,,92,0,9,,,,,1,,,76,100
9500,note_off,,,,,92,0,8,,,,,0,,,79,100
9504,note_on,,,,,4,0,9,,,,,1,,,78,75
9504,note_on,,,,,4,0,8,,,,,0,,,81,75
9568,note_off,,,,,64,0,9,,,,,1,,,78,100
9568,note_off,,,,,64,0,8,,,,,0,,,81,100
9600,note_on,,,,,32,0,9,,,,,1,,,76,74
9600,note_on,,,,,128,0,11,,,,,3,,,64,60
9600,note_on,,,,,32,0,8,,,,,0,,,79,74
9692,note_off,,,,,92,0,9,,,,,1,,,76,100
9692,note_off,,,,,92,0,8,,,,,0,,,79,100
9696,note_on,,,,,4,0,9,,,,,1,,,74,72
9696,note_on,,,,,4,0,8,,,,,0,,,78,73
9760,note_off,,,,,64,0,9,,,,,1,,,74,100
9760,note_off,,,,,64,0,8,,,,,0,,,78,100
9792,note_on,,,,,32,0,9,,,,,1,,,76,70
9792,note_on,,,,,32,0,8,,,,,0,,,79,72
9884,note_off,,,,,92,0,8,,,,,0,,,79,100
9884,note_off,,,,,92,0,9,,,,,1,,,76,100
9888,note_on,,,,,4,0,9,,,,,1,,,78,68
9888,note_on,,,,,4,0,8,,,,,0,,,81,71
9952,note_off,,,,,64,0,8,,,,,0,,,81,100
9952,note_off,,,,,64,0,9,,,,,1,,,78,100
9984,note_off,,,,,384,0,11,,,,,3,,,64,100
9984,note_on,,,,,32,0,9,,,,,1,,,76,66
9984,note_on,,,,,32,0,8,,,,,0,,,79,69
10076,note_off,,,,,92,0,9,,,,,1,,,76,100
10076,note_off,,,,,92,0,8,,,,,0,,,79,100
10080,note_on,,,,,4,0,8,,,,,0,,,81,68
10080,note_on,,,,,4,0,9,,,,,1,,,78,64
10144,note_off,,,,,64,0,8,,,,,0,,,81,100
10144,note_off,,,,,64,0,9,,,,,1,,,78,100
10176,note_on,,,,,32,0,8,,,,,0,,,79,67
10176,note_on,,,,,192,0,11,,,,,3,,,64,60
10176,note_on,,,,,32,0,9,,,,,1,,,76,62
10268,note_off,,,,,92,0,8,,,,,0,,,79,100
10268,note_off,,,,,92,0,9,,,,,1,,,76,100
10272,note_on,,,,,4,0,8,,,,,0,,,78,66
10272,note_on,,,,,4,0,9,,,,,1,,,74,61
10304,note_off,,,,,128,0,11,,,,,3,,,64,100
10336,note_off,,,,,64,0,8,,,,,0,,,78,100
10336,note_off,,,,,64,0,9,,,,,1,,,74,100
10368,note_on,,,,,32,0,9,,,,,1,,,73,60
10368,note_on,,,,,64,0,11,,,,,3,,,69,60
10368,note_on,,,,,32,0,8,,,,,0,,,76,65
10460,note_off,,,,,92,0,8,,,,,0,,,76,100
10464,note_on,,,,,4,0,8,,,,,0,,,74,66
10496,note_off,,,,,128,0,9,,,,,1,,,73,100
10528,note_off,,,,,64,0,8,,,,,0,,,74,100
10560,note_on,,,,,32,0,8,,,,,0,,,76,67
10560,note_on,,,,,64,0,9,,,,,1,,,73,63
10624,note_off,,,,,256,0,11,,,,,3,,,69,100
10652,note_off,,,,,92,0,8,,,,,0,,,76,100
10656,note_on,,,,,4,0,8,,,,,0,,,78,68
10688,note_off,,,,,128,0,9,,,,,1,,,73,100
10720,note_off,,,,,64,0,8,,,,,0,,,78,100
10752,note_on,,,,,128,0,11,,,,,3,,,69,60
10752,note_on,,,,,64,0,9,,,,,1,,,73,67
10752,note_on,,,,,32,0,8,,,,,0,,,76,69
10844,note_off,,,,,92,0,8,,,,,0,,,76,100
10848,note_on,,,,,4,0,8,,,,,0,,,74,70
10880,note_off,,,,,128,0,9,,,,,1,,,73,100
10912,note_off,,,,,64,0,8,,,,,0,,,74,100
10944,note_on,,,,,32,0,8,,,,,0,,,76,71
10944,note_on,,,,,64,0,9,,,,,1,,,73,71
11036,note_off,,,,,92,0,8,,,,,0,,,76,100
11040,note_on,,,,,4,0,8,,,,,0,,,78,72
11072,note_off,,,,,128,0,9,,,,,1,,,73,100
11104,note_off,,,,,64,0,8,,,,,0,,,78,100
11136,note_off,,,,,384,0,11,,,,,3,,,69,100
11136,note_on,,,,,32,0,8,,,,,0,,,76,73
11136,note_on,,,,,64,0,9,,,,,1,,,73,74
11228,note_off,,,,,92,0,8,,,,,0,,,76,100
11232,note_on,,,,,4,0,8,,,,,0,,,78,74
11264,note_off,,,,,128,0,9,,,,,1,,,73,100
11296,note_off,,,,,64,0,8,,,,,0,,,78,100
11328,note_on,,,,,64,0,9,,,,,1,,,73,75
11328,note_on,,,,,32,0,8,,,,,0,,,74,75
11328,note_on,,,,,192,0,11,,,,,3,,,69,60
11420,note_off,,,,,92,0,8,,,,,0,,,74,100
11424,note_on,,,,,4,0,8,,,,,0,,,76,75
11456,note_off,,,,,128,0,11,,,,,3,,,69,100
11456,note_off,,,,,128,0,9,,,,,1,,,73,100
11488,note_off,,,,,64,0,8,,,,,0,,,76,100
11520,note_on,,,,,32,0,8,,,,,0,,,78,75
11520,note_on,,,,,64,0,9,,,,,1,,,74,75
11520,note_on,,,,,64,0,11,,,,,3,,,62,60
11612,note_off,,,,,92,0,9,,,,,1,,,74,100
11612,note_off,,,,,92,0,8,,,,,0,,,78,100
11616,note_on,,,,,4,0,8,,,,,0,,,76,75
11616,note_on,,,,,4,0,9,,,,,1,,,73,75
11680,note_off,,,,,64,0,9,,,,,1,,,73,100
11680,note_off,,,,,64,0,8,,,,,0,,,76,100
11712,note_on,,,,,32,0,9,,,,,1,,,74,75
11712,note_on,,,,,32,0,8,,,,,0,,,78,75
11776,note_off,,,,,256,0,11,,,,,3,,,62,100
11804,note_off,,,,,92,0,8,,,,,0,,,78,100
11804,note_off,,,,,92,0,9,,,,,1,,,74,100
11808,note_on,,,,,4,0,8,,,,,0,,,79,75
11808,note_on,,,,,4,0,9,,,,,1,,,76,75
11872,note_off,,,,,64,0,8,,,,,0,,,79,100
11872,note_off,,,,,64,0,9,,,,,1,,,76,100
11904,note_on,,,,,128,0,11,,,,,3,,,62,60
11904,note_on,,,,,32,0,8,,,,,0,,,78,74
11904,note_on,,,,,32,0,9,,,,,1,,,74,74
11996,note_off,,,,,92,0,9,,,,,1,,,74,100
11996,note_off,,,,,92,0,8,,,,,0,,,78,100
12000,note_on,,,,,4,0,9,,,,,1,,,73,72
12000,note_on,,,,,4,0,8,,,,,0,,,76,73
12064,note_off,,,,,64,0,9,,,,,1,,,73,100
12064,note_off,,,,,64,0,8,,,,,0,,,76,100
12096,note_on,,,,,32,0,9,,,,,1,,,74,71
12096,note_on,,,,,32,0,8,,,,,0,,,78,72
12188,note_off,,,,,92,0,9,,,,,1,,,74,100
12188,note_off,,,,,92,0,8,,,,,0,,,78,100
12192,note_on,,,,,4,0,8,,,,,0,,,79,71
12192,note_on,,,,,4,0,9,,,,,1,,,76,69
12256,note_off,,,,,64,0,8,,,,,0,,,79,100
12256,note_off,,,,,64,0,9,,,,,1,,,76,100
12288,note_on,,,,,32,0,8,,,,,0,,,78,70
12288,note_on,,,,,32,0,9,,,,,1,,,74,67
12288,note_off,,,,,384,0,11,,,,,3,,,62,100
12380,note_off,,,,,92,0,8,,,,,0,,,78,100
12380,note_off,,,,,92,0,9,,,,,1,,,74,100
12384,note_on,,,,,4,0,8,,,,,0,,,79,69
12384,note_on,,,,,4,0,9,,,,,1,,,76,66
12448,note_off,,,,,64,0,9,,,,,1,,,76,100
12448,note_off,,,,,64,0,8,,,,,0,,,79,100
12480,note_on,,,,,32,0,8,,,,,0,,,78,68
12480,note_on,,,,,192,0,11,,,,,3,,,62,60
12480,note_on,,,,,32,0,9,,,,,1,,,74,64
12572,note_off,,,,,92,0,9,,,,,1,,,74,100
12572,note_off,,,,,92,0,8,,,,,0,,,78,100
12576,note_on,,,,,4,0,9,,,,,1,,,73,62
12576,note_on,,,,,4,0,8,,,,,0,,,76,67
12608,note_off,,,,,128,0,11,,,,,3,,,62,100
12640,note_off,,,,,64,0,8,,,,,0,,,76,100
12640,note_off,,,,,64,0,9,,,,,1,,,73,100
12672,note_on,,,,,32,0,8,,,,,0,,,74,65
12672,note_on,,,,,32,0,9,,,,,1,,,71,60
12672,note_on,,,,,64,0,11,,,,,3,,,67,60
12764,note_off,,,,,92,0,8,,,,,0,,,74,100
12768,note_on,,,,,4,0,8,,,,,0,,,73,66
12800,note_off,,,,,128,0,9,,,,,1,,,71,100
12832,note_off,,,,,64,0,8,,,,,0,,,73,100
12864,note_on,,,,,64,0,9,,,,,1,,,71,63
12864,note_on,,,,,32,0,8,,,,,0,,,74,67
12928,note_off,,,,,256,0,11,,,,,3,,,67,100
12956,note_off,,,,,92,0,8,,,,,0,,,74,100
12960,note_on,,,,,4,0,8,,,,,0,,,76,68
12992,note_off,,,,,128,0,9,,,,,1,,,71,100
13024,note_off,,,,,64,0,8,,,,,0,,,76,100
13056,note_on,,,,,128,0,11,,,,,3,,,67,60
13056,note_on,,,,,64,0,9,,,,,1,,,71,67
13056,note_on,,,,,32,0,8,,,,,0,,,74,69
13148,note_off,,,,,92,0,8,,,,,0,,,74,100
13152,note_on,,,,,4,0,8,,,,,0,,,73,71
13184,note_off,,,,,128,0,9,,,,,1,,,71,100
13216,note_off,,,,,64,0,8,,,,,0,,,73,100
13248,note_on,,,,,64,0,9,,,,,1,,,71,71
13248,note_on,,,,,32,0,8,,,,,0,,,74,72
13340,note_off,,,,,92,0,8,,,,,0,,,74,100
13344,note_on,,,,,4,0,8,,,,,0,,,76,73
13376,note_off,,,,,128,0,9,,,,,1,,,71,100
13408,note_off,,,,,64,0,8,,,,,0,,,76,100
13440,note_on,,,,,32,0,8,,,,,0,,,74,74
13440,note_on,,,,,64,0,9,,,,,1,,,71,74
13440,note_off,,,,,384,0,11,,,,,3,,,67,100
13532,note_off,,,,,92,0,8,,,,,0,,,74,100
13536,note_on,,,,,4,0,8,,,,,0,,,76,75
13568,note_off,,,,,128,0,9,,,,,1,,,71,100
13600,note_off,,,,,64,0,8,,,,,0,,,76,100
13632,note_on,,,,,64,0,9,,,,,1,,,71,75
13632,note_on,,,,,32,0,8,,,,,0,,,73,75
13632,note_on,,,,,192,0,11,,,,,3,,,67,60
13724,note_off,,,,,92,0,8,,,,,0,,,73,100
13728,note_on,,,,,4,0,8,,,,,0,,,74,75
13760,note_off,,,,,128,0,11,,,,,3,,,67,100
13760,note_off,,,,,128,0,9,,,,,1,,,71,100
13792,note_off,,,,,64,0,8,,,,,0,,,74,100
13824,note_on,,,,,32,0,8,,,,,0,,,76,75
13824,note_on,,,,,64,0,9,,,,,1,,,73,75
13824,note_on,,,,,64,0,11,,,,,3,,,61,60
13916,note_off,,,,,92,0,9,,,,,1,,,73,100
13916,note_off,,,,,92,0,8,,,,,0,,,76,100
13920,note_on,,,,,4,0,9,,,,,1,,,71,75
13920,note_on,,,,,4,0,8,,,,,0,,,74,75
13984,note_off,,,,,64,0,9,,,,,1,,,71,100
13984,note_off,,,,,64,0,8,,,,,0,,,74,100
14016,note_on,,,,,32,0,9,,,,,1,,,73,75
14016,note_on,,,,,32,0,8,,,,,0,,,76,75
14080,note_off,,,,,256,0,11,,,,,3,,,61,100
14108,note_off,,,,,92,0,8,,,,,0,,,76,100
14108,note_off,,,,,92,0,9,,,,,1,,,73,100
14112,note_on,,,,,4,0,8,,,,,0,,,78,75
14112,note_on,,,,,4,0,9,,,,,1,,,74,75
14176,note_off,,,,,64,0,8,,,,,0,,,78,100
14176,note_off,,,,,64,0,9,,,,,1,,,74,100
14208,note_on,,,,,32,0,8,,,,,0,,,76,74
14208,note_on,,,,,32,0,9,,,,,1,,,73,74
14208,note_on,,,,,128,0,11,,,,,3,,,61,60
14300,note_off,,,,,92,0,8,,,,,0,,,76,100
14300,note_off,,,,,92,0,9,,,,,1,,,73,100
14304,note_on,,,,,4,0,9,,,,,1,,,71,72
14304,note_on,,,,,4,0,8,,,,,0,,,74,73
14368,note_off,,,,,64,0,8,,,,,0,,,74,100
14368,note_off,,,,,64,0,9,,,,,1,,,71,100
14400,note_on,,,,,32,0,8,,,,,0,,,76,72
14400,note_on,,,,,32,0,9,,,,,1,,,73,71
14492,note_off,,,,,92,0,9,,,,,1,,,73,100
14492,note_off,,,,,92,0,8,,,,,0,,,76,100
14496,note_on,,,,,4,0,8,,,,,0,,,78,71
14496,note_on,,,,,4,0,9,,,,,1,,,74,69
14560,note_off,,,,,64,0,8,,,,,0,,,78,100
14560,note_off,,,,,64,0,9,,,,,1,,,74,100
14592,note_off,,,,,384,0,11,,,,,3,,,61,100
14592,note_on,,,,,32,0,8,,,,,0,,,76,70
14592,note_on,,,,,32,0,9,,,,,1,,,73,67
14684,note_off,,,,,92,0,9,,,,,1,,,73,100
14684,note_off,,,,,92,0,8,,,,,0,,,76,100
14688,note_on,,,,,4,0,9,,,,,1,,,74,66
14688,note_on,,,,,4,0,8,,,,,0,,,78,69
14752,note_off,,,,,64,0,8,,,,,0,,,78,100
14752,note_off,,,,,64,0,9,,,,,1,,,74,100
14784,note_on,,,,,32,0,9,,,,,1,,,73,64
14784,note_on,,,,,32,0,8,,,,,0,,,76,68
14784,note_on,,,,,192,0,11,,,,,3,,,61,60
14876,note_off,,,,,92,0,8,,,,,0,,,76,100
14876,note_off,,,,,92,0,9,,,,,1,,,73,100
14880,note_on,,,,,4,0,8,,,,,0,,,74,67
14880,note_on,,,,,4,0,9,,,,,1,,,71,62
14912,note_off,,,,,128,0,11,,,,,3,,,61,100
14944,note_off,,,,,64,0,8,,,,,0,,,74,100
14944,note_off,,,,,64,0,9,,,,,1,,,71,100
14976,note_on,,,,,32,0,8,,,,,0,,,73,65
14976,note_on,,,,,64,0,11,,,,,3,,,66,60
14976,note_on,,,,,32,0,9,,,,,1,,,70,60
15068,note_off,,,,,92,0,8,,,,,0,,,73,100
15072,note_on,,,,,4,0,8,,,,,0,,,71,65
15104,note_off,,,,,128,0,9,,,,,1,,,70,100
15136,note_off,,,,,64,0,8,,,,,0,,,71,100
15168,note_on,,,,,32,0,8,,,,,0,,,73,66
15168,note_on,,,,,64,0,9,,,,,1,,,70,62
15232,note_off,,,,,256,0,11,,,,,3,,,66,100
15260,note_off,,,,,92,0,8,,,,,0,,,73,100
15264,note_on,,,,,4,0,8,,,,,0,,,74,67
15296,note_off,,,,,128,0,9,,,,,1,,,70,100
15328,note_off,,,,,64,0,8,,,,,0,,,74,100
15360,note_on,,,,,32,0,8,,,,,0,,,73,68
15360,note_on,,,,,128,0,11,,,,,3,,,66,60
15360,note_on,,,,,64,0,9,,,,,1,,,70,64
15452,note_off,,,,,92,0,8,,,,,0,,,73,100
15456,note_on,,,,,4,0,8,,,,,0,,,71,69
15488,note_off,,,,,128,0,9,,,,,1,,,70,100
15520,note_off,,,,,64,0,8,,,,,0,,,71,100
15552,note_on,,,,,64,0,9,,,,,1,,,70,67
15552,note_on,,,,,32,0,8,,,,,0,,,73,69
15644,note_off,,,,,92,0,8,,,,,0,,,73,100
15648,note_on,,,,,4,0,8,,,,,0,,,74,70
15680,note_off,,,,,128,0,9,,,,,1,,,70,100
15712,note_off,,,,,64,0,8,,,,,0,,,74,100
15744,note_on,,,,,32,0,8,,,,,0,,,73,71
15744,note_off,,,,,384,0,11,,,,,3,,,66,100
15744,note_on,,,,,64,0,9,,,,,1,,,70,69
15836,note_off,,,,,92,0,8,,,,,0,,,73,100
15840,note_on,,,,,4,0,8,,,,,0,,,74,72
15872,note_off,,,,,128,0,9,,,,,1,,,70,100
15904,note_off,,,,,64,0,8,,,,,0,,,74,100
15936,note_on,,,,,32,0,8,,,,,0,,,71,73
15936,note_on,,,,,64,0,9,,,,,1,,,70,72
15936,note_on,,,,,192,0,11,,,,,3,,,66,60
16028,note_off,,,,,92,0,8,,,,,0,,,71,100
16032,note_on,,,,,4,0,8,,,,,0,,,73,74
16064,note_off,,,,,128,0,9,,,,,1,,,70,100
16064,note_off,,,,,128,0,11,,,,,3,,,66,100
16096,note_off,,,,,64,0,8,,,,,0,,,73,100
16124,program_change,,,,,60,0,9,,,,,1,48,,,
16128,note_on,,,,,4,0,9,,,,,1,,,71,74
16128,note_on,,,,,7808,0,15,,,,,6,,,59,100
16128,note_on,,,,,7808,0,13,,,,,5,,,47,60
16128,note_on,,,,,0,0,14,,,,,6,,,66,100
16128,note_on,,,,,7808,0,12,,,,,4,,,59,60
16128,note_on,,,,,7808,0,14,,,,,6,,,71,100
16128,note_on,,,,,7808,0,10,,,,,2,,,71,60
16128,note_on,,,,,32,0,8,,,,,0,,,74,74
16128,note_on,,,,,64,0,11,,,,,3,,,71,60
16384,note_off,,,,,256,0,14,,,,,6,,,71,100
16384,note_off,,,,,256,0,12,,,,,4,,,59,100
16384,note_off,,,,,256,0,13,,,,,5,,,47,100
16384,note_off,,,,,256,0,10,,,,,2,,,71,100
16384,note_off,,,,,0,0,14,,,,,6,,,66,100
16384,note_off,,,,,256,0,15,,,,,6,,,59,100
16384,note_off,,,,,256,0,11,,,,,3,,,71,100
16384,note_off,,,,,256,0,9,,,,,1,,,71,100
16384,note_off,,,,,256,0,8,,,,,0,,,74,100
16512,note_on,,,,,128,0,15,,,,,6,,,47,100
16512,note_on,,,,,128,0,11,,,,,3,,,59,60
16512,note_on,,,,,128,0,14,,,,,6,,,66,100
16512,note_on,,,,,0,0,14,,,,,6,,,62,100
16512,note_on,,,,,128,0,10,,,,,2,,,59,60
16512,note_on,,,,,128,0,13,,,,,5,,,35,60
16512,note_on,,,,,128,0,12,,,,,4,,,47,60
16768,note_off,,,,,256,0,10,,,,,2,,,59,100
16768,note_off,,,,,256,0,13,,,,,5,,,35,100
16768,note_off,,,,,256,0,11,,,,,3,,,59,100
16768,note_off,,,,,256,0,14,,,,,6,,,66,100
16768,note_off,,,,,0,0,14,,,,,6,,,62,100
16768,note_off,,,,,256,0,15,,,,,6,,,47,100
16768,note_off,,,,,256,0,12,,,,,4,,,47,100
17184,note_on,,,,,416,0,15,,,,,6,,,59,100
17184,note_on,,,,,416,0,10,,,,,2,,,71,60
17184,note_on,,,,,416,0,14,,,,,6,,,66,100
17184,note_on,,,,,416,0,11,,,,,3,,,71,60
17184,note_on,,,,,416,0,13,,,,,5,,,47,60
17184,note_on,,,,,416,0,12,,,,,4,,,59,60
17184,note_on,,,,,0,0,14,,,,,6,,,71,100
17248,note_off,,,,,64,0,15,,,,,6,,,59,100
17248,note_off,,,,,64,0,12,,,,,4,,,59,100
17248,note_off,,,,,64,0,13,,,,,5,,,47,100
17248,note_off,,,,,64,0,10,,,,,2,,,71,100
17248,note_off,,,,,0,0,14,,,,,6,,,71,100
17248,note_off,,,,,64,0,14,,,,,6,,,66,100
17248,note_off,,,,,64,0,11,,,,,3,,,71,100
17280,note_on,,,,,32,0,13,,,,,5,,,47,60
17280,note_on,,,,,32,0,10,,,,,2,,,71,60
17280,note_on,,,,,32,0,15,,,,,6,,,59,100
17280,note_on,,,,,0,0,14,,,,,6,,,71,100
17280,note_on,,,,,32,0,14,,,,,6,,,66,100
17280,note_on,,,,,32,0,12,,,,,4,,,59,60
17280,note_on,,,,,32,0,11,,,,,3,,,71,60
17536,note_off,,,,,256,0,10,,,,,2,,,71,100
17536,note_off,,,,,256,0,14,,,,,6,,,66,100
17536,note_off,,,,,256,0,12,,,,,4,,,59,100
17536,note_off,,,,,0,0,14,,,,,6,,,71,100
17536,note_off,,,,,256,0,13,,,,,5,,,47,100
17536,note_off,,,,,256,0,11,,,,,3,,,71,100
17536,note_off,,,,,256,0,15,,,,,6,,,59,100
17664,note_on,,,,,128,0,11,,,,,3,,,59,60
17664,note_on,,,,,128,0,10,,,,,2,,,59,60
17664,note_on,,,,,128,0,15,,,,,6,,,47,100
17664,note_on,,,,,128,0,12,,,,,4,,,47,60
17664,note_on,,,,,0,0,14,,,,,6,,,66,100
17664,note_on,,,,,128,0,13,,,,,5,,,35,60
17664,note_on,,,,,128,0,14,,,,,6,,,62,100
17920,note_off,,,,,256,0,14,,,,,6,,,62,100
17920,note_off,,,,,0,0,14,,,,,6,,,66,100
17920,note_off,,,,,256,0,15,,,,,6,,,47,100
17920,note_off,,,,,256,0,10,,,,,2,,,59,100
17920,note_off,,,,,256,0,11,,,,,3,,,59,100
17920,note_off,,,,,256,0,12,,,,,4,,,47,100
17920,note_off,,,,,256,0,13,,,,,5,,,35,100
18336,note_on,,,,,416,0,15,,,,,6,,,59,100
18336,note_on,,,,,0,0,14,,,,,6,,,62,100
18336,note_on,,,,,416,0,12,,,,,4,,,59,60
18336,note_on,,,,,416,0,13,,,,,5,,,47,60
18336,note_on,,,,,416,0,10,,,,,2,,,71,60
18336,note_on,,,,,416,0,14,,,,,6,,,71,100
18336,note_on,,,,,416,0,11,,,,,3,,,71,60
18400,note_off,,,,,64,0,12,,,,,4,,,59,100
18400,note_off,,,,,64,0,10,,,,,2,,,71,100
18400,note_off,,,,,64,0,15,,,,,6,,,59,100
18400,note_off,,,,,64,0,14,,,,,6,,,71,100
18400,note_off,,,,,0,0,14,,,,,6,,,62,100
18400,note_off,,,,,64,0,11,,,,,3,,,71,100
18400,note_off,,,,,64,0,13,,,,,5,,,47,100
18432,note_on,,,,,32,0,15,,,,,6,,,62,100
18432,note_on,,,,,32,0,14,,,,,6,,,69,100
18432,note_on,,,,,0,0,14,,,,,6,,,66,100
18432,note_on,,,,,32,0,13,,,,,5,,,50,60
18432,note_on,,,,,32,0,10,,,,,2,,,74,60
18432,note_on,,,,,32,0,11,,,,,3,,,74,60
18432,note_on,,,,,32,0,12,,,,,4,,,62,60
18624,note_off,,,,,192,0,10,,,,,2,,,74,100
18624,note_off,,,,,192,0,12,,,,,4,,,62,100
18624,note_off,,,,,192,0,15,,,,,6,,,62,100
18624,note_off,,,,,192,0,11,,,,,3,,,74,100
18624,note_off,,,,,192,0,13,,,,,5,,,50,100
18688,note_off,,,,,0,0,14,,,,,6,,,66,100
18688,note_off,,,,,256,0,14,,,,,6,,,69,100
18720,note_on,,,,,96,0,13,,,,,5,,,44,60
18720,note_on,,,,,96,0,11,,,,,3,,,68,60
18720,note_on,,,,,96,0,12,,,,,4,,,56,60
18720,note_on,,,,,96,0,10,,,,,2,,,68,60
18720,note_on,,,,,96,0,15,,,,,6,,,56,100
18784,note_off,,,,,64,0,15,,,,,6,,,56,100
18784,note_off,,,,,64,0,10,,,,,2,,,68,100
18784,note_off,,,,,64,0,13,,,,,5,,,44,100
18784,note_off,,,,,64,0,12,,,,,4,,,56,100
18784,note_off,,,,,64,0,11,,,,,3,,,68,100
18816,note_on,,,,,32,0,15,,,,,6,,,59,100
18816,note_on,,,,,0,0,14,,,,,6,,,62,100
18816,note_on,,,,,32,0,13,,,,,5,,,47,60
18816,note_on,,,,,128,0,14,,,,,6,,,66,100
18816,note_on,,,,,32,0,11,,,,,3,,,71,60
18816,note_on,,,,,32,0,12,,,,,4,,,59,60
18816,note_on,,,,,32,0,10,,,,,2,,,71,60
19008,note_off,,,,,192,0,13,,,,,5,,,47,100
19008,note_off,,,,,192,0,11,,,,,3,,,71,100
19008,note_off,,,,,192,0,10,,,,,2,,,71,100
19008,note_off,,,,,192,0,15,,,,,6,,,59,100
19008,note_off,,,,,192,0,12,,,,,4,,,59,100
19072,note_off,,,,,256,0,14,,,,,6,,,66,100
19072,note_off,,,,,0,0,14,,,,,6,,,62,100
19104,note_on,,,,,96,0,15,,,,,6,,,53,100
19104,note_on,,,,,96,0,13,,,,,5,,,41,60
19104,note_on,,,,,96,0,10,,,,,2,,,65,60
19104,note_on,,,,,96,0,11,,,,,3,,,65,60
19104,note_on,,,,,96,0,12,,,,,4,,,53,60
19168,note_off,,,,,64,0,12,,,,,4,,,53,100
19168,note_off,,,,,64,0,15,,,,,6,,,53,100
19168,note_off,,,,,64,0,10,,,,,2,,,65,100
19168,note_off,,,,,64,0,13,,,,,5,,,41,100
19168,note_off,,,,,64,0,11,,,,,3,,,65,100
19200,note_on,,,,,32,0,13,,,,,5,,,44,60
19200,note_on,,,,,32,0,11,,,,,3,,,68,60
19200,note_on,,,,,0,0,14,,,,,6,,,59,100
19200,note_on,,,,,128,0,14,,,,,6,,,62,100
19200,note_on,,,,,32,0,15,,,,,6,,,56,100
19200,note_on,,,,,32,0,12,,,,,4,,,56,60
19200,note_on,,,,,32,0,10,,,,,2,,,68,60
19392,note_off,,,,,192,0,11,,,,,3,,,68,100
19392,note_off,,,,,192,0,13,,,,,5,,,44,100
19392,note_off,,,,,192,0,10,,,,,2,,,68,100
19392,note_off,,,,,192,0,15,,,,,6,,,56,100
19392,note_off,,,,,192,0,12,,,,,4,,,56,100
19456,note_off,,,,,256,0,14,,,,,6,,,62,100
19456,note_off,,,,,0,0,14,,,,,6,,,59,100
19488,note_on,,,,,96,0,13,,,,,5,,,35,60
19488,note_on,,,,,96,0,11,,,,,3,,,59,60
19488,note_on,,,,,96,0,15,,,,,6,,,47,100
19488,note_on,,,,,96,0,12,,,,,4,,,47,60
19488,note_on,,,,,96,0,10,,,,,2,,,59,60
19552,note_off,,,,,64,0,11,,,,,3,,,59,100
19552,note_off,,,,,64,0,15,,,,,6,,,47,100
19552,note_off,,,,,64,0,10,,,,,2,,,59,100
19552,note_off,,,,,64,0,13,,,,,5,,,35,100
19552,note_off,,,,,64,0,12,,,,,4,,,47,100
19584,note_on,,,,,32,0,15,,,,,6,,,47,100
19584,note_on,,,,,32,0,13,,,,,5,,,35,60
19584,note_on,,,,,32,0,12,,,,,4,,,47,60
19584,note_on,,,,,32,0,11,,,,,3,,,59,60
19584,note_on,,,,,32,0,10,,,,,2,,,59,60
19584,note_on,,,,,0,0,14,,,,,6,,,61,100
19584,note_on,,,,,128,0,14,,,,,6,,,65,100
19840,note_off,,,,,0,0,14,,,,,6,,,61,100
19840,note_off,,,,,256,0,10,,,,,2,,,59,100
19840,note_off,,,,,256,0,15,,,,,6,,,47,100
19840,note_off,,,,,256,0,12,,,,,4,,,47,100
19840,note_off,,,,,256,0,11,,,,,3,,,59,100
19840,note_off,,,,,256,0,14,,,,,6,,,65,100
19840,note_off,,,,,256,0,13,,,,,5,,,35,100
20256,note_on,,,,,416,0,12,,,,,4,,,57,60
20256,note_on,,,,,416,0,10,,,,,2,,,69,60
20256,note_on,,,,,416,0,11,,,,,3,,,69,60
20256,note_on,,,,,416,0,15,,,,,6,,,57,100
20256,note_on,,,,,0,0,14,,,,,6,,,61,100
20256,note_on,,,,,416,0,14,,,,,6,,,66,100
20256,note_on,,,,,416,0,13,,,,,5,,,45,60
20320,note_off,,,,,64,0,10,,,,,2,,,69,100
20320,note_off,,,,,64,0,13,,,,,5,,,45,100
20320,note_off,,,,,64,0,11,,,,,3,,,69,100
20320,note_off,,,,,64,0,12,,,,,4,,,57,100
20320,note_off,,,,,0,0,14,,,,,6,,,61,100
20320,note_off,,,,,64,0,14,,,,,6,,,66,100
20320,note_off,,,,,64,0,15,,,,,6,,,57,100
20352,note_on,,,,,32,0,13,,,,,5,,,44,60
20352,note_on,,,,,32,0,10,,,,,2,,,68,60
20352,note_on,,,,,32,0,11,,,,,3,,,68,60
20352,note_on,,,,,32,0,14,,,,,6,,,62,100
20352,note_on,,,,,0,0,14,,,,,6,,,59,100
20352,note_on,,,,,32,0,12,,,,,4,,,56,60
20352,note_on,,,,,32,0,15,,,,,6,,,56,100
20544,note_off,,,,,192,0,15,,,,,6,,,56,100
20544,note_off,,,,,192,0,14,,,,,6,,,62,100
20544,note_off,,,,,0,0,14,,,,,6,,,59,100
20544,note_off,,,,,192,0,10,,,,,2,,,68,100
20544,note_off,,,,,192,0,11,,,,,3,,,68,100
20544,note_off,,,,,192,0,13,,,,,5,,,44,100
20544,note_off,,,,,192,0,12,,,,,4,,,56,100
20640,note_on,,,,,96,0,15,,,,,6,,,53,100
20640,note_on,,,,,96,0,10,,,,,2,,,65,60
20640,note_on,,,,,96,0,14,,,,,6,,,65,100
20640,note_on,,,,,96,0,11,,,,,3,,,65,60
20640,note_on,,,,,96,0,13,,,,,5,,,41,60
20640,note_on,,,,,96,0,12,,,,,4,,,53,60
20640,note_on,,,,,0,0,14,,,,,6,,,55,100
20704,note_off,,,,,64,0,12,,,,,4,,,53,100
20704,note_off,,,,,0,0,14,,,,,6,,,55,100
20704,note_off,,,,,64,0,14,,,,,6,,,65,100
20704,note_off,,,,,64,0,15,,,,,6,,,53,100
20704,note_off,,,,,64,0,10,,,,,2,,,65,100
20704,note_off,,,,,64,0,11,,,,,3,,,65,100
20704,note_off,,,,,64,0,13,,,,,5,,,41,100
20736,note_on,,,,,0,0,14,,,,,6,,,57,100
20736,note_on,,,,,32,0,15,,,,,6,,,54,100
20736,note_on,,,,,32,0,10,,,,,2,,,66,60
20736,note_on,,,,,32,0,11,,,,,3,,,66,60
20736,note_on,,,,,32,0,13,,,,,5,,,42,60
20736,note_on,,,,,32,0,12,,,,,4,,,54,60
20736,note_on,,,,,32,0,14,,,,,6,,,61,100
20928,note_off,,,,,192,0,13,,,,,5,,,42,100
20928,note_off,,,,,0,0,14,,,,,6,,,57,100
20928,note_off,,,,,192,0,14,,,,,6,,,61,100
20928,note_off,,,,,192,0,15,,,,,6,,,54,100
20928,note_off,,,,,192,0,10,,,,,2,,,66,100
20928,note_off,,,,,192,0,12,,,,,4,,,54,100
20928,note_off,,,,,192,0,11,,,,,3,,,66,100
21024,note_on,,,,,96,0,14,,,,,6,,,57,100
21024,note_on,,,,,0,0,14,,,,,6,,,66,100
21024,note_on,,,,,96,0,13,,,,,5,,,48,60
21024,note_on,,,,,96,0,15,,,,,6,,,60,100
21024,note_on,,,,,96,0,10,,,,,2,,,72,60
21024,note_on,,,,,96,0,12,,,,,4,,,60,60
21024,note_on,,,,,96,0,11,,,,,3,,,72,60
21088,note_off,,,,,0,0,14,,,,,6,,,66,100
21088,note_off,,,,,64,0,13,,,,,5,,,48,100
21088,note_off,,,,,64,0,14,,,,,6,,,57,100
21088,note_off,,,,,64,0,12,,,,,4,,,60,100
21088,note_off,,,,,64,0,11,,,,,3,,,72,100
21088,note_off,,,,,64,0,10,,,,,2,,,72,100
21088,note_off,,,,,64,0,15,,,,,6,,,60,100
21120,note_on,,,,,32,0,11,,,,,3,,,73,60
21120,note_on,,,,,32,0,12,,,,,4,,,61,60
21120,note_on,,,,,32,0,10,,,,,2,,,73,60
21120,note_on,,,,,32,0,15,,,,,6,,,61,100
21120,note_on,,,,,32,0,13,,,,,5,,,49,60
21120,note_on,,,,,32,0,14,,,,,6,,,66,100
21120,note_on,,,,,0,0,14,,,,,6,,,68,100
21376,note_off,,,,,256,0,11,,,,,3,,,73,100
21376,note_off,,,,,256,0,10,,,,,2,,,73,100
21376,note_off,,,,,256,0,13,,,,,5,,,49,100
21376,note_off,,,,,0,0,14,,,,,6,,,68,100
21376,note_off,,,,,256,0,15,,,,,6,,,61,100
21376,note_off,,,,,256,0,12,,,,,4,,,61,100
21376,note_off,,,,,256,0,14,,,,,6,,,66,100
21504,note_on,,,,,0,0,14,,,,,6,,,65,100
21504,note_on,,,,,128,0,12,,,,,4,,,49,60
21504,note_on,,,,,128,0,11,,,,,3,,,61,60
21504,note_on,,,,,128,0,10,,,,,2,,,61,60
21504,note_on,,,,,128,0,15,,,,,6,,,49,100
21504,note_on,,,,,128,0,13,,,,,5,,,37,60
21504,note_on,,,,,128,0,14,,,,,6,,,56,100
21760,note_off,,,,,256,0,14,,,,,6,,,56,100
21760,note_off,,,,,256,0,11,,,,,3,,,61,100
21760,note_off,,,,,0,0,14,,,,,6,,,65,100
21760,note_off,,,,,256,0,12,,,,,4,,,49,100
21760,note_off,,,,,256,0,10,,,,,2,,,61,100
21760,note_off,,,,,256,0,15,,,,,6,,,49,100
21760,note_off,,,,,256,0,13,,,,,5,,,37,100
21884,program_change,,,,,5500,0,9,,,,,1,40,,,
21888,note_on,,,,,0,0,14,,,,,6,,,61,100
21888,note_on,,,,,128,0,15,,,,,6,,,42,100
21888,note_on,,,,,128,0,10,,,,,2,,,66,60
21888,note_on,,,,,4,0,9,,,,,1,,,78,75
21888,note_on,,,,,128,0,11,,,,,3,,,66,60
21888,note_on,,,,,128,0,13,,,,,5,,,42,60
21888,note_on,,,,,128,0,14,,,,,6,,,57,100
21888,note_on,,,,,5504,0,8,,,,,0,,,81,75
21888,note_on,,,,,128,0,12,,,,,4,,,42,60
21980,note_off,,,,,92,0,9,,,,,1,,,78,100
21980,note_off,,,,,92,0,8,,,,,0,,,81,100
21984,note_on,,,,,4,0,9,,,,,1,,,76,75
21984,note_on,,,,,4,0,8,,,,,0,,,79,75
22048,note_off,,,,,64,0,9,,,,,1,,,76,100
22048,note_off,,,,,64,0,8,,,,,0,,,79,100
22080,note_on,,,,,32,0,9,,,,,1,,,78,75
22080,note_on,,,,,32,0,8,,,,,0,,,81,75
22144,note_off,,,,,0,0,14,,,,,6,,,61,100
22144,note_off,,,,,256,0,15,,,,,6,,,42,100
22144,note_off,,,,,256,0,12,,,,,4,,,42,100
22144,note_off,,,,,256,0,13,,,,,5,,,42,100
22144,note_off,,,,,256,0,11,,,,,3,,,66,100
22144,note_off,,,,,256,0,14,,,,,6,,,57,100
22144,note_off,,,,,256,0,10,,,,,2,,,66,100
22172,note_off,,,,,92,0,8,,,,,0,,,81,100
22172,note_off,,,,,92,0,9,,,,,1,,,78,100
22176,note_on,,,,,4,0,9,,,,,1,,,79,75
22176,note_on,,,,,4,0,8,,,,,0,,,83,75
22240,note_off,,,,,64,0,9,,,,,1,,,79,100
22240,note_off,,,,,64,0,8,,,,,0,,,83,100
22272,note_on,,,,,32,0,9,,,,,1,,,78,75
22272,note_on,,,,,32,0,8,,,,,0,,,81,75
22272,note_on,,,,,128,0,11,,,,,3,,,66,60
22364,note_off,,,,,92,0,9,,,,,1,,,78,100
22364,note_off,,,,,92,0,8,,,,,0,,,81,100
22368,note_on,,,,,4,0,9,,,,,1,,,76,74
22368,note_on,,,,,4,0,8,,,,,0,,,79,74
22432,note_off,,,,,64,0,8,,,,,0,,,79,100
22432,note_off,,,,,64,0,9,,,,,1,,,76,100
22464,note_on,,,,,32,0,9,,,,,1,,,78,74
22464,note_on,,,,,32,0,8,,,,,0,,,81,74
22556,note_off,,,,,92,0,8,,,,,0,,,81,100
22556,note_off,,,,,92,0,9,,,,,1,,,78,100
22560,note_on,,,,,4,0,9,,,,,1,,,79,74
22560,note_on,,,,,4,0,8,,,,,0,,,83,74
22624,note_off,,,,,64,0,9,,,,,1,,,79,100
22624,note_off,,,,,64,0,8,,,,,0,,,83,100
22656,note_on,,,,,32,0,9,,,,,1,,,78,74
22656,note_on,,,,,32,0,8,,,,,0,,,81,74
22656,note_off,,,,,384,0,11,,,,,3,,,66,100
22748,note_off,,,,,92,0,8,,,,,0,,,81,100
22748,note_off,,,,,92,0,9,,,,,1,,,78,100
22752,note_on,,,,,4,0,9,,,,,1,,,76,74
22752,note_on,,,,,4,0,8,,,,,0,,,79,74
22816,note_off,,,,,64,0,9,,,,,1,,,76,100
22816,note_off,,,,,64,0,8,,,,,0,,,79,100
22848,note_on,,,,,192,0,11,,,,,3,,,71,60
22848,note_on,,,,,32,0,9,,,,,1,,,78,73
22848,note_on,,,,,32,0,8,,,,,0,,,81,73
22940,note_off,,,,,92,0,8,,,,,0,,,81,100
22940,note_off,,,,,92,0,9,,,,,1,,,78,100
22944,note_on,,,,,4,0,9,,,,,1,,,74,73
22944,note_on,,,,,4,0,8,,,,,0,,,78,73
22976,note_off,,,,,128,0,11,,,,,3,,,71,100
23008,note_off,,,,,64,0,9,,,,,1,,,74,100
23008,note_off,,,,,64,0,8,,,,,0,,,78,100
23040,note_on,,,,,32,0,9,,,,,1,,,76,73
23040,note_on,,,,,64,0,11,,,,,3,,,64,60
23040,note_on,,,,,32,0,8,,,,,0,,,79,73
23132,note_off,,,,,92,0,8,,,,,0,,,79,100
23132,note_off,,,,,92,0,9,,,,,1,,,76,100
23136,note_on,,,,,4,0,8,,,,,0,,,78,73
23136,note_on,,,,,4,0,9,,,,,1,,,74,73
23200,note_off,,,,,64,0,8,,,,,0,,,78,100
23200,note_off,,,,,64,0,9,,,,,1,,,74,100
23232,note_on,,,,,32,0,9,,,,,1,,,76,73
23232,note_on,,,,,32,0,8,,,,,0,,,79,73
23296,note_off,,,,,256,0,11,,,,,3,,,64,100
23324,note_off,,,,,92,0,8,,,,,0,,,79,100
23324,note_off,,,,,92,0,9,,,,,1,,,76,100
23328,note_on,,,,,4,0,8,,,,,0,,,81,72
23328,note_on,,,,,4,0,9,,,,,1,,,78,72
23392,note_off,,,,,64,0,9,,,,,1,,,78,100
23392,note_off,,,,,64,0,8,,,,,0,,,81,100
23424,note_on,,,,,128,0,11,,,,,3,,,64,60
23424,note_on,,,,,32,0,8,,,,,0,,,79,72
23424,note_on,,,,,32,0,9,,,,,1,,,76,72
23516,note_off,,,,,92,0,9,,,,,1,,,76,100
23516,note_off,,,,,92,0,8,,,,,0,,,79,100
23520,note_on,,,,,4,0,9,,,,,1,,,74,72
23520,note_on,,,,,4,0,8,,,,,0,,,78,72
23584,note_off,,,,,64,0,9,,,,,1,,,74,100
23584,note_off,,,,,64,0,8,,,,,0,,,78,100
23616,note_on,,,,,32,0,9,,,,,1,,,76,72
23616,note_on,,,,,32,0,8,,,,,0,,,79,72
23708,note_off,,,,,92,0,8,,,,,0,,,79,100
23708,note_off,,,,,92,0,9,,,,,1,,,76,100
23712,note_on,,,,,4,0,8,,,,,0,,,81,72
23712,note_on,,,,,4,0,9,,,,,1,,,78,72
23776,note_off,,,,,64,0,9,,,,,1,,,78,100
23776,note_off,,,,,64,0,8,,,,,0,,,81,100
23808,note_on,,,,,32,0,9,,,,,1,,,76,71
23808,note_off,,,,,384,0,11,,,,,3,,,64,100
23808,note_on,,,,,32,0,8,,,,,0,,,79,71
23900,note_off,,,,,92,0,8,,,,,0,,,79,100
23900,note_off,,,,,92,0,9,,,,,1,,,76,100
23904,note_on,,,,,4,0,9,,,,,1,,,74,71
23904,note_on,,,,,4,0,8,,,,,0,,,78,71
23968,note_off,,,,,64,0,8,,,,,0,,,78,100
23968,note_off,,,,,64,0,9,,,,,1,,,74,100
24000,note_on,,,,,32,0,8,,,,,0,,,79,71
24000,note_on,,,,,32,0,9,,,,,1,,,76,71
24000,note_on,,,,,192,0,11,,,,,3,,,69,60
24092,note_off,,,,,92,0,9,,,,,1,,,76,100
24092,note_off,,,,,92,0,8,,,,,0,,,79,100
24096,note_on,,,,,4,0,9,,,,,1,,,73,71
24096,note_on,,,,,4,0,8,,,,,0,,,76,71
24128,note_off,,,,,128,0,11,,,,,3,,,69,100
24160,note_off,,,,,64,0,9,,,,,1,,,73,100
24160,note_off,,,,,64,0,8,,,,,0,,,76,100
24192,note_on,,,,,32,0,8,,,,,0,,,78,71
24192,note_on,,,,,64,0,11,,,,,3,,,62,60
24192,note_on,,,,,32,0,9,,,,,1,,,74,71
24284,note_off,,,,,92,0,9,,,,,1,,,74,100
24284,note_off,,,,,92,0,8,,,,,0,,,78,100
24288,note_on,,,,,4,0,8,,,,,0,,,76,70
24288,note_on,,,,,4,0,9,,,,,1,,,73,70
24352,note_off,,,,,64,0,8,,,,,0,,,76,100
24352,note_off,,,,,64,0,9,,,,,1,,,73,100
24384,note_on,,,,,32,0,9,,,,,1,,,74,70
24384,note_on,,,,,32,0,8,,,,,0,,,78,70
24448,note_off,,,,,256,0,11,,,,,3,,,62,100
24476,note_off,,,,,92,0,8,,,,,0,,,78,100
24476,note_off,,,,,92,0,9,,,,,1,,,74,100
24480,note_on,,,,,4,0,8,,,,,0,,,79,70
24480,note_on,,,,,4,0,9,,,,,1,,,76,70
24544,note_off,,,,,64,0,9,,,,,1,,,76,100
24544,note_off,,,,,64,0,8,,,,,0,,,79,100
24576,note_on,,,,,32,0,8,,,,,0,,,78,70
24576,note_on,,,,,32,0,9,,,,,1,,,74,70
24576,note_on,,,,,128,0,11,,,,,3,,,62,60
24668,note_off,,,,,92,0,9,,,,,1,,,74,100
24668,note_off,,,,,92,0,8,,,,,0,,,78,100
24672,note_on,,,,,4,0,8,,,,,0,,,76,69
24672,note_on,,,,,4,0,9,,,,,1,,,73,69
24736,note_off,,,,,64,0,8,,,,,0,,,76,100
24736,note_off,,,,,64,0,9,,,,,1,,,73,100
24768,note_on,,,,,32,0,9,,,,,1,,,74,69
24768,note_on,,,,,32,0,8,,,,,0,,,78,69
24860,note_off,,,,,92,0,9,,,,,1,,,74,100
24860,note_off,,,,,92,0,8,,,,,0,,,78,100
24864,note_on,,,,,4,0,8,,,,,0,,,79,69
24864,note_on,,,,,4,0,9,,,,,1,,,76,69
24928,note_off,,,,,64,0,8,,,,,0,,,79,100
24928,note_off,,,,,64,0,9,,,,,1,,,76,100
24960,note_on,,,,,32,0,9,,,,,1,,,74,69
24960,note_on,,,,,32,0,8,,,,,0,,,78,69
24960,note_off,,,,,384,0,11,,,,,3,,,62,100
25052,note_off,,,,,92,0,8,,,,,0,,,78,100
25052,note_off,,,,,92,0,9,,,,,1,,,74,100
25056,note_on,,,,,4,0,8,,,,,0,,,76,69
25056,note_on,,,,,4,0,9,,,,,1,,,73,69
25120,note_off,,,,,64,0,8,,,,,0,,,76,100
25120,note_off,,,,,64,0,9,,,,,1,,,73,100
25152,note_on,,,,,192,0,11,,,,,3,,,67,60
25152,note_on,,,,,32,0,9,,,,,1,,,74,68
25152,note_on,,,,,32,0,8,,,,,0,,,78,68
25244,note_off,,,,,92,0,8,,,,,0,,,78,100
25244,note_off,,,,,92,0,9,,,,,1,,,74,100
25248,note_on,,,,,4,0,8,,,,,0,,,74,68
25248,note_on,,,,,4,0,9,,,,,1,,,71,68
25280,note_off,,,,,128,0,11,,,,,3,,,67,100
25312,note_off,,,,,64,0,8,,,,,0,,,74,100
25312,note_off,,,,,64,0,9,,,,,1,,,71,100
25344,note_on,,,,,32,0,8,,,,,0,,,76,68
25344,note_on,,,,,32,0,9,,,,,1,,,73,68
25344,note_on,,,,,64,0,11,,,,,3,,,61,60
25436,note_off,,,,,92,0,9,,,,,1,,,73,100
25436,note_off,,,,,92,0,8,,,,,0,,,76,100
25440,note_on,,,,,4,0,8,,,,,0,,,74,68
25440,note_on,,,,,4,0,9,,,,,1,,,71,68
25504,note_off,,,,,64,0,8,,,,,0,,,74,100
25504,note_off,,,,,64,0,9,,,,,1,,,71,100
25536,note_on,,,,,32,0,8,,,,,0,,,76,68
25536,note_on,,,,,32,0,9,,,,,1,,,73,68
25600,note_off,,,,,256,0,11,,,,,3,,,61,100
25628,note_off,,,,,92,0,9,,,,,1,,,73,100
25628,note_off,,,,,92,0,8,,,,,0,,,76,100
25632,note_on,,,,,4,0,8,,,,,0,,,78,67
25632,note_on,,,,,4,0,9,,,,,1,,,74,67
25696,note_off,,,,,64,0,8,,,,,0,,,78,100
25696,note_off,,,,,64,0,9,,,,,1,,,74,100
25728,note_on,,,,,32,0,8,,,,,0,,,76,67
25728,note_on,,,,,32,0,9,,,,,1,,,73,67
25728,note_on,,,,,128,0,11,,,,,3,,,61,60
25820,note_off,,,,,92,0,8,,,,,0,,,76,100
25820,note_off,,,,,92,0,9,,,,,1,,,73,100
25824,note_on,,,,,4,0,8,,,,,0,,,74,67
25824,note_on,,,,,4,0,9,,,,,1,,,71,67
25888,note_off,,,,,64,0,8,,,,,0,,,74,100
25888,note_off,,,,,64,0,9,,,,,1,,,71,100
25920,note_on,,,,,32,0,9,,,,,1,,,73,67
25920,note_on,,,,,32,0,8,,,,,0,,,76,67
26012,note_off,,,,,92,0,8,,,,,0,,,76,100
26012,note_off,,,,,92,0,9,,,,,1,,,73,100
26016,note_on,,,,,4,0,8,,,,,0,,,78,67
26016,note_on,,,,,4,0,9,,,,,1,,,74,67
26080,note_off,,,,,64,0,8,,,,,0,,,78,100
26080,note_off,,,,,64,0,9,,,,,1,,,74,100
26112,note_on,,,,,32,0,9,,,,,1,,,73,66
26112,note_off,,,,,384,0,11,,,,,3,,,61,100
26112,note_on,,,,,32,0,8,,,,,0,,,76,66
26204,note_off,,,,,92,0,9,,,,,1,,,73,100
26204,note_off,,,,,92,0,8,,,,,0,,,76,100
26208,note_on,,,,,4,0,8,,,,,0,,,74,66
26208,note_on,,,,,4,0,9,,,,,1,,,71,66
26272,note_off,,,,,64,0,9,,,,,1,,,71,100
26272,note_off,,,,,64,0,8,,,,,0,,,74,100
26304,note_on,,,,,32,0,9,,,,,1,,,73,66
26304,note_on,,,,,192,0,11,,,,,3,,,66,60
26304,note_on,,,,,32,0,8,,,,,0,,,76,66
26396,note_off,,,,,92,0,8,,,,,0,,,76,100
26396,note_off,,,,,92,0,9,,,,,1,,,73,100
26400,note_on,,,,,4,0,8,,,,,0,,,73,66
26400,note_on,,,,,4,0,9,,,,,1,,,70,66
26432,note_off,,,,,128,0,11,,,,,3,,,66,100
26464,note_off,,,,,64,0,9,,,,,1,,,70,100
26464,note_off,,,,,64,0,8,,,,,0,,,73,100
26496,note_on,,,,,64,0,11,,,,,3,,,59,60
26496,note_on,,,,,32,0,9,,,,,1,,,71,66
26496,note_on,,,,,32,0,8,,,,,0,,,74,66
26624,note_off,,,,,128,0,8,,,,,0,,,74,100
26688,note_on,,,,,64,0,8,,,,,0,,,78,70
26752,end_of_track,,,,,0,1,9,,,,,,,,,
26752,note_off,,,,,256,0,9,,,,,1,,,71,100
26752,note_off,,,,,256,0,11,,,,,3,,,59,100
26816,note_off,,,,,128,0,8,,,,,0,,,78,100
26880,note_on,,,,,64,0,8,,,,,0,,,78,65
26880,note_on,,,,,128,0,11,,,,,3,,,59,60
26972,note_off,,,,,92,0,8,,,,,0,,,78,100
26976,note_on,,,,,4,0,8,,,,,0,,,76,65
27040,note_off,,,,,64,0,8,,,,,0,,,76,100
27072,note_on,,,,,32,0,8,,,,,0,,,78,65
27164,note_off,,,,,92,0,8,,,,,0,,,78,100
27168,note_on,,,,,4,0,8,,,,,0,,,80,66
27232,note_off,,,,,64,0,8,,,,,0,,,80,100
27264,note_off,,,,,384,0,11,,,,,3,,,59,100
27264,note_on,,,,,32,0,8,,,,,0,,,78,66
27356,note_off,,,,,92,0,8,,,,,0,,,78,100
27360,note_on,,,,,4,0,8,,,,,0,,,80,67
27424,note_off,,,,,64,0,8,,,,,0,,,80,100
27456,note_on,,,,,192,0,11,,,,,3,,,62,60
27456,note_on,,,,,32,0,8,,,,,0,,,76,67
27548,note_off,,,,,92,0,8,,,,,0,,,76,100
27552,note_on,,,,,4,0,8,,,,,0,,,78,67
27584,note_off,,,,,128,0,11,,,,,3,,,62,100
27616,note_off,,,,,64,0,8,,,,,0,,,78,100
27648,note_on,,,,,32,0,8,,,,,0,,,80,68
27648,note_on,,,,,64,0,11,,,,,3,,,64,60
27740,note_off,,,,,92,0,8,,,,,0,,,80,100
27744,note_on,,,,,4,0,8,,,,,0,,,78,68
27808,note_off,,,,,64,0,8,,,,,0,,,78,100
27840,note_on,,,,,32,0,8,,,,,0,,,80,69
27904,note_off,,,,,256,0,11,,,,,3,,,64,100
27932,note_off,,,,,92,0,8,,,,,0,,,80,100
27936,note_on,,,,,4,0,8,,,,,0,,,81,69
28000,note_off,,,,,64,0,8,,,,,0,,,81,100
28032,note_on,,,,,128,0,11,,,,,3,,,64,60
28032,note_on,,,,,32,0,8,,,,,0,,,80,69
28124,note_off,,,,,92,0,8,,,,,0,,,80,100
28128,note_on,,,,,4,0,8,,,,,0,,,78,70
28192,note_off,,,,,64,0,8,,,,,0,,,78,100
28224,note_on,,,,,32,0,8,,,,,0,,,80,70
28316,note_off,,,,,92,0,8,,,,,0,,,80,100
28320,note_on,,,,,4,0,8,,,,,0,,,81,71
28384,note_off,,,,,64,0,8,,,,,0,,,81,100
28416,note_off,,,,,384,0,11,,,,,3,,,64,100
28416,note_on,,,,,32,0,8,,,,,0,,,80,71
28508,note_off,,,,,92,0,8,,,,,0,,,80,100
28512,note_on,,,,,4,0,8,,,,,0,,,81,72
28576,note_off,,,,,64,0,8,,,,,0,,,81,100
28608,note_on,,,,,192,0,11,,,,,3,,,64,60
28608,note_on,,,,,32,0,8,,,,,0,,,78,72
28700,note_off,,,,,92,0,8,,,,,0,,,78,100
28704,note_on,,,,,4,0,8,,,,,0,,,80,72
28736,note_off,,,,,128,0,11,,,,,3,,,64,100
28768,note_off,,,,,64,0,8,,,,,0,,,80,100
28800,note_on,,,,,64,0,11,,,,,3,,,66,60
28800,note_on,,,,,32,0,8,,,,,0,,,82,73
28892,note_off,,,,,92,0,8,,,,,0,,,82,100
28896,note_on,,,,,4,0,8,,,,,0,,,80,73
28960,note_off,,,,,64,0,8,,,,,0,,,80,100
28992,note_on,,,,,32,0,8,,,,,0,,,82,74
29056,note_off,,,,,256,0,11,,,,,3,,,66,100
29084,note_off,,,,,92,0,8,,,,,0,,,82,100
29088,note_on,,,,,4,0,8,,,,,0,,,83,74
29152,note_off,,,,,64,0,8,,,,,0,,,83,100
29184,note_on,,,,,128,0,11,,,,,3,,,66,60
29184,note_on,,,,,32,0,8,,,,,0,,,82,75
29276,note_off,,,,,92,0,8,,,,,0,,,82,100
29280,note_on,,,,,4,0,8,,,,,0,,,80,75
29344,note_off,,,,,64,0,8,,,,,0,,,80,100
29376,note_on,,,,,32,0,8,,,,,0,,,82,74
29468,note_off,,,,,92,0,8,,,,,0,,,82,100
29472,note_on,,,,,4,0,8,,,,,0,,,83,73
29536,note_off,,,,,64,0,8,,,,,0,,,83,100
29568,note_on,,,,,32,0,8,,,,,0,,,82,73
29568,note_off,,,,,384,0,11,,,,,3,,,66,100
29660,note_off,,,,,92,0,8,,,,,0,,,82,100
29664,note_on,,,,,4,0,8,,,,,0,,,83,72
29728,note_off,,,,,64,0,8,,,,,0,,,83,100
29760,note_on,,,,,32,0,8,,,,,0,,,80,71
29760,note_on,,,,,192,0,11,,,,,3,,,64,60
29852,note_off,,,,,92,0,8,,,,,0,,,80,100
29856,note_on,,,,,4,0,8,,,,,0,,,82,71
29888,note_off,,,,,128,0,11,,,,,3,,,64,100
29920,note_off,,,,,64,0,8,,,,,0,,,82,100
29952,note_on,,,,,32,0,8,,,,,0,,,83,70
29952,note_on,,,,,64,0,11,,,,,3,,,62,60
30044,note_off,,,,,92,0,8,,,,,0,,,83,100
30048,note_on,,,,,4,0,8,,,,,0,,,82,71
30112,note_off,,,,,64,0,8,,,,,0,,,82,100
30144,note_on,,,,,32,0,8,,,,,0,,,83,72
30208,note_off,,,,,256,0,11,,,,,3,,,62,100
30236,note_off,,,,,92,0,8,,,,,0,,,83,100
30240,note_on,,,,,4,0,8,,,,,0,,,86,73
30304,note_off,,,,,64,0,8,,,,,0,,,86,100
30336,note_on,,,,,32,0,8,,,,,0,,,83,74
30336,note_on,,,,,128,0,11,,,,,3,,,62,60
30428,note_off,,,,,92,0,8,,,,,0,,,83,100
30432,note_on,,,,,4,0,8,,,,,0,,,82,75
30496,note_off,,,,,64,0,8,,,,,0,,,82,100
30528,note_on,,,,,32,0,8,,,,,0,,,83,75
30620,note_off,,,,,92,0,8,,,,,0,,,83,100
30624,note_on,,,,,4,0,8,,,,,0,,,86,75
30688,note_off,,,,,64,0,8,,,,,0,,,86,100
30720,note_off,,,,,384,0,11,,,,,3,,,62,100
30720,note_on,,,,,32,0,8,,,,,0,,,83,75
30812,note_off,,,,,92,0,8,,,,,0,,,83,100
30816,note_on,,,,,4,0,8,,,,,0,,,82,75
30880,note_off,,,,,64,0,8,,,,,0,,,82,100
30912,note_on,,,,,32,0,8,,,,,0,,,83,75
30912,note_on,,,,,192,0,11,,,,,3,,,62,60
31004,note_off,,,,,92,0,8,,,,,0,,,83,100
31008,note_on,,,,,4,0,8,,,,,0,,,86,75
31040,note_off,,,,,128,0,11,,,,,3,,,62,100
31072,note_off,,,,,64,0,8,,,,,0,,,86,100
31104,note_on,,,,,32,0,8,,,,,0,,,83,75
31104,note_on,,,,,64,0,11,,,,,3,,,64,60
31196,note_off,,,,,92,0,8,,,,,0,,,83,100
31200,note_on,,,,,4,0,8,,,,,0,,,82,75
31264,note_off,,,,,64,0,8,,,,,0,,,82,100
31296,note_on,,,,,32,0,8,,,,,0,,,83,75
31360,note_off,,,,,256,0,11,,,,,3,,,64,100
31388,note_off,,,,,92,0,8,,,,,0,,,83,100
31392,note_on,,,,,4,0,8,,,,,0,,,86,75
31456,note_off,,,,,64,0,8,,,,,0,,,86,100
31488,note_on,,,,,128,0,11,,,,,3,,,64,60
31488,note_on,,,,,32,0,8,,,,,0,,,83,75
31580,note_off,,,,,92,0,8,,,,,0,,,83,100
31584,note_on,,,,,4,0,8,,,,,0,,,82,75
31648,note_off,,,,,64,0,8,,,,,0,,,82,100
31680,note_on,,,,,32,0,8,,,,,0,,,83,75
31772,note_off,,,,,92,0,8,,,,,0,,,83,100
31776,note_on,,,,,4,0,8,,,,,0,,,86,75
31840,note_off,,,,,64,0,8,,,,,0,,,86,100
31872,note_off,,,,,384,0,11,,,,,3,,,64,100
31872,note_on,,,,,32,0,8,,,,,0,,,83,75
31964,note_off,,,,,92,0,8,,,,,0,,,83,100
31968,note_on,,,,,4,0,8,,,,,0,,,82,75
32032,note_off,,,,,64,0,8,,,,,0,,,82,100
32064,note_on,,,,,192,0,11,,,,,3,,,64,60
32064,note_on,,,,,32,0,8,,,,,0,,,83,75
32156,note_off,,,,,92,0,8,,,,,0,,,83,100
32160,note_on,,,,,4,0,8,,,,,0,,,86,75
32192,note_off,,,,,128,0,11,,,,,3,,,64,100
32224,note_off,,,,,64,0,8,,,,,0,,,86,100
32256,note_on,,,,,64,0,11,,,,,3,,,66,60
32256,note_on,,,,,32,0,8,,,,,0,,,83,75
32348,note_off,,,,,92,0,8,,,,,0,,,83,100
32352,note_on,,,,,4,0,8,,,,,0,,,82,75
32416,note_off,,,,,64,0,8,,,,,0,,,82,100
32448,note_on,,,,,32,0,8,,,,,0,,,83,74
32512,note_off,,,,,256,0,11,,,,,3,,,66,100
32540,note_off,,,,,92,0,8,,,,,0,,,83,100
32544,note_on,,,,,4,0,8,,,,,0,,,86,73
32608,note_off,,,,,64,0,8,,,,,0,,,86,100
32640,note_on,,,,,128,0,11,,,,,3,,,66,60
32640,note_on,,,,,32,0,8,,,,,0,,,83,72
32732,note_off,,,,,92,0,8,,,,,0,,,83,100
32736,note_on,,,,,4,0,8,,,,,0,,,82,71
32800,note_off,,,,,64,0,8,,,,,0,,,82,100
32832,note_on,,,,,32,0,8,,,,,0,,,83,71
32924,note_off,,,,,92,0,8,,,,,0,,,83,100
32928,note_on,,,,,4,0,8,,,,,0,,,86,70
32992,note_off,,,,,64,0,8,,,,,0,,,86,100
33024,note_off,,,,,384,0,11,,,,,3,,,66,100
33024,note_on,,,,,32,0,8,,,,,0,,,82,70
33116,note_off,,,,,92,0,8,,,,,0,,,82,100
33120,note_on,,,,,4,0,8,,,,,0,,,83,70
33184,note_off,,,,,64,0,8,,,,,0,,,83,100
33216,note_on,,,,,192,0,11,,,,,3,,,66,60
33216,note_on,,,,,32,0,8,,,,,0,,,85,70
33308,note_off,,,,,92,0,8,,,,,0,,,85,100
33312,note_on,,,,,4,0,8,,,,,0,,,82,70
33344,note_off,,,,,128,0,11,,,,,3,,,66,100
33376,note_off,,,,,64,0,8,,,,,0,,,82,100
33408,note_on,,,,,64,0,11,,,,,3,,,59,60
33408,note_on,,,,,32,0,8,,,,,0,,,83,70
33536,note_off,,,,,128,0,8,,,,,0,,,83,100
33600,note_on,,,,,64,0,8,,,,,0,,,71,75
33664,note_off,,,,,256,0,11,,,,,3,,,59,100
33728,note_off,,,,,128,0,8,,,,,0,,,71,100
33792,note_on,,,,,64,0,8,,,,,0,,,71,75
33792,note_on,,,,,128,0,11,,,,,3,,,62,60
33884,note_off,,,,,92,0,8,,,,,0,,,71,100
33888,note_on,,,,,4,0,8,,,,,0,,,73,75
33980,note_off,,,,,92,0,8,,,,,0,,,73,100
33984,note_on,,,,,4,0,8,,,,,0,,,71,75
34048,note_off,,,,,64,0,8,,,,,0,,,71,100
34080,note_on,,,,,32,0,8,,,,,0,,,78,75
34144,note_off,,,,,64,0,8,,,,,0,,,78,100
34176,note_off,,,,,384,0,11,,,,,3,,,62,100
34176,note_on,,,,,32,0,8,,,,,0,,,71,75
34268,note_off,,,,,92,0,8,,,,,0,,,71,100
34272,note_on,,,,,4,0,8,,,,,0,,,73,75
34364,note_off,,,,,92,0,8,,,,,0,,,73,100
34368,note_on,,,,,192,0,11,,,,,3,,,62,60
34368,note_on,,,,,4,0,8,,,,,0,,,71,75
34432,note_off,,,,,64,0,8,,,,,0,,,71,100
34464,note_on,,,,,32,0,8,,,,,0,,,78,75
34496,note_off,,,,,128,0,11,,,,,3,,,62,100
34528,note_off,,,,,64,0,8,,,,,0,,,78,100
34560,note_on,,,,,64,0,11,,,,,3,,,64,60
34560,note_on,,,,,32,0,8,,,,,0,,,71,75
34652,note_off,,,,,92,0,8,,,,,0,,,71,100
34656,note_on,,,,,4,0,8,,,,,0,,,73,75
34748,note_off,,,,,92,0,8,,,,,0,,,73,100
34752,note_on,,,,,4,0,8,,,,,0,,,71,75
34816,note_off,,,,,64,0,8,,,,,0,,,71,100
34816,note_off,,,,,256,0,11,,,,,3,,,64,100
34848,note_on,,,,,32,0,8,,,,,0,,,79,75
34912,note_off,,,,,64,0,8,,,,,0,,,79,100
34944,note_on,,,,,128,0,11,,,,,3,,,64,60
34944,note_on,,,,,32,0,8,,,,,0,,,71,75
35036,note_off,,,,,92,0,8,,,,,0,,,71,100
35040,note_on,,,,,4,0,8,,,,,0,,,73,75
35132,note_off,,,,,92,0,8,,,,,0,,,73,100
35136,note_on,,,,,4,0,8,,,,,0,,,71,75
35200,note_off,,,,,64,0,8,,,,,0,,,71,100
35232,note_on,,,,,32,0,8,,,,,0,,,79,75
35296,note_off,,,,,64,0,8,,,,,0,,,79,100
35328,note_on,,,,,32,0,8,,,,,0,,,71,75
35328,note_off,,,,,384,0,11,,,,,3,,,64,100
35420,note_off,,,,,92,0,8,,,,,0,,,71,100
35424,note_on,,,,,4,0,8,,,,,0,,,73,75
35516,note_off,,,,,92,0,8,,,,,0,,,73,100
35520,note_on,,,,,4,0,8,,,,,0,,,71,75
35520,note_on,,,,,192,0,11,,,,,3,,,64,60
35584,note_off,,,,,64,0,8,,,,,0,,,71,100
35616,note_on,,,,,32,0,8,,,,,0,,,79,75
35648,note_off,,,,,128,0,11,,,,,3,,,64,100
35680,note_off,,,,,64,0,8,,,,,0,,,79,100
35712,note_on,,,,,32,0,8,,,,,0,,,72,75
35712,note_on,,,,,64,0,11,,,,,3,,,64,60
35804,note_off,,,,,92,0,8,,,,,0,,,72,100
35808,note_on,,,,,4,0,8,,,,,0,,,71,75
35900,note_off,,,,,92,0,8,,,,,0,,,71,100
35904,note_on,,,,,4,0,8,,,,,0,,,72,75
35968,note_off,,,,,64,0,8,,,,,0,,,72,100
35968,note_off,,,,,256,0,11,,,,,3,,,64,100
36000,note_on,,,,,32,0,8,,,,,0,,,79,75
36064,note_off,,,,,64,0,8,,,,,0,,,79,100
36096,note_on,,,,,32,0,8,,,,,0,,,72,75
36096,note_on,,,,,128,0,11,,,,,3,,,64,60
36188,note_off,,,,,92,0,8,,,,,0,,,72,100
36192,note_on,,,,,4,0,8,,,,,0,,,71,75
36284,note_off,,,,,92,0,8,,,,,0,,,71,100
36288,note_on,,,,,4,0,8,,,,,0,,,72,75
36352,note_off,,,,,64,0,8,,,,,0,,,72,100
36384,note_on,,,,,32,0,8,,,,,0,,,79,75
36448,note_off,,,,,64,0,8,,,,,0,,,79,100
36480,note_on,,,,,32,0,8,,,,,0,,,72,75
36480,note_off,,,,,384,0,11,,,,,3,,,64,100
36572,note_off,,,,,92,0,8,,,,,0,,,72,100
36576,note_on,,,,,4,0,8,,,,,0,,,71,75
36668,note_off,,,,,92,0,8,,,,,0,,,71,100
36672,note_on,,,,,4,0,8,,,,,0,,,72,75
36672,note_on,,,,,192,0,11,,,,,3,,,64,60
36736,note_off,,,,,64,0,8,,,,,0,,,72,100
36768,note_on,,,,,32,0,8,,,,,0,,,79,75
36800,note_off,,,,,128,0,11,,,,,3,,,64,100
36832,note_off,,,,,64,0,8,,,,,0,,,79,100
36864,note_on,,,,,64,0,11,,,,,3,,,66,60
36864,note_on,,,,,32,0,8,,,,,0,,,70,75
36956,note_off,,,,,92,0,8,,,,,0,,,70,100
36960,note_on,,,,,4,0,8,,,,,0,,,66,75
37024,note_off,,,,,64,0,8,,,,,0,,,66,100
37056,note_on,,,,,32,0,8,,,,,0,,,66,75
37120,note_off,,,,,256,0,11,,,,,3,,,66,100
37148,note_off,,,,,92,0,8,,,,,0,,,66,100
37152,note_on,,,,,4,0,8,,,,,0,,,73,75
37216,note_off,,,,,64,0,8,,,,,0,,,73,100
37248,note_on,,,,,128,0,11,,,,,3,,,66,60
37248,note_on,,,,,32,0,8,,,,,0,,,73,75
37340,note_off,,,,,92,0,8,,,,,0,,,73,100
37344,note_on,,,,,4,0,8,,,,,0,,,70,75
37408,note_off,,,,,64,0,8,,,,,0,,,70,100
37440,note_on,,,,,32,0,8,,,,,0,,,70,75
37532,note_off,,,,,92,0,8,,,,,0,,,70,100
37536,note_on,,,,,4,0,8,,,,,0,,,76,75
37600,note_off,,,,,64,0,8,,,,,0,,,76,100
37632,note_on,,,,,32,0,8,,,,,0,,,76,75
37632,note_off,,,,,384,0,11,,,,,3,,,66,100
37724,note_off,,,,,92,0,8,,,,,0,,,76,100
37728,note_on,,,,,4,0,8,,,,,0,,,73,75
37792,note_off,,,,,64,0,8,,,,,0,,,73,100
37824,note_on,,,,,192,0,11,,,,,3,,,66,60
37824,note_on,,,,,32,0,8,,,,,0,,,73,75
37916,note_off,,,,,92,0,8,,,,,0,,,73,100
37920,note_on,,,,,4,0,8,,,,,0,,,82,75
37952,note_off,,,,,128,0,11,,,,,3,,,66,100
37984,note_off,,,,,64,0,8,,,,,0,,,82,100
38016,note_on,,,,,32,0,8,,,,,0,,,82,75
38016,note_on,,,,,64,0,11,,,,,3,,,66,60
38400,note_off,,,,,384,0,8,,,,,0,,,82,100
38400,note_off,,,,,384,0,11,,,,,3,,,66,100
38592,note_on,,,,,192,0,8,,,,,0,,,78,75
38592,note_on,,,,,192,0,11,,,,,3,,,64,60
38720,note_off,,,,,128,0,8,,,,,0,,,78,100
38720,note_off,,,,,128,0,11,,,,,3,,,64,100
38784,note_on,,,,,64,0,8,,,,,0,,,83,75
38784,note_on,,,,,64,0,11,,,,,3,,,62,60
38912,note_off,,,,,128,0,8,,,,,0,,,83,100
38976,note_on,,,,,64,0,8,,,,,0,,,78,75
39040,note_off,,,,,256,0,11,,,,,3,,,62,100
39104,note_off,,,,,128,0,8,,,,,0,,,78,100
39168,note_on,,,,,64,0,8,,,,,0,,,76,75
39168,note_on,,,,,128,0,11,,,,,3,,,64,60
39296,note_off,,,,,128,0,8,,,,,0,,,76,100
39360,note_on,,,,,64,0,8,,,,,0,,,74,75
39424,note_off,,,,,256,0,11,,,,,3,,,64,100
39488,note_off,,,,,128,0,8,,,,,0,,,74,100
39552,note_on,,,,,128,0,11,,,,,3,,,66,60
39552,note_on,,,,,64,0,8,,,,,0,,,74,75
39612,note_off,,,,,60,0,8,,,,,0,,,74,100
39616,note_on,,,,,4,0,8,,,,,0,,,73,75
39644,note_off,,,,,28,0,8,,,,,0,,,73,100
39648,note_on,,,,,4,0,8,,,,,0,,,74,75
39676,note_off,,,,,28,0,8,,,,,0,,,74,100
39680,note_on,,,,,4,0,8,,,,,0,,,73,75
39708,note_off,,,,,28,0,8,,,,,0,,,73,100
39712,note_on,,,,,4,0,8,,,,,0,,,74,75
39740,note_off,,,,,28,0,8,,,,,0,,,74,100
39744,note_on,,,,,4,0,8,,,,,0,,,73,75
39772,note_off,,,,,28,0,8,,,,,0,,,73,100
39776,note_on,,,,,4,0,8,,,,,0,,,74,75
39804,note_off,,,,,28,0,8,,,,,0,,,74,100
39808,note_off,,,,,256,0,11,,,,,3,,,66,100
39808,note_on,,,,,4,0,8,,,,,0,,,73,75
39836,note_off,,,,,28,0,8,,,,,0,,,73,100
39840,note_on,,,,,4,0,8,,,,,0,,,74,75
39868,note_off,,,,,28,0,8,,,,,0,,,74,100
39872,note_on,,,,,4,0,8,,,,,0,,,73,75
39900,note_off,,,,,28,0,8,,,,,0,,,73,100
39904,note_on,,,,,4,0,8,,,,,0,,,74,75
39932,note_off,,,,,28,0,8,,,,,0,,,74,100
39936,note_on,,,,,128,0,11,,,,,3,,,54,60
39936,note_on,,,,,4,0,8,,,,,0,,,73,75
40064,note_off,,,,,128,0,8,,,,,0,,,73,100
40128,note_on,,,,,64,0,8,,,,,0,,,71,75
40192,note_off,,,,,256,0,11,,,,,3,,,54,100
40256,note_off,,,,,128,0,8,,,,,0,,,71,100
40320,note_on,,,,,18176,0,13,,,,,5,,,47,60
40320,note_on,,,,,64,0,8,,,,,0,,,71,60
40320,note_on,,,,,0,0,14,,,,,6,,,71,100
40320,note_on,,,,,18176,0,14,,,,,6,,,66,100
40320,note_on,,,,,18176,0,15,,,,,6,,,59,100
40320,note_on,,,,,18176,0,12,,,,,4,,,59,60
40320,note_on,,,,,128,0,11,,,,,3,,,71,60
40320,note_on,,,,,18176,0,10,,,,,2,,,71,60
40576,note_off,,,,,256,0,15,,,,,6,,,59,100
40576,note_off,,,,,256,0,12,,,,,4,,,59,100
40576,note_off,,,,,256,0,11,,,,,3,,,71,100
40576,note_off,,,,,256,0,8,,,,,0,,,71,100
40576,note_off,,,,,256,0,13,,,,,5,,,47,100
40576,note_off,,,,,0,0,14,,,,,6,,,71,100
40576,note_off,,,,,256,0,14,,,,,6,,,66,100
40576,note_off,,,,,256,0,10,,,,,2,,,71,100
40704,note_on,,,,,128,0,15,,,,,6,,,47,100
40704,note_on,,,,,128,0,10,,,,,2,,,59,60
40704,note_on,,,,,128,0,11,,,,,3,,,59,60
40704,note_on,,,,,128,0,12,,,,,4,,,47,60
40704,note_on,,,,,0,0,14,,,,,6,,,62,100
40704,note_on,,,,,128,0,14,,,,,6,,,66,100
40704,note_on,,,,,128,0,13,,,,,5,,,35,60
40960,note_off,,,,,0,0,14,,,,,6,,,62,100
40960,note_off,,,,,256,0,14,,,,,6,,,66,100
40960,note_off,,,,,256,0,10,,,,,2,,,59,100
40960,note_off,,,,,256,0,15,,,,,6,,,47,100
40960,note_off,,,,,256,0,13,,,,,5,,,35,100
40960,note_off,,,,,256,0,12,,,,,4,,,47,100
40960,note_off,,,,,256,0,11,,,,,3,,,59,100
41376,note_on,,,,,0,0,14,,,,,6,,,62,100
41376,note_on,,,,,416,0,15,,,,,6,,,59,100
41376,note_on,,,,,416,0,13,,,,,5,,,47,60
41376,note_on,,,,,416,0,12,,,,,4,,,59,60
41376,note_on,,,,,416,0,14,,,,,6,,,67,100
41376,note_on,,,,,416,0,11,,,,,3,,,71,60
41376,note_on,,,,,416,0,10,,,,,2,,,71,60
41440,note_off,,,,,64,0,11,,,,,3,,,71,100
41440,note_off,,,,,64,0,15,,,,,6,,,59,100
41440,note_off,,,,,64,0,10,,,,,2,,,71,100
41440,note_off,,,,,64,0,12,,,,,4,,,59,100
41440,note_off,,,,,64,0,13,,,,,5,,,47,100
41440,note_off,,,,,0,0,14,,,,,6,,,62,100
41440,note_off,,,,,64,0,14,,,,,6,,,67,100
41472,note_on,,,,,32,0,10,,,,,2,,,70,60
41472,note_on,,,,,32,0,11,,,,,3,,,70,60
41472,note_on,,,,,0,0,14,,,,,6,,,67,100
41472,note_on,,,,,32,0,13,,,,,5,,,46,60
41472,note_on,,,,,32,0,12,,,,,4,,,58,60
41472,note_on,,,,,32,0,14,,,,,6,,,64,100
41472,note_on,,,,,32,0,15,,,,,6,,,58,100
41728,note_off,,,,,256,0,13,,,,,5,,,46,100
41728,note_off,,,,,256,0,14,,,,,6,,,64,100
41728,note_off,,,,,0,0,14,,,,,6,,,67,100
41728,note_off,,,,,256,0,10,,,,,2,,,70,100
41728,note_off,,,,,256,0,15,,,,,6,,,58,100
41728,note_off,,,,,256,0,12,,,,,4,,,58,100
41728,note_off,,,,,256,0,11,,,,,3,,,70,100
41856,note_on,,,,,128,0,13,,,,,5,,,34,60
41856,note_on,,,,,128,0,10,,,,,2,,,58,60
41856,note_on,,,,,128,0,12,,,,,4,,,46,60
41856,note_on,,,,,128,0,15,,,,,6,,,46,100
41856,note_on,,,,,0,0,14,,,,,6,,,64,100
41856,note_on,,,,,128,0,14,,,,,6,,,61,100
41856,note_on,,,,,128,0,11,,,,,3,,,58,60
42112,note_off,,,,,256,0,13,,,,,5,,,34,100
42112,note_off,,,,,0,0,14,,,,,6,,,64,100
42112,note_off,,,,,256,0,14,,,,,6,,,61,100
42112,note_off,,,,,256,0,12,,,,,4,,,46,100
42112,note_off,,,,,256,0,10,,,,,2,,,58,100
42112,note_off,,,,,256,0,15,,,,,6,,,46,100
42112,note_off,,,,,256,0,11,,,,,3,,,58,100
42528,note_on,,,,,416,0,12,,,,,4,,,57,60
42528,note_on,,,,,416,0,15,,,,,6,,,57,100
42528,note_on,,,,,416,0,14,,,,,6,,,66,100
42528,note_on,,,,,416,0,13,,,,,5,,,45,60
42528,note_on,,,,,416,0,11,,,,,3,,,69,60
42528,note_on,,,,,0,0,14,,,,,6,,,61,100
42528,note_on,,,,,416,0,10,,,,,2,,,69,60
42592,note_off,,,,,64,0,13,,,,,5,,,45,100
42592,note_off,,,,,64,0,15,,,,,6,,,57,100
42592,note_off,,,,,64,0,12,,,,,4,,,57,100
42592,note_off,,,,,0,0,14,,,,,6,,,61,100
42592,note_off,,,,,64,0,14,,,,,6,,,66,100
42592,note_off,,,,,64,0,11,,,,,3,,,69,100
42592,note_off,,,,,64,0,10,,,,,2,,,69,100
42624,note_on,,,,,32,0,12,,,,,4,,,56,60
42624,note_on,,,,,0,0,14,,,,,6,,,62,100
42624,note_on,,,,,32,0,14,,,,,6,,,66,100
42624,note_on,,,,,32,0,15,,,,,6,,,56,100
42624,note_on,,,,,32,0,13,,,,,5,,,44,60
42624,note_on,,,,,32,0,11,,,,,3,,,68,60
42624,note_on,,,,,32,0,10,,,,,2,,,68,60
42880,note_off,,,,,256,0,10,,,,,2,,,68,100
42880,note_off,,,,,256,0,13,,,,,5,,,44,100
42880,note_off,,,,,0,0,14,,,,,6,,,62,100
42880,note_off,,,,,256,0,14,,,,,6,,,66,100
42880,note_off,,,,,256,0,12,,,,,4,,,56,100
42880,note_off,,,,,256,0,15,,,,,6,,,56,100
42880,note_off,,,,,256,0,11,,,,,3,,,68,100
43008,note_on,,,,,128,0,10,,,,,2,,,56,60
43008,note_on,,,,,128,0,13,,,,,5,,,44,60
43008,note_on,,,,,128,0,11,,,,,3,,,56,60
43008,note_on,,,,,0,0,14,,,,,6,,,59,100
43008,note_on,,,,,128,0,15,,,,,6,,,44,100
43008,note_on,,,,,128,0,12,,,,,4,,,44,60
43008,note_on,,,,,128,0,14,,,,,6,,,62,100
43264,note_off,,,,,256,0,15,,,,,6,,,44,100
43264,note_off,,,,,0,0,14,,,,,6,,,59,100
43264,note_off,,,,,256,0,13,,,,,5,,,44,100
43264,note_off,,,,,256,0,11,,,,,3,,,56,100
43264,note_off,,,,,256,0,10,,,,,2,,,56,100
43264,note_off,,,,,256,0,12,,,,,4,,,44,100
43264,note_off,,,,,256,0,14,,,,,6,,,62,100
43680,note_on,,,,,416,0,14,,,,,6,,,64,100
43680,note_on,,,,,0,0,14,,,,,6,,,59,100
43680,note_on,,,,,416,0,10,,,,,2,,,67,60
43680,note_on,,,,,416,0,13,,,,,5,,,43,60
43680,note_on,,,,,416,0,12,,,,,4,,,55,60
43680,note_on,,,,,416,0,15,,,,,6,,,55,100
43680,note_on,,,,,416,0,11,,,,,3,,,67,60
43744,note_off,,,,,64,0,15,,,,,6,,,55,100
43744,note_off,,,,,64,0,10,,,,,2,,,67,100
43744,note_off,,,,,64,0,13,,,,,5,,,43,100
43744,note_off,,,,,64,0,12,,,,,4,,,55,100
43744,note_off,,,,,64,0,14,,,,,6,,,64,100
43744,note_off,,,,,0,0,14,,,,,6,,,59,100
43744,note_off,,,,,64,0,11,,,,,3,,,67,100
43776,note_on,,,,,32,0,13,,,,,5,,,42,60
43776,note_on,,,,,0,0,14,,,,,6,,,58,100
43776,note_on,,,,,0,0,14,,,,,6,,,61,100
43776,note_on,,,,,32,0,14,,,,,6,,,64,100
43776,note_on,,,,,32,0,15,,,,,6,,,54,100
43776,note_on,,,,,32,0,11,,,,,3,,,66,60
43776,note_on,,,,,32,0,12,,,,,4,,,54,60
43776,note_on,,,,,32,0,10,,,,,2,,,66,60
44032,note_off,,,,,256,0,14,,,,,6,,,64,100
44032,note_off,,,,,0,0,14,,,,,6,,,61,100
44032,note_off,,,,,256,0,11,,,,,3,,,66,100
44032,note_off,,,,,256,0,12,,,,,4,,,54,100
44032,note_off,,,,,0,0,14,,,,,6,,,58,100
44032,note_off,,,,,256,0,15,,,,,6,,,54,100
44032,note_off,,,,,256,0,13,,,,,5,,,42,100
44032,note_off,,,,,256,0,10,,,,,2,,,66,100
44448,note_on,,,,,416,0,13,,,,,5,,,49,60
44448,note_on,,,,,416,0,12,,,,,4,,,61,60
44448,note_on,,,,,416,0,10,,,,,2,,,73,60
44448,note_on,,,,,416,0,11,,,,,3,,,73,60
44448,note_on,,,,,416,0,15,,,,,6,,,61,100
44512,note_off,,,,,64,0,13,,,,,5,,,49,100
44512,note_off,,,,,64,0,11,,,,,3,,,73,100
44512,note_off,,,,,64,0,12,,,,,4,,,61,100
44512,note_off,,,,,64,0,10,,,,,2,,,73,100
44512,note_off,,,,,64,0,15,,,,,6,,,61,100
44544,note_on,,,,,512,0,14,,,,,6,,,69,100
44544,note_on,,,,,32,0,10,,,,,2,,,74,60
44544,note_on,,,,,0,0,14,,,,,6,,,66,100
44544,note_on,,,,,32,0,11,,,,,3,,,74,60
44544,note_on,,,,,32,0,13,,,,,5,,,50,60
44544,note_on,,,,,32,0,12,,,,,4,,,62,60
44544,note_on,,,,,32,0,15,,,,,6,,,62,100
44736,note_off,,,,,192,0,10,,,,,2,,,74,100
44736,note_off,,,,,192,0,13,,,,,5,,,50,100
44736,note_off,,,,,192,0,11,,,,,3,,,74,100
44736,note_off,,,,,192,0,15,,,,,6,,,62,100
44736,note_off,,,,,192,0,12,,,,,4,,,62,100
44800,note_off,,,,,256,0,14,,,,,6,,,69,100
44800,note_off,,,,,0,0,14,,,,,6,,,66,100
44832,note_on,,,,,96,0,10,,,,,2,,,76,60
44832,note_on,,,,,96,0,12,,,,,4,,,64,60
44832,note_on,,,,,96,0,11,,,,,3,,,76,60
44832,note_on,,,,,96,0,13,,,,,5,,,52,60
44832,note_on,,,,,96,0,15,,,,,6,,,64,100
44896,note_off,,,,,64,0,12,,,,,4,,,64,100
44896,note_off,,,,,64,0,15,,,,,6,,,64,100
44896,note_off,,,,,64,0,11,,,,,3,,,76,100
44896,note_off,,,,,64,0,10,,,,,2,,,76,100
44896,note_off,,,,,64,0,13,,,,,5,,,52,100
44928,note_on,,,,,0,0,14,,,,,6,,,61,100
44928,note_on,,,,,32,0,10,,,,,2,,,70,60
44928,note_on,,,,,32,0,11,,,,,3,,,70,60
44928,note_on,,,,,128,0,14,,,,,6,,,64,100
44928,note_on,,,,,32,0,12,,,,,4,,,58,60
44928,note_on,,,,,32,0,13,,,,,5,,,46,60
44928,note_on,,,,,32,0,15,,,,,6,,,58,100
45120,note_off,,,,,192,0,15,,,,,6,,,58,100
45120,note_off,,,,,192,0,11,,,,,3,,,70,100
45120,note_off,,,,,192,0,12,,,,,4,,,58,100
45120,note_off,,,,,192,0,10,,,,,2,,,70,100
45120,note_off,,,,,192,0,13,,,,,5,,,46,100
45184,note_off,,,,,256,0,14,,,,,6,,,64,100
45184,note_off,,,,,0,0,14,,,,,6,,,61,100
45216,note_on,,,,,96,0,11,,,,,3,,,73,60
45216,note_on,,,,,96,0,12,,,,,4,,,61,60
45216,note_on,,,,,96,0,10,,,,,2,,,73,60
45216,note_on,,,,,96,0,13,,,,,5,,,49,60
45216,note_on,,,,,96,0,15,,,,,6,,,61,100
45280,note_off,,,,,64,0,11,,,,,3,,,73,100
45280,note_off,,,,,64,0,13,,,,,5,,,49,100
45280,note_off,,,,,64,0,12,,,,,4,,,61,100
45280,note_off,,,,,64,0,15,,,,,6,,,61,100
45280,note_off,,,,,64,0,10,,,,,2,,,73,100
45312,note_on,,,,,0,0,14,,,,,6,,,59,100
45312,note_on,,,,,32,0,11,,,,,3,,,64,60
45312,note_on,,,,,128,0,14,,,,,6,,,67,100
45312,note_on,,,,,32,0,15,,,,,6,,,52,100
45312,note_on,,,,,32,0,13,,,,,5,,,40,60
45312,note_on,,,,,32,0,10,,,,,2,,,64,60
45312,note_on,,,,,32,0,12,,,,,4,,,52,60
45504,note_off,,,,,192,0,11,,,,,3,,,64,100
45504,note_off,,,,,192,0,10,,,,,2,,,64,100
45504,note_off,,,,,192,0,15,,,,,6,,,52,100
45504,note_off,,,,,192,0,13,,,,,5,,,40,100
45504,note_off,,,,,192,0,12,,,,,4,,,52,100
45568,note_off,,,,,0,0,14,,,,,6,,,59,100
45568,note_off,,,,,256,0,14,,,,,6,,,67,100
45600,note_on,,,,,96,0,15,,,,,6,,,55,100
45600,note_on,,,,,96,0,11,,,,,3,,,67,60
45600,note_on,,,,,96,0,12,,,,,4,,,55,60
45600,note_on,,,,,96,0,10,,,,,2,,,67,60
45600,note_on,,,,,96,0,13,,,,,5,,,43,60
45664,note_off,,,,,64,0,11,,,,,3,,,67,100
45664,note_off,,,,,64,0,13,,,,,5,,,43,100
45664,note_off,,,,,64,0,15,,,,,6,,,55,100
45664,note_off,,,,,64,0,10,,,,,2,,,67,100
45664,note_off,,,,,64,0,12,,,,,4,,,55,100
45696,note_on,,,,,32,0,10,,,,,2,,,61,60
45696,note_on,,,,,32,0,15,,,,,6,,,49,100
45696,note_on,,,,,32,0,12,,,,,4,,,49,60
45696,note_on,,,,,128,0,14,,,,,6,,,55,100
45696,note_on,,,,,0,0,14,,,,,6,,,64,100
45696,note_on,,,,,32,0,13,,,,,5,,,37,60
45696,note_on,,,,,32,0,11,,,,,3,,,61,60
45888,note_off,,,,,192,0,15,,,,,6,,,49,100
45888,note_off,,,,,192,0,12,,,,,4,,,49,100
45888,note_off,,,,,192,0,11,,,,,3,,,61,100
45888,note_off,,,,,192,0,10,,,,,2,,,61,100
45888,note_off,,,,,192,0,13,,,,,5,,,37,100
45952,note_off,,,,,0,0,14,,,,,6,,,64,100
45952,note_off,,,,,256,0,14,,,,,6,,,55,100
45984,note_on,,,,,96,0,12,,,,,4,,,52,60
45984,note_on,,,,,96,0,11,,,,,3,,,64,60
45984,note_on,,,,,96,0,13,,,,,5,,,40,60
45984,note_on,,,,,96,0,15,,,,,6,,,52,100
45984,note_on,,,,,96,0,10,,,,,2,,,64,60
46048,note_off,,,,,64,0,13,,,,,5,,,40,100
46048,note_off,,,,,64,0,10,,,,,2,,,64,100
46048,note_off,,,,,64,0,12,,,,,4,,,52,100
46048,note_off,,,,,64,0,11,,,,,3,,,64,100
46048,note_off,,,,,64,0,15,,,,,6,,,52,100
46080,note_on,,,,,32,0,15,,,,,6,,,46,100
46080,note_on,,,,,32,0,11,,,,,3,,,58,60
46080,note_on,,,,,32,0,13,,,,,5,,,34,60
46080,note_on,,,,,128,0,14,,,,,6,,,64,100
46080,note_on,,,,,32,0,10,,,,,2,,,58,60
46080,note_on,,,,,0,0,14,,,,,6,,,61,100
46080,note_on,,,,,32,0,12,,,,,4,,,46,60
46336,note_off,,,,,256,0,13,,,,,5,,,34,100
46336,note_off,,,,,0,0,14,,,,,6,,,61,100
46336,note_off,,,,,256,0,11,,,,,3,,,58,100
46336,note_off,,,,,256,0,14,,,,,6,,,64,100
46336,note_off,,,,,256,0,10,,,,,2,,,58,100
46336,note_off,,,,,256,0,12,,,,,4,,,46,100
46336,note_off,,,,,256,0,15,,,,,6,,,46,100
46752,note_on,,,,,416,0,10,,,,,2,,,73,60
46752,note_on,,,,,416,0,12,,,,,4,,,61,60
46752,note_on,,,,,416,0,15,,,,,6,,,61,100
46752,note_on,,,,,416,0,13,,,,,5,,,49,60
46752,note_on,,,,,416,0,11,,,,,3,,,73,60
46816,note_off,,,,,64,0,12,,,,,4,,,61,100
46816,note_off,,,,,64,0,13,,,,,5,,,49,100
46816,note_off,,,,,64,0,11,,,,,3,,,73,100
46816,note_off,,,,,64,0,15,,,,,6,,,61,100
46816,note_off,,,,,64,0,10,,,,,2,,,73,100
46848,note_on,,,,,32,0,12,,,,,4,,,62,60
46848,set_tempo,,,,,38592,1,0,,1000000,,,,,,,
46848,note_on,,,,,32,0,11,,,,,3,,,74,60
46848,note_on,,,,,32,0,13,,,,,5,,,50,60
46848,note_on,,,,,512,0,14,,,,,6,,,69,100
46848,note_on,,,,,32,0,15,,,,,6,,,62,100
46848,note_on,,,,,32,0,10,,,,,2,,,74,60
46848,note_on,,,,,0,0,14,,,,,6,,,66,100
46960,set_tempo,,,,,112,1,0,,1016949,,,,,,,
47040,note_off,,,,,192,0,13,,,,,5,,,50,100
47040,note_off,,,,,192,0,12,,,,,4,,,62,100
47040,note_off,,,,,192,0,11,,,,,3,,,74,100
47040,note_off,,,,,192,0,10,,,,,2,,,74,100
47040,note_off,,,,,192,0,15,,,,,6,,,62,100
47076,set_tempo,,,,,116,1,0,,1034482,,,,,,,
47104,note_off,,,,,256,0,14,,,,,6,,,69,100
47104,note_off,,,,,0,0,14,,,,,6,,,66,100
47136,note_on,,,,,96,0,13,,,,,5,,,46,60
47136,note_on,,,,,96,0,11,,,,,3,,,70,60
47136,note_on,,,,,96,0,10,,,,,2,,,70,60
47136,note_on,,,,,96,0,12,,,,,4,,,58,60
47136,note_on,,,,,96,0,15,,,,,6,,,58,100
47192,set_tempo,,,,,116,1,0,,1052631,,,,,,,
47200,note_off,,,,,64,0,11,,,,,3,,,70,100
47200,note_off,,,,,64,0,12,,,,,4,,,58,100
47200,note_off,,,,,64,0,10,,,,,2,,,70,100
47200,note_off,,,,,64,0,13,,,,,5,,,46,100
47200,note_off,,,,,64,0,15,,,,,6,,,58,100
47232,note_on,,,,,128,0,14,,,,,6,,,66,100
47232,note_on,,,,,0,0,14,,,,,6,,,62,100
47232,note_on,,,,,32,0,12,,,,,4,,,59,60
47232,note_on,,,,,32,0,10,,,,,2,,,71,60
47232,note_on,,,,,32,0,13,,,,,5,,,47,60
47232,note_on,,,,,32,0,15,,,,,6,,,59,100
47232,note_on,,,,,32,0,11,,,,,3,,,71,60
47308,set_tempo,,,,,116,1,0,,1071428,,,,,,,
47424,note_off,,,,,192,0,13,,,,,5,,,47,100
47424,note_off,,,,,192,0,14,,,,,6,,,66,100
47424,note_off,,,,,192,0,12,,,,,4,,,59,100
47424,note_off,,,,,192,0,10,,,,,2,,,71,100
47424,note_off,,,,,192,0,15,,,,,6,,,59,100
47424,note_off,,,,,0,0,14,,,,,6,,,62,100
47424,note_off,,,,,192,0,11,,,,,3,,,71,100
47424,set_tempo,,,,,116,1,0,,1090909,,,,,,,
47520,note_on,,,,,96,0,12,,,,,4,,,53,60
47520,note_on,,,,,96,0,15,,,,,6,,,53,100
47520,note_on,,,,,96,0,10,,,,,2,,,65,60
47520,note_on,,,,,96,0,11,,,,,3,,,65,60
47520,note_on,,,,,96,0,14,,,,,6,,,59,100
47520,note_on,,,,,0,0,14,,,,,6,,,66,100
47520,note_on,,,,,96,0,13,,,,,5,,,41,60
47536,set_tempo,,,,,112,1,0,,1111111,,,,,,,
47584,note_off,,,,,64,0,11,,,,,3,,,65,100
47584,note_off,,,,,64,0,15,,,,,6,,,53,100
47584,note_off,,,,,64,0,12,,,,,4,,,53,100
47584,note_off,,,,,0,0,14,,,,,6,,,66,100
47584,note_off,,,,,64,0,14,,,,,6,,,59,100
47584,note_off,,,,,64,0,13,,,,,5,,,41,100
47584,note_off,,,,,64,0,10,,,,,2,,,65,100
47616,note_on,,,,,32,0,10,,,,,2,,,66,60
47616,note_on,,,,,32,0,11,,,,,3,,,66,60
47616,note_on,,,,,32,0,12,,,,,4,,,54,60
47616,note_on,,,,,32,0,14,,,,,6,,,59,100
47616,note_on,,,,,32,0,15,,,,,6,,,54,100
47616,note_on,,,,,32,0,13,,,,,5,,,42,60
47616,note_on,,,,,0,0,14,,,,,6,,,61,100
47652,set_tempo,,,,,116,1,0,,1132075,,,,,,,
47768,set_tempo,,,,,116,1,0,,1153846,,,,,,,
47872,note_off,,,,,256,0,12,,,,,4,,,54,100
47872,note_off,,,,,256,0,13,,,,,5,,,42,100
47872,note_off,,,,,0,0,14,,,,,6,,,61,100
47872,note_off,,,,,256,0,14,,,,,6,,,59,100
47872,note_off,,,,,256,0,11,,,,,3,,,66,100
47872,note_off,,,,,256,0,15,,,,,6,,,54,100
47872,note_off,,,,,256,0,10,,,,,2,,,66,100
47884,set_tempo,,,,,116,1,0,,1176470,,,,,,,
48000,note_on,,,,,128,0,13,,,,,5,,,42,60
48000,set_tempo,,,,,116,1,0,,1200000,,,,,,,
48000,note_on,,,,,128,0,10,,,,,2,,,66,60
48000,note_on,,,,,128,0,15,,,,,6,,,42,100
48000,note_on,,,,,128,0,11,,,,,3,,,54,60
48000,note_on,,,,,128,0,14,,,,,6,,,61,100
48000,note_on,,,,,0,0,14,,,,,6,,,58,100
48000,note_on,,,,,128,0,12,,,,,4,,,42,60
48036,set_tempo,,,,,36,1,0,,1304347,,,,,,,
48096,set_tempo,,,,,60,1,0,,1333333,,,,,,,
48152,set_tempo,,,,,56,1,0,,1363636,,,,,,,
48208,set_tempo,,,,,56,1,0,,1395348,,,,,,,
48256,note_off,,,,,256,0,14,,,,,6,,,61,100
48256,note_off,,,,,0,0,14,,,,,6,,,58,100
48256,note_off,,,,,256,0,15,,,,,6,,,42,100
48256,note_off,,,,,256,0,13,,,,,5,,,42,100
48256,note_off,,,,,256,0,10,,,,,2,,,66,100
48256,note_off,,,,,256,0,12,,,,,4,,,42,100
48256,note_off,,,,,256,0,11,,,,,3,,,54,100
48268,set_tempo,,,,,60,1,0,,1428571,,,,,,,
48324,set_tempo,,,,,56,1,0,,1463414,,,,,,,
48384,note_on,,,,,128,0,12,,,,,4,,,47,65
48384,note_on,,,,,128,0,13,,,,,5,,,35,65
48384,end_of_track,,,,,0,1,0,,,,,,,,,
48384,set_tempo,,,,,60,1,0,,1000000,,,,,,,
48384,note_on,,,,,128,0,15,,,,,6,,,47,100
48384,note_on,,,,,128,0,11,,,,,3,,,59,65
48384,note_on,,,,,128,0,10,,,,,2,,,59,65
48412,note_on,,,,,156,0,14,,,,,6,,,59,100
48444,note_on,,,,,32,0,14,,,,,6,,,62,100
48476,note_on,,,,,32,0,14,,,,,6,,,66,100
48508,note_on,,,,,32,0,14,,,,,6,,,71,100
49084,note_off,,,,,576,0,14,,,,,6,,,71,100
49180,note_off,,,,,96,0,14,,,,,6,,,59,100
49212,note_off,,,,,32,0,14,,,,,6,,,62,100
49244,note_off,,,,,32,0,14,,,,,6,,,66,100
49244,end_of_track,,,,,0,1,14,,,,,,,,,
49532,note_off,,,,,1148,0,10,,,,,2,,,59,100
49532,end_of_track,,,,,0,1,10,,,,,,,,,
49532,note_off,,,,,1148,0,15,,,,,6,,,47,100
49532,note_off,,,,,1148,0,11,,,,,3,,,59,100
49532,end_of_track,,,,,0,1,11,,,,,,,,,
49532,note_off,,,,,1148,0,12,,,,,4,,,47,100
49532,end_of_track,,,,,0,1,12,,,,,,,,,
49532,note_off,,,,,1148,0,13,,,,,5,,,35,100
49532,end_of_track,,,,,0,1,13,,,,,,,,,
49532,end_of_track,,,,,0,1,15,,,,,,,,,
50304,end_of_track,,,,,0,1,8,,,,,,,,,
50304,program_change,,,,,9728,0,8,,,,,0,40,,,
