tick,type,time,meta,track,tempo,key,numerator,denominator,clocks_per_click,notated_32nd_notes_per_beat,port,program,channel,control,value,note,velocity
0,track_name,0,1,0,,,,,,,,,,,,,
0,track_name,0,1,4,,,,,,,,,,,,,
0,midi_port,0,1,4,,,,,,,0,,,,,,
0,time_signature,0,1,3,,,3,4,24,8,,,,,,,
0,key_signature,0,1,3,,A,,,,,,,,,,,
0,control_change,0,0,3,,,,,,,,,0,10,64,,
0,control_change,0,0,3,,,,,,,,,0,7,127,,
0,program_change,0,0,3,,,,,,,,48,0,,,,
0,program_change,0,0,3,,,,,,,,48,0,,,,
0,track_name,0,1,3,,,,,,,,,,,,,
0,midi_port,0,1,3,,,,,,,0,,,,,,
0,time_signature,0,1,7,,,3,4,24,8,,,,,,,
0,time_signature,0,1,2,,,3,4,24,8,,,,,,,
0,key_signature,0,1,2,,A,,,,,,,,,,,
0,control_change,0,0,2,,,,,,,,,6,10,64,,
0,control_change,0,0,2,,,,,,,,,6,7,127,,
0,program_change,0,0,2,,,,,,,,6,6,,,,
0,program_change,0,0,2,,,,,,,,6,6,,,,
0,program_change,0,0,4,,,,,,,,48,3,,,,
0,program_change,0,0,4,,,,,,,,48,3,,,,
0,control_change,0,0,4,,,,,,,,,3,7,127,,
0,control_change,0,0,4,,,,,,,,,3,10,64,,
0,control_change,0,0,7,,,,,,,,,9,10,64,,
0,control_change,0,0,7,,,,,,,,,9,7,127,,
0,track_name,0,1,7,,,,,,,,,,,,,
0,midi_port,0,1,7,,,,,,,0,,,,,,
0,end_of_track,0,1,6,,,,,,,,,,,,,
0,time_signature,0,1,6,,,3,4,24,8,,,,,,,
0,control_change,0,0,6,,,,,,,,,8,10,64,,
0,control_change,0,0,6,,,,,,,,,8,7,127,,
0,track_name,0,1,2,,,,,,,,,,,,,
0,track_name,0,1,6,,,,,,,,,,,,,
0,end_of_track,0,1,5,,,,,,,,,,,,,
0,time_signature,0,1,5,,,3,4,24,8,,,,,,,
0,control_change,0,0,5,,,,,,,,,7,10,64,,
0,control_change,0,0,5,,,,,,,,,7,7,127,,
0,track_name,0,1,5,,,,,,,,,,,,,
0,midi_port,0,1,5,,,,,,,0,,,,,,
0,time_signature,0,1,4,,,3,4,24,8,,,,,,,
0,key_signature,0,1,4,,A,,,,,,,,,,,
0,midi_port,0,1,6,,,,,,,0,,,,,,
0,midi_port,0,1,2,,,,,,,0,,,,,,
0,end_of_track,0,1,7,,,,,,,,,,,,,
0,text,0,1,0,,,,,,,,,,,,,
0,text,0,1,0,,,,,,,,,,,,,
0,time_signature,0,1,1,,,3,4,24,8,,,,,,,
0,key_signature,0,1,1,,A,,,,,,,,,,,
0,control_change,0,0,1,,,,,,,,,5,10,64,,
0,program_change,0,0,1,,,,,,,,6,5,,,,
0,program_change,0,0,1,,,,,,,,6,5,,,,
0,track_name,0,1,1,,,,,,,,,,,,,
0,midi_port,0,1,1,,,,,,,0,,,,,,
0,time_signature,0,1,0,,,3,4,24,8,,,,,,,
0,key_signature,0,1,0,,A,,,,,,,,,,,
0,control_change,0,0,1,,,,,,,,,5,7,127,,
0,copyright,0,1,0,,,,,,,,,,,,,
0,copyright,0,1,0,,,,,,,,,,,,,
0,set_tempo,0,1,0,1333333,,,,,,,,,,,,
576,note_on,576,0,2,,,,,,,,,6,,,61,110
576,note_on,576,0,1,,,,,,,,,5,,,76,110
622,note_on,46,0,2,,,,,,,,,6,,,61,0
622,note_on,46,0,1,,,,,,,,,5,,,76,0
624,note_on,2,0,2,,,,,,,,,6,,,62,110
624,note_on,2,0,1,,,,,,,,,5,,,78,110
670,note_on,46,0,2,,,,,,,,,6,,,62,0
670,note_on,46,0,1,,,,,,,,,5,,,78,0
672,note_on,2,0,2,,,,,,,,,6,,,61,110
672,note_on,2,0,1,,,,,,,,,5,,,76,110
718,note_on,46,0,1,,,,,,,,,5,,,76,0
718,note_on,46,0,2,,,,,,,,,6,,,61,0
720,note_on,2,0,2,,,,,,,,,6,,,59,110
720,note_on,2,0,1,,,,,,,,,5,,,74,110
766,note_on,46,0,2,,,,,,,,,6,,,59,0
766,note_on,46,0,1,,,,,,,,,5,,,74,0
768,note_on,2,0,2,,,,,,,,,6,,,61,110
768,note_on,2,0,1,,,,,,,,,5,,,76,110
862,note_on,94,0,2,,,,,,,,,6,,,61,0
864,note_on,0,0,4,,,,,,,,,3,,,57,75
864,note_on,0,0,3,,,,,,,,,0,,,69,75
864,note_on,2,0,2,,,,,,,,,6,,,57,110
864,control_change,864,0,3,,,,,,,,,0,10,0,,
864,control_change,864,0,4,,,,,,,,,3,10,0,,
928,note_on,160,0,1,,,,,,,,,5,,,76,0
958,note_on,94,0,2,,,,,,,,,6,,,57,0
958,note_on,94,0,3,,,,,,,,,0,,,69,0
958,note_on,94,0,4,,,,,,,,,3,,,57,0
960,note_on,2,0,2,,,,,,,,,6,,,45,110
960,note_on,2,0,4,,,,,,,,,3,,,45,75
960,note_on,2,0,3,,,,,,,,,0,,,57,75
1054,note_on,94,0,2,,,,,,,,,6,,,45,0
1056,note_on,2,0,2,,,,,,,,,6,,,62,110
1056,note_on,128,0,1,,,,,,,,,5,,,78,110
1120,note_on,160,0,4,,,,,,,,,3,,,45,0
1120,note_on,160,0,3,,,,,,,,,0,,,57,0
1150,note_on,94,0,1,,,,,,,,,5,,,78,0
1150,note_on,94,0,2,,,,,,,,,6,,,62,0
1152,note_on,2,0,1,,,,,,,,,5,,,74,110
1152,note_on,2,0,2,,,,,,,,,6,,,59,110
1198,note_on,46,0,2,,,,,,,,,6,,,59,0
1198,note_on,46,0,1,,,,,,,,,5,,,74,0
1200,note_on,2,0,1,,,,,,,,,5,,,76,110
1200,note_on,2,0,2,,,,,,,,,6,,,61,110
1246,note_on,46,0,2,,,,,,,,,6,,,61,0
1246,note_on,46,0,1,,,,,,,,,5,,,76,0
1248,note_on,2,0,1,,,,,,,,,5,,,74,110
1248,note_on,2,0,2,,,,,,,,,6,,,59,110
1294,note_on,46,0,1,,,,,,,,,5,,,74,0
1294,note_on,46,0,2,,,,,,,,,6,,,59,0
1296,note_on,2,0,2,,,,,,,,,6,,,57,110
1296,note_on,2,0,1,,,,,,,,,5,,,73,110
1342,note_on,46,0,2,,,,,,,,,6,,,57,0
1342,note_on,46,0,1,,,,,,,,,5,,,73,0
1344,note_on,2,0,2,,,,,,,,,6,,,59,110
1344,note_on,2,0,1,,,,,,,,,5,,,74,110
1438,note_on,94,0,2,,,,,,,,,6,,,59,0
1440,note_on,320,0,4,,,,,,,,,3,,,59,75
1440,note_on,2,0,2,,,,,,,,,6,,,59,110
1440,note_on,320,0,3,,,,,,,,,0,,,71,75
1504,note_on,160,0,1,,,,,,,,,5,,,74,0
1534,note_on,94,0,2,,,,,,,,,6,,,59,0
1534,note_on,94,0,4,,,,,,,,,3,,,59,0
1534,note_on,94,0,3,,,,,,,,,0,,,71,0
1536,note_on,2,0,3,,,,,,,,,0,,,64,75
1536,note_on,2,0,2,,,,,,,,,6,,,52,110
1536,note_on,2,0,4,,,,,,,,,3,,,52,75
1630,note_on,94,0,2,,,,,,,,,6,,,52,0
1632,note_on,2,0,2,,,,,,,,,6,,,61,110
1632,note_on,128,0,1,,,,,,,,,5,,,76,110
1696,note_on,160,0,3,,,,,,,,,0,,,64,0
1696,note_on,160,0,4,,,,,,,,,3,,,52,0
1726,note_on,94,0,1,,,,,,,,,5,,,76,0
1726,note_on,94,0,2,,,,,,,,,6,,,61,0
1728,note_on,2,0,2,,,,,,,,,6,,,57,110
1728,note_on,2,0,1,,,,,,,,,5,,,73,110
1774,note_on,46,0,2,,,,,,,,,6,,,57,0
1774,note_on,46,0,1,,,,,,,,,5,,,73,0
1776,note_on,2,0,2,,,,,,,,,6,,,59,110
1776,note_on,2,0,1,,,,,,,,,5,,,74,110
1822,note_on,46,0,2,,,,,,,,,6,,,59,0
1822,note_on,46,0,1,,,,,,,,,5,,,74,0
1824,note_on,2,0,1,,,,,,,,,5,,,73,110
1824,note_on,2,0,2,,,,,,,,,6,,,57,110
1870,note_on,46,0,1,,,,,,,,,5,,,73,0
1870,note_on,46,0,2,,,,,,,,,6,,,57,0
1872,note_on,2,0,1,,,,,,,,,5,,,71,110
1872,note_on,2,0,2,,,,,,,,,6,,,56,110
1918,note_on,46,0,1,,,,,,,,,5,,,71,0
1918,note_on,46,0,2,,,,,,,,,6,,,56,0
1920,note_on,2,0,1,,,,,,,,,5,,,73,110
1920,note_on,2,0,2,,,,,,,,,6,,,57,110
2014,note_on,94,0,2,,,,,,,,,6,,,57,0
2016,note_on,320,0,3,,,,,,,,,0,,,69,75
2016,note_on,2,0,2,,,,,,,,,6,,,57,110
2016,note_on,320,0,4,,,,,,,,,3,,,57,75
2080,note_on,160,0,1,,,,,,,,,5,,,73,0
2110,note_on,94,0,3,,,,,,,,,0,,,69,0
2110,note_on,94,0,2,,,,,,,,,6,,,57,0
2110,note_on,94,0,4,,,,,,,,,3,,,57,0
2112,note_on,2,0,3,,,,,,,,,0,,,57,75
2112,note_on,2,0,4,,,,,,,,,3,,,45,75
2112,note_on,2,0,2,,,,,,,,,6,,,45,110
2206,note_on,94,0,2,,,,,,,,,6,,,45,0
2208,note_on,2,0,2,,,,,,,,,6,,,57,110
2208,note_on,128,0,1,,,,,,,,,5,,,73,110
2272,note_on,160,0,3,,,,,,,,,0,,,57,0
2272,note_on,160,0,4,,,,,,,,,3,,,45,0
2302,note_on,94,0,2,,,,,,,,,6,,,57,0
2302,note_on,94,0,1,,,,,,,,,5,,,73,0
2304,note_on,2,0,2,,,,,,,,,6,,,57,110
2304,note_on,2,0,1,,,,,,,,,5,,,73,110
2464,note_on,160,0,2,,,,,,,,,6,,,57,0
2464,note_on,160,0,1,,,,,,,,,5,,,73,0
2496,note_on,32,0,2,,,,,,,,,6,,,56,110
2496,note_on,32,0,1,,,,,,,,,5,,,71,110
2590,note_on,94,0,2,,,,,,,,,6,,,56,0
2592,note_on,320,0,4,,,,,,,,,3,,,52,75
2592,note_on,320,0,3,,,,,,,,,0,,,64,75
2592,note_on,2,0,2,,,,,,,,,6,,,52,110
2656,note_on,160,0,1,,,,,,,,,5,,,71,0
2686,note_on,94,0,4,,,,,,,,,3,,,52,0
2686,note_on,94,0,2,,,,,,,,,6,,,52,0
2686,note_on,94,0,3,,,,,,,,,0,,,64,0
2688,note_on,2,0,3,,,,,,,,,0,,,68,75
2688,note_on,2,0,4,,,,,,,,,3,,,56,75
2688,note_on,2,0,2,,,,,,,,,6,,,56,110
2782,note_on,94,0,3,,,,,,,,,0,,,68,0
2782,note_on,94,0,4,,,,,,,,,3,,,56,0
2782,note_on,94,0,2,,,,,,,,,6,,,56,0
2784,note_on,2,0,3,,,,,,,,,0,,,64,75
2784,note_on,2,0,4,,,,,,,,,3,,,52,75
2784,note_on,2,0,2,,,,,,,,,6,,,52,110
2878,note_on,94,0,3,,,,,,,,,0,,,64,0
2878,note_on,94,0,2,,,,,,,,,6,,,52,0
2878,note_on,94,0,4,,,,,,,,,3,,,52,0
2880,note_on,2,0,2,,,,,,,,,6,,,61,110
2880,note_on,2,0,3,,,,,,,,,0,,,57,75
2880,note_on,224,0,1,,,,,,,,,5,,,76,110
2880,note_on,2,0,4,,,,,,,,,3,,,45,75
2926,note_on,46,0,2,,,,,,,,,6,,,61,0
2926,note_on,46,0,1,,,,,,,,,5,,,76,0
2928,note_on,2,0,2,,,,,,,,,6,,,62,110
2928,note_on,2,0,1,,,,,,,,,5,,,78,110
2974,note_on,46,0,2,,,,,,,,,6,,,62,0
2974,note_on,46,0,1,,,,,,,,,5,,,78,0
2976,note_on,2,0,2,,,,,,,,,6,,,61,110
2976,note_on,2,0,1,,,,,,,,,5,,,76,110
3022,note_on,46,0,2,,,,,,,,,6,,,61,0
3022,note_on,46,0,1,,,,,,,,,5,,,76,0
3024,note_on,2,0,2,,,,,,,,,6,,,59,110
3024,note_on,2,0,1,,,,,,,,,5,,,74,110
3040,note_on,160,0,4,,,,,,,,,3,,,45,0
3040,note_on,160,0,3,,,,,,,,,0,,,57,0
3070,note_on,46,0,2,,,,,,,,,6,,,59,0
3070,note_on,46,0,1,,,,,,,,,5,,,74,0
3072,note_on,2,0,2,,,,,,,,,6,,,61,110
3072,note_on,2,0,1,,,,,,,,,5,,,76,110
3166,note_on,94,0,2,,,,,,,,,6,,,61,0
3168,note_on,2,0,2,,,,,,,,,6,,,57,110
3168,note_on,128,0,3,,,,,,,,,0,,,69,75
3168,note_on,128,0,4,,,,,,,,,3,,,57,75
3232,note_on,160,0,1,,,,,,,,,5,,,76,0
3262,note_on,94,0,4,,,,,,,,,3,,,57,0
3262,note_on,94,0,3,,,,,,,,,0,,,69,0
3262,note_on,94,0,2,,,,,,,,,6,,,57,0
3264,note_on,2,0,3,,,,,,,,,0,,,57,75
3264,note_on,2,0,4,,,,,,,,,3,,,45,75
3264,note_on,32,0,1,,,,,,,,,5,,,76,110
3264,note_on,2,0,2,,,,,,,,,6,,,45,110
3358,note_on,94,0,2,,,,,,,,,6,,,45,0
3360,note_on,2,0,2,,,,,,,,,6,,,57,110
3424,note_on,160,0,4,,,,,,,,,3,,,45,0
3424,note_on,160,0,3,,,,,,,,,0,,,57,0
3424,note_on,160,0,1,,,,,,,,,5,,,76,0
3454,note_on,94,0,2,,,,,,,,,6,,,57,0
3456,note_on,32,0,1,,,,,,,,,5,,,81,110
3456,note_on,2,0,2,,,,,,,,,6,,,66,110
3598,note_on,142,0,1,,,,,,,,,5,,,81,0
3598,note_on,142,0,2,,,,,,,,,6,,,66,0
3600,note_on,2,0,1,,,,,,,,,5,,,80,110
3600,note_on,2,0,2,,,,,,,,,6,,,64,110
3646,note_on,46,0,1,,,,,,,,,5,,,80,0
3646,note_on,46,0,2,,,,,,,,,6,,,64,0
3648,note_on,2,0,2,,,,,,,,,6,,,62,110
3648,program_change,224,0,3,,,,,,,,48,0,,,,
3648,program_change,224,0,4,,,,,,,,48,3,,,,
3648,note_on,2,0,1,,,,,,,,,5,,,78,110
3790,note_on,142,0,2,,,,,,,,,6,,,62,0
3790,note_on,142,0,1,,,,,,,,,5,,,78,0
3792,note_on,2,0,2,,,,,,,,,6,,,61,110
3792,note_on,2,0,1,,,,,,,,,5,,,76,110
3838,note_on,46,0,2,,,,,,,,,6,,,61,0
3838,note_on,46,0,1,,,,,,,,,5,,,76,0
3840,note_on,2,0,1,,,,,,,,,5,,,74,110
3840,note_on,2,0,2,,,,,,,,,6,,,59,110
3982,note_on,142,0,1,,,,,,,,,5,,,74,0
3982,note_on,142,0,2,,,,,,,,,6,,,59,0
3984,note_on,2,0,1,,,,,,,,,5,,,73,110
3984,note_on,2,0,2,,,,,,,,,6,,,57,110
4030,note_on,46,0,1,,,,,,,,,5,,,73,0
4030,note_on,46,0,2,,,,,,,,,6,,,57,0
4032,note_on,2,0,2,,,,,,,,,6,,,59,110
4032,note_on,2,0,1,,,,,,,,,5,,,74,110
4078,note_on,46,0,1,,,,,,,,,5,,,74,0
4078,note_on,46,0,2,,,,,,,,,6,,,59,0
4080,note_on,2,0,1,,,,,,,,,5,,,76,110
4080,note_on,2,0,2,,,,,,,,,6,,,61,110
4126,note_on,46,0,1,,,,,,,,,5,,,76,0
4126,note_on,46,0,2,,,,,,,,,6,,,61,0
4128,note_on,2,0,1,,,,,,,,,5,,,74,110
4128,note_on,2,0,2,,,,,,,,,6,,,59,110
4174,note_on,46,0,1,,,,,,,,,5,,,74,0
4174,note_on,46,0,2,,,,,,,,,6,,,59,0
4176,note_on,2,0,2,,,,,,,,,6,,,57,110
4176,note_on,2,0,1,,,,,,,,,5,,,73,110
4222,note_on,46,0,1,,,,,,,,,5,,,73,0
4222,note_on,46,0,2,,,,,,,,,6,,,57,0
4224,note_on,2,0,1,,,,,,,,,5,,,74,110
4224,note_on,2,0,2,,,,,,,,,6,,,59,110
4318,note_on,94,0,2,,,,,,,,,6,,,59,0
4320,note_on,672,0,3,,,,,,,,,0,,,71,75
4320,note_on,672,0,4,,,,,,,,,3,,,59,75
4320,note_on,2,0,2,,,,,,,,,6,,,59,110
4384,note_on,160,0,1,,,,,,,,,5,,,74,0
4414,note_on,94,0,2,,,,,,,,,6,,,59,0
4414,note_on,94,0,3,,,,,,,,,0,,,71,0
4414,note_on,94,0,4,,,,,,,,,3,,,59,0
4416,note_on,2,0,4,,,,,,,,,3,,,47,75
4416,note_on,2,0,3,,,,,,,,,0,,,59,75
4416,note_on,2,0,2,,,,,,,,,6,,,47,110
4510,note_on,94,0,2,,,,,,,,,6,,,47,0
4512,note_on,128,0,1,,,,,,,,,5,,,74,110
4512,note_on,2,0,2,,,,,,,,,6,,,59,110
4576,note_on,160,0,4,,,,,,,,,3,,,47,0
4576,note_on,160,0,3,,,,,,,,,0,,,59,0
4606,note_on,94,0,1,,,,,,,,,5,,,74,0
4606,note_on,94,0,2,,,,,,,,,6,,,59,0
4608,note_on,2,0,2,,,,,,,,,6,,,64,110
4608,note_on,2,0,1,,,,,,,,,5,,,80,110
4750,note_on,142,0,1,,,,,,,,,5,,,80,0
4750,note_on,142,0,2,,,,,,,,,6,,,64,0
4752,note_on,2,0,2,,,,,,,,,6,,,62,110
4752,note_on,2,0,1,,,,,,,,,5,,,78,110
4798,note_on,46,0,2,,,,,,,,,6,,,62,0
4798,note_on,46,0,1,,,,,,,,,5,,,78,0
4800,note_on,2,0,1,,,,,,,,,5,,,76,110
4800,note_on,2,0,2,,,,,,,,,6,,,61,110
4942,note_on,142,0,2,,,,,,,,,6,,,61,0
4942,note_on,142,0,1,,,,,,,,,5,,,76,0
4944,note_on,2,0,1,,,,,,,,,5,,,74,110
4944,note_on,2,0,2,,,,,,,,,6,,,59,110
4990,note_on,46,0,1,,,,,,,,,5,,,74,0
4990,note_on,46,0,2,,,,,,,,,6,,,59,0
4992,note_on,2,0,2,,,,,,,,,6,,,57,110
4992,note_on,2,0,1,,,,,,,,,5,,,73,110
5134,note_on,142,0,1,,,,,,,,,5,,,73,0
5134,note_on,142,0,2,,,,,,,,,6,,,57,0
5136,note_on,2,0,1,,,,,,,,,5,,,71,110
5136,note_on,2,0,2,,,,,,,,,6,,,56,110
5182,note_on,46,0,2,,,,,,,,,6,,,56,0
5182,note_on,46,0,1,,,,,,,,,5,,,71,0
5184,note_on,2,0,1,,,,,,,,,5,,,73,110
5184,note_on,2,0,2,,,,,,,,,6,,,57,110
5230,note_on,46,0,2,,,,,,,,,6,,,57,0
5230,note_on,46,0,1,,,,,,,,,5,,,73,0
5232,note_on,2,0,1,,,,,,,,,5,,,74,110
5232,note_on,2,0,2,,,,,,,,,6,,,59,110
5278,note_on,46,0,1,,,,,,,,,5,,,74,0
5278,note_on,46,0,2,,,,,,,,,6,,,59,0
5280,note_on,2,0,1,,,,,,,,,5,,,73,110
5280,note_on,2,0,2,,,,,,,,,6,,,57,110
5326,note_on,46,0,2,,,,,,,,,6,,,57,0
5326,note_on,46,0,1,,,,,,,,,5,,,73,0
5328,note_on,2,0,1,,,,,,,,,5,,,71,110
5328,note_on,2,0,2,,,,,,,,,6,,,56,110
5374,note_on,46,0,1,,,,,,,,,5,,,71,0
5374,note_on,46,0,2,,,,,,,,,6,,,56,0
5376,note_on,2,0,2,,,,,,,,,6,,,57,110
5376,note_on,2,0,1,,,,,,,,,5,,,73,110
5470,note_on,94,0,2,,,,,,,,,6,,,57,0
5472,note_on,896,0,3,,,,,,,,,0,,,69,75
5472,note_on,896,0,4,,,,,,,,,3,,,57,75
5472,note_on,2,0,2,,,,,,,,,6,,,57,110
5536,note_on,160,0,1,,,,,,,,,5,,,73,0
5566,note_on,94,0,4,,,,,,,,,3,,,57,0
5566,note_on,94,0,3,,,,,,,,,0,,,69,0
5566,note_on,94,0,2,,,,,,,,,6,,,57,0
5568,note_on,2,0,3,,,,,,,,,0,,,57,75
5568,note_on,2,0,2,,,,,,,,,6,,,45,110
5568,note_on,2,0,4,,,,,,,,,3,,,45,75
5662,note_on,94,0,2,,,,,,,,,6,,,45,0
5664,note_on,128,0,1,,,,,,,,,5,,,73,110
5664,note_on,2,0,2,,,,,,,,,6,,,57,110
5728,note_on,160,0,3,,,,,,,,,0,,,57,0
5728,note_on,160,0,4,,,,,,,,,3,,,45,0
5758,note_on,94,0,2,,,,,,,,,6,,,57,0
5758,note_on,94,0,1,,,,,,,,,5,,,73,0
5760,note_on,2,0,2,,,,,,,,,6,,,66,110
5760,note_on,2,0,1,,,,,,,,,5,,,81,110
5902,note_on,142,0,2,,,,,,,,,6,,,66,0
5902,note_on,142,0,1,,,,,,,,,5,,,81,0
5904,note_on,2,0,2,,,,,,,,,6,,,68,110
5904,note_on,2,0,1,,,,,,,,,5,,,83,110
5950,note_on,46,0,2,,,,,,,,,6,,,68,0
5950,note_on,46,0,1,,,,,,,,,5,,,83,0
5952,note_on,2,0,2,,,,,,,,,6,,,66,110
5952,note_on,2,0,1,,,,,,,,,5,,,81,110
6094,note_on,142,0,2,,,,,,,,,6,,,66,0
6094,note_on,142,0,1,,,,,,,,,5,,,81,0
6096,note_on,2,0,2,,,,,,,,,6,,,64,110
6096,note_on,2,0,1,,,,,,,,,5,,,80,110
6142,note_on,46,0,1,,,,,,,,,5,,,80,0
6142,note_on,46,0,2,,,,,,,,,6,,,64,0
6144,note_on,2,0,2,,,,,,,,,6,,,63,110
6144,note_on,2,0,1,,,,,,,,,5,,,78,110
6286,note_on,142,0,2,,,,,,,,,6,,,63,0
6286,note_on,142,0,1,,,,,,,,,5,,,78,0
6288,note_on,2,0,2,,,,,,,,,6,,,61,110
6288,note_on,2,0,1,,,,,,,,,5,,,76,110
6334,note_on,46,0,2,,,,,,,,,6,,,61,0
6334,note_on,46,0,1,,,,,,,,,5,,,76,0
6336,note_on,2,0,1,,,,,,,,,5,,,75,110
6336,note_on,2,0,2,,,,,,,,,6,,,59,110
6382,note_on,46,0,2,,,,,,,,,6,,,59,0
6382,note_on,46,0,1,,,,,,,,,5,,,75,0
6384,note_on,2,0,1,,,,,,,,,5,,,76,110
6384,note_on,2,0,2,,,,,,,,,6,,,61,110
6430,note_on,46,0,1,,,,,,,,,5,,,76,0
6430,note_on,46,0,2,,,,,,,,,6,,,61,0
6432,note_on,2,0,1,,,,,,,,,5,,,78,110
6432,note_on,2,0,2,,,,,,,,,6,,,63,110
6478,note_on,46,0,2,,,,,,,,,6,,,63,0
6478,note_on,46,0,1,,,,,,,,,5,,,78,0
6480,note_on,2,0,1,,,,,,,,,5,,,76,110
6480,note_on,2,0,2,,,,,,,,,6,,,61,110
6526,note_on,46,0,2,,,,,,,,,6,,,61,0
6526,note_on,46,0,1,,,,,,,,,5,,,76,0
6528,note_on,2,0,1,,,,,,,,,5,,,75,110
6528,note_on,2,0,2,,,,,,,,,6,,,59,110
6622,note_on,94,0,2,,,,,,,,,6,,,59,0
6624,note_on,896,0,4,,,,,,,,,3,,,59,75
6624,note_on,896,0,3,,,,,,,,,0,,,71,75
6624,note_on,2,0,2,,,,,,,,,6,,,59,110
6688,note_on,160,0,1,,,,,,,,,5,,,75,0
6718,note_on,94,0,2,,,,,,,,,6,,,59,0
6718,note_on,94,0,4,,,,,,,,,3,,,59,0
6718,note_on,94,0,3,,,,,,,,,0,,,71,0
6720,note_on,2,0,4,,,,,,,,,3,,,47,75
6720,note_on,2,0,2,,,,,,,,,6,,,47,110
6720,note_on,2,0,3,,,,,,,,,0,,,59,75
6814,note_on,94,0,2,,,,,,,,,6,,,47,0
6816,note_on,128,0,1,,,,,,,,,5,,,81,110
6816,note_on,2,0,2,,,,,,,,,6,,,66,110
6880,note_on,160,0,3,,,,,,,,,0,,,59,0
6880,note_on,160,0,4,,,,,,,,,3,,,47,0
6910,note_on,94,0,2,,,,,,,,,6,,,66,0
6910,note_on,94,0,1,,,,,,,,,5,,,81,0
6912,note_on,2,0,2,,,,,,,,,6,,,64,110
6912,note_on,2,0,1,,,,,,,,,5,,,80,110
6958,note_on,46,0,2,,,,,,,,,6,,,64,0
6958,note_on,46,0,1,,,,,,,,,5,,,80,0
6960,note_on,2,0,2,,,,,,,,,6,,,66,110
6960,note_on,2,0,1,,,,,,,,,5,,,81,110
7006,note_on,46,0,2,,,,,,,,,6,,,66,0
7006,note_on,46,0,1,,,,,,,,,5,,,81,0
7008,note_on,2,0,2,,,,,,,,,6,,,64,110
7008,note_on,2,0,1,,,,,,,,,5,,,80,110
7054,note_on,46,0,2,,,,,,,,,6,,,64,0
7054,note_on,46,0,1,,,,,,,,,5,,,80,0
7056,note_on,2,0,2,,,,,,,,,6,,,63,110
7056,note_on,2,0,1,,,,,,,,,5,,,78,110
7102,note_on,46,0,2,,,,,,,,,6,,,63,0
7102,note_on,46,0,1,,,,,,,,,5,,,78,0
7104,note_on,2,0,2,,,,,,,,,6,,,64,110
7104,note_on,2,0,1,,,,,,,,,5,,,80,110
7198,note_on,94,0,2,,,,,,,,,6,,,64,0
7200,note_on,320,0,4,,,,,,,,,3,,,59,75
7200,note_on,2,0,2,,,,,,,,,6,,,59,110
7200,note_on,320,0,3,,,,,,,,,0,,,71,75
7264,note_on,160,0,1,,,,,,,,,5,,,80,0
7294,note_on,94,0,4,,,,,,,,,3,,,59,0
7294,note_on,94,0,2,,,,,,,,,6,,,59,0
7294,note_on,94,0,3,,,,,,,,,0,,,71,0
7296,note_on,2,0,4,,,,,,,,,3,,,47,75
7296,note_on,2,0,2,,,,,,,,,6,,,47,110
7296,note_on,2,0,3,,,,,,,,,0,,,59,75
7390,note_on,94,0,2,,,,,,,,,6,,,47,0
7392,note_on,128,0,1,,,,,,,,,5,,,80,110
7392,note_on,2,0,2,,,,,,,,,6,,,64,110
7456,note_on,160,0,3,,,,,,,,,0,,,59,0
7456,note_on,160,0,4,,,,,,,,,3,,,47,0
7486,note_on,94,0,1,,,,,,,,,5,,,80,0
7486,note_on,94,0,2,,,,,,,,,6,,,64,0
7488,note_on,2,0,1,,,,,,,,,5,,,78,110
7488,note_on,2,0,2,,,,,,,,,6,,,63,110
7534,note_on,46,0,1,,,,,,,,,5,,,78,0
7534,note_on,46,0,2,,,,,,,,,6,,,63,0
7536,note_on,2,0,1,,,,,,,,,5,,,80,110
7536,note_on,2,0,2,,,,,,,,,6,,,64,110
7582,note_on,46,0,2,,,,,,,,,6,,,64,0
7582,note_on,46,0,1,,,,,,,,,5,,,80,0
7584,note_on,2,0,1,,,,,,,,,5,,,81,110
7584,note_on,2,0,2,,,,,,,,,6,,,66,110
7630,note_on,46,0,2,,,,,,,,,6,,,66,0
7630,note_on,46,0,1,,,,,,,,,5,,,81,0
7632,note_on,2,0,2,,,,,,,,,6,,,64,110
7632,note_on,2,0,1,,,,,,,,,5,,,80,110
7678,note_on,46,0,2,,,,,,,,,6,,,64,0
7678,note_on,46,0,1,,,,,,,,,5,,,80,0
7680,note_on,2,0,2,,,,,,,,,6,,,63,110
7680,note_on,2,0,1,,,,,,,,,5,,,78,110
7774,note_on,94,0,2,,,,,,,,,6,,,63,0
7776,note_on,320,0,4,,,,,,,,,3,,,59,75
7776,note_on,320,0,3,,,,,,,,,0,,,71,75
7776,note_on,2,0,2,,,,,,,,,6,,,59,110
7840,note_on,160,0,1,,,,,,,,,5,,,78,0
7870,note_on,94,0,2,,,,,,,,,6,,,59,0
7870,note_on,94,0,4,,,,,,,,,3,,,59,0
7870,note_on,94,0,3,,,,,,,,,0,,,71,0
7872,note_on,2,0,2,,,,,,,,,6,,,47,110
7872,note_on,2,0,4,,,,,,,,,3,,,47,75
7872,note_on,2,0,3,,,,,,,,,0,,,59,75
7966,note_on,94,0,2,,,,,,,,,6,,,47,0
7968,note_on,128,0,1,,,,,,,,,5,,,78,110
7968,note_on,2,0,2,,,,,,,,,6,,,63,110
8032,note_on,160,0,4,,,,,,,,,3,,,47,0
8032,note_on,160,0,3,,,,,,,,,0,,,59,0
8062,note_on,94,0,1,,,,,,,,,5,,,78,0
8062,note_on,94,0,2,,,,,,,,,6,,,63,0
8064,note_on,2,0,1,,,,,,,,,5,,,80,110
8064,note_on,2,0,2,,,,,,,,,6,,,64,110
8064,note_on,32,0,3,,,,,,,,,0,,,64,75
8064,note_on,32,0,4,,,,,,,,,3,,,52,75
8158,note_on,94,0,3,,,,,,,,,0,,,64,0
8158,note_on,94,0,4,,,,,,,,,3,,,52,0
8160,note_on,2,0,4,,,,,,,,,3,,,57,75
8160,note_on,2,0,3,,,,,,,,,0,,,69,75
8206,note_on,142,0,1,,,,,,,,,5,,,80,0
8206,note_on,142,0,2,,,,,,,,,6,,,64,0
8208,note_on,2,0,2,,,,,,,,,6,,,66,110
8208,note_on,2,0,1,,,,,,,,,5,,,81,110
8254,note_on,46,0,1,,,,,,,,,5,,,81,0
8254,note_on,94,0,4,,,,,,,,,3,,,57,0
8254,note_on,46,0,2,,,,,,,,,6,,,66,0
8254,note_on,94,0,3,,,,,,,,,0,,,69,0
8256,note_on,2,0,2,,,,,,,,,6,,,63,110
8256,note_on,2,0,4,,,,,,,,,3,,,59,75
8256,note_on,2,0,3,,,,,,,,,0,,,71,75
8256,note_on,2,0,1,,,,,,,,,5,,,80,110
8278,note_on,22,0,1,,,,,,,,,5,,,80,0
8280,note_on,2,0,1,,,,,,,,,5,,,78,110
8302,note_on,22,0,1,,,,,,,,,5,,,78,0
8304,note_on,2,0,1,,,,,,,,,5,,,80,110
8326,note_on,22,0,1,,,,,,,,,5,,,80,0
8328,note_on,2,0,1,,,,,,,,,5,,,78,110
8350,note_on,22,0,1,,,,,,,,,5,,,78,0
8352,note_on,2,0,1,,,,,,,,,5,,,80,110
8374,note_on,22,0,1,,,,,,,,,5,,,80,0
8376,note_on,2,0,1,,,,,,,,,5,,,78,110
8398,note_on,22,0,1,,,,,,,,,5,,,78,0
8400,note_on,2,0,1,,,,,,,,,5,,,80,110
8416,note_on,160,0,3,,,,,,,,,0,,,71,0
8416,note_on,160,0,4,,,,,,,,,3,,,59,0
8422,note_on,22,0,1,,,,,,,,,5,,,80,0
8424,note_on,2,0,1,,,,,,,,,5,,,78,110
8446,note_on,22,0,1,,,,,,,,,5,,,78,0
8448,note_on,32,0,4,,,,,,,,,3,,,47,75
8448,note_on,32,0,3,,,,,,,,,0,,,59,75
8448,note_on,2,0,1,,,,,,,,,5,,,76,110
8494,note_on,46,0,1,,,,,,,,,5,,,76,0
8496,note_on,2,0,1,,,,,,,,,5,,,78,110
8512,note_on,256,0,2,,,,,,,,,6,,,63,0
8542,note_on,46,0,1,,,,,,,,,5,,,78,0
8544,note_on,32,0,2,,,,,,,,,6,,,64,110
8544,note_on,2,0,1,,,,,,,,,5,,,76,110
8608,note_on,160,0,3,,,,,,,,,0,,,59,0
8608,note_on,160,0,4,,,,,,,,,3,,,47,0
8638,note_on,94,0,2,,,,,,,,,6,,,64,0
8638,note_on,94,0,1,,,,,,,,,5,,,76,0
8640,note_on,2,0,1,,,,,,,,,5,,,76,110
8640,note_on,2,0,2,,,,,,,,,6,,,52,110
8640,note_on,32,0,4,,,,,,,,,3,,,52,75
8640,note_on,32,0,3,,,,,,,,,0,,,64,75
8640,note_on,0,0,2,,,,,,,,,6,,,64,110
8686,note_on,46,0,4,,,,,,,,,3,,,52,0
8686,note_on,0,0,2,,,,,,,,,6,,,64,0
8686,note_on,46,0,2,,,,,,,,,6,,,52,0
8686,note_on,46,0,3,,,,,,,,,0,,,64,0
8688,note_on,2,0,2,,,,,,,,,6,,,54,110
8688,note_on,2,0,4,,,,,,,,,3,,,54,75
8688,note_on,2,0,3,,,,,,,,,0,,,66,75
8734,note_on,46,0,3,,,,,,,,,0,,,66,0
8734,note_on,46,0,4,,,,,,,,,3,,,54,0
8734,note_on,46,0,2,,,,,,,,,6,,,54,0
8736,note_on,2,0,3,,,,,,,,,0,,,68,75
8736,note_on,2,0,2,,,,,,,,,6,,,56,110
8736,note_on,2,0,4,,,,,,,,,3,,,56,75
8782,note_on,46,0,3,,,,,,,,,0,,,68,0
8782,note_on,46,0,2,,,,,,,,,6,,,56,0
8782,note_on,46,0,4,,,,,,,,,3,,,56,0
8784,note_on,2,0,4,,,,,,,,,3,,,54,75
8784,note_on,2,0,3,,,,,,,,,0,,,66,75
8784,note_on,2,0,2,,,,,,,,,6,,,54,110
8800,note_on,160,0,1,,,,,,,,,5,,,76,0
8830,note_on,46,0,4,,,,,,,,,3,,,54,0
8830,note_on,46,0,2,,,,,,,,,6,,,54,0
8830,note_on,46,0,3,,,,,,,,,0,,,66,0
8832,note_on,2,0,4,,,,,,,,,3,,,52,75
8832,note_on,2,0,3,,,,,,,,,0,,,64,75
8832,note_on,2,0,2,,,,,,,,,6,,,52,110
8926,note_on,94,0,4,,,,,,,,,3,,,52,0
8926,note_on,94,0,3,,,,,,,,,0,,,64,0
8926,note_on,94,0,2,,,,,,,,,6,,,52,0
8928,note_on,2,0,2,,,,,,,,,6,,,47,110
8928,note_on,2,0,3,,,,,,,,,0,,,59,75
8928,note_on,2,0,4,,,,,,,,,3,,,47,75
9022,note_on,94,0,3,,,,,,,,,0,,,59,0
9022,note_on,94,0,4,,,,,,,,,3,,,47,0
9022,note_on,94,0,2,,,,,,,,,6,,,47,0
9024,note_on,2,0,4,,,,,,,,,3,,,52,75
9024,note_on,2,0,3,,,,,,,,,0,,,64,75
9024,note_on,2,0,2,,,,,,,,,6,,,52,110
9118,note_on,94,0,4,,,,,,,,,3,,,52,0
9118,note_on,94,0,3,,,,,,,,,0,,,64,0
9118,note_on,94,0,2,,,,,,,,,6,,,52,0
9120,note_on,2,0,4,,,,,,,,,3,,,47,75
9120,note_on,2,0,3,,,,,,,,,0,,,59,75
9120,note_on,2,0,2,,,,,,,,,6,,,47,110
9214,note_on,94,0,3,,,,,,,,,0,,,59,0
9214,note_on,94,0,2,,,,,,,,,6,,,47,0
9214,note_on,94,0,4,,,,,,,,,3,,,47,0
9216,note_on,2,0,3,,,,,,,,,0,,,64,75
9216,note_on,2,0,2,,,,,,,,,6,,,52,110
9216,note_on,2,0,4,,,,,,,,,3,,,52,75
9262,note_on,46,0,4,,,,,,,,,3,,,52,0
9262,note_on,46,0,2,,,,,,,,,6,,,52,0
9262,note_on,46,0,3,,,,,,,,,0,,,64,0
9264,note_on,2,0,3,,,,,,,,,0,,,66,75
9264,note_on,2,0,4,,,,,,,,,3,,,54,75
9264,note_on,2,0,2,,,,,,,,,6,,,54,110
9310,note_on,46,0,2,,,,,,,,,6,,,54,0
9310,note_on,46,0,4,,,,,,,,,3,,,54,0
9310,note_on,46,0,3,,,,,,,,,0,,,66,0
9312,note_on,2,0,4,,,,,,,,,3,,,56,75
9312,note_on,2,0,3,,,,,,,,,0,,,68,75
9312,note_on,2,0,2,,,,,,,,,6,,,56,110
9358,note_on,46,0,3,,,,,,,,,0,,,68,0
9358,note_on,46,0,2,,,,,,,,,6,,,56,0
9358,note_on,46,0,4,,,,,,,,,3,,,56,0
9360,note_on,2,0,2,,,,,,,,,6,,,54,110
9360,note_on,2,0,4,,,,,,,,,3,,,54,75
9360,note_on,2,0,3,,,,,,,,,0,,,66,75
9406,note_on,46,0,2,,,,,,,,,6,,,54,0
9406,note_on,46,0,3,,,,,,,,,0,,,66,0
9406,note_on,46,0,4,,,,,,,,,3,,,54,0
9408,note_on,2,0,4,,,,,,,,,3,,,52,75
9408,note_on,2,0,3,,,,,,,,,0,,,64,75
9408,note_on,2,0,2,,,,,,,,,6,,,52,110
9502,note_on,94,0,2,,,,,,,,,6,,,52,0
9502,note_on,94,0,3,,,,,,,,,0,,,64,0
9502,note_on,94,0,4,,,,,,,,,3,,,52,0
9504,note_on,2,0,2,,,,,,,,,6,,,47,110
9504,note_on,2,0,3,,,,,,,,,0,,,59,75
9504,note_on,2,0,4,,,,,,,,,3,,,47,75
9598,note_on,94,0,2,,,,,,,,,6,,,47,0
9598,note_on,94,0,3,,,,,,,,,0,,,59,0
9598,note_on,94,0,4,,,,,,,,,3,,,47,0
9600,note_on,2,0,2,,,,,,,,,6,,,52,110
9600,note_on,2,0,3,,,,,,,,,0,,,64,75
9600,note_on,2,0,4,,,,,,,,,3,,,52,75
9694,note_on,94,0,2,,,,,,,,,6,,,52,0
9694,note_on,94,0,3,,,,,,,,,0,,,64,0
9694,note_on,94,0,4,,,,,,,,,3,,,52,0
9696,note_on,2,0,3,,,,,,,,,0,,,59,75
9696,note_on,2,0,4,,,,,,,,,3,,,47,75
9696,note_on,2,0,2,,,,,,,,,6,,,47,110
9790,note_on,94,0,3,,,,,,,,,0,,,59,0
9790,note_on,94,0,4,,,,,,,,,3,,,47,0
9790,note_on,94,0,2,,,,,,,,,6,,,47,0
9792,note_on,2,0,3,,,,,,,,,0,,,64,75
9792,note_on,2,0,4,,,,,,,,,3,,,52,75
9792,program_change,992,0,1,,,,,,,,6,5,,,,
9792,note_on,2,0,2,,,,,,,,,6,,,52,110
9838,note_on,46,0,4,,,,,,,,,3,,,52,0
9838,note_on,46,0,2,,,,,,,,,6,,,52,0
9838,note_on,46,0,3,,,,,,,,,0,,,64,0
9840,note_on,2,0,4,,,,,,,,,3,,,54,75
9840,note_on,2,0,2,,,,,,,,,6,,,54,110
9840,note_on,2,0,3,,,,,,,,,0,,,66,75
9886,note_on,46,0,3,,,,,,,,,0,,,66,0
9886,note_on,46,0,2,,,,,,,,,6,,,54,0
9886,note_on,46,0,4,,,,,,,,,3,,,54,0
9888,note_on,2,0,3,,,,,,,,,0,,,68,75
9888,note_on,2,0,4,,,,,,,,,3,,,56,75
9888,note_on,2,0,2,,,,,,,,,6,,,56,110
9934,note_on,46,0,4,,,,,,,,,3,,,56,0
9934,note_on,46,0,2,,,,,,,,,6,,,56,0
9934,note_on,46,0,3,,,,,,,,,0,,,68,0
9936,note_on,2,0,3,,,,,,,,,0,,,69,75
9936,note_on,2,0,4,,,,,,,,,3,,,57,75
9936,note_on,2,0,2,,,,,,,,,6,,,57,110
9982,note_on,46,0,2,,,,,,,,,6,,,57,0
9982,note_on,46,0,4,,,,,,,,,3,,,57,0
9982,note_on,46,0,3,,,,,,,,,0,,,69,0
9984,note_on,2,0,2,,,,,,,,,6,,,59,110
9984,note_on,2,0,4,,,,,,,,,3,,,59,75
9984,note_on,2,0,3,,,,,,,,,0,,,71,75
10078,note_on,94,0,2,,,,,,,,,6,,,59,0
10078,note_on,94,0,3,,,,,,,,,0,,,71,0
10078,note_on,94,0,4,,,,,,,,,3,,,59,0
10080,note_on,2,0,3,,,,,,,,,0,,,64,75
10080,note_on,2,0,4,,,,,,,,,3,,,52,75
10080,note_on,2,0,2,,,,,,,,,6,,,52,110
10174,note_on,94,0,2,,,,,,,,,6,,,52,0
10174,note_on,94,0,4,,,,,,,,,3,,,52,0
10174,note_on,94,0,3,,,,,,,,,0,,,64,0
10176,note_on,2,0,2,,,,,,,,,6,,,59,110
10176,note_on,2,0,4,,,,,,,,,3,,,59,75
10176,note_on,2,0,3,,,,,,,,,0,,,71,75
10270,note_on,94,0,4,,,,,,,,,3,,,59,0
10270,note_on,94,0,3,,,,,,,,,0,,,71,0
10270,note_on,94,0,2,,,,,,,,,6,,,59,0
10272,note_on,2,0,2,,,,,,,,,6,,,47,110
10272,note_on,2,0,4,,,,,,,,,3,,,47,75
10272,note_on,2,0,3,,,,,,,,,0,,,59,75
10366,note_on,94,0,3,,,,,,,,,0,,,59,0
10366,note_on,94,0,2,,,,,,,,,6,,,47,0
10366,note_on,94,0,4,,,,,,,,,3,,,47,0
10368,note_on,2,0,4,,,,,,,,,3,,,52,75
10368,note_on,2,0,2,,,,,,,,,6,,,64,110
10368,note_on,576,0,1,,,,,,,,,5,,,80,110
10368,note_on,2,0,3,,,,,,,,,0,,,64,75
10510,note_on,142,0,1,,,,,,,,,5,,,80,0
10510,note_on,142,0,2,,,,,,,,,6,,,64,0
10512,note_on,2,0,2,,,,,,,,,6,,,66,110
10512,note_on,2,0,1,,,,,,,,,5,,,81,110
10528,note_on,160,0,3,,,,,,,,,0,,,64,0
10528,note_on,160,0,4,,,,,,,,,3,,,52,0
10558,note_on,46,0,1,,,,,,,,,5,,,81,0
10558,note_on,46,0,2,,,,,,,,,6,,,66,0
10560,note_on,2,0,1,,,,,,,,,5,,,83,110
10560,note_on,2,0,2,,,,,,,,,6,,,68,110
10702,note_on,142,0,1,,,,,,,,,5,,,83,0
10702,note_on,142,0,2,,,,,,,,,6,,,68,0
10704,note_on,2,0,1,,,,,,,,,5,,,81,110
10704,note_on,2,0,2,,,,,,,,,6,,,66,110
10750,note_on,46,0,1,,,,,,,,,5,,,81,0
10750,note_on,46,0,2,,,,,,,,,6,,,66,0
10752,note_on,2,0,1,,,,,,,,,5,,,80,110
10752,note_on,2,0,2,,,,,,,,,6,,,64,110
10894,note_on,142,0,1,,,,,,,,,5,,,80,0
10894,note_on,142,0,2,,,,,,,,,6,,,64,0
10896,note_on,2,0,1,,,,,,,,,5,,,78,110
10896,note_on,2,0,2,,,,,,,,,6,,,63,110
10906,note_on,10,0,2,,,,,,,,,6,,,63,0
10906,note_on,10,0,1,,,,,,,,,5,,,78,0
10908,note_on,2,0,2,,,,,,,,,6,,,64,110
10908,note_on,2,0,1,,,,,,,,,5,,,80,110
10918,note_on,10,0,2,,,,,,,,,6,,,64,0
10918,note_on,10,0,1,,,,,,,,,5,,,80,0
10920,note_on,2,0,2,,,,,,,,,6,,,63,110
10920,note_on,2,0,1,,,,,,,,,5,,,78,110
10942,note_on,22,0,1,,,,,,,,,5,,,78,0
10942,note_on,22,0,2,,,,,,,,,6,,,63,0
10944,note_on,2,0,2,,,,,,,,,6,,,61,110
10944,note_on,2,0,1,,,,,,,,,5,,,77,110
10990,note_on,46,0,2,,,,,,,,,6,,,61,0
10990,note_on,46,0,1,,,,,,,,,5,,,77,0
10992,note_on,2,0,2,,,,,,,,,6,,,56,110
10992,note_on,2,0,1,,,,,,,,,5,,,73,110
11038,note_on,46,0,1,,,,,,,,,5,,,73,0
11038,note_on,46,0,2,,,,,,,,,6,,,56,0
11040,note_on,2,0,2,,,,,,,,,6,,,61,110
11040,note_on,2,0,1,,,,,,,,,5,,,77,110
11086,note_on,46,0,2,,,,,,,,,6,,,61,0
11086,note_on,46,0,1,,,,,,,,,5,,,77,0
11088,note_on,2,0,1,,,,,,,,,5,,,80,110
11088,note_on,2,0,2,,,,,,,,,6,,,65,110
11134,note_on,46,0,2,,,,,,,,,6,,,65,0
11134,note_on,46,0,1,,,,,,,,,5,,,80,0
11136,note_on,2,0,1,,,,,,,,,5,,,83,110
11136,note_on,2,0,2,,,,,,,,,6,,,68,110
11230,note_on,94,0,2,,,,,,,,,6,,,68,0
11232,note_on,704,0,3,,,,,,,,,0,,,73,75
11232,note_on,704,0,4,,,,,,,,,3,,,61,75
11232,note_on,2,0,2,,,,,,,,,6,,,61,110
11296,note_on,160,0,1,,,,,,,,,5,,,83,0
11326,note_on,94,0,4,,,,,,,,,3,,,61,0
11326,note_on,94,0,2,,,,,,,,,6,,,61,0
11326,note_on,94,0,3,,,,,,,,,0,,,73,0
11328,note_on,2,0,2,,,,,,,,,6,,,49,110
11328,note_on,2,0,4,,,,,,,,,3,,,49,75
11328,note_on,2,0,3,,,,,,,,,0,,,61,75
11422,note_on,94,0,2,,,,,,,,,6,,,49,0
11424,note_on,2,0,2,,,,,,,,,6,,,68,110
11424,note_on,128,0,1,,,,,,,,,5,,,83,110
11488,note_on,160,0,3,,,,,,,,,0,,,61,0
11488,note_on,160,0,4,,,,,,,,,3,,,49,0
11518,note_on,94,0,2,,,,,,,,,6,,,68,0
11518,note_on,94,0,1,,,,,,,,,5,,,83,0
11520,note_on,2,0,2,,,,,,,,,6,,,66,110
11520,note_on,2,0,1,,,,,,,,,5,,,81,110
11566,note_on,46,0,2,,,,,,,,,6,,,66,0
11566,note_on,46,0,1,,,,,,,,,5,,,81,0
11568,note_on,2,0,2,,,,,,,,,6,,,68,110
11568,note_on,2,0,1,,,,,,,,,5,,,83,110
11614,note_on,46,0,2,,,,,,,,,6,,,68,0
11614,note_on,46,0,1,,,,,,,,,5,,,83,0
11616,note_on,2,0,1,,,,,,,,,5,,,85,110
11616,note_on,2,0,2,,,,,,,,,6,,,69,110
11662,note_on,46,0,1,,,,,,,,,5,,,85,0
11662,note_on,46,0,2,,,,,,,,,6,,,69,0
11664,note_on,2,0,2,,,,,,,,,6,,,68,110
11664,note_on,2,0,1,,,,,,,,,5,,,83,110
11710,note_on,46,0,1,,,,,,,,,5,,,83,0
11710,note_on,46,0,2,,,,,,,,,6,,,68,0
11712,note_on,2,0,2,,,,,,,,,6,,,66,110
11712,note_on,2,0,1,,,,,,,,,5,,,81,110
11806,note_on,94,0,2,,,,,,,,,6,,,66,0
11808,note_on,320,0,4,,,,,,,,,3,,,61,75
11808,note_on,320,0,3,,,,,,,,,0,,,73,75
11808,note_on,2,0,2,,,,,,,,,6,,,61,110
11872,note_on,160,0,1,,,,,,,,,5,,,81,0
11902,note_on,94,0,4,,,,,,,,,3,,,61,0
11902,note_on,94,0,3,,,,,,,,,0,,,73,0
11902,note_on,94,0,2,,,,,,,,,6,,,61,0
11904,note_on,2,0,2,,,,,,,,,6,,,49,110
11904,note_on,2,0,3,,,,,,,,,0,,,61,75
11904,note_on,2,0,4,,,,,,,,,3,,,49,75
11998,note_on,94,0,2,,,,,,,,,6,,,49,0
12000,note_on,128,0,1,,,,,,,,,5,,,81,110
12000,note_on,2,0,2,,,,,,,,,6,,,66,110
12064,note_on,160,0,4,,,,,,,,,3,,,49,0
12064,note_on,160,0,3,,,,,,,,,0,,,61,0
12094,note_on,94,0,2,,,,,,,,,6,,,66,0
12094,note_on,94,0,1,,,,,,,,,5,,,81,0
12096,note_on,2,0,2,,,,,,,,,6,,,65,110
12096,note_on,2,0,1,,,,,,,,,5,,,80,110
12142,note_on,46,0,1,,,,,,,,,5,,,80,0
12142,note_on,46,0,2,,,,,,,,,6,,,65,0
12144,note_on,2,0,2,,,,,,,,,6,,,66,110
12144,note_on,2,0,1,,,,,,,,,5,,,81,110
12190,note_on,46,0,1,,,,,,,,,5,,,81,0
12190,note_on,46,0,2,,,,,,,,,6,,,66,0
12192,note_on,2,0,2,,,,,,,,,6,,,68,110
12192,note_on,2,0,1,,,,,,,,,5,,,83,110
12238,note_on,46,0,1,,,,,,,,,5,,,83,0
12238,note_on,46,0,2,,,,,,,,,6,,,68,0
12240,note_on,2,0,1,,,,,,,,,5,,,81,110
12240,note_on,2,0,2,,,,,,,,,6,,,66,110
12286,note_on,46,0,1,,,,,,,,,5,,,81,0
12286,note_on,46,0,2,,,,,,,,,6,,,66,0
12288,note_on,2,0,1,,,,,,,,,5,,,80,110
12288,note_on,2,0,2,,,,,,,,,6,,,65,110
12382,note_on,94,0,2,,,,,,,,,6,,,65,0
12384,note_on,2,0,2,,,,,,,,,6,,,61,110
12384,note_on,320,0,4,,,,,,,,,3,,,61,75
12384,note_on,320,0,3,,,,,,,,,0,,,73,75
12448,note_on,160,0,1,,,,,,,,,5,,,80,0
12478,note_on,94,0,3,,,,,,,,,0,,,73,0
12478,note_on,94,0,2,,,,,,,,,6,,,61,0
12478,note_on,94,0,4,,,,,,,,,3,,,61,0
12480,note_on,2,0,4,,,,,,,,,3,,,49,75
12480,note_on,2,0,3,,,,,,,,,0,,,61,75
12480,note_on,2,0,2,,,,,,,,,6,,,49,110
12574,note_on,94,0,2,,,,,,,,,6,,,49,0
12576,note_on,128,0,1,,,,,,,,,5,,,80,110
12576,note_on,2,0,2,,,,,,,,,6,,,65,110
12640,note_on,160,0,3,,,,,,,,,0,,,61,0
12640,note_on,160,0,4,,,,,,,,,3,,,49,0
12670,note_on,94,0,1,,,,,,,,,5,,,80,0
12670,note_on,94,0,2,,,,,,,,,6,,,65,0
12672,note_on,2,0,2,,,,,,,,,6,,,66,110
12672,note_on,2,0,1,,,,,,,,,5,,,81,110
12814,note_on,142,0,2,,,,,,,,,6,,,66,0
12814,note_on,142,0,1,,,,,,,,,5,,,81,0
12816,note_on,2,0,1,,,,,,,,,5,,,83,110
12816,note_on,2,0,2,,,,,,,,,6,,,68,110
12862,note_on,46,0,1,,,,,,,,,5,,,83,0
12862,note_on,46,0,2,,,,,,,,,6,,,68,0
12864,note_on,2,0,1,,,,,,,,,5,,,81,110
12864,note_on,2,0,2,,,,,,,,,6,,,66,110
13006,note_on,142,0,1,,,,,,,,,5,,,81,0
13006,note_on,142,0,2,,,,,,,,,6,,,66,0
13008,note_on,2,0,2,,,,,,,,,6,,,68,110
13008,note_on,2,0,1,,,,,,,,,5,,,83,110
13054,note_on,46,0,1,,,,,,,,,5,,,83,0
13054,note_on,46,0,2,,,,,,,,,6,,,68,0
13056,note_on,2,0,2,,,,,,,,,6,,,66,110
13056,note_on,2,0,1,,,,,,,,,5,,,81,110
13198,note_on,142,0,1,,,,,,,,,5,,,81,0
13198,note_on,142,0,2,,,,,,,,,6,,,66,0
13200,note_on,2,0,1,,,,,,,,,5,,,83,110
13200,note_on,2,0,2,,,,,,,,,6,,,68,110
13246,note_on,46,0,1,,,,,,,,,5,,,83,0
13246,note_on,46,0,2,,,,,,,,,6,,,68,0
13248,note_on,2,0,1,,,,,,,,,5,,,85,110
13248,note_on,2,0,2,,,,,,,,,6,,,69,110
13440,note_on,800,0,4,,,,,,,,,3,,,54,75
13440,note_on,800,0,3,,,,,,,,,0,,,66,75
13504,note_on,256,0,2,,,,,,,,,6,,,69,0
13504,note_on,256,0,1,,,,,,,,,5,,,85,0
13536,note_on,32,0,2,,,,,,,,,6,,,68,110
13536,note_on,32,0,1,,,,,,,,,5,,,83,110
13600,note_on,160,0,3,,,,,,,,,0,,,66,0
13600,note_on,160,0,4,,,,,,,,,3,,,54,0
13630,note_on,94,0,2,,,,,,,,,6,,,68,0
13630,note_on,94,0,1,,,,,,,,,5,,,83,0
13632,note_on,2,0,2,,,,,,,,,6,,,66,110
13632,note_on,32,0,4,,,,,,,,,3,,,49,75
13632,note_on,32,0,3,,,,,,,,,0,,,61,75
13632,note_on,2,0,1,,,,,,,,,5,,,81,110
13726,note_on,94,0,1,,,,,,,,,5,,,81,0
13726,note_on,94,0,2,,,,,,,,,6,,,66,0
13728,note_on,2,0,2,,,,,,,,,6,,,65,110
13728,note_on,2,0,1,,,,,,,,,5,,,80,110
13792,note_on,160,0,4,,,,,,,,,3,,,49,0
13792,note_on,160,0,3,,,,,,,,,0,,,61,0
13822,note_on,94,0,1,,,,,,,,,5,,,80,0
13822,note_on,94,0,2,,,,,,,,,6,,,65,0
13824,note_on,2,0,2,,,,,,,,,6,,,66,110
13824,note_on,32,0,3,,,,,,,,,0,,,66,75
13824,note_on,32,0,4,,,,,,,,,3,,,54,75
13824,note_on,2,0,1,,,,,,,,,5,,,81,110
13918,note_on,94,0,4,,,,,,,,,3,,,54,0
13918,note_on,94,0,3,,,,,,,,,0,,,66,0
13920,note_on,2,0,4,,,,,,,,,3,,,59,75
13920,note_on,2,0,3,,,,,,,,,0,,,71,75
13966,note_on,142,0,1,,,,,,,,,5,,,81,0
13966,note_on,142,0,2,,,,,,,,,6,,,66,0
13968,note_on,2,0,1,,,,,,,,,5,,,83,110
13968,note_on,2,0,2,,,,,,,,,6,,,68,110
14014,note_on,94,0,4,,,,,,,,,3,,,59,0
14014,note_on,46,0,2,,,,,,,,,6,,,68,0
14014,note_on,94,0,3,,,,,,,,,0,,,71,0
14014,note_on,46,0,1,,,,,,,,,5,,,83,0
14016,note_on,2,0,2,,,,,,,,,6,,,65,110
14016,note_on,2,0,4,,,,,,,,,3,,,61,75
14016,note_on,2,0,3,,,,,,,,,0,,,73,75
14016,note_on,2,0,1,,,,,,,,,5,,,81,110
14026,note_on,10,0,2,,,,,,,,,6,,,65,0
14028,note_on,2,0,2,,,,,,,,,6,,,65,110
14038,note_on,22,0,1,,,,,,,,,5,,,81,0
14038,note_on,10,0,2,,,,,,,,,6,,,65,0
14040,note_on,2,0,2,,,,,,,,,6,,,65,110
14040,note_on,2,0,1,,,,,,,,,5,,,80,110
14062,note_on,22,0,1,,,,,,,,,5,,,80,0
14064,note_on,2,0,1,,,,,,,,,5,,,81,110
14086,note_on,22,0,1,,,,,,,,,5,,,81,0
14088,note_on,2,0,1,,,,,,,,,5,,,80,110
14110,note_on,22,0,1,,,,,,,,,5,,,80,0
14112,note_on,2,0,1,,,,,,,,,5,,,81,110
14134,note_on,22,0,1,,,,,,,,,5,,,81,0
14136,note_on,2,0,1,,,,,,,,,5,,,80,110
14158,note_on,22,0,1,,,,,,,,,5,,,80,0
14160,note_on,2,0,1,,,,,,,,,5,,,81,110
14176,note_on,160,0,3,,,,,,,,,0,,,73,0
14176,note_on,160,0,4,,,,,,,,,3,,,61,0
14182,note_on,22,0,1,,,,,,,,,5,,,81,0
14184,note_on,2,0,1,,,,,,,,,5,,,80,110
14206,note_on,22,0,1,,,,,,,,,5,,,80,0
14208,note_on,32,0,3,,,,,,,,,0,,,61,75
14208,note_on,32,0,4,,,,,,,,,3,,,49,75
14208,note_on,2,0,1,,,,,,,,,5,,,78,110
14254,note_on,46,0,1,,,,,,,,,5,,,78,0
14256,note_on,2,0,1,,,,,,,,,5,,,80,110
14272,note_on,232,0,2,,,,,,,,,6,,,65,0
14302,note_on,46,0,1,,,,,,,,,5,,,80,0
14304,note_on,32,0,2,,,,,,,,,6,,,66,110
14304,note_on,2,0,1,,,,,,,,,5,,,78,110
14368,note_on,160,0,4,,,,,,,,,3,,,49,0
14368,note_on,160,0,3,,,,,,,,,0,,,61,0
14398,note_on,94,0,2,,,,,,,,,6,,,66,0
14398,note_on,94,0,1,,,,,,,,,5,,,78,0
14400,note_on,32,0,4,,,,,,,,,3,,,54,75
14400,note_on,2,0,1,,,,,,,,,5,,,78,110
14400,note_on,2,0,2,,,,,,,,,6,,,54,110
14400,note_on,0,0,2,,,,,,,,,6,,,66,110
14400,note_on,32,0,3,,,,,,,,,0,,,66,75
14446,note_on,46,0,4,,,,,,,,,3,,,54,0
14446,note_on,46,0,3,,,,,,,,,0,,,66,0
14446,note_on,46,0,2,,,,,,,,,6,,,54,0
14446,note_on,0,0,2,,,,,,,,,6,,,66,0
14448,note_on,2,0,3,,,,,,,,,0,,,68,75
14448,note_on,2,0,2,,,,,,,,,6,,,56,110
14448,note_on,2,0,4,,,,,,,,,3,,,56,75
14494,note_on,46,0,3,,,,,,,,,0,,,68,0
14494,note_on,46,0,2,,,,,,,,,6,,,56,0
14494,note_on,46,0,4,,,,,,,,,3,,,56,0
14496,note_on,2,0,3,,,,,,,,,0,,,69,75
14496,note_on,2,0,2,,,,,,,,,6,,,57,110
14496,note_on,2,0,4,,,,,,,,,3,,,57,75
14542,note_on,46,0,2,,,,,,,,,6,,,57,0
14542,note_on,46,0,3,,,,,,,,,0,,,69,0
14542,note_on,46,0,4,,,,,,,,,3,,,57,0
14544,note_on,2,0,3,,,,,,,,,0,,,68,75
14544,note_on,2,0,4,,,,,,,,,3,,,56,75
14544,note_on,2,0,2,,,,,,,,,6,,,56,110
14560,note_on,160,0,1,,,,,,,,,5,,,78,0
14590,note_on,46,0,2,,,,,,,,,6,,,56,0
14590,note_on,46,0,3,,,,,,,,,0,,,68,0
14590,note_on,46,0,4,,,,,,,,,3,,,56,0
14592,note_on,2,0,4,,,,,,,,,3,,,54,75
14592,note_on,2,0,3,,,,,,,,,0,,,66,75
14592,note_on,2,0,2,,,,,,,,,6,,,54,110
14686,note_on,94,0,3,,,,,,,,,0,,,66,0
14686,note_on,94,0,2,,,,,,,,,6,,,54,0
14686,note_on,94,0,4,,,,,,,,,3,,,54,0
14688,note_on,2,0,3,,,,,,,,,0,,,61,75
14688,note_on,2,0,2,,,,,,,,,6,,,49,110
14688,note_on,2,0,4,,,,,,,,,3,,,49,75
14782,note_on,94,0,3,,,,,,,,,0,,,61,0
14782,note_on,94,0,2,,,,,,,,,6,,,49,0
14782,note_on,94,0,4,,,,,,,,,3,,,49,0
14784,note_on,2,0,2,,,,,,,,,6,,,54,110
14784,note_on,2,0,4,,,,,,,,,3,,,54,75
14784,note_on,2,0,3,,,,,,,,,0,,,66,75
14878,note_on,94,0,2,,,,,,,,,6,,,54,0
14878,note_on,94,0,3,,,,,,,,,0,,,66,0
14878,note_on,94,0,4,,,,,,,,,3,,,54,0
14880,note_on,2,0,4,,,,,,,,,3,,,49,75
14880,note_on,2,0,2,,,,,,,,,6,,,49,110
14880,note_on,2,0,3,,,,,,,,,0,,,61,75
14974,note_on,94,0,4,,,,,,,,,3,,,49,0
14974,note_on,94,0,2,,,,,,,,,6,,,49,0
14974,note_on,94,0,3,,,,,,,,,0,,,61,0
14976,note_on,2,0,4,,,,,,,,,3,,,54,75
14976,note_on,2,0,2,,,,,,,,,6,,,54,110
14976,note_on,2,0,3,,,,,,,,,0,,,66,75
15022,note_on,46,0,4,,,,,,,,,3,,,54,0
15022,note_on,46,0,3,,,,,,,,,0,,,66,0
15022,note_on,46,0,2,,,,,,,,,6,,,54,0
15024,note_on,2,0,3,,,,,,,,,0,,,68,75
15024,note_on,2,0,4,,,,,,,,,3,,,56,75
15024,note_on,2,0,2,,,,,,,,,6,,,56,110
15070,note_on,46,0,3,,,,,,,,,0,,,68,0
15070,note_on,46,0,4,,,,,,,,,3,,,56,0
15070,note_on,46,0,2,,,,,,,,,6,,,56,0
15072,note_on,2,0,4,,,,,,,,,3,,,57,75
15072,note_on,2,0,2,,,,,,,,,6,,,57,110
15072,note_on,2,0,3,,,,,,,,,0,,,69,75
15118,note_on,46,0,2,,,,,,,,,6,,,57,0
15118,note_on,46,0,3,,,,,,,,,0,,,69,0
15118,note_on,46,0,4,,,,,,,,,3,,,57,0
15120,note_on,2,0,2,,,,,,,,,6,,,56,110
15120,note_on,2,0,3,,,,,,,,,0,,,68,75
15120,note_on,2,0,4,,,,,,,,,3,,,56,75
15166,note_on,46,0,3,,,,,,,,,0,,,68,0
15166,note_on,46,0,2,,,,,,,,,6,,,56,0
15166,note_on,46,0,4,,,,,,,,,3,,,56,0
15168,note_on,2,0,3,,,,,,,,,0,,,66,75
15168,note_on,2,0,4,,,,,,,,,3,,,54,75
15168,note_on,2,0,2,,,,,,,,,6,,,54,110
15262,note_on,94,0,3,,,,,,,,,0,,,66,0
15262,note_on,94,0,2,,,,,,,,,6,,,54,0
15262,note_on,94,0,4,,,,,,,,,3,,,54,0
15264,note_on,2,0,3,,,,,,,,,0,,,61,75
15264,note_on,2,0,4,,,,,,,,,3,,,49,75
15264,note_on,2,0,2,,,,,,,,,6,,,49,110
15358,note_on,94,0,2,,,,,,,,,6,,,49,0
15358,note_on,94,0,3,,,,,,,,,0,,,61,0
15358,note_on,94,0,4,,,,,,,,,3,,,49,0
15360,note_on,2,0,2,,,,,,,,,6,,,54,110
15360,note_on,2,0,4,,,,,,,,,3,,,54,75
15360,note_on,2,0,3,,,,,,,,,0,,,66,75
15454,note_on,94,0,2,,,,,,,,,6,,,54,0
15454,note_on,94,0,4,,,,,,,,,3,,,54,0
15454,note_on,94,0,3,,,,,,,,,0,,,66,0
15456,note_on,2,0,2,,,,,,,,,6,,,49,110
15456,note_on,2,0,4,,,,,,,,,3,,,49,75
15456,note_on,2,0,3,,,,,,,,,0,,,61,75
15550,note_on,94,0,2,,,,,,,,,6,,,49,0
15550,note_on,94,0,3,,,,,,,,,0,,,61,0
15550,note_on,94,0,4,,,,,,,,,3,,,49,0
15552,note_on,2,0,4,,,,,,,,,3,,,54,75
15552,note_on,2,0,3,,,,,,,,,0,,,66,75
15552,note_on,2,0,2,,,,,,,,,6,,,54,110
15598,note_on,46,0,2,,,,,,,,,6,,,54,0
15598,note_on,46,0,3,,,,,,,,,0,,,66,0
15598,note_on,46,0,4,,,,,,,,,3,,,54,0
15600,note_on,2,0,4,,,,,,,,,3,,,56,75
15600,note_on,2,0,3,,,,,,,,,0,,,68,75
15600,note_on,2,0,2,,,,,,,,,6,,,56,110
15646,note_on,46,0,4,,,,,,,,,3,,,56,0
15646,note_on,46,0,3,,,,,,,,,0,,,68,0
15646,note_on,46,0,2,,,,,,,,,6,,,56,0
15648,note_on,2,0,3,,,,,,,,,0,,,69,75
15648,note_on,2,0,2,,,,,,,,,6,,,57,110
15648,note_on,2,0,4,,,,,,,,,3,,,57,75
15694,note_on,46,0,2,,,,,,,,,6,,,57,0
15694,note_on,46,0,4,,,,,,,,,3,,,57,0
15694,note_on,46,0,3,,,,,,,,,0,,,69,0
15696,note_on,2,0,2,,,,,,,,,6,,,59,110
15696,note_on,2,0,3,,,,,,,,,0,,,71,75
15696,note_on,2,0,4,,,,,,,,,3,,,59,75
15742,note_on,46,0,2,,,,,,,,,6,,,59,0
15742,note_on,46,0,3,,,,,,,,,0,,,71,0
15742,note_on,46,0,4,,,,,,,,,3,,,59,0
15744,note_on,2,0,2,,,,,,,,,6,,,61,110
15744,note_on,2,0,4,,,,,,,,,3,,,61,75
15744,note_on,2,0,3,,,,,,,,,0,,,73,75
15838,note_on,94,0,4,,,,,,,,,3,,,61,0
15838,note_on,94,0,2,,,,,,,,,6,,,61,0
15838,note_on,94,0,3,,,,,,,,,0,,,73,0
15840,note_on,2,0,4,,,,,,,,,3,,,54,75
15840,note_on,2,0,2,,,,,,,,,6,,,54,110
15840,note_on,2,0,3,,,,,,,,,0,,,66,75
15934,note_on,94,0,2,,,,,,,,,6,,,54,0
15934,note_on,94,0,4,,,,,,,,,3,,,54,0
15934,note_on,94,0,3,,,,,,,,,0,,,66,0
15936,note_on,2,0,4,,,,,,,,,3,,,61,75
15936,note_on,2,0,2,,,,,,,,,6,,,61,110
15936,note_on,2,0,3,,,,,,,,,0,,,73,75
16030,note_on,94,0,3,,,,,,,,,0,,,73,0
16030,note_on,94,0,2,,,,,,,,,6,,,61,0
16030,note_on,94,0,4,,,,,,,,,3,,,61,0
16032,note_on,2,0,4,,,,,,,,,3,,,49,75
16032,note_on,2,0,3,,,,,,,,,0,,,61,75
16032,note_on,2,0,2,,,,,,,,,6,,,49,110
16126,note_on,94,0,3,,,,,,,,,0,,,61,0
16126,note_on,94,0,4,,,,,,,,,3,,,49,0
16126,note_on,94,0,2,,,,,,,,,6,,,49,0
16128,note_on,2,0,3,,,,,,,,,0,,,66,75
16128,note_on,2,0,2,,,,,,,,,6,,,69,110
16128,note_on,1568,0,1,,,,,,,,,5,,,85,110
16128,note_on,2,0,4,,,,,,,,,3,,,54,75
16270,note_on,142,0,2,,,,,,,,,6,,,69,0
16270,note_on,142,0,1,,,,,,,,,5,,,85,0
16272,note_on,2,0,2,,,,,,,,,6,,,68,110
16272,note_on,2,0,1,,,,,,,,,5,,,83,110
16288,note_on,160,0,3,,,,,,,,,0,,,66,0
16288,note_on,160,0,4,,,,,,,,,3,,,54,0
16318,note_on,46,0,1,,,,,,,,,5,,,83,0
16318,note_on,46,0,2,,,,,,,,,6,,,68,0
16320,note_on,2,0,1,,,,,,,,,5,,,81,110
16320,note_on,2,0,2,,,,,,,,,6,,,66,110
16462,note_on,142,0,2,,,,,,,,,6,,,66,0
16462,note_on,142,0,1,,,,,,,,,5,,,81,0
16464,note_on,2,0,1,,,,,,,,,5,,,80,110
16464,note_on,2,0,2,,,,,,,,,6,,,64,110
16510,note_on,46,0,1,,,,,,,,,5,,,80,0
16510,note_on,46,0,2,,,,,,,,,6,,,64,0
16512,note_on,2,0,1,,,,,,,,,5,,,78,110
16512,note_on,2,0,2,,,,,,,,,6,,,62,110
16654,note_on,142,0,1,,,,,,,,,5,,,78,0
16654,note_on,142,0,2,,,,,,,,,6,,,62,0
16656,note_on,2,0,1,,,,,,,,,5,,,76,110
16656,note_on,2,0,2,,,,,,,,,6,,,61,110
16666,note_on,10,0,2,,,,,,,,,6,,,61,0
16666,note_on,10,0,1,,,,,,,,,5,,,76,0
16668,note_on,2,0,1,,,,,,,,,5,,,78,110
16668,note_on,2,0,2,,,,,,,,,6,,,62,110
16678,note_on,10,0,2,,,,,,,,,6,,,62,0
16678,note_on,10,0,1,,,,,,,,,5,,,78,0
16680,note_on,2,0,1,,,,,,,,,5,,,76,110
16680,note_on,2,0,2,,,,,,,,,6,,,61,110
16702,note_on,22,0,2,,,,,,,,,6,,,61,0
16702,note_on,22,0,1,,,,,,,,,5,,,76,0
16704,note_on,2,0,1,,,,,,,,,5,,,76,110
16704,note_on,2,0,2,,,,,,,,,6,,,59,110
16750,note_on,46,0,1,,,,,,,,,5,,,76,0
16750,note_on,46,0,2,,,,,,,,,6,,,59,0
16752,note_on,2,0,1,,,,,,,,,5,,,74,110
16752,note_on,2,0,2,,,,,,,,,6,,,59,110
16798,note_on,46,0,2,,,,,,,,,6,,,59,0
16798,note_on,46,0,1,,,,,,,,,5,,,74,0
16800,note_on,2,0,1,,,,,,,,,5,,,73,110
16800,note_on,2,0,2,,,,,,,,,6,,,57,110
16846,note_on,46,0,1,,,,,,,,,5,,,73,0
16846,note_on,46,0,2,,,,,,,,,6,,,57,0
16848,note_on,2,0,1,,,,,,,,,5,,,74,110
16848,note_on,2,0,2,,,,,,,,,6,,,59,110
16894,note_on,46,0,1,,,,,,,,,5,,,74,0
16894,note_on,46,0,2,,,,,,,,,6,,,59,0
16896,note_on,2,0,2,,,,,,,,,6,,,59,110
16896,note_on,2,0,1,,,,,,,,,5,,,76,110
16906,note_on,10,0,1,,,,,,,,,5,,,76,0
16908,note_on,2,0,1,,,,,,,,,5,,,74,110
16918,note_on,10,0,1,,,,,,,,,5,,,74,0
16920,note_on,2,0,1,,,,,,,,,5,,,76,110
16930,note_on,10,0,1,,,,,,,,,5,,,76,0
16932,note_on,2,0,1,,,,,,,,,5,,,74,110
16942,note_on,10,0,1,,,,,,,,,5,,,74,0
16944,note_on,2,0,1,,,,,,,,,5,,,76,110
16954,note_on,10,0,1,,,,,,,,,5,,,76,0
16956,note_on,2,0,1,,,,,,,,,5,,,74,110
16990,note_on,94,0,2,,,,,,,,,6,,,59,0
16992,note_on,704,0,4,,,,,,,,,3,,,59,75
16992,note_on,2,0,2,,,,,,,,,6,,,59,110
16992,note_on,704,0,3,,,,,,,,,0,,,71,75
17086,note_on,94,0,4,,,,,,,,,3,,,59,0
17086,note_on,94,0,3,,,,,,,,,0,,,71,0
17086,note_on,94,0,2,,,,,,,,,6,,,59,0
17086,note_on,130,0,1,,,,,,,,,5,,,74,0
17088,note_on,2,0,4,,,,,,,,,3,,,52,75
17088,note_on,2,0,3,,,,,,,,,0,,,64,75
17088,note_on,2,0,2,,,,,,,,,6,,,52,110
17182,note_on,94,0,2,,,,,,,,,6,,,52,0
17184,note_on,2,0,2,,,,,,,,,6,,,64,110
17184,note_on,98,0,1,,,,,,,,,5,,,83,110
17248,note_on,160,0,3,,,,,,,,,0,,,64,0
17248,note_on,160,0,4,,,,,,,,,3,,,52,0
17278,note_on,94,0,2,,,,,,,,,6,,,64,0
17278,note_on,94,0,1,,,,,,,,,5,,,83,0
17280,note_on,2,0,1,,,,,,,,,5,,,80,110
17280,note_on,2,0,2,,,,,,,,,6,,,64,110
17422,note_on,142,0,1,,,,,,,,,5,,,80,0
17422,note_on,142,0,2,,,,,,,,,6,,,64,0
17424,note_on,2,0,1,,,,,,,,,5,,,78,110
17424,note_on,2,0,2,,,,,,,,,6,,,62,110
17470,note_on,46,0,2,,,,,,,,,6,,,62,0
17470,note_on,46,0,1,,,,,,,,,5,,,78,0
17472,note_on,2,0,1,,,,,,,,,5,,,76,110
17472,note_on,2,0,2,,,,,,,,,6,,,61,110
17614,note_on,142,0,1,,,,,,,,,5,,,76,0
17614,note_on,142,0,2,,,,,,,,,6,,,61,0
17616,note_on,2,0,1,,,,,,,,,5,,,74,110
17616,note_on,2,0,2,,,,,,,,,6,,,59,110
17662,note_on,46,0,1,,,,,,,,,5,,,74,0
17662,note_on,46,0,2,,,,,,,,,6,,,59,0
17664,note_on,2,0,1,,,,,,,,,5,,,73,110
17664,note_on,2,0,2,,,,,,,,,6,,,57,110
17806,note_on,142,0,2,,,,,,,,,6,,,57,0
17806,note_on,142,0,1,,,,,,,,,5,,,73,0
17808,note_on,2,0,2,,,,,,,,,6,,,56,110
17808,note_on,2,0,1,,,,,,,,,5,,,71,110
17854,note_on,46,0,2,,,,,,,,,6,,,56,0
17854,note_on,46,0,1,,,,,,,,,5,,,71,0
17856,note_on,2,0,2,,,,,,,,,6,,,57,110
17856,note_on,2,0,1,,,,,,,,,5,,,73,110
17902,note_on,46,0,1,,,,,,,,,5,,,73,0
17902,note_on,46,0,2,,,,,,,,,6,,,57,0
17904,note_on,2,0,2,,,,,,,,,6,,,59,110
17904,note_on,2,0,1,,,,,,,,,5,,,74,110
17950,note_on,46,0,1,,,,,,,,,5,,,74,0
17950,note_on,46,0,2,,,,,,,,,6,,,59,0
17952,note_on,2,0,1,,,,,,,,,5,,,73,110
17952,note_on,2,0,2,,,,,,,,,6,,,57,110
17998,note_on,46,0,1,,,,,,,,,5,,,73,0
17998,note_on,46,0,2,,,,,,,,,6,,,57,0
18000,note_on,2,0,1,,,,,,,,,5,,,71,110
18000,note_on,2,0,2,,,,,,,,,6,,,56,110
18046,note_on,46,0,2,,,,,,,,,6,,,56,0
18046,note_on,46,0,1,,,,,,,,,5,,,71,0
18048,note_on,2,0,1,,,,,,,,,5,,,73,110
18048,note_on,2,0,2,,,,,,,,,6,,,57,110
18142,note_on,94,0,2,,,,,,,,,6,,,57,0
18144,note_on,896,0,3,,,,,,,,,0,,,69,75
18144,note_on,896,0,4,,,,,,,,,3,,,57,75
18144,note_on,2,0,2,,,,,,,,,6,,,57,110
18208,note_on,160,0,1,,,,,,,,,5,,,73,0
18238,note_on,94,0,4,,,,,,,,,3,,,57,0
18238,note_on,94,0,3,,,,,,,,,0,,,69,0
18238,note_on,94,0,2,,,,,,,,,6,,,57,0
18240,note_on,2,0,3,,,,,,,,,0,,,57,75
18240,note_on,2,0,2,,,,,,,,,6,,,45,110
18240,note_on,2,0,4,,,,,,,,,3,,,45,75
18334,note_on,94,0,2,,,,,,,,,6,,,45,0
18336,note_on,2,0,2,,,,,,,,,6,,,61,110
18336,note_on,128,0,1,,,,,,,,,5,,,76,110
18400,note_on,160,0,4,,,,,,,,,3,,,45,0
18400,note_on,160,0,3,,,,,,,,,0,,,57,0
18430,note_on,94,0,1,,,,,,,,,5,,,76,0
18430,note_on,94,0,2,,,,,,,,,6,,,61,0
18432,note_on,2,0,1,,,,,,,,,5,,,76,110
18432,note_on,2,0,2,,,,,,,,,6,,,61,110
18478,note_on,46,0,1,,,,,,,,,5,,,76,0
18478,note_on,46,0,2,,,,,,,,,6,,,61,0
18480,note_on,2,0,1,,,,,,,,,5,,,78,110
18480,note_on,2,0,2,,,,,,,,,6,,,62,110
18526,note_on,46,0,1,,,,,,,,,5,,,78,0
18526,note_on,46,0,2,,,,,,,,,6,,,62,0
18528,note_on,2,0,1,,,,,,,,,5,,,76,110
18528,note_on,2,0,2,,,,,,,,,6,,,61,110
18574,note_on,46,0,2,,,,,,,,,6,,,61,0
18574,note_on,46,0,1,,,,,,,,,5,,,76,0
18576,note_on,2,0,2,,,,,,,,,6,,,59,110
18576,note_on,2,0,1,,,,,,,,,5,,,74,110
18622,note_on,46,0,2,,,,,,,,,6,,,59,0
18622,note_on,46,0,1,,,,,,,,,5,,,74,0
18624,note_on,2,0,2,,,,,,,,,6,,,61,110
18624,note_on,2,0,1,,,,,,,,,5,,,76,110
18718,note_on,94,0,2,,,,,,,,,6,,,61,0
18720,note_on,320,0,4,,,,,,,,,3,,,57,75
18720,note_on,2,0,2,,,,,,,,,6,,,57,110
18720,note_on,320,0,3,,,,,,,,,0,,,69,75
18784,note_on,160,0,1,,,,,,,,,5,,,76,0
18814,note_on,94,0,3,,,,,,,,,0,,,69,0
18814,note_on,94,0,2,,,,,,,,,6,,,57,0
18814,note_on,94,0,4,,,,,,,,,3,,,57,0
18816,note_on,2,0,2,,,,,,,,,6,,,45,110
18816,note_on,2,0,4,,,,,,,,,3,,,45,75
18816,note_on,2,0,3,,,,,,,,,0,,,57,75
18910,note_on,94,0,2,,,,,,,,,6,,,45,0
18912,note_on,2,0,2,,,,,,,,,6,,,62,110
18912,note_on,128,0,1,,,,,,,,,5,,,78,110
18976,note_on,160,0,4,,,,,,,,,3,,,45,0
18976,note_on,160,0,3,,,,,,,,,0,,,57,0
19006,note_on,94,0,1,,,,,,,,,5,,,78,0
19006,note_on,94,0,2,,,,,,,,,6,,,62,0
19008,note_on,2,0,2,,,,,,,,,6,,,59,110
19008,note_on,2,0,1,,,,,,,,,5,,,74,110
19054,note_on,46,0,2,,,,,,,,,6,,,59,0
19054,note_on,46,0,1,,,,,,,,,5,,,74,0
19056,note_on,2,0,2,,,,,,,,,6,,,61,110
19056,note_on,2,0,1,,,,,,,,,5,,,76,110
19102,note_on,46,0,1,,,,,,,,,5,,,76,0
19102,note_on,46,0,2,,,,,,,,,6,,,61,0
19104,note_on,2,0,1,,,,,,,,,5,,,74,110
19104,note_on,2,0,2,,,,,,,,,6,,,59,110
19150,note_on,46,0,1,,,,,,,,,5,,,74,0
19150,note_on,46,0,2,,,,,,,,,6,,,59,0
19152,note_on,2,0,2,,,,,,,,,6,,,57,110
19152,note_on,2,0,1,,,,,,,,,5,,,73,110
19198,note_on,46,0,1,,,,,,,,,5,,,73,0
19198,note_on,46,0,2,,,,,,,,,6,,,57,0
19200,note_on,2,0,2,,,,,,,,,6,,,59,110
19200,note_on,2,0,1,,,,,,,,,5,,,74,110
19294,note_on,94,0,2,,,,,,,,,6,,,59,0
19296,note_on,320,0,3,,,,,,,,,0,,,71,75
19296,note_on,2,0,2,,,,,,,,,6,,,59,110
19296,note_on,320,0,4,,,,,,,,,3,,,59,75
19360,note_on,160,0,1,,,,,,,,,5,,,74,0
19390,note_on,94,0,3,,,,,,,,,0,,,71,0
19390,note_on,94,0,2,,,,,,,,,6,,,59,0
19390,note_on,94,0,4,,,,,,,,,3,,,59,0
19392,note_on,2,0,3,,,,,,,,,0,,,64,75
19392,note_on,2,0,4,,,,,,,,,3,,,52,75
19392,note_on,2,0,2,,,,,,,,,6,,,52,110
19486,note_on,94,0,2,,,,,,,,,6,,,52,0
19488,note_on,128,0,1,,,,,,,,,5,,,76,110
19488,note_on,2,0,2,,,,,,,,,6,,,61,110
19552,note_on,160,0,4,,,,,,,,,3,,,52,0
19552,note_on,160,0,3,,,,,,,,,0,,,64,0
19582,note_on,94,0,1,,,,,,,,,5,,,76,0
19582,note_on,94,0,2,,,,,,,,,6,,,61,0
19584,note_on,2,0,2,,,,,,,,,6,,,57,110
19584,note_on,2,0,1,,,,,,,,,5,,,73,110
19630,note_on,46,0,2,,,,,,,,,6,,,57,0
19630,note_on,46,0,1,,,,,,,,,5,,,73,0
19632,note_on,2,0,2,,,,,,,,,6,,,59,110
19632,note_on,2,0,1,,,,,,,,,5,,,74,110
19678,note_on,46,0,2,,,,,,,,,6,,,59,0
19678,note_on,46,0,1,,,,,,,,,5,,,74,0
19680,note_on,2,0,2,,,,,,,,,6,,,57,110
19680,note_on,2,0,1,,,,,,,,,5,,,73,110
19726,note_on,46,0,2,,,,,,,,,6,,,57,0
19726,note_on,46,0,1,,,,,,,,,5,,,73,0
19728,note_on,2,0,2,,,,,,,,,6,,,56,110
19728,note_on,2,0,1,,,,,,,,,5,,,71,110
19774,note_on,46,0,2,,,,,,,,,6,,,56,0
19774,note_on,46,0,1,,,,,,,,,5,,,71,0
19776,note_on,2,0,1,,,,,,,,,5,,,73,110
19776,note_on,2,0,2,,,,,,,,,6,,,57,110
19870,note_on,94,0,2,,,,,,,,,6,,,57,0
19872,note_on,320,0,4,,,,,,,,,3,,,57,75
19872,note_on,320,0,3,,,,,,,,,0,,,69,75
19872,note_on,2,0,2,,,,,,,,,6,,,57,110
19936,note_on,160,0,1,,,,,,,,,5,,,73,0
19966,note_on,94,0,2,,,,,,,,,6,,,57,0
19966,note_on,94,0,3,,,,,,,,,0,,,69,0
19966,note_on,94,0,4,,,,,,,,,3,,,57,0
19968,note_on,2,0,2,,,,,,,,,6,,,45,110
19968,note_on,2,0,3,,,,,,,,,0,,,57,75
19968,note_on,32,0,1,,,,,,,,,5,,,73,110
19968,note_on,2,0,4,,,,,,,,,3,,,45,75
20062,note_on,94,0,2,,,,,,,,,6,,,45,0
20064,note_on,2,0,2,,,,,,,,,6,,,57,110
20128,note_on,160,0,3,,,,,,,,,0,,,57,0
20128,note_on,160,0,1,,,,,,,,,5,,,73,0
20128,note_on,160,0,4,,,,,,,,,3,,,45,0
20158,note_on,94,0,2,,,,,,,,,6,,,57,0
20160,note_on,32,0,1,,,,,,,,,5,,,73,110
20160,note_on,2,0,2,,,,,,,,,6,,,57,110
20320,note_on,160,0,2,,,,,,,,,6,,,57,0
20320,note_on,160,0,1,,,,,,,,,5,,,73,0
20352,note_on,32,0,2,,,,,,,,,6,,,56,110
20352,note_on,32,0,1,,,,,,,,,5,,,71,110
20446,note_on,94,0,2,,,,,,,,,6,,,56,0
20448,note_on,320,0,3,,,,,,,,,0,,,64,75
20448,note_on,2,0,2,,,,,,,,,6,,,52,110
20448,note_on,320,0,4,,,,,,,,,3,,,52,75
20512,note_on,160,0,1,,,,,,,,,5,,,71,0
20542,note_on,94,0,2,,,,,,,,,6,,,52,0
20542,note_on,94,0,4,,,,,,,,,3,,,52,0
20542,note_on,94,0,3,,,,,,,,,0,,,64,0
20544,note_on,2,0,3,,,,,,,,,0,,,68,75
20544,note_on,2,0,4,,,,,,,,,3,,,56,75
20544,note_on,2,0,2,,,,,,,,,6,,,56,110
20638,note_on,94,0,3,,,,,,,,,0,,,68,0
20638,note_on,94,0,4,,,,,,,,,3,,,56,0
20638,note_on,94,0,2,,,,,,,,,6,,,56,0
20640,note_on,2,0,3,,,,,,,,,0,,,64,75
20640,note_on,2,0,2,,,,,,,,,6,,,52,110
20640,note_on,2,0,4,,,,,,,,,3,,,52,75
20734,note_on,94,0,4,,,,,,,,,3,,,52,0
20734,note_on,94,0,3,,,,,,,,,0,,,64,0
20734,note_on,94,0,2,,,,,,,,,6,,,52,0
20736,note_on,2,0,3,,,,,,,,,0,,,57,75
20736,note_on,224,0,1,,,,,,,,,5,,,76,110
20736,note_on,2,0,4,,,,,,,,,3,,,45,75
20736,note_on,2,0,2,,,,,,,,,6,,,61,110
20782,note_on,46,0,1,,,,,,,,,5,,,76,0
20782,note_on,46,0,2,,,,,,,,,6,,,61,0
20784,note_on,2,0,1,,,,,,,,,5,,,78,110
20784,note_on,2,0,2,,,,,,,,,6,,,62,110
20830,note_on,46,0,1,,,,,,,,,5,,,78,0
20830,note_on,46,0,2,,,,,,,,,6,,,62,0
20832,note_on,2,0,1,,,,,,,,,5,,,76,110
20832,note_on,2,0,2,,,,,,,,,6,,,61,110
20878,note_on,46,0,1,,,,,,,,,5,,,76,0
20878,note_on,46,0,2,,,,,,,,,6,,,61,0
20880,note_on,2,0,1,,,,,,,,,5,,,74,110
20880,note_on,2,0,2,,,,,,,,,6,,,59,110
20896,note_on,160,0,3,,,,,,,,,0,,,57,0
20896,note_on,160,0,4,,,,,,,,,3,,,45,0
20926,note_on,46,0,1,,,,,,,,,5,,,74,0
20926,note_on,46,0,2,,,,,,,,,6,,,59,0
20928,note_on,2,0,2,,,,,,,,,6,,,61,110
20928,note_on,2,0,1,,,,,,,,,5,,,76,110
21024,note_on,128,0,4,,,,,,,,,3,,,57,75
21024,note_on,128,0,3,,,,,,,,,0,,,69,75
21070,note_on,142,0,1,,,,,,,,,5,,,76,0
21070,note_on,142,0,2,,,,,,,,,6,,,61,0
21072,note_on,2,0,1,,,,,,,,,5,,,78,110
21072,note_on,2,0,2,,,,,,,,,6,,,62,110
21118,note_on,46,0,2,,,,,,,,,6,,,62,0
21118,note_on,94,0,4,,,,,,,,,3,,,57,0
21118,note_on,94,0,3,,,,,,,,,0,,,69,0
21118,note_on,46,0,1,,,,,,,,,5,,,78,0
21120,note_on,2,0,4,,,,,,,,,3,,,45,75
21120,note_on,2,0,3,,,,,,,,,0,,,57,75
21120,note_on,2,0,2,,,,,,,,,6,,,61,110
21120,note_on,2,0,1,,,,,,,,,5,,,76,110
21262,note_on,142,0,2,,,,,,,,,6,,,61,0
21262,note_on,142,0,1,,,,,,,,,5,,,76,0
21264,note_on,2,0,2,,,,,,,,,6,,,62,110
21264,note_on,2,0,1,,,,,,,,,5,,,78,110
21280,note_on,160,0,3,,,,,,,,,0,,,57,0
21280,note_on,160,0,4,,,,,,,,,3,,,45,0
21310,note_on,46,0,1,,,,,,,,,5,,,78,0
21310,note_on,46,0,2,,,,,,,,,6,,,62,0
21312,note_on,2,0,1,,,,,,,,,5,,,76,110
21312,note_on,2,0,2,,,,,,,,,6,,,61,110
21358,note_on,46,0,1,,,,,,,,,5,,,76,0
21358,note_on,46,0,2,,,,,,,,,6,,,61,0
21360,note_on,2,0,1,,,,,,,,,5,,,78,110
21360,note_on,2,0,2,,,,,,,,,6,,,62,110
21406,note_on,46,0,1,,,,,,,,,5,,,78,0
21406,note_on,46,0,2,,,,,,,,,6,,,62,0
21408,note_on,2,0,2,,,,,,,,,6,,,61,110
21408,note_on,2,0,1,,,,,,,,,5,,,76,110
21454,note_on,46,0,2,,,,,,,,,6,,,61,0
21454,note_on,46,0,1,,,,,,,,,5,,,76,0
21456,note_on,2,0,1,,,,,,,,,5,,,74,110
21456,note_on,2,0,2,,,,,,,,,6,,,59,110
21502,note_on,46,0,1,,,,,,,,,5,,,74,0
21502,note_on,46,0,2,,,,,,,,,6,,,59,0
21504,note_on,2,0,1,,,,,,,,,5,,,76,110
21504,note_on,2,0,2,,,,,,,,,6,,,61,110
21600,note_on,320,0,4,,,,,,,,,3,,,57,75
21600,note_on,320,0,3,,,,,,,,,0,,,69,75
21646,note_on,142,0,1,,,,,,,,,5,,,76,0
21646,note_on,142,0,2,,,,,,,,,6,,,61,0
21648,note_on,2,0,2,,,,,,,,,6,,,62,110
21648,note_on,2,0,1,,,,,,,,,5,,,78,110
21694,note_on,94,0,4,,,,,,,,,3,,,57,0
21694,note_on,94,0,3,,,,,,,,,0,,,69,0
21694,note_on,46,0,2,,,,,,,,,6,,,62,0
21694,note_on,46,0,1,,,,,,,,,5,,,78,0
21696,note_on,2,0,2,,,,,,,,,6,,,61,110
21696,note_on,2,0,3,,,,,,,,,0,,,57,75
21696,note_on,2,0,1,,,,,,,,,5,,,76,110
21696,note_on,2,0,4,,,,,,,,,3,,,45,75
21838,note_on,142,0,2,,,,,,,,,6,,,61,0
21838,note_on,142,0,1,,,,,,,,,5,,,76,0
21840,note_on,2,0,2,,,,,,,,,6,,,62,110
21840,note_on,2,0,1,,,,,,,,,5,,,78,110
21856,note_on,160,0,3,,,,,,,,,0,,,57,0
21856,note_on,160,0,4,,,,,,,,,3,,,45,0
21886,note_on,46,0,2,,,,,,,,,6,,,62,0
21886,note_on,46,0,1,,,,,,,,,5,,,78,0
21888,note_on,2,0,2,,,,,,,,,6,,,61,110
21888,note_on,2,0,1,,,,,,,,,5,,,78,110
21898,note_on,10,0,1,,,,,,,,,5,,,78,0
21900,note_on,2,0,1,,,,,,,,,5,,,76,110
21910,note_on,10,0,1,,,,,,,,,5,,,76,0
21912,note_on,2,0,1,,,,,,,,,5,,,78,110
21922,note_on,10,0,1,,,,,,,,,5,,,78,0
21924,note_on,2,0,1,,,,,,,,,5,,,76,110
21934,note_on,10,0,1,,,,,,,,,5,,,76,0
21936,note_on,2,0,1,,,,,,,,,5,,,78,110
21946,note_on,10,0,1,,,,,,,,,5,,,78,0
21948,note_on,2,0,1,,,,,,,,,5,,,76,110
21958,note_on,10,0,1,,,,,,,,,5,,,76,0
21960,note_on,2,0,1,,,,,,,,,5,,,78,110
21970,note_on,10,0,1,,,,,,,,,5,,,78,0
21972,note_on,2,0,1,,,,,,,,,5,,,76,110
21982,note_on,10,0,1,,,,,,,,,5,,,76,0
21984,note_on,2,0,1,,,,,,,,,5,,,76,110
22144,note_on,160,0,1,,,,,,,,,5,,,76,0
22144,note_on,256,0,2,,,,,,,,,6,,,61,0
22176,note_on,32,0,1,,,,,,,,,5,,,78,110
22176,note_on,320,0,3,,,,,,,,,0,,,69,75
22176,note_on,320,0,4,,,,,,,,,3,,,57,75
22176,note_on,32,0,2,,,,,,,,,6,,,62,110
22222,note_on,46,0,2,,,,,,,,,6,,,62,0
22222,note_on,46,0,1,,,,,,,,,5,,,78,0
22224,note_on,2,0,2,,,,,,,,,6,,,64,110
22224,note_on,2,0,1,,,,,,,,,5,,,80,110
22270,note_on,94,0,4,,,,,,,,,3,,,57,0
22270,note_on,94,0,3,,,,,,,,,0,,,69,0
22270,note_on,46,0,2,,,,,,,,,6,,,64,0
22270,note_on,46,0,1,,,,,,,,,5,,,80,0
22272,note_on,2,0,2,,,,,,,,,6,,,66,110
22272,note_on,2,0,1,,,,,,,,,5,,,81,110
22272,note_on,2,0,4,,,,,,,,,3,,,50,75
22272,note_on,2,0,3,,,,,,,,,0,,,62,75
22366,note_on,94,0,4,,,,,,,,,3,,,50,0
22366,note_on,94,0,3,,,,,,,,,0,,,62,0
22366,note_on,94,0,2,,,,,,,,,6,,,66,0
22366,note_on,94,0,1,,,,,,,,,5,,,81,0
22368,note_on,2,0,3,,,,,,,,,0,,,68,75
22368,note_on,2,0,4,,,,,,,,,3,,,56,75
22368,note_on,2,0,2,,,,,,,,,6,,,64,110
22368,note_on,2,0,1,,,,,,,,,5,,,80,110
22414,note_on,46,0,2,,,,,,,,,6,,,64,0
22414,note_on,46,0,1,,,,,,,,,5,,,80,0
22416,note_on,2,0,1,,,,,,,,,5,,,78,110
22416,note_on,2,0,2,,,,,,,,,6,,,62,110
22462,note_on,46,0,1,,,,,,,,,5,,,78,0
22462,note_on,94,0,3,,,,,,,,,0,,,68,0
22462,note_on,94,0,4,,,,,,,,,3,,,56,0
22462,note_on,46,0,2,,,,,,,,,6,,,62,0
22464,note_on,2,0,1,,,,,,,,,5,,,76,110
22464,note_on,2,0,3,,,,,,,,,0,,,69,75
22464,note_on,2,0,4,,,,,,,,,3,,,57,75
22464,note_on,2,0,2,,,,,,,,,6,,,61,110
22558,note_on,94,0,3,,,,,,,,,0,,,69,0
22558,note_on,94,0,2,,,,,,,,,6,,,61,0
22558,note_on,94,0,1,,,,,,,,,5,,,76,0
22558,note_on,94,0,4,,,,,,,,,3,,,57,0
22560,note_on,2,0,4,,,,,,,,,3,,,50,75
22560,note_on,2,0,2,,,,,,,,,6,,,59,110
22560,note_on,2,0,1,,,,,,,,,5,,,74,110
22560,note_on,2,0,3,,,,,,,,,0,,,62,75
22606,note_on,46,0,2,,,,,,,,,6,,,59,0
22606,note_on,46,0,1,,,,,,,,,5,,,74,0
22608,note_on,2,0,2,,,,,,,,,6,,,57,110
22608,note_on,2,0,1,,,,,,,,,5,,,73,110
22654,note_on,94,0,4,,,,,,,,,3,,,50,0
22654,note_on,46,0,2,,,,,,,,,6,,,57,0
22654,note_on,46,0,1,,,,,,,,,5,,,73,0
22654,note_on,94,0,3,,,,,,,,,0,,,62,0
22656,note_on,2,0,3,,,,,,,,,0,,,64,75
22656,note_on,2,0,4,,,,,,,,,3,,,52,75
22656,note_on,2,0,1,,,,,,,,,5,,,71,110
22656,note_on,2,0,2,,,,,,,,,6,,,56,110
22816,note_on,160,0,3,,,,,,,,,0,,,64,0
22816,note_on,160,0,4,,,,,,,,,3,,,52,0
22848,note_on,32,0,3,,,,,,,,,0,,,64,75
22848,note_on,32,0,4,,,,,,,,,3,,,40,75
22912,note_on,256,0,2,,,,,,,,,6,,,56,0
22912,note_on,256,0,1,,,,,,,,,5,,,71,0
22944,note_on,32,0,2,,,,,,,,,6,,,57,110
22944,note_on,32,0,1,,,,,,,,,5,,,69,110
23008,note_on,160,0,4,,,,,,,,,3,,,40,0
23008,note_on,160,0,3,,,,,,,,,0,,,64,0
23038,note_on,94,0,1,,,,,,,,,5,,,69,0
23038,note_on,94,0,2,,,,,,,,,6,,,57,0
23040,note_on,32,0,3,,,,,,,,,0,,,57,75
23040,note_on,32,0,4,,,,,,,,,3,,,45,75
23040,note_on,2,0,2,,,,,,,,,6,,,57,110
23040,note_on,2,0,1,,,,,,,,,5,,,69,110
23134,note_on,94,0,3,,,,,,,,,0,,,57,0
23134,note_on,94,0,4,,,,,,,,,3,,,45,0
23134,note_on,94,0,2,,,,,,,,,6,,,57,0
23136,note_on,2,0,4,,,,,,,,,3,,,57,75
23136,note_on,2,0,3,,,,,,,,,0,,,69,75
23136,note_on,2,0,2,,,,,,,,,6,,,57,110
23200,note_on,160,0,1,,,,,,,,,5,,,69,0
23230,note_on,94,0,2,,,,,,,,,6,,,57,0
23230,note_on,94,0,4,,,,,,,,,3,,,57,0
23230,note_on,94,0,3,,,,,,,,,0,,,69,0
23232,note_on,2,0,4,,,,,,,,,3,,,61,75
23232,note_on,2,0,3,,,,,,,,,0,,,73,75
23232,note_on,2,0,2,,,,,,,,,6,,,61,110
23326,note_on,94,0,4,,,,,,,,,3,,,61,0
23326,note_on,94,0,3,,,,,,,,,0,,,73,0
23326,note_on,94,0,2,,,,,,,,,6,,,61,0
23328,note_on,2,0,3,,,,,,,,,0,,,69,75
23328,note_on,2,0,4,,,,,,,,,3,,,57,75
23328,note_on,2,0,2,,,,,,,,,6,,,57,110
23422,note_on,94,0,4,,,,,,,,,3,,,57,0
23422,note_on,94,0,3,,,,,,,,,0,,,69,0
23422,note_on,94,0,2,,,,,,,,,6,,,57,0
23424,note_on,2,0,3,,,,,,,,,0,,,73,75
23424,note_on,2,0,4,,,,,,,,,3,,,61,75
23424,note_on,2,0,2,,,,,,,,,6,,,61,110
23518,note_on,94,0,4,,,,,,,,,3,,,61,0
23518,note_on,94,0,3,,,,,,,,,0,,,73,0
23518,note_on,94,0,2,,,,,,,,,6,,,61,0
23520,note_on,2,0,4,,,,,,,,,3,,,57,75
23520,note_on,2,0,2,,,,,,,,,6,,,57,110
23520,note_on,2,0,3,,,,,,,,,0,,,69,75
23614,note_on,94,0,2,,,,,,,,,6,,,57,0
23614,note_on,94,0,4,,,,,,,,,3,,,57,0
23614,note_on,94,0,3,,,,,,,,,0,,,69,0
23616,note_on,2,0,4,,,,,,,,,3,,,45,75
23616,note_on,2,0,2,,,,,,,,,6,,,61,110
23616,note_on,416,0,1,,,,,,,,,5,,,76,110
23616,note_on,2,0,3,,,,,,,,,0,,,57,75
23662,note_on,46,0,1,,,,,,,,,5,,,76,0
23662,note_on,46,0,2,,,,,,,,,6,,,61,0
23664,note_on,2,0,2,,,,,,,,,6,,,62,110
23664,note_on,2,0,1,,,,,,,,,5,,,78,110
23710,note_on,46,0,1,,,,,,,,,5,,,78,0
23710,note_on,46,0,2,,,,,,,,,6,,,62,0
23712,note_on,2,0,2,,,,,,,,,6,,,61,110
23712,note_on,2,0,1,,,,,,,,,5,,,76,110
23758,note_on,46,0,2,,,,,,,,,6,,,61,0
23758,note_on,46,0,1,,,,,,,,,5,,,76,0
23760,note_on,2,0,1,,,,,,,,,5,,,74,110
23760,note_on,2,0,2,,,,,,,,,6,,,59,110
23776,note_on,160,0,3,,,,,,,,,0,,,57,0
23776,note_on,160,0,4,,,,,,,,,3,,,45,0
23806,note_on,46,0,1,,,,,,,,,5,,,74,0
23806,note_on,46,0,2,,,,,,,,,6,,,59,0
23808,note_on,2,0,1,,,,,,,,,5,,,76,110
23808,note_on,32,0,4,,,,,,,,,3,,,57,75
23808,note_on,2,0,2,,,,,,,,,6,,,61,110
23902,note_on,94,0,2,,,,,,,,,6,,,61,0
23902,note_on,94,0,4,,,,,,,,,3,,,57,0
23904,note_on,2,0,2,,,,,,,,,6,,,57,110
23904,note_on,128,0,3,,,,,,,,,0,,,69,75
23904,note_on,2,0,4,,,,,,,,,3,,,45,75
23968,note_on,160,0,1,,,,,,,,,5,,,76,0
23998,note_on,94,0,2,,,,,,,,,6,,,57,0
23998,note_on,94,0,3,,,,,,,,,0,,,69,0
23998,note_on,94,0,4,,,,,,,,,3,,,45,0
24000,note_on,2,0,4,,,,,,,,,3,,,57,75
24000,note_on,2,0,2,,,,,,,,,6,,,45,110
24000,note_on,2,0,3,,,,,,,,,0,,,57,75
24094,note_on,94,0,3,,,,,,,,,0,,,57,0
24094,note_on,94,0,2,,,,,,,,,6,,,45,0
24096,note_on,2,0,3,,,,,,,,,0,,,69,75
24096,note_on,2,0,2,,,,,,,,,6,,,57,110
24160,note_on,160,0,4,,,,,,,,,3,,,57,0
24190,note_on,94,0,2,,,,,,,,,6,,,57,0
24190,note_on,94,0,3,,,,,,,,,0,,,69,0
24192,note_on,32,0,4,,,,,,,,,3,,,45,75
24192,note_on,2,0,3,,,,,,,,,0,,,57,75
24192,note_on,224,0,1,,,,,,,,,5,,,76,110
24192,note_on,2,0,2,,,,,,,,,6,,,61,110
24238,note_on,46,0,2,,,,,,,,,6,,,61,0
24238,note_on,46,0,1,,,,,,,,,5,,,76,0
24240,note_on,2,0,2,,,,,,,,,6,,,62,110
24240,note_on,2,0,1,,,,,,,,,5,,,78,110
24286,note_on,46,0,2,,,,,,,,,6,,,62,0
24286,note_on,46,0,1,,,,,,,,,5,,,78,0
24288,note_on,2,0,2,,,,,,,,,6,,,61,110
24288,note_on,2,0,1,,,,,,,,,5,,,76,110
24334,note_on,46,0,2,,,,,,,,,6,,,61,0
24334,note_on,46,0,1,,,,,,,,,5,,,76,0
24336,note_on,2,0,1,,,,,,,,,5,,,74,110
24336,note_on,2,0,2,,,,,,,,,6,,,59,110
24352,note_on,160,0,4,,,,,,,,,3,,,45,0
24352,note_on,160,0,3,,,,,,,,,0,,,57,0
24382,note_on,46,0,1,,,,,,,,,5,,,74,0
24382,note_on,46,0,2,,,,,,,,,6,,,59,0
24384,note_on,2,0,1,,,,,,,,,5,,,76,110
24384,note_on,2,0,2,,,,,,,,,6,,,61,110
24478,note_on,94,0,2,,,,,,,,,6,,,61,0
24480,note_on,2,0,2,,,,,,,,,6,,,57,110
24480,note_on,128,0,4,,,,,,,,,3,,,57,75
24480,note_on,128,0,3,,,,,,,,,0,,,69,75
24544,note_on,160,0,1,,,,,,,,,5,,,76,0
24574,note_on,94,0,3,,,,,,,,,0,,,69,0
24574,note_on,94,0,4,,,,,,,,,3,,,57,0
24574,note_on,94,0,2,,,,,,,,,6,,,57,0
24576,note_on,2,0,4,,,,,,,,,3,,,45,75
24576,note_on,2,0,2,,,,,,,,,6,,,45,110
24576,note_on,2,0,3,,,,,,,,,0,,,57,75
24670,note_on,94,0,4,,,,,,,,,3,,,45,0
24670,note_on,94,0,2,,,,,,,,,6,,,45,0
24670,note_on,94,0,3,,,,,,,,,0,,,57,0
24672,note_on,2,0,2,,,,,,,,,6,,,57,110
24672,note_on,2,0,4,,,,,,,,,3,,,57,75
24672,note_on,2,0,3,,,,,,,,,0,,,69,75
24766,note_on,94,0,2,,,,,,,,,6,,,57,0
24766,note_on,94,0,4,,,,,,,,,3,,,57,0
24766,note_on,94,0,3,,,,,,,,,0,,,69,0
24768,note_on,2,0,3,,,,,,,,,0,,,57,75
24768,note_on,2,0,4,,,,,,,,,3,,,45,75
24768,note_on,2,0,2,,,,,,,,,6,,,61,110
24768,note_on,224,0,1,,,,,,,,,5,,,80,110
24790,note_on,22,0,1,,,,,,,,,5,,,80,0
24792,note_on,2,0,1,,,,,,,,,5,,,81,110
24928,note_on,160,0,4,,,,,,,,,3,,,45,0
24928,note_on,160,0,3,,,,,,,,,0,,,57,0
24928,note_on,160,0,2,,,,,,,,,6,,,61,0
24958,note_on,166,0,1,,,,,,,,,5,,,81,0
24960,note_on,32,0,2,,,,,,,,,6,,,59,110
24960,note_on,2,0,1,,,,,,,,,5,,,80,110
25102,note_on,142,0,2,,,,,,,,,6,,,59,0
25102,note_on,142,0,1,,,,,,,,,5,,,80,0
25104,note_on,2,0,2,,,,,,,,,6,,,57,110
25104,note_on,2,0,1,,,,,,,,,5,,,78,110
25150,note_on,46,0,2,,,,,,,,,6,,,57,0
25150,note_on,46,0,1,,,,,,,,,5,,,78,0
25152,note_on,2,0,1,,,,,,,,,5,,,76,110
25152,note_on,2,0,2,,,,,,,,,6,,,56,110
25294,note_on,142,0,1,,,,,,,,,5,,,76,0
25296,note_on,2,0,1,,,,,,,,,5,,,74,110
25312,note_on,160,0,2,,,,,,,,,6,,,56,0
25342,note_on,46,0,1,,,,,,,,,5,,,74,0
25344,note_on,2,0,1,,,,,,,,,5,,,73,110
25344,note_on,416,0,3,,,,,,,,,0,,,57,75
25344,note_on,416,0,4,,,,,,,,,3,,,45,75
25344,note_on,32,0,2,,,,,,,,,6,,,57,110
25486,note_on,142,0,2,,,,,,,,,6,,,57,0
25486,note_on,142,0,1,,,,,,,,,5,,,73,0
25488,note_on,2,0,1,,,,,,,,,5,,,74,110
25488,note_on,2,0,2,,,,,,,,,6,,,59,110
25504,note_on,160,0,3,,,,,,,,,0,,,57,0
25504,note_on,160,0,4,,,,,,,,,3,,,45,0
25534,note_on,46,0,2,,,,,,,,,6,,,59,0
25534,note_on,46,0,1,,,,,,,,,5,,,74,0
25536,note_on,2,0,2,,,,,,,,,6,,,56,110
25536,note_on,2,0,1,,,,,,,,,5,,,73,110
25536,note_on,32,0,4,,,,,,,,,3,,,52,75
25536,note_on,32,0,3,,,,,,,,,0,,,64,75
25546,note_on,10,0,1,,,,,,,,,5,,,73,0
25548,note_on,2,0,1,,,,,,,,,5,,,71,110
25558,note_on,10,0,1,,,,,,,,,5,,,71,0
25560,note_on,2,0,1,,,,,,,,,5,,,73,110
25570,note_on,10,0,1,,,,,,,,,5,,,73,0
25572,note_on,2,0,1,,,,,,,,,5,,,71,110
25582,note_on,10,0,1,,,,,,,,,5,,,71,0
25584,note_on,2,0,1,,,,,,,,,5,,,73,110
25594,note_on,10,0,1,,,,,,,,,5,,,73,0
25596,note_on,2,0,1,,,,,,,,,5,,,71,110
25606,note_on,10,0,1,,,,,,,,,5,,,71,0
25608,note_on,2,0,1,,,,,,,,,5,,,73,110
25618,note_on,10,0,1,,,,,,,,,5,,,73,0
25620,note_on,2,0,1,,,,,,,,,5,,,71,110
25630,note_on,10,0,1,,,,,,,,,5,,,71,0
25632,note_on,2,0,1,,,,,,,,,5,,,73,110
25642,note_on,10,0,1,,,,,,,,,5,,,73,0
25644,note_on,2,0,1,,,,,,,,,5,,,71,110
25654,note_on,10,0,1,,,,,,,,,5,,,71,0
25656,note_on,2,0,1,,,,,,,,,5,,,73,110
25666,note_on,10,0,1,,,,,,,,,5,,,73,0
25668,note_on,2,0,1,,,,,,,,,5,,,71,110
25678,note_on,10,0,1,,,,,,,,,5,,,71,0
25680,note_on,2,0,1,,,,,,,,,5,,,73,110
25690,note_on,10,0,1,,,,,,,,,5,,,73,0
25692,note_on,2,0,1,,,,,,,,,5,,,71,110
25702,note_on,10,0,1,,,,,,,,,5,,,71,0
25704,note_on,2,0,1,,,,,,,,,5,,,73,110
25714,note_on,10,0,1,,,,,,,,,5,,,73,0
25716,note_on,2,0,1,,,,,,,,,5,,,71,110
25726,note_on,10,0,1,,,,,,,,,5,,,71,0
25728,note_on,2,0,1,,,,,,,,,5,,,71,110
25792,note_on,256,0,2,,,,,,,,,6,,,56,0
25822,note_on,94,0,1,,,,,,,,,5,,,71,0
25824,set_tempo,25824,1,0,2000000,,,,,,,,,,,,
25824,note_on,2,0,1,,,,,,,,,5,,,69,110
25824,end_of_track,0,1,0,,,,,,,,,,,,,
25824,note_on,32,0,2,,,,,,,,,6,,,57,110
25872,note_on,336,0,4,,,,,,,,,3,,,52,0
25872,note_on,336,0,3,,,,,,,,,0,,,64,0
25918,note_on,94,0,2,,,,,,,,,6,,,57,0
25918,note_on,94,0,1,,,,,,,,,5,,,69,0
25920,note_on,2,0,2,,,,,,,,,6,,,57,110
25920,note_on,48,0,3,,,,,,,,,0,,,57,75
25920,note_on,2,0,1,,,,,,,,,5,,,69,110
25920,note_on,48,0,4,,,,,,,,,3,,,45,75
26448,end_of_track,0,1,2,,,,,,,,,,,,,
26448,note_on,528,0,4,,,,,,,,,3,,,45,0
26448,end_of_track,0,1,1,,,,,,,,,,,,,
26448,note_on,528,0,2,,,,,,,,,6,,,57,0
26448,note_on,528,0,3,,,,,,,,,0,,,57,0
26448,end_of_track,0,1,3,,,,,,,,,,,,,
26448,end_of_track,0,1,4,,,,,,,,,,,,,
26448,note_on,528,0,1,,,,,,,,,5,,,69,0
