tick,type,numerator,denominator,clocks_per_click,notated_32nd_notes_per_beat,time,meta,track,data,tempo,control,value,channel,program,key,note,velocity
0,time_signature,4,4,96,8,0,1,0,,,,,,,,,
0,track_name,,,,,0,1,8,,,,,,,,,
0,control_change,,,,,0,0,8,,,0,0,0,,,,
0,program_change,,,,,0,0,8,,,,,0,48,,,
0,control_change,,,,,0,0,8,,,7,100,0,,,,
0,control_change,,,,,0,0,8,,,10,58,0,,,,
0,control_change,,,,,0,0,8,,,91,67,0,,,,
0,key_signature,,,,,0,1,8,,,,,,,D,,
0,key_signature,,,,,0,1,16,,,,,,,D,,
0,end_of_track,,,,,0,1,7,,,,,,,,,
0,control_change,,,,,0,0,16,,,91,66,7,,,,
0,control_change,,,,,0,0,16,,,7,55,7,,,,
0,program_change,,,,,0,0,16,,,,,7,6,,,
0,control_change,,,,,0,0,16,,,0,0,7,,,,
0,track_name,,,,,0,1,16,,,,,,,,,
0,key_signature,,,,,0,1,15,,,,,,,D,,
0,control_change,,,,,0,0,15,,,91,66,7,,,,
0,control_change,,,,,0,0,15,,,10,67,7,,,,
0,control_change,,,,,0,0,15,,,7,55,7,,,,
0,control_change,,,,,0,0,16,,,10,67,7,,,,
0,program_change,,,,,0,0,15,,,,,7,6,,,
0,key_signature,,,,,0,1,7,,,,,,,D,,
0,control_change,,,,,0,0,7,,,10,58,0,,,,
0,program_change,,,,,0,0,5,,,,,0,48,,,
0,control_change,,,,,0,0,5,,,7,100,0,,,,
0,control_change,,,,,0,0,5,,,10,58,0,,,,
0,control_change,,,,,0,0,5,,,91,67,0,,,,
0,key_signature,,,,,0,1,5,,,,,,,D,,
0,end_of_track,,,,,0,1,5,,,,,,,,,
0,track_name,,,,,0,1,6,,,,,,,,,
0,control_change,,,,,0,0,6,,,0,0,0,,,,
0,control_change,,,,,0,0,7,,,91,67,0,,,,
0,program_change,,,,,0,0,6,,,,,0,48,,,
0,control_change,,,,,0,0,6,,,10,58,0,,,,
0,control_change,,,,,0,0,6,,,91,67,0,,,,
0,key_signature,,,,,0,1,6,,,,,,,D,,
0,end_of_track,,,,,0,1,6,,,,,,,,,
0,track_name,,,,,0,1,7,,,,,,,,,
0,control_change,,,,,0,0,7,,,0,0,0,,,,
0,program_change,,,,,0,0,7,,,,,0,48,,,
0,control_change,,,,,0,0,7,,,7,100,0,,,,
0,control_change,,,,,0,0,6,,,7,100,0,,,,
0,control_change,,,,,0,0,5,,,0,0,0,,,,
0,control_change,,,,,0,0,15,,,0,0,7,,,,
0,key_signature,,,,,0,1,14,,,,,,,D,,
0,control_change,,,,,0,0,12,,,91,62,4,,,,
0,control_change,,,,,0,0,12,,,10,64,4,,,,
0,control_change,,,,,0,0,12,,,7,95,4,,,,
0,program_change,,,,,0,0,12,,,,,4,48,,,
0,control_change,,,,,0,0,12,,,0,0,4,,,,
0,track_name,,,,,0,1,12,,,,,,,,,
0,key_signature,,,,,0,1,11,,,,,,,D,,
0,control_change,,,,,0,0,11,,,91,64,3,,,,
0,key_signature,,,,,0,1,12,,,,,,,D,,
0,control_change,,,,,0,0,11,,,10,48,3,,,,
0,program_change,,,,,0,0,11,,,,,3,48,,,
0,control_change,,,,,0,0,11,,,0,0,3,,,,
0,track_name,,,,,0,1,11,,,,,,,,,
0,key_signature,,,,,0,1,10,,,,,,,D,,
0,control_change,,,,,0,0,10,,,91,64,2,,,,
0,control_change,,,,,0,0,10,,,10,48,2,,,,
0,control_change,,,,,0,0,10,,,7,100,2,,,,
0,program_change,,,,,0,0,10,,,,,2,48,,,
0,control_change,,,,,0,0,11,,,7,100,3,,,,
0,track_name,,,,,0,1,15,,,,,,,,,
0,key_signature,,,,,0,1,9,,,,,,,D,,
0,control_change,,,,,0,0,9,,,10,58,1,,,,
0,control_change,,,,,0,0,14,,,91,65,6,,,,
0,control_change,,,,,0,0,14,,,10,92,6,,,,
0,control_change,,,,,0,0,14,,,7,77,6,,,,
0,program_change,,,,,0,0,14,,,,,6,48,,,
0,control_change,,,,,0,0,14,,,0,0,6,,,,
0,track_name,,,,,0,1,14,,,,,,,,,
0,control_change,,,,,0,0,10,,,0,0,2,,,,
0,key_signature,,,,,0,1,13,,,,,,,D,,
0,control_change,,,,,0,0,9,,,91,67,1,,,,
0,control_change,,,,,0,0,13,,,91,62,5,,,,
0,control_change,,,,,0,0,13,,,7,82,5,,,,
0,program_change,,,,,0,0,13,,,,,5,48,,,
0,control_change,,,,,0,0,13,,,0,0,5,,,,
0,track_name,,,,,0,1,13,,,,,,,,,
0,track_name,,,,,0,1,9,,,,,,,,,
0,control_change,,,,,0,0,9,,,0,0,1,,,,
0,program_change,,,,,0,0,9,,,,,1,48,,,
0,control_change,,,,,0,0,9,,,7,100,1,,,,
0,control_change,,,,,0,0,13,,,10,84,5,,,,
0,track_name,,,,,0,1,5,,,,,,,,,
0,track_name,,,,,0,1,10,,,,,,,,,
0,key_signature,,,,,0,1,4,,,,,,,D,,
0,set_tempo,,,,,0,1,0,,555555,,,,,,,
0,sequencer_specific,,,,,0,1,0,"(0, 0, 119, 14, 1)",,,,,,,,
0,sequencer_specific,,,,,0,1,0,"(0, 0, 65)",,,,,,,,
0,track_name,,,,,0,1,1,,,,,,,,,
0,end_of_track,,,,,0,1,1,,,,,,,,,
0,track_name,,,,,0,1,2,,,,,,,,,
0,end_of_track,,,,,0,1,2,,,,,,,,,
0,track_name,,,,,0,1,3,,,,,,,,,
0,control_change,,,,,0,0,3,,,0,0,0,,,,
0,control_change,,,,,0,0,3,,,7,100,0,,,,
0,end_of_track,,,,,0,1,4,,,,,,,,,
0,control_change,,,,,0,0,3,,,91,67,0,,,,
0,control_change,,,,,0,0,3,,,10,58,0,,,,
0,control_change,,,,,0,0,4,,,10,58,0,,,,
0,control_change,,,,,0,0,4,,,7,100,0,,,,
0,program_change,,,,,0,0,4,,,,,0,48,,,
0,control_change,,,,,0,0,4,,,91,67,0,,,,
0,track_name,,,,,0,1,4,,,,,,,,,
0,end_of_track,,,,,0,1,3,,,,,,,,,
0,key_signature,,,,,0,1,3,,,,,,,D,,
0,program_change,,,,,0,0,3,,,,,0,48,,,
0,control_change,,,,,0,0,4,,,0,0,0,,,,
4,program_change,,,,,4,0,8,,,,,0,40,,,
8,note_on,,,,,4,0,8,,,,,0,,,81,100
264,note_off,,,,,256,0,8,,,,,0,,,81,100
576,note_on,,,,,312,0,8,,,,,0,,,81,100
704,note_off,,,,,128,0,8,,,,,0,,,81,100
768,note_on,,,,,64,0,8,,,,,0,,,86,100
896,note_off,,,,,128,0,8,,,,,0,,,86,100
960,note_on,,,,,64,0,8,,,,,0,,,86,100
1088,note_off,,,,,128,0,8,,,,,0,,,86,100
1152,note_on,,,,,64,0,8,,,,,0,,,86,100
1280,note_off,,,,,128,0,8,,,,,0,,,86,100
1344,note_on,,,,,64,0,8,,,,,0,,,86,100
1472,note_off,,,,,128,0,8,,,,,0,,,86,100
1536,note_on,,,,,64,0,8,,,,,0,,,86,100
1536,program_change,,,,,1536,0,9,,,,,1,40,,,
1664,note_off,,,,,128,0,8,,,,,0,,,86,100
1728,note_on,,,,,64,0,8,,,,,0,,,85,100
1792,note_off,,,,,64,0,8,,,,,0,,,85,100
1824,note_on,,,,,32,0,8,,,,,0,,,83,100
1888,note_off,,,,,64,0,8,,,,,0,,,83,100
1920,note_on,,,,,32,0,8,,,,,0,,,81,100
1984,note_off,,,,,64,0,8,,,,,0,,,81,100
2016,note_on,,,,,32,0,8,,,,,0,,,83,100
2080,note_off,,,,,64,0,8,,,,,0,,,83,100
2112,note_on,,,,,32,0,8,,,,,0,,,79,100
2176,note_off,,,,,64,0,8,,,,,0,,,79,100
2208,note_on,,,,,32,0,8,,,,,0,,,81,100
2272,note_off,,,,,64,0,8,,,,,0,,,81,100
2304,note_on,,,,,32,0,8,,,,,0,,,78,100
2304,note_on,,,,,768,0,9,,,,,1,,,81,100
2560,note_off,,,,,256,0,8,,,,,0,,,78,100
2560,note_off,,,,,256,0,9,,,,,1,,,81,100
2880,note_on,,,,,320,0,9,,,,,1,,,81,100
2880,note_on,,,,,320,0,8,,,,,0,,,78,100
3008,note_off,,,,,128,0,9,,,,,1,,,81,100
3008,note_off,,,,,128,0,8,,,,,0,,,78,100
3072,note_on,,,,,64,0,9,,,,,1,,,86,100
3072,note_on,,,,,64,0,8,,,,,0,,,83,100
3200,note_off,,,,,128,0,8,,,,,0,,,83,100
3200,note_off,,,,,128,0,9,,,,,1,,,86,100
3264,note_on,,,,,64,0,9,,,,,1,,,86,100
3264,note_on,,,,,64,0,8,,,,,0,,,83,100
3392,note_off,,,,,128,0,9,,,,,1,,,86,100
3392,note_off,,,,,128,0,8,,,,,0,,,83,100
3456,note_on,,,,,64,0,9,,,,,1,,,86,100
3456,note_on,,,,,64,0,8,,,,,0,,,83,100
3584,note_off,,,,,128,0,9,,,,,1,,,86,100
3584,note_off,,,,,128,0,8,,,,,0,,,83,100
3648,note_on,,,,,64,0,8,,,,,0,,,83,100
3648,note_on,,,,,64,0,9,,,,,1,,,86,100
3776,note_off,,,,,128,0,8,,,,,0,,,83,100
3776,note_off,,,,,128,0,9,,,,,1,,,86,100
3840,note_on,,,,,64,0,9,,,,,1,,,86,100
3840,note_on,,,,,64,0,8,,,,,0,,,83,100
3968,note_off,,,,,128,0,8,,,,,0,,,83,100
3968,note_off,,,,,128,0,9,,,,,1,,,86,100
4032,note_on,,,,,64,0,8,,,,,0,,,81,100
4032,note_on,,,,,64,0,9,,,,,1,,,85,100
4096,note_off,,,,,64,0,8,,,,,0,,,81,100
4096,note_off,,,,,64,0,9,,,,,1,,,85,100
4128,note_on,,,,,32,0,9,,,,,1,,,83,100
4128,note_on,,,,,32,0,8,,,,,0,,,79,100
4192,note_off,,,,,64,0,9,,,,,1,,,83,100
4192,note_off,,,,,64,0,8,,,,,0,,,79,100
4224,note_on,,,,,32,0,8,,,,,0,,,78,100
4224,note_on,,,,,32,0,9,,,,,1,,,81,100
4288,note_off,,,,,64,0,9,,,,,1,,,81,100
4288,note_off,,,,,64,0,8,,,,,0,,,78,100
4320,note_on,,,,,32,0,9,,,,,1,,,83,100
4320,note_on,,,,,32,0,8,,,,,0,,,79,100
4384,note_off,,,,,64,0,8,,,,,0,,,79,100
4384,note_off,,,,,64,0,9,,,,,1,,,83,100
4416,note_on,,,,,32,0,9,,,,,1,,,79,100
4416,note_on,,,,,32,0,8,,,,,0,,,76,100
4480,note_off,,,,,64,0,8,,,,,0,,,76,100
4480,note_off,,,,,64,0,9,,,,,1,,,79,100
4512,note_on,,,,,32,0,8,,,,,0,,,78,100
4512,note_on,,,,,32,0,9,,,,,1,,,81,100
4576,note_off,,,,,64,0,9,,,,,1,,,81,100
4576,note_off,,,,,64,0,8,,,,,0,,,78,100
4608,note_on,,,,,32,0,9,,,,,1,,,78,100
4608,note_on,,,,,32,0,8,,,,,0,,,74,100
4864,note_off,,,,,256,0,9,,,,,1,,,78,100
4864,note_off,,,,,256,0,8,,,,,0,,,74,100
5184,note_on,,,,,320,0,9,,,,,1,,,73,60
5184,note_on,,,,,320,0,8,,,,,0,,,76,60
5312,note_off,,,,,128,0,8,,,,,0,,,76,100
5312,note_off,,,,,128,0,9,,,,,1,,,73,100
5376,note_on,,,,,64,0,8,,,,,0,,,78,65
5376,note_on,,,,,64,0,9,,,,,1,,,74,65
5440,note_off,,,,,64,0,8,,,,,0,,,78,100
5440,note_off,,,,,64,0,9,,,,,1,,,74,100
5472,note_on,,,,,32,0,9,,,,,1,,,76,68
5472,note_on,,,,,32,0,8,,,,,0,,,79,68
5536,note_off,,,,,64,0,9,,,,,1,,,76,100
5536,note_off,,,,,64,0,8,,,,,0,,,79,100
5568,note_on,,,,,32,0,8,,,,,0,,,76,71
5568,note_on,,,,,32,0,9,,,,,1,,,73,71
5632,note_off,,,,,64,0,9,,,,,1,,,73,100
5632,note_off,,,,,64,0,8,,,,,0,,,76,100
5664,note_on,,,,,32,0,8,,,,,0,,,79,73
5664,note_on,,,,,32,0,9,,,,,1,,,76,73
5728,note_off,,,,,64,0,8,,,,,0,,,79,100
5728,note_off,,,,,64,0,9,,,,,1,,,76,100
5760,note_on,,,,,32,0,8,,,,,0,,,78,76
5760,note_on,,,,,32,0,9,,,,,1,,,74,76
5824,note_off,,,,,64,0,8,,,,,0,,,78,100
5824,note_off,,,,,64,0,9,,,,,1,,,74,100
5856,note_on,,,,,32,0,8,,,,,0,,,79,79
5856,note_on,,,,,32,0,9,,,,,1,,,76,79
5920,note_off,,,,,64,0,8,,,,,0,,,79,100
5920,note_off,,,,,64,0,9,,,,,1,,,76,100
5952,note_on,,,,,32,0,9,,,,,1,,,73,82
5952,note_on,,,,,32,0,8,,,,,0,,,76,82
6016,note_off,,,,,64,0,9,,,,,1,,,73,100
6016,note_off,,,,,64,0,8,,,,,0,,,76,100
6048,note_on,,,,,32,0,9,,,,,1,,,76,84
6048,note_on,,,,,32,0,8,,,,,0,,,79,84
6112,note_off,,,,,64,0,9,,,,,1,,,76,100
6112,note_off,,,,,64,0,8,,,,,0,,,79,100
6144,note_on,,,,,32,0,9,,,,,1,,,74,87
6144,note_on,,,,,32,0,8,,,,,0,,,78,87
6208,note_off,,,,,64,0,8,,,,,0,,,78,100
6208,note_off,,,,,64,0,9,,,,,1,,,74,100
6240,note_on,,,,,32,0,9,,,,,1,,,76,90
6240,note_on,,,,,32,0,8,,,,,0,,,79,90
6304,note_off,,,,,64,0,9,,,,,1,,,76,100
6304,note_off,,,,,64,0,8,,,,,0,,,79,100
6336,note_on,,,,,32,0,9,,,,,1,,,73,93
6336,note_on,,,,,32,0,8,,,,,0,,,76,93
6400,note_off,,,,,64,0,8,,,,,0,,,76,100
6400,note_off,,,,,64,0,9,,,,,1,,,73,100
6432,note_on,,,,,32,0,8,,,,,0,,,79,96
6432,note_on,,,,,32,0,9,,,,,1,,,76,96
6496,note_off,,,,,64,0,8,,,,,0,,,79,100
6496,note_off,,,,,64,0,9,,,,,1,,,76,100
6528,note_on,,,,,32,0,9,,,,,1,,,74,98
6528,note_on,,,,,32,0,8,,,,,0,,,78,98
6592,note_off,,,,,64,0,9,,,,,1,,,74,100
6592,note_off,,,,,64,0,8,,,,,0,,,78,100
6624,note_on,,,,,32,0,8,,,,,0,,,76,101
6624,note_on,,,,,32,0,9,,,,,1,,,73,101
6688,note_off,,,,,64,0,8,,,,,0,,,76,100
6688,note_off,,,,,64,0,9,,,,,1,,,73,100
6720,note_on,,,,,32,0,9,,,,,1,,,74,104
6720,note_on,,,,,32,0,8,,,,,0,,,78,104
6784,note_off,,,,,64,0,8,,,,,0,,,78,100
6784,note_off,,,,,64,0,9,,,,,1,,,74,100
6816,note_on,,,,,32,0,9,,,,,1,,,71,107
6816,note_on,,,,,32,0,8,,,,,0,,,74,107
6880,note_off,,,,,64,0,8,,,,,0,,,74,100
6880,note_off,,,,,64,0,9,,,,,1,,,71,100
6912,note_on,,,,,0,0,15,,,,,7,,,61,100
6912,note_on,,,,,32,0,9,,,,,1,,,69,109
6912,note_on,,,,,6912,0,12,,,,,4,,,61,100
6912,note_on,,,,,6912,0,14,,,,,6,,,33,100
6912,note_on,,,,,6912,0,15,,,,,7,,,64,100
6912,note_on,,,,,6912,0,16,,,,,7,,,45,100
6912,note_on,,,,,6912,0,13,,,,,5,,,45,100
6912,note_on,,,,,32,0,8,,,,,0,,,73,109
7036,program_change,,,,,124,0,9,,,,,1,48,,,
7036,program_change,,,,,124,0,8,,,,,0,48,,,
7040,note_off,,,,,128,0,12,,,,,4,,,61,100
7040,note_off,,,,,128,0,15,,,,,7,,,64,100
7040,note_off,,,,,0,0,15,,,,,7,,,61,100
7040,note_off,,,,,128,0,13,,,,,5,,,45,100
7040,note_off,,,,,4,0,8,,,,,0,,,73,100
7040,note_off,,,,,4,0,9,,,,,1,,,69,100
7040,note_off,,,,,128,0,14,,,,,6,,,33,100
7040,note_off,,,,,128,0,16,,,,,7,,,45,100
7068,program_change,,,,,28,0,8,,,,,0,48,,,
7068,program_change,,,,,7068,0,10,,,,,2,48,,,
7104,note_on,,,,,0,0,15,,,,,7,,,66,100
7104,note_on,,,,,36,0,10,,,,,2,,,76,90
7104,note_on,,,,,64,0,12,,,,,4,,,62,100
7104,note_on,,,,,64,0,14,,,,,6,,,35,100
7104,note_on,,,,,64,0,16,,,,,7,,,47,100
7104,note_on,,,,,64,0,13,,,,,5,,,47,100
7104,note_on,,,,,7104,0,11,,,,,3,,,76,90
7104,note_on,,,,,36,0,8,,,,,0,,,76,100
7104,note_on,,,,,64,0,15,,,,,7,,,62,100
7104,note_on,,,,,64,0,9,,,,,1,,,76,100
7232,note_off,,,,,128,0,9,,,,,1,,,76,100
7232,note_off,,,,,128,0,12,,,,,4,,,62,100
7232,note_off,,,,,128,0,16,,,,,7,,,47,100
7232,note_off,,,,,128,0,8,,,,,0,,,76,100
7232,note_off,,,,,0,0,15,,,,,7,,,66,100
7232,note_off,,,,,128,0,14,,,,,6,,,35,100
7232,note_off,,,,,128,0,13,,,,,5,,,47,100
7232,note_off,,,,,128,0,11,,,,,3,,,76,100
7232,note_off,,,,,128,0,10,,,,,2,,,76,100
7232,note_off,,,,,128,0,15,,,,,7,,,62,100
7296,note_on,,,,,64,0,14,,,,,6,,,37,100
7296,note_on,,,,,64,0,13,,,,,5,,,49,100
7296,note_on,,,,,64,0,16,,,,,7,,,49,100
7296,note_on,,,,,64,0,12,,,,,4,,,64,100
7296,note_on,,,,,64,0,9,,,,,1,,,81,100
7296,note_on,,,,,64,0,10,,,,,2,,,81,90
7296,note_on,,,,,64,0,11,,,,,3,,,81,90
7296,note_on,,,,,64,0,8,,,,,0,,,81,100
7296,note_on,,,,,0,0,15,,,,,7,,,64,100
7296,note_on,,,,,64,0,15,,,,,7,,,67,100
7424,note_off,,,,,128,0,13,,,,,5,,,49,100
7424,note_off,,,,,0,0,15,,,,,7,,,64,100
7424,note_off,,,,,128,0,15,,,,,7,,,67,100
7424,note_off,,,,,128,0,12,,,,,4,,,64,100
7424,note_off,,,,,128,0,16,,,,,7,,,49,100
7424,note_off,,,,,128,0,14,,,,,6,,,37,100
7488,note_on,,,,,64,0,14,,,,,6,,,33,100
7488,note_on,,,,,64,0,13,,,,,5,,,45,100
7488,note_on,,,,,64,0,16,,,,,7,,,45,100
7488,note_on,,,,,64,0,15,,,,,7,,,61,100
7488,note_on,,,,,0,0,15,,,,,7,,,64,100
7488,note_on,,,,,64,0,12,,,,,4,,,61,100
7616,note_off,,,,,128,0,14,,,,,6,,,33,100
7616,note_off,,,,,128,0,16,,,,,7,,,45,100
7616,note_off,,,,,128,0,13,,,,,5,,,45,100
7616,note_off,,,,,128,0,15,,,,,7,,,61,100
7616,note_off,,,,,0,0,15,,,,,7,,,64,100
7616,note_off,,,,,128,0,12,,,,,4,,,61,100
7680,note_on,,,,,64,0,14,,,,,6,,,35,100
7680,note_on,,,,,64,0,16,,,,,7,,,47,100
7680,note_on,,,,,64,0,13,,,,,5,,,47,100
7680,note_on,,,,,64,0,12,,,,,4,,,62,100
7680,note_on,,,,,64,0,15,,,,,7,,,66,100
7680,note_on,,,,,0,0,15,,,,,7,,,69,100
7808,note_off,,,,,128,0,16,,,,,7,,,47,100
7808,note_off,,,,,128,0,14,,,,,6,,,35,100
7808,note_off,,,,,128,0,12,,,,,4,,,62,100
7808,note_off,,,,,128,0,15,,,,,7,,,66,100
7808,note_off,,,,,0,0,15,,,,,7,,,69,100
7808,note_off,,,,,512,0,9,,,,,1,,,81,64
7808,note_off,,,,,512,0,8,,,,,0,,,81,64
7808,note_off,,,,,512,0,11,,,,,3,,,81,64
7808,note_off,,,,,128,0,13,,,,,5,,,47,100
7808,note_off,,,,,512,0,10,,,,,2,,,81,64
7872,note_on,,,,,64,0,15,,,,,7,,,64,100
7872,note_on,,,,,64,0,13,,,,,5,,,45,100
7872,note_on,,,,,64,0,9,,,,,1,,,79,100
7872,note_on,,,,,64,0,14,,,,,6,,,33,100
7872,note_on,,,,,64,0,12,,,,,4,,,61,100
7872,note_on,,,,,64,0,16,,,,,7,,,45,100
7872,note_on,,,,,0,0,15,,,,,7,,,67,100
7872,note_on,,,,,64,0,11,,,,,3,,,79,90
7872,note_on,,,,,64,0,10,,,,,2,,,79,90
7872,note_on,,,,,64,0,8,,,,,0,,,79,100
7936,note_off,,,,,64,0,10,,,,,2,,,79,100
7936,note_off,,,,,64,0,11,,,,,3,,,79,100
7936,note_off,,,,,64,0,9,,,,,1,,,79,100
7936,note_off,,,,,64,0,8,,,,,0,,,79,100
7968,note_on,,,,,32,0,10,,,,,2,,,78,90
7968,note_on,,,,,32,0,11,,,,,3,,,78,90
7968,note_on,,,,,32,0,9,,,,,1,,,78,100
7968,note_on,,,,,32,0,8,,,,,0,,,78,100
8000,note_off,,,,,128,0,15,,,,,7,,,64,100
8000,note_off,,,,,128,0,14,,,,,6,,,33,100
8000,note_off,,,,,128,0,13,,,,,5,,,45,100
8000,note_off,,,,,128,0,16,,,,,7,,,45,100
8000,note_off,,,,,0,0,15,,,,,7,,,67,100
8000,note_off,,,,,128,0,12,,,,,4,,,61,100
8032,note_off,,,,,64,0,8,,,,,0,,,78,100
8032,note_off,,,,,64,0,10,,,,,2,,,78,100
8032,note_off,,,,,64,0,9,,,,,1,,,78,100
8032,note_off,,,,,64,0,11,,,,,3,,,78,100
8064,note_on,,,,,0,0,15,,,,,7,,,62,100
8064,note_on,,,,,64,0,14,,,,,6,,,35,100
8064,note_on,,,,,64,0,15,,,,,7,,,67,100
8064,note_on,,,,,32,0,10,,,,,2,,,79,90
8064,note_on,,,,,64,0,13,,,,,5,,,47,100
8064,note_on,,,,,32,0,11,,,,,3,,,79,90
8064,note_on,,,,,32,0,9,,,,,1,,,79,100
8064,note_on,,,,,64,0,12,,,,,4,,,62,100
8064,note_on,,,,,32,0,8,,,,,0,,,79,100
8064,note_on,,,,,64,0,16,,,,,7,,,47,100
8192,note_off,,,,,128,0,14,,,,,6,,,35,100
8192,note_off,,,,,128,0,16,,,,,7,,,47,100
8192,note_off,,,,,0,0,15,,,,,7,,,62,100
8192,note_off,,,,,128,0,11,,,,,3,,,79,100
8192,note_off,,,,,128,0,8,,,,,0,,,79,100
8192,note_off,,,,,128,0,10,,,,,2,,,79,100
8192,note_off,,,,,128,0,13,,,,,5,,,47,100
8192,note_off,,,,,128,0,9,,,,,1,,,79,100
8192,note_off,,,,,128,0,12,,,,,4,,,62,100
8192,note_off,,,,,128,0,15,,,,,7,,,67,100
8256,note_on,,,,,64,0,12,,,,,4,,,64,100
8256,note_on,,,,,64,0,10,,,,,2,,,79,90
8256,note_on,,,,,64,0,11,,,,,3,,,79,90
8256,note_on,,,,,64,0,16,,,,,7,,,49,100
8256,note_on,,,,,64,0,8,,,,,0,,,79,100
8256,note_on,,,,,0,0,15,,,,,7,,,67,100
8256,note_on,,,,,64,0,14,,,,,6,,,37,100
8256,note_on,,,,,64,0,13,,,,,5,,,49,100
8256,note_on,,,,,64,0,9,,,,,1,,,79,100
8256,note_on,,,,,64,0,15,,,,,7,,,69,100
8384,note_off,,,,,128,0,16,,,,,7,,,49,100
8384,note_off,,,,,0,0,15,,,,,7,,,67,100
8384,note_off,,,,,128,0,15,,,,,7,,,69,100
8384,note_off,,,,,128,0,8,,,,,0,,,79,100
8384,note_off,,,,,128,0,12,,,,,4,,,64,100
8384,note_off,,,,,128,0,14,,,,,6,,,37,100
8384,note_off,,,,,128,0,10,,,,,2,,,79,100
8384,note_off,,,,,128,0,9,,,,,1,,,79,100
8384,note_off,,,,,128,0,13,,,,,5,,,49,100
8384,note_off,,,,,128,0,11,,,,,3,,,79,100
8448,note_on,,,,,64,0,13,,,,,5,,,50,100
8448,note_on,,,,,64,0,10,,,,,2,,,79,90
8448,note_on,,,,,64,0,8,,,,,0,,,79,100
8448,note_on,,,,,64,0,11,,,,,3,,,79,90
8448,note_on,,,,,64,0,15,,,,,7,,,69,100
8448,note_on,,,,,0,0,15,,,,,7,,,67,100
8448,note_on,,,,,64,0,16,,,,,7,,,50,100
8448,note_on,,,,,64,0,9,,,,,1,,,79,100
8448,note_on,,,,,64,0,12,,,,,4,,,57,100
8448,note_on,,,,,64,0,14,,,,,6,,,38,100
8492,note_off,,,,,44,0,10,,,,,2,,,79,100
8492,note_off,,,,,44,0,8,,,,,0,,,79,100
8492,note_off,,,,,44,0,9,,,,,1,,,79,100
8492,note_off,,,,,44,0,11,,,,,3,,,79,100
8496,note_on,,,,,4,0,9,,,,,1,,,81,100
8496,note_on,,,,,4,0,10,,,,,2,,,81,90
8496,note_on,,,,,4,0,8,,,,,0,,,81,100
8496,note_on,,,,,4,0,11,,,,,3,,,81,90
8540,note_off,,,,,44,0,9,,,,,1,,,81,100
8540,note_off,,,,,44,0,10,,,,,2,,,81,100
8540,note_off,,,,,44,0,8,,,,,0,,,81,100
8540,note_off,,,,,44,0,11,,,,,3,,,81,100
8544,note_on,,,,,4,0,9,,,,,1,,,79,100
8544,note_on,,,,,4,0,10,,,,,2,,,79,90
8544,note_on,,,,,4,0,8,,,,,0,,,79,100
8544,note_on,,,,,4,0,11,,,,,3,,,79,90
8576,note_off,,,,,128,0,14,,,,,6,,,38,100
8576,note_off,,,,,128,0,13,,,,,5,,,50,100
8576,note_off,,,,,128,0,16,,,,,7,,,50,100
8576,note_off,,,,,128,0,15,,,,,7,,,69,100
8576,note_off,,,,,0,0,15,,,,,7,,,67,100
8588,note_off,,,,,44,0,8,,,,,0,,,79,100
8588,note_off,,,,,44,0,11,,,,,3,,,79,100
8588,note_off,,,,,44,0,10,,,,,2,,,79,100
8588,note_off,,,,,44,0,9,,,,,1,,,79,100
8592,note_on,,,,,4,0,8,,,,,0,,,81,100
8592,note_on,,,,,4,0,10,,,,,2,,,81,90
8592,note_on,,,,,4,0,9,,,,,1,,,81,100
8592,note_on,,,,,4,0,11,,,,,3,,,81,90
8604,program_change,,,,,28,0,13,,,,,5,43,,,
8636,note_off,,,,,44,0,8,,,,,0,,,81,100
8636,note_off,,,,,44,0,9,,,,,1,,,81,100
8636,note_off,,,,,44,0,10,,,,,2,,,81,100
8636,note_off,,,,,44,0,11,,,,,3,,,81,100
8640,note_on,,,,,4,0,11,,,,,3,,,78,90
8640,note_on,,,,,4,0,9,,,,,1,,,78,100
8640,note_on,,,,,64,0,16,,,,,7,,,38,100
8640,note_on,,,,,4,0,10,,,,,2,,,78,90
8640,note_on,,,,,64,0,14,,,,,6,,,38,100
8640,note_on,,,,,64,0,15,,,,,7,,,66,100
8640,note_on,,,,,4,0,8,,,,,0,,,78,100
8640,note_on,,,,,36,0,13,,,,,5,,,38,100
8704,note_off,,,,,256,0,12,,,,,4,,,57,100
8768,note_off,,,,,128,0,13,,,,,5,,,38,100
8768,note_off,,,,,128,0,8,,,,,0,,,78,100
8768,note_off,,,,,128,0,15,,,,,7,,,66,100
8768,note_off,,,,,128,0,16,,,,,7,,,38,100
8768,note_off,,,,,128,0,10,,,,,2,,,78,100
8768,note_off,,,,,128,0,9,,,,,1,,,78,100
8768,note_off,,,,,128,0,11,,,,,3,,,78,100
8768,note_off,,,,,128,0,14,,,,,6,,,38,100
8832,note_on,,,,,64,0,8,,,,,0,,,86,100
8832,note_on,,,,,64,0,9,,,,,1,,,74,100
8832,note_on,,,,,128,0,12,,,,,4,,,69,100
8832,note_on,,,,,64,0,13,,,,,5,,,54,100
8832,note_on,,,,,64,0,11,,,,,3,,,74,90
8832,note_on,,,,,64,0,16,,,,,7,,,54,100
8832,note_on,,,,,64,0,15,,,,,7,,,74,100
8832,note_on,,,,,64,0,14,,,,,6,,,42,100
8832,note_on,,,,,64,0,10,,,,,2,,,86,90
8896,note_off,,,,,64,0,13,,,,,5,,,54,100
8928,note_on,,,,,32,0,13,,,,,5,,,52,100
8960,note_off,,,,,128,0,15,,,,,7,,,74,100
8960,note_off,,,,,128,0,8,,,,,0,,,86,100
8960,note_off,,,,,128,0,10,,,,,2,,,86,100
8960,note_off,,,,,128,0,12,,,,,4,,,69,100
8960,note_off,,,,,128,0,14,,,,,6,,,42,100
8960,note_off,,,,,128,0,16,,,,,7,,,54,100
8960,note_off,,,,,128,0,9,,,,,1,,,74,100
8960,note_off,,,,,128,0,11,,,,,3,,,74,100
8992,note_off,,,,,64,0,13,,,,,5,,,52,100
9024,note_on,,,,,32,0,13,,,,,5,,,54,100
9088,note_off,,,,,64,0,13,,,,,5,,,54,100
9120,note_on,,,,,32,0,13,,,,,5,,,50,100
9184,note_off,,,,,64,0,13,,,,,5,,,50,100
9216,note_on,,,,,256,0,10,,,,,2,,,86,90
9216,note_on,,,,,32,0,13,,,,,5,,,55,100
9216,note_on,,,,,256,0,11,,,,,3,,,76,90
9216,note_on,,,,,256,0,9,,,,,1,,,76,100
9216,note_on,,,,,256,0,14,,,,,6,,,43,100
9216,note_on,,,,,0,0,12,,,,,4,,,71,100
9216,note_on,,,,,256,0,12,,,,,4,,,67,100
9216,note_on,,,,,256,0,15,,,,,7,,,76,100
9216,note_on,,,,,0,0,15,,,,,7,,,74,100
9216,note_on,,,,,256,0,8,,,,,0,,,86,100
9216,note_on,,,,,256,0,16,,,,,7,,,55,100
9280,note_off,,,,,64,0,13,,,,,5,,,55,100
9312,note_on,,,,,32,0,13,,,,,5,,,54,100
9344,note_off,,,,,128,0,8,,,,,0,,,86,100
9344,note_off,,,,,0,0,15,,,,,7,,,74,100
9344,note_off,,,,,128,0,15,,,,,7,,,76,100
9344,note_off,,,,,128,0,12,,,,,4,,,67,100
9344,note_off,,,,,0,0,12,,,,,4,,,71,100
9344,note_off,,,,,128,0,14,,,,,6,,,43,100
9344,note_off,,,,,128,0,9,,,,,1,,,76,100
9344,note_off,,,,,128,0,16,,,,,7,,,55,100
9344,note_off,,,,,128,0,10,,,,,2,,,86,100
9344,note_off,,,,,128,0,11,,,,,3,,,76,100
9376,note_off,,,,,64,0,13,,,,,5,,,54,100
9408,note_on,,,,,32,0,13,,,,,5,,,55,100
9472,note_off,,,,,64,0,13,,,,,5,,,55,100
9504,note_on,,,,,32,0,13,,,,,5,,,52,100
9568,note_off,,,,,64,0,13,,,,,5,,,52,100
9600,note_on,,,,,0,0,12,,,,,4,,,69,100
9600,note_on,,,,,32,0,13,,,,,5,,,57,100
9600,note_on,,,,,256,0,9,,,,,1,,,76,100
9600,note_on,,,,,256,0,12,,,,,4,,,64,100
9600,note_on,,,,,256,0,14,,,,,6,,,45,100
9600,note_on,,,,,256,0,15,,,,,7,,,76,100
9600,note_on,,,,,256,0,16,,,,,7,,,57,100
9600,note_on,,,,,0,0,15,,,,,7,,,73,100
9600,note_on,,,,,256,0,10,,,,,2,,,85,90
9600,note_on,,,,,256,0,8,,,,,0,,,85,100
9600,note_on,,,,,256,0,11,,,,,3,,,76,90
9664,note_off,,,,,64,0,13,,,,,5,,,57,100
9696,note_on,,,,,32,0,13,,,,,5,,,59,100
9728,note_off,,,,,128,0,15,,,,,7,,,76,100
9728,note_off,,,,,0,0,15,,,,,7,,,73,100
9728,note_off,,,,,128,0,11,,,,,3,,,76,100
9728,note_off,,,,,0,0,12,,,,,4,,,69,100
9728,note_off,,,,,128,0,14,,,,,6,,,45,100
9728,note_off,,,,,128,0,9,,,,,1,,,76,100
9728,note_off,,,,,128,0,8,,,,,0,,,85,100
9728,note_off,,,,,128,0,16,,,,,7,,,57,100
9728,note_off,,,,,128,0,10,,,,,2,,,85,100
9728,note_off,,,,,128,0,12,,,,,4,,,64,100
9760,note_off,,,,,64,0,13,,,,,5,,,59,100
9792,note_on,,,,,32,0,13,,,,,5,,,57,100
9856,note_off,,,,,64,0,13,,,,,5,,,57,100
9888,note_on,,,,,32,0,13,,,,,5,,,55,100
9952,note_off,,,,,64,0,13,,,,,5,,,55,100
9984,note_on,,,,,256,0,9,,,,,1,,,74,100
9984,note_on,,,,,32,0,13,,,,,5,,,54,100
9984,note_on,,,,,256,0,15,,,,,7,,,74,100
9984,note_on,,,,,256,0,8,,,,,0,,,85,100
9984,note_on,,,,,0,0,12,,,,,4,,,69,100
9984,note_on,,,,,256,0,14,,,,,6,,,42,100
9984,note_on,,,,,256,0,12,,,,,4,,,66,100
9984,note_on,,,,,0,0,15,,,,,7,,,73,100
9984,note_on,,,,,256,0,16,,,,,7,,,54,100
9984,note_on,,,,,256,0,11,,,,,3,,,74,90
9984,note_on,,,,,256,0,10,,,,,2,,,85,90
10048,note_off,,,,,64,0,13,,,,,5,,,54,100
10080,note_on,,,,,32,0,13,,,,,5,,,52,100
10112,note_off,,,,,128,0,16,,,,,7,,,54,100
10112,note_off,,,,,0,0,12,,,,,4,,,69,100
10112,note_off,,,,,128,0,12,,,,,4,,,66,100
10112,note_off,,,,,128,0,11,,,,,3,,,74,100
10112,note_off,,,,,128,0,14,,,,,6,,,42,100
10112,note_off,,,,,128,0,10,,,,,2,,,85,100
10112,note_off,,,,,0,0,15,,,,,7,,,73,100
10112,note_off,,,,,128,0,15,,,,,7,,,74,100
10112,note_off,,,,,128,0,9,,,,,1,,,74,100
10112,note_off,,,,,128,0,8,,,,,0,,,85,100
10144,note_off,,,,,64,0,13,,,,,5,,,52,100
10176,note_on,,,,,32,0,13,,,,,5,,,54,100
10240,note_off,,,,,64,0,13,,,,,5,,,54,100
10272,note_on,,,,,32,0,13,,,,,5,,,50,100
10336,note_off,,,,,64,0,13,,,,,5,,,50,100
10368,note_on,,,,,256,0,16,,,,,7,,,55,100
10368,note_on,,,,,256,0,12,,,,,4,,,62,100
10368,note_on,,,,,256,0,11,,,,,3,,,74,90
10368,note_on,,,,,256,0,9,,,,,1,,,74,100
10368,note_on,,,,,32,0,13,,,,,5,,,55,100
10368,note_on,,,,,256,0,10,,,,,2,,,83,90
10368,note_on,,,,,0,0,12,,,,,4,,,67,100
10368,note_on,,,,,256,0,15,,,,,7,,,71,100
10368,note_on,,,,,256,0,14,,,,,6,,,43,100
10368,note_on,,,,,0,0,15,,,,,7,,,74,100
10368,note_on,,,,,256,0,8,,,,,0,,,83,100
10432,note_off,,,,,64,0,13,,,,,5,,,55,100
10464,note_on,,,,,32,0,13,,,,,5,,,57,100
10496,note_off,,,,,128,0,15,,,,,7,,,71,100
10496,note_off,,,,,128,0,12,,,,,4,,,62,100
10496,note_off,,,,,0,0,12,,,,,4,,,67,100
10496,note_off,,,,,128,0,8,,,,,0,,,83,100
10496,note_off,,,,,128,0,16,,,,,7,,,55,100
10496,note_off,,,,,128,0,9,,,,,1,,,74,100
10496,note_off,,,,,128,0,11,,,,,3,,,74,100
10496,note_off,,,,,0,0,15,,,,,7,,,74,100
10496,note_off,,,,,128,0,14,,,,,6,,,43,100
10496,note_off,,,,,128,0,10,,,,,2,,,83,100
10528,note_off,,,,,64,0,13,,,,,5,,,57,100
10560,note_on,,,,,32,0,13,,,,,5,,,55,100
10624,note_off,,,,,64,0,13,,,,,5,,,55,100
10656,note_on,,,,,32,0,13,,,,,5,,,54,100
10720,note_off,,,,,64,0,13,,,,,5,,,54,100
10752,note_on,,,,,256,0,8,,,,,0,,,83,100
10752,note_on,,,,,256,0,12,,,,,4,,,64,100
10752,note_on,,,,,0,0,12,,,,,4,,,67,100
10752,note_on,,,,,256,0,9,,,,,1,,,73,100
10752,note_on,,,,,256,0,14,,,,,6,,,40,100
10752,note_on,,,,,256,0,10,,,,,2,,,83,90
10752,note_on,,,,,0,0,15,,,,,7,,,71,100
10752,note_on,,,,,256,0,15,,,,,7,,,73,100
10752,note_on,,,,,256,0,16,,,,,7,,,52,100
10752,note_on,,,,,32,0,13,,,,,5,,,52,100
10752,note_on,,,,,256,0,11,,,,,3,,,73,90
10816,note_off,,,,,64,0,13,,,,,5,,,52,100
10848,note_on,,,,,32,0,13,,,,,5,,,50,100
10880,note_off,,,,,0,0,12,,,,,4,,,67,100
10880,note_off,,,,,128,0,12,,,,,4,,,64,100
10880,note_off,,,,,128,0,9,,,,,1,,,73,100
10880,note_off,,,,,128,0,10,,,,,2,,,83,100
10880,note_off,,,,,128,0,14,,,,,6,,,40,100
10880,note_off,,,,,128,0,8,,,,,0,,,83,100
10880,note_off,,,,,128,0,11,,,,,3,,,73,100
10880,note_off,,,,,128,0,15,,,,,7,,,73,100
10880,note_off,,,,,0,0,15,,,,,7,,,71,100
10880,note_off,,,,,128,0,16,,,,,7,,,52,100
10912,note_off,,,,,64,0,13,,,,,5,,,50,100
10944,note_on,,,,,32,0,13,,,,,5,,,52,100
11008,note_off,,,,,64,0,13,,,,,5,,,52,100
11040,note_on,,,,,32,0,13,,,,,5,,,49,100
11104,note_off,,,,,64,0,13,,,,,5,,,49,100
11136,note_on,,,,,256,0,10,,,,,2,,,81,90
11136,note_on,,,,,256,0,9,,,,,1,,,73,100
11136,note_on,,,,,256,0,8,,,,,0,,,81,100
11136,note_on,,,,,0,0,12,,,,,4,,,66,100
11136,note_on,,,,,256,0,12,,,,,4,,,61,100
11136,note_on,,,,,256,0,16,,,,,7,,,54,100
11136,note_on,,,,,32,0,13,,,,,5,,,54,100
11136,note_on,,,,,256,0,15,,,,,7,,,74,100
11136,note_on,,,,,256,0,11,,,,,3,,,73,90
11136,note_on,,,,,0,0,15,,,,,7,,,69,100
11136,note_on,,,,,256,0,14,,,,,6,,,42,100
11200,note_off,,,,,64,0,13,,,,,5,,,54,100
11232,note_on,,,,,32,0,13,,,,,5,,,55,100
11264,note_off,,,,,128,0,15,,,,,7,,,74,100
11264,note_off,,,,,0,0,15,,,,,7,,,69,100
11264,note_off,,,,,128,0,8,,,,,0,,,81,100
11264,note_off,,,,,128,0,14,,,,,6,,,42,100
11264,note_off,,,,,128,0,12,,,,,4,,,61,100
11264,note_off,,,,,128,0,16,,,,,7,,,54,100
11264,note_off,,,,,0,0,12,,,,,4,,,66,100
11264,note_off,,,,,128,0,9,,,,,1,,,73,100
11264,note_off,,,,,128,0,10,,,,,2,,,81,100
11264,note_off,,,,,128,0,11,,,,,3,,,73,100
11296,note_off,,,,,64,0,13,,,,,5,,,55,100
11328,note_on,,,,,32,0,13,,,,,5,,,54,100
11392,note_off,,,,,64,0,13,,,,,5,,,54,100
11424,note_on,,,,,32,0,13,,,,,5,,,52,100
11488,note_off,,,,,64,0,13,,,,,5,,,52,100
11520,note_on,,,,,0,0,12,,,,,4,,,66,100
11520,note_on,,,,,256,0,12,,,,,4,,,62,100
11520,note_on,,,,,256,0,9,,,,,1,,,71,100
11520,note_on,,,,,256,0,15,,,,,7,,,69,100
11520,note_on,,,,,0,0,15,,,,,7,,,71,100
11520,note_on,,,,,256,0,14,,,,,6,,,38,100
11520,note_on,,,,,256,0,11,,,,,3,,,71,90
11520,note_on,,,,,256,0,8,,,,,0,,,81,100
11520,note_on,,,,,256,0,10,,,,,2,,,81,90
11520,note_on,,,,,32,0,13,,,,,5,,,50,100
11520,note_on,,,,,256,0,16,,,,,7,,,50,100
11584,note_off,,,,,64,0,13,,,,,5,,,50,100
11616,note_on,,,,,32,0,13,,,,,5,,,49,100
11648,note_off,,,,,128,0,16,,,,,7,,,50,100
11648,note_off,,,,,0,0,15,,,,,7,,,71,100
11648,note_off,,,,,128,0,15,,,,,7,,,69,100
11648,note_off,,,,,128,0,11,,,,,3,,,71,100
11648,note_off,,,,,128,0,14,,,,,6,,,38,100
11648,note_off,,,,,0,0,12,,,,,4,,,66,100
11648,note_off,,,,,128,0,9,,,,,1,,,71,100
11648,note_off,,,,,128,0,10,,,,,2,,,81,100
11648,note_off,,,,,128,0,8,,,,,0,,,81,100
11648,note_off,,,,,128,0,12,,,,,4,,,62,100
11680,note_off,,,,,64,0,13,,,,,5,,,49,100
11712,note_on,,,,,32,0,13,,,,,5,,,50,100
11776,note_off,,,,,64,0,13,,,,,5,,,50,100
11808,note_on,,,,,32,0,13,,,,,5,,,47,100
11872,note_off,,,,,64,0,13,,,,,5,,,47,100
11904,note_on,,,,,256,0,14,,,,,6,,,40,100
11904,note_on,,,,,256,0,12,,,,,4,,,59,100
11904,note_on,,,,,256,0,15,,,,,7,,,71,100
11904,note_on,,,,,256,0,16,,,,,7,,,52,100
11904,note_on,,,,,32,0,13,,,,,5,,,52,100
11904,note_on,,,,,256,0,11,,,,,3,,,71,90
11904,note_on,,,,,0,0,12,,,,,4,,,64,100
11904,note_on,,,,,256,0,10,,,,,2,,,79,90
11904,note_on,,,,,0,0,15,,,,,7,,,67,100
11904,note_on,,,,,256,0,8,,,,,0,,,79,100
11904,note_on,,,,,256,0,9,,,,,1,,,71,100
11968,note_off,,,,,64,0,13,,,,,5,,,52,100
12000,note_on,,,,,32,0,13,,,,,5,,,54,100
12032,note_off,,,,,128,0,12,,,,,4,,,59,100
12032,note_off,,,,,128,0,11,,,,,3,,,71,100
12032,note_off,,,,,128,0,16,,,,,7,,,52,100
12032,note_off,,,,,128,0,8,,,,,0,,,79,100
12032,note_off,,,,,128,0,9,,,,,1,,,71,100
12032,note_off,,,,,128,0,10,,,,,2,,,79,100
12032,note_off,,,,,128,0,14,,,,,6,,,40,100
12032,note_off,,,,,0,0,12,,,,,4,,,64,100
12032,note_off,,,,,0,0,15,,,,,7,,,67,100
12032,note_off,,,,,128,0,15,,,,,7,,,71,100
12064,note_off,,,,,64,0,13,,,,,5,,,54,100
12096,note_on,,,,,32,0,13,,,,,5,,,55,100
12160,note_off,,,,,64,0,13,,,,,5,,,55,100
12192,note_on,,,,,32,0,13,,,,,5,,,52,100
12256,note_off,,,,,64,0,13,,,,,5,,,52,100
12288,note_on,,,,,256,0,14,,,,,6,,,33,100
12288,note_on,,,,,32,0,13,,,,,5,,,57,100
12288,note_on,,,,,256,0,11,,,,,3,,,73,90
12288,note_on,,,,,0,0,12,,,,,4,,,64,100
12288,note_on,,,,,256,0,12,,,,,4,,,57,100
12288,note_on,,,,,256,0,8,,,,,0,,,79,100
12288,note_on,,,,,256,0,15,,,,,7,,,67,100
12288,note_on,,,,,0,0,15,,,,,7,,,64,100
12288,note_on,,,,,256,0,9,,,,,1,,,73,100
12288,note_on,,,,,256,0,10,,,,,2,,,79,90
12288,note_on,,,,,256,0,16,,,,,7,,,45,100
12352,note_off,,,,,64,0,13,,,,,5,,,57,100
12384,note_on,,,,,32,0,13,,,,,5,,,59,100
12416,note_off,,,,,128,0,16,,,,,7,,,45,100
12416,note_off,,,,,128,0,11,,,,,3,,,73,100
12416,note_off,,,,,0,0,15,,,,,7,,,64,100
12416,note_off,,,,,128,0,10,,,,,2,,,79,100
12416,note_off,,,,,0,0,12,,,,,4,,,64,100
12416,note_off,,,,,128,0,12,,,,,4,,,57,100
12416,note_off,,,,,128,0,15,,,,,7,,,67,100
12416,note_off,,,,,128,0,14,,,,,6,,,33,100
12416,note_off,,,,,128,0,8,,,,,0,,,79,100
12416,note_off,,,,,128,0,9,,,,,1,,,73,100
12448,note_off,,,,,64,0,13,,,,,5,,,59,100
12480,note_on,,,,,32,0,13,,,,,5,,,61,100
12544,note_off,,,,,64,0,13,,,,,5,,,61,100
12576,note_on,,,,,32,0,13,,,,,5,,,57,100
12640,note_off,,,,,64,0,13,,,,,5,,,57,100
12672,note_on,,,,,32,0,13,,,,,5,,,50,100
12672,note_on,,,,,256,0,10,,,,,2,,,78,90
12672,note_on,,,,,256,0,9,,,,,1,,,74,100
12672,note_on,,,,,256,0,14,,,,,6,,,38,100
12672,note_on,,,,,0,0,12,,,,,4,,,62,100
12672,note_on,,,,,256,0,12,,,,,4,,,57,100
12672,note_on,,,,,256,0,8,,,,,0,,,78,100
12672,note_on,,,,,256,0,16,,,,,7,,,50,100
12672,note_on,,,,,0,0,15,,,,,7,,,66,100
12672,note_on,,,,,256,0,15,,,,,7,,,69,100
12672,note_on,,,,,256,0,11,,,,,3,,,74,90
12736,note_off,,,,,64,0,13,,,,,5,,,50,100
12768,note_on,,,,,32,0,13,,,,,5,,,52,100
12800,note_off,,,,,128,0,14,,,,,6,,,38,100
12800,note_off,,,,,128,0,12,,,,,4,,,57,100
12800,note_off,,,,,0,0,12,,,,,4,,,62,100
12800,note_off,,,,,128,0,9,,,,,1,,,74,100
12800,note_off,,,,,128,0,8,,,,,0,,,78,100
12800,note_off,,,,,128,0,11,,,,,3,,,74,100
12800,note_off,,,,,128,0,10,,,,,2,,,78,100
12800,note_off,,,,,128,0,16,,,,,7,,,50,100
12800,note_off,,,,,0,0,15,,,,,7,,,66,100
12800,note_off,,,,,128,0,15,,,,,7,,,69,100
12832,note_off,,,,,64,0,13,,,,,5,,,52,100
12864,note_on,,,,,32,0,13,,,,,5,,,54,100
12928,note_off,,,,,64,0,13,,,,,5,,,54,100
12960,note_on,,,,,32,0,13,,,,,5,,,50,100
13024,note_off,,,,,64,0,13,,,,,5,,,50,100
13056,note_on,,,,,256,0,16,,,,,7,,,43,100
13056,note_on,,,,,256,0,12,,,,,4,,,59,100
13056,note_on,,,,,0,0,12,,,,,4,,,64,100
13056,note_on,,,,,0,0,15,,,,,7,,,62,100
13056,note_on,,,,,256,0,9,,,,,1,,,74,100
13056,note_on,,,,,256,0,10,,,,,2,,,76,90
13056,note_on,,,,,256,0,15,,,,,7,,,64,100
13056,note_on,,,,,256,0,14,,,,,6,,,43,100
13056,note_on,,,,,256,0,8,,,,,0,,,76,100
13056,note_on,,,,,256,0,11,,,,,3,,,74,90
13056,note_on,,,,,32,0,13,,,,,5,,,55,100
13120,note_off,,,,,64,0,13,,,,,5,,,55,100
13152,note_on,,,,,32,0,13,,,,,5,,,54,100
13184,note_off,,,,,0,0,15,,,,,7,,,62,100
13184,note_off,,,,,128,0,11,,,,,3,,,74,100
13184,note_off,,,,,128,0,12,,,,,4,,,59,100
13184,note_off,,,,,0,0,12,,,,,4,,,64,100
13184,note_off,,,,,128,0,16,,,,,7,,,43,100
13184,note_off,,,,,128,0,15,,,,,7,,,64,100
13184,note_off,,,,,128,0,14,,,,,6,,,43,100
13184,note_off,,,,,128,0,8,,,,,0,,,76,100
13184,note_off,,,,,128,0,9,,,,,1,,,74,100
13184,note_off,,,,,128,0,10,,,,,2,,,76,100
13216,note_off,,,,,64,0,13,,,,,5,,,54,100
13248,note_on,,,,,32,0,13,,,,,5,,,55,100
13312,note_off,,,,,64,0,13,,,,,5,,,55,100
13344,note_on,,,,,32,0,13,,,,,5,,,52,100
13408,note_off,,,,,64,0,13,,,,,5,,,52,100
13440,note_on,,,,,256,0,9,,,,,1,,,73,100
13440,note_on,,,,,256,0,8,,,,,0,,,76,100
13440,note_on,,,,,256,0,11,,,,,3,,,73,90
13440,note_on,,,,,32,0,13,,,,,5,,,57,100
13440,note_on,,,,,256,0,12,,,,,4,,,61,100
13440,note_on,,,,,0,0,12,,,,,4,,,69,100
13440,note_on,,,,,256,0,16,,,,,7,,,45,100
13440,note_on,,,,,256,0,14,,,,,6,,,33,100
13440,note_on,,,,,256,0,15,,,,,7,,,64,100
13440,note_on,,,,,0,0,15,,,,,7,,,61,100
13440,note_on,,,,,256,0,10,,,,,2,,,76,90
13504,note_off,,,,,64,0,13,,,,,5,,,57,100
13536,note_on,,,,,32,0,13,,,,,5,,,55,100
13568,note_off,,,,,128,0,16,,,,,7,,,45,100
13568,note_off,,,,,128,0,14,,,,,6,,,33,100
13568,note_off,,,,,128,0,9,,,,,1,,,73,100
13568,note_off,,,,,128,0,15,,,,,7,,,64,100
13568,note_off,,,,,128,0,12,,,,,4,,,61,100
13568,note_off,,,,,0,0,12,,,,,4,,,69,100
13568,note_off,,,,,128,0,11,,,,,3,,,73,100
13568,note_off,,,,,0,0,15,,,,,7,,,61,100
13568,note_off,,,,,128,0,10,,,,,2,,,76,100
13568,note_off,,,,,128,0,8,,,,,0,,,76,100
13600,note_off,,,,,64,0,13,,,,,5,,,55,100
13632,note_on,,,,,32,0,13,,,,,5,,,57,100
13696,note_off,,,,,64,0,13,,,,,5,,,57,100
13728,note_on,,,,,32,0,13,,,,,5,,,45,100
13792,note_off,,,,,64,0,13,,,,,5,,,45,100
13820,program_change,,,,,252,0,10,,,,,2,40,,,
13824,note_on,,,,,256,0,8,,,,,0,,,78,100
13824,note_on,,,,,256,0,11,,,,,3,,,74,90
13824,note_on,,,,,32,0,13,,,,,5,,,50,100
13824,note_on,,,,,256,0,14,,,,,6,,,38,100
13824,note_on,,,,,0,0,12,,,,,4,,,57,100
13824,note_on,,,,,256,0,12,,,,,4,,,66,100
13824,note_on,,,,,256,0,9,,,,,1,,,74,100
13824,note_on,,,,,4,0,10,,,,,2,,,74,100
13824,note_on,,,,,256,0,16,,,,,7,,,38,100
13824,note_on,,,,,0,0,15,,,,,7,,,62,100
13824,note_on,,,,,256,0,15,,,,,7,,,66,100
13888,note_off,,,,,64,0,10,,,,,2,,,74,100
13920,note_on,,,,,32,0,10,,,,,2,,,76,100
13984,note_off,,,,,64,0,10,,,,,2,,,76,100
14016,note_on,,,,,32,0,10,,,,,2,,,74,100
14080,note_off,,,,,256,0,14,,,,,6,,,38,100
14080,note_off,,,,,64,0,10,,,,,2,,,74,100
14080,note_off,,,,,256,0,11,,,,,3,,,74,100
14080,note_off,,,,,0,0,15,,,,,7,,,62,100
14080,note_off,,,,,256,0,15,,,,,7,,,66,100
14080,note_off,,,,,256,0,13,,,,,5,,,50,100
14080,note_off,,,,,256,0,9,,,,,1,,,74,100
14080,note_off,,,,,256,0,16,,,,,7,,,38,100
14080,note_off,,,,,256,0,8,,,,,0,,,78,100
14080,note_off,,,,,0,0,12,,,,,4,,,57,100
14080,note_off,,,,,256,0,12,,,,,4,,,66,100
14112,note_on,,,,,32,0,10,,,,,2,,,76,100
14176,note_off,,,,,64,0,10,,,,,2,,,76,100
14208,program_change,,,,,128,0,11,,,,,3,40,,,
14208,note_on,,,,,32,0,10,,,,,2,,,74,100
14272,note_off,,,,,64,0,10,,,,,2,,,74,100
14304,note_on,,,,,32,0,10,,,,,2,,,76,100
14368,note_off,,,,,64,0,10,,,,,2,,,76,100
14400,note_on,,,,,32,0,10,,,,,2,,,74,100
14464,note_off,,,,,64,0,10,,,,,2,,,74,100
14496,note_on,,,,,32,0,10,,,,,2,,,76,100
14560,note_off,,,,,64,0,10,,,,,2,,,76,100
14592,note_on,,,,,32,0,10,,,,,2,,,74,100
14656,note_off,,,,,64,0,10,,,,,2,,,74,100
14688,note_on,,,,,32,0,10,,,,,2,,,73,100
14752,note_off,,,,,64,0,10,,,,,2,,,73,100
14784,note_on,,,,,32,0,10,,,,,2,,,74,100
14848,note_off,,,,,64,0,10,,,,,2,,,74,100
14880,note_on,,,,,32,0,10,,,,,2,,,76,100
14944,note_off,,,,,64,0,10,,,,,2,,,76,100
14976,note_on,,,,,32,0,10,,,,,2,,,74,100
15040,note_off,,,,,64,0,10,,,,,2,,,74,100
15072,note_on,,,,,32,0,10,,,,,2,,,76,100
15136,note_off,,,,,64,0,10,,,,,2,,,76,100
15168,note_on,,,,,32,0,10,,,,,2,,,73,100
15232,note_off,,,,,64,0,10,,,,,2,,,73,100
15264,note_on,,,,,32,0,10,,,,,2,,,74,100
15328,note_off,,,,,64,0,10,,,,,2,,,74,100
15360,note_on,,,,,32,0,10,,,,,2,,,76,100
15424,note_off,,,,,64,0,10,,,,,2,,,76,100
15456,note_on,,,,,32,0,10,,,,,2,,,78,100
15520,note_off,,,,,64,0,10,,,,,2,,,78,100
15552,note_on,,,,,32,0,10,,,,,2,,,76,100
15616,note_off,,,,,64,0,10,,,,,2,,,76,100
15648,note_on,,,,,32,0,10,,,,,2,,,78,100
15712,note_off,,,,,64,0,10,,,,,2,,,78,100
15744,note_on,,,,,32,0,10,,,,,2,,,76,100
15808,note_off,,,,,64,0,10,,,,,2,,,76,100
15840,note_on,,,,,32,0,10,,,,,2,,,78,100
15904,note_off,,,,,64,0,10,,,,,2,,,78,100
15936,note_on,,,,,32,0,10,,,,,2,,,76,100
16000,note_off,,,,,64,0,10,,,,,2,,,76,100
16032,note_on,,,,,32,0,10,,,,,2,,,78,100
16096,note_off,,,,,64,0,10,,,,,2,,,78,100
16128,note_on,,,,,32,0,10,,,,,2,,,76,100
16192,note_off,,,,,64,0,10,,,,,2,,,76,100
16224,note_on,,,,,32,0,10,,,,,2,,,74,100
16288,note_off,,,,,64,0,10,,,,,2,,,74,100
16320,note_on,,,,,32,0,10,,,,,2,,,76,100
16384,note_off,,,,,64,0,10,,,,,2,,,76,100
16416,note_on,,,,,32,0,10,,,,,2,,,78,100
16480,note_off,,,,,64,0,10,,,,,2,,,78,100
16512,note_on,,,,,32,0,10,,,,,2,,,76,100
16576,note_off,,,,,64,0,10,,,,,2,,,76,100
16608,note_on,,,,,32,0,10,,,,,2,,,78,100
16672,note_off,,,,,64,0,10,,,,,2,,,78,100
16704,note_on,,,,,32,0,10,,,,,2,,,74,100
16768,note_off,,,,,64,0,10,,,,,2,,,74,100
16800,note_on,,,,,32,0,10,,,,,2,,,76,100
16864,note_off,,,,,64,0,10,,,,,2,,,76,100
16896,note_on,,,,,32,0,10,,,,,2,,,78,100
16896,note_on,,,,,2688,0,11,,,,,3,,,74,100
16960,note_off,,,,,64,0,10,,,,,2,,,78,100
16960,note_off,,,,,64,0,11,,,,,3,,,74,100
16992,note_on,,,,,32,0,10,,,,,2,,,79,100
16992,note_on,,,,,32,0,11,,,,,3,,,76,100
17056,note_off,,,,,64,0,10,,,,,2,,,79,100
17056,note_off,,,,,64,0,11,,,,,3,,,76,100
17088,note_on,,,,,32,0,10,,,,,2,,,78,100
17088,note_on,,,,,32,0,11,,,,,3,,,74,100
17152,note_off,,,,,64,0,11,,,,,3,,,74,100
17152,note_off,,,,,64,0,10,,,,,2,,,78,100
17184,note_on,,,,,32,0,10,,,,,2,,,79,100
17184,note_on,,,,,32,0,11,,,,,3,,,76,100
17248,note_off,,,,,64,0,10,,,,,2,,,79,100
17248,note_off,,,,,64,0,11,,,,,3,,,76,100
17280,note_on,,,,,32,0,10,,,,,2,,,78,100
17280,note_on,,,,,32,0,11,,,,,3,,,74,100
17344,note_off,,,,,64,0,10,,,,,2,,,78,100
17344,note_off,,,,,64,0,11,,,,,3,,,74,100
17376,note_on,,,,,32,0,11,,,,,3,,,76,100
17376,note_on,,,,,32,0,10,,,,,2,,,79,100
17440,note_off,,,,,64,0,11,,,,,3,,,76,100
17440,note_off,,,,,64,0,10,,,,,2,,,79,100
17472,note_on,,,,,32,0,11,,,,,3,,,74,100
17472,note_on,,,,,32,0,10,,,,,2,,,78,100
17536,note_off,,,,,64,0,11,,,,,3,,,74,100
17536,note_off,,,,,64,0,10,,,,,2,,,78,100
17568,note_on,,,,,32,0,10,,,,,2,,,79,100
17568,note_on,,,,,32,0,11,,,,,3,,,76,100
17632,note_off,,,,,64,0,10,,,,,2,,,79,100
17632,note_off,,,,,64,0,11,,,,,3,,,76,100
17664,note_on,,,,,32,0,10,,,,,2,,,78,100
17664,note_on,,,,,32,0,11,,,,,3,,,74,100
17728,note_off,,,,,64,0,10,,,,,2,,,78,100
17728,note_off,,,,,64,0,11,,,,,3,,,74,100
17760,note_on,,,,,32,0,11,,,,,3,,,73,100
17760,note_on,,,,,32,0,10,,,,,2,,,76,100
17824,note_off,,,,,64,0,11,,,,,3,,,73,100
17824,note_off,,,,,64,0,10,,,,,2,,,76,100
17856,note_on,,,,,32,0,10,,,,,2,,,78,100
17856,note_on,,,,,32,0,11,,,,,3,,,74,100
17920,note_off,,,,,64,0,11,,,,,3,,,74,100
17920,note_off,,,,,64,0,10,,,,,2,,,78,100
17952,note_on,,,,,32,0,10,,,,,2,,,79,100
17952,note_on,,,,,32,0,11,,,,,3,,,76,100
18016,note_off,,,,,64,0,10,,,,,2,,,79,100
18016,note_off,,,,,64,0,11,,,,,3,,,76,100
18048,note_on,,,,,32,0,10,,,,,2,,,78,100
18048,note_on,,,,,32,0,11,,,,,3,,,74,100
18112,note_off,,,,,64,0,10,,,,,2,,,78,100
18112,note_off,,,,,64,0,11,,,,,3,,,74,100
18144,note_on,,,,,32,0,10,,,,,2,,,79,100
18144,note_on,,,,,32,0,11,,,,,3,,,76,100
18208,note_off,,,,,64,0,10,,,,,2,,,79,100
18208,note_off,,,,,64,0,11,,,,,3,,,76,100
18240,note_on,,,,,32,0,10,,,,,2,,,76,100
18240,note_on,,,,,32,0,11,,,,,3,,,73,100
18304,note_off,,,,,64,0,10,,,,,2,,,76,100
18304,note_off,,,,,64,0,11,,,,,3,,,73,100
18336,note_on,,,,,32,0,11,,,,,3,,,74,100
18336,note_on,,,,,32,0,10,,,,,2,,,78,100
18400,note_off,,,,,64,0,11,,,,,3,,,74,100
18400,note_off,,,,,64,0,10,,,,,2,,,78,100
18432,note_on,,,,,32,0,11,,,,,3,,,76,100
18432,note_on,,,,,32,0,10,,,,,2,,,79,100
18496,note_off,,,,,64,0,11,,,,,3,,,76,100
18496,note_off,,,,,64,0,10,,,,,2,,,79,100
18528,note_on,,,,,32,0,10,,,,,2,,,81,100
18528,note_on,,,,,32,0,11,,,,,3,,,78,100
18592,note_off,,,,,64,0,11,,,,,3,,,78,100
18592,note_off,,,,,64,0,10,,,,,2,,,81,100
18624,note_on,,,,,32,0,10,,,,,2,,,79,100
18624,note_on,,,,,32,0,11,,,,,3,,,76,100
18688,note_off,,,,,64,0,11,,,,,3,,,76,100
18688,note_off,,,,,64,0,10,,,,,2,,,79,100
18720,note_on,,,,,32,0,10,,,,,2,,,81,100
18720,note_on,,,,,32,0,11,,,,,3,,,78,100
18784,note_off,,,,,64,0,11,,,,,3,,,78,100
18784,note_off,,,,,64,0,10,,,,,2,,,81,100
18816,note_on,,,,,32,0,11,,,,,3,,,76,100
18816,note_on,,,,,32,0,10,,,,,2,,,79,100
18880,note_off,,,,,64,0,10,,,,,2,,,79,100
18880,note_off,,,,,64,0,11,,,,,3,,,76,100
18912,note_on,,,,,32,0,10,,,,,2,,,81,100
18912,note_on,,,,,32,0,11,,,,,3,,,78,100
18976,note_off,,,,,64,0,11,,,,,3,,,78,100
18976,note_off,,,,,64,0,10,,,,,2,,,81,100
19008,note_on,,,,,32,0,10,,,,,2,,,79,100
19008,note_on,,,,,32,0,11,,,,,3,,,76,100
19072,note_off,,,,,64,0,10,,,,,2,,,79,100
19072,note_off,,,,,64,0,11,,,,,3,,,76,100
19104,note_on,,,,,32,0,11,,,,,3,,,78,100
19104,note_on,,,,,32,0,10,,,,,2,,,81,100
19168,note_off,,,,,64,0,10,,,,,2,,,81,100
19168,note_off,,,,,64,0,11,,,,,3,,,78,100
19200,note_on,,,,,32,0,11,,,,,3,,,76,100
19200,note_on,,,,,32,0,10,,,,,2,,,79,100
19264,note_off,,,,,64,0,11,,,,,3,,,76,100
19264,note_off,,,,,64,0,10,,,,,2,,,79,100
19296,note_on,,,,,32,0,11,,,,,3,,,74,100
19296,note_on,,,,,32,0,10,,,,,2,,,78,100
19360,note_off,,,,,64,0,11,,,,,3,,,74,100
19360,note_off,,,,,64,0,10,,,,,2,,,78,100
19392,note_on,,,,,32,0,10,,,,,2,,,79,100
19392,note_on,,,,,32,0,11,,,,,3,,,76,100
19456,note_off,,,,,64,0,11,,,,,3,,,76,100
19456,note_off,,,,,64,0,10,,,,,2,,,79,100
19488,note_on,,,,,32,0,11,,,,,3,,,78,100
19488,note_on,,,,,32,0,10,,,,,2,,,81,100
19552,note_off,,,,,64,0,11,,,,,3,,,78,100
19552,note_off,,,,,64,0,10,,,,,2,,,81,100
19584,note_on,,,,,32,0,10,,,,,2,,,79,100
19584,note_on,,,,,32,0,11,,,,,3,,,76,100
19648,note_off,,,,,64,0,10,,,,,2,,,79,100
19648,note_off,,,,,64,0,11,,,,,3,,,76,100
19680,note_on,,,,,32,0,11,,,,,3,,,78,100
19680,note_on,,,,,32,0,10,,,,,2,,,81,100
19744,note_off,,,,,64,0,10,,,,,2,,,81,100
19744,note_off,,,,,64,0,11,,,,,3,,,78,100
19776,note_on,,,,,32,0,10,,,,,2,,,78,100
19776,note_on,,,,,32,0,11,,,,,3,,,74,100
19840,note_off,,,,,64,0,11,,,,,3,,,74,100
19840,note_off,,,,,64,0,10,,,,,2,,,78,100
19872,note_on,,,,,32,0,10,,,,,2,,,79,100
19872,note_on,,,,,32,0,11,,,,,3,,,76,100
19936,note_off,,,,,64,0,11,,,,,3,,,76,100
19936,note_off,,,,,64,0,10,,,,,2,,,79,100
19968,note_on,,,,,32,0,10,,,,,2,,,81,95
19968,note_on,,,,,32,0,11,,,,,3,,,78,95
20060,note_off,,,,,92,0,11,,,,,3,,,78,100
20060,note_off,,,,,92,0,10,,,,,2,,,81,100
20064,note_on,,,,,4,0,10,,,,,2,,,79,95
20064,note_on,,,,,4,0,11,,,,,3,,,76,95
20156,note_off,,,,,92,0,11,,,,,3,,,76,100
20156,note_off,,,,,92,0,10,,,,,2,,,79,100
20160,note_on,,,,,4,0,10,,,,,2,,,78,95
20160,note_on,,,,,4,0,11,,,,,3,,,74,95
20224,note_off,,,,,64,0,10,,,,,2,,,78,100
20224,note_off,,,,,64,0,11,,,,,3,,,74,100
20256,note_on,,,,,32,0,10,,,,,2,,,79,95
20256,note_on,,,,,32,0,11,,,,,3,,,76,95
20320,note_off,,,,,64,0,11,,,,,3,,,76,100
20320,note_off,,,,,64,0,10,,,,,2,,,79,100
20352,note_on,,,,,32,0,10,,,,,2,,,81,95
20352,note_on,,,,,32,0,11,,,,,3,,,78,95
20444,note_off,,,,,92,0,10,,,,,2,,,81,100
20444,note_off,,,,,92,0,11,,,,,3,,,78,100
20448,note_on,,,,,4,0,10,,,,,2,,,79,95
20448,note_on,,,,,4,0,11,,,,,3,,,76,95
20540,note_off,,,,,92,0,10,,,,,2,,,79,100
20540,note_off,,,,,92,0,11,,,,,3,,,76,100
20544,note_on,,,,,4,0,10,,,,,2,,,78,95
20544,note_on,,,,,4,0,11,,,,,3,,,74,95
20608,note_off,,,,,64,0,10,,,,,2,,,78,100
20608,note_off,,,,,64,0,11,,,,,3,,,74,100
20640,note_on,,,,,32,0,11,,,,,3,,,76,95
20640,note_on,,,,,32,0,10,,,,,2,,,79,95
20704,note_off,,,,,64,0,11,,,,,3,,,76,100
20704,note_off,,,,,64,0,10,,,,,2,,,79,100
20736,note_on,,,,,32,0,11,,,,,3,,,78,95
20736,note_on,,,,,32,0,10,,,,,2,,,81,95
20828,note_off,,,,,92,0,10,,,,,2,,,81,100
20828,note_off,,,,,92,0,11,,,,,3,,,78,100
20832,note_on,,,,,4,0,11,,,,,3,,,76,95
20832,note_on,,,,,4,0,10,,,,,2,,,79,95
20924,note_off,,,,,92,0,10,,,,,2,,,79,100
20924,note_off,,,,,92,0,11,,,,,3,,,76,100
20928,note_on,,,,,4,0,11,,,,,3,,,74,95
20928,note_on,,,,,4,0,10,,,,,2,,,78,95
20992,note_off,,,,,64,0,10,,,,,2,,,78,100
20992,note_off,,,,,64,0,11,,,,,3,,,74,100
21024,note_on,,,,,32,0,11,,,,,3,,,76,95
21024,note_on,,,,,32,0,10,,,,,2,,,79,95
21088,note_off,,,,,64,0,10,,,,,2,,,79,100
21088,note_off,,,,,64,0,11,,,,,3,,,76,100
21120,note_on,,,,,32,0,11,,,,,3,,,78,95
21120,note_on,,,,,32,0,10,,,,,2,,,81,95
21184,note_off,,,,,64,0,11,,,,,3,,,78,100
21184,note_off,,,,,64,0,10,,,,,2,,,81,100
21216,note_on,,,,,32,0,11,,,,,3,,,79,95
21216,note_on,,,,,32,0,10,,,,,2,,,83,95
21280,note_off,,,,,64,0,11,,,,,3,,,79,100
21280,note_off,,,,,64,0,10,,,,,2,,,83,100
21312,note_on,,,,,32,0,11,,,,,3,,,78,95
21312,note_on,,,,,32,0,10,,,,,2,,,81,95
21376,note_off,,,,,64,0,11,,,,,3,,,78,100
21376,note_off,,,,,64,0,10,,,,,2,,,81,100
21408,note_on,,,,,32,0,10,,,,,2,,,83,95
21408,note_on,,,,,32,0,11,,,,,3,,,79,95
21472,note_off,,,,,64,0,11,,,,,3,,,79,100
21472,note_off,,,,,64,0,10,,,,,2,,,83,100
21504,note_on,,,,,32,0,10,,,,,2,,,79,85
21504,note_on,,,,,32,0,11,,,,,3,,,76,85
21596,note_off,,,,,92,0,10,,,,,2,,,79,100
21596,note_off,,,,,92,0,11,,,,,3,,,76,100
21600,note_on,,,,,4,0,10,,,,,2,,,78,85
21600,note_on,,,,,4,0,11,,,,,3,,,74,85
21692,note_off,,,,,92,0,11,,,,,3,,,74,100
21692,note_off,,,,,92,0,10,,,,,2,,,78,100
21696,note_on,,,,,4,0,10,,,,,2,,,76,85
21696,note_on,,,,,4,0,11,,,,,3,,,73,85
21760,note_off,,,,,64,0,10,,,,,2,,,76,100
21760,note_off,,,,,64,0,11,,,,,3,,,73,100
21792,note_on,,,,,32,0,10,,,,,2,,,78,85
21792,note_on,,,,,32,0,11,,,,,3,,,74,85
21856,note_off,,,,,64,0,10,,,,,2,,,78,100
21856,note_off,,,,,64,0,11,,,,,3,,,74,100
21888,note_on,,,,,32,0,11,,,,,3,,,76,85
21888,note_on,,,,,32,0,10,,,,,2,,,79,85
21980,note_off,,,,,92,0,11,,,,,3,,,76,100
21980,note_off,,,,,92,0,10,,,,,2,,,79,100
21984,note_on,,,,,4,0,10,,,,,2,,,78,85
21984,note_on,,,,,4,0,11,,,,,3,,,74,85
22076,note_off,,,,,92,0,11,,,,,3,,,74,100
22076,note_off,,,,,92,0,10,,,,,2,,,78,100
22080,note_on,,,,,4,0,10,,,,,2,,,76,85
22080,note_on,,,,,4,0,11,,,,,3,,,73,85
22144,note_off,,,,,64,0,10,,,,,2,,,76,100
22144,note_off,,,,,64,0,11,,,,,3,,,73,100
22176,note_on,,,,,32,0,11,,,,,3,,,74,85
22176,note_on,,,,,32,0,10,,,,,2,,,78,85
22240,note_off,,,,,64,0,10,,,,,2,,,78,100
22240,note_off,,,,,64,0,11,,,,,3,,,74,100
22272,note_on,,,,,32,0,10,,,,,2,,,79,85
22272,note_on,,,,,32,0,11,,,,,3,,,76,85
22364,note_off,,,,,92,0,10,,,,,2,,,79,100
22364,note_off,,,,,92,0,11,,,,,3,,,76,100
22368,note_on,,,,,4,0,11,,,,,3,,,74,85
22368,note_on,,,,,4,0,10,,,,,2,,,78,85
22460,note_off,,,,,92,0,10,,,,,2,,,78,100
22460,note_off,,,,,92,0,11,,,,,3,,,74,100
22464,note_on,,,,,4,0,11,,,,,3,,,73,85
22464,note_on,,,,,4,0,10,,,,,2,,,76,85
22528,note_off,,,,,64,0,10,,,,,2,,,76,100
22528,note_off,,,,,64,0,11,,,,,3,,,73,100
22560,note_on,,,,,32,0,11,,,,,3,,,74,85
22560,note_on,,,,,32,0,10,,,,,2,,,78,85
22624,note_off,,,,,64,0,10,,,,,2,,,78,100
22624,note_off,,,,,64,0,11,,,,,3,,,74,100
22656,note_on,,,,,32,0,10,,,,,2,,,79,85
22656,note_on,,,,,32,0,11,,,,,3,,,76,85
22720,note_off,,,,,64,0,10,,,,,2,,,79,100
22720,note_off,,,,,64,0,11,,,,,3,,,76,100
22752,note_on,,,,,32,0,10,,,,,2,,,81,85
22752,note_on,,,,,32,0,11,,,,,3,,,78,85
22816,note_off,,,,,64,0,10,,,,,2,,,81,100
22816,note_off,,,,,64,0,11,,,,,3,,,78,100
22848,note_on,,,,,32,0,10,,,,,2,,,79,85
22848,note_on,,,,,32,0,11,,,,,3,,,76,85
22912,note_off,,,,,64,0,11,,,,,3,,,76,100
22912,note_off,,,,,64,0,10,,,,,2,,,79,100
22944,note_on,,,,,32,0,11,,,,,3,,,78,85
22944,note_on,,,,,32,0,10,,,,,2,,,81,85
23008,note_off,,,,,64,0,10,,,,,2,,,81,100
23008,note_off,,,,,64,0,11,,,,,3,,,78,100
23040,note_on,,,,,32,0,10,,,,,2,,,78,85
23168,note_off,,,,,128,0,10,,,,,2,,,78,100
23232,note_on,,,,,64,0,10,,,,,2,,,74,85
23360,note_off,,,,,128,0,10,,,,,2,,,74,100
23420,program_change,,,,,60,0,10,,,,,2,48,,,
23420,program_change,,,,,412,0,11,,,,,3,48,,,
23424,note_on,,,,,4,0,11,,,,,3,,,74,50
23424,note_on,,,,,9344,0,16,,,,,7,,,54,100
23424,note_on,,,,,9344,0,15,,,,,7,,,74,100
23424,note_on,,,,,9344,0,14,,,,,6,,,42,60
23424,program_change,,,,,9344,0,9,,,,,1,48,,,
23424,note_on,,,,,4,0,10,,,,,2,,,86,60
23424,note_on,,,,,9344,0,12,,,,,4,,,69,60
23424,program_change,,,,,9344,0,8,,,,,0,48,,,
23424,note_on,,,,,0,0,15,,,,,7,,,69,100
23424,note_on,,,,,9344,0,13,,,,,5,,,54,60
23428,note_on,,,,,4,0,8,,,,,0,,,86,50
23428,note_on,,,,,4,0,9,,,,,1,,,74,60
23488,note_off,,,,,64,0,13,,,,,5,,,54,100
23520,note_on,,,,,32,0,13,,,,,5,,,52,60
23552,note_off,,,,,128,0,16,,,,,7,,,54,100
23552,note_off,,,,,128,0,11,,,,,3,,,74,100
23552,note_off,,,,,0,0,15,,,,,7,,,69,100
23552,note_off,,,,,128,0,15,,,,,7,,,74,100
23552,note_off,,,,,128,0,14,,,,,6,,,42,100
23552,note_off,,,,,128,0,10,,,,,2,,,86,100
23552,note_off,,,,,128,0,12,,,,,4,,,69,100
23556,note_off,,,,,128,0,8,,,,,0,,,86,100
23556,note_off,,,,,128,0,9,,,,,1,,,74,100
23584,note_off,,,,,64,0,13,,,,,5,,,52,100
23616,note_on,,,,,32,0,13,,,,,5,,,54,60
23680,note_off,,,,,64,0,13,,,,,5,,,54,100
23712,note_on,,,,,32,0,13,,,,,5,,,50,60
23776,note_off,,,,,64,0,13,,,,,5,,,50,100
23808,note_on,,,,,256,0,10,,,,,2,,,86,60
23808,note_on,,,,,256,0,16,,,,,7,,,55,100
23808,note_on,,,,,256,0,15,,,,,7,,,76,100
23808,note_on,,,,,0,0,15,,,,,7,,,74,100
23808,note_on,,,,,256,0,12,,,,,4,,,67,60
23808,note_on,,,,,256,0,14,,,,,6,,,43,60
23808,note_on,,,,,0,0,12,,,,,4,,,71,60
23808,note_on,,,,,32,0,13,,,,,5,,,55,60
23808,note_on,,,,,256,0,11,,,,,3,,,76,50
23812,note_on,,,,,256,0,8,,,,,0,,,86,50
23812,note_on,,,,,256,0,9,,,,,1,,,76,60
23872,note_off,,,,,64,0,13,,,,,5,,,55,100
23904,note_on,,,,,32,0,13,,,,,5,,,54,60
23936,note_off,,,,,128,0,14,,,,,6,,,43,100
23936,note_off,,,,,0,0,15,,,,,7,,,74,100
23936,note_off,,,,,128,0,15,,,,,7,,,76,100
23936,note_off,,,,,128,0,10,,,,,2,,,86,100
23936,note_off,,,,,128,0,16,,,,,7,,,55,100
23936,note_off,,,,,0,0,12,,,,,4,,,71,100
23936,note_off,,,,,128,0,12,,,,,4,,,67,100
23936,note_off,,,,,128,0,11,,,,,3,,,76,100
23940,note_off,,,,,128,0,9,,,,,1,,,76,100
23940,note_off,,,,,128,0,8,,,,,0,,,86,100
23968,note_off,,,,,64,0,13,,,,,5,,,54,100
24000,note_on,,,,,32,0,13,,,,,5,,,55,60
24064,note_off,,,,,64,0,13,,,,,5,,,55,100
24096,note_on,,,,,32,0,13,,,,,5,,,52,60
24160,note_off,,,,,64,0,13,,,,,5,,,52,100
24192,note_on,,,,,256,0,15,,,,,7,,,76,100
24192,note_on,,,,,256,0,11,,,,,3,,,76,50
24192,note_on,,,,,32,0,13,,,,,5,,,57,60
24192,note_on,,,,,256,0,10,,,,,2,,,85,60
24192,note_on,,,,,256,0,16,,,,,7,,,57,100
24192,note_on,,,,,0,0,15,,,,,7,,,73,100
24192,note_on,,,,,256,0,12,,,,,4,,,64,60
24192,note_on,,,,,0,0,12,,,,,4,,,69,60
24192,note_on,,,,,256,0,14,,,,,6,,,45,60
24196,note_on,,,,,256,0,9,,,,,1,,,76,60
24196,note_on,,,,,256,0,8,,,,,0,,,85,50
24256,note_off,,,,,64,0,13,,,,,5,,,57,100
24288,note_on,,,,,32,0,13,,,,,5,,,59,60
24320,note_off,,,,,128,0,12,,,,,4,,,64,100
24320,note_off,,,,,128,0,15,,,,,7,,,76,100
24320,note_off,,,,,128,0,16,,,,,7,,,57,100
24320,note_off,,,,,0,0,15,,,,,7,,,73,100
24320,note_off,,,,,128,0,10,,,,,2,,,85,100
24320,note_off,,,,,0,0,12,,,,,4,,,69,100
24320,note_off,,,,,128,0,14,,,,,6,,,45,100
24320,note_off,,,,,128,0,11,,,,,3,,,76,100
24324,note_off,,,,,128,0,8,,,,,0,,,85,100
24324,note_off,,,,,128,0,9,,,,,1,,,76,100
24352,note_off,,,,,64,0,13,,,,,5,,,59,100
24384,note_on,,,,,32,0,13,,,,,5,,,57,60
24448,note_off,,,,,64,0,13,,,,,5,,,57,100
24480,note_on,,,,,32,0,13,,,,,5,,,55,60
24544,note_off,,,,,64,0,13,,,,,5,,,55,100
24576,note_on,,,,,0,0,15,,,,,7,,,73,100
24576,note_on,,,,,256,0,11,,,,,3,,,74,50
24576,note_on,,,,,32,0,13,,,,,5,,,54,60
24576,note_on,,,,,256,0,15,,,,,7,,,74,100
24576,note_on,,,,,256,0,12,,,,,4,,,66,60
24576,note_on,,,,,0,0,12,,,,,4,,,69,60
24576,note_on,,,,,256,0,14,,,,,6,,,42,60
24576,note_on,,,,,256,0,16,,,,,7,,,54,100
24576,note_on,,,,,256,0,10,,,,,2,,,85,60
24580,note_on,,,,,256,0,8,,,,,0,,,85,50
24580,note_on,,,,,256,0,9,,,,,1,,,74,60
24640,note_off,,,,,64,0,13,,,,,5,,,54,100
24672,note_on,,,,,32,0,13,,,,,5,,,52,60
24704,note_off,,,,,128,0,10,,,,,2,,,85,100
24704,note_off,,,,,128,0,12,,,,,4,,,66,100
24704,note_off,,,,,0,0,12,,,,,4,,,69,100
24704,note_off,,,,,128,0,11,,,,,3,,,74,100
24704,note_off,,,,,128,0,14,,,,,6,,,42,100
24704,note_off,,,,,128,0,16,,,,,7,,,54,100
24704,note_off,,,,,0,0,15,,,,,7,,,73,100
24704,note_off,,,,,128,0,15,,,,,7,,,74,100
24708,note_off,,,,,128,0,8,,,,,0,,,85,100
24708,note_off,,,,,128,0,9,,,,,1,,,74,100
24736,note_off,,,,,64,0,13,,,,,5,,,52,100
24768,note_on,,,,,32,0,13,,,,,5,,,54,60
24832,note_off,,,,,64,0,13,,,,,5,,,54,100
24864,note_on,,,,,32,0,13,,,,,5,,,50,60
24928,note_off,,,,,64,0,13,,,,,5,,,50,100
24960,note_on,,,,,32,0,13,,,,,5,,,55,60
24960,note_on,,,,,256,0,10,,,,,2,,,83,60
24960,note_on,,,,,256,0,11,,,,,3,,,74,50
24960,note_on,,,,,256,0,16,,,,,7,,,55,100
24960,note_on,,,,,256,0,12,,,,,4,,,62,60
24960,note_on,,,,,0,0,12,,,,,4,,,67,60
24960,note_on,,,,,0,0,15,,,,,7,,,71,100
24960,note_on,,,,,256,0,14,,,,,6,,,43,60
24960,note_on,,,,,256,0,15,,,,,7,,,74,100
24964,note_on,,,,,256,0,9,,,,,1,,,74,60
24964,note_on,,,,,256,0,8,,,,,0,,,83,50
25024,note_off,,,,,64,0,13,,,,,5,,,55,100
25056,note_on,,,,,32,0,13,,,,,5,,,57,60
25088,note_off,,,,,128,0,14,,,,,6,,,43,100
25088,note_off,,,,,128,0,11,,,,,3,,,74,100
25088,note_off,,,,,128,0,15,,,,,7,,,74,100
25088,note_off,,,,,0,0,15,,,,,7,,,71,100
25088,note_off,,,,,128,0,12,,,,,4,,,62,100
25088,note_off,,,,,128,0,10,,,,,2,,,83,100
25088,note_off,,,,,128,0,16,,,,,7,,,55,100
25088,note_off,,,,,0,0,12,,,,,4,,,67,100
25092,note_off,,,,,128,0,9,,,,,1,,,74,100
25092,note_off,,,,,128,0,8,,,,,0,,,83,100
25120,note_off,,,,,64,0,13,,,,,5,,,57,100
25152,note_on,,,,,32,0,13,,,,,5,,,55,60
25216,note_off,,,,,64,0,13,,,,,5,,,55,100
25248,note_on,,,,,32,0,13,,,,,5,,,54,60
25312,note_off,,,,,64,0,13,,,,,5,,,54,100
25344,note_on,,,,,256,0,10,,,,,2,,,83,60
25344,note_on,,,,,0,0,15,,,,,7,,,71,100
25344,note_on,,,,,256,0,15,,,,,7,,,73,100
25344,note_on,,,,,32,0,13,,,,,5,,,52,60
25344,note_on,,,,,256,0,16,,,,,7,,,52,100
25344,note_on,,,,,256,0,11,,,,,3,,,73,50
25344,note_on,,,,,0,0,12,,,,,4,,,67,60
25344,note_on,,,,,256,0,12,,,,,4,,,64,60
25344,note_on,,,,,256,0,14,,,,,6,,,40,60
25348,note_on,,,,,256,0,8,,,,,0,,,83,50
25348,note_on,,,,,256,0,9,,,,,1,,,73,60
25408,note_off,,,,,64,0,13,,,,,5,,,52,100
25440,note_on,,,,,32,0,13,,,,,5,,,50,60
25472,note_off,,,,,128,0,11,,,,,3,,,73,100
25472,note_off,,,,,128,0,14,,,,,6,,,40,100
25472,note_off,,,,,128,0,15,,,,,7,,,73,100
25472,note_off,,,,,0,0,15,,,,,7,,,71,100
25472,note_off,,,,,128,0,12,,,,,4,,,64,100
25472,note_off,,,,,0,0,12,,,,,4,,,67,100
25472,note_off,,,,,128,0,10,,,,,2,,,83,100
25472,note_off,,,,,128,0,16,,,,,7,,,52,100
25476,note_off,,,,,128,0,9,,,,,1,,,73,100
25476,note_off,,,,,128,0,8,,,,,0,,,83,100
25504,note_off,,,,,64,0,13,,,,,5,,,50,100
25536,note_on,,,,,32,0,13,,,,,5,,,52,60
25600,note_off,,,,,64,0,13,,,,,5,,,52,100
25632,note_on,,,,,32,0,13,,,,,5,,,49,60
25696,note_off,,,,,64,0,13,,,,,5,,,49,100
25728,note_on,,,,,32,0,13,,,,,5,,,54,60
25728,note_on,,,,,256,0,14,,,,,6,,,42,60
25728,note_on,,,,,256,0,15,,,,,7,,,73,100
25728,note_on,,,,,0,0,15,,,,,7,,,69,100
25728,note_on,,,,,256,0,11,,,,,3,,,73,50
25728,note_on,,,,,256,0,12,,,,,4,,,61,60
25728,note_on,,,,,256,0,16,,,,,7,,,54,100
25728,note_on,,,,,256,0,10,,,,,2,,,81,60
25728,note_on,,,,,0,0,12,,,,,4,,,66,60
25732,note_on,,,,,256,0,8,,,,,0,,,81,50
25732,note_on,,,,,256,0,9,,,,,1,,,73,60
25792,note_off,,,,,64,0,13,,,,,5,,,54,100
25824,note_on,,,,,32,0,13,,,,,5,,,55,60
25856,note_off,,,,,0,0,15,,,,,7,,,69,100
25856,note_off,,,,,128,0,11,,,,,3,,,73,100
25856,note_off,,,,,128,0,15,,,,,7,,,73,100
25856,note_off,,,,,128,0,10,,,,,2,,,81,100
25856,note_off,,,,,128,0,16,,,,,7,,,54,100
25856,note_off,,,,,128,0,14,,,,,6,,,42,100
25856,note_off,,,,,0,0,12,,,,,4,,,66,100
25856,note_off,,,,,128,0,12,,,,,4,,,61,100
25860,note_off,,,,,128,0,8,,,,,0,,,81,100
25860,note_off,,,,,128,0,9,,,,,1,,,73,100
25888,note_off,,,,,64,0,13,,,,,5,,,55,100
25920,note_on,,,,,32,0,13,,,,,5,,,54,60
25984,note_off,,,,,64,0,13,,,,,5,,,54,100
26016,note_on,,,,,32,0,13,,,,,5,,,52,60
26080,note_off,,,,,64,0,13,,,,,5,,,52,100
26112,note_on,,,,,32,0,13,,,,,5,,,50,60
26112,note_on,,,,,256,0,10,,,,,2,,,81,60
26112,note_on,,,,,0,0,12,,,,,4,,,66,60
26112,note_on,,,,,256,0,12,,,,,4,,,62,60
26112,note_on,,,,,256,0,14,,,,,6,,,38,60
26112,note_on,,,,,0,0,15,,,,,7,,,69,100
26112,note_on,,,,,256,0,15,,,,,7,,,71,100
26112,note_on,,,,,256,0,16,,,,,7,,,50,100
26112,note_on,,,,,256,0,11,,,,,3,,,71,50
26116,note_on,,,,,256,0,8,,,,,0,,,81,50
26116,note_on,,,,,256,0,9,,,,,1,,,71,60
26176,note_off,,,,,64,0,13,,,,,5,,,50,100
26208,note_on,,,,,32,0,13,,,,,5,,,49,60
26240,note_off,,,,,128,0,16,,,,,7,,,50,100
26240,note_off,,,,,0,0,12,,,,,4,,,66,100
26240,note_off,,,,,128,0,10,,,,,2,,,81,100
26240,note_off,,,,,128,0,12,,,,,4,,,62,100
26240,note_off,,,,,128,0,11,,,,,3,,,71,100
26240,note_off,,,,,128,0,14,,,,,6,,,38,100
26240,note_off,,,,,0,0,15,,,,,7,,,69,100
26240,note_off,,,,,128,0,15,,,,,7,,,71,100
26244,note_off,,,,,128,0,8,,,,,0,,,81,100
26244,note_off,,,,,128,0,9,,,,,1,,,71,100
26272,note_off,,,,,64,0,13,,,,,5,,,49,100
26304,note_on,,,,,32,0,13,,,,,5,,,50,60
26368,note_off,,,,,64,0,13,,,,,5,,,50,100
26400,note_on,,,,,32,0,13,,,,,5,,,47,60
26464,note_off,,,,,64,0,13,,,,,5,,,47,100
26496,note_on,,,,,256,0,14,,,,,6,,,40,60
26496,note_on,,,,,256,0,12,,,,,4,,,59,60
26496,note_on,,,,,32,0,13,,,,,5,,,52,60
26496,note_on,,,,,0,0,12,,,,,4,,,64,60
26496,note_on,,,,,256,0,16,,,,,7,,,52,100
26496,note_on,,,,,256,0,11,,,,,3,,,71,50
26496,note_on,,,,,256,0,15,,,,,7,,,71,100
26496,note_on,,,,,0,0,15,,,,,7,,,67,100
26496,note_on,,,,,256,0,10,,,,,2,,,79,60
26500,note_on,,,,,256,0,8,,,,,0,,,79,50
26500,note_on,,,,,256,0,9,,,,,1,,,71,60
26560,note_off,,,,,64,0,13,,,,,5,,,52,100
26592,note_on,,,,,32,0,13,,,,,5,,,54,60
26624,note_off,,,,,128,0,11,,,,,3,,,71,100
26624,note_off,,,,,0,0,15,,,,,7,,,67,100
26624,note_off,,,,,128,0,10,,,,,2,,,79,100
26624,note_off,,,,,128,0,15,,,,,7,,,71,100
26624,note_off,,,,,128,0,16,,,,,7,,,52,100
26624,note_off,,,,,128,0,12,,,,,4,,,59,100
26624,note_off,,,,,0,0,12,,,,,4,,,64,100
26624,note_off,,,,,128,0,14,,,,,6,,,40,100
26628,note_off,,,,,128,0,8,,,,,0,,,79,100
26628,note_off,,,,,128,0,9,,,,,1,,,71,100
26656,note_off,,,,,64,0,13,,,,,5,,,54,100
26688,note_on,,,,,32,0,13,,,,,5,,,55,60
26752,note_off,,,,,64,0,13,,,,,5,,,55,100
26784,note_on,,,,,32,0,13,,,,,5,,,52,60
26848,note_off,,,,,64,0,13,,,,,5,,,52,100
26880,note_on,,,,,256,0,10,,,,,2,,,79,60
26880,note_on,,,,,0,0,15,,,,,7,,,64,100
26880,note_on,,,,,0,0,12,,,,,4,,,64,60
26880,note_on,,,,,256,0,16,,,,,7,,,45,100
26880,note_on,,,,,256,0,11,,,,,3,,,73,50
26880,note_on,,,,,256,0,12,,,,,4,,,57,60
26880,note_on,,,,,256,0,15,,,,,7,,,67,100
26880,note_on,,,,,256,0,14,,,,,6,,,33,60
26880,note_on,,,,,32,0,13,,,,,5,,,57,60
26884,note_on,,,,,256,0,8,,,,,0,,,79,50
26884,note_on,,,,,256,0,9,,,,,1,,,73,60
26944,note_off,,,,,64,0,13,,,,,5,,,57,100
26976,note_on,,,,,32,0,13,,,,,5,,,59,60
27008,note_off,,,,,128,0,16,,,,,7,,,45,100
27008,note_off,,,,,128,0,10,,,,,2,,,79,100
27008,note_off,,,,,0,0,15,,,,,7,,,64,100
27008,note_off,,,,,128,0,14,,,,,6,,,33,100
27008,note_off,,,,,128,0,15,,,,,7,,,67,100
27008,note_off,,,,,128,0,12,,,,,4,,,57,100
27008,note_off,,,,,0,0,12,,,,,4,,,64,100
27008,note_off,,,,,128,0,11,,,,,3,,,73,100
27012,note_off,,,,,128,0,8,,,,,0,,,79,100
27012,note_off,,,,,128,0,9,,,,,1,,,73,100
27040,note_off,,,,,64,0,13,,,,,5,,,59,100
27072,note_on,,,,,32,0,13,,,,,5,,,61,60
27136,note_off,,,,,64,0,13,,,,,5,,,61,100
27168,note_on,,,,,32,0,13,,,,,5,,,57,60
27232,note_off,,,,,64,0,13,,,,,5,,,57,100
27264,note_on,,,,,256,0,14,,,,,6,,,38,60
27264,note_on,,,,,256,0,15,,,,,7,,,69,100
27264,note_on,,,,,0,0,15,,,,,7,,,66,100
27264,note_on,,,,,256,0,16,,,,,7,,,50,100
27264,note_on,,,,,32,0,13,,,,,5,,,50,60
27264,note_on,,,,,0,0,12,,,,,4,,,62,60
27264,note_on,,,,,256,0,12,,,,,4,,,57,60
27264,note_on,,,,,256,0,11,,,,,3,,,74,50
27264,note_on,,,,,256,0,10,,,,,2,,,78,60
27268,note_on,,,,,256,0,8,,,,,0,,,78,50
27268,note_on,,,,,256,0,9,,,,,1,,,74,60
27328,note_off,,,,,64,0,13,,,,,5,,,50,100
27360,note_on,,,,,32,0,13,,,,,5,,,52,60
27392,note_off,,,,,128,0,15,,,,,7,,,69,100
27392,note_off,,,,,0,0,15,,,,,7,,,66,100
27392,note_off,,,,,128,0,14,,,,,6,,,38,100
27392,note_off,,,,,128,0,12,,,,,4,,,57,100
27392,note_off,,,,,0,0,12,,,,,4,,,62,100
27392,note_off,,,,,128,0,16,,,,,7,,,50,100
27392,note_off,,,,,128,0,11,,,,,3,,,74,100
27392,note_off,,,,,128,0,10,,,,,2,,,78,100
27396,note_off,,,,,128,0,9,,,,,1,,,74,100
27396,note_off,,,,,128,0,8,,,,,0,,,78,100
27424,note_off,,,,,64,0,13,,,,,5,,,52,100
27456,note_on,,,,,32,0,13,,,,,5,,,54,60
27520,note_off,,,,,64,0,13,,,,,5,,,54,100
27552,note_on,,,,,32,0,13,,,,,5,,,50,60
27616,note_off,,,,,64,0,13,,,,,5,,,50,100
27648,note_on,,,,,256,0,16,,,,,7,,,43,100
27648,note_on,,,,,256,0,11,,,,,3,,,74,50
27648,note_on,,,,,0,0,12,,,,,4,,,64,60
27648,note_on,,,,,0,0,15,,,,,7,,,62,100
27648,note_on,,,,,256,0,10,,,,,2,,,76,60
27648,note_on,,,,,256,0,15,,,,,7,,,64,100
27648,note_on,,,,,32,0,13,,,,,5,,,55,60
27648,note_on,,,,,256,0,14,,,,,6,,,31,60
27648,note_on,,,,,256,0,12,,,,,4,,,59,60
27652,note_on,,,,,256,0,8,,,,,0,,,76,50
27652,note_on,,,,,256,0,9,,,,,1,,,74,60
27712,note_off,,,,,64,0,13,,,,,5,,,55,100
27744,note_on,,,,,32,0,13,,,,,5,,,54,60
27776,note_off,,,,,128,0,16,,,,,7,,,43,100
27776,note_off,,,,,128,0,10,,,,,2,,,76,100
27776,note_off,,,,,128,0,12,,,,,4,,,59,100
27776,note_off,,,,,0,0,12,,,,,4,,,64,100
27776,note_off,,,,,0,0,15,,,,,7,,,62,100
27776,note_off,,,,,128,0,15,,,,,7,,,64,100
27776,note_off,,,,,128,0,14,,,,,6,,,31,100
27776,note_off,,,,,128,0,11,,,,,3,,,74,100
27780,note_off,,,,,128,0,8,,,,,0,,,76,100
27780,note_off,,,,,128,0,9,,,,,1,,,74,100
27808,note_off,,,,,64,0,13,,,,,5,,,54,100
27840,note_on,,,,,32,0,13,,,,,5,,,55,60
27904,note_off,,,,,64,0,13,,,,,5,,,55,100
27936,note_on,,,,,32,0,13,,,,,5,,,52,60
28000,note_off,,,,,64,0,13,,,,,5,,,52,100
28032,note_on,,,,,256,0,11,,,,,3,,,73,50
28032,note_on,,,,,256,0,14,,,,,6,,,33,60
28032,note_on,,,,,256,0,16,,,,,7,,,45,100
28032,note_on,,,,,256,0,10,,,,,2,,,76,60
28032,note_on,,,,,0,0,12,,,,,4,,,69,60
28032,note_on,,,,,256,0,12,,,,,4,,,61,60
28032,note_on,,,,,0,0,15,,,,,7,,,61,100
28032,note_on,,,,,256,0,15,,,,,7,,,64,100
28032,note_on,,,,,32,0,13,,,,,5,,,57,60
28036,note_on,,,,,256,0,8,,,,,0,,,76,50
28036,note_on,,,,,256,0,9,,,,,1,,,73,60
28096,note_off,,,,,64,0,13,,,,,5,,,57,100
28128,note_on,,,,,32,0,13,,,,,5,,,55,60
28160,note_off,,,,,0,0,15,,,,,7,,,61,100
28160,note_off,,,,,128,0,11,,,,,3,,,73,100
28160,note_off,,,,,128,0,14,,,,,6,,,33,100
28160,note_off,,,,,0,0,12,,,,,4,,,69,100
28160,note_off,,,,,128,0,12,,,,,4,,,61,100
28160,note_off,,,,,128,0,15,,,,,7,,,64,100
28160,note_off,,,,,128,0,16,,,,,7,,,45,100
28160,note_off,,,,,128,0,10,,,,,2,,,76,100
28164,note_off,,,,,128,0,8,,,,,0,,,76,100
28164,note_off,,,,,128,0,9,,,,,1,,,73,100
28192,note_off,,,,,64,0,13,,,,,5,,,55,100
28224,note_on,,,,,32,0,13,,,,,5,,,57,60
28288,note_off,,,,,64,0,13,,,,,5,,,57,100
28320,note_on,,,,,32,0,13,,,,,5,,,45,60
28384,note_off,,,,,64,0,13,,,,,5,,,45,100
28412,program_change,,,,,28,0,13,,,,,5,48,,,
28416,note_on,,,,,256,0,11,,,,,3,,,74,50
28416,program_change,,,,,252,0,9,,,,,1,40,,,
28416,note_on,,,,,256,0,14,,,,,6,,,38,60
28416,note_on,,,,,0,0,12,,,,,4,,,57,60
28416,note_on,,,,,256,0,12,,,,,4,,,66,60
28416,note_on,,,,,256,0,10,,,,,2,,,78,60
28416,note_on,,,,,4,0,13,,,,,5,,,50,60
28420,note_on,,,,,256,0,8,,,,,0,,,78,50
28420,note_on,,,,,4,0,9,,,,,1,,,74,85
28484,note_off,,,,,64,0,9,,,,,1,,,74,100
28516,note_on,,,,,32,0,9,,,,,1,,,62,85
28580,note_off,,,,,64,0,9,,,,,1,,,62,100
28612,note_on,,,,,32,0,9,,,,,1,,,64,85
28672,note_off,,,,,256,0,11,,,,,3,,,74,100
28672,note_off,,,,,256,0,10,,,,,2,,,78,100
28672,note_off,,,,,256,0,12,,,,,4,,,66,100
28672,note_off,,,,,0,0,12,,,,,4,,,57,100
28676,note_off,,,,,64,0,9,,,,,1,,,64,100
28676,note_off,,,,,256,0,8,,,,,0,,,78,100
28708,note_on,,,,,32,0,9,,,,,1,,,66,85
28772,note_off,,,,,64,0,9,,,,,1,,,66,100
28804,note_on,,,,,32,0,9,,,,,1,,,67,85
28868,note_off,,,,,64,0,9,,,,,1,,,67,100
28900,note_on,,,,,32,0,9,,,,,1,,,69,85
28964,note_off,,,,,64,0,9,,,,,1,,,69,100
28996,note_on,,,,,32,0,9,,,,,1,,,71,85
29060,note_off,,,,,64,0,9,,,,,1,,,71,100
29092,note_on,,,,,32,0,9,,,,,1,,,73,85
29156,note_off,,,,,64,0,9,,,,,1,,,73,100
29188,note_on,,,,,32,0,9,,,,,1,,,74,85
29252,note_off,,,,,64,0,9,,,,,1,,,74,100
29284,note_on,,,,,32,0,9,,,,,1,,,69,85
29348,note_off,,,,,64,0,9,,,,,1,,,69,100
29380,note_on,,,,,32,0,9,,,,,1,,,71,85
29444,note_off,,,,,64,0,9,,,,,1,,,71,100
29476,note_on,,,,,32,0,9,,,,,1,,,73,85
29540,note_off,,,,,64,0,9,,,,,1,,,73,100
29572,note_on,,,,,32,0,9,,,,,1,,,74,85
29636,note_off,,,,,64,0,9,,,,,1,,,74,100
29668,note_on,,,,,32,0,9,,,,,1,,,66,85
29732,note_off,,,,,64,0,9,,,,,1,,,66,100
29764,note_on,,,,,32,0,9,,,,,1,,,67,85
29828,note_off,,,,,64,0,9,,,,,1,,,67,100
29860,note_on,,,,,32,0,9,,,,,1,,,69,85
29924,note_off,,,,,64,0,9,,,,,1,,,69,100
29956,note_on,,,,,32,0,9,,,,,1,,,62,85
30020,note_off,,,,,64,0,9,,,,,1,,,62,100
30052,note_on,,,,,32,0,9,,,,,1,,,69,85
30116,note_off,,,,,64,0,9,,,,,1,,,69,100
30148,note_on,,,,,32,0,9,,,,,1,,,67,85
30212,note_off,,,,,64,0,9,,,,,1,,,67,100
30244,note_on,,,,,32,0,9,,,,,1,,,69,85
30308,note_off,,,,,64,0,9,,,,,1,,,69,100
30340,note_on,,,,,32,0,9,,,,,1,,,66,85
30404,note_off,,,,,64,0,9,,,,,1,,,66,100
30436,note_on,,,,,32,0,9,,,,,1,,,67,85
30500,note_off,,,,,64,0,9,,,,,1,,,67,100
30532,note_on,,,,,32,0,9,,,,,1,,,64,85
30596,note_off,,,,,64,0,9,,,,,1,,,64,100
30628,note_on,,,,,32,0,9,,,,,1,,,66,85
30692,note_off,,,,,64,0,9,,,,,1,,,66,100
30724,note_on,,,,,32,0,9,,,,,1,,,62,85
30788,note_off,,,,,64,0,9,,,,,1,,,62,100
30820,note_on,,,,,32,0,9,,,,,1,,,69,85
30884,note_off,,,,,64,0,9,,,,,1,,,69,100
30916,note_on,,,,,32,0,9,,,,,1,,,67,85
30980,note_off,,,,,64,0,9,,,,,1,,,67,100
31012,note_on,,,,,32,0,9,,,,,1,,,69,85
31076,note_off,,,,,64,0,9,,,,,1,,,69,100
31108,note_on,,,,,32,0,9,,,,,1,,,66,85
31172,note_off,,,,,64,0,9,,,,,1,,,66,100
31204,note_on,,,,,32,0,9,,,,,1,,,67,85
31268,note_off,,,,,64,0,9,,,,,1,,,67,100
31300,note_on,,,,,32,0,9,,,,,1,,,64,85
31364,note_off,,,,,64,0,9,,,,,1,,,64,100
31396,note_on,,,,,32,0,9,,,,,1,,,66,85
31460,note_off,,,,,64,0,9,,,,,1,,,66,100
31492,note_on,,,,,32,0,9,,,,,1,,,62,85
31556,note_off,,,,,64,0,9,,,,,1,,,62,100
31588,note_on,,,,,32,0,9,,,,,1,,,66,85
31652,note_off,,,,,64,0,9,,,,,1,,,66,100
31684,note_on,,,,,32,0,9,,,,,1,,,64,85
31748,note_off,,,,,64,0,9,,,,,1,,,64,100
31780,note_on,,,,,32,0,9,,,,,1,,,62,85
31844,note_off,,,,,64,0,9,,,,,1,,,62,100
31876,note_on,,,,,32,0,9,,,,,1,,,69,85
31940,note_off,,,,,64,0,9,,,,,1,,,69,100
31972,note_on,,,,,32,0,9,,,,,1,,,73,85
32036,note_off,,,,,64,0,9,,,,,1,,,73,100
32068,note_on,,,,,32,0,9,,,,,1,,,71,85
32132,note_off,,,,,64,0,9,,,,,1,,,71,100
32164,note_on,,,,,32,0,9,,,,,1,,,69,85
32228,note_off,,,,,64,0,9,,,,,1,,,69,100
32260,note_on,,,,,32,0,9,,,,,1,,,74,85
32324,note_off,,,,,64,0,9,,,,,1,,,74,100
32356,note_on,,,,,32,0,9,,,,,1,,,78,85
32420,note_off,,,,,64,0,9,,,,,1,,,78,100
32452,note_on,,,,,32,0,9,,,,,1,,,76,85
32516,note_off,,,,,64,0,9,,,,,1,,,76,100
32548,note_on,,,,,32,0,9,,,,,1,,,74,85
32612,note_off,,,,,64,0,9,,,,,1,,,74,100
32644,note_on,,,,,32,0,9,,,,,1,,,81,85
32708,note_off,,,,,64,0,9,,,,,1,,,81,100
32740,note_on,,,,,32,0,9,,,,,1,,,78,85
32804,note_off,,,,,64,0,9,,,,,1,,,78,100
32836,note_on,,,,,32,0,9,,,,,1,,,79,85
32900,note_off,,,,,64,0,9,,,,,1,,,79,100
32932,note_on,,,,,32,0,9,,,,,1,,,81,85
32996,note_off,,,,,64,0,9,,,,,1,,,81,100
33028,note_on,,,,,32,0,9,,,,,1,,,74,85
33092,note_off,,,,,64,0,9,,,,,1,,,74,100
33124,note_on,,,,,32,0,9,,,,,1,,,81,85
33188,note_off,,,,,64,0,9,,,,,1,,,81,100
33220,note_on,,,,,32,0,9,,,,,1,,,79,85
33284,note_off,,,,,64,0,9,,,,,1,,,79,100
33316,note_on,,,,,32,0,9,,,,,1,,,81,85
33380,note_off,,,,,64,0,9,,,,,1,,,81,100
33412,note_on,,,,,32,0,9,,,,,1,,,78,85
33476,note_off,,,,,64,0,9,,,,,1,,,78,100
33508,note_on,,,,,32,0,9,,,,,1,,,79,85
33572,note_off,,,,,64,0,9,,,,,1,,,79,100
33604,note_on,,,,,32,0,9,,,,,1,,,76,85
33668,note_off,,,,,64,0,9,,,,,1,,,76,100
33700,note_on,,,,,32,0,9,,,,,1,,,78,85
33764,note_off,,,,,64,0,9,,,,,1,,,78,100
33796,note_on,,,,,32,0,9,,,,,1,,,74,85
33860,note_off,,,,,64,0,9,,,,,1,,,74,100
33892,note_on,,,,,32,0,9,,,,,1,,,81,85
33956,note_off,,,,,64,0,9,,,,,1,,,81,100
33988,note_on,,,,,32,0,9,,,,,1,,,79,85
34052,note_off,,,,,64,0,9,,,,,1,,,79,100
34084,note_on,,,,,32,0,9,,,,,1,,,81,85
34148,note_off,,,,,64,0,9,,,,,1,,,81,100
34180,note_on,,,,,32,0,9,,,,,1,,,78,85
34244,note_off,,,,,64,0,9,,,,,1,,,78,100
34276,note_on,,,,,32,0,9,,,,,1,,,79,85
34340,note_off,,,,,64,0,9,,,,,1,,,79,100
34372,note_on,,,,,32,0,9,,,,,1,,,76,85
34432,note_off,,,,,6016,0,14,,,,,6,,,38,100
34432,note_off,,,,,6016,0,13,,,,,5,,,50,100
34436,note_off,,,,,64,0,9,,,,,1,,,76,100
34468,note_on,,,,,32,0,9,,,,,1,,,78,85
34532,note_off,,,,,64,0,9,,,,,1,,,78,100
34564,note_on,,,,,32,0,9,,,,,1,,,74,85
34752,note_on,,,,,6592,0,15,,,,,7,,,62,100
34752,note_on,,,,,320,0,13,,,,,5,,,50,60
34752,note_on,,,,,6592,0,16,,,,,7,,,50,100
34752,note_on,,,,,320,0,14,,,,,6,,,38,60
34816,note_off,,,,,64,0,15,,,,,7,,,62,100
34816,note_off,,,,,64,0,13,,,,,5,,,50,100
34816,note_off,,,,,64,0,14,,,,,6,,,38,100
34816,note_off,,,,,64,0,16,,,,,7,,,50,100
34820,note_off,,,,,256,0,9,,,,,1,,,74,100
34848,note_on,,,,,32,0,13,,,,,5,,,52,60
34848,note_on,,,,,32,0,15,,,,,7,,,64,100
34848,note_on,,,,,32,0,16,,,,,7,,,52,100
34848,note_on,,,,,32,0,14,,,,,6,,,40,60
34912,note_off,,,,,64,0,15,,,,,7,,,64,100
34912,note_off,,,,,64,0,16,,,,,7,,,52,100
34912,note_off,,,,,64,0,13,,,,,5,,,52,100
34912,note_off,,,,,64,0,14,,,,,6,,,40,100
34940,program_change,,,,,6268,0,10,,,,,2,48,,,
34944,note_on,,,,,32,0,15,,,,,7,,,66,100
34944,note_on,,,,,32,0,13,,,,,5,,,54,60
34944,note_on,,,,,32,0,16,,,,,7,,,54,100
34944,program_change,,,,,124,0,9,,,,,1,48,,,
34944,note_on,,,,,32,0,14,,,,,6,,,42,60
35072,note_off,,,,,128,0,15,,,,,7,,,66,100
35072,note_off,,,,,128,0,16,,,,,7,,,54,100
35072,note_off,,,,,128,0,13,,,,,5,,,54,100
35072,note_off,,,,,128,0,14,,,,,6,,,42,100
35136,note_on,,,,,64,0,16,,,,,7,,,50,100
35136,note_on,,,,,64,0,13,,,,,5,,,50,60
35136,note_on,,,,,192,0,9,,,,,1,,,74,50
35136,note_on,,,,,0,0,12,,,,,4,,,57,60
35136,note_on,,,,,6460,0,8,,,,,0,,,78,50
35136,note_on,,,,,196,0,10,,,,,2,,,78,60
35136,note_on,,,,,64,0,14,,,,,6,,,38,60
35136,note_on,,,,,64,0,15,,,,,7,,,69,100
35136,note_on,,,,,6464,0,11,,,,,3,,,74,60
35136,note_on,,,,,6464,0,12,,,,,4,,,69,60
35264,note_off,,,,,128,0,13,,,,,5,,,50,100
35264,note_off,,,,,128,0,11,,,,,3,,,74,100
35264,note_off,,,,,0,0,12,,,,,4,,,57,100
35264,note_off,,,,,128,0,12,,,,,4,,,69,100
35264,note_off,,,,,128,0,14,,,,,6,,,38,100
35264,note_off,,,,,128,0,16,,,,,7,,,50,100
35264,note_off,,,,,128,0,15,,,,,7,,,69,100
35264,note_off,,,,,128,0,10,,,,,2,,,78,100
35264,note_off,,,,,128,0,9,,,,,1,,,74,100
35264,note_off,,,,,128,0,8,,,,,0,,,78,100
35328,note_on,,,,,64,0,9,,,,,1,,,73,50
35328,note_on,,,,,64,0,8,,,,,0,,,76,50
35328,note_on,,,,,64,0,16,,,,,7,,,57,100
35328,note_on,,,,,64,0,10,,,,,2,,,76,60
35328,note_on,,,,,64,0,14,,,,,6,,,45,60
35328,note_on,,,,,64,0,12,,,,,4,,,69,60
35328,note_on,,,,,0,0,12,,,,,4,,,57,60
35328,note_on,,,,,64,0,11,,,,,3,,,73,60
35328,note_on,,,,,64,0,13,,,,,5,,,57,60
35328,note_on,,,,,64,0,15,,,,,7,,,73,100
35392,note_off,,,,,64,0,8,,,,,0,,,76,100
35392,note_off,,,,,64,0,10,,,,,2,,,76,100
35392,note_off,,,,,64,0,9,,,,,1,,,73,100
35392,note_off,,,,,64,0,11,,,,,3,,,73,100
35424,note_on,,,,,32,0,10,,,,,2,,,74,60
35424,note_on,,,,,32,0,11,,,,,3,,,71,60
35424,note_on,,,,,32,0,8,,,,,0,,,74,50
35424,note_on,,,,,32,0,9,,,,,1,,,71,50
35456,note_off,,,,,128,0,16,,,,,7,,,57,100
35456,note_off,,,,,128,0,15,,,,,7,,,73,100
35456,note_off,,,,,128,0,13,,,,,5,,,57,100
35456,note_off,,,,,128,0,12,,,,,4,,,57,100
35456,note_off,,,,,128,0,14,,,,,6,,,45,100
35488,note_off,,,,,64,0,10,,,,,2,,,74,100
35488,note_off,,,,,64,0,8,,,,,0,,,74,100
35488,note_off,,,,,64,0,11,,,,,3,,,71,100
35488,note_off,,,,,64,0,9,,,,,1,,,71,100
35520,note_on,,,,,0,0,15,,,,,7,,,61,100
35520,note_on,,,,,32,0,11,,,,,3,,,73,60
35520,note_on,,,,,64,0,13,,,,,5,,,45,60
35520,note_on,,,,,64,0,12,,,,,4,,,57,60
35520,note_on,,,,,32,0,9,,,,,1,,,73,50
35520,note_on,,,,,64,0,16,,,,,7,,,45,100
35520,note_on,,,,,64,0,14,,,,,6,,,33,60
35520,note_on,,,,,64,0,15,,,,,7,,,64,100
35520,note_on,,,,,32,0,10,,,,,2,,,76,60
35520,note_on,,,,,32,0,8,,,,,0,,,76,50
35584,note_off,,,,,64,0,9,,,,,1,,,73,100
35584,note_off,,,,,64,0,12,,,,,4,,,69,100
35584,note_off,,,,,64,0,8,,,,,0,,,76,100
35584,note_off,,,,,64,0,10,,,,,2,,,76,100
35584,note_off,,,,,64,0,11,,,,,3,,,73,100
35616,note_on,,,,,32,0,8,,,,,0,,,78,50
35616,note_on,,,,,32,0,11,,,,,3,,,74,60
35616,note_on,,,,,32,0,10,,,,,2,,,78,60
35616,note_on,,,,,32,0,9,,,,,1,,,74,50
35648,note_off,,,,,128,0,14,,,,,6,,,33,100
35648,note_off,,,,,128,0,15,,,,,7,,,64,100
35648,note_off,,,,,0,0,15,,,,,7,,,61,100
35648,note_off,,,,,64,0,12,,,,,4,,,57,100
35648,note_off,,,,,128,0,16,,,,,7,,,45,100
35648,note_off,,,,,128,0,13,,,,,5,,,45,100
35680,note_off,,,,,64,0,11,,,,,3,,,74,100
35680,note_off,,,,,64,0,9,,,,,1,,,74,100
35680,note_off,,,,,64,0,8,,,,,0,,,78,100
35680,note_off,,,,,64,0,10,,,,,2,,,78,100
35712,note_on,,,,,32,0,8,,,,,0,,,79,50
35712,note_on,,,,,32,0,11,,,,,3,,,76,60
35712,note_on,,,,,64,0,12,,,,,4,,,57,60
35712,note_on,,,,,32,0,10,,,,,2,,,79,60
35712,note_on,,,,,32,0,9,,,,,1,,,76,50
35840,note_off,,,,,128,0,10,,,,,2,,,79,100
35840,note_off,,,,,128,0,9,,,,,1,,,76,100
35840,note_off,,,,,128,0,8,,,,,0,,,79,100
35840,note_off,,,,,128,0,12,,,,,4,,,57,100
35840,note_off,,,,,128,0,11,,,,,3,,,76,100
35904,note_on,,,,,256,0,14,,,,,6,,,38,60
35904,note_on,,,,,64,0,10,,,,,2,,,78,60
35904,note_on,,,,,64,0,9,,,,,1,,,74,50
35904,note_on,,,,,64,0,11,,,,,3,,,74,60
35904,note_on,,,,,256,0,13,,,,,5,,,50,60
35904,note_on,,,,,256,0,15,,,,,7,,,69,100
35904,note_on,,,,,256,0,16,,,,,7,,,50,100
35904,note_on,,,,,0,0,12,,,,,4,,,57,60
35904,note_on,,,,,64,0,12,,,,,4,,,69,60
35904,note_on,,,,,64,0,8,,,,,0,,,78,50
35904,note_on,,,,,0,0,15,,,,,7,,,66,100
36032,note_off,,,,,0,0,12,,,,,4,,,57,100
36032,note_off,,,,,128,0,11,,,,,3,,,74,100
36032,note_off,,,,,128,0,8,,,,,0,,,78,100
36032,note_off,,,,,128,0,14,,,,,6,,,38,100
36032,note_off,,,,,128,0,12,,,,,4,,,69,100
36032,note_off,,,,,128,0,16,,,,,7,,,50,100
36032,note_off,,,,,128,0,9,,,,,1,,,74,100
36032,note_off,,,,,128,0,10,,,,,2,,,78,100
36032,note_off,,,,,128,0,13,,,,,5,,,50,100
36032,note_off,,,,,0,0,15,,,,,7,,,66,100
36032,note_off,,,,,128,0,15,,,,,7,,,69,100
36096,note_on,,,,,64,0,11,,,,,3,,,73,60
36096,note_on,,,,,0,0,12,,,,,4,,,57,60
36096,note_on,,,,,64,0,12,,,,,4,,,69,60
36096,note_on,,,,,64,0,9,,,,,1,,,73,50
36096,note_on,,,,,64,0,15,,,,,7,,,73,100
36096,note_on,,,,,64,0,14,,,,,6,,,45,60
36096,note_on,,,,,64,0,8,,,,,0,,,76,50
36096,note_on,,,,,64,0,10,,,,,2,,,76,60
36096,note_on,,,,,64,0,13,,,,,5,,,57,60
36096,note_on,,,,,64,0,16,,,,,7,,,57,100
36160,note_off,,,,,64,0,8,,,,,0,,,76,100
36160,note_off,,,,,64,0,9,,,,,1,,,73,100
36160,note_off,,,,,64,0,11,,,,,3,,,73,100
36160,note_off,,,,,64,0,10,,,,,2,,,76,100
36192,note_on,,,,,32,0,11,,,,,3,,,71,60
36192,note_on,,,,,32,0,8,,,,,0,,,74,50
36192,note_on,,,,,32,0,9,,,,,1,,,71,50
36192,note_on,,,,,32,0,10,,,,,2,,,74,60
36224,note_off,,,,,128,0,12,,,,,4,,,57,100
36224,note_off,,,,,128,0,16,,,,,7,,,57,100
36224,note_off,,,,,128,0,14,,,,,6,,,45,100
36224,note_off,,,,,128,0,15,,,,,7,,,73,100
36224,note_off,,,,,128,0,13,,,,,5,,,57,100
36256,note_off,,,,,64,0,11,,,,,3,,,71,100
36256,note_off,,,,,64,0,9,,,,,1,,,71,100
36256,note_off,,,,,64,0,8,,,,,0,,,74,100
36256,note_off,,,,,64,0,10,,,,,2,,,74,100
36288,note_on,,,,,32,0,11,,,,,3,,,73,60
36288,note_on,,,,,32,0,10,,,,,2,,,76,60
36288,note_on,,,,,0,0,15,,,,,7,,,61,100
36288,note_on,,,,,64,0,15,,,,,7,,,64,100
36288,note_on,,,,,64,0,14,,,,,6,,,33,60
36288,note_on,,,,,32,0,9,,,,,1,,,73,50
36288,note_on,,,,,64,0,13,,,,,5,,,45,60
36288,note_on,,,,,32,0,8,,,,,0,,,76,50
36288,note_on,,,,,64,0,16,,,,,7,,,45,100
36288,note_on,,,,,64,0,12,,,,,4,,,57,60
36352,note_off,,,,,64,0,11,,,,,3,,,73,100
36352,note_off,,,,,64,0,9,,,,,1,,,73,100
36352,note_off,,,,,64,0,10,,,,,2,,,76,100
36352,note_off,,,,,64,0,12,,,,,4,,,69,100
36352,note_off,,,,,64,0,8,,,,,0,,,76,100
36384,note_on,,,,,32,0,9,,,,,1,,,74,50
36384,note_on,,,,,32,0,8,,,,,0,,,78,50
36384,note_on,,,,,32,0,10,,,,,2,,,78,60
36384,note_on,,,,,32,0,11,,,,,3,,,74,60
36416,note_off,,,,,64,0,12,,,,,4,,,57,100
36416,note_off,,,,,128,0,13,,,,,5,,,45,100
36416,note_off,,,,,0,0,15,,,,,7,,,61,100
36416,note_off,,,,,128,0,15,,,,,7,,,64,100
36416,note_off,,,,,128,0,14,,,,,6,,,33,100
36416,note_off,,,,,128,0,16,,,,,7,,,45,100
36448,note_off,,,,,64,0,11,,,,,3,,,74,100
36448,note_off,,,,,64,0,9,,,,,1,,,74,100
36448,note_off,,,,,64,0,8,,,,,0,,,78,100
36448,note_off,,,,,64,0,10,,,,,2,,,78,100
36480,note_on,,,,,32,0,11,,,,,3,,,76,60
36480,note_on,,,,,64,0,12,,,,,4,,,57,60
36480,note_on,,,,,32,0,8,,,,,0,,,79,50
36480,note_on,,,,,32,0,9,,,,,1,,,76,50
36480,note_on,,,,,32,0,10,,,,,2,,,79,60
36608,note_off,,,,,128,0,11,,,,,3,,,76,100
36608,note_off,,,,,128,0,12,,,,,4,,,57,100
36608,note_off,,,,,128,0,10,,,,,2,,,79,100
36608,note_off,,,,,128,0,8,,,,,0,,,79,100
36608,note_off,,,,,128,0,9,,,,,1,,,76,100
36672,note_on,,,,,0,0,12,,,,,4,,,57,60
36672,note_on,,,,,0,0,15,,,,,7,,,66,100
36672,note_on,,,,,256,0,15,,,,,7,,,69,100
36672,note_on,,,,,64,0,8,,,,,0,,,78,50
36672,note_on,,,,,64,0,10,,,,,2,,,78,60
36672,note_on,,,,,64,0,12,,,,,4,,,69,60
36672,note_on,,,,,64,0,11,,,,,3,,,74,60
36672,note_on,,,,,64,0,9,,,,,1,,,74,50
36672,note_on,,,,,256,0,16,,,,,7,,,50,100
36672,note_on,,,,,256,0,14,,,,,6,,,38,60
36672,note_on,,,,,256,0,13,,,,,5,,,50,60
36800,note_off,,,,,128,0,10,,,,,2,,,78,100
36800,note_off,,,,,128,0,9,,,,,1,,,74,100
36800,note_off,,,,,128,0,8,,,,,0,,,78,100
36800,note_off,,,,,128,0,14,,,,,6,,,38,100
36800,note_off,,,,,128,0,11,,,,,3,,,74,100
36800,note_off,,,,,0,0,15,,,,,7,,,66,100
36800,note_off,,,,,128,0,15,,,,,7,,,69,100
36800,note_off,,,,,128,0,16,,,,,7,,,50,100
36800,note_off,,,,,0,0,12,,,,,4,,,57,100
36800,note_off,,,,,128,0,12,,,,,4,,,69,100
36800,note_off,,,,,128,0,13,,,,,5,,,50,100
36864,note_on,,,,,64,0,16,,,,,7,,,57,100
36864,note_on,,,,,64,0,12,,,,,4,,,57,60
36864,note_on,,,,,64,0,14,,,,,6,,,45,60
36864,note_on,,,,,64,0,9,,,,,1,,,73,50
36864,note_on,,,,,64,0,11,,,,,3,,,73,60
36864,note_on,,,,,0,0,12,,,,,4,,,69,60
36864,note_on,,,,,64,0,15,,,,,7,,,73,100
36864,note_on,,,,,64,0,10,,,,,2,,,76,60
36864,note_on,,,,,64,0,8,,,,,0,,,76,50
36864,note_on,,,,,64,0,13,,,,,5,,,57,60
36928,note_off,,,,,64,0,8,,,,,0,,,76,100
36928,note_off,,,,,64,0,11,,,,,3,,,73,100
36928,note_off,,,,,64,0,9,,,,,1,,,73,100
36928,note_off,,,,,64,0,10,,,,,2,,,76,100
36960,note_on,,,,,32,0,11,,,,,3,,,71,60
36960,note_on,,,,,32,0,8,,,,,0,,,74,50
36960,note_on,,,,,32,0,9,,,,,1,,,71,50
36960,note_on,,,,,32,0,10,,,,,2,,,74,60
36992,note_off,,,,,128,0,14,,,,,6,,,45,100
36992,note_off,,,,,128,0,16,,,,,7,,,57,100
36992,note_off,,,,,128,0,12,,,,,4,,,57,100
36992,note_off,,,,,128,0,13,,,,,5,,,57,100
36992,note_off,,,,,128,0,15,,,,,7,,,73,100
37024,note_off,,,,,64,0,8,,,,,0,,,74,100
37024,note_off,,,,,64,0,11,,,,,3,,,71,100
37024,note_off,,,,,64,0,9,,,,,1,,,71,100
37024,note_off,,,,,64,0,10,,,,,2,,,74,100
37056,note_on,,,,,64,0,13,,,,,5,,,45,60
37056,note_on,,,,,64,0,14,,,,,6,,,33,60
37056,note_on,,,,,64,0,16,,,,,7,,,45,100
37056,note_on,,,,,32,0,10,,,,,2,,,76,60
37056,note_on,,,,,64,0,12,,,,,4,,,57,60
37056,note_on,,,,,32,0,9,,,,,1,,,73,50
37056,note_on,,,,,64,0,15,,,,,7,,,61,100
37056,note_on,,,,,32,0,11,,,,,3,,,73,60
37056,note_on,,,,,0,0,15,,,,,7,,,64,100
37056,note_on,,,,,32,0,8,,,,,0,,,76,50
37120,note_off,,,,,64,0,10,,,,,2,,,76,100
37120,note_off,,,,,64,0,9,,,,,1,,,73,100
37120,note_off,,,,,64,0,8,,,,,0,,,76,100
37120,note_off,,,,,64,0,12,,,,,4,,,69,100
37120,note_off,,,,,64,0,11,,,,,3,,,73,100
37152,note_on,,,,,32,0,9,,,,,1,,,74,50
37152,note_on,,,,,32,0,8,,,,,0,,,78,50
37152,note_on,,,,,32,0,11,,,,,3,,,74,60
37152,note_on,,,,,32,0,10,,,,,2,,,78,60
37184,note_off,,,,,128,0,13,,,,,5,,,45,100
37184,note_off,,,,,128,0,15,,,,,7,,,61,100
37184,note_off,,,,,64,0,12,,,,,4,,,57,100
37184,note_off,,,,,0,0,15,,,,,7,,,64,100
37184,note_off,,,,,128,0,16,,,,,7,,,45,100
37184,note_off,,,,,128,0,14,,,,,6,,,33,100
37216,note_off,,,,,64,0,10,,,,,2,,,78,100
37216,note_off,,,,,64,0,9,,,,,1,,,74,100
37216,note_off,,,,,64,0,11,,,,,3,,,74,100
37216,note_off,,,,,64,0,8,,,,,0,,,78,100
37248,program_change,,,,,64,0,13,,,,,5,43,,,
37248,note_on,,,,,32,0,9,,,,,1,,,76,50
37248,note_on,,,,,32,0,10,,,,,2,,,79,60
37248,note_on,,,,,32,0,8,,,,,0,,,79,50
37248,note_on,,,,,64,0,12,,,,,4,,,57,60
37248,note_on,,,,,32,0,11,,,,,3,,,76,60
37376,note_off,,,,,128,0,8,,,,,0,,,79,100
37376,note_off,,,,,128,0,12,,,,,4,,,57,100
37376,note_off,,,,,128,0,11,,,,,3,,,76,100
37376,note_off,,,,,128,0,10,,,,,2,,,79,100
37376,note_off,,,,,128,0,9,,,,,1,,,76,100
37440,note_on,,,,,0,0,15,,,,,7,,,66,100
37440,note_on,,,,,256,0,15,,,,,7,,,69,100
37440,note_on,,,,,64,0,10,,,,,2,,,78,60
37440,note_on,,,,,64,0,12,,,,,4,,,57,60
37440,note_on,,,,,256,0,14,,,,,6,,,38,60
37440,note_on,,,,,64,0,9,,,,,1,,,74,50
37440,note_on,,,,,0,0,12,,,,,4,,,69,60
37440,note_on,,,,,192,0,13,,,,,5,,,50,60
37440,note_on,,,,,256,0,16,,,,,7,,,50,100
37440,note_on,,,,,64,0,8,,,,,0,,,78,50
37440,note_on,,,,,64,0,11,,,,,3,,,74,60
37568,note_off,,,,,128,0,11,,,,,3,,,74,100
37568,note_off,,,,,128,0,12,,,,,4,,,57,100
37568,note_off,,,,,0,0,15,,,,,7,,,66,100
37568,note_off,,,,,128,0,9,,,,,1,,,74,100
37568,note_off,,,,,128,0,10,,,,,2,,,78,100
37568,note_off,,,,,128,0,14,,,,,6,,,38,100
37568,note_off,,,,,128,0,13,,,,,5,,,50,100
37568,note_off,,,,,128,0,8,,,,,0,,,78,100
37568,note_off,,,,,128,0,16,,,,,7,,,50,100
37568,note_off,,,,,0,0,12,,,,,4,,,69,100
37568,note_off,,,,,128,0,15,,,,,7,,,69,100
37632,note_on,,,,,64,0,16,,,,,7,,,57,100
37632,note_on,,,,,64,0,14,,,,,6,,,45,60
37632,note_on,,,,,0,0,12,,,,,4,,,69,60
37632,note_on,,,,,64,0,9,,,,,1,,,73,50
37632,note_on,,,,,64,0,10,,,,,2,,,76,60
37632,note_on,,,,,64,0,12,,,,,4,,,57,60
37632,note_on,,,,,64,0,15,,,,,7,,,73,100
37632,note_on,,,,,64,0,13,,,,,5,,,57,60
37632,note_on,,,,,64,0,8,,,,,0,,,76,50
37632,note_on,,,,,64,0,11,,,,,3,,,73,60
37696,note_off,,,,,64,0,8,,,,,0,,,76,100
37696,note_off,,,,,64,0,10,,,,,2,,,76,100
37728,note_on,,,,,32,0,8,,,,,0,,,74,50
37728,note_on,,,,,32,0,10,,,,,2,,,74,60
37760,note_off,,,,,128,0,14,,,,,6,,,45,100
37760,note_off,,,,,128,0,13,,,,,5,,,57,100
37760,note_off,,,,,128,0,16,,,,,7,,,57,100
37760,note_off,,,,,128,0,15,,,,,7,,,73,100
37792,note_off,,,,,64,0,8,,,,,0,,,74,100
37792,note_off,,,,,64,0,10,,,,,2,,,74,100
37824,note_on,,,,,32,0,10,,,,,2,,,73,60
37824,note_on,,,,,0,0,15,,,,,7,,,64,100
37824,note_on,,,,,32,0,8,,,,,0,,,73,50
37824,note_on,,,,,64,0,14,,,,,6,,,33,60
37824,note_on,,,,,64,0,15,,,,,7,,,61,100
37824,note_on,,,,,64,0,13,,,,,5,,,57,60
37824,note_on,,,,,64,0,16,,,,,7,,,45,100
37888,note_off,,,,,256,0,12,,,,,4,,,57,100
37888,note_off,,,,,0,0,12,,,,,4,,,69,100
37888,note_off,,,,,256,0,9,,,,,1,,,73,100
37888,note_off,,,,,64,0,8,,,,,0,,,73,100
37888,note_off,,,,,256,0,11,,,,,3,,,73,100
37888,note_off,,,,,64,0,13,,,,,5,,,57,100
37888,note_off,,,,,64,0,10,,,,,2,,,73,100
37920,note_on,,,,,32,0,8,,,,,0,,,71,50
37920,note_on,,,,,32,0,13,,,,,5,,,55,60
37920,note_on,,,,,32,0,10,,,,,2,,,71,60
37952,note_off,,,,,128,0,16,,,,,7,,,45,100
37952,note_off,,,,,128,0,15,,,,,7,,,61,100
37952,note_off,,,,,128,0,14,,,,,6,,,33,100
37952,note_off,,,,,0,0,15,,,,,7,,,64,100
37984,note_off,,,,,64,0,10,,,,,2,,,71,100
37984,note_off,,,,,64,0,13,,,,,5,,,55,100
37984,note_off,,,,,64,0,8,,,,,0,,,71,100
38016,note_on,,,,,32,0,10,,,,,2,,,69,60
38016,note_on,,,,,32,0,13,,,,,5,,,54,60
38016,note_on,,,,,32,0,8,,,,,0,,,69,50
38140,program_change,,,,,124,0,10,,,,,2,40,,,
38140,program_change,,,,,252,0,11,,,,,3,40,,,
38144,note_off,,,,,128,0,13,,,,,5,,,54,100
38144,note_off,,,,,4,0,10,,,,,2,,,69,100
38208,note_on,,,,,64,0,13,,,,,5,,,50,60
38208,note_on,,,,,68,0,11,,,,,3,,,74,60
38208,note_on,,,,,64,0,10,,,,,2,,,78,60
38272,note_off,,,,,256,0,8,,,,,0,,,69,100
38336,note_off,,,,,128,0,13,,,,,5,,,50,100
38336,note_off,,,,,128,0,11,,,,,3,,,74,100
38336,note_off,,,,,128,0,10,,,,,2,,,78,100
38400,note_on,,,,,64,0,10,,,,,2,,,76,60
38400,note_on,,,,,64,0,13,,,,,5,,,57,60
38400,note_on,,,,,64,0,11,,,,,3,,,73,60
38464,note_off,,,,,64,0,11,,,,,3,,,73,100
38464,note_off,,,,,64,0,10,,,,,2,,,76,100
38496,note_on,,,,,32,0,11,,,,,3,,,71,61
38496,note_on,,,,,32,0,10,,,,,2,,,74,61
38528,note_off,,,,,128,0,13,,,,,5,,,57,100
38560,note_off,,,,,64,0,10,,,,,2,,,74,100
38560,note_off,,,,,64,0,11,,,,,3,,,71,100
38592,note_on,,,,,32,0,10,,,,,2,,,76,62
38592,note_on,,,,,64,0,13,,,,,5,,,45,60
38592,note_on,,,,,32,0,11,,,,,3,,,73,62
38656,note_off,,,,,64,0,10,,,,,2,,,76,100
38656,note_off,,,,,64,0,11,,,,,3,,,73,100
38688,note_on,,,,,32,0,10,,,,,2,,,78,64
38688,note_on,,,,,32,0,11,,,,,3,,,74,64
38720,note_off,,,,,128,0,13,,,,,5,,,45,100
38752,note_off,,,,,64,0,11,,,,,3,,,74,100
38752,note_off,,,,,64,0,10,,,,,2,,,78,100
38784,note_on,,,,,32,0,11,,,,,3,,,76,65
38784,note_on,,,,,32,0,10,,,,,2,,,79,65
38912,note_off,,,,,128,0,10,,,,,2,,,79,100
38912,note_off,,,,,128,0,11,,,,,3,,,76,100
38976,note_on,,,,,64,0,11,,,,,3,,,74,68
38976,note_on,,,,,64,0,10,,,,,2,,,78,68
38976,note_on,,,,,256,0,13,,,,,5,,,50,60
39104,note_off,,,,,128,0,11,,,,,3,,,74,100
39104,note_off,,,,,128,0,10,,,,,2,,,78,100
39104,note_off,,,,,128,0,13,,,,,5,,,50,100
39168,note_on,,,,,64,0,11,,,,,3,,,73,71
39168,note_on,,,,,64,0,10,,,,,2,,,76,71
39168,note_on,,,,,64,0,13,,,,,5,,,57,60
39232,note_off,,,,,64,0,11,,,,,3,,,73,100
39232,note_off,,,,,64,0,10,,,,,2,,,76,100
39264,note_on,,,,,32,0,10,,,,,2,,,74,72
39264,note_on,,,,,32,0,11,,,,,3,,,71,72
39296,note_off,,,,,128,0,13,,,,,5,,,57,100
39328,note_off,,,,,64,0,10,,,,,2,,,74,100
39328,note_off,,,,,64,0,11,,,,,3,,,71,100
39360,note_on,,,,,32,0,10,,,,,2,,,76,74
39360,note_on,,,,,64,0,13,,,,,5,,,45,60
39360,note_on,,,,,32,0,11,,,,,3,,,73,74
39424,note_off,,,,,64,0,10,,,,,2,,,76,100
39424,note_off,,,,,64,0,11,,,,,3,,,73,100
39456,note_on,,,,,32,0,11,,,,,3,,,74,75
39456,note_on,,,,,32,0,10,,,,,2,,,78,75
39488,note_off,,,,,128,0,13,,,,,5,,,45,100
39520,note_off,,,,,64,0,10,,,,,2,,,78,100
39520,note_off,,,,,64,0,11,,,,,3,,,74,100
39552,note_on,,,,,32,0,11,,,,,3,,,76,77
39552,note_on,,,,,32,0,10,,,,,2,,,79,77
39680,note_off,,,,,128,0,10,,,,,2,,,79,100
39680,note_off,,,,,128,0,11,,,,,3,,,76,100
39744,note_on,,,,,64,0,10,,,,,2,,,78,79
39744,note_on,,,,,64,0,11,,,,,3,,,74,79
39744,note_on,,,,,256,0,13,,,,,5,,,50,60
39872,note_off,,,,,128,0,10,,,,,2,,,78,100
39872,note_off,,,,,128,0,13,,,,,5,,,50,100
39872,note_off,,,,,128,0,11,,,,,3,,,74,100
39936,note_on,,,,,64,0,10,,,,,2,,,76,82
39936,note_on,,,,,64,0,11,,,,,3,,,73,82
39936,program_change,,,,,1664,0,8,,,,,0,40,,,
39936,note_on,,,,,64,0,13,,,,,5,,,57,60
40000,note_off,,,,,64,0,10,,,,,2,,,76,100
40000,note_off,,,,,64,0,11,,,,,3,,,73,100
40032,note_on,,,,,32,0,10,,,,,2,,,74,84
40032,note_on,,,,,32,0,11,,,,,3,,,71,84
40064,note_off,,,,,128,0,13,,,,,5,,,57,100
40096,note_off,,,,,64,0,10,,,,,2,,,74,100
40096,note_off,,,,,64,0,11,,,,,3,,,71,100
40128,note_on,,,,,32,0,11,,,,,3,,,73,85
40128,note_on,,,,,32,0,10,,,,,2,,,76,85
40128,note_on,,,,,64,0,13,,,,,5,,,45,60
40192,note_off,,,,,64,0,10,,,,,2,,,76,100
40192,note_off,,,,,64,0,11,,,,,3,,,73,100
40224,note_on,,,,,32,0,10,,,,,2,,,78,87
40224,note_on,,,,,32,0,11,,,,,3,,,74,87
40256,note_off,,,,,128,0,13,,,,,5,,,45,100
40288,note_off,,,,,64,0,11,,,,,3,,,74,100
40288,note_off,,,,,64,0,10,,,,,2,,,78,100
40320,note_on,,,,,32,0,11,,,,,3,,,76,88
40320,note_on,,,,,32,0,10,,,,,2,,,79,88
40448,note_off,,,,,128,0,11,,,,,3,,,76,100
40448,note_off,,,,,128,0,10,,,,,2,,,79,100
40512,note_on,,,,,64,0,10,,,,,2,,,78,91
40512,note_on,,,,,256,0,13,,,,,5,,,50,60
40512,note_on,,,,,64,0,11,,,,,3,,,74,91
40640,note_off,,,,,128,0,10,,,,,2,,,78,100
40640,note_off,,,,,128,0,13,,,,,5,,,50,100
40640,note_off,,,,,128,0,11,,,,,3,,,74,100
40704,note_on,,,,,64,0,11,,,,,3,,,73,94
40704,note_on,,,,,64,0,13,,,,,5,,,57,60
40704,note_on,,,,,64,0,10,,,,,2,,,76,94
40768,note_off,,,,,64,0,10,,,,,2,,,76,100
40800,note_on,,,,,32,0,10,,,,,2,,,74,95
40832,note_off,,,,,128,0,13,,,,,5,,,57,100
40864,note_off,,,,,64,0,10,,,,,2,,,74,100
40896,note_on,,,,,64,0,13,,,,,5,,,45,60
40896,note_on,,,,,32,0,10,,,,,2,,,73,97
40960,note_off,,,,,64,0,10,,,,,2,,,73,100
40960,note_off,,,,,256,0,11,,,,,3,,,73,100
40992,note_on,,,,,32,0,10,,,,,2,,,71,98
40992,note_on,,,,,1056,0,8,,,,,0,,,76,100
41024,note_off,,,,,128,0,13,,,,,5,,,45,100
41056,note_off,,,,,64,0,8,,,,,0,,,76,100
41056,note_off,,,,,64,0,10,,,,,2,,,71,100
41088,note_on,,,,,32,0,8,,,,,0,,,81,100
41088,note_on,,,,,32,0,10,,,,,2,,,69,99
41152,note_off,,,,,64,0,8,,,,,0,,,81,100
41184,note_on,,,,,32,0,8,,,,,0,,,76,100
41248,note_off,,,,,64,0,8,,,,,0,,,76,100
41280,note_on,,,,,32,0,8,,,,,0,,,73,100
41344,note_off,,,,,64,0,8,,,,,0,,,73,100
41344,note_off,,,,,256,0,10,,,,,2,,,69,100
41376,note_on,,,,,32,0,8,,,,,0,,,81,100
41440,note_off,,,,,64,0,8,,,,,0,,,81,100
41472,note_on,,,,,32,0,8,,,,,0,,,81,100
41472,program_change,,,,,512,0,11,,,,,3,48,,,
41472,program_change,,,,,128,0,10,,,,,2,48,,,
41564,note_off,,,,,92,0,8,,,,,0,,,81,100
41568,note_on,,,,,4,0,8,,,,,0,,,79,100
41660,note_off,,,,,92,0,8,,,,,0,,,79,100
41664,note_on,,,,,3712,0,14,,,,,6,,,49,100
41664,note_on,,,,,0,0,15,,,,,7,,,69,100
41664,note_on,,,,,3712,0,15,,,,,7,,,67,100
41664,note_on,,,,,4,0,8,,,,,0,,,76,100
41664,note_on,,,,,3712,0,16,,,,,7,,,61,100
41664,note_on,,,,,640,0,13,,,,,5,,,61,100
41728,note_off,,,,,64,0,8,,,,,0,,,76,100
41760,note_on,,,,,32,0,8,,,,,0,,,79,100
41792,note_off,,,,,128,0,16,,,,,7,,,61,100
41792,note_off,,,,,128,0,15,,,,,7,,,67,100
41792,note_off,,,,,128,0,14,,,,,6,,,49,100
41792,note_off,,,,,128,0,13,,,,,5,,,61,100
41792,note_off,,,,,0,0,15,,,,,7,,,69,100
41824,note_off,,,,,64,0,8,,,,,0,,,79,100
41856,note_on,,,,,64,0,15,,,,,7,,,67,100
41856,note_on,,,,,64,0,14,,,,,6,,,45,100
41856,note_on,,,,,32,0,8,,,,,0,,,79,100
41856,note_on,,,,,64,0,13,,,,,5,,,57,100
41856,note_on,,,,,64,0,16,,,,,7,,,57,100
41948,note_off,,,,,92,0,8,,,,,0,,,79,100
41952,note_on,,,,,4,0,8,,,,,0,,,73,100
41984,note_off,,,,,128,0,13,,,,,5,,,57,100
41984,note_off,,,,,128,0,15,,,,,7,,,67,100
41984,note_off,,,,,128,0,14,,,,,6,,,45,100
41984,note_off,,,,,128,0,16,,,,,7,,,57,100
42044,note_off,,,,,92,0,8,,,,,0,,,73,100
42048,note_on,,,,,64,0,16,,,,,7,,,61,100
42048,note_on,,,,,64,0,13,,,,,5,,,61,100
42048,note_on,,,,,64,0,14,,,,,6,,,49,100
42048,note_on,,,,,64,0,15,,,,,7,,,64,100
42048,note_on,,,,,4,0,8,,,,,0,,,69,100
42048,note_on,,,,,0,0,15,,,,,7,,,67,100
42112,note_off,,,,,64,0,8,,,,,0,,,69,100
42144,note_on,,,,,32,0,8,,,,,0,,,79,100
42176,note_off,,,,,128,0,16,,,,,7,,,61,100
42176,note_off,,,,,128,0,15,,,,,7,,,64,100
42176,note_off,,,,,128,0,13,,,,,5,,,61,100
42176,note_off,,,,,0,0,15,,,,,7,,,67,100
42176,note_off,,,,,128,0,14,,,,,6,,,49,100
42208,note_off,,,,,64,0,8,,,,,0,,,79,100
42240,note_on,,,,,64,0,13,,,,,5,,,62,100
42240,note_on,,,,,64,0,14,,,,,6,,,50,100
42240,note_on,,,,,64,0,16,,,,,7,,,62,100
42240,note_on,,,,,64,0,15,,,,,7,,,67,100
42240,note_on,,,,,32,0,8,,,,,0,,,79,100
42332,note_off,,,,,92,0,8,,,,,0,,,79,100
42336,note_on,,,,,4,0,8,,,,,0,,,78,100
42368,note_off,,,,,128,0,14,,,,,6,,,50,100
42368,note_off,,,,,128,0,15,,,,,7,,,67,100
42368,note_off,,,,,128,0,13,,,,,5,,,62,100
42368,note_off,,,,,128,0,16,,,,,7,,,62,100
42428,note_off,,,,,92,0,8,,,,,0,,,78,100
42432,note_on,,,,,64,0,13,,,,,5,,,50,100
42432,note_on,,,,,4,0,8,,,,,0,,,74,100
42432,note_on,,,,,64,0,15,,,,,7,,,66,100
42432,note_on,,,,,64,0,14,,,,,6,,,38,100
42432,note_on,,,,,64,0,16,,,,,7,,,50,100
42496,note_off,,,,,64,0,8,,,,,0,,,74,100
42528,note_on,,,,,32,0,8,,,,,0,,,78,100
42560,note_off,,,,,128,0,13,,,,,5,,,50,100
42560,note_off,,,,,128,0,16,,,,,7,,,50,100
42560,note_off,,,,,128,0,14,,,,,6,,,38,100
42560,note_off,,,,,128,0,15,,,,,7,,,66,100
42592,note_off,,,,,64,0,8,,,,,0,,,78,100
42624,note_on,,,,,32,0,8,,,,,0,,,83,100
42688,note_off,,,,,64,0,8,,,,,0,,,83,100
42720,note_on,,,,,32,0,8,,,,,0,,,78,100
42784,note_off,,,,,64,0,8,,,,,0,,,78,100
42816,note_on,,,,,32,0,8,,,,,0,,,74,100
42880,note_off,,,,,64,0,8,,,,,0,,,74,100
42912,note_on,,,,,32,0,8,,,,,0,,,83,100
42976,note_off,,,,,64,0,8,,,,,0,,,83,100
43008,note_on,,,,,32,0,8,,,,,0,,,83,100
43100,note_off,,,,,92,0,8,,,,,0,,,83,100
43104,note_on,,,,,4,0,8,,,,,0,,,81,100
43196,note_off,,,,,92,0,8,,,,,0,,,81,100
43200,note_on,,,,,4,0,8,,,,,0,,,78,100
43200,note_on,,,,,640,0,13,,,,,5,,,63,100
43200,note_on,,,,,640,0,15,,,,,7,,,72,100
43200,note_on,,,,,0,0,15,,,,,7,,,69,100
43200,note_on,,,,,640,0,16,,,,,7,,,63,100
43200,note_on,,,,,640,0,14,,,,,6,,,51,100
43264,note_off,,,,,64,0,8,,,,,0,,,78,100
43296,note_on,,,,,32,0,8,,,,,0,,,81,100
43328,note_off,,,,,128,0,14,,,,,6,,,51,100
43328,note_off,,,,,128,0,13,,,,,5,,,63,100
43328,note_off,,,,,128,0,16,,,,,7,,,63,100
43328,note_off,,,,,128,0,15,,,,,7,,,72,100
43328,note_off,,,,,0,0,15,,,,,7,,,69,100
43360,note_off,,,,,64,0,8,,,,,0,,,81,100
43392,note_on,,,,,64,0,14,,,,,6,,,47,100
43392,note_on,,,,,64,0,15,,,,,7,,,69,100
43392,note_on,,,,,32,0,8,,,,,0,,,81,100
43392,note_on,,,,,64,0,16,,,,,7,,,59,100
43392,note_on,,,,,64,0,13,,,,,5,,,59,100
43484,note_off,,,,,92,0,8,,,,,0,,,81,100
43488,note_on,,,,,4,0,8,,,,,0,,,75,100
43520,note_off,,,,,128,0,16,,,,,7,,,59,100
43520,note_off,,,,,128,0,15,,,,,7,,,69,100
43520,note_off,,,,,128,0,14,,,,,6,,,47,100
43520,note_off,,,,,128,0,13,,,,,5,,,59,100
43580,note_off,,,,,92,0,8,,,,,0,,,75,100
43584,note_on,,,,,64,0,16,,,,,7,,,63,100
43584,note_on,,,,,0,0,15,,,,,7,,,69,100
43584,note_on,,,,,64,0,15,,,,,7,,,66,100
43584,note_on,,,,,4,0,8,,,,,0,,,71,100
43584,note_on,,,,,64,0,14,,,,,6,,,51,100
43584,note_on,,,,,64,0,13,,,,,5,,,63,100
43648,note_off,,,,,64,0,8,,,,,0,,,71,100
43680,note_on,,,,,32,0,8,,,,,0,,,81,100
43712,note_off,,,,,128,0,15,,,,,7,,,66,100
43712,note_off,,,,,0,0,15,,,,,7,,,69,100
43712,note_off,,,,,128,0,13,,,,,5,,,63,100
43712,note_off,,,,,128,0,16,,,,,7,,,63,100
43712,note_off,,,,,128,0,14,,,,,6,,,51,100
43744,note_off,,,,,64,0,8,,,,,0,,,81,100
43776,note_on,,,,,64,0,13,,,,,5,,,64,100
43776,note_on,,,,,64,0,14,,,,,6,,,52,100
43776,note_on,,,,,64,0,16,,,,,7,,,64,100
43776,note_on,,,,,64,0,15,,,,,7,,,69,100
43776,note_on,,,,,32,0,8,,,,,0,,,81,100
43868,note_off,,,,,92,0,8,,,,,0,,,81,100
43872,note_on,,,,,4,0,8,,,,,0,,,79,100
43904,note_off,,,,,128,0,16,,,,,7,,,64,100
43904,note_off,,,,,128,0,14,,,,,6,,,52,100
43904,note_off,,,,,128,0,15,,,,,7,,,69,100
43904,note_off,,,,,128,0,13,,,,,5,,,64,100
43964,note_off,,,,,92,0,8,,,,,0,,,79,100
43968,note_on,,,,,64,0,16,,,,,7,,,52,100
43968,note_on,,,,,64,0,13,,,,,5,,,52,100
43968,note_on,,,,,4,0,8,,,,,0,,,76,100
43968,note_on,,,,,64,0,15,,,,,7,,,55,100
43968,note_on,,,,,64,0,14,,,,,6,,,40,100
44032,note_off,,,,,64,0,8,,,,,0,,,76,100
44064,note_on,,,,,32,0,8,,,,,0,,,71,100
44096,note_off,,,,,128,0,16,,,,,7,,,52,100
44096,note_off,,,,,128,0,15,,,,,7,,,55,100
44096,note_off,,,,,128,0,13,,,,,5,,,52,100
44096,note_off,,,,,128,0,14,,,,,6,,,40,100
44128,note_off,,,,,64,0,8,,,,,0,,,71,100
44160,note_on,,,,,32,0,8,,,,,0,,,72,100
44252,note_off,,,,,92,0,8,,,,,0,,,72,100
44256,note_on,,,,,4,0,8,,,,,0,,,71,100
44348,note_off,,,,,92,0,8,,,,,0,,,71,100
44352,note_on,,,,,256,0,13,,,,,5,,,52,100
44352,note_on,,,,,256,0,16,,,,,7,,,52,100
44352,note_on,,,,,256,0,15,,,,,7,,,72,100
44352,note_on,,,,,256,0,14,,,,,6,,,40,100
44352,note_on,,,,,4,0,8,,,,,0,,,72,100
44416,note_off,,,,,64,0,8,,,,,0,,,72,100
44448,note_on,,,,,32,0,8,,,,,0,,,76,100
44480,note_off,,,,,128,0,15,,,,,7,,,72,100
44480,note_off,,,,,128,0,14,,,,,6,,,40,100
44480,note_off,,,,,128,0,16,,,,,7,,,52,100
44480,note_off,,,,,128,0,13,,,,,5,,,52,100
44512,note_off,,,,,64,0,8,,,,,0,,,76,100
44544,note_on,,,,,64,0,13,,,,,5,,,54,100
44544,note_on,,,,,64,0,15,,,,,7,,,70,100
44544,note_on,,,,,0,0,15,,,,,7,,,68,100
44544,note_on,,,,,64,0,14,,,,,6,,,42,100
44544,note_on,,,,,64,0,16,,,,,7,,,54,100
44544,note_on,,,,,32,0,8,,,,,0,,,82,100
44636,note_off,,,,,92,0,8,,,,,0,,,82,100
44640,note_on,,,,,4,0,8,,,,,0,,,80,100
44672,note_off,,,,,128,0,16,,,,,7,,,54,100
44672,note_off,,,,,128,0,13,,,,,5,,,54,100
44672,note_off,,,,,128,0,14,,,,,6,,,42,100
44672,note_off,,,,,128,0,15,,,,,7,,,70,100
44672,note_off,,,,,0,0,15,,,,,7,,,68,100
44732,note_off,,,,,92,0,8,,,,,0,,,80,100
44736,note_on,,,,,0,0,15,,,,,7,,,68,100
44736,note_on,,,,,64,0,14,,,,,6,,,40,100
44736,note_on,,,,,4,0,8,,,,,0,,,82,100
44736,note_on,,,,,64,0,15,,,,,7,,,64,100
44736,note_on,,,,,64,0,13,,,,,5,,,52,100
44736,note_on,,,,,64,0,16,,,,,7,,,52,100
44800,note_off,,,,,64,0,8,,,,,0,,,82,100
44832,note_on,,,,,32,0,8,,,,,0,,,78,100
44864,note_off,,,,,128,0,13,,,,,5,,,52,100
44864,note_off,,,,,0,0,15,,,,,7,,,68,100
44864,note_off,,,,,128,0,16,,,,,7,,,52,100
44864,note_off,,,,,128,0,14,,,,,6,,,40,100
44864,note_off,,,,,128,0,15,,,,,7,,,64,100
44896,note_off,,,,,64,0,8,,,,,0,,,78,100
44928,note_on,,,,,64,0,15,,,,,7,,,71,100
44928,note_on,,,,,64,0,16,,,,,7,,,50,100
44928,note_on,,,,,64,0,13,,,,,5,,,50,100
44928,note_on,,,,,64,0,14,,,,,6,,,38,100
44928,note_on,,,,,32,0,8,,,,,0,,,83,100
44992,note_off,,,,,64,0,8,,,,,0,,,83,100
45024,note_on,,,,,32,0,8,,,,,0,,,78,100
45056,note_off,,,,,128,0,16,,,,,7,,,50,100
45056,note_off,,,,,128,0,15,,,,,7,,,71,100
45056,note_off,,,,,128,0,14,,,,,6,,,38,100
45056,note_off,,,,,128,0,13,,,,,5,,,50,100
45088,note_off,,,,,64,0,8,,,,,0,,,78,100
45120,note_on,,,,,32,0,8,,,,,0,,,74,100
45120,note_on,,,,,64,0,14,,,,,6,,,35,100
45120,note_on,,,,,0,0,15,,,,,7,,,62,100
45120,note_on,,,,,64,0,13,,,,,5,,,47,100
45120,note_on,,,,,64,0,16,,,,,7,,,47,100
45120,note_on,,,,,64,0,15,,,,,7,,,66,100
45184,note_off,,,,,64,0,8,,,,,0,,,74,100
45216,note_on,,,,,32,0,8,,,,,0,,,83,100
45248,note_off,,,,,128,0,13,,,,,5,,,47,100
45248,note_off,,,,,128,0,14,,,,,6,,,35,100
45248,note_off,,,,,128,0,15,,,,,7,,,66,100
45248,note_off,,,,,0,0,15,,,,,7,,,62,100
45248,note_off,,,,,128,0,16,,,,,7,,,47,100
45280,note_off,,,,,64,0,8,,,,,0,,,83,100
45312,note_on,,,,,64,0,13,,,,,5,,,52,100
45312,note_on,,,,,0,0,15,,,,,7,,,59,100
45312,note_on,,,,,64,0,15,,,,,7,,,61,100
45312,note_on,,,,,32,0,8,,,,,0,,,73,100
45312,note_on,,,,,64,0,14,,,,,6,,,40,100
45312,note_on,,,,,64,0,16,,,,,7,,,52,100
45404,note_off,,,,,92,0,8,,,,,0,,,73,100
45408,note_on,,,,,4,0,8,,,,,0,,,71,100
45440,note_off,,,,,128,0,13,,,,,5,,,52,100
45440,note_off,,,,,128,0,16,,,,,7,,,52,100
45440,note_off,,,,,0,0,15,,,,,7,,,59,100
45440,note_off,,,,,128,0,15,,,,,7,,,61,100
45440,note_off,,,,,128,0,14,,,,,6,,,40,100
45500,note_off,,,,,92,0,8,,,,,0,,,71,100
45504,note_on,,,,,0,0,15,,,,,7,,,64,100
45504,note_on,,,,,64,0,13,,,,,5,,,49,100
45504,note_on,,,,,64,0,16,,,,,7,,,49,100
45504,note_on,,,,,64,0,14,,,,,6,,,37,100
45504,note_on,,,,,64,0,15,,,,,7,,,55,100
45504,note_on,,,,,4,0,8,,,,,0,,,73,100
45568,note_off,,,,,64,0,8,,,,,0,,,73,100
45600,note_on,,,,,32,0,8,,,,,0,,,83,100
45632,note_off,,,,,128,0,14,,,,,6,,,37,100
45632,note_off,,,,,128,0,13,,,,,5,,,49,100
45632,note_off,,,,,128,0,16,,,,,7,,,49,100
45632,note_off,,,,,128,0,15,,,,,7,,,55,100
45632,note_off,,,,,0,0,15,,,,,7,,,64,100
45664,note_off,,,,,64,0,8,,,,,0,,,83,100
45696,note_on,,,,,64,0,13,,,,,5,,,54,100
45696,note_on,,,,,64,0,16,,,,,7,,,54,100
45696,note_on,,,,,32,0,8,,,,,0,,,73,100
45696,note_on,,,,,64,0,14,,,,,6,,,42,100
45696,note_on,,,,,64,0,15,,,,,7,,,61,100
45696,note_on,,,,,0,0,15,,,,,7,,,58,100
45788,note_off,,,,,92,0,8,,,,,0,,,73,100
45792,note_on,,,,,4,0,8,,,,,0,,,71,100
45824,note_off,,,,,0,0,15,,,,,7,,,58,100
45824,note_off,,,,,128,0,14,,,,,6,,,42,100
45824,note_off,,,,,128,0,15,,,,,7,,,61,100
45824,note_off,,,,,128,0,13,,,,,5,,,54,100
45824,note_off,,,,,128,0,16,,,,,7,,,54,100
45884,note_off,,,,,92,0,8,,,,,0,,,71,100
45888,note_on,,,,,4,0,8,,,,,0,,,73,100
45888,note_on,,,,,0,0,15,,,,,7,,,58,100
45888,note_on,,,,,64,0,13,,,,,5,,,42,100
45888,note_on,,,,,64,0,14,,,,,6,,,42,100
45888,note_on,,,,,64,0,16,,,,,7,,,42,100
45888,note_on,,,,,64,0,15,,,,,7,,,61,100
45952,note_off,,,,,64,0,8,,,,,0,,,73,100
45984,note_on,,,,,32,0,8,,,,,0,,,82,100
46016,note_off,,,,,128,0,16,,,,,7,,,42,100
46016,note_off,,,,,0,0,15,,,,,7,,,58,100
46016,note_off,,,,,128,0,14,,,,,6,,,42,100
46016,note_off,,,,,128,0,13,,,,,5,,,42,100
46016,note_off,,,,,128,0,15,,,,,7,,,61,100
46048,note_off,,,,,64,0,8,,,,,0,,,82,100
46076,program_change,,,,,60,0,13,,,,,5,48,,,
46080,note_on,,,,,64,0,16,,,,,7,,,47,100
46080,note_on,,,,,64,0,14,,,,,6,,,35,100
46080,note_on,,,,,4,0,13,,,,,5,,,47,100
46080,note_on,,,,,64,0,15,,,,,7,,,66,100
46080,note_on,,,,,0,0,15,,,,,7,,,59,100
46080,note_on,,,,,8192,0,12,,,,,4,,,66,100
46080,note_on,,,,,32,0,8,,,,,0,,,83,100
46140,program_change,,,,,8252,0,9,,,,,1,48,,,
46140,program_change,,,,,4668,0,11,,,,,3,48,,,
46140,program_change,,,,,4668,0,10,,,,,2,48,,,
46140,program_change,,,,,60,0,8,,,,,0,48,,,
46144,note_off,,,,,4,0,8,,,,,0,,,83,100
46176,note_on,,,,,36,0,10,,,,,2,,,78,90
46176,note_on,,,,,36,0,11,,,,,3,,,78,95
46176,note_on,,,,,32,0,8,,,,,0,,,78,100
46176,note_on,,,,,36,0,9,,,,,1,,,78,90
46208,note_off,,,,,128,0,14,,,,,6,,,35,100
46208,note_off,,,,,128,0,13,,,,,5,,,47,100
46208,note_off,,,,,128,0,16,,,,,7,,,47,100
46208,note_off,,,,,128,0,12,,,,,4,,,66,100
46208,note_off,,,,,128,0,15,,,,,7,,,66,100
46208,note_off,,,,,0,0,15,,,,,7,,,59,100
46240,note_off,,,,,64,0,10,,,,,2,,,78,100
46240,note_off,,,,,64,0,8,,,,,0,,,78,100
46240,note_off,,,,,64,0,11,,,,,3,,,78,100
46240,note_off,,,,,64,0,9,,,,,1,,,78,100
46272,note_on,,,,,64,0,13,,,,,5,,,47,100
46272,note_on,,,,,64,0,12,,,,,4,,,66,100
46272,note_on,,,,,32,0,11,,,,,3,,,76,95
46272,note_on,,,,,64,0,14,,,,,6,,,35,100
46272,note_on,,,,,0,0,15,,,,,7,,,62,100
46272,note_on,,,,,64,0,15,,,,,7,,,66,100
46272,note_on,,,,,32,0,9,,,,,1,,,76,90
46272,note_on,,,,,32,0,8,,,,,0,,,76,100
46272,note_on,,,,,64,0,16,,,,,7,,,47,100
46272,note_on,,,,,32,0,10,,,,,2,,,76,90
46336,note_off,,,,,64,0,9,,,,,1,,,76,100
46336,note_off,,,,,64,0,11,,,,,3,,,76,100
46336,note_off,,,,,64,0,8,,,,,0,,,76,100
46336,note_off,,,,,64,0,10,,,,,2,,,76,100
46368,note_on,,,,,32,0,10,,,,,2,,,78,90
46368,note_on,,,,,32,0,9,,,,,1,,,78,90
46368,note_on,,,,,32,0,8,,,,,0,,,78,100
46368,note_on,,,,,32,0,11,,,,,3,,,78,95
46400,note_off,,,,,128,0,12,,,,,4,,,66,100
46400,note_off,,,,,0,0,15,,,,,7,,,62,100
46400,note_off,,,,,128,0,15,,,,,7,,,66,100
46400,note_off,,,,,128,0,14,,,,,6,,,35,100
46400,note_off,,,,,128,0,13,,,,,5,,,47,100
46400,note_off,,,,,128,0,16,,,,,7,,,47,100
46432,note_off,,,,,64,0,8,,,,,0,,,78,100
46432,note_off,,,,,64,0,11,,,,,3,,,78,100
46432,note_off,,,,,64,0,9,,,,,1,,,78,100
46432,note_off,,,,,64,0,10,,,,,2,,,78,100
46464,note_on,,,,,32,0,8,,,,,0,,,74,100
46464,note_on,,,,,32,0,9,,,,,1,,,74,90
46464,note_on,,,,,64,0,14,,,,,6,,,35,100
46464,note_on,,,,,32,0,11,,,,,3,,,74,95
46464,note_on,,,,,64,0,13,,,,,5,,,47,100
46464,note_on,,,,,64,0,12,,,,,4,,,66,100
46464,note_on,,,,,32,0,10,,,,,2,,,74,90
46464,note_on,,,,,64,0,16,,,,,7,,,47,100
46464,note_on,,,,,64,0,15,,,,,7,,,66,100
46464,note_on,,,,,0,0,15,,,,,7,,,62,100
46528,note_off,,,,,64,0,10,,,,,2,,,74,100
46528,note_off,,,,,64,0,8,,,,,0,,,74,100
46528,note_off,,,,,64,0,11,,,,,3,,,74,100
46528,note_off,,,,,64,0,9,,,,,1,,,74,100
46560,note_on,,,,,32,0,8,,,,,0,,,78,100
46560,note_on,,,,,32,0,9,,,,,1,,,78,90
46560,note_on,,,,,32,0,11,,,,,3,,,78,95
46560,note_on,,,,,32,0,10,,,,,2,,,78,90
46592,note_off,,,,,0,0,15,,,,,7,,,62,100
46592,note_off,,,,,128,0,14,,,,,6,,,35,100
46592,note_off,,,,,128,0,13,,,,,5,,,47,100
46592,note_off,,,,,128,0,16,,,,,7,,,47,100
46592,note_off,,,,,128,0,12,,,,,4,,,66,100
46592,note_off,,,,,128,0,15,,,,,7,,,66,100
46624,note_off,,,,,64,0,9,,,,,1,,,78,100
46624,note_off,,,,,64,0,11,,,,,3,,,78,100
46624,note_off,,,,,64,0,8,,,,,0,,,78,100
46624,note_off,,,,,64,0,10,,,,,2,,,78,100
46656,note_on,,,,,32,0,10,,,,,2,,,76,90
46656,note_on,,,,,32,0,9,,,,,1,,,76,90
46656,note_on,,,,,64,0,16,,,,,7,,,47,100
46656,note_on,,,,,0,0,15,,,,,7,,,62,100
46656,note_on,,,,,64,0,12,,,,,4,,,66,100
46656,note_on,,,,,32,0,8,,,,,0,,,76,100
46656,note_on,,,,,64,0,14,,,,,6,,,35,100
46656,note_on,,,,,64,0,13,,,,,5,,,47,100
46656,note_on,,,,,64,0,15,,,,,7,,,66,100
46656,note_on,,,,,32,0,11,,,,,3,,,76,95
46720,note_off,,,,,64,0,10,,,,,2,,,76,100
46720,note_off,,,,,64,0,9,,,,,1,,,76,100
46720,note_off,,,,,64,0,11,,,,,3,,,76,100
46720,note_off,,,,,64,0,8,,,,,0,,,76,100
46752,note_on,,,,,32,0,11,,,,,3,,,78,95
46752,note_on,,,,,32,0,10,,,,,2,,,78,90
46752,note_on,,,,,32,0,8,,,,,0,,,78,100
46752,note_on,,,,,32,0,9,,,,,1,,,78,90
46784,note_off,,,,,128,0,14,,,,,6,,,35,100
46784,note_off,,,,,128,0,12,,,,,4,,,66,100
46784,note_off,,,,,128,0,13,,,,,5,,,47,100
46784,note_off,,,,,128,0,16,,,,,7,,,47,100
46784,note_off,,,,,0,0,15,,,,,7,,,62,100
46784,note_off,,,,,128,0,15,,,,,7,,,66,100
46816,note_off,,,,,64,0,11,,,,,3,,,78,100
46816,note_off,,,,,64,0,10,,,,,2,,,78,100
46816,note_off,,,,,64,0,8,,,,,0,,,78,100
46816,note_off,,,,,64,0,9,,,,,1,,,78,100
46848,note_on,,,,,64,0,16,,,,,7,,,46,100
46848,note_on,,,,,32,0,8,,,,,0,,,73,100
46848,note_on,,,,,32,0,9,,,,,1,,,73,90
46848,note_on,,,,,64,0,13,,,,,5,,,46,100
46848,note_on,,,,,64,0,14,,,,,6,,,34,100
46848,note_on,,,,,64,0,12,,,,,4,,,66,100
46848,note_on,,,,,32,0,11,,,,,3,,,73,95
46848,note_on,,,,,64,0,15,,,,,7,,,66,100
46848,note_on,,,,,32,0,10,,,,,2,,,73,90
46912,note_off,,,,,64,0,10,,,,,2,,,73,100
46912,note_off,,,,,64,0,9,,,,,1,,,73,100
46912,note_off,,,,,64,0,11,,,,,3,,,73,100
46912,note_off,,,,,64,0,8,,,,,0,,,73,100
46944,note_on,,,,,32,0,10,,,,,2,,,78,90
46944,note_on,,,,,32,0,8,,,,,0,,,78,100
46944,note_on,,,,,32,0,11,,,,,3,,,78,95
46944,note_on,,,,,32,0,9,,,,,1,,,78,90
46976,note_off,,,,,128,0,16,,,,,7,,,46,100
46976,note_off,,,,,128,0,15,,,,,7,,,66,100
46976,note_off,,,,,128,0,14,,,,,6,,,34,100
46976,note_off,,,,,128,0,12,,,,,4,,,66,100
46976,note_off,,,,,128,0,13,,,,,5,,,46,100
47008,note_off,,,,,64,0,10,,,,,2,,,78,100
47008,note_off,,,,,64,0,11,,,,,3,,,78,100
47008,note_off,,,,,64,0,9,,,,,1,,,78,100
47008,note_off,,,,,64,0,8,,,,,0,,,78,100
47040,note_on,,,,,32,0,10,,,,,2,,,76,90
47040,note_on,,,,,64,0,14,,,,,6,,,34,100
47040,note_on,,,,,32,0,11,,,,,3,,,76,95
47040,note_on,,,,,64,0,13,,,,,5,,,46,100
47040,note_on,,,,,64,0,16,,,,,7,,,46,100
47040,note_on,,,,,64,0,12,,,,,4,,,66,100
47040,note_on,,,,,32,0,9,,,,,1,,,76,90
47040,note_on,,,,,64,0,15,,,,,7,,,66,100
47040,note_on,,,,,32,0,8,,,,,0,,,76,100
47104,note_off,,,,,64,0,10,,,,,2,,,76,100
47104,note_off,,,,,64,0,9,,,,,1,,,76,100
47104,note_off,,,,,64,0,8,,,,,0,,,76,100
47104,note_off,,,,,64,0,11,,,,,3,,,76,100
47136,note_on,,,,,32,0,10,,,,,2,,,78,90
47136,note_on,,,,,32,0,9,,,,,1,,,78,90
47136,note_on,,,,,32,0,8,,,,,0,,,78,100
47136,note_on,,,,,32,0,11,,,,,3,,,78,95
47168,note_off,,,,,128,0,15,,,,,7,,,66,100
47168,note_off,,,,,128,0,14,,,,,6,,,34,100
47168,note_off,,,,,128,0,13,,,,,5,,,46,100
47168,note_off,,,,,128,0,12,,,,,4,,,66,100
47168,note_off,,,,,128,0,16,,,,,7,,,46,100
47200,note_off,,,,,64,0,9,,,,,1,,,78,100
47200,note_off,,,,,64,0,8,,,,,0,,,78,100
47200,note_off,,,,,64,0,10,,,,,2,,,78,100
47200,note_off,,,,,64,0,11,,,,,3,,,78,100
47232,note_on,,,,,64,0,16,,,,,7,,,46,100
47232,note_on,,,,,64,0,12,,,,,4,,,66,100
47232,note_on,,,,,32,0,8,,,,,0,,,73,100
47232,note_on,,,,,64,0,15,,,,,7,,,66,100
47232,note_on,,,,,32,0,9,,,,,1,,,73,90
47232,note_on,,,,,64,0,13,,,,,5,,,46,100
47232,note_on,,,,,32,0,11,,,,,3,,,73,95
47232,note_on,,,,,64,0,14,,,,,6,,,34,100
47232,note_on,,,,,32,0,10,,,,,2,,,73,90
47296,note_off,,,,,64,0,8,,,,,0,,,73,100
47296,note_off,,,,,64,0,11,,,,,3,,,73,100
47296,note_off,,,,,64,0,10,,,,,2,,,73,100
47296,note_off,,,,,64,0,9,,,,,1,,,73,100
47328,note_on,,,,,32,0,10,,,,,2,,,78,90
47328,note_on,,,,,32,0,8,,,,,0,,,78,100
47328,note_on,,,,,32,0,11,,,,,3,,,78,95
47328,note_on,,,,,32,0,9,,,,,1,,,78,90
47360,note_off,,,,,128,0,15,,,,,7,,,66,100
47360,note_off,,,,,128,0,16,,,,,7,,,46,100
47360,note_off,,,,,128,0,12,,,,,4,,,66,100
47360,note_off,,,,,128,0,13,,,,,5,,,46,100
47360,note_off,,,,,128,0,14,,,,,6,,,34,100
47392,note_off,,,,,64,0,11,,,,,3,,,78,100
47392,note_off,,,,,64,0,8,,,,,0,,,78,100
47392,note_off,,,,,64,0,9,,,,,1,,,78,100
47392,note_off,,,,,64,0,10,,,,,2,,,78,100
47424,note_on,,,,,64,0,15,,,,,7,,,66,100
47424,note_on,,,,,64,0,12,,,,,4,,,66,100
47424,note_on,,,,,32,0,11,,,,,3,,,76,95
47424,note_on,,,,,32,0,9,,,,,1,,,76,90
47424,note_on,,,,,64,0,13,,,,,5,,,46,100
47424,note_on,,,,,32,0,10,,,,,2,,,76,90
47424,note_on,,,,,64,0,14,,,,,6,,,34,100
47424,note_on,,,,,32,0,8,,,,,0,,,76,100
47424,note_on,,,,,64,0,16,,,,,7,,,46,100
47488,note_off,,,,,64,0,9,,,,,1,,,76,100
47488,note_off,,,,,64,0,8,,,,,0,,,76,100
47488,note_off,,,,,64,0,10,,,,,2,,,76,100
47488,note_off,,,,,64,0,11,,,,,3,,,76,100
47520,note_on,,,,,32,0,11,,,,,3,,,78,95
47520,note_on,,,,,32,0,10,,,,,2,,,78,90
47520,note_on,,,,,32,0,8,,,,,0,,,78,100
47520,note_on,,,,,32,0,9,,,,,1,,,78,90
47552,note_off,,,,,128,0,15,,,,,7,,,66,100
47552,note_off,,,,,128,0,13,,,,,5,,,46,100
47552,note_off,,,,,128,0,12,,,,,4,,,66,100
47552,note_off,,,,,128,0,16,,,,,7,,,46,100
47552,note_off,,,,,128,0,14,,,,,6,,,34,100
47584,note_off,,,,,64,0,9,,,,,1,,,78,100
47584,note_off,,,,,64,0,10,,,,,2,,,78,100
47584,note_off,,,,,64,0,8,,,,,0,,,78,100
47584,note_off,,,,,64,0,11,,,,,3,,,78,100
47616,note_on,,,,,64,0,16,,,,,7,,,47,100
47616,note_on,,,,,64,0,13,,,,,5,,,47,60
47616,note_on,,,,,0,0,15,,,,,7,,,66,100
47616,note_on,,,,,64,0,15,,,,,7,,,62,100
47616,note_on,,,,,64,0,14,,,,,6,,,35,60
47616,note_on,,,,,32,0,10,,,,,2,,,74,90
47616,note_on,,,,,32,0,9,,,,,1,,,74,90
47616,note_on,,,,,32,0,8,,,,,0,,,74,100
47616,note_on,,,,,64,0,12,,,,,4,,,66,60
47616,note_on,,,,,32,0,11,,,,,3,,,74,95
47676,program_change,,,,,60,0,10,,,,,2,48,,,
47676,program_change,,,,,60,0,11,,,,,3,48,,,
47676,program_change,,,,,60,0,8,,,,,0,48,,,
47676,program_change,,,,,60,0,9,,,,,1,48,,,
47680,note_off,,,,,4,0,8,,,,,0,,,74,100
47680,note_off,,,,,4,0,11,,,,,3,,,74,100
47680,note_off,,,,,4,0,10,,,,,2,,,74,100
47680,note_off,,,,,4,0,9,,,,,1,,,74,100
47712,note_on,,,,,32,0,10,,,,,2,,,78,50
47712,note_on,,,,,32,0,8,,,,,0,,,78,60
47712,note_on,,,,,32,0,11,,,,,3,,,78,55
47712,note_on,,,,,32,0,9,,,,,1,,,78,50
47744,note_off,,,,,128,0,12,,,,,4,,,66,100
47744,note_off,,,,,128,0,16,,,,,7,,,47,100
47744,note_off,,,,,128,0,15,,,,,7,,,62,100
47744,note_off,,,,,0,0,15,,,,,7,,,66,100
47744,note_off,,,,,128,0,14,,,,,6,,,35,100
47744,note_off,,,,,128,0,13,,,,,5,,,47,100
47776,note_off,,,,,64,0,9,,,,,1,,,78,100
47776,note_off,,,,,64,0,10,,,,,2,,,78,100
47776,note_off,,,,,64,0,11,,,,,3,,,78,100
47776,note_off,,,,,64,0,8,,,,,0,,,78,100
47808,note_on,,,,,32,0,8,,,,,0,,,76,60
47808,note_on,,,,,64,0,16,,,,,7,,,47,100
47808,note_on,,,,,0,0,15,,,,,7,,,62,100
47808,note_on,,,,,64,0,15,,,,,7,,,66,100
47808,note_on,,,,,64,0,13,,,,,5,,,47,60
47808,note_on,,,,,64,0,12,,,,,4,,,66,60
47808,note_on,,,,,32,0,9,,,,,1,,,76,50
47808,note_on,,,,,32,0,11,,,,,3,,,76,55
47808,note_on,,,,,64,0,14,,,,,6,,,35,60
47808,note_on,,,,,32,0,10,,,,,2,,,76,50
47872,note_off,,,,,64,0,9,,,,,1,,,76,100
47872,note_off,,,,,64,0,11,,,,,3,,,76,100
47872,note_off,,,,,64,0,10,,,,,2,,,76,100
47872,note_off,,,,,64,0,8,,,,,0,,,76,100
47904,note_on,,,,,32,0,8,,,,,0,,,78,60
47904,note_on,,,,,32,0,11,,,,,3,,,78,55
47904,note_on,,,,,32,0,9,,,,,1,,,78,50
47904,note_on,,,,,32,0,10,,,,,2,,,78,50
47936,note_off,,,,,128,0,12,,,,,4,,,66,100
47936,note_off,,,,,128,0,13,,,,,5,,,47,100
47936,note_off,,,,,128,0,14,,,,,6,,,35,100
47936,note_off,,,,,128,0,15,,,,,7,,,66,100
47936,note_off,,,,,128,0,16,,,,,7,,,47,100
47936,note_off,,,,,0,0,15,,,,,7,,,62,100
47968,note_off,,,,,64,0,9,,,,,1,,,78,100
47968,note_off,,,,,64,0,8,,,,,0,,,78,100
47968,note_off,,,,,64,0,11,,,,,3,,,78,100
47968,note_off,,,,,64,0,10,,,,,2,,,78,100
48000,note_on,,,,,32,0,8,,,,,0,,,74,60
48000,note_on,,,,,32,0,9,,,,,1,,,74,50
48000,note_on,,,,,64,0,16,,,,,7,,,47,100
48000,note_on,,,,,32,0,11,,,,,3,,,74,55
48000,note_on,,,,,64,0,12,,,,,4,,,66,60
48000,note_on,,,,,64,0,13,,,,,5,,,47,60
48000,note_on,,,,,0,0,15,,,,,7,,,62,100
48000,note_on,,,,,32,0,10,,,,,2,,,74,50
48000,note_on,,,,,64,0,14,,,,,6,,,35,60
48000,note_on,,,,,64,0,15,,,,,7,,,66,100
48064,note_off,,,,,64,0,10,,,,,2,,,74,100
48064,note_off,,,,,64,0,9,,,,,1,,,74,100
48064,note_off,,,,,64,0,11,,,,,3,,,74,100
48064,note_off,,,,,64,0,8,,,,,0,,,74,100
48096,note_on,,,,,32,0,8,,,,,0,,,78,60
48096,note_on,,,,,32,0,11,,,,,3,,,78,55
48096,note_on,,,,,32,0,9,,,,,1,,,78,50
48096,note_on,,,,,32,0,10,,,,,2,,,78,50
48128,note_off,,,,,0,0,15,,,,,7,,,62,100
48128,note_off,,,,,128,0,16,,,,,7,,,47,100
48128,note_off,,,,,128,0,13,,,,,5,,,47,100
48128,note_off,,,,,128,0,12,,,,,4,,,66,100
48128,note_off,,,,,128,0,14,,,,,6,,,35,100
48128,note_off,,,,,128,0,15,,,,,7,,,66,100
48160,note_off,,,,,64,0,8,,,,,0,,,78,100
48160,note_off,,,,,64,0,10,,,,,2,,,78,100
48160,note_off,,,,,64,0,9,,,,,1,,,78,100
48160,note_off,,,,,64,0,11,,,,,3,,,78,100
48192,note_on,,,,,32,0,9,,,,,1,,,76,50
48192,note_on,,,,,32,0,10,,,,,2,,,76,50
48192,note_on,,,,,32,0,8,,,,,0,,,76,60
48192,note_on,,,,,64,0,15,,,,,7,,,66,100
48192,note_on,,,,,0,0,15,,,,,7,,,62,100
48192,note_on,,,,,32,0,11,,,,,3,,,76,55
48192,note_on,,,,,64,0,13,,,,,5,,,47,60
48192,note_on,,,,,64,0,16,,,,,7,,,47,100
48192,note_on,,,,,64,0,12,,,,,4,,,66,60
48192,note_on,,,,,64,0,14,,,,,6,,,35,60
48256,note_off,,,,,64,0,11,,,,,3,,,76,100
48256,note_off,,,,,64,0,8,,,,,0,,,76,100
48256,note_off,,,,,64,0,10,,,,,2,,,76,100
48256,note_off,,,,,64,0,9,,,,,1,,,76,100
48288,note_on,,,,,32,0,11,,,,,3,,,78,55
48288,note_on,,,,,32,0,8,,,,,0,,,78,60
48288,note_on,,,,,32,0,10,,,,,2,,,78,50
48288,note_on,,,,,32,0,9,,,,,1,,,78,50
48320,note_off,,,,,128,0,12,,,,,4,,,66,100
48320,note_off,,,,,128,0,16,,,,,7,,,47,100
48320,note_off,,,,,128,0,13,,,,,5,,,47,100
48320,note_off,,,,,0,0,15,,,,,7,,,62,100
48320,note_off,,,,,128,0,15,,,,,7,,,66,100
48320,note_off,,,,,128,0,14,,,,,6,,,35,100
48352,note_off,,,,,64,0,9,,,,,1,,,78,100
48352,note_off,,,,,64,0,10,,,,,2,,,78,100
48352,note_off,,,,,64,0,11,,,,,3,,,78,100
48352,note_off,,,,,64,0,8,,,,,0,,,78,100
48384,note_on,,,,,32,0,10,,,,,2,,,73,50
48384,note_on,,,,,32,0,11,,,,,3,,,73,55
48384,note_on,,,,,64,0,16,,,,,7,,,46,100
48384,note_on,,,,,64,0,15,,,,,7,,,66,100
48384,note_on,,,,,64,0,14,,,,,6,,,34,60
48384,note_on,,,,,32,0,8,,,,,0,,,73,60
48384,note_on,,,,,32,0,9,,,,,1,,,73,50
48384,note_on,,,,,64,0,12,,,,,4,,,66,60
48384,note_on,,,,,64,0,13,,,,,5,,,46,60
48448,note_off,,,,,64,0,8,,,,,0,,,73,100
48448,note_off,,,,,64,0,9,,,,,1,,,73,100
48448,note_off,,,,,64,0,10,,,,,2,,,73,100
48448,note_off,,,,,64,0,11,,,,,3,,,73,100
48480,note_on,,,,,32,0,9,,,,,1,,,78,50
48480,note_on,,,,,32,0,11,,,,,3,,,78,55
48480,note_on,,,,,32,0,8,,,,,0,,,78,60
48480,note_on,,,,,32,0,10,,,,,2,,,78,50
48512,note_off,,,,,128,0,14,,,,,6,,,34,100
48512,note_off,,,,,128,0,12,,,,,4,,,66,100
48512,note_off,,,,,128,0,16,,,,,7,,,46,100
48512,note_off,,,,,128,0,13,,,,,5,,,46,100
48512,note_off,,,,,128,0,15,,,,,7,,,66,100
48544,note_off,,,,,64,0,11,,,,,3,,,78,100
48544,note_off,,,,,64,0,10,,,,,2,,,78,100
48544,note_off,,,,,64,0,9,,,,,1,,,78,100
48544,note_off,,,,,64,0,8,,,,,0,,,78,100
48576,note_on,,,,,32,0,10,,,,,2,,,76,50
48576,note_on,,,,,64,0,15,,,,,7,,,66,100
48576,note_on,,,,,64,0,14,,,,,6,,,34,60
48576,note_on,,,,,32,0,9,,,,,1,,,76,50
48576,note_on,,,,,64,0,13,,,,,5,,,46,60
48576,note_on,,,,,64,0,12,,,,,4,,,66,60
48576,note_on,,,,,32,0,8,,,,,0,,,76,60
48576,note_on,,,,,64,0,16,,,,,7,,,46,100
48576,note_on,,,,,32,0,11,,,,,3,,,76,55
48640,note_off,,,,,64,0,11,,,,,3,,,76,100
48640,note_off,,,,,64,0,8,,,,,0,,,76,100
48640,note_off,,,,,64,0,10,,,,,2,,,76,100
48640,note_off,,,,,64,0,9,,,,,1,,,76,100
48672,note_on,,,,,32,0,8,,,,,0,,,78,60
48672,note_on,,,,,32,0,9,,,,,1,,,78,50
48672,note_on,,,,,32,0,10,,,,,2,,,78,50
48672,note_on,,,,,32,0,11,,,,,3,,,78,55
48704,note_off,,,,,128,0,12,,,,,4,,,66,100
48704,note_off,,,,,128,0,14,,,,,6,,,34,100
48704,note_off,,,,,128,0,13,,,,,5,,,46,100
48704,note_off,,,,,128,0,15,,,,,7,,,66,100
48704,note_off,,,,,128,0,16,,,,,7,,,46,100
48736,note_off,,,,,64,0,9,,,,,1,,,78,100
48736,note_off,,,,,64,0,11,,,,,3,,,78,100
48736,note_off,,,,,64,0,10,,,,,2,,,78,100
48736,note_off,,,,,64,0,8,,,,,0,,,78,100
48768,note_on,,,,,64,0,14,,,,,6,,,34,60
48768,note_on,,,,,64,0,16,,,,,7,,,46,100
48768,note_on,,,,,64,0,13,,,,,5,,,46,60
48768,note_on,,,,,32,0,9,,,,,1,,,73,50
48768,note_on,,,,,64,0,15,,,,,7,,,66,100
48768,note_on,,,,,32,0,10,,,,,2,,,73,50
48768,note_on,,,,,32,0,8,,,,,0,,,73,60
48768,note_on,,,,,32,0,11,,,,,3,,,73,55
48768,note_on,,,,,64,0,12,,,,,4,,,66,60
48832,note_off,,,,,64,0,8,,,,,0,,,73,100
48832,note_off,,,,,64,0,10,,,,,2,,,73,100
48832,note_off,,,,,64,0,11,,,,,3,,,73,100
48832,note_off,,,,,64,0,9,,,,,1,,,73,100
48864,note_on,,,,,32,0,10,,,,,2,,,78,50
48864,note_on,,,,,32,0,11,,,,,3,,,78,55
48864,note_on,,,,,32,0,9,,,,,1,,,78,50
48864,note_on,,,,,32,0,8,,,,,0,,,78,60
48896,note_off,,,,,128,0,15,,,,,7,,,66,100
48896,note_off,,,,,128,0,13,,,,,5,,,46,100
48896,note_off,,,,,128,0,16,,,,,7,,,46,100
48896,note_off,,,,,128,0,14,,,,,6,,,34,100
48896,note_off,,,,,128,0,12,,,,,4,,,66,100
48928,note_off,,,,,64,0,9,,,,,1,,,78,100
48928,note_off,,,,,64,0,11,,,,,3,,,78,100
48928,note_off,,,,,64,0,10,,,,,2,,,78,100
48928,note_off,,,,,64,0,8,,,,,0,,,78,100
48960,note_on,,,,,64,0,14,,,,,6,,,34,60
48960,note_on,,,,,32,0,10,,,,,2,,,76,50
48960,note_on,,,,,64,0,15,,,,,7,,,66,100
48960,note_on,,,,,64,0,16,,,,,7,,,46,100
48960,note_on,,,,,32,0,11,,,,,3,,,76,55
48960,note_on,,,,,64,0,13,,,,,5,,,46,60
48960,note_on,,,,,32,0,9,,,,,1,,,76,50
48960,note_on,,,,,64,0,12,,,,,4,,,66,60
48960,note_on,,,,,32,0,8,,,,,0,,,76,60
49024,note_off,,,,,64,0,8,,,,,0,,,76,100
49024,note_off,,,,,64,0,11,,,,,3,,,76,100
49024,note_off,,,,,64,0,9,,,,,1,,,76,100
49024,note_off,,,,,64,0,10,,,,,2,,,76,100
49056,note_on,,,,,32,0,9,,,,,1,,,78,50
49056,note_on,,,,,32,0,8,,,,,0,,,78,60
49056,note_on,,,,,32,0,11,,,,,3,,,78,55
49056,note_on,,,,,32,0,10,,,,,2,,,78,50
49088,note_off,,,,,128,0,16,,,,,7,,,46,100
49088,note_off,,,,,128,0,15,,,,,7,,,66,100
49088,note_off,,,,,128,0,13,,,,,5,,,46,100
49088,note_off,,,,,128,0,12,,,,,4,,,66,100
49088,note_off,,,,,128,0,14,,,,,6,,,34,100
49120,note_off,,,,,64,0,8,,,,,0,,,78,100
49120,note_off,,,,,64,0,10,,,,,2,,,78,100
49120,note_off,,,,,64,0,9,,,,,1,,,78,100
49120,note_off,,,,,64,0,11,,,,,3,,,78,100
49152,note_on,,,,,32,0,8,,,,,0,,,74,70
49152,note_on,,,,,32,0,9,,,,,1,,,74,60
49152,note_on,,,,,32,0,11,,,,,3,,,74,65
49152,note_on,,,,,64,0,15,,,,,7,,,62,100
49152,note_on,,,,,64,0,16,,,,,7,,,47,100
49152,note_on,,,,,0,0,15,,,,,7,,,66,100
49152,note_on,,,,,64,0,12,,,,,4,,,66,70
49152,note_on,,,,,64,0,13,,,,,5,,,47,70
49152,note_on,,,,,32,0,10,,,,,2,,,74,60
49152,note_on,,,,,64,0,14,,,,,6,,,35,70
49216,program_change,,,,,0,0,8,,,,,0,40,,,
49216,note_off,,,,,64,0,8,,,,,0,,,74,100
49248,note_on,,,,,32,0,8,,,,,0,,,83,100
49312,note_off,,,,,64,0,8,,,,,0,,,83,100
49344,note_on,,,,,32,0,8,,,,,0,,,81,100
49408,note_off,,,,,256,0,9,,,,,1,,,74,100
49408,note_off,,,,,256,0,15,,,,,7,,,62,100
49408,note_off,,,,,0,0,15,,,,,7,,,66,100
49408,note_off,,,,,256,0,14,,,,,6,,,35,100
49408,note_off,,,,,64,0,8,,,,,0,,,81,100
49408,note_off,,,,,256,0,16,,,,,7,,,47,100
49408,note_off,,,,,256,0,13,,,,,5,,,47,100
49408,note_off,,,,,256,0,11,,,,,3,,,74,100
49408,note_off,,,,,256,0,10,,,,,2,,,74,100
49408,note_off,,,,,256,0,12,,,,,4,,,66,100
49440,note_on,,,,,32,0,8,,,,,0,,,83,100
49504,note_off,,,,,64,0,8,,,,,0,,,83,100
49536,program_change,,,,,128,0,9,,,,,1,40,,,
49536,note_on,,,,,32,0,8,,,,,0,,,79,100
49600,note_off,,,,,64,0,8,,,,,0,,,79,100
49632,note_on,,,,,32,0,8,,,,,0,,,81,100
49696,note_off,,,,,64,0,8,,,,,0,,,81,100
49728,note_on,,,,,32,0,8,,,,,0,,,78,100
49792,note_off,,,,,64,0,8,,,,,0,,,78,100
49824,note_on,,,,,32,0,8,,,,,0,,,79,100
49888,note_off,,,,,64,0,8,,,,,0,,,79,100
49920,note_on,,,,,512,0,11,,,,,3,,,79,100
49920,note_on,,,,,512,0,16,,,,,7,,,52,100
49920,note_on,,,,,32,0,8,,,,,0,,,76,100
49920,note_on,,,,,512,0,12,,,,,4,,,59,100
49920,note_on,,,,,512,0,14,,,,,6,,,40,100
49920,note_on,,,,,384,0,9,,,,,1,,,76,100
49920,note_on,,,,,0,0,15,,,,,7,,,59,100
49920,note_on,,,,,512,0,15,,,,,7,,,67,100
49920,note_on,,,,,512,0,10,,,,,2,,,83,100
49920,note_on,,,,,512,0,13,,,,,5,,,52,100
49920,note_on,,,,,0,0,12,,,,,4,,,67,100
49984,note_off,,,,,64,0,9,,,,,1,,,76,100
50016,note_on,,,,,32,0,9,,,,,1,,,79,100
50080,note_off,,,,,64,0,9,,,,,1,,,79,100
50112,note_on,,,,,32,0,9,,,,,1,,,78,100
50176,note_off,,,,,256,0,11,,,,,3,,,79,100
50176,note_off,,,,,256,0,14,,,,,6,,,40,100
50176,note_off,,,,,256,0,10,,,,,2,,,83,100
50176,note_off,,,,,256,0,15,,,,,7,,,67,100
50176,note_off,,,,,0,0,15,,,,,7,,,59,100
50176,note_off,,,,,0,0,12,,,,,4,,,67,100
50176,note_off,,,,,256,0,12,,,,,4,,,59,100
50176,note_off,,,,,256,0,16,,,,,7,,,52,100
50176,note_off,,,,,256,0,8,,,,,0,,,76,100
50176,note_off,,,,,256,0,13,,,,,5,,,52,100
50176,note_off,,,,,64,0,9,,,,,1,,,78,100
50208,note_on,,,,,32,0,9,,,,,1,,,79,100
50272,note_off,,,,,64,0,9,,,,,1,,,79,100
50304,note_on,,,,,32,0,9,,,,,1,,,76,100
50368,note_off,,,,,64,0,9,,,,,1,,,76,100
50400,note_on,,,,,32,0,9,,,,,1,,,78,100
50464,note_off,,,,,64,0,9,,,,,1,,,78,100
50496,note_on,,,,,32,0,9,,,,,1,,,74,100
50560,note_off,,,,,64,0,9,,,,,1,,,74,100
50592,note_on,,,,,32,0,9,,,,,1,,,76,100
50656,note_off,,,,,64,0,9,,,,,1,,,76,100
50684,program_change,,,,,508,0,8,,,,,0,48,,,
50688,note_on,,,,,0,0,12,,,,,4,,,69,100
50688,note_on,,,,,512,0,11,,,,,3,,,76,100
50688,note_on,,,,,512,0,14,,,,,6,,,33,100
50688,note_on,,,,,512,0,13,,,,,5,,,45,100
50688,note_on,,,,,512,0,16,,,,,7,,,45,100
50688,note_on,,,,,32,0,9,,,,,1,,,73,100
50688,note_on,,,,,512,0,12,,,,,4,,,61,100
50688,note_on,,,,,0,0,15,,,,,7,,,61,100
50688,note_on,,,,,512,0,15,,,,,7,,,64,100
50696,note_on,,,,,12,0,8,,,,,0,,,81,100
50696,note_on,,,,,520,0,10,,,,,2,,,81,100
50752,program_change,,,,,64,0,9,,,,,1,48,,,
50816,note_off,,,,,128,0,15,,,,,7,,,64,100
50816,note_off,,,,,0,0,12,,,,,4,,,69,100
50816,note_off,,,,,128,0,12,,,,,4,,,61,100
50816,note_off,,,,,128,0,16,,,,,7,,,45,100
50816,note_off,,,,,128,0,11,,,,,3,,,76,100
50816,note_off,,,,,64,0,9,,,,,1,,,73,100
50816,note_off,,,,,128,0,13,,,,,5,,,45,100
50816,note_off,,,,,0,0,15,,,,,7,,,61,100
50816,note_off,,,,,128,0,14,,,,,6,,,33,100
50824,note_off,,,,,128,0,8,,,,,0,,,81,100
50824,note_off,,,,,128,0,10,,,,,2,,,81,100
50880,note_on,,,,,64,0,13,,,,,5,,,45,100
50880,note_on,,,,,56,0,8,,,,,0,,,81,100
50880,note_on,,,,,64,0,15,,,,,7,,,64,100
50880,note_on,,,,,0,0,15,,,,,7,,,61,100
50880,note_on,,,,,64,0,12,,,,,4,,,61,100
50880,note_on,,,,,0,0,12,,,,,4,,,73,100
50880,note_on,,,,,56,0,10,,,,,2,,,81,100
50880,note_on,,,,,64,0,14,,,,,6,,,33,100
50880,note_on,,,,,64,0,16,,,,,7,,,45,100
50880,note_on,,,,,64,0,9,,,,,1,,,76,100
50880,note_on,,,,,64,0,11,,,,,3,,,76,100
51008,note_off,,,,,0,0,12,,,,,4,,,73,100
51008,note_off,,,,,128,0,12,,,,,4,,,61,100
51008,note_off,,,,,128,0,9,,,,,1,,,76,100
51008,note_off,,,,,128,0,13,,,,,5,,,45,100
51008,note_off,,,,,128,0,10,,,,,2,,,81,100
51008,note_off,,,,,0,0,15,,,,,7,,,61,100
51008,note_off,,,,,128,0,8,,,,,0,,,81,100
51008,note_off,,,,,128,0,14,,,,,6,,,33,100
51008,note_off,,,,,128,0,11,,,,,3,,,76,100
51008,note_off,,,,,128,0,16,,,,,7,,,45,100
51008,note_off,,,,,128,0,15,,,,,7,,,64,100
51072,note_on,,,,,64,0,11,,,,,3,,,76,100
51072,note_on,,,,,0,0,15,,,,,7,,,61,100
51072,note_on,,,,,64,0,15,,,,,7,,,64,100
51072,note_on,,,,,64,0,10,,,,,2,,,81,100
51072,note_on,,,,,64,0,13,,,,,5,,,45,100
51072,note_on,,,,,64,0,9,,,,,1,,,76,100
51072,note_on,,,,,64,0,8,,,,,0,,,81,100
51072,note_on,,,,,64,0,14,,,,,6,,,33,100
51072,note_on,,,,,0,0,12,,,,,4,,,73,100
51072,note_on,,,,,64,0,12,,,,,4,,,61,100
51072,note_on,,,,,64,0,16,,,,,7,,,45,100
51200,note_off,,,,,128,0,15,,,,,7,,,64,100
51200,note_off,,,,,128,0,9,,,,,1,,,76,100
51200,note_off,,,,,0,0,12,,,,,4,,,73,100
51200,note_off,,,,,128,0,13,,,,,5,,,45,100
51200,note_off,,,,,128,0,10,,,,,2,,,81,100
51200,note_off,,,,,128,0,14,,,,,6,,,33,100
51200,note_off,,,,,128,0,8,,,,,0,,,81,100
51200,note_off,,,,,128,0,12,,,,,4,,,61,100
51200,note_off,,,,,128,0,11,,,,,3,,,76,100
51200,note_off,,,,,0,0,15,,,,,7,,,61,100
51200,note_off,,,,,128,0,16,,,,,7,,,45,100
51264,note_on,,,,,64,0,16,,,,,7,,,45,100
51264,note_on,,,,,64,0,9,,,,,1,,,76,100
51264,note_on,,,,,64,0,15,,,,,7,,,64,100
51264,note_on,,,,,64,0,12,,,,,4,,,61,100
51264,note_on,,,,,0,0,12,,,,,4,,,73,100
51264,note_on,,,,,0,0,15,,,,,7,,,61,100
51264,note_on,,,,,64,0,13,,,,,5,,,45,100
51264,note_on,,,,,64,0,14,,,,,6,,,33,100
51264,note_on,,,,,64,0,10,,,,,2,,,81,100
51264,note_on,,,,,64,0,11,,,,,3,,,76,100
51264,note_on,,,,,64,0,8,,,,,0,,,81,100
51392,note_off,,,,,128,0,10,,,,,2,,,81,100
51392,note_off,,,,,0,0,15,,,,,7,,,61,100
51392,note_off,,,,,128,0,14,,,,,6,,,33,100
51392,note_off,,,,,0,0,12,,,,,4,,,73,100
51392,note_off,,,,,128,0,16,,,,,7,,,45,100
51392,note_off,,,,,128,0,15,,,,,7,,,64,100
51392,note_off,,,,,128,0,12,,,,,4,,,61,100
51392,note_off,,,,,128,0,11,,,,,3,,,76,100
51392,note_off,,,,,128,0,8,,,,,0,,,81,100
51392,note_off,,,,,128,0,9,,,,,1,,,76,100
51392,note_off,,,,,128,0,13,,,,,5,,,45,100
51456,note_on,,,,,0,0,15,,,,,7,,,67,100
51456,note_on,,,,,64,0,14,,,,,6,,,33,100
51456,note_on,,,,,64,0,8,,,,,0,,,79,100
51456,note_on,,,,,64,0,13,,,,,5,,,45,100
51456,note_on,,,,,64,0,15,,,,,7,,,64,100
51456,note_on,,,,,0,0,12,,,,,4,,,73,100
51456,note_on,,,,,64,0,12,,,,,4,,,61,100
51456,note_on,,,,,64,0,11,,,,,3,,,76,100
51456,note_on,,,,,64,0,9,,,,,1,,,76,100
51456,note_on,,,,,64,0,16,,,,,7,,,45,100
51456,note_on,,,,,64,0,10,,,,,2,,,79,100
51520,note_off,,,,,64,0,10,,,,,2,,,79,100
51520,program_change,,,,,0,0,10,,,,,2,40,,,
51552,note_on,,,,,32,0,10,,,,,2,,,79,100
51616,note_off,,,,,64,0,10,,,,,2,,,79,100
51648,note_on,,,,,32,0,10,,,,,2,,,78,100
51712,note_off,,,,,64,0,10,,,,,2,,,78,100
51712,note_off,,,,,256,0,8,,,,,0,,,79,100
51712,note_off,,,,,0,0,15,,,,,7,,,67,100
51712,note_off,,,,,256,0,15,,,,,7,,,64,100
51712,note_off,,,,,256,0,9,,,,,1,,,76,100
51712,note_off,,,,,256,0,11,,,,,3,,,76,100
51712,note_off,,,,,256,0,16,,,,,7,,,45,100
51712,note_off,,,,,0,0,12,,,,,4,,,73,100
51712,note_off,,,,,256,0,13,,,,,5,,,45,100
51712,note_off,,,,,256,0,14,,,,,6,,,33,100
51712,note_off,,,,,256,0,12,,,,,4,,,61,100
51744,note_on,,,,,32,0,10,,,,,2,,,79,100
51808,note_off,,,,,64,0,10,,,,,2,,,79,100
51840,note_on,,,,,32,0,10,,,,,2,,,76,100
51904,note_off,,,,,64,0,10,,,,,2,,,76,100
51936,note_on,,,,,32,0,10,,,,,2,,,78,100
52000,note_off,,,,,64,0,10,,,,,2,,,78,100
52032,note_on,,,,,32,0,10,,,,,2,,,74,100
52096,note_off,,,,,64,0,10,,,,,2,,,74,100
52128,note_on,,,,,32,0,10,,,,,2,,,76,100
52192,note_off,,,,,64,0,10,,,,,2,,,76,100
52220,program_change,,,,,508,0,11,,,,,3,40,,,
52224,note_on,,,,,512,0,14,,,,,6,,,33,100
52224,note_on,,,,,512,0,12,,,,,4,,,64,100
52224,note_on,,,,,0,0,12,,,,,4,,,73,100
52224,note_on,,,,,512,0,16,,,,,7,,,45,100
52224,note_on,,,,,512,0,8,,,,,0,,,79,100
52224,note_on,,,,,4,0,11,,,,,3,,,79,100
52224,note_on,,,,,512,0,9,,,,,1,,,76,100
52224,note_on,,,,,0,0,15,,,,,7,,,64,100
52224,note_on,,,,,512,0,15,,,,,7,,,67,100
52224,note_on,,,,,32,0,10,,,,,2,,,73,100
52224,note_on,,,,,512,0,13,,,,,5,,,45,100
52288,note_off,,,,,64,0,11,,,,,3,,,79,100
52320,note_on,,,,,32,0,11,,,,,3,,,76,100
52384,note_off,,,,,64,0,11,,,,,3,,,76,100
52416,note_on,,,,,32,0,11,,,,,3,,,74,100
52480,note_off,,,,,256,0,8,,,,,0,,,79,100
52480,note_off,,,,,256,0,13,,,,,5,,,45,100
52480,note_off,,,,,256,0,15,,,,,7,,,67,100
52480,note_off,,,,,0,0,15,,,,,7,,,64,100
52480,note_off,,,,,0,0,12,,,,,4,,,73,100
52480,note_off,,,,,256,0,14,,,,,6,,,33,100
52480,note_off,,,,,256,0,10,,,,,2,,,73,100
52480,note_off,,,,,256,0,16,,,,,7,,,45,100
52480,note_off,,,,,256,0,9,,,,,1,,,76,100
52480,note_off,,,,,64,0,11,,,,,3,,,74,100
52480,note_off,,,,,256,0,12,,,,,4,,,64,100
52512,note_on,,,,,32,0,11,,,,,3,,,76,100
52576,note_off,,,,,64,0,11,,,,,3,,,76,100
52608,program_change,,,,,128,0,10,,,,,2,48,,,
52608,note_on,,,,,32,0,11,,,,,3,,,73,100
52672,note_off,,,,,64,0,11,,,,,3,,,73,100
52704,note_on,,,,,32,0,11,,,,,3,,,74,100
52768,note_off,,,,,64,0,11,,,,,3,,,74,100
52800,note_on,,,,,32,0,11,,,,,3,,,71,100
52864,note_off,,,,,64,0,11,,,,,3,,,71,100
52896,note_on,,,,,32,0,11,,,,,3,,,73,100
52960,note_off,,,,,64,0,11,,,,,3,,,73,100
52992,note_on,,,,,512,0,12,,,,,4,,,69,100
52992,note_on,,,,,512,0,14,,,,,6,,,33,100
52992,note_on,,,,,0,0,12,,,,,4,,,73,100
52992,note_on,,,,,512,0,13,,,,,5,,,45,100
52992,note_on,,,,,512,0,9,,,,,1,,,76,100
52992,note_on,,,,,0,0,15,,,,,7,,,64,100
52992,note_on,,,,,32,0,11,,,,,3,,,69,100
52992,note_on,,,,,512,0,8,,,,,0,,,79,100
52992,note_on,,,,,384,0,10,,,,,2,,,79,100
52992,note_on,,,,,512,0,15,,,,,7,,,67,100
52992,note_on,,,,,512,0,16,,,,,7,,,45,100
53056,program_change,,,,,64,0,11,,,,,3,48,,,
53120,note_off,,,,,128,0,14,,,,,6,,,33,100
53120,note_off,,,,,64,0,11,,,,,3,,,69,100
53120,note_off,,,,,128,0,9,,,,,1,,,76,100
53120,note_off,,,,,128,0,13,,,,,5,,,45,100
53120,note_off,,,,,128,0,8,,,,,0,,,79,100
53120,note_off,,,,,0,0,12,,,,,4,,,73,100
53120,note_off,,,,,128,0,12,,,,,4,,,69,100
53120,note_off,,,,,128,0,10,,,,,2,,,79,100
53120,note_off,,,,,128,0,16,,,,,7,,,45,100
53120,note_off,,,,,0,0,15,,,,,7,,,64,100
53120,note_off,,,,,128,0,15,,,,,7,,,67,100
53184,note_on,,,,,64,0,16,,,,,7,,,45,100
53184,note_on,,,,,64,0,8,,,,,0,,,79,100
53184,note_on,,,,,64,0,13,,,,,5,,,45,100
53184,note_on,,,,,64,0,11,,,,,3,,,76,100
53184,note_on,,,,,0,0,15,,,,,7,,,64,100
53184,note_on,,,,,64,0,15,,,,,7,,,67,100
53184,note_on,,,,,64,0,10,,,,,2,,,79,100
53184,note_on,,,,,64,0,14,,,,,6,,,33,100
53184,note_on,,,,,64,0,12,,,,,4,,,69,100
53184,note_on,,,,,0,0,12,,,,,4,,,73,100
53184,note_on,,,,,64,0,9,,,,,1,,,76,100
53312,note_off,,,,,128,0,9,,,,,1,,,76,100
53312,note_off,,,,,128,0,16,,,,,7,,,45,100
53312,note_off,,,,,128,0,8,,,,,0,,,79,100
53312,note_off,,,,,128,0,12,,,,,4,,,69,100
53312,note_off,,,,,128,0,13,,,,,5,,,45,100
53312,note_off,,,,,128,0,15,,,,,7,,,67,100
53312,note_off,,,,,0,0,12,,,,,4,,,73,100
53312,note_off,,,,,0,0,15,,,,,7,,,64,100
53312,note_off,,,,,128,0,10,,,,,2,,,79,100
53312,note_off,,,,,128,0,14,,,,,6,,,33,100
53312,note_off,,,,,128,0,11,,,,,3,,,76,100
53376,note_on,,,,,64,0,14,,,,,6,,,33,100
53376,note_on,,,,,64,0,11,,,,,3,,,76,100
53376,note_on,,,,,64,0,16,,,,,7,,,45,100
53376,note_on,,,,,64,0,9,,,,,1,,,76,100
53376,note_on,,,,,64,0,13,,,,,5,,,45,100
53376,note_on,,,,,64,0,8,,,,,0,,,79,100
53376,note_on,,,,,64,0,10,,,,,2,,,79,100
53376,note_on,,,,,64,0,12,,,,,4,,,69,100
53376,note_on,,,,,0,0,12,,,,,4,,,73,100
53376,note_on,,,,,0,0,15,,,,,7,,,64,100
53376,note_on,,,,,64,0,15,,,,,7,,,67,100
53504,note_off,,,,,128,0,10,,,,,2,,,79,100
53504,note_off,,,,,128,0,15,,,,,7,,,67,100
53504,note_off,,,,,128,0,11,,,,,3,,,76,100
53504,note_off,,,,,128,0,9,,,,,1,,,76,100
53504,note_off,,,,,128,0,16,,,,,7,,,45,100
53504,note_off,,,,,0,0,15,,,,,7,,,64,100
53504,note_off,,,,,0,0,12,,,,,4,,,73,100
53504,note_off,,,,,128,0,8,,,,,0,,,79,100
53504,note_off,,,,,128,0,12,,,,,4,,,69,100
53504,note_off,,,,,128,0,14,,,,,6,,,33,100
53504,note_off,,,,,128,0,13,,,,,5,,,45,100
53568,note_on,,,,,64,0,12,,,,,4,,,69,100
53568,note_on,,,,,64,0,9,,,,,1,,,76,100
53568,note_on,,,,,64,0,14,,,,,6,,,33,100
53568,note_on,,,,,0,0,12,,,,,4,,,73,100
53568,note_on,,,,,64,0,13,,,,,5,,,45,100
53568,note_on,,,,,0,0,15,,,,,7,,,64,100
53568,note_on,,,,,64,0,10,,,,,2,,,79,100
53568,note_on,,,,,64,0,16,,,,,7,,,45,100
53568,note_on,,,,,64,0,11,,,,,3,,,76,100
53568,note_on,,,,,64,0,15,,,,,7,,,67,100
53568,note_on,,,,,64,0,8,,,,,0,,,79,100
53696,note_off,,,,,128,0,10,,,,,2,,,79,100
53696,note_off,,,,,0,0,15,,,,,7,,,64,100
53696,note_off,,,,,128,0,12,,,,,4,,,69,100
53696,note_off,,,,,128,0,9,,,,,1,,,76,100
53696,note_off,,,,,0,0,12,,,,,4,,,73,100
53696,note_off,,,,,128,0,14,,,,,6,,,33,100
53696,note_off,,,,,128,0,11,,,,,3,,,76,100
53696,note_off,,,,,128,0,15,,,,,7,,,67,100
53696,note_off,,,,,128,0,13,,,,,5,,,45,100
53696,note_off,,,,,128,0,16,,,,,7,,,45,100
53696,note_off,,,,,128,0,8,,,,,0,,,79,100
53760,note_on,,,,,0,0,15,,,,,7,,,62,100
53760,note_on,,,,,64,0,15,,,,,7,,,66,100
53760,note_on,,,,,64,0,8,,,,,0,,,78,100
53760,note_on,,,,,64,0,11,,,,,3,,,74,100
53760,note_on,,,,,64,0,16,,,,,7,,,50,100
53760,note_on,,,,,64,0,13,,,,,5,,,50,100
53760,note_on,,,,,64,0,9,,,,,1,,,74,100
53760,note_on,,,,,64,0,14,,,,,6,,,38,100
53760,note_on,,,,,64,0,12,,,,,4,,,69,100
53760,note_on,,,,,64,0,10,,,,,2,,,78,100
53824,note_off,,,,,64,0,8,,,,,0,,,78,100
53824,program_change,,,,,0,0,8,,,,,0,40,,,
53856,note_on,,,,,32,0,8,,,,,0,,,81,100
53920,note_off,,,,,64,0,8,,,,,0,,,81,100
53952,note_on,,,,,32,0,8,,,,,0,,,79,100
54016,note_off,,,,,64,0,8,,,,,0,,,79,100
54016,note_off,,,,,256,0,16,,,,,7,,,50,100
54016,note_off,,,,,256,0,13,,,,,5,,,50,100
54016,note_off,,,,,256,0,9,,,,,1,,,74,100
54016,note_off,,,,,256,0,14,,,,,6,,,38,100
54016,note_off,,,,,256,0,11,,,,,3,,,74,100
54016,note_off,,,,,256,0,10,,,,,2,,,78,100
54016,note_off,,,,,256,0,15,,,,,7,,,66,100
54016,note_off,,,,,0,0,15,,,,,7,,,62,100
54016,note_off,,,,,256,0,12,,,,,4,,,69,100
54048,note_on,,,,,32,0,8,,,,,0,,,81,100
54112,note_off,,,,,64,0,8,,,,,0,,,81,100
54144,note_on,,,,,32,0,8,,,,,0,,,78,100
54208,note_off,,,,,64,0,8,,,,,0,,,78,100
54240,note_on,,,,,32,0,8,,,,,0,,,79,100
54304,note_off,,,,,64,0,8,,,,,0,,,79,100
54336,note_on,,,,,32,0,8,,,,,0,,,76,100
54400,note_off,,,,,64,0,8,,,,,0,,,76,100
54432,note_on,,,,,32,0,8,,,,,0,,,78,100
54496,note_off,,,,,64,0,8,,,,,0,,,78,100
54524,program_change,,,,,508,0,9,,,,,1,40,,,
54528,note_on,,,,,512,0,10,,,,,2,,,78,100
54528,note_on,,,,,512,0,13,,,,,5,,,50,100
54528,note_on,,,,,32,0,8,,,,,0,,,74,100
54528,note_on,,,,,512,0,16,,,,,7,,,50,100
54528,note_on,,,,,0,0,15,,,,,7,,,62,100
54528,note_on,,,,,512,0,12,,,,,4,,,69,100
54528,note_on,,,,,4,0,9,,,,,1,,,74,100
54528,note_on,,,,,512,0,11,,,,,3,,,78,100
54528,note_on,,,,,512,0,15,,,,,7,,,66,100
54528,note_on,,,,,512,0,14,,,,,6,,,38,100
54592,note_off,,,,,64,0,9,,,,,1,,,74,100
54624,note_on,,,,,32,0,9,,,,,1,,,78,100
54688,note_off,,,,,64,0,9,,,,,1,,,78,100
54720,note_on,,,,,32,0,9,,,,,1,,,76,100
54784,note_off,,,,,256,0,12,,,,,4,,,69,100
54784,note_off,,,,,256,0,8,,,,,0,,,74,100
54784,note_off,,,,,256,0,16,,,,,7,,,50,100
54784,note_off,,,,,256,0,10,,,,,2,,,78,100
54784,note_off,,,,,256,0,11,,,,,3,,,78,100
54784,note_off,,,,,256,0,15,,,,,7,,,66,100
54784,note_off,,,,,256,0,13,,,,,5,,,50,100
54784,note_off,,,,,0,0,15,,,,,7,,,62,100
54784,note_off,,,,,256,0,14,,,,,6,,,38,100
54784,note_off,,,,,64,0,9,,,,,1,,,76,100
54816,note_on,,,,,32,0,9,,,,,1,,,78,100
54880,note_off,,,,,64,0,9,,,,,1,,,78,100
54912,note_on,,,,,32,0,9,,,,,1,,,74,100
54976,note_off,,,,,64,0,9,,,,,1,,,74,100
55008,note_on,,,,,32,0,9,,,,,1,,,76,100
55072,note_off,,,,,64,0,9,,,,,1,,,76,100
55104,note_on,,,,,32,0,9,,,,,1,,,73,100
55168,note_off,,,,,64,0,9,,,,,1,,,73,100
55200,note_on,,,,,32,0,9,,,,,1,,,74,100
55264,note_off,,,,,64,0,9,,,,,1,,,74,100
55292,program_change,,,,,508,0,8,,,,,0,48,,,
55296,note_on,,,,,0,0,12,,,,,4,,,71,100
55296,note_on,,,,,512,0,13,,,,,5,,,47,100
55296,note_on,,,,,512,0,11,,,,,3,,,74,100
55296,note_on,,,,,0,0,15,,,,,7,,,67,100
55296,note_on,,,,,512,0,15,,,,,7,,,62,100
55296,note_on,,,,,512,0,16,,,,,7,,,47,100
55296,note_on,,,,,512,0,12,,,,,4,,,67,100
55296,note_on,,,,,32,0,9,,,,,1,,,71,100
55296,note_on,,,,,512,0,14,,,,,6,,,35,100
55304,note_on,,,,,12,0,8,,,,,0,,,79,100
55304,note_on,,,,,520,0,10,,,,,2,,,79,100
55360,program_change,,,,,64,0,9,,,,,1,48,,,
55424,note_off,,,,,64,0,9,,,,,1,,,71,100
55424,note_off,,,,,128,0,12,,,,,4,,,67,100
55424,note_off,,,,,128,0,15,,,,,7,,,62,100
55424,note_off,,,,,0,0,15,,,,,7,,,67,100
55424,note_off,,,,,128,0,13,,,,,5,,,47,100
55424,note_off,,,,,128,0,14,,,,,6,,,35,100
55424,note_off,,,,,128,0,11,,,,,3,,,74,100
55424,note_off,,,,,128,0,16,,,,,7,,,47,100
55424,note_off,,,,,0,0,12,,,,,4,,,71,100
55432,note_off,,,,,128,0,10,,,,,2,,,79,100
55432,note_off,,,,,128,0,8,,,,,0,,,79,100
55488,note_on,,,,,64,0,9,,,,,1,,,74,100
55488,note_on,,,,,64,0,13,,,,,5,,,47,100
55488,note_on,,,,,64,0,15,,,,,7,,,62,100
55488,note_on,,,,,64,0,16,,,,,7,,,47,100
55488,note_on,,,,,64,0,14,,,,,6,,,35,100
55488,note_on,,,,,64,0,11,,,,,3,,,74,100
55488,note_on,,,,,64,0,12,,,,,4,,,67,100
55488,note_on,,,,,0,0,12,,,,,4,,,71,100
55488,note_on,,,,,0,0,15,,,,,7,,,67,100
55488,note_on,,,,,56,0,10,,,,,2,,,79,100
55488,note_on,,,,,56,0,8,,,,,0,,,79,100
55616,note_off,,,,,128,0,11,,,,,3,,,74,100
55616,note_off,,,,,128,0,13,,,,,5,,,47,100
55616,note_off,,,,,128,0,16,,,,,7,,,47,100
55616,note_off,,,,,128,0,9,,,,,1,,,74,100
55616,note_off,,,,,128,0,8,,,,,0,,,79,100
55616,note_off,,,,,128,0,10,,,,,2,,,79,100
55616,note_off,,,,,128,0,14,,,,,6,,,35,100
55616,note_off,,,,,0,0,15,,,,,7,,,67,100
55616,note_off,,,,,128,0,15,,,,,7,,,62,100
55616,note_off,,,,,128,0,12,,,,,4,,,67,100
55616,note_off,,,,,0,0,12,,,,,4,,,71,100
55680,note_on,,,,,0,0,12,,,,,4,,,71,100
55680,note_on,,,,,64,0,13,,,,,5,,,47,100
55680,note_on,,,,,64,0,9,,,,,1,,,74,100
55680,note_on,,,,,64,0,10,,,,,2,,,79,100
55680,note_on,,,,,64,0,11,,,,,3,,,74,100
55680,note_on,,,,,64,0,12,,,,,4,,,67,100
55680,note_on,,,,,0,0,15,,,,,7,,,67,100
55680,note_on,,,,,64,0,16,,,,,7,,,47,100
55680,note_on,,,,,64,0,8,,,,,0,,,79,100
55680,note_on,,,,,64,0,14,,,,,6,,,35,100
55680,note_on,,,,,64,0,15,,,,,7,,,62,100
55808,note_off,,,,,128,0,8,,,,,0,,,79,100
55808,note_off,,,,,128,0,12,,,,,4,,,67,100
55808,note_off,,,,,0,0,12,,,,,4,,,71,100
55808,note_off,,,,,128,0,13,,,,,5,,,47,100
55808,note_off,,,,,128,0,10,,,,,2,,,79,100
55808,note_off,,,,,128,0,16,,,,,7,,,47,100
55808,note_off,,,,,128,0,9,,,,,1,,,74,100
55808,note_off,,,,,128,0,11,,,,,3,,,74,100
55808,note_off,,,,,128,0,14,,,,,6,,,35,100
55808,note_off,,,,,0,0,15,,,,,7,,,67,100
55808,note_off,,,,,128,0,15,,,,,7,,,62,100
55872,note_on,,,,,64,0,11,,,,,3,,,74,100
55872,note_on,,,,,64,0,16,,,,,7,,,47,100
55872,note_on,,,,,0,0,15,,,,,7,,,67,100
55872,note_on,,,,,64,0,15,,,,,7,,,62,100
55872,note_on,,,,,64,0,10,,,,,2,,,79,100
55872,note_on,,,,,64,0,9,,,,,1,,,74,100
55872,note_on,,,,,64,0,13,,,,,5,,,47,100
55872,note_on,,,,,64,0,14,,,,,6,,,35,100
55872,note_on,,,,,0,0,12,,,,,4,,,71,100
55872,note_on,,,,,64,0,8,,,,,0,,,79,100
55872,note_on,,,,,64,0,12,,,,,4,,,67,100
56000,note_off,,,,,128,0,13,,,,,5,,,47,100
56000,note_off,,,,,128,0,16,,,,,7,,,47,100
56000,note_off,,,,,0,0,12,,,,,4,,,71,100
56000,note_off,,,,,128,0,12,,,,,4,,,67,100
56000,note_off,,,,,128,0,15,,,,,7,,,62,100
56000,note_off,,,,,0,0,15,,,,,7,,,67,100
56000,note_off,,,,,128,0,10,,,,,2,,,79,100
56000,note_off,,,,,128,0,11,,,,,3,,,74,100
56000,note_off,,,,,128,0,9,,,,,1,,,74,100
56000,note_off,,,,,128,0,14,,,,,6,,,35,100
56000,note_off,,,,,128,0,8,,,,,0,,,79,100
56064,note_on,,,,,64,0,11,,,,,3,,,76,100
56064,note_on,,,,,64,0,12,,,,,4,,,73,100
56064,note_on,,,,,64,0,16,,,,,7,,,46,100
56064,note_on,,,,,0,0,12,,,,,4,,,61,100
56064,note_on,,,,,64,0,13,,,,,5,,,46,100
56064,note_on,,,,,64,0,15,,,,,7,,,67,100
56064,note_on,,,,,0,0,15,,,,,7,,,64,100
56064,note_on,,,,,64,0,14,,,,,6,,,34,100
56064,note_on,,,,,64,0,9,,,,,1,,,76,100
56064,note_on,,,,,64,0,8,,,,,0,,,79,100
56064,note_on,,,,,64,0,10,,,,,2,,,79,100
56128,note_off,,,,,64,0,10,,,,,2,,,79,100
56128,program_change,,,,,0,0,10,,,,,2,40,,,
56160,note_on,,,,,32,0,10,,,,,2,,,79,100
56224,note_off,,,,,64,0,10,,,,,2,,,79,100
56256,note_on,,,,,32,0,10,,,,,2,,,78,100
56320,note_off,,,,,256,0,14,,,,,6,,,34,100
56320,note_off,,,,,0,0,15,,,,,7,,,64,100
56320,note_off,,,,,256,0,9,,,,,1,,,76,100
56320,note_off,,,,,256,0,13,,,,,5,,,46,100
56320,note_off,,,,,256,0,16,,,,,7,,,46,100
56320,note_off,,,,,256,0,11,,,,,3,,,76,100
56320,note_off,,,,,64,0,10,,,,,2,,,78,100
56320,note_off,,,,,256,0,12,,,,,4,,,73,100
56320,note_off,,,,,256,0,8,,,,,0,,,79,100
56320,note_off,,,,,0,0,12,,,,,4,,,61,100
56320,note_off,,,,,256,0,15,,,,,7,,,67,100
56352,note_on,,,,,32,0,10,,,,,2,,,79,100
56416,note_off,,,,,64,0,10,,,,,2,,,79,100
56448,note_on,,,,,32,0,10,,,,,2,,,76,100
56512,note_off,,,,,64,0,10,,,,,2,,,76,100
56544,note_on,,,,,32,0,10,,,,,2,,,78,100
56608,note_off,,,,,64,0,10,,,,,2,,,78,100
56640,note_on,,,,,32,0,10,,,,,2,,,74,100
56704,note_off,,,,,64,0,10,,,,,2,,,74,100
56736,note_on,,,,,32,0,10,,,,,2,,,76,100
56800,note_off,,,,,64,0,10,,,,,2,,,76,100
56828,program_change,,,,,508,0,11,,,,,3,40,,,
56832,note_on,,,,,0,0,12,,,,,4,,,64,100
56832,note_on,,,,,512,0,12,,,,,4,,,73,100
56832,note_on,,,,,512,0,9,,,,,1,,,76,100
56832,note_on,,,,,512,0,14,,,,,6,,,34,100
56832,note_on,,,,,512,0,15,,,,,7,,,67,100
56832,note_on,,,,,512,0,13,,,,,5,,,46,100
56832,note_on,,,,,0,0,15,,,,,7,,,64,100
56832,note_on,,,,,4,0,11,,,,,3,,,79,100
56832,note_on,,,,,32,0,10,,,,,2,,,73,100
56832,note_on,,,,,512,0,8,,,,,0,,,79,100
56832,note_on,,,,,512,0,16,,,,,7,,,46,100
56896,note_off,,,,,64,0,11,,,,,3,,,79,100
56928,note_on,,,,,32,0,11,,,,,3,,,76,100
56992,note_off,,,,,64,0,11,,,,,3,,,76,100
57024,note_on,,,,,32,0,11,,,,,3,,,74,100
57088,note_off,,,,,256,0,9,,,,,1,,,76,100
57088,note_off,,,,,64,0,11,,,,,3,,,74,100
57088,note_off,,,,,256,0,14,,,,,6,,,34,100
57088,note_off,,,,,256,0,15,,,,,7,,,67,100
57088,note_off,,,,,256,0,12,,,,,4,,,73,100
57088,note_off,,,,,0,0,12,,,,,4,,,64,100
57088,note_off,,,,,256,0,13,,,,,5,,,46,100
57088,note_off,,,,,0,0,15,,,,,7,,,64,100
57088,note_off,,,,,256,0,16,,,,,7,,,46,100
57088,note_off,,,,,256,0,10,,,,,2,,,73,100
57088,note_off,,,,,256,0,8,,,,,0,,,79,100
57120,note_on,,,,,32,0,11,,,,,3,,,76,100
57184,note_off,,,,,64,0,11,,,,,3,,,76,100
57216,program_change,,,,,128,0,10,,,,,2,48,,,
57216,note_on,,,,,32,0,11,,,,,3,,,73,100
57280,note_off,,,,,64,0,11,,,,,3,,,73,100
57312,note_on,,,,,32,0,11,,,,,3,,,74,100
57376,note_off,,,,,64,0,11,,,,,3,,,74,100
57408,note_on,,,,,32,0,11,,,,,3,,,71,100
57472,note_off,,,,,64,0,11,,,,,3,,,71,100
57504,note_on,,,,,32,0,11,,,,,3,,,73,100
57568,note_off,,,,,64,0,11,,,,,3,,,73,100
57600,note_on,,,,,384,0,10,,,,,2,,,78,100
57600,note_on,,,,,512,0,16,,,,,7,,,46,100
57600,note_on,,,,,512,0,13,,,,,5,,,46,100
57600,note_on,,,,,512,0,14,,,,,6,,,34,100
57600,note_on,,,,,512,0,15,,,,,7,,,66,100
57600,note_on,,,,,0,0,15,,,,,7,,,61,100
57600,note_on,,,,,512,0,8,,,,,0,,,78,100
57600,note_on,,,,,512,0,9,,,,,1,,,73,100
57600,note_on,,,,,32,0,11,,,,,3,,,70,100
57600,note_on,,,,,512,0,12,,,,,4,,,66,100
57664,program_change,,,,,64,0,11,,,,,3,48,,,
57728,note_off,,,,,128,0,10,,,,,2,,,78,100
57728,note_off,,,,,128,0,14,,,,,6,,,34,100
57728,note_off,,,,,128,0,16,,,,,7,,,46,100
57728,note_off,,,,,128,0,8,,,,,0,,,78,100
57728,note_off,,,,,128,0,9,,,,,1,,,73,100
57728,note_off,,,,,64,0,11,,,,,3,,,70,100
57728,note_off,,,,,128,0,12,,,,,4,,,66,100
57728,note_off,,,,,0,0,15,,,,,7,,,61,100
57728,note_off,,,,,128,0,15,,,,,7,,,66,100
57728,note_off,,,,,128,0,13,,,,,5,,,46,100
57792,note_on,,,,,64,0,8,,,,,0,,,78,100
57792,note_on,,,,,64,0,12,,,,,4,,,66,100
57792,note_on,,,,,64,0,14,,,,,6,,,34,100
57792,note_on,,,,,64,0,10,,,,,2,,,78,100
57792,note_on,,,,,64,0,9,,,,,1,,,73,100
57792,note_on,,,,,0,0,15,,,,,7,,,61,100
57792,note_on,,,,,64,0,15,,,,,7,,,66,100
57792,note_on,,,,,64,0,11,,,,,3,,,73,100
57792,note_on,,,,,64,0,13,,,,,5,,,46,100
57792,note_on,,,,,64,0,16,,,,,7,,,46,100
57920,note_off,,,,,128,0,11,,,,,3,,,73,100
57920,note_off,,,,,128,0,9,,,,,1,,,73,100
57920,note_off,,,,,128,0,15,,,,,7,,,66,100
57920,note_off,,,,,0,0,15,,,,,7,,,61,100
57920,note_off,,,,,128,0,16,,,,,7,,,46,100
57920,note_off,,,,,128,0,10,,,,,2,,,78,100
57920,note_off,,,,,128,0,14,,,,,6,,,34,100
57920,note_off,,,,,128,0,8,,,,,0,,,78,100
57920,note_off,,,,,128,0,13,,,,,5,,,46,100
57920,note_off,,,,,128,0,12,,,,,4,,,66,100
57984,note_on,,,,,64,0,11,,,,,3,,,73,100
57984,note_on,,,,,64,0,12,,,,,4,,,66,100
57984,note_on,,,,,64,0,9,,,,,1,,,73,100
57984,note_on,,,,,64,0,13,,,,,5,,,46,100
57984,note_on,,,,,64,0,16,,,,,7,,,46,100
57984,note_on,,,,,64,0,10,,,,,2,,,76,100
57984,note_on,,,,,0,0,15,,,,,7,,,66,100
57984,note_on,,,,,64,0,8,,,,,0,,,76,100
57984,note_on,,,,,64,0,15,,,,,7,,,64,100
57984,note_on,,,,,64,0,14,,,,,6,,,34,100
58112,note_off,,,,,128,0,13,,,,,5,,,46,100
58112,note_off,,,,,128,0,10,,,,,2,,,76,100
58112,note_off,,,,,128,0,15,,,,,7,,,64,100
58112,note_off,,,,,0,0,15,,,,,7,,,66,100
58112,note_off,,,,,128,0,8,,,,,0,,,76,100
58112,note_off,,,,,128,0,14,,,,,6,,,34,100
58112,note_off,,,,,128,0,11,,,,,3,,,73,100
58112,note_off,,,,,128,0,16,,,,,7,,,46,100
58112,note_off,,,,,128,0,12,,,,,4,,,66,100
58112,note_off,,,,,128,0,9,,,,,1,,,73,100
58176,note_on,,,,,0,0,15,,,,,7,,,66,100
58176,note_on,,,,,64,0,9,,,,,1,,,73,100
58176,note_on,,,,,64,0,11,,,,,3,,,73,100
58176,note_on,,,,,64,0,13,,,,,5,,,46,100
58176,note_on,,,,,64,0,15,,,,,7,,,64,100
58176,note_on,,,,,64,0,12,,,,,4,,,66,100
58176,note_on,,,,,64,0,8,,,,,0,,,76,100
58176,note_on,,,,,64,0,16,,,,,7,,,46,100
58176,note_on,,,,,64,0,14,,,,,6,,,34,100
58176,note_on,,,,,64,0,10,,,,,2,,,76,100
58304,note_off,,,,,128,0,14,,,,,6,,,34,100
58304,note_off,,,,,128,0,12,,,,,4,,,66,100
58304,note_off,,,,,128,0,11,,,,,3,,,73,100
58304,note_off,,,,,128,0,15,,,,,7,,,64,100
58304,note_off,,,,,128,0,10,,,,,2,,,76,100
58304,note_off,,,,,128,0,9,,,,,1,,,73,100
58304,note_off,,,,,128,0,16,,,,,7,,,46,100
58304,note_off,,,,,128,0,13,,,,,5,,,46,100
58304,note_off,,,,,128,0,8,,,,,0,,,76,100
58304,note_off,,,,,0,0,15,,,,,7,,,66,100
58364,program_change,,,,,60,0,8,,,,,0,40,,,
58368,note_on,,,,,64,0,10,,,,,2,,,74,100
58368,note_on,,,,,64,0,15,,,,,7,,,66,100
58368,note_on,,,,,64,0,13,,,,,5,,,47,100
58368,note_on,,,,,64,0,12,,,,,4,,,66,100
58368,note_on,,,,,64,0,16,,,,,7,,,47,100
58368,note_on,,,,,0,0,15,,,,,7,,,62,100
58368,note_on,,,,,64,0,11,,,,,3,,,71,100
58368,note_on,,,,,64,0,14,,,,,6,,,35,100
58368,note_on,,,,,64,0,9,,,,,1,,,71,100
58376,note_on,,,,,12,0,8,,,,,0,,,74,100
58464,note_on,,,,,88,0,8,,,,,0,,,73,100
58468,note_off,,,,,4,0,8,,,,,0,,,74,100
58496,note_off,,,,,0,0,15,,,,,7,,,62,100
58496,note_off,,,,,128,0,16,,,,,7,,,47,100
58496,note_off,,,,,128,0,14,,,,,6,,,35,100
58496,note_off,,,,,128,0,13,,,,,5,,,47,100
58496,note_off,,,,,128,0,15,,,,,7,,,66,100
58556,note_off,,,,,88,0,8,,,,,0,,,73,100
58560,note_on,,,,,4,0,8,,,,,0,,,71,100
58560,note_on,,,,,64,0,14,,,,,6,,,35,100
58560,note_on,,,,,64,0,13,,,,,5,,,47,100
58560,note_on,,,,,64,0,16,,,,,7,,,47,100
58560,note_on,,,,,64,0,15,,,,,7,,,66,100
58560,note_on,,,,,0,0,15,,,,,7,,,62,100
58624,note_off,,,,,256,0,9,,,,,1,,,71,100
58624,note_off,,,,,256,0,12,,,,,4,,,66,100
58624,note_off,,,,,256,0,11,,,,,3,,,71,100
58624,note_off,,,,,256,0,10,,,,,2,,,74,100
58652,note_off,,,,,92,0,8,,,,,0,,,71,100
58656,note_on,,,,,4,0,8,,,,,0,,,73,100
58688,note_off,,,,,128,0,13,,,,,5,,,47,100
58688,note_off,,,,,0,0,15,,,,,7,,,62,100
58688,note_off,,,,,128,0,15,,,,,7,,,66,100
58688,note_off,,,,,128,0,16,,,,,7,,,47,100
58688,note_off,,,,,128,0,14,,,,,6,,,35,100
58748,note_off,,,,,92,0,8,,,,,0,,,73,100
58752,note_on,,,,,0,0,15,,,,,7,,,67,100
58752,note_on,,,,,64,0,15,,,,,7,,,62,100
58752,note_on,,,,,64,0,13,,,,,5,,,47,100
58752,note_on,,,,,64,0,16,,,,,7,,,47,100
58752,note_on,,,,,4,0,8,,,,,0,,,74,100
58752,note_on,,,,,64,0,14,,,,,6,,,35,100
58816,note_off,,,,,64,0,8,,,,,0,,,74,100
58848,note_on,,,,,32,0,8,,,,,0,,,79,100
58880,note_off,,,,,128,0,13,,,,,5,,,47,100
58880,note_off,,,,,128,0,15,,,,,7,,,62,100
58880,note_off,,,,,0,0,15,,,,,7,,,67,100
58880,note_off,,,,,128,0,16,,,,,7,,,47,100
58880,note_off,,,,,128,0,14,,,,,6,,,35,100
58912,note_off,,,,,64,0,8,,,,,0,,,79,100
58944,note_on,,,,,0,0,15,,,,,7,,,67,100
58944,note_on,,,,,64,0,16,,,,,7,,,47,100
58944,note_on,,,,,64,0,14,,,,,6,,,35,100
58944,note_on,,,,,64,0,13,,,,,5,,,47,100
58944,note_on,,,,,32,0,8,,,,,0,,,78,100
58944,note_on,,,,,64,0,15,,,,,7,,,62,100
59008,note_off,,,,,64,0,8,,,,,0,,,78,100
59040,note_on,,,,,32,0,8,,,,,0,,,79,100
59072,note_off,,,,,128,0,16,,,,,7,,,47,100
59072,note_off,,,,,128,0,13,,,,,5,,,47,100
59072,note_off,,,,,0,0,15,,,,,7,,,67,100
59072,note_off,,,,,128,0,14,,,,,6,,,35,100
59072,note_off,,,,,128,0,15,,,,,7,,,62,100
59104,note_off,,,,,64,0,8,,,,,0,,,79,100
59136,note_on,,,,,64,0,14,,,,,6,,,37,100
59136,note_on,,,,,64,0,13,,,,,5,,,49,100
59136,note_on,,,,,0,0,15,,,,,7,,,67,100
59136,note_on,,,,,32,0,8,,,,,0,,,76,100
59136,note_on,,,,,64,0,16,,,,,7,,,49,100
59136,note_on,,,,,64,0,15,,,,,7,,,64,100
59228,note_off,,,,,92,0,8,,,,,0,,,76,100
59232,note_on,,,,,4,0,8,,,,,0,,,74,100
59264,note_off,,,,,128,0,15,,,,,7,,,64,100
59264,note_off,,,,,0,0,15,,,,,7,,,67,100
59264,note_off,,,,,128,0,16,,,,,7,,,49,100
59264,note_off,,,,,128,0,13,,,,,5,,,49,100
59264,note_off,,,,,128,0,14,,,,,6,,,37,100
59324,note_off,,,,,92,0,8,,,,,0,,,74,100
59328,note_on,,,,,64,0,15,,,,,7,,,64,100
59328,note_on,,,,,0,0,15,,,,,7,,,67,100
59328,note_on,,,,,64,0,16,,,,,7,,,49,100
59328,note_on,,,,,64,0,13,,,,,5,,,49,100
59328,note_on,,,,,4,0,8,,,,,0,,,73,100
59328,note_on,,,,,64,0,14,,,,,6,,,37,100
59420,note_off,,,,,92,0,8,,,,,0,,,73,100
59424,note_on,,,,,4,0,8,,,,,0,,,74,100
59456,note_off,,,,,128,0,14,,,,,6,,,37,100
59456,note_off,,,,,128,0,16,,,,,7,,,49,100
59456,note_off,,,,,128,0,13,,,,,5,,,49,100
59456,note_off,,,,,128,0,15,,,,,7,,,64,100
59456,note_off,,,,,0,0,15,,,,,7,,,67,100
59516,note_off,,,,,92,0,8,,,,,0,,,74,100
59520,note_on,,,,,4,0,8,,,,,0,,,76,100
59520,note_on,,,,,0,0,15,,,,,7,,,69,100
59520,note_on,,,,,64,0,13,,,,,5,,,49,100
59520,note_on,,,,,64,0,16,,,,,7,,,49,100
59520,note_on,,,,,64,0,14,,,,,6,,,37,100
59520,note_on,,,,,64,0,15,,,,,7,,,64,100
59584,note_off,,,,,64,0,8,,,,,0,,,76,100
59616,note_on,,,,,32,0,8,,,,,0,,,81,100
59648,note_off,,,,,128,0,15,,,,,7,,,64,100
59648,note_off,,,,,0,0,15,,,,,7,,,69,100
59648,note_off,,,,,128,0,16,,,,,7,,,49,100
59648,note_off,,,,,128,0,13,,,,,5,,,49,100
59648,note_off,,,,,128,0,14,,,,,6,,,37,100
59680,note_off,,,,,64,0,8,,,,,0,,,81,100
59712,note_on,,,,,64,0,16,,,,,7,,,49,100
59712,note_on,,,,,64,0,13,,,,,5,,,49,100
59712,note_on,,,,,32,0,8,,,,,0,,,79,100
59712,note_on,,,,,0,0,15,,,,,7,,,69,100
59712,note_on,,,,,64,0,15,,,,,7,,,64,100
59712,note_on,,,,,64,0,14,,,,,6,,,37,100
59776,note_off,,,,,64,0,8,,,,,0,,,79,100
59808,note_on,,,,,32,0,8,,,,,0,,,81,100
59840,note_off,,,,,128,0,16,,,,,7,,,49,100
59840,note_off,,,,,128,0,13,,,,,5,,,49,100
59840,note_off,,,,,128,0,15,,,,,7,,,64,100
59840,note_off,,,,,0,0,15,,,,,7,,,69,100
59840,note_off,,,,,128,0,14,,,,,6,,,37,100
59872,note_off,,,,,64,0,8,,,,,0,,,81,100
59904,note_on,,,,,64,0,14,,,,,6,,,38,100
59904,note_on,,,,,32,0,8,,,,,0,,,78,100
59904,note_on,,,,,64,0,16,,,,,7,,,50,100
59904,note_on,,,,,64,0,15,,,,,7,,,66,100
59904,note_on,,,,,0,0,15,,,,,7,,,69,100
59904,note_on,,,,,64,0,13,,,,,5,,,50,100
59996,note_off,,,,,92,0,8,,,,,0,,,78,100
60000,note_on,,,,,4,0,8,,,,,0,,,76,100
60032,note_off,,,,,128,0,14,,,,,6,,,38,100
60032,note_off,,,,,0,0,15,,,,,7,,,69,100
60032,note_off,,,,,128,0,13,,,,,5,,,50,100
60032,note_off,,,,,128,0,15,,,,,7,,,66,100
60032,note_off,,,,,128,0,16,,,,,7,,,50,100
60092,note_off,,,,,92,0,8,,,,,0,,,76,100
60096,note_on,,,,,64,0,15,,,,,7,,,66,100
60096,note_on,,,,,0,0,15,,,,,7,,,69,100
60096,note_on,,,,,64,0,14,,,,,6,,,38,100
60096,note_on,,,,,4,0,8,,,,,0,,,74,100
60096,note_on,,,,,64,0,13,,,,,5,,,50,100
60096,note_on,,,,,64,0,16,,,,,7,,,50,100
60188,note_off,,,,,92,0,8,,,,,0,,,74,100
60192,note_on,,,,,4,0,8,,,,,0,,,76,100
60224,note_off,,,,,128,0,15,,,,,7,,,66,100
60224,note_off,,,,,128,0,13,,,,,5,,,50,100
60224,note_off,,,,,0,0,15,,,,,7,,,69,100
60224,note_off,,,,,128,0,16,,,,,7,,,50,100
60224,note_off,,,,,128,0,14,,,,,6,,,38,100
60284,note_off,,,,,92,0,8,,,,,0,,,76,100
60288,note_on,,,,,64,0,14,,,,,6,,,38,100
60288,note_on,,,,,64,0,16,,,,,7,,,50,100
60288,note_on,,,,,0,0,15,,,,,7,,,71,100
60288,note_on,,,,,64,0,13,,,,,5,,,50,100
60288,note_on,,,,,4,0,8,,,,,0,,,78,100
60288,note_on,,,,,64,0,15,,,,,7,,,66,100
60352,note_off,,,,,64,0,8,,,,,0,,,78,100
60384,note_on,,,,,32,0,8,,,,,0,,,83,100
60416,note_off,,,,,128,0,15,,,,,7,,,66,100
60416,note_off,,,,,128,0,14,,,,,6,,,38,100
60416,note_off,,,,,128,0,13,,,,,5,,,50,100
60416,note_off,,,,,128,0,16,,,,,7,,,50,100
60416,note_off,,,,,0,0,15,,,,,7,,,71,100
60448,note_off,,,,,64,0,8,,,,,0,,,83,100
60480,note_on,,,,,64,0,16,,,,,7,,,50,100
60480,note_on,,,,,64,0,14,,,,,6,,,38,100
60480,note_on,,,,,64,0,15,,,,,7,,,66,100
60480,note_on,,,,,64,0,13,,,,,5,,,50,100
60480,note_on,,,,,0,0,15,,,,,7,,,71,100
60480,note_on,,,,,32,0,8,,,,,0,,,81,100
60544,note_off,,,,,64,0,8,,,,,0,,,81,100
60576,note_on,,,,,32,0,8,,,,,0,,,83,100
60608,note_off,,,,,0,0,15,,,,,7,,,71,100
60608,note_off,,,,,128,0,13,,,,,5,,,50,100
60608,note_off,,,,,128,0,15,,,,,7,,,66,100
60608,note_off,,,,,128,0,16,,,,,7,,,50,100
60608,note_off,,,,,128,0,14,,,,,6,,,38,100
60640,note_off,,,,,64,0,8,,,,,0,,,83,100
60672,note_on,,,,,0,0,15,,,,,7,,,67,100
60672,note_on,,,,,64,0,13,,,,,5,,,52,100
60672,note_on,,,,,64,0,14,,,,,6,,,40,100
60672,note_on,,,,,64,0,16,,,,,7,,,52,100
60672,note_on,,,,,64,0,15,,,,,7,,,71,100
60672,note_on,,,,,32,0,8,,,,,0,,,79,100
60764,note_off,,,,,92,0,8,,,,,0,,,79,100
60768,note_on,,,,,4,0,8,,,,,0,,,78,100
60800,note_off,,,,,128,0,13,,,,,5,,,52,100
60800,note_off,,,,,128,0,16,,,,,7,,,52,100
60800,note_off,,,,,128,0,14,,,,,6,,,40,100
60800,note_off,,,,,0,0,15,,,,,7,,,67,100
60800,note_off,,,,,128,0,15,,,,,7,,,71,100
60860,note_off,,,,,92,0,8,,,,,0,,,78,100
60864,note_on,,,,,64,0,15,,,,,7,,,71,100
60864,note_on,,,,,64,0,14,,,,,6,,,40,100
60864,note_on,,,,,4,0,8,,,,,0,,,79,100
60864,note_on,,,,,64,0,16,,,,,7,,,52,100
60864,note_on,,,,,0,0,15,,,,,7,,,67,100
60864,note_on,,,,,64,0,13,,,,,5,,,52,100
60956,note_off,,,,,92,0,8,,,,,0,,,79,100
60960,note_on,,,,,4,0,8,,,,,0,,,81,100
60992,note_off,,,,,0,0,15,,,,,7,,,67,100
60992,note_off,,,,,128,0,14,,,,,6,,,40,100
60992,note_off,,,,,128,0,15,,,,,7,,,71,100
60992,note_off,,,,,128,0,16,,,,,7,,,52,100
60992,note_off,,,,,128,0,13,,,,,5,,,52,100
61052,note_off,,,,,92,0,8,,,,,0,,,81,100
61056,note_on,,,,,64,0,16,,,,,7,,,52,100
61056,note_on,,,,,64,0,13,,,,,5,,,52,100
61056,note_on,,,,,64,0,14,,,,,6,,,40,100
61056,note_on,,,,,0,0,15,,,,,7,,,67,100
61056,note_on,,,,,64,0,15,,,,,7,,,71,100
61056,note_on,,,,,4,0,8,,,,,0,,,79,100
61120,note_off,,,,,64,0,8,,,,,0,,,79,100
61152,note_on,,,,,32,0,8,,,,,0,,,81,100
61184,note_off,,,,,0,0,15,,,,,7,,,67,100
61184,note_off,,,,,128,0,16,,,,,7,,,52,100
61184,note_off,,,,,128,0,15,,,,,7,,,71,100
61184,note_off,,,,,128,0,13,,,,,5,,,52,100
61184,note_off,,,,,128,0,14,,,,,6,,,40,100
61216,note_off,,,,,64,0,8,,,,,0,,,81,100
61248,note_on,,,,,64,0,14,,,,,6,,,40,100
61248,note_on,,,,,64,0,15,,,,,7,,,71,100
61248,note_on,,,,,0,0,15,,,,,7,,,67,100
61248,note_on,,,,,64,0,13,,,,,5,,,52,100
61248,note_on,,,,,32,0,8,,,,,0,,,83,100
61248,note_on,,,,,64,0,16,,,,,7,,,52,100
61312,note_off,,,,,64,0,8,,,,,0,,,83,100
61344,note_on,,,,,32,0,8,,,,,0,,,81,100
61376,note_off,,,,,128,0,13,,,,,5,,,52,100
61376,note_off,,,,,128,0,14,,,,,6,,,40,100
61376,note_off,,,,,0,0,15,,,,,7,,,67,100
61376,note_off,,,,,128,0,15,,,,,7,,,71,100
61376,note_off,,,,,128,0,16,,,,,7,,,52,100
61408,note_off,,,,,64,0,8,,,,,0,,,81,100
61440,note_on,,,,,32,0,8,,,,,0,,,80,100
61440,note_on,,,,,64,0,14,,,,,6,,,38,100
61440,note_on,,,,,64,0,13,,,,,5,,,50,100
61440,note_on,,,,,0,0,15,,,,,7,,,64,100
61440,note_on,,,,,64,0,15,,,,,7,,,68,100
61440,note_on,,,,,64,0,16,,,,,7,,,50,100
61532,note_off,,,,,92,0,8,,,,,0,,,80,100
61536,note_on,,,,,4,0,8,,,,,0,,,78,100
61568,note_off,,,,,128,0,13,,,,,5,,,50,100
61568,note_off,,,,,128,0,14,,,,,6,,,38,100
61568,note_off,,,,,0,0,15,,,,,7,,,64,100
61568,note_off,,,,,128,0,15,,,,,7,,,68,100
61568,note_off,,,,,128,0,16,,,,,7,,,50,100
61628,note_off,,,,,92,0,8,,,,,0,,,78,100
61632,note_on,,,,,64,0,14,,,,,6,,,38,100
61632,note_on,,,,,4,0,8,,,,,0,,,80,100
61632,note_on,,,,,64,0,13,,,,,5,,,50,100
61632,note_on,,,,,64,0,15,,,,,7,,,68,100
61632,note_on,,,,,0,0,15,,,,,7,,,64,100
61632,note_on,,,,,64,0,16,,,,,7,,,50,100
61724,note_off,,,,,92,0,8,,,,,0,,,80,100
61728,note_on,,,,,4,0,8,,,,,0,,,81,100
61760,note_off,,,,,128,0,13,,,,,5,,,50,100
61760,note_off,,,,,128,0,16,,,,,7,,,50,100
61760,note_off,,,,,128,0,15,,,,,7,,,68,100
61760,note_off,,,,,128,0,14,,,,,6,,,38,100
61760,note_off,,,,,0,0,15,,,,,7,,,64,100
61820,note_off,,,,,92,0,8,,,,,0,,,81,100
61824,note_on,,,,,0,0,15,,,,,7,,,64,100
61824,note_on,,,,,64,0,15,,,,,7,,,68,100
61824,note_on,,,,,4,0,8,,,,,0,,,80,100
61824,note_on,,,,,64,0,16,,,,,7,,,50,100
61824,note_on,,,,,64,0,13,,,,,5,,,50,100
61824,note_on,,,,,64,0,14,,,,,6,,,38,100
61888,note_off,,,,,64,0,8,,,,,0,,,80,100
61920,note_on,,,,,32,0,8,,,,,0,,,81,100
61952,note_off,,,,,128,0,14,,,,,6,,,38,100
61952,note_off,,,,,0,0,15,,,,,7,,,64,100
61952,note_off,,,,,128,0,13,,,,,5,,,50,100
61952,note_off,,,,,128,0,16,,,,,7,,,50,100
61952,note_off,,,,,128,0,15,,,,,7,,,68,100
61984,note_off,,,,,64,0,8,,,,,0,,,81,100
62016,note_on,,,,,64,0,15,,,,,7,,,68,100
62016,note_on,,,,,64,0,16,,,,,7,,,50,100
62016,note_on,,,,,64,0,14,,,,,6,,,38,100
62016,note_on,,,,,0,0,15,,,,,7,,,64,100
62016,note_on,,,,,32,0,8,,,,,0,,,83,100
62016,note_on,,,,,64,0,13,,,,,5,,,50,100
62080,note_off,,,,,64,0,8,,,,,0,,,83,100
62112,note_on,,,,,32,0,8,,,,,0,,,80,100
62144,note_off,,,,,128,0,14,,,,,6,,,38,100
62144,note_off,,,,,128,0,13,,,,,5,,,50,100
62144,note_off,,,,,128,0,16,,,,,7,,,50,100
62144,note_off,,,,,0,0,15,,,,,7,,,64,100
62144,note_off,,,,,128,0,15,,,,,7,,,68,100
62176,note_off,,,,,64,0,8,,,,,0,,,80,100
62208,note_on,,,,,64,0,14,,,,,6,,,37,100
62208,note_on,,,,,64,0,16,,,,,7,,,49,100
62208,note_on,,,,,32,0,8,,,,,0,,,81,100
62208,note_on,,,,,64,0,15,,,,,7,,,69,100
62208,note_on,,,,,0,0,15,,,,,7,,,64,100
62208,note_on,,,,,64,0,13,,,,,5,,,49,100
62300,note_off,,,,,92,0,8,,,,,0,,,81,100
62304,note_on,,,,,4,0,8,,,,,0,,,80,100
62336,note_off,,,,,128,0,14,,,,,6,,,37,100
62336,note_off,,,,,128,0,15,,,,,7,,,69,100
62336,note_off,,,,,0,0,15,,,,,7,,,64,100
62336,note_off,,,,,128,0,16,,,,,7,,,49,100
62336,note_off,,,,,128,0,13,,,,,5,,,49,100
62396,note_off,,,,,92,0,8,,,,,0,,,80,100
62400,note_on,,,,,64,0,13,,,,,5,,,49,100
62400,note_on,,,,,64,0,15,,,,,7,,,69,100
62400,note_on,,,,,64,0,14,,,,,6,,,37,100
62400,note_on,,,,,0,0,15,,,,,7,,,64,100
62400,note_on,,,,,64,0,16,,,,,7,,,49,100
62400,note_on,,,,,4,0,8,,,,,0,,,81,100
62492,note_off,,,,,92,0,8,,,,,0,,,81,100
62496,note_on,,,,,4,0,8,,,,,0,,,83,100
62528,note_off,,,,,128,0,15,,,,,7,,,69,100
62528,note_off,,,,,0,0,15,,,,,7,,,64,100
62528,note_off,,,,,128,0,14,,,,,6,,,37,100
62528,note_off,,,,,128,0,16,,,,,7,,,49,100
62528,note_off,,,,,128,0,13,,,,,5,,,49,100
62588,note_off,,,,,92,0,8,,,,,0,,,83,100
62592,note_on,,,,,64,0,14,,,,,6,,,37,100
62592,note_on,,,,,64,0,15,,,,,7,,,69,100
62592,note_on,,,,,64,0,13,,,,,5,,,49,100
62592,note_on,,,,,0,0,15,,,,,7,,,64,100
62592,note_on,,,,,64,0,16,,,,,7,,,49,100
62592,note_on,,,,,4,0,8,,,,,0,,,81,100
62656,note_off,,,,,64,0,8,,,,,0,,,81,100
62688,note_on,,,,,32,0,8,,,,,0,,,83,100
62720,note_off,,,,,128,0,16,,,,,7,,,49,100
62720,note_off,,,,,128,0,15,,,,,7,,,69,100
62720,note_off,,,,,0,0,15,,,,,7,,,64,100
62720,note_off,,,,,128,0,14,,,,,6,,,37,100
62720,note_off,,,,,128,0,13,,,,,5,,,49,100
62752,note_off,,,,,64,0,8,,,,,0,,,83,100
62784,note_on,,,,,64,0,13,,,,,5,,,49,100
62784,note_on,,,,,64,0,16,,,,,7,,,49,100
62784,note_on,,,,,64,0,15,,,,,7,,,69,100
62784,note_on,,,,,32,0,8,,,,,0,,,85,100
62784,note_on,,,,,64,0,14,,,,,6,,,37,100
62784,note_on,,,,,0,0,15,,,,,7,,,64,100
62848,note_off,,,,,64,0,8,,,,,0,,,85,100
62880,note_on,,,,,32,0,8,,,,,0,,,83,100
62912,note_off,,,,,128,0,14,,,,,6,,,37,100
62912,note_off,,,,,128,0,13,,,,,5,,,49,100
62912,note_off,,,,,128,0,16,,,,,7,,,49,100
62912,note_off,,,,,128,0,15,,,,,7,,,69,100
62912,note_off,,,,,0,0,15,,,,,7,,,64,100
62944,note_off,,,,,64,0,8,,,,,0,,,83,100
62976,note_on,,,,,64,0,16,,,,,7,,,54,100
62976,note_on,,,,,64,0,15,,,,,7,,,61,100
62976,note_on,,,,,0,0,15,,,,,7,,,70,100
62976,note_on,,,,,64,0,13,,,,,5,,,54,100
62976,note_on,,,,,32,0,8,,,,,0,,,82,100
62976,note_on,,,,,64,0,14,,,,,6,,,42,100
63068,note_off,,,,,92,0,8,,,,,0,,,82,100
63072,note_on,,,,,4,0,8,,,,,0,,,80,100
63104,note_off,,,,,128,0,15,,,,,7,,,61,100
63104,note_off,,,,,128,0,14,,,,,6,,,42,100
63104,note_off,,,,,128,0,13,,,,,5,,,54,100
63104,note_off,,,,,0,0,15,,,,,7,,,70,100
63104,note_off,,,,,128,0,16,,,,,7,,,54,100
63164,note_off,,,,,92,0,8,,,,,0,,,80,100
63168,note_on,,,,,64,0,13,,,,,5,,,54,100
63168,note_on,,,,,64,0,15,,,,,7,,,61,100
63168,note_on,,,,,0,0,15,,,,,7,,,70,100
63168,note_on,,,,,64,0,16,,,,,7,,,54,100
63168,note_on,,,,,4,0,8,,,,,0,,,82,100
63168,note_on,,,,,64,0,14,,,,,6,,,42,100
63260,note_off,,,,,92,0,8,,,,,0,,,82,100
63264,note_on,,,,,4,0,8,,,,,0,,,83,100
63296,note_off,,,,,128,0,13,,,,,5,,,54,100
63296,note_off,,,,,128,0,16,,,,,7,,,54,100
63296,note_off,,,,,128,0,15,,,,,7,,,61,100
63296,note_off,,,,,128,0,14,,,,,6,,,42,100
63296,note_off,,,,,0,0,15,,,,,7,,,70,100
63356,note_off,,,,,92,0,8,,,,,0,,,83,100
63360,note_on,,,,,64,0,16,,,,,7,,,52,100
63360,note_on,,,,,4,0,8,,,,,0,,,82,100
63360,note_on,,,,,64,0,15,,,,,7,,,70,100
63360,note_on,,,,,64,0,13,,,,,5,,,52,100
63360,note_on,,,,,0,0,15,,,,,7,,,66,100
63360,note_on,,,,,64,0,14,,,,,6,,,40,100
63424,note_off,,,,,64,0,8,,,,,0,,,82,100
63456,note_on,,,,,32,0,8,,,,,0,,,83,100
63488,note_off,,,,,128,0,14,,,,,6,,,40,100
63488,note_off,,,,,128,0,16,,,,,7,,,52,100
63488,note_off,,,,,0,0,15,,,,,7,,,66,100
63488,note_off,,,,,128,0,15,,,,,7,,,70,100
63488,note_off,,,,,128,0,13,,,,,5,,,52,100
63520,note_off,,,,,64,0,8,,,,,0,,,83,100
63552,note_on,,,,,64,0,16,,,,,7,,,52,100
63552,note_on,,,,,32,0,8,,,,,0,,,85,100
63552,note_on,,,,,64,0,15,,,,,7,,,70,100
63552,note_on,,,,,64,0,14,,,,,6,,,40,100
63552,note_on,,,,,64,0,13,,,,,5,,,52,100
63552,note_on,,,,,0,0,15,,,,,7,,,66,100
63616,note_off,,,,,64,0,8,,,,,0,,,85,100
63648,note_on,,,,,32,0,8,,,,,0,,,82,100
63680,note_off,,,,,128,0,13,,,,,5,,,52,100
63680,note_off,,,,,0,0,15,,,,,7,,,66,100
63680,note_off,,,,,128,0,14,,,,,6,,,40,100
63680,note_off,,,,,128,0,16,,,,,7,,,52,100
63680,note_off,,,,,128,0,15,,,,,7,,,70,100
63712,note_off,,,,,64,0,8,,,,,0,,,82,100
63744,note_on,,,,,64,0,16,,,,,7,,,50,100
63744,note_on,,,,,0,0,15,,,,,7,,,66,100
63744,note_on,,,,,64,0,15,,,,,7,,,71,100
63744,note_on,,,,,64,0,13,,,,,5,,,50,100
63744,note_on,,,,,64,0,14,,,,,6,,,38,100
63744,note_on,,,,,32,0,8,,,,,0,,,83,100
63872,note_off,,,,,128,0,8,,,,,0,,,83,100
63872,note_off,,,,,0,0,15,,,,,7,,,66,100
63872,note_off,,,,,128,0,14,,,,,6,,,38,100
63872,note_off,,,,,128,0,13,,,,,5,,,50,100
63872,note_off,,,,,128,0,15,,,,,7,,,71,100
63872,note_off,,,,,128,0,16,,,,,7,,,50,100
63936,note_on,,,,,64,0,16,,,,,7,,,49,100
63936,note_on,,,,,64,0,8,,,,,0,,,71,100
63936,note_on,,,,,64,0,15,,,,,7,,,64,100
63936,note_on,,,,,0,0,15,,,,,7,,,67,100
63936,note_on,,,,,64,0,14,,,,,6,,,37,100
63936,note_on,,,,,64,0,13,,,,,5,,,49,100
64064,note_off,,,,,128,0,14,,,,,6,,,37,100
64064,note_off,,,,,128,0,16,,,,,7,,,49,100
64064,note_off,,,,,128,0,8,,,,,0,,,71,100
64064,note_off,,,,,128,0,15,,,,,7,,,64,100
64064,note_off,,,,,0,0,15,,,,,7,,,67,100
64064,note_off,,,,,128,0,13,,,,,5,,,49,100
64128,note_on,,,,,64,0,16,,,,,7,,,50,100
64128,note_on,,,,,64,0,14,,,,,6,,,38,100
64128,note_on,,,,,64,0,13,,,,,5,,,50,100
64128,program_change,,,,,5504,0,10,,,,,2,48,,,
64128,note_on,,,,,64,0,15,,,,,7,,,66,100
64128,program_change,,,,,64,0,8,,,,,0,48,,,
64128,program_change,,,,,0,0,8,,,,,0,48,,,
64128,note_on,,,,,5504,0,12,,,,,4,,,74,85
64128,note_on,,,,,0,0,15,,,,,7,,,69,100
64224,note_on,,,,,96,0,8,,,,,0,,,83,70
64224,note_on,,,,,96,0,10,,,,,2,,,83,85
64256,note_off,,,,,128,0,16,,,,,7,,,50,100
64256,note_off,,,,,128,0,14,,,,,6,,,38,100
64256,note_off,,,,,128,0,13,,,,,5,,,50,100
64256,note_off,,,,,0,0,15,,,,,7,,,69,100
64256,note_off,,,,,128,0,15,,,,,7,,,66,100
64288,note_off,,,,,64,0,8,,,,,0,,,83,100
64288,note_off,,,,,64,0,10,,,,,2,,,83,100
64320,note_on,,,,,0,0,15,,,,,7,,,62,100
64320,note_on,,,,,64,0,15,,,,,7,,,66,100
64320,note_on,,,,,64,0,14,,,,,6,,,35,100
64320,note_on,,,,,32,0,10,,,,,2,,,83,85
64320,note_on,,,,,32,0,8,,,,,0,,,83,70
64320,note_on,,,,,64,0,13,,,,,5,,,47,100
64320,note_on,,,,,64,0,16,,,,,7,,,47,100
64384,note_off,,,,,64,0,8,,,,,0,,,83,100
64384,note_off,,,,,64,0,10,,,,,2,,,83,100
64416,note_on,,,,,32,0,8,,,,,0,,,78,70
64416,note_on,,,,,32,0,10,,,,,2,,,78,85
64448,note_off,,,,,128,0,14,,,,,6,,,35,100
64448,note_off,,,,,128,0,13,,,,,5,,,47,100
64448,note_off,,,,,128,0,16,,,,,7,,,47,100
64448,note_off,,,,,128,0,15,,,,,7,,,66,100
64448,note_off,,,,,0,0,15,,,,,7,,,62,100
64480,note_off,,,,,64,0,10,,,,,2,,,78,100
64480,note_off,,,,,64,0,8,,,,,0,,,78,100
64512,note_on,,,,,32,0,10,,,,,2,,,79,85
64512,note_on,,,,,0,0,15,,,,,7,,,59,100
64512,note_on,,,,,64,0,15,,,,,7,,,66,100
64512,note_on,,,,,64,0,13,,,,,5,,,52,100
64512,note_on,,,,,32,0,8,,,,,0,,,79,70
64512,note_on,,,,,64,0,14,,,,,6,,,40,100
64512,note_on,,,,,64,0,16,,,,,7,,,52,100
64604,note_off,,,,,92,0,10,,,,,2,,,79,100
64604,note_off,,,,,92,0,8,,,,,0,,,79,100
64608,note_on,,,,,4,0,8,,,,,0,,,78,70
64608,note_on,,,,,4,0,10,,,,,2,,,78,85
64608,note_on,,,,,5984,0,11,,,,,3,,,83,75
64608,note_on,,,,,5984,0,9,,,,,1,,,83,85
64640,note_off,,,,,512,0,12,,,,,4,,,74,100
64672,note_off,,,,,64,0,8,,,,,0,,,78,100
64672,note_off,,,,,64,0,10,,,,,2,,,78,100
64672,note_off,,,,,64,0,9,,,,,1,,,83,100
64672,note_off,,,,,64,0,11,,,,,3,,,83,100
64704,note_on,,,,,32,0,9,,,,,1,,,83,85
64704,note_on,,,,,32,0,11,,,,,3,,,83,75
64704,note_on,,,,,32,0,10,,,,,2,,,79,85
64704,note_on,,,,,32,0,8,,,,,0,,,79,70
64768,note_off,,,,,256,0,14,,,,,6,,,40,100
64768,note_off,,,,,256,0,13,,,,,5,,,52,100
64768,note_off,,,,,0,0,15,,,,,7,,,59,100
64768,note_off,,,,,256,0,15,,,,,7,,,66,100
64768,note_off,,,,,64,0,11,,,,,3,,,83,100
64768,note_off,,,,,256,0,16,,,,,7,,,52,100
64768,note_off,,,,,64,0,9,,,,,1,,,83,100
64800,note_on,,,,,32,0,11,,,,,3,,,79,75
64800,note_on,,,,,32,0,9,,,,,1,,,79,85
64832,note_off,,,,,128,0,8,,,,,0,,,79,100
64832,note_off,,,,,128,0,10,,,,,2,,,79,100
64864,note_off,,,,,64,0,11,,,,,3,,,79,100
64864,note_off,,,,,64,0,9,,,,,1,,,79,100
64896,note_on,,,,,32,0,11,,,,,3,,,76,75
64896,note_on,,,,,32,0,9,,,,,1,,,76,85
64896,note_on,,,,,256,0,12,,,,,4,,,73,85
64988,note_off,,,,,92,0,11,,,,,3,,,76,100
64988,note_off,,,,,92,0,9,,,,,1,,,76,100
64992,note_on,,,,,160,0,8,,,,,0,,,81,70
64992,note_on,,,,,4,0,9,,,,,1,,,74,85
64992,note_on,,,,,160,0,10,,,,,2,,,81,85
64992,note_on,,,,,4,0,11,,,,,3,,,74,75
65056,note_off,,,,,64,0,8,,,,,0,,,81,100
65056,note_off,,,,,64,0,9,,,,,1,,,74,100
65056,note_off,,,,,64,0,11,,,,,3,,,74,100
65056,note_off,,,,,64,0,10,,,,,2,,,81,100
65088,note_on,,,,,320,0,14,,,,,6,,,45,85
65088,note_on,,,,,32,0,10,,,,,2,,,81,85
65088,note_on,,,,,32,0,11,,,,,3,,,76,75
65088,note_on,,,,,320,0,16,,,,,7,,,57,100
65088,note_on,,,,,0,0,15,,,,,7,,,61,100
65088,note_on,,,,,32,0,9,,,,,1,,,76,85
65088,note_on,,,,,32,0,8,,,,,0,,,81,70
65088,note_on,,,,,320,0,13,,,,,5,,,57,85
65088,note_on,,,,,320,0,15,,,,,7,,,64,100
65152,note_off,,,,,64,0,10,,,,,2,,,81,100
65152,note_off,,,,,64,0,8,,,,,0,,,81,100
65184,note_on,,,,,32,0,8,,,,,0,,,76,70
65184,note_on,,,,,32,0,10,,,,,2,,,76,85
65216,note_off,,,,,128,0,16,,,,,7,,,57,100
65216,note_off,,,,,128,0,15,,,,,7,,,64,100
65216,note_off,,,,,0,0,15,,,,,7,,,61,100
65216,note_off,,,,,128,0,9,,,,,1,,,76,100
65216,note_off,,,,,128,0,11,,,,,3,,,76,100
65216,note_off,,,,,128,0,14,,,,,6,,,45,100
65216,note_off,,,,,128,0,13,,,,,5,,,57,100
65248,note_off,,,,,64,0,8,,,,,0,,,76,100
65248,note_off,,,,,64,0,10,,,,,2,,,76,100
65280,note_on,,,,,32,0,8,,,,,0,,,78,70
65280,note_on,,,,,32,0,10,,,,,2,,,78,85
65280,note_on,,,,,64,0,16,,,,,7,,,50,100
65280,note_on,,,,,64,0,14,,,,,6,,,38,85
65280,note_on,,,,,64,0,15,,,,,7,,,64,100
65280,note_on,,,,,0,0,15,,,,,7,,,57,100
65280,note_on,,,,,64,0,13,,,,,5,,,50,85
65372,note_off,,,,,92,0,8,,,,,0,,,78,100
65372,note_off,,,,,92,0,10,,,,,2,,,78,100
65376,note_on,,,,,4,0,8,,,,,0,,,76,70
65376,note_on,,,,,160,0,9,,,,,1,,,81,85
65376,note_on,,,,,4,0,10,,,,,2,,,76,85
65376,note_on,,,,,160,0,11,,,,,3,,,81,75
65408,note_off,,,,,512,0,12,,,,,4,,,73,100
65440,note_off,,,,,64,0,10,,,,,2,,,76,100
65440,note_off,,,,,64,0,8,,,,,0,,,76,100
65440,note_off,,,,,64,0,9,,,,,1,,,81,100
65440,note_off,,,,,64,0,11,,,,,3,,,81,100
65472,note_on,,,,,32,0,11,,,,,3,,,81,75
65472,note_on,,,,,32,0,8,,,,,0,,,78,70
65472,note_on,,,,,32,0,10,,,,,2,,,78,85
65472,note_on,,,,,32,0,9,,,,,1,,,81,85
65536,note_off,,,,,256,0,14,,,,,6,,,38,100
65536,note_off,,,,,64,0,11,,,,,3,,,81,100
65536,note_off,,,,,256,0,16,,,,,7,,,50,100
65536,note_off,,,,,0,0,15,,,,,7,,,57,100
65536,note_off,,,,,256,0,13,,,,,5,,,50,100
65536,note_off,,,,,256,0,15,,,,,7,,,64,100
65536,note_off,,,,,64,0,9,,,,,1,,,81,100
65568,note_on,,,,,32,0,9,,,,,1,,,78,85
65568,note_on,,,,,32,0,11,,,,,3,,,78,75
65600,note_off,,,,,128,0,10,,,,,2,,,78,100
65600,note_off,,,,,128,0,8,,,,,0,,,78,100
65632,note_off,,,,,64,0,11,,,,,3,,,78,100
65632,note_off,,,,,64,0,9,,,,,1,,,78,100
65664,note_on,,,,,32,0,9,,,,,1,,,74,85
65664,note_on,,,,,256,0,12,,,,,4,,,71,85
65664,note_on,,,,,32,0,11,,,,,3,,,74,75
65756,note_off,,,,,92,0,9,,,,,1,,,74,100
65756,note_off,,,,,92,0,11,,,,,3,,,74,100
65760,note_on,,,,,160,0,8,,,,,0,,,79,70
65760,note_on,,,,,4,0,11,,,,,3,,,73,75
65760,note_on,,,,,160,0,10,,,,,2,,,79,85
65760,note_on,,,,,4,0,9,,,,,1,,,73,85
65824,note_off,,,,,64,0,10,,,,,2,,,79,100
65824,note_off,,,,,64,0,8,,,,,0,,,79,100
65824,note_off,,,,,64,0,9,,,,,1,,,73,100
65824,note_off,,,,,64,0,11,,,,,3,,,73,100
65856,note_on,,,,,320,0,14,,,,,6,,,43,85
65856,note_on,,,,,32,0,8,,,,,0,,,79,70
65856,note_on,,,,,32,0,10,,,,,2,,,79,85
65856,note_on,,,,,32,0,11,,,,,3,,,74,75
65856,note_on,,,,,320,0,15,,,,,7,,,62,100
65856,note_on,,,,,0,0,15,,,,,7,,,59,100
65856,note_on,,,,,320,0,13,,,,,5,,,55,85
65856,note_on,,,,,32,0,9,,,,,1,,,74,85
65856,note_on,,,,,320,0,16,,,,,7,,,55,100
65920,note_off,,,,,64,0,8,,,,,0,,,79,100
65920,note_off,,,,,64,0,10,,,,,2,,,79,100
65952,note_on,,,,,32,0,10,,,,,2,,,74,85
65952,note_on,,,,,32,0,8,,,,,0,,,74,70
65984,note_off,,,,,0,0,15,,,,,7,,,59,100
65984,note_off,,,,,128,0,15,,,,,7,,,62,100
65984,note_off,,,,,128,0,14,,,,,6,,,43,100
65984,note_off,,,,,128,0,13,,,,,5,,,55,100
65984,note_off,,,,,128,0,11,,,,,3,,,74,100
65984,note_off,,,,,128,0,9,,,,,1,,,74,100
65984,note_off,,,,,128,0,16,,,,,7,,,55,100
66016,note_off,,,,,64,0,8,,,,,0,,,74,100
66016,note_off,,,,,64,0,10,,,,,2,,,74,100
66048,note_on,,,,,32,0,8,,,,,0,,,76,70
66048,note_on,,,,,64,0,16,,,,,7,,,49,100
66048,note_on,,,,,64,0,14,,,,,6,,,37,85
66048,note_on,,,,,64,0,13,,,,,5,,,49,85
66048,note_on,,,,,0,0,15,,,,,7,,,55,100
66048,note_on,,,,,32,0,10,,,,,2,,,76,85
66048,note_on,,,,,64,0,15,,,,,7,,,62,100
66140,note_off,,,,,92,0,8,,,,,0,,,76,100
66140,note_off,,,,,92,0,10,,,,,2,,,76,100
66144,note_on,,,,,4,0,10,,,,,2,,,74,85
66144,note_on,,,,,4,0,8,,,,,0,,,74,70
66144,note_on,,,,,160,0,11,,,,,3,,,79,75
66144,note_on,,,,,160,0,9,,,,,1,,,79,85
66176,note_off,,,,,512,0,12,,,,,4,,,71,100
66208,note_off,,,,,64,0,10,,,,,2,,,74,100
66208,note_off,,,,,64,0,11,,,,,3,,,79,100
66208,note_off,,,,,64,0,8,,,,,0,,,74,100
66208,note_off,,,,,64,0,9,,,,,1,,,79,100
66240,note_on,,,,,32,0,10,,,,,2,,,76,85
66240,note_on,,,,,32,0,9,,,,,1,,,79,85
66240,note_on,,,,,32,0,8,,,,,0,,,76,70
66240,note_on,,,,,32,0,11,,,,,3,,,79,75
66304,note_off,,,,,256,0,13,,,,,5,,,49,100
66304,note_off,,,,,256,0,14,,,,,6,,,37,100
66304,note_off,,,,,256,0,15,,,,,7,,,62,100
66304,note_off,,,,,64,0,9,,,,,1,,,79,100
66304,note_off,,,,,0,0,15,,,,,7,,,55,100
66304,note_off,,,,,256,0,16,,,,,7,,,49,100
66304,note_off,,,,,64,0,11,,,,,3,,,79,100
66336,note_on,,,,,32,0,11,,,,,3,,,76,75
66336,note_on,,,,,32,0,9,,,,,1,,,76,85
66368,note_off,,,,,128,0,8,,,,,0,,,76,100
66368,note_off,,,,,128,0,10,,,,,2,,,76,100
66400,note_off,,,,,64,0,9,,,,,1,,,76,100
66400,note_off,,,,,64,0,11,,,,,3,,,76,100
66432,note_on,,,,,32,0,9,,,,,1,,,73,85
66432,note_on,,,,,32,0,11,,,,,3,,,73,75
66432,note_on,,,,,256,0,12,,,,,4,,,69,85
66524,note_off,,,,,92,0,9,,,,,1,,,73,100
66524,note_off,,,,,92,0,11,,,,,3,,,73,100
66528,note_on,,,,,160,0,8,,,,,0,,,78,70
66528,note_on,,,,,4,0,11,,,,,3,,,71,75
66528,note_on,,,,,160,0,10,,,,,2,,,78,85
66528,note_on,,,,,4,0,9,,,,,1,,,71,85
66592,note_off,,,,,64,0,8,,,,,0,,,78,100
66592,note_off,,,,,64,0,9,,,,,1,,,71,100
66592,note_off,,,,,64,0,11,,,,,3,,,71,100
66592,note_off,,,,,64,0,10,,,,,2,,,78,100
66624,note_on,,,,,0,0,15,,,,,7,,,57,100
66624,note_on,,,,,320,0,15,,,,,7,,,61,100
66624,note_on,,,,,320,0,14,,,,,6,,,42,85
66624,note_on,,,,,32,0,11,,,,,3,,,73,75
66624,note_on,,,,,32,0,8,,,,,0,,,78,70
66624,note_on,,,,,32,0,10,,,,,2,,,78,85
66624,note_on,,,,,320,0,13,,,,,5,,,54,85
66624,note_on,,,,,32,0,9,,,,,1,,,73,85
66624,note_on,,,,,320,0,16,,,,,7,,,54,100
66688,note_off,,,,,64,0,10,,,,,2,,,78,100
66688,note_off,,,,,64,0,8,,,,,0,,,78,100
66720,note_on,,,,,32,0,10,,,,,2,,,73,85
66720,note_on,,,,,32,0,8,,,,,0,,,73,70
66752,note_off,,,,,128,0,13,,,,,5,,,54,100
66752,note_off,,,,,128,0,14,,,,,6,,,42,100
66752,note_off,,,,,128,0,16,,,,,7,,,54,100
66752,note_off,,,,,0,0,15,,,,,7,,,57,100
66752,note_off,,,,,128,0,15,,,,,7,,,61,100
66752,note_off,,,,,128,0,11,,,,,3,,,73,100
66752,note_off,,,,,128,0,9,,,,,1,,,73,100
66784,note_off,,,,,64,0,8,,,,,0,,,73,100
66784,note_off,,,,,64,0,10,,,,,2,,,73,100
66816,note_on,,,,,32,0,8,,,,,0,,,74,70
66816,note_on,,,,,0,0,15,,,,,7,,,54,100
66816,note_on,,,,,64,0,15,,,,,7,,,61,100
66816,note_on,,,,,64,0,13,,,,,5,,,47,85
66816,note_on,,,,,32,0,10,,,,,2,,,74,85
66816,note_on,,,,,64,0,16,,,,,7,,,47,100
66816,note_on,,,,,64,0,14,,,,,6,,,35,85
66908,note_off,,,,,92,0,8,,,,,0,,,74,100
66908,note_off,,,,,92,0,10,,,,,2,,,74,100
66912,note_on,,,,,4,0,8,,,,,0,,,73,70
66912,note_on,,,,,160,0,11,,,,,3,,,78,75
66912,note_on,,,,,4,0,10,,,,,2,,,73,85
66912,note_on,,,,,160,0,9,,,,,1,,,78,85
66944,note_off,,,,,512,0,12,,,,,4,,,69,100
66976,note_off,,,,,64,0,11,,,,,3,,,78,100
66976,note_off,,,,,64,0,9,,,,,1,,,78,100
66976,note_off,,,,,64,0,10,,,,,2,,,73,100
66976,note_off,,,,,64,0,8,,,,,0,,,73,100
67008,note_on,,,,,32,0,9,,,,,1,,,78,85
67008,note_on,,,,,32,0,11,,,,,3,,,78,75
67008,note_on,,,,,32,0,8,,,,,0,,,74,70
67008,note_on,,,,,32,0,10,,,,,2,,,74,85
67072,note_off,,,,,64,0,9,,,,,1,,,78,100
67072,note_off,,,,,256,0,14,,,,,6,,,35,100
67072,note_off,,,,,64,0,11,,,,,3,,,78,100
67072,note_off,,,,,0,0,15,,,,,7,,,54,100
67072,note_off,,,,,256,0,16,,,,,7,,,47,100
67072,note_off,,,,,256,0,13,,,,,5,,,47,100
67072,note_off,,,,,256,0,15,,,,,7,,,61,100
67104,note_on,,,,,32,0,11,,,,,3,,,74,75
67104,note_on,,,,,32,0,9,,,,,1,,,74,85
67136,note_off,,,,,128,0,8,,,,,0,,,74,100
67136,note_off,,,,,128,0,10,,,,,2,,,74,100
67168,note_off,,,,,64,0,11,,,,,3,,,74,100
67168,note_off,,,,,64,0,9,,,,,1,,,74,100
67200,note_on,,,,,32,0,9,,,,,1,,,71,85
67200,note_on,,,,,32,0,11,,,,,3,,,71,75
67200,note_on,,,,,256,0,12,,,,,4,,,68,85
67292,note_off,,,,,92,0,9,,,,,1,,,71,100
67292,note_off,,,,,92,0,11,,,,,3,,,71,100
67296,note_on,,,,,4,0,9,,,,,1,,,69,85
67296,note_on,,,,,160,0,10,,,,,2,,,76,85
67296,note_on,,,,,4,0,11,,,,,3,,,69,75
67296,note_on,,,,,160,0,8,,,,,0,,,76,70
67360,note_off,,,,,64,0,11,,,,,3,,,69,100
67360,note_off,,,,,64,0,8,,,,,0,,,76,100
67360,note_off,,,,,64,0,10,,,,,2,,,76,100
67360,note_off,,,,,64,0,9,,,,,1,,,69,100
67392,note_on,,,,,32,0,10,,,,,2,,,76,85
67392,note_on,,,,,320,0,14,,,,,6,,,40,85
67392,note_on,,,,,0,0,15,,,,,7,,,56,100
67392,note_on,,,,,32,0,8,,,,,0,,,76,70
67392,note_on,,,,,320,0,16,,,,,7,,,52,100
67392,note_on,,,,,320,0,15,,,,,7,,,59,100
67392,note_on,,,,,320,0,13,,,,,5,,,52,85
67392,note_on,,,,,32,0,11,,,,,3,,,71,75
67392,note_on,,,,,32,0,9,,,,,1,,,71,85
67456,note_off,,,,,64,0,10,,,,,2,,,76,100
67456,note_off,,,,,64,0,8,,,,,0,,,76,100
67488,note_on,,,,,32,0,10,,,,,2,,,71,85
67488,note_on,,,,,32,0,8,,,,,0,,,71,70
67520,note_off,,,,,128,0,9,,,,,1,,,71,100
67520,note_off,,,,,128,0,15,,,,,7,,,59,100
67520,note_off,,,,,128,0,16,,,,,7,,,52,100
67520,note_off,,,,,128,0,13,,,,,5,,,52,100
67520,note_off,,,,,0,0,15,,,,,7,,,56,100
67520,note_off,,,,,128,0,11,,,,,3,,,71,100
67520,note_off,,,,,128,0,14,,,,,6,,,40,100
67552,note_off,,,,,64,0,10,,,,,2,,,71,100
67552,note_off,,,,,64,0,8,,,,,0,,,71,100
67584,note_on,,,,,32,0,10,,,,,2,,,73,85
67584,note_on,,,,,64,0,16,,,,,7,,,45,100
67584,note_on,,,,,32,0,8,,,,,0,,,73,70
67584,note_on,,,,,64,0,15,,,,,7,,,56,100
67584,note_on,,,,,0,0,15,,,,,7,,,64,100
67584,note_on,,,,,64,0,13,,,,,5,,,45,85
67584,note_on,,,,,64,0,14,,,,,6,,,33,85
67676,note_off,,,,,92,0,10,,,,,2,,,73,100
67676,note_off,,,,,92,0,8,,,,,0,,,73,100
67680,note_on,,,,,4,0,10,,,,,2,,,71,85
67680,note_on,,,,,160,0,9,,,,,1,,,76,85
67680,note_on,,,,,4,0,8,,,,,0,,,71,70
67680,note_on,,,,,160,0,11,,,,,3,,,76,75
67712,note_off,,,,,512,0,12,,,,,4,,,68,100
67744,note_off,,,,,64,0,9,,,,,1,,,76,100
67744,note_off,,,,,64,0,11,,,,,3,,,76,100
67744,note_off,,,,,64,0,8,,,,,0,,,71,100
67744,note_off,,,,,64,0,10,,,,,2,,,71,100
67776,note_on,,,,,32,0,9,,,,,1,,,76,85
67776,note_on,,,,,32,0,8,,,,,0,,,73,70
67776,note_on,,,,,32,0,10,,,,,2,,,73,85
67776,note_on,,,,,32,0,11,,,,,3,,,76,75
67840,note_off,,,,,256,0,14,,,,,6,,,33,100
67840,note_off,,,,,64,0,11,,,,,3,,,76,100
67840,note_off,,,,,256,0,13,,,,,5,,,45,100
67840,note_off,,,,,256,0,16,,,,,7,,,45,100
67840,note_off,,,,,0,0,15,,,,,7,,,64,100
67840,note_off,,,,,256,0,15,,,,,7,,,56,100
67840,note_off,,,,,64,0,9,,,,,1,,,76,100
67872,note_on,,,,,32,0,11,,,,,3,,,73,75
67872,note_on,,,,,32,0,9,,,,,1,,,73,85
67904,note_off,,,,,128,0,10,,,,,2,,,73,100
67904,note_off,,,,,128,0,8,,,,,0,,,73,100
67936,note_off,,,,,64,0,11,,,,,3,,,73,100
67936,note_off,,,,,64,0,9,,,,,1,,,73,100
67968,note_on,,,,,32,0,9,,,,,1,,,69,85
67968,note_on,,,,,256,0,12,,,,,4,,,66,85
67968,note_on,,,,,32,0,11,,,,,3,,,69,75
68060,note_off,,,,,92,0,11,,,,,3,,,69,100
68060,note_off,,,,,92,0,9,,,,,1,,,69,100
68064,note_on,,,,,4,0,9,,,,,1,,,68,85
68064,note_on,,,,,160,0,8,,,,,0,,,74,70
68064,note_on,,,,,4,0,11,,,,,3,,,68,75
68064,note_on,,,,,160,0,10,,,,,2,,,74,85
68128,note_off,,,,,64,0,11,,,,,3,,,68,100
68128,note_off,,,,,64,0,10,,,,,2,,,74,100
68128,note_off,,,,,64,0,9,,,,,1,,,68,100
68128,note_off,,,,,64,0,8,,,,,0,,,74,100
68160,note_on,,,,,0,0,15,,,,,7,,,66,100
68160,note_on,,,,,320,0,13,,,,,5,,,62,85
68160,note_on,,,,,32,0,8,,,,,0,,,74,70
68160,note_on,,,,,320,0,15,,,,,7,,,69,100
68160,note_on,,,,,32,0,11,,,,,3,,,69,75
68160,note_on,,,,,32,0,9,,,,,1,,,69,85
68160,note_on,,,,,320,0,14,,,,,6,,,50,85
68160,note_on,,,,,32,0,10,,,,,2,,,74,85
68160,note_on,,,,,320,0,16,,,,,7,,,62,100
68224,note_off,,,,,64,0,8,,,,,0,,,74,100
68224,note_off,,,,,64,0,10,,,,,2,,,74,100
68224,note_off,,,,,256,0,12,,,,,4,,,66,100
68256,note_on,,,,,32,0,10,,,,,2,,,69,85
68256,note_on,,,,,32,0,8,,,,,0,,,69,70
68288,note_off,,,,,128,0,15,,,,,7,,,69,100
68288,note_off,,,,,0,0,15,,,,,7,,,66,100
68288,note_off,,,,,128,0,9,,,,,1,,,69,100
68288,note_off,,,,,128,0,14,,,,,6,,,50,100
68288,note_off,,,,,128,0,11,,,,,3,,,69,100
68288,note_off,,,,,128,0,16,,,,,7,,,62,100
68288,note_off,,,,,128,0,13,,,,,5,,,62,100
68320,note_off,,,,,64,0,8,,,,,0,,,69,100
68320,note_off,,,,,64,0,10,,,,,2,,,69,100
68352,note_on,,,,,0,0,15,,,,,7,,,59,100
68352,note_on,,,,,32,0,8,,,,,0,,,71,70
68352,note_on,,,,,64,0,14,,,,,6,,,44,85
68352,note_on,,,,,64,0,13,,,,,5,,,56,85
68352,note_on,,,,,128,0,12,,,,,4,,,65,85
68352,note_on,,,,,32,0,10,,,,,2,,,71,85
68352,note_on,,,,,64,0,15,,,,,7,,,65,100
68352,note_on,,,,,64,0,16,,,,,7,,,56,100
68480,note_off,,,,,128,0,15,,,,,7,,,65,100
68480,note_off,,,,,128,0,12,,,,,4,,,65,100
68480,note_off,,,,,128,0,10,,,,,2,,,71,100
68480,note_off,,,,,128,0,14,,,,,6,,,44,100
68480,note_off,,,,,0,0,15,,,,,7,,,59,100
68480,note_off,,,,,128,0,16,,,,,7,,,56,100
68480,note_off,,,,,128,0,13,,,,,5,,,56,100
68480,note_off,,,,,128,0,8,,,,,0,,,71,100
68544,note_on,,,,,64,0,16,,,,,7,,,57,100
68544,note_on,,,,,64,0,12,,,,,4,,,66,85
68544,note_on,,,,,64,0,15,,,,,7,,,66,100
68544,note_on,,,,,0,0,15,,,,,7,,,61,100
68544,note_on,,,,,64,0,14,,,,,6,,,45,85
68544,note_on,,,,,64,0,10,,,,,2,,,69,85
68544,note_on,,,,,256,0,11,,,,,3,,,78,75
68544,note_on,,,,,256,0,9,,,,,1,,,78,85
68544,note_on,,,,,64,0,8,,,,,0,,,69,70
68544,note_on,,,,,64,0,13,,,,,5,,,57,85
68608,note_off,,,,,64,0,13,,,,,5,,,57,100
68608,note_off,,,,,64,0,16,,,,,7,,,57,100
68608,note_off,,,,,64,0,14,,,,,6,,,45,100
68640,note_on,,,,,32,0,13,,,,,5,,,59,85
68640,note_on,,,,,32,0,16,,,,,7,,,59,100
68640,note_on,,,,,32,0,14,,,,,6,,,47,85
68672,note_off,,,,,128,0,15,,,,,7,,,66,100
68672,note_off,,,,,128,0,10,,,,,2,,,69,100
68672,note_off,,,,,128,0,12,,,,,4,,,66,100
68672,note_off,,,,,128,0,8,,,,,0,,,69,100
68672,note_off,,,,,0,0,15,,,,,7,,,61,100
68704,note_off,,,,,64,0,14,,,,,6,,,47,100
68704,note_off,,,,,64,0,16,,,,,7,,,59,100
68704,note_off,,,,,64,0,13,,,,,5,,,59,100
68736,note_on,,,,,32,0,14,,,,,6,,,49,85
68736,note_on,,,,,64,0,10,,,,,2,,,68,85
68736,note_on,,,,,64,0,15,,,,,7,,,68,100
68736,note_on,,,,,0,0,15,,,,,7,,,66,100
68736,note_on,,,,,64,0,8,,,,,0,,,68,70
68736,note_on,,,,,32,0,13,,,,,5,,,61,85
68736,note_on,,,,,32,0,16,,,,,7,,,61,100
68736,note_on,,,,,64,0,12,,,,,4,,,61,85
68800,note_off,,,,,256,0,11,,,,,3,,,78,100
68800,note_off,,,,,256,0,9,,,,,1,,,78,100
68864,note_off,,,,,128,0,15,,,,,7,,,68,100
68864,note_off,,,,,128,0,13,,,,,5,,,61,100
68864,note_off,,,,,128,0,12,,,,,4,,,61,100
68864,note_off,,,,,128,0,14,,,,,6,,,49,100
68864,note_off,,,,,128,0,16,,,,,7,,,61,100
68864,note_off,,,,,0,0,15,,,,,7,,,66,100
68928,note_on,,,,,64,0,15,,,,,7,,,68,100
68928,note_on,,,,,64,0,16,,,,,7,,,49,100
68928,note_on,,,,,64,0,12,,,,,4,,,61,85
68928,note_on,,,,,128,0,11,,,,,3,,,77,75
68928,note_on,,,,,128,0,9,,,,,1,,,77,85
68928,note_on,,,,,64,0,14,,,,,6,,,37,85
68928,note_on,,,,,0,0,15,,,,,7,,,65,100
68928,note_on,,,,,64,0,13,,,,,5,,,49,85
68992,note_off,,,,,256,0,10,,,,,2,,,68,100
68992,note_off,,,,,256,0,8,,,,,0,,,68,100
69024,note_on,,,,,96,0,12,,,,,4,,,59,85
69056,note_off,,,,,128,0,11,,,,,3,,,77,100
69056,note_off,,,,,128,0,15,,,,,7,,,68,100
69056,note_off,,,,,128,0,9,,,,,1,,,77,100
69056,note_off,,,,,128,0,13,,,,,5,,,49,100
69056,note_off,,,,,0,0,15,,,,,7,,,65,100
69056,note_off,,,,,128,0,16,,,,,7,,,49,100
69056,note_off,,,,,128,0,14,,,,,6,,,37,100
69056,note_off,,,,,32,0,12,,,,,4,,,61,100
69088,note_off,,,,,32,0,12,,,,,4,,,59,100
69116,program_change,,,,,60,0,9,,,,,1,40,,,
69120,note_on,,,,,64,0,13,,,,,5,,,54,85
69120,note_on,,,,,64,0,14,,,,,6,,,42,85
69120,note_on,,,,,0,0,12,,,,,4,,,57,85
69120,note_on,,,,,4,0,9,,,,,1,,,78,70
69120,note_on,,,,,0,0,15,,,,,7,,,69,100
69120,note_on,,,,,64,0,15,,,,,7,,,61,100
69120,note_on,,,,,64,0,16,,,,,7,,,54,100
69120,note_on,,,,,128,0,8,,,,,0,,,66,70
69120,note_on,,,,,128,0,10,,,,,2,,,66,85
69120,note_on,,,,,64,0,11,,,,,3,,,78,75
69120,note_on,,,,,32,0,12,,,,,4,,,61,85
69184,note_off,,,,,64,0,9,,,,,1,,,78,100
69216,note_on,,,,,32,0,9,,,,,1,,,73,70
69248,note_off,,,,,128,0,8,,,,,0,,,66,100
69248,note_off,,,,,128,0,10,,,,,2,,,66,100
69248,note_off,,,,,128,0,11,,,,,3,,,78,100
69248,note_off,,,,,0,0,12,,,,,4,,,57,100
69248,note_off,,,,,128,0,12,,,,,4,,,61,100
69280,note_off,,,,,64,0,9,,,,,1,,,73,100
69312,note_on,,,,,32,0,9,,,,,1,,,73,70
69312,note_on,,,,,64,0,11,,,,,3,,,66,50
69312,note_on,,,,,64,0,10,,,,,2,,,66,60
69312,note_on,,,,,64,0,12,,,,,4,,,66,60
69312,note_on,,,,,64,0,8,,,,,0,,,66,45
69376,note_off,,,,,64,0,9,,,,,1,,,73,100
69376,note_off,,,,,0,0,15,,,,,7,,,69,100
69376,note_off,,,,,256,0,15,,,,,7,,,61,100
69376,note_off,,,,,256,0,13,,,,,5,,,54,100
69376,note_off,,,,,256,0,14,,,,,6,,,42,100
69376,note_off,,,,,256,0,16,,,,,7,,,54,100
69408,note_on,,,,,32,0,9,,,,,1,,,78,70
69440,note_off,,,,,128,0,10,,,,,2,,,66,100
69440,note_off,,,,,128,0,8,,,,,0,,,66,100
69440,note_off,,,,,128,0,12,,,,,4,,,66,100
69440,note_off,,,,,128,0,11,,,,,3,,,66,100
69472,note_off,,,,,64,0,9,,,,,1,,,78,100
69504,note_on,,,,,64,0,12,,,,,4,,,66,60
69504,note_on,,,,,32,0,9,,,,,1,,,78,70
69504,note_on,,,,,64,0,10,,,,,2,,,66,60
69504,note_on,,,,,64,0,11,,,,,3,,,66,50
69504,note_on,,,,,64,0,8,,,,,0,,,66,45
69568,note_off,,,,,64,0,9,,,,,1,,,78,100
69600,note_on,,,,,32,0,9,,,,,1,,,73,70
69632,note_off,,,,,128,0,8,,,,,0,,,66,100
69632,note_off,,,,,128,0,12,,,,,4,,,66,100
69632,note_off,,,,,128,0,10,,,,,2,,,66,100
69632,note_off,,,,,128,0,11,,,,,3,,,66,100
69664,note_off,,,,,64,0,9,,,,,1,,,73,100
69696,note_on,,,,,64,0,11,,,,,3,,,66,50
69696,note_on,,,,,32,0,9,,,,,1,,,73,70
69696,note_on,,,,,64,0,10,,,,,2,,,66,60
69696,note_on,,,,,64,0,8,,,,,0,,,66,45
69696,note_on,,,,,64,0,12,,,,,4,,,66,60
69760,note_off,,,,,64,0,9,,,,,1,,,73,100
69792,note_on,,,,,32,0,9,,,,,1,,,78,70
69824,note_off,,,,,128,0,8,,,,,0,,,66,100
69824,note_off,,,,,128,0,10,,,,,2,,,66,100
69824,note_off,,,,,128,0,11,,,,,3,,,66,100
69824,note_off,,,,,128,0,12,,,,,4,,,66,100
69856,note_off,,,,,64,0,9,,,,,1,,,78,100
69888,note_on,,,,,32,0,9,,,,,1,,,80,70
69888,note_on,,,,,64,0,11,,,,,3,,,65,50
69888,note_on,,,,,64,0,8,,,,,0,,,65,45
69888,note_on,,,,,64,0,10,,,,,2,,,65,60
69888,note_on,,,,,64,0,12,,,,,4,,,61,60
69952,note_off,,,,,64,0,9,,,,,1,,,80,100
69984,note_on,,,,,32,0,9,,,,,1,,,73,70
70016,note_off,,,,,128,0,8,,,,,0,,,65,100
70016,note_off,,,,,128,0,11,,,,,3,,,65,100
70016,note_off,,,,,128,0,12,,,,,4,,,61,100
70016,note_off,,,,,128,0,10,,,,,2,,,65,100
70048,note_off,,,,,64,0,9,,,,,1,,,73,100
70080,note_on,,,,,64,0,8,,,,,0,,,65,45
70080,note_on,,,,,64,0,12,,,,,4,,,61,60
70080,note_on,,,,,64,0,11,,,,,3,,,65,50
70080,note_on,,,,,64,0,10,,,,,2,,,65,60
70080,note_on,,,,,32,0,9,,,,,1,,,73,70
70144,note_off,,,,,64,0,9,,,,,1,,,73,100
70176,note_on,,,,,32,0,9,,,,,1,,,80,70
70208,note_off,,,,,128,0,12,,,,,4,,,61,100
70208,note_off,,,,,128,0,8,,,,,0,,,65,100
70208,note_off,,,,,128,0,11,,,,,3,,,65,100
70208,note_off,,,,,128,0,10,,,,,2,,,65,100
70240,note_off,,,,,64,0,9,,,,,1,,,80,100
70272,note_on,,,,,64,0,11,,,,,3,,,65,50
70272,note_on,,,,,64,0,10,,,,,2,,,65,60
70272,note_on,,,,,32,0,9,,,,,1,,,80,70
70272,note_on,,,,,64,0,12,,,,,4,,,61,60
70272,note_on,,,,,64,0,8,,,,,0,,,65,45
70336,note_off,,,,,64,0,9,,,,,1,,,80,100
70368,note_on,,,,,32,0,9,,,,,1,,,73,70
70400,note_off,,,,,128,0,8,,,,,0,,,65,100
70400,note_off,,,,,128,0,12,,,,,4,,,61,100
70400,note_off,,,,,128,0,10,,,,,2,,,65,100
70400,note_off,,,,,128,0,11,,,,,3,,,65,100
70432,note_off,,,,,64,0,9,,,,,1,,,73,100
70464,note_on,,,,,64,0,10,,,,,2,,,65,60
70464,note_on,,,,,64,0,12,,,,,4,,,61,60
70464,note_on,,,,,64,0,11,,,,,3,,,65,50
70464,note_on,,,,,32,0,9,,,,,1,,,73,70
70464,note_on,,,,,64,0,8,,,,,0,,,65,45
70528,note_off,,,,,64,0,9,,,,,1,,,73,100
70560,note_on,,,,,32,0,9,,,,,1,,,80,70
70592,note_off,,,,,128,0,10,,,,,2,,,65,100
70592,note_off,,,,,128,0,11,,,,,3,,,65,100
70592,note_off,,,,,128,0,8,,,,,0,,,65,100
70592,note_off,,,,,128,0,12,,,,,4,,,61,100
70624,note_off,,,,,64,0,9,,,,,1,,,80,100
70656,note_on,,,,,64,0,8,,,,,0,,,66,45
70656,note_on,,,,,64,0,10,,,,,2,,,66,60
70656,note_on,,,,,64,0,12,,,,,4,,,66,60
70656,note_on,,,,,32,0,9,,,,,1,,,81,70
70656,note_on,,,,,64,0,11,,,,,3,,,66,50
70720,note_off,,,,,64,0,9,,,,,1,,,81,100
70752,note_on,,,,,32,0,9,,,,,1,,,73,70
70784,note_off,,,,,128,0,12,,,,,4,,,66,100
70784,note_off,,,,,128,0,11,,,,,3,,,66,100
70784,note_off,,,,,128,0,8,,,,,0,,,66,100
70784,note_off,,,,,128,0,10,,,,,2,,,66,100
70816,note_off,,,,,64,0,9,,,,,1,,,73,100
70848,note_on,,,,,64,0,8,,,,,0,,,66,45
70848,note_on,,,,,32,0,9,,,,,1,,,73,70
70848,note_on,,,,,64,0,10,,,,,2,,,66,60
70848,note_on,,,,,64,0,12,,,,,4,,,66,60
70848,note_on,,,,,64,0,11,,,,,3,,,66,50
70912,note_off,,,,,64,0,9,,,,,1,,,73,100
70944,note_on,,,,,32,0,9,,,,,1,,,81,70
70976,note_off,,,,,128,0,8,,,,,0,,,66,100
70976,note_off,,,,,128,0,11,,,,,3,,,66,100
70976,note_off,,,,,128,0,12,,,,,4,,,66,100
70976,note_off,,,,,128,0,10,,,,,2,,,66,100
71008,note_off,,,,,64,0,9,,,,,1,,,81,100
71040,note_on,,,,,64,0,11,,,,,3,,,66,50
71040,note_on,,,,,64,0,12,,,,,4,,,66,60
71040,note_on,,,,,64,0,8,,,,,0,,,66,45
71040,note_on,,,,,32,0,9,,,,,1,,,81,70
71040,note_on,,,,,64,0,10,,,,,2,,,66,60
71104,note_off,,,,,64,0,9,,,,,1,,,81,100
71136,note_on,,,,,32,0,9,,,,,1,,,73,70
71168,note_off,,,,,128,0,8,,,,,0,,,66,100
71168,note_off,,,,,128,0,12,,,,,4,,,66,100
71168,note_off,,,,,128,0,11,,,,,3,,,66,100
71168,note_off,,,,,128,0,10,,,,,2,,,66,100
71200,note_off,,,,,64,0,9,,,,,1,,,73,100
71232,note_on,,,,,64,0,10,,,,,2,,,66,60
71232,note_on,,,,,64,0,8,,,,,0,,,66,45
71232,note_on,,,,,64,0,11,,,,,3,,,66,50
71232,note_on,,,,,64,0,12,,,,,4,,,66,60
71232,note_on,,,,,32,0,9,,,,,1,,,73,70
71296,note_off,,,,,64,0,9,,,,,1,,,73,100
71328,note_on,,,,,32,0,9,,,,,1,,,81,70
71360,note_off,,,,,128,0,11,,,,,3,,,66,100
71360,note_off,,,,,128,0,8,,,,,0,,,66,100
71360,note_off,,,,,128,0,10,,,,,2,,,66,100
71360,note_off,,,,,128,0,12,,,,,4,,,66,100
71392,note_off,,,,,64,0,9,,,,,1,,,81,100
71424,note_on,,,,,64,0,12,,,,,4,,,61,60
71424,note_on,,,,,64,0,8,,,,,0,,,65,45
71424,note_on,,,,,32,0,9,,,,,1,,,80,70
71424,note_on,,,,,64,0,11,,,,,3,,,65,50
71424,note_on,,,,,64,0,10,,,,,2,,,65,60
71488,note_off,,,,,64,0,9,,,,,1,,,80,100
71520,note_on,,,,,32,0,9,,,,,1,,,73,70
71552,note_off,,,,,128,0,11,,,,,3,,,65,100
71552,note_off,,,,,128,0,12,,,,,4,,,61,100
71552,note_off,,,,,128,0,10,,,,,2,,,65,100
71552,note_off,,,,,128,0,8,,,,,0,,,65,100
71584,note_off,,,,,64,0,9,,,,,1,,,73,100
71616,note_on,,,,,64,0,10,,,,,2,,,65,60
71616,note_on,,,,,64,0,11,,,,,3,,,65,50
71616,note_on,,,,,64,0,12,,,,,4,,,61,60
71616,note_on,,,,,32,0,9,,,,,1,,,73,70
71616,note_on,,,,,64,0,8,,,,,0,,,65,45
71680,note_off,,,,,64,0,9,,,,,1,,,73,100
71712,note_on,,,,,32,0,9,,,,,1,,,80,70
71744,note_off,,,,,128,0,11,,,,,3,,,65,100
71744,note_off,,,,,128,0,8,,,,,0,,,65,100
71744,note_off,,,,,128,0,10,,,,,2,,,65,100
71744,note_off,,,,,128,0,12,,,,,4,,,61,100
71776,note_off,,,,,64,0,9,,,,,1,,,80,100
71808,note_on,,,,,64,0,8,,,,,0,,,65,45
71808,note_on,,,,,64,0,10,,,,,2,,,65,60
71808,note_on,,,,,64,0,12,,,,,4,,,61,60
71808,note_on,,,,,32,0,9,,,,,1,,,80,70
71808,note_on,,,,,64,0,11,,,,,3,,,65,50
71872,note_off,,,,,64,0,9,,,,,1,,,80,100
71904,note_on,,,,,32,0,9,,,,,1,,,73,70
71936,note_off,,,,,128,0,12,,,,,4,,,61,100
71936,note_off,,,,,128,0,8,,,,,0,,,65,100
71936,note_off,,,,,128,0,10,,,,,2,,,65,100
71936,note_off,,,,,128,0,11,,,,,3,,,65,100
71968,note_off,,,,,64,0,9,,,,,1,,,73,100
72000,note_on,,,,,32,0,9,,,,,1,,,73,70
72000,note_on,,,,,64,0,10,,,,,2,,,65,60
72000,note_on,,,,,64,0,12,,,,,4,,,61,60
72000,note_on,,,,,64,0,8,,,,,0,,,65,45
72000,note_on,,,,,64,0,11,,,,,3,,,65,50
72064,note_off,,,,,64,0,9,,,,,1,,,73,100
72096,note_on,,,,,32,0,9,,,,,1,,,80,70
72128,note_off,,,,,128,0,12,,,,,4,,,61,100
72128,note_off,,,,,128,0,10,,,,,2,,,65,100
72128,note_off,,,,,128,0,8,,,,,0,,,65,100
72128,note_off,,,,,128,0,11,,,,,3,,,65,100
72160,note_off,,,,,64,0,9,,,,,1,,,80,100
72192,note_on,,,,,64,0,8,,,,,0,,,66,45
72192,note_on,,,,,32,0,9,,,,,1,,,81,70
72192,note_on,,,,,64,0,10,,,,,2,,,66,60
72192,note_on,,,,,64,0,12,,,,,4,,,66,60
72192,note_on,,,,,64,0,11,,,,,3,,,66,50
72256,note_off,,,,,64,0,9,,,,,1,,,81,100
72288,note_on,,,,,32,0,9,,,,,1,,,73,70
72320,note_off,,,,,128,0,11,,,,,3,,,66,100
72320,note_off,,,,,128,0,12,,,,,4,,,66,100
72320,note_off,,,,,128,0,10,,,,,2,,,66,100
72320,note_off,,,,,128,0,8,,,,,0,,,66,100
72352,note_off,,,,,64,0,9,,,,,1,,,73,100
72384,note_on,,,,,64,0,8,,,,,0,,,66,45
72384,note_on,,,,,64,0,10,,,,,2,,,66,60
72384,note_on,,,,,64,0,11,,,,,3,,,66,50
72384,note_on,,,,,32,0,9,,,,,1,,,73,70
72384,note_on,,,,,64,0,12,,,,,4,,,66,60
72448,note_off,,,,,64,0,9,,,,,1,,,73,100
72480,note_on,,,,,32,0,9,,,,,1,,,81,70
72512,note_off,,,,,128,0,10,,,,,2,,,66,100
72512,note_off,,,,,128,0,12,,,,,4,,,66,100
72512,note_off,,,,,128,0,8,,,,,0,,,66,100
72512,note_off,,,,,128,0,11,,,,,3,,,66,100
72544,note_off,,,,,64,0,9,,,,,1,,,81,100
72576,note_on,,,,,64,0,12,,,,,4,,,66,60
72576,note_on,,,,,64,0,10,,,,,2,,,66,60
72576,note_on,,,,,32,0,9,,,,,1,,,81,70
72576,note_on,,,,,64,0,11,,,,,3,,,66,50
72576,note_on,,,,,64,0,8,,,,,0,,,66,45
72640,note_off,,,,,64,0,9,,,,,1,,,81,100
72672,note_on,,,,,32,0,9,,,,,1,,,73,70
72704,note_off,,,,,128,0,12,,,,,4,,,66,100
72704,note_off,,,,,128,0,8,,,,,0,,,66,100
72704,note_off,,,,,128,0,10,,,,,2,,,66,100
72704,note_off,,,,,128,0,11,,,,,3,,,66,100
72736,note_off,,,,,64,0,9,,,,,1,,,73,100
72768,note_on,,,,,64,0,11,,,,,3,,,66,50
72768,note_on,,,,,64,0,12,,,,,4,,,66,60
72768,note_on,,,,,64,0,10,,,,,2,,,66,60
72768,note_on,,,,,64,0,8,,,,,0,,,66,45
72768,note_on,,,,,32,0,9,,,,,1,,,73,70
72832,note_off,,,,,64,0,9,,,,,1,,,73,100
72864,note_on,,,,,32,0,9,,,,,1,,,81,70
72896,note_off,,,,,128,0,11,,,,,3,,,66,100
72896,note_off,,,,,128,0,10,,,,,2,,,66,100
72896,note_off,,,,,128,0,8,,,,,0,,,66,100
72896,note_off,,,,,128,0,12,,,,,4,,,66,100
72928,note_off,,,,,64,0,9,,,,,1,,,81,100
72956,program_change,,,,,60,0,10,,,,,2,40,,,
72960,note_on,,,,,3584,0,16,,,,,7,,,49,100
72960,note_on,,,,,4,0,10,,,,,2,,,65,60
72960,note_on,,,,,64,0,8,,,,,0,,,65,45
72960,note_on,,,,,32,0,9,,,,,1,,,80,70
72960,note_on,,,,,3584,0,14,,,,,6,,,37,85
72960,note_on,,,,,0,0,15,,,,,7,,,61,100
72960,note_on,,,,,3584,0,15,,,,,7,,,65,100
72960,note_on,,,,,64,0,11,,,,,3,,,65,50
72960,note_on,,,,,3584,0,13,,,,,5,,,49,85
72960,note_on,,,,,64,0,12,,,,,4,,,61,60
73024,note_off,,,,,64,0,10,,,,,2,,,65,100
73056,note_on,,,,,32,0,10,,,,,2,,,73,100
73088,note_off,,,,,128,0,9,,,,,1,,,80,100
73120,note_off,,,,,64,0,10,,,,,2,,,73,100
73152,note_on,,,,,64,0,9,,,,,1,,,73,70
73152,note_on,,,,,32,0,10,,,,,2,,,71,100
73216,note_off,,,,,256,0,12,,,,,4,,,61,100
73216,note_off,,,,,256,0,14,,,,,6,,,37,100
73216,note_off,,,,,0,0,15,,,,,7,,,61,100
73216,note_off,,,,,256,0,15,,,,,7,,,65,100
73216,note_off,,,,,256,0,16,,,,,7,,,49,100
73216,note_off,,,,,256,0,8,,,,,0,,,65,100
73216,note_off,,,,,256,0,11,,,,,3,,,65,100
73216,note_off,,,,,64,0,10,,,,,2,,,71,100
73216,note_off,,,,,256,0,13,,,,,5,,,49,100
73248,note_on,,,,,32,0,10,,,,,2,,,73,100
73280,note_off,,,,,128,0,9,,,,,1,,,73,100
73312,note_off,,,,,64,0,10,,,,,2,,,73,99
73344,note_on,,,,,128,0,14,,,,,6,,,41,85
73344,note_on,,,,,0,0,15,,,,,7,,,59,100
73344,note_on,,,,,128,0,15,,,,,7,,,61,100
73344,note_on,,,,,128,0,13,,,,,5,,,53,85
73344,note_on,,,,,128,0,16,,,,,7,,,53,100
73344,note_on,,,,,32,0,10,,,,,2,,,68,100
73408,note_off,,,,,64,0,10,,,,,2,,,68,100
73440,note_on,,,,,32,0,10,,,,,2,,,73,100
73504,note_off,,,,,64,0,10,,,,,2,,,73,100
73536,note_on,,,,,32,0,10,,,,,2,,,71,100
73600,note_off,,,,,64,0,10,,,,,2,,,71,100
73600,note_off,,,,,256,0,16,,,,,7,,,53,100
73600,note_off,,,,,256,0,15,,,,,7,,,61,100
73600,note_off,,,,,256,0,14,,,,,6,,,41,100
73600,note_off,,,,,256,0,13,,,,,5,,,53,100
73600,note_off,,,,,0,0,15,,,,,7,,,59,100
73632,note_on,,,,,32,0,10,,,,,2,,,73,100
73696,note_off,,,,,64,0,10,,,,,2,,,73,100
73728,note_on,,,,,128,0,16,,,,,7,,,54,100
73728,note_on,,,,,128,0,13,,,,,5,,,54,85
73728,program_change,,,,,512,0,11,,,,,3,40,,,
73728,note_on,,,,,128,0,15,,,,,7,,,61,100
73728,note_on,,,,,0,0,15,,,,,7,,,57,100
73728,note_on,,,,,32,0,10,,,,,2,,,69,100
73728,note_on,,,,,128,0,14,,,,,6,,,42,85
73824,note_on,,,,,96,0,11,,,,,3,,,78,100
73888,note_off,,,,,64,0,11,,,,,3,,,78,100
73920,note_on,,,,,32,0,11,,,,,3,,,76,100
73984,note_off,,,,,64,0,11,,,,,3,,,76,100
73984,note_off,,,,,256,0,10,,,,,2,,,69,100
73984,note_off,,,,,256,0,16,,,,,7,,,54,100
73984,note_off,,,,,0,0,15,,,,,7,,,57,100
73984,note_off,,,,,256,0,15,,,,,7,,,61,100
73984,note_off,,,,,256,0,14,,,,,6,,,42,100
73984,note_off,,,,,256,0,13,,,,,5,,,54,100
74016,note_on,,,,,32,0,11,,,,,3,,,78,100
74080,note_off,,,,,64,0,11,,,,,3,,,78,100
74112,note_on,,,,,32,0,11,,,,,3,,,73,100
74112,note_on,,,,,0,0,15,,,,,7,,,59,100
74112,note_on,,,,,128,0,13,,,,,5,,,46,85
74112,note_on,,,,,128,0,15,,,,,7,,,64,100
74112,note_on,,,,,128,0,16,,,,,7,,,46,100
74112,note_on,,,,,128,0,14,,,,,6,,,34,85
74176,note_off,,,,,64,0,11,,,,,3,,,73,100
74208,note_on,,,,,32,0,11,,,,,3,,,78,100
74272,note_off,,,,,64,0,11,,,,,3,,,78,100
74304,note_on,,,,,32,0,11,,,,,3,,,76,100
74368,note_off,,,,,256,0,13,,,,,5,,,46,100
74368,note_off,,,,,64,0,11,,,,,3,,,76,100
74368,note_off,,,,,256,0,16,,,,,7,,,46,100
74368,note_off,,,,,0,0,15,,,,,7,,,59,100
74368,note_off,,,,,256,0,15,,,,,7,,,64,100
74368,note_off,,,,,256,0,14,,,,,6,,,34,100
74400,note_on,,,,,32,0,11,,,,,3,,,78,100
74464,note_off,,,,,64,0,11,,,,,3,,,78,100
74496,note_on,,,,,128,0,14,,,,,6,,,35,85
74496,note_on,,,,,128,0,15,,,,,7,,,66,100
74496,note_on,,,,,32,0,11,,,,,3,,,74,100
74496,note_on,,,,,128,0,13,,,,,5,,,47,85
74496,note_on,,,,,128,0,16,,,,,7,,,47,100
74496,note_on,,,,,0,0,15,,,,,7,,,62,100
74592,note_on,,,,,608,0,10,,,,,2,,,83,100
74656,note_off,,,,,64,0,10,,,,,2,,,83,100
74688,note_on,,,,,32,0,10,,,,,2,,,81,100
74752,note_off,,,,,256,0,15,,,,,7,,,66,100
74752,note_off,,,,,256,0,11,,,,,3,,,74,100
74752,note_off,,,,,256,0,13,,,,,5,,,47,100
74752,note_off,,,,,256,0,16,,,,,7,,,47,100
74752,note_off,,,,,256,0,14,,,,,6,,,35,100
74752,note_off,,,,,64,0,10,,,,,2,,,81,100
74752,note_off,,,,,0,0,15,,,,,7,,,62,100
74784,note_on,,,,,32,0,10,,,,,2,,,83,100
74848,note_off,,,,,64,0,10,,,,,2,,,83,100
74880,note_on,,,,,128,0,15,,,,,7,,,71,100
74880,note_on,,,,,128,0,14,,,,,6,,,39,85
74880,note_on,,,,,128,0,13,,,,,5,,,51,85
74880,note_on,,,,,128,0,16,,,,,7,,,51,100
74880,note_on,,,,,0,0,15,,,,,7,,,66,100
74880,note_on,,,,,32,0,10,,,,,2,,,78,100
74944,note_off,,,,,64,0,10,,,,,2,,,78,100
74976,note_on,,,,,32,0,10,,,,,2,,,83,100
75040,note_off,,,,,64,0,10,,,,,2,,,83,100
75072,note_on,,,,,32,0,10,,,,,2,,,81,100
75136,note_off,,,,,64,0,10,,,,,2,,,81,100
75136,note_off,,,,,256,0,16,,,,,7,,,51,100
75136,note_off,,,,,0,0,15,,,,,7,,,66,100
75136,note_off,,,,,256,0,14,,,,,6,,,39,100
75136,note_off,,,,,256,0,15,,,,,7,,,71,100
75136,note_off,,,,,256,0,13,,,,,5,,,51,100
75168,note_on,,,,,32,0,10,,,,,2,,,83,100
75232,note_off,,,,,64,0,10,,,,,2,,,83,100
75264,note_on,,,,,128,0,13,,,,,5,,,52,85
75264,note_on,,,,,128,0,14,,,,,6,,,40,85
75264,note_on,,,,,128,0,16,,,,,7,,,52,100
75264,note_on,,,,,0,0,15,,,,,7,,,68,100
75264,note_on,,,,,128,0,15,,,,,7,,,71,100
75264,note_on,,,,,32,0,10,,,,,2,,,80,100
75360,note_on,,,,,608,0,11,,,,,3,,,76,100
75424,note_off,,,,,64,0,11,,,,,3,,,76,100
75456,note_on,,,,,32,0,11,,,,,3,,,74,100
75520,note_off,,,,,256,0,10,,,,,2,,,80,100
75520,note_off,,,,,64,0,11,,,,,3,,,74,100
75520,note_off,,,,,256,0,15,,,,,7,,,71,100
75520,note_off,,,,,0,0,15,,,,,7,,,68,100
75520,note_off,,,,,256,0,14,,,,,6,,,40,100
75520,note_off,,,,,256,0,16,,,,,7,,,52,100
75520,note_off,,,,,256,0,13,,,,,5,,,52,100
75552,note_on,,,,,32,0,11,,,,,3,,,76,100
75616,note_off,,,,,64,0,11,,,,,3,,,76,100
75648,note_on,,,,,128,0,14,,,,,6,,,44,85
75648,note_on,,,,,128,0,16,,,,,7,,,44,100
75648,note_on,,,,,0,0,15,,,,,7,,,59,100
75648,note_on,,,,,128,0,15,,,,,7,,,64,100
75648,note_on,,,,,128,0,13,,,,,5,,,44,85
75648,note_on,,,,,32,0,11,,,,,3,,,71,100
75712,note_off,,,,,64,0,11,,,,,3,,,71,100
75744,note_on,,,,,32,0,11,,,,,3,,,76,100
75808,note_off,,,,,64,0,11,,,,,3,,,76,100
75840,note_on,,,,,32,0,11,,,,,3,,,74,100
75904,note_off,,,,,256,0,16,,,,,7,,,44,100
75904,note_off,,,,,256,0,15,,,,,7,,,64,100
75904,note_off,,,,,64,0,11,,,,,3,,,74,100
75904,note_off,,,,,256,0,14,,,,,6,,,44,100
75904,note_off,,,,,256,0,13,,,,,5,,,44,100
75904,note_off,,,,,0,0,15,,,,,7,,,59,100
75936,note_on,,,,,32,0,11,,,,,3,,,76,100
76000,note_off,,,,,64,0,11,,,,,3,,,76,100
76032,note_on,,,,,128,0,15,,,,,7,,,64,100
76032,note_on,,,,,32,0,11,,,,,3,,,73,100
76032,note_on,,,,,128,0,14,,,,,6,,,33,85
76032,note_on,,,,,128,0,13,,,,,5,,,45,85
76032,note_on,,,,,128,0,16,,,,,7,,,45,100
76032,note_on,,,,,0,0,15,,,,,7,,,61,100
76128,note_on,,,,,608,0,10,,,,,2,,,81,100
76192,note_off,,,,,64,0,10,,,,,2,,,81,100
76224,note_on,,,,,32,0,10,,,,,2,,,80,100
76288,note_off,,,,,256,0,11,,,,,3,,,73,100
76288,note_off,,,,,64,0,10,,,,,2,,,80,100
76288,note_off,,,,,0,0,15,,,,,7,,,61,100
76288,note_off,,,,,256,0,16,,,,,7,,,45,100
76288,note_off,,,,,256,0,13,,,,,5,,,45,100
76288,note_off,,,,,256,0,14,,,,,6,,,33,100
76288,note_off,,,,,256,0,15,,,,,7,,,64,100
76320,note_on,,,,,32,0,10,,,,,2,,,81,100
76384,note_off,,,,,64,0,10,,,,,2,,,81,100
76416,note_on,,,,,128,0,15,,,,,7,,,69,100
76416,note_on,,,,,0,0,15,,,,,7,,,64,100
76416,note_on,,,,,128,0,14,,,,,6,,,37,85
76416,note_on,,,,,128,0,16,,,,,7,,,49,100
76416,note_on,,,,,32,0,10,,,,,2,,,76,100
76416,note_on,,,,,128,0,13,,,,,5,,,49,85
76480,note_off,,,,,64,0,10,,,,,2,,,76,100
76512,note_on,,,,,32,0,10,,,,,2,,,81,100
76576,note_off,,,,,64,0,10,,,,,2,,,81,100
76608,note_on,,,,,32,0,10,,,,,2,,,80,100
76672,note_off,,,,,0,0,15,,,,,7,,,64,100
76672,note_off,,,,,256,0,15,,,,,7,,,69,100
76672,note_off,,,,,256,0,14,,,,,6,,,37,100
76672,note_off,,,,,256,0,16,,,,,7,,,49,100
76672,note_off,,,,,64,0,10,,,,,2,,,80,100
76672,note_off,,,,,256,0,13,,,,,5,,,49,100
76704,note_on,,,,,32,0,10,,,,,2,,,81,100
76768,note_off,,,,,64,0,10,,,,,2,,,81,100
76800,note_on,,,,,128,0,13,,,,,5,,,50,85
76800,note_on,,,,,128,0,14,,,,,6,,,38,85
76800,note_on,,,,,32,0,10,,,,,2,,,78,100
76800,note_on,,,,,128,0,15,,,,,7,,,69,100
76800,note_on,,,,,0,0,15,,,,,7,,,66,100
76800,note_on,,,,,128,0,16,,,,,7,,,50,100
76864,note_off,,,,,64,0,10,,,,,2,,,78,100
76896,note_on,,,,,32,0,10,,,,,2,,,83,100
76960,note_off,,,,,64,0,10,,,,,2,,,83,100
76992,note_on,,,,,32,0,10,,,,,2,,,81,100
77056,note_off,,,,,0,0,15,,,,,7,,,66,100
77056,note_off,,,,,256,0,14,,,,,6,,,38,100
77056,note_off,,,,,64,0,10,,,,,2,,,81,100
77056,note_off,,,,,256,0,15,,,,,7,,,69,100
77056,note_off,,,,,256,0,13,,,,,5,,,50,100
77056,note_off,,,,,256,0,16,,,,,7,,,50,100
77088,note_on,,,,,32,0,10,,,,,2,,,83,100
77152,note_off,,,,,64,0,10,,,,,2,,,83,100
77184,note_on,,,,,0,0,15,,,,,7,,,66,100
77184,note_on,,,,,128,0,13,,,,,5,,,51,85
77184,note_on,,,,,128,0,16,,,,,7,,,51,100
77184,note_on,,,,,128,0,15,,,,,7,,,71,100
77184,note_on,,,,,32,0,10,,,,,2,,,78,100
77184,note_on,,,,,128,0,14,,,,,6,,,39,85
77248,note_off,,,,,64,0,10,,,,,2,,,78,100
77280,note_on,,,,,32,0,10,,,,,2,,,83,100
77344,note_off,,,,,64,0,10,,,,,2,,,83,100
77376,note_on,,,,,32,0,10,,,,,2,,,81,100
77440,note_off,,,,,256,0,13,,,,,5,,,51,100
77440,note_off,,,,,256,0,16,,,,,7,,,51,100
77440,note_off,,,,,256,0,15,,,,,7,,,71,100
77440,note_off,,,,,64,0,10,,,,,2,,,81,100
77440,note_off,,,,,256,0,14,,,,,6,,,39,100
77440,note_off,,,,,0,0,15,,,,,7,,,66,100
77472,note_on,,,,,32,0,10,,,,,2,,,83,100
77536,note_off,,,,,64,0,10,,,,,2,,,83,100
77568,note_on,,,,,32,0,10,,,,,2,,,80,100
77568,note_on,,,,,128,0,16,,,,,7,,,52,100
77568,note_on,,,,,128,0,13,,,,,5,,,52,85
77568,note_on,,,,,128,0,14,,,,,6,,,40,85
77568,note_on,,,,,0,0,15,,,,,7,,,68,100
77568,note_on,,,,,128,0,15,,,,,7,,,71,100
77696,note_off,,,,,128,0,10,,,,,2,,,80,100
77760,note_on,,,,,64,0,10,,,,,2,,,76,100
77824,note_off,,,,,256,0,15,,,,,7,,,71,100
77824,note_off,,,,,256,0,14,,,,,6,,,40,100
77824,note_off,,,,,256,0,16,,,,,7,,,52,100
77824,note_off,,,,,256,0,13,,,,,5,,,52,100
77824,note_off,,,,,0,0,15,,,,,7,,,68,100
77888,note_off,,,,,128,0,10,,,,,2,,,76,100
77948,program_change,,,,,4668,0,9,,,,,1,48,,,
77948,program_change,,,,,124,0,13,,,,,5,43,,,
77948,program_change,,,,,60,0,10,,,,,2,48,,,
77948,program_change,,,,,1660,0,11,,,,,3,48,,,
77952,note_on,,,,,4,0,11,,,,,3,,,81,85
77952,note_on,,,,,128,0,15,,,,,7,,,64,100
77952,note_on,,,,,4,0,10,,,,,2,,,81,75
77952,program_change,,,,,0,0,11,,,,,3,48,,,
77952,note_on,,,,,0,0,15,,,,,7,,,73,100
77952,program_change,,,,,4736,0,8,,,,,0,48,,,
77952,program_change,,,,,4,0,9,,,,,1,48,,,
77952,note_on,,,,,128,0,14,,,,,6,,,45,85
77952,note_on,,,,,0,0,12,,,,,4,,,73,85
77952,note_on,,,,,4,0,13,,,,,5,,,57,85
77952,note_on,,,,,4736,0,12,,,,,4,,,64,85
77952,note_on,,,,,128,0,16,,,,,7,,,57,100
77956,note_on,,,,,4,0,9,,,,,1,,,81,75
77956,program_change,,,,,0,0,9,,,,,1,48,,,
77956,note_on,,,,,4,0,8,,,,,0,,,81,85
78016,note_off,,,,,64,0,13,,,,,5,,,57,100
78048,note_on,,,,,32,0,13,,,,,5,,,59,85
78080,note_off,,,,,0,0,15,,,,,7,,,73,100
78080,note_off,,,,,128,0,12,,,,,4,,,64,100
78080,note_off,,,,,0,0,12,,,,,4,,,73,100
78080,note_off,,,,,128,0,11,,,,,3,,,81,100
78080,note_off,,,,,128,0,14,,,,,6,,,45,100
78080,note_off,,,,,128,0,16,,,,,7,,,57,100
78080,note_off,,,,,128,0,15,,,,,7,,,64,100
78080,note_off,,,,,128,0,10,,,,,2,,,81,100
78084,note_off,,,,,128,0,8,,,,,0,,,81,100
78084,note_off,,,,,128,0,9,,,,,1,,,81,100
78112,note_off,,,,,64,0,13,,,,,5,,,59,100
78144,note_on,,,,,32,0,13,,,,,5,,,61,85
78208,note_off,,,,,64,0,13,,,,,5,,,61,100
78240,note_on,,,,,32,0,13,,,,,5,,,57,85
78304,note_off,,,,,64,0,13,,,,,5,,,57,100
78336,note_on,,,,,256,0,15,,,,,7,,,71,100
78336,note_on,,,,,0,0,15,,,,,7,,,69,100
78336,note_on,,,,,256,0,12,,,,,4,,,66,85
78336,note_on,,,,,0,0,12,,,,,4,,,74,85
78336,note_on,,,,,256,0,10,,,,,2,,,83,75
78336,note_on,,,,,32,0,13,,,,,5,,,62,85
78336,note_on,,,,,256,0,11,,,,,3,,,81,85
78336,note_on,,,,,256,0,14,,,,,6,,,50,85
78336,note_on,,,,,256,0,16,,,,,7,,,62,100
78340,note_on,,,,,256,0,9,,,,,1,,,81,75
78340,note_on,,,,,256,0,8,,,,,0,,,83,85
78400,note_off,,,,,64,0,13,,,,,5,,,62,100
78432,note_on,,,,,32,0,13,,,,,5,,,61,85
78464,note_off,,,,,128,0,15,,,,,7,,,71,100
78464,note_off,,,,,128,0,14,,,,,6,,,50,100
78464,note_off,,,,,128,0,10,,,,,2,,,83,100
78464,note_off,,,,,128,0,16,,,,,7,,,62,100
78464,note_off,,,,,0,0,15,,,,,7,,,69,100
78464,note_off,,,,,128,0,11,,,,,3,,,81,100
78464,note_off,,,,,128,0,12,,,,,4,,,66,100
78464,note_off,,,,,0,0,12,,,,,4,,,74,100
78468,note_off,,,,,128,0,9,,,,,1,,,81,100
78468,note_off,,,,,128,0,8,,,,,0,,,83,100
78496,note_off,,,,,64,0,13,,,,,5,,,61,100
78528,note_on,,,,,32,0,13,,,,,5,,,62,85
78592,note_off,,,,,64,0,13,,,,,5,,,62,100
78624,note_on,,,,,32,0,13,,,,,5,,,59,85
78688,note_off,,,,,64,0,13,,,,,5,,,59,100
78720,note_on,,,,,256,0,10,,,,,2,,,83,75
78720,note_on,,,,,256,0,12,,,,,4,,,64,85
78720,note_on,,,,,0,0,12,,,,,4,,,71,85
78720,note_on,,,,,256,0,16,,,,,7,,,64,100
78720,note_on,,,,,256,0,15,,,,,7,,,71,100
78720,note_on,,,,,0,0,15,,,,,7,,,68,100
78720,note_on,,,,,256,0,11,,,,,3,,,80,85
78720,note_on,,,,,256,0,14,,,,,6,,,52,85
78720,note_on,,,,,32,0,13,,,,,5,,,64,85
78724,note_on,,,,,256,0,9,,,,,1,,,80,75
78724,note_on,,,,,256,0,8,,,,,0,,,83,85
78784,note_off,,,,,64,0,13,,,,,5,,,64,100
78816,note_on,,,,,32,0,13,,,,,5,,,66,85
78848,note_off,,,,,128,0,14,,,,,6,,,52,100
78848,note_off,,,,,0,0,12,,,,,4,,,71,100
78848,note_off,,,,,128,0,15,,,,,7,,,71,100
78848,note_off,,,,,128,0,16,,,,,7,,,64,100
78848,note_off,,,,,0,0,15,,,,,7,,,68,100
78848,note_off,,,,,128,0,12,,,,,4,,,64,100
78848,note_off,,,,,128,0,11,,,,,3,,,80,100
78848,note_off,,,,,128,0,10,,,,,2,,,83,100
78852,note_off,,,,,128,0,8,,,,,0,,,83,100
78852,note_off,,,,,128,0,9,,,,,1,,,80,100
78880,note_off,,,,,64,0,13,,,,,5,,,66,100
78912,note_on,,,,,32,0,13,,,,,5,,,64,85
78976,note_off,,,,,64,0,13,,,,,5,,,64,100
79008,note_on,,,,,32,0,13,,,,,5,,,62,85
79072,note_off,,,,,64,0,13,,,,,5,,,62,100
79104,note_on,,,,,256,0,15,,,,,7,,,68,100
79104,note_on,,,,,256,0,10,,,,,2,,,81,75
79104,note_on,,,,,0,0,12,,,,,4,,,73,85
79104,note_on,,,,,32,0,13,,,,,5,,,61,85
79104,note_on,,,,,256,0,11,,,,,3,,,80,85
79104,note_on,,,,,256,0,16,,,,,7,,,61,100
79104,note_on,,,,,0,0,15,,,,,7,,,69,100
79104,note_on,,,,,256,0,14,,,,,6,,,49,85
79104,note_on,,,,,256,0,12,,,,,4,,,64,85
79108,note_on,,,,,256,0,9,,,,,1,,,80,75
79108,note_on,,,,,256,0,8,,,,,0,,,81,85
79168,note_off,,,,,64,0,13,,,,,5,,,61,100
79200,note_on,,,,,32,0,13,,,,,5,,,59,85
79232,note_off,,,,,128,0,11,,,,,3,,,80,100
79232,note_off,,,,,128,0,14,,,,,6,,,49,100
79232,note_off,,,,,128,0,15,,,,,7,,,68,100
79232,note_off,,,,,128,0,10,,,,,2,,,81,100
79232,note_off,,,,,0,0,12,,,,,4,,,73,100
79232,note_off,,,,,128,0,12,,,,,4,,,64,100
79232,note_off,,,,,0,0,15,,,,,7,,,69,100
79232,note_off,,,,,128,0,16,,,,,7,,,61,100
79236,note_off,,,,,128,0,8,,,,,0,,,81,100
79236,note_off,,,,,128,0,9,,,,,1,,,80,100
79264,note_off,,,,,64,0,13,,,,,5,,,59,100
79296,note_on,,,,,32,0,13,,,,,5,,,61,85
79360,note_off,,,,,64,0,13,,,,,5,,,61,100
79392,note_on,,,,,32,0,13,,,,,5,,,57,85
79456,note_off,,,,,64,0,13,,,,,5,,,57,100
79488,note_on,,,,,0,0,15,,,,,7,,,69,100
79488,note_on,,,,,256,0,15,,,,,7,,,66,100
79488,note_on,,,,,256,0,11,,,,,3,,,78,85
79488,note_on,,,,,256,0,16,,,,,7,,,62,100
79488,note_on,,,,,256,0,10,,,,,2,,,81,75
79488,note_on,,,,,256,0,14,,,,,6,,,50,85
79488,note_on,,,,,32,0,13,,,,,5,,,62,85
79488,note_on,,,,,256,0,12,,,,,4,,,62,85
79488,note_on,,,,,0,0,12,,,,,4,,,69,85
79492,note_on,,,,,256,0,9,,,,,1,,,78,75
79492,note_on,,,,,256,0,8,,,,,0,,,81,85
79552,note_off,,,,,64,0,13,,,,,5,,,62,100
79584,note_on,,,,,32,0,13,,,,,5,,,64,85
79616,note_off,,,,,128,0,15,,,,,7,,,66,100
79616,note_off,,,,,128,0,16,,,,,7,,,62,100
79616,note_off,,,,,128,0,11,,,,,3,,,78,100
79616,note_off,,,,,0,0,15,,,,,7,,,69,100
79616,note_off,,,,,0,0,12,,,,,4,,,69,100
79616,note_off,,,,,128,0,10,,,,,2,,,81,100
79616,note_off,,,,,128,0,12,,,,,4,,,62,100
79616,note_off,,,,,128,0,14,,,,,6,,,50,100
79620,note_off,,,,,128,0,9,,,,,1,,,78,100
79620,note_off,,,,,128,0,8,,,,,0,,,81,100
79648,note_off,,,,,64,0,13,,,,,5,,,64,100
79680,note_on,,,,,32,0,13,,,,,5,,,62,85
79744,note_off,,,,,64,0,13,,,,,5,,,62,100
79776,note_on,,,,,32,0,13,,,,,5,,,61,85
79840,note_off,,,,,64,0,13,,,,,5,,,61,100
79872,note_on,,,,,256,0,12,,,,,4,,,62,85
79872,note_on,,,,,256,0,15,,,,,7,,,68,100
79872,note_on,,,,,256,0,14,,,,,6,,,47,85
79872,note_on,,,,,256,0,16,,,,,7,,,59,100
79872,note_on,,,,,256,0,10,,,,,2,,,80,75
79872,note_on,,,,,0,0,15,,,,,7,,,66,100
79872,note_on,,,,,32,0,13,,,,,5,,,59,85
79872,note_on,,,,,256,0,11,,,,,3,,,78,85
79872,note_on,,,,,0,0,12,,,,,4,,,71,85
79876,note_on,,,,,256,0,8,,,,,0,,,80,85
79876,note_on,,,,,256,0,9,,,,,1,,,78,75
79936,note_off,,,,,64,0,13,,,,,5,,,59,100
79968,note_on,,,,,32,0,13,,,,,5,,,57,85
80000,note_off,,,,,128,0,15,,,,,7,,,68,100
80000,note_off,,,,,128,0,11,,,,,3,,,78,100
80000,note_off,,,,,0,0,15,,,,,7,,,66,100
80000,note_off,,,,,128,0,16,,,,,7,,,59,100
80000,note_off,,,,,0,0,12,,,,,4,,,71,100
80000,note_off,,,,,128,0,10,,,,,2,,,80,100
80000,note_off,,,,,128,0,12,,,,,4,,,62,100
80000,note_off,,,,,128,0,14,,,,,6,,,47,100
80004,note_off,,,,,128,0,8,,,,,0,,,80,100
80004,note_off,,,,,128,0,9,,,,,1,,,78,100
80032,note_off,,,,,64,0,13,,,,,5,,,57,100
80064,note_on,,,,,32,0,13,,,,,5,,,59,85
80128,note_off,,,,,64,0,13,,,,,5,,,59,100
80160,note_on,,,,,32,0,13,,,,,5,,,56,85
80224,note_off,,,,,64,0,13,,,,,5,,,56,100
80256,note_on,,,,,256,0,16,,,,,7,,,61,100
80256,note_on,,,,,256,0,15,,,,,7,,,68,100
80256,note_on,,,,,0,0,15,,,,,7,,,64,100
80256,note_on,,,,,256,0,10,,,,,2,,,80,75
80256,note_on,,,,,256,0,14,,,,,6,,,49,85
80256,note_on,,,,,32,0,13,,,,,5,,,61,85
80256,note_on,,,,,256,0,11,,,,,3,,,76,85
80256,note_on,,,,,256,0,12,,,,,4,,,61,85
80256,note_on,,,,,0,0,12,,,,,4,,,68,85
80260,note_on,,,,,256,0,9,,,,,1,,,76,75
80260,note_on,,,,,256,0,8,,,,,0,,,80,85
80320,note_off,,,,,64,0,13,,,,,5,,,61,100
80352,note_on,,,,,32,0,13,,,,,5,,,62,85
80384,note_off,,,,,128,0,14,,,,,6,,,49,100
80384,note_off,,,,,128,0,15,,,,,7,,,68,100
80384,note_off,,,,,128,0,10,,,,,2,,,80,100
80384,note_off,,,,,0,0,15,,,,,7,,,64,100
80384,note_off,,,,,128,0,16,,,,,7,,,61,100
80384,note_off,,,,,128,0,11,,,,,3,,,76,100
80384,note_off,,,,,0,0,12,,,,,4,,,68,100
80384,note_off,,,,,128,0,12,,,,,4,,,61,100
80388,note_off,,,,,128,0,9,,,,,1,,,76,100
80388,note_off,,,,,128,0,8,,,,,0,,,80,100
80416,note_off,,,,,64,0,13,,,,,5,,,62,100
80448,note_on,,,,,32,0,13,,,,,5,,,61,85
80512,note_off,,,,,64,0,13,,,,,5,,,61,100
80544,note_on,,,,,32,0,13,,,,,5,,,59,85
80608,note_off,,,,,64,0,13,,,,,5,,,59,100
80640,note_on,,,,,256,0,11,,,,,3,,,76,85
80640,note_on,,,,,256,0,16,,,,,7,,,57,100
80640,note_on,,,,,256,0,15,,,,,7,,,66,100
80640,note_on,,,,,0,0,15,,,,,7,,,64,100
80640,note_on,,,,,0,0,12,,,,,4,,,69,85
80640,note_on,,,,,256,0,14,,,,,6,,,45,85
80640,note_on,,,,,256,0,12,,,,,4,,,61,85
80640,note_on,,,,,256,0,10,,,,,2,,,78,75
80640,note_on,,,,,32,0,13,,,,,5,,,57,85
80644,note_on,,,,,256,0,9,,,,,1,,,76,75
80644,note_on,,,,,256,0,8,,,,,0,,,78,85
80704,note_off,,,,,64,0,13,,,,,5,,,57,100
80736,note_on,,,,,32,0,13,,,,,5,,,56,85
80768,note_off,,,,,128,0,16,,,,,7,,,57,100
80768,note_off,,,,,0,0,15,,,,,7,,,64,100
80768,note_off,,,,,128,0,11,,,,,3,,,76,100
80768,note_off,,,,,0,0,12,,,,,4,,,69,100
80768,note_off,,,,,128,0,12,,,,,4,,,61,100
80768,note_off,,,,,128,0,10,,,,,2,,,78,100
80768,note_off,,,,,128,0,14,,,,,6,,,45,100
80768,note_off,,,,,128,0,15,,,,,7,,,66,100
80772,note_off,,,,,128,0,9,,,,,1,,,76,100
80772,note_off,,,,,128,0,8,,,,,0,,,78,100
80800,note_off,,,,,64,0,13,,,,,5,,,56,100
80832,note_on,,,,,32,0,13,,,,,5,,,57,85
80896,note_off,,,,,64,0,13,,,,,5,,,57,100
80928,note_on,,,,,32,0,13,,,,,5,,,54,85
80992,note_off,,,,,64,0,13,,,,,5,,,54,100
81024,note_on,,,,,256,0,15,,,,,7,,,66,100
81024,note_on,,,,,256,0,11,,,,,3,,,74,85
81024,note_on,,,,,256,0,16,,,,,7,,,59,100
81024,note_on,,,,,0,0,15,,,,,7,,,62,100
81024,note_on,,,,,0,0,12,,,,,4,,,66,85
81024,note_on,,,,,256,0,10,,,,,2,,,78,75
81024,note_on,,,,,32,0,13,,,,,5,,,59,85
81024,note_on,,,,,256,0,12,,,,,4,,,59,85
81024,note_on,,,,,256,0,14,,,,,6,,,47,85
81028,note_on,,,,,256,0,9,,,,,1,,,74,75
81028,note_on,,,,,256,0,8,,,,,0,,,78,85
81088,note_off,,,,,64,0,13,,,,,5,,,59,100
81120,note_on,,,,,32,0,13,,,,,5,,,61,85
81152,note_off,,,,,0,0,12,,,,,4,,,66,100
81152,note_off,,,,,128,0,11,,,,,3,,,74,100
81152,note_off,,,,,128,0,15,,,,,7,,,66,100
81152,note_off,,,,,128,0,10,,,,,2,,,78,100
81152,note_off,,,,,128,0,16,,,,,7,,,59,100
81152,note_off,,,,,128,0,12,,,,,4,,,59,100
81152,note_off,,,,,0,0,15,,,,,7,,,62,100
81152,note_off,,,,,128,0,14,,,,,6,,,47,100
81156,note_off,,,,,128,0,9,,,,,1,,,74,100
81156,note_off,,,,,128,0,8,,,,,0,,,78,100
81184,note_off,,,,,64,0,13,,,,,5,,,61,100
81216,note_on,,,,,32,0,13,,,,,5,,,62,85
81280,note_off,,,,,64,0,13,,,,,5,,,62,100
81312,note_on,,,,,32,0,13,,,,,5,,,59,85
81376,note_off,,,,,64,0,13,,,,,5,,,59,100
81408,note_on,,,,,32,0,13,,,,,5,,,52,85
81408,note_on,,,,,0,0,15,,,,,7,,,62,100
81408,note_on,,,,,256,0,15,,,,,7,,,68,100
81408,note_on,,,,,256,0,11,,,,,3,,,74,85
81408,note_on,,,,,256,0,12,,,,,4,,,59,85
81408,note_on,,,,,0,0,12,,,,,4,,,64,85
81408,note_on,,,,,256,0,14,,,,,6,,,40,85
81408,note_on,,,,,256,0,10,,,,,2,,,80,75
81408,note_on,,,,,256,0,16,,,,,7,,,52,100
81412,note_on,,,,,256,0,8,,,,,0,,,80,85
81412,note_on,,,,,256,0,9,,,,,1,,,74,75
81472,note_off,,,,,64,0,13,,,,,5,,,52,100
81504,note_on,,,,,32,0,13,,,,,5,,,54,85
81536,note_off,,,,,128,0,10,,,,,2,,,80,100
81536,note_off,,,,,0,0,15,,,,,7,,,62,100
81536,note_off,,,,,128,0,15,,,,,7,,,68,100
81536,note_off,,,,,128,0,14,,,,,6,,,40,100
81536,note_off,,,,,128,0,11,,,,,3,,,74,100
81536,note_off,,,,,0,0,12,,,,,4,,,64,100
81536,note_off,,,,,128,0,16,,,,,7,,,52,100
81536,note_off,,,,,128,0,12,,,,,4,,,59,100
81540,note_off,,,,,128,0,8,,,,,0,,,80,100
81540,note_off,,,,,128,0,9,,,,,1,,,74,100
81568,note_off,,,,,64,0,13,,,,,5,,,54,100
81600,note_on,,,,,32,0,13,,,,,5,,,56,85
81664,note_off,,,,,64,0,13,,,,,5,,,56,100
81696,note_on,,,,,32,0,13,,,,,5,,,52,85
81760,note_off,,,,,64,0,13,,,,,5,,,52,100
81792,note_on,,,,,256,0,14,,,,,6,,,33,85
81792,note_on,,,,,32,0,13,,,,,5,,,57,85
81792,note_on,,,,,256,0,15,,,,,7,,,69,100
81792,note_on,,,,,256,0,11,,,,,3,,,73,85
81792,note_on,,,,,256,0,12,,,,,4,,,64,85
81792,note_on,,,,,256,0,16,,,,,7,,,45,100
81792,note_on,,,,,0,0,15,,,,,7,,,61,100
81792,note_on,,,,,256,0,10,,,,,2,,,81,75
81796,note_on,,,,,256,0,8,,,,,0,,,81,85
81796,note_on,,,,,256,0,9,,,,,1,,,73,75
81856,note_off,,,,,64,0,13,,,,,5,,,57,100
81888,note_on,,,,,32,0,13,,,,,5,,,59,85
81920,note_off,,,,,0,0,15,,,,,7,,,61,100
81920,note_off,,,,,128,0,14,,,,,6,,,33,100
81920,note_off,,,,,128,0,11,,,,,3,,,73,100
81920,note_off,,,,,128,0,10,,,,,2,,,81,100
81920,note_off,,,,,128,0,16,,,,,7,,,45,100
81920,note_off,,,,,128,0,12,,,,,4,,,64,100
81920,note_off,,,,,128,0,15,,,,,7,,,69,100
81924,note_off,,,,,128,0,8,,,,,0,,,81,100
81924,note_off,,,,,128,0,9,,,,,1,,,73,100
81952,note_off,,,,,64,0,13,,,,,5,,,59,100
81984,note_on,,,,,32,0,13,,,,,5,,,61,85
82048,note_off,,,,,64,0,13,,,,,5,,,61,100
82080,note_on,,,,,32,0,13,,,,,5,,,57,85
82144,note_off,,,,,64,0,13,,,,,5,,,57,100
82176,note_on,,,,,0,0,12,,,,,4,,,66,85
82176,note_on,,,,,256,0,14,,,,,6,,,38,85
82176,note_on,,,,,256,0,11,,,,,3,,,71,85
82176,note_on,,,,,256,0,10,,,,,2,,,81,75
82176,note_on,,,,,0,0,15,,,,,7,,,69,100
82176,note_on,,,,,256,0,15,,,,,7,,,71,100
82176,note_on,,,,,32,0,13,,,,,5,,,62,85
82176,note_on,,,,,256,0,16,,,,,7,,,50,100
82176,note_on,,,,,256,0,12,,,,,4,,,59,85
82180,note_on,,,,,256,0,8,,,,,0,,,81,85
82180,note_on,,,,,256,0,9,,,,,1,,,71,75
82240,note_off,,,,,64,0,13,,,,,5,,,62,100
82272,note_on,,,,,32,0,13,,,,,5,,,61,85
82304,note_off,,,,,128,0,16,,,,,7,,,50,100
82304,note_off,,,,,128,0,14,,,,,6,,,38,100
82304,note_off,,,,,128,0,10,,,,,2,,,81,100
82304,note_off,,,,,128,0,11,,,,,3,,,71,100
82304,note_off,,,,,0,0,12,,,,,4,,,66,100
82304,note_off,,,,,128,0,12,,,,,4,,,59,100
82304,note_off,,,,,128,0,15,,,,,7,,,71,100
82304,note_off,,,,,0,0,15,,,,,7,,,69,100
82308,note_off,,,,,128,0,9,,,,,1,,,71,100
82308,note_off,,,,,128,0,8,,,,,0,,,81,100
82336,note_off,,,,,64,0,13,,,,,5,,,61,100
82368,note_on,,,,,32,0,13,,,,,5,,,62,85
82432,note_off,,,,,64,0,13,,,,,5,,,62,100
82464,note_on,,,,,32,0,13,,,,,5,,,59,85
82528,note_off,,,,,64,0,13,,,,,5,,,59,100
82560,note_on,,,,,256,0,14,,,,,6,,,40,85
82560,note_on,,,,,256,0,16,,,,,7,,,52,100
82560,note_on,,,,,32,0,13,,,,,5,,,64,85
82560,note_on,,,,,256,0,15,,,,,7,,,71,100
82560,note_on,,,,,0,0,15,,,,,7,,,68,100
82560,note_on,,,,,256,0,12,,,,,4,,,64,85
82560,note_on,,,,,0,0,12,,,,,4,,,68,85
82560,note_on,,,,,256,0,11,,,,,3,,,71,85
82560,note_on,,,,,256,0,10,,,,,2,,,80,75
82564,note_on,,,,,256,0,8,,,,,0,,,80,85
82564,note_on,,,,,256,0,9,,,,,1,,,71,75
82624,note_off,,,,,64,0,13,,,,,5,,,64,100
82656,note_on,,,,,32,0,13,,,,,5,,,62,85
82688,note_off,,,,,128,0,11,,,,,3,,,71,100
82688,note_off,,,,,128,0,14,,,,,6,,,40,100
82688,note_off,,,,,0,0,15,,,,,7,,,68,100
82688,note_off,,,,,128,0,15,,,,,7,,,71,100
82688,note_off,,,,,128,0,12,,,,,4,,,64,100
82688,note_off,,,,,0,0,12,,,,,4,,,68,100
82688,note_off,,,,,128,0,10,,,,,2,,,80,100
82688,note_off,,,,,128,0,16,,,,,7,,,52,100
82692,note_off,,,,,128,0,8,,,,,0,,,80,100
82692,note_off,,,,,128,0,9,,,,,1,,,71,100
82720,note_off,,,,,64,0,13,,,,,5,,,62,100
82752,note_on,,,,,32,0,13,,,,,5,,,64,85
82816,note_off,,,,,64,0,13,,,,,5,,,64,100
82848,note_on,,,,,32,0,13,,,,,5,,,52,85
82912,note_off,,,,,64,0,13,,,,,5,,,52,100
82940,program_change,,,,,248,0,8,,,,,0,40,,,
82944,note_on,,,,,256,0,11,,,,,3,,,73,85
82944,note_on,,,,,32,0,13,,,,,5,,,45,85
82944,note_on,,,,,256,0,10,,,,,2,,,81,75
82944,note_on,,,,,256,0,15,,,,,7,,,64,100
82944,note_on,,,,,0,0,15,,,,,7,,,69,100
82944,note_on,,,,,256,0,14,,,,,6,,,33,85
82944,note_on,,,,,256,0,12,,,,,4,,,61,85
82944,note_on,,,,,0,0,12,,,,,4,,,64,85
82944,set_tempo,,,,,82944,1,0,,555555,,,,,,,
82944,note_on,,,,,256,0,16,,,,,7,,,45,100
82944,note_on,,,,,4,0,8,,,,,0,,,69,85
82948,note_on,,,,,256,0,9,,,,,1,,,73,75
83008,note_off,,,,,64,0,8,,,,,0,,,69,100
83040,note_on,,,,,32,0,8,,,,,0,,,71,85
83104,note_off,,,,,64,0,8,,,,,0,,,71,100
83136,note_on,,,,,32,0,8,,,,,0,,,69,85
83200,note_off,,,,,256,0,12,,,,,4,,,61,100
83200,note_off,,,,,256,0,10,,,,,2,,,81,100
83200,note_off,,,,,256,0,13,,,,,5,,,45,100
83200,note_off,,,,,0,0,12,,,,,4,,,64,100
83200,note_off,,,,,0,0,15,,,,,7,,,69,100
83200,note_off,,,,,256,0,15,,,,,7,,,64,100
83200,note_off,,,,,256,0,11,,,,,3,,,73,100
83200,note_off,,,,,256,0,14,,,,,6,,,33,100
83200,note_off,,,,,256,0,16,,,,,7,,,45,100
83200,note_off,,,,,64,0,8,,,,,0,,,69,100
83204,note_off,,,,,256,0,9,,,,,1,,,73,100
83232,note_on,,,,,32,0,8,,,,,0,,,71,85
83296,note_off,,,,,64,0,8,,,,,0,,,71,100
83328,note_on,,,,,32,0,8,,,,,0,,,69,85
83328,program_change,,,,,128,0,13,,,,,5,48,,,
83392,note_off,,,,,64,0,8,,,,,0,,,69,100
83424,note_on,,,,,32,0,8,,,,,0,,,71,85
83488,note_off,,,,,64,0,8,,,,,0,,,71,100
83520,note_on,,,,,32,0,8,,,,,0,,,69,85
83584,note_off,,,,,64,0,8,,,,,0,,,69,100
83616,note_on,,,,,32,0,8,,,,,0,,,71,85
83680,note_off,,,,,64,0,8,,,,,0,,,71,100
83712,note_on,,,,,384,0,13,,,,,5,,,57,85
83712,note_on,,,,,32,0,8,,,,,0,,,69,85
83712,note_on,,,,,0,0,15,,,,,7,,,64,100
83712,note_on,,,,,512,0,15,,,,,7,,,61,100
83712,note_on,,,,,512,0,16,,,,,7,,,57,100
83712,note_on,,,,,512,0,14,,,,,6,,,45,85
83776,note_off,,,,,64,0,8,,,,,0,,,69,100
83808,note_on,,,,,32,0,8,,,,,0,,,68,85
83872,note_off,,,,,64,0,8,,,,,0,,,68,100
83904,note_on,,,,,32,0,8,,,,,0,,,69,85
83968,note_off,,,,,256,0,13,,,,,5,,,57,100
83968,note_off,,,,,256,0,16,,,,,7,,,57,100
83968,note_off,,,,,64,0,8,,,,,0,,,69,100
83968,note_off,,,,,256,0,14,,,,,6,,,45,100
83968,note_off,,,,,256,0,15,,,,,7,,,61,100
83968,note_off,,,,,0,0,15,,,,,7,,,64,100
84000,note_on,,,,,32,0,8,,,,,0,,,71,85
84064,note_off,,,,,64,0,8,,,,,0,,,71,100
84096,note_on,,,,,32,0,8,,,,,0,,,69,85
84160,note_off,,,,,64,0,8,,,,,0,,,69,100
84192,note_on,,,,,32,0,8,,,,,0,,,71,85
84256,note_off,,,,,64,0,8,,,,,0,,,71,100
84288,note_on,,,,,32,0,8,,,,,0,,,68,85
84352,note_off,,,,,64,0,8,,,,,0,,,68,100
84384,note_on,,,,,32,0,8,,,,,0,,,69,85
84448,note_off,,,,,64,0,8,,,,,0,,,69,100
84480,note_on,,,,,0,0,15,,,,,7,,,59,100
84480,note_on,,,,,512,0,15,,,,,7,,,64,100
84480,note_on,,,,,512,0,14,,,,,6,,,44,85
84480,note_on,,,,,512,0,16,,,,,7,,,56,100
84480,note_on,,,,,32,0,8,,,,,0,,,71,85
84480,note_on,,,,,512,0,13,,,,,5,,,56,85
84544,note_off,,,,,64,0,8,,,,,0,,,71,100
84544,set_tempo,,,,,1600,1,0,,550458,,,,,,,
84576,note_on,,,,,32,0,8,,,,,0,,,73,85
84640,note_off,,,,,64,0,8,,,,,0,,,73,100
84672,note_on,,,,,32,0,8,,,,,0,,,71,85
84736,note_off,,,,,256,0,16,,,,,7,,,56,100
84736,note_off,,,,,256,0,14,,,,,6,,,44,100
84736,note_off,,,,,256,0,13,,,,,5,,,56,100
84736,note_off,,,,,64,0,8,,,,,0,,,71,100
84736,note_off,,,,,256,0,15,,,,,7,,,64,100
84736,note_off,,,,,0,0,15,,,,,7,,,59,100
84768,note_on,,,,,32,0,8,,,,,0,,,73,85
84832,note_off,,,,,64,0,8,,,,,0,,,73,100
84864,note_on,,,,,32,0,8,,,,,0,,,71,85
84928,note_off,,,,,64,0,8,,,,,0,,,71,100
84960,note_on,,,,,32,0,8,,,,,0,,,73,85
85024,note_off,,,,,64,0,8,,,,,0,,,73,100
85056,note_on,,,,,32,0,8,,,,,0,,,71,85
85120,note_off,,,,,64,0,8,,,,,0,,,71,100
85152,note_on,,,,,32,0,8,,,,,0,,,73,85
85216,note_off,,,,,64,0,8,,,,,0,,,73,100
85248,note_on,,,,,32,0,8,,,,,0,,,71,85
85248,note_on,,,,,0,0,15,,,,,7,,,64,100
85248,note_on,,,,,512,0,16,,,,,7,,,52,100
85248,note_on,,,,,512,0,15,,,,,7,,,56,100
85248,note_on,,,,,512,0,13,,,,,5,,,52,85
85248,note_on,,,,,512,0,14,,,,,6,,,40,85
85312,note_off,,,,,64,0,8,,,,,0,,,71,100
85344,note_on,,,,,32,0,8,,,,,0,,,69,85
85408,note_off,,,,,64,0,8,,,,,0,,,69,100
85440,note_on,,,,,32,0,8,,,,,0,,,71,85
85504,note_off,,,,,0,0,15,,,,,7,,,64,100
85504,note_off,,,,,256,0,15,,,,,7,,,56,100
85504,note_off,,,,,256,0,16,,,,,7,,,52,100
85504,note_off,,,,,256,0,13,,,,,5,,,52,100
85504,note_off,,,,,64,0,8,,,,,0,,,71,100
85504,note_off,,,,,256,0,14,,,,,6,,,40,100
85536,note_on,,,,,32,0,8,,,,,0,,,73,85
85600,note_off,,,,,64,0,8,,,,,0,,,73,100
85632,note_on,,,,,32,0,8,,,,,0,,,71,85
85696,note_off,,,,,64,0,8,,,,,0,,,71,100
85728,note_on,,,,,32,0,8,,,,,0,,,73,85
85792,note_off,,,,,64,0,8,,,,,0,,,73,100
85824,note_on,,,,,32,0,8,,,,,0,,,69,85
85888,note_off,,,,,64,0,8,,,,,0,,,69,100
85920,note_on,,,,,32,0,8,,,,,0,,,71,85
85984,note_off,,,,,64,0,8,,,,,0,,,71,100
86012,program_change,,,,,2808,0,9,,,,,1,40,,,
86016,note_on,,,,,512,0,14,,,,,6,,,33,85
86016,note_on,,,,,512,0,15,,,,,7,,,64,100
86016,note_on,,,,,4,0,9,,,,,1,,,69,85
86016,note_on,,,,,512,0,16,,,,,7,,,45,100
86016,note_on,,,,,512,0,13,,,,,5,,,45,85
86016,note_on,,,,,0,0,15,,,,,7,,,61,100
86016,note_on,,,,,32,0,8,,,,,0,,,73,85
86080,note_off,,,,,64,0,9,,,,,1,,,69,100
86080,note_off,,,,,64,0,8,,,,,0,,,73,100
86112,note_on,,,,,32,0,9,,,,,1,,,71,85
86112,note_on,,,,,32,0,8,,,,,0,,,74,85
86144,set_tempo,,,,,1600,1,0,,545454,,,,,,,
86176,note_off,,,,,64,0,8,,,,,0,,,74,100
86176,note_off,,,,,64,0,9,,,,,1,,,71,100
86208,note_on,,,,,32,0,8,,,,,0,,,73,85
86208,note_on,,,,,32,0,9,,,,,1,,,69,85
86272,note_off,,,,,64,0,9,,,,,1,,,69,100
86272,note_off,,,,,64,0,8,,,,,0,,,73,100
86272,note_off,,,,,256,0,16,,,,,7,,,45,100
86272,note_off,,,,,256,0,15,,,,,7,,,64,100
86272,note_off,,,,,0,0,15,,,,,7,,,61,100
86272,note_off,,,,,256,0,14,,,,,6,,,33,100
86272,note_off,,,,,256,0,13,,,,,5,,,45,100
86304,note_on,,,,,32,0,9,,,,,1,,,71,85
86304,note_on,,,,,32,0,8,,,,,0,,,74,85
86368,note_off,,,,,64,0,9,,,,,1,,,71,100
86368,note_off,,,,,64,0,8,,,,,0,,,74,100
86400,note_on,,,,,32,0,8,,,,,0,,,73,85
86400,note_on,,,,,32,0,9,,,,,1,,,69,85
86464,note_off,,,,,64,0,9,,,,,1,,,69,100
86464,note_off,,,,,64,0,8,,,,,0,,,73,100
86496,note_on,,,,,32,0,9,,,,,1,,,71,85
86496,note_on,,,,,32,0,8,,,,,0,,,74,85
86560,note_off,,,,,64,0,9,,,,,1,,,71,100
86560,note_off,,,,,64,0,8,,,,,0,,,74,100
86592,note_on,,,,,32,0,9,,,,,1,,,69,85
86592,note_on,,,,,32,0,8,,,,,0,,,73,85
86656,note_off,,,,,64,0,9,,,,,1,,,69,100
86656,note_off,,,,,64,0,8,,,,,0,,,73,100
86688,note_on,,,,,32,0,8,,,,,0,,,74,85
86688,note_on,,,,,32,0,9,,,,,1,,,71,85
86752,note_off,,,,,64,0,9,,,,,1,,,71,100
86752,note_off,,,,,64,0,8,,,,,0,,,74,100
86784,note_on,,,,,32,0,9,,,,,1,,,69,85
86784,note_on,,,,,32,0,8,,,,,0,,,73,85
86784,note_on,,,,,0,0,15,,,,,7,,,64,100
86784,note_on,,,,,512,0,15,,,,,7,,,69,100
86784,note_on,,,,,512,0,13,,,,,5,,,61,85
86784,note_on,,,,,512,0,16,,,,,7,,,61,100
86784,note_on,,,,,512,0,14,,,,,6,,,49,85
86848,note_off,,,,,64,0,9,,,,,1,,,69,100
86848,note_off,,,,,64,0,8,,,,,0,,,73,100
86880,note_on,,,,,32,0,9,,,,,1,,,68,85
86880,note_on,,,,,32,0,8,,,,,0,,,71,85
86944,note_off,,,,,64,0,9,,,,,1,,,68,100
86944,note_off,,,,,64,0,8,,,,,0,,,71,100
86976,note_on,,,,,32,0,9,,,,,1,,,69,85
86976,note_on,,,,,32,0,8,,,,,0,,,73,85
87040,note_off,,,,,64,0,8,,,,,0,,,73,100
87040,note_off,,,,,256,0,13,,,,,5,,,61,100
87040,note_off,,,,,256,0,15,,,,,7,,,69,100
87040,note_off,,,,,0,0,15,,,,,7,,,64,100
87040,note_off,,,,,64,0,9,,,,,1,,,69,100
87040,note_off,,,,,256,0,14,,,,,6,,,49,100
87040,note_off,,,,,256,0,16,,,,,7,,,61,100
87072,note_on,,,,,32,0,8,,,,,0,,,74,85
87072,note_on,,,,,32,0,9,,,,,1,,,71,85
87136,note_off,,,,,64,0,8,,,,,0,,,74,100
87136,note_off,,,,,64,0,9,,,,,1,,,71,100
87168,note_on,,,,,32,0,8,,,,,0,,,73,85
87168,note_on,,,,,32,0,9,,,,,1,,,69,85
87232,note_off,,,,,64,0,9,,,,,1,,,69,100
87232,note_off,,,,,64,0,8,,,,,0,,,73,100
87264,note_on,,,,,32,0,9,,,,,1,,,71,85
87264,note_on,,,,,32,0,8,,,,,0,,,74,85
87328,note_off,,,,,64,0,9,,,,,1,,,71,100
87328,note_off,,,,,64,0,8,,,,,0,,,74,100
87360,note_on,,,,,32,0,9,,,,,1,,,68,85
87360,note_on,,,,,32,0,8,,,,,0,,,71,85
87424,note_off,,,,,64,0,9,,,,,1,,,68,100
87424,note_off,,,,,64,0,8,,,,,0,,,71,100
87456,note_on,,,,,32,0,9,,,,,1,,,69,85
87456,note_on,,,,,32,0,8,,,,,0,,,73,85
87520,note_off,,,,,64,0,9,,,,,1,,,69,100
87520,note_off,,,,,64,0,8,,,,,0,,,73,100
87552,note_on,,,,,512,0,13,,,,,5,,,59,85
87552,note_on,,,,,512,0,16,,,,,7,,,59,100
87552,note_on,,,,,512,0,14,,,,,6,,,47,85
87552,note_on,,,,,32,0,8,,,,,0,,,74,85
87552,note_on,,,,,32,0,9,,,,,1,,,71,85
87552,note_on,,,,,0,0,15,,,,,7,,,62,100
87552,note_on,,,,,512,0,15,,,,,7,,,66,100
87616,note_off,,,,,64,0,9,,,,,1,,,71,100
87616,note_off,,,,,64,0,8,,,,,0,,,74,100
87648,note_on,,,,,32,0,9,,,,,1,,,73,85
87648,note_on,,,,,32,0,8,,,,,0,,,76,85
87712,note_off,,,,,64,0,9,,,,,1,,,73,100
87712,note_off,,,,,64,0,8,,,,,0,,,76,100
87744,set_tempo,,,,,1600,1,0,,540540,,,,,,,
87744,note_on,,,,,32,0,8,,,,,0,,,74,85
87744,note_on,,,,,32,0,9,,,,,1,,,71,85
87808,note_off,,,,,256,0,15,,,,,7,,,66,100
87808,note_off,,,,,64,0,9,,,,,1,,,71,100
87808,note_off,,,,,256,0,13,,,,,5,,,59,100
87808,note_off,,,,,256,0,16,,,,,7,,,59,100
87808,note_off,,,,,0,0,15,,,,,7,,,62,100
87808,note_off,,,,,64,0,8,,,,,0,,,74,100
87808,note_off,,,,,256,0,14,,,,,6,,,47,100
87840,note_on,,,,,32,0,8,,,,,0,,,76,85
87840,note_on,,,,,32,0,9,,,,,1,,,73,85
87904,note_off,,,,,64,0,9,,,,,1,,,73,100
87904,note_off,,,,,64,0,8,,,,,0,,,76,100
87936,note_on,,,,,32,0,9,,,,,1,,,71,85
87936,note_on,,,,,32,0,8,,,,,0,,,74,85
88000,note_off,,,,,64,0,9,,,,,1,,,71,100
88000,note_off,,,,,64,0,8,,,,,0,,,74,100
88032,note_on,,,,,32,0,8,,,,,0,,,76,85
88032,note_on,,,,,32,0,9,,,,,1,,,73,85
88096,note_off,,,,,64,0,9,,,,,1,,,73,100
88096,note_off,,,,,64,0,8,,,,,0,,,76,100
88128,note_on,,,,,32,0,9,,,,,1,,,71,85
88128,note_on,,,,,32,0,8,,,,,0,,,74,85
88192,note_off,,,,,64,0,8,,,,,0,,,74,100
88192,note_off,,,,,64,0,9,,,,,1,,,71,100
88224,note_on,,,,,32,0,9,,,,,1,,,73,85
88224,note_on,,,,,32,0,8,,,,,0,,,76,85
88288,note_off,,,,,64,0,8,,,,,0,,,76,100
88288,note_off,,,,,64,0,9,,,,,1,,,73,100
88320,note_on,,,,,512,0,16,,,,,7,,,52,100
88320,note_on,,,,,512,0,15,,,,,7,,,68,100
88320,note_on,,,,,0,0,15,,,,,7,,,62,100
88320,note_on,,,,,512,0,14,,,,,6,,,40,85
88320,note_on,,,,,32,0,8,,,,,0,,,74,85
88320,note_on,,,,,32,0,9,,,,,1,,,71,85
88320,note_on,,,,,512,0,13,,,,,5,,,52,85
88384,note_off,,,,,64,0,8,,,,,0,,,74,100
88384,note_off,,,,,64,0,9,,,,,1,,,71,100
88416,note_on,,,,,32,0,9,,,,,1,,,69,85
88416,note_on,,,,,32,0,8,,,,,0,,,73,85
88480,note_off,,,,,64,0,8,,,,,0,,,73,100
88480,note_off,,,,,64,0,9,,,,,1,,,69,100
88512,note_on,,,,,32,0,8,,,,,0,,,74,85
88512,note_on,,,,,32,0,9,,,,,1,,,71,85
88576,note_off,,,,,64,0,9,,,,,1,,,71,100
88576,note_off,,,,,256,0,14,,,,,6,,,40,100
88576,note_off,,,,,256,0,16,,,,,7,,,52,100
88576,note_off,,,,,256,0,13,,,,,5,,,52,100
88576,note_off,,,,,256,0,15,,,,,7,,,68,100
88576,note_off,,,,,0,0,15,,,,,7,,,62,100
88576,note_off,,,,,64,0,8,,,,,0,,,74,100
88608,note_on,,,,,32,0,8,,,,,0,,,76,85
88608,note_on,,,,,32,0,9,,,,,1,,,73,85
88672,note_off,,,,,64,0,8,,,,,0,,,76,100
88672,note_off,,,,,64,0,9,,,,,1,,,73,100
88704,note_on,,,,,32,0,9,,,,,1,,,71,85
88704,note_on,,,,,32,0,8,,,,,0,,,74,85
88768,note_off,,,,,64,0,9,,,,,1,,,71,100
88768,note_off,,,,,64,0,8,,,,,0,,,74,100
88800,note_on,,,,,32,0,9,,,,,1,,,73,85
88800,note_on,,,,,32,0,8,,,,,0,,,76,85
88864,note_off,,,,,64,0,9,,,,,1,,,73,100
88864,note_off,,,,,64,0,8,,,,,0,,,76,100
88896,note_on,,,,,32,0,8,,,,,0,,,73,85
88896,note_on,,,,,32,0,9,,,,,1,,,69,85
88960,note_off,,,,,64,0,9,,,,,1,,,69,100
88960,note_off,,,,,64,0,8,,,,,0,,,73,100
88992,note_on,,,,,32,0,9,,,,,1,,,71,85
88992,note_on,,,,,32,0,8,,,,,0,,,74,85
89056,note_off,,,,,64,0,8,,,,,0,,,74,100
89056,note_off,,,,,64,0,9,,,,,1,,,71,100
89088,note_on,,,,,0,0,15,,,,,7,,,61,100
89088,note_on,,,,,512,0,15,,,,,7,,,64,100
89088,note_on,,,,,512,0,14,,,,,6,,,33,85
89088,note_on,,,,,512,0,13,,,,,5,,,45,85
89088,note_on,,,,,32,0,9,,,,,1,,,73,85
89088,note_on,,,,,32,0,8,,,,,0,,,76,85
89088,note_on,,,,,512,0,16,,,,,7,,,45,100
89180,note_off,,,,,92,0,9,,,,,1,,,73,100
89180,note_off,,,,,92,0,8,,,,,0,,,76,100
89184,note_on,,,,,4,0,8,,,,,0,,,74,85
89184,note_on,,,,,4,0,9,,,,,1,,,71,85
89276,note_off,,,,,92,0,9,,,,,1,,,71,100
89276,note_off,,,,,92,0,8,,,,,0,,,74,100
89280,note_on,,,,,4,0,9,,,,,1,,,69,85
89280,note_on,,,,,4,0,8,,,,,0,,,73,85
89344,note_off,,,,,256,0,16,,,,,7,,,45,100
89344,note_off,,,,,64,0,9,,,,,1,,,69,100
89344,note_off,,,,,256,0,13,,,,,5,,,45,100
89344,note_off,,,,,0,0,15,,,,,7,,,61,100
89344,note_off,,,,,256,0,15,,,,,7,,,64,100
89344,set_tempo,,,,,1600,1,0,,535714,,,,,,,
89344,note_off,,,,,64,0,8,,,,,0,,,73,100
89344,note_off,,,,,256,0,14,,,,,6,,,33,100
89376,note_on,,,,,32,0,8,,,,,0,,,74,85
89376,note_on,,,,,32,0,9,,,,,1,,,71,85
89440,note_off,,,,,64,0,9,,,,,1,,,71,100
89440,note_off,,,,,64,0,8,,,,,0,,,74,100
89472,note_on,,,,,32,0,9,,,,,1,,,73,85
89472,note_on,,,,,32,0,8,,,,,0,,,76,85
89564,note_off,,,,,92,0,9,,,,,1,,,73,100
89564,note_off,,,,,92,0,8,,,,,0,,,76,100
89568,note_on,,,,,4,0,8,,,,,0,,,74,85
89568,note_on,,,,,4,0,9,,,,,1,,,71,85
89660,note_off,,,,,92,0,9,,,,,1,,,71,100
89660,note_off,,,,,92,0,8,,,,,0,,,74,100
89664,note_on,,,,,4,0,9,,,,,1,,,69,85
89664,note_on,,,,,4,0,8,,,,,0,,,73,85
89728,note_off,,,,,64,0,9,,,,,1,,,69,100
89728,note_off,,,,,64,0,8,,,,,0,,,73,100
89760,note_on,,,,,32,0,8,,,,,0,,,74,85
89760,note_on,,,,,32,0,9,,,,,1,,,71,85
89824,note_off,,,,,64,0,8,,,,,0,,,74,100
89824,note_off,,,,,64,0,9,,,,,1,,,71,100
89856,note_on,,,,,32,0,9,,,,,1,,,73,85
89856,note_on,,,,,32,0,8,,,,,0,,,76,85
89856,note_on,,,,,0,0,15,,,,,7,,,64,100
89856,note_on,,,,,512,0,13,,,,,5,,,57,85
89856,note_on,,,,,512,0,16,,,,,7,,,57,100
89856,note_on,,,,,512,0,15,,,,,7,,,69,100
89856,note_on,,,,,512,0,14,,,,,6,,,45,85
89948,note_off,,,,,92,0,8,,,,,0,,,76,100
89948,note_off,,,,,92,0,9,,,,,1,,,73,100
89952,note_on,,,,,4,0,8,,,,,0,,,74,85
89952,note_on,,,,,4,0,9,,,,,1,,,71,85
90044,note_off,,,,,92,0,8,,,,,0,,,74,100
90044,note_off,,,,,92,0,9,,,,,1,,,71,100
90048,note_on,,,,,4,0,8,,,,,0,,,73,85
90048,note_on,,,,,4,0,9,,,,,1,,,69,85
90112,note_off,,,,,256,0,13,,,,,5,,,57,100
90112,note_off,,,,,256,0,16,,,,,7,,,57,100
90112,note_off,,,,,256,0,14,,,,,6,,,45,100
90112,note_off,,,,,64,0,9,,,,,1,,,69,100
90112,note_off,,,,,64,0,8,,,,,0,,,73,100
90112,note_off,,,,,0,0,15,,,,,7,,,64,100
90112,note_off,,,,,256,0,15,,,,,7,,,69,100
90144,note_on,,,,,32,0,9,,,,,1,,,71,85
90144,note_on,,,,,32,0,8,,,,,0,,,74,85
90208,note_off,,,,,64,0,9,,,,,1,,,71,100
90208,note_off,,,,,64,0,8,,,,,0,,,74,100
90240,note_on,,,,,32,0,9,,,,,1,,,73,85
90240,note_on,,,,,32,0,8,,,,,0,,,76,85
90304,note_off,,,,,64,0,9,,,,,1,,,73,100
90304,note_off,,,,,64,0,8,,,,,0,,,76,100
90336,note_on,,,,,32,0,8,,,,,0,,,78,85
90336,note_on,,,,,32,0,9,,,,,1,,,74,85
90400,note_off,,,,,64,0,8,,,,,0,,,78,100
90400,note_off,,,,,64,0,9,,,,,1,,,74,100
90432,note_on,,,,,32,0,8,,,,,0,,,76,85
90432,note_on,,,,,32,0,9,,,,,1,,,73,85
90496,note_off,,,,,64,0,9,,,,,1,,,73,100
90496,note_off,,,,,64,0,8,,,,,0,,,76,100
90528,note_on,,,,,32,0,9,,,,,1,,,74,85
90528,note_on,,,,,32,0,8,,,,,0,,,78,85
90592,note_off,,,,,64,0,8,,,,,0,,,78,100
90592,note_off,,,,,64,0,9,,,,,1,,,74,100
90624,note_on,,,,,0,0,15,,,,,7,,,62,100
90624,note_on,,,,,512,0,13,,,,,5,,,59,85
90624,note_on,,,,,32,0,9,,,,,1,,,71,85
90624,note_on,,,,,512,0,14,,,,,6,,,47,85
90624,note_on,,,,,512,0,16,,,,,7,,,59,100
90624,note_on,,,,,512,0,15,,,,,7,,,66,100
90624,note_on,,,,,32,0,8,,,,,0,,,74,85
90716,note_off,,,,,92,0,9,,,,,1,,,71,100
90716,note_off,,,,,92,0,8,,,,,0,,,74,100
90720,note_on,,,,,4,0,9,,,,,1,,,69,85
90720,note_on,,,,,4,0,8,,,,,0,,,73,85
90812,note_off,,,,,92,0,9,,,,,1,,,69,100
90812,note_off,,,,,92,0,8,,,,,0,,,73,100
90816,note_on,,,,,4,0,8,,,,,0,,,71,85
90816,note_on,,,,,4,0,9,,,,,1,,,68,85
90880,note_off,,,,,64,0,9,,,,,1,,,68,100
90880,note_off,,,,,256,0,15,,,,,7,,,66,100
90880,note_off,,,,,256,0,14,,,,,6,,,47,100
90880,note_off,,,,,256,0,13,,,,,5,,,59,100
90880,note_off,,,,,0,0,15,,,,,7,,,62,100
90880,note_off,,,,,256,0,16,,,,,7,,,59,100
90880,note_off,,,,,64,0,8,,,,,0,,,71,100
90912,note_on,,,,,32,0,8,,,,,0,,,73,85
90912,note_on,,,,,32,0,9,,,,,1,,,69,85
90944,set_tempo,,,,,1600,1,0,,530973,,,,,,,
90976,note_off,,,,,64,0,9,,,,,1,,,69,100
90976,note_off,,,,,64,0,8,,,,,0,,,73,100
91008,note_on,,,,,32,0,9,,,,,1,,,71,85
91008,note_on,,,,,32,0,8,,,,,0,,,74,85
91100,note_off,,,,,92,0,8,,,,,0,,,74,100
91100,note_off,,,,,92,0,9,,,,,1,,,71,100
91104,note_on,,,,,4,0,9,,,,,1,,,69,85
91104,note_on,,,,,4,0,8,,,,,0,,,73,85
91196,note_off,,,,,92,0,8,,,,,0,,,73,100
91196,note_off,,,,,92,0,9,,,,,1,,,69,100
91200,note_on,,,,,4,0,8,,,,,0,,,71,85
91200,note_on,,,,,4,0,9,,,,,1,,,68,85
91264,note_off,,,,,64,0,8,,,,,0,,,71,100
91264,note_off,,,,,64,0,9,,,,,1,,,68,100
91296,note_on,,,,,32,0,8,,,,,0,,,73,85
91296,note_on,,,,,32,0,9,,,,,1,,,69,85
91360,note_off,,,,,64,0,8,,,,,0,,,73,100
91360,note_off,,,,,64,0,9,,,,,1,,,69,100
91392,note_on,,,,,0,0,15,,,,,7,,,68,100
91392,note_on,,,,,32,0,9,,,,,1,,,71,85
91392,note_on,,,,,32,0,8,,,,,0,,,74,85
91392,note_on,,,,,512,0,13,,,,,5,,,52,85
91392,note_on,,,,,512,0,16,,,,,7,,,52,100
91392,note_on,,,,,512,0,14,,,,,6,,,40,85
91392,note_on,,,,,512,0,15,,,,,7,,,59,100
91484,note_off,,,,,92,0,8,,,,,0,,,74,100
91484,note_off,,,,,92,0,9,,,,,1,,,71,100
91488,note_on,,,,,4,0,8,,,,,0,,,73,85
91488,note_on,,,,,4,0,9,,,,,1,,,69,85
91580,note_off,,,,,92,0,9,,,,,1,,,69,100
91580,note_off,,,,,92,0,8,,,,,0,,,73,100
91584,note_on,,,,,4,0,9,,,,,1,,,68,85
91584,note_on,,,,,4,0,8,,,,,0,,,71,85
91648,note_off,,,,,256,0,14,,,,,6,,,40,100
91648,note_off,,,,,256,0,15,,,,,7,,,59,100
91648,note_off,,,,,64,0,9,,,,,1,,,68,100
91648,note_off,,,,,64,0,8,,,,,0,,,71,100
91648,note_off,,,,,0,0,15,,,,,7,,,68,100
91648,note_off,,,,,256,0,13,,,,,5,,,52,100
91648,note_off,,,,,256,0,16,,,,,7,,,52,100
91680,note_on,,,,,32,0,9,,,,,1,,,69,85
91680,note_on,,,,,32,0,8,,,,,0,,,73,85
91744,note_off,,,,,64,0,8,,,,,0,,,73,100
91744,note_off,,,,,64,0,9,,,,,1,,,69,100
91776,note_on,,,,,32,0,9,,,,,1,,,71,85
91776,note_on,,,,,32,0,8,,,,,0,,,74,85
91840,note_off,,,,,64,0,8,,,,,0,,,74,100
91840,note_off,,,,,64,0,9,,,,,1,,,71,100
91872,note_on,,,,,32,0,8,,,,,0,,,76,85
91872,note_on,,,,,32,0,9,,,,,1,,,73,85
91936,note_off,,,,,64,0,8,,,,,0,,,76,100
91936,note_off,,,,,64,0,9,,,,,1,,,73,100
91968,note_on,,,,,32,0,9,,,,,1,,,71,85
91968,note_on,,,,,32,0,8,,,,,0,,,74,85
92032,note_off,,,,,64,0,8,,,,,0,,,74,100
92032,note_off,,,,,64,0,9,,,,,1,,,71,100
92064,note_on,,,,,32,0,9,,,,,1,,,73,85
92064,note_on,,,,,32,0,8,,,,,0,,,76,85
92128,note_off,,,,,64,0,8,,,,,0,,,76,100
92128,note_off,,,,,64,0,9,,,,,1,,,73,100
92156,program_change,,,,,8956,0,10,,,,,2,40,,,
92156,program_change,,,,,8956,0,11,,,,,3,40,,,
92160,note_on,,,,,512,0,13,,,,,5,,,45,70
92160,note_on,,,,,512,0,16,,,,,7,,,45,100
92160,note_on,,,,,32,0,9,,,,,1,,,69,85
92160,note_on,,,,,32,0,8,,,,,0,,,73,85
92160,note_on,,,,,4,0,11,,,,,3,,,73,70
92160,note_on,,,,,512,0,14,,,,,6,,,33,70
92160,note_on,,,,,512,0,15,,,,,7,,,64,100
92160,note_on,,,,,4,0,10,,,,,2,,,76,70
92160,note_on,,,,,0,0,15,,,,,7,,,61,100
92252,note_off,,,,,92,0,10,,,,,2,,,76,100
92252,note_off,,,,,92,0,11,,,,,3,,,73,100
92256,note_on,,,,,4,0,11,,,,,3,,,71,70
92256,note_on,,,,,4,0,10,,,,,2,,,74,70
92348,note_off,,,,,92,0,10,,,,,2,,,74,100
92348,note_off,,,,,92,0,11,,,,,3,,,71,100
92352,note_on,,,,,4,0,10,,,,,2,,,73,70
92352,note_on,,,,,4,0,11,,,,,3,,,69,70
92416,note_off,,,,,256,0,13,,,,,5,,,45,100
92416,note_off,,,,,64,0,10,,,,,2,,,73,100
92416,note_off,,,,,64,0,11,,,,,3,,,69,100
92416,note_off,,,,,256,0,16,,,,,7,,,45,100
92416,note_off,,,,,256,0,8,,,,,0,,,73,100
92416,note_off,,,,,256,0,14,,,,,6,,,33,100
92416,note_off,,,,,256,0,9,,,,,1,,,69,100
92416,note_off,,,,,256,0,15,,,,,7,,,64,100
92416,note_off,,,,,0,0,15,,,,,7,,,61,100
92448,note_on,,,,,32,0,10,,,,,2,,,74,70
92448,note_on,,,,,32,0,11,,,,,3,,,71,70
92512,note_off,,,,,64,0,11,,,,,3,,,71,100
92512,note_off,,,,,64,0,10,,,,,2,,,74,100
92544,note_on,,,,,32,0,11,,,,,3,,,73,70
92544,note_on,,,,,32,0,10,,,,,2,,,76,70
92636,note_off,,,,,92,0,11,,,,,3,,,73,100
92636,note_off,,,,,92,0,10,,,,,2,,,76,100
92640,note_on,,,,,4,0,10,,,,,2,,,74,70
92640,note_on,,,,,4,0,11,,,,,3,,,71,70
92732,note_off,,,,,92,0,11,,,,,3,,,71,100
92732,note_off,,,,,92,0,10,,,,,2,,,74,100
92736,note_on,,,,,4,0,10,,,,,2,,,73,70
92736,note_on,,,,,4,0,11,,,,,3,,,69,70
92800,note_off,,,,,64,0,11,,,,,3,,,69,100
92800,note_off,,,,,64,0,10,,,,,2,,,73,100
92832,note_on,,,,,32,0,11,,,,,3,,,71,70
92832,note_on,,,,,32,0,10,,,,,2,,,74,70
92896,note_off,,,,,64,0,10,,,,,2,,,74,100
92896,note_off,,,,,64,0,11,,,,,3,,,71,100
92928,note_on,,,,,32,0,10,,,,,2,,,76,70
92928,note_on,,,,,0,0,15,,,,,7,,,69,100
92928,note_on,,,,,512,0,15,,,,,7,,,64,100
92928,note_on,,,,,512,0,13,,,,,5,,,57,70
92928,note_on,,,,,512,0,14,,,,,6,,,45,70
92928,note_on,,,,,512,0,16,,,,,7,,,57,100
92928,note_on,,,,,32,0,11,,,,,3,,,73,70
93020,note_off,,,,,92,0,10,,,,,2,,,76,100
93020,note_off,,,,,92,0,11,,,,,3,,,73,100
93024,note_on,,,,,4,0,10,,,,,2,,,74,70
93024,note_on,,,,,4,0,11,,,,,3,,,71,70
93116,note_off,,,,,92,0,10,,,,,2,,,74,100
93116,note_off,,,,,92,0,11,,,,,3,,,71,100
93120,note_on,,,,,4,0,10,,,,,2,,,73,70
93120,note_on,,,,,4,0,11,,,,,3,,,69,70
93184,note_off,,,,,256,0,13,,,,,5,,,57,100
93184,note_off,,,,,256,0,14,,,,,6,,,45,100
93184,note_off,,,,,256,0,15,,,,,7,,,64,100
93184,note_off,,,,,64,0,11,,,,,3,,,69,100
93184,note_off,,,,,256,0,16,,,,,7,,,57,100
93184,note_off,,,,,64,0,10,,,,,2,,,73,100
93184,note_off,,,,,0,0,15,,,,,7,,,69,100
93216,note_on,,,,,32,0,10,,,,,2,,,74,70
93216,note_on,,,,,32,0,11,,,,,3,,,71,70
93280,note_off,,,,,64,0,10,,,,,2,,,74,100
93280,note_off,,,,,64,0,11,,,,,3,,,71,100
93312,note_on,,,,,32,0,11,,,,,3,,,73,70
93312,note_on,,,,,32,0,10,,,,,2,,,76,70
93376,note_off,,,,,64,0,10,,,,,2,,,76,100
93376,note_off,,,,,64,0,11,,,,,3,,,73,100
93408,note_on,,,,,32,0,11,,,,,3,,,74,70
93408,note_on,,,,,32,0,10,,,,,2,,,78,70
93472,note_off,,,,,64,0,11,,,,,3,,,74,100
93472,note_off,,,,,64,0,10,,,,,2,,,78,100
93504,note_on,,,,,32,0,11,,,,,3,,,73,70
93504,note_on,,,,,32,0,10,,,,,2,,,76,70
93568,note_off,,,,,64,0,11,,,,,3,,,73,100
93568,note_off,,,,,64,0,10,,,,,2,,,76,100
93600,note_on,,,,,32,0,11,,,,,3,,,74,70
93600,note_on,,,,,32,0,10,,,,,2,,,78,70
93664,note_off,,,,,64,0,11,,,,,3,,,74,100
93664,note_off,,,,,64,0,10,,,,,2,,,78,100
93696,note_on,,,,,32,0,10,,,,,2,,,74,60
93696,note_on,,,,,512,0,16,,,,,7,,,59,100
93696,note_on,,,,,512,0,13,,,,,5,,,59,60
93696,note_on,,,,,512,0,15,,,,,7,,,66,100
93696,note_on,,,,,0,0,15,,,,,7,,,62,100
93696,note_on,,,,,512,0,14,,,,,6,,,47,60
93696,note_on,,,,,32,0,11,,,,,3,,,71,60
93788,note_off,,,,,92,0,10,,,,,2,,,74,100
93788,note_off,,,,,92,0,11,,,,,3,,,71,100
93792,note_on,,,,,4,0,10,,,,,2,,,73,60
93792,note_on,,,,,4,0,11,,,,,3,,,69,60
93884,note_off,,,,,92,0,10,,,,,2,,,73,100
93884,note_off,,,,,92,0,11,,,,,3,,,69,100
93888,note_on,,,,,4,0,11,,,,,3,,,68,60
93888,note_on,,,,,4,0,10,,,,,2,,,71,60
93952,note_off,,,,,256,0,16,,,,,7,,,59,100
93952,note_off,,,,,256,0,13,,,,,5,,,59,100
93952,note_off,,,,,64,0,11,,,,,3,,,68,100
93952,note_off,,,,,0,0,15,,,,,7,,,62,100
93952,note_off,,,,,64,0,10,,,,,2,,,71,100
93952,note_off,,,,,256,0,14,,,,,6,,,47,100
93952,note_off,,,,,256,0,15,,,,,7,,,66,100
93984,note_on,,,,,32,0,10,,,,,2,,,73,60
93984,note_on,,,,,32,0,11,,,,,3,,,69,60
94048,note_off,,,,,64,0,11,,,,,3,,,69,100
94048,note_off,,,,,64,0,10,,,,,2,,,73,100
94080,note_on,,,,,32,0,11,,,,,3,,,71,60
94080,note_on,,,,,32,0,10,,,,,2,,,74,60
94092,set_tempo,,,,,3148,1,0,,530973,,,,,,,
94172,note_off,,,,,92,0,11,,,,,3,,,71,100
94172,note_off,,,,,92,0,10,,,,,2,,,74,100
94176,note_on,,,,,4,0,11,,,,,3,,,69,60
94176,note_on,,,,,4,0,10,,,,,2,,,73,60
94268,note_off,,,,,92,0,11,,,,,3,,,69,100
94268,note_off,,,,,92,0,10,,,,,2,,,73,100
94272,note_on,,,,,4,0,10,,,,,2,,,71,60
94272,note_on,,,,,4,0,11,,,,,3,,,68,60
94336,note_off,,,,,64,0,10,,,,,2,,,71,100
94336,note_off,,,,,64,0,11,,,,,3,,,68,100
94368,note_on,,,,,32,0,10,,,,,2,,,73,60
94368,note_on,,,,,32,0,11,,,,,3,,,69,60
94428,set_tempo,,,,,336,1,0,,535714,,,,,,,
94432,note_off,,,,,64,0,11,,,,,3,,,69,100
94432,note_off,,,,,64,0,10,,,,,2,,,73,100
94464,note_on,,,,,0,0,15,,,,,7,,,62,100
94464,note_on,,,,,512,0,15,,,,,7,,,68,100
94464,note_on,,,,,32,0,10,,,,,2,,,74,60
94464,note_on,,,,,512,0,14,,,,,6,,,40,60
94464,note_on,,,,,512,0,13,,,,,5,,,52,60
94464,note_on,,,,,32,0,11,,,,,3,,,71,60
94464,note_on,,,,,512,0,16,,,,,7,,,52,100
94556,note_off,,,,,92,0,11,,,,,3,,,71,100
94556,note_off,,,,,92,0,10,,,,,2,,,74,100
94560,note_on,,,,,4,0,11,,,,,3,,,69,60
94560,note_on,,,,,4,0,10,,,,,2,,,73,60
94652,note_off,,,,,92,0,10,,,,,2,,,73,100
94652,note_off,,,,,92,0,11,,,,,3,,,69,100
94656,note_on,,,,,4,0,10,,,,,2,,,71,60
94656,note_on,,,,,4,0,11,,,,,3,,,68,60
94720,note_off,,,,,64,0,11,,,,,3,,,68,100
94720,note_off,,,,,256,0,16,,,,,7,,,52,100
94720,note_off,,,,,64,0,10,,,,,2,,,71,100
94720,note_off,,,,,0,0,15,,,,,7,,,62,100
94720,note_off,,,,,256,0,13,,,,,5,,,52,100
94720,note_off,,,,,256,0,15,,,,,7,,,68,100
94720,note_off,,,,,256,0,14,,,,,6,,,40,100
94752,note_on,,,,,32,0,11,,,,,3,,,69,60
94752,note_on,,,,,32,0,10,,,,,2,,,73,60
94760,set_tempo,,,,,332,1,0,,540540,,,,,,,
94816,note_off,,,,,64,0,11,,,,,3,,,69,100
94816,note_off,,,,,64,0,10,,,,,2,,,73,100
94848,note_on,,,,,32,0,11,,,,,3,,,71,60
94848,note_on,,,,,32,0,10,,,,,2,,,74,60
94912,note_off,,,,,64,0,10,,,,,2,,,74,100
94912,note_off,,,,,64,0,11,,,,,3,,,71,100
94944,note_on,,,,,32,0,11,,,,,3,,,73,60
94944,note_on,,,,,32,0,10,,,,,2,,,76,60
95008,note_off,,,,,64,0,10,,,,,2,,,76,100
95008,note_off,,,,,64,0,11,,,,,3,,,73,100
95040,note_on,,,,,32,0,11,,,,,3,,,71,60
95040,note_on,,,,,32,0,10,,,,,2,,,74,60
95096,set_tempo,,,,,336,1,0,,545454,,,,,,,
95104,note_off,,,,,64,0,10,,,,,2,,,74,100
95104,note_off,,,,,64,0,11,,,,,3,,,71,100
95136,note_on,,,,,32,0,11,,,,,3,,,73,60
95136,note_on,,,,,32,0,10,,,,,2,,,76,60
95200,note_off,,,,,64,0,10,,,,,2,,,76,100
95200,note_off,,,,,64,0,11,,,,,3,,,73,100
95232,note_on,,,,,512,0,14,,,,,6,,,33,60
95232,note_on,,,,,32,0,11,,,,,3,,,69,60
95232,note_on,,,,,512,0,15,,,,,7,,,69,100
95232,note_on,,,,,0,0,15,,,,,7,,,61,100
95232,note_on,,,,,32,0,10,,,,,2,,,73,60
95232,note_on,,,,,512,0,16,,,,,7,,,45,100
95232,note_on,,,,,512,0,13,,,,,5,,,45,60
95296,program_change,,,,,64,0,11,,,,,3,48,,,
95296,program_change,,,,,2880,0,9,,,,,1,48,,,
95296,program_change,,,,,2880,0,8,,,,,0,48,,,
95296,program_change,,,,,64,0,10,,,,,2,48,,,
95360,note_off,,,,,64,0,10,,,,,2,,,73,100
95424,note_on,,,,,128,0,8,,,,,0,,,76,85
95424,note_on,,,,,64,0,10,,,,,2,,,76,70
95428,set_tempo,,,,,332,1,0,,550458,,,,,,,
95488,note_off,,,,,192,0,11,,,,,3,,,69,100
95488,note_off,,,,,256,0,14,,,,,6,,,33,100
95488,note_off,,,,,256,0,16,,,,,7,,,45,100
95488,note_off,,,,,0,0,15,,,,,7,,,61,100
95488,note_off,,,,,256,0,15,,,,,7,,,69,100
95488,note_off,,,,,256,0,13,,,,,5,,,45,100
95552,note_off,,,,,128,0,10,,,,,2,,,76,100
95552,note_off,,,,,128,0,8,,,,,0,,,76,100
95616,note_on,,,,,64,0,8,,,,,0,,,76,85
95616,note_on,,,,,64,0,10,,,,,2,,,76,70
95744,note_off,,,,,128,0,10,,,,,2,,,76,100
95744,note_off,,,,,128,0,8,,,,,0,,,76,100
95764,set_tempo,,,,,336,1,0,,555555,,,,,,,
95808,note_on,,,,,64,0,10,,,,,2,,,76,70
95808,note_on,,,,,64,0,8,,,,,0,,,76,85
95936,note_off,,,,,128,0,8,,,,,0,,,76,100
95936,note_off,,,,,128,0,10,,,,,2,,,76,100
96000,note_on,,,,,64,0,10,,,,,2,,,81,70
96000,note_on,,,,,64,0,8,,,,,0,,,81,85
96096,set_tempo,,,,,332,1,0,,560747,,,,,,,
96128,note_off,,,,,128,0,10,,,,,2,,,81,100
96128,note_off,,,,,128,0,8,,,,,0,,,81,100
96192,note_on,,,,,704,0,11,,,,,3,,,69,70
96192,note_on,,,,,64,0,8,,,,,0,,,81,85
96192,note_on,,,,,896,0,9,,,,,1,,,69,85
96192,note_on,,,,,64,0,10,,,,,2,,,81,70
96320,note_off,,,,,128,0,11,,,,,3,,,69,100
96320,note_off,,,,,128,0,8,,,,,0,,,81,100
96320,note_off,,,,,128,0,10,,,,,2,,,81,100
96320,note_off,,,,,128,0,9,,,,,1,,,69,100
96384,note_on,,,,,64,0,11,,,,,3,,,69,70
96384,note_on,,,,,64,0,8,,,,,0,,,81,85
96384,note_on,,,,,64,0,9,,,,,1,,,69,85
96384,note_on,,,,,64,0,10,,,,,2,,,81,70
96432,set_tempo,,,,,336,1,0,,566037,,,,,,,
96512,note_off,,,,,128,0,11,,,,,3,,,69,100
96512,note_off,,,,,128,0,9,,,,,1,,,69,100
96512,note_off,,,,,128,0,8,,,,,0,,,81,100
96512,note_off,,,,,128,0,10,,,,,2,,,81,100
96576,note_on,,,,,64,0,10,,,,,2,,,81,70
96576,note_on,,,,,64,0,8,,,,,0,,,81,85
96576,note_on,,,,,64,0,9,,,,,1,,,69,85
96576,note_on,,,,,64,0,11,,,,,3,,,69,70
96704,note_off,,,,,128,0,9,,,,,1,,,69,100
96704,note_off,,,,,128,0,8,,,,,0,,,81,100
96704,note_off,,,,,128,0,10,,,,,2,,,81,100
96704,note_off,,,,,128,0,11,,,,,3,,,69,100
96768,set_tempo,,,,,336,1,0,,555555,,,,,,,
96768,note_on,,,,,64,0,11,,,,,3,,,76,70
96768,note_on,,,,,64,0,9,,,,,1,,,76,85
96768,note_on,,,,,64,0,8,,,,,0,,,81,85
96768,note_on,,,,,64,0,10,,,,,2,,,81,70
96812,note_off,,,,,44,0,10,,,,,2,,,81,100
96812,note_off,,,,,44,0,8,,,,,0,,,81,100
96816,note_on,,,,,4,0,10,,,,,2,,,83,70
96816,note_on,,,,,4,0,8,,,,,0,,,83,85
96832,set_tempo,,,,,64,1,0,,555555,,,,,,,
96860,note_off,,,,,44,0,8,,,,,0,,,83,100
96860,note_off,,,,,44,0,10,,,,,2,,,83,100
96864,note_on,,,,,4,0,8,,,,,0,,,81,85
96864,note_on,,,,,4,0,10,,,,,2,,,81,70
96896,note_off,,,,,128,0,9,,,,,1,,,76,100
96896,note_off,,,,,128,0,11,,,,,3,,,76,100
96928,note_off,,,,,64,0,8,,,,,0,,,81,100
96928,note_off,,,,,64,0,10,,,,,2,,,81,100
96960,note_on,,,,,0,0,15,,,,,7,,,69,100
96960,note_on,,,,,64,0,9,,,,,1,,,76,85
96960,note_on,,,,,32,0,8,,,,,0,,,80,85
96960,note_on,,,,,1472,0,13,,,,,5,,,52,85
96960,note_on,,,,,1472,0,15,,,,,7,,,71,100
96960,note_on,,,,,64,0,11,,,,,3,,,76,70
96960,note_on,,,,,1472,0,14,,,,,6,,,40,85
96960,note_on,,,,,32,0,10,,,,,2,,,80,70
96960,note_on,,,,,1472,0,16,,,,,7,,,52,100
96960,note_on,,,,,13760,0,12,,,,,4,,,71,85
97088,note_off,,,,,128,0,13,,,,,5,,,52,100
97088,note_off,,,,,128,0,11,,,,,3,,,76,100
97088,note_off,,,,,128,0,10,,,,,2,,,80,100
97088,note_off,,,,,128,0,15,,,,,7,,,71,100
97088,note_off,,,,,0,0,15,,,,,7,,,69,100
97088,note_off,,,,,128,0,12,,,,,4,,,71,100
97088,note_off,,,,,128,0,14,,,,,6,,,40,100
97088,note_off,,,,,128,0,8,,,,,0,,,80,100
97088,note_off,,,,,128,0,9,,,,,1,,,76,100
97088,note_off,,,,,128,0,16,,,,,7,,,52,100
97152,note_on,,,,,64,0,15,,,,,7,,,68,100
97152,note_on,,,,,64,0,9,,,,,1,,,76,85
97152,note_on,,,,,64,0,16,,,,,7,,,52,100
97152,note_on,,,,,64,0,12,,,,,4,,,71,85
97152,note_on,,,,,0,0,15,,,,,7,,,71,100
97152,note_on,,,,,64,0,11,,,,,3,,,76,70
97152,note_on,,,,,64,0,13,,,,,5,,,52,85
97152,note_on,,,,,64,0,14,,,,,6,,,40,85
97280,note_off,,,,,128,0,13,,,,,5,,,52,100
97280,note_off,,,,,128,0,11,,,,,3,,,76,100
97280,note_off,,,,,128,0,14,,,,,6,,,40,100
97280,note_off,,,,,128,0,9,,,,,1,,,76,100
97280,note_off,,,,,128,0,16,,,,,7,,,52,100
97280,note_off,,,,,128,0,12,,,,,4,,,71,100
97280,note_off,,,,,128,0,15,,,,,7,,,68,100
97280,note_off,,,,,0,0,15,,,,,7,,,71,100
97344,note_on,,,,,64,0,15,,,,,7,,,68,100
97344,note_on,,,,,0,0,15,,,,,7,,,71,100
97344,note_on,,,,,64,0,9,,,,,1,,,76,85
97344,note_on,,,,,64,0,11,,,,,3,,,76,70
97344,note_on,,,,,256,0,8,,,,,0,,,80,85
97344,note_on,,,,,64,0,14,,,,,6,,,40,85
97344,note_on,,,,,256,0,10,,,,,2,,,80,70
97344,note_on,,,,,64,0,13,,,,,5,,,52,85
97344,note_on,,,,,64,0,12,,,,,4,,,71,85
97344,note_on,,,,,64,0,16,,,,,7,,,52,100
97472,note_off,,,,,128,0,10,,,,,2,,,80,100
97472,note_off,,,,,128,0,12,,,,,4,,,71,100
97472,note_off,,,,,128,0,11,,,,,3,,,76,100
97472,note_off,,,,,0,0,15,,,,,7,,,71,100
97472,note_off,,,,,128,0,16,,,,,7,,,52,100
97472,note_off,,,,,128,0,15,,,,,7,,,68,100
97472,note_off,,,,,128,0,13,,,,,5,,,52,100
97472,note_off,,,,,128,0,8,,,,,0,,,80,100
97472,note_off,,,,,128,0,14,,,,,6,,,40,100
97472,note_off,,,,,128,0,9,,,,,1,,,76,100
97536,note_on,,,,,64,0,9,,,,,1,,,76,85
97536,note_on,,,,,0,0,15,,,,,7,,,76,100
97536,note_on,,,,,64,0,15,,,,,7,,,68,100
97536,note_on,,,,,64,0,13,,,,,5,,,54,85
97536,note_on,,,,,64,0,8,,,,,0,,,80,85
97536,note_on,,,,,64,0,10,,,,,2,,,80,70
97536,note_on,,,,,64,0,16,,,,,7,,,54,100
97536,note_on,,,,,64,0,14,,,,,6,,,42,85
97536,note_on,,,,,64,0,12,,,,,4,,,69,85
97536,note_on,,,,,64,0,11,,,,,3,,,76,70
97580,note_off,,,,,44,0,10,,,,,2,,,80,100
97580,note_off,,,,,44,0,11,,,,,3,,,76,100
97580,note_off,,,,,44,0,9,,,,,1,,,76,100
97580,note_off,,,,,44,0,8,,,,,0,,,80,100
97584,note_on,,,,,4,0,10,,,,,2,,,81,70
97584,note_on,,,,,4,0,11,,,,,3,,,78,70
97584,note_on,,,,,4,0,9,,,,,1,,,78,85
97584,note_on,,,,,4,0,8,,,,,0,,,81,85
97628,note_off,,,,,44,0,11,,,,,3,,,78,100
97628,note_off,,,,,44,0,10,,,,,2,,,81,100
97628,note_off,,,,,44,0,9,,,,,1,,,78,100
97628,note_off,,,,,44,0,8,,,,,0,,,81,100
97632,note_on,,,,,4,0,8,,,,,0,,,80,85
97632,note_on,,,,,4,0,10,,,,,2,,,80,70
97632,note_on,,,,,4,0,9,,,,,1,,,76,85
97632,note_on,,,,,4,0,11,,,,,3,,,76,70
97664,note_off,,,,,128,0,12,,,,,4,,,69,100
97664,note_off,,,,,128,0,16,,,,,7,,,54,100
97664,note_off,,,,,0,0,15,,,,,7,,,76,100
97664,note_off,,,,,128,0,15,,,,,7,,,68,100
97664,note_off,,,,,128,0,14,,,,,6,,,42,100
97664,note_off,,,,,128,0,13,,,,,5,,,54,100
97696,note_off,,,,,64,0,11,,,,,3,,,76,100
97696,note_off,,,,,64,0,9,,,,,1,,,76,100
97696,note_off,,,,,64,0,8,,,,,0,,,80,100
97696,note_off,,,,,64,0,10,,,,,2,,,80,100
97728,note_on,,,,,64,0,14,,,,,6,,,42,85
97728,note_on,,,,,32,0,9,,,,,1,,,74,85
97728,note_on,,,,,32,0,8,,,,,0,,,78,85
97728,note_on,,,,,64,0,13,,,,,5,,,54,85
97728,note_on,,,,,64,0,16,,,,,7,,,54,100
97728,note_on,,,,,32,0,10,,,,,2,,,78,70
97728,note_on,,,,,0,0,15,,,,,7,,,66,100
97728,note_on,,,,,64,0,12,,,,,4,,,69,85
97728,note_on,,,,,64,0,15,,,,,7,,,74,100
97728,note_on,,,,,32,0,11,,,,,3,,,74,70
97856,note_off,,,,,0,0,15,,,,,7,,,66,100
97856,note_off,,,,,128,0,13,,,,,5,,,54,100
97856,note_off,,,,,128,0,11,,,,,3,,,74,100
97856,note_off,,,,,128,0,8,,,,,0,,,78,100
97856,note_off,,,,,128,0,16,,,,,7,,,54,100
97856,note_off,,,,,128,0,14,,,,,6,,,42,100
97856,note_off,,,,,128,0,9,,,,,1,,,74,100
97856,note_off,,,,,128,0,12,,,,,4,,,69,100
97856,note_off,,,,,128,0,10,,,,,2,,,78,100
97856,note_off,,,,,128,0,15,,,,,7,,,74,100
97920,note_on,,,,,64,0,8,,,,,0,,,78,85
97920,note_on,,,,,0,0,15,,,,,7,,,69,100
97920,note_on,,,,,64,0,15,,,,,7,,,74,100
97920,note_on,,,,,64,0,16,,,,,7,,,56,100
97920,note_on,,,,,64,0,13,,,,,5,,,56,85
97920,note_on,,,,,64,0,12,,,,,4,,,71,85
97920,note_on,,,,,64,0,14,,,,,6,,,44,85
97920,note_on,,,,,64,0,10,,,,,2,,,78,70
98048,note_off,,,,,128,0,15,,,,,7,,,74,100
98048,note_off,,,,,128,0,8,,,,,0,,,78,100
98048,note_off,,,,,128,0,14,,,,,6,,,44,100
98048,note_off,,,,,128,0,10,,,,,2,,,78,100
98048,note_off,,,,,128,0,12,,,,,4,,,71,100
98048,note_off,,,,,128,0,16,,,,,7,,,56,100
98048,note_off,,,,,128,0,13,,,,,5,,,56,100
98048,note_off,,,,,0,0,15,,,,,7,,,69,100
98112,note_on,,,,,64,0,13,,,,,5,,,56,85
98112,note_on,,,,,256,0,11,,,,,3,,,74,70
98112,note_on,,,,,64,0,16,,,,,7,,,56,100
98112,note_on,,,,,64,0,8,,,,,0,,,78,85
98112,note_on,,,,,64,0,10,,,,,2,,,78,70
98112,note_on,,,,,64,0,15,,,,,7,,,74,100
98112,note_on,,,,,0,0,15,,,,,7,,,69,100
98112,note_on,,,,,64,0,12,,,,,4,,,71,85
98112,note_on,,,,,64,0,14,,,,,6,,,44,85
98112,note_on,,,,,256,0,9,,,,,1,,,74,85
98240,note_off,,,,,128,0,14,,,,,6,,,44,100
98240,note_off,,,,,128,0,12,,,,,4,,,71,100
98240,note_off,,,,,128,0,13,,,,,5,,,56,100
98240,note_off,,,,,128,0,8,,,,,0,,,78,100
98240,note_off,,,,,128,0,15,,,,,7,,,74,100
98240,note_off,,,,,0,0,15,,,,,7,,,69,100
98240,note_off,,,,,128,0,11,,,,,3,,,74,100
98240,note_off,,,,,128,0,16,,,,,7,,,56,100
98240,note_off,,,,,128,0,10,,,,,2,,,78,100
98240,note_off,,,,,128,0,9,,,,,1,,,74,100
98304,note_on,,,,,64,0,8,,,,,0,,,78,85
98304,note_on,,,,,0,0,15,,,,,7,,,74,100
98304,note_on,,,,,64,0,12,,,,,4,,,69,85
98304,note_on,,,,,64,0,11,,,,,3,,,74,70
98304,note_on,,,,,64,0,13,,,,,5,,,57,85
98304,note_on,,,,,64,0,10,,,,,2,,,78,70
98304,note_on,,,,,64,0,14,,,,,6,,,45,85
98304,note_on,,,,,64,0,16,,,,,7,,,57,100
98304,note_on,,,,,64,0,15,,,,,7,,,66,100
98304,note_on,,,,,64,0,9,,,,,1,,,74,85
98348,note_off,,,,,44,0,9,,,,,1,,,74,100
98348,note_off,,,,,44,0,10,,,,,2,,,78,100
98348,note_off,,,,,44,0,8,,,,,0,,,78,100
98348,note_off,,,,,44,0,11,,,,,3,,,74,100
98352,note_on,,,,,4,0,9,,,,,1,,,76,85
98352,note_on,,,,,4,0,10,,,,,2,,,80,70
98352,note_on,,,,,4,0,8,,,,,0,,,80,85
98352,note_on,,,,,4,0,11,,,,,3,,,76,70
98396,note_off,,,,,44,0,9,,,,,1,,,76,100
98396,note_off,,,,,44,0,8,,,,,0,,,80,100
98396,note_off,,,,,44,0,10,,,,,2,,,80,100
98396,note_off,,,,,44,0,11,,,,,3,,,76,100
98400,note_on,,,,,4,0,11,,,,,3,,,74,70
98400,note_on,,,,,4,0,8,,,,,0,,,78,85
98400,note_on,,,,,4,0,9,,,,,1,,,74,85
98400,note_on,,,,,4,0,10,,,,,2,,,78,70
98432,note_off,,,,,128,0,14,,,,,6,,,45,100
98432,note_off,,,,,128,0,13,,,,,5,,,57,100
98432,note_off,,,,,128,0,16,,,,,7,,,57,100
98432,note_off,,,,,128,0,12,,,,,4,,,69,100
98432,note_off,,,,,0,0,15,,,,,7,,,74,100
98432,note_off,,,,,128,0,15,,,,,7,,,66,100
98464,note_off,,,,,64,0,11,,,,,3,,,74,100
98464,note_off,,,,,64,0,8,,,,,0,,,78,100
98464,note_off,,,,,64,0,9,,,,,1,,,74,100
98464,note_off,,,,,64,0,10,,,,,2,,,78,100
98496,note_on,,,,,64,0,14,,,,,6,,,33,85
98496,note_on,,,,,64,0,16,,,,,7,,,45,100
98496,note_on,,,,,64,0,15,,,,,7,,,64,100
98496,note_on,,,,,32,0,11,,,,,3,,,73,70
98496,note_on,,,,,0,0,15,,,,,7,,,61,100
98496,note_on,,,,,64,0,13,,,,,5,,,45,85
98496,note_on,,,,,32,0,8,,,,,0,,,76,85
98496,note_on,,,,,32,0,9,,,,,1,,,73,85
98496,note_on,,,,,32,0,10,,,,,2,,,76,70
98496,note_on,,,,,64,0,12,,,,,4,,,69,85
98624,note_off,,,,,128,0,15,,,,,7,,,64,100
98624,note_off,,,,,128,0,13,,,,,5,,,45,100
98624,note_off,,,,,128,0,9,,,,,1,,,73,100
98624,note_off,,,,,128,0,14,,,,,6,,,33,100
98624,note_off,,,,,0,0,15,,,,,7,,,61,100
98624,note_off,,,,,128,0,11,,,,,3,,,73,100
98624,note_off,,,,,128,0,16,,,,,7,,,45,100
98624,note_off,,,,,128,0,10,,,,,2,,,76,100
98624,note_off,,,,,128,0,8,,,,,0,,,76,100
98624,note_off,,,,,128,0,12,,,,,4,,,69,100
98688,note_on,,,,,64,0,13,,,,,5,,,45,85
98688,note_on,,,,,64,0,11,,,,,3,,,73,70
98688,note_on,,,,,64,0,14,,,,,6,,,33,85
98688,note_on,,,,,0,0,15,,,,,7,,,61,100
98688,note_on,,,,,64,0,12,,,,,4,,,69,85
98688,note_on,,,,,64,0,15,,,,,7,,,64,100
98688,note_on,,,,,64,0,9,,,,,1,,,73,85
98688,note_on,,,,,64,0,16,,,,,7,,,45,100
98816,note_off,,,,,0,0,15,,,,,7,,,61,100
98816,note_off,,,,,128,0,13,,,,,5,,,45,100
98816,note_off,,,,,128,0,11,,,,,3,,,73,100
98816,note_off,,,,,128,0,9,,,,,1,,,73,100
98816,note_off,,,,,128,0,16,,,,,7,,,45,100
98816,note_off,,,,,128,0,15,,,,,7,,,64,100
98816,note_off,,,,,128,0,14,,,,,6,,,33,100
98816,note_off,,,,,128,0,12,,,,,4,,,69,100
98880,note_on,,,,,64,0,14,,,,,6,,,33,85
98880,note_on,,,,,64,0,16,,,,,7,,,45,100
98880,note_on,,,,,64,0,15,,,,,7,,,64,100
98880,note_on,,,,,64,0,13,,,,,5,,,45,85
98880,note_on,,,,,64,0,9,,,,,1,,,73,85
98880,note_on,,,,,0,0,15,,,,,7,,,61,100
98880,note_on,,,,,64,0,11,,,,,3,,,73,70
98880,note_on,,,,,256,0,8,,,,,0,,,76,85
98880,note_on,,,,,64,0,12,,,,,4,,,69,85
98880,note_on,,,,,256,0,10,,,,,2,,,76,70
99008,note_off,,,,,128,0,13,,,,,5,,,45,100
99008,note_off,,,,,128,0,9,,,,,1,,,73,100
99008,note_off,,,,,128,0,16,,,,,7,,,45,100
99008,note_off,,,,,128,0,12,,,,,4,,,69,100
99008,note_off,,,,,128,0,11,,,,,3,,,73,100
99008,note_off,,,,,0,0,15,,,,,7,,,61,100
99008,note_off,,,,,128,0,15,,,,,7,,,64,100
99008,note_off,,,,,128,0,14,,,,,6,,,33,100
99008,note_off,,,,,128,0,8,,,,,0,,,76,100
99008,note_off,,,,,128,0,10,,,,,2,,,76,100
99072,note_on,,,,,64,0,8,,,,,0,,,76,85
99072,note_on,,,,,64,0,13,,,,,5,,,50,85
99072,note_on,,,,,64,0,16,,,,,7,,,50,100
99072,note_on,,,,,64,0,9,,,,,1,,,73,85
99072,note_on,,,,,64,0,10,,,,,2,,,76,70
99072,note_on,,,,,64,0,15,,,,,7,,,73,100
99072,note_on,,,,,64,0,12,,,,,4,,,66,85
99072,note_on,,,,,0,0,15,,,,,7,,,64,100
99072,note_on,,,,,64,0,11,,,,,3,,,73,70
99072,note_on,,,,,64,0,14,,,,,6,,,38,85
99116,note_off,,,,,44,0,8,,,,,0,,,76,100
99116,note_off,,,,,44,0,11,,,,,3,,,73,100
99116,note_off,,,,,44,0,10,,,,,2,,,76,100
99116,note_off,,,,,44,0,9,,,,,1,,,73,100
99120,note_on,,,,,4,0,8,,,,,0,,,78,85
99120,note_on,,,,,4,0,9,,,,,1,,,74,85
99120,note_on,,,,,4,0,11,,,,,3,,,74,70
99120,note_on,,,,,4,0,10,,,,,2,,,78,70
99164,note_off,,,,,44,0,10,,,,,2,,,78,100
99164,note_off,,,,,44,0,11,,,,,3,,,74,100
99164,note_off,,,,,44,0,9,,,,,1,,,74,100
99164,note_off,,,,,44,0,8,,,,,0,,,78,100
99168,note_on,,,,,4,0,9,,,,,1,,,73,85
99168,note_on,,,,,4,0,11,,,,,3,,,73,70
99168,note_on,,,,,4,0,10,,,,,2,,,76,70
99168,note_on,,,,,4,0,8,,,,,0,,,76,85
99200,note_off,,,,,128,0,14,,,,,6,,,38,100
99200,note_off,,,,,128,0,16,,,,,7,,,50,100
99200,note_off,,,,,128,0,13,,,,,5,,,50,100
99200,note_off,,,,,128,0,12,,,,,4,,,66,100
99200,note_off,,,,,128,0,15,,,,,7,,,73,100
99200,note_off,,,,,0,0,15,,,,,7,,,64,100
99232,note_off,,,,,64,0,11,,,,,3,,,73,100
99232,note_off,,,,,64,0,10,,,,,2,,,76,100
99232,note_off,,,,,64,0,8,,,,,0,,,76,100
99232,note_off,,,,,64,0,9,,,,,1,,,73,100
99264,note_on,,,,,64,0,12,,,,,4,,,66,85
99264,note_on,,,,,32,0,10,,,,,2,,,74,70
99264,note_on,,,,,64,0,13,,,,,5,,,50,85
99264,note_on,,,,,64,0,14,,,,,6,,,38,85
99264,note_on,,,,,32,0,11,,,,,3,,,71,70
99264,note_on,,,,,32,0,9,,,,,1,,,71,85
99264,note_on,,,,,0,0,15,,,,,7,,,71,100
99264,note_on,,,,,64,0,15,,,,,7,,,62,100
99264,note_on,,,,,64,0,16,,,,,7,,,50,100
99264,note_on,,,,,32,0,8,,,,,0,,,74,85
99392,note_off,,,,,128,0,14,,,,,6,,,38,100
99392,note_off,,,,,128,0,8,,,,,0,,,74,100
99392,note_off,,,,,128,0,12,,,,,4,,,66,100
99392,note_off,,,,,0,0,15,,,,,7,,,71,100
99392,note_off,,,,,128,0,15,,,,,7,,,62,100
99392,note_off,,,,,128,0,9,,,,,1,,,71,100
99392,note_off,,,,,128,0,16,,,,,7,,,50,100
99392,note_off,,,,,128,0,10,,,,,2,,,74,100
99392,note_off,,,,,128,0,13,,,,,5,,,50,100
99392,note_off,,,,,128,0,11,,,,,3,,,71,100
99456,note_on,,,,,64,0,15,,,,,7,,,68,100
99456,note_on,,,,,64,0,11,,,,,3,,,71,70
99456,note_on,,,,,64,0,16,,,,,7,,,52,100
99456,note_on,,,,,64,0,8,,,,,0,,,74,85
99456,note_on,,,,,64,0,14,,,,,6,,,40,85
99456,note_on,,,,,64,0,10,,,,,2,,,74,70
99456,note_on,,,,,64,0,9,,,,,1,,,71,85
99456,note_on,,,,,64,0,13,,,,,5,,,52,85
99456,note_on,,,,,0,0,15,,,,,7,,,71,100
99456,note_on,,,,,0,0,15,,,,,7,,,74,100
99456,note_on,,,,,64,0,12,,,,,4,,,68,85
99584,note_off,,,,,128,0,8,,,,,0,,,74,100
99584,note_off,,,,,128,0,14,,,,,6,,,40,100
99584,note_off,,,,,128,0,13,,,,,5,,,52,100
99584,note_off,,,,,0,0,15,,,,,7,,,74,100
99584,note_off,,,,,128,0,15,,,,,7,,,68,100
99584,note_off,,,,,128,0,11,,,,,3,,,71,100
99584,note_off,,,,,0,0,15,,,,,7,,,71,100
99584,note_off,,,,,128,0,9,,,,,1,,,71,100
99584,note_off,,,,,128,0,16,,,,,7,,,52,100
99584,note_off,,,,,128,0,10,,,,,2,,,74,100
99584,note_off,,,,,128,0,12,,,,,4,,,68,100
99648,note_on,,,,,64,0,9,,,,,1,,,71,85
99648,note_on,,,,,64,0,12,,,,,4,,,68,85
99648,note_on,,,,,64,0,8,,,,,0,,,74,85
99648,note_on,,,,,64,0,13,,,,,5,,,52,85
99648,note_on,,,,,0,0,15,,,,,7,,,71,100
99648,note_on,,,,,0,0,15,,,,,7,,,74,100
99648,note_on,,,,,64,0,16,,,,,7,,,52,100
99648,note_on,,,,,64,0,10,,,,,2,,,74,70
99648,note_on,,,,,64,0,11,,,,,3,,,71,70
99648,note_on,,,,,64,0,14,,,,,6,,,40,85
99648,note_on,,,,,64,0,15,,,,,7,,,68,100
99776,note_off,,,,,128,0,15,,,,,7,,,68,100
99776,note_off,,,,,0,0,15,,,,,7,,,71,100
99776,note_off,,,,,0,0,15,,,,,7,,,74,100
99776,note_off,,,,,128,0,9,,,,,1,,,71,100
99776,note_off,,,,,128,0,11,,,,,3,,,71,100
99776,note_off,,,,,128,0,13,,,,,5,,,52,100
99776,note_off,,,,,128,0,10,,,,,2,,,74,100
99776,note_off,,,,,128,0,8,,,,,0,,,74,100
99776,note_off,,,,,128,0,12,,,,,4,,,68,100
99776,note_off,,,,,128,0,16,,,,,7,,,52,100
99776,note_off,,,,,128,0,14,,,,,6,,,40,100
99840,note_on,,,,,64,0,8,,,,,0,,,74,85
99840,note_on,,,,,64,0,10,,,,,2,,,74,70
99840,note_on,,,,,64,0,16,,,,,7,,,57,100
99840,note_on,,,,,64,0,13,,,,,5,,,57,85
99840,note_on,,,,,64,0,14,,,,,6,,,45,85
99840,note_on,,,,,64,0,11,,,,,3,,,71,70
99840,note_on,,,,,0,0,15,,,,,7,,,62,100
99840,note_on,,,,,64,0,15,,,,,7,,,71,100
99840,note_on,,,,,64,0,12,,,,,4,,,64,85
99840,note_on,,,,,64,0,9,,,,,1,,,71,85
99884,note_off,,,,,44,0,11,,,,,3,,,71,100
99884,note_off,,,,,44,0,10,,,,,2,,,74,100
99884,note_off,,,,,44,0,8,,,,,0,,,74,100
99884,note_off,,,,,44,0,9,,,,,1,,,71,100
99888,note_on,,,,,4,0,8,,,,,0,,,76,85
99888,note_on,,,,,4,0,9,,,,,1,,,73,85
99888,note_on,,,,,4,0,11,,,,,3,,,73,70
99888,note_on,,,,,4,0,10,,,,,2,,,76,70
99932,note_off,,,,,44,0,11,,,,,3,,,73,100
99932,note_off,,,,,44,0,8,,,,,0,,,76,100
99932,note_off,,,,,44,0,10,,,,,2,,,76,100
99932,note_off,,,,,44,0,9,,,,,1,,,73,100
99936,note_on,,,,,4,0,8,,,,,0,,,74,85
99936,note_on,,,,,4,0,11,,,,,3,,,71,70
99936,note_on,,,,,4,0,10,,,,,2,,,74,70
99936,note_on,,,,,4,0,9,,,,,1,,,71,85
99968,note_off,,,,,128,0,14,,,,,6,,,45,100
99968,note_off,,,,,0,0,15,,,,,7,,,62,100
99968,note_off,,,,,128,0,16,,,,,7,,,57,100
99968,note_off,,,,,128,0,15,,,,,7,,,71,100
99968,note_off,,,,,128,0,13,,,,,5,,,57,100
100000,note_off,,,,,64,0,11,,,,,3,,,71,100
100000,note_off,,,,,64,0,8,,,,,0,,,74,100
100000,note_off,,,,,64,0,9,,,,,1,,,71,100
100000,note_off,,,,,64,0,10,,,,,2,,,74,100
100032,note_on,,,,,64,0,14,,,,,6,,,33,85
100032,note_on,,,,,64,0,13,,,,,5,,,45,85
100032,note_on,,,,,0,0,15,,,,,7,,,61,100
100032,note_on,,,,,64,0,15,,,,,7,,,69,100
100032,note_on,,,,,32,0,9,,,,,1,,,69,85
100032,note_on,,,,,32,0,8,,,,,0,,,73,85
100032,note_on,,,,,64,0,16,,,,,7,,,45,100
100032,note_on,,,,,32,0,11,,,,,3,,,69,70
100032,note_on,,,,,32,0,10,,,,,2,,,73,70
100096,note_off,,,,,256,0,12,,,,,4,,,64,100
100160,note_off,,,,,128,0,16,,,,,7,,,45,100
100160,note_off,,,,,128,0,9,,,,,1,,,69,100
100160,note_off,,,,,128,0,14,,,,,6,,,33,100
100160,note_off,,,,,0,0,15,,,,,7,,,61,100
100160,note_off,,,,,128,0,15,,,,,7,,,69,100
100160,note_off,,,,,128,0,8,,,,,0,,,73,100
100160,note_off,,,,,128,0,13,,,,,5,,,45,100
100160,note_off,,,,,128,0,11,,,,,3,,,69,100
100160,note_off,,,,,128,0,10,,,,,2,,,73,100
100224,program_change,,,,,64,0,9,,,,,1,40,,,
100228,note_on,,,,,4,0,9,,,,,1,,,69,85
100292,note_off,,,,,64,0,9,,,,,1,,,69,100
100324,note_on,,,,,32,0,9,,,,,1,,,71,85
100388,note_off,,,,,64,0,9,,,,,1,,,71,100
100420,note_on,,,,,32,0,9,,,,,1,,,73,85
100484,note_off,,,,,64,0,9,,,,,1,,,73,100
100516,note_on,,,,,32,0,9,,,,,1,,,74,85
100580,note_off,,,,,64,0,9,,,,,1,,,74,100
100608,note_on,,,,,448,0,14,,,,,6,,,45,85
100608,note_on,,,,,448,0,15,,,,,7,,,62,100
100608,note_on,,,,,0,0,15,,,,,7,,,71,100
100608,note_on,,,,,448,0,13,,,,,5,,,57,85
100608,note_on,,,,,448,0,16,,,,,7,,,57,100
100612,note_on,,,,,32,0,9,,,,,1,,,76,85
100704,note_off,,,,,92,0,9,,,,,1,,,76,100
100708,note_on,,,,,4,0,9,,,,,1,,,74,85
100736,note_off,,,,,0,0,15,,,,,7,,,71,100
100736,note_off,,,,,128,0,13,,,,,5,,,57,100
100736,note_off,,,,,128,0,16,,,,,7,,,57,100
100736,note_off,,,,,128,0,14,,,,,6,,,45,100
100736,note_off,,,,,128,0,15,,,,,7,,,62,100
100800,note_on,,,,,64,0,15,,,,,7,,,61,100
100800,note_on,,,,,0,0,15,,,,,7,,,69,100
100800,note_off,,,,,92,0,9,,,,,1,,,74,100
100800,note_on,,,,,64,0,16,,,,,7,,,45,100
100800,note_on,,,,,64,0,14,,,,,6,,,33,85
100800,note_on,,,,,64,0,13,,,,,5,,,45,85
100804,note_on,,,,,4,0,9,,,,,1,,,73,85
100868,note_off,,,,,64,0,9,,,,,1,,,73,100
100900,note_on,,,,,32,0,9,,,,,1,,,74,85
100928,note_off,,,,,0,0,15,,,,,7,,,69,100
100928,note_off,,,,,128,0,14,,,,,6,,,33,100
100928,note_off,,,,,128,0,15,,,,,7,,,61,100
100928,note_off,,,,,128,0,16,,,,,7,,,45,100
100928,note_off,,,,,128,0,13,,,,,5,,,45,100
100964,note_off,,,,,64,0,9,,,,,1,,,74,100
100996,note_on,,,,,32,0,9,,,,,1,,,76,85
101060,note_off,,,,,64,0,9,,,,,1,,,76,100
101092,note_on,,,,,32,0,9,,,,,1,,,78,85
101156,note_off,,,,,64,0,9,,,,,1,,,78,100
101188,note_on,,,,,32,0,9,,,,,1,,,79,85
101252,note_off,,,,,64,0,9,,,,,1,,,79,100
101284,note_on,,,,,32,0,9,,,,,1,,,81,85
101348,note_off,,,,,64,0,9,,,,,1,,,81,100
101376,note_on,,,,,448,0,15,,,,,7,,,62,100
101376,note_on,,,,,448,0,16,,,,,7,,,57,100
101376,note_on,,,,,0,0,15,,,,,7,,,71,100
101376,note_on,,,,,448,0,14,,,,,6,,,45,85
101376,note_on,,,,,448,0,13,,,,,5,,,57,85
101380,note_on,,,,,32,0,9,,,,,1,,,79,85
101472,note_off,,,,,92,0,9,,,,,1,,,79,100
101476,note_on,,,,,4,0,9,,,,,1,,,78,85
101504,note_off,,,,,128,0,15,,,,,7,,,62,100
101504,note_off,,,,,0,0,15,,,,,7,,,71,100
101504,note_off,,,,,128,0,13,,,,,5,,,57,100
101504,note_off,,,,,128,0,14,,,,,6,,,45,100
101504,note_off,,,,,128,0,16,,,,,7,,,57,100
101568,note_on,,,,,64,0,16,,,,,7,,,45,100
101568,note_on,,,,,64,0,13,,,,,5,,,45,85
101568,note_on,,,,,0,0,15,,,,,7,,,69,100
101568,note_on,,,,,64,0,15,,,,,7,,,61,100
101568,note_on,,,,,64,0,14,,,,,6,,,33,85
101568,note_off,,,,,92,0,9,,,,,1,,,78,100
101572,note_on,,,,,4,0,9,,,,,1,,,76,85
101636,note_off,,,,,64,0,9,,,,,1,,,76,100
101668,note_on,,,,,32,0,9,,,,,1,,,78,85
101696,note_off,,,,,128,0,13,,,,,5,,,45,100
101696,note_off,,,,,128,0,14,,,,,6,,,33,100
101696,note_off,,,,,0,0,15,,,,,7,,,69,100
101696,note_off,,,,,128,0,15,,,,,7,,,61,100
101696,note_off,,,,,128,0,16,,,,,7,,,45,100
101732,note_off,,,,,64,0,9,,,,,1,,,78,100
101764,note_on,,,,,32,0,9,,,,,1,,,79,85
101828,note_off,,,,,64,0,9,,,,,1,,,79,100
101860,note_on,,,,,32,0,9,,,,,1,,,83,85
101924,note_off,,,,,64,0,9,,,,,1,,,83,100
101956,note_on,,,,,32,0,9,,,,,1,,,81,85
102020,note_off,,,,,64,0,9,,,,,1,,,81,100
102052,note_on,,,,,32,0,9,,,,,1,,,79,85
102116,note_off,,,,,64,0,9,,,,,1,,,79,100
102144,note_on,,,,,448,0,13,,,,,5,,,62,85
102144,note_on,,,,,448,0,14,,,,,6,,,50,85
102144,note_on,,,,,448,0,15,,,,,7,,,74,100
102144,note_on,,,,,0,0,15,,,,,7,,,69,100
102144,note_on,,,,,448,0,16,,,,,7,,,62,100
102148,note_on,,,,,32,0,9,,,,,1,,,78,85
102240,note_off,,,,,92,0,9,,,,,1,,,78,100
102244,note_on,,,,,4,0,9,,,,,1,,,76,85
102272,note_off,,,,,128,0,16,,,,,7,,,62,100
102272,note_off,,,,,128,0,15,,,,,7,,,74,100
102272,note_off,,,,,0,0,15,,,,,7,,,69,100
102272,note_off,,,,,128,0,13,,,,,5,,,62,100
102272,note_off,,,,,128,0,14,,,,,6,,,50,100
102336,note_off,,,,,92,0,9,,,,,1,,,76,100
102336,note_on,,,,,64,0,14,,,,,6,,,38,85
102336,note_on,,,,,64,0,15,,,,,7,,,66,100
102336,note_on,,,,,0,0,15,,,,,7,,,69,100
102336,note_on,,,,,64,0,13,,,,,5,,,50,85
102336,note_on,,,,,64,0,16,,,,,7,,,50,100
102340,note_on,,,,,4,0,9,,,,,1,,,74,85
102404,note_off,,,,,64,0,9,,,,,1,,,74,100
102436,note_on,,,,,32,0,9,,,,,1,,,76,85
102464,note_off,,,,,128,0,15,,,,,7,,,66,100
102464,note_off,,,,,128,0,14,,,,,6,,,38,100
102464,note_off,,,,,0,0,15,,,,,7,,,69,100
102464,note_off,,,,,128,0,13,,,,,5,,,50,100
102464,note_off,,,,,128,0,16,,,,,7,,,50,100
102500,note_off,,,,,64,0,9,,,,,1,,,76,100
102528,note_on,,,,,2368,0,11,,,,,3,,,74,60
102528,note_on,,,,,64,0,16,,,,,7,,,54,100
102528,note_on,,,,,2368,0,10,,,,,2,,,86,60
102528,note_on,,,,,2368,0,8,,,,,0,,,86,45
102528,note_on,,,,,64,0,14,,,,,6,,,42,85
102528,note_on,,,,,2432,0,12,,,,,4,,,69,60
102528,note_on,,,,,64,0,15,,,,,7,,,73,100
102528,note_on,,,,,64,0,13,,,,,5,,,54,85
102528,note_on,,,,,0,0,15,,,,,7,,,69,100
102532,note_on,,,,,32,0,9,,,,,1,,,78,85
102596,note_off,,,,,64,0,9,,,,,1,,,78,100
102628,note_on,,,,,32,0,9,,,,,1,,,79,85
102656,note_off,,,,,128,0,8,,,,,0,,,86,100
102656,note_off,,,,,0,0,15,,,,,7,,,69,100
102656,note_off,,,,,128,0,16,,,,,7,,,54,100
102656,note_off,,,,,128,0,15,,,,,7,,,73,100
102656,note_off,,,,,128,0,11,,,,,3,,,74,100
102656,note_off,,,,,128,0,13,,,,,5,,,54,100
102656,note_off,,,,,128,0,10,,,,,2,,,86,100
102656,note_off,,,,,128,0,12,,,,,4,,,69,100
102656,note_off,,,,,128,0,14,,,,,6,,,42,100
102692,note_off,,,,,64,0,9,,,,,1,,,79,100
102724,note_on,,,,,32,0,9,,,,,1,,,81,85
102788,note_off,,,,,64,0,9,,,,,1,,,81,100
102820,note_on,,,,,32,0,9,,,,,1,,,78,85
102884,note_off,,,,,64,0,9,,,,,1,,,78,100
102912,note_on,,,,,0,0,15,,,,,7,,,64,100
102912,note_on,,,,,256,0,12,,,,,4,,,71,60
102912,note_on,,,,,256,0,13,,,,,5,,,55,60
102912,note_on,,,,,256,0,8,,,,,0,,,86,45
102912,note_on,,,,,256,0,11,,,,,3,,,76,60
102912,note_on,,,,,256,0,10,,,,,2,,,86,60
102912,note_on,,,,,256,0,15,,,,,7,,,62,100
102912,note_on,,,,,256,0,16,,,,,7,,,55,100
102912,note_on,,,,,256,0,14,,,,,6,,,43,60
102916,note_on,,,,,32,0,9,,,,,1,,,83,85
103040,note_off,,,,,128,0,11,,,,,3,,,76,100
103040,note_off,,,,,128,0,15,,,,,7,,,62,100
103040,note_off,,,,,0,0,15,,,,,7,,,64,100
103040,note_off,,,,,128,0,12,,,,,4,,,71,100
103040,note_off,,,,,128,0,16,,,,,7,,,55,100
103040,note_off,,,,,128,0,13,,,,,5,,,55,100
103040,note_off,,,,,128,0,10,,,,,2,,,86,100
103040,note_off,,,,,128,0,14,,,,,6,,,43,100
103040,note_off,,,,,128,0,8,,,,,0,,,86,100
103044,note_off,,,,,128,0,9,,,,,1,,,83,100
103108,note_on,,,,,64,0,9,,,,,1,,,76,85
103172,note_off,,,,,64,0,9,,,,,1,,,76,100
103204,note_on,,,,,32,0,9,,,,,1,,,74,85
103268,note_off,,,,,64,0,9,,,,,1,,,74,100
103296,note_on,,,,,256,0,14,,,,,6,,,45,60
103296,note_on,,,,,256,0,15,,,,,7,,,64,100
103296,note_on,,,,,0,0,15,,,,,7,,,61,100
103296,note_on,,,,,256,0,12,,,,,4,,,69,60
103296,note_on,,,,,256,0,16,,,,,7,,,57,100
103296,note_on,,,,,256,0,11,,,,,3,,,76,60
103296,note_on,,,,,256,0,13,,,,,5,,,57,60
103296,note_on,,,,,256,0,8,,,,,0,,,85,45
103296,note_on,,,,,256,0,10,,,,,2,,,85,60
103300,note_on,,,,,32,0,9,,,,,1,,,76,85
103364,note_off,,,,,64,0,9,,,,,1,,,76,100
103396,note_on,,,,,32,0,9,,,,,1,,,78,85
103424,note_off,,,,,128,0,11,,,,,3,,,76,100
103424,note_off,,,,,128,0,14,,,,,6,,,45,100
103424,note_off,,,,,128,0,8,,,,,0,,,85,100
103424,note_off,,,,,128,0,10,,,,,2,,,85,100
103424,note_off,,,,,0,0,15,,,,,7,,,61,100
103424,note_off,,,,,128,0,12,,,,,4,,,69,100
103424,note_off,,,,,128,0,13,,,,,5,,,57,100
103424,note_off,,,,,128,0,15,,,,,7,,,64,100
103424,note_off,,,,,128,0,16,,,,,7,,,57,100
103460,note_off,,,,,64,0,9,,,,,1,,,78,100
103492,note_on,,,,,32,0,9,,,,,1,,,79,85
103556,note_off,,,,,64,0,9,,,,,1,,,79,100
103588,note_on,,,,,32,0,9,,,,,1,,,76,85
103652,note_off,,,,,64,0,9,,,,,1,,,76,100
103680,note_on,,,,,256,0,10,,,,,2,,,85,60
103680,note_on,,,,,256,0,8,,,,,0,,,85,45
103680,note_on,,,,,256,0,12,,,,,4,,,69,60
103680,note_on,,,,,256,0,11,,,,,3,,,74,60
103680,note_on,,,,,256,0,15,,,,,7,,,62,100
103680,note_on,,,,,256,0,13,,,,,5,,,54,60
103680,note_on,,,,,256,0,14,,,,,6,,,42,60
103680,note_on,,,,,0,0,15,,,,,7,,,61,100
103680,note_on,,,,,256,0,16,,,,,7,,,54,100
103684,note_on,,,,,32,0,9,,,,,1,,,81,85
103808,note_off,,,,,128,0,8,,,,,0,,,85,100
103808,note_off,,,,,128,0,14,,,,,6,,,42,100
103808,note_off,,,,,128,0,13,,,,,5,,,54,100
103808,note_off,,,,,128,0,10,,,,,2,,,85,100
103808,note_off,,,,,0,0,15,,,,,7,,,61,100
103808,note_off,,,,,128,0,15,,,,,7,,,62,100
103808,note_off,,,,,128,0,16,,,,,7,,,54,100
103808,note_off,,,,,128,0,11,,,,,3,,,74,100
103808,note_off,,,,,128,0,12,,,,,4,,,69,100
103812,note_off,,,,,128,0,9,,,,,1,,,81,100
103876,note_on,,,,,64,0,9,,,,,1,,,74,85
103940,note_off,,,,,64,0,9,,,,,1,,,74,100
103972,note_on,,,,,32,0,9,,,,,1,,,73,85
104036,note_off,,,,,64,0,9,,,,,1,,,73,100
104064,note_on,,,,,256,0,10,,,,,2,,,83,60
104064,note_on,,,,,256,0,8,,,,,0,,,83,45
104064,note_on,,,,,256,0,15,,,,,7,,,59,100
104064,note_on,,,,,256,0,13,,,,,5,,,55,60
104064,note_on,,,,,0,0,15,,,,,7,,,62,100
104064,note_on,,,,,256,0,14,,,,,6,,,43,60
104064,note_on,,,,,256,0,16,,,,,7,,,55,100
104064,note_on,,,,,256,0,12,,,,,4,,,67,60
104064,note_on,,,,,256,0,11,,,,,3,,,74,60
104068,note_on,,,,,32,0,9,,,,,1,,,74,85
104132,note_off,,,,,64,0,9,,,,,1,,,74,100
104164,note_on,,,,,32,0,9,,,,,1,,,76,85
104192,note_off,,,,,128,0,14,,,,,6,,,43,100
104192,note_off,,,,,128,0,8,,,,,0,,,83,100
104192,note_off,,,,,128,0,10,,,,,2,,,83,100
104192,note_off,,,,,128,0,15,,,,,7,,,59,100
104192,note_off,,,,,128,0,16,,,,,7,,,55,100
104192,note_off,,,,,128,0,12,,,,,4,,,67,100
104192,note_off,,,,,128,0,13,,,,,5,,,55,100
104192,note_off,,,,,128,0,11,,,,,3,,,74,100
104192,note_off,,,,,0,0,15,,,,,7,,,62,100
104228,note_off,,,,,64,0,9,,,,,1,,,76,100
104260,note_on,,,,,32,0,9,,,,,1,,,78,85
104324,note_off,,,,,64,0,9,,,,,1,,,78,100
104356,note_on,,,,,32,0,9,,,,,1,,,74,85
104420,note_off,,,,,64,0,9,,,,,1,,,74,100
104448,note_on,,,,,256,0,14,,,,,6,,,40,60
104448,note_on,,,,,0,0,15,,,,,7,,,61,100
104448,note_on,,,,,256,0,15,,,,,7,,,59,100
104448,note_on,,,,,256,0,12,,,,,4,,,67,60
104448,note_on,,,,,256,0,13,,,,,5,,,52,60
104448,note_on,,,,,256,0,16,,,,,7,,,52,100
104448,note_on,,,,,256,0,10,,,,,2,,,83,60
104448,note_on,,,,,256,0,8,,,,,0,,,83,45
104448,note_on,,,,,256,0,11,,,,,3,,,73,60
104452,note_on,,,,,32,0,9,,,,,1,,,79,85
104576,note_off,,,,,0,0,15,,,,,7,,,61,100
104576,note_off,,,,,128,0,13,,,,,5,,,52,100
104576,note_off,,,,,128,0,10,,,,,2,,,83,100
104576,note_off,,,,,128,0,8,,,,,0,,,83,100
104576,note_off,,,,,128,0,15,,,,,7,,,59,100
104576,note_off,,,,,128,0,14,,,,,6,,,40,100
104576,note_off,,,,,128,0,11,,,,,3,,,73,100
104576,note_off,,,,,128,0,12,,,,,4,,,67,100
104576,note_off,,,,,128,0,16,,,,,7,,,52,100
104580,note_off,,,,,128,0,9,,,,,1,,,79,100
104644,note_on,,,,,64,0,9,,,,,1,,,73,85
104708,note_off,,,,,64,0,9,,,,,1,,,73,100
104740,note_on,,,,,32,0,9,,,,,1,,,71,85
104804,note_off,,,,,64,0,9,,,,,1,,,71,100
104832,note_on,,,,,256,0,14,,,,,6,,,42,60
104832,note_on,,,,,256,0,12,,,,,4,,,66,60
104832,note_on,,,,,256,0,16,,,,,7,,,54,100
104832,note_on,,,,,256,0,8,,,,,0,,,81,45
104832,note_on,,,,,256,0,13,,,,,5,,,54,60
104832,note_on,,,,,256,0,15,,,,,7,,,57,100
104832,note_on,,,,,0,0,15,,,,,7,,,61,100
104832,note_on,,,,,256,0,11,,,,,3,,,73,60
104832,note_on,,,,,256,0,10,,,,,2,,,81,60
104836,note_on,,,,,32,0,9,,,,,1,,,73,85
104900,note_off,,,,,64,0,9,,,,,1,,,73,100
104932,note_on,,,,,32,0,9,,,,,1,,,74,85
104960,note_off,,,,,128,0,15,,,,,7,,,57,100
104960,note_off,,,,,0,0,15,,,,,7,,,61,100
104960,note_off,,,,,128,0,8,,,,,0,,,81,100
104960,note_off,,,,,128,0,12,,,,,4,,,66,100
104960,note_off,,,,,128,0,10,,,,,2,,,81,100
104960,note_off,,,,,128,0,11,,,,,3,,,73,100
104960,note_off,,,,,128,0,14,,,,,6,,,42,100
104960,note_off,,,,,128,0,13,,,,,5,,,54,100
104960,note_off,,,,,128,0,16,,,,,7,,,54,100
104996,note_off,,,,,64,0,9,,,,,1,,,74,100
105028,note_on,,,,,32,0,9,,,,,1,,,76,85
105092,note_off,,,,,64,0,9,,,,,1,,,76,100
105124,note_on,,,,,32,0,9,,,,,1,,,73,85
105188,note_off,,,,,64,0,9,,,,,1,,,73,100
105216,note_on,,,,,0,0,15,,,,,7,,,59,100
105216,note_on,,,,,256,0,15,,,,,7,,,57,100
105216,note_on,,,,,256,0,16,,,,,7,,,50,100
105216,note_on,,,,,256,0,13,,,,,5,,,50,60
105216,note_on,,,,,256,0,12,,,,,4,,,66,60
105216,note_on,,,,,256,0,14,,,,,6,,,38,60
105216,note_on,,,,,256,0,10,,,,,2,,,81,60
105216,note_on,,,,,256,0,11,,,,,3,,,71,60
105216,note_on,,,,,256,0,8,,,,,0,,,81,45
105220,note_on,,,,,32,0,9,,,,,1,,,78,85
105344,note_off,,,,,128,0,15,,,,,7,,,57,100
105344,note_off,,,,,128,0,12,,,,,4,,,66,100
105344,note_off,,,,,128,0,14,,,,,6,,,38,100
105344,note_off,,,,,128,0,10,,,,,2,,,81,100
105344,note_off,,,,,128,0,13,,,,,5,,,50,100
105344,note_off,,,,,0,0,15,,,,,7,,,59,100
105344,note_off,,,,,128,0,11,,,,,3,,,71,100
105344,note_off,,,,,128,0,16,,,,,7,,,50,100
105344,note_off,,,,,128,0,8,,,,,0,,,81,100
105348,note_off,,,,,128,0,9,,,,,1,,,78,100
105412,note_on,,,,,64,0,9,,,,,1,,,71,85
105476,note_off,,,,,64,0,9,,,,,1,,,71,100
105508,note_on,,,,,32,0,9,,,,,1,,,69,85
105572,note_off,,,,,64,0,9,,,,,1,,,69,100
105600,note_on,,,,,256,0,11,,,,,3,,,71,60
105600,note_on,,,,,256,0,12,,,,,4,,,64,60
105600,note_on,,,,,256,0,14,,,,,6,,,40,60
105600,note_on,,,,,256,0,10,,,,,2,,,79,60
105600,note_on,,,,,256,0,13,,,,,5,,,52,60
105600,note_on,,,,,256,0,15,,,,,7,,,55,100
105600,note_on,,,,,256,0,16,,,,,7,,,52,100
105600,note_on,,,,,256,0,8,,,,,0,,,79,45
105600,note_on,,,,,0,0,15,,,,,7,,,59,100
105604,note_on,,,,,32,0,9,,,,,1,,,71,85
105668,note_off,,,,,64,0,9,,,,,1,,,71,100
105700,note_on,,,,,32,0,9,,,,,1,,,73,85
105728,note_off,,,,,128,0,11,,,,,3,,,71,100
105728,note_off,,,,,128,0,13,,,,,5,,,52,100
105728,note_off,,,,,128,0,14,,,,,6,,,40,100
105728,note_off,,,,,128,0,16,,,,,7,,,52,100
105728,note_off,,,,,128,0,8,,,,,0,,,79,100
105728,note_off,,,,,128,0,10,,,,,2,,,79,100
105728,note_off,,,,,128,0,12,,,,,4,,,64,100
105728,note_off,,,,,128,0,15,,,,,7,,,55,100
105728,note_off,,,,,0,0,15,,,,,7,,,59,100
105764,note_off,,,,,64,0,9,,,,,1,,,73,100
105796,note_on,,,,,32,0,9,,,,,1,,,74,85
105860,note_off,,,,,64,0,9,,,,,1,,,74,100
105892,note_on,,,,,32,0,9,,,,,1,,,71,85
105956,note_off,,,,,64,0,9,,,,,1,,,71,100
105984,note_on,,,,,256,0,11,,,,,3,,,69,60
105984,note_on,,,,,256,0,12,,,,,4,,,64,60
105984,note_on,,,,,256,0,13,,,,,5,,,49,60
105984,note_on,,,,,256,0,15,,,,,7,,,57,100
105984,note_on,,,,,0,0,15,,,,,7,,,55,100
105984,note_on,,,,,256,0,10,,,,,2,,,79,60
105984,note_on,,,,,256,0,8,,,,,0,,,79,45
105984,note_on,,,,,256,0,16,,,,,7,,,49,100
105984,note_on,,,,,256,0,14,,,,,6,,,37,60
105988,note_on,,,,,32,0,9,,,,,1,,,76,85
106112,note_off,,,,,128,0,8,,,,,0,,,79,100
106112,note_off,,,,,128,0,12,,,,,4,,,64,100
106112,note_off,,,,,128,0,16,,,,,7,,,49,100
106112,note_off,,,,,128,0,14,,,,,6,,,37,100
106112,note_off,,,,,128,0,13,,,,,5,,,49,100
106112,note_off,,,,,0,0,15,,,,,7,,,55,100
106112,note_off,,,,,128,0,10,,,,,2,,,79,100
106112,note_off,,,,,128,0,11,,,,,3,,,69,100
106112,note_off,,,,,128,0,15,,,,,7,,,57,100
106116,note_off,,,,,128,0,9,,,,,1,,,76,100
106180,note_on,,,,,64,0,9,,,,,1,,,69,85
106244,note_off,,,,,64,0,9,,,,,1,,,69,100
106276,note_on,,,,,32,0,9,,,,,1,,,67,85
106340,note_off,,,,,64,0,9,,,,,1,,,67,100
106368,note_on,,,,,256,0,14,,,,,6,,,38,60
106368,note_on,,,,,256,0,8,,,,,0,,,78,45
106368,note_on,,,,,256,0,11,,,,,3,,,69,60
106368,note_on,,,,,0,0,15,,,,,7,,,62,100
106368,note_on,,,,,256,0,16,,,,,7,,,50,100
106368,note_on,,,,,256,0,12,,,,,4,,,62,60
106368,note_on,,,,,256,0,15,,,,,7,,,66,100
106368,note_on,,,,,256,0,13,,,,,5,,,50,60
106368,note_on,,,,,256,0,10,,,,,2,,,78,60
106372,note_on,,,,,32,0,9,,,,,1,,,69,85
106436,note_off,,,,,64,0,9,,,,,1,,,69,100
106468,note_on,,,,,32,0,9,,,,,1,,,71,85
106496,note_off,,,,,128,0,16,,,,,7,,,50,100
106496,note_off,,,,,128,0,15,,,,,7,,,66,100
106496,note_off,,,,,0,0,15,,,,,7,,,62,100
106496,note_off,,,,,128,0,11,,,,,3,,,69,100
106496,note_off,,,,,128,0,13,,,,,5,,,50,100
106496,note_off,,,,,128,0,14,,,,,6,,,38,100
106496,note_off,,,,,128,0,8,,,,,0,,,78,100
106496,note_off,,,,,128,0,12,,,,,4,,,62,100
106496,note_off,,,,,128,0,10,,,,,2,,,78,100
106532,note_off,,,,,64,0,9,,,,,1,,,71,100
106564,note_on,,,,,32,0,9,,,,,1,,,73,85
106628,note_off,,,,,64,0,9,,,,,1,,,73,100
106660,note_on,,,,,32,0,9,,,,,1,,,69,85
106724,note_off,,,,,64,0,9,,,,,1,,,69,100
106752,note_on,,,,,256,0,11,,,,,3,,,67,60
106752,note_on,,,,,256,0,12,,,,,4,,,62,60
106752,note_on,,,,,256,0,16,,,,,7,,,47,100
106752,note_on,,,,,0,0,15,,,,,7,,,66,100
106752,note_on,,,,,256,0,14,,,,,6,,,35,60
106752,note_on,,,,,256,0,13,,,,,5,,,47,60
106752,note_on,,,,,256,0,15,,,,,7,,,67,100
106752,note_on,,,,,256,0,8,,,,,0,,,78,45
106752,note_on,,,,,256,0,10,,,,,2,,,78,60
106756,note_on,,,,,32,0,9,,,,,1,,,74,85
106880,note_off,,,,,128,0,12,,,,,4,,,62,100
106880,note_off,,,,,128,0,15,,,,,7,,,67,100
106880,note_off,,,,,0,0,15,,,,,7,,,66,100
106880,note_off,,,,,128,0,13,,,,,5,,,47,100
106880,note_off,,,,,128,0,11,,,,,3,,,67,100
106880,note_off,,,,,128,0,8,,,,,0,,,78,100
106880,note_off,,,,,128,0,16,,,,,7,,,47,100
106880,note_off,,,,,128,0,10,,,,,2,,,78,100
106880,note_off,,,,,128,0,14,,,,,6,,,35,100
106884,note_off,,,,,128,0,9,,,,,1,,,74,100
106948,note_on,,,,,64,0,9,,,,,1,,,67,85
107012,note_off,,,,,64,0,9,,,,,1,,,67,100
107044,note_on,,,,,32,0,9,,,,,1,,,66,85
107108,note_off,,,,,64,0,9,,,,,1,,,66,100
107136,note_on,,,,,256,0,13,,,,,5,,,52,60
107136,note_on,,,,,0,0,15,,,,,7,,,59,100
107136,note_on,,,,,256,0,15,,,,,7,,,67,100
107136,note_on,,,,,256,0,10,,,,,2,,,76,60
107136,note_on,,,,,256,0,12,,,,,4,,,59,60
107136,note_on,,,,,256,0,8,,,,,0,,,76,45
107136,note_on,,,,,256,0,16,,,,,7,,,52,100
107136,note_on,,,,,256,0,11,,,,,3,,,67,60
107136,note_on,,,,,256,0,14,,,,,6,,,40,60
107140,note_on,,,,,32,0,9,,,,,1,,,67,85
107204,note_off,,,,,64,0,9,,,,,1,,,67,100
107236,note_on,,,,,32,0,9,,,,,1,,,69,85
107264,note_off,,,,,128,0,13,,,,,5,,,52,100
107264,note_off,,,,,128,0,12,,,,,4,,,59,100
107264,note_off,,,,,128,0,8,,,,,0,,,76,100
107264,note_off,,,,,128,0,11,,,,,3,,,67,100
107264,note_off,,,,,128,0,14,,,,,6,,,40,100
107264,note_off,,,,,0,0,15,,,,,7,,,59,100
107264,note_off,,,,,128,0,15,,,,,7,,,67,100
107264,note_off,,,,,128,0,16,,,,,7,,,52,100
107264,note_off,,,,,128,0,10,,,,,2,,,76,100
107300,note_off,,,,,64,0,9,,,,,1,,,69,100
107332,note_on,,,,,32,0,9,,,,,1,,,71,85
107396,note_off,,,,,64,0,9,,,,,1,,,71,100
107428,note_on,,,,,32,0,9,,,,,1,,,67,85
107492,note_off,,,,,64,0,9,,,,,1,,,67,100
107520,note_on,,,,,0,0,15,,,,,7,,,64,100
107520,note_on,,,,,256,0,15,,,,,7,,,66,100
107520,note_on,,,,,256,0,8,,,,,0,,,76,45
107520,note_on,,,,,256,0,12,,,,,4,,,61,60
107520,note_on,,,,,256,0,14,,,,,6,,,33,60
107520,note_on,,,,,256,0,11,,,,,3,,,66,60
107520,note_on,,,,,256,0,13,,,,,5,,,45,60
107520,note_on,,,,,256,0,10,,,,,2,,,76,60
107520,note_on,,,,,256,0,16,,,,,7,,,45,100
107524,note_on,,,,,32,0,9,,,,,1,,,73,85
107648,note_off,,,,,0,0,15,,,,,7,,,64,100
107648,note_off,,,,,128,0,15,,,,,7,,,66,100
107648,note_off,,,,,128,0,11,,,,,3,,,66,100
107648,note_off,,,,,128,0,10,,,,,2,,,76,100
107648,note_off,,,,,128,0,8,,,,,0,,,76,100
107648,note_off,,,,,128,0,12,,,,,4,,,61,100
107648,note_off,,,,,128,0,14,,,,,6,,,33,100
107648,note_off,,,,,128,0,13,,,,,5,,,45,100
107648,note_off,,,,,128,0,16,,,,,7,,,45,100
107652,note_off,,,,,128,0,9,,,,,1,,,73,100
107716,note_on,,,,,64,0,9,,,,,1,,,66,85
107780,note_off,,,,,64,0,9,,,,,1,,,66,100
107812,note_on,,,,,32,0,9,,,,,1,,,64,85
107876,note_off,,,,,64,0,9,,,,,1,,,64,100
107904,note_on,,,,,256,0,16,,,,,7,,,47,100
107904,note_on,,,,,256,0,11,,,,,3,,,66,60
107904,note_on,,,,,256,0,8,,,,,0,,,74,45
107904,note_on,,,,,256,0,12,,,,,4,,,62,60
107904,note_on,,,,,0,0,15,,,,,7,,,62,100
107904,note_on,,,,,256,0,15,,,,,7,,,66,100
107904,note_on,,,,,256,0,14,,,,,6,,,35,60
107904,note_on,,,,,256,0,13,,,,,5,,,47,60
107904,note_on,,,,,256,0,10,,,,,2,,,74,60
107908,note_on,,,,,32,0,9,,,,,1,,,66,85
107972,note_off,,,,,64,0,9,,,,,1,,,66,100
108004,note_on,,,,,32,0,9,,,,,1,,,67,85
108032,note_off,,,,,128,0,12,,,,,4,,,62,100
108032,note_off,,,,,128,0,11,,,,,3,,,66,100
108032,note_off,,,,,128,0,8,,,,,0,,,74,100
108032,note_off,,,,,0,0,15,,,,,7,,,62,100
108032,note_off,,,,,128,0,13,,,,,5,,,47,100
108032,note_off,,,,,128,0,16,,,,,7,,,47,100
108032,note_off,,,,,128,0,10,,,,,2,,,74,100
108032,note_off,,,,,128,0,15,,,,,7,,,66,100
108032,note_off,,,,,128,0,14,,,,,6,,,35,100
108068,note_off,,,,,64,0,9,,,,,1,,,67,100
108100,note_on,,,,,32,0,9,,,,,1,,,69,85
108164,note_off,,,,,64,0,9,,,,,1,,,69,100
108196,note_on,,,,,32,0,9,,,,,1,,,66,85
108260,note_off,,,,,64,0,9,,,,,1,,,66,100
108288,note_on,,,,,256,0,8,,,,,0,,,74,45
108288,note_on,,,,,256,0,11,,,,,3,,,64,60
108288,note_on,,,,,256,0,12,,,,,4,,,59,60
108288,note_on,,,,,256,0,13,,,,,5,,,43,60
108288,note_on,,,,,256,0,10,,,,,2,,,74,60
108288,note_on,,,,,256,0,15,,,,,7,,,64,100
108288,note_on,,,,,0,0,15,,,,,7,,,62,100
108288,note_on,,,,,256,0,16,,,,,7,,,43,100
108288,note_on,,,,,256,0,14,,,,,6,,,31,60
108292,note_on,,,,,32,0,9,,,,,1,,,64,85
108356,note_off,,,,,64,0,9,,,,,1,,,64,100
108388,note_on,,,,,32,0,9,,,,,1,,,62,85
108416,note_off,,,,,128,0,15,,,,,7,,,64,100
108416,note_off,,,,,0,0,15,,,,,7,,,62,100
108416,note_off,,,,,128,0,8,,,,,0,,,74,100
108416,note_off,,,,,128,0,11,,,,,3,,,64,100
108416,note_off,,,,,128,0,10,,,,,2,,,74,100
108416,note_off,,,,,128,0,13,,,,,5,,,43,100
108416,note_off,,,,,128,0,12,,,,,4,,,59,100
108416,note_off,,,,,128,0,14,,,,,6,,,31,100
108416,note_off,,,,,128,0,16,,,,,7,,,43,100
108452,note_off,,,,,64,0,9,,,,,1,,,62,100
108484,note_on,,,,,32,0,9,,,,,1,,,64,85
108548,note_off,,,,,64,0,9,,,,,1,,,64,100
108580,note_on,,,,,32,0,9,,,,,1,,,66,85
108644,note_off,,,,,64,0,9,,,,,1,,,66,100
108672,note_on,,,,,256,0,10,,,,,2,,,73,60
108672,note_on,,,,,256,0,12,,,,,4,,,57,60
108672,note_on,,,,,256,0,15,,,,,7,,,64,100
108672,note_on,,,,,0,0,15,,,,,7,,,61,100
108672,note_on,,,,,256,0,8,,,,,0,,,73,45
108672,note_on,,,,,256,0,13,,,,,5,,,45,60
108672,note_on,,,,,256,0,11,,,,,3,,,64,60
108672,note_on,,,,,256,0,16,,,,,7,,,45,100
108672,note_on,,,,,256,0,14,,,,,6,,,33,60
108676,note_on,,,,,32,0,9,,,,,1,,,67,85
108740,note_off,,,,,64,0,9,,,,,1,,,67,100
108772,note_on,,,,,32,0,9,,,,,1,,,69,85
108800,note_off,,,,,128,0,11,,,,,3,,,64,100
108800,note_off,,,,,128,0,13,,,,,5,,,45,100
108800,note_off,,,,,128,0,12,,,,,4,,,57,100
108800,note_off,,,,,128,0,14,,,,,6,,,33,100
108800,note_off,,,,,128,0,16,,,,,7,,,45,100
108800,note_off,,,,,128,0,15,,,,,7,,,64,100
108800,note_off,,,,,128,0,10,,,,,2,,,73,100
108800,note_off,,,,,128,0,8,,,,,0,,,73,100
108800,note_off,,,,,0,0,15,,,,,7,,,61,100
108836,note_off,,,,,64,0,9,,,,,1,,,69,100
108868,note_on,,,,,32,0,9,,,,,1,,,71,85
108932,note_off,,,,,64,0,9,,,,,1,,,71,100
108964,note_on,,,,,32,0,9,,,,,1,,,73,85
109028,note_off,,,,,64,0,9,,,,,1,,,73,100
109052,program_change,,,,,252,0,8,,,,,0,40,,,
109056,note_on,,,,,256,0,10,,,,,2,,,74,60
109056,note_on,,,,,256,0,11,,,,,3,,,62,60
109056,note_on,,,,,4,0,8,,,,,0,,,74,85
109056,note_on,,,,,28,0,9,,,,,1,,,74,85
109056,note_on,,,,,0,0,12,,,,,4,,,57,60
109056,note_on,,,,,256,0,12,,,,,4,,,54,60
109056,note_on,,,,,256,0,14,,,,,6,,,38,60
109056,note_on,,,,,256,0,13,,,,,5,,,50,60
109120,note_off,,,,,64,0,8,,,,,0,,,74,100
109152,note_on,,,,,32,0,8,,,,,0,,,74,85
109216,note_off,,,,,64,0,8,,,,,0,,,74,100
109248,note_on,,,,,32,0,8,,,,,0,,,73,85
109312,note_off,,,,,256,0,9,,,,,1,,,74,100
109312,note_off,,,,,256,0,11,,,,,3,,,62,100
109312,note_off,,,,,256,0,10,,,,,2,,,74,100
109312,note_off,,,,,64,0,8,,,,,0,,,73,100
109312,note_off,,,,,256,0,12,,,,,4,,,54,100
109312,note_off,,,,,0,0,12,,,,,4,,,57,100
109344,note_on,,,,,32,0,8,,,,,0,,,74,85
109408,note_off,,,,,64,0,8,,,,,0,,,74,100
109440,note_on,,,,,32,0,8,,,,,0,,,69,85
109504,note_off,,,,,64,0,8,,,,,0,,,69,100
109536,note_on,,,,,32,0,8,,,,,0,,,74,85
109600,note_off,,,,,64,0,8,,,,,0,,,74,100
109632,note_on,,,,,32,0,8,,,,,0,,,73,85
109696,note_off,,,,,64,0,8,,,,,0,,,73,100
109728,note_on,,,,,32,0,8,,,,,0,,,74,85
109792,note_off,,,,,64,0,8,,,,,0,,,74,100
109824,note_on,,,,,32,0,8,,,,,0,,,69,85
109888,note_off,,,,,64,0,8,,,,,0,,,69,100
109920,note_on,,,,,32,0,8,,,,,0,,,76,85
109984,note_off,,,,,64,0,8,,,,,0,,,76,100
110016,note_on,,,,,32,0,8,,,,,0,,,74,85
110080,note_off,,,,,64,0,8,,,,,0,,,74,100
110112,note_on,,,,,32,0,8,,,,,0,,,76,85
110176,note_off,,,,,64,0,8,,,,,0,,,76,100
110208,note_on,,,,,32,0,8,,,,,0,,,69,85
110272,note_off,,,,,64,0,8,,,,,0,,,69,100
110304,note_on,,,,,32,0,8,,,,,0,,,76,85
110368,note_off,,,,,64,0,8,,,,,0,,,76,100
110400,note_on,,,,,32,0,8,,,,,0,,,74,85
110464,note_off,,,,,64,0,8,,,,,0,,,74,100
110496,note_on,,,,,32,0,8,,,,,0,,,76,85
110560,note_off,,,,,64,0,8,,,,,0,,,76,100
110592,note_on,,,,,32,0,8,,,,,0,,,69,85
110656,note_off,,,,,64,0,8,,,,,0,,,69,100
110688,note_on,,,,,32,0,8,,,,,0,,,78,85
110752,note_off,,,,,64,0,8,,,,,0,,,78,100
110784,note_on,,,,,32,0,8,,,,,0,,,76,85
110848,note_off,,,,,64,0,8,,,,,0,,,76,100
110880,note_on,,,,,32,0,8,,,,,0,,,78,85
110944,note_off,,,,,64,0,8,,,,,0,,,78,100
110976,note_on,,,,,32,0,8,,,,,0,,,69,85
111040,note_off,,,,,64,0,8,,,,,0,,,69,100
111072,note_on,,,,,32,0,8,,,,,0,,,78,85
111136,note_off,,,,,64,0,8,,,,,0,,,78,100
111168,note_on,,,,,32,0,8,,,,,0,,,76,85
111232,note_off,,,,,64,0,8,,,,,0,,,76,100
111264,note_on,,,,,32,0,8,,,,,0,,,78,85
111328,note_off,,,,,64,0,8,,,,,0,,,78,100
111360,note_on,,,,,32,0,8,,,,,0,,,69,85
111424,note_off,,,,,64,0,8,,,,,0,,,69,100
111456,note_on,,,,,32,0,8,,,,,0,,,79,85
111520,note_off,,,,,64,0,8,,,,,0,,,79,100
111552,note_on,,,,,32,0,8,,,,,0,,,78,85
111616,note_off,,,,,64,0,8,,,,,0,,,78,100
111648,note_on,,,,,32,0,8,,,,,0,,,79,85
111712,note_off,,,,,64,0,8,,,,,0,,,79,100
111744,note_on,,,,,32,0,8,,,,,0,,,69,85
111808,note_off,,,,,64,0,8,,,,,0,,,69,100
111840,note_on,,,,,32,0,8,,,,,0,,,79,85
111904,note_off,,,,,64,0,8,,,,,0,,,79,100
111936,note_on,,,,,32,0,8,,,,,0,,,78,85
112000,note_off,,,,,64,0,8,,,,,0,,,78,100
112032,note_on,,,,,32,0,8,,,,,0,,,79,85
112096,note_off,,,,,64,0,8,,,,,0,,,79,100
112128,note_on,,,,,32,0,8,,,,,0,,,69,85
112192,note_off,,,,,64,0,8,,,,,0,,,69,100
112224,note_on,,,,,32,0,8,,,,,0,,,81,85
112288,note_off,,,,,64,0,8,,,,,0,,,81,100
112320,note_on,,,,,32,0,8,,,,,0,,,79,85
112384,note_off,,,,,64,0,8,,,,,0,,,79,100
112416,note_on,,,,,32,0,8,,,,,0,,,81,85
112480,note_off,,,,,64,0,8,,,,,0,,,81,100
112512,note_on,,,,,32,0,8,,,,,0,,,69,85
112576,note_off,,,,,64,0,8,,,,,0,,,69,100
112608,note_on,,,,,32,0,8,,,,,0,,,83,85
112672,note_off,,,,,64,0,8,,,,,0,,,83,100
112704,note_on,,,,,32,0,8,,,,,0,,,81,85
112768,note_off,,,,,64,0,8,,,,,0,,,81,100
112800,note_on,,,,,32,0,8,,,,,0,,,83,85
112864,note_off,,,,,64,0,8,,,,,0,,,83,100
112896,note_on,,,,,32,0,8,,,,,0,,,69,85
112960,note_off,,,,,64,0,8,,,,,0,,,69,100
112992,note_on,,,,,32,0,8,,,,,0,,,85,85
113056,note_off,,,,,64,0,8,,,,,0,,,85,100
113088,note_on,,,,,32,0,8,,,,,0,,,83,85
113152,note_off,,,,,64,0,8,,,,,0,,,83,100
113184,note_on,,,,,32,0,8,,,,,0,,,85,85
113248,note_off,,,,,64,0,8,,,,,0,,,85,100
113280,note_on,,,,,32,0,8,,,,,0,,,69,85
113344,note_off,,,,,64,0,8,,,,,0,,,69,100
113376,note_on,,,,,32,0,8,,,,,0,,,86,85
113440,note_off,,,,,64,0,8,,,,,0,,,86,100
113472,note_on,,,,,32,0,8,,,,,0,,,85,85
113536,note_off,,,,,64,0,8,,,,,0,,,85,100
113568,note_on,,,,,32,0,8,,,,,0,,,86,85
113632,note_off,,,,,64,0,8,,,,,0,,,86,100
113660,program_change,,,,,4348,0,10,,,,,2,40,,,
113660,program_change,,,,,4348,0,11,,,,,3,40,,,
113664,note_on,,,,,4,0,11,,,,,3,,,78,85
113664,note_on,,,,,32,0,8,,,,,0,,,69,85
113664,note_on,,,,,4,0,10,,,,,2,,,81,85
113756,note_off,,,,,92,0,11,,,,,3,,,78,100
113756,note_off,,,,,92,0,10,,,,,2,,,81,100
113760,note_on,,,,,4,0,11,,,,,3,,,76,85
113760,note_on,,,,,4,0,10,,,,,2,,,79,85
113852,note_off,,,,,92,0,10,,,,,2,,,79,100
113852,note_off,,,,,92,0,11,,,,,3,,,76,100
113856,note_on,,,,,4,0,11,,,,,3,,,74,85
113856,note_on,,,,,4,0,10,,,,,2,,,78,85
113920,note_off,,,,,64,0,10,,,,,2,,,78,100
113920,note_off,,,,,256,0,8,,,,,0,,,69,100
113920,note_off,,,,,64,0,11,,,,,3,,,74,100
113952,note_on,,,,,32,0,11,,,,,3,,,76,85
113952,note_on,,,,,32,0,10,,,,,2,,,79,85
114016,note_off,,,,,64,0,10,,,,,2,,,79,100
114016,note_off,,,,,64,0,11,,,,,3,,,76,100
114048,note_on,,,,,32,0,11,,,,,3,,,78,85
114048,note_on,,,,,32,0,10,,,,,2,,,81,85
114112,note_off,,,,,64,0,11,,,,,3,,,78,100
114112,note_off,,,,,64,0,10,,,,,2,,,81,100
114144,note_on,,,,,32,0,10,,,,,2,,,79,85
114144,note_on,,,,,32,0,11,,,,,3,,,76,85
114208,note_off,,,,,64,0,10,,,,,2,,,79,100
114208,note_off,,,,,64,0,11,,,,,3,,,76,100
114240,note_on,,,,,32,0,11,,,,,3,,,78,85
114240,note_on,,,,,32,0,10,,,,,2,,,81,85
114304,note_off,,,,,64,0,11,,,,,3,,,78,100
114304,note_off,,,,,64,0,10,,,,,2,,,81,100
114336,note_on,,,,,32,0,11,,,,,3,,,74,85
114336,note_on,,,,,32,0,10,,,,,2,,,78,85
114400,note_off,,,,,64,0,10,,,,,2,,,78,100
114400,note_off,,,,,64,0,11,,,,,3,,,74,100
114432,note_on,,,,,32,0,10,,,,,2,,,83,85
114432,note_on,,,,,32,0,11,,,,,3,,,79,85
114524,note_off,,,,,92,0,10,,,,,2,,,83,100
114524,note_off,,,,,92,0,11,,,,,3,,,79,100
114528,note_on,,,,,4,0,10,,,,,2,,,81,85
114528,note_on,,,,,4,0,11,,,,,3,,,78,85
114620,note_off,,,,,92,0,11,,,,,3,,,78,100
114620,note_off,,,,,92,0,10,,,,,2,,,81,100
114624,note_on,,,,,4,0,11,,,,,3,,,76,85
114624,note_on,,,,,4,0,10,,,,,2,,,79,85
114688,note_off,,,,,64,0,11,,,,,3,,,76,100
114688,note_off,,,,,64,0,10,,,,,2,,,79,100
114720,note_on,,,,,32,0,11,,,,,3,,,78,85
114720,note_on,,,,,32,0,10,,,,,2,,,81,85
114784,note_off,,,,,64,0,11,,,,,3,,,78,100
114784,note_off,,,,,64,0,10,,,,,2,,,81,100
114816,note_on,,,,,32,0,11,,,,,3,,,79,85
114816,note_on,,,,,32,0,10,,,,,2,,,83,85
114880,note_off,,,,,64,0,10,,,,,2,,,83,100
114880,note_off,,,,,64,0,11,,,,,3,,,79,100
114912,note_on,,,,,32,0,10,,,,,2,,,81,85
114912,note_on,,,,,32,0,11,,,,,3,,,78,85
114976,note_off,,,,,64,0,10,,,,,2,,,81,100
114976,note_off,,,,,64,0,11,,,,,3,,,78,100
115008,note_on,,,,,32,0,11,,,,,3,,,79,85
115008,note_on,,,,,32,0,10,,,,,2,,,83,85
115072,note_off,,,,,64,0,10,,,,,2,,,83,100
115072,note_off,,,,,64,0,11,,,,,3,,,79,100
115104,note_on,,,,,32,0,10,,,,,2,,,79,85
115104,note_on,,,,,32,0,11,,,,,3,,,76,85
115168,note_off,,,,,64,0,11,,,,,3,,,76,100
115168,note_off,,,,,64,0,10,,,,,2,,,79,100
115200,note_on,,,,,32,0,11,,,,,3,,,78,85
115200,note_on,,,,,5888,0,9,,,,,1,,,78,85
115200,note_on,,,,,32,0,10,,,,,2,,,81,85
115200,note_on,,,,,1280,0,8,,,,,0,,,81,85
115264,note_off,,,,,64,0,8,,,,,0,,,81,100
115264,note_off,,,,,64,0,9,,,,,1,,,78,100
115296,note_on,,,,,32,0,8,,,,,0,,,79,70
115296,note_on,,,,,32,0,9,,,,,1,,,76,70
115388,note_off,,,,,92,0,8,,,,,0,,,79,100
115388,note_off,,,,,92,0,9,,,,,1,,,76,100
115392,note_on,,,,,4,0,8,,,,,0,,,78,70
115392,note_on,,,,,4,0,9,,,,,1,,,74,70
115456,note_off,,,,,64,0,9,,,,,1,,,74,100
115456,note_off,,,,,256,0,10,,,,,2,,,81,100
115456,note_off,,,,,256,0,11,,,,,3,,,78,100
115456,note_off,,,,,64,0,8,,,,,0,,,78,100
115488,note_on,,,,,32,0,9,,,,,1,,,76,70
115488,note_on,,,,,32,0,8,,,,,0,,,79,70
115552,note_off,,,,,64,0,9,,,,,1,,,76,100
115552,note_off,,,,,64,0,8,,,,,0,,,79,100
115584,note_on,,,,,32,0,8,,,,,0,,,81,70
115584,note_on,,,,,32,0,9,,,,,1,,,78,70
115648,note_off,,,,,64,0,9,,,,,1,,,78,100
115648,note_off,,,,,64,0,8,,,,,0,,,81,100
115680,note_on,,,,,32,0,8,,,,,0,,,79,70
115680,note_on,,,,,32,0,9,,,,,1,,,76,70
115744,note_off,,,,,64,0,8,,,,,0,,,79,100
115744,note_off,,,,,64,0,9,,,,,1,,,76,100
115776,note_on,,,,,32,0,8,,,,,0,,,81,70
115776,note_on,,,,,32,0,9,,,,,1,,,78,70
115840,note_off,,,,,64,0,9,,,,,1,,,78,100
115840,note_off,,,,,64,0,8,,,,,0,,,81,100
115872,note_on,,,,,32,0,9,,,,,1,,,74,70
115872,note_on,,,,,32,0,8,,,,,0,,,78,70
115936,note_off,,,,,64,0,9,,,,,1,,,74,100
115936,note_off,,,,,64,0,8,,,,,0,,,78,100
115968,note_on,,,,,32,0,9,,,,,1,,,79,70
115968,note_on,,,,,32,0,8,,,,,0,,,83,70
116060,note_off,,,,,92,0,8,,,,,0,,,83,100
116060,note_off,,,,,92,0,9,,,,,1,,,79,100
116064,note_on,,,,,4,0,9,,,,,1,,,78,70
116064,note_on,,,,,4,0,8,,,,,0,,,81,70
116156,note_off,,,,,92,0,9,,,,,1,,,78,100
116156,note_off,,,,,92,0,8,,,,,0,,,81,100
116160,note_on,,,,,4,0,9,,,,,1,,,76,70
116160,note_on,,,,,4,0,8,,,,,0,,,79,70
116224,note_off,,,,,64,0,8,,,,,0,,,79,100
116224,note_off,,,,,64,0,9,,,,,1,,,76,100
116256,note_on,,,,,32,0,9,,,,,1,,,78,70
116256,note_on,,,,,32,0,8,,,,,0,,,81,70
116320,note_off,,,,,64,0,8,,,,,0,,,81,100
116320,note_off,,,,,64,0,9,,,,,1,,,78,100
116352,note_on,,,,,32,0,8,,,,,0,,,83,70
116352,note_on,,,,,32,0,9,,,,,1,,,79,70
116416,note_off,,,,,64,0,8,,,,,0,,,83,100
116416,note_off,,,,,64,0,9,,,,,1,,,79,100
116448,note_on,,,,,32,0,9,,,,,1,,,78,70
116448,note_on,,,,,32,0,8,,,,,0,,,81,70
116512,note_off,,,,,64,0,9,,,,,1,,,78,100
116512,note_off,,,,,64,0,8,,,,,0,,,81,100
116544,note_on,,,,,32,0,9,,,,,1,,,79,70
116544,note_on,,,,,32,0,8,,,,,0,,,83,70
116608,note_off,,,,,64,0,8,,,,,0,,,83,100
116608,note_off,,,,,64,0,9,,,,,1,,,79,100
116640,note_on,,,,,32,0,9,,,,,1,,,76,70
116640,note_on,,,,,32,0,8,,,,,0,,,79,70
116704,note_off,,,,,64,0,8,,,,,0,,,79,100
116704,note_off,,,,,64,0,9,,,,,1,,,76,100
116736,note_on,,,,,1280,0,10,,,,,2,,,81,85
116736,note_on,,,,,1280,0,11,,,,,3,,,78,85
116736,note_on,,,,,32,0,8,,,,,0,,,81,85
116736,note_on,,,,,32,0,9,,,,,1,,,78,85
116800,note_off,,,,,64,0,11,,,,,3,,,78,100
116800,note_off,,,,,64,0,10,,,,,2,,,81,100
116832,note_on,,,,,32,0,10,,,,,2,,,83,85
116832,note_on,,,,,32,0,11,,,,,3,,,79,85
116896,note_off,,,,,64,0,10,,,,,2,,,83,100
116896,note_off,,,,,64,0,11,,,,,3,,,79,100
116928,note_on,,,,,32,0,10,,,,,2,,,81,85
116928,note_on,,,,,32,0,11,,,,,3,,,78,85
116992,note_off,,,,,64,0,11,,,,,3,,,78,100
116992,note_off,,,,,64,0,10,,,,,2,,,81,100
116992,note_off,,,,,256,0,8,,,,,0,,,81,100
116992,note_off,,,,,256,0,9,,,,,1,,,78,100
117024,note_on,,,,,32,0,11,,,,,3,,,79,85
117024,note_on,,,,,32,0,10,,,,,2,,,83,85
117088,note_off,,,,,64,0,11,,,,,3,,,79,100
117088,note_off,,,,,64,0,10,,,,,2,,,83,100
117120,note_on,,,,,32,0,11,,,,,3,,,78,85
117120,note_on,,,,,32,0,10,,,,,2,,,81,85
117184,note_off,,,,,64,0,11,,,,,3,,,78,100
117184,note_off,,,,,64,0,10,,,,,2,,,81,100
117216,note_on,,,,,32,0,11,,,,,3,,,79,85
117216,note_on,,,,,32,0,10,,,,,2,,,83,85
117280,note_off,,,,,64,0,10,,,,,2,,,83,100
117280,note_off,,,,,64,0,11,,,,,3,,,79,100
117312,note_on,,,,,32,0,10,,,,,2,,,81,85
117312,note_on,,,,,32,0,11,,,,,3,,,78,85
117376,note_off,,,,,64,0,10,,,,,2,,,81,100
117376,note_off,,,,,64,0,11,,,,,3,,,78,100
117408,note_on,,,,,32,0,10,,,,,2,,,83,85
117408,note_on,,,,,32,0,11,,,,,3,,,79,85
117472,note_off,,,,,64,0,11,,,,,3,,,79,100
117472,note_off,,,,,64,0,10,,,,,2,,,83,100
117504,note_on,,,,,32,0,11,,,,,3,,,76,85
117504,note_on,,,,,32,0,10,,,,,2,,,79,85
117568,note_off,,,,,64,0,11,,,,,3,,,76,100
117568,note_off,,,,,64,0,10,,,,,2,,,79,100
117600,note_on,,,,,32,0,10,,,,,2,,,81,85
117600,note_on,,,,,32,0,11,,,,,3,,,78,85
117664,note_off,,,,,64,0,10,,,,,2,,,81,100
117664,note_off,,,,,64,0,11,,,,,3,,,78,100
117696,note_on,,,,,32,0,10,,,,,2,,,79,85
117696,note_on,,,,,32,0,11,,,,,3,,,76,85
117760,note_off,,,,,64,0,10,,,,,2,,,79,100
117760,note_off,,,,,64,0,11,,,,,3,,,76,100
117792,note_on,,,,,32,0,10,,,,,2,,,81,85
117792,note_on,,,,,32,0,11,,,,,3,,,78,85
117856,note_off,,,,,64,0,10,,,,,2,,,81,100
117856,note_off,,,,,64,0,11,,,,,3,,,78,100
117888,note_on,,,,,32,0,10,,,,,2,,,79,85
117888,note_on,,,,,32,0,11,,,,,3,,,76,85
117952,note_off,,,,,64,0,11,,,,,3,,,76,100
117952,note_off,,,,,64,0,10,,,,,2,,,79,100
117984,note_on,,,,,32,0,10,,,,,2,,,81,85
117984,note_on,,,,,32,0,11,,,,,3,,,78,85
118048,note_off,,,,,64,0,11,,,,,3,,,78,100
118048,note_off,,,,,64,0,10,,,,,2,,,81,100
118080,note_on,,,,,32,0,11,,,,,3,,,76,85
118080,note_on,,,,,32,0,10,,,,,2,,,79,85
118144,note_off,,,,,64,0,11,,,,,3,,,76,100
118144,note_off,,,,,64,0,10,,,,,2,,,79,100
118176,note_on,,,,,32,0,11,,,,,3,,,78,85
118176,note_on,,,,,32,0,10,,,,,2,,,81,85
118240,note_off,,,,,64,0,10,,,,,2,,,81,100
118240,note_off,,,,,64,0,11,,,,,3,,,78,100
118272,note_on,,,,,32,0,10,,,,,2,,,78,85
118272,note_on,,,,,1280,0,8,,,,,0,,,81,70
118272,note_on,,,,,1280,0,9,,,,,1,,,78,70
118272,note_on,,,,,32,0,11,,,,,3,,,74,85
118336,note_off,,,,,64,0,9,,,,,1,,,78,100
118336,note_off,,,,,64,0,8,,,,,0,,,81,100
118368,note_on,,,,,32,0,8,,,,,0,,,83,70
118368,note_on,,,,,32,0,9,,,,,1,,,79,70
118432,note_off,,,,,64,0,8,,,,,0,,,83,100
118432,note_off,,,,,64,0,9,,,,,1,,,79,100
118464,note_on,,,,,32,0,8,,,,,0,,,81,70
118464,note_on,,,,,32,0,9,,,,,1,,,78,70
118528,note_off,,,,,64,0,9,,,,,1,,,78,100
118528,note_off,,,,,256,0,11,,,,,3,,,74,100
118528,note_off,,,,,64,0,8,,,,,0,,,81,100
118528,note_off,,,,,256,0,10,,,,,2,,,78,100
118560,note_on,,,,,32,0,9,,,,,1,,,79,70
118560,note_on,,,,,32,0,8,,,,,0,,,83,70
118624,note_off,,,,,64,0,8,,,,,0,,,83,100
118624,note_off,,,,,64,0,9,,,,,1,,,79,100
118656,note_on,,,,,32,0,8,,,,,0,,,81,70
118656,note_on,,,,,32,0,9,,,,,1,,,78,70
118720,note_off,,,,,64,0,9,,,,,1,,,78,100
118720,note_off,,,,,64,0,8,,,,,0,,,81,100
118752,note_on,,,,,32,0,9,,,,,1,,,79,70
118752,note_on,,,,,32,0,8,,,,,0,,,83,70
118816,note_off,,,,,64,0,9,,,,,1,,,79,100
118816,note_off,,,,,64,0,8,,,,,0,,,83,100
118848,note_on,,,,,32,0,8,,,,,0,,,81,70
118848,note_on,,,,,32,0,9,,,,,1,,,78,70
118912,note_off,,,,,64,0,8,,,,,0,,,81,100
118912,note_off,,,,,64,0,9,,,,,1,,,78,100
118944,note_on,,,,,32,0,9,,,,,1,,,79,70
118944,note_on,,,,,32,0,8,,,,,0,,,83,70
119008,note_off,,,,,64,0,9,,,,,1,,,79,100
119008,note_off,,,,,64,0,8,,,,,0,,,83,100
119040,note_on,,,,,32,0,9,,,,,1,,,76,70
119040,note_on,,,,,32,0,8,,,,,0,,,79,70
119104,note_off,,,,,64,0,8,,,,,0,,,79,100
119104,note_off,,,,,64,0,9,,,,,1,,,76,100
119136,note_on,,,,,32,0,8,,,,,0,,,81,70
119136,note_on,,,,,32,0,9,,,,,1,,,78,70
119200,note_off,,,,,64,0,8,,,,,0,,,81,100
119200,note_off,,,,,64,0,9,,,,,1,,,78,100
119232,note_on,,,,,32,0,8,,,,,0,,,79,70
119232,note_on,,,,,32,0,9,,,,,1,,,76,70
119296,note_off,,,,,64,0,8,,,,,0,,,79,100
119296,note_off,,,,,64,0,9,,,,,1,,,76,100
119328,note_on,,,,,32,0,9,,,,,1,,,78,70
119328,note_on,,,,,32,0,8,,,,,0,,,81,70
119392,note_off,,,,,64,0,8,,,,,0,,,81,100
119392,note_off,,,,,64,0,9,,,,,1,,,78,100
119424,note_on,,,,,32,0,8,,,,,0,,,79,70
119424,note_on,,,,,32,0,9,,,,,1,,,76,70
119488,note_off,,,,,64,0,9,,,,,1,,,76,100
119488,note_off,,,,,64,0,8,,,,,0,,,79,100
119520,note_on,,,,,32,0,9,,,,,1,,,78,70
119520,note_on,,,,,32,0,8,,,,,0,,,81,70
119584,note_off,,,,,64,0,8,,,,,0,,,81,100
119584,note_off,,,,,64,0,9,,,,,1,,,78,100
119616,note_on,,,,,32,0,9,,,,,1,,,76,70
119616,note_on,,,,,32,0,8,,,,,0,,,79,70
119680,note_off,,,,,64,0,9,,,,,1,,,76,100
119680,note_off,,,,,64,0,8,,,,,0,,,79,100
119712,note_on,,,,,32,0,8,,,,,0,,,81,70
119712,note_on,,,,,32,0,9,,,,,1,,,78,70
119776,note_off,,,,,64,0,8,,,,,0,,,81,100
119776,note_off,,,,,64,0,9,,,,,1,,,78,100
119808,note_on,,,,,32,0,8,,,,,0,,,78,70
119808,note_on,,,,,32,0,9,,,,,1,,,74,70
119904,note_on,,,,,1376,0,10,,,,,2,,,81,85
119968,note_off,,,,,64,0,10,,,,,2,,,81,100
120000,note_on,,,,,32,0,10,,,,,2,,,79,85
120064,note_off,,,,,64,0,10,,,,,2,,,79,100
120064,note_off,,,,,256,0,9,,,,,1,,,74,100
120064,note_off,,,,,256,0,8,,,,,0,,,78,100
120096,note_on,,,,,32,0,10,,,,,2,,,81,85
120160,note_off,,,,,64,0,10,,,,,2,,,81,100
120192,note_on,,,,,32,0,10,,,,,2,,,78,85
120288,note_on,,,,,224,0,8,,,,,0,,,81,90
120352,note_off,,,,,64,0,8,,,,,0,,,81,100
120384,note_on,,,,,32,0,8,,,,,0,,,79,90
120448,note_off,,,,,64,0,8,,,,,0,,,79,100
120448,note_off,,,,,256,0,10,,,,,2,,,78,100
120480,note_on,,,,,32,0,8,,,,,0,,,81,90
120544,note_off,,,,,64,0,8,,,,,0,,,81,100
120576,note_on,,,,,32,0,8,,,,,0,,,74,90
120672,note_on,,,,,2144,0,11,,,,,3,,,78,85
120736,note_off,,,,,64,0,11,,,,,3,,,78,100
120768,note_on,,,,,32,0,11,,,,,3,,,76,85
120832,note_off,,,,,256,0,8,,,,,0,,,74,100
120832,note_off,,,,,64,0,11,,,,,3,,,76,100
120864,note_on,,,,,32,0,11,,,,,3,,,78,85
120928,note_off,,,,,64,0,11,,,,,3,,,78,100
120960,note_on,,,,,32,0,11,,,,,3,,,74,85
121056,note_on,,,,,992,0,9,,,,,1,,,78,90
121120,note_off,,,,,64,0,9,,,,,1,,,78,100
121152,note_on,,,,,32,0,9,,,,,1,,,76,90
121216,note_off,,,,,256,0,11,,,,,3,,,74,100
121216,note_off,,,,,64,0,9,,,,,1,,,76,100
121248,note_on,,,,,32,0,9,,,,,1,,,78,90
121312,note_off,,,,,64,0,9,,,,,1,,,78,100
121344,note_on,,,,,32,0,9,,,,,1,,,69,90
121440,note_on,,,,,992,0,10,,,,,2,,,74,85
121504,note_off,,,,,64,0,10,,,,,2,,,74,100
121536,note_on,,,,,32,0,10,,,,,2,,,73,85
121600,note_off,,,,,64,0,10,,,,,2,,,73,100
121600,note_off,,,,,256,0,9,,,,,1,,,69,100
121632,note_on,,,,,32,0,10,,,,,2,,,74,85
121696,note_off,,,,,64,0,10,,,,,2,,,74,100
121728,note_on,,,,,32,0,10,,,,,2,,,69,85
121824,note_on,,,,,992,0,8,,,,,0,,,74,90
121888,note_off,,,,,64,0,8,,,,,0,,,74,100
121920,note_on,,,,,32,0,8,,,,,0,,,73,90
121984,note_off,,,,,64,0,8,,,,,0,,,73,100
121984,note_off,,,,,256,0,10,,,,,2,,,69,100
122016,note_on,,,,,32,0,8,,,,,0,,,74,90
122080,note_off,,,,,64,0,8,,,,,0,,,74,100
122112,note_on,,,,,32,0,8,,,,,0,,,66,90
122208,note_on,,,,,224,0,10,,,,,2,,,69,85
122272,note_off,,,,,64,0,10,,,,,2,,,69,100
122304,note_on,,,,,32,0,10,,,,,2,,,67,85
122368,note_off,,,,,256,0,8,,,,,0,,,66,100
122368,note_off,,,,,64,0,10,,,,,2,,,67,100
122400,note_on,,,,,32,0,10,,,,,2,,,69,85
122464,note_off,,,,,64,0,10,,,,,2,,,69,100
122496,note_on,,,,,32,0,10,,,,,2,,,66,85
122592,note_on,,,,,992,0,9,,,,,1,,,69,100
122656,note_off,,,,,64,0,9,,,,,1,,,69,100
122688,note_on,,,,,32,0,9,,,,,1,,,67,100
122752,note_off,,,,,64,0,9,,,,,1,,,67,100
122752,note_off,,,,,256,0,10,,,,,2,,,66,100
122784,note_on,,,,,32,0,9,,,,,1,,,69,100
122848,note_off,,,,,64,0,9,,,,,1,,,69,100
122880,program_change,,,,,32,0,9,,,,,1,48,,,
122880,note_on,,,,,512,0,8,,,,,0,,,78,100
122880,program_change,,,,,1664,0,11,,,,,3,48,,,
122880,note_on,,,,,0,0,9,,,,,1,,,62,100
122944,note_off,,,,,64,0,8,,,,,0,,,78,100
122976,note_on,,,,,32,0,8,,,,,0,,,76,100
123040,note_off,,,,,64,0,8,,,,,0,,,76,100
123072,note_on,,,,,32,0,8,,,,,0,,,74,100
123136,note_off,,,,,14080,0,14,,,,,6,,,38,100
123136,note_off,,,,,64,0,8,,,,,0,,,74,100
123136,note_off,,,,,14080,0,13,,,,,5,,,50,100
123136,note_off,,,,,256,0,9,,,,,1,,,62,100
123168,note_on,,,,,32,0,8,,,,,0,,,76,100
123232,note_off,,,,,64,0,8,,,,,0,,,76,100
123260,program_change,,,,,124,0,9,,,,,1,48,,,
123260,program_change,,,,,508,0,10,,,,,2,48,,,
123260,program_change,,,,,0,0,9,,,,,1,48,,,
123260,program_change,,,,,380,0,11,,,,,3,48,,,
123264,note_on,,,,,128,0,13,,,,,5,,,54,85
123264,note_on,,,,,32,0,8,,,,,0,,,78,100
123264,note_on,,,,,4,0,11,,,,,3,,,86,75
123264,note_on,,,,,13952,0,12,,,,,4,,,69,85
123264,note_on,,,,,14464,0,15,,,,,7,,,73,100
123264,note_on,,,,,0,0,15,,,,,7,,,69,100
123264,note_on,,,,,4,0,10,,,,,2,,,74,85
123264,note_on,,,,,4,0,9,,,,,1,,,86,85
123264,note_on,,,,,128,0,14,,,,,6,,,42,85
123264,note_on,,,,,14464,0,16,,,,,7,,,54,100
123328,note_off,,,,,64,0,8,,,,,0,,,78,100
123360,note_on,,,,,32,0,8,,,,,0,,,79,100
123392,note_off,,,,,128,0,14,,,,,6,,,42,100
123392,note_off,,,,,128,0,13,,,,,5,,,54,100
123392,note_off,,,,,128,0,12,,,,,4,,,69,100
123392,note_off,,,,,128,0,9,,,,,1,,,86,100
123392,note_off,,,,,128,0,11,,,,,3,,,86,100
123392,note_off,,,,,128,0,10,,,,,2,,,74,100
123392,note_off,,,,,0,0,15,,,,,7,,,69,100
123392,note_off,,,,,128,0,15,,,,,7,,,73,100
123392,note_off,,,,,128,0,16,,,,,7,,,54,100
123424,note_off,,,,,64,0,8,,,,,0,,,79,100
123456,note_on,,,,,32,0,8,,,,,0,,,81,100
123520,note_off,,,,,64,0,8,,,,,0,,,81,100
123552,note_on,,,,,32,0,8,,,,,0,,,78,100
123616,note_off,,,,,64,0,8,,,,,0,,,78,100
123648,note_on,,,,,256,0,10,,,,,2,,,76,85
123648,note_on,,,,,256,0,13,,,,,5,,,55,85
123648,note_on,,,,,256,0,15,,,,,7,,,76,100
123648,note_on,,,,,0,0,15,,,,,7,,,74,100
123648,note_on,,,,,256,0,14,,,,,6,,,43,85
123648,note_on,,,,,256,0,16,,,,,7,,,55,100
123648,note_on,,,,,256,0,9,,,,,1,,,86,85
123648,note_on,,,,,256,0,11,,,,,3,,,86,75
123648,note_on,,,,,256,0,12,,,,,4,,,71,85
123648,note_on,,,,,32,0,8,,,,,0,,,83,100
123776,note_off,,,,,128,0,9,,,,,1,,,86,100
123776,note_off,,,,,128,0,10,,,,,2,,,76,100
123776,note_off,,,,,128,0,14,,,,,6,,,43,100
123776,note_off,,,,,128,0,13,,,,,5,,,55,100
123776,note_off,,,,,128,0,11,,,,,3,,,86,100
123776,note_off,,,,,128,0,8,,,,,0,,,83,100
123776,note_off,,,,,128,0,12,,,,,4,,,71,100
123776,note_off,,,,,0,0,15,,,,,7,,,74,100
123776,note_off,,,,,128,0,15,,,,,7,,,76,100
123776,note_off,,,,,128,0,16,,,,,7,,,55,100
123840,note_on,,,,,64,0,8,,,,,0,,,76,100
123904,note_off,,,,,64,0,8,,,,,0,,,76,100
123936,note_on,,,,,32,0,8,,,,,0,,,74,100
124000,note_off,,,,,64,0,8,,,,,0,,,74,100
124032,note_on,,,,,32,0,8,,,,,0,,,76,100
124032,note_on,,,,,256,0,12,,,,,4,,,69,85
124032,note_on,,,,,256,0,9,,,,,1,,,85,85
124032,note_on,,,,,256,0,11,,,,,3,,,85,75
124032,note_on,,,,,256,0,14,,,,,6,,,45,85
124032,note_on,,,,,256,0,13,,,,,5,,,57,85
124032,note_on,,,,,256,0,10,,,,,2,,,76,85
124032,note_on,,,,,256,0,15,,,,,7,,,76,100
124032,note_on,,,,,0,0,15,,,,,7,,,73,100
124032,note_on,,,,,256,0,16,,,,,7,,,57,100
124096,note_off,,,,,64,0,8,,,,,0,,,76,100
124128,note_on,,,,,32,0,8,,,,,0,,,78,100
124160,note_off,,,,,128,0,11,,,,,3,,,85,100
124160,note_off,,,,,128,0,10,,,,,2,,,76,100
124160,note_off,,,,,128,0,13,,,,,5,,,57,100
124160,note_off,,,,,128,0,15,,,,,7,,,76,100
124160,note_off,,,,,128,0,12,,,,,4,,,69,100
124160,note_off,,,,,128,0,9,,,,,1,,,85,100
124160,note_off,,,,,128,0,16,,,,,7,,,57,100
124160,note_off,,,,,128,0,14,,,,,6,,,45,100
124160,note_off,,,,,0,0,15,,,,,7,,,73,100
124192,note_off,,,,,64,0,8,,,,,0,,,78,100
124224,note_on,,,,,32,0,8,,,,,0,,,79,100
124288,note_off,,,,,64,0,8,,,,,0,,,79,100
124320,note_on,,,,,32,0,8,,,,,0,,,76,100
124384,note_off,,,,,64,0,8,,,,,0,,,76,100
124416,note_on,,,,,256,0,10,,,,,2,,,74,85
124416,note_on,,,,,32,0,8,,,,,0,,,81,100
124416,note_on,,,,,256,0,9,,,,,1,,,85,85
124416,note_on,,,,,256,0,12,,,,,4,,,69,85
124416,note_on,,,,,256,0,13,,,,,5,,,54,85
124416,note_on,,,,,256,0,14,,,,,6,,,42,85
124416,note_on,,,,,256,0,16,,,,,7,,,54,100
124416,note_on,,,,,256,0,15,,,,,7,,,74,100
124416,note_on,,,,,0,0,15,,,,,7,,,73,100
124416,note_on,,,,,256,0,11,,,,,3,,,85,75
124544,note_off,,,,,128,0,9,,,,,1,,,85,100
124544,note_off,,,,,128,0,10,,,,,2,,,74,100
124544,note_off,,,,,0,0,15,,,,,7,,,73,100
124544,note_off,,,,,128,0,12,,,,,4,,,69,100
124544,note_off,,,,,128,0,16,,,,,7,,,54,100
124544,note_off,,,,,128,0,8,,,,,0,,,81,100
124544,note_off,,,,,128,0,15,,,,,7,,,74,100
124544,note_off,,,,,128,0,13,,,,,5,,,54,100
124544,note_off,,,,,128,0,11,,,,,3,,,85,100
124544,note_off,,,,,128,0,14,,,,,6,,,42,100
124608,note_on,,,,,64,0,8,,,,,0,,,74,100
124672,note_off,,,,,64,0,8,,,,,0,,,74,100
124704,note_on,,,,,32,0,8,,,,,0,,,73,100
124768,note_off,,,,,64,0,8,,,,,0,,,73,100
124800,note_on,,,,,0,0,15,,,,,7,,,71,100
124800,note_on,,,,,256,0,15,,,,,7,,,74,100
124800,note_on,,,,,256,0,13,,,,,5,,,55,85
124800,note_on,,,,,256,0,12,,,,,4,,,67,85
124800,note_on,,,,,256,0,11,,,,,3,,,83,75
124800,note_on,,,,,256,0,16,,,,,7,,,55,100
124800,note_on,,,,,256,0,9,,,,,1,,,83,85
124800,note_on,,,,,256,0,14,,,,,6,,,43,85
124800,note_on,,,,,32,0,8,,,,,0,,,74,100
124800,note_on,,,,,256,0,10,,,,,2,,,74,85
124864,note_off,,,,,64,0,8,,,,,0,,,74,100
124896,note_on,,,,,32,0,8,,,,,0,,,76,100
124928,note_off,,,,,128,0,10,,,,,2,,,74,100
124928,note_off,,,,,128,0,16,,,,,7,,,55,100
124928,note_off,,,,,128,0,14,,,,,6,,,43,100
124928,note_off,,,,,128,0,9,,,,,1,,,83,100
124928,note_off,,,,,128,0,15,,,,,7,,,74,100
124928,note_off,,,,,128,0,11,,,,,3,,,83,100
124928,note_off,,,,,0,0,15,,,,,7,,,71,100
124928,note_off,,,,,128,0,12,,,,,4,,,67,100
124928,note_off,,,,,128,0,13,,,,,5,,,55,100
124960,note_off,,,,,64,0,8,,,,,0,,,76,100
124992,note_on,,,,,32,0,8,,,,,0,,,78,100
125056,note_off,,,,,64,0,8,,,,,0,,,78,100
125088,note_on,,,,,32,0,8,,,,,0,,,74,100
125152,note_off,,,,,64,0,8,,,,,0,,,74,100
125184,note_on,,,,,256,0,15,,,,,7,,,73,100
125184,note_on,,,,,256,0,11,,,,,3,,,83,75
125184,note_on,,,,,256,0,9,,,,,1,,,83,85
125184,note_on,,,,,32,0,8,,,,,0,,,79,100
125184,note_on,,,,,256,0,16,,,,,7,,,52,100
125184,note_on,,,,,256,0,10,,,,,2,,,73,85
125184,note_on,,,,,256,0,12,,,,,4,,,67,85
125184,note_on,,,,,0,0,15,,,,,7,,,71,100
125184,note_on,,,,,256,0,13,,,,,5,,,52,85
125184,note_on,,,,,256,0,14,,,,,6,,,40,85
125312,note_off,,,,,0,0,15,,,,,7,,,71,100
125312,note_off,,,,,128,0,12,,,,,4,,,67,100
125312,note_off,,,,,128,0,11,,,,,3,,,83,100
125312,note_off,,,,,128,0,14,,,,,6,,,40,100
125312,note_off,,,,,128,0,8,,,,,0,,,79,100
125312,note_off,,,,,128,0,16,,,,,7,,,52,100
125312,note_off,,,,,128,0,9,,,,,1,,,83,100
125312,note_off,,,,,128,0,10,,,,,2,,,73,100
125312,note_off,,,,,128,0,15,,,,,7,,,73,100
125312,note_off,,,,,128,0,13,,,,,5,,,52,100
125376,note_on,,,,,64,0,8,,,,,0,,,73,100
125440,note_off,,,,,64,0,8,,,,,0,,,73,100
125472,note_on,,,,,32,0,8,,,,,0,,,71,100
125536,note_off,,,,,64,0,8,,,,,0,,,71,100
125568,note_on,,,,,256,0,14,,,,,6,,,42,85
125568,note_on,,,,,256,0,10,,,,,2,,,73,85
125568,note_on,,,,,256,0,9,,,,,1,,,81,85
125568,note_on,,,,,256,0,16,,,,,7,,,54,100
125568,note_on,,,,,256,0,12,,,,,4,,,66,85
125568,note_on,,,,,256,0,11,,,,,3,,,81,75
125568,note_on,,,,,256,0,15,,,,,7,,,69,100
125568,note_on,,,,,0,0,15,,,,,7,,,73,100
125568,note_on,,,,,256,0,13,,,,,5,,,54,85
125568,note_on,,,,,32,0,8,,,,,0,,,73,100
125632,note_off,,,,,64,0,8,,,,,0,,,73,100
125664,note_on,,,,,32,0,8,,,,,0,,,74,100
125696,note_off,,,,,128,0,16,,,,,7,,,54,100
125696,note_off,,,,,128,0,14,,,,,6,,,42,100
125696,note_off,,,,,128,0,13,,,,,5,,,54,100
125696,note_off,,,,,128,0,11,,,,,3,,,81,100
125696,note_off,,,,,128,0,9,,,,,1,,,81,100
125696,note_off,,,,,128,0,15,,,,,7,,,69,100
125696,note_off,,,,,0,0,15,,,,,7,,,73,100
125696,note_off,,,,,128,0,10,,,,,2,,,73,100
125696,note_off,,,,,128,0,12,,,,,4,,,66,100
125728,note_off,,,,,64,0,8,,,,,0,,,74,100
125760,note_on,,,,,32,0,8,,,,,0,,,76,100
125824,note_off,,,,,64,0,8,,,,,0,,,76,100
125856,note_on,,,,,32,0,8,,,,,0,,,73,100
125920,note_off,,,,,64,0,8,,,,,0,,,73,100
125952,note_on,,,,,32,0,8,,,,,0,,,78,100
125952,note_on,,,,,256,0,16,,,,,7,,,50,100
125952,note_on,,,,,256,0,9,,,,,1,,,81,85
125952,note_on,,,,,256,0,10,,,,,2,,,71,85
125952,note_on,,,,,256,0,13,,,,,5,,,50,85
125952,note_on,,,,,256,0,14,,,,,6,,,38,85
125952,note_on,,,,,256,0,12,,,,,4,,,66,85
125952,note_on,,,,,0,0,15,,,,,7,,,69,100
125952,note_on,,,,,256,0,11,,,,,3,,,81,75
125952,note_on,,,,,256,0,15,,,,,7,,,71,100
126080,note_off,,,,,128,0,13,,,,,5,,,50,100
126080,note_off,,,,,128,0,15,,,,,7,,,71,100
126080,note_off,,,,,128,0,10,,,,,2,,,71,100
126080,note_off,,,,,128,0,14,,,,,6,,,38,100
126080,note_off,,,,,128,0,9,,,,,1,,,81,100
126080,note_off,,,,,128,0,8,,,,,0,,,78,100
126080,note_off,,,,,128,0,16,,,,,7,,,50,100
126080,note_off,,,,,128,0,12,,,,,4,,,66,100
126080,note_off,,,,,128,0,11,,,,,3,,,81,100
126080,note_off,,,,,0,0,15,,,,,7,,,69,100
126144,note_on,,,,,64,0,8,,,,,0,,,71,100
126208,note_off,,,,,64,0,8,,,,,0,,,71,100
126240,note_on,,,,,32,0,8,,,,,0,,,69,100
126304,note_off,,,,,64,0,8,,,,,0,,,69,100
126336,note_on,,,,,32,0,8,,,,,0,,,71,100
126336,note_on,,,,,256,0,15,,,,,7,,,71,100
126336,note_on,,,,,256,0,10,,,,,2,,,71,85
126336,note_on,,,,,256,0,9,,,,,1,,,79,85
126336,note_on,,,,,256,0,14,,,,,6,,,40,85
126336,note_on,,,,,256,0,11,,,,,3,,,79,75
126336,note_on,,,,,256,0,13,,,,,5,,,52,85
126336,note_on,,,,,256,0,16,,,,,7,,,52,100
126336,note_on,,,,,256,0,12,,,,,4,,,64,85
126336,note_on,,,,,0,0,15,,,,,7,,,67,100
126400,note_off,,,,,64,0,8,,,,,0,,,71,100
126432,note_on,,,,,32,0,8,,,,,0,,,73,100
126464,note_off,,,,,128,0,13,,,,,5,,,52,100
126464,note_off,,,,,128,0,12,,,,,4,,,64,100
126464,note_off,,,,,128,0,9,,,,,1,,,79,100
126464,note_off,,,,,128,0,10,,,,,2,,,71,100
126464,note_off,,,,,128,0,11,,,,,3,,,79,100
126464,note_off,,,,,128,0,14,,,,,6,,,40,100
126464,note_off,,,,,0,0,15,,,,,7,,,67,100
126464,note_off,,,,,128,0,16,,,,,7,,,52,100
126464,note_off,,,,,128,0,15,,,,,7,,,71,100
126496,note_off,,,,,64,0,8,,,,,0,,,73,100
126528,note_on,,,,,32,0,8,,,,,0,,,74,100
126592,note_off,,,,,64,0,8,,,,,0,,,74,100
126624,note_on,,,,,32,0,8,,,,,0,,,71,100
126688,note_off,,,,,64,0,8,,,,,0,,,71,100
126720,note_on,,,,,256,0,16,,,,,7,,,49,100
126720,note_on,,,,,256,0,10,,,,,2,,,69,85
126720,note_on,,,,,256,0,9,,,,,1,,,79,85
126720,note_on,,,,,256,0,13,,,,,5,,,49,85
126720,note_on,,,,,32,0,8,,,,,0,,,76,100
126720,note_on,,,,,256,0,14,,,,,6,,,37,85
126720,note_on,,,,,256,0,11,,,,,3,,,79,75
126720,note_on,,,,,256,0,15,,,,,7,,,69,100
126720,note_on,,,,,0,0,15,,,,,7,,,67,100
126720,note_on,,,,,256,0,12,,,,,4,,,64,85
126848,note_off,,,,,128,0,10,,,,,2,,,69,100
126848,note_off,,,,,128,0,9,,,,,1,,,79,100
126848,note_off,,,,,128,0,11,,,,,3,,,79,100
126848,note_off,,,,,128,0,16,,,,,7,,,49,100
126848,note_off,,,,,128,0,15,,,,,7,,,69,100
126848,note_off,,,,,128,0,8,,,,,0,,,76,100
126848,note_off,,,,,128,0,13,,,,,5,,,49,100
126848,note_off,,,,,128,0,12,,,,,4,,,64,100
126848,note_off,,,,,128,0,14,,,,,6,,,37,100
126848,note_off,,,,,0,0,15,,,,,7,,,67,100
126912,note_on,,,,,64,0,8,,,,,0,,,69,100
126976,note_off,,,,,64,0,8,,,,,0,,,69,100
127008,note_on,,,,,32,0,8,,,,,0,,,67,100
127072,note_off,,,,,64,0,8,,,,,0,,,67,100
127104,note_on,,,,,256,0,12,,,,,4,,,62,85
127104,note_on,,,,,256,0,14,,,,,6,,,38,85
127104,note_on,,,,,0,0,15,,,,,7,,,66,100
127104,note_on,,,,,256,0,11,,,,,3,,,78,75
127104,note_on,,,,,256,0,15,,,,,7,,,69,100
127104,note_on,,,,,256,0,13,,,,,5,,,50,85
127104,note_on,,,,,256,0,16,,,,,7,,,50,100
127104,note_on,,,,,32,0,8,,,,,0,,,69,100
127104,note_on,,,,,256,0,10,,,,,2,,,69,85
127104,note_on,,,,,256,0,9,,,,,1,,,78,85
127168,note_off,,,,,64,0,8,,,,,0,,,69,100
127200,note_on,,,,,32,0,8,,,,,0,,,71,100
127232,note_off,,,,,128,0,13,,,,,5,,,50,100
127232,note_off,,,,,128,0,14,,,,,6,,,38,100
127232,note_off,,,,,128,0,15,,,,,7,,,69,100
127232,note_off,,,,,0,0,15,,,,,7,,,66,100
127232,note_off,,,,,128,0,12,,,,,4,,,62,100
127232,note_off,,,,,128,0,9,,,,,1,,,78,100
127232,note_off,,,,,128,0,11,,,,,3,,,78,100
127232,note_off,,,,,128,0,16,,,,,7,,,50,100
127232,note_off,,,,,128,0,10,,,,,2,,,69,100
127264,note_off,,,,,64,0,8,,,,,0,,,71,100
127296,note_on,,,,,32,0,8,,,,,0,,,73,100
127360,note_off,,,,,64,0,8,,,,,0,,,73,100
127392,note_on,,,,,32,0,8,,,,,0,,,69,100
127456,note_off,,,,,64,0,8,,,,,0,,,69,100
127488,note_on,,,,,256,0,15,,,,,7,,,67,100
127488,set_tempo,,,,,30656,1,0,,555555,,,,,,,
127488,note_on,,,,,256,0,13,,,,,5,,,47,85
127488,note_on,,,,,0,0,15,,,,,7,,,66,100
127488,note_on,,,,,256,0,14,,,,,6,,,35,85
127488,note_on,,,,,256,0,12,,,,,4,,,62,85
127488,note_on,,,,,32,0,8,,,,,0,,,74,100
127488,note_on,,,,,256,0,16,,,,,7,,,47,100
127488,note_on,,,,,256,0,9,,,,,1,,,78,85
127488,note_on,,,,,256,0,11,,,,,3,,,78,75
127488,note_on,,,,,256,0,10,,,,,2,,,67,85
127588,set_tempo,,,,,100,1,0,,560747,,,,,,,
127616,note_off,,,,,128,0,16,,,,,7,,,47,100
127616,note_off,,,,,128,0,9,,,,,1,,,78,100
127616,note_off,,,,,128,0,13,,,,,5,,,47,100
127616,note_off,,,,,128,0,14,,,,,6,,,35,100
127616,note_off,,,,,128,0,10,,,,,2,,,67,100
127616,note_off,,,,,0,0,15,,,,,7,,,66,100
127616,note_off,,,,,128,0,11,,,,,3,,,78,100
127616,note_off,,,,,128,0,12,,,,,4,,,62,100
127616,note_off,,,,,128,0,8,,,,,0,,,74,100
127616,note_off,,,,,128,0,15,,,,,7,,,67,100
127680,note_on,,,,,64,0,8,,,,,0,,,67,100
127692,set_tempo,,,,,104,1,0,,566037,,,,,,,
127744,note_off,,,,,64,0,8,,,,,0,,,67,100
127776,note_on,,,,,32,0,8,,,,,0,,,66,100
127792,set_tempo,,,,,100,1,0,,571428,,,,,,,
127840,note_off,,,,,64,0,8,,,,,0,,,66,100
127872,note_on,,,,,256,0,14,,,,,6,,,40,85
127872,note_on,,,,,256,0,12,,,,,4,,,59,85
127872,note_on,,,,,32,0,8,,,,,0,,,67,100
127872,note_on,,,,,256,0,9,,,,,1,,,76,85
127872,note_on,,,,,256,0,10,,,,,2,,,67,85
127872,note_on,,,,,256,0,15,,,,,7,,,71,100
127872,note_on,,,,,256,0,16,,,,,7,,,52,100
127872,note_on,,,,,256,0,13,,,,,5,,,52,85
127872,note_on,,,,,0,0,15,,,,,7,,,67,100
127872,note_on,,,,,256,0,11,,,,,3,,,76,75
127896,set_tempo,,,,,104,1,0,,576923,,,,,,,
127936,note_off,,,,,64,0,8,,,,,0,,,67,100
127968,note_on,,,,,32,0,8,,,,,0,,,69,100
128000,note_off,,,,,128,0,9,,,,,1,,,76,100
128000,note_off,,,,,128,0,16,,,,,7,,,52,100
128000,note_off,,,,,128,0,11,,,,,3,,,76,100
128000,note_off,,,,,128,0,15,,,,,7,,,71,100
128000,note_off,,,,,128,0,10,,,,,2,,,67,100
128000,note_off,,,,,128,0,14,,,,,6,,,40,100
128000,note_off,,,,,128,0,13,,,,,5,,,52,100
128000,note_off,,,,,128,0,12,,,,,4,,,59,100
128000,note_off,,,,,0,0,15,,,,,7,,,67,100
128000,set_tempo,,,,,104,1,0,,582524,,,,,,,
128032,note_off,,,,,64,0,8,,,,,0,,,69,100
128064,note_on,,,,,32,0,8,,,,,0,,,71,100
128100,set_tempo,,,,,100,1,0,,588235,,,,,,,
128128,note_off,,,,,64,0,8,,,,,0,,,71,100
128160,note_on,,,,,32,0,8,,,,,0,,,67,100
128204,set_tempo,,,,,104,1,0,,594059,,,,,,,
128224,note_off,,,,,64,0,8,,,,,0,,,67,100
128256,note_on,,,,,256,0,16,,,,,7,,,45,100
128256,note_on,,,,,256,0,13,,,,,5,,,45,85
128256,note_on,,,,,256,0,15,,,,,7,,,64,100
128256,note_on,,,,,0,0,15,,,,,7,,,61,100
128256,note_on,,,,,256,0,10,,,,,2,,,66,85
128256,note_on,,,,,256,0,12,,,,,4,,,61,85
128256,note_on,,,,,256,0,14,,,,,6,,,33,85
128256,note_on,,,,,32,0,8,,,,,0,,,73,100
128256,note_on,,,,,256,0,11,,,,,3,,,76,75
128256,note_on,,,,,256,0,9,,,,,1,,,76,85
128304,set_tempo,,,,,100,1,0,,600000,,,,,,,
128384,note_off,,,,,128,0,16,,,,,7,,,45,100
128384,note_off,,,,,128,0,9,,,,,1,,,76,100
128384,note_off,,,,,128,0,13,,,,,5,,,45,100
128384,note_off,,,,,128,0,12,,,,,4,,,61,100
128384,note_off,,,,,128,0,8,,,,,0,,,73,100
128384,note_off,,,,,128,0,10,,,,,2,,,66,100
128384,note_off,,,,,128,0,11,,,,,3,,,76,100
128384,note_off,,,,,0,0,15,,,,,7,,,61,100
128384,note_off,,,,,128,0,15,,,,,7,,,64,100
128384,note_off,,,,,128,0,14,,,,,6,,,33,100
128408,set_tempo,,,,,104,1,0,,606060,,,,,,,
128448,note_on,,,,,64,0,8,,,,,0,,,66,100
128512,note_off,,,,,64,0,8,,,,,0,,,66,100
128512,set_tempo,,,,,104,1,0,,612244,,,,,,,
128544,note_on,,,,,32,0,8,,,,,0,,,64,100
128608,note_off,,,,,64,0,8,,,,,0,,,64,100
128612,set_tempo,,,,,100,1,0,,618556,,,,,,,
128640,note_on,,,,,256,0,14,,,,,6,,,35,85
128640,note_on,,,,,256,0,15,,,,,7,,,66,100
128640,note_on,,,,,0,0,15,,,,,7,,,62,100
128640,note_on,,,,,256,0,9,,,,,1,,,74,85
128640,note_on,,,,,256,0,13,,,,,5,,,47,85
128640,note_on,,,,,256,0,16,,,,,7,,,47,100
128640,note_on,,,,,256,0,12,,,,,4,,,62,85
128640,note_on,,,,,32,0,8,,,,,0,,,66,100
128640,note_on,,,,,256,0,11,,,,,3,,,74,75
128640,note_on,,,,,256,0,10,,,,,2,,,66,85
128704,note_off,,,,,64,0,8,,,,,0,,,66,100
128716,set_tempo,,,,,104,1,0,,625000,,,,,,,
128736,note_on,,,,,32,0,8,,,,,0,,,67,100
128768,note_off,,,,,128,0,12,,,,,4,,,62,100
128768,note_off,,,,,128,0,13,,,,,5,,,47,100
128768,note_off,,,,,128,0,15,,,,,7,,,66,100
128768,note_off,,,,,128,0,14,,,,,6,,,35,100
128768,note_off,,,,,128,0,16,,,,,7,,,47,100
128768,note_off,,,,,128,0,11,,,,,3,,,74,100
128768,note_off,,,,,128,0,9,,,,,1,,,74,100
128768,note_off,,,,,0,0,15,,,,,7,,,62,100
128768,note_off,,,,,128,0,10,,,,,2,,,66,100
128800,note_off,,,,,64,0,8,,,,,0,,,67,100
128816,set_tempo,,,,,100,1,0,,631578,,,,,,,
128832,note_on,,,,,32,0,8,,,,,0,,,69,100
128896,note_off,,,,,64,0,8,,,,,0,,,69,100
128920,set_tempo,,,,,104,1,0,,638297,,,,,,,
128928,note_on,,,,,32,0,8,,,,,0,,,66,100
128992,note_off,,,,,64,0,8,,,,,0,,,66,100
129024,note_on,,,,,256,0,9,,,,,1,,,74,85
129024,note_on,,,,,256,0,11,,,,,3,,,74,75
129024,note_on,,,,,256,0,16,,,,,7,,,43,100
129024,set_tempo,,,,,104,1,0,,652173,,,,,,,
129024,note_on,,,,,256,0,10,,,,,2,,,64,85
129024,note_on,,,,,32,0,8,,,,,0,,,64,100
129024,note_on,,,,,256,0,15,,,,,7,,,62,100
129024,note_on,,,,,256,0,14,,,,,6,,,43,85
129024,note_on,,,,,256,0,13,,,,,5,,,43,85
129024,note_on,,,,,256,0,12,,,,,4,,,59,85
129024,note_on,,,,,0,0,15,,,,,7,,,59,100
129048,set_tempo,,,,,24,1,0,,659340,,,,,,,
129072,set_tempo,,,,,24,1,0,,666666,,,,,,,
129088,note_off,,,,,64,0,8,,,,,0,,,64,100
129100,set_tempo,,,,,28,1,0,,674157,,,,,,,
129120,note_on,,,,,32,0,8,,,,,0,,,62,100
129124,set_tempo,,,,,24,1,0,,681818,,,,,,,
129152,note_off,,,,,128,0,13,,,,,5,,,43,100
129152,note_off,,,,,128,0,12,,,,,4,,,59,100
129152,set_tempo,,,,,28,1,0,,689655,,,,,,,
129152,note_off,,,,,128,0,9,,,,,1,,,74,100
129152,note_off,,,,,128,0,10,,,,,2,,,64,100
129152,note_off,,,,,128,0,16,,,,,7,,,43,100
129152,note_off,,,,,128,0,15,,,,,7,,,62,100
129152,note_off,,,,,0,0,15,,,,,7,,,59,100
129152,note_off,,,,,128,0,14,,,,,6,,,43,100
129152,note_off,,,,,128,0,11,,,,,3,,,74,100
129176,set_tempo,,,,,24,1,0,,697674,,,,,,,
129184,note_off,,,,,64,0,8,,,,,0,,,62,100
129200,set_tempo,,,,,24,1,0,,705882,,,,,,,
129216,note_on,,,,,32,0,8,,,,,0,,,64,100
129228,set_tempo,,,,,28,1,0,,714285,,,,,,,
129252,set_tempo,,,,,24,1,0,,722891,,,,,,,
129280,set_tempo,,,,,28,1,0,,731707,,,,,,,
129280,note_off,,,,,64,0,8,,,,,0,,,64,100
129304,set_tempo,,,,,24,1,0,,740740,,,,,,,
129312,note_on,,,,,32,0,8,,,,,0,,,66,100
129328,set_tempo,,,,,24,1,0,,750000,,,,,,,
129356,set_tempo,,,,,28,1,0,,759493,,,,,,,
129376,note_off,,,,,64,0,8,,,,,0,,,66,100
129380,set_tempo,,,,,24,1,0,,769230,,,,,,,
129408,set_tempo,,,,,28,1,0,,779220,,,,,,,
129408,note_on,,,,,32,0,8,,,,,0,,,67,100
129408,note_on,,,,,256,0,14,,,,,6,,,33,85
129408,note_on,,,,,256,0,10,,,,,2,,,64,85
129408,note_on,,,,,256,0,15,,,,,7,,,64,100
129408,note_on,,,,,256,0,9,,,,,1,,,73,85
129408,note_on,,,,,256,0,13,,,,,5,,,45,85
129408,note_on,,,,,256,0,12,,,,,4,,,57,85
129408,note_on,,,,,256,0,11,,,,,3,,,73,75
129408,note_on,,,,,256,0,16,,,,,7,,,45,100
129408,note_on,,,,,0,0,15,,,,,7,,,61,100
129432,set_tempo,,,,,24,1,0,,789473,,,,,,,
129456,set_tempo,,,,,24,1,0,,800000,,,,,,,
129472,note_off,,,,,64,0,8,,,,,0,,,67,100
129484,set_tempo,,,,,28,1,0,,810810,,,,,,,
129504,note_on,,,,,32,0,8,,,,,0,,,69,100
129508,set_tempo,,,,,24,1,0,,821917,,,,,,,
129536,note_off,,,,,128,0,9,,,,,1,,,73,100
129536,note_off,,,,,128,0,10,,,,,2,,,64,100
129536,note_off,,,,,128,0,16,,,,,7,,,45,100
129536,note_off,,,,,0,0,15,,,,,7,,,61,100
129536,note_off,,,,,128,0,15,,,,,7,,,64,100
129536,note_off,,,,,128,0,11,,,,,3,,,73,100
129536,note_off,,,,,128,0,14,,,,,6,,,33,100
129536,note_off,,,,,128,0,12,,,,,4,,,57,100
129536,note_off,,,,,128,0,13,,,,,5,,,45,100
129536,set_tempo,,,,,28,1,0,,833333,,,,,,,
129560,set_tempo,,,,,24,1,0,,845070,,,,,,,
129568,note_off,,,,,64,0,8,,,,,0,,,69,100
129584,set_tempo,,,,,24,1,0,,857142,,,,,,,
129600,note_on,,,,,32,0,8,,,,,0,,,71,100
129612,set_tempo,,,,,28,1,0,,869565,,,,,,,
129636,set_tempo,,,,,24,1,0,,882352,,,,,,,
129664,set_tempo,,,,,28,1,0,,895522,,,,,,,
129664,note_off,,,,,64,0,8,,,,,0,,,71,100
129688,set_tempo,,,,,24,1,0,,909090,,,,,,,
129696,note_on,,,,,32,0,8,,,,,0,,,73,100
129712,set_tempo,,,,,24,1,0,,923076,,,,,,,
129740,set_tempo,,,,,28,1,0,,937500,,,,,,,
129760,note_off,,,,,64,0,8,,,,,0,,,73,100
129764,set_tempo,,,,,24,1,0,,1333333,,,,,,,
129792,note_on,,,,,256,0,10,,,,,2,,,62,85
129792,note_on,,,,,256,0,16,,,,,7,,,38,100
129792,note_on,,,,,256,0,9,,,,,1,,,74,85
129792,note_on,,,,,32,0,8,,,,,0,,,74,100
129792,end_of_track,,,,,0,1,0,,,,,,,,,
129792,note_on,,,,,256,0,12,,,,,4,,,54,85
129792,note_on,,,,,0,0,12,,,,,4,,,57,85
129792,note_on,,,,,256,0,14,,,,,6,,,38,85
129792,set_tempo,,,,,28,1,0,,1000000,,,,,,,
129792,note_on,,,,,256,0,15,,,,,7,,,57,100
129792,note_on,,,,,256,0,11,,,,,3,,,74,75
129792,note_on,,,,,256,0,13,,,,,5,,,38,85
129820,note_on,,,,,28,0,15,,,,,7,,,62,100
129852,note_on,,,,,32,0,15,,,,,7,,,66,100
130304,note_off,,,,,512,0,9,,,,,1,,,74,100
130304,end_of_track,,,,,0,1,9,,,,,,,,,
130304,note_off,,,,,512,0,12,,,,,4,,,54,100
130304,end_of_track,,,,,0,1,10,,,,,,,,,
130304,note_off,,,,,452,0,15,,,,,7,,,57,100
130304,end_of_track,,,,,0,1,14,,,,,,,,,
130304,note_off,,,,,512,0,14,,,,,6,,,38,100
130304,end_of_track,,,,,0,1,13,,,,,,,,,
130304,note_off,,,,,512,0,10,,,,,2,,,62,100
130304,end_of_track,,,,,0,1,12,,,,,,,,,
130304,note_off,,,,,512,0,13,,,,,5,,,38,100
130304,note_off,,,,,512,0,8,,,,,0,,,74,100
130304,end_of_track,,,,,0,1,11,,,,,,,,,
130304,note_off,,,,,512,0,11,,,,,3,,,74,100
130304,note_off,,,,,512,0,16,,,,,7,,,38,100
130304,note_off,,,,,0,0,12,,,,,4,,,57,100
130304,end_of_track,,,,,0,1,16,,,,,,,,,
130332,note_off,,,,,28,0,15,,,,,7,,,62,100
130364,note_off,,,,,32,0,15,,,,,7,,,66,100
130364,end_of_track,,,,,0,1,15,,,,,,,,,
131328,program_change,,,,,1024,0,8,,,,,0,40,,,
131328,end_of_track,,,,,0,1,8,,,,,,,,,
