tick,type,numerator,denominator,clocks_per_click,notated_32nd_notes_per_beat,time,meta,track,data,tempo,control,value,channel,program,key,note,velocity
0,time_signature,4,4,96,8,0,1,0,,,,,,,,,
0,control_change,,,,,0,0,12,,,91,65,5,,,,
0,key_signature,,,,,0,1,12,,,,,,,D,,
0,track_name,,,,,0,1,13,,,,,,,,,
0,control_change,,,,,0,0,13,,,0,0,6,,,,
0,program_change,,,,,0,0,13,,,,,6,6,,,
0,control_change,,,,,0,0,9,,,0,0,2,,,,
0,control_change,,,,,0,0,13,,,91,64,6,,,,
0,key_signature,,,,,0,1,13,,,,,,,D,,
0,track_name,,,,,0,1,14,,,,,,,,,
0,control_change,,,,,0,0,14,,,0,0,6,,,,
0,program_change,,,,,0,0,14,,,,,6,6,,,
0,control_change,,,,,0,0,14,,,7,53,6,,,,
0,control_change,,,,,0,0,14,,,91,64,6,,,,
0,key_signature,,,,,0,1,14,,,,,,,D,,
0,key_signature,,,,,0,1,7,,,,,,,D,,
0,control_change,,,,,0,0,7,,,91,62,0,,,,
0,control_change,,,,,0,0,7,,,10,51,0,,,,
0,control_change,,,,,0,0,7,,,7,100,0,,,,
0,program_change,,,,,0,0,7,,,,,0,40,,,
0,control_change,,,,,0,0,7,,,0,0,0,,,,
0,track_name,,,,,0,1,7,,,,,,,,,
0,end_of_track,,,,,0,1,6,,,,,,,,,
0,key_signature,,,,,0,1,6,,,,,,,D,,
0,control_change,,,,,0,0,6,,,91,62,0,,,,
0,control_change,,,,,0,0,6,,,10,51,0,,,,
0,control_change,,,,,0,0,12,,,10,89,5,,,,
0,control_change,,,,,0,0,12,,,7,85,5,,,,
0,program_change,,,,,0,0,12,,,,,5,48,,,
0,control_change,,,,,0,0,12,,,0,0,5,,,,
0,program_change,,,,,0,0,9,,,,,2,48,,,
0,control_change,,,,,0,0,9,,,7,100,2,,,,
0,control_change,,,,,0,0,9,,,10,54,2,,,,
0,control_change,,,,,0,0,9,,,91,64,2,,,,
0,key_signature,,,,,0,1,9,,,,,,,D,,
0,track_name,,,,,0,1,10,,,,,,,,,
0,control_change,,,,,0,0,10,,,0,0,3,,,,
0,program_change,,,,,0,0,10,,,,,3,48,,,
0,control_change,,,,,0,0,10,,,7,95,3,,,,
0,control_change,,,,,0,0,10,,,91,64,3,,,,
0,key_signature,,,,,0,1,10,,,,,,,D,,
0,track_name,,,,,0,1,11,,,,,,,,,
0,control_change,,,,,0,0,6,,,7,100,0,,,,
0,control_change,,,,,0,0,11,,,0,0,4,,,,
0,control_change,,,,,0,0,11,,,7,90,4,,,,
0,control_change,,,,,0,0,11,,,10,80,4,,,,
0,control_change,,,,,0,0,11,,,91,64,4,,,,
0,key_signature,,,,,0,1,11,,,,,,,D,,
0,key_signature,,,,,0,1,8,,,,,,,D,,
0,control_change,,,,,0,0,8,,,91,65,1,,,,
0,control_change,,,,,0,0,8,,,10,42,1,,,,
0,control_change,,,,,0,0,8,,,7,100,1,,,,
0,program_change,,,,,0,0,8,,,,,1,48,,,
0,control_change,,,,,0,0,8,,,0,0,1,,,,
0,track_name,,,,,0,1,8,,,,,,,,,
0,track_name,,,,,0,1,12,,,,,,,,,
0,program_change,,,,,0,0,11,,,,,4,48,,,
0,program_change,,,,,0,0,6,,,,,0,40,,,
0,control_change,,,,,0,0,13,,,7,53,6,,,,
0,track_name,,,,,0,1,6,,,,,,,,,
0,program_change,,,,,0,0,4,,,,,0,40,,,
0,control_change,,,,,0,0,4,,,0,0,0,,,,
0,track_name,,,,,0,1,4,,,,,,,,,
0,end_of_track,,,,,0,1,3,,,,,,,,,
0,key_signature,,,,,0,1,3,,,,,,,D,,
0,program_change,,,,,0,0,3,,,,,0,40,,,
0,control_change,,,,,0,0,3,,,91,62,0,,,,
0,control_change,,,,,0,0,3,,,10,51,0,,,,
0,control_change,,,,,0,0,3,,,7,100,0,,,,
0,control_change,,,,,0,0,3,,,0,0,0,,,,
0,control_change,,,,,0,0,6,,,0,0,0,,,,
0,track_name,,,,,0,1,3,,,,,,,,,
0,end_of_track,,,,,0,1,2,,,,,,,,,
0,track_name,,,,,0,1,2,,,,,,,,,
0,end_of_track,,,,,0,1,1,,,,,,,,,
0,track_name,,,,,0,1,1,,,,,,,,,
0,set_tempo,,,,,0,1,0,,612244,,,,,,,
0,sequencer_specific,,,,,0,1,0,"(0, 0, 119, 14, 1)",,,,,,,,
0,sequencer_specific,,,,,0,1,0,"(0, 0, 65)",,,,,,,,
0,control_change,,,,,0,0,4,,,7,100,0,,,,
0,control_change,,,,,0,0,4,,,10,51,0,,,,
0,track_name,,,,,0,1,9,,,,,,,,,
0,end_of_track,,,,,0,1,4,,,,,,,,,
0,key_signature,,,,,0,1,4,,,,,,,D,,
0,control_change,,,,,0,0,4,,,91,62,0,,,,
0,control_change,,,,,0,0,5,,,91,62,0,,,,
0,key_signature,,,,,0,1,5,,,,,,,D,,
0,end_of_track,,,,,0,1,5,,,,,,,,,
0,control_change,,,,,0,0,5,,,10,51,0,,,,
0,control_change,,,,,0,0,5,,,7,100,0,,,,
0,program_change,,,,,0,0,5,,,,,0,40,,,
0,control_change,,,,,0,0,5,,,0,0,0,,,,
0,track_name,,,,,0,1,5,,,,,,,,,
1440,note_on,,,,,1440,0,14,,,,,6,,,62,100
1440,note_on,,,,,1440,0,9,,,,,2,,,74,100
1440,note_on,,,,,1440,0,8,,,,,1,,,78,100
1440,note_on,,,,,1440,0,11,,,,,4,,,62,100
1440,note_on,,,,,1440,0,12,,,,,5,,,50,100
1440,note_on,,,,,1440,0,10,,,,,3,,,69,100
1440,note_on,,,,,0,0,13,,,,,6,,,66,100
1440,note_on,,,,,1440,0,13,,,,,6,,,69,100
1504,note_off,,,,,64,0,13,,,,,6,,,69,100
1504,note_off,,,,,0,0,13,,,,,6,,,66,100
1504,note_off,,,,,64,0,8,,,,,1,,,78,100
1504,note_off,,,,,64,0,12,,,,,5,,,50,100
1504,note_off,,,,,64,0,11,,,,,4,,,62,100
1504,note_off,,,,,64,0,10,,,,,3,,,69,100
1504,note_off,,,,,64,0,9,,,,,2,,,74,100
1504,note_off,,,,,64,0,14,,,,,6,,,62,100
1536,note_on,,,,,32,0,11,,,,,4,,,62,100
1536,note_on,,,,,32,0,13,,,,,6,,,66,100
1536,note_on,,,,,32,0,8,,,,,1,,,78,100
1536,note_on,,,,,0,0,13,,,,,6,,,69,100
1536,note_on,,,,,32,0,14,,,,,6,,,62,100
1536,note_on,,,,,32,0,9,,,,,2,,,74,100
1536,note_on,,,,,32,0,10,,,,,3,,,69,100
1536,note_on,,,,,32,0,12,,,,,5,,,50,100
1792,note_off,,,,,256,0,13,,,,,6,,,66,100
1792,note_off,,,,,0,0,13,,,,,6,,,69,100
1920,note_off,,,,,384,0,8,,,,,1,,,78,100
1920,note_off,,,,,384,0,14,,,,,6,,,62,100
1920,note_off,,,,,384,0,11,,,,,4,,,62,100
1920,note_off,,,,,384,0,9,,,,,2,,,74,100
1920,note_off,,,,,384,0,10,,,,,3,,,69,100
1920,note_off,,,,,384,0,12,,,,,5,,,50,100
2208,note_on,,,,,288,0,10,,,,,3,,,69,100
2208,note_on,,,,,288,0,9,,,,,2,,,74,100
2208,note_on,,,,,416,0,13,,,,,6,,,66,100
2208,note_on,,,,,288,0,8,,,,,1,,,78,100
2208,note_on,,,,,288,0,12,,,,,5,,,50,100
2208,note_on,,,,,288,0,14,,,,,6,,,62,100
2208,note_on,,,,,0,0,13,,,,,6,,,69,100
2208,note_on,,,,,288,0,11,,,,,4,,,62,100
2272,note_off,,,,,64,0,10,,,,,3,,,69,100
2272,note_off,,,,,64,0,14,,,,,6,,,62,100
2272,note_off,,,,,64,0,9,,,,,2,,,74,100
2272,note_off,,,,,64,0,8,,,,,1,,,78,100
2272,note_off,,,,,0,0,13,,,,,6,,,69,100
2272,note_off,,,,,64,0,12,,,,,5,,,50,100
2272,note_off,,,,,64,0,11,,,,,4,,,62,100
2272,note_off,,,,,64,0,13,,,,,6,,,66,100
2304,note_on,,,,,32,0,12,,,,,5,,,50,100
2304,note_on,,,,,32,0,10,,,,,3,,,69,100
2304,note_on,,,,,32,0,14,,,,,6,,,62,100
2304,note_on,,,,,32,0,13,,,,,6,,,66,100
2304,note_on,,,,,32,0,8,,,,,1,,,78,100
2304,note_on,,,,,32,0,11,,,,,4,,,62,100
2304,note_on,,,,,32,0,9,,,,,2,,,74,100
2304,note_on,,,,,0,0,13,,,,,6,,,69,100
2432,note_off,,,,,128,0,8,,,,,1,,,78,100
2496,note_on,,,,,64,0,8,,,,,1,,,81,100
2560,note_off,,,,,64,0,8,,,,,1,,,81,100
2560,note_off,,,,,256,0,10,,,,,3,,,69,100
2560,note_off,,,,,256,0,12,,,,,5,,,50,100
2560,note_off,,,,,0,0,13,,,,,6,,,69,100
2560,note_off,,,,,256,0,11,,,,,4,,,62,100
2560,note_off,,,,,256,0,13,,,,,6,,,66,100
2560,note_off,,,,,256,0,14,,,,,6,,,62,100
2560,note_off,,,,,256,0,9,,,,,2,,,74,100
2592,note_on,,,,,32,0,8,,,,,1,,,79,100
2656,note_off,,,,,64,0,8,,,,,1,,,79,100
2688,note_on,,,,,128,0,11,,,,,4,,,57,100
2688,note_on,,,,,128,0,14,,,,,6,,,57,100
2688,note_on,,,,,128,0,10,,,,,3,,,73,100
2688,note_on,,,,,128,0,9,,,,,2,,,73,100
2688,note_on,,,,,128,0,12,,,,,5,,,45,100
2688,note_on,,,,,128,0,13,,,,,6,,,61,100
2688,note_on,,,,,0,0,13,,,,,6,,,64,100
2688,note_on,,,,,32,0,8,,,,,1,,,81,100
2816,note_off,,,,,128,0,8,,,,,1,,,81,100
2880,note_on,,,,,64,0,8,,,,,1,,,81,100
2944,note_off,,,,,256,0,14,,,,,6,,,57,100
2944,note_off,,,,,256,0,9,,,,,2,,,73,100
2944,note_off,,,,,256,0,13,,,,,6,,,61,100
2944,note_off,,,,,256,0,12,,,,,5,,,45,100
2944,note_off,,,,,256,0,10,,,,,3,,,73,100
2944,note_off,,,,,0,0,13,,,,,6,,,64,100
2944,note_off,,,,,256,0,11,,,,,4,,,57,100
3008,note_off,,,,,128,0,8,,,,,1,,,81,100
3072,note_on,,,,,128,0,11,,,,,4,,,59,100
3072,note_on,,,,,128,0,9,,,,,2,,,71,100
3072,note_on,,,,,64,0,8,,,,,1,,,74,100
3072,note_on,,,,,128,0,10,,,,,3,,,66,100
3072,note_on,,,,,0,0,13,,,,,6,,,66,100
3072,note_on,,,,,128,0,14,,,,,6,,,59,100
3072,note_on,,,,,128,0,13,,,,,6,,,62,100
3072,note_on,,,,,128,0,12,,,,,5,,,47,100
3328,note_off,,,,,256,0,10,,,,,3,,,66,100
3328,note_off,,,,,256,0,13,,,,,6,,,62,100
3328,note_off,,,,,0,0,13,,,,,6,,,66,100
3456,note_off,,,,,384,0,8,,,,,1,,,74,100
3456,note_off,,,,,384,0,14,,,,,6,,,59,100
3456,note_off,,,,,384,0,11,,,,,4,,,59,100
3456,note_off,,,,,384,0,12,,,,,5,,,47,100
3456,note_off,,,,,384,0,9,,,,,2,,,71,100
3744,note_on,,,,,416,0,10,,,,,3,,,66,100
3744,note_on,,,,,416,0,13,,,,,6,,,62,100
3744,note_on,,,,,288,0,11,,,,,4,,,59,100
3744,note_on,,,,,0,0,13,,,,,6,,,66,100
3744,note_on,,,,,288,0,12,,,,,5,,,47,100
3744,note_on,,,,,288,0,9,,,,,2,,,74,100
3744,note_on,,,,,288,0,14,,,,,6,,,59,100
3744,note_on,,,,,288,0,8,,,,,1,,,74,100
3808,note_off,,,,,64,0,10,,,,,3,,,66,100
3808,note_off,,,,,64,0,14,,,,,6,,,59,100
3808,note_off,,,,,64,0,12,,,,,5,,,47,100
3808,note_off,,,,,64,0,8,,,,,1,,,74,100
3808,note_off,,,,,64,0,9,,,,,2,,,74,100
3808,note_off,,,,,0,0,13,,,,,6,,,66,100
3808,note_off,,,,,64,0,13,,,,,6,,,62,100
3808,note_off,,,,,64,0,11,,,,,4,,,59,100
3840,note_on,,,,,32,0,14,,,,,6,,,59,100
3840,note_on,,,,,32,0,10,,,,,3,,,66,100
3840,note_on,,,,,32,0,9,,,,,2,,,74,100
3840,note_on,,,,,32,0,11,,,,,4,,,59,100
3840,note_on,,,,,32,0,13,,,,,6,,,62,100
3840,note_on,,,,,32,0,8,,,,,1,,,74,100
3840,note_on,,,,,32,0,12,,,,,5,,,47,100
3840,note_on,,,,,0,0,13,,,,,6,,,66,100
3968,note_off,,,,,128,0,8,,,,,1,,,74,100
4032,note_on,,,,,64,0,8,,,,,1,,,78,100
4096,note_off,,,,,256,0,14,,,,,6,,,59,100
4096,note_off,,,,,256,0,11,,,,,4,,,59,100
4096,note_off,,,,,256,0,12,,,,,5,,,47,100
4096,note_off,,,,,256,0,9,,,,,2,,,74,100
4096,note_off,,,,,256,0,13,,,,,6,,,62,100
4096,note_off,,,,,0,0,13,,,,,6,,,66,100
4096,note_off,,,,,256,0,10,,,,,3,,,66,100
4096,note_off,,,,,64,0,8,,,,,1,,,78,100
4128,note_on,,,,,32,0,8,,,,,1,,,76,100
4192,note_off,,,,,64,0,8,,,,,1,,,76,100
4224,note_on,,,,,128,0,14,,,,,6,,,54,100
4224,note_on,,,,,32,0,8,,,,,1,,,78,100
4224,note_on,,,,,128,0,11,,,,,4,,,54,100
4224,note_on,,,,,128,0,13,,,,,6,,,57,100
4224,note_on,,,,,128,0,12,,,,,5,,,42,100
4224,note_on,,,,,128,0,10,,,,,3,,,69,100
4224,note_on,,,,,128,0,9,,,,,2,,,74,100
4224,note_on,,,,,0,0,13,,,,,6,,,62,100
4352,note_off,,,,,128,0,8,,,,,1,,,78,100
4416,note_on,,,,,64,0,8,,,,,1,,,78,100
4480,note_off,,,,,256,0,12,,,,,5,,,42,100
4480,note_off,,,,,256,0,9,,,,,2,,,74,100
4480,note_off,,,,,256,0,11,,,,,4,,,54,100
4480,note_off,,,,,256,0,13,,,,,6,,,57,100
4480,note_off,,,,,256,0,14,,,,,6,,,54,100
4480,note_off,,,,,256,0,10,,,,,3,,,69,100
4480,note_off,,,,,0,0,13,,,,,6,,,62,100
4544,note_off,,,,,128,0,8,,,,,1,,,78,100
4608,note_on,,,,,128,0,13,,,,,6,,,59,100
4608,note_on,,,,,128,0,11,,,,,4,,,55,100
4608,note_on,,,,,128,0,9,,,,,2,,,74,100
4608,note_on,,,,,0,0,13,,,,,6,,,62,100
4608,note_on,,,,,64,0,8,,,,,1,,,71,100
4608,note_on,,,,,128,0,10,,,,,3,,,62,100
4608,note_on,,,,,128,0,14,,,,,6,,,55,100
4608,note_on,,,,,128,0,12,,,,,5,,,43,100
4864,note_off,,,,,256,0,13,,,,,6,,,59,100
4864,note_off,,,,,0,0,13,,,,,6,,,62,100
4992,note_off,,,,,384,0,14,,,,,6,,,55,100
4992,note_off,,,,,384,0,12,,,,,5,,,43,100
4992,note_off,,,,,384,0,11,,,,,4,,,55,100
4992,note_off,,,,,384,0,10,,,,,3,,,62,100
4992,note_off,,,,,384,0,8,,,,,1,,,71,100
4992,note_off,,,,,384,0,9,,,,,2,,,74,100
5280,note_on,,,,,288,0,14,,,,,6,,,55,100
5280,note_on,,,,,288,0,8,,,,,1,,,71,100
5280,note_on,,,,,288,0,11,,,,,4,,,55,100
5280,note_on,,,,,288,0,12,,,,,5,,,43,100
5280,note_on,,,,,416,0,13,,,,,6,,,59,100
5280,note_on,,,,,0,0,13,,,,,6,,,62,100
5280,note_on,,,,,288,0,10,,,,,3,,,62,100
5280,note_on,,,,,288,0,9,,,,,2,,,74,100
5344,note_off,,,,,64,0,9,,,,,2,,,74,100
5344,note_off,,,,,64,0,12,,,,,5,,,43,100
5344,note_off,,,,,64,0,11,,,,,4,,,55,100
5344,note_off,,,,,64,0,13,,,,,6,,,59,100
5344,note_off,,,,,0,0,13,,,,,6,,,62,100
5344,note_off,,,,,64,0,8,,,,,1,,,71,100
5344,note_off,,,,,64,0,14,,,,,6,,,55,100
5344,note_off,,,,,64,0,10,,,,,3,,,62,100
5376,note_on,,,,,32,0,13,,,,,6,,,59,100
5376,note_on,,,,,0,0,13,,,,,6,,,62,100
5376,note_on,,,,,32,0,12,,,,,5,,,43,100
5376,note_on,,,,,32,0,9,,,,,2,,,71,100
5376,note_on,,,,,32,0,11,,,,,4,,,55,100
5376,note_on,,,,,32,0,10,,,,,3,,,62,100
5376,note_on,,,,,32,0,14,,,,,6,,,55,100
5376,note_on,,,,,32,0,8,,,,,1,,,71,100
5504,note_off,,,,,128,0,8,,,,,1,,,71,100
5568,note_on,,,,,64,0,8,,,,,1,,,74,100
5632,note_off,,,,,256,0,10,,,,,3,,,62,100
5632,note_off,,,,,256,0,13,,,,,6,,,59,100
5632,note_off,,,,,0,0,13,,,,,6,,,62,100
5632,note_off,,,,,256,0,14,,,,,6,,,55,100
5632,note_off,,,,,256,0,11,,,,,4,,,55,100
5632,note_off,,,,,256,0,12,,,,,5,,,43,100
5632,note_off,,,,,256,0,9,,,,,2,,,71,100
5632,note_off,,,,,64,0,8,,,,,1,,,74,100
5664,note_on,,,,,32,0,8,,,,,1,,,73,100
5728,note_off,,,,,64,0,8,,,,,1,,,73,100
5760,note_on,,,,,128,0,13,,,,,6,,,66,100
5760,note_on,,,,,0,0,13,,,,,6,,,57,100
5760,note_on,,,,,128,0,12,,,,,5,,,38,100
5760,note_on,,,,,128,0,10,,,,,3,,,66,100
5760,note_on,,,,,128,0,11,,,,,4,,,50,100
5760,note_on,,,,,128,0,9,,,,,2,,,69,100
5760,note_on,,,,,128,0,14,,,,,6,,,50,100
5760,note_on,,,,,32,0,8,,,,,1,,,74,100
5888,note_off,,,,,128,0,8,,,,,1,,,74,100
5952,note_on,,,,,64,0,8,,,,,1,,,74,100
6016,note_off,,,,,256,0,12,,,,,5,,,38,100
6016,note_off,,,,,0,0,13,,,,,6,,,57,100
6016,note_off,,,,,256,0,13,,,,,6,,,66,100
6016,note_off,,,,,256,0,11,,,,,4,,,50,100
6016,note_off,,,,,256,0,14,,,,,6,,,50,100
6016,note_off,,,,,256,0,9,,,,,2,,,69,100
6016,note_off,,,,,256,0,10,,,,,3,,,66,100
6080,note_off,,,,,128,0,8,,,,,1,,,74,100
6144,note_on,,,,,128,0,9,,,,,2,,,69,100
6144,note_on,,,,,128,0,13,,,,,6,,,61,100
6144,note_on,,,,,0,0,13,,,,,6,,,64,100
6144,note_on,,,,,128,0,10,,,,,3,,,64,100
6144,note_on,,,,,128,0,11,,,,,4,,,57,100
6144,note_on,,,,,64,0,8,,,,,1,,,73,100
6144,note_on,,,,,128,0,14,,,,,6,,,57,100
6144,note_on,,,,,128,0,12,,,,,5,,,45,100
6400,note_off,,,,,256,0,10,,,,,3,,,64,100
6400,note_off,,,,,256,0,11,,,,,4,,,57,100
6400,note_off,,,,,256,0,8,,,,,1,,,73,100
6400,note_off,,,,,256,0,14,,,,,6,,,57,100
6400,note_off,,,,,256,0,12,,,,,5,,,45,100
6400,note_off,,,,,256,0,9,,,,,2,,,69,100
6400,note_off,,,,,256,0,13,,,,,6,,,61,100
6400,note_off,,,,,0,0,13,,,,,6,,,64,100
6720,note_on,,,,,320,0,8,,,,,1,,,81,100
6720,note_on,,,,,320,0,9,,,,,2,,,73,100
6848,note_off,,,,,128,0,8,,,,,1,,,81,100
6848,note_off,,,,,128,0,9,,,,,2,,,73,100
6912,note_on,,,,,512,0,10,,,,,3,,,69,100
6912,note_on,,,,,512,0,13,,,,,6,,,64,100
6912,note_on,,,,,0,0,13,,,,,6,,,57,100
6912,note_on,,,,,512,0,11,,,,,4,,,49,100
6912,note_on,,,,,64,0,8,,,,,1,,,76,100
6912,note_on,,,,,512,0,14,,,,,6,,,49,100
6912,note_on,,,,,64,0,9,,,,,2,,,73,100
6912,note_on,,,,,512,0,12,,,,,5,,,37,100
6976,note_off,,,,,64,0,8,,,,,1,,,76,100
7008,note_on,,,,,32,0,8,,,,,1,,,74,100
7072,note_off,,,,,64,0,8,,,,,1,,,74,100
7104,note_on,,,,,32,0,8,,,,,1,,,76,100
7168,note_off,,,,,256,0,14,,,,,6,,,49,100
7168,note_off,,,,,256,0,10,,,,,3,,,69,100
7168,note_off,,,,,256,0,9,,,,,2,,,73,100
7168,note_off,,,,,256,0,13,,,,,6,,,64,100
7168,note_off,,,,,64,0,8,,,,,1,,,76,100
7168,note_off,,,,,0,0,13,,,,,6,,,57,100
7168,note_off,,,,,256,0,11,,,,,4,,,49,100
7168,note_off,,,,,256,0,12,,,,,5,,,37,100
7200,note_on,,,,,32,0,8,,,,,1,,,79,100
7264,note_off,,,,,64,0,8,,,,,1,,,79,100
7296,note_on,,,,,128,0,9,,,,,2,,,69,100
7296,note_on,,,,,128,0,11,,,,,4,,,50,100
7296,note_on,,,,,128,0,12,,,,,5,,,38,100
7296,note_on,,,,,128,0,13,,,,,6,,,66,100
7296,note_on,,,,,0,0,13,,,,,6,,,57,100
7296,note_on,,,,,128,0,14,,,,,6,,,50,100
7296,note_on,,,,,128,0,10,,,,,3,,,66,100
7296,note_on,,,,,32,0,8,,,,,1,,,78,100
7360,note_off,,,,,64,0,8,,,,,1,,,78,100
7392,note_on,,,,,32,0,8,,,,,1,,,76,100
7456,note_off,,,,,64,0,8,,,,,1,,,76,100
7488,note_on,,,,,32,0,8,,,,,1,,,78,100
7552,note_off,,,,,256,0,13,,,,,6,,,66,100
7552,note_off,,,,,0,0,13,,,,,6,,,57,100
7552,note_off,,,,,256,0,11,,,,,4,,,50,100
7552,note_off,,,,,256,0,14,,,,,6,,,50,100
7552,note_off,,,,,64,0,8,,,,,1,,,78,100
7552,note_off,,,,,256,0,10,,,,,3,,,66,100
7552,note_off,,,,,256,0,9,,,,,2,,,69,100
7552,note_off,,,,,256,0,12,,,,,5,,,38,100
7584,note_on,,,,,32,0,8,,,,,1,,,81,100
7648,note_off,,,,,64,0,8,,,,,1,,,81,100
7680,note_on,,,,,128,0,12,,,,,5,,,31,100
7680,note_on,,,,,128,0,14,,,,,6,,,43,100
7680,note_on,,,,,128,0,11,,,,,4,,,43,100
7680,note_on,,,,,32,0,8,,,,,1,,,79,100
7680,note_on,,,,,128,0,10,,,,,3,,,62,100
7680,note_on,,,,,0,0,13,,,,,6,,,59,100
7680,note_on,,,,,128,0,9,,,,,2,,,71,100
7680,note_on,,,,,128,0,13,,,,,6,,,62,100
7744,note_off,,,,,64,0,8,,,,,1,,,79,100
7776,note_on,,,,,32,0,8,,,,,1,,,78,100
7808,note_off,,,,,128,0,10,,,,,3,,,62,100
7840,note_off,,,,,64,0,8,,,,,1,,,78,100
7872,note_on,,,,,32,0,8,,,,,1,,,79,100
7872,note_on,,,,,64,0,10,,,,,3,,,67,100
7936,note_off,,,,,256,0,9,,,,,2,,,71,100
7936,note_off,,,,,256,0,13,,,,,6,,,62,100
7936,note_off,,,,,0,0,13,,,,,6,,,59,100
7936,note_off,,,,,256,0,11,,,,,4,,,43,100
7936,note_off,,,,,256,0,14,,,,,6,,,43,100
7936,note_off,,,,,64,0,8,,,,,1,,,79,100
7936,note_off,,,,,256,0,12,,,,,5,,,31,100
7968,note_on,,,,,32,0,8,,,,,1,,,81,100
8000,note_off,,,,,128,0,10,,,,,3,,,67,100
8032,note_off,,,,,64,0,8,,,,,1,,,81,100
8064,note_on,,,,,128,0,12,,,,,5,,,33,100
8064,note_on,,,,,128,0,11,,,,,4,,,45,100
8064,note_on,,,,,128,0,14,,,,,6,,,45,100
8064,note_on,,,,,32,0,8,,,,,1,,,79,100
8064,note_on,,,,,128,0,9,,,,,2,,,73,100
8064,note_on,,,,,0,0,13,,,,,6,,,67,100
8064,note_on,,,,,128,0,13,,,,,6,,,64,100
8064,note_on,,,,,64,0,10,,,,,3,,,64,100
8128,note_off,,,,,64,0,8,,,,,1,,,79,100
8160,note_on,,,,,32,0,8,,,,,1,,,83,100
8192,note_off,,,,,128,0,10,,,,,3,,,64,100
8224,note_off,,,,,64,0,8,,,,,1,,,83,100
8256,note_on,,,,,32,0,8,,,,,1,,,81,100
8256,note_on,,,,,64,0,10,,,,,3,,,69,100
8320,note_off,,,,,0,0,13,,,,,6,,,67,100
8320,note_off,,,,,256,0,12,,,,,5,,,33,100
8320,note_off,,,,,256,0,11,,,,,4,,,45,100
8320,note_off,,,,,256,0,14,,,,,6,,,45,100
8320,note_off,,,,,256,0,9,,,,,2,,,73,100
8320,note_off,,,,,64,0,8,,,,,1,,,81,100
8320,note_off,,,,,256,0,13,,,,,6,,,64,100
8352,note_on,,,,,32,0,8,,,,,1,,,79,100
8384,note_off,,,,,128,0,10,,,,,3,,,69,100
8416,note_off,,,,,64,0,8,,,,,1,,,79,100
8448,note_on,,,,,128,0,14,,,,,6,,,50,100
8448,note_on,,,,,128,0,9,,,,,2,,,74,100
8448,note_on,,,,,128,0,13,,,,,6,,,69,100
8448,note_on,,,,,0,0,13,,,,,6,,,66,100
8448,note_on,,,,,128,0,12,,,,,5,,,38,100
8448,note_on,,,,,32,0,8,,,,,1,,,78,100
8448,note_on,,,,,128,0,11,,,,,4,,,50,100
8448,note_on,,,,,64,0,10,,,,,3,,,69,100
8512,note_off,,,,,64,0,8,,,,,1,,,78,100
8512,note_off,,,,,64,0,9,,,,,2,,,74,100
8544,note_on,,,,,32,0,8,,,,,1,,,76,100
8544,note_on,,,,,32,0,9,,,,,2,,,73,100
8608,note_off,,,,,64,0,9,,,,,2,,,73,100
8608,note_off,,,,,64,0,8,,,,,1,,,76,100
8640,note_on,,,,,32,0,8,,,,,1,,,78,100
8640,note_on,,,,,32,0,9,,,,,2,,,74,100
8704,note_off,,,,,64,0,9,,,,,2,,,74,100
8704,note_off,,,,,64,0,8,,,,,1,,,78,100
8736,note_on,,,,,32,0,9,,,,,2,,,76,100
8736,note_on,,,,,32,0,8,,,,,1,,,79,100
8800,note_off,,,,,64,0,8,,,,,1,,,79,100
8800,note_off,,,,,64,0,9,,,,,2,,,76,100
8832,note_on,,,,,32,0,8,,,,,1,,,78,100
8832,note_off,,,,,0,0,13,,,,,6,,,66,100
8832,note_off,,,,,384,0,13,,,,,6,,,69,100
8832,note_off,,,,,384,0,12,,,,,5,,,38,100
8832,note_on,,,,,32,0,9,,,,,2,,,74,100
8832,note_off,,,,,384,0,10,,,,,3,,,69,100
8832,note_off,,,,,384,0,14,,,,,6,,,50,100
8832,note_off,,,,,384,0,11,,,,,4,,,50,100
8896,note_off,,,,,64,0,8,,,,,1,,,78,100
8896,note_off,,,,,64,0,9,,,,,2,,,74,100
8928,note_on,,,,,32,0,9,,,,,2,,,78,100
8928,note_on,,,,,32,0,8,,,,,1,,,81,100
8992,note_off,,,,,64,0,9,,,,,2,,,78,100
8992,note_off,,,,,64,0,8,,,,,1,,,81,100
9024,note_on,,,,,192,0,14,,,,,6,,,50,100
9024,note_on,,,,,192,0,12,,,,,5,,,38,100
9024,note_on,,,,,32,0,8,,,,,1,,,79,100
9024,note_on,,,,,192,0,10,,,,,3,,,69,100
9024,note_on,,,,,192,0,11,,,,,4,,,50,100
9024,note_on,,,,,32,0,9,,,,,2,,,76,100
9024,note_on,,,,,192,0,13,,,,,6,,,66,100
9024,note_on,,,,,0,0,13,,,,,6,,,69,100
9088,note_off,,,,,64,0,8,,,,,1,,,79,100
9088,note_off,,,,,64,0,9,,,,,2,,,76,100
9120,note_on,,,,,32,0,8,,,,,1,,,78,100
9120,note_on,,,,,32,0,9,,,,,2,,,74,100
9152,note_off,,,,,128,0,10,,,,,3,,,69,100
9152,note_off,,,,,128,0,11,,,,,4,,,50,100
9152,note_off,,,,,128,0,12,,,,,5,,,38,100
9152,note_off,,,,,128,0,14,,,,,6,,,50,100
9152,note_off,,,,,0,0,13,,,,,6,,,69,100
9152,note_off,,,,,128,0,13,,,,,6,,,66,100
9184,note_off,,,,,64,0,8,,,,,1,,,78,100
9184,note_off,,,,,64,0,9,,,,,2,,,74,100
9216,note_on,,,,,64,0,13,,,,,6,,,61,100
9216,note_on,,,,,64,0,10,,,,,3,,,69,100
9216,note_on,,,,,64,0,14,,,,,6,,,45,100
9216,note_on,,,,,32,0,9,,,,,2,,,73,100
9216,note_on,,,,,64,0,12,,,,,5,,,33,100
9216,note_on,,,,,32,0,8,,,,,1,,,76,100
9216,note_on,,,,,0,0,13,,,,,6,,,64,100
9216,set_tempo,,,,,9216,1,0,,612244,,,,,,,
9216,note_on,,,,,64,0,11,,,,,4,,,45,100
9344,note_off,,,,,0,0,13,,,,,6,,,64,100
9344,note_off,,,,,128,0,13,,,,,6,,,61,100
9344,note_off,,,,,128,0,14,,,,,6,,,45,100
9344,note_off,,,,,128,0,12,,,,,5,,,33,100
9344,note_off,,,,,128,0,8,,,,,1,,,76,100
9344,note_off,,,,,128,0,11,,,,,4,,,45,100
9408,note_on,,,,,64,0,12,,,,,5,,,33,100
9408,note_on,,,,,64,0,14,,,,,6,,,45,100
9408,note_on,,,,,64,0,8,,,,,1,,,69,100
9408,note_on,,,,,64,0,13,,,,,6,,,64,100
9408,note_on,,,,,0,0,13,,,,,6,,,61,100
9408,note_on,,,,,64,0,11,,,,,4,,,45,100
9472,note_off,,,,,64,0,13,,,,,6,,,64,100
9472,note_off,,,,,0,0,13,,,,,6,,,61,100
9472,note_off,,,,,256,0,9,,,,,2,,,73,100
9472,note_off,,,,,256,0,10,,,,,3,,,69,100
9472,note_off,,,,,64,0,14,,,,,6,,,45,100
9472,note_off,,,,,64,0,12,,,,,5,,,33,100
9472,note_off,,,,,64,0,11,,,,,4,,,45,100
9504,note_on,,,,,32,0,14,,,,,6,,,47,100
9504,note_on,,,,,32,0,12,,,,,5,,,35,100
9504,note_on,,,,,32,0,11,,,,,4,,,47,100
9504,note_on,,,,,32,0,13,,,,,6,,,66,100
9504,note_on,,,,,0,0,13,,,,,6,,,62,100
9536,note_off,,,,,128,0,8,,,,,1,,,69,100
9568,note_off,,,,,64,0,12,,,,,5,,,35,100
9568,note_off,,,,,0,0,13,,,,,6,,,62,100
9568,note_off,,,,,64,0,13,,,,,6,,,66,100
9568,note_off,,,,,64,0,14,,,,,6,,,47,100
9568,note_off,,,,,64,0,11,,,,,4,,,47,100
9600,note_on,,,,,32,0,14,,,,,6,,,49,100
9600,note_on,,,,,32,0,12,,,,,5,,,37,100
9600,note_on,,,,,32,0,11,,,,,4,,,49,100
9600,note_on,,,,,32,0,13,,,,,6,,,69,100
9600,note_on,,,,,0,0,13,,,,,6,,,64,100
9728,note_off,,,,,128,0,13,,,,,6,,,69,100
9728,note_off,,,,,0,0,13,,,,,6,,,64,100
9728,note_off,,,,,128,0,11,,,,,4,,,49,100
9728,note_off,,,,,128,0,12,,,,,5,,,37,100
9728,note_off,,,,,128,0,14,,,,,6,,,49,100
9792,note_on,,,,,64,0,13,,,,,6,,,61,100
9792,note_on,,,,,256,0,8,,,,,1,,,81,100
9792,note_on,,,,,64,0,11,,,,,4,,,45,100
9792,note_on,,,,,64,0,14,,,,,6,,,45,100
9792,note_on,,,,,64,0,12,,,,,5,,,33,100
9792,note_on,,,,,320,0,10,,,,,3,,,69,100
9792,note_on,,,,,0,0,13,,,,,6,,,64,100
9792,note_on,,,,,320,0,9,,,,,2,,,73,100
9920,note_off,,,,,128,0,9,,,,,2,,,73,100
9920,note_off,,,,,128,0,14,,,,,6,,,45,100
9920,note_off,,,,,128,0,12,,,,,5,,,33,100
9920,note_off,,,,,128,0,8,,,,,1,,,81,100
9920,note_off,,,,,0,0,13,,,,,6,,,64,100
9920,note_off,,,,,128,0,13,,,,,6,,,61,100
9920,note_off,,,,,128,0,11,,,,,4,,,45,100
9920,note_off,,,,,128,0,10,,,,,3,,,69,100
9984,note_on,,,,,64,0,14,,,,,6,,,50,100
9984,note_on,,,,,64,0,9,,,,,2,,,74,100
9984,note_on,,,,,64,0,11,,,,,4,,,50,100
9984,note_on,,,,,64,0,12,,,,,5,,,38,100
9984,note_on,,,,,64,0,10,,,,,3,,,69,100
9984,note_on,,,,,64,0,13,,,,,6,,,66,100
9984,note_on,,,,,0,0,13,,,,,6,,,69,100
9984,note_on,,,,,64,0,8,,,,,1,,,78,100
10112,note_off,,,,,128,0,8,,,,,1,,,78,100
10176,note_on,,,,,64,0,8,,,,,1,,,81,100
10240,note_off,,,,,256,0,9,,,,,2,,,74,100
10240,note_off,,,,,256,0,12,,,,,5,,,38,100
10240,note_off,,,,,256,0,13,,,,,6,,,66,100
10240,note_off,,,,,256,0,10,,,,,3,,,69,100
10240,note_off,,,,,256,0,14,,,,,6,,,50,100
10240,note_off,,,,,64,0,8,,,,,1,,,81,100
10240,note_off,,,,,0,0,13,,,,,6,,,69,100
10240,note_off,,,,,256,0,11,,,,,4,,,50,100
10272,note_on,,,,,32,0,8,,,,,1,,,79,100
10336,note_off,,,,,64,0,8,,,,,1,,,79,100
10368,note_on,,,,,32,0,8,,,,,1,,,81,100
10496,note_off,,,,,128,0,8,,,,,1,,,81,100
10560,note_on,,,,,64,0,8,,,,,1,,,81,100
10688,note_off,,,,,128,0,8,,,,,1,,,81,100
10752,note_on,,,,,512,0,9,,,,,2,,,73,100
10752,note_on,,,,,512,0,13,,,,,6,,,64,100
10752,note_on,,,,,0,0,13,,,,,6,,,73,100
10752,note_on,,,,,512,0,14,,,,,6,,,57,100
10752,note_on,,,,,64,0,8,,,,,1,,,76,100
10752,note_on,,,,,512,0,11,,,,,4,,,57,100
10752,note_on,,,,,512,0,12,,,,,5,,,45,100
10752,note_on,,,,,512,0,10,,,,,3,,,69,100
10880,note_off,,,,,128,0,8,,,,,1,,,76,100
10944,note_on,,,,,64,0,8,,,,,1,,,81,100
11008,note_off,,,,,256,0,12,,,,,5,,,45,100
11008,note_off,,,,,256,0,13,,,,,6,,,64,100
11008,note_off,,,,,0,0,13,,,,,6,,,73,100
11008,note_off,,,,,256,0,11,,,,,4,,,57,100
11008,note_off,,,,,256,0,14,,,,,6,,,57,100
11008,note_off,,,,,64,0,8,,,,,1,,,81,100
11008,note_off,,,,,256,0,9,,,,,2,,,73,100
11008,note_off,,,,,256,0,10,,,,,3,,,69,100
11040,note_on,,,,,32,0,8,,,,,1,,,79,100
11104,note_off,,,,,64,0,8,,,,,1,,,79,100
11136,note_on,,,,,32,0,8,,,,,1,,,81,100
11264,note_off,,,,,128,0,8,,,,,1,,,81,100
11328,note_on,,,,,64,0,8,,,,,1,,,81,100
11456,note_off,,,,,128,0,8,,,,,1,,,81,100
11520,note_on,,,,,64,0,8,,,,,1,,,78,100
11520,note_on,,,,,512,0,11,,,,,4,,,50,100
11520,note_on,,,,,512,0,9,,,,,2,,,74,100
11520,note_on,,,,,0,0,13,,,,,6,,,69,100
11520,note_on,,,,,512,0,14,,,,,6,,,50,100
11520,note_on,,,,,512,0,12,,,,,5,,,38,100
11520,note_on,,,,,512,0,10,,,,,3,,,69,100
11520,note_on,,,,,512,0,13,,,,,6,,,66,100
11648,note_off,,,,,128,0,8,,,,,1,,,78,100
11712,note_on,,,,,64,0,8,,,,,1,,,81,100
11776,note_off,,,,,64,0,8,,,,,1,,,81,100
11776,note_off,,,,,256,0,10,,,,,3,,,69,100
11776,note_off,,,,,256,0,11,,,,,4,,,50,100
11776,note_off,,,,,256,0,12,,,,,5,,,38,100
11776,note_off,,,,,256,0,14,,,,,6,,,50,100
11776,note_off,,,,,256,0,13,,,,,6,,,66,100
11776,note_off,,,,,0,0,13,,,,,6,,,69,100
11776,note_off,,,,,256,0,9,,,,,2,,,74,100
11808,note_on,,,,,32,0,8,,,,,1,,,79,100
11872,note_off,,,,,64,0,8,,,,,1,,,79,100
11904,note_on,,,,,32,0,8,,,,,1,,,81,100
12032,note_off,,,,,128,0,8,,,,,1,,,81,100
12096,note_on,,,,,64,0,8,,,,,1,,,81,100
12224,note_off,,,,,128,0,8,,,,,1,,,81,100
12288,note_on,,,,,512,0,12,,,,,5,,,45,100
12288,note_on,,,,,512,0,13,,,,,6,,,64,100
12288,note_on,,,,,512,0,10,,,,,3,,,69,100
12288,note_on,,,,,0,0,13,,,,,6,,,73,100
12288,note_on,,,,,512,0,9,,,,,2,,,73,100
12288,note_on,,,,,512,0,11,,,,,4,,,57,100
12288,note_on,,,,,512,0,14,,,,,6,,,57,100
12288,note_on,,,,,64,0,8,,,,,1,,,76,100
12416,note_off,,,,,128,0,8,,,,,1,,,76,100
12480,note_on,,,,,64,0,8,,,,,1,,,81,100
12544,note_off,,,,,64,0,8,,,,,1,,,81,100
12544,note_off,,,,,256,0,9,,,,,2,,,73,100
12544,note_off,,,,,256,0,12,,,,,5,,,45,100
12544,note_off,,,,,0,0,13,,,,,6,,,73,100
12544,note_off,,,,,256,0,13,,,,,6,,,64,100
12544,note_off,,,,,256,0,11,,,,,4,,,57,100
12544,note_off,,,,,256,0,10,,,,,3,,,69,100
12544,note_off,,,,,256,0,14,,,,,6,,,57,100
12576,note_on,,,,,32,0,8,,,,,1,,,79,100
12640,note_off,,,,,64,0,8,,,,,1,,,79,100
12672,note_on,,,,,32,0,8,,,,,1,,,81,100
12800,note_off,,,,,128,0,8,,,,,1,,,81,100
12864,note_on,,,,,64,0,8,,,,,1,,,81,100
12992,note_off,,,,,128,0,8,,,,,1,,,81,100
13056,note_on,,,,,512,0,12,,,,,5,,,38,100
13056,note_on,,,,,64,0,8,,,,,1,,,78,100
13056,note_on,,,,,512,0,13,,,,,6,,,66,100
13056,note_on,,,,,512,0,9,,,,,2,,,74,100
13056,note_on,,,,,512,0,11,,,,,4,,,50,100
13056,note_on,,,,,512,0,14,,,,,6,,,50,100
13056,note_on,,,,,0,0,13,,,,,6,,,69,100
13056,note_on,,,,,512,0,10,,,,,3,,,69,100
13120,note_off,,,,,64,0,8,,,,,1,,,78,100
13152,note_on,,,,,32,0,8,,,,,1,,,81,100
13216,note_off,,,,,64,0,8,,,,,1,,,81,100
13248,note_on,,,,,32,0,8,,,,,1,,,79,100
13312,note_off,,,,,256,0,11,,,,,4,,,50,100
13312,note_off,,,,,256,0,14,,,,,6,,,50,100
13312,note_off,,,,,0,0,13,,,,,6,,,69,100
13312,note_off,,,,,256,0,13,,,,,6,,,66,100
13312,note_off,,,,,256,0,10,,,,,3,,,69,100
13312,note_off,,,,,256,0,9,,,,,2,,,74,100
13312,note_off,,,,,64,0,8,,,,,1,,,79,100
13312,note_off,,,,,256,0,12,,,,,5,,,38,100
13344,note_on,,,,,32,0,8,,,,,1,,,78,100
13408,note_off,,,,,64,0,8,,,,,1,,,78,100
13440,note_on,,,,,128,0,13,,,,,6,,,74,100
13440,note_on,,,,,0,0,13,,,,,6,,,71,100
13440,note_on,,,,,32,0,8,,,,,1,,,76,100
13440,note_on,,,,,128,0,14,,,,,6,,,55,100
13440,note_on,,,,,128,0,10,,,,,3,,,71,100
13440,note_on,,,,,128,0,12,,,,,5,,,43,100
13440,note_on,,,,,128,0,11,,,,,4,,,55,100
13504,note_off,,,,,64,0,8,,,,,1,,,76,100
13536,note_on,,,,,32,0,8,,,,,1,,,74,100
13600,note_off,,,,,64,0,8,,,,,1,,,74,100
13632,note_on,,,,,320,0,9,,,,,2,,,76,100
13632,note_on,,,,,32,0,8,,,,,1,,,73,100
13696,note_off,,,,,256,0,13,,,,,6,,,74,100
13696,note_off,,,,,256,0,14,,,,,6,,,55,100
13696,note_off,,,,,256,0,12,,,,,5,,,43,100
13696,note_off,,,,,0,0,13,,,,,6,,,71,100
13696,note_off,,,,,256,0,11,,,,,4,,,55,100
13696,note_off,,,,,256,0,10,,,,,3,,,71,100
13696,note_off,,,,,64,0,8,,,,,1,,,73,100
13728,note_on,,,,,32,0,8,,,,,1,,,71,100
13760,note_off,,,,,128,0,9,,,,,2,,,76,100
13792,note_off,,,,,64,0,8,,,,,1,,,71,100
13824,note_on,,,,,64,0,9,,,,,2,,,73,100
13824,note_on,,,,,128,0,11,,,,,4,,,57,100
13824,note_on,,,,,32,0,8,,,,,1,,,69,100
13824,note_on,,,,,0,0,13,,,,,6,,,73,100
13824,note_on,,,,,128,0,12,,,,,5,,,45,100
13824,note_on,,,,,128,0,10,,,,,3,,,64,100
13824,note_on,,,,,128,0,14,,,,,6,,,57,100
13824,note_on,,,,,128,0,13,,,,,6,,,76,100
13952,note_off,,,,,128,0,8,,,,,1,,,69,100
13952,note_off,,,,,128,0,10,,,,,3,,,64,100
13952,note_off,,,,,0,0,13,,,,,6,,,73,100
13952,note_off,,,,,128,0,13,,,,,6,,,76,100
13952,note_off,,,,,128,0,12,,,,,5,,,45,100
13952,note_off,,,,,128,0,11,,,,,4,,,57,100
13952,note_off,,,,,128,0,14,,,,,6,,,57,100
13952,note_off,,,,,128,0,9,,,,,2,,,73,100
14016,note_on,,,,,64,0,13,,,,,6,,,73,100
14016,note_on,,,,,64,0,11,,,,,4,,,54,100
14016,note_on,,,,,64,0,14,,,,,6,,,54,100
14016,note_on,,,,,64,0,8,,,,,1,,,74,100
14016,note_on,,,,,64,0,10,,,,,3,,,66,100
14016,note_on,,,,,64,0,12,,,,,5,,,42,100
14016,note_on,,,,,64,0,9,,,,,2,,,69,100
14080,note_off,,,,,64,0,11,,,,,4,,,54,100
14080,note_off,,,,,64,0,14,,,,,6,,,54,100
14080,note_off,,,,,64,0,13,,,,,6,,,73,100
14080,note_off,,,,,64,0,12,,,,,5,,,42,100
14112,note_on,,,,,32,0,14,,,,,6,,,55,100
14112,note_on,,,,,32,0,12,,,,,5,,,43,100
14112,note_on,,,,,32,0,13,,,,,6,,,74,100
14112,note_on,,,,,32,0,11,,,,,4,,,55,100
14144,note_off,,,,,128,0,9,,,,,2,,,69,100
14144,note_off,,,,,128,0,10,,,,,3,,,66,100
14144,note_off,,,,,128,0,8,,,,,1,,,74,100
14176,note_off,,,,,64,0,12,,,,,5,,,43,100
14176,note_off,,,,,64,0,14,,,,,6,,,55,100
14176,note_off,,,,,64,0,13,,,,,6,,,74,100
14176,note_off,,,,,64,0,11,,,,,4,,,55,100
14208,note_on,,,,,32,0,13,,,,,6,,,74,100
14208,note_on,,,,,0,0,13,,,,,6,,,76,100
14208,note_on,,,,,64,0,10,,,,,3,,,64,100
14208,note_on,,,,,64,0,8,,,,,1,,,69,100
14208,note_on,,,,,32,0,14,,,,,6,,,57,100
14208,note_on,,,,,64,0,9,,,,,2,,,64,100
14208,note_on,,,,,32,0,12,,,,,5,,,45,100
14208,note_on,,,,,32,0,11,,,,,4,,,57,100
14336,note_off,,,,,128,0,11,,,,,4,,,57,100
14336,note_off,,,,,128,0,8,,,,,1,,,69,100
14336,note_off,,,,,128,0,12,,,,,5,,,45,100
14336,note_off,,,,,128,0,9,,,,,2,,,64,100
14336,note_off,,,,,128,0,14,,,,,6,,,57,100
14336,note_off,,,,,0,0,13,,,,,6,,,76,100
14336,note_off,,,,,128,0,13,,,,,6,,,74,100
14400,note_on,,,,,0,0,13,,,,,6,,,73,100
14400,note_on,,,,,64,0,13,,,,,6,,,64,100
14400,note_on,,,,,64,0,11,,,,,4,,,45,100
14400,note_on,,,,,64,0,14,,,,,6,,,45,100
14400,note_on,,,,,64,0,8,,,,,1,,,73,100
14400,note_on,,,,,64,0,9,,,,,2,,,69,100
14400,note_on,,,,,64,0,12,,,,,5,,,33,100
14464,note_off,,,,,256,0,10,,,,,3,,,64,100
14528,note_off,,,,,128,0,8,,,,,1,,,73,100
14528,note_off,,,,,128,0,9,,,,,2,,,69,100
14528,note_off,,,,,128,0,12,,,,,5,,,33,100
14528,note_off,,,,,128,0,11,,,,,4,,,45,100
14528,note_off,,,,,128,0,14,,,,,6,,,45,100
14528,note_off,,,,,128,0,13,,,,,6,,,64,100
14528,note_off,,,,,0,0,13,,,,,6,,,73,100
14592,note_on,,,,,64,0,9,,,,,2,,,66,100
14592,note_on,,,,,64,0,14,,,,,6,,,50,100
14592,note_on,,,,,128,0,10,,,,,3,,,62,100
14592,note_on,,,,,64,0,13,,,,,6,,,69,100
14592,note_on,,,,,64,0,8,,,,,1,,,74,100
14592,note_on,,,,,0,0,13,,,,,6,,,66,100
14592,note_on,,,,,64,0,11,,,,,4,,,50,100
14592,note_on,,,,,14592,0,7,,,,,0,,,74,100
14592,note_on,,,,,64,0,12,,,,,5,,,38,100
14720,note_off,,,,,128,0,7,,,,,0,,,74,100
14784,note_on,,,,,64,0,7,,,,,0,,,78,100
14848,note_off,,,,,256,0,8,,,,,1,,,74,100
14848,note_off,,,,,0,0,13,,,,,6,,,66,100
14848,note_off,,,,,256,0,9,,,,,2,,,66,100
14848,note_off,,,,,256,0,14,,,,,6,,,50,100
14848,note_off,,,,,256,0,10,,,,,3,,,62,100
14848,note_off,,,,,256,0,12,,,,,5,,,38,100
14848,note_off,,,,,64,0,7,,,,,0,,,78,100
14848,note_off,,,,,256,0,11,,,,,4,,,50,100
14848,note_off,,,,,256,0,13,,,,,6,,,69,100
14880,note_on,,,,,32,0,7,,,,,0,,,76,100
14944,note_off,,,,,64,0,7,,,,,0,,,76,100
14976,note_on,,,,,32,0,7,,,,,0,,,74,100
15104,note_off,,,,,128,0,7,,,,,0,,,74,100
15168,note_on,,,,,320,0,13,,,,,6,,,61,100
15168,note_on,,,,,64,0,7,,,,,0,,,76,100
15168,note_on,,,,,320,0,12,,,,,5,,,33,85
15168,note_on,,,,,320,0,11,,,,,4,,,45,85
15168,note_on,,,,,320,0,14,,,,,6,,,45,100
15168,note_on,,,,,0,0,13,,,,,6,,,64,100
15296,note_off,,,,,128,0,12,,,,,5,,,33,100
15296,note_off,,,,,128,0,11,,,,,4,,,45,100
15296,note_off,,,,,128,0,14,,,,,6,,,45,100
15296,note_off,,,,,128,0,7,,,,,0,,,76,100
15296,note_off,,,,,128,0,13,,,,,6,,,61,100
15296,note_off,,,,,0,0,13,,,,,6,,,64,100
15360,note_on,,,,,64,0,12,,,,,5,,,38,85
15360,note_on,,,,,64,0,7,,,,,0,,,78,100
15360,note_on,,,,,64,0,11,,,,,4,,,50,85
15360,note_on,,,,,64,0,14,,,,,6,,,50,100
15360,note_on,,,,,64,0,13,,,,,6,,,69,100
15360,note_on,,,,,0,0,13,,,,,6,,,66,100
15424,note_off,,,,,64,0,7,,,,,0,,,78,100
15456,note_on,,,,,32,0,7,,,,,0,,,79,100
15520,note_off,,,,,64,0,7,,,,,0,,,79,100
15552,note_on,,,,,32,0,7,,,,,0,,,78,100
15616,note_off,,,,,256,0,14,,,,,6,,,50,100
15616,note_off,,,,,64,0,7,,,,,0,,,78,100
15616,note_off,,,,,256,0,12,,,,,5,,,38,100
15616,note_off,,,,,256,0,13,,,,,6,,,69,100
15616,note_off,,,,,0,0,13,,,,,6,,,66,100
15616,note_off,,,,,256,0,11,,,,,4,,,50,100
15648,note_on,,,,,32,0,7,,,,,0,,,76,100
15712,note_off,,,,,64,0,7,,,,,0,,,76,100
15744,note_on,,,,,32,0,7,,,,,0,,,74,100
15872,note_off,,,,,128,0,7,,,,,0,,,74,100
15936,note_on,,,,,320,0,12,,,,,5,,,37,85
15936,note_on,,,,,320,0,13,,,,,6,,,64,100
15936,note_on,,,,,320,0,14,,,,,6,,,49,100
15936,note_on,,,,,320,0,11,,,,,4,,,49,85
15936,note_on,,,,,64,0,7,,,,,0,,,76,100
16064,note_off,,,,,128,0,14,,,,,6,,,49,100
16064,note_off,,,,,128,0,12,,,,,5,,,37,100
16064,note_off,,,,,128,0,7,,,,,0,,,76,100
16064,note_off,,,,,128,0,11,,,,,4,,,49,100
16064,note_off,,,,,128,0,13,,,,,6,,,64,100
16128,note_on,,,,,64,0,14,,,,,6,,,50,100
16128,note_on,,,,,64,0,12,,,,,5,,,38,85
16128,note_on,,,,,64,0,11,,,,,4,,,50,85
16128,note_on,,,,,64,0,7,,,,,0,,,78,100
16128,note_on,,,,,64,0,13,,,,,6,,,66,100
16256,note_off,,,,,128,0,7,,,,,0,,,78,100
16256,note_off,,,,,128,0,13,,,,,6,,,66,100
16256,note_off,,,,,128,0,11,,,,,4,,,50,100
16256,note_off,,,,,128,0,14,,,,,6,,,50,100
16256,note_off,,,,,128,0,12,,,,,5,,,38,100
16320,note_on,,,,,64,0,13,,,,,6,,,67,100
16320,note_on,,,,,64,0,14,,,,,6,,,52,100
16320,note_on,,,,,64,0,7,,,,,0,,,79,100
16320,note_on,,,,,64,0,11,,,,,4,,,52,85
16320,note_on,,,,,64,0,12,,,,,5,,,40,85
16448,note_off,,,,,128,0,12,,,,,5,,,40,100
16448,note_off,,,,,128,0,14,,,,,6,,,52,100
16448,note_off,,,,,128,0,7,,,,,0,,,79,100
16448,note_off,,,,,128,0,11,,,,,4,,,52,100
16448,note_off,,,,,128,0,13,,,,,6,,,67,100
16512,note_on,,,,,64,0,12,,,,,5,,,42,85
16512,note_on,,,,,64,0,11,,,,,4,,,54,85
16512,note_on,,,,,64,0,14,,,,,6,,,54,100
16512,note_on,,,,,64,0,13,,,,,6,,,69,100
16512,note_on,,,,,64,0,7,,,,,0,,,81,100
16640,note_off,,,,,128,0,12,,,,,5,,,42,100
16640,note_off,,,,,128,0,14,,,,,6,,,54,100
16640,note_off,,,,,128,0,13,,,,,6,,,69,100
16640,note_off,,,,,128,0,7,,,,,0,,,81,100
16640,note_off,,,,,128,0,11,,,,,4,,,54,100
16704,note_on,,,,,64,0,14,,,,,6,,,50,100
16704,note_on,,,,,64,0,11,,,,,4,,,50,85
16704,note_on,,,,,64,0,7,,,,,0,,,79,100
16704,note_on,,,,,64,0,13,,,,,6,,,66,100
16704,note_on,,,,,64,0,12,,,,,5,,,38,85
16768,note_off,,,,,64,0,7,,,,,0,,,79,100
16800,note_on,,,,,32,0,7,,,,,0,,,78,100
16832,note_off,,,,,128,0,12,,,,,5,,,38,100
16832,note_off,,,,,128,0,13,,,,,6,,,66,100
16832,note_off,,,,,128,0,14,,,,,6,,,50,100
16832,note_off,,,,,128,0,11,,,,,4,,,50,100
16864,note_off,,,,,64,0,7,,,,,0,,,78,100
16896,note_on,,,,,64,0,14,,,,,6,,,57,100
16896,note_on,,,,,64,0,13,,,,,6,,,73,100
16896,note_on,,,,,64,0,11,,,,,4,,,57,85
16896,note_on,,,,,64,0,12,,,,,5,,,45,85
16896,note_on,,,,,32,0,7,,,,,0,,,76,100
17024,note_off,,,,,128,0,13,,,,,6,,,73,100
17024,note_off,,,,,128,0,11,,,,,4,,,57,100
17024,note_off,,,,,128,0,7,,,,,0,,,76,100
17024,note_off,,,,,128,0,12,,,,,5,,,45,100
17024,note_off,,,,,128,0,14,,,,,6,,,57,100
17088,note_on,,,,,64,0,7,,,,,0,,,69,100
17088,note_on,,,,,64,0,11,,,,,4,,,59,85
17088,note_on,,,,,64,0,12,,,,,5,,,47,85
17088,note_on,,,,,64,0,13,,,,,6,,,74,100
17088,note_on,,,,,64,0,14,,,,,6,,,59,100
17216,note_off,,,,,128,0,14,,,,,6,,,59,100
17216,note_off,,,,,128,0,13,,,,,6,,,74,100
17216,note_off,,,,,128,0,11,,,,,4,,,59,100
17216,note_off,,,,,128,0,7,,,,,0,,,69,100
17216,note_off,,,,,128,0,12,,,,,5,,,47,100
17280,note_on,,,,,64,0,14,,,,,6,,,61,100
17280,note_on,,,,,64,0,11,,,,,4,,,61,85
17280,note_on,,,,,64,0,12,,,,,5,,,49,85
17280,note_on,,,,,64,0,13,,,,,6,,,76,100
17376,note_on,,,,,160,0,7,,,,,0,,,81,100
17408,note_off,,,,,128,0,13,,,,,6,,,76,100
17408,note_off,,,,,128,0,14,,,,,6,,,61,100
17408,note_off,,,,,128,0,12,,,,,5,,,49,100
17408,note_off,,,,,128,0,11,,,,,4,,,61,100
17440,note_off,,,,,64,0,7,,,,,0,,,81,100
17472,note_on,,,,,64,0,11,,,,,4,,,57,85
17472,note_on,,,,,64,0,13,,,,,6,,,67,100
17472,note_on,,,,,0,0,13,,,,,6,,,73,100
17472,note_on,,,,,64,0,12,,,,,5,,,45,85
17472,note_on,,,,,64,0,14,,,,,6,,,57,100
17472,note_on,,,,,32,0,7,,,,,0,,,79,100
17536,note_off,,,,,64,0,7,,,,,0,,,79,100
17568,note_on,,,,,32,0,7,,,,,0,,,81,100
17600,note_off,,,,,128,0,13,,,,,6,,,67,100
17600,note_off,,,,,0,0,13,,,,,6,,,73,100
17600,note_off,,,,,128,0,11,,,,,4,,,57,100
17600,note_off,,,,,128,0,12,,,,,5,,,45,100
17600,note_off,,,,,128,0,14,,,,,6,,,57,100
17632,note_off,,,,,64,0,7,,,,,0,,,81,100
17664,note_on,,,,,64,0,14,,,,,6,,,62,100
17664,note_on,,,,,32,0,7,,,,,0,,,78,100
17664,note_on,,,,,64,0,12,,,,,5,,,50,85
17664,note_on,,,,,0,0,13,,,,,6,,,66,100
17664,note_on,,,,,64,0,11,,,,,4,,,62,85
17664,note_on,,,,,64,0,13,,,,,6,,,74,100
17728,note_off,,,,,64,0,7,,,,,0,,,78,100
17760,note_on,,,,,32,0,7,,,,,0,,,79,100
17824,note_off,,,,,64,0,7,,,,,0,,,79,100
17856,note_on,,,,,32,0,7,,,,,0,,,76,100
17920,note_off,,,,,256,0,13,,,,,6,,,74,100
17920,note_off,,,,,0,0,13,,,,,6,,,66,100
17920,note_off,,,,,256,0,12,,,,,5,,,50,100
17920,note_off,,,,,64,0,7,,,,,0,,,76,100
17920,note_off,,,,,256,0,14,,,,,6,,,62,100
17920,note_off,,,,,256,0,11,,,,,4,,,62,100
17952,note_on,,,,,32,0,7,,,,,0,,,78,100
18016,note_off,,,,,64,0,7,,,,,0,,,78,100
18048,note_on,,,,,128,0,13,,,,,6,,,62,100
18048,note_on,,,,,0,0,13,,,,,6,,,66,100
18048,note_on,,,,,128,0,14,,,,,6,,,59,100
18048,note_on,,,,,128,0,12,,,,,5,,,47,85
18048,note_on,,,,,32,0,7,,,,,0,,,74,100
18048,note_on,,,,,128,0,11,,,,,4,,,59,85
18112,note_off,,,,,64,0,7,,,,,0,,,74,100
18144,note_on,,,,,32,0,7,,,,,0,,,79,100
18208,note_off,,,,,64,0,7,,,,,0,,,79,100
18240,note_on,,,,,32,0,7,,,,,0,,,78,100
18304,note_off,,,,,256,0,11,,,,,4,,,59,100
18304,note_off,,,,,0,0,13,,,,,6,,,66,100
18304,note_off,,,,,256,0,13,,,,,6,,,62,100
18304,note_off,,,,,256,0,14,,,,,6,,,59,100
18304,note_off,,,,,256,0,12,,,,,5,,,47,100
18304,note_off,,,,,64,0,7,,,,,0,,,78,100
18336,note_on,,,,,32,0,7,,,,,0,,,79,100
18400,note_off,,,,,64,0,7,,,,,0,,,79,100
18432,note_on,,,,,128,0,12,,,,,5,,,49,85
18432,note_on,,,,,128,0,14,,,,,6,,,61,100
18432,note_on,,,,,32,0,7,,,,,0,,,76,100
18432,note_on,,,,,0,0,13,,,,,6,,,67,100
18432,note_on,,,,,128,0,13,,,,,6,,,64,100
18432,note_on,,,,,128,0,11,,,,,4,,,61,85
18496,note_off,,,,,64,0,7,,,,,0,,,76,100
18528,note_on,,,,,32,0,7,,,,,0,,,78,100
18592,note_off,,,,,64,0,7,,,,,0,,,78,100
18624,note_on,,,,,32,0,7,,,,,0,,,74,100
18688,note_off,,,,,64,0,7,,,,,0,,,74,100
18688,note_off,,,,,0,0,13,,,,,6,,,67,100
18688,note_off,,,,,256,0,11,,,,,4,,,61,100
18688,note_off,,,,,256,0,12,,,,,5,,,49,100
18688,note_off,,,,,256,0,14,,,,,6,,,61,100
18688,note_off,,,,,256,0,13,,,,,6,,,64,100
18720,note_on,,,,,32,0,7,,,,,0,,,76,100
18784,note_off,,,,,64,0,7,,,,,0,,,76,100
18816,note_on,,,,,0,0,13,,,,,6,,,64,100
18816,note_on,,,,,128,0,13,,,,,6,,,61,100
18816,note_on,,,,,128,0,12,,,,,5,,,45,85
18816,note_on,,,,,128,0,14,,,,,6,,,57,100
18816,note_on,,,,,32,0,7,,,,,0,,,73,100
18816,note_on,,,,,128,0,11,,,,,4,,,57,85
18880,note_off,,,,,64,0,7,,,,,0,,,73,100
18912,note_on,,,,,32,0,7,,,,,0,,,78,100
18976,note_off,,,,,64,0,7,,,,,0,,,78,100
19008,note_on,,,,,32,0,7,,,,,0,,,76,100
19072,note_off,,,,,256,0,14,,,,,6,,,57,100
19072,note_off,,,,,64,0,7,,,,,0,,,76,100
19072,note_off,,,,,256,0,11,,,,,4,,,57,100
19072,note_off,,,,,256,0,13,,,,,6,,,61,100
19072,note_off,,,,,0,0,13,,,,,6,,,64,100
19072,note_off,,,,,256,0,12,,,,,5,,,45,100
19104,note_on,,,,,32,0,7,,,,,0,,,78,100
19168,note_off,,,,,64,0,7,,,,,0,,,78,100
19200,note_on,,,,,128,0,11,,,,,4,,,59,85
19200,note_on,,,,,0,0,13,,,,,6,,,66,100
19200,note_on,,,,,32,0,7,,,,,0,,,74,100
19200,note_on,,,,,128,0,14,,,,,6,,,59,100
19200,note_on,,,,,128,0,13,,,,,6,,,62,100
19200,note_on,,,,,128,0,12,,,,,5,,,47,85
19264,note_off,,,,,64,0,7,,,,,0,,,74,100
19296,note_on,,,,,32,0,7,,,,,0,,,76,100
19360,note_off,,,,,64,0,7,,,,,0,,,76,100
19392,note_on,,,,,32,0,7,,,,,0,,,73,100
19456,note_off,,,,,64,0,7,,,,,0,,,73,100
19456,note_off,,,,,0,0,13,,,,,6,,,66,100
19456,note_off,,,,,256,0,13,,,,,6,,,62,100
19456,note_off,,,,,256,0,14,,,,,6,,,59,100
19456,note_off,,,,,256,0,11,,,,,4,,,59,100
19456,note_off,,,,,256,0,12,,,,,5,,,47,100
19488,note_on,,,,,32,0,7,,,,,0,,,74,100
19552,note_off,,,,,64,0,7,,,,,0,,,74,100
19584,note_on,,,,,128,0,14,,,,,6,,,56,100
19584,note_on,,,,,128,0,11,,,,,4,,,56,85
19584,note_on,,,,,0,0,13,,,,,6,,,59,100
19584,note_on,,,,,128,0,13,,,,,6,,,64,100
19584,note_on,,,,,128,0,12,,,,,5,,,44,85
19584,note_on,,,,,32,0,7,,,,,0,,,71,100
19648,note_off,,,,,64,0,7,,,,,0,,,71,100
19680,note_on,,,,,32,0,7,,,,,0,,,76,100
19744,note_off,,,,,64,0,7,,,,,0,,,76,100
19776,note_on,,,,,32,0,7,,,,,0,,,74,100
19840,note_off,,,,,0,0,13,,,,,6,,,59,100
19840,note_off,,,,,256,0,13,,,,,6,,,64,100
19840,note_off,,,,,256,0,12,,,,,5,,,44,100
19840,note_off,,,,,256,0,11,,,,,4,,,56,100
19840,note_off,,,,,256,0,14,,,,,6,,,56,100
19840,note_off,,,,,64,0,7,,,,,0,,,74,100
19872,note_on,,,,,32,0,7,,,,,0,,,76,100
19936,note_off,,,,,64,0,7,,,,,0,,,76,100
19968,note_on,,,,,0,0,13,,,,,6,,,64,100
19968,note_on,,,,,128,0,13,,,,,6,,,61,100
19968,note_on,,,,,32,0,7,,,,,0,,,73,100
19968,note_on,,,,,128,0,14,,,,,6,,,57,100
19968,note_on,,,,,128,0,11,,,,,4,,,57,85
19968,note_on,,,,,128,0,12,,,,,5,,,45,85
20032,note_off,,,,,64,0,7,,,,,0,,,73,100
20064,note_on,,,,,32,0,7,,,,,0,,,74,100
20128,note_off,,,,,64,0,7,,,,,0,,,74,100
20160,note_on,,,,,32,0,7,,,,,0,,,71,100
20224,note_off,,,,,64,0,7,,,,,0,,,71,100
20224,note_off,,,,,0,0,13,,,,,6,,,64,100
20224,note_off,,,,,256,0,13,,,,,6,,,61,100
20224,note_off,,,,,256,0,14,,,,,6,,,57,100
20224,note_off,,,,,256,0,11,,,,,4,,,57,100
20224,note_off,,,,,256,0,12,,,,,5,,,45,100
20256,note_on,,,,,32,0,7,,,,,0,,,73,100
20320,note_off,,,,,64,0,7,,,,,0,,,73,100
20352,note_on,,,,,32,0,7,,,,,0,,,69,100
20416,note_off,,,,,64,0,7,,,,,0,,,69,100
20448,note_on,,,,,32,0,7,,,,,0,,,76,100
20512,note_off,,,,,64,0,7,,,,,0,,,76,100
20544,note_on,,,,,320,0,11,,,,,4,,,57,85
20544,note_on,,,,,0,0,13,,,,,6,,,64,100
20544,note_on,,,,,320,0,13,,,,,6,,,61,100
20544,note_on,,,,,320,0,12,,,,,5,,,45,85
20544,note_on,,,,,32,0,7,,,,,0,,,74,100
20544,note_on,,,,,320,0,14,,,,,6,,,57,100
20608,note_off,,,,,64,0,7,,,,,0,,,74,100
20640,note_on,,,,,32,0,7,,,,,0,,,76,100
20672,note_off,,,,,128,0,12,,,,,5,,,45,100
20672,note_off,,,,,128,0,11,,,,,4,,,57,100
20672,note_off,,,,,128,0,13,,,,,6,,,61,100
20672,note_off,,,,,0,0,13,,,,,6,,,64,100
20672,note_off,,,,,128,0,14,,,,,6,,,57,100
20704,note_off,,,,,64,0,7,,,,,0,,,76,100
20736,note_on,,,,,32,0,7,,,,,0,,,78,100
20736,note_on,,,,,64,0,14,,,,,6,,,50,100
20736,note_on,,,,,64,0,12,,,,,5,,,38,85
20736,note_on,,,,,64,0,11,,,,,4,,,50,85
20736,note_on,,,,,64,0,13,,,,,6,,,57,100
20736,note_on,,,,,0,0,13,,,,,6,,,66,100
20800,note_off,,,,,64,0,7,,,,,0,,,78,100
20832,note_on,,,,,32,0,7,,,,,0,,,80,100
20896,note_off,,,,,64,0,7,,,,,0,,,80,100
20928,note_on,,,,,32,0,7,,,,,0,,,76,100
20992,note_off,,,,,256,0,14,,,,,6,,,50,100
20992,note_off,,,,,256,0,11,,,,,4,,,50,100
20992,note_off,,,,,0,0,13,,,,,6,,,66,100
20992,note_off,,,,,256,0,13,,,,,6,,,57,100
20992,note_off,,,,,256,0,12,,,,,5,,,38,100
20992,note_off,,,,,64,0,7,,,,,0,,,76,100
21024,note_on,,,,,32,0,7,,,,,0,,,78,100
21088,note_off,,,,,64,0,7,,,,,0,,,78,100
21120,note_on,,,,,128,0,13,,,,,6,,,68,100
21120,note_on,,,,,128,0,11,,,,,4,,,52,85
21120,note_on,,,,,128,0,14,,,,,6,,,52,100
21120,note_on,,,,,0,0,13,,,,,6,,,59,100
21120,note_on,,,,,32,0,7,,,,,0,,,80,100
21120,note_on,,,,,128,0,12,,,,,5,,,40,85
21184,note_off,,,,,64,0,7,,,,,0,,,80,100
21216,note_on,,,,,32,0,7,,,,,0,,,81,100
21280,note_off,,,,,64,0,7,,,,,0,,,81,100
21312,note_on,,,,,32,0,7,,,,,0,,,78,100
21376,note_off,,,,,64,0,7,,,,,0,,,78,100
21376,note_off,,,,,256,0,11,,,,,4,,,52,100
21376,note_off,,,,,256,0,12,,,,,5,,,40,100
21376,note_off,,,,,256,0,13,,,,,6,,,68,100
21376,note_off,,,,,0,0,13,,,,,6,,,59,100
21376,note_off,,,,,256,0,14,,,,,6,,,52,100
21408,note_on,,,,,32,0,7,,,,,0,,,80,100
21472,note_off,,,,,64,0,7,,,,,0,,,80,100
21504,note_on,,,,,32,0,7,,,,,0,,,81,100
21504,note_on,,,,,128,0,14,,,,,6,,,57,100
21504,note_on,,,,,128,0,12,,,,,5,,,45,85
21504,note_on,,,,,128,0,11,,,,,4,,,57,85
21504,note_on,,,,,128,0,13,,,,,6,,,69,100
21504,note_on,,,,,0,0,13,,,,,6,,,61,100
21596,note_off,,,,,92,0,7,,,,,0,,,81,100
21600,note_on,,,,,4,0,7,,,,,0,,,80,100
21692,note_off,,,,,92,0,7,,,,,0,,,80,100
21696,note_on,,,,,4,0,7,,,,,0,,,81,100
21760,note_off,,,,,256,0,12,,,,,5,,,45,100
21760,note_off,,,,,256,0,14,,,,,6,,,57,100
21760,note_off,,,,,256,0,13,,,,,6,,,69,100
21760,note_off,,,,,256,0,11,,,,,4,,,57,100
21760,note_off,,,,,0,0,13,,,,,6,,,61,100
21788,note_off,,,,,92,0,7,,,,,0,,,81,100
21792,note_on,,,,,4,0,7,,,,,0,,,83,100
21856,note_off,,,,,64,0,7,,,,,0,,,83,100
21888,note_on,,,,,128,0,13,,,,,6,,,71,100
21888,note_on,,,,,0,0,13,,,,,6,,,74,100
21888,note_on,,,,,32,0,7,,,,,0,,,81,100
21888,note_on,,,,,128,0,11,,,,,4,,,55,85
21888,note_on,,,,,128,0,12,,,,,5,,,43,85
21888,note_on,,,,,128,0,14,,,,,6,,,55,100
21980,note_off,,,,,92,0,7,,,,,0,,,81,100
21984,note_on,,,,,4,0,7,,,,,0,,,80,100
22076,note_off,,,,,92,0,7,,,,,0,,,80,100
22080,note_on,,,,,4,0,7,,,,,0,,,81,100
22144,note_off,,,,,256,0,14,,,,,6,,,55,100
22144,note_off,,,,,256,0,12,,,,,5,,,43,100
22144,note_off,,,,,256,0,13,,,,,6,,,71,100
22144,note_off,,,,,0,0,13,,,,,6,,,74,100
22144,note_off,,,,,256,0,11,,,,,4,,,55,100
22172,note_off,,,,,92,0,7,,,,,0,,,81,100
22176,note_on,,,,,4,0,7,,,,,0,,,83,100
22240,note_off,,,,,64,0,7,,,,,0,,,83,100
22272,note_on,,,,,32,0,7,,,,,0,,,81,100
22272,note_on,,,,,128,0,13,,,,,6,,,69,100
22272,note_on,,,,,0,0,13,,,,,6,,,73,100
22272,note_on,,,,,128,0,11,,,,,4,,,54,85
22272,note_on,,,,,128,0,12,,,,,5,,,42,85
22272,note_on,,,,,128,0,14,,,,,6,,,54,100
22364,note_off,,,,,92,0,7,,,,,0,,,81,100
22368,note_on,,,,,4,0,7,,,,,0,,,80,100
22460,note_off,,,,,92,0,7,,,,,0,,,80,100
22464,note_on,,,,,4,0,7,,,,,0,,,81,100
22528,note_off,,,,,0,0,13,,,,,6,,,73,100
22528,note_off,,,,,256,0,11,,,,,4,,,54,100
22528,note_off,,,,,256,0,12,,,,,5,,,42,100
22528,note_off,,,,,256,0,14,,,,,6,,,54,100
22528,note_off,,,,,256,0,13,,,,,6,,,69,100
22556,note_off,,,,,92,0,7,,,,,0,,,81,100
22560,note_on,,,,,4,0,7,,,,,0,,,83,100
22624,note_off,,,,,64,0,7,,,,,0,,,83,100
22656,note_on,,,,,32,0,7,,,,,0,,,81,100
22656,note_on,,,,,128,0,14,,,,,6,,,52,100
22656,note_on,,,,,0,0,13,,,,,6,,,71,100
22656,note_on,,,,,128,0,13,,,,,6,,,68,100
22656,note_on,,,,,128,0,11,,,,,4,,,52,85
22656,note_on,,,,,128,0,12,,,,,5,,,40,85
22748,note_off,,,,,92,0,7,,,,,0,,,81,100
22752,note_on,,,,,4,0,7,,,,,0,,,80,100
22844,note_off,,,,,92,0,7,,,,,0,,,80,100
22848,note_on,,,,,4,0,7,,,,,0,,,81,100
22912,note_off,,,,,256,0,14,,,,,6,,,52,100
22912,note_off,,,,,256,0,12,,,,,5,,,40,100
22912,note_off,,,,,0,0,13,,,,,6,,,71,100
22912,note_off,,,,,256,0,13,,,,,6,,,68,100
22912,note_off,,,,,256,0,11,,,,,4,,,52,100
22940,note_off,,,,,92,0,7,,,,,0,,,81,100
22944,note_on,,,,,4,0,7,,,,,0,,,83,100
23008,note_off,,,,,64,0,7,,,,,0,,,83,100
23040,note_on,,,,,32,0,7,,,,,0,,,81,100
23040,note_on,,,,,128,0,12,,,,,5,,,38,85
23040,note_on,,,,,0,0,13,,,,,6,,,69,100
23040,note_on,,,,,128,0,11,,,,,4,,,50,85
23040,note_on,,,,,128,0,13,,,,,6,,,66,100
23040,note_on,,,,,128,0,14,,,,,6,,,50,100
23132,note_off,,,,,92,0,7,,,,,0,,,81,100
23136,note_on,,,,,4,0,7,,,,,0,,,80,100
23228,note_off,,,,,92,0,7,,,,,0,,,80,100
23232,note_on,,,,,4,0,7,,,,,0,,,81,100
23296,note_off,,,,,256,0,12,,,,,5,,,38,100
23296,note_off,,,,,0,0,13,,,,,6,,,69,100
23296,note_off,,,,,256,0,13,,,,,6,,,66,100
23296,note_off,,,,,256,0,11,,,,,4,,,50,100
23296,note_off,,,,,256,0,14,,,,,6,,,50,100
23324,note_off,,,,,92,0,7,,,,,0,,,81,100
23328,note_on,,,,,4,0,7,,,,,0,,,83,100
23392,note_off,,,,,64,0,7,,,,,0,,,83,100
23424,note_on,,,,,128,0,11,,,,,4,,,49,88
23424,note_on,,,,,128,0,14,,,,,6,,,49,100
23424,note_on,,,,,128,0,12,,,,,5,,,37,88
23424,note_on,,,,,128,0,13,,,,,6,,,64,100
23424,note_on,,,,,32,0,7,,,,,0,,,81,100
23424,note_on,,,,,0,0,13,,,,,6,,,68,100
23516,note_off,,,,,92,0,7,,,,,0,,,81,100
23520,note_on,,,,,4,0,7,,,,,0,,,80,100
23612,note_off,,,,,92,0,7,,,,,0,,,80,100
23616,note_on,,,,,4,0,7,,,,,0,,,81,100
23680,note_off,,,,,256,0,12,,,,,5,,,37,100
23680,note_off,,,,,256,0,13,,,,,6,,,64,100
23680,note_off,,,,,0,0,13,,,,,6,,,68,100
23680,note_off,,,,,256,0,14,,,,,6,,,49,100
23680,note_off,,,,,256,0,11,,,,,4,,,49,100
23708,note_off,,,,,92,0,7,,,,,0,,,81,100
23712,note_on,,,,,4,0,7,,,,,0,,,83,100
23776,note_off,,,,,64,0,7,,,,,0,,,83,100
23808,note_on,,,,,128,0,11,,,,,4,,,50,92
23808,note_on,,,,,128,0,13,,,,,6,,,71,100
23808,note_on,,,,,0,0,13,,,,,6,,,69,100
23808,note_on,,,,,128,0,12,,,,,5,,,38,92
23808,note_on,,,,,128,0,14,,,,,6,,,50,100
23808,note_on,,,,,32,0,7,,,,,0,,,81,100
23900,note_off,,,,,92,0,7,,,,,0,,,81,100
23904,note_on,,,,,4,0,7,,,,,0,,,80,100
23996,note_off,,,,,92,0,7,,,,,0,,,80,100
24000,note_on,,,,,4,0,7,,,,,0,,,81,100
24064,note_off,,,,,256,0,14,,,,,6,,,50,100
24064,note_off,,,,,256,0,12,,,,,5,,,38,100
24064,note_off,,,,,0,0,13,,,,,6,,,69,100
24064,note_off,,,,,256,0,13,,,,,6,,,71,100
24064,note_off,,,,,256,0,11,,,,,4,,,50,100
24092,note_off,,,,,92,0,7,,,,,0,,,81,100
24096,note_on,,,,,4,0,7,,,,,0,,,83,100
24160,note_off,,,,,64,0,7,,,,,0,,,83,100
24192,note_on,,,,,128,0,14,,,,,6,,,52,100
24192,note_on,,,,,32,0,7,,,,,0,,,80,100
24192,note_on,,,,,128,0,13,,,,,6,,,68,100
24192,note_on,,,,,128,0,12,,,,,5,,,40,96
24192,note_on,,,,,0,0,13,,,,,6,,,71,100
24192,note_on,,,,,128,0,11,,,,,4,,,52,96
24284,note_off,,,,,92,0,7,,,,,0,,,80,100
24288,note_on,,,,,4,0,7,,,,,0,,,81,100
24380,note_off,,,,,92,0,7,,,,,0,,,81,100
24384,note_on,,,,,4,0,7,,,,,0,,,83,100
24448,note_off,,,,,256,0,11,,,,,4,,,52,100
24448,note_off,,,,,0,0,13,,,,,6,,,71,100
24448,note_off,,,,,256,0,13,,,,,6,,,68,100
24448,note_off,,,,,256,0,14,,,,,6,,,52,100
24448,note_off,,,,,256,0,12,,,,,5,,,40,100
24476,note_off,,,,,92,0,7,,,,,0,,,83,100
24480,note_on,,,,,4,0,7,,,,,0,,,80,100
24544,note_off,,,,,64,0,7,,,,,0,,,80,100
24576,note_on,,,,,9728,0,10,,,,,3,,,73,100
24576,note_on,,,,,128,0,13,,,,,6,,,73,100
24576,note_on,,,,,0,0,13,,,,,6,,,69,100
24576,note_on,,,,,128,0,12,,,,,5,,,33,99
24576,note_on,,,,,128,0,11,,,,,4,,,45,99
24576,note_on,,,,,128,0,14,,,,,6,,,45,100
24576,note_on,,,,,32,0,7,,,,,0,,,81,100
24576,note_on,,,,,9728,0,9,,,,,2,,,76,100
24576,note_on,,,,,9728,0,8,,,,,1,,,81,100
24640,note_off,,,,,64,0,11,,,,,4,,,45,100
24640,note_off,,,,,64,0,14,,,,,6,,,45,100
24640,note_off,,,,,0,0,13,,,,,6,,,69,100
24640,note_off,,,,,64,0,13,,,,,6,,,73,100
24640,note_off,,,,,64,0,12,,,,,5,,,33,100
24672,note_on,,,,,32,0,12,,,,,5,,,45,100
24672,note_on,,,,,32,0,13,,,,,6,,,73,100
24672,note_on,,,,,32,0,11,,,,,4,,,57,100
24672,note_on,,,,,32,0,14,,,,,6,,,57,100
24736,note_off,,,,,64,0,13,,,,,6,,,73,100
24736,note_off,,,,,64,0,14,,,,,6,,,57,100
24736,note_off,,,,,64,0,12,,,,,5,,,45,100
24736,note_off,,,,,64,0,11,,,,,4,,,57,100
24768,note_on,,,,,32,0,14,,,,,6,,,59,100
24768,note_on,,,,,32,0,13,,,,,6,,,74,100
24768,note_on,,,,,32,0,11,,,,,4,,,59,100
24768,note_on,,,,,32,0,12,,,,,5,,,47,100
24832,note_off,,,,,64,0,12,,,,,5,,,47,100
24832,note_off,,,,,64,0,13,,,,,6,,,74,100
24832,note_off,,,,,64,0,14,,,,,6,,,59,100
24832,note_off,,,,,256,0,10,,,,,3,,,73,100
24832,note_off,,,,,256,0,9,,,,,2,,,76,100
24832,note_off,,,,,64,0,11,,,,,4,,,59,100
24832,note_off,,,,,256,0,7,,,,,0,,,81,100
24832,note_off,,,,,256,0,8,,,,,1,,,81,100
24864,note_on,,,,,32,0,11,,,,,4,,,61,100
24864,note_on,,,,,32,0,13,,,,,6,,,76,100
24864,note_on,,,,,32,0,14,,,,,6,,,61,100
24864,note_on,,,,,32,0,12,,,,,5,,,49,100
24928,note_off,,,,,64,0,11,,,,,4,,,61,100
24928,note_off,,,,,64,0,13,,,,,6,,,76,100
24928,note_off,,,,,64,0,14,,,,,6,,,61,100
24928,note_off,,,,,64,0,12,,,,,5,,,49,100
24960,note_on,,,,,32,0,11,,,,,4,,,62,100
24960,note_on,,,,,32,0,12,,,,,5,,,50,100
24960,note_on,,,,,32,0,14,,,,,6,,,62,100
24960,note_on,,,,,32,0,13,,,,,6,,,78,100
25056,note_on,,,,,224,0,8,,,,,1,,,81,100
25056,note_on,,,,,224,0,9,,,,,2,,,78,100
25088,note_off,,,,,128,0,11,,,,,4,,,62,100
25088,note_off,,,,,128,0,14,,,,,6,,,62,100
25088,note_off,,,,,128,0,13,,,,,6,,,78,100
25088,note_off,,,,,128,0,12,,,,,5,,,50,100
25120,note_off,,,,,64,0,8,,,,,1,,,81,100
25120,note_off,,,,,64,0,9,,,,,2,,,78,100
25152,note_on,,,,,64,0,11,,,,,4,,,50,100
25152,note_on,,,,,64,0,13,,,,,6,,,69,100
25152,note_on,,,,,64,0,12,,,,,5,,,38,100
25152,note_on,,,,,32,0,9,,,,,2,,,76,100
25152,note_on,,,,,64,0,14,,,,,6,,,50,100
25152,note_on,,,,,32,0,8,,,,,1,,,79,100
25152,note_on,,,,,0,0,13,,,,,6,,,66,100
25216,note_off,,,,,64,0,8,,,,,1,,,79,100
25216,note_off,,,,,64,0,9,,,,,2,,,76,100
25248,note_on,,,,,32,0,8,,,,,1,,,78,100
25248,note_on,,,,,32,0,9,,,,,2,,,74,100
25280,note_off,,,,,0,0,13,,,,,6,,,66,100
25280,note_off,,,,,128,0,11,,,,,4,,,50,100
25280,note_off,,,,,128,0,12,,,,,5,,,38,100
25280,note_off,,,,,128,0,13,,,,,6,,,69,100
25280,note_off,,,,,128,0,14,,,,,6,,,50,100
25312,note_off,,,,,64,0,9,,,,,2,,,74,100
25312,note_off,,,,,64,0,8,,,,,1,,,78,100
25344,note_on,,,,,32,0,9,,,,,2,,,73,100
25344,note_on,,,,,64,0,14,,,,,6,,,57,100
25344,note_on,,,,,512,0,10,,,,,3,,,69,100
25344,note_on,,,,,64,0,13,,,,,6,,,64,100
25344,note_on,,,,,0,0,13,,,,,6,,,73,100
25344,note_on,,,,,32,0,8,,,,,1,,,76,100
25344,note_on,,,,,64,0,11,,,,,4,,,57,100
25344,note_on,,,,,64,0,12,,,,,5,,,45,100
25408,note_off,,,,,64,0,9,,,,,2,,,73,100
25408,note_off,,,,,64,0,8,,,,,1,,,76,100
25440,note_on,,,,,32,0,9,,,,,2,,,71,100
25440,note_on,,,,,32,0,8,,,,,1,,,74,100
25472,note_off,,,,,128,0,10,,,,,3,,,69,100
25472,note_off,,,,,128,0,11,,,,,4,,,57,100
25472,note_off,,,,,0,0,13,,,,,6,,,73,100
25472,note_off,,,,,128,0,13,,,,,6,,,64,100
25472,note_off,,,,,128,0,14,,,,,6,,,57,100
25472,note_off,,,,,128,0,12,,,,,5,,,45,100
25504,note_off,,,,,64,0,9,,,,,2,,,71,100
25504,note_off,,,,,64,0,8,,,,,1,,,74,100
25536,note_on,,,,,64,0,12,,,,,5,,,45,100
25536,note_on,,,,,64,0,13,,,,,6,,,64,100
25536,note_on,,,,,32,0,8,,,,,1,,,73,100
25536,note_on,,,,,64,0,14,,,,,6,,,57,100
25536,note_on,,,,,0,0,13,,,,,6,,,73,100
25536,note_on,,,,,64,0,10,,,,,3,,,69,100
25536,note_on,,,,,64,0,11,,,,,4,,,57,100
25536,note_on,,,,,32,0,9,,,,,2,,,69,100
25600,note_off,,,,,64,0,9,,,,,2,,,69,100
25600,note_off,,,,,64,0,8,,,,,1,,,73,100
25632,note_on,,,,,32,0,8,,,,,1,,,76,100
25632,note_on,,,,,32,0,9,,,,,2,,,73,100
25664,note_off,,,,,128,0,12,,,,,5,,,45,100
25664,note_off,,,,,0,0,13,,,,,6,,,73,100
25664,note_off,,,,,128,0,10,,,,,3,,,69,100
25664,note_off,,,,,128,0,11,,,,,4,,,57,100
25664,note_off,,,,,128,0,14,,,,,6,,,57,100
25664,note_off,,,,,128,0,13,,,,,6,,,64,100
25696,note_off,,,,,64,0,9,,,,,2,,,73,100
25696,note_off,,,,,64,0,8,,,,,1,,,76,100
25728,note_on,,,,,64,0,12,,,,,5,,,38,100
25728,note_on,,,,,64,0,11,,,,,4,,,50,100
25728,note_on,,,,,0,0,13,,,,,6,,,69,100
25728,note_on,,,,,32,0,8,,,,,1,,,78,100
25728,note_on,,,,,64,0,14,,,,,6,,,50,100
25728,note_on,,,,,32,0,9,,,,,2,,,74,100
25728,note_on,,,,,64,0,10,,,,,3,,,69,100
25728,note_on,,,,,64,0,13,,,,,6,,,66,100
25792,note_off,,,,,64,0,9,,,,,2,,,74,100
25792,note_off,,,,,64,0,8,,,,,1,,,78,100
25824,note_on,,,,,32,0,9,,,,,2,,,76,100
25824,note_on,,,,,32,0,8,,,,,1,,,79,100
25856,note_off,,,,,128,0,10,,,,,3,,,69,100
25856,note_off,,,,,128,0,12,,,,,5,,,38,100
25856,note_off,,,,,128,0,14,,,,,6,,,50,100
25856,note_off,,,,,128,0,13,,,,,6,,,66,100
25856,note_off,,,,,0,0,13,,,,,6,,,69,100
25856,note_off,,,,,128,0,11,,,,,4,,,50,100
25888,note_off,,,,,64,0,9,,,,,2,,,76,100
25888,note_off,,,,,64,0,8,,,,,1,,,79,100
25920,note_on,,,,,64,0,12,,,,,5,,,38,100
25920,note_on,,,,,64,0,13,,,,,6,,,66,100
25920,note_on,,,,,0,0,13,,,,,6,,,69,100
25920,note_on,,,,,64,0,14,,,,,6,,,50,100
25920,note_on,,,,,32,0,8,,,,,1,,,78,100
25920,note_on,,,,,32,0,9,,,,,2,,,74,100
25920,note_on,,,,,64,0,10,,,,,3,,,69,100
25920,note_on,,,,,64,0,11,,,,,4,,,50,100
25984,note_off,,,,,64,0,9,,,,,2,,,74,100
25984,note_off,,,,,64,0,8,,,,,1,,,78,100
26016,note_on,,,,,32,0,9,,,,,2,,,76,100
26016,note_on,,,,,32,0,8,,,,,1,,,79,100
26048,note_off,,,,,128,0,10,,,,,3,,,69,100
26048,note_off,,,,,128,0,11,,,,,4,,,50,100
26048,note_off,,,,,128,0,12,,,,,5,,,38,100
26048,note_off,,,,,128,0,14,,,,,6,,,50,100
26048,note_off,,,,,0,0,13,,,,,6,,,69,100
26048,note_off,,,,,128,0,13,,,,,6,,,66,100
26080,note_off,,,,,64,0,9,,,,,2,,,76,100
26080,note_off,,,,,64,0,8,,,,,1,,,79,100
26112,note_on,,,,,64,0,10,,,,,3,,,69,100
26112,note_on,,,,,64,0,12,,,,,5,,,45,100
26112,note_on,,,,,32,0,9,,,,,2,,,73,100
26112,note_on,,,,,64,0,14,,,,,6,,,57,100
26112,note_on,,,,,0,0,13,,,,,6,,,73,100
26112,note_on,,,,,64,0,13,,,,,6,,,64,100
26112,note_on,,,,,64,0,11,,,,,4,,,57,100
26112,note_on,,,,,32,0,8,,,,,1,,,76,100
26176,note_off,,,,,64,0,9,,,,,2,,,73,100
26176,note_off,,,,,64,0,8,,,,,1,,,76,100
26208,note_on,,,,,32,0,8,,,,,1,,,74,100
26208,note_on,,,,,32,0,9,,,,,2,,,71,100
26240,note_off,,,,,128,0,14,,,,,6,,,57,100
26240,note_off,,,,,128,0,10,,,,,3,,,69,100
26240,note_off,,,,,128,0,12,,,,,5,,,45,100
26240,note_off,,,,,128,0,13,,,,,6,,,64,100
26240,note_off,,,,,0,0,13,,,,,6,,,73,100
26240,note_off,,,,,128,0,11,,,,,4,,,57,100
26272,note_off,,,,,64,0,8,,,,,1,,,74,100
26272,note_off,,,,,64,0,9,,,,,2,,,71,100
26304,note_on,,,,,32,0,9,,,,,2,,,69,99
26304,note_on,,,,,64,0,10,,,,,3,,,69,99
26304,note_on,,,,,64,0,13,,,,,6,,,64,100
26304,note_on,,,,,0,0,13,,,,,6,,,73,100
26304,note_on,,,,,64,0,12,,,,,5,,,45,99
26304,note_on,,,,,64,0,14,,,,,6,,,57,100
26304,note_on,,,,,64,0,11,,,,,4,,,57,99
26304,note_on,,,,,32,0,8,,,,,1,,,73,99
26368,note_off,,,,,64,0,8,,,,,1,,,73,100
26368,note_off,,,,,64,0,9,,,,,2,,,69,100
26400,note_on,,,,,32,0,9,,,,,2,,,73,98
26400,note_on,,,,,32,0,8,,,,,1,,,76,98
26432,note_off,,,,,128,0,12,,,,,5,,,45,100
26432,note_off,,,,,128,0,11,,,,,4,,,57,100
26432,note_off,,,,,128,0,14,,,,,6,,,57,100
26432,note_off,,,,,128,0,13,,,,,6,,,64,100
26432,note_off,,,,,0,0,13,,,,,6,,,73,100
26432,note_off,,,,,128,0,10,,,,,3,,,69,100
26464,note_off,,,,,64,0,9,,,,,2,,,73,100
26464,note_off,,,,,64,0,8,,,,,1,,,76,100
26496,note_on,,,,,64,0,11,,,,,4,,,50,97
26496,note_on,,,,,64,0,14,,,,,6,,,50,100
26496,note_on,,,,,64,0,12,,,,,5,,,38,97
26496,note_on,,,,,32,0,8,,,,,1,,,78,97
26496,note_on,,,,,32,0,9,,,,,2,,,74,97
26496,note_on,,,,,0,0,13,,,,,6,,,69,100
26496,note_on,,,,,64,0,10,,,,,3,,,69,97
26496,note_on,,,,,64,0,13,,,,,6,,,66,100
26560,note_off,,,,,64,0,9,,,,,2,,,74,100
26560,note_off,,,,,64,0,8,,,,,1,,,78,100
26592,note_on,,,,,32,0,8,,,,,1,,,79,96
26592,note_on,,,,,32,0,9,,,,,2,,,76,96
26624,note_off,,,,,0,0,13,,,,,6,,,69,100
26624,note_off,,,,,128,0,13,,,,,6,,,66,100
26624,note_off,,,,,128,0,14,,,,,6,,,50,100
26624,note_off,,,,,128,0,11,,,,,4,,,50,100
26624,note_off,,,,,128,0,12,,,,,5,,,38,100
26624,note_off,,,,,128,0,10,,,,,3,,,69,100
26656,note_off,,,,,64,0,9,,,,,2,,,76,100
26656,note_off,,,,,64,0,8,,,,,1,,,79,100
26688,note_on,,,,,64,0,11,,,,,4,,,50,95
26688,note_on,,,,,32,0,9,,,,,2,,,74,95
26688,note_on,,,,,32,0,8,,,,,1,,,78,95
26688,note_on,,,,,64,0,13,,,,,6,,,66,100
26688,note_on,,,,,0,0,13,,,,,6,,,69,100
26688,note_on,,,,,64,0,10,,,,,3,,,69,95
26688,note_on,,,,,64,0,12,,,,,5,,,38,95
26688,note_on,,,,,64,0,14,,,,,6,,,50,100
26752,note_off,,,,,64,0,9,,,,,2,,,74,100
26752,note_off,,,,,64,0,8,,,,,1,,,78,100
26784,note_on,,,,,32,0,9,,,,,2,,,76,94
26784,note_on,,,,,32,0,8,,,,,1,,,79,94
26816,note_off,,,,,128,0,14,,,,,6,,,50,100
26816,note_off,,,,,128,0,12,,,,,5,,,38,100
26816,note_off,,,,,128,0,11,,,,,4,,,50,100
26816,note_off,,,,,128,0,10,,,,,3,,,69,100
26816,note_off,,,,,128,0,13,,,,,6,,,66,100
26816,note_off,,,,,0,0,13,,,,,6,,,69,100
26848,note_off,,,,,64,0,8,,,,,1,,,79,100
26848,note_off,,,,,64,0,9,,,,,2,,,76,100
26880,note_on,,,,,32,0,8,,,,,1,,,76,93
26880,note_on,,,,,64,0,11,,,,,4,,,57,93
26880,note_on,,,,,64,0,12,,,,,5,,,45,93
26880,note_on,,,,,64,0,10,,,,,3,,,69,93
26880,note_on,,,,,64,0,14,,,,,6,,,57,100
26880,note_on,,,,,0,0,13,,,,,6,,,73,100
26880,note_on,,,,,64,0,13,,,,,6,,,64,100
26880,note_on,,,,,32,0,9,,,,,2,,,73,93
26944,note_off,,,,,64,0,9,,,,,2,,,73,100
26944,note_off,,,,,64,0,8,,,,,1,,,76,100
26976,note_on,,,,,32,0,8,,,,,1,,,74,92
26976,note_on,,,,,32,0,9,,,,,2,,,71,92
27008,note_off,,,,,128,0,13,,,,,6,,,64,100
27008,note_off,,,,,0,0,13,,,,,6,,,73,100
27008,note_off,,,,,128,0,11,,,,,4,,,57,100
27008,note_off,,,,,128,0,14,,,,,6,,,57,100
27008,note_off,,,,,128,0,12,,,,,5,,,45,100
27008,note_off,,,,,128,0,10,,,,,3,,,69,100
27040,note_off,,,,,64,0,8,,,,,1,,,74,100
27040,note_off,,,,,64,0,9,,,,,2,,,71,100
27072,note_on,,,,,64,0,12,,,,,5,,,45,91
27072,note_on,,,,,0,0,13,,,,,6,,,73,100
27072,note_on,,,,,32,0,8,,,,,1,,,73,91
27072,note_on,,,,,32,0,9,,,,,2,,,69,91
27072,note_on,,,,,64,0,14,,,,,6,,,57,100
27072,note_on,,,,,64,0,11,,,,,4,,,57,91
27072,note_on,,,,,64,0,10,,,,,3,,,69,91
27072,note_on,,,,,64,0,13,,,,,6,,,64,100
27136,note_off,,,,,64,0,8,,,,,1,,,73,100
27136,note_off,,,,,64,0,9,,,,,2,,,69,100
27168,note_on,,,,,32,0,9,,,,,2,,,73,90
27168,note_on,,,,,32,0,8,,,,,1,,,76,90
27200,note_off,,,,,128,0,11,,,,,4,,,57,100
27200,note_off,,,,,128,0,12,,,,,5,,,45,100
27200,note_off,,,,,128,0,13,,,,,6,,,64,100
27200,note_off,,,,,128,0,10,,,,,3,,,69,100
27200,note_off,,,,,0,0,13,,,,,6,,,73,100
27200,note_off,,,,,128,0,14,,,,,6,,,57,100
27232,note_off,,,,,64,0,9,,,,,2,,,73,100
27232,note_off,,,,,64,0,8,,,,,1,,,76,100
27264,note_on,,,,,64,0,12,,,,,5,,,38,89
27264,note_on,,,,,32,0,8,,,,,1,,,78,89
27264,note_on,,,,,64,0,10,,,,,3,,,69,89
27264,note_on,,,,,64,0,11,,,,,4,,,50,89
27264,note_on,,,,,64,0,14,,,,,6,,,50,100
27264,note_on,,,,,32,0,9,,,,,2,,,74,89
27264,note_on,,,,,64,0,13,,,,,6,,,66,100
27264,note_on,,,,,0,0,13,,,,,6,,,69,100
27328,note_off,,,,,64,0,9,,,,,2,,,74,100
27328,note_off,,,,,64,0,8,,,,,1,,,78,100
27360,note_on,,,,,32,0,8,,,,,1,,,79,88
27360,note_on,,,,,32,0,9,,,,,2,,,76,88
27392,note_off,,,,,128,0,12,,,,,5,,,38,100
27392,note_off,,,,,128,0,13,,,,,6,,,66,100
27392,note_off,,,,,128,0,14,,,,,6,,,50,100
27392,note_off,,,,,0,0,13,,,,,6,,,69,100
27392,note_off,,,,,128,0,11,,,,,4,,,50,100
27392,note_off,,,,,128,0,10,,,,,3,,,69,100
27424,note_off,,,,,64,0,8,,,,,1,,,79,100
27424,note_off,,,,,64,0,9,,,,,2,,,76,100
27456,note_on,,,,,64,0,11,,,,,4,,,50,87
27456,note_on,,,,,64,0,14,,,,,6,,,50,100
27456,note_on,,,,,32,0,8,,,,,1,,,78,87
27456,note_on,,,,,64,0,12,,,,,5,,,38,87
27456,note_on,,,,,64,0,13,,,,,6,,,66,100
27456,note_on,,,,,32,0,9,,,,,2,,,74,87
27456,note_on,,,,,0,0,13,,,,,6,,,69,100
27456,note_on,,,,,64,0,10,,,,,3,,,69,87
27520,note_off,,,,,64,0,8,,,,,1,,,78,100
27520,note_off,,,,,64,0,9,,,,,2,,,74,100
27552,note_on,,,,,32,0,9,,,,,2,,,76,86
27552,note_on,,,,,32,0,8,,,,,1,,,79,86
27584,note_off,,,,,0,0,13,,,,,6,,,69,100
27584,note_off,,,,,128,0,12,,,,,5,,,38,100
27584,note_off,,,,,128,0,14,,,,,6,,,50,100
27584,note_off,,,,,128,0,13,,,,,6,,,66,100
27584,note_off,,,,,128,0,10,,,,,3,,,69,100
27584,note_off,,,,,128,0,11,,,,,4,,,50,100
27616,note_off,,,,,64,0,8,,,,,1,,,79,100
27616,note_off,,,,,64,0,9,,,,,2,,,76,100
27648,note_on,,,,,32,0,9,,,,,2,,,73,85
27648,note_on,,,,,64,0,14,,,,,6,,,57,100
27648,note_on,,,,,64,0,12,,,,,5,,,45,85
27648,note_on,,,,,0,0,13,,,,,6,,,73,100
27648,note_on,,,,,64,0,13,,,,,6,,,64,100
27648,note_on,,,,,32,0,8,,,,,1,,,76,85
27648,note_on,,,,,64,0,11,,,,,4,,,57,85
27648,note_on,,,,,64,0,10,,,,,3,,,69,85
27776,note_off,,,,,128,0,11,,,,,4,,,57,100
27776,note_off,,,,,128,0,10,,,,,3,,,69,100
27776,note_off,,,,,128,0,12,,,,,5,,,45,100
27776,note_off,,,,,128,0,8,,,,,1,,,76,100
27776,note_off,,,,,128,0,14,,,,,6,,,57,100
27776,note_off,,,,,0,0,13,,,,,6,,,73,100
27776,note_off,,,,,128,0,13,,,,,6,,,64,100
27840,note_on,,,,,64,0,8,,,,,1,,,69,85
27840,note_on,,,,,64,0,14,,,,,6,,,45,100
27840,note_on,,,,,64,0,11,,,,,4,,,45,60
27840,note_on,,,,,0,0,13,,,,,6,,,61,100
27840,note_on,,,,,64,0,10,,,,,3,,,61,60
27840,note_on,,,,,64,0,12,,,,,5,,,33,60
27840,note_on,,,,,64,0,13,,,,,6,,,64,100
27904,note_off,,,,,256,0,9,,,,,2,,,73,100
27904,note_off,,,,,64,0,12,,,,,5,,,33,100
27904,note_off,,,,,0,0,13,,,,,6,,,61,100
27904,note_off,,,,,64,0,11,,,,,4,,,45,100
27904,note_off,,,,,64,0,10,,,,,3,,,61,100
27904,note_off,,,,,64,0,14,,,,,6,,,45,100
27904,note_off,,,,,64,0,13,,,,,6,,,64,100
27936,note_on,,,,,32,0,13,,,,,6,,,66,100
27936,note_on,,,,,0,0,13,,,,,6,,,62,100
27936,note_on,,,,,32,0,14,,,,,6,,,47,100
27936,note_on,,,,,32,0,11,,,,,4,,,47,60
27936,note_on,,,,,32,0,10,,,,,3,,,62,60
27936,note_on,,,,,32,0,12,,,,,5,,,35,60
27968,note_off,,,,,128,0,8,,,,,1,,,69,100
28000,note_off,,,,,64,0,10,,,,,3,,,62,100
28000,note_off,,,,,64,0,13,,,,,6,,,66,100
28000,note_off,,,,,0,0,13,,,,,6,,,62,100
28000,note_off,,,,,64,0,12,,,,,5,,,35,100
28000,note_off,,,,,64,0,14,,,,,6,,,47,100
28000,note_off,,,,,64,0,11,,,,,4,,,47,100
28032,note_on,,,,,32,0,10,,,,,3,,,64,60
28032,note_on,,,,,32,0,14,,,,,6,,,49,100
28032,note_on,,,,,32,0,12,,,,,5,,,37,60
28032,note_on,,,,,32,0,13,,,,,6,,,69,100
28032,note_on,,,,,0,0,13,,,,,6,,,64,100
28032,note_on,,,,,32,0,11,,,,,4,,,49,60
28128,note_on,,,,,160,0,8,,,,,1,,,76,60
28128,note_on,,,,,224,0,9,,,,,2,,,73,60
28160,note_off,,,,,128,0,11,,,,,4,,,49,100
28160,note_off,,,,,128,0,14,,,,,6,,,49,100
28160,note_off,,,,,128,0,13,,,,,6,,,69,100
28160,note_off,,,,,0,0,13,,,,,6,,,64,100
28160,note_off,,,,,128,0,10,,,,,3,,,64,100
28160,note_off,,,,,128,0,12,,,,,5,,,37,100
28192,note_off,,,,,64,0,9,,,,,2,,,73,100
28192,note_off,,,,,64,0,8,,,,,1,,,76,100
28224,note_on,,,,,64,0,10,,,,,3,,,64,60
28224,note_on,,,,,32,0,9,,,,,2,,,74,60
28224,note_on,,,,,64,0,14,,,,,6,,,45,100
28224,note_on,,,,,32,0,8,,,,,1,,,78,60
28224,note_on,,,,,64,0,11,,,,,4,,,45,60
28224,note_on,,,,,64,0,13,,,,,6,,,61,100
28224,note_on,,,,,0,0,13,,,,,6,,,64,100
28224,note_on,,,,,64,0,12,,,,,5,,,33,60
28288,note_off,,,,,64,0,9,,,,,2,,,74,100
28288,note_off,,,,,64,0,8,,,,,1,,,78,100
28320,note_on,,,,,32,0,8,,,,,1,,,76,60
28320,note_on,,,,,32,0,9,,,,,2,,,73,60
28352,note_off,,,,,128,0,13,,,,,6,,,61,100
28352,note_off,,,,,128,0,14,,,,,6,,,45,100
28352,note_off,,,,,0,0,13,,,,,6,,,64,100
28352,note_off,,,,,128,0,12,,,,,5,,,33,100
28352,note_off,,,,,128,0,11,,,,,4,,,45,100
28352,note_off,,,,,128,0,10,,,,,3,,,64,100
28384,note_off,,,,,64,0,8,,,,,1,,,76,100
28384,note_off,,,,,64,0,9,,,,,2,,,73,100
28416,note_on,,,,,64,0,11,,,,,4,,,52,60
28416,note_on,,,,,32,0,9,,,,,2,,,71,60
28416,note_on,,,,,64,0,10,,,,,3,,,68,60
28416,note_on,,,,,32,0,8,,,,,1,,,74,60
28416,note_on,,,,,64,0,14,,,,,6,,,52,100
28416,note_on,,,,,64,0,13,,,,,6,,,59,100
28416,note_on,,,,,64,0,12,,,,,5,,,40,60
28416,note_on,,,,,0,0,13,,,,,6,,,62,100
28480,note_off,,,,,64,0,8,,,,,1,,,74,100
28480,note_off,,,,,64,0,9,,,,,2,,,71,100
28512,note_on,,,,,32,0,8,,,,,1,,,73,60
28512,note_on,,,,,32,0,9,,,,,2,,,69,60
28544,note_off,,,,,128,0,11,,,,,4,,,52,100
28544,note_off,,,,,128,0,10,,,,,3,,,68,100
28544,note_off,,,,,0,0,13,,,,,6,,,62,100
28544,note_off,,,,,128,0,13,,,,,6,,,59,100
28544,note_off,,,,,128,0,14,,,,,6,,,52,100
28544,note_off,,,,,128,0,12,,,,,5,,,40,100
28576,note_off,,,,,64,0,8,,,,,1,,,73,100
28576,note_off,,,,,64,0,9,,,,,2,,,69,100
28608,note_on,,,,,0,0,13,,,,,6,,,62,100
28608,note_on,,,,,64,0,11,,,,,4,,,52,60
28608,note_on,,,,,64,0,10,,,,,3,,,68,60
28608,note_on,,,,,64,0,12,,,,,5,,,40,60
28608,note_on,,,,,64,0,13,,,,,6,,,59,100
28608,note_on,,,,,64,0,14,,,,,6,,,52,100
28608,note_on,,,,,32,0,9,,,,,2,,,68,60
28608,note_on,,,,,32,0,8,,,,,1,,,71,60
28672,note_off,,,,,64,0,8,,,,,1,,,71,100
28672,note_off,,,,,64,0,9,,,,,2,,,68,100
28704,note_on,,,,,32,0,9,,,,,2,,,69,60
28704,note_on,,,,,32,0,8,,,,,1,,,73,60
28736,note_off,,,,,128,0,10,,,,,3,,,68,100
28736,note_off,,,,,128,0,11,,,,,4,,,52,100
28736,note_off,,,,,128,0,14,,,,,6,,,52,100
28736,note_off,,,,,128,0,13,,,,,6,,,59,100
28736,note_off,,,,,0,0,13,,,,,6,,,62,100
28736,note_off,,,,,128,0,12,,,,,5,,,40,100
28768,note_off,,,,,64,0,9,,,,,2,,,69,100
28768,note_off,,,,,64,0,8,,,,,1,,,73,100
28800,note_on,,,,,64,0,12,,,,,5,,,40,60
28800,note_on,,,,,64,0,11,,,,,4,,,52,60
28800,note_on,,,,,64,0,10,,,,,3,,,68,60
28800,note_on,,,,,64,0,13,,,,,6,,,59,100
28800,note_on,,,,,32,0,8,,,,,1,,,74,60
28800,note_on,,,,,0,0,13,,,,,6,,,62,100
28800,note_on,,,,,64,0,14,,,,,6,,,52,100
28800,note_on,,,,,32,0,9,,,,,2,,,71,60
28864,note_off,,,,,64,0,9,,,,,2,,,71,100
28864,note_off,,,,,64,0,8,,,,,1,,,74,100
28896,note_on,,,,,32,0,8,,,,,1,,,76,60
28896,note_on,,,,,32,0,9,,,,,2,,,73,60
28928,note_off,,,,,128,0,14,,,,,6,,,52,100
28928,note_off,,,,,128,0,10,,,,,3,,,68,100
28928,note_off,,,,,128,0,11,,,,,4,,,52,100
28928,note_off,,,,,128,0,13,,,,,6,,,59,100
28928,note_off,,,,,0,0,13,,,,,6,,,62,100
28928,note_off,,,,,128,0,12,,,,,5,,,40,100
28960,note_off,,,,,64,0,9,,,,,2,,,73,100
28960,note_off,,,,,64,0,8,,,,,1,,,76,100
28992,note_on,,,,,64,0,11,,,,,4,,,52,60
28992,note_on,,,,,64,0,13,,,,,6,,,59,100
28992,note_on,,,,,0,0,13,,,,,6,,,62,100
28992,note_on,,,,,32,0,8,,,,,1,,,74,60
28992,note_on,,,,,64,0,10,,,,,3,,,68,60
28992,note_on,,,,,64,0,14,,,,,6,,,52,100
28992,note_on,,,,,32,0,9,,,,,2,,,71,60
28992,note_on,,,,,64,0,12,,,,,5,,,40,60
29056,note_off,,,,,64,0,8,,,,,1,,,74,100
29056,note_off,,,,,64,0,9,,,,,2,,,71,100
29088,note_on,,,,,32,0,8,,,,,1,,,76,60
29088,note_on,,,,,32,0,9,,,,,2,,,73,60
29120,note_off,,,,,128,0,11,,,,,4,,,52,100
29120,note_off,,,,,128,0,13,,,,,6,,,59,100
29120,note_off,,,,,0,0,13,,,,,6,,,62,100
29120,note_off,,,,,128,0,10,,,,,3,,,68,100
29120,note_off,,,,,128,0,12,,,,,5,,,40,100
29120,note_off,,,,,128,0,14,,,,,6,,,52,100
29152,note_off,,,,,64,0,8,,,,,1,,,76,100
29152,note_off,,,,,64,0,9,,,,,2,,,73,100
29184,note_on,,,,,64,0,10,,,,,3,,,68,60
29184,note_on,,,,,32,0,9,,,,,2,,,71,60
29184,note_on,,,,,64,0,14,,,,,6,,,52,100
29184,note_on,,,,,64,0,12,,,,,5,,,40,60
29184,note_on,,,,,64,0,13,,,,,6,,,59,100
29184,note_on,,,,,0,0,13,,,,,6,,,62,100
29184,note_on,,,,,64,0,11,,,,,4,,,52,60
29184,note_on,,,,,32,0,8,,,,,1,,,74,60
29248,note_off,,,,,64,0,8,,,,,1,,,74,100
29248,note_off,,,,,64,0,9,,,,,2,,,71,100
29280,note_on,,,,,32,0,8,,,,,1,,,73,60
29280,note_on,,,,,32,0,9,,,,,2,,,69,60
29312,note_off,,,,,128,0,11,,,,,4,,,52,100
29312,note_off,,,,,0,0,13,,,,,6,,,62,100
29312,note_off,,,,,128,0,10,,,,,3,,,68,100
29312,note_off,,,,,128,0,13,,,,,6,,,59,100
29312,note_off,,,,,128,0,14,,,,,6,,,52,100
29312,note_off,,,,,128,0,12,,,,,5,,,40,100
29344,note_off,,,,,64,0,8,,,,,1,,,73,100
29344,note_off,,,,,64,0,9,,,,,2,,,69,100
29376,note_on,,,,,64,0,11,,,,,4,,,52,60
29376,note_on,,,,,64,0,14,,,,,6,,,52,100
29376,note_on,,,,,64,0,10,,,,,3,,,68,60
29376,note_on,,,,,32,0,9,,,,,2,,,68,60
29376,note_on,,,,,32,0,8,,,,,1,,,71,60
29376,note_on,,,,,64,0,13,,,,,6,,,59,100
29376,note_on,,,,,0,0,13,,,,,6,,,62,100
29376,note_on,,,,,64,0,12,,,,,5,,,40,60
29440,note_off,,,,,64,0,8,,,,,1,,,71,100
29440,note_off,,,,,64,0,9,,,,,2,,,68,100
29472,note_on,,,,,32,0,9,,,,,2,,,69,60
29472,note_on,,,,,32,0,8,,,,,1,,,73,61
29504,note_off,,,,,128,0,14,,,,,6,,,52,100
29504,note_off,,,,,128,0,13,,,,,6,,,59,100
29504,note_off,,,,,128,0,11,,,,,4,,,52,100
29504,note_off,,,,,0,0,13,,,,,6,,,62,100
29504,note_off,,,,,128,0,12,,,,,5,,,40,100
29504,note_off,,,,,128,0,10,,,,,3,,,68,100
29536,note_off,,,,,64,0,8,,,,,1,,,73,100
29536,note_off,,,,,64,0,9,,,,,2,,,69,100
29568,note_on,,,,,64,0,10,,,,,3,,,68,60
29568,note_on,,,,,32,0,9,,,,,2,,,71,60
29568,note_on,,,,,64,0,14,,,,,6,,,52,100
29568,note_on,,,,,64,0,11,,,,,4,,,52,60
29568,note_on,,,,,32,0,8,,,,,1,,,74,61
29568,note_on,,,,,64,0,13,,,,,6,,,59,100
29568,note_on,,,,,0,0,13,,,,,6,,,62,100
29568,note_on,,,,,64,0,12,,,,,5,,,40,60
29632,note_off,,,,,64,0,8,,,,,1,,,74,100
29632,note_off,,,,,64,0,9,,,,,2,,,71,100
29664,note_on,,,,,32,0,9,,,,,2,,,73,60
29664,note_on,,,,,32,0,8,,,,,1,,,76,62
29696,note_off,,,,,128,0,11,,,,,4,,,52,100
29696,note_off,,,,,128,0,14,,,,,6,,,52,100
29696,note_off,,,,,128,0,12,,,,,5,,,40,100
29696,note_off,,,,,128,0,13,,,,,6,,,59,100
29696,note_off,,,,,0,0,13,,,,,6,,,62,100
29696,note_off,,,,,128,0,10,,,,,3,,,68,100
29728,note_off,,,,,64,0,8,,,,,1,,,76,100
29728,note_off,,,,,64,0,9,,,,,2,,,73,100
29760,note_on,,,,,64,0,12,,,,,5,,,40,60
29760,note_on,,,,,64,0,14,,,,,6,,,52,100
29760,note_on,,,,,32,0,8,,,,,1,,,74,62
29760,note_on,,,,,0,0,13,,,,,6,,,62,100
29760,note_on,,,,,64,0,10,,,,,3,,,68,60
29760,note_on,,,,,64,0,11,,,,,4,,,52,60
29760,note_on,,,,,32,0,9,,,,,2,,,71,60
29760,note_on,,,,,64,0,13,,,,,6,,,59,100
29824,note_off,,,,,64,0,8,,,,,1,,,74,100
29824,note_off,,,,,64,0,9,,,,,2,,,71,100
29856,note_on,,,,,32,0,8,,,,,1,,,76,63
29856,note_on,,,,,32,0,9,,,,,2,,,73,60
29888,note_off,,,,,128,0,11,,,,,4,,,52,100
29888,note_off,,,,,128,0,12,,,,,5,,,40,100
29888,note_off,,,,,128,0,10,,,,,3,,,68,100
29888,note_off,,,,,0,0,13,,,,,6,,,62,100
29888,note_off,,,,,128,0,13,,,,,6,,,59,100
29888,note_off,,,,,128,0,14,,,,,6,,,52,100
29920,note_off,,,,,64,0,9,,,,,2,,,73,100
29920,note_off,,,,,64,0,8,,,,,1,,,76,100
29952,note_on,,,,,64,0,14,,,,,6,,,52,100
29952,note_on,,,,,0,0,13,,,,,6,,,62,100
29952,note_on,,,,,64,0,10,,,,,3,,,68,60
29952,note_on,,,,,64,0,13,,,,,6,,,59,100
29952,note_on,,,,,32,0,8,,,,,1,,,74,63
29952,note_on,,,,,64,0,12,,,,,5,,,40,60
29952,note_on,,,,,32,0,9,,,,,2,,,71,60
29952,note_on,,,,,64,0,11,,,,,4,,,52,60
30016,note_off,,,,,64,0,8,,,,,1,,,74,100
30016,note_off,,,,,64,0,9,,,,,2,,,71,100
30048,note_on,,,,,32,0,8,,,,,1,,,73,64
30048,note_on,,,,,32,0,9,,,,,2,,,69,60
30080,note_off,,,,,128,0,10,,,,,3,,,68,100
30080,note_off,,,,,128,0,11,,,,,4,,,52,100
30080,note_off,,,,,0,0,13,,,,,6,,,62,100
30080,note_off,,,,,128,0,14,,,,,6,,,52,100
30080,note_off,,,,,128,0,12,,,,,5,,,40,100
30080,note_off,,,,,128,0,13,,,,,6,,,59,100
30112,note_off,,,,,64,0,8,,,,,1,,,73,100
30112,note_off,,,,,64,0,9,,,,,2,,,69,100
30144,note_on,,,,,0,0,13,,,,,6,,,62,100
30144,note_on,,,,,64,0,10,,,,,3,,,68,60
30144,note_on,,,,,64,0,11,,,,,4,,,52,60
30144,note_on,,,,,32,0,8,,,,,1,,,71,64
30144,note_on,,,,,64,0,13,,,,,6,,,59,100
30144,note_on,,,,,64,0,12,,,,,5,,,40,60
30144,note_on,,,,,32,0,9,,,,,2,,,68,60
30144,note_on,,,,,64,0,14,,,,,6,,,52,100
30208,note_off,,,,,64,0,8,,,,,1,,,71,100
30208,note_off,,,,,64,0,9,,,,,2,,,68,100
30240,note_on,,,,,32,0,8,,,,,1,,,73,65
30240,note_on,,,,,32,0,9,,,,,2,,,69,60
30272,note_off,,,,,128,0,11,,,,,4,,,52,100
30272,note_off,,,,,128,0,10,,,,,3,,,68,100
30272,note_off,,,,,128,0,12,,,,,5,,,40,100
30272,note_off,,,,,128,0,14,,,,,6,,,52,100
30272,note_off,,,,,0,0,13,,,,,6,,,62,100
30272,note_off,,,,,128,0,13,,,,,6,,,59,100
30304,note_off,,,,,64,0,8,,,,,1,,,73,100
30304,note_off,,,,,64,0,9,,,,,2,,,69,100
30336,note_on,,,,,32,0,8,,,,,1,,,74,65
30336,note_on,,,,,64,0,11,,,,,4,,,52,60
30336,note_on,,,,,64,0,12,,,,,5,,,40,60
30336,note_on,,,,,64,0,14,,,,,6,,,52,100
30336,note_on,,,,,32,0,9,,,,,2,,,71,60
30336,note_on,,,,,64,0,13,,,,,6,,,59,100
30336,note_on,,,,,64,0,10,,,,,3,,,68,60
30336,note_on,,,,,0,0,13,,,,,6,,,62,100
30400,note_off,,,,,64,0,8,,,,,1,,,74,100
30400,note_off,,,,,64,0,9,,,,,2,,,71,100
30432,note_on,,,,,32,0,8,,,,,1,,,76,66
30432,note_on,,,,,32,0,9,,,,,2,,,73,60
30464,note_off,,,,,128,0,10,,,,,3,,,68,100
30464,note_off,,,,,128,0,14,,,,,6,,,52,100
30464,note_off,,,,,128,0,13,,,,,6,,,59,100
30464,note_off,,,,,0,0,13,,,,,6,,,62,100
30464,note_off,,,,,128,0,12,,,,,5,,,40,100
30464,note_off,,,,,128,0,11,,,,,4,,,52,100
30496,note_off,,,,,64,0,8,,,,,1,,,76,100
30496,note_off,,,,,64,0,9,,,,,2,,,73,100
30528,note_on,,,,,64,0,10,,,,,3,,,68,60
30528,note_on,,,,,32,0,8,,,,,1,,,74,66
30528,note_on,,,,,64,0,11,,,,,4,,,52,60
30528,note_on,,,,,64,0,12,,,,,5,,,40,60
30528,note_on,,,,,32,0,9,,,,,2,,,71,60
30528,note_on,,,,,64,0,14,,,,,6,,,52,100
30528,note_on,,,,,0,0,13,,,,,6,,,62,100
30528,note_on,,,,,64,0,13,,,,,6,,,59,100
30592,note_off,,,,,64,0,8,,,,,1,,,74,100
30592,note_off,,,,,64,0,9,,,,,2,,,71,100
30624,note_on,,,,,32,0,9,,,,,2,,,73,60
30624,note_on,,,,,32,0,8,,,,,1,,,76,67
30656,note_off,,,,,128,0,10,,,,,3,,,68,100
30656,note_off,,,,,128,0,12,,,,,5,,,40,100
30656,note_off,,,,,128,0,13,,,,,6,,,59,100
30656,note_off,,,,,128,0,11,,,,,4,,,52,100
30656,note_off,,,,,0,0,13,,,,,6,,,62,100
30656,note_off,,,,,128,0,14,,,,,6,,,52,100
30688,note_off,,,,,64,0,9,,,,,2,,,73,100
30688,note_off,,,,,64,0,8,,,,,1,,,76,100
30720,note_on,,,,,64,0,10,,,,,3,,,64,60
30720,note_on,,,,,32,0,9,,,,,2,,,69,60
30720,note_on,,,,,64,0,14,,,,,6,,,57,100
30720,note_on,,,,,32,0,8,,,,,1,,,73,67
30720,note_on,,,,,64,0,12,,,,,5,,,45,60
30720,note_on,,,,,64,0,13,,,,,6,,,64,100
30720,note_on,,,,,0,0,13,,,,,6,,,61,100
30720,note_on,,,,,64,0,11,,,,,4,,,57,70
30784,note_off,,,,,64,0,8,,,,,1,,,73,100
30816,note_on,,,,,32,0,8,,,,,1,,,74,68
30848,note_off,,,,,128,0,12,,,,,5,,,45,100
30848,note_off,,,,,128,0,11,,,,,4,,,57,100
30848,note_off,,,,,128,0,14,,,,,6,,,57,100
30848,note_off,,,,,0,0,13,,,,,6,,,61,100
30848,note_off,,,,,128,0,13,,,,,6,,,64,100
30880,note_off,,,,,64,0,8,,,,,1,,,74,100
30912,note_on,,,,,64,0,11,,,,,4,,,59,73
30912,note_on,,,,,64,0,14,,,,,6,,,59,100
30912,note_on,,,,,64,0,13,,,,,6,,,62,100
30912,note_on,,,,,64,0,12,,,,,5,,,47,62
30912,note_on,,,,,32,0,8,,,,,1,,,73,68
30976,note_off,,,,,256,0,9,,,,,2,,,69,100
30976,note_off,,,,,256,0,10,,,,,3,,,64,100
30976,note_off,,,,,64,0,8,,,,,1,,,73,100
31008,note_on,,,,,32,0,8,,,,,1,,,71,69
31040,note_off,,,,,128,0,13,,,,,6,,,62,100
31040,note_off,,,,,128,0,14,,,,,6,,,59,100
31040,note_off,,,,,128,0,12,,,,,5,,,47,100
31040,note_off,,,,,128,0,11,,,,,4,,,59,100
31072,note_off,,,,,64,0,8,,,,,1,,,71,100
31104,note_on,,,,,64,0,11,,,,,4,,,61,77
31104,note_on,,,,,64,0,12,,,,,5,,,49,64
31104,note_on,,,,,64,0,14,,,,,6,,,61,100
31104,note_on,,,,,64,0,13,,,,,6,,,64,100
31104,note_on,,,,,32,0,8,,,,,1,,,69,69
31200,note_on,,,,,6368,0,7,,,,,0,,,81,100
31232,note_off,,,,,128,0,14,,,,,6,,,61,100
31232,note_off,,,,,128,0,11,,,,,4,,,61,100
31232,note_off,,,,,128,0,12,,,,,5,,,49,100
31232,note_off,,,,,128,0,13,,,,,6,,,64,100
31264,note_off,,,,,64,0,7,,,,,0,,,81,100
31296,note_on,,,,,64,0,13,,,,,6,,,66,100
31296,note_on,,,,,32,0,7,,,,,0,,,83,100
31296,note_on,,,,,64,0,14,,,,,6,,,62,100
31296,note_on,,,,,64,0,11,,,,,4,,,62,81
31296,note_on,,,,,64,0,12,,,,,5,,,50,67
31360,note_off,,,,,256,0,8,,,,,1,,,69,100
31360,note_off,,,,,64,0,7,,,,,0,,,83,100
31392,note_on,,,,,32,0,7,,,,,0,,,81,100
31424,note_off,,,,,128,0,11,,,,,4,,,62,100
31424,note_off,,,,,128,0,13,,,,,6,,,66,100
31424,note_off,,,,,128,0,12,,,,,5,,,50,100
31424,note_off,,,,,128,0,14,,,,,6,,,62,100
31456,note_off,,,,,64,0,7,,,,,0,,,81,100
31488,note_on,,,,,64,0,13,,,,,6,,,67,100
31488,note_on,,,,,32,0,7,,,,,0,,,79,100
31488,note_on,,,,,64,0,11,,,,,4,,,64,85
31488,note_on,,,,,64,0,14,,,,,6,,,64,100
31488,note_on,,,,,64,0,12,,,,,5,,,52,85
31552,note_off,,,,,64,0,7,,,,,0,,,79,100
31584,note_on,,,,,32,0,7,,,,,0,,,78,100
31616,note_off,,,,,128,0,12,,,,,5,,,52,100
31616,note_off,,,,,128,0,11,,,,,4,,,64,100
31616,note_off,,,,,128,0,13,,,,,6,,,67,100
31616,note_off,,,,,128,0,14,,,,,6,,,64,100
31648,note_off,,,,,64,0,7,,,,,0,,,78,100
31680,note_on,,,,,64,0,11,,,,,4,,,61,85
31680,note_on,,,,,64,0,13,,,,,6,,,64,100
31680,note_on,,,,,64,0,12,,,,,5,,,49,85
31680,note_on,,,,,64,0,14,,,,,6,,,61,100
31680,note_on,,,,,32,0,7,,,,,0,,,76,100
31744,note_off,,,,,64,0,7,,,,,0,,,76,100
31776,note_on,,,,,32,0,7,,,,,0,,,78,100
31808,note_off,,,,,128,0,14,,,,,6,,,61,100
31808,note_off,,,,,128,0,12,,,,,5,,,49,100
31808,note_off,,,,,128,0,11,,,,,4,,,61,100
31808,note_off,,,,,128,0,13,,,,,6,,,64,100
31840,note_off,,,,,64,0,7,,,,,0,,,78,100
31872,note_on,,,,,64,0,12,,,,,5,,,52,85
31872,note_on,,,,,64,0,13,,,,,6,,,67,100
31872,note_on,,,,,32,0,7,,,,,0,,,79,100
31872,note_on,,,,,64,0,11,,,,,4,,,64,85
31872,note_on,,,,,64,0,14,,,,,6,,,64,100
31936,note_off,,,,,64,0,7,,,,,0,,,79,100
31968,note_on,,,,,32,0,7,,,,,0,,,81,100
32000,note_off,,,,,128,0,11,,,,,4,,,64,100
32000,note_off,,,,,128,0,14,,,,,6,,,64,100
32000,note_off,,,,,128,0,13,,,,,6,,,67,100
32000,note_off,,,,,128,0,12,,,,,5,,,52,100
32032,note_off,,,,,64,0,7,,,,,0,,,81,100
32064,note_on,,,,,32,0,7,,,,,0,,,79,100
32064,note_on,,,,,64,0,11,,,,,4,,,61,85
32064,note_on,,,,,64,0,13,,,,,6,,,64,100
32064,note_on,,,,,64,0,14,,,,,6,,,61,100
32064,note_on,,,,,64,0,12,,,,,5,,,49,85
32128,note_off,,,,,64,0,7,,,,,0,,,79,100
32160,note_on,,,,,32,0,7,,,,,0,,,81,100
32192,note_off,,,,,128,0,14,,,,,6,,,61,100
32192,note_off,,,,,128,0,11,,,,,4,,,61,100
32192,note_off,,,,,128,0,12,,,,,5,,,49,100
32192,note_off,,,,,128,0,13,,,,,6,,,64,100
32224,note_off,,,,,64,0,7,,,,,0,,,81,100
32256,note_on,,,,,32,0,7,,,,,0,,,79,100
32256,note_on,,,,,64,0,11,,,,,4,,,64,85
32256,note_on,,,,,64,0,12,,,,,5,,,52,85
32256,note_on,,,,,64,0,13,,,,,6,,,67,100
32256,note_on,,,,,64,0,14,,,,,6,,,64,100
32320,note_off,,,,,64,0,7,,,,,0,,,79,100
32352,note_on,,,,,32,0,7,,,,,0,,,78,100
32384,note_off,,,,,128,0,12,,,,,5,,,52,100
32384,note_off,,,,,128,0,13,,,,,6,,,67,100
32384,note_off,,,,,128,0,14,,,,,6,,,64,100
32384,note_off,,,,,128,0,11,,,,,4,,,64,100
32416,note_off,,,,,64,0,7,,,,,0,,,78,100
32448,note_on,,,,,64,0,12,,,,,5,,,49,85
32448,note_on,,,,,64,0,13,,,,,6,,,64,100
32448,note_on,,,,,64,0,14,,,,,6,,,61,100
32448,note_on,,,,,64,0,11,,,,,4,,,61,85
32448,note_on,,,,,32,0,7,,,,,0,,,76,100
32512,note_off,,,,,64,0,7,,,,,0,,,76,100
32544,note_on,,,,,32,0,7,,,,,0,,,78,100
32576,note_off,,,,,128,0,11,,,,,4,,,61,100
32576,note_off,,,,,128,0,14,,,,,6,,,61,100
32576,note_off,,,,,128,0,13,,,,,6,,,64,100
32576,note_off,,,,,128,0,12,,,,,5,,,49,100
32608,note_off,,,,,64,0,7,,,,,0,,,78,100
32640,note_on,,,,,32,0,7,,,,,0,,,79,100
32640,note_on,,,,,64,0,11,,,,,4,,,64,85
32640,note_on,,,,,64,0,13,,,,,6,,,67,100
32640,note_on,,,,,64,0,14,,,,,6,,,64,100
32640,note_on,,,,,64,0,12,,,,,5,,,52,85
32704,note_off,,,,,64,0,7,,,,,0,,,79,100
32736,note_on,,,,,32,0,7,,,,,0,,,83,100
32768,note_off,,,,,128,0,14,,,,,6,,,64,100
32768,note_off,,,,,128,0,11,,,,,4,,,64,100
32768,note_off,,,,,128,0,12,,,,,5,,,52,100
32768,note_off,,,,,128,0,13,,,,,6,,,67,100
32800,note_off,,,,,64,0,7,,,,,0,,,83,100
32832,note_on,,,,,64,0,14,,,,,6,,,61,100
32832,note_on,,,,,64,0,11,,,,,4,,,61,85
32832,note_on,,,,,64,0,12,,,,,5,,,49,85
32832,note_on,,,,,32,0,7,,,,,0,,,81,100
32832,note_on,,,,,64,0,13,,,,,6,,,64,100
32896,note_off,,,,,64,0,7,,,,,0,,,81,100
32928,note_on,,,,,32,0,7,,,,,0,,,79,100
32960,note_off,,,,,128,0,11,,,,,4,,,61,100
32960,note_off,,,,,128,0,12,,,,,5,,,49,100
32960,note_off,,,,,128,0,13,,,,,6,,,64,100
32960,note_off,,,,,128,0,14,,,,,6,,,61,100
32992,note_off,,,,,64,0,7,,,,,0,,,79,100
33024,note_on,,,,,64,0,11,,,,,4,,,62,85
33024,note_on,,,,,64,0,14,,,,,6,,,62,100
33024,note_on,,,,,32,0,7,,,,,0,,,78,100
33024,note_on,,,,,64,0,12,,,,,5,,,50,85
33024,note_on,,,,,64,0,13,,,,,6,,,66,100
33088,note_off,,,,,64,0,7,,,,,0,,,78,100
33120,note_on,,,,,32,0,7,,,,,0,,,76,100
33152,note_off,,,,,128,0,11,,,,,4,,,62,100
33152,note_off,,,,,128,0,13,,,,,6,,,66,100
33152,note_off,,,,,128,0,12,,,,,5,,,50,100
33152,note_off,,,,,128,0,14,,,,,6,,,62,100
33184,note_off,,,,,64,0,7,,,,,0,,,76,100
33216,note_on,,,,,32,0,7,,,,,0,,,74,100
33216,note_on,,,,,64,0,14,,,,,6,,,59,100
33216,note_on,,,,,64,0,13,,,,,6,,,62,100
33216,note_on,,,,,64,0,11,,,,,4,,,59,85
33216,note_on,,,,,64,0,12,,,,,5,,,47,85
33280,note_off,,,,,64,0,7,,,,,0,,,74,100
33312,note_on,,,,,32,0,7,,,,,0,,,76,100
33344,note_off,,,,,128,0,11,,,,,4,,,59,100
33344,note_off,,,,,128,0,14,,,,,6,,,59,100
33344,note_off,,,,,128,0,13,,,,,6,,,62,100
33344,note_off,,,,,128,0,12,,,,,5,,,47,100
33376,note_off,,,,,64,0,7,,,,,0,,,76,100
33408,note_on,,,,,64,0,12,,,,,5,,,50,85
33408,note_on,,,,,32,0,7,,,,,0,,,78,100
33408,note_on,,,,,64,0,11,,,,,4,,,62,85
33408,note_on,,,,,64,0,13,,,,,6,,,66,100
33408,note_on,,,,,64,0,14,,,,,6,,,62,100
33472,note_off,,,,,64,0,7,,,,,0,,,78,100
33504,note_on,,,,,32,0,7,,,,,0,,,79,100
33536,note_off,,,,,128,0,13,,,,,6,,,66,100
33536,note_off,,,,,128,0,14,,,,,6,,,62,100
33536,note_off,,,,,128,0,11,,,,,4,,,62,100
33536,note_off,,,,,128,0,12,,,,,5,,,50,100
33568,note_off,,,,,64,0,7,,,,,0,,,79,100
33600,note_on,,,,,64,0,14,,,,,6,,,59,100
33600,note_on,,,,,64,0,12,,,,,5,,,47,85
33600,note_on,,,,,32,0,7,,,,,0,,,78,100
33600,note_on,,,,,64,0,11,,,,,4,,,59,85
33600,note_on,,,,,64,0,13,,,,,6,,,62,100
33664,note_off,,,,,64,0,7,,,,,0,,,78,100
33696,note_on,,,,,32,0,7,,,,,0,,,79,100
33728,note_off,,,,,128,0,13,,,,,6,,,62,100
33728,note_off,,,,,128,0,14,,,,,6,,,59,100
33728,note_off,,,,,128,0,12,,,,,5,,,47,100
33728,note_off,,,,,128,0,11,,,,,4,,,59,100
33760,note_off,,,,,64,0,7,,,,,0,,,79,100
33792,note_on,,,,,32,0,7,,,,,0,,,78,100
33792,note_on,,,,,64,0,13,,,,,6,,,66,100
33792,note_on,,,,,64,0,14,,,,,6,,,62,100
33792,note_on,,,,,64,0,11,,,,,4,,,62,85
33792,note_on,,,,,64,0,12,,,,,5,,,50,85
33856,note_off,,,,,64,0,7,,,,,0,,,78,100
33888,note_on,,,,,32,0,7,,,,,0,,,76,100
33920,note_off,,,,,128,0,11,,,,,4,,,62,100
33920,note_off,,,,,128,0,12,,,,,5,,,50,100
33920,note_off,,,,,128,0,13,,,,,6,,,66,100
33920,note_off,,,,,128,0,14,,,,,6,,,62,100
33952,note_off,,,,,64,0,7,,,,,0,,,76,100
33984,note_on,,,,,64,0,11,,,,,4,,,59,85
33984,note_on,,,,,32,0,7,,,,,0,,,74,100
33984,note_on,,,,,64,0,14,,,,,6,,,59,100
33984,note_on,,,,,64,0,13,,,,,6,,,62,100
33984,note_on,,,,,64,0,12,,,,,5,,,47,85
34048,note_off,,,,,64,0,7,,,,,0,,,74,100
34080,note_on,,,,,32,0,7,,,,,0,,,76,100
34112,note_off,,,,,128,0,12,,,,,5,,,47,100
34112,note_off,,,,,128,0,14,,,,,6,,,59,100
34112,note_off,,,,,128,0,11,,,,,4,,,59,100
34112,note_off,,,,,128,0,13,,,,,6,,,62,100
34144,note_off,,,,,64,0,7,,,,,0,,,76,100
34176,note_on,,,,,32,0,7,,,,,0,,,78,100
34176,note_on,,,,,64,0,12,,,,,5,,,50,85
34176,note_on,,,,,64,0,11,,,,,4,,,62,85
34176,note_on,,,,,64,0,14,,,,,6,,,62,100
34176,note_on,,,,,64,0,13,,,,,6,,,66,100
34240,note_off,,,,,64,0,7,,,,,0,,,78,100
34272,note_on,,,,,32,0,7,,,,,0,,,81,100
34304,note_off,,,,,128,0,14,,,,,6,,,62,100
34304,note_off,,,,,128,0,11,,,,,4,,,62,100
34304,note_off,,,,,128,0,13,,,,,6,,,66,100
34304,note_off,,,,,128,0,12,,,,,5,,,50,100
34336,note_off,,,,,64,0,7,,,,,0,,,81,100
34368,note_on,,,,,64,0,11,,,,,4,,,59,85
34368,note_on,,,,,64,0,13,,,,,6,,,62,100
34368,note_on,,,,,32,0,7,,,,,0,,,79,100
34368,note_on,,,,,64,0,12,,,,,5,,,47,85
34368,note_on,,,,,64,0,14,,,,,6,,,59,100
34432,note_off,,,,,64,0,7,,,,,0,,,79,100
34464,note_on,,,,,32,0,7,,,,,0,,,78,100
34496,note_off,,,,,128,0,13,,,,,6,,,62,100
34496,note_off,,,,,128,0,11,,,,,4,,,59,100
34496,note_off,,,,,128,0,12,,,,,5,,,47,100
34496,note_off,,,,,128,0,14,,,,,6,,,59,100
34528,note_off,,,,,64,0,7,,,,,0,,,78,100
34560,note_on,,,,,64,0,14,,,,,6,,,61,100
34560,note_on,,,,,64,0,11,,,,,4,,,61,85
34560,note_on,,,,,32,0,7,,,,,0,,,76,100
34560,note_on,,,,,64,0,13,,,,,6,,,64,100
34560,note_on,,,,,64,0,12,,,,,5,,,49,85
34624,note_off,,,,,64,0,7,,,,,0,,,76,100
34656,note_on,,,,,32,0,7,,,,,0,,,74,100
34688,note_off,,,,,128,0,12,,,,,5,,,49,100
34688,note_off,,,,,128,0,11,,,,,4,,,61,100
34688,note_off,,,,,128,0,14,,,,,6,,,61,100
34688,note_off,,,,,128,0,13,,,,,6,,,64,100
34720,note_off,,,,,64,0,7,,,,,0,,,74,100
34752,note_on,,,,,64,0,12,,,,,5,,,46,85
34752,note_on,,,,,64,0,14,,,,,6,,,58,100
34752,note_on,,,,,64,0,11,,,,,4,,,58,85
34752,note_on,,,,,64,0,13,,,,,6,,,61,100
34752,note_on,,,,,32,0,7,,,,,0,,,73,100
34816,note_off,,,,,64,0,7,,,,,0,,,73,100
34848,note_on,,,,,32,0,7,,,,,0,,,74,100
34880,note_off,,,,,128,0,12,,,,,5,,,46,100
34880,note_off,,,,,128,0,11,,,,,4,,,58,100
34880,note_off,,,,,128,0,13,,,,,6,,,61,100
34880,note_off,,,,,128,0,14,,,,,6,,,58,100
34912,note_off,,,,,64,0,7,,,,,0,,,74,100
34944,note_on,,,,,64,0,14,,,,,6,,,61,100
34944,note_on,,,,,64,0,11,,,,,4,,,61,85
34944,note_on,,,,,64,0,13,,,,,6,,,64,100
34944,note_on,,,,,32,0,7,,,,,0,,,76,100
34944,note_on,,,,,64,0,12,,,,,5,,,49,85
35008,note_off,,,,,64,0,7,,,,,0,,,76,100
35040,note_on,,,,,32,0,7,,,,,0,,,78,100
35072,note_off,,,,,128,0,12,,,,,5,,,49,100
35072,note_off,,,,,128,0,13,,,,,6,,,64,100
35072,note_off,,,,,128,0,11,,,,,4,,,61,100
35072,note_off,,,,,128,0,14,,,,,6,,,61,100
35104,note_off,,,,,64,0,7,,,,,0,,,78,100
35136,note_on,,,,,64,0,12,,,,,5,,,46,85
35136,note_on,,,,,64,0,13,,,,,6,,,61,100
35136,note_on,,,,,64,0,14,,,,,6,,,58,100
35136,note_on,,,,,64,0,11,,,,,4,,,58,85
35136,note_on,,,,,32,0,7,,,,,0,,,76,100
35200,note_off,,,,,64,0,7,,,,,0,,,76,100
35232,note_on,,,,,32,0,7,,,,,0,,,78,100
35264,note_off,,,,,128,0,13,,,,,6,,,61,100
35264,note_off,,,,,128,0,11,,,,,4,,,58,100
35264,note_off,,,,,128,0,12,,,,,5,,,46,100
35264,note_off,,,,,128,0,14,,,,,6,,,58,100
35296,note_off,,,,,64,0,7,,,,,0,,,78,100
35328,note_on,,,,,64,0,11,,,,,4,,,61,85
35328,note_on,,,,,64,0,13,,,,,6,,,64,100
35328,note_on,,,,,64,0,12,,,,,5,,,49,85
35328,note_on,,,,,32,0,7,,,,,0,,,76,100
35328,note_on,,,,,64,0,14,,,,,6,,,61,100
35392,note_off,,,,,64,0,7,,,,,0,,,76,100
35424,note_on,,,,,32,0,7,,,,,0,,,74,100
35456,note_off,,,,,128,0,11,,,,,4,,,61,100
35456,note_off,,,,,128,0,12,,,,,5,,,49,100
35456,note_off,,,,,128,0,13,,,,,6,,,64,100
35456,note_off,,,,,128,0,14,,,,,6,,,61,100
35488,note_off,,,,,64,0,7,,,,,0,,,74,100
35520,note_on,,,,,64,0,14,,,,,6,,,58,100
35520,note_on,,,,,64,0,11,,,,,4,,,58,85
35520,note_on,,,,,64,0,12,,,,,5,,,46,85
35520,note_on,,,,,64,0,13,,,,,6,,,61,100
35520,note_on,,,,,32,0,7,,,,,0,,,73,100
35584,note_off,,,,,64,0,7,,,,,0,,,73,100
35616,note_on,,,,,32,0,7,,,,,0,,,74,100
35648,note_off,,,,,128,0,11,,,,,4,,,58,100
35648,note_off,,,,,128,0,12,,,,,5,,,46,100
35648,note_off,,,,,128,0,14,,,,,6,,,58,100
35648,note_off,,,,,128,0,13,,,,,6,,,61,100
35680,note_off,,,,,64,0,7,,,,,0,,,74,100
35712,note_on,,,,,64,0,11,,,,,4,,,61,85
35712,note_on,,,,,64,0,13,,,,,6,,,64,100
35712,note_on,,,,,64,0,12,,,,,5,,,49,85
35712,note_on,,,,,64,0,14,,,,,6,,,61,100
35712,note_on,,,,,32,0,7,,,,,0,,,76,100
35776,note_off,,,,,64,0,7,,,,,0,,,76,100
35808,note_on,,,,,32,0,7,,,,,0,,,79,100
35840,note_off,,,,,128,0,12,,,,,5,,,49,100
35840,note_off,,,,,128,0,11,,,,,4,,,61,100
35840,note_off,,,,,128,0,14,,,,,6,,,61,100
35840,note_off,,,,,128,0,13,,,,,6,,,64,100
35872,note_off,,,,,64,0,7,,,,,0,,,79,100
35904,note_on,,,,,32,0,7,,,,,0,,,78,100
35904,note_on,,,,,64,0,11,,,,,4,,,58,85
35904,note_on,,,,,64,0,14,,,,,6,,,58,100
35904,note_on,,,,,64,0,13,,,,,6,,,61,100
35904,note_on,,,,,64,0,12,,,,,5,,,46,85
35968,note_off,,,,,64,0,7,,,,,0,,,78,100
36000,note_on,,,,,32,0,7,,,,,0,,,76,100
36032,note_off,,,,,128,0,13,,,,,6,,,61,100
36032,note_off,,,,,128,0,12,,,,,5,,,46,100
36032,note_off,,,,,128,0,14,,,,,6,,,58,100
36032,note_off,,,,,128,0,11,,,,,4,,,58,100
36064,note_off,,,,,64,0,7,,,,,0,,,76,100
36096,note_on,,,,,64,0,11,,,,,4,,,59,85
36096,note_on,,,,,0,0,13,,,,,6,,,62,100
36096,note_on,,,,,64,0,13,,,,,6,,,66,100
36096,note_on,,,,,64,0,12,,,,,5,,,47,85
36096,note_on,,,,,32,0,7,,,,,0,,,74,100
36096,note_on,,,,,64,0,14,,,,,6,,,59,100
36160,note_off,,,,,64,0,7,,,,,0,,,74,100
36192,note_on,,,,,32,0,7,,,,,0,,,78,100
36224,note_off,,,,,128,0,11,,,,,4,,,59,100
36224,note_off,,,,,0,0,13,,,,,6,,,62,100
36224,note_off,,,,,128,0,13,,,,,6,,,66,100
36224,note_off,,,,,128,0,12,,,,,5,,,47,100
36224,note_off,,,,,128,0,14,,,,,6,,,59,100
36256,note_off,,,,,64,0,7,,,,,0,,,78,100
36288,note_on,,,,,64,0,14,,,,,6,,,47,100
36288,note_on,,,,,32,0,7,,,,,0,,,76,100
36288,note_on,,,,,64,0,13,,,,,6,,,54,100
36288,note_on,,,,,64,0,12,,,,,5,,,35,85
36288,note_on,,,,,64,0,11,,,,,4,,,47,85
36288,note_on,,,,,0,0,13,,,,,6,,,62,100
36352,note_off,,,,,64,0,7,,,,,0,,,76,100
36384,note_on,,,,,32,0,7,,,,,0,,,78,100
36416,note_off,,,,,0,0,13,,,,,6,,,62,100
36416,note_off,,,,,128,0,13,,,,,6,,,54,100
36416,note_off,,,,,128,0,11,,,,,4,,,47,100
36416,note_off,,,,,128,0,14,,,,,6,,,47,100
36416,note_off,,,,,128,0,12,,,,,5,,,35,100
36448,note_off,,,,,64,0,7,,,,,0,,,78,100
36480,note_on,,,,,64,0,14,,,,,6,,,46,100
36480,note_on,,,,,32,0,7,,,,,0,,,73,100
36480,note_on,,,,,64,0,12,,,,,5,,,34,85
36480,note_on,,,,,64,0,11,,,,,4,,,46,85
36480,note_on,,,,,0,0,13,,,,,6,,,54,100
36480,note_on,,,,,64,0,13,,,,,6,,,61,100
36544,note_off,,,,,64,0,7,,,,,0,,,73,100
36576,note_on,,,,,32,0,7,,,,,0,,,78,100
36608,note_off,,,,,0,0,13,,,,,6,,,54,100
36608,note_off,,,,,128,0,13,,,,,6,,,61,100
36608,note_off,,,,,128,0,14,,,,,6,,,46,100
36608,note_off,,,,,128,0,12,,,,,5,,,34,100
36608,note_off,,,,,128,0,11,,,,,4,,,46,100
36640,note_off,,,,,64,0,7,,,,,0,,,78,100
36672,note_on,,,,,64,0,12,,,,,5,,,46,85
36672,note_on,,,,,32,0,7,,,,,0,,,76,100
36672,note_on,,,,,64,0,11,,,,,4,,,58,85
36672,note_on,,,,,64,0,13,,,,,6,,,61,100
36672,note_on,,,,,64,0,14,,,,,6,,,58,100
36672,note_on,,,,,0,0,13,,,,,6,,,66,100
36736,note_off,,,,,64,0,7,,,,,0,,,76,100
36768,note_on,,,,,32,0,7,,,,,0,,,78,100
36800,note_off,,,,,128,0,11,,,,,4,,,58,100
36800,note_off,,,,,128,0,12,,,,,5,,,46,100
36800,note_off,,,,,128,0,13,,,,,6,,,61,100
36800,note_off,,,,,0,0,13,,,,,6,,,66,100
36800,note_off,,,,,128,0,14,,,,,6,,,58,100
36832,note_off,,,,,64,0,7,,,,,0,,,78,100
36864,note_on,,,,,64,0,13,,,,,6,,,66,100
36864,note_on,,,,,0,0,13,,,,,6,,,62,100
36864,note_on,,,,,64,0,14,,,,,6,,,59,100
36864,note_on,,,,,64,0,12,,,,,5,,,47,85
36864,note_on,,,,,64,0,11,,,,,4,,,59,85
36864,note_on,,,,,32,0,7,,,,,0,,,74,100
36928,note_off,,,,,64,0,7,,,,,0,,,74,100
36960,note_on,,,,,32,0,7,,,,,0,,,78,100
36992,note_off,,,,,128,0,13,,,,,6,,,66,100
36992,note_off,,,,,0,0,13,,,,,6,,,62,100
36992,note_off,,,,,128,0,14,,,,,6,,,59,100
36992,note_off,,,,,128,0,11,,,,,4,,,59,100
36992,note_off,,,,,128,0,12,,,,,5,,,47,100
37024,note_off,,,,,64,0,7,,,,,0,,,78,100
37056,note_on,,,,,64,0,14,,,,,6,,,47,100
37056,note_on,,,,,64,0,13,,,,,6,,,54,100
37056,note_on,,,,,64,0,11,,,,,4,,,47,85
37056,note_on,,,,,0,0,13,,,,,6,,,62,100
37056,note_on,,,,,32,0,7,,,,,0,,,76,100
37056,note_on,,,,,64,0,12,,,,,5,,,35,85
37120,note_off,,,,,64,0,7,,,,,0,,,76,100
37152,note_on,,,,,32,0,7,,,,,0,,,78,100
37184,note_off,,,,,0,0,13,,,,,6,,,62,100
37184,note_off,,,,,128,0,13,,,,,6,,,54,100
37184,note_off,,,,,128,0,14,,,,,6,,,47,100
37184,note_off,,,,,128,0,12,,,,,5,,,35,100
37184,note_off,,,,,128,0,11,,,,,4,,,47,100
37216,note_off,,,,,64,0,7,,,,,0,,,78,100
37248,note_on,,,,,64,0,13,,,,,6,,,61,100
37248,note_on,,,,,0,0,13,,,,,6,,,54,100
37248,note_on,,,,,64,0,11,,,,,4,,,46,85
37248,note_on,,,,,64,0,14,,,,,6,,,46,100
37248,note_on,,,,,32,0,7,,,,,0,,,73,100
37248,note_on,,,,,64,0,12,,,,,5,,,34,85
37312,note_off,,,,,64,0,7,,,,,0,,,73,100
37344,note_on,,,,,32,0,7,,,,,0,,,78,100
37376,note_off,,,,,128,0,12,,,,,5,,,34,100
37376,note_off,,,,,0,0,13,,,,,6,,,54,100
37376,note_off,,,,,128,0,13,,,,,6,,,61,100
37376,note_off,,,,,128,0,11,,,,,4,,,46,100
37376,note_off,,,,,128,0,14,,,,,6,,,46,100
37408,note_off,,,,,64,0,7,,,,,0,,,78,100
37440,note_on,,,,,64,0,11,,,,,4,,,58,85
37440,note_on,,,,,64,0,14,,,,,6,,,58,100
37440,note_on,,,,,0,0,13,,,,,6,,,66,100
37440,note_on,,,,,64,0,12,,,,,5,,,46,85
37440,note_on,,,,,32,0,7,,,,,0,,,76,100
37440,note_on,,,,,64,0,13,,,,,6,,,61,100
37504,note_off,,,,,64,0,7,,,,,0,,,76,100
37536,note_on,,,,,32,0,7,,,,,0,,,78,100
37568,note_off,,,,,128,0,13,,,,,6,,,61,100
37568,note_off,,,,,0,0,13,,,,,6,,,66,100
37568,note_off,,,,,128,0,12,,,,,5,,,46,100
37568,note_off,,,,,128,0,14,,,,,6,,,58,100
37568,note_off,,,,,128,0,11,,,,,4,,,58,100
37600,note_off,,,,,64,0,7,,,,,0,,,78,100
37632,note_on,,,,,64,0,11,,,,,4,,,59,85
37632,note_on,,,,,64,0,12,,,,,5,,,47,85
37632,note_on,,,,,32,0,7,,,,,0,,,74,100
37632,note_on,,,,,0,0,13,,,,,6,,,62,100
37632,note_on,,,,,64,0,13,,,,,6,,,66,100
37632,note_on,,,,,64,0,14,,,,,6,,,59,100
37760,note_off,,,,,128,0,7,,,,,0,,,74,100
37760,note_off,,,,,128,0,12,,,,,5,,,47,100
37760,note_off,,,,,128,0,14,,,,,6,,,59,100
37760,note_off,,,,,128,0,11,,,,,4,,,59,100
37760,note_off,,,,,128,0,13,,,,,6,,,66,100
37760,note_off,,,,,0,0,13,,,,,6,,,62,100
37824,note_on,,,,,64,0,12,,,,,5,,,35,85
37824,note_on,,,,,64,0,11,,,,,4,,,47,85
37824,note_on,,,,,64,0,7,,,,,0,,,71,100
37824,note_on,,,,,64,0,13,,,,,6,,,62,100
37824,note_on,,,,,64,0,14,,,,,6,,,47,100
37888,note_off,,,,,64,0,11,,,,,4,,,47,100
37888,note_off,,,,,64,0,14,,,,,6,,,47,100
37888,note_off,,,,,64,0,12,,,,,5,,,35,100
37888,note_off,,,,,64,0,13,,,,,6,,,62,100
37920,note_on,,,,,32,0,12,,,,,5,,,37,85
37920,note_on,,,,,32,0,13,,,,,6,,,64,100
37920,note_on,,,,,32,0,14,,,,,6,,,49,100
37920,note_on,,,,,32,0,11,,,,,4,,,49,85
37952,note_off,,,,,128,0,7,,,,,0,,,71,100
37984,note_off,,,,,64,0,11,,,,,4,,,49,100
37984,note_off,,,,,64,0,12,,,,,5,,,37,100
37984,note_off,,,,,64,0,13,,,,,6,,,64,100
37984,note_off,,,,,64,0,14,,,,,6,,,49,100
38016,note_on,,,,,7040,0,10,,,,,3,,,66,100
38016,note_on,,,,,6656,0,8,,,,,1,,,78,100
38016,note_on,,,,,32,0,11,,,,,4,,,50,85
38016,note_on,,,,,0,0,13,,,,,6,,,66,100
38016,note_on,,,,,32,0,13,,,,,6,,,71,100
38016,note_on,,,,,32,0,12,,,,,5,,,38,85
38016,note_on,,,,,32,0,14,,,,,6,,,50,100
38016,note_on,,,,,7040,0,9,,,,,2,,,74,100
38144,note_off,,,,,128,0,10,,,,,3,,,66,100
38144,note_off,,,,,0,0,13,,,,,6,,,66,100
38144,note_off,,,,,128,0,13,,,,,6,,,71,100
38144,note_off,,,,,128,0,14,,,,,6,,,50,100
38144,note_off,,,,,128,0,9,,,,,2,,,74,100
38144,note_off,,,,,128,0,12,,,,,5,,,38,100
38144,note_off,,,,,128,0,8,,,,,1,,,78,100
38144,note_off,,,,,128,0,11,,,,,4,,,50,100
38208,note_on,,,,,64,0,9,,,,,2,,,74,100
38208,note_on,,,,,64,0,12,,,,,5,,,35,85
38208,note_on,,,,,64,0,14,,,,,6,,,47,100
38208,note_on,,,,,64,0,8,,,,,1,,,78,100
38208,note_on,,,,,64,0,11,,,,,4,,,47,85
38208,note_on,,,,,64,0,13,,,,,6,,,62,100
38208,note_on,,,,,0,0,13,,,,,6,,,66,100
38208,note_on,,,,,64,0,10,,,,,3,,,66,100
38336,note_off,,,,,128,0,12,,,,,5,,,35,100
38336,note_off,,,,,128,0,13,,,,,6,,,62,100
38336,note_off,,,,,0,0,13,,,,,6,,,66,100
38336,note_off,,,,,128,0,9,,,,,2,,,74,100
38336,note_off,,,,,128,0,10,,,,,3,,,66,100
38336,note_off,,,,,128,0,11,,,,,4,,,47,100
38336,note_off,,,,,128,0,14,,,,,6,,,47,100
38336,note_off,,,,,128,0,8,,,,,1,,,78,100
38400,note_on,,,,,64,0,13,,,,,6,,,66,100
38400,note_on,,,,,64,0,9,,,,,2,,,74,100
38400,note_on,,,,,0,0,13,,,,,6,,,74,100
38400,note_on,,,,,64,0,14,,,,,6,,,49,100
38400,note_on,,,,,64,0,11,,,,,4,,,49,85
38400,note_on,,,,,64,0,12,,,,,5,,,37,85
38400,note_on,,,,,64,0,10,,,,,3,,,64,100
38400,note_on,,,,,64,0,8,,,,,1,,,78,100
38528,note_off,,,,,128,0,9,,,,,2,,,74,100
38528,note_off,,,,,128,0,8,,,,,1,,,78,100
38592,note_on,,,,,64,0,8,,,,,1,,,79,100
38592,note_on,,,,,64,0,9,,,,,2,,,76,100
38656,note_off,,,,,64,0,8,,,,,1,,,79,100
38656,note_off,,,,,64,0,9,,,,,2,,,76,100
38656,note_off,,,,,0,0,13,,,,,6,,,74,100
38656,note_off,,,,,256,0,13,,,,,6,,,66,100
38688,note_on,,,,,32,0,8,,,,,1,,,78,100
38688,note_on,,,,,32,0,9,,,,,2,,,74,100
38752,note_off,,,,,64,0,9,,,,,2,,,74,100
38752,note_off,,,,,64,0,8,,,,,1,,,78,100
38784,note_off,,,,,384,0,11,,,,,4,,,49,100
38784,note_off,,,,,384,0,12,,,,,5,,,37,100
38784,note_on,,,,,32,0,8,,,,,1,,,76,100
38784,note_on,,,,,32,0,9,,,,,2,,,73,100
38784,note_off,,,,,384,0,14,,,,,6,,,49,100
38784,note_off,,,,,384,0,10,,,,,3,,,64,100
38784,note_on,,,,,0,0,13,,,,,6,,,73,100
38784,note_on,,,,,128,0,13,,,,,6,,,64,100
38912,note_off,,,,,128,0,8,,,,,1,,,76,100
38912,note_off,,,,,128,0,9,,,,,2,,,73,100
38912,note_off,,,,,0,0,13,,,,,6,,,73,100
38912,note_off,,,,,128,0,13,,,,,6,,,64,100
38976,note_on,,,,,64,0,8,,,,,1,,,76,100
38976,note_on,,,,,0,0,13,,,,,6,,,64,100
38976,note_on,,,,,64,0,13,,,,,6,,,66,100
38976,note_on,,,,,192,0,10,,,,,3,,,66,100
38976,note_on,,,,,192,0,12,,,,,5,,,34,100
38976,note_on,,,,,192,0,11,,,,,4,,,46,100
38976,note_on,,,,,192,0,14,,,,,6,,,46,100
38976,note_on,,,,,64,0,9,,,,,2,,,73,100
39104,note_off,,,,,128,0,9,,,,,2,,,73,100
39104,note_off,,,,,128,0,11,,,,,4,,,46,100
39104,note_off,,,,,128,0,12,,,,,5,,,34,100
39104,note_off,,,,,128,0,8,,,,,1,,,76,100
39104,note_off,,,,,128,0,10,,,,,3,,,66,100
39104,note_off,,,,,0,0,13,,,,,6,,,64,100
39104,note_off,,,,,128,0,13,,,,,6,,,66,100
39104,note_off,,,,,128,0,14,,,,,6,,,46,100
39168,note_on,,,,,64,0,9,,,,,2,,,73,100
39168,note_on,,,,,64,0,14,,,,,6,,,47,100
39168,note_on,,,,,64,0,8,,,,,1,,,76,100
39168,note_on,,,,,64,0,12,,,,,5,,,35,100
39168,note_on,,,,,64,0,11,,,,,4,,,47,100
39168,note_on,,,,,64,0,10,,,,,3,,,66,100
39168,note_on,,,,,0,0,13,,,,,6,,,64,100
39168,note_on,,,,,64,0,13,,,,,6,,,73,100
39296,note_off,,,,,128,0,11,,,,,4,,,47,100
39296,note_off,,,,,0,0,13,,,,,6,,,64,100
39296,note_off,,,,,128,0,13,,,,,6,,,73,100
39296,note_off,,,,,128,0,9,,,,,2,,,73,100
39296,note_off,,,,,128,0,12,,,,,5,,,35,100
39296,note_off,,,,,128,0,8,,,,,1,,,76,100
39296,note_off,,,,,128,0,14,,,,,6,,,47,100
39360,note_on,,,,,64,0,14,,,,,6,,,49,100
39360,note_on,,,,,64,0,12,,,,,5,,,37,100
39360,note_on,,,,,64,0,8,,,,,1,,,78,100
39360,note_on,,,,,64,0,11,,,,,4,,,49,100
39360,note_on,,,,,64,0,9,,,,,2,,,74,100
39360,note_on,,,,,64,0,13,,,,,6,,,74,100
39360,note_on,,,,,0,0,13,,,,,6,,,66,100
39424,note_off,,,,,64,0,9,,,,,2,,,74,100
39424,note_off,,,,,64,0,8,,,,,1,,,78,100
39456,note_on,,,,,32,0,9,,,,,2,,,73,100
39456,note_on,,,,,32,0,8,,,,,1,,,76,100
39488,note_off,,,,,128,0,11,,,,,4,,,49,100
39488,note_off,,,,,128,0,14,,,,,6,,,49,100
39488,note_off,,,,,128,0,12,,,,,5,,,37,100
39488,note_off,,,,,0,0,13,,,,,6,,,66,100
39488,note_off,,,,,128,0,13,,,,,6,,,74,100
39520,note_off,,,,,64,0,9,,,,,2,,,73,100
39520,note_off,,,,,64,0,8,,,,,1,,,76,100
39552,note_on,,,,,64,0,11,,,,,4,,,50,100
39552,note_off,,,,,384,0,10,,,,,3,,,66,100
39552,note_on,,,,,0,0,13,,,,,6,,,67,100
39552,note_on,,,,,64,0,12,,,,,5,,,38,100
39552,note_on,,,,,32,0,8,,,,,1,,,74,100
39552,note_on,,,,,32,0,9,,,,,2,,,71,100
39552,note_on,,,,,64,0,13,,,,,6,,,76,100
39552,note_on,,,,,64,0,14,,,,,6,,,50,100
39680,note_off,,,,,128,0,9,,,,,2,,,71,100
39680,note_off,,,,,128,0,14,,,,,6,,,50,100
39680,note_off,,,,,128,0,11,,,,,4,,,50,100
39680,note_off,,,,,128,0,12,,,,,5,,,38,100
39680,note_off,,,,,128,0,13,,,,,6,,,76,100
39680,note_off,,,,,0,0,13,,,,,6,,,67,100
39680,note_off,,,,,128,0,8,,,,,1,,,74,100
39744,note_on,,,,,64,0,11,,,,,4,,,47,100
39744,note_on,,,,,0,0,13,,,,,6,,,62,100
39744,note_on,,,,,64,0,8,,,,,1,,,74,100
39744,note_on,,,,,64,0,12,,,,,5,,,35,100
39744,note_on,,,,,64,0,14,,,,,6,,,47,100
39744,note_on,,,,,64,0,13,,,,,6,,,71,100
39744,note_on,,,,,64,0,9,,,,,2,,,71,100
39744,note_on,,,,,192,0,10,,,,,3,,,66,100
39872,note_off,,,,,128,0,14,,,,,6,,,47,100
39872,note_off,,,,,128,0,9,,,,,2,,,71,100
39872,note_off,,,,,128,0,11,,,,,4,,,47,100
39872,note_off,,,,,0,0,13,,,,,6,,,62,100
39872,note_off,,,,,128,0,10,,,,,3,,,66,100
39872,note_off,,,,,128,0,12,,,,,5,,,35,100
39872,note_off,,,,,128,0,13,,,,,6,,,71,100
39872,note_off,,,,,128,0,8,,,,,1,,,74,100
39936,note_on,,,,,64,0,13,,,,,6,,,71,100
39936,note_on,,,,,0,0,13,,,,,6,,,74,100
39936,note_on,,,,,64,0,14,,,,,6,,,52,100
39936,note_on,,,,,64,0,10,,,,,3,,,67,100
39936,note_on,,,,,64,0,11,,,,,4,,,52,100
39936,note_on,,,,,64,0,9,,,,,2,,,71,100
39936,note_on,,,,,64,0,12,,,,,5,,,40,100
39936,note_on,,,,,64,0,8,,,,,1,,,74,100
40000,note_off,,,,,64,0,8,,,,,1,,,74,100
40032,note_on,,,,,32,0,8,,,,,1,,,78,100
40064,note_off,,,,,128,0,13,,,,,6,,,71,100
40064,note_off,,,,,0,0,13,,,,,6,,,74,100
40064,note_off,,,,,128,0,10,,,,,3,,,67,100
40064,note_off,,,,,128,0,12,,,,,5,,,40,100
40064,note_off,,,,,128,0,11,,,,,4,,,52,100
40064,note_off,,,,,128,0,14,,,,,6,,,52,100
40096,note_off,,,,,64,0,8,,,,,1,,,78,100
40128,note_on,,,,,32,0,8,,,,,1,,,76,100
40128,note_on,,,,,64,0,12,,,,,5,,,37,100
40128,note_on,,,,,64,0,13,,,,,6,,,67,100
40128,note_on,,,,,0,0,13,,,,,6,,,71,100
40128,note_on,,,,,64,0,10,,,,,3,,,64,100
40128,note_on,,,,,64,0,14,,,,,6,,,49,100
40128,note_on,,,,,64,0,11,,,,,4,,,49,100
40192,note_off,,,,,64,0,8,,,,,1,,,76,100
40192,note_off,,,,,256,0,9,,,,,2,,,71,100
40224,note_on,,,,,32,0,8,,,,,1,,,74,100
40256,note_off,,,,,128,0,10,,,,,3,,,64,100
40256,note_off,,,,,128,0,11,,,,,4,,,49,100
40256,note_off,,,,,128,0,12,,,,,5,,,37,100
40256,note_off,,,,,128,0,14,,,,,6,,,49,100
40256,note_off,,,,,128,0,13,,,,,6,,,67,100
40256,note_off,,,,,0,0,13,,,,,6,,,71,100
40288,note_off,,,,,64,0,8,,,,,1,,,74,100
40320,note_on,,,,,64,0,10,,,,,3,,,66,100
40320,note_on,,,,,64,0,11,,,,,4,,,54,100
40320,note_on,,,,,128,0,9,,,,,2,,,70,100
40320,note_on,,,,,64,0,12,,,,,5,,,42,100
40320,note_on,,,,,64,0,14,,,,,6,,,54,100
40320,note_on,,,,,32,0,8,,,,,1,,,73,100
40320,note_on,,,,,0,0,13,,,,,6,,,73,100
40320,note_on,,,,,64,0,13,,,,,6,,,70,100
40412,note_off,,,,,92,0,8,,,,,1,,,73,100
40416,note_on,,,,,4,0,8,,,,,1,,,74,100
40448,note_off,,,,,0,0,13,,,,,6,,,73,100
40448,note_off,,,,,128,0,14,,,,,6,,,54,100
40448,note_off,,,,,128,0,11,,,,,4,,,54,100
40448,note_off,,,,,128,0,12,,,,,5,,,42,100
40448,note_off,,,,,128,0,13,,,,,6,,,70,100
40460,note_off,,,,,44,0,8,,,,,1,,,74,100
40464,note_on,,,,,4,0,8,,,,,1,,,73,100
40508,note_off,,,,,44,0,8,,,,,1,,,73,100
40512,note_on,,,,,64,0,14,,,,,6,,,42,100
40512,note_on,,,,,4,0,8,,,,,1,,,74,100
40512,note_on,,,,,64,0,12,,,,,5,,,30,100
40512,note_on,,,,,64,0,11,,,,,4,,,42,100
40512,note_on,,,,,64,0,13,,,,,6,,,61,100
40512,note_on,,,,,0,0,13,,,,,6,,,70,100
40556,note_off,,,,,44,0,8,,,,,1,,,74,100
40560,note_on,,,,,4,0,8,,,,,1,,,73,100
40576,note_off,,,,,256,0,9,,,,,2,,,70,100
40576,note_off,,,,,256,0,10,,,,,3,,,66,100
40640,note_off,,,,,128,0,12,,,,,5,,,30,100
40640,note_off,,,,,128,0,11,,,,,4,,,42,100
40640,note_off,,,,,128,0,13,,,,,6,,,61,100
40640,note_off,,,,,128,0,14,,,,,6,,,42,100
40640,note_off,,,,,0,0,13,,,,,6,,,70,100
40700,note_off,,,,,140,0,8,,,,,1,,,73,100
40704,note_on,,,,,64,0,12,,,,,5,,,35,100
40704,note_on,,,,,64,0,11,,,,,4,,,47,100
40704,note_on,,,,,4,0,8,,,,,1,,,71,100
40704,note_on,,,,,128,0,9,,,,,2,,,71,100
40704,note_on,,,,,128,0,10,,,,,3,,,66,100
40704,note_on,,,,,0,0,13,,,,,6,,,62,100
40704,note_on,,,,,64,0,13,,,,,6,,,66,100
40704,note_on,,,,,64,0,14,,,,,6,,,47,100
40960,note_off,,,,,256,0,8,,,,,1,,,71,100
40960,note_off,,,,,0,0,13,,,,,6,,,62,100
40960,note_off,,,,,256,0,13,,,,,6,,,66,100
40960,note_off,,,,,256,0,12,,,,,5,,,35,100
40960,note_off,,,,,256,0,11,,,,,4,,,47,100
40960,note_off,,,,,256,0,9,,,,,2,,,71,100
40960,note_off,,,,,256,0,10,,,,,3,,,66,100
40960,note_off,,,,,256,0,14,,,,,6,,,47,100
41088,note_on,,,,,128,0,11,,,,,4,,,50,85
41088,note_on,,,,,128,0,12,,,,,5,,,38,85
41088,note_on,,,,,0,0,13,,,,,6,,,66,100
41088,note_on,,,,,3136,0,7,,,,,0,,,78,100
41088,note_on,,,,,128,0,14,,,,,6,,,50,100
41088,note_on,,,,,128,0,13,,,,,6,,,69,100
41216,note_off,,,,,128,0,7,,,,,0,,,78,100
41280,note_on,,,,,64,0,7,,,,,0,,,78,100
41344,note_off,,,,,256,0,14,,,,,6,,,50,100
41344,note_off,,,,,256,0,13,,,,,6,,,69,100
41344,note_off,,,,,0,0,13,,,,,6,,,66,100
41344,note_off,,,,,256,0,12,,,,,5,,,38,100
41344,note_off,,,,,256,0,11,,,,,4,,,50,100
41408,note_off,,,,,128,0,7,,,,,0,,,78,100
41472,note_on,,,,,128,0,14,,,,,6,,,55,100
41472,note_on,,,,,128,0,13,,,,,6,,,66,100
41472,note_on,,,,,64,0,7,,,,,0,,,78,100
41472,note_on,,,,,128,0,12,,,,,5,,,43,85
41472,note_on,,,,,128,0,11,,,,,4,,,55,85
41472,note_on,,,,,0,0,13,,,,,6,,,74,100
41536,note_off,,,,,64,0,7,,,,,0,,,78,100
41568,note_on,,,,,32,0,7,,,,,0,,,81,100
41632,note_off,,,,,64,0,7,,,,,0,,,81,100
41664,note_on,,,,,32,0,7,,,,,0,,,79,100
41728,note_off,,,,,256,0,13,,,,,6,,,66,100
41728,note_off,,,,,256,0,14,,,,,6,,,55,100
41728,note_off,,,,,0,0,13,,,,,6,,,74,100
41728,note_off,,,,,64,0,7,,,,,0,,,79,100
41728,note_off,,,,,256,0,11,,,,,4,,,55,100
41728,note_off,,,,,256,0,12,,,,,5,,,43,100
41760,note_on,,,,,32,0,7,,,,,0,,,78,100
41824,note_off,,,,,64,0,7,,,,,0,,,78,100
41856,note_on,,,,,0,0,13,,,,,6,,,71,100
41856,note_on,,,,,128,0,13,,,,,6,,,67,100
41856,note_on,,,,,32,0,7,,,,,0,,,76,100
41856,note_on,,,,,128,0,11,,,,,4,,,49,85
41856,note_on,,,,,128,0,14,,,,,6,,,49,100
41856,note_on,,,,,128,0,12,,,,,5,,,37,85
41984,note_off,,,,,128,0,7,,,,,0,,,76,100
42048,note_on,,,,,64,0,7,,,,,0,,,76,100
42112,note_off,,,,,256,0,12,,,,,5,,,37,100
42112,note_off,,,,,0,0,13,,,,,6,,,71,100
42112,note_off,,,,,256,0,13,,,,,6,,,67,100
42112,note_off,,,,,256,0,14,,,,,6,,,49,100
42112,note_off,,,,,256,0,11,,,,,4,,,49,100
42176,note_off,,,,,128,0,7,,,,,0,,,76,100
42240,note_on,,,,,128,0,11,,,,,4,,,54,85
42240,note_on,,,,,128,0,12,,,,,5,,,42,85
42240,note_on,,,,,128,0,14,,,,,6,,,54,100
42240,note_on,,,,,64,0,7,,,,,0,,,76,100
42240,note_on,,,,,128,0,13,,,,,6,,,64,100
42240,note_on,,,,,0,0,13,,,,,6,,,73,100
42304,note_off,,,,,64,0,7,,,,,0,,,76,100
42336,note_on,,,,,32,0,7,,,,,0,,,79,100
42400,note_off,,,,,64,0,7,,,,,0,,,79,100
42432,note_on,,,,,32,0,7,,,,,0,,,78,100
42496,note_off,,,,,64,0,7,,,,,0,,,78,100
42496,note_off,,,,,256,0,11,,,,,4,,,54,100
42496,note_off,,,,,256,0,12,,,,,5,,,42,100
42496,note_off,,,,,0,0,13,,,,,6,,,73,100
42496,note_off,,,,,256,0,13,,,,,6,,,64,100
42496,note_off,,,,,256,0,14,,,,,6,,,54,100
42528,note_on,,,,,32,0,7,,,,,0,,,76,100
42592,note_off,,,,,64,0,7,,,,,0,,,76,100
42624,note_on,,,,,128,0,13,,,,,6,,,66,100
42624,note_on,,,,,0,0,13,,,,,6,,,62,100
42624,note_on,,,,,128,0,14,,,,,6,,,47,100
42624,note_on,,,,,128,0,12,,,,,5,,,35,85
42624,note_on,,,,,128,0,11,,,,,4,,,47,85
42624,note_on,,,,,32,0,7,,,,,0,,,74,100
42752,note_off,,,,,128,0,13,,,,,6,,,66,100
42752,note_off,,,,,0,0,13,,,,,6,,,62,100
42752,note_off,,,,,128,0,14,,,,,6,,,47,100
42752,note_off,,,,,128,0,7,,,,,0,,,74,100
42752,note_off,,,,,128,0,11,,,,,4,,,47,100
42752,note_off,,,,,128,0,12,,,,,5,,,35,100
42816,note_on,,,,,64,0,7,,,,,0,,,83,100
42816,note_on,,,,,64,0,12,,,,,5,,,38,85
42816,note_on,,,,,64,0,13,,,,,6,,,69,100
42816,note_on,,,,,64,0,14,,,,,6,,,50,100
42816,note_on,,,,,64,0,11,,,,,4,,,50,85
42816,note_on,,,,,0,0,13,,,,,6,,,66,100
42908,note_off,,,,,92,0,7,,,,,0,,,83,100
42912,note_on,,,,,4,0,7,,,,,0,,,81,100
42944,note_off,,,,,0,0,13,,,,,6,,,66,100
42944,note_off,,,,,128,0,13,,,,,6,,,69,100
42944,note_off,,,,,128,0,14,,,,,6,,,50,100
42944,note_off,,,,,128,0,12,,,,,5,,,38,100
42944,note_off,,,,,128,0,11,,,,,4,,,50,100
42976,note_off,,,,,64,0,7,,,,,0,,,81,100
43008,note_on,,,,,64,0,13,,,,,6,,,71,100
43008,note_on,,,,,64,0,12,,,,,5,,,40,85
43008,note_on,,,,,0,0,13,,,,,6,,,74,100
43008,note_on,,,,,64,0,14,,,,,6,,,52,100
43008,note_on,,,,,32,0,7,,,,,0,,,79,100
43008,note_on,,,,,64,0,11,,,,,4,,,52,85
43100,note_off,,,,,92,0,7,,,,,0,,,79,100
43104,note_on,,,,,4,0,7,,,,,0,,,78,100
43168,note_off,,,,,64,0,7,,,,,0,,,78,100
43200,note_on,,,,,32,0,7,,,,,0,,,76,100
43264,note_off,,,,,256,0,11,,,,,4,,,52,100
43264,note_off,,,,,256,0,13,,,,,6,,,71,100
43264,note_off,,,,,0,0,13,,,,,6,,,74,100
43264,note_off,,,,,256,0,14,,,,,6,,,52,100
43264,note_off,,,,,256,0,12,,,,,5,,,40,100
43292,note_off,,,,,92,0,7,,,,,0,,,76,100
43296,note_on,,,,,4,0,7,,,,,0,,,74,100
43360,note_off,,,,,64,0,7,,,,,0,,,74,100
43392,note_on,,,,,32,0,7,,,,,0,,,73,100
43392,note_on,,,,,128,0,14,,,,,6,,,54,100
43392,note_on,,,,,0,0,13,,,,,6,,,73,100
43392,note_on,,,,,128,0,13,,,,,6,,,69,100
43392,note_on,,,,,128,0,11,,,,,4,,,54,85
43392,note_on,,,,,128,0,12,,,,,5,,,42,85
43436,note_off,,,,,44,0,7,,,,,0,,,73,100
43440,note_on,,,,,4,0,7,,,,,0,,,74,100
43484,note_off,,,,,44,0,7,,,,,0,,,74,100
43488,note_on,,,,,4,0,7,,,,,0,,,73,100
43532,note_off,,,,,44,0,7,,,,,0,,,73,100
43536,note_on,,,,,4,0,7,,,,,0,,,74,100
43580,note_off,,,,,44,0,7,,,,,0,,,74,100
43584,note_on,,,,,4,0,7,,,,,0,,,73,100
43648,note_off,,,,,256,0,12,,,,,5,,,42,100
43648,note_off,,,,,256,0,13,,,,,6,,,69,100
43648,note_off,,,,,256,0,14,,,,,6,,,54,100
43648,note_off,,,,,256,0,11,,,,,4,,,54,100
43648,note_off,,,,,64,0,7,,,,,0,,,73,100
43648,note_off,,,,,0,0,13,,,,,6,,,73,100
43680,note_on,,,,,32,0,7,,,,,0,,,71,100
43744,note_off,,,,,64,0,7,,,,,0,,,71,100
43776,note_on,,,,,128,0,12,,,,,5,,,35,85
43776,note_on,,,,,0,0,13,,,,,6,,,74,100
43776,note_on,,,,,128,0,13,,,,,6,,,66,100
43776,note_on,,,,,128,0,14,,,,,6,,,47,100
43776,note_on,,,,,128,0,11,,,,,4,,,47,85
43776,note_on,,,,,32,0,7,,,,,0,,,71,100
43840,note_off,,,,,64,0,7,,,,,0,,,71,100
43872,note_on,,,,,32,0,7,,,,,0,,,78,100
43936,note_off,,,,,64,0,7,,,,,0,,,78,100
43968,note_on,,,,,32,0,7,,,,,0,,,76,100
44032,note_off,,,,,256,0,14,,,,,6,,,47,100
44032,note_off,,,,,256,0,11,,,,,4,,,47,100
44032,note_off,,,,,256,0,12,,,,,5,,,35,100
44032,note_off,,,,,256,0,13,,,,,6,,,66,100
44032,note_off,,,,,0,0,13,,,,,6,,,74,100
44032,note_off,,,,,64,0,7,,,,,0,,,76,100
44064,note_on,,,,,32,0,7,,,,,0,,,78,100
44128,note_off,,,,,64,0,7,,,,,0,,,78,100
44160,note_on,,,,,32,0,7,,,,,0,,,74,100
44224,note_off,,,,,64,0,7,,,,,0,,,74,100
44256,note_on,,,,,32,0,7,,,,,0,,,76,100
44320,note_off,,,,,64,0,7,,,,,0,,,76,100
44352,note_on,,,,,32,0,7,,,,,0,,,73,100
44416,note_off,,,,,64,0,7,,,,,0,,,73,100
44448,note_on,,,,,32,0,7,,,,,0,,,74,100
44512,note_off,,,,,64,0,7,,,,,0,,,74,100
44544,note_on,,,,,512,0,12,,,,,5,,,35,85
44544,note_on,,,,,0,0,13,,,,,6,,,66,100
44544,note_on,,,,,512,0,13,,,,,6,,,62,100
44544,note_on,,,,,512,0,11,,,,,4,,,47,85
44544,note_on,,,,,512,0,14,,,,,6,,,47,100
44544,note_on,,,,,32,0,7,,,,,0,,,71,100
44608,note_off,,,,,64,0,7,,,,,0,,,71,100
44640,note_on,,,,,32,0,7,,,,,0,,,71,100
44672,note_off,,,,,128,0,13,,,,,6,,,62,100
44672,note_off,,,,,0,0,13,,,,,6,,,66,100
44672,note_off,,,,,128,0,14,,,,,6,,,47,100
44672,note_off,,,,,128,0,12,,,,,5,,,35,100
44672,note_off,,,,,128,0,11,,,,,4,,,47,100
44704,note_off,,,,,64,0,7,,,,,0,,,71,100
44736,note_on,,,,,64,0,14,,,,,6,,,59,100
44736,note_on,,,,,64,0,11,,,,,4,,,59,85
44736,note_on,,,,,0,0,13,,,,,6,,,74,100
44736,note_on,,,,,64,0,13,,,,,6,,,66,100
44736,note_on,,,,,64,0,12,,,,,5,,,47,85
44736,note_on,,,,,32,0,7,,,,,0,,,73,100
44800,note_off,,,,,64,0,7,,,,,0,,,73,100
44832,note_on,,,,,32,0,7,,,,,0,,,74,100
44864,note_off,,,,,128,0,11,,,,,4,,,59,100
44864,note_off,,,,,128,0,12,,,,,5,,,47,100
44864,note_off,,,,,128,0,14,,,,,6,,,59,100
44864,note_off,,,,,128,0,13,,,,,6,,,66,100
44864,note_off,,,,,0,0,13,,,,,6,,,74,100
44896,note_off,,,,,64,0,7,,,,,0,,,74,100
44928,note_on,,,,,64,0,14,,,,,6,,,57,100
44928,note_on,,,,,32,0,7,,,,,0,,,71,100
44928,note_on,,,,,64,0,12,,,,,5,,,45,85
44928,note_on,,,,,64,0,13,,,,,6,,,75,100
44928,note_on,,,,,64,0,11,,,,,4,,,57,85
44928,note_on,,,,,0,0,13,,,,,6,,,71,100
44992,note_off,,,,,64,0,7,,,,,0,,,71,100
45024,note_on,,,,,32,0,7,,,,,0,,,71,100
45056,note_off,,,,,128,0,11,,,,,4,,,57,100
45056,note_off,,,,,0,0,13,,,,,6,,,71,100
45056,note_off,,,,,128,0,12,,,,,5,,,45,100
45056,note_off,,,,,128,0,14,,,,,6,,,57,100
45056,note_off,,,,,128,0,13,,,,,6,,,75,100
45088,note_off,,,,,64,0,7,,,,,0,,,71,100
45120,note_on,,,,,64,0,13,,,,,6,,,63,100
45120,note_on,,,,,0,0,13,,,,,6,,,71,100
45120,note_on,,,,,64,0,12,,,,,5,,,33,85
45120,note_on,,,,,32,0,7,,,,,0,,,73,100
45120,note_on,,,,,64,0,14,,,,,6,,,45,100
45120,note_on,,,,,64,0,11,,,,,4,,,45,85
45184,note_off,,,,,64,0,7,,,,,0,,,73,100
45216,note_on,,,,,32,0,7,,,,,0,,,75,100
45248,note_off,,,,,128,0,12,,,,,5,,,33,100
45248,note_off,,,,,128,0,14,,,,,6,,,45,100
45248,note_off,,,,,128,0,11,,,,,4,,,45,100
45248,note_off,,,,,128,0,13,,,,,6,,,63,100
45248,note_off,,,,,0,0,13,,,,,6,,,71,100
45280,note_off,,,,,64,0,7,,,,,0,,,75,100
45312,note_on,,,,,0,0,13,,,,,6,,,71,100
45312,note_on,,,,,64,0,14,,,,,6,,,43,100
45312,note_on,,,,,64,0,11,,,,,4,,,43,85
45312,note_on,,,,,64,0,13,,,,,6,,,76,100
45312,note_on,,,,,64,0,12,,,,,5,,,31,85
45312,note_on,,,,,32,0,7,,,,,0,,,76,100
45376,note_off,,,,,64,0,7,,,,,0,,,76,100
45408,note_on,,,,,32,0,7,,,,,0,,,79,100
45472,note_off,,,,,64,0,7,,,,,0,,,79,100
45504,note_on,,,,,32,0,7,,,,,0,,,78,100
45568,note_off,,,,,256,0,13,,,,,6,,,76,100
45568,note_off,,,,,64,0,7,,,,,0,,,78,100
45568,note_off,,,,,256,0,11,,,,,4,,,43,100
45568,note_off,,,,,256,0,14,,,,,6,,,43,100
45568,note_off,,,,,0,0,13,,,,,6,,,71,100
45568,note_off,,,,,256,0,12,,,,,5,,,31,100
45600,note_on,,,,,32,0,7,,,,,0,,,79,100
45664,note_off,,,,,64,0,7,,,,,0,,,79,100
45696,note_on,,,,,32,0,7,,,,,0,,,76,100
45760,note_off,,,,,64,0,7,,,,,0,,,76,100
45792,note_on,,,,,32,0,7,,,,,0,,,78,100
45856,note_off,,,,,64,0,7,,,,,0,,,78,100
45888,note_on,,,,,32,0,7,,,,,0,,,74,100
45952,note_off,,,,,64,0,7,,,,,0,,,74,100
45984,note_on,,,,,32,0,7,,,,,0,,,76,100
46048,note_off,,,,,64,0,7,,,,,0,,,76,100
46080,note_on,,,,,512,0,14,,,,,6,,,45,100
46080,note_on,,,,,512,0,12,,,,,5,,,33,85
46080,note_on,,,,,32,0,7,,,,,0,,,73,100
46080,note_on,,,,,0,0,13,,,,,6,,,64,100
46080,note_on,,,,,512,0,13,,,,,6,,,67,100
46080,note_on,,,,,512,0,11,,,,,4,,,45,85
46144,note_off,,,,,64,0,7,,,,,0,,,73,100
46176,note_on,,,,,32,0,7,,,,,0,,,73,100
46208,note_off,,,,,128,0,14,,,,,6,,,45,100
46208,note_off,,,,,128,0,11,,,,,4,,,45,100
46208,note_off,,,,,128,0,13,,,,,6,,,67,100
46208,note_off,,,,,128,0,12,,,,,5,,,33,100
46208,note_off,,,,,0,0,13,,,,,6,,,64,100
46240,note_off,,,,,64,0,7,,,,,0,,,73,100
46272,note_on,,,,,64,0,14,,,,,6,,,57,100
46272,note_on,,,,,64,0,11,,,,,4,,,57,85
46272,note_on,,,,,0,0,13,,,,,6,,,67,100
46272,note_on,,,,,64,0,13,,,,,6,,,76,100
46272,note_on,,,,,64,0,12,,,,,5,,,45,85
46272,note_on,,,,,32,0,7,,,,,0,,,74,100
46336,note_off,,,,,64,0,7,,,,,0,,,74,100
46368,note_on,,,,,32,0,7,,,,,0,,,76,100
46400,note_off,,,,,128,0,12,,,,,5,,,45,100
46400,note_off,,,,,128,0,14,,,,,6,,,57,100
46400,note_off,,,,,0,0,13,,,,,6,,,67,100
46400,note_off,,,,,128,0,13,,,,,6,,,76,100
46400,note_off,,,,,128,0,11,,,,,4,,,57,100
46432,note_off,,,,,64,0,7,,,,,0,,,76,100
46464,note_on,,,,,64,0,12,,,,,5,,,45,85
46464,note_on,,,,,64,0,11,,,,,4,,,57,85
46464,note_on,,,,,64,0,14,,,,,6,,,57,100
46464,note_on,,,,,0,0,13,,,,,6,,,67,100
46464,note_on,,,,,64,0,13,,,,,6,,,76,100
46464,note_on,,,,,32,0,7,,,,,0,,,73,100
46528,note_off,,,,,64,0,7,,,,,0,,,73,100
46560,note_on,,,,,32,0,7,,,,,0,,,73,100
46592,note_off,,,,,128,0,12,,,,,5,,,45,100
46592,note_off,,,,,0,0,13,,,,,6,,,67,100
46592,note_off,,,,,128,0,13,,,,,6,,,76,100
46592,note_off,,,,,128,0,14,,,,,6,,,57,100
46592,note_off,,,,,128,0,11,,,,,4,,,57,100
46624,note_off,,,,,64,0,7,,,,,0,,,73,100
46656,note_on,,,,,0,0,13,,,,,6,,,64,100
46656,note_on,,,,,64,0,13,,,,,6,,,67,100
46656,note_on,,,,,32,0,7,,,,,0,,,74,100
46656,note_on,,,,,64,0,12,,,,,5,,,33,85
46656,note_on,,,,,64,0,11,,,,,4,,,45,85
46656,note_on,,,,,64,0,14,,,,,6,,,45,100
46720,note_off,,,,,64,0,7,,,,,0,,,74,100
46752,note_on,,,,,32,0,7,,,,,0,,,76,100
46784,note_off,,,,,128,0,12,,,,,5,,,33,100
46784,note_off,,,,,0,0,13,,,,,6,,,64,100
46784,note_off,,,,,128,0,14,,,,,6,,,45,100
46784,note_off,,,,,128,0,13,,,,,6,,,67,100
46784,note_off,,,,,128,0,11,,,,,4,,,45,100
46816,note_off,,,,,64,0,7,,,,,0,,,76,100
46848,note_on,,,,,64,0,12,,,,,5,,,38,85
46848,note_on,,,,,64,0,11,,,,,4,,,50,85
46848,note_on,,,,,0,0,13,,,,,6,,,69,100
46848,note_on,,,,,64,0,14,,,,,6,,,50,100
46848,note_on,,,,,32,0,7,,,,,0,,,78,100
46848,note_on,,,,,64,0,13,,,,,6,,,66,100
46912,note_off,,,,,64,0,7,,,,,0,,,78,100
46944,note_on,,,,,32,0,7,,,,,0,,,81,100
47008,note_off,,,,,64,0,7,,,,,0,,,81,100
47040,note_on,,,,,32,0,7,,,,,0,,,79,100
47104,note_off,,,,,256,0,14,,,,,6,,,50,100
47104,note_off,,,,,256,0,12,,,,,5,,,38,100
47104,note_off,,,,,256,0,13,,,,,6,,,66,100
47104,note_off,,,,,64,0,7,,,,,0,,,79,100
47104,note_off,,,,,0,0,13,,,,,6,,,69,100
47104,note_off,,,,,256,0,11,,,,,4,,,50,100
47136,note_on,,,,,32,0,7,,,,,0,,,81,100
47200,note_off,,,,,64,0,7,,,,,0,,,81,100
47232,note_on,,,,,32,0,7,,,,,0,,,78,100
47296,note_off,,,,,64,0,7,,,,,0,,,78,100
47328,note_on,,,,,32,0,7,,,,,0,,,79,100
47392,note_off,,,,,64,0,7,,,,,0,,,79,100
47424,note_on,,,,,32,0,7,,,,,0,,,76,100
47488,note_off,,,,,64,0,7,,,,,0,,,76,100
47520,note_on,,,,,32,0,7,,,,,0,,,78,100
47584,note_off,,,,,64,0,7,,,,,0,,,78,100
47616,note_on,,,,,512,0,14,,,,,6,,,47,100
47616,note_on,,,,,0,0,13,,,,,6,,,66,100
47616,note_on,,,,,512,0,13,,,,,6,,,69,100
47616,note_on,,,,,512,0,11,,,,,4,,,47,85
47616,note_on,,,,,32,0,7,,,,,0,,,74,100
47616,note_on,,,,,512,0,12,,,,,5,,,35,85
47680,note_off,,,,,64,0,7,,,,,0,,,74,100
47712,note_on,,,,,32,0,7,,,,,0,,,74,100
47744,note_off,,,,,128,0,11,,,,,4,,,47,100
47744,note_off,,,,,128,0,14,,,,,6,,,47,100
47744,note_off,,,,,0,0,13,,,,,6,,,66,100
47744,note_off,,,,,128,0,13,,,,,6,,,69,100
47744,note_off,,,,,128,0,12,,,,,5,,,35,100
47776,note_off,,,,,64,0,7,,,,,0,,,74,100
47808,note_on,,,,,64,0,12,,,,,5,,,47,85
47808,note_on,,,,,64,0,13,,,,,6,,,78,100
47808,note_on,,,,,0,0,13,,,,,6,,,69,100
47808,note_on,,,,,32,0,7,,,,,0,,,76,100
47808,note_on,,,,,64,0,11,,,,,4,,,59,85
47808,note_on,,,,,64,0,14,,,,,6,,,59,100
47872,note_off,,,,,64,0,7,,,,,0,,,76,100
47904,note_on,,,,,32,0,7,,,,,0,,,78,100
47936,note_off,,,,,128,0,12,,,,,5,,,47,100
47936,note_off,,,,,128,0,11,,,,,4,,,59,100
47936,note_off,,,,,128,0,13,,,,,6,,,78,100
47936,note_off,,,,,0,0,13,,,,,6,,,69,100
47936,note_off,,,,,128,0,14,,,,,6,,,59,100
47968,note_off,,,,,64,0,7,,,,,0,,,78,100
48000,note_on,,,,,64,0,14,,,,,6,,,59,100
48000,note_on,,,,,64,0,11,,,,,4,,,59,85
48000,note_on,,,,,0,0,13,,,,,6,,,78,100
48000,note_on,,,,,32,0,7,,,,,0,,,74,100
48000,note_on,,,,,64,0,12,,,,,5,,,47,85
48000,note_on,,,,,64,0,13,,,,,6,,,69,100
48064,note_off,,,,,64,0,7,,,,,0,,,74,100
48096,note_on,,,,,32,0,7,,,,,0,,,74,100
48128,note_off,,,,,0,0,13,,,,,6,,,78,100
48128,note_off,,,,,128,0,13,,,,,6,,,69,100
48128,note_off,,,,,128,0,14,,,,,6,,,59,100
48128,note_off,,,,,128,0,12,,,,,5,,,47,100
48128,note_off,,,,,128,0,11,,,,,4,,,59,100
48160,note_off,,,,,64,0,7,,,,,0,,,74,100
48192,note_on,,,,,64,0,14,,,,,6,,,47,100
48192,note_on,,,,,0,0,13,,,,,6,,,69,100
48192,note_on,,,,,64,0,11,,,,,4,,,47,85
48192,note_on,,,,,32,0,7,,,,,0,,,76,100
48192,note_on,,,,,64,0,13,,,,,6,,,66,100
48192,note_on,,,,,64,0,12,,,,,5,,,35,85
48256,note_off,,,,,64,0,7,,,,,0,,,76,100
48288,note_on,,,,,32,0,7,,,,,0,,,78,100
48320,note_off,,,,,0,0,13,,,,,6,,,69,100
48320,note_off,,,,,128,0,12,,,,,5,,,35,100
48320,note_off,,,,,128,0,11,,,,,4,,,47,100
48320,note_off,,,,,128,0,14,,,,,6,,,47,100
48320,note_off,,,,,128,0,13,,,,,6,,,66,100
48352,note_off,,,,,64,0,7,,,,,0,,,78,100
48384,note_on,,,,,64,0,14,,,,,6,,,52,100
48384,note_on,,,,,64,0,13,,,,,6,,,67,100
48384,note_on,,,,,0,0,13,,,,,6,,,71,100
48384,note_on,,,,,32,0,7,,,,,0,,,79,100
48384,note_on,,,,,64,0,11,,,,,4,,,52,85
48384,note_on,,,,,64,0,12,,,,,5,,,40,85
48448,note_off,,,,,64,0,7,,,,,0,,,79,100
48480,note_on,,,,,32,0,7,,,,,0,,,81,100
48544,note_off,,,,,64,0,7,,,,,0,,,81,100
48576,note_on,,,,,32,0,7,,,,,0,,,83,100
48640,note_off,,,,,64,0,7,,,,,0,,,83,100
48672,note_on,,,,,32,0,7,,,,,0,,,81,100
48736,note_off,,,,,64,0,7,,,,,0,,,81,100
48768,note_on,,,,,32,0,7,,,,,0,,,79,100
48768,note_off,,,,,384,0,11,,,,,4,,,52,100
48768,note_off,,,,,384,0,13,,,,,6,,,67,100
48768,note_off,,,,,0,0,13,,,,,6,,,71,100
48768,note_off,,,,,384,0,12,,,,,5,,,40,100
48768,note_off,,,,,384,0,14,,,,,6,,,52,100
48832,note_off,,,,,64,0,7,,,,,0,,,79,100
48864,note_on,,,,,32,0,7,,,,,0,,,81,100
48928,note_off,,,,,64,0,7,,,,,0,,,81,100
48960,note_on,,,,,192,0,14,,,,,6,,,50,100
48960,note_on,,,,,32,0,7,,,,,0,,,78,100
48960,note_on,,,,,192,0,11,,,,,4,,,50,85
48960,note_on,,,,,192,0,12,,,,,5,,,38,85
48960,note_on,,,,,0,0,13,,,,,6,,,69,100
48960,note_on,,,,,192,0,13,,,,,6,,,66,100
49024,note_off,,,,,64,0,7,,,,,0,,,78,100
49056,note_on,,,,,32,0,7,,,,,0,,,79,100
49088,note_off,,,,,128,0,13,,,,,6,,,66,100
49088,note_off,,,,,0,0,13,,,,,6,,,69,100
49088,note_off,,,,,128,0,12,,,,,5,,,38,100
49088,note_off,,,,,128,0,14,,,,,6,,,50,100
49088,note_off,,,,,128,0,11,,,,,4,,,50,100
49120,note_off,,,,,64,0,7,,,,,0,,,79,100
49152,note_on,,,,,64,0,12,,,,,5,,,37,85
49152,note_on,,,,,64,0,14,,,,,6,,,49,100
49152,note_on,,,,,64,0,11,,,,,4,,,49,85
49152,note_on,,,,,32,0,7,,,,,0,,,76,100
49152,note_on,,,,,64,0,13,,,,,6,,,64,100
49152,note_on,,,,,0,0,13,,,,,6,,,67,100
49216,note_off,,,,,64,0,7,,,,,0,,,76,100
49248,note_on,,,,,32,0,7,,,,,0,,,78,100
49312,note_off,,,,,64,0,7,,,,,0,,,78,100
49344,note_on,,,,,32,0,7,,,,,0,,,79,100
49408,note_off,,,,,64,0,7,,,,,0,,,79,100
49440,note_on,,,,,32,0,7,,,,,0,,,78,100
49504,note_off,,,,,64,0,7,,,,,0,,,78,100
49536,note_off,,,,,0,0,13,,,,,6,,,67,100
49536,note_off,,,,,384,0,13,,,,,6,,,64,100
49536,note_off,,,,,384,0,11,,,,,4,,,49,100
49536,note_off,,,,,384,0,14,,,,,6,,,49,100
49536,note_on,,,,,32,0,7,,,,,0,,,76,100
49536,note_off,,,,,384,0,12,,,,,5,,,37,100
49600,note_off,,,,,64,0,7,,,,,0,,,76,100
49632,note_on,,,,,32,0,7,,,,,0,,,78,101
49696,note_off,,,,,64,0,7,,,,,0,,,78,100
49728,note_on,,,,,192,0,12,,,,,5,,,35,85
49728,note_on,,,,,192,0,14,,,,,6,,,47,100
49728,note_on,,,,,192,0,13,,,,,6,,,62,100
49728,note_on,,,,,192,0,11,,,,,4,,,47,85
49728,note_on,,,,,0,0,13,,,,,6,,,66,100
49728,note_on,,,,,32,0,7,,,,,0,,,74,102
49792,note_off,,,,,64,0,7,,,,,0,,,74,100
49824,note_on,,,,,32,0,7,,,,,0,,,76,103
49856,note_off,,,,,128,0,12,,,,,5,,,35,100
49856,note_off,,,,,128,0,14,,,,,6,,,47,100
49856,note_off,,,,,0,0,13,,,,,6,,,66,100
49856,note_off,,,,,128,0,11,,,,,4,,,47,100
49856,note_off,,,,,128,0,13,,,,,6,,,62,100
49888,note_off,,,,,64,0,7,,,,,0,,,76,100
49920,note_on,,,,,32,0,7,,,,,0,,,73,104
49920,note_on,,,,,64,0,13,,,,,6,,,61,100
49920,note_on,,,,,64,0,14,,,,,6,,,45,100
49920,note_on,,,,,0,0,13,,,,,6,,,64,100
49920,note_on,,,,,64,0,12,,,,,5,,,33,85
49920,note_on,,,,,64,0,11,,,,,4,,,45,85
49984,note_off,,,,,64,0,7,,,,,0,,,73,100
50016,note_on,,,,,32,0,7,,,,,0,,,74,106
50080,note_off,,,,,64,0,7,,,,,0,,,74,100
50112,note_on,,,,,32,0,7,,,,,0,,,76,107
50176,note_off,,,,,256,0,11,,,,,4,,,45,100
50176,note_off,,,,,256,0,12,,,,,5,,,33,100
50176,note_off,,,,,256,0,13,,,,,6,,,61,100
50176,note_off,,,,,64,0,7,,,,,0,,,76,100
50176,note_off,,,,,0,0,13,,,,,6,,,64,100
50176,note_off,,,,,256,0,14,,,,,6,,,45,100
50208,note_on,,,,,32,0,7,,,,,0,,,74,108
50272,note_off,,,,,64,0,7,,,,,0,,,74,100
50304,note_on,,,,,32,0,7,,,,,0,,,73,109
50368,note_off,,,,,64,0,7,,,,,0,,,73,100
50400,note_on,,,,,32,0,7,,,,,0,,,74,111
50464,note_off,,,,,64,0,7,,,,,0,,,74,100
50496,note_on,,,,,32,0,7,,,,,0,,,71,112
50560,note_off,,,,,64,0,7,,,,,0,,,71,100
50592,note_on,,,,,32,0,7,,,,,0,,,73,113
50656,note_off,,,,,64,0,7,,,,,0,,,73,100
50688,note_on,,,,,9728,0,8,,,,,1,,,81,100
50688,note_on,,,,,512,0,13,,,,,6,,,73,100
50688,note_on,,,,,0,0,13,,,,,6,,,69,100
50688,note_on,,,,,512,0,11,,,,,4,,,45,99
50688,note_on,,,,,32,0,7,,,,,0,,,69,114
50688,note_on,,,,,512,0,12,,,,,5,,,33,99
50688,note_on,,,,,9728,0,9,,,,,2,,,76,100
50688,note_on,,,,,512,0,14,,,,,6,,,45,100
50688,note_on,,,,,9728,0,10,,,,,3,,,73,100
50752,note_off,,,,,64,0,11,,,,,4,,,45,100
50752,note_off,,,,,64,0,14,,,,,6,,,45,100
50752,note_off,,,,,64,0,12,,,,,5,,,33,100
50752,note_off,,,,,0,0,13,,,,,6,,,69,100
50752,note_off,,,,,64,0,13,,,,,6,,,73,100
50784,note_on,,,,,32,0,11,,,,,4,,,57,100
50784,note_on,,,,,32,0,12,,,,,5,,,45,100
50784,note_on,,,,,32,0,13,,,,,6,,,73,100
50784,note_on,,,,,32,0,14,,,,,6,,,57,100
50848,note_off,,,,,64,0,13,,,,,6,,,73,100
50848,note_off,,,,,64,0,12,,,,,5,,,45,100
50848,note_off,,,,,64,0,14,,,,,6,,,57,100
50848,note_off,,,,,64,0,11,,,,,4,,,57,100
50880,note_on,,,,,32,0,13,,,,,6,,,74,100
50880,note_on,,,,,32,0,12,,,,,5,,,47,100
50880,note_on,,,,,32,0,14,,,,,6,,,59,100
50880,note_on,,,,,32,0,11,,,,,4,,,59,100
50944,note_off,,,,,256,0,8,,,,,1,,,81,100
50944,note_off,,,,,64,0,13,,,,,6,,,74,100
50944,note_off,,,,,64,0,14,,,,,6,,,59,100
50944,note_off,,,,,64,0,12,,,,,5,,,47,100
50944,note_off,,,,,64,0,11,,,,,4,,,59,100
50944,note_off,,,,,256,0,7,,,,,0,,,69,100
50944,note_off,,,,,256,0,9,,,,,2,,,76,100
50944,note_off,,,,,256,0,10,,,,,3,,,73,100
50976,note_on,,,,,32,0,12,,,,,5,,,49,100
50976,note_on,,,,,32,0,11,,,,,4,,,61,100
50976,note_on,,,,,32,0,14,,,,,6,,,61,100
50976,note_on,,,,,32,0,13,,,,,6,,,76,100
51040,note_off,,,,,64,0,11,,,,,4,,,61,100
51040,note_off,,,,,64,0,13,,,,,6,,,76,100
51040,note_off,,,,,64,0,14,,,,,6,,,61,100
51040,note_off,,,,,64,0,12,,,,,5,,,49,100
51072,note_on,,,,,32,0,11,,,,,4,,,62,100
51072,note_on,,,,,32,0,14,,,,,6,,,62,100
51072,note_on,,,,,32,0,12,,,,,5,,,50,100
51072,note_on,,,,,32,0,13,,,,,6,,,78,100
51168,note_on,,,,,224,0,9,,,,,2,,,78,100
51168,note_on,,,,,224,0,8,,,,,1,,,81,100
51200,note_off,,,,,128,0,12,,,,,5,,,50,100
51200,note_off,,,,,128,0,13,,,,,6,,,78,100
51200,note_off,,,,,128,0,11,,,,,4,,,62,100
51200,note_off,,,,,128,0,14,,,,,6,,,62,100
51232,note_off,,,,,64,0,9,,,,,2,,,78,100
51232,note_off,,,,,64,0,8,,,,,1,,,81,100
51264,note_on,,,,,0,0,13,,,,,6,,,66,100
51264,note_on,,,,,64,0,13,,,,,6,,,69,100
51264,note_on,,,,,64,0,14,,,,,6,,,50,100
51264,note_on,,,,,64,0,11,,,,,4,,,50,100
51264,note_on,,,,,64,0,12,,,,,5,,,38,100
51264,note_on,,,,,32,0,9,,,,,2,,,76,100
51264,note_on,,,,,32,0,8,,,,,1,,,79,100
51328,note_off,,,,,64,0,8,,,,,1,,,79,100
51328,note_off,,,,,64,0,9,,,,,2,,,76,100
51360,note_on,,,,,32,0,8,,,,,1,,,78,100
51360,note_on,,,,,32,0,9,,,,,2,,,74,100
51392,note_off,,,,,128,0,11,,,,,4,,,50,100
51392,note_off,,,,,0,0,13,,,,,6,,,66,100
51392,note_off,,,,,128,0,14,,,,,6,,,50,100
51392,note_off,,,,,128,0,12,,,,,5,,,38,100
51392,note_off,,,,,128,0,13,,,,,6,,,69,100
51424,note_off,,,,,64,0,9,,,,,2,,,74,100
51424,note_off,,,,,64,0,8,,,,,1,,,78,100
51456,note_on,,,,,32,0,9,,,,,2,,,73,100
51456,note_on,,,,,64,0,12,,,,,5,,,45,100
51456,note_on,,,,,512,0,10,,,,,3,,,69,100
51456,note_on,,,,,64,0,14,,,,,6,,,57,100
51456,note_on,,,,,0,0,13,,,,,6,,,73,100
51456,note_on,,,,,64,0,13,,,,,6,,,64,100
51456,note_on,,,,,32,0,8,,,,,1,,,76,100
51456,note_on,,,,,64,0,11,,,,,4,,,57,100
51520,note_off,,,,,64,0,9,,,,,2,,,73,100
51520,note_off,,,,,64,0,8,,,,,1,,,76,100
51552,note_on,,,,,32,0,9,,,,,2,,,71,100
51552,note_on,,,,,32,0,8,,,,,1,,,74,100
51584,note_off,,,,,128,0,12,,,,,5,,,45,100
51584,note_off,,,,,128,0,14,,,,,6,,,57,100
51584,note_off,,,,,128,0,10,,,,,3,,,69,100
51584,note_off,,,,,128,0,13,,,,,6,,,64,100
51584,note_off,,,,,128,0,11,,,,,4,,,57,100
51584,note_off,,,,,0,0,13,,,,,6,,,73,100
51616,note_off,,,,,64,0,8,,,,,1,,,74,100
51616,note_off,,,,,64,0,9,,,,,2,,,71,100
51648,note_on,,,,,64,0,14,,,,,6,,,57,100
51648,note_on,,,,,64,0,10,,,,,3,,,69,100
51648,note_on,,,,,64,0,13,,,,,6,,,64,100
51648,note_on,,,,,0,0,13,,,,,6,,,73,100
51648,note_on,,,,,32,0,8,,,,,1,,,73,100
51648,note_on,,,,,64,0,11,,,,,4,,,57,100
51648,note_on,,,,,32,0,9,,,,,2,,,69,100
51648,note_on,,,,,64,0,12,,,,,5,,,45,100
51712,note_off,,,,,64,0,9,,,,,2,,,69,100
51712,note_off,,,,,64,0,8,,,,,1,,,73,100
51744,note_on,,,,,32,0,8,,,,,1,,,76,100
51744,note_on,,,,,32,0,9,,,,,2,,,73,100
51776,note_off,,,,,128,0,10,,,,,3,,,69,100
51776,note_off,,,,,0,0,13,,,,,6,,,73,100
51776,note_off,,,,,128,0,11,,,,,4,,,57,100
51776,note_off,,,,,128,0,13,,,,,6,,,64,100
51776,note_off,,,,,128,0,14,,,,,6,,,57,100
51776,note_off,,,,,128,0,12,,,,,5,,,45,100
51808,note_off,,,,,64,0,9,,,,,2,,,73,100
51808,note_off,,,,,64,0,8,,,,,1,,,76,100
51840,note_on,,,,,32,0,9,,,,,2,,,74,100
51840,note_on,,,,,64,0,12,,,,,5,,,38,100
51840,note_on,,,,,32,0,8,,,,,1,,,78,100
51840,note_on,,,,,0,0,13,,,,,6,,,69,100
51840,note_on,,,,,64,0,13,,,,,6,,,66,100
51840,note_on,,,,,64,0,11,,,,,4,,,50,100
51840,note_on,,,,,64,0,14,,,,,6,,,50,100
51840,note_on,,,,,64,0,10,,,,,3,,,69,100
51904,note_off,,,,,64,0,8,,,,,1,,,78,100
51904,note_off,,,,,64,0,9,,,,,2,,,74,100
51936,note_on,,,,,32,0,8,,,,,1,,,79,100
51936,note_on,,,,,32,0,9,,,,,2,,,76,100
51968,note_off,,,,,128,0,11,,,,,4,,,50,100
51968,note_off,,,,,128,0,14,,,,,6,,,50,100
51968,note_off,,,,,128,0,12,,,,,5,,,38,100
51968,note_off,,,,,128,0,10,,,,,3,,,69,100
51968,note_off,,,,,128,0,13,,,,,6,,,66,100
51968,note_off,,,,,0,0,13,,,,,6,,,69,100
52000,note_off,,,,,64,0,9,,,,,2,,,76,100
52000,note_off,,,,,64,0,8,,,,,1,,,79,100
52032,note_on,,,,,64,0,14,,,,,6,,,50,100
52032,note_on,,,,,64,0,12,,,,,5,,,38,100
52032,note_on,,,,,32,0,9,,,,,2,,,74,100
52032,note_on,,,,,64,0,10,,,,,3,,,69,100
52032,note_on,,,,,64,0,13,,,,,6,,,66,100
52032,note_on,,,,,0,0,13,,,,,6,,,69,100
52032,note_on,,,,,64,0,11,,,,,4,,,50,100
52032,note_on,,,,,32,0,8,,,,,1,,,78,100
52096,note_off,,,,,64,0,9,,,,,2,,,74,100
52096,note_off,,,,,64,0,8,,,,,1,,,78,100
52128,note_on,,,,,32,0,9,,,,,2,,,76,100
52128,note_on,,,,,32,0,8,,,,,1,,,79,100
52160,note_off,,,,,128,0,10,,,,,3,,,69,100
52160,note_off,,,,,128,0,12,,,,,5,,,38,100
52160,note_off,,,,,128,0,11,,,,,4,,,50,100
52160,note_off,,,,,128,0,13,,,,,6,,,66,100
52160,note_off,,,,,0,0,13,,,,,6,,,69,100
52160,note_off,,,,,128,0,14,,,,,6,,,50,100
52192,note_off,,,,,64,0,9,,,,,2,,,76,100
52192,note_off,,,,,64,0,8,,,,,1,,,79,100
52224,note_on,,,,,64,0,12,,,,,5,,,45,100
52224,note_on,,,,,64,0,11,,,,,4,,,57,100
52224,note_on,,,,,32,0,9,,,,,2,,,73,100
52224,note_on,,,,,64,0,10,,,,,3,,,69,100
52224,note_on,,,,,32,0,8,,,,,1,,,76,100
52224,note_on,,,,,64,0,13,,,,,6,,,64,100
52224,note_on,,,,,0,0,13,,,,,6,,,73,100
52224,note_on,,,,,64,0,14,,,,,6,,,57,100
52288,note_off,,,,,64,0,9,,,,,2,,,73,100
52288,note_off,,,,,64,0,8,,,,,1,,,76,100
52320,note_on,,,,,32,0,9,,,,,2,,,71,100
52320,note_on,,,,,32,0,8,,,,,1,,,74,100
52352,note_off,,,,,128,0,11,,,,,4,,,57,100
52352,note_off,,,,,128,0,14,,,,,6,,,57,100
52352,note_off,,,,,128,0,10,,,,,3,,,69,100
52352,note_off,,,,,128,0,13,,,,,6,,,64,100
52352,note_off,,,,,128,0,12,,,,,5,,,45,100
52352,note_off,,,,,0,0,13,,,,,6,,,73,100
52384,note_off,,,,,64,0,8,,,,,1,,,74,100
52384,note_off,,,,,64,0,9,,,,,2,,,71,100
52416,note_on,,,,,64,0,12,,,,,5,,,45,99
52416,note_on,,,,,64,0,11,,,,,4,,,57,99
52416,note_on,,,,,32,0,8,,,,,1,,,73,99
52416,note_on,,,,,0,0,13,,,,,6,,,73,100
52416,note_on,,,,,64,0,13,,,,,6,,,64,100
52416,note_on,,,,,64,0,10,,,,,3,,,69,99
52416,note_on,,,,,64,0,14,,,,,6,,,57,100
52416,note_on,,,,,32,0,9,,,,,2,,,69,99
52480,note_off,,,,,64,0,9,,,,,2,,,69,100
52480,note_off,,,,,64,0,8,,,,,1,,,73,100
52512,note_on,,,,,32,0,9,,,,,2,,,73,98
52512,note_on,,,,,32,0,8,,,,,1,,,76,98
52544,note_off,,,,,128,0,10,,,,,3,,,69,100
52544,note_off,,,,,128,0,14,,,,,6,,,57,100
52544,note_off,,,,,128,0,11,,,,,4,,,57,100
52544,note_off,,,,,128,0,13,,,,,6,,,64,100
52544,note_off,,,,,0,0,13,,,,,6,,,73,100
52544,note_off,,,,,128,0,12,,,,,5,,,45,100
52576,note_off,,,,,64,0,9,,,,,2,,,73,100
52576,note_off,,,,,64,0,8,,,,,1,,,76,100
52608,note_on,,,,,64,0,11,,,,,4,,,50,97
52608,note_on,,,,,32,0,8,,,,,1,,,78,97
52608,note_on,,,,,64,0,14,,,,,6,,,50,100
52608,note_on,,,,,64,0,13,,,,,6,,,66,100
52608,note_on,,,,,0,0,13,,,,,6,,,69,100
52608,note_on,,,,,64,0,12,,,,,5,,,38,97
52608,note_on,,,,,32,0,9,,,,,2,,,74,97
52608,note_on,,,,,64,0,10,,,,,3,,,69,97
52672,note_off,,,,,64,0,9,,,,,2,,,74,100
52672,note_off,,,,,64,0,8,,,,,1,,,78,100
52704,note_on,,,,,32,0,8,,,,,1,,,79,96
52704,note_on,,,,,32,0,9,,,,,2,,,76,96
52736,note_off,,,,,128,0,11,,,,,4,,,50,100
52736,note_off,,,,,128,0,12,,,,,5,,,38,100
52736,note_off,,,,,0,0,13,,,,,6,,,69,100
52736,note_off,,,,,128,0,10,,,,,3,,,69,100
52736,note_off,,,,,128,0,13,,,,,6,,,66,100
52736,note_off,,,,,128,0,14,,,,,6,,,50,100
52768,note_off,,,,,64,0,9,,,,,2,,,76,100
52768,note_off,,,,,64,0,8,,,,,1,,,79,100
52800,note_on,,,,,32,0,8,,,,,1,,,78,95
52800,note_on,,,,,64,0,12,,,,,5,,,38,95
52800,note_on,,,,,32,0,9,,,,,2,,,74,95
52800,note_on,,,,,64,0,10,,,,,3,,,69,95
52800,note_on,,,,,64,0,13,,,,,6,,,66,100
52800,note_on,,,,,0,0,13,,,,,6,,,69,100
52800,note_on,,,,,64,0,11,,,,,4,,,50,95
52800,note_on,,,,,64,0,14,,,,,6,,,50,100
52864,note_off,,,,,64,0,9,,,,,2,,,74,100
52864,note_off,,,,,64,0,8,,,,,1,,,78,100
52896,note_on,,,,,32,0,8,,,,,1,,,79,94
52896,note_on,,,,,32,0,9,,,,,2,,,76,94
52928,note_off,,,,,128,0,13,,,,,6,,,66,100
52928,note_off,,,,,128,0,11,,,,,4,,,50,100
52928,note_off,,,,,128,0,10,,,,,3,,,69,100
52928,note_off,,,,,128,0,14,,,,,6,,,50,100
52928,note_off,,,,,128,0,12,,,,,5,,,38,100
52928,note_off,,,,,0,0,13,,,,,6,,,69,100
52960,note_off,,,,,64,0,9,,,,,2,,,76,100
52960,note_off,,,,,64,0,8,,,,,1,,,79,100
52992,note_on,,,,,64,0,10,,,,,3,,,69,93
52992,note_on,,,,,64,0,14,,,,,6,,,57,100
52992,note_on,,,,,64,0,11,,,,,4,,,57,93
52992,note_on,,,,,0,0,13,,,,,6,,,73,100
52992,note_on,,,,,32,0,8,,,,,1,,,76,93
52992,note_on,,,,,32,0,9,,,,,2,,,73,93
52992,note_on,,,,,64,0,12,,,,,5,,,45,93
52992,note_on,,,,,64,0,13,,,,,6,,,64,100
53056,note_off,,,,,64,0,9,,,,,2,,,73,100
53056,note_off,,,,,64,0,8,,,,,1,,,76,100
53088,note_on,,,,,32,0,9,,,,,2,,,71,92
53088,note_on,,,,,32,0,8,,,,,1,,,74,92
53120,note_off,,,,,128,0,12,,,,,5,,,45,100
53120,note_off,,,,,128,0,13,,,,,6,,,64,100
53120,note_off,,,,,0,0,13,,,,,6,,,73,100
53120,note_off,,,,,128,0,11,,,,,4,,,57,100
53120,note_off,,,,,128,0,10,,,,,3,,,69,100
53120,note_off,,,,,128,0,14,,,,,6,,,57,100
53152,note_off,,,,,64,0,8,,,,,1,,,74,100
53152,note_off,,,,,64,0,9,,,,,2,,,71,100
53184,note_on,,,,,64,0,14,,,,,6,,,57,100
53184,note_on,,,,,64,0,13,,,,,6,,,64,100
53184,note_on,,,,,32,0,8,,,,,1,,,73,91
53184,note_on,,,,,32,0,9,,,,,2,,,69,91
53184,note_on,,,,,64,0,10,,,,,3,,,69,91
53184,note_on,,,,,0,0,13,,,,,6,,,73,100
53184,note_on,,,,,64,0,12,,,,,5,,,45,91
53184,note_on,,,,,64,0,11,,,,,4,,,57,91
53248,note_off,,,,,64,0,8,,,,,1,,,73,100
53248,note_off,,,,,64,0,9,,,,,2,,,69,100
53280,note_on,,,,,32,0,9,,,,,2,,,73,90
53280,note_on,,,,,32,0,8,,,,,1,,,76,90
53312,note_off,,,,,128,0,14,,,,,6,,,57,100
53312,note_off,,,,,128,0,12,,,,,5,,,45,100
53312,note_off,,,,,0,0,13,,,,,6,,,73,100
53312,note_off,,,,,128,0,13,,,,,6,,,64,100
53312,note_off,,,,,128,0,11,,,,,4,,,57,100
53312,note_off,,,,,128,0,10,,,,,3,,,69,100
53344,note_off,,,,,64,0,8,,,,,1,,,76,100
53344,note_off,,,,,64,0,9,,,,,2,,,73,100
53376,note_on,,,,,64,0,11,,,,,4,,,50,89
53376,note_on,,,,,32,0,8,,,,,1,,,78,89
53376,note_on,,,,,64,0,13,,,,,6,,,66,100
53376,note_on,,,,,32,0,9,,,,,2,,,74,89
53376,note_on,,,,,64,0,14,,,,,6,,,50,100
53376,note_on,,,,,64,0,12,,,,,5,,,38,89
53376,note_on,,,,,0,0,13,,,,,6,,,69,100
53376,note_on,,,,,64,0,10,,,,,3,,,69,89
53440,note_off,,,,,64,0,9,,,,,2,,,74,100
53440,note_off,,,,,64,0,8,,,,,1,,,78,100
53472,note_on,,,,,32,0,8,,,,,1,,,79,88
53472,note_on,,,,,32,0,9,,,,,2,,,76,88
53504,note_off,,,,,128,0,10,,,,,3,,,69,100
53504,note_off,,,,,128,0,13,,,,,6,,,66,100
53504,note_off,,,,,0,0,13,,,,,6,,,69,100
53504,note_off,,,,,128,0,14,,,,,6,,,50,100
53504,note_off,,,,,128,0,12,,,,,5,,,38,100
53504,note_off,,,,,128,0,11,,,,,4,,,50,100
53536,note_off,,,,,64,0,9,,,,,2,,,76,100
53536,note_off,,,,,64,0,8,,,,,1,,,79,100
53568,note_on,,,,,64,0,11,,,,,4,,,50,87
53568,note_on,,,,,64,0,12,,,,,5,,,38,87
53568,note_on,,,,,0,0,13,,,,,6,,,69,100
53568,note_on,,,,,64,0,13,,,,,6,,,66,100
53568,note_on,,,,,64,0,14,,,,,6,,,50,100
53568,note_on,,,,,32,0,8,,,,,1,,,78,87
53568,note_on,,,,,32,0,9,,,,,2,,,74,87
53568,note_on,,,,,64,0,10,,,,,3,,,69,87
53632,note_off,,,,,64,0,9,,,,,2,,,74,100
53632,note_off,,,,,64,0,8,,,,,1,,,78,100
53664,note_on,,,,,32,0,9,,,,,2,,,76,86
53664,note_on,,,,,32,0,8,,,,,1,,,79,86
53696,note_off,,,,,128,0,12,,,,,5,,,38,100
53696,note_off,,,,,128,0,10,,,,,3,,,69,100
53696,note_off,,,,,128,0,11,,,,,4,,,50,100
53696,note_off,,,,,128,0,13,,,,,6,,,66,100
53696,note_off,,,,,128,0,14,,,,,6,,,50,100
53696,note_off,,,,,0,0,13,,,,,6,,,69,100
53728,note_off,,,,,64,0,8,,,,,1,,,79,100
53728,note_off,,,,,64,0,9,,,,,2,,,76,100
53760,note_on,,,,,64,0,13,,,,,6,,,66,100
53760,note_on,,,,,0,0,13,,,,,6,,,74,100
53760,note_on,,,,,32,0,8,,,,,1,,,76,85
53760,note_on,,,,,64,0,12,,,,,5,,,45,85
53760,note_on,,,,,64,0,10,,,,,3,,,69,85
53760,note_on,,,,,32,0,9,,,,,2,,,73,85
53760,note_on,,,,,64,0,14,,,,,6,,,57,100
53760,note_on,,,,,64,0,11,,,,,4,,,57,85
53888,note_off,,,,,128,0,8,,,,,1,,,76,100
53952,note_on,,,,,64,0,8,,,,,1,,,69,85
54016,note_off,,,,,0,0,13,,,,,6,,,74,100
54016,note_off,,,,,256,0,12,,,,,5,,,45,100
54016,note_off,,,,,256,0,14,,,,,6,,,57,100
54016,note_off,,,,,256,0,13,,,,,6,,,66,100
54016,note_off,,,,,256,0,9,,,,,2,,,73,100
54016,note_off,,,,,256,0,11,,,,,4,,,57,100
54016,note_off,,,,,256,0,10,,,,,3,,,69,100
54080,note_off,,,,,128,0,8,,,,,1,,,69,100
54144,note_on,,,,,64,0,8,,,,,1,,,81,100
54272,note_off,,,,,128,0,8,,,,,1,,,81,100
54336,note_on,,,,,320,0,9,,,,,2,,,73,100
54336,note_on,,,,,320,0,12,,,,,5,,,33,100
54336,note_on,,,,,320,0,13,,,,,6,,,61,100
54336,note_on,,,,,320,0,14,,,,,6,,,45,100
54336,note_on,,,,,320,0,10,,,,,3,,,64,100
54336,note_on,,,,,64,0,8,,,,,1,,,81,100
54336,note_on,,,,,0,0,13,,,,,6,,,64,100
54336,note_on,,,,,320,0,11,,,,,4,,,45,100
54464,note_off,,,,,128,0,13,,,,,6,,,61,100
54464,note_off,,,,,0,0,13,,,,,6,,,64,100
54464,note_off,,,,,128,0,12,,,,,5,,,33,100
54464,note_off,,,,,128,0,14,,,,,6,,,45,100
54464,note_off,,,,,128,0,10,,,,,3,,,64,100
54464,note_off,,,,,128,0,9,,,,,2,,,73,100
54464,note_off,,,,,128,0,8,,,,,1,,,81,100
54464,note_off,,,,,128,0,11,,,,,4,,,45,100
54528,note_on,,,,,64,0,14,,,,,6,,,50,100
54528,note_on,,,,,0,0,13,,,,,6,,,69,100
54528,note_on,,,,,64,0,13,,,,,6,,,71,100
54528,note_on,,,,,64,0,8,,,,,1,,,81,100
54528,note_on,,,,,64,0,11,,,,,4,,,50,100
54528,note_on,,,,,64,0,9,,,,,2,,,71,100
54528,note_on,,,,,64,0,10,,,,,3,,,66,100
54528,note_on,,,,,64,0,12,,,,,5,,,38,100
54656,note_off,,,,,128,0,8,,,,,1,,,81,100
54720,note_on,,,,,64,0,8,,,,,1,,,79,100
54784,note_off,,,,,256,0,11,,,,,4,,,50,100
54784,note_off,,,,,0,0,13,,,,,6,,,69,100
54784,note_off,,,,,256,0,13,,,,,6,,,71,100
54784,note_off,,,,,256,0,12,,,,,5,,,38,100
54784,note_off,,,,,256,0,10,,,,,3,,,66,100
54784,note_off,,,,,256,0,14,,,,,6,,,50,100
54784,note_off,,,,,64,0,8,,,,,1,,,79,100
54816,note_on,,,,,32,0,8,,,,,1,,,78,100
54880,note_off,,,,,64,0,8,,,,,1,,,78,100
54912,note_on,,,,,128,0,13,,,,,6,,,67,100
54912,note_on,,,,,128,0,11,,,,,4,,,52,100
54912,note_on,,,,,128,0,14,,,,,6,,,52,100
54912,note_on,,,,,128,0,10,,,,,3,,,64,100
54912,note_off,,,,,384,0,9,,,,,2,,,71,100
54912,note_on,,,,,32,0,8,,,,,1,,,79,100
54912,note_on,,,,,128,0,12,,,,,5,,,40,100
54912,note_on,,,,,0,0,13,,,,,6,,,71,100
55040,note_off,,,,,128,0,8,,,,,1,,,79,100
55104,note_on,,,,,64,0,8,,,,,1,,,79,100
55104,note_on,,,,,192,0,9,,,,,2,,,71,100
55168,note_off,,,,,0,0,13,,,,,6,,,71,100
55168,note_off,,,,,256,0,13,,,,,6,,,67,100
55168,note_off,,,,,256,0,12,,,,,5,,,40,100
55168,note_off,,,,,256,0,14,,,,,6,,,52,100
55168,note_off,,,,,256,0,11,,,,,4,,,52,100
55232,note_off,,,,,128,0,9,,,,,2,,,71,100
55232,note_off,,,,,128,0,8,,,,,1,,,79,100
55296,note_on,,,,,64,0,8,,,,,1,,,79,100
55296,note_on,,,,,128,0,11,,,,,4,,,49,100
55296,note_on,,,,,128,0,14,,,,,6,,,49,100
55296,note_on,,,,,0,0,13,,,,,6,,,67,100
55296,note_on,,,,,64,0,9,,,,,2,,,69,100
55296,note_on,,,,,128,0,12,,,,,5,,,37,100
55296,note_on,,,,,128,0,13,,,,,6,,,69,100
55424,note_off,,,,,512,0,10,,,,,3,,,64,100
55424,note_off,,,,,128,0,8,,,,,1,,,79,100
55488,note_on,,,,,64,0,8,,,,,1,,,78,100
55552,note_off,,,,,64,0,8,,,,,1,,,78,100
55552,note_off,,,,,256,0,11,,,,,4,,,49,100
55552,note_off,,,,,256,0,12,,,,,5,,,37,100
55552,note_off,,,,,0,0,13,,,,,6,,,67,100
55552,note_off,,,,,256,0,14,,,,,6,,,49,100
55552,note_off,,,,,256,0,13,,,,,6,,,69,100
55584,note_on,,,,,32,0,8,,,,,1,,,76,100
55648,note_off,,,,,64,0,8,,,,,1,,,76,100
55680,note_on,,,,,32,0,8,,,,,1,,,78,100
55680,note_on,,,,,128,0,13,,,,,6,,,66,100
55680,note_on,,,,,128,0,12,,,,,5,,,38,100
55680,note_on,,,,,0,0,13,,,,,6,,,69,100
55680,note_on,,,,,256,0,10,,,,,3,,,62,100
55680,note_on,,,,,128,0,14,,,,,6,,,50,100
55680,note_on,,,,,128,0,11,,,,,4,,,50,100
55680,note_off,,,,,384,0,9,,,,,2,,,69,100
55808,note_off,,,,,128,0,8,,,,,1,,,78,100
55872,note_on,,,,,192,0,9,,,,,2,,,69,100
55872,note_on,,,,,64,0,8,,,,,1,,,78,100
55936,note_off,,,,,0,0,13,,,,,6,,,69,100
55936,note_off,,,,,256,0,11,,,,,4,,,50,100
55936,note_off,,,,,256,0,14,,,,,6,,,50,100
55936,note_off,,,,,256,0,13,,,,,6,,,66,100
55936,note_off,,,,,256,0,12,,,,,5,,,38,100
56000,note_off,,,,,128,0,8,,,,,1,,,78,100
56000,note_off,,,,,128,0,9,,,,,2,,,69,100
56064,note_on,,,,,64,0,9,,,,,2,,,67,100
56064,note_on,,,,,128,0,13,,,,,6,,,67,100
56064,note_on,,,,,0,0,13,,,,,6,,,66,100
56064,note_on,,,,,128,0,14,,,,,6,,,47,100
56064,note_on,,,,,128,0,12,,,,,5,,,35,100
56064,note_on,,,,,128,0,11,,,,,4,,,47,100
56064,note_on,,,,,64,0,8,,,,,1,,,78,100
56192,note_off,,,,,512,0,10,,,,,3,,,62,100
56192,note_off,,,,,128,0,8,,,,,1,,,78,100
56256,note_on,,,,,64,0,8,,,,,1,,,76,100
56320,note_off,,,,,256,0,11,,,,,4,,,47,100
56320,note_off,,,,,256,0,13,,,,,6,,,67,100
56320,note_off,,,,,0,0,13,,,,,6,,,66,100
56320,note_off,,,,,256,0,14,,,,,6,,,47,100
56320,note_off,,,,,64,0,8,,,,,1,,,76,100
56320,note_off,,,,,256,0,12,,,,,5,,,35,100
56352,note_on,,,,,32,0,8,,,,,1,,,74,100
56416,note_off,,,,,64,0,8,,,,,1,,,74,100
56448,note_on,,,,,128,0,11,,,,,4,,,49,100
56448,note_on,,,,,256,0,10,,,,,3,,,61,100
56448,note_on,,,,,128,0,14,,,,,6,,,49,100
56448,note_on,,,,,128,0,12,,,,,5,,,37,100
56448,note_on,,,,,32,0,8,,,,,1,,,76,100
56448,note_off,,,,,384,0,9,,,,,2,,,67,100
56448,note_on,,,,,0,0,13,,,,,6,,,67,100
56448,note_on,,,,,128,0,13,,,,,6,,,64,100
56576,note_off,,,,,128,0,8,,,,,1,,,76,100
56640,note_on,,,,,64,0,8,,,,,1,,,76,100
56640,note_on,,,,,192,0,9,,,,,2,,,67,100
56704,note_off,,,,,256,0,11,,,,,4,,,49,100
56704,note_off,,,,,256,0,12,,,,,5,,,37,100
56704,note_off,,,,,0,0,13,,,,,6,,,67,100
56704,note_off,,,,,256,0,13,,,,,6,,,64,100
56704,note_off,,,,,256,0,14,,,,,6,,,49,100
56768,note_off,,,,,128,0,8,,,,,1,,,76,100
56768,note_off,,,,,128,0,9,,,,,2,,,67,100
56832,note_on,,,,,64,0,8,,,,,1,,,76,100
56832,note_on,,,,,128,0,14,,,,,6,,,45,100
56832,note_on,,,,,0,0,13,,,,,6,,,64,100
56832,note_on,,,,,128,0,13,,,,,6,,,66,100
56832,note_on,,,,,128,0,12,,,,,5,,,33,100
56832,note_on,,,,,128,0,11,,,,,4,,,45,100
56832,note_on,,,,,64,0,9,,,,,2,,,66,100
56960,note_off,,,,,512,0,10,,,,,3,,,61,100
56960,note_off,,,,,128,0,8,,,,,1,,,76,100
57024,note_on,,,,,64,0,8,,,,,1,,,74,100
57088,note_off,,,,,256,0,12,,,,,5,,,33,100
57088,note_off,,,,,256,0,11,,,,,4,,,45,100
57088,note_off,,,,,256,0,13,,,,,6,,,66,100
57088,note_off,,,,,0,0,13,,,,,6,,,64,100
57088,note_off,,,,,256,0,14,,,,,6,,,45,100
57088,note_off,,,,,64,0,8,,,,,1,,,74,100
57120,note_on,,,,,32,0,8,,,,,1,,,73,100
57184,note_off,,,,,64,0,8,,,,,1,,,73,100
57216,note_on,,,,,128,0,12,,,,,5,,,35,100
57216,note_on,,,,,256,0,10,,,,,3,,,59,100
57216,note_on,,,,,128,0,11,,,,,4,,,47,100
57216,note_on,,,,,32,0,8,,,,,1,,,74,100
57216,note_on,,,,,0,0,13,,,,,6,,,66,100
57216,note_on,,,,,128,0,13,,,,,6,,,62,100
57216,note_on,,,,,128,0,14,,,,,6,,,47,100
57216,note_off,,,,,384,0,9,,,,,2,,,66,100
57344,note_off,,,,,128,0,8,,,,,1,,,74,100
57408,note_on,,,,,64,0,8,,,,,1,,,74,100
57408,note_on,,,,,192,0,9,,,,,2,,,66,100
57472,note_off,,,,,256,0,13,,,,,6,,,62,100
57472,note_off,,,,,256,0,14,,,,,6,,,47,100
57472,note_off,,,,,0,0,13,,,,,6,,,66,100
57472,note_off,,,,,256,0,12,,,,,5,,,35,100
57472,note_off,,,,,256,0,11,,,,,4,,,47,100
57536,note_off,,,,,128,0,8,,,,,1,,,74,100
57536,note_off,,,,,128,0,9,,,,,2,,,66,100
57600,note_on,,,,,128,0,13,,,,,6,,,64,100
57600,note_on,,,,,128,0,14,,,,,6,,,43,100
57600,note_on,,,,,128,0,12,,,,,5,,,31,100
57600,note_on,,,,,64,0,8,,,,,1,,,74,100
57600,note_on,,,,,0,0,13,,,,,6,,,62,100
57600,note_on,,,,,64,0,9,,,,,2,,,64,100
57600,note_on,,,,,128,0,11,,,,,4,,,43,100
57728,note_off,,,,,512,0,10,,,,,3,,,59,100
57856,note_off,,,,,256,0,8,,,,,1,,,74,100
57856,note_off,,,,,256,0,14,,,,,6,,,43,100
57856,note_off,,,,,0,0,13,,,,,6,,,62,100
57856,note_off,,,,,256,0,12,,,,,5,,,31,100
57856,note_off,,,,,256,0,13,,,,,6,,,64,100
57856,note_off,,,,,256,0,11,,,,,4,,,43,100
57984,note_on,,,,,128,0,8,,,,,1,,,73,100
57984,note_on,,,,,128,0,14,,,,,6,,,45,100
57984,note_off,,,,,384,0,9,,,,,2,,,64,100
57984,note_on,,,,,128,0,13,,,,,6,,,61,100
57984,note_on,,,,,0,0,13,,,,,6,,,64,100
57984,note_on,,,,,256,0,10,,,,,3,,,57,100
57984,note_on,,,,,128,0,11,,,,,4,,,45,100
57984,note_on,,,,,128,0,12,,,,,5,,,33,100
58176,note_on,,,,,192,0,9,,,,,2,,,64,100
58240,note_off,,,,,256,0,13,,,,,6,,,61,100
58240,note_off,,,,,0,0,13,,,,,6,,,64,100
58240,note_off,,,,,256,0,14,,,,,6,,,45,100
58240,note_off,,,,,256,0,12,,,,,5,,,33,100
58240,note_off,,,,,256,0,10,,,,,3,,,57,100
58240,note_off,,,,,256,0,8,,,,,1,,,73,100
58240,note_off,,,,,256,0,11,,,,,4,,,45,100
58304,note_off,,,,,128,0,9,,,,,2,,,64,100
58368,note_on,,,,,128,0,12,,,,,5,,,38,100
58368,note_on,,,,,7424,0,7,,,,,0,,,74,100
58368,note_on,,,,,128,0,14,,,,,6,,,50,100
58368,note_on,,,,,128,0,11,,,,,4,,,50,100
58368,note_on,,,,,0,0,13,,,,,6,,,62,100
58368,note_on,,,,,128,0,13,,,,,6,,,66,100
58368,note_on,,,,,64,0,9,,,,,2,,,66,100
58368,note_on,,,,,128,0,8,,,,,1,,,74,100
58368,note_on,,,,,128,0,10,,,,,3,,,57,100
58496,note_off,,,,,128,0,7,,,,,0,,,74,100
58560,note_on,,,,,64,0,7,,,,,0,,,81,100
58624,note_off,,,,,256,0,13,,,,,6,,,66,100
58624,note_off,,,,,256,0,11,,,,,4,,,50,100
58624,note_off,,,,,256,0,14,,,,,6,,,50,100
58624,note_off,,,,,256,0,9,,,,,2,,,66,100
58624,note_off,,,,,256,0,12,,,,,5,,,38,100
58624,note_off,,,,,0,0,13,,,,,6,,,62,100
58624,note_off,,,,,256,0,10,,,,,3,,,57,100
58624,note_off,,,,,64,0,7,,,,,0,,,81,100
58624,note_off,,,,,256,0,8,,,,,1,,,74,100
58656,note_on,,,,,32,0,7,,,,,0,,,79,100
58720,note_off,,,,,64,0,7,,,,,0,,,79,100
58752,note_on,,,,,32,0,7,,,,,0,,,81,100
58880,note_off,,,,,128,0,7,,,,,0,,,81,100
58944,note_on,,,,,64,0,7,,,,,0,,,81,100
59072,note_off,,,,,128,0,7,,,,,0,,,81,100
59136,note_on,,,,,64,0,7,,,,,0,,,76,100
59136,note_on,,,,,512,0,10,,,,,3,,,57,85
59136,note_on,,,,,512,0,13,,,,,6,,,61,100
59136,note_on,,,,,0,0,13,,,,,6,,,64,100
59136,note_on,,,,,512,0,12,,,,,5,,,33,85
59136,note_on,,,,,512,0,11,,,,,4,,,45,85
59136,note_on,,,,,512,0,14,,,,,6,,,45,100
59136,note_on,,,,,512,0,9,,,,,2,,,73,85
59136,note_on,,,,,512,0,8,,,,,1,,,76,85
59264,note_off,,,,,128,0,7,,,,,0,,,76,100
59328,note_on,,,,,64,0,7,,,,,0,,,81,100
59392,note_off,,,,,256,0,11,,,,,4,,,45,100
59392,note_off,,,,,256,0,12,,,,,5,,,33,100
59392,note_off,,,,,256,0,9,,,,,2,,,73,100
59392,note_off,,,,,256,0,8,,,,,1,,,76,100
59392,note_off,,,,,0,0,13,,,,,6,,,64,100
59392,note_off,,,,,256,0,10,,,,,3,,,57,100
59392,note_off,,,,,256,0,14,,,,,6,,,45,100
59392,note_off,,,,,256,0,13,,,,,6,,,61,100
59392,note_off,,,,,64,0,7,,,,,0,,,81,100
59424,note_on,,,,,32,0,7,,,,,0,,,79,100
59488,note_off,,,,,64,0,7,,,,,0,,,79,100
59520,note_on,,,,,32,0,7,,,,,0,,,81,100
59648,note_off,,,,,128,0,7,,,,,0,,,81,100
59712,note_on,,,,,64,0,7,,,,,0,,,81,100
59840,note_off,,,,,128,0,7,,,,,0,,,81,100
59904,note_on,,,,,512,0,14,,,,,6,,,50,100
59904,note_on,,,,,512,0,13,,,,,6,,,66,100
59904,note_on,,,,,64,0,7,,,,,0,,,78,100
59904,note_on,,,,,512,0,9,,,,,2,,,74,85
59904,note_on,,,,,512,0,8,,,,,1,,,78,85
59904,note_on,,,,,512,0,10,,,,,3,,,57,85
59904,note_on,,,,,0,0,13,,,,,6,,,69,100
59904,note_on,,,,,512,0,11,,,,,4,,,50,85
59904,note_on,,,,,512,0,12,,,,,5,,,38,85
60032,note_off,,,,,128,0,7,,,,,0,,,78,100
60096,note_on,,,,,64,0,7,,,,,0,,,81,100
60160,note_off,,,,,256,0,11,,,,,4,,,50,100
60160,note_off,,,,,256,0,14,,,,,6,,,50,100
60160,note_off,,,,,256,0,8,,,,,1,,,78,100
60160,note_off,,,,,0,0,13,,,,,6,,,69,100
60160,note_off,,,,,256,0,9,,,,,2,,,74,100
60160,note_off,,,,,64,0,7,,,,,0,,,81,100
60160,note_off,,,,,256,0,10,,,,,3,,,57,100
60160,note_off,,,,,256,0,12,,,,,5,,,38,100
60160,note_off,,,,,256,0,13,,,,,6,,,66,100
60192,note_on,,,,,32,0,7,,,,,0,,,79,100
60256,note_off,,,,,64,0,7,,,,,0,,,79,100
60288,note_on,,,,,32,0,7,,,,,0,,,81,100
60416,note_off,,,,,128,0,7,,,,,0,,,81,100
60480,note_on,,,,,64,0,7,,,,,0,,,81,100
60608,note_off,,,,,128,0,7,,,,,0,,,81,100
60672,note_on,,,,,512,0,9,,,,,2,,,73,85
60672,note_on,,,,,512,0,10,,,,,3,,,57,85
60672,note_on,,,,,512,0,11,,,,,4,,,45,85
60672,note_on,,,,,512,0,8,,,,,1,,,76,85
60672,note_on,,,,,512,0,13,,,,,6,,,61,100
60672,note_on,,,,,64,0,7,,,,,0,,,76,100
60672,note_on,,,,,512,0,14,,,,,6,,,45,100
60672,note_on,,,,,512,0,12,,,,,5,,,33,85
60672,note_on,,,,,0,0,13,,,,,6,,,64,100
60800,note_off,,,,,128,0,7,,,,,0,,,76,100
60864,note_on,,,,,64,0,7,,,,,0,,,81,100
60928,note_off,,,,,256,0,13,,,,,6,,,61,100
60928,note_off,,,,,256,0,8,,,,,1,,,76,100
60928,note_off,,,,,256,0,14,,,,,6,,,45,100
60928,note_off,,,,,256,0,10,,,,,3,,,57,100
60928,note_off,,,,,256,0,9,,,,,2,,,73,100
60928,note_off,,,,,0,0,13,,,,,6,,,64,100
60928,note_off,,,,,256,0,11,,,,,4,,,45,100
60928,note_off,,,,,256,0,12,,,,,5,,,33,100
60928,note_off,,,,,64,0,7,,,,,0,,,81,100
60960,note_on,,,,,32,0,7,,,,,0,,,79,100
61024,note_off,,,,,64,0,7,,,,,0,,,79,100
61056,note_on,,,,,32,0,7,,,,,0,,,81,100
61184,note_off,,,,,128,0,7,,,,,0,,,81,100
61248,note_on,,,,,64,0,7,,,,,0,,,81,100
61376,note_off,,,,,128,0,7,,,,,0,,,81,100
61440,note_on,,,,,512,0,10,,,,,3,,,57,85
61440,note_on,,,,,512,0,9,,,,,2,,,74,85
61440,note_on,,,,,0,0,13,,,,,6,,,69,100
61440,note_on,,,,,64,0,7,,,,,0,,,78,100
61440,note_on,,,,,512,0,11,,,,,4,,,50,85
61440,note_on,,,,,512,0,12,,,,,5,,,38,85
61440,note_on,,,,,512,0,14,,,,,6,,,50,100
61440,note_on,,,,,512,0,13,,,,,6,,,66,100
61440,note_on,,,,,512,0,8,,,,,1,,,78,85
61504,note_off,,,,,64,0,7,,,,,0,,,78,100
61536,note_on,,,,,32,0,7,,,,,0,,,79,100
61600,note_off,,,,,64,0,7,,,,,0,,,79,100
61632,note_on,,,,,32,0,7,,,,,0,,,78,100
61696,note_off,,,,,256,0,14,,,,,6,,,50,100
61696,note_off,,,,,256,0,12,,,,,5,,,38,100
61696,note_off,,,,,256,0,10,,,,,3,,,57,100
61696,note_off,,,,,256,0,8,,,,,1,,,78,100
61696,note_off,,,,,256,0,13,,,,,6,,,66,100
61696,note_off,,,,,64,0,7,,,,,0,,,78,100
61696,note_off,,,,,256,0,9,,,,,2,,,74,100
61696,note_off,,,,,256,0,11,,,,,4,,,50,100
61696,note_off,,,,,0,0,13,,,,,6,,,69,100
61728,note_on,,,,,32,0,7,,,,,0,,,76,100
61792,note_off,,,,,64,0,7,,,,,0,,,76,100
61824,note_on,,,,,32,0,7,,,,,0,,,74,100
61952,note_off,,,,,128,0,7,,,,,0,,,74,100
62016,note_on,,,,,0,0,13,,,,,6,,,69,100
62016,note_on,,,,,320,0,14,,,,,6,,,50,100
62016,note_on,,,,,320,0,12,,,,,5,,,38,100
62016,note_on,,,,,320,0,11,,,,,4,,,50,100
62016,note_on,,,,,320,0,13,,,,,6,,,66,100
62016,note_on,,,,,320,0,10,,,,,3,,,69,100
62016,note_on,,,,,320,0,9,,,,,2,,,74,100
62016,note_on,,,,,320,0,8,,,,,1,,,78,100
62144,note_off,,,,,0,0,13,,,,,6,,,69,100
62144,note_off,,,,,128,0,13,,,,,6,,,66,100
62144,note_off,,,,,128,0,10,,,,,3,,,69,100
62144,note_off,,,,,128,0,8,,,,,1,,,78,100
62144,note_off,,,,,128,0,12,,,,,5,,,38,100
62144,note_off,,,,,128,0,11,,,,,4,,,50,100
62144,note_off,,,,,128,0,14,,,,,6,,,50,100
62144,note_off,,,,,128,0,9,,,,,2,,,74,100
62208,note_on,,,,,64,0,12,,,,,5,,,33,100
62208,note_on,,,,,64,0,10,,,,,3,,,69,100
62208,note_on,,,,,64,0,9,,,,,2,,,73,100
62208,note_on,,,,,64,0,11,,,,,4,,,45,100
62208,note_on,,,,,64,0,13,,,,,6,,,61,100
62208,note_on,,,,,0,0,13,,,,,6,,,64,100
62208,note_on,,,,,64,0,14,,,,,6,,,45,100
62208,note_on,,,,,64,0,8,,,,,1,,,76,100
62272,note_off,,,,,64,0,8,,,,,1,,,76,100
62304,note_on,,,,,32,0,8,,,,,1,,,74,100
62368,note_off,,,,,64,0,8,,,,,1,,,74,100
62400,note_on,,,,,32,0,8,,,,,1,,,76,100
62464,note_off,,,,,256,0,12,,,,,5,,,33,100
62464,note_off,,,,,64,0,8,,,,,1,,,76,100
62464,note_off,,,,,256,0,14,,,,,6,,,45,100
62464,note_off,,,,,256,0,13,,,,,6,,,61,100
62464,note_off,,,,,256,0,11,,,,,4,,,45,100
62464,note_off,,,,,0,0,13,,,,,6,,,64,100
62464,note_off,,,,,256,0,9,,,,,2,,,73,100
62464,note_off,,,,,256,0,10,,,,,3,,,69,100
62496,note_on,,,,,32,0,8,,,,,1,,,79,100
62560,note_off,,,,,64,0,8,,,,,1,,,79,100
62592,note_on,,,,,0,0,13,,,,,6,,,69,100
62592,note_on,,,,,128,0,10,,,,,3,,,66,100
62592,note_on,,,,,128,0,13,,,,,6,,,66,100
62592,note_on,,,,,128,0,12,,,,,5,,,38,100
62592,note_on,,,,,128,0,11,,,,,4,,,50,100
62592,note_on,,,,,128,0,14,,,,,6,,,50,100
62592,note_on,,,,,32,0,8,,,,,1,,,78,100
62592,note_on,,,,,128,0,9,,,,,2,,,69,100
62656,note_off,,,,,64,0,8,,,,,1,,,78,100
62688,note_on,,,,,32,0,8,,,,,1,,,76,100
62752,note_off,,,,,64,0,8,,,,,1,,,76,100
62784,note_on,,,,,32,0,8,,,,,1,,,78,100
62848,note_off,,,,,256,0,9,,,,,2,,,69,100
62848,note_off,,,,,256,0,12,,,,,5,,,38,100
62848,note_off,,,,,256,0,10,,,,,3,,,66,100
62848,note_off,,,,,0,0,13,,,,,6,,,69,100
62848,note_off,,,,,256,0,13,,,,,6,,,66,100
62848,note_off,,,,,256,0,11,,,,,4,,,50,100
62848,note_off,,,,,256,0,14,,,,,6,,,50,100
62848,note_off,,,,,64,0,8,,,,,1,,,78,100
62880,note_on,,,,,32,0,8,,,,,1,,,81,100
62944,note_off,,,,,64,0,8,,,,,1,,,81,100
62976,note_on,,,,,128,0,14,,,,,6,,,43,100
62976,note_on,,,,,128,0,10,,,,,3,,,62,100
62976,note_on,,,,,128,0,11,,,,,4,,,43,100
62976,note_on,,,,,128,0,13,,,,,6,,,59,100
62976,note_on,,,,,0,0,13,,,,,6,,,62,100
62976,note_on,,,,,128,0,9,,,,,2,,,71,100
62976,note_on,,,,,128,0,12,,,,,5,,,31,100
62976,note_on,,,,,32,0,8,,,,,1,,,79,100
63040,note_off,,,,,64,0,8,,,,,1,,,79,100
63072,note_on,,,,,32,0,8,,,,,1,,,78,100
63104,note_off,,,,,128,0,10,,,,,3,,,62,100
63136,note_off,,,,,64,0,8,,,,,1,,,78,100
63168,note_on,,,,,32,0,8,,,,,1,,,79,100
63168,note_on,,,,,64,0,10,,,,,3,,,67,100
63232,note_off,,,,,256,0,12,,,,,5,,,31,100
63232,note_off,,,,,256,0,14,,,,,6,,,43,100
63232,note_off,,,,,256,0,11,,,,,4,,,43,100
63232,note_off,,,,,256,0,9,,,,,2,,,71,100
63232,note_off,,,,,64,0,8,,,,,1,,,79,100
63232,note_off,,,,,256,0,13,,,,,6,,,59,100
63232,note_off,,,,,0,0,13,,,,,6,,,62,100
63264,note_on,,,,,32,0,8,,,,,1,,,81,100
63296,note_off,,,,,128,0,10,,,,,3,,,67,100
63328,note_off,,,,,64,0,8,,,,,1,,,81,100
63360,note_on,,,,,128,0,13,,,,,6,,,64,100
63360,note_on,,,,,0,0,13,,,,,6,,,67,100
63360,note_on,,,,,128,0,9,,,,,2,,,73,100
63360,note_on,,,,,128,0,14,,,,,6,,,45,100
63360,note_on,,,,,64,0,10,,,,,3,,,64,100
63360,note_on,,,,,32,0,8,,,,,1,,,79,100
63360,note_on,,,,,128,0,12,,,,,5,,,33,100
63360,note_on,,,,,128,0,11,,,,,4,,,45,100
63424,note_off,,,,,64,0,8,,,,,1,,,79,100
63456,note_on,,,,,32,0,8,,,,,1,,,83,100
63488,note_off,,,,,128,0,10,,,,,3,,,64,100
63520,note_off,,,,,64,0,8,,,,,1,,,83,100
63552,note_on,,,,,32,0,8,,,,,1,,,81,100
63552,note_on,,,,,64,0,10,,,,,3,,,69,100
63616,note_off,,,,,256,0,11,,,,,4,,,45,100
63616,note_off,,,,,0,0,13,,,,,6,,,67,100
63616,note_off,,,,,256,0,12,,,,,5,,,33,100
63616,note_off,,,,,256,0,14,,,,,6,,,45,100
63616,note_off,,,,,256,0,9,,,,,2,,,73,100
63616,note_off,,,,,256,0,13,,,,,6,,,64,100
63616,note_off,,,,,64,0,8,,,,,1,,,81,100
63648,note_on,,,,,32,0,8,,,,,1,,,79,100
63680,note_off,,,,,128,0,10,,,,,3,,,69,100
63712,note_off,,,,,64,0,8,,,,,1,,,79,100
63744,note_on,,,,,0,0,13,,,,,6,,,66,100
63744,note_on,,,,,128,0,13,,,,,6,,,69,100
63744,note_on,,,,,128,0,11,,,,,4,,,50,100
63744,note_on,,,,,128,0,9,,,,,2,,,74,100
63744,note_on,,,,,128,0,12,,,,,5,,,38,100
63744,note_on,,,,,128,0,14,,,,,6,,,50,100
63744,note_on,,,,,32,0,8,,,,,1,,,78,100
63744,note_on,,,,,64,0,10,,,,,3,,,69,100
63808,note_off,,,,,64,0,8,,,,,1,,,78,100
63808,note_off,,,,,64,0,9,,,,,2,,,74,100
63840,note_on,,,,,32,0,8,,,,,1,,,76,100
63840,note_on,,,,,32,0,9,,,,,2,,,73,100
63904,note_off,,,,,64,0,9,,,,,2,,,73,100
63904,note_off,,,,,64,0,8,,,,,1,,,76,100
63936,note_on,,,,,32,0,9,,,,,2,,,74,100
63936,note_on,,,,,32,0,8,,,,,1,,,78,100
64000,note_off,,,,,64,0,8,,,,,1,,,78,100
64000,note_off,,,,,64,0,9,,,,,2,,,74,100
64032,note_on,,,,,32,0,8,,,,,1,,,79,100
64032,note_on,,,,,32,0,9,,,,,2,,,76,100
64096,note_off,,,,,64,0,8,,,,,1,,,79,100
64096,note_off,,,,,64,0,9,,,,,2,,,76,100
64128,note_on,,,,,32,0,9,,,,,2,,,74,100
64128,note_off,,,,,384,0,13,,,,,6,,,69,100
64128,note_off,,,,,384,0,11,,,,,4,,,50,100
64128,note_off,,,,,384,0,14,,,,,6,,,50,100
64128,note_off,,,,,384,0,10,,,,,3,,,69,100
64128,note_off,,,,,0,0,13,,,,,6,,,66,100
64128,note_off,,,,,384,0,12,,,,,5,,,38,100
64128,note_on,,,,,32,0,8,,,,,1,,,78,100
64192,note_off,,,,,64,0,8,,,,,1,,,78,100
64192,note_off,,,,,64,0,9,,,,,2,,,74,100
64224,note_on,,,,,32,0,8,,,,,1,,,81,100
64224,note_on,,,,,32,0,9,,,,,2,,,78,100
64288,note_off,,,,,64,0,9,,,,,2,,,78,100
64288,note_off,,,,,64,0,8,,,,,1,,,81,100
64320,note_on,,,,,192,0,11,,,,,4,,,50,100
64320,note_on,,,,,192,0,14,,,,,6,,,50,100
64320,note_on,,,,,0,0,13,,,,,6,,,69,100
64320,note_on,,,,,192,0,12,,,,,5,,,38,100
64320,note_on,,,,,32,0,9,,,,,2,,,76,100
64320,note_on,,,,,32,0,8,,,,,1,,,79,100
64320,note_on,,,,,192,0,10,,,,,3,,,69,100
64320,note_on,,,,,192,0,13,,,,,6,,,66,100
64384,note_off,,,,,64,0,9,,,,,2,,,76,100
64384,note_off,,,,,64,0,8,,,,,1,,,79,100
64416,note_on,,,,,32,0,9,,,,,2,,,74,100
64416,note_on,,,,,32,0,8,,,,,1,,,78,100
64448,note_off,,,,,128,0,13,,,,,6,,,66,100
64448,note_off,,,,,128,0,12,,,,,5,,,38,100
64448,note_off,,,,,128,0,10,,,,,3,,,69,100
64448,note_off,,,,,128,0,11,,,,,4,,,50,100
64448,note_off,,,,,128,0,14,,,,,6,,,50,100
64448,note_off,,,,,0,0,13,,,,,6,,,69,100
64480,note_off,,,,,64,0,8,,,,,1,,,78,100
64480,note_off,,,,,64,0,9,,,,,2,,,74,100
64512,note_on,,,,,64,0,14,,,,,6,,,45,90
64512,note_on,,,,,32,0,8,,,,,1,,,76,100
64512,note_on,,,,,64,0,11,,,,,4,,,45,90
64512,note_on,,,,,2560,0,7,,,,,0,,,76,100
64512,note_on,,,,,32,0,9,,,,,2,,,73,100
64512,note_on,,,,,64,0,10,,,,,3,,,69,100
64512,note_on,,,,,64,0,12,,,,,5,,,33,90
64604,note_off,,,,,92,0,7,,,,,0,,,76,100
64608,note_on,,,,,4,0,7,,,,,0,,,74,100
64700,note_off,,,,,92,0,7,,,,,0,,,74,100
64704,note_on,,,,,4,0,7,,,,,0,,,73,100
64768,note_off,,,,,256,0,8,,,,,1,,,76,100
64768,note_off,,,,,256,0,9,,,,,2,,,73,100
64768,note_off,,,,,64,0,7,,,,,0,,,73,100
64768,note_off,,,,,256,0,10,,,,,3,,,69,100
64800,note_on,,,,,32,0,7,,,,,0,,,76,100
64864,note_off,,,,,64,0,7,,,,,0,,,76,100
64896,note_on,,,,,32,0,7,,,,,0,,,78,100
64960,note_off,,,,,64,0,7,,,,,0,,,78,100
64992,note_on,,,,,32,0,7,,,,,0,,,76,100
65056,note_off,,,,,64,0,7,,,,,0,,,76,100
65088,note_on,,,,,32,0,7,,,,,0,,,74,100
65152,note_off,,,,,64,0,7,,,,,0,,,74,100
65184,note_on,,,,,32,0,7,,,,,0,,,78,100
65248,note_off,,,,,64,0,7,,,,,0,,,78,100
65280,note_on,,,,,32,0,7,,,,,0,,,76,100
65372,note_off,,,,,92,0,7,,,,,0,,,76,100
65376,note_on,,,,,4,0,7,,,,,0,,,74,100
65468,note_off,,,,,92,0,7,,,,,0,,,74,100
65472,note_on,,,,,4,0,7,,,,,0,,,73,100
65536,note_off,,,,,64,0,7,,,,,0,,,73,100
65568,note_on,,,,,32,0,7,,,,,0,,,76,100
65632,note_off,,,,,64,0,7,,,,,0,,,76,100
65664,note_on,,,,,32,0,7,,,,,0,,,78,100
65728,note_off,,,,,64,0,7,,,,,0,,,78,100
65760,note_on,,,,,32,0,7,,,,,0,,,76,100
65824,note_off,,,,,64,0,7,,,,,0,,,76,100
65856,note_on,,,,,32,0,7,,,,,0,,,74,100
65920,note_off,,,,,64,0,7,,,,,0,,,74,100
65952,note_on,,,,,32,0,7,,,,,0,,,78,100
66016,note_off,,,,,64,0,7,,,,,0,,,78,100
66048,note_on,,,,,32,0,7,,,,,0,,,76,100
66140,note_off,,,,,92,0,7,,,,,0,,,76,100
66144,note_on,,,,,4,0,7,,,,,0,,,74,100
66236,note_off,,,,,92,0,7,,,,,0,,,74,100
66240,note_on,,,,,4,0,7,,,,,0,,,73,100
66304,note_off,,,,,64,0,7,,,,,0,,,73,100
66336,note_on,,,,,32,0,7,,,,,0,,,76,100
66400,note_off,,,,,64,0,7,,,,,0,,,76,100
66432,note_on,,,,,32,0,7,,,,,0,,,74,100
66496,note_off,,,,,64,0,7,,,,,0,,,74,100
66528,note_on,,,,,32,0,7,,,,,0,,,73,100
66592,note_off,,,,,64,0,7,,,,,0,,,73,100
66624,note_on,,,,,32,0,7,,,,,0,,,71,100
66688,note_off,,,,,64,0,7,,,,,0,,,71,100
66720,note_on,,,,,32,0,7,,,,,0,,,74,100
66784,note_off,,,,,64,0,7,,,,,0,,,74,100
66816,note_on,,,,,32,0,7,,,,,0,,,73,100
66908,note_off,,,,,92,0,7,,,,,0,,,73,100
66912,note_on,,,,,4,0,7,,,,,0,,,71,100
67004,note_off,,,,,92,0,7,,,,,0,,,71,100
67008,note_on,,,,,4,0,7,,,,,0,,,69,100
67072,note_off,,,,,64,0,7,,,,,0,,,69,100
67104,note_on,,,,,32,0,7,,,,,0,,,73,100
67168,note_off,,,,,64,0,7,,,,,0,,,73,100
67200,note_on,,,,,32,0,7,,,,,0,,,74,100
67264,note_off,,,,,64,0,7,,,,,0,,,74,100
67296,note_on,,,,,32,0,7,,,,,0,,,73,100
67360,note_off,,,,,64,0,7,,,,,0,,,73,100
67392,note_on,,,,,32,0,7,,,,,0,,,71,100
67456,note_off,,,,,64,0,7,,,,,0,,,71,100
67488,note_on,,,,,32,0,7,,,,,0,,,74,100
67552,note_off,,,,,64,0,7,,,,,0,,,74,100
67584,note_on,,,,,32,0,7,,,,,0,,,73,100
67676,note_off,,,,,92,0,7,,,,,0,,,73,100
67680,note_on,,,,,4,0,7,,,,,0,,,71,100
67772,note_off,,,,,92,0,7,,,,,0,,,71,100
67776,note_on,,,,,4,0,7,,,,,0,,,69,100
67840,note_off,,,,,64,0,7,,,,,0,,,69,100
67872,note_on,,,,,32,0,7,,,,,0,,,73,100
67936,note_off,,,,,64,0,7,,,,,0,,,73,100
67968,note_on,,,,,32,0,7,,,,,0,,,74,100
68032,note_off,,,,,64,0,7,,,,,0,,,74,100
68064,note_on,,,,,32,0,7,,,,,0,,,73,100
68128,note_off,,,,,64,0,7,,,,,0,,,73,100
68160,note_on,,,,,32,0,7,,,,,0,,,71,100
68224,note_off,,,,,64,0,7,,,,,0,,,71,100
68256,note_on,,,,,32,0,7,,,,,0,,,74,100
68320,note_off,,,,,64,0,7,,,,,0,,,74,100
68352,note_on,,,,,32,0,7,,,,,0,,,76,100
68444,note_off,,,,,92,0,7,,,,,0,,,76,100
68448,note_on,,,,,4,0,7,,,,,0,,,74,100
68540,note_off,,,,,92,0,7,,,,,0,,,74,100
68544,note_on,,,,,4,0,7,,,,,0,,,73,100
68608,note_off,,,,,64,0,7,,,,,0,,,73,100
68640,note_on,,,,,32,0,7,,,,,0,,,74,100
68704,note_off,,,,,64,0,7,,,,,0,,,74,100
68736,note_on,,,,,32,0,7,,,,,0,,,78,100
68800,note_off,,,,,64,0,7,,,,,0,,,78,100
68832,note_on,,,,,32,0,7,,,,,0,,,76,100
68896,note_off,,,,,64,0,7,,,,,0,,,76,100
68928,note_on,,,,,32,0,7,,,,,0,,,74,100
68992,note_off,,,,,64,0,7,,,,,0,,,74,100
69024,note_on,,,,,32,0,7,,,,,0,,,78,100
69088,note_off,,,,,64,0,7,,,,,0,,,78,100
69120,note_on,,,,,32,0,7,,,,,0,,,79,100
69212,note_off,,,,,92,0,7,,,,,0,,,79,100
69216,note_on,,,,,4,0,7,,,,,0,,,78,100
69308,note_off,,,,,92,0,7,,,,,0,,,78,100
69312,note_on,,,,,4,0,7,,,,,0,,,76,100
69376,note_off,,,,,64,0,7,,,,,0,,,76,100
69408,note_on,,,,,32,0,7,,,,,0,,,78,100
69472,note_off,,,,,64,0,7,,,,,0,,,78,100
69504,note_on,,,,,32,0,7,,,,,0,,,79,100
69568,note_off,,,,,64,0,7,,,,,0,,,79,100
69600,note_on,,,,,32,0,7,,,,,0,,,78,100
69664,note_off,,,,,64,0,7,,,,,0,,,78,100
69696,note_on,,,,,32,0,7,,,,,0,,,79,100
69760,note_off,,,,,64,0,7,,,,,0,,,79,100
69792,note_on,,,,,32,0,7,,,,,0,,,76,100
69856,note_off,,,,,64,0,7,,,,,0,,,76,100
69888,note_on,,,,,32,0,7,,,,,0,,,81,100
69980,note_off,,,,,92,0,7,,,,,0,,,81,100
69984,note_on,,,,,4,0,7,,,,,0,,,79,100
70076,note_off,,,,,92,0,7,,,,,0,,,79,100
70080,note_on,,,,,4,0,7,,,,,0,,,81,100
70172,note_off,,,,,92,0,7,,,,,0,,,81,100
70176,note_on,,,,,4,0,7,,,,,0,,,83,100
70240,note_off,,,,,64,0,7,,,,,0,,,83,100
70272,note_on,,,,,32,0,7,,,,,0,,,81,100
70364,note_off,,,,,92,0,7,,,,,0,,,81,100
70368,note_on,,,,,4,0,7,,,,,0,,,79,100
70460,note_off,,,,,92,0,7,,,,,0,,,79,100
70464,note_on,,,,,4,0,7,,,,,0,,,81,100
70556,note_off,,,,,92,0,7,,,,,0,,,81,100
70560,note_on,,,,,4,0,7,,,,,0,,,83,100
70624,note_off,,,,,64,0,7,,,,,0,,,83,100
70656,note_on,,,,,32,0,7,,,,,0,,,81,100
70748,note_off,,,,,92,0,7,,,,,0,,,81,100
70752,note_on,,,,,4,0,7,,,,,0,,,79,100
70844,note_off,,,,,92,0,7,,,,,0,,,79,100
70848,note_on,,,,,4,0,7,,,,,0,,,81,100
70940,note_off,,,,,92,0,7,,,,,0,,,81,100
70944,note_on,,,,,4,0,7,,,,,0,,,83,100
71008,note_off,,,,,64,0,7,,,,,0,,,83,100
71040,note_on,,,,,32,0,7,,,,,0,,,81,100
71132,note_off,,,,,92,0,7,,,,,0,,,81,100
71136,note_on,,,,,4,0,7,,,,,0,,,79,100
71228,note_off,,,,,92,0,7,,,,,0,,,79,100
71232,note_on,,,,,4,0,7,,,,,0,,,81,100
71324,note_off,,,,,92,0,7,,,,,0,,,81,100
71328,note_on,,,,,4,0,7,,,,,0,,,83,100
71392,note_off,,,,,64,0,7,,,,,0,,,83,100
71424,note_on,,,,,32,0,7,,,,,0,,,81,100
71516,note_off,,,,,92,0,7,,,,,0,,,81,100
71520,note_on,,,,,4,0,7,,,,,0,,,79,100
71612,note_off,,,,,92,0,7,,,,,0,,,79,100
71616,note_on,,,,,4,0,7,,,,,0,,,81,100
71708,note_off,,,,,92,0,7,,,,,0,,,81,100
71712,note_on,,,,,4,0,7,,,,,0,,,83,100
71776,note_off,,,,,64,0,7,,,,,0,,,83,100
71808,note_on,,,,,32,0,7,,,,,0,,,81,100
71900,note_off,,,,,92,0,7,,,,,0,,,81,100
71904,note_on,,,,,4,0,7,,,,,0,,,79,100
71996,note_off,,,,,92,0,7,,,,,0,,,79,100
72000,note_on,,,,,4,0,7,,,,,0,,,81,100
72092,note_off,,,,,92,0,7,,,,,0,,,81,100
72096,note_on,,,,,4,0,7,,,,,0,,,83,100
72160,note_off,,,,,64,0,7,,,,,0,,,83,100
72192,note_on,,,,,32,0,7,,,,,0,,,81,100
72320,note_off,,,,,128,0,7,,,,,0,,,81,100
72384,note_on,,,,,64,0,7,,,,,0,,,79,100
72448,note_off,,,,,64,0,7,,,,,0,,,79,100
72480,note_on,,,,,32,0,7,,,,,0,,,78,100
72544,note_off,,,,,64,0,7,,,,,0,,,78,100
72576,note_on,,,,,32,0,7,,,,,0,,,76,100
72640,note_off,,,,,64,0,7,,,,,0,,,76,100
72672,note_on,,,,,32,0,7,,,,,0,,,74,100
72736,note_off,,,,,64,0,7,,,,,0,,,74,100
72768,note_on,,,,,32,0,7,,,,,0,,,73,100
72832,note_off,,,,,64,0,7,,,,,0,,,73,100
72864,note_on,,,,,32,0,7,,,,,0,,,71,100
72928,note_off,,,,,64,0,7,,,,,0,,,71,100
72960,note_off,,,,,8448,0,11,,,,,4,,,45,100
72960,note_on,,,,,32,0,7,,,,,0,,,73,100
72960,note_off,,,,,8448,0,14,,,,,6,,,45,100
72960,note_off,,,,,8448,0,12,,,,,5,,,33,100
73088,note_off,,,,,128,0,7,,,,,0,,,73,100
73152,note_on,,,,,64,0,7,,,,,0,,,69,100
73280,note_off,,,,,128,0,7,,,,,0,,,69,100
73344,note_on,,,,,8576,0,9,,,,,2,,,74,100
73344,note_on,,,,,384,0,14,,,,,6,,,50,100
73344,note_on,,,,,384,0,12,,,,,5,,,38,100
73344,note_on,,,,,8576,0,8,,,,,1,,,78,100
73344,note_on,,,,,384,0,11,,,,,4,,,50,100
73344,note_on,,,,,8576,0,10,,,,,3,,,69,100
73344,note_on,,,,,0,0,13,,,,,6,,,66,100
73344,note_on,,,,,8896,0,13,,,,,6,,,69,100
73472,note_off,,,,,128,0,10,,,,,3,,,69,100
73472,note_off,,,,,0,0,13,,,,,6,,,66,100
73472,note_off,,,,,128,0,13,,,,,6,,,69,100
73472,note_off,,,,,128,0,11,,,,,4,,,50,100
73472,note_off,,,,,128,0,8,,,,,1,,,78,100
73472,note_off,,,,,128,0,14,,,,,6,,,50,100
73472,note_off,,,,,128,0,9,,,,,2,,,74,100
73472,note_off,,,,,128,0,12,,,,,5,,,38,100
73536,note_on,,,,,0,0,13,,,,,6,,,66,100
73536,note_on,,,,,64,0,9,,,,,2,,,74,100
73536,note_on,,,,,64,0,11,,,,,4,,,50,100
73536,note_on,,,,,64,0,12,,,,,5,,,38,100
73536,note_on,,,,,64,0,13,,,,,6,,,69,100
73536,note_on,,,,,64,0,8,,,,,1,,,78,100
73536,note_on,,,,,64,0,14,,,,,6,,,50,100
73536,note_on,,,,,64,0,10,,,,,3,,,69,100
73664,note_off,,,,,128,0,11,,,,,4,,,50,100
73664,note_off,,,,,128,0,12,,,,,5,,,38,100
73664,note_off,,,,,128,0,13,,,,,6,,,69,100
73664,note_off,,,,,128,0,8,,,,,1,,,78,100
73664,note_off,,,,,128,0,9,,,,,2,,,74,100
73664,note_off,,,,,128,0,14,,,,,6,,,50,100
73664,note_off,,,,,0,0,13,,,,,6,,,66,100
73664,note_off,,,,,128,0,10,,,,,3,,,69,100
73728,note_on,,,,,64,0,8,,,,,1,,,76,100
73728,note_on,,,,,64,0,9,,,,,2,,,74,100
73728,note_on,,,,,64,0,11,,,,,4,,,57,100
73728,note_on,,,,,64,0,12,,,,,5,,,45,100
73728,note_on,,,,,64,0,14,,,,,6,,,57,100
73728,note_on,,,,,0,0,13,,,,,6,,,73,100
73728,note_on,,,,,64,0,13,,,,,6,,,64,100
73728,note_on,,,,,64,0,10,,,,,3,,,69,100
73856,note_off,,,,,128,0,8,,,,,1,,,76,100
73856,note_off,,,,,128,0,9,,,,,2,,,74,100
73856,note_off,,,,,128,0,14,,,,,6,,,57,100
73856,note_off,,,,,128,0,12,,,,,5,,,45,100
73856,note_off,,,,,0,0,13,,,,,6,,,73,100
73856,note_off,,,,,128,0,11,,,,,4,,,57,100
73856,note_off,,,,,128,0,13,,,,,6,,,64,100
73856,note_off,,,,,128,0,10,,,,,3,,,69,100
73920,note_on,,,,,64,0,11,,,,,4,,,57,100
73920,note_on,,,,,64,0,8,,,,,1,,,76,100
73920,note_on,,,,,64,0,12,,,,,5,,,45,100
73920,note_on,,,,,0,0,13,,,,,6,,,73,100
73920,note_on,,,,,64,0,10,,,,,3,,,69,100
73920,note_on,,,,,64,0,13,,,,,6,,,64,100
73920,note_on,,,,,64,0,9,,,,,2,,,73,100
73920,note_on,,,,,64,0,14,,,,,6,,,57,100
73984,note_off,,,,,64,0,9,,,,,2,,,73,100
73984,note_off,,,,,64,0,8,,,,,1,,,76,100
74016,note_on,,,,,32,0,9,,,,,2,,,71,100
74016,note_on,,,,,32,0,8,,,,,1,,,74,100
74048,note_off,,,,,128,0,14,,,,,6,,,57,100
74048,note_off,,,,,128,0,11,,,,,4,,,57,100
74048,note_off,,,,,0,0,13,,,,,6,,,73,100
74048,note_off,,,,,128,0,12,,,,,5,,,45,100
74048,note_off,,,,,128,0,10,,,,,3,,,69,100
74048,note_off,,,,,128,0,13,,,,,6,,,64,100
74080,note_off,,,,,64,0,9,,,,,2,,,71,100
74080,note_off,,,,,64,0,8,,,,,1,,,74,100
74112,note_on,,,,,64,0,12,,,,,5,,,33,100
74112,note_on,,,,,64,0,11,,,,,4,,,45,100
74112,note_on,,,,,32,0,8,,,,,1,,,76,100
74112,note_on,,,,,32,0,9,,,,,2,,,73,100
74112,note_on,,,,,64,0,13,,,,,6,,,61,100
74112,note_on,,,,,0,0,13,,,,,6,,,64,100
74112,note_on,,,,,64,0,14,,,,,6,,,45,100
74112,note_on,,,,,64,0,10,,,,,3,,,69,100
74240,note_off,,,,,128,0,11,,,,,4,,,45,100
74240,note_off,,,,,128,0,13,,,,,6,,,61,100
74240,note_off,,,,,0,0,13,,,,,6,,,64,100
74240,note_off,,,,,128,0,9,,,,,2,,,73,100
74240,note_off,,,,,128,0,12,,,,,5,,,33,100
74240,note_off,,,,,128,0,10,,,,,3,,,69,100
74240,note_off,,,,,128,0,14,,,,,6,,,45,100
74240,note_off,,,,,128,0,8,,,,,1,,,76,100
74304,note_on,,,,,64,0,14,,,,,6,,,45,100
74304,note_on,,,,,64,0,9,,,,,2,,,73,100
74304,note_on,,,,,64,0,8,,,,,1,,,76,100
74304,note_on,,,,,64,0,11,,,,,4,,,45,100
74304,note_on,,,,,64,0,13,,,,,6,,,61,100
74304,note_on,,,,,0,0,13,,,,,6,,,64,100
74304,note_on,,,,,64,0,12,,,,,5,,,33,100
74304,note_on,,,,,64,0,10,,,,,3,,,69,100
74432,note_off,,,,,128,0,10,,,,,3,,,69,100
74432,note_off,,,,,128,0,11,,,,,4,,,45,100
74432,note_off,,,,,128,0,9,,,,,2,,,73,100
74432,note_off,,,,,128,0,12,,,,,5,,,33,100
74432,note_off,,,,,128,0,8,,,,,1,,,76,100
74432,note_off,,,,,128,0,13,,,,,6,,,61,100
74432,note_off,,,,,0,0,13,,,,,6,,,64,100
74432,note_off,,,,,128,0,14,,,,,6,,,45,100
74496,note_on,,,,,64,0,14,,,,,6,,,50,100
74496,note_on,,,,,64,0,11,,,,,4,,,50,100
74496,note_on,,,,,64,0,10,,,,,3,,,69,100
74496,note_on,,,,,64,0,9,,,,,2,,,74,100
74496,note_on,,,,,0,0,13,,,,,6,,,69,100
74496,note_on,,,,,64,0,13,,,,,6,,,66,100
74496,note_on,,,,,64,0,12,,,,,5,,,38,100
74496,note_on,,,,,64,0,8,,,,,1,,,74,100
74624,note_off,,,,,128,0,8,,,,,1,,,74,100
74688,note_on,,,,,64,0,8,,,,,1,,,81,100
74752,note_off,,,,,64,0,8,,,,,1,,,81,100
74752,note_off,,,,,256,0,12,,,,,5,,,38,100
74752,note_off,,,,,256,0,14,,,,,6,,,50,100
74752,note_off,,,,,256,0,11,,,,,4,,,50,100
74752,note_off,,,,,256,0,13,,,,,6,,,66,100
74752,note_off,,,,,0,0,13,,,,,6,,,69,100
74752,note_off,,,,,256,0,9,,,,,2,,,74,100
74752,note_off,,,,,256,0,10,,,,,3,,,69,100
74784,note_on,,,,,32,0,8,,,,,1,,,79,100
74848,note_off,,,,,64,0,8,,,,,1,,,79,100
74880,note_on,,,,,32,0,8,,,,,1,,,81,100
75008,note_off,,,,,128,0,8,,,,,1,,,81,100
75072,note_on,,,,,64,0,8,,,,,1,,,81,100
75200,note_off,,,,,128,0,8,,,,,1,,,81,100
75264,note_on,,,,,512,0,10,,,,,3,,,69,100
75264,note_on,,,,,512,0,12,,,,,5,,,45,100
75264,note_on,,,,,0,0,13,,,,,6,,,73,100
75264,note_on,,,,,512,0,13,,,,,6,,,64,100
75264,note_on,,,,,64,0,8,,,,,1,,,76,100
75264,note_on,,,,,512,0,11,,,,,4,,,57,100
75264,note_on,,,,,512,0,14,,,,,6,,,57,100
75264,note_on,,,,,512,0,9,,,,,2,,,73,100
75392,note_off,,,,,128,0,8,,,,,1,,,76,100
75456,note_on,,,,,64,0,8,,,,,1,,,81,100
75520,note_off,,,,,256,0,14,,,,,6,,,57,100
75520,note_off,,,,,256,0,9,,,,,2,,,73,100
75520,note_off,,,,,64,0,8,,,,,1,,,81,100
75520,note_off,,,,,256,0,13,,,,,6,,,64,100
75520,note_off,,,,,256,0,11,,,,,4,,,57,100
75520,note_off,,,,,256,0,10,,,,,3,,,69,100
75520,note_off,,,,,256,0,12,,,,,5,,,45,100
75520,note_off,,,,,0,0,13,,,,,6,,,73,100
75552,note_on,,,,,32,0,8,,,,,1,,,79,100
75616,note_off,,,,,64,0,8,,,,,1,,,79,100
75648,note_on,,,,,32,0,8,,,,,1,,,81,100
75776,note_off,,,,,128,0,8,,,,,1,,,81,100
75840,note_on,,,,,64,0,8,,,,,1,,,81,100
75968,note_off,,,,,128,0,8,,,,,1,,,81,100
76032,note_on,,,,,512,0,10,,,,,3,,,69,100
76032,note_on,,,,,512,0,9,,,,,2,,,74,100
76032,note_on,,,,,0,0,13,,,,,6,,,69,100
76032,note_on,,,,,512,0,13,,,,,6,,,66,100
76032,note_on,,,,,512,0,14,,,,,6,,,50,100
76032,note_on,,,,,64,0,8,,,,,1,,,78,100
76032,note_on,,,,,512,0,11,,,,,4,,,50,100
76032,note_on,,,,,512,0,12,,,,,5,,,38,100
76160,note_off,,,,,128,0,8,,,,,1,,,78,100
76224,note_on,,,,,64,0,8,,,,,1,,,81,100
76288,note_off,,,,,256,0,10,,,,,3,,,69,100
76288,note_off,,,,,256,0,9,,,,,2,,,74,100
76288,note_off,,,,,64,0,8,,,,,1,,,81,100
76288,note_off,,,,,256,0,13,,,,,6,,,66,100
76288,note_off,,,,,256,0,12,,,,,5,,,38,100
76288,note_off,,,,,256,0,14,,,,,6,,,50,100
76288,note_off,,,,,0,0,13,,,,,6,,,69,100
76288,note_off,,,,,256,0,11,,,,,4,,,50,100
76320,note_on,,,,,32,0,8,,,,,1,,,79,100
76384,note_off,,,,,64,0,8,,,,,1,,,79,100
76416,note_on,,,,,32,0,8,,,,,1,,,81,100
76544,note_off,,,,,128,0,8,,,,,1,,,81,100
76608,note_on,,,,,64,0,8,,,,,1,,,81,100
76736,note_off,,,,,128,0,8,,,,,1,,,81,100
76800,note_on,,,,,512,0,12,,,,,5,,,45,100
76800,note_on,,,,,512,0,11,,,,,4,,,57,100
76800,note_on,,,,,512,0,14,,,,,6,,,57,100
76800,note_on,,,,,64,0,8,,,,,1,,,76,100
76800,note_on,,,,,512,0,9,,,,,2,,,73,100
76800,note_on,,,,,0,0,13,,,,,6,,,73,100
76800,note_on,,,,,512,0,13,,,,,6,,,64,100
76800,note_on,,,,,512,0,10,,,,,3,,,69,100
76928,note_off,,,,,128,0,8,,,,,1,,,76,100
76992,note_on,,,,,64,0,8,,,,,1,,,81,100
77056,note_off,,,,,256,0,9,,,,,2,,,73,100
77056,note_off,,,,,256,0,12,,,,,5,,,45,100
77056,note_off,,,,,256,0,10,,,,,3,,,69,100
77056,note_off,,,,,256,0,11,,,,,4,,,57,100
77056,note_off,,,,,256,0,14,,,,,6,,,57,100
77056,note_off,,,,,0,0,13,,,,,6,,,73,100
77056,note_off,,,,,64,0,8,,,,,1,,,81,100
77056,note_off,,,,,256,0,13,,,,,6,,,64,100
77088,note_on,,,,,32,0,8,,,,,1,,,79,100
77152,note_off,,,,,64,0,8,,,,,1,,,79,100
77184,note_on,,,,,32,0,8,,,,,1,,,81,100
77312,note_off,,,,,128,0,8,,,,,1,,,81,100
77376,note_on,,,,,64,0,8,,,,,1,,,81,100
77504,note_off,,,,,128,0,8,,,,,1,,,81,100
77568,note_on,,,,,512,0,14,,,,,6,,,50,100
77568,note_on,,,,,512,0,10,,,,,3,,,69,100
77568,set_tempo,,,,,68352,1,0,,612244,,,,,,,
77568,note_on,,,,,512,0,9,,,,,2,,,74,100
77568,note_on,,,,,512,0,12,,,,,5,,,38,100
77568,note_on,,,,,64,0,8,,,,,1,,,78,100
77568,note_on,,,,,512,0,11,,,,,4,,,50,100
77568,note_on,,,,,0,0,13,,,,,6,,,69,100
77568,note_on,,,,,512,0,13,,,,,6,,,66,100
77632,set_tempo,,,,,64,1,0,,618556,,,,,,,
77632,note_off,,,,,64,0,8,,,,,1,,,78,100
77664,note_on,,,,,32,0,8,,,,,1,,,81,100
77700,set_tempo,,,,,68,1,0,,625000,,,,,,,
77728,note_off,,,,,64,0,8,,,,,1,,,81,100
77760,note_on,,,,,32,0,8,,,,,1,,,79,100
77768,set_tempo,,,,,68,1,0,,631578,,,,,,,
77824,note_off,,,,,256,0,12,,,,,5,,,38,100
77824,note_off,,,,,256,0,13,,,,,6,,,66,100
77824,note_off,,,,,0,0,13,,,,,6,,,69,100
77824,note_off,,,,,256,0,9,,,,,2,,,74,100
77824,note_off,,,,,256,0,11,,,,,4,,,50,100
77824,note_off,,,,,64,0,8,,,,,1,,,79,100
77824,note_off,,,,,256,0,14,,,,,6,,,50,100
77824,note_off,,,,,256,0,10,,,,,3,,,69,100
77836,set_tempo,,,,,68,1,0,,638297,,,,,,,
77856,note_on,,,,,32,0,8,,,,,1,,,78,100
77904,set_tempo,,,,,68,1,0,,645161,,,,,,,
77920,note_off,,,,,64,0,8,,,,,1,,,78,100
77952,note_on,,,,,128,0,14,,,,,6,,,55,100
77952,note_on,,,,,128,0,10,,,,,3,,,71,100
77952,note_on,,,,,128,0,13,,,,,6,,,74,100
77952,note_on,,,,,0,0,13,,,,,6,,,71,100
77952,note_on,,,,,128,0,11,,,,,4,,,55,100
77952,note_on,,,,,128,0,12,,,,,5,,,43,100
77952,note_on,,,,,32,0,8,,,,,1,,,76,100
77968,set_tempo,,,,,64,1,0,,652173,,,,,,,
78016,note_off,,,,,64,0,8,,,,,1,,,76,100
78036,set_tempo,,,,,68,1,0,,659340,,,,,,,
78048,note_on,,,,,32,0,8,,,,,1,,,74,100
78104,set_tempo,,,,,68,1,0,,666666,,,,,,,
78112,note_off,,,,,64,0,8,,,,,1,,,74,100
78144,note_on,,,,,32,0,8,,,,,1,,,73,100
78144,note_on,,,,,320,0,9,,,,,2,,,76,100
78172,set_tempo,,,,,68,1,0,,674157,,,,,,,
78208,note_off,,,,,256,0,12,,,,,5,,,43,100
78208,note_off,,,,,256,0,10,,,,,3,,,71,100
78208,note_off,,,,,256,0,14,,,,,6,,,55,100
78208,note_off,,,,,256,0,11,,,,,4,,,55,100
78208,note_off,,,,,256,0,13,,,,,6,,,74,100
78208,note_off,,,,,64,0,8,,,,,1,,,73,100
78208,note_off,,,,,0,0,13,,,,,6,,,71,100
78240,note_on,,,,,32,0,8,,,,,1,,,71,100
78240,set_tempo,,,,,68,1,0,,681818,,,,,,,
78272,note_off,,,,,128,0,9,,,,,2,,,76,100
78304,note_off,,,,,64,0,8,,,,,1,,,71,100
78304,set_tempo,,,,,64,1,0,,689655,,,,,,,
78336,note_on,,,,,128,0,14,,,,,6,,,57,100
78336,note_on,,,,,128,0,12,,,,,5,,,45,100
78336,note_on,,,,,128,0,10,,,,,3,,,64,100
78336,note_on,,,,,32,0,8,,,,,1,,,69,100
78336,note_on,,,,,64,0,9,,,,,2,,,73,100
78336,note_on,,,,,128,0,11,,,,,4,,,57,100
78336,note_on,,,,,128,0,13,,,,,6,,,76,100
78336,note_on,,,,,0,0,13,,,,,6,,,73,100
78372,set_tempo,,,,,68,1,0,,697674,,,,,,,
78440,set_tempo,,,,,68,1,0,,705882,,,,,,,
78464,note_off,,,,,128,0,9,,,,,2,,,73,100
78464,note_off,,,,,128,0,14,,,,,6,,,57,100
78464,note_off,,,,,128,0,10,,,,,3,,,64,100
78464,note_off,,,,,128,0,12,,,,,5,,,45,100
78464,note_off,,,,,0,0,13,,,,,6,,,73,100
78464,note_off,,,,,128,0,13,,,,,6,,,76,100
78464,note_off,,,,,128,0,11,,,,,4,,,57,100
78464,note_off,,,,,128,0,8,,,,,1,,,69,100
78508,set_tempo,,,,,68,1,0,,714285,,,,,,,
78528,note_on,,,,,64,0,11,,,,,4,,,54,100
78528,note_on,,,,,64,0,12,,,,,5,,,42,100
78528,note_on,,,,,64,0,14,,,,,6,,,54,100
78528,note_on,,,,,64,0,9,,,,,2,,,69,100
78528,note_on,,,,,64,0,8,,,,,1,,,74,100
78528,note_on,,,,,64,0,13,,,,,6,,,73,100
78528,note_on,,,,,64,0,10,,,,,3,,,66,100
78576,set_tempo,,,,,68,1,0,,722891,,,,,,,
78592,note_off,,,,,64,0,13,,,,,6,,,73,100
78592,note_off,,,,,64,0,12,,,,,5,,,42,100
78592,note_off,,,,,64,0,14,,,,,6,,,54,100
78592,note_off,,,,,64,0,11,,,,,4,,,54,100
78624,note_on,,,,,32,0,14,,,,,6,,,55,100
78624,note_on,,,,,32,0,12,,,,,5,,,43,100
78624,note_on,,,,,32,0,13,,,,,6,,,74,100
78624,note_on,,,,,32,0,11,,,,,4,,,55,100
78640,set_tempo,,,,,64,1,0,,731707,,,,,,,
78656,note_off,,,,,128,0,10,,,,,3,,,66,100
78656,note_off,,,,,128,0,9,,,,,2,,,69,100
78656,note_off,,,,,128,0,8,,,,,1,,,74,100
78688,note_off,,,,,64,0,14,,,,,6,,,55,100
78688,note_off,,,,,64,0,12,,,,,5,,,43,100
78688,note_off,,,,,64,0,13,,,,,6,,,74,100
78688,note_off,,,,,64,0,11,,,,,4,,,55,100
78708,set_tempo,,,,,68,1,0,,740740,,,,,,,
78720,note_on,,,,,32,0,13,,,,,6,,,74,100
78720,note_on,,,,,32,0,11,,,,,4,,,57,100
78720,note_on,,,,,0,0,13,,,,,6,,,76,100
78720,note_on,,,,,32,0,12,,,,,5,,,45,100
78720,note_on,,,,,64,0,10,,,,,3,,,64,100
78720,note_on,,,,,32,0,14,,,,,6,,,57,100
78720,note_on,,,,,64,0,8,,,,,1,,,69,100
78720,note_on,,,,,64,0,9,,,,,2,,,64,100
78776,set_tempo,,,,,68,1,0,,750000,,,,,,,
78844,set_tempo,,,,,68,1,0,,759493,,,,,,,
78848,note_off,,,,,128,0,8,,,,,1,,,69,100
78848,note_off,,,,,128,0,13,,,,,6,,,74,100
78848,note_off,,,,,128,0,11,,,,,4,,,57,100
78848,note_off,,,,,128,0,12,,,,,5,,,45,100
78848,note_off,,,,,128,0,9,,,,,2,,,64,100
78848,note_off,,,,,128,0,14,,,,,6,,,57,100
78848,note_off,,,,,0,0,13,,,,,6,,,76,100
78912,note_on,,,,,64,0,14,,,,,6,,,45,100
78912,note_on,,,,,64,0,8,,,,,1,,,73,100
78912,note_on,,,,,64,0,9,,,,,2,,,69,100
78912,set_tempo,,,,,68,1,0,,769230,,,,,,,
78912,note_on,,,,,64,0,11,,,,,4,,,45,100
78912,note_on,,,,,0,0,13,,,,,6,,,73,100
78912,note_on,,,,,64,0,12,,,,,5,,,33,100
78912,note_on,,,,,64,0,13,,,,,6,,,64,100
78976,note_off,,,,,256,0,10,,,,,3,,,64,100
79040,note_off,,,,,128,0,9,,,,,2,,,69,100
79040,note_off,,,,,128,0,14,,,,,6,,,45,100
79040,note_off,,,,,128,0,8,,,,,1,,,73,100
79040,note_off,,,,,128,0,12,,,,,5,,,33,100
79040,note_off,,,,,0,0,13,,,,,6,,,73,100
79040,note_off,,,,,128,0,11,,,,,4,,,45,100
79040,note_off,,,,,128,0,13,,,,,6,,,64,100
79104,note_on,,,,,128,0,10,,,,,3,,,62,100
79104,note_on,,,,,64,0,14,,,,,6,,,38,100
79104,note_on,,,,,64,0,9,,,,,2,,,66,100
79104,note_on,,,,,64,0,12,,,,,5,,,38,100
79104,note_on,,,,,64,0,11,,,,,4,,,38,100
79104,note_on,,,,,64,0,8,,,,,1,,,74,100
79132,note_on,,,,,92,0,13,,,,,6,,,62,100
79164,note_on,,,,,32,0,13,,,,,6,,,66,100
79196,note_on,,,,,32,0,13,,,,,6,,,69,100
79488,end_of_track,,,,,0,1,0,,,,,,,,,
79488,set_tempo,,,,,576,1,0,,1333333,,,,,,,
79616,end_of_track,,,,,0,1,11,,,,,,,,,
79616,note_off,,,,,512,0,14,,,,,6,,,38,100
79616,end_of_track,,,,,0,1,12,,,,,,,,,
79616,note_off,,,,,512,0,12,,,,,5,,,38,100
79616,end_of_track,,,,,0,1,10,,,,,,,,,
79616,note_off,,,,,512,0,10,,,,,3,,,62,100
79616,note_off,,,,,512,0,8,,,,,1,,,74,100
79616,end_of_track,,,,,0,1,8,,,,,,,,,
79616,end_of_track,,,,,0,1,9,,,,,,,,,
79616,note_off,,,,,512,0,9,,,,,2,,,66,100
79616,note_off,,,,,512,0,11,,,,,4,,,38,100
79616,end_of_track,,,,,0,1,14,,,,,,,,,
79644,note_off,,,,,448,0,13,,,,,6,,,62,100
79676,note_off,,,,,32,0,13,,,,,6,,,66,100
79708,note_off,,,,,32,0,13,,,,,6,,,69,100
79708,end_of_track,,,,,0,1,13,,,,,,,,,
80640,program_change,,,,,7360,0,7,,,,,0,40,,,
80640,end_of_track,,,,,0,1,7,,,,,,,,,
