tick,type,numerator,denominator,clocks_per_click,notated_32nd_notes_per_beat,time,meta,track,data,tempo,control,value,channel,program,note,velocity
0,time_signature,4,4,96,8,0,1,0,,,,,,,,
0,control_change,,,,,0,0,8,,,7,100,0,,,
0,program_change,,,,,0,0,8,,,,,0,40,,
0,control_change,,,,,0,0,8,,,0,0,0,,,
0,track_name,,,,,0,1,8,,,,,,,,
0,end_of_track,,,,,0,1,7,,,,,,,,
0,control_change,,,,,0,0,7,,,91,65,0,,,
0,control_change,,,,,0,0,7,,,10,53,0,,,
0,control_change,,,,,0,0,7,,,7,100,0,,,
0,program_change,,,,,0,0,7,,,,,0,40,,
0,control_change,,,,,0,0,7,,,0,0,0,,,
0,track_name,,,,,0,1,7,,,,,,,,
0,end_of_track,,,,,0,1,6,,,,,,,,
0,control_change,,,,,0,0,6,,,91,65,0,,,
0,control_change,,,,,0,0,6,,,10,53,0,,,
0,control_change,,,,,0,0,8,,,10,53,0,,,
0,control_change,,,,,0,0,6,,,7,100,0,,,
0,control_change,,,,,0,0,6,,,0,0,0,,,
0,track_name,,,,,0,1,6,,,,,,,,
0,end_of_track,,,,,0,1,5,,,,,,,,
0,control_change,,,,,0,0,5,,,91,65,0,,,
0,control_change,,,,,0,0,5,,,10,53,0,,,
0,control_change,,,,,0,0,5,,,7,100,0,,,
0,program_change,,,,,0,0,5,,,,,0,40,,
0,control_change,,,,,0,0,5,,,0,0,0,,,
0,track_name,,,,,0,1,5,,,,,,,,
0,end_of_track,,,,,0,1,4,,,,,,,,
0,control_change,,,,,0,0,4,,,91,65,0,,,
0,control_change,,,,,0,0,4,,,10,53,0,,,
0,control_change,,,,,0,0,4,,,7,100,0,,,
0,program_change,,,,,0,0,4,,,,,0,40,,
0,program_change,,,,,0,0,6,,,,,0,40,,
0,control_change,,,,,0,0,4,,,0,0,0,,,
0,control_change,,,,,0,0,8,,,91,65,0,,,
0,control_change,,,,,0,0,14,,,7,55,5,,,
0,program_change,,,,,0,0,10,,,,,2,48,,
0,control_change,,,,,0,0,10,,,7,95,2,,,
0,control_change,,,,,0,0,10,,,91,64,2,,,
0,track_name,,,,,0,1,11,,,,,,,,
0,control_change,,,,,0,0,11,,,0,0,3,,,
0,program_change,,,,,0,0,11,,,,,3,48,,
0,control_change,,,,,0,0,11,,,7,82,3,,,
0,control_change,,,,,0,0,11,,,10,88,3,,,
0,control_change,,,,,0,0,11,,,91,62,3,,,
0,control_change,,,,,0,0,9,,,91,65,1,,,
0,control_change,,,,,0,0,9,,,10,33,1,,,
0,control_change,,,,,0,0,9,,,7,105,1,,,
0,program_change,,,,,0,0,9,,,,,1,48,,
0,control_change,,,,,0,0,9,,,0,0,1,,,
0,control_change,,,,,0,0,14,,,91,64,5,,,
0,track_name,,,,,0,1,9,,,,,,,,
0,control_change,,,,,0,0,12,,,0,0,4,,,
0,program_change,,,,,0,0,12,,,,,4,48,,
0,control_change,,,,,0,0,12,,,7,77,4,,,
0,control_change,,,,,0,0,12,,,10,97,4,,,
0,control_change,,,,,0,0,12,,,91,62,4,,,
0,control_change,,,,,0,0,10,,,0,0,2,,,
0,track_name,,,,,0,1,13,,,,,,,,
0,control_change,,,,,0,0,13,,,0,0,5,,,
0,program_change,,,,,0,0,13,,,,,5,6,,
0,control_change,,,,,0,0,13,,,7,55,5,,,
0,control_change,,,,,0,0,13,,,91,64,5,,,
0,track_name,,,,,0,1,14,,,,,,,,
0,control_change,,,,,0,0,14,,,0,0,5,,,
0,program_change,,,,,0,0,14,,,,,5,6,,
0,track_name,,,,,0,1,12,,,,,,,,
0,track_name,,,,,0,1,4,,,,,,,,
0,track_name,,,,,0,1,10,,,,,,,,
0,program_change,,,,,0,0,3,,,,,0,40,,
0,set_tempo,,,,,0,1,0,,600000,,,,,,
0,sequencer_specific,,,,,0,1,0,"(0, 0, 119, 14, 1)",,,,,,,
0,sequencer_specific,,,,,0,1,0,"(0, 0, 65)",,,,,,,
0,end_of_track,,,,,0,1,1,,,,,,,,
0,track_name,,,,,0,1,2,,,,,,,,
0,track_name,,,,,0,1,1,,,,,,,,
0,track_name,,,,,0,1,3,,,,,,,,
0,control_change,,,,,0,0,3,,,0,0,0,,,
0,control_change,,,,,0,0,3,,,7,100,0,,,
0,control_change,,,,,0,0,3,,,10,53,0,,,
0,control_change,,,,,0,0,3,,,91,65,0,,,
0,end_of_track,,,,,0,1,2,,,,,,,,
0,end_of_track,,,,,0,1,3,,,,,,,,
1344,note_on,,,,,1344,0,9,,,,,1,,76,100
1472,note_off,,,,,128,0,9,,,,,1,,76,100
1536,note_on,,,,,64,0,9,,,,,1,,81,100
1664,note_off,,,,,128,0,9,,,,,1,,81,100
1728,note_on,,,,,1728,0,12,,,,,4,,45,100
1728,note_on,,,,,1728,0,14,,,,,5,,57,100
1728,note_on,,,,,0,0,13,,,,,5,,64,100
1728,note_on,,,,,1728,0,11,,,,,3,,57,100
1728,note_on,,,,,64,0,9,,,,,1,,81,100
1728,note_on,,,,,1728,0,13,,,,,5,,72,100
1856,note_off,,,,,128,0,12,,,,,4,,45,100
1856,note_off,,,,,0,0,13,,,,,5,,64,100
1856,note_off,,,,,128,0,11,,,,,3,,57,100
1856,note_off,,,,,128,0,14,,,,,5,,57,100
1856,note_off,,,,,128,0,9,,,,,1,,81,100
1856,note_off,,,,,128,0,13,,,,,5,,72,100
1920,note_on,,,,,64,0,11,,,,,3,,60,100
1920,note_on,,,,,64,0,14,,,,,5,,60,100
1920,note_on,,,,,64,0,12,,,,,4,,48,100
1920,note_on,,,,,64,0,9,,,,,1,,81,100
1920,note_on,,,,,64,0,13,,,,,5,,69,100
1920,note_on,,,,,0,0,13,,,,,5,,76,100
2048,note_off,,,,,128,0,14,,,,,5,,60,100
2048,note_off,,,,,128,0,11,,,,,3,,60,100
2048,note_off,,,,,128,0,13,,,,,5,,69,100
2048,note_off,,,,,0,0,13,,,,,5,,76,100
2048,note_off,,,,,128,0,9,,,,,1,,81,100
2048,note_off,,,,,128,0,12,,,,,4,,48,100
2112,note_on,,,,,64,0,12,,,,,4,,45,100
2112,note_on,,,,,64,0,9,,,,,1,,81,100
2112,note_on,,,,,0,0,13,,,,,5,,72,100
2112,note_on,,,,,64,0,14,,,,,5,,57,100
2112,note_on,,,,,2112,0,10,,,,,2,,76,100
2112,note_on,,,,,64,0,11,,,,,3,,57,100
2112,note_on,,,,,64,0,13,,,,,5,,64,100
2240,note_off,,,,,128,0,13,,,,,5,,64,100
2240,note_off,,,,,0,0,13,,,,,5,,72,100
2240,note_off,,,,,128,0,11,,,,,3,,57,100
2240,note_off,,,,,128,0,9,,,,,1,,81,100
2240,note_off,,,,,128,0,12,,,,,4,,45,100
2240,note_off,,,,,128,0,10,,,,,2,,76,100
2240,note_off,,,,,128,0,14,,,,,5,,57,100
2304,note_on,,,,,64,0,10,,,,,2,,72,100
2304,note_on,,,,,64,0,9,,,,,1,,81,100
2432,note_off,,,,,128,0,9,,,,,1,,81,100
2432,note_off,,,,,128,0,10,,,,,2,,72,100
2496,note_on,,,,,0,0,13,,,,,5,,64,100
2496,note_on,,,,,256,0,13,,,,,5,,72,100
2496,note_on,,,,,256,0,14,,,,,5,,57,100
2496,note_on,,,,,256,0,12,,,,,4,,45,100
2496,note_on,,,,,64,0,9,,,,,1,,84,100
2496,note_on,,,,,256,0,11,,,,,3,,57,100
2496,note_on,,,,,64,0,10,,,,,2,,69,100
2560,note_off,,,,,64,0,9,,,,,1,,84,100
2592,note_on,,,,,32,0,9,,,,,1,,83,100
2624,note_off,,,,,128,0,10,,,,,2,,69,100
2624,note_off,,,,,128,0,11,,,,,3,,57,100
2624,note_off,,,,,0,0,13,,,,,5,,64,100
2624,note_off,,,,,128,0,12,,,,,4,,45,100
2624,note_off,,,,,128,0,14,,,,,5,,57,100
2624,note_off,,,,,128,0,13,,,,,5,,72,100
2656,note_off,,,,,64,0,9,,,,,1,,83,100
2688,note_on,,,,,64,0,11,,,,,3,,60,100
2688,note_on,,,,,32,0,9,,,,,1,,81,100
2688,note_on,,,,,64,0,12,,,,,4,,48,100
2688,note_on,,,,,0,0,13,,,,,5,,76,100
2688,note_on,,,,,64,0,14,,,,,5,,60,100
2688,note_on,,,,,64,0,13,,,,,5,,69,100
2816,note_off,,,,,128,0,9,,,,,1,,81,100
2816,note_off,,,,,128,0,14,,,,,5,,60,100
2816,note_off,,,,,128,0,12,,,,,4,,48,100
2816,note_off,,,,,128,0,11,,,,,3,,60,100
2816,note_off,,,,,128,0,13,,,,,5,,69,100
2816,note_off,,,,,0,0,13,,,,,5,,76,100
2880,note_on,,,,,64,0,14,,,,,5,,57,100
2880,note_on,,,,,64,0,12,,,,,4,,45,100
2880,note_on,,,,,64,0,9,,,,,1,,84,100
2880,note_on,,,,,0,0,13,,,,,5,,72,100
2880,note_on,,,,,256,0,10,,,,,2,,76,100
2880,note_on,,,,,64,0,11,,,,,3,,57,100
2880,note_on,,,,,64,0,13,,,,,5,,64,100
2944,note_off,,,,,64,0,9,,,,,1,,84,100
2976,note_on,,,,,32,0,9,,,,,1,,83,100
3008,note_off,,,,,128,0,14,,,,,5,,57,100
3008,note_off,,,,,128,0,12,,,,,4,,45,100
3008,note_off,,,,,128,0,10,,,,,2,,76,100
3008,note_off,,,,,128,0,11,,,,,3,,57,100
3008,note_off,,,,,128,0,13,,,,,5,,64,100
3008,note_off,,,,,0,0,13,,,,,5,,72,100
3040,note_off,,,,,64,0,9,,,,,1,,83,100
3072,note_on,,,,,64,0,10,,,,,2,,72,100
3072,note_on,,,,,32,0,9,,,,,1,,81,100
3200,note_off,,,,,128,0,10,,,,,2,,72,100
3200,note_off,,,,,128,0,9,,,,,1,,81,100
3264,note_on,,,,,64,0,9,,,,,1,,84,100
3264,note_on,,,,,256,0,13,,,,,5,,72,100
3264,note_on,,,,,0,0,13,,,,,5,,64,100
3264,note_on,,,,,256,0,11,,,,,3,,57,100
3264,note_on,,,,,256,0,14,,,,,5,,57,100
3264,note_on,,,,,64,0,10,,,,,2,,69,100
3264,note_on,,,,,256,0,12,,,,,4,,45,100
3328,note_off,,,,,64,0,9,,,,,1,,84,100
3360,note_on,,,,,32,0,9,,,,,1,,83,100
3392,note_off,,,,,128,0,10,,,,,2,,69,100
3392,note_off,,,,,128,0,13,,,,,5,,72,100
3392,note_off,,,,,0,0,13,,,,,5,,64,100
3392,note_off,,,,,128,0,14,,,,,5,,57,100
3392,note_off,,,,,128,0,11,,,,,3,,57,100
3392,note_off,,,,,128,0,12,,,,,4,,45,100
3424,note_off,,,,,64,0,9,,,,,1,,83,100
3456,note_on,,,,,64,0,11,,,,,3,,60,100
3456,note_on,,,,,64,0,13,,,,,5,,69,100
3456,note_on,,,,,0,0,13,,,,,5,,76,100
3456,note_on,,,,,32,0,9,,,,,1,,81,100
3456,note_on,,,,,64,0,14,,,,,5,,60,100
3456,note_on,,,,,64,0,12,,,,,4,,48,100
3584,note_off,,,,,128,0,9,,,,,1,,81,100
3584,note_off,,,,,128,0,14,,,,,5,,60,100
3584,note_off,,,,,128,0,12,,,,,4,,48,100
3584,note_off,,,,,128,0,11,,,,,3,,60,100
3584,note_off,,,,,128,0,13,,,,,5,,69,100
3584,note_off,,,,,0,0,13,,,,,5,,76,100
3648,note_on,,,,,256,0,10,,,,,2,,72,99
3648,note_on,,,,,0,0,13,,,,,5,,72,100
3648,note_on,,,,,64,0,13,,,,,5,,64,100
3648,note_on,,,,,64,0,9,,,,,1,,79,99
3648,note_on,,,,,64,0,12,,,,,4,,45,99
3648,note_on,,,,,64,0,14,,,,,5,,57,100
3648,note_on,,,,,64,0,11,,,,,3,,57,99
3712,note_off,,,,,64,0,9,,,,,1,,79,100
3744,note_on,,,,,32,0,9,,,,,1,,77,98
3776,note_off,,,,,128,0,14,,,,,5,,57,100
3776,note_off,,,,,0,0,13,,,,,5,,72,100
3776,note_off,,,,,128,0,13,,,,,5,,64,100
3776,note_off,,,,,128,0,10,,,,,2,,72,100
3776,note_off,,,,,128,0,12,,,,,4,,45,100
3776,note_off,,,,,128,0,11,,,,,3,,57,100
3808,note_off,,,,,64,0,9,,,,,1,,77,100
3840,note_on,,,,,32,0,9,,,,,1,,76,97
3840,note_on,,,,,64,0,10,,,,,2,,69,97
3968,note_off,,,,,128,0,9,,,,,1,,76,100
3968,note_off,,,,,128,0,10,,,,,2,,69,100
4032,note_on,,,,,64,0,10,,,,,2,,64,95
4032,note_on,,,,,256,0,13,,,,,5,,64,100
4032,note_on,,,,,0,0,13,,,,,5,,72,100
4032,note_on,,,,,256,0,14,,,,,5,,57,100
4032,note_on,,,,,64,0,9,,,,,1,,74,95
4032,note_on,,,,,256,0,12,,,,,4,,45,95
4032,note_on,,,,,256,0,11,,,,,3,,57,95
4096,note_off,,,,,64,0,9,,,,,1,,74,100
4128,note_on,,,,,32,0,9,,,,,1,,72,94
4160,note_off,,,,,0,0,13,,,,,5,,72,100
4160,note_off,,,,,128,0,13,,,,,5,,64,100
4160,note_off,,,,,128,0,11,,,,,3,,57,100
4160,note_off,,,,,128,0,14,,,,,5,,57,100
4160,note_off,,,,,128,0,10,,,,,2,,64,100
4160,note_off,,,,,128,0,12,,,,,4,,45,100
4192,note_off,,,,,64,0,9,,,,,1,,72,100
4224,note_on,,,,,64,0,14,,,,,5,,56,100
4224,note_on,,,,,64,0,12,,,,,4,,44,93
4224,note_on,,,,,64,0,13,,,,,5,,64,100
4224,note_on,,,,,0,0,13,,,,,5,,71,100
4224,note_on,,,,,64,0,11,,,,,3,,56,93
4224,note_on,,,,,32,0,9,,,,,1,,71,93
4352,note_off,,,,,128,0,14,,,,,5,,56,100
4352,note_off,,,,,128,0,11,,,,,3,,56,100
4352,note_off,,,,,128,0,9,,,,,1,,71,100
4352,note_off,,,,,0,0,13,,,,,5,,71,100
4352,note_off,,,,,128,0,12,,,,,4,,44,100
4352,note_off,,,,,128,0,13,,,,,5,,64,100
4416,note_on,,,,,64,0,9,,,,,1,,76,91
4416,note_on,,,,,64,0,14,,,,,5,,52,100
4416,note_on,,,,,64,0,11,,,,,3,,52,91
4416,note_on,,,,,64,0,13,,,,,5,,59,100
4416,note_on,,,,,0,0,13,,,,,5,,68,100
4416,note_on,,,,,256,0,10,,,,,2,,68,91
4416,note_on,,,,,64,0,12,,,,,4,,40,91
4544,note_off,,,,,0,0,13,,,,,5,,68,100
4544,note_off,,,,,128,0,10,,,,,2,,68,100
4544,note_off,,,,,128,0,12,,,,,4,,40,100
4544,note_off,,,,,128,0,13,,,,,5,,59,100
4544,note_off,,,,,128,0,9,,,,,1,,76,100
4544,note_off,,,,,128,0,11,,,,,3,,52,100
4544,note_off,,,,,128,0,14,,,,,5,,52,100
4608,note_on,,,,,64,0,13,,,,,5,,60,100
4608,note_on,,,,,64,0,10,,,,,2,,64,89
4608,note_on,,,,,64,0,12,,,,,4,,33,89
4608,note_on,,,,,64,0,11,,,,,3,,45,89
4608,note_on,,,,,64,0,9,,,,,1,,72,89
4608,note_on,,,,,64,0,14,,,,,5,,45,100
4608,note_on,,,,,0,0,13,,,,,5,,69,100
4736,note_off,,,,,128,0,10,,,,,2,,64,100
4736,note_off,,,,,0,0,13,,,,,5,,69,100
4736,note_off,,,,,128,0,14,,,,,5,,45,100
4736,note_off,,,,,128,0,12,,,,,4,,33,100
4736,note_off,,,,,128,0,9,,,,,1,,72,100
4736,note_off,,,,,128,0,11,,,,,3,,45,100
4736,note_off,,,,,128,0,13,,,,,5,,60,100
4800,note_on,,,,,64,0,12,,,,,4,,45,87
4800,note_on,,,,,64,0,14,,,,,5,,57,100
4800,note_on,,,,,64,0,10,,,,,2,,60,87
4800,note_on,,,,,64,0,9,,,,,1,,69,87
4800,note_on,,,,,64,0,13,,,,,5,,64,100
4800,note_on,,,,,0,0,13,,,,,5,,72,100
4800,note_on,,,,,64,0,11,,,,,3,,57,87
4928,note_off,,,,,128,0,12,,,,,4,,45,100
4928,note_off,,,,,128,0,10,,,,,2,,60,100
4928,note_off,,,,,128,0,13,,,,,5,,64,100
4928,note_off,,,,,0,0,13,,,,,5,,72,100
4928,note_off,,,,,128,0,11,,,,,3,,57,100
4928,note_off,,,,,128,0,9,,,,,1,,69,100
4928,note_off,,,,,128,0,14,,,,,5,,57,100
4992,note_on,,,,,64,0,13,,,,,5,,69,100
4992,note_on,,,,,0,0,13,,,,,5,,76,100
4992,note_on,,,,,64,0,9,,,,,1,,69,86
4992,note_on,,,,,64,0,14,,,,,5,,60,100
4992,note_on,,,,,64,0,12,,,,,4,,48,86
4992,note_on,,,,,64,0,11,,,,,3,,60,86
5120,note_off,,,,,128,0,9,,,,,1,,69,100
5120,note_off,,,,,128,0,12,,,,,4,,48,100
5120,note_off,,,,,0,0,13,,,,,5,,76,100
5120,note_off,,,,,128,0,11,,,,,3,,60,100
5120,note_off,,,,,128,0,13,,,,,5,,69,100
5120,note_off,,,,,128,0,14,,,,,5,,60,100
5184,note_on,,,,,256,0,10,,,,,2,,69,85
5184,note_on,,,,,64,0,12,,,,,4,,45,85
5184,note_on,,,,,64,0,9,,,,,1,,76,85
5184,note_on,,,,,64,0,13,,,,,5,,64,100
5184,note_on,,,,,64,0,11,,,,,3,,57,85
5184,note_on,,,,,0,0,13,,,,,5,,72,100
5184,note_on,,,,,64,0,14,,,,,5,,57,100
5312,note_off,,,,,128,0,12,,,,,4,,45,100
5312,note_off,,,,,128,0,13,,,,,5,,64,100
5312,note_off,,,,,0,0,13,,,,,5,,72,100
5312,note_off,,,,,128,0,11,,,,,3,,57,100
5312,note_off,,,,,128,0,9,,,,,1,,76,100
5312,note_off,,,,,128,0,14,,,,,5,,57,100
5312,note_off,,,,,128,0,10,,,,,2,,69,100
5376,note_on,,,,,64,0,9,,,,,1,,81,92
5376,note_on,,,,,64,0,10,,,,,2,,73,92
5504,note_off,,,,,128,0,10,,,,,2,,73,100
5504,note_off,,,,,128,0,9,,,,,1,,81,100
5568,note_on,,,,,256,0,14,,,,,5,,61,100
5568,note_on,,,,,64,0,10,,,,,2,,76,99
5568,note_on,,,,,256,0,11,,,,,3,,61,99
5568,note_on,,,,,256,0,12,,,,,4,,49,99
5568,note_on,,,,,64,0,9,,,,,1,,81,99
5568,note_on,,,,,0,0,13,,,,,5,,69,100
5568,note_on,,,,,256,0,13,,,,,5,,64,100
5696,note_off,,,,,128,0,10,,,,,2,,76,100
5696,note_off,,,,,128,0,14,,,,,5,,61,100
5696,note_off,,,,,128,0,11,,,,,3,,61,100
5696,note_off,,,,,128,0,12,,,,,4,,49,100
5696,note_off,,,,,128,0,9,,,,,1,,81,100
5696,note_off,,,,,0,0,13,,,,,5,,69,100
5696,note_off,,,,,128,0,13,,,,,5,,64,100
5760,note_on,,,,,64,0,13,,,,,5,,57,100
5760,note_on,,,,,64,0,11,,,,,3,,49,100
5760,note_on,,,,,0,0,13,,,,,5,,64,100
5760,note_on,,,,,64,0,12,,,,,4,,37,100
5760,note_on,,,,,64,0,9,,,,,1,,81,100
5760,note_on,,,,,64,0,14,,,,,5,,49,100
5888,note_off,,,,,128,0,14,,,,,5,,49,100
5888,note_off,,,,,128,0,13,,,,,5,,57,100
5888,note_off,,,,,128,0,11,,,,,3,,49,100
5888,note_off,,,,,128,0,9,,,,,1,,81,100
5888,note_off,,,,,0,0,13,,,,,5,,64,100
5888,note_off,,,,,128,0,12,,,,,4,,37,100
5952,note_on,,,,,64,0,9,,,,,1,,81,100
5952,note_on,,,,,64,0,14,,,,,5,,45,100
5952,note_on,,,,,64,0,11,,,,,3,,45,100
5952,note_on,,,,,64,0,12,,,,,4,,33,100
5952,note_on,,,,,0,0,13,,,,,5,,61,100
5952,note_on,,,,,256,0,10,,,,,2,,64,100
5952,note_on,,,,,64,0,13,,,,,5,,64,100
6080,note_off,,,,,128,0,11,,,,,3,,45,100
6080,note_off,,,,,128,0,14,,,,,5,,45,100
6080,note_off,,,,,128,0,10,,,,,2,,64,100
6080,note_off,,,,,128,0,9,,,,,1,,81,100
6080,note_off,,,,,0,0,13,,,,,5,,61,100
6080,note_off,,,,,128,0,12,,,,,4,,33,100
6080,note_off,,,,,128,0,13,,,,,5,,64,100
6144,note_on,,,,,64,0,9,,,,,1,,81,100
6144,note_on,,,,,64,0,10,,,,,2,,65,100
6208,note_off,,,,,64,0,9,,,,,1,,81,100
6240,note_on,,,,,32,0,9,,,,,1,,79,98
6272,note_off,,,,,128,0,10,,,,,2,,65,100
6304,note_off,,,,,64,0,9,,,,,1,,79,100
6336,note_on,,,,,256,0,14,,,,,5,,62,100
6336,note_on,,,,,64,0,10,,,,,2,,69,96
6336,note_on,,,,,0,0,13,,,,,5,,69,100
6336,note_on,,,,,32,0,9,,,,,1,,77,96
6336,note_on,,,,,256,0,11,,,,,3,,62,96
6336,note_on,,,,,256,0,13,,,,,5,,65,100
6336,note_on,,,,,256,0,12,,,,,4,,50,96
6400,note_off,,,,,64,0,9,,,,,1,,77,100
6432,note_on,,,,,32,0,9,,,,,1,,76,94
6464,note_off,,,,,128,0,14,,,,,5,,62,100
6464,note_off,,,,,128,0,13,,,,,5,,65,100
6464,note_off,,,,,0,0,13,,,,,5,,69,100
6464,note_off,,,,,128,0,11,,,,,3,,62,100
6464,note_off,,,,,128,0,10,,,,,2,,69,100
6464,note_off,,,,,128,0,12,,,,,4,,50,100
6496,note_off,,,,,64,0,9,,,,,1,,76,100
6528,note_on,,,,,0,0,13,,,,,5,,65,100
6528,note_on,,,,,64,0,13,,,,,5,,57,100
6528,note_on,,,,,64,0,14,,,,,5,,50,100
6528,note_on,,,,,64,0,12,,,,,4,,38,92
6528,note_on,,,,,64,0,11,,,,,3,,50,92
6528,note_on,,,,,32,0,9,,,,,1,,77,92
6656,note_off,,,,,0,0,13,,,,,5,,65,100
6656,note_off,,,,,128,0,13,,,,,5,,57,100
6656,note_off,,,,,128,0,9,,,,,1,,77,100
6656,note_off,,,,,128,0,11,,,,,3,,50,100
6656,note_off,,,,,128,0,14,,,,,5,,50,100
6656,note_off,,,,,128,0,12,,,,,4,,38,100
6720,note_on,,,,,64,0,9,,,,,1,,74,88
6720,note_on,,,,,64,0,12,,,,,4,,50,88
6720,note_on,,,,,64,0,13,,,,,5,,69,100
6720,note_on,,,,,64,0,11,,,,,3,,62,88
6720,note_on,,,,,0,0,13,,,,,5,,65,100
6720,note_on,,,,,64,0,14,,,,,5,,62,100
6720,note_on,,,,,256,0,10,,,,,2,,69,88
6848,note_off,,,,,128,0,11,,,,,3,,62,100
6848,note_off,,,,,128,0,10,,,,,2,,69,100
6848,note_off,,,,,0,0,13,,,,,5,,65,100
6848,note_off,,,,,128,0,13,,,,,5,,69,100
6848,note_off,,,,,128,0,14,,,,,5,,62,100
6848,note_off,,,,,128,0,12,,,,,4,,50,100
6848,note_off,,,,,128,0,9,,,,,1,,74,100
6912,note_on,,,,,64,0,9,,,,,1,,79,85
6912,note_on,,,,,64,0,10,,,,,2,,71,85
7040,note_off,,,,,128,0,10,,,,,2,,71,100
7040,note_off,,,,,128,0,9,,,,,1,,79,100
7104,note_on,,,,,64,0,10,,,,,2,,74,87
7104,note_on,,,,,256,0,11,,,,,3,,59,87
7104,note_on,,,,,0,0,13,,,,,5,,67,100
7104,note_on,,,,,256,0,13,,,,,5,,62,100
7104,note_on,,,,,256,0,14,,,,,5,,59,100
7104,note_on,,,,,256,0,12,,,,,4,,47,87
7104,note_on,,,,,64,0,9,,,,,1,,79,87
7232,note_off,,,,,128,0,9,,,,,1,,79,100
7232,note_off,,,,,128,0,11,,,,,3,,59,100
7232,note_off,,,,,128,0,13,,,,,5,,62,100
7232,note_off,,,,,0,0,13,,,,,5,,67,100
7232,note_off,,,,,128,0,12,,,,,4,,47,100
7232,note_off,,,,,128,0,10,,,,,2,,74,100
7232,note_off,,,,,128,0,14,,,,,5,,59,100
7296,note_on,,,,,64,0,13,,,,,5,,55,100
7296,note_on,,,,,0,0,13,,,,,5,,62,100
7296,note_on,,,,,64,0,9,,,,,1,,79,90
7296,note_on,,,,,64,0,14,,,,,5,,47,100
7296,note_on,,,,,64,0,11,,,,,3,,47,90
7296,note_on,,,,,64,0,12,,,,,4,,35,90
7424,note_off,,,,,128,0,9,,,,,1,,79,100
7424,note_off,,,,,128,0,11,,,,,3,,47,100
7424,note_off,,,,,128,0,12,,,,,4,,35,100
7424,note_off,,,,,0,0,13,,,,,5,,62,100
7424,note_off,,,,,128,0,14,,,,,5,,47,100
7424,note_off,,,,,128,0,13,,,,,5,,55,100
7488,note_on,,,,,64,0,12,,,,,4,,43,93
7488,note_on,,,,,64,0,13,,,,,5,,62,100
7488,note_on,,,,,64,0,9,,,,,1,,79,93
7488,note_on,,,,,0,0,13,,,,,5,,59,100
7488,note_on,,,,,64,0,14,,,,,5,,43,100
7488,note_on,,,,,256,0,10,,,,,2,,62,93
7488,note_on,,,,,64,0,11,,,,,3,,43,93
7616,note_off,,,,,128,0,12,,,,,4,,43,100
7616,note_off,,,,,128,0,9,,,,,1,,79,100
7616,note_off,,,,,128,0,14,,,,,5,,43,100
7616,note_off,,,,,128,0,13,,,,,5,,62,100
7616,note_off,,,,,0,0,13,,,,,5,,59,100
7616,note_off,,,,,128,0,11,,,,,3,,43,100
7616,note_off,,,,,128,0,10,,,,,2,,62,100
7680,note_on,,,,,64,0,9,,,,,1,,79,96
7680,note_on,,,,,64,0,10,,,,,2,,64,96
7744,note_off,,,,,64,0,9,,,,,1,,79,100
7776,note_on,,,,,32,0,9,,,,,1,,77,95
7808,note_off,,,,,128,0,10,,,,,2,,64,100
7840,note_off,,,,,64,0,9,,,,,1,,77,100
7872,note_on,,,,,32,0,9,,,,,1,,76,93
7872,note_on,,,,,256,0,14,,,,,5,,60,100
7872,note_on,,,,,256,0,13,,,,,5,,64,100
7872,note_on,,,,,0,0,13,,,,,5,,67,100
7872,note_on,,,,,256,0,11,,,,,3,,60,93
7872,note_on,,,,,64,0,10,,,,,2,,67,93
7872,note_on,,,,,256,0,12,,,,,4,,48,93
7936,note_off,,,,,64,0,9,,,,,1,,76,100
7968,note_on,,,,,32,0,9,,,,,1,,74,91
8000,note_off,,,,,0,0,13,,,,,5,,67,100
8000,note_off,,,,,128,0,11,,,,,3,,60,100
8000,note_off,,,,,128,0,10,,,,,2,,67,100
8000,note_off,,,,,128,0,14,,,,,5,,60,100
8000,note_off,,,,,128,0,13,,,,,5,,64,100
8000,note_off,,,,,128,0,12,,,,,4,,48,100
8032,note_off,,,,,64,0,9,,,,,1,,74,100
8064,note_on,,,,,64,0,12,,,,,4,,36,89
8064,note_on,,,,,64,0,13,,,,,5,,55,100
8064,note_on,,,,,32,0,9,,,,,1,,76,89
8064,note_on,,,,,64,0,11,,,,,3,,48,89
8064,note_on,,,,,0,0,13,,,,,5,,64,100
8064,note_on,,,,,64,0,14,,,,,5,,48,100
8192,note_off,,,,,128,0,9,,,,,1,,76,100
8192,note_off,,,,,128,0,12,,,,,4,,36,100
8192,note_off,,,,,0,0,13,,,,,5,,64,100
8192,note_off,,,,,128,0,13,,,,,5,,55,100
8192,note_off,,,,,128,0,14,,,,,5,,48,100
8192,note_off,,,,,128,0,11,,,,,3,,48,100
8256,note_on,,,,,64,0,14,,,,,5,,60,100
8256,note_on,,,,,64,0,9,,,,,1,,72,85
8256,note_on,,,,,0,0,13,,,,,5,,64,100
8256,note_on,,,,,64,0,13,,,,,5,,67,100
8256,note_on,,,,,64,0,12,,,,,4,,48,85
8256,note_on,,,,,256,0,10,,,,,2,,67,85
8256,note_on,,,,,64,0,11,,,,,3,,60,85
8384,note_off,,,,,128,0,9,,,,,1,,72,100
8384,note_off,,,,,128,0,10,,,,,2,,67,100
8384,note_off,,,,,128,0,12,,,,,4,,48,100
8384,note_off,,,,,128,0,13,,,,,5,,67,100
8384,note_off,,,,,0,0,13,,,,,5,,64,100
8384,note_off,,,,,128,0,14,,,,,5,,60,100
8384,note_off,,,,,128,0,11,,,,,3,,60,100
8448,note_on,,,,,64,0,9,,,,,1,,77,82
8448,note_on,,,,,64,0,10,,,,,2,,69,82
8576,note_off,,,,,128,0,9,,,,,1,,77,100
8576,note_off,,,,,128,0,10,,,,,2,,69,100
8640,note_on,,,,,256,0,11,,,,,3,,57,84
8640,note_on,,,,,0,0,13,,,,,5,,65,100
8640,note_on,,,,,256,0,12,,,,,4,,45,84
8640,note_on,,,,,256,0,13,,,,,5,,60,100
8640,note_on,,,,,256,0,14,,,,,5,,57,100
8640,note_on,,,,,64,0,10,,,,,2,,72,84
8640,note_on,,,,,64,0,9,,,,,1,,77,84
8768,note_off,,,,,0,0,13,,,,,5,,65,100
8768,note_off,,,,,128,0,13,,,,,5,,60,100
8768,note_off,,,,,128,0,14,,,,,5,,57,100
8768,note_off,,,,,128,0,11,,,,,3,,57,100
8768,note_off,,,,,128,0,10,,,,,2,,72,100
8768,note_off,,,,,128,0,12,,,,,4,,45,100
8768,note_off,,,,,128,0,9,,,,,1,,77,100
8832,note_on,,,,,64,0,13,,,,,5,,53,100
8832,note_on,,,,,64,0,11,,,,,3,,45,87
8832,note_on,,,,,64,0,12,,,,,4,,33,87
8832,note_on,,,,,64,0,14,,,,,5,,45,100
8832,note_on,,,,,0,0,13,,,,,5,,60,100
8832,note_on,,,,,64,0,9,,,,,1,,77,87
8960,note_off,,,,,0,0,13,,,,,5,,60,100
8960,note_off,,,,,128,0,13,,,,,5,,53,100
8960,note_off,,,,,128,0,9,,,,,1,,77,100
8960,note_off,,,,,128,0,12,,,,,4,,33,100
8960,note_off,,,,,128,0,11,,,,,3,,45,100
8960,note_off,,,,,128,0,14,,,,,5,,45,100
9024,note_on,,,,,64,0,13,,,,,5,,60,100
9024,note_on,,,,,64,0,12,,,,,4,,41,90
9024,note_on,,,,,64,0,9,,,,,1,,77,90
9024,note_on,,,,,64,0,11,,,,,3,,41,90
9024,note_on,,,,,0,0,13,,,,,5,,57,100
9024,note_on,,,,,256,0,10,,,,,2,,60,90
9024,note_on,,,,,64,0,14,,,,,5,,41,100
9152,note_off,,,,,128,0,13,,,,,5,,60,100
9152,note_off,,,,,128,0,9,,,,,1,,77,100
9152,note_off,,,,,128,0,14,,,,,5,,41,100
9152,note_off,,,,,128,0,11,,,,,3,,41,100
9152,note_off,,,,,0,0,13,,,,,5,,57,100
9152,note_off,,,,,128,0,10,,,,,2,,60,100
9152,note_off,,,,,128,0,12,,,,,4,,41,100
9216,note_on,,,,,64,0,9,,,,,1,,77,93
9216,note_on,,,,,64,0,10,,,,,2,,62,93
9280,note_off,,,,,64,0,9,,,,,1,,77,100
9312,note_on,,,,,32,0,9,,,,,1,,76,92
9344,note_off,,,,,128,0,10,,,,,2,,62,100
9376,note_off,,,,,64,0,9,,,,,1,,76,100
9408,note_on,,,,,32,0,9,,,,,1,,74,90
9408,note_on,,,,,64,0,10,,,,,2,,65,90
9408,note_on,,,,,256,0,13,,,,,5,,62,100
9408,note_on,,,,,256,0,11,,,,,3,,59,90
9408,note_on,,,,,256,0,14,,,,,5,,59,100
9408,note_on,,,,,0,0,13,,,,,5,,65,100
9408,note_on,,,,,256,0,12,,,,,4,,47,90
9472,note_off,,,,,64,0,9,,,,,1,,74,100
9504,note_on,,,,,32,0,9,,,,,1,,72,88
9536,note_off,,,,,128,0,11,,,,,3,,59,100
9536,note_off,,,,,128,0,12,,,,,4,,47,100
9536,note_off,,,,,128,0,14,,,,,5,,59,100
9536,note_off,,,,,128,0,10,,,,,2,,65,100
9536,note_off,,,,,128,0,13,,,,,5,,62,100
9536,note_off,,,,,0,0,13,,,,,5,,65,100
9568,note_off,,,,,64,0,9,,,,,1,,72,100
9600,note_on,,,,,64,0,11,,,,,3,,47,86
9600,note_on,,,,,64,0,13,,,,,5,,53,100
9600,note_on,,,,,64,0,12,,,,,4,,35,86
9600,note_on,,,,,64,0,14,,,,,5,,47,100
9600,note_on,,,,,32,0,9,,,,,1,,74,86
9600,note_on,,,,,0,0,13,,,,,5,,62,100
9728,note_off,,,,,0,0,13,,,,,5,,62,100
9728,note_off,,,,,128,0,14,,,,,5,,47,100
9728,note_off,,,,,128,0,13,,,,,5,,53,100
9728,note_off,,,,,128,0,11,,,,,3,,47,100
9728,note_off,,,,,128,0,9,,,,,1,,74,100
9728,note_off,,,,,128,0,12,,,,,4,,35,100
9792,note_on,,,,,64,0,12,,,,,4,,47,82
9792,note_on,,,,,64,0,11,,,,,3,,59,82
9792,note_on,,,,,256,0,10,,,,,2,,62,82
9792,note_on,,,,,64,0,13,,,,,5,,65,100
9792,note_on,,,,,64,0,9,,,,,1,,71,82
9792,note_on,,,,,64,0,14,,,,,5,,59,100
9792,note_on,,,,,0,0,13,,,,,5,,62,100
9920,note_off,,,,,128,0,9,,,,,1,,71,100
9920,note_off,,,,,128,0,13,,,,,5,,65,100
9920,note_off,,,,,128,0,11,,,,,3,,59,100
9920,note_off,,,,,128,0,14,,,,,5,,59,100
9920,note_off,,,,,0,0,13,,,,,5,,62,100
9920,note_off,,,,,128,0,12,,,,,4,,47,100
9920,note_off,,,,,128,0,10,,,,,2,,62,100
9984,note_on,,,,,64,0,9,,,,,1,,76,79
9984,note_on,,,,,64,0,10,,,,,2,,68,79
10112,note_off,,,,,128,0,9,,,,,1,,76,100
10112,note_off,,,,,128,0,10,,,,,2,,68,100
10176,note_on,,,,,256,0,11,,,,,3,,56,81
10176,note_on,,,,,0,0,13,,,,,5,,64,100
10176,note_on,,,,,64,0,10,,,,,2,,71,81
10176,note_on,,,,,64,0,9,,,,,1,,76,81
10176,note_on,,,,,256,0,13,,,,,5,,71,100
10176,note_on,,,,,256,0,12,,,,,4,,44,81
10176,note_on,,,,,256,0,14,,,,,5,,56,100
10304,note_off,,,,,128,0,9,,,,,1,,76,100
10304,note_off,,,,,0,0,13,,,,,5,,64,100
10304,note_off,,,,,128,0,13,,,,,5,,71,100
10304,note_off,,,,,128,0,14,,,,,5,,56,100
10304,note_off,,,,,128,0,10,,,,,2,,71,100
10304,note_off,,,,,128,0,12,,,,,4,,44,100
10304,note_off,,,,,128,0,11,,,,,3,,56,100
10368,note_on,,,,,64,0,12,,,,,4,,44,84
10368,note_on,,,,,64,0,9,,,,,1,,76,84
10368,note_on,,,,,64,0,14,,,,,5,,44,100
10368,note_on,,,,,0,0,13,,,,,5,,64,100
10368,note_on,,,,,64,0,11,,,,,3,,44,84
10368,note_on,,,,,64,0,13,,,,,5,,59,100
10496,note_off,,,,,0,0,13,,,,,5,,64,100
10496,note_off,,,,,128,0,13,,,,,5,,59,100
10496,note_off,,,,,128,0,11,,,,,3,,44,100
10496,note_off,,,,,128,0,14,,,,,5,,44,100
10496,note_off,,,,,128,0,12,,,,,4,,44,100
10496,note_off,,,,,128,0,9,,,,,1,,76,100
10560,note_on,,,,,64,0,9,,,,,1,,76,87
10560,note_on,,,,,64,0,11,,,,,3,,40,87
10560,note_on,,,,,64,0,13,,,,,5,,56,100
10560,note_on,,,,,0,0,13,,,,,5,,59,100
10560,note_on,,,,,64,0,12,,,,,4,,40,87
10560,note_on,,,,,256,0,10,,,,,2,,59,87
10560,note_on,,,,,64,0,14,,,,,5,,40,100
10688,note_off,,,,,128,0,10,,,,,2,,59,100
10688,note_off,,,,,128,0,12,,,,,4,,40,100
10688,note_off,,,,,128,0,13,,,,,5,,56,100
10688,note_off,,,,,128,0,11,,,,,3,,40,100
10688,note_off,,,,,128,0,14,,,,,5,,40,100
10688,note_off,,,,,128,0,9,,,,,1,,76,100
10688,note_off,,,,,0,0,13,,,,,5,,59,100
10752,note_on,,,,,64,0,9,,,,,1,,76,90
10752,note_on,,,,,64,0,10,,,,,2,,60,90
10816,note_off,,,,,64,0,9,,,,,1,,76,100
10848,note_on,,,,,32,0,9,,,,,1,,74,89
10880,note_off,,,,,128,0,10,,,,,2,,60,100
10912,note_off,,,,,64,0,9,,,,,1,,74,100
10944,note_on,,,,,0,0,13,,,,,5,,64,100
10944,note_on,,,,,32,0,9,,,,,1,,72,87
10944,note_on,,,,,256,0,14,,,,,5,,57,100
10944,note_on,,,,,256,0,11,,,,,3,,57,87
10944,note_on,,,,,256,0,13,,,,,5,,72,100
10944,note_on,,,,,64,0,10,,,,,2,,64,87
10944,note_on,,,,,256,0,12,,,,,4,,45,87
11008,note_off,,,,,64,0,9,,,,,1,,72,100
11040,note_on,,,,,32,0,9,,,,,1,,71,85
11072,note_off,,,,,128,0,12,,,,,4,,45,100
11072,note_off,,,,,128,0,11,,,,,3,,57,100
11072,note_off,,,,,128,0,13,,,,,5,,72,100
11072,note_off,,,,,0,0,13,,,,,5,,64,100
11072,note_off,,,,,128,0,10,,,,,2,,64,100
11072,note_off,,,,,128,0,14,,,,,5,,57,100
11104,note_off,,,,,64,0,9,,,,,1,,71,100
11136,note_on,,,,,32,0,9,,,,,1,,72,83
11136,note_on,,,,,64,0,12,,,,,4,,33,83
11136,note_on,,,,,64,0,11,,,,,3,,45,83
11136,note_on,,,,,0,0,13,,,,,5,,64,100
11136,note_on,,,,,64,0,13,,,,,5,,60,100
11136,note_on,,,,,64,0,14,,,,,5,,45,100
11264,note_off,,,,,128,0,14,,,,,5,,45,100
11264,note_off,,,,,128,0,9,,,,,1,,72,100
11264,note_off,,,,,128,0,12,,,,,4,,33,100
11264,note_off,,,,,128,0,13,,,,,5,,60,100
11264,note_off,,,,,0,0,13,,,,,5,,64,100
11264,note_off,,,,,128,0,11,,,,,3,,45,100
11328,note_on,,,,,0,0,13,,,,,5,,64,100
11328,note_on,,,,,64,0,12,,,,,4,,45,79
11328,note_on,,,,,64,0,11,,,,,3,,57,79
11328,note_on,,,,,64,0,14,,,,,5,,57,100
11328,note_on,,,,,64,0,13,,,,,5,,72,100
11328,note_on,,,,,64,0,9,,,,,1,,69,79
11328,note_on,,,,,256,0,10,,,,,2,,69,79
11456,note_off,,,,,128,0,11,,,,,3,,57,100
11456,note_off,,,,,128,0,13,,,,,5,,72,100
11456,note_off,,,,,128,0,12,,,,,4,,45,100
11456,note_off,,,,,0,0,13,,,,,5,,64,100
11456,note_off,,,,,128,0,14,,,,,5,,57,100
11456,note_off,,,,,128,0,9,,,,,1,,69,100
11456,note_off,,,,,128,0,10,,,,,2,,69,100
11520,note_on,,,,,64,0,10,,,,,2,,72,85
11616,note_on,,,,,160,0,9,,,,,1,,69,85
11648,note_off,,,,,128,0,10,,,,,2,,72,100
11680,note_off,,,,,64,0,9,,,,,1,,69,100
11712,note_on,,,,,32,0,9,,,,,1,,72,86
11712,note_on,,,,,256,0,12,,,,,4,,45,86
11712,note_on,,,,,256,0,11,,,,,3,,57,86
11712,note_on,,,,,0,0,13,,,,,5,,64,100
11712,note_on,,,,,64,0,10,,,,,2,,69,86
11712,note_on,,,,,256,0,13,,,,,5,,72,100
11712,note_on,,,,,256,0,14,,,,,5,,57,100
11776,note_off,,,,,64,0,9,,,,,1,,72,100
11808,note_on,,,,,32,0,9,,,,,1,,76,87
11840,note_off,,,,,0,0,13,,,,,5,,64,100
11840,note_off,,,,,128,0,13,,,,,5,,72,100
11840,note_off,,,,,128,0,12,,,,,4,,45,100
11840,note_off,,,,,128,0,14,,,,,5,,57,100
11840,note_off,,,,,128,0,10,,,,,2,,69,100
11840,note_off,,,,,128,0,11,,,,,3,,57,100
11872,note_off,,,,,64,0,9,,,,,1,,76,100
11904,note_on,,,,,0,0,13,,,,,5,,76,100
11904,note_on,,,,,64,0,13,,,,,5,,69,100
11904,note_on,,,,,64,0,12,,,,,4,,48,88
11904,note_on,,,,,64,0,11,,,,,3,,60,88
11904,note_on,,,,,32,0,9,,,,,1,,81,88
11904,note_on,,,,,64,0,14,,,,,5,,60,100
12032,note_off,,,,,128,0,14,,,,,5,,60,100
12032,note_off,,,,,128,0,9,,,,,1,,81,100
12032,note_off,,,,,128,0,13,,,,,5,,69,100
12032,note_off,,,,,128,0,11,,,,,3,,60,100
12032,note_off,,,,,128,0,12,,,,,4,,48,100
12032,note_off,,,,,0,0,13,,,,,5,,76,100
12096,note_on,,,,,256,0,10,,,,,2,,69,90
12096,note_on,,,,,64,0,14,,,,,5,,57,100
12096,note_on,,,,,64,0,11,,,,,3,,57,90
12096,note_on,,,,,64,0,9,,,,,1,,81,90
12096,note_on,,,,,64,0,12,,,,,4,,45,90
12096,note_on,,,,,64,0,13,,,,,5,,64,100
12096,note_on,,,,,0,0,13,,,,,5,,72,100
12224,note_off,,,,,128,0,11,,,,,3,,57,100
12224,note_off,,,,,128,0,10,,,,,2,,69,100
12224,note_off,,,,,128,0,13,,,,,5,,64,100
12224,note_off,,,,,128,0,14,,,,,5,,57,100
12224,note_off,,,,,0,0,13,,,,,5,,72,100
12224,note_off,,,,,128,0,12,,,,,4,,45,100
12224,note_off,,,,,128,0,9,,,,,1,,81,100
12288,note_on,,,,,64,0,10,,,,,2,,72,92
12288,note_on,,,,,64,0,9,,,,,1,,81,92
12352,note_off,,,,,64,0,9,,,,,1,,81,100
12384,note_on,,,,,32,0,9,,,,,1,,69,93
12416,note_off,,,,,128,0,10,,,,,2,,72,100
12448,note_off,,,,,64,0,9,,,,,1,,69,100
12480,note_on,,,,,256,0,11,,,,,3,,57,94
12480,note_on,,,,,32,0,9,,,,,1,,72,94
12480,note_on,,,,,256,0,12,,,,,4,,45,94
12480,note_on,,,,,0,0,13,,,,,5,,64,100
12480,note_on,,,,,256,0,13,,,,,5,,72,100
12480,note_on,,,,,256,0,14,,,,,5,,57,100
12480,note_on,,,,,64,0,10,,,,,2,,69,94
12544,note_off,,,,,64,0,9,,,,,1,,72,100
12576,note_on,,,,,32,0,9,,,,,1,,76,95
12608,note_off,,,,,128,0,11,,,,,3,,57,100
12608,note_off,,,,,128,0,12,,,,,4,,45,100
12608,note_off,,,,,128,0,14,,,,,5,,57,100
12608,note_off,,,,,128,0,10,,,,,2,,69,100
12608,note_off,,,,,0,0,13,,,,,5,,64,100
12608,note_off,,,,,128,0,13,,,,,5,,72,100
12640,note_off,,,,,64,0,9,,,,,1,,76,100
12672,note_on,,,,,0,0,13,,,,,5,,76,100
12672,note_on,,,,,64,0,11,,,,,3,,60,96
12672,note_on,,,,,64,0,14,,,,,5,,60,100
12672,note_on,,,,,32,0,9,,,,,1,,81,96
12672,note_on,,,,,64,0,12,,,,,4,,48,96
12672,note_on,,,,,64,0,13,,,,,5,,69,100
12800,note_off,,,,,128,0,14,,,,,5,,60,100
12800,note_off,,,,,128,0,11,,,,,3,,60,100
12800,note_off,,,,,128,0,9,,,,,1,,81,100
12800,note_off,,,,,0,0,13,,,,,5,,76,100
12800,note_off,,,,,128,0,13,,,,,5,,69,100
12800,note_off,,,,,128,0,12,,,,,4,,48,100
12864,note_on,,,,,64,0,11,,,,,3,,57,98
12864,note_on,,,,,0,0,13,,,,,5,,72,100
12864,note_on,,,,,64,0,13,,,,,5,,64,100
12864,note_on,,,,,64,0,12,,,,,4,,45,98
12864,note_on,,,,,64,0,14,,,,,5,,57,100
12864,note_on,,,,,256,0,10,,,,,2,,69,98
12864,note_on,,,,,64,0,9,,,,,1,,81,98
12992,note_off,,,,,128,0,14,,,,,5,,57,100
12992,note_off,,,,,128,0,13,,,,,5,,64,100
12992,note_off,,,,,128,0,9,,,,,1,,81,100
12992,note_off,,,,,0,0,13,,,,,5,,72,100
12992,note_off,,,,,128,0,11,,,,,3,,57,100
12992,note_off,,,,,128,0,12,,,,,4,,45,100
12992,note_off,,,,,128,0,10,,,,,2,,69,100
13056,note_on,,,,,64,0,10,,,,,2,,72,100
13056,note_on,,,,,64,0,9,,,,,1,,81,100
13120,note_off,,,,,64,0,9,,,,,1,,81,100
13152,note_on,,,,,32,0,9,,,,,1,,69,101
13184,note_off,,,,,128,0,10,,,,,2,,72,100
13216,note_off,,,,,64,0,9,,,,,1,,69,100
13248,note_on,,,,,64,0,10,,,,,2,,69,102
13248,note_on,,,,,256,0,14,,,,,5,,57,100
13248,note_on,,,,,32,0,9,,,,,1,,72,102
13248,note_on,,,,,256,0,11,,,,,3,,57,102
13248,note_on,,,,,0,0,13,,,,,5,,72,100
13248,note_on,,,,,256,0,13,,,,,5,,64,100
13248,note_on,,,,,256,0,12,,,,,4,,45,102
13312,note_off,,,,,64,0,9,,,,,1,,72,100
13344,note_on,,,,,32,0,9,,,,,1,,76,103
13376,note_off,,,,,128,0,13,,,,,5,,64,100
13376,note_off,,,,,128,0,12,,,,,4,,45,100
13376,note_off,,,,,128,0,10,,,,,2,,69,100
13376,note_off,,,,,0,0,13,,,,,5,,72,100
13376,note_off,,,,,128,0,11,,,,,3,,57,100
13376,note_off,,,,,128,0,14,,,,,5,,57,100
13408,note_off,,,,,64,0,9,,,,,1,,76,100
13440,note_on,,,,,64,0,11,,,,,3,,62,104
13440,note_on,,,,,32,0,9,,,,,1,,82,104
13440,note_on,,,,,64,0,13,,,,,5,,70,100
13440,note_on,,,,,64,0,14,,,,,5,,62,100
13440,note_on,,,,,0,0,13,,,,,5,,65,100
13440,note_on,,,,,64,0,12,,,,,4,,50,104
13568,note_off,,,,,128,0,13,,,,,5,,70,100
13568,note_off,,,,,128,0,9,,,,,1,,82,100
13568,note_off,,,,,128,0,12,,,,,4,,50,100
13568,note_off,,,,,128,0,11,,,,,3,,62,100
13568,note_off,,,,,0,0,13,,,,,5,,65,100
13568,note_off,,,,,128,0,14,,,,,5,,62,100
13632,note_on,,,,,0,0,13,,,,,5,,70,100
13632,note_on,,,,,64,0,13,,,,,5,,67,100
13632,note_on,,,,,256,0,10,,,,,2,,64,100
13632,note_on,,,,,64,0,12,,,,,4,,49,100
13632,note_on,,,,,64,0,9,,,,,1,,82,100
13632,note_on,,,,,64,0,14,,,,,5,,61,100
13632,note_on,,,,,64,0,11,,,,,3,,61,100
13760,note_off,,,,,128,0,12,,,,,4,,49,100
13760,note_off,,,,,128,0,10,,,,,2,,64,100
13760,note_off,,,,,128,0,11,,,,,3,,61,100
13760,note_off,,,,,128,0,9,,,,,1,,82,100
13760,note_off,,,,,128,0,13,,,,,5,,67,100
13760,note_off,,,,,128,0,14,,,,,5,,61,100
13760,note_off,,,,,0,0,13,,,,,5,,70,100
13824,note_on,,,,,64,0,12,,,,,4,,50,100
13824,note_on,,,,,64,0,9,,,,,1,,82,100
13824,note_on,,,,,64,0,14,,,,,5,,62,100
13824,note_on,,,,,64,0,10,,,,,2,,65,100
13824,note_on,,,,,0,0,13,,,,,5,,70,100
13824,note_on,,,,,64,0,13,,,,,5,,65,100
13824,note_on,,,,,64,0,11,,,,,3,,62,100
13952,note_off,,,,,128,0,11,,,,,3,,62,100
13952,note_off,,,,,128,0,14,,,,,5,,62,100
13952,note_off,,,,,128,0,10,,,,,2,,65,100
13952,note_off,,,,,128,0,9,,,,,1,,82,100
13952,note_off,,,,,128,0,13,,,,,5,,65,100
13952,note_off,,,,,0,0,13,,,,,5,,70,100
13952,note_off,,,,,128,0,12,,,,,4,,50,100
14016,note_on,,,,,64,0,14,,,,,5,,64,100
14016,note_on,,,,,64,0,13,,,,,5,,68,100
14016,note_on,,,,,64,0,10,,,,,2,,64,100
14016,note_on,,,,,0,0,13,,,,,5,,71,100
14016,note_on,,,,,64,0,12,,,,,4,,52,100
14016,note_on,,,,,64,0,9,,,,,1,,81,100
14016,note_on,,,,,64,0,11,,,,,3,,64,100
14080,note_off,,,,,64,0,9,,,,,1,,81,100
14112,note_on,,,,,32,0,9,,,,,1,,80,100
14144,note_off,,,,,128,0,12,,,,,4,,52,100
14144,note_off,,,,,128,0,11,,,,,3,,64,100
14144,note_off,,,,,0,0,13,,,,,5,,71,100
14144,note_off,,,,,128,0,10,,,,,2,,64,100
14144,note_off,,,,,128,0,13,,,,,5,,68,100
14144,note_off,,,,,128,0,14,,,,,5,,64,100
14176,note_off,,,,,64,0,9,,,,,1,,80,100
14208,note_on,,,,,64,0,11,,,,,3,,65,100
14208,note_on,,,,,64,0,10,,,,,2,,62,100
14208,note_on,,,,,64,0,13,,,,,5,,69,100
14208,note_on,,,,,64,0,12,,,,,4,,53,100
14208,note_on,,,,,64,0,14,,,,,5,,65,100
14208,note_on,,,,,0,0,13,,,,,5,,74,100
14208,note_on,,,,,32,0,9,,,,,1,,81,100
14336,note_off,,,,,128,0,9,,,,,1,,81,100
14336,note_off,,,,,128,0,12,,,,,4,,53,100
14336,note_off,,,,,128,0,14,,,,,5,,65,100
14336,note_off,,,,,128,0,10,,,,,2,,62,100
14336,note_off,,,,,0,0,13,,,,,5,,74,100
14336,note_off,,,,,128,0,11,,,,,3,,65,100
14336,note_off,,,,,128,0,13,,,,,5,,69,100
14400,note_on,,,,,64,0,12,,,,,4,,50,100
14400,note_on,,,,,64,0,9,,,,,1,,83,100
14400,note_on,,,,,64,0,14,,,,,5,,62,100
14400,note_on,,,,,64,0,11,,,,,3,,62,100
14400,note_on,,,,,64,0,13,,,,,5,,65,100
14400,note_on,,,,,0,0,13,,,,,5,,71,100
14400,note_on,,,,,64,0,10,,,,,2,,74,100
14528,note_off,,,,,128,0,10,,,,,2,,74,100
14528,note_off,,,,,128,0,14,,,,,5,,62,100
14528,note_off,,,,,128,0,9,,,,,1,,83,100
14528,note_off,,,,,128,0,12,,,,,4,,50,100
14528,note_off,,,,,128,0,13,,,,,5,,65,100
14528,note_off,,,,,0,0,13,,,,,5,,71,100
14528,note_off,,,,,128,0,11,,,,,3,,62,100
14592,note_on,,,,,64,0,10,,,,,2,,68,100
14592,note_on,,,,,64,0,11,,,,,3,,59,100
14592,note_on,,,,,64,0,12,,,,,4,,47,100
14592,note_on,,,,,64,0,13,,,,,5,,68,100
14592,note_on,,,,,0,0,13,,,,,5,,62,100
14592,note_on,,,,,64,0,14,,,,,5,,59,100
14592,note_on,,,,,64,0,9,,,,,1,,74,100
14720,note_off,,,,,128,0,13,,,,,5,,68,100
14720,note_off,,,,,128,0,12,,,,,4,,47,100
14720,note_off,,,,,128,0,14,,,,,5,,59,100
14720,note_off,,,,,0,0,13,,,,,5,,62,100
14720,note_off,,,,,128,0,11,,,,,3,,59,100
14784,note_on,,,,,64,0,12,,,,,4,,45,100
14784,note_on,,,,,64,0,13,,,,,5,,64,100
14784,note_on,,,,,0,0,13,,,,,5,,60,100
14784,note_on,,,,,64,0,14,,,,,5,,57,100
14784,note_on,,,,,64,0,11,,,,,3,,57,100
14848,note_off,,,,,64,0,12,,,,,4,,45,100
14848,note_off,,,,,64,0,14,,,,,5,,57,100
14848,note_off,,,,,64,0,13,,,,,5,,60,100
14848,note_off,,,,,64,0,11,,,,,3,,57,100
14880,note_on,,,,,32,0,14,,,,,5,,56,100
14880,note_on,,,,,32,0,13,,,,,5,,59,100
14880,note_on,,,,,32,0,11,,,,,3,,56,100
14880,note_on,,,,,32,0,12,,,,,4,,44,100
14912,note_off,,,,,32,0,13,,,,,5,,64,100
14944,note_off,,,,,64,0,14,,,,,5,,56,100
14944,note_off,,,,,64,0,11,,,,,3,,56,100
14944,note_off,,,,,64,0,12,,,,,4,,44,100
14944,note_off,,,,,32,0,13,,,,,5,,59,100
14976,note_on,,,,,32,0,14,,,,,5,,57,100
14976,note_on,,,,,0,0,13,,,,,5,,64,100
14976,note_on,,,,,32,0,11,,,,,3,,57,100
14976,note_on,,,,,32,0,12,,,,,4,,45,100
14976,note_on,,,,,32,0,13,,,,,5,,60,100
15104,note_off,,,,,128,0,12,,,,,4,,45,100
15104,note_off,,,,,128,0,13,,,,,5,,60,100
15104,note_off,,,,,512,0,10,,,,,2,,68,100
15104,note_off,,,,,128,0,14,,,,,5,,57,100
15104,note_off,,,,,0,0,13,,,,,5,,64,100
15104,note_off,,,,,128,0,11,,,,,3,,57,100
15168,note_on,,,,,64,0,12,,,,,4,,47,100
15168,note_on,,,,,64,0,14,,,,,5,,59,100
15168,note_on,,,,,64,0,13,,,,,5,,65,100
15168,note_on,,,,,0,0,13,,,,,5,,62,100
15168,note_on,,,,,64,0,11,,,,,3,,59,100
15296,note_off,,,,,128,0,14,,,,,5,,59,100
15296,note_off,,,,,128,0,12,,,,,4,,47,100
15296,note_off,,,,,128,0,13,,,,,5,,65,100
15296,note_off,,,,,0,0,13,,,,,5,,62,100
15296,note_off,,,,,128,0,11,,,,,3,,59,100
15360,note_on,,,,,64,0,12,,,,,4,,40,100
15360,note_on,,,,,64,0,11,,,,,3,,52,100
15360,note_on,,,,,64,0,14,,,,,5,,52,100
15360,note_on,,,,,0,0,13,,,,,5,,59,100
15360,note_on,,,,,0,0,13,,,,,5,,68,100
15360,note_on,,,,,256,0,10,,,,,2,,71,100
15360,note_on,,,,,0,0,13,,,,,5,,62,100
15360,note_on,,,,,64,0,13,,,,,5,,64,100
15424,note_off,,,,,832,0,9,,,,,1,,74,100
15456,note_on,,,,,32,0,9,,,,,1,,64,100
15488,note_off,,,,,128,0,10,,,,,2,,71,100
15520,note_off,,,,,64,0,9,,,,,1,,64,100
15552,note_on,,,,,64,0,10,,,,,2,,64,100
15552,note_on,,,,,32,0,9,,,,,1,,68,100
15616,note_off,,,,,0,0,13,,,,,5,,62,100
15616,note_off,,,,,256,0,13,,,,,5,,64,100
15616,note_off,,,,,0,0,13,,,,,5,,68,100
15616,note_off,,,,,0,0,13,,,,,5,,59,100
15616,note_off,,,,,64,0,9,,,,,1,,68,100
15648,note_on,,,,,32,0,9,,,,,1,,71,100
15680,note_off,,,,,128,0,10,,,,,2,,64,100
15712,note_off,,,,,64,0,9,,,,,1,,71,100
15744,note_off,,,,,384,0,11,,,,,3,,52,100
15744,note_off,,,,,384,0,12,,,,,4,,40,100
15744,note_on,,,,,32,0,9,,,,,1,,74,100
15744,note_on,,,,,64,0,10,,,,,2,,68,100
15744,note_off,,,,,384,0,14,,,,,5,,52,100
15840,note_on,,,,,224,0,13,,,,,5,,56,100
15840,note_on,,,,,96,0,14,,,,,5,,52,100
15840,note_on,,,,,96,0,12,,,,,4,,40,100
15840,note_on,,,,,96,0,11,,,,,3,,52,100
15872,note_off,,,,,128,0,10,,,,,2,,68,100
15872,note_off,,,,,128,0,9,,,,,1,,74,100
15904,note_off,,,,,64,0,14,,,,,5,,52,100
15904,note_off,,,,,64,0,12,,,,,4,,40,100
15904,note_off,,,,,64,0,13,,,,,5,,56,100
15904,note_off,,,,,64,0,11,,,,,3,,52,100
15936,note_on,,,,,32,0,12,,,,,4,,44,100
15936,note_on,,,,,32,0,13,,,,,5,,59,100
15936,note_on,,,,,32,0,14,,,,,5,,56,100
15936,note_on,,,,,32,0,11,,,,,3,,56,100
15936,note_on,,,,,64,0,10,,,,,2,,71,100
15936,note_on,,,,,64,0,9,,,,,1,,74,100
16000,note_off,,,,,64,0,14,,,,,5,,56,100
16000,note_off,,,,,64,0,11,,,,,3,,56,100
16000,note_off,,,,,64,0,13,,,,,5,,59,100
16000,note_off,,,,,64,0,12,,,,,4,,44,100
16032,note_on,,,,,32,0,12,,,,,4,,47,100
16032,note_on,,,,,32,0,11,,,,,3,,59,100
16032,note_on,,,,,32,0,13,,,,,5,,62,100
16032,note_on,,,,,32,0,14,,,,,5,,59,100
16064,note_off,,,,,128,0,10,,,,,2,,71,100
16064,note_off,,,,,128,0,9,,,,,1,,74,100
16096,note_off,,,,,64,0,13,,,,,5,,62,100
16096,note_off,,,,,64,0,14,,,,,5,,59,100
16096,note_off,,,,,64,0,12,,,,,4,,47,100
16096,note_off,,,,,64,0,11,,,,,3,,59,100
16128,note_on,,,,,0,0,13,,,,,5,,59,100
16128,note_on,,,,,32,0,14,,,,,5,,52,100
16128,note_on,,,,,0,0,13,,,,,5,,62,100
16128,note_on,,,,,32,0,13,,,,,5,,64,100
16128,note_on,,,,,32,0,11,,,,,3,,52,100
16128,note_on,,,,,64,0,10,,,,,2,,71,100
16128,note_on,,,,,64,0,9,,,,,1,,74,100
16128,note_on,,,,,32,0,12,,,,,4,,40,100
16128,note_on,,,,,0,0,13,,,,,5,,68,100
16192,note_off,,,,,64,0,9,,,,,1,,74,100
16224,note_on,,,,,32,0,9,,,,,1,,64,100
16256,note_off,,,,,128,0,10,,,,,2,,71,100
16288,note_off,,,,,64,0,9,,,,,1,,64,100
16320,note_on,,,,,64,0,10,,,,,2,,64,100
16320,note_on,,,,,32,0,9,,,,,1,,68,100
16384,note_off,,,,,64,0,9,,,,,1,,68,100
16384,note_off,,,,,0,0,13,,,,,5,,59,100
16384,note_off,,,,,0,0,13,,,,,5,,62,100
16384,note_off,,,,,0,0,13,,,,,5,,68,100
16384,note_off,,,,,256,0,13,,,,,5,,64,100
16416,note_on,,,,,32,0,9,,,,,1,,71,100
16448,note_off,,,,,128,0,10,,,,,2,,64,100
16480,note_off,,,,,64,0,9,,,,,1,,71,100
16512,note_on,,,,,32,0,9,,,,,1,,74,100
16512,note_off,,,,,384,0,12,,,,,4,,40,100
16512,note_on,,,,,64,0,10,,,,,2,,68,100
16512,note_off,,,,,384,0,14,,,,,5,,52,100
16512,note_off,,,,,384,0,11,,,,,3,,52,100
16608,note_on,,,,,96,0,14,,,,,5,,52,100
16608,note_on,,,,,96,0,12,,,,,4,,40,100
16608,note_on,,,,,96,0,11,,,,,3,,52,100
16608,note_on,,,,,224,0,13,,,,,5,,56,100
16640,note_off,,,,,128,0,10,,,,,2,,68,100
16640,note_off,,,,,128,0,9,,,,,1,,74,100
16672,note_off,,,,,64,0,12,,,,,4,,40,100
16672,note_off,,,,,64,0,11,,,,,3,,52,100
16672,note_off,,,,,64,0,14,,,,,5,,52,100
16672,note_off,,,,,64,0,13,,,,,5,,56,100
16704,note_on,,,,,64,0,9,,,,,1,,74,100
16704,note_on,,,,,32,0,12,,,,,4,,44,100
16704,note_on,,,,,32,0,11,,,,,3,,56,100
16704,note_on,,,,,64,0,10,,,,,2,,71,100
16704,note_on,,,,,32,0,13,,,,,5,,59,100
16704,note_on,,,,,32,0,14,,,,,5,,56,100
16768,note_off,,,,,64,0,11,,,,,3,,56,100
16768,note_off,,,,,64,0,13,,,,,5,,59,100
16768,note_off,,,,,64,0,14,,,,,5,,56,100
16768,note_off,,,,,64,0,12,,,,,4,,44,100
16800,note_on,,,,,32,0,12,,,,,4,,47,100
16800,note_on,,,,,32,0,11,,,,,3,,59,100
16800,note_on,,,,,32,0,13,,,,,5,,62,100
16800,note_on,,,,,32,0,14,,,,,5,,59,100
16832,note_off,,,,,128,0,9,,,,,1,,74,100
16832,note_off,,,,,128,0,10,,,,,2,,71,100
16864,note_off,,,,,64,0,11,,,,,3,,59,100
16864,note_off,,,,,64,0,12,,,,,4,,47,100
16864,note_off,,,,,64,0,13,,,,,5,,62,100
16864,note_off,,,,,64,0,14,,,,,5,,59,100
16896,note_on,,,,,32,0,11,,,,,3,,52,100
16896,note_on,,,,,64,0,10,,,,,2,,71,100
16896,note_on,,,,,32,0,12,,,,,4,,40,100
16896,note_on,,,,,64,0,9,,,,,1,,74,100
16896,note_on,,,,,32,0,14,,,,,5,,52,100
16896,note_on,,,,,0,0,13,,,,,5,,59,100
16896,note_on,,,,,32,0,13,,,,,5,,64,100
16896,note_on,,,,,0,0,13,,,,,5,,68,100
16896,note_on,,,,,0,0,13,,,,,5,,62,100
16960,note_off,,,,,64,0,9,,,,,1,,74,100
16992,note_on,,,,,32,0,9,,,,,1,,64,100
17024,note_off,,,,,128,0,10,,,,,2,,71,100
17056,note_off,,,,,64,0,9,,,,,1,,64,100
17088,note_on,,,,,32,0,9,,,,,1,,68,100
17088,note_on,,,,,64,0,10,,,,,2,,64,100
17152,note_off,,,,,64,0,9,,,,,1,,68,100
17152,note_off,,,,,0,0,13,,,,,5,,59,100
17152,note_off,,,,,0,0,13,,,,,5,,62,100
17152,note_off,,,,,0,0,13,,,,,5,,68,100
17152,note_off,,,,,256,0,13,,,,,5,,64,100
17184,note_on,,,,,32,0,9,,,,,1,,71,100
17216,note_off,,,,,128,0,10,,,,,2,,64,100
17248,note_off,,,,,64,0,9,,,,,1,,71,100
17280,note_on,,,,,64,0,10,,,,,2,,68,100
17280,note_off,,,,,384,0,12,,,,,4,,40,100
17280,note_off,,,,,384,0,11,,,,,3,,52,100
17280,note_off,,,,,384,0,14,,,,,5,,52,100
17280,note_on,,,,,32,0,9,,,,,1,,74,100
17376,note_on,,,,,224,0,13,,,,,5,,74,100
17376,note_on,,,,,96,0,11,,,,,3,,59,100
17376,note_on,,,,,96,0,12,,,,,4,,47,100
17376,note_on,,,,,96,0,14,,,,,5,,59,100
17408,note_off,,,,,128,0,9,,,,,1,,74,100
17408,note_off,,,,,128,0,10,,,,,2,,68,100
17440,note_off,,,,,64,0,11,,,,,3,,59,100
17440,note_off,,,,,64,0,13,,,,,5,,74,100
17440,note_off,,,,,64,0,12,,,,,4,,47,100
17440,note_off,,,,,64,0,14,,,,,5,,59,100
17472,note_on,,,,,64,0,9,,,,,1,,76,100
17472,note_on,,,,,32,0,11,,,,,3,,56,100
17472,note_on,,,,,32,0,13,,,,,5,,71,100
17472,note_on,,,,,32,0,14,,,,,5,,56,100
17472,note_on,,,,,32,0,12,,,,,4,,44,100
17472,note_on,,,,,64,0,10,,,,,2,,71,100
17536,note_off,,,,,64,0,11,,,,,3,,56,100
17536,note_off,,,,,64,0,14,,,,,5,,56,100
17536,note_off,,,,,64,0,12,,,,,4,,44,100
17536,note_off,,,,,64,0,13,,,,,5,,71,100
17568,note_on,,,,,32,0,12,,,,,4,,40,100
17568,note_on,,,,,32,0,14,,,,,5,,52,100
17568,note_on,,,,,32,0,11,,,,,3,,52,100
17568,note_on,,,,,32,0,13,,,,,5,,68,100
17600,note_off,,,,,128,0,10,,,,,2,,71,100
17600,note_off,,,,,128,0,9,,,,,1,,76,100
17632,note_off,,,,,64,0,11,,,,,3,,52,100
17632,note_off,,,,,64,0,12,,,,,4,,40,100
17632,note_off,,,,,64,0,14,,,,,5,,52,100
17632,note_off,,,,,64,0,13,,,,,5,,68,100
17664,note_on,,,,,64,0,9,,,,,1,,72,100
17664,note_on,,,,,32,0,12,,,,,4,,45,100
17664,note_on,,,,,32,0,11,,,,,3,,57,100
17664,note_on,,,,,0,0,13,,,,,5,,64,100
17664,note_on,,,,,32,0,13,,,,,5,,72,100
17664,note_on,,,,,0,0,13,,,,,5,,69,100
17664,note_on,,,,,64,0,10,,,,,2,,64,100
17664,note_on,,,,,32,0,14,,,,,5,,57,100
17792,note_off,,,,,128,0,9,,,,,1,,72,100
17792,note_off,,,,,128,0,11,,,,,3,,57,100
17792,note_off,,,,,128,0,13,,,,,5,,72,100
17792,note_off,,,,,0,0,13,,,,,5,,69,100
17792,note_off,,,,,0,0,13,,,,,5,,64,100
17792,note_off,,,,,128,0,12,,,,,4,,45,100
17792,note_off,,,,,128,0,10,,,,,2,,64,100
17792,note_off,,,,,128,0,14,,,,,5,,57,100
17856,note_on,,,,,64,0,11,,,,,3,,60,100
17856,note_on,,,,,64,0,12,,,,,4,,48,100
17856,note_on,,,,,64,0,13,,,,,5,,69,100
17856,note_on,,,,,0,0,13,,,,,5,,64,100
17856,note_on,,,,,64,0,14,,,,,5,,60,100
17856,note_on,,,,,64,0,9,,,,,1,,71,100
17856,note_on,,,,,64,0,10,,,,,2,,69,100
17920,note_off,,,,,64,0,9,,,,,1,,71,100
17952,note_on,,,,,32,0,9,,,,,1,,69,100
17984,note_off,,,,,128,0,11,,,,,3,,60,100
17984,note_off,,,,,128,0,14,,,,,5,,60,100
17984,note_off,,,,,128,0,13,,,,,5,,69,100
17984,note_off,,,,,128,0,12,,,,,4,,48,100
17984,note_off,,,,,0,0,13,,,,,5,,64,100
17984,note_off,,,,,128,0,10,,,,,2,,69,100
18016,note_off,,,,,64,0,9,,,,,1,,69,100
18048,note_on,,,,,32,0,9,,,,,1,,77,100
18048,note_on,,,,,64,0,10,,,,,2,,69,100
18048,note_on,,,,,64,0,14,,,,,5,,62,100
18048,note_on,,,,,0,0,13,,,,,5,,65,100
18048,note_on,,,,,64,0,11,,,,,3,,62,100
18048,note_on,,,,,0,0,13,,,,,5,,69,100
18048,note_on,,,,,64,0,13,,,,,5,,74,100
18048,note_on,,,,,64,0,12,,,,,4,,50,100
18176,note_off,,,,,0,0,13,,,,,5,,65,100
18176,note_off,,,,,0,0,13,,,,,5,,69,100
18176,note_off,,,,,128,0,13,,,,,5,,74,100
18176,note_off,,,,,128,0,10,,,,,2,,69,100
18176,note_off,,,,,128,0,14,,,,,5,,62,100
18176,note_off,,,,,128,0,11,,,,,3,,62,100
18176,note_off,,,,,128,0,12,,,,,4,,50,100
18176,note_off,,,,,128,0,9,,,,,1,,77,100
18240,note_on,,,,,64,0,11,,,,,3,,59,100
18240,note_on,,,,,64,0,9,,,,,1,,76,85
18240,note_on,,,,,0,0,13,,,,,5,,62,100
18240,note_on,,,,,64,0,10,,,,,2,,74,100
18240,note_on,,,,,64,0,13,,,,,5,,68,100
18240,note_on,,,,,64,0,12,,,,,4,,47,100
18240,note_on,,,,,64,0,14,,,,,5,,59,100
18304,note_off,,,,,64,0,9,,,,,1,,76,100
18336,note_on,,,,,32,0,9,,,,,1,,74,85
18368,note_off,,,,,128,0,12,,,,,4,,47,100
18368,note_off,,,,,128,0,14,,,,,5,,59,100
18368,note_off,,,,,0,0,13,,,,,5,,62,100
18368,note_off,,,,,128,0,13,,,,,5,,68,100
18368,note_off,,,,,128,0,10,,,,,2,,74,100
18368,note_off,,,,,128,0,11,,,,,3,,59,100
18400,note_off,,,,,64,0,9,,,,,1,,74,100
18432,note_on,,,,,64,0,12,,,,,4,,48,100
18432,note_on,,,,,0,0,13,,,,,5,,69,100
18432,note_on,,,,,0,0,13,,,,,5,,64,100
18432,note_on,,,,,64,0,11,,,,,3,,60,100
18432,note_on,,,,,64,0,10,,,,,2,,69,100
18432,note_on,,,,,64,0,14,,,,,5,,60,100
18432,note_on,,,,,32,0,9,,,,,1,,76,100
18432,note_on,,,,,64,0,13,,,,,5,,72,100
18560,note_off,,,,,128,0,14,,,,,5,,60,100
18560,note_off,,,,,128,0,12,,,,,4,,48,100
18560,note_off,,,,,0,0,13,,,,,5,,69,100
18560,note_off,,,,,0,0,13,,,,,5,,64,100
18560,note_off,,,,,128,0,9,,,,,1,,76,100
18560,note_off,,,,,128,0,13,,,,,5,,72,100
18560,note_off,,,,,128,0,11,,,,,3,,60,100
18560,note_off,,,,,128,0,10,,,,,2,,69,100
18624,note_on,,,,,64,0,9,,,,,1,,81,100
18624,note_on,,,,,64,0,13,,,,,5,,65,100
18624,note_on,,,,,0,0,13,,,,,5,,69,100
18624,note_on,,,,,64,0,12,,,,,4,,50,100
18624,note_on,,,,,64,0,10,,,,,2,,65,100
18624,note_on,,,,,64,0,11,,,,,3,,62,100
18624,note_on,,,,,64,0,14,,,,,5,,62,100
18736,note_off,,,,,112,0,9,,,,,1,,81,100
18752,note_off,,,,,128,0,12,,,,,4,,50,100
18752,note_off,,,,,128,0,10,,,,,2,,65,100
18752,note_off,,,,,128,0,14,,,,,5,,62,100
18752,note_off,,,,,128,0,13,,,,,5,,65,100
18752,note_off,,,,,128,0,11,,,,,3,,62,100
18752,note_off,,,,,0,0,13,,,,,5,,69,100
18816,note_on,,,,,64,0,14,,,,,5,,64,100
18816,note_on,,,,,80,0,9,,,,,1,,64,100
18816,note_on,,,,,64,0,10,,,,,2,,64,100
18816,note_on,,,,,64,0,13,,,,,5,,69,100
18816,note_on,,,,,0,0,13,,,,,5,,71,100
18816,note_on,,,,,64,0,12,,,,,4,,52,100
18816,note_on,,,,,64,0,11,,,,,3,,64,100
18928,note_off,,,,,112,0,9,,,,,1,,64,100
18944,note_off,,,,,128,0,11,,,,,3,,64,100
18944,note_off,,,,,128,0,12,,,,,4,,52,100
18944,note_off,,,,,128,0,10,,,,,2,,64,100
18944,note_off,,,,,0,0,13,,,,,5,,71,100
18944,note_off,,,,,128,0,14,,,,,5,,64,100
18944,note_off,,,,,128,0,13,,,,,5,,69,100
19008,note_on,,,,,0,0,13,,,,,5,,71,100
19008,note_on,,,,,64,0,12,,,,,4,,40,100
19008,note_on,,,,,64,0,14,,,,,5,,52,100
19008,note_on,,,,,64,0,10,,,,,2,,64,100
19008,note_on,,,,,80,0,9,,,,,1,,80,100
19008,note_on,,,,,64,0,13,,,,,5,,68,100
19008,note_on,,,,,64,0,11,,,,,3,,52,100
19120,note_off,,,,,112,0,9,,,,,1,,80,100
19136,note_off,,,,,128,0,11,,,,,3,,52,100
19136,note_off,,,,,128,0,10,,,,,2,,64,100
19136,note_off,,,,,128,0,14,,,,,5,,52,100
19136,note_off,,,,,0,0,13,,,,,5,,71,100
19136,note_off,,,,,128,0,13,,,,,5,,68,100
19136,note_off,,,,,128,0,12,,,,,4,,40,100
19200,note_on,,,,,0,0,13,,,,,5,,72,100
19200,note_on,,,,,64,0,13,,,,,5,,69,100
19200,note_on,,,,,64,0,10,,,,,2,,60,100
19200,note_on,,,,,64,0,11,,,,,3,,45,100
19200,note_on,,,,,64,0,12,,,,,4,,33,100
19200,note_on,,,,,64,0,14,,,,,5,,45,100
19200,note_on,,,,,0,0,13,,,,,5,,64,100
19200,note_on,,,,,80,0,9,,,,,1,,81,100
19328,note_off,,,,,128,0,14,,,,,5,,45,100
19328,note_off,,,,,0,0,13,,,,,5,,72,100
19328,note_off,,,,,0,0,13,,,,,5,,64,100
19328,note_off,,,,,128,0,13,,,,,5,,69,100
19328,note_off,,,,,128,0,11,,,,,3,,45,100
19328,note_off,,,,,128,0,12,,,,,4,,33,100
19392,note_on,,,,,0,0,13,,,,,5,,64,100
19392,note_on,,,,,64,0,13,,,,,5,,60,100
19392,note_on,,,,,64,0,14,,,,,5,,57,100
19392,note_on,,,,,64,0,11,,,,,3,,57,100
19392,note_on,,,,,64,0,12,,,,,4,,45,100
19456,note_off,,,,,256,0,10,,,,,2,,60,100
19456,note_off,,,,,256,0,9,,,,,1,,81,100
19520,note_off,,,,,128,0,14,,,,,5,,57,100
19520,note_off,,,,,128,0,11,,,,,3,,57,100
19520,note_off,,,,,0,0,13,,,,,5,,64,100
19520,note_off,,,,,128,0,12,,,,,4,,45,100
19520,note_off,,,,,128,0,13,,,,,5,,60,100
19584,note_on,,,,,64,0,14,,,,,5,,60,100
19584,note_on,,,,,64,0,13,,,,,5,,64,100
19584,note_on,,,,,64,0,12,,,,,4,,48,94
19584,note_on,,,,,0,0,13,,,,,5,,69,100
19584,note_on,,,,,64,0,11,,,,,3,,60,94
19712,note_off,,,,,128,0,13,,,,,5,,64,100
19712,note_off,,,,,0,0,13,,,,,5,,69,100
19712,note_off,,,,,128,0,14,,,,,5,,60,100
19712,note_off,,,,,128,0,11,,,,,3,,60,100
19712,note_off,,,,,128,0,12,,,,,4,,48,100
19776,note_on,,,,,64,0,14,,,,,5,,57,100
19776,note_on,,,,,19776,0,8,,,,,0,,76,100
19776,note_on,,,,,64,0,11,,,,,3,,57,87
19776,note_on,,,,,64,0,13,,,,,5,,60,100
19776,note_on,,,,,64,0,12,,,,,4,,45,87
19776,note_on,,,,,0,0,13,,,,,5,,64,100
19904,note_off,,,,,128,0,13,,,,,5,,60,100
19904,note_off,,,,,0,0,13,,,,,5,,64,100
19904,note_off,,,,,128,0,14,,,,,5,,57,100
19904,note_off,,,,,128,0,11,,,,,3,,57,100
19904,note_off,,,,,128,0,8,,,,,0,,76,100
19904,note_off,,,,,128,0,12,,,,,4,,45,100
19968,note_on,,,,,512,0,10,,,,,2,,57,81
19968,note_on,,,,,64,0,8,,,,,0,,81,100
19968,note_on,,,,,512,0,9,,,,,1,,57,81
20096,note_off,,,,,128,0,8,,,,,0,,81,100
20160,note_on,,,,,256,0,12,,,,,4,,45,80
20160,note_on,,,,,256,0,13,,,,,5,,60,100
20160,note_on,,,,,256,0,11,,,,,3,,57,80
20160,note_on,,,,,0,0,13,,,,,5,,64,100
20160,note_on,,,,,64,0,8,,,,,0,,81,100
20160,note_on,,,,,256,0,14,,,,,5,,57,100
20224,note_off,,,,,256,0,10,,,,,2,,57,100
20224,note_off,,,,,256,0,9,,,,,1,,57,100
20288,note_off,,,,,128,0,13,,,,,5,,60,100
20288,note_off,,,,,0,0,13,,,,,5,,64,100
20288,note_off,,,,,128,0,8,,,,,0,,81,100
20288,note_off,,,,,128,0,11,,,,,3,,57,100
20288,note_off,,,,,128,0,12,,,,,4,,45,100
20288,note_off,,,,,128,0,14,,,,,5,,57,100
20352,note_on,,,,,64,0,8,,,,,0,,81,100
20352,note_on,,,,,64,0,12,,,,,4,,48,80
20352,note_on,,,,,64,0,14,,,,,5,,60,100
20352,note_on,,,,,64,0,13,,,,,5,,64,100
20352,note_on,,,,,0,0,13,,,,,5,,69,100
20352,note_on,,,,,64,0,11,,,,,3,,60,80
20480,note_off,,,,,128,0,12,,,,,4,,48,100
20480,note_off,,,,,128,0,11,,,,,3,,60,100
20480,note_off,,,,,128,0,13,,,,,5,,64,100
20480,note_off,,,,,128,0,8,,,,,0,,81,100
20480,note_off,,,,,128,0,14,,,,,5,,60,100
20480,note_off,,,,,0,0,13,,,,,5,,69,100
20544,note_on,,,,,64,0,12,,,,,4,,45,80
20544,note_on,,,,,64,0,11,,,,,3,,57,80
20544,note_on,,,,,64,0,13,,,,,5,,60,100
20544,note_on,,,,,0,0,13,,,,,5,,64,100
20544,note_on,,,,,64,0,8,,,,,0,,81,100
20544,note_on,,,,,64,0,14,,,,,5,,57,100
20672,note_off,,,,,128,0,11,,,,,3,,57,100
20672,note_off,,,,,128,0,12,,,,,4,,45,100
20672,note_off,,,,,128,0,13,,,,,5,,60,100
20672,note_off,,,,,128,0,14,,,,,5,,57,100
20672,note_off,,,,,128,0,8,,,,,0,,81,100
20672,note_off,,,,,0,0,13,,,,,5,,64,100
20736,note_on,,,,,512,0,10,,,,,2,,57,80
20736,note_on,,,,,64,0,8,,,,,0,,81,100
20736,note_on,,,,,512,0,9,,,,,1,,57,80
20864,note_off,,,,,128,0,8,,,,,0,,81,100
20928,note_on,,,,,256,0,12,,,,,4,,45,80
20928,note_on,,,,,0,0,13,,,,,5,,64,100
20928,note_on,,,,,256,0,13,,,,,5,,60,100
20928,note_on,,,,,64,0,8,,,,,0,,84,100
20928,note_on,,,,,256,0,14,,,,,5,,57,100
20928,note_on,,,,,256,0,11,,,,,3,,57,80
20992,note_off,,,,,256,0,9,,,,,1,,57,100
20992,note_off,,,,,64,0,8,,,,,0,,84,100
20992,note_off,,,,,256,0,10,,,,,2,,57,100
21024,note_on,,,,,32,0,8,,,,,0,,83,100
21056,note_off,,,,,128,0,14,,,,,5,,57,100
21056,note_off,,,,,128,0,11,,,,,3,,57,100
21056,note_off,,,,,128,0,12,,,,,4,,45,100
21056,note_off,,,,,0,0,13,,,,,5,,64,100
21056,note_off,,,,,128,0,13,,,,,5,,60,100
21088,note_off,,,,,64,0,8,,,,,0,,83,100
21120,note_on,,,,,0,0,13,,,,,5,,69,100
21120,note_on,,,,,64,0,14,,,,,5,,60,100
21120,note_on,,,,,64,0,11,,,,,3,,60,80
21120,note_on,,,,,32,0,8,,,,,0,,81,100
21120,note_on,,,,,64,0,12,,,,,4,,48,80
21120,note_on,,,,,64,0,13,,,,,5,,64,100
21248,note_off,,,,,128,0,14,,,,,5,,60,100
21248,note_off,,,,,128,0,8,,,,,0,,81,100
21248,note_off,,,,,0,0,13,,,,,5,,69,100
21248,note_off,,,,,128,0,13,,,,,5,,64,100
21248,note_off,,,,,128,0,12,,,,,4,,48,100
21248,note_off,,,,,128,0,11,,,,,3,,60,100
21312,note_on,,,,,64,0,8,,,,,0,,84,100
21312,note_on,,,,,64,0,14,,,,,5,,57,100
21312,note_on,,,,,64,0,11,,,,,3,,57,80
21312,note_on,,,,,64,0,12,,,,,4,,45,80
21312,note_on,,,,,64,0,13,,,,,5,,60,100
21312,note_on,,,,,0,0,13,,,,,5,,64,100
21376,note_off,,,,,64,0,8,,,,,0,,84,100
21408,note_on,,,,,32,0,8,,,,,0,,83,100
21440,note_off,,,,,128,0,12,,,,,4,,45,100
21440,note_off,,,,,0,0,13,,,,,5,,64,100
21440,note_off,,,,,128,0,13,,,,,5,,60,100
21440,note_off,,,,,128,0,11,,,,,3,,57,100
21440,note_off,,,,,128,0,14,,,,,5,,57,100
21472,note_off,,,,,64,0,8,,,,,0,,83,100
21504,note_on,,,,,512,0,9,,,,,1,,57,80
21504,note_on,,,,,32,0,8,,,,,0,,81,100
21504,note_on,,,,,512,0,10,,,,,2,,57,80
21632,note_off,,,,,128,0,8,,,,,0,,81,100
21696,note_on,,,,,256,0,11,,,,,3,,57,80
21696,note_on,,,,,64,0,8,,,,,0,,84,100
21696,note_on,,,,,256,0,14,,,,,5,,57,100
21696,note_on,,,,,256,0,13,,,,,5,,60,100
21696,note_on,,,,,0,0,13,,,,,5,,64,100
21696,note_on,,,,,256,0,12,,,,,4,,45,80
21760,note_off,,,,,256,0,10,,,,,2,,57,100
21760,note_off,,,,,256,0,9,,,,,1,,57,100
21760,note_off,,,,,64,0,8,,,,,0,,84,100
21792,note_on,,,,,32,0,8,,,,,0,,83,100
21824,note_off,,,,,128,0,13,,,,,5,,60,100
21824,note_off,,,,,0,0,13,,,,,5,,64,100
21824,note_off,,,,,128,0,11,,,,,3,,57,100
21824,note_off,,,,,128,0,12,,,,,4,,45,100
21824,note_off,,,,,128,0,14,,,,,5,,57,100
21856,note_off,,,,,64,0,8,,,,,0,,83,100
21888,note_on,,,,,64,0,11,,,,,3,,60,80
21888,note_on,,,,,64,0,12,,,,,4,,48,80
21888,note_on,,,,,0,0,13,,,,,5,,69,100
21888,note_on,,,,,64,0,13,,,,,5,,64,100
21888,note_on,,,,,32,0,8,,,,,0,,81,100
21888,note_on,,,,,64,0,14,,,,,5,,60,100
22016,note_off,,,,,128,0,8,,,,,0,,81,100
22016,note_off,,,,,128,0,12,,,,,4,,48,100
22016,note_off,,,,,0,0,13,,,,,5,,69,100
22016,note_off,,,,,128,0,13,,,,,5,,64,100
22016,note_off,,,,,128,0,14,,,,,5,,60,100
22016,note_off,,,,,128,0,11,,,,,3,,60,100
22080,note_on,,,,,64,0,11,,,,,3,,57,80
22080,note_on,,,,,64,0,14,,,,,5,,57,100
22080,note_on,,,,,64,0,8,,,,,0,,79,100
22080,note_on,,,,,64,0,13,,,,,5,,60,100
22080,note_on,,,,,0,0,13,,,,,5,,64,100
22080,note_on,,,,,64,0,12,,,,,4,,45,80
22144,note_off,,,,,64,0,8,,,,,0,,79,100
22176,note_on,,,,,32,0,8,,,,,0,,77,100
22208,note_off,,,,,0,0,13,,,,,5,,64,100
22208,note_off,,,,,128,0,14,,,,,5,,57,100
22208,note_off,,,,,128,0,13,,,,,5,,60,100
22208,note_off,,,,,128,0,12,,,,,4,,45,100
22208,note_off,,,,,128,0,11,,,,,3,,57,100
22240,note_off,,,,,64,0,8,,,,,0,,77,100
22272,note_on,,,,,512,0,9,,,,,1,,57,80
22272,note_on,,,,,512,0,10,,,,,2,,57,80
22272,note_on,,,,,32,0,8,,,,,0,,76,100
22400,note_off,,,,,128,0,8,,,,,0,,76,100
22464,note_on,,,,,0,0,13,,,,,5,,64,100
22464,note_on,,,,,256,0,13,,,,,5,,60,100
22464,note_on,,,,,64,0,8,,,,,0,,74,100
22464,note_on,,,,,256,0,14,,,,,5,,57,100
22464,note_on,,,,,256,0,11,,,,,3,,57,80
22464,note_on,,,,,256,0,12,,,,,4,,45,80
22528,note_off,,,,,256,0,9,,,,,1,,57,100
22528,note_off,,,,,256,0,10,,,,,2,,57,100
22528,note_off,,,,,64,0,8,,,,,0,,74,100
22560,note_on,,,,,32,0,8,,,,,0,,72,100
22592,note_off,,,,,128,0,11,,,,,3,,57,100
22592,note_off,,,,,128,0,13,,,,,5,,60,100
22592,note_off,,,,,128,0,14,,,,,5,,57,100
22592,note_off,,,,,0,0,13,,,,,5,,64,100
22592,note_off,,,,,128,0,12,,,,,4,,45,100
22624,note_off,,,,,64,0,8,,,,,0,,72,100
22656,note_on,,,,,32,0,8,,,,,0,,71,100
22656,note_on,,,,,64,0,11,,,,,3,,56,80
22656,note_on,,,,,64,0,14,,,,,5,,56,100
22656,note_on,,,,,64,0,13,,,,,5,,64,100
22656,note_on,,,,,0,0,13,,,,,5,,59,100
22656,note_on,,,,,64,0,12,,,,,4,,44,80
22784,note_off,,,,,128,0,11,,,,,3,,56,100
22784,note_off,,,,,128,0,14,,,,,5,,56,100
22784,note_off,,,,,128,0,8,,,,,0,,71,100
22784,note_off,,,,,0,0,13,,,,,5,,59,100
22784,note_off,,,,,128,0,13,,,,,5,,64,100
22784,note_off,,,,,128,0,12,,,,,4,,44,100
22848,note_on,,,,,64,0,14,,,,,5,,52,100
22848,note_on,,,,,64,0,11,,,,,3,,52,80
22848,note_on,,,,,64,0,8,,,,,0,,76,100
22848,note_on,,,,,64,0,12,,,,,4,,40,80
22848,note_on,,,,,64,0,13,,,,,5,,56,100
22848,note_on,,,,,0,0,13,,,,,5,,59,100
22976,note_off,,,,,128,0,12,,,,,4,,40,100
22976,note_off,,,,,128,0,8,,,,,0,,76,100
22976,note_off,,,,,128,0,13,,,,,5,,56,100
22976,note_off,,,,,128,0,14,,,,,5,,52,100
22976,note_off,,,,,0,0,13,,,,,5,,59,100
22976,note_off,,,,,128,0,11,,,,,3,,52,100
23040,note_on,,,,,512,0,9,,,,,1,,57,80
23040,note_on,,,,,512,0,10,,,,,2,,57,80
23040,note_on,,,,,64,0,8,,,,,0,,72,100
23168,note_off,,,,,128,0,8,,,,,0,,72,100
23232,note_on,,,,,256,0,11,,,,,3,,57,80
23232,note_on,,,,,256,0,13,,,,,5,,60,100
23232,note_on,,,,,64,0,8,,,,,0,,69,100
23232,note_on,,,,,256,0,12,,,,,4,,45,80
23232,note_on,,,,,0,0,13,,,,,5,,64,100
23232,note_on,,,,,256,0,14,,,,,5,,57,100
23296,note_off,,,,,256,0,10,,,,,2,,57,100
23296,note_off,,,,,256,0,9,,,,,1,,57,100
23360,note_off,,,,,128,0,11,,,,,3,,57,100
23360,note_off,,,,,128,0,8,,,,,0,,69,100
23360,note_off,,,,,0,0,13,,,,,5,,64,100
23360,note_off,,,,,128,0,13,,,,,5,,60,100
23360,note_off,,,,,128,0,12,,,,,4,,45,100
23360,note_off,,,,,128,0,14,,,,,5,,57,100
23424,note_on,,,,,64,0,13,,,,,5,,64,100
23424,note_on,,,,,0,0,13,,,,,5,,69,100
23424,note_on,,,,,64,0,8,,,,,0,,69,100
23424,note_on,,,,,64,0,14,,,,,5,,60,100
23424,note_on,,,,,64,0,12,,,,,4,,48,80
23424,note_on,,,,,64,0,11,,,,,3,,60,80
23552,note_off,,,,,128,0,11,,,,,3,,60,100
23552,note_off,,,,,128,0,14,,,,,5,,60,100
23552,note_off,,,,,128,0,12,,,,,4,,48,100
23552,note_off,,,,,0,0,13,,,,,5,,69,100
23552,note_off,,,,,128,0,13,,,,,5,,64,100
23552,note_off,,,,,128,0,8,,,,,0,,69,100
23616,note_on,,,,,64,0,11,,,,,3,,57,80
23616,note_on,,,,,0,0,13,,,,,5,,64,100
23616,note_on,,,,,64,0,14,,,,,5,,57,100
23616,note_on,,,,,64,0,13,,,,,5,,60,100
23616,note_on,,,,,64,0,12,,,,,4,,45,80
23616,note_on,,,,,64,0,8,,,,,0,,76,100
23744,note_off,,,,,128,0,13,,,,,5,,60,100
23744,note_off,,,,,0,0,13,,,,,5,,64,100
23744,note_off,,,,,128,0,12,,,,,4,,45,100
23744,note_off,,,,,128,0,14,,,,,5,,57,100
23744,note_off,,,,,128,0,11,,,,,3,,57,100
23744,note_off,,,,,128,0,8,,,,,0,,76,100
23808,note_on,,,,,64,0,8,,,,,0,,76,100
23808,note_on,,,,,512,0,10,,,,,2,,61,80
23808,note_on,,,,,512,0,9,,,,,1,,61,80
23936,note_off,,,,,128,0,8,,,,,0,,76,100
24000,note_on,,,,,0,0,13,,,,,5,,73,100
24000,note_on,,,,,256,0,13,,,,,5,,67,100
24000,note_on,,,,,256,0,11,,,,,3,,64,80
24000,note_on,,,,,256,0,14,,,,,5,,64,100
24000,note_on,,,,,256,0,12,,,,,4,,52,80
24000,note_on,,,,,64,0,8,,,,,0,,79,100
24064,note_off,,,,,256,0,10,,,,,2,,61,100
24064,note_off,,,,,256,0,9,,,,,1,,61,100
24064,note_off,,,,,64,0,8,,,,,0,,79,100
24096,note_on,,,,,32,0,8,,,,,0,,77,100
24128,note_off,,,,,128,0,11,,,,,3,,64,100
24128,note_off,,,,,128,0,14,,,,,5,,64,100
24128,note_off,,,,,128,0,12,,,,,4,,52,100
24128,note_off,,,,,128,0,13,,,,,5,,67,100
24128,note_off,,,,,0,0,13,,,,,5,,73,100
24160,note_off,,,,,64,0,8,,,,,0,,77,100
24192,note_on,,,,,32,0,8,,,,,0,,76,100
24192,note_on,,,,,64,0,12,,,,,4,,49,80
24192,note_on,,,,,64,0,14,,,,,5,,61,100
24192,note_on,,,,,0,0,13,,,,,5,,67,100
24192,note_on,,,,,64,0,11,,,,,3,,61,80
24192,note_on,,,,,64,0,13,,,,,5,,64,100
24320,note_off,,,,,128,0,8,,,,,0,,76,100
24320,note_off,,,,,0,0,13,,,,,5,,67,100
24320,note_off,,,,,128,0,14,,,,,5,,61,100
24320,note_off,,,,,128,0,13,,,,,5,,64,100
24320,note_off,,,,,128,0,11,,,,,3,,61,100
24320,note_off,,,,,128,0,12,,,,,4,,49,100
24384,note_on,,,,,64,0,8,,,,,0,,76,100
24384,note_on,,,,,64,0,14,,,,,5,,57,100
24384,note_on,,,,,64,0,12,,,,,4,,45,80
24384,note_on,,,,,64,0,11,,,,,3,,57,80
24384,note_on,,,,,0,0,13,,,,,5,,64,100
24384,note_on,,,,,64,0,13,,,,,5,,61,100
24512,note_off,,,,,0,0,13,,,,,5,,64,100
24512,note_off,,,,,128,0,11,,,,,3,,57,100
24512,note_off,,,,,128,0,8,,,,,0,,76,100
24512,note_off,,,,,128,0,13,,,,,5,,61,100
24512,note_off,,,,,128,0,14,,,,,5,,57,100
24512,note_off,,,,,128,0,12,,,,,4,,45,100
24576,note_on,,,,,64,0,8,,,,,0,,81,100
24576,note_on,,,,,512,0,9,,,,,1,,61,80
24576,note_on,,,,,512,0,10,,,,,2,,61,80
24704,note_off,,,,,128,0,8,,,,,0,,81,100
24768,note_on,,,,,256,0,13,,,,,5,,67,100
24768,note_on,,,,,256,0,14,,,,,5,,64,100
24768,note_on,,,,,64,0,8,,,,,0,,79,100
24768,note_on,,,,,256,0,11,,,,,3,,64,80
24768,note_on,,,,,256,0,12,,,,,4,,52,80
24768,note_on,,,,,0,0,13,,,,,5,,73,100
24832,note_off,,,,,256,0,10,,,,,2,,61,100
24832,note_off,,,,,64,0,8,,,,,0,,79,100
24832,note_off,,,,,256,0,9,,,,,1,,61,100
24864,note_on,,,,,32,0,8,,,,,0,,77,100
24896,note_off,,,,,128,0,11,,,,,3,,64,100
24896,note_off,,,,,128,0,14,,,,,5,,64,100
24896,note_off,,,,,128,0,13,,,,,5,,67,100
24896,note_off,,,,,128,0,12,,,,,4,,52,100
24896,note_off,,,,,0,0,13,,,,,5,,73,100
24928,note_off,,,,,64,0,8,,,,,0,,77,100
24960,note_on,,,,,64,0,13,,,,,5,,64,100
24960,note_on,,,,,64,0,14,,,,,5,,61,100
24960,note_on,,,,,32,0,8,,,,,0,,76,100
24960,note_on,,,,,0,0,13,,,,,5,,67,100
24960,note_on,,,,,64,0,12,,,,,4,,49,80
24960,note_on,,,,,64,0,11,,,,,3,,61,80
25088,note_off,,,,,128,0,11,,,,,3,,61,100
25088,note_off,,,,,0,0,13,,,,,5,,67,100
25088,note_off,,,,,128,0,14,,,,,5,,61,100
25088,note_off,,,,,128,0,12,,,,,4,,49,100
25088,note_off,,,,,128,0,13,,,,,5,,64,100
25088,note_off,,,,,128,0,8,,,,,0,,76,100
25152,note_on,,,,,64,0,11,,,,,3,,57,80
25152,note_on,,,,,64,0,8,,,,,0,,76,100
25152,note_on,,,,,64,0,12,,,,,4,,45,80
25152,note_on,,,,,64,0,14,,,,,5,,57,100
25152,note_on,,,,,64,0,13,,,,,5,,61,100
25152,note_on,,,,,0,0,13,,,,,5,,64,100
25280,note_off,,,,,128,0,11,,,,,3,,57,100
25280,note_off,,,,,128,0,14,,,,,5,,57,100
25280,note_off,,,,,128,0,13,,,,,5,,61,100
25280,note_off,,,,,128,0,8,,,,,0,,76,100
25280,note_off,,,,,128,0,12,,,,,4,,45,100
25280,note_off,,,,,0,0,13,,,,,5,,64,100
25344,note_on,,,,,64,0,8,,,,,0,,82,100
25344,note_on,,,,,512,0,9,,,,,1,,61,80
25344,note_on,,,,,512,0,10,,,,,2,,61,80
25472,note_off,,,,,128,0,8,,,,,0,,82,100
25536,note_on,,,,,256,0,14,,,,,5,,55,100
25536,note_on,,,,,0,0,13,,,,,5,,64,100
25536,note_on,,,,,256,0,12,,,,,4,,43,80
25536,note_on,,,,,64,0,8,,,,,0,,79,100
25536,note_on,,,,,256,0,11,,,,,3,,55,80
25536,note_on,,,,,256,0,13,,,,,5,,61,100
25600,note_off,,,,,256,0,10,,,,,2,,61,100
25600,note_off,,,,,64,0,8,,,,,0,,79,100
25600,note_off,,,,,256,0,9,,,,,1,,61,100
25632,note_on,,,,,32,0,8,,,,,0,,77,100
25664,note_off,,,,,128,0,14,,,,,5,,55,100
25664,note_off,,,,,128,0,13,,,,,5,,61,100
25664,note_off,,,,,0,0,13,,,,,5,,64,100
25664,note_off,,,,,128,0,12,,,,,4,,43,100
25664,note_off,,,,,128,0,11,,,,,3,,55,100
25696,note_off,,,,,64,0,8,,,,,0,,77,100
25728,note_on,,,,,64,0,14,,,,,5,,49,100
25728,note_on,,,,,64,0,13,,,,,5,,55,100
25728,note_on,,,,,0,0,13,,,,,5,,61,100
25728,note_on,,,,,64,0,12,,,,,4,,37,80
25728,note_on,,,,,64,0,11,,,,,3,,49,80
25728,note_on,,,,,32,0,8,,,,,0,,76,100
25856,note_off,,,,,128,0,12,,,,,4,,37,100
25856,note_off,,,,,128,0,13,,,,,5,,55,100
25856,note_off,,,,,128,0,14,,,,,5,,49,100
25856,note_off,,,,,128,0,11,,,,,3,,49,100
25856,note_off,,,,,128,0,8,,,,,0,,76,100
25856,note_off,,,,,0,0,13,,,,,5,,61,100
25920,note_on,,,,,64,0,8,,,,,0,,76,100
25920,note_on,,,,,64,0,13,,,,,5,,64,100
25920,note_on,,,,,0,0,13,,,,,5,,61,100
25920,note_on,,,,,64,0,11,,,,,3,,45,80
25920,note_on,,,,,64,0,14,,,,,5,,45,100
25920,note_on,,,,,64,0,12,,,,,4,,33,80
26048,note_off,,,,,128,0,8,,,,,0,,76,100
26048,note_off,,,,,128,0,13,,,,,5,,64,100
26048,note_off,,,,,0,0,13,,,,,5,,61,100
26048,note_off,,,,,128,0,11,,,,,3,,45,100
26048,note_off,,,,,128,0,14,,,,,5,,45,100
26048,note_off,,,,,128,0,12,,,,,4,,33,100
26112,note_on,,,,,64,0,8,,,,,0,,81,100
26112,note_on,,,,,512,0,9,,,,,1,,61,80
26112,note_on,,,,,512,0,10,,,,,2,,61,80
26300,note_off,,,,,188,0,8,,,,,0,,81,100
26304,note_on,,,,,256,0,14,,,,,5,,57,100
26304,note_on,,,,,256,0,12,,,,,4,,45,80
26304,note_on,,,,,256,0,11,,,,,3,,57,80
26304,note_on,,,,,4,0,8,,,,,0,,73,100
26304,note_on,,,,,256,0,13,,,,,5,,64,100
26304,note_on,,,,,0,0,13,,,,,5,,73,100
26368,note_off,,,,,256,0,9,,,,,1,,61,100
26368,note_off,,,,,256,0,10,,,,,2,,61,100
26432,note_off,,,,,128,0,8,,,,,0,,73,100
26432,note_off,,,,,128,0,14,,,,,5,,57,100
26432,note_off,,,,,0,0,13,,,,,5,,73,100
26432,note_off,,,,,128,0,11,,,,,3,,57,100
26432,note_off,,,,,128,0,12,,,,,4,,45,100
26432,note_off,,,,,128,0,13,,,,,5,,64,100
26496,note_on,,,,,0,0,13,,,,,5,,69,100
26496,note_on,,,,,64,0,12,,,,,4,,41,80
26496,note_on,,,,,64,0,14,,,,,5,,53,100
26496,note_on,,,,,64,0,11,,,,,3,,53,80
26496,note_on,,,,,64,0,8,,,,,0,,74,100
26496,note_on,,,,,64,0,13,,,,,5,,62,100
26624,note_off,,,,,128,0,13,,,,,5,,62,100
26624,note_off,,,,,0,0,13,,,,,5,,69,100
26624,note_off,,,,,128,0,14,,,,,5,,53,100
26624,note_off,,,,,128,0,11,,,,,3,,53,100
26624,note_off,,,,,128,0,12,,,,,4,,41,100
26684,note_off,,,,,188,0,8,,,,,0,,74,100
26688,note_on,,,,,4,0,8,,,,,0,,65,100
26688,note_on,,,,,0,0,13,,,,,5,,65,100
26688,note_on,,,,,64,0,12,,,,,4,,38,80
26688,note_on,,,,,64,0,14,,,,,5,,50,100
26688,note_on,,,,,64,0,13,,,,,5,,57,100
26688,note_on,,,,,64,0,11,,,,,3,,50,80
26816,note_off,,,,,128,0,11,,,,,3,,50,100
26816,note_off,,,,,128,0,8,,,,,0,,65,100
26816,note_off,,,,,128,0,13,,,,,5,,57,100
26816,note_off,,,,,128,0,12,,,,,4,,38,100
26816,note_off,,,,,128,0,14,,,,,5,,50,100
26816,note_off,,,,,0,0,13,,,,,5,,65,100
26880,note_on,,,,,64,0,12,,,,,4,,40,80
26880,note_on,,,,,64,0,13,,,,,5,,59,100
26880,note_on,,,,,0,0,13,,,,,5,,62,100
26880,note_on,,,,,64,0,11,,,,,3,,52,80
26880,note_on,,,,,64,0,8,,,,,0,,67,100
26880,note_on,,,,,64,0,14,,,,,5,,52,100
27008,note_off,,,,,128,0,8,,,,,0,,67,100
27008,note_off,,,,,128,0,11,,,,,3,,52,100
27008,note_off,,,,,128,0,13,,,,,5,,59,100
27008,note_off,,,,,0,0,13,,,,,5,,62,100
27008,note_off,,,,,128,0,14,,,,,5,,52,100
27008,note_off,,,,,128,0,12,,,,,4,,40,100
27072,note_on,,,,,64,0,11,,,,,3,,53,80
27072,note_on,,,,,64,0,14,,,,,5,,53,100
27072,note_on,,,,,64,0,8,,,,,0,,74,100
27072,note_on,,,,,64,0,13,,,,,5,,57,100
27072,note_on,,,,,64,0,12,,,,,4,,41,80
27136,note_off,,,,,64,0,13,,,,,5,,57,100
27136,note_off,,,,,64,0,14,,,,,5,,53,100
27136,note_off,,,,,64,0,12,,,,,4,,41,100
27136,note_off,,,,,64,0,11,,,,,3,,53,100
27168,note_on,,,,,32,0,13,,,,,5,,59,100
27168,note_on,,,,,32,0,12,,,,,4,,43,80
27168,note_on,,,,,32,0,14,,,,,5,,55,100
27168,note_on,,,,,32,0,11,,,,,3,,55,80
27200,note_off,,,,,128,0,8,,,,,0,,74,100
27232,note_off,,,,,64,0,12,,,,,4,,43,100
27232,note_off,,,,,64,0,13,,,,,5,,59,100
27232,note_off,,,,,64,0,11,,,,,3,,55,100
27232,note_off,,,,,64,0,14,,,,,5,,55,100
27264,note_on,,,,,32,0,11,,,,,3,,57,80
27264,note_on,,,,,32,0,12,,,,,4,,45,80
27264,note_on,,,,,32,0,14,,,,,5,,57,100
27264,note_on,,,,,32,0,13,,,,,5,,64,100
27264,note_on,,,,,0,0,13,,,,,5,,62,100
27264,note_on,,,,,64,0,8,,,,,0,,57,100
27392,note_off,,,,,128,0,12,,,,,4,,45,100
27392,note_off,,,,,128,0,13,,,,,5,,62,100
27392,note_off,,,,,128,0,11,,,,,3,,57,100
27392,note_off,,,,,128,0,14,,,,,5,,57,100
27392,note_off,,,,,128,0,8,,,,,0,,57,100
27456,note_on,,,,,64,0,13,,,,,5,,61,100
27456,note_on,,,,,64,0,8,,,,,0,,73,100
27456,note_on,,,,,64,0,14,,,,,5,,45,100
27456,note_on,,,,,64,0,11,,,,,3,,45,80
27456,note_on,,,,,64,0,12,,,,,4,,33,80
27520,note_off,,,,,64,0,13,,,,,5,,64,100
27584,note_off,,,,,128,0,14,,,,,5,,45,100
27584,note_off,,,,,64,0,13,,,,,5,,61,100
27584,note_off,,,,,128,0,11,,,,,3,,45,100
27584,note_off,,,,,128,0,12,,,,,4,,33,100
27584,note_off,,,,,128,0,8,,,,,0,,73,100
27648,note_on,,,,,64,0,14,,,,,5,,50,100
27648,note_on,,,,,64,0,13,,,,,5,,57,100
27648,note_on,,,,,0,0,13,,,,,5,,65,100
27648,note_on,,,,,0,0,13,,,,,5,,62,100
27648,note_on,,,,,64,0,8,,,,,0,,74,100
27648,note_on,,,,,64,0,11,,,,,3,,50,80
27648,note_on,,,,,64,0,12,,,,,4,,38,80
27776,note_off,,,,,128,0,13,,,,,5,,57,100
27776,note_off,,,,,0,0,13,,,,,5,,65,100
27776,note_off,,,,,0,0,13,,,,,5,,62,100
27776,note_off,,,,,128,0,14,,,,,5,,50,100
27776,note_off,,,,,128,0,11,,,,,3,,50,100
27776,note_off,,,,,128,0,12,,,,,4,,38,100
27840,note_on,,,,,64,0,14,,,,,5,,62,100
27840,note_on,,,,,64,0,11,,,,,3,,62,80
27840,note_on,,,,,0,0,13,,,,,5,,69,100
27840,note_on,,,,,64,0,13,,,,,5,,65,100
27840,note_on,,,,,64,0,12,,,,,4,,50,80
27904,note_off,,,,,256,0,8,,,,,0,,74,100
27968,note_off,,,,,0,0,13,,,,,5,,69,100
27968,note_off,,,,,128,0,13,,,,,5,,65,100
27968,note_off,,,,,128,0,14,,,,,5,,62,100
27968,note_off,,,,,128,0,11,,,,,3,,62,100
27968,note_off,,,,,128,0,12,,,,,4,,50,100
28032,note_on,,,,,64,0,12,,,,,4,,41,80
28032,note_on,,,,,64,0,14,,,,,5,,53,100
28032,note_on,,,,,0,0,13,,,,,5,,62,100
28032,note_on,,,,,64,0,11,,,,,3,,53,80
28032,note_on,,,,,64,0,13,,,,,5,,65,100
28160,note_off,,,,,128,0,11,,,,,3,,53,100
28160,note_off,,,,,0,0,13,,,,,5,,62,100
28160,note_off,,,,,128,0,13,,,,,5,,65,100
28160,note_off,,,,,128,0,14,,,,,5,,53,100
28160,note_off,,,,,128,0,12,,,,,4,,41,100
28224,note_on,,,,,64,0,14,,,,,5,,50,100
28224,note_on,,,,,64,0,11,,,,,3,,50,80
28224,note_on,,,,,320,0,8,,,,,0,,74,100
28224,note_on,,,,,0,0,13,,,,,5,,57,100
28224,note_on,,,,,64,0,13,,,,,5,,65,100
28224,note_on,,,,,64,0,12,,,,,4,,38,80
28352,note_off,,,,,128,0,13,,,,,5,,65,100
28352,note_off,,,,,0,0,13,,,,,5,,57,100
28352,note_off,,,,,128,0,8,,,,,0,,74,100
28352,note_off,,,,,128,0,11,,,,,3,,50,100
28352,note_off,,,,,128,0,14,,,,,5,,50,100
28352,note_off,,,,,128,0,12,,,,,4,,38,100
28416,note_on,,,,,64,0,8,,,,,0,,74,100
28416,note_on,,,,,2048,0,9,,,,,1,,59,80
28416,note_on,,,,,2048,0,10,,,,,2,,59,80
28544,note_off,,,,,128,0,8,,,,,0,,74,100
28608,note_on,,,,,256,0,12,,,,,4,,50,80
28608,note_on,,,,,64,0,8,,,,,0,,77,100
28608,note_on,,,,,256,0,11,,,,,3,,62,80
28608,note_on,,,,,0,0,13,,,,,5,,71,100
28608,note_on,,,,,256,0,13,,,,,5,,65,100
28608,note_on,,,,,256,0,14,,,,,5,,62,100
28672,note_off,,,,,256,0,9,,,,,1,,59,100
28672,note_off,,,,,256,0,10,,,,,2,,59,100
28672,note_off,,,,,64,0,8,,,,,0,,77,100
28704,note_on,,,,,32,0,8,,,,,0,,76,100
28736,note_off,,,,,128,0,13,,,,,5,,65,100
28736,note_off,,,,,0,0,13,,,,,5,,71,100
28736,note_off,,,,,128,0,14,,,,,5,,62,100
28736,note_off,,,,,128,0,12,,,,,4,,50,100
28736,note_off,,,,,128,0,11,,,,,3,,62,100
28768,note_off,,,,,64,0,8,,,,,0,,76,100
28800,note_on,,,,,64,0,11,,,,,3,,59,80
28800,note_on,,,,,0,0,13,,,,,5,,62,100
28800,note_on,,,,,32,0,8,,,,,0,,74,100
28800,note_on,,,,,64,0,13,,,,,5,,65,100
28800,note_on,,,,,64,0,14,,,,,5,,59,100
28800,note_on,,,,,64,0,12,,,,,4,,47,80
28928,note_off,,,,,128,0,13,,,,,5,,65,100
28928,note_off,,,,,128,0,11,,,,,3,,59,100
28928,note_off,,,,,128,0,8,,,,,0,,74,100
28928,note_off,,,,,128,0,14,,,,,5,,59,100
28928,note_off,,,,,128,0,12,,,,,4,,47,100
28928,note_off,,,,,0,0,13,,,,,5,,62,100
28992,note_on,,,,,64,0,8,,,,,0,,74,100
28992,note_on,,,,,64,0,12,,,,,4,,43,80
28992,note_on,,,,,64,0,14,,,,,5,,55,100
28992,note_on,,,,,64,0,11,,,,,3,,55,80
28992,note_on,,,,,64,0,13,,,,,5,,59,100
28992,note_on,,,,,0,0,13,,,,,5,,62,100
29120,note_off,,,,,128,0,13,,,,,5,,59,100
29120,note_off,,,,,0,0,13,,,,,5,,62,100
29120,note_off,,,,,128,0,14,,,,,5,,55,100
29120,note_off,,,,,128,0,12,,,,,4,,43,100
29120,note_off,,,,,128,0,8,,,,,0,,74,100
29120,note_off,,,,,128,0,11,,,,,3,,55,100
29184,note_on,,,,,512,0,10,,,,,2,,59,80
29184,note_on,,,,,64,0,8,,,,,0,,79,100
29184,note_on,,,,,512,0,9,,,,,1,,59,80
29312,note_off,,,,,128,0,8,,,,,0,,79,100
29376,note_on,,,,,256,0,13,,,,,5,,65,100
29376,note_on,,,,,0,0,13,,,,,5,,71,100
29376,note_on,,,,,256,0,12,,,,,4,,50,80
29376,note_on,,,,,256,0,11,,,,,3,,62,80
29376,note_on,,,,,256,0,14,,,,,5,,62,100
29376,note_on,,,,,64,0,8,,,,,0,,77,100
29440,note_off,,,,,256,0,10,,,,,2,,59,100
29440,note_off,,,,,64,0,8,,,,,0,,77,100
29440,note_off,,,,,256,0,9,,,,,1,,59,100
29472,note_on,,,,,32,0,8,,,,,0,,76,100
29504,note_off,,,,,128,0,11,,,,,3,,62,100
29504,note_off,,,,,0,0,13,,,,,5,,71,100
29504,note_off,,,,,128,0,13,,,,,5,,65,100
29504,note_off,,,,,128,0,12,,,,,4,,50,100
29504,note_off,,,,,128,0,14,,,,,5,,62,100
29536,note_off,,,,,64,0,8,,,,,0,,76,100
29568,note_on,,,,,32,0,8,,,,,0,,74,100
29568,note_on,,,,,64,0,13,,,,,5,,65,100
29568,note_on,,,,,0,0,13,,,,,5,,62,100
29568,note_on,,,,,64,0,12,,,,,4,,47,80
29568,note_on,,,,,64,0,11,,,,,3,,59,80
29568,note_on,,,,,64,0,14,,,,,5,,59,100
29696,note_off,,,,,128,0,11,,,,,3,,59,100
29696,note_off,,,,,128,0,12,,,,,4,,47,100
29696,note_off,,,,,128,0,14,,,,,5,,59,100
29696,note_off,,,,,128,0,8,,,,,0,,74,100
29696,note_off,,,,,128,0,13,,,,,5,,65,100
29696,note_off,,,,,0,0,13,,,,,5,,62,100
29760,note_on,,,,,64,0,12,,,,,4,,43,80
29760,note_on,,,,,64,0,8,,,,,0,,74,100
29760,note_on,,,,,64,0,11,,,,,3,,55,80
29760,note_on,,,,,64,0,14,,,,,5,,55,100
29760,note_on,,,,,64,0,13,,,,,5,,59,100
29760,note_on,,,,,0,0,13,,,,,5,,62,100
29888,note_off,,,,,0,0,13,,,,,5,,62,100
29888,note_off,,,,,128,0,13,,,,,5,,59,100
29888,note_off,,,,,128,0,8,,,,,0,,74,100
29888,note_off,,,,,128,0,14,,,,,5,,55,100
29888,note_off,,,,,128,0,11,,,,,3,,55,100
29888,note_off,,,,,128,0,12,,,,,4,,43,100
29952,note_on,,,,,64,0,8,,,,,0,,81,100
29952,note_on,,,,,512,0,10,,,,,2,,59,80
29952,note_on,,,,,512,0,9,,,,,1,,59,80
30080,note_off,,,,,128,0,8,,,,,0,,81,100
30144,note_on,,,,,0,0,13,,,,,5,,57,100
30144,note_on,,,,,64,0,8,,,,,0,,77,100
30144,note_on,,,,,256,0,14,,,,,5,,53,100
30144,note_on,,,,,256,0,11,,,,,3,,53,80
30144,note_on,,,,,256,0,13,,,,,5,,62,100
30144,note_on,,,,,256,0,12,,,,,4,,41,80
30208,note_off,,,,,256,0,9,,,,,1,,59,100
30208,note_off,,,,,256,0,10,,,,,2,,59,100
30208,note_off,,,,,64,0,8,,,,,0,,77,100
30240,note_on,,,,,32,0,8,,,,,0,,76,100
30272,note_off,,,,,128,0,14,,,,,5,,53,100
30272,note_off,,,,,128,0,12,,,,,4,,41,100
30272,note_off,,,,,0,0,13,,,,,5,,57,100
30272,note_off,,,,,128,0,13,,,,,5,,62,100
30272,note_off,,,,,128,0,11,,,,,3,,53,100
30304,note_off,,,,,64,0,8,,,,,0,,76,100
30336,note_on,,,,,64,0,12,,,,,4,,35,80
30336,note_on,,,,,64,0,11,,,,,3,,47,80
30336,note_on,,,,,32,0,8,,,,,0,,74,100
30336,note_on,,,,,64,0,14,,,,,5,,47,100
30336,note_on,,,,,64,0,13,,,,,5,,65,100
30336,note_on,,,,,0,0,13,,,,,5,,62,100
30464,note_off,,,,,128,0,13,,,,,5,,65,100
30464,note_off,,,,,0,0,13,,,,,5,,62,100
30464,note_off,,,,,128,0,8,,,,,0,,74,100
30464,note_off,,,,,128,0,11,,,,,3,,47,100
30464,note_off,,,,,128,0,14,,,,,5,,47,100
30464,note_off,,,,,128,0,12,,,,,4,,35,100
30528,note_on,,,,,64,0,14,,,,,5,,43,100
30528,note_on,,,,,64,0,8,,,,,0,,74,100
30528,note_on,,,,,64,0,11,,,,,3,,43,80
30528,note_on,,,,,64,0,12,,,,,4,,43,80
30528,note_on,,,,,0,0,13,,,,,5,,62,100
30528,note_on,,,,,64,0,13,,,,,5,,59,100
30656,note_off,,,,,128,0,13,,,,,5,,59,100
30656,note_off,,,,,0,0,13,,,,,5,,62,100
30656,note_off,,,,,128,0,14,,,,,5,,43,100
30656,note_off,,,,,128,0,12,,,,,4,,43,100
30656,note_off,,,,,128,0,8,,,,,0,,74,100
30656,note_off,,,,,128,0,11,,,,,3,,43,100
30720,note_on,,,,,64,0,8,,,,,0,,79,100
30720,note_on,,,,,512,0,9,,,,,1,,59,80
30720,note_on,,,,,512,0,10,,,,,2,,59,80
30908,note_off,,,,,188,0,8,,,,,0,,79,100
30912,note_on,,,,,256,0,11,,,,,3,,55,80
30912,note_on,,,,,256,0,14,,,,,5,,55,100
30912,note_on,,,,,256,0,13,,,,,5,,62,100
30912,note_on,,,,,0,0,13,,,,,5,,71,100
30912,note_on,,,,,256,0,12,,,,,4,,43,80
30912,note_on,,,,,4,0,8,,,,,0,,71,100
30976,note_off,,,,,256,0,9,,,,,1,,59,100
30976,note_off,,,,,256,0,10,,,,,2,,59,100
31040,note_off,,,,,128,0,13,,,,,5,,62,100
31040,note_off,,,,,128,0,8,,,,,0,,71,100
31040,note_off,,,,,128,0,12,,,,,4,,43,100
31040,note_off,,,,,128,0,11,,,,,3,,55,100
31040,note_off,,,,,128,0,14,,,,,5,,55,100
31040,note_off,,,,,0,0,13,,,,,5,,71,100
31104,note_on,,,,,64,0,13,,,,,5,,60,100
31104,note_on,,,,,64,0,12,,,,,4,,40,81
31104,note_on,,,,,64,0,8,,,,,0,,72,100
31104,note_on,,,,,64,0,11,,,,,3,,52,81
31104,note_on,,,,,64,0,14,,,,,5,,52,100
31104,note_on,,,,,0,0,13,,,,,5,,67,100
31232,note_off,,,,,128,0,11,,,,,3,,52,100
31232,note_off,,,,,0,0,13,,,,,5,,67,100
31232,note_off,,,,,128,0,14,,,,,5,,52,100
31232,note_off,,,,,128,0,12,,,,,4,,40,100
31232,note_off,,,,,128,0,13,,,,,5,,60,100
31292,note_off,,,,,188,0,8,,,,,0,,72,100
31296,note_on,,,,,64,0,14,,,,,5,,48,100
31296,note_on,,,,,64,0,13,,,,,5,,55,100
31296,note_on,,,,,0,0,13,,,,,5,,64,100
31296,note_on,,,,,64,0,12,,,,,4,,36,82
31296,note_on,,,,,64,0,11,,,,,3,,48,82
31296,note_on,,,,,4,0,8,,,,,0,,64,100
31424,note_off,,,,,128,0,14,,,,,5,,48,100
31424,note_off,,,,,128,0,12,,,,,4,,36,100
31424,note_off,,,,,128,0,11,,,,,3,,48,100
31424,note_off,,,,,0,0,13,,,,,5,,64,100
31424,note_off,,,,,128,0,13,,,,,5,,55,100
31424,note_off,,,,,128,0,8,,,,,0,,64,100
31488,note_on,,,,,64,0,8,,,,,0,,65,100
31488,note_on,,,,,0,0,13,,,,,5,,60,100
31488,note_on,,,,,64,0,13,,,,,5,,57,100
31488,note_on,,,,,64,0,12,,,,,4,,38,84
31488,note_on,,,,,64,0,11,,,,,3,,50,84
31488,note_on,,,,,64,0,14,,,,,5,,50,100
31616,note_off,,,,,128,0,8,,,,,0,,65,100
31616,note_off,,,,,128,0,13,,,,,5,,57,100
31616,note_off,,,,,128,0,12,,,,,4,,38,100
31616,note_off,,,,,128,0,11,,,,,3,,50,100
31616,note_off,,,,,128,0,14,,,,,5,,50,100
31616,note_off,,,,,0,0,13,,,,,5,,60,100
31680,note_on,,,,,64,0,8,,,,,0,,72,100
31680,note_on,,,,,64,0,14,,,,,5,,52,100
31680,note_on,,,,,64,0,11,,,,,3,,52,85
31680,note_on,,,,,64,0,13,,,,,5,,55,100
31680,note_on,,,,,64,0,12,,,,,4,,40,85
31744,note_off,,,,,64,0,11,,,,,3,,52,100
31744,note_off,,,,,64,0,12,,,,,4,,40,100
31744,note_off,,,,,64,0,13,,,,,5,,55,100
31744,note_off,,,,,64,0,14,,,,,5,,52,100
31776,note_on,,,,,32,0,12,,,,,4,,41,86
31776,note_on,,,,,32,0,11,,,,,3,,53,86
31776,note_on,,,,,32,0,13,,,,,5,,57,100
31776,note_on,,,,,32,0,14,,,,,5,,53,100
31808,note_off,,,,,128,0,8,,,,,0,,72,100
31840,note_off,,,,,64,0,14,,,,,5,,53,100
31840,note_off,,,,,64,0,12,,,,,4,,41,100
31840,note_off,,,,,64,0,11,,,,,3,,53,100
31840,note_off,,,,,64,0,13,,,,,5,,57,100
31872,note_on,,,,,32,0,14,,,,,5,,55,100
31872,note_on,,,,,32,0,11,,,,,3,,55,87
31872,note_on,,,,,64,0,8,,,,,0,,55,100
31872,note_on,,,,,32,0,13,,,,,5,,62,100
31872,note_on,,,,,0,0,13,,,,,5,,60,100
31872,note_on,,,,,32,0,12,,,,,4,,43,87
32000,note_off,,,,,128,0,13,,,,,5,,60,100
32000,note_off,,,,,128,0,8,,,,,0,,55,100
32000,note_off,,,,,128,0,11,,,,,3,,55,100
32000,note_off,,,,,128,0,12,,,,,4,,43,100
32000,note_off,,,,,128,0,14,,,,,5,,55,100
32064,note_on,,,,,64,0,14,,,,,5,,43,100
32064,note_on,,,,,64,0,8,,,,,0,,71,100
32064,note_on,,,,,64,0,11,,,,,3,,43,88
32064,note_on,,,,,64,0,12,,,,,4,,43,88
32064,note_on,,,,,64,0,13,,,,,5,,59,100
32128,note_off,,,,,64,0,13,,,,,5,,62,100
32192,note_off,,,,,128,0,8,,,,,0,,71,100
32192,note_off,,,,,128,0,11,,,,,3,,43,100
32192,note_off,,,,,128,0,14,,,,,5,,43,100
32192,note_off,,,,,128,0,12,,,,,4,,43,100
32192,note_off,,,,,64,0,13,,,,,5,,59,100
32256,note_on,,,,,64,0,11,,,,,3,,48,89
32256,note_on,,,,,64,0,14,,,,,5,,48,100
32256,note_on,,,,,64,0,8,,,,,0,,72,100
32256,note_on,,,,,64,0,13,,,,,5,,55,100
32256,note_on,,,,,0,0,13,,,,,5,,64,100
32256,note_on,,,,,64,0,12,,,,,4,,36,89
32256,note_on,,,,,0,0,13,,,,,5,,60,100
32384,note_off,,,,,128,0,14,,,,,5,,48,100
32384,note_off,,,,,128,0,12,,,,,4,,36,100
32384,note_off,,,,,128,0,13,,,,,5,,55,100
32384,note_off,,,,,0,0,13,,,,,5,,64,100
32384,note_off,,,,,0,0,13,,,,,5,,60,100
32384,note_off,,,,,128,0,11,,,,,3,,48,100
32448,note_on,,,,,64,0,12,,,,,4,,52,70
32448,note_on,,,,,64,0,13,,,,,5,,67,100
32448,note_on,,,,,0,0,13,,,,,5,,72,100
32448,note_on,,,,,64,0,11,,,,,3,,64,70
32448,note_on,,,,,64,0,14,,,,,5,,64,100
32512,note_off,,,,,256,0,8,,,,,0,,72,100
32576,note_off,,,,,128,0,12,,,,,4,,52,100
32576,note_off,,,,,128,0,11,,,,,3,,64,100
32576,note_off,,,,,128,0,13,,,,,5,,67,100
32576,note_off,,,,,0,0,13,,,,,5,,72,100
32576,note_off,,,,,128,0,14,,,,,5,,64,100
32640,note_on,,,,,64,0,12,,,,,4,,48,66
32640,note_on,,,,,64,0,11,,,,,3,,60,66
32640,note_on,,,,,0,0,13,,,,,5,,67,100
32640,note_on,,,,,64,0,13,,,,,5,,64,100
32640,note_on,,,,,64,0,14,,,,,5,,60,100
32768,note_off,,,,,128,0,14,,,,,5,,60,100
32768,note_off,,,,,128,0,12,,,,,4,,48,100
32768,note_off,,,,,128,0,13,,,,,5,,64,100
32768,note_off,,,,,0,0,13,,,,,5,,67,100
32768,note_off,,,,,128,0,11,,,,,3,,60,100
32832,note_on,,,,,64,0,13,,,,,5,,60,100
32832,note_on,,,,,0,0,13,,,,,5,,64,100
32832,note_on,,,,,64,0,11,,,,,3,,57,61
32832,note_on,,,,,64,0,12,,,,,4,,45,61
32832,note_on,,,,,1856,0,10,,,,,2,,72,61
32832,note_on,,,,,64,0,14,,,,,5,,57,100
32832,note_on,,,,,1856,0,9,,,,,1,,76,61
32960,note_off,,,,,128,0,12,,,,,4,,45,100
32960,note_off,,,,,0,0,13,,,,,5,,64,100
32960,note_off,,,,,128,0,13,,,,,5,,60,100
32960,note_off,,,,,128,0,14,,,,,5,,57,100
32960,note_off,,,,,128,0,10,,,,,2,,72,100
32960,note_off,,,,,128,0,11,,,,,3,,57,100
32960,note_off,,,,,128,0,9,,,,,1,,76,100
33024,note_on,,,,,64,0,9,,,,,1,,76,60
33024,note_on,,,,,64,0,10,,,,,2,,72,60
33152,note_off,,,,,128,0,9,,,,,1,,76,100
33152,note_off,,,,,128,0,10,,,,,2,,72,100
33216,note_on,,,,,256,0,14,,,,,5,,57,100
33216,note_on,,,,,64,0,10,,,,,2,,69,60
33216,note_on,,,,,64,0,9,,,,,1,,72,60
33216,note_on,,,,,256,0,13,,,,,5,,60,100
33216,note_on,,,,,0,0,13,,,,,5,,64,100
33216,note_on,,,,,256,0,12,,,,,4,,45,60
33216,note_on,,,,,256,0,11,,,,,3,,57,60
33280,note_off,,,,,64,0,9,,,,,1,,72,100
33312,note_on,,,,,32,0,9,,,,,1,,74,60
33344,note_off,,,,,128,0,12,,,,,4,,45,100
33344,note_off,,,,,128,0,10,,,,,2,,69,100
33344,note_off,,,,,128,0,13,,,,,5,,60,100
33344,note_off,,,,,128,0,11,,,,,3,,57,100
33344,note_off,,,,,0,0,13,,,,,5,,64,100
33344,note_off,,,,,128,0,14,,,,,5,,57,100
33376,note_off,,,,,64,0,9,,,,,1,,74,100
33408,note_on,,,,,64,0,13,,,,,5,,64,100
33408,note_on,,,,,32,0,9,,,,,1,,76,60
33408,note_on,,,,,64,0,11,,,,,3,,60,60
33408,note_on,,,,,0,0,13,,,,,5,,69,100
33408,note_on,,,,,64,0,14,,,,,5,,60,100
33408,note_on,,,,,64,0,12,,,,,4,,48,60
33536,note_off,,,,,128,0,14,,,,,5,,60,100
33536,note_off,,,,,0,0,13,,,,,5,,69,100
33536,note_off,,,,,128,0,13,,,,,5,,64,100
33536,note_off,,,,,128,0,11,,,,,3,,60,100
33536,note_off,,,,,128,0,12,,,,,4,,48,100
33536,note_off,,,,,128,0,9,,,,,1,,76,100
33600,note_on,,,,,64,0,13,,,,,5,,60,100
33600,note_on,,,,,0,0,13,,,,,5,,64,100
33600,note_on,,,,,64,0,12,,,,,4,,45,60
33600,note_on,,,,,64,0,14,,,,,5,,57,100
33600,note_on,,,,,64,0,11,,,,,3,,57,60
33600,note_on,,,,,256,0,10,,,,,2,,72,60
33600,note_on,,,,,64,0,9,,,,,1,,76,60
33728,note_off,,,,,128,0,10,,,,,2,,72,100
33728,note_off,,,,,0,0,13,,,,,5,,64,100
33728,note_off,,,,,128,0,13,,,,,5,,60,100
33728,note_off,,,,,128,0,11,,,,,3,,57,100
33728,note_off,,,,,128,0,9,,,,,1,,76,100
33728,note_off,,,,,128,0,14,,,,,5,,57,100
33728,note_off,,,,,128,0,12,,,,,4,,45,100
33792,note_on,,,,,64,0,9,,,,,1,,76,60
33792,note_on,,,,,64,0,10,,,,,2,,72,60
33920,note_off,,,,,128,0,9,,,,,1,,76,100
33920,note_off,,,,,128,0,10,,,,,2,,72,100
33984,note_on,,,,,256,0,13,,,,,5,,60,100
33984,note_on,,,,,0,0,13,,,,,5,,64,100
33984,note_on,,,,,256,0,11,,,,,3,,57,60
33984,note_on,,,,,256,0,12,,,,,4,,45,60
33984,note_on,,,,,64,0,9,,,,,1,,72,60
33984,note_on,,,,,64,0,10,,,,,2,,69,60
33984,note_on,,,,,256,0,14,,,,,5,,57,100
34048,note_off,,,,,64,0,9,,,,,1,,72,100
34080,note_on,,,,,32,0,9,,,,,1,,74,60
34112,note_off,,,,,128,0,12,,,,,4,,45,100
34112,note_off,,,,,0,0,13,,,,,5,,64,100
34112,note_off,,,,,128,0,14,,,,,5,,57,100
34112,note_off,,,,,128,0,10,,,,,2,,69,100
34112,note_off,,,,,128,0,13,,,,,5,,60,100
34112,note_off,,,,,128,0,11,,,,,3,,57,100
34144,note_off,,,,,64,0,9,,,,,1,,74,100
34176,note_on,,,,,32,0,9,,,,,1,,76,60
34176,note_on,,,,,64,0,12,,,,,4,,48,60
34176,note_on,,,,,0,0,13,,,,,5,,69,100
34176,note_on,,,,,64,0,14,,,,,5,,60,100
34176,note_on,,,,,64,0,13,,,,,5,,64,100
34176,note_on,,,,,64,0,11,,,,,3,,60,60
34304,note_off,,,,,128,0,12,,,,,4,,48,100
34304,note_off,,,,,128,0,9,,,,,1,,76,100
34304,note_off,,,,,0,0,13,,,,,5,,69,100
34304,note_off,,,,,128,0,13,,,,,5,,64,100
34304,note_off,,,,,128,0,14,,,,,5,,60,100
34304,note_off,,,,,128,0,11,,,,,3,,60,100
34368,note_on,,,,,64,0,14,,,,,5,,57,100
34368,note_on,,,,,64,0,11,,,,,3,,57,60
34368,note_on,,,,,0,0,13,,,,,5,,64,100
34368,note_on,,,,,256,0,10,,,,,2,,72,60
34368,note_on,,,,,64,0,12,,,,,4,,45,60
34368,note_on,,,,,64,0,13,,,,,5,,60,100
34368,note_on,,,,,64,0,9,,,,,1,,76,60
34496,note_off,,,,,128,0,11,,,,,3,,57,100
34496,note_off,,,,,128,0,12,,,,,4,,45,100
34496,note_off,,,,,128,0,13,,,,,5,,60,100
34496,note_off,,,,,0,0,13,,,,,5,,64,100
34496,note_off,,,,,128,0,14,,,,,5,,57,100
34496,note_off,,,,,128,0,9,,,,,1,,76,100
34496,note_off,,,,,128,0,10,,,,,2,,72,100
34560,note_on,,,,,64,0,9,,,,,1,,76,60
34560,note_on,,,,,64,0,10,,,,,2,,72,60
34688,note_off,,,,,128,0,9,,,,,1,,76,100
34688,note_off,,,,,128,0,10,,,,,2,,72,100
34752,note_on,,,,,64,0,9,,,,,1,,77,60
34752,note_on,,,,,256,0,12,,,,,4,,45,60
34752,note_on,,,,,0,0,13,,,,,5,,64,100
34752,note_on,,,,,256,0,13,,,,,5,,60,100
34752,note_on,,,,,64,0,10,,,,,2,,69,60
34752,note_on,,,,,256,0,11,,,,,3,,57,60
34752,note_on,,,,,256,0,14,,,,,5,,57,100
34816,note_off,,,,,64,0,9,,,,,1,,77,100
34848,note_on,,,,,32,0,9,,,,,1,,79,60
34880,note_off,,,,,128,0,10,,,,,2,,69,100
34880,note_off,,,,,128,0,12,,,,,4,,45,100
34880,note_off,,,,,0,0,13,,,,,5,,64,100
34880,note_off,,,,,128,0,13,,,,,5,,60,100
34880,note_off,,,,,128,0,11,,,,,3,,57,100
34880,note_off,,,,,128,0,14,,,,,5,,57,100
34912,note_off,,,,,64,0,9,,,,,1,,79,100
34944,note_on,,,,,0,0,13,,,,,5,,69,100
34944,note_on,,,,,64,0,12,,,,,4,,48,60
34944,note_on,,,,,64,0,13,,,,,5,,64,100
34944,note_on,,,,,64,0,14,,,,,5,,60,100
34944,note_on,,,,,32,0,9,,,,,1,,81,60
34944,note_on,,,,,64,0,11,,,,,3,,60,60
35072,note_off,,,,,128,0,14,,,,,5,,60,100
35072,note_off,,,,,0,0,13,,,,,5,,69,100
35072,note_off,,,,,128,0,13,,,,,5,,64,100
35072,note_off,,,,,128,0,11,,,,,3,,60,100
35072,note_off,,,,,128,0,9,,,,,1,,81,100
35072,note_off,,,,,128,0,12,,,,,4,,48,100
35136,note_on,,,,,64,0,13,,,,,5,,60,100
35136,note_on,,,,,64,0,9,,,,,1,,79,60
35136,note_on,,,,,256,0,10,,,,,2,,72,60
35136,note_on,,,,,64,0,14,,,,,5,,57,100
35136,note_on,,,,,0,0,13,,,,,5,,64,100
35136,note_on,,,,,64,0,12,,,,,4,,45,60
35136,note_on,,,,,64,0,11,,,,,3,,57,60
35200,note_off,,,,,64,0,9,,,,,1,,79,100
35232,note_on,,,,,32,0,9,,,,,1,,77,60
35264,note_off,,,,,128,0,12,,,,,4,,45,100
35264,note_off,,,,,128,0,11,,,,,3,,57,100
35264,note_off,,,,,128,0,10,,,,,2,,72,100
35264,note_off,,,,,128,0,14,,,,,5,,57,100
35264,note_off,,,,,128,0,13,,,,,5,,60,100
35264,note_off,,,,,0,0,13,,,,,5,,64,100
35296,note_off,,,,,64,0,9,,,,,1,,77,100
35328,note_on,,,,,32,0,9,,,,,1,,76,60
35328,note_on,,,,,64,0,10,,,,,2,,69,60
35456,note_off,,,,,128,0,9,,,,,1,,76,100
35456,note_off,,,,,128,0,10,,,,,2,,69,100
35520,note_on,,,,,256,0,13,,,,,5,,64,100
35520,note_on,,,,,256,0,14,,,,,5,,57,100
35520,note_on,,,,,256,0,12,,,,,4,,45,60
35520,note_on,,,,,0,0,13,,,,,5,,72,100
35520,note_on,,,,,64,0,9,,,,,1,,74,60
35520,note_on,,,,,256,0,11,,,,,3,,57,60
35520,note_on,,,,,64,0,10,,,,,2,,64,60
35584,note_off,,,,,64,0,9,,,,,1,,74,100
35616,note_on,,,,,32,0,9,,,,,1,,72,60
35648,note_off,,,,,128,0,12,,,,,4,,45,100
35648,note_off,,,,,128,0,14,,,,,5,,57,100
35648,note_off,,,,,0,0,13,,,,,5,,72,100
35648,note_off,,,,,128,0,13,,,,,5,,64,100
35648,note_off,,,,,128,0,11,,,,,3,,57,100
35648,note_off,,,,,128,0,10,,,,,2,,64,100
35680,note_off,,,,,64,0,9,,,,,1,,72,100
35712,note_on,,,,,64,0,12,,,,,4,,44,60
35712,note_on,,,,,64,0,11,,,,,3,,56,60
35712,note_on,,,,,64,0,13,,,,,5,,62,100
35712,note_on,,,,,0,0,13,,,,,5,,71,100
35712,note_on,,,,,32,0,9,,,,,1,,71,60
35712,note_on,,,,,64,0,14,,,,,5,,56,100
35840,note_off,,,,,128,0,12,,,,,4,,44,100
35840,note_off,,,,,128,0,9,,,,,1,,71,100
35840,note_off,,,,,128,0,11,,,,,3,,56,100
35840,note_off,,,,,0,0,13,,,,,5,,71,100
35840,note_off,,,,,128,0,14,,,,,5,,56,100
35840,note_off,,,,,128,0,13,,,,,5,,62,100
35904,note_on,,,,,256,0,10,,,,,2,,68,60
35904,note_on,,,,,0,0,13,,,,,5,,68,100
35904,note_on,,,,,64,0,12,,,,,4,,40,60
35904,note_on,,,,,64,0,13,,,,,5,,59,100
35904,note_on,,,,,64,0,14,,,,,5,,52,100
35904,note_on,,,,,64,0,9,,,,,1,,76,60
35904,note_on,,,,,64,0,11,,,,,3,,52,60
36032,note_off,,,,,128,0,13,,,,,5,,59,100
36032,note_off,,,,,128,0,12,,,,,4,,40,100
36032,note_off,,,,,0,0,13,,,,,5,,68,100
36032,note_off,,,,,128,0,14,,,,,5,,52,100
36032,note_off,,,,,128,0,10,,,,,2,,68,100
36032,note_off,,,,,128,0,11,,,,,3,,52,100
36032,note_off,,,,,128,0,9,,,,,1,,76,100
36096,note_on,,,,,64,0,9,,,,,1,,72,60
36096,note_on,,,,,64,0,11,,,,,3,,45,60
36096,note_on,,,,,64,0,14,,,,,5,,45,100
36096,note_on,,,,,0,0,13,,,,,5,,69,100
36096,note_on,,,,,64,0,12,,,,,4,,33,60
36096,note_on,,,,,0,0,13,,,,,5,,64,100
36096,note_on,,,,,64,0,13,,,,,5,,60,100
36096,note_on,,,,,64,0,10,,,,,2,,64,60
36224,note_off,,,,,0,0,13,,,,,5,,64,100
36224,note_off,,,,,128,0,14,,,,,5,,45,100
36224,note_off,,,,,128,0,9,,,,,1,,72,100
36224,note_off,,,,,128,0,10,,,,,2,,64,100
36224,note_off,,,,,128,0,11,,,,,3,,45,100
36224,note_off,,,,,0,0,13,,,,,5,,69,100
36224,note_off,,,,,128,0,13,,,,,5,,60,100
36224,note_off,,,,,128,0,12,,,,,4,,33,100
36288,note_on,,,,,64,0,13,,,,,5,,64,100
36288,note_on,,,,,64,0,10,,,,,2,,60,60
36288,note_on,,,,,64,0,14,,,,,5,,57,100
36288,note_on,,,,,64,0,9,,,,,1,,69,60
36288,note_on,,,,,64,0,12,,,,,4,,45,60
36288,note_on,,,,,0,0,13,,,,,5,,72,100
36288,note_on,,,,,64,0,11,,,,,3,,57,60
36416,note_off,,,,,128,0,12,,,,,4,,45,100
36416,note_off,,,,,128,0,10,,,,,2,,60,100
36416,note_off,,,,,128,0,9,,,,,1,,69,100
36416,note_off,,,,,128,0,11,,,,,3,,57,100
36416,note_off,,,,,128,0,14,,,,,5,,57,100
36416,note_off,,,,,0,0,13,,,,,5,,72,100
36416,note_off,,,,,128,0,13,,,,,5,,64,100
36480,note_on,,,,,64,0,13,,,,,5,,69,100
36480,note_on,,,,,64,0,10,,,,,2,,60,60
36480,note_on,,,,,64,0,14,,,,,5,,60,100
36480,note_on,,,,,0,0,13,,,,,5,,76,100
36480,note_on,,,,,64,0,11,,,,,3,,60,60
36480,note_on,,,,,64,0,9,,,,,1,,69,60
36480,note_on,,,,,64,0,12,,,,,4,,48,60
36608,note_off,,,,,128,0,12,,,,,4,,48,100
36608,note_off,,,,,0,0,13,,,,,5,,76,100
36608,note_off,,,,,128,0,13,,,,,5,,69,100
36608,note_off,,,,,128,0,11,,,,,3,,60,100
36608,note_off,,,,,128,0,14,,,,,5,,60,100
36672,note_on,,,,,64,0,13,,,,,5,,64,100
36672,note_on,,,,,64,0,11,,,,,3,,57,72
36672,note_on,,,,,64,0,14,,,,,5,,57,100
36672,note_on,,,,,4160,0,8,,,,,0,,76,100
36672,note_on,,,,,0,0,13,,,,,5,,72,100
36672,note_on,,,,,64,0,12,,,,,4,,45,72
36736,note_off,,,,,256,0,9,,,,,1,,69,100
36736,note_off,,,,,256,0,10,,,,,2,,60,100
36800,note_off,,,,,128,0,11,,,,,3,,57,100
36800,note_off,,,,,128,0,13,,,,,5,,64,100
36800,note_off,,,,,128,0,8,,,,,0,,76,100
36800,note_off,,,,,128,0,12,,,,,4,,45,100
36800,note_off,,,,,128,0,14,,,,,5,,57,100
36800,note_off,,,,,0,0,13,,,,,5,,72,100
36864,note_on,,,,,64,0,8,,,,,0,,76,100
36864,note_on,,,,,128,0,9,,,,,1,,57,84
36864,note_on,,,,,128,0,10,,,,,2,,57,84
36956,note_off,,,,,92,0,8,,,,,0,,76,100
36960,note_on,,,,,4,0,8,,,,,0,,69,100
37052,note_off,,,,,92,0,8,,,,,0,,69,100
37056,note_on,,,,,256,0,13,,,,,5,,72,100
37056,note_on,,,,,0,0,13,,,,,5,,64,100
37056,note_on,,,,,256,0,12,,,,,4,,45,85
37056,note_on,,,,,256,0,14,,,,,5,,57,100
37056,note_on,,,,,256,0,11,,,,,3,,57,85
37056,note_on,,,,,4,0,8,,,,,0,,71,100
37120,note_off,,,,,256,0,10,,,,,2,,57,100
37120,note_off,,,,,256,0,9,,,,,1,,57,100
37148,note_off,,,,,92,0,8,,,,,0,,71,100
37152,note_on,,,,,4,0,8,,,,,0,,69,100
37184,note_off,,,,,128,0,12,,,,,4,,45,100
37184,note_off,,,,,128,0,14,,,,,5,,57,100
37184,note_off,,,,,0,0,13,,,,,5,,64,100
37184,note_off,,,,,128,0,13,,,,,5,,72,100
37184,note_off,,,,,128,0,11,,,,,3,,57,100
37216,note_off,,,,,64,0,8,,,,,0,,69,100
37248,note_on,,,,,32,0,8,,,,,0,,76,100
37248,note_on,,,,,64,0,14,,,,,5,,60,100
37248,note_on,,,,,0,0,13,,,,,5,,76,100
37248,note_on,,,,,64,0,13,,,,,5,,69,100
37248,note_on,,,,,64,0,12,,,,,4,,48,85
37248,note_on,,,,,64,0,11,,,,,3,,60,85
37340,note_off,,,,,92,0,8,,,,,0,,76,100
37344,note_on,,,,,4,0,8,,,,,0,,69,100
37376,note_off,,,,,128,0,11,,,,,3,,60,100
37376,note_off,,,,,128,0,14,,,,,5,,60,100
37376,note_off,,,,,128,0,12,,,,,4,,48,100
37376,note_off,,,,,128,0,13,,,,,5,,69,100
37376,note_off,,,,,0,0,13,,,,,5,,76,100
37436,note_off,,,,,92,0,8,,,,,0,,69,100
37440,note_on,,,,,64,0,14,,,,,5,,57,100
37440,note_on,,,,,4,0,8,,,,,0,,71,100
37440,note_on,,,,,64,0,12,,,,,4,,45,85
37440,note_on,,,,,64,0,13,,,,,5,,64,100
37440,note_on,,,,,64,0,11,,,,,3,,57,85
37440,note_on,,,,,0,0,13,,,,,5,,72,100
37532,note_off,,,,,92,0,8,,,,,0,,71,100
37536,note_on,,,,,4,0,8,,,,,0,,69,100
37568,note_off,,,,,128,0,14,,,,,5,,57,100
37568,note_off,,,,,0,0,13,,,,,5,,72,100
37568,note_off,,,,,128,0,11,,,,,3,,57,100
37568,note_off,,,,,128,0,13,,,,,5,,64,100
37568,note_off,,,,,128,0,12,,,,,4,,45,100
37600,note_off,,,,,64,0,8,,,,,0,,69,100
37632,note_on,,,,,512,0,9,,,,,1,,57,85
37632,note_on,,,,,512,0,10,,,,,2,,57,85
37632,note_on,,,,,32,0,8,,,,,0,,81,100
37724,note_off,,,,,92,0,8,,,,,0,,81,100
37728,note_on,,,,,4,0,8,,,,,0,,69,100
37820,note_off,,,,,92,0,8,,,,,0,,69,100
37824,note_on,,,,,256,0,12,,,,,4,,45,85
37824,note_on,,,,,256,0,13,,,,,5,,72,100
37824,note_on,,,,,256,0,14,,,,,5,,57,100
37824,note_on,,,,,256,0,11,,,,,3,,57,85
37824,note_on,,,,,0,0,13,,,,,5,,64,100
37824,note_on,,,,,4,0,8,,,,,0,,71,100
37888,note_off,,,,,256,0,10,,,,,2,,57,100
37888,note_off,,,,,256,0,9,,,,,1,,57,100
37916,note_off,,,,,92,0,8,,,,,0,,71,100
37920,note_on,,,,,4,0,8,,,,,0,,69,100
37952,note_off,,,,,128,0,12,,,,,4,,45,100
37952,note_off,,,,,0,0,13,,,,,5,,64,100
37952,note_off,,,,,128,0,13,,,,,5,,72,100
37952,note_off,,,,,128,0,14,,,,,5,,57,100
37952,note_off,,,,,128,0,11,,,,,3,,57,100
37984,note_off,,,,,64,0,8,,,,,0,,69,100
38016,note_on,,,,,0,0,13,,,,,5,,76,100
38016,note_on,,,,,32,0,8,,,,,0,,76,100
38016,note_on,,,,,64,0,13,,,,,5,,69,100
38016,note_on,,,,,64,0,12,,,,,4,,48,85
38016,note_on,,,,,64,0,11,,,,,3,,60,85
38016,note_on,,,,,64,0,14,,,,,5,,60,100
38108,note_off,,,,,92,0,8,,,,,0,,76,100
38112,note_on,,,,,4,0,8,,,,,0,,69,100
38144,note_off,,,,,0,0,13,,,,,5,,76,100
38144,note_off,,,,,128,0,13,,,,,5,,69,100
38144,note_off,,,,,128,0,11,,,,,3,,60,100
38144,note_off,,,,,128,0,12,,,,,4,,48,100
38144,note_off,,,,,128,0,14,,,,,5,,60,100
38204,note_off,,,,,92,0,8,,,,,0,,69,100
38208,note_on,,,,,64,0,11,,,,,3,,57,85
38208,note_on,,,,,0,0,13,,,,,5,,72,100
38208,note_on,,,,,4,0,8,,,,,0,,71,100
38208,note_on,,,,,64,0,13,,,,,5,,64,100
38208,note_on,,,,,64,0,14,,,,,5,,57,100
38208,note_on,,,,,64,0,12,,,,,4,,45,85
38300,note_off,,,,,92,0,8,,,,,0,,71,100
38304,note_on,,,,,4,0,8,,,,,0,,69,100
38336,note_off,,,,,128,0,11,,,,,3,,57,100
38336,note_off,,,,,128,0,14,,,,,5,,57,100
38336,note_off,,,,,128,0,12,,,,,4,,45,100
38336,note_off,,,,,0,0,13,,,,,5,,72,100
38336,note_off,,,,,128,0,13,,,,,5,,64,100
38368,note_off,,,,,64,0,8,,,,,0,,69,100
38400,note_on,,,,,512,0,9,,,,,1,,57,85
38400,note_on,,,,,512,0,10,,,,,2,,57,85
38400,note_on,,,,,32,0,8,,,,,0,,81,100
38492,note_off,,,,,92,0,8,,,,,0,,81,100
38496,note_on,,,,,4,0,8,,,,,0,,69,100
38588,note_off,,,,,92,0,8,,,,,0,,69,100
38592,note_on,,,,,256,0,11,,,,,3,,57,85
38592,note_on,,,,,4,0,8,,,,,0,,71,100
38592,note_on,,,,,256,0,14,,,,,5,,57,100
38592,note_on,,,,,256,0,13,,,,,5,,73,100
38592,note_on,,,,,0,0,13,,,,,5,,64,100
38592,note_on,,,,,256,0,12,,,,,4,,45,85
38656,note_off,,,,,256,0,10,,,,,2,,57,100
38656,note_off,,,,,256,0,9,,,,,1,,57,100
38684,note_off,,,,,92,0,8,,,,,0,,71,100
38688,note_on,,,,,4,0,8,,,,,0,,69,100
38720,note_off,,,,,128,0,11,,,,,3,,57,100
38720,note_off,,,,,128,0,14,,,,,5,,57,100
38720,note_off,,,,,128,0,12,,,,,4,,45,100
38720,note_off,,,,,128,0,13,,,,,5,,73,100
38720,note_off,,,,,0,0,13,,,,,5,,64,100
38752,note_off,,,,,64,0,8,,,,,0,,69,100
38784,note_on,,,,,64,0,14,,,,,5,,61,100
38784,note_on,,,,,32,0,8,,,,,0,,76,100
38784,note_on,,,,,64,0,12,,,,,4,,49,85
38784,note_on,,,,,64,0,11,,,,,3,,61,85
38784,note_on,,,,,0,0,13,,,,,5,,76,100
38784,note_on,,,,,64,0,13,,,,,5,,69,100
38876,note_off,,,,,92,0,8,,,,,0,,76,100
38880,note_on,,,,,4,0,8,,,,,0,,69,100
38912,note_off,,,,,0,0,13,,,,,5,,76,100
38912,note_off,,,,,128,0,11,,,,,3,,61,100
38912,note_off,,,,,128,0,12,,,,,4,,49,100
38912,note_off,,,,,128,0,14,,,,,5,,61,100
38912,note_off,,,,,128,0,13,,,,,5,,69,100
38972,note_off,,,,,92,0,8,,,,,0,,69,100
38976,note_on,,,,,64,0,14,,,,,5,,57,100
38976,note_on,,,,,4,0,8,,,,,0,,71,100
38976,note_on,,,,,64,0,11,,,,,3,,57,85
38976,note_on,,,,,64,0,12,,,,,4,,45,85
38976,note_on,,,,,64,0,13,,,,,5,,64,100
38976,note_on,,,,,0,0,13,,,,,5,,73,100
39068,note_off,,,,,92,0,8,,,,,0,,71,100
39072,note_on,,,,,4,0,8,,,,,0,,69,100
39104,note_off,,,,,128,0,14,,,,,5,,57,100
39104,note_off,,,,,128,0,11,,,,,3,,57,100
39104,note_off,,,,,128,0,12,,,,,4,,45,100
39104,note_off,,,,,0,0,13,,,,,5,,73,100
39104,note_off,,,,,128,0,13,,,,,5,,64,100
39136,note_off,,,,,64,0,8,,,,,0,,69,100
39168,note_on,,,,,512,0,9,,,,,1,,57,85
39168,note_on,,,,,512,0,10,,,,,2,,57,85
39168,note_on,,,,,32,0,8,,,,,0,,79,100
39260,note_off,,,,,92,0,8,,,,,0,,79,100
39264,note_on,,,,,4,0,8,,,,,0,,69,100
39356,note_off,,,,,92,0,8,,,,,0,,69,100
39360,note_on,,,,,256,0,13,,,,,5,,67,100
39360,note_on,,,,,256,0,11,,,,,3,,57,85
39360,note_on,,,,,0,0,13,,,,,5,,73,100
39360,note_on,,,,,256,0,14,,,,,5,,57,100
39360,note_on,,,,,4,0,8,,,,,0,,71,100
39360,note_on,,,,,256,0,12,,,,,4,,45,85
39424,note_off,,,,,256,0,9,,,,,1,,57,100
39424,note_off,,,,,256,0,10,,,,,2,,57,100
39452,note_off,,,,,92,0,8,,,,,0,,71,100
39456,note_on,,,,,4,0,8,,,,,0,,69,100
39488,note_off,,,,,128,0,12,,,,,4,,45,100
39488,note_off,,,,,0,0,13,,,,,5,,73,100
39488,note_off,,,,,128,0,13,,,,,5,,67,100
39488,note_off,,,,,128,0,14,,,,,5,,57,100
39488,note_off,,,,,128,0,11,,,,,3,,57,100
39520,note_off,,,,,64,0,8,,,,,0,,69,100
39552,note_on,,,,,64,0,14,,,,,5,,61,100
39552,note_on,,,,,0,0,13,,,,,5,,76,100
39552,note_on,,,,,32,0,8,,,,,0,,76,100
39552,note_on,,,,,64,0,11,,,,,3,,61,85
39552,note_on,,,,,64,0,13,,,,,5,,69,100
39552,note_on,,,,,64,0,12,,,,,4,,49,85
39644,note_off,,,,,92,0,8,,,,,0,,76,100
39648,note_on,,,,,4,0,8,,,,,0,,69,100
39680,note_off,,,,,128,0,14,,,,,5,,61,100
39680,note_off,,,,,128,0,12,,,,,4,,49,100
39680,note_off,,,,,0,0,13,,,,,5,,76,100
39680,note_off,,,,,128,0,11,,,,,3,,61,100
39680,note_off,,,,,128,0,13,,,,,5,,69,100
39740,note_off,,,,,92,0,8,,,,,0,,69,100
39744,note_on,,,,,64,0,13,,,,,5,,67,100
39744,note_on,,,,,0,0,13,,,,,5,,73,100
39744,note_on,,,,,64,0,14,,,,,5,,57,100
39744,note_on,,,,,64,0,11,,,,,3,,57,85
39744,note_on,,,,,4,0,8,,,,,0,,71,100
39744,note_on,,,,,64,0,12,,,,,4,,45,85
39836,note_off,,,,,92,0,8,,,,,0,,71,100
39840,note_on,,,,,4,0,8,,,,,0,,69,100
39872,note_off,,,,,128,0,11,,,,,3,,57,100
39872,note_off,,,,,128,0,12,,,,,4,,45,100
39872,note_off,,,,,128,0,14,,,,,5,,57,100
39872,note_off,,,,,0,0,13,,,,,5,,73,100
39872,note_off,,,,,128,0,13,,,,,5,,67,100
39904,note_off,,,,,64,0,8,,,,,0,,69,100
39936,note_on,,,,,512,0,9,,,,,1,,57,85
39936,note_on,,,,,512,0,10,,,,,2,,57,85
39936,note_on,,,,,32,0,8,,,,,0,,79,100
40028,note_off,,,,,92,0,8,,,,,0,,79,100
40032,note_on,,,,,4,0,8,,,,,0,,69,100
40124,note_off,,,,,92,0,8,,,,,0,,69,100
40128,note_on,,,,,4,0,8,,,,,0,,71,100
40128,note_on,,,,,256,0,11,,,,,3,,57,85
40128,note_on,,,,,256,0,12,,,,,4,,45,85
40128,note_on,,,,,256,0,13,,,,,5,,67,100
40128,note_on,,,,,0,0,13,,,,,5,,73,100
40128,note_on,,,,,256,0,14,,,,,5,,57,100
40192,note_off,,,,,256,0,10,,,,,2,,57,100
40192,note_off,,,,,256,0,9,,,,,1,,57,100
40220,note_off,,,,,92,0,8,,,,,0,,71,100
40224,note_on,,,,,4,0,8,,,,,0,,69,100
40256,note_off,,,,,128,0,14,,,,,5,,57,100
40256,note_off,,,,,128,0,12,,,,,4,,45,100
40256,note_off,,,,,128,0,11,,,,,3,,57,100
40256,note_off,,,,,128,0,13,,,,,5,,67,100
40256,note_off,,,,,0,0,13,,,,,5,,73,100
40288,note_off,,,,,64,0,8,,,,,0,,69,100
40320,note_on,,,,,64,0,13,,,,,5,,69,100
40320,note_on,,,,,0,0,13,,,,,5,,76,100
40320,note_on,,,,,64,0,11,,,,,3,,61,85
40320,note_on,,,,,32,0,8,,,,,0,,76,100
40320,note_on,,,,,64,0,14,,,,,5,,61,100
40320,note_on,,,,,64,0,12,,,,,4,,49,85
40412,note_off,,,,,92,0,8,,,,,0,,76,100
40416,note_on,,,,,4,0,8,,,,,0,,69,100
40448,note_off,,,,,0,0,13,,,,,5,,76,100
40448,note_off,,,,,128,0,14,,,,,5,,61,100
40448,note_off,,,,,128,0,12,,,,,4,,49,100
40448,note_off,,,,,128,0,11,,,,,3,,61,100
40448,note_off,,,,,128,0,13,,,,,5,,69,100
40508,note_off,,,,,92,0,8,,,,,0,,69,100
40512,note_on,,,,,64,0,12,,,,,4,,45,85
40512,note_on,,,,,0,0,13,,,,,5,,73,100
40512,note_on,,,,,64,0,14,,,,,5,,57,100
40512,note_on,,,,,64,0,13,,,,,5,,67,100
40512,note_on,,,,,4,0,8,,,,,0,,71,100
40512,note_on,,,,,64,0,11,,,,,3,,57,85
40604,note_off,,,,,92,0,8,,,,,0,,71,100
40608,note_on,,,,,4,0,8,,,,,0,,69,100
40640,note_off,,,,,128,0,11,,,,,3,,57,100
40640,note_off,,,,,128,0,13,,,,,5,,67,100
40640,note_off,,,,,0,0,13,,,,,5,,73,100
40640,note_off,,,,,128,0,14,,,,,5,,57,100
40640,note_off,,,,,128,0,12,,,,,4,,45,100
40672,note_off,,,,,64,0,8,,,,,0,,69,100
40704,note_on,,,,,512,0,9,,,,,1,,62,85
40704,note_on,,,,,32,0,8,,,,,0,,77,100
40704,note_on,,,,,512,0,10,,,,,2,,62,85
40796,note_off,,,,,92,0,8,,,,,0,,77,100
40800,note_on,,,,,4,0,8,,,,,0,,69,100
40892,note_off,,,,,92,0,8,,,,,0,,69,100
40896,note_on,,,,,256,0,11,,,,,3,,62,85
40896,note_on,,,,,256,0,14,,,,,5,,62,100
40896,note_on,,,,,4,0,8,,,,,0,,71,100
40896,note_on,,,,,256,0,12,,,,,4,,50,85
40896,note_on,,,,,256,0,13,,,,,5,,74,100
40896,note_on,,,,,0,0,13,,,,,5,,65,100
40896,note_on,,,,,0,0,13,,,,,5,,69,100
40960,note_off,,,,,256,0,9,,,,,1,,62,100
40960,note_off,,,,,256,0,10,,,,,2,,62,100
40988,note_off,,,,,92,0,8,,,,,0,,71,100
40992,note_on,,,,,4,0,8,,,,,0,,69,100
41024,note_off,,,,,128,0,11,,,,,3,,62,100
41024,note_off,,,,,0,0,13,,,,,5,,65,100
41024,note_off,,,,,128,0,12,,,,,4,,50,100
41024,note_off,,,,,0,0,13,,,,,5,,69,100
41024,note_off,,,,,128,0,13,,,,,5,,74,100
41024,note_off,,,,,128,0,14,,,,,5,,62,100
41056,note_off,,,,,64,0,8,,,,,0,,69,100
41088,note_on,,,,,64,0,12,,,,,4,,41,85
41088,note_on,,,,,64,0,13,,,,,5,,62,100
41088,note_on,,,,,64,0,11,,,,,3,,53,85
41088,note_on,,,,,0,0,13,,,,,5,,69,100
41088,note_on,,,,,32,0,8,,,,,0,,74,100
41088,note_on,,,,,64,0,14,,,,,5,,53,100
41180,note_off,,,,,92,0,8,,,,,0,,74,100
41184,note_on,,,,,4,0,8,,,,,0,,69,100
41216,note_off,,,,,128,0,11,,,,,3,,53,100
41216,note_off,,,,,0,0,13,,,,,5,,69,100
41216,note_off,,,,,128,0,13,,,,,5,,62,100
41216,note_off,,,,,128,0,14,,,,,5,,53,100
41216,note_off,,,,,128,0,12,,,,,4,,41,100
41276,note_off,,,,,92,0,8,,,,,0,,69,100
41280,note_on,,,,,64,0,14,,,,,5,,50,100
41280,note_on,,,,,4,0,8,,,,,0,,71,100
41280,note_on,,,,,64,0,13,,,,,5,,57,100
41280,note_on,,,,,64,0,12,,,,,4,,38,85
41280,note_on,,,,,0,0,13,,,,,5,,65,100
41280,note_on,,,,,64,0,11,,,,,3,,50,85
41372,note_off,,,,,92,0,8,,,,,0,,71,100
41376,note_on,,,,,4,0,8,,,,,0,,69,100
41408,note_off,,,,,128,0,11,,,,,3,,50,100
41408,note_off,,,,,128,0,12,,,,,4,,38,100
41408,note_off,,,,,128,0,13,,,,,5,,57,100
41408,note_off,,,,,128,0,14,,,,,5,,50,100
41408,note_off,,,,,0,0,13,,,,,5,,65,100
41440,note_off,,,,,64,0,8,,,,,0,,69,100
41472,note_on,,,,,32,0,8,,,,,0,,77,100
41472,note_on,,,,,512,0,10,,,,,2,,62,85
41472,note_on,,,,,512,0,9,,,,,1,,62,85
41564,note_off,,,,,92,0,8,,,,,0,,77,100
41568,note_on,,,,,4,0,8,,,,,0,,69,100
41660,note_off,,,,,92,0,8,,,,,0,,69,100
41664,note_on,,,,,256,0,11,,,,,3,,62,85
41664,note_on,,,,,4,0,8,,,,,0,,71,100
41664,note_on,,,,,0,0,13,,,,,5,,69,100
41664,note_on,,,,,0,0,13,,,,,5,,65,100
41664,note_on,,,,,256,0,14,,,,,5,,62,100
41664,note_on,,,,,256,0,13,,,,,5,,74,100
41664,note_on,,,,,256,0,12,,,,,4,,50,85
41728,note_off,,,,,256,0,9,,,,,1,,62,100
41728,note_off,,,,,256,0,10,,,,,2,,62,100
41756,note_off,,,,,92,0,8,,,,,0,,71,100
41760,note_on,,,,,4,0,8,,,,,0,,69,100
41792,note_off,,,,,0,0,13,,,,,5,,69,100
41792,note_off,,,,,128,0,13,,,,,5,,74,100
41792,note_off,,,,,128,0,12,,,,,4,,50,100
41792,note_off,,,,,0,0,13,,,,,5,,65,100
41792,note_off,,,,,128,0,11,,,,,3,,62,100
41792,note_off,,,,,128,0,14,,,,,5,,62,100
41824,note_off,,,,,64,0,8,,,,,0,,69,100
41856,note_on,,,,,64,0,12,,,,,4,,41,85
41856,note_on,,,,,32,0,8,,,,,0,,74,100
41856,note_on,,,,,64,0,11,,,,,3,,53,85
41856,note_on,,,,,0,0,13,,,,,5,,69,100
41856,note_on,,,,,64,0,14,,,,,5,,53,100
41856,note_on,,,,,64,0,13,,,,,5,,62,100
41948,note_off,,,,,92,0,8,,,,,0,,74,100
41952,note_on,,,,,4,0,8,,,,,0,,69,100
41984,note_off,,,,,0,0,13,,,,,5,,69,100
41984,note_off,,,,,128,0,13,,,,,5,,62,100
41984,note_off,,,,,128,0,11,,,,,3,,53,100
41984,note_off,,,,,128,0,12,,,,,4,,41,100
41984,note_off,,,,,128,0,14,,,,,5,,53,100
42044,note_off,,,,,92,0,8,,,,,0,,69,100
42048,note_on,,,,,0,0,13,,,,,5,,65,100
42048,note_on,,,,,64,0,13,,,,,5,,57,100
42048,note_on,,,,,4,0,8,,,,,0,,71,100
42048,note_on,,,,,64,0,12,,,,,4,,38,85
42048,note_on,,,,,64,0,11,,,,,3,,50,85
42048,note_on,,,,,64,0,14,,,,,5,,50,100
42140,note_off,,,,,92,0,8,,,,,0,,71,100
42144,note_on,,,,,4,0,8,,,,,0,,69,100
42176,note_off,,,,,0,0,13,,,,,5,,65,100
42176,note_off,,,,,128,0,13,,,,,5,,57,100
42176,note_off,,,,,128,0,14,,,,,5,,50,100
42176,note_off,,,,,128,0,12,,,,,4,,38,100
42176,note_off,,,,,128,0,11,,,,,3,,50,100
42208,note_off,,,,,64,0,8,,,,,0,,69,100
42240,note_on,,,,,512,0,10,,,,,2,,62,85
42240,note_on,,,,,512,0,9,,,,,1,,62,85
42240,note_on,,,,,32,0,8,,,,,0,,77,100
42368,note_off,,,,,128,0,8,,,,,0,,77,100
42432,note_on,,,,,256,0,13,,,,,5,,65,100
42432,note_on,,,,,256,0,11,,,,,3,,62,85
42432,note_on,,,,,64,0,8,,,,,0,,81,100
42432,note_on,,,,,0,0,13,,,,,5,,69,100
42432,note_on,,,,,256,0,12,,,,,4,,50,85
42432,note_on,,,,,256,0,14,,,,,5,,62,100
42496,note_off,,,,,256,0,10,,,,,2,,62,100
42496,note_off,,,,,256,0,9,,,,,1,,62,100
42496,note_off,,,,,64,0,8,,,,,0,,81,100
42528,note_on,,,,,32,0,8,,,,,0,,79,100
42560,note_off,,,,,128,0,13,,,,,5,,65,100
42560,note_off,,,,,0,0,13,,,,,5,,69,100
42560,note_off,,,,,128,0,12,,,,,4,,50,100
42560,note_off,,,,,128,0,14,,,,,5,,62,100
42560,note_off,,,,,128,0,11,,,,,3,,62,100
42592,note_off,,,,,64,0,8,,,,,0,,79,100
42624,note_on,,,,,64,0,14,,,,,5,,50,100
42624,note_on,,,,,64,0,12,,,,,4,,38,85
42624,note_on,,,,,64,0,13,,,,,5,,57,100
42624,note_on,,,,,64,0,11,,,,,3,,50,85
42624,note_on,,,,,0,0,13,,,,,5,,65,100
42624,note_on,,,,,32,0,8,,,,,0,,77,100
42752,note_off,,,,,128,0,12,,,,,4,,38,100
42752,note_off,,,,,0,0,13,,,,,5,,65,100
42752,note_off,,,,,128,0,13,,,,,5,,57,100
42752,note_off,,,,,128,0,11,,,,,3,,50,100
42752,note_off,,,,,128,0,8,,,,,0,,77,100
42752,note_off,,,,,128,0,14,,,,,5,,50,100
42816,note_on,,,,,0,0,13,,,,,5,,57,100
42816,note_on,,,,,64,0,13,,,,,5,,64,100
42816,note_on,,,,,64,0,14,,,,,5,,48,100
42816,note_on,,,,,64,0,8,,,,,0,,77,100
42816,note_on,,,,,64,0,11,,,,,3,,48,85
42816,note_on,,,,,64,0,12,,,,,4,,36,85
42944,note_off,,,,,0,0,13,,,,,5,,57,100
42944,note_off,,,,,128,0,11,,,,,3,,48,100
42944,note_off,,,,,128,0,8,,,,,0,,77,100
42944,note_off,,,,,128,0,14,,,,,5,,48,100
42944,note_off,,,,,128,0,13,,,,,5,,64,100
42944,note_off,,,,,128,0,12,,,,,4,,36,100
43008,note_on,,,,,64,0,8,,,,,0,,86,100
43008,note_on,,,,,512,0,10,,,,,2,,59,85
43008,note_on,,,,,512,0,9,,,,,1,,59,85
43200,note_on,,,,,256,0,12,,,,,4,,47,85
43200,note_off,,,,,192,0,8,,,,,0,,86,100
43200,note_on,,,,,256,0,14,,,,,5,,59,100
43200,note_on,,,,,0,0,13,,,,,5,,62,100
43200,note_on,,,,,256,0,11,,,,,3,,59,85
43200,note_on,,,,,256,0,13,,,,,5,,67,100
43264,note_off,,,,,256,0,10,,,,,2,,59,100
43264,note_off,,,,,256,0,9,,,,,1,,59,100
43296,note_on,,,,,96,0,8,,,,,0,,84,100
43328,note_off,,,,,128,0,11,,,,,3,,59,100
43328,note_off,,,,,128,0,12,,,,,4,,47,100
43328,note_off,,,,,128,0,14,,,,,5,,59,100
43328,note_off,,,,,128,0,13,,,,,5,,67,100
43328,note_off,,,,,0,0,13,,,,,5,,62,100
43360,note_off,,,,,64,0,8,,,,,0,,84,100
43392,note_on,,,,,32,0,8,,,,,0,,83,100
43392,note_on,,,,,64,0,13,,,,,5,,67,100
43392,note_on,,,,,64,0,12,,,,,4,,50,85
43392,note_on,,,,,64,0,14,,,,,5,,62,100
43392,note_on,,,,,64,0,11,,,,,3,,62,85
43392,note_on,,,,,0,0,13,,,,,5,,71,100
43456,note_off,,,,,64,0,8,,,,,0,,83,100
43488,note_on,,,,,32,0,8,,,,,0,,81,100
43520,note_off,,,,,128,0,11,,,,,3,,62,100
43520,note_off,,,,,0,0,13,,,,,5,,71,100
43520,note_off,,,,,128,0,13,,,,,5,,67,100
43520,note_off,,,,,128,0,14,,,,,5,,62,100
43520,note_off,,,,,128,0,12,,,,,4,,50,100
43552,note_off,,,,,64,0,8,,,,,0,,81,100
43584,note_on,,,,,64,0,11,,,,,3,,59,85
43584,note_on,,,,,32,0,8,,,,,0,,79,100
43584,note_on,,,,,0,0,13,,,,,5,,67,100
43584,note_on,,,,,64,0,13,,,,,5,,62,100
43584,note_on,,,,,64,0,14,,,,,5,,59,100
43584,note_on,,,,,64,0,12,,,,,4,,47,85
43648,note_off,,,,,64,0,8,,,,,0,,79,100
43680,note_on,,,,,32,0,8,,,,,0,,77,100
43712,note_off,,,,,128,0,13,,,,,5,,62,100
43712,note_off,,,,,128,0,11,,,,,3,,59,100
43712,note_off,,,,,0,0,13,,,,,5,,67,100
43712,note_off,,,,,128,0,14,,,,,5,,59,100
43712,note_off,,,,,128,0,12,,,,,4,,47,100
43744,note_off,,,,,64,0,8,,,,,0,,77,100
43776,note_on,,,,,512,0,9,,,,,1,,60,85
43776,note_on,,,,,512,0,10,,,,,2,,60,85
43776,note_on,,,,,32,0,8,,,,,0,,76,100
43904,note_off,,,,,128,0,8,,,,,0,,76,100
43968,note_on,,,,,256,0,12,,,,,4,,52,85
43968,note_on,,,,,64,0,8,,,,,0,,72,100
43968,note_on,,,,,256,0,14,,,,,5,,64,100
43968,note_on,,,,,0,0,13,,,,,5,,67,100
43968,note_on,,,,,256,0,13,,,,,5,,72,100
43968,note_on,,,,,256,0,11,,,,,3,,64,85
44032,note_off,,,,,256,0,10,,,,,2,,60,100
44032,note_off,,,,,256,0,9,,,,,1,,60,100
44060,note_off,,,,,92,0,8,,,,,0,,72,100
44064,note_on,,,,,4,0,8,,,,,0,,74,100
44096,note_off,,,,,128,0,13,,,,,5,,72,100
44096,note_off,,,,,128,0,11,,,,,3,,64,100
44096,note_off,,,,,0,0,13,,,,,5,,67,100
44096,note_off,,,,,128,0,12,,,,,4,,52,100
44096,note_off,,,,,128,0,14,,,,,5,,64,100
44156,note_off,,,,,92,0,8,,,,,0,,74,100
44160,note_on,,,,,64,0,12,,,,,4,,48,85
44160,note_on,,,,,64,0,13,,,,,5,,64,100
44160,note_on,,,,,0,0,13,,,,,5,,67,100
44160,note_on,,,,,64,0,14,,,,,5,,60,100
44160,note_on,,,,,4,0,8,,,,,0,,76,99
44160,note_on,,,,,64,0,11,,,,,3,,60,85
44252,note_off,,,,,92,0,8,,,,,0,,76,100
44256,note_on,,,,,4,0,8,,,,,0,,77,99
44288,note_off,,,,,128,0,12,,,,,4,,48,100
44288,note_off,,,,,128,0,11,,,,,3,,60,100
44288,note_off,,,,,128,0,14,,,,,5,,60,100
44288,note_off,,,,,0,0,13,,,,,5,,67,100
44288,note_off,,,,,128,0,13,,,,,5,,64,100
44348,note_off,,,,,92,0,8,,,,,0,,77,100
44352,note_on,,,,,64,0,11,,,,,3,,48,85
44352,note_on,,,,,64,0,12,,,,,4,,36,85
44352,note_on,,,,,4,0,8,,,,,0,,79,99
44352,note_on,,,,,0,0,13,,,,,5,,64,100
44352,note_on,,,,,64,0,13,,,,,5,,60,100
44352,note_on,,,,,64,0,14,,,,,5,,48,100
44444,note_off,,,,,92,0,8,,,,,0,,79,100
44448,note_on,,,,,4,0,8,,,,,0,,81,98
44480,note_off,,,,,128,0,14,,,,,5,,48,100
44480,note_off,,,,,128,0,11,,,,,3,,48,100
44480,note_off,,,,,128,0,13,,,,,5,,60,100
44480,note_off,,,,,128,0,12,,,,,4,,36,100
44480,note_off,,,,,0,0,13,,,,,5,,64,100
44512,note_off,,,,,64,0,8,,,,,0,,81,100
44544,note_on,,,,,512,0,9,,,,,1,,59,85
44544,note_on,,,,,512,0,10,,,,,2,,59,85
44544,note_on,,,,,32,0,8,,,,,0,,74,98
44672,note_off,,,,,128,0,8,,,,,0,,74,100
44736,note_on,,,,,256,0,12,,,,,4,,50,85
44736,note_on,,,,,256,0,14,,,,,5,,62,100
44736,note_on,,,,,256,0,13,,,,,5,,65,100
44736,note_on,,,,,0,0,13,,,,,5,,71,100
44736,note_on,,,,,64,0,8,,,,,0,,71,97
44736,note_on,,,,,256,0,11,,,,,3,,62,85
44800,note_off,,,,,256,0,9,,,,,1,,59,100
44800,note_off,,,,,256,0,10,,,,,2,,59,100
44828,note_off,,,,,92,0,8,,,,,0,,71,100
44832,note_on,,,,,4,0,8,,,,,0,,72,97
44864,note_off,,,,,128,0,12,,,,,4,,50,100
44864,note_off,,,,,0,0,13,,,,,5,,71,100
44864,note_off,,,,,128,0,14,,,,,5,,62,100
44864,note_off,,,,,128,0,13,,,,,5,,65,100
44864,note_off,,,,,128,0,11,,,,,3,,62,100
44924,note_off,,,,,92,0,8,,,,,0,,72,100
44928,note_on,,,,,4,0,8,,,,,0,,74,97
44928,note_on,,,,,64,0,14,,,,,5,,59,100
44928,note_on,,,,,64,0,13,,,,,5,,62,100
44928,note_on,,,,,64,0,12,,,,,4,,47,84
44928,note_on,,,,,0,0,13,,,,,5,,65,100
44928,note_on,,,,,64,0,11,,,,,3,,59,84
45020,note_off,,,,,92,0,8,,,,,0,,74,100
45024,note_on,,,,,4,0,8,,,,,0,,76,96
45056,note_off,,,,,128,0,13,,,,,5,,62,100
45056,note_off,,,,,0,0,13,,,,,5,,65,100
45056,note_off,,,,,128,0,11,,,,,3,,59,100
45056,note_off,,,,,128,0,12,,,,,4,,47,100
45056,note_off,,,,,128,0,14,,,,,5,,59,100
45116,note_off,,,,,92,0,8,,,,,0,,76,100
45120,note_on,,,,,64,0,11,,,,,3,,47,83
45120,note_on,,,,,64,0,14,,,,,5,,47,100
45120,note_on,,,,,64,0,13,,,,,5,,59,100
45120,note_on,,,,,0,0,13,,,,,5,,62,100
45120,note_on,,,,,64,0,12,,,,,4,,35,83
45120,note_on,,,,,4,0,8,,,,,0,,77,96
45212,note_off,,,,,92,0,8,,,,,0,,77,100
45216,note_on,,,,,4,0,8,,,,,0,,79,96
45248,note_off,,,,,0,0,13,,,,,5,,62,100
45248,note_off,,,,,128,0,14,,,,,5,,47,100
45248,note_off,,,,,128,0,13,,,,,5,,59,100
45248,note_off,,,,,128,0,12,,,,,4,,35,100
45248,note_off,,,,,128,0,11,,,,,3,,47,100
45280,note_off,,,,,64,0,8,,,,,0,,79,100
45312,note_on,,,,,32,0,8,,,,,0,,72,96
45312,note_on,,,,,512,0,9,,,,,1,,57,82
45312,note_on,,,,,512,0,10,,,,,2,,57,82
45440,note_off,,,,,128,0,8,,,,,0,,72,100
45504,note_on,,,,,64,0,8,,,,,0,,69,95
45504,note_on,,,,,256,0,11,,,,,3,,60,81
45504,note_on,,,,,0,0,13,,,,,5,,69,100
45504,note_on,,,,,256,0,13,,,,,5,,64,100
45504,note_on,,,,,256,0,14,,,,,5,,60,100
45504,note_on,,,,,256,0,12,,,,,4,,48,81
45568,note_off,,,,,256,0,9,,,,,1,,57,100
45568,note_off,,,,,256,0,10,,,,,2,,57,100
45596,note_off,,,,,92,0,8,,,,,0,,69,100
45600,note_on,,,,,4,0,8,,,,,0,,71,95
45632,note_off,,,,,0,0,13,,,,,5,,69,100
45632,note_off,,,,,128,0,14,,,,,5,,60,100
45632,note_off,,,,,128,0,11,,,,,3,,60,100
45632,note_off,,,,,128,0,13,,,,,5,,64,100
45632,note_off,,,,,128,0,12,,,,,4,,48,100
45692,note_off,,,,,92,0,8,,,,,0,,71,100
45696,note_on,,,,,64,0,11,,,,,3,,57,81
45696,note_on,,,,,0,0,13,,,,,5,,64,100
45696,note_on,,,,,64,0,14,,,,,5,,57,100
45696,note_on,,,,,64,0,12,,,,,4,,45,81
45696,note_on,,,,,64,0,13,,,,,5,,60,100
45696,note_on,,,,,4,0,8,,,,,0,,72,94
45788,note_off,,,,,92,0,8,,,,,0,,72,100
45792,note_on,,,,,4,0,8,,,,,0,,74,94
45824,note_off,,,,,128,0,12,,,,,4,,45,100
45824,note_off,,,,,128,0,13,,,,,5,,60,100
45824,note_off,,,,,0,0,13,,,,,5,,64,100
45824,note_off,,,,,128,0,11,,,,,3,,57,100
45824,note_off,,,,,128,0,14,,,,,5,,57,100
45884,note_off,,,,,92,0,8,,,,,0,,74,100
45888,note_on,,,,,0,0,13,,,,,5,,60,100
45888,note_on,,,,,4,0,8,,,,,0,,76,94
45888,note_on,,,,,64,0,14,,,,,5,,45,100
45888,note_on,,,,,64,0,11,,,,,3,,45,80
45888,note_on,,,,,64,0,12,,,,,4,,33,80
45888,note_on,,,,,64,0,13,,,,,5,,57,100
45980,note_off,,,,,92,0,8,,,,,0,,76,100
45984,note_on,,,,,4,0,8,,,,,0,,77,93
46016,note_off,,,,,128,0,14,,,,,5,,45,100
46016,note_off,,,,,128,0,11,,,,,3,,45,100
46016,note_off,,,,,128,0,12,,,,,4,,33,100
46016,note_off,,,,,128,0,13,,,,,5,,57,100
46016,note_off,,,,,0,0,13,,,,,5,,60,100
46048,note_off,,,,,64,0,8,,,,,0,,77,100
46080,note_on,,,,,512,0,9,,,,,1,,55,79
46080,note_on,,,,,32,0,8,,,,,0,,71,93
46080,note_on,,,,,512,0,10,,,,,2,,55,79
46208,note_off,,,,,128,0,8,,,,,0,,71,100
46272,note_on,,,,,0,0,13,,,,,5,,67,100
46272,note_on,,,,,64,0,8,,,,,0,,67,92
46272,note_on,,,,,256,0,11,,,,,3,,59,78
46272,note_on,,,,,256,0,14,,,,,5,,59,100
46272,note_on,,,,,256,0,12,,,,,4,,47,78
46272,note_on,,,,,256,0,13,,,,,5,,62,100
46336,note_off,,,,,256,0,9,,,,,1,,55,100
46336,note_off,,,,,256,0,10,,,,,2,,55,100
46364,note_off,,,,,92,0,8,,,,,0,,67,100
46368,note_on,,,,,4,0,8,,,,,0,,69,92
46400,note_off,,,,,128,0,14,,,,,5,,59,100
46400,note_off,,,,,0,0,13,,,,,5,,67,100
46400,note_off,,,,,128,0,11,,,,,3,,59,100
46400,note_off,,,,,128,0,12,,,,,4,,47,100
46400,note_off,,,,,128,0,13,,,,,5,,62,100
46460,note_off,,,,,92,0,8,,,,,0,,69,100
46464,note_on,,,,,4,0,8,,,,,0,,71,92
46464,note_on,,,,,64,0,12,,,,,4,,43,77
46464,note_on,,,,,64,0,14,,,,,5,,55,100
46464,note_on,,,,,64,0,11,,,,,3,,55,77
46464,note_on,,,,,64,0,13,,,,,5,,59,100
46464,note_on,,,,,0,0,13,,,,,5,,62,100
46556,note_off,,,,,92,0,8,,,,,0,,71,100
46560,note_on,,,,,4,0,8,,,,,0,,72,91
46592,note_off,,,,,128,0,11,,,,,3,,55,100
46592,note_off,,,,,128,0,12,,,,,4,,43,100
46592,note_off,,,,,0,0,13,,,,,5,,62,100
46592,note_off,,,,,128,0,13,,,,,5,,59,100
46592,note_off,,,,,128,0,14,,,,,5,,55,100
46652,note_off,,,,,92,0,8,,,,,0,,72,100
46656,note_on,,,,,64,0,12,,,,,4,,43,76
46656,note_on,,,,,64,0,11,,,,,3,,43,76
46656,note_on,,,,,4,0,8,,,,,0,,74,91
46656,note_on,,,,,0,0,13,,,,,5,,59,100
46656,note_on,,,,,64,0,14,,,,,5,,43,100
46656,note_on,,,,,64,0,13,,,,,5,,55,100
46748,note_off,,,,,92,0,8,,,,,0,,74,100
46752,note_on,,,,,4,0,8,,,,,0,,76,91
46784,note_off,,,,,128,0,11,,,,,3,,43,100
46784,note_off,,,,,128,0,13,,,,,5,,55,100
46784,note_off,,,,,128,0,14,,,,,5,,43,100
46784,note_off,,,,,0,0,13,,,,,5,,59,100
46784,note_off,,,,,128,0,12,,,,,4,,43,100
46816,note_off,,,,,64,0,8,,,,,0,,76,100
46848,note_on,,,,,512,0,9,,,,,1,,57,75
46848,note_on,,,,,512,0,10,,,,,2,,57,75
46848,note_on,,,,,32,0,8,,,,,0,,72,91
46976,note_off,,,,,128,0,8,,,,,0,,72,100
47040,note_on,,,,,256,0,11,,,,,3,,60,75
47040,note_on,,,,,0,0,13,,,,,5,,69,100
47040,note_on,,,,,64,0,8,,,,,0,,69,90
47040,note_on,,,,,256,0,12,,,,,4,,48,75
47040,note_on,,,,,256,0,14,,,,,5,,60,100
47040,note_on,,,,,256,0,13,,,,,5,,64,100
47104,note_off,,,,,256,0,10,,,,,2,,57,100
47104,note_off,,,,,256,0,9,,,,,1,,57,100
47132,note_off,,,,,92,0,8,,,,,0,,69,100
47136,note_on,,,,,4,0,8,,,,,0,,71,90
47168,note_off,,,,,0,0,13,,,,,5,,69,100
47168,note_off,,,,,128,0,13,,,,,5,,64,100
47168,note_off,,,,,128,0,12,,,,,4,,48,100
47168,note_off,,,,,128,0,11,,,,,3,,60,100
47168,note_off,,,,,128,0,14,,,,,5,,60,100
47228,note_off,,,,,92,0,8,,,,,0,,71,100
47232,note_on,,,,,64,0,11,,,,,3,,57,76
47232,note_on,,,,,64,0,13,,,,,5,,60,100
47232,note_on,,,,,0,0,13,,,,,5,,64,100
47232,note_on,,,,,4,0,8,,,,,0,,72,90
47232,note_on,,,,,64,0,14,,,,,5,,57,100
47232,note_on,,,,,64,0,12,,,,,4,,45,76
47324,note_off,,,,,92,0,8,,,,,0,,72,100
47328,note_on,,,,,4,0,8,,,,,0,,74,91
47360,note_off,,,,,128,0,12,,,,,4,,45,100
47360,note_off,,,,,0,0,13,,,,,5,,64,100
47360,note_off,,,,,128,0,13,,,,,5,,60,100
47360,note_off,,,,,128,0,14,,,,,5,,57,100
47360,note_off,,,,,128,0,11,,,,,3,,57,100
47420,note_off,,,,,92,0,8,,,,,0,,74,100
47424,note_on,,,,,0,0,13,,,,,5,,60,100
47424,note_on,,,,,64,0,13,,,,,5,,57,100
47424,note_on,,,,,4,0,8,,,,,0,,76,91
47424,note_on,,,,,64,0,11,,,,,3,,45,77
47424,note_on,,,,,64,0,14,,,,,5,,45,100
47424,note_on,,,,,64,0,12,,,,,4,,33,77
47516,note_off,,,,,92,0,8,,,,,0,,76,100
47520,note_on,,,,,4,0,8,,,,,0,,77,92
47552,note_off,,,,,128,0,13,,,,,5,,57,100
47552,note_off,,,,,0,0,13,,,,,5,,60,100
47552,note_off,,,,,128,0,11,,,,,3,,45,100
47552,note_off,,,,,128,0,14,,,,,5,,45,100
47552,note_off,,,,,128,0,12,,,,,4,,33,100
47584,note_off,,,,,64,0,8,,,,,0,,77,100
47616,note_on,,,,,32,0,8,,,,,0,,74,92
47616,note_on,,,,,512,0,10,,,,,2,,59,78
47616,note_on,,,,,512,0,9,,,,,1,,59,78
47744,note_off,,,,,128,0,8,,,,,0,,74,100
47808,note_on,,,,,0,0,13,,,,,5,,71,100
47808,note_on,,,,,256,0,13,,,,,5,,65,100
47808,note_on,,,,,64,0,8,,,,,0,,71,93
47808,note_on,,,,,256,0,11,,,,,3,,62,79
47808,note_on,,,,,256,0,12,,,,,4,,50,79
47808,note_on,,,,,256,0,14,,,,,5,,62,100
47872,note_off,,,,,256,0,10,,,,,2,,59,100
47872,note_off,,,,,256,0,9,,,,,1,,59,100
47900,note_off,,,,,92,0,8,,,,,0,,71,100
47904,note_on,,,,,4,0,8,,,,,0,,72,93
47936,note_off,,,,,128,0,13,,,,,5,,65,100
47936,note_off,,,,,128,0,14,,,,,5,,62,100
47936,note_off,,,,,0,0,13,,,,,5,,71,100
47936,note_off,,,,,128,0,12,,,,,4,,50,100
47936,note_off,,,,,128,0,11,,,,,3,,62,100
47996,note_off,,,,,92,0,8,,,,,0,,72,100
48000,note_on,,,,,64,0,11,,,,,3,,59,80
48000,note_on,,,,,64,0,14,,,,,5,,59,100
48000,note_on,,,,,64,0,13,,,,,5,,62,100
48000,note_on,,,,,0,0,13,,,,,5,,65,100
48000,note_on,,,,,4,0,8,,,,,0,,74,94
48000,note_on,,,,,64,0,12,,,,,4,,47,80
48092,note_off,,,,,92,0,8,,,,,0,,74,100
48096,note_on,,,,,4,0,8,,,,,0,,76,94
48128,note_off,,,,,128,0,12,,,,,4,,47,100
48128,note_off,,,,,0,0,13,,,,,5,,65,100
48128,note_off,,,,,128,0,13,,,,,5,,62,100
48128,note_off,,,,,128,0,14,,,,,5,,59,100
48128,note_off,,,,,128,0,11,,,,,3,,59,100
48188,note_off,,,,,92,0,8,,,,,0,,76,100
48192,note_on,,,,,4,0,8,,,,,0,,77,94
48192,note_on,,,,,64,0,13,,,,,5,,59,100
48192,note_on,,,,,0,0,13,,,,,5,,62,100
48192,note_on,,,,,64,0,12,,,,,4,,35,81
48192,note_on,,,,,64,0,11,,,,,3,,47,81
48192,note_on,,,,,64,0,14,,,,,5,,47,100
48284,note_off,,,,,92,0,8,,,,,0,,77,100
48288,note_on,,,,,4,0,8,,,,,0,,79,95
48320,note_off,,,,,128,0,11,,,,,3,,47,100
48320,note_off,,,,,128,0,14,,,,,5,,47,100
48320,note_off,,,,,128,0,13,,,,,5,,59,100
48320,note_off,,,,,128,0,12,,,,,4,,35,100
48320,note_off,,,,,0,0,13,,,,,5,,62,100
48352,note_off,,,,,64,0,8,,,,,0,,79,100
48384,note_on,,,,,512,0,10,,,,,2,,60,82
48384,note_on,,,,,512,0,9,,,,,1,,60,82
48384,note_on,,,,,32,0,8,,,,,0,,76,95
48512,note_off,,,,,128,0,8,,,,,0,,76,100
48576,note_on,,,,,256,0,14,,,,,5,,64,100
48576,note_on,,,,,64,0,8,,,,,0,,72,96
48576,note_on,,,,,256,0,11,,,,,3,,64,83
48576,note_on,,,,,256,0,12,,,,,4,,52,83
48576,note_on,,,,,256,0,13,,,,,5,,72,100
48576,note_on,,,,,0,0,13,,,,,5,,67,100
48640,note_off,,,,,256,0,10,,,,,2,,60,100
48640,note_off,,,,,256,0,9,,,,,1,,60,100
48668,note_off,,,,,92,0,8,,,,,0,,72,100
48672,note_on,,,,,4,0,8,,,,,0,,74,97
48704,note_off,,,,,0,0,13,,,,,5,,67,100
48704,note_off,,,,,128,0,12,,,,,4,,52,100
48704,note_off,,,,,128,0,14,,,,,5,,64,100
48704,note_off,,,,,128,0,13,,,,,5,,72,100
48704,note_off,,,,,128,0,11,,,,,3,,64,100
48764,note_off,,,,,92,0,8,,,,,0,,74,100
48768,note_on,,,,,64,0,12,,,,,4,,48,84
48768,note_on,,,,,4,0,8,,,,,0,,76,97
48768,note_on,,,,,0,0,13,,,,,5,,67,100
48768,note_on,,,,,64,0,14,,,,,5,,60,100
48768,note_on,,,,,64,0,11,,,,,3,,60,84
48768,note_on,,,,,64,0,13,,,,,5,,64,100
48860,note_off,,,,,92,0,8,,,,,0,,76,100
48864,note_on,,,,,4,0,8,,,,,0,,77,97
48896,note_off,,,,,0,0,13,,,,,5,,67,100
48896,note_off,,,,,128,0,13,,,,,5,,64,100
48896,note_off,,,,,128,0,12,,,,,4,,48,100
48896,note_off,,,,,128,0,14,,,,,5,,60,100
48896,note_off,,,,,128,0,11,,,,,3,,60,100
48956,note_off,,,,,92,0,8,,,,,0,,77,100
48960,note_on,,,,,64,0,11,,,,,3,,48,84
48960,note_on,,,,,64,0,13,,,,,5,,60,100
48960,note_on,,,,,64,0,14,,,,,5,,48,100
48960,note_on,,,,,64,0,12,,,,,4,,36,84
48960,note_on,,,,,4,0,8,,,,,0,,79,98
48960,note_on,,,,,0,0,13,,,,,5,,64,100
49052,note_off,,,,,92,0,8,,,,,0,,79,100
49056,note_on,,,,,4,0,8,,,,,0,,81,98
49088,note_off,,,,,128,0,12,,,,,4,,36,100
49088,note_off,,,,,128,0,11,,,,,3,,48,100
49088,note_off,,,,,0,0,13,,,,,5,,64,100
49088,note_off,,,,,128,0,14,,,,,5,,48,100
49088,note_off,,,,,128,0,13,,,,,5,,60,100
49120,note_off,,,,,64,0,8,,,,,0,,81,100
49152,note_on,,,,,512,0,10,,,,,2,,59,85
49152,note_on,,,,,32,0,8,,,,,0,,75,99
49152,note_on,,,,,512,0,9,,,,,1,,59,85
49280,note_off,,,,,128,0,8,,,,,0,,75,100
49344,note_on,,,,,256,0,13,,,,,5,,66,100
49344,note_on,,,,,256,0,11,,,,,3,,59,85
49344,note_on,,,,,256,0,12,,,,,4,,47,85
49344,note_on,,,,,64,0,8,,,,,0,,71,99
49344,note_on,,,,,0,0,13,,,,,5,,63,100
49344,note_on,,,,,256,0,14,,,,,5,,59,100
49408,note_off,,,,,256,0,10,,,,,2,,59,100
49408,note_off,,,,,256,0,9,,,,,1,,59,100
49472,note_off,,,,,128,0,14,,,,,5,,59,100
49472,note_off,,,,,128,0,12,,,,,4,,47,100
49472,note_off,,,,,128,0,13,,,,,5,,66,100
49472,note_off,,,,,0,0,13,,,,,5,,63,100
49472,note_off,,,,,128,0,8,,,,,0,,71,100
49472,note_off,,,,,128,0,11,,,,,3,,59,100
49536,note_on,,,,,64,0,13,,,,,5,,64,100
49536,note_on,,,,,64,0,12,,,,,4,,43,85
49536,note_on,,,,,64,0,14,,,,,5,,55,100
49536,note_on,,,,,64,0,11,,,,,3,,55,85
49536,note_on,,,,,0,0,13,,,,,5,,59,100
49664,note_off,,,,,128,0,12,,,,,4,,43,100
49664,note_off,,,,,0,0,13,,,,,5,,59,100
49664,note_off,,,,,128,0,13,,,,,5,,64,100
49664,note_off,,,,,128,0,14,,,,,5,,55,100
49664,note_off,,,,,128,0,11,,,,,3,,55,100
49728,note_on,,,,,0,0,13,,,,,5,,59,100
49728,note_on,,,,,64,0,12,,,,,4,,40,85
49728,note_on,,,,,64,0,11,,,,,3,,52,85
49728,note_on,,,,,64,0,14,,,,,5,,52,100
49728,note_on,,,,,64,0,13,,,,,5,,55,100
49728,note_on,,,,,256,0,8,,,,,0,,76,95
49856,note_off,,,,,128,0,8,,,,,0,,76,100
49856,note_off,,,,,128,0,14,,,,,5,,52,100
49856,note_off,,,,,128,0,12,,,,,4,,40,100
49856,note_off,,,,,0,0,13,,,,,5,,59,100
49856,note_off,,,,,128,0,11,,,,,3,,52,100
49856,note_off,,,,,128,0,13,,,,,5,,55,100
49920,note_on,,,,,64,0,8,,,,,0,,76,95
49920,note_on,,,,,512,0,10,,,,,2,,67,85
49920,note_on,,,,,512,0,9,,,,,1,,67,85
50048,note_off,,,,,128,0,8,,,,,0,,76,100
50112,note_on,,,,,256,0,12,,,,,4,,47,85
50112,note_on,,,,,256,0,13,,,,,5,,64,100
50112,note_on,,,,,256,0,11,,,,,3,,59,85
50112,note_on,,,,,256,0,14,,,,,5,,59,100
50112,note_on,,,,,0,0,13,,,,,5,,67,100
50112,note_on,,,,,64,0,8,,,,,0,,79,96
50176,note_off,,,,,256,0,10,,,,,2,,67,100
50176,note_off,,,,,256,0,9,,,,,1,,67,100
50176,note_off,,,,,64,0,8,,,,,0,,79,100
50208,note_on,,,,,32,0,8,,,,,0,,78,96
50240,note_off,,,,,128,0,12,,,,,4,,47,100
50240,note_off,,,,,128,0,14,,,,,5,,59,100
50240,note_off,,,,,128,0,11,,,,,3,,59,100
50240,note_off,,,,,0,0,13,,,,,5,,67,100
50240,note_off,,,,,128,0,13,,,,,5,,64,100
50272,note_off,,,,,64,0,8,,,,,0,,78,100
50304,note_on,,,,,64,0,11,,,,,3,,55,85
50304,note_on,,,,,64,0,13,,,,,5,,64,100
50304,note_on,,,,,64,0,14,,,,,5,,55,100
50304,note_on,,,,,32,0,8,,,,,0,,76,97
50304,note_on,,,,,64,0,12,,,,,4,,43,85
50304,note_on,,,,,0,0,13,,,,,5,,59,100
50432,note_off,,,,,128,0,11,,,,,3,,55,100
50432,note_off,,,,,128,0,13,,,,,5,,64,100
50432,note_off,,,,,128,0,14,,,,,5,,55,100
50432,note_off,,,,,128,0,8,,,,,0,,76,100
50432,note_off,,,,,128,0,12,,,,,4,,43,100
50432,note_off,,,,,0,0,13,,,,,5,,59,100
50496,note_on,,,,,64,0,11,,,,,3,,52,85
50496,note_on,,,,,64,0,14,,,,,5,,52,100
50496,note_on,,,,,64,0,13,,,,,5,,55,100
50496,note_on,,,,,0,0,13,,,,,5,,59,100
50496,note_on,,,,,64,0,12,,,,,4,,40,85
50496,note_on,,,,,64,0,8,,,,,0,,76,97
50624,note_off,,,,,128,0,13,,,,,5,,55,100
50624,note_off,,,,,0,0,13,,,,,5,,59,100
50624,note_off,,,,,128,0,12,,,,,4,,40,100
50624,note_off,,,,,128,0,8,,,,,0,,76,100
50624,note_off,,,,,128,0,14,,,,,5,,52,100
50624,note_off,,,,,128,0,11,,,,,3,,52,100
50688,note_on,,,,,512,0,9,,,,,1,,66,85
50688,note_on,,,,,512,0,10,,,,,2,,66,85
50688,note_on,,,,,64,0,8,,,,,0,,81,98
50816,note_off,,,,,128,0,8,,,,,0,,81,100
50880,note_on,,,,,256,0,11,,,,,3,,59,85
50880,note_on,,,,,256,0,14,,,,,5,,59,100
50880,note_on,,,,,256,0,13,,,,,5,,66,100
50880,note_on,,,,,0,0,13,,,,,5,,69,100
50880,note_on,,,,,64,0,8,,,,,0,,79,99
50880,note_on,,,,,256,0,12,,,,,4,,47,85
50944,note_off,,,,,256,0,10,,,,,2,,66,100
50944,note_off,,,,,64,0,8,,,,,0,,79,100
50944,note_off,,,,,256,0,9,,,,,1,,66,100
50976,note_on,,,,,32,0,8,,,,,0,,78,99
51008,note_off,,,,,128,0,12,,,,,4,,47,100
51008,note_off,,,,,128,0,11,,,,,3,,59,100
51008,note_off,,,,,128,0,14,,,,,5,,59,100
51008,note_off,,,,,0,0,13,,,,,5,,69,100
51008,note_off,,,,,128,0,13,,,,,5,,66,100
51040,note_off,,,,,64,0,8,,,,,0,,78,100
51072,note_on,,,,,64,0,12,,,,,4,,43,85
51072,note_on,,,,,0,0,13,,,,,5,,59,100
51072,note_on,,,,,64,0,13,,,,,5,,64,100
51072,note_on,,,,,64,0,14,,,,,5,,55,100
51072,note_on,,,,,32,0,8,,,,,0,,76,99
51072,note_on,,,,,64,0,11,,,,,3,,55,85
51200,note_off,,,,,0,0,13,,,,,5,,59,100
51200,note_off,,,,,128,0,11,,,,,3,,55,100
51200,note_off,,,,,128,0,12,,,,,4,,43,100
51200,note_off,,,,,128,0,13,,,,,5,,64,100
51200,note_off,,,,,128,0,8,,,,,0,,76,100
51200,note_off,,,,,128,0,14,,,,,5,,55,100
51264,note_on,,,,,64,0,8,,,,,0,,76,100
51264,note_on,,,,,64,0,12,,,,,4,,40,85
51264,note_on,,,,,0,0,13,,,,,5,,59,100
51264,note_on,,,,,64,0,13,,,,,5,,55,100
51264,note_on,,,,,64,0,11,,,,,3,,52,85
51264,note_on,,,,,64,0,14,,,,,5,,52,100
51392,note_off,,,,,128,0,12,,,,,4,,40,100
51392,note_off,,,,,128,0,8,,,,,0,,76,100
51392,note_off,,,,,128,0,13,,,,,5,,55,100
51392,note_off,,,,,128,0,14,,,,,5,,52,100
51392,note_off,,,,,128,0,11,,,,,3,,52,100
51392,note_off,,,,,0,0,13,,,,,5,,59,100
51456,note_on,,,,,64,0,8,,,,,0,,83,101
51456,note_on,,,,,512,0,10,,,,,2,,67,85
51456,note_on,,,,,512,0,9,,,,,1,,67,85
51584,note_off,,,,,128,0,8,,,,,0,,83,100
51648,note_on,,,,,0,0,13,,,,,5,,67,100
51648,note_on,,,,,256,0,12,,,,,4,,47,85
51648,note_on,,,,,256,0,14,,,,,5,,59,100
51648,note_on,,,,,64,0,8,,,,,0,,79,102
51648,note_on,,,,,256,0,13,,,,,5,,64,100
51648,note_on,,,,,256,0,11,,,,,3,,59,85
51712,note_off,,,,,64,0,8,,,,,0,,79,100
51712,note_off,,,,,256,0,9,,,,,1,,67,100
51712,note_off,,,,,256,0,10,,,,,2,,67,100
51744,note_on,,,,,32,0,8,,,,,0,,78,102
51776,note_off,,,,,128,0,12,,,,,4,,47,100
51776,note_off,,,,,128,0,14,,,,,5,,59,100
51776,note_off,,,,,128,0,11,,,,,3,,59,100
51776,note_off,,,,,0,0,13,,,,,5,,67,100
51776,note_off,,,,,128,0,13,,,,,5,,64,100
51808,note_off,,,,,64,0,8,,,,,0,,78,100
51840,note_on,,,,,64,0,11,,,,,3,,55,85
51840,note_on,,,,,64,0,14,,,,,5,,55,100
51840,note_on,,,,,64,0,12,,,,,4,,43,85
51840,note_on,,,,,64,0,13,,,,,5,,64,100
51840,note_on,,,,,32,0,8,,,,,0,,76,102
51840,note_on,,,,,0,0,13,,,,,5,,59,100
51968,note_off,,,,,128,0,14,,,,,5,,55,100
51968,note_off,,,,,128,0,12,,,,,4,,43,100
51968,note_off,,,,,128,0,11,,,,,3,,55,100
51968,note_off,,,,,128,0,8,,,,,0,,76,100
51968,note_off,,,,,128,0,13,,,,,5,,64,100
51968,note_off,,,,,0,0,13,,,,,5,,59,100
52032,note_on,,,,,64,0,14,,,,,5,,52,100
52032,note_on,,,,,64,0,12,,,,,4,,40,85
52032,note_on,,,,,64,0,11,,,,,3,,52,85
52032,note_on,,,,,64,0,13,,,,,5,,55,100
52032,note_on,,,,,0,0,13,,,,,5,,59,100
52032,note_on,,,,,64,0,8,,,,,0,,76,103
52160,note_off,,,,,128,0,8,,,,,0,,76,100
52160,note_off,,,,,0,0,13,,,,,5,,59,100
52160,note_off,,,,,128,0,12,,,,,4,,40,100
52160,note_off,,,,,128,0,14,,,,,5,,52,100
52160,note_off,,,,,128,0,11,,,,,3,,52,100
52160,note_off,,,,,128,0,13,,,,,5,,55,100
52224,note_on,,,,,64,0,8,,,,,0,,84,104
52224,note_on,,,,,512,0,9,,,,,1,,69,85
52224,note_on,,,,,512,0,10,,,,,2,,69,85
52352,note_off,,,,,128,0,8,,,,,0,,84,100
52416,note_on,,,,,256,0,13,,,,,5,,63,100
52416,note_on,,,,,256,0,14,,,,,5,,59,100
52416,note_on,,,,,0,0,13,,,,,5,,69,100
52416,note_on,,,,,64,0,8,,,,,0,,75,104
52416,note_on,,,,,256,0,12,,,,,4,,47,85
52416,note_on,,,,,256,0,11,,,,,3,,59,85
52480,note_off,,,,,256,0,10,,,,,2,,69,100
52480,note_off,,,,,256,0,9,,,,,1,,69,100
52544,note_off,,,,,128,0,13,,,,,5,,63,100
52544,note_off,,,,,128,0,8,,,,,0,,75,100
52544,note_off,,,,,128,0,14,,,,,5,,59,100
52544,note_off,,,,,128,0,12,,,,,4,,47,100
52544,note_off,,,,,0,0,13,,,,,5,,69,100
52544,note_off,,,,,128,0,11,,,,,3,,59,100
52608,note_on,,,,,64,0,13,,,,,5,,59,100
52608,note_on,,,,,0,0,13,,,,,5,,64,100
52608,note_on,,,,,64,0,12,,,,,4,,43,85
52608,note_on,,,,,64,0,8,,,,,0,,76,105
52608,note_on,,,,,64,0,14,,,,,5,,55,100
52608,note_on,,,,,64,0,11,,,,,3,,55,85
52736,note_off,,,,,0,0,13,,,,,5,,64,100
52736,note_off,,,,,128,0,13,,,,,5,,59,100
52736,note_off,,,,,128,0,14,,,,,5,,55,100
52736,note_off,,,,,128,0,8,,,,,0,,76,100
52736,note_off,,,,,128,0,12,,,,,4,,43,100
52736,note_off,,,,,128,0,11,,,,,3,,55,100
52800,note_on,,,,,64,0,12,,,,,4,,40,85
52800,note_on,,,,,64,0,14,,,,,5,,52,100
52800,note_on,,,,,64,0,11,,,,,3,,52,85
52800,note_on,,,,,64,0,13,,,,,5,,55,100
52800,note_on,,,,,0,0,13,,,,,5,,59,100
52800,note_on,,,,,64,0,8,,,,,0,,67,106
52928,note_off,,,,,128,0,8,,,,,0,,67,100
52928,note_off,,,,,0,0,13,,,,,5,,59,100
52928,note_off,,,,,128,0,14,,,,,5,,52,100
52928,note_off,,,,,128,0,12,,,,,4,,40,100
52928,note_off,,,,,128,0,13,,,,,5,,55,100
52928,note_off,,,,,128,0,11,,,,,3,,52,100
52992,note_on,,,,,64,0,11,,,,,3,,54,85
52992,note_on,,,,,64,0,8,,,,,0,,69,107
52992,note_on,,,,,0,0,13,,,,,5,,57,100
52992,note_on,,,,,0,0,13,,,,,5,,60,100
52992,note_on,,,,,64,0,13,,,,,5,,64,100
52992,note_on,,,,,64,0,14,,,,,5,,54,100
52992,note_on,,,,,64,0,12,,,,,4,,42,85
53120,note_off,,,,,128,0,11,,,,,3,,54,100
53120,note_off,,,,,128,0,8,,,,,0,,69,100
53120,note_off,,,,,128,0,13,,,,,5,,57,100
53120,note_off,,,,,0,0,13,,,,,5,,60,100
53120,note_off,,,,,128,0,12,,,,,4,,42,100
53120,note_off,,,,,128,0,14,,,,,5,,54,100
53184,note_on,,,,,64,0,12,,,,,4,,43,85
53184,note_on,,,,,64,0,8,,,,,0,,76,107
53184,note_on,,,,,64,0,11,,,,,3,,55,85
53184,note_on,,,,,64,0,13,,,,,5,,59,100
53184,note_on,,,,,64,0,14,,,,,5,,55,100
53248,note_off,,,,,0,0,13,,,,,5,,59,100
53248,note_off,,,,,64,0,13,,,,,5,,64,100
53248,note_off,,,,,64,0,14,,,,,5,,55,100
53248,note_off,,,,,64,0,11,,,,,3,,55,100
53248,note_off,,,,,64,0,12,,,,,4,,43,100
53280,note_on,,,,,32,0,11,,,,,3,,57,85
53280,note_on,,,,,32,0,12,,,,,4,,45,85
53280,note_on,,,,,32,0,13,,,,,5,,60,100
53280,note_on,,,,,32,0,14,,,,,5,,57,100
53312,note_off,,,,,128,0,8,,,,,0,,76,100
53344,note_off,,,,,64,0,12,,,,,4,,45,100
53344,note_off,,,,,64,0,14,,,,,5,,57,100
53344,note_off,,,,,64,0,11,,,,,3,,57,100
53344,note_off,,,,,64,0,13,,,,,5,,60,100
53376,note_on,,,,,32,0,12,,,,,4,,47,85
53376,note_on,,,,,0,0,13,,,,,5,,64,100
53376,note_on,,,,,32,0,11,,,,,3,,59,85
53376,note_on,,,,,32,0,13,,,,,5,,66,100
53376,note_on,,,,,32,0,14,,,,,5,,59,100
53376,note_on,,,,,64,0,8,,,,,0,,59,108
53504,note_off,,,,,128,0,11,,,,,3,,59,100
53504,note_off,,,,,128,0,14,,,,,5,,59,100
53504,note_off,,,,,128,0,13,,,,,5,,64,100
53504,note_off,,,,,128,0,12,,,,,4,,47,100
53504,note_off,,,,,128,0,8,,,,,0,,59,100
53568,note_on,,,,,64,0,14,,,,,5,,47,100
53568,note_on,,,,,64,0,11,,,,,3,,47,85
53568,note_on,,,,,64,0,12,,,,,4,,35,85
53568,note_on,,,,,64,0,13,,,,,5,,63,100
53568,note_on,,,,,64,0,8,,,,,0,,75,109
53632,note_off,,,,,64,0,13,,,,,5,,66,100
53696,note_off,,,,,128,0,8,,,,,0,,75,100
53696,note_off,,,,,128,0,12,,,,,4,,35,100
53696,note_off,,,,,128,0,11,,,,,3,,47,100
53696,note_off,,,,,128,0,14,,,,,5,,47,100
53696,note_off,,,,,64,0,13,,,,,5,,63,100
53760,note_on,,,,,0,0,13,,,,,5,,64,100
53760,note_on,,,,,64,0,14,,,,,5,,40,100
53760,note_on,,,,,64,0,11,,,,,3,,40,85
53760,note_on,,,,,64,0,13,,,,,5,,67,100
53760,note_on,,,,,64,0,12,,,,,4,,40,85
53760,note_on,,,,,64,0,8,,,,,0,,76,109
53888,note_off,,,,,128,0,12,,,,,4,,40,100
53888,note_off,,,,,128,0,13,,,,,5,,67,100
53888,note_off,,,,,0,0,13,,,,,5,,64,100
53888,note_off,,,,,128,0,14,,,,,5,,40,100
53888,note_off,,,,,128,0,11,,,,,3,,40,100
53952,note_on,,,,,0,0,13,,,,,5,,71,100
53952,note_on,,,,,64,0,11,,,,,3,,52,85
53952,note_on,,,,,64,0,14,,,,,5,,52,100
53952,note_on,,,,,64,0,12,,,,,4,,40,85
53952,note_on,,,,,64,0,13,,,,,5,,67,100
54016,note_off,,,,,256,0,8,,,,,0,,76,100
54080,note_off,,,,,128,0,14,,,,,5,,52,100
54080,note_off,,,,,128,0,11,,,,,3,,52,100
54080,note_off,,,,,128,0,12,,,,,4,,40,100
54080,note_off,,,,,128,0,13,,,,,5,,67,100
54080,note_off,,,,,0,0,13,,,,,5,,71,100
54144,note_on,,,,,64,0,12,,,,,4,,43,85
54144,note_on,,,,,64,0,14,,,,,5,,55,100
54144,note_on,,,,,64,0,13,,,,,5,,71,100
54144,note_on,,,,,0,0,13,,,,,5,,76,100
54144,note_on,,,,,64,0,11,,,,,3,,55,85
54272,note_off,,,,,128,0,12,,,,,4,,43,100
54272,note_off,,,,,128,0,13,,,,,5,,71,100
54272,note_off,,,,,0,0,13,,,,,5,,76,100
54272,note_off,,,,,128,0,11,,,,,3,,55,100
54272,note_off,,,,,128,0,14,,,,,5,,55,100
54336,note_on,,,,,1856,0,10,,,,,2,,67,100
54336,note_on,,,,,64,0,11,,,,,3,,52,85
54336,note_on,,,,,64,0,14,,,,,5,,52,100
54336,note_on,,,,,1856,0,9,,,,,1,,71,100
54336,note_on,,,,,64,0,13,,,,,5,,67,100
54336,note_on,,,,,64,0,12,,,,,4,,40,85
54336,note_on,,,,,0,0,13,,,,,5,,71,100
54464,note_off,,,,,128,0,14,,,,,5,,52,100
54464,note_off,,,,,128,0,11,,,,,3,,52,100
54464,note_off,,,,,128,0,10,,,,,2,,67,100
54464,note_off,,,,,128,0,9,,,,,1,,71,100
54464,note_off,,,,,0,0,13,,,,,5,,71,100
54464,note_off,,,,,128,0,12,,,,,4,,40,100
54464,note_off,,,,,128,0,13,,,,,5,,67,100
54528,note_on,,,,,64,0,10,,,,,2,,67,100
54528,note_on,,,,,64,0,9,,,,,1,,76,100
54656,note_off,,,,,128,0,10,,,,,2,,67,100
54656,note_off,,,,,128,0,9,,,,,1,,76,100
54720,note_on,,,,,256,0,12,,,,,4,,40,100
54720,note_on,,,,,256,0,13,,,,,5,,67,100
54720,note_on,,,,,256,0,11,,,,,3,,52,100
54720,note_on,,,,,64,0,10,,,,,2,,64,100
54720,note_on,,,,,0,0,13,,,,,5,,71,100
54720,note_on,,,,,64,0,9,,,,,1,,76,100
54720,note_on,,,,,256,0,14,,,,,5,,52,100
54848,note_off,,,,,128,0,14,,,,,5,,52,100
54848,note_off,,,,,128,0,11,,,,,3,,52,100
54848,note_off,,,,,128,0,10,,,,,2,,64,100
54848,note_off,,,,,128,0,13,,,,,5,,67,100
54848,note_off,,,,,128,0,12,,,,,4,,40,100
54848,note_off,,,,,128,0,9,,,,,1,,76,100
54848,note_off,,,,,0,0,13,,,,,5,,71,100
54912,note_on,,,,,64,0,11,,,,,3,,55,100
54912,note_on,,,,,64,0,9,,,,,1,,76,100
54912,note_on,,,,,64,0,13,,,,,5,,71,100
54912,note_on,,,,,0,0,13,,,,,5,,76,100
54912,note_on,,,,,64,0,14,,,,,5,,55,100
54912,note_on,,,,,64,0,12,,,,,4,,43,100
55040,note_off,,,,,128,0,11,,,,,3,,55,100
55040,note_off,,,,,128,0,12,,,,,4,,43,100
55040,note_off,,,,,128,0,9,,,,,1,,76,100
55040,note_off,,,,,128,0,14,,,,,5,,55,100
55040,note_off,,,,,128,0,13,,,,,5,,71,100
55040,note_off,,,,,0,0,13,,,,,5,,76,100
55104,note_on,,,,,64,0,9,,,,,1,,76,100
55104,note_on,,,,,64,0,12,,,,,4,,40,100
55104,note_on,,,,,0,0,13,,,,,5,,71,100
55104,note_on,,,,,256,0,10,,,,,2,,71,100
55104,note_on,,,,,64,0,13,,,,,5,,67,100
55104,note_on,,,,,64,0,11,,,,,3,,52,100
55104,note_on,,,,,64,0,14,,,,,5,,52,100
55232,note_off,,,,,128,0,13,,,,,5,,67,100
55232,note_off,,,,,0,0,13,,,,,5,,71,100
55232,note_off,,,,,128,0,9,,,,,1,,76,100
55232,note_off,,,,,128,0,14,,,,,5,,52,100
55232,note_off,,,,,128,0,10,,,,,2,,71,100
55232,note_off,,,,,128,0,12,,,,,4,,40,100
55232,note_off,,,,,128,0,11,,,,,3,,52,100
55296,note_on,,,,,64,0,9,,,,,1,,76,100
55296,note_on,,,,,64,0,10,,,,,2,,67,100
55424,note_off,,,,,128,0,10,,,,,2,,67,100
55424,note_off,,,,,128,0,9,,,,,1,,76,100
55488,note_on,,,,,256,0,11,,,,,3,,52,100
55488,note_on,,,,,256,0,13,,,,,5,,67,100
55488,note_on,,,,,256,0,12,,,,,4,,40,100
55488,note_on,,,,,256,0,14,,,,,5,,52,100
55488,note_on,,,,,64,0,9,,,,,1,,79,100
55488,note_on,,,,,0,0,13,,,,,5,,71,100
55488,note_on,,,,,64,0,10,,,,,2,,64,100
55552,note_off,,,,,64,0,9,,,,,1,,79,100
55584,note_on,,,,,32,0,9,,,,,1,,78,100
55616,note_off,,,,,128,0,12,,,,,4,,40,100
55616,note_off,,,,,128,0,10,,,,,2,,64,100
55616,note_off,,,,,128,0,14,,,,,5,,52,100
55616,note_off,,,,,0,0,13,,,,,5,,71,100
55616,note_off,,,,,128,0,13,,,,,5,,67,100
55616,note_off,,,,,128,0,11,,,,,3,,52,100
55648,note_off,,,,,64,0,9,,,,,1,,78,100
55680,note_on,,,,,64,0,11,,,,,3,,55,100
55680,note_on,,,,,32,0,9,,,,,1,,76,100
55680,note_on,,,,,64,0,14,,,,,5,,55,100
55680,note_on,,,,,0,0,13,,,,,5,,76,100
55680,note_on,,,,,64,0,13,,,,,5,,71,100
55680,note_on,,,,,64,0,12,,,,,4,,43,100
55808,note_off,,,,,128,0,12,,,,,4,,43,100
55808,note_off,,,,,128,0,14,,,,,5,,55,100
55808,note_off,,,,,128,0,11,,,,,3,,55,100
55808,note_off,,,,,0,0,13,,,,,5,,76,100
55808,note_off,,,,,128,0,13,,,,,5,,71,100
55808,note_off,,,,,128,0,9,,,,,1,,76,100
55872,note_on,,,,,64,0,14,,,,,5,,52,100
55872,note_on,,,,,0,0,13,,,,,5,,71,100
55872,note_on,,,,,64,0,13,,,,,5,,67,100
55872,note_on,,,,,64,0,9,,,,,1,,79,100
55872,note_on,,,,,256,0,10,,,,,2,,71,100
55872,note_on,,,,,64,0,12,,,,,4,,40,100
55872,note_on,,,,,64,0,11,,,,,3,,52,100
55936,note_off,,,,,64,0,9,,,,,1,,79,100
55968,note_on,,,,,32,0,9,,,,,1,,78,100
56000,note_off,,,,,128,0,13,,,,,5,,67,100
56000,note_off,,,,,128,0,10,,,,,2,,71,100
56000,note_off,,,,,128,0,12,,,,,4,,40,100
56000,note_off,,,,,128,0,11,,,,,3,,52,100
56000,note_off,,,,,128,0,14,,,,,5,,52,100
56000,note_off,,,,,0,0,13,,,,,5,,71,100
56032,note_off,,,,,64,0,9,,,,,1,,78,100
56064,note_on,,,,,64,0,10,,,,,2,,67,100
56064,note_on,,,,,32,0,9,,,,,1,,76,100
56192,note_off,,,,,128,0,9,,,,,1,,76,100
56192,note_off,,,,,128,0,10,,,,,2,,67,100
56256,note_on,,,,,64,0,9,,,,,1,,79,100
56256,note_on,,,,,0,0,13,,,,,5,,71,100
56256,note_on,,,,,256,0,13,,,,,5,,67,100
56256,note_on,,,,,256,0,11,,,,,3,,52,100
56256,note_on,,,,,256,0,12,,,,,4,,40,100
56256,note_on,,,,,64,0,10,,,,,2,,64,100
56256,note_on,,,,,256,0,14,,,,,5,,52,100
56320,note_off,,,,,64,0,9,,,,,1,,79,100
56352,note_on,,,,,32,0,9,,,,,1,,78,100
56384,note_off,,,,,128,0,14,,,,,5,,52,100
56384,note_off,,,,,0,0,13,,,,,5,,71,100
56384,note_off,,,,,128,0,12,,,,,4,,40,100
56384,note_off,,,,,128,0,11,,,,,3,,52,100
56384,note_off,,,,,128,0,10,,,,,2,,64,100
56384,note_off,,,,,128,0,13,,,,,5,,67,100
56416,note_off,,,,,64,0,9,,,,,1,,78,100
56448,note_on,,,,,32,0,9,,,,,1,,76,100
56448,note_on,,,,,0,0,13,,,,,5,,76,100
56448,note_on,,,,,64,0,14,,,,,5,,55,100
56448,note_on,,,,,64,0,13,,,,,5,,71,100
56448,note_on,,,,,64,0,12,,,,,4,,43,100
56448,note_on,,,,,64,0,11,,,,,3,,55,100
56576,note_off,,,,,0,0,13,,,,,5,,76,100
56576,note_off,,,,,128,0,9,,,,,1,,76,100
56576,note_off,,,,,128,0,14,,,,,5,,55,100
56576,note_off,,,,,128,0,12,,,,,4,,43,100
56576,note_off,,,,,128,0,13,,,,,5,,71,100
56576,note_off,,,,,128,0,11,,,,,3,,55,100
56640,note_on,,,,,64,0,14,,,,,5,,52,100
56640,note_on,,,,,64,0,13,,,,,5,,67,100
56640,note_on,,,,,64,0,12,,,,,4,,40,100
56640,note_on,,,,,0,0,13,,,,,5,,71,100
56640,note_on,,,,,64,0,11,,,,,3,,52,100
56640,note_on,,,,,64,0,9,,,,,1,,74,100
56640,note_on,,,,,256,0,10,,,,,2,,67,100
56704,note_off,,,,,64,0,9,,,,,1,,74,100
56736,note_on,,,,,32,0,9,,,,,1,,72,100
56768,note_off,,,,,128,0,12,,,,,4,,40,100
56768,note_off,,,,,128,0,13,,,,,5,,67,100
56768,note_off,,,,,128,0,14,,,,,5,,52,100
56768,note_off,,,,,128,0,11,,,,,3,,52,100
56768,note_off,,,,,128,0,10,,,,,2,,67,100
56768,note_off,,,,,0,0,13,,,,,5,,71,100
56800,note_off,,,,,64,0,9,,,,,1,,72,100
56832,note_on,,,,,64,0,10,,,,,2,,64,100
56832,note_on,,,,,32,0,9,,,,,1,,71,100
56960,note_off,,,,,128,0,10,,,,,2,,64,100
56960,note_off,,,,,128,0,9,,,,,1,,71,100
57024,note_on,,,,,256,0,11,,,,,3,,52,100
57024,note_on,,,,,0,0,13,,,,,5,,71,100
57024,note_on,,,,,256,0,13,,,,,5,,67,100
57024,note_on,,,,,256,0,14,,,,,5,,52,100
57024,note_on,,,,,256,0,12,,,,,4,,40,100
57024,note_on,,,,,64,0,10,,,,,2,,59,100
57024,note_on,,,,,64,0,9,,,,,1,,69,100
57088,note_off,,,,,64,0,9,,,,,1,,69,100
57120,note_on,,,,,32,0,9,,,,,1,,67,100
57152,note_off,,,,,128,0,10,,,,,2,,59,100
57152,note_off,,,,,128,0,12,,,,,4,,40,100
57152,note_off,,,,,128,0,11,,,,,3,,52,100
57152,note_off,,,,,0,0,13,,,,,5,,71,100
57152,note_off,,,,,128,0,14,,,,,5,,52,100
57152,note_off,,,,,128,0,13,,,,,5,,67,100
57184,note_off,,,,,64,0,9,,,,,1,,67,100
57216,note_on,,,,,64,0,12,,,,,4,,39,100
57216,note_on,,,,,32,0,9,,,,,1,,66,100
57216,note_on,,,,,64,0,14,,,,,5,,51,100
57216,note_on,,,,,64,0,13,,,,,5,,66,100
57216,note_on,,,,,0,0,13,,,,,5,,69,100
57216,note_on,,,,,64,0,11,,,,,3,,51,100
57344,note_off,,,,,128,0,11,,,,,3,,51,100
57344,note_off,,,,,128,0,9,,,,,1,,66,100
57344,note_off,,,,,0,0,13,,,,,5,,69,100
57344,note_off,,,,,128,0,13,,,,,5,,66,100
57344,note_off,,,,,128,0,12,,,,,4,,39,100
57344,note_off,,,,,128,0,14,,,,,5,,51,100
57408,note_on,,,,,0,0,13,,,,,5,,66,100
57408,note_on,,,,,64,0,13,,,,,5,,63,100
57408,note_on,,,,,64,0,9,,,,,1,,71,100
57408,note_on,,,,,64,0,12,,,,,4,,35,100
57408,note_on,,,,,64,0,14,,,,,5,,47,100
57408,note_on,,,,,256,0,10,,,,,2,,63,100
57408,note_on,,,,,64,0,11,,,,,3,,47,100
57536,note_off,,,,,128,0,10,,,,,2,,63,100
57536,note_off,,,,,128,0,12,,,,,4,,35,100
57536,note_off,,,,,128,0,9,,,,,1,,71,100
57536,note_off,,,,,128,0,14,,,,,5,,47,100
57536,note_off,,,,,128,0,13,,,,,5,,63,100
57536,note_off,,,,,0,0,13,,,,,5,,66,100
57536,note_off,,,,,128,0,11,,,,,3,,47,100
57600,note_on,,,,,64,0,10,,,,,2,,59,100
57600,note_on,,,,,64,0,14,,,,,5,,40,100
57600,note_on,,,,,64,0,11,,,,,3,,40,100
57600,note_on,,,,,64,0,12,,,,,4,,40,100
57600,note_on,,,,,64,0,13,,,,,5,,67,100
57600,note_on,,,,,0,0,13,,,,,5,,64,100
57600,note_on,,,,,64,0,9,,,,,1,,67,100
57728,note_off,,,,,128,0,9,,,,,1,,67,100
57728,note_off,,,,,128,0,11,,,,,3,,40,100
57728,note_off,,,,,128,0,14,,,,,5,,40,100
57728,note_off,,,,,128,0,13,,,,,5,,67,100
57728,note_off,,,,,128,0,10,,,,,2,,59,100
57728,note_off,,,,,0,0,13,,,,,5,,64,100
57728,note_off,,,,,128,0,12,,,,,4,,40,100
57792,note_on,,,,,64,0,11,,,,,3,,52,100
57792,note_on,,,,,64,0,14,,,,,5,,52,100
57792,note_on,,,,,64,0,12,,,,,4,,40,100
57792,note_on,,,,,64,0,10,,,,,2,,55,100
57792,note_on,,,,,64,0,13,,,,,5,,67,100
57792,note_on,,,,,0,0,13,,,,,5,,71,100
57792,note_on,,,,,64,0,9,,,,,1,,64,100
57920,note_off,,,,,128,0,12,,,,,4,,40,100
57920,note_off,,,,,128,0,13,,,,,5,,67,100
57920,note_off,,,,,0,0,13,,,,,5,,71,100
57920,note_off,,,,,128,0,14,,,,,5,,52,100
57920,note_off,,,,,128,0,10,,,,,2,,55,100
57920,note_off,,,,,128,0,9,,,,,1,,64,100
57920,note_off,,,,,128,0,11,,,,,3,,52,100
57984,note_on,,,,,64,0,9,,,,,1,,64,100
57984,note_on,,,,,64,0,13,,,,,5,,71,100
57984,note_on,,,,,0,0,13,,,,,5,,76,100
57984,note_on,,,,,64,0,12,,,,,4,,43,100
57984,note_on,,,,,64,0,14,,,,,5,,55,100
57984,note_on,,,,,64,0,11,,,,,3,,55,100
58112,note_off,,,,,128,0,13,,,,,5,,71,100
58112,note_off,,,,,128,0,12,,,,,4,,43,100
58112,note_off,,,,,0,0,13,,,,,5,,76,100
58112,note_off,,,,,128,0,11,,,,,3,,55,100
58112,note_off,,,,,128,0,9,,,,,1,,64,100
58112,note_off,,,,,128,0,14,,,,,5,,55,100
58176,note_on,,,,,64,0,14,,,,,5,,52,100
58176,note_on,,,,,256,0,10,,,,,2,,64,90
58176,note_on,,,,,64,0,11,,,,,3,,52,90
58176,note_on,,,,,64,0,13,,,,,5,,67,100
58176,note_on,,,,,64,0,9,,,,,1,,71,90
58176,note_on,,,,,0,0,13,,,,,5,,71,100
58176,note_on,,,,,64,0,12,,,,,4,,40,90
58304,note_off,,,,,128,0,12,,,,,4,,40,100
58304,note_off,,,,,128,0,14,,,,,5,,52,100
58304,note_off,,,,,128,0,11,,,,,3,,52,100
58304,note_off,,,,,128,0,13,,,,,5,,67,100
58304,note_off,,,,,0,0,13,,,,,5,,71,100
58304,note_off,,,,,128,0,10,,,,,2,,64,100
58304,note_off,,,,,128,0,9,,,,,1,,71,100
58368,note_on,,,,,64,0,10,,,,,2,,68,91
58368,note_on,,,,,64,0,9,,,,,1,,76,91
58496,note_off,,,,,128,0,9,,,,,1,,76,100
58496,note_off,,,,,128,0,10,,,,,2,,68,100
58560,note_on,,,,,64,0,9,,,,,1,,76,93
58560,note_on,,,,,256,0,14,,,,,5,,56,100
58560,note_on,,,,,256,0,11,,,,,3,,56,93
58560,note_on,,,,,64,0,10,,,,,2,,71,93
58560,note_on,,,,,256,0,12,,,,,4,,44,93
58560,note_on,,,,,256,0,13,,,,,5,,71,100
58560,note_on,,,,,0,0,13,,,,,5,,76,100
58688,note_off,,,,,128,0,9,,,,,1,,76,100
58688,note_off,,,,,128,0,11,,,,,3,,56,100
58688,note_off,,,,,128,0,10,,,,,2,,71,100
58688,note_off,,,,,128,0,14,,,,,5,,56,100
58688,note_off,,,,,128,0,13,,,,,5,,71,100
58688,note_off,,,,,0,0,13,,,,,5,,76,100
58688,note_off,,,,,128,0,12,,,,,4,,44,100
58752,note_on,,,,,64,0,12,,,,,4,,44,95
58752,note_on,,,,,64,0,9,,,,,1,,76,95
58752,note_on,,,,,64,0,11,,,,,3,,44,95
58752,note_on,,,,,0,0,13,,,,,5,,71,100
58752,note_on,,,,,64,0,13,,,,,5,,64,100
58752,note_on,,,,,64,0,14,,,,,5,,44,100
58880,note_off,,,,,128,0,12,,,,,4,,44,100
58880,note_off,,,,,128,0,11,,,,,3,,44,100
58880,note_off,,,,,128,0,14,,,,,5,,44,100
58880,note_off,,,,,0,0,13,,,,,5,,71,100
58880,note_off,,,,,128,0,13,,,,,5,,64,100
58880,note_off,,,,,128,0,9,,,,,1,,76,100
58944,note_on,,,,,256,0,10,,,,,2,,59,97
58944,note_on,,,,,64,0,12,,,,,4,,40,97
58944,note_on,,,,,64,0,11,,,,,3,,40,97
58944,note_on,,,,,64,0,14,,,,,5,,40,100
58944,note_on,,,,,64,0,9,,,,,1,,76,97
58944,note_on,,,,,64,0,13,,,,,5,,71,100
58944,note_on,,,,,0,0,13,,,,,5,,68,100
59072,note_off,,,,,128,0,11,,,,,3,,40,100
59072,note_off,,,,,0,0,13,,,,,5,,68,100
59072,note_off,,,,,128,0,14,,,,,5,,40,100
59072,note_off,,,,,128,0,13,,,,,5,,71,100
59072,note_off,,,,,128,0,12,,,,,4,,40,100
59072,note_off,,,,,128,0,10,,,,,2,,59,100
59072,note_off,,,,,128,0,9,,,,,1,,76,100
59136,note_on,,,,,64,0,10,,,,,2,,60,100
59136,note_on,,,,,64,0,9,,,,,1,,76,100
59200,note_off,,,,,64,0,9,,,,,1,,76,100
59232,note_on,,,,,32,0,9,,,,,1,,74,98
59264,note_off,,,,,128,0,10,,,,,2,,60,100
59296,note_off,,,,,64,0,9,,,,,1,,74,100
59328,note_on,,,,,32,0,9,,,,,1,,72,96
59328,note_on,,,,,256,0,11,,,,,3,,57,96
59328,note_on,,,,,256,0,12,,,,,4,,45,96
59328,note_on,,,,,256,0,14,,,,,5,,57,100
59328,note_on,,,,,256,0,13,,,,,5,,72,100
59328,note_on,,,,,0,0,13,,,,,5,,76,100
59328,note_on,,,,,64,0,10,,,,,2,,64,96
59392,note_off,,,,,64,0,9,,,,,1,,72,100
59424,note_on,,,,,32,0,9,,,,,1,,71,93
59456,note_off,,,,,128,0,11,,,,,3,,57,100
59456,note_off,,,,,128,0,14,,,,,5,,57,100
59456,note_off,,,,,0,0,13,,,,,5,,76,100
59456,note_off,,,,,128,0,13,,,,,5,,72,100
59456,note_off,,,,,128,0,12,,,,,4,,45,100
59456,note_off,,,,,128,0,10,,,,,2,,64,100
59488,note_off,,,,,64,0,9,,,,,1,,71,100
59520,note_on,,,,,64,0,12,,,,,4,,33,91
59520,note_on,,,,,64,0,14,,,,,5,,45,100
59520,note_on,,,,,32,0,9,,,,,1,,72,91
59520,note_on,,,,,64,0,11,,,,,3,,45,91
59520,note_on,,,,,0,0,13,,,,,5,,72,100
59520,note_on,,,,,64,0,13,,,,,5,,64,100
59648,note_off,,,,,128,0,14,,,,,5,,45,100
59648,note_off,,,,,128,0,9,,,,,1,,72,100
59648,note_off,,,,,128,0,12,,,,,4,,33,100
59648,note_off,,,,,128,0,11,,,,,3,,45,100
59648,note_off,,,,,0,0,13,,,,,5,,72,100
59648,note_off,,,,,128,0,13,,,,,5,,64,100
59712,note_on,,,,,0,0,13,,,,,5,,72,100
59712,note_on,,,,,64,0,13,,,,,5,,76,100
59712,note_on,,,,,64,0,9,,,,,1,,69,86
59712,note_on,,,,,64,0,11,,,,,3,,57,86
59712,note_on,,,,,64,0,14,,,,,5,,57,100
59712,note_on,,,,,64,0,12,,,,,4,,45,86
59712,note_on,,,,,256,0,10,,,,,2,,64,86
59840,note_off,,,,,128,0,12,,,,,4,,45,100
59840,note_off,,,,,0,0,13,,,,,5,,72,100
59840,note_off,,,,,128,0,11,,,,,3,,57,100
59840,note_off,,,,,128,0,13,,,,,5,,76,100
59840,note_off,,,,,128,0,9,,,,,1,,69,100
59840,note_off,,,,,128,0,14,,,,,5,,57,100
59840,note_off,,,,,128,0,10,,,,,2,,64,100
59904,note_on,,,,,64,0,10,,,,,2,,66,87
59904,note_on,,,,,64,0,9,,,,,1,,74,87
60032,note_off,,,,,128,0,10,,,,,2,,66,100
60032,note_off,,,,,128,0,9,,,,,1,,74,100
60096,note_on,,,,,64,0,9,,,,,1,,74,89
60096,note_on,,,,,64,0,10,,,,,2,,69,89
60096,note_on,,,,,256,0,14,,,,,5,,54,100
60096,note_on,,,,,256,0,11,,,,,3,,54,89
60096,note_on,,,,,256,0,12,,,,,4,,42,89
60096,note_on,,,,,256,0,13,,,,,5,,69,100
60096,note_on,,,,,0,0,13,,,,,5,,74,100
60224,note_off,,,,,128,0,13,,,,,5,,69,100
60224,note_off,,,,,128,0,10,,,,,2,,69,100
60224,note_off,,,,,128,0,11,,,,,3,,54,100
60224,note_off,,,,,128,0,9,,,,,1,,74,100
60224,note_off,,,,,0,0,13,,,,,5,,74,100
60224,note_off,,,,,128,0,14,,,,,5,,54,100
60224,note_off,,,,,128,0,12,,,,,4,,42,100
60288,note_on,,,,,64,0,12,,,,,4,,42,91
60288,note_on,,,,,64,0,11,,,,,3,,42,91
60288,note_on,,,,,0,0,13,,,,,5,,62,100
60288,note_on,,,,,64,0,13,,,,,5,,69,100
60288,note_on,,,,,64,0,14,,,,,5,,42,100
60288,note_on,,,,,64,0,9,,,,,1,,74,91
60416,note_off,,,,,128,0,12,,,,,4,,42,100
60416,note_off,,,,,128,0,11,,,,,3,,42,100
60416,note_off,,,,,0,0,13,,,,,5,,62,100
60416,note_off,,,,,128,0,13,,,,,5,,69,100
60416,note_off,,,,,128,0,14,,,,,5,,42,100
60416,note_off,,,,,128,0,9,,,,,1,,74,100
60480,note_on,,,,,64,0,13,,,,,5,,69,100
60480,note_on,,,,,64,0,14,,,,,5,,38,100
60480,note_on,,,,,64,0,9,,,,,1,,74,94
60480,note_on,,,,,256,0,10,,,,,2,,57,94
60480,note_on,,,,,0,0,13,,,,,5,,66,100
60480,note_on,,,,,64,0,12,,,,,4,,38,94
60480,note_on,,,,,64,0,11,,,,,3,,38,94
60608,note_off,,,,,128,0,12,,,,,4,,38,100
60608,note_off,,,,,128,0,11,,,,,3,,38,100
60608,note_off,,,,,128,0,13,,,,,5,,69,100
60608,note_off,,,,,0,0,13,,,,,5,,66,100
60608,note_off,,,,,128,0,14,,,,,5,,38,100
60608,note_off,,,,,128,0,10,,,,,2,,57,100
60608,note_off,,,,,128,0,9,,,,,1,,74,100
60672,note_on,,,,,64,0,10,,,,,2,,59,97
60672,note_on,,,,,64,0,9,,,,,1,,74,97
60736,note_off,,,,,64,0,9,,,,,1,,74,100
60768,note_on,,,,,32,0,9,,,,,1,,72,95
60800,note_off,,,,,128,0,10,,,,,2,,59,100
60832,note_off,,,,,64,0,9,,,,,1,,72,100
60864,note_on,,,,,256,0,14,,,,,5,,55,100
60864,note_on,,,,,256,0,11,,,,,3,,55,92
60864,note_on,,,,,0,0,13,,,,,5,,74,100
60864,note_on,,,,,256,0,13,,,,,5,,71,100
60864,note_on,,,,,64,0,10,,,,,2,,62,92
60864,note_on,,,,,256,0,12,,,,,4,,43,92
60864,note_on,,,,,32,0,9,,,,,1,,71,92
60928,note_off,,,,,64,0,9,,,,,1,,71,100
60960,note_on,,,,,32,0,9,,,,,1,,69,90
60992,note_off,,,,,128,0,14,,,,,5,,55,100
60992,note_off,,,,,0,0,13,,,,,5,,74,100
60992,note_off,,,,,128,0,12,,,,,4,,43,100
60992,note_off,,,,,128,0,11,,,,,3,,55,100
60992,note_off,,,,,128,0,13,,,,,5,,71,100
60992,note_off,,,,,128,0,10,,,,,2,,62,100
61024,note_off,,,,,64,0,9,,,,,1,,69,100
61056,note_on,,,,,64,0,13,,,,,5,,62,100
61056,note_on,,,,,64,0,12,,,,,4,,43,87
61056,note_on,,,,,64,0,11,,,,,3,,43,87
61056,note_on,,,,,32,0,9,,,,,1,,71,87
61056,note_on,,,,,64,0,14,,,,,5,,43,100
61056,note_on,,,,,0,0,13,,,,,5,,71,100
61184,note_off,,,,,128,0,9,,,,,1,,71,100
61184,note_off,,,,,128,0,13,,,,,5,,62,100
61184,note_off,,,,,128,0,11,,,,,3,,43,100
61184,note_off,,,,,128,0,14,,,,,5,,43,100
61184,note_off,,,,,128,0,12,,,,,4,,43,100
61184,note_off,,,,,0,0,13,,,,,5,,71,100
61248,note_on,,,,,64,0,13,,,,,5,,74,100
61248,note_on,,,,,64,0,9,,,,,1,,67,82
61248,note_on,,,,,256,0,10,,,,,2,,62,82
61248,note_on,,,,,64,0,11,,,,,3,,55,82
61248,note_on,,,,,64,0,12,,,,,4,,43,82
61248,note_on,,,,,0,0,13,,,,,5,,71,100
61248,note_on,,,,,64,0,14,,,,,5,,55,100
61376,note_off,,,,,128,0,13,,,,,5,,74,100
61376,note_off,,,,,128,0,10,,,,,2,,62,100
61376,note_off,,,,,128,0,11,,,,,3,,55,100
61376,note_off,,,,,0,0,13,,,,,5,,71,100
61376,note_off,,,,,128,0,14,,,,,5,,55,100
61376,note_off,,,,,128,0,12,,,,,4,,43,100
61376,note_off,,,,,128,0,9,,,,,1,,67,100
61440,note_on,,,,,64,0,9,,,,,1,,72,84
61440,note_on,,,,,64,0,10,,,,,2,,64,84
61568,note_off,,,,,128,0,10,,,,,2,,64,100
61568,note_off,,,,,128,0,9,,,,,1,,72,100
61632,note_on,,,,,256,0,13,,,,,5,,67,100
61632,note_on,,,,,0,0,13,,,,,5,,72,100
61632,note_on,,,,,256,0,11,,,,,3,,52,86
61632,note_on,,,,,256,0,12,,,,,4,,40,86
61632,note_on,,,,,256,0,14,,,,,5,,52,100
61632,note_on,,,,,64,0,9,,,,,1,,72,86
61632,note_on,,,,,64,0,10,,,,,2,,67,86
61760,note_off,,,,,0,0,13,,,,,5,,72,100
61760,note_off,,,,,128,0,13,,,,,5,,67,100
61760,note_off,,,,,128,0,12,,,,,4,,40,100
61760,note_off,,,,,128,0,9,,,,,1,,72,100
61760,note_off,,,,,128,0,10,,,,,2,,67,100
61760,note_off,,,,,128,0,11,,,,,3,,52,100
61760,note_off,,,,,128,0,14,,,,,5,,52,100
61824,note_on,,,,,64,0,14,,,,,5,,40,100
61824,note_on,,,,,0,0,13,,,,,5,,67,100
61824,note_on,,,,,64,0,11,,,,,3,,40,88
61824,note_on,,,,,64,0,9,,,,,1,,72,88
61824,note_on,,,,,64,0,12,,,,,4,,40,88
61824,note_on,,,,,64,0,13,,,,,5,,60,100
61952,note_off,,,,,128,0,9,,,,,1,,72,100
61952,note_off,,,,,128,0,11,,,,,3,,40,100
61952,note_off,,,,,128,0,14,,,,,5,,40,100
61952,note_off,,,,,0,0,13,,,,,5,,67,100
61952,note_off,,,,,128,0,13,,,,,5,,60,100
61952,note_off,,,,,128,0,12,,,,,4,,40,100
62016,note_on,,,,,64,0,9,,,,,1,,72,91
62016,note_on,,,,,64,0,13,,,,,5,,67,100
62016,note_on,,,,,256,0,10,,,,,2,,55,91
62016,note_on,,,,,64,0,11,,,,,3,,36,91
62016,note_on,,,,,0,0,13,,,,,5,,64,100
62016,note_on,,,,,64,0,12,,,,,4,,36,91
62016,note_on,,,,,64,0,14,,,,,5,,36,100
62144,note_off,,,,,128,0,14,,,,,5,,36,100
62144,note_off,,,,,128,0,9,,,,,1,,72,100
62144,note_off,,,,,128,0,13,,,,,5,,67,100
62144,note_off,,,,,128,0,12,,,,,4,,36,100
62144,note_off,,,,,128,0,11,,,,,3,,36,100
62144,note_off,,,,,0,0,13,,,,,5,,64,100
62144,note_off,,,,,128,0,10,,,,,2,,55,100
62208,note_on,,,,,64,0,9,,,,,1,,72,93
62208,note_on,,,,,64,0,10,,,,,2,,57,93
62272,note_off,,,,,64,0,9,,,,,1,,72,100
62304,note_on,,,,,32,0,9,,,,,1,,71,91
62336,note_off,,,,,128,0,10,,,,,2,,57,100
62368,note_off,,,,,64,0,9,,,,,1,,71,100
62400,note_on,,,,,32,0,9,,,,,1,,69,88
62400,note_on,,,,,256,0,14,,,,,5,,54,100
62400,note_on,,,,,256,0,11,,,,,3,,54,88
62400,note_on,,,,,64,0,10,,,,,2,,60,88
62400,note_on,,,,,256,0,12,,,,,4,,42,88
62400,note_on,,,,,0,0,13,,,,,5,,72,100
62400,note_on,,,,,256,0,13,,,,,5,,69,100
62464,note_off,,,,,64,0,9,,,,,1,,69,100
62496,note_on,,,,,32,0,9,,,,,1,,67,86
62528,note_off,,,,,128,0,10,,,,,2,,60,100
62528,note_off,,,,,128,0,12,,,,,4,,42,100
62528,note_off,,,,,128,0,13,,,,,5,,69,100
62528,note_off,,,,,128,0,11,,,,,3,,54,100
62528,note_off,,,,,0,0,13,,,,,5,,72,100
62528,note_off,,,,,128,0,14,,,,,5,,54,100
62560,note_off,,,,,64,0,9,,,,,1,,67,100
62592,note_on,,,,,64,0,12,,,,,4,,42,83
62592,note_on,,,,,32,0,9,,,,,1,,69,83
62592,note_on,,,,,64,0,14,,,,,5,,42,100
62592,note_on,,,,,64,0,11,,,,,3,,42,83
62592,note_on,,,,,64,0,13,,,,,5,,60,100
62592,note_on,,,,,0,0,13,,,,,5,,69,100
62720,note_off,,,,,0,0,13,,,,,5,,69,100
62720,note_off,,,,,128,0,11,,,,,3,,42,100
62720,note_off,,,,,128,0,9,,,,,1,,69,100
62720,note_off,,,,,128,0,13,,,,,5,,60,100
62720,note_off,,,,,128,0,12,,,,,4,,42,100
62720,note_off,,,,,128,0,14,,,,,5,,42,100
62784,note_on,,,,,64,0,13,,,,,5,,72,100
62784,note_on,,,,,256,0,10,,,,,2,,69,78
62784,note_on,,,,,64,0,11,,,,,3,,54,78
62784,note_on,,,,,64,0,9,,,,,1,,66,78
62784,note_on,,,,,0,0,13,,,,,5,,69,100
62784,note_on,,,,,64,0,14,,,,,5,,54,100
62784,note_on,,,,,64,0,12,,,,,4,,42,78
62912,note_off,,,,,128,0,11,,,,,3,,54,100
62912,note_off,,,,,128,0,13,,,,,5,,72,100
62912,note_off,,,,,0,0,13,,,,,5,,69,100
62912,note_off,,,,,128,0,9,,,,,1,,66,100
62912,note_off,,,,,128,0,14,,,,,5,,54,100
62912,note_off,,,,,128,0,12,,,,,4,,42,100
62912,note_off,,,,,128,0,10,,,,,2,,69,100
62976,note_on,,,,,64,0,10,,,,,2,,63,81
62976,note_on,,,,,64,0,9,,,,,1,,71,81
63104,note_off,,,,,128,0,10,,,,,2,,63,100
63104,note_off,,,,,128,0,9,,,,,1,,71,100
63168,note_on,,,,,64,0,9,,,,,1,,71,83
63168,note_on,,,,,256,0,13,,,,,5,,78,100
63168,note_on,,,,,64,0,10,,,,,2,,66,83
63168,note_on,,,,,0,0,13,,,,,5,,71,100
63168,note_on,,,,,256,0,12,,,,,4,,51,83
63168,note_on,,,,,256,0,11,,,,,3,,63,83
63168,note_on,,,,,256,0,14,,,,,5,,63,100
63296,note_off,,,,,128,0,11,,,,,3,,63,100
63296,note_off,,,,,0,0,13,,,,,5,,71,100
63296,note_off,,,,,128,0,9,,,,,1,,71,100
63296,note_off,,,,,128,0,13,,,,,5,,78,100
63296,note_off,,,,,128,0,14,,,,,5,,63,100
63296,note_off,,,,,128,0,12,,,,,4,,51,100
63296,note_off,,,,,128,0,10,,,,,2,,66,100
63360,note_on,,,,,64,0,11,,,,,3,,51,85
63360,note_on,,,,,0,0,13,,,,,5,,71,100
63360,note_on,,,,,64,0,13,,,,,5,,66,100
63360,note_on,,,,,64,0,14,,,,,5,,51,100
63360,note_on,,,,,64,0,12,,,,,4,,51,85
63360,note_on,,,,,64,0,9,,,,,1,,71,85
63488,note_off,,,,,128,0,11,,,,,3,,51,100
63488,note_off,,,,,128,0,12,,,,,4,,51,100
63488,note_off,,,,,128,0,9,,,,,1,,71,100
63488,note_off,,,,,0,0,13,,,,,5,,71,100
63488,note_off,,,,,128,0,13,,,,,5,,66,100
63488,note_off,,,,,128,0,14,,,,,5,,51,100
63552,note_on,,,,,64,0,13,,,,,5,,63,100
63552,note_on,,,,,64,0,9,,,,,1,,71,88
63552,note_on,,,,,64,0,12,,,,,4,,47,88
63552,note_on,,,,,64,0,14,,,,,5,,47,100
63552,note_on,,,,,0,0,13,,,,,5,,66,100
63552,note_on,,,,,256,0,10,,,,,2,,54,88
63552,note_on,,,,,64,0,11,,,,,3,,47,88
63680,note_off,,,,,128,0,9,,,,,1,,71,100
63680,note_off,,,,,128,0,10,,,,,2,,54,100
63680,note_off,,,,,128,0,14,,,,,5,,47,100
63680,note_off,,,,,128,0,11,,,,,3,,47,100
63680,note_off,,,,,0,0,13,,,,,5,,66,100
63680,note_off,,,,,128,0,13,,,,,5,,63,100
63680,note_off,,,,,128,0,12,,,,,4,,47,100
63744,note_on,,,,,64,0,9,,,,,1,,71,88
63744,note_on,,,,,64,0,10,,,,,2,,55,88
63808,note_off,,,,,64,0,9,,,,,1,,71,100
63840,note_on,,,,,32,0,9,,,,,1,,69,86
63872,note_off,,,,,128,0,10,,,,,2,,55,100
63904,note_off,,,,,64,0,9,,,,,1,,69,100
63936,note_on,,,,,256,0,14,,,,,5,,52,100
63936,note_on,,,,,256,0,12,,,,,4,,40,83
63936,note_on,,,,,0,0,13,,,,,5,,71,100
63936,note_on,,,,,256,0,13,,,,,5,,67,100
63936,note_on,,,,,32,0,9,,,,,1,,67,83
63936,note_on,,,,,64,0,10,,,,,2,,59,83
63936,note_on,,,,,256,0,11,,,,,3,,52,83
64000,note_off,,,,,64,0,9,,,,,1,,67,100
64032,note_on,,,,,32,0,9,,,,,1,,66,81
64064,note_off,,,,,0,0,13,,,,,5,,71,100
64064,note_off,,,,,128,0,10,,,,,2,,59,100
64064,note_off,,,,,128,0,11,,,,,3,,52,100
64064,note_off,,,,,128,0,12,,,,,4,,40,100
64064,note_off,,,,,128,0,13,,,,,5,,67,100
64064,note_off,,,,,128,0,14,,,,,5,,52,100
64096,note_off,,,,,64,0,9,,,,,1,,66,100
64128,note_on,,,,,0,0,13,,,,,5,,67,100
64128,note_on,,,,,64,0,13,,,,,5,,59,100
64128,note_on,,,,,64,0,14,,,,,5,,40,100
64128,note_on,,,,,64,0,11,,,,,3,,40,78
64128,note_on,,,,,32,0,9,,,,,1,,67,78
64128,note_on,,,,,64,0,12,,,,,4,,40,78
64256,note_off,,,,,128,0,9,,,,,1,,67,100
64256,note_off,,,,,128,0,12,,,,,4,,40,100
64256,note_off,,,,,128,0,13,,,,,5,,59,100
64256,note_off,,,,,0,0,13,,,,,5,,67,100
64256,note_off,,,,,128,0,11,,,,,3,,40,100
64256,note_off,,,,,128,0,14,,,,,5,,40,100
64320,note_on,,,,,256,0,10,,,,,2,,67,73
64320,note_on,,,,,64,0,11,,,,,3,,52,73
64320,note_on,,,,,64,0,12,,,,,4,,40,73
64320,note_on,,,,,64,0,9,,,,,1,,64,73
64320,note_on,,,,,0,0,13,,,,,5,,71,100
64320,note_on,,,,,64,0,14,,,,,5,,52,100
64320,note_on,,,,,64,0,13,,,,,5,,67,100
64448,note_off,,,,,128,0,12,,,,,4,,40,100
64448,note_off,,,,,128,0,10,,,,,2,,67,100
64448,note_off,,,,,128,0,13,,,,,5,,67,100
64448,note_off,,,,,128,0,14,,,,,5,,52,100
64448,note_off,,,,,128,0,11,,,,,3,,52,100
64448,note_off,,,,,0,0,13,,,,,5,,71,100
64448,note_off,,,,,128,0,9,,,,,1,,64,100
64512,note_on,,,,,64,0,13,,,,,5,,69,100
64512,note_on,,,,,64,0,14,,,,,5,,54,100
64512,note_on,,,,,64,0,10,,,,,2,,66,85
64512,note_on,,,,,64,0,12,,,,,4,,42,85
64512,note_on,,,,,64,0,9,,,,,1,,81,85
64512,note_on,,,,,64,0,11,,,,,3,,54,85
64512,note_on,,,,,0,0,13,,,,,5,,75,100
64640,note_off,,,,,128,0,10,,,,,2,,66,100
64640,note_off,,,,,128,0,14,,,,,5,,54,100
64640,note_off,,,,,128,0,11,,,,,3,,54,100
64640,note_off,,,,,128,0,9,,,,,1,,81,100
64640,note_off,,,,,128,0,13,,,,,5,,69,100
64640,note_off,,,,,0,0,13,,,,,5,,75,100
64640,note_off,,,,,128,0,12,,,,,4,,42,100
64704,note_on,,,,,64,0,9,,,,,1,,78,86
64768,note_off,,,,,64,0,9,,,,,1,,78,100
64800,note_on,,,,,32,0,9,,,,,1,,79,86
64864,note_off,,,,,64,0,9,,,,,1,,79,100
64896,note_on,,,,,256,0,10,,,,,2,,67,87
64896,note_on,,,,,256,0,14,,,,,5,,52,100
64896,note_on,,,,,32,0,9,,,,,1,,81,87
64896,note_on,,,,,256,0,13,,,,,5,,67,100
64896,note_on,,,,,0,0,13,,,,,5,,69,100
64896,note_on,,,,,256,0,11,,,,,3,,52,87
64896,note_on,,,,,256,0,12,,,,,4,,40,87
65024,note_off,,,,,128,0,12,,,,,4,,40,100
65024,note_off,,,,,128,0,9,,,,,1,,81,100
65024,note_off,,,,,128,0,13,,,,,5,,67,100
65024,note_off,,,,,128,0,11,,,,,3,,52,100
65024,note_off,,,,,128,0,10,,,,,2,,67,100
65024,note_off,,,,,128,0,14,,,,,5,,52,100
65024,note_off,,,,,0,0,13,,,,,5,,69,100
65088,note_on,,,,,64,0,9,,,,,1,,81,88
65216,note_off,,,,,128,0,9,,,,,1,,81,100
65280,note_on,,,,,256,0,10,,,,,2,,66,89
65280,note_on,,,,,256,0,12,,,,,4,,39,89
65280,note_on,,,,,0,0,13,,,,,5,,66,100
65280,note_on,,,,,256,0,11,,,,,3,,51,89
65280,note_on,,,,,256,0,14,,,,,5,,51,100
65280,note_on,,,,,64,0,9,,,,,1,,81,89
65280,note_on,,,,,256,0,13,,,,,5,,69,100
65408,note_off,,,,,128,0,9,,,,,1,,81,100
65408,note_off,,,,,128,0,12,,,,,4,,39,100
65408,note_off,,,,,128,0,13,,,,,5,,69,100
65408,note_off,,,,,0,0,13,,,,,5,,66,100
65408,note_off,,,,,128,0,10,,,,,2,,66,100
65408,note_off,,,,,128,0,11,,,,,3,,51,100
65408,note_off,,,,,128,0,14,,,,,5,,51,100
65472,note_on,,,,,64,0,9,,,,,1,,78,91
65536,note_off,,,,,64,0,9,,,,,1,,78,100
65568,note_on,,,,,32,0,9,,,,,1,,79,91
65632,note_off,,,,,64,0,9,,,,,1,,79,100
65664,note_on,,,,,0,0,13,,,,,5,,64,100
65664,note_on,,,,,256,0,11,,,,,3,,49,92
65664,note_on,,,,,256,0,10,,,,,2,,64,92
65664,note_on,,,,,256,0,14,,,,,5,,49,100
65664,note_on,,,,,256,0,12,,,,,4,,37,92
65664,note_on,,,,,32,0,9,,,,,1,,81,92
65664,note_on,,,,,256,0,13,,,,,5,,69,100
65792,note_off,,,,,128,0,9,,,,,1,,81,100
65792,note_off,,,,,128,0,11,,,,,3,,49,100
65792,note_off,,,,,128,0,13,,,,,5,,69,100
65792,note_off,,,,,128,0,12,,,,,4,,37,100
65792,note_off,,,,,128,0,10,,,,,2,,64,100
65792,note_off,,,,,0,0,13,,,,,5,,64,100
65792,note_off,,,,,128,0,14,,,,,5,,49,100
65856,note_on,,,,,64,0,9,,,,,1,,81,93
65984,note_off,,,,,128,0,9,,,,,1,,81,100
66048,note_on,,,,,256,0,13,,,,,5,,63,100
66048,note_on,,,,,0,0,13,,,,,5,,66,100
66048,note_on,,,,,256,0,12,,,,,4,,35,94
66048,note_on,,,,,64,0,9,,,,,1,,81,94
66048,note_on,,,,,256,0,14,,,,,5,,47,100
66048,note_on,,,,,256,0,10,,,,,2,,63,94
66048,note_on,,,,,256,0,11,,,,,3,,47,94
66048,note_on,,,,,0,0,13,,,,,5,,69,100
66176,note_off,,,,,0,0,13,,,,,5,,69,100
66176,note_off,,,,,128,0,14,,,,,5,,47,100
66176,note_off,,,,,0,0,13,,,,,5,,66,100
66176,note_off,,,,,128,0,11,,,,,3,,47,100
66176,note_off,,,,,128,0,9,,,,,1,,81,100
66176,note_off,,,,,128,0,13,,,,,5,,63,100
66176,note_off,,,,,128,0,12,,,,,4,,35,100
66240,note_on,,,,,64,0,13,,,,,5,,75,100
66240,note_on,,,,,64,0,14,,,,,5,,59,100
66240,note_on,,,,,64,0,9,,,,,1,,78,96
66240,note_on,,,,,64,0,12,,,,,4,,47,96
66240,note_on,,,,,0,0,13,,,,,5,,69,100
66240,note_on,,,,,64,0,11,,,,,3,,59,96
66304,note_off,,,,,64,0,9,,,,,1,,78,100
66336,note_on,,,,,32,0,9,,,,,1,,79,96
66368,note_off,,,,,0,0,13,,,,,5,,69,100
66368,note_off,,,,,128,0,13,,,,,5,,75,100
66368,note_off,,,,,128,0,11,,,,,3,,59,100
66368,note_off,,,,,128,0,14,,,,,5,,59,100
66368,note_off,,,,,128,0,12,,,,,4,,47,100
66400,note_off,,,,,64,0,9,,,,,1,,79,100
66432,note_on,,,,,0,0,13,,,,,5,,69,100
66432,note_on,,,,,64,0,13,,,,,5,,71,100
66432,note_off,,,,,384,0,10,,,,,2,,63,100
66432,note_on,,,,,64,0,12,,,,,4,,39,97
66432,note_on,,,,,32,0,9,,,,,1,,81,97
66432,note_on,,,,,64,0,11,,,,,3,,51,97
66432,note_on,,,,,64,0,14,,,,,5,,51,100
66560,note_off,,,,,128,0,11,,,,,3,,51,100
66560,note_off,,,,,128,0,9,,,,,1,,81,100
66560,note_off,,,,,0,0,13,,,,,5,,69,100
66560,note_off,,,,,128,0,12,,,,,4,,39,100
66560,note_off,,,,,128,0,13,,,,,5,,71,100
66560,note_off,,,,,128,0,14,,,,,5,,51,100
66624,note_on,,,,,0,0,13,,,,,5,,66,100
66624,note_on,,,,,64,0,12,,,,,4,,35,98
66624,note_on,,,,,64,0,14,,,,,5,,47,100
66624,note_on,,,,,64,0,9,,,,,1,,83,98
66624,note_on,,,,,192,0,10,,,,,2,,63,98
66624,note_on,,,,,64,0,11,,,,,3,,47,98
66624,note_on,,,,,64,0,13,,,,,5,,63,100
66752,note_off,,,,,128,0,13,,,,,5,,63,100
66752,note_off,,,,,128,0,10,,,,,2,,63,100
66752,note_off,,,,,128,0,9,,,,,1,,83,100
66752,note_off,,,,,128,0,11,,,,,3,,47,100
66752,note_off,,,,,128,0,14,,,,,5,,47,100
66752,note_off,,,,,128,0,12,,,,,4,,35,100
66752,note_off,,,,,0,0,13,,,,,5,,66,100
66816,note_on,,,,,64,0,12,,,,,4,,40,99
66816,note_on,,,,,64,0,11,,,,,3,,52,99
66816,note_on,,,,,0,0,13,,,,,5,,64,100
66816,note_on,,,,,64,0,13,,,,,5,,67,100
66816,note_on,,,,,64,0,14,,,,,5,,52,100
66816,note_on,,,,,64,0,9,,,,,1,,79,99
66816,note_on,,,,,64,0,10,,,,,2,,59,99
66944,note_off,,,,,128,0,13,,,,,5,,67,100
66944,note_off,,,,,128,0,11,,,,,3,,52,100
66944,note_off,,,,,128,0,12,,,,,4,,40,100
66944,note_off,,,,,128,0,14,,,,,5,,52,100
67008,note_on,,,,,64,0,14,,,,,5,,54,100
67008,note_on,,,,,64,0,13,,,,,5,,66,100
67008,note_on,,,,,64,0,11,,,,,3,,54,100
67008,note_on,,,,,64,0,12,,,,,4,,42,100
67072,note_off,,,,,256,0,10,,,,,2,,59,100
67072,note_off,,,,,64,0,13,,,,,5,,64,100
67136,note_off,,,,,128,0,14,,,,,5,,54,100
67136,note_off,,,,,128,0,12,,,,,4,,42,100
67136,note_off,,,,,128,0,11,,,,,3,,54,100
67136,note_off,,,,,64,0,13,,,,,5,,66,100
67200,note_on,,,,,64,0,14,,,,,5,,55,100
67200,note_on,,,,,128,0,10,,,,,2,,71,100
67200,note_on,,,,,64,0,13,,,,,5,,71,100
67200,note_on,,,,,0,0,13,,,,,5,,67,100
67200,note_off,,,,,384,0,9,,,,,1,,79,100
67200,note_on,,,,,64,0,11,,,,,3,,55,100
67200,note_on,,,,,64,0,12,,,,,4,,43,100
67328,note_off,,,,,128,0,12,,,,,4,,43,100
67328,note_off,,,,,128,0,14,,,,,5,,55,100
67328,note_off,,,,,128,0,13,,,,,5,,67,100
67328,note_off,,,,,128,0,10,,,,,2,,71,100
67328,note_off,,,,,128,0,11,,,,,3,,55,100
67392,note_on,,,,,0,0,13,,,,,5,,69,100
67392,note_on,,,,,64,0,12,,,,,4,,45,100
67392,note_on,,,,,64,0,14,,,,,5,,57,100
67392,note_on,,,,,64,0,10,,,,,2,,72,100
67392,note_on,,,,,64,0,11,,,,,3,,57,100
67392,note_on,,,,,192,0,9,,,,,1,,78,100
67392,note_on,,,,,64,0,13,,,,,5,,66,100
67456,note_off,,,,,64,0,9,,,,,1,,78,100
67456,note_off,,,,,64,0,13,,,,,5,,71,100
67488,note_on,,,,,32,0,9,,,,,1,,76,100
67520,note_off,,,,,128,0,14,,,,,5,,57,100
67520,note_off,,,,,128,0,12,,,,,4,,45,100
67520,note_off,,,,,128,0,10,,,,,2,,72,100
67520,note_off,,,,,0,0,13,,,,,5,,69,100
67520,note_off,,,,,64,0,13,,,,,5,,66,100
67520,note_off,,,,,128,0,11,,,,,3,,57,100
67552,note_off,,,,,64,0,9,,,,,1,,76,100
67584,note_on,,,,,64,0,12,,,,,4,,39,100
67584,note_on,,,,,64,0,10,,,,,2,,66,100
67584,note_on,,,,,0,0,13,,,,,5,,69,100
67584,note_on,,,,,64,0,13,,,,,5,,71,100
67584,note_on,,,,,64,0,11,,,,,3,,51,100
67584,note_on,,,,,32,0,9,,,,,1,,83,100
67584,note_on,,,,,64,0,14,,,,,5,,51,100
67712,note_off,,,,,0,0,13,,,,,5,,69,100
67712,note_off,,,,,128,0,13,,,,,5,,71,100
67712,note_off,,,,,128,0,9,,,,,1,,83,100
67712,note_off,,,,,128,0,11,,,,,3,,51,100
67712,note_off,,,,,128,0,10,,,,,2,,66,100
67712,note_off,,,,,128,0,12,,,,,4,,39,100
67712,note_off,,,,,128,0,14,,,,,5,,51,100
67776,note_on,,,,,64,0,11,,,,,3,,52,100
67776,note_on,,,,,0,0,13,,,,,5,,67,100
67776,note_on,,,,,64,0,13,,,,,5,,71,100
67776,note_on,,,,,64,0,10,,,,,2,,71,100
67776,note_on,,,,,64,0,14,,,,,5,,52,100
67776,note_on,,,,,64,0,12,,,,,4,,40,100
67776,note_on,,,,,64,0,9,,,,,1,,81,100
67840,note_off,,,,,64,0,9,,,,,1,,81,100
67872,note_on,,,,,32,0,9,,,,,1,,79,100
67904,note_off,,,,,0,0,13,,,,,5,,67,100
67904,note_off,,,,,128,0,14,,,,,5,,52,100
67904,note_off,,,,,128,0,10,,,,,2,,71,100
67904,note_off,,,,,128,0,12,,,,,4,,40,100
67904,note_off,,,,,128,0,13,,,,,5,,71,100
67904,note_off,,,,,128,0,11,,,,,3,,52,100
67936,note_off,,,,,64,0,9,,,,,1,,79,100
67968,note_on,,,,,64,0,10,,,,,2,,63,100
67968,note_on,,,,,64,0,14,,,,,5,,59,100
67968,note_on,,,,,0,0,13,,,,,5,,66,100
67968,note_on,,,,,64,0,12,,,,,4,,47,100
67968,note_on,,,,,32,0,9,,,,,1,,78,100
67968,note_on,,,,,64,0,11,,,,,3,,59,100
67968,note_on,,,,,64,0,13,,,,,5,,64,100
68032,note_off,,,,,64,0,9,,,,,1,,78,100
68064,note_on,,,,,32,0,9,,,,,1,,76,100
68096,note_off,,,,,128,0,14,,,,,5,,59,100
68096,note_off,,,,,128,0,13,,,,,5,,64,100
68096,note_off,,,,,128,0,10,,,,,2,,63,100
68096,note_off,,,,,128,0,11,,,,,3,,59,100
68096,note_off,,,,,128,0,12,,,,,4,,47,100
68128,note_off,,,,,64,0,9,,,,,1,,76,100
68160,note_on,,,,,64,0,13,,,,,5,,63,100
68160,note_on,,,,,64,0,10,,,,,2,,71,100
68160,note_on,,,,,64,0,14,,,,,5,,47,100
68160,note_on,,,,,32,0,9,,,,,1,,75,100
68160,note_on,,,,,64,0,12,,,,,4,,35,100
68160,note_on,,,,,64,0,11,,,,,3,,47,100
68224,note_off,,,,,64,0,13,,,,,5,,66,100
68224,note_off,,,,,64,0,9,,,,,1,,75,100
68256,note_on,,,,,32,0,9,,,,,1,,78,100
68288,note_off,,,,,128,0,10,,,,,2,,71,100
68288,note_off,,,,,128,0,12,,,,,4,,35,100
68288,note_off,,,,,64,0,13,,,,,5,,63,100
68288,note_off,,,,,128,0,14,,,,,5,,47,100
68288,note_off,,,,,128,0,11,,,,,3,,47,100
68320,note_off,,,,,64,0,9,,,,,1,,78,100
68352,note_on,,,,,0,0,13,,,,,5,,67,100
68352,note_on,,,,,64,0,12,,,,,4,,40,100
68352,note_on,,,,,64,0,11,,,,,3,,40,100
68352,note_on,,,,,32,0,9,,,,,1,,76,100
68352,note_on,,,,,64,0,13,,,,,5,,64,100
68352,note_on,,,,,64,0,10,,,,,2,,67,100
68352,note_on,,,,,64,0,14,,,,,5,,40,100
68480,note_off,,,,,128,0,12,,,,,4,,40,100
68480,note_off,,,,,128,0,13,,,,,5,,64,100
68480,note_off,,,,,128,0,14,,,,,5,,40,100
68480,note_off,,,,,128,0,11,,,,,3,,40,100
68480,note_off,,,,,0,0,13,,,,,5,,67,100
68480,note_off,,,,,128,0,9,,,,,1,,76,100
68544,note_on,,,,,64,0,13,,,,,5,,71,100
68544,note_on,,,,,64,0,11,,,,,3,,52,96
68544,note_on,,,,,64,0,14,,,,,5,,52,100
68544,note_on,,,,,64,0,12,,,,,4,,40,96
68544,note_on,,,,,64,0,9,,,,,1,,64,96
68544,note_on,,,,,0,0,13,,,,,5,,67,100
68608,note_off,,,,,256,0,10,,,,,2,,67,100
68672,note_off,,,,,0,0,13,,,,,5,,67,100
68672,note_off,,,,,128,0,13,,,,,5,,71,100
68672,note_off,,,,,128,0,11,,,,,3,,52,100
68672,note_off,,,,,128,0,12,,,,,4,,40,100
68672,note_off,,,,,128,0,14,,,,,5,,52,100
68672,note_off,,,,,128,0,9,,,,,1,,64,100
68736,note_on,,,,,64,0,12,,,,,4,,43,91
68736,note_on,,,,,64,0,11,,,,,3,,55,91
68736,note_on,,,,,64,0,13,,,,,5,,76,100
68736,note_on,,,,,0,0,13,,,,,5,,71,100
68736,note_on,,,,,64,0,14,,,,,5,,55,100
68864,note_off,,,,,128,0,14,,,,,5,,55,100
68864,note_off,,,,,128,0,11,,,,,3,,55,100
68864,note_off,,,,,128,0,12,,,,,4,,43,100
68864,note_off,,,,,128,0,13,,,,,5,,76,100
68864,note_off,,,,,0,0,13,,,,,5,,71,100
68928,note_on,,,,,64,0,12,,,,,4,,40,86
68928,note_on,,,,,64,0,13,,,,,5,,67,100
68928,note_on,,,,,0,0,13,,,,,5,,71,100
68928,note_on,,,,,64,0,14,,,,,5,,52,100
68928,note_on,,,,,64,0,11,,,,,3,,52,86
68928,note_on,,,,,14912,0,8,,,,,0,,76,100
69056,note_off,,,,,0,0,13,,,,,5,,71,100
69056,note_off,,,,,128,0,13,,,,,5,,67,100
69056,note_off,,,,,128,0,12,,,,,4,,40,100
69056,note_off,,,,,128,0,14,,,,,5,,52,100
69056,note_off,,,,,128,0,8,,,,,0,,76,100
69056,note_off,,,,,128,0,11,,,,,3,,52,100
69120,note_on,,,,,64,0,12,,,,,4,,39,80
69120,note_on,,,,,64,0,8,,,,,0,,83,100
69120,note_on,,,,,64,0,11,,,,,3,,51,80
69120,note_on,,,,,0,0,13,,,,,5,,69,100
69120,note_on,,,,,64,0,13,,,,,5,,71,100
69120,note_on,,,,,64,0,14,,,,,5,,51,100
69248,note_off,,,,,128,0,11,,,,,3,,51,100
69248,note_off,,,,,128,0,8,,,,,0,,83,100
69248,note_off,,,,,0,0,13,,,,,5,,69,100
69248,note_off,,,,,128,0,14,,,,,5,,51,100
69248,note_off,,,,,128,0,13,,,,,5,,71,100
69248,note_off,,,,,128,0,12,,,,,4,,39,100
69312,note_on,,,,,64,0,8,,,,,0,,81,100
69312,note_on,,,,,0,0,13,,,,,5,,71,100
69312,note_on,,,,,64,0,14,,,,,5,,52,100
69312,note_on,,,,,64,0,13,,,,,5,,67,100
69312,note_on,,,,,64,0,12,,,,,4,,40,80
69312,note_on,,,,,64,0,11,,,,,3,,52,80
69376,note_off,,,,,64,0,8,,,,,0,,81,100
69408,note_on,,,,,32,0,8,,,,,0,,79,100
69440,note_off,,,,,128,0,13,,,,,5,,67,100
69440,note_off,,,,,128,0,12,,,,,4,,40,100
69440,note_off,,,,,0,0,13,,,,,5,,71,100
69440,note_off,,,,,128,0,14,,,,,5,,52,100
69440,note_off,,,,,128,0,11,,,,,3,,52,100
69472,note_off,,,,,64,0,8,,,,,0,,79,100
69504,note_on,,,,,64,0,13,,,,,5,,64,100
69504,note_on,,,,,0,0,13,,,,,5,,66,100
69504,note_on,,,,,32,0,8,,,,,0,,78,100
69504,note_on,,,,,64,0,11,,,,,3,,59,80
69504,note_on,,,,,64,0,12,,,,,4,,47,80
69504,note_on,,,,,64,0,14,,,,,5,,59,100
69568,note_off,,,,,64,0,8,,,,,0,,78,100
69600,note_on,,,,,32,0,8,,,,,0,,76,100
69632,note_off,,,,,128,0,13,,,,,5,,64,100
69632,note_off,,,,,128,0,14,,,,,5,,59,100
69632,note_off,,,,,128,0,11,,,,,3,,59,100
69632,note_off,,,,,128,0,12,,,,,4,,47,100
69664,note_off,,,,,64,0,8,,,,,0,,76,100
69696,note_on,,,,,32,0,8,,,,,0,,75,100
69696,note_on,,,,,64,0,14,,,,,5,,47,100
69696,note_on,,,,,64,0,12,,,,,4,,35,80
69696,note_on,,,,,64,0,11,,,,,3,,47,80
69696,note_on,,,,,64,0,13,,,,,5,,63,100
69760,note_off,,,,,64,0,8,,,,,0,,75,100
69760,note_off,,,,,64,0,13,,,,,5,,66,100
69792,note_on,,,,,32,0,8,,,,,0,,78,100
69824,note_off,,,,,128,0,11,,,,,3,,47,100
69824,note_off,,,,,64,0,13,,,,,5,,63,100
69824,note_off,,,,,128,0,12,,,,,4,,35,100
69824,note_off,,,,,128,0,14,,,,,5,,47,100
69856,note_off,,,,,64,0,8,,,,,0,,78,100
69888,note_on,,,,,32,0,8,,,,,0,,76,100
69888,note_on,,,,,64,0,13,,,,,5,,64,100
69888,note_on,,,,,64,0,12,,,,,4,,40,80
69888,note_on,,,,,0,0,13,,,,,5,,67,100
69888,note_on,,,,,64,0,11,,,,,3,,40,80
69888,note_on,,,,,0,0,13,,,,,5,,59,100
69888,note_on,,,,,64,0,14,,,,,5,,40,100
70016,note_off,,,,,128,0,8,,,,,0,,76,100
70016,note_off,,,,,0,0,13,,,,,5,,59,100
70016,note_off,,,,,128,0,14,,,,,5,,40,100
70016,note_off,,,,,0,0,13,,,,,5,,67,100
70016,note_off,,,,,128,0,12,,,,,4,,40,100
70016,note_off,,,,,128,0,13,,,,,5,,64,100
70016,note_off,,,,,128,0,11,,,,,3,,40,100
70080,note_on,,,,,64,0,8,,,,,0,,64,100
70080,note_on,,,,,64,0,11,,,,,3,,52,80
70080,note_on,,,,,64,0,14,,,,,5,,52,100
70080,note_on,,,,,64,0,12,,,,,4,,40,80
70080,note_on,,,,,0,0,13,,,,,5,,67,100
70080,note_on,,,,,64,0,13,,,,,5,,71,100
70208,note_off,,,,,128,0,8,,,,,0,,64,100
70208,note_off,,,,,128,0,11,,,,,3,,52,100
70208,note_off,,,,,128,0,12,,,,,4,,40,100
70208,note_off,,,,,0,0,13,,,,,5,,67,100
70208,note_off,,,,,128,0,14,,,,,5,,52,100
70208,note_off,,,,,128,0,13,,,,,5,,71,100
70272,note_on,,,,,64,0,12,,,,,4,,43,80
70272,note_on,,,,,64,0,14,,,,,5,,55,100
70272,note_on,,,,,64,0,13,,,,,5,,76,100
70272,note_on,,,,,0,0,13,,,,,5,,71,100
70272,note_on,,,,,64,0,11,,,,,3,,55,80
70400,note_off,,,,,128,0,13,,,,,5,,76,100
70400,note_off,,,,,0,0,13,,,,,5,,71,100
70400,note_off,,,,,128,0,14,,,,,5,,55,100
70400,note_off,,,,,128,0,12,,,,,4,,43,100
70400,note_off,,,,,128,0,11,,,,,3,,55,100
70464,note_on,,,,,0,0,13,,,,,5,,71,100
70464,note_on,,,,,64,0,13,,,,,5,,67,100
70464,note_on,,,,,64,0,14,,,,,5,,52,100
70464,note_on,,,,,64,0,12,,,,,4,,40,80
70464,note_on,,,,,64,0,11,,,,,3,,52,80
70464,note_on,,,,,256,0,8,,,,,0,,83,100
70528,note_off,,,,,64,0,8,,,,,0,,83,100
70560,note_on,,,,,32,0,8,,,,,0,,84,100
70592,note_off,,,,,128,0,14,,,,,5,,52,100
70592,note_off,,,,,0,0,13,,,,,5,,71,100
70592,note_off,,,,,128,0,13,,,,,5,,67,100
70592,note_off,,,,,128,0,12,,,,,4,,40,100
70592,note_off,,,,,128,0,11,,,,,3,,52,100
70624,note_off,,,,,64,0,8,,,,,0,,84,100
70656,note_on,,,,,2048,0,10,,,,,2,,71,80
70656,note_on,,,,,32,0,8,,,,,0,,86,100
70656,note_on,,,,,1984,0,9,,,,,1,,71,80
70784,note_off,,,,,128,0,8,,,,,0,,86,100
70848,note_on,,,,,256,0,14,,,,,5,,59,100
70848,note_on,,,,,256,0,13,,,,,5,,74,100
70848,note_on,,,,,0,0,13,,,,,5,,65,100
70848,note_on,,,,,64,0,8,,,,,0,,86,100
70848,note_on,,,,,256,0,12,,,,,4,,47,80
70848,note_on,,,,,256,0,11,,,,,3,,59,80
70912,note_off,,,,,256,0,9,,,,,1,,71,100
70912,note_off,,,,,256,0,10,,,,,2,,71,100
70976,note_off,,,,,128,0,8,,,,,0,,86,100
70976,note_off,,,,,0,0,13,,,,,5,,65,100
70976,note_off,,,,,128,0,13,,,,,5,,74,100
70976,note_off,,,,,128,0,12,,,,,4,,47,100
70976,note_off,,,,,128,0,14,,,,,5,,59,100
70976,note_off,,,,,128,0,11,,,,,3,,59,100
71040,note_on,,,,,0,0,13,,,,,5,,62,100
71040,note_on,,,,,64,0,13,,,,,5,,71,100
71040,note_on,,,,,64,0,12,,,,,4,,44,80
71040,note_on,,,,,64,0,11,,,,,3,,56,80
71040,note_on,,,,,64,0,14,,,,,5,,56,100
71040,note_on,,,,,64,0,8,,,,,0,,86,100
71168,note_off,,,,,128,0,11,,,,,3,,56,100
71168,note_off,,,,,0,0,13,,,,,5,,62,100
71168,note_off,,,,,128,0,13,,,,,5,,71,100
71168,note_off,,,,,128,0,8,,,,,0,,86,100
71168,note_off,,,,,128,0,12,,,,,4,,44,100
71168,note_off,,,,,128,0,14,,,,,5,,56,100
71232,note_on,,,,,64,0,14,,,,,5,,52,100
71232,note_on,,,,,0,0,13,,,,,5,,62,100
71232,note_on,,,,,64,0,13,,,,,5,,59,100
71232,note_on,,,,,64,0,8,,,,,0,,86,100
71232,note_on,,,,,64,0,12,,,,,4,,40,80
71232,note_on,,,,,64,0,11,,,,,3,,52,80
71360,note_off,,,,,128,0,14,,,,,5,,52,100
71360,note_off,,,,,128,0,12,,,,,4,,40,100
71360,note_off,,,,,128,0,8,,,,,0,,86,100
71360,note_off,,,,,128,0,13,,,,,5,,59,100
71360,note_off,,,,,0,0,13,,,,,5,,62,100
71360,note_off,,,,,128,0,11,,,,,3,,52,100
71424,note_on,,,,,512,0,10,,,,,2,,68,80
71424,note_on,,,,,512,0,9,,,,,1,,68,80
71424,note_on,,,,,64,0,8,,,,,0,,76,100
71552,note_off,,,,,128,0,8,,,,,0,,76,100
71616,note_on,,,,,256,0,11,,,,,3,,52,80
71616,note_on,,,,,256,0,12,,,,,4,,40,80
71616,note_on,,,,,64,0,8,,,,,0,,83,100
71616,note_on,,,,,256,0,14,,,,,5,,52,100
71616,note_on,,,,,256,0,13,,,,,5,,62,100
71616,note_on,,,,,0,0,13,,,,,5,,68,100
71680,note_off,,,,,64,0,8,,,,,0,,83,100
71680,note_off,,,,,256,0,9,,,,,1,,68,100
71680,note_off,,,,,256,0,10,,,,,2,,68,100
71712,note_on,,,,,32,0,8,,,,,0,,84,100
71744,note_off,,,,,128,0,12,,,,,4,,40,100
71744,note_off,,,,,0,0,13,,,,,5,,68,100
71744,note_off,,,,,128,0,11,,,,,3,,52,100
71744,note_off,,,,,128,0,14,,,,,5,,52,100
71744,note_off,,,,,128,0,13,,,,,5,,62,100
71776,note_off,,,,,64,0,8,,,,,0,,84,100
71808,note_on,,,,,32,0,8,,,,,0,,86,100
71808,note_on,,,,,64,0,14,,,,,5,,59,100
71808,note_on,,,,,64,0,11,,,,,3,,59,80
71808,note_on,,,,,0,0,13,,,,,5,,68,100
71808,note_on,,,,,64,0,12,,,,,4,,47,80
71808,note_on,,,,,64,0,13,,,,,5,,71,100
71936,note_off,,,,,128,0,11,,,,,3,,59,100
71936,note_off,,,,,128,0,12,,,,,4,,47,100
71936,note_off,,,,,0,0,13,,,,,5,,68,100
71936,note_off,,,,,128,0,13,,,,,5,,71,100
71936,note_off,,,,,128,0,8,,,,,0,,86,100
71936,note_off,,,,,128,0,14,,,,,5,,59,100
72000,note_on,,,,,64,0,11,,,,,3,,52,80
72000,note_on,,,,,64,0,12,,,,,4,,40,80
72000,note_on,,,,,64,0,14,,,,,5,,52,100
72000,note_on,,,,,64,0,13,,,,,5,,62,100
72000,note_on,,,,,0,0,13,,,,,5,,68,100
72000,note_on,,,,,64,0,8,,,,,0,,86,100
72128,note_off,,,,,128,0,11,,,,,3,,52,100
72128,note_off,,,,,128,0,12,,,,,4,,40,100
72128,note_off,,,,,128,0,8,,,,,0,,86,100
72128,note_off,,,,,128,0,13,,,,,5,,62,100
72128,note_off,,,,,0,0,13,,,,,5,,68,100
72128,note_off,,,,,128,0,14,,,,,5,,52,100
72192,note_on,,,,,512,0,9,,,,,1,,68,80
72192,note_on,,,,,512,0,10,,,,,2,,68,80
72192,note_on,,,,,64,0,8,,,,,0,,76,100
72320,note_off,,,,,128,0,8,,,,,0,,76,100
72384,note_on,,,,,256,0,14,,,,,5,,52,100
72384,note_on,,,,,256,0,12,,,,,4,,40,80
72384,note_on,,,,,256,0,11,,,,,3,,52,80
72384,note_on,,,,,0,0,13,,,,,5,,68,100
72384,note_on,,,,,256,0,13,,,,,5,,71,100
72384,note_on,,,,,64,0,8,,,,,0,,83,100
72448,note_off,,,,,256,0,10,,,,,2,,68,100
72448,note_off,,,,,256,0,9,,,,,1,,68,100
72448,note_off,,,,,64,0,8,,,,,0,,83,100
72480,note_on,,,,,32,0,8,,,,,0,,84,100
72512,note_off,,,,,128,0,13,,,,,5,,71,100
72512,note_off,,,,,128,0,14,,,,,5,,52,100
72512,note_off,,,,,128,0,12,,,,,4,,40,100
72512,note_off,,,,,128,0,11,,,,,3,,52,100
72512,note_off,,,,,0,0,13,,,,,5,,68,100
72544,note_off,,,,,64,0,8,,,,,0,,84,100
72576,note_on,,,,,64,0,11,,,,,3,,59,80
72576,note_on,,,,,64,0,14,,,,,5,,59,100
72576,note_on,,,,,64,0,12,,,,,4,,47,80
72576,note_on,,,,,32,0,8,,,,,0,,86,100
72576,note_on,,,,,0,0,13,,,,,5,,76,100
72576,note_on,,,,,64,0,13,,,,,5,,68,100
72704,note_off,,,,,128,0,8,,,,,0,,86,100
72704,note_off,,,,,128,0,14,,,,,5,,59,100
72704,note_off,,,,,128,0,12,,,,,4,,47,100
72704,note_off,,,,,128,0,11,,,,,3,,59,100
72704,note_off,,,,,128,0,13,,,,,5,,68,100
72704,note_off,,,,,0,0,13,,,,,5,,76,100
72768,note_on,,,,,64,0,8,,,,,0,,84,100
72768,note_on,,,,,64,0,12,,,,,4,,40,80
72768,note_on,,,,,0,0,13,,,,,5,,71,100
72768,note_on,,,,,64,0,11,,,,,3,,52,80
72768,note_on,,,,,64,0,13,,,,,5,,68,100
72768,note_on,,,,,64,0,14,,,,,5,,52,100
72832,note_off,,,,,64,0,8,,,,,0,,84,100
72864,note_on,,,,,32,0,8,,,,,0,,83,100
72896,note_off,,,,,0,0,13,,,,,5,,71,100
72896,note_off,,,,,128,0,11,,,,,3,,52,100
72896,note_off,,,,,128,0,14,,,,,5,,52,100
72896,note_off,,,,,128,0,12,,,,,4,,40,100
72896,note_off,,,,,128,0,13,,,,,5,,68,100
72928,note_off,,,,,64,0,8,,,,,0,,83,100
72960,note_on,,,,,512,0,9,,,,,1,,69,80
72960,note_on,,,,,32,0,8,,,,,0,,84,100
72960,note_on,,,,,512,0,10,,,,,2,,69,80
73088,note_off,,,,,128,0,8,,,,,0,,84,100
73152,note_on,,,,,256,0,11,,,,,3,,57,80
73152,note_on,,,,,64,0,8,,,,,0,,69,100
73152,note_on,,,,,256,0,12,,,,,4,,45,80
73152,note_on,,,,,0,0,13,,,,,5,,72,100
73152,note_on,,,,,256,0,13,,,,,5,,64,100
73152,note_on,,,,,256,0,14,,,,,5,,57,100
73216,note_off,,,,,256,0,9,,,,,1,,69,100
73216,note_off,,,,,256,0,10,,,,,2,,69,100
73280,note_off,,,,,128,0,8,,,,,0,,69,100
73280,note_off,,,,,0,0,13,,,,,5,,72,100
73280,note_off,,,,,128,0,13,,,,,5,,64,100
73280,note_off,,,,,128,0,14,,,,,5,,57,100
73280,note_off,,,,,128,0,12,,,,,4,,45,100
73280,note_off,,,,,128,0,11,,,,,3,,57,100
73344,note_on,,,,,64,0,11,,,,,3,,60,80
73344,note_on,,,,,64,0,8,,,,,0,,69,100
73344,note_on,,,,,64,0,14,,,,,5,,60,100
73344,note_on,,,,,64,0,12,,,,,4,,48,80
73344,note_on,,,,,0,0,13,,,,,5,,72,100
73344,note_on,,,,,64,0,13,,,,,5,,76,100
73472,note_off,,,,,128,0,8,,,,,0,,69,100
73472,note_off,,,,,128,0,12,,,,,4,,48,100
73472,note_off,,,,,128,0,11,,,,,3,,60,100
73472,note_off,,,,,128,0,14,,,,,5,,60,100
73472,note_off,,,,,128,0,13,,,,,5,,76,100
73472,note_off,,,,,0,0,13,,,,,5,,72,100
73536,note_on,,,,,64,0,11,,,,,3,,57,80
73536,note_on,,,,,64,0,14,,,,,5,,57,100
73536,note_on,,,,,64,0,12,,,,,4,,45,80
73536,note_on,,,,,64,0,13,,,,,5,,64,100
73536,note_on,,,,,0,0,13,,,,,5,,72,100
73536,note_on,,,,,64,0,8,,,,,0,,81,100
73600,note_off,,,,,64,0,8,,,,,0,,81,100
73632,note_on,,,,,32,0,8,,,,,0,,83,100
73664,note_off,,,,,128,0,13,,,,,5,,64,100
73664,note_off,,,,,0,0,13,,,,,5,,72,100
73664,note_off,,,,,128,0,14,,,,,5,,57,100
73664,note_off,,,,,128,0,12,,,,,4,,45,100
73664,note_off,,,,,128,0,11,,,,,3,,57,100
73696,note_off,,,,,64,0,8,,,,,0,,83,100
73728,note_on,,,,,512,0,10,,,,,2,,57,80
73728,note_on,,,,,32,0,8,,,,,0,,84,100
73728,note_on,,,,,512,0,9,,,,,1,,57,80
73856,note_off,,,,,128,0,8,,,,,0,,84,100
73920,note_on,,,,,256,0,11,,,,,3,,57,80
73920,note_on,,,,,256,0,14,,,,,5,,57,100
73920,note_on,,,,,0,0,13,,,,,5,,72,100
73920,note_on,,,,,256,0,13,,,,,5,,64,100
73920,note_on,,,,,64,0,8,,,,,0,,84,100
73920,note_on,,,,,256,0,12,,,,,4,,45,80
73984,note_off,,,,,256,0,10,,,,,2,,57,100
73984,note_off,,,,,256,0,9,,,,,1,,57,100
74048,note_off,,,,,128,0,14,,,,,5,,57,100
74048,note_off,,,,,0,0,13,,,,,5,,72,100
74048,note_off,,,,,128,0,11,,,,,3,,57,100
74048,note_off,,,,,128,0,13,,,,,5,,64,100
74048,note_off,,,,,128,0,12,,,,,4,,45,100
74048,note_off,,,,,128,0,8,,,,,0,,84,100
74112,note_on,,,,,64,0,8,,,,,0,,84,100
74112,note_on,,,,,64,0,12,,,,,4,,42,80
74112,note_on,,,,,64,0,13,,,,,5,,60,100
74112,note_on,,,,,64,0,14,,,,,5,,54,100
74112,note_on,,,,,0,0,13,,,,,5,,64,100
74112,note_on,,,,,64,0,11,,,,,3,,54,80
74240,note_off,,,,,128,0,8,,,,,0,,84,100
74240,note_off,,,,,128,0,14,,,,,5,,54,100
74240,note_off,,,,,128,0,12,,,,,4,,42,100
74240,note_off,,,,,128,0,13,,,,,5,,60,100
74240,note_off,,,,,0,0,13,,,,,5,,64,100
74240,note_off,,,,,128,0,11,,,,,3,,54,100
74304,note_on,,,,,0,0,13,,,,,5,,60,100
74304,note_on,,,,,64,0,14,,,,,5,,50,100
74304,note_on,,,,,64,0,8,,,,,0,,84,100
74304,note_on,,,,,64,0,13,,,,,5,,57,100
74304,note_on,,,,,64,0,12,,,,,4,,38,80
74304,note_on,,,,,64,0,11,,,,,3,,50,80
74432,note_off,,,,,0,0,13,,,,,5,,60,100
74432,note_off,,,,,128,0,11,,,,,3,,50,100
74432,note_off,,,,,128,0,13,,,,,5,,57,100
74432,note_off,,,,,128,0,12,,,,,4,,38,100
74432,note_off,,,,,128,0,14,,,,,5,,50,100
74432,note_off,,,,,128,0,8,,,,,0,,84,100
74496,note_on,,,,,512,0,10,,,,,2,,66,80
74496,note_on,,,,,64,0,8,,,,,0,,62,100
74496,note_on,,,,,512,0,9,,,,,1,,66,80
74624,note_off,,,,,128,0,8,,,,,0,,62,100
74688,note_on,,,,,256,0,14,,,,,5,,50,100
74688,note_on,,,,,256,0,12,,,,,4,,38,80
74688,note_on,,,,,64,0,8,,,,,0,,81,100
74688,note_on,,,,,256,0,13,,,,,5,,66,100
74688,note_on,,,,,0,0,13,,,,,5,,60,100
74688,note_on,,,,,256,0,11,,,,,3,,50,80
74752,note_off,,,,,256,0,10,,,,,2,,66,100
74752,note_off,,,,,64,0,8,,,,,0,,81,100
74752,note_off,,,,,256,0,9,,,,,1,,66,100
74784,note_on,,,,,32,0,8,,,,,0,,83,100
74816,note_off,,,,,128,0,14,,,,,5,,50,100
74816,note_off,,,,,128,0,11,,,,,3,,50,100
74816,note_off,,,,,128,0,12,,,,,4,,38,100
74816,note_off,,,,,128,0,13,,,,,5,,66,100
74816,note_off,,,,,0,0,13,,,,,5,,60,100
74848,note_off,,,,,64,0,8,,,,,0,,83,100
74880,note_on,,,,,64,0,12,,,,,4,,45,80
74880,note_on,,,,,64,0,14,,,,,5,,57,100
74880,note_on,,,,,64,0,11,,,,,3,,57,80
74880,note_on,,,,,32,0,8,,,,,0,,84,100
74880,note_on,,,,,0,0,13,,,,,5,,66,100
74880,note_on,,,,,64,0,13,,,,,5,,69,100
75008,note_off,,,,,128,0,11,,,,,3,,57,100
75008,note_off,,,,,128,0,8,,,,,0,,84,100
75008,note_off,,,,,128,0,12,,,,,4,,45,100
75008,note_off,,,,,128,0,13,,,,,5,,69,100
75008,note_off,,,,,0,0,13,,,,,5,,66,100
75008,note_off,,,,,128,0,14,,,,,5,,57,100
75072,note_on,,,,,64,0,14,,,,,5,,50,100
75072,note_on,,,,,64,0,13,,,,,5,,60,100
75072,note_on,,,,,0,0,13,,,,,5,,66,100
75072,note_on,,,,,64,0,8,,,,,0,,84,100
75072,note_on,,,,,64,0,12,,,,,4,,38,80
75072,note_on,,,,,64,0,11,,,,,3,,50,80
75200,note_off,,,,,128,0,8,,,,,0,,84,100
75200,note_off,,,,,128,0,14,,,,,5,,50,100
75200,note_off,,,,,128,0,11,,,,,3,,50,100
75200,note_off,,,,,0,0,13,,,,,5,,66,100
75200,note_off,,,,,128,0,13,,,,,5,,60,100
75200,note_off,,,,,128,0,12,,,,,4,,38,100
75264,note_on,,,,,512,0,10,,,,,2,,66,80
75264,note_on,,,,,64,0,8,,,,,0,,62,100
75264,note_on,,,,,512,0,9,,,,,1,,66,80
75392,note_off,,,,,128,0,8,,,,,0,,62,100
75456,note_on,,,,,0,0,13,,,,,5,,60,100
75456,note_on,,,,,256,0,13,,,,,5,,66,100
75456,note_on,,,,,256,0,12,,,,,4,,38,80
75456,note_on,,,,,256,0,14,,,,,5,,50,100
75456,note_on,,,,,64,0,8,,,,,0,,81,100
75456,note_on,,,,,256,0,11,,,,,3,,50,80
75520,note_off,,,,,256,0,9,,,,,1,,66,100
75520,note_off,,,,,256,0,10,,,,,2,,66,100
75520,note_off,,,,,64,0,8,,,,,0,,81,100
75552,note_on,,,,,32,0,8,,,,,0,,83,100
75584,note_off,,,,,0,0,13,,,,,5,,60,100
75584,note_off,,,,,128,0,13,,,,,5,,66,100
75584,note_off,,,,,128,0,12,,,,,4,,38,100
75584,note_off,,,,,128,0,14,,,,,5,,50,100
75584,note_off,,,,,128,0,11,,,,,3,,50,100
75616,note_off,,,,,64,0,8,,,,,0,,83,100
75648,note_on,,,,,64,0,11,,,,,3,,57,80
75648,note_on,,,,,32,0,8,,,,,0,,84,100
75648,note_on,,,,,64,0,12,,,,,4,,45,80
75648,note_on,,,,,64,0,14,,,,,5,,57,100
75648,note_on,,,,,64,0,13,,,,,5,,69,100
75648,note_on,,,,,0,0,13,,,,,5,,66,100
75776,note_off,,,,,128,0,13,,,,,5,,69,100
75776,note_off,,,,,128,0,8,,,,,0,,84,100
75776,note_off,,,,,128,0,11,,,,,3,,57,100
75776,note_off,,,,,0,0,13,,,,,5,,66,100
75776,note_off,,,,,128,0,12,,,,,4,,45,100
75776,note_off,,,,,128,0,14,,,,,5,,57,100
75840,note_on,,,,,0,0,13,,,,,5,,66,100
75840,note_on,,,,,64,0,8,,,,,0,,83,100
75840,note_on,,,,,64,0,12,,,,,4,,38,80
75840,note_on,,,,,64,0,14,,,,,5,,50,100
75840,note_on,,,,,64,0,11,,,,,3,,50,80
75840,note_on,,,,,64,0,13,,,,,5,,60,100
75904,note_off,,,,,64,0,8,,,,,0,,83,100
75936,note_on,,,,,32,0,8,,,,,0,,81,100
75968,note_off,,,,,128,0,11,,,,,3,,50,100
75968,note_off,,,,,0,0,13,,,,,5,,66,100
75968,note_off,,,,,128,0,12,,,,,4,,38,100
75968,note_off,,,,,128,0,14,,,,,5,,50,100
75968,note_off,,,,,128,0,13,,,,,5,,60,100
76000,note_off,,,,,64,0,8,,,,,0,,81,100
76032,note_on,,,,,32,0,8,,,,,0,,83,100
76032,note_on,,,,,512,0,10,,,,,2,,67,80
76032,note_on,,,,,512,0,9,,,,,1,,67,80
76160,note_off,,,,,128,0,8,,,,,0,,83,100
76224,note_on,,,,,256,0,12,,,,,4,,43,80
76224,note_on,,,,,64,0,8,,,,,0,,55,100
76224,note_on,,,,,256,0,14,,,,,5,,55,100
76224,note_on,,,,,256,0,13,,,,,5,,59,100
76224,note_on,,,,,0,0,13,,,,,5,,62,100
76224,note_on,,,,,256,0,11,,,,,3,,55,80
76288,note_off,,,,,256,0,10,,,,,2,,67,100
76288,note_off,,,,,256,0,9,,,,,1,,67,100
76352,note_off,,,,,128,0,13,,,,,5,,59,100
76352,note_off,,,,,0,0,13,,,,,5,,62,100
76352,note_off,,,,,128,0,8,,,,,0,,55,100
76352,note_off,,,,,128,0,12,,,,,4,,43,100
76352,note_off,,,,,128,0,11,,,,,3,,55,100
76352,note_off,,,,,128,0,14,,,,,5,,55,100
76416,note_on,,,,,64,0,12,,,,,4,,47,80
76416,note_on,,,,,64,0,13,,,,,5,,67,100
76416,note_on,,,,,64,0,14,,,,,5,,59,100
76416,note_on,,,,,64,0,11,,,,,3,,59,80
76416,note_on,,,,,0,0,13,,,,,5,,62,100
76416,note_on,,,,,64,0,8,,,,,0,,55,100
76544,note_off,,,,,128,0,14,,,,,5,,59,100
76544,note_off,,,,,128,0,11,,,,,3,,59,100
76544,note_off,,,,,128,0,12,,,,,4,,47,100
76544,note_off,,,,,128,0,13,,,,,5,,67,100
76544,note_off,,,,,0,0,13,,,,,5,,62,100
76544,note_off,,,,,128,0,8,,,,,0,,55,100
76608,note_on,,,,,64,0,11,,,,,3,,55,80
76608,note_on,,,,,64,0,8,,,,,0,,79,100
76608,note_on,,,,,64,0,14,,,,,5,,55,100
76608,note_on,,,,,0,0,13,,,,,5,,62,100
76608,note_on,,,,,64,0,13,,,,,5,,59,100
76608,note_on,,,,,64,0,12,,,,,4,,43,80
76672,note_off,,,,,64,0,8,,,,,0,,79,100
76704,note_on,,,,,32,0,8,,,,,0,,81,100
76736,note_off,,,,,128,0,14,,,,,5,,55,100
76736,note_off,,,,,128,0,12,,,,,4,,43,100
76736,note_off,,,,,128,0,11,,,,,3,,55,100
76736,note_off,,,,,0,0,13,,,,,5,,62,100
76736,note_off,,,,,128,0,13,,,,,5,,59,100
76768,note_off,,,,,64,0,8,,,,,0,,81,100
76800,note_on,,,,,32,0,8,,,,,0,,82,100
76800,note_on,,,,,512,0,10,,,,,2,,67,80
76800,note_on,,,,,512,0,9,,,,,1,,67,80
76928,note_off,,,,,128,0,8,,,,,0,,82,100
76992,note_on,,,,,64,0,8,,,,,0,,82,100
76992,note_on,,,,,256,0,12,,,,,4,,43,80
76992,note_on,,,,,256,0,13,,,,,5,,58,100
76992,note_on,,,,,256,0,11,,,,,3,,55,80
76992,note_on,,,,,256,0,14,,,,,5,,55,100
76992,note_on,,,,,0,0,13,,,,,5,,62,100
77056,note_off,,,,,256,0,9,,,,,1,,67,100
77056,note_off,,,,,256,0,10,,,,,2,,67,100
77120,note_off,,,,,128,0,11,,,,,3,,55,100
77120,note_off,,,,,128,0,13,,,,,5,,58,100
77120,note_off,,,,,128,0,8,,,,,0,,82,100
77120,note_off,,,,,128,0,14,,,,,5,,55,100
77120,note_off,,,,,0,0,13,,,,,5,,62,100
77120,note_off,,,,,128,0,12,,,,,4,,43,100
77184,note_on,,,,,64,0,12,,,,,4,,46,80
77184,note_on,,,,,0,0,13,,,,,5,,62,100
77184,note_on,,,,,64,0,11,,,,,3,,58,80
77184,note_on,,,,,64,0,8,,,,,0,,82,100
77184,note_on,,,,,64,0,13,,,,,5,,67,100
77184,note_on,,,,,64,0,14,,,,,5,,58,100
77312,note_off,,,,,128,0,11,,,,,3,,58,100
77312,note_off,,,,,128,0,13,,,,,5,,67,100
77312,note_off,,,,,128,0,8,,,,,0,,82,100
77312,note_off,,,,,128,0,12,,,,,4,,46,100
77312,note_off,,,,,0,0,13,,,,,5,,62,100
77312,note_off,,,,,128,0,14,,,,,5,,58,100
77376,note_on,,,,,64,0,14,,,,,5,,55,100
77376,note_on,,,,,64,0,12,,,,,4,,43,80
77376,note_on,,,,,64,0,8,,,,,0,,82,100
77376,note_on,,,,,64,0,11,,,,,3,,55,80
77376,note_on,,,,,64,0,13,,,,,5,,58,100
77376,note_on,,,,,0,0,13,,,,,5,,62,100
77504,note_off,,,,,128,0,11,,,,,3,,55,100
77504,note_off,,,,,128,0,12,,,,,4,,43,100
77504,note_off,,,,,128,0,14,,,,,5,,55,100
77504,note_off,,,,,0,0,13,,,,,5,,62,100
77504,note_off,,,,,128,0,13,,,,,5,,58,100
77504,note_off,,,,,128,0,8,,,,,0,,82,100
77568,note_on,,,,,512,0,10,,,,,2,,67,80
77568,note_on,,,,,512,0,9,,,,,1,,67,80
77568,note_on,,,,,64,0,8,,,,,0,,76,100
77696,note_off,,,,,128,0,8,,,,,0,,76,100
77760,note_on,,,,,64,0,8,,,,,0,,79,100
77760,note_on,,,,,256,0,12,,,,,4,,46,80
77760,note_on,,,,,256,0,14,,,,,5,,58,100
77760,note_on,,,,,256,0,11,,,,,3,,58,80
77760,note_on,,,,,256,0,13,,,,,5,,67,100
77760,note_on,,,,,0,0,13,,,,,5,,62,100
77824,note_off,,,,,64,0,8,,,,,0,,79,100
77824,note_off,,,,,256,0,10,,,,,2,,67,100
77824,note_off,,,,,256,0,9,,,,,1,,67,100
77856,note_on,,,,,32,0,8,,,,,0,,81,100
77888,note_off,,,,,128,0,11,,,,,3,,58,100
77888,note_off,,,,,128,0,12,,,,,4,,46,100
77888,note_off,,,,,128,0,13,,,,,5,,67,100
77888,note_off,,,,,128,0,14,,,,,5,,58,100
77888,note_off,,,,,0,0,13,,,,,5,,62,100
77920,note_off,,,,,64,0,8,,,,,0,,81,100
77952,note_on,,,,,0,0,13,,,,,5,,62,100
77952,note_on,,,,,64,0,12,,,,,4,,43,80
77952,note_on,,,,,32,0,8,,,,,0,,82,100
77952,note_on,,,,,64,0,11,,,,,3,,55,80
77952,note_on,,,,,64,0,14,,,,,5,,55,100
77952,note_on,,,,,64,0,13,,,,,5,,58,100
78080,note_off,,,,,128,0,8,,,,,0,,82,100
78080,note_off,,,,,128,0,13,,,,,5,,58,100
78080,note_off,,,,,0,0,13,,,,,5,,62,100
78080,note_off,,,,,128,0,12,,,,,4,,43,100
78080,note_off,,,,,128,0,11,,,,,3,,55,100
78080,note_off,,,,,128,0,14,,,,,5,,55,100
78144,note_on,,,,,64,0,13,,,,,5,,55,100
78144,note_on,,,,,0,0,13,,,,,5,,58,100
78144,note_on,,,,,64,0,12,,,,,4,,40,80
78144,note_on,,,,,64,0,11,,,,,3,,52,80
78144,note_on,,,,,64,0,14,,,,,5,,52,100
78144,note_on,,,,,64,0,8,,,,,0,,82,100
78272,note_off,,,,,128,0,14,,,,,5,,52,100
78272,note_off,,,,,0,0,13,,,,,5,,58,100
78272,note_off,,,,,128,0,13,,,,,5,,55,100
78272,note_off,,,,,128,0,12,,,,,4,,40,100
78272,note_off,,,,,128,0,11,,,,,3,,52,100
78272,note_off,,,,,128,0,8,,,,,0,,82,100
78336,note_on,,,,,512,0,10,,,,,2,,64,80
78336,note_on,,,,,512,0,9,,,,,1,,64,80
78336,note_on,,,,,64,0,8,,,,,0,,73,100
78336,note_on,,,,,64,0,13,,,,,5,,64,100
78336,note_on,,,,,64,0,11,,,,,3,,45,80
78336,note_on,,,,,64,0,14,,,,,5,,45,100
78336,note_on,,,,,0,0,13,,,,,5,,61,100
78336,note_on,,,,,64,0,12,,,,,4,,33,80
78400,note_off,,,,,64,0,8,,,,,0,,73,100
78432,note_on,,,,,32,0,8,,,,,0,,76,100
78464,note_off,,,,,128,0,11,,,,,3,,45,100
78464,note_off,,,,,0,0,13,,,,,5,,61,100
78464,note_off,,,,,128,0,14,,,,,5,,45,100
78464,note_off,,,,,128,0,12,,,,,4,,33,100
78464,note_off,,,,,128,0,13,,,,,5,,64,100
78496,note_off,,,,,64,0,8,,,,,0,,76,100
78528,note_on,,,,,32,0,8,,,,,0,,77,100
78528,note_on,,,,,64,0,11,,,,,3,,57,80
78528,note_on,,,,,64,0,12,,,,,4,,45,80
78528,note_on,,,,,64,0,14,,,,,5,,57,100
78528,note_on,,,,,64,0,13,,,,,5,,73,100
78528,note_on,,,,,0,0,13,,,,,5,,64,100
78592,note_off,,,,,64,0,8,,,,,0,,77,100
78592,note_off,,,,,256,0,10,,,,,2,,64,100
78592,note_off,,,,,256,0,9,,,,,1,,64,100
78624,note_on,,,,,32,0,8,,,,,0,,79,100
78656,note_off,,,,,128,0,12,,,,,4,,45,100
78656,note_off,,,,,0,0,13,,,,,5,,64,100
78656,note_off,,,,,128,0,11,,,,,3,,57,100
78656,note_off,,,,,128,0,13,,,,,5,,73,100
78656,note_off,,,,,128,0,14,,,,,5,,57,100
78688,note_off,,,,,64,0,8,,,,,0,,79,100
78720,note_on,,,,,32,0,8,,,,,0,,81,100
78720,note_on,,,,,64,0,13,,,,,5,,76,100
78720,note_on,,,,,64,0,11,,,,,3,,61,80
78720,note_on,,,,,64,0,14,,,,,5,,61,100
78720,note_on,,,,,64,0,12,,,,,4,,49,80
78720,note_on,,,,,0,0,13,,,,,5,,67,100
78784,note_off,,,,,64,0,8,,,,,0,,81,100
78816,note_on,,,,,32,0,8,,,,,0,,79,100
78848,note_off,,,,,128,0,11,,,,,3,,61,100
78848,note_off,,,,,0,0,13,,,,,5,,67,100
78848,note_off,,,,,128,0,12,,,,,4,,49,100
78848,note_off,,,,,128,0,14,,,,,5,,61,100
78848,note_off,,,,,128,0,13,,,,,5,,76,100
78880,note_off,,,,,64,0,8,,,,,0,,79,100
78912,note_on,,,,,32,0,8,,,,,0,,77,100
78912,note_on,,,,,0,0,13,,,,,5,,64,100
78912,note_on,,,,,64,0,11,,,,,3,,57,80
78912,note_on,,,,,64,0,12,,,,,4,,45,80
78912,note_on,,,,,64,0,14,,,,,5,,57,100
78912,note_on,,,,,64,0,13,,,,,5,,73,100
78976,note_off,,,,,64,0,8,,,,,0,,77,100
79008,note_on,,,,,32,0,8,,,,,0,,76,100
79040,note_off,,,,,128,0,11,,,,,3,,57,100
79040,note_off,,,,,0,0,13,,,,,5,,64,100
79040,note_off,,,,,128,0,13,,,,,5,,73,100
79040,note_off,,,,,128,0,12,,,,,4,,45,100
79040,note_off,,,,,128,0,14,,,,,5,,57,100
79072,note_off,,,,,64,0,8,,,,,0,,76,100
79104,note_on,,,,,512,0,9,,,,,1,,62,80
79104,note_on,,,,,32,0,8,,,,,0,,77,100
79104,note_on,,,,,512,0,10,,,,,2,,62,80
79232,note_off,,,,,128,0,8,,,,,0,,77,100
79296,note_on,,,,,256,0,13,,,,,5,,65,100
79296,note_on,,,,,256,0,12,,,,,4,,38,80
79296,note_on,,,,,256,0,14,,,,,5,,50,100
79296,note_on,,,,,256,0,11,,,,,3,,50,80
79296,note_on,,,,,0,0,13,,,,,5,,69,100
79296,note_on,,,,,64,0,8,,,,,0,,74,100
79360,note_off,,,,,256,0,9,,,,,1,,62,100
79360,note_off,,,,,256,0,10,,,,,2,,62,100
79424,note_off,,,,,128,0,12,,,,,4,,38,100
79424,note_off,,,,,128,0,14,,,,,5,,50,100
79424,note_off,,,,,128,0,13,,,,,5,,65,100
79424,note_off,,,,,0,0,13,,,,,5,,69,100
79424,note_off,,,,,128,0,11,,,,,3,,50,100
79424,note_off,,,,,128,0,8,,,,,0,,74,100
79488,note_on,,,,,64,0,13,,,,,5,,74,100
79488,note_on,,,,,0,0,13,,,,,5,,69,100
79488,note_on,,,,,64,0,11,,,,,3,,53,80
79488,note_on,,,,,64,0,14,,,,,5,,53,100
79488,note_on,,,,,64,0,12,,,,,4,,41,80
79488,note_on,,,,,64,0,8,,,,,0,,62,100
79616,note_off,,,,,128,0,12,,,,,4,,41,100
79616,note_off,,,,,128,0,14,,,,,5,,53,100
79616,note_off,,,,,0,0,13,,,,,5,,69,100
79616,note_off,,,,,128,0,11,,,,,3,,53,100
79616,note_off,,,,,128,0,13,,,,,5,,74,100
79616,note_off,,,,,128,0,8,,,,,0,,62,100
79680,note_on,,,,,64,0,13,,,,,5,,65,100
79680,note_on,,,,,0,0,13,,,,,5,,69,100
79680,note_on,,,,,64,0,14,,,,,5,,50,100
79680,note_on,,,,,64,0,11,,,,,3,,50,80
79680,note_on,,,,,64,0,8,,,,,0,,74,100
79680,note_on,,,,,64,0,12,,,,,4,,38,80
79744,note_off,,,,,64,0,8,,,,,0,,74,100
79776,note_on,,,,,32,0,8,,,,,0,,76,100
79808,note_off,,,,,0,0,13,,,,,5,,69,100
79808,note_off,,,,,128,0,12,,,,,4,,38,100
79808,note_off,,,,,128,0,11,,,,,3,,50,100
79808,note_off,,,,,128,0,14,,,,,5,,50,100
79808,note_off,,,,,128,0,13,,,,,5,,65,100
79840,note_off,,,,,64,0,8,,,,,0,,76,100
79872,note_on,,,,,512,0,10,,,,,2,,62,80
79872,note_on,,,,,512,0,9,,,,,1,,62,80
79872,note_on,,,,,32,0,8,,,,,0,,77,100
79964,note_off,,,,,92,0,8,,,,,0,,77,100
79968,note_on,,,,,4,0,8,,,,,0,,74,100
80060,note_off,,,,,92,0,8,,,,,0,,74,100
80064,note_on,,,,,256,0,14,,,,,5,,55,100
80064,note_on,,,,,256,0,13,,,,,5,,62,100
80064,note_on,,,,,0,0,13,,,,,5,,65,100
80064,note_on,,,,,256,0,11,,,,,3,,55,80
80064,note_on,,,,,4,0,8,,,,,0,,72,100
80064,note_on,,,,,256,0,12,,,,,4,,43,80
80128,note_off,,,,,256,0,9,,,,,1,,62,100
80128,note_off,,,,,256,0,10,,,,,2,,62,100
80156,note_off,,,,,92,0,8,,,,,0,,72,100
80160,note_on,,,,,4,0,8,,,,,0,,71,100
80192,note_off,,,,,128,0,12,,,,,4,,43,100
80192,note_off,,,,,128,0,14,,,,,5,,55,100
80192,note_off,,,,,128,0,13,,,,,5,,62,100
80192,note_off,,,,,0,0,13,,,,,5,,65,100
80192,note_off,,,,,128,0,11,,,,,3,,55,100
80224,note_off,,,,,64,0,8,,,,,0,,71,100
80256,note_on,,,,,64,0,14,,,,,5,,59,100
80256,note_on,,,,,0,0,13,,,,,5,,65,100
80256,note_on,,,,,64,0,12,,,,,4,,47,80
80256,note_on,,,,,64,0,13,,,,,5,,71,100
80256,note_on,,,,,64,0,11,,,,,3,,59,80
80256,note_on,,,,,32,0,8,,,,,0,,79,100
80348,note_off,,,,,92,0,8,,,,,0,,79,100
80352,note_on,,,,,4,0,8,,,,,0,,77,100
80384,note_off,,,,,128,0,12,,,,,4,,47,100
80384,note_off,,,,,128,0,11,,,,,3,,59,100
80384,note_off,,,,,128,0,13,,,,,5,,71,100
80384,note_off,,,,,128,0,14,,,,,5,,59,100
80384,note_off,,,,,0,0,13,,,,,5,,65,100
80444,note_off,,,,,92,0,8,,,,,0,,77,100
80448,note_on,,,,,64,0,14,,,,,5,,55,100
80448,note_on,,,,,0,0,13,,,,,5,,65,100
80448,note_on,,,,,64,0,11,,,,,3,,55,80
80448,note_on,,,,,4,0,8,,,,,0,,76,100
80448,note_on,,,,,64,0,12,,,,,4,,43,80
80448,note_on,,,,,64,0,13,,,,,5,,62,100
80540,note_off,,,,,92,0,8,,,,,0,,76,100
80544,note_on,,,,,4,0,8,,,,,0,,74,100
80576,note_off,,,,,128,0,14,,,,,5,,55,100
80576,note_off,,,,,128,0,13,,,,,5,,62,100
80576,note_off,,,,,128,0,12,,,,,4,,43,100
80576,note_off,,,,,128,0,11,,,,,3,,55,100
80576,note_off,,,,,0,0,13,,,,,5,,65,100
80608,note_off,,,,,64,0,8,,,,,0,,74,100
80640,note_on,,,,,512,0,10,,,,,2,,60,80
80640,note_on,,,,,32,0,8,,,,,0,,76,100
80640,note_on,,,,,512,0,9,,,,,1,,60,80
80768,note_off,,,,,128,0,8,,,,,0,,76,100
80832,note_on,,,,,256,0,14,,,,,5,,48,100
80832,note_on,,,,,256,0,13,,,,,5,,67,100
80832,note_on,,,,,256,0,12,,,,,4,,36,80
80832,note_on,,,,,0,0,13,,,,,5,,64,100
80832,note_on,,,,,256,0,11,,,,,3,,48,80
80832,note_on,,,,,64,0,8,,,,,0,,72,100
80896,note_off,,,,,256,0,9,,,,,1,,60,100
80896,note_off,,,,,256,0,10,,,,,2,,60,100
80960,note_off,,,,,128,0,14,,,,,5,,48,100
80960,note_off,,,,,128,0,8,,,,,0,,72,100
80960,note_off,,,,,128,0,12,,,,,4,,36,100
80960,note_off,,,,,128,0,13,,,,,5,,67,100
80960,note_off,,,,,128,0,11,,,,,3,,48,100
80960,note_off,,,,,0,0,13,,,,,5,,64,100
81024,note_on,,,,,64,0,14,,,,,5,,52,100
81024,note_on,,,,,64,0,13,,,,,5,,72,100
81024,note_on,,,,,64,0,12,,,,,4,,40,80
81024,note_on,,,,,64,0,11,,,,,3,,52,80
81024,note_on,,,,,64,0,8,,,,,0,,60,100
81024,note_on,,,,,0,0,13,,,,,5,,67,100
81152,note_off,,,,,128,0,11,,,,,3,,52,100
81152,note_off,,,,,128,0,14,,,,,5,,52,100
81152,note_off,,,,,128,0,12,,,,,4,,40,100
81152,note_off,,,,,0,0,13,,,,,5,,67,100
81152,note_off,,,,,128,0,13,,,,,5,,72,100
81152,note_off,,,,,128,0,8,,,,,0,,60,100
81216,note_on,,,,,64,0,12,,,,,4,,36,80
81216,note_on,,,,,64,0,11,,,,,3,,48,80
81216,note_on,,,,,64,0,13,,,,,5,,64,100
81216,note_on,,,,,0,0,13,,,,,5,,67,100
81216,note_on,,,,,64,0,8,,,,,0,,72,100
81216,note_on,,,,,64,0,14,,,,,5,,48,100
81280,note_off,,,,,64,0,8,,,,,0,,72,100
81312,note_on,,,,,32,0,8,,,,,0,,74,100
81344,note_off,,,,,128,0,14,,,,,5,,48,100
81344,note_off,,,,,128,0,11,,,,,3,,48,100
81344,note_off,,,,,128,0,13,,,,,5,,64,100
81344,note_off,,,,,0,0,13,,,,,5,,67,100
81344,note_off,,,,,128,0,12,,,,,4,,36,100
81376,note_off,,,,,64,0,8,,,,,0,,74,100
81408,note_on,,,,,512,0,10,,,,,2,,60,80
81408,note_on,,,,,512,0,9,,,,,1,,60,80
81408,note_on,,,,,32,0,8,,,,,0,,76,100
81500,note_off,,,,,92,0,8,,,,,0,,76,100
81504,note_on,,,,,4,0,8,,,,,0,,72,100
81596,note_off,,,,,92,0,8,,,,,0,,72,100
81600,note_on,,,,,256,0,14,,,,,5,,53,100
81600,note_on,,,,,4,0,8,,,,,0,,71,100
81600,note_on,,,,,0,0,13,,,,,5,,64,100
81600,note_on,,,,,256,0,13,,,,,5,,60,100
81600,note_on,,,,,256,0,11,,,,,3,,53,80
81600,note_on,,,,,256,0,12,,,,,4,,41,80
81664,note_off,,,,,256,0,9,,,,,1,,60,100
81664,note_off,,,,,256,0,10,,,,,2,,60,100
81692,note_off,,,,,92,0,8,,,,,0,,71,100
81696,note_on,,,,,4,0,8,,,,,0,,69,100
81728,note_off,,,,,128,0,12,,,,,4,,41,100
81728,note_off,,,,,128,0,14,,,,,5,,53,100
81728,note_off,,,,,128,0,13,,,,,5,,60,100
81728,note_off,,,,,128,0,11,,,,,3,,53,100
81728,note_off,,,,,0,0,13,,,,,5,,64,100
81760,note_off,,,,,64,0,8,,,,,0,,69,100
81792,note_on,,,,,64,0,12,,,,,4,,45,80
81792,note_on,,,,,32,0,8,,,,,0,,77,100
81792,note_on,,,,,64,0,14,,,,,5,,57,100
81792,note_on,,,,,64,0,11,,,,,3,,57,80
81792,note_on,,,,,64,0,13,,,,,5,,69,100
81792,note_on,,,,,0,0,13,,,,,5,,64,100
81884,note_off,,,,,92,0,8,,,,,0,,77,100
81888,note_on,,,,,4,0,8,,,,,0,,76,100
81920,note_off,,,,,128,0,14,,,,,5,,57,100
81920,note_off,,,,,128,0,12,,,,,4,,45,100
81920,note_off,,,,,0,0,13,,,,,5,,64,100
81920,note_off,,,,,128,0,13,,,,,5,,69,100
81920,note_off,,,,,128,0,11,,,,,3,,57,100
81980,note_off,,,,,92,0,8,,,,,0,,76,100
81984,note_on,,,,,64,0,12,,,,,4,,41,80
81984,note_on,,,,,64,0,11,,,,,3,,53,80
81984,note_on,,,,,0,0,13,,,,,5,,64,100
81984,note_on,,,,,64,0,14,,,,,5,,53,100
81984,note_on,,,,,4,0,8,,,,,0,,74,100
81984,note_on,,,,,64,0,13,,,,,5,,60,100
82076,note_off,,,,,92,0,8,,,,,0,,74,100
82080,note_on,,,,,4,0,8,,,,,0,,72,100
82112,note_off,,,,,128,0,14,,,,,5,,53,100
82112,note_off,,,,,128,0,12,,,,,4,,41,100
82112,note_off,,,,,128,0,11,,,,,3,,53,100
82112,note_off,,,,,128,0,13,,,,,5,,60,100
82112,note_off,,,,,0,0,13,,,,,5,,64,100
82144,note_off,,,,,64,0,8,,,,,0,,72,100
82176,note_on,,,,,512,0,9,,,,,1,,59,80
82176,note_on,,,,,512,0,10,,,,,2,,59,80
82176,note_on,,,,,32,0,8,,,,,0,,74,100
82304,note_off,,,,,128,0,8,,,,,0,,74,100
82368,note_on,,,,,256,0,11,,,,,3,,47,80
82368,note_on,,,,,64,0,8,,,,,0,,71,100
82368,note_on,,,,,0,0,13,,,,,5,,62,100
82368,note_on,,,,,256,0,14,,,,,5,,47,100
82368,note_on,,,,,256,0,13,,,,,5,,65,100
82368,note_on,,,,,256,0,12,,,,,4,,35,80
82432,note_off,,,,,256,0,9,,,,,1,,59,100
82432,note_off,,,,,256,0,10,,,,,2,,59,100
82496,note_off,,,,,128,0,14,,,,,5,,47,100
82496,note_off,,,,,128,0,8,,,,,0,,71,100
82496,note_off,,,,,128,0,13,,,,,5,,65,100
82496,note_off,,,,,0,0,13,,,,,5,,62,100
82496,note_off,,,,,128,0,12,,,,,4,,35,100
82496,note_off,,,,,128,0,11,,,,,3,,47,100
82560,note_on,,,,,64,0,14,,,,,5,,50,100
82560,note_on,,,,,64,0,8,,,,,0,,59,100
82560,note_on,,,,,64,0,11,,,,,3,,50,80
82560,note_on,,,,,64,0,13,,,,,5,,71,100
82560,note_on,,,,,64,0,12,,,,,4,,38,80
82560,note_on,,,,,0,0,13,,,,,5,,65,100
82688,note_off,,,,,128,0,8,,,,,0,,59,100
82688,note_off,,,,,128,0,14,,,,,5,,50,100
82688,note_off,,,,,128,0,12,,,,,4,,38,100
82688,note_off,,,,,0,0,13,,,,,5,,65,100
82688,note_off,,,,,128,0,11,,,,,3,,50,100
82688,note_off,,,,,128,0,13,,,,,5,,71,100
82752,note_on,,,,,64,0,13,,,,,5,,62,100
82752,note_on,,,,,0,0,13,,,,,5,,65,100
82752,note_on,,,,,64,0,8,,,,,0,,71,100
82752,note_on,,,,,64,0,14,,,,,5,,47,100
82752,note_on,,,,,64,0,11,,,,,3,,47,80
82752,note_on,,,,,64,0,12,,,,,4,,35,80
82816,note_off,,,,,64,0,8,,,,,0,,71,100
82848,note_on,,,,,32,0,8,,,,,0,,72,100
82880,note_off,,,,,128,0,12,,,,,4,,35,100
82880,note_off,,,,,128,0,13,,,,,5,,62,100
82880,note_off,,,,,0,0,13,,,,,5,,65,100
82880,note_off,,,,,128,0,11,,,,,3,,47,100
82880,note_off,,,,,128,0,14,,,,,5,,47,100
82912,note_off,,,,,64,0,8,,,,,0,,72,100
82944,note_on,,,,,512,0,10,,,,,2,,59,80
82944,note_on,,,,,32,0,8,,,,,0,,74,100
82944,note_on,,,,,512,0,9,,,,,1,,59,80
83036,note_off,,,,,92,0,8,,,,,0,,74,100
83040,note_on,,,,,4,0,8,,,,,0,,71,100
83132,note_off,,,,,92,0,8,,,,,0,,71,100
83136,note_on,,,,,0,0,13,,,,,5,,62,100
83136,note_on,,,,,256,0,13,,,,,5,,68,100
83136,note_on,,,,,4,0,8,,,,,0,,69,100
83136,note_on,,,,,256,0,11,,,,,3,,52,80
83136,note_on,,,,,256,0,14,,,,,5,,52,100
83136,note_on,,,,,256,0,12,,,,,4,,40,80
83200,note_off,,,,,256,0,10,,,,,2,,59,100
83200,note_off,,,,,256,0,9,,,,,1,,59,100
83228,note_off,,,,,92,0,8,,,,,0,,69,100
83232,note_on,,,,,4,0,8,,,,,0,,68,100
83264,note_off,,,,,0,0,13,,,,,5,,62,100
83264,note_off,,,,,128,0,13,,,,,5,,68,100
83264,note_off,,,,,128,0,14,,,,,5,,52,100
83264,note_off,,,,,128,0,11,,,,,3,,52,100
83264,note_off,,,,,128,0,12,,,,,4,,40,100
83296,note_off,,,,,64,0,8,,,,,0,,68,100
83328,note_on,,,,,32,0,8,,,,,0,,76,100
83328,note_on,,,,,64,0,14,,,,,5,,56,100
83328,note_on,,,,,64,0,11,,,,,3,,56,80
83328,note_on,,,,,64,0,13,,,,,5,,68,100
83328,note_on,,,,,64,0,12,,,,,4,,44,80
83328,note_on,,,,,0,0,13,,,,,5,,71,100
83420,note_off,,,,,92,0,8,,,,,0,,76,100
83424,note_on,,,,,4,0,8,,,,,0,,74,100
83456,note_off,,,,,128,0,14,,,,,5,,56,100
83456,note_off,,,,,128,0,13,,,,,5,,68,100
83456,note_off,,,,,0,0,13,,,,,5,,71,100
83456,note_off,,,,,128,0,11,,,,,3,,56,100
83456,note_off,,,,,128,0,12,,,,,4,,44,100
83516,note_off,,,,,92,0,8,,,,,0,,74,100
83520,note_on,,,,,0,0,13,,,,,5,,68,100
83520,note_on,,,,,64,0,14,,,,,5,,52,100
83520,note_on,,,,,64,0,13,,,,,5,,62,100
83520,note_on,,,,,64,0,12,,,,,4,,40,80
83520,note_on,,,,,64,0,11,,,,,3,,52,80
83520,note_on,,,,,4,0,8,,,,,0,,72,100
83612,note_off,,,,,92,0,8,,,,,0,,72,100
83616,note_on,,,,,4,0,8,,,,,0,,71,100
83648,note_off,,,,,128,0,14,,,,,5,,52,100
83648,note_off,,,,,128,0,11,,,,,3,,52,100
83648,note_off,,,,,128,0,12,,,,,4,,40,100
83648,note_off,,,,,0,0,13,,,,,5,,68,100
83648,note_off,,,,,128,0,13,,,,,5,,62,100
83680,note_off,,,,,64,0,8,,,,,0,,71,100
83712,note_on,,,,,512,0,9,,,,,1,,57,80
83712,note_on,,,,,512,0,10,,,,,2,,57,80
83712,note_on,,,,,32,0,8,,,,,0,,72,100
83840,note_off,,,,,128,0,8,,,,,0,,72,100
83904,note_on,,,,,256,0,11,,,,,3,,45,80
83904,note_on,,,,,64,0,8,,,,,0,,69,100
83904,note_on,,,,,256,0,13,,,,,5,,60,100
83904,note_on,,,,,0,0,13,,,,,5,,64,100
83904,note_on,,,,,256,0,14,,,,,5,,45,100
83904,note_on,,,,,256,0,12,,,,,4,,33,80
83968,note_off,,,,,256,0,10,,,,,2,,57,100
83968,note_off,,,,,256,0,9,,,,,1,,57,100
84032,note_off,,,,,128,0,12,,,,,4,,33,100
84032,note_off,,,,,128,0,8,,,,,0,,69,100
84032,note_off,,,,,128,0,14,,,,,5,,45,100
84032,note_off,,,,,0,0,13,,,,,5,,64,100
84032,note_off,,,,,128,0,13,,,,,5,,60,100
84032,note_off,,,,,128,0,11,,,,,3,,45,100
84096,note_on,,,,,0,0,13,,,,,5,,64,100
84096,note_on,,,,,64,0,13,,,,,5,,69,100
84096,note_on,,,,,64,0,11,,,,,3,,48,80
84096,note_on,,,,,64,0,12,,,,,4,,36,80
84096,note_on,,,,,64,0,14,,,,,5,,48,100
84096,note_on,,,,,64,0,8,,,,,0,,57,100
84224,note_off,,,,,128,0,12,,,,,4,,36,100
84224,note_off,,,,,128,0,14,,,,,5,,48,100
84224,note_off,,,,,128,0,8,,,,,0,,57,100
84224,note_off,,,,,128,0,13,,,,,5,,69,100
84224,note_off,,,,,0,0,13,,,,,5,,64,100
84224,note_off,,,,,128,0,11,,,,,3,,48,100
84288,note_on,,,,,64,0,12,,,,,4,,33,80
84288,note_on,,,,,64,0,8,,,,,0,,72,100
84288,note_on,,,,,64,0,13,,,,,5,,60,100
84288,note_on,,,,,64,0,11,,,,,3,,45,80
84288,note_on,,,,,0,0,13,,,,,5,,64,100
84288,note_on,,,,,64,0,14,,,,,5,,45,100
84352,note_off,,,,,64,0,8,,,,,0,,72,100
84384,note_on,,,,,32,0,8,,,,,0,,74,100
84416,note_off,,,,,128,0,12,,,,,4,,33,100
84416,note_off,,,,,128,0,11,,,,,3,,45,100
84416,note_off,,,,,128,0,13,,,,,5,,60,100
84416,note_off,,,,,128,0,14,,,,,5,,45,100
84416,note_off,,,,,0,0,13,,,,,5,,64,100
84448,note_off,,,,,64,0,8,,,,,0,,74,100
84480,note_on,,,,,512,0,9,,,,,1,,57,80
84480,note_on,,,,,32,0,8,,,,,0,,76,100
84480,note_on,,,,,512,0,10,,,,,2,,57,80
84608,note_off,,,,,128,0,8,,,,,0,,76,100
84672,note_on,,,,,256,0,13,,,,,5,,60,100
84672,note_on,,,,,0,0,13,,,,,5,,64,100
84672,note_on,,,,,256,0,12,,,,,4,,33,80
84672,note_on,,,,,64,0,8,,,,,0,,78,100
84672,note_on,,,,,256,0,14,,,,,5,,45,100
84672,note_on,,,,,256,0,11,,,,,3,,45,80
84736,note_off,,,,,256,0,10,,,,,2,,57,100
84736,note_off,,,,,64,0,8,,,,,0,,78,100
84736,note_off,,,,,256,0,9,,,,,1,,57,100
84768,note_on,,,,,32,0,8,,,,,0,,80,100
84800,note_off,,,,,128,0,12,,,,,4,,33,100
84800,note_off,,,,,128,0,14,,,,,5,,45,100
84800,note_off,,,,,128,0,13,,,,,5,,60,100
84800,note_off,,,,,128,0,11,,,,,3,,45,100
84800,note_off,,,,,0,0,13,,,,,5,,64,100
84832,note_off,,,,,64,0,8,,,,,0,,80,100
84864,note_on,,,,,32,0,8,,,,,0,,81,100
84864,note_on,,,,,64,0,14,,,,,5,,48,100
84864,note_on,,,,,64,0,11,,,,,3,,48,80
84864,note_on,,,,,0,0,13,,,,,5,,64,100
84864,note_on,,,,,64,0,13,,,,,5,,69,100
84864,note_on,,,,,64,0,12,,,,,4,,36,80
84992,note_off,,,,,128,0,8,,,,,0,,81,100
84992,note_off,,,,,128,0,13,,,,,5,,69,100
84992,note_off,,,,,0,0,13,,,,,5,,64,100
84992,note_off,,,,,128,0,12,,,,,4,,36,100
84992,note_off,,,,,128,0,14,,,,,5,,48,100
84992,note_off,,,,,128,0,11,,,,,3,,48,100
85056,note_on,,,,,64,0,12,,,,,4,,33,80
85056,note_on,,,,,64,0,14,,,,,5,,45,100
85056,note_on,,,,,64,0,8,,,,,0,,79,100
85056,note_on,,,,,64,0,11,,,,,3,,45,80
85056,note_on,,,,,64,0,13,,,,,5,,60,100
85056,note_on,,,,,0,0,13,,,,,5,,64,100
85120,note_off,,,,,64,0,8,,,,,0,,79,100
85152,note_on,,,,,32,0,8,,,,,0,,77,100
85184,note_off,,,,,128,0,11,,,,,3,,45,100
85184,note_off,,,,,128,0,12,,,,,4,,33,100
85184,note_off,,,,,0,0,13,,,,,5,,64,100
85184,note_off,,,,,128,0,14,,,,,5,,45,100
85184,note_off,,,,,128,0,13,,,,,5,,60,100
85216,note_off,,,,,64,0,8,,,,,0,,77,100
85248,note_on,,,,,512,0,9,,,,,1,,57,80
85248,note_on,,,,,512,0,10,,,,,2,,57,80
85248,note_on,,,,,32,0,8,,,,,0,,76,100
85376,note_off,,,,,128,0,8,,,,,0,,76,100
85440,note_on,,,,,256,0,14,,,,,5,,45,100
85440,note_on,,,,,256,0,11,,,,,3,,45,78
85440,note_on,,,,,0,0,13,,,,,5,,64,100
85440,note_on,,,,,64,0,8,,,,,0,,57,100
85440,note_on,,,,,256,0,13,,,,,5,,60,100
85440,note_on,,,,,256,0,12,,,,,4,,33,78
85504,note_off,,,,,256,0,10,,,,,2,,57,100
85504,note_off,,,,,256,0,9,,,,,1,,57,100
85568,note_off,,,,,128,0,12,,,,,4,,33,100
85568,note_off,,,,,128,0,14,,,,,5,,45,100
85568,note_off,,,,,128,0,8,,,,,0,,57,100
85568,note_off,,,,,0,0,13,,,,,5,,64,100
85568,note_off,,,,,128,0,11,,,,,3,,45,100
85568,note_off,,,,,128,0,13,,,,,5,,60,100
85632,note_on,,,,,64,0,14,,,,,5,,48,100
85632,note_on,,,,,64,0,13,,,,,5,,69,100
85632,note_on,,,,,0,0,13,,,,,5,,64,100
85632,note_on,,,,,64,0,8,,,,,0,,57,100
85632,note_on,,,,,64,0,11,,,,,3,,48,76
85632,note_on,,,,,64,0,12,,,,,4,,36,76
85760,note_off,,,,,128,0,14,,,,,5,,48,100
85760,note_off,,,,,128,0,13,,,,,5,,69,100
85760,note_off,,,,,0,0,13,,,,,5,,64,100
85760,note_off,,,,,128,0,8,,,,,0,,57,100
85760,note_off,,,,,128,0,12,,,,,4,,36,100
85760,note_off,,,,,128,0,11,,,,,3,,48,100
85824,note_on,,,,,64,0,8,,,,,0,,72,85
85824,note_on,,,,,64,0,14,,,,,5,,45,100
85824,note_on,,,,,64,0,11,,,,,3,,45,73
85824,note_on,,,,,0,0,13,,,,,5,,64,100
85824,note_on,,,,,64,0,13,,,,,5,,60,100
85824,note_on,,,,,64,0,12,,,,,4,,33,73
85888,note_off,,,,,64,0,8,,,,,0,,72,100
85920,note_on,,,,,32,0,8,,,,,0,,74,85
85952,note_off,,,,,128,0,11,,,,,3,,45,100
85952,note_off,,,,,0,0,13,,,,,5,,64,100
85952,note_off,,,,,128,0,13,,,,,5,,60,100
85952,note_off,,,,,128,0,12,,,,,4,,33,100
85952,note_off,,,,,128,0,14,,,,,5,,45,100
85984,note_off,,,,,64,0,8,,,,,0,,74,100
86016,note_on,,,,,512,0,10,,,,,2,,57,71
86016,note_on,,,,,512,0,9,,,,,1,,57,71
86016,note_on,,,,,32,0,8,,,,,0,,76,85
86144,note_off,,,,,128,0,8,,,,,0,,76,100
86208,note_on,,,,,256,0,13,,,,,5,,60,100
86208,note_on,,,,,0,0,13,,,,,5,,64,100
86208,note_on,,,,,256,0,14,,,,,5,,45,100
86208,note_on,,,,,256,0,12,,,,,4,,33,70
86208,note_on,,,,,64,0,8,,,,,0,,78,85
86208,note_on,,,,,256,0,11,,,,,3,,45,70
86272,note_off,,,,,256,0,10,,,,,2,,57,100
86272,note_off,,,,,256,0,9,,,,,1,,57,100
86272,note_off,,,,,64,0,8,,,,,0,,78,100
86304,note_on,,,,,32,0,8,,,,,0,,80,85
86336,note_off,,,,,0,0,13,,,,,5,,64,100
86336,note_off,,,,,128,0,12,,,,,4,,33,100
86336,note_off,,,,,128,0,14,,,,,5,,45,100
86336,note_off,,,,,128,0,13,,,,,5,,60,100
86336,note_off,,,,,128,0,11,,,,,3,,45,100
86368,note_off,,,,,64,0,8,,,,,0,,80,100
86400,note_on,,,,,64,0,11,,,,,3,,48,70
86400,note_on,,,,,64,0,13,,,,,5,,69,100
86400,note_on,,,,,64,0,14,,,,,5,,48,100
86400,note_on,,,,,64,0,12,,,,,4,,36,70
86400,note_on,,,,,0,0,13,,,,,5,,64,100
86400,note_on,,,,,32,0,8,,,,,0,,81,85
86528,note_off,,,,,128,0,13,,,,,5,,69,100
86528,note_off,,,,,128,0,14,,,,,5,,48,100
86528,note_off,,,,,128,0,11,,,,,3,,48,100
86528,note_off,,,,,128,0,12,,,,,4,,36,100
86528,note_off,,,,,128,0,8,,,,,0,,81,100
86528,note_off,,,,,0,0,13,,,,,5,,64,100
86592,note_on,,,,,64,0,14,,,,,5,,45,100
86592,note_on,,,,,64,0,8,,,,,0,,79,85
86592,note_on,,,,,64,0,13,,,,,5,,60,100
86592,note_on,,,,,64,0,11,,,,,3,,45,70
86592,note_on,,,,,64,0,12,,,,,4,,33,70
86592,note_on,,,,,0,0,13,,,,,5,,64,100
86656,note_off,,,,,64,0,8,,,,,0,,79,100
86688,note_on,,,,,32,0,8,,,,,0,,77,85
86720,note_off,,,,,128,0,12,,,,,4,,33,100
86720,note_off,,,,,0,0,13,,,,,5,,64,100
86720,note_off,,,,,128,0,11,,,,,3,,45,100
86720,note_off,,,,,128,0,13,,,,,5,,60,100
86720,note_off,,,,,128,0,14,,,,,5,,45,100
86752,note_off,,,,,64,0,8,,,,,0,,77,100
86784,note_on,,,,,512,0,9,,,,,1,,57,70
86784,note_on,,,,,512,0,10,,,,,2,,57,70
86784,note_on,,,,,32,0,8,,,,,0,,76,85
86912,note_off,,,,,128,0,8,,,,,0,,76,100
86976,note_on,,,,,256,0,14,,,,,5,,45,100
86976,note_on,,,,,256,0,12,,,,,4,,33,73
86976,note_on,,,,,0,0,13,,,,,5,,64,100
86976,note_on,,,,,256,0,13,,,,,5,,60,100
86976,note_on,,,,,256,0,11,,,,,3,,45,73
86976,note_on,,,,,64,0,8,,,,,0,,57,85
87040,note_off,,,,,256,0,9,,,,,1,,57,100
87040,note_off,,,,,256,0,10,,,,,2,,57,100
87104,note_off,,,,,128,0,12,,,,,4,,33,100
87104,note_off,,,,,128,0,14,,,,,5,,45,100
87104,note_off,,,,,128,0,13,,,,,5,,60,100
87104,note_off,,,,,0,0,13,,,,,5,,64,100
87104,note_off,,,,,128,0,8,,,,,0,,57,100
87104,note_off,,,,,128,0,11,,,,,3,,45,100
87168,note_on,,,,,64,0,11,,,,,3,,48,77
87168,note_on,,,,,64,0,12,,,,,4,,36,77
87168,note_on,,,,,64,0,13,,,,,5,,69,100
87168,note_on,,,,,64,0,14,,,,,5,,48,100
87168,note_on,,,,,64,0,8,,,,,0,,57,85
87168,note_on,,,,,0,0,13,,,,,5,,64,100
87296,note_off,,,,,128,0,12,,,,,4,,36,100
87296,note_off,,,,,128,0,8,,,,,0,,57,100
87296,note_off,,,,,128,0,11,,,,,3,,48,100
87296,note_off,,,,,128,0,13,,,,,5,,69,100
87296,note_off,,,,,128,0,14,,,,,5,,48,100
87296,note_off,,,,,0,0,13,,,,,5,,64,100
87360,note_on,,,,,64,0,12,,,,,4,,33,81
87360,note_on,,,,,64,0,11,,,,,3,,45,81
87360,note_on,,,,,64,0,8,,,,,0,,72,100
87360,note_on,,,,,64,0,14,,,,,5,,45,100
87360,note_on,,,,,0,0,13,,,,,5,,64,100
87360,note_on,,,,,64,0,13,,,,,5,,60,100
87424,note_off,,,,,64,0,8,,,,,0,,72,100
87456,note_on,,,,,32,0,8,,,,,0,,74,100
87488,note_off,,,,,128,0,13,,,,,5,,60,100
87488,note_off,,,,,128,0,14,,,,,5,,45,100
87488,note_off,,,,,0,0,13,,,,,5,,64,100
87488,note_off,,,,,128,0,12,,,,,4,,33,100
87488,note_off,,,,,128,0,11,,,,,3,,45,100
87520,note_off,,,,,64,0,8,,,,,0,,74,100
87552,note_on,,,,,64,0,14,,,,,5,,44,100
87552,note_on,,,,,32,0,8,,,,,0,,76,100
87552,note_on,,,,,0,0,13,,,,,5,,62,100
87552,note_on,,,,,64,0,13,,,,,5,,64,100
87552,note_on,,,,,64,0,11,,,,,3,,44,84
87552,note_on,,,,,64,0,12,,,,,4,,44,84
87680,note_off,,,,,128,0,8,,,,,0,,76,100
87680,note_off,,,,,128,0,13,,,,,5,,62,100
87680,note_off,,,,,128,0,14,,,,,5,,44,100
87680,note_off,,,,,128,0,11,,,,,3,,44,100
87680,note_off,,,,,128,0,12,,,,,4,,44,100
87744,note_on,,,,,64,0,13,,,,,5,,60,100
87744,note_on,,,,,64,0,14,,,,,5,,45,100
87744,note_on,,,,,64,0,11,,,,,3,,45,88
87744,note_on,,,,,64,0,8,,,,,0,,74,100
87744,note_on,,,,,64,0,12,,,,,4,,33,88
87808,note_off,,,,,64,0,8,,,,,0,,74,100
87808,note_off,,,,,64,0,13,,,,,5,,64,100
87840,note_on,,,,,32,0,8,,,,,0,,72,100
87872,note_off,,,,,128,0,12,,,,,4,,33,100
87872,note_off,,,,,128,0,14,,,,,5,,45,100
87872,note_off,,,,,128,0,11,,,,,3,,45,100
87872,note_off,,,,,64,0,13,,,,,5,,60,100
87904,note_off,,,,,64,0,8,,,,,0,,72,100
87936,note_on,,,,,32,0,8,,,,,0,,71,100
87936,note_on,,,,,64,0,14,,,,,5,,52,100
87936,note_on,,,,,64,0,13,,,,,5,,71,100
87936,note_on,,,,,0,0,13,,,,,5,,69,100
87936,note_on,,,,,64,0,11,,,,,3,,52,92
87936,note_on,,,,,64,0,12,,,,,4,,40,92
88000,note_off,,,,,64,0,8,,,,,0,,71,100
88032,note_on,,,,,32,0,8,,,,,0,,69,100
88064,note_off,,,,,128,0,11,,,,,3,,52,100
88064,note_off,,,,,128,0,14,,,,,5,,52,100
88064,note_off,,,,,128,0,12,,,,,4,,40,100
88064,note_off,,,,,128,0,13,,,,,5,,69,100
88096,note_off,,,,,64,0,8,,,,,0,,69,100
88128,note_on,,,,,64,0,13,,,,,5,,68,100
88128,note_on,,,,,64,0,11,,,,,3,,40,96
88128,note_on,,,,,64,0,12,,,,,4,,40,96
88128,note_on,,,,,32,0,8,,,,,0,,68,100
88128,note_on,,,,,64,0,14,,,,,5,,40,100
88192,note_off,,,,,64,0,13,,,,,5,,71,100
88192,note_off,,,,,64,0,8,,,,,0,,68,100
88224,note_on,,,,,32,0,8,,,,,0,,71,100
88256,note_off,,,,,128,0,11,,,,,3,,40,100
88256,note_off,,,,,128,0,14,,,,,5,,40,100
88256,note_off,,,,,128,0,12,,,,,4,,40,100
88256,note_off,,,,,64,0,13,,,,,5,,68,100
88288,note_off,,,,,64,0,8,,,,,0,,71,100
88320,note_on,,,,,64,0,14,,,,,5,,45,100
88320,note_on,,,,,64,0,11,,,,,3,,45,99
88320,note_on,,,,,0,0,13,,,,,5,,60,100
88320,note_on,,,,,64,0,13,,,,,5,,69,100
88320,note_on,,,,,64,0,12,,,,,4,,33,99
88320,note_on,,,,,32,0,8,,,,,0,,69,100
88448,note_off,,,,,0,0,13,,,,,5,,60,100
88448,note_off,,,,,128,0,13,,,,,5,,69,100
88448,note_off,,,,,128,0,12,,,,,4,,33,100
88448,note_off,,,,,128,0,8,,,,,0,,69,100
88448,note_off,,,,,128,0,14,,,,,5,,45,100
88448,note_off,,,,,128,0,11,,,,,3,,45,100
88512,note_on,,,,,64,0,12,,,,,4,,45,100
88512,note_on,,,,,0,0,13,,,,,5,,64,100
88512,note_on,,,,,64,0,13,,,,,5,,72,100
88512,note_on,,,,,64,0,14,,,,,5,,57,100
88512,note_on,,,,,64,0,8,,,,,0,,57,100
88512,note_on,,,,,64,0,11,,,,,3,,57,100
88640,note_off,,,,,0,0,13,,,,,5,,64,100
88640,note_off,,,,,128,0,8,,,,,0,,57,100
88640,note_off,,,,,128,0,12,,,,,4,,45,100
88640,note_off,,,,,128,0,11,,,,,3,,57,100
88640,note_off,,,,,128,0,13,,,,,5,,72,100
88640,note_off,,,,,128,0,14,,,,,5,,57,100
88704,note_on,,,,,64,0,14,,,,,5,,60,100
88704,note_on,,,,,64,0,11,,,,,3,,60,100
88704,note_on,,,,,64,0,12,,,,,4,,48,100
88704,note_on,,,,,64,0,8,,,,,0,,57,100
88704,note_on,,,,,64,0,13,,,,,5,,76,100
88704,note_on,,,,,0,0,13,,,,,5,,69,100
88832,note_off,,,,,128,0,14,,,,,5,,60,100
88832,note_off,,,,,128,0,8,,,,,0,,57,100
88832,note_off,,,,,128,0,13,,,,,5,,76,100
88832,note_off,,,,,0,0,13,,,,,5,,69,100
88832,note_off,,,,,128,0,12,,,,,4,,48,100
88832,note_off,,,,,128,0,11,,,,,3,,60,100
88896,note_on,,,,,1856,0,10,,,,,2,,72,100
88896,note_on,,,,,64,0,14,,,,,5,,57,100
88896,note_on,,,,,64,0,12,,,,,4,,45,100
88896,note_on,,,,,64,0,11,,,,,3,,57,100
88896,note_on,,,,,64,0,13,,,,,5,,72,100
88896,note_on,,,,,0,0,13,,,,,5,,64,100
88896,note_on,,,,,1856,0,9,,,,,1,,76,100
89024,note_off,,,,,128,0,13,,,,,5,,72,100
89024,note_off,,,,,128,0,14,,,,,5,,57,100
89024,note_off,,,,,128,0,12,,,,,4,,45,100
89024,note_off,,,,,128,0,11,,,,,3,,57,100
89024,note_off,,,,,128,0,10,,,,,2,,72,100
89024,note_off,,,,,0,0,13,,,,,5,,64,100
89024,note_off,,,,,128,0,9,,,,,1,,76,100
89088,note_on,,,,,64,0,10,,,,,2,,72,100
89088,note_on,,,,,64,0,9,,,,,1,,81,100
89216,note_off,,,,,128,0,9,,,,,1,,81,100
89216,note_off,,,,,128,0,10,,,,,2,,72,100
89280,note_on,,,,,256,0,12,,,,,4,,45,100
89280,note_on,,,,,64,0,9,,,,,1,,81,100
89280,note_on,,,,,0,0,13,,,,,5,,64,100
89280,note_on,,,,,256,0,13,,,,,5,,72,100
89280,note_on,,,,,64,0,10,,,,,2,,69,100
89280,note_on,,,,,256,0,11,,,,,3,,57,100
89280,note_on,,,,,256,0,14,,,,,5,,57,100
89408,note_off,,,,,128,0,12,,,,,4,,45,100
89408,note_off,,,,,128,0,11,,,,,3,,57,100
89408,note_off,,,,,128,0,9,,,,,1,,81,100
89408,note_off,,,,,128,0,13,,,,,5,,72,100
89408,note_off,,,,,128,0,14,,,,,5,,57,100
89408,note_off,,,,,0,0,13,,,,,5,,64,100
89408,note_off,,,,,128,0,10,,,,,2,,69,100
89472,note_on,,,,,0,0,13,,,,,5,,76,100
89472,note_on,,,,,64,0,9,,,,,1,,81,100
89472,note_on,,,,,64,0,11,,,,,3,,60,100
89472,note_on,,,,,64,0,13,,,,,5,,69,100
89472,note_on,,,,,64,0,12,,,,,4,,48,100
89472,note_on,,,,,64,0,14,,,,,5,,60,100
89600,note_off,,,,,128,0,9,,,,,1,,81,100
89600,note_off,,,,,128,0,11,,,,,3,,60,100
89600,note_off,,,,,128,0,12,,,,,4,,48,100
89600,note_off,,,,,0,0,13,,,,,5,,76,100
89600,note_off,,,,,128,0,13,,,,,5,,69,100
89600,note_off,,,,,128,0,14,,,,,5,,60,100
89664,note_on,,,,,64,0,12,,,,,4,,45,100
89664,note_on,,,,,64,0,9,,,,,1,,81,100
89664,note_on,,,,,64,0,14,,,,,5,,57,100
89664,note_on,,,,,256,0,10,,,,,2,,76,100
89664,note_on,,,,,64,0,11,,,,,3,,57,100
89664,note_on,,,,,64,0,13,,,,,5,,64,100
89664,note_on,,,,,0,0,13,,,,,5,,72,100
89792,note_off,,,,,128,0,12,,,,,4,,45,100
89792,note_off,,,,,128,0,9,,,,,1,,81,100
89792,note_off,,,,,128,0,13,,,,,5,,64,100
89792,note_off,,,,,128,0,10,,,,,2,,76,100
89792,note_off,,,,,128,0,14,,,,,5,,57,100
89792,note_off,,,,,0,0,13,,,,,5,,72,100
89792,note_off,,,,,128,0,11,,,,,3,,57,100
89856,note_on,,,,,64,0,10,,,,,2,,72,100
89856,note_on,,,,,64,0,9,,,,,1,,81,100
89984,note_off,,,,,128,0,9,,,,,1,,81,100
89984,note_off,,,,,128,0,10,,,,,2,,72,100
90048,note_on,,,,,256,0,14,,,,,5,,57,100
90048,note_on,,,,,256,0,12,,,,,4,,45,100
90048,note_on,,,,,64,0,10,,,,,2,,69,100
90048,note_on,,,,,256,0,11,,,,,3,,57,100
90048,note_on,,,,,256,0,13,,,,,5,,72,100
90048,note_on,,,,,64,0,9,,,,,1,,84,100
90048,note_on,,,,,0,0,13,,,,,5,,64,100
90112,note_off,,,,,64,0,9,,,,,1,,84,100
90144,note_on,,,,,32,0,9,,,,,1,,83,100
90176,note_off,,,,,0,0,13,,,,,5,,64,100
90176,note_off,,,,,128,0,14,,,,,5,,57,100
90176,note_off,,,,,128,0,11,,,,,3,,57,100
90176,note_off,,,,,128,0,13,,,,,5,,72,100
90176,note_off,,,,,128,0,10,,,,,2,,69,100
90176,note_off,,,,,128,0,12,,,,,4,,45,100
90208,note_off,,,,,64,0,9,,,,,1,,83,100
90240,note_on,,,,,64,0,12,,,,,4,,48,100
90240,note_on,,,,,0,0,13,,,,,5,,76,100
90240,note_on,,,,,64,0,14,,,,,5,,60,100
90240,note_on,,,,,64,0,13,,,,,5,,69,100
90240,note_on,,,,,64,0,11,,,,,3,,60,100
90240,note_on,,,,,32,0,9,,,,,1,,81,100
90368,note_off,,,,,128,0,9,,,,,1,,81,100
90368,note_off,,,,,128,0,11,,,,,3,,60,100
90368,note_off,,,,,128,0,12,,,,,4,,48,100
90368,note_off,,,,,128,0,13,,,,,5,,69,100
90368,note_off,,,,,0,0,13,,,,,5,,76,100
90368,note_off,,,,,128,0,14,,,,,5,,60,100
90432,note_on,,,,,64,0,14,,,,,5,,57,100
90432,note_on,,,,,256,0,10,,,,,2,,76,100
90432,note_on,,,,,0,0,13,,,,,5,,72,100
90432,note_on,,,,,64,0,11,,,,,3,,57,100
90432,note_on,,,,,64,0,12,,,,,4,,45,100
90432,note_on,,,,,64,0,9,,,,,1,,84,100
90432,note_on,,,,,64,0,13,,,,,5,,64,100
90496,note_off,,,,,64,0,9,,,,,1,,84,100
90528,note_on,,,,,32,0,9,,,,,1,,83,100
90560,note_off,,,,,128,0,13,,,,,5,,64,100
90560,note_off,,,,,128,0,14,,,,,5,,57,100
90560,note_off,,,,,128,0,12,,,,,4,,45,100
90560,note_off,,,,,128,0,10,,,,,2,,76,100
90560,note_off,,,,,128,0,11,,,,,3,,57,100
90560,note_off,,,,,0,0,13,,,,,5,,72,100
90592,note_off,,,,,64,0,9,,,,,1,,83,100
90624,note_on,,,,,32,0,9,,,,,1,,81,100
90624,note_on,,,,,64,0,10,,,,,2,,72,100
90752,note_off,,,,,128,0,10,,,,,2,,72,100
90752,note_off,,,,,128,0,9,,,,,1,,81,100
90816,note_on,,,,,64,0,10,,,,,2,,69,100
90816,note_on,,,,,256,0,14,,,,,5,,57,100
90816,note_on,,,,,256,0,11,,,,,3,,57,100
90816,note_on,,,,,256,0,12,,,,,4,,45,100
90816,note_on,,,,,0,0,13,,,,,5,,64,100
90816,note_on,,,,,64,0,9,,,,,1,,84,100
90816,note_on,,,,,256,0,13,,,,,5,,72,100
90880,note_off,,,,,64,0,9,,,,,1,,84,100
90912,note_on,,,,,32,0,9,,,,,1,,83,100
90944,note_off,,,,,128,0,13,,,,,5,,72,100
90944,note_off,,,,,128,0,11,,,,,3,,57,100
90944,note_off,,,,,128,0,12,,,,,4,,45,100
90944,note_off,,,,,128,0,14,,,,,5,,57,100
90944,note_off,,,,,0,0,13,,,,,5,,64,100
90944,note_off,,,,,128,0,10,,,,,2,,69,100
90976,note_off,,,,,64,0,9,,,,,1,,83,100
91008,note_on,,,,,64,0,11,,,,,3,,60,100
91008,note_on,,,,,32,0,9,,,,,1,,81,100
91008,note_on,,,,,64,0,12,,,,,4,,48,100
91008,note_on,,,,,64,0,14,,,,,5,,60,100
91008,note_on,,,,,64,0,13,,,,,5,,69,100
91008,note_on,,,,,0,0,13,,,,,5,,76,100
91136,note_off,,,,,128,0,12,,,,,4,,48,100
91136,note_off,,,,,0,0,13,,,,,5,,76,100
91136,note_off,,,,,128,0,14,,,,,5,,60,100
91136,note_off,,,,,128,0,9,,,,,1,,81,100
91136,note_off,,,,,128,0,13,,,,,5,,69,100
91136,note_off,,,,,128,0,11,,,,,3,,60,100
91200,note_on,,,,,64,0,9,,,,,1,,79,100
91200,note_on,,,,,64,0,14,,,,,5,,57,100
91200,note_on,,,,,64,0,13,,,,,5,,64,100
91200,note_on,,,,,0,0,13,,,,,5,,72,100
91200,note_on,,,,,256,0,10,,,,,2,,72,100
91200,note_on,,,,,64,0,12,,,,,4,,45,100
91200,note_on,,,,,64,0,11,,,,,3,,57,100
91264,note_off,,,,,64,0,9,,,,,1,,79,100
91296,note_on,,,,,32,0,9,,,,,1,,77,100
91328,note_off,,,,,0,0,13,,,,,5,,72,100
91328,note_off,,,,,128,0,10,,,,,2,,72,100
91328,note_off,,,,,128,0,13,,,,,5,,64,100
91328,note_off,,,,,128,0,12,,,,,4,,45,100
91328,note_off,,,,,128,0,11,,,,,3,,57,100
91328,note_off,,,,,128,0,14,,,,,5,,57,100
91360,note_off,,,,,64,0,9,,,,,1,,77,100
91392,note_on,,,,,32,0,9,,,,,1,,76,100
91392,note_on,,,,,64,0,10,,,,,2,,69,100
91520,note_off,,,,,128,0,9,,,,,1,,76,100
91520,note_off,,,,,128,0,10,,,,,2,,69,100
91584,note_on,,,,,64,0,10,,,,,2,,64,100
91584,note_on,,,,,256,0,11,,,,,3,,57,100
91584,note_on,,,,,256,0,12,,,,,4,,45,100
91584,note_on,,,,,64,0,9,,,,,1,,74,100
91584,note_on,,,,,0,0,13,,,,,5,,72,100
91584,note_on,,,,,256,0,13,,,,,5,,64,100
91584,note_on,,,,,256,0,14,,,,,5,,57,100
91648,note_off,,,,,64,0,9,,,,,1,,74,100
91680,note_on,,,,,32,0,9,,,,,1,,72,100
91712,note_off,,,,,128,0,12,,,,,4,,45,100
91712,note_off,,,,,128,0,11,,,,,3,,57,100
91712,note_off,,,,,128,0,10,,,,,2,,64,100
91712,note_off,,,,,128,0,14,,,,,5,,57,100
91712,note_off,,,,,128,0,13,,,,,5,,64,100
91712,note_off,,,,,0,0,13,,,,,5,,72,100
91744,note_off,,,,,64,0,9,,,,,1,,72,100
91776,note_on,,,,,64,0,14,,,,,5,,56,100
91776,note_on,,,,,64,0,12,,,,,4,,44,100
91776,note_on,,,,,0,0,13,,,,,5,,71,100
91776,note_on,,,,,64,0,13,,,,,5,,64,100
91776,note_on,,,,,32,0,9,,,,,1,,71,100
91776,note_on,,,,,64,0,11,,,,,3,,56,100
91904,note_off,,,,,0,0,13,,,,,5,,71,100
91904,note_off,,,,,128,0,13,,,,,5,,64,100
91904,note_off,,,,,128,0,14,,,,,5,,56,100
91904,note_off,,,,,128,0,9,,,,,1,,71,100
91904,note_off,,,,,128,0,12,,,,,4,,44,100
91904,note_off,,,,,128,0,11,,,,,3,,56,100
91968,note_on,,,,,64,0,9,,,,,1,,76,100
91968,note_on,,,,,64,0,14,,,,,5,,52,100
91968,note_on,,,,,64,0,13,,,,,5,,59,100
91968,note_on,,,,,0,0,13,,,,,5,,68,100
91968,note_on,,,,,3136,0,8,,,,,0,,80,100
91968,note_on,,,,,64,0,12,,,,,4,,40,100
91968,note_on,,,,,256,0,10,,,,,2,,68,100
91968,note_on,,,,,64,0,11,,,,,3,,52,100
92096,note_off,,,,,128,0,11,,,,,3,,52,100
92096,note_off,,,,,128,0,14,,,,,5,,52,100
92096,note_off,,,,,128,0,12,,,,,4,,40,100
92096,note_off,,,,,128,0,10,,,,,2,,68,100
92096,note_off,,,,,128,0,9,,,,,1,,76,100
92096,note_off,,,,,128,0,8,,,,,0,,80,100
92096,note_off,,,,,128,0,13,,,,,5,,59,100
92096,note_off,,,,,0,0,13,,,,,5,,68,100
92160,note_on,,,,,64,0,14,,,,,5,,45,100
92160,note_on,,,,,64,0,10,,,,,2,,64,85
92160,note_on,,,,,64,0,12,,,,,4,,33,85
92160,note_on,,,,,0,0,13,,,,,5,,60,100
92160,note_on,,,,,64,0,13,,,,,5,,69,100
92160,note_on,,,,,0,0,13,,,,,5,,64,100
92160,note_on,,,,,64,0,11,,,,,3,,45,85
92160,note_on,,,,,64,0,8,,,,,0,,81,100
92160,note_on,,,,,64,0,9,,,,,1,,72,100
92252,note_off,,,,,92,0,8,,,,,0,,81,100
92256,note_on,,,,,4,0,8,,,,,0,,72,100
92288,note_off,,,,,128,0,9,,,,,1,,72,100
92288,note_off,,,,,128,0,14,,,,,5,,45,100
92288,note_off,,,,,128,0,11,,,,,3,,45,100
92288,note_off,,,,,0,0,13,,,,,5,,64,100
92288,note_off,,,,,0,0,13,,,,,5,,60,100
92288,note_off,,,,,128,0,13,,,,,5,,69,100
92288,note_off,,,,,128,0,12,,,,,4,,33,100
92348,note_off,,,,,92,0,8,,,,,0,,72,100
92352,note_on,,,,,64,0,13,,,,,5,,72,100
92352,note_on,,,,,0,0,13,,,,,5,,64,100
92352,note_on,,,,,64,0,11,,,,,3,,57,85
92352,note_on,,,,,64,0,12,,,,,4,,45,85
92352,note_on,,,,,64,0,9,,,,,1,,69,100
92352,note_on,,,,,64,0,14,,,,,5,,57,100
92352,note_on,,,,,4,0,8,,,,,0,,71,100
92416,note_off,,,,,256,0,10,,,,,2,,64,100
92444,note_off,,,,,92,0,8,,,,,0,,71,100
92448,note_on,,,,,4,0,8,,,,,0,,69,100
92480,note_off,,,,,0,0,13,,,,,5,,64,100
92480,note_off,,,,,128,0,13,,,,,5,,72,100
92480,note_off,,,,,128,0,9,,,,,1,,69,100
92480,note_off,,,,,128,0,12,,,,,4,,45,100
92480,note_off,,,,,128,0,11,,,,,3,,57,100
92480,note_off,,,,,128,0,14,,,,,5,,57,100
92512,note_off,,,,,64,0,8,,,,,0,,69,100
92544,note_on,,,,,0,0,13,,,,,5,,64,100
92544,note_on,,,,,64,0,12,,,,,4,,33,85
92544,note_on,,,,,64,0,11,,,,,3,,45,85
92544,note_on,,,,,32,0,8,,,,,0,,76,100
92544,note_on,,,,,64,0,13,,,,,5,,60,100
92544,note_on,,,,,64,0,14,,,,,5,,45,100
92636,note_off,,,,,92,0,8,,,,,0,,76,100
92640,note_on,,,,,4,0,8,,,,,0,,72,100
92672,note_off,,,,,0,0,13,,,,,5,,64,100
92672,note_off,,,,,128,0,13,,,,,5,,60,100
92672,note_off,,,,,128,0,14,,,,,5,,45,100
92672,note_off,,,,,128,0,12,,,,,4,,33,100
92672,note_off,,,,,128,0,11,,,,,3,,45,100
92732,note_off,,,,,92,0,8,,,,,0,,72,100
92736,note_on,,,,,64,0,13,,,,,5,,72,100
92736,note_on,,,,,64,0,11,,,,,3,,57,85
92736,note_on,,,,,64,0,14,,,,,5,,57,100
92736,note_on,,,,,4,0,8,,,,,0,,71,100
92736,note_on,,,,,64,0,12,,,,,4,,45,85
92736,note_on,,,,,0,0,13,,,,,5,,64,100
92828,note_off,,,,,92,0,8,,,,,0,,71,100
92832,note_on,,,,,4,0,8,,,,,0,,69,100
92864,note_off,,,,,128,0,12,,,,,4,,45,100
92864,note_off,,,,,128,0,14,,,,,5,,57,100
92864,note_off,,,,,128,0,11,,,,,3,,57,100
92864,note_off,,,,,0,0,13,,,,,5,,64,100
92864,note_off,,,,,128,0,13,,,,,5,,72,100
92896,note_off,,,,,64,0,8,,,,,0,,69,100
92928,note_on,,,,,32,0,8,,,,,0,,81,100
92928,note_on,,,,,512,0,10,,,,,2,,57,85
92928,note_on,,,,,448,0,9,,,,,1,,57,85
93020,note_off,,,,,92,0,8,,,,,0,,81,100
93024,note_on,,,,,4,0,8,,,,,0,,72,100
93116,note_off,,,,,92,0,8,,,,,0,,72,100
93120,note_on,,,,,256,0,14,,,,,5,,57,100
93120,note_on,,,,,0,0,13,,,,,5,,64,100
93120,note_on,,,,,256,0,13,,,,,5,,72,100
93120,note_on,,,,,256,0,11,,,,,3,,57,85
93120,note_on,,,,,4,0,8,,,,,0,,71,100
93120,note_on,,,,,256,0,12,,,,,4,,45,85
93184,note_off,,,,,256,0,10,,,,,2,,57,100
93184,note_off,,,,,256,0,9,,,,,1,,57,100
93212,note_off,,,,,92,0,8,,,,,0,,71,100
93216,note_on,,,,,4,0,8,,,,,0,,69,100
93248,note_off,,,,,128,0,12,,,,,4,,45,100
93248,note_off,,,,,128,0,14,,,,,5,,57,100
93248,note_off,,,,,128,0,13,,,,,5,,72,100
93248,note_off,,,,,0,0,13,,,,,5,,64,100
93248,note_off,,,,,128,0,11,,,,,3,,57,100
93280,note_off,,,,,64,0,8,,,,,0,,69,100
93312,note_on,,,,,32,0,8,,,,,0,,76,100
93312,note_on,,,,,64,0,12,,,,,4,,33,85
93312,note_on,,,,,64,0,14,,,,,5,,45,100
93312,note_on,,,,,64,0,13,,,,,5,,60,100
93312,note_on,,,,,0,0,13,,,,,5,,64,100
93312,note_on,,,,,64,0,11,,,,,3,,45,85
93404,note_off,,,,,92,0,8,,,,,0,,76,100
93408,note_on,,,,,4,0,8,,,,,0,,72,100
93440,note_off,,,,,0,0,13,,,,,5,,64,100
93440,note_off,,,,,128,0,12,,,,,4,,33,100
93440,note_off,,,,,128,0,14,,,,,5,,45,100
93440,note_off,,,,,128,0,13,,,,,5,,60,100
93440,note_off,,,,,128,0,11,,,,,3,,45,100
93500,note_off,,,,,92,0,8,,,,,0,,72,100
93504,note_on,,,,,64,0,13,,,,,5,,72,100
93504,note_on,,,,,64,0,11,,,,,3,,57,85
93504,note_on,,,,,64,0,14,,,,,5,,57,100
93504,note_on,,,,,4,0,8,,,,,0,,71,100
93504,note_on,,,,,0,0,13,,,,,5,,64,100
93504,note_on,,,,,64,0,12,,,,,4,,45,85
93596,note_off,,,,,92,0,8,,,,,0,,71,100
93600,note_on,,,,,4,0,8,,,,,0,,69,100
93632,note_off,,,,,128,0,11,,,,,3,,57,100
93632,note_off,,,,,128,0,14,,,,,5,,57,100
93632,note_off,,,,,128,0,12,,,,,4,,45,100
93632,note_off,,,,,128,0,13,,,,,5,,72,100
93632,note_off,,,,,0,0,13,,,,,5,,64,100
93664,note_off,,,,,64,0,8,,,,,0,,69,100
93696,note_on,,,,,512,0,9,,,,,1,,57,85
93696,note_on,,,,,32,0,8,,,,,0,,81,100
93696,note_on,,,,,512,0,10,,,,,2,,57,85
93788,note_off,,,,,92,0,8,,,,,0,,81,100
93792,note_on,,,,,4,0,8,,,,,0,,73,100
93884,note_off,,,,,92,0,8,,,,,0,,73,100
93888,note_on,,,,,256,0,14,,,,,5,,57,100
93888,note_on,,,,,256,0,12,,,,,4,,45,85
93888,note_on,,,,,4,0,8,,,,,0,,71,100
93888,note_on,,,,,0,0,13,,,,,5,,64,100
93888,note_on,,,,,256,0,11,,,,,3,,57,85
93888,note_on,,,,,256,0,13,,,,,5,,73,100
93952,note_off,,,,,256,0,10,,,,,2,,57,100
93952,note_off,,,,,256,0,9,,,,,1,,57,100
93980,note_off,,,,,92,0,8,,,,,0,,71,100
93984,note_on,,,,,4,0,8,,,,,0,,69,100
94016,note_off,,,,,128,0,12,,,,,4,,45,100
94016,note_off,,,,,128,0,13,,,,,5,,73,100
94016,note_off,,,,,128,0,11,,,,,3,,57,100
94016,note_off,,,,,0,0,13,,,,,5,,64,100
94016,note_off,,,,,128,0,14,,,,,5,,57,100
94048,note_off,,,,,64,0,8,,,,,0,,69,100
94080,note_on,,,,,32,0,8,,,,,0,,76,100
94080,note_on,,,,,64,0,11,,,,,3,,45,85
94080,note_on,,,,,64,0,12,,,,,4,,33,85
94080,note_on,,,,,64,0,13,,,,,5,,61,100
94080,note_on,,,,,0,0,13,,,,,5,,64,100
94080,note_on,,,,,64,0,14,,,,,5,,45,100
94172,note_off,,,,,92,0,8,,,,,0,,76,100
94176,note_on,,,,,4,0,8,,,,,0,,73,100
94208,note_off,,,,,128,0,12,,,,,4,,33,100
94208,note_off,,,,,128,0,13,,,,,5,,61,100
94208,note_off,,,,,0,0,13,,,,,5,,64,100
94208,note_off,,,,,128,0,14,,,,,5,,45,100
94208,note_off,,,,,128,0,11,,,,,3,,45,100
94268,note_off,,,,,92,0,8,,,,,0,,73,100
94272,note_on,,,,,64,0,11,,,,,3,,57,85
94272,note_on,,,,,0,0,13,,,,,5,,64,100
94272,note_on,,,,,64,0,13,,,,,5,,73,100
94272,note_on,,,,,64,0,12,,,,,4,,45,85
94272,note_on,,,,,64,0,14,,,,,5,,57,100
94272,note_on,,,,,4,0,8,,,,,0,,71,100
94364,note_off,,,,,92,0,8,,,,,0,,71,100
94368,note_on,,,,,4,0,8,,,,,0,,69,100
94400,note_off,,,,,0,0,13,,,,,5,,64,100
94400,note_off,,,,,128,0,13,,,,,5,,73,100
94400,note_off,,,,,128,0,14,,,,,5,,57,100
94400,note_off,,,,,128,0,12,,,,,4,,45,100
94400,note_off,,,,,128,0,11,,,,,3,,57,100
94432,note_off,,,,,64,0,8,,,,,0,,69,100
94464,note_on,,,,,512,0,9,,,,,1,,57,85
94464,note_on,,,,,512,0,10,,,,,2,,57,85
94464,note_on,,,,,32,0,8,,,,,0,,81,100
94556,note_off,,,,,92,0,8,,,,,0,,81,100
94560,note_on,,,,,4,0,8,,,,,0,,73,100
94652,note_off,,,,,92,0,8,,,,,0,,73,100
94656,note_on,,,,,256,0,13,,,,,5,,73,100
94656,note_on,,,,,4,0,8,,,,,0,,71,100
94656,note_on,,,,,0,0,13,,,,,5,,69,100
94656,note_on,,,,,256,0,11,,,,,3,,57,85
94656,note_on,,,,,256,0,12,,,,,4,,45,85
94656,note_on,,,,,256,0,14,,,,,5,,57,100
94720,note_off,,,,,256,0,10,,,,,2,,57,100
94720,note_off,,,,,256,0,9,,,,,1,,57,100
94748,note_off,,,,,92,0,8,,,,,0,,71,100
94752,note_on,,,,,4,0,8,,,,,0,,69,100
94784,note_off,,,,,128,0,12,,,,,4,,45,100
94784,note_off,,,,,0,0,13,,,,,5,,69,100
94784,note_off,,,,,128,0,13,,,,,5,,73,100
94784,note_off,,,,,128,0,14,,,,,5,,57,100
94784,note_off,,,,,128,0,11,,,,,3,,57,100
94816,note_off,,,,,64,0,8,,,,,0,,69,100
94848,note_on,,,,,64,0,13,,,,,5,,76,100
94848,note_on,,,,,0,0,13,,,,,5,,73,100
94848,note_on,,,,,32,0,8,,,,,0,,81,100
94848,note_on,,,,,64,0,14,,,,,5,,61,100
94848,note_on,,,,,64,0,12,,,,,4,,49,85
94848,note_on,,,,,64,0,11,,,,,3,,61,85
94940,note_off,,,,,92,0,8,,,,,0,,81,100
94944,note_on,,,,,4,0,8,,,,,0,,79,100
94976,note_off,,,,,128,0,14,,,,,5,,61,100
94976,note_off,,,,,0,0,13,,,,,5,,73,100
94976,note_off,,,,,128,0,13,,,,,5,,76,100
94976,note_off,,,,,128,0,12,,,,,4,,49,100
94976,note_off,,,,,128,0,11,,,,,3,,61,100
95036,note_off,,,,,92,0,8,,,,,0,,79,100
95040,note_on,,,,,64,0,11,,,,,3,,57,85
95040,note_on,,,,,64,0,13,,,,,5,,69,100
95040,note_on,,,,,0,0,13,,,,,5,,73,100
95040,note_on,,,,,64,0,14,,,,,5,,57,100
95040,note_on,,,,,4,0,8,,,,,0,,78,100
95040,note_on,,,,,64,0,12,,,,,4,,45,85
95132,note_off,,,,,92,0,8,,,,,0,,78,100
95136,note_on,,,,,4,0,8,,,,,0,,76,100
95168,note_off,,,,,128,0,14,,,,,5,,57,100
95168,note_off,,,,,128,0,13,,,,,5,,69,100
95168,note_off,,,,,0,0,13,,,,,5,,73,100
95168,note_off,,,,,128,0,11,,,,,3,,57,100
95168,note_off,,,,,128,0,12,,,,,4,,45,100
95200,note_off,,,,,64,0,8,,,,,0,,76,100
95232,note_on,,,,,32,0,8,,,,,0,,78,100
95232,note_on,,,,,512,0,10,,,,,2,,62,85
95232,note_on,,,,,512,0,9,,,,,1,,62,85
95324,note_off,,,,,92,0,8,,,,,0,,78,100
95328,note_on,,,,,4,0,8,,,,,0,,66,100
95420,note_off,,,,,92,0,8,,,,,0,,66,100
95424,note_on,,,,,0,0,13,,,,,5,,74,100
95424,note_on,,,,,256,0,14,,,,,5,,62,100
95424,note_on,,,,,256,0,13,,,,,5,,66,100
95424,note_on,,,,,256,0,12,,,,,4,,50,85
95424,note_on,,,,,4,0,8,,,,,0,,64,100
95424,note_on,,,,,256,0,11,,,,,3,,62,85
95488,note_off,,,,,256,0,10,,,,,2,,62,100
95488,note_off,,,,,256,0,9,,,,,1,,62,100
95516,note_off,,,,,92,0,8,,,,,0,,64,100
95520,note_on,,,,,4,0,8,,,,,0,,62,100
95552,note_off,,,,,128,0,11,,,,,3,,62,100
95552,note_off,,,,,128,0,12,,,,,4,,50,100
95552,note_off,,,,,0,0,13,,,,,5,,74,100
95552,note_off,,,,,128,0,13,,,,,5,,66,100
95552,note_off,,,,,128,0,14,,,,,5,,62,100
95584,note_off,,,,,64,0,8,,,,,0,,62,100
95616,note_on,,,,,64,0,11,,,,,3,,50,84
95616,note_on,,,,,0,0,13,,,,,5,,66,100
95616,note_on,,,,,64,0,12,,,,,4,,38,84
95616,note_on,,,,,64,0,14,,,,,5,,50,100
95616,note_on,,,,,32,0,8,,,,,0,,69,100
95616,note_on,,,,,64,0,13,,,,,5,,62,100
95708,note_off,,,,,92,0,8,,,,,0,,69,100
95712,note_on,,,,,4,0,8,,,,,0,,66,100
95744,note_off,,,,,128,0,14,,,,,5,,50,100
95744,note_off,,,,,128,0,12,,,,,4,,38,100
95744,note_off,,,,,128,0,11,,,,,3,,50,100
95744,note_off,,,,,128,0,13,,,,,5,,62,100
95744,note_off,,,,,0,0,13,,,,,5,,66,100
95804,note_off,,,,,92,0,8,,,,,0,,66,100
95808,note_on,,,,,64,0,12,,,,,4,,50,84
95808,note_on,,,,,4,0,8,,,,,0,,64,100
95808,note_on,,,,,0,0,13,,,,,5,,66,100
95808,note_on,,,,,64,0,14,,,,,5,,62,100
95808,note_on,,,,,64,0,13,,,,,5,,74,100
95808,note_on,,,,,64,0,11,,,,,3,,62,84
95900,note_off,,,,,92,0,8,,,,,0,,64,100
95904,note_on,,,,,4,0,8,,,,,0,,62,100
95936,note_off,,,,,128,0,13,,,,,5,,74,100
95936,note_off,,,,,0,0,13,,,,,5,,66,100
95936,note_off,,,,,128,0,14,,,,,5,,62,100
95936,note_off,,,,,128,0,12,,,,,4,,50,100
95936,note_off,,,,,128,0,11,,,,,3,,62,100
95968,note_off,,,,,64,0,8,,,,,0,,62,100
96000,note_on,,,,,32,0,8,,,,,0,,74,100
96000,note_on,,,,,512,0,10,,,,,2,,62,83
96000,note_on,,,,,512,0,9,,,,,1,,62,83
96092,note_off,,,,,92,0,8,,,,,0,,74,100
96096,note_on,,,,,4,0,8,,,,,0,,66,100
96188,note_off,,,,,92,0,8,,,,,0,,66,100
96192,note_on,,,,,256,0,13,,,,,5,,66,100
96192,note_on,,,,,0,0,13,,,,,5,,74,100
96192,note_on,,,,,256,0,11,,,,,3,,62,82
96192,note_on,,,,,4,0,8,,,,,0,,64,100
96192,note_on,,,,,256,0,14,,,,,5,,62,100
96192,note_on,,,,,256,0,12,,,,,4,,50,82
96256,note_off,,,,,256,0,9,,,,,1,,62,100
96256,note_off,,,,,256,0,10,,,,,2,,62,100
96284,note_off,,,,,92,0,8,,,,,0,,64,100
96288,note_on,,,,,4,0,8,,,,,0,,62,100
96320,note_off,,,,,0,0,13,,,,,5,,74,100
96320,note_off,,,,,128,0,13,,,,,5,,66,100
96320,note_off,,,,,128,0,11,,,,,3,,62,100
96320,note_off,,,,,128,0,12,,,,,4,,50,100
96320,note_off,,,,,128,0,14,,,,,5,,62,100
96352,note_off,,,,,64,0,8,,,,,0,,62,100
96384,note_on,,,,,64,0,14,,,,,5,,50,100
96384,note_on,,,,,64,0,11,,,,,3,,50,82
96384,note_on,,,,,0,0,13,,,,,5,,66,100
96384,note_on,,,,,64,0,13,,,,,5,,62,100
96384,note_on,,,,,32,0,8,,,,,0,,69,100
96384,note_on,,,,,64,0,12,,,,,4,,38,82
96476,note_off,,,,,92,0,8,,,,,0,,69,100
96480,note_on,,,,,4,0,8,,,,,0,,66,100
96512,note_off,,,,,128,0,13,,,,,5,,62,100
96512,note_off,,,,,128,0,11,,,,,3,,50,100
96512,note_off,,,,,128,0,14,,,,,5,,50,100
96512,note_off,,,,,0,0,13,,,,,5,,66,100
96512,note_off,,,,,128,0,12,,,,,4,,38,100
96572,note_off,,,,,92,0,8,,,,,0,,66,100
96576,note_on,,,,,64,0,12,,,,,4,,50,81
96576,note_on,,,,,64,0,14,,,,,5,,62,100
96576,note_on,,,,,4,0,8,,,,,0,,64,100
96576,note_on,,,,,64,0,11,,,,,3,,62,81
96576,note_on,,,,,0,0,13,,,,,5,,66,100
96576,note_on,,,,,64,0,13,,,,,5,,74,100
96668,note_off,,,,,92,0,8,,,,,0,,64,100
96672,note_on,,,,,4,0,8,,,,,0,,62,100
96704,note_off,,,,,128,0,11,,,,,3,,62,100
96704,note_off,,,,,0,0,13,,,,,5,,66,100
96704,note_off,,,,,128,0,13,,,,,5,,74,100
96704,note_off,,,,,128,0,12,,,,,4,,50,100
96704,note_off,,,,,128,0,14,,,,,5,,62,100
96736,note_off,,,,,64,0,8,,,,,0,,62,100
96768,note_on,,,,,512,0,10,,,,,2,,62,81
96768,note_on,,,,,32,0,8,,,,,0,,74,100
96768,note_on,,,,,512,0,9,,,,,1,,62,81
96860,note_off,,,,,92,0,8,,,,,0,,74,100
96864,note_on,,,,,4,0,8,,,,,0,,66,100
96956,note_off,,,,,92,0,8,,,,,0,,66,100
96960,note_on,,,,,256,0,13,,,,,5,,69,100
96960,note_on,,,,,0,0,13,,,,,5,,66,100
96960,note_on,,,,,4,0,8,,,,,0,,64,100
96960,note_on,,,,,256,0,14,,,,,5,,50,100
96960,note_on,,,,,256,0,12,,,,,4,,38,80
96960,note_on,,,,,256,0,11,,,,,3,,50,80
97024,note_off,,,,,256,0,9,,,,,1,,62,100
97024,note_off,,,,,256,0,10,,,,,2,,62,100
97052,note_off,,,,,92,0,8,,,,,0,,64,100
97056,note_on,,,,,4,0,8,,,,,0,,62,100
97088,note_off,,,,,128,0,13,,,,,5,,69,100
97088,note_off,,,,,0,0,13,,,,,5,,66,100
97088,note_off,,,,,128,0,11,,,,,3,,50,100
97088,note_off,,,,,128,0,14,,,,,5,,50,100
97088,note_off,,,,,128,0,12,,,,,4,,38,100
97120,note_off,,,,,64,0,8,,,,,0,,62,100
97152,note_on,,,,,32,0,8,,,,,0,,74,100
97152,note_on,,,,,64,0,14,,,,,5,,54,100
97152,note_on,,,,,0,0,13,,,,,5,,69,100
97152,note_on,,,,,64,0,11,,,,,3,,54,79
97152,note_on,,,,,64,0,12,,,,,4,,42,79
97152,note_on,,,,,64,0,13,,,,,5,,74,100
97244,note_off,,,,,92,0,8,,,,,0,,74,100
97248,note_on,,,,,4,0,8,,,,,0,,72,100
97280,note_off,,,,,128,0,13,,,,,5,,74,100
97280,note_off,,,,,128,0,14,,,,,5,,54,100
97280,note_off,,,,,128,0,12,,,,,4,,42,100
97280,note_off,,,,,128,0,11,,,,,3,,54,100
97280,note_off,,,,,0,0,13,,,,,5,,69,100
97340,note_off,,,,,92,0,8,,,,,0,,72,100
97344,note_on,,,,,4,0,8,,,,,0,,71,100
97344,note_on,,,,,64,0,14,,,,,5,,50,100
97344,note_on,,,,,64,0,11,,,,,3,,50,79
97344,note_on,,,,,0,0,13,,,,,5,,69,100
97344,note_on,,,,,64,0,13,,,,,5,,66,100
97344,note_on,,,,,64,0,12,,,,,4,,38,79
97436,note_off,,,,,92,0,8,,,,,0,,71,100
97440,note_on,,,,,4,0,8,,,,,0,,69,100
97472,note_off,,,,,128,0,14,,,,,5,,50,100
97472,note_off,,,,,128,0,11,,,,,3,,50,100
97472,note_off,,,,,0,0,13,,,,,5,,69,100
97472,note_off,,,,,128,0,13,,,,,5,,66,100
97472,note_off,,,,,128,0,12,,,,,4,,38,100
97504,note_off,,,,,64,0,8,,,,,0,,69,100
97536,note_on,,,,,512,0,9,,,,,1,,55,78
97536,note_on,,,,,32,0,8,,,,,0,,71,100
97536,note_on,,,,,512,0,10,,,,,2,,55,78
97628,note_off,,,,,92,0,8,,,,,0,,71,100
97632,note_on,,,,,4,0,8,,,,,0,,59,100
97724,note_off,,,,,92,0,8,,,,,0,,59,100
97728,note_on,,,,,256,0,14,,,,,5,,55,100
97728,note_on,,,,,4,0,8,,,,,0,,57,100
97728,note_on,,,,,256,0,13,,,,,5,,62,100
97728,note_on,,,,,256,0,12,,,,,4,,43,77
97728,note_on,,,,,256,0,11,,,,,3,,55,77
97728,note_on,,,,,0,0,13,,,,,5,,71,100
97792,note_off,,,,,256,0,9,,,,,1,,55,100
97792,note_off,,,,,256,0,10,,,,,2,,55,100
97820,note_off,,,,,92,0,8,,,,,0,,57,100
97824,note_on,,,,,4,0,8,,,,,0,,55,99
97856,note_off,,,,,128,0,13,,,,,5,,62,100
97856,note_off,,,,,0,0,13,,,,,5,,71,100
97856,note_off,,,,,128,0,12,,,,,4,,43,100
97856,note_off,,,,,128,0,14,,,,,5,,55,100
97856,note_off,,,,,128,0,11,,,,,3,,55,100
97888,note_off,,,,,64,0,8,,,,,0,,55,100
97920,note_on,,,,,32,0,8,,,,,0,,62,99
97920,note_on,,,,,64,0,12,,,,,4,,43,77
97920,note_on,,,,,64,0,11,,,,,3,,43,77
97920,note_on,,,,,0,0,13,,,,,5,,62,100
97920,note_on,,,,,64,0,13,,,,,5,,59,100
97920,note_on,,,,,64,0,14,,,,,5,,43,100
98012,note_off,,,,,92,0,8,,,,,0,,62,100
98016,note_on,,,,,4,0,8,,,,,0,,59,98
98048,note_off,,,,,128,0,11,,,,,3,,43,100
98048,note_off,,,,,128,0,14,,,,,5,,43,100
98048,note_off,,,,,0,0,13,,,,,5,,62,100
98048,note_off,,,,,128,0,12,,,,,4,,43,100
98048,note_off,,,,,128,0,13,,,,,5,,59,100
98108,note_off,,,,,92,0,8,,,,,0,,59,100
98112,note_on,,,,,64,0,13,,,,,5,,71,100
98112,note_on,,,,,64,0,11,,,,,3,,55,76
98112,note_on,,,,,64,0,12,,,,,4,,43,76
98112,note_on,,,,,64,0,14,,,,,5,,55,100
98112,note_on,,,,,4,0,8,,,,,0,,57,98
98112,note_on,,,,,0,0,13,,,,,5,,62,100
98204,note_off,,,,,92,0,8,,,,,0,,57,100
98208,note_on,,,,,4,0,8,,,,,0,,55,98
98240,note_off,,,,,128,0,11,,,,,3,,55,100
98240,note_off,,,,,128,0,12,,,,,4,,43,100
98240,note_off,,,,,128,0,13,,,,,5,,71,100
98240,note_off,,,,,0,0,13,,,,,5,,62,100
98240,note_off,,,,,128,0,14,,,,,5,,55,100
98272,note_off,,,,,64,0,8,,,,,0,,55,100
98304,note_on,,,,,512,0,9,,,,,1,,55,76
98304,note_on,,,,,512,0,10,,,,,2,,55,76
98304,note_on,,,,,32,0,8,,,,,0,,67,97
98396,note_off,,,,,92,0,8,,,,,0,,67,100
98400,note_on,,,,,4,0,8,,,,,0,,59,97
98492,note_off,,,,,92,0,8,,,,,0,,59,100
98496,note_on,,,,,256,0,11,,,,,3,,55,75
98496,note_on,,,,,0,0,13,,,,,5,,71,100
98496,note_on,,,,,256,0,12,,,,,4,,43,75
98496,note_on,,,,,256,0,13,,,,,5,,62,100
98496,note_on,,,,,256,0,14,,,,,5,,55,100
98496,note_on,,,,,4,0,8,,,,,0,,57,96
98560,note_off,,,,,256,0,9,,,,,1,,55,100
98560,note_off,,,,,256,0,10,,,,,2,,55,100
98588,note_off,,,,,92,0,8,,,,,0,,57,100
98592,note_on,,,,,4,0,8,,,,,0,,55,96
98624,note_off,,,,,128,0,12,,,,,4,,43,100
98624,note_off,,,,,128,0,11,,,,,3,,55,100
98624,note_off,,,,,0,0,13,,,,,5,,71,100
98624,note_off,,,,,128,0,14,,,,,5,,55,100
98624,note_off,,,,,128,0,13,,,,,5,,62,100
98656,note_off,,,,,64,0,8,,,,,0,,55,100
98688,note_on,,,,,64,0,12,,,,,4,,43,74
98688,note_on,,,,,64,0,11,,,,,3,,43,74
98688,note_on,,,,,32,0,8,,,,,0,,62,96
98688,note_on,,,,,0,0,13,,,,,5,,62,100
98688,note_on,,,,,64,0,13,,,,,5,,59,100
98688,note_on,,,,,64,0,14,,,,,5,,43,100
98780,note_off,,,,,92,0,8,,,,,0,,62,100
98784,note_on,,,,,4,0,8,,,,,0,,59,95
98816,note_off,,,,,128,0,14,,,,,5,,43,100
98816,note_off,,,,,128,0,12,,,,,4,,43,100
98816,note_off,,,,,128,0,13,,,,,5,,59,100
98816,note_off,,,,,128,0,11,,,,,3,,43,100
98816,note_off,,,,,0,0,13,,,,,5,,62,100
98876,note_off,,,,,92,0,8,,,,,0,,59,100
98880,note_on,,,,,4,0,8,,,,,0,,57,95
98880,note_on,,,,,64,0,13,,,,,5,,71,100
98880,note_on,,,,,0,0,13,,,,,5,,62,100
98880,note_on,,,,,64,0,11,,,,,3,,55,74
98880,note_on,,,,,64,0,14,,,,,5,,55,100
98880,note_on,,,,,64,0,12,,,,,4,,43,74
98972,note_off,,,,,92,0,8,,,,,0,,57,100
98976,note_on,,,,,4,0,8,,,,,0,,55,94
99008,note_off,,,,,128,0,11,,,,,3,,55,100
99008,note_off,,,,,0,0,13,,,,,5,,62,100
99008,note_off,,,,,128,0,13,,,,,5,,71,100
99008,note_off,,,,,128,0,12,,,,,4,,43,100
99008,note_off,,,,,128,0,14,,,,,5,,55,100
99040,note_off,,,,,64,0,8,,,,,0,,55,100
99072,note_on,,,,,512,0,10,,,,,2,,55,73
99072,note_on,,,,,32,0,8,,,,,0,,67,94
99072,note_on,,,,,512,0,9,,,,,1,,55,73
99164,note_off,,,,,92,0,8,,,,,0,,67,100
99168,note_on,,,,,4,0,8,,,,,0,,59,93
99260,note_off,,,,,92,0,8,,,,,0,,59,100
99264,note_on,,,,,256,0,14,,,,,5,,43,100
99264,note_on,,,,,0,0,13,,,,,5,,59,100
99264,note_on,,,,,256,0,13,,,,,5,,62,100
99264,note_on,,,,,256,0,12,,,,,4,,43,72
99264,note_on,,,,,4,0,8,,,,,0,,57,93
99264,note_on,,,,,256,0,11,,,,,3,,43,72
99328,note_off,,,,,256,0,10,,,,,2,,55,100
99328,note_off,,,,,256,0,9,,,,,1,,55,100
99356,note_off,,,,,92,0,8,,,,,0,,57,100
99360,note_on,,,,,4,0,8,,,,,0,,55,93
99392,note_off,,,,,128,0,12,,,,,4,,43,100
99392,note_off,,,,,128,0,13,,,,,5,,62,100
99392,note_off,,,,,128,0,11,,,,,3,,43,100
99392,note_off,,,,,128,0,14,,,,,5,,43,100
99392,note_off,,,,,0,0,13,,,,,5,,59,100
99424,note_off,,,,,64,0,8,,,,,0,,55,100
99456,note_on,,,,,32,0,8,,,,,0,,67,92
99456,note_on,,,,,0,0,13,,,,,5,,62,100
99456,note_on,,,,,64,0,12,,,,,4,,35,72
99456,note_on,,,,,64,0,14,,,,,5,,47,100
99456,note_on,,,,,64,0,13,,,,,5,,67,100
99456,note_on,,,,,64,0,11,,,,,3,,47,72
99548,note_off,,,,,92,0,8,,,,,0,,67,100
99552,note_on,,,,,4,0,8,,,,,0,,65,92
99584,note_off,,,,,128,0,13,,,,,5,,67,100
99584,note_off,,,,,0,0,13,,,,,5,,62,100
99584,note_off,,,,,128,0,14,,,,,5,,47,100
99584,note_off,,,,,128,0,12,,,,,4,,35,100
99584,note_off,,,,,128,0,11,,,,,3,,47,100
99644,note_off,,,,,92,0,8,,,,,0,,65,100
99648,note_on,,,,,0,0,13,,,,,5,,62,100
99648,note_on,,,,,64,0,12,,,,,4,,43,71
99648,note_on,,,,,64,0,14,,,,,5,,43,100
99648,note_on,,,,,64,0,13,,,,,5,,59,100
99648,note_on,,,,,4,0,8,,,,,0,,64,91
99648,note_on,,,,,64,0,11,,,,,3,,43,71
99740,note_off,,,,,92,0,8,,,,,0,,64,100
99744,note_on,,,,,4,0,8,,,,,0,,62,91
99776,note_off,,,,,0,0,13,,,,,5,,62,100
99776,note_off,,,,,128,0,13,,,,,5,,59,100
99776,note_off,,,,,128,0,14,,,,,5,,43,100
99776,note_off,,,,,128,0,11,,,,,3,,43,100
99776,note_off,,,,,128,0,12,,,,,4,,43,100
99808,note_off,,,,,64,0,8,,,,,0,,62,100
99840,note_on,,,,,32,0,8,,,,,0,,64,91
99840,note_on,,,,,512,0,10,,,,,2,,60,70
99840,note_on,,,,,512,0,9,,,,,1,,60,70
99932,note_off,,,,,92,0,8,,,,,0,,64,100
99936,note_on,,,,,4,0,8,,,,,0,,67,85
100028,note_off,,,,,92,0,8,,,,,0,,67,100
100032,note_on,,,,,256,0,14,,,,,5,,60,100
100032,note_on,,,,,4,0,8,,,,,0,,65,85
100032,note_on,,,,,256,0,12,,,,,4,,48,70
100032,note_on,,,,,256,0,13,,,,,5,,64,100
100032,note_on,,,,,0,0,13,,,,,5,,67,100
100032,note_on,,,,,256,0,11,,,,,3,,60,70
100096,note_off,,,,,256,0,10,,,,,2,,60,100
100096,note_off,,,,,256,0,9,,,,,1,,60,100
100124,note_off,,,,,92,0,8,,,,,0,,65,100
100128,note_on,,,,,4,0,8,,,,,0,,64,85
100160,note_off,,,,,128,0,13,,,,,5,,64,100
100160,note_off,,,,,0,0,13,,,,,5,,67,100
100160,note_off,,,,,128,0,14,,,,,5,,60,100
100160,note_off,,,,,128,0,11,,,,,3,,60,100
100160,note_off,,,,,128,0,12,,,,,4,,48,100
100192,note_off,,,,,64,0,8,,,,,0,,64,100
100224,note_on,,,,,64,0,13,,,,,5,,60,100
100224,note_on,,,,,0,0,13,,,,,5,,64,100
100224,note_on,,,,,64,0,14,,,,,5,,52,100
100224,note_on,,,,,32,0,8,,,,,0,,72,86
100224,note_on,,,,,64,0,11,,,,,3,,52,71
100224,note_on,,,,,64,0,12,,,,,4,,40,71
100316,note_off,,,,,92,0,8,,,,,0,,72,100
100320,note_on,,,,,4,0,8,,,,,0,,67,86
100352,note_off,,,,,128,0,11,,,,,3,,52,100
100352,note_off,,,,,128,0,14,,,,,5,,52,100
100352,note_off,,,,,128,0,13,,,,,5,,60,100
100352,note_off,,,,,128,0,12,,,,,4,,40,100
100352,note_off,,,,,0,0,13,,,,,5,,64,100
100412,note_off,,,,,92,0,8,,,,,0,,67,100
100416,note_on,,,,,64,0,14,,,,,5,,48,100
100416,note_on,,,,,64,0,13,,,,,5,,64,100
100416,note_on,,,,,4,0,8,,,,,0,,65,87
100416,note_on,,,,,0,0,13,,,,,5,,55,100
100416,note_on,,,,,64,0,11,,,,,3,,48,71
100416,note_on,,,,,64,0,12,,,,,4,,36,71
100508,note_off,,,,,92,0,8,,,,,0,,65,100
100512,note_on,,,,,4,0,8,,,,,0,,64,87
100544,note_off,,,,,128,0,14,,,,,5,,48,100
100544,note_off,,,,,128,0,12,,,,,4,,36,100
100544,note_off,,,,,128,0,11,,,,,3,,48,100
100544,note_off,,,,,128,0,13,,,,,5,,64,100
100544,note_off,,,,,0,0,13,,,,,5,,55,100
100576,note_off,,,,,64,0,8,,,,,0,,64,100
100608,note_on,,,,,512,0,9,,,,,1,,65,72
100608,note_on,,,,,32,0,8,,,,,0,,72,88
100608,note_on,,,,,512,0,10,,,,,2,,65,72
100700,note_off,,,,,92,0,8,,,,,0,,72,100
100704,note_on,,,,,4,0,8,,,,,0,,69,88
100796,note_off,,,,,92,0,8,,,,,0,,69,100
100800,note_on,,,,,4,0,8,,,,,0,,67,89
100800,note_on,,,,,256,0,12,,,,,4,,45,73
100800,note_on,,,,,0,0,13,,,,,5,,60,100
100800,note_on,,,,,256,0,14,,,,,5,,57,100
100800,note_on,,,,,256,0,11,,,,,3,,57,73
100800,note_on,,,,,256,0,13,,,,,5,,65,100
100864,note_off,,,,,256,0,10,,,,,2,,65,100
100864,note_off,,,,,256,0,9,,,,,1,,65,100
100892,note_off,,,,,92,0,8,,,,,0,,67,100
100896,note_on,,,,,4,0,8,,,,,0,,65,89
100928,note_off,,,,,0,0,13,,,,,5,,60,100
100928,note_off,,,,,128,0,13,,,,,5,,65,100
100928,note_off,,,,,128,0,11,,,,,3,,57,100
100928,note_off,,,,,128,0,12,,,,,4,,45,100
100928,note_off,,,,,128,0,14,,,,,5,,57,100
100960,note_off,,,,,64,0,8,,,,,0,,65,100
100992,note_on,,,,,64,0,14,,,,,5,,54,100
100992,note_on,,,,,64,0,12,,,,,4,,42,73
100992,note_on,,,,,0,0,13,,,,,5,,57,100
100992,note_on,,,,,64,0,13,,,,,5,,62,100
100992,note_on,,,,,64,0,11,,,,,3,,54,73
100992,note_on,,,,,32,0,8,,,,,0,,74,89
101084,note_off,,,,,92,0,8,,,,,0,,74,100
101088,note_on,,,,,4,0,8,,,,,0,,69,90
101120,note_off,,,,,128,0,13,,,,,5,,62,100
101120,note_off,,,,,128,0,11,,,,,3,,54,100
101120,note_off,,,,,0,0,13,,,,,5,,57,100
101120,note_off,,,,,128,0,14,,,,,5,,54,100
101120,note_off,,,,,128,0,12,,,,,4,,42,100
101180,note_off,,,,,92,0,8,,,,,0,,69,100
101184,note_on,,,,,64,0,13,,,,,5,,54,100
101184,note_on,,,,,0,0,13,,,,,5,,57,100
101184,note_on,,,,,4,0,8,,,,,0,,67,90
101184,note_on,,,,,64,0,11,,,,,3,,50,74
101184,note_on,,,,,64,0,14,,,,,5,,50,100
101184,note_on,,,,,64,0,12,,,,,4,,38,74
101276,note_off,,,,,92,0,8,,,,,0,,67,100
101280,note_on,,,,,4,0,8,,,,,0,,66,91
101312,note_off,,,,,128,0,14,,,,,5,,50,100
101312,note_off,,,,,0,0,13,,,,,5,,57,100
101312,note_off,,,,,128,0,13,,,,,5,,54,100
101312,note_off,,,,,128,0,12,,,,,4,,38,100
101312,note_off,,,,,128,0,11,,,,,3,,50,100
101344,note_off,,,,,64,0,8,,,,,0,,66,100
101376,note_on,,,,,512,0,10,,,,,2,,67,74
101376,note_on,,,,,512,0,9,,,,,1,,67,74
101376,note_on,,,,,32,0,8,,,,,0,,74,91
101468,note_off,,,,,92,0,8,,,,,0,,74,100
101472,note_on,,,,,4,0,8,,,,,0,,71,92
101564,note_off,,,,,92,0,8,,,,,0,,71,100
101568,note_on,,,,,256,0,11,,,,,3,,59,75
101568,note_on,,,,,4,0,8,,,,,0,,69,92
101568,note_on,,,,,256,0,12,,,,,4,,47,75
101568,note_on,,,,,256,0,14,,,,,5,,59,100
101568,note_on,,,,,0,0,13,,,,,5,,67,100
101568,note_on,,,,,256,0,13,,,,,5,,62,100
101632,note_off,,,,,256,0,9,,,,,1,,67,100
101632,note_off,,,,,256,0,10,,,,,2,,67,100
101660,note_off,,,,,92,0,8,,,,,0,,69,100
101664,note_on,,,,,4,0,8,,,,,0,,67,93
101696,note_off,,,,,128,0,11,,,,,3,,59,100
101696,note_off,,,,,128,0,14,,,,,5,,59,100
101696,note_off,,,,,128,0,13,,,,,5,,62,100
101696,note_off,,,,,0,0,13,,,,,5,,67,100
101696,note_off,,,,,128,0,12,,,,,4,,47,100
101728,note_off,,,,,64,0,8,,,,,0,,67,100
101760,note_on,,,,,64,0,14,,,,,5,,56,100
101760,note_on,,,,,64,0,12,,,,,4,,44,76
101760,note_on,,,,,32,0,8,,,,,0,,76,93
101760,note_on,,,,,64,0,11,,,,,3,,56,76
101760,note_on,,,,,0,0,13,,,,,5,,59,100
101760,note_on,,,,,64,0,13,,,,,5,,64,100
101852,note_off,,,,,92,0,8,,,,,0,,76,100
101856,note_on,,,,,4,0,8,,,,,0,,71,94
101888,note_off,,,,,128,0,14,,,,,5,,56,100
101888,note_off,,,,,128,0,12,,,,,4,,44,100
101888,note_off,,,,,128,0,13,,,,,5,,64,100
101888,note_off,,,,,128,0,11,,,,,3,,56,100
101888,note_off,,,,,0,0,13,,,,,5,,59,100
101948,note_off,,,,,92,0,8,,,,,0,,71,100
101952,note_on,,,,,4,0,8,,,,,0,,69,94
101952,note_on,,,,,0,0,13,,,,,5,,59,100
101952,note_on,,,,,64,0,11,,,,,3,,52,76
101952,note_on,,,,,64,0,14,,,,,5,,52,100
101952,note_on,,,,,64,0,12,,,,,4,,40,76
101952,note_on,,,,,64,0,13,,,,,5,,56,100
102044,note_off,,,,,92,0,8,,,,,0,,69,100
102048,note_on,,,,,4,0,8,,,,,0,,68,94
102080,note_off,,,,,128,0,14,,,,,5,,52,100
102080,note_off,,,,,128,0,13,,,,,5,,56,100
102080,note_off,,,,,128,0,12,,,,,4,,40,100
102080,note_off,,,,,128,0,11,,,,,3,,52,100
102080,note_off,,,,,0,0,13,,,,,5,,59,100
102112,note_off,,,,,64,0,8,,,,,0,,68,100
102144,note_on,,,,,512,0,9,,,,,1,,69,77
102144,note_on,,,,,512,0,10,,,,,2,,69,77
102144,note_on,,,,,32,0,8,,,,,0,,76,95
102236,note_off,,,,,92,0,8,,,,,0,,76,100
102240,note_on,,,,,4,0,8,,,,,0,,72,95
102332,note_off,,,,,92,0,8,,,,,0,,72,100
102336,note_on,,,,,256,0,12,,,,,4,,48,78
102336,note_on,,,,,0,0,13,,,,,5,,69,100
102336,note_on,,,,,256,0,13,,,,,5,,64,100
102336,note_on,,,,,256,0,11,,,,,3,,60,78
102336,note_on,,,,,4,0,8,,,,,0,,71,96
102336,note_on,,,,,256,0,14,,,,,5,,60,100
102400,note_off,,,,,256,0,9,,,,,1,,69,100
102400,note_off,,,,,256,0,10,,,,,2,,69,100
102428,note_off,,,,,92,0,8,,,,,0,,71,100
102432,note_on,,,,,4,0,8,,,,,0,,69,96
102464,note_off,,,,,128,0,13,,,,,5,,64,100
102464,note_off,,,,,128,0,14,,,,,5,,60,100
102464,note_off,,,,,0,0,13,,,,,5,,69,100
102464,note_off,,,,,128,0,11,,,,,3,,60,100
102464,note_off,,,,,128,0,12,,,,,4,,48,100
102496,note_off,,,,,64,0,8,,,,,0,,69,100
102528,note_on,,,,,64,0,13,,,,,5,,65,100
102528,note_on,,,,,0,0,13,,,,,5,,60,100
102528,note_on,,,,,64,0,11,,,,,3,,57,78
102528,note_on,,,,,32,0,8,,,,,0,,77,97
102528,note_on,,,,,64,0,14,,,,,5,,57,100
102528,note_on,,,,,64,0,12,,,,,4,,45,78
102620,note_off,,,,,92,0,8,,,,,0,,77,100
102624,note_on,,,,,4,0,8,,,,,0,,72,97
102656,note_off,,,,,128,0,12,,,,,4,,45,100
102656,note_off,,,,,128,0,11,,,,,3,,57,100
102656,note_off,,,,,128,0,14,,,,,5,,57,100
102656,note_off,,,,,128,0,13,,,,,5,,65,100
102656,note_off,,,,,0,0,13,,,,,5,,60,100
102716,note_off,,,,,92,0,8,,,,,0,,72,100
102720,note_on,,,,,64,0,14,,,,,5,,53,100
102720,note_on,,,,,4,0,8,,,,,0,,71,98
102720,note_on,,,,,0,0,13,,,,,5,,60,100
102720,note_on,,,,,64,0,11,,,,,3,,53,79
102720,note_on,,,,,64,0,12,,,,,4,,41,79
102720,note_on,,,,,64,0,13,,,,,5,,57,100
102812,note_off,,,,,92,0,8,,,,,0,,71,100
102816,note_on,,,,,4,0,8,,,,,0,,69,98
102848,note_off,,,,,128,0,13,,,,,5,,57,100
102848,note_off,,,,,128,0,12,,,,,4,,41,100
102848,note_off,,,,,128,0,11,,,,,3,,53,100
102848,note_off,,,,,128,0,14,,,,,5,,53,100
102848,note_off,,,,,0,0,13,,,,,5,,60,100
102880,note_off,,,,,64,0,8,,,,,0,,69,100
102912,note_on,,,,,32,0,8,,,,,0,,77,99
102912,note_on,,,,,512,0,9,,,,,1,,71,79
102912,note_on,,,,,512,0,10,,,,,2,,71,79
103004,note_off,,,,,92,0,8,,,,,0,,77,100
103008,note_on,,,,,4,0,8,,,,,0,,74,99
103100,note_off,,,,,92,0,8,,,,,0,,74,100
103104,note_on,,,,,4,0,8,,,,,0,,72,99
103104,note_on,,,,,256,0,14,,,,,5,,62,100
103104,note_on,,,,,256,0,13,,,,,5,,65,100
103104,note_on,,,,,0,0,13,,,,,5,,71,100
103104,note_on,,,,,256,0,12,,,,,4,,50,80
103104,note_on,,,,,256,0,11,,,,,3,,62,80
103168,note_off,,,,,256,0,9,,,,,1,,71,100
103168,note_off,,,,,256,0,10,,,,,2,,71,100
103196,note_off,,,,,92,0,8,,,,,0,,72,100
103200,note_on,,,,,4,0,8,,,,,0,,71,100
103232,note_off,,,,,128,0,13,,,,,5,,65,100
103232,note_off,,,,,0,0,13,,,,,5,,71,100
103232,note_off,,,,,128,0,11,,,,,3,,62,100
103232,note_off,,,,,128,0,14,,,,,5,,62,100
103232,note_off,,,,,128,0,12,,,,,4,,50,100
103264,note_off,,,,,64,0,8,,,,,0,,71,100
103296,note_on,,,,,64,0,13,,,,,5,,67,100
103296,note_on,,,,,0,0,13,,,,,5,,62,100
103296,note_on,,,,,64,0,14,,,,,5,,59,100
103296,note_on,,,,,32,0,8,,,,,0,,79,100
103296,note_on,,,,,64,0,12,,,,,4,,47,81
103296,note_on,,,,,64,0,11,,,,,3,,59,81
103388,note_off,,,,,92,0,8,,,,,0,,79,100
103392,note_on,,,,,4,0,8,,,,,0,,74,101
103424,note_off,,,,,0,0,13,,,,,5,,62,100
103424,note_off,,,,,128,0,12,,,,,4,,47,100
103424,note_off,,,,,128,0,14,,,,,5,,59,100
103424,note_off,,,,,128,0,13,,,,,5,,67,100
103424,note_off,,,,,128,0,11,,,,,3,,59,100
103484,note_off,,,,,92,0,8,,,,,0,,74,100
103488,note_on,,,,,64,0,11,,,,,3,,55,81
103488,note_on,,,,,64,0,14,,,,,5,,55,100
103488,note_on,,,,,0,0,13,,,,,5,,62,100
103488,note_on,,,,,64,0,13,,,,,5,,59,100
103488,note_on,,,,,64,0,12,,,,,4,,43,81
103488,note_on,,,,,4,0,8,,,,,0,,72,101
103580,note_off,,,,,92,0,8,,,,,0,,72,100
103584,note_on,,,,,4,0,8,,,,,0,,71,102
103616,note_off,,,,,128,0,13,,,,,5,,59,100
103616,note_off,,,,,128,0,11,,,,,3,,55,100
103616,note_off,,,,,128,0,12,,,,,4,,43,100
103616,note_off,,,,,128,0,14,,,,,5,,55,100
103616,note_off,,,,,0,0,13,,,,,5,,62,100
103648,note_off,,,,,64,0,8,,,,,0,,71,100
103680,note_on,,,,,512,0,9,,,,,1,,72,82
103680,note_on,,,,,32,0,8,,,,,0,,79,102
103680,note_on,,,,,512,0,10,,,,,2,,72,82
103772,note_off,,,,,92,0,8,,,,,0,,79,100
103776,note_on,,,,,4,0,8,,,,,0,,76,103
103868,note_off,,,,,92,0,8,,,,,0,,76,100
103872,note_on,,,,,256,0,14,,,,,5,,64,100
103872,note_on,,,,,256,0,13,,,,,5,,67,100
103872,note_on,,,,,0,0,13,,,,,5,,72,100
103872,note_on,,,,,256,0,11,,,,,3,,64,83
103872,note_on,,,,,4,0,8,,,,,0,,74,103
103872,note_on,,,,,256,0,12,,,,,4,,52,83
103936,note_off,,,,,256,0,9,,,,,1,,72,100
103936,note_off,,,,,256,0,10,,,,,2,,72,100
103964,note_off,,,,,92,0,8,,,,,0,,74,100
103968,note_on,,,,,4,0,8,,,,,0,,72,104
104000,note_off,,,,,128,0,11,,,,,3,,64,100
104000,note_off,,,,,128,0,14,,,,,5,,64,100
104000,note_off,,,,,128,0,12,,,,,4,,52,100
104000,note_off,,,,,128,0,13,,,,,5,,67,100
104000,note_off,,,,,0,0,13,,,,,5,,72,100
104032,note_off,,,,,64,0,8,,,,,0,,72,100
104064,note_on,,,,,32,0,8,,,,,0,,81,104
104064,note_on,,,,,64,0,12,,,,,4,,49,83
104064,note_on,,,,,64,0,11,,,,,3,,61,83
104064,note_on,,,,,0,0,13,,,,,5,,64,100
104064,note_on,,,,,64,0,13,,,,,5,,69,100
104064,note_on,,,,,64,0,14,,,,,5,,61,100
104156,note_off,,,,,92,0,8,,,,,0,,81,100
104160,note_on,,,,,4,0,8,,,,,0,,76,104
104192,note_off,,,,,128,0,12,,,,,4,,49,100
104192,note_off,,,,,128,0,11,,,,,3,,61,100
104192,note_off,,,,,128,0,13,,,,,5,,69,100
104192,note_off,,,,,128,0,14,,,,,5,,61,100
104192,note_off,,,,,0,0,13,,,,,5,,64,100
104252,note_off,,,,,92,0,8,,,,,0,,76,100
104256,note_on,,,,,64,0,13,,,,,5,,61,100
104256,note_on,,,,,64,0,12,,,,,4,,45,84
104256,note_on,,,,,64,0,14,,,,,5,,57,100
104256,note_on,,,,,0,0,13,,,,,5,,64,100
104256,note_on,,,,,64,0,11,,,,,3,,57,84
104256,note_on,,,,,4,0,8,,,,,0,,74,105
104348,note_off,,,,,92,0,8,,,,,0,,74,100
104352,note_on,,,,,4,0,8,,,,,0,,73,105
104384,note_off,,,,,0,0,13,,,,,5,,64,100
104384,note_off,,,,,128,0,14,,,,,5,,57,100
104384,note_off,,,,,128,0,13,,,,,5,,61,100
104384,note_off,,,,,128,0,12,,,,,4,,45,100
104384,note_off,,,,,128,0,11,,,,,3,,57,100
104416,note_off,,,,,64,0,8,,,,,0,,73,100
104448,note_on,,,,,32,0,8,,,,,0,,81,106
104448,note_on,,,,,512,0,9,,,,,1,,74,85
104448,note_on,,,,,512,0,10,,,,,2,,74,85
104540,note_off,,,,,92,0,8,,,,,0,,81,100
104544,note_on,,,,,4,0,8,,,,,0,,78,106
104636,note_off,,,,,92,0,8,,,,,0,,78,100
104640,note_on,,,,,256,0,13,,,,,5,,69,100
104640,note_on,,,,,256,0,12,,,,,4,,42,87
104640,note_on,,,,,0,0,13,,,,,5,,74,100
104640,note_on,,,,,4,0,8,,,,,0,,76,107
104640,note_on,,,,,256,0,11,,,,,3,,54,87
104640,note_on,,,,,256,0,14,,,,,5,,54,100
104704,note_off,,,,,256,0,9,,,,,1,,74,100
104704,note_off,,,,,256,0,10,,,,,2,,74,100
104732,note_off,,,,,92,0,8,,,,,0,,76,100
104736,note_on,,,,,4,0,8,,,,,0,,74,107
104768,note_off,,,,,0,0,13,,,,,5,,74,100
104768,note_off,,,,,128,0,11,,,,,3,,54,100
104768,note_off,,,,,128,0,13,,,,,5,,69,100
104768,note_off,,,,,128,0,14,,,,,5,,54,100
104768,note_off,,,,,128,0,12,,,,,4,,42,100
104800,note_off,,,,,64,0,8,,,,,0,,74,100
104832,note_on,,,,,0,0,13,,,,,5,,66,100
104832,note_on,,,,,64,0,13,,,,,5,,71,100
104832,note_on,,,,,64,0,14,,,,,5,,51,100
104832,note_on,,,,,64,0,11,,,,,3,,51,89
104832,note_on,,,,,32,0,8,,,,,0,,83,108
104832,note_on,,,,,64,0,12,,,,,4,,39,89
104924,note_off,,,,,92,0,8,,,,,0,,83,100
104928,note_on,,,,,4,0,8,,,,,0,,81,108
104960,note_off,,,,,128,0,14,,,,,5,,51,100
104960,note_off,,,,,128,0,12,,,,,4,,39,100
104960,note_off,,,,,128,0,11,,,,,3,,51,100
104960,note_off,,,,,128,0,13,,,,,5,,71,100
104960,note_off,,,,,0,0,13,,,,,5,,66,100
105020,note_off,,,,,92,0,8,,,,,0,,81,100
105024,note_on,,,,,4,0,8,,,,,0,,80,109
105024,note_on,,,,,64,0,14,,,,,5,,47,100
105024,note_on,,,,,64,0,13,,,,,5,,63,100
105024,note_on,,,,,0,0,13,,,,,5,,66,100
105024,note_on,,,,,64,0,11,,,,,3,,47,92
105024,note_on,,,,,64,0,12,,,,,4,,35,92
105116,note_off,,,,,92,0,8,,,,,0,,80,100
105120,note_on,,,,,4,0,8,,,,,0,,78,109
105152,note_off,,,,,128,0,11,,,,,3,,47,100
105152,note_off,,,,,0,0,13,,,,,5,,66,100
105152,note_off,,,,,128,0,13,,,,,5,,63,100
105152,note_off,,,,,128,0,14,,,,,5,,47,100
105152,note_off,,,,,128,0,12,,,,,4,,35,100
105184,note_off,,,,,64,0,8,,,,,0,,78,100
105216,note_on,,,,,64,0,13,,,,,5,,64,100
105216,note_on,,,,,64,0,14,,,,,5,,52,100
105216,note_on,,,,,512,0,10,,,,,2,,71,94
105216,note_on,,,,,64,0,12,,,,,4,,40,94
105216,note_on,,,,,64,0,11,,,,,3,,52,94
105216,note_on,,,,,32,0,8,,,,,0,,80,109
105216,note_on,,,,,0,0,13,,,,,5,,68,100
105216,note_on,,,,,0,0,13,,,,,5,,59,100
105312,note_on,,,,,608,0,9,,,,,1,,64,96
105344,note_off,,,,,128,0,10,,,,,2,,71,100
105344,note_off,,,,,128,0,8,,,,,0,,80,100
105376,note_off,,,,,64,0,9,,,,,1,,64,100
105408,note_on,,,,,64,0,10,,,,,2,,64,97
105408,note_on,,,,,32,0,9,,,,,1,,68,97
105472,note_off,,,,,0,0,13,,,,,5,,68,100
105472,note_off,,,,,0,0,13,,,,,5,,59,100
105472,note_off,,,,,256,0,13,,,,,5,,64,100
105472,note_off,,,,,64,0,9,,,,,1,,68,100
105504,note_on,,,,,32,0,9,,,,,1,,71,98
105536,note_off,,,,,128,0,10,,,,,2,,64,100
105568,note_off,,,,,64,0,9,,,,,1,,71,100
105600,note_on,,,,,64,0,10,,,,,2,,68,99
105600,note_on,,,,,32,0,9,,,,,1,,74,99
105600,note_off,,,,,384,0,14,,,,,5,,52,100
105600,note_off,,,,,384,0,11,,,,,3,,52,100
105600,note_off,,,,,384,0,12,,,,,4,,40,100
105696,note_on,,,,,224,0,13,,,,,5,,56,100
105696,note_on,,,,,96,0,12,,,,,4,,40,100
105696,note_on,,,,,96,0,14,,,,,5,,52,100
105696,note_on,,,,,96,0,11,,,,,3,,52,100
105728,note_off,,,,,128,0,9,,,,,1,,74,100
105728,note_off,,,,,128,0,10,,,,,2,,68,100
105760,note_off,,,,,64,0,13,,,,,5,,56,100
105760,note_off,,,,,64,0,14,,,,,5,,52,100
105760,note_off,,,,,64,0,11,,,,,3,,52,100
105760,note_off,,,,,64,0,12,,,,,4,,40,100
105792,note_on,,,,,32,0,13,,,,,5,,59,100
105792,note_on,,,,,32,0,14,,,,,5,,56,100
105792,note_on,,,,,64,0,9,,,,,1,,74,100
105792,note_on,,,,,64,0,10,,,,,2,,71,100
105792,note_on,,,,,32,0,12,,,,,4,,44,100
105792,note_on,,,,,32,0,11,,,,,3,,56,100
105856,note_off,,,,,64,0,11,,,,,3,,56,100
105856,note_off,,,,,64,0,12,,,,,4,,44,100
105856,note_off,,,,,64,0,14,,,,,5,,56,100
105856,note_off,,,,,64,0,13,,,,,5,,59,100
105888,note_on,,,,,32,0,12,,,,,4,,47,100
105888,note_on,,,,,32,0,13,,,,,5,,62,100
105888,note_on,,,,,32,0,11,,,,,3,,59,100
105888,note_on,,,,,32,0,14,,,,,5,,59,100
105920,note_off,,,,,128,0,10,,,,,2,,71,100
105920,note_off,,,,,128,0,9,,,,,1,,74,100
105952,note_off,,,,,64,0,13,,,,,5,,62,100
105952,note_off,,,,,64,0,14,,,,,5,,59,100
105952,note_off,,,,,64,0,11,,,,,3,,59,100
105952,note_off,,,,,64,0,12,,,,,4,,47,100
105984,note_on,,,,,0,0,13,,,,,5,,68,100
105984,note_on,,,,,32,0,14,,,,,5,,52,100
105984,note_on,,,,,0,0,13,,,,,5,,62,100
105984,note_on,,,,,0,0,13,,,,,5,,59,100
105984,note_on,,,,,32,0,12,,,,,4,,40,100
105984,note_on,,,,,64,0,10,,,,,2,,71,100
105984,note_on,,,,,32,0,11,,,,,3,,52,100
105984,note_on,,,,,64,0,9,,,,,1,,74,100
105984,note_on,,,,,32,0,13,,,,,5,,64,100
106048,note_off,,,,,64,0,9,,,,,1,,74,100
106080,note_on,,,,,32,0,9,,,,,1,,64,100
106112,note_off,,,,,128,0,10,,,,,2,,71,100
106144,note_off,,,,,64,0,9,,,,,1,,64,100
106176,note_on,,,,,32,0,9,,,,,1,,68,100
106176,note_on,,,,,64,0,10,,,,,2,,64,100
106240,note_off,,,,,64,0,9,,,,,1,,68,100
106240,note_off,,,,,0,0,13,,,,,5,,68,100
106240,note_off,,,,,256,0,13,,,,,5,,64,100
106240,note_off,,,,,0,0,13,,,,,5,,62,100
106240,note_off,,,,,0,0,13,,,,,5,,59,100
106272,note_on,,,,,32,0,9,,,,,1,,71,100
106304,note_off,,,,,128,0,10,,,,,2,,64,100
106336,note_off,,,,,64,0,9,,,,,1,,71,100
106368,note_off,,,,,384,0,14,,,,,5,,52,100
106368,note_off,,,,,384,0,12,,,,,4,,40,100
106368,note_on,,,,,64,0,10,,,,,2,,68,100
106368,note_on,,,,,32,0,9,,,,,1,,74,100
106368,note_off,,,,,384,0,11,,,,,3,,52,100
106464,note_on,,,,,96,0,11,,,,,3,,52,100
106464,note_on,,,,,96,0,14,,,,,5,,52,100
106464,note_on,,,,,224,0,13,,,,,5,,56,100
106464,note_on,,,,,96,0,12,,,,,4,,40,100
106496,note_off,,,,,128,0,9,,,,,1,,74,100
106496,note_off,,,,,128,0,10,,,,,2,,68,100
106528,note_off,,,,,64,0,12,,,,,4,,40,100
106528,note_off,,,,,64,0,11,,,,,3,,52,100
106528,note_off,,,,,64,0,13,,,,,5,,56,100
106528,note_off,,,,,64,0,14,,,,,5,,52,100
106560,note_on,,,,,32,0,11,,,,,3,,56,100
106560,note_on,,,,,64,0,10,,,,,2,,71,100
106560,note_on,,,,,32,0,12,,,,,4,,44,100
106560,note_on,,,,,32,0,14,,,,,5,,56,100
106560,note_on,,,,,32,0,13,,,,,5,,59,100
106560,note_on,,,,,64,0,9,,,,,1,,74,100
106624,note_off,,,,,64,0,13,,,,,5,,59,100
106624,note_off,,,,,64,0,14,,,,,5,,56,100
106624,note_off,,,,,64,0,11,,,,,3,,56,100
106624,note_off,,,,,64,0,12,,,,,4,,44,100
106656,note_on,,,,,32,0,12,,,,,4,,47,100
106656,note_on,,,,,32,0,13,,,,,5,,62,100
106656,note_on,,,,,32,0,11,,,,,3,,59,100
106656,note_on,,,,,32,0,14,,,,,5,,59,100
106688,note_off,,,,,128,0,10,,,,,2,,71,100
106688,note_off,,,,,128,0,9,,,,,1,,74,100
106720,note_off,,,,,64,0,13,,,,,5,,62,100
106720,note_off,,,,,64,0,11,,,,,3,,59,100
106720,note_off,,,,,64,0,14,,,,,5,,59,100
106720,note_off,,,,,64,0,12,,,,,4,,47,100
106752,note_on,,,,,32,0,11,,,,,3,,52,100
106752,note_on,,,,,64,0,10,,,,,2,,71,100
106752,note_on,,,,,32,0,13,,,,,5,,64,100
106752,note_on,,,,,0,0,13,,,,,5,,68,100
106752,note_on,,,,,0,0,13,,,,,5,,59,100
106752,note_on,,,,,0,0,13,,,,,5,,62,100
106752,note_on,,,,,32,0,14,,,,,5,,52,100
106752,note_on,,,,,64,0,9,,,,,1,,74,100
106752,note_on,,,,,32,0,12,,,,,4,,40,100
106816,note_off,,,,,64,0,9,,,,,1,,74,100
106848,note_on,,,,,32,0,9,,,,,1,,64,100
106880,note_off,,,,,128,0,10,,,,,2,,71,100
106912,note_off,,,,,64,0,9,,,,,1,,64,100
106944,note_on,,,,,64,0,10,,,,,2,,64,100
106944,note_on,,,,,32,0,9,,,,,1,,68,100
107008,note_off,,,,,0,0,13,,,,,5,,62,100
107008,note_off,,,,,256,0,13,,,,,5,,64,100
107008,note_off,,,,,0,0,13,,,,,5,,68,100
107008,note_off,,,,,64,0,9,,,,,1,,68,100
107008,note_off,,,,,0,0,13,,,,,5,,59,100
107040,note_on,,,,,32,0,9,,,,,1,,71,100
107072,note_off,,,,,128,0,10,,,,,2,,64,100
107104,note_off,,,,,64,0,9,,,,,1,,71,100
107136,note_off,,,,,384,0,11,,,,,3,,52,100
107136,note_off,,,,,384,0,14,,,,,5,,52,100
107136,note_on,,,,,64,0,10,,,,,2,,68,100
107136,note_on,,,,,32,0,9,,,,,1,,74,100
107136,note_off,,,,,384,0,12,,,,,4,,40,100
107232,note_on,,,,,96,0,14,,,,,5,,59,100
107232,note_on,,,,,224,0,13,,,,,5,,74,100
107232,note_on,,,,,96,0,12,,,,,4,,47,100
107232,note_on,,,,,96,0,11,,,,,3,,59,100
107264,note_off,,,,,128,0,9,,,,,1,,74,100
107264,note_off,,,,,128,0,10,,,,,2,,68,100
107296,note_off,,,,,64,0,14,,,,,5,,59,100
107296,note_off,,,,,64,0,12,,,,,4,,47,100
107296,note_off,,,,,64,0,11,,,,,3,,59,100
107296,note_off,,,,,64,0,13,,,,,5,,74,100
107328,note_on,,,,,32,0,14,,,,,5,,56,100
107328,note_on,,,,,32,0,12,,,,,4,,44,100
107328,note_on,,,,,32,0,11,,,,,3,,56,100
107328,note_on,,,,,32,0,13,,,,,5,,71,100
107328,note_on,,,,,64,0,10,,,,,2,,71,100
107328,note_on,,,,,64,0,9,,,,,1,,76,100
107392,note_off,,,,,64,0,14,,,,,5,,56,100
107392,note_off,,,,,64,0,12,,,,,4,,44,100
107392,note_off,,,,,64,0,13,,,,,5,,71,100
107392,note_off,,,,,64,0,11,,,,,3,,56,100
107424,note_on,,,,,32,0,11,,,,,3,,52,100
107424,note_on,,,,,32,0,13,,,,,5,,68,100
107424,note_on,,,,,32,0,12,,,,,4,,40,100
107424,note_on,,,,,32,0,14,,,,,5,,52,100
107456,note_off,,,,,128,0,10,,,,,2,,71,100
107456,note_off,,,,,128,0,9,,,,,1,,76,100
107488,note_off,,,,,64,0,11,,,,,3,,52,100
107488,note_off,,,,,64,0,12,,,,,4,,40,100
107488,note_off,,,,,64,0,13,,,,,5,,68,100
107488,note_off,,,,,64,0,14,,,,,5,,52,100
107520,note_on,,,,,64,0,9,,,,,1,,72,100
107520,note_on,,,,,32,0,12,,,,,4,,45,100
107520,note_on,,,,,64,0,10,,,,,2,,64,100
107520,note_on,,,,,32,0,11,,,,,3,,57,100
107520,note_on,,,,,32,0,13,,,,,5,,72,100
107520,note_on,,,,,0,0,13,,,,,5,,69,100
107520,note_on,,,,,0,0,13,,,,,5,,64,100
107520,note_on,,,,,32,0,14,,,,,5,,57,100
107648,note_off,,,,,128,0,14,,,,,5,,57,100
107648,note_off,,,,,128,0,9,,,,,1,,72,100
107648,note_off,,,,,0,0,13,,,,,5,,64,100
107648,note_off,,,,,128,0,10,,,,,2,,64,100
107648,note_off,,,,,128,0,11,,,,,3,,57,100
107648,note_off,,,,,128,0,13,,,,,5,,72,100
107648,note_off,,,,,128,0,12,,,,,4,,45,100
107648,note_off,,,,,0,0,13,,,,,5,,69,100
107712,note_on,,,,,64,0,11,,,,,3,,60,100
107712,note_on,,,,,64,0,10,,,,,2,,69,100
107712,note_on,,,,,64,0,12,,,,,4,,48,100
107712,note_on,,,,,0,0,13,,,,,5,,64,100
107712,note_on,,,,,64,0,13,,,,,5,,69,100
107712,note_on,,,,,64,0,14,,,,,5,,60,100
107712,note_on,,,,,64,0,9,,,,,1,,71,100
107776,note_off,,,,,64,0,9,,,,,1,,71,100
107808,note_on,,,,,32,0,9,,,,,1,,69,100
107840,note_off,,,,,128,0,11,,,,,3,,60,100
107840,note_off,,,,,128,0,13,,,,,5,,69,100
107840,note_off,,,,,128,0,10,,,,,2,,69,100
107840,note_off,,,,,0,0,13,,,,,5,,64,100
107840,note_off,,,,,128,0,14,,,,,5,,60,100
107840,note_off,,,,,128,0,12,,,,,4,,48,100
107872,note_off,,,,,64,0,9,,,,,1,,69,100
107904,note_on,,,,,64,0,11,,,,,3,,62,100
107904,note_on,,,,,64,0,13,,,,,5,,74,100
107904,note_on,,,,,32,0,9,,,,,1,,77,100
107904,note_on,,,,,64,0,14,,,,,5,,62,100
107904,note_on,,,,,0,0,13,,,,,5,,65,100
107904,note_on,,,,,0,0,13,,,,,5,,69,100
107904,note_on,,,,,64,0,12,,,,,4,,50,100
107904,note_on,,,,,64,0,10,,,,,2,,69,100
108032,note_off,,,,,128,0,14,,,,,5,,62,100
108032,note_off,,,,,128,0,12,,,,,4,,50,100
108032,note_off,,,,,0,0,13,,,,,5,,65,100
108032,note_off,,,,,0,0,13,,,,,5,,69,100
108032,note_off,,,,,128,0,10,,,,,2,,69,100
108032,note_off,,,,,128,0,9,,,,,1,,77,100
108032,note_off,,,,,128,0,13,,,,,5,,74,100
108032,note_off,,,,,128,0,11,,,,,3,,62,100
108096,note_on,,,,,64,0,12,,,,,4,,47,100
108096,note_on,,,,,64,0,9,,,,,1,,76,85
108096,note_on,,,,,64,0,14,,,,,5,,59,100
108096,note_on,,,,,0,0,13,,,,,5,,62,100
108096,note_on,,,,,64,0,13,,,,,5,,68,100
108096,note_on,,,,,64,0,10,,,,,2,,74,100
108096,note_on,,,,,64,0,11,,,,,3,,59,100
108160,note_off,,,,,64,0,9,,,,,1,,76,100
108192,note_on,,,,,32,0,9,,,,,1,,74,85
108224,note_off,,,,,128,0,11,,,,,3,,59,100
108224,note_off,,,,,128,0,13,,,,,5,,68,100
108224,note_off,,,,,0,0,13,,,,,5,,62,100
108224,note_off,,,,,128,0,10,,,,,2,,74,100
108224,note_off,,,,,128,0,12,,,,,4,,47,100
108224,note_off,,,,,128,0,14,,,,,5,,59,100
108256,note_off,,,,,64,0,9,,,,,1,,74,100
108288,note_on,,,,,64,0,10,,,,,2,,69,100
108288,note_on,,,,,0,0,13,,,,,5,,69,100
108288,note_on,,,,,32,0,9,,,,,1,,76,100
108288,note_on,,,,,64,0,12,,,,,4,,48,100
108288,note_on,,,,,64,0,11,,,,,3,,60,100
108288,note_on,,,,,64,0,14,,,,,5,,60,100
108288,note_on,,,,,64,0,13,,,,,5,,72,100
108288,note_on,,,,,0,0,13,,,,,5,,64,100
108416,note_off,,,,,0,0,13,,,,,5,,69,100
108416,note_off,,,,,128,0,13,,,,,5,,72,100
108416,note_off,,,,,128,0,10,,,,,2,,69,100
108416,note_off,,,,,128,0,14,,,,,5,,60,100
108416,note_off,,,,,128,0,11,,,,,3,,60,100
108416,note_off,,,,,0,0,13,,,,,5,,64,100
108416,note_off,,,,,128,0,9,,,,,1,,76,100
108416,note_off,,,,,128,0,12,,,,,4,,48,100
108480,note_on,,,,,64,0,13,,,,,5,,65,100
108480,note_on,,,,,64,0,10,,,,,2,,65,100
108480,note_on,,,,,64,0,12,,,,,4,,50,100
108480,note_on,,,,,64,0,14,,,,,5,,62,100
108480,note_on,,,,,64,0,11,,,,,3,,62,100
108480,note_on,,,,,0,0,13,,,,,5,,69,100
108480,note_on,,,,,64,0,9,,,,,1,,81,100
108592,note_off,,,,,112,0,9,,,,,1,,81,100
108608,note_off,,,,,128,0,13,,,,,5,,65,100
108608,note_off,,,,,0,0,13,,,,,5,,69,100
108608,note_off,,,,,128,0,12,,,,,4,,50,100
108608,note_off,,,,,128,0,14,,,,,5,,62,100
108608,note_off,,,,,128,0,11,,,,,3,,62,100
108608,note_off,,,,,128,0,10,,,,,2,,65,100
108672,note_on,,,,,64,0,11,,,,,3,,64,100
108672,note_on,,,,,80,0,9,,,,,1,,64,100
108672,note_on,,,,,64,0,10,,,,,2,,64,100
108672,note_on,,,,,64,0,14,,,,,5,,64,100
108672,note_on,,,,,0,0,13,,,,,5,,71,100
108672,note_on,,,,,64,0,13,,,,,5,,69,100
108672,note_on,,,,,64,0,12,,,,,4,,52,100
108784,note_off,,,,,112,0,9,,,,,1,,64,100
108800,note_off,,,,,128,0,14,,,,,5,,64,100
108800,note_off,,,,,128,0,12,,,,,4,,52,100
108800,note_off,,,,,0,0,13,,,,,5,,71,100
108800,note_off,,,,,128,0,11,,,,,3,,64,100
108800,note_off,,,,,128,0,10,,,,,2,,64,100
108800,note_off,,,,,128,0,13,,,,,5,,69,100
108864,note_on,,,,,64,0,12,,,,,4,,40,100
108864,note_on,,,,,64,0,11,,,,,3,,52,100
108864,note_on,,,,,80,0,9,,,,,1,,80,100
108864,note_on,,,,,64,0,10,,,,,2,,64,100
108864,note_on,,,,,64,0,14,,,,,5,,52,100
108864,note_on,,,,,64,0,13,,,,,5,,68,100
108864,note_on,,,,,0,0,13,,,,,5,,71,100
108976,note_off,,,,,112,0,9,,,,,1,,80,100
108992,note_off,,,,,0,0,13,,,,,5,,71,100
108992,note_off,,,,,128,0,13,,,,,5,,68,100
108992,note_off,,,,,128,0,11,,,,,3,,52,100
108992,note_off,,,,,128,0,12,,,,,4,,40,100
108992,note_off,,,,,128,0,14,,,,,5,,52,100
108992,note_off,,,,,128,0,10,,,,,2,,64,100
109056,note_on,,,,,64,0,14,,,,,5,,45,100
109056,note_on,,,,,0,0,13,,,,,5,,72,100
109056,note_on,,,,,64,0,13,,,,,5,,69,100
109056,note_on,,,,,0,0,13,,,,,5,,64,100
109056,note_on,,,,,64,0,12,,,,,4,,33,100
109056,note_on,,,,,64,0,11,,,,,3,,45,100
109056,note_on,,,,,64,0,10,,,,,2,,60,100
109056,note_on,,,,,80,0,9,,,,,1,,81,100
109184,note_off,,,,,128,0,11,,,,,3,,45,100
109184,note_off,,,,,0,0,13,,,,,5,,64,100
109184,note_off,,,,,128,0,13,,,,,5,,69,100
109184,note_off,,,,,128,0,14,,,,,5,,45,100
109184,note_off,,,,,128,0,12,,,,,4,,33,100
109184,note_off,,,,,0,0,13,,,,,5,,72,100
109248,note_on,,,,,64,0,12,,,,,4,,45,100
109248,note_on,,,,,0,0,13,,,,,5,,64,100
109248,note_on,,,,,64,0,13,,,,,5,,60,100
109248,note_on,,,,,64,0,11,,,,,3,,57,100
109248,note_on,,,,,64,0,14,,,,,5,,57,100
109312,note_off,,,,,256,0,10,,,,,2,,60,100
109312,note_off,,,,,256,0,9,,,,,1,,81,100
109376,note_off,,,,,128,0,12,,,,,4,,45,100
109376,note_off,,,,,128,0,11,,,,,3,,57,100
109376,note_off,,,,,128,0,13,,,,,5,,60,100
109376,note_off,,,,,0,0,13,,,,,5,,64,100
109376,note_off,,,,,128,0,14,,,,,5,,57,100
109440,note_on,,,,,64,0,11,,,,,3,,60,96
109440,note_on,,,,,64,0,13,,,,,5,,64,100
109440,note_on,,,,,0,0,13,,,,,5,,69,100
109440,note_on,,,,,64,0,12,,,,,4,,48,96
109440,note_on,,,,,64,0,14,,,,,5,,60,100
109568,note_off,,,,,128,0,14,,,,,5,,60,100
109568,note_off,,,,,0,0,13,,,,,5,,69,100
109568,note_off,,,,,128,0,12,,,,,4,,48,100
109568,note_off,,,,,128,0,13,,,,,5,,64,100
109568,note_off,,,,,128,0,11,,,,,3,,60,100
109632,note_on,,,,,0,0,13,,,,,5,,64,100
109632,note_on,,,,,64,0,13,,,,,5,,60,100
109632,note_on,,,,,64,0,11,,,,,3,,57,91
109632,note_on,,,,,64,0,12,,,,,4,,45,91
109632,note_on,,,,,4288,0,8,,,,,0,,76,100
109632,note_on,,,,,64,0,14,,,,,5,,57,100
109760,note_off,,,,,128,0,12,,,,,4,,45,100
109760,note_off,,,,,0,0,13,,,,,5,,64,100
109760,note_off,,,,,128,0,11,,,,,3,,57,100
109760,note_off,,,,,128,0,14,,,,,5,,57,100
109760,note_off,,,,,128,0,8,,,,,0,,76,100
109760,note_off,,,,,128,0,13,,,,,5,,60,100
109824,note_on,,,,,64,0,8,,,,,0,,81,100
109824,note_on,,,,,512,0,9,,,,,1,,61,86
109824,note_on,,,,,512,0,10,,,,,2,,61,86
109916,note_off,,,,,92,0,8,,,,,0,,81,100
109920,note_on,,,,,4,0,8,,,,,0,,79,100
110012,note_off,,,,,92,0,8,,,,,0,,79,100
110016,note_on,,,,,256,0,11,,,,,3,,61,80
110016,note_on,,,,,4,0,8,,,,,0,,81,100
110016,note_on,,,,,0,0,13,,,,,5,,69,100
110016,note_on,,,,,256,0,14,,,,,5,,61,100
110016,note_on,,,,,256,0,13,,,,,5,,64,100
110016,note_on,,,,,256,0,12,,,,,4,,49,80
110080,note_off,,,,,256,0,10,,,,,2,,61,100
110080,note_off,,,,,256,0,9,,,,,1,,61,100
110080,note_off,,,,,64,0,8,,,,,0,,81,100
110112,note_on,,,,,32,0,8,,,,,0,,76,100
110144,note_off,,,,,128,0,13,,,,,5,,64,100
110144,note_off,,,,,0,0,13,,,,,5,,69,100
110144,note_off,,,,,128,0,14,,,,,5,,61,100
110144,note_off,,,,,128,0,11,,,,,3,,61,100
110144,note_off,,,,,128,0,12,,,,,4,,49,100
110176,note_off,,,,,64,0,8,,,,,0,,76,100
110208,note_on,,,,,64,0,12,,,,,4,,37,80
110208,note_on,,,,,64,0,11,,,,,3,,49,80
110208,note_on,,,,,32,0,8,,,,,0,,81,100
110208,note_on,,,,,0,0,13,,,,,5,,64,100
110208,note_on,,,,,64,0,13,,,,,5,,57,100
110208,note_on,,,,,64,0,14,,,,,5,,49,100
110300,note_off,,,,,92,0,8,,,,,0,,81,100
110304,note_on,,,,,4,0,8,,,,,0,,79,100
110336,note_off,,,,,128,0,12,,,,,4,,37,100
110336,note_off,,,,,128,0,14,,,,,5,,49,100
110336,note_off,,,,,128,0,11,,,,,3,,49,100
110336,note_off,,,,,0,0,13,,,,,5,,64,100
110336,note_off,,,,,128,0,13,,,,,5,,57,100
110396,note_off,,,,,92,0,8,,,,,0,,79,100
110400,note_on,,,,,64,0,12,,,,,4,,49,80
110400,note_on,,,,,4,0,8,,,,,0,,81,100
110400,note_on,,,,,64,0,14,,,,,5,,61,100
110400,note_on,,,,,0,0,13,,,,,5,,64,100
110400,note_on,,,,,64,0,13,,,,,5,,69,100
110400,note_on,,,,,64,0,11,,,,,3,,61,80
110464,note_off,,,,,64,0,8,,,,,0,,81,100
110496,note_on,,,,,32,0,8,,,,,0,,76,100
110528,note_off,,,,,128,0,14,,,,,5,,61,100
110528,note_off,,,,,128,0,13,,,,,5,,69,100
110528,note_off,,,,,0,0,13,,,,,5,,64,100
110528,note_off,,,,,128,0,12,,,,,4,,49,100
110528,note_off,,,,,128,0,11,,,,,3,,61,100
110560,note_off,,,,,64,0,8,,,,,0,,76,100
110592,note_on,,,,,512,0,9,,,,,1,,62,80
110592,note_on,,,,,512,0,10,,,,,2,,62,80
110592,note_on,,,,,32,0,8,,,,,0,,78,100
110684,note_off,,,,,92,0,8,,,,,0,,78,100
110688,note_on,,,,,4,0,8,,,,,0,,76,100
110780,note_off,,,,,92,0,8,,,,,0,,76,100
110784,note_on,,,,,256,0,13,,,,,5,,66,100
110784,note_on,,,,,0,0,13,,,,,5,,69,100
110784,note_on,,,,,256,0,12,,,,,4,,50,80
110784,note_on,,,,,4,0,8,,,,,0,,74,100
110784,note_on,,,,,256,0,14,,,,,5,,62,100
110784,note_on,,,,,256,0,11,,,,,3,,62,80
110848,note_off,,,,,256,0,10,,,,,2,,62,100
110848,note_off,,,,,256,0,9,,,,,1,,62,100
110848,note_off,,,,,64,0,8,,,,,0,,74,100
110880,note_on,,,,,32,0,8,,,,,0,,76,100
110912,note_off,,,,,128,0,12,,,,,4,,50,100
110912,note_off,,,,,128,0,14,,,,,5,,62,100
110912,note_off,,,,,0,0,13,,,,,5,,69,100
110912,note_off,,,,,128,0,13,,,,,5,,66,100
110912,note_off,,,,,128,0,11,,,,,3,,62,100
110944,note_off,,,,,64,0,8,,,,,0,,76,100
110976,note_on,,,,,64,0,13,,,,,5,,66,100
110976,note_on,,,,,64,0,14,,,,,5,,60,100
110976,note_on,,,,,32,0,8,,,,,0,,78,100
110976,note_on,,,,,64,0,12,,,,,4,,48,80
110976,note_on,,,,,0,0,13,,,,,5,,69,100
110976,note_on,,,,,64,0,11,,,,,3,,60,80
111040,note_off,,,,,64,0,8,,,,,0,,78,100
111072,note_on,,,,,32,0,8,,,,,0,,79,100
111104,note_off,,,,,128,0,13,,,,,5,,66,100
111104,note_off,,,,,0,0,13,,,,,5,,69,100
111104,note_off,,,,,128,0,14,,,,,5,,60,100
111104,note_off,,,,,128,0,12,,,,,4,,48,100
111104,note_off,,,,,128,0,11,,,,,3,,60,100
111136,note_off,,,,,64,0,8,,,,,0,,79,100
111168,note_on,,,,,64,0,12,,,,,4,,36,80
111168,note_on,,,,,64,0,13,,,,,5,,57,100
111168,note_on,,,,,64,0,11,,,,,3,,48,80
111168,note_on,,,,,0,0,13,,,,,5,,66,100
111168,note_on,,,,,32,0,8,,,,,0,,81,100
111168,note_on,,,,,64,0,14,,,,,5,,48,100
111232,note_off,,,,,64,0,8,,,,,0,,81,100
111264,note_on,,,,,32,0,8,,,,,0,,74,100
111296,note_off,,,,,128,0,11,,,,,3,,48,100
111296,note_off,,,,,128,0,14,,,,,5,,48,100
111296,note_off,,,,,0,0,13,,,,,5,,66,100
111296,note_off,,,,,128,0,13,,,,,5,,57,100
111296,note_off,,,,,128,0,12,,,,,4,,36,100
111328,note_off,,,,,64,0,8,,,,,0,,74,100
111360,note_on,,,,,512,0,9,,,,,1,,59,80
111360,note_on,,,,,512,0,10,,,,,2,,59,80
111360,note_on,,,,,32,0,8,,,,,0,,79,100
111452,note_off,,,,,92,0,8,,,,,0,,79,100
111456,note_on,,,,,4,0,8,,,,,0,,78,100
111548,note_off,,,,,92,0,8,,,,,0,,78,100
111552,note_on,,,,,256,0,11,,,,,3,,59,80
111552,note_on,,,,,256,0,13,,,,,5,,62,100
111552,note_on,,,,,256,0,14,,,,,5,,59,100
111552,note_on,,,,,256,0,12,,,,,4,,47,80
111552,note_on,,,,,0,0,13,,,,,5,,67,100
111552,note_on,,,,,4,0,8,,,,,0,,79,100
111616,note_off,,,,,256,0,9,,,,,1,,59,100
111616,note_off,,,,,256,0,10,,,,,2,,59,100
111616,note_off,,,,,64,0,8,,,,,0,,79,100
111648,note_on,,,,,32,0,8,,,,,0,,74,100
111680,note_off,,,,,0,0,13,,,,,5,,67,100
111680,note_off,,,,,128,0,13,,,,,5,,62,100
111680,note_off,,,,,128,0,14,,,,,5,,59,100
111680,note_off,,,,,128,0,12,,,,,4,,47,100
111680,note_off,,,,,128,0,11,,,,,3,,59,100
111712,note_off,,,,,64,0,8,,,,,0,,74,100
111744,note_on,,,,,0,0,13,,,,,5,,62,100
111744,note_on,,,,,32,0,8,,,,,0,,79,100
111744,note_on,,,,,64,0,11,,,,,3,,47,80
111744,note_on,,,,,64,0,14,,,,,5,,47,100
111744,note_on,,,,,64,0,12,,,,,4,,35,80
111744,note_on,,,,,64,0,13,,,,,5,,55,100
111836,note_off,,,,,92,0,8,,,,,0,,79,100
111840,note_on,,,,,4,0,8,,,,,0,,77,100
111872,note_off,,,,,128,0,13,,,,,5,,55,100
111872,note_off,,,,,128,0,12,,,,,4,,35,100
111872,note_off,,,,,128,0,14,,,,,5,,47,100
111872,note_off,,,,,128,0,11,,,,,3,,47,100
111872,note_off,,,,,0,0,13,,,,,5,,62,100
111932,note_off,,,,,92,0,8,,,,,0,,77,100
111936,note_on,,,,,64,0,11,,,,,3,,59,80
111936,note_on,,,,,0,0,13,,,,,5,,62,100
111936,note_on,,,,,64,0,13,,,,,5,,67,100
111936,note_on,,,,,4,0,8,,,,,0,,79,100
111936,note_on,,,,,64,0,12,,,,,4,,47,80
111936,note_on,,,,,64,0,14,,,,,5,,59,100
112000,note_off,,,,,64,0,8,,,,,0,,79,100
112032,note_on,,,,,32,0,8,,,,,0,,74,100
112064,note_off,,,,,128,0,12,,,,,4,,47,100
112064,note_off,,,,,128,0,11,,,,,3,,59,100
112064,note_off,,,,,0,0,13,,,,,5,,62,100
112064,note_off,,,,,128,0,14,,,,,5,,59,100
112064,note_off,,,,,128,0,13,,,,,5,,67,100
112096,note_off,,,,,64,0,8,,,,,0,,74,100
112128,note_on,,,,,512,0,9,,,,,1,,60,80
112128,note_on,,,,,512,0,10,,,,,2,,60,80
112128,note_on,,,,,32,0,8,,,,,0,,76,100
112220,note_off,,,,,92,0,8,,,,,0,,76,100
112224,note_on,,,,,4,0,8,,,,,0,,74,100
112316,note_off,,,,,92,0,8,,,,,0,,74,100
112320,note_on,,,,,0,0,13,,,,,5,,67,100
112320,note_on,,,,,4,0,8,,,,,0,,72,100
112320,note_on,,,,,256,0,11,,,,,3,,60,80
112320,note_on,,,,,256,0,12,,,,,4,,48,80
112320,note_on,,,,,256,0,14,,,,,5,,60,100
112320,note_on,,,,,256,0,13,,,,,5,,64,100
112384,note_off,,,,,256,0,9,,,,,1,,60,100
112384,note_off,,,,,256,0,10,,,,,2,,60,100
112384,note_off,,,,,64,0,8,,,,,0,,72,100
112416,note_on,,,,,32,0,8,,,,,0,,74,100
112448,note_off,,,,,128,0,11,,,,,3,,60,100
112448,note_off,,,,,128,0,13,,,,,5,,64,100
112448,note_off,,,,,128,0,12,,,,,4,,48,100
112448,note_off,,,,,0,0,13,,,,,5,,67,100
112448,note_off,,,,,128,0,14,,,,,5,,60,100
112480,note_off,,,,,64,0,8,,,,,0,,74,100
112512,note_on,,,,,64,0,12,,,,,4,,47,80
112512,note_on,,,,,64,0,13,,,,,5,,64,100
112512,note_on,,,,,0,0,13,,,,,5,,67,100
112512,note_on,,,,,64,0,11,,,,,3,,59,80
112512,note_on,,,,,32,0,8,,,,,0,,76,100
112512,note_on,,,,,64,0,14,,,,,5,,59,100
112576,note_off,,,,,64,0,8,,,,,0,,76,100
112608,note_on,,,,,32,0,8,,,,,0,,77,100
112640,note_off,,,,,128,0,14,,,,,5,,59,100
112640,note_off,,,,,128,0,11,,,,,3,,59,100
112640,note_off,,,,,0,0,13,,,,,5,,67,100
112640,note_off,,,,,128,0,13,,,,,5,,64,100
112640,note_off,,,,,128,0,12,,,,,4,,47,100
112672,note_off,,,,,64,0,8,,,,,0,,77,100
112704,note_on,,,,,64,0,12,,,,,4,,35,80
112704,note_on,,,,,32,0,8,,,,,0,,79,100
112704,note_on,,,,,64,0,14,,,,,5,,47,100
112704,note_on,,,,,64,0,13,,,,,5,,55,100
112704,note_on,,,,,0,0,13,,,,,5,,64,100
112704,note_on,,,,,64,0,11,,,,,3,,47,80
112768,note_off,,,,,64,0,8,,,,,0,,79,100
112800,note_on,,,,,32,0,8,,,,,0,,76,100
112832,note_off,,,,,128,0,12,,,,,4,,35,100
112832,note_off,,,,,128,0,11,,,,,3,,47,100
112832,note_off,,,,,128,0,14,,,,,5,,47,100
112832,note_off,,,,,0,0,13,,,,,5,,64,100
112832,note_off,,,,,128,0,13,,,,,5,,55,100
112864,note_off,,,,,64,0,8,,,,,0,,76,100
112896,note_on,,,,,32,0,8,,,,,0,,77,100
112896,note_on,,,,,512,0,10,,,,,2,,57,80
112896,note_on,,,,,512,0,9,,,,,1,,57,80
112988,note_off,,,,,92,0,8,,,,,0,,77,100
112992,note_on,,,,,4,0,8,,,,,0,,76,100
113084,note_off,,,,,92,0,8,,,,,0,,76,100
113088,note_on,,,,,0,0,13,,,,,5,,65,100
113088,note_on,,,,,4,0,8,,,,,0,,77,100
113088,note_on,,,,,256,0,11,,,,,3,,57,80
113088,note_on,,,,,256,0,13,,,,,5,,60,100
113088,note_on,,,,,256,0,14,,,,,5,,57,100
113088,note_on,,,,,256,0,12,,,,,4,,45,80
113152,note_off,,,,,256,0,10,,,,,2,,57,100
113152,note_off,,,,,256,0,9,,,,,1,,57,100
113152,note_off,,,,,64,0,8,,,,,0,,77,100
113184,note_on,,,,,32,0,8,,,,,0,,72,100
113216,note_off,,,,,128,0,12,,,,,4,,45,100
113216,note_off,,,,,0,0,13,,,,,5,,65,100
113216,note_off,,,,,128,0,14,,,,,5,,57,100
113216,note_off,,,,,128,0,13,,,,,5,,60,100
113216,note_off,,,,,128,0,11,,,,,3,,57,100
113248,note_off,,,,,64,0,8,,,,,0,,72,100
113280,note_on,,,,,64,0,11,,,,,3,,45,80
113280,note_on,,,,,64,0,12,,,,,4,,33,80
113280,note_on,,,,,0,0,13,,,,,5,,60,100
113280,note_on,,,,,64,0,13,,,,,5,,53,100
113280,note_on,,,,,64,0,14,,,,,5,,45,100
113280,note_on,,,,,32,0,8,,,,,0,,77,100
113372,note_off,,,,,92,0,8,,,,,0,,77,100
113376,note_on,,,,,4,0,8,,,,,0,,76,100
113408,note_off,,,,,128,0,14,,,,,5,,45,100
113408,note_off,,,,,128,0,11,,,,,3,,45,100
113408,note_off,,,,,128,0,12,,,,,4,,33,100
113408,note_off,,,,,128,0,13,,,,,5,,53,100
113408,note_off,,,,,0,0,13,,,,,5,,60,100
113468,note_off,,,,,92,0,8,,,,,0,,76,100
113472,note_on,,,,,4,0,8,,,,,0,,77,100
113472,note_on,,,,,64,0,14,,,,,5,,57,100
113472,note_on,,,,,64,0,13,,,,,5,,65,100
113472,note_on,,,,,64,0,11,,,,,3,,57,80
113472,note_on,,,,,64,0,12,,,,,4,,45,80
113472,note_on,,,,,0,0,13,,,,,5,,60,100
113536,note_off,,,,,64,0,8,,,,,0,,77,100
113568,note_on,,,,,32,0,8,,,,,0,,72,100
113600,note_off,,,,,0,0,13,,,,,5,,60,100
113600,note_off,,,,,128,0,12,,,,,4,,45,100
113600,note_off,,,,,128,0,11,,,,,3,,57,100
113600,note_off,,,,,128,0,14,,,,,5,,57,100
113600,note_off,,,,,128,0,13,,,,,5,,65,100
113632,note_off,,,,,64,0,8,,,,,0,,72,100
113664,note_on,,,,,512,0,9,,,,,1,,59,80
113664,note_on,,,,,32,0,8,,,,,0,,74,100
113664,note_on,,,,,512,0,10,,,,,2,,59,80
113756,note_off,,,,,92,0,8,,,,,0,,74,100
113760,note_on,,,,,4,0,8,,,,,0,,72,100
113852,note_off,,,,,92,0,8,,,,,0,,72,100
113856,note_on,,,,,0,0,13,,,,,5,,65,100
113856,note_on,,,,,256,0,12,,,,,4,,47,80
113856,note_on,,,,,256,0,11,,,,,3,,59,80
113856,note_on,,,,,256,0,14,,,,,5,,59,100
113856,note_on,,,,,256,0,13,,,,,5,,62,100
113856,note_on,,,,,4,0,8,,,,,0,,71,100
113920,note_off,,,,,64,0,8,,,,,0,,71,100
113920,note_off,,,,,256,0,10,,,,,2,,59,100
113920,note_off,,,,,256,0,9,,,,,1,,59,100
113952,note_on,,,,,32,0,8,,,,,0,,72,100
113984,note_off,,,,,128,0,13,,,,,5,,62,100
113984,note_off,,,,,0,0,13,,,,,5,,65,100
113984,note_off,,,,,128,0,12,,,,,4,,47,100
113984,note_off,,,,,128,0,11,,,,,3,,59,100
113984,note_off,,,,,128,0,14,,,,,5,,59,100
114016,note_off,,,,,64,0,8,,,,,0,,72,100
114048,note_on,,,,,64,0,12,,,,,4,,45,80
114048,note_on,,,,,64,0,13,,,,,5,,62,100
114048,note_on,,,,,32,0,8,,,,,0,,74,100
114048,note_on,,,,,64,0,14,,,,,5,,57,100
114048,note_on,,,,,0,0,13,,,,,5,,65,100
114048,note_on,,,,,64,0,11,,,,,3,,57,80
114112,note_off,,,,,64,0,8,,,,,0,,74,100
114144,note_on,,,,,32,0,8,,,,,0,,76,100
114176,note_off,,,,,0,0,13,,,,,5,,65,100
114176,note_off,,,,,128,0,13,,,,,5,,62,100
114176,note_off,,,,,128,0,14,,,,,5,,57,100
114176,note_off,,,,,128,0,12,,,,,4,,45,100
114176,note_off,,,,,128,0,11,,,,,3,,57,100
114208,note_off,,,,,64,0,8,,,,,0,,76,100
114240,note_on,,,,,64,0,11,,,,,3,,45,80
114240,note_on,,,,,0,0,13,,,,,5,,62,100
114240,note_on,,,,,64,0,13,,,,,5,,53,100
114240,note_on,,,,,64,0,12,,,,,4,,33,80
114240,note_on,,,,,64,0,14,,,,,5,,45,100
114240,note_on,,,,,32,0,8,,,,,0,,77,100
114304,note_off,,,,,64,0,8,,,,,0,,77,100
114336,note_on,,,,,32,0,8,,,,,0,,74,100
114368,note_off,,,,,0,0,13,,,,,5,,62,100
114368,note_off,,,,,128,0,13,,,,,5,,53,100
114368,note_off,,,,,128,0,12,,,,,4,,33,100
114368,note_off,,,,,128,0,11,,,,,3,,45,100
114368,note_off,,,,,128,0,14,,,,,5,,45,100
114400,note_off,,,,,64,0,8,,,,,0,,74,100
114432,note_on,,,,,512,0,10,,,,,2,,56,80
114432,note_on,,,,,512,0,9,,,,,1,,56,80
114432,note_on,,,,,32,0,8,,,,,0,,76,100
114524,note_off,,,,,92,0,8,,,,,0,,76,100
114528,note_on,,,,,4,0,8,,,,,0,,74,100
114620,note_off,,,,,92,0,8,,,,,0,,74,100
114624,note_on,,,,,0,0,13,,,,,5,,64,100
114624,note_on,,,,,256,0,13,,,,,5,,71,100
114624,note_on,,,,,256,0,12,,,,,4,,44,84
114624,note_on,,,,,256,0,14,,,,,5,,56,100
114624,note_on,,,,,4,0,8,,,,,0,,76,100
114624,note_on,,,,,256,0,11,,,,,3,,56,84
114688,note_off,,,,,256,0,10,,,,,2,,56,100
114688,note_off,,,,,64,0,8,,,,,0,,76,100
114688,note_off,,,,,256,0,9,,,,,1,,56,100
114720,note_on,,,,,32,0,8,,,,,0,,71,100
114752,note_off,,,,,128,0,14,,,,,5,,56,100
114752,note_off,,,,,128,0,12,,,,,4,,44,100
114752,note_off,,,,,128,0,13,,,,,5,,71,100
114752,note_off,,,,,0,0,13,,,,,5,,64,100
114752,note_off,,,,,128,0,11,,,,,3,,56,100
114784,note_off,,,,,64,0,8,,,,,0,,71,100
114816,note_on,,,,,64,0,11,,,,,3,,44,89
114816,note_on,,,,,64,0,12,,,,,4,,44,89
114816,note_on,,,,,32,0,8,,,,,0,,76,100
114816,note_on,,,,,64,0,13,,,,,5,,64,100
114816,note_on,,,,,0,0,13,,,,,5,,59,100
114816,note_on,,,,,64,0,14,,,,,5,,44,100
114908,note_off,,,,,92,0,8,,,,,0,,76,100
114912,note_on,,,,,4,0,8,,,,,0,,74,100
114944,note_off,,,,,128,0,14,,,,,5,,44,100
114944,note_off,,,,,0,0,13,,,,,5,,59,100
114944,note_off,,,,,128,0,13,,,,,5,,64,100
114944,note_off,,,,,128,0,11,,,,,3,,44,100
114944,note_off,,,,,128,0,12,,,,,4,,44,100
115004,note_off,,,,,92,0,8,,,,,0,,74,100
115008,note_on,,,,,64,0,12,,,,,4,,44,94
115008,note_on,,,,,64,0,13,,,,,5,,64,100
115008,note_on,,,,,4,0,8,,,,,0,,76,100
115008,note_on,,,,,64,0,14,,,,,5,,56,100
115008,note_on,,,,,0,0,13,,,,,5,,71,100
115008,note_on,,,,,64,0,11,,,,,3,,56,94
115072,note_off,,,,,64,0,8,,,,,0,,76,100
115104,note_on,,,,,32,0,8,,,,,0,,71,100
115136,note_off,,,,,128,0,14,,,,,5,,56,100
115136,note_off,,,,,0,0,13,,,,,5,,71,100
115136,note_off,,,,,128,0,13,,,,,5,,64,100
115136,note_off,,,,,128,0,12,,,,,4,,44,100
115136,note_off,,,,,128,0,11,,,,,3,,56,100
115168,note_off,,,,,64,0,8,,,,,0,,71,100
115200,note_on,,,,,32,0,8,,,,,0,,72,100
115200,note_on,,,,,0,0,13,,,,,5,,64,100
115200,note_on,,,,,64,0,13,,,,,5,,60,100
115200,note_on,,,,,512,0,9,,,,,1,,72,99
115200,note_on,,,,,64,0,11,,,,,3,,45,99
115200,note_on,,,,,64,0,14,,,,,5,,45,100
115200,note_on,,,,,64,0,12,,,,,4,,33,99
115264,note_off,,,,,64,0,9,,,,,1,,72,100
115296,note_on,,,,,32,0,9,,,,,1,,69,100
115328,note_off,,,,,128,0,13,,,,,5,,60,100
115328,note_off,,,,,128,0,8,,,,,0,,72,100
115328,note_off,,,,,128,0,12,,,,,4,,33,100
115328,note_off,,,,,128,0,11,,,,,3,,45,100
115328,end_of_track,,,,,0,1,8,,,,,,,,
115328,note_off,,,,,128,0,14,,,,,5,,45,100
115328,note_off,,,,,0,0,13,,,,,5,,64,100
115360,note_off,,,,,64,0,9,,,,,1,,69,100
115392,note_on,,,,,64,0,12,,,,,4,,45,100
115392,note_on,,,,,0,0,13,,,,,5,,64,100
115392,note_on,,,,,64,0,11,,,,,3,,57,100
115392,note_on,,,,,64,0,14,,,,,5,,57,100
115392,note_on,,,,,32,0,9,,,,,1,,72,100
115392,note_on,,,,,64,0,13,,,,,5,,72,100
115456,note_off,,,,,64,0,9,,,,,1,,72,100
115488,note_on,,,,,32,0,9,,,,,1,,76,100
115520,note_off,,,,,128,0,14,,,,,5,,57,100
115520,note_off,,,,,128,0,11,,,,,3,,57,100
115520,note_off,,,,,128,0,12,,,,,4,,45,100
115520,note_off,,,,,128,0,13,,,,,5,,72,100
115520,note_off,,,,,0,0,13,,,,,5,,64,100
115552,note_off,,,,,64,0,9,,,,,1,,76,100
115584,note_on,,,,,32,0,9,,,,,1,,81,100
115584,note_on,,,,,64,0,14,,,,,5,,60,100
115584,note_on,,,,,64,0,11,,,,,3,,60,100
115584,note_on,,,,,64,0,13,,,,,5,,69,100
115584,note_on,,,,,0,0,13,,,,,5,,76,100
115584,note_on,,,,,64,0,12,,,,,4,,48,100
115712,note_off,,,,,0,0,13,,,,,5,,76,100
115712,note_off,,,,,128,0,13,,,,,5,,69,100
115712,note_off,,,,,128,0,14,,,,,5,,60,100
115712,note_off,,,,,128,0,9,,,,,1,,81,100
115712,note_off,,,,,128,0,11,,,,,3,,60,100
115712,note_off,,,,,128,0,12,,,,,4,,48,100
115776,note_on,,,,,0,0,13,,,,,5,,72,100
115776,note_on,,,,,64,0,9,,,,,1,,81,100
115776,note_on,,,,,64,0,11,,,,,3,,57,100
115776,note_on,,,,,64,0,12,,,,,4,,45,100
115776,note_on,,,,,1088,0,10,,,,,2,,69,100
115776,note_on,,,,,64,0,13,,,,,5,,64,100
115776,note_on,,,,,64,0,14,,,,,5,,57,100
115904,note_off,,,,,128,0,14,,,,,5,,57,100
115904,note_off,,,,,128,0,9,,,,,1,,81,100
115904,note_off,,,,,128,0,11,,,,,3,,57,100
115904,note_off,,,,,0,0,13,,,,,5,,72,100
115904,note_off,,,,,128,0,12,,,,,4,,45,100
115904,note_off,,,,,128,0,13,,,,,5,,64,100
115904,note_off,,,,,128,0,10,,,,,2,,69,100
115968,note_on,,,,,64,0,9,,,,,1,,81,100
115968,note_on,,,,,64,0,10,,,,,2,,72,100
116032,note_off,,,,,64,0,9,,,,,1,,81,100
116064,note_on,,,,,32,0,9,,,,,1,,69,100
116096,note_off,,,,,128,0,10,,,,,2,,72,100
116128,note_off,,,,,64,0,9,,,,,1,,69,100
116160,note_on,,,,,32,0,9,,,,,1,,72,100
116160,note_on,,,,,0,0,13,,,,,5,,64,100
116160,note_on,,,,,256,0,14,,,,,5,,57,100
116160,note_on,,,,,256,0,12,,,,,4,,45,100
116160,note_on,,,,,256,0,13,,,,,5,,72,100
116160,note_on,,,,,256,0,11,,,,,3,,57,100
116160,note_on,,,,,64,0,10,,,,,2,,69,100
116224,note_off,,,,,64,0,9,,,,,1,,72,100
116256,note_on,,,,,32,0,9,,,,,1,,76,100
116288,note_off,,,,,128,0,11,,,,,3,,57,100
116288,note_off,,,,,128,0,14,,,,,5,,57,100
116288,note_off,,,,,128,0,13,,,,,5,,72,100
116288,note_off,,,,,128,0,10,,,,,2,,69,100
116288,note_off,,,,,128,0,12,,,,,4,,45,100
116288,note_off,,,,,0,0,13,,,,,5,,64,100
116320,note_off,,,,,64,0,9,,,,,1,,76,100
116352,note_on,,,,,64,0,14,,,,,5,,60,100
116352,note_on,,,,,64,0,12,,,,,4,,48,100
116352,note_on,,,,,64,0,13,,,,,5,,69,100
116352,note_on,,,,,0,0,13,,,,,5,,76,100
116352,note_on,,,,,32,0,9,,,,,1,,81,100
116352,note_on,,,,,64,0,11,,,,,3,,60,100
116480,note_off,,,,,128,0,11,,,,,3,,60,100
116480,note_off,,,,,0,0,13,,,,,5,,76,100
116480,note_off,,,,,128,0,12,,,,,4,,48,100
116480,note_off,,,,,128,0,13,,,,,5,,69,100
116480,note_off,,,,,128,0,9,,,,,1,,81,100
116480,note_off,,,,,128,0,14,,,,,5,,60,100
116544,note_on,,,,,64,0,11,,,,,3,,57,100
116544,note_on,,,,,64,0,9,,,,,1,,81,100
116544,note_on,,,,,64,0,14,,,,,5,,57,100
116544,note_on,,,,,256,0,10,,,,,2,,69,100
116544,note_on,,,,,64,0,12,,,,,4,,45,100
116544,note_on,,,,,0,0,13,,,,,5,,72,100
116544,note_on,,,,,64,0,13,,,,,5,,64,100
116672,note_off,,,,,128,0,11,,,,,3,,57,100
116672,note_off,,,,,128,0,12,,,,,4,,45,100
116672,note_off,,,,,128,0,10,,,,,2,,69,100
116672,note_off,,,,,0,0,13,,,,,5,,72,100
116672,note_off,,,,,128,0,13,,,,,5,,64,100
116672,note_off,,,,,128,0,14,,,,,5,,57,100
116672,note_off,,,,,128,0,9,,,,,1,,81,100
116736,note_on,,,,,64,0,9,,,,,1,,81,100
116736,note_on,,,,,64,0,10,,,,,2,,72,100
116800,note_off,,,,,64,0,9,,,,,1,,81,100
116832,note_on,,,,,32,0,9,,,,,1,,69,100
116864,note_off,,,,,128,0,10,,,,,2,,72,100
116896,note_off,,,,,64,0,9,,,,,1,,69,100
116928,note_on,,,,,256,0,14,,,,,5,,57,100
116928,note_on,,,,,256,0,11,,,,,3,,57,100
116928,note_on,,,,,64,0,10,,,,,2,,69,100
116928,note_on,,,,,0,0,13,,,,,5,,72,100
116928,note_on,,,,,256,0,13,,,,,5,,64,100
116928,note_on,,,,,32,0,9,,,,,1,,72,100
116928,note_on,,,,,256,0,12,,,,,4,,45,100
116992,note_off,,,,,64,0,9,,,,,1,,72,100
117024,note_on,,,,,32,0,9,,,,,1,,76,100
117056,note_off,,,,,128,0,13,,,,,5,,64,100
117056,note_off,,,,,128,0,12,,,,,4,,45,100
117056,note_off,,,,,128,0,10,,,,,2,,69,100
117056,note_off,,,,,128,0,11,,,,,3,,57,100
117056,note_off,,,,,0,0,13,,,,,5,,72,100
117056,note_off,,,,,128,0,14,,,,,5,,57,100
117088,note_off,,,,,64,0,9,,,,,1,,76,100
117120,note_on,,,,,64,0,13,,,,,5,,70,100
117120,note_on,,,,,0,0,13,,,,,5,,65,100
117120,note_on,,,,,64,0,11,,,,,3,,62,100
117120,note_on,,,,,32,0,9,,,,,1,,82,100
117120,note_on,,,,,64,0,12,,,,,4,,50,100
117120,note_on,,,,,64,0,14,,,,,5,,62,100
117248,note_off,,,,,128,0,14,,,,,5,,62,100
117248,note_off,,,,,128,0,13,,,,,5,,70,100
117248,note_off,,,,,0,0,13,,,,,5,,65,100
117248,note_off,,,,,128,0,9,,,,,1,,82,100
117248,note_off,,,,,128,0,11,,,,,3,,62,100
117248,note_off,,,,,128,0,12,,,,,4,,50,100
117312,note_on,,,,,64,0,11,,,,,3,,61,100
117312,note_on,,,,,64,0,12,,,,,4,,49,100
117312,note_on,,,,,64,0,9,,,,,1,,82,100
117312,note_on,,,,,256,0,10,,,,,2,,64,100
117312,note_on,,,,,64,0,14,,,,,5,,61,100
117312,note_on,,,,,64,0,13,,,,,5,,67,100
117312,note_on,,,,,0,0,13,,,,,5,,70,100
117440,note_off,,,,,128,0,9,,,,,1,,82,100
117440,note_off,,,,,128,0,14,,,,,5,,61,100
117440,note_off,,,,,128,0,13,,,,,5,,67,100
117440,note_off,,,,,128,0,12,,,,,4,,49,100
117440,note_off,,,,,128,0,10,,,,,2,,64,100
117440,note_off,,,,,128,0,11,,,,,3,,61,100
117440,note_off,,,,,0,0,13,,,,,5,,70,100
117504,note_on,,,,,64,0,13,,,,,5,,65,100
117504,note_on,,,,,0,0,13,,,,,5,,70,100
117504,note_on,,,,,64,0,14,,,,,5,,62,100
117504,note_on,,,,,64,0,11,,,,,3,,62,100
117504,note_on,,,,,64,0,12,,,,,4,,50,100
117504,note_on,,,,,64,0,10,,,,,2,,65,100
117504,note_on,,,,,64,0,9,,,,,1,,82,100
117632,note_off,,,,,128,0,9,,,,,1,,82,100
117632,note_off,,,,,128,0,14,,,,,5,,62,100
117632,note_off,,,,,128,0,12,,,,,4,,50,100
117632,note_off,,,,,0,0,13,,,,,5,,70,100
117632,note_off,,,,,128,0,13,,,,,5,,65,100
117632,note_off,,,,,128,0,11,,,,,3,,62,100
117632,note_off,,,,,128,0,10,,,,,2,,65,100
117696,note_on,,,,,64,0,10,,,,,2,,64,100
117696,note_on,,,,,64,0,13,,,,,5,,68,100
117696,note_on,,,,,64,0,9,,,,,1,,81,100
117696,note_on,,,,,0,0,13,,,,,5,,71,100
117696,note_on,,,,,64,0,11,,,,,3,,64,100
117696,note_on,,,,,64,0,12,,,,,4,,52,100
117696,note_on,,,,,64,0,14,,,,,5,,64,100
117760,note_off,,,,,64,0,9,,,,,1,,81,100
117792,note_on,,,,,32,0,9,,,,,1,,80,100
117824,note_off,,,,,128,0,13,,,,,5,,68,100
117824,note_off,,,,,128,0,10,,,,,2,,64,100
117824,note_off,,,,,128,0,11,,,,,3,,64,100
117824,note_off,,,,,128,0,12,,,,,4,,52,100
117824,note_off,,,,,128,0,14,,,,,5,,64,100
117824,note_off,,,,,0,0,13,,,,,5,,71,100
117856,note_off,,,,,64,0,9,,,,,1,,80,100
117888,note_on,,,,,32,0,9,,,,,1,,81,100
117888,note_on,,,,,64,0,11,,,,,3,,65,100
117888,note_on,,,,,0,0,13,,,,,5,,74,100
117888,note_on,,,,,64,0,14,,,,,5,,65,100
117888,note_on,,,,,64,0,10,,,,,2,,62,100
117888,note_on,,,,,64,0,12,,,,,4,,53,100
117888,note_on,,,,,64,0,13,,,,,5,,69,100
118016,note_off,,,,,128,0,13,,,,,5,,69,100
118016,note_off,,,,,0,0,13,,,,,5,,74,100
118016,note_off,,,,,128,0,10,,,,,2,,62,100
118016,note_off,,,,,128,0,14,,,,,5,,65,100
118016,note_off,,,,,128,0,9,,,,,1,,81,100
118016,note_off,,,,,128,0,12,,,,,4,,53,100
118016,note_off,,,,,128,0,11,,,,,3,,65,100
118080,note_on,,,,,64,0,9,,,,,1,,83,100
118080,note_on,,,,,64,0,10,,,,,2,,74,100
118080,note_on,,,,,64,0,12,,,,,4,,50,100
118080,note_on,,,,,64,0,14,,,,,5,,62,100
118080,note_on,,,,,0,0,13,,,,,5,,71,100
118080,note_on,,,,,64,0,11,,,,,3,,62,100
118080,note_on,,,,,64,0,13,,,,,5,,65,100
118208,note_off,,,,,128,0,10,,,,,2,,74,100
118208,note_off,,,,,0,0,13,,,,,5,,71,100
118208,note_off,,,,,128,0,13,,,,,5,,65,100
118208,note_off,,,,,128,0,9,,,,,1,,83,100
118208,note_off,,,,,128,0,11,,,,,3,,62,100
118208,note_off,,,,,128,0,12,,,,,4,,50,100
118208,note_off,,,,,128,0,14,,,,,5,,62,100
118272,note_on,,,,,64,0,13,,,,,5,,68,100
118272,note_on,,,,,64,0,14,,,,,5,,59,100
118272,note_on,,,,,64,0,10,,,,,2,,68,100
118272,note_on,,,,,64,0,12,,,,,4,,47,100
118272,note_on,,,,,64,0,9,,,,,1,,74,100
118272,note_on,,,,,0,0,13,,,,,5,,62,100
118272,note_on,,,,,64,0,11,,,,,3,,59,100
118400,note_off,,,,,128,0,14,,,,,5,,59,100
118400,note_off,,,,,128,0,12,,,,,4,,47,100
118400,note_off,,,,,128,0,11,,,,,3,,59,100
118400,note_off,,,,,0,0,13,,,,,5,,62,100
118400,note_off,,,,,128,0,13,,,,,5,,68,100
118464,note_on,,,,,0,0,13,,,,,5,,60,100
118464,note_on,,,,,64,0,14,,,,,5,,57,100
118464,note_on,,,,,64,0,12,,,,,4,,45,100
118464,note_on,,,,,64,0,11,,,,,3,,57,100
118464,note_on,,,,,64,0,13,,,,,5,,64,100
118528,note_off,,,,,64,0,14,,,,,5,,57,100
118528,note_off,,,,,64,0,11,,,,,3,,57,100
118528,note_off,,,,,64,0,13,,,,,5,,60,100
118528,note_off,,,,,64,0,12,,,,,4,,45,100
118560,note_on,,,,,32,0,12,,,,,4,,44,100
118560,note_on,,,,,32,0,13,,,,,5,,59,100
118560,note_on,,,,,32,0,11,,,,,3,,56,100
118560,note_on,,,,,32,0,14,,,,,5,,56,100
118592,note_off,,,,,32,0,13,,,,,5,,64,100
118624,note_off,,,,,64,0,11,,,,,3,,56,100
118624,note_off,,,,,32,0,13,,,,,5,,59,100
118624,note_off,,,,,64,0,14,,,,,5,,56,100
118624,note_off,,,,,64,0,12,,,,,4,,44,100
118656,note_on,,,,,32,0,11,,,,,3,,57,100
118656,note_on,,,,,32,0,12,,,,,4,,45,100
118656,note_on,,,,,0,0,13,,,,,5,,64,100
118656,note_on,,,,,32,0,13,,,,,5,,60,100
118656,note_on,,,,,32,0,14,,,,,5,,57,100
118784,note_off,,,,,128,0,12,,,,,4,,45,100
118784,note_off,,,,,512,0,10,,,,,2,,68,100
118784,note_off,,,,,0,0,13,,,,,5,,64,100
118784,note_off,,,,,128,0,13,,,,,5,,60,100
118784,note_off,,,,,128,0,11,,,,,3,,57,100
118784,note_off,,,,,128,0,14,,,,,5,,57,100
118848,note_on,,,,,0,0,13,,,,,5,,62,100
118848,note_on,,,,,64,0,14,,,,,5,,59,100
118848,note_on,,,,,64,0,13,,,,,5,,65,100
118848,note_on,,,,,64,0,11,,,,,3,,59,100
118848,note_on,,,,,64,0,12,,,,,4,,47,100
118976,note_off,,,,,128,0,11,,,,,3,,59,100
118976,note_off,,,,,128,0,13,,,,,5,,65,100
118976,note_off,,,,,128,0,12,,,,,4,,47,100
118976,note_off,,,,,0,0,13,,,,,5,,62,100
118976,note_off,,,,,128,0,14,,,,,5,,59,100
119040,note_on,,,,,0,0,13,,,,,5,,62,100
119040,note_on,,,,,64,0,12,,,,,4,,40,100
119040,note_on,,,,,64,0,13,,,,,5,,64,100
119040,note_on,,,,,0,0,13,,,,,5,,68,100
119040,note_on,,,,,0,0,13,,,,,5,,59,100
119040,note_on,,,,,256,0,10,,,,,2,,71,100
119040,note_on,,,,,64,0,11,,,,,3,,52,100
119040,note_on,,,,,64,0,14,,,,,5,,52,100
119104,note_off,,,,,832,0,9,,,,,1,,74,100
119136,note_on,,,,,32,0,9,,,,,1,,64,100
119168,note_off,,,,,128,0,10,,,,,2,,71,100
119200,note_off,,,,,64,0,9,,,,,1,,64,100
119232,note_on,,,,,32,0,9,,,,,1,,68,100
119232,note_on,,,,,64,0,10,,,,,2,,64,100
119296,note_off,,,,,0,0,13,,,,,5,,59,100
119296,note_off,,,,,0,0,13,,,,,5,,68,100
119296,note_off,,,,,0,0,13,,,,,5,,62,100
119296,note_off,,,,,256,0,13,,,,,5,,64,100
119296,note_off,,,,,64,0,9,,,,,1,,68,100
119328,note_on,,,,,32,0,9,,,,,1,,71,100
119360,note_off,,,,,128,0,10,,,,,2,,64,100
119392,note_off,,,,,64,0,9,,,,,1,,71,100
119424,note_off,,,,,384,0,12,,,,,4,,40,100
119424,note_off,,,,,384,0,11,,,,,3,,52,100
119424,note_off,,,,,384,0,14,,,,,5,,52,100
119424,note_on,,,,,64,0,10,,,,,2,,68,100
119424,note_on,,,,,32,0,9,,,,,1,,74,100
119520,note_on,,,,,96,0,11,,,,,3,,52,100
119520,note_on,,,,,224,0,13,,,,,5,,56,100
119520,note_on,,,,,96,0,12,,,,,4,,40,100
119520,note_on,,,,,96,0,14,,,,,5,,52,100
119552,note_off,,,,,128,0,10,,,,,2,,68,100
119552,note_off,,,,,128,0,9,,,,,1,,74,100
119584,note_off,,,,,64,0,14,,,,,5,,52,100
119584,note_off,,,,,64,0,11,,,,,3,,52,100
119584,note_off,,,,,64,0,12,,,,,4,,40,100
119584,note_off,,,,,64,0,13,,,,,5,,56,100
119616,note_on,,,,,32,0,14,,,,,5,,56,100
119616,note_on,,,,,32,0,11,,,,,3,,56,100
119616,note_on,,,,,32,0,12,,,,,4,,44,100
119616,note_on,,,,,64,0,9,,,,,1,,74,100
119616,note_on,,,,,64,0,10,,,,,2,,71,100
119616,note_on,,,,,32,0,13,,,,,5,,59,100
119680,note_off,,,,,64,0,11,,,,,3,,56,100
119680,note_off,,,,,64,0,14,,,,,5,,56,100
119680,note_off,,,,,64,0,12,,,,,4,,44,100
119680,note_off,,,,,64,0,13,,,,,5,,59,100
119712,note_on,,,,,32,0,12,,,,,4,,47,100
119712,note_on,,,,,32,0,13,,,,,5,,62,100
119712,note_on,,,,,32,0,14,,,,,5,,59,100
119712,note_on,,,,,32,0,11,,,,,3,,59,100
119744,note_off,,,,,128,0,9,,,,,1,,74,100
119744,note_off,,,,,128,0,10,,,,,2,,71,100
119776,note_off,,,,,64,0,14,,,,,5,,59,100
119776,note_off,,,,,64,0,12,,,,,4,,47,100
119776,note_off,,,,,64,0,11,,,,,3,,59,100
119776,note_off,,,,,64,0,13,,,,,5,,62,100
119808,note_on,,,,,64,0,9,,,,,1,,74,100
119808,note_on,,,,,32,0,12,,,,,4,,40,100
119808,note_on,,,,,32,0,14,,,,,5,,52,100
119808,note_on,,,,,0,0,13,,,,,5,,68,100
119808,note_on,,,,,0,0,13,,,,,5,,62,100
119808,note_on,,,,,0,0,13,,,,,5,,59,100
119808,note_on,,,,,64,0,10,,,,,2,,71,100
119808,note_on,,,,,32,0,11,,,,,3,,52,100
119808,note_on,,,,,32,0,13,,,,,5,,64,100
119872,note_off,,,,,64,0,9,,,,,1,,74,100
119904,note_on,,,,,32,0,9,,,,,1,,64,100
119936,note_off,,,,,128,0,10,,,,,2,,71,100
119968,note_off,,,,,64,0,9,,,,,1,,64,100
120000,note_on,,,,,32,0,9,,,,,1,,68,100
120000,note_on,,,,,64,0,10,,,,,2,,64,100
120064,note_off,,,,,256,0,13,,,,,5,,64,100
120064,note_off,,,,,64,0,9,,,,,1,,68,100
120064,note_off,,,,,0,0,13,,,,,5,,59,100
120064,note_off,,,,,0,0,13,,,,,5,,62,100
120064,note_off,,,,,0,0,13,,,,,5,,68,100
120096,note_on,,,,,32,0,9,,,,,1,,71,100
120128,note_off,,,,,128,0,10,,,,,2,,64,100
120160,note_off,,,,,64,0,9,,,,,1,,71,100
120192,note_on,,,,,64,0,10,,,,,2,,68,100
120192,note_on,,,,,32,0,9,,,,,1,,74,100
120192,note_off,,,,,384,0,12,,,,,4,,40,100
120192,note_off,,,,,384,0,11,,,,,3,,52,100
120192,note_off,,,,,384,0,14,,,,,5,,52,100
120288,note_on,,,,,96,0,12,,,,,4,,40,100
120288,note_on,,,,,96,0,14,,,,,5,,52,100
120288,note_on,,,,,96,0,11,,,,,3,,52,100
120288,note_on,,,,,224,0,13,,,,,5,,56,100
120320,note_off,,,,,128,0,9,,,,,1,,74,100
120320,note_off,,,,,128,0,10,,,,,2,,68,100
120352,note_off,,,,,64,0,11,,,,,3,,52,100
120352,note_off,,,,,64,0,13,,,,,5,,56,100
120352,note_off,,,,,64,0,14,,,,,5,,52,100
120352,note_off,,,,,64,0,12,,,,,4,,40,100
120384,note_on,,,,,32,0,14,,,,,5,,56,100
120384,note_on,,,,,32,0,12,,,,,4,,44,100
120384,note_on,,,,,32,0,13,,,,,5,,59,100
120384,note_on,,,,,64,0,10,,,,,2,,71,100
120384,note_on,,,,,64,0,9,,,,,1,,74,100
120384,note_on,,,,,32,0,11,,,,,3,,56,100
120448,note_off,,,,,64,0,12,,,,,4,,44,100
120448,note_off,,,,,64,0,14,,,,,5,,56,100
120448,note_off,,,,,64,0,11,,,,,3,,56,100
120448,note_off,,,,,64,0,13,,,,,5,,59,100
120480,note_on,,,,,32,0,14,,,,,5,,59,100
120480,note_on,,,,,32,0,12,,,,,4,,47,100
120480,note_on,,,,,32,0,11,,,,,3,,59,100
120480,note_on,,,,,32,0,13,,,,,5,,62,100
120512,note_off,,,,,128,0,10,,,,,2,,71,100
120512,note_off,,,,,128,0,9,,,,,1,,74,100
120544,note_off,,,,,64,0,12,,,,,4,,47,100
120544,note_off,,,,,64,0,14,,,,,5,,59,100
120544,note_off,,,,,64,0,11,,,,,3,,59,100
120544,note_off,,,,,64,0,13,,,,,5,,62,100
120576,set_tempo,,,,,120576,1,0,,600000,,,,,,
120576,note_on,,,,,64,0,9,,,,,1,,74,100
120576,note_on,,,,,32,0,12,,,,,4,,40,100
120576,note_on,,,,,0,0,13,,,,,5,,68,100
120576,note_on,,,,,32,0,14,,,,,5,,52,100
120576,note_on,,,,,32,0,13,,,,,5,,64,100
120576,note_on,,,,,0,0,13,,,,,5,,59,100
120576,note_on,,,,,0,0,13,,,,,5,,62,100
120576,note_on,,,,,32,0,11,,,,,3,,52,100
120576,note_on,,,,,64,0,10,,,,,2,,71,100
120640,note_off,,,,,64,0,9,,,,,1,,74,100
120672,note_on,,,,,32,0,9,,,,,1,,64,100
120688,set_tempo,,,,,112,1,0,,606060,,,,,,
120704,note_off,,,,,128,0,10,,,,,2,,71,100
120736,note_off,,,,,64,0,9,,,,,1,,64,100
120768,note_on,,,,,32,0,9,,,,,1,,68,100
120768,note_on,,,,,64,0,10,,,,,2,,64,100
120804,set_tempo,,,,,116,1,0,,612244,,,,,,
120832,note_off,,,,,0,0,13,,,,,5,,62,100
120832,note_off,,,,,0,0,13,,,,,5,,68,100
120832,note_off,,,,,256,0,13,,,,,5,,64,100
120832,note_off,,,,,64,0,9,,,,,1,,68,100
120832,note_off,,,,,0,0,13,,,,,5,,59,100
120864,note_on,,,,,32,0,9,,,,,1,,71,100
120896,note_off,,,,,128,0,10,,,,,2,,64,100
120920,set_tempo,,,,,116,1,0,,618556,,,,,,
120928,note_off,,,,,64,0,9,,,,,1,,71,100
120960,note_on,,,,,32,0,9,,,,,1,,74,100
120960,note_off,,,,,384,0,12,,,,,4,,40,100
120960,note_off,,,,,384,0,14,,,,,5,,52,100
120960,note_on,,,,,64,0,10,,,,,2,,68,100
120960,note_off,,,,,384,0,11,,,,,3,,52,100
121036,set_tempo,,,,,116,1,0,,625000,,,,,,
121056,note_on,,,,,96,0,12,,,,,4,,47,100
121056,note_on,,,,,96,0,14,,,,,5,,59,100
121056,note_on,,,,,224,0,13,,,,,5,,74,100
121056,note_on,,,,,96,0,11,,,,,3,,59,100
121088,note_off,,,,,128,0,9,,,,,1,,74,100
121088,note_off,,,,,128,0,10,,,,,2,,68,100
121120,note_off,,,,,64,0,11,,,,,3,,59,100
121120,note_off,,,,,64,0,13,,,,,5,,74,100
121120,note_off,,,,,64,0,12,,,,,4,,47,100
121120,note_off,,,,,64,0,14,,,,,5,,59,100
121152,note_on,,,,,64,0,10,,,,,2,,71,100
121152,set_tempo,,,,,116,1,0,,631578,,,,,,
121152,note_on,,,,,32,0,11,,,,,3,,56,100
121152,note_on,,,,,32,0,13,,,,,5,,71,100
121152,note_on,,,,,64,0,9,,,,,1,,76,100
121152,note_on,,,,,32,0,12,,,,,4,,44,100
121152,note_on,,,,,32,0,14,,,,,5,,56,100
121216,note_off,,,,,64,0,12,,,,,4,,44,100
121216,note_off,,,,,64,0,11,,,,,3,,56,100
121216,note_off,,,,,64,0,14,,,,,5,,56,100
121216,note_off,,,,,64,0,13,,,,,5,,71,100
121248,note_on,,,,,32,0,14,,,,,5,,52,100
121248,note_on,,,,,32,0,12,,,,,4,,40,100
121248,note_on,,,,,32,0,13,,,,,5,,68,100
121248,note_on,,,,,32,0,11,,,,,3,,52,100
121264,set_tempo,,,,,112,1,0,,638297,,,,,,
121280,note_off,,,,,128,0,10,,,,,2,,71,100
121280,note_off,,,,,128,0,9,,,,,1,,76,100
121312,note_off,,,,,64,0,13,,,,,5,,68,100
121312,note_off,,,,,64,0,12,,,,,4,,40,100
121312,note_off,,,,,64,0,11,,,,,3,,52,100
121312,note_off,,,,,64,0,14,,,,,5,,52,100
121344,note_on,,,,,0,0,13,,,,,5,,69,100
121344,set_tempo,,,,,80,1,0,,740740,,,,,,
121344,note_on,,,,,32,0,13,,,,,5,,72,100
121344,note_on,,,,,64,0,10,,,,,2,,64,100
121344,note_on,,,,,0,0,13,,,,,5,,64,100
121344,note_on,,,,,32,0,14,,,,,5,,57,100
121344,note_on,,,,,32,0,11,,,,,3,,57,100
121344,note_on,,,,,64,0,9,,,,,1,,72,100
121344,note_on,,,,,32,0,12,,,,,4,,45,100
121380,set_tempo,,,,,36,1,0,,645161,,,,,,
121472,note_off,,,,,0,0,13,,,,,5,,69,100
121472,note_off,,,,,128,0,13,,,,,5,,72,100
121472,note_off,,,,,128,0,11,,,,,3,,57,100
121472,note_off,,,,,128,0,10,,,,,2,,64,100
121472,note_off,,,,,128,0,9,,,,,1,,72,100
121472,note_off,,,,,128,0,14,,,,,5,,57,100
121472,note_off,,,,,0,0,13,,,,,5,,64,100
121472,note_off,,,,,128,0,12,,,,,4,,45,100
121496,set_tempo,,,,,116,1,0,,652173,,,,,,
121536,note_on,,,,,64,0,13,,,,,5,,69,100
121536,note_on,,,,,0,0,13,,,,,5,,64,100
121536,note_on,,,,,64,0,10,,,,,2,,69,101
121536,note_on,,,,,64,0,9,,,,,1,,71,101
121536,note_on,,,,,64,0,12,,,,,4,,48,101
121536,note_on,,,,,64,0,11,,,,,3,,60,101
121536,note_on,,,,,64,0,14,,,,,5,,60,100
121600,note_off,,,,,64,0,9,,,,,1,,71,100
121612,set_tempo,,,,,116,1,0,,659340,,,,,,
121632,note_on,,,,,32,0,9,,,,,1,,69,102
121664,note_off,,,,,128,0,12,,,,,4,,48,100
121664,note_off,,,,,128,0,14,,,,,5,,60,100
121664,note_off,,,,,128,0,11,,,,,3,,60,100
121664,note_off,,,,,0,0,13,,,,,5,,64,100
121664,note_off,,,,,128,0,10,,,,,2,,69,100
121664,note_off,,,,,128,0,13,,,,,5,,69,100
121696,note_off,,,,,64,0,9,,,,,1,,69,100
121728,note_on,,,,,32,0,9,,,,,1,,77,103
121728,note_on,,,,,64,0,11,,,,,3,,62,103
121728,note_on,,,,,64,0,13,,,,,5,,74,100
121728,note_on,,,,,0,0,13,,,,,5,,69,100
121728,note_on,,,,,0,0,13,,,,,5,,65,100
121728,note_on,,,,,64,0,12,,,,,4,,50,103
121728,note_on,,,,,64,0,10,,,,,2,,69,103
121728,set_tempo,,,,,116,1,0,,666666,,,,,,
121728,note_on,,,,,64,0,14,,,,,5,,62,100
121784,set_tempo,,,,,56,1,0,,674157,,,,,,
121840,set_tempo,,,,,56,1,0,,681818,,,,,,
121856,note_off,,,,,128,0,11,,,,,3,,62,100
121856,note_off,,,,,128,0,10,,,,,2,,69,100
121856,note_off,,,,,0,0,13,,,,,5,,65,100
121856,note_off,,,,,0,0,13,,,,,5,,69,100
121856,note_off,,,,,128,0,13,,,,,5,,74,100
121856,note_off,,,,,128,0,9,,,,,1,,77,100
121856,note_off,,,,,128,0,14,,,,,5,,62,100
121856,note_off,,,,,128,0,12,,,,,4,,50,100
121900,set_tempo,,,,,60,1,0,,689655,,,,,,
121920,note_on,,,,,64,0,14,,,,,5,,59,100
121920,note_on,,,,,64,0,9,,,,,1,,76,105
121920,note_on,,,,,64,0,10,,,,,2,,74,105
121920,note_on,,,,,64,0,11,,,,,3,,59,105
121920,note_on,,,,,64,0,13,,,,,5,,68,100
121920,note_on,,,,,0,0,13,,,,,5,,62,100
121920,note_on,,,,,64,0,12,,,,,4,,47,105
121956,set_tempo,,,,,56,1,0,,697674,,,,,,
121984,note_off,,,,,64,0,9,,,,,1,,76,100
122016,note_on,,,,,32,0,9,,,,,1,,74,106
122016,set_tempo,,,,,60,1,0,,705882,,,,,,
122048,note_off,,,,,128,0,10,,,,,2,,74,100
122048,note_off,,,,,128,0,13,,,,,5,,68,100
122048,note_off,,,,,128,0,12,,,,,4,,47,100
122048,note_off,,,,,128,0,14,,,,,5,,59,100
122048,note_off,,,,,128,0,11,,,,,3,,59,100
122048,note_off,,,,,0,0,13,,,,,5,,62,100
122072,set_tempo,,,,,56,1,0,,714285,,,,,,
122080,note_off,,,,,64,0,9,,,,,1,,74,100
122112,note_on,,,,,0,0,13,,,,,5,,69,100
122112,note_on,,,,,0,0,13,,,,,5,,64,100
122112,note_on,,,,,32,0,9,,,,,1,,76,107
122112,note_on,,,,,64,0,11,,,,,3,,60,107
122112,note_on,,,,,64,0,14,,,,,5,,60,100
122112,note_on,,,,,64,0,13,,,,,5,,72,100
122112,note_on,,,,,64,0,12,,,,,4,,48,107
122112,note_on,,,,,64,0,10,,,,,2,,69,107
122128,set_tempo,,,,,56,1,0,,722891,,,,,,
122188,set_tempo,,,,,60,1,0,,731707,,,,,,
122240,note_off,,,,,128,0,14,,,,,5,,60,100
122240,note_off,,,,,128,0,10,,,,,2,,69,100
122240,note_off,,,,,128,0,11,,,,,3,,60,100
122240,note_off,,,,,128,0,13,,,,,5,,72,100
122240,note_off,,,,,0,0,13,,,,,5,,69,100
122240,note_off,,,,,0,0,13,,,,,5,,64,100
122240,note_off,,,,,128,0,9,,,,,1,,76,100
122240,note_off,,,,,128,0,12,,,,,4,,48,100
122244,set_tempo,,,,,56,1,0,,740740,,,,,,
122304,note_on,,,,,0,0,13,,,,,5,,69,100
122304,set_tempo,,,,,60,1,0,,750000,,,,,,
122304,note_on,,,,,64,0,12,,,,,4,,50,109
122304,note_on,,,,,64,0,13,,,,,5,,65,100
122304,note_on,,,,,64,0,14,,,,,5,,62,100
122304,note_on,,,,,64,0,11,,,,,3,,62,109
122304,note_on,,,,,64,0,10,,,,,2,,65,109
122304,note_on,,,,,64,0,9,,,,,1,,81,109
122340,set_tempo,,,,,36,1,0,,759493,,,,,,
122380,set_tempo,,,,,40,1,0,,769230,,,,,,
122416,set_tempo,,,,,36,1,0,,779220,,,,,,
122432,note_off,,,,,128,0,12,,,,,4,,50,100
122432,note_off,,,,,128,0,14,,,,,5,,62,100
122432,note_off,,,,,0,0,13,,,,,5,,69,100
122432,note_off,,,,,128,0,13,,,,,5,,65,100
122432,note_off,,,,,128,0,9,,,,,1,,81,100
122432,note_off,,,,,128,0,11,,,,,3,,62,100
122432,note_off,,,,,128,0,10,,,,,2,,65,100
122456,set_tempo,,,,,40,1,0,,789473,,,,,,
122496,note_on,,,,,64,0,9,,,,,1,,64,111
122496,note_on,,,,,64,0,12,,,,,4,,52,111
122496,note_on,,,,,64,0,11,,,,,3,,64,111
122496,note_on,,,,,64,0,14,,,,,5,,64,100
122496,note_on,,,,,64,0,10,,,,,2,,64,111
122496,note_on,,,,,0,0,13,,,,,5,,71,100
122496,note_on,,,,,64,0,13,,,,,5,,69,100
122496,set_tempo,,,,,40,1,0,,800000,,,,,,
122532,set_tempo,,,,,36,1,0,,810810,,,,,,
122572,set_tempo,,,,,40,1,0,,821917,,,,,,
122608,set_tempo,,,,,36,1,0,,833333,,,,,,
122624,note_off,,,,,128,0,14,,,,,5,,64,100
122624,note_off,,,,,128,0,10,,,,,2,,64,100
122624,note_off,,,,,128,0,9,,,,,1,,64,100
122624,note_off,,,,,128,0,12,,,,,4,,52,100
122624,note_off,,,,,0,0,13,,,,,5,,71,100
122624,note_off,,,,,128,0,13,,,,,5,,69,100
122624,note_off,,,,,128,0,11,,,,,3,,64,100
122648,set_tempo,,,,,40,1,0,,845070,,,,,,
122688,note_on,,,,,64,0,11,,,,,3,,52,113
122688,note_on,,,,,0,0,13,,,,,5,,71,100
122688,note_on,,,,,64,0,12,,,,,4,,40,113
122688,note_on,,,,,64,0,13,,,,,5,,68,100
122688,note_on,,,,,64,0,9,,,,,1,,80,113
122688,note_on,,,,,64,0,10,,,,,2,,64,113
122688,note_on,,,,,64,0,14,,,,,5,,52,100
122688,set_tempo,,,,,40,1,0,,857142,,,,,,
122696,set_tempo,,,,,8,1,0,,869565,,,,,,
122704,set_tempo,,,,,8,1,0,,882352,,,,,,
122716,set_tempo,,,,,12,1,0,,895522,,,,,,
122724,set_tempo,,,,,8,1,0,,909090,,,,,,
122736,set_tempo,,,,,12,1,0,,923076,,,,,,
122744,set_tempo,,,,,8,1,0,,937500,,,,,,
122752,set_tempo,,,,,8,1,0,,952380,,,,,,
122764,set_tempo,,,,,12,1,0,,967741,,,,,,
122772,set_tempo,,,,,8,1,0,,983606,,,,,,
122784,set_tempo,,,,,12,1,0,,1000000,,,,,,
122792,set_tempo,,,,,8,1,0,,1016949,,,,,,
122800,set_tempo,,,,,8,1,0,,1034482,,,,,,
122812,set_tempo,,,,,12,1,0,,1052631,,,,,,
122816,note_off,,,,,128,0,10,,,,,2,,64,100
122816,note_off,,,,,128,0,11,,,,,3,,52,100
122816,note_off,,,,,128,0,14,,,,,5,,52,100
122816,note_off,,,,,128,0,12,,,,,4,,40,100
122816,note_off,,,,,0,0,13,,,,,5,,71,100
122816,note_off,,,,,128,0,13,,,,,5,,68,100
122816,note_off,,,,,128,0,9,,,,,1,,80,100
122820,set_tempo,,,,,8,1,0,,1071428,,,,,,
122832,set_tempo,,,,,12,1,0,,1090909,,,,,,
122840,set_tempo,,,,,8,1,0,,1111111,,,,,,
122848,set_tempo,,,,,8,1,0,,1132075,,,,,,
122860,set_tempo,,,,,12,1,0,,1153846,,,,,,
122868,set_tempo,,,,,8,1,0,,1176470,,,,,,
122880,note_on,,,,,64,0,10,,,,,2,,60,114
122880,note_on,,,,,64,0,12,,,,,4,,33,114
122880,note_on,,,,,64,0,11,,,,,3,,45,114
122880,end_of_track,,,,,0,1,0,,,,,,,,
122880,set_tempo,,,,,12,1,0,,800000,,,,,,
122880,note_on,,,,,64,0,14,,,,,5,,45,100
122880,note_on,,,,,64,0,9,,,,,1,,81,114
122916,note_on,,,,,100,0,13,,,,,5,,57,100
122956,note_on,,,,,40,0,13,,,,,5,,60,100
122996,note_on,,,,,40,0,13,,,,,5,,64,100
123036,note_on,,,,,40,0,13,,,,,5,,69,100
123908,end_of_track,,,,,0,1,14,,,,,,,,
123908,note_off,,,,,1028,0,12,,,,,4,,33,100
123908,note_off,,,,,1028,0,14,,,,,5,,45,100
123908,end_of_track,,,,,0,1,11,,,,,,,,
123908,note_off,,,,,1028,0,11,,,,,3,,45,100
123908,note_off,,,,,1028,0,9,,,,,1,,81,100
123908,note_off,,,,,1028,0,10,,,,,2,,60,100
123908,end_of_track,,,,,0,1,10,,,,,,,,
123908,end_of_track,,,,,0,1,12,,,,,,,,
123944,note_off,,,,,908,0,13,,,,,5,,57,100
123984,note_off,,,,,40,0,13,,,,,5,,60,100
124024,note_off,,,,,40,0,13,,,,,5,,64,100
124064,end_of_track,,,,,0,1,13,,,,,,,,
124064,note_off,,,,,40,0,13,,,,,5,,69,100
125568,program_change,,,,,1660,0,9,,,,,1,48,,
125568,end_of_track,,,,,0,1,9,,,,,,,,
