tick,type,time,meta,track,tempo,key,numerator,denominator,clocks_per_click,notated_32nd_notes_per_beat,port,program,channel,control,value,note,velocity
0,track_name,0,1,0,,,,,,,,,,,,,
0,control_change,0,0,5,,,,,,,,,2,7,100,,
0,program_change,0,0,5,,,,,,,,48,2,,,,
0,track_name,0,1,5,,,,,,,,,,,,,
0,midi_port,0,1,5,,,,,,,0,,,,,,
0,time_signature,0,1,4,,,3,4,24,8,,,,,,,
0,key_signature,0,1,4,,A,,,,,,,,,,,
0,control_change,0,0,4,,,,,,,,,1,10,127,,
0,control_change,0,0,4,,,,,,,,,1,7,127,,
0,program_change,0,0,4,,,,,,,,48,1,,,,
0,program_change,0,0,4,,,,,,,,48,1,,,,
0,track_name,0,1,4,,,,,,,,,,,,,
0,midi_port,0,1,4,,,,,,,0,,,,,,
0,note_on,0,0,3,,,,,,,,,0,,,81,110
0,control_change,0,0,3,,,,,,,,,0,10,64,,
0,time_signature,0,1,3,,,3,4,24,8,,,,,,,
0,key_signature,0,1,3,,A,,,,,,,,,,,
0,control_change,0,0,3,,,,,,,,,0,10,0,,
0,control_change,0,0,3,,,,,,,,,0,7,127,,
0,program_change,0,0,3,,,,,,,,48,0,,,,
0,track_name,0,1,3,,,,,,,,,,,,,
0,midi_port,0,1,3,,,,,,,0,,,,,,
0,control_change,0,0,10,,,,,,,,,10,10,64,,
0,note_on,0,0,2,,,,,,,,,6,,,57,110
0,time_signature,0,1,2,,,3,4,24,8,,,,,,,
0,key_signature,0,1,2,,A,,,,,,,,,,,
0,control_change,0,0,2,,,,,,,,,6,10,64,,
0,control_change,0,0,2,,,,,,,,,6,7,127,,
0,program_change,0,0,2,,,,,,,,6,6,,,,
0,program_change,0,0,2,,,,,,,,6,6,,,,
0,control_change,0,0,5,,,,,,,,,2,10,0,,
0,key_signature,0,1,5,,A,,,,,,,,,,,
0,time_signature,0,1,5,,,3,4,24,8,,,,,,,
0,note_on,0,0,5,,,,,,,,,2,,,61,60
0,control_change,0,0,10,,,,,,,,,10,7,127,,
0,track_name,0,1,10,,,,,,,,,,,,,
0,midi_port,0,1,10,,,,,,,0,,,,,,
0,end_of_track,0,1,9,,,,,,,,,,,,,
0,control_change,0,0,9,,,,,,,,,9,10,64,,
0,control_change,0,0,9,,,,,,,,,9,7,127,,
0,track_name,0,1,9,,,,,,,,,,,,,
0,midi_port,0,1,9,,,,,,,0,,,,,,
0,end_of_track,0,1,8,,,,,,,,,,,,,
0,control_change,0,0,8,,,,,,,,,8,10,64,,
0,control_change,0,0,8,,,,,,,,,8,7,127,,
0,track_name,0,1,8,,,,,,,,,,,,,
0,midi_port,0,1,8,,,,,,,0,,,,,,
0,note_on,0,0,7,,,,,,,,,7,,,45,60
0,track_name,0,1,2,,,,,,,,,,,,,
0,time_signature,0,1,7,,,3,4,24,8,,,,,,,
0,key_signature,0,1,7,,A,,,,,,,,,,,
0,control_change,0,0,7,,,,,,,,,7,10,64,,
0,control_change,0,0,7,,,,,,,,,7,7,100,,
0,track_name,0,1,7,,,,,,,,,,,,,
0,midi_port,0,1,7,,,,,,,0,,,,,,
0,note_on,0,0,6,,,,,,,,,3,,,57,60
0,time_signature,0,1,6,,,3,4,24,8,,,,,,,
0,key_signature,0,1,6,,A,,,,,,,,,,,
0,control_change,0,0,6,,,,,,,,,3,10,64,,
0,control_change,0,0,6,,,,,,,,,3,7,100,,
0,program_change,0,0,6,,,,,,,,48,3,,,,
0,program_change,0,0,6,,,,,,,,48,3,,,,
0,track_name,0,1,6,,,,,,,,,,,,,
0,midi_port,0,1,6,,,,,,,0,,,,,,
0,program_change,0,0,7,,,,,,,,48,7,,,,
0,midi_port,0,1,2,,,,,,,0,,,,,,
0,end_of_track,0,1,10,,,,,,,,,,,,,
0,text,0,1,0,,,,,,,,,,,,,
0,note_on,0,0,1,,,,,,,,,5,,,81,110
0,note_on,0,0,1,,,,,,,,,5,,,76,110
0,time_signature,0,1,0,,,3,4,24,8,,,,,,,
0,key_signature,0,1,0,,A,,,,,,,,,,,
0,set_tempo,0,1,0,480000,,,,,,,,,,,,
0,copyright,0,1,0,,,,,,,,,,,,,
0,text,0,1,0,,,,,,,,,,,,,
0,midi_port,0,1,1,,,,,,,0,,,,,,
0,track_name,0,1,1,,,,,,,,,,,,,
0,copyright,0,1,0,,,,,,,,,,,,,
0,program_change,0,0,1,,,,,,,,6,5,,,,
0,program_change,0,0,1,,,,,,,,6,5,,,,
0,time_signature,0,1,1,,,3,4,24,8,,,,,,,
0,key_signature,0,1,1,,A,,,,,,,,,,,
0,control_change,0,0,1,,,,,,,,,5,10,64,,
0,control_change,0,0,1,,,,,,,,,5,7,127,,
0,note_on,0,0,1,,,,,,,,,5,,,73,110
94,note_on,0,0,1,,,,,,,,,5,,,76,0
94,note_on,94,0,7,,,,,,,,,7,,,45,0
94,note_on,94,0,5,,,,,,,,,2,,,61,0
94,note_on,0,0,1,,,,,,,,,5,,,81,0
94,note_on,94,0,1,,,,,,,,,5,,,73,0
94,note_on,94,0,2,,,,,,,,,6,,,57,0
94,note_on,94,0,6,,,,,,,,,3,,,57,0
94,note_on,94,0,3,,,,,,,,,0,,,81,0
96,note_on,96,0,4,,,,,,,,,1,,,76,75
96,note_on,2,0,5,,,,,,,,,2,,,64,60
96,note_on,2,0,3,,,,,,,,,0,,,69,110
96,note_on,2,0,1,,,,,,,,,5,,,69,110
96,note_on,2,0,6,,,,,,,,,3,,,49,60
96,note_on,2,0,7,,,,,,,,,7,,,37,60
96,note_on,2,0,2,,,,,,,,,6,,,49,110
128,note_on,32,0,4,,,,,,,,,1,,,76,0
190,note_on,94,0,5,,,,,,,,,2,,,64,0
190,note_on,94,0,6,,,,,,,,,3,,,49,0
190,note_on,94,0,7,,,,,,,,,7,,,37,0
190,note_on,94,0,2,,,,,,,,,6,,,49,0
192,note_on,2,0,2,,,,,,,,,6,,,45,110
192,note_on,64,0,4,,,,,,,,,1,,,76,75
192,note_on,2,0,6,,,,,,,,,3,,,45,60
192,note_on,2,0,5,,,,,,,,,2,,,61,60
192,note_on,2,0,7,,,,,,,,,7,,,33,60
224,note_on,32,0,4,,,,,,,,,1,,,76,0
286,note_on,190,0,1,,,,,,,,,5,,,69,0
286,note_on,190,0,3,,,,,,,,,0,,,69,0
288,note_on,2,0,3,,,,,,,,,0,,,74,110
288,note_on,2,0,1,,,,,,,,,5,,,74,110
288,note_on,64,0,4,,,,,,,,,1,,,76,75
320,note_on,32,0,4,,,,,,,,,1,,,76,0
352,note_on,160,0,7,,,,,,,,,7,,,33,0
352,note_on,160,0,5,,,,,,,,,2,,,61,0
352,note_on,160,0,2,,,,,,,,,6,,,45,0
352,note_on,160,0,6,,,,,,,,,3,,,45,0
382,note_on,94,0,3,,,,,,,,,0,,,74,0
382,note_on,94,0,1,,,,,,,,,5,,,74,0
384,note_on,2,0,1,,,,,,,,,5,,,73,110
384,note_on,2,0,3,,,,,,,,,0,,,73,110
384,note_on,64,0,4,,,,,,,,,1,,,76,75
416,note_on,32,0,4,,,,,,,,,1,,,76,0
478,note_on,94,0,1,,,,,,,,,5,,,73,0
478,note_on,94,0,3,,,,,,,,,0,,,73,0
480,note_on,128,0,5,,,,,,,,,2,,,64,60
480,note_on,128,0,2,,,,,,,,,6,,,52,110
480,note_on,128,0,6,,,,,,,,,3,,,52,60
480,note_on,2,0,3,,,,,,,,,0,,,71,110
480,note_on,2,0,1,,,,,,,,,5,,,68,110
480,note_on,0,0,1,,,,,,,,,5,,,71,110
480,note_on,128,0,7,,,,,,,,,7,,,40,60
480,note_on,64,0,4,,,,,,,,,1,,,76,75
512,note_on,32,0,4,,,,,,,,,1,,,76,0
574,note_on,94,0,7,,,,,,,,,7,,,40,0
574,note_on,94,0,1,,,,,,,,,5,,,68,0
574,note_on,0,0,1,,,,,,,,,5,,,71,0
574,note_on,94,0,5,,,,,,,,,2,,,64,0
574,note_on,94,0,6,,,,,,,,,3,,,52,0
574,note_on,94,0,2,,,,,,,,,6,,,52,0
574,note_on,94,0,3,,,,,,,,,0,,,71,0
576,note_on,2,0,6,,,,,,,,,3,,,57,60
576,note_on,2,0,1,,,,,,,,,5,,,64,110
576,note_on,0,0,1,,,,,,,,,5,,,73,110
576,note_on,2,0,3,,,,,,,,,0,,,73,110
576,note_on,2,0,2,,,,,,,,,6,,,57,110
576,note_on,2,0,5,,,,,,,,,2,,,61,60
576,note_on,2,0,7,,,,,,,,,7,,,45,60
576,note_on,64,0,4,,,,,,,,,1,,,76,75
608,note_on,32,0,4,,,,,,,,,1,,,76,0
670,note_on,94,0,1,,,,,,,,,5,,,64,0
670,note_on,0,0,1,,,,,,,,,5,,,73,0
670,note_on,94,0,6,,,,,,,,,3,,,57,0
670,note_on,94,0,3,,,,,,,,,0,,,73,0
670,note_on,94,0,7,,,,,,,,,7,,,45,0
670,note_on,94,0,2,,,,,,,,,6,,,57,0
670,note_on,94,0,5,,,,,,,,,2,,,61,0
672,note_on,2,0,1,,,,,,,,,5,,,69,110
672,note_on,2,0,6,,,,,,,,,3,,,49,60
672,note_on,2,0,3,,,,,,,,,0,,,69,110
672,note_on,2,0,5,,,,,,,,,2,,,64,60
672,note_on,64,0,4,,,,,,,,,1,,,76,75
672,note_on,2,0,7,,,,,,,,,7,,,37,60
672,note_on,2,0,2,,,,,,,,,6,,,49,110
704,note_on,32,0,4,,,,,,,,,1,,,76,0
766,note_on,94,0,2,,,,,,,,,6,,,49,0
766,note_on,94,0,5,,,,,,,,,2,,,64,0
766,note_on,94,0,7,,,,,,,,,7,,,37,0
766,note_on,94,0,6,,,,,,,,,3,,,49,0
768,note_on,2,0,2,,,,,,,,,6,,,45,110
768,note_on,2,0,5,,,,,,,,,2,,,61,60
768,note_on,64,0,4,,,,,,,,,1,,,76,75
768,note_on,2,0,6,,,,,,,,,3,,,45,60
768,note_on,2,0,7,,,,,,,,,7,,,33,60
800,note_on,32,0,4,,,,,,,,,1,,,76,0
862,note_on,190,0,3,,,,,,,,,0,,,69,0
862,note_on,190,0,1,,,,,,,,,5,,,69,0
864,note_on,2,0,3,,,,,,,,,0,,,76,110
864,note_on,64,0,4,,,,,,,,,1,,,76,75
864,note_on,2,0,1,,,,,,,,,5,,,76,110
896,note_on,32,0,4,,,,,,,,,1,,,76,0
928,note_on,160,0,7,,,,,,,,,7,,,33,0
928,note_on,160,0,2,,,,,,,,,6,,,45,0
928,note_on,160,0,6,,,,,,,,,3,,,45,0
928,note_on,160,0,5,,,,,,,,,2,,,61,0
958,note_on,94,0,3,,,,,,,,,0,,,76,0
958,note_on,94,0,1,,,,,,,,,5,,,76,0
960,note_on,2,0,1,,,,,,,,,5,,,78,110
960,note_on,2,0,3,,,,,,,,,0,,,78,110
960,note_on,64,0,4,,,,,,,,,1,,,76,75
992,note_on,32,0,4,,,,,,,,,1,,,76,0
1054,note_on,94,0,3,,,,,,,,,0,,,78,0
1054,note_on,94,0,1,,,,,,,,,5,,,78,0
1056,note_on,0,0,1,,,,,,,,,5,,,80,110
1056,note_on,128,0,6,,,,,,,,,3,,,52,60
1056,note_on,128,0,7,,,,,,,,,7,,,40,60
1056,note_on,64,0,4,,,,,,,,,1,,,76,75
1056,note_on,2,0,1,,,,,,,,,5,,,71,110
1056,note_on,2,0,3,,,,,,,,,0,,,80,110
1056,note_on,128,0,5,,,,,,,,,2,,,59,60
1056,note_on,128,0,2,,,,,,,,,6,,,52,110
1088,note_on,32,0,4,,,,,,,,,1,,,76,0
1150,note_on,94,0,3,,,,,,,,,0,,,80,0
1150,note_on,94,0,6,,,,,,,,,3,,,52,0
1150,note_on,94,0,5,,,,,,,,,2,,,59,0
1150,note_on,94,0,7,,,,,,,,,7,,,40,0
1150,note_on,0,0,1,,,,,,,,,5,,,80,0
1150,note_on,94,0,1,,,,,,,,,5,,,71,0
1150,note_on,94,0,2,,,,,,,,,6,,,52,0
1152,note_on,64,0,4,,,,,,,,,1,,,76,75
1152,note_on,2,0,7,,,,,,,,,7,,,45,60
1152,note_on,2,0,6,,,,,,,,,3,,,57,60
1152,note_on,2,0,3,,,,,,,,,0,,,81,110
1152,note_on,2,0,2,,,,,,,,,6,,,57,110
1152,note_on,2,0,5,,,,,,,,,2,,,61,60
1152,note_on,2,0,1,,,,,,,,,5,,,73,110
1152,note_on,0,0,1,,,,,,,,,5,,,81,110
1184,note_on,32,0,4,,,,,,,,,1,,,76,0
1246,note_on,94,0,6,,,,,,,,,3,,,57,0
1246,note_on,94,0,2,,,,,,,,,6,,,57,0
1246,note_on,94,0,3,,,,,,,,,0,,,81,0
1246,note_on,94,0,7,,,,,,,,,7,,,45,0
1246,note_on,94,0,5,,,,,,,,,2,,,61,0
1246,note_on,0,0,1,,,,,,,,,5,,,81,0
1246,note_on,94,0,1,,,,,,,,,5,,,73,0
1248,note_on,2,0,5,,,,,,,,,2,,,64,60
1248,note_on,2,0,2,,,,,,,,,6,,,49,110
1248,note_on,64,0,4,,,,,,,,,1,,,76,75
1248,note_on,2,0,7,,,,,,,,,7,,,37,60
1248,note_on,2,0,1,,,,,,,,,5,,,69,110
1248,note_on,2,0,3,,,,,,,,,0,,,69,110
1248,note_on,2,0,6,,,,,,,,,3,,,49,60
1280,note_on,32,0,4,,,,,,,,,1,,,76,0
1342,note_on,94,0,5,,,,,,,,,2,,,64,0
1342,note_on,94,0,6,,,,,,,,,3,,,49,0
1342,note_on,94,0,7,,,,,,,,,7,,,37,0
1342,note_on,94,0,2,,,,,,,,,6,,,49,0
1344,note_on,2,0,5,,,,,,,,,2,,,61,60
1344,note_on,2,0,6,,,,,,,,,3,,,45,60
1344,note_on,64,0,4,,,,,,,,,1,,,76,75
1344,note_on,2,0,7,,,,,,,,,7,,,33,60
1344,note_on,2,0,2,,,,,,,,,6,,,45,110
1376,note_on,32,0,4,,,,,,,,,1,,,76,0
1438,note_on,190,0,1,,,,,,,,,5,,,69,0
1438,note_on,190,0,3,,,,,,,,,0,,,69,0
1440,note_on,64,0,4,,,,,,,,,1,,,76,75
1440,note_on,2,0,3,,,,,,,,,0,,,74,110
1440,note_on,2,0,1,,,,,,,,,5,,,74,110
1472,note_on,32,0,4,,,,,,,,,1,,,76,0
1504,note_on,160,0,5,,,,,,,,,2,,,61,0
1504,note_on,160,0,7,,,,,,,,,7,,,33,0
1504,note_on,160,0,6,,,,,,,,,3,,,45,0
1504,note_on,160,0,2,,,,,,,,,6,,,45,0
1534,note_on,94,0,1,,,,,,,,,5,,,74,0
1534,note_on,94,0,3,,,,,,,,,0,,,74,0
1536,control_change,64,0,4,,,,,,,,,1,10,64,,
1536,note_on,0,0,4,,,,,,,,,1,,,76,127
1536,note_on,2,0,3,,,,,,,,,0,,,73,110
1536,note_on,2,0,1,,,,,,,,,5,,,73,110
1630,note_on,94,0,4,,,,,,,,,1,,,76,0
1630,note_on,94,0,3,,,,,,,,,0,,,73,0
1630,note_on,94,0,1,,,,,,,,,5,,,73,0
1632,note_on,2,0,1,,,,,,,,,5,,,68,110
1632,note_on,0,0,1,,,,,,,,,5,,,71,110
1632,note_on,128,0,7,,,,,,,,,7,,,40,60
1632,note_on,2,0,3,,,,,,,,,0,,,71,110
1632,note_on,128,0,5,,,,,,,,,2,,,64,60
1632,note_on,128,0,2,,,,,,,,,6,,,52,110
1632,note_on,128,0,6,,,,,,,,,3,,,52,60
1632,note_on,2,0,4,,,,,,,,,1,,,80,127
1726,note_on,94,0,5,,,,,,,,,2,,,64,0
1726,note_on,94,0,6,,,,,,,,,3,,,52,0
1726,note_on,94,0,7,,,,,,,,,7,,,40,0
1726,note_on,0,0,1,,,,,,,,,5,,,71,0
1726,note_on,94,0,1,,,,,,,,,5,,,68,0
1726,note_on,94,0,2,,,,,,,,,6,,,52,0
1726,note_on,94,0,4,,,,,,,,,1,,,80,0
1726,note_on,94,0,3,,,,,,,,,0,,,71,0
1728,note_on,2,0,7,,,,,,,,,7,,,45,60
1728,note_on,2,0,3,,,,,,,,,0,,,73,110
1728,note_on,0,0,1,,,,,,,,,5,,,73,110
1728,note_on,2,0,5,,,,,,,,,2,,,64,60
1728,note_on,2,0,6,,,,,,,,,3,,,57,60
1728,note_on,2,0,4,,,,,,,,,1,,,81,127
1728,note_on,2,0,1,,,,,,,,,5,,,64,110
1728,note_on,2,0,2,,,,,,,,,6,,,57,110
1822,note_on,94,0,5,,,,,,,,,2,,,64,0
1822,note_on,94,0,4,,,,,,,,,1,,,81,0
1822,note_on,94,0,3,,,,,,,,,0,,,73,0
1822,note_on,0,0,1,,,,,,,,,5,,,73,0
1822,note_on,94,0,1,,,,,,,,,5,,,64,0
1822,note_on,94,0,7,,,,,,,,,7,,,45,0
1822,note_on,94,0,2,,,,,,,,,6,,,57,0
1822,note_on,94,0,6,,,,,,,,,3,,,57,0
1824,note_on,2,0,5,,,,,,,,,2,,,64,60
1824,note_on,2,0,7,,,,,,,,,7,,,37,60
1824,note_on,2,0,2,,,,,,,,,6,,,49,110
1824,note_on,2,0,1,,,,,,,,,5,,,76,110
1824,note_on,2,0,4,,,,,,,,,1,,,69,127
1824,note_on,2,0,3,,,,,,,,,0,,,76,75
1824,note_on,2,0,6,,,,,,,,,3,,,49,60
1856,note_on,32,0,3,,,,,,,,,0,,,76,0
1918,note_on,94,0,6,,,,,,,,,3,,,49,0
1918,note_on,94,0,7,,,,,,,,,7,,,37,0
1918,note_on,94,0,5,,,,,,,,,2,,,64,0
1918,note_on,94,0,2,,,,,,,,,6,,,49,0
1918,note_on,94,0,1,,,,,,,,,5,,,76,0
1920,note_on,64,0,3,,,,,,,,,0,,,76,75
1920,note_on,2,0,6,,,,,,,,,3,,,45,60
1920,note_on,2,0,7,,,,,,,,,7,,,33,60
1920,note_on,2,0,5,,,,,,,,,2,,,61,60
1920,note_on,2,0,1,,,,,,,,,5,,,76,110
1920,note_on,2,0,2,,,,,,,,,6,,,45,110
1952,note_on,32,0,3,,,,,,,,,0,,,76,0
2014,note_on,94,0,1,,,,,,,,,5,,,76,0
2014,note_on,190,0,4,,,,,,,,,1,,,69,0
2016,note_on,64,0,3,,,,,,,,,0,,,76,75
2016,note_on,2,0,1,,,,,,,,,5,,,76,110
2016,note_on,2,0,4,,,,,,,,,1,,,74,127
2048,note_on,32,0,3,,,,,,,,,0,,,76,0
2080,note_on,160,0,7,,,,,,,,,7,,,33,0
2080,note_on,160,0,6,,,,,,,,,3,,,45,0
2080,note_on,160,0,5,,,,,,,,,2,,,61,0
2080,note_on,160,0,2,,,,,,,,,6,,,45,0
2110,note_on,94,0,4,,,,,,,,,1,,,74,0
2110,note_on,94,0,1,,,,,,,,,5,,,76,0
2112,note_on,2,0,1,,,,,,,,,5,,,76,110
2112,note_on,2,0,4,,,,,,,,,1,,,73,127
2112,note_on,64,0,3,,,,,,,,,0,,,76,75
2144,note_on,32,0,3,,,,,,,,,0,,,76,0
2206,note_on,94,0,1,,,,,,,,,5,,,76,0
2206,note_on,94,0,4,,,,,,,,,1,,,73,0
2208,note_on,64,0,3,,,,,,,,,0,,,76,75
2208,note_on,0,0,1,,,,,,,,,5,,,76,110
2208,note_on,128,0,6,,,,,,,,,3,,,52,60
2208,note_on,128,0,5,,,,,,,,,2,,,68,60
2208,note_on,2,0,4,,,,,,,,,1,,,71,127
2208,note_on,128,0,7,,,,,,,,,7,,,40,60
2208,note_on,128,0,2,,,,,,,,,6,,,52,110
2208,note_on,2,0,1,,,,,,,,,5,,,71,110
2240,note_on,32,0,3,,,,,,,,,0,,,76,0
2302,note_on,94,0,1,,,,,,,,,5,,,71,0
2302,note_on,0,0,1,,,,,,,,,5,,,76,0
2302,note_on,94,0,5,,,,,,,,,2,,,68,0
2302,note_on,94,0,2,,,,,,,,,6,,,52,0
2302,note_on,94,0,7,,,,,,,,,7,,,40,0
2302,note_on,94,0,4,,,,,,,,,1,,,71,0
2302,note_on,94,0,6,,,,,,,,,3,,,52,0
2304,note_on,2,0,5,,,,,,,,,2,,,61,60
2304,note_on,2,0,2,,,,,,,,,6,,,57,110
2304,note_on,0,0,1,,,,,,,,,5,,,76,110
2304,note_on,2,0,1,,,,,,,,,5,,,73,110
2304,note_on,2,0,4,,,,,,,,,1,,,73,127
2304,note_on,2,0,6,,,,,,,,,3,,,57,60
2304,note_on,2,0,7,,,,,,,,,7,,,45,60
2304,note_on,64,0,3,,,,,,,,,0,,,76,75
2336,note_on,32,0,3,,,,,,,,,0,,,76,0
2398,note_on,94,0,2,,,,,,,,,6,,,57,0
2398,note_on,94,0,6,,,,,,,,,3,,,57,0
2398,note_on,94,0,5,,,,,,,,,2,,,61,0
2398,note_on,94,0,7,,,,,,,,,7,,,45,0
2398,note_on,94,0,4,,,,,,,,,1,,,73,0
2398,note_on,94,0,1,,,,,,,,,5,,,73,0
2398,note_on,0,0,1,,,,,,,,,5,,,76,0
2400,note_on,2,0,4,,,,,,,,,1,,,69,127
2400,note_on,2,0,7,,,,,,,,,7,,,37,60
2400,note_on,2,0,2,,,,,,,,,6,,,49,110
2400,note_on,2,0,5,,,,,,,,,2,,,64,60
2400,note_on,64,0,3,,,,,,,,,0,,,76,75
2400,note_on,2,0,6,,,,,,,,,3,,,49,60
2400,note_on,2,0,1,,,,,,,,,5,,,76,110
2432,note_on,32,0,3,,,,,,,,,0,,,76,0
2494,note_on,94,0,7,,,,,,,,,7,,,37,0
2494,note_on,94,0,2,,,,,,,,,6,,,49,0
2494,note_on,94,0,5,,,,,,,,,2,,,64,0
2494,note_on,94,0,6,,,,,,,,,3,,,49,0
2494,note_on,94,0,1,,,,,,,,,5,,,76,0
2496,note_on,2,0,6,,,,,,,,,3,,,45,60
2496,note_on,64,0,3,,,,,,,,,0,,,76,75
2496,note_on,2,0,2,,,,,,,,,6,,,45,110
2496,note_on,2,0,7,,,,,,,,,7,,,33,60
2496,note_on,2,0,1,,,,,,,,,5,,,76,110
2496,note_on,2,0,5,,,,,,,,,2,,,61,60
2528,note_on,32,0,3,,,,,,,,,0,,,76,0
2590,note_on,190,0,4,,,,,,,,,1,,,69,0
2590,note_on,94,0,1,,,,,,,,,5,,,76,0
2592,note_on,64,0,3,,,,,,,,,0,,,76,75
2592,note_on,2,0,4,,,,,,,,,1,,,76,127
2592,note_on,2,0,1,,,,,,,,,5,,,76,110
2624,note_on,32,0,3,,,,,,,,,0,,,76,0
2656,note_on,160,0,5,,,,,,,,,2,,,61,0
2656,note_on,160,0,7,,,,,,,,,7,,,33,0
2656,note_on,160,0,2,,,,,,,,,6,,,45,0
2656,note_on,160,0,6,,,,,,,,,3,,,45,0
2686,note_on,94,0,1,,,,,,,,,5,,,76,0
2686,note_on,94,0,4,,,,,,,,,1,,,76,0
2688,note_on,2,0,1,,,,,,,,,5,,,76,110
2688,note_on,2,0,4,,,,,,,,,1,,,78,127
2688,note_on,64,0,3,,,,,,,,,0,,,76,75
2720,note_on,32,0,3,,,,,,,,,0,,,76,0
2782,note_on,94,0,4,,,,,,,,,1,,,78,0
2782,note_on,94,0,1,,,,,,,,,5,,,76,0
2784,note_on,128,0,7,,,,,,,,,7,,,40,60
2784,note_on,128,0,2,,,,,,,,,6,,,52,110
2784,note_on,0,0,1,,,,,,,,,5,,,76,110
2784,note_on,128,0,6,,,,,,,,,3,,,52,60
2784,note_on,2,0,1,,,,,,,,,5,,,71,110
2784,note_on,2,0,4,,,,,,,,,1,,,80,127
2784,note_on,64,0,3,,,,,,,,,0,,,76,75
2784,note_on,128,0,5,,,,,,,,,2,,,59,60
2816,note_on,32,0,3,,,,,,,,,0,,,76,0
2878,note_on,0,0,1,,,,,,,,,5,,,76,0
2878,note_on,94,0,5,,,,,,,,,2,,,59,0
2878,note_on,94,0,4,,,,,,,,,1,,,80,0
2878,note_on,94,0,6,,,,,,,,,3,,,52,0
2878,note_on,94,0,2,,,,,,,,,6,,,52,0
2878,note_on,94,0,7,,,,,,,,,7,,,40,0
2878,note_on,94,0,1,,,,,,,,,5,,,71,0
2880,note_on,2,0,6,,,,,,,,,3,,,57,60
2880,note_on,2,0,5,,,,,,,,,2,,,61,60
2880,note_on,2,0,7,,,,,,,,,7,,,45,60
2880,note_on,64,0,3,,,,,,,,,0,,,76,75
2880,note_on,0,0,1,,,,,,,,,5,,,76,110
2880,note_on,2,0,2,,,,,,,,,6,,,57,110
2880,note_on,2,0,1,,,,,,,,,5,,,73,110
2880,note_on,2,0,4,,,,,,,,,1,,,81,127
2912,note_on,32,0,3,,,,,,,,,0,,,76,0
2974,note_on,94,0,4,,,,,,,,,1,,,81,0
2974,note_on,94,0,6,,,,,,,,,3,,,57,0
2974,note_on,94,0,5,,,,,,,,,2,,,61,0
2974,note_on,94,0,1,,,,,,,,,5,,,73,0
2974,note_on,94,0,2,,,,,,,,,6,,,57,0
2974,note_on,0,0,1,,,,,,,,,5,,,76,0
2974,note_on,94,0,7,,,,,,,,,7,,,45,0
2976,note_on,2,0,1,,,,,,,,,5,,,76,110
2976,note_on,2,0,5,,,,,,,,,2,,,64,60
2976,note_on,2,0,7,,,,,,,,,7,,,37,60
2976,note_on,64,0,3,,,,,,,,,0,,,76,75
2976,note_on,2,0,6,,,,,,,,,3,,,49,60
2976,note_on,2,0,2,,,,,,,,,6,,,49,110
2976,note_on,2,0,4,,,,,,,,,1,,,69,127
3008,note_on,32,0,3,,,,,,,,,0,,,76,0
3070,note_on,94,0,7,,,,,,,,,7,,,37,0
3070,note_on,94,0,6,,,,,,,,,3,,,49,0
3070,note_on,94,0,1,,,,,,,,,5,,,76,0
3070,note_on,94,0,2,,,,,,,,,6,,,49,0
3070,note_on,94,0,5,,,,,,,,,2,,,64,0
3072,note_on,2,0,7,,,,,,,,,7,,,33,60
3072,note_on,2,0,2,,,,,,,,,6,,,45,110
3072,note_on,2,0,1,,,,,,,,,5,,,76,110
3072,note_on,64,0,3,,,,,,,,,0,,,76,75
3072,note_on,2,0,6,,,,,,,,,3,,,45,60
3072,note_on,2,0,5,,,,,,,,,2,,,61,60
3104,note_on,32,0,3,,,,,,,,,0,,,76,0
3166,note_on,94,0,1,,,,,,,,,5,,,76,0
3166,note_on,190,0,4,,,,,,,,,1,,,69,0
3168,note_on,2,0,1,,,,,,,,,5,,,76,110
3168,note_on,2,0,4,,,,,,,,,1,,,76,127
3168,note_on,64,0,3,,,,,,,,,0,,,76,75
3200,note_on,32,0,3,,,,,,,,,0,,,76,0
3232,note_on,160,0,5,,,,,,,,,2,,,61,0
3232,note_on,160,0,7,,,,,,,,,7,,,33,0
3232,note_on,160,0,2,,,,,,,,,6,,,45,0
3232,note_on,160,0,6,,,,,,,,,3,,,45,0
3262,note_on,94,0,4,,,,,,,,,1,,,76,0
3262,note_on,94,0,1,,,,,,,,,5,,,76,0
3264,note_on,2,0,4,,,,,,,,,1,,,74,127
3264,note_on,64,0,3,,,,,,,,,0,,,76,75
3264,note_on,2,0,1,,,,,,,,,5,,,76,110
3296,note_on,32,0,3,,,,,,,,,0,,,76,0
3358,note_on,94,0,4,,,,,,,,,1,,,74,0
3358,note_on,94,0,1,,,,,,,,,5,,,76,0
3360,note_on,128,0,5,,,,,,,,,2,,,57,60
3360,note_on,2,0,1,,,,,,,,,5,,,73,110
3360,note_on,128,0,7,,,,,,,,,7,,,33,60
3360,note_on,0,0,1,,,,,,,,,5,,,76,110
3360,note_on,128,0,2,,,,,,,,,6,,,45,110
3360,note_on,128,0,6,,,,,,,,,3,,,45,60
3360,note_on,0,0,3,,,,,,,,,0,,,76,127
3360,control_change,64,0,3,,,,,,,,,0,10,64,,
3360,note_on,2,0,4,,,,,,,,,1,,,73,127
3454,note_on,94,0,1,,,,,,,,,5,,,73,0
3454,note_on,0,0,1,,,,,,,,,5,,,76,0
3454,note_on,94,0,6,,,,,,,,,3,,,45,0
3454,note_on,94,0,3,,,,,,,,,0,,,76,0
3454,note_on,94,0,4,,,,,,,,,1,,,73,0
3454,note_on,94,0,2,,,,,,,,,6,,,45,0
3454,note_on,94,0,7,,,,,,,,,7,,,33,0
3454,note_on,94,0,5,,,,,,,,,2,,,57,0
3456,note_on,2,0,4,,,,,,,,,1,,,71,127
3456,note_on,2,0,3,,,,,,,,,0,,,76,127
3456,note_on,2,0,2,,,,,,,,,6,,,52,110
3456,note_on,2,0,1,,,,,,,,,5,,,68,110
3456,note_on,2,0,7,,,,,,,,,7,,,40,60
3456,note_on,2,0,5,,,,,,,,,2,,,56,60
3456,note_on,0,0,1,,,,,,,,,5,,,76,110
3456,note_on,2,0,6,,,,,,,,,3,,,52,60
3550,note_on,94,0,5,,,,,,,,,2,,,56,0
3550,note_on,94,0,3,,,,,,,,,0,,,76,0
3550,note_on,94,0,2,,,,,,,,,6,,,52,0
3550,note_on,0,0,1,,,,,,,,,5,,,76,0
3550,note_on,94,0,1,,,,,,,,,5,,,68,0
3550,note_on,94,0,7,,,,,,,,,7,,,40,0
3550,note_on,94,0,4,,,,,,,,,1,,,71,0
3550,note_on,94,0,6,,,,,,,,,3,,,52,0
3552,note_on,0,0,4,,,,,,,,,1,,,83,75
3552,note_on,2,0,3,,,,,,,,,0,,,64,127
3552,control_change,2,0,4,,,,,,,,,1,10,0,,
3552,note_on,2,0,1,,,,,,,,,5,,,64,110
3552,note_on,2,0,7,,,,,,,,,7,,,32,60
3552,note_on,2,0,5,,,,,,,,,2,,,59,60
3552,note_on,2,0,6,,,,,,,,,3,,,44,60
3552,note_on,2,0,2,,,,,,,,,6,,,44,110
3584,note_on,32,0,4,,,,,,,,,1,,,83,0
3646,note_on,94,0,6,,,,,,,,,3,,,44,0
3646,note_on,94,0,7,,,,,,,,,7,,,32,0
3646,note_on,94,0,2,,,,,,,,,6,,,44,0
3646,note_on,94,0,5,,,,,,,,,2,,,59,0
3648,note_on,64,0,4,,,,,,,,,1,,,83,75
3648,note_on,2,0,6,,,,,,,,,3,,,40,60
3648,note_on,2,0,2,,,,,,,,,6,,,40,110
3648,note_on,2,0,7,,,,,,,,,7,,,28,60
3648,note_on,2,0,5,,,,,,,,,2,,,56,60
3680,note_on,32,0,4,,,,,,,,,1,,,83,0
3742,note_on,190,0,3,,,,,,,,,0,,,64,0
3742,note_on,190,0,1,,,,,,,,,5,,,64,0
3744,note_on,64,0,4,,,,,,,,,1,,,83,75
3744,note_on,2,0,1,,,,,,,,,5,,,69,110
3744,note_on,2,0,3,,,,,,,,,0,,,69,127
3776,note_on,32,0,4,,,,,,,,,1,,,83,0
3808,note_on,160,0,5,,,,,,,,,2,,,56,0
3808,note_on,160,0,7,,,,,,,,,7,,,28,0
3808,note_on,160,0,6,,,,,,,,,3,,,40,0
3808,note_on,160,0,2,,,,,,,,,6,,,40,0
3838,note_on,94,0,1,,,,,,,,,5,,,69,0
3838,note_on,94,0,3,,,,,,,,,0,,,69,0
3840,note_on,2,0,3,,,,,,,,,0,,,68,127
3840,note_on,64,0,4,,,,,,,,,1,,,83,75
3840,note_on,2,0,1,,,,,,,,,5,,,68,110
3872,note_on,32,0,4,,,,,,,,,1,,,83,0
3934,note_on,94,0,1,,,,,,,,,5,,,68,0
3934,note_on,94,0,3,,,,,,,,,0,,,68,0
3936,note_on,128,0,2,,,,,,,,,6,,,47,110
3936,note_on,2,0,3,,,,,,,,,0,,,66,127
3936,note_on,128,0,6,,,,,,,,,3,,,47,60
3936,note_on,64,0,4,,,,,,,,,1,,,83,75
3936,note_on,128,0,7,,,,,,,,,7,,,35,60
3936,note_on,128,0,5,,,,,,,,,2,,,59,60
3936,note_on,2,0,1,,,,,,,,,5,,,63,110
3936,note_on,0,0,1,,,,,,,,,5,,,66,110
3968,note_on,32,0,4,,,,,,,,,1,,,83,0
4030,note_on,94,0,5,,,,,,,,,2,,,59,0
4030,note_on,94,0,7,,,,,,,,,7,,,35,0
4030,note_on,94,0,1,,,,,,,,,5,,,63,0
4030,note_on,0,0,1,,,,,,,,,5,,,66,0
4030,note_on,94,0,6,,,,,,,,,3,,,47,0
4030,note_on,94,0,3,,,,,,,,,0,,,66,0
4030,note_on,94,0,2,,,,,,,,,6,,,47,0
4032,note_on,2,0,7,,,,,,,,,7,,,40,60
4032,note_on,2,0,2,,,,,,,,,6,,,52,110
4032,note_on,2,0,3,,,,,,,,,0,,,68,127
4032,note_on,0,0,1,,,,,,,,,5,,,68,110
4032,note_on,2,0,1,,,,,,,,,5,,,59,110
4032,note_on,2,0,6,,,,,,,,,3,,,52,60
4032,note_on,2,0,5,,,,,,,,,2,,,56,60
4032,note_on,64,0,4,,,,,,,,,1,,,83,75
4064,note_on,32,0,4,,,,,,,,,1,,,83,0
4126,note_on,94,0,2,,,,,,,,,6,,,52,0
4126,note_on,0,0,1,,,,,,,,,5,,,68,0
4126,note_on,94,0,7,,,,,,,,,7,,,40,0
4126,note_on,94,0,5,,,,,,,,,2,,,56,0
4126,note_on,94,0,3,,,,,,,,,0,,,68,0
4126,note_on,94,0,6,,,,,,,,,3,,,52,0
4126,note_on,94,0,1,,,,,,,,,5,,,59,0
4128,note_on,2,0,1,,,,,,,,,5,,,64,110
4128,note_on,2,0,2,,,,,,,,,6,,,44,110
4128,note_on,2,0,7,,,,,,,,,7,,,32,60
4128,note_on,2,0,5,,,,,,,,,2,,,59,60
4128,note_on,2,0,6,,,,,,,,,3,,,44,60
4128,note_on,2,0,3,,,,,,,,,0,,,64,127
4128,note_on,64,0,4,,,,,,,,,1,,,83,75
4160,note_on,32,0,4,,,,,,,,,1,,,83,0
4222,note_on,94,0,2,,,,,,,,,6,,,44,0
4222,note_on,94,0,5,,,,,,,,,2,,,59,0
4222,note_on,94,0,6,,,,,,,,,3,,,44,0
4222,note_on,94,0,7,,,,,,,,,7,,,32,0
4224,note_on,2,0,7,,,,,,,,,7,,,28,60
4224,note_on,2,0,2,,,,,,,,,6,,,40,110
4224,note_on,64,0,4,,,,,,,,,1,,,83,75
4224,note_on,2,0,6,,,,,,,,,3,,,40,60
4224,note_on,2,0,5,,,,,,,,,2,,,56,60
4256,note_on,32,0,4,,,,,,,,,1,,,83,0
4318,note_on,190,0,3,,,,,,,,,0,,,64,0
4318,note_on,190,0,1,,,,,,,,,5,,,64,0
4320,note_on,64,0,4,,,,,,,,,1,,,83,75
4320,note_on,2,0,3,,,,,,,,,0,,,71,127
4320,note_on,2,0,1,,,,,,,,,5,,,71,110
4352,note_on,32,0,4,,,,,,,,,1,,,83,0
4384,note_on,160,0,6,,,,,,,,,3,,,40,0
4384,note_on,160,0,7,,,,,,,,,7,,,28,0
4384,note_on,160,0,2,,,,,,,,,6,,,40,0
4384,note_on,160,0,5,,,,,,,,,2,,,56,0
4414,note_on,94,0,3,,,,,,,,,0,,,71,0
4414,note_on,94,0,1,,,,,,,,,5,,,71,0
4416,note_on,64,0,4,,,,,,,,,1,,,83,75
4416,note_on,2,0,1,,,,,,,,,5,,,73,110
4416,note_on,2,0,3,,,,,,,,,0,,,73,127
4448,note_on,32,0,4,,,,,,,,,1,,,83,0
4510,note_on,94,0,3,,,,,,,,,0,,,73,0
4510,note_on,94,0,1,,,,,,,,,5,,,73,0
4512,note_on,128,0,5,,,,,,,,,2,,,66,60
4512,note_on,64,0,4,,,,,,,,,1,,,83,75
4512,note_on,128,0,6,,,,,,,,,3,,,47,60
4512,note_on,128,0,2,,,,,,,,,6,,,47,110
4512,note_on,2,0,3,,,,,,,,,0,,,75,127
4512,note_on,128,0,7,,,,,,,,,7,,,35,60
4512,note_on,0,0,1,,,,,,,,,5,,,75,110
4512,note_on,2,0,1,,,,,,,,,5,,,71,110
4544,note_on,32,0,4,,,,,,,,,1,,,83,0
4606,note_on,94,0,3,,,,,,,,,0,,,75,0
4606,note_on,94,0,5,,,,,,,,,2,,,66,0
4606,note_on,0,0,1,,,,,,,,,5,,,75,0
4606,note_on,94,0,6,,,,,,,,,3,,,47,0
4606,note_on,94,0,1,,,,,,,,,5,,,71,0
4606,note_on,94,0,7,,,,,,,,,7,,,35,0
4606,note_on,94,0,2,,,,,,,,,6,,,47,0
4608,note_on,2,0,7,,,,,,,,,7,,,40,60
4608,note_on,2,0,3,,,,,,,,,0,,,76,127
4608,note_on,2,0,1,,,,,,,,,5,,,68,110
4608,note_on,2,0,5,,,,,,,,,2,,,68,60
4608,note_on,64,0,4,,,,,,,,,1,,,83,75
4608,note_on,2,0,2,,,,,,,,,6,,,52,110
4608,note_on,0,0,1,,,,,,,,,5,,,76,110
4608,note_on,2,0,6,,,,,,,,,3,,,52,60
4640,note_on,32,0,4,,,,,,,,,1,,,83,0
4702,note_on,94,0,3,,,,,,,,,0,,,76,0
4702,note_on,0,0,1,,,,,,,,,5,,,76,0
4702,note_on,94,0,7,,,,,,,,,7,,,40,0
4702,note_on,94,0,5,,,,,,,,,2,,,68,0
4702,note_on,94,0,1,,,,,,,,,5,,,68,0
4702,note_on,94,0,2,,,,,,,,,6,,,52,0
4702,note_on,94,0,6,,,,,,,,,3,,,52,0
4704,note_on,2,0,3,,,,,,,,,0,,,64,127
4704,note_on,2,0,1,,,,,,,,,5,,,64,110
4704,note_on,2,0,2,,,,,,,,,6,,,44,110
4704,note_on,2,0,5,,,,,,,,,2,,,71,60
4704,note_on,2,0,7,,,,,,,,,7,,,32,60
4704,note_on,2,0,6,,,,,,,,,3,,,44,60
4704,note_on,64,0,4,,,,,,,,,1,,,83,75
4736,note_on,32,0,4,,,,,,,,,1,,,83,0
4798,note_on,94,0,5,,,,,,,,,2,,,71,0
4798,note_on,94,0,2,,,,,,,,,6,,,44,0
4798,note_on,94,0,7,,,,,,,,,7,,,32,0
4798,note_on,94,0,6,,,,,,,,,3,,,44,0
4800,note_on,64,0,4,,,,,,,,,1,,,83,75
4800,note_on,2,0,2,,,,,,,,,6,,,40,110
4800,note_on,2,0,7,,,,,,,,,7,,,28,60
4800,note_on,2,0,5,,,,,,,,,2,,,68,60
4800,note_on,2,0,6,,,,,,,,,3,,,40,60
4832,note_on,32,0,4,,,,,,,,,1,,,83,0
4894,note_on,190,0,3,,,,,,,,,0,,,64,0
4894,note_on,190,0,1,,,,,,,,,5,,,64,0
4896,note_on,2,0,1,,,,,,,,,5,,,69,110
4896,note_on,64,0,4,,,,,,,,,1,,,83,75
4896,note_on,2,0,3,,,,,,,,,0,,,69,127
4928,note_on,32,0,4,,,,,,,,,1,,,83,0
4960,note_on,160,0,6,,,,,,,,,3,,,40,0
4960,note_on,160,0,5,,,,,,,,,2,,,68,0
4960,note_on,160,0,7,,,,,,,,,7,,,28,0
4960,note_on,160,0,2,,,,,,,,,6,,,40,0
4990,note_on,94,0,1,,,,,,,,,5,,,69,0
4990,note_on,94,0,3,,,,,,,,,0,,,69,0
4992,note_on,64,0,4,,,,,,,,,1,,,83,127
4992,note_on,2,0,1,,,,,,,,,5,,,68,110
4992,note_on,2,0,3,,,,,,,,,0,,,68,127
5086,note_on,94,0,1,,,,,,,,,5,,,68,0
5086,note_on,94,0,4,,,,,,,,,1,,,83,0
5086,note_on,94,0,3,,,,,,,,,0,,,68,0
5088,note_on,128,0,7,,,,,,,,,7,,,35,60
5088,note_on,2,0,1,,,,,,,,,5,,,63,110
5088,note_on,0,0,1,,,,,,,,,5,,,66,110
5088,note_on,2,0,3,,,,,,,,,0,,,66,127
5088,note_on,128,0,2,,,,,,,,,6,,,47,110
5088,note_on,128,0,6,,,,,,,,,3,,,47,60
5088,control_change,2,0,4,,,,,,,,,1,10,64,,
5088,note_on,0,0,4,,,,,,,,,1,,,75,127
5088,note_on,128,0,5,,,,,,,,,2,,,59,60
5182,note_on,94,0,1,,,,,,,,,5,,,63,0
5182,note_on,94,0,2,,,,,,,,,6,,,47,0
5182,note_on,94,0,3,,,,,,,,,0,,,66,0
5182,note_on,94,0,5,,,,,,,,,2,,,59,0
5182,note_on,94,0,6,,,,,,,,,3,,,47,0
5182,note_on,94,0,4,,,,,,,,,1,,,75,0
5182,note_on,94,0,7,,,,,,,,,7,,,35,0
5182,note_on,0,0,1,,,,,,,,,5,,,66,0
5184,note_on,2,0,5,,,,,,,,,2,,,56,60
5184,note_on,2,0,6,,,,,,,,,3,,,52,60
5184,note_on,2,0,3,,,,,,,,,0,,,68,127
5184,note_on,2,0,2,,,,,,,,,6,,,52,110
5184,note_on,2,0,1,,,,,,,,,5,,,68,110
5184,note_on,2,0,7,,,,,,,,,7,,,40,60
5184,note_on,2,0,4,,,,,,,,,1,,,76,127
5278,note_on,94,0,7,,,,,,,,,7,,,40,0
5278,note_on,94,0,5,,,,,,,,,2,,,56,0
5278,note_on,94,0,3,,,,,,,,,0,,,68,0
5278,note_on,94,0,2,,,,,,,,,6,,,52,0
5278,note_on,94,0,1,,,,,,,,,5,,,68,0
5278,note_on,94,0,6,,,,,,,,,3,,,52,0
5278,note_on,94,0,4,,,,,,,,,1,,,76,0
5280,control_change,2,0,3,,,,,,,,,0,10,0,,
5280,note_on,2,0,2,,,,,,,,,6,,,44,110
5280,note_on,2,0,4,,,,,,,,,1,,,64,127
5280,note_on,2,0,7,,,,,,,,,7,,,32,60
5280,note_on,0,0,3,,,,,,,,,0,,,83,75
5280,note_on,2,0,5,,,,,,,,,2,,,59,60
5280,note_on,2,0,1,,,,,,,,,5,,,83,110
5280,note_on,2,0,6,,,,,,,,,3,,,44,60
5312,note_on,32,0,3,,,,,,,,,0,,,83,0
5374,note_on,94,0,1,,,,,,,,,5,,,83,0
5374,note_on,94,0,6,,,,,,,,,3,,,44,0
5374,note_on,94,0,2,,,,,,,,,6,,,44,0
5374,note_on,94,0,5,,,,,,,,,2,,,59,0
5374,note_on,94,0,7,,,,,,,,,7,,,32,0
5376,note_on,2,0,6,,,,,,,,,3,,,40,60
5376,note_on,2,0,1,,,,,,,,,5,,,83,110
5376,note_on,2,0,5,,,,,,,,,2,,,56,60
5376,note_on,2,0,2,,,,,,,,,6,,,40,110
5376,note_on,64,0,3,,,,,,,,,0,,,83,75
5376,note_on,2,0,7,,,,,,,,,7,,,28,60
5408,note_on,32,0,3,,,,,,,,,0,,,83,0
5470,note_on,94,0,1,,,,,,,,,5,,,83,0
5470,note_on,190,0,4,,,,,,,,,1,,,64,0
5472,note_on,2,0,1,,,,,,,,,5,,,83,110
5472,note_on,64,0,3,,,,,,,,,0,,,83,75
5472,note_on,2,0,4,,,,,,,,,1,,,69,127
5536,note_on,160,0,7,,,,,,,,,7,,,28,0
5536,note_on,160,0,5,,,,,,,,,2,,,56,0
5536,note_on,160,0,2,,,,,,,,,6,,,40,0
5536,note_on,160,0,6,,,,,,,,,3,,,40,0
5566,note_on,94,0,1,,,,,,,,,5,,,83,0
5566,note_on,94,0,4,,,,,,,,,1,,,69,0
5566,note_on,94,0,3,,,,,,,,,0,,,83,0
5568,note_on,2,0,1,,,,,,,,,5,,,83,110
5568,note_on,2,0,3,,,,,,,,,0,,,83,75
5568,note_on,2,0,4,,,,,,,,,1,,,68,127
5662,note_on,94,0,1,,,,,,,,,5,,,83,0
5662,note_on,94,0,4,,,,,,,,,1,,,68,0
5664,note_on,128,0,6,,,,,,,,,3,,,47,60
5664,note_on,128,0,2,,,,,,,,,6,,,47,110
5664,note_on,2,0,1,,,,,,,,,5,,,78,110
5664,note_on,0,0,1,,,,,,,,,5,,,83,110
5664,note_on,128,0,7,,,,,,,,,7,,,35,60
5664,note_on,128,0,5,,,,,,,,,2,,,63,60
5664,note_on,2,0,4,,,,,,,,,1,,,66,127
5728,note_on,160,0,3,,,,,,,,,0,,,83,0
5758,note_on,94,0,7,,,,,,,,,7,,,35,0
5758,note_on,94,0,4,,,,,,,,,1,,,66,0
5758,note_on,94,0,5,,,,,,,,,2,,,63,0
5758,note_on,0,0,1,,,,,,,,,5,,,83,0
5758,note_on,94,0,1,,,,,,,,,5,,,78,0
5758,note_on,94,0,2,,,,,,,,,6,,,47,0
5758,note_on,94,0,6,,,,,,,,,3,,,47,0
5760,note_on,2,0,7,,,,,,,,,7,,,40,60
5760,note_on,32,0,3,,,,,,,,,0,,,83,75
5760,note_on,2,0,2,,,,,,,,,6,,,52,110
5760,note_on,2,0,5,,,,,,,,,2,,,56,60
5760,note_on,2,0,1,,,,,,,,,5,,,80,110
5760,note_on,0,0,1,,,,,,,,,5,,,83,110
5760,note_on,2,0,4,,,,,,,,,1,,,68,127
5760,note_on,2,0,6,,,,,,,,,3,,,52,60
5792,note_on,32,0,3,,,,,,,,,0,,,83,0
5854,note_on,94,0,6,,,,,,,,,3,,,52,0
5854,note_on,94,0,2,,,,,,,,,6,,,52,0
5854,note_on,94,0,1,,,,,,,,,5,,,80,0
5854,note_on,0,0,1,,,,,,,,,5,,,83,0
5854,note_on,94,0,4,,,,,,,,,1,,,68,0
5854,note_on,94,0,7,,,,,,,,,7,,,40,0
5854,note_on,94,0,5,,,,,,,,,2,,,56,0
5856,note_on,64,0,3,,,,,,,,,0,,,83,75
5856,note_on,2,0,1,,,,,,,,,5,,,83,110
5856,note_on,2,0,5,,,,,,,,,2,,,59,60
5856,note_on,2,0,7,,,,,,,,,7,,,32,60
5856,note_on,2,0,6,,,,,,,,,3,,,44,60
5856,note_on,2,0,4,,,,,,,,,1,,,64,127
5856,note_on,2,0,2,,,,,,,,,6,,,44,110
5888,note_on,32,0,3,,,,,,,,,0,,,83,0
5950,note_on,94,0,7,,,,,,,,,7,,,32,0
5950,note_on,94,0,6,,,,,,,,,3,,,44,0
5950,note_on,94,0,1,,,,,,,,,5,,,83,0
5950,note_on,94,0,5,,,,,,,,,2,,,59,0
5950,note_on,94,0,2,,,,,,,,,6,,,44,0
5952,note_on,2,0,6,,,,,,,,,3,,,40,60
5952,note_on,64,0,3,,,,,,,,,0,,,83,75
5952,note_on,2,0,1,,,,,,,,,5,,,83,110
5952,note_on,2,0,2,,,,,,,,,6,,,40,110
5952,note_on,2,0,7,,,,,,,,,7,,,28,60
5952,note_on,2,0,5,,,,,,,,,2,,,56,60
5984,note_on,32,0,3,,,,,,,,,0,,,83,0
6046,note_on,94,0,1,,,,,,,,,5,,,83,0
6046,note_on,190,0,4,,,,,,,,,1,,,64,0
6048,note_on,2,0,4,,,,,,,,,1,,,71,127
6048,note_on,64,0,3,,,,,,,,,0,,,83,75
6048,note_on,2,0,1,,,,,,,,,5,,,83,110
6080,note_on,32,0,3,,,,,,,,,0,,,83,0
6112,note_on,160,0,5,,,,,,,,,2,,,56,0
6112,note_on,160,0,6,,,,,,,,,3,,,40,0
6112,note_on,160,0,2,,,,,,,,,6,,,40,0
6112,note_on,160,0,7,,,,,,,,,7,,,28,0
6142,note_on,94,0,4,,,,,,,,,1,,,71,0
6142,note_on,94,0,1,,,,,,,,,5,,,83,0
6144,note_on,2,0,4,,,,,,,,,1,,,73,127
6144,note_on,2,0,1,,,,,,,,,5,,,83,110
6144,note_on,64,0,3,,,,,,,,,0,,,83,75
6176,note_on,32,0,3,,,,,,,,,0,,,83,0
6238,note_on,94,0,1,,,,,,,,,5,,,83,0
6238,note_on,94,0,4,,,,,,,,,1,,,73,0
6240,note_on,0,0,1,,,,,,,,,5,,,83,110
6240,note_on,2,0,1,,,,,,,,,5,,,78,110
6240,note_on,128,0,6,,,,,,,,,3,,,47,60
6240,note_on,128,0,7,,,,,,,,,7,,,35,60
6240,note_on,128,0,5,,,,,,,,,2,,,59,60
6240,note_on,2,0,4,,,,,,,,,1,,,75,127
6240,note_on,64,0,3,,,,,,,,,0,,,83,75
6240,note_on,128,0,2,,,,,,,,,6,,,47,110
6272,note_on,32,0,3,,,,,,,,,0,,,83,0
6334,note_on,94,0,7,,,,,,,,,7,,,35,0
6334,note_on,94,0,5,,,,,,,,,2,,,59,0
6334,note_on,94,0,2,,,,,,,,,6,,,47,0
6334,note_on,94,0,6,,,,,,,,,3,,,47,0
6334,note_on,94,0,4,,,,,,,,,1,,,75,0
6334,note_on,94,0,1,,,,,,,,,5,,,78,0
6334,note_on,0,0,1,,,,,,,,,5,,,83,0
6336,note_on,2,0,6,,,,,,,,,3,,,52,60
6336,note_on,2,0,5,,,,,,,,,2,,,56,60
6336,note_on,2,0,2,,,,,,,,,6,,,52,110
6336,note_on,2,0,7,,,,,,,,,7,,,40,60
6336,note_on,2,0,4,,,,,,,,,1,,,76,127
6336,note_on,2,0,1,,,,,,,,,5,,,80,110
6336,note_on,64,0,3,,,,,,,,,0,,,83,75
6336,note_on,0,0,1,,,,,,,,,5,,,83,110
6368,note_on,32,0,3,,,,,,,,,0,,,83,0
6430,note_on,0,0,1,,,,,,,,,5,,,83,0
6430,note_on,94,0,6,,,,,,,,,3,,,52,0
6430,note_on,94,0,7,,,,,,,,,7,,,40,0
6430,note_on,94,0,2,,,,,,,,,6,,,52,0
6430,note_on,94,0,5,,,,,,,,,2,,,56,0
6430,note_on,94,0,1,,,,,,,,,5,,,80,0
6430,note_on,94,0,4,,,,,,,,,1,,,76,0
6432,note_on,2,0,4,,,,,,,,,1,,,64,127
6432,note_on,2,0,6,,,,,,,,,3,,,44,60
6432,note_on,64,0,3,,,,,,,,,0,,,83,75
6432,note_on,2,0,1,,,,,,,,,5,,,83,110
6432,note_on,2,0,7,,,,,,,,,7,,,32,60
6432,note_on,2,0,5,,,,,,,,,2,,,59,60
6432,note_on,2,0,2,,,,,,,,,6,,,44,110
6464,note_on,32,0,3,,,,,,,,,0,,,83,0
6526,note_on,94,0,6,,,,,,,,,3,,,44,0
6526,note_on,94,0,7,,,,,,,,,7,,,32,0
6526,note_on,94,0,1,,,,,,,,,5,,,83,0
6526,note_on,94,0,5,,,,,,,,,2,,,59,0
6526,note_on,94,0,2,,,,,,,,,6,,,44,0
6528,note_on,64,0,3,,,,,,,,,0,,,83,75
6528,note_on,2,0,6,,,,,,,,,3,,,40,60
6528,note_on,2,0,7,,,,,,,,,7,,,28,60
6528,note_on,2,0,2,,,,,,,,,6,,,40,110
6528,note_on,2,0,5,,,,,,,,,2,,,56,60
6528,note_on,2,0,1,,,,,,,,,5,,,83,110
6560,note_on,32,0,3,,,,,,,,,0,,,83,0
6622,note_on,94,0,1,,,,,,,,,5,,,83,0
6622,note_on,190,0,4,,,,,,,,,1,,,64,0
6624,note_on,64,0,3,,,,,,,,,0,,,83,75
6624,note_on,2,0,4,,,,,,,,,1,,,74,127
6624,note_on,2,0,1,,,,,,,,,5,,,83,110
6656,note_on,32,0,3,,,,,,,,,0,,,83,0
6688,note_on,160,0,5,,,,,,,,,2,,,56,0
6688,note_on,160,0,2,,,,,,,,,6,,,40,0
6688,note_on,160,0,6,,,,,,,,,3,,,40,0
6688,note_on,160,0,7,,,,,,,,,7,,,28,0
6718,note_on,94,0,4,,,,,,,,,1,,,74,0
6718,note_on,94,0,1,,,,,,,,,5,,,83,0
6720,note_on,2,0,1,,,,,,,,,5,,,83,110
6720,note_on,2,0,4,,,,,,,,,1,,,73,127
6720,note_on,64,0,3,,,,,,,,,0,,,83,75
6752,note_on,32,0,3,,,,,,,,,0,,,83,0
6814,note_on,94,0,4,,,,,,,,,1,,,73,0
6814,note_on,94,0,1,,,,,,,,,5,,,83,0
6816,note_on,2,0,4,,,,,,,,,1,,,71,127
6816,note_on,128,0,6,,,,,,,,,3,,,52,60
6816,note_on,128,0,7,,,,,,,,,7,,,40,60
6816,note_on,128,0,2,,,,,,,,,6,,,52,110
6816,note_on,128,0,5,,,,,,,,,2,,,68,60
6816,control_change,64,0,3,,,,,,,,,0,10,64,,
6816,note_on,0,0,3,,,,,,,,,0,,,83,127
6816,note_on,2,0,1,,,,,,,,,5,,,83,110
6910,note_on,94,0,2,,,,,,,,,6,,,52,0
6910,note_on,94,0,5,,,,,,,,,2,,,68,0
6910,note_on,94,0,7,,,,,,,,,7,,,40,0
6910,note_on,94,0,1,,,,,,,,,5,,,83,0
6910,note_on,94,0,3,,,,,,,,,0,,,83,0
6910,note_on,94,0,4,,,,,,,,,1,,,71,0
6910,note_on,94,0,6,,,,,,,,,3,,,52,0
6912,note_on,2,0,1,,,,,,,,,5,,,73,110
6912,note_on,0,0,1,,,,,,,,,5,,,81,110
6912,note_on,2,0,2,,,,,,,,,6,,,57,110
6912,note_on,2,0,7,,,,,,,,,7,,,45,60
6912,note_on,2,0,4,,,,,,,,,1,,,73,127
6912,note_on,2,0,3,,,,,,,,,0,,,81,127
6912,note_on,2,0,5,,,,,,,,,2,,,64,60
6912,note_on,2,0,6,,,,,,,,,3,,,57,60
7006,note_on,94,0,3,,,,,,,,,0,,,81,0
7006,note_on,0,0,1,,,,,,,,,5,,,81,0
7006,note_on,94,0,2,,,,,,,,,6,,,57,0
7006,note_on,94,0,4,,,,,,,,,1,,,73,0
7006,note_on,94,0,5,,,,,,,,,2,,,64,0
7006,note_on,94,0,6,,,,,,,,,3,,,57,0
7006,note_on,94,0,1,,,,,,,,,5,,,73,0
7006,note_on,94,0,7,,,,,,,,,7,,,45,0
7008,control_change,2,0,4,,,,,,,,,1,10,127,,
7008,note_on,2,0,2,,,,,,,,,6,,,49,110
7008,note_on,2,0,5,,,,,,,,,2,,,64,60
7008,note_on,2,0,6,,,,,,,,,3,,,49,60
7008,note_on,0,0,4,,,,,,,,,1,,,76,75
7008,note_on,2,0,7,,,,,,,,,7,,,37,60
7008,note_on,2,0,1,,,,,,,,,5,,,69,110
7008,note_on,2,0,3,,,,,,,,,0,,,69,127
7040,note_on,32,0,4,,,,,,,,,1,,,76,0
7102,note_on,94,0,2,,,,,,,,,6,,,49,0
7102,note_on,94,0,5,,,,,,,,,2,,,64,0
7102,note_on,94,0,7,,,,,,,,,7,,,37,0
7102,note_on,94,0,6,,,,,,,,,3,,,49,0
7104,note_on,2,0,7,,,,,,,,,7,,,33,60
7104,note_on,2,0,2,,,,,,,,,6,,,45,110
7104,note_on,64,0,4,,,,,,,,,1,,,76,75
7104,note_on,2,0,5,,,,,,,,,2,,,61,60
7104,note_on,2,0,6,,,,,,,,,3,,,45,60
7136,note_on,32,0,4,,,,,,,,,1,,,76,0
7198,note_on,190,0,1,,,,,,,,,5,,,69,0
7198,note_on,190,0,3,,,,,,,,,0,,,69,0
7200,note_on,64,0,4,,,,,,,,,1,,,76,75
7200,note_on,2,0,1,,,,,,,,,5,,,74,110
7200,note_on,2,0,3,,,,,,,,,0,,,74,127
7232,note_on,32,0,4,,,,,,,,,1,,,76,0
7264,note_on,160,0,2,,,,,,,,,6,,,45,0
7264,note_on,160,0,7,,,,,,,,,7,,,33,0
7264,note_on,160,0,5,,,,,,,,,2,,,61,0
7264,note_on,160,0,6,,,,,,,,,3,,,45,0
7294,note_on,94,0,1,,,,,,,,,5,,,74,0
7294,note_on,94,0,3,,,,,,,,,0,,,74,0
7296,note_on,2,0,1,,,,,,,,,5,,,73,110
7296,note_on,2,0,3,,,,,,,,,0,,,73,127
7296,note_on,64,0,4,,,,,,,,,1,,,76,75
7390,note_on,94,0,3,,,,,,,,,0,,,73,0
7390,note_on,94,0,4,,,,,,,,,1,,,76,0
7390,note_on,94,0,1,,,,,,,,,5,,,73,0
7392,note_on,128,0,7,,,,,,,,,7,,,40,60
7392,note_on,128,0,6,,,,,,,,,3,,,52,60
7392,note_on,128,0,5,,,,,,,,,2,,,64,60
7392,note_on,128,0,2,,,,,,,,,6,,,52,110
7392,note_on,0,0,4,,,,,,,,,1,,,80,127
7392,control_change,2,0,4,,,,,,,,,1,10,64,,
7392,note_on,0,0,1,,,,,,,,,5,,,71,110
7392,note_on,2,0,1,,,,,,,,,5,,,68,110
7392,note_on,2,0,3,,,,,,,,,0,,,71,127
7486,note_on,94,0,7,,,,,,,,,7,,,40,0
7486,note_on,94,0,2,,,,,,,,,6,,,52,0
7486,note_on,94,0,5,,,,,,,,,2,,,64,0
7486,note_on,0,0,1,,,,,,,,,5,,,71,0
7486,note_on,94,0,3,,,,,,,,,0,,,71,0
7486,note_on,94,0,6,,,,,,,,,3,,,52,0
7486,note_on,94,0,4,,,,,,,,,1,,,80,0
7486,note_on,94,0,1,,,,,,,,,5,,,68,0
7488,note_on,2,0,1,,,,,,,,,5,,,64,110
7488,note_on,2,0,6,,,,,,,,,3,,,57,60
7488,note_on,2,0,5,,,,,,,,,2,,,64,60
7488,note_on,0,0,1,,,,,,,,,5,,,73,110
7488,note_on,2,0,7,,,,,,,,,7,,,45,60
7488,note_on,2,0,3,,,,,,,,,0,,,73,127
7488,note_on,2,0,2,,,,,,,,,6,,,57,110
7488,note_on,2,0,4,,,,,,,,,1,,,81,127
7582,note_on,94,0,5,,,,,,,,,2,,,64,0
7582,note_on,94,0,7,,,,,,,,,7,,,45,0
7582,note_on,94,0,6,,,,,,,,,3,,,57,0
7582,note_on,94,0,2,,,,,,,,,6,,,57,0
7582,note_on,94,0,4,,,,,,,,,1,,,81,0
7582,note_on,94,0,3,,,,,,,,,0,,,73,0
7582,note_on,94,0,1,,,,,,,,,5,,,64,0
7582,note_on,0,0,1,,,,,,,,,5,,,73,0
7584,note_on,0,0,3,,,,,,,,,0,,,76,75
7584,note_on,2,0,2,,,,,,,,,6,,,49,110
7584,note_on,2,0,4,,,,,,,,,1,,,69,127
7584,note_on,2,0,6,,,,,,,,,3,,,49,60
7584,control_change,2,0,3,,,,,,,,,0,10,0,,
7584,note_on,2,0,5,,,,,,,,,2,,,64,60
7584,note_on,2,0,7,,,,,,,,,7,,,37,60
7584,note_on,2,0,1,,,,,,,,,5,,,76,110
7616,note_on,32,0,3,,,,,,,,,0,,,76,0
7678,note_on,94,0,1,,,,,,,,,5,,,76,0
7678,note_on,94,0,7,,,,,,,,,7,,,37,0
7678,note_on,94,0,6,,,,,,,,,3,,,49,0
7678,note_on,94,0,2,,,,,,,,,6,,,49,0
7678,note_on,94,0,5,,,,,,,,,2,,,64,0
7680,note_on,2,0,7,,,,,,,,,7,,,33,60
7680,note_on,2,0,6,,,,,,,,,3,,,45,60
7680,note_on,64,0,3,,,,,,,,,0,,,76,75
7680,note_on,2,0,5,,,,,,,,,2,,,61,60
7680,note_on,2,0,2,,,,,,,,,6,,,45,110
7680,note_on,2,0,1,,,,,,,,,5,,,76,110
7712,note_on,32,0,3,,,,,,,,,0,,,76,0
7774,note_on,190,0,4,,,,,,,,,1,,,69,0
7774,note_on,94,0,1,,,,,,,,,5,,,76,0
7776,note_on,2,0,4,,,,,,,,,1,,,74,127
7776,note_on,64,0,3,,,,,,,,,0,,,76,75
7776,note_on,2,0,1,,,,,,,,,5,,,76,110
7808,note_on,32,0,3,,,,,,,,,0,,,76,0
7840,note_on,160,0,6,,,,,,,,,3,,,45,0
7840,note_on,160,0,5,,,,,,,,,2,,,61,0
7840,note_on,160,0,2,,,,,,,,,6,,,45,0
7840,note_on,160,0,7,,,,,,,,,7,,,33,0
7870,note_on,94,0,4,,,,,,,,,1,,,74,0
7870,note_on,94,0,1,,,,,,,,,5,,,76,0
7872,note_on,64,0,3,,,,,,,,,0,,,76,75
7872,note_on,2,0,1,,,,,,,,,5,,,76,110
7872,note_on,2,0,4,,,,,,,,,1,,,73,127
7966,note_on,94,0,3,,,,,,,,,0,,,76,0
7966,note_on,94,0,1,,,,,,,,,5,,,76,0
7966,note_on,94,0,4,,,,,,,,,1,,,73,0
7968,note_on,128,0,2,,,,,,,,,6,,,52,110
7968,note_on,128,0,5,,,,,,,,,2,,,64,60
7968,control_change,2,0,3,,,,,,,,,0,10,64,,
7968,note_on,128,0,6,,,,,,,,,3,,,52,60
7968,note_on,0,0,1,,,,,,,,,5,,,80,110
7968,note_on,128,0,7,,,,,,,,,7,,,40,60
7968,note_on,2,0,4,,,,,,,,,1,,,71,127
7968,note_on,0,0,3,,,,,,,,,0,,,80,127
7968,note_on,2,0,1,,,,,,,,,5,,,71,110
8062,note_on,94,0,3,,,,,,,,,0,,,80,0
8062,note_on,0,0,1,,,,,,,,,5,,,80,0
8062,note_on,94,0,5,,,,,,,,,2,,,64,0
8062,note_on,94,0,1,,,,,,,,,5,,,71,0
8062,note_on,94,0,4,,,,,,,,,1,,,71,0
8062,note_on,94,0,2,,,,,,,,,6,,,52,0
8062,note_on,94,0,6,,,,,,,,,3,,,52,0
8062,note_on,94,0,7,,,,,,,,,7,,,40,0
8064,note_on,2,0,1,,,,,,,,,5,,,73,110
8064,note_on,2,0,6,,,,,,,,,3,,,57,60
8064,note_on,2,0,3,,,,,,,,,0,,,81,127
8064,note_on,0,0,1,,,,,,,,,5,,,81,110
8064,note_on,2,0,4,,,,,,,,,1,,,73,127
8064,note_on,2,0,5,,,,,,,,,2,,,64,60
8064,note_on,2,0,2,,,,,,,,,6,,,57,110
8064,note_on,2,0,7,,,,,,,,,7,,,45,60
8158,note_on,0,0,1,,,,,,,,,5,,,81,0
8158,note_on,94,0,3,,,,,,,,,0,,,81,0
8158,note_on,94,0,1,,,,,,,,,5,,,73,0
8158,note_on,94,0,4,,,,,,,,,1,,,73,0
8158,note_on,94,0,2,,,,,,,,,6,,,57,0
8158,note_on,94,0,7,,,,,,,,,7,,,45,0
8158,note_on,94,0,5,,,,,,,,,2,,,64,0
8158,note_on,94,0,6,,,,,,,,,3,,,57,0
8160,note_on,2,0,1,,,,,,,,,5,,,69,110
8160,control_change,2,0,4,,,,,,,,,1,10,127,,
8160,note_on,2,0,2,,,,,,,,,6,,,49,110
8160,note_on,2,0,5,,,,,,,,,2,,,64,60
8160,note_on,2,0,6,,,,,,,,,3,,,49,60
8160,note_on,2,0,7,,,,,,,,,7,,,37,60
8160,note_on,2,0,3,,,,,,,,,0,,,69,127
8160,note_on,0,0,4,,,,,,,,,1,,,76,75
8192,note_on,32,0,4,,,,,,,,,1,,,76,0
8254,note_on,94,0,6,,,,,,,,,3,,,49,0
8254,note_on,94,0,7,,,,,,,,,7,,,37,0
8254,note_on,94,0,2,,,,,,,,,6,,,49,0
8254,note_on,94,0,5,,,,,,,,,2,,,64,0
8256,note_on,2,0,2,,,,,,,,,6,,,45,110
8256,note_on,2,0,7,,,,,,,,,7,,,33,60
8256,note_on,64,0,4,,,,,,,,,1,,,76,75
8256,note_on,2,0,6,,,,,,,,,3,,,45,60
8256,note_on,2,0,5,,,,,,,,,2,,,61,60
8288,note_on,32,0,4,,,,,,,,,1,,,76,0
8350,note_on,190,0,1,,,,,,,,,5,,,69,0
8350,note_on,190,0,3,,,,,,,,,0,,,69,0
8352,note_on,64,0,4,,,,,,,,,1,,,76,75
8352,note_on,2,0,1,,,,,,,,,5,,,74,110
8352,note_on,2,0,3,,,,,,,,,0,,,74,127
8384,note_on,32,0,4,,,,,,,,,1,,,76,0
8416,note_on,160,0,2,,,,,,,,,6,,,45,0
8416,note_on,160,0,6,,,,,,,,,3,,,45,0
8416,note_on,160,0,7,,,,,,,,,7,,,33,0
8416,note_on,160,0,5,,,,,,,,,2,,,61,0
8446,note_on,94,0,1,,,,,,,,,5,,,74,0
8446,note_on,94,0,3,,,,,,,,,0,,,74,0
8448,note_on,2,0,3,,,,,,,,,0,,,73,127
8448,note_on,64,0,4,,,,,,,,,1,,,76,75
8448,note_on,2,0,1,,,,,,,,,5,,,73,110
8480,note_on,32,0,4,,,,,,,,,1,,,76,0
8542,note_on,94,0,1,,,,,,,,,5,,,73,0
8542,note_on,94,0,3,,,,,,,,,0,,,73,0
8544,note_on,128,0,2,,,,,,,,,6,,,52,110
8544,note_on,128,0,6,,,,,,,,,3,,,52,60
8544,note_on,2,0,3,,,,,,,,,0,,,71,127
8544,note_on,128,0,5,,,,,,,,,2,,,64,60
8544,note_on,128,0,7,,,,,,,,,7,,,40,60
8544,note_on,0,0,4,,,,,,,,,1,,,80,127
8544,note_on,2,0,1,,,,,,,,,5,,,68,110
8544,note_on,0,0,1,,,,,,,,,5,,,71,110
8544,control_change,64,0,4,,,,,,,,,1,10,64,,
8638,note_on,0,0,1,,,,,,,,,5,,,71,0
8638,note_on,94,0,4,,,,,,,,,1,,,80,0
8638,note_on,94,0,6,,,,,,,,,3,,,52,0
8638,note_on,94,0,7,,,,,,,,,7,,,40,0
8638,note_on,94,0,1,,,,,,,,,5,,,68,0
8638,note_on,94,0,3,,,,,,,,,0,,,71,0
8638,note_on,94,0,2,,,,,,,,,6,,,52,0
8638,note_on,94,0,5,,,,,,,,,2,,,64,0
8640,note_on,2,0,6,,,,,,,,,3,,,57,60
8640,note_on,2,0,5,,,,,,,,,2,,,64,60
8640,note_on,0,0,1,,,,,,,,,5,,,73,110
8640,note_on,2,0,7,,,,,,,,,7,,,45,60
8640,note_on,2,0,2,,,,,,,,,6,,,57,110
8640,note_on,2,0,4,,,,,,,,,1,,,81,127
8640,note_on,2,0,1,,,,,,,,,5,,,64,110
8640,note_on,2,0,3,,,,,,,,,0,,,73,127
8734,note_on,94,0,7,,,,,,,,,7,,,45,0
8734,note_on,94,0,6,,,,,,,,,3,,,57,0
8734,note_on,94,0,5,,,,,,,,,2,,,64,0
8734,note_on,94,0,4,,,,,,,,,1,,,81,0
8734,note_on,94,0,2,,,,,,,,,6,,,57,0
8734,note_on,94,0,3,,,,,,,,,0,,,73,0
8734,note_on,94,0,1,,,,,,,,,5,,,64,0
8734,note_on,0,0,1,,,,,,,,,5,,,73,0
8736,note_on,2,0,4,,,,,,,,,1,,,69,127
8736,note_on,2,0,6,,,,,,,,,3,,,49,60
8736,note_on,2,0,7,,,,,,,,,7,,,37,60
8736,note_on,2,0,3,,,,,,,,,0,,,76,75
8736,note_on,2,0,2,,,,,,,,,6,,,49,110
8736,note_on,2,0,1,,,,,,,,,5,,,76,110
8736,note_on,2,0,5,,,,,,,,,2,,,64,60
8768,note_on,32,0,3,,,,,,,,,0,,,76,0
8830,note_on,94,0,1,,,,,,,,,5,,,76,0
8830,note_on,94,0,6,,,,,,,,,3,,,49,0
8830,note_on,94,0,2,,,,,,,,,6,,,49,0
8830,note_on,94,0,7,,,,,,,,,7,,,37,0
8830,note_on,94,0,5,,,,,,,,,2,,,64,0
8832,note_on,2,0,2,,,,,,,,,6,,,45,110
8832,note_on,2,0,6,,,,,,,,,3,,,45,60
8832,note_on,2,0,1,,,,,,,,,5,,,76,110
8832,note_on,64,0,3,,,,,,,,,0,,,76,75
8832,note_on,2,0,5,,,,,,,,,2,,,61,60
8832,note_on,2,0,7,,,,,,,,,7,,,33,60
8864,note_on,32,0,3,,,,,,,,,0,,,76,0
8926,note_on,190,0,4,,,,,,,,,1,,,69,0
8926,note_on,94,0,1,,,,,,,,,5,,,76,0
8928,note_on,64,0,3,,,,,,,,,0,,,76,75
8928,note_on,2,0,4,,,,,,,,,1,,,74,127
8928,note_on,2,0,1,,,,,,,,,5,,,76,110
8960,note_on,32,0,3,,,,,,,,,0,,,76,0
8992,note_on,160,0,7,,,,,,,,,7,,,33,0
8992,note_on,160,0,6,,,,,,,,,3,,,45,0
8992,note_on,160,0,5,,,,,,,,,2,,,61,0
8992,note_on,160,0,2,,,,,,,,,6,,,45,0
9022,note_on,94,0,4,,,,,,,,,1,,,74,0
9022,note_on,94,0,1,,,,,,,,,5,,,76,0
9024,note_on,2,0,4,,,,,,,,,1,,,73,127
9024,note_on,64,0,3,,,,,,,,,0,,,76,127
9024,note_on,2,0,1,,,,,,,,,5,,,76,110
9118,note_on,94,0,3,,,,,,,,,0,,,76,0
9118,note_on,94,0,4,,,,,,,,,1,,,73,0
9118,note_on,94,0,1,,,,,,,,,5,,,76,0
9120,note_on,128,0,6,,,,,,,,,3,,,52,60
9120,note_on,128,0,5,,,,,,,,,2,,,64,60
9120,control_change,2,0,3,,,,,,,,,0,10,64,,
9120,note_on,0,0,3,,,,,,,,,0,,,80,127
9120,note_on,128,0,2,,,,,,,,,6,,,52,110
9120,note_on,2,0,4,,,,,,,,,1,,,71,127
9120,note_on,2,0,1,,,,,,,,,5,,,71,110
9120,note_on,0,0,1,,,,,,,,,5,,,80,110
9120,note_on,128,0,7,,,,,,,,,7,,,40,60
9214,note_on,94,0,3,,,,,,,,,0,,,80,0
9214,note_on,94,0,6,,,,,,,,,3,,,52,0
9214,note_on,94,0,2,,,,,,,,,6,,,52,0
9214,note_on,94,0,4,,,,,,,,,1,,,71,0
9214,note_on,94,0,7,,,,,,,,,7,,,40,0
9214,note_on,94,0,5,,,,,,,,,2,,,64,0
9214,note_on,0,0,1,,,,,,,,,5,,,80,0
9214,note_on,94,0,1,,,,,,,,,5,,,71,0
9216,note_on,2,0,2,,,,,,,,,6,,,57,110
9216,note_on,2,0,5,,,,,,,,,2,,,64,60
9216,note_on,2,0,3,,,,,,,,,0,,,81,127
9216,note_on,0,0,1,,,,,,,,,5,,,81,110
9216,control_change,2,0,4,,,,,,,,,1,10,0,,
9216,note_on,2,0,6,,,,,,,,,3,,,57,60
9216,note_on,0,0,4,,,,,,,,,1,,,73,127
9216,note_on,2,0,1,,,,,,,,,5,,,73,110
9216,note_on,2,0,7,,,,,,,,,7,,,45,60
9310,note_on,94,0,3,,,,,,,,,0,,,81,0
9310,note_on,94,0,4,,,,,,,,,1,,,73,0
9310,note_on,0,0,1,,,,,,,,,5,,,81,0
9310,note_on,94,0,1,,,,,,,,,5,,,73,0
9312,note_on,2,0,1,,,,,,,,,5,,,73,110
9312,note_on,2,0,4,,,,,,,,,1,,,76,127
9312,note_on,2,0,3,,,,,,,,,0,,,73,127
9344,note_on,32,0,4,,,,,,,,,1,,,76,0
9376,note_on,160,0,2,,,,,,,,,6,,,57,0
9376,note_on,160,0,7,,,,,,,,,7,,,45,0
9376,note_on,160,0,5,,,,,,,,,2,,,64,0
9376,note_on,160,0,6,,,,,,,,,3,,,57,0
9406,note_on,94,0,3,,,,,,,,,0,,,73,0
9406,note_on,94,0,1,,,,,,,,,5,,,73,0
9408,note_on,2,0,1,,,,,,,,,5,,,71,110
9408,note_on,32,0,7,,,,,,,,,7,,,40,60
9408,note_on,32,0,5,,,,,,,,,2,,,64,60
9408,note_on,32,0,6,,,,,,,,,3,,,52,60
9408,note_on,2,0,3,,,,,,,,,0,,,71,127
9408,note_on,64,0,4,,,,,,,,,1,,,76,127
9408,note_on,32,0,2,,,,,,,,,6,,,52,110
9440,note_on,32,0,4,,,,,,,,,1,,,76,0
9502,note_on,94,0,1,,,,,,,,,5,,,71,0
9502,note_on,94,0,3,,,,,,,,,0,,,71,0
9504,note_on,2,0,1,,,,,,,,,5,,,81,110
9504,note_on,2,0,3,,,,,,,,,0,,,81,127
9504,note_on,64,0,4,,,,,,,,,1,,,76,127
9536,note_on,32,0,4,,,,,,,,,1,,,76,0
9568,note_on,160,0,5,,,,,,,,,2,,,64,0
9568,note_on,160,0,7,,,,,,,,,7,,,40,0
9568,note_on,160,0,2,,,,,,,,,6,,,52,0
9568,note_on,160,0,6,,,,,,,,,3,,,52,0
9598,note_on,94,0,3,,,,,,,,,0,,,81,0
9598,note_on,94,0,1,,,,,,,,,5,,,81,0
9600,note_on,64,0,4,,,,,,,,,1,,,76,127
9600,note_on,32,0,2,,,,,,,,,6,,,45,110
9600,note_on,32,0,6,,,,,,,,,3,,,45,60
9600,note_on,2,0,3,,,,,,,,,0,,,71,127
9600,note_on,32,0,5,,,,,,,,,2,,,64,60
9600,note_on,32,0,7,,,,,,,,,7,,,33,60
9600,note_on,2,0,1,,,,,,,,,5,,,71,110
9632,note_on,32,0,4,,,,,,,,,1,,,76,0
9694,note_on,94,0,3,,,,,,,,,0,,,71,0
9694,note_on,94,0,1,,,,,,,,,5,,,71,0
9696,note_on,0,0,1,,,,,,,,,5,,,80,110
9696,note_on,2,0,1,,,,,,,,,5,,,74,110
9696,note_on,0,0,1,,,,,,,,,5,,,76,110
9696,note_on,2,0,3,,,,,,,,,0,,,80,127
9696,note_on,64,0,4,,,,,,,,,1,,,76,127
9718,note_on,22,0,1,,,,,,,,,5,,,80,0
9720,note_on,2,0,1,,,,,,,,,5,,,81,110
9728,note_on,32,0,4,,,,,,,,,1,,,76,0
9742,note_on,22,0,1,,,,,,,,,5,,,81,0
9744,note_on,2,0,1,,,,,,,,,5,,,80,110
9760,note_on,160,0,5,,,,,,,,,2,,,64,0
9760,note_on,160,0,6,,,,,,,,,3,,,45,0
9760,note_on,160,0,2,,,,,,,,,6,,,45,0
9760,note_on,160,0,7,,,,,,,,,7,,,33,0
9790,note_on,46,0,1,,,,,,,,,5,,,74,0
9790,note_on,94,0,3,,,,,,,,,0,,,80,0
9790,note_on,0,0,1,,,,,,,,,5,,,76,0
9790,note_on,0,0,1,,,,,,,,,5,,,80,0
9792,note_on,0,0,2,,,,,,,,,6,,,45,110
9792,note_on,64,0,4,,,,,,,,,1,,,73,127
9792,control_change,32,0,2,,,,,,,,,6,7,127,,
9792,note_on,32,0,7,,,,,,,,,7,,,33,60
9792,note_on,32,0,6,,,,,,,,,3,,,45,60
9792,note_on,0,0,2,,,,,,,,,6,,,49,110
9792,control_change,2,0,1,,,,,,,,,5,7,127,,
9792,note_on,0,0,1,,,,,,,,,5,,,81,110
9792,note_on,32,0,5,,,,,,,,,2,,,64,60
9792,note_on,2,0,3,,,,,,,,,0,,,81,127
9792,note_on,0,0,2,,,,,,,,,6,,,52,110
9838,note_on,46,0,1,,,,,,,,,5,,,81,0
9840,note_on,2,0,1,,,,,,,,,5,,,76,110
9886,note_on,46,0,1,,,,,,,,,5,,,76,0
9888,note_on,2,0,1,,,,,,,,,5,,,78,110
9934,note_on,46,0,1,,,,,,,,,5,,,78,0
9936,note_on,2,0,1,,,,,,,,,5,,,80,110
9952,note_on,160,0,6,,,,,,,,,3,,,45,0
9952,note_on,160,0,4,,,,,,,,,1,,,73,0
9952,note_on,160,0,3,,,,,,,,,0,,,81,0
9952,note_on,0,0,2,,,,,,,,,6,,,52,0
9952,note_on,0,0,2,,,,,,,,,6,,,49,0
9952,note_on,160,0,2,,,,,,,,,6,,,45,0
9952,note_on,160,0,7,,,,,,,,,7,,,33,0
9952,note_on,160,0,5,,,,,,,,,2,,,64,0
9982,note_on,46,0,1,,,,,,,,,5,,,80,0
9984,note_on,2,0,1,,,,,,,,,5,,,81,110
10030,note_on,46,0,1,,,,,,,,,5,,,81,0
10032,note_on,2,0,1,,,,,,,,,5,,,76,110
10078,note_on,46,0,1,,,,,,,,,5,,,76,0
10080,note_on,2,0,1,,,,,,,,,5,,,78,110
10126,note_on,46,0,1,,,,,,,,,5,,,78,0
10128,note_on,2,0,1,,,,,,,,,5,,,80,110
10174,note_on,46,0,1,,,,,,,,,5,,,80,0
10176,note_on,2,0,1,,,,,,,,,5,,,81,110
10222,note_on,46,0,1,,,,,,,,,5,,,81,0
10224,note_on,2,0,1,,,,,,,,,5,,,76,110
10270,note_on,46,0,1,,,,,,,,,5,,,76,0
10272,note_on,2,0,1,,,,,,,,,5,,,78,110
10318,note_on,46,0,1,,,,,,,,,5,,,78,0
10320,note_on,2,0,1,,,,,,,,,5,,,80,110
10366,note_on,46,0,1,,,,,,,,,5,,,80,0
10368,note_on,416,0,2,,,,,,,,,6,,,57,110
10368,note_on,2,0,1,,,,,,,,,5,,,81,110
10368,note_on,416,0,6,,,,,,,,,3,,,45,60
10414,note_on,46,0,2,,,,,,,,,6,,,57,0
10416,note_on,2,0,2,,,,,,,,,6,,,52,110
10462,note_on,46,0,2,,,,,,,,,6,,,52,0
10462,note_on,94,0,1,,,,,,,,,5,,,81,0
10464,note_on,2,0,2,,,,,,,,,6,,,54,110
10464,note_on,2,0,1,,,,,,,,,5,,,76,110
10496,note_on,32,0,1,,,,,,,,,5,,,76,0
10510,note_on,46,0,2,,,,,,,,,6,,,54,0
10512,note_on,2,0,2,,,,,,,,,6,,,56,110
10528,note_on,160,0,6,,,,,,,,,3,,,45,0
10558,note_on,46,0,2,,,,,,,,,6,,,56,0
10560,note_on,2,0,2,,,,,,,,,6,,,57,110
10560,note_on,64,0,1,,,,,,,,,5,,,73,110
10592,note_on,32,0,1,,,,,,,,,5,,,73,0
10606,note_on,46,0,2,,,,,,,,,6,,,57,0
10608,note_on,2,0,2,,,,,,,,,6,,,52,110
10654,note_on,46,0,2,,,,,,,,,6,,,52,0
10656,note_on,2,0,2,,,,,,,,,6,,,54,110
10656,note_on,64,0,1,,,,,,,,,5,,,69,110
10702,note_on,46,0,2,,,,,,,,,6,,,54,0
10704,note_on,2,0,2,,,,,,,,,6,,,56,110
10750,note_on,94,0,1,,,,,,,,,5,,,69,0
10750,note_on,46,0,2,,,,,,,,,6,,,56,0
10752,note_on,2,0,2,,,,,,,,,6,,,57,110
10752,note_on,2,0,1,,,,,,,,,5,,,73,110
10784,note_on,32,0,1,,,,,,,,,5,,,73,0
10798,note_on,46,0,2,,,,,,,,,6,,,57,0
10800,note_on,2,0,2,,,,,,,,,6,,,52,110
10846,note_on,46,0,2,,,,,,,,,6,,,52,0
10848,note_on,64,0,1,,,,,,,,,5,,,76,110
10848,note_on,2,0,2,,,,,,,,,6,,,54,110
10894,note_on,46,0,2,,,,,,,,,6,,,54,0
10896,note_on,2,0,2,,,,,,,,,6,,,56,110
10942,note_on,46,0,2,,,,,,,,,6,,,56,0
10942,note_on,94,0,1,,,,,,,,,5,,,76,0
10944,note_on,2,0,1,,,,,,,,,5,,,81,110
10944,note_on,2,0,2,,,,,,,,,6,,,57,110
10944,note_on,416,0,6,,,,,,,,,3,,,45,60
10990,note_on,46,0,1,,,,,,,,,5,,,81,0
10992,note_on,2,0,1,,,,,,,,,5,,,76,110
11038,note_on,46,0,1,,,,,,,,,5,,,76,0
11038,note_on,94,0,2,,,,,,,,,6,,,57,0
11040,note_on,2,0,1,,,,,,,,,5,,,78,110
11040,note_on,2,0,2,,,,,,,,,6,,,52,110
11072,note_on,32,0,2,,,,,,,,,6,,,52,0
11086,note_on,46,0,1,,,,,,,,,5,,,78,0
11088,note_on,2,0,1,,,,,,,,,5,,,80,110
11104,note_on,160,0,6,,,,,,,,,3,,,45,0
11134,note_on,46,0,1,,,,,,,,,5,,,80,0
11136,note_on,2,0,1,,,,,,,,,5,,,81,110
11136,note_on,64,0,2,,,,,,,,,6,,,49,110
11168,note_on,32,0,2,,,,,,,,,6,,,49,0
11182,note_on,46,0,1,,,,,,,,,5,,,81,0
11184,note_on,2,0,1,,,,,,,,,5,,,76,110
11230,note_on,46,0,1,,,,,,,,,5,,,76,0
11232,note_on,2,0,1,,,,,,,,,5,,,78,110
11232,note_on,64,0,2,,,,,,,,,6,,,45,110
11278,note_on,46,0,1,,,,,,,,,5,,,78,0
11280,note_on,2,0,1,,,,,,,,,5,,,80,110
11326,note_on,46,0,1,,,,,,,,,5,,,80,0
11326,note_on,94,0,2,,,,,,,,,6,,,45,0
11328,note_on,2,0,2,,,,,,,,,6,,,49,110
11328,note_on,2,0,1,,,,,,,,,5,,,81,110
11360,note_on,32,0,2,,,,,,,,,6,,,49,0
11374,note_on,46,0,1,,,,,,,,,5,,,81,0
11376,note_on,2,0,1,,,,,,,,,5,,,76,110
11422,note_on,46,0,1,,,,,,,,,5,,,76,0
11424,note_on,2,0,1,,,,,,,,,5,,,78,110
11424,note_on,64,0,2,,,,,,,,,6,,,52,110
11470,note_on,46,0,1,,,,,,,,,5,,,78,0
11472,note_on,2,0,1,,,,,,,,,5,,,80,110
11518,note_on,94,0,2,,,,,,,,,6,,,52,0
11518,note_on,46,0,1,,,,,,,,,5,,,80,0
11520,note_on,2,0,1,,,,,,,,,5,,,81,110
11520,note_on,2,0,2,,,,,,,,,6,,,57,110
11520,note_on,416,0,6,,,,,,,,,3,,,45,60
11566,note_on,46,0,2,,,,,,,,,6,,,57,0
11568,note_on,2,0,2,,,,,,,,,6,,,52,110
11614,note_on,94,0,1,,,,,,,,,5,,,81,0
11614,note_on,46,0,2,,,,,,,,,6,,,52,0
11616,note_on,2,0,1,,,,,,,,,5,,,76,110
11616,note_on,2,0,2,,,,,,,,,6,,,54,110
11648,note_on,32,0,1,,,,,,,,,5,,,76,0
11662,note_on,46,0,2,,,,,,,,,6,,,54,0
11664,note_on,2,0,2,,,,,,,,,6,,,56,110
11680,note_on,160,0,6,,,,,,,,,3,,,45,0
11710,note_on,46,0,2,,,,,,,,,6,,,56,0
11712,note_on,2,0,2,,,,,,,,,6,,,57,110
11712,note_on,64,0,1,,,,,,,,,5,,,73,110
11744,note_on,32,0,1,,,,,,,,,5,,,73,0
11758,note_on,46,0,2,,,,,,,,,6,,,57,0
11760,note_on,2,0,2,,,,,,,,,6,,,52,110
11806,note_on,46,0,2,,,,,,,,,6,,,52,0
11808,note_on,64,0,1,,,,,,,,,5,,,69,110
11808,note_on,2,0,2,,,,,,,,,6,,,54,110
11854,note_on,46,0,2,,,,,,,,,6,,,54,0
11856,note_on,2,0,2,,,,,,,,,6,,,56,110
11902,note_on,94,0,1,,,,,,,,,5,,,69,0
11902,note_on,46,0,2,,,,,,,,,6,,,56,0
11904,note_on,2,0,2,,,,,,,,,6,,,57,110
11904,note_on,2,0,1,,,,,,,,,5,,,73,110
11936,note_on,32,0,1,,,,,,,,,5,,,73,0
11950,note_on,46,0,2,,,,,,,,,6,,,57,0
11952,note_on,2,0,2,,,,,,,,,6,,,52,110
11998,note_on,46,0,2,,,,,,,,,6,,,52,0
12000,note_on,64,0,1,,,,,,,,,5,,,76,110
12000,note_on,2,0,2,,,,,,,,,6,,,54,110
12046,note_on,46,0,2,,,,,,,,,6,,,54,0
12048,note_on,2,0,2,,,,,,,,,6,,,56,110
12094,note_on,46,0,2,,,,,,,,,6,,,56,0
12094,note_on,94,0,1,,,,,,,,,5,,,76,0
12096,note_on,2,0,1,,,,,,,,,5,,,81,110
12096,note_on,2,0,2,,,,,,,,,6,,,57,110
12096,note_on,416,0,6,,,,,,,,,3,,,45,60
12128,note_on,32,0,2,,,,,,,,,6,,,57,0
12142,note_on,46,0,1,,,,,,,,,5,,,81,0
12144,note_on,2,0,1,,,,,,,,,5,,,76,110
12190,note_on,46,0,1,,,,,,,,,5,,,76,0
12192,note_on,2,0,1,,,,,,,,,5,,,81,110
12192,note_on,64,0,2,,,,,,,,,6,,,57,110
12224,note_on,32,0,2,,,,,,,,,6,,,57,0
12238,note_on,46,0,1,,,,,,,,,5,,,81,0
12240,note_on,2,0,1,,,,,,,,,5,,,85,110
12256,note_on,160,0,6,,,,,,,,,3,,,45,0
12286,note_on,46,0,1,,,,,,,,,5,,,85,0
12288,note_on,64,0,2,,,,,,,,,6,,,59,110
12288,note_on,2,0,1,,,,,,,,,5,,,81,110
12334,note_on,46,0,1,,,,,,,,,5,,,81,0
12334,note_on,46,0,2,,,,,,,,,6,,,59,0
12336,note_on,2,0,1,,,,,,,,,5,,,76,110
12336,note_on,2,0,2,,,,,,,,,6,,,57,110
12382,note_on,46,0,1,,,,,,,,,5,,,76,0
12382,note_on,46,0,2,,,,,,,,,6,,,57,0
12384,note_on,2,0,1,,,,,,,,,5,,,81,110
12384,note_on,2,0,2,,,,,,,,,6,,,61,110
12430,note_on,46,0,1,,,,,,,,,5,,,81,0
12430,note_on,46,0,2,,,,,,,,,6,,,61,0
12432,note_on,2,0,1,,,,,,,,,5,,,85,110
12432,note_on,2,0,2,,,,,,,,,6,,,64,110
12478,note_on,46,0,1,,,,,,,,,5,,,85,0
12478,note_on,46,0,2,,,,,,,,,6,,,64,0
12480,note_on,2,0,1,,,,,,,,,5,,,81,110
12480,note_on,2,0,2,,,,,,,,,6,,,61,110
12526,note_on,46,0,2,,,,,,,,,6,,,61,0
12526,note_on,46,0,1,,,,,,,,,5,,,81,0
12528,note_on,2,0,2,,,,,,,,,6,,,57,110
12528,note_on,2,0,1,,,,,,,,,5,,,76,110
12574,note_on,46,0,1,,,,,,,,,5,,,76,0
12574,note_on,46,0,2,,,,,,,,,6,,,57,0
12576,note_on,2,0,1,,,,,,,,,5,,,81,110
12576,note_on,2,0,2,,,,,,,,,6,,,61,110
12622,note_on,46,0,1,,,,,,,,,5,,,81,0
12622,note_on,46,0,2,,,,,,,,,6,,,61,0
12624,note_on,2,0,2,,,,,,,,,6,,,64,110
12624,note_on,2,0,1,,,,,,,,,5,,,85,110
12670,note_on,46,0,1,,,,,,,,,5,,,85,0
12670,note_on,46,0,2,,,,,,,,,6,,,64,0
12672,note_on,2,0,2,,,,,,,,,6,,,59,110
12672,note_on,416,0,6,,,,,,,,,3,,,52,60
12672,note_on,2,0,1,,,,,,,,,5,,,80,110
12718,note_on,46,0,1,,,,,,,,,5,,,80,0
12718,note_on,46,0,2,,,,,,,,,6,,,59,0
12720,note_on,2,0,1,,,,,,,,,5,,,76,110
12720,note_on,2,0,2,,,,,,,,,6,,,56,110
12766,note_on,46,0,2,,,,,,,,,6,,,56,0
12766,note_on,46,0,1,,,,,,,,,5,,,76,0
12768,note_on,2,0,1,,,,,,,,,5,,,80,110
12768,note_on,2,0,2,,,,,,,,,6,,,59,110
12814,note_on,46,0,1,,,,,,,,,5,,,80,0
12814,note_on,46,0,2,,,,,,,,,6,,,59,0
12816,note_on,2,0,2,,,,,,,,,6,,,64,110
12816,note_on,2,0,1,,,,,,,,,5,,,83,110
12832,note_on,160,0,6,,,,,,,,,3,,,52,0
12862,note_on,46,0,1,,,,,,,,,5,,,83,0
12862,note_on,46,0,2,,,,,,,,,6,,,64,0
12864,note_on,2,0,1,,,,,,,,,5,,,80,110
12864,note_on,2,0,2,,,,,,,,,6,,,59,110
12910,note_on,46,0,1,,,,,,,,,5,,,80,0
12910,note_on,46,0,2,,,,,,,,,6,,,59,0
12912,note_on,2,0,1,,,,,,,,,5,,,76,110
12912,note_on,2,0,2,,,,,,,,,6,,,56,110
12958,note_on,46,0,2,,,,,,,,,6,,,56,0
12958,note_on,46,0,1,,,,,,,,,5,,,76,0
12960,note_on,2,0,2,,,,,,,,,6,,,59,110
12960,note_on,2,0,1,,,,,,,,,5,,,80,110
13006,note_on,46,0,1,,,,,,,,,5,,,80,0
13006,note_on,46,0,2,,,,,,,,,6,,,59,0
13008,note_on,2,0,2,,,,,,,,,6,,,64,110
13008,note_on,2,0,1,,,,,,,,,5,,,83,110
13054,note_on,46,0,2,,,,,,,,,6,,,64,0
13054,note_on,46,0,1,,,,,,,,,5,,,83,0
13056,note_on,2,0,1,,,,,,,,,5,,,80,110
13056,note_on,2,0,2,,,,,,,,,6,,,59,110
13102,note_on,46,0,2,,,,,,,,,6,,,59,0
13102,note_on,46,0,1,,,,,,,,,5,,,80,0
13104,note_on,2,0,1,,,,,,,,,5,,,76,110
13104,note_on,2,0,2,,,,,,,,,6,,,56,110
13150,note_on,46,0,2,,,,,,,,,6,,,56,0
13150,note_on,46,0,1,,,,,,,,,5,,,76,0
13152,note_on,2,0,1,,,,,,,,,5,,,80,110
13152,note_on,2,0,2,,,,,,,,,6,,,59,110
13198,note_on,46,0,1,,,,,,,,,5,,,80,0
13198,note_on,46,0,2,,,,,,,,,6,,,59,0
13200,note_on,2,0,1,,,,,,,,,5,,,83,110
13200,note_on,2,0,2,,,,,,,,,6,,,64,110
13246,note_on,46,0,1,,,,,,,,,5,,,83,0
13246,note_on,46,0,2,,,,,,,,,6,,,64,0
13248,note_on,2,0,2,,,,,,,,,6,,,61,110
13248,note_on,2,0,1,,,,,,,,,5,,,81,110
13248,note_on,416,0,6,,,,,,,,,3,,,45,60
13294,note_on,46,0,1,,,,,,,,,5,,,81,0
13294,note_on,46,0,2,,,,,,,,,6,,,61,0
13296,note_on,2,0,2,,,,,,,,,6,,,57,110
13296,note_on,2,0,1,,,,,,,,,5,,,76,110
13342,note_on,46,0,1,,,,,,,,,5,,,76,0
13342,note_on,46,0,2,,,,,,,,,6,,,57,0
13344,note_on,2,0,2,,,,,,,,,6,,,61,110
13344,note_on,2,0,1,,,,,,,,,5,,,81,110
13390,note_on,46,0,2,,,,,,,,,6,,,61,0
13390,note_on,46,0,1,,,,,,,,,5,,,81,0
13392,note_on,2,0,2,,,,,,,,,6,,,64,110
13392,note_on,2,0,1,,,,,,,,,5,,,85,110
13408,note_on,160,0,6,,,,,,,,,3,,,45,0
13438,note_on,46,0,2,,,,,,,,,6,,,64,0
13438,note_on,46,0,1,,,,,,,,,5,,,85,0
13440,note_on,2,0,2,,,,,,,,,6,,,61,110
13440,note_on,2,0,1,,,,,,,,,5,,,81,110
13486,note_on,46,0,1,,,,,,,,,5,,,81,0
13486,note_on,46,0,2,,,,,,,,,6,,,61,0
13488,note_on,2,0,1,,,,,,,,,5,,,76,110
13488,note_on,2,0,2,,,,,,,,,6,,,57,110
13534,note_on,46,0,2,,,,,,,,,6,,,57,0
13534,note_on,46,0,1,,,,,,,,,5,,,76,0
13536,note_on,2,0,2,,,,,,,,,6,,,61,110
13536,note_on,2,0,1,,,,,,,,,5,,,81,110
13582,note_on,46,0,2,,,,,,,,,6,,,61,0
13582,note_on,46,0,1,,,,,,,,,5,,,81,0
13584,note_on,2,0,2,,,,,,,,,6,,,64,110
13584,note_on,2,0,1,,,,,,,,,5,,,85,110
13630,note_on,46,0,1,,,,,,,,,5,,,85,0
13630,note_on,46,0,2,,,,,,,,,6,,,64,0
13632,note_on,2,0,1,,,,,,,,,5,,,81,110
13632,note_on,2,0,2,,,,,,,,,6,,,61,110
13678,note_on,46,0,1,,,,,,,,,5,,,81,0
13678,note_on,46,0,2,,,,,,,,,6,,,61,0
13680,note_on,2,0,1,,,,,,,,,5,,,76,110
13680,note_on,2,0,2,,,,,,,,,6,,,57,110
13726,note_on,46,0,1,,,,,,,,,5,,,76,0
13726,note_on,46,0,2,,,,,,,,,6,,,57,0
13728,note_on,2,0,1,,,,,,,,,5,,,81,110
13728,note_on,2,0,2,,,,,,,,,6,,,61,110
13774,note_on,46,0,1,,,,,,,,,5,,,81,0
13774,note_on,46,0,2,,,,,,,,,6,,,61,0
13776,note_on,2,0,2,,,,,,,,,6,,,64,110
13776,note_on,2,0,1,,,,,,,,,5,,,85,110
13822,note_on,46,0,2,,,,,,,,,6,,,64,0
13822,note_on,46,0,1,,,,,,,,,5,,,85,0
13824,note_on,416,0,6,,,,,,,,,3,,,52,60
13824,note_on,2,0,1,,,,,,,,,5,,,80,110
13824,note_on,2,0,2,,,,,,,,,6,,,59,110
13870,note_on,46,0,1,,,,,,,,,5,,,80,0
13870,note_on,46,0,2,,,,,,,,,6,,,59,0
13872,note_on,2,0,1,,,,,,,,,5,,,76,110
13872,note_on,2,0,2,,,,,,,,,6,,,56,110
13918,note_on,46,0,2,,,,,,,,,6,,,56,0
13918,note_on,46,0,1,,,,,,,,,5,,,76,0
13920,note_on,2,0,2,,,,,,,,,6,,,59,110
13920,note_on,2,0,1,,,,,,,,,5,,,80,110
13966,note_on,46,0,1,,,,,,,,,5,,,80,0
13966,note_on,46,0,2,,,,,,,,,6,,,59,0
13968,note_on,2,0,1,,,,,,,,,5,,,83,110
13968,note_on,2,0,2,,,,,,,,,6,,,64,110
13984,note_on,160,0,6,,,,,,,,,3,,,52,0
14014,note_on,46,0,1,,,,,,,,,5,,,83,0
14014,note_on,46,0,2,,,,,,,,,6,,,64,0
14016,note_on,2,0,1,,,,,,,,,5,,,80,110
14016,note_on,2,0,2,,,,,,,,,6,,,59,110
14062,note_on,46,0,1,,,,,,,,,5,,,80,0
14062,note_on,46,0,2,,,,,,,,,6,,,59,0
14064,note_on,2,0,2,,,,,,,,,6,,,56,110
14064,note_on,2,0,1,,,,,,,,,5,,,76,110
14110,note_on,46,0,1,,,,,,,,,5,,,76,0
14110,note_on,46,0,2,,,,,,,,,6,,,56,0
14112,note_on,2,0,1,,,,,,,,,5,,,80,110
14112,note_on,2,0,2,,,,,,,,,6,,,59,110
14158,note_on,46,0,1,,,,,,,,,5,,,80,0
14158,note_on,46,0,2,,,,,,,,,6,,,59,0
14160,note_on,2,0,1,,,,,,,,,5,,,83,110
14160,note_on,2,0,2,,,,,,,,,6,,,64,110
14206,note_on,46,0,1,,,,,,,,,5,,,83,0
14206,note_on,46,0,2,,,,,,,,,6,,,64,0
14208,note_on,2,0,2,,,,,,,,,6,,,59,110
14208,note_on,2,0,1,,,,,,,,,5,,,80,110
14254,note_on,46,0,2,,,,,,,,,6,,,59,0
14254,note_on,46,0,1,,,,,,,,,5,,,80,0
14256,note_on,2,0,1,,,,,,,,,5,,,76,110
14256,note_on,2,0,2,,,,,,,,,6,,,56,110
14302,note_on,46,0,1,,,,,,,,,5,,,76,0
14302,note_on,46,0,2,,,,,,,,,6,,,56,0
14304,note_on,2,0,1,,,,,,,,,5,,,80,110
14304,note_on,2,0,2,,,,,,,,,6,,,59,110
14350,note_on,46,0,2,,,,,,,,,6,,,59,0
14350,note_on,46,0,1,,,,,,,,,5,,,80,0
14352,note_on,2,0,2,,,,,,,,,6,,,64,110
14352,note_on,2,0,1,,,,,,,,,5,,,83,110
14398,note_on,46,0,2,,,,,,,,,6,,,64,0
14398,note_on,46,0,1,,,,,,,,,5,,,83,0
14400,note_on,2,0,2,,,,,,,,,6,,,61,110
14400,note_on,2,0,1,,,,,,,,,5,,,81,110
14400,note_on,416,0,6,,,,,,,,,3,,,45,60
14446,note_on,46,0,2,,,,,,,,,6,,,61,0
14446,note_on,46,0,1,,,,,,,,,5,,,81,0
14448,note_on,2,0,2,,,,,,,,,6,,,62,110
14448,note_on,2,0,1,,,,,,,,,5,,,83,110
14494,note_on,46,0,2,,,,,,,,,6,,,62,0
14494,note_on,46,0,1,,,,,,,,,5,,,83,0
14496,note_on,2,0,2,,,,,,,,,6,,,61,110
14496,note_on,2,0,1,,,,,,,,,5,,,81,110
14542,note_on,46,0,2,,,,,,,,,6,,,61,0
14542,note_on,46,0,1,,,,,,,,,5,,,81,0
14544,note_on,2,0,2,,,,,,,,,6,,,62,110
14544,note_on,2,0,1,,,,,,,,,5,,,83,110
14560,note_on,160,0,6,,,,,,,,,3,,,45,0
14590,note_on,46,0,1,,,,,,,,,5,,,83,0
14590,note_on,46,0,2,,,,,,,,,6,,,62,0
14592,note_on,2,0,1,,,,,,,,,5,,,81,110
14592,note_on,2,0,2,,,,,,,,,6,,,61,110
14638,note_on,46,0,1,,,,,,,,,5,,,81,0
14638,note_on,46,0,2,,,,,,,,,6,,,61,0
14640,note_on,2,0,1,,,,,,,,,5,,,83,110
14640,note_on,2,0,2,,,,,,,,,6,,,62,110
14686,note_on,46,0,2,,,,,,,,,6,,,62,0
14686,note_on,46,0,1,,,,,,,,,5,,,83,0
14688,note_on,2,0,1,,,,,,,,,5,,,81,110
14688,note_on,2,0,2,,,,,,,,,6,,,61,110
14734,note_on,46,0,1,,,,,,,,,5,,,81,0
14734,note_on,46,0,2,,,,,,,,,6,,,61,0
14736,note_on,2,0,1,,,,,,,,,5,,,83,110
14736,note_on,2,0,2,,,,,,,,,6,,,62,110
14782,note_on,46,0,2,,,,,,,,,6,,,62,0
14782,note_on,46,0,1,,,,,,,,,5,,,83,0
14784,note_on,2,0,2,,,,,,,,,6,,,61,110
14784,note_on,224,0,6,,,,,,,,,3,,,45,60
14784,note_on,2,0,1,,,,,,,,,5,,,81,110
14830,note_on,46,0,1,,,,,,,,,5,,,81,0
14830,note_on,46,0,2,,,,,,,,,6,,,61,0
14832,note_on,2,0,1,,,,,,,,,5,,,83,110
14832,note_on,2,0,2,,,,,,,,,6,,,62,110
14878,note_on,46,0,2,,,,,,,,,6,,,62,0
14878,note_on,46,0,1,,,,,,,,,5,,,83,0
14880,note_on,2,0,2,,,,,,,,,6,,,61,110
14880,note_on,2,0,1,,,,,,,,,5,,,81,110
14926,note_on,46,0,1,,,,,,,,,5,,,81,0
14926,note_on,46,0,2,,,,,,,,,6,,,61,0
14928,note_on,2,0,2,,,,,,,,,6,,,62,110
14928,note_on,2,0,1,,,,,,,,,5,,,83,110
14944,note_on,160,0,6,,,,,,,,,3,,,45,0
14974,note_on,46,0,1,,,,,,,,,5,,,83,0
14974,note_on,46,0,2,,,,,,,,,6,,,62,0
14976,note_on,2,0,1,,,,,,,,,5,,,80,110
14976,note_on,32,0,6,,,,,,,,,3,,,52,60
14976,note_on,2,0,2,,,,,,,,,6,,,59,110
15022,note_on,46,0,1,,,,,,,,,5,,,80,0
15022,note_on,46,0,2,,,,,,,,,6,,,59,0
15024,note_on,2,0,2,,,,,,,,,6,,,61,110
15024,note_on,2,0,1,,,,,,,,,5,,,81,110
15070,note_on,46,0,2,,,,,,,,,6,,,61,0
15070,note_on,46,0,1,,,,,,,,,5,,,81,0
15072,note_on,2,0,2,,,,,,,,,6,,,59,110
15072,note_on,2,0,1,,,,,,,,,5,,,80,110
15118,note_on,46,0,1,,,,,,,,,5,,,80,0
15118,note_on,46,0,2,,,,,,,,,6,,,59,0
15120,note_on,2,0,1,,,,,,,,,5,,,81,110
15120,note_on,2,0,2,,,,,,,,,6,,,61,110
15136,note_on,160,0,6,,,,,,,,,3,,,52,0
15166,note_on,46,0,1,,,,,,,,,5,,,81,0
15166,note_on,46,0,2,,,,,,,,,6,,,61,0
15168,note_on,2,0,1,,,,,,,,,5,,,80,110
15168,note_on,2,0,2,,,,,,,,,6,,,59,110
15214,note_on,46,0,1,,,,,,,,,5,,,80,0
15214,note_on,46,0,2,,,,,,,,,6,,,59,0
15216,note_on,2,0,1,,,,,,,,,5,,,81,110
15216,note_on,2,0,2,,,,,,,,,6,,,61,110
15262,note_on,46,0,2,,,,,,,,,6,,,61,0
15262,note_on,46,0,1,,,,,,,,,5,,,81,0
15264,note_on,2,0,2,,,,,,,,,6,,,59,110
15264,note_on,2,0,1,,,,,,,,,5,,,80,110
15310,note_on,46,0,2,,,,,,,,,6,,,59,0
15310,note_on,46,0,1,,,,,,,,,5,,,80,0
15312,note_on,2,0,2,,,,,,,,,6,,,61,110
15312,note_on,2,0,1,,,,,,,,,5,,,81,110
15358,note_on,46,0,1,,,,,,,,,5,,,81,0
15358,note_on,46,0,2,,,,,,,,,6,,,61,0
15360,note_on,224,0,6,,,,,,,,,3,,,52,60
15360,note_on,2,0,1,,,,,,,,,5,,,80,110
15360,note_on,2,0,2,,,,,,,,,6,,,59,110
15406,note_on,46,0,1,,,,,,,,,5,,,80,0
15406,note_on,46,0,2,,,,,,,,,6,,,59,0
15408,note_on,2,0,1,,,,,,,,,5,,,81,110
15408,note_on,2,0,2,,,,,,,,,6,,,61,110
15454,note_on,46,0,1,,,,,,,,,5,,,81,0
15454,note_on,46,0,2,,,,,,,,,6,,,61,0
15456,note_on,2,0,1,,,,,,,,,5,,,80,110
15456,note_on,2,0,2,,,,,,,,,6,,,59,110
15502,note_on,46,0,2,,,,,,,,,6,,,59,0
15502,note_on,46,0,1,,,,,,,,,5,,,80,0
15504,note_on,2,0,2,,,,,,,,,6,,,61,110
15504,note_on,2,0,1,,,,,,,,,5,,,81,110
15520,note_on,160,0,6,,,,,,,,,3,,,52,0
15550,note_on,46,0,2,,,,,,,,,6,,,61,0
15550,note_on,46,0,1,,,,,,,,,5,,,81,0
15552,note_on,32,0,6,,,,,,,,,3,,,54,60
15552,note_on,2,0,1,,,,,,,,,5,,,78,110
15552,note_on,2,0,2,,,,,,,,,6,,,57,110
15598,note_on,46,0,1,,,,,,,,,5,,,78,0
15598,note_on,46,0,2,,,,,,,,,6,,,57,0
15600,note_on,2,0,1,,,,,,,,,5,,,80,110
15600,note_on,2,0,2,,,,,,,,,6,,,59,110
15646,note_on,46,0,1,,,,,,,,,5,,,80,0
15646,note_on,46,0,2,,,,,,,,,6,,,59,0
15648,note_on,2,0,2,,,,,,,,,6,,,57,110
15648,note_on,2,0,1,,,,,,,,,5,,,78,110
15694,note_on,46,0,1,,,,,,,,,5,,,78,0
15694,note_on,46,0,2,,,,,,,,,6,,,57,0
15696,note_on,2,0,1,,,,,,,,,5,,,80,110
15696,note_on,2,0,2,,,,,,,,,6,,,59,110
15712,note_on,160,0,6,,,,,,,,,3,,,54,0
15742,note_on,46,0,1,,,,,,,,,5,,,80,0
15742,note_on,46,0,2,,,,,,,,,6,,,59,0
15744,note_on,2,0,1,,,,,,,,,5,,,78,110
15744,note_on,2,0,2,,,,,,,,,6,,,57,110
15790,note_on,46,0,1,,,,,,,,,5,,,78,0
15790,note_on,46,0,2,,,,,,,,,6,,,57,0
15792,note_on,2,0,1,,,,,,,,,5,,,80,110
15792,note_on,2,0,2,,,,,,,,,6,,,59,110
15838,note_on,46,0,1,,,,,,,,,5,,,80,0
15838,note_on,46,0,2,,,,,,,,,6,,,59,0
15840,note_on,2,0,1,,,,,,,,,5,,,78,110
15840,note_on,2,0,2,,,,,,,,,6,,,57,110
15886,note_on,46,0,1,,,,,,,,,5,,,78,0
15886,note_on,46,0,2,,,,,,,,,6,,,57,0
15888,note_on,2,0,1,,,,,,,,,5,,,80,110
15888,note_on,2,0,2,,,,,,,,,6,,,59,110
15934,note_on,46,0,2,,,,,,,,,6,,,59,0
15934,note_on,46,0,1,,,,,,,,,5,,,80,0
15936,note_on,2,0,1,,,,,,,,,5,,,78,110
15936,note_on,224,0,6,,,,,,,,,3,,,51,60
15936,note_on,2,0,2,,,,,,,,,6,,,57,110
15982,note_on,46,0,1,,,,,,,,,5,,,78,0
15982,note_on,46,0,2,,,,,,,,,6,,,57,0
15984,note_on,2,0,1,,,,,,,,,5,,,80,110
15984,note_on,2,0,2,,,,,,,,,6,,,59,110
16030,note_on,46,0,1,,,,,,,,,5,,,80,0
16030,note_on,46,0,2,,,,,,,,,6,,,59,0
16032,note_on,2,0,1,,,,,,,,,5,,,78,110
16032,note_on,2,0,2,,,,,,,,,6,,,57,110
16078,note_on,46,0,1,,,,,,,,,5,,,78,0
16078,note_on,46,0,2,,,,,,,,,6,,,57,0
16080,note_on,2,0,1,,,,,,,,,5,,,80,110
16080,note_on,2,0,2,,,,,,,,,6,,,59,110
16096,note_on,160,0,6,,,,,,,,,3,,,51,0
16126,note_on,46,0,1,,,,,,,,,5,,,80,0
16126,note_on,46,0,2,,,,,,,,,6,,,59,0
16128,note_on,2,0,1,,,,,,,,,5,,,76,110
16128,note_on,2,0,2,,,,,,,,,6,,,56,110
16128,note_on,32,0,6,,,,,,,,,3,,,52,60
16174,note_on,46,0,1,,,,,,,,,5,,,76,0
16174,note_on,46,0,2,,,,,,,,,6,,,56,0
16176,note_on,2,0,1,,,,,,,,,5,,,78,110
16176,note_on,2,0,2,,,,,,,,,6,,,57,110
16222,note_on,46,0,1,,,,,,,,,5,,,78,0
16222,note_on,46,0,2,,,,,,,,,6,,,57,0
16224,note_on,2,0,1,,,,,,,,,5,,,76,110
16224,note_on,2,0,2,,,,,,,,,6,,,56,110
16270,note_on,46,0,1,,,,,,,,,5,,,76,0
16270,note_on,46,0,2,,,,,,,,,6,,,56,0
16272,note_on,2,0,2,,,,,,,,,6,,,57,110
16272,note_on,2,0,1,,,,,,,,,5,,,78,110
16288,note_on,160,0,6,,,,,,,,,3,,,52,0
16318,note_on,46,0,1,,,,,,,,,5,,,78,0
16318,note_on,46,0,2,,,,,,,,,6,,,57,0
16320,note_on,2,0,2,,,,,,,,,6,,,56,110
16320,note_on,2,0,1,,,,,,,,,5,,,76,110
16366,note_on,46,0,2,,,,,,,,,6,,,56,0
16366,note_on,46,0,1,,,,,,,,,5,,,76,0
16368,note_on,2,0,2,,,,,,,,,6,,,57,110
16368,note_on,2,0,1,,,,,,,,,5,,,78,110
16414,note_on,46,0,2,,,,,,,,,6,,,57,0
16414,note_on,46,0,1,,,,,,,,,5,,,78,0
16416,note_on,2,0,2,,,,,,,,,6,,,56,110
16416,note_on,2,0,1,,,,,,,,,5,,,76,110
16462,note_on,46,0,2,,,,,,,,,6,,,56,0
16462,note_on,46,0,1,,,,,,,,,5,,,76,0
16464,note_on,2,0,1,,,,,,,,,5,,,78,110
16464,note_on,2,0,2,,,,,,,,,6,,,57,110
16510,note_on,46,0,1,,,,,,,,,5,,,78,0
16510,note_on,46,0,2,,,,,,,,,6,,,57,0
16512,note_on,2,0,1,,,,,,,,,5,,,76,110
16512,note_on,224,0,6,,,,,,,,,3,,,46,60
16512,note_on,2,0,2,,,,,,,,,6,,,56,110
16558,note_on,46,0,1,,,,,,,,,5,,,76,0
16558,note_on,46,0,2,,,,,,,,,6,,,56,0
16560,note_on,2,0,1,,,,,,,,,5,,,78,110
16560,note_on,2,0,2,,,,,,,,,6,,,57,110
16606,note_on,46,0,1,,,,,,,,,5,,,78,0
16606,note_on,46,0,2,,,,,,,,,6,,,57,0
16608,note_on,2,0,1,,,,,,,,,5,,,76,110
16608,note_on,2,0,2,,,,,,,,,6,,,56,110
16654,note_on,46,0,2,,,,,,,,,6,,,56,0
16654,note_on,46,0,1,,,,,,,,,5,,,76,0
16656,note_on,2,0,1,,,,,,,,,5,,,78,110
16656,note_on,2,0,2,,,,,,,,,6,,,57,110
16672,note_on,160,0,6,,,,,,,,,3,,,46,0
16702,note_on,46,0,1,,,,,,,,,5,,,78,0
16702,note_on,46,0,2,,,,,,,,,6,,,57,0
16704,note_on,2,0,1,,,,,,,,,5,,,75,110
16704,note_on,32,0,6,,,,,,,,,3,,,47,60
16704,note_on,2,0,2,,,,,,,,,6,,,54,110
16736,note_on,32,0,2,,,,,,,,,6,,,54,0
16798,note_on,94,0,1,,,,,,,,,5,,,75,0
16800,note_on,64,0,2,,,,,,,,,6,,,51,110
16800,note_on,2,0,1,,,,,,,,,5,,,78,110
16832,note_on,32,0,2,,,,,,,,,6,,,51,0
16864,note_on,160,0,6,,,,,,,,,3,,,47,0
16894,note_on,94,0,1,,,,,,,,,5,,,78,0
16896,note_on,2,0,1,,,,,,,,,5,,,80,110
16896,note_on,64,0,2,,,,,,,,,6,,,54,110
16928,note_on,32,0,2,,,,,,,,,6,,,54,0
16942,note_on,46,0,1,,,,,,,,,5,,,80,0
16944,note_on,2,0,1,,,,,,,,,5,,,81,110
16990,note_on,46,0,1,,,,,,,,,5,,,81,0
16992,note_on,2,0,1,,,,,,,,,5,,,80,110
16992,note_on,64,0,2,,,,,,,,,6,,,59,110
17024,note_on,32,0,2,,,,,,,,,6,,,59,0
17038,note_on,46,0,1,,,,,,,,,5,,,80,0
17040,note_on,2,0,1,,,,,,,,,5,,,81,110
17086,note_on,46,0,1,,,,,,,,,5,,,81,0
17088,note_on,2,0,1,,,,,,,,,5,,,80,110
17088,note_on,64,0,2,,,,,,,,,6,,,54,110
17120,note_on,32,0,2,,,,,,,,,6,,,54,0
17134,note_on,46,0,1,,,,,,,,,5,,,80,0
17136,note_on,2,0,1,,,,,,,,,5,,,81,110
17182,note_on,46,0,1,,,,,,,,,5,,,81,0
17184,note_on,2,0,1,,,,,,,,,5,,,80,110
17184,note_on,64,0,2,,,,,,,,,6,,,51,110
17230,note_on,46,0,1,,,,,,,,,5,,,80,0
17232,note_on,2,0,1,,,,,,,,,5,,,81,110
17278,note_on,46,0,1,,,,,,,,,5,,,81,0
17278,note_on,94,0,2,,,,,,,,,6,,,51,0
17280,note_on,416,0,6,,,,,,,,,3,,,47,60
17280,note_on,2,0,1,,,,,,,,,5,,,78,110
17280,note_on,2,0,2,,,,,,,,,6,,,54,110
17326,note_on,46,0,2,,,,,,,,,6,,,54,0
17328,note_on,2,0,2,,,,,,,,,6,,,56,110
17374,note_on,94,0,1,,,,,,,,,5,,,78,0
17374,note_on,46,0,2,,,,,,,,,6,,,56,0
17376,note_on,2,0,2,,,,,,,,,6,,,54,110
17376,note_on,2,0,1,,,,,,,,,5,,,75,110
17408,note_on,32,0,1,,,,,,,,,5,,,75,0
17422,note_on,46,0,2,,,,,,,,,6,,,54,0
17424,note_on,2,0,2,,,,,,,,,6,,,56,110
17440,note_on,160,0,6,,,,,,,,,3,,,47,0
17470,note_on,46,0,2,,,,,,,,,6,,,56,0
17472,note_on,64,0,1,,,,,,,,,5,,,78,110
17472,note_on,2,0,2,,,,,,,,,6,,,54,110
17504,note_on,32,0,1,,,,,,,,,5,,,78,0
17518,note_on,46,0,2,,,,,,,,,6,,,54,0
17520,note_on,2,0,2,,,,,,,,,6,,,56,110
17566,note_on,46,0,2,,,,,,,,,6,,,56,0
17568,note_on,64,0,1,,,,,,,,,5,,,83,110
17568,note_on,2,0,2,,,,,,,,,6,,,54,110
17600,note_on,32,0,1,,,,,,,,,5,,,83,0
17614,note_on,46,0,2,,,,,,,,,6,,,54,0
17616,note_on,2,0,2,,,,,,,,,6,,,56,110
17662,note_on,46,0,2,,,,,,,,,6,,,56,0
17664,note_on,64,0,1,,,,,,,,,5,,,78,110
17664,note_on,2,0,2,,,,,,,,,6,,,54,110
17696,note_on,32,0,1,,,,,,,,,5,,,78,0
17710,note_on,46,0,2,,,,,,,,,6,,,54,0
17712,note_on,2,0,2,,,,,,,,,6,,,56,110
17758,note_on,46,0,2,,,,,,,,,6,,,56,0
17760,note_on,64,0,1,,,,,,,,,5,,,75,110
17760,note_on,2,0,2,,,,,,,,,6,,,54,110
17806,note_on,46,0,2,,,,,,,,,6,,,54,0
17808,note_on,2,0,2,,,,,,,,,6,,,56,110
17854,note_on,94,0,1,,,,,,,,,5,,,75,0
17854,note_on,46,0,2,,,,,,,,,6,,,56,0
17856,note_on,2,0,2,,,,,,,,,6,,,54,110
17856,note_on,2,0,1,,,,,,,,,5,,,78,110
17856,note_on,416,0,6,,,,,,,,,3,,,47,60
17902,note_on,46,0,1,,,,,,,,,5,,,78,0
17904,note_on,2,0,1,,,,,,,,,5,,,80,110
17950,note_on,94,0,2,,,,,,,,,6,,,54,0
17950,note_on,46,0,1,,,,,,,,,5,,,80,0
17952,note_on,2,0,2,,,,,,,,,6,,,51,110
17952,note_on,2,0,1,,,,,,,,,5,,,78,110
17984,note_on,32,0,2,,,,,,,,,6,,,51,0
17998,note_on,46,0,1,,,,,,,,,5,,,78,0
18000,note_on,2,0,1,,,,,,,,,5,,,80,110
18016,note_on,160,0,6,,,,,,,,,3,,,47,0
18046,note_on,46,0,1,,,,,,,,,5,,,80,0
18048,note_on,2,0,1,,,,,,,,,5,,,78,110
18048,note_on,64,0,2,,,,,,,,,6,,,54,110
18080,note_on,32,0,2,,,,,,,,,6,,,54,0
18094,note_on,46,0,1,,,,,,,,,5,,,78,0
18096,note_on,2,0,1,,,,,,,,,5,,,80,110
18142,note_on,46,0,1,,,,,,,,,5,,,80,0
18144,note_on,2,0,1,,,,,,,,,5,,,78,110
18144,note_on,64,0,2,,,,,,,,,6,,,59,110
18176,note_on,32,0,2,,,,,,,,,6,,,59,0
18190,note_on,46,0,1,,,,,,,,,5,,,78,0
18192,note_on,2,0,1,,,,,,,,,5,,,80,110
18238,note_on,46,0,1,,,,,,,,,5,,,80,0
18240,note_on,2,0,1,,,,,,,,,5,,,78,110
18240,note_on,64,0,2,,,,,,,,,6,,,54,110
18272,note_on,32,0,2,,,,,,,,,6,,,54,0
18286,note_on,46,0,1,,,,,,,,,5,,,78,0
18288,note_on,2,0,1,,,,,,,,,5,,,80,110
18334,note_on,46,0,1,,,,,,,,,5,,,80,0
18336,note_on,64,0,2,,,,,,,,,6,,,51,110
18336,note_on,2,0,1,,,,,,,,,5,,,78,110
18382,note_on,46,0,1,,,,,,,,,5,,,78,0
18384,note_on,2,0,1,,,,,,,,,5,,,80,110
18430,note_on,46,0,1,,,,,,,,,5,,,80,0
18430,note_on,94,0,2,,,,,,,,,6,,,51,0
18432,note_on,2,0,1,,,,,,,,,5,,,78,110
18432,note_on,416,0,6,,,,,,,,,3,,,47,60
18432,note_on,2,0,2,,,,,,,,,6,,,54,110
18478,note_on,46,0,2,,,,,,,,,6,,,54,0
18480,note_on,2,0,2,,,,,,,,,6,,,56,110
18526,note_on,94,0,1,,,,,,,,,5,,,78,0
18526,note_on,46,0,2,,,,,,,,,6,,,56,0
18528,note_on,2,0,2,,,,,,,,,6,,,54,110
18528,note_on,2,0,1,,,,,,,,,5,,,75,110
18560,note_on,32,0,1,,,,,,,,,5,,,75,0
18574,note_on,46,0,2,,,,,,,,,6,,,54,0
18576,note_on,2,0,2,,,,,,,,,6,,,56,110
18592,note_on,160,0,6,,,,,,,,,3,,,47,0
18622,note_on,46,0,2,,,,,,,,,6,,,56,0
18624,note_on,2,0,2,,,,,,,,,6,,,54,110
18624,note_on,64,0,1,,,,,,,,,5,,,78,110
18656,note_on,32,0,1,,,,,,,,,5,,,78,0
18670,note_on,46,0,2,,,,,,,,,6,,,54,0
18672,note_on,2,0,2,,,,,,,,,6,,,56,110
18718,note_on,46,0,2,,,,,,,,,6,,,56,0
18720,note_on,2,0,2,,,,,,,,,6,,,54,110
18720,note_on,64,0,1,,,,,,,,,5,,,83,110
18752,note_on,32,0,1,,,,,,,,,5,,,83,0
18766,note_on,46,0,2,,,,,,,,,6,,,54,0
18768,note_on,2,0,2,,,,,,,,,6,,,56,110
18814,note_on,46,0,2,,,,,,,,,6,,,56,0
18816,note_on,64,0,1,,,,,,,,,5,,,78,110
18816,note_on,2,0,2,,,,,,,,,6,,,54,110
18848,note_on,32,0,1,,,,,,,,,5,,,78,0
18862,note_on,46,0,2,,,,,,,,,6,,,54,0
18864,note_on,2,0,2,,,,,,,,,6,,,56,110
18910,note_on,46,0,2,,,,,,,,,6,,,56,0
18912,note_on,2,0,2,,,,,,,,,6,,,54,110
18912,note_on,64,0,1,,,,,,,,,5,,,75,110
18958,note_on,46,0,2,,,,,,,,,6,,,54,0
18960,note_on,2,0,2,,,,,,,,,6,,,56,110
19006,note_on,94,0,1,,,,,,,,,5,,,75,0
19006,note_on,46,0,2,,,,,,,,,6,,,56,0
19008,note_on,2,0,2,,,,,,,,,6,,,52,110
19008,note_on,416,0,6,,,,,,,,,3,,,52,60
19008,note_on,2,0,1,,,,,,,,,5,,,80,110
19150,note_on,142,0,1,,,,,,,,,5,,,80,0
19152,note_on,2,0,1,,,,,,,,,5,,,81,110
19168,note_on,160,0,6,,,,,,,,,3,,,52,0
19168,note_on,160,0,2,,,,,,,,,6,,,52,0
19198,note_on,46,0,1,,,,,,,,,5,,,81,0
19200,note_on,32,0,2,,,,,,,,,6,,,59,110
19200,note_on,32,0,6,,,,,,,,,3,,,59,60
19200,note_on,0,0,1,,,,,,,,,5,,,80,110
19200,note_on,2,0,1,,,,,,,,,5,,,75,110
19222,note_on,22,0,1,,,,,,,,,5,,,80,0
19224,note_on,2,0,1,,,,,,,,,5,,,78,110
19246,note_on,22,0,1,,,,,,,,,5,,,78,0
19248,note_on,2,0,1,,,,,,,,,5,,,80,110
19270,note_on,22,0,1,,,,,,,,,5,,,80,0
19272,note_on,2,0,1,,,,,,,,,5,,,78,110
19294,note_on,22,0,1,,,,,,,,,5,,,78,0
19296,note_on,2,0,1,,,,,,,,,5,,,80,110
19318,note_on,22,0,1,,,,,,,,,5,,,80,0
19320,note_on,2,0,1,,,,,,,,,5,,,78,110
19342,note_on,22,0,1,,,,,,,,,5,,,78,0
19344,note_on,2,0,1,,,,,,,,,5,,,80,110
19360,note_on,16,0,1,,,,,,,,,5,,,75,0
19360,note_on,160,0,6,,,,,,,,,3,,,59,0
19360,note_on,160,0,2,,,,,,,,,6,,,59,0
19366,note_on,6,0,1,,,,,,,,,5,,,80,0
19368,note_on,2,0,1,,,,,,,,,5,,,78,110
19392,note_on,32,0,6,,,,,,,,,3,,,47,60
19392,note_on,32,0,2,,,,,,,,,6,,,47,110
19486,note_on,118,0,1,,,,,,,,,5,,,78,0
19488,note_on,2,0,1,,,,,,,,,5,,,76,110
19552,note_on,160,0,2,,,,,,,,,6,,,47,0
19552,note_on,160,0,6,,,,,,,,,3,,,47,0
19582,note_on,94,0,1,,,,,,,,,5,,,76,0
19584,note_on,0,0,1,,,,,,,,,5,,,76,110
19584,note_on,32,0,6,,,,,,,,,3,,,52,60
19584,note_on,9632,0,5,,,,,,,,,2,,,56,60
19584,note_on,9632,0,3,,,,,,,,,0,,,76,127
19584,note_on,2,0,1,,,,,,,,,5,,,68,110
19584,note_on,32,0,2,,,,,,,,,6,,,52,110
19584,note_on,9632,0,7,,,,,,,,,7,,,40,60
19678,note_on,94,0,7,,,,,,,,,7,,,40,0
19678,note_on,94,0,5,,,,,,,,,2,,,56,0
19678,note_on,94,0,2,,,,,,,,,6,,,52,0
19678,note_on,94,0,6,,,,,,,,,3,,,52,0
19678,note_on,94,0,3,,,,,,,,,0,,,76,0
19678,note_on,94,0,1,,,,,,,,,5,,,68,0
19678,note_on,0,0,1,,,,,,,,,5,,,76,0
19680,note_on,2,0,7,,,,,,,,,7,,,32,60
19680,note_on,2,0,6,,,,,,,,,3,,,44,60
19680,note_on,9728,0,4,,,,,,,,,1,,,83,92
19680,note_on,2,0,1,,,,,,,,,5,,,64,110
19680,note_on,2,0,3,,,,,,,,,0,,,64,127
19680,note_on,2,0,2,,,,,,,,,6,,,44,110
19680,note_on,2,0,5,,,,,,,,,2,,,59,60
19712,note_on,32,0,4,,,,,,,,,1,,,83,0
19774,note_on,94,0,6,,,,,,,,,3,,,44,0
19774,note_on,94,0,7,,,,,,,,,7,,,32,0
19774,note_on,94,0,5,,,,,,,,,2,,,59,0
19774,note_on,94,0,2,,,,,,,,,6,,,44,0
19776,note_on,2,0,2,,,,,,,,,6,,,40,110
19776,note_on,2,0,7,,,,,,,,,7,,,28,60
19776,note_on,2,0,5,,,,,,,,,2,,,56,60
19776,note_on,2,0,6,,,,,,,,,3,,,40,60
19776,note_on,64,0,4,,,,,,,,,1,,,83,92
19808,note_on,32,0,4,,,,,,,,,1,,,83,0
19870,note_on,190,0,3,,,,,,,,,0,,,64,0
19870,note_on,190,0,1,,,,,,,,,5,,,64,0
19872,note_on,2,0,1,,,,,,,,,5,,,69,110
19872,note_on,64,0,4,,,,,,,,,1,,,83,92
19872,note_on,2,0,3,,,,,,,,,0,,,69,127
19904,note_on,32,0,4,,,,,,,,,1,,,83,0
19936,note_on,160,0,2,,,,,,,,,6,,,40,0
19936,note_on,160,0,5,,,,,,,,,2,,,56,0
19936,note_on,160,0,6,,,,,,,,,3,,,40,0
19936,note_on,160,0,7,,,,,,,,,7,,,28,0
19966,note_on,94,0,1,,,,,,,,,5,,,69,0
19966,note_on,94,0,3,,,,,,,,,0,,,69,0
19968,note_on,64,0,4,,,,,,,,,1,,,83,92
19968,note_on,2,0,3,,,,,,,,,0,,,68,127
19968,note_on,2,0,1,,,,,,,,,5,,,68,110
20000,note_on,32,0,4,,,,,,,,,1,,,83,0
20062,note_on,94,0,1,,,,,,,,,5,,,68,0
20062,note_on,94,0,3,,,,,,,,,0,,,68,0
20064,note_on,2,0,1,,,,,,,,,5,,,63,110
20064,note_on,0,0,1,,,,,,,,,5,,,66,110
20064,note_on,128,0,6,,,,,,,,,3,,,47,60
20064,note_on,2,0,3,,,,,,,,,0,,,66,127
20064,note_on,128,0,7,,,,,,,,,7,,,35,60
20064,note_on,128,0,5,,,,,,,,,2,,,59,60
20064,note_on,128,0,2,,,,,,,,,6,,,47,110
20064,note_on,64,0,4,,,,,,,,,1,,,83,92
20096,note_on,32,0,4,,,,,,,,,1,,,83,0
20158,note_on,94,0,7,,,,,,,,,7,,,35,0
20158,note_on,94,0,6,,,,,,,,,3,,,47,0
20158,note_on,94,0,2,,,,,,,,,6,,,47,0
20158,note_on,94,0,5,,,,,,,,,2,,,59,0
20158,note_on,94,0,3,,,,,,,,,0,,,66,0
20158,note_on,94,0,1,,,,,,,,,5,,,63,0
20158,note_on,0,0,1,,,,,,,,,5,,,66,0
20160,note_on,2,0,7,,,,,,,,,7,,,40,60
20160,note_on,2,0,5,,,,,,,,,2,,,56,60
20160,note_on,2,0,2,,,,,,,,,6,,,52,110
20160,note_on,0,0,1,,,,,,,,,5,,,68,110
20160,note_on,2,0,1,,,,,,,,,5,,,59,110
20160,note_on,2,0,3,,,,,,,,,0,,,68,127
20160,note_on,64,0,4,,,,,,,,,1,,,83,92
20160,note_on,2,0,6,,,,,,,,,3,,,52,60
20192,note_on,32,0,4,,,,,,,,,1,,,83,0
20254,note_on,94,0,7,,,,,,,,,7,,,40,0
20254,note_on,94,0,3,,,,,,,,,0,,,68,0
20254,note_on,94,0,1,,,,,,,,,5,,,59,0
20254,note_on,0,0,1,,,,,,,,,5,,,68,0
20254,note_on,94,0,6,,,,,,,,,3,,,52,0
20254,note_on,94,0,2,,,,,,,,,6,,,52,0
20254,note_on,94,0,5,,,,,,,,,2,,,56,0
20256,note_on,2,0,7,,,,,,,,,7,,,32,60
20256,note_on,2,0,1,,,,,,,,,5,,,64,110
20256,note_on,2,0,3,,,,,,,,,0,,,64,127
20256,note_on,2,0,2,,,,,,,,,6,,,44,110
20256,note_on,64,0,4,,,,,,,,,1,,,83,92
20256,note_on,2,0,5,,,,,,,,,2,,,59,60
20256,note_on,2,0,6,,,,,,,,,3,,,44,60
20288,note_on,32,0,4,,,,,,,,,1,,,83,0
20350,note_on,94,0,5,,,,,,,,,2,,,59,0
20350,note_on,94,0,6,,,,,,,,,3,,,44,0
20350,note_on,94,0,7,,,,,,,,,7,,,32,0
20350,note_on,94,0,2,,,,,,,,,6,,,44,0
20352,note_on,2,0,2,,,,,,,,,6,,,40,110
20352,note_on,2,0,7,,,,,,,,,7,,,28,60
20352,note_on,2,0,5,,,,,,,,,2,,,56,60
20352,note_on,2,0,6,,,,,,,,,3,,,40,60
20352,note_on,64,0,4,,,,,,,,,1,,,83,92
20384,note_on,32,0,4,,,,,,,,,1,,,83,0
20446,note_on,190,0,1,,,,,,,,,5,,,64,0
20446,note_on,190,0,3,,,,,,,,,0,,,64,0
20448,note_on,2,0,3,,,,,,,,,0,,,71,127
20448,note_on,2,0,1,,,,,,,,,5,,,71,110
20448,note_on,64,0,4,,,,,,,,,1,,,83,92
20480,note_on,32,0,4,,,,,,,,,1,,,83,0
20512,note_on,160,0,2,,,,,,,,,6,,,40,0
20512,note_on,160,0,6,,,,,,,,,3,,,40,0
20512,note_on,160,0,5,,,,,,,,,2,,,56,0
20512,note_on,160,0,7,,,,,,,,,7,,,28,0
20542,note_on,94,0,3,,,,,,,,,0,,,71,0
20542,note_on,94,0,1,,,,,,,,,5,,,71,0
20544,note_on,64,0,4,,,,,,,,,1,,,83,92
20544,note_on,2,0,1,,,,,,,,,5,,,73,110
20544,note_on,2,0,3,,,,,,,,,0,,,73,127
20576,note_on,32,0,4,,,,,,,,,1,,,83,0
20638,note_on,94,0,3,,,,,,,,,0,,,73,0
20638,note_on,94,0,1,,,,,,,,,5,,,73,0
20640,note_on,128,0,6,,,,,,,,,3,,,47,60
20640,note_on,128,0,5,,,,,,,,,2,,,66,60
20640,note_on,128,0,7,,,,,,,,,7,,,35,60
20640,note_on,0,0,1,,,,,,,,,5,,,75,110
20640,note_on,2,0,1,,,,,,,,,5,,,66,110
20640,note_on,128,0,2,,,,,,,,,6,,,47,110
20640,note_on,64,0,4,,,,,,,,,1,,,83,92
20640,note_on,2,0,3,,,,,,,,,0,,,75,127
20672,note_on,32,0,4,,,,,,,,,1,,,83,0
20734,note_on,0,0,1,,,,,,,,,5,,,75,0
20734,note_on,94,0,7,,,,,,,,,7,,,35,0
20734,note_on,94,0,2,,,,,,,,,6,,,47,0
20734,note_on,94,0,6,,,,,,,,,3,,,47,0
20734,note_on,94,0,3,,,,,,,,,0,,,75,0
20734,note_on,94,0,1,,,,,,,,,5,,,66,0
20734,note_on,94,0,5,,,,,,,,,2,,,66,0
20736,note_on,2,0,5,,,,,,,,,2,,,68,60
20736,note_on,0,0,1,,,,,,,,,5,,,76,110
20736,note_on,2,0,6,,,,,,,,,3,,,52,60
20736,note_on,2,0,7,,,,,,,,,7,,,40,60
20736,note_on,2,0,1,,,,,,,,,5,,,68,110
20736,note_on,2,0,3,,,,,,,,,0,,,76,127
20736,note_on,2,0,2,,,,,,,,,6,,,52,110
20736,note_on,64,0,4,,,,,,,,,1,,,83,92
20768,note_on,32,0,4,,,,,,,,,1,,,83,0
20830,note_on,94,0,5,,,,,,,,,2,,,68,0
20830,note_on,94,0,1,,,,,,,,,5,,,68,0
20830,note_on,0,0,1,,,,,,,,,5,,,76,0
20830,note_on,94,0,6,,,,,,,,,3,,,52,0
20830,note_on,94,0,2,,,,,,,,,6,,,52,0
20830,note_on,94,0,3,,,,,,,,,0,,,76,0
20830,note_on,94,0,7,,,,,,,,,7,,,40,0
20832,note_on,2,0,1,,,,,,,,,5,,,64,110
20832,note_on,2,0,3,,,,,,,,,0,,,64,127
20832,note_on,2,0,6,,,,,,,,,3,,,44,60
20832,note_on,2,0,2,,,,,,,,,6,,,44,110
20832,note_on,2,0,5,,,,,,,,,2,,,71,60
20832,note_on,2,0,7,,,,,,,,,7,,,32,60
20832,note_on,64,0,4,,,,,,,,,1,,,83,92
20864,note_on,32,0,4,,,,,,,,,1,,,83,0
20926,note_on,94,0,7,,,,,,,,,7,,,32,0
20926,note_on,94,0,5,,,,,,,,,2,,,71,0
20926,note_on,94,0,6,,,,,,,,,3,,,44,0
20926,note_on,94,0,2,,,,,,,,,6,,,44,0
20928,note_on,2,0,6,,,,,,,,,3,,,40,60
20928,note_on,2,0,7,,,,,,,,,7,,,28,60
20928,note_on,64,0,4,,,,,,,,,1,,,83,92
20928,note_on,2,0,5,,,,,,,,,2,,,68,60
20928,note_on,2,0,2,,,,,,,,,6,,,40,110
20960,note_on,32,0,4,,,,,,,,,1,,,83,0
21022,note_on,190,0,1,,,,,,,,,5,,,64,0
21022,note_on,190,0,3,,,,,,,,,0,,,64,0
21024,note_on,2,0,3,,,,,,,,,0,,,69,127
21024,note_on,64,0,4,,,,,,,,,1,,,83,92
21024,note_on,2,0,1,,,,,,,,,5,,,69,110
21056,note_on,32,0,4,,,,,,,,,1,,,83,0
21088,note_on,160,0,2,,,,,,,,,6,,,40,0
21088,note_on,160,0,6,,,,,,,,,3,,,40,0
21088,note_on,160,0,5,,,,,,,,,2,,,68,0
21088,note_on,160,0,7,,,,,,,,,7,,,28,0
21118,note_on,94,0,1,,,,,,,,,5,,,69,0
21118,note_on,94,0,3,,,,,,,,,0,,,69,0
21120,note_on,2,0,3,,,,,,,,,0,,,68,127
21120,note_on,2,0,1,,,,,,,,,5,,,68,110
21120,note_on,64,0,4,,,,,,,,,1,,,83,92
21214,note_on,94,0,1,,,,,,,,,5,,,68,0
21214,note_on,94,0,4,,,,,,,,,1,,,83,0
21214,note_on,94,0,3,,,,,,,,,0,,,68,0
21216,control_change,2,0,4,,,,,,,,,1,10,64,,
21216,note_on,0,0,4,,,,,,,,,1,,,75,92
21216,note_on,128,0,5,,,,,,,,,2,,,59,60
21216,note_on,0,0,1,,,,,,,,,5,,,66,110
21216,note_on,2,0,1,,,,,,,,,5,,,63,110
21216,note_on,128,0,6,,,,,,,,,3,,,47,60
21216,note_on,2,0,3,,,,,,,,,0,,,66,127
21216,note_on,128,0,7,,,,,,,,,7,,,35,60
21216,note_on,128,0,2,,,,,,,,,6,,,47,110
21238,note_on,22,0,4,,,,,,,,,1,,,75,0
21240,note_on,2,0,4,,,,,,,,,1,,,73,92
21262,note_on,22,0,4,,,,,,,,,1,,,73,0
21264,note_on,2,0,4,,,,,,,,,1,,,75,92
21310,note_on,94,0,5,,,,,,,,,2,,,59,0
21310,note_on,94,0,1,,,,,,,,,5,,,63,0
21310,note_on,94,0,3,,,,,,,,,0,,,66,0
21310,note_on,94,0,2,,,,,,,,,6,,,47,0
21310,note_on,46,0,4,,,,,,,,,1,,,75,0
21310,note_on,94,0,6,,,,,,,,,3,,,47,0
21310,note_on,94,0,7,,,,,,,,,7,,,35,0
21310,note_on,0,0,1,,,,,,,,,5,,,66,0
21312,note_on,2,0,4,,,,,,,,,1,,,76,127
21312,note_on,2,0,5,,,,,,,,,2,,,56,60
21312,note_on,2,0,1,,,,,,,,,5,,,68,110
21312,note_on,2,0,6,,,,,,,,,3,,,52,60
21312,note_on,2,0,3,,,,,,,,,0,,,68,92
21312,note_on,2,0,2,,,,,,,,,6,,,52,110
21312,note_on,2,0,7,,,,,,,,,7,,,40,60
21406,note_on,94,0,1,,,,,,,,,5,,,68,0
21406,note_on,94,0,7,,,,,,,,,7,,,40,0
21406,note_on,94,0,6,,,,,,,,,3,,,52,0
21406,note_on,94,0,4,,,,,,,,,1,,,76,0
21406,note_on,94,0,3,,,,,,,,,0,,,68,0
21406,note_on,94,0,5,,,,,,,,,2,,,56,0
21406,note_on,94,0,2,,,,,,,,,6,,,52,0
21408,control_change,2,0,3,,,,,,,,,0,10,127,,
21408,note_on,0,0,3,,,,,,,,,0,,,83,92
21408,note_on,2,0,5,,,,,,,,,2,,,59,60
21408,note_on,2,0,6,,,,,,,,,3,,,44,60
21408,note_on,2,0,4,,,,,,,,,1,,,64,127
21408,note_on,2,0,7,,,,,,,,,7,,,32,60
21408,note_on,2,0,1,,,,,,,,,5,,,83,110
21408,note_on,2,0,2,,,,,,,,,6,,,44,110
21440,note_on,32,0,3,,,,,,,,,0,,,83,0
21502,note_on,94,0,5,,,,,,,,,2,,,59,0
21502,note_on,94,0,2,,,,,,,,,6,,,44,0
21502,note_on,94,0,6,,,,,,,,,3,,,44,0
21502,note_on,94,0,7,,,,,,,,,7,,,32,0
21502,note_on,94,0,1,,,,,,,,,5,,,83,0
21504,note_on,2,0,7,,,,,,,,,7,,,28,60
21504,note_on,2,0,6,,,,,,,,,3,,,40,60
21504,note_on,64,0,3,,,,,,,,,0,,,83,92
21504,note_on,2,0,1,,,,,,,,,5,,,83,110
21504,note_on,2,0,2,,,,,,,,,6,,,40,110
21504,note_on,2,0,5,,,,,,,,,2,,,56,60
21536,note_on,32,0,3,,,,,,,,,0,,,83,0
21598,note_on,94,0,1,,,,,,,,,5,,,83,0
21598,note_on,190,0,4,,,,,,,,,1,,,64,0
21600,note_on,2,0,4,,,,,,,,,1,,,69,127
21600,note_on,64,0,3,,,,,,,,,0,,,83,92
21600,note_on,2,0,1,,,,,,,,,5,,,83,110
21632,note_on,32,0,3,,,,,,,,,0,,,83,0
21664,note_on,160,0,5,,,,,,,,,2,,,56,0
21664,note_on,160,0,2,,,,,,,,,6,,,40,0
21664,note_on,160,0,6,,,,,,,,,3,,,40,0
21664,note_on,160,0,7,,,,,,,,,7,,,28,0
21694,note_on,94,0,1,,,,,,,,,5,,,83,0
21694,note_on,94,0,4,,,,,,,,,1,,,69,0
21696,note_on,64,0,3,,,,,,,,,0,,,83,92
21696,note_on,2,0,1,,,,,,,,,5,,,83,110
21696,note_on,2,0,4,,,,,,,,,1,,,68,127
21728,note_on,32,0,3,,,,,,,,,0,,,83,0
21790,note_on,94,0,4,,,,,,,,,1,,,68,0
21790,note_on,94,0,1,,,,,,,,,5,,,83,0
21792,note_on,128,0,5,,,,,,,,,2,,,59,60
21792,note_on,128,0,6,,,,,,,,,3,,,47,60
21792,note_on,128,0,7,,,,,,,,,7,,,35,60
21792,note_on,64,0,3,,,,,,,,,0,,,83,92
21792,note_on,2,0,1,,,,,,,,,5,,,78,110
21792,note_on,0,0,1,,,,,,,,,5,,,83,110
21792,note_on,2,0,4,,,,,,,,,1,,,66,127
21792,note_on,128,0,2,,,,,,,,,6,,,47,110
21824,note_on,32,0,3,,,,,,,,,0,,,83,0
21886,note_on,94,0,2,,,,,,,,,6,,,47,0
21886,note_on,94,0,6,,,,,,,,,3,,,47,0
21886,note_on,94,0,7,,,,,,,,,7,,,35,0
21886,note_on,94,0,4,,,,,,,,,1,,,66,0
21886,note_on,0,0,1,,,,,,,,,5,,,83,0
21886,note_on,94,0,1,,,,,,,,,5,,,78,0
21886,note_on,94,0,5,,,,,,,,,2,,,59,0
21888,note_on,2,0,1,,,,,,,,,5,,,80,110
21888,note_on,2,0,7,,,,,,,,,7,,,40,60
21888,note_on,64,0,3,,,,,,,,,0,,,83,92
21888,note_on,2,0,4,,,,,,,,,1,,,68,127
21888,note_on,2,0,6,,,,,,,,,3,,,52,60
21888,note_on,2,0,5,,,,,,,,,2,,,56,60
21888,note_on,2,0,2,,,,,,,,,6,,,52,110
21888,note_on,0,0,1,,,,,,,,,5,,,83,110
21920,note_on,32,0,3,,,,,,,,,0,,,83,0
21982,note_on,94,0,5,,,,,,,,,2,,,56,0
21982,note_on,94,0,7,,,,,,,,,7,,,40,0
21982,note_on,94,0,1,,,,,,,,,5,,,80,0
21982,note_on,0,0,1,,,,,,,,,5,,,83,0
21982,note_on,94,0,4,,,,,,,,,1,,,68,0
21982,note_on,94,0,6,,,,,,,,,3,,,52,0
21982,note_on,94,0,2,,,,,,,,,6,,,52,0
21984,note_on,2,0,1,,,,,,,,,5,,,83,110
21984,note_on,2,0,2,,,,,,,,,6,,,44,110
21984,note_on,2,0,4,,,,,,,,,1,,,64,127
21984,note_on,2,0,6,,,,,,,,,3,,,44,60
21984,note_on,2,0,5,,,,,,,,,2,,,59,60
21984,note_on,64,0,3,,,,,,,,,0,,,83,92
21984,note_on,2,0,7,,,,,,,,,7,,,32,60
22016,note_on,32,0,3,,,,,,,,,0,,,83,0
22078,note_on,94,0,7,,,,,,,,,7,,,32,0
22078,note_on,94,0,5,,,,,,,,,2,,,59,0
22078,note_on,94,0,1,,,,,,,,,5,,,83,0
22078,note_on,94,0,2,,,,,,,,,6,,,44,0
22078,note_on,94,0,6,,,,,,,,,3,,,44,0
22080,note_on,2,0,1,,,,,,,,,5,,,83,110
22080,note_on,2,0,2,,,,,,,,,6,,,40,110
22080,note_on,2,0,7,,,,,,,,,7,,,28,60
22080,note_on,2,0,6,,,,,,,,,3,,,40,60
22080,note_on,64,0,3,,,,,,,,,0,,,83,92
22080,note_on,2,0,5,,,,,,,,,2,,,56,60
22112,note_on,32,0,3,,,,,,,,,0,,,83,0
22174,note_on,94,0,1,,,,,,,,,5,,,83,0
22174,note_on,190,0,4,,,,,,,,,1,,,64,0
22176,note_on,2,0,4,,,,,,,,,1,,,71,127
22176,note_on,64,0,3,,,,,,,,,0,,,83,92
22176,note_on,2,0,1,,,,,,,,,5,,,83,110
22208,note_on,32,0,3,,,,,,,,,0,,,83,0
22240,note_on,160,0,5,,,,,,,,,2,,,56,0
22240,note_on,160,0,2,,,,,,,,,6,,,40,0
22240,note_on,160,0,7,,,,,,,,,7,,,28,0
22240,note_on,160,0,6,,,,,,,,,3,,,40,0
22270,note_on,94,0,1,,,,,,,,,5,,,83,0
22270,note_on,94,0,4,,,,,,,,,1,,,71,0
22272,note_on,2,0,1,,,,,,,,,5,,,83,110
22272,note_on,64,0,3,,,,,,,,,0,,,83,92
22272,note_on,2,0,4,,,,,,,,,1,,,73,127
22304,note_on,32,0,3,,,,,,,,,0,,,83,0
22366,note_on,94,0,1,,,,,,,,,5,,,83,0
22366,note_on,94,0,4,,,,,,,,,1,,,73,0
22368,note_on,128,0,2,,,,,,,,,6,,,47,110
22368,note_on,128,0,7,,,,,,,,,7,,,35,60
22368,note_on,0,0,1,,,,,,,,,5,,,83,110
22368,note_on,128,0,6,,,,,,,,,3,,,47,60
22368,note_on,128,0,5,,,,,,,,,2,,,66,60
22368,note_on,64,0,3,,,,,,,,,0,,,83,92
22368,note_on,2,0,1,,,,,,,,,5,,,78,110
22368,note_on,2,0,4,,,,,,,,,1,,,75,127
22400,note_on,32,0,3,,,,,,,,,0,,,83,0
22462,note_on,94,0,1,,,,,,,,,5,,,78,0
22462,note_on,0,0,1,,,,,,,,,5,,,83,0
22462,note_on,94,0,6,,,,,,,,,3,,,47,0
22462,note_on,94,0,4,,,,,,,,,1,,,75,0
22462,note_on,94,0,2,,,,,,,,,6,,,47,0
22462,note_on,94,0,7,,,,,,,,,7,,,35,0
22462,note_on,94,0,5,,,,,,,,,2,,,66,0
22464,note_on,2,0,6,,,,,,,,,3,,,52,60
22464,note_on,2,0,2,,,,,,,,,6,,,52,110
22464,note_on,64,0,3,,,,,,,,,0,,,83,92
22464,note_on,2,0,7,,,,,,,,,7,,,40,60
22464,note_on,2,0,5,,,,,,,,,2,,,68,60
22464,note_on,2,0,4,,,,,,,,,1,,,76,127
22464,note_on,0,0,1,,,,,,,,,5,,,83,110
22464,note_on,2,0,1,,,,,,,,,5,,,80,110
22496,note_on,32,0,3,,,,,,,,,0,,,83,0
22558,note_on,94,0,4,,,,,,,,,1,,,76,0
22558,note_on,94,0,5,,,,,,,,,2,,,68,0
22558,note_on,0,0,1,,,,,,,,,5,,,83,0
22558,note_on,94,0,6,,,,,,,,,3,,,52,0
22558,note_on,94,0,1,,,,,,,,,5,,,80,0
22558,note_on,94,0,2,,,,,,,,,6,,,52,0
22558,note_on,94,0,7,,,,,,,,,7,,,40,0
22560,note_on,2,0,4,,,,,,,,,1,,,64,127
22560,note_on,2,0,6,,,,,,,,,3,,,44,60
22560,note_on,2,0,2,,,,,,,,,6,,,44,110
22560,note_on,2,0,5,,,,,,,,,2,,,71,60
22560,note_on,2,0,1,,,,,,,,,5,,,83,110
22560,note_on,2,0,7,,,,,,,,,7,,,32,60
22560,note_on,64,0,3,,,,,,,,,0,,,83,92
22592,note_on,32,0,3,,,,,,,,,0,,,83,0
22654,note_on,94,0,5,,,,,,,,,2,,,71,0
22654,note_on,94,0,7,,,,,,,,,7,,,32,0
22654,note_on,94,0,2,,,,,,,,,6,,,44,0
22654,note_on,94,0,1,,,,,,,,,5,,,83,0
22654,note_on,94,0,6,,,,,,,,,3,,,44,0
22656,note_on,2,0,7,,,,,,,,,7,,,28,60
22656,note_on,64,0,3,,,,,,,,,0,,,83,92
22656,note_on,2,0,5,,,,,,,,,2,,,68,60
22656,note_on,2,0,6,,,,,,,,,3,,,40,60
22656,note_on,2,0,2,,,,,,,,,6,,,40,110
22656,note_on,2,0,1,,,,,,,,,5,,,83,110
22688,note_on,32,0,3,,,,,,,,,0,,,83,0
22750,note_on,94,0,1,,,,,,,,,5,,,83,0
22750,note_on,190,0,4,,,,,,,,,1,,,64,0
22752,note_on,64,0,3,,,,,,,,,0,,,83,92
22752,note_on,2,0,1,,,,,,,,,5,,,83,110
22752,note_on,2,0,4,,,,,,,,,1,,,69,127
22784,note_on,32,0,3,,,,,,,,,0,,,83,0
22816,note_on,160,0,2,,,,,,,,,6,,,40,0
22816,note_on,160,0,7,,,,,,,,,7,,,28,0
22816,note_on,160,0,6,,,,,,,,,3,,,40,0
22816,note_on,160,0,5,,,,,,,,,2,,,68,0
22846,note_on,94,0,4,,,,,,,,,1,,,69,0
22846,note_on,94,0,1,,,,,,,,,5,,,83,0
22848,note_on,64,0,3,,,,,,,,,0,,,83,92
22848,note_on,2,0,1,,,,,,,,,5,,,83,110
22848,note_on,2,0,4,,,,,,,,,1,,,68,127
22942,note_on,94,0,3,,,,,,,,,0,,,83,0
22942,note_on,94,0,1,,,,,,,,,5,,,83,0
22942,note_on,94,0,4,,,,,,,,,1,,,68,0
22944,note_on,128,0,6,,,,,,,,,3,,,47,60
22944,note_on,2,0,4,,,,,,,,,1,,,66,127
22944,note_on,128,0,2,,,,,,,,,6,,,47,110
22944,note_on,0,0,1,,,,,,,,,5,,,75,110
22944,note_on,2,0,1,,,,,,,,,5,,,66,110
22944,note_on,128,0,7,,,,,,,,,7,,,35,60
22944,note_on,128,0,5,,,,,,,,,2,,,59,60
22944,control_change,2,0,3,,,,,,,,,0,10,64,,
22944,note_on,0,0,3,,,,,,,,,0,,,75,92
22966,note_on,22,0,3,,,,,,,,,0,,,75,0
22968,note_on,2,0,3,,,,,,,,,0,,,73,92
22990,note_on,22,0,3,,,,,,,,,0,,,73,0
22992,note_on,2,0,3,,,,,,,,,0,,,75,92
23038,note_on,94,0,1,,,,,,,,,5,,,66,0
23038,note_on,0,0,1,,,,,,,,,5,,,75,0
23038,note_on,94,0,2,,,,,,,,,6,,,47,0
23038,note_on,94,0,6,,,,,,,,,3,,,47,0
23038,note_on,94,0,4,,,,,,,,,1,,,66,0
23038,note_on,94,0,5,,,,,,,,,2,,,59,0
23038,note_on,94,0,7,,,,,,,,,7,,,35,0
23038,note_on,46,0,3,,,,,,,,,0,,,75,0
23040,note_on,2,0,5,,,,,,,,,2,,,59,60
23040,note_on,2,0,1,,,,,,,,,5,,,68,110
23040,note_on,2,0,7,,,,,,,,,7,,,40,60
23040,note_on,2,0,2,,,,,,,,,6,,,52,110
23040,note_on,2,0,3,,,,,,,,,0,,,76,92
23040,note_on,2,0,6,,,,,,,,,3,,,52,60
23040,note_on,2,0,4,,,,,,,,,1,,,68,127
23040,note_on,0,0,1,,,,,,,,,5,,,76,110
23134,note_on,94,0,4,,,,,,,,,1,,,68,0
23134,note_on,94,0,3,,,,,,,,,0,,,76,0
23134,note_on,94,0,1,,,,,,,,,5,,,68,0
23134,note_on,94,0,6,,,,,,,,,3,,,52,0
23134,note_on,94,0,5,,,,,,,,,2,,,59,0
23134,note_on,94,0,2,,,,,,,,,6,,,52,0
23134,note_on,94,0,7,,,,,,,,,7,,,40,0
23134,note_on,0,0,1,,,,,,,,,5,,,76,0
23136,control_change,2,0,4,,,,,,,,,1,10,0,,
23136,note_on,0,0,4,,,,,,,,,1,,,83,75
23136,note_on,2,0,3,,,,,,,,,0,,,64,92
23136,note_on,2,0,6,,,,,,,,,3,,,44,60
23136,note_on,2,0,7,,,,,,,,,7,,,32,60
23136,note_on,2,0,2,,,,,,,,,6,,,44,110
23136,note_on,2,0,5,,,,,,,,,2,,,59,60
23136,note_on,2,0,1,,,,,,,,,5,,,64,110
23168,note_on,32,0,4,,,,,,,,,1,,,83,0
23230,note_on,94,0,6,,,,,,,,,3,,,44,0
23230,note_on,94,0,2,,,,,,,,,6,,,44,0
23230,note_on,94,0,5,,,,,,,,,2,,,59,0
23230,note_on,94,0,7,,,,,,,,,7,,,32,0
23232,note_on,2,0,5,,,,,,,,,2,,,56,60
23232,note_on,2,0,2,,,,,,,,,6,,,40,110
23232,note_on,2,0,7,,,,,,,,,7,,,28,60
23232,note_on,2,0,6,,,,,,,,,3,,,40,60
23232,note_on,64,0,4,,,,,,,,,1,,,83,75
23264,note_on,32,0,4,,,,,,,,,1,,,83,0
23326,note_on,190,0,3,,,,,,,,,0,,,64,0
23326,note_on,190,0,1,,,,,,,,,5,,,64,0
23328,note_on,2,0,3,,,,,,,,,0,,,69,92
23328,note_on,2,0,1,,,,,,,,,5,,,69,110
23328,note_on,64,0,4,,,,,,,,,1,,,83,75
23360,note_on,32,0,4,,,,,,,,,1,,,83,0
23392,note_on,160,0,6,,,,,,,,,3,,,40,0
23392,note_on,160,0,7,,,,,,,,,7,,,28,0
23392,note_on,160,0,2,,,,,,,,,6,,,40,0
23392,note_on,160,0,5,,,,,,,,,2,,,56,0
23422,note_on,94,0,3,,,,,,,,,0,,,69,0
23422,note_on,94,0,1,,,,,,,,,5,,,69,0
23424,note_on,64,0,4,,,,,,,,,1,,,83,75
23424,note_on,2,0,1,,,,,,,,,5,,,68,110
23424,note_on,2,0,3,,,,,,,,,0,,,68,92
23456,note_on,32,0,4,,,,,,,,,1,,,83,0
23518,note_on,94,0,3,,,,,,,,,0,,,68,0
23518,note_on,94,0,1,,,,,,,,,5,,,68,0
23520,note_on,2,0,3,,,,,,,,,0,,,66,92
23520,note_on,128,0,5,,,,,,,,,2,,,59,60
23520,note_on,128,0,7,,,,,,,,,7,,,35,60
23520,note_on,0,0,1,,,,,,,,,5,,,66,110
23520,note_on,2,0,1,,,,,,,,,5,,,63,110
23520,control_change,64,0,4,,,,,,,,,1,10,64,,
23520,note_on,128,0,6,,,,,,,,,3,,,47,60
23520,note_on,0,0,4,,,,,,,,,1,,,75,127
23520,note_on,128,0,2,,,,,,,,,6,,,47,110
23614,note_on,94,0,4,,,,,,,,,1,,,75,0
23614,note_on,94,0,3,,,,,,,,,0,,,66,0
23614,note_on,94,0,5,,,,,,,,,2,,,59,0
23614,note_on,94,0,6,,,,,,,,,3,,,47,0
23614,note_on,94,0,7,,,,,,,,,7,,,35,0
23614,note_on,94,0,2,,,,,,,,,6,,,47,0
23614,note_on,94,0,1,,,,,,,,,5,,,63,0
23614,note_on,0,0,1,,,,,,,,,5,,,66,0
23616,note_on,2,0,1,,,,,,,,,5,,,68,110
23616,note_on,2,0,2,,,,,,,,,6,,,52,110
23616,note_on,2,0,3,,,,,,,,,0,,,68,92
23616,note_on,2,0,7,,,,,,,,,7,,,40,60
23616,note_on,2,0,6,,,,,,,,,3,,,52,60
23616,note_on,2,0,5,,,,,,,,,2,,,59,60
23616,note_on,2,0,4,,,,,,,,,1,,,76,127
23710,note_on,94,0,2,,,,,,,,,6,,,52,0
23710,note_on,94,0,3,,,,,,,,,0,,,68,0
23710,note_on,94,0,5,,,,,,,,,2,,,59,0
23710,note_on,94,0,6,,,,,,,,,3,,,52,0
23710,note_on,94,0,7,,,,,,,,,7,,,40,0
23710,note_on,94,0,4,,,,,,,,,1,,,76,0
23710,note_on,94,0,1,,,,,,,,,5,,,68,0
23712,note_on,0,0,3,,,,,,,,,0,,,83,75
23712,note_on,2,0,5,,,,,,,,,2,,,59,60
23712,note_on,2,0,4,,,,,,,,,1,,,64,127
23712,note_on,2,0,1,,,,,,,,,5,,,83,110
23712,note_on,2,0,2,,,,,,,,,6,,,44,110
23712,control_change,2,0,3,,,,,,,,,0,10,127,,
23712,note_on,2,0,6,,,,,,,,,3,,,44,60
23712,note_on,2,0,7,,,,,,,,,7,,,32,60
23744,note_on,32,0,3,,,,,,,,,0,,,83,0
23806,note_on,94,0,2,,,,,,,,,6,,,44,0
23806,note_on,94,0,1,,,,,,,,,5,,,83,0
23806,note_on,94,0,5,,,,,,,,,2,,,59,0
23806,note_on,94,0,6,,,,,,,,,3,,,44,0
23806,note_on,94,0,7,,,,,,,,,7,,,32,0
23808,note_on,2,0,1,,,,,,,,,5,,,83,110
23808,note_on,2,0,2,,,,,,,,,6,,,40,110
23808,note_on,64,0,3,,,,,,,,,0,,,83,75
23808,note_on,2,0,7,,,,,,,,,7,,,28,60
23808,note_on,2,0,5,,,,,,,,,2,,,56,60
23808,note_on,2,0,6,,,,,,,,,3,,,40,60
23840,note_on,32,0,3,,,,,,,,,0,,,83,0
23902,note_on,94,0,1,,,,,,,,,5,,,83,0
23902,note_on,190,0,4,,,,,,,,,1,,,64,0
23904,note_on,2,0,1,,,,,,,,,5,,,83,110
23904,note_on,2,0,4,,,,,,,,,1,,,69,127
23904,note_on,64,0,3,,,,,,,,,0,,,83,75
23936,note_on,32,0,3,,,,,,,,,0,,,83,0
23968,note_on,160,0,7,,,,,,,,,7,,,28,0
23968,note_on,160,0,6,,,,,,,,,3,,,40,0
23968,note_on,160,0,2,,,,,,,,,6,,,40,0
23968,note_on,160,0,5,,,,,,,,,2,,,56,0
23998,note_on,94,0,1,,,,,,,,,5,,,83,0
23998,note_on,94,0,4,,,,,,,,,1,,,69,0
24000,note_on,2,0,4,,,,,,,,,1,,,68,127
24000,note_on,2,0,1,,,,,,,,,5,,,83,110
24000,note_on,64,0,3,,,,,,,,,0,,,83,75
24032,note_on,32,0,3,,,,,,,,,0,,,83,0
24094,note_on,94,0,1,,,,,,,,,5,,,83,0
24094,note_on,94,0,4,,,,,,,,,1,,,68,0
24096,note_on,128,0,6,,,,,,,,,3,,,47,60
24096,note_on,0,0,1,,,,,,,,,5,,,75,110
24096,note_on,128,0,2,,,,,,,,,6,,,47,110
24096,note_on,2,0,4,,,,,,,,,1,,,66,127
24096,note_on,128,0,7,,,,,,,,,7,,,35,60
24096,note_on,128,0,5,,,,,,,,,2,,,59,60
24096,control_change,64,0,3,,,,,,,,,0,10,64,,
24096,note_on,0,0,3,,,,,,,,,0,,,75,127
24096,note_on,2,0,1,,,,,,,,,5,,,66,110
24190,note_on,94,0,5,,,,,,,,,2,,,59,0
24190,note_on,94,0,3,,,,,,,,,0,,,75,0
24190,note_on,0,0,1,,,,,,,,,5,,,75,0
24190,note_on,94,0,7,,,,,,,,,7,,,35,0
24190,note_on,94,0,6,,,,,,,,,3,,,47,0
24190,note_on,94,0,1,,,,,,,,,5,,,66,0
24190,note_on,94,0,2,,,,,,,,,6,,,47,0
24190,note_on,94,0,4,,,,,,,,,1,,,66,0
24192,note_on,2,0,3,,,,,,,,,0,,,76,127
24192,note_on,2,0,1,,,,,,,,,5,,,68,110
24192,note_on,2,0,6,,,,,,,,,3,,,52,60
24192,note_on,2,0,5,,,,,,,,,2,,,59,60
24192,note_on,2,0,2,,,,,,,,,6,,,52,110
24192,note_on,0,0,1,,,,,,,,,5,,,76,110
24192,note_on,2,0,7,,,,,,,,,7,,,40,60
24192,note_on,2,0,4,,,,,,,,,1,,,68,127
24286,note_on,94,0,5,,,,,,,,,2,,,59,0
24286,note_on,94,0,4,,,,,,,,,1,,,68,0
24286,note_on,94,0,3,,,,,,,,,0,,,76,0
24286,note_on,0,0,1,,,,,,,,,5,,,76,0
24286,note_on,94,0,2,,,,,,,,,6,,,52,0
24286,note_on,94,0,6,,,,,,,,,3,,,52,0
24286,note_on,94,0,7,,,,,,,,,7,,,40,0
24286,note_on,94,0,1,,,,,,,,,5,,,68,0
24288,note_on,2,0,3,,,,,,,,,0,,,64,127
24288,control_change,2,0,4,,,,,,,,,1,10,0,,
24288,note_on,2,0,7,,,,,,,,,7,,,32,60
24288,note_on,0,0,4,,,,,,,,,1,,,83,75
24288,note_on,2,0,2,,,,,,,,,6,,,44,110
24288,note_on,2,0,6,,,,,,,,,3,,,44,60
24288,note_on,2,0,1,,,,,,,,,5,,,64,110
24288,note_on,2,0,5,,,,,,,,,2,,,59,60
24320,note_on,32,0,4,,,,,,,,,1,,,83,0
24382,note_on,94,0,2,,,,,,,,,6,,,44,0
24382,note_on,94,0,6,,,,,,,,,3,,,44,0
24382,note_on,94,0,7,,,,,,,,,7,,,32,0
24382,note_on,94,0,5,,,,,,,,,2,,,59,0
24384,note_on,2,0,6,,,,,,,,,3,,,40,60
24384,note_on,2,0,2,,,,,,,,,6,,,40,110
24384,note_on,2,0,5,,,,,,,,,2,,,56,60
24384,note_on,64,0,4,,,,,,,,,1,,,83,75
24384,note_on,2,0,7,,,,,,,,,7,,,28,60
24416,note_on,32,0,4,,,,,,,,,1,,,83,0
24478,note_on,190,0,3,,,,,,,,,0,,,64,0
24478,note_on,190,0,1,,,,,,,,,5,,,64,0
24480,note_on,64,0,4,,,,,,,,,1,,,83,75
24480,note_on,2,0,1,,,,,,,,,5,,,69,110
24480,note_on,2,0,3,,,,,,,,,0,,,69,127
24512,note_on,32,0,4,,,,,,,,,1,,,83,0
24544,note_on,160,0,7,,,,,,,,,7,,,28,0
24544,note_on,160,0,5,,,,,,,,,2,,,56,0
24544,note_on,160,0,2,,,,,,,,,6,,,40,0
24544,note_on,160,0,6,,,,,,,,,3,,,40,0
24574,note_on,94,0,1,,,,,,,,,5,,,69,0
24574,note_on,94,0,3,,,,,,,,,0,,,69,0
24576,note_on,2,0,1,,,,,,,,,5,,,68,110
24576,note_on,64,0,4,,,,,,,,,1,,,83,75
24576,note_on,2,0,3,,,,,,,,,0,,,68,127
24608,note_on,32,0,4,,,,,,,,,1,,,83,0
24670,note_on,94,0,3,,,,,,,,,0,,,68,0
24670,note_on,94,0,1,,,,,,,,,5,,,68,0
24672,note_on,128,0,2,,,,,,,,,6,,,47,110
24672,note_on,128,0,7,,,,,,,,,7,,,35,60
24672,note_on,128,0,6,,,,,,,,,3,,,47,60
24672,control_change,64,0,4,,,,,,,,,1,10,64,,
24672,note_on,2,0,3,,,,,,,,,0,,,66,127
24672,note_on,128,0,5,,,,,,,,,2,,,59,60
24672,note_on,0,0,4,,,,,,,,,1,,,75,127
24672,note_on,2,0,1,,,,,,,,,5,,,63,110
24672,note_on,0,0,1,,,,,,,,,5,,,66,110
24766,note_on,94,0,4,,,,,,,,,1,,,75,0
24766,note_on,94,0,6,,,,,,,,,3,,,47,0
24766,note_on,94,0,2,,,,,,,,,6,,,47,0
24766,note_on,94,0,7,,,,,,,,,7,,,35,0
24766,note_on,94,0,3,,,,,,,,,0,,,66,0
24766,note_on,0,0,1,,,,,,,,,5,,,66,0
24766,note_on,94,0,1,,,,,,,,,5,,,63,0
24766,note_on,94,0,5,,,,,,,,,2,,,59,0
24768,note_on,2,0,1,,,,,,,,,5,,,68,110
24768,note_on,2,0,5,,,,,,,,,2,,,59,60
24768,note_on,2,0,3,,,,,,,,,0,,,68,127
24768,note_on,2,0,4,,,,,,,,,1,,,76,127
24768,note_on,2,0,2,,,,,,,,,6,,,52,110
24768,note_on,2,0,6,,,,,,,,,3,,,52,60
24768,note_on,2,0,7,,,,,,,,,7,,,40,60
24862,note_on,94,0,1,,,,,,,,,5,,,68,0
24862,note_on,94,0,7,,,,,,,,,7,,,40,0
24862,note_on,94,0,4,,,,,,,,,1,,,76,0
24862,note_on,94,0,3,,,,,,,,,0,,,68,0
24862,note_on,94,0,6,,,,,,,,,3,,,52,0
24862,note_on,94,0,2,,,,,,,,,6,,,52,0
24862,note_on,94,0,5,,,,,,,,,2,,,59,0
24864,note_on,2,0,4,,,,,,,,,1,,,80,127
24864,note_on,2,0,7,,,,,,,,,7,,,28,60
24864,note_on,2,0,2,,,,,,,,,6,,,40,110
24864,note_on,2,0,3,,,,,,,,,0,,,76,127
24864,note_on,2,0,6,,,,,,,,,3,,,40,60
24864,note_on,2,0,1,,,,,,,,,5,,,76,110
24864,note_on,2,0,5,,,,,,,,,2,,,59,60
24958,note_on,94,0,2,,,,,,,,,6,,,40,0
24958,note_on,94,0,6,,,,,,,,,3,,,40,0
24958,note_on,94,0,3,,,,,,,,,0,,,76,0
24958,note_on,94,0,1,,,,,,,,,5,,,76,0
24958,note_on,94,0,5,,,,,,,,,2,,,59,0
24958,note_on,94,0,4,,,,,,,,,1,,,80,0
24958,note_on,94,0,7,,,,,,,,,7,,,28,0
24960,note_on,2,0,3,,,,,,,,,0,,,83,127
24960,note_on,2,0,1,,,,,,,,,5,,,83,110
24960,note_on,2,0,4,,,,,,,,,1,,,80,127
25054,note_on,94,0,1,,,,,,,,,5,,,83,0
25054,note_on,94,0,3,,,,,,,,,0,,,83,0
25054,note_on,94,0,4,,,,,,,,,1,,,80,0
25056,note_on,98,0,7,,,,,,,,,7,,,40,60
25056,note_on,98,0,6,,,,,,,,,3,,,52,60
25056,note_on,2,0,3,,,,,,,,,0,,,76,127
25056,note_on,98,0,2,,,,,,,,,6,,,52,110
25056,note_on,2,0,1,,,,,,,,,5,,,76,110
25056,note_on,98,0,5,,,,,,,,,2,,,71,60
25056,note_on,2,0,4,,,,,,,,,1,,,80,127
25150,note_on,94,0,7,,,,,,,,,7,,,40,0
25150,note_on,94,0,5,,,,,,,,,2,,,71,0
25150,note_on,94,0,3,,,,,,,,,0,,,76,0
25150,note_on,94,0,4,,,,,,,,,1,,,80,0
25150,note_on,94,0,6,,,,,,,,,3,,,52,0
25150,note_on,94,0,1,,,,,,,,,5,,,76,0
25150,note_on,94,0,2,,,,,,,,,6,,,52,0
25152,note_on,2,0,2,,,,,,,,,6,,,45,110
25152,note_on,2,0,6,,,,,,,,,3,,,45,60
25152,note_on,2,0,5,,,,,,,,,2,,,73,60
25152,note_on,2,0,1,,,,,,,,,5,,,78,110
25152,note_on,2,0,3,,,,,,,,,0,,,78,127
25152,note_on,2,0,7,,,,,,,,,7,,,33,60
25152,note_on,2,0,4,,,,,,,,,1,,,81,127
25246,note_on,94,0,4,,,,,,,,,1,,,81,0
25246,note_on,94,0,2,,,,,,,,,6,,,45,0
25246,note_on,94,0,5,,,,,,,,,2,,,73,0
25246,note_on,94,0,3,,,,,,,,,0,,,78,0
25246,note_on,94,0,1,,,,,,,,,5,,,78,0
25246,note_on,94,0,7,,,,,,,,,7,,,33,0
25246,note_on,94,0,6,,,,,,,,,3,,,45,0
25248,note_on,2,0,3,,,,,,,,,0,,,75,127
25248,note_on,2,0,1,,,,,,,,,5,,,75,110
25248,note_on,2,0,4,,,,,,,,,1,,,78,127
25248,note_on,2,0,2,,,,,,,,,6,,,47,110
25248,note_on,2,0,7,,,,,,,,,7,,,35,60
25248,note_on,2,0,5,,,,,,,,,2,,,71,60
25248,note_on,2,0,6,,,,,,,,,3,,,47,60
25270,note_on,22,0,4,,,,,,,,,1,,,78,0
25270,note_on,22,0,3,,,,,,,,,0,,,75,0
25272,note_on,2,0,4,,,,,,,,,1,,,80,127
25272,note_on,2,0,3,,,,,,,,,0,,,76,127
25294,note_on,22,0,4,,,,,,,,,1,,,80,0
25294,note_on,22,0,3,,,,,,,,,0,,,76,0
25296,note_on,2,0,3,,,,,,,,,0,,,75,127
25296,note_on,2,0,4,,,,,,,,,1,,,78,127
25342,note_on,94,0,7,,,,,,,,,7,,,35,0
25342,note_on,94,0,2,,,,,,,,,6,,,47,0
25342,note_on,94,0,1,,,,,,,,,5,,,75,0
25342,note_on,46,0,4,,,,,,,,,1,,,78,0
25342,note_on,94,0,6,,,,,,,,,3,,,47,0
25342,note_on,94,0,5,,,,,,,,,2,,,71,0
25342,note_on,46,0,3,,,,,,,,,0,,,75,0
25344,control_change,2,0,5,,,,,,,,,2,10,0,,
25344,note_on,2,0,1,,,,,,,,,5,,,76,110
25344,note_on,0,0,3,,,,,,,,,0,,,76,60
25344,control_change,2,0,3,,,,,,,,,0,10,0,,
25344,note_on,0,0,5,,,,,,,,,2,,,71,60
25344,note_on,0,0,6,,,,,,,,,3,,,40,60
25344,note_on,2,0,2,,,,,,,,,6,,,52,110
25344,control_change,2,0,6,,,,,,,,,3,10,0,,
25344,note_on,0,0,7,,,,,,,,,7,,,28,60
25344,control_change,2,0,7,,,,,,,,,7,10,0,,
25344,control_change,2,0,4,,,,,,,,,1,10,0,,
25344,note_on,0,0,4,,,,,,,,,1,,,76,60
25390,note_on,46,0,1,,,,,,,,,5,,,76,0
25392,note_on,2,0,1,,,,,,,,,5,,,80,110
25438,note_on,46,0,1,,,,,,,,,5,,,80,0
25440,note_on,2,0,1,,,,,,,,,5,,,83,110
25486,note_on,46,0,1,,,,,,,,,5,,,83,0
25488,note_on,2,0,1,,,,,,,,,5,,,80,110
25504,note_on,160,0,4,,,,,,,,,1,,,76,0
25504,note_on,160,0,2,,,,,,,,,6,,,52,0
25504,note_on,160,0,7,,,,,,,,,7,,,28,0
25504,note_on,160,0,6,,,,,,,,,3,,,40,0
25504,note_on,160,0,3,,,,,,,,,0,,,76,0
25504,note_on,160,0,5,,,,,,,,,2,,,71,0
25534,note_on,46,0,1,,,,,,,,,5,,,80,0
25536,note_on,2,0,1,,,,,,,,,5,,,76,110
25582,note_on,46,0,1,,,,,,,,,5,,,76,0
25584,note_on,2,0,1,,,,,,,,,5,,,80,110
25630,note_on,46,0,1,,,,,,,,,5,,,80,0
25632,note_on,2,0,1,,,,,,,,,5,,,83,110
25678,note_on,46,0,1,,,,,,,,,5,,,83,0
25680,note_on,2,0,1,,,,,,,,,5,,,80,110
25726,note_on,46,0,1,,,,,,,,,5,,,80,0
25728,note_on,2,0,1,,,,,,,,,5,,,76,110
25774,note_on,46,0,1,,,,,,,,,5,,,76,0
25776,note_on,2,0,1,,,,,,,,,5,,,80,110
25822,note_on,46,0,1,,,,,,,,,5,,,80,0
25824,note_on,2,0,1,,,,,,,,,5,,,83,110
25870,note_on,46,0,1,,,,,,,,,5,,,83,0
25872,note_on,2,0,1,,,,,,,,,5,,,76,110
25918,note_on,46,0,1,,,,,,,,,5,,,76,0
25920,note_on,0,0,3,,,,,,,,,0,,,78,60
25920,note_on,0,0,6,,,,,,,,,3,,,47,60
25920,note_on,416,0,2,,,,,,,,,6,,,59,110
25920,control_change,416,0,4,,,,,,,,,1,10,127,,
25920,control_change,416,0,3,,,,,,,,,0,10,127,,
25920,control_change,416,0,6,,,,,,,,,3,10,127,,
25920,note_on,0,0,4,,,,,,,,,1,,,75,60
25920,control_change,416,0,7,,,,,,,,,7,10,127,,
25920,note_on,0,0,7,,,,,,,,,7,,,35,60
25920,note_on,0,0,5,,,,,,,,,2,,,71,60
25920,control_change,416,0,5,,,,,,,,,2,10,127,,
25920,note_on,2,0,1,,,,,,,,,5,,,75,110
25966,note_on,46,0,2,,,,,,,,,6,,,59,0
25968,note_on,2,0,2,,,,,,,,,6,,,63,110
26014,note_on,46,0,2,,,,,,,,,6,,,63,0
26014,note_on,94,0,1,,,,,,,,,5,,,75,0
26016,note_on,2,0,1,,,,,,,,,5,,,71,110
26016,note_on,2,0,2,,,,,,,,,6,,,66,110
26048,note_on,32,0,1,,,,,,,,,5,,,71,0
26062,note_on,46,0,2,,,,,,,,,6,,,66,0
26064,note_on,2,0,2,,,,,,,,,6,,,63,110
26080,note_on,160,0,4,,,,,,,,,1,,,75,0
26080,note_on,160,0,6,,,,,,,,,3,,,47,0
26080,note_on,160,0,5,,,,,,,,,2,,,71,0
26080,note_on,160,0,7,,,,,,,,,7,,,35,0
26080,note_on,160,0,3,,,,,,,,,0,,,78,0
26110,note_on,46,0,2,,,,,,,,,6,,,63,0
26112,note_on,64,0,1,,,,,,,,,5,,,75,110
26112,note_on,2,0,2,,,,,,,,,6,,,59,110
26144,note_on,32,0,1,,,,,,,,,5,,,75,0
26158,note_on,46,0,2,,,,,,,,,6,,,59,0
26160,note_on,2,0,2,,,,,,,,,6,,,63,110
26206,note_on,46,0,2,,,,,,,,,6,,,63,0
26208,note_on,2,0,2,,,,,,,,,6,,,66,110
26208,note_on,64,0,1,,,,,,,,,5,,,71,110
26240,note_on,32,0,1,,,,,,,,,5,,,71,0
26254,note_on,46,0,2,,,,,,,,,6,,,66,0
26256,note_on,2,0,2,,,,,,,,,6,,,63,110
26302,note_on,46,0,2,,,,,,,,,6,,,63,0
26304,note_on,2,0,2,,,,,,,,,6,,,59,110
26304,note_on,64,0,1,,,,,,,,,5,,,75,110
26336,note_on,32,0,1,,,,,,,,,5,,,75,0
26350,note_on,46,0,2,,,,,,,,,6,,,59,0
26352,note_on,2,0,2,,,,,,,,,6,,,63,110
26398,note_on,46,0,2,,,,,,,,,6,,,63,0
26400,note_on,2,0,2,,,,,,,,,6,,,66,110
26400,note_on,64,0,1,,,,,,,,,5,,,71,110
26432,note_on,32,0,1,,,,,,,,,5,,,71,0
26446,note_on,46,0,2,,,,,,,,,6,,,66,0
26448,note_on,2,0,2,,,,,,,,,6,,,63,110
26494,note_on,46,0,2,,,,,,,,,6,,,63,0
26496,note_on,0,0,4,,,,,,,,,1,,,76,60
26496,note_on,0,0,5,,,,,,,,,2,,,71,60
26496,control_change,416,0,5,,,,,,,,,2,10,0,,
26496,control_change,416,0,7,,,,,,,,,7,10,0,,
26496,note_on,0,0,7,,,,,,,,,7,,,40,60
26496,note_on,2,0,2,,,,,,,,,6,,,64,110
26496,control_change,416,0,3,,,,,,,,,0,10,0,,
26496,note_on,0,0,3,,,,,,,,,0,,,80,60
26496,control_change,416,0,4,,,,,,,,,1,10,0,,
26496,note_on,0,0,6,,,,,,,,,3,,,52,60
26496,control_change,416,0,6,,,,,,,,,3,10,0,,
26496,note_on,64,0,1,,,,,,,,,5,,,76,110
26542,note_on,46,0,1,,,,,,,,,5,,,76,0
26544,note_on,2,0,1,,,,,,,,,5,,,80,110
26590,note_on,46,0,1,,,,,,,,,5,,,80,0
26590,note_on,94,0,2,,,,,,,,,6,,,64,0
26592,note_on,2,0,2,,,,,,,,,6,,,56,110
26592,note_on,2,0,1,,,,,,,,,5,,,83,110
26624,note_on,32,0,2,,,,,,,,,6,,,56,0
26638,note_on,46,0,1,,,,,,,,,5,,,83,0
26640,note_on,2,0,1,,,,,,,,,5,,,80,110
26656,note_on,160,0,3,,,,,,,,,0,,,80,0
26656,note_on,160,0,4,,,,,,,,,1,,,76,0
26656,note_on,160,0,5,,,,,,,,,2,,,71,0
26656,note_on,160,0,6,,,,,,,,,3,,,52,0
26656,note_on,160,0,7,,,,,,,,,7,,,40,0
26686,note_on,46,0,1,,,,,,,,,5,,,80,0
26688,note_on,64,0,2,,,,,,,,,6,,,59,110
26688,note_on,2,0,1,,,,,,,,,5,,,76,110
26720,note_on,32,0,2,,,,,,,,,6,,,59,0
26734,note_on,46,0,1,,,,,,,,,5,,,76,0
26736,note_on,2,0,1,,,,,,,,,5,,,80,110
26782,note_on,46,0,1,,,,,,,,,5,,,80,0
26784,note_on,64,0,2,,,,,,,,,6,,,56,110
26784,note_on,2,0,1,,,,,,,,,5,,,83,110
26816,note_on,32,0,2,,,,,,,,,6,,,56,0
26830,note_on,46,0,1,,,,,,,,,5,,,83,0
26832,note_on,2,0,1,,,,,,,,,5,,,80,110
26878,note_on,46,0,1,,,,,,,,,5,,,80,0
26880,note_on,64,0,2,,,,,,,,,6,,,59,110
26880,note_on,2,0,1,,,,,,,,,5,,,76,110
26912,note_on,32,0,2,,,,,,,,,6,,,59,0
26926,note_on,46,0,1,,,,,,,,,5,,,76,0
26928,note_on,2,0,1,,,,,,,,,5,,,80,110
26974,note_on,46,0,1,,,,,,,,,5,,,80,0
26976,note_on,2,0,1,,,,,,,,,5,,,83,110
26976,note_on,64,0,2,,,,,,,,,6,,,56,110
27008,note_on,32,0,2,,,,,,,,,6,,,56,0
27022,note_on,46,0,1,,,,,,,,,5,,,83,0
27024,note_on,2,0,1,,,,,,,,,5,,,76,110
27070,note_on,46,0,1,,,,,,,,,5,,,76,0
27072,control_change,416,0,5,,,,,,,,,2,10,127,,
27072,control_change,416,0,7,,,,,,,,,7,10,127,,
27072,note_on,0,0,7,,,,,,,,,7,,,35,60
27072,control_change,416,0,3,,,,,,,,,0,10,127,,
27072,note_on,0,0,3,,,,,,,,,0,,,78,60
27072,control_change,416,0,6,,,,,,,,,3,10,127,,
27072,note_on,0,0,6,,,,,,,,,3,,,47,60
27072,control_change,416,0,4,,,,,,,,,1,10,127,,
27072,note_on,0,0,4,,,,,,,,,1,,,75,60
27072,note_on,64,0,2,,,,,,,,,6,,,59,110
27072,note_on,0,0,5,,,,,,,,,2,,,71,60
27072,note_on,2,0,1,,,,,,,,,5,,,75,110
27118,note_on,46,0,2,,,,,,,,,6,,,59,0
27120,note_on,2,0,2,,,,,,,,,6,,,63,110
27166,note_on,94,0,1,,,,,,,,,5,,,75,0
27166,note_on,46,0,2,,,,,,,,,6,,,63,0
27168,note_on,2,0,2,,,,,,,,,6,,,66,110
27168,note_on,2,0,1,,,,,,,,,5,,,71,110
27200,note_on,32,0,1,,,,,,,,,5,,,71,0
27214,note_on,46,0,2,,,,,,,,,6,,,66,0
27216,note_on,2,0,2,,,,,,,,,6,,,63,110
27232,note_on,160,0,3,,,,,,,,,0,,,78,0
27232,note_on,160,0,6,,,,,,,,,3,,,47,0
27232,note_on,160,0,7,,,,,,,,,7,,,35,0
27232,note_on,160,0,5,,,,,,,,,2,,,71,0
27232,note_on,160,0,4,,,,,,,,,1,,,75,0
27262,note_on,46,0,2,,,,,,,,,6,,,63,0
27264,note_on,2,0,2,,,,,,,,,6,,,59,110
27264,note_on,64,0,1,,,,,,,,,5,,,75,110
27296,note_on,32,0,1,,,,,,,,,5,,,75,0
27310,note_on,46,0,2,,,,,,,,,6,,,59,0
27312,note_on,2,0,2,,,,,,,,,6,,,63,110
27358,note_on,46,0,2,,,,,,,,,6,,,63,0
27360,note_on,2,0,2,,,,,,,,,6,,,66,110
27360,note_on,64,0,1,,,,,,,,,5,,,71,110
27392,note_on,32,0,1,,,,,,,,,5,,,71,0
27406,note_on,46,0,2,,,,,,,,,6,,,66,0
27408,note_on,2,0,2,,,,,,,,,6,,,63,110
27454,note_on,46,0,2,,,,,,,,,6,,,63,0
27456,note_on,2,0,2,,,,,,,,,6,,,59,110
27456,note_on,64,0,1,,,,,,,,,5,,,75,110
27488,note_on,32,0,1,,,,,,,,,5,,,75,0
27502,note_on,46,0,2,,,,,,,,,6,,,59,0
27504,note_on,2,0,2,,,,,,,,,6,,,63,110
27550,note_on,46,0,2,,,,,,,,,6,,,63,0
27552,note_on,64,0,1,,,,,,,,,5,,,71,110
27552,note_on,2,0,2,,,,,,,,,6,,,66,110
27584,note_on,32,0,1,,,,,,,,,5,,,71,0
27598,note_on,46,0,2,,,,,,,,,6,,,66,0
27600,note_on,2,0,2,,,,,,,,,6,,,63,110
27646,note_on,46,0,2,,,,,,,,,6,,,63,0
27648,control_change,416,0,3,,,,,,,,,0,10,0,,
27648,control_change,416,0,5,,,,,,,,,2,10,0,,
27648,note_on,0,0,5,,,,,,,,,2,,,71,60
27648,control_change,416,0,6,,,,,,,,,3,10,0,,
27648,note_on,0,0,3,,,,,,,,,0,,,80,60
27648,note_on,0,0,7,,,,,,,,,7,,,40,60
27648,control_change,416,0,7,,,,,,,,,7,10,0,,
27648,note_on,64,0,1,,,,,,,,,5,,,76,110
27648,note_on,0,0,4,,,,,,,,,1,,,76,60
27648,control_change,416,0,4,,,,,,,,,1,10,0,,
27648,note_on,2,0,2,,,,,,,,,6,,,64,110
27648,note_on,0,0,6,,,,,,,,,3,,,52,60
27694,note_on,46,0,1,,,,,,,,,5,,,76,0
27696,note_on,2,0,1,,,,,,,,,5,,,80,110
27742,note_on,94,0,2,,,,,,,,,6,,,64,0
27742,note_on,46,0,1,,,,,,,,,5,,,80,0
27744,note_on,2,0,2,,,,,,,,,6,,,56,110
27744,note_on,2,0,1,,,,,,,,,5,,,83,110
27776,note_on,32,0,2,,,,,,,,,6,,,56,0
27790,note_on,46,0,1,,,,,,,,,5,,,83,0
27792,note_on,2,0,1,,,,,,,,,5,,,80,110
27808,note_on,160,0,4,,,,,,,,,1,,,76,0
27808,note_on,160,0,3,,,,,,,,,0,,,80,0
27808,note_on,160,0,7,,,,,,,,,7,,,40,0
27808,note_on,160,0,5,,,,,,,,,2,,,71,0
27808,note_on,160,0,6,,,,,,,,,3,,,52,0
27838,note_on,46,0,1,,,,,,,,,5,,,80,0
27840,note_on,64,0,2,,,,,,,,,6,,,59,110
27840,note_on,2,0,1,,,,,,,,,5,,,76,110
27872,note_on,32,0,2,,,,,,,,,6,,,59,0
27886,note_on,46,0,1,,,,,,,,,5,,,76,0
27888,note_on,2,0,1,,,,,,,,,5,,,80,110
27934,note_on,46,0,1,,,,,,,,,5,,,80,0
27936,note_on,64,0,2,,,,,,,,,6,,,56,110
27936,note_on,2,0,1,,,,,,,,,5,,,83,110
27968,note_on,32,0,2,,,,,,,,,6,,,56,0
27982,note_on,46,0,1,,,,,,,,,5,,,83,0
27984,note_on,2,0,1,,,,,,,,,5,,,80,110
28030,note_on,46,0,1,,,,,,,,,5,,,80,0
28032,note_on,64,0,2,,,,,,,,,6,,,59,110
28032,note_on,2,0,1,,,,,,,,,5,,,76,110
28064,note_on,32,0,2,,,,,,,,,6,,,59,0
28078,note_on,46,0,1,,,,,,,,,5,,,76,0
28080,note_on,2,0,1,,,,,,,,,5,,,80,110
28126,note_on,46,0,1,,,,,,,,,5,,,80,0
28128,note_on,64,0,2,,,,,,,,,6,,,56,110
28128,note_on,2,0,1,,,,,,,,,5,,,83,110
28160,note_on,32,0,2,,,,,,,,,6,,,56,0
28174,note_on,46,0,1,,,,,,,,,5,,,83,0
28176,note_on,2,0,1,,,,,,,,,5,,,76,110
28222,note_on,46,0,1,,,,,,,,,5,,,76,0
28224,note_on,64,0,2,,,,,,,,,6,,,57,110
28224,control_change,416,0,6,,,,,,,,,3,10,64,,
28224,control_change,416,0,7,,,,,,,,,7,10,64,,
28224,note_on,0,0,6,,,,,,,,,3,,,45,60
28224,note_on,2,0,1,,,,,,,,,5,,,73,110
28224,control_change,416,0,5,,,,,,,,,2,10,0,,
28270,note_on,46,0,2,,,,,,,,,6,,,57,0
28272,note_on,2,0,2,,,,,,,,,6,,,61,110
28318,note_on,94,0,1,,,,,,,,,5,,,73,0
28318,note_on,46,0,2,,,,,,,,,6,,,61,0
28320,note_on,2,0,2,,,,,,,,,6,,,64,110
28320,note_on,2,0,1,,,,,,,,,5,,,73,110
28352,note_on,32,0,1,,,,,,,,,5,,,73,0
28366,note_on,46,0,2,,,,,,,,,6,,,64,0
28368,note_on,2,0,2,,,,,,,,,6,,,61,110
28384,note_on,160,0,6,,,,,,,,,3,,,45,0
28414,note_on,46,0,2,,,,,,,,,6,,,61,0
28416,note_on,64,0,1,,,,,,,,,5,,,76,110
28416,note_on,2,0,2,,,,,,,,,6,,,57,110
28448,note_on,32,0,1,,,,,,,,,5,,,76,0
28462,note_on,46,0,2,,,,,,,,,6,,,57,0
28464,note_on,2,0,2,,,,,,,,,6,,,61,110
28510,note_on,46,0,2,,,,,,,,,6,,,61,0
28512,note_on,64,0,1,,,,,,,,,5,,,73,110
28512,note_on,2,0,2,,,,,,,,,6,,,64,110
28544,note_on,32,0,1,,,,,,,,,5,,,73,0
28558,note_on,46,0,2,,,,,,,,,6,,,64,0
28560,note_on,2,0,2,,,,,,,,,6,,,61,110
28606,note_on,46,0,2,,,,,,,,,6,,,61,0
28608,note_on,2,0,2,,,,,,,,,6,,,57,110
28608,note_on,64,0,1,,,,,,,,,5,,,76,110
28640,note_on,32,0,1,,,,,,,,,5,,,76,0
28654,note_on,46,0,2,,,,,,,,,6,,,57,0
28656,note_on,2,0,2,,,,,,,,,6,,,61,110
28702,note_on,46,0,2,,,,,,,,,6,,,61,0
28704,note_on,2,0,2,,,,,,,,,6,,,64,110
28704,note_on,64,0,1,,,,,,,,,5,,,73,110
28736,note_on,32,0,1,,,,,,,,,5,,,73,0
28750,note_on,46,0,2,,,,,,,,,6,,,64,0
28752,note_on,2,0,2,,,,,,,,,6,,,61,110
28798,note_on,46,0,2,,,,,,,,,6,,,61,0
28800,note_on,416,0,6,,,,,,,,,3,,,47,60
28800,note_on,64,0,1,,,,,,,,,5,,,75,110
28800,note_on,2,0,2,,,,,,,,,6,,,54,110
28846,note_on,46,0,1,,,,,,,,,5,,,75,0
28848,note_on,2,0,1,,,,,,,,,5,,,78,110
28894,note_on,46,0,1,,,,,,,,,5,,,78,0
28894,note_on,94,0,2,,,,,,,,,6,,,54,0
28896,note_on,2,0,2,,,,,,,,,6,,,63,110
28896,note_on,2,0,1,,,,,,,,,5,,,81,110
28928,note_on,32,0,2,,,,,,,,,6,,,63,0
28942,note_on,46,0,1,,,,,,,,,5,,,81,0
28944,note_on,2,0,1,,,,,,,,,5,,,78,110
28960,note_on,160,0,6,,,,,,,,,3,,,47,0
28990,note_on,46,0,1,,,,,,,,,5,,,78,0
28992,note_on,2,0,1,,,,,,,,,5,,,75,110
28992,note_on,64,0,2,,,,,,,,,6,,,66,110
29024,note_on,32,0,2,,,,,,,,,6,,,66,0
29038,note_on,46,0,1,,,,,,,,,5,,,75,0
29040,note_on,2,0,1,,,,,,,,,5,,,78,110
29086,note_on,46,0,1,,,,,,,,,5,,,78,0
29088,note_on,64,0,2,,,,,,,,,6,,,63,110
29088,note_on,2,0,1,,,,,,,,,5,,,81,110
29120,note_on,32,0,2,,,,,,,,,6,,,63,0
29134,note_on,46,0,1,,,,,,,,,5,,,81,0
29136,note_on,2,0,1,,,,,,,,,5,,,78,110
29182,note_on,46,0,1,,,,,,,,,5,,,78,0
29184,note_on,64,0,2,,,,,,,,,6,,,66,110
29184,note_on,2,0,1,,,,,,,,,5,,,75,110
29216,note_on,32,0,2,,,,,,,,,6,,,66,0
29230,note_on,46,0,1,,,,,,,,,5,,,75,0
29232,note_on,2,0,1,,,,,,,,,5,,,78,110
29278,note_on,46,0,1,,,,,,,,,5,,,78,0
29280,note_on,64,0,2,,,,,,,,,6,,,63,110
29280,note_on,2,0,1,,,,,,,,,5,,,81,110
29312,note_on,32,0,2,,,,,,,,,6,,,63,0
29326,note_on,46,0,1,,,,,,,,,5,,,81,0
29328,note_on,2,0,1,,,,,,,,,5,,,75,110
29374,note_on,46,0,1,,,,,,,,,5,,,75,0
29376,control_change,1568,0,4,,,,,,,,,1,10,127,,
29376,note_on,64,0,2,,,,,,,,,6,,,56,110
29376,note_on,416,0,6,,,,,,,,,3,,,52,60
29376,control_change,1568,0,3,,,,,,,,,0,10,0,,
29376,note_on,2,0,1,,,,,,,,,5,,,71,110
29422,note_on,46,0,2,,,,,,,,,6,,,56,0
29424,note_on,2,0,2,,,,,,,,,6,,,59,110
29470,note_on,46,0,2,,,,,,,,,6,,,59,0
29472,note_on,2,0,2,,,,,,,,,6,,,62,110
29518,note_on,46,0,2,,,,,,,,,6,,,62,0
29520,note_on,2,0,2,,,,,,,,,6,,,59,110
29536,note_on,160,0,6,,,,,,,,,3,,,52,0
29536,note_on,160,0,1,,,,,,,,,5,,,71,0
29566,note_on,46,0,2,,,,,,,,,6,,,59,0
29568,note_on,2,0,2,,,,,,,,,6,,,56,110
29614,note_on,46,0,2,,,,,,,,,6,,,56,0
29616,note_on,2,0,2,,,,,,,,,6,,,59,110
29662,note_on,46,0,2,,,,,,,,,6,,,59,0
29664,note_on,2,0,2,,,,,,,,,6,,,62,110
29710,note_on,46,0,2,,,,,,,,,6,,,62,0
29712,note_on,2,0,2,,,,,,,,,6,,,59,110
29758,note_on,46,0,2,,,,,,,,,6,,,59,0
29760,note_on,2,0,2,,,,,,,,,6,,,56,110
29806,note_on,46,0,2,,,,,,,,,6,,,56,0
29808,note_on,2,0,2,,,,,,,,,6,,,59,110
29854,note_on,46,0,2,,,,,,,,,6,,,59,0
29856,note_on,2,0,2,,,,,,,,,6,,,62,110
29902,note_on,46,0,2,,,,,,,,,6,,,62,0
29904,note_on,2,0,2,,,,,,,,,6,,,59,110
29950,note_on,46,0,2,,,,,,,,,6,,,59,0
29952,note_on,416,0,6,,,,,,,,,3,,,52,60
29952,note_on,416,0,1,,,,,,,,,5,,,73,110
29952,note_on,2,0,2,,,,,,,,,6,,,52,110
29998,note_on,46,0,1,,,,,,,,,5,,,73,0
30000,note_on,2,0,1,,,,,,,,,5,,,76,110
30046,note_on,46,0,1,,,,,,,,,5,,,76,0
30046,note_on,94,0,2,,,,,,,,,6,,,52,0
30048,note_on,2,0,2,,,,,,,,,6,,,61,110
30048,note_on,2,0,1,,,,,,,,,5,,,80,110
30080,note_on,32,0,2,,,,,,,,,6,,,61,0
30094,note_on,46,0,1,,,,,,,,,5,,,80,0
30096,note_on,2,0,1,,,,,,,,,5,,,76,110
30112,note_on,160,0,6,,,,,,,,,3,,,52,0
30142,note_on,46,0,1,,,,,,,,,5,,,76,0
30144,note_on,2,0,1,,,,,,,,,5,,,73,110
30144,note_on,64,0,2,,,,,,,,,6,,,64,110
30176,note_on,32,0,2,,,,,,,,,6,,,64,0
30190,note_on,46,0,1,,,,,,,,,5,,,73,0
30192,note_on,2,0,1,,,,,,,,,5,,,76,110
30238,note_on,46,0,1,,,,,,,,,5,,,76,0
30240,note_on,64,0,2,,,,,,,,,6,,,61,110
30240,note_on,2,0,1,,,,,,,,,5,,,80,110
30272,note_on,32,0,2,,,,,,,,,6,,,61,0
30286,note_on,46,0,1,,,,,,,,,5,,,80,0
30288,note_on,2,0,1,,,,,,,,,5,,,76,110
30334,note_on,46,0,1,,,,,,,,,5,,,76,0
30336,note_on,2,0,1,,,,,,,,,5,,,73,110
30336,note_on,64,0,2,,,,,,,,,6,,,64,110
30368,note_on,32,0,2,,,,,,,,,6,,,64,0
30382,note_on,46,0,1,,,,,,,,,5,,,73,0
30384,note_on,2,0,1,,,,,,,,,5,,,76,110
30430,note_on,46,0,1,,,,,,,,,5,,,76,0
30432,note_on,2,0,1,,,,,,,,,5,,,80,110
30432,note_on,64,0,2,,,,,,,,,6,,,61,110
30464,note_on,32,0,2,,,,,,,,,6,,,61,0
30478,note_on,46,0,1,,,,,,,,,5,,,80,0
30480,note_on,2,0,1,,,,,,,,,5,,,73,110
30526,note_on,46,0,1,,,,,,,,,5,,,73,0
30528,note_on,64,0,2,,,,,,,,,6,,,54,110
30528,note_on,416,0,6,,,,,,,,,3,,,54,60
30528,note_on,2,0,1,,,,,,,,,5,,,69,110
30574,note_on,46,0,2,,,,,,,,,6,,,54,0
30576,note_on,2,0,2,,,,,,,,,6,,,57,110
30622,note_on,46,0,2,,,,,,,,,6,,,57,0
30624,note_on,2,0,2,,,,,,,,,6,,,61,110
30670,note_on,46,0,2,,,,,,,,,6,,,61,0
30672,note_on,2,0,2,,,,,,,,,6,,,57,110
30688,note_on,160,0,1,,,,,,,,,5,,,69,0
30688,note_on,160,0,6,,,,,,,,,3,,,54,0
30718,note_on,46,0,2,,,,,,,,,6,,,57,0
30720,note_on,2,0,2,,,,,,,,,6,,,54,110
30766,note_on,46,0,2,,,,,,,,,6,,,54,0
30768,note_on,2,0,2,,,,,,,,,6,,,57,110
30814,note_on,46,0,2,,,,,,,,,6,,,57,0
30816,note_on,2,0,2,,,,,,,,,6,,,61,110
30862,note_on,46,0,2,,,,,,,,,6,,,61,0
30864,note_on,2,0,2,,,,,,,,,6,,,57,110
30910,note_on,46,0,2,,,,,,,,,6,,,57,0
30912,note_on,2,0,2,,,,,,,,,6,,,54,110
30958,note_on,46,0,2,,,,,,,,,6,,,54,0
30960,note_on,2,0,2,,,,,,,,,6,,,57,110
31006,note_on,46,0,2,,,,,,,,,6,,,57,0
31008,note_on,2,0,2,,,,,,,,,6,,,61,110
31054,note_on,46,0,2,,,,,,,,,6,,,61,0
31056,note_on,2,0,2,,,,,,,,,6,,,57,110
31102,note_on,46,0,2,,,,,,,,,6,,,57,0
31104,note_on,416,0,6,,,,,,,,,3,,,54,60
31104,note_on,2,0,2,,,,,,,,,6,,,54,110
31104,note_on,416,0,1,,,,,,,,,5,,,73,110
31150,note_on,46,0,1,,,,,,,,,5,,,73,0
31152,note_on,2,0,1,,,,,,,,,5,,,78,110
31198,note_on,46,0,1,,,,,,,,,5,,,78,0
31200,note_on,2,0,1,,,,,,,,,5,,,81,110
31246,note_on,46,0,1,,,,,,,,,5,,,81,0
31248,note_on,2,0,1,,,,,,,,,5,,,78,110
31264,note_on,160,0,6,,,,,,,,,3,,,54,0
31264,note_on,160,0,2,,,,,,,,,6,,,54,0
31294,note_on,46,0,1,,,,,,,,,5,,,78,0
31296,note_on,2,0,1,,,,,,,,,5,,,73,110
31342,note_on,46,0,1,,,,,,,,,5,,,73,0
31344,note_on,2,0,1,,,,,,,,,5,,,78,110
31390,note_on,46,0,1,,,,,,,,,5,,,78,0
31392,note_on,2,0,1,,,,,,,,,5,,,81,110
31438,note_on,46,0,1,,,,,,,,,5,,,81,0
31440,note_on,2,0,1,,,,,,,,,5,,,78,110
31486,note_on,46,0,1,,,,,,,,,5,,,78,0
31488,note_on,2,0,1,,,,,,,,,5,,,73,110
31534,note_on,46,0,1,,,,,,,,,5,,,73,0
31536,note_on,2,0,1,,,,,,,,,5,,,78,110
31582,note_on,46,0,1,,,,,,,,,5,,,78,0
31584,note_on,2,0,1,,,,,,,,,5,,,81,110
31630,note_on,46,0,1,,,,,,,,,5,,,81,0
31632,note_on,2,0,1,,,,,,,,,5,,,73,110
31678,note_on,46,0,1,,,,,,,,,5,,,73,0
31680,note_on,416,0,6,,,,,,,,,3,,,56,60
31680,note_on,2,0,1,,,,,,,,,5,,,72,110
31680,note_on,416,0,2,,,,,,,,,6,,,56,110
31726,note_on,46,0,1,,,,,,,,,5,,,72,0
31726,note_on,46,0,2,,,,,,,,,6,,,56,0
31728,note_on,2,0,1,,,,,,,,,5,,,75,110
31728,note_on,2,0,2,,,,,,,,,6,,,60,110
31774,note_on,46,0,1,,,,,,,,,5,,,75,0
31774,note_on,46,0,2,,,,,,,,,6,,,60,0
31776,note_on,2,0,1,,,,,,,,,5,,,80,110
31776,note_on,2,0,2,,,,,,,,,6,,,63,110
31822,note_on,46,0,1,,,,,,,,,5,,,80,0
31822,note_on,46,0,2,,,,,,,,,6,,,63,0
31824,note_on,2,0,1,,,,,,,,,5,,,75,110
31824,note_on,2,0,2,,,,,,,,,6,,,60,110
31840,note_on,160,0,6,,,,,,,,,3,,,56,0
31870,note_on,46,0,1,,,,,,,,,5,,,75,0
31870,note_on,46,0,2,,,,,,,,,6,,,60,0
31872,note_on,2,0,2,,,,,,,,,6,,,56,110
31872,note_on,2,0,1,,,,,,,,,5,,,72,110
31918,note_on,46,0,2,,,,,,,,,6,,,56,0
31918,note_on,46,0,1,,,,,,,,,5,,,72,0
31920,note_on,2,0,2,,,,,,,,,6,,,60,110
31920,note_on,2,0,1,,,,,,,,,5,,,75,110
31966,note_on,46,0,2,,,,,,,,,6,,,60,0
31966,note_on,46,0,1,,,,,,,,,5,,,75,0
31968,note_on,2,0,1,,,,,,,,,5,,,80,110
31968,note_on,2,0,2,,,,,,,,,6,,,63,110
32014,note_on,46,0,1,,,,,,,,,5,,,80,0
32014,note_on,46,0,2,,,,,,,,,6,,,63,0
32016,note_on,2,0,1,,,,,,,,,5,,,75,110
32016,note_on,2,0,2,,,,,,,,,6,,,60,110
32062,note_on,46,0,1,,,,,,,,,5,,,75,0
32062,note_on,46,0,2,,,,,,,,,6,,,60,0
32064,note_on,2,0,1,,,,,,,,,5,,,72,110
32064,note_on,2,0,2,,,,,,,,,6,,,56,110
32110,note_on,46,0,1,,,,,,,,,5,,,72,0
32110,note_on,46,0,2,,,,,,,,,6,,,56,0
32112,note_on,2,0,2,,,,,,,,,6,,,60,110
32112,note_on,2,0,1,,,,,,,,,5,,,75,110
32158,note_on,46,0,2,,,,,,,,,6,,,60,0
32158,note_on,46,0,1,,,,,,,,,5,,,75,0
32160,note_on,2,0,2,,,,,,,,,6,,,63,110
32160,note_on,2,0,1,,,,,,,,,5,,,80,110
32206,note_on,46,0,2,,,,,,,,,6,,,63,0
32206,note_on,46,0,1,,,,,,,,,5,,,80,0
32208,note_on,2,0,2,,,,,,,,,6,,,60,110
32208,note_on,2,0,1,,,,,,,,,5,,,72,110
32254,note_on,46,0,1,,,,,,,,,5,,,72,0
32254,note_on,46,0,2,,,,,,,,,6,,,60,0
32256,note_on,2,0,1,,,,,,,,,5,,,73,110
32256,note_on,2,0,2,,,,,,,,,6,,,56,110
32256,note_on,416,0,6,,,,,,,,,3,,,49,60
32302,note_on,46,0,1,,,,,,,,,5,,,73,0
32302,note_on,46,0,2,,,,,,,,,6,,,56,0
32304,note_on,2,0,2,,,,,,,,,6,,,61,110
32304,note_on,2,0,1,,,,,,,,,5,,,76,110
32350,note_on,46,0,2,,,,,,,,,6,,,61,0
32350,note_on,46,0,1,,,,,,,,,5,,,76,0
32352,note_on,2,0,1,,,,,,,,,5,,,80,110
32352,note_on,2,0,2,,,,,,,,,6,,,64,110
32398,note_on,46,0,1,,,,,,,,,5,,,80,0
32398,note_on,46,0,2,,,,,,,,,6,,,64,0
32400,note_on,2,0,2,,,,,,,,,6,,,61,110
32400,note_on,2,0,1,,,,,,,,,5,,,76,110
32416,note_on,160,0,6,,,,,,,,,3,,,49,0
32446,note_on,46,0,2,,,,,,,,,6,,,61,0
32446,note_on,46,0,1,,,,,,,,,5,,,76,0
32448,note_on,2,0,2,,,,,,,,,6,,,56,110
32448,note_on,2,0,1,,,,,,,,,5,,,73,110
32494,note_on,46,0,1,,,,,,,,,5,,,73,0
32494,note_on,46,0,2,,,,,,,,,6,,,56,0
32496,note_on,2,0,1,,,,,,,,,5,,,76,110
32496,note_on,2,0,2,,,,,,,,,6,,,61,110
32542,note_on,46,0,1,,,,,,,,,5,,,76,0
32542,note_on,46,0,2,,,,,,,,,6,,,61,0
32544,note_on,2,0,1,,,,,,,,,5,,,80,110
32544,note_on,2,0,2,,,,,,,,,6,,,64,110
32590,note_on,46,0,1,,,,,,,,,5,,,80,0
32590,note_on,46,0,2,,,,,,,,,6,,,64,0
32592,note_on,2,0,2,,,,,,,,,6,,,61,110
32592,note_on,2,0,1,,,,,,,,,5,,,76,110
32638,note_on,46,0,2,,,,,,,,,6,,,61,0
32638,note_on,46,0,1,,,,,,,,,5,,,76,0
32640,note_on,2,0,2,,,,,,,,,6,,,56,110
32640,note_on,2,0,1,,,,,,,,,5,,,73,110
32686,note_on,46,0,2,,,,,,,,,6,,,56,0
32686,note_on,46,0,1,,,,,,,,,5,,,73,0
32688,note_on,2,0,2,,,,,,,,,6,,,61,110
32688,note_on,2,0,1,,,,,,,,,5,,,76,110
32734,note_on,46,0,1,,,,,,,,,5,,,76,0
32734,note_on,46,0,2,,,,,,,,,6,,,61,0
32736,note_on,2,0,2,,,,,,,,,6,,,64,110
32736,note_on,2,0,1,,,,,,,,,5,,,80,110
32782,note_on,46,0,1,,,,,,,,,5,,,80,0
32782,note_on,46,0,2,,,,,,,,,6,,,64,0
32784,note_on,2,0,1,,,,,,,,,5,,,73,110
32784,note_on,2,0,2,,,,,,,,,6,,,61,110
32830,note_on,46,0,2,,,,,,,,,6,,,61,0
32830,note_on,46,0,1,,,,,,,,,5,,,73,0
32832,note_on,2,0,2,,,,,,,,,6,,,56,110
32832,note_on,416,0,6,,,,,,,,,3,,,56,60
32832,note_on,2,0,1,,,,,,,,,5,,,72,110
32878,note_on,46,0,2,,,,,,,,,6,,,56,0
32878,note_on,46,0,1,,,,,,,,,5,,,72,0
32880,note_on,2,0,2,,,,,,,,,6,,,60,110
32880,note_on,2,0,1,,,,,,,,,5,,,75,110
32926,note_on,46,0,1,,,,,,,,,5,,,75,0
32926,note_on,46,0,2,,,,,,,,,6,,,60,0
32928,note_on,2,0,1,,,,,,,,,5,,,80,110
32928,note_on,2,0,2,,,,,,,,,6,,,63,110
32974,note_on,46,0,1,,,,,,,,,5,,,80,0
32974,note_on,46,0,2,,,,,,,,,6,,,63,0
32976,note_on,2,0,2,,,,,,,,,6,,,60,110
32976,note_on,2,0,1,,,,,,,,,5,,,75,110
32992,note_on,160,0,6,,,,,,,,,3,,,56,0
33022,note_on,46,0,2,,,,,,,,,6,,,60,0
33022,note_on,46,0,1,,,,,,,,,5,,,75,0
33024,note_on,2,0,2,,,,,,,,,6,,,56,110
33024,note_on,2,0,1,,,,,,,,,5,,,72,110
33070,note_on,46,0,2,,,,,,,,,6,,,56,0
33070,note_on,46,0,1,,,,,,,,,5,,,72,0
33072,note_on,2,0,2,,,,,,,,,6,,,60,110
33072,note_on,2,0,1,,,,,,,,,5,,,75,110
33118,note_on,46,0,1,,,,,,,,,5,,,75,0
33118,note_on,46,0,2,,,,,,,,,6,,,60,0
33120,note_on,2,0,1,,,,,,,,,5,,,80,110
33120,note_on,2,0,2,,,,,,,,,6,,,63,110
33166,note_on,46,0,2,,,,,,,,,6,,,63,0
33166,note_on,46,0,1,,,,,,,,,5,,,80,0
33168,note_on,2,0,1,,,,,,,,,5,,,75,110
33168,note_on,2,0,2,,,,,,,,,6,,,60,110
33214,note_on,46,0,1,,,,,,,,,5,,,75,0
33214,note_on,46,0,2,,,,,,,,,6,,,60,0
33216,note_on,2,0,1,,,,,,,,,5,,,72,110
33216,note_on,2,0,2,,,,,,,,,6,,,56,110
33262,note_on,46,0,1,,,,,,,,,5,,,72,0
33262,note_on,46,0,2,,,,,,,,,6,,,56,0
33264,note_on,2,0,1,,,,,,,,,5,,,75,110
33264,note_on,2,0,2,,,,,,,,,6,,,60,110
33310,note_on,46,0,1,,,,,,,,,5,,,75,0
33310,note_on,46,0,2,,,,,,,,,6,,,60,0
33312,note_on,2,0,1,,,,,,,,,5,,,80,110
33312,note_on,2,0,2,,,,,,,,,6,,,63,110
33358,note_on,46,0,2,,,,,,,,,6,,,63,0
33358,note_on,46,0,1,,,,,,,,,5,,,80,0
33360,note_on,2,0,1,,,,,,,,,5,,,72,110
33360,note_on,2,0,2,,,,,,,,,6,,,60,110
33406,note_on,46,0,2,,,,,,,,,6,,,60,0
33406,note_on,46,0,1,,,,,,,,,5,,,72,0
33408,note_on,2,0,2,,,,,,,,,6,,,56,110
33408,note_on,416,0,6,,,,,,,,,3,,,49,60
33408,note_on,2,0,1,,,,,,,,,5,,,73,110
33454,note_on,46,0,2,,,,,,,,,6,,,56,0
33454,note_on,46,0,1,,,,,,,,,5,,,73,0
33456,note_on,2,0,2,,,,,,,,,6,,,61,110
33456,note_on,2,0,1,,,,,,,,,5,,,76,110
33502,note_on,46,0,2,,,,,,,,,6,,,61,0
33502,note_on,46,0,1,,,,,,,,,5,,,76,0
33504,note_on,2,0,1,,,,,,,,,5,,,80,110
33504,note_on,2,0,2,,,,,,,,,6,,,64,110
33550,note_on,46,0,1,,,,,,,,,5,,,80,0
33550,note_on,46,0,2,,,,,,,,,6,,,64,0
33552,note_on,2,0,1,,,,,,,,,5,,,76,110
33552,note_on,2,0,2,,,,,,,,,6,,,61,110
33568,note_on,160,0,6,,,,,,,,,3,,,49,0
33598,note_on,46,0,2,,,,,,,,,6,,,61,0
33598,note_on,46,0,1,,,,,,,,,5,,,76,0
33600,note_on,2,0,2,,,,,,,,,6,,,56,110
33600,note_on,2,0,1,,,,,,,,,5,,,73,110
33646,note_on,46,0,2,,,,,,,,,6,,,56,0
33646,note_on,46,0,1,,,,,,,,,5,,,73,0
33648,note_on,2,0,1,,,,,,,,,5,,,76,110
33648,note_on,2,0,2,,,,,,,,,6,,,61,110
33694,note_on,46,0,2,,,,,,,,,6,,,61,0
33694,note_on,46,0,1,,,,,,,,,5,,,76,0
33696,note_on,2,0,2,,,,,,,,,6,,,64,110
33696,note_on,2,0,1,,,,,,,,,5,,,80,110
33742,note_on,46,0,1,,,,,,,,,5,,,80,0
33742,note_on,46,0,2,,,,,,,,,6,,,64,0
33744,note_on,2,0,1,,,,,,,,,5,,,76,110
33744,note_on,2,0,2,,,,,,,,,6,,,61,110
33790,note_on,46,0,1,,,,,,,,,5,,,76,0
33790,note_on,46,0,2,,,,,,,,,6,,,61,0
33792,note_on,2,0,1,,,,,,,,,5,,,73,110
33792,note_on,2,0,2,,,,,,,,,6,,,56,110
33838,note_on,46,0,1,,,,,,,,,5,,,73,0
33838,note_on,46,0,2,,,,,,,,,6,,,56,0
33840,note_on,2,0,1,,,,,,,,,5,,,76,110
33840,note_on,2,0,2,,,,,,,,,6,,,61,110
33886,note_on,46,0,1,,,,,,,,,5,,,76,0
33886,note_on,46,0,2,,,,,,,,,6,,,61,0
33888,note_on,2,0,1,,,,,,,,,5,,,80,110
33888,note_on,2,0,2,,,,,,,,,6,,,64,110
33934,note_on,46,0,2,,,,,,,,,6,,,64,0
33934,note_on,46,0,1,,,,,,,,,5,,,80,0
33936,note_on,2,0,2,,,,,,,,,6,,,61,110
33936,note_on,2,0,1,,,,,,,,,5,,,76,110
33982,note_on,46,0,2,,,,,,,,,6,,,61,0
33982,note_on,46,0,1,,,,,,,,,5,,,76,0
33984,note_on,416,0,6,,,,,,,,,3,,,54,60
33984,note_on,2,0,2,,,,,,,,,6,,,66,110
33984,note_on,2,0,1,,,,,,,,,5,,,81,110
34078,note_on,94,0,1,,,,,,,,,5,,,81,0
34080,note_on,2,0,1,,,,,,,,,5,,,73,110
34144,note_on,160,0,6,,,,,,,,,3,,,54,0
34144,note_on,160,0,2,,,,,,,,,6,,,66,0
34174,note_on,94,0,1,,,,,,,,,5,,,73,0
34176,note_on,2,0,1,,,,,,,,,5,,,73,110
34176,note_on,32,0,6,,,,,,,,,3,,,56,60
34176,note_on,32,0,2,,,,,,,,,6,,,63,110
34198,note_on,22,0,1,,,,,,,,,5,,,73,0
34200,note_on,2,0,1,,,,,,,,,5,,,72,110
34222,note_on,22,0,1,,,,,,,,,5,,,72,0
34224,note_on,2,0,1,,,,,,,,,5,,,73,110
34246,note_on,22,0,1,,,,,,,,,5,,,73,0
34248,note_on,2,0,1,,,,,,,,,5,,,72,110
34270,note_on,22,0,1,,,,,,,,,5,,,72,0
34272,note_on,2,0,1,,,,,,,,,5,,,73,110
34294,note_on,22,0,1,,,,,,,,,5,,,73,0
34296,note_on,2,0,1,,,,,,,,,5,,,72,110
34318,note_on,22,0,1,,,,,,,,,5,,,72,0
34320,note_on,2,0,1,,,,,,,,,5,,,73,110
34336,note_on,160,0,6,,,,,,,,,3,,,56,0
34342,note_on,22,0,1,,,,,,,,,5,,,73,0
34344,note_on,2,0,1,,,,,,,,,5,,,72,110
34368,note_on,32,0,6,,,,,,,,,3,,,44,60
34432,note_on,256,0,2,,,,,,,,,6,,,63,0
34462,note_on,118,0,1,,,,,,,,,5,,,72,0
34464,note_on,32,0,2,,,,,,,,,6,,,61,110
34464,note_on,2,0,1,,,,,,,,,5,,,73,110
34528,note_on,160,0,6,,,,,,,,,3,,,44,0
34558,note_on,94,0,2,,,,,,,,,6,,,61,0
34558,note_on,94,0,1,,,,,,,,,5,,,73,0
34560,note_on,0,0,3,,,,,,,,,0,,,85,92
34560,control_change,5184,0,3,,,,,,,,,0,10,64,,
34560,note_on,2,0,2,,,,,,,,,6,,,61,110
34560,note_on,6336,0,7,,,,,,,,,7,,,49,92
34560,note_on,2,0,1,,,,,,,,,5,,,73,110
34560,note_on,32,0,6,,,,,,,,,3,,,61,92
34654,note_on,94,0,2,,,,,,,,,6,,,61,0
34654,note_on,94,0,3,,,,,,,,,0,,,85,0
34654,note_on,94,0,7,,,,,,,,,7,,,49,0
34654,note_on,94,0,1,,,,,,,,,5,,,73,0
34654,note_on,94,0,6,,,,,,,,,3,,,61,0
34656,note_on,2,0,1,,,,,,,,,5,,,73,110
34656,note_on,2,0,6,,,,,,,,,3,,,52,92
34656,note_on,2,0,2,,,,,,,,,6,,,52,110
34656,note_on,5280,0,4,,,,,,,,,1,,,80,75
34656,note_on,2,0,3,,,,,,,,,0,,,73,92
34656,note_on,2,0,7,,,,,,,,,7,,,40,92
34688,note_on,32,0,4,,,,,,,,,1,,,80,0
34750,note_on,94,0,6,,,,,,,,,3,,,52,0
34750,note_on,94,0,2,,,,,,,,,6,,,52,0
34750,note_on,94,0,7,,,,,,,,,7,,,40,0
34752,note_on,64,0,4,,,,,,,,,1,,,80,75
34752,note_on,2,0,6,,,,,,,,,3,,,49,92
34752,note_on,2,0,7,,,,,,,,,7,,,37,92
34752,note_on,2,0,2,,,,,,,,,6,,,49,110
34784,note_on,32,0,4,,,,,,,,,1,,,80,0
34846,note_on,190,0,1,,,,,,,,,5,,,73,0
34846,note_on,190,0,3,,,,,,,,,0,,,73,0
34848,note_on,2,0,1,,,,,,,,,5,,,78,110
34848,note_on,2,0,3,,,,,,,,,0,,,78,92
34848,note_on,64,0,4,,,,,,,,,1,,,80,75
34880,note_on,32,0,4,,,,,,,,,1,,,80,0
34912,note_on,160,0,2,,,,,,,,,6,,,49,0
34912,note_on,160,0,6,,,,,,,,,3,,,49,0
34912,note_on,160,0,7,,,,,,,,,7,,,37,0
34942,note_on,94,0,3,,,,,,,,,0,,,78,0
34942,note_on,94,0,1,,,,,,,,,5,,,78,0
34944,note_on,2,0,3,,,,,,,,,0,,,76,92
34944,note_on,64,0,4,,,,,,,,,1,,,80,75
34944,note_on,2,0,1,,,,,,,,,5,,,76,110
34976,note_on,32,0,4,,,,,,,,,1,,,80,0
35038,note_on,94,0,1,,,,,,,,,5,,,76,0
35038,note_on,94,0,3,,,,,,,,,0,,,76,0
35040,note_on,128,0,6,,,,,,,,,3,,,56,92
35040,note_on,2,0,3,,,,,,,,,0,,,75,92
35040,note_on,128,0,2,,,,,,,,,6,,,56,110
35040,note_on,128,0,7,,,,,,,,,7,,,44,92
35040,note_on,64,0,4,,,,,,,,,1,,,80,75
35040,note_on,0,0,1,,,,,,,,,5,,,75,110
35040,note_on,2,0,1,,,,,,,,,5,,,72,110
35072,note_on,32,0,4,,,,,,,,,1,,,80,0
35134,note_on,94,0,2,,,,,,,,,6,,,56,0
35134,note_on,94,0,1,,,,,,,,,5,,,72,0
35134,note_on,94,0,6,,,,,,,,,3,,,56,0
35134,note_on,94,0,7,,,,,,,,,7,,,44,0
35134,note_on,0,0,1,,,,,,,,,5,,,75,0
35134,note_on,94,0,3,,,,,,,,,0,,,75,0
35136,note_on,2,0,3,,,,,,,,,0,,,76,92
35136,note_on,0,0,1,,,,,,,,,5,,,76,110
35136,note_on,2,0,1,,,,,,,,,5,,,68,110
35136,note_on,2,0,2,,,,,,,,,6,,,61,110
35136,note_on,2,0,6,,,,,,,,,3,,,61,92
35136,note_on,64,0,4,,,,,,,,,1,,,80,75
35136,note_on,2,0,7,,,,,,,,,7,,,49,92
35168,note_on,32,0,4,,,,,,,,,1,,,80,0
35230,note_on,94,0,3,,,,,,,,,0,,,76,0
35230,note_on,94,0,1,,,,,,,,,5,,,68,0
35230,note_on,0,0,1,,,,,,,,,5,,,76,0
35230,note_on,94,0,6,,,,,,,,,3,,,61,0
35230,note_on,94,0,2,,,,,,,,,6,,,61,0
35230,note_on,94,0,7,,,,,,,,,7,,,49,0
35232,note_on,2,0,7,,,,,,,,,7,,,40,92
35232,note_on,2,0,3,,,,,,,,,0,,,73,92
35232,note_on,64,0,4,,,,,,,,,1,,,80,75
35232,note_on,2,0,1,,,,,,,,,5,,,73,110
35232,note_on,2,0,6,,,,,,,,,3,,,52,92
35232,note_on,2,0,2,,,,,,,,,6,,,52,110
35264,note_on,32,0,4,,,,,,,,,1,,,80,0
35326,note_on,94,0,6,,,,,,,,,3,,,52,0
35326,note_on,94,0,7,,,,,,,,,7,,,40,0
35326,note_on,94,0,2,,,,,,,,,6,,,52,0
35328,note_on,2,0,6,,,,,,,,,3,,,49,92
35328,note_on,2,0,7,,,,,,,,,7,,,37,92
35328,note_on,64,0,4,,,,,,,,,1,,,80,75
35328,note_on,2,0,2,,,,,,,,,6,,,49,110
35360,note_on,32,0,4,,,,,,,,,1,,,80,0
35422,note_on,190,0,3,,,,,,,,,0,,,73,0
35422,note_on,190,0,1,,,,,,,,,5,,,73,0
35424,note_on,2,0,3,,,,,,,,,0,,,80,92
35424,note_on,64,0,4,,,,,,,,,1,,,80,75
35424,note_on,2,0,1,,,,,,,,,5,,,80,110
35456,note_on,32,0,4,,,,,,,,,1,,,80,0
35488,note_on,160,0,2,,,,,,,,,6,,,49,0
35488,note_on,160,0,7,,,,,,,,,7,,,37,0
35488,note_on,160,0,6,,,,,,,,,3,,,49,0
35518,note_on,94,0,1,,,,,,,,,5,,,80,0
35518,note_on,94,0,3,,,,,,,,,0,,,80,0
35520,note_on,64,0,4,,,,,,,,,1,,,80,75
35520,note_on,2,0,1,,,,,,,,,5,,,82,110
35520,note_on,2,0,3,,,,,,,,,0,,,82,92
35552,note_on,32,0,4,,,,,,,,,1,,,80,0
35614,note_on,94,0,1,,,,,,,,,5,,,82,0
35614,note_on,94,0,3,,,,,,,,,0,,,82,0
35616,note_on,128,0,7,,,,,,,,,7,,,44,92
35616,note_on,64,0,4,,,,,,,,,1,,,80,75
35616,note_on,128,0,6,,,,,,,,,3,,,56,92
35616,note_on,2,0,1,,,,,,,,,5,,,80,110
35616,note_on,2,0,3,,,,,,,,,0,,,84,92
35616,note_on,128,0,2,,,,,,,,,6,,,56,110
35616,note_on,0,0,1,,,,,,,,,5,,,84,110
35648,note_on,32,0,4,,,,,,,,,1,,,80,0
35710,note_on,94,0,6,,,,,,,,,3,,,56,0
35710,note_on,94,0,3,,,,,,,,,0,,,84,0
35710,note_on,0,0,1,,,,,,,,,5,,,84,0
35710,note_on,94,0,1,,,,,,,,,5,,,80,0
35710,note_on,94,0,2,,,,,,,,,6,,,56,0
35710,note_on,94,0,7,,,,,,,,,7,,,44,0
35712,note_on,2,0,6,,,,,,,,,3,,,61,92
35712,note_on,0,0,1,,,,,,,,,5,,,85,110
35712,note_on,7488,0,5,,,,,,,,,2,,,68,92
35712,note_on,2,0,1,,,,,,,,,5,,,76,110
35712,note_on,2,0,2,,,,,,,,,6,,,61,110
35712,note_on,2,0,7,,,,,,,,,7,,,49,92
35712,note_on,2,0,3,,,,,,,,,0,,,85,92
35712,note_on,64,0,4,,,,,,,,,1,,,80,75
35744,note_on,32,0,4,,,,,,,,,1,,,80,0
35806,note_on,94,0,7,,,,,,,,,7,,,49,0
35806,note_on,94,0,6,,,,,,,,,3,,,61,0
35806,note_on,94,0,3,,,,,,,,,0,,,85,0
35806,note_on,0,0,1,,,,,,,,,5,,,85,0
35806,note_on,94,0,1,,,,,,,,,5,,,76,0
35806,note_on,94,0,2,,,,,,,,,6,,,61,0
35806,note_on,94,0,5,,,,,,,,,2,,,68,0
35808,note_on,2,0,2,,,,,,,,,6,,,52,110
35808,note_on,2,0,3,,,,,,,,,0,,,73,92
35808,note_on,2,0,7,,,,,,,,,7,,,40,92
35808,note_on,2,0,1,,,,,,,,,5,,,73,110
35808,note_on,2,0,6,,,,,,,,,3,,,52,92
35808,note_on,64,0,4,,,,,,,,,1,,,80,75
35808,note_on,2,0,5,,,,,,,,,2,,,68,92
35840,note_on,32,0,4,,,,,,,,,1,,,80,0
35902,note_on,94,0,7,,,,,,,,,7,,,40,0
35902,note_on,94,0,5,,,,,,,,,2,,,68,0
35902,note_on,94,0,6,,,,,,,,,3,,,52,0
35902,note_on,94,0,2,,,,,,,,,6,,,52,0
35904,note_on,2,0,7,,,,,,,,,7,,,37,92
35904,note_on,2,0,5,,,,,,,,,2,,,64,92
35904,note_on,64,0,4,,,,,,,,,1,,,80,75
35904,note_on,2,0,2,,,,,,,,,6,,,49,110
35904,note_on,2,0,6,,,,,,,,,3,,,49,92
35936,note_on,32,0,4,,,,,,,,,1,,,80,0
35998,note_on,190,0,1,,,,,,,,,5,,,73,0
35998,note_on,190,0,3,,,,,,,,,0,,,73,0
36000,note_on,2,0,3,,,,,,,,,0,,,78,92
36000,note_on,2,0,1,,,,,,,,,5,,,78,110
36000,note_on,64,0,4,,,,,,,,,1,,,80,75
36032,note_on,32,0,4,,,,,,,,,1,,,80,0
36064,note_on,160,0,2,,,,,,,,,6,,,49,0
36064,note_on,160,0,7,,,,,,,,,7,,,37,0
36064,note_on,160,0,6,,,,,,,,,3,,,49,0
36064,note_on,160,0,5,,,,,,,,,2,,,64,0
36094,note_on,94,0,3,,,,,,,,,0,,,78,0
36094,note_on,94,0,1,,,,,,,,,5,,,78,0
36096,note_on,2,0,1,,,,,,,,,5,,,76,110
36096,note_on,2,0,3,,,,,,,,,0,,,76,92
36096,note_on,64,0,4,,,,,,,,,1,,,80,75
36128,note_on,32,0,4,,,,,,,,,1,,,80,0
36190,note_on,94,0,3,,,,,,,,,0,,,76,0
36190,note_on,94,0,1,,,,,,,,,5,,,76,0
36192,note_on,128,0,7,,,,,,,,,7,,,44,92
36192,note_on,64,0,4,,,,,,,,,1,,,84,75
36192,note_on,128,0,6,,,,,,,,,3,,,56,92
36192,note_on,128,0,2,,,,,,,,,6,,,56,110
36192,note_on,0,0,1,,,,,,,,,5,,,75,110
36192,note_on,2,0,1,,,,,,,,,5,,,72,110
36192,note_on,2,0,3,,,,,,,,,0,,,75,92
36192,note_on,128,0,5,,,,,,,,,2,,,68,92
36286,note_on,0,0,1,,,,,,,,,5,,,75,0
36286,note_on,94,0,5,,,,,,,,,2,,,68,0
36286,note_on,94,0,1,,,,,,,,,5,,,72,0
36286,note_on,94,0,7,,,,,,,,,7,,,44,0
36286,note_on,94,0,4,,,,,,,,,1,,,84,0
36286,note_on,94,0,2,,,,,,,,,6,,,56,0
36286,note_on,94,0,3,,,,,,,,,0,,,75,0
36286,note_on,94,0,6,,,,,,,,,3,,,56,0
36288,note_on,2,0,6,,,,,,,,,3,,,61,92
36288,note_on,2,0,4,,,,,,,,,1,,,85,75
36288,note_on,2,0,2,,,,,,,,,6,,,61,110
36288,note_on,2,0,5,,,,,,,,,2,,,68,92
36288,note_on,2,0,7,,,,,,,,,7,,,49,92
36288,note_on,2,0,3,,,,,,,,,0,,,76,92
36288,note_on,2,0,1,,,,,,,,,5,,,68,110
36288,note_on,0,0,1,,,,,,,,,5,,,76,110
36382,note_on,94,0,7,,,,,,,,,7,,,49,0
36382,note_on,94,0,4,,,,,,,,,1,,,85,0
36382,note_on,94,0,3,,,,,,,,,0,,,76,0
36382,note_on,94,0,6,,,,,,,,,3,,,61,0
36382,note_on,94,0,5,,,,,,,,,2,,,68,0
36382,note_on,94,0,1,,,,,,,,,5,,,68,0
36382,note_on,0,0,1,,,,,,,,,5,,,76,0
36382,note_on,94,0,2,,,,,,,,,6,,,61,0
36384,note_on,2,0,5,,,,,,,,,2,,,68,92
36384,note_on,2,0,4,,,,,,,,,1,,,73,108
36384,note_on,2,0,2,,,,,,,,,6,,,52,110
36384,note_on,2,0,6,,,,,,,,,3,,,52,92
36384,note_on,2,0,3,,,,,,,,,0,,,80,75
36384,note_on,2,0,7,,,,,,,,,7,,,40,92
36384,note_on,2,0,1,,,,,,,,,5,,,80,110
36416,note_on,32,0,3,,,,,,,,,0,,,80,0
36478,note_on,94,0,6,,,,,,,,,3,,,52,0
36478,note_on,94,0,1,,,,,,,,,5,,,80,0
36478,note_on,94,0,7,,,,,,,,,7,,,40,0
36478,note_on,94,0,5,,,,,,,,,2,,,68,0
36478,note_on,94,0,2,,,,,,,,,6,,,52,0
36480,note_on,2,0,5,,,,,,,,,2,,,64,92
36480,note_on,2,0,2,,,,,,,,,6,,,49,110
36480,note_on,2,0,7,,,,,,,,,7,,,37,92
36480,note_on,2,0,6,,,,,,,,,3,,,49,92
36480,note_on,64,0,3,,,,,,,,,0,,,80,75
36480,note_on,2,0,1,,,,,,,,,5,,,80,110
36512,note_on,32,0,3,,,,,,,,,0,,,80,0
36574,note_on,190,0,4,,,,,,,,,1,,,73,0
36574,note_on,94,0,1,,,,,,,,,5,,,80,0
36576,note_on,2,0,4,,,,,,,,,1,,,78,108
36576,note_on,64,0,3,,,,,,,,,0,,,80,75
36576,note_on,2,0,1,,,,,,,,,5,,,80,110
36608,note_on,32,0,3,,,,,,,,,0,,,80,0
36640,note_on,160,0,7,,,,,,,,,7,,,37,0
36640,note_on,160,0,5,,,,,,,,,2,,,64,0
36640,note_on,160,0,2,,,,,,,,,6,,,49,0
36640,note_on,160,0,6,,,,,,,,,3,,,49,0
36670,note_on,94,0,1,,,,,,,,,5,,,80,0
36670,note_on,94,0,4,,,,,,,,,1,,,78,0
36672,note_on,2,0,1,,,,,,,,,5,,,80,110
36672,note_on,64,0,3,,,,,,,,,0,,,80,75
36672,note_on,2,0,4,,,,,,,,,1,,,76,108
36704,note_on,32,0,3,,,,,,,,,0,,,80,0
36766,note_on,94,0,4,,,,,,,,,1,,,76,0
36766,note_on,94,0,1,,,,,,,,,5,,,80,0
36768,note_on,0,0,1,,,,,,,,,5,,,80,110
36768,note_on,128,0,7,,,,,,,,,7,,,44,92
36768,note_on,128,0,2,,,,,,,,,6,,,56,110
36768,note_on,128,0,6,,,,,,,,,3,,,56,92
36768,note_on,2,0,1,,,,,,,,,5,,,75,110
36768,note_on,64,0,3,,,,,,,,,0,,,80,75
36768,note_on,128,0,5,,,,,,,,,2,,,68,92
36768,note_on,2,0,4,,,,,,,,,1,,,75,108
36800,note_on,32,0,3,,,,,,,,,0,,,80,0
36862,note_on,94,0,1,,,,,,,,,5,,,75,0
36862,note_on,94,0,5,,,,,,,,,2,,,68,0
36862,note_on,0,0,1,,,,,,,,,5,,,80,0
36862,note_on,94,0,4,,,,,,,,,1,,,75,0
36862,note_on,94,0,2,,,,,,,,,6,,,56,0
36862,note_on,94,0,6,,,,,,,,,3,,,56,0
36862,note_on,94,0,7,,,,,,,,,7,,,44,0
36864,note_on,64,0,3,,,,,,,,,0,,,80,75
36864,note_on,2,0,7,,,,,,,,,7,,,49,92
36864,note_on,2,0,4,,,,,,,,,1,,,76,108
36864,note_on,0,0,1,,,,,,,,,5,,,80,110
36864,note_on,2,0,1,,,,,,,,,5,,,76,110
36864,note_on,2,0,6,,,,,,,,,3,,,61,92
36864,note_on,2,0,5,,,,,,,,,2,,,68,92
36864,note_on,2,0,2,,,,,,,,,6,,,61,110
36896,note_on,32,0,3,,,,,,,,,0,,,80,0
36958,note_on,94,0,6,,,,,,,,,3,,,61,0
36958,note_on,94,0,7,,,,,,,,,7,,,49,0
36958,note_on,0,0,1,,,,,,,,,5,,,80,0
36958,note_on,94,0,1,,,,,,,,,5,,,76,0
36958,note_on,94,0,4,,,,,,,,,1,,,76,0
36958,note_on,94,0,2,,,,,,,,,6,,,61,0
36958,note_on,94,0,5,,,,,,,,,2,,,68,0
36960,note_on,64,0,3,,,,,,,,,0,,,80,75
36960,note_on,2,0,6,,,,,,,,,3,,,52,92
36960,note_on,2,0,7,,,,,,,,,7,,,40,92
36960,note_on,2,0,2,,,,,,,,,6,,,52,110
36960,note_on,2,0,5,,,,,,,,,2,,,68,92
36960,note_on,2,0,4,,,,,,,,,1,,,73,108
36960,note_on,2,0,1,,,,,,,,,5,,,80,110
36992,note_on,32,0,3,,,,,,,,,0,,,80,0
37054,note_on,94,0,2,,,,,,,,,6,,,52,0
37054,note_on,94,0,6,,,,,,,,,3,,,52,0
37054,note_on,94,0,5,,,,,,,,,2,,,68,0
37054,note_on,94,0,1,,,,,,,,,5,,,80,0
37054,note_on,94,0,7,,,,,,,,,7,,,40,0
37056,note_on,2,0,5,,,,,,,,,2,,,64,92
37056,note_on,2,0,1,,,,,,,,,5,,,80,110
37056,note_on,64,0,3,,,,,,,,,0,,,80,75
37056,note_on,2,0,7,,,,,,,,,7,,,37,92
37056,note_on,2,0,6,,,,,,,,,3,,,49,92
37056,note_on,2,0,2,,,,,,,,,6,,,49,110
37088,note_on,32,0,3,,,,,,,,,0,,,80,0
37150,note_on,190,0,4,,,,,,,,,1,,,73,0
37150,note_on,94,0,1,,,,,,,,,5,,,80,0
37152,note_on,2,0,4,,,,,,,,,1,,,80,108
37152,note_on,64,0,3,,,,,,,,,0,,,80,75
37152,note_on,2,0,1,,,,,,,,,5,,,80,110
37184,note_on,32,0,3,,,,,,,,,0,,,80,0
37216,note_on,160,0,7,,,,,,,,,7,,,37,0
37216,note_on,160,0,6,,,,,,,,,3,,,49,0
37216,note_on,160,0,5,,,,,,,,,2,,,64,0
37216,note_on,160,0,2,,,,,,,,,6,,,49,0
37246,note_on,94,0,1,,,,,,,,,5,,,80,0
37246,note_on,94,0,4,,,,,,,,,1,,,80,0
37248,note_on,2,0,1,,,,,,,,,5,,,80,110
37248,note_on,2,0,4,,,,,,,,,1,,,82,108
37248,note_on,64,0,3,,,,,,,,,0,,,80,75
37280,note_on,32,0,3,,,,,,,,,0,,,80,0
37342,note_on,94,0,4,,,,,,,,,1,,,82,0
37342,note_on,94,0,1,,,,,,,,,5,,,80,0
37344,note_on,64,0,3,,,,,,,,,0,,,80,75
37344,note_on,128,0,7,,,,,,,,,7,,,44,92
37344,note_on,0,0,1,,,,,,,,,5,,,80,110
37344,note_on,2,0,4,,,,,,,,,1,,,84,108
37344,note_on,128,0,2,,,,,,,,,6,,,56,110
37344,note_on,128,0,6,,,,,,,,,3,,,56,92
37344,note_on,2,0,1,,,,,,,,,5,,,75,110
37344,note_on,128,0,5,,,,,,,,,2,,,68,92
37376,note_on,32,0,3,,,,,,,,,0,,,80,0
37438,note_on,0,0,1,,,,,,,,,5,,,80,0
37438,note_on,94,0,1,,,,,,,,,5,,,75,0
37438,note_on,94,0,2,,,,,,,,,6,,,56,0
37438,note_on,94,0,6,,,,,,,,,3,,,56,0
37438,note_on,94,0,5,,,,,,,,,2,,,68,0
37438,note_on,94,0,7,,,,,,,,,7,,,44,0
37438,note_on,94,0,4,,,,,,,,,1,,,84,0
37440,note_on,64,0,3,,,,,,,,,0,,,80,75
37440,note_on,2,0,1,,,,,,,,,5,,,76,110
37440,note_on,2,0,6,,,,,,,,,3,,,61,92
37440,note_on,0,0,1,,,,,,,,,5,,,80,110
37440,note_on,2,0,7,,,,,,,,,7,,,49,92
37440,note_on,2,0,5,,,,,,,,,2,,,68,92
37440,note_on,2,0,2,,,,,,,,,6,,,61,110
37440,note_on,2,0,4,,,,,,,,,1,,,85,108
37472,note_on,32,0,3,,,,,,,,,0,,,80,0
37534,note_on,94,0,5,,,,,,,,,2,,,68,0
37534,note_on,94,0,1,,,,,,,,,5,,,76,0
37534,note_on,0,0,1,,,,,,,,,5,,,80,0
37534,note_on,94,0,7,,,,,,,,,7,,,49,0
37534,note_on,94,0,2,,,,,,,,,6,,,61,0
37534,note_on,94,0,6,,,,,,,,,3,,,61,0
37534,note_on,94,0,4,,,,,,,,,1,,,85,0
37536,note_on,2,0,7,,,,,,,,,7,,,40,92
37536,note_on,2,0,6,,,,,,,,,3,,,52,92
37536,note_on,2,0,5,,,,,,,,,2,,,68,92
37536,note_on,2,0,2,,,,,,,,,6,,,52,110
37536,note_on,2,0,4,,,,,,,,,1,,,73,108
37536,note_on,2,0,1,,,,,,,,,5,,,80,110
37536,note_on,64,0,3,,,,,,,,,0,,,80,75
37568,note_on,32,0,3,,,,,,,,,0,,,80,0
37630,note_on,94,0,6,,,,,,,,,3,,,52,0
37630,note_on,94,0,2,,,,,,,,,6,,,52,0
37630,note_on,94,0,5,,,,,,,,,2,,,68,0
37630,note_on,94,0,1,,,,,,,,,5,,,80,0
37630,note_on,94,0,7,,,,,,,,,7,,,40,0
37632,note_on,2,0,1,,,,,,,,,5,,,80,110
37632,note_on,2,0,7,,,,,,,,,7,,,37,92
37632,note_on,64,0,3,,,,,,,,,0,,,80,75
37632,note_on,2,0,5,,,,,,,,,2,,,64,92
37632,note_on,2,0,6,,,,,,,,,3,,,49,92
37632,note_on,2,0,2,,,,,,,,,6,,,49,110
37664,note_on,32,0,3,,,,,,,,,0,,,80,0
37726,note_on,190,0,4,,,,,,,,,1,,,73,0
37726,note_on,94,0,1,,,,,,,,,5,,,80,0
37728,note_on,2,0,1,,,,,,,,,5,,,80,110
37728,note_on,2,0,4,,,,,,,,,1,,,78,108
37728,note_on,64,0,3,,,,,,,,,0,,,80,75
37760,note_on,32,0,3,,,,,,,,,0,,,80,0
37792,note_on,160,0,6,,,,,,,,,3,,,49,0
37792,note_on,160,0,7,,,,,,,,,7,,,37,0
37792,note_on,160,0,2,,,,,,,,,6,,,49,0
37792,note_on,160,0,5,,,,,,,,,2,,,64,0
37822,note_on,94,0,4,,,,,,,,,1,,,78,0
37822,note_on,94,0,1,,,,,,,,,5,,,80,0
37824,note_on,2,0,1,,,,,,,,,5,,,80,110
37824,note_on,64,0,3,,,,,,,,,0,,,80,75
37824,note_on,2,0,4,,,,,,,,,1,,,76,108
37856,note_on,32,0,3,,,,,,,,,0,,,80,0
37918,note_on,94,0,1,,,,,,,,,5,,,80,0
37918,note_on,94,0,4,,,,,,,,,1,,,76,0
37920,note_on,64,0,3,,,,,,,,,0,,,84,108
37920,note_on,2,0,4,,,,,,,,,1,,,75,108
37920,note_on,0,0,1,,,,,,,,,5,,,84,110
37920,note_on,128,0,7,,,,,,,,,7,,,44,92
37920,note_on,128,0,5,,,,,,,,,2,,,68,92
37920,note_on,128,0,2,,,,,,,,,6,,,56,110
37920,note_on,128,0,6,,,,,,,,,3,,,56,92
37920,note_on,2,0,1,,,,,,,,,5,,,75,110
38014,note_on,0,0,1,,,,,,,,,5,,,84,0
38014,note_on,94,0,6,,,,,,,,,3,,,56,0
38014,note_on,94,0,1,,,,,,,,,5,,,75,0
38014,note_on,94,0,5,,,,,,,,,2,,,68,0
38014,note_on,94,0,4,,,,,,,,,1,,,75,0
38014,note_on,94,0,7,,,,,,,,,7,,,44,0
38014,note_on,94,0,2,,,,,,,,,6,,,56,0
38014,note_on,94,0,3,,,,,,,,,0,,,84,0
38016,note_on,2,0,2,,,,,,,,,6,,,61,110
38016,note_on,2,0,6,,,,,,,,,3,,,61,92
38016,note_on,2,0,4,,,,,,,,,1,,,76,108
38016,note_on,2,0,1,,,,,,,,,5,,,76,110
38016,note_on,0,0,1,,,,,,,,,5,,,85,110
38016,note_on,2,0,3,,,,,,,,,0,,,85,108
38016,note_on,2,0,5,,,,,,,,,2,,,68,92
38016,note_on,2,0,7,,,,,,,,,7,,,49,92
38110,note_on,94,0,1,,,,,,,,,5,,,76,0
38110,note_on,94,0,2,,,,,,,,,6,,,61,0
38110,note_on,94,0,5,,,,,,,,,2,,,68,0
38110,note_on,0,0,1,,,,,,,,,5,,,85,0
38110,note_on,94,0,3,,,,,,,,,0,,,85,0
38110,note_on,94,0,6,,,,,,,,,3,,,61,0
38110,note_on,94,0,4,,,,,,,,,1,,,76,0
38110,note_on,94,0,7,,,,,,,,,7,,,49,0
38112,note_on,2,0,7,,,,,,,,,7,,,40,92
38112,note_on,2,0,3,,,,,,,,,0,,,73,108
38112,note_on,2,0,6,,,,,,,,,3,,,52,92
38112,note_on,2,0,1,,,,,,,,,5,,,73,110
38112,note_on,2,0,5,,,,,,,,,2,,,68,92
38112,note_on,2,0,4,,,,,,,,,1,,,80,75
38112,note_on,2,0,2,,,,,,,,,6,,,52,110
38144,note_on,32,0,4,,,,,,,,,1,,,80,0
38206,note_on,94,0,2,,,,,,,,,6,,,52,0
38206,note_on,94,0,7,,,,,,,,,7,,,40,0
38206,note_on,94,0,5,,,,,,,,,2,,,68,0
38206,note_on,94,0,6,,,,,,,,,3,,,52,0
38208,note_on,2,0,5,,,,,,,,,2,,,64,92
38208,note_on,2,0,2,,,,,,,,,6,,,49,110
38208,note_on,64,0,4,,,,,,,,,1,,,80,75
38208,note_on,2,0,6,,,,,,,,,3,,,49,92
38208,note_on,2,0,7,,,,,,,,,7,,,37,92
38240,note_on,32,0,4,,,,,,,,,1,,,80,0
38302,note_on,190,0,1,,,,,,,,,5,,,73,0
38302,note_on,190,0,3,,,,,,,,,0,,,73,0
38304,note_on,64,0,4,,,,,,,,,1,,,80,75
38304,note_on,2,0,1,,,,,,,,,5,,,78,110
38304,note_on,2,0,3,,,,,,,,,0,,,78,108
38336,note_on,32,0,4,,,,,,,,,1,,,80,0
38368,note_on,160,0,5,,,,,,,,,2,,,64,0
38368,note_on,160,0,7,,,,,,,,,7,,,37,0
38368,note_on,160,0,2,,,,,,,,,6,,,49,0
38368,note_on,160,0,6,,,,,,,,,3,,,49,0
38398,note_on,94,0,1,,,,,,,,,5,,,78,0
38398,note_on,94,0,3,,,,,,,,,0,,,78,0
38400,note_on,64,0,4,,,,,,,,,1,,,80,75
38400,note_on,2,0,1,,,,,,,,,5,,,76,110
38400,note_on,2,0,3,,,,,,,,,0,,,76,108
38432,note_on,32,0,4,,,,,,,,,1,,,80,0
38494,note_on,94,0,1,,,,,,,,,5,,,76,0
38494,note_on,94,0,3,,,,,,,,,0,,,76,0
38496,note_on,128,0,7,,,,,,,,,7,,,44,92
38496,note_on,128,0,6,,,,,,,,,3,,,56,92
38496,note_on,128,0,5,,,,,,,,,2,,,68,92
38496,note_on,64,0,4,,,,,,,,,1,,,84,108
38496,note_on,2,0,3,,,,,,,,,0,,,75,108
38496,note_on,0,0,1,,,,,,,,,5,,,75,110
38496,note_on,2,0,1,,,,,,,,,5,,,72,110
38496,note_on,128,0,2,,,,,,,,,6,,,56,110
38590,note_on,94,0,6,,,,,,,,,3,,,56,0
38590,note_on,94,0,4,,,,,,,,,1,,,84,0
38590,note_on,94,0,7,,,,,,,,,7,,,44,0
38590,note_on,0,0,1,,,,,,,,,5,,,75,0
38590,note_on,94,0,5,,,,,,,,,2,,,68,0
38590,note_on,94,0,2,,,,,,,,,6,,,56,0
38590,note_on,94,0,1,,,,,,,,,5,,,72,0
38590,note_on,94,0,3,,,,,,,,,0,,,75,0
38592,note_on,2,0,5,,,,,,,,,2,,,68,92
38592,note_on,2,0,4,,,,,,,,,1,,,85,108
38592,note_on,2,0,6,,,,,,,,,3,,,61,92
38592,note_on,2,0,7,,,,,,,,,7,,,49,92
38592,note_on,0,0,1,,,,,,,,,5,,,76,110
38592,note_on,2,0,3,,,,,,,,,0,,,76,108
38592,note_on,2,0,2,,,,,,,,,6,,,61,110
38592,note_on,2,0,1,,,,,,,,,5,,,68,110
38686,note_on,94,0,4,,,,,,,,,1,,,85,0
38686,note_on,94,0,6,,,,,,,,,3,,,61,0
38686,note_on,94,0,1,,,,,,,,,5,,,68,0
38686,note_on,0,0,1,,,,,,,,,5,,,76,0
38686,note_on,94,0,5,,,,,,,,,2,,,68,0
38686,note_on,94,0,7,,,,,,,,,7,,,49,0
38686,note_on,94,0,2,,,,,,,,,6,,,61,0
38686,note_on,94,0,3,,,,,,,,,0,,,76,0
38688,note_on,2,0,1,,,,,,,,,5,,,80,110
38688,note_on,2,0,4,,,,,,,,,1,,,73,108
38688,note_on,2,0,7,,,,,,,,,7,,,40,92
38688,note_on,2,0,5,,,,,,,,,2,,,68,92
38688,note_on,2,0,6,,,,,,,,,3,,,52,92
38688,note_on,2,0,3,,,,,,,,,0,,,80,75
38688,note_on,2,0,2,,,,,,,,,6,,,52,110
38720,note_on,32,0,3,,,,,,,,,0,,,80,0
38782,note_on,94,0,6,,,,,,,,,3,,,52,0
38782,note_on,94,0,1,,,,,,,,,5,,,80,0
38782,note_on,94,0,7,,,,,,,,,7,,,40,0
38782,note_on,94,0,5,,,,,,,,,2,,,68,0
38782,note_on,94,0,2,,,,,,,,,6,,,52,0
38784,note_on,2,0,2,,,,,,,,,6,,,49,110
38784,note_on,2,0,7,,,,,,,,,7,,,37,92
38784,note_on,2,0,6,,,,,,,,,3,,,49,92
38784,note_on,2,0,5,,,,,,,,,2,,,64,92
38784,note_on,2,0,1,,,,,,,,,5,,,80,110
38784,note_on,64,0,3,,,,,,,,,0,,,80,75
38816,note_on,32,0,3,,,,,,,,,0,,,80,0
38878,note_on,94,0,1,,,,,,,,,5,,,80,0
38878,note_on,190,0,4,,,,,,,,,1,,,73,0
38880,note_on,64,0,3,,,,,,,,,0,,,80,75
38880,note_on,2,0,1,,,,,,,,,5,,,80,110
38880,note_on,2,0,4,,,,,,,,,1,,,78,108
38912,note_on,32,0,3,,,,,,,,,0,,,80,0
38944,note_on,160,0,2,,,,,,,,,6,,,49,0
38944,note_on,160,0,7,,,,,,,,,7,,,37,0
38944,note_on,160,0,6,,,,,,,,,3,,,49,0
38944,note_on,160,0,5,,,,,,,,,2,,,64,0
38974,note_on,94,0,4,,,,,,,,,1,,,78,0
38974,note_on,94,0,1,,,,,,,,,5,,,80,0
38976,note_on,64,0,3,,,,,,,,,0,,,80,75
38976,note_on,2,0,4,,,,,,,,,1,,,76,108
38976,note_on,2,0,1,,,,,,,,,5,,,80,110
39008,note_on,32,0,3,,,,,,,,,0,,,80,0
39070,note_on,94,0,4,,,,,,,,,1,,,76,0
39070,note_on,94,0,1,,,,,,,,,5,,,80,0
39072,note_on,128,0,2,,,,,,,,,6,,,56,110
39072,note_on,2,0,4,,,,,,,,,1,,,75,108
39072,note_on,2,0,1,,,,,,,,,5,,,75,110
39072,note_on,0,0,1,,,,,,,,,5,,,84,110
39072,note_on,128,0,6,,,,,,,,,3,,,56,92
39072,note_on,128,0,5,,,,,,,,,2,,,68,92
39072,note_on,64,0,3,,,,,,,,,0,,,84,108
39072,note_on,128,0,7,,,,,,,,,7,,,44,92
39166,note_on,94,0,1,,,,,,,,,5,,,75,0
39166,note_on,94,0,2,,,,,,,,,6,,,56,0
39166,note_on,94,0,7,,,,,,,,,7,,,44,0
39166,note_on,94,0,6,,,,,,,,,3,,,56,0
39166,note_on,94,0,5,,,,,,,,,2,,,68,0
39166,note_on,94,0,4,,,,,,,,,1,,,75,0
39166,note_on,0,0,1,,,,,,,,,5,,,84,0
39166,note_on,94,0,3,,,,,,,,,0,,,84,0
39168,note_on,0,0,1,,,,,,,,,5,,,85,110
39168,note_on,2,0,3,,,,,,,,,0,,,85,108
39168,note_on,2,0,2,,,,,,,,,6,,,61,110
39168,note_on,2,0,1,,,,,,,,,5,,,76,110
39168,note_on,2,0,5,,,,,,,,,2,,,68,92
39168,note_on,2,0,7,,,,,,,,,7,,,49,92
39168,note_on,2,0,6,,,,,,,,,3,,,61,92
39168,note_on,2,0,4,,,,,,,,,1,,,76,108
39262,note_on,0,0,1,,,,,,,,,5,,,85,0
39262,note_on,94,0,6,,,,,,,,,3,,,61,0
39262,note_on,94,0,2,,,,,,,,,6,,,61,0
39262,note_on,94,0,7,,,,,,,,,7,,,49,0
39262,note_on,94,0,5,,,,,,,,,2,,,68,0
39262,note_on,94,0,1,,,,,,,,,5,,,76,0
39262,note_on,94,0,4,,,,,,,,,1,,,76,0
39262,note_on,94,0,3,,,,,,,,,0,,,85,0
39264,note_on,2,0,6,,,,,,,,,3,,,52,92
39264,note_on,2,0,7,,,,,,,,,7,,,40,92
39264,note_on,2,0,5,,,,,,,,,2,,,68,92
39264,note_on,2,0,1,,,,,,,,,5,,,73,110
39264,note_on,2,0,3,,,,,,,,,0,,,73,108
39264,note_on,2,0,2,,,,,,,,,6,,,52,110
39264,note_on,2,0,4,,,,,,,,,1,,,80,75
39296,note_on,32,0,4,,,,,,,,,1,,,80,0
39358,note_on,94,0,5,,,,,,,,,2,,,68,0
39358,note_on,94,0,7,,,,,,,,,7,,,40,0
39358,note_on,94,0,6,,,,,,,,,3,,,52,0
39358,note_on,94,0,2,,,,,,,,,6,,,52,0
39360,note_on,2,0,6,,,,,,,,,3,,,49,92
39360,note_on,64,0,4,,,,,,,,,1,,,80,75
39360,note_on,2,0,2,,,,,,,,,6,,,49,110
39360,note_on,2,0,5,,,,,,,,,2,,,64,92
39360,note_on,2,0,7,,,,,,,,,7,,,37,92
39392,note_on,32,0,4,,,,,,,,,1,,,80,0
39454,note_on,190,0,1,,,,,,,,,5,,,73,0
39454,note_on,190,0,3,,,,,,,,,0,,,73,0
39456,note_on,64,0,4,,,,,,,,,1,,,80,75
39456,note_on,2,0,3,,,,,,,,,0,,,78,108
39456,note_on,2,0,1,,,,,,,,,5,,,78,110
39488,note_on,32,0,4,,,,,,,,,1,,,80,0
39520,note_on,160,0,7,,,,,,,,,7,,,37,0
39520,note_on,160,0,5,,,,,,,,,2,,,64,0
39520,note_on,160,0,2,,,,,,,,,6,,,49,0
39520,note_on,160,0,6,,,,,,,,,3,,,49,0
39550,note_on,94,0,3,,,,,,,,,0,,,78,0
39550,note_on,94,0,1,,,,,,,,,5,,,78,0
39552,note_on,2,0,3,,,,,,,,,0,,,76,108
39552,note_on,2,0,1,,,,,,,,,5,,,76,110
39552,note_on,64,0,4,,,,,,,,,1,,,80,75
39584,note_on,32,0,4,,,,,,,,,1,,,80,0
39646,note_on,94,0,1,,,,,,,,,5,,,76,0
39646,note_on,94,0,3,,,,,,,,,0,,,76,0
39648,note_on,2,0,1,,,,,,,,,5,,,72,110
39648,note_on,0,0,1,,,,,,,,,5,,,75,110
39648,note_on,2,0,3,,,,,,,,,0,,,75,108
39648,note_on,128,0,7,,,,,,,,,7,,,44,92
39648,note_on,128,0,6,,,,,,,,,3,,,56,92
39648,note_on,64,0,4,,,,,,,,,1,,,84,75
39648,note_on,128,0,2,,,,,,,,,6,,,56,110
39648,note_on,128,0,5,,,,,,,,,2,,,68,92
39742,note_on,94,0,6,,,,,,,,,3,,,56,0
39742,note_on,94,0,7,,,,,,,,,7,,,44,0
39742,note_on,94,0,4,,,,,,,,,1,,,84,0
39742,note_on,94,0,3,,,,,,,,,0,,,75,0
39742,note_on,94,0,5,,,,,,,,,2,,,68,0
39742,note_on,94,0,1,,,,,,,,,5,,,72,0
39742,note_on,0,0,1,,,,,,,,,5,,,75,0
39742,note_on,94,0,2,,,,,,,,,6,,,56,0
39744,note_on,2,0,1,,,,,,,,,5,,,68,110
39744,note_on,2,0,2,,,,,,,,,6,,,61,110
39744,note_on,0,0,1,,,,,,,,,5,,,76,110
39744,note_on,2,0,7,,,,,,,,,7,,,49,92
39744,note_on,2,0,4,,,,,,,,,1,,,85,75
39744,note_on,2,0,5,,,,,,,,,2,,,68,92
39744,note_on,2,0,3,,,,,,,,,0,,,76,108
39744,note_on,2,0,6,,,,,,,,,3,,,61,92
39838,note_on,94,0,6,,,,,,,,,3,,,61,0
39838,note_on,94,0,5,,,,,,,,,2,,,68,0
39838,note_on,94,0,2,,,,,,,,,6,,,61,0
39838,note_on,94,0,7,,,,,,,,,7,,,49,0
39838,note_on,0,0,1,,,,,,,,,5,,,76,0
39838,note_on,94,0,3,,,,,,,,,0,,,76,0
39838,note_on,94,0,1,,,,,,,,,5,,,68,0
39838,note_on,94,0,4,,,,,,,,,1,,,85,0
39840,note_on,2,0,6,,,,,,,,,3,,,52,92
39840,note_on,2,0,3,,,,,,,,,0,,,80,108
39840,note_on,2,0,2,,,,,,,,,6,,,52,110
39840,note_on,2,0,4,,,,,,,,,1,,,73,75
39840,note_on,2,0,7,,,,,,,,,7,,,40,92
39840,note_on,2,0,5,,,,,,,,,2,,,68,92
39840,note_on,2,0,1,,,,,,,,,5,,,80,110
39872,note_on,32,0,3,,,,,,,,,0,,,80,0
39934,note_on,94,0,6,,,,,,,,,3,,,52,0
39934,note_on,94,0,7,,,,,,,,,7,,,40,0
39934,note_on,94,0,2,,,,,,,,,6,,,52,0
39934,note_on,94,0,5,,,,,,,,,2,,,68,0
39934,note_on,94,0,1,,,,,,,,,5,,,80,0
39936,note_on,2,0,1,,,,,,,,,5,,,80,110
39936,note_on,2,0,5,,,,,,,,,2,,,64,92
39936,note_on,2,0,2,,,,,,,,,6,,,49,110
39936,note_on,2,0,6,,,,,,,,,3,,,49,92
39936,note_on,2,0,7,,,,,,,,,7,,,37,92
39936,note_on,64,0,3,,,,,,,,,0,,,80,108
39968,note_on,32,0,3,,,,,,,,,0,,,80,0
40030,note_on,190,0,4,,,,,,,,,1,,,73,0
40030,note_on,94,0,1,,,,,,,,,5,,,80,0
40032,note_on,2,0,4,,,,,,,,,1,,,78,75
40032,note_on,64,0,3,,,,,,,,,0,,,80,108
40032,note_on,2,0,1,,,,,,,,,5,,,80,110
40064,note_on,32,0,3,,,,,,,,,0,,,80,0
40096,note_on,160,0,2,,,,,,,,,6,,,49,0
40096,note_on,160,0,6,,,,,,,,,3,,,49,0
40096,note_on,160,0,7,,,,,,,,,7,,,37,0
40096,note_on,160,0,5,,,,,,,,,2,,,64,0
40126,note_on,94,0,4,,,,,,,,,1,,,78,0
40126,note_on,94,0,1,,,,,,,,,5,,,80,0
40128,note_on,2,0,4,,,,,,,,,1,,,76,75
40128,note_on,64,0,3,,,,,,,,,0,,,80,108
40128,note_on,2,0,1,,,,,,,,,5,,,80,110
40160,note_on,32,0,3,,,,,,,,,0,,,80,0
40222,note_on,94,0,1,,,,,,,,,5,,,80,0
40222,note_on,94,0,4,,,,,,,,,1,,,76,0
40224,note_on,2,0,1,,,,,,,,,5,,,75,110
40224,note_on,64,0,3,,,,,,,,,0,,,84,108
40224,note_on,128,0,7,,,,,,,,,7,,,44,92
40224,note_on,128,0,5,,,,,,,,,2,,,68,92
40224,note_on,0,0,1,,,,,,,,,5,,,84,110
40224,note_on,128,0,2,,,,,,,,,6,,,56,110
40224,note_on,128,0,6,,,,,,,,,3,,,56,92
40224,note_on,2,0,4,,,,,,,,,1,,,75,75
40318,note_on,94,0,6,,,,,,,,,3,,,56,0
40318,note_on,94,0,2,,,,,,,,,6,,,56,0
40318,note_on,94,0,1,,,,,,,,,5,,,75,0
40318,note_on,94,0,7,,,,,,,,,7,,,44,0
40318,note_on,94,0,5,,,,,,,,,2,,,68,0
40318,note_on,94,0,3,,,,,,,,,0,,,84,0
40318,note_on,0,0,1,,,,,,,,,5,,,84,0
40318,note_on,94,0,4,,,,,,,,,1,,,75,0
40320,note_on,2,0,5,,,,,,,,,2,,,68,92
40320,note_on,2,0,7,,,,,,,,,7,,,49,92
40320,note_on,2,0,4,,,,,,,,,1,,,76,75
40320,note_on,2,0,3,,,,,,,,,0,,,85,108
40320,note_on,2,0,2,,,,,,,,,6,,,61,110
40320,note_on,2,0,6,,,,,,,,,3,,,61,92
40320,note_on,2,0,1,,,,,,,,,5,,,85,110
40414,note_on,94,0,4,,,,,,,,,1,,,76,0
40414,note_on,94,0,3,,,,,,,,,0,,,85,0
40414,note_on,94,0,1,,,,,,,,,5,,,85,0
40414,note_on,94,0,5,,,,,,,,,2,,,68,0
40416,note_on,2,0,4,,,,,,,,,1,,,80,75
40416,note_on,2,0,1,,,,,,,,,5,,,76,110
40416,note_on,2,0,3,,,,,,,,,0,,,76,108
40416,note_on,2,0,5,,,,,,,,,2,,,68,92
40448,note_on,32,0,4,,,,,,,,,1,,,80,0
40480,note_on,160,0,2,,,,,,,,,6,,,61,0
40480,note_on,160,0,6,,,,,,,,,3,,,61,0
40480,note_on,160,0,7,,,,,,,,,7,,,49,0
40510,note_on,94,0,1,,,,,,,,,5,,,76,0
40510,note_on,94,0,5,,,,,,,,,2,,,68,0
40510,note_on,94,0,3,,,,,,,,,0,,,76,0
40512,note_on,32,0,6,,,,,,,,,3,,,56,92
40512,note_on,2,0,1,,,,,,,,,5,,,75,110
40512,note_on,32,0,7,,,,,,,,,7,,,44,92
40512,note_on,2,0,3,,,,,,,,,0,,,75,108
40512,note_on,32,0,2,,,,,,,,,6,,,56,110
40512,note_on,64,0,4,,,,,,,,,1,,,80,75
40512,note_on,2,0,5,,,,,,,,,2,,,64,92
40544,note_on,32,0,4,,,,,,,,,1,,,80,0
40606,note_on,94,0,1,,,,,,,,,5,,,75,0
40606,note_on,94,0,3,,,,,,,,,0,,,75,0
40608,note_on,2,0,1,,,,,,,,,5,,,85,110
40608,note_on,2,0,3,,,,,,,,,0,,,85,108
40608,note_on,64,0,4,,,,,,,,,1,,,80,75
40640,note_on,32,0,4,,,,,,,,,1,,,80,0
40672,note_on,160,0,5,,,,,,,,,2,,,64,0
40672,note_on,160,0,2,,,,,,,,,6,,,56,0
40672,note_on,160,0,7,,,,,,,,,7,,,44,0
40672,note_on,160,0,6,,,,,,,,,3,,,56,0
40702,note_on,94,0,3,,,,,,,,,0,,,85,0
40702,note_on,94,0,1,,,,,,,,,5,,,85,0
40704,note_on,32,0,7,,,,,,,,,7,,,32,92
40704,note_on,2,0,3,,,,,,,,,0,,,75,108
40704,note_on,32,0,6,,,,,,,,,3,,,44,92
40704,note_on,64,0,4,,,,,,,,,1,,,80,75
40704,note_on,32,0,2,,,,,,,,,6,,,44,110
40704,note_on,2,0,1,,,,,,,,,5,,,75,110
40736,note_on,32,0,4,,,,,,,,,1,,,80,0
40798,note_on,94,0,3,,,,,,,,,0,,,75,0
40798,note_on,94,0,1,,,,,,,,,5,,,75,0
40800,note_on,2,0,1,,,,,,,,,5,,,75,110
40800,note_on,0,0,1,,,,,,,,,5,,,84,110
40800,note_on,64,0,4,,,,,,,,,1,,,80,75
40800,note_on,128,0,5,,,,,,,,,2,,,63,92
40800,note_on,2,0,3,,,,,,,,,0,,,84,108
40822,note_on,22,0,3,,,,,,,,,0,,,84,0
40822,note_on,22,0,1,,,,,,,,,5,,,84,0
40824,note_on,2,0,3,,,,,,,,,0,,,87,108
40824,note_on,2,0,1,,,,,,,,,5,,,87,110
40832,note_on,32,0,4,,,,,,,,,1,,,80,0
40846,note_on,22,0,1,,,,,,,,,5,,,87,0
40846,note_on,22,0,3,,,,,,,,,0,,,87,0
40848,note_on,2,0,1,,,,,,,,,5,,,84,110
40848,note_on,2,0,3,,,,,,,,,0,,,84,108
40864,note_on,160,0,7,,,,,,,,,7,,,32,0
40864,note_on,160,0,6,,,,,,,,,3,,,44,0
40864,note_on,160,0,2,,,,,,,,,6,,,44,0
40894,note_on,94,0,5,,,,,,,,,2,,,63,0
40894,note_on,46,0,3,,,,,,,,,0,,,84,0
40894,note_on,46,0,1,,,,,,,,,5,,,75,0
40894,note_on,0,0,1,,,,,,,,,5,,,84,0
40896,note_on,2,0,1,,,,,,,,,5,,,76,110
40896,note_on,0,0,1,,,,,,,,,5,,,85,110
40896,note_on,32,0,2,,,,,,,,,6,,,49,110
40896,note_on,64,0,4,,,,,,,,,1,,,80,75
40896,note_on,32,0,7,,,,,,,,,7,,,37,92
40896,note_on,2,0,5,,,,,,,,,2,,,64,92
40896,note_on,2,0,3,,,,,,,,,0,,,85,108
40896,note_on,32,0,6,,,,,,,,,3,,,49,60
40990,note_on,94,0,2,,,,,,,,,6,,,49,0
40990,note_on,0,0,1,,,,,,,,,5,,,85,0
40990,note_on,94,0,1,,,,,,,,,5,,,76,0
40992,note_on,2,0,2,,,,,,,,,6,,,61,110
40992,note_on,2,0,1,,,,,,,,,5,,,80,110
41056,note_on,160,0,4,,,,,,,,,1,,,80,0
41056,note_on,160,0,7,,,,,,,,,7,,,37,0
41056,note_on,160,0,5,,,,,,,,,2,,,64,0
41056,note_on,160,0,3,,,,,,,,,0,,,85,0
41056,note_on,160,0,6,,,,,,,,,3,,,49,0
41086,note_on,94,0,1,,,,,,,,,5,,,80,0
41086,note_on,94,0,2,,,,,,,,,6,,,61,0
41088,note_on,2,0,2,,,,,,,,,6,,,66,110
41088,note_on,2,0,1,,,,,,,,,5,,,81,110
41134,note_on,46,0,1,,,,,,,,,5,,,81,0
41134,note_on,46,0,2,,,,,,,,,6,,,66,0
41136,note_on,2,0,1,,,,,,,,,5,,,80,110
41136,note_on,2,0,2,,,,,,,,,6,,,64,110
41182,note_on,46,0,2,,,,,,,,,6,,,64,0
41182,note_on,46,0,1,,,,,,,,,5,,,80,0
41184,note_on,2,0,2,,,,,,,,,6,,,66,110
41184,note_on,2,0,1,,,,,,,,,5,,,81,110
41230,note_on,46,0,1,,,,,,,,,5,,,81,0
41230,note_on,46,0,2,,,,,,,,,6,,,66,0
41232,note_on,2,0,2,,,,,,,,,6,,,64,110
41232,note_on,2,0,1,,,,,,,,,5,,,80,110
41278,note_on,46,0,1,,,,,,,,,5,,,80,0
41278,note_on,46,0,2,,,,,,,,,6,,,64,0
41280,note_on,2,0,2,,,,,,,,,6,,,66,110
41280,note_on,224,0,6,,,,,,,,,3,,,52,60
41280,note_on,2,0,1,,,,,,,,,5,,,81,110
41326,note_on,46,0,2,,,,,,,,,6,,,66,0
41326,note_on,46,0,1,,,,,,,,,5,,,81,0
41328,note_on,2,0,2,,,,,,,,,6,,,64,110
41328,note_on,2,0,1,,,,,,,,,5,,,80,110
41374,note_on,46,0,1,,,,,,,,,5,,,80,0
41374,note_on,46,0,2,,,,,,,,,6,,,64,0
41376,note_on,2,0,1,,,,,,,,,5,,,81,110
41376,note_on,2,0,2,,,,,,,,,6,,,66,110
41422,note_on,46,0,1,,,,,,,,,5,,,81,0
41422,note_on,46,0,2,,,,,,,,,6,,,66,0
41424,note_on,2,0,2,,,,,,,,,6,,,64,110
41424,note_on,2,0,1,,,,,,,,,5,,,80,110
41440,note_on,160,0,6,,,,,,,,,3,,,52,0
41470,note_on,46,0,2,,,,,,,,,6,,,64,0
41470,note_on,46,0,1,,,,,,,,,5,,,80,0
41472,note_on,2,0,2,,,,,,,,,6,,,63,110
41472,note_on,32,0,6,,,,,,,,,3,,,54,60
41472,note_on,2,0,1,,,,,,,,,5,,,78,110
41566,note_on,94,0,2,,,,,,,,,6,,,63,0
41566,note_on,94,0,1,,,,,,,,,5,,,78,0
41568,note_on,2,0,1,,,,,,,,,5,,,78,110
41568,note_on,2,0,2,,,,,,,,,6,,,63,110
41632,note_on,160,0,6,,,,,,,,,3,,,54,0
41662,note_on,94,0,2,,,,,,,,,6,,,63,0
41662,note_on,94,0,1,,,,,,,,,5,,,78,0
41664,note_on,2,0,2,,,,,,,,,6,,,64,110
41664,note_on,2,0,1,,,,,,,,,5,,,80,110
41664,note_on,32,0,6,,,,,,,,,3,,,48,60
41710,note_on,46,0,2,,,,,,,,,6,,,64,0
41710,note_on,46,0,1,,,,,,,,,5,,,80,0
41712,note_on,2,0,2,,,,,,,,,6,,,63,110
41712,note_on,2,0,1,,,,,,,,,5,,,78,110
41758,note_on,46,0,2,,,,,,,,,6,,,63,0
41758,note_on,46,0,1,,,,,,,,,5,,,78,0
41760,note_on,2,0,1,,,,,,,,,5,,,80,110
41760,note_on,2,0,2,,,,,,,,,6,,,64,110
41806,note_on,46,0,2,,,,,,,,,6,,,64,0
41806,note_on,46,0,1,,,,,,,,,5,,,80,0
41808,note_on,2,0,2,,,,,,,,,6,,,63,110
41808,note_on,2,0,1,,,,,,,,,5,,,78,110
41854,note_on,46,0,1,,,,,,,,,5,,,78,0
41854,note_on,46,0,2,,,,,,,,,6,,,63,0
41856,note_on,2,0,1,,,,,,,,,5,,,80,110
41856,note_on,2,0,2,,,,,,,,,6,,,64,110
41902,note_on,46,0,2,,,,,,,,,6,,,64,0
41902,note_on,46,0,1,,,,,,,,,5,,,80,0
41904,note_on,2,0,2,,,,,,,,,6,,,63,110
41904,note_on,2,0,1,,,,,,,,,5,,,78,110
41950,note_on,46,0,2,,,,,,,,,6,,,63,0
41950,note_on,46,0,1,,,,,,,,,5,,,78,0
41952,note_on,2,0,2,,,,,,,,,6,,,64,110
41952,note_on,2,0,1,,,,,,,,,5,,,80,110
41998,note_on,46,0,2,,,,,,,,,6,,,64,0
41998,note_on,46,0,1,,,,,,,,,5,,,80,0
42000,note_on,336,0,6,,,,,,,,,3,,,48,0
42000,note_on,2,0,1,,,,,,,,,5,,,78,110
42000,note_on,2,0,2,,,,,,,,,6,,,63,110
42046,note_on,46,0,1,,,,,,,,,5,,,78,0
42046,note_on,46,0,2,,,,,,,,,6,,,63,0
42048,note_on,2,0,2,,,,,,,,,6,,,61,110
42048,note_on,2,0,1,,,,,,,,,5,,,76,110
42048,note_on,48,0,6,,,,,,,,,3,,,49,60
42142,note_on,94,0,1,,,,,,,,,5,,,76,0
42142,note_on,94,0,2,,,,,,,,,6,,,61,0
42144,note_on,2,0,1,,,,,,,,,5,,,76,110
42144,note_on,2,0,2,,,,,,,,,6,,,61,110
42208,note_on,160,0,6,,,,,,,,,3,,,49,0
42238,note_on,94,0,1,,,,,,,,,5,,,76,0
42238,note_on,94,0,2,,,,,,,,,6,,,61,0
42240,note_on,2,0,1,,,,,,,,,5,,,78,110
42240,note_on,2,0,2,,,,,,,,,6,,,63,110
42240,note_on,32,0,6,,,,,,,,,3,,,54,60
42286,note_on,46,0,1,,,,,,,,,5,,,78,0
42286,note_on,46,0,2,,,,,,,,,6,,,63,0
42288,note_on,2,0,2,,,,,,,,,6,,,61,110
42288,note_on,2,0,1,,,,,,,,,5,,,76,110
42334,note_on,46,0,2,,,,,,,,,6,,,61,0
42334,note_on,46,0,1,,,,,,,,,5,,,76,0
42336,note_on,2,0,2,,,,,,,,,6,,,63,110
42336,note_on,2,0,1,,,,,,,,,5,,,78,110
42382,note_on,46,0,2,,,,,,,,,6,,,63,0
42382,note_on,46,0,1,,,,,,,,,5,,,78,0
42384,note_on,2,0,2,,,,,,,,,6,,,61,110
42384,note_on,2,0,1,,,,,,,,,5,,,76,110
42430,note_on,46,0,1,,,,,,,,,5,,,76,0
42430,note_on,46,0,2,,,,,,,,,6,,,61,0
42432,note_on,2,0,2,,,,,,,,,6,,,63,110
42432,note_on,2,0,1,,,,,,,,,5,,,78,110
42478,note_on,46,0,1,,,,,,,,,5,,,78,0
42478,note_on,46,0,2,,,,,,,,,6,,,63,0
42480,note_on,2,0,1,,,,,,,,,5,,,76,110
42480,note_on,2,0,2,,,,,,,,,6,,,61,110
42526,note_on,46,0,1,,,,,,,,,5,,,76,0
42526,note_on,46,0,2,,,,,,,,,6,,,61,0
42528,note_on,2,0,1,,,,,,,,,5,,,78,110
42528,note_on,2,0,2,,,,,,,,,6,,,63,110
42574,note_on,46,0,2,,,,,,,,,6,,,63,0
42574,note_on,46,0,1,,,,,,,,,5,,,78,0
42576,note_on,2,0,1,,,,,,,,,5,,,76,110
42576,note_on,2,0,2,,,,,,,,,6,,,61,110
42576,note_on,336,0,6,,,,,,,,,3,,,54,0
42622,note_on,46,0,2,,,,,,,,,6,,,61,0
42622,note_on,46,0,1,,,,,,,,,5,,,76,0
42624,note_on,2,0,2,,,,,,,,,6,,,60,110
42624,note_on,48,0,6,,,,,,,,,3,,,56,60
42624,note_on,2,0,1,,,,,,,,,5,,,75,110
42718,note_on,94,0,2,,,,,,,,,6,,,60,0
42718,note_on,94,0,1,,,,,,,,,5,,,75,0
42720,note_on,2,0,2,,,,,,,,,6,,,66,110
42720,note_on,2,0,1,,,,,,,,,5,,,81,110
42720,set_tempo,42720,1,0,483870,,,,,,,,,,,,
42814,note_on,94,0,2,,,,,,,,,6,,,66,0
42814,note_on,94,0,1,,,,,,,,,5,,,81,0
42816,note_on,2,0,2,,,,,,,,,6,,,64,110
42816,note_on,2,0,1,,,,,,,,,5,,,80,110
42816,set_tempo,96,1,0,487804,,,,,,,,,,,,
42910,note_on,94,0,2,,,,,,,,,6,,,64,0
42910,note_on,94,0,1,,,,,,,,,5,,,80,0
42912,set_tempo,96,1,0,491803,,,,,,,,,,,,
42912,note_on,2,0,1,,,,,,,,,5,,,78,110
42912,note_on,2,0,2,,,,,,,,,6,,,63,110
43006,note_on,94,0,2,,,,,,,,,6,,,63,0
43006,note_on,94,0,1,,,,,,,,,5,,,78,0
43008,set_tempo,96,1,0,495867,,,,,,,,,,,,
43008,note_on,2,0,2,,,,,,,,,6,,,61,110
43008,note_on,2,0,1,,,,,,,,,5,,,76,110
43102,note_on,94,0,1,,,,,,,,,5,,,76,0
43102,note_on,94,0,2,,,,,,,,,6,,,61,0
43104,note_on,2,0,2,,,,,,,,,6,,,60,110
43104,note_on,2,0,1,,,,,,,,,5,,,75,110
43104,set_tempo,96,1,0,491803,,,,,,,,,,,,
43152,note_on,528,0,6,,,,,,,,,3,,,56,0
43198,note_on,94,0,1,,,,,,,,,5,,,75,0
43198,note_on,94,0,2,,,,,,,,,6,,,60,0
43200,note_on,2,0,1,,,,,,,,,5,,,76,110
43200,note_on,2,0,2,,,,,,,,,6,,,61,110
43200,note_on,48,0,6,,,,,,,,,3,,,49,60
43294,note_on,94,0,2,,,,,,,,,6,,,61,0
43294,note_on,94,0,1,,,,,,,,,5,,,76,0
43296,note_on,2,0,2,,,,,,,,,6,,,64,110
43296,note_on,2,0,1,,,,,,,,,5,,,80,110
43296,set_tempo,192,1,0,487804,,,,,,,,,,,,
43390,note_on,94,0,2,,,,,,,,,6,,,64,0
43390,note_on,94,0,1,,,,,,,,,5,,,80,0
43392,note_on,2,0,1,,,,,,,,,5,,,81,110
43392,set_tempo,96,1,0,483870,,,,,,,,,,,,
43392,note_on,2,0,2,,,,,,,,,6,,,66,110
43438,note_on,46,0,2,,,,,,,,,6,,,66,0
43438,note_on,46,0,1,,,,,,,,,5,,,81,0
43440,note_on,2,0,1,,,,,,,,,5,,,80,110
43440,note_on,2,0,2,,,,,,,,,6,,,64,110
43486,note_on,46,0,1,,,,,,,,,5,,,80,0
43486,note_on,46,0,2,,,,,,,,,6,,,64,0
43488,note_on,2,0,2,,,,,,,,,6,,,66,110
43488,note_on,2,0,1,,,,,,,,,5,,,81,110
43534,note_on,46,0,2,,,,,,,,,6,,,66,0
43534,note_on,46,0,1,,,,,,,,,5,,,81,0
43536,note_on,2,0,1,,,,,,,,,5,,,80,110
43536,note_on,2,0,2,,,,,,,,,6,,,64,110
43536,note_on,336,0,6,,,,,,,,,3,,,49,0
43582,note_on,46,0,2,,,,,,,,,6,,,64,0
43582,note_on,46,0,1,,,,,,,,,5,,,80,0
43584,set_tempo,192,1,0,480000,,,,,,,,,,,,
43584,note_on,2,0,2,,,,,,,,,6,,,66,110
43584,note_on,2,0,1,,,,,,,,,5,,,81,110
43584,note_on,48,0,6,,,,,,,,,3,,,52,60
43630,note_on,46,0,1,,,,,,,,,5,,,81,0
43630,note_on,46,0,2,,,,,,,,,6,,,66,0
43632,note_on,2,0,1,,,,,,,,,5,,,80,110
43632,note_on,2,0,2,,,,,,,,,6,,,64,110
43678,note_on,46,0,2,,,,,,,,,6,,,64,0
43678,note_on,46,0,1,,,,,,,,,5,,,80,0
43680,note_on,2,0,2,,,,,,,,,6,,,66,110
43680,note_on,2,0,1,,,,,,,,,5,,,81,110
43726,note_on,46,0,1,,,,,,,,,5,,,81,0
43726,note_on,46,0,2,,,,,,,,,6,,,66,0
43728,note_on,2,0,1,,,,,,,,,5,,,80,110
43728,note_on,2,0,2,,,,,,,,,6,,,64,110
43744,note_on,160,0,6,,,,,,,,,3,,,52,0
43774,note_on,46,0,2,,,,,,,,,6,,,64,0
43774,note_on,46,0,1,,,,,,,,,5,,,80,0
43776,note_on,32,0,6,,,,,,,,,3,,,54,60
43776,note_on,2,0,2,,,,,,,,,6,,,63,110
43776,note_on,2,0,1,,,,,,,,,5,,,78,110
43870,note_on,94,0,2,,,,,,,,,6,,,63,0
43870,note_on,94,0,1,,,,,,,,,5,,,78,0
43872,note_on,2,0,1,,,,,,,,,5,,,78,110
43872,note_on,2,0,2,,,,,,,,,6,,,63,110
43936,note_on,160,0,6,,,,,,,,,3,,,54,0
43966,note_on,94,0,2,,,,,,,,,6,,,63,0
43966,note_on,94,0,1,,,,,,,,,5,,,78,0
43968,note_on,32,0,6,,,,,,,,,3,,,48,60
43968,note_on,2,0,2,,,,,,,,,6,,,64,110
43968,note_on,2,0,1,,,,,,,,,5,,,80,110
44014,note_on,46,0,1,,,,,,,,,5,,,80,0
44014,note_on,46,0,2,,,,,,,,,6,,,64,0
44016,note_on,2,0,1,,,,,,,,,5,,,78,110
44016,note_on,2,0,2,,,,,,,,,6,,,63,110
44062,note_on,46,0,1,,,,,,,,,5,,,78,0
44062,note_on,46,0,2,,,,,,,,,6,,,63,0
44064,note_on,2,0,2,,,,,,,,,6,,,64,110
44064,note_on,2,0,1,,,,,,,,,5,,,80,110
44110,note_on,46,0,2,,,,,,,,,6,,,64,0
44110,note_on,46,0,1,,,,,,,,,5,,,80,0
44112,note_on,2,0,2,,,,,,,,,6,,,63,110
44112,note_on,2,0,1,,,,,,,,,5,,,78,110
44158,note_on,46,0,2,,,,,,,,,6,,,63,0
44158,note_on,46,0,1,,,,,,,,,5,,,78,0
44160,note_on,2,0,1,,,,,,,,,5,,,80,110
44160,note_on,2,0,2,,,,,,,,,6,,,64,110
44206,note_on,46,0,2,,,,,,,,,6,,,64,0
44206,note_on,46,0,1,,,,,,,,,5,,,80,0
44208,note_on,2,0,2,,,,,,,,,6,,,63,110
44208,note_on,2,0,1,,,,,,,,,5,,,78,110
44254,note_on,46,0,2,,,,,,,,,6,,,63,0
44254,note_on,46,0,1,,,,,,,,,5,,,78,0
44256,note_on,2,0,1,,,,,,,,,5,,,80,110
44256,note_on,2,0,2,,,,,,,,,6,,,64,110
44302,note_on,46,0,1,,,,,,,,,5,,,80,0
44302,note_on,46,0,2,,,,,,,,,6,,,64,0
44304,note_on,336,0,6,,,,,,,,,3,,,48,0
44304,note_on,2,0,2,,,,,,,,,6,,,63,110
44304,note_on,2,0,1,,,,,,,,,5,,,78,110
44350,note_on,46,0,2,,,,,,,,,6,,,63,0
44350,note_on,46,0,1,,,,,,,,,5,,,78,0
44352,note_on,2,0,2,,,,,,,,,6,,,61,110
44352,note_on,48,0,6,,,,,,,,,3,,,49,60
44352,note_on,2,0,1,,,,,,,,,5,,,76,110
44446,note_on,94,0,2,,,,,,,,,6,,,61,0
44446,note_on,94,0,1,,,,,,,,,5,,,76,0
44448,note_on,2,0,1,,,,,,,,,5,,,76,110
44448,note_on,2,0,2,,,,,,,,,6,,,61,110
44512,note_on,160,0,6,,,,,,,,,3,,,49,0
44542,note_on,94,0,2,,,,,,,,,6,,,61,0
44542,note_on,94,0,1,,,,,,,,,5,,,76,0
44544,note_on,2,0,2,,,,,,,,,6,,,63,110
44544,note_on,32,0,6,,,,,,,,,3,,,54,60
44544,note_on,2,0,1,,,,,,,,,5,,,78,110
44590,note_on,46,0,1,,,,,,,,,5,,,78,0
44590,note_on,46,0,2,,,,,,,,,6,,,63,0
44592,note_on,2,0,2,,,,,,,,,6,,,61,110
44592,note_on,2,0,1,,,,,,,,,5,,,76,110
44638,note_on,46,0,1,,,,,,,,,5,,,76,0
44638,note_on,46,0,2,,,,,,,,,6,,,61,0
44640,note_on,2,0,1,,,,,,,,,5,,,78,110
44640,note_on,2,0,2,,,,,,,,,6,,,63,110
44686,note_on,46,0,2,,,,,,,,,6,,,63,0
44686,note_on,46,0,1,,,,,,,,,5,,,78,0
44688,note_on,2,0,1,,,,,,,,,5,,,76,110
44688,note_on,2,0,2,,,,,,,,,6,,,61,110
44734,note_on,46,0,1,,,,,,,,,5,,,76,0
44734,note_on,46,0,2,,,,,,,,,6,,,61,0
44736,note_on,2,0,2,,,,,,,,,6,,,63,110
44736,note_on,2,0,1,,,,,,,,,5,,,78,110
44782,note_on,46,0,2,,,,,,,,,6,,,63,0
44782,note_on,46,0,1,,,,,,,,,5,,,78,0
44784,note_on,2,0,1,,,,,,,,,5,,,76,110
44784,note_on,2,0,2,,,,,,,,,6,,,61,110
44830,note_on,46,0,2,,,,,,,,,6,,,61,0
44830,note_on,46,0,1,,,,,,,,,5,,,76,0
44832,note_on,2,0,2,,,,,,,,,6,,,63,110
44832,note_on,2,0,1,,,,,,,,,5,,,78,110
44878,note_on,46,0,2,,,,,,,,,6,,,63,0
44878,note_on,46,0,1,,,,,,,,,5,,,78,0
44880,note_on,336,0,6,,,,,,,,,3,,,54,0
44880,note_on,2,0,2,,,,,,,,,6,,,61,110
44880,note_on,2,0,1,,,,,,,,,5,,,76,110
44926,note_on,46,0,2,,,,,,,,,6,,,61,0
44926,note_on,46,0,1,,,,,,,,,5,,,76,0
44928,note_on,2,0,1,,,,,,,,,5,,,75,110
44928,note_on,48,0,6,,,,,,,,,3,,,56,60
44928,note_on,2,0,2,,,,,,,,,6,,,60,110
44974,note_on,46,0,1,,,,,,,,,5,,,75,0
44976,note_on,2,0,1,,,,,,,,,5,,,72,110
45022,note_on,46,0,1,,,,,,,,,5,,,72,0
45022,note_on,94,0,2,,,,,,,,,6,,,60,0
45024,note_on,2,0,1,,,,,,,,,5,,,73,110
45024,note_on,2,0,2,,,,,,,,,6,,,56,110
45070,note_on,46,0,1,,,,,,,,,5,,,73,0
45072,note_on,2,0,1,,,,,,,,,5,,,75,110
45088,note_on,160,0,6,,,,,,,,,3,,,56,0
45118,note_on,46,0,1,,,,,,,,,5,,,75,0
45118,note_on,94,0,2,,,,,,,,,6,,,56,0
45120,note_on,0,0,2,,,,,,,,,6,,,63,110
45120,note_on,0,0,2,,,,,,,,,6,,,60,110
45120,note_on,0,0,2,,,,,,,,,6,,,56,110
45120,note_on,2,0,2,,,,,,,,,6,,,54,110
45120,note_on,2,0,1,,,,,,,,,5,,,75,110
45166,note_on,46,0,1,,,,,,,,,5,,,75,0
45168,note_on,2,0,1,,,,,,,,,5,,,72,110
45214,note_on,46,0,1,,,,,,,,,5,,,72,0
45216,note_on,2,0,1,,,,,,,,,5,,,73,110
45262,note_on,46,0,1,,,,,,,,,5,,,73,0
45264,note_on,2,0,1,,,,,,,,,5,,,75,110
45310,note_on,46,0,1,,,,,,,,,5,,,75,0
45312,note_on,2,0,1,,,,,,,,,5,,,75,110
45358,note_on,46,0,1,,,,,,,,,5,,,75,0
45360,note_on,2,0,1,,,,,,,,,5,,,72,110
45406,note_on,46,0,1,,,,,,,,,5,,,72,0
45408,note_on,2,0,1,,,,,,,,,5,,,73,110
45454,note_on,46,0,1,,,,,,,,,5,,,73,0
45456,note_on,336,0,2,,,,,,,,,6,,,54,0
45456,note_on,0,0,2,,,,,,,,,6,,,56,0
45456,note_on,0,0,2,,,,,,,,,6,,,63,0
45456,note_on,0,0,2,,,,,,,,,6,,,60,0
45456,note_on,2,0,1,,,,,,,,,5,,,75,110
45502,note_on,46,0,1,,,,,,,,,5,,,75,0
45504,note_on,2,0,1,,,,,,,,,5,,,76,110
45504,note_on,0,0,2,,,,,,,,,6,,,61,110
45504,note_on,0,0,2,,,,,,,,,6,,,56,110
45504,note_on,48,0,2,,,,,,,,,6,,,52,110
45550,note_on,46,0,1,,,,,,,,,5,,,76,0
45552,note_on,2,0,1,,,,,,,,,5,,,73,110
45598,note_on,46,0,1,,,,,,,,,5,,,73,0
45600,note_on,2,0,1,,,,,,,,,5,,,75,110
45646,note_on,46,0,1,,,,,,,,,5,,,75,0
45648,note_on,2,0,1,,,,,,,,,5,,,76,110
45664,note_on,0,0,2,,,,,,,,,6,,,61,0
45664,note_on,0,0,2,,,,,,,,,6,,,56,0
45664,note_on,160,0,2,,,,,,,,,6,,,52,0
45694,note_on,46,0,1,,,,,,,,,5,,,76,0
45696,note_on,32,0,2,,,,,,,,,6,,,49,110
45696,note_on,2,0,1,,,,,,,,,5,,,76,110
45742,note_on,46,0,1,,,,,,,,,5,,,76,0
45744,note_on,2,0,1,,,,,,,,,5,,,73,110
45790,note_on,46,0,1,,,,,,,,,5,,,73,0
45792,note_on,2,0,1,,,,,,,,,5,,,75,110
45838,note_on,46,0,1,,,,,,,,,5,,,75,0
45840,note_on,2,0,1,,,,,,,,,5,,,76,110
45856,note_on,160,0,2,,,,,,,,,6,,,49,0
45886,note_on,46,0,1,,,,,,,,,5,,,76,0
45888,note_on,2,0,1,,,,,,,,,5,,,76,110
45888,note_on,32,0,2,,,,,,,,,6,,,56,110
45934,note_on,46,0,1,,,,,,,,,5,,,76,0
45936,note_on,2,0,1,,,,,,,,,5,,,73,110
45982,note_on,46,0,1,,,,,,,,,5,,,73,0
45984,note_on,2,0,1,,,,,,,,,5,,,75,110
46030,note_on,46,0,1,,,,,,,,,5,,,75,0
46032,note_on,2,0,1,,,,,,,,,5,,,77,110
46048,note_on,160,0,2,,,,,,,,,6,,,56,0
46078,note_on,46,0,1,,,,,,,,,5,,,77,0
46080,note_on,2,0,1,,,,,,,,,5,,,77,110
46080,note_on,32,0,2,,,,,,,,,6,,,47,110
46126,note_on,46,0,1,,,,,,,,,5,,,77,0
46128,note_on,2,0,1,,,,,,,,,5,,,73,110
46174,note_on,46,0,1,,,,,,,,,5,,,73,0
46176,note_on,2,0,1,,,,,,,,,5,,,75,110
46222,note_on,46,0,1,,,,,,,,,5,,,75,0
46224,note_on,2,0,1,,,,,,,,,5,,,77,110
46240,note_on,160,0,2,,,,,,,,,6,,,47,0
46270,note_on,46,0,1,,,,,,,,,5,,,77,0
46272,note_on,2,0,1,,,,,,,,,5,,,77,110
46272,note_on,32,0,2,,,,,,,,,6,,,44,110
46272,note_on,0,0,2,,,,,,,,,6,,,49,110
46272,note_on,0,0,2,,,,,,,,,6,,,47,110
46318,note_on,46,0,1,,,,,,,,,5,,,77,0
46320,note_on,2,0,1,,,,,,,,,5,,,73,110
46366,note_on,46,0,1,,,,,,,,,5,,,73,0
46368,note_on,2,0,1,,,,,,,,,5,,,75,110
46414,note_on,46,0,1,,,,,,,,,5,,,75,0
46416,note_on,2,0,1,,,,,,,,,5,,,77,110
46462,note_on,46,0,1,,,,,,,,,5,,,77,0
46464,note_on,2,0,1,,,,,,,,,5,,,77,110
46510,note_on,46,0,1,,,,,,,,,5,,,77,0
46512,note_on,2,0,1,,,,,,,,,5,,,73,110
46558,note_on,46,0,1,,,,,,,,,5,,,73,0
46560,note_on,2,0,1,,,,,,,,,5,,,75,110
46606,note_on,46,0,1,,,,,,,,,5,,,75,0
46608,note_on,2,0,1,,,,,,,,,5,,,77,110
46608,note_on,0,0,2,,,,,,,,,6,,,49,0
46608,note_on,0,0,2,,,,,,,,,6,,,47,0
46608,note_on,336,0,2,,,,,,,,,6,,,44,0
46654,note_on,46,0,1,,,,,,,,,5,,,77,0
46656,note_on,48,0,2,,,,,,,,,6,,,42,110
46656,note_on,2,0,1,,,,,,,,,5,,,81,110
46702,note_on,46,0,1,,,,,,,,,5,,,81,0
46704,note_on,2,0,1,,,,,,,,,5,,,78,110
46750,note_on,94,0,2,,,,,,,,,6,,,42,0
46750,note_on,46,0,1,,,,,,,,,5,,,78,0
46752,note_on,2,0,2,,,,,,,,,6,,,44,110
46752,note_on,2,0,1,,,,,,,,,5,,,80,110
46798,note_on,46,0,1,,,,,,,,,5,,,80,0
46800,note_on,2,0,1,,,,,,,,,5,,,81,110
46846,note_on,94,0,2,,,,,,,,,6,,,44,0
46846,note_on,46,0,1,,,,,,,,,5,,,81,0
46848,note_on,2,0,2,,,,,,,,,6,,,49,110
46848,note_on,2,0,1,,,,,,,,,5,,,81,110
46894,note_on,46,0,1,,,,,,,,,5,,,81,0
46896,note_on,2,0,1,,,,,,,,,5,,,78,110
46942,note_on,94,0,2,,,,,,,,,6,,,49,0
46942,note_on,46,0,1,,,,,,,,,5,,,78,0
46944,note_on,2,0,2,,,,,,,,,6,,,42,110
46944,note_on,2,0,1,,,,,,,,,5,,,80,110
46990,note_on,46,0,1,,,,,,,,,5,,,80,0
46992,note_on,2,0,1,,,,,,,,,5,,,81,110
47038,note_on,94,0,2,,,,,,,,,6,,,42,0
47038,note_on,46,0,1,,,,,,,,,5,,,81,0
47040,note_on,2,0,2,,,,,,,,,6,,,44,110
47040,note_on,2,0,1,,,,,,,,,5,,,81,110
47086,note_on,46,0,1,,,,,,,,,5,,,81,0
47088,note_on,2,0,1,,,,,,,,,5,,,78,110
47134,note_on,46,0,1,,,,,,,,,5,,,78,0
47134,note_on,94,0,2,,,,,,,,,6,,,44,0
47136,note_on,2,0,2,,,,,,,,,6,,,49,110
47136,note_on,2,0,1,,,,,,,,,5,,,80,110
47182,note_on,46,0,1,,,,,,,,,5,,,80,0
47184,note_on,2,0,1,,,,,,,,,5,,,81,110
47230,note_on,46,0,1,,,,,,,,,5,,,81,0
47230,note_on,94,0,2,,,,,,,,,6,,,49,0
47232,note_on,2,0,2,,,,,,,,,6,,,44,110
47232,note_on,2,0,1,,,,,,,,,5,,,83,110
47278,note_on,46,0,1,,,,,,,,,5,,,83,0
47280,note_on,2,0,1,,,,,,,,,5,,,80,110
47326,note_on,46,0,1,,,,,,,,,5,,,80,0
47326,note_on,94,0,2,,,,,,,,,6,,,44,0
47328,note_on,2,0,2,,,,,,,,,6,,,47,110
47328,note_on,2,0,1,,,,,,,,,5,,,81,110
47374,note_on,46,0,1,,,,,,,,,5,,,81,0
47376,note_on,2,0,1,,,,,,,,,5,,,83,110
47422,note_on,94,0,2,,,,,,,,,6,,,47,0
47422,note_on,46,0,1,,,,,,,,,5,,,83,0
47424,note_on,2,0,2,,,,,,,,,6,,,53,110
47424,note_on,2,0,1,,,,,,,,,5,,,83,110
47470,note_on,46,0,1,,,,,,,,,5,,,83,0
47472,note_on,2,0,1,,,,,,,,,5,,,80,110
47518,note_on,94,0,2,,,,,,,,,6,,,53,0
47518,note_on,46,0,1,,,,,,,,,5,,,80,0
47520,note_on,2,0,2,,,,,,,,,6,,,44,110
47520,note_on,2,0,1,,,,,,,,,5,,,81,110
47566,note_on,46,0,1,,,,,,,,,5,,,81,0
47568,note_on,2,0,1,,,,,,,,,5,,,83,110
47614,note_on,46,0,1,,,,,,,,,5,,,83,0
47614,note_on,94,0,2,,,,,,,,,6,,,44,0
47616,note_on,2,0,1,,,,,,,,,5,,,83,110
47616,note_on,2,0,2,,,,,,,,,6,,,47,110
47662,note_on,46,0,1,,,,,,,,,5,,,83,0
47664,note_on,2,0,1,,,,,,,,,5,,,80,110
47710,note_on,46,0,1,,,,,,,,,5,,,80,0
47710,note_on,94,0,2,,,,,,,,,6,,,47,0
47712,note_on,2,0,1,,,,,,,,,5,,,81,110
47712,note_on,2,0,2,,,,,,,,,6,,,53,110
47758,note_on,46,0,1,,,,,,,,,5,,,81,0
47760,note_on,2,0,1,,,,,,,,,5,,,83,110
47806,note_on,46,0,1,,,,,,,,,5,,,83,0
47806,note_on,94,0,2,,,,,,,,,6,,,53,0
47808,note_on,2,0,1,,,,,,,,,5,,,85,110
47808,note_on,2,0,2,,,,,,,,,6,,,45,110
47854,note_on,46,0,1,,,,,,,,,5,,,85,0
47856,note_on,2,0,1,,,,,,,,,5,,,81,110
47902,note_on,46,0,1,,,,,,,,,5,,,81,0
47902,note_on,94,0,2,,,,,,,,,6,,,45,0
47904,note_on,2,0,1,,,,,,,,,5,,,83,110
47904,note_on,2,0,2,,,,,,,,,6,,,49,110
47950,note_on,46,0,1,,,,,,,,,5,,,83,0
47952,note_on,2,0,1,,,,,,,,,5,,,85,110
47998,note_on,94,0,2,,,,,,,,,6,,,49,0
47998,note_on,46,0,1,,,,,,,,,5,,,85,0
48000,note_on,2,0,1,,,,,,,,,5,,,85,110
48000,note_on,2,0,2,,,,,,,,,6,,,54,110
48046,note_on,46,0,1,,,,,,,,,5,,,85,0
48048,note_on,2,0,1,,,,,,,,,5,,,81,110
48094,note_on,94,0,2,,,,,,,,,6,,,54,0
48094,note_on,46,0,1,,,,,,,,,5,,,81,0
48096,note_on,2,0,1,,,,,,,,,5,,,83,110
48096,note_on,2,0,2,,,,,,,,,6,,,45,110
48142,note_on,46,0,1,,,,,,,,,5,,,83,0
48144,note_on,2,0,1,,,,,,,,,5,,,85,110
48190,note_on,46,0,1,,,,,,,,,5,,,85,0
48190,note_on,94,0,2,,,,,,,,,6,,,45,0
48192,note_on,2,0,1,,,,,,,,,5,,,85,110
48192,note_on,2,0,2,,,,,,,,,6,,,49,110
48238,note_on,46,0,1,,,,,,,,,5,,,85,0
48240,note_on,2,0,1,,,,,,,,,5,,,81,110
48286,note_on,94,0,2,,,,,,,,,6,,,49,0
48286,note_on,46,0,1,,,,,,,,,5,,,81,0
48288,note_on,2,0,1,,,,,,,,,5,,,83,110
48288,note_on,2,0,2,,,,,,,,,6,,,54,110
48334,note_on,46,0,1,,,,,,,,,5,,,83,0
48336,note_on,2,0,1,,,,,,,,,5,,,85,110
48382,note_on,46,0,1,,,,,,,,,5,,,85,0
48382,note_on,94,0,2,,,,,,,,,6,,,54,0
48384,note_on,2,0,2,,,,,,,,,6,,,47,110
48384,note_on,2,0,1,,,,,,,,,5,,,86,110
48430,note_on,46,0,1,,,,,,,,,5,,,86,0
48432,note_on,2,0,1,,,,,,,,,5,,,83,110
48478,note_on,94,0,2,,,,,,,,,6,,,47,0
48478,note_on,46,0,1,,,,,,,,,5,,,83,0
48480,note_on,2,0,2,,,,,,,,,6,,,54,110
48480,note_on,2,0,1,,,,,,,,,5,,,85,110
48526,note_on,46,0,1,,,,,,,,,5,,,85,0
48528,note_on,2,0,1,,,,,,,,,5,,,86,110
48574,note_on,46,0,1,,,,,,,,,5,,,86,0
48574,note_on,94,0,2,,,,,,,,,6,,,54,0
48576,note_on,2,0,2,,,,,,,,,6,,,59,110
48576,note_on,2,0,1,,,,,,,,,5,,,86,110
48622,note_on,46,0,1,,,,,,,,,5,,,86,0
48624,note_on,2,0,1,,,,,,,,,5,,,83,110
48670,note_on,46,0,1,,,,,,,,,5,,,83,0
48670,note_on,94,0,2,,,,,,,,,6,,,59,0
48672,note_on,2,0,1,,,,,,,,,5,,,85,110
48672,note_on,2,0,2,,,,,,,,,6,,,47,110
48718,note_on,46,0,1,,,,,,,,,5,,,85,0
48720,note_on,2,0,1,,,,,,,,,5,,,86,110
48766,note_on,46,0,1,,,,,,,,,5,,,86,0
48766,note_on,94,0,2,,,,,,,,,6,,,47,0
48768,note_on,2,0,2,,,,,,,,,6,,,54,110
48768,note_on,2,0,1,,,,,,,,,5,,,86,110
48814,note_on,46,0,1,,,,,,,,,5,,,86,0
48816,note_on,2,0,1,,,,,,,,,5,,,83,110
48862,note_on,46,0,1,,,,,,,,,5,,,83,0
48862,note_on,94,0,2,,,,,,,,,6,,,54,0
48864,note_on,2,0,1,,,,,,,,,5,,,85,110
48864,note_on,2,0,2,,,,,,,,,6,,,59,110
48910,note_on,46,0,1,,,,,,,,,5,,,85,0
48912,note_on,2,0,1,,,,,,,,,5,,,86,110
48958,note_on,46,0,1,,,,,,,,,5,,,86,0
48958,note_on,94,0,2,,,,,,,,,6,,,59,0
48960,note_on,2,0,1,,,,,,,,,5,,,77,110
48960,note_on,2,0,2,,,,,,,,,6,,,49,110
49054,note_on,94,0,1,,,,,,,,,5,,,77,0
49056,note_on,2,0,1,,,,,,,,,5,,,86,110
49120,note_on,160,0,2,,,,,,,,,6,,,49,0
49150,note_on,94,0,1,,,,,,,,,5,,,86,0
49152,note_on,2,0,1,,,,,,,,,5,,,85,110
49152,note_on,0,0,2,,,,,,,,,6,,,56,110
49152,note_on,0,0,2,,,,,,,,,6,,,61,110
49152,note_on,32,0,2,,,,,,,,,6,,,53,110
49246,note_on,94,0,1,,,,,,,,,5,,,85,0
49248,note_on,2,0,1,,,,,,,,,5,,,83,110
49342,note_on,94,0,1,,,,,,,,,5,,,83,0
49344,note_on,2,0,1,,,,,,,,,5,,,81,110
49438,note_on,94,0,1,,,,,,,,,5,,,81,0
49440,note_on,2,0,1,,,,,,,,,5,,,80,110
49488,note_on,0,0,2,,,,,,,,,6,,,56,0
49488,note_on,0,0,2,,,,,,,,,6,,,61,0
49488,note_on,336,0,2,,,,,,,,,6,,,53,0
49534,note_on,94,0,1,,,,,,,,,5,,,80,0
49536,note_on,48,0,2,,,,,,,,,6,,,54,110
49536,note_on,2,0,1,,,,,,,,,5,,,83,110
49630,note_on,94,0,1,,,,,,,,,5,,,83,0
49630,note_on,94,0,2,,,,,,,,,6,,,54,0
49632,note_on,2,0,2,,,,,,,,,6,,,59,110
49632,note_on,2,0,1,,,,,,,,,5,,,80,110
49678,note_on,46,0,1,,,,,,,,,5,,,80,0
49680,note_on,2,0,1,,,,,,,,,5,,,78,110
49726,note_on,46,0,1,,,,,,,,,5,,,78,0
49726,note_on,94,0,2,,,,,,,,,6,,,59,0
49728,note_on,2,0,2,,,,,,,,,6,,,61,110
49728,note_on,2,0,1,,,,,,,,,5,,,77,110
49822,note_on,94,0,2,,,,,,,,,6,,,61,0
49824,note_on,2,0,2,,,,,,,,,6,,,59,110
49918,note_on,94,0,2,,,,,,,,,6,,,59,0
49920,note_on,2,0,2,,,,,,,,,6,,,61,110
49984,note_on,256,0,1,,,,,,,,,5,,,77,0
50014,note_on,94,0,2,,,,,,,,,6,,,61,0
50016,note_on,2,0,2,,,,,,,,,6,,,49,110
50016,note_on,32,0,1,,,,,,,,,5,,,78,110
50110,note_on,94,0,1,,,,,,,,,5,,,78,0
50110,note_on,94,0,2,,,,,,,,,6,,,49,0
50112,note_on,9056,0,7,,,,,,,,,7,,,42,92
50112,note_on,2,0,1,,,,,,,,,5,,,69,110
50112,note_on,0,0,1,,,,,,,,,5,,,73,110
50112,note_on,0,0,1,,,,,,,,,5,,,78,110
50112,note_on,2,0,2,,,,,,,,,6,,,54,110
50112,note_on,5024,0,6,,,,,,,,,3,,,54,60
50112,note_on,0,0,3,,,,,,,,,0,,,78,108
50112,control_change,9056,0,3,,,,,,,,,0,10,0,,
50112,note_on,9056,0,5,,,,,,,,,2,,,61,92
50112,control_change,9056,0,4,,,,,,,,,1,10,127,,
50206,note_on,94,0,5,,,,,,,,,2,,,61,0
50206,note_on,94,0,3,,,,,,,,,0,,,78,0
50206,note_on,94,0,6,,,,,,,,,3,,,54,0
50206,note_on,0,0,1,,,,,,,,,5,,,78,0
50206,note_on,94,0,1,,,,,,,,,5,,,69,0
50206,note_on,94,0,2,,,,,,,,,6,,,54,0
50206,note_on,0,0,1,,,,,,,,,5,,,73,0
50206,note_on,94,0,7,,,,,,,,,7,,,42,0
50208,note_on,96,0,4,,,,,,,,,1,,,85,75
50208,note_on,2,0,2,,,,,,,,,6,,,45,110
50208,note_on,2,0,5,,,,,,,,,2,,,61,92
50208,note_on,2,0,7,,,,,,,,,7,,,33,92
50208,note_on,2,0,6,,,,,,,,,3,,,45,60
50208,note_on,2,0,3,,,,,,,,,0,,,66,108
50208,note_on,2,0,1,,,,,,,,,5,,,66,110
50240,note_on,32,0,4,,,,,,,,,1,,,85,0
50302,note_on,94,0,6,,,,,,,,,3,,,45,0
50302,note_on,94,0,2,,,,,,,,,6,,,45,0
50302,note_on,94,0,7,,,,,,,,,7,,,33,0
50302,note_on,94,0,5,,,,,,,,,2,,,61,0
50304,note_on,64,0,4,,,,,,,,,1,,,85,75
50304,note_on,2,0,5,,,,,,,,,2,,,57,92
50304,note_on,2,0,6,,,,,,,,,3,,,42,60
50304,note_on,2,0,7,,,,,,,,,7,,,30,92
50304,note_on,2,0,2,,,,,,,,,6,,,42,110
50336,note_on,32,0,4,,,,,,,,,1,,,85,0
50398,note_on,190,0,3,,,,,,,,,0,,,66,0
50398,note_on,190,0,1,,,,,,,,,5,,,66,0
50400,note_on,2,0,1,,,,,,,,,5,,,71,110
50400,note_on,64,0,4,,,,,,,,,1,,,85,75
50400,note_on,2,0,3,,,,,,,,,0,,,71,108
50432,note_on,32,0,4,,,,,,,,,1,,,85,0
50464,note_on,160,0,2,,,,,,,,,6,,,42,0
50464,note_on,160,0,7,,,,,,,,,7,,,30,0
50464,note_on,160,0,5,,,,,,,,,2,,,57,0
50464,note_on,160,0,6,,,,,,,,,3,,,42,0
50494,note_on,94,0,1,,,,,,,,,5,,,71,0
50494,note_on,94,0,3,,,,,,,,,0,,,71,0
50496,note_on,2,0,1,,,,,,,,,5,,,69,110
50496,note_on,64,0,4,,,,,,,,,1,,,85,75
50496,note_on,2,0,3,,,,,,,,,0,,,69,108
50528,note_on,32,0,4,,,,,,,,,1,,,85,0
50590,note_on,94,0,3,,,,,,,,,0,,,69,0
50590,note_on,94,0,1,,,,,,,,,5,,,69,0
50592,note_on,128,0,7,,,,,,,,,7,,,37,92
50592,note_on,64,0,4,,,,,,,,,1,,,77,127
50592,note_on,2,0,3,,,,,,,,,0,,,68,108
50592,note_on,0,0,1,,,,,,,,,5,,,68,110
50592,note_on,2,0,1,,,,,,,,,5,,,65,110
50592,note_on,128,0,6,,,,,,,,,3,,,49,60
50592,note_on,128,0,2,,,,,,,,,6,,,49,110
50592,note_on,128,0,5,,,,,,,,,2,,,61,92
50686,note_on,94,0,2,,,,,,,,,6,,,49,0
50686,note_on,0,0,1,,,,,,,,,5,,,68,0
50686,note_on,94,0,7,,,,,,,,,7,,,37,0
50686,note_on,94,0,6,,,,,,,,,3,,,49,0
50686,note_on,94,0,3,,,,,,,,,0,,,68,0
50686,note_on,94,0,4,,,,,,,,,1,,,77,0
50686,note_on,94,0,5,,,,,,,,,2,,,61,0
50686,note_on,94,0,1,,,,,,,,,5,,,65,0
50688,note_on,2,0,1,,,,,,,,,5,,,69,110
50688,note_on,2,0,3,,,,,,,,,0,,,69,108
50688,note_on,2,0,4,,,,,,,,,1,,,78,127
50688,note_on,2,0,5,,,,,,,,,2,,,61,92
50688,note_on,2,0,7,,,,,,,,,7,,,42,92
50688,note_on,2,0,2,,,,,,,,,6,,,54,110
50688,note_on,2,0,6,,,,,,,,,3,,,54,60
50782,note_on,94,0,7,,,,,,,,,7,,,42,0
50782,note_on,94,0,2,,,,,,,,,6,,,54,0
50782,note_on,94,0,6,,,,,,,,,3,,,54,0
50782,note_on,94,0,1,,,,,,,,,5,,,69,0
50782,note_on,94,0,4,,,,,,,,,1,,,78,0
50782,note_on,94,0,5,,,,,,,,,2,,,61,0
50782,note_on,94,0,3,,,,,,,,,0,,,69,0
50784,note_on,2,0,2,,,,,,,,,6,,,45,110
50784,note_on,2,0,5,,,,,,,,,2,,,61,92
50784,note_on,2,0,4,,,,,,,,,1,,,66,127
50784,note_on,2,0,7,,,,,,,,,7,,,33,92
50784,note_on,2,0,1,,,,,,,,,5,,,85,110
50784,note_on,2,0,3,,,,,,,,,0,,,85,75
50784,note_on,2,0,6,,,,,,,,,3,,,45,60
50816,note_on,32,0,3,,,,,,,,,0,,,85,0
50878,note_on,94,0,5,,,,,,,,,2,,,61,0
50878,note_on,94,0,1,,,,,,,,,5,,,85,0
50878,note_on,94,0,2,,,,,,,,,6,,,45,0
50878,note_on,94,0,7,,,,,,,,,7,,,33,0
50878,note_on,94,0,6,,,,,,,,,3,,,45,0
50880,note_on,2,0,1,,,,,,,,,5,,,85,110
50880,note_on,2,0,5,,,,,,,,,2,,,57,92
50880,note_on,2,0,2,,,,,,,,,6,,,42,110
50880,note_on,2,0,7,,,,,,,,,7,,,30,92
50880,note_on,64,0,3,,,,,,,,,0,,,85,75
50880,note_on,2,0,6,,,,,,,,,3,,,42,60
50912,note_on,32,0,3,,,,,,,,,0,,,85,0
50974,note_on,94,0,1,,,,,,,,,5,,,85,0
50974,note_on,190,0,4,,,,,,,,,1,,,66,0
50976,note_on,2,0,1,,,,,,,,,5,,,85,110
50976,note_on,64,0,3,,,,,,,,,0,,,85,75
50976,note_on,2,0,4,,,,,,,,,1,,,71,127
51008,note_on,32,0,3,,,,,,,,,0,,,85,0
51040,note_on,160,0,7,,,,,,,,,7,,,30,0
51040,note_on,160,0,5,,,,,,,,,2,,,57,0
51040,note_on,160,0,6,,,,,,,,,3,,,42,0
51040,note_on,160,0,2,,,,,,,,,6,,,42,0
51070,note_on,94,0,1,,,,,,,,,5,,,85,0
51070,note_on,94,0,4,,,,,,,,,1,,,71,0
51072,note_on,2,0,1,,,,,,,,,5,,,85,110
51072,note_on,64,0,3,,,,,,,,,0,,,85,75
51072,note_on,2,0,4,,,,,,,,,1,,,69,127
51104,note_on,32,0,3,,,,,,,,,0,,,85,0
51166,note_on,94,0,1,,,,,,,,,5,,,85,0
51166,note_on,94,0,4,,,,,,,,,1,,,69,0
51168,note_on,64,0,3,,,,,,,,,0,,,77,127
51168,note_on,128,0,2,,,,,,,,,6,,,49,110
51168,note_on,2,0,4,,,,,,,,,1,,,68,127
51168,note_on,128,0,7,,,,,,,,,7,,,37,92
51168,note_on,128,0,6,,,,,,,,,3,,,49,60
51168,note_on,128,0,5,,,,,,,,,2,,,61,92
51168,note_on,2,0,1,,,,,,,,,5,,,68,110
51168,note_on,0,0,1,,,,,,,,,5,,,77,110
51262,note_on,94,0,1,,,,,,,,,5,,,68,0
51262,note_on,94,0,6,,,,,,,,,3,,,49,0
51262,note_on,94,0,7,,,,,,,,,7,,,37,0
51262,note_on,94,0,3,,,,,,,,,0,,,77,0
51262,note_on,94,0,2,,,,,,,,,6,,,49,0
51262,note_on,0,0,1,,,,,,,,,5,,,77,0
51262,note_on,94,0,4,,,,,,,,,1,,,68,0
51262,note_on,94,0,5,,,,,,,,,2,,,61,0
51264,note_on,2,0,5,,,,,,,,,2,,,61,92
51264,note_on,2,0,3,,,,,,,,,0,,,78,127
51264,note_on,2,0,2,,,,,,,,,6,,,54,110
51264,note_on,2,0,1,,,,,,,,,5,,,69,110
51264,note_on,0,0,1,,,,,,,,,5,,,78,110
51264,note_on,2,0,4,,,,,,,,,1,,,69,127
51264,note_on,2,0,6,,,,,,,,,3,,,54,60
51264,note_on,2,0,7,,,,,,,,,7,,,42,92
51358,note_on,94,0,4,,,,,,,,,1,,,69,0
51358,note_on,94,0,7,,,,,,,,,7,,,42,0
51358,note_on,94,0,5,,,,,,,,,2,,,61,0
51358,note_on,94,0,1,,,,,,,,,5,,,69,0
51358,note_on,94,0,6,,,,,,,,,3,,,54,0
51358,note_on,94,0,3,,,,,,,,,0,,,78,0
51358,note_on,0,0,1,,,,,,,,,5,,,78,0
51358,note_on,94,0,2,,,,,,,,,6,,,54,0
51360,note_on,2,0,6,,,,,,,,,3,,,45,60
51360,note_on,2,0,7,,,,,,,,,7,,,33,92
51360,note_on,2,0,5,,,,,,,,,2,,,61,92
51360,note_on,2,0,3,,,,,,,,,0,,,66,127
51360,note_on,2,0,4,,,,,,,,,1,,,85,75
51360,note_on,2,0,1,,,,,,,,,5,,,66,110
51360,note_on,2,0,2,,,,,,,,,6,,,45,110
51392,note_on,32,0,4,,,,,,,,,1,,,85,0
51454,note_on,94,0,7,,,,,,,,,7,,,33,0
51454,note_on,94,0,5,,,,,,,,,2,,,61,0
51454,note_on,94,0,6,,,,,,,,,3,,,45,0
51454,note_on,94,0,2,,,,,,,,,6,,,45,0
51456,note_on,2,0,6,,,,,,,,,3,,,42,60
51456,note_on,64,0,4,,,,,,,,,1,,,85,75
51456,note_on,2,0,7,,,,,,,,,7,,,30,92
51456,note_on,2,0,2,,,,,,,,,6,,,42,110
51456,note_on,2,0,5,,,,,,,,,2,,,57,92
51488,note_on,32,0,4,,,,,,,,,1,,,85,0
51550,note_on,190,0,1,,,,,,,,,5,,,66,0
51550,note_on,190,0,3,,,,,,,,,0,,,66,0
51552,note_on,2,0,3,,,,,,,,,0,,,71,127
51552,note_on,64,0,4,,,,,,,,,1,,,85,75
51552,note_on,2,0,1,,,,,,,,,5,,,71,110
51584,note_on,32,0,4,,,,,,,,,1,,,85,0
51616,note_on,160,0,7,,,,,,,,,7,,,30,0
51616,note_on,160,0,5,,,,,,,,,2,,,57,0
51616,note_on,160,0,6,,,,,,,,,3,,,42,0
51616,note_on,160,0,2,,,,,,,,,6,,,42,0
51646,note_on,94,0,3,,,,,,,,,0,,,71,0
51646,note_on,94,0,1,,,,,,,,,5,,,71,0
51648,note_on,2,0,3,,,,,,,,,0,,,69,127
51648,note_on,64,0,4,,,,,,,,,1,,,85,75
51648,note_on,2,0,1,,,,,,,,,5,,,69,110
51680,note_on,32,0,4,,,,,,,,,1,,,85,0
51742,note_on,94,0,3,,,,,,,,,0,,,69,0
51742,note_on,94,0,1,,,,,,,,,5,,,69,0
51744,note_on,128,0,2,,,,,,,,,6,,,49,110
51744,note_on,2,0,1,,,,,,,,,5,,,65,110
51744,note_on,2,0,3,,,,,,,,,0,,,68,127
51744,note_on,64,0,4,,,,,,,,,1,,,77,127
51744,note_on,128,0,6,,,,,,,,,3,,,49,60
51744,note_on,128,0,7,,,,,,,,,7,,,37,92
51744,note_on,128,0,5,,,,,,,,,2,,,61,92
51744,note_on,0,0,1,,,,,,,,,5,,,68,110
51838,note_on,94,0,4,,,,,,,,,1,,,77,0
51838,note_on,94,0,6,,,,,,,,,3,,,49,0
51838,note_on,94,0,1,,,,,,,,,5,,,65,0
51838,note_on,94,0,2,,,,,,,,,6,,,49,0
51838,note_on,94,0,7,,,,,,,,,7,,,37,0
51838,note_on,94,0,3,,,,,,,,,0,,,68,0
51838,note_on,0,0,1,,,,,,,,,5,,,68,0
51838,note_on,94,0,5,,,,,,,,,2,,,61,0
51840,note_on,2,0,4,,,,,,,,,1,,,78,127
51840,note_on,2,0,2,,,,,,,,,6,,,54,110
51840,note_on,2,0,6,,,,,,,,,3,,,54,60
51840,note_on,2,0,7,,,,,,,,,7,,,42,92
51840,note_on,2,0,1,,,,,,,,,5,,,69,110
51840,note_on,2,0,3,,,,,,,,,0,,,69,127
51840,note_on,2,0,5,,,,,,,,,2,,,61,92
51934,note_on,94,0,4,,,,,,,,,1,,,78,0
51934,note_on,94,0,7,,,,,,,,,7,,,42,0
51934,note_on,94,0,5,,,,,,,,,2,,,61,0
51934,note_on,94,0,6,,,,,,,,,3,,,54,0
51934,note_on,94,0,1,,,,,,,,,5,,,69,0
51934,note_on,94,0,3,,,,,,,,,0,,,69,0
51934,note_on,94,0,2,,,,,,,,,6,,,54,0
51936,note_on,2,0,2,,,,,,,,,6,,,45,110
51936,note_on,2,0,7,,,,,,,,,7,,,33,92
51936,note_on,2,0,3,,,,,,,,,0,,,85,75
51936,note_on,2,0,5,,,,,,,,,2,,,61,92
51936,note_on,2,0,4,,,,,,,,,1,,,66,127
51936,note_on,2,0,6,,,,,,,,,3,,,45,60
51936,note_on,2,0,1,,,,,,,,,5,,,85,110
51968,note_on,32,0,3,,,,,,,,,0,,,85,0
52030,note_on,94,0,1,,,,,,,,,5,,,85,0
52030,note_on,94,0,2,,,,,,,,,6,,,45,0
52030,note_on,94,0,7,,,,,,,,,7,,,33,0
52030,note_on,94,0,5,,,,,,,,,2,,,61,0
52030,note_on,94,0,6,,,,,,,,,3,,,45,0
52032,note_on,2,0,2,,,,,,,,,6,,,42,110
52032,note_on,2,0,7,,,,,,,,,7,,,30,92
52032,note_on,2,0,6,,,,,,,,,3,,,42,60
52032,note_on,2,0,5,,,,,,,,,2,,,57,92
52032,note_on,2,0,1,,,,,,,,,5,,,85,110
52032,note_on,64,0,3,,,,,,,,,0,,,85,75
52064,note_on,32,0,3,,,,,,,,,0,,,85,0
52126,note_on,94,0,1,,,,,,,,,5,,,85,0
52126,note_on,190,0,4,,,,,,,,,1,,,66,0
52128,note_on,2,0,4,,,,,,,,,1,,,71,127
52128,note_on,64,0,3,,,,,,,,,0,,,85,75
52128,note_on,2,0,1,,,,,,,,,5,,,85,110
52160,note_on,32,0,3,,,,,,,,,0,,,85,0
52192,note_on,160,0,5,,,,,,,,,2,,,57,0
52192,note_on,160,0,7,,,,,,,,,7,,,30,0
52192,note_on,160,0,2,,,,,,,,,6,,,42,0
52192,note_on,160,0,6,,,,,,,,,3,,,42,0
52222,note_on,94,0,1,,,,,,,,,5,,,85,0
52222,note_on,94,0,4,,,,,,,,,1,,,71,0
52224,note_on,2,0,1,,,,,,,,,5,,,85,110
52224,note_on,64,0,3,,,,,,,,,0,,,85,75
52224,note_on,2,0,4,,,,,,,,,1,,,69,127
52256,note_on,32,0,3,,,,,,,,,0,,,85,0
52318,note_on,94,0,4,,,,,,,,,1,,,69,0
52318,note_on,94,0,1,,,,,,,,,5,,,85,0
52320,note_on,2,0,1,,,,,,,,,5,,,68,110
52320,note_on,128,0,2,,,,,,,,,6,,,49,110
52320,note_on,128,0,7,,,,,,,,,7,,,37,92
52320,note_on,64,0,3,,,,,,,,,0,,,77,127
52320,note_on,2,0,4,,,,,,,,,1,,,68,127
52320,note_on,128,0,5,,,,,,,,,2,,,61,92
52320,note_on,128,0,6,,,,,,,,,3,,,49,60
52320,note_on,0,0,1,,,,,,,,,5,,,77,110
52414,note_on,0,0,1,,,,,,,,,5,,,77,0
52414,note_on,94,0,2,,,,,,,,,6,,,49,0
52414,note_on,94,0,1,,,,,,,,,5,,,68,0
52414,note_on,94,0,7,,,,,,,,,7,,,37,0
52414,note_on,94,0,5,,,,,,,,,2,,,61,0
52414,note_on,94,0,4,,,,,,,,,1,,,68,0
52414,note_on,94,0,6,,,,,,,,,3,,,49,0
52414,note_on,94,0,3,,,,,,,,,0,,,77,0
52416,note_on,2,0,6,,,,,,,,,3,,,54,60
52416,note_on,2,0,4,,,,,,,,,1,,,69,127
52416,note_on,2,0,1,,,,,,,,,5,,,69,110
52416,note_on,2,0,3,,,,,,,,,0,,,78,127
52416,note_on,0,0,1,,,,,,,,,5,,,78,110
52416,note_on,2,0,5,,,,,,,,,2,,,61,92
52416,note_on,2,0,2,,,,,,,,,6,,,54,110
52416,note_on,2,0,7,,,,,,,,,7,,,42,92
52510,note_on,94,0,3,,,,,,,,,0,,,78,0
52510,note_on,94,0,5,,,,,,,,,2,,,61,0
52510,note_on,94,0,1,,,,,,,,,5,,,69,0
52510,note_on,0,0,1,,,,,,,,,5,,,78,0
52510,note_on,94,0,4,,,,,,,,,1,,,69,0
52512,note_on,2,0,3,,,,,,,,,0,,,69,127
52512,note_on,2,0,4,,,,,,,,,1,,,85,75
52512,note_on,2,0,1,,,,,,,,,5,,,69,110
52512,note_on,2,0,5,,,,,,,,,2,,,61,92
52544,note_on,32,0,4,,,,,,,,,1,,,85,0
52576,note_on,160,0,6,,,,,,,,,3,,,54,0
52576,note_on,160,0,7,,,,,,,,,7,,,42,0
52576,note_on,160,0,2,,,,,,,,,6,,,54,0
52606,note_on,94,0,5,,,,,,,,,2,,,61,0
52606,note_on,94,0,1,,,,,,,,,5,,,69,0
52606,note_on,94,0,3,,,,,,,,,0,,,69,0
52608,note_on,32,0,7,,,,,,,,,7,,,49,92
52608,note_on,2,0,5,,,,,,,,,2,,,61,92
52608,note_on,64,0,4,,,,,,,,,1,,,85,75
52608,note_on,2,0,1,,,,,,,,,5,,,68,110
52608,note_on,2,0,3,,,,,,,,,0,,,68,127
52608,note_on,32,0,2,,,,,,,,,6,,,61,110
52608,note_on,32,0,6,,,,,,,,,3,,,61,60
52640,note_on,32,0,4,,,,,,,,,1,,,85,0
52702,note_on,94,0,3,,,,,,,,,0,,,68,0
52702,note_on,94,0,1,,,,,,,,,5,,,68,0
52704,note_on,2,0,3,,,,,,,,,0,,,78,127
52704,note_on,64,0,4,,,,,,,,,1,,,85,75
52704,note_on,2,0,1,,,,,,,,,5,,,78,110
52736,note_on,32,0,4,,,,,,,,,1,,,85,0
52768,note_on,160,0,5,,,,,,,,,2,,,61,0
52768,note_on,160,0,7,,,,,,,,,7,,,49,0
52768,note_on,160,0,2,,,,,,,,,6,,,61,0
52768,note_on,160,0,6,,,,,,,,,3,,,61,0
52798,note_on,94,0,3,,,,,,,,,0,,,78,0
52798,note_on,94,0,1,,,,,,,,,5,,,78,0
52800,note_on,64,0,4,,,,,,,,,1,,,85,75
52800,note_on,32,0,2,,,,,,,,,6,,,49,110
52800,note_on,2,0,1,,,,,,,,,5,,,68,110
52800,note_on,32,0,6,,,,,,,,,3,,,49,60
52800,note_on,32,0,7,,,,,,,,,7,,,37,92
52800,note_on,2,0,3,,,,,,,,,0,,,68,127
52832,note_on,32,0,4,,,,,,,,,1,,,85,0
52894,note_on,94,0,1,,,,,,,,,5,,,68,0
52894,note_on,94,0,3,,,,,,,,,0,,,68,0
52896,note_on,2,0,1,,,,,,,,,5,,,77,110
52896,note_on,2,0,3,,,,,,,,,0,,,77,127
52896,note_on,64,0,4,,,,,,,,,1,,,85,75
52896,note_on,128,0,5,,,,,,,,,2,,,61,92
52960,note_on,160,0,6,,,,,,,,,3,,,49,0
52960,note_on,160,0,2,,,,,,,,,6,,,49,0
52960,note_on,160,0,7,,,,,,,,,7,,,37,0
52990,note_on,94,0,4,,,,,,,,,1,,,85,0
52990,note_on,94,0,5,,,,,,,,,2,,,61,0
52990,note_on,94,0,3,,,,,,,,,0,,,77,0
52990,note_on,94,0,1,,,,,,,,,5,,,77,0
52992,note_on,32,0,6,,,,,,,,,3,,,54,60
52992,note_on,32,0,7,,,,,,,,,7,,,42,92
52992,note_on,32,0,2,,,,,,,,,6,,,54,110
52992,note_on,2,0,1,,,,,,,,,5,,,78,110
52992,note_on,2,0,3,,,,,,,,,0,,,78,127
52992,note_on,2,0,5,,,,,,,,,2,,,61,92
52992,note_on,2,0,4,,,,,,,,,1,,,81,75
53038,note_on,46,0,1,,,,,,,,,5,,,78,0
53040,note_on,2,0,1,,,,,,,,,5,,,80,110
53086,note_on,46,0,1,,,,,,,,,5,,,80,0
53088,note_on,2,0,1,,,,,,,,,5,,,81,110
53134,note_on,46,0,1,,,,,,,,,5,,,81,0
53136,note_on,2,0,1,,,,,,,,,5,,,80,110
53152,note_on,160,0,3,,,,,,,,,0,,,78,0
53152,note_on,160,0,2,,,,,,,,,6,,,54,0
53152,note_on,160,0,7,,,,,,,,,7,,,42,0
53152,note_on,160,0,4,,,,,,,,,1,,,81,0
53152,note_on,160,0,5,,,,,,,,,2,,,61,0
53152,note_on,160,0,6,,,,,,,,,3,,,54,0
53182,note_on,46,0,1,,,,,,,,,5,,,80,0
53184,note_on,2,0,1,,,,,,,,,5,,,78,110
53230,note_on,46,0,1,,,,,,,,,5,,,78,0
53232,note_on,2,0,1,,,,,,,,,5,,,80,110
53278,note_on,46,0,1,,,,,,,,,5,,,80,0
53280,note_on,2,0,1,,,,,,,,,5,,,81,110
53326,note_on,46,0,1,,,,,,,,,5,,,81,0
53328,note_on,2,0,1,,,,,,,,,5,,,80,110
53374,note_on,46,0,1,,,,,,,,,5,,,80,0
53376,note_on,2,0,1,,,,,,,,,5,,,78,110
53422,note_on,46,0,1,,,,,,,,,5,,,78,0
53424,note_on,2,0,1,,,,,,,,,5,,,76,110
53470,note_on,46,0,1,,,,,,,,,5,,,76,0
53472,note_on,2,0,1,,,,,,,,,5,,,74,110
53518,note_on,46,0,1,,,,,,,,,5,,,74,0
53520,note_on,2,0,1,,,,,,,,,5,,,73,110
53566,note_on,46,0,1,,,,,,,,,5,,,73,0
53568,note_on,416,0,6,,,,,,,,,3,,,56,75
53568,note_on,416,0,2,,,,,,,,,6,,,56,110
53568,note_on,2,0,1,,,,,,,,,5,,,72,110
53614,note_on,46,0,2,,,,,,,,,6,,,56,0
53616,note_on,2,0,2,,,,,,,,,6,,,51,110
53662,note_on,94,0,1,,,,,,,,,5,,,72,0
53662,note_on,46,0,2,,,,,,,,,6,,,51,0
53664,note_on,2,0,2,,,,,,,,,6,,,48,110
53664,note_on,2,0,1,,,,,,,,,5,,,63,110
53696,note_on,32,0,1,,,,,,,,,5,,,63,0
53710,note_on,46,0,2,,,,,,,,,6,,,48,0
53712,note_on,2,0,2,,,,,,,,,6,,,51,110
53728,note_on,160,0,6,,,,,,,,,3,,,56,0
53758,note_on,46,0,2,,,,,,,,,6,,,51,0
53760,note_on,2,0,2,,,,,,,,,6,,,56,110
53760,note_on,32,0,6,,,,,,,,,3,,,56,75
53760,note_on,64,0,1,,,,,,,,,5,,,68,110
53792,note_on,32,0,1,,,,,,,,,5,,,68,0
53806,note_on,46,0,2,,,,,,,,,6,,,56,0
53808,note_on,2,0,2,,,,,,,,,6,,,51,110
53854,note_on,46,0,2,,,,,,,,,6,,,51,0
53856,note_on,2,0,2,,,,,,,,,6,,,48,110
53856,note_on,64,0,1,,,,,,,,,5,,,72,110
53888,note_on,32,0,1,,,,,,,,,5,,,72,0
53902,note_on,46,0,2,,,,,,,,,6,,,48,0
53904,note_on,2,0,2,,,,,,,,,6,,,51,110
53920,note_on,160,0,6,,,,,,,,,3,,,56,0
53950,note_on,46,0,2,,,,,,,,,6,,,51,0
53952,note_on,2,0,2,,,,,,,,,6,,,56,110
53952,note_on,64,0,1,,,,,,,,,5,,,75,110
53952,note_on,32,0,6,,,,,,,,,3,,,56,75
53984,note_on,32,0,1,,,,,,,,,5,,,75,0
53998,note_on,46,0,2,,,,,,,,,6,,,56,0
54000,note_on,2,0,2,,,,,,,,,6,,,51,110
54046,note_on,46,0,2,,,,,,,,,6,,,51,0
54048,note_on,2,0,2,,,,,,,,,6,,,48,110
54048,note_on,64,0,1,,,,,,,,,5,,,78,110
54080,note_on,32,0,1,,,,,,,,,5,,,78,0
54094,note_on,46,0,2,,,,,,,,,6,,,48,0
54096,note_on,2,0,2,,,,,,,,,6,,,51,110
54112,note_on,160,0,6,,,,,,,,,3,,,56,0
54142,note_on,46,0,2,,,,,,,,,6,,,51,0
54144,note_on,32,0,6,,,,,,,,,3,,,49,75
54144,note_on,2,0,2,,,,,,,,,6,,,49,110
54144,note_on,64,0,1,,,,,,,,,5,,,76,110
54190,note_on,46,0,1,,,,,,,,,5,,,76,0
54192,note_on,2,0,1,,,,,,,,,5,,,78,110
54238,note_on,46,0,1,,,,,,,,,5,,,78,0
54240,note_on,2,0,1,,,,,,,,,5,,,79,110
54286,note_on,46,0,1,,,,,,,,,5,,,79,0
54288,note_on,2,0,1,,,,,,,,,5,,,78,110
54304,note_on,160,0,6,,,,,,,,,3,,,49,0
54304,note_on,160,0,2,,,,,,,,,6,,,49,0
54334,note_on,46,0,1,,,,,,,,,5,,,78,0
54336,note_on,32,0,6,,,,,,,,,3,,,49,75
54336,note_on,2,0,1,,,,,,,,,5,,,76,110
54382,note_on,46,0,1,,,,,,,,,5,,,76,0
54384,note_on,2,0,1,,,,,,,,,5,,,78,110
54430,note_on,46,0,1,,,,,,,,,5,,,78,0
54432,note_on,2,0,1,,,,,,,,,5,,,79,110
54478,note_on,46,0,1,,,,,,,,,5,,,79,0
54480,note_on,2,0,1,,,,,,,,,5,,,78,110
54496,note_on,160,0,6,,,,,,,,,3,,,49,0
54526,note_on,46,0,1,,,,,,,,,5,,,78,0
54528,note_on,2,0,1,,,,,,,,,5,,,76,110
54528,note_on,32,0,6,,,,,,,,,3,,,49,75
54574,note_on,46,0,1,,,,,,,,,5,,,76,0
54576,note_on,2,0,1,,,,,,,,,5,,,74,110
54622,note_on,46,0,1,,,,,,,,,5,,,74,0
54624,note_on,2,0,1,,,,,,,,,5,,,73,110
54670,note_on,46,0,1,,,,,,,,,5,,,73,0
54672,note_on,2,0,1,,,,,,,,,5,,,71,110
54688,note_on,160,0,6,,,,,,,,,3,,,49,0
54718,note_on,46,0,1,,,,,,,,,5,,,71,0
54720,note_on,2,0,1,,,,,,,,,5,,,70,110
54720,note_on,416,0,2,,,,,,,,,6,,,54,110
54720,note_on,32,0,6,,,,,,,,,3,,,54,75
54766,note_on,46,0,2,,,,,,,,,6,,,54,0
54768,note_on,2,0,2,,,,,,,,,6,,,49,110
54814,note_on,46,0,2,,,,,,,,,6,,,49,0
54814,note_on,94,0,1,,,,,,,,,5,,,70,0
54816,note_on,2,0,1,,,,,,,,,5,,,61,110
54816,note_on,2,0,2,,,,,,,,,6,,,46,110
54848,note_on,32,0,1,,,,,,,,,5,,,61,0
54862,note_on,46,0,2,,,,,,,,,6,,,46,0
54864,note_on,2,0,2,,,,,,,,,6,,,49,110
54880,note_on,160,0,6,,,,,,,,,3,,,54,0
54910,note_on,46,0,2,,,,,,,,,6,,,49,0
54912,note_on,32,0,6,,,,,,,,,3,,,54,75
54912,note_on,64,0,1,,,,,,,,,5,,,66,110
54912,note_on,2,0,2,,,,,,,,,6,,,54,110
54944,note_on,32,0,1,,,,,,,,,5,,,66,0
54958,note_on,46,0,2,,,,,,,,,6,,,54,0
54960,note_on,2,0,2,,,,,,,,,6,,,49,110
55006,note_on,46,0,2,,,,,,,,,6,,,49,0
55008,note_on,64,0,1,,,,,,,,,5,,,70,110
55008,note_on,2,0,2,,,,,,,,,6,,,46,110
55040,note_on,32,0,1,,,,,,,,,5,,,70,0
55054,note_on,46,0,2,,,,,,,,,6,,,46,0
55056,note_on,2,0,2,,,,,,,,,6,,,49,110
55072,note_on,160,0,6,,,,,,,,,3,,,54,0
55102,note_on,46,0,2,,,,,,,,,6,,,49,0
55104,note_on,64,0,1,,,,,,,,,5,,,73,110
55104,note_on,2,0,2,,,,,,,,,6,,,54,110
55104,note_on,32,0,6,,,,,,,,,3,,,54,75
55136,note_on,32,0,1,,,,,,,,,5,,,73,0
55150,note_on,46,0,2,,,,,,,,,6,,,54,0
55152,note_on,2,0,2,,,,,,,,,6,,,49,110
55198,note_on,46,0,2,,,,,,,,,6,,,49,0
55200,note_on,2,0,2,,,,,,,,,6,,,46,110
55200,note_on,64,0,1,,,,,,,,,5,,,76,110
55246,note_on,46,0,2,,,,,,,,,6,,,46,0
55248,note_on,2,0,2,,,,,,,,,6,,,49,110
55264,note_on,160,0,6,,,,,,,,,3,,,54,0
55294,note_on,46,0,2,,,,,,,,,6,,,49,0
55294,note_on,94,0,1,,,,,,,,,5,,,76,0
55296,note_on,2,0,1,,,,,,,,,5,,,74,110
55296,note_on,2,0,2,,,,,,,,,6,,,47,110
55296,note_on,32,0,6,,,,,,,,,3,,,47,75
55342,note_on,46,0,1,,,,,,,,,5,,,74,0
55344,note_on,2,0,1,,,,,,,,,5,,,76,110
55390,note_on,46,0,1,,,,,,,,,5,,,76,0
55392,note_on,2,0,1,,,,,,,,,5,,,78,110
55438,note_on,46,0,1,,,,,,,,,5,,,78,0
55440,note_on,2,0,1,,,,,,,,,5,,,76,110
55456,note_on,160,0,2,,,,,,,,,6,,,47,0
55456,note_on,160,0,6,,,,,,,,,3,,,47,0
55486,note_on,46,0,1,,,,,,,,,5,,,76,0
55488,note_on,2,0,1,,,,,,,,,5,,,74,110
55488,note_on,32,0,6,,,,,,,,,3,,,47,75
55534,note_on,46,0,1,,,,,,,,,5,,,74,0
55536,note_on,2,0,1,,,,,,,,,5,,,76,110
55582,note_on,46,0,1,,,,,,,,,5,,,76,0
55584,note_on,2,0,1,,,,,,,,,5,,,78,110
55630,note_on,46,0,1,,,,,,,,,5,,,78,0
55632,note_on,2,0,1,,,,,,,,,5,,,76,110
55648,note_on,160,0,6,,,,,,,,,3,,,47,0
55678,note_on,46,0,1,,,,,,,,,5,,,76,0
55680,note_on,32,0,6,,,,,,,,,3,,,47,75
55680,note_on,2,0,1,,,,,,,,,5,,,74,110
55726,note_on,46,0,1,,,,,,,,,5,,,74,0
55728,note_on,2,0,1,,,,,,,,,5,,,73,110
55774,note_on,46,0,1,,,,,,,,,5,,,73,0
55776,note_on,2,0,1,,,,,,,,,5,,,71,110
55822,note_on,46,0,1,,,,,,,,,5,,,71,0
55824,note_on,2,0,1,,,,,,,,,5,,,69,110
55840,note_on,160,0,6,,,,,,,,,3,,,47,0
55870,note_on,46,0,1,,,,,,,,,5,,,69,0
55872,note_on,416,0,2,,,,,,,,,6,,,52,110
55872,note_on,2,0,1,,,,,,,,,5,,,68,110
55872,note_on,32,0,6,,,,,,,,,3,,,52,75
55918,note_on,46,0,2,,,,,,,,,6,,,52,0
55920,note_on,2,0,2,,,,,,,,,6,,,47,110
55966,note_on,46,0,2,,,,,,,,,6,,,47,0
55966,note_on,94,0,1,,,,,,,,,5,,,68,0
55968,note_on,2,0,1,,,,,,,,,5,,,59,110
55968,note_on,2,0,2,,,,,,,,,6,,,44,110
56000,note_on,32,0,1,,,,,,,,,5,,,59,0
56014,note_on,46,0,2,,,,,,,,,6,,,44,0
56016,note_on,2,0,2,,,,,,,,,6,,,47,110
56032,note_on,160,0,6,,,,,,,,,3,,,52,0
56062,note_on,46,0,2,,,,,,,,,6,,,47,0
56064,note_on,32,0,6,,,,,,,,,3,,,52,75
56064,note_on,64,0,1,,,,,,,,,5,,,64,110
56064,note_on,2,0,2,,,,,,,,,6,,,52,110
56096,note_on,32,0,1,,,,,,,,,5,,,64,0
56110,note_on,46,0,2,,,,,,,,,6,,,52,0
56112,note_on,2,0,2,,,,,,,,,6,,,47,110
56158,note_on,46,0,2,,,,,,,,,6,,,47,0
56160,note_on,2,0,2,,,,,,,,,6,,,44,110
56160,note_on,64,0,1,,,,,,,,,5,,,68,110
56192,note_on,32,0,1,,,,,,,,,5,,,68,0
56206,note_on,46,0,2,,,,,,,,,6,,,44,0
56208,note_on,2,0,2,,,,,,,,,6,,,47,110
56224,note_on,160,0,6,,,,,,,,,3,,,52,0
56254,note_on,46,0,2,,,,,,,,,6,,,47,0
56256,note_on,2,0,2,,,,,,,,,6,,,52,110
56256,note_on,32,0,6,,,,,,,,,3,,,52,75
56256,note_on,64,0,1,,,,,,,,,5,,,71,110
56288,note_on,32,0,1,,,,,,,,,5,,,71,0
56302,note_on,46,0,2,,,,,,,,,6,,,52,0
56304,note_on,2,0,2,,,,,,,,,6,,,47,110
56350,note_on,46,0,2,,,,,,,,,6,,,47,0
56352,note_on,64,0,1,,,,,,,,,5,,,74,110
56352,note_on,2,0,2,,,,,,,,,6,,,44,110
56398,note_on,46,0,2,,,,,,,,,6,,,44,0
56400,note_on,2,0,2,,,,,,,,,6,,,47,110
56416,note_on,160,0,6,,,,,,,,,3,,,52,0
56446,note_on,94,0,1,,,,,,,,,5,,,74,0
56446,note_on,46,0,2,,,,,,,,,6,,,47,0
56448,note_on,2,0,1,,,,,,,,,5,,,64,110
56448,note_on,0,0,1,,,,,,,,,5,,,73,110
56448,note_on,32,0,6,,,,,,,,,3,,,57,75
56448,note_on,3296,0,3,,,,,,,,,0,,,73,127
56448,note_on,3296,0,7,,,,,,,,,7,,,45,92
56448,note_on,2,0,2,,,,,,,,,6,,,57,110
56448,note_on,3296,0,5,,,,,,,,,2,,,64,92
56542,note_on,94,0,3,,,,,,,,,0,,,73,0
56542,note_on,0,0,1,,,,,,,,,5,,,73,0
56542,note_on,94,0,1,,,,,,,,,5,,,64,0
56542,note_on,94,0,5,,,,,,,,,2,,,64,0
56542,note_on,94,0,2,,,,,,,,,6,,,57,0
56542,note_on,94,0,7,,,,,,,,,7,,,45,0
56542,note_on,94,0,6,,,,,,,,,3,,,57,0
56544,note_on,3392,0,4,,,,,,,,,1,,,76,75
56544,note_on,2,0,2,,,,,,,,,6,,,49,110
56544,note_on,2,0,6,,,,,,,,,3,,,49,75
56544,note_on,2,0,3,,,,,,,,,0,,,69,127
56544,note_on,2,0,7,,,,,,,,,7,,,37,92
56544,note_on,2,0,1,,,,,,,,,5,,,69,110
56544,note_on,2,0,5,,,,,,,,,2,,,64,92
56576,note_on,32,0,4,,,,,,,,,1,,,76,0
56638,note_on,94,0,6,,,,,,,,,3,,,49,0
56638,note_on,94,0,7,,,,,,,,,7,,,37,0
56638,note_on,94,0,2,,,,,,,,,6,,,49,0
56638,note_on,94,0,5,,,,,,,,,2,,,64,0
56640,note_on,2,0,7,,,,,,,,,7,,,33,92
56640,note_on,2,0,6,,,,,,,,,3,,,45,75
56640,note_on,2,0,5,,,,,,,,,2,,,61,92
56640,note_on,64,0,4,,,,,,,,,1,,,76,75
56640,note_on,2,0,2,,,,,,,,,6,,,45,110
56672,note_on,32,0,4,,,,,,,,,1,,,76,0
56734,note_on,190,0,3,,,,,,,,,0,,,69,0
56734,note_on,190,0,1,,,,,,,,,5,,,69,0
56736,note_on,2,0,3,,,,,,,,,0,,,74,127
56736,note_on,64,0,4,,,,,,,,,1,,,76,75
56736,note_on,2,0,1,,,,,,,,,5,,,74,110
56768,note_on,32,0,4,,,,,,,,,1,,,76,0
56800,note_on,160,0,6,,,,,,,,,3,,,45,0
56800,note_on,160,0,2,,,,,,,,,6,,,45,0
56800,note_on,160,0,5,,,,,,,,,2,,,61,0
56800,note_on,160,0,7,,,,,,,,,7,,,33,0
56830,note_on,94,0,1,,,,,,,,,5,,,74,0
56830,note_on,94,0,3,,,,,,,,,0,,,74,0
56832,note_on,2,0,1,,,,,,,,,5,,,73,110
56832,note_on,64,0,4,,,,,,,,,1,,,76,75
56832,note_on,2,0,3,,,,,,,,,0,,,73,127
56864,note_on,32,0,4,,,,,,,,,1,,,76,0
56926,note_on,94,0,3,,,,,,,,,0,,,73,0
56926,note_on,94,0,1,,,,,,,,,5,,,73,0
56928,note_on,2,0,3,,,,,,,,,0,,,71,127
56928,note_on,128,0,5,,,,,,,,,2,,,68,92
56928,note_on,128,0,7,,,,,,,,,7,,,40,92
56928,note_on,0,0,1,,,,,,,,,5,,,71,110
56928,note_on,2,0,1,,,,,,,,,5,,,68,110
56928,note_on,64,0,4,,,,,,,,,1,,,76,75
56928,note_on,128,0,6,,,,,,,,,3,,,52,75
56928,note_on,128,0,2,,,,,,,,,6,,,52,110
56960,note_on,32,0,4,,,,,,,,,1,,,76,0
57022,note_on,94,0,2,,,,,,,,,6,,,52,0
57022,note_on,0,0,1,,,,,,,,,5,,,71,0
57022,note_on,94,0,1,,,,,,,,,5,,,68,0
57022,note_on,94,0,3,,,,,,,,,0,,,71,0
57022,note_on,94,0,5,,,,,,,,,2,,,68,0
57022,note_on,94,0,6,,,,,,,,,3,,,52,0
57022,note_on,94,0,7,,,,,,,,,7,,,40,0
57024,note_on,2,0,2,,,,,,,,,6,,,57,110
57024,note_on,2,0,5,,,,,,,,,2,,,64,92
57024,note_on,2,0,3,,,,,,,,,0,,,73,127
57024,note_on,0,0,1,,,,,,,,,5,,,73,110
57024,note_on,2,0,7,,,,,,,,,7,,,45,92
57024,note_on,2,0,1,,,,,,,,,5,,,64,110
57024,note_on,2,0,6,,,,,,,,,3,,,57,75
57024,note_on,64,0,4,,,,,,,,,1,,,76,75
57056,note_on,32,0,4,,,,,,,,,1,,,76,0
57118,note_on,0,0,1,,,,,,,,,5,,,73,0
57118,note_on,94,0,7,,,,,,,,,7,,,45,0
57118,note_on,94,0,2,,,,,,,,,6,,,57,0
57118,note_on,94,0,1,,,,,,,,,5,,,64,0
57118,note_on,94,0,6,,,,,,,,,3,,,57,0
57118,note_on,94,0,3,,,,,,,,,0,,,73,0
57118,note_on,94,0,5,,,,,,,,,2,,,64,0
57120,note_on,2,0,3,,,,,,,,,0,,,69,127
57120,note_on,2,0,7,,,,,,,,,7,,,37,92
57120,note_on,2,0,6,,,,,,,,,3,,,49,75
57120,note_on,64,0,4,,,,,,,,,1,,,76,75
57120,note_on,2,0,2,,,,,,,,,6,,,49,110
57120,note_on,2,0,1,,,,,,,,,5,,,69,110
57120,note_on,2,0,5,,,,,,,,,2,,,64,92
57152,note_on,32,0,4,,,,,,,,,1,,,76,0
57214,note_on,94,0,6,,,,,,,,,3,,,49,0
57214,note_on,94,0,5,,,,,,,,,2,,,64,0
57214,note_on,94,0,7,,,,,,,,,7,,,37,0
57214,note_on,94,0,2,,,,,,,,,6,,,49,0
57216,note_on,64,0,4,,,,,,,,,1,,,76,75
57216,note_on,2,0,7,,,,,,,,,7,,,33,92
57216,note_on,2,0,2,,,,,,,,,6,,,45,110
57216,note_on,2,0,6,,,,,,,,,3,,,45,75
57216,note_on,2,0,5,,,,,,,,,2,,,61,92
57248,note_on,32,0,4,,,,,,,,,1,,,76,0
57310,note_on,190,0,1,,,,,,,,,5,,,69,0
57310,note_on,190,0,3,,,,,,,,,0,,,69,0
57312,note_on,64,0,4,,,,,,,,,1,,,76,75
57312,note_on,2,0,1,,,,,,,,,5,,,76,110
57312,note_on,2,0,3,,,,,,,,,0,,,76,127
57344,note_on,32,0,4,,,,,,,,,1,,,76,0
57376,note_on,160,0,2,,,,,,,,,6,,,45,0
57376,note_on,160,0,7,,,,,,,,,7,,,33,0
57376,note_on,160,0,6,,,,,,,,,3,,,45,0
57376,note_on,160,0,5,,,,,,,,,2,,,61,0
57406,note_on,94,0,1,,,,,,,,,5,,,76,0
57406,note_on,94,0,3,,,,,,,,,0,,,76,0
57408,note_on,2,0,1,,,,,,,,,5,,,78,110
57408,note_on,64,0,4,,,,,,,,,1,,,76,75
57408,note_on,2,0,3,,,,,,,,,0,,,78,127
57440,note_on,32,0,4,,,,,,,,,1,,,76,0
57502,note_on,94,0,1,,,,,,,,,5,,,78,0
57502,note_on,94,0,3,,,,,,,,,0,,,78,0
57504,note_on,128,0,2,,,,,,,,,6,,,52,110
57504,note_on,64,0,4,,,,,,,,,1,,,76,75
57504,note_on,0,0,1,,,,,,,,,5,,,80,110
57504,note_on,2,0,1,,,,,,,,,5,,,71,110
57504,note_on,128,0,7,,,,,,,,,7,,,40,92
57504,note_on,2,0,3,,,,,,,,,0,,,80,127
57504,note_on,128,0,6,,,,,,,,,3,,,52,75
57504,note_on,128,0,5,,,,,,,,,2,,,64,92
57536,note_on,32,0,4,,,,,,,,,1,,,76,0
57598,note_on,94,0,3,,,,,,,,,0,,,80,0
57598,note_on,94,0,2,,,,,,,,,6,,,52,0
57598,note_on,94,0,7,,,,,,,,,7,,,40,0
57598,note_on,94,0,6,,,,,,,,,3,,,52,0
57598,note_on,0,0,1,,,,,,,,,5,,,80,0
57598,note_on,94,0,1,,,,,,,,,5,,,71,0
57598,note_on,94,0,5,,,,,,,,,2,,,64,0
57600,note_on,2,0,7,,,,,,,,,7,,,45,92
57600,note_on,2,0,3,,,,,,,,,0,,,73,127
57600,note_on,64,0,4,,,,,,,,,1,,,76,75
57600,note_on,2,0,6,,,,,,,,,3,,,57,75
57600,note_on,2,0,2,,,,,,,,,6,,,57,110
57600,note_on,0,0,3,,,,,,,,,0,,,81,127
57600,note_on,2,0,5,,,,,,,,,2,,,64,92
57600,note_on,0,0,1,,,,,,,,,5,,,81,110
57600,note_on,2,0,1,,,,,,,,,5,,,73,110
57632,note_on,32,0,4,,,,,,,,,1,,,76,0
57694,note_on,0,0,1,,,,,,,,,5,,,81,0
57694,note_on,94,0,3,,,,,,,,,0,,,73,0
57694,note_on,94,0,5,,,,,,,,,2,,,64,0
57694,note_on,94,0,2,,,,,,,,,6,,,57,0
57694,note_on,94,0,6,,,,,,,,,3,,,57,0
57694,note_on,94,0,7,,,,,,,,,7,,,45,0
57694,note_on,0,0,3,,,,,,,,,0,,,81,0
57694,note_on,94,0,1,,,,,,,,,5,,,73,0
57696,note_on,2,0,7,,,,,,,,,7,,,37,92
57696,note_on,64,0,4,,,,,,,,,1,,,76,75
57696,note_on,2,0,2,,,,,,,,,6,,,49,110
57696,note_on,2,0,3,,,,,,,,,0,,,69,127
57696,note_on,2,0,1,,,,,,,,,5,,,69,110
57696,note_on,2,0,6,,,,,,,,,3,,,49,75
57696,note_on,2,0,5,,,,,,,,,2,,,64,92
57728,note_on,32,0,4,,,,,,,,,1,,,76,0
57790,note_on,94,0,2,,,,,,,,,6,,,49,0
57790,note_on,94,0,7,,,,,,,,,7,,,37,0
57790,note_on,94,0,5,,,,,,,,,2,,,64,0
57790,note_on,94,0,6,,,,,,,,,3,,,49,0
57792,note_on,2,0,2,,,,,,,,,6,,,45,110
57792,note_on,2,0,7,,,,,,,,,7,,,33,92
57792,note_on,2,0,5,,,,,,,,,2,,,61,92
57792,note_on,2,0,6,,,,,,,,,3,,,45,75
57792,note_on,64,0,4,,,,,,,,,1,,,76,75
57824,note_on,32,0,4,,,,,,,,,1,,,76,0
57886,note_on,190,0,1,,,,,,,,,5,,,69,0
57886,note_on,190,0,3,,,,,,,,,0,,,69,0
57888,note_on,64,0,4,,,,,,,,,1,,,76,75
57888,note_on,2,0,1,,,,,,,,,5,,,74,110
57888,note_on,2,0,3,,,,,,,,,0,,,74,127
57920,note_on,32,0,4,,,,,,,,,1,,,76,0
57952,note_on,160,0,5,,,,,,,,,2,,,61,0
57952,note_on,160,0,7,,,,,,,,,7,,,33,0
57952,note_on,160,0,6,,,,,,,,,3,,,45,0
57952,note_on,160,0,2,,,,,,,,,6,,,45,0
57982,note_on,94,0,3,,,,,,,,,0,,,74,0
57982,note_on,94,0,1,,,,,,,,,5,,,74,0
57984,note_on,2,0,3,,,,,,,,,0,,,73,127
57984,note_on,64,0,4,,,,,,,,,1,,,76,75
57984,note_on,2,0,1,,,,,,,,,5,,,73,110
58016,note_on,32,0,4,,,,,,,,,1,,,76,0
58078,note_on,94,0,3,,,,,,,,,0,,,73,0
58078,note_on,94,0,1,,,,,,,,,5,,,73,0
58080,note_on,128,0,7,,,,,,,,,7,,,40,92
58080,note_on,128,0,5,,,,,,,,,2,,,64,92
58080,note_on,128,0,6,,,,,,,,,3,,,52,75
58080,note_on,2,0,1,,,,,,,,,5,,,68,110
58080,note_on,128,0,2,,,,,,,,,6,,,52,110
58080,note_on,2,0,3,,,,,,,,,0,,,71,127
58080,note_on,64,0,4,,,,,,,,,1,,,80,127
58080,note_on,0,0,1,,,,,,,,,5,,,71,110
58174,note_on,94,0,7,,,,,,,,,7,,,40,0
58174,note_on,94,0,2,,,,,,,,,6,,,52,0
58174,note_on,0,0,1,,,,,,,,,5,,,71,0
58174,note_on,94,0,5,,,,,,,,,2,,,64,0
58174,note_on,94,0,4,,,,,,,,,1,,,80,0
58174,note_on,94,0,6,,,,,,,,,3,,,52,0
58174,note_on,94,0,1,,,,,,,,,5,,,68,0
58174,note_on,94,0,3,,,,,,,,,0,,,71,0
58176,note_on,2,0,5,,,,,,,,,2,,,64,92
58176,note_on,2,0,7,,,,,,,,,7,,,45,92
58176,note_on,2,0,1,,,,,,,,,5,,,64,110
58176,note_on,2,0,6,,,,,,,,,3,,,57,75
58176,note_on,0,0,1,,,,,,,,,5,,,73,110
58176,note_on,2,0,3,,,,,,,,,0,,,73,127
58176,note_on,2,0,2,,,,,,,,,6,,,57,110
58176,note_on,2,0,4,,,,,,,,,1,,,81,127
58270,note_on,94,0,7,,,,,,,,,7,,,45,0
58270,note_on,94,0,5,,,,,,,,,2,,,64,0
58270,note_on,94,0,3,,,,,,,,,0,,,73,0
58270,note_on,94,0,2,,,,,,,,,6,,,57,0
58270,note_on,94,0,6,,,,,,,,,3,,,57,0
58270,note_on,0,0,1,,,,,,,,,5,,,73,0
58270,note_on,94,0,1,,,,,,,,,5,,,64,0
58270,note_on,94,0,4,,,,,,,,,1,,,81,0
58272,note_on,2,0,1,,,,,,,,,5,,,76,110
58272,note_on,2,0,4,,,,,,,,,1,,,69,127
58272,note_on,2,0,3,,,,,,,,,0,,,76,75
58272,note_on,2,0,5,,,,,,,,,2,,,64,92
58272,note_on,2,0,2,,,,,,,,,6,,,49,110
58272,note_on,2,0,7,,,,,,,,,7,,,37,92
58272,note_on,2,0,6,,,,,,,,,3,,,49,75
58304,note_on,32,0,3,,,,,,,,,0,,,76,0
58366,note_on,94,0,1,,,,,,,,,5,,,76,0
58366,note_on,94,0,5,,,,,,,,,2,,,64,0
58366,note_on,94,0,6,,,,,,,,,3,,,49,0
58366,note_on,94,0,2,,,,,,,,,6,,,49,0
58366,note_on,94,0,7,,,,,,,,,7,,,37,0
58368,note_on,64,0,3,,,,,,,,,0,,,76,75
58368,note_on,2,0,6,,,,,,,,,3,,,45,75
58368,note_on,2,0,5,,,,,,,,,2,,,61,92
58368,note_on,2,0,1,,,,,,,,,5,,,76,110
58368,note_on,2,0,7,,,,,,,,,7,,,33,92
58368,note_on,2,0,2,,,,,,,,,6,,,45,110
58400,note_on,32,0,3,,,,,,,,,0,,,76,0
58462,note_on,94,0,1,,,,,,,,,5,,,76,0
58462,note_on,190,0,4,,,,,,,,,1,,,69,0
58464,note_on,2,0,1,,,,,,,,,5,,,76,110
58464,note_on,2,0,4,,,,,,,,,1,,,74,127
58464,note_on,64,0,3,,,,,,,,,0,,,76,75
58496,note_on,32,0,3,,,,,,,,,0,,,76,0
58528,note_on,160,0,5,,,,,,,,,2,,,61,0
58528,note_on,160,0,7,,,,,,,,,7,,,33,0
58528,note_on,160,0,6,,,,,,,,,3,,,45,0
58528,note_on,160,0,2,,,,,,,,,6,,,45,0
58558,note_on,94,0,1,,,,,,,,,5,,,76,0
58558,note_on,94,0,4,,,,,,,,,1,,,74,0
58560,note_on,64,0,3,,,,,,,,,0,,,76,75
58560,note_on,2,0,4,,,,,,,,,1,,,73,127
58560,note_on,2,0,1,,,,,,,,,5,,,76,110
58592,note_on,32,0,3,,,,,,,,,0,,,76,0
58654,note_on,94,0,4,,,,,,,,,1,,,73,0
58654,note_on,94,0,1,,,,,,,,,5,,,76,0
58656,note_on,128,0,6,,,,,,,,,3,,,52,75
58656,note_on,2,0,4,,,,,,,,,1,,,71,127
58656,note_on,2,0,1,,,,,,,,,5,,,71,110
58656,note_on,128,0,7,,,,,,,,,7,,,40,92
58656,note_on,128,0,2,,,,,,,,,6,,,52,110
58656,note_on,64,0,3,,,,,,,,,0,,,76,75
58656,note_on,128,0,5,,,,,,,,,2,,,64,92
58656,note_on,0,0,1,,,,,,,,,5,,,76,110
58688,note_on,32,0,3,,,,,,,,,0,,,76,0
58750,note_on,0,0,1,,,,,,,,,5,,,76,0
58750,note_on,94,0,1,,,,,,,,,5,,,71,0
58750,note_on,94,0,7,,,,,,,,,7,,,40,0
58750,note_on,94,0,5,,,,,,,,,2,,,64,0
58750,note_on,94,0,6,,,,,,,,,3,,,52,0
58750,note_on,94,0,4,,,,,,,,,1,,,71,0
58750,note_on,94,0,2,,,,,,,,,6,,,52,0
58752,note_on,2,0,7,,,,,,,,,7,,,45,92
58752,note_on,2,0,5,,,,,,,,,2,,,64,92
58752,note_on,2,0,6,,,,,,,,,3,,,57,75
58752,note_on,2,0,4,,,,,,,,,1,,,73,127
58752,note_on,0,0,1,,,,,,,,,5,,,76,110
58752,note_on,2,0,1,,,,,,,,,5,,,73,110
58752,note_on,2,0,2,,,,,,,,,6,,,57,110
58752,note_on,64,0,3,,,,,,,,,0,,,76,75
58784,note_on,32,0,3,,,,,,,,,0,,,76,0
58846,note_on,94,0,2,,,,,,,,,6,,,57,0
58846,note_on,94,0,6,,,,,,,,,3,,,57,0
58846,note_on,94,0,4,,,,,,,,,1,,,73,0
58846,note_on,94,0,1,,,,,,,,,5,,,73,0
58846,note_on,94,0,5,,,,,,,,,2,,,64,0
58846,note_on,0,0,1,,,,,,,,,5,,,76,0
58846,note_on,94,0,7,,,,,,,,,7,,,45,0
58848,note_on,2,0,5,,,,,,,,,2,,,64,92
58848,note_on,2,0,1,,,,,,,,,5,,,76,110
58848,note_on,64,0,3,,,,,,,,,0,,,76,75
58848,note_on,2,0,7,,,,,,,,,7,,,37,92
58848,note_on,2,0,4,,,,,,,,,1,,,69,127
58848,note_on,2,0,6,,,,,,,,,3,,,49,75
58848,note_on,2,0,2,,,,,,,,,6,,,49,110
58880,note_on,32,0,3,,,,,,,,,0,,,76,0
58942,note_on,94,0,1,,,,,,,,,5,,,76,0
58942,note_on,94,0,6,,,,,,,,,3,,,49,0
58942,note_on,94,0,7,,,,,,,,,7,,,37,0
58942,note_on,94,0,5,,,,,,,,,2,,,64,0
58942,note_on,94,0,2,,,,,,,,,6,,,49,0
58944,note_on,2,0,6,,,,,,,,,3,,,45,75
58944,note_on,2,0,2,,,,,,,,,6,,,45,110
58944,note_on,2,0,7,,,,,,,,,7,,,33,92
58944,note_on,64,0,3,,,,,,,,,0,,,76,75
58944,note_on,2,0,5,,,,,,,,,2,,,61,92
58944,note_on,2,0,1,,,,,,,,,5,,,76,110
58976,note_on,32,0,3,,,,,,,,,0,,,76,0
59038,note_on,94,0,1,,,,,,,,,5,,,76,0
59038,note_on,190,0,4,,,,,,,,,1,,,69,0
59040,note_on,64,0,3,,,,,,,,,0,,,76,75
59040,note_on,2,0,1,,,,,,,,,5,,,76,110
59040,note_on,2,0,4,,,,,,,,,1,,,76,127
59072,note_on,32,0,3,,,,,,,,,0,,,76,0
59104,note_on,160,0,2,,,,,,,,,6,,,45,0
59104,note_on,160,0,5,,,,,,,,,2,,,61,0
59104,note_on,160,0,7,,,,,,,,,7,,,33,0
59104,note_on,160,0,6,,,,,,,,,3,,,45,0
59134,note_on,94,0,4,,,,,,,,,1,,,76,0
59134,note_on,94,0,1,,,,,,,,,5,,,76,0
59136,note_on,2,0,1,,,,,,,,,5,,,76,110
59136,note_on,64,0,3,,,,,,,,,0,,,76,75
59136,note_on,2,0,4,,,,,,,,,1,,,78,127
59168,note_on,32,0,3,,,,,,,,,0,,,76,0
59230,note_on,94,0,1,,,,,,,,,5,,,76,0
59230,note_on,94,0,4,,,,,,,,,1,,,78,0
59232,note_on,128,0,6,,,,,,,,,3,,,52,75
59232,note_on,2,0,1,,,,,,,,,5,,,71,110
59232,note_on,2,0,4,,,,,,,,,1,,,80,127
59232,note_on,0,0,1,,,,,,,,,5,,,76,110
59232,note_on,64,0,3,,,,,,,,,0,,,76,75
59232,note_on,128,0,5,,,,,,,,,2,,,64,92
59232,note_on,128,0,2,,,,,,,,,6,,,52,110
59232,note_on,128,0,7,,,,,,,,,7,,,40,92
59264,note_on,32,0,3,,,,,,,,,0,,,76,0
59326,note_on,94,0,7,,,,,,,,,7,,,40,0
59326,note_on,94,0,4,,,,,,,,,1,,,80,0
59326,note_on,94,0,2,,,,,,,,,6,,,52,0
59326,note_on,94,0,5,,,,,,,,,2,,,64,0
59326,note_on,94,0,6,,,,,,,,,3,,,52,0
59326,note_on,94,0,1,,,,,,,,,5,,,71,0
59326,note_on,0,0,1,,,,,,,,,5,,,76,0
59328,note_on,2,0,4,,,,,,,,,1,,,81,127
59328,note_on,0,0,1,,,,,,,,,5,,,76,110
59328,note_on,64,0,3,,,,,,,,,0,,,76,75
59328,note_on,2,0,6,,,,,,,,,3,,,57,75
59328,note_on,2,0,2,,,,,,,,,6,,,57,110
59328,note_on,2,0,7,,,,,,,,,7,,,45,92
59328,note_on,2,0,1,,,,,,,,,5,,,73,110
59328,note_on,2,0,5,,,,,,,,,2,,,64,92
59360,note_on,32,0,3,,,,,,,,,0,,,76,0
59422,note_on,94,0,6,,,,,,,,,3,,,57,0
59422,note_on,94,0,1,,,,,,,,,5,,,73,0
59422,note_on,0,0,1,,,,,,,,,5,,,76,0
59422,note_on,94,0,4,,,,,,,,,1,,,81,0
59422,note_on,94,0,7,,,,,,,,,7,,,45,0
59422,note_on,94,0,2,,,,,,,,,6,,,57,0
59422,note_on,94,0,5,,,,,,,,,2,,,64,0
59424,note_on,2,0,5,,,,,,,,,2,,,64,92
59424,note_on,2,0,7,,,,,,,,,7,,,37,92
59424,note_on,2,0,6,,,,,,,,,3,,,49,75
59424,note_on,2,0,1,,,,,,,,,5,,,76,110
59424,note_on,2,0,4,,,,,,,,,1,,,69,127
59424,note_on,64,0,3,,,,,,,,,0,,,76,75
59424,note_on,2,0,2,,,,,,,,,6,,,49,110
59456,note_on,32,0,3,,,,,,,,,0,,,76,0
59518,note_on,94,0,2,,,,,,,,,6,,,49,0
59518,note_on,94,0,6,,,,,,,,,3,,,49,0
59518,note_on,94,0,5,,,,,,,,,2,,,64,0
59518,note_on,94,0,7,,,,,,,,,7,,,37,0
59518,note_on,94,0,1,,,,,,,,,5,,,76,0
59520,note_on,64,0,3,,,,,,,,,0,,,76,75
59520,note_on,2,0,2,,,,,,,,,6,,,45,110
59520,note_on,2,0,6,,,,,,,,,3,,,45,75
59520,note_on,2,0,5,,,,,,,,,2,,,61,92
59520,note_on,2,0,7,,,,,,,,,7,,,33,92
59520,note_on,2,0,1,,,,,,,,,5,,,76,110
59552,note_on,32,0,3,,,,,,,,,0,,,76,0
59614,note_on,94,0,1,,,,,,,,,5,,,76,0
59614,note_on,190,0,4,,,,,,,,,1,,,69,0
59616,note_on,64,0,3,,,,,,,,,0,,,76,75
59616,note_on,2,0,1,,,,,,,,,5,,,76,110
59616,note_on,2,0,4,,,,,,,,,1,,,74,127
59648,note_on,32,0,3,,,,,,,,,0,,,76,0
59680,note_on,160,0,5,,,,,,,,,2,,,61,0
59680,note_on,160,0,6,,,,,,,,,3,,,45,0
59680,note_on,160,0,7,,,,,,,,,7,,,33,0
59680,note_on,160,0,2,,,,,,,,,6,,,45,0
59710,note_on,94,0,4,,,,,,,,,1,,,74,0
59710,note_on,94,0,1,,,,,,,,,5,,,76,0
59712,note_on,2,0,4,,,,,,,,,1,,,73,127
59712,note_on,2,0,1,,,,,,,,,5,,,76,110
59712,note_on,64,0,3,,,,,,,,,0,,,76,75
59744,note_on,32,0,3,,,,,,,,,0,,,76,0
59806,note_on,94,0,1,,,,,,,,,5,,,76,0
59806,note_on,94,0,4,,,,,,,,,1,,,73,0
59808,note_on,64,0,3,,,,,,,,,0,,,80,127
59808,note_on,128,0,7,,,,,,,,,7,,,40,92
59808,note_on,2,0,4,,,,,,,,,1,,,71,127
59808,note_on,2,0,1,,,,,,,,,5,,,71,110
59808,note_on,0,0,1,,,,,,,,,5,,,80,110
59808,note_on,128,0,5,,,,,,,,,2,,,64,92
59808,note_on,128,0,6,,,,,,,,,3,,,52,75
59808,note_on,128,0,2,,,,,,,,,6,,,52,110
59902,note_on,94,0,1,,,,,,,,,5,,,71,0
59902,note_on,94,0,2,,,,,,,,,6,,,52,0
59902,note_on,0,0,1,,,,,,,,,5,,,80,0
59902,note_on,94,0,4,,,,,,,,,1,,,71,0
59902,note_on,94,0,7,,,,,,,,,7,,,40,0
59902,note_on,94,0,3,,,,,,,,,0,,,80,0
59902,note_on,94,0,6,,,,,,,,,3,,,52,0
59902,note_on,94,0,5,,,,,,,,,2,,,64,0
59904,note_on,2,0,3,,,,,,,,,0,,,81,127
59904,note_on,2,0,7,,,,,,,,,7,,,33,92
59904,note_on,2,0,6,,,,,,,,,3,,,45,75
59904,note_on,2,0,5,,,,,,,,,2,,,64,92
59904,note_on,2,0,1,,,,,,,,,5,,,76,110
59904,note_on,2,0,2,,,,,,,,,6,,,61,110
59904,note_on,2,0,4,,,,,,,,,1,,,73,127
59904,note_on,0,0,1,,,,,,,,,5,,,81,110
59950,note_on,46,0,2,,,,,,,,,6,,,61,0
59950,note_on,46,0,1,,,,,,,,,5,,,76,0
59950,note_on,0,0,1,,,,,,,,,5,,,81,0
59952,note_on,2,0,2,,,,,,,,,6,,,62,110
59952,note_on,2,0,1,,,,,,,,,5,,,78,110
59998,note_on,46,0,1,,,,,,,,,5,,,78,0
59998,note_on,46,0,2,,,,,,,,,6,,,62,0
60000,note_on,2,0,1,,,,,,,,,5,,,76,110
60000,note_on,2,0,2,,,,,,,,,6,,,61,110
60046,note_on,46,0,2,,,,,,,,,6,,,61,0
60046,note_on,46,0,1,,,,,,,,,5,,,76,0
60048,note_on,2,0,2,,,,,,,,,6,,,62,110
60048,note_on,2,0,1,,,,,,,,,5,,,78,110
60064,note_on,160,0,4,,,,,,,,,1,,,73,0
60064,note_on,160,0,7,,,,,,,,,7,,,33,0
60064,note_on,160,0,3,,,,,,,,,0,,,81,0
60064,note_on,160,0,6,,,,,,,,,3,,,45,0
60064,note_on,160,0,5,,,,,,,,,2,,,64,0
60094,note_on,46,0,1,,,,,,,,,5,,,78,0
60094,note_on,46,0,2,,,,,,,,,6,,,62,0
60096,note_on,2,0,1,,,,,,,,,5,,,76,110
60096,note_on,2,0,2,,,,,,,,,6,,,61,110
60142,note_on,46,0,2,,,,,,,,,6,,,61,0
60142,note_on,46,0,1,,,,,,,,,5,,,76,0
60144,note_on,2,0,2,,,,,,,,,6,,,62,110
60144,note_on,2,0,1,,,,,,,,,5,,,78,110
60190,note_on,46,0,1,,,,,,,,,5,,,78,0
60190,note_on,46,0,2,,,,,,,,,6,,,62,0
60192,note_on,2,0,1,,,,,,,,,5,,,76,110
60192,note_on,2,0,2,,,,,,,,,6,,,61,110
60238,note_on,46,0,2,,,,,,,,,6,,,61,0
60238,note_on,46,0,1,,,,,,,,,5,,,76,0
60240,note_on,2,0,2,,,,,,,,,6,,,62,110
60240,note_on,2,0,1,,,,,,,,,5,,,78,110
60286,note_on,46,0,1,,,,,,,,,5,,,78,0
60286,note_on,46,0,2,,,,,,,,,6,,,62,0
60288,note_on,2,0,2,,,,,,,,,6,,,61,110
60288,note_on,2,0,1,,,,,,,,,5,,,76,110
60334,note_on,46,0,1,,,,,,,,,5,,,76,0
60334,note_on,46,0,2,,,,,,,,,6,,,61,0
60336,note_on,2,0,2,,,,,,,,,6,,,62,110
60336,note_on,2,0,1,,,,,,,,,5,,,78,110
60382,note_on,46,0,1,,,,,,,,,5,,,78,0
60382,note_on,46,0,2,,,,,,,,,6,,,62,0
60384,note_on,2,0,1,,,,,,,,,5,,,76,110
60384,note_on,2,0,2,,,,,,,,,6,,,61,110
60430,note_on,46,0,1,,,,,,,,,5,,,76,0
60430,note_on,46,0,2,,,,,,,,,6,,,61,0
60432,note_on,2,0,1,,,,,,,,,5,,,78,110
60432,note_on,2,0,2,,,,,,,,,6,,,62,110
60478,note_on,46,0,1,,,,,,,,,5,,,78,0
60478,note_on,46,0,2,,,,,,,,,6,,,62,0
60480,note_on,2,0,1,,,,,,,,,5,,,74,110
60480,note_on,416,0,6,,,,,,,,,3,,,47,75
60480,note_on,2,0,2,,,,,,,,,6,,,59,110
60526,note_on,46,0,2,,,,,,,,,6,,,59,0
60528,note_on,2,0,2,,,,,,,,,6,,,62,110
60574,note_on,46,0,2,,,,,,,,,6,,,62,0
60574,note_on,94,0,1,,,,,,,,,5,,,74,0
60576,note_on,2,0,2,,,,,,,,,6,,,56,110
60576,note_on,2,0,1,,,,,,,,,5,,,71,110
60608,note_on,32,0,1,,,,,,,,,5,,,71,0
60622,note_on,46,0,2,,,,,,,,,6,,,56,0
60624,note_on,2,0,2,,,,,,,,,6,,,62,110
60640,note_on,160,0,6,,,,,,,,,3,,,47,0
60670,note_on,46,0,2,,,,,,,,,6,,,62,0
60672,note_on,64,0,1,,,,,,,,,5,,,74,110
60672,note_on,2,0,2,,,,,,,,,6,,,59,110
60704,note_on,32,0,1,,,,,,,,,5,,,74,0
60718,note_on,46,0,2,,,,,,,,,6,,,59,0
60720,note_on,2,0,2,,,,,,,,,6,,,62,110
60766,note_on,46,0,2,,,,,,,,,6,,,62,0
60768,note_on,2,0,2,,,,,,,,,6,,,56,110
60768,note_on,64,0,1,,,,,,,,,5,,,71,110
60800,note_on,32,0,1,,,,,,,,,5,,,71,0
60814,note_on,46,0,2,,,,,,,,,6,,,56,0
60816,note_on,2,0,2,,,,,,,,,6,,,62,110
60862,note_on,46,0,2,,,,,,,,,6,,,62,0
60864,note_on,2,0,2,,,,,,,,,6,,,59,110
60864,note_on,64,0,1,,,,,,,,,5,,,74,110
60896,note_on,32,0,1,,,,,,,,,5,,,74,0
60910,note_on,46,0,2,,,,,,,,,6,,,59,0
60912,note_on,2,0,2,,,,,,,,,6,,,62,110
60958,note_on,46,0,2,,,,,,,,,6,,,62,0
60960,note_on,2,0,2,,,,,,,,,6,,,56,110
60960,note_on,64,0,1,,,,,,,,,5,,,71,110
60992,note_on,32,0,1,,,,,,,,,5,,,71,0
61006,note_on,46,0,2,,,,,,,,,6,,,56,0
61008,note_on,2,0,2,,,,,,,,,6,,,62,110
61054,note_on,46,0,2,,,,,,,,,6,,,62,0
61056,note_on,416,0,6,,,,,,,,,3,,,52,75
61056,note_on,64,0,1,,,,,,,,,5,,,74,110
61056,note_on,2,0,2,,,,,,,,,6,,,59,110
61102,note_on,46,0,1,,,,,,,,,5,,,74,0
61102,note_on,46,0,2,,,,,,,,,6,,,59,0
61104,note_on,2,0,1,,,,,,,,,5,,,76,110
61104,note_on,2,0,2,,,,,,,,,6,,,61,110
61150,note_on,46,0,2,,,,,,,,,6,,,61,0
61150,note_on,46,0,1,,,,,,,,,5,,,76,0
61152,note_on,2,0,1,,,,,,,,,5,,,74,110
61152,note_on,2,0,2,,,,,,,,,6,,,59,110
61198,note_on,46,0,1,,,,,,,,,5,,,74,0
61198,note_on,46,0,2,,,,,,,,,6,,,59,0
61200,note_on,2,0,1,,,,,,,,,5,,,76,110
61200,note_on,2,0,2,,,,,,,,,6,,,61,110
61216,note_on,160,0,6,,,,,,,,,3,,,52,0
61246,note_on,46,0,1,,,,,,,,,5,,,76,0
61246,note_on,46,0,2,,,,,,,,,6,,,61,0
61248,note_on,2,0,2,,,,,,,,,6,,,59,110
61248,note_on,2,0,1,,,,,,,,,5,,,74,110
61294,note_on,46,0,2,,,,,,,,,6,,,59,0
61294,note_on,46,0,1,,,,,,,,,5,,,74,0
61296,note_on,2,0,1,,,,,,,,,5,,,76,110
61296,note_on,2,0,2,,,,,,,,,6,,,61,110
61342,note_on,46,0,2,,,,,,,,,6,,,61,0
61342,note_on,46,0,1,,,,,,,,,5,,,76,0
61344,note_on,2,0,2,,,,,,,,,6,,,59,110
61344,note_on,2,0,1,,,,,,,,,5,,,74,110
61390,note_on,46,0,1,,,,,,,,,5,,,74,0
61390,note_on,46,0,2,,,,,,,,,6,,,59,0
61392,note_on,2,0,2,,,,,,,,,6,,,61,110
61392,note_on,2,0,1,,,,,,,,,5,,,76,110
61438,note_on,46,0,1,,,,,,,,,5,,,76,0
61438,note_on,46,0,2,,,,,,,,,6,,,61,0
61440,note_on,2,0,1,,,,,,,,,5,,,74,110
61440,note_on,2,0,2,,,,,,,,,6,,,59,110
61486,note_on,46,0,1,,,,,,,,,5,,,74,0
61486,note_on,46,0,2,,,,,,,,,6,,,59,0
61488,note_on,2,0,1,,,,,,,,,5,,,76,110
61488,note_on,2,0,2,,,,,,,,,6,,,61,110
61534,note_on,46,0,1,,,,,,,,,5,,,76,0
61534,note_on,46,0,2,,,,,,,,,6,,,61,0
61536,note_on,2,0,2,,,,,,,,,6,,,59,110
61536,note_on,2,0,1,,,,,,,,,5,,,74,110
61582,note_on,46,0,1,,,,,,,,,5,,,74,0
61582,note_on,46,0,2,,,,,,,,,6,,,59,0
61584,note_on,2,0,2,,,,,,,,,6,,,61,110
61584,note_on,2,0,1,,,,,,,,,5,,,76,110
61630,note_on,46,0,1,,,,,,,,,5,,,76,0
61630,note_on,46,0,2,,,,,,,,,6,,,61,0
61632,note_on,2,0,2,,,,,,,,,6,,,57,110
61632,note_on,416,0,6,,,,,,,,,3,,,45,75
61632,note_on,2,0,1,,,,,,,,,5,,,73,110
61678,note_on,46,0,2,,,,,,,,,6,,,57,0
61680,note_on,2,0,2,,,,,,,,,6,,,61,110
61726,note_on,94,0,1,,,,,,,,,5,,,73,0
61726,note_on,46,0,2,,,,,,,,,6,,,61,0
61728,note_on,2,0,1,,,,,,,,,5,,,69,110
61728,note_on,2,0,2,,,,,,,,,6,,,52,110
61760,note_on,32,0,1,,,,,,,,,5,,,69,0
61774,note_on,46,0,2,,,,,,,,,6,,,52,0
61776,note_on,2,0,2,,,,,,,,,6,,,61,110
61792,note_on,160,0,6,,,,,,,,,3,,,45,0
61822,note_on,46,0,2,,,,,,,,,6,,,61,0
61824,note_on,2,0,2,,,,,,,,,6,,,57,110
61824,note_on,64,0,1,,,,,,,,,5,,,73,110
61856,note_on,32,0,1,,,,,,,,,5,,,73,0
61870,note_on,46,0,2,,,,,,,,,6,,,57,0
61872,note_on,2,0,2,,,,,,,,,6,,,61,110
61918,note_on,46,0,2,,,,,,,,,6,,,61,0
61920,note_on,2,0,2,,,,,,,,,6,,,52,110
61920,note_on,64,0,1,,,,,,,,,5,,,69,110
61952,note_on,32,0,1,,,,,,,,,5,,,69,0
61966,note_on,46,0,2,,,,,,,,,6,,,52,0
61968,note_on,2,0,2,,,,,,,,,6,,,61,110
62014,note_on,46,0,2,,,,,,,,,6,,,61,0
62016,note_on,2,0,2,,,,,,,,,6,,,57,110
62016,note_on,64,0,1,,,,,,,,,5,,,73,110
62048,note_on,32,0,1,,,,,,,,,5,,,73,0
62062,note_on,46,0,2,,,,,,,,,6,,,57,0
62064,note_on,2,0,2,,,,,,,,,6,,,61,110
62110,note_on,46,0,2,,,,,,,,,6,,,61,0
62112,note_on,2,0,2,,,,,,,,,6,,,52,110
62112,note_on,64,0,1,,,,,,,,,5,,,69,110
62144,note_on,32,0,1,,,,,,,,,5,,,69,0
62158,note_on,46,0,2,,,,,,,,,6,,,52,0
62160,note_on,2,0,2,,,,,,,,,6,,,61,110
62206,note_on,46,0,2,,,,,,,,,6,,,61,0
62208,note_on,64,0,1,,,,,,,,,5,,,76,110
62208,note_on,2,0,2,,,,,,,,,6,,,61,110
62208,note_on,416,0,6,,,,,,,,,3,,,45,75
62254,note_on,46,0,1,,,,,,,,,5,,,76,0
62254,note_on,46,0,2,,,,,,,,,6,,,61,0
62256,note_on,2,0,1,,,,,,,,,5,,,78,110
62256,note_on,2,0,2,,,,,,,,,6,,,62,110
62302,note_on,46,0,1,,,,,,,,,5,,,78,0
62302,note_on,46,0,2,,,,,,,,,6,,,62,0
62304,note_on,2,0,1,,,,,,,,,5,,,76,110
62304,note_on,2,0,2,,,,,,,,,6,,,61,110
62350,note_on,46,0,2,,,,,,,,,6,,,61,0
62350,note_on,46,0,1,,,,,,,,,5,,,76,0
62352,note_on,2,0,2,,,,,,,,,6,,,62,110
62352,note_on,2,0,1,,,,,,,,,5,,,78,110
62368,note_on,160,0,6,,,,,,,,,3,,,45,0
62398,note_on,46,0,2,,,,,,,,,6,,,62,0
62398,note_on,46,0,1,,,,,,,,,5,,,78,0
62400,note_on,2,0,1,,,,,,,,,5,,,76,110
62400,note_on,2,0,2,,,,,,,,,6,,,61,110
62446,note_on,46,0,1,,,,,,,,,5,,,76,0
62446,note_on,46,0,2,,,,,,,,,6,,,61,0
62448,note_on,2,0,1,,,,,,,,,5,,,78,110
62448,note_on,2,0,2,,,,,,,,,6,,,62,110
62494,note_on,46,0,1,,,,,,,,,5,,,78,0
62494,note_on,46,0,2,,,,,,,,,6,,,62,0
62496,note_on,2,0,1,,,,,,,,,5,,,76,110
62496,note_on,2,0,2,,,,,,,,,6,,,61,110
62542,note_on,46,0,1,,,,,,,,,5,,,76,0
62542,note_on,46,0,2,,,,,,,,,6,,,61,0
62544,note_on,2,0,1,,,,,,,,,5,,,78,110
62544,note_on,2,0,2,,,,,,,,,6,,,62,110
62590,note_on,46,0,2,,,,,,,,,6,,,62,0
62590,note_on,46,0,1,,,,,,,,,5,,,78,0
62592,note_on,2,0,1,,,,,,,,,5,,,76,110
62592,note_on,2,0,2,,,,,,,,,6,,,61,110
62638,note_on,46,0,1,,,,,,,,,5,,,76,0
62638,note_on,46,0,2,,,,,,,,,6,,,61,0
62640,note_on,2,0,2,,,,,,,,,6,,,62,110
62640,note_on,2,0,1,,,,,,,,,5,,,78,110
62686,note_on,46,0,1,,,,,,,,,5,,,78,0
62686,note_on,46,0,2,,,,,,,,,6,,,62,0
62688,note_on,2,0,1,,,,,,,,,5,,,76,110
62688,note_on,2,0,2,,,,,,,,,6,,,61,110
62734,note_on,46,0,2,,,,,,,,,6,,,61,0
62734,note_on,46,0,1,,,,,,,,,5,,,76,0
62736,note_on,2,0,1,,,,,,,,,5,,,78,110
62736,note_on,2,0,2,,,,,,,,,6,,,62,110
62782,note_on,46,0,1,,,,,,,,,5,,,78,0
62782,note_on,46,0,2,,,,,,,,,6,,,62,0
62784,note_on,2,0,1,,,,,,,,,5,,,74,110
62784,note_on,416,0,6,,,,,,,,,3,,,47,75
62784,note_on,2,0,2,,,,,,,,,6,,,59,110
62830,note_on,46,0,2,,,,,,,,,6,,,59,0
62830,note_on,46,0,1,,,,,,,,,5,,,74,0
62832,note_on,2,0,2,,,,,,,,,6,,,61,110
62832,note_on,2,0,1,,,,,,,,,5,,,76,110
62878,note_on,46,0,2,,,,,,,,,6,,,61,0
62878,note_on,46,0,1,,,,,,,,,5,,,76,0
62880,note_on,2,0,2,,,,,,,,,6,,,59,110
62880,note_on,2,0,1,,,,,,,,,5,,,74,110
62926,note_on,46,0,2,,,,,,,,,6,,,59,0
62926,note_on,46,0,1,,,,,,,,,5,,,74,0
62928,note_on,2,0,1,,,,,,,,,5,,,76,110
62928,note_on,2,0,2,,,,,,,,,6,,,61,110
62944,note_on,160,0,6,,,,,,,,,3,,,47,0
62974,note_on,46,0,2,,,,,,,,,6,,,61,0
62974,note_on,46,0,1,,,,,,,,,5,,,76,0
62976,note_on,2,0,2,,,,,,,,,6,,,59,110
62976,note_on,2,0,1,,,,,,,,,5,,,74,110
63022,note_on,46,0,2,,,,,,,,,6,,,59,0
63022,note_on,46,0,1,,,,,,,,,5,,,74,0
63024,note_on,2,0,2,,,,,,,,,6,,,61,110
63024,note_on,2,0,1,,,,,,,,,5,,,76,110
63070,note_on,46,0,2,,,,,,,,,6,,,61,0
63070,note_on,46,0,1,,,,,,,,,5,,,76,0
63072,note_on,2,0,2,,,,,,,,,6,,,59,110
63072,note_on,2,0,1,,,,,,,,,5,,,74,110
63118,note_on,46,0,2,,,,,,,,,6,,,59,0
63118,note_on,46,0,1,,,,,,,,,5,,,74,0
63120,note_on,2,0,2,,,,,,,,,6,,,61,110
63120,note_on,2,0,1,,,,,,,,,5,,,76,110
63166,note_on,46,0,2,,,,,,,,,6,,,61,0
63166,note_on,46,0,1,,,,,,,,,5,,,76,0
63168,note_on,2,0,2,,,,,,,,,6,,,59,110
63168,note_on,224,0,6,,,,,,,,,3,,,52,75
63168,note_on,2,0,1,,,,,,,,,5,,,74,110
63214,note_on,46,0,2,,,,,,,,,6,,,59,0
63214,note_on,46,0,1,,,,,,,,,5,,,74,0
63216,note_on,2,0,1,,,,,,,,,5,,,76,110
63216,note_on,2,0,2,,,,,,,,,6,,,61,110
63262,note_on,46,0,2,,,,,,,,,6,,,61,0
63262,note_on,46,0,1,,,,,,,,,5,,,76,0
63264,note_on,2,0,1,,,,,,,,,5,,,74,110
63264,note_on,2,0,2,,,,,,,,,6,,,59,110
63310,note_on,46,0,2,,,,,,,,,6,,,59,0
63310,note_on,46,0,1,,,,,,,,,5,,,74,0
63312,note_on,2,0,2,,,,,,,,,6,,,61,110
63312,note_on,2,0,1,,,,,,,,,5,,,76,110
63328,note_on,160,0,6,,,,,,,,,3,,,52,0
63358,note_on,46,0,1,,,,,,,,,5,,,76,0
63358,note_on,46,0,2,,,,,,,,,6,,,61,0
63360,note_on,2,0,1,,,,,,,,,5,,,73,110
63360,note_on,2,0,2,,,,,,,,,6,,,57,110
63360,note_on,32,0,6,,,,,,,,,3,,,57,75
63406,note_on,46,0,1,,,,,,,,,5,,,73,0
63406,note_on,46,0,2,,,,,,,,,6,,,57,0
63408,note_on,2,0,1,,,,,,,,,5,,,74,110
63408,note_on,2,0,2,,,,,,,,,6,,,59,110
63454,note_on,46,0,1,,,,,,,,,5,,,74,0
63454,note_on,46,0,2,,,,,,,,,6,,,59,0
63456,note_on,2,0,2,,,,,,,,,6,,,57,110
63456,note_on,2,0,1,,,,,,,,,5,,,73,110
63502,note_on,46,0,2,,,,,,,,,6,,,57,0
63502,note_on,46,0,1,,,,,,,,,5,,,73,0
63504,note_on,2,0,2,,,,,,,,,6,,,59,110
63504,note_on,2,0,1,,,,,,,,,5,,,74,110
63520,note_on,160,0,6,,,,,,,,,3,,,57,0
63550,note_on,46,0,2,,,,,,,,,6,,,59,0
63550,note_on,46,0,1,,,,,,,,,5,,,74,0
63552,note_on,2,0,1,,,,,,,,,5,,,73,110
63552,note_on,32,0,6,,,,,,,,,3,,,51,75
63552,note_on,2,0,2,,,,,,,,,6,,,57,110
63598,note_on,46,0,2,,,,,,,,,6,,,57,0
63598,note_on,46,0,1,,,,,,,,,5,,,73,0
63600,note_on,2,0,2,,,,,,,,,6,,,59,110
63600,note_on,2,0,1,,,,,,,,,5,,,74,110
63646,note_on,46,0,1,,,,,,,,,5,,,74,0
63646,note_on,46,0,2,,,,,,,,,6,,,59,0
63648,note_on,2,0,2,,,,,,,,,6,,,57,110
63648,note_on,2,0,1,,,,,,,,,5,,,73,110
63694,note_on,46,0,1,,,,,,,,,5,,,73,0
63694,note_on,46,0,2,,,,,,,,,6,,,57,0
63696,note_on,2,0,1,,,,,,,,,5,,,74,110
63696,note_on,2,0,2,,,,,,,,,6,,,59,110
63742,note_on,46,0,1,,,,,,,,,5,,,74,0
63742,note_on,46,0,2,,,,,,,,,6,,,59,0
63744,note_on,2,0,1,,,,,,,,,5,,,73,110
63744,note_on,2,0,2,,,,,,,,,6,,,57,110
63790,note_on,46,0,1,,,,,,,,,5,,,73,0
63790,note_on,46,0,2,,,,,,,,,6,,,57,0
63792,note_on,2,0,2,,,,,,,,,6,,,59,110
63792,note_on,2,0,1,,,,,,,,,5,,,74,110
63838,note_on,46,0,1,,,,,,,,,5,,,74,0
63838,note_on,46,0,2,,,,,,,,,6,,,59,0
63840,note_on,2,0,1,,,,,,,,,5,,,73,110
63840,note_on,2,0,2,,,,,,,,,6,,,57,110
63886,note_on,46,0,2,,,,,,,,,6,,,57,0
63886,note_on,46,0,1,,,,,,,,,5,,,73,0
63888,note_on,336,0,6,,,,,,,,,3,,,51,0
63888,note_on,2,0,2,,,,,,,,,6,,,59,110
63888,note_on,2,0,1,,,,,,,,,5,,,74,110
63934,note_on,46,0,2,,,,,,,,,6,,,59,0
63934,note_on,46,0,1,,,,,,,,,5,,,74,0
63936,note_on,48,0,6,,,,,,,,,3,,,52,75
63936,note_on,2,0,2,,,,,,,,,6,,,56,110
63936,note_on,2,0,1,,,,,,,,,5,,,71,110
63982,note_on,46,0,1,,,,,,,,,5,,,71,0
63982,note_on,46,0,2,,,,,,,,,6,,,56,0
63984,note_on,2,0,1,,,,,,,,,5,,,76,110
63984,note_on,2,0,2,,,,,,,,,6,,,56,110
64030,note_on,46,0,2,,,,,,,,,6,,,56,0
64030,note_on,46,0,1,,,,,,,,,5,,,76,0
64032,note_on,2,0,1,,,,,,,,,5,,,78,110
64032,note_on,2,0,2,,,,,,,,,6,,,57,110
64078,note_on,46,0,1,,,,,,,,,5,,,78,0
64078,note_on,46,0,2,,,,,,,,,6,,,57,0
64080,note_on,2,0,2,,,,,,,,,6,,,59,110
64080,note_on,2,0,1,,,,,,,,,5,,,80,110
64096,note_on,160,0,6,,,,,,,,,3,,,52,0
64126,note_on,46,0,1,,,,,,,,,5,,,80,0
64126,note_on,46,0,2,,,,,,,,,6,,,59,0
64128,note_on,2,0,1,,,,,,,,,5,,,81,110
64128,note_on,2,0,2,,,,,,,,,6,,,61,110
64174,note_on,46,0,1,,,,,,,,,5,,,81,0
64174,note_on,46,0,2,,,,,,,,,6,,,61,0
64176,note_on,2,0,2,,,,,,,,,6,,,56,110
64176,note_on,2,0,1,,,,,,,,,5,,,76,110
64222,note_on,46,0,1,,,,,,,,,5,,,76,0
64222,note_on,46,0,2,,,,,,,,,6,,,56,0
64224,note_on,2,0,1,,,,,,,,,5,,,78,110
64224,note_on,2,0,2,,,,,,,,,6,,,57,110
64270,note_on,46,0,2,,,,,,,,,6,,,57,0
64270,note_on,46,0,1,,,,,,,,,5,,,78,0
64272,note_on,2,0,1,,,,,,,,,5,,,80,110
64272,note_on,2,0,2,,,,,,,,,6,,,59,110
64318,note_on,46,0,2,,,,,,,,,6,,,59,0
64318,note_on,46,0,1,,,,,,,,,5,,,80,0
64320,note_on,2,0,2,,,,,,,,,6,,,61,110
64320,note_on,2,0,1,,,,,,,,,5,,,81,110
64366,note_on,46,0,1,,,,,,,,,5,,,81,0
64366,note_on,46,0,2,,,,,,,,,6,,,61,0
64368,note_on,2,0,2,,,,,,,,,6,,,56,110
64368,note_on,2,0,1,,,,,,,,,5,,,76,110
64414,note_on,46,0,1,,,,,,,,,5,,,76,0
64414,note_on,46,0,2,,,,,,,,,6,,,56,0
64416,note_on,2,0,1,,,,,,,,,5,,,78,110
64416,note_on,2,0,2,,,,,,,,,6,,,57,110
64462,note_on,46,0,2,,,,,,,,,6,,,57,0
64462,note_on,46,0,1,,,,,,,,,5,,,78,0
64464,note_on,2,0,2,,,,,,,,,6,,,59,110
64464,note_on,2,0,1,,,,,,,,,5,,,80,110
64510,note_on,46,0,1,,,,,,,,,5,,,80,0
64510,note_on,46,0,2,,,,,,,,,6,,,59,0
64512,note_on,2,0,1,,,,,,,,,5,,,81,110
64512,note_on,2,0,2,,,,,,,,,6,,,61,110
64512,note_on,416,0,6,,,,,,,,,3,,,45,75
64558,note_on,46,0,1,,,,,,,,,5,,,81,0
64558,note_on,46,0,2,,,,,,,,,6,,,61,0
64560,note_on,2,0,2,,,,,,,,,6,,,56,110
64560,note_on,2,0,1,,,,,,,,,5,,,76,110
64606,note_on,46,0,1,,,,,,,,,5,,,76,0
64606,note_on,46,0,2,,,,,,,,,6,,,56,0
64608,note_on,2,0,1,,,,,,,,,5,,,78,110
64608,note_on,2,0,2,,,,,,,,,6,,,57,110
64654,note_on,46,0,1,,,,,,,,,5,,,78,0
64654,note_on,46,0,2,,,,,,,,,6,,,57,0
64656,note_on,2,0,1,,,,,,,,,5,,,80,110
64656,note_on,2,0,2,,,,,,,,,6,,,59,110
64672,note_on,160,0,6,,,,,,,,,3,,,45,0
64702,note_on,46,0,1,,,,,,,,,5,,,80,0
64702,note_on,46,0,2,,,,,,,,,6,,,59,0
64704,note_on,2,0,1,,,,,,,,,5,,,81,110
64704,note_on,2,0,2,,,,,,,,,6,,,61,110
64750,note_on,46,0,2,,,,,,,,,6,,,61,0
64750,note_on,46,0,1,,,,,,,,,5,,,81,0
64752,note_on,2,0,2,,,,,,,,,6,,,56,110
64752,note_on,2,0,1,,,,,,,,,5,,,76,110
64798,note_on,46,0,1,,,,,,,,,5,,,76,0
64798,note_on,46,0,2,,,,,,,,,6,,,56,0
64800,note_on,2,0,1,,,,,,,,,5,,,78,110
64800,note_on,2,0,2,,,,,,,,,6,,,57,110
64846,note_on,46,0,1,,,,,,,,,5,,,78,0
64846,note_on,46,0,2,,,,,,,,,6,,,57,0
64848,note_on,2,0,1,,,,,,,,,5,,,80,110
64848,note_on,2,0,2,,,,,,,,,6,,,59,110
64894,note_on,46,0,2,,,,,,,,,6,,,59,0
64894,note_on,46,0,1,,,,,,,,,5,,,80,0
64896,note_on,2,0,1,,,,,,,,,5,,,81,110
64896,note_on,2,0,2,,,,,,,,,6,,,61,110
64942,note_on,46,0,1,,,,,,,,,5,,,81,0
64942,note_on,46,0,2,,,,,,,,,6,,,61,0
64944,note_on,2,0,1,,,,,,,,,5,,,76,110
64944,note_on,2,0,2,,,,,,,,,6,,,56,110
64990,note_on,46,0,2,,,,,,,,,6,,,56,0
64990,note_on,46,0,1,,,,,,,,,5,,,76,0
64992,note_on,2,0,2,,,,,,,,,6,,,57,110
64992,note_on,2,0,1,,,,,,,,,5,,,78,110
65038,note_on,46,0,1,,,,,,,,,5,,,78,0
65038,note_on,46,0,2,,,,,,,,,6,,,57,0
65040,note_on,2,0,1,,,,,,,,,5,,,80,110
65040,note_on,2,0,2,,,,,,,,,6,,,59,110
65086,note_on,46,0,2,,,,,,,,,6,,,59,0
65086,note_on,46,0,1,,,,,,,,,5,,,80,0
65088,note_on,2,0,1,,,,,,,,,5,,,81,110
65088,note_on,416,0,6,,,,,,,,,3,,,45,75
65088,note_on,2,0,2,,,,,,,,,6,,,61,110
65182,note_on,94,0,2,,,,,,,,,6,,,61,0
65182,note_on,94,0,1,,,,,,,,,5,,,81,0
65184,note_on,2,0,1,,,,,,,,,5,,,76,110
65184,note_on,2,0,2,,,,,,,,,6,,,57,110
65248,note_on,160,0,6,,,,,,,,,3,,,45,0
65278,note_on,94,0,2,,,,,,,,,6,,,57,0
65278,note_on,94,0,1,,,,,,,,,5,,,76,0
65280,note_on,2,0,2,,,,,,,,,6,,,52,110
65280,note_on,2,0,1,,,,,,,,,5,,,73,110
65280,note_on,32,0,6,,,,,,,,,3,,,52,75
65374,note_on,94,0,2,,,,,,,,,6,,,52,0
65374,note_on,94,0,1,,,,,,,,,5,,,73,0
65376,note_on,2,0,2,,,,,,,,,6,,,57,110
65376,note_on,2,0,1,,,,,,,,,5,,,81,110
65440,note_on,160,0,6,,,,,,,,,3,,,52,0
65470,note_on,94,0,2,,,,,,,,,6,,,57,0
65470,note_on,94,0,1,,,,,,,,,5,,,81,0
65472,note_on,2,0,2,,,,,,,,,6,,,56,110
65472,note_on,32,0,6,,,,,,,,,3,,,40,75
65472,note_on,2,0,1,,,,,,,,,5,,,71,110
65566,note_on,94,0,2,,,,,,,,,6,,,56,0
65566,note_on,94,0,1,,,,,,,,,5,,,71,0
65568,note_on,2,0,2,,,,,,,,,6,,,59,110
65568,note_on,2,0,1,,,,,,,,,5,,,80,110
65632,note_on,160,0,6,,,,,,,,,3,,,40,0
65662,note_on,94,0,2,,,,,,,,,6,,,59,0
65662,note_on,94,0,1,,,,,,,,,5,,,80,0
65664,note_on,32,0,6,,,,,,,,,3,,,45,75
65664,note_on,2,0,1,,,,,,,,,5,,,81,110
65664,note_on,2,0,2,,,,,,,,,6,,,57,110
65710,note_on,46,0,2,,,,,,,,,6,,,57,0
65710,note_on,46,0,1,,,,,,,,,5,,,81,0
65712,note_on,2,0,1,,,,,,,,,5,,,76,110
65712,note_on,2,0,2,,,,,,,,,6,,,56,110
65758,note_on,46,0,2,,,,,,,,,6,,,56,0
65758,note_on,46,0,1,,,,,,,,,5,,,76,0
65760,note_on,2,0,2,,,,,,,,,6,,,57,110
65760,note_on,2,0,1,,,,,,,,,5,,,78,110
65806,note_on,46,0,2,,,,,,,,,6,,,57,0
65806,note_on,46,0,1,,,,,,,,,5,,,78,0
65808,note_on,2,0,2,,,,,,,,,6,,,59,110
65808,note_on,2,0,1,,,,,,,,,5,,,80,110
65824,note_on,160,0,6,,,,,,,,,3,,,45,0
65854,note_on,46,0,2,,,,,,,,,6,,,59,0
65854,note_on,46,0,1,,,,,,,,,5,,,80,0
65856,note_on,2,0,2,,,,,,,,,6,,,61,110
65856,note_on,2,0,1,,,,,,,,,5,,,81,110
65902,note_on,46,0,1,,,,,,,,,5,,,81,0
65902,note_on,46,0,2,,,,,,,,,6,,,61,0
65904,note_on,2,0,2,,,,,,,,,6,,,56,110
65904,note_on,2,0,1,,,,,,,,,5,,,76,110
65950,note_on,46,0,2,,,,,,,,,6,,,56,0
65950,note_on,46,0,1,,,,,,,,,5,,,76,0
65952,note_on,2,0,2,,,,,,,,,6,,,57,110
65952,note_on,2,0,1,,,,,,,,,5,,,78,110
65998,note_on,46,0,1,,,,,,,,,5,,,78,0
65998,note_on,46,0,2,,,,,,,,,6,,,57,0
66000,note_on,2,0,1,,,,,,,,,5,,,80,110
66000,note_on,2,0,2,,,,,,,,,6,,,59,110
66046,note_on,46,0,1,,,,,,,,,5,,,80,0
66046,note_on,46,0,2,,,,,,,,,6,,,59,0
66048,note_on,2,0,1,,,,,,,,,5,,,81,110
66048,note_on,2,0,2,,,,,,,,,6,,,61,110
66094,note_on,46,0,2,,,,,,,,,6,,,61,0
66094,note_on,46,0,1,,,,,,,,,5,,,81,0
66096,note_on,2,0,2,,,,,,,,,6,,,56,110
66096,note_on,2,0,1,,,,,,,,,5,,,76,110
66142,note_on,46,0,2,,,,,,,,,6,,,56,0
66142,note_on,46,0,1,,,,,,,,,5,,,76,0
66144,note_on,2,0,1,,,,,,,,,5,,,78,110
66144,note_on,2,0,2,,,,,,,,,6,,,57,110
66190,note_on,46,0,2,,,,,,,,,6,,,57,0
66190,note_on,46,0,1,,,,,,,,,5,,,78,0
66192,note_on,2,0,1,,,,,,,,,5,,,80,110
66192,note_on,2,0,2,,,,,,,,,6,,,59,110
66238,note_on,46,0,1,,,,,,,,,5,,,80,0
66238,note_on,46,0,2,,,,,,,,,6,,,59,0
66240,note_on,2,0,1,,,,,,,,,5,,,81,110
66240,note_on,2,0,2,,,,,,,,,6,,,61,110
66240,note_on,416,0,6,,,,,,,,,3,,,45,75
66286,note_on,46,0,1,,,,,,,,,5,,,81,0
66286,note_on,46,0,2,,,,,,,,,6,,,61,0
66288,note_on,2,0,2,,,,,,,,,6,,,56,110
66288,note_on,2,0,1,,,,,,,,,5,,,76,110
66334,note_on,46,0,1,,,,,,,,,5,,,76,0
66334,note_on,46,0,2,,,,,,,,,6,,,56,0
66336,note_on,2,0,1,,,,,,,,,5,,,78,110
66336,note_on,2,0,2,,,,,,,,,6,,,57,110
66382,note_on,46,0,2,,,,,,,,,6,,,57,0
66382,note_on,46,0,1,,,,,,,,,5,,,78,0
66384,note_on,2,0,2,,,,,,,,,6,,,59,110
66384,note_on,2,0,1,,,,,,,,,5,,,80,110
66400,note_on,160,0,6,,,,,,,,,3,,,45,0
66430,note_on,46,0,1,,,,,,,,,5,,,80,0
66430,note_on,46,0,2,,,,,,,,,6,,,59,0
66432,note_on,2,0,2,,,,,,,,,6,,,61,110
66432,note_on,2,0,1,,,,,,,,,5,,,81,110
66478,note_on,46,0,1,,,,,,,,,5,,,81,0
66478,note_on,46,0,2,,,,,,,,,6,,,61,0
66480,note_on,2,0,2,,,,,,,,,6,,,56,110
66480,note_on,2,0,1,,,,,,,,,5,,,76,110
66526,note_on,46,0,1,,,,,,,,,5,,,76,0
66526,note_on,46,0,2,,,,,,,,,6,,,56,0
66528,note_on,2,0,1,,,,,,,,,5,,,78,110
66528,note_on,2,0,2,,,,,,,,,6,,,57,110
66574,note_on,46,0,2,,,,,,,,,6,,,57,0
66574,note_on,46,0,1,,,,,,,,,5,,,78,0
66576,note_on,2,0,1,,,,,,,,,5,,,80,110
66576,note_on,2,0,2,,,,,,,,,6,,,59,110
66622,note_on,46,0,1,,,,,,,,,5,,,80,0
66622,note_on,46,0,2,,,,,,,,,6,,,59,0
66624,note_on,2,0,1,,,,,,,,,5,,,81,110
66624,note_on,2,0,2,,,,,,,,,6,,,61,110
66670,note_on,46,0,1,,,,,,,,,5,,,81,0
66670,note_on,46,0,2,,,,,,,,,6,,,61,0
66672,note_on,2,0,2,,,,,,,,,6,,,56,110
66672,note_on,2,0,1,,,,,,,,,5,,,76,110
66718,note_on,46,0,1,,,,,,,,,5,,,76,0
66718,note_on,46,0,2,,,,,,,,,6,,,56,0
66720,note_on,2,0,1,,,,,,,,,5,,,78,110
66720,note_on,2,0,2,,,,,,,,,6,,,57,110
66766,note_on,46,0,2,,,,,,,,,6,,,57,0
66766,note_on,46,0,1,,,,,,,,,5,,,78,0
66768,note_on,2,0,1,,,,,,,,,5,,,80,110
66768,note_on,2,0,2,,,,,,,,,6,,,59,110
66814,note_on,46,0,1,,,,,,,,,5,,,80,0
66814,note_on,46,0,2,,,,,,,,,6,,,59,0
66816,note_on,416,0,6,,,,,,,,,3,,,45,75
66816,note_on,2,0,1,,,,,,,,,5,,,81,110
66816,note_on,2,0,2,,,,,,,,,6,,,61,110
66910,note_on,94,0,2,,,,,,,,,6,,,61,0
66910,note_on,94,0,1,,,,,,,,,5,,,81,0
66912,note_on,2,0,2,,,,,,,,,6,,,57,110
66912,note_on,2,0,1,,,,,,,,,5,,,76,110
66976,note_on,160,0,6,,,,,,,,,3,,,45,0
67006,note_on,94,0,2,,,,,,,,,6,,,57,0
67006,note_on,94,0,1,,,,,,,,,5,,,76,0
67008,note_on,2,0,2,,,,,,,,,6,,,52,110
67008,note_on,32,0,6,,,,,,,,,3,,,52,75
67008,note_on,2,0,1,,,,,,,,,5,,,73,110
67102,note_on,94,0,2,,,,,,,,,6,,,52,0
67102,note_on,94,0,1,,,,,,,,,5,,,73,0
67104,note_on,2,0,2,,,,,,,,,6,,,57,110
67104,note_on,2,0,1,,,,,,,,,5,,,81,110
67168,note_on,160,0,6,,,,,,,,,3,,,52,0
67198,note_on,94,0,2,,,,,,,,,6,,,57,0
67198,note_on,94,0,1,,,,,,,,,5,,,81,0
67200,note_on,32,0,6,,,,,,,,,3,,,40,75
67200,note_on,2,0,1,,,,,,,,,5,,,71,110
67200,note_on,2,0,2,,,,,,,,,6,,,56,110
67294,note_on,94,0,1,,,,,,,,,5,,,71,0
67294,note_on,94,0,2,,,,,,,,,6,,,56,0
67296,note_on,2,0,1,,,,,,,,,5,,,71,110
67296,note_on,0,0,1,,,,,,,,,5,,,76,110
67296,note_on,0,0,1,,,,,,,,,5,,,80,110
67296,note_on,2,0,2,,,,,,,,,6,,,59,110
67360,note_on,160,0,6,,,,,,,,,3,,,40,0
67390,note_on,94,0,1,,,,,,,,,5,,,71,0
67390,note_on,0,0,1,,,,,,,,,5,,,76,0
67390,note_on,0,0,1,,,,,,,,,5,,,80,0
67390,note_on,94,0,2,,,,,,,,,6,,,59,0
67392,note_on,0,0,1,,,,,,,,,5,,,81,110
67392,note_on,0,0,1,,,,,,,,,5,,,76,110
67392,note_on,7328,0,3,,,,,,,,,0,,,81,127
67392,note_on,2,0,2,,,,,,,,,6,,,57,110
67392,note_on,7328,0,5,,,,,,,,,2,,,61,92
67392,note_on,2,0,1,,,,,,,,,5,,,73,110
67392,note_on,7328,0,7,,,,,,,,,7,,,45,92
67392,note_on,32,0,6,,,,,,,,,3,,,57,75
67486,note_on,94,0,2,,,,,,,,,6,,,57,0
67486,note_on,94,0,5,,,,,,,,,2,,,61,0
67486,note_on,94,0,6,,,,,,,,,3,,,57,0
67486,note_on,0,0,1,,,,,,,,,5,,,81,0
67486,note_on,94,0,3,,,,,,,,,0,,,81,0
67486,note_on,94,0,7,,,,,,,,,7,,,45,0
67486,note_on,94,0,1,,,,,,,,,5,,,73,0
67486,note_on,0,0,1,,,,,,,,,5,,,76,0
67488,note_on,2,0,1,,,,,,,,,5,,,69,110
67488,note_on,2,0,3,,,,,,,,,0,,,69,127
67488,note_on,2,0,6,,,,,,,,,3,,,49,75
67488,note_on,7424,0,4,,,,,,,,,1,,,76,75
67488,note_on,2,0,5,,,,,,,,,2,,,64,92
67488,note_on,2,0,2,,,,,,,,,6,,,49,110
67488,note_on,2,0,7,,,,,,,,,7,,,37,92
67520,note_on,32,0,4,,,,,,,,,1,,,76,0
67582,note_on,94,0,6,,,,,,,,,3,,,49,0
67582,note_on,94,0,7,,,,,,,,,7,,,37,0
67582,note_on,94,0,2,,,,,,,,,6,,,49,0
67582,note_on,94,0,5,,,,,,,,,2,,,64,0
67584,note_on,2,0,7,,,,,,,,,7,,,33,92
67584,note_on,2,0,6,,,,,,,,,3,,,45,75
67584,note_on,2,0,2,,,,,,,,,6,,,45,110
67584,note_on,64,0,4,,,,,,,,,1,,,76,75
67584,note_on,2,0,5,,,,,,,,,2,,,61,92
67616,note_on,32,0,4,,,,,,,,,1,,,76,0
67678,note_on,190,0,1,,,,,,,,,5,,,69,0
67678,note_on,190,0,3,,,,,,,,,0,,,69,0
67680,note_on,2,0,3,,,,,,,,,0,,,74,127
67680,note_on,2,0,1,,,,,,,,,5,,,74,110
67680,note_on,64,0,4,,,,,,,,,1,,,76,75
67712,note_on,32,0,4,,,,,,,,,1,,,76,0
67744,note_on,160,0,5,,,,,,,,,2,,,61,0
67744,note_on,160,0,2,,,,,,,,,6,,,45,0
67744,note_on,160,0,6,,,,,,,,,3,,,45,0
67744,note_on,160,0,7,,,,,,,,,7,,,33,0
67774,note_on,94,0,1,,,,,,,,,5,,,74,0
67774,note_on,94,0,3,,,,,,,,,0,,,74,0
67776,note_on,2,0,1,,,,,,,,,5,,,73,110
67776,note_on,64,0,4,,,,,,,,,1,,,76,75
67776,note_on,2,0,3,,,,,,,,,0,,,73,127
67808,note_on,32,0,4,,,,,,,,,1,,,76,0
67870,note_on,94,0,1,,,,,,,,,5,,,73,0
67870,note_on,94,0,3,,,,,,,,,0,,,73,0
67872,note_on,128,0,5,,,,,,,,,2,,,64,92
67872,note_on,128,0,6,,,,,,,,,3,,,52,75
67872,note_on,128,0,2,,,,,,,,,6,,,52,110
67872,note_on,64,0,4,,,,,,,,,1,,,76,75
67872,note_on,2,0,1,,,,,,,,,5,,,68,110
67872,note_on,128,0,7,,,,,,,,,7,,,40,92
67872,note_on,0,0,1,,,,,,,,,5,,,71,110
67872,note_on,2,0,3,,,,,,,,,0,,,71,127
67904,note_on,32,0,4,,,,,,,,,1,,,76,0
67966,note_on,94,0,7,,,,,,,,,7,,,40,0
67966,note_on,94,0,5,,,,,,,,,2,,,64,0
67966,note_on,94,0,3,,,,,,,,,0,,,71,0
67966,note_on,0,0,1,,,,,,,,,5,,,71,0
67966,note_on,94,0,1,,,,,,,,,5,,,68,0
67966,note_on,94,0,6,,,,,,,,,3,,,52,0
67966,note_on,94,0,2,,,,,,,,,6,,,52,0
67968,note_on,0,0,1,,,,,,,,,5,,,73,110
67968,note_on,2,0,1,,,,,,,,,5,,,64,110
67968,note_on,2,0,6,,,,,,,,,3,,,57,75
67968,note_on,2,0,5,,,,,,,,,2,,,61,92
67968,note_on,2,0,2,,,,,,,,,6,,,57,110
67968,note_on,2,0,7,,,,,,,,,7,,,45,92
67968,note_on,64,0,4,,,,,,,,,1,,,76,75
67968,note_on,2,0,3,,,,,,,,,0,,,73,127
68000,note_on,32,0,4,,,,,,,,,1,,,76,0
68062,note_on,0,0,1,,,,,,,,,5,,,73,0
68062,note_on,94,0,7,,,,,,,,,7,,,45,0
68062,note_on,94,0,1,,,,,,,,,5,,,64,0
68062,note_on,94,0,6,,,,,,,,,3,,,57,0
68062,note_on,94,0,5,,,,,,,,,2,,,61,0
68062,note_on,94,0,3,,,,,,,,,0,,,73,0
68062,note_on,94,0,2,,,,,,,,,6,,,57,0
68064,note_on,2,0,7,,,,,,,,,7,,,37,92
68064,note_on,64,0,4,,,,,,,,,1,,,76,75
68064,note_on,2,0,1,,,,,,,,,5,,,69,110
68064,note_on,2,0,6,,,,,,,,,3,,,49,75
68064,note_on,2,0,3,,,,,,,,,0,,,69,127
68064,note_on,2,0,5,,,,,,,,,2,,,64,92
68064,note_on,2,0,2,,,,,,,,,6,,,49,110
68096,note_on,32,0,4,,,,,,,,,1,,,76,0
68158,note_on,94,0,2,,,,,,,,,6,,,49,0
68158,note_on,94,0,7,,,,,,,,,7,,,37,0
68158,note_on,94,0,5,,,,,,,,,2,,,64,0
68158,note_on,94,0,6,,,,,,,,,3,,,49,0
68160,note_on,64,0,4,,,,,,,,,1,,,76,75
68160,note_on,2,0,2,,,,,,,,,6,,,45,110
68160,note_on,2,0,6,,,,,,,,,3,,,45,75
68160,note_on,2,0,5,,,,,,,,,2,,,61,92
68160,note_on,2,0,7,,,,,,,,,7,,,33,92
68192,note_on,32,0,4,,,,,,,,,1,,,76,0
68254,note_on,190,0,3,,,,,,,,,0,,,69,0
68254,note_on,190,0,1,,,,,,,,,5,,,69,0
68256,note_on,2,0,3,,,,,,,,,0,,,76,127
68256,note_on,2,0,1,,,,,,,,,5,,,76,110
68256,note_on,64,0,4,,,,,,,,,1,,,76,75
68288,note_on,32,0,4,,,,,,,,,1,,,76,0
68320,note_on,160,0,5,,,,,,,,,2,,,61,0
68320,note_on,160,0,2,,,,,,,,,6,,,45,0
68320,note_on,160,0,7,,,,,,,,,7,,,33,0
68320,note_on,160,0,6,,,,,,,,,3,,,45,0
68350,note_on,94,0,1,,,,,,,,,5,,,76,0
68350,note_on,94,0,3,,,,,,,,,0,,,76,0
68352,note_on,2,0,3,,,,,,,,,0,,,78,127
68352,note_on,2,0,1,,,,,,,,,5,,,78,110
68352,note_on,64,0,4,,,,,,,,,1,,,76,75
68384,note_on,32,0,4,,,,,,,,,1,,,76,0
68446,note_on,94,0,1,,,,,,,,,5,,,78,0
68446,note_on,94,0,3,,,,,,,,,0,,,78,0
68448,note_on,128,0,7,,,,,,,,,7,,,40,92
68448,note_on,128,0,6,,,,,,,,,3,,,52,75
68448,note_on,2,0,3,,,,,,,,,0,,,80,127
68448,note_on,128,0,2,,,,,,,,,6,,,52,110
68448,note_on,2,0,1,,,,,,,,,5,,,71,110
68448,note_on,128,0,5,,,,,,,,,2,,,59,92
68448,note_on,0,0,1,,,,,,,,,5,,,80,110
68448,note_on,64,0,4,,,,,,,,,1,,,76,75
68480,note_on,32,0,4,,,,,,,,,1,,,76,0
68542,note_on,94,0,7,,,,,,,,,7,,,40,0
68542,note_on,94,0,2,,,,,,,,,6,,,52,0
68542,note_on,94,0,1,,,,,,,,,5,,,71,0
68542,note_on,0,0,1,,,,,,,,,5,,,80,0
68542,note_on,94,0,6,,,,,,,,,3,,,52,0
68542,note_on,94,0,3,,,,,,,,,0,,,80,0
68542,note_on,94,0,5,,,,,,,,,2,,,59,0
68544,note_on,2,0,3,,,,,,,,,0,,,81,127
68544,note_on,2,0,6,,,,,,,,,3,,,57,75
68544,note_on,64,0,4,,,,,,,,,1,,,76,75
68544,note_on,2,0,2,,,,,,,,,6,,,57,110
68544,note_on,2,0,7,,,,,,,,,7,,,45,92
68544,note_on,2,0,1,,,,,,,,,5,,,73,110
68544,note_on,2,0,5,,,,,,,,,2,,,61,92
68544,note_on,0,0,1,,,,,,,,,5,,,81,110
68576,note_on,32,0,4,,,,,,,,,1,,,76,0
68638,note_on,94,0,2,,,,,,,,,6,,,57,0
68638,note_on,94,0,5,,,,,,,,,2,,,61,0
68638,note_on,0,0,1,,,,,,,,,5,,,81,0
68638,note_on,94,0,1,,,,,,,,,5,,,73,0
68638,note_on,94,0,6,,,,,,,,,3,,,57,0
68638,note_on,94,0,7,,,,,,,,,7,,,45,0
68638,note_on,94,0,3,,,,,,,,,0,,,81,0
68640,note_on,2,0,3,,,,,,,,,0,,,69,127
68640,note_on,2,0,1,,,,,,,,,5,,,69,110
68640,note_on,2,0,6,,,,,,,,,3,,,49,75
68640,note_on,2,0,2,,,,,,,,,6,,,49,110
68640,note_on,64,0,4,,,,,,,,,1,,,76,75
68640,note_on,2,0,7,,,,,,,,,7,,,37,92
68640,note_on,2,0,5,,,,,,,,,2,,,64,92
68672,note_on,32,0,4,,,,,,,,,1,,,76,0
68734,note_on,94,0,6,,,,,,,,,3,,,49,0
68734,note_on,94,0,7,,,,,,,,,7,,,37,0
68734,note_on,94,0,5,,,,,,,,,2,,,64,0
68734,note_on,94,0,2,,,,,,,,,6,,,49,0
68736,note_on,2,0,6,,,,,,,,,3,,,45,75
68736,note_on,2,0,7,,,,,,,,,7,,,33,92
68736,note_on,64,0,4,,,,,,,,,1,,,76,75
68736,note_on,2,0,5,,,,,,,,,2,,,61,92
68736,note_on,2,0,2,,,,,,,,,6,,,45,110
68768,note_on,32,0,4,,,,,,,,,1,,,76,0
68830,note_on,190,0,3,,,,,,,,,0,,,69,0
68830,note_on,190,0,1,,,,,,,,,5,,,69,0
68832,note_on,2,0,1,,,,,,,,,5,,,74,110
68832,note_on,2,0,3,,,,,,,,,0,,,74,127
68832,note_on,64,0,4,,,,,,,,,1,,,76,75
68864,note_on,32,0,4,,,,,,,,,1,,,76,0
68896,note_on,160,0,5,,,,,,,,,2,,,61,0
68896,note_on,160,0,2,,,,,,,,,6,,,45,0
68896,note_on,160,0,6,,,,,,,,,3,,,45,0
68896,note_on,160,0,7,,,,,,,,,7,,,33,0
68926,note_on,94,0,1,,,,,,,,,5,,,74,0
68926,note_on,94,0,3,,,,,,,,,0,,,74,0
68928,note_on,2,0,3,,,,,,,,,0,,,73,127
68928,note_on,64,0,4,,,,,,,,,1,,,76,75
68928,note_on,2,0,1,,,,,,,,,5,,,73,110
69022,note_on,94,0,4,,,,,,,,,1,,,76,0
69022,note_on,94,0,1,,,,,,,,,5,,,73,0
69022,note_on,94,0,3,,,,,,,,,0,,,73,0
69024,note_on,2,0,3,,,,,,,,,0,,,71,127
69024,note_on,128,0,7,,,,,,,,,7,,,40,92
69024,note_on,128,0,6,,,,,,,,,3,,,52,75
69024,note_on,0,0,1,,,,,,,,,5,,,71,110
69024,note_on,2,0,4,,,,,,,,,1,,,80,75
69024,note_on,2,0,1,,,,,,,,,5,,,68,110
69024,note_on,128,0,5,,,,,,,,,2,,,64,92
69024,note_on,128,0,2,,,,,,,,,6,,,52,110
69118,note_on,94,0,4,,,,,,,,,1,,,80,0
69118,note_on,94,0,7,,,,,,,,,7,,,40,0
69118,note_on,94,0,2,,,,,,,,,6,,,52,0
69118,note_on,94,0,6,,,,,,,,,3,,,52,0
69118,note_on,94,0,5,,,,,,,,,2,,,64,0
69118,note_on,94,0,3,,,,,,,,,0,,,71,0
69118,note_on,0,0,1,,,,,,,,,5,,,71,0
69118,note_on,94,0,1,,,,,,,,,5,,,68,0
69120,note_on,2,0,7,,,,,,,,,7,,,45,92
69120,note_on,2,0,2,,,,,,,,,6,,,57,110
69120,note_on,2,0,6,,,,,,,,,3,,,57,75
69120,note_on,0,0,1,,,,,,,,,5,,,73,110
69120,note_on,2,0,4,,,,,,,,,1,,,81,75
69120,note_on,2,0,1,,,,,,,,,5,,,64,110
69120,note_on,2,0,5,,,,,,,,,2,,,64,92
69120,note_on,2,0,3,,,,,,,,,0,,,73,127
69214,note_on,94,0,2,,,,,,,,,6,,,57,0
69214,note_on,94,0,7,,,,,,,,,7,,,45,0
69214,note_on,94,0,4,,,,,,,,,1,,,81,0
69214,note_on,94,0,6,,,,,,,,,3,,,57,0
69214,note_on,94,0,5,,,,,,,,,2,,,64,0
69214,note_on,0,0,1,,,,,,,,,5,,,73,0
69214,note_on,94,0,1,,,,,,,,,5,,,64,0
69214,note_on,94,0,3,,,,,,,,,0,,,73,0
69216,note_on,2,0,7,,,,,,,,,7,,,37,92
69216,note_on,2,0,4,,,,,,,,,1,,,69,75
69216,note_on,2,0,2,,,,,,,,,6,,,49,110
69216,note_on,2,0,1,,,,,,,,,5,,,76,110
69216,note_on,2,0,3,,,,,,,,,0,,,76,75
69216,note_on,2,0,6,,,,,,,,,3,,,49,75
69216,note_on,2,0,5,,,,,,,,,2,,,64,92
69248,note_on,32,0,3,,,,,,,,,0,,,76,0
69310,note_on,94,0,2,,,,,,,,,6,,,49,0
69310,note_on,94,0,6,,,,,,,,,3,,,49,0
69310,note_on,94,0,7,,,,,,,,,7,,,37,0
69310,note_on,94,0,5,,,,,,,,,2,,,64,0
69310,note_on,94,0,1,,,,,,,,,5,,,76,0
69312,note_on,2,0,1,,,,,,,,,5,,,76,110
69312,note_on,2,0,6,,,,,,,,,3,,,45,75
69312,note_on,2,0,7,,,,,,,,,7,,,33,92
69312,note_on,2,0,2,,,,,,,,,6,,,45,110
69312,note_on,64,0,3,,,,,,,,,0,,,76,75
69312,note_on,2,0,5,,,,,,,,,2,,,61,92
69344,note_on,32,0,3,,,,,,,,,0,,,76,0
69406,note_on,94,0,1,,,,,,,,,5,,,76,0
69406,note_on,190,0,4,,,,,,,,,1,,,69,0
69408,note_on,64,0,3,,,,,,,,,0,,,76,75
69408,note_on,2,0,4,,,,,,,,,1,,,74,75
69408,note_on,2,0,1,,,,,,,,,5,,,76,110
69440,note_on,32,0,3,,,,,,,,,0,,,76,0
69472,note_on,160,0,6,,,,,,,,,3,,,45,0
69472,note_on,160,0,5,,,,,,,,,2,,,61,0
69472,note_on,160,0,2,,,,,,,,,6,,,45,0
69472,note_on,160,0,7,,,,,,,,,7,,,33,0
69502,note_on,94,0,1,,,,,,,,,5,,,76,0
69502,note_on,94,0,4,,,,,,,,,1,,,74,0
69504,note_on,2,0,1,,,,,,,,,5,,,76,110
69504,note_on,2,0,4,,,,,,,,,1,,,73,75
69504,note_on,64,0,3,,,,,,,,,0,,,76,75
69536,note_on,32,0,3,,,,,,,,,0,,,76,0
69598,note_on,94,0,1,,,,,,,,,5,,,76,0
69598,note_on,94,0,4,,,,,,,,,1,,,73,0
69600,note_on,0,0,1,,,,,,,,,5,,,76,110
69600,note_on,2,0,1,,,,,,,,,5,,,71,110
69600,note_on,128,0,2,,,,,,,,,6,,,52,110
69600,note_on,64,0,3,,,,,,,,,0,,,76,75
69600,note_on,128,0,7,,,,,,,,,7,,,40,92
69600,note_on,128,0,6,,,,,,,,,3,,,52,75
69600,note_on,2,0,4,,,,,,,,,1,,,71,75
69600,note_on,128,0,5,,,,,,,,,2,,,68,92
69632,note_on,32,0,3,,,,,,,,,0,,,76,0
69694,note_on,94,0,7,,,,,,,,,7,,,40,0
69694,note_on,94,0,4,,,,,,,,,1,,,71,0
69694,note_on,94,0,2,,,,,,,,,6,,,52,0
69694,note_on,94,0,1,,,,,,,,,5,,,71,0
69694,note_on,0,0,1,,,,,,,,,5,,,76,0
69694,note_on,94,0,5,,,,,,,,,2,,,68,0
69694,note_on,94,0,6,,,,,,,,,3,,,52,0
69696,note_on,2,0,6,,,,,,,,,3,,,57,75
69696,note_on,0,0,1,,,,,,,,,5,,,76,110
69696,note_on,2,0,1,,,,,,,,,5,,,73,110
69696,note_on,2,0,4,,,,,,,,,1,,,73,75
69696,note_on,2,0,5,,,,,,,,,2,,,61,92
69696,note_on,2,0,2,,,,,,,,,6,,,57,110
69696,note_on,64,0,3,,,,,,,,,0,,,76,75
69696,note_on,2,0,7,,,,,,,,,7,,,45,92
69728,note_on,32,0,3,,,,,,,,,0,,,76,0
69790,note_on,94,0,6,,,,,,,,,3,,,57,0
69790,note_on,94,0,5,,,,,,,,,2,,,61,0
69790,note_on,0,0,1,,,,,,,,,5,,,76,0
69790,note_on,94,0,1,,,,,,,,,5,,,73,0
69790,note_on,94,0,7,,,,,,,,,7,,,45,0
69790,note_on,94,0,4,,,,,,,,,1,,,73,0
69790,note_on,94,0,2,,,,,,,,,6,,,57,0
69792,note_on,2,0,1,,,,,,,,,5,,,76,110
69792,note_on,2,0,4,,,,,,,,,1,,,69,75
69792,note_on,64,0,3,,,,,,,,,0,,,76,75
69792,note_on,2,0,6,,,,,,,,,3,,,49,75
69792,note_on,2,0,2,,,,,,,,,6,,,49,110
69792,note_on,2,0,5,,,,,,,,,2,,,64,92
69792,note_on,2,0,7,,,,,,,,,7,,,37,92
69824,note_on,32,0,3,,,,,,,,,0,,,76,0
69886,note_on,94,0,2,,,,,,,,,6,,,49,0
69886,note_on,94,0,1,,,,,,,,,5,,,76,0
69886,note_on,94,0,7,,,,,,,,,7,,,37,0
69886,note_on,94,0,6,,,,,,,,,3,,,49,0
69886,note_on,94,0,5,,,,,,,,,2,,,64,0
69888,note_on,2,0,7,,,,,,,,,7,,,33,92
69888,note_on,64,0,3,,,,,,,,,0,,,76,75
69888,note_on,2,0,2,,,,,,,,,6,,,45,110
69888,note_on,2,0,1,,,,,,,,,5,,,76,110
69888,note_on,2,0,5,,,,,,,,,2,,,61,92
69888,note_on,2,0,6,,,,,,,,,3,,,45,75
69920,note_on,32,0,3,,,,,,,,,0,,,76,0
69982,note_on,94,0,1,,,,,,,,,5,,,76,0
69982,note_on,190,0,4,,,,,,,,,1,,,69,0
69984,note_on,64,0,3,,,,,,,,,0,,,76,75
69984,note_on,2,0,4,,,,,,,,,1,,,76,75
69984,note_on,2,0,1,,,,,,,,,5,,,76,110
70016,note_on,32,0,3,,,,,,,,,0,,,76,0
70048,note_on,160,0,5,,,,,,,,,2,,,61,0
70048,note_on,160,0,2,,,,,,,,,6,,,45,0
70048,note_on,160,0,7,,,,,,,,,7,,,33,0
70048,note_on,160,0,6,,,,,,,,,3,,,45,0
70078,note_on,94,0,1,,,,,,,,,5,,,76,0
70078,note_on,94,0,4,,,,,,,,,1,,,76,0
70080,note_on,64,0,3,,,,,,,,,0,,,76,75
70080,note_on,2,0,1,,,,,,,,,5,,,76,110
70080,note_on,2,0,4,,,,,,,,,1,,,78,75
70112,note_on,32,0,3,,,,,,,,,0,,,76,0
70174,note_on,94,0,4,,,,,,,,,1,,,78,0
70174,note_on,94,0,1,,,,,,,,,5,,,76,0
70176,note_on,128,0,5,,,,,,,,,2,,,59,92
70176,note_on,128,0,6,,,,,,,,,3,,,52,75
70176,note_on,2,0,4,,,,,,,,,1,,,80,75
70176,note_on,128,0,2,,,,,,,,,6,,,52,110
70176,note_on,0,0,1,,,,,,,,,5,,,76,110
70176,note_on,2,0,1,,,,,,,,,5,,,71,110
70176,note_on,128,0,7,,,,,,,,,7,,,40,92
70176,note_on,64,0,3,,,,,,,,,0,,,76,75
70208,note_on,32,0,3,,,,,,,,,0,,,76,0
70270,note_on,94,0,4,,,,,,,,,1,,,80,0
70270,note_on,94,0,6,,,,,,,,,3,,,52,0
70270,note_on,94,0,2,,,,,,,,,6,,,52,0
70270,note_on,94,0,7,,,,,,,,,7,,,40,0
70270,note_on,94,0,1,,,,,,,,,5,,,71,0
70270,note_on,0,0,1,,,,,,,,,5,,,76,0
70270,note_on,94,0,5,,,,,,,,,2,,,59,0
70272,note_on,2,0,7,,,,,,,,,7,,,45,92
70272,note_on,2,0,5,,,,,,,,,2,,,61,92
70272,note_on,64,0,3,,,,,,,,,0,,,76,75
70272,note_on,2,0,6,,,,,,,,,3,,,57,75
70272,note_on,2,0,1,,,,,,,,,5,,,73,110
70272,note_on,2,0,2,,,,,,,,,6,,,57,110
70272,note_on,0,0,1,,,,,,,,,5,,,76,110
70272,note_on,2,0,4,,,,,,,,,1,,,81,75
70304,note_on,32,0,3,,,,,,,,,0,,,76,0
70366,note_on,94,0,6,,,,,,,,,3,,,57,0
70366,note_on,0,0,1,,,,,,,,,5,,,76,0
70366,note_on,94,0,4,,,,,,,,,1,,,81,0
70366,note_on,94,0,2,,,,,,,,,6,,,57,0
70366,note_on,94,0,7,,,,,,,,,7,,,45,0
70366,note_on,94,0,5,,,,,,,,,2,,,61,0
70366,note_on,94,0,1,,,,,,,,,5,,,73,0
70368,note_on,2,0,5,,,,,,,,,2,,,64,92
70368,note_on,2,0,4,,,,,,,,,1,,,69,75
70368,note_on,2,0,1,,,,,,,,,5,,,76,110
70368,note_on,2,0,7,,,,,,,,,7,,,37,92
70368,note_on,2,0,6,,,,,,,,,3,,,49,75
70368,note_on,2,0,2,,,,,,,,,6,,,49,110
70368,note_on,64,0,3,,,,,,,,,0,,,76,75
70400,note_on,32,0,3,,,,,,,,,0,,,76,0
70462,note_on,94,0,7,,,,,,,,,7,,,37,0
70462,note_on,94,0,1,,,,,,,,,5,,,76,0
70462,note_on,94,0,5,,,,,,,,,2,,,64,0
70462,note_on,94,0,6,,,,,,,,,3,,,49,0
70462,note_on,94,0,2,,,,,,,,,6,,,49,0
70464,note_on,2,0,1,,,,,,,,,5,,,76,110
70464,note_on,2,0,7,,,,,,,,,7,,,33,92
70464,note_on,64,0,3,,,,,,,,,0,,,76,75
70464,note_on,2,0,2,,,,,,,,,6,,,45,110
70464,note_on,2,0,6,,,,,,,,,3,,,45,75
70464,note_on,2,0,5,,,,,,,,,2,,,61,92
70496,note_on,32,0,3,,,,,,,,,0,,,76,0
70558,note_on,190,0,4,,,,,,,,,1,,,69,0
70558,note_on,94,0,1,,,,,,,,,5,,,76,0
70560,note_on,2,0,1,,,,,,,,,5,,,76,110
70560,note_on,2,0,4,,,,,,,,,1,,,76,75
70560,note_on,64,0,3,,,,,,,,,0,,,76,75
70592,note_on,32,0,3,,,,,,,,,0,,,76,0
70624,note_on,160,0,6,,,,,,,,,3,,,45,0
70624,note_on,160,0,2,,,,,,,,,6,,,45,0
70624,note_on,160,0,5,,,,,,,,,2,,,61,0
70624,note_on,160,0,7,,,,,,,,,7,,,33,0
70654,note_on,94,0,4,,,,,,,,,1,,,76,0
70654,note_on,94,0,1,,,,,,,,,5,,,76,0
70656,note_on,2,0,4,,,,,,,,,1,,,74,75
70656,note_on,64,0,3,,,,,,,,,0,,,76,75
70656,note_on,2,0,1,,,,,,,,,5,,,76,110
70688,note_on,32,0,3,,,,,,,,,0,,,76,0
70750,note_on,94,0,1,,,,,,,,,5,,,76,0
70750,note_on,94,0,4,,,,,,,,,1,,,74,0
70752,note_on,64,0,3,,,,,,,,,0,,,76,75
70752,note_on,0,0,1,,,,,,,,,5,,,76,110
70752,note_on,128,0,2,,,,,,,,,6,,,45,110
70752,note_on,128,0,6,,,,,,,,,3,,,45,75
70752,note_on,128,0,7,,,,,,,,,7,,,33,92
70752,note_on,2,0,4,,,,,,,,,1,,,73,75
70752,note_on,128,0,5,,,,,,,,,2,,,57,92
70752,note_on,2,0,1,,,,,,,,,5,,,73,110
70846,note_on,94,0,7,,,,,,,,,7,,,33,0
70846,note_on,94,0,6,,,,,,,,,3,,,45,0
70846,note_on,94,0,5,,,,,,,,,2,,,57,0
70846,note_on,94,0,1,,,,,,,,,5,,,73,0
70846,note_on,94,0,4,,,,,,,,,1,,,73,0
70846,note_on,94,0,3,,,,,,,,,0,,,76,0
70846,note_on,94,0,2,,,,,,,,,6,,,45,0
70846,note_on,0,0,1,,,,,,,,,5,,,76,0
70848,note_on,2,0,2,,,,,,,,,6,,,52,110
70848,note_on,2,0,5,,,,,,,,,2,,,56,92
70848,note_on,2,0,7,,,,,,,,,7,,,40,92
70848,note_on,2,0,3,,,,,,,,,0,,,76,75
70848,note_on,2,0,4,,,,,,,,,1,,,71,75
70848,note_on,0,0,1,,,,,,,,,5,,,76,110
70848,note_on,2,0,1,,,,,,,,,5,,,68,110
70848,note_on,2,0,6,,,,,,,,,3,,,52,75
70942,note_on,0,0,1,,,,,,,,,5,,,76,0
70942,note_on,94,0,3,,,,,,,,,0,,,76,0
70942,note_on,94,0,7,,,,,,,,,7,,,40,0
70942,note_on,94,0,4,,,,,,,,,1,,,71,0
70942,note_on,94,0,5,,,,,,,,,2,,,56,0
70942,note_on,94,0,1,,,,,,,,,5,,,68,0
70942,note_on,94,0,6,,,,,,,,,3,,,52,0
70942,note_on,94,0,2,,,,,,,,,6,,,52,0
70944,note_on,2,0,5,,,,,,,,,2,,,59,92
70944,note_on,2,0,1,,,,,,,,,5,,,64,110
70944,note_on,2,0,3,,,,,,,,,0,,,64,75
70944,note_on,2,0,4,,,,,,,,,1,,,83,75
70944,note_on,2,0,6,,,,,,,,,3,,,44,75
70944,note_on,2,0,2,,,,,,,,,6,,,44,110
70944,note_on,2,0,7,,,,,,,,,7,,,32,92
70976,note_on,32,0,4,,,,,,,,,1,,,83,0
71038,note_on,94,0,6,,,,,,,,,3,,,44,0
71038,note_on,94,0,5,,,,,,,,,2,,,59,0
71038,note_on,94,0,2,,,,,,,,,6,,,44,0
71038,note_on,94,0,7,,,,,,,,,7,,,32,0
71040,note_on,64,0,4,,,,,,,,,1,,,83,75
71040,note_on,2,0,2,,,,,,,,,6,,,40,110
71040,note_on,2,0,6,,,,,,,,,3,,,40,75
71040,note_on,2,0,7,,,,,,,,,7,,,28,92
71040,note_on,2,0,5,,,,,,,,,2,,,56,92
71072,note_on,32,0,4,,,,,,,,,1,,,83,0
71134,note_on,190,0,3,,,,,,,,,0,,,64,0
71134,note_on,190,0,1,,,,,,,,,5,,,64,0
71136,note_on,2,0,3,,,,,,,,,0,,,69,75
71136,note_on,64,0,4,,,,,,,,,1,,,83,75
71136,note_on,2,0,1,,,,,,,,,5,,,69,110
71168,note_on,32,0,4,,,,,,,,,1,,,83,0
71200,note_on,160,0,5,,,,,,,,,2,,,56,0
71200,note_on,160,0,2,,,,,,,,,6,,,40,0
71200,note_on,160,0,7,,,,,,,,,7,,,28,0
71200,note_on,160,0,6,,,,,,,,,3,,,40,0
71230,note_on,94,0,1,,,,,,,,,5,,,69,0
71230,note_on,94,0,3,,,,,,,,,0,,,69,0
71232,note_on,64,0,4,,,,,,,,,1,,,83,75
71232,note_on,2,0,1,,,,,,,,,5,,,68,110
71232,note_on,2,0,3,,,,,,,,,0,,,68,75
71264,note_on,32,0,4,,,,,,,,,1,,,83,0
71326,note_on,94,0,1,,,,,,,,,5,,,68,0
71326,note_on,94,0,3,,,,,,,,,0,,,68,0
71328,note_on,128,0,7,,,,,,,,,7,,,35,92
71328,note_on,128,0,5,,,,,,,,,2,,,59,92
71328,note_on,64,0,4,,,,,,,,,1,,,83,75
71328,note_on,128,0,6,,,,,,,,,3,,,47,75
71328,note_on,128,0,2,,,,,,,,,6,,,47,110
71328,note_on,2,0,1,,,,,,,,,5,,,63,110
71328,note_on,0,0,1,,,,,,,,,5,,,66,110
71328,note_on,2,0,3,,,,,,,,,0,,,66,75
71360,note_on,32,0,4,,,,,,,,,1,,,83,0
71422,note_on,0,0,1,,,,,,,,,5,,,66,0
71422,note_on,94,0,7,,,,,,,,,7,,,35,0
71422,note_on,94,0,5,,,,,,,,,2,,,59,0
71422,note_on,94,0,6,,,,,,,,,3,,,47,0
71422,note_on,94,0,3,,,,,,,,,0,,,66,0
71422,note_on,94,0,1,,,,,,,,,5,,,63,0
71422,note_on,94,0,2,,,,,,,,,6,,,47,0
71424,note_on,2,0,3,,,,,,,,,0,,,68,75
71424,note_on,0,0,1,,,,,,,,,5,,,68,110
71424,note_on,2,0,6,,,,,,,,,3,,,52,75
71424,note_on,2,0,2,,,,,,,,,6,,,52,110
71424,note_on,2,0,5,,,,,,,,,2,,,56,92
71424,note_on,2,0,7,,,,,,,,,7,,,40,92
71424,note_on,2,0,1,,,,,,,,,5,,,59,110
71424,note_on,64,0,4,,,,,,,,,1,,,83,75
71456,note_on,32,0,4,,,,,,,,,1,,,83,0
71518,note_on,94,0,3,,,,,,,,,0,,,68,0
71518,note_on,94,0,6,,,,,,,,,3,,,52,0
71518,note_on,0,0,1,,,,,,,,,5,,,68,0
71518,note_on,94,0,2,,,,,,,,,6,,,52,0
71518,note_on,94,0,5,,,,,,,,,2,,,56,0
71518,note_on,94,0,1,,,,,,,,,5,,,59,0
71518,note_on,94,0,7,,,,,,,,,7,,,40,0
71520,note_on,2,0,3,,,,,,,,,0,,,64,75
71520,note_on,2,0,2,,,,,,,,,6,,,44,110
71520,note_on,2,0,6,,,,,,,,,3,,,44,75
71520,note_on,64,0,4,,,,,,,,,1,,,83,75
71520,note_on,2,0,7,,,,,,,,,7,,,32,92
71520,note_on,2,0,5,,,,,,,,,2,,,59,92
71520,note_on,2,0,1,,,,,,,,,5,,,64,110
71552,note_on,32,0,4,,,,,,,,,1,,,83,0
71614,note_on,94,0,2,,,,,,,,,6,,,44,0
71614,note_on,94,0,7,,,,,,,,,7,,,32,0
71614,note_on,94,0,5,,,,,,,,,2,,,59,0
71614,note_on,94,0,6,,,,,,,,,3,,,44,0
71616,note_on,2,0,6,,,,,,,,,3,,,40,75
71616,note_on,64,0,4,,,,,,,,,1,,,83,75
71616,note_on,2,0,5,,,,,,,,,2,,,56,92
71616,note_on,2,0,7,,,,,,,,,7,,,28,92
71616,note_on,2,0,2,,,,,,,,,6,,,40,110
71648,note_on,32,0,4,,,,,,,,,1,,,83,0
71710,note_on,190,0,3,,,,,,,,,0,,,64,0
71710,note_on,190,0,1,,,,,,,,,5,,,64,0
71712,note_on,64,0,4,,,,,,,,,1,,,83,75
71712,note_on,2,0,1,,,,,,,,,5,,,71,110
71712,note_on,2,0,3,,,,,,,,,0,,,71,75
71744,note_on,32,0,4,,,,,,,,,1,,,83,0
71776,note_on,160,0,6,,,,,,,,,3,,,40,0
71776,note_on,160,0,2,,,,,,,,,6,,,40,0
71776,note_on,160,0,7,,,,,,,,,7,,,28,0
71776,note_on,160,0,5,,,,,,,,,2,,,56,0
71806,note_on,94,0,3,,,,,,,,,0,,,71,0
71806,note_on,94,0,1,,,,,,,,,5,,,71,0
71808,note_on,2,0,3,,,,,,,,,0,,,73,75
71808,note_on,2,0,1,,,,,,,,,5,,,73,110
71808,note_on,64,0,4,,,,,,,,,1,,,83,75
71840,note_on,32,0,4,,,,,,,,,1,,,83,0
71902,note_on,94,0,1,,,,,,,,,5,,,73,0
71902,note_on,94,0,3,,,,,,,,,0,,,73,0
71904,note_on,64,0,4,,,,,,,,,1,,,83,75
71904,note_on,2,0,1,,,,,,,,,5,,,71,110
71904,note_on,128,0,6,,,,,,,,,3,,,47,75
71904,note_on,128,0,2,,,,,,,,,6,,,47,110
71904,note_on,2,0,3,,,,,,,,,0,,,75,75
71904,note_on,128,0,7,,,,,,,,,7,,,35,92
71904,note_on,128,0,5,,,,,,,,,2,,,66,92
71904,note_on,0,0,1,,,,,,,,,5,,,75,110
71936,note_on,32,0,4,,,,,,,,,1,,,83,0
71998,note_on,94,0,2,,,,,,,,,6,,,47,0
71998,note_on,94,0,3,,,,,,,,,0,,,75,0
71998,note_on,94,0,5,,,,,,,,,2,,,66,0
71998,note_on,94,0,7,,,,,,,,,7,,,35,0
71998,note_on,0,0,1,,,,,,,,,5,,,75,0
71998,note_on,94,0,1,,,,,,,,,5,,,71,0
71998,note_on,94,0,6,,,,,,,,,3,,,47,0
72000,note_on,2,0,5,,,,,,,,,2,,,68,92
72000,note_on,64,0,4,,,,,,,,,1,,,83,75
72000,note_on,2,0,2,,,,,,,,,6,,,52,110
72000,note_on,2,0,7,,,,,,,,,7,,,40,92
72000,note_on,0,0,1,,,,,,,,,5,,,76,110
72000,note_on,2,0,6,,,,,,,,,3,,,52,75
72000,note_on,2,0,3,,,,,,,,,0,,,76,75
72000,note_on,2,0,1,,,,,,,,,5,,,68,110
72032,note_on,32,0,4,,,,,,,,,1,,,83,0
72094,note_on,94,0,6,,,,,,,,,3,,,52,0
72094,note_on,94,0,5,,,,,,,,,2,,,68,0
72094,note_on,94,0,1,,,,,,,,,5,,,68,0
72094,note_on,94,0,7,,,,,,,,,7,,,40,0
72094,note_on,94,0,3,,,,,,,,,0,,,76,0
72094,note_on,94,0,2,,,,,,,,,6,,,52,0
72094,note_on,0,0,1,,,,,,,,,5,,,76,0
72096,note_on,2,0,2,,,,,,,,,6,,,44,110
72096,note_on,2,0,6,,,,,,,,,3,,,44,75
72096,note_on,2,0,1,,,,,,,,,5,,,64,110
72096,note_on,2,0,5,,,,,,,,,2,,,71,92
72096,note_on,2,0,7,,,,,,,,,7,,,32,92
72096,note_on,64,0,4,,,,,,,,,1,,,83,75
72096,note_on,2,0,3,,,,,,,,,0,,,64,75
72128,note_on,32,0,4,,,,,,,,,1,,,83,0
72190,note_on,94,0,6,,,,,,,,,3,,,44,0
72190,note_on,94,0,7,,,,,,,,,7,,,32,0
72190,note_on,94,0,5,,,,,,,,,2,,,71,0
72190,note_on,94,0,2,,,,,,,,,6,,,44,0
72192,note_on,64,0,4,,,,,,,,,1,,,83,75
72192,note_on,2,0,7,,,,,,,,,7,,,28,92
72192,note_on,2,0,2,,,,,,,,,6,,,40,110
72192,note_on,2,0,5,,,,,,,,,2,,,68,92
72192,note_on,2,0,6,,,,,,,,,3,,,40,75
72224,note_on,32,0,4,,,,,,,,,1,,,83,0
72286,note_on,190,0,1,,,,,,,,,5,,,64,0
72286,note_on,190,0,3,,,,,,,,,0,,,64,0
72288,note_on,64,0,4,,,,,,,,,1,,,83,75
72288,note_on,2,0,1,,,,,,,,,5,,,69,110
72288,note_on,2,0,3,,,,,,,,,0,,,69,75
72320,note_on,32,0,4,,,,,,,,,1,,,83,0
72352,note_on,160,0,7,,,,,,,,,7,,,28,0
72352,note_on,160,0,2,,,,,,,,,6,,,40,0
72352,note_on,160,0,5,,,,,,,,,2,,,68,0
72352,note_on,160,0,6,,,,,,,,,3,,,40,0
72382,note_on,94,0,3,,,,,,,,,0,,,69,0
72382,note_on,94,0,1,,,,,,,,,5,,,69,0
72384,note_on,2,0,1,,,,,,,,,5,,,68,110
72384,note_on,2,0,3,,,,,,,,,0,,,68,75
72384,note_on,64,0,4,,,,,,,,,1,,,83,127
72478,note_on,94,0,4,,,,,,,,,1,,,83,0
72478,note_on,94,0,1,,,,,,,,,5,,,68,0
72478,note_on,94,0,3,,,,,,,,,0,,,68,0
72480,note_on,2,0,4,,,,,,,,,1,,,75,127
72480,note_on,128,0,5,,,,,,,,,2,,,59,92
72480,note_on,2,0,3,,,,,,,,,0,,,66,75
72480,note_on,128,0,2,,,,,,,,,6,,,47,110
72480,note_on,0,0,1,,,,,,,,,5,,,66,110
72480,note_on,128,0,6,,,,,,,,,3,,,47,75
72480,note_on,2,0,1,,,,,,,,,5,,,63,110
72480,note_on,128,0,7,,,,,,,,,7,,,35,92
72574,note_on,0,0,1,,,,,,,,,5,,,66,0
72574,note_on,94,0,1,,,,,,,,,5,,,63,0
72574,note_on,94,0,6,,,,,,,,,3,,,47,0
72574,note_on,94,0,7,,,,,,,,,7,,,35,0
72574,note_on,94,0,5,,,,,,,,,2,,,59,0
72574,note_on,94,0,3,,,,,,,,,0,,,66,0
72574,note_on,94,0,4,,,,,,,,,1,,,75,0
72574,note_on,94,0,2,,,,,,,,,6,,,47,0
72576,note_on,2,0,6,,,,,,,,,3,,,52,75
72576,note_on,2,0,3,,,,,,,,,0,,,68,75
72576,note_on,2,0,1,,,,,,,,,5,,,68,110
72576,note_on,2,0,4,,,,,,,,,1,,,76,127
72576,note_on,2,0,2,,,,,,,,,6,,,52,110
72576,note_on,2,0,7,,,,,,,,,7,,,40,92
72576,note_on,2,0,5,,,,,,,,,2,,,56,92
72670,note_on,94,0,3,,,,,,,,,0,,,68,0
72670,note_on,94,0,2,,,,,,,,,6,,,52,0
72670,note_on,94,0,5,,,,,,,,,2,,,56,0
72670,note_on,94,0,1,,,,,,,,,5,,,68,0
72670,note_on,94,0,7,,,,,,,,,7,,,40,0
72670,note_on,94,0,6,,,,,,,,,3,,,52,0
72670,note_on,94,0,4,,,,,,,,,1,,,76,0
72672,note_on,2,0,2,,,,,,,,,6,,,44,110
72672,note_on,2,0,4,,,,,,,,,1,,,64,127
72672,note_on,2,0,1,,,,,,,,,5,,,83,110
72672,note_on,2,0,7,,,,,,,,,7,,,32,92
72672,note_on,2,0,3,,,,,,,,,0,,,83,75
72672,note_on,2,0,6,,,,,,,,,3,,,44,75
72672,note_on,2,0,5,,,,,,,,,2,,,59,92
72704,note_on,32,0,3,,,,,,,,,0,,,83,0
72766,note_on,94,0,1,,,,,,,,,5,,,83,0
72766,note_on,94,0,6,,,,,,,,,3,,,44,0
72766,note_on,94,0,5,,,,,,,,,2,,,59,0
72766,note_on,94,0,2,,,,,,,,,6,,,44,0
72766,note_on,94,0,7,,,,,,,,,7,,,32,0
72768,note_on,64,0,3,,,,,,,,,0,,,83,75
72768,note_on,2,0,5,,,,,,,,,2,,,56,92
72768,note_on,2,0,6,,,,,,,,,3,,,40,75
72768,note_on,2,0,2,,,,,,,,,6,,,40,110
72768,note_on,2,0,7,,,,,,,,,7,,,28,92
72768,note_on,2,0,1,,,,,,,,,5,,,83,110
72800,note_on,32,0,3,,,,,,,,,0,,,83,0
72862,note_on,94,0,1,,,,,,,,,5,,,83,0
72862,note_on,190,0,4,,,,,,,,,1,,,64,0
72864,note_on,2,0,1,,,,,,,,,5,,,83,110
72864,note_on,2,0,4,,,,,,,,,1,,,69,127
72864,note_on,64,0,3,,,,,,,,,0,,,83,75
72896,note_on,32,0,3,,,,,,,,,0,,,83,0
72928,note_on,160,0,5,,,,,,,,,2,,,56,0
72928,note_on,160,0,6,,,,,,,,,3,,,40,0
72928,note_on,160,0,2,,,,,,,,,6,,,40,0
72928,note_on,160,0,7,,,,,,,,,7,,,28,0
72958,note_on,94,0,4,,,,,,,,,1,,,69,0
72958,note_on,94,0,1,,,,,,,,,5,,,83,0
72960,note_on,64,0,3,,,,,,,,,0,,,83,75
72960,note_on,2,0,4,,,,,,,,,1,,,68,127
72960,note_on,2,0,1,,,,,,,,,5,,,83,110
72992,note_on,32,0,3,,,,,,,,,0,,,83,0
73054,note_on,94,0,4,,,,,,,,,1,,,68,0
73054,note_on,94,0,1,,,,,,,,,5,,,83,0
73056,note_on,64,0,3,,,,,,,,,0,,,83,75
73056,note_on,2,0,4,,,,,,,,,1,,,66,127
73056,note_on,2,0,1,,,,,,,,,5,,,78,110
73056,note_on,0,0,1,,,,,,,,,5,,,83,110
73056,note_on,128,0,6,,,,,,,,,3,,,47,75
73056,note_on,128,0,7,,,,,,,,,7,,,35,92
73056,note_on,128,0,5,,,,,,,,,2,,,63,92
73056,note_on,128,0,2,,,,,,,,,6,,,47,110
73088,note_on,32,0,3,,,,,,,,,0,,,83,0
73150,note_on,94,0,7,,,,,,,,,7,,,35,0
73150,note_on,94,0,4,,,,,,,,,1,,,66,0
73150,note_on,94,0,1,,,,,,,,,5,,,78,0
73150,note_on,94,0,6,,,,,,,,,3,,,47,0
73150,note_on,94,0,2,,,,,,,,,6,,,47,0
73150,note_on,94,0,5,,,,,,,,,2,,,63,0
73150,note_on,0,0,1,,,,,,,,,5,,,83,0
73152,note_on,2,0,6,,,,,,,,,3,,,52,75
73152,note_on,64,0,3,,,,,,,,,0,,,83,75
73152,note_on,2,0,2,,,,,,,,,6,,,52,110
73152,note_on,0,0,1,,,,,,,,,5,,,83,110
73152,note_on,2,0,1,,,,,,,,,5,,,80,110
73152,note_on,2,0,7,,,,,,,,,7,,,40,92
73152,note_on,2,0,5,,,,,,,,,2,,,56,92
73152,note_on,2,0,4,,,,,,,,,1,,,68,127
73184,note_on,32,0,3,,,,,,,,,0,,,83,0
73246,note_on,94,0,1,,,,,,,,,5,,,80,0
73246,note_on,0,0,1,,,,,,,,,5,,,83,0
73246,note_on,94,0,4,,,,,,,,,1,,,68,0
73246,note_on,94,0,5,,,,,,,,,2,,,56,0
73246,note_on,94,0,6,,,,,,,,,3,,,52,0
73246,note_on,94,0,2,,,,,,,,,6,,,52,0
73246,note_on,94,0,7,,,,,,,,,7,,,40,0
73248,note_on,2,0,7,,,,,,,,,7,,,32,92
73248,note_on,2,0,6,,,,,,,,,3,,,44,75
73248,note_on,2,0,2,,,,,,,,,6,,,44,110
73248,note_on,2,0,5,,,,,,,,,2,,,59,92
73248,note_on,64,0,3,,,,,,,,,0,,,83,75
73248,note_on,2,0,4,,,,,,,,,1,,,64,127
73248,note_on,2,0,1,,,,,,,,,5,,,83,110
73280,note_on,32,0,3,,,,,,,,,0,,,83,0
73342,note_on,94,0,6,,,,,,,,,3,,,44,0
73342,note_on,94,0,5,,,,,,,,,2,,,59,0
73342,note_on,94,0,7,,,,,,,,,7,,,32,0
73342,note_on,94,0,1,,,,,,,,,5,,,83,0
73342,note_on,94,0,2,,,,,,,,,6,,,44,0
73344,note_on,2,0,6,,,,,,,,,3,,,40,75
73344,note_on,2,0,5,,,,,,,,,2,,,56,92
73344,note_on,64,0,3,,,,,,,,,0,,,83,75
73344,note_on,2,0,1,,,,,,,,,5,,,83,110
73344,note_on,2,0,7,,,,,,,,,7,,,28,92
73344,note_on,2,0,2,,,,,,,,,6,,,40,110
73376,note_on,32,0,3,,,,,,,,,0,,,83,0
73438,note_on,94,0,1,,,,,,,,,5,,,83,0
73438,note_on,190,0,4,,,,,,,,,1,,,64,0
73440,note_on,2,0,1,,,,,,,,,5,,,83,110
73440,note_on,64,0,3,,,,,,,,,0,,,83,75
73440,note_on,2,0,4,,,,,,,,,1,,,71,127
73472,note_on,32,0,3,,,,,,,,,0,,,83,0
73504,note_on,160,0,5,,,,,,,,,2,,,56,0
73504,note_on,160,0,2,,,,,,,,,6,,,40,0
73504,note_on,160,0,6,,,,,,,,,3,,,40,0
73504,note_on,160,0,7,,,,,,,,,7,,,28,0
73534,note_on,94,0,1,,,,,,,,,5,,,83,0
73534,note_on,94,0,4,,,,,,,,,1,,,71,0
73536,note_on,2,0,1,,,,,,,,,5,,,83,110
73536,note_on,64,0,3,,,,,,,,,0,,,83,75
73536,note_on,2,0,4,,,,,,,,,1,,,73,127
73568,note_on,32,0,3,,,,,,,,,0,,,83,0
73630,note_on,94,0,1,,,,,,,,,5,,,83,0
73630,note_on,94,0,4,,,,,,,,,1,,,73,0
73632,note_on,2,0,4,,,,,,,,,1,,,75,127
73632,note_on,128,0,7,,,,,,,,,7,,,35,92
73632,note_on,128,0,5,,,,,,,,,2,,,59,92
73632,note_on,128,0,2,,,,,,,,,6,,,47,110
73632,note_on,64,0,3,,,,,,,,,0,,,83,75
73632,note_on,128,0,6,,,,,,,,,3,,,47,75
73632,note_on,0,0,1,,,,,,,,,5,,,83,110
73632,note_on,2,0,1,,,,,,,,,5,,,78,110
73664,note_on,32,0,3,,,,,,,,,0,,,83,0
73726,note_on,94,0,6,,,,,,,,,3,,,47,0
73726,note_on,94,0,4,,,,,,,,,1,,,75,0
73726,note_on,0,0,1,,,,,,,,,5,,,83,0
73726,note_on,94,0,7,,,,,,,,,7,,,35,0
73726,note_on,94,0,1,,,,,,,,,5,,,78,0
73726,note_on,94,0,5,,,,,,,,,2,,,59,0
73726,note_on,94,0,2,,,,,,,,,6,,,47,0
73728,note_on,2,0,4,,,,,,,,,1,,,76,127
73728,note_on,2,0,6,,,,,,,,,3,,,52,75
73728,note_on,64,0,3,,,,,,,,,0,,,83,75
73728,note_on,0,0,1,,,,,,,,,5,,,83,110
73728,note_on,2,0,2,,,,,,,,,6,,,52,110
73728,note_on,2,0,5,,,,,,,,,2,,,56,92
73728,note_on,2,0,7,,,,,,,,,7,,,40,92
73728,note_on,2,0,1,,,,,,,,,5,,,80,110
73760,note_on,32,0,3,,,,,,,,,0,,,83,0
73822,note_on,94,0,5,,,,,,,,,2,,,56,0
73822,note_on,94,0,1,,,,,,,,,5,,,80,0
73822,note_on,0,0,1,,,,,,,,,5,,,83,0
73822,note_on,94,0,4,,,,,,,,,1,,,76,0
73822,note_on,94,0,2,,,,,,,,,6,,,52,0
73822,note_on,94,0,6,,,,,,,,,3,,,52,0
73822,note_on,94,0,7,,,,,,,,,7,,,40,0
73824,note_on,2,0,2,,,,,,,,,6,,,44,110
73824,note_on,2,0,7,,,,,,,,,7,,,32,92
73824,note_on,2,0,4,,,,,,,,,1,,,64,127
73824,note_on,64,0,3,,,,,,,,,0,,,83,75
73824,note_on,2,0,6,,,,,,,,,3,,,44,75
73824,note_on,2,0,5,,,,,,,,,2,,,59,92
73824,note_on,2,0,1,,,,,,,,,5,,,83,110
73856,note_on,32,0,3,,,,,,,,,0,,,83,0
73918,note_on,94,0,7,,,,,,,,,7,,,32,0
73918,note_on,94,0,5,,,,,,,,,2,,,59,0
73918,note_on,94,0,1,,,,,,,,,5,,,83,0
73918,note_on,94,0,2,,,,,,,,,6,,,44,0
73918,note_on,94,0,6,,,,,,,,,3,,,44,0
73920,note_on,2,0,6,,,,,,,,,3,,,40,75
73920,note_on,2,0,7,,,,,,,,,7,,,28,92
73920,note_on,2,0,5,,,,,,,,,2,,,56,92
73920,note_on,2,0,1,,,,,,,,,5,,,83,110
73920,note_on,2,0,2,,,,,,,,,6,,,40,110
73920,note_on,64,0,3,,,,,,,,,0,,,83,75
73952,note_on,32,0,3,,,,,,,,,0,,,83,0
74014,note_on,190,0,4,,,,,,,,,1,,,64,0
74014,note_on,94,0,1,,,,,,,,,5,,,83,0
74016,note_on,2,0,4,,,,,,,,,1,,,74,127
74016,note_on,64,0,3,,,,,,,,,0,,,83,75
74016,note_on,2,0,1,,,,,,,,,5,,,83,110
74048,note_on,32,0,3,,,,,,,,,0,,,83,0
74080,note_on,160,0,5,,,,,,,,,2,,,56,0
74080,note_on,160,0,6,,,,,,,,,3,,,40,0
74080,note_on,160,0,7,,,,,,,,,7,,,28,0
74080,note_on,160,0,2,,,,,,,,,6,,,40,0
74110,note_on,94,0,4,,,,,,,,,1,,,74,0
74110,note_on,94,0,1,,,,,,,,,5,,,83,0
74112,note_on,64,0,3,,,,,,,,,0,,,83,75
74112,note_on,2,0,4,,,,,,,,,1,,,73,127
74112,note_on,2,0,1,,,,,,,,,5,,,83,110
74206,note_on,94,0,3,,,,,,,,,0,,,83,0
74206,note_on,94,0,1,,,,,,,,,5,,,83,0
74206,note_on,94,0,4,,,,,,,,,1,,,73,0
74208,note_on,128,0,2,,,,,,,,,6,,,52,110
74208,note_on,128,0,5,,,,,,,,,2,,,68,92
74208,note_on,2,0,4,,,,,,,,,1,,,71,127
74208,note_on,2,0,3,,,,,,,,,0,,,83,127
74208,note_on,128,0,6,,,,,,,,,3,,,52,75
74208,note_on,2,0,1,,,,,,,,,5,,,83,110
74208,note_on,128,0,7,,,,,,,,,7,,,40,92
74302,note_on,94,0,2,,,,,,,,,6,,,52,0
74302,note_on,94,0,6,,,,,,,,,3,,,52,0
74302,note_on,94,0,1,,,,,,,,,5,,,83,0
74302,note_on,94,0,3,,,,,,,,,0,,,83,0
74302,note_on,94,0,4,,,,,,,,,1,,,71,0
74302,note_on,94,0,5,,,,,,,,,2,,,68,0
74302,note_on,94,0,7,,,,,,,,,7,,,40,0
74304,note_on,0,0,1,,,,,,,,,5,,,81,110
74304,note_on,2,0,1,,,,,,,,,5,,,73,110
74304,note_on,2,0,4,,,,,,,,,1,,,73,127
74304,note_on,2,0,2,,,,,,,,,6,,,57,110
74304,note_on,2,0,7,,,,,,,,,7,,,45,92
74304,note_on,2,0,5,,,,,,,,,2,,,64,92
74304,note_on,2,0,6,,,,,,,,,3,,,57,75
74304,note_on,2,0,3,,,,,,,,,0,,,81,127
74398,note_on,94,0,6,,,,,,,,,3,,,57,0
74398,note_on,94,0,4,,,,,,,,,1,,,73,0
74398,note_on,0,0,1,,,,,,,,,5,,,81,0
74398,note_on,94,0,1,,,,,,,,,5,,,73,0
74398,note_on,94,0,5,,,,,,,,,2,,,64,0
74398,note_on,94,0,3,,,,,,,,,0,,,81,0
74398,note_on,94,0,7,,,,,,,,,7,,,45,0
74398,note_on,94,0,2,,,,,,,,,6,,,57,0
74400,note_on,2,0,4,,,,,,,,,1,,,76,75
74400,note_on,2,0,5,,,,,,,,,2,,,64,92
74400,note_on,2,0,2,,,,,,,,,6,,,49,110
74400,note_on,2,0,3,,,,,,,,,0,,,69,127
74400,note_on,2,0,6,,,,,,,,,3,,,49,75
74400,note_on,2,0,1,,,,,,,,,5,,,69,110
74400,note_on,2,0,7,,,,,,,,,7,,,37,92
74432,note_on,32,0,4,,,,,,,,,1,,,76,0
74494,note_on,94,0,5,,,,,,,,,2,,,64,0
74494,note_on,94,0,6,,,,,,,,,3,,,49,0
74494,note_on,94,0,2,,,,,,,,,6,,,49,0
74494,note_on,94,0,7,,,,,,,,,7,,,37,0
74496,note_on,64,0,4,,,,,,,,,1,,,76,75
74496,note_on,2,0,2,,,,,,,,,6,,,45,110
74496,note_on,2,0,5,,,,,,,,,2,,,61,92
74496,note_on,2,0,6,,,,,,,,,3,,,45,75
74496,note_on,2,0,7,,,,,,,,,7,,,33,92
74528,note_on,32,0,4,,,,,,,,,1,,,76,0
74590,note_on,190,0,3,,,,,,,,,0,,,69,0
74590,note_on,190,0,1,,,,,,,,,5,,,69,0
74592,note_on,2,0,3,,,,,,,,,0,,,74,127
74592,note_on,64,0,4,,,,,,,,,1,,,76,75
74592,note_on,2,0,1,,,,,,,,,5,,,74,110
74624,note_on,32,0,4,,,,,,,,,1,,,76,0
74656,note_on,160,0,7,,,,,,,,,7,,,33,0
74656,note_on,160,0,6,,,,,,,,,3,,,45,0
74656,note_on,160,0,2,,,,,,,,,6,,,45,0
74656,note_on,160,0,5,,,,,,,,,2,,,61,0
74686,note_on,94,0,3,,,,,,,,,0,,,74,0
74686,note_on,94,0,1,,,,,,,,,5,,,74,0
74688,note_on,64,0,4,,,,,,,,,1,,,76,75
74688,note_on,2,0,1,,,,,,,,,5,,,73,110
74688,note_on,2,0,3,,,,,,,,,0,,,73,127
74720,note_on,32,0,4,,,,,,,,,1,,,76,0
74782,note_on,94,0,1,,,,,,,,,5,,,73,0
74782,note_on,94,0,3,,,,,,,,,0,,,73,0
74784,note_on,2,0,1,,,,,,,,,5,,,68,110
74784,note_on,0,0,1,,,,,,,,,5,,,71,110
74784,note_on,2,0,3,,,,,,,,,0,,,71,127
74784,note_on,128,0,7,,,,,,,,,7,,,40,92
74784,note_on,64,0,4,,,,,,,,,1,,,80,127
74784,note_on,128,0,5,,,,,,,,,2,,,64,92
74784,note_on,128,0,6,,,,,,,,,3,,,52,75
74784,note_on,128,0,2,,,,,,,,,6,,,52,110
74878,note_on,94,0,5,,,,,,,,,2,,,64,0
74878,note_on,94,0,3,,,,,,,,,0,,,71,0
74878,note_on,94,0,7,,,,,,,,,7,,,40,0
74878,note_on,94,0,6,,,,,,,,,3,,,52,0
74878,note_on,94,0,4,,,,,,,,,1,,,80,0
74878,note_on,94,0,2,,,,,,,,,6,,,52,0
74878,note_on,0,0,1,,,,,,,,,5,,,71,0
74878,note_on,94,0,1,,,,,,,,,5,,,68,0
74880,note_on,2,0,4,,,,,,,,,1,,,81,127
74880,note_on,2,0,2,,,,,,,,,6,,,57,110
74880,note_on,2,0,3,,,,,,,,,0,,,73,127
74880,note_on,2,0,6,,,,,,,,,3,,,57,75
74880,note_on,0,0,1,,,,,,,,,5,,,73,110
74880,note_on,2,0,1,,,,,,,,,5,,,64,110
74880,note_on,2,0,7,,,,,,,,,7,,,45,92
74880,note_on,2,0,5,,,,,,,,,2,,,64,92
74974,note_on,94,0,5,,,,,,,,,2,,,64,0
74974,note_on,94,0,3,,,,,,,,,0,,,73,0
74974,note_on,94,0,4,,,,,,,,,1,,,81,0
74974,note_on,94,0,7,,,,,,,,,7,,,45,0
74974,note_on,94,0,1,,,,,,,,,5,,,64,0
74974,note_on,0,0,1,,,,,,,,,5,,,73,0
74974,note_on,94,0,2,,,,,,,,,6,,,57,0
74974,note_on,94,0,6,,,,,,,,,3,,,57,0
74976,note_on,2,0,1,,,,,,,,,5,,,76,110
74976,note_on,2,0,3,,,,,,,,,0,,,76,75
74976,note_on,2,0,6,,,,,,,,,3,,,49,75
74976,note_on,2,0,2,,,,,,,,,6,,,49,110
74976,note_on,2,0,5,,,,,,,,,2,,,64,92
74976,note_on,2,0,4,,,,,,,,,1,,,69,127
74976,note_on,2,0,7,,,,,,,,,7,,,37,92
75008,note_on,32,0,3,,,,,,,,,0,,,76,0
75070,note_on,94,0,1,,,,,,,,,5,,,76,0
75070,note_on,94,0,6,,,,,,,,,3,,,49,0
75070,note_on,94,0,7,,,,,,,,,7,,,37,0
75070,note_on,94,0,2,,,,,,,,,6,,,49,0
75070,note_on,94,0,5,,,,,,,,,2,,,64,0
75072,note_on,2,0,6,,,,,,,,,3,,,45,75
75072,note_on,2,0,2,,,,,,,,,6,,,45,110
75072,note_on,64,0,3,,,,,,,,,0,,,76,75
75072,note_on,2,0,5,,,,,,,,,2,,,61,92
75072,note_on,2,0,7,,,,,,,,,7,,,33,92
75072,note_on,2,0,1,,,,,,,,,5,,,76,110
75104,note_on,32,0,3,,,,,,,,,0,,,76,0
75166,note_on,190,0,4,,,,,,,,,1,,,69,0
75166,note_on,94,0,1,,,,,,,,,5,,,76,0
75168,note_on,2,0,1,,,,,,,,,5,,,76,110
75168,note_on,2,0,4,,,,,,,,,1,,,74,127
75168,note_on,64,0,3,,,,,,,,,0,,,76,75
75200,note_on,32,0,3,,,,,,,,,0,,,76,0
75232,note_on,160,0,7,,,,,,,,,7,,,33,0
75232,note_on,160,0,6,,,,,,,,,3,,,45,0
75232,note_on,160,0,5,,,,,,,,,2,,,61,0
75232,note_on,160,0,2,,,,,,,,,6,,,45,0
75262,note_on,94,0,1,,,,,,,,,5,,,76,0
75262,note_on,94,0,4,,,,,,,,,1,,,74,0
75264,note_on,64,0,3,,,,,,,,,0,,,76,75
75264,note_on,2,0,1,,,,,,,,,5,,,76,110
75264,note_on,2,0,4,,,,,,,,,1,,,73,127
75296,note_on,32,0,3,,,,,,,,,0,,,76,0
75358,note_on,94,0,4,,,,,,,,,1,,,73,0
75358,note_on,94,0,1,,,,,,,,,5,,,76,0
75360,note_on,2,0,1,,,,,,,,,5,,,71,110
75360,note_on,128,0,5,,,,,,,,,2,,,64,92
75360,note_on,128,0,2,,,,,,,,,6,,,52,110
75360,note_on,2,0,4,,,,,,,,,1,,,71,127
75360,note_on,128,0,7,,,,,,,,,7,,,40,92
75360,note_on,128,0,6,,,,,,,,,3,,,52,75
75360,note_on,64,0,3,,,,,,,,,0,,,80,127
75360,note_on,0,0,1,,,,,,,,,5,,,80,110
75454,note_on,94,0,6,,,,,,,,,3,,,52,0
75454,note_on,0,0,1,,,,,,,,,5,,,80,0
75454,note_on,94,0,2,,,,,,,,,6,,,52,0
75454,note_on,94,0,3,,,,,,,,,0,,,80,0
75454,note_on,94,0,1,,,,,,,,,5,,,71,0
75454,note_on,94,0,5,,,,,,,,,2,,,64,0
75454,note_on,94,0,4,,,,,,,,,1,,,71,0
75454,note_on,94,0,7,,,,,,,,,7,,,40,0
75456,note_on,2,0,4,,,,,,,,,1,,,73,127
75456,note_on,2,0,2,,,,,,,,,6,,,57,110
75456,note_on,2,0,5,,,,,,,,,2,,,64,92
75456,note_on,2,0,6,,,,,,,,,3,,,57,75
75456,note_on,0,0,1,,,,,,,,,5,,,81,110
75456,note_on,2,0,1,,,,,,,,,5,,,73,110
75456,note_on,2,0,7,,,,,,,,,7,,,45,92
75456,note_on,2,0,3,,,,,,,,,0,,,81,127
75550,note_on,94,0,5,,,,,,,,,2,,,64,0
75550,note_on,94,0,6,,,,,,,,,3,,,57,0
75550,note_on,94,0,4,,,,,,,,,1,,,73,0
75550,note_on,94,0,7,,,,,,,,,7,,,45,0
75550,note_on,94,0,2,,,,,,,,,6,,,57,0
75550,note_on,0,0,1,,,,,,,,,5,,,81,0
75550,note_on,94,0,1,,,,,,,,,5,,,73,0
75550,note_on,94,0,3,,,,,,,,,0,,,81,0
75552,note_on,2,0,3,,,,,,,,,0,,,69,127
75552,note_on,2,0,4,,,,,,,,,1,,,76,75
75552,note_on,2,0,6,,,,,,,,,3,,,49,75
75552,note_on,2,0,7,,,,,,,,,7,,,37,92
75552,note_on,2,0,5,,,,,,,,,2,,,64,92
75552,note_on,2,0,1,,,,,,,,,5,,,69,110
75552,note_on,2,0,2,,,,,,,,,6,,,49,110
75584,note_on,32,0,4,,,,,,,,,1,,,76,0
75646,note_on,94,0,7,,,,,,,,,7,,,37,0
75646,note_on,94,0,2,,,,,,,,,6,,,49,0
75646,note_on,94,0,6,,,,,,,,,3,,,49,0
75646,note_on,94,0,5,,,,,,,,,2,,,64,0
75648,note_on,64,0,4,,,,,,,,,1,,,76,75
75648,note_on,2,0,7,,,,,,,,,7,,,33,92
75648,note_on,2,0,2,,,,,,,,,6,,,45,110
75648,note_on,2,0,5,,,,,,,,,2,,,61,92
75648,note_on,2,0,6,,,,,,,,,3,,,45,75
75680,note_on,32,0,4,,,,,,,,,1,,,76,0
75742,note_on,190,0,1,,,,,,,,,5,,,69,0
75742,note_on,190,0,3,,,,,,,,,0,,,69,0
75744,note_on,2,0,1,,,,,,,,,5,,,74,110
75744,note_on,64,0,4,,,,,,,,,1,,,76,75
75744,note_on,2,0,3,,,,,,,,,0,,,74,127
75776,note_on,32,0,4,,,,,,,,,1,,,76,0
75808,note_on,160,0,6,,,,,,,,,3,,,45,0
75808,note_on,160,0,7,,,,,,,,,7,,,33,0
75808,note_on,160,0,2,,,,,,,,,6,,,45,0
75808,note_on,160,0,5,,,,,,,,,2,,,61,0
75838,note_on,94,0,3,,,,,,,,,0,,,74,0
75838,note_on,94,0,1,,,,,,,,,5,,,74,0
75840,note_on,2,0,1,,,,,,,,,5,,,73,110
75840,note_on,2,0,3,,,,,,,,,0,,,73,127
75840,note_on,64,0,4,,,,,,,,,1,,,76,75
75872,note_on,32,0,4,,,,,,,,,1,,,76,0
75934,note_on,94,0,3,,,,,,,,,0,,,73,0
75934,note_on,94,0,1,,,,,,,,,5,,,73,0
75936,note_on,128,0,7,,,,,,,,,7,,,40,92
75936,note_on,64,0,4,,,,,,,,,1,,,80,127
75936,note_on,128,0,5,,,,,,,,,2,,,64,92
75936,note_on,2,0,3,,,,,,,,,0,,,71,127
75936,note_on,128,0,2,,,,,,,,,6,,,52,110
75936,note_on,128,0,6,,,,,,,,,3,,,52,75
75936,note_on,2,0,1,,,,,,,,,5,,,68,110
75936,note_on,0,0,1,,,,,,,,,5,,,71,110
76030,note_on,0,0,1,,,,,,,,,5,,,71,0
76030,note_on,94,0,7,,,,,,,,,7,,,40,0
76030,note_on,94,0,2,,,,,,,,,6,,,52,0
76030,note_on,94,0,3,,,,,,,,,0,,,71,0
76030,note_on,94,0,4,,,,,,,,,1,,,80,0
76030,note_on,94,0,1,,,,,,,,,5,,,68,0
76030,note_on,94,0,6,,,,,,,,,3,,,52,0
76030,note_on,94,0,5,,,,,,,,,2,,,64,0
76032,note_on,2,0,4,,,,,,,,,1,,,81,127
76032,note_on,2,0,3,,,,,,,,,0,,,73,127
76032,note_on,2,0,2,,,,,,,,,6,,,57,110
76032,note_on,2,0,1,,,,,,,,,5,,,64,110
76032,note_on,2,0,6,,,,,,,,,3,,,57,75
76032,note_on,2,0,7,,,,,,,,,7,,,45,92
76032,note_on,2,0,5,,,,,,,,,2,,,64,92
76032,note_on,0,0,1,,,,,,,,,5,,,73,110
76126,note_on,0,0,1,,,,,,,,,5,,,73,0
76126,note_on,94,0,7,,,,,,,,,7,,,45,0
76126,note_on,94,0,6,,,,,,,,,3,,,57,0
76126,note_on,94,0,3,,,,,,,,,0,,,73,0
76126,note_on,94,0,1,,,,,,,,,5,,,64,0
76126,note_on,94,0,5,,,,,,,,,2,,,64,0
76126,note_on,94,0,2,,,,,,,,,6,,,57,0
76126,note_on,94,0,4,,,,,,,,,1,,,81,0
76128,note_on,2,0,3,,,,,,,,,0,,,76,75
76128,note_on,2,0,5,,,,,,,,,2,,,64,92
76128,note_on,2,0,1,,,,,,,,,5,,,76,110
76128,note_on,2,0,4,,,,,,,,,1,,,69,127
76128,note_on,2,0,6,,,,,,,,,3,,,49,75
76128,note_on,2,0,7,,,,,,,,,7,,,37,92
76128,note_on,2,0,2,,,,,,,,,6,,,49,110
76160,note_on,32,0,3,,,,,,,,,0,,,76,0
76222,note_on,94,0,5,,,,,,,,,2,,,64,0
76222,note_on,94,0,2,,,,,,,,,6,,,49,0
76222,note_on,94,0,6,,,,,,,,,3,,,49,0
76222,note_on,94,0,7,,,,,,,,,7,,,37,0
76222,note_on,94,0,1,,,,,,,,,5,,,76,0
76224,note_on,64,0,3,,,,,,,,,0,,,76,75
76224,note_on,2,0,1,,,,,,,,,5,,,76,110
76224,note_on,2,0,7,,,,,,,,,7,,,33,92
76224,note_on,2,0,5,,,,,,,,,2,,,61,92
76224,note_on,2,0,2,,,,,,,,,6,,,45,110
76224,note_on,2,0,6,,,,,,,,,3,,,45,75
76256,note_on,32,0,3,,,,,,,,,0,,,76,0
76318,note_on,190,0,4,,,,,,,,,1,,,69,0
76318,note_on,94,0,1,,,,,,,,,5,,,76,0
76320,note_on,2,0,1,,,,,,,,,5,,,76,110
76320,note_on,2,0,4,,,,,,,,,1,,,74,127
76320,note_on,64,0,3,,,,,,,,,0,,,76,75
76352,note_on,32,0,3,,,,,,,,,0,,,76,0
76384,note_on,160,0,2,,,,,,,,,6,,,45,0
76384,note_on,160,0,7,,,,,,,,,7,,,33,0
76384,note_on,160,0,5,,,,,,,,,2,,,61,0
76384,note_on,160,0,6,,,,,,,,,3,,,45,0
76414,note_on,94,0,4,,,,,,,,,1,,,74,0
76414,note_on,94,0,1,,,,,,,,,5,,,76,0
76416,note_on,2,0,4,,,,,,,,,1,,,73,127
76416,note_on,2,0,1,,,,,,,,,5,,,76,110
76416,note_on,64,0,3,,,,,,,,,0,,,76,75
76448,note_on,32,0,3,,,,,,,,,0,,,76,0
76510,note_on,94,0,4,,,,,,,,,1,,,73,0
76510,note_on,94,0,1,,,,,,,,,5,,,76,0
76512,note_on,128,0,7,,,,,,,,,7,,,40,92
76512,note_on,128,0,6,,,,,,,,,3,,,52,75
76512,note_on,128,0,5,,,,,,,,,2,,,64,92
76512,note_on,128,0,2,,,,,,,,,6,,,52,110
76512,note_on,2,0,4,,,,,,,,,1,,,71,127
76512,note_on,64,0,3,,,,,,,,,0,,,80,127
76512,note_on,2,0,1,,,,,,,,,5,,,80,110
76606,note_on,94,0,3,,,,,,,,,0,,,80,0
76606,note_on,94,0,5,,,,,,,,,2,,,64,0
76606,note_on,94,0,6,,,,,,,,,3,,,52,0
76606,note_on,94,0,7,,,,,,,,,7,,,40,0
76606,note_on,94,0,1,,,,,,,,,5,,,80,0
76606,note_on,94,0,4,,,,,,,,,1,,,71,0
76606,note_on,94,0,2,,,,,,,,,6,,,52,0
76608,note_on,2,0,3,,,,,,,,,0,,,81,127
76608,note_on,2,0,6,,,,,,,,,3,,,57,75
76608,note_on,2,0,2,,,,,,,,,6,,,57,110
76608,note_on,2,0,5,,,,,,,,,2,,,64,92
76608,note_on,2,0,4,,,,,,,,,1,,,73,127
76608,note_on,2,0,7,,,,,,,,,7,,,45,92
76608,note_on,2,0,1,,,,,,,,,5,,,81,110
76702,note_on,94,0,3,,,,,,,,,0,,,81,0
76702,note_on,94,0,1,,,,,,,,,5,,,81,0
76702,note_on,94,0,4,,,,,,,,,1,,,73,0
76704,note_on,2,0,3,,,,,,,,,0,,,73,127
76704,note_on,2,0,4,,,,,,,,,1,,,76,127
76704,note_on,2,0,1,,,,,,,,,5,,,73,110
76736,note_on,32,0,4,,,,,,,,,1,,,76,0
76768,note_on,160,0,5,,,,,,,,,2,,,64,0
76768,note_on,160,0,6,,,,,,,,,3,,,57,0
76768,note_on,160,0,7,,,,,,,,,7,,,45,0
76768,note_on,160,0,2,,,,,,,,,6,,,57,0
76798,note_on,94,0,1,,,,,,,,,5,,,73,0
76798,note_on,94,0,3,,,,,,,,,0,,,73,0
76800,note_on,32,0,2,,,,,,,,,6,,,52,110
76800,set_tempo,33216,1,0,545454,,,,,,,,,,,,
76800,note_on,64,0,4,,,,,,,,,1,,,76,127
76800,note_on,32,0,7,,,,,,,,,7,,,40,92
76800,note_on,2,0,1,,,,,,,,,5,,,71,110
76800,note_on,2,0,3,,,,,,,,,0,,,71,127
76800,note_on,32,0,5,,,,,,,,,2,,,64,92
76800,note_on,32,0,6,,,,,,,,,3,,,52,75
76832,note_on,32,0,4,,,,,,,,,1,,,76,0
76894,note_on,94,0,3,,,,,,,,,0,,,71,0
76894,note_on,94,0,1,,,,,,,,,5,,,71,0
76896,note_on,2,0,3,,,,,,,,,0,,,81,127
76896,note_on,2,0,1,,,,,,,,,5,,,81,110
76896,note_on,64,0,4,,,,,,,,,1,,,76,127
76928,note_on,32,0,4,,,,,,,,,1,,,76,0
76960,note_on,160,0,6,,,,,,,,,3,,,52,0
76960,note_on,160,0,5,,,,,,,,,2,,,64,0
76960,note_on,160,0,7,,,,,,,,,7,,,40,0
76960,note_on,160,0,2,,,,,,,,,6,,,52,0
76990,note_on,94,0,3,,,,,,,,,0,,,81,0
76990,note_on,94,0,1,,,,,,,,,5,,,81,0
76992,set_tempo,192,1,0,600000,,,,,,,,,,,,
76992,note_on,2,0,3,,,,,,,,,0,,,71,127
76992,note_on,32,0,7,,,,,,,,,7,,,28,92
76992,note_on,32,0,6,,,,,,,,,3,,,40,75
76992,note_on,64,0,4,,,,,,,,,1,,,76,127
76992,note_on,32,0,2,,,,,,,,,6,,,40,110
76992,note_on,32,0,5,,,,,,,,,2,,,64,92
76992,note_on,2,0,1,,,,,,,,,5,,,71,110
77024,note_on,32,0,4,,,,,,,,,1,,,76,0
77086,note_on,94,0,1,,,,,,,,,5,,,71,0
77086,note_on,94,0,3,,,,,,,,,0,,,71,0
77088,note_on,2,0,3,,,,,,,,,0,,,80,127
77088,note_on,2,0,1,,,,,,,,,5,,,71,110
77088,set_tempo,96,1,0,857142,,,,,,,,,,,,
77088,note_on,64,0,4,,,,,,,,,1,,,76,127
77110,note_on,22,0,3,,,,,,,,,0,,,80,0
77110,note_on,22,0,4,,,,,,,,,1,,,76,0
77110,note_on,22,0,1,,,,,,,,,5,,,71,0
77112,set_tempo,24,1,0,1000000,,,,,,,,,,,,
77112,note_on,2,0,1,,,,,,,,,5,,,74,110
77112,note_on,2,0,3,,,,,,,,,0,,,81,127
77112,note_on,2,0,4,,,,,,,,,1,,,76,127
77134,note_on,22,0,1,,,,,,,,,5,,,74,0
77134,note_on,22,0,4,,,,,,,,,1,,,76,0
77134,note_on,22,0,3,,,,,,,,,0,,,81,0
77136,note_on,2,0,1,,,,,,,,,5,,,76,110
77136,note_on,2,0,4,,,,,,,,,1,,,76,127
77136,set_tempo,24,1,0,1200000,,,,,,,,,,,,
77136,end_of_track,0,1,0,,,,,,,,,,,,,
77136,note_on,2,0,3,,,,,,,,,0,,,80,127
77152,note_on,160,0,7,,,,,,,,,7,,,28,0
77152,note_on,160,0,5,,,,,,,,,2,,,64,0
77152,note_on,160,0,6,,,,,,,,,3,,,40,0
77152,note_on,160,0,2,,,,,,,,,6,,,40,0
77158,note_on,22,0,1,,,,,,,,,5,,,76,0
77160,note_on,2,0,1,,,,,,,,,5,,,80,110
77182,note_on,46,0,3,,,,,,,,,0,,,80,0
77182,note_on,22,0,1,,,,,,,,,5,,,80,0
77182,note_on,46,0,4,,,,,,,,,1,,,76,0
77184,note_on,32,0,7,,,,,,,,,7,,,33,92
77184,note_on,32,0,5,,,,,,,,,2,,,64,92
77184,note_on,32,0,6,,,,,,,,,3,,,45,75
77184,note_on,0,0,1,,,,,,,,,5,,,73,110
77184,note_on,2,0,1,,,,,,,,,5,,,69,110
77184,note_on,0,0,1,,,,,,,,,5,,,76,110
77184,note_on,32,0,2,,,,,,,,,6,,,45,110
77184,note_on,2,0,3,,,,,,,,,0,,,81,127
77184,note_on,0,0,1,,,,,,,,,5,,,81,110
77184,note_on,2,0,4,,,,,,,,,1,,,73,127
77712,note_on,528,0,5,,,,,,,,,2,,,64,0
77712,end_of_track,0,1,5,,,,,,,,,,,,,
77712,end_of_track,0,1,2,,,,,,,,,,,,,
77712,note_on,528,0,2,,,,,,,,,6,,,45,0
77712,note_on,528,0,6,,,,,,,,,3,,,45,0
77712,end_of_track,0,1,1,,,,,,,,,,,,,
77712,end_of_track,0,1,7,,,,,,,,,,,,,
77712,note_on,528,0,7,,,,,,,,,7,,,33,0
77712,end_of_track,0,1,6,,,,,,,,,,,,,
77712,note_on,0,0,1,,,,,,,,,5,,,81,0
77712,note_on,0,0,1,,,,,,,,,5,,,76,0
77712,note_on,0,0,1,,,,,,,,,5,,,73,0
77712,note_on,528,0,1,,,,,,,,,5,,,69,0
77712,note_on,528,0,3,,,,,,,,,0,,,81,0
77712,end_of_track,0,1,3,,,,,,,,,,,,,
77712,end_of_track,0,1,4,,,,,,,,,,,,,
77712,note_on,528,0,4,,,,,,,,,1,,,73,0
