tick,type,numerator,denominator,clocks_per_click,notated_32nd_notes_per_beat,time,meta,track,data,tempo,control,value,channel,program,key,note,velocity
0,time_signature,3,4,96,8,0,1,0,,,,,,,,,
0,program_change,,,,,0,0,9,,,,,2,48,,,
0,control_change,,,,,0,0,9,,,0,0,2,,,,
0,track_name,,,,,0,1,9,,,,,,,,,
0,track_name,,,,,0,1,10,,,,,,,,,
0,control_change,,,,,0,0,10,,,0,0,3,,,,
0,program_change,,,,,0,0,10,,,,,3,48,,,
0,control_change,,,,,0,0,10,,,7,95,3,,,,
0,key_signature,,,,,0,1,7,,,,,,,F,,
0,control_change,,,,,0,0,7,,,91,67,0,,,,
0,control_change,,,,,0,0,7,,,10,58,0,,,,
0,control_change,,,,,0,0,12,,,0,0,5,,,,
0,control_change,,,,,0,0,9,,,7,100,2,,,,
0,program_change,,,,,0,0,7,,,,,0,40,,,
0,track_name,,,,,0,1,7,,,,,,,,,
0,end_of_track,,,,,0,1,6,,,,,,,,,
0,key_signature,,,,,0,1,6,,,,,,,F,,
0,control_change,,,,,0,0,6,,,91,67,0,,,,
0,control_change,,,,,0,0,6,,,10,58,0,,,,
0,control_change,,,,,0,0,6,,,7,100,0,,,,
0,program_change,,,,,0,0,6,,,,,0,40,,,
0,control_change,,,,,0,0,6,,,0,0,0,,,,
0,track_name,,,,,0,1,6,,,,,,,,,
0,end_of_track,,,,,0,1,5,,,,,,,,,
0,key_signature,,,,,0,1,5,,,,,,,F,,
0,control_change,,,,,0,0,7,,,0,0,0,,,,
0,control_change,,,,,0,0,9,,,10,39,2,,,,
0,control_change,,,,,0,0,9,,,91,65,2,,,,
0,key_signature,,,,,0,1,9,,,,,,,F,,
0,program_change,,,,,0,0,12,,,,,5,48,,,
0,control_change,,,,,0,0,12,,,7,77,5,,,,
0,control_change,,,,,0,0,12,,,10,90,5,,,,
0,control_change,,,,,0,0,12,,,91,65,5,,,,
0,key_signature,,,,,0,1,12,,,,,,,F,,
0,note_on,,,,,0,0,12,,,,,5,,,50,70
0,track_name,,,,,0,1,13,,,,,,,,,
0,control_change,,,,,0,0,13,,,0,0,6,,,,
0,program_change,,,,,0,0,13,,,,,6,6,,,
0,control_change,,,,,0,0,13,,,7,55,6,,,,
0,control_change,,,,,0,0,13,,,91,62,6,,,,
0,key_signature,,,,,0,1,13,,,,,,,F,,
0,note_on,,,,,0,0,13,,,,,6,,,69,100
0,note_on,,,,,0,0,13,,,,,6,,,65,100
0,note_on,,,,,0,0,11,,,,,4,,,62,70
0,key_signature,,,,,0,1,11,,,,,,,F,,
0,control_change,,,,,0,0,11,,,91,64,4,,,,
0,control_change,,,,,0,0,11,,,10,81,4,,,,
0,control_change,,,,,0,0,11,,,7,82,4,,,,
0,program_change,,,,,0,0,11,,,,,4,48,,,
0,control_change,,,,,0,0,11,,,0,0,4,,,,
0,track_name,,,,,0,1,11,,,,,,,,,
0,key_signature,,,,,0,1,10,,,,,,,F,,
0,note_on,,,,,0,0,10,,,,,3,,,74,70
0,note_on,,,,,0,0,9,,,,,2,,,74,70
0,control_change,,,,,0,0,5,,,91,67,0,,,,
0,control_change,,,,,0,0,5,,,10,58,0,,,,
0,control_change,,,,,0,0,7,,,7,100,0,,,,
0,program_change,,,,,0,0,5,,,,,0,40,,,
0,control_change,,,,,0,0,5,,,7,100,0,,,,
0,note_on,,,,,0,0,14,,,,,6,,,62,100
0,key_signature,,,,,0,1,14,,,,,,,F,,
0,control_change,,,,,0,0,14,,,91,62,6,,,,
0,control_change,,,,,0,0,14,,,7,55,6,,,,
0,program_change,,,,,0,0,14,,,,,6,6,,,
0,control_change,,,,,0,0,14,,,0,0,6,,,,
0,track_name,,,,,0,1,14,,,,,,,,,
0,control_change,,,,,0,0,10,,,91,61,3,,,,
0,track_name,,,,,0,1,8,,,,,,,,,
0,program_change,,,,,0,0,8,,,,,1,40,,,
0,control_change,,,,,0,0,8,,,7,100,1,,,,
0,control_change,,,,,0,0,8,,,10,51,1,,,,
0,control_change,,,,,0,0,8,,,91,67,1,,,,
0,key_signature,,,,,0,1,8,,,,,,,F,,
0,set_tempo,,,,,0,1,0,,1578947,,,,,,,
0,sequencer_specific,,,,,0,1,0,"(0, 0, 119, 14, 1)",,,,,,,,
0,sequencer_specific,,,,,0,1,0,"(0, 0, 65)",,,,,,,,
0,control_change,,,,,0,0,8,,,0,0,1,,,,
0,track_name,,,,,0,1,1,,,,,,,,,
0,track_name,,,,,0,1,12,,,,,,,,,
0,track_name,,,,,0,1,2,,,,,,,,,
0,control_change,,,,,0,0,3,,,7,100,0,,,,
0,control_change,,,,,0,0,3,,,10,58,0,,,,
0,control_change,,,,,0,0,3,,,91,67,0,,,,
0,program_change,,,,,0,0,3,,,,,0,40,,,
0,end_of_track,,,,,0,1,1,,,,,,,,,
0,end_of_track,,,,,0,1,3,,,,,,,,,
0,track_name,,,,,0,1,4,,,,,,,,,
0,control_change,,,,,0,0,3,,,0,0,0,,,,
0,control_change,,,,,0,0,4,,,0,0,0,,,,
0,control_change,,,,,0,0,4,,,7,100,0,,,,
0,control_change,,,,,0,0,4,,,10,58,0,,,,
0,control_change,,,,,0,0,4,,,91,67,0,,,,
0,key_signature,,,,,0,1,4,,,,,,,F,,
0,end_of_track,,,,,0,1,4,,,,,,,,,
0,track_name,,,,,0,1,5,,,,,,,,,
0,control_change,,,,,0,0,5,,,0,0,0,,,,
0,program_change,,,,,0,0,4,,,,,0,40,,,
0,track_name,,,,,0,1,3,,,,,,,,,
0,key_signature,,,,,0,1,3,,,,,,,F,,
0,end_of_track,,,,,0,1,2,,,,,,,,,
128,note_off,,,,,128,0,11,,,,,4,,,62,100
128,note_off,,,,,0,0,13,,,,,6,,,65,100
128,note_off,,,,,128,0,14,,,,,6,,,62,100
128,note_off,,,,,128,0,9,,,,,2,,,74,100
128,note_off,,,,,128,0,10,,,,,3,,,74,100
128,note_off,,,,,128,0,12,,,,,5,,,50,100
128,note_off,,,,,128,0,13,,,,,6,,,69,100
192,note_on,,,,,64,0,12,,,,,5,,,38,70
192,note_on,,,,,64,0,14,,,,,6,,,50,100
192,note_on,,,,,64,0,9,,,,,2,,,62,70
192,note_on,,,,,0,0,13,,,,,6,,,65,100
192,note_on,,,,,64,0,11,,,,,4,,,50,70
192,note_on,,,,,64,0,13,,,,,6,,,57,100
192,note_on,,,,,64,0,10,,,,,3,,,62,70
320,note_off,,,,,128,0,9,,,,,2,,,62,100
320,note_off,,,,,128,0,13,,,,,6,,,57,100
320,note_off,,,,,128,0,10,,,,,3,,,62,100
320,note_off,,,,,0,0,13,,,,,6,,,65,100
320,note_off,,,,,128,0,14,,,,,6,,,50,100
320,note_off,,,,,128,0,12,,,,,5,,,38,100
320,note_off,,,,,128,0,11,,,,,4,,,50,100
576,note_on,,,,,256,0,11,,,,,4,,,62,70
576,note_on,,,,,256,0,13,,,,,6,,,65,100
576,note_on,,,,,256,0,9,,,,,2,,,74,70
576,note_on,,,,,256,0,14,,,,,6,,,62,100
576,note_on,,,,,256,0,12,,,,,5,,,50,70
576,note_on,,,,,256,0,10,,,,,3,,,74,70
576,note_on,,,,,0,0,13,,,,,6,,,70,100
704,note_off,,,,,128,0,11,,,,,4,,,62,100
704,note_off,,,,,128,0,9,,,,,2,,,74,100
704,note_off,,,,,0,0,13,,,,,6,,,70,100
704,note_off,,,,,128,0,13,,,,,6,,,65,100
704,note_off,,,,,128,0,10,,,,,3,,,74,100
704,note_off,,,,,128,0,12,,,,,5,,,50,100
704,note_off,,,,,128,0,14,,,,,6,,,62,100
768,note_on,,,,,64,0,14,,,,,6,,,62,100
768,note_on,,,,,64,0,11,,,,,4,,,62,70
768,note_on,,,,,0,0,13,,,,,6,,,70,100
768,note_on,,,,,64,0,13,,,,,6,,,65,100
768,note_on,,,,,64,0,9,,,,,2,,,74,70
768,note_on,,,,,64,0,12,,,,,5,,,50,70
768,note_on,,,,,64,0,10,,,,,3,,,74,70
896,note_off,,,,,0,0,13,,,,,6,,,70,100
896,note_off,,,,,128,0,13,,,,,6,,,65,100
896,note_off,,,,,128,0,14,,,,,6,,,62,100
896,note_off,,,,,128,0,9,,,,,2,,,74,100
896,note_off,,,,,128,0,12,,,,,5,,,50,100
896,note_off,,,,,128,0,11,,,,,4,,,62,100
896,note_off,,,,,128,0,10,,,,,3,,,74,100
960,note_on,,,,,64,0,11,,,,,4,,,60,70
960,note_on,,,,,64,0,13,,,,,6,,,64,100
960,note_on,,,,,64,0,9,,,,,2,,,72,70
960,note_on,,,,,64,0,12,,,,,5,,,48,70
960,note_on,,,,,64,0,14,,,,,6,,,60,100
960,note_on,,,,,64,0,10,,,,,3,,,72,70
1024,note_off,,,,,64,0,13,,,,,6,,,64,100
1024,note_off,,,,,64,0,11,,,,,4,,,60,100
1024,note_off,,,,,64,0,9,,,,,2,,,72,100
1024,note_off,,,,,64,0,12,,,,,5,,,48,100
1024,note_off,,,,,64,0,14,,,,,6,,,60,100
1024,note_off,,,,,64,0,10,,,,,3,,,72,100
1056,note_on,,,,,32,0,11,,,,,4,,,58,70
1056,note_on,,,,,32,0,12,,,,,5,,,46,70
1056,note_on,,,,,32,0,13,,,,,6,,,62,100
1056,note_on,,,,,32,0,14,,,,,6,,,58,100
1056,note_on,,,,,32,0,10,,,,,3,,,70,70
1056,note_on,,,,,32,0,9,,,,,2,,,70,70
1120,note_off,,,,,64,0,10,,,,,3,,,70,100
1120,note_off,,,,,64,0,14,,,,,6,,,58,100
1120,note_off,,,,,64,0,12,,,,,5,,,46,100
1120,note_off,,,,,64,0,9,,,,,2,,,70,100
1120,note_off,,,,,64,0,11,,,,,4,,,58,100
1120,note_off,,,,,64,0,13,,,,,6,,,62,100
1152,note_on,,,,,32,0,13,,,,,6,,,67,100
1152,note_on,,,,,0,0,13,,,,,6,,,70,100
1152,note_on,,,,,32,0,10,,,,,3,,,72,70
1152,note_on,,,,,32,0,12,,,,,5,,,48,70
1152,note_on,,,,,32,0,9,,,,,2,,,72,70
1152,note_on,,,,,32,0,14,,,,,6,,,60,100
1152,note_on,,,,,32,0,11,,,,,4,,,60,70
1280,note_off,,,,,128,0,14,,,,,6,,,60,100
1280,note_off,,,,,128,0,11,,,,,4,,,60,100
1280,note_off,,,,,128,0,13,,,,,6,,,67,100
1280,note_off,,,,,0,0,13,,,,,6,,,70,100
1280,note_off,,,,,128,0,10,,,,,3,,,72,100
1280,note_off,,,,,128,0,9,,,,,2,,,72,100
1280,note_off,,,,,128,0,12,,,,,5,,,48,100
1344,note_on,,,,,64,0,9,,,,,2,,,60,70
1344,note_on,,,,,64,0,11,,,,,4,,,48,70
1344,note_on,,,,,64,0,10,,,,,3,,,60,70
1344,note_on,,,,,64,0,13,,,,,6,,,64,100
1344,note_on,,,,,64,0,12,,,,,5,,,36,70
1344,note_on,,,,,64,0,14,,,,,6,,,48,100
1344,note_on,,,,,0,0,13,,,,,6,,,67,100
1472,note_off,,,,,128,0,13,,,,,6,,,64,100
1472,note_off,,,,,128,0,10,,,,,3,,,60,100
1472,note_off,,,,,128,0,9,,,,,2,,,60,100
1472,note_off,,,,,128,0,11,,,,,4,,,48,100
1472,note_off,,,,,128,0,14,,,,,6,,,48,100
1472,note_off,,,,,128,0,12,,,,,5,,,36,100
1472,note_off,,,,,0,0,13,,,,,6,,,67,100
1728,note_on,,,,,256,0,14,,,,,6,,,60,100
1728,note_on,,,,,256,0,11,,,,,4,,,60,70
1728,note_on,,,,,0,0,13,,,,,6,,,69,100
1728,note_on,,,,,256,0,13,,,,,6,,,64,100
1728,note_on,,,,,256,0,10,,,,,3,,,72,70
1728,note_on,,,,,256,0,9,,,,,2,,,72,70
1728,note_on,,,,,256,0,12,,,,,5,,,48,70
1856,note_off,,,,,128,0,13,,,,,6,,,64,100
1856,note_off,,,,,0,0,13,,,,,6,,,69,100
1856,note_off,,,,,128,0,9,,,,,2,,,72,100
1856,note_off,,,,,128,0,14,,,,,6,,,60,100
1856,note_off,,,,,128,0,11,,,,,4,,,60,100
1856,note_off,,,,,128,0,12,,,,,5,,,48,100
1856,note_off,,,,,128,0,10,,,,,3,,,72,100
1920,note_on,,,,,64,0,12,,,,,5,,,48,70
1920,note_on,,,,,64,0,9,,,,,2,,,72,70
1920,note_on,,,,,64,0,10,,,,,3,,,72,70
1920,note_on,,,,,64,0,13,,,,,6,,,64,100
1920,note_on,,,,,0,0,13,,,,,6,,,69,100
1920,note_on,,,,,64,0,14,,,,,6,,,60,100
1920,note_on,,,,,64,0,11,,,,,4,,,60,70
2048,note_off,,,,,128,0,13,,,,,6,,,64,100
2048,note_off,,,,,128,0,10,,,,,3,,,72,100
2048,note_off,,,,,128,0,14,,,,,6,,,60,100
2048,note_off,,,,,128,0,9,,,,,2,,,72,100
2048,note_off,,,,,0,0,13,,,,,6,,,69,100
2048,note_off,,,,,128,0,12,,,,,5,,,48,100
2048,note_off,,,,,128,0,11,,,,,4,,,60,100
2112,note_on,,,,,64,0,9,,,,,2,,,70,70
2112,note_on,,,,,64,0,13,,,,,6,,,62,100
2112,note_on,,,,,64,0,12,,,,,5,,,46,70
2112,note_on,,,,,64,0,14,,,,,6,,,58,100
2112,note_on,,,,,64,0,10,,,,,3,,,70,70
2112,note_on,,,,,64,0,11,,,,,4,,,58,70
2176,note_off,,,,,64,0,13,,,,,6,,,62,100
2176,note_off,,,,,64,0,14,,,,,6,,,58,100
2176,note_off,,,,,64,0,12,,,,,5,,,46,100
2176,note_off,,,,,64,0,11,,,,,4,,,58,100
2176,note_off,,,,,64,0,9,,,,,2,,,70,100
2176,note_off,,,,,64,0,10,,,,,3,,,70,100
2208,note_on,,,,,32,0,13,,,,,6,,,60,100
2208,note_on,,,,,32,0,14,,,,,6,,,57,100
2208,note_on,,,,,32,0,12,,,,,5,,,45,70
2208,note_on,,,,,32,0,9,,,,,2,,,69,70
2208,note_on,,,,,32,0,11,,,,,4,,,57,70
2208,note_on,,,,,32,0,10,,,,,3,,,69,70
2272,note_off,,,,,64,0,11,,,,,4,,,57,100
2272,note_off,,,,,64,0,10,,,,,3,,,69,100
2272,note_off,,,,,64,0,14,,,,,6,,,57,100
2272,note_off,,,,,64,0,12,,,,,5,,,45,100
2272,note_off,,,,,64,0,13,,,,,6,,,60,100
2272,note_off,,,,,64,0,9,,,,,2,,,69,100
2304,note_on,,,,,32,0,9,,,,,2,,,70,70
2304,note_on,,,,,32,0,10,,,,,3,,,70,70
2304,note_on,,,,,32,0,12,,,,,5,,,46,70
2304,note_on,,,,,32,0,11,,,,,4,,,58,70
2304,note_on,,,,,0,0,13,,,,,6,,,69,100
2304,note_on,,,,,32,0,13,,,,,6,,,65,100
2304,note_on,,,,,32,0,14,,,,,6,,,58,100
2432,note_off,,,,,128,0,14,,,,,6,,,58,100
2432,note_off,,,,,128,0,10,,,,,3,,,70,100
2432,note_off,,,,,128,0,12,,,,,5,,,46,100
2432,note_off,,,,,128,0,9,,,,,2,,,70,100
2432,note_off,,,,,0,0,13,,,,,6,,,69,100
2432,note_off,,,,,128,0,13,,,,,6,,,65,100
2432,note_off,,,,,128,0,11,,,,,4,,,58,100
2496,note_on,,,,,64,0,14,,,,,6,,,46,100
2496,note_on,,,,,64,0,12,,,,,5,,,34,70
2496,note_on,,,,,64,0,9,,,,,2,,,58,70
2496,note_on,,,,,64,0,11,,,,,4,,,46,70
2496,note_on,,,,,64,0,13,,,,,6,,,62,100
2496,note_on,,,,,0,0,13,,,,,6,,,65,100
2496,note_on,,,,,64,0,10,,,,,3,,,58,70
2624,note_off,,,,,128,0,11,,,,,4,,,46,100
2624,note_off,,,,,128,0,13,,,,,6,,,62,100
2624,note_off,,,,,0,0,13,,,,,6,,,65,100
2624,note_off,,,,,128,0,12,,,,,5,,,34,100
2624,note_off,,,,,128,0,10,,,,,3,,,58,100
2624,note_off,,,,,128,0,9,,,,,2,,,58,100
2624,note_off,,,,,128,0,14,,,,,6,,,46,100
2880,note_on,,,,,256,0,9,,,,,2,,,70,70
2880,note_on,,,,,256,0,14,,,,,6,,,58,100
2880,note_on,,,,,256,0,10,,,,,3,,,70,70
2880,note_on,,,,,256,0,13,,,,,6,,,62,100
2880,note_on,,,,,0,0,13,,,,,6,,,67,100
2880,note_on,,,,,256,0,11,,,,,4,,,58,70
2880,note_on,,,,,256,0,12,,,,,5,,,46,70
3008,note_off,,,,,128,0,9,,,,,2,,,70,100
3008,note_off,,,,,128,0,14,,,,,6,,,58,100
3008,note_off,,,,,128,0,12,,,,,5,,,46,100
3008,note_off,,,,,0,0,13,,,,,6,,,67,100
3008,note_off,,,,,128,0,13,,,,,6,,,62,100
3008,note_off,,,,,128,0,10,,,,,3,,,70,100
3008,note_off,,,,,128,0,11,,,,,4,,,58,100
3072,note_on,,,,,0,0,13,,,,,6,,,67,100
3072,note_on,,,,,64,0,13,,,,,6,,,62,100
3072,note_on,,,,,64,0,14,,,,,6,,,58,100
3072,note_on,,,,,64,0,9,,,,,2,,,70,70
3072,note_on,,,,,64,0,11,,,,,4,,,58,70
3072,note_on,,,,,64,0,10,,,,,3,,,70,70
3072,note_on,,,,,64,0,12,,,,,5,,,46,70
3200,note_off,,,,,128,0,13,,,,,6,,,62,100
3200,note_off,,,,,128,0,9,,,,,2,,,70,100
3200,note_off,,,,,128,0,10,,,,,3,,,70,100
3200,note_off,,,,,128,0,12,,,,,5,,,46,100
3200,note_off,,,,,128,0,14,,,,,6,,,58,100
3200,note_off,,,,,0,0,13,,,,,6,,,67,100
3200,note_off,,,,,128,0,11,,,,,4,,,58,100
3264,note_on,,,,,64,0,10,,,,,3,,,69,70
3264,note_on,,,,,64,0,11,,,,,4,,,57,70
3264,note_on,,,,,64,0,12,,,,,5,,,45,70
3264,note_on,,,,,64,0,13,,,,,6,,,60,100
3264,note_on,,,,,64,0,14,,,,,6,,,57,100
3264,note_on,,,,,64,0,9,,,,,2,,,69,70
3328,note_off,,,,,64,0,12,,,,,5,,,45,100
3328,note_off,,,,,64,0,14,,,,,6,,,57,100
3328,note_off,,,,,64,0,11,,,,,4,,,57,100
3328,note_off,,,,,64,0,10,,,,,3,,,69,100
3328,note_off,,,,,64,0,13,,,,,6,,,60,100
3328,note_off,,,,,64,0,9,,,,,2,,,69,100
3360,note_on,,,,,32,0,13,,,,,6,,,58,100
3360,note_on,,,,,32,0,14,,,,,6,,,55,100
3360,note_on,,,,,32,0,11,,,,,4,,,55,70
3360,note_on,,,,,32,0,10,,,,,3,,,67,70
3360,note_on,,,,,32,0,12,,,,,5,,,43,70
3360,note_on,,,,,32,0,9,,,,,2,,,67,70
3424,note_off,,,,,64,0,14,,,,,6,,,55,100
3424,note_off,,,,,64,0,12,,,,,5,,,43,100
3424,note_off,,,,,64,0,11,,,,,4,,,55,100
3424,note_off,,,,,64,0,13,,,,,6,,,58,100
3424,note_off,,,,,64,0,9,,,,,2,,,67,100
3424,note_off,,,,,64,0,10,,,,,3,,,67,100
3456,note_on,,,,,32,0,12,,,,,5,,,45,70
3456,note_on,,,,,32,0,11,,,,,4,,,57,70
3456,note_on,,,,,32,0,10,,,,,3,,,69,70
3456,note_on,,,,,32,0,13,,,,,6,,,61,100
3456,note_on,,,,,0,0,13,,,,,6,,,67,100
3456,note_on,,,,,32,0,9,,,,,2,,,69,70
3456,note_on,,,,,32,0,14,,,,,6,,,57,100
3584,note_off,,,,,128,0,11,,,,,4,,,57,100
3584,note_off,,,,,128,0,9,,,,,2,,,69,100
3584,note_off,,,,,128,0,13,,,,,6,,,61,100
3584,note_off,,,,,128,0,12,,,,,5,,,45,100
3584,note_off,,,,,0,0,13,,,,,6,,,67,100
3584,note_off,,,,,128,0,10,,,,,3,,,69,100
3584,note_off,,,,,128,0,14,,,,,6,,,57,100
3648,note_on,,,,,64,0,12,,,,,5,,,33,70
3648,note_on,,,,,64,0,9,,,,,2,,,57,70
3648,note_on,,,,,64,0,11,,,,,4,,,45,70
3648,note_on,,,,,64,0,14,,,,,6,,,45,100
3648,note_on,,,,,64,0,13,,,,,6,,,55,100
3648,note_on,,,,,0,0,13,,,,,6,,,61,100
3648,note_on,,,,,64,0,10,,,,,3,,,57,70
3776,note_off,,,,,128,0,12,,,,,5,,,33,100
3776,note_off,,,,,128,0,10,,,,,3,,,57,100
3776,note_off,,,,,128,0,11,,,,,4,,,45,100
3776,note_off,,,,,128,0,9,,,,,2,,,57,100
3776,note_off,,,,,128,0,13,,,,,6,,,55,100
3776,note_off,,,,,128,0,14,,,,,6,,,45,100
3776,note_off,,,,,0,0,13,,,,,6,,,61,100
4032,note_on,,,,,256,0,14,,,,,6,,,57,100
4032,note_on,,,,,256,0,9,,,,,2,,,69,70
4032,note_on,,,,,0,0,13,,,,,6,,,67,100
4032,note_on,,,,,256,0,10,,,,,3,,,69,70
4032,note_on,,,,,256,0,11,,,,,4,,,57,70
4032,note_on,,,,,256,0,12,,,,,5,,,45,70
4032,note_on,,,,,256,0,13,,,,,6,,,61,100
4160,note_off,,,,,128,0,11,,,,,4,,,57,100
4160,note_off,,,,,128,0,14,,,,,6,,,57,100
4160,note_off,,,,,128,0,12,,,,,5,,,45,100
4160,note_off,,,,,128,0,10,,,,,3,,,69,100
4160,note_off,,,,,128,0,13,,,,,6,,,61,100
4160,note_off,,,,,0,0,13,,,,,6,,,67,100
4160,note_off,,,,,128,0,9,,,,,2,,,69,100
4224,note_on,,,,,64,0,14,,,,,6,,,57,100
4224,note_on,,,,,64,0,13,,,,,6,,,61,100
4224,note_on,,,,,0,0,13,,,,,6,,,67,100
4224,note_on,,,,,64,0,11,,,,,4,,,57,70
4224,note_on,,,,,64,0,10,,,,,3,,,69,70
4224,note_on,,,,,64,0,12,,,,,5,,,45,70
4224,note_on,,,,,64,0,9,,,,,2,,,69,70
4352,note_off,,,,,128,0,11,,,,,4,,,57,100
4352,note_off,,,,,128,0,10,,,,,3,,,69,100
4352,note_off,,,,,128,0,9,,,,,2,,,69,100
4352,note_off,,,,,128,0,12,,,,,5,,,45,100
4352,note_off,,,,,0,0,13,,,,,6,,,67,100
4352,note_off,,,,,128,0,13,,,,,6,,,61,100
4352,note_off,,,,,128,0,14,,,,,6,,,57,100
4416,note_on,,,,,64,0,9,,,,,2,,,57,70
4416,note_on,,,,,0,0,13,,,,,6,,,61,100
4416,note_on,,,,,64,0,11,,,,,4,,,45,70
4416,note_on,,,,,64,0,12,,,,,5,,,33,70
4416,note_on,,,,,64,0,10,,,,,3,,,57,70
4416,note_on,,,,,64,0,14,,,,,6,,,45,100
4416,note_on,,,,,64,0,13,,,,,6,,,55,100
4544,note_off,,,,,128,0,14,,,,,6,,,45,100
4544,note_off,,,,,128,0,11,,,,,4,,,45,100
4544,note_off,,,,,128,0,10,,,,,3,,,57,100
4544,note_off,,,,,128,0,9,,,,,2,,,57,100
4544,note_off,,,,,128,0,12,,,,,5,,,33,100
4544,note_off,,,,,128,0,13,,,,,6,,,55,100
4544,note_off,,,,,0,0,13,,,,,6,,,61,100
4608,note_on,,,,,64,0,9,,,,,2,,,74,50
4608,note_on,,,,,64,0,10,,,,,3,,,74,50
4608,note_on,,,,,64,0,14,,,,,6,,,50,100
4608,note_on,,,,,4608,0,7,,,,,0,,,74,70
4608,note_on,,,,,64,0,11,,,,,4,,,50,70
4608,note_on,,,,,0,0,9,,,,,2,,,62,70
4608,note_on,,,,,64,0,12,,,,,5,,,38,70
4636,note_on,,,,,92,0,13,,,,,6,,,57,100
4668,note_on,,,,,32,0,13,,,,,6,,,62,100
4700,note_on,,,,,32,0,13,,,,,6,,,65,100
4736,note_off,,,,,128,0,9,,,,,2,,,74,100
4736,note_off,,,,,128,0,10,,,,,3,,,74,100
4800,note_on,,,,,64,0,9,,,,,2,,,62,50
4800,note_on,,,,,64,0,10,,,,,3,,,62,50
4864,note_off,,,,,256,0,14,,,,,6,,,50,100
4864,note_off,,,,,256,0,11,,,,,4,,,50,100
4864,note_off,,,,,256,0,12,,,,,5,,,38,100
4864,note_off,,,,,64,0,9,,,,,2,,,62,100
4892,note_off,,,,,192,0,13,,,,,6,,,57,100
4924,note_off,,,,,32,0,13,,,,,6,,,62,100
4928,note_off,,,,,64,0,9,,,,,2,,,62,100
4928,note_off,,,,,128,0,10,,,,,3,,,62,100
4956,note_off,,,,,32,0,13,,,,,6,,,65,100
5124,note_off,,,,,516,0,7,,,,,0,,,74,100
5184,note_on,,,,,256,0,10,,,,,3,,,74,50
5184,note_on,,,,,256,0,9,,,,,2,,,74,50
5184,note_on,,,,,60,0,7,,,,,0,,,74,70
5248,note_off,,,,,64,0,7,,,,,0,,,74,100
5280,note_on,,,,,32,0,7,,,,,0,,,76,70
5312,note_off,,,,,128,0,9,,,,,2,,,74,100
5312,note_off,,,,,128,0,10,,,,,3,,,74,100
5344,note_off,,,,,64,0,7,,,,,0,,,76,100
5376,note_on,,,,,64,0,10,,,,,3,,,74,50
5376,note_on,,,,,64,0,9,,,,,2,,,74,50
5376,note_on,,,,,32,0,7,,,,,0,,,77,70
5440,note_off,,,,,64,0,7,,,,,0,,,77,100
5472,note_on,,,,,32,0,7,,,,,0,,,74,70
5504,note_off,,,,,128,0,9,,,,,2,,,74,100
5504,note_off,,,,,128,0,10,,,,,3,,,74,100
5536,note_off,,,,,64,0,7,,,,,0,,,74,100
5568,note_on,,,,,32,0,7,,,,,0,,,76,70
5568,note_on,,,,,64,0,10,,,,,3,,,72,50
5568,note_on,,,,,64,0,9,,,,,2,,,72,50
5632,note_off,,,,,64,0,7,,,,,0,,,76,100
5632,note_off,,,,,64,0,10,,,,,3,,,72,100
5632,note_off,,,,,64,0,9,,,,,2,,,72,100
5664,note_on,,,,,32,0,10,,,,,3,,,70,50
5664,note_on,,,,,32,0,7,,,,,0,,,77,70
5664,note_on,,,,,32,0,9,,,,,2,,,70,50
5728,note_off,,,,,64,0,9,,,,,2,,,70,100
5728,note_off,,,,,64,0,10,,,,,3,,,70,100
5728,note_off,,,,,64,0,7,,,,,0,,,77,100
5760,note_on,,,,,32,0,10,,,,,3,,,72,50
5760,note_on,,,,,32,0,7,,,,,0,,,76,70
5760,note_on,,,,,32,0,9,,,,,2,,,72,50
5888,note_off,,,,,128,0,10,,,,,3,,,72,100
5888,note_off,,,,,128,0,9,,,,,2,,,72,100
5952,note_on,,,,,64,0,10,,,,,3,,,60,50
5952,note_on,,,,,64,0,9,,,,,2,,,60,50
6080,note_off,,,,,128,0,9,,,,,2,,,60,100
6080,note_off,,,,,128,0,10,,,,,3,,,60,100
6276,note_off,,,,,516,0,7,,,,,0,,,76,100
6336,note_on,,,,,256,0,10,,,,,3,,,72,50
6336,note_on,,,,,256,0,9,,,,,2,,,72,50
6336,note_on,,,,,60,0,7,,,,,0,,,76,70
6464,note_off,,,,,128,0,10,,,,,3,,,72,100
6464,note_off,,,,,128,0,7,,,,,0,,,76,100
6464,note_off,,,,,128,0,9,,,,,2,,,72,100
6528,note_on,,,,,64,0,7,,,,,0,,,77,70
6528,note_on,,,,,64,0,10,,,,,3,,,72,50
6528,note_on,,,,,64,0,9,,,,,2,,,72,50
6620,note_off,,,,,92,0,7,,,,,0,,,77,100
6624,note_on,,,,,4,0,7,,,,,0,,,76,70
6656,note_off,,,,,128,0,9,,,,,2,,,72,100
6656,note_off,,,,,128,0,10,,,,,3,,,72,100
6688,note_off,,,,,64,0,7,,,,,0,,,76,100
6720,note_on,,,,,64,0,9,,,,,2,,,70,50
6720,note_on,,,,,64,0,10,,,,,3,,,70,50
6720,note_on,,,,,32,0,7,,,,,0,,,74,70
6784,note_off,,,,,64,0,9,,,,,2,,,70,100
6784,note_off,,,,,64,0,10,,,,,3,,,70,100
6812,note_off,,,,,92,0,7,,,,,0,,,74,100
6816,note_on,,,,,32,0,9,,,,,2,,,69,50
6816,note_on,,,,,32,0,10,,,,,3,,,69,50
6816,note_on,,,,,4,0,7,,,,,0,,,73,70
6880,note_off,,,,,64,0,10,,,,,3,,,69,100
6880,note_off,,,,,64,0,7,,,,,0,,,73,100
6880,note_off,,,,,64,0,9,,,,,2,,,69,100
6912,note_on,,,,,32,0,10,,,,,3,,,70,50
6912,note_on,,,,,32,0,7,,,,,0,,,74,70
6912,note_on,,,,,32,0,9,,,,,2,,,70,50
7040,note_off,,,,,128,0,9,,,,,2,,,70,100
7040,note_off,,,,,128,0,10,,,,,3,,,70,100
7104,note_on,,,,,64,0,9,,,,,2,,,58,50
7104,note_on,,,,,64,0,10,,,,,3,,,58,50
7232,note_off,,,,,128,0,9,,,,,2,,,58,100
7232,note_off,,,,,128,0,10,,,,,3,,,58,100
7428,note_off,,,,,516,0,7,,,,,0,,,74,100
7488,note_on,,,,,256,0,9,,,,,2,,,70,50
7488,note_on,,,,,256,0,10,,,,,3,,,70,50
7488,note_on,,,,,60,0,7,,,,,0,,,76,70
7552,note_off,,,,,64,0,7,,,,,0,,,76,100
7584,note_on,,,,,32,0,7,,,,,0,,,77,70
7616,note_off,,,,,128,0,10,,,,,3,,,70,100
7616,note_off,,,,,128,0,9,,,,,2,,,70,100
7648,note_off,,,,,64,0,7,,,,,0,,,77,100
7680,note_on,,,,,64,0,10,,,,,3,,,70,50
7680,note_on,,,,,64,0,9,,,,,2,,,70,50
7680,note_on,,,,,32,0,7,,,,,0,,,79,70
7772,note_off,,,,,92,0,7,,,,,0,,,79,100
7776,note_on,,,,,4,0,7,,,,,0,,,76,70
7808,note_off,,,,,128,0,9,,,,,2,,,70,100
7808,note_off,,,,,128,0,10,,,,,3,,,70,100
7840,note_off,,,,,64,0,7,,,,,0,,,76,100
7872,note_on,,,,,32,0,7,,,,,0,,,77,70
7872,note_on,,,,,64,0,10,,,,,3,,,69,50
7872,note_on,,,,,64,0,9,,,,,2,,,69,50
7936,note_off,,,,,64,0,10,,,,,3,,,69,100
7936,note_off,,,,,64,0,9,,,,,2,,,69,100
7964,note_off,,,,,92,0,7,,,,,0,,,77,100
7968,note_on,,,,,4,0,7,,,,,0,,,74,70
7968,note_on,,,,,32,0,10,,,,,3,,,67,50
7968,note_on,,,,,32,0,9,,,,,2,,,67,50
8032,note_off,,,,,64,0,7,,,,,0,,,74,100
8032,note_off,,,,,64,0,10,,,,,3,,,67,100
8032,note_off,,,,,64,0,9,,,,,2,,,67,100
8064,note_on,,,,,32,0,10,,,,,3,,,69,50
8064,note_on,,,,,32,0,7,,,,,0,,,74,70
8064,note_on,,,,,32,0,9,,,,,2,,,69,50
8108,note_off,,,,,44,0,7,,,,,0,,,74,100
8112,note_on,,,,,4,0,7,,,,,0,,,73,70
8132,note_off,,,,,20,0,7,,,,,0,,,73,100
8136,note_on,,,,,4,0,7,,,,,0,,,74,70
8156,note_off,,,,,20,0,7,,,,,0,,,74,100
8160,note_on,,,,,4,0,7,,,,,0,,,73,70
8180,note_off,,,,,20,0,7,,,,,0,,,73,100
8184,note_on,,,,,4,0,7,,,,,0,,,74,70
8192,note_off,,,,,128,0,9,,,,,2,,,69,100
8192,note_off,,,,,128,0,10,,,,,3,,,69,100
8204,note_off,,,,,20,0,7,,,,,0,,,74,100
8208,note_on,,,,,4,0,7,,,,,0,,,73,70
8228,note_off,,,,,20,0,7,,,,,0,,,73,100
8232,note_on,,,,,4,0,7,,,,,0,,,74,70
8252,note_off,,,,,20,0,7,,,,,0,,,74,100
8256,note_on,,,,,64,0,10,,,,,3,,,57,50
8256,note_on,,,,,64,0,9,,,,,2,,,57,50
8256,note_on,,,,,4,0,7,,,,,0,,,73,70
8348,note_off,,,,,92,0,7,,,,,0,,,73,100
8352,note_on,,,,,4,0,7,,,,,0,,,71,70
8384,note_off,,,,,128,0,9,,,,,2,,,57,100
8384,note_off,,,,,128,0,10,,,,,3,,,57,100
8416,note_off,,,,,64,0,7,,,,,0,,,71,100
8448,note_on,,,,,32,0,7,,,,,0,,,69,70
8640,note_on,,,,,256,0,9,,,,,2,,,69,50
8640,note_on,,,,,256,0,10,,,,,3,,,69,50
8704,note_off,,,,,256,0,7,,,,,0,,,69,100
8768,note_off,,,,,128,0,9,,,,,2,,,69,100
8768,note_off,,,,,128,0,10,,,,,3,,,69,100
8832,note_on,,,,,64,0,10,,,,,3,,,69,50
8832,note_on,,,,,64,0,9,,,,,2,,,69,50
8960,note_off,,,,,128,0,9,,,,,2,,,69,100
8960,note_off,,,,,128,0,10,,,,,3,,,69,100
9024,note_on,,,,,64,0,9,,,,,2,,,57,50
9024,note_on,,,,,64,0,10,,,,,3,,,57,50
9152,note_off,,,,,128,0,9,,,,,2,,,57,100
9152,note_off,,,,,128,0,10,,,,,3,,,57,100
9216,note_on,,,,,64,0,9,,,,,2,,,74,50
9216,note_on,,,,,64,0,10,,,,,3,,,74,50
9216,note_on,,,,,9216,0,8,,,,,1,,,74,70
9344,note_off,,,,,128,0,9,,,,,2,,,74,100
9344,note_off,,,,,128,0,10,,,,,3,,,74,100
9408,note_on,,,,,64,0,9,,,,,2,,,62,50
9408,note_on,,,,,64,0,10,,,,,3,,,62,50
9536,note_off,,,,,128,0,10,,,,,3,,,62,100
9536,note_off,,,,,128,0,9,,,,,2,,,62,100
9732,note_off,,,,,516,0,8,,,,,1,,,74,100
9792,note_on,,,,,60,0,8,,,,,1,,,74,70
9792,note_on,,,,,256,0,10,,,,,3,,,74,50
9792,note_on,,,,,256,0,9,,,,,2,,,74,50
9856,note_off,,,,,64,0,8,,,,,1,,,74,100
9888,note_on,,,,,32,0,8,,,,,1,,,76,70
9920,note_off,,,,,128,0,9,,,,,2,,,74,100
9920,note_off,,,,,128,0,10,,,,,3,,,74,100
9952,note_off,,,,,64,0,8,,,,,1,,,76,100
9984,note_on,,,,,32,0,8,,,,,1,,,77,70
9984,note_on,,,,,64,0,9,,,,,2,,,74,50
9984,note_on,,,,,64,0,10,,,,,3,,,74,50
10048,note_off,,,,,64,0,8,,,,,1,,,77,100
10080,note_on,,,,,32,0,8,,,,,1,,,74,70
10112,note_off,,,,,128,0,9,,,,,2,,,74,100
10112,note_off,,,,,128,0,10,,,,,3,,,74,100
10144,note_off,,,,,64,0,8,,,,,1,,,74,100
10176,note_on,,,,,64,0,10,,,,,3,,,72,50
10176,note_on,,,,,64,0,9,,,,,2,,,72,50
10176,note_on,,,,,32,0,8,,,,,1,,,76,70
10240,note_off,,,,,64,0,9,,,,,2,,,72,100
10240,note_off,,,,,64,0,8,,,,,1,,,76,100
10240,note_off,,,,,64,0,10,,,,,3,,,72,100
10272,note_on,,,,,32,0,9,,,,,2,,,70,50
10272,note_on,,,,,32,0,8,,,,,1,,,77,70
10272,note_on,,,,,32,0,10,,,,,3,,,70,50
10336,note_off,,,,,64,0,9,,,,,2,,,70,100
10336,note_off,,,,,64,0,8,,,,,1,,,77,100
10336,note_off,,,,,64,0,10,,,,,3,,,70,100
10368,note_on,,,,,32,0,8,,,,,1,,,76,70
10368,note_on,,,,,32,0,9,,,,,2,,,72,50
10368,note_on,,,,,32,0,10,,,,,3,,,72,50
10496,note_off,,,,,128,0,10,,,,,3,,,72,100
10496,note_off,,,,,128,0,9,,,,,2,,,72,100
10560,note_on,,,,,64,0,10,,,,,3,,,60,50
10560,note_on,,,,,64,0,9,,,,,2,,,60,50
10688,note_off,,,,,128,0,9,,,,,2,,,60,100
10688,note_off,,,,,128,0,10,,,,,3,,,60,100
10884,note_off,,,,,516,0,8,,,,,1,,,76,100
10944,note_on,,,,,256,0,9,,,,,2,,,72,50
10944,note_on,,,,,256,0,10,,,,,3,,,72,50
10944,note_on,,,,,60,0,8,,,,,1,,,76,70
11072,note_off,,,,,128,0,9,,,,,2,,,72,100
11072,note_off,,,,,128,0,10,,,,,3,,,72,100
11072,note_off,,,,,128,0,8,,,,,1,,,76,100
11136,note_on,,,,,64,0,8,,,,,1,,,77,70
11136,note_on,,,,,64,0,9,,,,,2,,,72,50
11136,note_on,,,,,64,0,10,,,,,3,,,72,50
11228,note_off,,,,,92,0,8,,,,,1,,,77,100
11232,note_on,,,,,4,0,8,,,,,1,,,76,70
11264,note_off,,,,,128,0,9,,,,,2,,,72,100
11264,note_off,,,,,128,0,10,,,,,3,,,72,100
11296,note_off,,,,,64,0,8,,,,,1,,,76,100
11328,note_on,,,,,64,0,9,,,,,2,,,70,50
11328,note_on,,,,,64,0,10,,,,,3,,,70,50
11328,note_on,,,,,32,0,8,,,,,1,,,74,70
11392,note_off,,,,,64,0,10,,,,,3,,,70,100
11392,note_off,,,,,64,0,9,,,,,2,,,70,100
11420,note_off,,,,,92,0,8,,,,,1,,,74,100
11424,note_on,,,,,4,0,8,,,,,1,,,73,70
11424,note_on,,,,,32,0,10,,,,,3,,,69,50
11424,note_on,,,,,32,0,9,,,,,2,,,69,50
11488,note_off,,,,,64,0,9,,,,,2,,,69,100
11488,note_off,,,,,64,0,10,,,,,3,,,69,100
11488,note_off,,,,,64,0,8,,,,,1,,,73,100
11520,note_on,,,,,32,0,9,,,,,2,,,70,50
11520,note_on,,,,,32,0,10,,,,,3,,,70,50
11520,note_on,,,,,32,0,8,,,,,1,,,74,70
11648,note_off,,,,,128,0,10,,,,,3,,,70,100
11648,note_off,,,,,128,0,9,,,,,2,,,70,100
11712,note_on,,,,,64,0,9,,,,,2,,,58,50
11712,note_on,,,,,64,0,10,,,,,3,,,58,50
11840,note_off,,,,,128,0,9,,,,,2,,,58,100
11840,note_off,,,,,128,0,10,,,,,3,,,58,100
12036,note_off,,,,,516,0,8,,,,,1,,,74,100
12096,note_on,,,,,256,0,9,,,,,2,,,70,50
12096,note_on,,,,,60,0,8,,,,,1,,,76,70
12096,note_on,,,,,256,0,10,,,,,3,,,70,50
12160,note_off,,,,,64,0,8,,,,,1,,,76,100
12192,note_on,,,,,32,0,8,,,,,1,,,77,70
12224,note_off,,,,,128,0,10,,,,,3,,,70,100
12224,note_off,,,,,128,0,9,,,,,2,,,70,100
12256,note_off,,,,,64,0,8,,,,,1,,,77,100
12288,note_on,,,,,32,0,8,,,,,1,,,79,70
12288,note_on,,,,,64,0,10,,,,,3,,,70,50
12288,note_on,,,,,64,0,9,,,,,2,,,70,50
12380,note_off,,,,,92,0,8,,,,,1,,,79,100
12384,note_on,,,,,4,0,8,,,,,1,,,76,70
12416,note_off,,,,,128,0,10,,,,,3,,,70,100
12416,note_off,,,,,128,0,9,,,,,2,,,70,100
12448,note_off,,,,,64,0,8,,,,,1,,,76,100
12480,note_on,,,,,64,0,10,,,,,3,,,69,50
12480,note_on,,,,,64,0,9,,,,,2,,,69,50
12480,note_on,,,,,32,0,8,,,,,1,,,77,70
12544,note_off,,,,,64,0,9,,,,,2,,,69,100
12544,note_off,,,,,64,0,10,,,,,3,,,69,100
12572,note_off,,,,,92,0,8,,,,,1,,,77,100
12576,note_on,,,,,4,0,8,,,,,1,,,74,70
12576,note_on,,,,,32,0,9,,,,,2,,,67,50
12576,note_on,,,,,32,0,10,,,,,3,,,67,50
12640,note_off,,,,,64,0,9,,,,,2,,,67,100
12640,note_off,,,,,64,0,10,,,,,3,,,67,100
12640,note_off,,,,,64,0,8,,,,,1,,,74,100
12672,note_on,,,,,32,0,8,,,,,1,,,74,70
12672,note_on,,,,,32,0,9,,,,,2,,,69,50
12672,note_on,,,,,32,0,10,,,,,3,,,69,50
12716,note_off,,,,,44,0,8,,,,,1,,,74,100
12720,note_on,,,,,4,0,8,,,,,1,,,73,70
12740,note_off,,,,,20,0,8,,,,,1,,,73,100
12744,note_on,,,,,4,0,8,,,,,1,,,74,70
12764,note_off,,,,,20,0,8,,,,,1,,,74,100
12768,note_on,,,,,4,0,8,,,,,1,,,73,70
12788,note_off,,,,,20,0,8,,,,,1,,,73,100
12792,note_on,,,,,4,0,8,,,,,1,,,74,70
12800,note_off,,,,,128,0,9,,,,,2,,,69,100
12800,note_off,,,,,128,0,10,,,,,3,,,69,100
12812,note_off,,,,,20,0,8,,,,,1,,,74,100
12816,note_on,,,,,4,0,8,,,,,1,,,73,70
12836,note_off,,,,,20,0,8,,,,,1,,,73,100
12840,note_on,,,,,4,0,8,,,,,1,,,74,70
12860,note_off,,,,,20,0,8,,,,,1,,,74,100
12864,note_on,,,,,64,0,10,,,,,3,,,57,50
12864,note_on,,,,,4,0,8,,,,,1,,,73,70
12864,note_on,,,,,64,0,9,,,,,2,,,57,50
12956,note_off,,,,,92,0,8,,,,,1,,,73,100
12960,note_on,,,,,4,0,8,,,,,1,,,71,70
12992,note_off,,,,,128,0,10,,,,,3,,,57,100
12992,note_off,,,,,128,0,9,,,,,2,,,57,100
13024,note_off,,,,,64,0,8,,,,,1,,,71,100
13056,note_on,,,,,32,0,8,,,,,1,,,69,70
13248,note_on,,,,,256,0,10,,,,,3,,,69,50
13248,note_on,,,,,256,0,9,,,,,2,,,69,50
13312,note_off,,,,,256,0,8,,,,,1,,,69,100
13376,note_off,,,,,128,0,9,,,,,2,,,69,100
13376,note_off,,,,,128,0,10,,,,,3,,,69,100
13440,note_on,,,,,64,0,10,,,,,3,,,69,50
13440,note_on,,,,,64,0,9,,,,,2,,,69,50
13568,note_off,,,,,128,0,10,,,,,3,,,69,100
13568,note_off,,,,,128,0,9,,,,,2,,,69,100
13632,note_on,,,,,64,0,10,,,,,3,,,57,50
13632,note_on,,,,,64,0,9,,,,,2,,,57,50
13760,note_off,,,,,128,0,10,,,,,3,,,57,100
13760,note_off,,,,,128,0,9,,,,,2,,,57,100
13824,note_on,,,,,64,0,9,,,,,2,,,74,50
13824,note_on,,,,,64,0,10,,,,,3,,,74,50
13952,note_off,,,,,128,0,10,,,,,3,,,74,100
13952,note_off,,,,,128,0,9,,,,,2,,,74,100
14016,note_on,,,,,64,0,10,,,,,3,,,62,50
14016,note_on,,,,,64,0,9,,,,,2,,,62,50
14144,note_off,,,,,128,0,10,,,,,3,,,62,100
14144,note_off,,,,,128,0,9,,,,,2,,,62,100
14208,note_on,,,,,896,0,8,,,,,1,,,77,70
14400,note_on,,,,,256,0,10,,,,,3,,,74,50
14400,note_on,,,,,256,0,9,,,,,2,,,74,50
14528,note_off,,,,,128,0,9,,,,,2,,,74,100
14528,note_off,,,,,128,0,10,,,,,3,,,74,100
14592,note_on,,,,,64,0,9,,,,,2,,,74,50
14592,note_on,,,,,64,0,10,,,,,3,,,74,50
14720,note_off,,,,,128,0,9,,,,,2,,,74,100
14720,note_off,,,,,128,0,10,,,,,3,,,74,100
14784,note_on,,,,,64,0,9,,,,,2,,,72,50
14784,note_on,,,,,64,0,10,,,,,3,,,72,50
14848,note_off,,,,,64,0,9,,,,,2,,,72,100
14848,note_off,,,,,64,0,10,,,,,3,,,72,100
14880,note_on,,,,,32,0,10,,,,,3,,,74,50
14880,note_on,,,,,32,0,9,,,,,2,,,74,50
14944,note_off,,,,,64,0,9,,,,,2,,,74,100
14944,note_off,,,,,64,0,10,,,,,3,,,74,100
14976,note_on,,,,,32,0,9,,,,,2,,,67,50
14976,note_on,,,,,32,0,10,,,,,3,,,67,50
15104,note_off,,,,,128,0,10,,,,,3,,,67,100
15104,note_off,,,,,128,0,9,,,,,2,,,67,100
15168,note_on,,,,,64,0,9,,,,,2,,,55,50
15168,note_on,,,,,0,0,8,,,,,1,,,76,70
15168,note_off,,,,,960,0,8,,,,,1,,,77,100
15168,note_on,,,,,64,0,10,,,,,3,,,55,50
15260,note_off,,,,,92,0,8,,,,,1,,,76,100
15264,note_on,,,,,4,0,8,,,,,1,,,77,70
15296,note_off,,,,,128,0,10,,,,,3,,,55,100
15296,note_off,,,,,128,0,9,,,,,2,,,55,100
15328,note_off,,,,,64,0,8,,,,,1,,,77,100
15360,note_on,,,,,32,0,8,,,,,1,,,79,70
15360,note_on,,,,,6656,0,7,,,,,0,,,82,70
15452,note_off,,,,,92,0,8,,,,,1,,,79,100
15456,note_on,,,,,4,0,8,,,,,1,,,77,70
15548,note_off,,,,,92,0,8,,,,,1,,,77,100
15552,note_on,,,,,256,0,10,,,,,3,,,67,50
15552,note_on,,,,,256,0,9,,,,,2,,,67,50
15552,note_on,,,,,4,0,8,,,,,1,,,76,70
15644,note_off,,,,,92,0,8,,,,,1,,,76,100
15648,note_on,,,,,4,0,8,,,,,1,,,74,70
15680,note_off,,,,,128,0,9,,,,,2,,,67,100
15680,note_off,,,,,128,0,10,,,,,3,,,67,100
15712,note_off,,,,,64,0,8,,,,,1,,,74,100
15744,note_on,,,,,64,0,10,,,,,3,,,67,50
15744,note_on,,,,,32,0,8,,,,,1,,,79,70
15744,note_on,,,,,64,0,9,,,,,2,,,67,50
15836,note_off,,,,,92,0,8,,,,,1,,,79,100
15840,note_on,,,,,4,0,8,,,,,1,,,77,70
15872,note_off,,,,,128,0,10,,,,,3,,,67,100
15872,note_off,,,,,128,0,9,,,,,2,,,67,100
15932,note_off,,,,,92,0,8,,,,,1,,,77,100
15936,note_on,,,,,64,0,10,,,,,3,,,69,50
15936,note_on,,,,,4,0,8,,,,,1,,,76,70
15936,note_on,,,,,64,0,9,,,,,2,,,69,50
16000,note_off,,,,,64,0,9,,,,,2,,,69,100
16000,note_off,,,,,64,0,10,,,,,3,,,69,100
16028,note_off,,,,,92,0,8,,,,,1,,,76,100
16032,note_on,,,,,32,0,9,,,,,2,,,70,50
16032,note_on,,,,,4,0,8,,,,,1,,,74,70
16032,note_on,,,,,32,0,10,,,,,3,,,70,50
16096,note_off,,,,,64,0,9,,,,,2,,,70,100
16096,note_off,,,,,64,0,10,,,,,3,,,70,100
16096,note_off,,,,,64,0,8,,,,,1,,,74,100
16128,note_on,,,,,32,0,10,,,,,3,,,72,50
16128,note_on,,,,,32,0,9,,,,,2,,,72,50
16128,note_on,,,,,32,0,8,,,,,1,,,76,70
16256,note_off,,,,,128,0,10,,,,,3,,,72,100
16256,note_off,,,,,128,0,9,,,,,2,,,72,100
16320,note_on,,,,,64,0,10,,,,,3,,,60,50
16320,note_on,,,,,64,0,9,,,,,2,,,60,50
16320,note_on,,,,,0,0,7,,,,,0,,,81,70
16320,note_off,,,,,960,0,7,,,,,0,,,82,64
16412,note_off,,,,,92,0,7,,,,,0,,,81,100
16416,note_on,,,,,4,0,7,,,,,0,,,82,70
16448,note_off,,,,,128,0,9,,,,,2,,,60,100
16448,note_off,,,,,128,0,10,,,,,3,,,60,100
16480,note_off,,,,,64,0,7,,,,,0,,,82,100
16512,note_on,,,,,32,0,7,,,,,0,,,84,70
16604,note_off,,,,,92,0,7,,,,,0,,,84,100
16608,note_on,,,,,4,0,7,,,,,0,,,82,70
16700,note_off,,,,,92,0,7,,,,,0,,,82,100
16704,note_on,,,,,4,0,7,,,,,0,,,81,70
16704,note_on,,,,,256,0,10,,,,,3,,,72,50
16704,note_on,,,,,256,0,9,,,,,2,,,72,50
16796,note_off,,,,,92,0,7,,,,,0,,,81,100
16800,note_on,,,,,4,0,7,,,,,0,,,79,70
16832,note_off,,,,,128,0,10,,,,,3,,,72,100
16832,note_off,,,,,128,0,9,,,,,2,,,72,100
16864,note_off,,,,,64,0,7,,,,,0,,,79,100
16896,note_on,,,,,64,0,9,,,,,2,,,72,50
16896,note_on,,,,,32,0,7,,,,,0,,,84,70
16896,note_on,,,,,64,0,10,,,,,3,,,72,50
16988,note_off,,,,,92,0,7,,,,,0,,,84,100
16992,note_on,,,,,4,0,7,,,,,0,,,82,70
17024,note_off,,,,,128,0,10,,,,,3,,,72,100
17024,note_off,,,,,128,0,9,,,,,2,,,72,100
17084,note_off,,,,,92,0,7,,,,,0,,,82,100
17088,note_on,,,,,64,0,10,,,,,3,,,70,50
17088,note_on,,,,,4,0,7,,,,,0,,,81,70
17088,note_on,,,,,64,0,9,,,,,2,,,70,50
17152,note_off,,,,,64,0,10,,,,,3,,,70,100
17152,note_off,,,,,64,0,9,,,,,2,,,70,100
17180,note_off,,,,,92,0,7,,,,,0,,,81,100
17184,note_on,,,,,32,0,9,,,,,2,,,72,50
17184,note_on,,,,,4,0,7,,,,,0,,,79,70
17184,note_on,,,,,32,0,10,,,,,3,,,72,50
17248,note_off,,,,,64,0,7,,,,,0,,,79,100
17248,note_off,,,,,64,0,9,,,,,2,,,72,100
17248,note_off,,,,,64,0,10,,,,,3,,,72,100
17280,note_on,,,,,32,0,10,,,,,3,,,65,50
17280,note_on,,,,,32,0,7,,,,,0,,,81,70
17280,note_on,,,,,32,0,9,,,,,2,,,65,50
17408,note_off,,,,,128,0,10,,,,,3,,,65,100
17408,note_off,,,,,128,0,9,,,,,2,,,65,100
17472,note_on,,,,,64,0,10,,,,,3,,,53,50
17472,note_on,,,,,1344,0,8,,,,,1,,,74,70
17472,note_on,,,,,64,0,9,,,,,2,,,65,50
17508,note_off,,,,,36,0,8,,,,,1,,,76,100
17564,note_off,,,,,56,0,8,,,,,1,,,74,100
17568,note_on,,,,,4,0,8,,,,,1,,,76,70
17600,note_off,,,,,128,0,10,,,,,3,,,53,100
17600,note_off,,,,,128,0,9,,,,,2,,,65,100
17660,note_off,,,,,92,0,8,,,,,1,,,76,100
17664,note_on,,,,,4,0,8,,,,,1,,,77,70
17756,note_off,,,,,92,0,8,,,,,1,,,77,100
17760,note_on,,,,,4,0,8,,,,,1,,,79,70
17852,note_off,,,,,92,0,8,,,,,1,,,79,100
17856,note_on,,,,,256,0,9,,,,,2,,,65,50
17856,note_on,,,,,4,0,8,,,,,1,,,81,70
17856,note_on,,,,,256,0,10,,,,,3,,,65,50
17948,note_off,,,,,92,0,8,,,,,1,,,81,100
17952,note_on,,,,,4,0,8,,,,,1,,,79,70
17984,note_off,,,,,128,0,10,,,,,3,,,65,100
17984,note_off,,,,,128,0,9,,,,,2,,,65,100
18016,note_off,,,,,64,0,8,,,,,1,,,79,100
18048,note_on,,,,,64,0,9,,,,,2,,,65,50
18048,note_on,,,,,32,0,8,,,,,1,,,77,70
18048,note_on,,,,,64,0,10,,,,,3,,,65,50
18140,note_off,,,,,92,0,8,,,,,1,,,77,100
18144,note_on,,,,,4,0,8,,,,,1,,,76,70
18176,note_off,,,,,128,0,10,,,,,3,,,65,100
18176,note_off,,,,,128,0,9,,,,,2,,,65,100
18236,note_off,,,,,92,0,8,,,,,1,,,76,100
18240,note_on,,,,,64,0,10,,,,,3,,,67,50
18240,note_on,,,,,64,0,9,,,,,2,,,67,50
18240,note_on,,,,,4,0,8,,,,,1,,,74,70
18304,note_off,,,,,64,0,9,,,,,2,,,67,100
18304,note_off,,,,,64,0,10,,,,,3,,,67,100
18332,note_off,,,,,92,0,8,,,,,1,,,74,100
18336,note_on,,,,,4,0,8,,,,,1,,,73,70
18336,note_on,,,,,32,0,9,,,,,2,,,69,50
18336,note_on,,,,,32,0,10,,,,,3,,,69,50
18400,note_off,,,,,64,0,8,,,,,1,,,73,100
18400,note_off,,,,,64,0,9,,,,,2,,,69,100
18400,note_off,,,,,64,0,10,,,,,3,,,69,100
18432,note_on,,,,,32,0,8,,,,,1,,,74,70
18432,note_on,,,,,32,0,9,,,,,2,,,70,50
18432,note_on,,,,,32,0,10,,,,,3,,,70,50
18560,note_off,,,,,128,0,10,,,,,3,,,70,100
18560,note_off,,,,,128,0,9,,,,,2,,,70,100
18624,note_on,,,,,64,0,10,,,,,3,,,58,50
18624,note_on,,,,,64,0,9,,,,,2,,,58,50
18624,note_on,,,,,1344,0,7,,,,,0,,,79,70
18660,note_off,,,,,36,0,7,,,,,0,,,81,100
18716,note_off,,,,,56,0,7,,,,,0,,,79,100
18720,note_on,,,,,4,0,7,,,,,0,,,81,70
18752,note_off,,,,,128,0,10,,,,,3,,,58,100
18752,note_off,,,,,128,0,9,,,,,2,,,58,100
18812,note_off,,,,,92,0,7,,,,,0,,,81,100
18816,note_on,,,,,4,0,7,,,,,0,,,82,70
18908,note_off,,,,,92,0,7,,,,,0,,,82,100
18912,note_on,,,,,4,0,7,,,,,0,,,84,70
19004,note_off,,,,,92,0,7,,,,,0,,,84,100
19008,note_on,,,,,256,0,9,,,,,2,,,70,50
19008,note_on,,,,,256,0,10,,,,,3,,,70,50
19008,note_on,,,,,4,0,7,,,,,0,,,86,70
19100,note_off,,,,,92,0,7,,,,,0,,,86,100
19104,note_on,,,,,4,0,7,,,,,0,,,84,70
19136,note_off,,,,,128,0,10,,,,,3,,,70,100
19136,note_off,,,,,128,0,9,,,,,2,,,70,100
19168,note_off,,,,,64,0,7,,,,,0,,,84,100
19200,note_on,,,,,32,0,7,,,,,0,,,82,70
19200,note_on,,,,,64,0,9,,,,,2,,,70,50
19200,note_on,,,,,64,0,10,,,,,3,,,70,50
19292,note_off,,,,,92,0,7,,,,,0,,,82,100
19296,note_on,,,,,4,0,7,,,,,0,,,81,70
19328,note_off,,,,,128,0,10,,,,,3,,,70,100
19328,note_off,,,,,128,0,9,,,,,2,,,70,100
19388,note_off,,,,,92,0,7,,,,,0,,,81,100
19392,note_on,,,,,64,0,9,,,,,2,,,69,50
19392,note_on,,,,,64,0,10,,,,,3,,,69,50
19392,note_on,,,,,4,0,7,,,,,0,,,79,70
19456,note_off,,,,,64,0,9,,,,,2,,,69,100
19456,note_off,,,,,64,0,10,,,,,3,,,69,100
19484,note_off,,,,,92,0,7,,,,,0,,,79,100
19488,note_on,,,,,4,0,7,,,,,0,,,78,70
19488,note_on,,,,,32,0,10,,,,,3,,,70,50
19488,note_on,,,,,32,0,9,,,,,2,,,70,50
19552,note_off,,,,,64,0,10,,,,,3,,,70,100
19552,note_off,,,,,64,0,9,,,,,2,,,70,100
19580,note_off,,,,,92,0,7,,,,,0,,,78,100
19584,note_on,,,,,32,0,10,,,,,3,,,64,50
19584,note_on,,,,,32,0,9,,,,,2,,,64,50
19584,note_on,,,,,4,0,7,,,,,0,,,79,70
19712,note_off,,,,,128,0,10,,,,,3,,,64,100
19712,note_off,,,,,128,0,9,,,,,2,,,64,100
19776,note_on,,,,,64,0,9,,,,,2,,,64,50
19776,note_on,,,,,64,0,10,,,,,3,,,52,50
19776,note_on,,,,,1344,0,8,,,,,1,,,76,70
19776,note_off,,,,,192,0,7,,,,,0,,,79,100
19812,note_off,,,,,36,0,8,,,,,1,,,74,100
19840,note_off,,,,,28,0,8,,,,,1,,,76,100
19872,note_on,,,,,32,0,8,,,,,1,,,77,70
19872,note_on,,,,,96,0,7,,,,,0,,,81,70
19904,note_off,,,,,128,0,9,,,,,2,,,64,100
19904,note_off,,,,,128,0,10,,,,,3,,,52,100
19936,note_off,,,,,64,0,8,,,,,1,,,77,100
19936,note_off,,,,,64,0,7,,,,,0,,,81,100
19968,note_on,,,,,32,0,8,,,,,1,,,79,70
19968,note_on,,,,,32,0,7,,,,,0,,,82,70
20060,note_off,,,,,92,0,8,,,,,1,,,79,100
20060,note_off,,,,,92,0,7,,,,,0,,,82,100
20064,note_on,,,,,4,0,7,,,,,0,,,84,70
20064,note_on,,,,,4,0,8,,,,,1,,,81,70
20156,note_off,,,,,92,0,7,,,,,0,,,84,100
20156,note_off,,,,,92,0,8,,,,,1,,,81,100
20160,note_on,,,,,256,0,9,,,,,2,,,64,50
20160,note_on,,,,,4,0,7,,,,,0,,,82,70
20160,note_on,,,,,256,0,10,,,,,3,,,64,50
20160,note_on,,,,,4,0,8,,,,,1,,,79,70
20252,note_off,,,,,92,0,7,,,,,0,,,82,100
20252,note_off,,,,,92,0,8,,,,,1,,,79,100
20256,note_on,,,,,4,0,8,,,,,1,,,77,70
20256,note_on,,,,,4,0,7,,,,,0,,,81,70
20288,note_off,,,,,128,0,10,,,,,3,,,64,100
20288,note_off,,,,,128,0,9,,,,,2,,,64,100
20320,note_off,,,,,64,0,7,,,,,0,,,81,100
20320,note_off,,,,,64,0,8,,,,,1,,,77,100
20352,note_on,,,,,32,0,8,,,,,1,,,76,70
20352,note_on,,,,,64,0,9,,,,,2,,,64,50
20352,note_on,,,,,32,0,7,,,,,0,,,79,70
20352,note_on,,,,,64,0,10,,,,,3,,,64,50
20444,note_off,,,,,92,0,7,,,,,0,,,79,100
20444,note_off,,,,,92,0,8,,,,,1,,,76,100
20448,note_on,,,,,4,0,8,,,,,1,,,77,70
20448,note_on,,,,,4,0,7,,,,,0,,,81,70
20480,note_off,,,,,128,0,9,,,,,2,,,64,100
20480,note_off,,,,,128,0,10,,,,,3,,,64,100
20540,note_off,,,,,92,0,7,,,,,0,,,81,100
20540,note_off,,,,,92,0,8,,,,,1,,,77,100
20544,note_on,,,,,4,0,8,,,,,1,,,76,70
20544,note_on,,,,,64,0,9,,,,,2,,,65,50
20544,note_on,,,,,4,0,7,,,,,0,,,79,70
20544,note_on,,,,,64,0,10,,,,,3,,,65,50
20608,note_off,,,,,64,0,9,,,,,2,,,65,100
20608,note_off,,,,,64,0,10,,,,,3,,,65,100
20636,note_off,,,,,92,0,8,,,,,1,,,76,100
20636,note_off,,,,,92,0,7,,,,,0,,,79,100
20640,note_on,,,,,32,0,10,,,,,3,,,67,50
20640,note_on,,,,,32,0,9,,,,,2,,,67,50
20640,note_on,,,,,4,0,8,,,,,1,,,74,70
20640,note_on,,,,,4,0,7,,,,,0,,,77,70
20704,note_off,,,,,64,0,7,,,,,0,,,77,100
20704,note_off,,,,,64,0,8,,,,,1,,,74,100
20704,note_off,,,,,64,0,9,,,,,2,,,67,100
20704,note_off,,,,,64,0,10,,,,,3,,,67,100
20736,note_on,,,,,32,0,8,,,,,1,,,73,70
20736,note_on,,,,,32,0,7,,,,,0,,,76,70
20736,note_on,,,,,32,0,9,,,,,2,,,69,50
20736,note_on,,,,,32,0,10,,,,,3,,,69,50
20864,note_off,,,,,128,0,8,,,,,1,,,73,100
20864,note_off,,,,,128,0,9,,,,,2,,,69,100
20864,note_off,,,,,128,0,7,,,,,0,,,76,100
20864,note_off,,,,,128,0,10,,,,,3,,,69,100
20928,note_on,,,,,64,0,8,,,,,1,,,76,70
20928,note_on,,,,,64,0,7,,,,,0,,,79,70
20928,note_on,,,,,64,0,10,,,,,3,,,57,50
20928,note_on,,,,,64,0,9,,,,,2,,,57,50
20992,note_off,,,,,64,0,8,,,,,1,,,76,100
20992,note_off,,,,,64,0,7,,,,,0,,,79,100
21024,note_on,,,,,32,0,8,,,,,1,,,74,70
21024,note_on,,,,,32,0,7,,,,,0,,,77,70
21056,note_off,,,,,128,0,9,,,,,2,,,57,100
21056,note_off,,,,,128,0,10,,,,,3,,,57,100
21088,note_off,,,,,64,0,7,,,,,0,,,77,100
21088,note_off,,,,,64,0,8,,,,,1,,,74,100
21120,note_on,,,,,32,0,8,,,,,1,,,73,70
21120,note_on,,,,,32,0,7,,,,,0,,,76,70
21248,note_off,,,,,128,0,8,,,,,1,,,73,100
21248,note_off,,,,,128,0,7,,,,,0,,,76,100
21312,note_on,,,,,64,0,8,,,,,1,,,73,70
21312,note_on,,,,,256,0,9,,,,,2,,,69,50
21312,note_on,,,,,64,0,7,,,,,0,,,76,70
21312,note_on,,,,,256,0,10,,,,,3,,,69,50
21440,note_off,,,,,128,0,7,,,,,0,,,76,100
21440,note_off,,,,,128,0,8,,,,,1,,,73,100
21440,note_off,,,,,128,0,9,,,,,2,,,69,100
21440,note_off,,,,,128,0,10,,,,,3,,,69,100
21504,note_on,,,,,64,0,7,,,,,0,,,77,70
21504,note_on,,,,,64,0,8,,,,,1,,,74,70
21504,note_on,,,,,64,0,9,,,,,2,,,69,50
21504,note_on,,,,,64,0,10,,,,,3,,,69,50
21548,note_off,,,,,44,0,8,,,,,1,,,74,100
21548,note_off,,,,,44,0,7,,,,,0,,,77,100
21552,note_on,,,,,4,0,8,,,,,1,,,73,70
21552,note_on,,,,,4,0,7,,,,,0,,,76,70
21572,note_off,,,,,20,0,8,,,,,1,,,73,100
21572,note_off,,,,,20,0,7,,,,,0,,,76,100
21576,note_on,,,,,4,0,8,,,,,1,,,74,70
21576,note_on,,,,,4,0,7,,,,,0,,,77,70
21596,note_off,,,,,20,0,8,,,,,1,,,74,100
21596,note_off,,,,,20,0,7,,,,,0,,,77,100
21600,note_on,,,,,4,0,8,,,,,1,,,73,70
21600,note_on,,,,,4,0,7,,,,,0,,,76,70
21620,note_off,,,,,20,0,8,,,,,1,,,73,100
21620,note_off,,,,,20,0,7,,,,,0,,,76,100
21624,note_on,,,,,4,0,8,,,,,1,,,74,70
21624,note_on,,,,,4,0,7,,,,,0,,,77,70
21632,note_off,,,,,128,0,10,,,,,3,,,69,100
21632,note_off,,,,,128,0,9,,,,,2,,,69,100
21644,note_off,,,,,20,0,8,,,,,1,,,74,100
21644,note_off,,,,,20,0,7,,,,,0,,,77,100
21648,note_on,,,,,4,0,7,,,,,0,,,76,70
21648,note_on,,,,,4,0,8,,,,,1,,,73,70
21668,note_off,,,,,20,0,7,,,,,0,,,76,100
21668,note_off,,,,,20,0,8,,,,,1,,,73,100
21672,note_on,,,,,4,0,7,,,,,0,,,77,70
21672,note_on,,,,,4,0,8,,,,,1,,,74,70
21692,note_off,,,,,20,0,8,,,,,1,,,74,100
21692,note_off,,,,,20,0,7,,,,,0,,,77,100
21696,note_on,,,,,4,0,7,,,,,0,,,76,70
21696,note_on,,,,,64,0,10,,,,,3,,,57,50
21696,note_on,,,,,64,0,9,,,,,2,,,57,50
21696,note_on,,,,,4,0,8,,,,,1,,,73,70
21760,note_off,,,,,64,0,7,,,,,0,,,76,100
21760,note_off,,,,,64,0,8,,,,,1,,,73,100
21792,note_on,,,,,32,0,7,,,,,0,,,74,70
21792,note_on,,,,,32,0,8,,,,,1,,,71,70
21824,note_off,,,,,128,0,10,,,,,3,,,57,100
21824,note_off,,,,,128,0,9,,,,,2,,,57,100
21836,note_off,,,,,44,0,7,,,,,0,,,74,100
21836,note_off,,,,,44,0,8,,,,,1,,,71,100
21840,note_on,,,,,4,0,7,,,,,0,,,76,70
21840,note_on,,,,,4,0,8,,,,,1,,,73,70
21872,note_off,,,,,32,0,7,,,,,0,,,76,100
21872,note_off,,,,,32,0,8,,,,,1,,,73,100
21888,note_on,,,,,16,0,8,,,,,1,,,74,70
21888,note_on,,,,,64,0,9,,,,,2,,,74,50
21888,note_on,,,,,16,0,7,,,,,0,,,77,70
21888,note_on,,,,,64,0,10,,,,,3,,,74,50
22016,note_off,,,,,128,0,10,,,,,3,,,74,100
22016,note_off,,,,,128,0,7,,,,,0,,,77,100
22016,note_off,,,,,128,0,9,,,,,2,,,74,100
22080,note_on,,,,,64,0,10,,,,,3,,,62,50
22080,note_on,,,,,64,0,9,,,,,2,,,62,50
22080,note_on,,,,,64,0,7,,,,,0,,,81,70
22144,note_off,,,,,256,0,8,,,,,1,,,74,100
22144,note_off,,,,,64,0,7,,,,,0,,,81,100
22176,note_on,,,,,32,0,7,,,,,0,,,79,71
22208,note_off,,,,,128,0,10,,,,,3,,,62,100
22208,note_off,,,,,128,0,9,,,,,2,,,62,100
22240,note_off,,,,,64,0,7,,,,,0,,,79,100
22272,note_on,,,,,32,0,7,,,,,0,,,77,72
22400,note_off,,,,,128,0,7,,,,,0,,,77,100
22464,note_on,,,,,256,0,10,,,,,3,,,74,50
22464,note_on,,,,,64,0,7,,,,,0,,,76,75
22464,note_on,,,,,256,0,9,,,,,2,,,74,50
22528,note_off,,,,,64,0,7,,,,,0,,,76,100
22560,note_on,,,,,32,0,7,,,,,0,,,74,77
22592,note_off,,,,,128,0,9,,,,,2,,,74,100
22592,note_off,,,,,128,0,10,,,,,3,,,74,100
22624,note_off,,,,,64,0,7,,,,,0,,,74,100
22656,note_on,,,,,32,0,7,,,,,0,,,82,78
22656,note_on,,,,,64,0,10,,,,,3,,,74,50
22656,note_on,,,,,64,0,9,,,,,2,,,74,50
22748,note_off,,,,,92,0,7,,,,,0,,,82,100
22752,note_on,,,,,4,0,7,,,,,0,,,81,80
22784,note_off,,,,,128,0,10,,,,,3,,,74,100
22784,note_off,,,,,128,0,9,,,,,2,,,74,100
22844,note_off,,,,,92,0,7,,,,,0,,,81,100
22848,note_on,,,,,4,0,7,,,,,0,,,80,81
22848,note_on,,,,,64,0,10,,,,,3,,,76,50
22848,note_on,,,,,64,0,9,,,,,2,,,76,50
22912,note_off,,,,,64,0,10,,,,,3,,,76,100
22912,note_off,,,,,64,0,9,,,,,2,,,76,100
22940,note_off,,,,,92,0,7,,,,,0,,,80,100
22944,note_on,,,,,4,0,7,,,,,0,,,81,83
22944,note_on,,,,,32,0,10,,,,,3,,,77,50
22944,note_on,,,,,32,0,9,,,,,2,,,77,50
23008,note_off,,,,,64,0,10,,,,,3,,,77,100
23008,note_off,,,,,64,0,9,,,,,2,,,77,100
23036,note_off,,,,,92,0,7,,,,,0,,,81,100
23040,note_on,,,,,32,0,10,,,,,3,,,74,50
23040,note_on,,,,,32,0,9,,,,,2,,,74,50
23040,note_on,,,,,4,0,7,,,,,0,,,80,84
23168,note_off,,,,,128,0,9,,,,,2,,,74,100
23168,note_off,,,,,128,0,10,,,,,3,,,74,100
23232,note_on,,,,,64,0,9,,,,,2,,,62,50
23232,note_on,,,,,64,0,10,,,,,3,,,62,50
23360,note_off,,,,,128,0,9,,,,,2,,,62,100
23360,note_off,,,,,128,0,10,,,,,3,,,62,100
23556,note_off,,,,,516,0,7,,,,,0,,,80,100
23616,note_on,,,,,60,0,7,,,,,0,,,81,70
23616,note_on,,,,,256,0,9,,,,,2,,,74,50
23616,note_on,,,,,256,0,10,,,,,3,,,74,50
23708,note_off,,,,,92,0,7,,,,,0,,,81,100
23712,note_on,,,,,4,0,7,,,,,0,,,80,72
23744,note_off,,,,,128,0,9,,,,,2,,,74,100
23744,note_off,,,,,128,0,10,,,,,3,,,74,100
23804,note_off,,,,,92,0,7,,,,,0,,,80,100
23808,note_on,,,,,64,0,9,,,,,2,,,74,50
23808,note_on,,,,,4,0,7,,,,,0,,,78,74
23808,note_on,,,,,64,0,10,,,,,3,,,74,50
23900,note_off,,,,,92,0,7,,,,,0,,,78,100
23904,note_on,,,,,4,0,7,,,,,0,,,76,77
23936,note_off,,,,,128,0,10,,,,,3,,,74,100
23936,note_off,,,,,128,0,9,,,,,2,,,74,100
23996,note_off,,,,,92,0,7,,,,,0,,,76,100
24000,note_on,,,,,64,0,10,,,,,3,,,72,50
24000,note_on,,,,,64,0,9,,,,,2,,,72,50
24000,note_on,,,,,4,0,7,,,,,0,,,78,79
24064,note_off,,,,,64,0,9,,,,,2,,,72,100
24064,note_off,,,,,64,0,10,,,,,3,,,72,100
24092,note_off,,,,,92,0,7,,,,,0,,,78,100
24096,note_on,,,,,4,0,7,,,,,0,,,80,82
24096,note_on,,,,,32,0,10,,,,,3,,,71,50
24096,note_on,,,,,32,0,9,,,,,2,,,71,50
24160,note_off,,,,,64,0,9,,,,,2,,,71,100
24160,note_off,,,,,64,0,10,,,,,3,,,71,100
24188,note_off,,,,,92,0,7,,,,,0,,,80,100
24192,note_on,,,,,32,0,9,,,,,2,,,72,50
24192,note_on,,,,,4,0,7,,,,,0,,,81,84
24192,note_on,,,,,32,0,10,,,,,3,,,72,50
24320,note_off,,,,,128,0,9,,,,,2,,,72,100
24320,note_off,,,,,128,0,7,,,,,0,,,81,100
24320,note_off,,,,,128,0,10,,,,,3,,,72,100
24384,note_on,,,,,64,0,9,,,,,2,,,57,50
24384,note_on,,,,,2240,0,8,,,,,1,,,72,85
24384,note_on,,,,,64,0,7,,,,,0,,,76,85
24384,note_on,,,,,64,0,10,,,,,3,,,57,50
24512,note_off,,,,,128,0,8,,,,,1,,,72,100
24512,note_off,,,,,128,0,9,,,,,2,,,57,100
24512,note_off,,,,,128,0,7,,,,,0,,,76,100
24512,note_off,,,,,128,0,10,,,,,3,,,57,100
24576,note_on,,,,,64,0,8,,,,,1,,,72,83
24576,note_on,,,,,64,0,7,,,,,0,,,76,83
24668,note_off,,,,,92,0,7,,,,,0,,,76,100
24668,note_off,,,,,92,0,8,,,,,1,,,72,100
24672,note_on,,,,,4,0,7,,,,,0,,,77,81
24672,note_on,,,,,4,0,8,,,,,1,,,74,81
24736,note_off,,,,,64,0,7,,,,,0,,,77,100
24736,note_off,,,,,64,0,8,,,,,1,,,74,100
24768,note_on,,,,,256,0,10,,,,,3,,,69,50
24768,note_on,,,,,32,0,7,,,,,0,,,76,80
24768,note_on,,,,,256,0,9,,,,,2,,,69,50
24768,note_on,,,,,32,0,8,,,,,1,,,72,80
24860,note_off,,,,,92,0,7,,,,,0,,,76,100
24860,note_off,,,,,92,0,8,,,,,1,,,72,100
24864,note_on,,,,,4,0,8,,,,,1,,,74,78
24864,note_on,,,,,4,0,7,,,,,0,,,77,78
24896,note_off,,,,,128,0,10,,,,,3,,,69,100
24896,note_off,,,,,128,0,9,,,,,2,,,69,100
24928,note_off,,,,,64,0,8,,,,,1,,,74,100
24928,note_off,,,,,64,0,7,,,,,0,,,77,100
24960,note_on,,,,,64,0,9,,,,,2,,,69,50
24960,note_on,,,,,32,0,8,,,,,1,,,72,77
24960,note_on,,,,,32,0,7,,,,,0,,,76,77
24960,note_on,,,,,64,0,10,,,,,3,,,69,50
25052,note_off,,,,,92,0,7,,,,,0,,,76,100
25052,note_off,,,,,92,0,8,,,,,1,,,72,100
25056,note_on,,,,,4,0,8,,,,,1,,,74,75
25056,note_on,,,,,4,0,7,,,,,0,,,77,75
25088,note_off,,,,,128,0,9,,,,,2,,,69,100
25088,note_off,,,,,128,0,10,,,,,3,,,69,100
25120,note_off,,,,,64,0,8,,,,,1,,,74,100
25120,note_off,,,,,64,0,7,,,,,0,,,77,100
25152,note_on,,,,,64,0,10,,,,,3,,,57,50
25152,note_on,,,,,64,0,9,,,,,2,,,57,50
25152,note_on,,,,,32,0,7,,,,,0,,,76,74
25152,note_on,,,,,32,0,8,,,,,1,,,72,74
25244,note_off,,,,,92,0,8,,,,,1,,,72,100
25244,note_off,,,,,92,0,7,,,,,0,,,76,100
25248,note_on,,,,,4,0,8,,,,,1,,,74,72
25248,note_on,,,,,4,0,7,,,,,0,,,77,72
25280,note_off,,,,,128,0,10,,,,,3,,,57,100
25280,note_off,,,,,128,0,9,,,,,2,,,57,100
25312,note_off,,,,,64,0,8,,,,,1,,,74,100
25312,note_off,,,,,64,0,7,,,,,0,,,77,100
25344,note_on,,,,,64,0,9,,,,,2,,,57,50
25344,note_on,,,,,32,0,8,,,,,1,,,72,71
25344,note_on,,,,,32,0,7,,,,,0,,,76,71
25344,note_on,,,,,64,0,10,,,,,3,,,57,50
25472,note_off,,,,,128,0,9,,,,,2,,,57,100
25472,note_off,,,,,128,0,7,,,,,0,,,76,100
25472,note_off,,,,,128,0,10,,,,,3,,,57,100
25472,note_off,,,,,128,0,8,,,,,1,,,72,100
25536,note_on,,,,,64,0,10,,,,,3,,,62,50
25536,note_on,,,,,64,0,8,,,,,1,,,71,70
25536,note_on,,,,,64,0,7,,,,,0,,,74,70
25536,note_on,,,,,64,0,9,,,,,2,,,62,50
25600,note_off,,,,,64,0,8,,,,,1,,,71,100
25600,note_off,,,,,64,0,7,,,,,0,,,74,100
25632,note_on,,,,,32,0,8,,,,,1,,,69,70
25632,note_on,,,,,32,0,7,,,,,0,,,72,70
25664,note_off,,,,,128,0,9,,,,,2,,,62,100
25664,note_off,,,,,128,0,10,,,,,3,,,62,100
25696,note_off,,,,,64,0,7,,,,,0,,,72,100
25696,note_off,,,,,64,0,8,,,,,1,,,69,100
25728,note_on,,,,,64,0,10,,,,,3,,,64,50
25728,note_on,,,,,32,0,7,,,,,0,,,72,70
25728,note_on,,,,,64,0,9,,,,,2,,,64,50
25728,note_on,,,,,32,0,8,,,,,1,,,69,70
25772,note_off,,,,,44,0,8,,,,,1,,,69,100
25772,note_off,,,,,44,0,7,,,,,0,,,72,100
25776,note_on,,,,,4,0,7,,,,,0,,,71,70
25776,note_on,,,,,4,0,8,,,,,1,,,68,70
25796,note_off,,,,,20,0,7,,,,,0,,,71,100
25796,note_off,,,,,20,0,8,,,,,1,,,68,100
25800,note_on,,,,,4,0,8,,,,,1,,,69,70
25800,note_on,,,,,4,0,7,,,,,0,,,72,70
25820,note_off,,,,,20,0,7,,,,,0,,,72,100
25820,note_off,,,,,20,0,8,,,,,1,,,69,100
25824,note_on,,,,,4,0,8,,,,,1,,,68,70
25824,note_on,,,,,4,0,7,,,,,0,,,71,70
25844,note_off,,,,,20,0,8,,,,,1,,,68,100
25844,note_off,,,,,20,0,7,,,,,0,,,71,100
25848,note_on,,,,,4,0,7,,,,,0,,,72,70
25848,note_on,,,,,4,0,8,,,,,1,,,69,70
25868,note_off,,,,,20,0,7,,,,,0,,,72,100
25868,note_off,,,,,20,0,8,,,,,1,,,69,100
25872,note_on,,,,,4,0,8,,,,,1,,,68,70
25872,note_on,,,,,4,0,7,,,,,0,,,71,70
25892,note_off,,,,,20,0,8,,,,,1,,,68,100
25892,note_off,,,,,20,0,7,,,,,0,,,71,100
25896,note_on,,,,,4,0,8,,,,,1,,,69,70
25896,note_on,,,,,4,0,7,,,,,0,,,72,70
25916,note_off,,,,,20,0,8,,,,,1,,,69,100
25916,note_off,,,,,20,0,7,,,,,0,,,72,100
25920,note_on,,,,,4,0,8,,,,,1,,,68,70
25920,note_on,,,,,4,0,7,,,,,0,,,71,70
25940,note_off,,,,,20,0,7,,,,,0,,,71,100
25940,note_off,,,,,20,0,8,,,,,1,,,68,100
25944,note_on,,,,,4,0,7,,,,,0,,,72,70
25944,note_on,,,,,4,0,8,,,,,1,,,69,70
25964,note_off,,,,,20,0,7,,,,,0,,,72,100
25964,note_off,,,,,20,0,8,,,,,1,,,69,100
25968,note_on,,,,,4,0,7,,,,,0,,,71,70
25968,note_on,,,,,4,0,8,,,,,1,,,68,70
25984,note_off,,,,,256,0,10,,,,,3,,,64,100
25984,note_off,,,,,256,0,9,,,,,2,,,64,100
25988,note_off,,,,,20,0,7,,,,,0,,,71,100
25988,note_off,,,,,20,0,8,,,,,1,,,68,100
25992,note_on,,,,,4,0,7,,,,,0,,,72,70
25992,note_on,,,,,4,0,8,,,,,1,,,69,70
26012,note_off,,,,,20,0,8,,,,,1,,,69,100
26012,note_off,,,,,20,0,7,,,,,0,,,72,100
26016,note_on,,,,,4,0,7,,,,,0,,,71,70
26016,note_on,,,,,4,0,8,,,,,1,,,68,70
26036,note_off,,,,,20,0,7,,,,,0,,,71,100
26036,note_off,,,,,20,0,8,,,,,1,,,68,100
26040,note_on,,,,,4,0,8,,,,,1,,,69,70
26040,note_on,,,,,4,0,7,,,,,0,,,72,70
26060,note_off,,,,,20,0,8,,,,,1,,,69,100
26060,note_off,,,,,20,0,7,,,,,0,,,72,100
26064,note_on,,,,,4,0,7,,,,,0,,,71,70
26064,note_on,,,,,4,0,8,,,,,1,,,68,70
26084,note_off,,,,,20,0,7,,,,,0,,,71,100
26084,note_off,,,,,20,0,8,,,,,1,,,68,100
26088,note_on,,,,,4,0,7,,,,,0,,,72,70
26088,note_on,,,,,4,0,8,,,,,1,,,69,70
26108,note_off,,,,,20,0,7,,,,,0,,,72,100
26108,note_off,,,,,20,0,8,,,,,1,,,69,100
26112,note_on,,,,,4,0,8,,,,,1,,,68,70
26112,note_on,,,,,4,0,7,,,,,0,,,71,70
26112,note_on,,,,,128,0,9,,,,,2,,,64,50
26112,note_on,,,,,128,0,10,,,,,3,,,64,50
26240,note_off,,,,,128,0,8,,,,,1,,,68,100
26240,note_off,,,,,128,0,7,,,,,0,,,71,100
26304,note_on,,,,,64,0,8,,,,,1,,,69,70
26304,note_on,,,,,64,0,7,,,,,0,,,69,70
26368,note_off,,,,,256,0,9,,,,,2,,,64,100
26368,note_off,,,,,256,0,10,,,,,3,,,64,100
26432,note_off,,,,,128,0,8,,,,,1,,,69,99
26432,note_off,,,,,128,0,7,,,,,0,,,69,99
26496,note_on,,,,,128,0,9,,,,,2,,,69,50
26496,note_on,,,,,128,0,10,,,,,3,,,69,50
26496,note_on,,,,,64,0,7,,,,,0,,,69,70
26496,note_on,,,,,64,0,8,,,,,1,,,69,70
26624,note_off,,,,,128,0,9,,,,,2,,,69,100
26624,note_off,,,,,128,0,10,,,,,3,,,69,100
26688,note_on,,,,,64,0,10,,,,,3,,,57,50
26688,note_on,,,,,64,0,9,,,,,2,,,57,50
26752,note_off,,,,,256,0,7,,,,,0,,,69,100
26752,note_off,,,,,256,0,8,,,,,1,,,69,100
26816,note_off,,,,,128,0,9,,,,,2,,,57,100
26816,note_off,,,,,128,0,10,,,,,3,,,57,100
27072,note_on,,,,,256,0,10,,,,,3,,,69,50
27072,note_on,,,,,256,0,9,,,,,2,,,69,50
27200,note_off,,,,,128,0,9,,,,,2,,,69,100
27200,note_off,,,,,128,0,10,,,,,3,,,69,100
27264,note_on,,,,,64,0,10,,,,,3,,,69,50
27264,note_on,,,,,64,0,9,,,,,2,,,69,50
27392,note_off,,,,,128,0,10,,,,,3,,,69,100
27392,note_off,,,,,128,0,9,,,,,2,,,69,100
27456,note_on,,,,,64,0,10,,,,,3,,,71,50
27456,note_on,,,,,64,0,9,,,,,2,,,71,50
27520,note_off,,,,,64,0,10,,,,,3,,,71,100
27520,note_off,,,,,64,0,9,,,,,2,,,71,100
27552,note_on,,,,,32,0,9,,,,,2,,,73,50
27552,note_on,,,,,32,0,10,,,,,3,,,73,50
27616,note_off,,,,,64,0,9,,,,,2,,,73,100
27616,note_off,,,,,64,0,10,,,,,3,,,73,100
27648,note_on,,,,,32,0,10,,,,,3,,,74,50
27648,note_on,,,,,32,0,9,,,,,2,,,74,50
27776,note_off,,,,,128,0,10,,,,,3,,,74,100
27776,note_off,,,,,128,0,9,,,,,2,,,74,100
27840,note_on,,,,,64,0,10,,,,,3,,,62,50
27840,note_on,,,,,64,0,9,,,,,2,,,62,50
27968,note_off,,,,,128,0,10,,,,,3,,,62,100
27968,note_off,,,,,128,0,9,,,,,2,,,62,100
28032,note_on,,,,,1280,0,8,,,,,1,,,77,70
28224,note_on,,,,,256,0,10,,,,,3,,,74,50
28224,note_on,,,,,256,0,9,,,,,2,,,74,50
28352,note_off,,,,,128,0,10,,,,,3,,,74,100
28352,note_off,,,,,128,0,9,,,,,2,,,74,100
28416,note_on,,,,,64,0,10,,,,,3,,,74,50
28416,note_on,,,,,64,0,9,,,,,2,,,74,50
28544,note_off,,,,,128,0,9,,,,,2,,,74,100
28544,note_off,,,,,128,0,10,,,,,3,,,74,100
28608,note_on,,,,,64,0,9,,,,,2,,,72,50
28608,note_on,,,,,64,0,10,,,,,3,,,72,50
28672,note_off,,,,,64,0,10,,,,,3,,,72,100
28672,note_off,,,,,64,0,9,,,,,2,,,72,100
28704,note_on,,,,,32,0,10,,,,,3,,,74,50
28704,note_on,,,,,32,0,9,,,,,2,,,74,50
28768,note_off,,,,,64,0,10,,,,,3,,,74,100
28768,note_off,,,,,64,0,9,,,,,2,,,74,100
28800,note_on,,,,,32,0,9,,,,,2,,,67,50
28800,note_on,,,,,32,0,10,,,,,3,,,67,50
28928,note_off,,,,,128,0,10,,,,,3,,,67,100
28928,note_off,,,,,128,0,9,,,,,2,,,67,100
28992,note_on,,,,,64,0,10,,,,,3,,,55,50
28992,note_off,,,,,960,0,8,,,,,1,,,77,100
28992,note_on,,,,,64,0,9,,,,,2,,,55,50
28992,note_on,,,,,0,0,8,,,,,1,,,76,70
29084,note_off,,,,,92,0,8,,,,,1,,,76,100
29088,note_on,,,,,4,0,8,,,,,1,,,77,70
29120,note_off,,,,,128,0,9,,,,,2,,,55,100
29120,note_off,,,,,128,0,10,,,,,3,,,55,100
29152,note_off,,,,,64,0,8,,,,,1,,,77,100
29184,note_on,,,,,2432,0,7,,,,,0,,,82,70
29184,note_on,,,,,32,0,8,,,,,1,,,79,70
29276,note_off,,,,,92,0,8,,,,,1,,,79,100
29280,note_on,,,,,4,0,8,,,,,1,,,77,70
29372,note_off,,,,,92,0,8,,,,,1,,,77,100
29376,note_on,,,,,256,0,10,,,,,3,,,67,50
29376,note_on,,,,,4,0,8,,,,,1,,,76,70
29376,note_on,,,,,256,0,9,,,,,2,,,67,50
29468,note_off,,,,,92,0,8,,,,,1,,,76,100
29472,note_on,,,,,4,0,8,,,,,1,,,74,70
29504,note_off,,,,,128,0,10,,,,,3,,,67,100
29504,note_off,,,,,128,0,9,,,,,2,,,67,100
29536,note_off,,,,,64,0,8,,,,,1,,,74,100
29568,note_on,,,,,32,0,8,,,,,1,,,79,70
29568,note_on,,,,,64,0,10,,,,,3,,,67,50
29568,note_on,,,,,64,0,9,,,,,2,,,67,50
29660,note_off,,,,,92,0,8,,,,,1,,,79,100
29664,note_on,,,,,4,0,8,,,,,1,,,77,70
29696,note_off,,,,,128,0,10,,,,,3,,,67,100
29696,note_off,,,,,128,0,9,,,,,2,,,67,100
29756,note_off,,,,,92,0,8,,,,,1,,,77,100
29760,note_on,,,,,4,0,8,,,,,1,,,76,70
29760,note_on,,,,,64,0,10,,,,,3,,,69,50
29760,note_on,,,,,64,0,9,,,,,2,,,69,50
29824,note_off,,,,,64,0,10,,,,,3,,,69,100
29824,note_off,,,,,64,0,9,,,,,2,,,69,100
29852,note_off,,,,,92,0,8,,,,,1,,,76,100
29856,note_on,,,,,32,0,10,,,,,3,,,70,50
29856,note_on,,,,,4,0,8,,,,,1,,,74,70
29856,note_on,,,,,32,0,9,,,,,2,,,70,50
29920,note_off,,,,,64,0,10,,,,,3,,,70,100
29920,note_off,,,,,64,0,8,,,,,1,,,74,100
29920,note_off,,,,,64,0,9,,,,,2,,,70,100
29952,note_on,,,,,32,0,9,,,,,2,,,72,50
29952,note_on,,,,,32,0,8,,,,,1,,,76,70
29952,note_on,,,,,32,0,10,,,,,3,,,72,50
30080,note_off,,,,,128,0,9,,,,,2,,,72,100
30080,note_off,,,,,128,0,10,,,,,3,,,72,100
30144,note_off,,,,,960,0,7,,,,,0,,,82,64
30144,note_on,,,,,0,0,7,,,,,0,,,81,70
30144,note_on,,,,,64,0,10,,,,,3,,,60,50
30144,note_on,,,,,64,0,9,,,,,2,,,60,50
30236,note_off,,,,,92,0,7,,,,,0,,,81,100
30240,note_on,,,,,4,0,7,,,,,0,,,82,70
30272,note_off,,,,,128,0,9,,,,,2,,,60,100
30272,note_off,,,,,128,0,10,,,,,3,,,60,100
30304,note_off,,,,,64,0,7,,,,,0,,,82,100
30336,note_on,,,,,32,0,7,,,,,0,,,84,70
30428,note_off,,,,,92,0,7,,,,,0,,,84,100
30432,note_on,,,,,4,0,7,,,,,0,,,82,70
30524,note_off,,,,,92,0,7,,,,,0,,,82,100
30528,note_on,,,,,256,0,9,,,,,2,,,72,50
30528,note_on,,,,,256,0,10,,,,,3,,,72,50
30528,note_on,,,,,4,0,7,,,,,0,,,81,70
30620,note_off,,,,,92,0,7,,,,,0,,,81,100
30624,note_on,,,,,4,0,7,,,,,0,,,79,70
30656,note_off,,,,,128,0,9,,,,,2,,,72,100
30656,note_off,,,,,128,0,10,,,,,3,,,72,100
30688,note_off,,,,,64,0,7,,,,,0,,,79,100
30720,note_on,,,,,32,0,7,,,,,0,,,84,70
30720,note_on,,,,,64,0,9,,,,,2,,,72,50
30720,note_on,,,,,64,0,10,,,,,3,,,72,50
30812,note_off,,,,,92,0,7,,,,,0,,,84,100
30816,note_on,,,,,4,0,7,,,,,0,,,82,70
30848,note_off,,,,,128,0,10,,,,,3,,,72,100
30848,note_off,,,,,128,0,9,,,,,2,,,72,100
30908,note_off,,,,,92,0,7,,,,,0,,,82,100
30912,note_on,,,,,64,0,9,,,,,2,,,70,50
30912,note_on,,,,,4,0,7,,,,,0,,,81,70
30912,note_on,,,,,64,0,10,,,,,3,,,70,50
30976,note_off,,,,,64,0,10,,,,,3,,,70,100
30976,note_off,,,,,64,0,9,,,,,2,,,70,100
31004,note_off,,,,,92,0,7,,,,,0,,,81,100
31008,note_on,,,,,4,0,7,,,,,0,,,79,70
31008,note_on,,,,,32,0,10,,,,,3,,,72,50
31008,note_on,,,,,32,0,9,,,,,2,,,72,50
31072,note_off,,,,,64,0,7,,,,,0,,,79,100
31072,note_off,,,,,64,0,10,,,,,3,,,72,100
31072,note_off,,,,,64,0,9,,,,,2,,,72,100
31104,note_on,,,,,32,0,9,,,,,2,,,65,50
31104,note_on,,,,,32,0,10,,,,,3,,,65,50
31104,note_on,,,,,32,0,7,,,,,0,,,81,70
31232,note_off,,,,,128,0,9,,,,,2,,,65,100
31232,note_off,,,,,128,0,10,,,,,3,,,65,100
31296,note_on,,,,,64,0,10,,,,,3,,,53,50
31296,note_on,,,,,1344,0,8,,,,,1,,,74,70
31296,note_on,,,,,64,0,9,,,,,2,,,65,50
31332,note_off,,,,,36,0,8,,,,,1,,,76,100
31388,note_off,,,,,56,0,8,,,,,1,,,74,100
31392,note_on,,,,,4,0,8,,,,,1,,,76,70
31424,note_off,,,,,128,0,9,,,,,2,,,65,100
31424,note_off,,,,,128,0,10,,,,,3,,,53,100
31484,note_off,,,,,92,0,8,,,,,1,,,76,100
31488,note_on,,,,,4,0,8,,,,,1,,,77,70
31580,note_off,,,,,92,0,8,,,,,1,,,77,100
31584,note_on,,,,,4,0,8,,,,,1,,,79,70
31676,note_off,,,,,92,0,8,,,,,1,,,79,100
31680,note_on,,,,,256,0,10,,,,,3,,,65,50
31680,note_on,,,,,4,0,8,,,,,1,,,81,70
31680,note_on,,,,,256,0,9,,,,,2,,,65,50
31772,note_off,,,,,92,0,8,,,,,1,,,81,100
31776,note_on,,,,,4,0,8,,,,,1,,,79,70
31808,note_off,,,,,128,0,10,,,,,3,,,65,100
31808,note_off,,,,,128,0,9,,,,,2,,,65,100
31840,note_off,,,,,64,0,8,,,,,1,,,79,100
31872,note_on,,,,,64,0,9,,,,,2,,,65,50
31872,note_on,,,,,32,0,8,,,,,1,,,77,70
31872,note_on,,,,,64,0,10,,,,,3,,,65,50
31964,note_off,,,,,92,0,8,,,,,1,,,77,100
31968,note_on,,,,,4,0,8,,,,,1,,,76,70
32000,note_off,,,,,128,0,9,,,,,2,,,65,100
32000,note_off,,,,,128,0,10,,,,,3,,,65,100
32060,note_off,,,,,92,0,8,,,,,1,,,76,100
32064,note_on,,,,,4,0,8,,,,,1,,,74,70
32064,note_on,,,,,64,0,10,,,,,3,,,67,50
32064,note_on,,,,,64,0,9,,,,,2,,,67,50
32128,note_off,,,,,64,0,10,,,,,3,,,67,100
32128,note_off,,,,,64,0,9,,,,,2,,,67,100
32156,note_off,,,,,92,0,8,,,,,1,,,74,100
32160,note_on,,,,,32,0,9,,,,,2,,,69,50
32160,note_on,,,,,4,0,8,,,,,1,,,73,70
32160,note_on,,,,,32,0,10,,,,,3,,,69,50
32224,note_off,,,,,64,0,8,,,,,1,,,73,100
32224,note_off,,,,,64,0,10,,,,,3,,,69,100
32224,note_off,,,,,64,0,9,,,,,2,,,69,100
32256,note_on,,,,,32,0,10,,,,,3,,,70,50
32256,note_on,,,,,32,0,8,,,,,1,,,74,70
32256,note_on,,,,,32,0,9,,,,,2,,,70,50
32384,note_off,,,,,128,0,9,,,,,2,,,70,100
32384,note_off,,,,,128,0,10,,,,,3,,,70,100
32448,note_on,,,,,1344,0,7,,,,,0,,,79,70
32448,note_on,,,,,64,0,9,,,,,2,,,58,50
32448,note_on,,,,,64,0,10,,,,,3,,,58,50
32484,note_off,,,,,36,0,7,,,,,0,,,81,100
32540,note_off,,,,,56,0,7,,,,,0,,,79,100
32544,note_on,,,,,4,0,7,,,,,0,,,81,70
32576,note_off,,,,,128,0,10,,,,,3,,,58,100
32576,note_off,,,,,128,0,9,,,,,2,,,58,100
32636,note_off,,,,,92,0,7,,,,,0,,,81,100
32640,note_on,,,,,4,0,7,,,,,0,,,82,70
32732,note_off,,,,,92,0,7,,,,,0,,,82,100
32736,note_on,,,,,4,0,7,,,,,0,,,84,70
32828,note_off,,,,,92,0,7,,,,,0,,,84,100
32832,note_on,,,,,256,0,10,,,,,3,,,70,50
32832,note_on,,,,,256,0,9,,,,,2,,,70,50
32832,note_on,,,,,4,0,7,,,,,0,,,86,70
32924,note_off,,,,,92,0,7,,,,,0,,,86,100
32928,note_on,,,,,4,0,7,,,,,0,,,84,70
32960,note_off,,,,,128,0,10,,,,,3,,,70,100
32960,note_off,,,,,128,0,9,,,,,2,,,70,100
32992,note_off,,,,,64,0,7,,,,,0,,,84,100
33024,note_on,,,,,64,0,9,,,,,2,,,70,50
33024,note_on,,,,,32,0,7,,,,,0,,,82,70
33024,note_on,,,,,64,0,10,,,,,3,,,70,50
33116,note_off,,,,,92,0,7,,,,,0,,,82,100
33120,note_on,,,,,4,0,7,,,,,0,,,81,70
33152,note_off,,,,,128,0,10,,,,,3,,,70,100
33152,note_off,,,,,128,0,9,,,,,2,,,70,100
33212,note_off,,,,,92,0,7,,,,,0,,,81,100
33216,note_on,,,,,4,0,7,,,,,0,,,79,70
33216,note_on,,,,,64,0,9,,,,,2,,,69,50
33216,note_on,,,,,64,0,10,,,,,3,,,69,50
33280,note_off,,,,,64,0,9,,,,,2,,,69,100
33280,note_off,,,,,64,0,10,,,,,3,,,69,100
33308,note_off,,,,,92,0,7,,,,,0,,,79,100
33312,note_on,,,,,32,0,10,,,,,3,,,70,50
33312,note_on,,,,,4,0,7,,,,,0,,,78,70
33312,note_on,,,,,32,0,9,,,,,2,,,70,50
33376,note_off,,,,,64,0,9,,,,,2,,,70,100
33376,note_off,,,,,64,0,10,,,,,3,,,70,100
33404,note_off,,,,,92,0,7,,,,,0,,,78,100
33408,note_on,,,,,4,0,7,,,,,0,,,79,70
33408,note_on,,,,,32,0,10,,,,,3,,,64,50
33408,note_on,,,,,32,0,9,,,,,2,,,64,50
33536,note_off,,,,,128,0,9,,,,,2,,,64,100
33536,note_off,,,,,128,0,10,,,,,3,,,64,100
33600,note_off,,,,,192,0,7,,,,,0,,,79,100
33600,note_on,,,,,64,0,9,,,,,2,,,64,50
33600,note_on,,,,,64,0,10,,,,,3,,,52,50
33600,note_on,,,,,1344,0,8,,,,,1,,,76,70
33636,note_off,,,,,36,0,8,,,,,1,,,74,100
33664,note_off,,,,,28,0,8,,,,,1,,,76,100
33696,note_on,,,,,32,0,8,,,,,1,,,77,70
33696,note_on,,,,,96,0,7,,,,,0,,,81,70
33728,note_off,,,,,128,0,9,,,,,2,,,64,100
33728,note_off,,,,,128,0,10,,,,,3,,,52,100
33760,note_off,,,,,64,0,7,,,,,0,,,81,100
33760,note_off,,,,,64,0,8,,,,,1,,,77,100
33792,note_on,,,,,32,0,7,,,,,0,,,82,70
33792,note_on,,,,,32,0,8,,,,,1,,,79,70
33884,note_off,,,,,92,0,7,,,,,0,,,82,100
33884,note_off,,,,,92,0,8,,,,,1,,,79,100
33888,note_on,,,,,4,0,7,,,,,0,,,84,70
33888,note_on,,,,,4,0,8,,,,,1,,,81,70
33980,note_off,,,,,92,0,7,,,,,0,,,84,100
33980,note_off,,,,,92,0,8,,,,,1,,,81,100
33984,note_on,,,,,4,0,7,,,,,0,,,82,70
33984,note_on,,,,,256,0,10,,,,,3,,,64,50
33984,note_on,,,,,256,0,9,,,,,2,,,64,50
33984,note_on,,,,,4,0,8,,,,,1,,,79,70
34076,note_off,,,,,92,0,8,,,,,1,,,79,100
34076,note_off,,,,,92,0,7,,,,,0,,,82,100
34080,note_on,,,,,4,0,8,,,,,1,,,77,70
34080,note_on,,,,,4,0,7,,,,,0,,,81,70
34112,note_off,,,,,128,0,10,,,,,3,,,64,100
34112,note_off,,,,,128,0,9,,,,,2,,,64,100
34144,note_off,,,,,64,0,8,,,,,1,,,77,100
34144,note_off,,,,,64,0,7,,,,,0,,,81,100
34176,note_on,,,,,64,0,9,,,,,2,,,64,50
34176,note_on,,,,,64,0,10,,,,,3,,,64,50
34176,note_on,,,,,32,0,7,,,,,0,,,79,70
34176,note_on,,,,,32,0,8,,,,,1,,,76,70
34268,note_off,,,,,92,0,8,,,,,1,,,76,100
34268,note_off,,,,,92,0,7,,,,,0,,,79,100
34272,note_on,,,,,4,0,7,,,,,0,,,81,70
34272,note_on,,,,,4,0,8,,,,,1,,,77,70
34304,note_off,,,,,128,0,10,,,,,3,,,64,100
34304,note_off,,,,,128,0,9,,,,,2,,,64,100
34364,note_off,,,,,92,0,8,,,,,1,,,77,100
34364,note_off,,,,,92,0,7,,,,,0,,,81,100
34368,note_on,,,,,64,0,10,,,,,3,,,65,50
34368,note_on,,,,,64,0,9,,,,,2,,,65,50
34368,note_on,,,,,4,0,8,,,,,1,,,76,70
34368,note_on,,,,,4,0,7,,,,,0,,,79,70
34432,note_off,,,,,64,0,10,,,,,3,,,65,100
34432,note_off,,,,,64,0,9,,,,,2,,,65,100
34460,note_off,,,,,92,0,7,,,,,0,,,79,100
34460,note_off,,,,,92,0,8,,,,,1,,,76,100
34464,note_on,,,,,4,0,7,,,,,0,,,77,70
34464,note_on,,,,,32,0,9,,,,,2,,,67,50
34464,note_on,,,,,4,0,8,,,,,1,,,74,70
34464,note_on,,,,,32,0,10,,,,,3,,,67,50
34528,note_off,,,,,64,0,7,,,,,0,,,77,100
34528,note_off,,,,,64,0,9,,,,,2,,,67,100
34528,note_off,,,,,64,0,10,,,,,3,,,67,100
34528,note_off,,,,,64,0,8,,,,,1,,,74,100
34560,note_on,,,,,32,0,10,,,,,3,,,69,50
34560,note_on,,,,,32,0,9,,,,,2,,,69,50
34560,note_on,,,,,32,0,7,,,,,0,,,76,70
34560,note_on,,,,,32,0,8,,,,,1,,,73,70
34688,note_off,,,,,128,0,10,,,,,3,,,69,100
34688,note_off,,,,,128,0,9,,,,,2,,,69,100
34752,note_on,,,,,64,0,10,,,,,3,,,57,50
34752,note_on,,,,,64,0,9,,,,,2,,,57,50
34816,note_off,,,,,256,0,7,,,,,0,,,76,100
34816,note_off,,,,,256,0,8,,,,,1,,,73,100
34880,note_off,,,,,128,0,10,,,,,3,,,57,100
34880,note_off,,,,,128,0,9,,,,,2,,,57,100
35136,note_on,,,,,320,0,8,,,,,1,,,73,70
35136,note_on,,,,,320,0,7,,,,,0,,,76,70
35136,note_on,,,,,256,0,10,,,,,3,,,69,50
35136,note_on,,,,,256,0,9,,,,,2,,,69,50
35264,note_off,,,,,128,0,8,,,,,1,,,73,100
35264,note_off,,,,,128,0,9,,,,,2,,,69,100
35264,note_off,,,,,128,0,10,,,,,3,,,69,100
35264,note_off,,,,,128,0,7,,,,,0,,,76,100
35328,note_on,,,,,64,0,7,,,,,0,,,77,70
35328,note_on,,,,,64,0,10,,,,,3,,,74,50
35328,note_on,,,,,64,0,9,,,,,2,,,74,50
35328,note_on,,,,,64,0,8,,,,,1,,,74,70
35420,note_off,,,,,92,0,8,,,,,1,,,74,100
35420,note_off,,,,,92,0,7,,,,,0,,,77,100
35424,note_on,,,,,4,0,8,,,,,1,,,73,70
35424,note_on,,,,,4,0,7,,,,,0,,,76,70
35456,note_off,,,,,128,0,10,,,,,3,,,74,100
35456,note_off,,,,,128,0,9,,,,,2,,,74,100
35488,note_off,,,,,64,0,7,,,,,0,,,76,100
35488,note_off,,,,,64,0,8,,,,,1,,,73,100
35520,note_on,,,,,64,0,9,,,,,2,,,62,50
35520,note_on,,,,,64,0,10,,,,,3,,,62,50
35520,note_on,,,,,32,0,8,,,,,1,,,74,70
35520,note_on,,,,,32,0,7,,,,,0,,,77,70
35612,note_off,,,,,92,0,7,,,,,0,,,77,100
35612,note_off,,,,,92,0,8,,,,,1,,,74,100
35616,note_on,,,,,4,0,7,,,,,0,,,79,70
35616,note_on,,,,,4,0,8,,,,,1,,,76,70
35648,note_off,,,,,128,0,10,,,,,3,,,62,100
35648,note_off,,,,,128,0,9,,,,,2,,,62,100
35680,note_off,,,,,64,0,7,,,,,0,,,79,100
35680,note_off,,,,,64,0,8,,,,,1,,,76,100
35712,note_on,,,,,64,0,10,,,,,3,,,69,50
35712,note_on,,,,,64,0,9,,,,,2,,,69,50
35712,note_on,,,,,32,0,7,,,,,0,,,76,70
35712,note_on,,,,,32,0,8,,,,,1,,,73,70
35804,note_off,,,,,92,0,8,,,,,1,,,73,100
35804,note_off,,,,,92,0,7,,,,,0,,,76,100
35808,note_on,,,,,4,0,8,,,,,1,,,71,70
35808,note_on,,,,,4,0,7,,,,,0,,,74,70
35840,note_off,,,,,128,0,9,,,,,2,,,69,100
35840,note_off,,,,,128,0,10,,,,,3,,,69,100
35872,note_off,,,,,64,0,7,,,,,0,,,74,100
35872,note_off,,,,,64,0,8,,,,,1,,,71,100
35904,note_on,,,,,64,0,9,,,,,2,,,57,50
35904,note_on,,,,,32,0,7,,,,,0,,,76,70
35904,note_on,,,,,32,0,8,,,,,1,,,73,70
35904,note_on,,,,,64,0,10,,,,,3,,,57,50
36032,note_off,,,,,128,0,9,,,,,2,,,57,100
36032,note_off,,,,,128,0,8,,,,,1,,,73,100
36032,note_off,,,,,128,0,10,,,,,3,,,57,100
36032,note_off,,,,,128,0,7,,,,,0,,,76,100
36288,note_on,,,,,256,0,7,,,,,0,,,76,55
36288,note_on,,,,,256,0,10,,,,,3,,,69,50
36288,note_on,,,,,256,0,8,,,,,1,,,73,55
36288,note_on,,,,,256,0,9,,,,,2,,,69,50
36416,note_off,,,,,128,0,7,,,,,0,,,76,100
36416,note_off,,,,,128,0,10,,,,,3,,,69,100
36416,note_off,,,,,128,0,9,,,,,2,,,69,100
36416,note_off,,,,,128,0,8,,,,,1,,,73,100
36480,note_on,,,,,64,0,7,,,,,0,,,77,55
36480,note_on,,,,,64,0,8,,,,,1,,,74,55
36480,note_on,,,,,64,0,9,,,,,2,,,74,50
36480,note_on,,,,,64,0,10,,,,,3,,,74,50
36572,note_off,,,,,92,0,7,,,,,0,,,77,100
36572,note_off,,,,,92,0,8,,,,,1,,,74,100
36576,note_on,,,,,4,0,8,,,,,1,,,73,55
36576,note_on,,,,,4,0,7,,,,,0,,,76,55
36608,note_off,,,,,128,0,10,,,,,3,,,74,100
36608,note_off,,,,,128,0,9,,,,,2,,,74,100
36640,note_off,,,,,64,0,8,,,,,1,,,73,100
36640,note_off,,,,,64,0,7,,,,,0,,,76,100
36672,note_on,,,,,32,0,7,,,,,0,,,77,55
36672,note_on,,,,,64,0,9,,,,,2,,,62,50
36672,note_on,,,,,64,0,10,,,,,3,,,62,50
36672,note_on,,,,,32,0,8,,,,,1,,,74,55
36764,note_off,,,,,92,0,7,,,,,0,,,77,100
36764,note_off,,,,,92,0,8,,,,,1,,,74,100
36768,note_on,,,,,4,0,7,,,,,0,,,79,55
36768,note_on,,,,,4,0,8,,,,,1,,,76,55
36800,note_off,,,,,128,0,9,,,,,2,,,62,100
36800,note_off,,,,,128,0,10,,,,,3,,,62,100
36832,note_off,,,,,64,0,7,,,,,0,,,79,100
36832,note_off,,,,,64,0,8,,,,,1,,,76,100
36864,note_on,,,,,32,0,8,,,,,1,,,73,55
36864,note_on,,,,,64,0,10,,,,,3,,,69,50
36864,note_on,,,,,64,0,9,,,,,2,,,69,50
36864,note_on,,,,,32,0,7,,,,,0,,,76,55
36956,note_off,,,,,92,0,7,,,,,0,,,76,100
36956,note_off,,,,,92,0,8,,,,,1,,,73,100
36960,note_on,,,,,4,0,8,,,,,1,,,71,55
36960,note_on,,,,,4,0,7,,,,,0,,,74,55
36992,note_off,,,,,128,0,9,,,,,2,,,69,100
36992,note_off,,,,,128,0,10,,,,,3,,,69,100
37024,note_off,,,,,64,0,8,,,,,1,,,71,100
37024,note_off,,,,,64,0,7,,,,,0,,,74,100
37056,note_on,,,,,32,0,8,,,,,1,,,73,55
37056,note_on,,,,,32,0,7,,,,,0,,,76,55
37056,note_on,,,,,64,0,9,,,,,2,,,57,50
37056,note_on,,,,,64,0,10,,,,,3,,,57,50
37184,note_off,,,,,128,0,7,,,,,0,,,76,100
37184,note_off,,,,,128,0,10,,,,,3,,,57,100
37184,note_off,,,,,128,0,8,,,,,1,,,73,100
37184,note_off,,,,,128,0,9,,,,,2,,,57,100
37440,note_on,,,,,256,0,9,,,,,2,,,69,50
37440,note_on,,,,,256,0,8,,,,,1,,,73,70
37440,note_on,,,,,256,0,7,,,,,0,,,76,70
37440,note_on,,,,,256,0,10,,,,,3,,,69,50
37568,note_off,,,,,128,0,10,,,,,3,,,69,100
37568,note_off,,,,,128,0,9,,,,,2,,,69,100
37568,note_off,,,,,128,0,8,,,,,1,,,73,100
37568,note_off,,,,,128,0,7,,,,,0,,,76,100
37632,note_on,,,,,64,0,10,,,,,3,,,74,50
37632,note_on,,,,,64,0,9,,,,,2,,,74,50
37632,note_on,,,,,64,0,7,,,,,0,,,77,70
37632,note_on,,,,,64,0,8,,,,,1,,,74,70
37724,note_off,,,,,92,0,8,,,,,1,,,74,100
37724,note_off,,,,,92,0,7,,,,,0,,,77,100
37728,note_on,,,,,4,0,7,,,,,0,,,76,70
37728,note_on,,,,,4,0,8,,,,,1,,,73,70
37760,note_off,,,,,128,0,10,,,,,3,,,74,100
37760,note_off,,,,,128,0,9,,,,,2,,,74,100
37792,note_off,,,,,64,0,7,,,,,0,,,76,100
37792,note_off,,,,,64,0,8,,,,,1,,,73,100
37824,note_on,,,,,32,0,7,,,,,0,,,77,70
37824,note_on,,,,,64,0,9,,,,,2,,,62,50
37824,note_on,,,,,64,0,10,,,,,3,,,62,50
37824,note_on,,,,,32,0,8,,,,,1,,,74,70
37916,note_off,,,,,92,0,8,,,,,1,,,74,100
37916,note_off,,,,,92,0,7,,,,,0,,,77,100
37920,note_on,,,,,4,0,8,,,,,1,,,76,70
37920,note_on,,,,,4,0,7,,,,,0,,,79,70
37952,note_off,,,,,128,0,9,,,,,2,,,62,100
37952,note_off,,,,,128,0,10,,,,,3,,,62,100
37984,note_off,,,,,64,0,8,,,,,1,,,76,100
37984,note_off,,,,,64,0,7,,,,,0,,,79,100
38016,note_on,,,,,32,0,7,,,,,0,,,76,70
38016,note_on,,,,,32,0,8,,,,,1,,,73,70
38016,note_on,,,,,64,0,9,,,,,2,,,69,50
38016,note_on,,,,,64,0,10,,,,,3,,,69,50
38144,note_off,,,,,128,0,10,,,,,3,,,69,100
38144,note_off,,,,,128,0,9,,,,,2,,,69,100
38208,note_on,,,,,64,0,9,,,,,2,,,57,50
38208,note_on,,,,,64,0,10,,,,,3,,,57,50
38300,note_off,,,,,284,0,8,,,,,1,,,73,100
38300,note_off,,,,,284,0,7,,,,,0,,,76,100
38304,note_on,,,,,4,0,7,,,,,0,,,77,70
38304,note_on,,,,,4,0,8,,,,,1,,,74,70
38336,note_off,,,,,128,0,9,,,,,2,,,57,100
38336,note_off,,,,,128,0,10,,,,,3,,,57,100
38368,note_off,,,,,64,0,7,,,,,0,,,77,100
38368,note_off,,,,,64,0,8,,,,,1,,,74,100
38400,note_on,,,,,32,0,7,,,,,0,,,76,70
38400,note_on,,,,,32,0,8,,,,,1,,,73,70
38592,note_on,,,,,256,0,9,,,,,2,,,69,50
38592,note_on,,,,,256,0,10,,,,,3,,,69,50
38684,note_off,,,,,284,0,8,,,,,1,,,73,100
38684,note_off,,,,,284,0,7,,,,,0,,,76,100
38688,note_on,,,,,4,0,8,,,,,1,,,74,70
38688,note_on,,,,,4,0,7,,,,,0,,,77,70
38720,note_off,,,,,128,0,10,,,,,3,,,69,100
38720,note_off,,,,,128,0,9,,,,,2,,,69,100
38752,note_off,,,,,64,0,8,,,,,1,,,74,100
38752,note_off,,,,,64,0,7,,,,,0,,,77,100
38784,note_on,,,,,64,0,9,,,,,2,,,69,50
38784,note_on,,,,,32,0,7,,,,,0,,,76,70
38784,note_on,,,,,32,0,8,,,,,1,,,73,70
38784,note_on,,,,,64,0,10,,,,,3,,,69,50
38912,note_off,,,,,128,0,9,,,,,2,,,69,100
38912,note_off,,,,,128,0,10,,,,,3,,,69,100
38976,note_on,,,,,64,0,9,,,,,2,,,57,50
38976,note_on,,,,,64,0,10,,,,,3,,,57,50
39068,note_off,,,,,284,0,8,,,,,1,,,73,100
39068,note_off,,,,,284,0,7,,,,,0,,,76,100
39072,note_on,,,,,4,0,7,,,,,0,,,77,70
39072,note_on,,,,,4,0,8,,,,,1,,,74,70
39104,note_off,,,,,128,0,10,,,,,3,,,57,100
39104,note_off,,,,,128,0,9,,,,,2,,,57,100
39136,note_off,,,,,64,0,8,,,,,1,,,74,100
39136,note_off,,,,,64,0,7,,,,,0,,,77,100
39168,note_on,,,,,32,0,8,,,,,1,,,76,70
39168,note_on,,,,,64,0,10,,,,,3,,,69,50
39168,note_on,,,,,64,0,9,,,,,2,,,69,50
39168,note_on,,,,,32,0,7,,,,,0,,,79,70
39296,note_off,,,,,128,0,9,,,,,2,,,69,100
39296,note_off,,,,,128,0,10,,,,,3,,,69,100
39360,note_on,,,,,64,0,9,,,,,2,,,57,50
39360,note_on,,,,,64,0,10,,,,,3,,,57,50
39488,note_off,,,,,128,0,10,,,,,3,,,57,100
39488,note_off,,,,,128,0,9,,,,,2,,,57,100
39684,note_off,,,,,516,0,7,,,,,0,,,79,100
39684,note_off,,,,,516,0,8,,,,,1,,,76,100
39744,note_on,,,,,60,0,8,,,,,1,,,77,70
39744,note_on,,,,,256,0,10,,,,,3,,,69,50
39744,note_on,,,,,256,0,9,,,,,2,,,69,50
39744,note_on,,,,,60,0,7,,,,,0,,,81,70
39836,note_off,,,,,92,0,7,,,,,0,,,81,100
39836,note_off,,,,,92,0,8,,,,,1,,,77,100
39840,note_on,,,,,4,0,8,,,,,1,,,76,70
39840,note_on,,,,,4,0,7,,,,,0,,,79,70
39872,note_off,,,,,128,0,9,,,,,2,,,69,100
39872,note_off,,,,,128,0,10,,,,,3,,,69,100
39904,note_off,,,,,64,0,8,,,,,1,,,76,100
39904,note_off,,,,,64,0,7,,,,,0,,,79,100
39936,note_on,,,,,64,0,9,,,,,2,,,69,50
39936,note_on,,,,,32,0,8,,,,,1,,,77,70
39936,note_on,,,,,32,0,7,,,,,0,,,81,70
39936,note_on,,,,,64,0,10,,,,,3,,,69,50
40028,note_off,,,,,92,0,7,,,,,0,,,81,100
40028,note_off,,,,,92,0,8,,,,,1,,,77,100
40032,note_on,,,,,4,0,7,,,,,0,,,79,70
40032,note_on,,,,,4,0,8,,,,,1,,,76,70
40064,note_off,,,,,128,0,10,,,,,3,,,69,100
40064,note_off,,,,,128,0,9,,,,,2,,,69,100
40096,note_off,,,,,64,0,7,,,,,0,,,79,100
40096,note_off,,,,,64,0,8,,,,,1,,,76,100
40128,note_on,,,,,64,0,10,,,,,3,,,57,50
40128,note_on,,,,,32,0,7,,,,,0,,,77,70
40128,note_on,,,,,64,0,9,,,,,2,,,57,50
40128,note_on,,,,,32,0,8,,,,,1,,,74,70
40220,note_off,,,,,92,0,7,,,,,0,,,77,100
40220,note_off,,,,,92,0,8,,,,,1,,,74,100
40224,note_on,,,,,4,0,7,,,,,0,,,76,70
40224,note_on,,,,,4,0,8,,,,,1,,,73,70
40256,note_off,,,,,128,0,9,,,,,2,,,57,100
40256,note_off,,,,,128,0,10,,,,,3,,,57,100
40288,note_off,,,,,64,0,8,,,,,1,,,73,100
40288,note_off,,,,,64,0,7,,,,,0,,,76,100
40320,note_on,,,,,32,0,8,,,,,1,,,74,70
40320,note_on,,,,,64,0,9,,,,,2,,,74,50
40320,note_on,,,,,64,0,10,,,,,3,,,74,50
40320,note_on,,,,,32,0,7,,,,,0,,,77,70
40448,note_off,,,,,128,0,10,,,,,3,,,74,100
40448,note_off,,,,,128,0,7,,,,,0,,,77,100
40448,note_off,,,,,128,0,9,,,,,2,,,74,100
40448,note_off,,,,,128,0,8,,,,,1,,,74,100
40512,note_on,,,,,64,0,7,,,,,0,,,79,70
40512,note_on,,,,,64,0,9,,,,,2,,,62,50
40512,note_on,,,,,64,0,10,,,,,3,,,62,50
40512,note_on,,,,,64,0,8,,,,,1,,,76,70
40576,note_off,,,,,64,0,7,,,,,0,,,79,100
40576,note_off,,,,,64,0,8,,,,,1,,,76,100
40608,note_on,,,,,32,0,8,,,,,1,,,77,70
40608,note_on,,,,,32,0,7,,,,,0,,,81,70
40640,note_off,,,,,128,0,9,,,,,2,,,62,100
40640,note_off,,,,,128,0,10,,,,,3,,,62,100
40672,note_off,,,,,64,0,7,,,,,0,,,81,100
40672,note_off,,,,,64,0,8,,,,,1,,,77,100
40704,note_on,,,,,32,0,7,,,,,0,,,77,70
40704,note_on,,,,,32,0,8,,,,,1,,,74,70
40896,note_on,,,,,256,0,9,,,,,2,,,67,50
40896,note_on,,,,,256,0,10,,,,,3,,,67,50
41024,note_off,,,,,128,0,9,,,,,2,,,67,100
41024,note_off,,,,,128,0,10,,,,,3,,,67,100
41084,note_off,,,,,380,0,7,,,,,0,,,77,100
41084,note_off,,,,,380,0,8,,,,,1,,,74,100
41088,note_on,,,,,4,0,7,,,,,0,,,76,70
41088,note_on,,,,,4,0,8,,,,,1,,,73,70
41088,note_on,,,,,64,0,10,,,,,3,,,69,50
41088,note_on,,,,,64,0,9,,,,,2,,,69,50
41132,note_off,,,,,44,0,7,,,,,0,,,76,100
41132,note_off,,,,,44,0,8,,,,,1,,,73,100
41136,note_on,,,,,4,0,7,,,,,0,,,77,70
41136,note_on,,,,,4,0,8,,,,,1,,,74,70
41180,note_off,,,,,44,0,8,,,,,1,,,74,100
41180,note_off,,,,,44,0,7,,,,,0,,,77,100
41184,note_on,,,,,4,0,8,,,,,1,,,73,70
41184,note_on,,,,,4,0,7,,,,,0,,,76,70
41204,note_off,,,,,20,0,8,,,,,1,,,73,100
41204,note_off,,,,,20,0,7,,,,,0,,,76,100
41208,note_on,,,,,4,0,8,,,,,1,,,74,70
41208,note_on,,,,,4,0,7,,,,,0,,,77,70
41216,note_off,,,,,128,0,10,,,,,3,,,69,100
41216,note_off,,,,,128,0,9,,,,,2,,,69,100
41228,note_off,,,,,20,0,7,,,,,0,,,77,100
41228,note_off,,,,,20,0,8,,,,,1,,,74,100
41232,note_on,,,,,4,0,7,,,,,0,,,76,70
41232,note_on,,,,,4,0,8,,,,,1,,,73,70
41252,note_off,,,,,20,0,8,,,,,1,,,73,100
41252,note_off,,,,,20,0,7,,,,,0,,,76,100
41256,note_on,,,,,4,0,7,,,,,0,,,77,70
41256,note_on,,,,,4,0,8,,,,,1,,,74,70
41276,note_off,,,,,20,0,7,,,,,0,,,77,100
41276,note_off,,,,,20,0,8,,,,,1,,,74,100
41280,note_on,,,,,64,0,9,,,,,2,,,57,50
41280,note_on,,,,,64,0,10,,,,,3,,,57,50
41280,note_on,,,,,4,0,7,,,,,0,,,76,70
41280,note_on,,,,,4,0,8,,,,,1,,,73,70
41344,note_off,,,,,64,0,8,,,,,1,,,73,100
41344,note_off,,,,,64,0,7,,,,,0,,,76,100
41376,note_on,,,,,32,0,8,,,,,1,,,74,70
41376,note_on,,,,,32,0,7,,,,,0,,,74,70
41408,note_off,,,,,128,0,10,,,,,3,,,57,100
41408,note_off,,,,,128,0,9,,,,,2,,,57,100
41440,note_off,,,,,64,0,8,,,,,1,,,74,100
41440,note_off,,,,,64,0,7,,,,,0,,,74,100
41472,note_on,,,,,64,0,9,,,,,2,,,62,50
41472,note_on,,,,,32,0,8,,,,,1,,,74,70
41472,note_on,,,,,32,0,7,,,,,0,,,74,70
41472,note_on,,,,,64,0,10,,,,,3,,,62,50
41728,note_off,,,,,256,0,9,,,,,2,,,62,100
41728,note_off,,,,,256,0,8,,,,,1,,,74,100
41728,note_off,,,,,256,0,7,,,,,0,,,74,100
41728,note_off,,,,,256,0,10,,,,,3,,,62,100
42048,note_on,,,,,320,0,7,,,,,0,,,76,60
42048,note_on,,,,,320,0,10,,,,,3,,,69,50
42048,note_on,,,,,320,0,9,,,,,2,,,69,50
42048,note_on,,,,,320,0,8,,,,,1,,,73,60
42176,note_off,,,,,128,0,7,,,,,0,,,76,100
42176,note_off,,,,,128,0,9,,,,,2,,,69,100
42176,note_off,,,,,128,0,8,,,,,1,,,73,100
42176,note_off,,,,,128,0,10,,,,,3,,,69,100
42240,note_on,,,,,64,0,9,,,,,2,,,74,50
42240,note_on,,,,,64,0,10,,,,,3,,,74,50
42240,note_on,,,,,64,0,7,,,,,0,,,77,60
42240,note_on,,,,,64,0,8,,,,,1,,,74,60
42332,note_off,,,,,92,0,8,,,,,1,,,74,100
42332,note_off,,,,,92,0,7,,,,,0,,,77,100
42336,note_on,,,,,4,0,8,,,,,1,,,73,60
42336,note_on,,,,,4,0,7,,,,,0,,,76,60
42368,note_off,,,,,128,0,10,,,,,3,,,74,100
42368,note_off,,,,,128,0,9,,,,,2,,,74,100
42400,note_off,,,,,64,0,7,,,,,0,,,76,100
42400,note_off,,,,,64,0,8,,,,,1,,,73,100
42432,note_on,,,,,32,0,8,,,,,1,,,74,60
42432,note_on,,,,,64,0,9,,,,,2,,,62,50
42432,note_on,,,,,64,0,10,,,,,3,,,62,50
42432,note_on,,,,,32,0,7,,,,,0,,,77,60
42524,note_off,,,,,92,0,8,,,,,1,,,74,100
42524,note_off,,,,,92,0,7,,,,,0,,,77,100
42528,note_on,,,,,4,0,7,,,,,0,,,79,60
42528,note_on,,,,,4,0,8,,,,,1,,,76,60
42560,note_off,,,,,128,0,10,,,,,3,,,62,100
42560,note_off,,,,,128,0,9,,,,,2,,,62,100
42592,note_off,,,,,64,0,7,,,,,0,,,79,100
42592,note_off,,,,,64,0,8,,,,,1,,,76,100
42624,note_on,,,,,64,0,9,,,,,2,,,69,50
42624,note_on,,,,,32,0,7,,,,,0,,,76,60
42624,note_on,,,,,32,0,8,,,,,1,,,73,60
42624,note_on,,,,,64,0,10,,,,,3,,,69,50
42752,note_off,,,,,128,0,10,,,,,3,,,69,100
42752,note_off,,,,,128,0,9,,,,,2,,,69,100
42816,note_on,,,,,64,0,9,,,,,2,,,57,50
42816,note_on,,,,,64,0,10,,,,,3,,,57,50
42908,note_off,,,,,284,0,8,,,,,1,,,73,100
42908,note_off,,,,,284,0,7,,,,,0,,,76,100
42912,note_on,,,,,4,0,8,,,,,1,,,74,60
42912,note_on,,,,,4,0,7,,,,,0,,,77,60
42944,note_off,,,,,128,0,9,,,,,2,,,57,100
42944,note_off,,,,,128,0,10,,,,,3,,,57,100
42976,note_off,,,,,64,0,7,,,,,0,,,77,100
42976,note_off,,,,,64,0,8,,,,,1,,,74,100
43008,note_on,,,,,32,0,7,,,,,0,,,76,60
43008,note_on,,,,,32,0,8,,,,,1,,,73,60
43200,note_on,,,,,256,0,9,,,,,2,,,69,50
43200,note_on,,,,,256,0,10,,,,,3,,,69,50
43292,note_off,,,,,284,0,7,,,,,0,,,76,100
43292,note_off,,,,,284,0,8,,,,,1,,,73,100
43296,note_on,,,,,4,0,8,,,,,1,,,74,60
43296,note_on,,,,,4,0,7,,,,,0,,,77,60
43328,note_off,,,,,128,0,9,,,,,2,,,69,100
43328,note_off,,,,,128,0,10,,,,,3,,,69,100
43360,note_off,,,,,64,0,8,,,,,1,,,74,100
43360,note_off,,,,,64,0,7,,,,,0,,,77,100
43392,note_on,,,,,32,0,7,,,,,0,,,76,60
43392,note_on,,,,,64,0,10,,,,,3,,,69,50
43392,note_on,,,,,64,0,9,,,,,2,,,69,50
43392,note_on,,,,,32,0,8,,,,,1,,,73,60
43520,note_off,,,,,128,0,9,,,,,2,,,69,100
43520,note_off,,,,,128,0,10,,,,,3,,,69,100
43584,note_on,,,,,64,0,10,,,,,3,,,57,50
43584,note_on,,,,,64,0,9,,,,,2,,,57,50
43676,note_off,,,,,284,0,8,,,,,1,,,73,100
43676,note_off,,,,,284,0,7,,,,,0,,,76,100
43680,note_on,,,,,4,0,7,,,,,0,,,77,60
43680,note_on,,,,,4,0,8,,,,,1,,,74,60
43712,note_off,,,,,128,0,9,,,,,2,,,57,100
43712,note_off,,,,,128,0,10,,,,,3,,,57,100
43744,note_off,,,,,64,0,8,,,,,1,,,74,100
43744,note_off,,,,,64,0,7,,,,,0,,,77,100
43776,note_on,,,,,32,0,7,,,,,0,,,79,60
43776,note_on,,,,,32,0,8,,,,,1,,,76,60
43776,note_on,,,,,64,0,10,,,,,3,,,69,50
43776,note_on,,,,,64,0,9,,,,,2,,,69,50
43904,note_off,,,,,128,0,9,,,,,2,,,69,100
43904,note_off,,,,,128,0,10,,,,,3,,,69,100
43968,note_on,,,,,64,0,10,,,,,3,,,57,50
43968,note_on,,,,,64,0,9,,,,,2,,,57,50
44096,note_off,,,,,128,0,10,,,,,3,,,57,100
44096,note_off,,,,,128,0,9,,,,,2,,,57,100
44292,note_off,,,,,516,0,8,,,,,1,,,76,100
44292,note_off,,,,,516,0,7,,,,,0,,,79,100
44352,note_on,,,,,256,0,9,,,,,2,,,69,50
44352,note_on,,,,,60,0,7,,,,,0,,,81,60
44352,note_on,,,,,60,0,8,,,,,1,,,77,60
44352,note_on,,,,,256,0,10,,,,,3,,,69,50
44444,note_off,,,,,92,0,7,,,,,0,,,81,100
44444,note_off,,,,,92,0,8,,,,,1,,,77,100
44448,note_on,,,,,4,0,7,,,,,0,,,79,60
44448,note_on,,,,,4,0,8,,,,,1,,,76,60
44480,note_off,,,,,128,0,10,,,,,3,,,69,100
44480,note_off,,,,,128,0,9,,,,,2,,,69,100
44512,note_off,,,,,64,0,7,,,,,0,,,79,100
44512,note_off,,,,,64,0,8,,,,,1,,,76,100
44544,note_on,,,,,32,0,8,,,,,1,,,77,60
44544,note_on,,,,,64,0,9,,,,,2,,,69,50
44544,note_on,,,,,64,0,10,,,,,3,,,69,50
44544,note_on,,,,,32,0,7,,,,,0,,,81,60
44636,note_off,,,,,92,0,8,,,,,1,,,77,100
44636,note_off,,,,,92,0,7,,,,,0,,,81,100
44640,note_on,,,,,4,0,7,,,,,0,,,79,60
44640,note_on,,,,,4,0,8,,,,,1,,,76,60
44672,note_off,,,,,128,0,10,,,,,3,,,69,100
44672,note_off,,,,,128,0,9,,,,,2,,,69,100
44704,note_off,,,,,64,0,8,,,,,1,,,76,100
44704,note_off,,,,,64,0,7,,,,,0,,,79,100
44736,note_on,,,,,64,0,10,,,,,3,,,57,50
44736,note_on,,,,,32,0,8,,,,,1,,,74,60
44736,note_on,,,,,32,0,7,,,,,0,,,77,60
44736,note_on,,,,,64,0,9,,,,,2,,,57,50
44828,note_off,,,,,92,0,7,,,,,0,,,77,100
44828,note_off,,,,,92,0,8,,,,,1,,,74,100
44832,note_on,,,,,4,0,8,,,,,1,,,73,60
44832,note_on,,,,,4,0,7,,,,,0,,,76,60
44864,note_off,,,,,128,0,9,,,,,2,,,57,100
44864,note_off,,,,,128,0,10,,,,,3,,,57,100
44896,note_off,,,,,64,0,7,,,,,0,,,76,100
44896,note_off,,,,,64,0,8,,,,,1,,,73,100
44928,note_on,,,,,64,0,9,,,,,2,,,74,50
44928,note_on,,,,,64,0,10,,,,,3,,,74,50
44928,note_on,,,,,32,0,7,,,,,0,,,77,60
44928,note_on,,,,,32,0,8,,,,,1,,,74,60
45056,note_off,,,,,128,0,9,,,,,2,,,74,100
45056,note_off,,,,,128,0,10,,,,,3,,,74,100
45056,note_off,,,,,128,0,8,,,,,1,,,74,100
45056,note_off,,,,,128,0,7,,,,,0,,,77,100
45120,note_on,,,,,64,0,8,,,,,1,,,76,60
45120,note_on,,,,,64,0,10,,,,,3,,,62,50
45120,note_on,,,,,64,0,9,,,,,2,,,62,50
45120,note_on,,,,,64,0,7,,,,,0,,,79,60
45184,note_off,,,,,64,0,7,,,,,0,,,79,100
45184,note_off,,,,,64,0,8,,,,,1,,,76,100
45216,note_on,,,,,32,0,7,,,,,0,,,81,60
45216,note_on,,,,,32,0,8,,,,,1,,,77,60
45248,note_off,,,,,128,0,10,,,,,3,,,62,100
45248,note_off,,,,,128,0,9,,,,,2,,,62,100
45280,note_off,,,,,64,0,7,,,,,0,,,81,100
45280,note_off,,,,,64,0,8,,,,,1,,,77,100
45312,note_on,,,,,32,0,7,,,,,0,,,77,60
45312,note_on,,,,,32,0,8,,,,,1,,,74,60
45504,note_on,,,,,256,0,10,,,,,3,,,67,50
45504,set_tempo,,,,,45504,1,0,,1578947,,,,,,,
45504,note_on,,,,,256,0,9,,,,,2,,,67,50
45600,set_tempo,,,,,96,1,0,,1621621,,,,,,,
45632,note_off,,,,,128,0,10,,,,,3,,,67,100
45632,note_off,,,,,128,0,9,,,,,2,,,67,100
45692,note_off,,,,,380,0,7,,,,,0,,,77,100
45692,note_off,,,,,380,0,8,,,,,1,,,74,100
45696,note_on,,,,,4,0,8,,,,,1,,,73,60
45696,note_on,,,,,4,0,7,,,,,0,,,76,60
45696,set_tempo,,,,,96,1,0,,1666666,,,,,,,
45696,note_on,,,,,64,0,9,,,,,2,,,69,50
45696,note_on,,,,,64,0,10,,,,,3,,,69,50
45740,note_off,,,,,44,0,7,,,,,0,,,76,100
45740,note_off,,,,,44,0,8,,,,,1,,,73,100
45744,note_on,,,,,4,0,7,,,,,0,,,77,60
45744,note_on,,,,,4,0,8,,,,,1,,,74,60
45788,note_off,,,,,44,0,7,,,,,0,,,77,100
45788,note_off,,,,,44,0,8,,,,,1,,,74,100
45792,set_tempo,,,,,96,1,0,,1714285,,,,,,,
45792,note_on,,,,,4,0,7,,,,,0,,,76,60
45792,note_on,,,,,4,0,8,,,,,1,,,73,60
45812,note_off,,,,,20,0,8,,,,,1,,,73,100
45812,note_off,,,,,20,0,7,,,,,0,,,76,100
45816,note_on,,,,,4,0,8,,,,,1,,,74,60
45816,note_on,,,,,4,0,7,,,,,0,,,77,60
45824,note_off,,,,,128,0,9,,,,,2,,,69,100
45824,note_off,,,,,128,0,10,,,,,3,,,69,100
45836,note_off,,,,,20,0,7,,,,,0,,,77,100
45836,note_off,,,,,20,0,8,,,,,1,,,74,100
45840,note_on,,,,,4,0,7,,,,,0,,,76,60
45840,note_on,,,,,4,0,8,,,,,1,,,73,60
45860,note_off,,,,,20,0,7,,,,,0,,,76,100
45860,note_off,,,,,20,0,8,,,,,1,,,73,100
45864,note_on,,,,,4,0,8,,,,,1,,,74,60
45864,note_on,,,,,4,0,7,,,,,0,,,77,60
45884,note_off,,,,,20,0,8,,,,,1,,,74,100
45884,note_off,,,,,20,0,7,,,,,0,,,77,100
45888,note_on,,,,,4,0,8,,,,,1,,,73,60
45888,set_tempo,,,,,96,1,0,,1764705,,,,,,,
45888,note_on,,,,,64,0,9,,,,,2,,,57,50
45888,note_on,,,,,4,0,7,,,,,0,,,76,60
45888,note_on,,,,,64,0,10,,,,,3,,,57,50
45952,note_off,,,,,64,0,7,,,,,0,,,76,100
45952,note_off,,,,,64,0,8,,,,,1,,,73,100
45984,set_tempo,,,,,96,1,0,,1818181,,,,,,,
45984,note_on,,,,,32,0,8,,,,,1,,,74,60
45984,note_on,,,,,32,0,7,,,,,0,,,74,60
46016,note_off,,,,,128,0,9,,,,,2,,,57,100
46016,note_off,,,,,128,0,10,,,,,3,,,57,100
46048,note_off,,,,,64,0,7,,,,,0,,,74,100
46048,note_off,,,,,64,0,8,,,,,1,,,74,100
46080,note_on,,,,,64,0,9,,,,,2,,,74,85
46080,note_on,,,,,41124,0,13,,,,,6,,,69,100
46080,note_on,,,,,64,0,10,,,,,3,,,74,85
46080,note_on,,,,,41216,0,14,,,,,6,,,62,100
46080,note_on,,,,,0,0,13,,,,,6,,,65,100
46080,set_tempo,,,,,96,1,0,,1875000,,,,,,,
46080,note_on,,,,,32,0,7,,,,,0,,,74,70
46080,note_on,,,,,32,0,8,,,,,1,,,74,70
46080,note_on,,,,,41216,0,12,,,,,5,,,50,85
46080,note_on,,,,,41216,0,11,,,,,4,,,62,85
46112,set_tempo,,,,,32,1,0,,1818181,,,,,,,
46144,set_tempo,,,,,32,1,0,,1764705,,,,,,,
46176,set_tempo,,,,,32,1,0,,1714285,,,,,,,
46208,note_off,,,,,0,0,13,,,,,6,,,65,100
46208,note_off,,,,,128,0,13,,,,,6,,,69,100
46208,note_off,,,,,128,0,9,,,,,2,,,74,100
46208,note_off,,,,,128,0,12,,,,,5,,,50,100
46208,note_off,,,,,128,0,8,,,,,1,,,74,100
46208,note_off,,,,,128,0,7,,,,,0,,,74,100
46208,set_tempo,,,,,32,1,0,,1666666,,,,,,,
46208,end_of_track,,,,,0,1,7,,,,,,,,,
46208,note_off,,,,,128,0,11,,,,,4,,,62,100
46208,note_off,,,,,128,0,10,,,,,3,,,74,100
46208,note_off,,,,,128,0,14,,,,,6,,,62,100
46240,set_tempo,,,,,32,1,0,,1621621,,,,,,,
46272,note_on,,,,,64,0,9,,,,,2,,,62,85
46272,set_tempo,,,,,32,1,0,,1578947,,,,,,,
46272,note_on,,,,,64,0,13,,,,,6,,,57,100
46272,note_on,,,,,0,0,13,,,,,6,,,65,100
46272,note_on,,,,,64,0,11,,,,,4,,,50,85
46272,note_on,,,,,64,0,14,,,,,6,,,50,100
46272,note_on,,,,,64,0,12,,,,,5,,,38,85
46272,note_on,,,,,64,0,10,,,,,3,,,62,85
46400,note_off,,,,,128,0,12,,,,,5,,,38,100
46400,note_off,,,,,128,0,9,,,,,2,,,62,100
46400,note_off,,,,,128,0,10,,,,,3,,,62,100
46400,note_off,,,,,128,0,13,,,,,6,,,57,100
46400,note_off,,,,,0,0,13,,,,,6,,,65,100
46400,note_off,,,,,128,0,11,,,,,4,,,50,100
46400,note_off,,,,,128,0,14,,,,,6,,,50,100
46656,note_on,,,,,256,0,10,,,,,3,,,74,84
46656,note_on,,,,,256,0,12,,,,,5,,,50,84
46656,note_on,,,,,256,0,9,,,,,2,,,74,84
46656,note_on,,,,,256,0,13,,,,,6,,,65,100
46656,note_on,,,,,0,0,13,,,,,6,,,70,100
46656,note_on,,,,,256,0,14,,,,,6,,,62,100
46656,note_on,,,,,256,0,11,,,,,4,,,62,84
46784,note_off,,,,,0,0,13,,,,,6,,,70,100
46784,note_off,,,,,128,0,9,,,,,2,,,74,100
46784,note_off,,,,,128,0,14,,,,,6,,,62,100
46784,note_off,,,,,128,0,10,,,,,3,,,74,100
46784,note_off,,,,,128,0,13,,,,,6,,,65,100
46784,note_off,,,,,128,0,11,,,,,4,,,62,100
46784,note_off,,,,,128,0,12,,,,,5,,,50,100
46848,note_on,,,,,64,0,9,,,,,2,,,74,83
46848,note_on,,,,,64,0,13,,,,,6,,,65,100
46848,note_on,,,,,64,0,10,,,,,3,,,74,83
46848,note_on,,,,,64,0,12,,,,,5,,,50,83
46848,note_on,,,,,0,0,13,,,,,6,,,70,100
46848,note_on,,,,,64,0,14,,,,,6,,,62,100
46848,note_on,,,,,64,0,11,,,,,4,,,62,83
46976,note_off,,,,,128,0,10,,,,,3,,,74,100
46976,note_off,,,,,128,0,14,,,,,6,,,62,100
46976,note_off,,,,,0,0,13,,,,,6,,,70,100
46976,note_off,,,,,128,0,11,,,,,4,,,62,100
46976,note_off,,,,,128,0,12,,,,,5,,,50,100
46976,note_off,,,,,128,0,9,,,,,2,,,74,100
46976,note_off,,,,,128,0,13,,,,,6,,,65,100
47040,note_on,,,,,64,0,13,,,,,6,,,64,100
47040,note_on,,,,,64,0,10,,,,,3,,,72,82
47040,note_on,,,,,64,0,11,,,,,4,,,60,82
47040,note_on,,,,,64,0,14,,,,,6,,,60,100
47040,note_on,,,,,64,0,12,,,,,5,,,48,82
47040,note_on,,,,,64,0,9,,,,,2,,,72,82
47104,note_off,,,,,64,0,9,,,,,2,,,72,100
47104,note_off,,,,,64,0,13,,,,,6,,,64,100
47104,note_off,,,,,64,0,12,,,,,5,,,48,100
47104,note_off,,,,,64,0,11,,,,,4,,,60,100
47104,note_off,,,,,64,0,10,,,,,3,,,72,100
47104,note_off,,,,,64,0,14,,,,,6,,,60,100
47136,note_on,,,,,32,0,12,,,,,5,,,46,82
47136,note_on,,,,,32,0,11,,,,,4,,,58,82
47136,note_on,,,,,32,0,10,,,,,3,,,70,82
47136,note_on,,,,,32,0,13,,,,,6,,,62,100
47136,note_on,,,,,32,0,9,,,,,2,,,70,82
47136,note_on,,,,,32,0,14,,,,,6,,,58,100
47200,note_off,,,,,64,0,12,,,,,5,,,46,100
47200,note_off,,,,,64,0,10,,,,,3,,,70,100
47200,note_off,,,,,64,0,13,,,,,6,,,62,100
47200,note_off,,,,,64,0,14,,,,,6,,,58,100
47200,note_off,,,,,64,0,9,,,,,2,,,70,100
47200,note_off,,,,,64,0,11,,,,,4,,,58,100
47232,note_on,,,,,32,0,10,,,,,3,,,72,82
47232,note_on,,,,,32,0,12,,,,,5,,,48,82
47232,note_on,,,,,32,0,9,,,,,2,,,72,82
47232,note_on,,,,,32,0,11,,,,,4,,,60,82
47232,note_on,,,,,0,0,13,,,,,6,,,70,100
47232,note_on,,,,,32,0,13,,,,,6,,,67,100
47232,note_on,,,,,32,0,14,,,,,6,,,60,100
47360,note_off,,,,,128,0,12,,,,,5,,,48,100
47360,note_off,,,,,128,0,13,,,,,6,,,67,100
47360,note_off,,,,,128,0,14,,,,,6,,,60,100
47360,note_off,,,,,128,0,11,,,,,4,,,60,100
47360,note_off,,,,,0,0,13,,,,,6,,,70,100
47360,note_off,,,,,128,0,9,,,,,2,,,72,100
47360,note_off,,,,,128,0,10,,,,,3,,,72,100
47424,note_on,,,,,64,0,14,,,,,6,,,48,100
47424,note_on,,,,,0,0,13,,,,,6,,,67,100
47424,note_on,,,,,64,0,13,,,,,6,,,64,100
47424,note_on,,,,,64,0,9,,,,,2,,,60,81
47424,note_on,,,,,64,0,10,,,,,3,,,60,81
47424,note_on,,,,,64,0,11,,,,,4,,,48,81
47424,note_on,,,,,64,0,12,,,,,5,,,36,81
47552,note_off,,,,,128,0,10,,,,,3,,,60,100
47552,note_off,,,,,128,0,9,,,,,2,,,60,100
47552,note_off,,,,,128,0,14,,,,,6,,,48,100
47552,note_off,,,,,0,0,13,,,,,6,,,67,100
47552,note_off,,,,,128,0,13,,,,,6,,,64,100
47552,note_off,,,,,128,0,11,,,,,4,,,48,100
47552,note_off,,,,,128,0,12,,,,,5,,,36,100
47808,note_on,,,,,256,0,11,,,,,4,,,60,80
47808,note_on,,,,,0,0,13,,,,,6,,,69,100
47808,note_on,,,,,256,0,9,,,,,2,,,72,80
47808,note_on,,,,,256,0,10,,,,,3,,,72,80
47808,note_on,,,,,256,0,14,,,,,6,,,60,100
47808,note_on,,,,,256,0,12,,,,,5,,,48,80
47808,note_on,,,,,256,0,13,,,,,6,,,64,100
47936,note_off,,,,,128,0,10,,,,,3,,,72,100
47936,note_off,,,,,128,0,9,,,,,2,,,72,100
47936,note_off,,,,,0,0,13,,,,,6,,,69,100
47936,note_off,,,,,128,0,11,,,,,4,,,60,100
47936,note_off,,,,,128,0,14,,,,,6,,,60,100
47936,note_off,,,,,128,0,13,,,,,6,,,64,100
47936,note_off,,,,,128,0,12,,,,,5,,,48,100
48000,note_on,,,,,64,0,11,,,,,4,,,60,79
48000,note_on,,,,,64,0,9,,,,,2,,,72,79
48000,note_on,,,,,64,0,14,,,,,6,,,60,100
48000,note_on,,,,,64,0,13,,,,,6,,,64,100
48000,note_on,,,,,0,0,13,,,,,6,,,69,100
48000,note_on,,,,,64,0,12,,,,,5,,,48,79
48000,note_on,,,,,64,0,10,,,,,3,,,72,79
48128,note_off,,,,,128,0,13,,,,,6,,,64,100
48128,note_off,,,,,0,0,13,,,,,6,,,69,100
48128,note_off,,,,,128,0,12,,,,,5,,,48,100
48128,note_off,,,,,128,0,10,,,,,3,,,72,100
48128,note_off,,,,,128,0,9,,,,,2,,,72,100
48128,note_off,,,,,128,0,14,,,,,6,,,60,100
48128,note_off,,,,,128,0,11,,,,,4,,,60,100
48192,note_on,,,,,64,0,12,,,,,5,,,46,78
48192,note_on,,,,,64,0,9,,,,,2,,,70,78
48192,note_on,,,,,64,0,13,,,,,6,,,62,100
48192,note_on,,,,,64,0,14,,,,,6,,,58,100
48192,note_on,,,,,64,0,10,,,,,3,,,70,78
48192,note_on,,,,,64,0,11,,,,,4,,,58,78
48256,note_off,,,,,64,0,9,,,,,2,,,70,100
48256,note_off,,,,,64,0,14,,,,,6,,,58,100
48256,note_off,,,,,64,0,12,,,,,5,,,46,100
48256,note_off,,,,,64,0,13,,,,,6,,,62,100
48256,note_off,,,,,64,0,11,,,,,4,,,58,100
48256,note_off,,,,,64,0,10,,,,,3,,,70,100
48288,note_on,,,,,32,0,13,,,,,6,,,60,100
48288,note_on,,,,,32,0,14,,,,,6,,,57,100
48288,note_on,,,,,32,0,9,,,,,2,,,69,78
48288,note_on,,,,,32,0,10,,,,,3,,,69,78
48288,note_on,,,,,32,0,11,,,,,4,,,57,78
48288,note_on,,,,,32,0,12,,,,,5,,,45,78
48352,note_off,,,,,64,0,11,,,,,4,,,57,100
48352,note_off,,,,,64,0,14,,,,,6,,,57,100
48352,note_off,,,,,64,0,9,,,,,2,,,69,100
48352,note_off,,,,,64,0,10,,,,,3,,,69,100
48352,note_off,,,,,64,0,13,,,,,6,,,60,100
48352,note_off,,,,,64,0,12,,,,,5,,,45,100
48384,note_on,,,,,32,0,14,,,,,6,,,58,100
48384,note_on,,,,,32,0,9,,,,,2,,,70,78
48384,note_on,,,,,32,0,10,,,,,3,,,70,78
48384,note_on,,,,,32,0,11,,,,,4,,,58,78
48384,note_on,,,,,32,0,12,,,,,5,,,46,78
48384,note_on,,,,,32,0,13,,,,,6,,,65,100
48384,note_on,,,,,0,0,13,,,,,6,,,69,100
48512,note_off,,,,,0,0,13,,,,,6,,,69,100
48512,note_off,,,,,128,0,10,,,,,3,,,70,100
48512,note_off,,,,,128,0,9,,,,,2,,,70,100
48512,note_off,,,,,128,0,13,,,,,6,,,65,100
48512,note_off,,,,,128,0,12,,,,,5,,,46,100
48512,note_off,,,,,128,0,14,,,,,6,,,58,100
48512,note_off,,,,,128,0,11,,,,,4,,,58,100
48576,note_on,,,,,64,0,11,,,,,4,,,46,77
48576,note_on,,,,,0,0,13,,,,,6,,,65,100
48576,note_on,,,,,64,0,9,,,,,2,,,58,77
48576,note_on,,,,,64,0,14,,,,,6,,,46,100
48576,note_on,,,,,64,0,10,,,,,3,,,58,77
48576,note_on,,,,,64,0,13,,,,,6,,,62,100
48576,note_on,,,,,64,0,12,,,,,5,,,34,77
48704,note_off,,,,,128,0,9,,,,,2,,,58,100
48704,note_off,,,,,128,0,14,,,,,6,,,46,100
48704,note_off,,,,,0,0,13,,,,,6,,,65,100
48704,note_off,,,,,128,0,10,,,,,3,,,58,100
48704,note_off,,,,,128,0,11,,,,,4,,,46,100
48704,note_off,,,,,128,0,12,,,,,5,,,34,100
48704,note_off,,,,,128,0,13,,,,,6,,,62,100
48960,note_on,,,,,256,0,13,,,,,6,,,62,100
48960,note_on,,,,,0,0,13,,,,,6,,,67,100
48960,note_on,,,,,256,0,10,,,,,3,,,70,76
48960,note_on,,,,,256,0,9,,,,,2,,,70,76
48960,note_on,,,,,256,0,12,,,,,5,,,46,76
48960,note_on,,,,,256,0,11,,,,,4,,,58,76
48960,note_on,,,,,256,0,14,,,,,6,,,58,100
49088,note_off,,,,,128,0,13,,,,,6,,,62,100
49088,note_off,,,,,0,0,13,,,,,6,,,67,100
49088,note_off,,,,,128,0,14,,,,,6,,,58,100
49088,note_off,,,,,128,0,9,,,,,2,,,70,100
49088,note_off,,,,,128,0,10,,,,,3,,,70,100
49088,note_off,,,,,128,0,11,,,,,4,,,58,100
49088,note_off,,,,,128,0,12,,,,,5,,,46,100
49152,note_on,,,,,64,0,13,,,,,6,,,62,100
49152,note_on,,,,,64,0,11,,,,,4,,,58,75
49152,note_on,,,,,0,0,13,,,,,6,,,67,100
49152,note_on,,,,,64,0,10,,,,,3,,,70,75
49152,note_on,,,,,64,0,12,,,,,5,,,46,75
49152,note_on,,,,,64,0,14,,,,,6,,,58,100
49152,note_on,,,,,64,0,9,,,,,2,,,70,75
49280,note_off,,,,,128,0,12,,,,,5,,,46,100
49280,note_off,,,,,128,0,10,,,,,3,,,70,100
49280,note_off,,,,,128,0,9,,,,,2,,,70,100
49280,note_off,,,,,128,0,11,,,,,4,,,58,100
49280,note_off,,,,,0,0,13,,,,,6,,,67,100
49280,note_off,,,,,128,0,14,,,,,6,,,58,100
49280,note_off,,,,,128,0,13,,,,,6,,,62,100
49344,note_on,,,,,64,0,9,,,,,2,,,69,74
49344,note_on,,,,,64,0,12,,,,,5,,,45,74
49344,note_on,,,,,64,0,11,,,,,4,,,57,74
49344,note_on,,,,,64,0,14,,,,,6,,,57,100
49344,note_on,,,,,64,0,10,,,,,3,,,69,74
49344,note_on,,,,,64,0,13,,,,,6,,,60,100
49408,note_off,,,,,64,0,11,,,,,4,,,57,100
49408,note_off,,,,,64,0,14,,,,,6,,,57,100
49408,note_off,,,,,64,0,12,,,,,5,,,45,100
49408,note_off,,,,,64,0,10,,,,,3,,,69,100
49408,note_off,,,,,64,0,9,,,,,2,,,69,100
49408,note_off,,,,,64,0,13,,,,,6,,,60,100
49440,note_on,,,,,32,0,12,,,,,5,,,43,74
49440,note_on,,,,,32,0,10,,,,,3,,,67,74
49440,note_on,,,,,32,0,9,,,,,2,,,67,74
49440,note_on,,,,,32,0,14,,,,,6,,,55,100
49440,note_on,,,,,32,0,13,,,,,6,,,58,100
49440,note_on,,,,,32,0,11,,,,,4,,,55,74
49504,note_off,,,,,64,0,12,,,,,5,,,43,100
49504,note_off,,,,,64,0,10,,,,,3,,,67,100
49504,note_off,,,,,64,0,14,,,,,6,,,55,100
49504,note_off,,,,,64,0,13,,,,,6,,,58,100
49504,note_off,,,,,64,0,9,,,,,2,,,67,100
49504,note_off,,,,,64,0,11,,,,,4,,,55,100
49536,note_on,,,,,32,0,14,,,,,6,,,57,100
49536,note_on,,,,,32,0,9,,,,,2,,,69,74
49536,note_on,,,,,32,0,11,,,,,4,,,57,74
49536,note_on,,,,,32,0,12,,,,,5,,,45,74
49536,note_on,,,,,32,0,13,,,,,6,,,61,100
49536,note_on,,,,,32,0,10,,,,,3,,,69,74
49536,note_on,,,,,0,0,13,,,,,6,,,67,100
49664,note_off,,,,,128,0,14,,,,,6,,,57,100
49664,note_off,,,,,128,0,12,,,,,5,,,45,100
49664,note_off,,,,,128,0,9,,,,,2,,,69,100
49664,note_off,,,,,0,0,13,,,,,6,,,67,100
49664,note_off,,,,,128,0,10,,,,,3,,,69,100
49664,note_off,,,,,128,0,11,,,,,4,,,57,100
49664,note_off,,,,,128,0,13,,,,,6,,,61,100
49728,note_on,,,,,64,0,11,,,,,4,,,45,73
49728,note_on,,,,,64,0,9,,,,,2,,,57,73
49728,note_on,,,,,64,0,10,,,,,3,,,57,73
49728,note_on,,,,,64,0,14,,,,,6,,,45,100
49728,note_on,,,,,64,0,12,,,,,5,,,33,73
49728,note_on,,,,,0,0,13,,,,,6,,,61,100
49728,note_on,,,,,64,0,13,,,,,6,,,55,100
49856,note_off,,,,,128,0,13,,,,,6,,,55,100
49856,note_off,,,,,128,0,10,,,,,3,,,57,100
49856,note_off,,,,,128,0,14,,,,,6,,,45,100
49856,note_off,,,,,128,0,12,,,,,5,,,33,100
49856,note_off,,,,,128,0,9,,,,,2,,,57,100
49856,note_off,,,,,0,0,13,,,,,6,,,61,100
49856,note_off,,,,,128,0,11,,,,,4,,,45,100
50112,set_tempo,,,,,3840,1,0,,1578947,,,,,,,
50112,note_on,,,,,256,0,10,,,,,3,,,69,72
50112,note_on,,,,,0,0,13,,,,,6,,,67,100
50112,note_on,,,,,256,0,13,,,,,6,,,61,100
50112,note_on,,,,,256,0,11,,,,,4,,,57,72
50112,note_on,,,,,256,0,12,,,,,5,,,45,72
50112,note_on,,,,,256,0,9,,,,,2,,,69,72
50112,note_on,,,,,256,0,14,,,,,6,,,57,100
50152,set_tempo,,,,,40,1,0,,1621621,,,,,,,
50192,set_tempo,,,,,40,1,0,,1666666,,,,,,,
50232,set_tempo,,,,,40,1,0,,1714285,,,,,,,
50240,note_off,,,,,128,0,14,,,,,6,,,57,100
50240,note_off,,,,,128,0,10,,,,,3,,,69,100
50240,note_off,,,,,128,0,12,,,,,5,,,45,100
50240,note_off,,,,,128,0,11,,,,,4,,,57,100
50240,note_off,,,,,0,0,13,,,,,6,,,67,100
50240,note_off,,,,,128,0,13,,,,,6,,,61,100
50240,note_off,,,,,128,0,9,,,,,2,,,69,100
50276,set_tempo,,,,,44,1,0,,1764705,,,,,,,
50304,note_on,,,,,0,0,13,,,,,6,,,67,100
50304,note_on,,,,,64,0,13,,,,,6,,,61,100
50304,note_on,,,,,64,0,10,,,,,3,,,69,71
50304,note_on,,,,,64,0,12,,,,,5,,,45,71
50304,note_on,,,,,64,0,9,,,,,2,,,69,71
50304,note_on,,,,,64,0,14,,,,,6,,,57,100
50304,note_on,,,,,64,0,11,,,,,4,,,57,71
50316,set_tempo,,,,,40,1,0,,1818181,,,,,,,
50356,set_tempo,,,,,40,1,0,,1875000,,,,,,,
50400,set_tempo,,,,,44,1,0,,1935483,,,,,,,
50432,note_off,,,,,128,0,11,,,,,4,,,57,100
50432,note_off,,,,,128,0,9,,,,,2,,,69,100
50432,note_off,,,,,128,0,14,,,,,6,,,57,100
50432,note_off,,,,,128,0,10,,,,,3,,,69,100
50432,note_off,,,,,128,0,12,,,,,5,,,45,100
50432,note_off,,,,,0,0,13,,,,,6,,,67,100
50432,note_off,,,,,128,0,13,,,,,6,,,61,100
50440,set_tempo,,,,,40,1,0,,2000000,,,,,,,
50480,set_tempo,,,,,40,1,0,,2068965,,,,,,,
50496,note_on,,,,,64,0,11,,,,,4,,,45,71
50496,note_on,,,,,64,0,12,,,,,5,,,33,71
50496,note_on,,,,,64,0,9,,,,,2,,,57,71
50496,note_on,,,,,64,0,14,,,,,6,,,45,100
50496,note_on,,,,,0,0,13,,,,,6,,,61,100
50496,note_on,,,,,64,0,10,,,,,3,,,57,71
50496,note_on,,,,,64,0,13,,,,,6,,,55,100
50520,set_tempo,,,,,40,1,0,,2142857,,,,,,,
50564,set_tempo,,,,,44,1,0,,2222222,,,,,,,
50604,set_tempo,,,,,40,1,0,,2307692,,,,,,,
50624,note_off,,,,,128,0,13,,,,,6,,,55,100
50624,note_off,,,,,0,0,13,,,,,6,,,61,100
50624,note_off,,,,,128,0,11,,,,,4,,,45,100
50624,note_off,,,,,128,0,10,,,,,3,,,57,100
50624,note_off,,,,,128,0,12,,,,,5,,,33,100
50624,note_off,,,,,128,0,14,,,,,6,,,45,100
50624,note_off,,,,,128,0,9,,,,,2,,,57,100
50644,set_tempo,,,,,40,1,0,,2400000,,,,,,,
50688,note_on,,,,,64,0,10,,,,,3,,,62,70
50688,note_on,,,,,64,0,11,,,,,4,,,38,70
50688,end_of_track,,,,,0,1,0,,,,,,,,,
50688,note_on,,,,,64,0,14,,,,,6,,,50,100
50688,note_on,,,,,64,0,12,,,,,5,,,38,70
50688,note_on,,,,,64,0,13,,,,,6,,,62,100
50688,set_tempo,,,,,44,1,0,,1578947,,,,,,,
50688,note_on,,,,,64,0,9,,,,,2,,,62,70
50784,note_on,,,,,96,0,13,,,,,6,,,65,100
50880,note_on,,,,,96,0,13,,,,,6,,,69,100
50976,note_on,,,,,96,0,13,,,,,6,,,74,100
51040,note_off,,,,,64,0,13,,,,,6,,,74,100
51072,note_on,,,,,32,0,13,,,,,6,,,74,100
51088,note_off,,,,,16,0,13,,,,,6,,,74,100
51096,note_on,,,,,8,0,13,,,,,6,,,73,100
51112,note_off,,,,,16,0,13,,,,,6,,,73,100
51120,note_on,,,,,8,0,13,,,,,6,,,74,100
51456,end_of_track,,,,,0,1,14,,,,,,,,,
51456,note_off,,,,,336,0,13,,,,,6,,,62,100
51456,end_of_track,,,,,0,1,12,,,,,,,,,
51456,note_off,,,,,768,0,12,,,,,5,,,38,100
51456,end_of_track,,,,,0,1,11,,,,,,,,,
51456,note_off,,,,,768,0,11,,,,,4,,,38,100
51456,end_of_track,,,,,0,1,10,,,,,,,,,
51456,note_off,,,,,768,0,10,,,,,3,,,62,100
51456,end_of_track,,,,,0,1,9,,,,,,,,,
51456,note_off,,,,,768,0,9,,,,,2,,,62,100
51456,note_off,,,,,768,0,14,,,,,6,,,50,100
51552,note_off,,,,,96,0,13,,,,,6,,,65,100
51632,note_off,,,,,80,0,13,,,,,6,,,74,100
51648,note_off,,,,,16,0,13,,,,,6,,,69,100
51648,end_of_track,,,,,0,1,13,,,,,,,,,
52608,end_of_track,,,,,0,1,8,,,,,,,,,
52608,program_change,,,,,6400,0,8,,,,,1,40,,,
