tick,type,numerator,denominator,clocks_per_click,notated_32nd_notes_per_beat,time,meta,track,data,tempo,control,value,channel,program,key,note,velocity
0,time_signature,3,8,96,8,0,1,0,,,,,,,,,
0,program_change,,,,,0,0,6,,,,,0,40,,,
0,control_change,,,,,0,0,6,,,7,100,0,,,,
0,control_change,,,,,0,0,6,,,10,59,0,,,,
0,control_change,,,,,0,0,6,,,91,64,0,,,,
0,key_signature,,,,,0,1,6,,,,,,,D,,
0,end_of_track,,,,,0,1,6,,,,,,,,,
0,track_name,,,,,0,1,7,,,,,,,,,
0,control_change,,,,,0,0,7,,,0,0,0,,,,
0,program_change,,,,,0,0,7,,,,,0,40,,,
0,control_change,,,,,0,0,7,,,7,100,0,,,,
0,control_change,,,,,0,0,7,,,10,59,0,,,,
0,control_change,,,,,0,0,7,,,91,64,0,,,,
0,key_signature,,,,,0,1,7,,,,,,,D,,
0,key_signature,,,,,0,1,14,,,,,,,D,,
0,control_change,,,,,0,0,14,,,91,65,6,,,,
0,control_change,,,,,0,0,14,,,7,55,6,,,,
0,program_change,,,,,0,0,14,,,,,6,6,,,
0,control_change,,,,,0,0,6,,,0,0,0,,,,
0,control_change,,,,,0,0,14,,,0,0,6,,,,
0,track_name,,,,,0,1,6,,,,,,,,,
0,key_signature,,,,,0,1,5,,,,,,,D,,
0,program_change,,,,,0,0,3,,,,,0,40,,,
0,key_signature,,,,,0,1,3,,,,,,,D,,
0,end_of_track,,,,,0,1,3,,,,,,,,,
0,track_name,,,,,0,1,4,,,,,,,,,
0,control_change,,,,,0,0,4,,,0,0,0,,,,
0,program_change,,,,,0,0,4,,,,,0,40,,,
0,control_change,,,,,0,0,4,,,7,100,0,,,,
0,control_change,,,,,0,0,4,,,10,59,0,,,,
0,control_change,,,,,0,0,4,,,91,64,0,,,,
0,key_signature,,,,,0,1,4,,,,,,,D,,
0,end_of_track,,,,,0,1,4,,,,,,,,,
0,track_name,,,,,0,1,5,,,,,,,,,
0,control_change,,,,,0,0,5,,,0,0,0,,,,
0,program_change,,,,,0,0,5,,,,,0,40,,,
0,control_change,,,,,0,0,5,,,7,100,0,,,,
0,control_change,,,,,0,0,5,,,10,59,0,,,,
0,control_change,,,,,0,0,5,,,91,64,0,,,,
0,end_of_track,,,,,0,1,5,,,,,,,,,
0,track_name,,,,,0,1,14,,,,,,,,,
0,track_name,,,,,0,1,8,,,,,,,,,
0,control_change,,,,,0,0,8,,,0,0,1,,,,
0,control_change,,,,,0,0,12,,,91,69,5,,,,
0,control_change,,,,,0,0,12,,,10,88,5,,,,
0,control_change,,,,,0,0,12,,,7,85,5,,,,
0,program_change,,,,,0,0,12,,,,,5,48,,,
0,control_change,,,,,0,0,12,,,0,0,5,,,,
0,track_name,,,,,0,1,12,,,,,,,,,
0,track_name,,,,,0,1,10,,,,,,,,,
0,control_change,,,,,0,0,10,,,0,0,3,,,,
0,program_change,,,,,0,0,10,,,,,3,48,,,
0,control_change,,,,,0,0,10,,,7,95,3,,,,
0,control_change,,,,,0,0,10,,,91,63,3,,,,
0,key_signature,,,,,0,1,10,,,,,,,D,,
0,key_signature,,,,,0,1,11,,,,,,,D,,
0,control_change,,,,,0,0,11,,,91,66,4,,,,
0,control_change,,,,,0,0,11,,,10,78,4,,,,
0,control_change,,,,,0,0,11,,,7,90,4,,,,
0,program_change,,,,,0,0,11,,,,,4,48,,,
0,key_signature,,,,,0,1,12,,,,,,,D,,
0,note_on,,,,,0,0,9,,,,,2,,,78,70
0,key_signature,,,,,0,1,9,,,,,,,D,,
0,control_change,,,,,0,0,9,,,91,70,2,,,,
0,program_change,,,,,0,0,8,,,,,1,48,,,
0,control_change,,,,,0,0,8,,,7,100,1,,,,
0,control_change,,,,,0,0,8,,,10,41,1,,,,
0,control_change,,,,,0,0,8,,,91,66,1,,,,
0,key_signature,,,,,0,1,8,,,,,,,D,,
0,note_on,,,,,0,0,8,,,,,1,,,81,70
0,control_change,,,,,0,0,11,,,0,0,4,,,,
0,key_signature,,,,,0,1,13,,,,,,,D,,
0,control_change,,,,,0,0,3,,,91,64,0,,,,
0,control_change,,,,,0,0,13,,,91,65,6,,,,
0,program_change,,,,,0,0,13,,,,,6,6,,,
0,control_change,,,,,0,0,13,,,0,0,6,,,,
0,track_name,,,,,0,1,13,,,,,,,,,
0,track_name,,,,,0,1,9,,,,,,,,,
0,control_change,,,,,0,0,9,,,0,0,2,,,,
0,program_change,,,,,0,0,9,,,,,2,48,,,
0,control_change,,,,,0,0,9,,,7,100,2,,,,
0,control_change,,,,,0,0,9,,,10,51,2,,,,
0,control_change,,,,,0,0,13,,,7,55,6,,,,
0,control_change,,,,,0,0,3,,,10,59,0,,,,
0,track_name,,,,,0,1,11,,,,,,,,,
0,control_change,,,,,0,0,3,,,0,0,0,,,,
0,set_tempo,,,,,0,1,0,,705882,,,,,,,
0,control_change,,,,,0,0,3,,,7,100,0,,,,
0,sequencer_specific,,,,,0,1,0,"(0, 0, 119, 14, 1)",,,,,,,,
0,track_name,,,,,0,1,1,,,,,,,,,
0,sequencer_specific,,,,,0,1,0,"(0, 0, 65)",,,,,,,,
0,end_of_track,,,,,0,1,2,,,,,,,,,
0,track_name,,,,,0,1,3,,,,,,,,,
0,end_of_track,,,,,0,1,1,,,,,,,,,
0,track_name,,,,,0,1,2,,,,,,,,,
128,note_off,,,,,128,0,8,,,,,1,,,81,100
128,note_off,,,,,128,0,9,,,,,2,,,78,100
192,note_on,,,,,64,0,8,,,,,1,,,78,70
192,note_on,,,,,64,0,9,,,,,2,,,74,70
256,note_off,,,,,64,0,8,,,,,1,,,78,100
256,note_off,,,,,64,0,9,,,,,2,,,74,100
288,note_on,,,,,32,0,9,,,,,2,,,76,70
288,note_on,,,,,32,0,8,,,,,1,,,79,70
352,note_off,,,,,64,0,8,,,,,1,,,79,100
352,note_off,,,,,64,0,9,,,,,2,,,76,100
384,note_on,,,,,32,0,8,,,,,1,,,81,70
384,note_on,,,,,32,0,9,,,,,2,,,78,70
512,note_off,,,,,128,0,8,,,,,1,,,81,100
512,note_off,,,,,128,0,9,,,,,2,,,78,100
576,note_on,,,,,64,0,9,,,,,2,,,78,70
576,note_on,,,,,64,0,8,,,,,1,,,81,70
704,note_off,,,,,128,0,9,,,,,2,,,78,100
704,note_off,,,,,128,0,8,,,,,1,,,81,100
768,note_on,,,,,64,0,9,,,,,2,,,74,70
768,note_on,,,,,64,0,8,,,,,1,,,78,70
832,note_off,,,,,64,0,9,,,,,2,,,74,100
832,note_off,,,,,64,0,8,,,,,1,,,78,100
864,note_on,,,,,32,0,9,,,,,2,,,76,70
864,note_on,,,,,32,0,8,,,,,1,,,79,70
928,note_off,,,,,64,0,9,,,,,2,,,76,100
928,note_off,,,,,64,0,8,,,,,1,,,79,100
960,note_on,,,,,32,0,9,,,,,2,,,78,70
960,note_on,,,,,32,0,8,,,,,1,,,81,70
1088,note_off,,,,,128,0,8,,,,,1,,,81,100
1088,note_off,,,,,128,0,9,,,,,2,,,78,100
1152,note_on,,,,,64,0,8,,,,,1,,,81,70
1152,note_on,,,,,64,0,9,,,,,2,,,78,70
1280,note_off,,,,,128,0,8,,,,,1,,,81,100
1280,note_off,,,,,128,0,9,,,,,2,,,78,100
1344,note_on,,,,,64,0,8,,,,,1,,,83,70
1344,note_on,,,,,64,0,9,,,,,2,,,79,70
1408,note_off,,,,,64,0,9,,,,,2,,,79,100
1408,note_off,,,,,64,0,8,,,,,1,,,83,100
1440,note_on,,,,,32,0,9,,,,,2,,,78,70
1440,note_on,,,,,32,0,8,,,,,1,,,81,70
1504,note_off,,,,,64,0,9,,,,,2,,,78,100
1504,note_off,,,,,64,0,8,,,,,1,,,81,100
1536,note_on,,,,,32,0,9,,,,,2,,,79,70
1536,note_on,,,,,32,0,8,,,,,1,,,83,70
1600,note_off,,,,,64,0,9,,,,,2,,,79,100
1600,note_off,,,,,64,0,8,,,,,1,,,83,100
1632,note_on,,,,,32,0,9,,,,,2,,,78,70
1632,note_on,,,,,32,0,8,,,,,1,,,81,70
1696,note_off,,,,,64,0,9,,,,,2,,,78,100
1696,note_off,,,,,64,0,8,,,,,1,,,81,100
1728,note_on,,,,,32,0,9,,,,,2,,,76,70
1728,note_on,,,,,32,0,8,,,,,1,,,79,70
1792,note_off,,,,,64,0,8,,,,,1,,,79,100
1792,note_off,,,,,64,0,9,,,,,2,,,76,100
1824,note_on,,,,,32,0,9,,,,,2,,,74,70
1824,note_on,,,,,32,0,8,,,,,1,,,78,70
1888,note_off,,,,,64,0,8,,,,,1,,,78,100
1888,note_off,,,,,64,0,9,,,,,2,,,74,100
1920,note_on,,,,,32,0,9,,,,,2,,,73,70
1920,note_on,,,,,32,0,8,,,,,1,,,76,70
1984,note_off,,,,,64,0,8,,,,,1,,,76,100
1984,note_off,,,,,64,0,9,,,,,2,,,73,100
2016,note_on,,,,,32,0,9,,,,,2,,,74,70
2016,note_on,,,,,32,0,8,,,,,1,,,78,70
2080,note_off,,,,,64,0,8,,,,,1,,,78,100
2080,note_off,,,,,64,0,9,,,,,2,,,74,100
2112,note_on,,,,,32,0,8,,,,,1,,,79,70
2112,note_on,,,,,32,0,9,,,,,2,,,76,70
2240,note_off,,,,,128,0,9,,,,,2,,,76,100
2240,note_off,,,,,128,0,8,,,,,1,,,79,100
2304,note_on,,,,,64,0,8,,,,,1,,,79,70
2304,note_on,,,,,64,0,9,,,,,2,,,76,70
2432,note_off,,,,,128,0,8,,,,,1,,,79,100
2432,note_off,,,,,128,0,9,,,,,2,,,76,100
2496,note_on,,,,,64,0,8,,,,,1,,,76,70
2496,note_on,,,,,64,0,9,,,,,2,,,73,70
2560,note_off,,,,,64,0,8,,,,,1,,,76,100
2560,note_off,,,,,64,0,9,,,,,2,,,73,100
2592,note_on,,,,,32,0,8,,,,,1,,,78,70
2592,note_on,,,,,32,0,9,,,,,2,,,74,70
2656,note_off,,,,,64,0,8,,,,,1,,,78,100
2656,note_off,,,,,64,0,9,,,,,2,,,74,100
2688,note_on,,,,,32,0,8,,,,,1,,,79,70
2688,note_on,,,,,32,0,9,,,,,2,,,76,70
2816,note_off,,,,,128,0,8,,,,,1,,,79,100
2816,note_off,,,,,128,0,9,,,,,2,,,76,100
2880,note_on,,,,,64,0,8,,,,,1,,,79,70
2880,note_on,,,,,64,0,9,,,,,2,,,76,70
3008,note_off,,,,,128,0,9,,,,,2,,,76,100
3008,note_off,,,,,128,0,8,,,,,1,,,79,100
3072,note_on,,,,,64,0,9,,,,,2,,,73,70
3072,note_on,,,,,64,0,8,,,,,1,,,76,70
3136,note_off,,,,,64,0,9,,,,,2,,,73,100
3136,note_off,,,,,64,0,8,,,,,1,,,76,100
3168,note_on,,,,,32,0,9,,,,,2,,,74,70
3168,note_on,,,,,32,0,8,,,,,1,,,78,70
3232,note_off,,,,,64,0,9,,,,,2,,,74,100
3232,note_off,,,,,64,0,8,,,,,1,,,78,100
3264,note_on,,,,,32,0,8,,,,,1,,,79,70
3264,note_on,,,,,32,0,9,,,,,2,,,76,70
3392,note_off,,,,,128,0,9,,,,,2,,,76,100
3392,note_off,,,,,128,0,8,,,,,1,,,79,100
3456,set_tempo,,,,,3456,1,0,,705882,,,,,,,
3456,note_on,,,,,64,0,9,,,,,2,,,76,70
3456,note_on,,,,,64,0,8,,,,,1,,,79,70
3584,note_off,,,,,128,0,9,,,,,2,,,76,100
3584,note_off,,,,,128,0,8,,,,,1,,,79,100
3648,note_on,,,,,64,0,8,,,,,1,,,81,70
3648,note_on,,,,,64,0,9,,,,,2,,,78,70
3712,note_off,,,,,64,0,8,,,,,1,,,81,100
3712,note_off,,,,,64,0,9,,,,,2,,,78,100
3744,note_on,,,,,32,0,8,,,,,1,,,79,70
3744,note_on,,,,,32,0,9,,,,,2,,,76,70
3808,note_off,,,,,64,0,9,,,,,2,,,76,100
3808,note_off,,,,,64,0,8,,,,,1,,,79,100
3840,note_on,,,,,32,0,8,,,,,1,,,81,70
3840,note_on,,,,,32,0,9,,,,,2,,,78,70
3904,note_off,,,,,64,0,8,,,,,1,,,81,100
3904,note_off,,,,,64,0,9,,,,,2,,,78,100
3936,note_on,,,,,32,0,8,,,,,1,,,79,70
3936,note_on,,,,,32,0,9,,,,,2,,,76,70
4000,note_off,,,,,64,0,8,,,,,1,,,79,100
4000,note_off,,,,,64,0,9,,,,,2,,,76,100
4032,note_on,,,,,32,0,8,,,,,1,,,78,70
4032,note_on,,,,,32,0,9,,,,,2,,,74,70
4096,note_off,,,,,64,0,8,,,,,1,,,78,100
4096,note_off,,,,,64,0,9,,,,,2,,,74,100
4128,note_on,,,,,32,0,8,,,,,1,,,76,70
4128,note_on,,,,,32,0,9,,,,,2,,,73,70
4192,note_off,,,,,64,0,9,,,,,2,,,73,100
4192,note_off,,,,,64,0,8,,,,,1,,,76,100
4224,note_on,,,,,32,0,9,,,,,2,,,74,70
4224,note_on,,,,,32,0,8,,,,,1,,,78,70
4288,note_off,,,,,64,0,9,,,,,2,,,74,100
4288,note_off,,,,,64,0,8,,,,,1,,,78,100
4320,note_on,,,,,32,0,8,,,,,1,,,79,70
4320,note_on,,,,,32,0,9,,,,,2,,,76,70
4384,note_off,,,,,64,0,8,,,,,1,,,79,100
4384,note_off,,,,,64,0,9,,,,,2,,,76,100
4416,note_on,,,,,32,0,8,,,,,1,,,78,70
4416,note_on,,,,,32,0,9,,,,,2,,,74,70
4544,note_off,,,,,128,0,8,,,,,1,,,78,100
4544,note_off,,,,,128,0,9,,,,,2,,,74,100
4608,note_on,,,,,4608,0,14,,,,,6,,,50,100
4608,note_on,,,,,4608,0,11,,,,,4,,,50,100
4608,note_on,,,,,4608,0,12,,,,,5,,,38,100
4608,note_on,,,,,0,0,13,,,,,6,,,66,100
4608,note_on,,,,,4608,0,13,,,,,6,,,69,100
4608,note_on,,,,,4608,0,10,,,,,3,,,62,100
4608,note_on,,,,,64,0,9,,,,,2,,,78,100
4608,note_on,,,,,64,0,8,,,,,1,,,81,100
4672,note_off,,,,,64,0,8,,,,,1,,,81,100
4672,note_off,,,,,64,0,10,,,,,3,,,62,100
4672,note_off,,,,,64,0,9,,,,,2,,,78,100
4672,note_off,,,,,64,0,14,,,,,6,,,50,100
4672,note_off,,,,,64,0,11,,,,,4,,,50,100
4672,note_off,,,,,64,0,12,,,,,5,,,38,100
4704,note_on,,,,,32,0,14,,,,,6,,,50,100
4704,note_on,,,,,32,0,11,,,,,4,,,50,100
4704,note_on,,,,,32,0,9,,,,,2,,,78,100
4704,note_on,,,,,32,0,12,,,,,5,,,38,100
4704,note_on,,,,,32,0,10,,,,,3,,,62,100
4704,note_on,,,,,32,0,8,,,,,1,,,81,100
4736,note_off,,,,,0,0,13,,,,,6,,,66,100
4736,note_off,,,,,128,0,13,,,,,6,,,69,100
4768,note_off,,,,,64,0,12,,,,,5,,,38,100
4768,note_off,,,,,64,0,8,,,,,1,,,81,100
4768,note_off,,,,,64,0,10,,,,,3,,,62,100
4768,note_off,,,,,64,0,11,,,,,4,,,50,100
4768,note_off,,,,,64,0,9,,,,,2,,,78,100
4768,note_off,,,,,64,0,14,,,,,6,,,50,100
4800,note_on,,,,,64,0,13,,,,,6,,,69,100
4800,note_on,,,,,32,0,8,,,,,1,,,81,100
4800,note_on,,,,,32,0,11,,,,,4,,,50,100
4800,note_on,,,,,0,0,13,,,,,6,,,66,100
4800,note_on,,,,,32,0,10,,,,,3,,,62,100
4800,note_on,,,,,32,0,14,,,,,6,,,50,100
4800,note_on,,,,,32,0,9,,,,,2,,,78,100
4800,note_on,,,,,32,0,12,,,,,5,,,38,100
4864,note_off,,,,,64,0,14,,,,,6,,,50,100
4864,note_off,,,,,64,0,8,,,,,1,,,81,100
4864,note_off,,,,,64,0,12,,,,,5,,,38,100
4864,note_off,,,,,64,0,9,,,,,2,,,78,100
4864,note_off,,,,,64,0,11,,,,,4,,,50,100
4864,note_off,,,,,64,0,10,,,,,3,,,62,100
4896,note_on,,,,,32,0,9,,,,,2,,,78,100
4896,note_on,,,,,32,0,12,,,,,5,,,38,100
4896,note_on,,,,,32,0,8,,,,,1,,,81,100
4896,note_on,,,,,32,0,10,,,,,3,,,62,100
4896,note_on,,,,,32,0,11,,,,,4,,,50,100
4896,note_on,,,,,32,0,14,,,,,6,,,50,100
4928,note_off,,,,,0,0,13,,,,,6,,,66,100
4928,note_off,,,,,128,0,13,,,,,6,,,69,100
4960,note_off,,,,,64,0,11,,,,,4,,,50,100
4960,note_off,,,,,64,0,14,,,,,6,,,50,100
4960,note_off,,,,,64,0,8,,,,,1,,,81,100
4960,note_off,,,,,64,0,10,,,,,3,,,62,100
4960,note_off,,,,,64,0,12,,,,,5,,,38,100
4960,note_off,,,,,64,0,9,,,,,2,,,78,100
4992,note_on,,,,,32,0,10,,,,,3,,,62,100
4992,note_on,,,,,32,0,12,,,,,5,,,38,100
4992,note_on,,,,,64,0,13,,,,,6,,,69,100
4992,note_on,,,,,0,0,13,,,,,6,,,66,100
4992,note_on,,,,,32,0,8,,,,,1,,,81,100
4992,note_on,,,,,32,0,9,,,,,2,,,78,100
4992,note_on,,,,,32,0,11,,,,,4,,,50,100
4992,note_on,,,,,32,0,14,,,,,6,,,50,100
5056,note_off,,,,,64,0,10,,,,,3,,,62,100
5056,note_off,,,,,64,0,14,,,,,6,,,50,100
5056,note_off,,,,,64,0,12,,,,,5,,,38,100
5056,note_off,,,,,64,0,11,,,,,4,,,50,100
5056,note_off,,,,,64,0,9,,,,,2,,,78,100
5056,note_off,,,,,64,0,8,,,,,1,,,81,100
5088,note_on,,,,,32,0,12,,,,,5,,,38,100
5088,note_on,,,,,32,0,9,,,,,2,,,78,100
5088,note_on,,,,,32,0,10,,,,,3,,,62,100
5088,note_on,,,,,32,0,11,,,,,4,,,50,100
5088,note_on,,,,,32,0,8,,,,,1,,,81,100
5088,note_on,,,,,32,0,14,,,,,6,,,50,100
5120,note_off,,,,,128,0,13,,,,,6,,,69,100
5120,note_off,,,,,0,0,13,,,,,6,,,66,100
5152,note_off,,,,,64,0,14,,,,,6,,,50,100
5152,note_off,,,,,64,0,10,,,,,3,,,62,100
5152,note_off,,,,,64,0,12,,,,,5,,,38,100
5152,note_off,,,,,64,0,11,,,,,4,,,50,100
5152,note_off,,,,,64,0,8,,,,,1,,,81,100
5152,note_off,,,,,64,0,9,,,,,2,,,78,100
5184,note_on,,,,,32,0,12,,,,,5,,,38,100
5184,note_on,,,,,32,0,9,,,,,2,,,71,100
5184,note_on,,,,,32,0,11,,,,,4,,,50,100
5184,note_on,,,,,32,0,14,,,,,6,,,50,100
5184,note_on,,,,,64,0,13,,,,,6,,,71,100
5184,note_on,,,,,0,0,13,,,,,6,,,69,100
5184,note_on,,,,,32,0,10,,,,,3,,,66,100
5184,note_on,,,,,32,0,8,,,,,1,,,81,100
5248,note_off,,,,,64,0,11,,,,,4,,,50,100
5248,note_off,,,,,64,0,8,,,,,1,,,81,100
5248,note_off,,,,,64,0,12,,,,,5,,,38,100
5248,note_off,,,,,64,0,9,,,,,2,,,71,100
5248,note_off,,,,,64,0,14,,,,,6,,,50,100
5248,note_off,,,,,64,0,10,,,,,3,,,66,100
5280,note_on,,,,,32,0,10,,,,,3,,,66,100
5280,note_on,,,,,32,0,9,,,,,2,,,71,100
5280,note_on,,,,,32,0,11,,,,,4,,,50,100
5280,note_on,,,,,32,0,8,,,,,1,,,81,100
5280,note_on,,,,,32,0,12,,,,,5,,,38,100
5280,note_on,,,,,32,0,14,,,,,6,,,50,100
5312,note_off,,,,,0,0,13,,,,,6,,,69,100
5312,note_off,,,,,128,0,13,,,,,6,,,71,100
5344,note_off,,,,,64,0,12,,,,,5,,,38,100
5344,note_off,,,,,64,0,10,,,,,3,,,66,100
5344,note_off,,,,,64,0,11,,,,,4,,,50,100
5344,note_off,,,,,64,0,9,,,,,2,,,71,100
5344,note_off,,,,,64,0,14,,,,,6,,,50,100
5344,note_off,,,,,64,0,8,,,,,1,,,81,100
5376,note_on,,,,,64,0,13,,,,,6,,,71,100
5376,note_on,,,,,0,0,13,,,,,6,,,69,100
5376,note_on,,,,,32,0,11,,,,,4,,,50,100
5376,note_on,,,,,32,0,10,,,,,3,,,66,100
5376,note_on,,,,,32,0,14,,,,,6,,,50,100
5376,note_on,,,,,32,0,9,,,,,2,,,71,100
5376,note_on,,,,,32,0,8,,,,,1,,,81,100
5376,note_on,,,,,32,0,12,,,,,5,,,38,100
5440,note_off,,,,,64,0,11,,,,,4,,,50,100
5440,note_off,,,,,64,0,14,,,,,6,,,50,100
5440,note_off,,,,,64,0,9,,,,,2,,,71,100
5440,note_off,,,,,64,0,10,,,,,3,,,66,100
5440,note_off,,,,,64,0,8,,,,,1,,,81,100
5440,note_off,,,,,64,0,12,,,,,5,,,38,100
5472,note_on,,,,,32,0,9,,,,,2,,,71,100
5472,note_on,,,,,32,0,10,,,,,3,,,66,100
5472,note_on,,,,,32,0,14,,,,,6,,,50,100
5472,note_on,,,,,32,0,8,,,,,1,,,81,100
5472,note_on,,,,,32,0,11,,,,,4,,,50,100
5472,note_on,,,,,32,0,12,,,,,5,,,38,100
5504,note_off,,,,,128,0,13,,,,,6,,,71,100
5504,note_off,,,,,0,0,13,,,,,6,,,69,100
5536,note_off,,,,,64,0,11,,,,,4,,,50,100
5536,note_off,,,,,64,0,12,,,,,5,,,38,100
5536,note_off,,,,,64,0,8,,,,,1,,,81,100
5536,note_off,,,,,64,0,14,,,,,6,,,50,100
5536,note_off,,,,,64,0,9,,,,,2,,,71,100
5536,note_off,,,,,64,0,10,,,,,3,,,66,100
5568,note_on,,,,,32,0,14,,,,,6,,,50,100
5568,note_on,,,,,32,0,12,,,,,5,,,38,100
5568,note_on,,,,,32,0,10,,,,,3,,,66,100
5568,note_on,,,,,32,0,9,,,,,2,,,71,100
5568,note_on,,,,,64,0,13,,,,,6,,,71,100
5568,note_on,,,,,0,0,13,,,,,6,,,69,100
5568,note_on,,,,,32,0,8,,,,,1,,,81,100
5568,note_on,,,,,32,0,11,,,,,4,,,50,100
5632,note_off,,,,,64,0,12,,,,,5,,,38,100
5632,note_off,,,,,64,0,10,,,,,3,,,66,100
5632,note_off,,,,,64,0,14,,,,,6,,,50,100
5632,note_off,,,,,64,0,9,,,,,2,,,71,100
5632,note_off,,,,,64,0,8,,,,,1,,,81,100
5632,note_off,,,,,64,0,11,,,,,4,,,50,100
5664,note_on,,,,,32,0,8,,,,,1,,,81,100
5664,note_on,,,,,32,0,9,,,,,2,,,71,100
5664,note_on,,,,,32,0,12,,,,,5,,,38,100
5664,note_on,,,,,32,0,10,,,,,3,,,66,100
5664,note_on,,,,,32,0,11,,,,,4,,,50,100
5664,note_on,,,,,32,0,14,,,,,6,,,50,100
5696,note_off,,,,,0,0,13,,,,,6,,,69,100
5696,note_off,,,,,128,0,13,,,,,6,,,71,100
5728,note_off,,,,,64,0,14,,,,,6,,,50,100
5728,note_off,,,,,64,0,9,,,,,2,,,71,100
5728,note_off,,,,,64,0,12,,,,,5,,,38,100
5728,note_off,,,,,64,0,8,,,,,1,,,81,100
5728,note_off,,,,,64,0,10,,,,,3,,,66,100
5728,note_off,,,,,64,0,11,,,,,4,,,50,100
5760,note_on,,,,,32,0,8,,,,,1,,,79,100
5760,note_on,,,,,64,0,13,,,,,6,,,67,100
5760,note_on,,,,,32,0,12,,,,,5,,,40,100
5760,note_on,,,,,32,0,9,,,,,2,,,71,100
5760,note_on,,,,,32,0,14,,,,,6,,,52,100
5760,note_on,,,,,0,0,13,,,,,6,,,71,100
5760,note_on,,,,,32,0,11,,,,,4,,,52,100
5760,note_on,,,,,32,0,10,,,,,3,,,64,100
5824,note_off,,,,,64,0,10,,,,,3,,,64,100
5824,note_off,,,,,64,0,8,,,,,1,,,79,100
5824,note_off,,,,,64,0,11,,,,,4,,,52,100
5824,note_off,,,,,64,0,12,,,,,5,,,40,100
5824,note_off,,,,,64,0,14,,,,,6,,,52,100
5824,note_off,,,,,64,0,9,,,,,2,,,71,100
5856,note_on,,,,,32,0,10,,,,,3,,,64,100
5856,note_on,,,,,32,0,8,,,,,1,,,79,100
5856,note_on,,,,,32,0,11,,,,,4,,,52,100
5856,note_on,,,,,32,0,12,,,,,5,,,40,100
5856,note_on,,,,,32,0,14,,,,,6,,,52,100
5856,note_on,,,,,32,0,9,,,,,2,,,71,100
5888,note_off,,,,,128,0,13,,,,,6,,,67,100
5888,note_off,,,,,0,0,13,,,,,6,,,71,100
5920,note_off,,,,,64,0,12,,,,,5,,,40,100
5920,note_off,,,,,64,0,9,,,,,2,,,71,100
5920,note_off,,,,,64,0,14,,,,,6,,,52,100
5920,note_off,,,,,64,0,8,,,,,1,,,79,100
5920,note_off,,,,,64,0,11,,,,,4,,,52,100
5920,note_off,,,,,64,0,10,,,,,3,,,64,100
5952,note_on,,,,,32,0,9,,,,,2,,,71,100
5952,note_on,,,,,32,0,14,,,,,6,,,52,100
5952,note_on,,,,,32,0,12,,,,,5,,,40,100
5952,note_on,,,,,32,0,10,,,,,3,,,64,100
5952,note_on,,,,,32,0,11,,,,,4,,,52,100
5952,note_on,,,,,32,0,8,,,,,1,,,79,100
5952,note_on,,,,,64,0,13,,,,,6,,,67,100
5952,note_on,,,,,0,0,13,,,,,6,,,71,100
6016,note_off,,,,,64,0,11,,,,,4,,,52,100
6016,note_off,,,,,64,0,9,,,,,2,,,71,100
6016,note_off,,,,,64,0,12,,,,,5,,,40,100
6016,note_off,,,,,64,0,14,,,,,6,,,52,100
6016,note_off,,,,,64,0,8,,,,,1,,,79,100
6016,note_off,,,,,64,0,10,,,,,3,,,64,100
6048,note_on,,,,,32,0,9,,,,,2,,,71,100
6048,note_on,,,,,32,0,11,,,,,4,,,52,100
6048,note_on,,,,,32,0,8,,,,,1,,,79,100
6048,note_on,,,,,32,0,12,,,,,5,,,40,100
6048,note_on,,,,,32,0,10,,,,,3,,,64,100
6048,note_on,,,,,32,0,14,,,,,6,,,52,100
6080,note_off,,,,,0,0,13,,,,,6,,,71,100
6080,note_off,,,,,128,0,13,,,,,6,,,67,100
6112,note_off,,,,,64,0,11,,,,,4,,,52,100
6112,note_off,,,,,64,0,12,,,,,5,,,40,100
6112,note_off,,,,,64,0,14,,,,,6,,,52,100
6112,note_off,,,,,64,0,8,,,,,1,,,79,100
6112,note_off,,,,,64,0,10,,,,,3,,,64,100
6112,note_off,,,,,64,0,9,,,,,2,,,71,100
6144,note_on,,,,,32,0,8,,,,,1,,,79,100
6144,note_on,,,,,0,0,13,,,,,6,,,71,100
6144,note_on,,,,,64,0,13,,,,,6,,,67,100
6144,note_on,,,,,32,0,14,,,,,6,,,52,100
6144,note_on,,,,,32,0,9,,,,,2,,,71,100
6144,note_on,,,,,32,0,11,,,,,4,,,52,100
6144,note_on,,,,,32,0,12,,,,,5,,,40,100
6144,note_on,,,,,32,0,10,,,,,3,,,64,100
6208,note_off,,,,,64,0,8,,,,,1,,,79,100
6208,note_off,,,,,64,0,12,,,,,5,,,40,100
6208,note_off,,,,,64,0,14,,,,,6,,,52,100
6208,note_off,,,,,64,0,11,,,,,4,,,52,100
6208,note_off,,,,,64,0,9,,,,,2,,,71,100
6208,note_off,,,,,64,0,10,,,,,3,,,64,100
6240,note_on,,,,,32,0,14,,,,,6,,,52,100
6240,note_on,,,,,32,0,8,,,,,1,,,79,100
6240,note_on,,,,,32,0,10,,,,,3,,,64,100
6240,note_on,,,,,32,0,9,,,,,2,,,71,100
6240,note_on,,,,,32,0,11,,,,,4,,,52,100
6240,note_on,,,,,32,0,12,,,,,5,,,40,100
6272,note_off,,,,,128,0,13,,,,,6,,,67,100
6272,note_off,,,,,0,0,13,,,,,6,,,71,100
6304,note_off,,,,,64,0,10,,,,,3,,,64,100
6304,note_off,,,,,64,0,11,,,,,4,,,52,100
6304,note_off,,,,,64,0,9,,,,,2,,,71,100
6304,note_off,,,,,64,0,8,,,,,1,,,79,100
6304,note_off,,,,,64,0,14,,,,,6,,,52,100
6304,note_off,,,,,64,0,12,,,,,5,,,40,100
6336,note_on,,,,,32,0,12,,,,,5,,,33,100
6336,note_on,,,,,32,0,10,,,,,3,,,64,100
6336,note_on,,,,,0,0,13,,,,,6,,,67,100
6336,note_on,,,,,64,0,13,,,,,6,,,64,100
6336,note_on,,,,,32,0,11,,,,,4,,,45,100
6336,note_on,,,,,32,0,14,,,,,6,,,45,100
6336,note_on,,,,,32,0,8,,,,,1,,,79,100
6336,note_on,,,,,32,0,9,,,,,2,,,73,100
6400,note_off,,,,,64,0,10,,,,,3,,,64,100
6400,note_off,,,,,64,0,14,,,,,6,,,45,100
6400,note_off,,,,,64,0,11,,,,,4,,,45,100
6400,note_off,,,,,64,0,8,,,,,1,,,79,100
6400,note_off,,,,,64,0,9,,,,,2,,,73,100
6400,note_off,,,,,64,0,12,,,,,5,,,33,100
6432,note_on,,,,,32,0,10,,,,,3,,,64,100
6432,note_on,,,,,32,0,14,,,,,6,,,45,100
6432,note_on,,,,,32,0,9,,,,,2,,,73,100
6432,note_on,,,,,32,0,11,,,,,4,,,45,100
6432,note_on,,,,,32,0,8,,,,,1,,,79,100
6432,note_on,,,,,32,0,12,,,,,5,,,33,100
6464,note_off,,,,,128,0,13,,,,,6,,,64,100
6464,note_off,,,,,0,0,13,,,,,6,,,67,100
6496,note_off,,,,,64,0,14,,,,,6,,,45,100
6496,note_off,,,,,64,0,12,,,,,5,,,33,100
6496,note_off,,,,,64,0,11,,,,,4,,,45,100
6496,note_off,,,,,64,0,9,,,,,2,,,73,100
6496,note_off,,,,,64,0,10,,,,,3,,,64,100
6496,note_off,,,,,64,0,8,,,,,1,,,79,100
6528,note_on,,,,,32,0,11,,,,,4,,,45,100
6528,note_on,,,,,32,0,9,,,,,2,,,73,100
6528,note_on,,,,,32,0,14,,,,,6,,,45,100
6528,note_on,,,,,0,0,13,,,,,6,,,67,100
6528,note_on,,,,,64,0,13,,,,,6,,,64,100
6528,note_on,,,,,32,0,8,,,,,1,,,79,100
6528,note_on,,,,,32,0,10,,,,,3,,,69,100
6528,note_on,,,,,32,0,12,,,,,5,,,33,100
6592,note_off,,,,,64,0,9,,,,,2,,,73,100
6592,note_off,,,,,64,0,14,,,,,6,,,45,100
6592,note_off,,,,,64,0,12,,,,,5,,,33,100
6592,note_off,,,,,64,0,11,,,,,4,,,45,100
6592,note_off,,,,,64,0,10,,,,,3,,,69,100
6592,note_off,,,,,64,0,8,,,,,1,,,79,100
6624,note_on,,,,,32,0,8,,,,,1,,,79,100
6624,note_on,,,,,32,0,11,,,,,4,,,45,100
6624,note_on,,,,,32,0,12,,,,,5,,,33,100
6624,note_on,,,,,32,0,9,,,,,2,,,73,100
6624,note_on,,,,,32,0,10,,,,,3,,,69,100
6624,note_on,,,,,32,0,14,,,,,6,,,45,100
6656,note_off,,,,,0,0,13,,,,,6,,,67,100
6656,note_off,,,,,128,0,13,,,,,6,,,64,100
6688,note_off,,,,,64,0,12,,,,,5,,,33,100
6688,note_off,,,,,64,0,10,,,,,3,,,69,100
6688,note_off,,,,,64,0,9,,,,,2,,,73,100
6688,note_off,,,,,64,0,11,,,,,4,,,45,100
6688,note_off,,,,,64,0,14,,,,,6,,,45,100
6688,note_off,,,,,64,0,8,,,,,1,,,79,100
6720,note_on,,,,,64,0,13,,,,,6,,,66,100
6720,note_on,,,,,32,0,10,,,,,3,,,69,100
6720,note_on,,,,,32,0,9,,,,,2,,,74,100
6720,note_on,,,,,32,0,11,,,,,4,,,50,100
6720,note_on,,,,,32,0,14,,,,,6,,,50,100
6720,note_on,,,,,32,0,8,,,,,1,,,78,100
6720,note_on,,,,,32,0,12,,,,,5,,,38,100
6720,note_on,,,,,0,0,13,,,,,6,,,69,100
6784,note_off,,,,,64,0,11,,,,,4,,,50,100
6784,note_off,,,,,64,0,14,,,,,6,,,50,100
6784,note_off,,,,,64,0,9,,,,,2,,,74,100
6784,note_off,,,,,64,0,8,,,,,1,,,78,100
6784,note_off,,,,,64,0,12,,,,,5,,,38,100
6784,note_off,,,,,64,0,10,,,,,3,,,69,100
6816,note_on,,,,,32,0,8,,,,,1,,,78,100
6816,note_on,,,,,32,0,12,,,,,5,,,38,100
6816,note_on,,,,,32,0,10,,,,,3,,,69,100
6816,note_on,,,,,32,0,9,,,,,2,,,74,100
6816,note_on,,,,,32,0,14,,,,,6,,,50,100
6816,note_on,,,,,32,0,11,,,,,4,,,50,100
6848,note_off,,,,,128,0,13,,,,,6,,,66,100
6848,note_off,,,,,0,0,13,,,,,6,,,69,100
6880,note_off,,,,,64,0,12,,,,,5,,,38,100
6880,note_off,,,,,64,0,8,,,,,1,,,78,100
6880,note_off,,,,,64,0,9,,,,,2,,,74,100
6880,note_off,,,,,64,0,10,,,,,3,,,69,100
6880,note_off,,,,,64,0,14,,,,,6,,,50,100
6880,note_off,,,,,64,0,11,,,,,4,,,50,100
6912,note_on,,,,,32,0,10,,,,,3,,,71,100
6912,note_on,,,,,32,0,12,,,,,5,,,43,100
6912,note_on,,,,,32,0,14,,,,,6,,,55,100
6912,note_on,,,,,32,0,8,,,,,1,,,76,100
6912,note_on,,,,,32,0,9,,,,,2,,,74,100
6912,note_on,,,,,64,0,13,,,,,6,,,76,100
6912,note_on,,,,,0,0,13,,,,,6,,,74,100
6912,note_on,,,,,32,0,11,,,,,4,,,55,100
6976,note_off,,,,,64,0,14,,,,,6,,,55,100
6976,note_off,,,,,64,0,8,,,,,1,,,76,100
6976,note_off,,,,,64,0,11,,,,,4,,,55,100
6976,note_off,,,,,64,0,12,,,,,5,,,43,100
6976,note_off,,,,,64,0,9,,,,,2,,,74,100
6976,note_off,,,,,64,0,10,,,,,3,,,71,100
7008,note_on,,,,,32,0,11,,,,,4,,,55,100
7008,note_on,,,,,32,0,12,,,,,5,,,43,100
7008,note_on,,,,,32,0,9,,,,,2,,,74,100
7008,note_on,,,,,32,0,14,,,,,6,,,55,100
7008,note_on,,,,,32,0,8,,,,,1,,,76,100
7008,note_on,,,,,32,0,10,,,,,3,,,71,100
7040,note_off,,,,,0,0,13,,,,,6,,,74,100
7040,note_off,,,,,128,0,13,,,,,6,,,76,100
7072,note_off,,,,,64,0,11,,,,,4,,,55,100
7072,note_off,,,,,64,0,8,,,,,1,,,76,100
7072,note_off,,,,,64,0,10,,,,,3,,,71,100
7072,note_off,,,,,64,0,14,,,,,6,,,55,100
7072,note_off,,,,,64,0,12,,,,,5,,,43,100
7072,note_off,,,,,64,0,9,,,,,2,,,74,100
7104,note_on,,,,,64,0,13,,,,,6,,,73,100
7104,note_on,,,,,32,0,14,,,,,6,,,57,100
7104,note_on,,,,,0,0,13,,,,,6,,,76,100
7104,note_on,,,,,32,0,11,,,,,4,,,57,100
7104,note_on,,,,,32,0,9,,,,,2,,,73,100
7104,note_on,,,,,32,0,8,,,,,1,,,76,100
7104,note_on,,,,,32,0,10,,,,,3,,,69,100
7104,note_on,,,,,32,0,12,,,,,5,,,45,100
7168,note_off,,,,,64,0,11,,,,,4,,,57,100
7168,note_off,,,,,64,0,8,,,,,1,,,76,100
7168,note_off,,,,,64,0,9,,,,,2,,,73,100
7168,note_off,,,,,64,0,12,,,,,5,,,45,100
7168,note_off,,,,,64,0,14,,,,,6,,,57,100
7168,note_off,,,,,64,0,10,,,,,3,,,69,100
7200,note_on,,,,,32,0,12,,,,,5,,,45,100
7200,note_on,,,,,32,0,14,,,,,6,,,57,100
7200,note_on,,,,,32,0,11,,,,,4,,,57,100
7200,note_on,,,,,32,0,8,,,,,1,,,76,100
7200,note_on,,,,,32,0,10,,,,,3,,,69,100
7200,note_on,,,,,32,0,9,,,,,2,,,73,100
7232,note_off,,,,,128,0,13,,,,,6,,,73,100
7232,note_off,,,,,0,0,13,,,,,6,,,76,100
7264,note_off,,,,,64,0,9,,,,,2,,,73,100
7264,note_off,,,,,64,0,8,,,,,1,,,76,100
7264,note_off,,,,,64,0,14,,,,,6,,,57,100
7264,note_off,,,,,64,0,10,,,,,3,,,69,100
7264,note_off,,,,,64,0,11,,,,,4,,,57,100
7264,note_off,,,,,64,0,12,,,,,5,,,45,100
7296,note_on,,,,,32,0,8,,,,,1,,,76,100
7296,note_on,,,,,32,0,14,,,,,6,,,45,100
7296,note_on,,,,,32,0,11,,,,,4,,,45,100
7296,note_on,,,,,32,0,12,,,,,5,,,33,100
7296,note_on,,,,,32,0,10,,,,,3,,,69,100
7296,note_on,,,,,0,0,13,,,,,6,,,73,100
7296,note_on,,,,,64,0,13,,,,,6,,,64,100
7296,note_on,,,,,32,0,9,,,,,2,,,73,100
7360,note_off,,,,,64,0,12,,,,,5,,,33,100
7360,note_off,,,,,64,0,14,,,,,6,,,45,100
7360,note_off,,,,,64,0,8,,,,,1,,,76,100
7360,note_off,,,,,64,0,11,,,,,4,,,45,100
7360,note_off,,,,,64,0,10,,,,,3,,,69,100
7360,note_off,,,,,64,0,9,,,,,2,,,73,100
7392,note_on,,,,,32,0,14,,,,,6,,,45,100
7392,note_on,,,,,32,0,12,,,,,5,,,33,100
7392,note_on,,,,,32,0,9,,,,,2,,,73,100
7392,note_on,,,,,32,0,10,,,,,3,,,69,100
7392,note_on,,,,,32,0,8,,,,,1,,,76,100
7392,note_on,,,,,32,0,11,,,,,4,,,45,100
7424,note_off,,,,,0,0,13,,,,,6,,,73,100
7424,note_off,,,,,128,0,13,,,,,6,,,64,100
7456,note_off,,,,,64,0,10,,,,,3,,,69,100
7456,note_off,,,,,64,0,9,,,,,2,,,73,100
7456,note_off,,,,,64,0,11,,,,,4,,,45,100
7456,note_off,,,,,64,0,14,,,,,6,,,45,100
7456,note_off,,,,,64,0,8,,,,,1,,,76,100
7456,note_off,,,,,64,0,12,,,,,5,,,33,100
7488,note_on,,,,,32,0,14,,,,,6,,,50,100
7488,note_on,,,,,0,0,13,,,,,6,,,66,100
7488,note_on,,,,,32,0,9,,,,,2,,,74,100
7488,note_on,,,,,7488,0,7,,,,,0,,,74,100
7488,note_on,,,,,64,0,13,,,,,6,,,69,100
7488,note_on,,,,,32,0,10,,,,,3,,,69,100
7488,note_on,,,,,32,0,11,,,,,4,,,50,100
7488,note_on,,,,,32,0,12,,,,,5,,,38,100
7488,note_on,,,,,32,0,8,,,,,1,,,74,100
7552,note_off,,,,,64,0,7,,,,,0,,,74,100
7584,note_on,,,,,32,0,7,,,,,0,,,69,100
7648,note_off,,,,,64,0,7,,,,,0,,,69,100
7680,note_on,,,,,32,0,7,,,,,0,,,69,100
7744,note_off,,,,,64,0,7,,,,,0,,,69,100
7744,note_off,,,,,256,0,8,,,,,1,,,74,100
7744,note_off,,,,,256,0,10,,,,,3,,,69,100
7744,note_off,,,,,256,0,14,,,,,6,,,50,100
7744,note_off,,,,,256,0,9,,,,,2,,,74,100
7744,note_off,,,,,0,0,13,,,,,6,,,66,100
7744,note_off,,,,,256,0,13,,,,,6,,,69,100
7744,note_off,,,,,256,0,12,,,,,5,,,38,100
7744,note_off,,,,,256,0,11,,,,,4,,,50,100
7776,note_on,,,,,32,0,7,,,,,0,,,69,100
7840,note_off,,,,,64,0,7,,,,,0,,,69,100
7872,note_on,,,,,32,0,7,,,,,0,,,69,100
7936,note_off,,,,,64,0,7,,,,,0,,,69,100
7968,note_on,,,,,32,0,7,,,,,0,,,69,100
8032,note_off,,,,,64,0,7,,,,,0,,,69,100
8064,note_on,,,,,32,0,7,,,,,0,,,74,100
8064,note_on,,,,,320,0,11,,,,,4,,,50,85
8064,note_on,,,,,320,0,12,,,,,5,,,38,85
8064,note_on,,,,,320,0,13,,,,,6,,,69,100
8064,note_on,,,,,320,0,14,,,,,6,,,50,100
8064,note_on,,,,,0,0,13,,,,,6,,,66,100
8128,note_off,,,,,64,0,7,,,,,0,,,74,100
8160,note_on,,,,,32,0,7,,,,,0,,,69,100
8224,note_off,,,,,64,0,7,,,,,0,,,69,100
8256,note_on,,,,,32,0,7,,,,,0,,,74,100
8320,note_off,,,,,64,0,7,,,,,0,,,74,100
8320,note_off,,,,,0,0,13,,,,,6,,,66,100
8320,note_off,,,,,256,0,13,,,,,6,,,69,100
8320,note_off,,,,,256,0,11,,,,,4,,,50,100
8320,note_off,,,,,256,0,12,,,,,5,,,38,100
8320,note_off,,,,,256,0,14,,,,,6,,,50,100
8352,note_on,,,,,32,0,7,,,,,0,,,76,100
8416,note_off,,,,,64,0,7,,,,,0,,,76,100
8448,note_on,,,,,32,0,7,,,,,0,,,78,100
8476,note_off,,,,,28,0,7,,,,,0,,,78,100
8480,note_on,,,,,4,0,7,,,,,0,,,79,100
8508,note_off,,,,,28,0,7,,,,,0,,,79,100
8512,note_on,,,,,4,0,7,,,,,0,,,78,100
8532,note_off,,,,,20,0,7,,,,,0,,,78,100
8544,note_on,,,,,12,0,7,,,,,0,,,76,100
8588,note_off,,,,,44,0,7,,,,,0,,,76,100
8592,note_on,,,,,4,0,7,,,,,0,,,74,100
8624,note_off,,,,,32,0,7,,,,,0,,,74,100
8640,note_on,,,,,320,0,11,,,,,4,,,49,85
8640,note_on,,,,,16,0,7,,,,,0,,,76,100
8640,note_on,,,,,320,0,13,,,,,6,,,69,100
8640,note_on,,,,,0,0,13,,,,,6,,,64,100
8640,note_on,,,,,320,0,12,,,,,5,,,37,85
8640,note_on,,,,,320,0,14,,,,,6,,,49,100
8704,note_off,,,,,64,0,7,,,,,0,,,76,100
8736,note_on,,,,,32,0,7,,,,,0,,,69,100
8800,note_off,,,,,64,0,7,,,,,0,,,69,100
8832,note_on,,,,,32,0,7,,,,,0,,,69,100
8896,note_off,,,,,256,0,13,,,,,6,,,69,100
8896,note_off,,,,,0,0,13,,,,,6,,,64,100
8896,note_off,,,,,64,0,7,,,,,0,,,69,100
8896,note_off,,,,,256,0,11,,,,,4,,,49,100
8896,note_off,,,,,256,0,12,,,,,5,,,37,100
8896,note_off,,,,,256,0,14,,,,,6,,,49,100
8928,note_on,,,,,32,0,7,,,,,0,,,69,100
8992,note_off,,,,,64,0,7,,,,,0,,,69,100
9024,note_on,,,,,32,0,7,,,,,0,,,69,100
9088,note_off,,,,,64,0,7,,,,,0,,,69,100
9120,note_on,,,,,32,0,7,,,,,0,,,69,100
9184,note_off,,,,,64,0,7,,,,,0,,,69,100
9216,note_on,,,,,320,0,14,,,,,6,,,45,100
9216,note_on,,,,,320,0,13,,,,,6,,,67,100
9216,note_on,,,,,32,0,7,,,,,0,,,76,100
9216,note_on,,,,,0,0,13,,,,,6,,,64,100
9216,note_on,,,,,320,0,11,,,,,4,,,45,85
9216,note_on,,,,,320,0,12,,,,,5,,,33,85
9280,note_off,,,,,64,0,7,,,,,0,,,76,100
9312,note_on,,,,,32,0,7,,,,,0,,,69,100
9376,note_off,,,,,64,0,7,,,,,0,,,69,100
9408,note_on,,,,,32,0,7,,,,,0,,,76,100
9472,note_off,,,,,0,0,13,,,,,6,,,64,100
9472,note_off,,,,,64,0,7,,,,,0,,,76,100
9472,note_off,,,,,256,0,11,,,,,4,,,45,100
9472,note_off,,,,,256,0,14,,,,,6,,,45,100
9472,note_off,,,,,256,0,12,,,,,5,,,33,100
9472,note_off,,,,,256,0,13,,,,,6,,,67,100
9504,note_on,,,,,32,0,7,,,,,0,,,78,100
9568,note_off,,,,,64,0,7,,,,,0,,,78,100
9600,note_on,,,,,32,0,7,,,,,0,,,79,100
9628,note_off,,,,,28,0,7,,,,,0,,,79,100
9632,note_on,,,,,4,0,7,,,,,0,,,81,100
9660,note_off,,,,,28,0,7,,,,,0,,,81,100
9664,note_on,,,,,4,0,7,,,,,0,,,79,100
9684,note_off,,,,,20,0,7,,,,,0,,,79,100
9696,note_on,,,,,12,0,7,,,,,0,,,78,100
9740,note_off,,,,,44,0,7,,,,,0,,,78,100
9744,note_on,,,,,4,0,7,,,,,0,,,76,100
9776,note_off,,,,,32,0,7,,,,,0,,,76,100
9792,note_on,,,,,16,0,7,,,,,0,,,78,100
9792,note_on,,,,,320,0,13,,,,,6,,,66,100
9792,note_on,,,,,0,0,13,,,,,6,,,69,100
9792,note_on,,,,,320,0,14,,,,,6,,,50,100
9792,note_on,,,,,320,0,12,,,,,5,,,38,85
9792,note_on,,,,,320,0,11,,,,,4,,,50,85
9824,note_off,,,,,32,0,7,,,,,0,,,78,100
9840,note_on,,,,,16,0,7,,,,,0,,,69,100
9872,note_off,,,,,32,0,7,,,,,0,,,69,100
9888,note_on,,,,,16,0,7,,,,,0,,,71,100
9920,note_off,,,,,32,0,7,,,,,0,,,71,100
9936,note_on,,,,,16,0,7,,,,,0,,,73,100
9968,note_off,,,,,32,0,7,,,,,0,,,73,100
9984,note_on,,,,,16,0,7,,,,,0,,,74,100
10016,note_off,,,,,32,0,7,,,,,0,,,74,100
10032,note_on,,,,,16,0,7,,,,,0,,,76,100
10048,note_off,,,,,256,0,13,,,,,6,,,66,100
10048,note_off,,,,,0,0,13,,,,,6,,,69,100
10048,note_off,,,,,256,0,11,,,,,4,,,50,100
10048,note_off,,,,,256,0,12,,,,,5,,,38,100
10048,note_off,,,,,256,0,14,,,,,6,,,50,100
10064,note_off,,,,,32,0,7,,,,,0,,,76,100
10080,note_on,,,,,16,0,7,,,,,0,,,78,100
10112,note_off,,,,,32,0,7,,,,,0,,,78,100
10128,note_on,,,,,16,0,7,,,,,0,,,79,100
10160,note_off,,,,,32,0,7,,,,,0,,,79,100
10176,note_on,,,,,16,0,7,,,,,0,,,81,100
10240,note_off,,,,,64,0,7,,,,,0,,,81,100
10272,note_on,,,,,32,0,7,,,,,0,,,78,100
10336,note_off,,,,,64,0,7,,,,,0,,,78,100
10368,note_on,,,,,32,0,7,,,,,0,,,76,100
10368,note_on,,,,,320,0,13,,,,,6,,,64,100
10368,note_on,,,,,0,0,13,,,,,6,,,73,100
10368,note_on,,,,,320,0,14,,,,,6,,,57,100
10368,note_on,,,,,320,0,12,,,,,5,,,45,85
10368,note_on,,,,,320,0,11,,,,,4,,,57,85
10432,note_off,,,,,64,0,7,,,,,0,,,76,100
10464,note_on,,,,,32,0,7,,,,,0,,,81,100
10508,note_off,,,,,44,0,7,,,,,0,,,81,100
10512,note_on,,,,,4,0,7,,,,,0,,,80,100
10544,note_off,,,,,32,0,7,,,,,0,,,80,100
10560,note_on,,,,,16,0,7,,,,,0,,,81,100
10624,note_off,,,,,256,0,11,,,,,4,,,57,100
10624,note_off,,,,,256,0,14,,,,,6,,,57,100
10624,note_off,,,,,256,0,12,,,,,5,,,45,100
10624,note_off,,,,,0,0,13,,,,,6,,,73,100
10624,note_off,,,,,256,0,13,,,,,6,,,64,100
10624,note_off,,,,,64,0,7,,,,,0,,,81,100
10656,note_on,,,,,32,0,7,,,,,0,,,76,100
10720,note_off,,,,,64,0,7,,,,,0,,,76,100
10752,note_on,,,,,128,0,14,,,,,6,,,56,100
10752,note_on,,,,,32,0,7,,,,,0,,,76,100
10752,note_on,,,,,128,0,11,,,,,4,,,56,85
10752,note_on,,,,,128,0,13,,,,,6,,,74,100
10752,note_on,,,,,128,0,12,,,,,5,,,44,85
10752,note_on,,,,,0,0,13,,,,,6,,,66,100
10816,note_off,,,,,64,0,7,,,,,0,,,76,100
10848,note_on,,,,,32,0,7,,,,,0,,,78,100
10880,note_off,,,,,128,0,13,,,,,6,,,74,100
10880,note_off,,,,,128,0,14,,,,,6,,,56,100
10880,note_off,,,,,128,0,12,,,,,5,,,44,100
10880,note_off,,,,,0,0,13,,,,,6,,,66,100
10880,note_off,,,,,128,0,11,,,,,4,,,56,100
10912,note_off,,,,,64,0,7,,,,,0,,,78,100
10944,note_on,,,,,64,0,12,,,,,5,,,45,85
10944,note_on,,,,,32,0,7,,,,,0,,,76,100
10944,note_on,,,,,64,0,13,,,,,6,,,64,100
10944,note_on,,,,,64,0,14,,,,,6,,,57,100
10944,note_on,,,,,64,0,11,,,,,4,,,57,85
10944,note_on,,,,,0,0,13,,,,,6,,,73,100
11008,note_off,,,,,64,0,7,,,,,0,,,76,100
11040,note_on,,,,,32,0,7,,,,,0,,,81,100
11084,note_off,,,,,44,0,7,,,,,0,,,81,100
11088,note_on,,,,,4,0,7,,,,,0,,,80,100
11120,note_off,,,,,32,0,7,,,,,0,,,80,100
11136,note_on,,,,,16,0,7,,,,,0,,,81,100
11200,note_off,,,,,256,0,11,,,,,4,,,57,100
11200,note_off,,,,,64,0,7,,,,,0,,,81,100
11200,note_off,,,,,256,0,14,,,,,6,,,57,100
11200,note_off,,,,,0,0,13,,,,,6,,,73,100
11200,note_off,,,,,256,0,13,,,,,6,,,64,100
11200,note_off,,,,,256,0,12,,,,,5,,,45,100
11232,note_on,,,,,32,0,7,,,,,0,,,76,100
11296,note_off,,,,,64,0,7,,,,,0,,,76,100
11328,note_on,,,,,128,0,11,,,,,4,,,56,85
11328,note_on,,,,,128,0,14,,,,,6,,,56,100
11328,note_on,,,,,128,0,12,,,,,5,,,44,85
11328,note_on,,,,,0,0,13,,,,,6,,,66,100
11328,note_on,,,,,128,0,13,,,,,6,,,74,100
11328,note_on,,,,,32,0,7,,,,,0,,,76,100
11392,note_off,,,,,64,0,7,,,,,0,,,76,100
11424,note_on,,,,,32,0,7,,,,,0,,,78,100
11456,note_off,,,,,128,0,12,,,,,5,,,44,100
11456,note_off,,,,,128,0,11,,,,,4,,,56,100
11456,note_off,,,,,128,0,14,,,,,6,,,56,100
11456,note_off,,,,,128,0,13,,,,,6,,,74,100
11456,note_off,,,,,0,0,13,,,,,6,,,66,100
11488,note_off,,,,,64,0,7,,,,,0,,,78,100
11520,note_on,,,,,32,0,7,,,,,0,,,76,100
11520,note_on,,,,,64,0,11,,,,,4,,,57,85
11520,note_on,,,,,64,0,14,,,,,6,,,57,100
11520,note_on,,,,,64,0,12,,,,,5,,,45,85
11520,note_on,,,,,0,0,13,,,,,6,,,73,100
11520,note_on,,,,,64,0,13,,,,,6,,,64,100
11712,note_off,,,,,192,0,7,,,,,0,,,76,100
11776,note_off,,,,,256,0,14,,,,,6,,,57,100
11776,note_off,,,,,256,0,12,,,,,5,,,45,100
11776,note_off,,,,,256,0,13,,,,,6,,,64,100
11776,note_off,,,,,0,0,13,,,,,6,,,73,100
11776,note_off,,,,,256,0,11,,,,,4,,,57,100
11808,note_on,,,,,96,0,7,,,,,0,,,74,100
11872,note_off,,,,,64,0,7,,,,,0,,,74,100
11904,note_on,,,,,128,0,11,,,,,4,,,45,85
11904,note_on,,,,,128,0,12,,,,,5,,,33,85
11904,note_on,,,,,128,0,13,,,,,6,,,61,100
11904,note_on,,,,,0,0,13,,,,,6,,,64,100
11904,note_on,,,,,128,0,14,,,,,6,,,45,100
11904,note_on,,,,,32,0,7,,,,,0,,,73,100
11968,note_off,,,,,64,0,7,,,,,0,,,73,100
12000,note_on,,,,,32,0,7,,,,,0,,,71,100
12032,note_off,,,,,128,0,14,,,,,6,,,45,100
12032,note_off,,,,,128,0,13,,,,,6,,,61,100
12032,note_off,,,,,128,0,12,,,,,5,,,33,100
12032,note_off,,,,,0,0,13,,,,,6,,,64,100
12032,note_off,,,,,128,0,11,,,,,4,,,45,100
12064,note_off,,,,,64,0,7,,,,,0,,,71,100
12096,note_on,,,,,64,0,12,,,,,5,,,38,85
12096,note_on,,,,,32,0,7,,,,,0,,,73,100
12096,note_on,,,,,64,0,11,,,,,4,,,50,85
12096,note_on,,,,,64,0,13,,,,,6,,,69,100
12096,note_on,,,,,64,0,14,,,,,6,,,50,100
12096,note_on,,,,,0,0,13,,,,,6,,,73,100
12160,note_off,,,,,64,0,7,,,,,0,,,73,100
12192,note_on,,,,,32,0,7,,,,,0,,,74,100
12224,note_off,,,,,128,0,13,,,,,6,,,69,100
12224,note_off,,,,,128,0,11,,,,,4,,,50,100
12224,note_off,,,,,128,0,14,,,,,6,,,50,100
12224,note_off,,,,,128,0,12,,,,,5,,,38,100
12224,note_off,,,,,0,0,13,,,,,6,,,73,100
12256,note_off,,,,,64,0,7,,,,,0,,,74,100
12288,note_on,,,,,64,0,11,,,,,4,,,52,85
12288,note_on,,,,,64,0,13,,,,,6,,,68,100
12288,note_on,,,,,32,0,7,,,,,0,,,71,100
12288,note_on,,,,,0,0,7,,,,,0,,,64,100
12288,note_on,,,,,64,0,12,,,,,5,,,40,85
12288,note_on,,,,,64,0,14,,,,,6,,,52,100
12288,note_on,,,,,0,0,13,,,,,6,,,71,100
12332,note_off,,,,,44,0,7,,,,,0,,,71,100
12336,note_on,,,,,4,0,7,,,,,0,,,73,100
12380,note_off,,,,,44,0,7,,,,,0,,,73,100
12384,note_on,,,,,4,0,7,,,,,0,,,71,100
12416,note_off,,,,,128,0,12,,,,,5,,,40,100
12416,note_off,,,,,0,0,13,,,,,6,,,71,100
12416,note_off,,,,,128,0,13,,,,,6,,,68,100
12416,note_off,,,,,128,0,14,,,,,6,,,52,100
12416,note_off,,,,,128,0,11,,,,,4,,,52,100
12428,note_off,,,,,44,0,7,,,,,0,,,71,100
12432,note_on,,,,,4,0,7,,,,,0,,,73,100
12476,note_off,,,,,44,0,7,,,,,0,,,73,100
12480,note_on,,,,,0,0,13,,,,,6,,,68,100
12480,note_on,,,,,4,0,7,,,,,0,,,71,100
12480,note_on,,,,,64,0,11,,,,,4,,,40,85
12480,note_on,,,,,64,0,14,,,,,6,,,40,100
12480,note_on,,,,,64,0,12,,,,,5,,,28,85
12480,note_on,,,,,64,0,13,,,,,6,,,59,100
12544,note_off,,,,,64,0,7,,,,,0,,,64,100
12544,note_off,,,,,0,0,7,,,,,0,,,71,100
12576,note_on,,,,,32,0,7,,,,,0,,,69,100
12608,note_off,,,,,128,0,11,,,,,4,,,40,100
12608,note_off,,,,,0,0,13,,,,,6,,,68,100
12608,note_off,,,,,128,0,13,,,,,6,,,59,100
12608,note_off,,,,,128,0,12,,,,,5,,,28,100
12608,note_off,,,,,128,0,14,,,,,6,,,40,100
12640,note_off,,,,,64,0,7,,,,,0,,,69,100
12672,note_on,,,,,4928,0,9,,,,,2,,,76,100
12672,note_on,,,,,64,0,12,,,,,5,,,33,100
12672,note_on,,,,,64,0,13,,,,,6,,,69,100
12672,note_on,,,,,4928,0,10,,,,,3,,,73,100
12672,note_on,,,,,64,0,14,,,,,6,,,45,100
12672,note_on,,,,,64,0,11,,,,,4,,,45,100
12672,note_on,,,,,32,0,7,,,,,0,,,69,100
12672,note_on,,,,,4928,0,8,,,,,1,,,76,100
12672,note_on,,,,,0,0,13,,,,,6,,,61,100
12672,note_on,,,,,0,0,13,,,,,6,,,64,100
12736,note_off,,,,,64,0,12,,,,,5,,,33,100
12736,note_off,,,,,64,0,9,,,,,2,,,76,100
12736,note_off,,,,,64,0,11,,,,,4,,,45,100
12736,note_off,,,,,64,0,8,,,,,1,,,76,100
12736,note_off,,,,,64,0,14,,,,,6,,,45,100
12736,note_off,,,,,64,0,10,,,,,3,,,73,100
12768,note_on,,,,,32,0,11,,,,,4,,,45,100
12768,note_on,,,,,32,0,14,,,,,6,,,45,100
12768,note_on,,,,,32,0,12,,,,,5,,,33,100
12768,note_on,,,,,32,0,9,,,,,2,,,76,100
12768,note_on,,,,,32,0,10,,,,,3,,,73,100
12768,note_on,,,,,32,0,8,,,,,1,,,76,100
12800,note_off,,,,,0,0,13,,,,,6,,,61,100
12800,note_off,,,,,128,0,7,,,,,0,,,69,100
12800,note_off,,,,,128,0,13,,,,,6,,,69,100
12800,note_off,,,,,0,0,13,,,,,6,,,64,100
12832,note_off,,,,,64,0,10,,,,,3,,,73,100
12832,note_off,,,,,64,0,8,,,,,1,,,76,100
12832,note_off,,,,,64,0,9,,,,,2,,,76,100
12832,note_off,,,,,64,0,11,,,,,4,,,45,100
12832,note_off,,,,,64,0,14,,,,,6,,,45,100
12832,note_off,,,,,64,0,12,,,,,5,,,33,100
12864,note_on,,,,,32,0,14,,,,,6,,,45,100
12864,note_on,,,,,64,0,13,,,,,6,,,64,100
12864,note_on,,,,,32,0,8,,,,,1,,,76,100
12864,note_on,,,,,32,0,11,,,,,4,,,45,100
12864,note_on,,,,,32,0,9,,,,,2,,,76,100
12864,note_on,,,,,32,0,12,,,,,5,,,33,100
12864,note_on,,,,,0,0,13,,,,,6,,,61,100
12864,note_on,,,,,32,0,10,,,,,3,,,73,100
12928,note_off,,,,,64,0,11,,,,,4,,,45,100
12928,note_off,,,,,64,0,14,,,,,6,,,45,100
12928,note_off,,,,,64,0,8,,,,,1,,,76,100
12928,note_off,,,,,64,0,12,,,,,5,,,33,100
12928,note_off,,,,,64,0,9,,,,,2,,,76,100
12928,note_off,,,,,64,0,10,,,,,3,,,73,100
12960,note_on,,,,,32,0,11,,,,,4,,,45,100
12960,note_on,,,,,32,0,9,,,,,2,,,76,100
12960,note_on,,,,,32,0,14,,,,,6,,,45,100
12960,note_on,,,,,32,0,8,,,,,1,,,76,100
12960,note_on,,,,,32,0,10,,,,,3,,,73,100
12960,note_on,,,,,32,0,12,,,,,5,,,33,100
12992,note_off,,,,,0,0,13,,,,,6,,,61,100
12992,note_off,,,,,128,0,13,,,,,6,,,64,100
13024,note_off,,,,,64,0,11,,,,,4,,,45,100
13024,note_off,,,,,64,0,10,,,,,3,,,73,100
13024,note_off,,,,,64,0,14,,,,,6,,,45,100
13024,note_off,,,,,64,0,8,,,,,1,,,76,100
13024,note_off,,,,,64,0,9,,,,,2,,,76,100
13024,note_off,,,,,64,0,12,,,,,5,,,33,100
13056,note_on,,,,,32,0,10,,,,,3,,,73,100
13056,note_on,,,,,32,0,8,,,,,1,,,76,100
13056,note_on,,,,,32,0,9,,,,,2,,,76,100
13056,note_on,,,,,32,0,12,,,,,5,,,33,100
13056,note_on,,,,,0,0,13,,,,,6,,,61,100
13056,note_on,,,,,64,0,13,,,,,6,,,64,100
13056,note_on,,,,,32,0,11,,,,,4,,,45,100
13056,note_on,,,,,32,0,14,,,,,6,,,45,100
13120,note_off,,,,,64,0,12,,,,,5,,,33,100
13120,note_off,,,,,64,0,11,,,,,4,,,45,100
13120,note_off,,,,,64,0,9,,,,,2,,,76,100
13120,note_off,,,,,64,0,14,,,,,6,,,45,100
13120,note_off,,,,,64,0,8,,,,,1,,,76,100
13120,note_off,,,,,64,0,10,,,,,3,,,73,100
13152,note_on,,,,,32,0,12,,,,,5,,,33,100
13152,note_on,,,,,32,0,8,,,,,1,,,76,100
13152,note_on,,,,,32,0,11,,,,,4,,,45,100
13152,note_on,,,,,32,0,9,,,,,2,,,76,100
13152,note_on,,,,,32,0,14,,,,,6,,,45,100
13152,note_on,,,,,32,0,10,,,,,3,,,73,100
13184,note_off,,,,,0,0,13,,,,,6,,,61,100
13184,note_off,,,,,128,0,13,,,,,6,,,64,100
13216,note_off,,,,,64,0,12,,,,,5,,,33,100
13216,note_off,,,,,64,0,8,,,,,1,,,76,100
13216,note_off,,,,,64,0,11,,,,,4,,,45,100
13216,note_off,,,,,64,0,9,,,,,2,,,76,100
13216,note_off,,,,,64,0,14,,,,,6,,,45,100
13216,note_off,,,,,64,0,10,,,,,3,,,73,100
13248,note_on,,,,,32,0,12,,,,,5,,,38,100
13248,note_on,,,,,32,0,11,,,,,4,,,50,100
13248,note_on,,,,,32,0,9,,,,,2,,,76,100
13248,note_on,,,,,32,0,14,,,,,6,,,50,100
13248,note_on,,,,,64,0,13,,,,,6,,,76,100
13248,note_on,,,,,0,0,13,,,,,6,,,66,100
13248,note_on,,,,,32,0,8,,,,,1,,,78,100
13248,note_on,,,,,32,0,10,,,,,3,,,69,100
13312,note_off,,,,,64,0,10,,,,,3,,,69,100
13312,note_off,,,,,64,0,12,,,,,5,,,38,100
13312,note_off,,,,,64,0,11,,,,,4,,,50,100
13312,note_off,,,,,64,0,8,,,,,1,,,78,100
13312,note_off,,,,,64,0,9,,,,,2,,,76,100
13312,note_off,,,,,64,0,14,,,,,6,,,50,100
13344,note_on,,,,,32,0,11,,,,,4,,,50,100
13344,note_on,,,,,32,0,8,,,,,1,,,78,100
13344,note_on,,,,,32,0,14,,,,,6,,,50,100
13344,note_on,,,,,32,0,12,,,,,5,,,38,100
13344,note_on,,,,,32,0,10,,,,,3,,,69,100
13344,note_on,,,,,32,0,9,,,,,2,,,76,100
13376,note_off,,,,,0,0,13,,,,,6,,,66,100
13376,note_off,,,,,128,0,13,,,,,6,,,76,100
13408,note_off,,,,,64,0,8,,,,,1,,,78,100
13408,note_off,,,,,64,0,9,,,,,2,,,76,100
13408,note_off,,,,,64,0,12,,,,,5,,,38,100
13408,note_off,,,,,64,0,14,,,,,6,,,50,100
13408,note_off,,,,,64,0,10,,,,,3,,,69,100
13408,note_off,,,,,64,0,11,,,,,4,,,50,100
13440,note_on,,,,,32,0,10,,,,,3,,,69,100
13440,note_on,,,,,64,0,13,,,,,6,,,76,100
13440,note_on,,,,,0,0,13,,,,,6,,,66,100
13440,note_on,,,,,32,0,8,,,,,1,,,78,100
13440,note_on,,,,,32,0,9,,,,,2,,,76,100
13440,note_on,,,,,32,0,14,,,,,6,,,50,100
13440,note_on,,,,,32,0,11,,,,,4,,,50,100
13440,note_on,,,,,32,0,12,,,,,5,,,38,100
13504,note_off,,,,,64,0,10,,,,,3,,,69,100
13504,note_off,,,,,64,0,8,,,,,1,,,78,100
13504,note_off,,,,,64,0,12,,,,,5,,,38,100
13504,note_off,,,,,64,0,9,,,,,2,,,76,100
13504,note_off,,,,,64,0,14,,,,,6,,,50,100
13504,note_off,,,,,64,0,11,,,,,4,,,50,100
13536,note_on,,,,,32,0,10,,,,,3,,,69,100
13536,note_on,,,,,32,0,8,,,,,1,,,78,100
13536,note_on,,,,,32,0,14,,,,,6,,,50,100
13536,note_on,,,,,32,0,9,,,,,2,,,76,100
13536,note_on,,,,,32,0,12,,,,,5,,,38,100
13536,note_on,,,,,32,0,11,,,,,4,,,50,100
13568,note_off,,,,,0,0,13,,,,,6,,,66,100
13568,note_off,,,,,128,0,13,,,,,6,,,76,100
13600,note_off,,,,,64,0,12,,,,,5,,,38,100
13600,note_off,,,,,64,0,11,,,,,4,,,50,100
13600,note_off,,,,,64,0,8,,,,,1,,,78,100
13600,note_off,,,,,64,0,9,,,,,2,,,76,100
13600,note_off,,,,,64,0,10,,,,,3,,,69,100
13600,note_off,,,,,64,0,14,,,,,6,,,50,100
13632,note_on,,,,,32,0,14,,,,,6,,,50,100
13632,note_on,,,,,32,0,11,,,,,4,,,50,100
13632,note_on,,,,,32,0,8,,,,,1,,,78,100
13632,note_on,,,,,32,0,9,,,,,2,,,76,100
13632,note_on,,,,,64,0,13,,,,,6,,,76,100
13632,note_on,,,,,32,0,10,,,,,3,,,69,100
13632,note_on,,,,,32,0,12,,,,,5,,,38,100
13632,note_on,,,,,0,0,13,,,,,6,,,66,100
13696,note_off,,,,,64,0,14,,,,,6,,,50,100
13696,note_off,,,,,64,0,10,,,,,3,,,69,100
13696,note_off,,,,,64,0,8,,,,,1,,,78,100
13696,note_off,,,,,64,0,11,,,,,4,,,50,100
13696,note_off,,,,,64,0,12,,,,,5,,,38,100
13696,note_off,,,,,64,0,9,,,,,2,,,76,100
13728,note_on,,,,,32,0,14,,,,,6,,,50,100
13728,note_on,,,,,32,0,12,,,,,5,,,38,100
13728,note_on,,,,,32,0,8,,,,,1,,,78,100
13728,note_on,,,,,32,0,9,,,,,2,,,76,100
13728,note_on,,,,,32,0,11,,,,,4,,,50,100
13728,note_on,,,,,32,0,10,,,,,3,,,69,100
13760,note_off,,,,,0,0,13,,,,,6,,,66,100
13760,note_off,,,,,128,0,13,,,,,6,,,76,100
13792,note_off,,,,,64,0,14,,,,,6,,,50,100
13792,note_off,,,,,64,0,10,,,,,3,,,69,100
13792,note_off,,,,,64,0,8,,,,,1,,,78,100
13792,note_off,,,,,64,0,11,,,,,4,,,50,100
13792,note_off,,,,,64,0,12,,,,,5,,,38,100
13792,note_off,,,,,64,0,9,,,,,2,,,76,100
13824,note_on,,,,,64,0,13,,,,,6,,,74,100
13824,note_on,,,,,0,0,13,,,,,6,,,66,100
13824,note_on,,,,,32,0,11,,,,,4,,,50,100
13824,note_on,,,,,32,0,8,,,,,1,,,78,100
13824,note_on,,,,,32,0,10,,,,,3,,,69,100
13824,note_on,,,,,32,0,9,,,,,2,,,74,100
13824,note_on,,,,,32,0,14,,,,,6,,,50,100
13824,note_on,,,,,32,0,12,,,,,5,,,38,100
13888,note_off,,,,,64,0,10,,,,,3,,,69,100
13888,note_off,,,,,64,0,14,,,,,6,,,50,100
13888,note_off,,,,,64,0,11,,,,,4,,,50,100
13888,note_off,,,,,64,0,8,,,,,1,,,78,100
13888,note_off,,,,,64,0,9,,,,,2,,,74,100
13888,note_off,,,,,64,0,12,,,,,5,,,38,100
13920,note_on,,,,,32,0,10,,,,,3,,,69,100
13920,note_on,,,,,32,0,8,,,,,1,,,78,100
13920,note_on,,,,,32,0,14,,,,,6,,,50,100
13920,note_on,,,,,32,0,9,,,,,2,,,74,100
13920,note_on,,,,,32,0,12,,,,,5,,,38,100
13920,note_on,,,,,32,0,11,,,,,4,,,50,100
13952,note_off,,,,,128,0,13,,,,,6,,,74,100
13952,note_off,,,,,0,0,13,,,,,6,,,66,100
13984,note_off,,,,,64,0,11,,,,,4,,,50,100
13984,note_off,,,,,64,0,14,,,,,6,,,50,100
13984,note_off,,,,,64,0,10,,,,,3,,,69,100
13984,note_off,,,,,64,0,12,,,,,5,,,38,100
13984,note_off,,,,,64,0,9,,,,,2,,,74,100
13984,note_off,,,,,64,0,8,,,,,1,,,78,100
14016,note_on,,,,,32,0,11,,,,,4,,,50,100
14016,note_on,,,,,32,0,14,,,,,6,,,50,100
14016,note_on,,,,,32,0,9,,,,,2,,,74,100
14016,note_on,,,,,32,0,12,,,,,5,,,38,100
14016,note_on,,,,,0,0,13,,,,,6,,,66,100
14016,note_on,,,,,64,0,13,,,,,6,,,74,100
14016,note_on,,,,,32,0,8,,,,,1,,,78,100
14016,note_on,,,,,32,0,10,,,,,3,,,69,100
14080,note_off,,,,,64,0,11,,,,,4,,,50,100
14080,note_off,,,,,64,0,8,,,,,1,,,78,100
14080,note_off,,,,,64,0,10,,,,,3,,,69,100
14080,note_off,,,,,64,0,12,,,,,5,,,38,100
14080,note_off,,,,,64,0,14,,,,,6,,,50,100
14080,note_off,,,,,64,0,9,,,,,2,,,74,100
14112,note_on,,,,,32,0,10,,,,,3,,,69,100
14112,note_on,,,,,32,0,8,,,,,1,,,78,100
14112,note_on,,,,,32,0,12,,,,,5,,,38,100
14112,note_on,,,,,32,0,11,,,,,4,,,50,100
14112,note_on,,,,,32,0,14,,,,,6,,,50,100
14112,note_on,,,,,32,0,9,,,,,2,,,74,100
14144,note_off,,,,,0,0,13,,,,,6,,,66,100
14144,note_off,,,,,128,0,13,,,,,6,,,74,100
14176,note_off,,,,,64,0,8,,,,,1,,,78,100
14176,note_off,,,,,64,0,12,,,,,5,,,38,100
14176,note_off,,,,,64,0,14,,,,,6,,,50,100
14176,note_off,,,,,64,0,9,,,,,2,,,74,100
14176,note_off,,,,,64,0,11,,,,,4,,,50,100
14176,note_off,,,,,64,0,10,,,,,3,,,69,100
14208,note_on,,,,,32,0,9,,,,,2,,,74,100
14208,note_on,,,,,32,0,14,,,,,6,,,50,100
14208,note_on,,,,,64,0,13,,,,,6,,,74,100
14208,note_on,,,,,0,0,13,,,,,6,,,66,100
14208,note_on,,,,,32,0,10,,,,,3,,,66,100
14208,note_on,,,,,32,0,11,,,,,4,,,50,100
14208,note_on,,,,,32,0,12,,,,,5,,,38,100
14208,note_on,,,,,32,0,8,,,,,1,,,78,100
14272,note_off,,,,,64,0,10,,,,,3,,,66,100
14272,note_off,,,,,64,0,12,,,,,5,,,38,100
14272,note_off,,,,,64,0,9,,,,,2,,,74,100
14272,note_off,,,,,64,0,11,,,,,4,,,50,100
14272,note_off,,,,,64,0,14,,,,,6,,,50,100
14272,note_off,,,,,64,0,8,,,,,1,,,78,100
14304,note_on,,,,,32,0,11,,,,,4,,,50,100
14304,note_on,,,,,32,0,14,,,,,6,,,50,100
14304,note_on,,,,,32,0,9,,,,,2,,,74,100
14304,note_on,,,,,32,0,8,,,,,1,,,78,100
14304,note_on,,,,,32,0,10,,,,,3,,,66,100
14304,note_on,,,,,32,0,12,,,,,5,,,38,100
14336,note_off,,,,,128,0,13,,,,,6,,,74,100
14336,note_off,,,,,0,0,13,,,,,6,,,66,100
14368,note_off,,,,,64,0,8,,,,,1,,,78,100
14368,note_off,,,,,64,0,12,,,,,5,,,38,100
14368,note_off,,,,,64,0,9,,,,,2,,,74,100
14368,note_off,,,,,64,0,11,,,,,4,,,50,100
14368,note_off,,,,,64,0,14,,,,,6,,,50,100
14368,note_off,,,,,64,0,10,,,,,3,,,66,100
14400,note_on,,,,,64,0,13,,,,,6,,,68,100
14400,note_on,,,,,0,0,13,,,,,6,,,74,100
14400,note_on,,,,,32,0,14,,,,,6,,,52,100
14400,note_on,,,,,32,0,9,,,,,2,,,74,100
14400,note_on,,,,,32,0,8,,,,,1,,,80,100
14400,note_on,,,,,32,0,12,,,,,5,,,40,100
14400,note_on,,,,,32,0,11,,,,,4,,,52,100
14400,note_on,,,,,32,0,10,,,,,3,,,59,100
14464,note_off,,,,,64,0,8,,,,,1,,,80,100
14464,note_off,,,,,64,0,14,,,,,6,,,52,100
14464,note_off,,,,,64,0,11,,,,,4,,,52,100
14464,note_off,,,,,64,0,9,,,,,2,,,74,100
14464,note_off,,,,,64,0,10,,,,,3,,,59,100
14464,note_off,,,,,64,0,12,,,,,5,,,40,100
14496,note_on,,,,,32,0,8,,,,,1,,,80,100
14496,note_on,,,,,32,0,10,,,,,3,,,59,100
14496,note_on,,,,,32,0,11,,,,,4,,,52,100
14496,note_on,,,,,32,0,9,,,,,2,,,74,100
14496,note_on,,,,,32,0,14,,,,,6,,,52,100
14496,note_on,,,,,32,0,12,,,,,5,,,40,100
14528,note_off,,,,,128,0,13,,,,,6,,,68,100
14528,note_off,,,,,0,0,13,,,,,6,,,74,100
14560,note_off,,,,,64,0,9,,,,,2,,,74,100
14560,note_off,,,,,64,0,11,,,,,4,,,52,100
14560,note_off,,,,,64,0,10,,,,,3,,,59,100
14560,note_off,,,,,64,0,8,,,,,1,,,80,100
14560,note_off,,,,,64,0,12,,,,,5,,,40,100
14560,note_off,,,,,64,0,14,,,,,6,,,52,100
14592,note_on,,,,,32,0,11,,,,,4,,,52,100
14592,note_on,,,,,0,0,13,,,,,6,,,74,100
14592,note_on,,,,,32,0,14,,,,,6,,,52,100
14592,note_on,,,,,32,0,8,,,,,1,,,80,100
14592,note_on,,,,,32,0,10,,,,,3,,,64,100
14592,note_on,,,,,32,0,9,,,,,2,,,74,100
14592,note_on,,,,,64,0,13,,,,,6,,,68,100
14592,note_on,,,,,32,0,12,,,,,5,,,40,100
14656,note_off,,,,,64,0,8,,,,,1,,,80,100
14656,note_off,,,,,64,0,9,,,,,2,,,74,100
14656,note_off,,,,,64,0,11,,,,,4,,,52,100
14656,note_off,,,,,64,0,12,,,,,5,,,40,100
14656,note_off,,,,,64,0,14,,,,,6,,,52,100
14656,note_off,,,,,64,0,10,,,,,3,,,64,100
14688,note_on,,,,,32,0,12,,,,,5,,,40,100
14688,note_on,,,,,32,0,14,,,,,6,,,52,100
14688,note_on,,,,,32,0,9,,,,,2,,,74,100
14688,note_on,,,,,32,0,8,,,,,1,,,80,100
14688,note_on,,,,,32,0,10,,,,,3,,,64,100
14688,note_on,,,,,32,0,11,,,,,4,,,52,100
14720,note_off,,,,,0,0,13,,,,,6,,,74,100
14720,note_off,,,,,128,0,13,,,,,6,,,68,100
14752,note_off,,,,,64,0,10,,,,,3,,,64,100
14752,note_off,,,,,64,0,11,,,,,4,,,52,100
14752,note_off,,,,,64,0,14,,,,,6,,,52,100
14752,note_off,,,,,64,0,8,,,,,1,,,80,100
14752,note_off,,,,,64,0,9,,,,,2,,,74,100
14752,note_off,,,,,64,0,12,,,,,5,,,40,100
14784,note_on,,,,,32,0,10,,,,,3,,,64,100
14784,note_on,,,,,32,0,9,,,,,2,,,73,100
14784,note_on,,,,,64,0,13,,,,,6,,,64,100
14784,note_on,,,,,0,0,13,,,,,6,,,73,100
14784,note_on,,,,,32,0,11,,,,,4,,,45,100
14784,note_on,,,,,32,0,8,,,,,1,,,81,100
14784,note_on,,,,,32,0,14,,,,,6,,,45,100
14784,note_on,,,,,32,0,12,,,,,5,,,33,100
14848,note_off,,,,,64,0,12,,,,,5,,,33,100
14848,note_off,,,,,64,0,14,,,,,6,,,45,100
14848,note_off,,,,,64,0,11,,,,,4,,,45,100
14848,note_off,,,,,64,0,8,,,,,1,,,81,100
14848,note_off,,,,,64,0,9,,,,,2,,,73,100
14848,note_off,,,,,64,0,10,,,,,3,,,64,100
14880,note_on,,,,,32,0,11,,,,,4,,,45,100
14880,note_on,,,,,32,0,8,,,,,1,,,81,100
14880,note_on,,,,,32,0,12,,,,,5,,,33,100
14880,note_on,,,,,32,0,9,,,,,2,,,73,100
14880,note_on,,,,,32,0,10,,,,,3,,,64,100
14880,note_on,,,,,32,0,14,,,,,6,,,45,100
14912,note_off,,,,,128,0,13,,,,,6,,,64,100
14912,note_off,,,,,0,0,13,,,,,6,,,73,100
14944,note_off,,,,,64,0,12,,,,,5,,,33,100
14944,note_off,,,,,64,0,9,,,,,2,,,73,100
14944,note_off,,,,,64,0,11,,,,,4,,,45,100
14944,note_off,,,,,64,0,10,,,,,3,,,64,100
14944,note_off,,,,,64,0,14,,,,,6,,,45,100
14944,note_off,,,,,64,0,8,,,,,1,,,81,100
14976,note_on,,,,,32,0,10,,,,,3,,,66,100
14976,note_on,,,,,32,0,12,,,,,5,,,38,100
14976,note_on,,,,,64,0,13,,,,,6,,,71,100
14976,note_on,,,,,32,0,9,,,,,2,,,71,100
14976,note_on,,,,,32,0,14,,,,,6,,,50,100
14976,note_on,,,,,32,0,11,,,,,4,,,50,100
14976,note_on,,,,,0,0,13,,,,,6,,,69,100
14976,note_on,,,,,32,0,8,,,,,1,,,81,100
15040,note_off,,,,,64,0,8,,,,,1,,,81,100
15040,note_off,,,,,64,0,14,,,,,6,,,50,100
15040,note_off,,,,,64,0,10,,,,,3,,,66,100
15040,note_off,,,,,64,0,12,,,,,5,,,38,100
15040,note_off,,,,,64,0,9,,,,,2,,,71,100
15040,note_off,,,,,64,0,11,,,,,4,,,50,100
15072,note_on,,,,,32,0,10,,,,,3,,,66,100
15072,note_on,,,,,32,0,14,,,,,6,,,50,100
15072,note_on,,,,,32,0,8,,,,,1,,,81,100
15072,note_on,,,,,32,0,11,,,,,4,,,50,100
15072,note_on,,,,,32,0,9,,,,,2,,,71,100
15072,note_on,,,,,32,0,12,,,,,5,,,38,100
15104,note_off,,,,,128,0,13,,,,,6,,,71,100
15104,note_off,,,,,0,0,13,,,,,6,,,69,100
15136,note_off,,,,,64,0,8,,,,,1,,,81,100
15136,note_off,,,,,64,0,11,,,,,4,,,50,100
15136,note_off,,,,,64,0,12,,,,,5,,,38,100
15136,note_off,,,,,64,0,10,,,,,3,,,66,100
15136,note_off,,,,,64,0,9,,,,,2,,,71,100
15136,note_off,,,,,64,0,14,,,,,6,,,50,100
15168,note_on,,,,,64,0,13,,,,,6,,,68,100
15168,note_on,,,,,0,0,13,,,,,6,,,71,100
15168,note_on,,,,,32,0,11,,,,,4,,,52,100
15168,note_on,,,,,32,0,9,,,,,2,,,71,100
15168,note_on,,,,,32,0,12,,,,,5,,,40,100
15168,note_on,,,,,32,0,14,,,,,6,,,52,100
15168,note_on,,,,,32,0,10,,,,,3,,,64,100
15168,note_on,,,,,32,0,8,,,,,1,,,80,100
15232,note_off,,,,,64,0,14,,,,,6,,,52,100
15232,note_off,,,,,64,0,10,,,,,3,,,64,100
15232,note_off,,,,,64,0,8,,,,,1,,,80,100
15232,note_off,,,,,64,0,11,,,,,4,,,52,100
15232,note_off,,,,,64,0,12,,,,,5,,,40,100
15232,note_off,,,,,64,0,9,,,,,2,,,71,100
15264,note_on,,,,,32,0,9,,,,,2,,,71,100
15264,note_on,,,,,32,0,14,,,,,6,,,52,100
15264,note_on,,,,,32,0,12,,,,,5,,,40,100
15264,note_on,,,,,32,0,8,,,,,1,,,80,100
15264,note_on,,,,,32,0,11,,,,,4,,,52,100
15264,note_on,,,,,32,0,10,,,,,3,,,64,100
15296,note_off,,,,,0,0,13,,,,,6,,,71,100
15296,note_off,,,,,128,0,13,,,,,6,,,68,100
15328,note_off,,,,,64,0,12,,,,,5,,,40,100
15328,note_off,,,,,64,0,11,,,,,4,,,52,100
15328,note_off,,,,,64,0,10,,,,,3,,,64,100
15328,note_off,,,,,64,0,8,,,,,1,,,80,100
15328,note_off,,,,,64,0,9,,,,,2,,,71,100
15328,note_off,,,,,64,0,14,,,,,6,,,52,100
15360,note_on,,,,,32,0,9,,,,,2,,,71,100
15360,note_on,,,,,32,0,8,,,,,1,,,80,100
15360,note_on,,,,,32,0,10,,,,,3,,,64,100
15360,note_on,,,,,32,0,12,,,,,5,,,40,100
15360,note_on,,,,,0,0,13,,,,,6,,,68,100
15360,note_on,,,,,32,0,14,,,,,6,,,40,100
15360,note_on,,,,,32,0,11,,,,,4,,,40,100
15360,note_on,,,,,64,0,13,,,,,6,,,59,100
15424,note_off,,,,,64,0,14,,,,,6,,,40,100
15424,note_off,,,,,64,0,12,,,,,5,,,40,100
15424,note_off,,,,,64,0,11,,,,,4,,,40,100
15424,note_off,,,,,64,0,8,,,,,1,,,80,100
15424,note_off,,,,,64,0,9,,,,,2,,,71,100
15424,note_off,,,,,64,0,10,,,,,3,,,64,100
15456,note_on,,,,,32,0,14,,,,,6,,,40,100
15456,note_on,,,,,32,0,12,,,,,5,,,40,100
15456,note_on,,,,,32,0,11,,,,,4,,,40,100
15456,note_on,,,,,32,0,8,,,,,1,,,80,100
15456,note_on,,,,,32,0,9,,,,,2,,,71,100
15456,note_on,,,,,32,0,10,,,,,3,,,64,100
15488,note_off,,,,,128,0,13,,,,,6,,,59,100
15488,note_off,,,,,0,0,13,,,,,6,,,68,100
15520,note_off,,,,,64,0,14,,,,,6,,,40,100
15520,note_off,,,,,64,0,9,,,,,2,,,71,100
15520,note_off,,,,,64,0,10,,,,,3,,,64,100
15520,note_off,,,,,64,0,11,,,,,4,,,40,100
15520,note_off,,,,,64,0,8,,,,,1,,,80,100
15520,note_off,,,,,64,0,12,,,,,5,,,40,100
15552,note_on,,,,,0,0,13,,,,,6,,,61,100
15552,note_on,,,,,32,0,14,,,,,6,,,45,100
15552,note_on,,,,,32,0,11,,,,,4,,,45,100
15552,note_on,,,,,2752,0,7,,,,,0,,,81,100
15552,note_on,,,,,0,0,13,,,,,6,,,64,100
15552,note_on,,,,,32,0,8,,,,,1,,,81,100
15552,note_on,,,,,32,0,10,,,,,3,,,64,100
15552,note_on,,,,,64,0,13,,,,,6,,,69,100
15552,note_on,,,,,32,0,12,,,,,5,,,33,100
15552,note_on,,,,,32,0,9,,,,,2,,,69,100
15616,note_off,,,,,64,0,7,,,,,0,,,81,100
15648,note_on,,,,,32,0,7,,,,,0,,,69,100
15712,note_off,,,,,64,0,7,,,,,0,,,69,100
15744,note_on,,,,,32,0,7,,,,,0,,,81,100
15808,note_off,,,,,256,0,9,,,,,2,,,69,100
15808,note_off,,,,,256,0,11,,,,,4,,,45,100
15808,note_off,,,,,0,0,13,,,,,6,,,61,100
15808,note_off,,,,,0,0,13,,,,,6,,,64,100
15808,note_off,,,,,256,0,13,,,,,6,,,69,100
15808,note_off,,,,,256,0,8,,,,,1,,,81,100
15808,note_off,,,,,256,0,10,,,,,3,,,64,100
15808,note_off,,,,,256,0,12,,,,,5,,,33,100
15808,note_off,,,,,64,0,7,,,,,0,,,81,100
15808,note_off,,,,,256,0,14,,,,,6,,,45,100
15840,note_on,,,,,32,0,7,,,,,0,,,81,100
15904,note_off,,,,,64,0,7,,,,,0,,,81,100
15936,note_on,,,,,32,0,7,,,,,0,,,81,100
16000,note_off,,,,,64,0,7,,,,,0,,,81,100
16032,note_on,,,,,32,0,7,,,,,0,,,81,100
16096,note_off,,,,,64,0,7,,,,,0,,,81,100
16128,note_on,,,,,320,0,12,,,,,5,,,33,85
16128,note_on,,,,,320,0,11,,,,,4,,,45,85
16128,note_on,,,,,320,0,14,,,,,6,,,45,100
16128,note_on,,,,,0,0,13,,,,,6,,,64,100
16128,note_on,,,,,320,0,13,,,,,6,,,61,100
16128,note_on,,,,,32,0,7,,,,,0,,,81,100
16192,note_off,,,,,64,0,7,,,,,0,,,81,100
16224,note_on,,,,,32,0,7,,,,,0,,,69,100
16288,note_off,,,,,64,0,7,,,,,0,,,69,100
16320,note_on,,,,,32,0,7,,,,,0,,,81,100
16384,note_off,,,,,256,0,11,,,,,4,,,45,100
16384,note_off,,,,,0,0,13,,,,,6,,,64,100
16384,note_off,,,,,64,0,7,,,,,0,,,81,100
16384,note_off,,,,,256,0,13,,,,,6,,,61,100
16384,note_off,,,,,256,0,12,,,,,5,,,33,100
16384,note_off,,,,,256,0,14,,,,,6,,,45,100
16416,note_on,,,,,32,0,7,,,,,0,,,81,100
16480,note_off,,,,,64,0,7,,,,,0,,,81,100
16512,note_on,,,,,32,0,7,,,,,0,,,81,100
16540,note_off,,,,,28,0,7,,,,,0,,,81,100
16544,note_on,,,,,4,0,7,,,,,0,,,83,100
16572,note_off,,,,,28,0,7,,,,,0,,,83,100
16576,note_on,,,,,4,0,7,,,,,0,,,81,100
16596,note_off,,,,,20,0,7,,,,,0,,,81,100
16608,note_on,,,,,12,0,7,,,,,0,,,79,100
16652,note_off,,,,,44,0,7,,,,,0,,,79,100
16656,note_on,,,,,4,0,7,,,,,0,,,78,100
16688,note_off,,,,,32,0,7,,,,,0,,,78,100
16704,note_on,,,,,320,0,14,,,,,6,,,45,100
16704,note_on,,,,,320,0,11,,,,,4,,,45,85
16704,note_on,,,,,16,0,7,,,,,0,,,79,100
16704,note_on,,,,,320,0,13,,,,,6,,,64,100
16704,note_on,,,,,320,0,12,,,,,5,,,33,85
16704,note_on,,,,,0,0,13,,,,,6,,,67,100
16768,note_off,,,,,64,0,7,,,,,0,,,79,100
16800,note_on,,,,,32,0,7,,,,,0,,,69,100
16864,note_off,,,,,64,0,7,,,,,0,,,69,100
16896,note_on,,,,,32,0,7,,,,,0,,,79,100
16960,note_off,,,,,0,0,13,,,,,6,,,67,100
16960,note_off,,,,,256,0,14,,,,,6,,,45,100
16960,note_off,,,,,256,0,12,,,,,5,,,33,100
16960,note_off,,,,,64,0,7,,,,,0,,,79,100
16960,note_off,,,,,256,0,11,,,,,4,,,45,100
16960,note_off,,,,,256,0,13,,,,,6,,,64,100
16992,note_on,,,,,32,0,7,,,,,0,,,79,100
17056,note_off,,,,,64,0,7,,,,,0,,,79,100
17088,note_on,,,,,32,0,7,,,,,0,,,79,100
17152,note_off,,,,,64,0,7,,,,,0,,,79,100
17184,note_on,,,,,32,0,7,,,,,0,,,79,100
17248,note_off,,,,,64,0,7,,,,,0,,,79,100
17280,note_on,,,,,320,0,12,,,,,5,,,33,85
17280,note_on,,,,,0,0,13,,,,,6,,,67,100
17280,note_on,,,,,320,0,11,,,,,4,,,45,85
17280,note_on,,,,,320,0,13,,,,,6,,,64,100
17280,note_on,,,,,320,0,14,,,,,6,,,45,100
17280,note_on,,,,,32,0,7,,,,,0,,,79,100
17344,note_off,,,,,64,0,7,,,,,0,,,79,100
17376,note_on,,,,,32,0,7,,,,,0,,,69,100
17440,note_off,,,,,64,0,7,,,,,0,,,69,100
17472,note_on,,,,,32,0,7,,,,,0,,,79,100
17536,note_off,,,,,256,0,13,,,,,6,,,64,100
17536,note_off,,,,,256,0,12,,,,,5,,,33,100
17536,note_off,,,,,256,0,14,,,,,6,,,45,100
17536,note_off,,,,,64,0,7,,,,,0,,,79,100
17536,note_off,,,,,256,0,11,,,,,4,,,45,100
17536,note_off,,,,,0,0,13,,,,,6,,,67,100
17568,note_on,,,,,32,0,7,,,,,0,,,79,100
17632,note_off,,,,,64,0,7,,,,,0,,,79,100
17664,note_on,,,,,32,0,7,,,,,0,,,79,100
17692,note_off,,,,,28,0,7,,,,,0,,,79,100
17696,note_on,,,,,4,0,7,,,,,0,,,81,100
17724,note_off,,,,,28,0,7,,,,,0,,,81,100
17728,note_on,,,,,4,0,7,,,,,0,,,79,100
17748,note_off,,,,,20,0,7,,,,,0,,,79,100
17760,note_on,,,,,12,0,7,,,,,0,,,78,100
17804,note_off,,,,,44,0,7,,,,,0,,,78,100
17808,note_on,,,,,4,0,7,,,,,0,,,76,100
17840,note_off,,,,,32,0,7,,,,,0,,,76,100
17856,note_on,,,,,16,0,7,,,,,0,,,78,100
17856,note_on,,,,,320,0,14,,,,,6,,,50,100
17856,note_on,,,,,320,0,13,,,,,6,,,66,100
17856,note_on,,,,,320,0,11,,,,,4,,,50,85
17856,note_on,,,,,320,0,12,,,,,5,,,38,85
17856,note_on,,,,,0,0,13,,,,,6,,,69,100
17920,note_off,,,,,64,0,7,,,,,0,,,78,100
17952,note_on,,,,,32,0,7,,,,,0,,,69,100
18016,note_off,,,,,64,0,7,,,,,0,,,69,100
18048,note_on,,,,,32,0,7,,,,,0,,,78,100
18112,note_off,,,,,256,0,11,,,,,4,,,50,100
18112,note_off,,,,,0,0,13,,,,,6,,,69,100
18112,note_off,,,,,256,0,14,,,,,6,,,50,100
18112,note_off,,,,,64,0,7,,,,,0,,,78,100
18112,note_off,,,,,256,0,12,,,,,5,,,38,100
18112,note_off,,,,,256,0,13,,,,,6,,,66,100
18144,note_on,,,,,32,0,7,,,,,0,,,78,100
18208,note_off,,,,,64,0,7,,,,,0,,,78,100
18240,note_on,,,,,32,0,7,,,,,0,,,78,100
18268,note_off,,,,,28,0,7,,,,,0,,,78,100
18272,note_on,,,,,4,0,7,,,,,0,,,79,100
18300,note_off,,,,,28,0,7,,,,,0,,,79,100
18304,note_on,,,,,4,0,7,,,,,0,,,78,100
18324,note_off,,,,,20,0,7,,,,,0,,,78,100
18336,note_on,,,,,12,0,7,,,,,0,,,76,100
18380,note_off,,,,,44,0,7,,,,,0,,,76,100
18384,note_on,,,,,4,0,7,,,,,0,,,74,100
18416,note_off,,,,,32,0,7,,,,,0,,,74,100
18432,note_on,,,,,320,0,12,,,,,5,,,33,85
18432,note_on,,,,,320,0,13,,,,,6,,,61,100
18432,note_on,,,,,320,0,14,,,,,6,,,45,100
18432,note_on,,,,,16,0,7,,,,,0,,,76,100
18432,note_on,,,,,0,0,13,,,,,6,,,64,100
18432,note_on,,,,,320,0,11,,,,,4,,,45,85
18496,note_off,,,,,64,0,7,,,,,0,,,76,100
18528,note_on,,,,,32,0,7,,,,,0,,,69,100
18592,note_off,,,,,64,0,7,,,,,0,,,69,100
18624,note_on,,,,,32,0,7,,,,,0,,,76,100
18688,note_off,,,,,64,0,7,,,,,0,,,76,100
18688,note_off,,,,,256,0,13,,,,,6,,,61,100
18688,note_off,,,,,256,0,14,,,,,6,,,45,100
18688,note_off,,,,,256,0,12,,,,,5,,,33,100
18688,note_off,,,,,256,0,11,,,,,4,,,45,100
18688,note_off,,,,,0,0,13,,,,,6,,,64,100
18720,note_on,,,,,32,0,7,,,,,0,,,76,100
18784,note_off,,,,,64,0,7,,,,,0,,,76,100
18816,note_on,,,,,32,0,7,,,,,0,,,76,100
18844,note_off,,,,,28,0,7,,,,,0,,,76,100
18848,note_on,,,,,4,0,7,,,,,0,,,78,100
18876,note_off,,,,,28,0,7,,,,,0,,,78,100
18880,note_on,,,,,4,0,7,,,,,0,,,76,100
18900,note_off,,,,,20,0,7,,,,,0,,,76,100
18912,note_on,,,,,12,0,7,,,,,0,,,74,100
18956,note_off,,,,,44,0,7,,,,,0,,,74,100
18960,note_on,,,,,4,0,7,,,,,0,,,73,100
18992,note_off,,,,,32,0,7,,,,,0,,,73,100
19008,note_on,,,,,16,0,7,,,,,0,,,78,100
19008,note_on,,,,,320,0,13,,,,,6,,,66,100
19008,note_on,,,,,320,0,12,,,,,5,,,38,85
19008,note_on,,,,,320,0,14,,,,,6,,,50,100
19008,note_on,,,,,320,0,11,,,,,4,,,50,85
19008,note_on,,,,,0,0,13,,,,,6,,,69,100
19072,note_off,,,,,64,0,7,,,,,0,,,78,100
19104,note_on,,,,,32,0,7,,,,,0,,,69,100
19168,note_off,,,,,64,0,7,,,,,0,,,69,100
19200,note_on,,,,,32,0,7,,,,,0,,,78,100
19264,note_off,,,,,256,0,12,,,,,5,,,38,100
19264,note_off,,,,,256,0,11,,,,,4,,,50,100
19264,note_off,,,,,256,0,14,,,,,6,,,50,100
19264,note_off,,,,,0,0,13,,,,,6,,,69,100
19264,note_off,,,,,64,0,7,,,,,0,,,78,100
19264,note_off,,,,,256,0,13,,,,,6,,,66,100
19296,note_on,,,,,32,0,7,,,,,0,,,78,100
19360,note_off,,,,,64,0,7,,,,,0,,,78,100
19392,note_on,,,,,32,0,7,,,,,0,,,78,100
19420,note_off,,,,,28,0,7,,,,,0,,,78,100
19424,note_on,,,,,4,0,7,,,,,0,,,79,100
19452,note_off,,,,,28,0,7,,,,,0,,,79,100
19456,note_on,,,,,4,0,7,,,,,0,,,78,100
19476,note_off,,,,,20,0,7,,,,,0,,,78,100
19488,note_on,,,,,12,0,7,,,,,0,,,76,100
19532,note_off,,,,,44,0,7,,,,,0,,,76,100
19536,note_on,,,,,4,0,7,,,,,0,,,74,100
19568,note_off,,,,,32,0,7,,,,,0,,,74,100
19584,note_on,,,,,16,0,7,,,,,0,,,76,100
19584,note_on,,,,,320,0,12,,,,,5,,,45,85
19584,note_on,,,,,320,0,11,,,,,4,,,57,85
19584,note_on,,,,,320,0,13,,,,,6,,,64,100
19584,note_on,,,,,0,0,13,,,,,6,,,61,100
19584,note_on,,,,,320,0,14,,,,,6,,,57,100
19648,note_off,,,,,64,0,7,,,,,0,,,76,100
19680,note_on,,,,,32,0,7,,,,,0,,,69,100
19744,note_off,,,,,64,0,7,,,,,0,,,69,100
19776,note_on,,,,,32,0,7,,,,,0,,,69,100
19840,note_off,,,,,64,0,7,,,,,0,,,69,100
19840,note_off,,,,,256,0,13,,,,,6,,,64,100
19840,note_off,,,,,256,0,11,,,,,4,,,57,100
19840,note_off,,,,,256,0,12,,,,,5,,,45,100
19840,note_off,,,,,256,0,14,,,,,6,,,57,100
19840,note_off,,,,,0,0,13,,,,,6,,,61,100
19872,note_on,,,,,32,0,7,,,,,0,,,71,100
19936,note_off,,,,,64,0,7,,,,,0,,,71,100
19968,note_on,,,,,128,0,13,,,,,6,,,60,100
19968,note_on,,,,,0,0,13,,,,,6,,,62,100
19968,note_on,,,,,128,0,11,,,,,4,,,54,85
19968,note_on,,,,,128,0,14,,,,,6,,,54,100
19968,note_on,,,,,32,0,7,,,,,0,,,72,100
19968,note_on,,,,,128,0,12,,,,,5,,,42,85
20032,note_off,,,,,64,0,7,,,,,0,,,72,100
20064,note_on,,,,,32,0,7,,,,,0,,,72,100
20096,note_off,,,,,0,0,13,,,,,6,,,62,100
20096,note_off,,,,,128,0,13,,,,,6,,,60,100
20096,note_off,,,,,128,0,14,,,,,6,,,54,100
20096,note_off,,,,,128,0,11,,,,,4,,,54,100
20096,note_off,,,,,128,0,12,,,,,5,,,42,100
20128,note_off,,,,,64,0,7,,,,,0,,,72,100
20160,note_on,,,,,0,0,13,,,,,6,,,60,100
20160,note_on,,,,,64,0,13,,,,,6,,,62,100
20160,note_on,,,,,64,0,11,,,,,4,,,55,85
20160,note_on,,,,,64,0,14,,,,,6,,,55,100
20160,note_on,,,,,32,0,7,,,,,0,,,72,100
20160,note_on,,,,,64,0,12,,,,,5,,,43,85
20188,note_off,,,,,28,0,7,,,,,0,,,72,100
20192,note_on,,,,,4,0,7,,,,,0,,,74,100
20220,note_off,,,,,28,0,7,,,,,0,,,74,100
20224,note_on,,,,,4,0,7,,,,,0,,,72,100
20244,note_off,,,,,20,0,7,,,,,0,,,72,100
20256,note_on,,,,,12,0,7,,,,,0,,,71,100
20288,note_off,,,,,0,0,13,,,,,6,,,60,100
20288,note_off,,,,,128,0,13,,,,,6,,,62,100
20320,note_off,,,,,64,0,7,,,,,0,,,71,100
20352,note_on,,,,,0,0,13,,,,,6,,,62,100
20352,note_on,,,,,64,0,13,,,,,6,,,59,100
20352,note_on,,,,,32,0,7,,,,,0,,,71,100
20416,note_off,,,,,64,0,7,,,,,0,,,71,100
20416,note_off,,,,,256,0,12,,,,,5,,,43,100
20416,note_off,,,,,256,0,11,,,,,4,,,55,100
20416,note_off,,,,,256,0,14,,,,,6,,,55,100
20448,note_on,,,,,32,0,7,,,,,0,,,73,100
20480,note_off,,,,,128,0,13,,,,,6,,,59,100
20480,note_off,,,,,0,0,13,,,,,6,,,62,100
20512,note_off,,,,,64,0,7,,,,,0,,,73,100
20544,note_on,,,,,128,0,14,,,,,6,,,56,100
20544,note_on,,,,,32,0,7,,,,,0,,,74,100
20544,note_on,,,,,128,0,11,,,,,4,,,56,85
20544,note_on,,,,,0,0,13,,,,,6,,,62,100
20544,note_on,,,,,64,0,13,,,,,6,,,64,100
20544,note_on,,,,,128,0,12,,,,,5,,,44,85
20608,note_off,,,,,64,0,7,,,,,0,,,74,100
20640,note_on,,,,,32,0,7,,,,,0,,,74,100
20672,note_off,,,,,128,0,11,,,,,4,,,56,100
20672,note_off,,,,,0,0,13,,,,,6,,,62,100
20672,note_off,,,,,128,0,13,,,,,6,,,64,100
20672,note_off,,,,,128,0,14,,,,,6,,,56,100
20672,note_off,,,,,128,0,12,,,,,5,,,44,100
20704,note_off,,,,,64,0,7,,,,,0,,,74,100
20736,note_on,,,,,64,0,11,,,,,4,,,57,85
20736,note_on,,,,,0,0,13,,,,,6,,,64,100
20736,note_on,,,,,32,0,7,,,,,0,,,74,100
20736,note_on,,,,,64,0,13,,,,,6,,,62,100
20736,note_on,,,,,64,0,14,,,,,6,,,57,100
20736,note_on,,,,,64,0,12,,,,,5,,,45,85
20764,note_off,,,,,28,0,7,,,,,0,,,74,100
20768,note_on,,,,,4,0,7,,,,,0,,,76,100
20796,note_off,,,,,28,0,7,,,,,0,,,76,100
20800,note_on,,,,,4,0,7,,,,,0,,,74,100
20820,note_off,,,,,20,0,7,,,,,0,,,74,100
20832,note_on,,,,,12,0,7,,,,,0,,,73,100
20864,note_off,,,,,128,0,13,,,,,6,,,62,100
20864,note_off,,,,,0,0,13,,,,,6,,,64,100
20896,note_off,,,,,64,0,7,,,,,0,,,73,100
20928,note_on,,,,,0,0,13,,,,,6,,,64,100
20928,note_on,,,,,64,0,13,,,,,6,,,61,100
20928,note_on,,,,,32,0,7,,,,,0,,,73,100
20992,note_off,,,,,256,0,14,,,,,6,,,57,100
20992,note_off,,,,,64,0,7,,,,,0,,,73,100
20992,note_off,,,,,256,0,11,,,,,4,,,57,100
20992,note_off,,,,,256,0,12,,,,,5,,,45,100
21024,note_on,,,,,32,0,7,,,,,0,,,74,100
21056,note_off,,,,,0,0,13,,,,,6,,,64,100
21056,note_off,,,,,128,0,13,,,,,6,,,61,100
21088,note_off,,,,,64,0,7,,,,,0,,,74,100
21120,note_on,,,,,128,0,11,,,,,4,,,58,85
21120,note_on,,,,,128,0,14,,,,,6,,,58,100
21120,note_on,,,,,64,0,13,,,,,6,,,66,100
21120,note_on,,,,,0,0,13,,,,,6,,,64,100
21120,note_on,,,,,128,0,12,,,,,5,,,46,85
21120,note_on,,,,,32,0,7,,,,,0,,,76,100
21184,note_off,,,,,64,0,7,,,,,0,,,76,100
21216,note_on,,,,,32,0,7,,,,,0,,,76,100
21248,note_off,,,,,128,0,12,,,,,5,,,46,100
21248,note_off,,,,,128,0,11,,,,,4,,,58,100
21248,note_off,,,,,128,0,13,,,,,6,,,66,100
21248,note_off,,,,,0,0,13,,,,,6,,,64,100
21248,note_off,,,,,128,0,14,,,,,6,,,58,100
21280,note_off,,,,,64,0,7,,,,,0,,,76,100
21312,note_on,,,,,64,0,14,,,,,6,,,59,100
21312,note_on,,,,,64,0,13,,,,,6,,,64,100
21312,note_on,,,,,0,0,13,,,,,6,,,66,100
21312,note_on,,,,,64,0,11,,,,,4,,,59,85
21312,note_on,,,,,64,0,12,,,,,5,,,47,85
21312,note_on,,,,,32,0,7,,,,,0,,,76,100
21340,note_off,,,,,28,0,7,,,,,0,,,76,100
21344,note_on,,,,,4,0,7,,,,,0,,,78,100
21372,note_off,,,,,28,0,7,,,,,0,,,78,100
21376,note_on,,,,,4,0,7,,,,,0,,,76,100
21396,note_off,,,,,20,0,7,,,,,0,,,76,100
21408,note_on,,,,,12,0,7,,,,,0,,,74,100
21440,note_off,,,,,0,0,13,,,,,6,,,66,100
21440,note_off,,,,,128,0,13,,,,,6,,,64,100
21472,note_off,,,,,64,0,7,,,,,0,,,74,100
21504,note_on,,,,,64,0,13,,,,,6,,,62,100
21504,note_on,,,,,32,0,7,,,,,0,,,74,100
21504,note_on,,,,,0,0,13,,,,,6,,,66,100
21568,note_off,,,,,64,0,7,,,,,0,,,74,100
21568,note_off,,,,,256,0,12,,,,,5,,,47,100
21568,note_off,,,,,256,0,14,,,,,6,,,59,100
21568,note_off,,,,,256,0,11,,,,,4,,,59,100
21600,note_on,,,,,32,0,7,,,,,0,,,76,100
21632,note_off,,,,,128,0,13,,,,,6,,,62,100
21632,note_off,,,,,0,0,13,,,,,6,,,66,100
21664,note_off,,,,,64,0,7,,,,,0,,,76,100
21696,note_on,,,,,128,0,14,,,,,6,,,59,100
21696,note_on,,,,,32,0,7,,,,,0,,,78,100
21696,note_on,,,,,64,0,13,,,,,6,,,66,100
21696,note_on,,,,,0,0,13,,,,,6,,,67,100
21696,note_on,,,,,128,0,11,,,,,4,,,59,85
21696,note_on,,,,,128,0,12,,,,,5,,,47,85
21760,note_off,,,,,64,0,7,,,,,0,,,78,100
21792,note_on,,,,,32,0,7,,,,,0,,,78,100
21824,note_off,,,,,128,0,11,,,,,4,,,59,100
21824,note_off,,,,,128,0,13,,,,,6,,,66,100
21824,note_off,,,,,0,0,13,,,,,6,,,67,100
21824,note_off,,,,,128,0,12,,,,,5,,,47,100
21824,note_off,,,,,128,0,14,,,,,6,,,59,100
21856,note_off,,,,,64,0,7,,,,,0,,,78,100
21888,note_on,,,,,32,0,7,,,,,0,,,79,100
21888,note_on,,,,,64,0,13,,,,,6,,,72,100
21888,note_on,,,,,64,0,14,,,,,6,,,52,100
21888,note_on,,,,,0,0,13,,,,,6,,,67,100
21888,note_on,,,,,64,0,12,,,,,5,,,40,85
21888,note_on,,,,,64,0,11,,,,,4,,,52,85
21980,note_off,,,,,92,0,7,,,,,0,,,79,100
21984,note_on,,,,,4,0,7,,,,,0,,,76,100
22048,note_off,,,,,64,0,7,,,,,0,,,76,100
22080,note_on,,,,,32,0,7,,,,,0,,,76,100
22144,note_off,,,,,256,0,12,,,,,5,,,40,100
22144,note_off,,,,,256,0,13,,,,,6,,,72,100
22144,note_off,,,,,256,0,11,,,,,4,,,52,100
22144,note_off,,,,,0,0,13,,,,,6,,,67,100
22144,note_off,,,,,256,0,14,,,,,6,,,52,100
22172,note_off,,,,,92,0,7,,,,,0,,,76,100
22176,note_on,,,,,4,0,7,,,,,0,,,72,100
22240,note_off,,,,,64,0,7,,,,,0,,,72,100
22272,note_on,,,,,32,0,7,,,,,0,,,72,100
22364,note_off,,,,,92,0,7,,,,,0,,,72,100
22368,note_on,,,,,4,0,7,,,,,0,,,79,100
22432,note_off,,,,,64,0,7,,,,,0,,,79,100
22464,note_on,,,,,32,0,7,,,,,0,,,79,100
22464,note_on,,,,,320,0,14,,,,,6,,,52,100
22464,note_on,,,,,320,0,11,,,,,4,,,52,85
22464,note_on,,,,,320,0,12,,,,,5,,,40,85
22464,note_on,,,,,0,0,13,,,,,6,,,72,100
22464,note_on,,,,,320,0,13,,,,,6,,,67,100
22556,note_off,,,,,92,0,7,,,,,0,,,79,100
22560,note_on,,,,,4,0,7,,,,,0,,,76,100
22624,note_off,,,,,64,0,7,,,,,0,,,76,100
22656,note_on,,,,,32,0,7,,,,,0,,,76,100
22720,note_off,,,,,256,0,11,,,,,4,,,52,100
22720,note_off,,,,,256,0,14,,,,,6,,,52,100
22720,note_off,,,,,256,0,12,,,,,5,,,40,100
22720,note_off,,,,,0,0,13,,,,,6,,,72,100
22720,note_off,,,,,256,0,13,,,,,6,,,67,100
22748,note_off,,,,,92,0,7,,,,,0,,,76,100
22752,note_on,,,,,4,0,7,,,,,0,,,72,100
22816,note_off,,,,,64,0,7,,,,,0,,,72,100
22848,note_on,,,,,32,0,7,,,,,0,,,72,100
22940,note_off,,,,,92,0,7,,,,,0,,,72,100
22944,note_on,,,,,4,0,7,,,,,0,,,70,100
23008,note_off,,,,,64,0,7,,,,,0,,,70,100
23040,note_on,,,,,320,0,14,,,,,6,,,54,100
23040,note_on,,,,,320,0,11,,,,,4,,,54,85
23040,note_on,,,,,32,0,7,,,,,0,,,70,100
23040,note_on,,,,,320,0,13,,,,,6,,,70,100
23040,note_on,,,,,320,0,12,,,,,5,,,42,85
23040,note_on,,,,,0,0,13,,,,,6,,,73,100
23104,note_off,,,,,64,0,7,,,,,0,,,70,100
23136,note_on,,,,,32,0,7,,,,,0,,,79,100
23200,note_off,,,,,64,0,7,,,,,0,,,79,100
23232,note_on,,,,,32,0,7,,,,,0,,,78,100
23296,note_off,,,,,256,0,14,,,,,6,,,54,100
23296,note_off,,,,,0,0,13,,,,,6,,,73,100
23296,note_off,,,,,256,0,13,,,,,6,,,70,100
23296,note_off,,,,,256,0,12,,,,,5,,,42,100
23296,note_off,,,,,64,0,7,,,,,0,,,78,100
23296,note_off,,,,,256,0,11,,,,,4,,,54,100
23328,note_on,,,,,32,0,7,,,,,0,,,76,100
23392,note_off,,,,,64,0,7,,,,,0,,,76,100
23424,note_on,,,,,128,0,13,,,,,6,,,62,100
23424,note_on,,,,,0,0,13,,,,,6,,,66,100
23424,note_on,,,,,128,0,11,,,,,4,,,47,89
23424,note_on,,,,,128,0,14,,,,,6,,,47,100
23424,note_on,,,,,32,0,7,,,,,0,,,74,100
23424,note_on,,,,,128,0,12,,,,,5,,,35,89
23488,note_off,,,,,64,0,7,,,,,0,,,74,100
23520,note_on,,,,,32,0,7,,,,,0,,,73,100
23552,note_off,,,,,0,0,13,,,,,6,,,66,100
23552,note_off,,,,,128,0,13,,,,,6,,,62,100
23552,note_off,,,,,128,0,14,,,,,6,,,47,100
23552,note_off,,,,,128,0,12,,,,,5,,,35,100
23552,note_off,,,,,128,0,11,,,,,4,,,47,100
23584,note_off,,,,,64,0,7,,,,,0,,,73,100
23616,note_on,,,,,32,0,7,,,,,0,,,74,100
23616,note_on,,,,,64,0,12,,,,,5,,,40,92
23616,note_on,,,,,0,0,13,,,,,6,,,71,100
23616,note_on,,,,,64,0,14,,,,,6,,,52,100
23616,note_on,,,,,64,0,11,,,,,4,,,52,92
23616,note_on,,,,,64,0,13,,,,,6,,,62,100
23680,note_off,,,,,64,0,7,,,,,0,,,74,100
23712,note_on,,,,,32,0,7,,,,,0,,,83,100
23744,note_off,,,,,128,0,13,,,,,6,,,62,100
23744,note_off,,,,,0,0,13,,,,,6,,,71,100
23744,note_off,,,,,128,0,11,,,,,4,,,52,100
23744,note_off,,,,,128,0,12,,,,,5,,,40,100
23744,note_off,,,,,128,0,14,,,,,6,,,52,100
23776,note_off,,,,,64,0,7,,,,,0,,,83,100
23808,note_on,,,,,0,0,7,,,,,0,,,66,100
23808,note_on,,,,,64,0,14,,,,,6,,,54,100
23808,note_on,,,,,64,0,11,,,,,4,,,54,94
23808,note_on,,,,,64,0,13,,,,,6,,,64,100
23808,note_on,,,,,0,0,13,,,,,6,,,73,100
23808,note_on,,,,,32,0,7,,,,,0,,,73,100
23808,note_on,,,,,64,0,12,,,,,5,,,42,94
23852,note_off,,,,,44,0,7,,,,,0,,,73,100
23856,note_on,,,,,4,0,7,,,,,0,,,74,100
23900,note_off,,,,,44,0,7,,,,,0,,,74,100
23904,note_on,,,,,4,0,7,,,,,0,,,73,100
23936,note_off,,,,,128,0,13,,,,,6,,,64,100
23936,note_off,,,,,128,0,14,,,,,6,,,54,100
23936,note_off,,,,,0,0,13,,,,,6,,,73,100
23936,note_off,,,,,128,0,12,,,,,5,,,42,100
23936,note_off,,,,,128,0,11,,,,,4,,,54,100
23948,note_off,,,,,44,0,7,,,,,0,,,73,100
23952,note_on,,,,,4,0,7,,,,,0,,,74,100
23996,note_off,,,,,44,0,7,,,,,0,,,74,100
24000,note_on,,,,,64,0,13,,,,,6,,,61,100
24000,note_on,,,,,0,0,13,,,,,6,,,64,100
24000,note_on,,,,,64,0,12,,,,,5,,,42,97
24000,note_on,,,,,64,0,11,,,,,4,,,42,97
24000,note_on,,,,,4,0,7,,,,,0,,,73,100
24000,note_on,,,,,64,0,14,,,,,6,,,42,100
24064,note_off,,,,,0,0,7,,,,,0,,,73,100
24064,note_off,,,,,64,0,7,,,,,0,,,66,100
24096,note_on,,,,,32,0,7,,,,,0,,,71,100
24128,note_off,,,,,128,0,14,,,,,6,,,42,100
24128,note_off,,,,,128,0,13,,,,,6,,,61,100
24128,note_off,,,,,128,0,12,,,,,5,,,42,100
24128,note_off,,,,,128,0,11,,,,,4,,,42,100
24128,note_off,,,,,0,0,13,,,,,6,,,64,100
24160,note_off,,,,,64,0,7,,,,,0,,,71,100
24192,note_on,,,,,8384,0,10,,,,,3,,,66,100
24192,note_on,,,,,64,0,14,,,,,6,,,47,100
24192,note_on,,,,,64,0,12,,,,,5,,,35,99
24192,note_on,,,,,64,0,13,,,,,6,,,66,100
24192,note_on,,,,,0,0,13,,,,,6,,,62,100
24192,note_on,,,,,32,0,7,,,,,0,,,71,100
24192,note_on,,,,,64,0,11,,,,,4,,,47,99
24288,note_on,,,,,8480,0,8,,,,,1,,,78,1
24288,note_on,,,,,8480,0,9,,,,,2,,,78,100
24320,note_off,,,,,128,0,7,,,,,0,,,71,100
24320,note_off,,,,,0,0,13,,,,,6,,,62,100
24320,note_off,,,,,128,0,12,,,,,5,,,35,100
24320,note_off,,,,,128,0,10,,,,,3,,,66,100
24320,note_off,,,,,128,0,13,,,,,6,,,66,100
24320,note_off,,,,,128,0,14,,,,,6,,,47,100
24320,note_off,,,,,128,0,11,,,,,4,,,47,100
24352,note_off,,,,,64,0,8,,,,,1,,,78,100
24352,note_off,,,,,64,0,9,,,,,2,,,78,100
24384,note_on,,,,,32,0,9,,,,,2,,,74,100
24384,note_on,,,,,64,0,12,,,,,5,,,35,100
24384,note_on,,,,,32,0,8,,,,,1,,,74,1
24384,note_on,,,,,0,0,13,,,,,6,,,62,100
24384,note_on,,,,,64,0,11,,,,,4,,,47,100
24384,note_on,,,,,64,0,13,,,,,6,,,66,100
24384,note_on,,,,,64,0,14,,,,,6,,,47,100
24384,note_on,,,,,64,0,10,,,,,3,,,66,100
24448,note_off,,,,,64,0,9,,,,,2,,,74,100
24448,note_off,,,,,64,0,8,,,,,1,,,74,100
24480,note_on,,,,,32,0,9,,,,,2,,,78,100
24480,note_on,,,,,32,0,8,,,,,1,,,78,1
24512,note_off,,,,,128,0,13,,,,,6,,,66,100
24512,note_off,,,,,0,0,13,,,,,6,,,62,100
24512,note_off,,,,,128,0,10,,,,,3,,,66,100
24512,note_off,,,,,128,0,11,,,,,4,,,47,100
24512,note_off,,,,,128,0,14,,,,,6,,,47,100
24512,note_off,,,,,128,0,12,,,,,5,,,35,100
24544,note_off,,,,,64,0,8,,,,,1,,,78,100
24544,note_off,,,,,64,0,9,,,,,2,,,78,100
24576,note_on,,,,,64,0,12,,,,,5,,,35,100
24576,note_on,,,,,64,0,10,,,,,3,,,66,100
24576,note_on,,,,,64,0,11,,,,,4,,,47,100
24576,note_on,,,,,0,0,13,,,,,6,,,62,100
24576,note_on,,,,,64,0,13,,,,,6,,,66,100
24576,note_on,,,,,32,0,8,,,,,1,,,71,1
24576,note_on,,,,,32,0,9,,,,,2,,,71,100
24576,note_on,,,,,64,0,14,,,,,6,,,47,100
24640,note_off,,,,,64,0,8,,,,,1,,,71,100
24640,note_off,,,,,64,0,9,,,,,2,,,71,100
24672,note_on,,,,,32,0,8,,,,,1,,,74,1
24672,note_on,,,,,32,0,9,,,,,2,,,74,100
24704,note_off,,,,,128,0,14,,,,,6,,,47,100
24704,note_off,,,,,128,0,11,,,,,4,,,47,100
24704,note_off,,,,,0,0,13,,,,,6,,,62,100
24704,note_off,,,,,128,0,13,,,,,6,,,66,100
24704,note_off,,,,,128,0,12,,,,,5,,,35,100
24704,note_off,,,,,128,0,10,,,,,3,,,66,100
24736,note_off,,,,,64,0,9,,,,,2,,,74,100
24736,note_off,,,,,64,0,8,,,,,1,,,74,100
24768,note_on,,,,,32,0,9,,,,,2,,,73,100
24768,note_on,,,,,64,0,13,,,,,6,,,66,100
24768,note_on,,,,,64,0,11,,,,,4,,,46,100
24768,note_on,,,,,32,0,8,,,,,1,,,73,1
24768,note_on,,,,,0,0,13,,,,,6,,,61,100
24768,note_on,,,,,64,0,14,,,,,6,,,46,100
24768,note_on,,,,,64,0,12,,,,,5,,,34,100
24768,note_on,,,,,64,0,10,,,,,3,,,66,100
24860,note_off,,,,,92,0,8,,,,,1,,,73,100
24860,note_off,,,,,92,0,9,,,,,2,,,73,100
24864,note_on,,,,,4,0,8,,,,,1,,,70,1
24864,note_on,,,,,4,0,9,,,,,2,,,70,100
24896,note_off,,,,,128,0,11,,,,,4,,,46,100
24896,note_off,,,,,0,0,13,,,,,6,,,61,100
24896,note_off,,,,,128,0,13,,,,,6,,,66,100
24896,note_off,,,,,128,0,10,,,,,3,,,66,100
24896,note_off,,,,,128,0,12,,,,,5,,,34,100
24896,note_off,,,,,128,0,14,,,,,6,,,46,100
24956,note_off,,,,,92,0,8,,,,,1,,,70,100
24956,note_off,,,,,92,0,9,,,,,2,,,70,100
24960,note_on,,,,,4,0,9,,,,,2,,,66,100
24960,note_on,,,,,4,0,8,,,,,1,,,66,1
24960,note_on,,,,,64,0,13,,,,,6,,,66,100
24960,note_on,,,,,64,0,14,,,,,6,,,46,100
24960,note_on,,,,,64,0,11,,,,,4,,,46,100
24960,note_on,,,,,64,0,10,,,,,3,,,66,100
24960,note_on,,,,,64,0,12,,,,,5,,,34,100
24960,note_on,,,,,0,0,13,,,,,6,,,61,100
25024,note_off,,,,,64,0,8,,,,,1,,,66,100
25024,note_off,,,,,64,0,9,,,,,2,,,66,100
25056,note_on,,,,,32,0,9,,,,,2,,,70,100
25056,note_on,,,,,32,0,8,,,,,1,,,70,1
25088,note_off,,,,,128,0,11,,,,,4,,,46,100
25088,note_off,,,,,128,0,10,,,,,3,,,66,100
25088,note_off,,,,,128,0,14,,,,,6,,,46,100
25088,note_off,,,,,0,0,13,,,,,6,,,61,100
25088,note_off,,,,,128,0,13,,,,,6,,,66,100
25088,note_off,,,,,128,0,12,,,,,5,,,34,100
25120,note_off,,,,,64,0,9,,,,,2,,,70,100
25120,note_off,,,,,64,0,8,,,,,1,,,70,100
25152,note_on,,,,,64,0,10,,,,,3,,,66,100
25152,note_on,,,,,0,0,13,,,,,6,,,68,100
25152,note_on,,,,,64,0,13,,,,,6,,,64,100
25152,note_on,,,,,64,0,12,,,,,5,,,34,100
25152,note_on,,,,,32,0,8,,,,,1,,,73,1
25152,note_on,,,,,64,0,14,,,,,6,,,46,100
25152,note_on,,,,,64,0,11,,,,,4,,,46,100
25152,note_on,,,,,32,0,9,,,,,2,,,73,100
25216,note_off,,,,,64,0,9,,,,,2,,,73,100
25216,note_off,,,,,64,0,8,,,,,1,,,73,100
25248,note_on,,,,,32,0,9,,,,,2,,,76,100
25248,note_on,,,,,32,0,8,,,,,1,,,76,1
25280,note_off,,,,,128,0,10,,,,,3,,,66,100
25280,note_off,,,,,128,0,14,,,,,6,,,46,100
25280,note_off,,,,,128,0,13,,,,,6,,,64,100
25280,note_off,,,,,0,0,13,,,,,6,,,68,100
25280,note_off,,,,,128,0,12,,,,,5,,,34,100
25280,note_off,,,,,128,0,11,,,,,4,,,46,100
25312,note_off,,,,,64,0,8,,,,,1,,,76,100
25312,note_off,,,,,64,0,9,,,,,2,,,76,100
25344,note_on,,,,,32,0,8,,,,,1,,,74,1
25344,note_on,,,,,64,0,14,,,,,6,,,47,100
25344,note_on,,,,,64,0,10,,,,,3,,,66,100
25344,note_on,,,,,64,0,13,,,,,6,,,66,100
25344,note_on,,,,,32,0,9,,,,,2,,,74,100
25344,note_on,,,,,64,0,11,,,,,4,,,47,100
25344,note_on,,,,,64,0,12,,,,,5,,,35,100
25344,note_on,,,,,0,0,13,,,,,6,,,62,100
25436,note_off,,,,,92,0,9,,,,,2,,,74,100
25436,note_off,,,,,92,0,8,,,,,1,,,74,100
25440,note_on,,,,,4,0,8,,,,,1,,,73,1
25440,note_on,,,,,4,0,9,,,,,2,,,73,100
25472,note_off,,,,,128,0,11,,,,,4,,,47,100
25472,note_off,,,,,128,0,14,,,,,6,,,47,100
25472,note_off,,,,,128,0,12,,,,,5,,,35,100
25472,note_off,,,,,128,0,13,,,,,6,,,66,100
25472,note_off,,,,,128,0,10,,,,,3,,,66,100
25472,note_off,,,,,0,0,13,,,,,6,,,62,100
25532,note_off,,,,,92,0,9,,,,,2,,,73,100
25532,note_off,,,,,92,0,8,,,,,1,,,73,100
25536,note_on,,,,,0,0,13,,,,,6,,,66,100
25536,note_on,,,,,64,0,14,,,,,6,,,50,100
25536,note_on,,,,,64,0,11,,,,,4,,,50,100
25536,note_on,,,,,64,0,10,,,,,3,,,66,100
25536,note_on,,,,,4,0,9,,,,,2,,,71,100
25536,note_on,,,,,64,0,13,,,,,6,,,69,100
25536,note_on,,,,,64,0,12,,,,,5,,,38,100
25536,note_on,,,,,4,0,8,,,,,1,,,71,1
25600,note_off,,,,,64,0,9,,,,,2,,,71,100
25600,note_off,,,,,64,0,8,,,,,1,,,71,100
25632,note_on,,,,,32,0,8,,,,,1,,,78,1
25632,note_on,,,,,32,0,9,,,,,2,,,78,100
25664,note_off,,,,,0,0,13,,,,,6,,,66,100
25664,note_off,,,,,128,0,13,,,,,6,,,69,100
25664,note_off,,,,,128,0,11,,,,,4,,,50,100
25664,note_off,,,,,128,0,10,,,,,3,,,66,100
25664,note_off,,,,,128,0,14,,,,,6,,,50,100
25664,note_off,,,,,128,0,12,,,,,5,,,38,100
25696,note_off,,,,,64,0,9,,,,,2,,,78,100
25696,note_off,,,,,64,0,8,,,,,1,,,78,100
25728,note_on,,,,,32,0,9,,,,,2,,,83,100
25728,note_on,,,,,64,0,14,,,,,6,,,50,100
25728,note_on,,,,,64,0,13,,,,,6,,,69,100
25728,note_on,,,,,64,0,10,,,,,3,,,66,100
25728,note_on,,,,,0,0,13,,,,,6,,,66,100
25728,note_on,,,,,64,0,11,,,,,4,,,50,100
25728,note_on,,,,,32,0,8,,,,,1,,,83,1
25728,note_on,,,,,64,0,12,,,,,5,,,38,100
25792,note_off,,,,,64,0,8,,,,,1,,,83,100
25792,note_off,,,,,64,0,9,,,,,2,,,83,100
25824,note_on,,,,,32,0,8,,,,,1,,,81,1
25824,note_on,,,,,32,0,9,,,,,2,,,81,100
25856,note_off,,,,,128,0,12,,,,,5,,,38,100
25856,note_off,,,,,128,0,14,,,,,6,,,50,100
25856,note_off,,,,,128,0,13,,,,,6,,,69,100
25856,note_off,,,,,128,0,11,,,,,4,,,50,100
25856,note_off,,,,,0,0,13,,,,,6,,,66,100
25856,note_off,,,,,128,0,10,,,,,3,,,66,100
25888,note_off,,,,,64,0,8,,,,,1,,,81,100
25888,note_off,,,,,64,0,9,,,,,2,,,81,100
25920,note_on,,,,,64,0,10,,,,,3,,,59,100
25920,note_on,,,,,64,0,14,,,,,6,,,52,100
25920,note_on,,,,,32,0,9,,,,,2,,,79,100
25920,note_on,,,,,0,0,13,,,,,6,,,67,100
25920,note_on,,,,,64,0,11,,,,,4,,,52,100
25920,note_on,,,,,64,0,13,,,,,6,,,71,100
25920,note_on,,,,,32,0,8,,,,,1,,,79,1
25920,note_on,,,,,64,0,12,,,,,5,,,40,100
26012,note_off,,,,,92,0,9,,,,,2,,,79,100
26012,note_off,,,,,92,0,8,,,,,1,,,79,100
26016,note_on,,,,,4,0,8,,,,,1,,,76,1
26016,note_on,,,,,4,0,9,,,,,2,,,76,100
26048,note_off,,,,,128,0,10,,,,,3,,,59,100
26048,note_off,,,,,128,0,12,,,,,5,,,40,100
26048,note_off,,,,,128,0,11,,,,,4,,,52,100
26048,note_off,,,,,128,0,13,,,,,6,,,71,100
26048,note_off,,,,,0,0,13,,,,,6,,,67,100
26048,note_off,,,,,128,0,14,,,,,6,,,52,100
26108,note_off,,,,,92,0,8,,,,,1,,,76,100
26108,note_off,,,,,92,0,9,,,,,2,,,76,100
26112,note_on,,,,,64,0,12,,,,,5,,,33,100
26112,note_on,,,,,64,0,13,,,,,6,,,64,100
26112,note_on,,,,,64,0,11,,,,,4,,,45,100
26112,note_on,,,,,4,0,8,,,,,1,,,73,1
26112,note_on,,,,,64,0,10,,,,,3,,,64,100
26112,note_on,,,,,0,0,13,,,,,6,,,67,100
26112,note_on,,,,,64,0,14,,,,,6,,,45,100
26112,note_on,,,,,4,0,9,,,,,2,,,73,100
26176,note_off,,,,,64,0,8,,,,,1,,,73,100
26176,note_off,,,,,64,0,9,,,,,2,,,73,100
26208,note_on,,,,,32,0,8,,,,,1,,,76,1
26208,note_on,,,,,32,0,9,,,,,2,,,76,100
26240,note_off,,,,,128,0,12,,,,,5,,,33,100
26240,note_off,,,,,128,0,11,,,,,4,,,45,100
26240,note_off,,,,,128,0,14,,,,,6,,,45,100
26240,note_off,,,,,128,0,10,,,,,3,,,64,100
26240,note_off,,,,,128,0,13,,,,,6,,,64,100
26240,note_off,,,,,0,0,13,,,,,6,,,67,100
26272,note_off,,,,,64,0,8,,,,,1,,,76,100
26272,note_off,,,,,64,0,9,,,,,2,,,76,100
26304,note_on,,,,,64,0,12,,,,,5,,,37,100
26304,note_on,,,,,64,0,11,,,,,4,,,49,100
26304,note_on,,,,,0,0,13,,,,,6,,,67,100
26304,note_on,,,,,64,0,13,,,,,6,,,64,100
26304,note_on,,,,,64,0,10,,,,,3,,,64,100
26304,note_on,,,,,64,0,14,,,,,6,,,49,100
26304,note_on,,,,,32,0,9,,,,,2,,,81,100
26304,note_on,,,,,32,0,8,,,,,1,,,81,1
26368,note_off,,,,,64,0,9,,,,,2,,,81,100
26368,note_off,,,,,64,0,8,,,,,1,,,81,100
26400,note_on,,,,,32,0,9,,,,,2,,,79,100
26400,note_on,,,,,32,0,8,,,,,1,,,79,1
26432,note_off,,,,,128,0,11,,,,,4,,,49,100
26432,note_off,,,,,128,0,14,,,,,6,,,49,100
26432,note_off,,,,,128,0,10,,,,,3,,,64,100
26432,note_off,,,,,128,0,13,,,,,6,,,64,100
26432,note_off,,,,,128,0,12,,,,,5,,,37,100
26432,note_off,,,,,0,0,13,,,,,6,,,67,100
26464,note_off,,,,,64,0,9,,,,,2,,,79,100
26464,note_off,,,,,64,0,8,,,,,1,,,79,100
26496,note_on,,,,,64,0,10,,,,,3,,,57,100
26496,note_on,,,,,32,0,9,,,,,2,,,78,100
26496,note_on,,,,,64,0,12,,,,,5,,,38,100
26496,note_on,,,,,64,0,11,,,,,4,,,50,100
26496,note_on,,,,,32,0,8,,,,,1,,,78,1
26496,note_on,,,,,64,0,14,,,,,6,,,50,100
26496,note_on,,,,,64,0,13,,,,,6,,,69,100
26496,note_on,,,,,0,0,13,,,,,6,,,66,100
26588,note_off,,,,,92,0,9,,,,,2,,,78,100
26588,note_off,,,,,92,0,8,,,,,1,,,78,100
26592,note_on,,,,,4,0,8,,,,,1,,,76,1
26592,note_on,,,,,4,0,9,,,,,2,,,76,100
26624,note_off,,,,,128,0,10,,,,,3,,,57,100
26624,note_off,,,,,128,0,14,,,,,6,,,50,100
26624,note_off,,,,,128,0,11,,,,,4,,,50,100
26624,note_off,,,,,128,0,12,,,,,5,,,38,100
26624,note_off,,,,,128,0,13,,,,,6,,,69,100
26624,note_off,,,,,0,0,13,,,,,6,,,66,100
26684,note_off,,,,,92,0,9,,,,,2,,,76,100
26684,note_off,,,,,92,0,8,,,,,1,,,76,100
26688,note_on,,,,,64,0,10,,,,,3,,,69,100
26688,note_on,,,,,4,0,8,,,,,1,,,74,1
26688,note_on,,,,,64,0,12,,,,,5,,,38,100
26688,note_on,,,,,64,0,11,,,,,4,,,50,100
26688,note_on,,,,,0,0,13,,,,,6,,,66,100
26688,note_on,,,,,64,0,13,,,,,6,,,69,100
26688,note_on,,,,,64,0,14,,,,,6,,,50,100
26688,note_on,,,,,4,0,9,,,,,2,,,74,100
26752,note_off,,,,,64,0,9,,,,,2,,,74,100
26752,note_off,,,,,64,0,8,,,,,1,,,74,100
26784,note_on,,,,,32,0,9,,,,,2,,,78,100
26784,note_on,,,,,32,0,8,,,,,1,,,78,1
26816,note_off,,,,,128,0,11,,,,,4,,,50,100
26816,note_off,,,,,128,0,12,,,,,5,,,38,100
26816,note_off,,,,,128,0,10,,,,,3,,,69,100
26816,note_off,,,,,128,0,14,,,,,6,,,50,100
26816,note_off,,,,,128,0,13,,,,,6,,,69,100
26816,note_off,,,,,0,0,13,,,,,6,,,66,100
26848,note_off,,,,,64,0,8,,,,,1,,,78,100
26848,note_off,,,,,64,0,9,,,,,2,,,78,100
26880,note_on,,,,,32,0,8,,,,,1,,,79,1
26880,note_on,,,,,64,0,14,,,,,6,,,47,100
26880,note_on,,,,,64,0,12,,,,,5,,,35,100
26880,note_on,,,,,64,0,10,,,,,3,,,74,100
26880,note_on,,,,,64,0,11,,,,,4,,,47,100
26880,note_on,,,,,64,0,13,,,,,6,,,66,100
26880,note_on,,,,,0,0,13,,,,,6,,,62,100
26880,note_on,,,,,32,0,9,,,,,2,,,79,100
26944,note_off,,,,,64,0,9,,,,,2,,,79,100
26944,note_off,,,,,64,0,8,,,,,1,,,79,100
26976,note_on,,,,,32,0,9,,,,,2,,,78,100
26976,note_on,,,,,32,0,8,,,,,1,,,78,1
27008,note_off,,,,,0,0,13,,,,,6,,,62,100
27008,note_off,,,,,128,0,11,,,,,4,,,47,100
27008,note_off,,,,,128,0,10,,,,,3,,,74,100
27008,note_off,,,,,128,0,12,,,,,5,,,35,100
27008,note_off,,,,,128,0,13,,,,,6,,,66,100
27008,note_off,,,,,128,0,14,,,,,6,,,47,100
27040,note_off,,,,,64,0,9,,,,,2,,,78,100
27040,note_off,,,,,64,0,8,,,,,1,,,78,100
27072,note_on,,,,,64,0,14,,,,,6,,,49,100
27072,note_on,,,,,32,0,8,,,,,1,,,76,1
27072,note_on,,,,,64,0,13,,,,,6,,,67,100
27072,note_on,,,,,64,0,12,,,,,5,,,37,100
27072,note_on,,,,,32,0,9,,,,,2,,,76,100
27072,note_on,,,,,64,0,10,,,,,3,,,68,100
27072,note_on,,,,,64,0,11,,,,,4,,,49,100
27072,note_on,,,,,0,0,13,,,,,6,,,64,100
27164,note_off,,,,,92,0,9,,,,,2,,,76,100
27164,note_off,,,,,92,0,8,,,,,1,,,76,100
27168,note_on,,,,,4,0,8,,,,,1,,,73,1
27168,note_on,,,,,4,0,9,,,,,2,,,73,100
27200,note_off,,,,,128,0,13,,,,,6,,,67,100
27200,note_off,,,,,0,0,13,,,,,6,,,64,100
27200,note_off,,,,,128,0,14,,,,,6,,,49,100
27200,note_off,,,,,128,0,12,,,,,5,,,37,100
27200,note_off,,,,,128,0,10,,,,,3,,,68,100
27200,note_off,,,,,128,0,11,,,,,4,,,49,100
27260,note_off,,,,,92,0,8,,,,,1,,,73,100
27260,note_off,,,,,92,0,9,,,,,2,,,73,100
27264,note_on,,,,,0,0,13,,,,,6,,,64,100
27264,note_on,,,,,64,0,10,,,,,3,,,73,100
27264,note_on,,,,,64,0,11,,,,,4,,,42,100
27264,note_on,,,,,64,0,13,,,,,6,,,61,100
27264,note_on,,,,,4,0,8,,,,,1,,,70,1
27264,note_on,,,,,4,0,9,,,,,2,,,70,100
27264,note_on,,,,,64,0,12,,,,,5,,,42,100
27264,note_on,,,,,64,0,14,,,,,6,,,42,100
27328,note_off,,,,,64,0,9,,,,,2,,,70,100
27328,note_off,,,,,64,0,8,,,,,1,,,70,100
27360,note_on,,,,,32,0,9,,,,,2,,,76,100
27360,note_on,,,,,32,0,8,,,,,1,,,76,1
27392,note_off,,,,,0,0,13,,,,,6,,,64,100
27392,note_off,,,,,128,0,11,,,,,4,,,42,100
27392,note_off,,,,,128,0,10,,,,,3,,,73,100
27392,note_off,,,,,128,0,13,,,,,6,,,61,100
27392,note_off,,,,,128,0,12,,,,,5,,,42,100
27392,note_off,,,,,128,0,14,,,,,6,,,42,100
27424,note_off,,,,,64,0,9,,,,,2,,,76,100
27424,note_off,,,,,64,0,8,,,,,1,,,76,100
27456,note_on,,,,,32,0,9,,,,,2,,,78,100
27456,note_on,,,,,32,0,8,,,,,1,,,78,1
27456,note_on,,,,,64,0,12,,,,,5,,,34,100
27456,note_on,,,,,0,0,13,,,,,6,,,64,100
27456,note_on,,,,,64,0,13,,,,,6,,,61,100
27456,note_on,,,,,64,0,10,,,,,3,,,73,100
27456,note_on,,,,,64,0,14,,,,,6,,,46,100
27456,note_on,,,,,64,0,11,,,,,4,,,46,100
27520,note_off,,,,,64,0,9,,,,,2,,,78,100
27520,note_off,,,,,64,0,8,,,,,1,,,78,100
27552,note_on,,,,,32,0,9,,,,,2,,,76,100
27552,note_on,,,,,32,0,8,,,,,1,,,76,1
27584,note_off,,,,,128,0,13,,,,,6,,,61,100
27584,note_off,,,,,128,0,12,,,,,5,,,34,100
27584,note_off,,,,,128,0,14,,,,,6,,,46,100
27584,note_off,,,,,0,0,13,,,,,6,,,64,100
27584,note_off,,,,,128,0,11,,,,,4,,,46,100
27584,note_off,,,,,128,0,10,,,,,3,,,73,100
27616,note_off,,,,,64,0,9,,,,,2,,,76,100
27616,note_off,,,,,64,0,8,,,,,1,,,76,100
27648,note_on,,,,,32,0,9,,,,,2,,,74,100
27648,note_on,,,,,32,0,8,,,,,1,,,74,1
27648,note_on,,,,,64,0,10,,,,,3,,,66,100
27648,note_on,,,,,64,0,13,,,,,6,,,66,100
27648,note_on,,,,,0,0,13,,,,,6,,,62,100
27648,note_on,,,,,64,0,12,,,,,5,,,35,100
27648,note_on,,,,,64,0,11,,,,,4,,,47,100
27648,note_on,,,,,64,0,14,,,,,6,,,47,100
27740,note_off,,,,,92,0,8,,,,,1,,,74,100
27740,note_off,,,,,92,0,9,,,,,2,,,74,100
27744,note_on,,,,,4,0,8,,,,,1,,,73,1
27744,note_on,,,,,4,0,9,,,,,2,,,73,100
27776,note_off,,,,,128,0,10,,,,,3,,,66,100
27776,note_off,,,,,128,0,13,,,,,6,,,66,100
27776,note_off,,,,,128,0,12,,,,,5,,,35,100
27776,note_off,,,,,0,0,13,,,,,6,,,62,100
27776,note_off,,,,,128,0,14,,,,,6,,,47,100
27776,note_off,,,,,128,0,11,,,,,4,,,47,100
27836,note_off,,,,,92,0,8,,,,,1,,,73,100
27836,note_off,,,,,92,0,9,,,,,2,,,73,100
27840,note_on,,,,,64,0,13,,,,,6,,,69,100
27840,note_on,,,,,64,0,10,,,,,3,,,66,100
27840,note_on,,,,,64,0,14,,,,,6,,,62,100
27840,note_on,,,,,4,0,8,,,,,1,,,71,1
27840,note_on,,,,,64,0,12,,,,,5,,,50,100
27840,note_on,,,,,4,0,9,,,,,2,,,71,100
27840,note_on,,,,,64,0,11,,,,,4,,,62,100
27840,note_on,,,,,0,0,13,,,,,6,,,66,100
27904,note_off,,,,,64,0,8,,,,,1,,,71,100
27904,note_off,,,,,64,0,9,,,,,2,,,71,100
27936,note_on,,,,,32,0,9,,,,,2,,,78,100
27936,note_on,,,,,32,0,8,,,,,1,,,78,1
27968,note_off,,,,,128,0,12,,,,,5,,,50,100
27968,note_off,,,,,128,0,13,,,,,6,,,69,100
27968,note_off,,,,,128,0,10,,,,,3,,,66,100
27968,note_off,,,,,128,0,11,,,,,4,,,62,100
27968,note_off,,,,,128,0,14,,,,,6,,,62,100
27968,note_off,,,,,0,0,13,,,,,6,,,66,100
28000,note_off,,,,,64,0,9,,,,,2,,,78,100
28000,note_off,,,,,64,0,8,,,,,1,,,78,100
28032,note_on,,,,,64,0,14,,,,,6,,,59,100
28032,note_on,,,,,64,0,13,,,,,6,,,62,100
28032,note_on,,,,,0,0,13,,,,,6,,,66,100
28032,note_on,,,,,64,0,10,,,,,3,,,62,100
28032,note_on,,,,,32,0,9,,,,,2,,,83,100
28032,note_on,,,,,64,0,12,,,,,5,,,47,100
28032,note_on,,,,,64,0,11,,,,,4,,,59,100
28032,note_on,,,,,32,0,8,,,,,1,,,83,1
28096,note_off,,,,,64,0,8,,,,,1,,,83,100
28096,note_off,,,,,64,0,9,,,,,2,,,83,100
28128,note_on,,,,,32,0,8,,,,,1,,,78,1
28128,note_on,,,,,32,0,9,,,,,2,,,78,100
28160,note_off,,,,,128,0,13,,,,,6,,,62,100
28160,note_off,,,,,128,0,12,,,,,5,,,47,100
28160,note_off,,,,,128,0,10,,,,,3,,,62,100
28160,note_off,,,,,128,0,14,,,,,6,,,59,100
28160,note_off,,,,,0,0,13,,,,,6,,,66,100
28160,note_off,,,,,128,0,11,,,,,4,,,59,100
28192,note_off,,,,,64,0,8,,,,,1,,,78,100
28192,note_off,,,,,64,0,9,,,,,2,,,78,100
28224,note_on,,,,,32,0,9,,,,,2,,,80,100
28224,note_on,,,,,64,0,13,,,,,6,,,67,100
28224,note_on,,,,,0,0,13,,,,,6,,,61,100
28224,note_on,,,,,64,0,10,,,,,3,,,61,100
28224,note_on,,,,,64,0,14,,,,,6,,,53,100
28224,note_on,,,,,64,0,12,,,,,5,,,41,100
28224,note_on,,,,,64,0,11,,,,,4,,,53,100
28224,note_on,,,,,32,0,8,,,,,1,,,80,1
28316,note_off,,,,,92,0,9,,,,,2,,,80,100
28316,note_off,,,,,92,0,8,,,,,1,,,80,100
28320,note_on,,,,,4,0,9,,,,,2,,,77,100
28320,note_on,,,,,4,0,8,,,,,1,,,77,1
28352,note_off,,,,,128,0,14,,,,,6,,,53,100
28352,note_off,,,,,128,0,12,,,,,5,,,41,100
28352,note_off,,,,,128,0,11,,,,,4,,,53,100
28352,note_off,,,,,128,0,10,,,,,3,,,61,100
28352,note_off,,,,,128,0,13,,,,,6,,,67,100
28352,note_off,,,,,0,0,13,,,,,6,,,61,100
28412,note_off,,,,,92,0,8,,,,,1,,,77,100
28412,note_off,,,,,92,0,9,,,,,2,,,77,100
28416,note_on,,,,,4,0,8,,,,,1,,,73,1
28416,note_on,,,,,64,0,12,,,,,5,,,41,100
28416,note_on,,,,,64,0,10,,,,,3,,,68,100
28416,note_on,,,,,0,0,13,,,,,6,,,61,100
28416,note_on,,,,,64,0,13,,,,,6,,,67,100
28416,note_on,,,,,4,0,9,,,,,2,,,73,100
28416,note_on,,,,,64,0,14,,,,,6,,,53,100
28416,note_on,,,,,64,0,11,,,,,4,,,53,100
28480,note_off,,,,,64,0,8,,,,,1,,,73,100
28480,note_off,,,,,64,0,9,,,,,2,,,73,100
28512,note_on,,,,,32,0,8,,,,,1,,,74,1
28512,note_on,,,,,32,0,9,,,,,2,,,74,100
28544,note_off,,,,,128,0,13,,,,,6,,,67,100
28544,note_off,,,,,128,0,12,,,,,5,,,41,100
28544,note_off,,,,,128,0,11,,,,,4,,,53,100
28544,note_off,,,,,128,0,14,,,,,6,,,53,100
28544,note_off,,,,,128,0,10,,,,,3,,,68,100
28544,note_off,,,,,0,0,13,,,,,6,,,61,100
28576,note_off,,,,,64,0,9,,,,,2,,,74,100
28576,note_off,,,,,64,0,8,,,,,1,,,74,100
28608,note_on,,,,,32,0,9,,,,,2,,,73,100
28608,note_on,,,,,64,0,12,,,,,5,,,41,100
28608,note_on,,,,,64,0,11,,,,,4,,,53,100
28608,note_on,,,,,32,0,8,,,,,1,,,73,1
28608,note_on,,,,,64,0,14,,,,,6,,,53,100
28608,note_on,,,,,0,0,13,,,,,6,,,61,100
28608,note_on,,,,,64,0,13,,,,,6,,,67,100
28608,note_on,,,,,64,0,10,,,,,3,,,68,100
28672,note_off,,,,,64,0,9,,,,,2,,,73,100
28672,note_off,,,,,64,0,8,,,,,1,,,73,100
28704,note_on,,,,,32,0,9,,,,,2,,,71,100
28704,note_on,,,,,32,0,8,,,,,1,,,71,1
28736,note_off,,,,,128,0,10,,,,,3,,,68,100
28736,note_off,,,,,128,0,13,,,,,6,,,67,100
28736,note_off,,,,,0,0,13,,,,,6,,,61,100
28736,note_off,,,,,128,0,11,,,,,4,,,53,100
28736,note_off,,,,,128,0,12,,,,,5,,,41,100
28736,note_off,,,,,128,0,14,,,,,6,,,53,100
28768,note_off,,,,,64,0,8,,,,,1,,,71,100
28768,note_off,,,,,64,0,9,,,,,2,,,71,100
28800,note_on,,,,,64,0,10,,,,,3,,,61,100
28800,note_on,,,,,32,0,9,,,,,2,,,69,100
28800,note_on,,,,,64,0,12,,,,,5,,,42,100
28800,note_on,,,,,64,0,14,,,,,6,,,54,100
28800,note_on,,,,,0,0,13,,,,,6,,,61,100
28800,note_on,,,,,64,0,11,,,,,4,,,54,100
28800,note_on,,,,,32,0,8,,,,,1,,,69,1
28800,note_on,,,,,64,0,13,,,,,6,,,69,100
28864,note_off,,,,,64,0,8,,,,,1,,,69,100
28864,note_off,,,,,64,0,9,,,,,2,,,69,100
28896,note_on,,,,,32,0,8,,,,,1,,,78,1
28896,note_on,,,,,32,0,9,,,,,2,,,78,100
28928,note_off,,,,,128,0,11,,,,,4,,,54,100
28928,note_off,,,,,128,0,13,,,,,6,,,69,100
28928,note_off,,,,,128,0,10,,,,,3,,,61,100
28928,note_off,,,,,128,0,14,,,,,6,,,54,100
28928,note_off,,,,,128,0,12,,,,,5,,,42,100
28928,note_off,,,,,0,0,13,,,,,6,,,61,100
28960,note_off,,,,,64,0,9,,,,,2,,,78,100
28960,note_off,,,,,64,0,8,,,,,1,,,78,100
28992,note_on,,,,,32,0,9,,,,,2,,,69,100
28992,note_on,,,,,64,0,10,,,,,3,,,66,100
28992,note_on,,,,,32,0,8,,,,,1,,,69,1
29056,note_off,,,,,64,0,8,,,,,1,,,69,100
29056,note_off,,,,,64,0,9,,,,,2,,,69,100
29088,note_on,,,,,32,0,8,,,,,1,,,78,1
29088,note_on,,,,,32,0,9,,,,,2,,,78,100
29120,note_off,,,,,128,0,10,,,,,3,,,66,100
29152,note_off,,,,,64,0,8,,,,,1,,,78,100
29152,note_off,,,,,64,0,9,,,,,2,,,78,100
29184,note_on,,,,,32,0,8,,,,,1,,,69,1
29184,note_on,,,,,64,0,10,,,,,3,,,66,100
29184,note_on,,,,,32,0,9,,,,,2,,,69,100
29248,note_off,,,,,64,0,8,,,,,1,,,69,100
29248,note_off,,,,,64,0,9,,,,,2,,,69,100
29280,note_on,,,,,32,0,9,,,,,2,,,78,100
29280,note_on,,,,,32,0,8,,,,,1,,,78,1
29312,note_off,,,,,128,0,10,,,,,3,,,66,100
29344,note_off,,,,,64,0,9,,,,,2,,,78,100
29344,note_off,,,,,64,0,8,,,,,1,,,78,100
29376,note_on,,,,,32,0,9,,,,,2,,,71,100
29376,note_on,,,,,448,0,11,,,,,4,,,56,100
29376,note_on,,,,,448,0,12,,,,,5,,,44,100
29376,note_on,,,,,448,0,13,,,,,6,,,62,100
29376,note_on,,,,,0,0,13,,,,,6,,,66,100
29376,note_on,,,,,32,0,8,,,,,1,,,71,1
29376,note_on,,,,,448,0,14,,,,,6,,,56,100
29440,note_off,,,,,64,0,9,,,,,2,,,71,100
29440,note_off,,,,,64,0,8,,,,,1,,,71,100
29472,note_on,,,,,32,0,9,,,,,2,,,78,100
29472,note_on,,,,,32,0,8,,,,,1,,,78,1
29504,note_off,,,,,128,0,12,,,,,5,,,44,100
29504,note_off,,,,,128,0,13,,,,,6,,,62,100
29504,note_off,,,,,128,0,11,,,,,4,,,56,100
29504,note_off,,,,,128,0,14,,,,,6,,,56,100
29504,note_off,,,,,0,0,13,,,,,6,,,66,100
29536,note_off,,,,,64,0,9,,,,,2,,,78,100
29536,note_off,,,,,64,0,8,,,,,1,,,78,100
29568,note_on,,,,,32,0,8,,,,,1,,,71,1
29568,note_on,,,,,256,0,10,,,,,3,,,68,100
29568,note_on,,,,,32,0,9,,,,,2,,,71,100
29632,note_off,,,,,64,0,8,,,,,1,,,71,100
29632,note_off,,,,,64,0,9,,,,,2,,,71,100
29664,note_on,,,,,32,0,9,,,,,2,,,78,100
29664,note_on,,,,,32,0,8,,,,,1,,,78,1
29696,note_off,,,,,128,0,10,,,,,3,,,68,100
29728,note_off,,,,,64,0,8,,,,,1,,,78,100
29728,note_off,,,,,64,0,9,,,,,2,,,78,100
29760,note_on,,,,,32,0,8,,,,,1,,,71,1
29760,note_on,,,,,32,0,9,,,,,2,,,71,100
29760,note_on,,,,,64,0,10,,,,,3,,,68,100
29824,note_off,,,,,64,0,8,,,,,1,,,71,100
29824,note_off,,,,,64,0,9,,,,,2,,,71,100
29856,note_on,,,,,32,0,8,,,,,1,,,78,1
29856,note_on,,,,,32,0,9,,,,,2,,,78,100
29888,note_off,,,,,128,0,10,,,,,3,,,68,100
29920,note_off,,,,,64,0,9,,,,,2,,,78,100
29920,note_off,,,,,64,0,8,,,,,1,,,78,100
29952,note_on,,,,,0,0,13,,,,,6,,,69,100
29952,note_on,,,,,448,0,12,,,,,5,,,45,100
29952,note_on,,,,,32,0,8,,,,,1,,,73,1
29952,note_on,,,,,32,0,9,,,,,2,,,73,100
29952,note_on,,,,,448,0,11,,,,,4,,,57,100
29952,note_on,,,,,448,0,14,,,,,6,,,57,100
29952,note_on,,,,,448,0,13,,,,,6,,,73,100
30016,note_off,,,,,64,0,9,,,,,2,,,73,100
30016,note_off,,,,,64,0,8,,,,,1,,,73,100
30048,note_on,,,,,32,0,8,,,,,1,,,78,1
30048,note_on,,,,,32,0,9,,,,,2,,,78,100
30080,note_off,,,,,128,0,11,,,,,4,,,57,100
30080,note_off,,,,,128,0,13,,,,,6,,,73,100
30080,note_off,,,,,128,0,14,,,,,6,,,57,100
30080,note_off,,,,,128,0,12,,,,,5,,,45,100
30080,note_off,,,,,0,0,13,,,,,6,,,69,100
30112,note_off,,,,,64,0,8,,,,,1,,,78,100
30112,note_off,,,,,64,0,9,,,,,2,,,78,100
30144,note_on,,,,,256,0,10,,,,,3,,,69,100
30144,note_on,,,,,32,0,8,,,,,1,,,73,1
30144,note_on,,,,,32,0,9,,,,,2,,,73,100
30208,note_off,,,,,64,0,8,,,,,1,,,73,100
30208,note_off,,,,,64,0,9,,,,,2,,,73,100
30240,note_on,,,,,32,0,9,,,,,2,,,78,100
30240,note_on,,,,,32,0,8,,,,,1,,,78,1
30272,note_off,,,,,128,0,10,,,,,3,,,69,100
30304,note_off,,,,,64,0,8,,,,,1,,,78,100
30304,note_off,,,,,64,0,9,,,,,2,,,78,100
30336,note_on,,,,,32,0,9,,,,,2,,,73,100
30336,note_on,,,,,32,0,8,,,,,1,,,73,1
30336,note_on,,,,,64,0,10,,,,,3,,,69,100
30400,note_off,,,,,64,0,8,,,,,1,,,73,100
30400,note_off,,,,,64,0,9,,,,,2,,,73,100
30432,note_on,,,,,32,0,8,,,,,1,,,78,1
30432,note_on,,,,,32,0,9,,,,,2,,,78,100
30464,note_off,,,,,128,0,10,,,,,3,,,69,100
30496,note_off,,,,,64,0,8,,,,,1,,,78,100
30496,note_off,,,,,64,0,9,,,,,2,,,78,100
30528,note_on,,,,,32,0,8,,,,,1,,,74,1
30528,note_on,,,,,448,0,12,,,,,5,,,47,100
30528,note_on,,,,,0,0,13,,,,,6,,,74,100
30528,note_on,,,,,448,0,13,,,,,6,,,78,100
30528,note_on,,,,,448,0,14,,,,,6,,,59,100
30528,note_on,,,,,32,0,9,,,,,2,,,74,100
30528,note_on,,,,,448,0,11,,,,,4,,,59,100
30592,note_off,,,,,64,0,9,,,,,2,,,74,100
30592,note_off,,,,,64,0,8,,,,,1,,,74,100
30624,note_on,,,,,32,0,9,,,,,2,,,78,100
30624,note_on,,,,,32,0,8,,,,,1,,,78,1
30656,note_off,,,,,0,0,13,,,,,6,,,74,100
30656,note_off,,,,,128,0,13,,,,,6,,,78,100
30656,note_off,,,,,128,0,11,,,,,4,,,59,100
30656,note_off,,,,,128,0,12,,,,,5,,,47,100
30656,note_off,,,,,128,0,14,,,,,6,,,59,100
30688,note_off,,,,,64,0,9,,,,,2,,,78,100
30688,note_off,,,,,64,0,8,,,,,1,,,78,100
30720,note_on,,,,,32,0,9,,,,,2,,,74,100
30720,note_on,,,,,256,0,10,,,,,3,,,71,100
30720,note_on,,,,,32,0,8,,,,,1,,,74,1
30784,note_off,,,,,64,0,9,,,,,2,,,74,100
30784,note_off,,,,,64,0,8,,,,,1,,,74,100
30816,note_on,,,,,32,0,8,,,,,1,,,78,1
30816,note_on,,,,,32,0,9,,,,,2,,,78,100
30848,note_off,,,,,128,0,10,,,,,3,,,71,100
30880,note_off,,,,,64,0,8,,,,,1,,,78,100
30880,note_off,,,,,64,0,9,,,,,2,,,78,100
30912,note_on,,,,,32,0,9,,,,,2,,,74,100
30912,note_on,,,,,32,0,8,,,,,1,,,74,1
30912,note_on,,,,,64,0,10,,,,,3,,,71,100
30976,note_off,,,,,64,0,9,,,,,2,,,74,100
30976,note_off,,,,,64,0,8,,,,,1,,,74,100
31008,note_on,,,,,32,0,8,,,,,1,,,78,1
31008,note_on,,,,,32,0,9,,,,,2,,,78,100
31040,note_off,,,,,128,0,10,,,,,3,,,71,100
31072,note_off,,,,,64,0,8,,,,,1,,,78,100
31072,note_off,,,,,64,0,9,,,,,2,,,78,100
31104,note_on,,,,,448,0,14,,,,,6,,,54,100
31104,note_on,,,,,448,0,11,,,,,4,,,54,100
31104,note_on,,,,,32,0,9,,,,,2,,,69,100
31104,note_on,,,,,0,0,13,,,,,6,,,69,100
31104,note_on,,,,,32,0,8,,,,,1,,,69,1
31104,note_on,,,,,448,0,12,,,,,5,,,42,100
31104,note_on,,,,,448,0,13,,,,,6,,,78,100
31168,note_off,,,,,64,0,9,,,,,2,,,69,100
31168,note_off,,,,,64,0,8,,,,,1,,,69,100
31200,note_on,,,,,32,0,9,,,,,2,,,78,100
31200,note_on,,,,,32,0,8,,,,,1,,,78,1
31232,note_off,,,,,128,0,13,,,,,6,,,78,100
31232,note_off,,,,,0,0,13,,,,,6,,,69,100
31232,note_off,,,,,128,0,14,,,,,6,,,54,100
31232,note_off,,,,,128,0,12,,,,,5,,,42,100
31232,note_off,,,,,128,0,11,,,,,4,,,54,100
31264,note_off,,,,,64,0,9,,,,,2,,,78,100
31264,note_off,,,,,64,0,8,,,,,1,,,78,100
31296,note_on,,,,,32,0,9,,,,,2,,,69,100
31296,note_on,,,,,256,0,10,,,,,3,,,66,100
31296,note_on,,,,,32,0,8,,,,,1,,,69,1
31360,note_off,,,,,64,0,8,,,,,1,,,69,100
31360,note_off,,,,,64,0,9,,,,,2,,,69,100
31392,note_on,,,,,32,0,8,,,,,1,,,78,1
31392,note_on,,,,,32,0,9,,,,,2,,,78,100
31424,note_off,,,,,128,0,10,,,,,3,,,66,100
31456,note_off,,,,,64,0,8,,,,,1,,,78,100
31456,note_off,,,,,64,0,9,,,,,2,,,78,100
31488,note_on,,,,,64,0,10,,,,,3,,,66,100
31488,note_on,,,,,32,0,8,,,,,1,,,69,1
31488,note_on,,,,,32,0,9,,,,,2,,,69,100
31552,note_off,,,,,64,0,8,,,,,1,,,69,100
31552,note_off,,,,,64,0,9,,,,,2,,,69,100
31584,note_on,,,,,32,0,8,,,,,1,,,78,1
31584,note_on,,,,,32,0,9,,,,,2,,,78,100
31616,note_off,,,,,128,0,10,,,,,3,,,66,100
31648,note_off,,,,,64,0,9,,,,,2,,,78,100
31648,note_off,,,,,64,0,8,,,,,1,,,78,100
31680,note_on,,,,,32,0,8,,,,,1,,,71,1
31680,note_on,,,,,448,0,14,,,,,6,,,56,100
31680,note_on,,,,,448,0,13,,,,,6,,,62,100
31680,note_on,,,,,448,0,11,,,,,4,,,56,100
31680,note_on,,,,,32,0,9,,,,,2,,,71,100
31680,note_on,,,,,448,0,12,,,,,5,,,44,100
31680,note_on,,,,,0,0,13,,,,,6,,,66,100
31744,note_off,,,,,64,0,9,,,,,2,,,71,100
31744,note_off,,,,,64,0,8,,,,,1,,,71,100
31776,note_on,,,,,32,0,9,,,,,2,,,78,100
31776,note_on,,,,,32,0,8,,,,,1,,,78,1
31808,note_off,,,,,128,0,13,,,,,6,,,62,100
31808,note_off,,,,,0,0,13,,,,,6,,,66,100
31808,note_off,,,,,128,0,12,,,,,5,,,44,100
31808,note_off,,,,,128,0,14,,,,,6,,,56,100
31808,note_off,,,,,128,0,11,,,,,4,,,56,100
31840,note_off,,,,,64,0,9,,,,,2,,,78,100
31840,note_off,,,,,64,0,8,,,,,1,,,78,100
31872,note_on,,,,,32,0,8,,,,,1,,,71,1
31872,note_on,,,,,256,0,10,,,,,3,,,68,100
31872,note_on,,,,,32,0,9,,,,,2,,,71,100
31936,note_off,,,,,64,0,9,,,,,2,,,71,100
31936,note_off,,,,,64,0,8,,,,,1,,,71,100
31968,note_on,,,,,32,0,9,,,,,2,,,78,100
31968,note_on,,,,,32,0,8,,,,,1,,,78,1
32000,note_off,,,,,128,0,10,,,,,3,,,68,100
32032,note_off,,,,,64,0,8,,,,,1,,,78,100
32032,note_off,,,,,64,0,9,,,,,2,,,78,100
32064,note_on,,,,,32,0,8,,,,,1,,,71,1
32064,note_on,,,,,64,0,10,,,,,3,,,68,100
32064,note_on,,,,,32,0,9,,,,,2,,,71,100
32128,note_off,,,,,64,0,9,,,,,2,,,71,100
32128,note_off,,,,,64,0,8,,,,,1,,,71,100
32160,note_on,,,,,32,0,8,,,,,1,,,78,1
32160,note_on,,,,,32,0,9,,,,,2,,,78,100
32192,note_off,,,,,128,0,10,,,,,3,,,68,100
32224,note_off,,,,,64,0,9,,,,,2,,,78,100
32224,note_off,,,,,64,0,8,,,,,1,,,78,100
32256,note_on,,,,,32,0,8,,,,,1,,,73,1
32256,note_on,,,,,32,0,9,,,,,2,,,73,100
32256,note_on,,,,,64,0,10,,,,,3,,,68,100
32256,note_on,,,,,448,0,13,,,,,6,,,66,100
32256,note_on,,,,,448,0,12,,,,,5,,,37,100
32256,note_on,,,,,448,0,14,,,,,6,,,49,100
32256,note_on,,,,,0,0,13,,,,,6,,,68,100
32256,note_on,,,,,448,0,11,,,,,4,,,49,100
32320,note_off,,,,,64,0,8,,,,,1,,,73,100
32320,note_off,,,,,64,0,9,,,,,2,,,73,100
32352,note_on,,,,,32,0,8,,,,,1,,,78,1
32352,note_on,,,,,32,0,9,,,,,2,,,78,100
32416,note_off,,,,,64,0,8,,,,,1,,,78,100
32416,note_off,,,,,64,0,9,,,,,2,,,78,100
32448,note_on,,,,,32,0,9,,,,,2,,,73,100
32448,note_on,,,,,32,0,8,,,,,1,,,73,1
32512,note_off,,,,,256,0,13,,,,,6,,,66,100
32512,note_off,,,,,256,0,11,,,,,4,,,49,100
32512,note_off,,,,,64,0,8,,,,,1,,,73,100
32512,note_off,,,,,256,0,10,,,,,3,,,68,100
32512,note_off,,,,,256,0,14,,,,,6,,,49,100
32512,note_off,,,,,0,0,13,,,,,6,,,68,100
32512,note_off,,,,,64,0,9,,,,,2,,,73,100
32512,note_off,,,,,256,0,12,,,,,5,,,37,100
32544,note_on,,,,,32,0,8,,,,,1,,,78,1
32544,note_on,,,,,32,0,9,,,,,2,,,78,100
32608,note_off,,,,,64,0,9,,,,,2,,,78,100
32608,note_off,,,,,64,0,8,,,,,1,,,78,100
32640,note_on,,,,,32,0,9,,,,,2,,,73,100
32640,note_on,,,,,128,0,13,,,,,6,,,65,100
32640,note_on,,,,,32,0,8,,,,,1,,,73,1
32640,note_on,,,,,128,0,11,,,,,4,,,49,100
32640,note_on,,,,,128,0,10,,,,,3,,,68,100
32640,note_on,,,,,128,0,14,,,,,6,,,49,100
32640,note_on,,,,,0,0,13,,,,,6,,,68,100
32640,note_on,,,,,128,0,12,,,,,5,,,37,100
32704,note_off,,,,,64,0,9,,,,,2,,,73,100
32704,note_off,,,,,64,0,8,,,,,1,,,73,100
32736,note_on,,,,,32,0,9,,,,,2,,,77,100
32736,note_on,,,,,32,0,8,,,,,1,,,77,1
32768,note_off,,,,,128,0,12,,,,,5,,,37,100
32768,note_off,,,,,128,0,14,,,,,6,,,49,100
32768,note_off,,,,,128,0,11,,,,,4,,,49,100
32768,note_off,,,,,128,0,13,,,,,6,,,65,100
32768,note_off,,,,,0,0,13,,,,,6,,,68,100
32768,note_off,,,,,128,0,10,,,,,3,,,68,100
32800,note_off,,,,,64,0,8,,,,,1,,,77,100
32800,note_off,,,,,64,0,9,,,,,2,,,77,100
32832,note_on,,,,,64,0,13,,,,,6,,,73,100
32832,note_on,,,,,64,0,10,,,,,3,,,69,100
32832,note_on,,,,,0,0,13,,,,,6,,,69,100
32832,note_on,,,,,0,0,13,,,,,6,,,66,100
32832,note_on,,,,,32,0,9,,,,,2,,,78,100
32832,note_on,,,,,64,0,11,,,,,4,,,42,100
32832,note_on,,,,,32,0,8,,,,,1,,,78,1
32832,note_on,,,,,8512,0,7,,,,,0,,,78,100
32832,note_on,,,,,64,0,12,,,,,5,,,42,100
32832,note_on,,,,,64,0,14,,,,,6,,,42,100
32864,note_off,,,,,32,0,7,,,,,0,,,78,100
32880,note_on,,,,,16,0,7,,,,,0,,,73,100
32912,note_off,,,,,32,0,7,,,,,0,,,73,100
32928,note_on,,,,,16,0,7,,,,,0,,,73,100
32960,note_off,,,,,128,0,10,,,,,3,,,69,100
32960,note_off,,,,,128,0,8,,,,,1,,,78,100
32960,note_off,,,,,128,0,9,,,,,2,,,78,100
32960,note_off,,,,,32,0,7,,,,,0,,,73,100
32976,note_on,,,,,16,0,7,,,,,0,,,78,100
33008,note_off,,,,,32,0,7,,,,,0,,,78,100
33024,note_on,,,,,64,0,10,,,,,3,,,70,60
33024,note_on,,,,,64,0,9,,,,,2,,,70,60
33024,note_on,,,,,16,0,7,,,,,0,,,78,100
33024,note_on,,,,,64,0,8,,,,,1,,,70,60
33056,note_off,,,,,32,0,7,,,,,0,,,78,100
33072,note_on,,,,,16,0,7,,,,,0,,,73,100
33088,note_off,,,,,256,0,14,,,,,6,,,42,100
33088,note_off,,,,,256,0,11,,,,,4,,,42,100
33088,note_off,,,,,0,0,13,,,,,6,,,69,100
33088,note_off,,,,,256,0,12,,,,,5,,,42,100
33088,note_off,,,,,0,0,13,,,,,6,,,66,100
33088,note_off,,,,,256,0,13,,,,,6,,,73,100
33104,note_off,,,,,32,0,7,,,,,0,,,73,100
33120,note_on,,,,,16,0,7,,,,,0,,,73,100
33152,note_off,,,,,32,0,7,,,,,0,,,73,100
33152,note_off,,,,,128,0,9,,,,,2,,,70,100
33152,note_off,,,,,128,0,10,,,,,3,,,70,100
33152,note_off,,,,,128,0,8,,,,,1,,,70,100
33168,note_on,,,,,16,0,7,,,,,0,,,78,100
33200,note_off,,,,,32,0,7,,,,,0,,,78,100
33216,note_on,,,,,64,0,8,,,,,1,,,70,60
33216,note_on,,,,,16,0,7,,,,,0,,,78,100
33216,note_on,,,,,64,0,9,,,,,2,,,70,60
33216,note_on,,,,,64,0,10,,,,,3,,,70,60
33248,note_off,,,,,32,0,7,,,,,0,,,78,100
33264,note_on,,,,,16,0,7,,,,,0,,,73,100
33296,note_off,,,,,32,0,7,,,,,0,,,73,100
33312,note_on,,,,,16,0,7,,,,,0,,,73,100
33344,note_off,,,,,128,0,10,,,,,3,,,70,100
33344,note_off,,,,,128,0,9,,,,,2,,,70,100
33344,note_off,,,,,32,0,7,,,,,0,,,73,100
33344,note_off,,,,,128,0,8,,,,,1,,,70,100
33360,note_on,,,,,16,0,7,,,,,0,,,78,100
33392,note_off,,,,,32,0,7,,,,,0,,,78,100
33408,note_on,,,,,64,0,9,,,,,2,,,71,60
33408,note_on,,,,,16,0,7,,,,,0,,,75,100
33408,note_on,,,,,64,0,10,,,,,3,,,71,60
33408,note_on,,,,,64,0,8,,,,,1,,,71,60
33440,note_off,,,,,32,0,7,,,,,0,,,75,100
33456,note_on,,,,,16,0,7,,,,,0,,,71,100
33488,note_off,,,,,32,0,7,,,,,0,,,71,100
33504,note_on,,,,,16,0,7,,,,,0,,,71,100
33536,note_off,,,,,128,0,8,,,,,1,,,71,100
33536,note_off,,,,,128,0,9,,,,,2,,,71,100
33536,note_off,,,,,128,0,10,,,,,3,,,71,100
33536,note_off,,,,,32,0,7,,,,,0,,,71,100
33552,note_on,,,,,16,0,7,,,,,0,,,75,100
33584,note_off,,,,,32,0,7,,,,,0,,,75,100
33600,note_on,,,,,64,0,10,,,,,3,,,71,60
33600,note_on,,,,,16,0,7,,,,,0,,,75,100
33600,note_on,,,,,64,0,9,,,,,2,,,71,60
33600,note_on,,,,,64,0,8,,,,,1,,,71,60
33632,note_off,,,,,32,0,7,,,,,0,,,75,100
33648,note_on,,,,,16,0,7,,,,,0,,,71,100
33680,note_off,,,,,32,0,7,,,,,0,,,71,100
33696,note_on,,,,,16,0,7,,,,,0,,,71,100
33728,note_off,,,,,128,0,10,,,,,3,,,71,100
33728,note_off,,,,,128,0,9,,,,,2,,,71,100
33728,note_off,,,,,128,0,8,,,,,1,,,71,100
33728,note_off,,,,,32,0,7,,,,,0,,,71,100
33744,note_on,,,,,16,0,7,,,,,0,,,75,100
33776,note_off,,,,,32,0,7,,,,,0,,,75,100
33792,note_on,,,,,64,0,8,,,,,1,,,69,60
33792,note_on,,,,,64,0,10,,,,,3,,,69,60
33792,note_on,,,,,64,0,9,,,,,2,,,69,60
33792,note_on,,,,,16,0,7,,,,,0,,,75,100
33824,note_off,,,,,32,0,7,,,,,0,,,75,100
33840,note_on,,,,,16,0,7,,,,,0,,,71,100
33872,note_off,,,,,32,0,7,,,,,0,,,71,100
33888,note_on,,,,,16,0,7,,,,,0,,,71,100
33920,note_off,,,,,32,0,7,,,,,0,,,71,100
33920,note_off,,,,,128,0,9,,,,,2,,,69,100
33920,note_off,,,,,128,0,8,,,,,1,,,69,100
33920,note_off,,,,,128,0,10,,,,,3,,,69,100
33936,note_on,,,,,16,0,7,,,,,0,,,75,100
33968,note_off,,,,,32,0,7,,,,,0,,,75,100
33984,note_on,,,,,64,0,10,,,,,3,,,68,60
33984,note_on,,,,,64,0,8,,,,,1,,,68,60
33984,note_on,,,,,16,0,7,,,,,0,,,76,100
33984,note_on,,,,,64,0,9,,,,,2,,,68,60
34016,note_off,,,,,32,0,7,,,,,0,,,76,100
34032,note_on,,,,,16,0,7,,,,,0,,,71,100
34064,note_off,,,,,32,0,7,,,,,0,,,71,100
34080,note_on,,,,,16,0,7,,,,,0,,,71,100
34112,note_off,,,,,128,0,9,,,,,2,,,68,100
34112,note_off,,,,,128,0,10,,,,,3,,,68,100
34112,note_off,,,,,128,0,8,,,,,1,,,68,100
34112,note_off,,,,,32,0,7,,,,,0,,,71,100
34128,note_on,,,,,16,0,7,,,,,0,,,76,100
34160,note_off,,,,,32,0,7,,,,,0,,,76,100
34176,note_on,,,,,16,0,7,,,,,0,,,76,100
34176,note_on,,,,,64,0,10,,,,,3,,,68,60
34176,note_on,,,,,64,0,9,,,,,2,,,68,60
34176,note_on,,,,,64,0,8,,,,,1,,,68,60
34208,note_off,,,,,32,0,7,,,,,0,,,76,100
34224,note_on,,,,,16,0,7,,,,,0,,,71,100
34256,note_off,,,,,32,0,7,,,,,0,,,71,100
34272,note_on,,,,,16,0,7,,,,,0,,,71,100
34304,note_off,,,,,32,0,7,,,,,0,,,71,100
34304,note_off,,,,,128,0,8,,,,,1,,,68,100
34304,note_off,,,,,128,0,9,,,,,2,,,68,100
34304,note_off,,,,,128,0,10,,,,,3,,,68,100
34320,note_on,,,,,16,0,7,,,,,0,,,76,100
34352,note_off,,,,,32,0,7,,,,,0,,,76,100
34368,note_on,,,,,64,0,10,,,,,3,,,68,60
34368,note_on,,,,,16,0,7,,,,,0,,,76,100
34368,note_on,,,,,64,0,9,,,,,2,,,68,60
34368,note_on,,,,,64,0,8,,,,,1,,,68,60
34400,note_off,,,,,32,0,7,,,,,0,,,76,100
34416,note_on,,,,,16,0,7,,,,,0,,,71,100
34448,note_off,,,,,32,0,7,,,,,0,,,71,100
34464,note_on,,,,,16,0,7,,,,,0,,,71,100
34496,note_off,,,,,32,0,7,,,,,0,,,71,100
34496,note_off,,,,,128,0,8,,,,,1,,,68,100
34496,note_off,,,,,128,0,9,,,,,2,,,68,100
34496,note_off,,,,,128,0,10,,,,,3,,,68,100
34512,note_on,,,,,16,0,7,,,,,0,,,76,100
34544,note_off,,,,,32,0,7,,,,,0,,,76,100
34560,note_on,,,,,64,0,10,,,,,3,,,69,60
34560,note_on,,,,,64,0,8,,,,,1,,,69,60
34560,note_on,,,,,16,0,7,,,,,0,,,73,100
34560,note_on,,,,,64,0,9,,,,,2,,,69,60
34592,note_off,,,,,32,0,7,,,,,0,,,73,100
34608,note_on,,,,,16,0,7,,,,,0,,,69,100
34640,note_off,,,,,32,0,7,,,,,0,,,69,100
34656,note_on,,,,,16,0,7,,,,,0,,,69,100
34688,note_off,,,,,128,0,8,,,,,1,,,69,100
34688,note_off,,,,,128,0,9,,,,,2,,,69,100
34688,note_off,,,,,128,0,10,,,,,3,,,69,100
34688,note_off,,,,,32,0,7,,,,,0,,,69,100
34704,note_on,,,,,16,0,7,,,,,0,,,73,100
34736,note_off,,,,,32,0,7,,,,,0,,,73,100
34752,note_on,,,,,16,0,7,,,,,0,,,73,100
34752,note_on,,,,,64,0,10,,,,,3,,,69,60
34752,note_on,,,,,64,0,9,,,,,2,,,69,60
34752,note_on,,,,,64,0,8,,,,,1,,,69,60
34784,note_off,,,,,32,0,7,,,,,0,,,73,100
34800,note_on,,,,,16,0,7,,,,,0,,,69,100
34832,note_off,,,,,32,0,7,,,,,0,,,69,100
34848,note_on,,,,,16,0,7,,,,,0,,,69,100
34880,note_off,,,,,128,0,8,,,,,1,,,69,100
34880,note_off,,,,,32,0,7,,,,,0,,,69,100
34880,note_off,,,,,128,0,10,,,,,3,,,69,100
34880,note_off,,,,,128,0,9,,,,,2,,,69,100
34896,note_on,,,,,16,0,7,,,,,0,,,73,100
34928,note_off,,,,,32,0,7,,,,,0,,,73,100
34944,note_on,,,,,16,0,7,,,,,0,,,73,100
34944,note_on,,,,,64,0,8,,,,,1,,,67,60
34944,note_on,,,,,64,0,9,,,,,2,,,67,60
34944,note_on,,,,,64,0,10,,,,,3,,,67,60
34976,note_off,,,,,32,0,7,,,,,0,,,73,100
34992,note_on,,,,,16,0,7,,,,,0,,,69,100
35024,note_off,,,,,32,0,7,,,,,0,,,69,100
35040,note_on,,,,,16,0,7,,,,,0,,,69,100
35072,note_off,,,,,128,0,9,,,,,2,,,67,100
35072,note_off,,,,,128,0,10,,,,,3,,,67,100
35072,note_off,,,,,32,0,7,,,,,0,,,69,100
35072,note_off,,,,,128,0,8,,,,,1,,,67,100
35088,note_on,,,,,16,0,7,,,,,0,,,73,100
35120,note_off,,,,,32,0,7,,,,,0,,,73,100
35136,note_on,,,,,64,0,8,,,,,1,,,66,60
35136,note_on,,,,,16,0,7,,,,,0,,,74,100
35136,note_on,,,,,64,0,9,,,,,2,,,66,60
35136,note_on,,,,,64,0,10,,,,,3,,,66,60
35168,note_off,,,,,32,0,7,,,,,0,,,74,100
35184,note_on,,,,,16,0,7,,,,,0,,,69,100
35216,note_off,,,,,32,0,7,,,,,0,,,69,100
35232,note_on,,,,,16,0,7,,,,,0,,,69,100
35264,note_off,,,,,32,0,7,,,,,0,,,69,100
35264,note_off,,,,,128,0,8,,,,,1,,,66,100
35264,note_off,,,,,128,0,9,,,,,2,,,66,100
35264,note_off,,,,,128,0,10,,,,,3,,,66,100
35280,note_on,,,,,16,0,7,,,,,0,,,74,100
35312,note_off,,,,,32,0,7,,,,,0,,,74,100
35328,note_on,,,,,64,0,9,,,,,2,,,66,60
35328,note_on,,,,,64,0,10,,,,,3,,,66,60
35328,note_on,,,,,64,0,8,,,,,1,,,66,60
35328,note_on,,,,,16,0,7,,,,,0,,,74,100
35360,note_off,,,,,32,0,7,,,,,0,,,74,100
35376,note_on,,,,,16,0,7,,,,,0,,,69,100
35408,note_off,,,,,32,0,7,,,,,0,,,69,100
35424,note_on,,,,,16,0,7,,,,,0,,,69,100
35456,note_off,,,,,128,0,10,,,,,3,,,66,100
35456,note_off,,,,,128,0,9,,,,,2,,,66,100
35456,note_off,,,,,32,0,7,,,,,0,,,69,100
35456,note_off,,,,,128,0,8,,,,,1,,,66,100
35472,note_on,,,,,16,0,7,,,,,0,,,74,100
35504,note_off,,,,,32,0,7,,,,,0,,,74,100
35520,note_on,,,,,64,0,8,,,,,1,,,66,60
35520,note_on,,,,,16,0,7,,,,,0,,,74,100
35520,note_on,,,,,64,0,10,,,,,3,,,66,60
35520,note_on,,,,,64,0,9,,,,,2,,,66,60
35552,note_off,,,,,32,0,7,,,,,0,,,74,100
35568,note_on,,,,,16,0,7,,,,,0,,,69,100
35600,note_off,,,,,32,0,7,,,,,0,,,69,100
35616,note_on,,,,,16,0,7,,,,,0,,,69,100
35648,note_off,,,,,128,0,9,,,,,2,,,66,100
35648,note_off,,,,,128,0,10,,,,,3,,,66,100
35648,note_off,,,,,128,0,8,,,,,1,,,66,100
35648,note_off,,,,,32,0,7,,,,,0,,,69,100
35664,note_on,,,,,16,0,7,,,,,0,,,74,100
35696,note_off,,,,,32,0,7,,,,,0,,,74,100
35712,note_on,,,,,64,0,10,,,,,3,,,67,60
35712,note_on,,,,,16,0,7,,,,,0,,,74,100
35712,note_on,,,,,64,0,9,,,,,2,,,67,60
35712,note_on,,,,,64,0,8,,,,,1,,,67,60
35744,note_off,,,,,32,0,7,,,,,0,,,74,100
35760,note_on,,,,,16,0,7,,,,,0,,,71,100
35792,note_off,,,,,32,0,7,,,,,0,,,71,100
35808,note_on,,,,,16,0,7,,,,,0,,,71,100
35840,note_off,,,,,128,0,8,,,,,1,,,67,100
35840,note_off,,,,,128,0,10,,,,,3,,,67,100
35840,note_off,,,,,128,0,9,,,,,2,,,67,100
35840,note_off,,,,,32,0,7,,,,,0,,,71,100
35856,note_on,,,,,16,0,7,,,,,0,,,74,100
35888,note_off,,,,,32,0,7,,,,,0,,,74,100
35904,note_on,,,,,64,0,8,,,,,1,,,67,60
35904,note_on,,,,,16,0,7,,,,,0,,,74,100
35904,note_on,,,,,64,0,10,,,,,3,,,67,60
35904,note_on,,,,,64,0,9,,,,,2,,,67,60
35936,note_off,,,,,32,0,7,,,,,0,,,74,100
35952,note_on,,,,,16,0,7,,,,,0,,,71,100
35984,note_off,,,,,32,0,7,,,,,0,,,71,100
36000,note_on,,,,,16,0,7,,,,,0,,,71,100
36032,note_off,,,,,32,0,7,,,,,0,,,71,100
36032,note_off,,,,,128,0,9,,,,,2,,,67,100
36032,note_off,,,,,128,0,10,,,,,3,,,67,100
36032,note_off,,,,,128,0,8,,,,,1,,,67,100
36048,note_on,,,,,16,0,7,,,,,0,,,74,100
36080,note_off,,,,,32,0,7,,,,,0,,,74,100
36096,note_on,,,,,16,0,7,,,,,0,,,74,100
36096,note_on,,,,,64,0,9,,,,,2,,,67,60
36096,note_on,,,,,64,0,10,,,,,3,,,67,60
36096,note_on,,,,,64,0,8,,,,,1,,,67,60
36128,note_off,,,,,32,0,7,,,,,0,,,74,100
36144,note_on,,,,,16,0,7,,,,,0,,,71,100
36176,note_off,,,,,32,0,7,,,,,0,,,71,100
36192,note_on,,,,,16,0,7,,,,,0,,,71,100
36224,note_off,,,,,128,0,9,,,,,2,,,67,100
36224,note_off,,,,,128,0,8,,,,,1,,,67,100
36224,note_off,,,,,32,0,7,,,,,0,,,71,100
36224,note_off,,,,,128,0,10,,,,,3,,,67,100
36240,note_on,,,,,16,0,7,,,,,0,,,74,100
36272,note_off,,,,,32,0,7,,,,,0,,,74,100
36288,note_on,,,,,64,0,9,,,,,2,,,68,60
36288,note_on,,,,,64,0,10,,,,,3,,,68,60
36288,note_on,,,,,64,0,8,,,,,1,,,68,60
36288,note_on,,,,,16,0,7,,,,,0,,,76,100
36320,note_off,,,,,32,0,7,,,,,0,,,76,100
36336,note_on,,,,,16,0,7,,,,,0,,,71,100
36368,note_off,,,,,32,0,7,,,,,0,,,71,100
36384,note_on,,,,,16,0,7,,,,,0,,,71,100
36416,note_off,,,,,32,0,7,,,,,0,,,71,100
36416,note_off,,,,,128,0,9,,,,,2,,,68,100
36416,note_off,,,,,128,0,10,,,,,3,,,68,100
36416,note_off,,,,,128,0,8,,,,,1,,,68,100
36432,note_on,,,,,16,0,7,,,,,0,,,76,100
36464,note_off,,,,,32,0,7,,,,,0,,,76,100
36480,note_on,,,,,16,0,7,,,,,0,,,76,100
36480,note_on,,,,,64,0,10,,,,,3,,,68,60
36480,note_on,,,,,64,0,9,,,,,2,,,68,60
36480,note_on,,,,,64,0,8,,,,,1,,,68,60
36512,note_off,,,,,32,0,7,,,,,0,,,76,100
36528,note_on,,,,,16,0,7,,,,,0,,,71,100
36560,note_off,,,,,32,0,7,,,,,0,,,71,100
36576,note_on,,,,,16,0,7,,,,,0,,,71,100
36608,note_off,,,,,128,0,9,,,,,2,,,68,100
36608,note_off,,,,,128,0,10,,,,,3,,,68,100
36608,note_off,,,,,32,0,7,,,,,0,,,71,100
36608,note_off,,,,,128,0,8,,,,,1,,,68,100
36624,note_on,,,,,16,0,7,,,,,0,,,76,100
36656,note_off,,,,,32,0,7,,,,,0,,,76,100
36672,note_on,,,,,64,0,8,,,,,1,,,68,60
36672,note_on,,,,,64,0,10,,,,,3,,,68,60
36672,note_on,,,,,64,0,9,,,,,2,,,68,60
36672,note_on,,,,,16,0,7,,,,,0,,,76,100
36704,note_off,,,,,32,0,7,,,,,0,,,76,100
36720,note_on,,,,,16,0,7,,,,,0,,,71,100
36752,note_off,,,,,32,0,7,,,,,0,,,71,100
36768,note_on,,,,,16,0,7,,,,,0,,,71,100
36800,note_off,,,,,128,0,8,,,,,1,,,68,100
36800,note_off,,,,,32,0,7,,,,,0,,,71,100
36800,note_off,,,,,128,0,9,,,,,2,,,68,100
36800,note_off,,,,,128,0,10,,,,,3,,,68,100
36816,note_on,,,,,16,0,7,,,,,0,,,76,100
36848,note_off,,,,,32,0,7,,,,,0,,,76,100
36864,note_on,,,,,64,0,10,,,,,3,,,69,60
36864,note_on,,,,,16,0,7,,,,,0,,,76,100
36864,note_on,,,,,64,0,8,,,,,1,,,69,60
36864,note_on,,,,,64,0,9,,,,,2,,,69,60
36896,note_off,,,,,32,0,7,,,,,0,,,76,100
36912,note_on,,,,,16,0,7,,,,,0,,,73,100
36944,note_off,,,,,32,0,7,,,,,0,,,73,100
36960,note_on,,,,,16,0,7,,,,,0,,,73,100
36992,note_off,,,,,32,0,7,,,,,0,,,73,100
36992,note_off,,,,,128,0,9,,,,,2,,,69,100
36992,note_off,,,,,128,0,10,,,,,3,,,69,100
36992,note_off,,,,,128,0,8,,,,,1,,,69,100
37008,note_on,,,,,16,0,7,,,,,0,,,76,100
37040,note_off,,,,,32,0,7,,,,,0,,,76,100
37056,note_on,,,,,64,0,9,,,,,2,,,69,60
37056,note_on,,,,,64,0,10,,,,,3,,,69,60
37056,note_on,,,,,64,0,8,,,,,1,,,69,60
37056,note_on,,,,,16,0,7,,,,,0,,,76,100
37088,note_off,,,,,32,0,7,,,,,0,,,76,100
37104,note_on,,,,,16,0,7,,,,,0,,,73,100
37136,note_off,,,,,32,0,7,,,,,0,,,73,100
37152,note_on,,,,,16,0,7,,,,,0,,,73,100
37184,note_off,,,,,128,0,8,,,,,1,,,69,100
37184,note_off,,,,,128,0,10,,,,,3,,,69,100
37184,note_off,,,,,128,0,9,,,,,2,,,69,100
37184,note_off,,,,,32,0,7,,,,,0,,,73,100
37200,note_on,,,,,16,0,7,,,,,0,,,76,100
37232,note_off,,,,,32,0,7,,,,,0,,,76,100
37248,note_on,,,,,64,0,10,,,,,3,,,69,60
37248,note_on,,,,,64,0,8,,,,,1,,,69,60
37248,note_on,,,,,16,0,7,,,,,0,,,76,100
37248,note_on,,,,,64,0,9,,,,,2,,,69,60
37280,note_off,,,,,32,0,7,,,,,0,,,76,100
37296,note_on,,,,,16,0,7,,,,,0,,,73,100
37328,note_off,,,,,32,0,7,,,,,0,,,73,100
37344,note_on,,,,,16,0,7,,,,,0,,,73,100
37376,note_off,,,,,128,0,10,,,,,3,,,69,100
37376,note_off,,,,,128,0,8,,,,,1,,,69,100
37376,note_off,,,,,128,0,9,,,,,2,,,69,100
37376,note_off,,,,,32,0,7,,,,,0,,,73,100
37392,note_on,,,,,16,0,7,,,,,0,,,76,100
37424,note_off,,,,,32,0,7,,,,,0,,,76,100
37440,note_on,,,,,64,0,10,,,,,3,,,70,60
37440,note_on,,,,,64,0,9,,,,,2,,,70,60
37440,note_on,,,,,16,0,7,,,,,0,,,78,100
37440,note_on,,,,,64,0,8,,,,,1,,,70,60
37472,note_off,,,,,32,0,7,,,,,0,,,78,100
37488,note_on,,,,,16,0,7,,,,,0,,,73,100
37520,note_off,,,,,32,0,7,,,,,0,,,73,100
37536,note_on,,,,,16,0,7,,,,,0,,,73,100
37568,note_off,,,,,32,0,7,,,,,0,,,73,100
37568,note_off,,,,,128,0,8,,,,,1,,,70,100
37568,note_off,,,,,128,0,10,,,,,3,,,70,100
37568,note_off,,,,,128,0,9,,,,,2,,,70,100
37584,note_on,,,,,16,0,7,,,,,0,,,78,100
37616,note_off,,,,,32,0,7,,,,,0,,,78,100
37632,note_on,,,,,64,0,8,,,,,1,,,70,60
37632,note_on,,,,,64,0,10,,,,,3,,,70,60
37632,note_on,,,,,16,0,7,,,,,0,,,78,100
37632,note_on,,,,,64,0,9,,,,,2,,,70,60
37664,note_off,,,,,32,0,7,,,,,0,,,78,100
37680,note_on,,,,,16,0,7,,,,,0,,,73,100
37712,note_off,,,,,32,0,7,,,,,0,,,73,100
37728,note_on,,,,,16,0,7,,,,,0,,,73,100
37760,note_off,,,,,32,0,7,,,,,0,,,73,100
37760,note_off,,,,,128,0,10,,,,,3,,,70,100
37760,note_off,,,,,128,0,9,,,,,2,,,70,100
37760,note_off,,,,,128,0,8,,,,,1,,,70,100
37776,note_on,,,,,16,0,7,,,,,0,,,78,100
37808,note_off,,,,,32,0,7,,,,,0,,,78,100
37824,note_on,,,,,64,0,10,,,,,3,,,70,60
37824,note_on,,,,,16,0,7,,,,,0,,,78,100
37824,note_on,,,,,64,0,8,,,,,1,,,70,60
37824,note_on,,,,,64,0,9,,,,,2,,,70,60
37856,note_off,,,,,32,0,7,,,,,0,,,78,100
37872,note_on,,,,,16,0,7,,,,,0,,,73,100
37904,note_off,,,,,32,0,7,,,,,0,,,73,100
37920,note_on,,,,,16,0,7,,,,,0,,,73,100
37952,note_off,,,,,128,0,9,,,,,2,,,70,100
37952,note_off,,,,,128,0,8,,,,,1,,,70,100
37952,note_off,,,,,32,0,7,,,,,0,,,73,100
37952,note_off,,,,,128,0,10,,,,,3,,,70,100
37968,note_on,,,,,16,0,7,,,,,0,,,78,100
38000,note_off,,,,,32,0,7,,,,,0,,,78,100
38016,note_on,,,,,64,0,8,,,,,1,,,71,60
38016,note_on,,,,,16,0,7,,,,,0,,,78,100
38016,note_on,,,,,64,0,10,,,,,3,,,71,60
38016,note_on,,,,,64,0,9,,,,,2,,,71,60
38048,note_off,,,,,32,0,7,,,,,0,,,78,100
38064,note_on,,,,,16,0,7,,,,,0,,,74,100
38096,note_off,,,,,32,0,7,,,,,0,,,74,100
38112,note_on,,,,,16,0,7,,,,,0,,,74,100
38144,note_off,,,,,128,0,8,,,,,1,,,71,100
38144,note_off,,,,,128,0,10,,,,,3,,,71,100
38144,note_off,,,,,128,0,9,,,,,2,,,71,100
38144,note_off,,,,,32,0,7,,,,,0,,,74,100
38160,note_on,,,,,16,0,7,,,,,0,,,78,100
38192,note_off,,,,,32,0,7,,,,,0,,,78,100
38208,note_on,,,,,16,0,7,,,,,0,,,78,100
38208,note_on,,,,,64,0,9,,,,,2,,,71,60
38208,note_on,,,,,64,0,10,,,,,3,,,71,60
38208,note_on,,,,,64,0,8,,,,,1,,,71,60
38240,note_off,,,,,32,0,7,,,,,0,,,78,100
38256,note_on,,,,,16,0,7,,,,,0,,,74,100
38288,note_off,,,,,32,0,7,,,,,0,,,74,100
38304,note_on,,,,,16,0,7,,,,,0,,,74,100
38336,note_off,,,,,32,0,7,,,,,0,,,74,100
38336,note_off,,,,,128,0,9,,,,,2,,,71,100
38336,note_off,,,,,128,0,10,,,,,3,,,71,100
38336,note_off,,,,,128,0,8,,,,,1,,,71,100
38352,note_on,,,,,16,0,7,,,,,0,,,78,100
38384,note_off,,,,,32,0,7,,,,,0,,,78,100
38400,note_on,,,,,64,0,10,,,,,3,,,71,60
38400,note_on,,,,,64,0,8,,,,,1,,,71,60
38400,note_on,,,,,16,0,7,,,,,0,,,78,100
38400,note_on,,,,,64,0,9,,,,,2,,,71,60
38432,note_off,,,,,32,0,7,,,,,0,,,78,100
38448,note_on,,,,,16,0,7,,,,,0,,,74,100
38480,note_off,,,,,32,0,7,,,,,0,,,74,100
38496,note_on,,,,,16,0,7,,,,,0,,,74,100
38528,note_off,,,,,128,0,9,,,,,2,,,71,100
38528,note_off,,,,,128,0,10,,,,,3,,,71,100
38528,note_off,,,,,32,0,7,,,,,0,,,74,100
38528,note_off,,,,,128,0,8,,,,,1,,,71,100
38544,note_on,,,,,16,0,7,,,,,0,,,78,100
38576,note_off,,,,,32,0,7,,,,,0,,,78,100
38592,note_on,,,,,16,0,7,,,,,0,,,79,100
38592,note_on,,,,,64,0,8,,,,,1,,,71,60
38592,note_on,,,,,64,0,10,,,,,3,,,71,60
38592,note_on,,,,,64,0,9,,,,,2,,,71,60
38624,note_off,,,,,32,0,7,,,,,0,,,79,100
38640,note_on,,,,,16,0,7,,,,,0,,,74,100
38672,note_off,,,,,32,0,7,,,,,0,,,74,100
38688,note_on,,,,,16,0,7,,,,,0,,,74,100
38720,note_off,,,,,128,0,8,,,,,1,,,71,100
38720,note_off,,,,,128,0,10,,,,,3,,,71,100
38720,note_off,,,,,32,0,7,,,,,0,,,74,100
38720,note_off,,,,,128,0,9,,,,,2,,,71,100
38736,note_on,,,,,16,0,7,,,,,0,,,79,100
38768,note_off,,,,,32,0,7,,,,,0,,,79,100
38784,note_on,,,,,64,0,9,,,,,2,,,71,60
38784,note_on,,,,,64,0,10,,,,,3,,,71,60
38784,note_on,,,,,64,0,8,,,,,1,,,71,60
38784,note_on,,,,,16,0,7,,,,,0,,,79,100
38816,note_off,,,,,32,0,7,,,,,0,,,79,100
38832,note_on,,,,,16,0,7,,,,,0,,,74,100
38864,note_off,,,,,32,0,7,,,,,0,,,74,100
38880,note_on,,,,,16,0,7,,,,,0,,,74,100
38912,note_off,,,,,128,0,9,,,,,2,,,71,100
38912,note_off,,,,,32,0,7,,,,,0,,,74,100
38912,note_off,,,,,128,0,8,,,,,1,,,71,100
38912,note_off,,,,,128,0,10,,,,,3,,,71,100
38928,note_on,,,,,16,0,7,,,,,0,,,79,100
38960,note_off,,,,,32,0,7,,,,,0,,,79,100
38976,note_on,,,,,64,0,8,,,,,1,,,71,60
38976,note_on,,,,,64,0,10,,,,,3,,,71,60
38976,note_on,,,,,64,0,9,,,,,2,,,71,60
38976,note_on,,,,,16,0,7,,,,,0,,,79,100
39008,note_off,,,,,32,0,7,,,,,0,,,79,100
39024,note_on,,,,,16,0,7,,,,,0,,,74,100
39056,note_off,,,,,32,0,7,,,,,0,,,74,100
39072,note_on,,,,,16,0,7,,,,,0,,,74,100
39104,note_off,,,,,32,0,7,,,,,0,,,74,100
39104,note_off,,,,,128,0,9,,,,,2,,,71,100
39104,note_off,,,,,128,0,10,,,,,3,,,71,100
39104,note_off,,,,,128,0,8,,,,,1,,,71,100
39120,note_on,,,,,16,0,7,,,,,0,,,79,100
39152,note_off,,,,,32,0,7,,,,,0,,,79,100
39168,note_on,,,,,64,0,9,,,,,2,,,69,100
39168,note_on,,,,,0,0,13,,,,,6,,,73,100
39168,note_on,,,,,64,0,10,,,,,3,,,64,100
39168,note_on,,,,,6080,0,14,,,,,6,,,57,100
39168,note_on,,,,,64,0,8,,,,,1,,,73,100
39168,note_on,,,,,6080,0,13,,,,,6,,,76,100
39168,note_on,,,,,16,0,7,,,,,0,,,73,100
39168,note_on,,,,,6080,0,12,,,,,5,,,45,100
39168,note_on,,,,,6080,0,11,,,,,4,,,57,100
39232,note_off,,,,,64,0,8,,,,,1,,,73,100
39232,note_off,,,,,64,0,9,,,,,2,,,69,100
39264,note_on,,,,,32,0,9,,,,,2,,,69,100
39264,note_on,,,,,32,0,8,,,,,1,,,69,1
39328,note_off,,,,,64,0,9,,,,,2,,,69,100
39328,note_off,,,,,64,0,8,,,,,1,,,69,100
39360,note_on,,,,,32,0,9,,,,,2,,,69,100
39360,note_on,,,,,32,0,8,,,,,1,,,69,1
39424,note_off,,,,,64,0,8,,,,,1,,,69,100
39424,note_off,,,,,0,0,13,,,,,6,,,73,100
39424,note_off,,,,,256,0,13,,,,,6,,,76,100
39424,note_off,,,,,256,0,11,,,,,4,,,57,100
39424,note_off,,,,,256,0,7,,,,,0,,,73,100
39424,note_off,,,,,64,0,9,,,,,2,,,69,100
39424,note_off,,,,,256,0,14,,,,,6,,,57,100
39424,note_off,,,,,256,0,10,,,,,3,,,64,100
39424,note_off,,,,,256,0,12,,,,,5,,,45,100
39456,note_on,,,,,32,0,8,,,,,1,,,71,1
39456,note_on,,,,,32,0,9,,,,,2,,,71,100
39520,note_off,,,,,64,0,8,,,,,1,,,71,100
39520,note_off,,,,,64,0,9,,,,,2,,,71,100
39552,note_on,,,,,32,0,8,,,,,1,,,72,1
39552,note_on,,,,,0,0,13,,,,,6,,,62,100
39552,note_on,,,,,128,0,13,,,,,6,,,60,100
39552,note_on,,,,,128,0,10,,,,,3,,,69,100
39552,note_on,,,,,32,0,9,,,,,2,,,72,100
39552,note_on,,,,,128,0,11,,,,,4,,,54,100
39552,note_on,,,,,128,0,12,,,,,5,,,42,100
39552,note_on,,,,,128,0,14,,,,,6,,,54,100
39616,note_off,,,,,64,0,9,,,,,2,,,72,100
39616,note_off,,,,,64,0,8,,,,,1,,,72,100
39648,note_on,,,,,32,0,9,,,,,2,,,72,100
39648,note_on,,,,,32,0,8,,,,,1,,,72,1
39680,note_off,,,,,128,0,13,,,,,6,,,60,100
39680,note_off,,,,,0,0,13,,,,,6,,,62,100
39680,note_off,,,,,128,0,10,,,,,3,,,69,100
39680,note_off,,,,,128,0,14,,,,,6,,,54,100
39680,note_off,,,,,128,0,11,,,,,4,,,54,100
39680,note_off,,,,,128,0,12,,,,,5,,,42,100
39712,note_off,,,,,64,0,9,,,,,2,,,72,100
39712,note_off,,,,,64,0,8,,,,,1,,,72,100
39744,note_on,,,,,64,0,12,,,,,5,,,43,100
39744,note_on,,,,,0,0,13,,,,,6,,,62,100
39744,note_on,,,,,64,0,13,,,,,6,,,60,100
39744,note_on,,,,,64,0,10,,,,,3,,,62,100
39744,note_on,,,,,32,0,8,,,,,1,,,72,1
39744,note_on,,,,,64,0,11,,,,,4,,,55,100
39744,note_on,,,,,64,0,14,,,,,6,,,55,100
39744,note_on,,,,,32,0,9,,,,,2,,,72,100
39808,note_off,,,,,64,0,8,,,,,1,,,72,100
39808,note_off,,,,,64,0,9,,,,,2,,,72,100
39840,note_on,,,,,32,0,8,,,,,1,,,71,1
39840,note_on,,,,,32,0,9,,,,,2,,,71,100
39872,note_off,,,,,128,0,13,,,,,6,,,60,100
39872,note_off,,,,,0,0,13,,,,,6,,,62,100
39904,note_off,,,,,64,0,9,,,,,2,,,71,100
39904,note_off,,,,,64,0,8,,,,,1,,,71,100
39936,note_on,,,,,32,0,8,,,,,1,,,71,1
39936,note_on,,,,,64,0,13,,,,,6,,,59,100
39936,note_on,,,,,32,0,9,,,,,2,,,71,100
39936,note_on,,,,,0,0,13,,,,,6,,,62,100
40000,note_off,,,,,256,0,10,,,,,3,,,62,100
40000,note_off,,,,,256,0,12,,,,,5,,,43,100
40000,note_off,,,,,256,0,11,,,,,4,,,55,100
40000,note_off,,,,,256,0,14,,,,,6,,,55,100
40000,note_off,,,,,64,0,8,,,,,1,,,71,100
40000,note_off,,,,,64,0,9,,,,,2,,,71,100
40032,note_on,,,,,32,0,8,,,,,1,,,73,1
40032,note_on,,,,,32,0,9,,,,,2,,,73,100
40064,note_off,,,,,0,0,13,,,,,6,,,62,100
40064,note_off,,,,,128,0,13,,,,,6,,,59,100
40096,note_off,,,,,64,0,9,,,,,2,,,73,100
40096,note_off,,,,,64,0,8,,,,,1,,,73,100
40128,note_on,,,,,32,0,8,,,,,1,,,74,1
40128,note_on,,,,,32,0,9,,,,,2,,,74,100
40128,note_on,,,,,128,0,11,,,,,4,,,56,100
40128,note_on,,,,,128,0,12,,,,,5,,,44,100
40128,note_on,,,,,128,0,14,,,,,6,,,56,100
40128,note_on,,,,,0,0,13,,,,,6,,,62,100
40128,note_on,,,,,64,0,13,,,,,6,,,64,100
40128,note_on,,,,,128,0,10,,,,,3,,,71,100
40192,note_off,,,,,64,0,8,,,,,1,,,74,100
40192,note_off,,,,,64,0,9,,,,,2,,,74,100
40224,note_on,,,,,32,0,8,,,,,1,,,74,1
40224,note_on,,,,,32,0,9,,,,,2,,,74,100
40256,note_off,,,,,128,0,14,,,,,6,,,56,100
40256,note_off,,,,,128,0,12,,,,,5,,,44,100
40256,note_off,,,,,128,0,11,,,,,4,,,56,100
40256,note_off,,,,,128,0,13,,,,,6,,,64,100
40256,note_off,,,,,0,0,13,,,,,6,,,62,100
40256,note_off,,,,,128,0,10,,,,,3,,,71,100
40288,note_off,,,,,64,0,9,,,,,2,,,74,100
40288,note_off,,,,,64,0,8,,,,,1,,,74,100
40320,note_on,,,,,64,0,12,,,,,5,,,45,100
40320,note_on,,,,,32,0,8,,,,,1,,,74,1
40320,note_on,,,,,64,0,11,,,,,4,,,57,100
40320,note_on,,,,,0,0,13,,,,,6,,,64,100
40320,note_on,,,,,64,0,13,,,,,6,,,62,100
40320,note_on,,,,,64,0,14,,,,,6,,,57,100
40320,note_on,,,,,64,0,10,,,,,3,,,64,100
40320,note_on,,,,,32,0,9,,,,,2,,,74,100
40384,note_off,,,,,64,0,9,,,,,2,,,74,100
40384,note_off,,,,,64,0,8,,,,,1,,,74,100
40416,note_on,,,,,32,0,9,,,,,2,,,73,100
40416,note_on,,,,,32,0,8,,,,,1,,,73,1
40448,note_off,,,,,0,0,13,,,,,6,,,64,100
40448,note_off,,,,,128,0,13,,,,,6,,,62,100
40480,note_off,,,,,64,0,9,,,,,2,,,73,100
40480,note_off,,,,,64,0,8,,,,,1,,,73,100
40512,note_on,,,,,32,0,8,,,,,1,,,73,1
40512,note_on,,,,,0,0,13,,,,,6,,,64,100
40512,note_on,,,,,32,0,9,,,,,2,,,73,100
40512,note_on,,,,,64,0,13,,,,,6,,,61,100
40576,note_off,,,,,256,0,12,,,,,5,,,45,100
40576,note_off,,,,,64,0,9,,,,,2,,,73,100
40576,note_off,,,,,256,0,10,,,,,3,,,64,100
40576,note_off,,,,,256,0,11,,,,,4,,,57,100
40576,note_off,,,,,256,0,14,,,,,6,,,57,100
40576,note_off,,,,,64,0,8,,,,,1,,,73,100
40608,note_on,,,,,32,0,8,,,,,1,,,74,1
40608,note_on,,,,,32,0,9,,,,,2,,,74,100
40640,note_off,,,,,0,0,13,,,,,6,,,64,100
40640,note_off,,,,,128,0,13,,,,,6,,,61,100
40672,note_off,,,,,64,0,9,,,,,2,,,74,100
40672,note_off,,,,,64,0,8,,,,,1,,,74,100
40704,note_on,,,,,32,0,9,,,,,2,,,76,100
40704,note_on,,,,,128,0,14,,,,,6,,,58,100
40704,note_on,,,,,128,0,12,,,,,5,,,46,100
40704,note_on,,,,,128,0,10,,,,,3,,,73,100
40704,note_on,,,,,32,0,8,,,,,1,,,76,1
40704,note_on,,,,,64,0,13,,,,,6,,,66,100
40704,note_on,,,,,0,0,13,,,,,6,,,64,100
40704,note_on,,,,,128,0,11,,,,,4,,,58,100
40768,note_off,,,,,64,0,9,,,,,2,,,76,100
40768,note_off,,,,,64,0,8,,,,,1,,,76,100
40800,note_on,,,,,32,0,9,,,,,2,,,76,100
40800,note_on,,,,,32,0,8,,,,,1,,,76,1
40832,note_off,,,,,128,0,13,,,,,6,,,66,100
40832,note_off,,,,,0,0,13,,,,,6,,,64,100
40832,note_off,,,,,128,0,10,,,,,3,,,73,100
40832,note_off,,,,,128,0,12,,,,,5,,,46,100
40832,note_off,,,,,128,0,11,,,,,4,,,58,100
40832,note_off,,,,,128,0,14,,,,,6,,,58,100
40864,note_off,,,,,64,0,9,,,,,2,,,76,100
40864,note_off,,,,,64,0,8,,,,,1,,,76,100
40896,note_on,,,,,64,0,12,,,,,5,,,47,100
40896,note_on,,,,,64,0,11,,,,,4,,,59,100
40896,note_on,,,,,64,0,10,,,,,3,,,66,100
40896,note_on,,,,,32,0,8,,,,,1,,,76,1
40896,note_on,,,,,64,0,13,,,,,6,,,64,100
40896,note_on,,,,,64,0,14,,,,,6,,,59,100
40896,note_on,,,,,32,0,9,,,,,2,,,76,100
40896,note_on,,,,,0,0,13,,,,,6,,,66,100
40960,note_off,,,,,64,0,9,,,,,2,,,76,100
40960,note_off,,,,,64,0,8,,,,,1,,,76,100
40992,note_on,,,,,32,0,9,,,,,2,,,74,100
40992,note_on,,,,,32,0,8,,,,,1,,,74,1
41024,note_off,,,,,0,0,13,,,,,6,,,66,100
41024,note_off,,,,,128,0,13,,,,,6,,,64,100
41056,note_off,,,,,64,0,9,,,,,2,,,74,100
41056,note_off,,,,,64,0,8,,,,,1,,,74,100
41088,note_on,,,,,0,0,13,,,,,6,,,66,100
41088,note_on,,,,,32,0,9,,,,,2,,,74,100
41088,note_on,,,,,32,0,8,,,,,1,,,74,1
41088,note_on,,,,,64,0,13,,,,,6,,,62,100
41152,note_off,,,,,256,0,12,,,,,5,,,47,100
41152,note_off,,,,,64,0,9,,,,,2,,,74,100
41152,note_off,,,,,256,0,14,,,,,6,,,59,100
41152,note_off,,,,,256,0,11,,,,,4,,,59,100
41152,note_off,,,,,64,0,8,,,,,1,,,74,100
41152,note_off,,,,,256,0,10,,,,,3,,,66,100
41184,note_on,,,,,32,0,8,,,,,1,,,76,1
41184,note_on,,,,,32,0,9,,,,,2,,,76,100
41216,note_off,,,,,128,0,13,,,,,6,,,62,100
41216,note_off,,,,,0,0,13,,,,,6,,,66,100
41248,note_off,,,,,64,0,8,,,,,1,,,76,100
41248,note_off,,,,,64,0,9,,,,,2,,,76,100
41280,note_on,,,,,128,0,14,,,,,6,,,59,100
41280,note_on,,,,,32,0,9,,,,,2,,,78,100
41280,note_on,,,,,128,0,12,,,,,5,,,47,100
41280,note_on,,,,,128,0,11,,,,,4,,,59,100
41280,note_on,,,,,64,0,13,,,,,6,,,67,100
41280,note_on,,,,,0,0,13,,,,,6,,,66,100
41280,note_on,,,,,32,0,8,,,,,1,,,78,1
41280,note_on,,,,,128,0,10,,,,,3,,,74,100
41344,note_off,,,,,64,0,8,,,,,1,,,78,100
41344,note_off,,,,,64,0,9,,,,,2,,,78,100
41376,note_on,,,,,32,0,9,,,,,2,,,78,100
41376,note_on,,,,,32,0,8,,,,,1,,,78,1
41408,note_off,,,,,0,0,13,,,,,6,,,66,100
41408,note_off,,,,,128,0,13,,,,,6,,,67,100
41408,note_off,,,,,128,0,11,,,,,4,,,59,100
41408,note_off,,,,,128,0,12,,,,,5,,,47,100
41408,note_off,,,,,128,0,14,,,,,6,,,59,100
41408,note_off,,,,,128,0,10,,,,,3,,,74,100
41440,note_off,,,,,64,0,8,,,,,1,,,78,100
41440,note_off,,,,,64,0,9,,,,,2,,,78,100
41472,note_on,,,,,64,0,13,,,,,6,,,71,100
41472,note_on,,,,,64,0,12,,,,,5,,,40,100
41472,note_on,,,,,64,0,11,,,,,4,,,52,100
41472,note_on,,,,,64,0,10,,,,,3,,,71,100
41472,note_on,,,,,0,0,13,,,,,6,,,67,100
41472,note_on,,,,,32,0,8,,,,,1,,,79,1
41472,note_on,,,,,64,0,14,,,,,6,,,52,100
41472,note_on,,,,,32,0,9,,,,,2,,,79,100
41568,note_off,,,,,96,0,8,,,,,1,,,79,100
41568,note_off,,,,,96,0,9,,,,,2,,,79,100
41616,note_on,,,,,48,0,8,,,,,1,,,81,1
41616,note_on,,,,,48,0,9,,,,,2,,,81,100
41648,note_off,,,,,32,0,9,,,,,2,,,81,100
41648,note_off,,,,,32,0,8,,,,,1,,,81,100
41664,note_on,,,,,16,0,9,,,,,2,,,79,100
41664,note_on,,,,,16,0,8,,,,,1,,,79,1
41728,note_off,,,,,256,0,12,,,,,5,,,40,100
41728,note_off,,,,,64,0,9,,,,,2,,,79,100
41728,note_off,,,,,0,0,13,,,,,6,,,67,100
41728,note_off,,,,,256,0,10,,,,,3,,,71,100
41728,note_off,,,,,64,0,8,,,,,1,,,79,100
41728,note_off,,,,,256,0,13,,,,,6,,,71,100
41728,note_off,,,,,256,0,11,,,,,4,,,52,100
41728,note_off,,,,,256,0,14,,,,,6,,,52,100
41760,note_on,,,,,32,0,9,,,,,2,,,78,100
41760,note_on,,,,,32,0,8,,,,,1,,,78,1
41824,note_off,,,,,64,0,8,,,,,1,,,78,100
41824,note_off,,,,,64,0,9,,,,,2,,,78,100
41856,note_on,,,,,128,0,14,,,,,6,,,56,100
41856,note_on,,,,,32,0,8,,,,,1,,,76,1
41856,note_on,,,,,128,0,11,,,,,4,,,56,100
41856,note_on,,,,,0,0,13,,,,,6,,,74,100
41856,note_on,,,,,128,0,13,,,,,6,,,76,100
41856,note_on,,,,,128,0,10,,,,,3,,,71,100
41856,note_on,,,,,128,0,12,,,,,5,,,44,100
41856,note_on,,,,,32,0,9,,,,,2,,,76,100
41920,note_off,,,,,64,0,9,,,,,2,,,76,100
41920,note_off,,,,,64,0,8,,,,,1,,,76,100
41952,note_on,,,,,32,0,9,,,,,2,,,74,100
41952,note_on,,,,,32,0,8,,,,,1,,,74,1
41984,note_off,,,,,128,0,11,,,,,4,,,56,100
41984,note_off,,,,,128,0,10,,,,,3,,,71,100
41984,note_off,,,,,128,0,14,,,,,6,,,56,100
41984,note_off,,,,,128,0,12,,,,,5,,,44,100
41984,note_off,,,,,128,0,13,,,,,6,,,76,100
41984,note_off,,,,,0,0,13,,,,,6,,,74,100
42016,note_off,,,,,64,0,8,,,,,1,,,74,100
42016,note_off,,,,,64,0,9,,,,,2,,,74,100
42048,note_on,,,,,64,0,12,,,,,5,,,45,100
42048,note_on,,,,,32,0,8,,,,,1,,,73,1
42048,note_on,,,,,64,0,11,,,,,4,,,57,100
42048,note_on,,,,,64,0,13,,,,,6,,,76,100
42048,note_on,,,,,0,0,13,,,,,6,,,73,100
42048,note_on,,,,,2624,0,7,,,,,0,,,73,100
42048,note_on,,,,,64,0,10,,,,,3,,,64,100
42048,note_on,,,,,32,0,9,,,,,2,,,73,100
42048,note_on,,,,,64,0,14,,,,,6,,,57,100
42112,note_off,,,,,64,0,7,,,,,0,,,73,100
42144,note_on,,,,,32,0,7,,,,,0,,,69,100
42208,note_off,,,,,64,0,7,,,,,0,,,69,100
42240,note_on,,,,,32,0,7,,,,,0,,,69,100
42304,note_off,,,,,256,0,12,,,,,5,,,45,100
42304,note_off,,,,,256,0,11,,,,,4,,,57,100
42304,note_off,,,,,64,0,7,,,,,0,,,69,100
42304,note_off,,,,,256,0,8,,,,,1,,,73,100
42304,note_off,,,,,256,0,10,,,,,3,,,64,100
42304,note_off,,,,,256,0,13,,,,,6,,,76,100
42304,note_off,,,,,256,0,9,,,,,2,,,73,100
42304,note_off,,,,,0,0,13,,,,,6,,,73,100
42304,note_off,,,,,256,0,14,,,,,6,,,57,100
42336,note_on,,,,,32,0,7,,,,,0,,,71,100
42400,note_off,,,,,64,0,7,,,,,0,,,71,100
42432,note_on,,,,,128,0,11,,,,,4,,,54,85
42432,note_on,,,,,128,0,14,,,,,6,,,54,100
42432,note_on,,,,,128,0,12,,,,,5,,,42,85
42432,note_on,,,,,128,0,13,,,,,6,,,60,100
42432,note_on,,,,,0,0,13,,,,,6,,,62,100
42432,note_on,,,,,32,0,7,,,,,0,,,72,100
42496,note_off,,,,,64,0,7,,,,,0,,,72,100
42528,note_on,,,,,32,0,7,,,,,0,,,72,100
42560,note_off,,,,,128,0,11,,,,,4,,,54,100
42560,note_off,,,,,0,0,13,,,,,6,,,62,100
42560,note_off,,,,,128,0,13,,,,,6,,,60,100
42560,note_off,,,,,128,0,12,,,,,5,,,42,100
42560,note_off,,,,,128,0,14,,,,,6,,,54,100
42592,note_off,,,,,64,0,7,,,,,0,,,72,100
42624,note_on,,,,,64,0,12,,,,,5,,,43,85
42624,note_on,,,,,64,0,14,,,,,6,,,55,100
42624,note_on,,,,,64,0,13,,,,,6,,,60,100
42624,note_on,,,,,0,0,13,,,,,6,,,62,100
42624,note_on,,,,,32,0,7,,,,,0,,,72,100
42624,note_on,,,,,64,0,11,,,,,4,,,55,85
42652,note_off,,,,,28,0,7,,,,,0,,,72,100
42656,note_on,,,,,4,0,7,,,,,0,,,74,100
42684,note_off,,,,,28,0,7,,,,,0,,,74,100
42688,note_on,,,,,4,0,7,,,,,0,,,72,100
42708,note_off,,,,,20,0,7,,,,,0,,,72,100
42720,note_on,,,,,12,0,7,,,,,0,,,71,100
42752,note_off,,,,,0,0,13,,,,,6,,,62,100
42752,note_off,,,,,128,0,13,,,,,6,,,60,100
42784,note_off,,,,,64,0,7,,,,,0,,,71,100
42816,note_on,,,,,0,0,13,,,,,6,,,62,100
42816,note_on,,,,,64,0,13,,,,,6,,,59,100
42816,note_on,,,,,32,0,7,,,,,0,,,71,100
42880,note_off,,,,,256,0,14,,,,,6,,,55,100
42880,note_off,,,,,256,0,11,,,,,4,,,55,100
42880,note_off,,,,,256,0,12,,,,,5,,,43,100
42880,note_off,,,,,64,0,7,,,,,0,,,71,100
42912,note_on,,,,,32,0,7,,,,,0,,,73,100
42944,note_off,,,,,0,0,13,,,,,6,,,62,100
42944,note_off,,,,,128,0,13,,,,,6,,,59,100
42976,note_off,,,,,64,0,7,,,,,0,,,73,100
43008,note_on,,,,,0,0,13,,,,,6,,,62,100
43008,note_on,,,,,128,0,11,,,,,4,,,56,85
43008,note_on,,,,,64,0,13,,,,,6,,,64,100
43008,note_on,,,,,128,0,12,,,,,5,,,44,85
43008,note_on,,,,,128,0,14,,,,,6,,,56,100
43008,note_on,,,,,32,0,7,,,,,0,,,74,100
43072,note_off,,,,,64,0,7,,,,,0,,,74,100
43104,note_on,,,,,32,0,7,,,,,0,,,74,100
43136,note_off,,,,,128,0,14,,,,,6,,,56,100
43136,note_off,,,,,128,0,12,,,,,5,,,44,100
43136,note_off,,,,,128,0,11,,,,,4,,,56,100
43136,note_off,,,,,128,0,13,,,,,6,,,64,100
43136,note_off,,,,,0,0,13,,,,,6,,,62,100
43168,note_off,,,,,64,0,7,,,,,0,,,74,100
43200,note_on,,,,,64,0,13,,,,,6,,,62,100
43200,note_on,,,,,64,0,12,,,,,5,,,45,85
43200,note_on,,,,,32,0,7,,,,,0,,,74,100
43200,note_on,,,,,64,0,14,,,,,6,,,57,100
43200,note_on,,,,,64,0,11,,,,,4,,,57,85
43200,note_on,,,,,0,0,13,,,,,6,,,64,100
43228,note_off,,,,,28,0,7,,,,,0,,,74,100
43232,note_on,,,,,4,0,7,,,,,0,,,76,100
43260,note_off,,,,,28,0,7,,,,,0,,,76,100
43264,note_on,,,,,4,0,7,,,,,0,,,74,100
43284,note_off,,,,,20,0,7,,,,,0,,,74,100
43296,note_on,,,,,12,0,7,,,,,0,,,73,100
43328,note_off,,,,,128,0,13,,,,,6,,,62,100
43328,note_off,,,,,0,0,13,,,,,6,,,64,100
43360,note_off,,,,,64,0,7,,,,,0,,,73,100
43392,note_on,,,,,32,0,7,,,,,0,,,73,100
43392,note_on,,,,,64,0,13,,,,,6,,,61,100
43392,note_on,,,,,0,0,13,,,,,6,,,64,100
43456,note_off,,,,,256,0,14,,,,,6,,,57,100
43456,note_off,,,,,64,0,7,,,,,0,,,73,100
43456,note_off,,,,,256,0,12,,,,,5,,,45,100
43456,note_off,,,,,256,0,11,,,,,4,,,57,100
43488,note_on,,,,,32,0,7,,,,,0,,,74,100
43520,note_off,,,,,128,0,13,,,,,6,,,61,100
43520,note_off,,,,,0,0,13,,,,,6,,,64,100
43552,note_off,,,,,64,0,7,,,,,0,,,74,100
43584,note_on,,,,,128,0,11,,,,,4,,,58,85
43584,note_on,,,,,128,0,12,,,,,5,,,46,85
43584,note_on,,,,,128,0,14,,,,,6,,,58,100
43584,note_on,,,,,64,0,13,,,,,6,,,66,100
43584,note_on,,,,,32,0,7,,,,,0,,,76,100
43584,note_on,,,,,0,0,13,,,,,6,,,64,100
43648,note_off,,,,,64,0,7,,,,,0,,,76,100
43680,note_on,,,,,32,0,7,,,,,0,,,76,100
43712,note_off,,,,,0,0,13,,,,,6,,,64,100
43712,note_off,,,,,128,0,13,,,,,6,,,66,100
43712,note_off,,,,,128,0,14,,,,,6,,,58,100
43712,note_off,,,,,128,0,12,,,,,5,,,46,100
43712,note_off,,,,,128,0,11,,,,,4,,,58,100
43744,note_off,,,,,64,0,7,,,,,0,,,76,100
43776,note_on,,,,,64,0,13,,,,,6,,,64,100
43776,note_on,,,,,0,0,13,,,,,6,,,66,100
43776,note_on,,,,,64,0,14,,,,,6,,,59,100
43776,note_on,,,,,64,0,12,,,,,5,,,47,85
43776,note_on,,,,,32,0,7,,,,,0,,,76,100
43776,note_on,,,,,64,0,11,,,,,4,,,59,85
43804,note_off,,,,,28,0,7,,,,,0,,,76,100
43808,note_on,,,,,4,0,7,,,,,0,,,78,100
43836,note_off,,,,,28,0,7,,,,,0,,,78,100
43840,note_on,,,,,4,0,7,,,,,0,,,76,100
43860,note_off,,,,,20,0,7,,,,,0,,,76,100
43872,note_on,,,,,12,0,7,,,,,0,,,74,100
43904,note_off,,,,,128,0,13,,,,,6,,,64,100
43904,note_off,,,,,0,0,13,,,,,6,,,66,100
43936,note_off,,,,,64,0,7,,,,,0,,,74,100
43968,note_on,,,,,32,0,7,,,,,0,,,74,100
43968,note_on,,,,,0,0,13,,,,,6,,,66,100
43968,note_on,,,,,64,0,13,,,,,6,,,62,100
44032,note_off,,,,,256,0,14,,,,,6,,,59,100
44032,note_off,,,,,256,0,12,,,,,5,,,47,100
44032,note_off,,,,,256,0,11,,,,,4,,,59,100
44032,note_off,,,,,64,0,7,,,,,0,,,74,100
44064,note_on,,,,,32,0,7,,,,,0,,,76,100
44096,note_off,,,,,128,0,13,,,,,6,,,62,100
44096,note_off,,,,,0,0,13,,,,,6,,,66,100
44128,note_off,,,,,64,0,7,,,,,0,,,76,100
44160,note_on,,,,,0,0,13,,,,,6,,,66,100
44160,note_on,,,,,64,0,13,,,,,6,,,67,100
44160,note_on,,,,,128,0,11,,,,,4,,,59,85
44160,note_on,,,,,32,0,7,,,,,0,,,78,100
44160,note_on,,,,,128,0,12,,,,,5,,,47,85
44160,note_on,,,,,128,0,14,,,,,6,,,59,100
44224,note_off,,,,,64,0,7,,,,,0,,,78,100
44256,note_on,,,,,32,0,7,,,,,0,,,78,100
44288,note_off,,,,,128,0,12,,,,,5,,,47,100
44288,note_off,,,,,0,0,13,,,,,6,,,66,100
44288,note_off,,,,,128,0,13,,,,,6,,,67,100
44288,note_off,,,,,128,0,11,,,,,4,,,59,100
44288,note_off,,,,,128,0,14,,,,,6,,,59,100
44320,note_off,,,,,64,0,7,,,,,0,,,78,100
44352,note_on,,,,,64,0,11,,,,,4,,,52,85
44352,note_on,,,,,32,0,7,,,,,0,,,79,100
44352,note_on,,,,,0,0,13,,,,,6,,,67,100
44352,note_on,,,,,64,0,12,,,,,5,,,40,85
44352,note_on,,,,,64,0,14,,,,,6,,,52,100
44352,note_on,,,,,64,0,13,,,,,6,,,71,100
44448,note_off,,,,,96,0,7,,,,,0,,,79,100
44496,note_on,,,,,48,0,7,,,,,0,,,81,100
44528,note_off,,,,,32,0,7,,,,,0,,,81,100
44544,note_on,,,,,16,0,7,,,,,0,,,79,100
44608,note_off,,,,,256,0,11,,,,,4,,,52,100
44608,note_off,,,,,64,0,7,,,,,0,,,79,100
44608,note_off,,,,,256,0,12,,,,,5,,,40,100
44608,note_off,,,,,256,0,13,,,,,6,,,71,100
44608,note_off,,,,,0,0,13,,,,,6,,,67,100
44608,note_off,,,,,256,0,14,,,,,6,,,52,100
44640,note_on,,,,,32,0,7,,,,,0,,,78,100
44704,note_off,,,,,64,0,7,,,,,0,,,78,100
44736,note_on,,,,,128,0,11,,,,,4,,,56,85
44736,note_on,,,,,32,0,7,,,,,0,,,76,100
44736,note_on,,,,,128,0,14,,,,,6,,,56,100
44736,note_on,,,,,0,0,13,,,,,6,,,74,100
44736,note_on,,,,,128,0,12,,,,,5,,,44,85
44736,note_on,,,,,128,0,13,,,,,6,,,76,100
44800,note_off,,,,,64,0,7,,,,,0,,,76,100
44832,note_on,,,,,32,0,7,,,,,0,,,74,100
44864,note_off,,,,,128,0,11,,,,,4,,,56,100
44864,note_off,,,,,0,0,13,,,,,6,,,74,100
44864,note_off,,,,,128,0,13,,,,,6,,,76,100
44864,note_off,,,,,128,0,12,,,,,5,,,44,100
44864,note_off,,,,,128,0,14,,,,,6,,,56,100
44896,note_off,,,,,64,0,7,,,,,0,,,74,100
44928,note_on,,,,,64,0,13,,,,,6,,,73,100
44928,note_on,,,,,0,0,13,,,,,6,,,76,100
44928,note_on,,,,,32,0,7,,,,,0,,,73,100
44928,note_on,,,,,64,0,14,,,,,6,,,57,100
44928,note_on,,,,,64,0,11,,,,,4,,,57,85
44928,note_on,,,,,64,0,12,,,,,5,,,45,85
45020,note_off,,,,,92,0,7,,,,,0,,,73,100
45024,note_on,,,,,4,0,7,,,,,0,,,69,100
45056,note_off,,,,,0,0,13,,,,,6,,,76,100
45056,note_off,,,,,128,0,13,,,,,6,,,73,100
45056,note_off,,,,,128,0,12,,,,,5,,,45,100
45056,note_off,,,,,128,0,14,,,,,6,,,57,100
45056,note_off,,,,,128,0,11,,,,,4,,,57,100
45088,note_off,,,,,64,0,7,,,,,0,,,69,100
45120,note_on,,,,,0,0,13,,,,,6,,,73,100
45120,note_on,,,,,64,0,12,,,,,5,,,41,85
45120,note_on,,,,,64,0,14,,,,,6,,,53,100
45120,note_on,,,,,64,0,13,,,,,6,,,69,100
45120,note_on,,,,,64,0,11,,,,,4,,,53,85
45120,note_on,,,,,32,0,7,,,,,0,,,74,100
45212,note_off,,,,,92,0,7,,,,,0,,,74,100
45216,note_on,,,,,4,0,7,,,,,0,,,69,100
45248,note_off,,,,,128,0,12,,,,,5,,,41,100
45248,note_off,,,,,128,0,11,,,,,4,,,53,100
45248,note_off,,,,,128,0,14,,,,,6,,,53,100
45248,note_off,,,,,128,0,13,,,,,6,,,69,100
45248,note_off,,,,,0,0,13,,,,,6,,,73,100
45280,note_off,,,,,64,0,7,,,,,0,,,69,100
45312,note_on,,,,,64,0,13,,,,,6,,,64,100
45312,note_on,,,,,32,0,7,,,,,0,,,76,100
45312,note_on,,,,,64,0,11,,,,,4,,,49,85
45312,note_on,,,,,64,0,12,,,,,5,,,37,85
45312,note_on,,,,,0,0,13,,,,,6,,,69,100
45312,note_on,,,,,64,0,14,,,,,6,,,49,100
45404,note_off,,,,,92,0,7,,,,,0,,,76,100
45408,note_on,,,,,4,0,7,,,,,0,,,69,100
45440,note_off,,,,,128,0,14,,,,,6,,,49,100
45440,note_off,,,,,0,0,13,,,,,6,,,69,100
45440,note_off,,,,,128,0,13,,,,,6,,,64,100
45440,note_off,,,,,128,0,12,,,,,5,,,37,100
45440,note_off,,,,,128,0,11,,,,,4,,,49,100
45472,note_off,,,,,64,0,7,,,,,0,,,69,100
45504,note_on,,,,,64,0,14,,,,,6,,,50,100
45504,note_on,,,,,32,0,7,,,,,0,,,77,100
45504,note_on,,,,,0,0,13,,,,,6,,,69,100
45504,note_on,,,,,64,0,13,,,,,6,,,65,100
45504,note_on,,,,,64,0,12,,,,,5,,,38,85
45504,note_on,,,,,64,0,11,,,,,4,,,50,85
45596,note_off,,,,,92,0,7,,,,,0,,,77,100
45600,note_on,,,,,4,0,7,,,,,0,,,69,100
45632,note_off,,,,,128,0,12,,,,,5,,,38,100
45632,note_off,,,,,128,0,14,,,,,6,,,50,100
45632,note_off,,,,,128,0,11,,,,,4,,,50,100
45632,note_off,,,,,128,0,13,,,,,6,,,65,100
45632,note_off,,,,,0,0,13,,,,,6,,,69,100
45664,note_off,,,,,64,0,7,,,,,0,,,69,100
45696,note_on,,,,,32,0,7,,,,,0,,,79,100
45696,note_on,,,,,0,0,13,,,,,6,,,69,100
45696,note_on,,,,,64,0,14,,,,,6,,,49,100
45696,note_on,,,,,64,0,13,,,,,6,,,67,100
45696,note_on,,,,,64,0,12,,,,,5,,,37,85
45696,note_on,,,,,64,0,11,,,,,4,,,49,85
45788,note_off,,,,,92,0,7,,,,,0,,,79,100
45792,note_on,,,,,4,0,7,,,,,0,,,69,100
45824,note_off,,,,,128,0,13,,,,,6,,,67,100
45824,note_off,,,,,128,0,11,,,,,4,,,49,100
45824,note_off,,,,,128,0,12,,,,,5,,,37,100
45824,note_off,,,,,0,0,13,,,,,6,,,69,100
45824,note_off,,,,,128,0,14,,,,,6,,,49,100
45856,note_off,,,,,64,0,7,,,,,0,,,69,100
45888,note_on,,,,,32,0,7,,,,,0,,,81,100
45888,note_on,,,,,64,0,13,,,,,6,,,64,100
45888,note_on,,,,,64,0,14,,,,,6,,,45,100
45888,note_on,,,,,64,0,11,,,,,4,,,45,85
45888,note_on,,,,,64,0,12,,,,,5,,,33,85
45888,note_on,,,,,0,0,13,,,,,6,,,67,100
45980,note_off,,,,,92,0,7,,,,,0,,,81,100
45984,note_on,,,,,4,0,7,,,,,0,,,76,100
46016,note_off,,,,,128,0,14,,,,,6,,,45,100
46016,note_off,,,,,128,0,11,,,,,4,,,45,100
46016,note_off,,,,,0,0,13,,,,,6,,,67,100
46016,note_off,,,,,128,0,12,,,,,5,,,33,100
46016,note_off,,,,,128,0,13,,,,,6,,,64,100
46048,note_off,,,,,64,0,7,,,,,0,,,76,100
46080,note_on,,,,,64,0,13,,,,,6,,,65,100
46080,note_on,,,,,64,0,14,,,,,6,,,50,100
46080,note_on,,,,,64,0,11,,,,,4,,,50,85
46080,note_on,,,,,64,0,12,,,,,5,,,38,85
46080,note_on,,,,,32,0,7,,,,,0,,,77,100
46144,note_off,,,,,64,0,13,,,,,6,,,65,100
46144,note_off,,,,,64,0,14,,,,,6,,,50,100
46144,note_off,,,,,64,0,12,,,,,5,,,38,100
46144,note_off,,,,,64,0,11,,,,,4,,,50,100
46172,note_off,,,,,92,0,7,,,,,0,,,77,100
46176,note_on,,,,,32,0,12,,,,,5,,,43,85
46176,note_on,,,,,4,0,7,,,,,0,,,74,100
46176,note_on,,,,,32,0,13,,,,,6,,,65,100
46176,note_on,,,,,32,0,14,,,,,6,,,55,100
46176,note_on,,,,,32,0,11,,,,,4,,,55,85
46240,note_off,,,,,64,0,7,,,,,0,,,74,100
46240,note_off,,,,,64,0,12,,,,,5,,,43,100
46240,note_off,,,,,64,0,14,,,,,6,,,55,100
46240,note_off,,,,,64,0,11,,,,,4,,,55,100
46240,note_off,,,,,64,0,13,,,,,6,,,65,100
46272,note_on,,,,,32,0,14,,,,,6,,,57,100
46272,note_on,,,,,0,0,13,,,,,6,,,67,100
46272,note_on,,,,,32,0,11,,,,,4,,,57,85
46272,note_on,,,,,32,0,12,,,,,5,,,45,85
46272,note_on,,,,,32,0,13,,,,,6,,,61,100
46272,note_on,,,,,32,0,7,,,,,0,,,73,100
46316,note_off,,,,,44,0,7,,,,,0,,,73,100
46320,note_on,,,,,4,0,7,,,,,0,,,74,100
46364,note_off,,,,,44,0,7,,,,,0,,,74,100
46368,note_on,,,,,4,0,7,,,,,0,,,73,100
46400,note_off,,,,,128,0,14,,,,,6,,,57,100
46400,note_off,,,,,128,0,11,,,,,4,,,57,100
46400,note_off,,,,,128,0,12,,,,,5,,,45,100
46400,note_off,,,,,0,0,13,,,,,6,,,67,100
46400,note_off,,,,,128,0,13,,,,,6,,,61,100
46412,note_off,,,,,44,0,7,,,,,0,,,73,100
46416,note_on,,,,,4,0,7,,,,,0,,,74,100
46460,note_off,,,,,44,0,7,,,,,0,,,74,100
46464,note_on,,,,,0,0,13,,,,,6,,,61,100
46464,note_on,,,,,64,0,13,,,,,6,,,55,100
46464,note_on,,,,,4,0,7,,,,,0,,,73,100
46464,note_on,,,,,64,0,14,,,,,6,,,45,100
46464,note_on,,,,,64,0,11,,,,,4,,,45,85
46464,note_on,,,,,64,0,12,,,,,5,,,33,85
46528,note_off,,,,,64,0,7,,,,,0,,,73,100
46560,note_on,,,,,32,0,7,,,,,0,,,74,100
46592,note_off,,,,,128,0,11,,,,,4,,,45,100
46592,note_off,,,,,128,0,14,,,,,6,,,45,100
46592,note_off,,,,,128,0,13,,,,,6,,,55,100
46592,note_off,,,,,0,0,13,,,,,6,,,61,100
46592,note_off,,,,,128,0,12,,,,,5,,,33,100
46624,note_off,,,,,64,0,7,,,,,0,,,74,100
46656,note_on,,,,,64,0,12,,,,,5,,,38,100
46656,note_on,,,,,64,0,11,,,,,4,,,50,100
46656,note_on,,,,,64,0,14,,,,,6,,,50,100
46656,note_on,,,,,0,0,13,,,,,6,,,57,100
46656,note_on,,,,,64,0,13,,,,,6,,,62,100
46656,note_on,,,,,32,0,7,,,,,0,,,74,100
46720,note_off,,,,,64,0,11,,,,,4,,,50,100
46720,note_off,,,,,64,0,12,,,,,5,,,38,100
46720,note_off,,,,,64,0,14,,,,,6,,,50,100
46752,note_on,,,,,32,0,14,,,,,6,,,50,100
46752,note_on,,,,,4448,0,9,,,,,2,,,78,100
46752,note_on,,,,,4448,0,10,,,,,3,,,62,100
46752,note_on,,,,,32,0,12,,,,,5,,,38,100
46752,note_on,,,,,32,0,11,,,,,4,,,50,100
46752,note_on,,,,,4448,0,8,,,,,1,,,81,100
46784,note_off,,,,,128,0,13,,,,,6,,,62,100
46784,note_off,,,,,0,0,13,,,,,6,,,57,100
46816,note_off,,,,,64,0,14,,,,,6,,,50,100
46816,note_off,,,,,64,0,10,,,,,3,,,62,100
46816,note_off,,,,,64,0,12,,,,,5,,,38,100
46816,note_off,,,,,64,0,8,,,,,1,,,81,100
46816,note_off,,,,,64,0,9,,,,,2,,,78,100
46816,note_off,,,,,64,0,11,,,,,4,,,50,100
46848,note_on,,,,,32,0,11,,,,,4,,,50,100
46848,note_on,,,,,32,0,10,,,,,3,,,62,100
46848,note_on,,,,,0,0,13,,,,,6,,,66,100
46848,note_on,,,,,64,0,13,,,,,6,,,69,100
46848,note_on,,,,,32,0,14,,,,,6,,,50,100
46848,note_on,,,,,32,0,8,,,,,1,,,81,100
46848,note_on,,,,,32,0,9,,,,,2,,,78,100
46848,note_on,,,,,32,0,12,,,,,5,,,38,100
46912,note_off,,,,,64,0,12,,,,,5,,,38,100
46912,note_off,,,,,256,0,7,,,,,0,,,74,100
46912,note_off,,,,,64,0,14,,,,,6,,,50,100
46912,note_off,,,,,64,0,10,,,,,3,,,62,100
46912,note_off,,,,,64,0,8,,,,,1,,,81,100
46912,note_off,,,,,64,0,9,,,,,2,,,78,100
46912,note_off,,,,,64,0,11,,,,,4,,,50,100
46944,note_on,,,,,32,0,8,,,,,1,,,81,100
46944,note_on,,,,,32,0,9,,,,,2,,,78,100
46944,note_on,,,,,32,0,11,,,,,4,,,50,100
46944,note_on,,,,,32,0,10,,,,,3,,,62,100
46944,note_on,,,,,32,0,14,,,,,6,,,50,100
46944,note_on,,,,,32,0,12,,,,,5,,,38,100
46976,note_off,,,,,128,0,13,,,,,6,,,69,100
46976,note_off,,,,,0,0,13,,,,,6,,,66,100
47008,note_off,,,,,64,0,10,,,,,3,,,62,100
47008,note_off,,,,,64,0,14,,,,,6,,,50,100
47008,note_off,,,,,64,0,11,,,,,4,,,50,100
47008,note_off,,,,,64,0,8,,,,,1,,,81,100
47008,note_off,,,,,64,0,9,,,,,2,,,78,100
47008,note_off,,,,,64,0,12,,,,,5,,,38,100
47040,note_on,,,,,32,0,8,,,,,1,,,81,100
47040,note_on,,,,,32,0,9,,,,,2,,,78,100
47040,note_on,,,,,32,0,14,,,,,6,,,50,100
47040,note_on,,,,,32,0,12,,,,,5,,,38,100
47040,note_on,,,,,32,0,11,,,,,4,,,50,100
47040,note_on,,,,,32,0,10,,,,,3,,,62,100
47040,note_on,,,,,0,0,13,,,,,6,,,66,100
47040,note_on,,,,,64,0,13,,,,,6,,,69,100
47104,note_off,,,,,64,0,9,,,,,2,,,78,100
47104,note_off,,,,,64,0,8,,,,,1,,,81,100
47104,note_off,,,,,64,0,11,,,,,4,,,50,100
47104,note_off,,,,,64,0,10,,,,,3,,,62,100
47104,note_off,,,,,64,0,14,,,,,6,,,50,100
47104,note_off,,,,,64,0,12,,,,,5,,,38,100
47136,note_on,,,,,32,0,10,,,,,3,,,62,99
47136,note_on,,,,,32,0,8,,,,,1,,,81,99
47136,note_on,,,,,32,0,12,,,,,5,,,38,99
47136,note_on,,,,,32,0,9,,,,,2,,,78,99
47136,note_on,,,,,32,0,11,,,,,4,,,50,99
47136,note_on,,,,,32,0,14,,,,,6,,,50,100
47168,note_off,,,,,0,0,13,,,,,6,,,66,100
47168,note_off,,,,,128,0,13,,,,,6,,,69,100
47200,note_off,,,,,64,0,14,,,,,6,,,50,100
47200,note_off,,,,,64,0,11,,,,,4,,,50,100
47200,note_off,,,,,64,0,12,,,,,5,,,38,100
47200,note_off,,,,,64,0,8,,,,,1,,,81,100
47200,note_off,,,,,64,0,10,,,,,3,,,62,100
47200,note_off,,,,,64,0,9,,,,,2,,,78,100
47232,note_on,,,,,32,0,14,,,,,6,,,50,100
47232,note_on,,,,,32,0,10,,,,,3,,,66,98
47232,note_on,,,,,32,0,8,,,,,1,,,81,98
47232,note_on,,,,,32,0,12,,,,,5,,,38,98
47232,note_on,,,,,32,0,11,,,,,4,,,50,98
47232,note_on,,,,,64,0,13,,,,,6,,,71,100
47232,note_on,,,,,0,0,13,,,,,6,,,69,100
47232,note_on,,,,,32,0,9,,,,,2,,,71,98
47296,note_off,,,,,64,0,9,,,,,2,,,71,100
47296,note_off,,,,,64,0,12,,,,,5,,,38,100
47296,note_off,,,,,64,0,8,,,,,1,,,81,100
47296,note_off,,,,,64,0,14,,,,,6,,,50,100
47296,note_off,,,,,64,0,11,,,,,4,,,50,100
47296,note_off,,,,,64,0,10,,,,,3,,,66,100
47328,note_on,,,,,32,0,10,,,,,3,,,66,97
47328,note_on,,,,,32,0,8,,,,,1,,,81,97
47328,note_on,,,,,32,0,9,,,,,2,,,71,97
47328,note_on,,,,,32,0,11,,,,,4,,,50,97
47328,note_on,,,,,32,0,12,,,,,5,,,38,97
47328,note_on,,,,,32,0,14,,,,,6,,,50,100
47360,note_off,,,,,128,0,13,,,,,6,,,71,100
47360,note_off,,,,,0,0,13,,,,,6,,,69,100
47392,note_off,,,,,64,0,10,,,,,3,,,66,100
47392,note_off,,,,,64,0,8,,,,,1,,,81,100
47392,note_off,,,,,64,0,9,,,,,2,,,71,100
47392,note_off,,,,,64,0,12,,,,,5,,,38,100
47392,note_off,,,,,64,0,11,,,,,4,,,50,100
47392,note_off,,,,,64,0,14,,,,,6,,,50,100
47424,note_on,,,,,32,0,14,,,,,6,,,50,100
47424,note_on,,,,,64,0,13,,,,,6,,,71,100
47424,note_on,,,,,0,0,13,,,,,6,,,69,100
47424,note_on,,,,,32,0,12,,,,,5,,,38,96
47424,note_on,,,,,32,0,9,,,,,2,,,71,96
47424,note_on,,,,,32,0,8,,,,,1,,,81,96
47424,note_on,,,,,32,0,11,,,,,4,,,50,96
47424,note_on,,,,,32,0,10,,,,,3,,,66,96
47488,note_off,,,,,64,0,12,,,,,5,,,38,100
47488,note_off,,,,,64,0,9,,,,,2,,,71,100
47488,note_off,,,,,64,0,10,,,,,3,,,66,100
47488,note_off,,,,,64,0,8,,,,,1,,,81,100
47488,note_off,,,,,64,0,14,,,,,6,,,50,100
47488,note_off,,,,,64,0,11,,,,,4,,,50,100
47520,note_on,,,,,32,0,10,,,,,3,,,66,95
47520,note_on,,,,,32,0,12,,,,,5,,,38,95
47520,note_on,,,,,32,0,14,,,,,6,,,50,100
47520,note_on,,,,,32,0,11,,,,,4,,,50,95
47520,note_on,,,,,32,0,9,,,,,2,,,71,95
47520,note_on,,,,,32,0,8,,,,,1,,,81,95
47552,note_off,,,,,128,0,13,,,,,6,,,71,100
47552,note_off,,,,,0,0,13,,,,,6,,,69,100
47584,note_off,,,,,64,0,8,,,,,1,,,81,100
47584,note_off,,,,,64,0,11,,,,,4,,,50,100
47584,note_off,,,,,64,0,14,,,,,6,,,50,100
47584,note_off,,,,,64,0,9,,,,,2,,,71,100
47584,note_off,,,,,64,0,10,,,,,3,,,66,100
47584,note_off,,,,,64,0,12,,,,,5,,,38,100
47616,note_on,,,,,32,0,9,,,,,2,,,71,94
47616,note_on,,,,,32,0,8,,,,,1,,,81,94
47616,note_on,,,,,32,0,11,,,,,4,,,50,94
47616,note_on,,,,,0,0,13,,,,,6,,,69,100
47616,note_on,,,,,64,0,13,,,,,6,,,71,100
47616,note_on,,,,,32,0,12,,,,,5,,,38,94
47616,note_on,,,,,32,0,14,,,,,6,,,50,100
47616,note_on,,,,,32,0,10,,,,,3,,,66,94
47680,note_off,,,,,64,0,12,,,,,5,,,38,100
47680,note_off,,,,,64,0,10,,,,,3,,,66,100
47680,note_off,,,,,64,0,14,,,,,6,,,50,100
47680,note_off,,,,,64,0,11,,,,,4,,,50,100
47680,note_off,,,,,64,0,9,,,,,2,,,71,100
47680,note_off,,,,,64,0,8,,,,,1,,,81,100
47712,note_on,,,,,32,0,9,,,,,2,,,71,93
47712,note_on,,,,,32,0,10,,,,,3,,,66,93
47712,note_on,,,,,32,0,8,,,,,1,,,81,93
47712,note_on,,,,,32,0,11,,,,,4,,,50,93
47712,note_on,,,,,32,0,14,,,,,6,,,50,100
47712,note_on,,,,,32,0,12,,,,,5,,,38,93
47744,note_off,,,,,128,0,13,,,,,6,,,71,100
47744,note_off,,,,,0,0,13,,,,,6,,,69,100
47776,note_off,,,,,64,0,12,,,,,5,,,38,100
47776,note_off,,,,,64,0,8,,,,,1,,,81,100
47776,note_off,,,,,64,0,10,,,,,3,,,66,100
47776,note_off,,,,,64,0,11,,,,,4,,,50,100
47776,note_off,,,,,64,0,14,,,,,6,,,50,100
47776,note_off,,,,,64,0,9,,,,,2,,,71,100
47808,note_on,,,,,32,0,9,,,,,2,,,71,92
47808,note_on,,,,,32,0,8,,,,,1,,,79,92
47808,note_on,,,,,32,0,14,,,,,6,,,52,100
47808,note_on,,,,,32,0,10,,,,,3,,,64,92
47808,note_on,,,,,0,0,13,,,,,6,,,71,100
47808,note_on,,,,,64,0,13,,,,,6,,,67,100
47808,note_on,,,,,32,0,11,,,,,4,,,52,92
47808,note_on,,,,,32,0,12,,,,,5,,,40,92
47872,note_off,,,,,64,0,8,,,,,1,,,79,100
47872,note_off,,,,,64,0,11,,,,,4,,,52,100
47872,note_off,,,,,64,0,14,,,,,6,,,52,100
47872,note_off,,,,,64,0,12,,,,,5,,,40,100
47872,note_off,,,,,64,0,10,,,,,3,,,64,100
47872,note_off,,,,,64,0,9,,,,,2,,,71,100
47904,note_on,,,,,32,0,8,,,,,1,,,79,91
47904,note_on,,,,,32,0,10,,,,,3,,,64,91
47904,note_on,,,,,32,0,14,,,,,6,,,52,100
47904,note_on,,,,,32,0,11,,,,,4,,,52,91
47904,note_on,,,,,32,0,12,,,,,5,,,40,91
47904,note_on,,,,,32,0,9,,,,,2,,,71,91
47936,note_off,,,,,128,0,13,,,,,6,,,67,100
47936,note_off,,,,,0,0,13,,,,,6,,,71,100
47968,note_off,,,,,64,0,14,,,,,6,,,52,100
47968,note_off,,,,,64,0,10,,,,,3,,,64,100
47968,note_off,,,,,64,0,8,,,,,1,,,79,100
47968,note_off,,,,,64,0,12,,,,,5,,,40,100
47968,note_off,,,,,64,0,11,,,,,4,,,52,100
47968,note_off,,,,,64,0,9,,,,,2,,,71,100
48000,note_on,,,,,32,0,14,,,,,6,,,52,100
48000,note_on,,,,,32,0,10,,,,,3,,,64,90
48000,note_on,,,,,32,0,12,,,,,5,,,40,90
48000,note_on,,,,,32,0,11,,,,,4,,,52,90
48000,note_on,,,,,0,0,13,,,,,6,,,71,100
48000,note_on,,,,,64,0,13,,,,,6,,,67,100
48000,note_on,,,,,32,0,8,,,,,1,,,79,90
48000,note_on,,,,,32,0,9,,,,,2,,,71,90
48064,note_off,,,,,64,0,9,,,,,2,,,71,100
48064,note_off,,,,,64,0,8,,,,,1,,,79,100
48064,note_off,,,,,64,0,14,,,,,6,,,52,100
48064,note_off,,,,,64,0,12,,,,,5,,,40,100
48064,note_off,,,,,64,0,11,,,,,4,,,52,100
48064,note_off,,,,,64,0,10,,,,,3,,,64,100
48096,note_on,,,,,32,0,14,,,,,6,,,52,100
48096,note_on,,,,,32,0,10,,,,,3,,,64,89
48096,note_on,,,,,32,0,11,,,,,4,,,52,89
48096,note_on,,,,,32,0,9,,,,,2,,,71,89
48096,note_on,,,,,32,0,8,,,,,1,,,79,89
48096,note_on,,,,,32,0,12,,,,,5,,,40,89
48128,note_off,,,,,0,0,13,,,,,6,,,71,100
48128,note_off,,,,,128,0,13,,,,,6,,,67,100
48160,note_off,,,,,64,0,8,,,,,1,,,79,100
48160,note_off,,,,,64,0,10,,,,,3,,,64,100
48160,note_off,,,,,64,0,12,,,,,5,,,40,100
48160,note_off,,,,,64,0,14,,,,,6,,,52,100
48160,note_off,,,,,64,0,9,,,,,2,,,71,100
48160,note_off,,,,,64,0,11,,,,,4,,,52,100
48192,note_on,,,,,32,0,9,,,,,2,,,71,88
48192,note_on,,,,,32,0,14,,,,,6,,,52,100
48192,note_on,,,,,32,0,10,,,,,3,,,64,88
48192,note_on,,,,,32,0,11,,,,,4,,,52,88
48192,note_on,,,,,64,0,13,,,,,6,,,67,100
48192,note_on,,,,,32,0,12,,,,,5,,,40,88
48192,note_on,,,,,0,0,13,,,,,6,,,71,100
48192,note_on,,,,,32,0,8,,,,,1,,,79,88
48256,note_off,,,,,64,0,14,,,,,6,,,52,100
48256,note_off,,,,,64,0,10,,,,,3,,,64,100
48256,note_off,,,,,64,0,9,,,,,2,,,71,100
48256,note_off,,,,,64,0,12,,,,,5,,,40,100
48256,note_off,,,,,64,0,11,,,,,4,,,52,100
48256,note_off,,,,,64,0,8,,,,,1,,,79,100
48288,note_on,,,,,32,0,12,,,,,5,,,40,87
48288,note_on,,,,,32,0,8,,,,,1,,,79,87
48288,note_on,,,,,32,0,11,,,,,4,,,52,87
48288,note_on,,,,,32,0,14,,,,,6,,,52,100
48288,note_on,,,,,32,0,10,,,,,3,,,64,87
48288,note_on,,,,,32,0,9,,,,,2,,,71,87
48320,note_off,,,,,0,0,13,,,,,6,,,71,100
48320,note_off,,,,,128,0,13,,,,,6,,,67,100
48352,note_off,,,,,64,0,14,,,,,6,,,52,100
48352,note_off,,,,,64,0,9,,,,,2,,,71,100
48352,note_off,,,,,64,0,10,,,,,3,,,64,100
48352,note_off,,,,,64,0,12,,,,,5,,,40,100
48352,note_off,,,,,64,0,8,,,,,1,,,79,100
48352,note_off,,,,,64,0,11,,,,,4,,,52,100
48384,note_on,,,,,1472,0,7,,,,,0,,,79,100
48384,note_on,,,,,32,0,11,,,,,4,,,45,86
48384,note_on,,,,,32,0,8,,,,,1,,,79,86
48384,note_on,,,,,32,0,14,,,,,6,,,45,100
48384,note_on,,,,,0,0,13,,,,,6,,,67,100
48384,note_on,,,,,32,0,10,,,,,3,,,64,86
48384,note_on,,,,,32,0,9,,,,,2,,,73,86
48384,note_on,,,,,64,0,13,,,,,6,,,64,100
48384,note_on,,,,,32,0,12,,,,,5,,,33,86
48448,note_off,,,,,64,0,7,,,,,0,,,79,100
48480,note_on,,,,,32,0,7,,,,,0,,,69,100
48544,note_off,,,,,64,0,7,,,,,0,,,69,100
48576,note_on,,,,,32,0,7,,,,,0,,,69,100
48640,note_off,,,,,64,0,7,,,,,0,,,69,100
48640,note_off,,,,,256,0,11,,,,,4,,,45,100
48640,note_off,,,,,256,0,9,,,,,2,,,73,100
48640,note_off,,,,,256,0,13,,,,,6,,,64,100
48640,note_off,,,,,0,0,13,,,,,6,,,67,100
48640,note_off,,,,,256,0,12,,,,,5,,,33,100
48640,note_off,,,,,256,0,10,,,,,3,,,64,100
48640,note_off,,,,,256,0,8,,,,,1,,,79,100
48640,note_off,,,,,256,0,14,,,,,6,,,45,100
48672,note_on,,,,,32,0,7,,,,,0,,,69,100
48736,note_off,,,,,64,0,7,,,,,0,,,69,100
48768,note_on,,,,,32,0,7,,,,,0,,,73,100
48832,note_off,,,,,64,0,7,,,,,0,,,73,100
48864,note_on,,,,,32,0,7,,,,,0,,,69,100
48928,note_off,,,,,64,0,7,,,,,0,,,69,100
48960,note_on,,,,,320,0,12,,,,,5,,,33,85
48960,note_on,,,,,320,0,14,,,,,6,,,45,100
48960,note_on,,,,,320,0,13,,,,,6,,,64,100
48960,note_on,,,,,32,0,7,,,,,0,,,79,100
48960,note_on,,,,,320,0,11,,,,,4,,,45,85
48960,note_on,,,,,320,0,8,,,,,1,,,79,85
48960,note_on,,,,,320,0,10,,,,,3,,,64,85
48960,note_on,,,,,0,0,13,,,,,6,,,67,100
48960,note_on,,,,,320,0,9,,,,,2,,,73,85
49024,note_off,,,,,64,0,7,,,,,0,,,79,100
49056,note_on,,,,,32,0,7,,,,,0,,,69,100
49120,note_off,,,,,64,0,7,,,,,0,,,69,100
49152,note_on,,,,,32,0,7,,,,,0,,,69,100
49216,note_off,,,,,256,0,14,,,,,6,,,45,100
49216,note_off,,,,,256,0,10,,,,,3,,,64,100
49216,note_off,,,,,0,0,13,,,,,6,,,67,100
49216,note_off,,,,,256,0,13,,,,,6,,,64,100
49216,note_off,,,,,256,0,11,,,,,4,,,45,100
49216,note_off,,,,,64,0,7,,,,,0,,,69,100
49216,note_off,,,,,256,0,9,,,,,2,,,73,100
49216,note_off,,,,,256,0,8,,,,,1,,,79,100
49216,note_off,,,,,256,0,12,,,,,5,,,33,100
49248,note_on,,,,,32,0,7,,,,,0,,,69,100
49312,note_off,,,,,64,0,7,,,,,0,,,69,100
49344,note_on,,,,,32,0,7,,,,,0,,,73,100
49408,note_off,,,,,64,0,7,,,,,0,,,73,100
49440,note_on,,,,,32,0,7,,,,,0,,,69,100
49504,note_off,,,,,64,0,7,,,,,0,,,69,100
49536,note_on,,,,,320,0,13,,,,,6,,,64,100
49536,note_on,,,,,320,0,9,,,,,2,,,73,85
49536,note_on,,,,,320,0,8,,,,,1,,,79,85
49536,note_on,,,,,320,0,10,,,,,3,,,64,85
49536,note_on,,,,,320,0,12,,,,,5,,,33,85
49536,note_on,,,,,32,0,7,,,,,0,,,79,100
49536,note_on,,,,,320,0,11,,,,,4,,,45,85
49536,note_on,,,,,0,0,13,,,,,6,,,67,100
49536,note_on,,,,,320,0,14,,,,,6,,,45,100
49600,note_off,,,,,64,0,7,,,,,0,,,79,100
49632,note_on,,,,,32,0,7,,,,,0,,,69,100
49696,note_off,,,,,64,0,7,,,,,0,,,69,100
49728,note_on,,,,,32,0,7,,,,,0,,,69,100
49792,note_off,,,,,256,0,14,,,,,6,,,45,100
49792,note_off,,,,,256,0,9,,,,,2,,,73,100
49792,note_off,,,,,64,0,7,,,,,0,,,69,100
49792,note_off,,,,,256,0,8,,,,,1,,,79,100
49792,note_off,,,,,256,0,13,,,,,6,,,64,100
49792,note_off,,,,,0,0,13,,,,,6,,,67,100
49792,note_off,,,,,256,0,11,,,,,4,,,45,100
49792,note_off,,,,,256,0,12,,,,,5,,,33,100
49792,note_off,,,,,256,0,10,,,,,3,,,64,100
49824,note_on,,,,,32,0,7,,,,,0,,,69,100
49888,note_off,,,,,64,0,7,,,,,0,,,69,100
49920,note_on,,,,,32,0,7,,,,,0,,,73,100
49984,note_off,,,,,64,0,7,,,,,0,,,73,100
50016,note_on,,,,,32,0,7,,,,,0,,,69,100
50080,note_off,,,,,64,0,7,,,,,0,,,69,100
50112,note_on,,,,,320,0,10,,,,,3,,,57,85
50112,note_on,,,,,0,0,13,,,,,6,,,65,100
50112,note_on,,,,,320,0,12,,,,,5,,,38,85
50112,note_on,,,,,320,0,13,,,,,6,,,69,100
50112,note_on,,,,,320,0,14,,,,,6,,,50,100
50112,note_on,,,,,320,0,11,,,,,4,,,50,85
50112,note_on,,,,,320,0,9,,,,,2,,,74,85
50112,note_on,,,,,320,0,8,,,,,1,,,77,85
50112,note_on,,,,,32,0,7,,,,,0,,,77,100
50204,note_off,,,,,92,0,7,,,,,0,,,77,100
50208,note_on,,,,,4,0,7,,,,,0,,,74,100
50240,note_off,,,,,128,0,13,,,,,6,,,69,100
50240,note_off,,,,,0,0,13,,,,,6,,,65,100
50240,note_off,,,,,128,0,14,,,,,6,,,50,100
50240,note_off,,,,,128,0,12,,,,,5,,,38,100
50240,note_off,,,,,128,0,11,,,,,4,,,50,100
50300,note_off,,,,,92,0,7,,,,,0,,,74,100
50304,note_on,,,,,64,0,12,,,,,5,,,38,85
50304,note_on,,,,,4,0,7,,,,,0,,,73,100
50304,note_on,,,,,0,0,13,,,,,6,,,65,100
50304,note_on,,,,,64,0,13,,,,,6,,,69,100
50304,note_on,,,,,64,0,11,,,,,4,,,50,85
50304,note_on,,,,,64,0,14,,,,,6,,,50,100
50368,note_off,,,,,256,0,10,,,,,3,,,57,100
50368,note_off,,,,,256,0,9,,,,,2,,,74,100
50368,note_off,,,,,256,0,8,,,,,1,,,77,100
50396,note_off,,,,,92,0,7,,,,,0,,,73,100
50400,note_on,,,,,4,0,7,,,,,0,,,74,100
50432,note_off,,,,,128,0,13,,,,,6,,,69,100
50432,note_off,,,,,128,0,12,,,,,5,,,38,100
50432,note_off,,,,,128,0,14,,,,,6,,,50,100
50432,note_off,,,,,0,0,13,,,,,6,,,65,100
50432,note_off,,,,,128,0,11,,,,,4,,,50,100
50464,note_off,,,,,64,0,7,,,,,0,,,74,100
50496,note_on,,,,,64,0,14,,,,,6,,,50,100
50496,note_on,,,,,64,0,12,,,,,5,,,38,85
50496,note_on,,,,,0,0,13,,,,,6,,,65,100
50496,note_on,,,,,64,0,13,,,,,6,,,69,100
50496,note_on,,,,,32,0,7,,,,,0,,,77,100
50496,note_on,,,,,64,0,11,,,,,4,,,50,85
50588,note_off,,,,,92,0,7,,,,,0,,,77,100
50592,note_on,,,,,4,0,7,,,,,0,,,76,100
50624,note_off,,,,,128,0,13,,,,,6,,,69,100
50624,note_off,,,,,0,0,13,,,,,6,,,65,100
50624,note_off,,,,,128,0,14,,,,,6,,,50,100
50624,note_off,,,,,128,0,11,,,,,4,,,50,100
50624,note_off,,,,,128,0,12,,,,,5,,,38,100
50656,note_off,,,,,64,0,7,,,,,0,,,76,100
50688,note_on,,,,,32,0,7,,,,,0,,,77,100
50688,note_on,,,,,64,0,11,,,,,4,,,44,85
50688,note_on,,,,,64,0,12,,,,,5,,,32,85
50688,note_on,,,,,64,0,13,,,,,6,,,62,100
50688,note_on,,,,,0,0,13,,,,,6,,,65,100
50688,note_on,,,,,64,0,14,,,,,6,,,44,100
50780,note_off,,,,,92,0,7,,,,,0,,,77,100
50784,note_on,,,,,4,0,7,,,,,0,,,74,100
50816,note_off,,,,,128,0,12,,,,,5,,,32,100
50816,note_off,,,,,0,0,13,,,,,6,,,65,100
50816,note_off,,,,,128,0,13,,,,,6,,,62,100
50816,note_off,,,,,128,0,11,,,,,4,,,44,100
50816,note_off,,,,,128,0,14,,,,,6,,,44,100
50876,note_off,,,,,92,0,7,,,,,0,,,74,100
50880,note_on,,,,,4,0,7,,,,,0,,,73,100
50880,note_on,,,,,0,0,13,,,,,6,,,65,100
50880,note_on,,,,,64,0,13,,,,,6,,,62,100
50880,note_on,,,,,64,0,14,,,,,6,,,44,100
50880,note_on,,,,,64,0,11,,,,,4,,,44,85
50880,note_on,,,,,64,0,12,,,,,5,,,32,85
50972,note_off,,,,,92,0,7,,,,,0,,,73,100
50976,note_on,,,,,4,0,7,,,,,0,,,74,100
51008,note_off,,,,,128,0,12,,,,,5,,,32,100
51008,note_off,,,,,128,0,14,,,,,6,,,44,100
51008,note_off,,,,,128,0,11,,,,,4,,,44,100
51008,note_off,,,,,128,0,13,,,,,6,,,62,100
51008,note_off,,,,,0,0,13,,,,,6,,,65,100
51040,note_off,,,,,64,0,7,,,,,0,,,74,100
51072,note_on,,,,,64,0,13,,,,,6,,,62,100
51072,note_on,,,,,64,0,14,,,,,6,,,44,100
51072,note_on,,,,,0,0,13,,,,,6,,,65,100
51072,note_on,,,,,64,0,12,,,,,5,,,32,85
51072,note_on,,,,,32,0,7,,,,,0,,,77,100
51072,note_on,,,,,64,0,11,,,,,4,,,44,85
51164,note_off,,,,,92,0,7,,,,,0,,,77,100
51168,note_on,,,,,4,0,7,,,,,0,,,76,100
51200,note_off,,,,,128,0,11,,,,,4,,,44,100
51200,note_off,,,,,128,0,12,,,,,5,,,32,100
51200,note_off,,,,,128,0,14,,,,,6,,,44,100
51200,note_off,,,,,0,0,13,,,,,6,,,65,100
51200,note_off,,,,,128,0,13,,,,,6,,,62,100
51232,note_off,,,,,64,0,7,,,,,0,,,76,100
51264,note_on,,,,,32,0,7,,,,,0,,,77,100
51264,note_on,,,,,64,0,14,,,,,6,,,44,100
51264,note_on,,,,,64,0,12,,,,,5,,,32,85
51264,note_on,,,,,64,0,13,,,,,6,,,62,100
51264,note_on,,,,,0,0,13,,,,,6,,,65,100
51264,note_on,,,,,64,0,11,,,,,4,,,44,85
51308,note_off,,,,,44,0,7,,,,,0,,,77,100
51312,note_on,,,,,4,0,7,,,,,0,,,76,100
51356,note_off,,,,,44,0,7,,,,,0,,,76,100
51360,note_on,,,,,4,0,7,,,,,0,,,77,100
51392,note_off,,,,,128,0,13,,,,,6,,,62,100
51392,note_off,,,,,128,0,14,,,,,6,,,44,100
51392,note_off,,,,,0,0,13,,,,,6,,,65,100
51392,note_off,,,,,32,0,7,,,,,0,,,77,100
51392,note_off,,,,,128,0,11,,,,,4,,,44,100
51392,note_off,,,,,128,0,12,,,,,5,,,32,100
51408,note_on,,,,,16,0,7,,,,,0,,,79,100
51440,note_off,,,,,32,0,7,,,,,0,,,79,100
51456,note_on,,,,,64,0,12,,,,,5,,,32,85
51456,note_on,,,,,64,0,14,,,,,6,,,44,100
51456,note_on,,,,,0,0,13,,,,,6,,,65,100
51456,note_on,,,,,16,0,7,,,,,0,,,77,100
51456,note_on,,,,,64,0,13,,,,,6,,,62,100
51456,note_on,,,,,64,0,11,,,,,4,,,44,85
51500,note_off,,,,,44,0,7,,,,,0,,,77,100
51504,note_on,,,,,4,0,7,,,,,0,,,76,100
51548,note_off,,,,,44,0,7,,,,,0,,,76,100
51552,note_on,,,,,4,0,7,,,,,0,,,77,100
51584,note_off,,,,,32,0,7,,,,,0,,,77,100
51584,note_off,,,,,128,0,13,,,,,6,,,62,100
51584,note_off,,,,,0,0,13,,,,,6,,,65,100
51584,note_off,,,,,128,0,14,,,,,6,,,44,100
51584,note_off,,,,,128,0,11,,,,,4,,,44,100
51584,note_off,,,,,128,0,12,,,,,5,,,32,100
51600,note_on,,,,,16,0,7,,,,,0,,,79,100
51632,note_off,,,,,32,0,7,,,,,0,,,79,100
51648,note_on,,,,,64,0,14,,,,,6,,,44,100
51648,note_on,,,,,64,0,11,,,,,4,,,44,85
51648,note_on,,,,,64,0,12,,,,,5,,,32,85
51648,note_on,,,,,64,0,13,,,,,6,,,62,100
51648,note_on,,,,,0,0,13,,,,,6,,,65,100
51648,note_on,,,,,16,0,7,,,,,0,,,77,100
51692,note_off,,,,,44,0,7,,,,,0,,,77,100
51696,note_on,,,,,4,0,7,,,,,0,,,76,100
51740,note_off,,,,,44,0,7,,,,,0,,,76,100
51744,note_on,,,,,4,0,7,,,,,0,,,77,100
51776,note_off,,,,,128,0,12,,,,,5,,,32,100
51776,note_off,,,,,0,0,13,,,,,6,,,65,100
51776,note_off,,,,,128,0,14,,,,,6,,,44,100
51776,note_off,,,,,32,0,7,,,,,0,,,77,100
51776,note_off,,,,,128,0,11,,,,,4,,,44,100
51776,note_off,,,,,128,0,13,,,,,6,,,62,100
51792,note_on,,,,,16,0,7,,,,,0,,,79,100
51824,note_off,,,,,32,0,7,,,,,0,,,79,100
51840,note_on,,,,,0,0,13,,,,,6,,,59,100
51840,note_on,,,,,16,0,7,,,,,0,,,76,100
51840,note_on,,,,,64,0,11,,,,,4,,,44,85
51840,note_on,,,,,64,0,14,,,,,6,,,44,100
51840,note_on,,,,,64,0,13,,,,,6,,,64,100
51840,note_on,,,,,64,0,12,,,,,5,,,32,85
51884,note_off,,,,,44,0,7,,,,,0,,,76,100
51888,note_on,,,,,4,0,7,,,,,0,,,74,100
51932,note_off,,,,,44,0,7,,,,,0,,,74,100
51936,note_on,,,,,4,0,7,,,,,0,,,76,100
51968,note_off,,,,,128,0,11,,,,,4,,,44,100
51968,note_off,,,,,128,0,14,,,,,6,,,44,100
51968,note_off,,,,,128,0,13,,,,,6,,,64,100
51968,note_off,,,,,128,0,12,,,,,5,,,32,100
51968,note_off,,,,,32,0,7,,,,,0,,,76,100
51968,note_off,,,,,0,0,13,,,,,6,,,59,100
51984,note_on,,,,,16,0,7,,,,,0,,,77,100
52016,note_off,,,,,32,0,7,,,,,0,,,77,100
52032,note_on,,,,,64,0,12,,,,,5,,,32,85
52032,note_on,,,,,0,0,13,,,,,6,,,59,100
52032,note_on,,,,,64,0,13,,,,,6,,,64,100
52032,note_on,,,,,64,0,11,,,,,4,,,44,85
52032,note_on,,,,,64,0,14,,,,,6,,,44,100
52032,note_on,,,,,16,0,7,,,,,0,,,76,100
52076,note_off,,,,,44,0,7,,,,,0,,,76,100
52080,note_on,,,,,4,0,7,,,,,0,,,74,100
52124,note_off,,,,,44,0,7,,,,,0,,,74,100
52128,note_on,,,,,4,0,7,,,,,0,,,76,100
52160,note_off,,,,,128,0,11,,,,,4,,,44,100
52160,note_off,,,,,128,0,12,,,,,5,,,32,100
52160,note_off,,,,,32,0,7,,,,,0,,,76,100
52160,note_off,,,,,128,0,13,,,,,6,,,64,100
52160,note_off,,,,,128,0,14,,,,,6,,,44,100
52160,note_off,,,,,0,0,13,,,,,6,,,59,100
52176,note_on,,,,,16,0,7,,,,,0,,,77,100
52208,note_off,,,,,32,0,7,,,,,0,,,77,100
52224,note_on,,,,,0,0,13,,,,,6,,,59,100
52224,note_on,,,,,64,0,13,,,,,6,,,64,100
52224,note_on,,,,,64,0,12,,,,,5,,,32,85
52224,note_on,,,,,64,0,11,,,,,4,,,44,85
52224,note_on,,,,,64,0,14,,,,,6,,,44,100
52224,note_on,,,,,16,0,7,,,,,0,,,76,100
52268,note_off,,,,,44,0,7,,,,,0,,,76,100
52272,note_on,,,,,4,0,7,,,,,0,,,74,100
52316,note_off,,,,,44,0,7,,,,,0,,,74,100
52320,note_on,,,,,4,0,7,,,,,0,,,76,100
52352,note_off,,,,,128,0,12,,,,,5,,,32,100
52352,note_off,,,,,128,0,14,,,,,6,,,44,100
52352,note_off,,,,,128,0,13,,,,,6,,,64,100
52352,note_off,,,,,32,0,7,,,,,0,,,76,100
52352,note_off,,,,,128,0,11,,,,,4,,,44,100
52352,note_off,,,,,0,0,13,,,,,6,,,59,100
52368,note_on,,,,,16,0,7,,,,,0,,,77,100
52400,note_off,,,,,32,0,7,,,,,0,,,77,100
52416,note_on,,,,,16,0,7,,,,,0,,,74,100
52416,note_on,,,,,64,0,14,,,,,6,,,44,100
52416,note_on,,,,,0,0,13,,,,,6,,,64,100
52416,note_on,,,,,64,0,13,,,,,6,,,62,100
52416,note_on,,,,,64,0,12,,,,,5,,,32,85
52416,note_on,,,,,64,0,11,,,,,4,,,44,85
52460,note_off,,,,,44,0,7,,,,,0,,,74,100
52464,note_on,,,,,4,0,7,,,,,0,,,73,100
52508,note_off,,,,,44,0,7,,,,,0,,,73,100
52512,note_on,,,,,4,0,7,,,,,0,,,74,100
52544,note_off,,,,,128,0,12,,,,,5,,,32,100
52544,note_off,,,,,128,0,11,,,,,4,,,44,100
52544,note_off,,,,,128,0,14,,,,,6,,,44,100
52544,note_off,,,,,128,0,13,,,,,6,,,62,100
52544,note_off,,,,,32,0,7,,,,,0,,,74,100
52544,note_off,,,,,0,0,13,,,,,6,,,64,100
52560,note_on,,,,,16,0,7,,,,,0,,,76,100
52592,note_off,,,,,32,0,7,,,,,0,,,76,100
52608,note_on,,,,,16,0,7,,,,,0,,,74,100
52608,note_on,,,,,64,0,14,,,,,6,,,44,100
52608,note_on,,,,,64,0,11,,,,,4,,,44,85
52608,note_on,,,,,0,0,13,,,,,6,,,64,100
52608,note_on,,,,,64,0,13,,,,,6,,,62,100
52608,note_on,,,,,64,0,12,,,,,5,,,32,85
52652,note_off,,,,,44,0,7,,,,,0,,,74,100
52656,note_on,,,,,4,0,7,,,,,0,,,73,100
52700,note_off,,,,,44,0,7,,,,,0,,,73,100
52704,note_on,,,,,4,0,7,,,,,0,,,74,100
52736,note_off,,,,,0,0,13,,,,,6,,,64,100
52736,note_off,,,,,128,0,13,,,,,6,,,62,100
52736,note_off,,,,,128,0,14,,,,,6,,,44,100
52736,note_off,,,,,128,0,12,,,,,5,,,32,100
52736,note_off,,,,,128,0,11,,,,,4,,,44,100
52736,note_off,,,,,32,0,7,,,,,0,,,74,100
52752,note_on,,,,,16,0,7,,,,,0,,,76,100
52784,note_off,,,,,32,0,7,,,,,0,,,76,100
52800,note_on,,,,,16,0,7,,,,,0,,,74,100
52800,note_on,,,,,64,0,11,,,,,4,,,44,85
52800,note_on,,,,,64,0,12,,,,,5,,,32,85
52800,note_on,,,,,64,0,13,,,,,6,,,62,100
52800,note_on,,,,,0,0,13,,,,,6,,,64,100
52800,note_on,,,,,64,0,14,,,,,6,,,44,100
52844,note_off,,,,,44,0,7,,,,,0,,,74,100
52848,note_on,,,,,4,0,7,,,,,0,,,73,100
52892,note_off,,,,,44,0,7,,,,,0,,,73,100
52896,note_on,,,,,4,0,7,,,,,0,,,74,100
52928,note_off,,,,,32,0,7,,,,,0,,,74,100
52928,note_off,,,,,128,0,11,,,,,4,,,44,100
52928,note_off,,,,,128,0,12,,,,,5,,,32,100
52928,note_off,,,,,0,0,13,,,,,6,,,64,100
52928,note_off,,,,,128,0,13,,,,,6,,,62,100
52928,note_off,,,,,128,0,14,,,,,6,,,44,100
52944,note_on,,,,,16,0,7,,,,,0,,,76,100
52976,note_off,,,,,32,0,7,,,,,0,,,76,100
52992,note_on,,,,,64,0,12,,,,,5,,,33,85
52992,note_on,,,,,16,0,7,,,,,0,,,73,100
52992,note_on,,,,,0,0,13,,,,,6,,,64,100
52992,note_on,,,,,64,0,11,,,,,4,,,45,85
52992,note_on,,,,,64,0,14,,,,,6,,,45,100
52992,note_on,,,,,64,0,13,,,,,6,,,61,100
53024,note_off,,,,,32,0,7,,,,,0,,,73,100
53040,note_on,,,,,16,0,7,,,,,0,,,69,100
53072,note_off,,,,,32,0,7,,,,,0,,,69,100
53088,note_on,,,,,16,0,7,,,,,0,,,71,100
53120,note_off,,,,,32,0,7,,,,,0,,,71,100
53136,note_on,,,,,16,0,7,,,,,0,,,73,100
53168,note_off,,,,,32,0,7,,,,,0,,,73,100
53184,note_on,,,,,16,0,7,,,,,0,,,74,100
53216,note_off,,,,,32,0,7,,,,,0,,,74,100
53232,note_on,,,,,16,0,7,,,,,0,,,76,100
53248,note_off,,,,,256,0,11,,,,,4,,,45,100
53248,note_off,,,,,256,0,14,,,,,6,,,45,100
53248,note_off,,,,,256,0,13,,,,,6,,,61,100
53248,note_off,,,,,0,0,13,,,,,6,,,64,100
53248,note_off,,,,,256,0,12,,,,,5,,,33,100
53264,note_off,,,,,32,0,7,,,,,0,,,76,100
53280,note_on,,,,,16,0,7,,,,,0,,,78,100
53312,note_off,,,,,32,0,7,,,,,0,,,78,100
53328,note_on,,,,,16,0,7,,,,,0,,,80,100
53360,note_off,,,,,32,0,7,,,,,0,,,80,100
53376,note_on,,,,,16,0,7,,,,,0,,,81,100
53408,note_off,,,,,32,0,7,,,,,0,,,81,100
53424,note_on,,,,,16,0,7,,,,,0,,,83,100
53456,note_off,,,,,32,0,7,,,,,0,,,83,100
53472,note_on,,,,,16,0,7,,,,,0,,,81,100
53504,note_off,,,,,32,0,7,,,,,0,,,81,100
53520,note_on,,,,,16,0,7,,,,,0,,,83,100
53552,note_off,,,,,32,0,7,,,,,0,,,83,100
53568,note_on,,,,,320,0,11,,,,,4,,,45,85
53568,note_on,,,,,0,0,13,,,,,6,,,64,100
53568,note_on,,,,,320,0,13,,,,,6,,,61,100
53568,note_on,,,,,16,0,7,,,,,0,,,81,100
53568,note_on,,,,,320,0,12,,,,,5,,,33,85
53568,note_on,,,,,320,0,14,,,,,6,,,45,100
53600,note_off,,,,,32,0,7,,,,,0,,,81,100
53616,note_on,,,,,16,0,7,,,,,0,,,69,100
53648,note_off,,,,,32,0,7,,,,,0,,,69,100
53664,note_on,,,,,16,0,7,,,,,0,,,71,100
53696,note_off,,,,,32,0,7,,,,,0,,,71,100
53712,note_on,,,,,16,0,7,,,,,0,,,73,100
53744,note_off,,,,,32,0,7,,,,,0,,,73,100
53760,note_on,,,,,16,0,7,,,,,0,,,74,100
53792,note_off,,,,,32,0,7,,,,,0,,,74,100
53808,note_on,,,,,16,0,7,,,,,0,,,76,100
53824,note_off,,,,,256,0,14,,,,,6,,,45,100
53824,note_off,,,,,256,0,12,,,,,5,,,33,100
53824,note_off,,,,,256,0,13,,,,,6,,,61,100
53824,note_off,,,,,0,0,13,,,,,6,,,64,100
53824,note_off,,,,,256,0,11,,,,,4,,,45,100
53840,note_off,,,,,32,0,7,,,,,0,,,76,100
53856,note_on,,,,,16,0,7,,,,,0,,,78,100
53888,note_off,,,,,32,0,7,,,,,0,,,78,100
53904,note_on,,,,,16,0,7,,,,,0,,,80,100
53936,note_off,,,,,32,0,7,,,,,0,,,80,100
53952,note_on,,,,,16,0,7,,,,,0,,,81,100
53984,note_off,,,,,32,0,7,,,,,0,,,81,100
54000,note_on,,,,,16,0,7,,,,,0,,,83,100
54032,note_off,,,,,32,0,7,,,,,0,,,83,100
54048,note_on,,,,,16,0,7,,,,,0,,,81,100
54080,note_off,,,,,32,0,7,,,,,0,,,81,100
54096,note_on,,,,,16,0,7,,,,,0,,,83,100
54128,note_off,,,,,32,0,7,,,,,0,,,83,100
54144,note_on,,,,,320,0,14,,,,,6,,,50,100
54144,note_on,,,,,320,0,13,,,,,6,,,66,100
54144,note_on,,,,,16,0,7,,,,,0,,,78,100
54144,note_on,,,,,320,0,11,,,,,4,,,50,85
54144,note_on,,,,,320,0,12,,,,,5,,,38,85
54208,note_off,,,,,64,0,7,,,,,0,,,78,100
54208,note_off,,,,,64,0,11,,,,,4,,,50,100
54208,note_off,,,,,64,0,13,,,,,6,,,66,100
54208,note_off,,,,,64,0,14,,,,,6,,,50,100
54208,note_off,,,,,64,0,12,,,,,5,,,38,100
54240,note_on,,,,,32,0,7,,,,,0,,,76,100
54240,note_on,,,,,32,0,11,,,,,4,,,55,87
54240,note_on,,,,,32,0,14,,,,,6,,,55,100
54240,note_on,,,,,32,0,13,,,,,6,,,71,100
54240,note_on,,,,,32,0,12,,,,,5,,,43,87
54272,note_off,,,,,32,0,7,,,,,0,,,76,100
54288,note_on,,,,,16,0,7,,,,,0,,,74,100
54304,note_off,,,,,64,0,11,,,,,4,,,55,100
54304,note_off,,,,,64,0,12,,,,,5,,,43,100
54304,note_off,,,,,64,0,14,,,,,6,,,55,100
54304,note_off,,,,,64,0,13,,,,,6,,,71,100
54320,note_off,,,,,32,0,7,,,,,0,,,74,100
54336,note_on,,,,,32,0,13,,,,,6,,,73,100
54336,note_on,,,,,32,0,12,,,,,5,,,45,90
54336,note_on,,,,,32,0,11,,,,,4,,,57,90
54336,note_on,,,,,32,0,14,,,,,6,,,57,100
54336,note_on,,,,,16,0,7,,,,,0,,,73,100
54400,note_off,,,,,64,0,13,,,,,6,,,73,100
54400,note_off,,,,,64,0,11,,,,,4,,,57,100
54400,note_off,,,,,64,0,7,,,,,0,,,73,100
54400,note_off,,,,,64,0,12,,,,,5,,,45,100
54400,note_off,,,,,64,0,14,,,,,6,,,57,100
54432,note_on,,,,,32,0,12,,,,,5,,,38,93
54432,note_on,,,,,32,0,14,,,,,6,,,50,100
54432,note_on,,,,,32,0,11,,,,,4,,,50,93
54432,note_on,,,,,32,0,7,,,,,0,,,74,100
54432,note_on,,,,,32,0,13,,,,,6,,,66,100
54496,note_off,,,,,64,0,12,,,,,5,,,38,100
54496,note_off,,,,,64,0,11,,,,,4,,,50,100
54496,note_off,,,,,64,0,7,,,,,0,,,74,100
54496,note_off,,,,,64,0,13,,,,,6,,,66,100
54496,note_off,,,,,64,0,14,,,,,6,,,50,100
54528,note_on,,,,,0,0,13,,,,,6,,,76,100
54528,note_on,,,,,32,0,13,,,,,6,,,74,100
54528,note_on,,,,,32,0,12,,,,,5,,,45,96
54528,note_on,,,,,32,0,14,,,,,6,,,57,100
54528,note_on,,,,,32,0,7,,,,,0,,,64,100
54528,note_on,,,,,32,0,11,,,,,4,,,57,96
54592,note_off,,,,,64,0,11,,,,,4,,,57,100
54592,note_off,,,,,0,0,13,,,,,6,,,76,100
54592,note_off,,,,,64,0,13,,,,,6,,,74,100
54592,note_off,,,,,64,0,12,,,,,5,,,45,100
54592,note_off,,,,,64,0,7,,,,,0,,,64,100
54592,note_off,,,,,64,0,14,,,,,6,,,57,100
54624,note_on,,,,,32,0,7,,,,,0,,,73,100
54624,note_on,,,,,32,0,14,,,,,6,,,45,100
54624,note_on,,,,,32,0,11,,,,,4,,,45,99
54624,note_on,,,,,32,0,13,,,,,6,,,64,100
54624,note_on,,,,,0,0,13,,,,,6,,,73,100
54624,note_on,,,,,32,0,12,,,,,5,,,33,99
54688,note_off,,,,,64,0,7,,,,,0,,,73,100
54688,note_off,,,,,64,0,14,,,,,6,,,45,100
54688,note_off,,,,,64,0,11,,,,,4,,,45,100
54688,note_off,,,,,64,0,13,,,,,6,,,64,100
54688,note_off,,,,,0,0,13,,,,,6,,,73,100
54688,note_off,,,,,64,0,12,,,,,5,,,33,100
54720,note_on,,,,,32,0,13,,,,,6,,,74,100
54720,note_on,,,,,0,0,13,,,,,6,,,66,100
54720,note_on,,,,,32,0,7,,,,,0,,,74,100
54720,note_on,,,,,32,0,11,,,,,4,,,50,100
54720,note_on,,,,,32,0,12,,,,,5,,,38,100
54720,note_on,,,,,32,0,14,,,,,6,,,50,100
54784,note_off,,,,,64,0,12,,,,,5,,,38,100
54784,note_off,,,,,64,0,14,,,,,6,,,50,100
54784,note_off,,,,,64,0,11,,,,,4,,,50,100
54816,note_on,,,,,32,0,12,,,,,5,,,38,100
54816,note_on,,,,,32,0,14,,,,,6,,,50,100
54816,note_on,,,,,4448,0,9,,,,,2,,,78,100
54816,note_on,,,,,32,0,11,,,,,4,,,50,100
54816,note_on,,,,,4448,0,10,,,,,3,,,62,100
54816,note_on,,,,,4448,0,8,,,,,1,,,81,100
54848,note_off,,,,,128,0,13,,,,,6,,,74,100
54848,note_off,,,,,0,0,13,,,,,6,,,66,100
54880,note_off,,,,,64,0,8,,,,,1,,,81,100
54880,note_off,,,,,64,0,14,,,,,6,,,50,100
54880,note_off,,,,,64,0,10,,,,,3,,,62,100
54880,note_off,,,,,64,0,12,,,,,5,,,38,100
54880,note_off,,,,,64,0,11,,,,,4,,,50,100
54880,note_off,,,,,64,0,9,,,,,2,,,78,100
54912,note_on,,,,,32,0,10,,,,,3,,,62,100
54912,note_on,,,,,64,0,13,,,,,6,,,69,100
54912,note_on,,,,,32,0,14,,,,,6,,,50,100
54912,note_on,,,,,32,0,8,,,,,1,,,81,100
54912,note_on,,,,,32,0,11,,,,,4,,,50,100
54912,note_on,,,,,32,0,9,,,,,2,,,78,100
54912,note_on,,,,,32,0,12,,,,,5,,,38,100
54912,note_on,,,,,0,0,13,,,,,6,,,66,100
54976,note_off,,,,,64,0,8,,,,,1,,,81,100
54976,note_off,,,,,64,0,11,,,,,4,,,50,100
54976,note_off,,,,,64,0,10,,,,,3,,,62,100
54976,note_off,,,,,64,0,9,,,,,2,,,78,100
54976,note_off,,,,,64,0,12,,,,,5,,,38,100
54976,note_off,,,,,256,0,7,,,,,0,,,74,100
54976,note_off,,,,,64,0,14,,,,,6,,,50,100
55008,note_on,,,,,32,0,11,,,,,4,,,50,100
55008,note_on,,,,,32,0,10,,,,,3,,,62,100
55008,note_on,,,,,32,0,12,,,,,5,,,38,100
55008,note_on,,,,,32,0,8,,,,,1,,,81,100
55008,note_on,,,,,32,0,9,,,,,2,,,78,100
55008,note_on,,,,,32,0,14,,,,,6,,,50,100
55040,note_off,,,,,128,0,13,,,,,6,,,69,100
55040,note_off,,,,,0,0,13,,,,,6,,,66,100
55072,note_off,,,,,64,0,11,,,,,4,,,50,100
55072,note_off,,,,,64,0,14,,,,,6,,,50,100
55072,note_off,,,,,64,0,10,,,,,3,,,62,100
55072,note_off,,,,,64,0,8,,,,,1,,,81,100
55072,note_off,,,,,64,0,9,,,,,2,,,78,100
55072,note_off,,,,,64,0,12,,,,,5,,,38,100
55104,note_on,,,,,32,0,12,,,,,5,,,38,100
55104,note_on,,,,,32,0,9,,,,,2,,,78,100
55104,note_on,,,,,32,0,11,,,,,4,,,50,100
55104,note_on,,,,,32,0,14,,,,,6,,,50,100
55104,note_on,,,,,32,0,10,,,,,3,,,62,100
55104,note_on,,,,,0,0,13,,,,,6,,,66,100
55104,note_on,,,,,32,0,8,,,,,1,,,81,100
55104,note_on,,,,,64,0,13,,,,,6,,,69,100
55168,note_off,,,,,64,0,12,,,,,5,,,38,100
55168,note_off,,,,,64,0,11,,,,,4,,,50,100
55168,note_off,,,,,64,0,9,,,,,2,,,78,100
55168,note_off,,,,,64,0,14,,,,,6,,,50,100
55168,note_off,,,,,64,0,10,,,,,3,,,62,100
55168,note_off,,,,,64,0,8,,,,,1,,,81,100
55200,note_on,,,,,32,0,11,,,,,4,,,50,100
55200,note_on,,,,,32,0,14,,,,,6,,,50,100
55200,note_on,,,,,32,0,10,,,,,3,,,62,100
55200,note_on,,,,,32,0,12,,,,,5,,,38,100
55200,note_on,,,,,32,0,8,,,,,1,,,81,100
55200,note_on,,,,,32,0,9,,,,,2,,,78,100
55232,note_off,,,,,128,0,13,,,,,6,,,69,100
55232,note_off,,,,,0,0,13,,,,,6,,,66,100
55264,note_off,,,,,64,0,9,,,,,2,,,78,100
55264,note_off,,,,,64,0,12,,,,,5,,,38,100
55264,note_off,,,,,64,0,8,,,,,1,,,81,100
55264,note_off,,,,,64,0,11,,,,,4,,,50,100
55264,note_off,,,,,64,0,14,,,,,6,,,50,100
55264,note_off,,,,,64,0,10,,,,,3,,,62,100
55296,note_on,,,,,32,0,8,,,,,1,,,81,99
55296,note_on,,,,,32,0,12,,,,,5,,,38,99
55296,note_on,,,,,0,0,13,,,,,6,,,69,100
55296,note_on,,,,,32,0,11,,,,,4,,,50,99
55296,note_on,,,,,32,0,10,,,,,3,,,66,99
55296,note_on,,,,,64,0,13,,,,,6,,,71,100
55296,note_on,,,,,32,0,9,,,,,2,,,71,99
55296,note_on,,,,,32,0,14,,,,,6,,,50,100
55360,note_off,,,,,64,0,10,,,,,3,,,66,100
55360,note_off,,,,,64,0,11,,,,,4,,,50,100
55360,note_off,,,,,64,0,12,,,,,5,,,38,100
55360,note_off,,,,,64,0,8,,,,,1,,,81,100
55360,note_off,,,,,64,0,9,,,,,2,,,71,100
55360,note_off,,,,,64,0,14,,,,,6,,,50,100
55392,note_on,,,,,32,0,12,,,,,5,,,38,98
55392,note_on,,,,,32,0,10,,,,,3,,,66,98
55392,note_on,,,,,32,0,11,,,,,4,,,50,98
55392,note_on,,,,,32,0,9,,,,,2,,,71,98
55392,note_on,,,,,32,0,14,,,,,6,,,50,100
55392,note_on,,,,,32,0,8,,,,,1,,,81,98
55424,note_off,,,,,0,0,13,,,,,6,,,69,100
55424,note_off,,,,,128,0,13,,,,,6,,,71,100
55456,note_off,,,,,64,0,9,,,,,2,,,71,100
55456,note_off,,,,,64,0,10,,,,,3,,,66,100
55456,note_off,,,,,64,0,14,,,,,6,,,50,100
55456,note_off,,,,,64,0,12,,,,,5,,,38,100
55456,note_off,,,,,64,0,11,,,,,4,,,50,100
55456,note_off,,,,,64,0,8,,,,,1,,,81,100
55488,note_on,,,,,32,0,8,,,,,1,,,81,97
55488,note_on,,,,,32,0,12,,,,,5,,,38,97
55488,note_on,,,,,32,0,10,,,,,3,,,66,97
55488,note_on,,,,,32,0,14,,,,,6,,,50,100
55488,note_on,,,,,32,0,11,,,,,4,,,50,97
55488,note_on,,,,,64,0,13,,,,,6,,,71,100
55488,note_on,,,,,0,0,13,,,,,6,,,69,100
55488,note_on,,,,,32,0,9,,,,,2,,,71,97
55552,note_off,,,,,64,0,10,,,,,3,,,66,100
55552,note_off,,,,,64,0,8,,,,,1,,,81,100
55552,note_off,,,,,64,0,11,,,,,4,,,50,100
55552,note_off,,,,,64,0,12,,,,,5,,,38,100
55552,note_off,,,,,64,0,9,,,,,2,,,71,100
55552,note_off,,,,,64,0,14,,,,,6,,,50,100
55584,note_on,,,,,32,0,10,,,,,3,,,66,97
55584,note_on,,,,,32,0,11,,,,,4,,,50,97
55584,note_on,,,,,32,0,14,,,,,6,,,50,100
55584,note_on,,,,,32,0,8,,,,,1,,,81,97
55584,note_on,,,,,32,0,12,,,,,5,,,38,97
55584,note_on,,,,,32,0,9,,,,,2,,,71,97
55616,note_off,,,,,128,0,13,,,,,6,,,71,100
55616,note_off,,,,,0,0,13,,,,,6,,,69,100
55648,note_off,,,,,64,0,9,,,,,2,,,71,100
55648,note_off,,,,,64,0,12,,,,,5,,,38,100
55648,note_off,,,,,64,0,8,,,,,1,,,81,100
55648,note_off,,,,,64,0,14,,,,,6,,,50,100
55648,note_off,,,,,64,0,11,,,,,4,,,50,100
55648,note_off,,,,,64,0,10,,,,,3,,,66,100
55680,note_on,,,,,64,0,13,,,,,6,,,71,100
55680,note_on,,,,,0,0,13,,,,,6,,,69,100
55680,note_on,,,,,32,0,8,,,,,1,,,81,96
55680,note_on,,,,,32,0,10,,,,,3,,,66,96
55680,note_on,,,,,32,0,11,,,,,4,,,50,96
55680,note_on,,,,,32,0,9,,,,,2,,,71,96
55680,note_on,,,,,32,0,12,,,,,5,,,38,96
55680,note_on,,,,,32,0,14,,,,,6,,,50,100
55744,note_off,,,,,64,0,9,,,,,2,,,71,100
55744,note_off,,,,,64,0,10,,,,,3,,,66,100
55744,note_off,,,,,64,0,14,,,,,6,,,50,100
55744,note_off,,,,,64,0,11,,,,,4,,,50,100
55744,note_off,,,,,64,0,8,,,,,1,,,81,100
55744,note_off,,,,,64,0,12,,,,,5,,,38,100
55776,note_on,,,,,32,0,8,,,,,1,,,81,95
55776,note_on,,,,,32,0,9,,,,,2,,,71,95
55776,note_on,,,,,32,0,12,,,,,5,,,38,95
55776,note_on,,,,,32,0,11,,,,,4,,,50,95
55776,note_on,,,,,32,0,14,,,,,6,,,50,100
55776,note_on,,,,,32,0,10,,,,,3,,,66,95
55808,note_off,,,,,0,0,13,,,,,6,,,69,100
55808,note_off,,,,,128,0,13,,,,,6,,,71,100
55840,note_off,,,,,64,0,8,,,,,1,,,81,100
55840,note_off,,,,,64,0,9,,,,,2,,,71,100
55840,note_off,,,,,64,0,12,,,,,5,,,38,100
55840,note_off,,,,,64,0,10,,,,,3,,,66,100
55840,note_off,,,,,64,0,11,,,,,4,,,50,100
55840,note_off,,,,,64,0,14,,,,,6,,,50,100
55872,note_on,,,,,32,0,8,,,,,1,,,79,94
55872,note_on,,,,,32,0,9,,,,,2,,,71,94
55872,note_on,,,,,32,0,10,,,,,3,,,64,94
55872,note_on,,,,,64,0,13,,,,,6,,,67,100
55872,note_on,,,,,32,0,12,,,,,5,,,40,94
55872,note_on,,,,,32,0,11,,,,,4,,,52,94
55872,note_on,,,,,32,0,14,,,,,6,,,52,100
55872,note_on,,,,,0,0,13,,,,,6,,,71,100
55936,note_off,,,,,64,0,12,,,,,5,,,40,100
55936,note_off,,,,,64,0,11,,,,,4,,,52,100
55936,note_off,,,,,64,0,9,,,,,2,,,71,100
55936,note_off,,,,,64,0,10,,,,,3,,,64,100
55936,note_off,,,,,64,0,8,,,,,1,,,79,100
55936,note_off,,,,,64,0,14,,,,,6,,,52,100
55968,note_on,,,,,32,0,12,,,,,5,,,40,93
55968,note_on,,,,,32,0,8,,,,,1,,,79,93
55968,note_on,,,,,32,0,10,,,,,3,,,64,93
55968,note_on,,,,,32,0,11,,,,,4,,,52,93
55968,note_on,,,,,32,0,14,,,,,6,,,52,100
55968,note_on,,,,,32,0,9,,,,,2,,,71,93
56000,note_off,,,,,128,0,13,,,,,6,,,67,100
56000,note_off,,,,,0,0,13,,,,,6,,,71,100
56032,note_off,,,,,64,0,12,,,,,5,,,40,100
56032,note_off,,,,,64,0,11,,,,,4,,,52,100
56032,note_off,,,,,64,0,9,,,,,2,,,71,100
56032,note_off,,,,,64,0,10,,,,,3,,,64,100
56032,note_off,,,,,64,0,14,,,,,6,,,52,100
56032,note_off,,,,,64,0,8,,,,,1,,,79,100
56064,note_on,,,,,0,0,13,,,,,6,,,71,100
56064,note_on,,,,,32,0,10,,,,,3,,,64,93
56064,note_on,,,,,32,0,12,,,,,5,,,40,93
56064,note_on,,,,,32,0,11,,,,,4,,,52,93
56064,note_on,,,,,32,0,14,,,,,6,,,52,100
56064,note_on,,,,,32,0,8,,,,,1,,,79,93
56064,note_on,,,,,32,0,9,,,,,2,,,71,93
56064,note_on,,,,,64,0,13,,,,,6,,,67,100
56128,note_off,,,,,64,0,12,,,,,5,,,40,100
56128,note_off,,,,,64,0,9,,,,,2,,,71,100
56128,note_off,,,,,64,0,10,,,,,3,,,64,100
56128,note_off,,,,,64,0,11,,,,,4,,,52,100
56128,note_off,,,,,64,0,14,,,,,6,,,52,100
56128,note_off,,,,,64,0,8,,,,,1,,,79,100
56160,note_on,,,,,32,0,14,,,,,6,,,52,100
56160,note_on,,,,,32,0,12,,,,,5,,,40,92
56160,note_on,,,,,32,0,10,,,,,3,,,64,92
56160,note_on,,,,,32,0,11,,,,,4,,,52,92
56160,note_on,,,,,32,0,8,,,,,1,,,79,92
56160,note_on,,,,,32,0,9,,,,,2,,,71,92
56192,note_off,,,,,0,0,13,,,,,6,,,71,100
56192,note_off,,,,,128,0,13,,,,,6,,,67,100
56224,note_off,,,,,64,0,12,,,,,5,,,40,100
56224,note_off,,,,,64,0,11,,,,,4,,,52,100
56224,note_off,,,,,64,0,14,,,,,6,,,52,100
56224,note_off,,,,,64,0,10,,,,,3,,,64,100
56224,note_off,,,,,64,0,8,,,,,1,,,79,100
56224,note_off,,,,,64,0,9,,,,,2,,,71,100
56256,note_on,,,,,32,0,14,,,,,6,,,52,100
56256,note_on,,,,,32,0,9,,,,,2,,,71,91
56256,note_on,,,,,32,0,10,,,,,3,,,64,91
56256,note_on,,,,,64,0,13,,,,,6,,,67,100
56256,note_on,,,,,0,0,13,,,,,6,,,71,100
56256,note_on,,,,,32,0,8,,,,,1,,,79,91
56256,note_on,,,,,32,0,12,,,,,5,,,40,91
56256,note_on,,,,,32,0,11,,,,,4,,,52,91
56320,note_off,,,,,64,0,12,,,,,5,,,40,100
56320,note_off,,,,,64,0,10,,,,,3,,,64,100
56320,note_off,,,,,64,0,11,,,,,4,,,52,100
56320,note_off,,,,,64,0,14,,,,,6,,,52,100
56320,note_off,,,,,64,0,8,,,,,1,,,79,100
56320,note_off,,,,,64,0,9,,,,,2,,,71,100
56352,note_on,,,,,32,0,12,,,,,5,,,40,90
56352,note_on,,,,,32,0,10,,,,,3,,,64,90
56352,note_on,,,,,32,0,8,,,,,1,,,79,90
56352,note_on,,,,,32,0,9,,,,,2,,,71,90
56352,note_on,,,,,32,0,11,,,,,4,,,52,90
56352,note_on,,,,,32,0,14,,,,,6,,,52,100
56384,note_off,,,,,128,0,13,,,,,6,,,67,100
56384,note_off,,,,,0,0,13,,,,,6,,,71,100
56416,note_off,,,,,64,0,8,,,,,1,,,79,100
56416,note_off,,,,,64,0,9,,,,,2,,,71,100
56416,note_off,,,,,64,0,11,,,,,4,,,52,100
56416,note_off,,,,,64,0,10,,,,,3,,,64,100
56416,note_off,,,,,64,0,12,,,,,5,,,40,100
56416,note_off,,,,,64,0,14,,,,,6,,,52,100
56448,note_on,,,,,32,0,9,,,,,2,,,73,89
56448,note_on,,,,,32,0,10,,,,,3,,,64,89
56448,note_on,,,,,64,0,13,,,,,6,,,64,100
56448,note_on,,,,,32,0,12,,,,,5,,,45,89
56448,note_on,,,,,32,0,8,,,,,1,,,79,89
56448,note_on,,,,,32,0,14,,,,,6,,,57,100
56448,note_on,,,,,32,0,11,,,,,4,,,57,89
56448,note_on,,,,,0,0,13,,,,,6,,,67,100
56512,note_off,,,,,64,0,14,,,,,6,,,57,100
56512,note_off,,,,,64,0,10,,,,,3,,,64,100
56512,note_off,,,,,64,0,9,,,,,2,,,73,100
56512,note_off,,,,,64,0,11,,,,,4,,,57,100
56512,note_off,,,,,64,0,8,,,,,1,,,79,100
56512,note_off,,,,,64,0,12,,,,,5,,,45,100
56544,note_on,,,,,32,0,9,,,,,2,,,73,89
56544,note_on,,,,,32,0,8,,,,,1,,,79,89
56544,note_on,,,,,32,0,10,,,,,3,,,64,89
56544,note_on,,,,,32,0,11,,,,,4,,,57,89
56544,note_on,,,,,32,0,14,,,,,6,,,57,100
56544,note_on,,,,,32,0,12,,,,,5,,,45,89
56576,note_off,,,,,0,0,13,,,,,6,,,67,100
56576,note_off,,,,,128,0,13,,,,,6,,,64,100
56608,note_off,,,,,64,0,9,,,,,2,,,73,100
56608,note_off,,,,,64,0,10,,,,,3,,,64,100
56608,note_off,,,,,64,0,14,,,,,6,,,57,100
56608,note_off,,,,,64,0,12,,,,,5,,,45,100
56608,note_off,,,,,64,0,11,,,,,4,,,57,100
56608,note_off,,,,,64,0,8,,,,,1,,,79,100
56640,note_on,,,,,32,0,12,,,,,5,,,45,88
56640,note_on,,,,,32,0,10,,,,,3,,,64,88
56640,note_on,,,,,32,0,11,,,,,4,,,57,88
56640,note_on,,,,,0,0,13,,,,,6,,,67,100
56640,note_on,,,,,32,0,9,,,,,2,,,73,88
56640,note_on,,,,,32,0,8,,,,,1,,,79,88
56640,note_on,,,,,32,0,14,,,,,6,,,57,100
56640,note_on,,,,,64,0,13,,,,,6,,,64,100
56704,note_off,,,,,64,0,14,,,,,6,,,57,100
56704,note_off,,,,,64,0,12,,,,,5,,,45,100
56704,note_off,,,,,64,0,10,,,,,3,,,64,100
56704,note_off,,,,,64,0,9,,,,,2,,,73,100
56704,note_off,,,,,64,0,11,,,,,4,,,57,100
56704,note_off,,,,,64,0,8,,,,,1,,,79,100
56736,note_on,,,,,32,0,8,,,,,1,,,79,87
56736,note_on,,,,,32,0,10,,,,,3,,,64,87
56736,note_on,,,,,32,0,12,,,,,5,,,45,87
56736,note_on,,,,,32,0,11,,,,,4,,,57,87
56736,note_on,,,,,32,0,9,,,,,2,,,73,87
56736,note_on,,,,,32,0,14,,,,,6,,,57,100
56768,note_off,,,,,128,0,13,,,,,6,,,64,100
56768,note_off,,,,,0,0,13,,,,,6,,,67,100
56800,note_off,,,,,64,0,9,,,,,2,,,73,100
56800,note_off,,,,,64,0,12,,,,,5,,,45,100
56800,note_off,,,,,64,0,10,,,,,3,,,64,100
56800,note_off,,,,,64,0,14,,,,,6,,,57,100
56800,note_off,,,,,64,0,8,,,,,1,,,79,100
56800,note_off,,,,,64,0,11,,,,,4,,,57,100
56832,note_on,,,,,32,0,9,,,,,2,,,74,86
56832,note_on,,,,,64,0,13,,,,,6,,,62,100
56832,note_on,,,,,32,0,10,,,,,3,,,71,86
56832,note_on,,,,,32,0,8,,,,,1,,,77,86
56832,note_on,,,,,32,0,14,,,,,6,,,56,100
56832,note_on,,,,,32,0,12,,,,,5,,,44,86
56832,note_on,,,,,0,0,13,,,,,6,,,65,100
56832,note_on,,,,,32,0,11,,,,,4,,,56,86
56896,note_off,,,,,64,0,12,,,,,5,,,44,100
56896,note_off,,,,,64,0,8,,,,,1,,,77,100
56896,note_off,,,,,64,0,10,,,,,3,,,71,100
56896,note_off,,,,,64,0,14,,,,,6,,,56,100
56896,note_off,,,,,64,0,11,,,,,4,,,56,100
56896,note_off,,,,,64,0,9,,,,,2,,,74,100
56928,note_on,,,,,32,0,14,,,,,6,,,56,100
56928,note_on,,,,,32,0,8,,,,,1,,,77,86
56928,note_on,,,,,32,0,12,,,,,5,,,44,86
56928,note_on,,,,,32,0,10,,,,,3,,,71,86
56928,note_on,,,,,32,0,11,,,,,4,,,56,86
56928,note_on,,,,,32,0,9,,,,,2,,,74,86
56960,note_off,,,,,128,0,13,,,,,6,,,62,100
56960,note_off,,,,,0,0,13,,,,,6,,,65,100
56992,note_off,,,,,64,0,8,,,,,1,,,77,100
56992,note_off,,,,,64,0,11,,,,,4,,,56,100
56992,note_off,,,,,64,0,12,,,,,5,,,44,100
56992,note_off,,,,,64,0,14,,,,,6,,,56,100
56992,note_off,,,,,64,0,9,,,,,2,,,74,100
56992,note_off,,,,,64,0,10,,,,,3,,,71,100
57024,note_on,,,,,32,0,8,,,,,1,,,76,85
57024,note_on,,,,,32,0,10,,,,,3,,,64,85
57024,note_on,,,,,32,0,12,,,,,5,,,45,85
57024,note_on,,,,,32,0,14,,,,,6,,,57,100
57024,note_on,,,,,32,0,11,,,,,4,,,57,85
57024,note_on,,,,,32,0,9,,,,,2,,,73,85
57024,note_on,,,,,64,0,13,,,,,6,,,64,100
57024,note_on,,,,,0,0,13,,,,,6,,,67,100
57088,note_off,,,,,64,0,11,,,,,4,,,57,100
57088,note_off,,,,,64,0,12,,,,,5,,,45,100
57088,note_off,,,,,64,0,10,,,,,3,,,64,100
57088,note_off,,,,,64,0,14,,,,,6,,,57,100
57088,note_off,,,,,64,0,9,,,,,2,,,73,100
57088,note_off,,,,,64,0,8,,,,,1,,,76,100
57120,note_on,,,,,32,0,12,,,,,5,,,45,85
57120,note_on,,,,,32,0,10,,,,,3,,,64,85
57120,note_on,,,,,32,0,14,,,,,6,,,57,100
57120,note_on,,,,,32,0,11,,,,,4,,,57,85
57120,note_on,,,,,32,0,8,,,,,1,,,76,85
57120,note_on,,,,,32,0,9,,,,,2,,,73,85
57152,note_off,,,,,128,0,13,,,,,6,,,64,100
57152,note_off,,,,,0,0,13,,,,,6,,,67,100
57184,note_off,,,,,64,0,8,,,,,1,,,76,100
57184,note_off,,,,,64,0,11,,,,,4,,,57,100
57184,note_off,,,,,64,0,12,,,,,5,,,45,100
57184,note_off,,,,,64,0,10,,,,,3,,,64,100
57184,note_off,,,,,64,0,14,,,,,6,,,57,100
57184,note_off,,,,,64,0,9,,,,,2,,,73,100
57216,note_on,,,,,32,0,11,,,,,4,,,57,85
57216,note_on,,,,,64,0,13,,,,,6,,,64,100
57216,note_on,,,,,0,0,13,,,,,6,,,67,100
57216,note_on,,,,,32,0,14,,,,,6,,,57,100
57216,note_on,,,,,32,0,9,,,,,2,,,73,85
57216,note_on,,,,,32,0,12,,,,,5,,,45,85
57216,note_on,,,,,32,0,10,,,,,3,,,73,85
57216,note_on,,,,,32,0,8,,,,,1,,,76,85
57280,note_off,,,,,64,0,14,,,,,6,,,57,100
57280,note_off,,,,,64,0,8,,,,,1,,,76,100
57280,note_off,,,,,64,0,11,,,,,4,,,57,100
57280,note_off,,,,,64,0,12,,,,,5,,,45,100
57280,note_off,,,,,64,0,10,,,,,3,,,73,100
57280,note_off,,,,,64,0,9,,,,,2,,,73,100
57312,note_on,,,,,32,0,8,,,,,1,,,76,85
57312,note_on,,,,,32,0,12,,,,,5,,,45,85
57312,note_on,,,,,32,0,14,,,,,6,,,57,100
57312,note_on,,,,,32,0,11,,,,,4,,,57,85
57312,note_on,,,,,32,0,10,,,,,3,,,73,85
57312,note_on,,,,,32,0,9,,,,,2,,,73,85
57344,note_off,,,,,0,0,13,,,,,6,,,67,100
57344,note_off,,,,,128,0,13,,,,,6,,,64,100
57376,note_off,,,,,64,0,9,,,,,2,,,73,100
57376,note_off,,,,,64,0,11,,,,,4,,,57,100
57376,note_off,,,,,64,0,10,,,,,3,,,73,100
57376,note_off,,,,,64,0,14,,,,,6,,,57,100
57376,note_off,,,,,64,0,12,,,,,5,,,45,100
57376,note_off,,,,,64,0,8,,,,,1,,,76,100
57408,note_on,,,,,32,0,10,,,,,3,,,71,60
57408,note_on,,,,,32,0,8,,,,,1,,,77,60
57408,note_on,,,,,32,0,11,,,,,4,,,56,60
57408,note_on,,,,,32,0,12,,,,,5,,,44,60
57408,note_on,,,,,32,0,14,,,,,6,,,56,100
57408,note_on,,,,,0,0,13,,,,,6,,,65,100
57408,note_on,,,,,64,0,13,,,,,6,,,62,100
57408,note_on,,,,,32,0,9,,,,,2,,,74,60
57472,note_off,,,,,64,0,8,,,,,1,,,77,100
57472,note_off,,,,,64,0,11,,,,,4,,,56,100
57472,note_off,,,,,64,0,12,,,,,5,,,44,100
57472,note_off,,,,,64,0,9,,,,,2,,,74,100
57472,note_off,,,,,64,0,14,,,,,6,,,56,100
57472,note_off,,,,,64,0,10,,,,,3,,,71,100
57504,note_on,,,,,32,0,10,,,,,3,,,71,60
57504,note_on,,,,,32,0,9,,,,,2,,,74,60
57504,note_on,,,,,32,0,8,,,,,1,,,77,60
57504,note_on,,,,,32,0,12,,,,,5,,,44,60
57504,note_on,,,,,32,0,11,,,,,4,,,56,60
57504,note_on,,,,,32,0,14,,,,,6,,,56,100
57536,note_off,,,,,0,0,13,,,,,6,,,65,100
57536,note_off,,,,,128,0,13,,,,,6,,,62,100
57568,note_off,,,,,64,0,8,,,,,1,,,77,100
57568,note_off,,,,,64,0,14,,,,,6,,,56,100
57568,note_off,,,,,64,0,12,,,,,5,,,44,100
57568,note_off,,,,,64,0,9,,,,,2,,,74,100
57568,note_off,,,,,64,0,11,,,,,4,,,56,100
57568,note_off,,,,,64,0,10,,,,,3,,,71,100
57600,note_on,,,,,32,0,14,,,,,6,,,57,100
57600,note_on,,,,,32,0,9,,,,,2,,,73,60
57600,note_on,,,,,64,0,13,,,,,6,,,61,100
57600,note_on,,,,,0,0,13,,,,,6,,,64,100
57600,note_on,,,,,32,0,10,,,,,3,,,64,60
57600,note_on,,,,,32,0,11,,,,,4,,,57,60
57600,note_on,,,,,32,0,8,,,,,1,,,76,60
57600,note_on,,,,,32,0,12,,,,,5,,,45,60
57664,note_off,,,,,64,0,11,,,,,4,,,57,100
57664,note_off,,,,,64,0,10,,,,,3,,,64,100
57664,note_off,,,,,64,0,9,,,,,2,,,73,100
57664,note_off,,,,,64,0,14,,,,,6,,,57,100
57664,note_off,,,,,64,0,8,,,,,1,,,76,100
57664,note_off,,,,,64,0,12,,,,,5,,,45,100
57696,note_on,,,,,32,0,10,,,,,3,,,64,60
57696,note_on,,,,,32,0,8,,,,,1,,,76,60
57696,note_on,,,,,32,0,9,,,,,2,,,73,60
57696,note_on,,,,,32,0,11,,,,,4,,,57,60
57696,note_on,,,,,32,0,12,,,,,5,,,45,60
57696,note_on,,,,,32,0,14,,,,,6,,,57,100
57728,note_off,,,,,0,0,13,,,,,6,,,64,100
57728,note_off,,,,,128,0,13,,,,,6,,,61,100
57760,note_off,,,,,64,0,10,,,,,3,,,64,100
57760,note_off,,,,,64,0,12,,,,,5,,,45,100
57760,note_off,,,,,64,0,11,,,,,4,,,57,100
57760,note_off,,,,,64,0,9,,,,,2,,,73,100
57760,note_off,,,,,64,0,8,,,,,1,,,76,100
57760,note_off,,,,,64,0,14,,,,,6,,,57,100
57792,note_on,,,,,32,0,9,,,,,2,,,73,60
57792,note_on,,,,,32,0,8,,,,,1,,,76,60
57792,note_on,,,,,32,0,14,,,,,6,,,57,100
57792,note_on,,,,,64,0,13,,,,,6,,,61,100
57792,note_on,,,,,0,0,13,,,,,6,,,64,100
57792,note_on,,,,,32,0,11,,,,,4,,,57,60
57792,note_on,,,,,32,0,12,,,,,5,,,45,60
57792,note_on,,,,,32,0,10,,,,,3,,,64,60
57856,note_off,,,,,64,0,8,,,,,1,,,76,100
57856,note_off,,,,,64,0,11,,,,,4,,,57,100
57856,note_off,,,,,64,0,14,,,,,6,,,57,100
57856,note_off,,,,,64,0,10,,,,,3,,,64,100
57856,note_off,,,,,64,0,12,,,,,5,,,45,100
57856,note_off,,,,,64,0,9,,,,,2,,,73,100
57888,note_on,,,,,32,0,8,,,,,1,,,76,60
57888,note_on,,,,,32,0,14,,,,,6,,,57,100
57888,note_on,,,,,32,0,9,,,,,2,,,73,60
57888,note_on,,,,,32,0,12,,,,,5,,,45,60
57888,note_on,,,,,32,0,10,,,,,3,,,64,60
57888,note_on,,,,,32,0,11,,,,,4,,,57,60
57920,note_off,,,,,128,0,13,,,,,6,,,61,100
57920,note_off,,,,,0,0,13,,,,,6,,,64,100
57952,note_off,,,,,64,0,9,,,,,2,,,73,100
57952,note_off,,,,,64,0,12,,,,,5,,,45,100
57952,note_off,,,,,64,0,11,,,,,4,,,57,100
57952,note_off,,,,,64,0,10,,,,,3,,,64,100
57952,note_off,,,,,64,0,8,,,,,1,,,76,100
57952,note_off,,,,,64,0,14,,,,,6,,,57,100
57984,note_on,,,,,32,0,14,,,,,6,,,50,100
57984,note_on,,,,,32,0,11,,,,,4,,,50,100
57984,note_on,,,,,32,0,9,,,,,2,,,74,100
57984,note_on,,,,,32,0,8,,,,,1,,,77,100
57984,note_on,,,,,32,0,12,,,,,5,,,38,100
57984,note_on,,,,,64,0,13,,,,,6,,,69,100
57984,note_on,,,,,0,0,13,,,,,6,,,65,100
57984,note_on,,,,,32,0,10,,,,,3,,,69,100
58048,note_off,,,,,64,0,14,,,,,6,,,50,100
58048,note_off,,,,,64,0,12,,,,,5,,,38,100
58048,note_off,,,,,64,0,10,,,,,3,,,69,100
58048,note_off,,,,,64,0,9,,,,,2,,,74,100
58048,note_off,,,,,64,0,11,,,,,4,,,50,100
58048,note_off,,,,,64,0,8,,,,,1,,,77,100
58080,note_on,,,,,32,0,8,,,,,1,,,77,100
58080,note_on,,,,,32,0,14,,,,,6,,,50,100
58080,note_on,,,,,32,0,10,,,,,3,,,69,100
58080,note_on,,,,,32,0,12,,,,,5,,,38,100
58080,note_on,,,,,32,0,11,,,,,4,,,50,100
58080,note_on,,,,,32,0,9,,,,,2,,,74,100
58112,note_off,,,,,128,0,13,,,,,6,,,69,100
58112,note_off,,,,,0,0,13,,,,,6,,,65,100
58144,note_off,,,,,64,0,12,,,,,5,,,38,100
58144,note_off,,,,,64,0,8,,,,,1,,,77,100
58144,note_off,,,,,64,0,11,,,,,4,,,50,100
58144,note_off,,,,,64,0,14,,,,,6,,,50,100
58144,note_off,,,,,64,0,9,,,,,2,,,74,100
58144,note_off,,,,,64,0,10,,,,,3,,,69,100
58176,note_on,,,,,32,0,8,,,,,1,,,76,100
58176,note_on,,,,,32,0,12,,,,,5,,,43,100
58176,note_on,,,,,32,0,11,,,,,4,,,55,100
58176,note_on,,,,,32,0,10,,,,,3,,,71,100
58176,note_on,,,,,32,0,14,,,,,6,,,55,100
58176,note_on,,,,,64,0,13,,,,,6,,,74,100
58176,note_on,,,,,0,0,13,,,,,6,,,64,100
58176,note_on,,,,,32,0,9,,,,,2,,,74,100
58240,note_off,,,,,64,0,8,,,,,1,,,76,100
58240,note_off,,,,,64,0,14,,,,,6,,,55,100
58240,note_off,,,,,64,0,11,,,,,4,,,55,100
58240,note_off,,,,,64,0,9,,,,,2,,,74,100
58240,note_off,,,,,64,0,10,,,,,3,,,71,100
58240,note_off,,,,,64,0,12,,,,,5,,,43,100
58272,note_on,,,,,32,0,9,,,,,2,,,74,100
58272,note_on,,,,,32,0,12,,,,,5,,,43,100
58272,note_on,,,,,32,0,8,,,,,1,,,76,100
58272,note_on,,,,,32,0,11,,,,,4,,,55,100
58272,note_on,,,,,32,0,14,,,,,6,,,55,100
58272,note_on,,,,,32,0,10,,,,,3,,,71,100
58304,note_off,,,,,128,0,13,,,,,6,,,74,100
58304,note_off,,,,,0,0,13,,,,,6,,,64,100
58336,note_off,,,,,64,0,14,,,,,6,,,55,100
58336,note_off,,,,,64,0,12,,,,,5,,,43,100
58336,note_off,,,,,64,0,8,,,,,1,,,76,100
58336,note_off,,,,,64,0,10,,,,,3,,,71,100
58336,note_off,,,,,64,0,11,,,,,4,,,55,100
58336,note_off,,,,,64,0,9,,,,,2,,,74,100
58368,note_on,,,,,32,0,8,,,,,1,,,76,100
58368,note_on,,,,,32,0,9,,,,,2,,,73,100
58368,note_on,,,,,64,0,13,,,,,6,,,73,100
58368,note_on,,,,,0,0,13,,,,,6,,,64,100
58368,note_on,,,,,32,0,10,,,,,3,,,69,100
58368,note_on,,,,,32,0,14,,,,,6,,,57,100
58368,note_on,,,,,32,0,12,,,,,5,,,45,100
58368,note_on,,,,,32,0,11,,,,,4,,,57,100
58432,note_off,,,,,64,0,11,,,,,4,,,57,100
58432,note_off,,,,,64,0,9,,,,,2,,,73,100
58432,note_off,,,,,64,0,10,,,,,3,,,69,100
58432,note_off,,,,,64,0,14,,,,,6,,,57,100
58432,note_off,,,,,64,0,12,,,,,5,,,45,100
58432,note_off,,,,,64,0,8,,,,,1,,,76,100
58464,note_on,,,,,32,0,9,,,,,2,,,73,100
58464,note_on,,,,,32,0,10,,,,,3,,,69,100
58464,note_on,,,,,32,0,14,,,,,6,,,57,100
58464,note_on,,,,,32,0,11,,,,,4,,,57,100
58464,note_on,,,,,32,0,8,,,,,1,,,76,100
58464,note_on,,,,,32,0,12,,,,,5,,,45,100
58496,note_off,,,,,0,0,13,,,,,6,,,64,100
58496,note_off,,,,,128,0,13,,,,,6,,,73,100
58528,note_off,,,,,64,0,11,,,,,4,,,57,100
58528,note_off,,,,,64,0,8,,,,,1,,,76,100
58528,note_off,,,,,64,0,10,,,,,3,,,69,100
58528,note_off,,,,,64,0,14,,,,,6,,,57,100
58528,note_off,,,,,64,0,9,,,,,2,,,73,100
58528,note_off,,,,,64,0,12,,,,,5,,,45,100
58560,note_on,,,,,32,0,12,,,,,5,,,33,100
58560,note_on,,,,,32,0,10,,,,,3,,,69,100
58560,note_on,,,,,0,0,13,,,,,6,,,64,100
58560,note_on,,,,,32,0,14,,,,,6,,,45,100
58560,note_on,,,,,64,0,13,,,,,6,,,61,100
58560,note_on,,,,,32,0,8,,,,,1,,,76,100
58560,note_on,,,,,32,0,9,,,,,2,,,73,100
58560,note_on,,,,,32,0,11,,,,,4,,,45,100
58624,note_off,,,,,64,0,11,,,,,4,,,45,100
58624,note_off,,,,,64,0,12,,,,,5,,,33,100
58624,note_off,,,,,64,0,10,,,,,3,,,69,100
58624,note_off,,,,,64,0,8,,,,,1,,,76,100
58624,note_off,,,,,64,0,9,,,,,2,,,73,100
58624,note_off,,,,,64,0,14,,,,,6,,,45,100
58656,note_on,,,,,32,0,11,,,,,4,,,45,100
58656,note_on,,,,,32,0,14,,,,,6,,,45,100
58656,note_on,,,,,32,0,12,,,,,5,,,33,100
58656,note_on,,,,,32,0,9,,,,,2,,,73,100
58656,note_on,,,,,32,0,10,,,,,3,,,69,100
58656,note_on,,,,,32,0,8,,,,,1,,,76,100
58688,note_off,,,,,0,0,13,,,,,6,,,64,100
58688,note_off,,,,,128,0,13,,,,,6,,,61,100
58720,note_off,,,,,64,0,11,,,,,4,,,45,100
58720,note_off,,,,,64,0,9,,,,,2,,,73,100
58720,note_off,,,,,64,0,14,,,,,6,,,45,100
58720,note_off,,,,,64,0,8,,,,,1,,,76,100
58720,note_off,,,,,64,0,12,,,,,5,,,33,100
58720,note_off,,,,,64,0,10,,,,,3,,,69,100
58752,note_on,,,,,0,0,13,,,,,6,,,66,100
58752,note_on,,,,,32,0,10,,,,,3,,,66,100
58752,note_on,,,,,32,0,8,,,,,1,,,74,100
58752,note_on,,,,,64,0,13,,,,,6,,,62,100
58752,note_on,,,,,32,0,12,,,,,5,,,38,100
58752,note_on,,,,,32,0,11,,,,,4,,,50,100
58752,note_on,,,,,32,0,14,,,,,6,,,50,100
58752,note_on,,,,,32,0,9,,,,,2,,,74,100
58816,note_off,,,,,64,0,11,,,,,4,,,50,100
58816,note_off,,,,,64,0,8,,,,,1,,,74,100
58816,note_off,,,,,64,0,9,,,,,2,,,74,100
58816,note_off,,,,,64,0,10,,,,,3,,,66,100
58816,note_off,,,,,64,0,12,,,,,5,,,38,100
58816,note_off,,,,,64,0,14,,,,,6,,,50,100
58848,note_on,,,,,32,0,9,,,,,2,,,62,100
58848,note_on,,,,,32,0,11,,,,,4,,,50,100
58848,note_on,,,,,32,0,14,,,,,6,,,50,100
58848,note_on,,,,,32,0,10,,,,,3,,,57,100
58848,set_tempo,,,,,55392,1,0,,705882,,,,,,,
58848,note_on,,,,,32,0,8,,,,,1,,,66,100
58848,note_on,,,,,32,0,12,,,,,5,,,38,100
58862,set_tempo,,,,,14,1,0,,714285,,,,,,,
58878,set_tempo,,,,,16,1,0,,714285,,,,,,,
58880,note_off,,,,,0,0,13,,,,,6,,,66,100
58880,note_off,,,,,128,0,13,,,,,6,,,62,100
58892,set_tempo,,,,,14,1,0,,722891,,,,,,,
58908,set_tempo,,,,,16,1,0,,722891,,,,,,,
58912,note_off,,,,,64,0,8,,,,,1,,,66,100
58912,note_off,,,,,64,0,9,,,,,2,,,62,100
58912,note_off,,,,,64,0,12,,,,,5,,,38,100
58912,note_off,,,,,64,0,10,,,,,3,,,57,100
58912,note_off,,,,,64,0,11,,,,,4,,,50,100
58912,note_off,,,,,64,0,14,,,,,6,,,50,100
58922,set_tempo,,,,,14,1,0,,731707,,,,,,,
58938,set_tempo,,,,,16,1,0,,731707,,,,,,,
58944,note_on,,,,,32,0,14,,,,,6,,,50,100
58944,note_on,,,,,32,0,12,,,,,5,,,38,101
58944,note_on,,,,,32,0,8,,,,,1,,,66,101
58944,note_on,,,,,0,0,13,,,,,6,,,66,100
58944,note_on,,,,,32,0,9,,,,,2,,,62,101
58944,note_on,,,,,32,0,10,,,,,3,,,57,101
58944,note_on,,,,,32,0,11,,,,,4,,,50,101
58944,note_on,,,,,64,0,13,,,,,6,,,57,100
58952,set_tempo,,,,,14,1,0,,740740,,,,,,,
58968,set_tempo,,,,,16,1,0,,740740,,,,,,,
58982,set_tempo,,,,,14,1,0,,750000,,,,,,,
58998,set_tempo,,,,,16,1,0,,750000,,,,,,,
59008,note_off,,,,,64,0,8,,,,,1,,,66,100
59008,note_off,,,,,64,0,14,,,,,6,,,50,100
59008,note_off,,,,,64,0,12,,,,,5,,,38,100
59008,note_off,,,,,64,0,11,,,,,4,,,50,100
59008,note_off,,,,,64,0,10,,,,,3,,,57,100
59008,note_off,,,,,64,0,9,,,,,2,,,62,100
59012,set_tempo,,,,,14,1,0,,759493,,,,,,,
59028,set_tempo,,,,,16,1,0,,759493,,,,,,,
59040,note_on,,,,,32,0,12,,,,,5,,,38,102
59040,note_on,,,,,32,0,8,,,,,1,,,66,102
59040,note_on,,,,,32,0,11,,,,,4,,,50,102
59040,note_on,,,,,32,0,10,,,,,3,,,57,102
59040,note_on,,,,,32,0,9,,,,,2,,,62,102
59040,note_on,,,,,32,0,14,,,,,6,,,50,100
59044,set_tempo,,,,,16,1,0,,769230,,,,,,,
59058,set_tempo,,,,,14,1,0,,769230,,,,,,,
59072,note_off,,,,,0,0,13,,,,,6,,,66,100
59072,note_off,,,,,128,0,13,,,,,6,,,57,100
59074,set_tempo,,,,,16,1,0,,779220,,,,,,,
59088,set_tempo,,,,,14,1,0,,779220,,,,,,,
59104,note_off,,,,,64,0,8,,,,,1,,,66,100
59104,note_off,,,,,64,0,12,,,,,5,,,38,100
59104,note_off,,,,,64,0,14,,,,,6,,,50,100
59104,note_off,,,,,64,0,11,,,,,4,,,50,100
59104,note_off,,,,,64,0,9,,,,,2,,,62,100
59104,note_off,,,,,64,0,10,,,,,3,,,57,100
59104,set_tempo,,,,,16,1,0,,789473,,,,,,,
59118,set_tempo,,,,,14,1,0,,789473,,,,,,,
59134,set_tempo,,,,,16,1,0,,800000,,,,,,,
59136,note_on,,,,,32,0,8,,,,,1,,,66,104
59136,note_on,,,,,32,0,14,,,,,6,,,50,100
59136,note_on,,,,,32,0,11,,,,,4,,,50,104
59136,note_on,,,,,32,0,10,,,,,3,,,57,104
59136,note_on,,,,,64,0,13,,,,,6,,,57,100
59136,note_on,,,,,32,0,9,,,,,2,,,62,104
59136,note_on,,,,,32,0,12,,,,,5,,,38,104
59136,note_on,,,,,0,0,13,,,,,6,,,66,100
59148,set_tempo,,,,,14,1,0,,800000,,,,,,,
59164,set_tempo,,,,,16,1,0,,810810,,,,,,,
59178,set_tempo,,,,,14,1,0,,810810,,,,,,,
59194,set_tempo,,,,,16,1,0,,821917,,,,,,,
59200,note_off,,,,,64,0,8,,,,,1,,,66,100
59200,note_off,,,,,64,0,12,,,,,5,,,38,100
59200,note_off,,,,,64,0,14,,,,,6,,,50,100
59200,note_off,,,,,64,0,10,,,,,3,,,57,100
59200,note_off,,,,,64,0,11,,,,,4,,,50,100
59200,note_off,,,,,64,0,9,,,,,2,,,62,100
59210,set_tempo,,,,,16,1,0,,821917,,,,,,,
59224,set_tempo,,,,,14,1,0,,833333,,,,,,,
59232,note_on,,,,,32,0,12,,,,,5,,,38,105
59232,note_on,,,,,32,0,9,,,,,2,,,62,105
59232,note_on,,,,,32,0,10,,,,,3,,,57,105
59232,note_on,,,,,32,0,11,,,,,4,,,50,105
59232,note_on,,,,,32,0,14,,,,,6,,,50,100
59232,note_on,,,,,32,0,8,,,,,1,,,66,105
59240,set_tempo,,,,,16,1,0,,833333,,,,,,,
59254,set_tempo,,,,,14,1,0,,845070,,,,,,,
59264,note_off,,,,,0,0,13,,,,,6,,,66,100
59264,note_off,,,,,128,0,13,,,,,6,,,57,100
59270,set_tempo,,,,,16,1,0,,845070,,,,,,,
59284,set_tempo,,,,,14,1,0,,857142,,,,,,,
59296,note_off,,,,,64,0,9,,,,,2,,,62,100
59296,note_off,,,,,64,0,10,,,,,3,,,57,100
59296,note_off,,,,,64,0,12,,,,,5,,,38,100
59296,note_off,,,,,64,0,14,,,,,6,,,50,100
59296,note_off,,,,,64,0,11,,,,,4,,,50,100
59296,note_off,,,,,64,0,8,,,,,1,,,66,100
59300,set_tempo,,,,,16,1,0,,857142,,,,,,,
59314,set_tempo,,,,,14,1,0,,869565,,,,,,,
59328,note_on,,,,,32,0,9,,,,,2,,,62,106
59328,note_on,,,,,32,0,12,,,,,5,,,31,106
59328,note_on,,,,,32,0,8,,,,,1,,,64,106
59328,note_on,,,,,32,0,14,,,,,6,,,43,100
59328,note_on,,,,,0,0,13,,,,,6,,,62,100
59328,note_on,,,,,64,0,13,,,,,6,,,64,100
59328,note_on,,,,,32,0,11,,,,,4,,,43,106
59328,note_on,,,,,32,0,10,,,,,3,,,59,106
59330,set_tempo,,,,,16,1,0,,869565,,,,,,,
59344,set_tempo,,,,,14,1,0,,882352,,,,,,,
59360,set_tempo,,,,,16,1,0,,882352,,,,,,,
59376,set_tempo,,,,,16,1,0,,895522,,,,,,,
59390,set_tempo,,,,,14,1,0,,895522,,,,,,,
59392,note_off,,,,,64,0,9,,,,,2,,,62,100
59392,note_off,,,,,64,0,10,,,,,3,,,59,100
59392,note_off,,,,,64,0,12,,,,,5,,,31,100
59392,note_off,,,,,64,0,14,,,,,6,,,43,100
59392,note_off,,,,,64,0,11,,,,,4,,,43,100
59392,note_off,,,,,64,0,8,,,,,1,,,64,100
59406,set_tempo,,,,,16,1,0,,909090,,,,,,,
59420,set_tempo,,,,,14,1,0,,909090,,,,,,,
59424,note_on,,,,,32,0,9,,,,,2,,,62,108
59424,note_on,,,,,32,0,10,,,,,3,,,59,108
59424,note_on,,,,,32,0,14,,,,,6,,,43,100
59424,note_on,,,,,32,0,11,,,,,4,,,43,108
59424,note_on,,,,,32,0,8,,,,,1,,,64,108
59424,note_on,,,,,32,0,12,,,,,5,,,31,108
59436,set_tempo,,,,,16,1,0,,923076,,,,,,,
59450,set_tempo,,,,,14,1,0,,923076,,,,,,,
59456,note_off,,,,,128,0,13,,,,,6,,,64,100
59456,note_off,,,,,0,0,13,,,,,6,,,62,100
59466,set_tempo,,,,,16,1,0,,937500,,,,,,,
59480,set_tempo,,,,,14,1,0,,937500,,,,,,,
59488,note_off,,,,,64,0,8,,,,,1,,,64,100
59488,note_off,,,,,64,0,10,,,,,3,,,59,100
59488,note_off,,,,,64,0,9,,,,,2,,,62,100
59488,note_off,,,,,64,0,14,,,,,6,,,43,100
59488,note_off,,,,,64,0,11,,,,,4,,,43,100
59488,note_off,,,,,64,0,12,,,,,5,,,31,100
59496,set_tempo,,,,,16,1,0,,952380,,,,,,,
59510,set_tempo,,,,,14,1,0,,952380,,,,,,,
59520,note_on,,,,,32,0,8,,,,,1,,,64,109
59520,note_on,,,,,32,0,10,,,,,3,,,57,109
59520,note_on,,,,,0,0,13,,,,,6,,,64,100
59520,note_on,,,,,64,0,13,,,,,6,,,61,100
59520,note_on,,,,,32,0,12,,,,,5,,,33,109
59520,note_on,,,,,32,0,14,,,,,6,,,45,100
59520,note_on,,,,,32,0,9,,,,,2,,,61,109
59520,note_on,,,,,32,0,11,,,,,4,,,45,109
59526,set_tempo,,,,,16,1,0,,967741,,,,,,,
59540,set_tempo,,,,,14,1,0,,967741,,,,,,,
59556,set_tempo,,,,,16,1,0,,983606,,,,,,,
59572,set_tempo,,,,,16,1,0,,983606,,,,,,,
59584,note_off,,,,,64,0,12,,,,,5,,,33,100
59584,note_off,,,,,64,0,11,,,,,4,,,45,100
59584,note_off,,,,,64,0,8,,,,,1,,,64,100
59584,note_off,,,,,64,0,10,,,,,3,,,57,100
59584,note_off,,,,,64,0,9,,,,,2,,,61,100
59584,note_off,,,,,64,0,14,,,,,6,,,45,100
59586,set_tempo,,,,,14,1,0,,1000000,,,,,,,
59602,set_tempo,,,,,16,1,0,,1000000,,,,,,,
59616,note_on,,,,,32,0,10,,,,,3,,,57,110
59616,note_on,,,,,32,0,9,,,,,2,,,61,110
59616,note_on,,,,,32,0,14,,,,,6,,,45,100
59616,note_on,,,,,32,0,8,,,,,1,,,64,110
59616,note_on,,,,,32,0,12,,,,,5,,,33,110
59616,note_on,,,,,32,0,11,,,,,4,,,45,110
59616,set_tempo,,,,,14,1,0,,1016949,,,,,,,
59632,set_tempo,,,,,16,1,0,,1016949,,,,,,,
59646,set_tempo,,,,,14,1,0,,1034482,,,,,,,
59648,note_off,,,,,128,0,13,,,,,6,,,61,100
59648,note_off,,,,,0,0,13,,,,,6,,,64,100
59662,set_tempo,,,,,16,1,0,,1034482,,,,,,,
59676,set_tempo,,,,,14,1,0,,1052631,,,,,,,
59680,note_off,,,,,64,0,8,,,,,1,,,64,100
59680,note_off,,,,,64,0,10,,,,,3,,,57,100
59680,note_off,,,,,64,0,9,,,,,2,,,61,100
59680,note_off,,,,,64,0,12,,,,,5,,,33,100
59680,note_off,,,,,64,0,14,,,,,6,,,45,100
59680,note_off,,,,,64,0,11,,,,,4,,,45,100
59692,set_tempo,,,,,16,1,0,,1052631,,,,,,,
59706,set_tempo,,,,,14,1,0,,1071428,,,,,,,
59712,note_on,,,,,0,0,13,,,,,6,,,64,100
59712,note_on,,,,,32,0,10,,,,,3,,,57,112
59712,note_on,,,,,32,0,12,,,,,5,,,33,112
59712,note_on,,,,,32,0,14,,,,,6,,,45,100
59712,note_on,,,,,64,0,13,,,,,6,,,61,100
59712,note_on,,,,,32,0,8,,,,,1,,,64,112
59712,note_on,,,,,32,0,11,,,,,4,,,45,112
59712,note_on,,,,,32,0,9,,,,,2,,,61,112
59722,set_tempo,,,,,16,1,0,,1071428,,,,,,,
59738,set_tempo,,,,,16,1,0,,1090909,,,,,,,
59752,set_tempo,,,,,14,1,0,,1090909,,,,,,,
59768,set_tempo,,,,,16,1,0,,1111111,,,,,,,
59776,note_off,,,,,64,0,11,,,,,4,,,45,100
59776,note_off,,,,,64,0,10,,,,,3,,,57,100
59776,note_off,,,,,64,0,8,,,,,1,,,64,100
59776,note_off,,,,,64,0,12,,,,,5,,,33,100
59776,note_off,,,,,64,0,9,,,,,2,,,61,100
59776,note_off,,,,,64,0,14,,,,,6,,,45,100
59782,set_tempo,,,,,14,1,0,,1111111,,,,,,,
59798,set_tempo,,,,,16,1,0,,1132075,,,,,,,
59808,note_on,,,,,32,0,14,,,,,6,,,45,100
59808,note_on,,,,,32,0,11,,,,,4,,,45,113
59808,note_on,,,,,32,0,12,,,,,5,,,33,113
59808,note_on,,,,,32,0,10,,,,,3,,,57,113
59808,note_on,,,,,32,0,8,,,,,1,,,64,113
59808,note_on,,,,,32,0,9,,,,,2,,,61,113
59812,set_tempo,,,,,14,1,0,,1132075,,,,,,,
59828,set_tempo,,,,,16,1,0,,1153846,,,,,,,
59840,note_off,,,,,0,0,13,,,,,6,,,64,100
59840,note_off,,,,,128,0,13,,,,,6,,,61,100
59842,set_tempo,,,,,14,1,0,,1153846,,,,,,,
59858,set_tempo,,,,,16,1,0,,1176470,,,,,,,
59872,note_off,,,,,64,0,10,,,,,3,,,57,100
59872,note_off,,,,,64,0,8,,,,,1,,,64,100
59872,note_off,,,,,64,0,14,,,,,6,,,45,100
59872,set_tempo,,,,,14,1,0,,1176470,,,,,,,
59872,note_off,,,,,64,0,11,,,,,4,,,45,100
59872,note_off,,,,,64,0,12,,,,,5,,,33,100
59872,note_off,,,,,64,0,9,,,,,2,,,61,100
59888,set_tempo,,,,,16,1,0,,1200000,,,,,,,
59904,end_of_track,,,,,0,1,0,,,,,,,,,
59904,set_tempo,,,,,16,1,0,,1200000,,,,,,,
59904,note_on,,,,,32,0,9,,,,,2,,,62,114
59904,note_on,,,,,32,0,12,,,,,5,,,38,114
59904,note_on,,,,,32,0,11,,,,,4,,,38,114
59904,note_on,,,,,32,0,14,,,,,6,,,38,100
59904,note_on,,,,,32,0,8,,,,,1,,,62,114
59904,note_on,,,,,32,0,10,,,,,3,,,54,114
59918,note_on,,,,,78,0,13,,,,,6,,,57,100
59934,note_on,,,,,16,0,13,,,,,6,,,62,100
59966,note_on,,,,,32,0,13,,,,,6,,,66,100
60302,note_off,,,,,336,0,13,,,,,6,,,57,100
60318,note_off,,,,,16,0,13,,,,,6,,,62,100
60350,end_of_track,,,,,0,1,13,,,,,,,,,
60350,note_off,,,,,32,0,13,,,,,6,,,66,100
60476,end_of_track,,,,,0,1,14,,,,,,,,,
60476,end_of_track,,,,,0,1,9,,,,,,,,,
60476,note_off,,,,,572,0,14,,,,,6,,,38,100
60476,end_of_track,,,,,0,1,10,,,,,,,,,
60476,note_off,,,,,572,0,10,,,,,3,,,54,100
60476,note_off,,,,,572,0,12,,,,,5,,,38,100
60476,end_of_track,,,,,0,1,12,,,,,,,,,
60476,note_off,,,,,572,0,11,,,,,4,,,38,100
60476,end_of_track,,,,,0,1,11,,,,,,,,,
60476,end_of_track,,,,,0,1,8,,,,,,,,,
60476,note_off,,,,,572,0,8,,,,,1,,,62,100
60476,note_off,,,,,572,0,9,,,,,2,,,62,100
61440,end_of_track,,,,,0,1,7,,,,,,,,,
61440,program_change,,,,,6464,0,7,,,,,0,40,,,
