tick,type,numerator,denominator,clocks_per_click,notated_32nd_notes_per_beat,time,meta,track,data,tempo,control,value,channel,program,key,note,velocity
0,time_signature,3,8,96,8,0,1,0,,,,,,,,,
0,track_name,,,,,0,1,3,,,,,,,,,
0,end_of_track,,,,,0,1,2,,,,,,,,,
0,track_name,,,,,0,1,2,,,,,,,,,
0,end_of_track,,,,,0,1,1,,,,,,,,,
0,track_name,,,,,0,1,1,,,,,,,,,
0,note_on,,,,,0,0,15,,,,,7,,,67,100
0,note_on,,,,,0,0,15,,,,,7,,,74,100
0,note_on,,,,,0,0,15,,,,,7,,,71,100
0,key_signature,,,,,0,1,15,,,,,,,G,,
0,control_change,,,,,0,0,15,,,91,105,7,,,,
0,control_change,,,,,0,0,15,,,7,45,7,,,,
0,program_change,,,,,0,0,15,,,,,7,19,,,
0,control_change,,,,,0,0,15,,,0,0,7,,,,
0,track_name,,,,,0,1,15,,,,,,,,,
0,control_change,,,,,0,0,16,,,91,105,7,,,,
0,note_on,,,,,0,0,14,,,,,6,,,55,100
0,key_signature,,,,,0,1,14,,,,,,,G,,
0,control_change,,,,,0,0,13,,,91,107,6,,,,
0,key_signature,,,,,0,1,13,,,,,,,G,,
0,note_on,,,,,0,0,13,,,,,6,,,71,100
0,note_on,,,,,0,0,13,,,,,6,,,74,100
0,note_on,,,,,0,0,13,,,,,6,,,67,100
0,control_change,,,,,0,0,16,,,0,0,7,,,,
0,control_change,,,,,0,0,3,,,0,0,0,,,,
0,note_on,,,,,0,0,16,,,,,7,,,55,100
0,track_name,,,,,0,1,14,,,,,,,,,
0,control_change,,,,,0,0,14,,,0,0,6,,,,
0,program_change,,,,,0,0,14,,,,,6,6,,,
0,control_change,,,,,0,0,14,,,7,45,6,,,,
0,control_change,,,,,0,0,14,,,10,77,6,,,,
0,control_change,,,,,0,0,14,,,91,107,6,,,,
0,key_signature,,,,,0,1,16,,,,,,,G,,
0,control_change,,,,,0,0,13,,,10,77,6,,,,
0,control_change,,,,,0,0,3,,,7,100,0,,,,
0,program_change,,,,,0,0,3,,,,,0,40,,,
0,program_change,,,,,0,0,16,,,,,7,19,,,
0,control_change,,,,,0,0,16,,,7,45,7,,,,
0,key_signature,,,,,0,1,7,,,,,,,G,,
0,control_change,,,,,0,0,7,,,91,107,0,,,,
0,control_change,,,,,0,0,7,,,7,100,0,,,,
0,program_change,,,,,0,0,7,,,,,0,40,,,
0,control_change,,,,,0,0,7,,,0,0,0,,,,
0,track_name,,,,,0,1,7,,,,,,,,,
0,end_of_track,,,,,0,1,6,,,,,,,,,
0,key_signature,,,,,0,1,6,,,,,,,G,,
0,control_change,,,,,0,0,6,,,91,107,0,,,,
0,control_change,,,,,0,0,6,,,7,100,0,,,,
0,program_change,,,,,0,0,6,,,,,0,40,,,
0,control_change,,,,,0,0,6,,,0,0,0,,,,
0,track_name,,,,,0,1,6,,,,,,,,,
0,end_of_track,,,,,0,1,5,,,,,,,,,
0,key_signature,,,,,0,1,5,,,,,,,G,,
0,key_signature,,,,,0,1,3,,,,,,,G,,
0,end_of_track,,,,,0,1,3,,,,,,,,,
0,track_name,,,,,0,1,4,,,,,,,,,
0,control_change,,,,,0,0,4,,,0,0,0,,,,
0,program_change,,,,,0,0,4,,,,,0,40,,,
0,control_change,,,,,0,0,4,,,7,100,0,,,,
0,control_change,,,,,0,0,3,,,91,107,0,,,,
0,control_change,,,,,0,0,4,,,91,107,0,,,,
0,end_of_track,,,,,0,1,4,,,,,,,,,
0,track_name,,,,,0,1,5,,,,,,,,,
0,control_change,,,,,0,0,5,,,0,0,0,,,,
0,program_change,,,,,0,0,5,,,,,0,40,,,
0,control_change,,,,,0,0,5,,,7,100,0,,,,
0,control_change,,,,,0,0,5,,,91,107,0,,,,
0,key_signature,,,,,0,1,4,,,,,,,G,,
0,control_change,,,,,0,0,13,,,7,45,6,,,,
0,track_name,,,,,0,1,16,,,,,,,,,
0,control_change,,,,,0,0,13,,,0,0,6,,,,
0,control_change,,,,,0,0,10,,,7,90,3,,,,
0,control_change,,,,,0,0,10,,,91,108,3,,,,
0,key_signature,,,,,0,1,10,,,,,,,G,,
0,note_on,,,,,0,0,10,,,,,3,,,71,100
0,key_signature,,,,,0,1,12,,,,,,,G,,
0,control_change,,,,,0,0,11,,,10,79,4,,,,
0,control_change,,,,,0,0,11,,,7,78,4,,,,
0,program_change,,,,,0,0,11,,,,,4,48,,,
0,control_change,,,,,0,0,11,,,0,0,4,,,,
0,control_change,,,,,0,0,12,,,91,108,5,,,,
0,track_name,,,,,0,1,11,,,,,,,,,
0,track_name,,,,,0,1,12,,,,,,,,,
0,control_change,,,,,0,0,12,,,0,0,5,,,,
0,program_change,,,,,0,0,12,,,,,5,48,,,
0,control_change,,,,,0,0,12,,,7,68,5,,,,
0,track_name,,,,,0,1,8,,,,,,,,,
0,control_change,,,,,0,0,8,,,0,0,1,,,,
0,program_change,,,,,0,0,8,,,,,1,48,,,
0,control_change,,,,,0,0,8,,,7,100,1,,,,
0,program_change,,,,,0,0,10,,,,,3,48,,,
0,program_change,,,,,0,0,13,,,,,6,6,,,
0,control_change,,,,,0,0,10,,,0,0,3,,,,
0,track_name,,,,,0,1,9,,,,,,,,,
0,track_name,,,,,0,1,13,,,,,,,,,
0,note_on,,,,,0,0,12,,,,,5,,,43,100
0,key_signature,,,,,0,1,9,,,,,,,G,,
0,control_change,,,,,0,0,9,,,91,108,2,,,,
0,control_change,,,,,0,0,9,,,10,36,2,,,,
0,note_on,,,,,0,0,8,,,,,1,,,79,100
0,key_signature,,,,,0,1,8,,,,,,,G,,
0,sequencer_specific,,,,,0,1,0,"(0, 0, 65)",,,,,,,,
0,track_name,,,,,0,1,10,,,,,,,,,
0,sequencer_specific,,,,,0,1,0,"(0, 0, 119, 14, 1)",,,,,,,,
0,control_change,,,,,0,0,9,,,7,92,2,,,,
0,control_change,,,,,0,0,8,,,91,107,1,,,,
0,control_change,,,,,0,0,8,,,10,49,1,,,,
0,note_on,,,,,0,0,11,,,,,4,,,55,100
0,key_signature,,,,,0,1,11,,,,,,,G,,
0,program_change,,,,,0,0,9,,,,,2,48,,,
0,control_change,,,,,0,0,11,,,91,107,4,,,,
0,control_change,,,,,0,0,9,,,0,0,2,,,,
0,set_tempo,,,,,0,1,0,,526315,,,,,,,
0,control_change,,,,,0,0,12,,,10,90,5,,,,
100,note_off,,,,,100,0,8,,,,,1,,,79,100
100,note_off,,,,,100,0,14,,,,,6,,,55,100
100,note_off,,,,,0,0,15,,,,,7,,,74,100
100,note_off,,,,,100,0,15,,,,,7,,,71,100
100,note_off,,,,,100,0,10,,,,,3,,,71,100
100,note_off,,,,,100,0,12,,,,,5,,,43,100
100,note_off,,,,,100,0,11,,,,,4,,,55,100
100,note_off,,,,,0,0,13,,,,,6,,,67,100
100,note_off,,,,,0,0,13,,,,,6,,,74,100
100,note_off,,,,,100,0,13,,,,,6,,,71,100
100,note_off,,,,,100,0,16,,,,,7,,,55,100
100,note_off,,,,,0,0,15,,,,,7,,,67,100
192,note_on,,,,,92,0,11,,,,,4,,,62,100
192,note_on,,,,,92,0,12,,,,,5,,,50,100
192,note_on,,,,,0,0,15,,,,,7,,,71,100
192,note_on,,,,,92,0,13,,,,,6,,,67,100
192,note_on,,,,,0,0,13,,,,,6,,,71,100
192,note_on,,,,,92,0,14,,,,,6,,,62,100
192,note_on,,,,,92,0,10,,,,,3,,,67,100
192,note_on,,,,,92,0,8,,,,,1,,,71,100
192,note_on,,,,,92,0,16,,,,,7,,,62,100
192,note_on,,,,,92,0,15,,,,,7,,,67,100
292,note_off,,,,,100,0,16,,,,,7,,,62,100
292,note_off,,,,,100,0,13,,,,,6,,,67,100
292,note_off,,,,,100,0,11,,,,,4,,,62,100
292,note_off,,,,,100,0,10,,,,,3,,,67,100
292,note_off,,,,,100,0,14,,,,,6,,,62,100
292,note_off,,,,,0,0,13,,,,,6,,,71,100
292,note_off,,,,,0,0,15,,,,,7,,,71,100
292,note_off,,,,,100,0,8,,,,,1,,,71,100
292,note_off,,,,,100,0,12,,,,,5,,,50,100
292,note_off,,,,,100,0,15,,,,,7,,,67,100
384,note_on,,,,,92,0,16,,,,,7,,,50,100
384,note_on,,,,,0,0,15,,,,,7,,,69,100
384,note_on,,,,,92,0,15,,,,,7,,,66,100
384,note_on,,,,,92,0,12,,,,,5,,,38,100
384,note_on,,,,,92,0,11,,,,,4,,,50,100
384,note_on,,,,,0,0,13,,,,,6,,,69,100
384,note_on,,,,,92,0,13,,,,,6,,,66,100
384,note_on,,,,,92,0,8,,,,,1,,,69,100
384,note_on,,,,,92,0,14,,,,,6,,,50,100
384,note_on,,,,,92,0,10,,,,,3,,,66,100
484,note_off,,,,,0,0,13,,,,,6,,,69,100
484,note_off,,,,,100,0,16,,,,,7,,,50,100
484,note_off,,,,,100,0,11,,,,,4,,,50,100
484,note_off,,,,,100,0,8,,,,,1,,,69,100
484,note_off,,,,,100,0,14,,,,,6,,,50,100
484,note_off,,,,,100,0,15,,,,,7,,,66,100
484,note_off,,,,,0,0,15,,,,,7,,,69,100
484,note_off,,,,,100,0,12,,,,,5,,,38,100
484,note_off,,,,,100,0,13,,,,,6,,,66,100
484,note_off,,,,,100,0,10,,,,,3,,,66,100
576,note_on,,,,,0,0,13,,,,,6,,,62,100
576,note_on,,,,,0,0,15,,,,,7,,,62,100
576,note_on,,,,,92,0,15,,,,,7,,,59,100
576,note_on,,,,,92,0,14,,,,,6,,,43,100
576,note_on,,,,,0,0,13,,,,,6,,,67,100
576,note_on,,,,,92,0,13,,,,,6,,,59,100
576,note_on,,,,,576,0,9,,,,,2,,,79,100
576,note_on,,,,,92,0,10,,,,,3,,,59,100
576,note_on,,,,,92,0,8,,,,,1,,,67,100
576,note_on,,,,,92,0,12,,,,,5,,,31,100
576,note_on,,,,,0,0,15,,,,,7,,,67,100
576,note_on,,,,,92,0,16,,,,,7,,,43,100
576,note_on,,,,,92,0,11,,,,,4,,,43,100
576,set_tempo,,,,,576,1,0,,526315,,,,,,,
640,note_off,,,,,64,0,8,,,,,1,,,67,100
672,note_on,,,,,32,0,8,,,,,1,,,71,100
676,note_off,,,,,100,0,13,,,,,6,,,59,100
676,note_off,,,,,100,0,15,,,,,7,,,59,100
676,note_off,,,,,0,0,13,,,,,6,,,62,100
676,note_off,,,,,100,0,10,,,,,3,,,59,100
676,note_off,,,,,100,0,12,,,,,5,,,31,100
676,note_off,,,,,0,0,15,,,,,7,,,67,100
676,note_off,,,,,100,0,16,,,,,7,,,43,100
676,note_off,,,,,100,0,9,,,,,2,,,79,100
676,note_off,,,,,0,0,15,,,,,7,,,62,100
676,note_off,,,,,100,0,14,,,,,6,,,43,100
676,note_off,,,,,0,0,13,,,,,6,,,67,100
676,note_off,,,,,100,0,11,,,,,4,,,43,100
736,note_off,,,,,64,0,8,,,,,1,,,71,100
768,note_on,,,,,92,0,16,,,,,7,,,50,100
768,note_on,,,,,92,0,9,,,,,2,,,71,100
768,note_on,,,,,32,0,8,,,,,1,,,72,100
768,note_on,,,,,0,0,13,,,,,6,,,71,100
768,note_on,,,,,92,0,12,,,,,5,,,38,100
768,note_on,,,,,92,0,11,,,,,4,,,50,100
768,note_on,,,,,0,0,15,,,,,7,,,71,100
768,note_on,,,,,92,0,10,,,,,3,,,67,100
768,note_on,,,,,92,0,13,,,,,6,,,67,100
768,note_on,,,,,92,0,14,,,,,6,,,50,100
768,note_on,,,,,92,0,15,,,,,7,,,67,100
832,note_off,,,,,64,0,8,,,,,1,,,72,100
864,note_on,,,,,32,0,8,,,,,1,,,74,100
868,note_off,,,,,0,0,13,,,,,6,,,71,100
868,note_off,,,,,100,0,9,,,,,2,,,71,100
868,note_off,,,,,0,0,15,,,,,7,,,71,100
868,note_off,,,,,100,0,10,,,,,3,,,67,100
868,note_off,,,,,100,0,14,,,,,6,,,50,100
868,note_off,,,,,100,0,15,,,,,7,,,67,100
868,note_off,,,,,100,0,16,,,,,7,,,50,100
868,note_off,,,,,100,0,11,,,,,4,,,50,100
868,note_off,,,,,100,0,13,,,,,6,,,67,100
868,note_off,,,,,100,0,12,,,,,5,,,38,100
928,note_off,,,,,64,0,8,,,,,1,,,74,100
960,note_on,,,,,92,0,14,,,,,6,,,38,100
960,note_on,,,,,92,0,9,,,,,2,,,69,100
960,note_on,,,,,32,0,8,,,,,1,,,76,100
960,note_on,,,,,92,0,15,,,,,7,,,66,100
960,note_on,,,,,92,0,10,,,,,3,,,62,100
960,note_on,,,,,92,0,16,,,,,7,,,38,100
960,note_on,,,,,0,0,13,,,,,6,,,69,100
960,note_on,,,,,92,0,13,,,,,6,,,66,100
960,note_on,,,,,92,0,11,,,,,4,,,38,100
960,note_on,,,,,92,0,12,,,,,5,,,38,100
960,note_on,,,,,0,0,15,,,,,7,,,69,100
1024,note_off,,,,,64,0,8,,,,,1,,,76,100
1056,note_on,,,,,32,0,8,,,,,1,,,78,100
1060,note_off,,,,,100,0,16,,,,,7,,,38,100
1060,note_off,,,,,100,0,11,,,,,4,,,38,100
1060,note_off,,,,,100,0,12,,,,,5,,,38,100
1060,note_off,,,,,100,0,14,,,,,6,,,38,100
1060,note_off,,,,,100,0,15,,,,,7,,,66,100
1060,note_off,,,,,0,0,15,,,,,7,,,69,100
1060,note_off,,,,,100,0,13,,,,,6,,,66,100
1060,note_off,,,,,0,0,13,,,,,6,,,69,100
1060,note_off,,,,,100,0,10,,,,,3,,,62,100
1060,note_off,,,,,100,0,9,,,,,2,,,69,100
1120,note_off,,,,,64,0,8,,,,,1,,,78,100
1152,note_on,,,,,92,0,12,,,,,5,,,43,100
1152,note_on,,,,,92,0,11,,,,,4,,,55,100
1152,note_on,,,,,92,0,13,,,,,6,,,71,100
1152,note_on,,,,,0,0,13,,,,,6,,,74,100
1152,note_on,,,,,0,0,13,,,,,6,,,67,100
1152,note_on,,,,,92,0,16,,,,,7,,,55,100
1152,note_on,,,,,92,0,10,,,,,3,,,59,100
1152,note_on,,,,,32,0,8,,,,,1,,,79,100
1152,note_on,,,,,92,0,9,,,,,2,,,67,100
1152,note_on,,,,,92,0,15,,,,,7,,,71,100
1152,note_on,,,,,92,0,14,,,,,6,,,55,100
1152,note_on,,,,,0,0,15,,,,,7,,,74,100
1152,note_on,,,,,0,0,15,,,,,7,,,67,100
1216,note_off,,,,,64,0,9,,,,,2,,,67,100
1248,note_on,,,,,32,0,9,,,,,2,,,71,100
1252,note_off,,,,,100,0,14,,,,,6,,,55,100
1252,note_off,,,,,100,0,16,,,,,7,,,55,100
1252,note_off,,,,,0,0,15,,,,,7,,,67,100
1252,note_off,,,,,100,0,10,,,,,3,,,59,100
1252,note_off,,,,,100,0,11,,,,,4,,,55,100
1252,note_off,,,,,0,0,13,,,,,6,,,67,100
1252,note_off,,,,,100,0,13,,,,,6,,,71,100
1252,note_off,,,,,100,0,15,,,,,7,,,71,100
1252,note_off,,,,,0,0,15,,,,,7,,,74,100
1252,note_off,,,,,100,0,8,,,,,1,,,79,100
1252,note_off,,,,,100,0,12,,,,,5,,,43,100
1252,note_off,,,,,0,0,13,,,,,6,,,74,100
1312,note_off,,,,,64,0,9,,,,,2,,,71,100
1344,note_on,,,,,0,0,13,,,,,6,,,71,100
1344,note_on,,,,,0,0,15,,,,,7,,,71,100
1344,note_on,,,,,92,0,15,,,,,7,,,67,100
1344,note_on,,,,,92,0,13,,,,,6,,,67,100
1344,note_on,,,,,92,0,11,,,,,4,,,62,99
1344,note_on,,,,,92,0,14,,,,,6,,,62,100
1344,note_on,,,,,92,0,16,,,,,7,,,62,100
1344,note_on,,,,,92,0,10,,,,,3,,,67,99
1344,note_on,,,,,92,0,12,,,,,5,,,50,99
1344,note_on,,,,,32,0,9,,,,,2,,,72,99
1344,note_on,,,,,92,0,8,,,,,1,,,71,99
1408,note_off,,,,,64,0,9,,,,,2,,,72,100
1440,note_on,,,,,32,0,9,,,,,2,,,74,98
1444,note_off,,,,,100,0,14,,,,,6,,,62,100
1444,note_off,,,,,100,0,13,,,,,6,,,67,100
1444,note_off,,,,,100,0,16,,,,,7,,,62,100
1444,note_off,,,,,0,0,13,,,,,6,,,71,100
1444,note_off,,,,,100,0,11,,,,,4,,,62,100
1444,note_off,,,,,100,0,15,,,,,7,,,67,100
1444,note_off,,,,,0,0,15,,,,,7,,,71,100
1444,note_off,,,,,100,0,8,,,,,1,,,71,100
1444,note_off,,,,,100,0,10,,,,,3,,,67,100
1444,note_off,,,,,100,0,12,,,,,5,,,50,100
1504,note_off,,,,,64,0,9,,,,,2,,,74,100
1536,note_on,,,,,92,0,14,,,,,6,,,50,100
1536,note_on,,,,,92,0,8,,,,,1,,,69,97
1536,note_on,,,,,32,0,9,,,,,2,,,76,97
1536,note_on,,,,,92,0,10,,,,,3,,,62,97
1536,note_on,,,,,0,0,13,,,,,6,,,69,100
1536,note_on,,,,,92,0,15,,,,,7,,,66,100
1536,note_on,,,,,92,0,16,,,,,7,,,50,100
1536,note_on,,,,,92,0,13,,,,,6,,,66,100
1536,note_on,,,,,0,0,15,,,,,7,,,69,100
1536,note_on,,,,,92,0,12,,,,,5,,,38,97
1536,note_on,,,,,92,0,11,,,,,4,,,50,97
1600,note_off,,,,,64,0,9,,,,,2,,,76,100
1632,note_on,,,,,32,0,9,,,,,2,,,78,96
1636,note_off,,,,,100,0,11,,,,,4,,,50,100
1636,note_off,,,,,100,0,16,,,,,7,,,50,100
1636,note_off,,,,,100,0,15,,,,,7,,,66,100
1636,note_off,,,,,100,0,10,,,,,3,,,62,100
1636,note_off,,,,,0,0,15,,,,,7,,,69,100
1636,note_off,,,,,100,0,14,,,,,6,,,50,100
1636,note_off,,,,,100,0,8,,,,,1,,,69,100
1636,note_off,,,,,0,0,13,,,,,6,,,69,100
1636,note_off,,,,,100,0,13,,,,,6,,,66,100
1636,note_off,,,,,100,0,12,,,,,5,,,38,100
1696,note_off,,,,,64,0,9,,,,,2,,,78,100
1728,note_on,,,,,92,0,8,,,,,1,,,67,95
1728,note_on,,,,,92,0,10,,,,,3,,,59,95
1728,note_on,,,,,92,0,15,,,,,7,,,59,100
1728,note_on,,,,,32,0,9,,,,,2,,,79,95
1728,note_on,,,,,0,0,15,,,,,7,,,62,100
1728,note_on,,,,,0,0,15,,,,,7,,,67,100
1728,note_on,,,,,92,0,12,,,,,5,,,31,95
1728,note_on,,,,,92,0,14,,,,,6,,,43,100
1728,note_on,,,,,92,0,13,,,,,6,,,59,100
1728,note_on,,,,,0,0,13,,,,,6,,,62,100
1728,note_on,,,,,0,0,13,,,,,6,,,67,100
1728,note_on,,,,,92,0,11,,,,,4,,,43,95
1728,note_on,,,,,92,0,16,,,,,7,,,43,100
1792,note_off,,,,,64,0,8,,,,,1,,,67,100
1824,note_on,,,,,32,0,8,,,,,1,,,71,94
1828,note_off,,,,,100,0,12,,,,,5,,,31,100
1828,note_off,,,,,100,0,11,,,,,4,,,43,100
1828,note_off,,,,,100,0,15,,,,,7,,,59,100
1828,note_off,,,,,0,0,15,,,,,7,,,62,100
1828,note_off,,,,,0,0,15,,,,,7,,,67,100
1828,note_off,,,,,100,0,10,,,,,3,,,59,100
1828,note_off,,,,,100,0,14,,,,,6,,,43,100
1828,note_off,,,,,0,0,13,,,,,6,,,67,100
1828,note_off,,,,,0,0,13,,,,,6,,,62,100
1828,note_off,,,,,100,0,13,,,,,6,,,59,100
1828,note_off,,,,,100,0,9,,,,,2,,,79,100
1828,note_off,,,,,100,0,16,,,,,7,,,43,100
1888,note_off,,,,,64,0,8,,,,,1,,,71,100
1920,note_on,,,,,0,0,13,,,,,6,,,71,100
1920,note_on,,,,,0,0,15,,,,,7,,,71,100
1920,note_on,,,,,92,0,15,,,,,7,,,67,100
1920,note_on,,,,,92,0,12,,,,,5,,,38,93
1920,note_on,,,,,92,0,13,,,,,6,,,67,100
1920,note_on,,,,,92,0,9,,,,,2,,,71,93
1920,note_on,,,,,92,0,11,,,,,4,,,50,93
1920,note_on,,,,,92,0,10,,,,,3,,,67,93
1920,note_on,,,,,32,0,8,,,,,1,,,72,93
1920,note_on,,,,,92,0,14,,,,,6,,,50,100
1920,note_on,,,,,92,0,16,,,,,7,,,50,100
1984,note_off,,,,,64,0,8,,,,,1,,,72,100
2016,note_on,,,,,32,0,8,,,,,1,,,74,92
2020,note_off,,,,,100,0,11,,,,,4,,,50,100
2020,note_off,,,,,100,0,12,,,,,5,,,38,100
2020,note_off,,,,,100,0,9,,,,,2,,,71,100
2020,note_off,,,,,0,0,13,,,,,6,,,71,100
2020,note_off,,,,,100,0,13,,,,,6,,,67,100
2020,note_off,,,,,100,0,15,,,,,7,,,67,100
2020,note_off,,,,,100,0,16,,,,,7,,,50,100
2020,note_off,,,,,100,0,14,,,,,6,,,50,100
2020,note_off,,,,,0,0,15,,,,,7,,,71,100
2020,note_off,,,,,100,0,10,,,,,3,,,67,100
2080,note_off,,,,,64,0,8,,,,,1,,,74,100
2112,note_on,,,,,92,0,13,,,,,6,,,66,100
2112,note_on,,,,,0,0,13,,,,,6,,,69,100
2112,note_on,,,,,92,0,11,,,,,4,,,38,91
2112,note_on,,,,,92,0,10,,,,,3,,,62,91
2112,note_on,,,,,0,0,15,,,,,7,,,69,100
2112,note_on,,,,,92,0,9,,,,,2,,,69,91
2112,note_on,,,,,92,0,14,,,,,6,,,38,100
2112,note_on,,,,,92,0,16,,,,,7,,,38,100
2112,note_on,,,,,32,0,8,,,,,1,,,76,91
2112,note_on,,,,,92,0,12,,,,,5,,,38,91
2112,note_on,,,,,92,0,15,,,,,7,,,66,100
2176,note_off,,,,,64,0,8,,,,,1,,,76,100
2208,note_on,,,,,32,0,8,,,,,1,,,78,91
2212,note_off,,,,,100,0,15,,,,,7,,,66,100
2212,note_off,,,,,0,0,15,,,,,7,,,69,100
2212,note_off,,,,,100,0,10,,,,,3,,,62,100
2212,note_off,,,,,100,0,14,,,,,6,,,38,100
2212,note_off,,,,,100,0,16,,,,,7,,,38,100
2212,note_off,,,,,100,0,9,,,,,2,,,69,100
2212,note_off,,,,,100,0,12,,,,,5,,,38,100
2212,note_off,,,,,100,0,11,,,,,4,,,38,100
2212,note_off,,,,,0,0,13,,,,,6,,,69,100
2212,note_off,,,,,100,0,13,,,,,6,,,66,100
2272,note_off,,,,,64,0,8,,,,,1,,,78,100
2304,note_on,,,,,92,0,13,,,,,6,,,59,100
2304,note_on,,,,,92,0,11,,,,,4,,,43,95
2304,note_on,,,,,32,0,8,,,,,1,,,79,95
2304,note_on,,,,,0,0,15,,,,,7,,,67,100
2304,note_on,,,,,92,0,16,,,,,7,,,43,100
2304,note_on,,,,,92,0,12,,,,,5,,,31,95
2304,note_on,,,,,92,0,14,,,,,6,,,43,100
2304,note_on,,,,,0,0,15,,,,,7,,,62,100
2304,note_on,,,,,92,0,15,,,,,7,,,59,100
2304,note_on,,,,,92,0,10,,,,,3,,,59,95
2304,note_on,,,,,0,0,13,,,,,6,,,67,100
2304,note_on,,,,,0,0,13,,,,,6,,,62,100
2304,note_on,,,,,92,0,9,,,,,2,,,67,95
2368,note_off,,,,,64,0,8,,,,,1,,,79,100
2400,note_on,,,,,32,0,8,,,,,1,,,74,90
2404,note_off,,,,,100,0,10,,,,,3,,,59,100
2404,note_off,,,,,100,0,12,,,,,5,,,31,100
2404,note_off,,,,,100,0,14,,,,,6,,,43,100
2404,note_off,,,,,100,0,16,,,,,7,,,43,100
2404,note_off,,,,,100,0,11,,,,,4,,,43,100
2464,note_off,,,,,64,0,8,,,,,1,,,74,100
2496,note_off,,,,,192,0,9,,,,,2,,,67,100
2496,note_on,,,,,92,0,10,,,,,3,,,62,90
2496,note_on,,,,,92,0,14,,,,,6,,,55,100
2496,note_on,,,,,92,0,16,,,,,7,,,55,100
2496,note_on,,,,,92,0,11,,,,,4,,,55,90
2496,note_on,,,,,32,0,8,,,,,1,,,71,90
2496,note_on,,,,,92,0,12,,,,,5,,,43,90
2592,note_on,,,,,96,0,9,,,,,2,,,74,90
2596,note_off,,,,,100,0,10,,,,,3,,,62,100
2596,note_off,,,,,100,0,14,,,,,6,,,55,100
2596,note_off,,,,,100,0,16,,,,,7,,,55,100
2596,note_off,,,,,100,0,11,,,,,4,,,55,100
2596,note_off,,,,,100,0,12,,,,,5,,,43,100
2656,note_off,,,,,64,0,9,,,,,2,,,74,100
2688,note_off,,,,,384,0,15,,,,,7,,,59,100
2688,note_on,,,,,92,0,11,,,,,4,,,43,90
2688,note_off,,,,,384,0,13,,,,,6,,,59,100
2688,note_on,,,,,32,0,9,,,,,2,,,79,90
2688,note_off,,,,,0,0,15,,,,,7,,,67,100
2688,note_off,,,,,192,0,8,,,,,1,,,71,100
2688,note_on,,,,,92,0,16,,,,,7,,,43,100
2688,note_off,,,,,0,0,13,,,,,6,,,62,100
2688,note_off,,,,,0,0,13,,,,,6,,,67,100
2688,note_on,,,,,92,0,12,,,,,5,,,31,90
2688,note_off,,,,,0,0,15,,,,,7,,,62,100
2688,note_on,,,,,92,0,10,,,,,3,,,59,90
2688,note_on,,,,,92,0,14,,,,,6,,,43,100
2752,note_off,,,,,64,0,9,,,,,2,,,79,100
2784,note_on,,,,,32,0,9,,,,,2,,,83,90
2784,note_on,,,,,96,0,8,,,,,1,,,79,90
2788,note_off,,,,,100,0,14,,,,,6,,,43,100
2788,note_off,,,,,100,0,12,,,,,5,,,31,100
2788,note_off,,,,,100,0,16,,,,,7,,,43,100
2788,note_off,,,,,100,0,11,,,,,4,,,43,100
2788,note_off,,,,,100,0,10,,,,,3,,,59,100
2848,note_off,,,,,64,0,9,,,,,2,,,83,100
2848,note_off,,,,,64,0,8,,,,,1,,,79,100
2880,note_on,,,,,92,0,14,,,,,6,,,50,100
2880,note_on,,,,,92,0,10,,,,,3,,,62,95
2880,note_on,,,,,0,0,13,,,,,6,,,69,100
2880,note_on,,,,,192,0,15,,,,,7,,,74,100
2880,note_on,,,,,192,0,13,,,,,6,,,74,100
2880,note_on,,,,,92,0,11,,,,,4,,,50,95
2880,note_on,,,,,0,0,15,,,,,7,,,69,100
2880,note_on,,,,,0,0,15,,,,,7,,,66,100
2880,note_on,,,,,92,0,16,,,,,7,,,50,100
2880,note_on,,,,,32,0,9,,,,,2,,,78,95
2880,note_on,,,,,92,0,12,,,,,5,,,38,95
2880,note_on,,,,,0,0,13,,,,,6,,,66,100
2880,note_on,,,,,32,0,8,,,,,1,,,81,95
2944,note_off,,,,,64,0,8,,,,,1,,,81,100
2976,note_on,,,,,32,0,8,,,,,1,,,78,90
2980,note_off,,,,,100,0,14,,,,,6,,,50,100
2980,note_off,,,,,100,0,11,,,,,4,,,50,100
2980,note_off,,,,,100,0,16,,,,,7,,,50,100
2980,note_off,,,,,100,0,12,,,,,5,,,38,100
2980,note_off,,,,,100,0,10,,,,,3,,,62,100
3040,note_off,,,,,64,0,8,,,,,1,,,78,100
3068,note_off,,,,,188,0,15,,,,,7,,,74,100
3068,note_off,,,,,188,0,13,,,,,6,,,74,100
3072,note_on,,,,,92,0,11,,,,,4,,,62,90
3072,note_on,,,,,92,0,14,,,,,6,,,62,100
3072,note_on,,,,,4,0,15,,,,,7,,,72,100
3072,note_on,,,,,32,0,8,,,,,1,,,72,90
3072,note_off,,,,,192,0,9,,,,,2,,,78,100
3072,note_on,,,,,92,0,10,,,,,3,,,66,90
3072,note_on,,,,,4,0,13,,,,,6,,,72,100
3072,note_on,,,,,92,0,12,,,,,5,,,50,90
3072,note_on,,,,,92,0,16,,,,,7,,,62,100
3168,note_on,,,,,96,0,9,,,,,2,,,69,90
3172,note_off,,,,,100,0,12,,,,,5,,,50,100
3172,note_off,,,,,100,0,11,,,,,4,,,62,100
3172,note_off,,,,,100,0,10,,,,,3,,,66,100
3172,note_off,,,,,100,0,16,,,,,7,,,62,100
3172,note_off,,,,,100,0,14,,,,,6,,,62,100
3232,note_off,,,,,64,0,9,,,,,2,,,69,100
3264,note_on,,,,,92,0,14,,,,,6,,,50,100
3264,note_off,,,,,192,0,8,,,,,1,,,72,100
3264,note_on,,,,,92,0,16,,,,,7,,,50,100
3264,note_off,,,,,0,0,15,,,,,7,,,69,100
3264,note_off,,,,,0,0,13,,,,,6,,,69,100
3264,note_on,,,,,92,0,11,,,,,4,,,50,90
3264,note_on,,,,,32,0,9,,,,,2,,,74,90
3264,note_on,,,,,92,0,12,,,,,5,,,38,90
3264,note_off,,,,,192,0,13,,,,,6,,,66,100
3264,note_off,,,,,192,0,15,,,,,7,,,66,100
3264,note_on,,,,,92,0,10,,,,,3,,,66,90
3328,note_off,,,,,64,0,15,,,,,7,,,72,100
3328,note_off,,,,,64,0,13,,,,,6,,,72,100
3328,note_off,,,,,64,0,9,,,,,2,,,74,100
3360,note_on,,,,,32,0,9,,,,,2,,,78,90
3360,note_on,,,,,96,0,8,,,,,1,,,81,90
3364,note_off,,,,,100,0,12,,,,,5,,,38,100
3364,note_off,,,,,100,0,14,,,,,6,,,50,100
3364,note_off,,,,,100,0,11,,,,,4,,,50,100
3364,note_off,,,,,100,0,16,,,,,7,,,50,100
3364,note_off,,,,,100,0,10,,,,,3,,,66,100
3424,note_off,,,,,64,0,8,,,,,1,,,81,100
3424,note_off,,,,,64,0,9,,,,,2,,,78,100
3456,note_on,,,,,92,0,14,,,,,6,,,43,100
3456,note_on,,,,,92,0,10,,,,,3,,,62,90
3456,note_on,,,,,128,0,13,,,,,6,,,71,100
3456,note_on,,,,,0,0,13,,,,,6,,,62,100
3456,note_on,,,,,0,0,13,,,,,6,,,67,100
3456,note_on,,,,,92,0,16,,,,,7,,,43,100
3456,note_on,,,,,92,0,12,,,,,5,,,31,90
3456,note_on,,,,,0,0,15,,,,,7,,,62,100
3456,note_on,,,,,128,0,15,,,,,7,,,71,100
3456,note_on,,,,,32,0,9,,,,,2,,,79,90
3456,note_on,,,,,92,0,11,,,,,4,,,43,90
3456,note_on,,,,,32,0,8,,,,,1,,,71,90
3456,note_on,,,,,0,0,15,,,,,7,,,67,100
3520,note_off,,,,,64,0,8,,,,,1,,,71,100
3552,note_on,,,,,32,0,8,,,,,1,,,67,91
3556,note_off,,,,,100,0,16,,,,,7,,,43,100
3556,note_off,,,,,100,0,11,,,,,4,,,43,100
3556,note_off,,,,,100,0,14,,,,,6,,,43,100
3556,note_off,,,,,100,0,12,,,,,5,,,31,100
3556,note_off,,,,,100,0,10,,,,,3,,,62,100
3616,note_off,,,,,64,0,8,,,,,1,,,67,100
3648,note_on,,,,,92,0,16,,,,,7,,,55,100
3648,note_on,,,,,92,0,12,,,,,5,,,43,92
3648,note_on,,,,,32,0,8,,,,,1,,,71,92
3648,note_off,,,,,192,0,9,,,,,2,,,79,100
3648,note_on,,,,,92,0,14,,,,,6,,,55,100
3648,note_on,,,,,92,0,10,,,,,3,,,62,92
3648,note_on,,,,,92,0,11,,,,,4,,,55,92
3712,note_off,,,,,64,0,8,,,,,1,,,71,100
3744,note_on,,,,,32,0,8,,,,,1,,,74,93
3744,note_on,,,,,96,0,9,,,,,2,,,71,93
3748,note_off,,,,,100,0,10,,,,,3,,,62,100
3748,note_off,,,,,100,0,14,,,,,6,,,55,100
3748,note_off,,,,,100,0,11,,,,,4,,,55,100
3748,note_off,,,,,100,0,16,,,,,7,,,55,100
3748,note_off,,,,,100,0,12,,,,,5,,,43,100
3808,note_off,,,,,64,0,8,,,,,1,,,74,100
3808,note_off,,,,,64,0,9,,,,,2,,,71,100
3840,note_off,,,,,0,0,15,,,,,7,,,62,100
3840,note_off,,,,,0,0,13,,,,,6,,,62,100
3840,note_off,,,,,0,0,13,,,,,6,,,67,100
3840,note_on,,,,,92,0,11,,,,,4,,,43,94
3840,note_off,,,,,0,0,15,,,,,7,,,67,100
3840,note_off,,,,,384,0,15,,,,,7,,,71,100
3840,note_on,,,,,32,0,8,,,,,1,,,79,94
3840,note_on,,,,,32,0,9,,,,,2,,,74,94
3840,note_off,,,,,384,0,13,,,,,6,,,71,100
3840,note_on,,,,,92,0,14,,,,,6,,,43,100
3840,note_on,,,,,92,0,16,,,,,7,,,43,100
3840,note_on,,,,,92,0,10,,,,,3,,,71,94
3840,note_on,,,,,92,0,12,,,,,5,,,31,94
3904,note_off,,,,,64,0,9,,,,,2,,,74,100
3904,note_off,,,,,64,0,8,,,,,1,,,79,100
3936,note_on,,,,,32,0,9,,,,,2,,,79,95
3936,note_on,,,,,32,0,8,,,,,1,,,74,95
3940,note_off,,,,,100,0,11,,,,,4,,,43,100
3940,note_off,,,,,100,0,12,,,,,5,,,31,100
3940,note_off,,,,,100,0,10,,,,,3,,,71,100
3940,note_off,,,,,100,0,16,,,,,7,,,43,100
3940,note_off,,,,,100,0,14,,,,,6,,,43,100
4000,note_off,,,,,64,0,9,,,,,2,,,79,100
4000,note_off,,,,,64,0,8,,,,,1,,,74,100
4032,note_on,,,,,0,0,15,,,,,7,,,62,100
4032,note_on,,,,,92,0,12,,,,,5,,,31,96
4032,note_on,,,,,192,0,15,,,,,7,,,59,100
4032,note_on,,,,,32,0,9,,,,,2,,,74,96
4032,note_on,,,,,0,0,13,,,,,6,,,62,100
4032,note_on,,,,,192,0,13,,,,,6,,,59,100
4032,note_on,,,,,32,0,8,,,,,1,,,71,96
4032,note_on,,,,,0,0,15,,,,,7,,,67,100
4032,note_on,,,,,92,0,11,,,,,4,,,43,96
4032,note_on,,,,,0,0,13,,,,,6,,,67,100
4032,note_on,,,,,92,0,14,,,,,6,,,43,100
4032,note_on,,,,,92,0,16,,,,,7,,,43,100
4032,note_on,,,,,92,0,10,,,,,3,,,67,96
4096,note_off,,,,,64,0,8,,,,,1,,,71,100
4128,note_on,,,,,32,0,8,,,,,1,,,67,97
4132,note_off,,,,,100,0,16,,,,,7,,,43,100
4132,note_off,,,,,100,0,12,,,,,5,,,31,100
4132,note_off,,,,,100,0,11,,,,,4,,,43,100
4132,note_off,,,,,100,0,10,,,,,3,,,67,100
4132,note_off,,,,,100,0,14,,,,,6,,,43,100
4192,note_off,,,,,64,0,8,,,,,1,,,67,100
4224,note_on,,,,,92,0,11,,,,,4,,,55,98
4224,note_off,,,,,192,0,9,,,,,2,,,74,100
4224,note_on,,,,,92,0,16,,,,,7,,,55,100
4224,note_on,,,,,92,0,14,,,,,6,,,55,100
4224,note_on,,,,,92,0,10,,,,,3,,,67,98
4224,note_on,,,,,92,0,12,,,,,5,,,43,98
4224,note_on,,,,,32,0,8,,,,,1,,,71,98
4288,note_off,,,,,64,0,8,,,,,1,,,71,100
4320,note_on,,,,,96,0,9,,,,,2,,,71,99
4320,note_on,,,,,32,0,8,,,,,1,,,74,99
4324,note_off,,,,,100,0,14,,,,,6,,,55,100
4324,note_off,,,,,100,0,16,,,,,7,,,55,100
4324,note_off,,,,,100,0,12,,,,,5,,,43,100
4324,note_off,,,,,100,0,10,,,,,3,,,67,100
4324,note_off,,,,,100,0,11,,,,,4,,,55,100
4384,note_off,,,,,64,0,8,,,,,1,,,74,100
4384,note_off,,,,,64,0,9,,,,,2,,,71,100
4416,note_on,,,,,92,0,12,,,,,5,,,31,100
4416,note_on,,,,,32,0,8,,,,,1,,,79,100
4416,note_on,,,,,92,0,10,,,,,3,,,71,100
4416,note_on,,,,,92,0,11,,,,,4,,,43,100
4416,note_off,,,,,0,0,15,,,,,7,,,62,100
4416,note_off,,,,,384,0,13,,,,,6,,,59,100
4416,note_off,,,,,0,0,15,,,,,7,,,67,100
4416,note_on,,,,,92,0,14,,,,,6,,,43,100
4416,note_off,,,,,0,0,13,,,,,6,,,62,100
4416,note_on,,,,,92,0,16,,,,,7,,,43,100
4416,note_off,,,,,384,0,15,,,,,7,,,59,100
4416,note_off,,,,,0,0,13,,,,,6,,,67,100
4416,note_on,,,,,32,0,9,,,,,2,,,76,100
4480,note_off,,,,,64,0,9,,,,,2,,,76,100
4480,note_off,,,,,64,0,8,,,,,1,,,79,100
4512,note_on,,,,,32,0,9,,,,,2,,,79,101
4512,note_on,,,,,32,0,8,,,,,1,,,83,101
4516,note_off,,,,,100,0,12,,,,,5,,,31,100
4516,note_off,,,,,100,0,16,,,,,7,,,43,100
4516,note_off,,,,,100,0,14,,,,,6,,,43,100
4516,note_off,,,,,100,0,11,,,,,4,,,43,100
4516,note_off,,,,,100,0,10,,,,,3,,,71,100
4576,note_off,,,,,64,0,9,,,,,2,,,79,100
4576,note_off,,,,,64,0,8,,,,,1,,,83,100
4608,note_on,,,,,0,0,13,,,,,6,,,61,100
4608,note_on,,,,,0,0,13,,,,,6,,,64,100
4608,note_on,,,,,192,0,13,,,,,6,,,69,100
4608,note_on,,,,,92,0,11,,,,,4,,,45,92
4608,note_on,,,,,92,0,12,,,,,5,,,33,92
4608,note_on,,,,,0,0,15,,,,,7,,,64,100
4608,note_on,,,,,32,0,8,,,,,1,,,73,92
4608,note_on,,,,,0,0,15,,,,,7,,,61,100
4608,note_on,,,,,92,0,14,,,,,6,,,45,100
4608,note_on,,,,,92,0,10,,,,,3,,,69,92
4608,note_on,,,,,192,0,15,,,,,7,,,69,100
4608,note_on,,,,,32,0,9,,,,,2,,,76,92
4608,note_on,,,,,92,0,16,,,,,7,,,45,100
4796,note_off,,,,,188,0,8,,,,,1,,,73,100
4800,note_on,,,,,4,0,8,,,,,1,,,71,92
4864,note_off,,,,,256,0,10,,,,,3,,,69,100
4864,note_off,,,,,256,0,9,,,,,2,,,76,100
4988,note_off,,,,,188,0,8,,,,,1,,,71,100
4992,note_on,,,,,4,0,8,,,,,1,,,69,93
5092,note_off,,,,,100,0,8,,,,,1,,,69,100
5184,note_on,,,,,92,0,8,,,,,1,,,76,94
5184,note_on,,,,,320,0,10,,,,,3,,,69,94
5184,note_on,,,,,320,0,9,,,,,2,,,73,94
5372,note_off,,,,,188,0,9,,,,,2,,,73,100
5372,note_off,,,,,188,0,8,,,,,1,,,76,100
5376,note_on,,,,,4,0,9,,,,,2,,,71,95
5376,note_on,,,,,4,0,8,,,,,1,,,74,95
5564,note_off,,,,,188,0,9,,,,,2,,,71,100
5564,note_off,,,,,188,0,8,,,,,1,,,74,100
5568,note_on,,,,,4,0,9,,,,,2,,,69,96
5568,note_on,,,,,4,0,8,,,,,1,,,73,96
5644,note_off,,,,,1036,0,11,,,,,4,,,45,100
5644,note_off,,,,,1036,0,15,,,,,7,,,61,100
5644,note_off,,,,,1036,0,14,,,,,6,,,45,100
5644,note_off,,,,,1036,0,12,,,,,5,,,33,100
5644,note_off,,,,,0,0,15,,,,,7,,,64,100
5644,note_off,,,,,0,0,15,,,,,7,,,69,100
5644,note_off,,,,,0,0,13,,,,,6,,,69,100
5644,note_off,,,,,1036,0,16,,,,,7,,,45,100
5644,note_off,,,,,0,0,13,,,,,6,,,64,100
5644,note_off,,,,,1036,0,13,,,,,6,,,61,100
5668,note_off,,,,,100,0,8,,,,,1,,,73,100
5668,note_off,,,,,100,0,9,,,,,2,,,69,100
5760,note_on,,,,,116,0,16,,,,,7,,,50,100
5760,note_on,,,,,116,0,11,,,,,4,,,50,98
5760,note_on,,,,,116,0,14,,,,,6,,,50,100
5760,note_on,,,,,92,0,9,,,,,2,,,78,98
5760,note_on,,,,,116,0,12,,,,,5,,,38,98
5760,note_on,,,,,116,0,15,,,,,7,,,66,100
5760,note_on,,,,,0,0,13,,,,,6,,,62,100
5760,note_on,,,,,116,0,13,,,,,6,,,66,100
5760,note_on,,,,,0,0,15,,,,,7,,,69,100
5760,note_on,,,,,0,0,15,,,,,7,,,62,100
5760,note_on,,,,,0,0,13,,,,,6,,,69,100
5760,note_on,,,,,92,0,8,,,,,1,,,81,98
5948,note_off,,,,,188,0,9,,,,,2,,,78,100
5948,note_off,,,,,188,0,8,,,,,1,,,81,100
5952,note_on,,,,,4,0,9,,,,,2,,,76,97
5952,note_on,,,,,4,0,8,,,,,1,,,79,97
6140,note_off,,,,,188,0,8,,,,,1,,,79,100
6140,note_off,,,,,188,0,9,,,,,2,,,76,100
6144,note_on,,,,,4,0,9,,,,,2,,,74,95
6144,note_on,,,,,4,0,8,,,,,1,,,78,95
6244,note_off,,,,,100,0,8,,,,,1,,,78,100
6244,note_off,,,,,100,0,9,,,,,2,,,74,100
6332,note_off,,,,,572,0,15,,,,,7,,,66,100
6332,note_off,,,,,572,0,13,,,,,6,,,66,100
6336,note_on,,,,,4,0,15,,,,,7,,,65,100
6336,note_on,,,,,92,0,9,,,,,2,,,81,98
6336,note_on,,,,,92,0,8,,,,,1,,,77,98
6336,note_on,,,,,4,0,13,,,,,6,,,65,100
6524,note_off,,,,,188,0,9,,,,,2,,,81,100
6524,note_off,,,,,188,0,8,,,,,1,,,77,100
6528,note_on,,,,,4,0,9,,,,,2,,,79,97
6528,note_on,,,,,4,0,8,,,,,1,,,76,97
6716,note_off,,,,,188,0,9,,,,,2,,,79,100
6716,note_off,,,,,188,0,8,,,,,1,,,76,100
6720,note_on,,,,,4,0,9,,,,,2,,,77,95
6720,note_on,,,,,4,0,8,,,,,1,,,74,95
6796,note_off,,,,,460,0,13,,,,,6,,,62,100
6796,note_off,,,,,460,0,15,,,,,7,,,62,100
6796,note_off,,,,,1036,0,11,,,,,4,,,50,100
6796,note_off,,,,,1036,0,12,,,,,5,,,38,100
6796,note_off,,,,,1036,0,16,,,,,7,,,50,100
6796,note_off,,,,,0,0,15,,,,,7,,,69,100
6796,note_off,,,,,1036,0,14,,,,,6,,,50,100
6796,note_off,,,,,0,0,13,,,,,6,,,65,100
6796,note_off,,,,,0,0,13,,,,,6,,,69,100
6796,note_off,,,,,1612,0,10,,,,,3,,,69,100
6796,note_off,,,,,0,0,15,,,,,7,,,65,100
6820,note_off,,,,,100,0,9,,,,,2,,,77,100
6820,note_off,,,,,100,0,8,,,,,1,,,74,100
6912,note_on,,,,,0,0,15,,,,,7,,,64,100
6912,note_on,,,,,92,0,9,,,,,2,,,76,100
6912,note_on,,,,,116,0,13,,,,,6,,,61,100
6912,note_on,,,,,0,0,13,,,,,6,,,64,100
6912,note_on,,,,,0,0,13,,,,,6,,,69,100
6912,note_on,,,,,116,0,16,,,,,7,,,45,100
6912,note_on,,,,,116,0,11,,,,,4,,,45,100
6912,note_on,,,,,92,0,8,,,,,1,,,73,100
6912,note_on,,,,,116,0,14,,,,,6,,,45,100
6912,note_on,,,,,116,0,12,,,,,5,,,33,100
6912,note_on,,,,,116,0,10,,,,,3,,,69,100
6912,note_on,,,,,0,0,15,,,,,7,,,69,100
6912,note_on,,,,,116,0,15,,,,,7,,,61,100
6976,note_off,,,,,64,0,8,,,,,1,,,73,100
6976,note_off,,,,,64,0,9,,,,,2,,,76,100
7008,note_on,,,,,32,0,8,,,,,1,,,69,100
7008,note_on,,,,,32,0,9,,,,,2,,,73,100
7040,note_off,,,,,32,0,8,,,,,1,,,69,100
7040,note_off,,,,,32,0,9,,,,,2,,,73,100
7056,note_on,,,,,16,0,8,,,,,1,,,71,100
7056,note_on,,,,,16,0,9,,,,,2,,,74,100
7088,note_off,,,,,32,0,8,,,,,1,,,71,100
7088,note_off,,,,,32,0,9,,,,,2,,,74,100
7104,note_on,,,,,16,0,8,,,,,1,,,73,100
7104,note_on,,,,,16,0,9,,,,,2,,,76,100
7112,note_off,,,,,200,0,13,,,,,6,,,61,100
7112,note_off,,,,,0,0,15,,,,,7,,,69,100
7112,note_off,,,,,200,0,11,,,,,4,,,45,100
7112,note_off,,,,,200,0,14,,,,,6,,,45,100
7112,note_off,,,,,200,0,16,,,,,7,,,45,100
7112,note_off,,,,,0,0,15,,,,,7,,,64,100
7112,note_off,,,,,200,0,15,,,,,7,,,61,100
7112,note_off,,,,,0,0,13,,,,,6,,,64,100
7112,note_off,,,,,0,0,13,,,,,6,,,69,100
7112,note_off,,,,,200,0,10,,,,,3,,,69,100
7112,note_off,,,,,200,0,12,,,,,5,,,33,100
7168,note_off,,,,,64,0,8,,,,,1,,,73,100
7168,note_off,,,,,64,0,9,,,,,2,,,76,100
7200,note_on,,,,,32,0,9,,,,,2,,,78,100
7200,note_on,,,,,32,0,8,,,,,1,,,74,100
7264,note_off,,,,,64,0,8,,,,,1,,,74,100
7264,note_off,,,,,64,0,9,,,,,2,,,78,100
7296,note_on,,,,,32,0,8,,,,,1,,,76,100
7296,note_on,,,,,32,0,9,,,,,2,,,79,100
7360,note_off,,,,,64,0,8,,,,,1,,,76,100
7360,note_off,,,,,64,0,9,,,,,2,,,79,100
7392,note_on,,,,,32,0,9,,,,,2,,,81,100
7392,note_on,,,,,32,0,8,,,,,1,,,78,100
7456,note_off,,,,,64,0,9,,,,,2,,,81,100
7456,note_off,,,,,64,0,8,,,,,1,,,78,100
7488,note_on,,,,,376,0,16,,,,,7,,,45,100
7488,note_on,,,,,376,0,15,,,,,7,,,69,100
7488,note_on,,,,,376,0,12,,,,,5,,,33,100
7488,note_on,,,,,376,0,10,,,,,3,,,64,100
7488,note_on,,,,,376,0,14,,,,,6,,,45,100
7488,note_on,,,,,376,0,13,,,,,6,,,69,100
7488,note_on,,,,,0,0,13,,,,,6,,,73,100
7488,note_on,,,,,0,0,15,,,,,7,,,73,100
7488,note_on,,,,,32,0,9,,,,,2,,,73,100
7488,note_on,,,,,376,0,11,,,,,4,,,45,100
7488,note_on,,,,,32,0,8,,,,,1,,,79,100
7588,note_off,,,,,100,0,10,,,,,3,,,64,100
7588,note_off,,,,,100,0,14,,,,,6,,,45,100
7588,note_off,,,,,100,0,11,,,,,4,,,45,100
7588,note_off,,,,,100,0,12,,,,,5,,,33,100
7588,note_off,,,,,100,0,16,,,,,7,,,45,100
7588,note_off,,,,,100,0,13,,,,,6,,,69,100
7588,note_off,,,,,0,0,13,,,,,6,,,73,100
7588,note_off,,,,,100,0,9,,,,,2,,,73,100
7588,note_off,,,,,100,0,15,,,,,7,,,69,100
7588,note_off,,,,,0,0,15,,,,,7,,,73,100
7588,note_off,,,,,100,0,8,,,,,1,,,79,100
7776,note_on,,,,,188,0,8,,,,,1,,,76,100
7776,note_on,,,,,188,0,11,,,,,4,,,45,100
7776,note_on,,,,,188,0,12,,,,,5,,,33,100
7776,note_on,,,,,188,0,9,,,,,2,,,73,100
7776,note_on,,,,,188,0,14,,,,,6,,,45,100
7776,note_on,,,,,188,0,15,,,,,7,,,67,100
7776,note_on,,,,,0,0,15,,,,,7,,,73,100
7776,note_on,,,,,188,0,13,,,,,6,,,67,100
7776,note_on,,,,,0,0,13,,,,,6,,,73,100
7776,note_on,,,,,188,0,10,,,,,3,,,61,100
7776,note_on,,,,,188,0,16,,,,,7,,,45,100
7840,note_off,,,,,0,0,13,,,,,6,,,73,100
7840,note_off,,,,,64,0,12,,,,,5,,,33,100
7840,note_off,,,,,64,0,14,,,,,6,,,45,100
7840,note_off,,,,,64,0,9,,,,,2,,,73,99
7840,note_off,,,,,64,0,16,,,,,7,,,45,100
7840,note_off,,,,,64,0,10,,,,,3,,,61,100
7840,note_off,,,,,64,0,13,,,,,6,,,67,100
7840,note_off,,,,,64,0,15,,,,,7,,,67,100
7840,note_off,,,,,0,0,15,,,,,7,,,73,100
7840,note_off,,,,,64,0,11,,,,,4,,,45,100
7840,note_off,,,,,64,0,8,,,,,1,,,76,100
7872,note_on,,,,,32,0,16,,,,,7,,,50,100
7872,note_on,,,,,32,0,14,,,,,6,,,50,100
7872,note_on,,,,,0,0,13,,,,,6,,,74,100
7872,note_on,,,,,0,0,15,,,,,7,,,74,100
7872,note_on,,,,,32,0,9,,,,,2,,,74,100
7872,note_on,,,,,32,0,8,,,,,1,,,78,100
7872,note_on,,,,,32,0,13,,,,,6,,,66,100
7872,note_on,,,,,32,0,10,,,,,3,,,57,100
7872,note_on,,,,,32,0,15,,,,,7,,,66,100
7872,note_on,,,,,32,0,12,,,,,5,,,38,100
7872,note_on,,,,,32,0,11,,,,,4,,,50,100
7972,note_off,,,,,100,0,13,,,,,6,,,66,100
7972,note_off,,,,,100,0,8,,,,,1,,,78,100
7972,note_off,,,,,0,0,13,,,,,6,,,74,100
7972,note_off,,,,,100,0,14,,,,,6,,,50,100
7972,note_off,,,,,100,0,10,,,,,3,,,57,100
7972,note_off,,,,,100,0,16,,,,,7,,,50,100
7972,note_off,,,,,100,0,11,,,,,4,,,50,100
7972,note_off,,,,,100,0,9,,,,,2,,,74,100
7972,note_off,,,,,100,0,12,,,,,5,,,38,100
7972,note_off,,,,,0,0,15,,,,,7,,,74,100
7972,note_off,,,,,100,0,15,,,,,7,,,66,100
8160,note_on,,,,,0,0,15,,,,,7,,,71,100
8160,note_on,,,,,188,0,16,,,,,7,,,55,100
8160,note_on,,,,,188,0,14,,,,,6,,,55,100
8160,note_on,,,,,188,0,11,,,,,4,,,55,102
8160,note_on,,,,,188,0,9,,,,,2,,,76,102
8160,note_on,,,,,0,0,13,,,,,6,,,71,100
8160,note_on,,,,,188,0,13,,,,,6,,,64,100
8160,note_on,,,,,188,0,12,,,,,5,,,43,102
8160,note_on,,,,,188,0,10,,,,,3,,,71,102
8160,note_on,,,,,188,0,15,,,,,7,,,64,100
8160,note_on,,,,,188,0,8,,,,,1,,,79,102
8224,note_off,,,,,64,0,11,,,,,4,,,55,100
8224,note_off,,,,,64,0,12,,,,,5,,,43,100
8224,note_off,,,,,64,0,16,,,,,7,,,55,100
8224,note_off,,,,,0,0,15,,,,,7,,,71,100
8224,note_off,,,,,64,0,9,,,,,2,,,76,100
8224,note_off,,,,,64,0,14,,,,,6,,,55,100
8224,note_off,,,,,64,0,8,,,,,1,,,79,100
8224,note_off,,,,,64,0,10,,,,,3,,,71,100
8224,note_off,,,,,0,0,13,,,,,6,,,71,100
8224,note_off,,,,,64,0,13,,,,,6,,,64,100
8224,note_off,,,,,64,0,15,,,,,7,,,64,100
8256,note_on,,,,,32,0,16,,,,,7,,,57,100
8256,note_on,,,,,32,0,10,,,,,3,,,64,101
8256,note_on,,,,,32,0,8,,,,,1,,,78,101
8256,note_on,,,,,0,0,13,,,,,6,,,73,100
8256,note_on,,,,,32,0,13,,,,,6,,,64,100
8256,note_on,,,,,32,0,12,,,,,5,,,45,101
8256,note_on,,,,,32,0,11,,,,,4,,,57,101
8256,note_on,,,,,32,0,15,,,,,7,,,64,100
8256,note_on,,,,,32,0,9,,,,,2,,,74,101
8256,note_on,,,,,0,0,15,,,,,7,,,73,100
8256,note_on,,,,,32,0,14,,,,,6,,,57,100
8300,note_off,,,,,44,0,8,,,,,1,,,78,100
8304,note_on,,,,,4,0,8,,,,,1,,,76,100
8316,note_off,,,,,60,0,9,,,,,2,,,74,100
8320,note_on,,,,,4,0,9,,,,,2,,,73,100
8348,note_off,,,,,44,0,8,,,,,1,,,76,100
8352,note_on,,,,,4,0,8,,,,,1,,,78,100
8356,note_off,,,,,100,0,16,,,,,7,,,57,100
8356,note_off,,,,,100,0,14,,,,,6,,,57,100
8356,note_off,,,,,100,0,12,,,,,5,,,45,100
8356,note_off,,,,,100,0,11,,,,,4,,,57,100
8380,note_off,,,,,60,0,9,,,,,2,,,73,100
8384,note_on,,,,,4,0,9,,,,,2,,,74,99
8396,note_off,,,,,44,0,8,,,,,1,,,78,100
8400,note_on,,,,,4,0,8,,,,,1,,,76,99
8444,note_off,,,,,44,0,8,,,,,1,,,76,100
8444,note_off,,,,,60,0,9,,,,,2,,,74,100
8448,note_on,,,,,92,0,12,,,,,5,,,33,98
8448,note_on,,,,,92,0,16,,,,,7,,,45,100
8448,note_on,,,,,4,0,9,,,,,2,,,73,98
8448,note_off,,,,,192,0,10,,,,,3,,,64,100
8448,note_on,,,,,92,0,14,,,,,6,,,45,100
8448,note_on,,,,,4,0,8,,,,,1,,,76,98
8448,note_on,,,,,92,0,11,,,,,4,,,45,98
8512,note_off,,,,,0,0,15,,,,,7,,,73,100
8512,note_off,,,,,256,0,15,,,,,7,,,64,100
8512,note_off,,,,,0,0,13,,,,,6,,,73,100
8512,note_off,,,,,64,0,8,,,,,1,,,76,100
8512,note_off,,,,,256,0,13,,,,,6,,,64,100
8512,note_off,,,,,64,0,9,,,,,2,,,73,100
8544,note_on,,,,,96,0,10,,,,,3,,,69,97
8544,note_on,,,,,32,0,8,,,,,1,,,74,97
8544,note_on,,,,,32,0,9,,,,,2,,,74,97
8548,note_off,,,,,100,0,12,,,,,5,,,33,100
8548,note_off,,,,,100,0,11,,,,,4,,,45,100
8548,note_off,,,,,100,0,14,,,,,6,,,45,100
8548,note_off,,,,,100,0,16,,,,,7,,,45,100
8608,note_off,,,,,64,0,8,,,,,1,,,74,100
8608,note_off,,,,,64,0,9,,,,,2,,,74,100
8608,note_off,,,,,64,0,10,,,,,3,,,69,100
8640,note_on,,,,,128,0,15,,,,,7,,,66,100
8640,note_on,,,,,0,0,15,,,,,7,,,74,100
8640,note_on,,,,,32,0,9,,,,,2,,,74,96
8640,note_on,,,,,0,0,15,,,,,7,,,69,100
8640,note_on,,,,,92,0,16,,,,,7,,,50,100
8640,note_on,,,,,0,0,13,,,,,6,,,69,100
8640,note_on,,,,,0,0,13,,,,,6,,,74,100
8640,note_on,,,,,32,0,10,,,,,3,,,66,96
8640,note_on,,,,,128,0,13,,,,,6,,,66,100
8640,note_on,,,,,92,0,14,,,,,6,,,50,100
8640,note_on,,,,,32,0,8,,,,,1,,,74,96
8640,note_on,,,,,92,0,12,,,,,5,,,38,96
8640,note_on,,,,,92,0,11,,,,,4,,,50,96
8704,note_off,,,,,64,0,9,,,,,2,,,74,100
8736,note_on,,,,,32,0,9,,,,,2,,,66,100
8740,note_off,,,,,100,0,13,,,,,6,,,66,100
8740,note_off,,,,,0,0,15,,,,,7,,,74,100
8740,note_off,,,,,100,0,15,,,,,7,,,66,100
8740,note_off,,,,,0,0,13,,,,,6,,,74,100
8740,note_off,,,,,0,0,13,,,,,6,,,69,100
8740,note_off,,,,,100,0,11,,,,,4,,,50,100
8740,note_off,,,,,0,0,15,,,,,7,,,69,100
8740,note_off,,,,,100,0,16,,,,,7,,,50,100
8740,note_off,,,,,100,0,14,,,,,6,,,50,100
8740,note_off,,,,,100,0,10,,,,,3,,,66,100
8740,note_off,,,,,100,0,8,,,,,1,,,74,100
8740,note_off,,,,,100,0,12,,,,,5,,,38,100
8800,note_off,,,,,64,0,9,,,,,2,,,66,100
8832,note_on,,,,,92,0,13,,,,,6,,,62,100
8832,note_on,,,,,92,0,16,,,,,7,,,57,100
8832,note_on,,,,,92,0,10,,,,,3,,,62,100
8832,note_on,,,,,32,0,9,,,,,2,,,67,100
8832,note_on,,,,,92,0,12,,,,,5,,,45,100
8832,note_on,,,,,92,0,14,,,,,6,,,57,100
8832,note_on,,,,,0,0,13,,,,,6,,,66,100
8832,note_on,,,,,92,0,8,,,,,1,,,66,100
8832,note_on,,,,,0,0,15,,,,,7,,,66,100
8832,note_on,,,,,92,0,15,,,,,7,,,62,100
8832,note_on,,,,,92,0,11,,,,,4,,,57,100
8896,note_off,,,,,64,0,9,,,,,2,,,67,100
8928,note_on,,,,,32,0,9,,,,,2,,,69,100
8932,note_off,,,,,100,0,8,,,,,1,,,66,100
8932,note_off,,,,,0,0,15,,,,,7,,,66,100
8932,note_off,,,,,100,0,15,,,,,7,,,62,100
8932,note_off,,,,,100,0,12,,,,,5,,,45,100
8932,note_off,,,,,0,0,13,,,,,6,,,66,100
8932,note_off,,,,,100,0,13,,,,,6,,,62,100
8932,note_off,,,,,100,0,16,,,,,7,,,57,100
8932,note_off,,,,,100,0,11,,,,,4,,,57,100
8932,note_off,,,,,100,0,14,,,,,6,,,57,100
8932,note_off,,,,,100,0,10,,,,,3,,,62,100
8992,note_off,,,,,64,0,9,,,,,2,,,69,100
9024,note_on,,,,,92,0,13,,,,,6,,,61,100
9024,note_on,,,,,92,0,12,,,,,5,,,33,100
9024,note_on,,,,,0,0,13,,,,,6,,,64,100
9024,note_on,,,,,92,0,16,,,,,7,,,45,100
9024,note_on,,,,,92,0,11,,,,,4,,,45,100
9024,note_on,,,,,92,0,15,,,,,7,,,61,100
9024,note_on,,,,,0,0,15,,,,,7,,,64,100
9024,note_on,,,,,92,0,8,,,,,1,,,64,100
9024,note_on,,,,,92,0,10,,,,,3,,,57,100
9024,note_on,,,,,32,0,9,,,,,2,,,71,100
9024,note_on,,,,,92,0,14,,,,,6,,,45,100
9088,note_off,,,,,64,0,9,,,,,2,,,71,100
9120,note_on,,,,,32,0,9,,,,,2,,,73,100
9124,note_off,,,,,100,0,11,,,,,4,,,45,100
9124,note_off,,,,,100,0,16,,,,,7,,,45,100
9124,note_off,,,,,0,0,13,,,,,6,,,64,100
9124,note_off,,,,,100,0,13,,,,,6,,,61,100
9124,note_off,,,,,100,0,10,,,,,3,,,57,100
9124,note_off,,,,,0,0,15,,,,,7,,,64,100
9124,note_off,,,,,100,0,14,,,,,6,,,45,100
9124,note_off,,,,,100,0,15,,,,,7,,,61,100
9124,note_off,,,,,100,0,8,,,,,1,,,64,100
9124,note_off,,,,,100,0,12,,,,,5,,,33,100
9184,note_off,,,,,64,0,9,,,,,2,,,73,100
9216,note_on,,,,,92,0,16,,,,,7,,,50,100
9216,note_on,,,,,0,0,13,,,,,6,,,54,100
9216,note_on,,,,,92,0,14,,,,,6,,,50,100
9216,note_on,,,,,92,0,13,,,,,6,,,62,100
9216,note_on,,,,,92,0,10,,,,,3,,,54,95
9216,note_on,,,,,32,0,9,,,,,2,,,74,95
9216,note_on,,,,,92,0,15,,,,,7,,,62,100
9216,note_on,,,,,92,0,11,,,,,4,,,50,95
9216,note_on,,,,,0,0,15,,,,,7,,,54,100
9216,note_on,,,,,0,0,13,,,,,6,,,57,100
9216,note_on,,,,,92,0,12,,,,,5,,,38,95
9216,note_on,,,,,92,0,8,,,,,1,,,62,95
9280,note_off,,,,,64,0,8,,,,,1,,,62,100
9312,note_on,,,,,32,0,8,,,,,1,,,66,95
9316,note_off,,,,,0,0,13,,,,,6,,,54,100
9316,note_off,,,,,0,0,13,,,,,6,,,57,100
9316,note_off,,,,,100,0,12,,,,,5,,,38,100
9316,note_off,,,,,100,0,16,,,,,7,,,50,100
9316,note_off,,,,,100,0,14,,,,,6,,,50,100
9316,note_off,,,,,100,0,10,,,,,3,,,54,100
9316,note_off,,,,,100,0,9,,,,,2,,,74,100
9316,note_off,,,,,100,0,15,,,,,7,,,62,100
9316,note_off,,,,,0,0,15,,,,,7,,,54,100
9316,note_off,,,,,100,0,11,,,,,4,,,50,100
9316,note_off,,,,,100,0,13,,,,,6,,,62,100
9376,note_off,,,,,64,0,8,,,,,1,,,66,100
9408,note_on,,,,,0,0,13,,,,,6,,,66,100
9408,note_on,,,,,92,0,14,,,,,6,,,57,100
9408,note_on,,,,,92,0,16,,,,,7,,,57,100
9408,note_on,,,,,92,0,12,,,,,5,,,45,95
9408,note_on,,,,,92,0,11,,,,,4,,,57,95
9408,note_on,,,,,92,0,10,,,,,3,,,62,95
9408,note_on,,,,,92,0,15,,,,,7,,,62,100
9408,note_on,,,,,32,0,8,,,,,1,,,67,95
9408,note_on,,,,,92,0,13,,,,,6,,,62,100
9408,note_on,,,,,92,0,9,,,,,2,,,66,95
9408,note_on,,,,,0,0,15,,,,,7,,,66,100
9472,note_off,,,,,64,0,8,,,,,1,,,67,100
9504,note_on,,,,,32,0,8,,,,,1,,,69,94
9508,note_off,,,,,100,0,13,,,,,6,,,62,100
9508,note_off,,,,,0,0,13,,,,,6,,,66,100
9508,note_off,,,,,100,0,16,,,,,7,,,57,100
9508,note_off,,,,,100,0,15,,,,,7,,,62,100
9508,note_off,,,,,100,0,12,,,,,5,,,45,100
9508,note_off,,,,,100,0,10,,,,,3,,,62,100
9508,note_off,,,,,100,0,11,,,,,4,,,57,100
9508,note_off,,,,,100,0,9,,,,,2,,,66,100
9508,note_off,,,,,100,0,14,,,,,6,,,57,100
9508,note_off,,,,,0,0,15,,,,,7,,,66,100
9568,note_off,,,,,64,0,8,,,,,1,,,69,100
9600,note_on,,,,,92,0,10,,,,,3,,,57,94
9600,note_on,,,,,92,0,9,,,,,2,,,64,94
9600,note_on,,,,,92,0,16,,,,,7,,,45,100
9600,note_on,,,,,0,0,15,,,,,7,,,64,100
9600,note_on,,,,,92,0,15,,,,,7,,,61,100
9600,note_on,,,,,92,0,11,,,,,4,,,45,94
9600,note_on,,,,,92,0,12,,,,,5,,,33,94
9600,note_on,,,,,32,0,8,,,,,1,,,71,94
9600,note_on,,,,,92,0,13,,,,,6,,,61,100
9600,note_on,,,,,0,0,13,,,,,6,,,64,100
9600,note_on,,,,,92,0,14,,,,,6,,,45,100
9664,note_off,,,,,64,0,8,,,,,1,,,71,100
9696,note_on,,,,,32,0,8,,,,,1,,,73,93
9700,note_off,,,,,100,0,11,,,,,4,,,45,100
9700,note_off,,,,,100,0,16,,,,,7,,,45,100
9700,note_off,,,,,100,0,14,,,,,6,,,45,100
9700,note_off,,,,,100,0,10,,,,,3,,,57,100
9700,note_off,,,,,100,0,13,,,,,6,,,61,100
9700,note_off,,,,,0,0,13,,,,,6,,,64,100
9700,note_off,,,,,100,0,9,,,,,2,,,64,100
9700,note_off,,,,,0,0,15,,,,,7,,,64,100
9700,note_off,,,,,100,0,15,,,,,7,,,61,100
9700,note_off,,,,,100,0,12,,,,,5,,,33,100
9760,note_off,,,,,64,0,8,,,,,1,,,73,100
9792,note_on,,,,,0,0,15,,,,,7,,,54,100
9792,note_on,,,,,92,0,15,,,,,7,,,62,100
9792,note_on,,,,,92,0,13,,,,,6,,,62,100
9792,note_on,,,,,0,0,13,,,,,6,,,57,100
9792,note_on,,,,,0,0,13,,,,,6,,,54,100
9792,note_on,,,,,92,0,9,,,,,2,,,62,93
9792,note_on,,,,,32,0,8,,,,,1,,,74,93
9792,note_on,,,,,92,0,10,,,,,3,,,54,93
9792,note_on,,,,,92,0,16,,,,,7,,,50,100
9792,note_on,,,,,92,0,11,,,,,4,,,50,93
9792,note_on,,,,,92,0,14,,,,,6,,,50,100
9792,note_on,,,,,92,0,12,,,,,5,,,38,93
9856,note_off,,,,,64,0,9,,,,,2,,,62,100
9888,note_on,,,,,32,0,9,,,,,2,,,66,92
9892,note_off,,,,,100,0,11,,,,,4,,,50,100
9892,note_off,,,,,100,0,14,,,,,6,,,50,100
9892,note_off,,,,,0,0,15,,,,,7,,,54,100
9892,note_off,,,,,100,0,13,,,,,6,,,62,100
9892,note_off,,,,,100,0,16,,,,,7,,,50,100
9892,note_off,,,,,100,0,10,,,,,3,,,54,100
9892,note_off,,,,,100,0,15,,,,,7,,,62,100
9892,note_off,,,,,0,0,13,,,,,6,,,54,100
9892,note_off,,,,,100,0,8,,,,,1,,,74,100
9892,note_off,,,,,0,0,13,,,,,6,,,57,100
9892,note_off,,,,,100,0,12,,,,,5,,,38,100
9952,note_off,,,,,64,0,9,,,,,2,,,66,100
9984,note_on,,,,,92,0,13,,,,,6,,,62,100
9984,note_on,,,,,92,0,8,,,,,1,,,66,92
9984,note_on,,,,,92,0,10,,,,,3,,,62,92
9984,note_on,,,,,92,0,12,,,,,5,,,45,92
9984,note_on,,,,,92,0,16,,,,,7,,,57,100
9984,note_on,,,,,92,0,14,,,,,6,,,57,100
9984,note_on,,,,,0,0,15,,,,,7,,,66,100
9984,note_on,,,,,92,0,15,,,,,7,,,62,100
9984,note_on,,,,,32,0,9,,,,,2,,,67,92
9984,note_on,,,,,0,0,13,,,,,6,,,66,100
9984,note_on,,,,,92,0,11,,,,,4,,,57,92
10048,note_off,,,,,64,0,9,,,,,2,,,67,100
10080,note_on,,,,,32,0,9,,,,,2,,,69,91
10084,note_off,,,,,100,0,8,,,,,1,,,66,100
10084,note_off,,,,,100,0,12,,,,,5,,,45,100
10084,note_off,,,,,100,0,16,,,,,7,,,57,100
10084,note_off,,,,,0,0,15,,,,,7,,,66,100
10084,note_off,,,,,100,0,15,,,,,7,,,62,100
10084,note_off,,,,,100,0,13,,,,,6,,,62,100
10084,note_off,,,,,100,0,11,,,,,4,,,57,100
10084,note_off,,,,,100,0,14,,,,,6,,,57,100
10084,note_off,,,,,0,0,13,,,,,6,,,66,100
10084,note_off,,,,,100,0,10,,,,,3,,,62,100
10144,note_off,,,,,64,0,9,,,,,2,,,69,100
10176,note_on,,,,,92,0,16,,,,,7,,,45,100
10176,note_on,,,,,92,0,8,,,,,1,,,64,91
10176,note_on,,,,,92,0,11,,,,,4,,,45,91
10176,note_on,,,,,92,0,10,,,,,3,,,57,91
10176,note_on,,,,,92,0,12,,,,,5,,,33,91
10176,note_on,,,,,0,0,13,,,,,6,,,64,100
10176,note_on,,,,,0,0,15,,,,,7,,,64,100
10176,note_on,,,,,92,0,15,,,,,7,,,61,100
10176,note_on,,,,,92,0,14,,,,,6,,,45,100
10176,note_on,,,,,92,0,13,,,,,6,,,61,100
10176,note_on,,,,,32,0,9,,,,,2,,,71,91
10240,note_off,,,,,64,0,9,,,,,2,,,71,100
10272,note_on,,,,,32,0,9,,,,,2,,,73,90
10276,note_off,,,,,100,0,14,,,,,6,,,45,100
10276,note_off,,,,,100,0,11,,,,,4,,,45,100
10276,note_off,,,,,100,0,12,,,,,5,,,33,100
10276,note_off,,,,,100,0,10,,,,,3,,,57,100
10276,note_off,,,,,100,0,16,,,,,7,,,45,100
10276,note_off,,,,,0,0,13,,,,,6,,,64,100
10276,note_off,,,,,100,0,13,,,,,6,,,61,100
10276,note_off,,,,,0,0,15,,,,,7,,,64,100
10276,note_off,,,,,100,0,8,,,,,1,,,64,100
10276,note_off,,,,,100,0,15,,,,,7,,,61,100
10336,note_off,,,,,64,0,9,,,,,2,,,73,100
10368,note_on,,,,,92,0,13,,,,,6,,,54,100
10368,note_on,,,,,92,0,16,,,,,7,,,38,100
10368,note_on,,,,,92,0,10,,,,,3,,,54,90
10368,note_on,,,,,92,0,14,,,,,6,,,38,100
10368,note_on,,,,,0,0,13,,,,,6,,,57,100
10368,note_on,,,,,92,0,8,,,,,1,,,62,90
10368,note_on,,,,,0,0,15,,,,,7,,,62,100
10368,note_on,,,,,92,0,11,,,,,4,,,38,90
10368,note_on,,,,,92,0,15,,,,,7,,,54,100
10368,note_on,,,,,92,0,12,,,,,5,,,38,90
10368,note_on,,,,,32,0,9,,,,,2,,,74,90
10368,note_on,,,,,0,0,13,,,,,6,,,62,100
10752,note_off,,,,,384,0,12,,,,,5,,,38,100
10752,note_off,,,,,384,0,15,,,,,7,,,54,100
10752,note_off,,,,,384,0,9,,,,,2,,,74,100
10752,note_off,,,,,384,0,16,,,,,7,,,38,100
10752,note_off,,,,,0,0,15,,,,,7,,,62,100
10752,note_off,,,,,384,0,10,,,,,3,,,54,100
10752,note_off,,,,,0,0,13,,,,,6,,,62,100
10752,note_off,,,,,384,0,11,,,,,4,,,38,100
10752,note_off,,,,,384,0,13,,,,,6,,,54,100
10752,note_off,,,,,384,0,8,,,,,1,,,62,100
10752,note_off,,,,,0,0,13,,,,,6,,,57,100
10752,note_off,,,,,384,0,14,,,,,6,,,38,100
10752,set_tempo,,,,,10176,1,0,,701754,,,,,,,
10944,note_on,,,,,192,0,14,,,,,6,,,55,100
10944,note_on,,,,,192,0,8,,,,,1,,,79,100
10944,note_on,,,,,192,0,11,,,,,4,,,55,100
10944,note_on,,,,,192,0,12,,,,,5,,,43,100
10944,note_on,,,,,192,0,15,,,,,7,,,71,100
10944,note_on,,,,,0,0,15,,,,,7,,,74,100
10944,note_on,,,,,0,0,15,,,,,7,,,67,100
10944,note_on,,,,,0,0,13,,,,,6,,,67,100
10944,note_on,,,,,0,0,13,,,,,6,,,74,100
10944,note_on,,,,,192,0,13,,,,,6,,,71,100
10944,note_on,,,,,192,0,10,,,,,3,,,71,100
10944,set_tempo,,,,,192,1,0,,526315,,,,,,,
10944,note_on,,,,,192,0,16,,,,,7,,,55,100
11044,note_off,,,,,0,0,13,,,,,6,,,74,100
11044,note_off,,,,,0,0,13,,,,,6,,,67,100
11044,note_off,,,,,100,0,13,,,,,6,,,71,100
11044,note_off,,,,,100,0,8,,,,,1,,,79,100
11044,note_off,,,,,100,0,10,,,,,3,,,71,100
11044,note_off,,,,,100,0,14,,,,,6,,,55,100
11044,note_off,,,,,100,0,11,,,,,4,,,55,100
11044,note_off,,,,,100,0,12,,,,,5,,,43,100
11044,note_off,,,,,100,0,16,,,,,7,,,55,100
11044,note_off,,,,,0,0,15,,,,,7,,,67,100
11044,note_off,,,,,0,0,15,,,,,7,,,74,100
11044,note_off,,,,,100,0,15,,,,,7,,,71,100
11136,note_on,,,,,92,0,12,,,,,5,,,50,100
11136,note_on,,,,,0,0,15,,,,,7,,,71,100
11136,note_on,,,,,92,0,15,,,,,7,,,67,100
11136,note_on,,,,,92,0,11,,,,,4,,,62,100
11136,note_on,,,,,92,0,13,,,,,6,,,67,100
11136,note_on,,,,,0,0,13,,,,,6,,,71,100
11136,note_on,,,,,92,0,14,,,,,6,,,62,100
11136,note_on,,,,,92,0,16,,,,,7,,,62,100
11136,note_on,,,,,92,0,8,,,,,1,,,71,100
11136,note_on,,,,,92,0,10,,,,,3,,,67,100
11236,note_off,,,,,100,0,16,,,,,7,,,62,100
11236,note_off,,,,,100,0,12,,,,,5,,,50,100
11236,note_off,,,,,100,0,11,,,,,4,,,62,100
11236,note_off,,,,,0,0,15,,,,,7,,,71,100
11236,note_off,,,,,0,0,13,,,,,6,,,71,100
11236,note_off,,,,,100,0,8,,,,,1,,,71,100
11236,note_off,,,,,100,0,10,,,,,3,,,67,100
11236,note_off,,,,,100,0,14,,,,,6,,,62,100
11236,note_off,,,,,100,0,15,,,,,7,,,67,100
11236,note_off,,,,,100,0,13,,,,,6,,,67,100
11328,note_on,,,,,92,0,15,,,,,7,,,66,100
11328,note_on,,,,,92,0,16,,,,,7,,,50,100
11328,note_on,,,,,0,0,13,,,,,6,,,69,100
11328,note_on,,,,,92,0,10,,,,,3,,,66,100
11328,note_on,,,,,92,0,13,,,,,6,,,66,100
11328,note_on,,,,,92,0,8,,,,,1,,,69,100
11328,note_on,,,,,92,0,11,,,,,4,,,50,100
11328,note_on,,,,,92,0,12,,,,,5,,,38,100
11328,note_on,,,,,0,0,15,,,,,7,,,69,100
11328,note_on,,,,,92,0,14,,,,,6,,,50,100
11428,note_off,,,,,100,0,15,,,,,7,,,66,100
11428,note_off,,,,,100,0,12,,,,,5,,,38,100
11428,note_off,,,,,0,0,15,,,,,7,,,69,100
11428,note_off,,,,,100,0,8,,,,,1,,,69,100
11428,note_off,,,,,100,0,11,,,,,4,,,50,100
11428,note_off,,,,,100,0,10,,,,,3,,,66,100
11428,note_off,,,,,100,0,14,,,,,6,,,50,100
11428,note_off,,,,,100,0,16,,,,,7,,,50,100
11428,note_off,,,,,0,0,13,,,,,6,,,69,100
11428,note_off,,,,,100,0,13,,,,,6,,,66,100
11520,note_on,,,,,92,0,11,,,,,4,,,43,100
11520,note_on,,,,,0,0,15,,,,,7,,,62,100
11520,note_on,,,,,92,0,8,,,,,1,,,67,100
11520,note_on,,,,,768,0,9,,,,,2,,,79,100
11520,note_on,,,,,92,0,10,,,,,3,,,59,100
11520,note_on,,,,,92,0,16,,,,,7,,,43,100
11520,note_on,,,,,92,0,15,,,,,7,,,59,100
11520,note_on,,,,,92,0,12,,,,,5,,,31,100
11520,note_on,,,,,0,0,15,,,,,7,,,67,100
11520,note_on,,,,,92,0,14,,,,,6,,,43,100
11520,note_on,,,,,92,0,13,,,,,6,,,59,100
11520,note_on,,,,,0,0,13,,,,,6,,,62,100
11520,note_on,,,,,0,0,13,,,,,6,,,67,100
11584,note_off,,,,,64,0,8,,,,,1,,,67,100
11616,note_on,,,,,32,0,8,,,,,1,,,71,100
11620,note_off,,,,,100,0,15,,,,,7,,,59,100
11620,note_off,,,,,100,0,14,,,,,6,,,43,100
11620,note_off,,,,,100,0,12,,,,,5,,,31,100
11620,note_off,,,,,100,0,10,,,,,3,,,59,100
11620,note_off,,,,,0,0,13,,,,,6,,,62,100
11620,note_off,,,,,100,0,16,,,,,7,,,43,100
11620,note_off,,,,,100,0,11,,,,,4,,,43,100
11620,note_off,,,,,0,0,15,,,,,7,,,62,100
11620,note_off,,,,,100,0,13,,,,,6,,,59,100
11620,note_off,,,,,0,0,13,,,,,6,,,67,100
11620,note_off,,,,,0,0,15,,,,,7,,,67,100
11620,note_off,,,,,100,0,9,,,,,2,,,79,100
11680,note_off,,,,,64,0,8,,,,,1,,,71,100
11712,note_on,,,,,92,0,16,,,,,7,,,50,100
11712,note_on,,,,,92,0,10,,,,,3,,,67,100
11712,note_on,,,,,0,0,13,,,,,6,,,71,100
11712,note_on,,,,,92,0,13,,,,,6,,,67,100
11712,note_on,,,,,32,0,8,,,,,1,,,72,100
11712,note_on,,,,,92,0,14,,,,,6,,,50,100
11712,note_on,,,,,92,0,9,,,,,2,,,71,100
11712,note_on,,,,,0,0,15,,,,,7,,,71,100
11712,note_on,,,,,92,0,11,,,,,4,,,50,100
11712,note_on,,,,,92,0,15,,,,,7,,,67,100
11712,note_on,,,,,92,0,12,,,,,5,,,38,100
11776,note_off,,,,,64,0,8,,,,,1,,,72,100
11808,note_on,,,,,32,0,8,,,,,1,,,74,100
11812,note_off,,,,,100,0,12,,,,,5,,,38,100
11812,note_off,,,,,100,0,9,,,,,2,,,71,100
11812,note_off,,,,,100,0,14,,,,,6,,,50,100
11812,note_off,,,,,0,0,13,,,,,6,,,71,100
11812,note_off,,,,,100,0,11,,,,,4,,,50,100
11812,note_off,,,,,100,0,10,,,,,3,,,67,100
11812,note_off,,,,,100,0,13,,,,,6,,,67,100
11812,note_off,,,,,100,0,15,,,,,7,,,67,100
11812,note_off,,,,,0,0,15,,,,,7,,,71,100
11812,note_off,,,,,100,0,16,,,,,7,,,50,100
11872,note_off,,,,,64,0,8,,,,,1,,,74,100
11904,note_on,,,,,32,0,8,,,,,1,,,76,100
11904,note_on,,,,,92,0,10,,,,,3,,,62,100
11904,note_on,,,,,92,0,9,,,,,2,,,69,100
11904,note_on,,,,,0,0,15,,,,,7,,,69,100
11904,note_on,,,,,92,0,15,,,,,7,,,66,100
11904,note_on,,,,,92,0,14,,,,,6,,,38,100
11904,note_on,,,,,92,0,13,,,,,6,,,66,100
11904,note_on,,,,,0,0,13,,,,,6,,,69,100
11904,note_on,,,,,92,0,11,,,,,4,,,38,100
11904,note_on,,,,,92,0,12,,,,,5,,,38,100
11904,note_on,,,,,92,0,16,,,,,7,,,38,100
11968,note_off,,,,,64,0,8,,,,,1,,,76,100
12000,note_on,,,,,32,0,8,,,,,1,,,78,100
12004,note_off,,,,,100,0,16,,,,,7,,,38,100
12004,note_off,,,,,100,0,10,,,,,3,,,62,100
12004,note_off,,,,,100,0,9,,,,,2,,,69,100
12004,note_off,,,,,100,0,15,,,,,7,,,66,100
12004,note_off,,,,,0,0,15,,,,,7,,,69,100
12004,note_off,,,,,100,0,13,,,,,6,,,66,100
12004,note_off,,,,,100,0,11,,,,,4,,,38,100
12004,note_off,,,,,0,0,13,,,,,6,,,69,100
12004,note_off,,,,,100,0,12,,,,,5,,,38,100
12004,note_off,,,,,100,0,14,,,,,6,,,38,100
12064,note_off,,,,,64,0,8,,,,,1,,,78,100
12096,note_on,,,,,92,0,12,,,,,5,,,43,100
12096,note_on,,,,,0,0,15,,,,,7,,,67,100
12096,note_on,,,,,92,0,11,,,,,4,,,55,100
12096,note_on,,,,,92,0,13,,,,,6,,,71,100
12096,note_on,,,,,32,0,8,,,,,1,,,79,100
12096,note_on,,,,,92,0,14,,,,,6,,,55,100
12096,note_on,,,,,0,0,15,,,,,7,,,74,100
12096,note_on,,,,,0,0,13,,,,,6,,,74,100
12096,note_on,,,,,0,0,13,,,,,6,,,67,100
12096,note_on,,,,,92,0,9,,,,,2,,,67,100
12096,note_on,,,,,92,0,10,,,,,3,,,59,100
12096,note_on,,,,,92,0,16,,,,,7,,,55,100
12096,note_on,,,,,92,0,15,,,,,7,,,71,100
12160,note_off,,,,,64,0,9,,,,,2,,,67,100
12192,note_on,,,,,32,0,9,,,,,2,,,71,100
12196,note_off,,,,,100,0,14,,,,,6,,,55,100
12196,note_off,,,,,100,0,10,,,,,3,,,59,100
12196,note_off,,,,,0,0,13,,,,,6,,,67,100
12196,note_off,,,,,0,0,13,,,,,6,,,74,100
12196,note_off,,,,,100,0,16,,,,,7,,,55,100
12196,note_off,,,,,100,0,13,,,,,6,,,71,100
12196,note_off,,,,,100,0,12,,,,,5,,,43,100
12196,note_off,,,,,0,0,15,,,,,7,,,67,100
12196,note_off,,,,,0,0,15,,,,,7,,,74,100
12196,note_off,,,,,100,0,15,,,,,7,,,71,100
12196,note_off,,,,,100,0,8,,,,,1,,,79,100
12196,note_off,,,,,100,0,11,,,,,4,,,55,100
12256,note_off,,,,,64,0,9,,,,,2,,,71,100
12288,note_on,,,,,92,0,8,,,,,1,,,71,99
12288,note_on,,,,,92,0,12,,,,,5,,,50,99
12288,note_on,,,,,92,0,10,,,,,3,,,67,99
12288,note_on,,,,,0,0,13,,,,,6,,,71,100
12288,note_on,,,,,32,0,9,,,,,2,,,72,99
12288,note_on,,,,,92,0,15,,,,,7,,,67,100
12288,note_on,,,,,92,0,16,,,,,7,,,62,100
12288,note_on,,,,,92,0,11,,,,,4,,,62,99
12288,note_on,,,,,92,0,13,,,,,6,,,67,100
12288,note_on,,,,,92,0,14,,,,,6,,,62,100
12288,note_on,,,,,0,0,15,,,,,7,,,71,100
12352,note_off,,,,,64,0,9,,,,,2,,,72,100
12384,note_on,,,,,32,0,9,,,,,2,,,74,98
12388,note_off,,,,,100,0,15,,,,,7,,,67,100
12388,note_off,,,,,100,0,11,,,,,4,,,62,100
12388,note_off,,,,,100,0,8,,,,,1,,,71,100
12388,note_off,,,,,100,0,12,,,,,5,,,50,100
12388,note_off,,,,,0,0,13,,,,,6,,,71,100
12388,note_off,,,,,100,0,16,,,,,7,,,62,100
12388,note_off,,,,,100,0,10,,,,,3,,,67,100
12388,note_off,,,,,0,0,15,,,,,7,,,71,100
12388,note_off,,,,,100,0,13,,,,,6,,,67,100
12388,note_off,,,,,100,0,14,,,,,6,,,62,100
12448,note_off,,,,,64,0,9,,,,,2,,,74,100
12480,note_on,,,,,0,0,15,,,,,7,,,69,100
12480,note_on,,,,,92,0,13,,,,,6,,,66,100
12480,note_on,,,,,0,0,13,,,,,6,,,69,100
12480,note_on,,,,,92,0,15,,,,,7,,,66,100
12480,note_on,,,,,92,0,11,,,,,4,,,50,97
12480,note_on,,,,,92,0,16,,,,,7,,,50,100
12480,note_on,,,,,92,0,8,,,,,1,,,69,97
12480,note_on,,,,,92,0,14,,,,,6,,,50,100
12480,note_on,,,,,32,0,9,,,,,2,,,76,97
12480,note_on,,,,,92,0,12,,,,,5,,,38,97
12480,note_on,,,,,92,0,10,,,,,3,,,62,97
12544,note_off,,,,,64,0,9,,,,,2,,,76,100
12576,note_on,,,,,32,0,9,,,,,2,,,78,96
12580,note_off,,,,,100,0,8,,,,,1,,,69,100
12580,note_off,,,,,100,0,16,,,,,7,,,50,100
12580,note_off,,,,,0,0,15,,,,,7,,,69,100
12580,note_off,,,,,100,0,13,,,,,6,,,66,100
12580,note_off,,,,,100,0,14,,,,,6,,,50,100
12580,note_off,,,,,100,0,10,,,,,3,,,62,100
12580,note_off,,,,,100,0,12,,,,,5,,,38,100
12580,note_off,,,,,100,0,15,,,,,7,,,66,100
12580,note_off,,,,,0,0,13,,,,,6,,,69,100
12580,note_off,,,,,100,0,11,,,,,4,,,50,100
12640,note_off,,,,,64,0,9,,,,,2,,,78,100
12672,note_on,,,,,92,0,14,,,,,6,,,43,100
12672,note_on,,,,,92,0,16,,,,,7,,,43,100
12672,note_on,,,,,0,0,13,,,,,6,,,67,100
12672,note_on,,,,,92,0,12,,,,,5,,,31,95
12672,note_on,,,,,92,0,8,,,,,1,,,67,95
12672,note_on,,,,,0,0,13,,,,,6,,,62,100
12672,note_on,,,,,92,0,13,,,,,6,,,59,100
12672,note_on,,,,,92,0,10,,,,,3,,,59,95
12672,note_on,,,,,32,0,9,,,,,2,,,79,95
12672,note_on,,,,,92,0,15,,,,,7,,,59,100
12672,note_on,,,,,0,0,15,,,,,7,,,62,100
12672,note_on,,,,,0,0,15,,,,,7,,,67,100
12672,note_on,,,,,92,0,11,,,,,4,,,43,95
12736,note_off,,,,,64,0,8,,,,,1,,,67,100
12768,note_on,,,,,32,0,8,,,,,1,,,71,94
12772,note_off,,,,,0,0,13,,,,,6,,,62,100
12772,note_off,,,,,0,0,15,,,,,7,,,62,100
12772,note_off,,,,,0,0,15,,,,,7,,,67,100
12772,note_off,,,,,100,0,13,,,,,6,,,59,100
12772,note_off,,,,,100,0,16,,,,,7,,,43,100
12772,note_off,,,,,0,0,13,,,,,6,,,67,100
12772,note_off,,,,,100,0,15,,,,,7,,,59,100
12772,note_off,,,,,100,0,11,,,,,4,,,43,100
12772,note_off,,,,,100,0,14,,,,,6,,,43,100
12772,note_off,,,,,100,0,10,,,,,3,,,59,100
12772,note_off,,,,,100,0,9,,,,,2,,,79,100
12772,note_off,,,,,100,0,12,,,,,5,,,31,100
12832,note_off,,,,,64,0,8,,,,,1,,,71,100
12864,note_on,,,,,92,0,16,,,,,7,,,50,100
12864,note_on,,,,,32,0,8,,,,,1,,,72,93
12864,note_on,,,,,92,0,13,,,,,6,,,67,100
12864,note_on,,,,,0,0,13,,,,,6,,,71,100
12864,note_on,,,,,92,0,14,,,,,6,,,50,100
12864,note_on,,,,,92,0,12,,,,,5,,,38,93
12864,note_on,,,,,92,0,10,,,,,3,,,67,93
12864,note_on,,,,,92,0,15,,,,,7,,,67,100
12864,note_on,,,,,0,0,15,,,,,7,,,71,100
12864,note_on,,,,,92,0,11,,,,,4,,,50,93
12864,note_on,,,,,92,0,9,,,,,2,,,71,93
12928,note_off,,,,,64,0,8,,,,,1,,,72,100
12960,note_on,,,,,32,0,8,,,,,1,,,74,92
12964,note_off,,,,,100,0,10,,,,,3,,,67,100
12964,note_off,,,,,100,0,11,,,,,4,,,50,100
12964,note_off,,,,,100,0,12,,,,,5,,,38,100
12964,note_off,,,,,100,0,16,,,,,7,,,50,100
12964,note_off,,,,,100,0,13,,,,,6,,,67,100
12964,note_off,,,,,100,0,9,,,,,2,,,71,100
12964,note_off,,,,,0,0,13,,,,,6,,,71,100
12964,note_off,,,,,100,0,14,,,,,6,,,50,100
12964,note_off,,,,,100,0,15,,,,,7,,,67,100
12964,note_off,,,,,0,0,15,,,,,7,,,71,100
13024,note_off,,,,,64,0,8,,,,,1,,,74,100
13056,note_on,,,,,92,0,16,,,,,7,,,38,100
13056,note_on,,,,,92,0,10,,,,,3,,,62,91
13056,note_on,,,,,92,0,13,,,,,6,,,66,100
13056,note_on,,,,,0,0,13,,,,,6,,,69,100
13056,note_on,,,,,92,0,12,,,,,5,,,38,91
13056,note_on,,,,,92,0,15,,,,,7,,,66,100
13056,note_on,,,,,0,0,15,,,,,7,,,69,100
13056,note_on,,,,,32,0,8,,,,,1,,,76,91
13056,note_on,,,,,92,0,14,,,,,6,,,38,100
13056,note_on,,,,,92,0,11,,,,,4,,,38,91
13056,note_on,,,,,92,0,9,,,,,2,,,69,91
13120,note_off,,,,,64,0,8,,,,,1,,,76,100
13152,note_on,,,,,32,0,8,,,,,1,,,78,91
13156,note_off,,,,,0,0,15,,,,,7,,,69,100
13156,note_off,,,,,100,0,15,,,,,7,,,66,100
13156,note_off,,,,,100,0,10,,,,,3,,,62,100
13156,note_off,,,,,100,0,11,,,,,4,,,38,100
13156,note_off,,,,,100,0,14,,,,,6,,,38,100
13156,note_off,,,,,100,0,9,,,,,2,,,69,100
13156,note_off,,,,,100,0,12,,,,,5,,,38,100
13156,note_off,,,,,100,0,16,,,,,7,,,38,100
13156,note_off,,,,,0,0,13,,,,,6,,,69,100
13156,note_off,,,,,100,0,13,,,,,6,,,66,100
13216,note_off,,,,,64,0,8,,,,,1,,,78,100
13248,note_on,,,,,92,0,15,,,,,7,,,59,100
13248,note_on,,,,,92,0,11,,,,,4,,,43,95
13248,note_on,,,,,92,0,16,,,,,7,,,43,100
13248,note_on,,,,,92,0,13,,,,,6,,,59,100
13248,note_on,,,,,0,0,13,,,,,6,,,67,100
13248,note_on,,,,,92,0,12,,,,,5,,,31,95
13248,note_on,,,,,0,0,15,,,,,7,,,62,100
13248,note_on,,,,,32,0,8,,,,,1,,,79,95
13248,note_on,,,,,92,0,10,,,,,3,,,59,95
13248,note_on,,,,,92,0,9,,,,,2,,,67,95
13248,note_on,,,,,92,0,14,,,,,6,,,43,100
13248,note_on,,,,,0,0,15,,,,,7,,,67,100
13248,note_on,,,,,0,0,13,,,,,6,,,62,100
13312,note_off,,,,,64,0,8,,,,,1,,,79,100
13344,note_on,,,,,32,0,8,,,,,1,,,74,90
13348,note_off,,,,,100,0,14,,,,,6,,,43,100
13348,note_off,,,,,100,0,10,,,,,3,,,59,100
13348,note_off,,,,,100,0,11,,,,,4,,,43,100
13348,note_off,,,,,100,0,12,,,,,5,,,31,100
13348,note_off,,,,,100,0,16,,,,,7,,,43,100
13408,note_off,,,,,64,0,8,,,,,1,,,74,100
13440,note_on,,,,,92,0,16,,,,,7,,,55,100
13440,note_on,,,,,92,0,10,,,,,3,,,62,90
13440,note_on,,,,,92,0,11,,,,,4,,,55,90
13440,note_on,,,,,32,0,8,,,,,1,,,71,90
13440,note_on,,,,,92,0,14,,,,,6,,,55,100
13440,note_on,,,,,92,0,12,,,,,5,,,43,90
13440,note_off,,,,,192,0,9,,,,,2,,,67,100
13536,note_on,,,,,96,0,9,,,,,2,,,74,90
13540,note_off,,,,,100,0,12,,,,,5,,,43,100
13540,note_off,,,,,100,0,11,,,,,4,,,55,100
13540,note_off,,,,,100,0,16,,,,,7,,,55,100
13540,note_off,,,,,100,0,14,,,,,6,,,55,100
13540,note_off,,,,,100,0,10,,,,,3,,,62,100
13600,note_off,,,,,64,0,9,,,,,2,,,74,100
13632,note_off,,,,,0,0,13,,,,,6,,,62,100
13632,note_off,,,,,0,0,13,,,,,6,,,67,100
13632,note_off,,,,,384,0,13,,,,,6,,,59,100
13632,note_on,,,,,92,0,16,,,,,7,,,43,100
13632,note_off,,,,,384,0,15,,,,,7,,,59,100
13632,note_off,,,,,0,0,15,,,,,7,,,62,100
13632,note_on,,,,,92,0,12,,,,,5,,,31,90
13632,note_on,,,,,92,0,11,,,,,4,,,43,90
13632,note_on,,,,,92,0,14,,,,,6,,,43,100
13632,note_off,,,,,0,0,15,,,,,7,,,67,100
13632,note_on,,,,,92,0,10,,,,,3,,,59,90
13632,note_on,,,,,32,0,9,,,,,2,,,79,90
13632,note_off,,,,,192,0,8,,,,,1,,,71,100
13696,note_off,,,,,64,0,9,,,,,2,,,79,100
13728,note_on,,,,,32,0,9,,,,,2,,,83,90
13728,note_on,,,,,96,0,8,,,,,1,,,79,90
13732,note_off,,,,,100,0,11,,,,,4,,,43,100
13732,note_off,,,,,100,0,14,,,,,6,,,43,100
13732,note_off,,,,,100,0,16,,,,,7,,,43,100
13732,note_off,,,,,100,0,12,,,,,5,,,31,100
13732,note_off,,,,,100,0,10,,,,,3,,,59,100
13792,note_off,,,,,64,0,9,,,,,2,,,83,100
13792,note_off,,,,,64,0,8,,,,,1,,,79,100
13824,note_on,,,,,92,0,14,,,,,6,,,50,100
13824,note_on,,,,,0,0,15,,,,,7,,,69,100
13824,note_on,,,,,192,0,15,,,,,7,,,74,100
13824,note_on,,,,,92,0,10,,,,,3,,,62,95
13824,note_on,,,,,0,0,13,,,,,6,,,69,100
13824,note_on,,,,,0,0,15,,,,,7,,,66,100
13824,note_on,,,,,192,0,13,,,,,6,,,74,100
13824,note_on,,,,,32,0,8,,,,,1,,,81,95
13824,note_on,,,,,32,0,9,,,,,2,,,78,95
13824,note_on,,,,,92,0,12,,,,,5,,,38,95
13824,note_on,,,,,92,0,16,,,,,7,,,50,100
13824,note_on,,,,,0,0,13,,,,,6,,,66,100
13824,note_on,,,,,92,0,11,,,,,4,,,50,95
13888,note_off,,,,,64,0,8,,,,,1,,,81,100
13920,note_on,,,,,32,0,8,,,,,1,,,78,90
13924,note_off,,,,,100,0,16,,,,,7,,,50,100
13924,note_off,,,,,100,0,14,,,,,6,,,50,100
13924,note_off,,,,,100,0,11,,,,,4,,,50,100
13924,note_off,,,,,100,0,10,,,,,3,,,62,100
13924,note_off,,,,,100,0,12,,,,,5,,,38,100
13984,note_off,,,,,64,0,8,,,,,1,,,78,100
14012,note_off,,,,,188,0,15,,,,,7,,,74,100
14012,note_off,,,,,188,0,13,,,,,6,,,74,100
14016,note_on,,,,,4,0,15,,,,,7,,,72,100
14016,note_on,,,,,92,0,10,,,,,3,,,66,90
14016,note_off,,,,,192,0,9,,,,,2,,,78,100
14016,note_on,,,,,92,0,14,,,,,6,,,62,100
14016,note_on,,,,,92,0,16,,,,,7,,,62,100
14016,note_on,,,,,92,0,12,,,,,5,,,50,90
14016,note_on,,,,,4,0,13,,,,,6,,,72,100
14016,note_on,,,,,92,0,11,,,,,4,,,62,90
14016,note_on,,,,,32,0,8,,,,,1,,,72,90
14112,note_on,,,,,96,0,9,,,,,2,,,69,90
14116,note_off,,,,,100,0,12,,,,,5,,,50,100
14116,note_off,,,,,100,0,16,,,,,7,,,62,100
14116,note_off,,,,,100,0,10,,,,,3,,,66,100
14116,note_off,,,,,100,0,11,,,,,4,,,62,100
14116,note_off,,,,,100,0,14,,,,,6,,,62,100
14176,note_off,,,,,64,0,9,,,,,2,,,69,100
14208,note_on,,,,,92,0,11,,,,,4,,,50,90
14208,note_off,,,,,0,0,15,,,,,7,,,69,100
14208,note_off,,,,,192,0,8,,,,,1,,,72,100
14208,note_on,,,,,92,0,12,,,,,5,,,38,90
14208,note_on,,,,,92,0,16,,,,,7,,,50,100
14208,note_off,,,,,192,0,13,,,,,6,,,66,100
14208,note_off,,,,,0,0,13,,,,,6,,,69,100
14208,note_on,,,,,92,0,10,,,,,3,,,66,90
14208,note_on,,,,,92,0,14,,,,,6,,,50,100
14208,note_on,,,,,32,0,9,,,,,2,,,74,90
14208,note_off,,,,,192,0,15,,,,,7,,,66,100
14272,note_off,,,,,64,0,15,,,,,7,,,72,100
14272,note_off,,,,,64,0,13,,,,,6,,,72,100
14272,note_off,,,,,64,0,9,,,,,2,,,74,100
14304,note_on,,,,,32,0,9,,,,,2,,,78,90
14304,note_on,,,,,96,0,8,,,,,1,,,81,90
14308,note_off,,,,,100,0,16,,,,,7,,,50,100
14308,note_off,,,,,100,0,11,,,,,4,,,50,100
14308,note_off,,,,,100,0,12,,,,,5,,,38,100
14308,note_off,,,,,100,0,10,,,,,3,,,66,100
14308,note_off,,,,,100,0,14,,,,,6,,,50,100
14368,note_off,,,,,64,0,8,,,,,1,,,81,100
14368,note_off,,,,,64,0,9,,,,,2,,,78,100
14400,note_on,,,,,92,0,10,,,,,3,,,62,90
14400,note_on,,,,,92,0,16,,,,,7,,,43,100
14400,note_on,,,,,0,0,15,,,,,7,,,67,100
14400,note_on,,,,,92,0,14,,,,,6,,,43,100
14400,note_on,,,,,92,0,11,,,,,4,,,43,90
14400,note_on,,,,,128,0,15,,,,,7,,,71,100
14400,note_on,,,,,32,0,8,,,,,1,,,71,90
14400,note_on,,,,,92,0,12,,,,,5,,,31,90
14400,note_on,,,,,0,0,15,,,,,7,,,62,100
14400,note_on,,,,,0,0,13,,,,,6,,,62,100
14400,note_on,,,,,32,0,9,,,,,2,,,79,90
14400,note_on,,,,,128,0,13,,,,,6,,,71,100
14400,note_on,,,,,0,0,13,,,,,6,,,67,100
14464,note_off,,,,,64,0,8,,,,,1,,,71,100
14496,note_on,,,,,32,0,8,,,,,1,,,67,91
14500,note_off,,,,,100,0,12,,,,,5,,,31,100
14500,note_off,,,,,100,0,10,,,,,3,,,62,100
14500,note_off,,,,,100,0,16,,,,,7,,,43,100
14500,note_off,,,,,100,0,14,,,,,6,,,43,100
14500,note_off,,,,,100,0,11,,,,,4,,,43,100
14560,note_off,,,,,64,0,8,,,,,1,,,67,100
14592,note_on,,,,,92,0,12,,,,,5,,,43,92
14592,note_on,,,,,92,0,16,,,,,7,,,55,100
14592,note_on,,,,,32,0,8,,,,,1,,,71,92
14592,note_on,,,,,92,0,14,,,,,6,,,55,100
14592,note_on,,,,,92,0,10,,,,,3,,,62,92
14592,note_on,,,,,92,0,11,,,,,4,,,55,92
14592,note_off,,,,,192,0,9,,,,,2,,,79,100
14656,note_off,,,,,64,0,8,,,,,1,,,71,100
14688,note_on,,,,,96,0,9,,,,,2,,,71,93
14688,note_on,,,,,32,0,8,,,,,1,,,74,93
14692,note_off,,,,,100,0,12,,,,,5,,,43,100
14692,note_off,,,,,100,0,10,,,,,3,,,62,100
14692,note_off,,,,,100,0,11,,,,,4,,,55,100
14692,note_off,,,,,100,0,16,,,,,7,,,55,100
14692,note_off,,,,,100,0,14,,,,,6,,,55,100
14752,note_off,,,,,64,0,9,,,,,2,,,71,100
14752,note_off,,,,,64,0,8,,,,,1,,,74,100
14784,note_off,,,,,0,0,13,,,,,6,,,67,100
14784,note_off,,,,,0,0,13,,,,,6,,,62,100
14784,note_off,,,,,384,0,13,,,,,6,,,71,100
14784,note_on,,,,,32,0,8,,,,,1,,,79,94
14784,note_on,,,,,92,0,12,,,,,5,,,31,94
14784,note_off,,,,,0,0,15,,,,,7,,,67,100
14784,note_on,,,,,92,0,10,,,,,3,,,71,94
14784,note_off,,,,,384,0,15,,,,,7,,,71,100
14784,note_on,,,,,32,0,9,,,,,2,,,74,94
14784,note_on,,,,,92,0,11,,,,,4,,,43,94
14784,note_off,,,,,0,0,15,,,,,7,,,62,100
14784,note_on,,,,,92,0,16,,,,,7,,,43,100
14784,note_on,,,,,92,0,14,,,,,6,,,43,100
14848,note_off,,,,,64,0,9,,,,,2,,,74,100
14848,note_off,,,,,64,0,8,,,,,1,,,79,100
14880,note_on,,,,,32,0,9,,,,,2,,,79,95
14880,note_on,,,,,32,0,8,,,,,1,,,74,95
14884,note_off,,,,,100,0,14,,,,,6,,,43,100
14884,note_off,,,,,100,0,12,,,,,5,,,31,100
14884,note_off,,,,,100,0,11,,,,,4,,,43,100
14884,note_off,,,,,100,0,16,,,,,7,,,43,100
14884,note_off,,,,,100,0,10,,,,,3,,,71,100
14944,note_off,,,,,64,0,8,,,,,1,,,74,100
14944,note_off,,,,,64,0,9,,,,,2,,,79,100
14976,note_on,,,,,32,0,8,,,,,1,,,71,96
14976,note_on,,,,,0,0,13,,,,,6,,,67,100
14976,note_on,,,,,92,0,12,,,,,5,,,31,96
14976,note_on,,,,,0,0,15,,,,,7,,,62,100
14976,note_on,,,,,0,0,15,,,,,7,,,67,100
14976,note_on,,,,,0,0,13,,,,,6,,,62,100
14976,note_on,,,,,92,0,11,,,,,4,,,43,96
14976,note_on,,,,,92,0,10,,,,,3,,,67,96
14976,note_on,,,,,192,0,15,,,,,7,,,59,100
14976,note_on,,,,,92,0,16,,,,,7,,,43,100
14976,note_on,,,,,32,0,9,,,,,2,,,74,96
14976,note_on,,,,,92,0,14,,,,,6,,,43,100
14976,note_on,,,,,192,0,13,,,,,6,,,59,100
15040,note_off,,,,,64,0,8,,,,,1,,,71,100
15072,note_on,,,,,32,0,8,,,,,1,,,67,97
15076,note_off,,,,,100,0,14,,,,,6,,,43,100
15076,note_off,,,,,100,0,12,,,,,5,,,31,100
15076,note_off,,,,,100,0,11,,,,,4,,,43,100
15076,note_off,,,,,100,0,10,,,,,3,,,67,100
15076,note_off,,,,,100,0,16,,,,,7,,,43,100
15136,note_off,,,,,64,0,8,,,,,1,,,67,100
15168,note_on,,,,,32,0,8,,,,,1,,,71,98
15168,note_on,,,,,92,0,14,,,,,6,,,55,100
15168,note_on,,,,,92,0,12,,,,,5,,,43,98
15168,note_off,,,,,192,0,9,,,,,2,,,74,100
15168,note_on,,,,,92,0,16,,,,,7,,,55,100
15168,note_on,,,,,92,0,11,,,,,4,,,55,98
15168,note_on,,,,,92,0,10,,,,,3,,,67,98
15232,note_off,,,,,64,0,8,,,,,1,,,71,100
15264,note_on,,,,,32,0,8,,,,,1,,,74,99
15264,note_on,,,,,96,0,9,,,,,2,,,71,99
15268,note_off,,,,,100,0,14,,,,,6,,,55,100
15268,note_off,,,,,100,0,16,,,,,7,,,55,100
15268,note_off,,,,,100,0,12,,,,,5,,,43,100
15268,note_off,,,,,100,0,10,,,,,3,,,67,100
15268,note_off,,,,,100,0,11,,,,,4,,,55,100
15328,note_off,,,,,64,0,9,,,,,2,,,71,100
15328,note_off,,,,,64,0,8,,,,,1,,,74,100
15360,note_on,,,,,92,0,10,,,,,3,,,71,100
15360,note_on,,,,,92,0,11,,,,,4,,,43,100
15360,note_off,,,,,0,0,13,,,,,6,,,67,100
15360,note_on,,,,,32,0,8,,,,,1,,,79,100
15360,note_off,,,,,0,0,13,,,,,6,,,62,100
15360,note_off,,,,,384,0,13,,,,,6,,,59,100
15360,note_on,,,,,32,0,9,,,,,2,,,76,100
15360,note_on,,,,,92,0,16,,,,,7,,,43,100
15360,note_off,,,,,384,0,15,,,,,7,,,59,100
15360,note_off,,,,,0,0,15,,,,,7,,,62,100
15360,note_off,,,,,0,0,15,,,,,7,,,67,100
15360,note_on,,,,,92,0,14,,,,,6,,,43,100
15360,note_on,,,,,92,0,12,,,,,5,,,31,100
15424,note_off,,,,,64,0,9,,,,,2,,,76,100
15424,note_off,,,,,64,0,8,,,,,1,,,79,100
15456,note_on,,,,,32,0,8,,,,,1,,,83,101
15456,note_on,,,,,32,0,9,,,,,2,,,79,101
15460,note_off,,,,,100,0,14,,,,,6,,,43,100
15460,note_off,,,,,100,0,16,,,,,7,,,43,100
15460,note_off,,,,,100,0,12,,,,,5,,,31,100
15460,note_off,,,,,100,0,10,,,,,3,,,71,100
15460,note_off,,,,,100,0,11,,,,,4,,,43,100
15520,note_off,,,,,64,0,8,,,,,1,,,83,100
15520,note_off,,,,,64,0,9,,,,,2,,,79,100
15552,note_on,,,,,92,0,12,,,,,5,,,33,92
15552,note_on,,,,,0,0,13,,,,,6,,,64,100
15552,note_on,,,,,0,0,15,,,,,7,,,61,100
15552,note_on,,,,,92,0,10,,,,,3,,,69,92
15552,note_on,,,,,92,0,16,,,,,7,,,45,100
15552,note_on,,,,,92,0,14,,,,,6,,,45,100
15552,note_on,,,,,192,0,15,,,,,7,,,69,100
15552,note_on,,,,,92,0,11,,,,,4,,,45,92
15552,note_on,,,,,32,0,9,,,,,2,,,76,92
15552,note_on,,,,,0,0,13,,,,,6,,,61,100
15552,note_on,,,,,0,0,15,,,,,7,,,64,100
15552,note_on,,,,,192,0,13,,,,,6,,,69,100
15552,note_on,,,,,32,0,8,,,,,1,,,73,92
15740,note_off,,,,,188,0,8,,,,,1,,,73,100
15744,note_on,,,,,4,0,8,,,,,1,,,71,92
15808,note_off,,,,,256,0,10,,,,,3,,,69,100
15808,note_off,,,,,256,0,9,,,,,2,,,76,100
15932,note_off,,,,,188,0,8,,,,,1,,,71,100
15936,note_on,,,,,4,0,8,,,,,1,,,69,93
16036,note_off,,,,,100,0,8,,,,,1,,,69,100
16128,note_on,,,,,320,0,10,,,,,3,,,69,94
16128,note_on,,,,,320,0,9,,,,,2,,,73,94
16128,note_on,,,,,92,0,8,,,,,1,,,76,94
16316,note_off,,,,,188,0,9,,,,,2,,,73,100
16316,note_off,,,,,188,0,8,,,,,1,,,76,100
16320,note_on,,,,,4,0,8,,,,,1,,,74,95
16320,note_on,,,,,4,0,9,,,,,2,,,71,95
16508,note_off,,,,,188,0,8,,,,,1,,,74,100
16508,note_off,,,,,188,0,9,,,,,2,,,71,100
16512,note_on,,,,,4,0,8,,,,,1,,,73,96
16512,note_on,,,,,4,0,9,,,,,2,,,69,96
16588,note_off,,,,,1036,0,15,,,,,7,,,61,100
16588,note_off,,,,,0,0,15,,,,,7,,,64,100
16588,note_off,,,,,0,0,15,,,,,7,,,69,100
16588,note_off,,,,,1036,0,12,,,,,5,,,33,100
16588,note_off,,,,,1036,0,11,,,,,4,,,45,100
16588,note_off,,,,,1036,0,13,,,,,6,,,61,100
16588,note_off,,,,,0,0,13,,,,,6,,,64,100
16588,note_off,,,,,0,0,13,,,,,6,,,69,100
16588,note_off,,,,,1036,0,14,,,,,6,,,45,100
16588,note_off,,,,,1036,0,16,,,,,7,,,45,100
16612,note_off,,,,,100,0,9,,,,,2,,,69,100
16612,note_off,,,,,100,0,8,,,,,1,,,73,100
16704,note_on,,,,,116,0,13,,,,,6,,,66,100
16704,note_on,,,,,116,0,12,,,,,5,,,38,98
16704,note_on,,,,,116,0,14,,,,,6,,,50,100
16704,note_on,,,,,0,0,13,,,,,6,,,62,100
16704,note_on,,,,,116,0,16,,,,,7,,,50,100
16704,note_on,,,,,0,0,13,,,,,6,,,69,100
16704,note_on,,,,,92,0,8,,,,,1,,,81,98
16704,note_on,,,,,0,0,15,,,,,7,,,62,100
16704,note_on,,,,,92,0,9,,,,,2,,,78,98
16704,note_on,,,,,0,0,15,,,,,7,,,69,100
16704,note_on,,,,,116,0,15,,,,,7,,,66,100
16704,note_on,,,,,116,0,11,,,,,4,,,50,98
16892,note_off,,,,,188,0,9,,,,,2,,,78,100
16892,note_off,,,,,188,0,8,,,,,1,,,81,100
16896,note_on,,,,,4,0,8,,,,,1,,,79,97
16896,note_on,,,,,4,0,9,,,,,2,,,76,97
17084,note_off,,,,,188,0,9,,,,,2,,,76,100
17084,note_off,,,,,188,0,8,,,,,1,,,79,100
17088,note_on,,,,,4,0,9,,,,,2,,,74,95
17088,note_on,,,,,4,0,8,,,,,1,,,78,95
17188,note_off,,,,,100,0,9,,,,,2,,,74,100
17188,note_off,,,,,100,0,8,,,,,1,,,78,100
17276,note_off,,,,,572,0,13,,,,,6,,,66,100
17276,note_off,,,,,572,0,15,,,,,7,,,66,100
17280,note_on,,,,,4,0,13,,,,,6,,,65,100
17280,note_on,,,,,92,0,9,,,,,2,,,81,98
17280,note_on,,,,,92,0,8,,,,,1,,,77,98
17280,note_on,,,,,4,0,15,,,,,7,,,65,100
17468,note_off,,,,,188,0,9,,,,,2,,,81,100
17468,note_off,,,,,188,0,8,,,,,1,,,77,100
17472,note_on,,,,,4,0,8,,,,,1,,,76,97
17472,note_on,,,,,4,0,9,,,,,2,,,79,97
17660,note_off,,,,,188,0,8,,,,,1,,,76,100
17660,note_off,,,,,188,0,9,,,,,2,,,79,100
17664,note_on,,,,,4,0,8,,,,,1,,,74,95
17664,note_on,,,,,4,0,9,,,,,2,,,77,95
17740,note_off,,,,,1036,0,14,,,,,6,,,50,100
17740,note_off,,,,,1612,0,10,,,,,3,,,69,100
17740,note_off,,,,,1036,0,12,,,,,5,,,38,100
17740,note_off,,,,,1036,0,16,,,,,7,,,50,100
17740,note_off,,,,,0,0,15,,,,,7,,,65,100
17740,note_off,,,,,1036,0,11,,,,,4,,,50,100
17740,note_off,,,,,0,0,13,,,,,6,,,69,100
17740,note_off,,,,,0,0,15,,,,,7,,,69,100
17740,note_off,,,,,0,0,13,,,,,6,,,65,100
17740,note_off,,,,,460,0,15,,,,,7,,,62,100
17740,note_off,,,,,460,0,13,,,,,6,,,62,100
17764,note_off,,,,,100,0,9,,,,,2,,,77,100
17764,note_off,,,,,100,0,8,,,,,1,,,74,100
17856,note_on,,,,,92,0,9,,,,,2,,,76,100
17856,note_on,,,,,116,0,13,,,,,6,,,61,100
17856,note_on,,,,,116,0,12,,,,,5,,,33,100
17856,note_on,,,,,116,0,14,,,,,6,,,45,100
17856,note_on,,,,,92,0,8,,,,,1,,,73,100
17856,note_on,,,,,0,0,13,,,,,6,,,64,100
17856,note_on,,,,,0,0,15,,,,,7,,,69,100
17856,note_on,,,,,116,0,16,,,,,7,,,45,100
17856,note_on,,,,,0,0,15,,,,,7,,,64,100
17856,note_on,,,,,116,0,15,,,,,7,,,61,100
17856,note_on,,,,,116,0,11,,,,,4,,,45,100
17856,note_on,,,,,0,0,13,,,,,6,,,69,100
17856,note_on,,,,,116,0,10,,,,,3,,,69,100
17920,note_off,,,,,64,0,8,,,,,1,,,73,100
17920,note_off,,,,,64,0,9,,,,,2,,,76,100
17952,note_on,,,,,32,0,9,,,,,2,,,73,100
17952,note_on,,,,,32,0,8,,,,,1,,,69,100
17984,note_off,,,,,32,0,9,,,,,2,,,73,100
17984,note_off,,,,,32,0,8,,,,,1,,,69,100
18000,note_on,,,,,16,0,9,,,,,2,,,74,100
18000,note_on,,,,,16,0,8,,,,,1,,,71,100
18032,note_off,,,,,32,0,9,,,,,2,,,74,100
18032,note_off,,,,,32,0,8,,,,,1,,,71,100
18048,note_on,,,,,16,0,9,,,,,2,,,76,100
18048,note_on,,,,,16,0,8,,,,,1,,,73,100
18056,note_off,,,,,0,0,15,,,,,7,,,64,100
18056,note_off,,,,,0,0,15,,,,,7,,,69,100
18056,note_off,,,,,200,0,14,,,,,6,,,45,100
18056,note_off,,,,,200,0,10,,,,,3,,,69,100
18056,note_off,,,,,0,0,13,,,,,6,,,69,100
18056,note_off,,,,,200,0,12,,,,,5,,,33,100
18056,note_off,,,,,0,0,13,,,,,6,,,64,100
18056,note_off,,,,,200,0,16,,,,,7,,,45,100
18056,note_off,,,,,200,0,13,,,,,6,,,61,100
18056,note_off,,,,,200,0,11,,,,,4,,,45,100
18056,note_off,,,,,200,0,15,,,,,7,,,61,100
18112,note_off,,,,,64,0,8,,,,,1,,,73,100
18112,note_off,,,,,64,0,9,,,,,2,,,76,100
18144,note_on,,,,,32,0,9,,,,,2,,,78,100
18144,note_on,,,,,32,0,8,,,,,1,,,74,100
18208,note_off,,,,,64,0,8,,,,,1,,,74,100
18208,note_off,,,,,64,0,9,,,,,2,,,78,100
18240,note_on,,,,,32,0,9,,,,,2,,,79,100
18240,note_on,,,,,32,0,8,,,,,1,,,76,100
18304,note_off,,,,,64,0,9,,,,,2,,,79,100
18304,note_off,,,,,64,0,8,,,,,1,,,76,100
18336,note_on,,,,,32,0,9,,,,,2,,,81,100
18336,note_on,,,,,32,0,8,,,,,1,,,78,100
18400,note_off,,,,,64,0,9,,,,,2,,,81,100
18400,note_off,,,,,64,0,8,,,,,1,,,78,100
18432,note_on,,,,,376,0,16,,,,,7,,,45,100
18432,note_on,,,,,376,0,13,,,,,6,,,69,100
18432,note_on,,,,,0,0,13,,,,,6,,,73,100
18432,note_on,,,,,32,0,8,,,,,1,,,79,100
18432,note_on,,,,,32,0,9,,,,,2,,,73,100
18432,note_on,,,,,376,0,10,,,,,3,,,64,100
18432,note_on,,,,,376,0,11,,,,,4,,,45,100
18432,note_on,,,,,376,0,15,,,,,7,,,69,100
18432,note_on,,,,,376,0,14,,,,,6,,,45,100
18432,note_on,,,,,376,0,12,,,,,5,,,33,100
18432,note_on,,,,,0,0,15,,,,,7,,,73,100
18532,note_off,,,,,100,0,10,,,,,3,,,64,100
18532,note_off,,,,,100,0,8,,,,,1,,,79,100
18532,note_off,,,,,0,0,15,,,,,7,,,73,100
18532,note_off,,,,,100,0,15,,,,,7,,,69,100
18532,note_off,,,,,100,0,9,,,,,2,,,73,100
18532,note_off,,,,,100,0,13,,,,,6,,,69,100
18532,note_off,,,,,0,0,13,,,,,6,,,73,100
18532,note_off,,,,,100,0,11,,,,,4,,,45,100
18532,note_off,,,,,100,0,16,,,,,7,,,45,100
18532,note_off,,,,,100,0,14,,,,,6,,,45,100
18532,note_off,,,,,100,0,12,,,,,5,,,33,100
18720,note_on,,,,,188,0,9,,,,,2,,,73,100
18720,note_on,,,,,188,0,12,,,,,5,,,33,100
18720,note_on,,,,,188,0,15,,,,,7,,,67,100
18720,note_on,,,,,0,0,13,,,,,6,,,73,100
18720,note_on,,,,,188,0,8,,,,,1,,,76,100
18720,note_on,,,,,0,0,15,,,,,7,,,73,100
18720,note_on,,,,,188,0,14,,,,,6,,,45,100
18720,note_on,,,,,188,0,13,,,,,6,,,67,100
18720,note_on,,,,,188,0,11,,,,,4,,,45,100
18720,note_on,,,,,188,0,10,,,,,3,,,61,100
18720,note_on,,,,,188,0,16,,,,,7,,,45,100
18784,note_off,,,,,64,0,16,,,,,7,,,45,100
18784,note_off,,,,,64,0,14,,,,,6,,,45,100
18784,note_off,,,,,64,0,10,,,,,3,,,61,100
18784,note_off,,,,,64,0,9,,,,,2,,,73,99
18784,note_off,,,,,64,0,12,,,,,5,,,33,100
18784,note_off,,,,,0,0,13,,,,,6,,,73,100
18784,note_off,,,,,64,0,11,,,,,4,,,45,100
18784,note_off,,,,,64,0,13,,,,,6,,,67,100
18784,note_off,,,,,64,0,8,,,,,1,,,76,100
18784,note_off,,,,,64,0,15,,,,,7,,,67,100
18784,note_off,,,,,0,0,15,,,,,7,,,73,100
18816,note_on,,,,,32,0,9,,,,,2,,,74,100
18816,note_on,,,,,32,0,13,,,,,6,,,66,100
18816,note_on,,,,,0,0,13,,,,,6,,,74,100
18816,note_on,,,,,32,0,11,,,,,4,,,50,100
18816,note_on,,,,,32,0,8,,,,,1,,,78,100
18816,note_on,,,,,32,0,15,,,,,7,,,66,100
18816,note_on,,,,,0,0,15,,,,,7,,,74,100
18816,note_on,,,,,32,0,14,,,,,6,,,50,100
18816,note_on,,,,,32,0,16,,,,,7,,,50,100
18816,note_on,,,,,32,0,10,,,,,3,,,57,100
18816,note_on,,,,,32,0,12,,,,,5,,,38,100
18916,note_off,,,,,100,0,16,,,,,7,,,50,100
18916,note_off,,,,,100,0,8,,,,,1,,,78,100
18916,note_off,,,,,100,0,11,,,,,4,,,50,100
18916,note_off,,,,,100,0,10,,,,,3,,,57,100
18916,note_off,,,,,0,0,13,,,,,6,,,74,100
18916,note_off,,,,,100,0,9,,,,,2,,,74,100
18916,note_off,,,,,100,0,12,,,,,5,,,38,100
18916,note_off,,,,,100,0,13,,,,,6,,,66,100
18916,note_off,,,,,100,0,15,,,,,7,,,66,100
18916,note_off,,,,,100,0,14,,,,,6,,,50,100
18916,note_off,,,,,0,0,15,,,,,7,,,74,100
19104,note_on,,,,,188,0,14,,,,,6,,,55,100
19104,note_on,,,,,188,0,16,,,,,7,,,55,100
19104,note_on,,,,,188,0,8,,,,,1,,,79,102
19104,note_on,,,,,188,0,15,,,,,7,,,64,100
19104,note_on,,,,,0,0,15,,,,,7,,,71,100
19104,note_on,,,,,188,0,10,,,,,3,,,71,102
19104,note_on,,,,,188,0,11,,,,,4,,,55,102
19104,note_on,,,,,0,0,13,,,,,6,,,71,100
19104,note_on,,,,,188,0,12,,,,,5,,,43,102
19104,note_on,,,,,188,0,9,,,,,2,,,76,102
19104,note_on,,,,,188,0,13,,,,,6,,,64,100
19168,note_off,,,,,64,0,10,,,,,3,,,71,100
19168,note_off,,,,,64,0,15,,,,,7,,,64,100
19168,note_off,,,,,64,0,11,,,,,4,,,55,100
19168,note_off,,,,,64,0,9,,,,,2,,,76,100
19168,note_off,,,,,0,0,15,,,,,7,,,71,100
19168,note_off,,,,,64,0,14,,,,,6,,,55,100
19168,note_off,,,,,64,0,12,,,,,5,,,43,100
19168,note_off,,,,,64,0,13,,,,,6,,,64,100
19168,note_off,,,,,0,0,13,,,,,6,,,71,100
19168,note_off,,,,,64,0,16,,,,,7,,,55,100
19168,note_off,,,,,64,0,8,,,,,1,,,79,100
19200,note_on,,,,,32,0,16,,,,,7,,,57,100
19200,note_on,,,,,32,0,13,,,,,6,,,64,100
19200,note_on,,,,,32,0,15,,,,,7,,,64,100
19200,note_on,,,,,32,0,10,,,,,3,,,64,101
19200,note_on,,,,,32,0,8,,,,,1,,,78,101
19200,note_on,,,,,32,0,9,,,,,2,,,74,101
19200,note_on,,,,,0,0,15,,,,,7,,,73,100
19200,note_on,,,,,32,0,11,,,,,4,,,57,101
19200,note_on,,,,,0,0,13,,,,,6,,,73,100
19200,note_on,,,,,32,0,14,,,,,6,,,57,100
19200,note_on,,,,,32,0,12,,,,,5,,,45,101
19244,note_off,,,,,44,0,8,,,,,1,,,78,100
19248,note_on,,,,,4,0,8,,,,,1,,,76,100
19260,note_off,,,,,60,0,9,,,,,2,,,74,100
19264,note_on,,,,,4,0,9,,,,,2,,,73,100
19292,note_off,,,,,44,0,8,,,,,1,,,76,100
19296,note_on,,,,,4,0,8,,,,,1,,,78,100
19300,note_off,,,,,100,0,14,,,,,6,,,57,100
19300,note_off,,,,,100,0,16,,,,,7,,,57,100
19300,note_off,,,,,100,0,12,,,,,5,,,45,100
19300,note_off,,,,,100,0,11,,,,,4,,,57,100
19324,note_off,,,,,60,0,9,,,,,2,,,73,100
19328,note_on,,,,,4,0,9,,,,,2,,,74,99
19340,note_off,,,,,44,0,8,,,,,1,,,78,100
19344,note_on,,,,,4,0,8,,,,,1,,,76,99
19388,note_off,,,,,60,0,9,,,,,2,,,74,100
19388,note_off,,,,,44,0,8,,,,,1,,,76,100
19392,note_on,,,,,4,0,9,,,,,2,,,73,98
19392,note_on,,,,,92,0,16,,,,,7,,,45,100
19392,note_on,,,,,92,0,14,,,,,6,,,45,100
19392,note_on,,,,,92,0,12,,,,,5,,,33,98
19392,note_off,,,,,192,0,10,,,,,3,,,64,100
19392,note_on,,,,,92,0,11,,,,,4,,,45,98
19392,note_on,,,,,4,0,8,,,,,1,,,76,98
19456,note_off,,,,,256,0,15,,,,,7,,,64,100
19456,note_off,,,,,64,0,9,,,,,2,,,73,100
19456,note_off,,,,,256,0,13,,,,,6,,,64,100
19456,note_off,,,,,64,0,8,,,,,1,,,76,100
19456,note_off,,,,,0,0,13,,,,,6,,,73,100
19456,note_off,,,,,0,0,15,,,,,7,,,73,100
19488,note_on,,,,,32,0,9,,,,,2,,,74,97
19488,note_on,,,,,96,0,10,,,,,3,,,69,97
19488,note_on,,,,,32,0,8,,,,,1,,,74,97
19492,note_off,,,,,100,0,14,,,,,6,,,45,100
19492,note_off,,,,,100,0,12,,,,,5,,,33,100
19492,note_off,,,,,100,0,16,,,,,7,,,45,100
19492,note_off,,,,,100,0,11,,,,,4,,,45,100
19552,note_off,,,,,64,0,10,,,,,3,,,69,100
19552,note_off,,,,,64,0,8,,,,,1,,,74,100
19552,note_off,,,,,64,0,9,,,,,2,,,74,100
19584,note_on,,,,,0,0,15,,,,,7,,,69,100
19584,note_on,,,,,0,0,15,,,,,7,,,74,100
19584,note_on,,,,,32,0,8,,,,,1,,,74,96
19584,note_on,,,,,0,0,13,,,,,6,,,74,100
19584,note_on,,,,,0,0,13,,,,,6,,,69,100
19584,note_on,,,,,128,0,13,,,,,6,,,66,100
19584,note_on,,,,,128,0,15,,,,,7,,,66,100
19584,note_on,,,,,92,0,11,,,,,4,,,50,96
19584,note_on,,,,,32,0,10,,,,,3,,,66,96
19584,note_on,,,,,92,0,12,,,,,5,,,38,96
19584,note_on,,,,,32,0,9,,,,,2,,,74,96
19584,note_on,,,,,92,0,16,,,,,7,,,50,100
19584,note_on,,,,,92,0,14,,,,,6,,,50,100
19648,note_off,,,,,64,0,9,,,,,2,,,74,100
19680,note_on,,,,,32,0,9,,,,,2,,,66,100
19684,note_off,,,,,100,0,8,,,,,1,,,74,100
19684,note_off,,,,,100,0,11,,,,,4,,,50,100
19684,note_off,,,,,100,0,12,,,,,5,,,38,100
19684,note_off,,,,,0,0,15,,,,,7,,,74,100
19684,note_off,,,,,0,0,15,,,,,7,,,69,100
19684,note_off,,,,,100,0,15,,,,,7,,,66,100
19684,note_off,,,,,100,0,14,,,,,6,,,50,100
19684,note_off,,,,,100,0,16,,,,,7,,,50,100
19684,note_off,,,,,100,0,13,,,,,6,,,66,100
19684,note_off,,,,,0,0,13,,,,,6,,,74,100
19684,note_off,,,,,0,0,13,,,,,6,,,69,100
19684,note_off,,,,,100,0,10,,,,,3,,,66,100
19744,note_off,,,,,64,0,9,,,,,2,,,66,100
19776,note_on,,,,,92,0,15,,,,,7,,,62,100
19776,note_on,,,,,92,0,16,,,,,7,,,57,100
19776,note_on,,,,,92,0,8,,,,,1,,,66,100
19776,note_on,,,,,92,0,14,,,,,6,,,57,100
19776,note_on,,,,,0,0,13,,,,,6,,,66,100
19776,note_on,,,,,92,0,13,,,,,6,,,62,100
19776,note_on,,,,,0,0,15,,,,,7,,,66,100
19776,note_on,,,,,32,0,9,,,,,2,,,67,100
19776,note_on,,,,,92,0,12,,,,,5,,,45,100
19776,note_on,,,,,92,0,11,,,,,4,,,57,100
19776,note_on,,,,,92,0,10,,,,,3,,,62,100
19840,note_off,,,,,64,0,9,,,,,2,,,67,100
19872,note_on,,,,,32,0,9,,,,,2,,,69,100
19876,note_off,,,,,100,0,8,,,,,1,,,66,100
19876,note_off,,,,,100,0,11,,,,,4,,,57,100
19876,note_off,,,,,100,0,16,,,,,7,,,57,100
19876,note_off,,,,,100,0,12,,,,,5,,,45,100
19876,note_off,,,,,0,0,15,,,,,7,,,66,100
19876,note_off,,,,,100,0,15,,,,,7,,,62,100
19876,note_off,,,,,100,0,14,,,,,6,,,57,100
19876,note_off,,,,,100,0,13,,,,,6,,,62,100
19876,note_off,,,,,0,0,13,,,,,6,,,66,100
19876,note_off,,,,,100,0,10,,,,,3,,,62,100
19936,note_off,,,,,64,0,9,,,,,2,,,69,100
19968,note_on,,,,,92,0,12,,,,,5,,,33,100
19968,note_on,,,,,0,0,15,,,,,7,,,64,100
19968,note_on,,,,,92,0,10,,,,,3,,,57,100
19968,note_on,,,,,92,0,8,,,,,1,,,64,100
19968,note_on,,,,,92,0,11,,,,,4,,,45,100
19968,note_on,,,,,92,0,14,,,,,6,,,45,100
19968,note_on,,,,,0,0,13,,,,,6,,,64,100
19968,note_on,,,,,92,0,13,,,,,6,,,61,100
19968,note_on,,,,,92,0,15,,,,,7,,,61,100
19968,note_on,,,,,32,0,9,,,,,2,,,71,100
19968,note_on,,,,,92,0,16,,,,,7,,,45,100
20032,note_off,,,,,64,0,9,,,,,2,,,71,100
20064,note_on,,,,,32,0,9,,,,,2,,,73,100
20068,note_off,,,,,100,0,13,,,,,6,,,61,100
20068,note_off,,,,,100,0,15,,,,,7,,,61,100
20068,note_off,,,,,100,0,10,,,,,3,,,57,100
20068,note_off,,,,,100,0,16,,,,,7,,,45,100
20068,note_off,,,,,100,0,12,,,,,5,,,33,100
20068,note_off,,,,,0,0,15,,,,,7,,,64,100
20068,note_off,,,,,0,0,13,,,,,6,,,64,100
20068,note_off,,,,,100,0,11,,,,,4,,,45,100
20068,note_off,,,,,100,0,14,,,,,6,,,45,100
20068,note_off,,,,,100,0,8,,,,,1,,,64,100
20128,note_off,,,,,64,0,9,,,,,2,,,73,100
20160,note_on,,,,,92,0,15,,,,,7,,,62,100
20160,note_on,,,,,92,0,14,,,,,6,,,50,100
20160,note_on,,,,,92,0,11,,,,,4,,,50,95
20160,note_on,,,,,92,0,10,,,,,3,,,54,95
20160,note_on,,,,,0,0,13,,,,,6,,,57,100
20160,note_on,,,,,92,0,12,,,,,5,,,38,95
20160,note_on,,,,,0,0,13,,,,,6,,,54,100
20160,note_on,,,,,92,0,16,,,,,7,,,50,100
20160,note_on,,,,,92,0,13,,,,,6,,,62,100
20160,note_on,,,,,32,0,9,,,,,2,,,74,95
20160,note_on,,,,,92,0,8,,,,,1,,,62,95
20160,note_on,,,,,0,0,15,,,,,7,,,54,100
20224,note_off,,,,,64,0,8,,,,,1,,,62,100
20256,note_on,,,,,32,0,8,,,,,1,,,66,95
20260,note_off,,,,,0,0,13,,,,,6,,,57,100
20260,note_off,,,,,100,0,10,,,,,3,,,54,100
20260,note_off,,,,,100,0,9,,,,,2,,,74,100
20260,note_off,,,,,100,0,13,,,,,6,,,62,100
20260,note_off,,,,,0,0,13,,,,,6,,,54,100
20260,note_off,,,,,100,0,14,,,,,6,,,50,100
20260,note_off,,,,,100,0,12,,,,,5,,,38,100
20260,note_off,,,,,100,0,16,,,,,7,,,50,100
20260,note_off,,,,,100,0,11,,,,,4,,,50,100
20260,note_off,,,,,100,0,15,,,,,7,,,62,100
20260,note_off,,,,,0,0,15,,,,,7,,,54,100
20320,note_off,,,,,64,0,8,,,,,1,,,66,100
20352,note_on,,,,,0,0,13,,,,,6,,,66,100
20352,note_on,,,,,92,0,16,,,,,7,,,57,100
20352,note_on,,,,,92,0,10,,,,,3,,,62,95
20352,note_on,,,,,92,0,13,,,,,6,,,62,100
20352,note_on,,,,,0,0,15,,,,,7,,,66,100
20352,note_on,,,,,92,0,12,,,,,5,,,45,95
20352,note_on,,,,,92,0,9,,,,,2,,,66,95
20352,note_on,,,,,32,0,8,,,,,1,,,67,95
20352,note_on,,,,,92,0,14,,,,,6,,,57,100
20352,note_on,,,,,92,0,15,,,,,7,,,62,100
20352,note_on,,,,,92,0,11,,,,,4,,,57,95
20416,note_off,,,,,64,0,8,,,,,1,,,67,100
20448,note_on,,,,,32,0,8,,,,,1,,,69,94
20452,note_off,,,,,100,0,14,,,,,6,,,57,100
20452,note_off,,,,,0,0,15,,,,,7,,,66,100
20452,note_off,,,,,0,0,13,,,,,6,,,66,100
20452,note_off,,,,,100,0,9,,,,,2,,,66,100
20452,note_off,,,,,100,0,16,,,,,7,,,57,100
20452,note_off,,,,,100,0,15,,,,,7,,,62,100
20452,note_off,,,,,100,0,13,,,,,6,,,62,100
20452,note_off,,,,,100,0,11,,,,,4,,,57,100
20452,note_off,,,,,100,0,10,,,,,3,,,62,100
20452,note_off,,,,,100,0,12,,,,,5,,,45,100
20512,note_off,,,,,64,0,8,,,,,1,,,69,100
20544,note_on,,,,,92,0,11,,,,,4,,,45,94
20544,note_on,,,,,0,0,13,,,,,6,,,64,100
20544,note_on,,,,,92,0,13,,,,,6,,,61,100
20544,note_on,,,,,32,0,8,,,,,1,,,71,94
20544,note_on,,,,,0,0,15,,,,,7,,,64,100
20544,note_on,,,,,92,0,16,,,,,7,,,45,100
20544,note_on,,,,,92,0,15,,,,,7,,,61,100
20544,note_on,,,,,92,0,9,,,,,2,,,64,94
20544,note_on,,,,,92,0,12,,,,,5,,,33,94
20544,note_on,,,,,92,0,14,,,,,6,,,45,100
20544,note_on,,,,,92,0,10,,,,,3,,,57,94
20608,note_off,,,,,64,0,8,,,,,1,,,71,100
20640,note_on,,,,,32,0,8,,,,,1,,,73,93
20644,note_off,,,,,100,0,13,,,,,6,,,61,100
20644,note_off,,,,,100,0,15,,,,,7,,,61,100
20644,note_off,,,,,100,0,10,,,,,3,,,57,100
20644,note_off,,,,,0,0,15,,,,,7,,,64,100
20644,note_off,,,,,100,0,12,,,,,5,,,33,100
20644,note_off,,,,,100,0,14,,,,,6,,,45,100
20644,note_off,,,,,0,0,13,,,,,6,,,64,100
20644,note_off,,,,,100,0,16,,,,,7,,,45,100
20644,note_off,,,,,100,0,9,,,,,2,,,64,100
20644,note_off,,,,,100,0,11,,,,,4,,,45,100
20704,note_off,,,,,64,0,8,,,,,1,,,73,100
20736,note_on,,,,,0,0,13,,,,,6,,,57,100
20736,note_on,,,,,92,0,14,,,,,6,,,50,100
20736,note_on,,,,,92,0,16,,,,,7,,,50,100
20736,note_on,,,,,92,0,12,,,,,5,,,38,93
20736,note_on,,,,,92,0,9,,,,,2,,,62,93
20736,note_on,,,,,92,0,10,,,,,3,,,54,93
20736,note_on,,,,,32,0,8,,,,,1,,,74,93
20736,note_on,,,,,92,0,13,,,,,6,,,62,100
20736,note_on,,,,,92,0,11,,,,,4,,,50,93
20736,note_on,,,,,0,0,13,,,,,6,,,54,100
20736,note_on,,,,,0,0,15,,,,,7,,,54,100
20736,note_on,,,,,92,0,15,,,,,7,,,62,100
20800,note_off,,,,,64,0,9,,,,,2,,,62,100
20832,note_on,,,,,32,0,9,,,,,2,,,66,92
20836,note_off,,,,,100,0,14,,,,,6,,,50,100
20836,note_off,,,,,100,0,12,,,,,5,,,38,100
20836,note_off,,,,,100,0,11,,,,,4,,,50,100
20836,note_off,,,,,100,0,16,,,,,7,,,50,100
20836,note_off,,,,,0,0,13,,,,,6,,,57,100
20836,note_off,,,,,0,0,15,,,,,7,,,54,100
20836,note_off,,,,,100,0,13,,,,,6,,,62,100
20836,note_off,,,,,100,0,8,,,,,1,,,74,100
20836,note_off,,,,,100,0,10,,,,,3,,,54,100
20836,note_off,,,,,0,0,13,,,,,6,,,54,100
20836,note_off,,,,,100,0,15,,,,,7,,,62,100
20896,note_off,,,,,64,0,9,,,,,2,,,66,100
20928,note_on,,,,,92,0,15,,,,,7,,,62,100
20928,note_on,,,,,92,0,11,,,,,4,,,57,92
20928,note_on,,,,,92,0,12,,,,,5,,,45,92
20928,note_on,,,,,92,0,16,,,,,7,,,57,100
20928,note_on,,,,,92,0,10,,,,,3,,,62,92
20928,note_on,,,,,0,0,15,,,,,7,,,66,100
20928,note_on,,,,,92,0,13,,,,,6,,,62,100
20928,note_on,,,,,0,0,13,,,,,6,,,66,100
20928,note_on,,,,,92,0,8,,,,,1,,,66,92
20928,note_on,,,,,32,0,9,,,,,2,,,67,92
20928,note_on,,,,,92,0,14,,,,,6,,,57,100
20992,note_off,,,,,64,0,9,,,,,2,,,67,100
21024,note_on,,,,,32,0,9,,,,,2,,,69,91
21028,note_off,,,,,100,0,10,,,,,3,,,62,100
21028,note_off,,,,,100,0,8,,,,,1,,,66,100
21028,note_off,,,,,0,0,15,,,,,7,,,66,100
21028,note_off,,,,,100,0,14,,,,,6,,,57,100
21028,note_off,,,,,100,0,12,,,,,5,,,45,100
21028,note_off,,,,,0,0,13,,,,,6,,,66,100
21028,note_off,,,,,100,0,13,,,,,6,,,62,100
21028,note_off,,,,,100,0,11,,,,,4,,,57,100
21028,note_off,,,,,100,0,15,,,,,7,,,62,100
21028,note_off,,,,,100,0,16,,,,,7,,,57,100
21088,note_off,,,,,64,0,9,,,,,2,,,69,100
21120,note_on,,,,,92,0,15,,,,,7,,,61,100
21120,note_on,,,,,92,0,14,,,,,6,,,45,100
21120,note_on,,,,,92,0,8,,,,,1,,,64,91
21120,note_on,,,,,92,0,16,,,,,7,,,45,100
21120,note_on,,,,,0,0,13,,,,,6,,,64,100
21120,note_on,,,,,92,0,13,,,,,6,,,61,100
21120,note_on,,,,,92,0,11,,,,,4,,,45,91
21120,note_on,,,,,92,0,10,,,,,3,,,57,91
21120,note_on,,,,,32,0,9,,,,,2,,,71,91
21120,note_on,,,,,92,0,12,,,,,5,,,33,91
21120,note_on,,,,,0,0,15,,,,,7,,,64,100
21184,note_off,,,,,64,0,9,,,,,2,,,71,100
21216,note_on,,,,,32,0,9,,,,,2,,,73,90
21220,note_off,,,,,100,0,11,,,,,4,,,45,100
21220,note_off,,,,,100,0,14,,,,,6,,,45,100
21220,note_off,,,,,100,0,8,,,,,1,,,64,100
21220,note_off,,,,,100,0,15,,,,,7,,,61,100
21220,note_off,,,,,0,0,13,,,,,6,,,64,100
21220,note_off,,,,,0,0,15,,,,,7,,,64,100
21220,note_off,,,,,100,0,13,,,,,6,,,61,100
21220,note_off,,,,,100,0,10,,,,,3,,,57,100
21220,note_off,,,,,100,0,16,,,,,7,,,45,100
21220,note_off,,,,,100,0,12,,,,,5,,,33,100
21280,note_off,,,,,64,0,9,,,,,2,,,73,100
21312,note_on,,,,,92,0,16,,,,,7,,,38,100
21312,note_on,,,,,92,0,10,,,,,3,,,54,90
21312,note_on,,,,,92,0,8,,,,,1,,,62,90
21312,note_on,,,,,0,0,15,,,,,7,,,62,100
21312,note_on,,,,,92,0,15,,,,,7,,,54,100
21312,note_on,,,,,32,0,9,,,,,2,,,74,90
21312,note_on,,,,,92,0,14,,,,,6,,,38,100
21312,note_on,,,,,92,0,11,,,,,4,,,38,90
21312,note_on,,,,,92,0,13,,,,,6,,,54,100
21312,note_on,,,,,0,0,13,,,,,6,,,57,100
21312,note_on,,,,,0,0,13,,,,,6,,,62,100
21312,note_on,,,,,92,0,12,,,,,5,,,38,90
21696,note_off,,,,,384,0,12,,,,,5,,,38,100
21696,note_off,,,,,384,0,8,,,,,1,,,62,100
21696,note_off,,,,,384,0,14,,,,,6,,,38,100
21696,note_off,,,,,0,0,13,,,,,6,,,57,100
21696,note_off,,,,,384,0,13,,,,,6,,,54,100
21696,note_off,,,,,384,0,16,,,,,7,,,38,100
21696,note_off,,,,,0,0,13,,,,,6,,,62,100
21696,note_off,,,,,384,0,10,,,,,3,,,54,100
21696,note_off,,,,,384,0,15,,,,,7,,,54,100
21696,note_off,,,,,384,0,9,,,,,2,,,74,100
21696,note_off,,,,,384,0,11,,,,,4,,,38,100
21696,set_tempo,,,,,10752,1,0,,701754,,,,,,,
21696,note_off,,,,,0,0,15,,,,,7,,,62,100
21888,note_on,,,,,192,0,8,,,,,1,,,74,100
21888,set_tempo,,,,,192,1,0,,526315,,,,,,,
21888,note_on,,,,,0,0,13,,,,,6,,,74,100
21888,note_on,,,,,0,0,13,,,,,6,,,69,100
21888,note_on,,,,,192,0,12,,,,,5,,,38,100
21888,note_on,,,,,192,0,10,,,,,3,,,66,100
21888,note_on,,,,,192,0,11,,,,,4,,,50,100
21888,note_on,,,,,192,0,13,,,,,6,,,66,100
21888,note_on,,,,,192,0,14,,,,,6,,,50,100
21888,note_on,,,,,192,0,16,,,,,7,,,50,100
21888,note_on,,,,,192,0,15,,,,,7,,,66,100
21888,note_on,,,,,0,0,15,,,,,7,,,69,100
21888,note_on,,,,,0,0,15,,,,,7,,,74,100
21988,note_off,,,,,100,0,12,,,,,5,,,38,100
21988,note_off,,,,,100,0,8,,,,,1,,,74,100
21988,note_off,,,,,0,0,15,,,,,7,,,74,100
21988,note_off,,,,,100,0,13,,,,,6,,,66,100
21988,note_off,,,,,0,0,15,,,,,7,,,69,100
21988,note_off,,,,,100,0,10,,,,,3,,,66,100
21988,note_off,,,,,100,0,16,,,,,7,,,50,100
21988,note_off,,,,,0,0,13,,,,,6,,,69,100
21988,note_off,,,,,0,0,13,,,,,6,,,74,100
21988,note_off,,,,,100,0,11,,,,,4,,,50,100
21988,note_off,,,,,100,0,15,,,,,7,,,66,100
21988,note_off,,,,,100,0,14,,,,,6,,,50,100
22080,note_on,,,,,92,0,10,,,,,3,,,62,100
22080,note_on,,,,,92,0,12,,,,,5,,,45,100
22080,note_on,,,,,92,0,8,,,,,1,,,66,100
22080,note_on,,,,,92,0,13,,,,,6,,,62,100
22080,note_on,,,,,0,0,13,,,,,6,,,66,100
22080,note_on,,,,,0,0,15,,,,,7,,,66,100
22080,note_on,,,,,92,0,15,,,,,7,,,62,100
22080,note_on,,,,,92,0,16,,,,,7,,,57,100
22080,note_on,,,,,92,0,11,,,,,4,,,57,100
22080,note_on,,,,,92,0,14,,,,,6,,,57,100
22180,note_off,,,,,100,0,11,,,,,4,,,57,100
22180,note_off,,,,,0,0,15,,,,,7,,,66,100
22180,note_off,,,,,100,0,15,,,,,7,,,62,100
22180,note_off,,,,,100,0,10,,,,,3,,,62,100
22180,note_off,,,,,100,0,13,,,,,6,,,62,100
22180,note_off,,,,,100,0,12,,,,,5,,,45,100
22180,note_off,,,,,100,0,8,,,,,1,,,66,100
22180,note_off,,,,,0,0,13,,,,,6,,,66,100
22180,note_off,,,,,100,0,16,,,,,7,,,57,100
22180,note_off,,,,,100,0,14,,,,,6,,,57,100
22272,note_on,,,,,92,0,13,,,,,6,,,61,100
22272,note_on,,,,,92,0,11,,,,,4,,,45,100
22272,note_on,,,,,92,0,8,,,,,1,,,64,100
22272,note_on,,,,,0,0,13,,,,,6,,,64,100
22272,note_on,,,,,92,0,16,,,,,7,,,45,100
22272,note_on,,,,,0,0,15,,,,,7,,,64,100
22272,note_on,,,,,92,0,15,,,,,7,,,61,100
22272,note_on,,,,,92,0,14,,,,,6,,,45,100
22272,note_on,,,,,92,0,12,,,,,5,,,33,100
22272,note_on,,,,,92,0,10,,,,,3,,,61,100
22372,note_off,,,,,100,0,12,,,,,5,,,33,100
22372,note_off,,,,,0,0,15,,,,,7,,,64,100
22372,note_off,,,,,100,0,15,,,,,7,,,61,100
22372,note_off,,,,,100,0,11,,,,,4,,,45,100
22372,note_off,,,,,100,0,14,,,,,6,,,45,100
22372,note_off,,,,,0,0,13,,,,,6,,,64,100
22372,note_off,,,,,100,0,16,,,,,7,,,45,100
22372,note_off,,,,,100,0,8,,,,,1,,,64,100
22372,note_off,,,,,100,0,13,,,,,6,,,61,100
22372,note_off,,,,,100,0,10,,,,,3,,,61,100
22464,note_on,,,,,92,0,8,,,,,1,,,62,100
22464,note_on,,,,,92,0,15,,,,,7,,,66,100
22464,note_on,,,,,0,0,15,,,,,7,,,69,100
22464,note_on,,,,,92,0,12,,,,,5,,,38,100
22464,note_on,,,,,92,0,11,,,,,4,,,50,100
22464,note_on,,,,,0,0,13,,,,,6,,,74,100
22464,note_on,,,,,0,0,13,,,,,6,,,69,100
22464,note_on,,,,,92,0,10,,,,,3,,,57,100
22464,note_on,,,,,92,0,13,,,,,6,,,66,100
22464,note_on,,,,,768,0,9,,,,,2,,,74,100
22464,note_on,,,,,92,0,16,,,,,7,,,50,100
22464,note_on,,,,,0,0,15,,,,,7,,,74,100
22464,note_on,,,,,92,0,14,,,,,6,,,50,100
22528,note_off,,,,,64,0,8,,,,,1,,,62,100
22560,note_on,,,,,32,0,8,,,,,1,,,66,100
22564,note_off,,,,,100,0,12,,,,,5,,,38,100
22564,note_off,,,,,100,0,11,,,,,4,,,50,100
22564,note_off,,,,,0,0,13,,,,,6,,,74,100
22564,note_off,,,,,0,0,13,,,,,6,,,69,100
22564,note_off,,,,,100,0,9,,,,,2,,,74,100
22564,note_off,,,,,100,0,13,,,,,6,,,66,100
22564,note_off,,,,,100,0,10,,,,,3,,,57,100
22564,note_off,,,,,100,0,15,,,,,7,,,66,100
22564,note_off,,,,,0,0,15,,,,,7,,,69,100
22564,note_off,,,,,0,0,15,,,,,7,,,74,100
22564,note_off,,,,,100,0,16,,,,,7,,,50,100
22564,note_off,,,,,100,0,14,,,,,6,,,50,100
22624,note_off,,,,,64,0,8,,,,,1,,,66,100
22656,note_on,,,,,92,0,11,,,,,4,,,57,100
22656,note_on,,,,,92,0,16,,,,,7,,,57,100
22656,note_on,,,,,92,0,13,,,,,6,,,62,100
22656,note_on,,,,,0,0,13,,,,,6,,,66,100
22656,note_on,,,,,92,0,14,,,,,6,,,57,100
22656,note_on,,,,,32,0,8,,,,,1,,,67,100
22656,note_on,,,,,92,0,12,,,,,5,,,45,100
22656,note_on,,,,,0,0,15,,,,,7,,,66,100
22656,note_on,,,,,92,0,15,,,,,7,,,62,100
22656,note_on,,,,,92,0,9,,,,,2,,,66,100
22656,note_on,,,,,92,0,10,,,,,3,,,62,100
22720,note_off,,,,,64,0,8,,,,,1,,,67,100
22752,note_on,,,,,32,0,8,,,,,1,,,69,100
22756,note_off,,,,,0,0,13,,,,,6,,,66,100
22756,note_off,,,,,100,0,11,,,,,4,,,57,100
22756,note_off,,,,,100,0,13,,,,,6,,,62,100
22756,note_off,,,,,100,0,12,,,,,5,,,45,100
22756,note_off,,,,,100,0,9,,,,,2,,,66,100
22756,note_off,,,,,100,0,15,,,,,7,,,62,100
22756,note_off,,,,,0,0,15,,,,,7,,,66,100
22756,note_off,,,,,100,0,16,,,,,7,,,57,100
22756,note_off,,,,,100,0,10,,,,,3,,,62,100
22756,note_off,,,,,100,0,14,,,,,6,,,57,100
22816,note_off,,,,,64,0,8,,,,,1,,,69,100
22848,note_on,,,,,92,0,12,,,,,5,,,33,100
22848,note_on,,,,,92,0,11,,,,,4,,,45,100
22848,note_on,,,,,32,0,8,,,,,1,,,71,100
22848,note_on,,,,,92,0,16,,,,,7,,,45,100
22848,note_on,,,,,92,0,10,,,,,3,,,57,100
22848,note_on,,,,,0,0,15,,,,,7,,,64,100
22848,note_on,,,,,92,0,15,,,,,7,,,61,100
22848,note_on,,,,,92,0,9,,,,,2,,,64,100
22848,note_on,,,,,0,0,13,,,,,6,,,64,100
22848,note_on,,,,,92,0,14,,,,,6,,,45,100
22848,note_on,,,,,92,0,13,,,,,6,,,61,100
22912,note_off,,,,,64,0,8,,,,,1,,,71,100
22944,note_on,,,,,32,0,8,,,,,1,,,73,100
22948,note_off,,,,,100,0,12,,,,,5,,,33,100
22948,note_off,,,,,100,0,15,,,,,7,,,61,100
22948,note_off,,,,,100,0,10,,,,,3,,,57,100
22948,note_off,,,,,100,0,16,,,,,7,,,45,100
22948,note_off,,,,,100,0,14,,,,,6,,,45,100
22948,note_off,,,,,100,0,11,,,,,4,,,45,100
22948,note_off,,,,,100,0,9,,,,,2,,,64,100
22948,note_off,,,,,0,0,13,,,,,6,,,64,100
22948,note_off,,,,,100,0,13,,,,,6,,,61,100
22948,note_off,,,,,0,0,15,,,,,7,,,64,100
23008,note_off,,,,,64,0,8,,,,,1,,,73,100
23040,note_on,,,,,0,0,15,,,,,7,,,62,100
23040,note_on,,,,,92,0,16,,,,,7,,,50,100
23040,note_on,,,,,0,0,15,,,,,7,,,66,100
23040,note_on,,,,,92,0,12,,,,,5,,,38,100
23040,note_on,,,,,92,0,14,,,,,6,,,50,100
23040,note_on,,,,,0,0,13,,,,,6,,,62,100
23040,note_on,,,,,0,0,13,,,,,6,,,66,100
23040,note_on,,,,,92,0,9,,,,,2,,,62,100
23040,note_on,,,,,92,0,15,,,,,7,,,69,100
23040,note_on,,,,,32,0,8,,,,,1,,,74,100
23040,note_on,,,,,92,0,13,,,,,6,,,69,100
23040,note_on,,,,,92,0,11,,,,,4,,,50,100
23040,note_on,,,,,92,0,10,,,,,3,,,54,100
23104,note_off,,,,,64,0,8,,,,,1,,,74,100
23136,note_on,,,,,32,0,8,,,,,1,,,69,100
23140,note_off,,,,,100,0,9,,,,,2,,,62,100
23200,note_off,,,,,64,0,8,,,,,1,,,69,100
23232,note_on,,,,,32,0,8,,,,,1,,,74,100
23232,note_on,,,,,92,0,9,,,,,2,,,81,100
23232,note_off,,,,,192,0,10,,,,,3,,,54,100
23296,note_off,,,,,256,0,11,,,,,4,,,50,100
23296,note_off,,,,,0,0,15,,,,,7,,,62,100
23296,note_off,,,,,0,0,15,,,,,7,,,66,100
23296,note_off,,,,,256,0,15,,,,,7,,,69,100
23296,note_off,,,,,256,0,12,,,,,5,,,38,100
23296,note_off,,,,,256,0,14,,,,,6,,,50,100
23296,note_off,,,,,64,0,8,,,,,1,,,74,100
23296,note_off,,,,,256,0,13,,,,,6,,,69,100
23296,note_off,,,,,0,0,13,,,,,6,,,62,100
23296,note_off,,,,,256,0,16,,,,,7,,,50,100
23296,note_off,,,,,0,0,13,,,,,6,,,66,100
23328,note_on,,,,,96,0,10,,,,,3,,,62,100
23328,note_on,,,,,32,0,8,,,,,1,,,78,100
23332,note_off,,,,,100,0,9,,,,,2,,,81,100
23392,note_off,,,,,64,0,10,,,,,3,,,62,100
23392,note_off,,,,,64,0,8,,,,,1,,,78,100
23424,note_on,,,,,32,0,10,,,,,3,,,64,100
23424,note_on,,,,,32,0,8,,,,,1,,,79,100
23424,note_on,,,,,92,0,9,,,,,2,,,69,100
23488,note_off,,,,,64,0,10,,,,,3,,,64,100
23488,note_off,,,,,64,0,8,,,,,1,,,79,100
23520,note_on,,,,,32,0,8,,,,,1,,,78,100
23520,note_on,,,,,32,0,10,,,,,3,,,62,100
23524,note_off,,,,,100,0,9,,,,,2,,,69,100
23584,note_off,,,,,64,0,10,,,,,3,,,62,100
23584,note_off,,,,,64,0,8,,,,,1,,,78,100
23616,note_on,,,,,320,0,13,,,,,6,,,69,100
23616,note_on,,,,,320,0,11,,,,,4,,,45,100
23616,note_on,,,,,0,0,15,,,,,7,,,61,100
23616,note_on,,,,,0,0,13,,,,,6,,,61,100
23616,note_on,,,,,320,0,15,,,,,7,,,69,100
23616,note_on,,,,,320,0,16,,,,,7,,,45,100
23616,note_on,,,,,320,0,14,,,,,6,,,45,100
23616,note_on,,,,,0,0,15,,,,,7,,,64,100
23616,note_on,,,,,92,0,9,,,,,2,,,69,100
23616,note_on,,,,,32,0,8,,,,,1,,,76,100
23616,note_on,,,,,32,0,10,,,,,3,,,61,100
23616,note_on,,,,,320,0,12,,,,,5,,,33,100
23616,note_on,,,,,0,0,13,,,,,6,,,64,100
23680,note_off,,,,,64,0,8,,,,,1,,,76,100
23712,note_on,,,,,32,0,8,,,,,1,,,69,100
23716,note_off,,,,,100,0,9,,,,,2,,,69,100
23776,note_off,,,,,64,0,8,,,,,1,,,69,100
23808,note_on,,,,,32,0,8,,,,,1,,,73,100
23808,note_off,,,,,192,0,10,,,,,3,,,61,100
23808,note_on,,,,,92,0,9,,,,,2,,,81,100
23872,note_off,,,,,256,0,15,,,,,7,,,69,100
23872,note_off,,,,,0,0,15,,,,,7,,,64,100
23872,note_off,,,,,256,0,11,,,,,4,,,45,100
23872,note_off,,,,,256,0,12,,,,,5,,,33,100
23872,note_off,,,,,0,0,15,,,,,7,,,61,100
23872,note_off,,,,,256,0,16,,,,,7,,,45,100
23872,note_off,,,,,256,0,14,,,,,6,,,45,100
23872,note_off,,,,,0,0,13,,,,,6,,,64,100
23872,note_off,,,,,0,0,13,,,,,6,,,61,100
23872,note_off,,,,,256,0,13,,,,,6,,,69,100
23872,note_off,,,,,64,0,8,,,,,1,,,73,100
23904,note_on,,,,,32,0,8,,,,,1,,,76,100
23904,note_on,,,,,96,0,10,,,,,3,,,61,100
23908,note_off,,,,,100,0,9,,,,,2,,,81,100
23968,note_off,,,,,64,0,8,,,,,1,,,76,100
23968,note_off,,,,,64,0,10,,,,,3,,,61,100
24000,note_on,,,,,32,0,8,,,,,1,,,81,100
24000,note_on,,,,,92,0,9,,,,,2,,,69,100
24000,note_on,,,,,32,0,10,,,,,3,,,64,100
24064,note_off,,,,,64,0,10,,,,,3,,,64,100
24064,note_off,,,,,64,0,8,,,,,1,,,81,100
24096,note_on,,,,,32,0,8,,,,,1,,,79,93
24096,note_on,,,,,32,0,10,,,,,3,,,61,93
24100,note_off,,,,,100,0,9,,,,,2,,,69,100
24160,note_off,,,,,64,0,8,,,,,1,,,79,100
24160,note_off,,,,,64,0,10,,,,,3,,,61,100
24192,note_on,,,,,320,0,14,,,,,6,,,50,100
24192,note_on,,,,,32,0,10,,,,,3,,,62,86
24192,note_on,,,,,92,0,9,,,,,2,,,69,86
24192,note_on,,,,,320,0,11,,,,,4,,,50,86
24192,note_on,,,,,320,0,15,,,,,7,,,69,100
24192,note_on,,,,,0,0,15,,,,,7,,,62,100
24192,note_on,,,,,0,0,15,,,,,7,,,66,100
24192,note_on,,,,,0,0,13,,,,,6,,,66,100
24192,note_on,,,,,32,0,8,,,,,1,,,78,86
24192,note_on,,,,,0,0,13,,,,,6,,,62,100
24192,note_on,,,,,320,0,13,,,,,6,,,69,100
24192,note_on,,,,,320,0,12,,,,,5,,,38,86
24192,note_on,,,,,320,0,16,,,,,7,,,50,100
24256,note_off,,,,,64,0,8,,,,,1,,,78,100
24288,note_on,,,,,32,0,8,,,,,1,,,69,85
24292,note_off,,,,,100,0,9,,,,,2,,,69,100
24352,note_off,,,,,64,0,8,,,,,1,,,69,100
24384,note_on,,,,,92,0,9,,,,,2,,,81,85
24384,note_on,,,,,32,0,8,,,,,1,,,74,85
24384,note_off,,,,,192,0,10,,,,,3,,,62,100
24448,note_off,,,,,256,0,12,,,,,5,,,38,100
24448,note_off,,,,,256,0,11,,,,,4,,,50,100
24448,note_off,,,,,0,0,13,,,,,6,,,62,100
24448,note_off,,,,,0,0,15,,,,,7,,,62,100
24448,note_off,,,,,256,0,15,,,,,7,,,69,100
24448,note_off,,,,,256,0,14,,,,,6,,,50,100
24448,note_off,,,,,256,0,16,,,,,7,,,50,100
24448,note_off,,,,,0,0,15,,,,,7,,,66,100
24448,note_off,,,,,0,0,13,,,,,6,,,66,100
24448,note_off,,,,,64,0,8,,,,,1,,,74,100
24448,note_off,,,,,256,0,13,,,,,6,,,69,100
24480,note_on,,,,,96,0,10,,,,,3,,,62,85
24480,note_on,,,,,32,0,8,,,,,1,,,78,85
24484,note_off,,,,,100,0,9,,,,,2,,,81,100
24544,note_off,,,,,64,0,10,,,,,3,,,62,100
24544,note_off,,,,,64,0,8,,,,,1,,,78,100
24576,note_on,,,,,32,0,10,,,,,3,,,64,85
24576,note_on,,,,,32,0,8,,,,,1,,,79,85
24576,note_on,,,,,92,0,9,,,,,2,,,69,85
24640,note_off,,,,,64,0,10,,,,,3,,,64,100
24640,note_off,,,,,64,0,8,,,,,1,,,79,100
24672,note_on,,,,,32,0,10,,,,,3,,,62,85
24672,note_on,,,,,32,0,8,,,,,1,,,78,85
24676,note_off,,,,,100,0,9,,,,,2,,,69,100
24736,note_off,,,,,64,0,8,,,,,1,,,78,100
24736,note_off,,,,,64,0,10,,,,,3,,,62,100
24768,note_on,,,,,32,0,8,,,,,1,,,76,85
24768,note_on,,,,,320,0,15,,,,,7,,,69,100
24768,note_on,,,,,320,0,11,,,,,4,,,45,85
24768,note_on,,,,,32,0,10,,,,,3,,,61,85
24768,note_on,,,,,92,0,9,,,,,2,,,69,85
24768,note_on,,,,,0,0,13,,,,,6,,,64,100
24768,note_on,,,,,0,0,15,,,,,7,,,61,100
24768,note_on,,,,,0,0,15,,,,,7,,,64,100
24768,note_on,,,,,320,0,13,,,,,6,,,69,100
24768,note_on,,,,,320,0,12,,,,,5,,,33,85
24768,note_on,,,,,320,0,16,,,,,7,,,45,100
24768,note_on,,,,,0,0,13,,,,,6,,,61,100
24768,note_on,,,,,320,0,14,,,,,6,,,45,100
24832,note_off,,,,,64,0,8,,,,,1,,,76,100
24864,note_on,,,,,32,0,8,,,,,1,,,69,85
24868,note_off,,,,,100,0,9,,,,,2,,,69,100
24928,note_off,,,,,64,0,8,,,,,1,,,69,100
24960,note_on,,,,,32,0,8,,,,,1,,,73,85
24960,note_on,,,,,92,0,9,,,,,2,,,81,85
24960,note_off,,,,,192,0,10,,,,,3,,,61,100
25024,note_off,,,,,256,0,13,,,,,6,,,69,100
25024,note_off,,,,,256,0,12,,,,,5,,,33,100
25024,note_off,,,,,64,0,8,,,,,1,,,73,100
25024,note_off,,,,,256,0,15,,,,,7,,,69,100
25024,note_off,,,,,0,0,13,,,,,6,,,61,100
25024,note_off,,,,,256,0,14,,,,,6,,,45,100
25024,note_off,,,,,256,0,16,,,,,7,,,45,100
25024,note_off,,,,,0,0,15,,,,,7,,,64,100
25024,note_off,,,,,0,0,15,,,,,7,,,61,100
25024,note_off,,,,,256,0,11,,,,,4,,,45,100
25024,note_off,,,,,0,0,13,,,,,6,,,64,100
25056,note_on,,,,,96,0,10,,,,,3,,,61,85
25056,note_on,,,,,32,0,8,,,,,1,,,76,85
25060,note_off,,,,,100,0,9,,,,,2,,,81,100
25120,note_off,,,,,64,0,8,,,,,1,,,76,100
25120,note_off,,,,,64,0,10,,,,,3,,,61,100
25152,note_on,,,,,32,0,10,,,,,3,,,64,85
25152,note_on,,,,,32,0,8,,,,,1,,,81,85
25152,note_on,,,,,92,0,9,,,,,2,,,69,85
25216,note_off,,,,,64,0,8,,,,,1,,,81,100
25216,note_off,,,,,64,0,10,,,,,3,,,64,100
25248,note_on,,,,,32,0,10,,,,,3,,,61,89
25248,note_on,,,,,32,0,8,,,,,1,,,79,89
25252,note_off,,,,,100,0,9,,,,,2,,,69,100
25312,note_off,,,,,64,0,10,,,,,3,,,61,100
25312,note_off,,,,,64,0,8,,,,,1,,,79,100
25344,note_on,,,,,320,0,16,,,,,7,,,50,100
25344,note_on,,,,,0,0,15,,,,,7,,,69,100
25344,note_on,,,,,0,0,15,,,,,7,,,66,100
25344,note_on,,,,,320,0,15,,,,,7,,,74,100
25344,note_on,,,,,320,0,12,,,,,5,,,38,94
25344,note_on,,,,,320,0,14,,,,,6,,,50,100
25344,note_on,,,,,32,0,8,,,,,1,,,78,94
25344,note_on,,,,,0,0,13,,,,,6,,,74,100
25344,note_on,,,,,32,0,10,,,,,3,,,62,94
25344,note_on,,,,,0,0,13,,,,,6,,,69,100
25344,note_on,,,,,320,0,13,,,,,6,,,66,100
25344,note_on,,,,,92,0,9,,,,,2,,,69,94
25344,note_on,,,,,320,0,11,,,,,4,,,50,94
25408,note_off,,,,,64,0,8,,,,,1,,,78,100
25440,note_on,,,,,32,0,8,,,,,1,,,81,90
25444,note_off,,,,,100,0,10,,,,,3,,,62,100
25444,note_off,,,,,100,0,14,,,,,6,,,50,100
25444,note_off,,,,,100,0,16,,,,,7,,,50,100
25444,note_off,,,,,100,0,12,,,,,5,,,38,100
25444,note_off,,,,,100,0,11,,,,,4,,,50,100
25504,note_off,,,,,64,0,8,,,,,1,,,81,100
25532,note_off,,,,,188,0,15,,,,,7,,,74,100
25532,note_off,,,,,188,0,13,,,,,6,,,74,100
25536,note_on,,,,,4,0,13,,,,,6,,,72,100
25536,note_on,,,,,92,0,10,,,,,3,,,66,91
25536,note_on,,,,,32,0,8,,,,,1,,,72,91
25536,note_on,,,,,92,0,14,,,,,6,,,50,100
25536,note_on,,,,,92,0,16,,,,,7,,,50,100
25536,note_on,,,,,92,0,12,,,,,5,,,38,91
25536,note_on,,,,,4,0,15,,,,,7,,,72,100
25536,note_on,,,,,92,0,11,,,,,4,,,50,91
25536,note_off,,,,,192,0,9,,,,,2,,,69,100
25600,note_off,,,,,64,0,12,,,,,5,,,38,100
25600,note_off,,,,,64,0,14,,,,,6,,,50,100
25600,note_off,,,,,64,0,10,,,,,3,,,66,100
25600,note_off,,,,,64,0,16,,,,,7,,,50,100
25600,note_off,,,,,64,0,11,,,,,4,,,50,100
25632,note_on,,,,,32,0,12,,,,,5,,,40,92
25632,note_on,,,,,32,0,10,,,,,3,,,67,92
25632,note_on,,,,,32,0,14,,,,,6,,,52,100
25632,note_on,,,,,32,0,11,,,,,4,,,52,92
25632,note_on,,,,,32,0,16,,,,,7,,,52,100
25632,note_on,,,,,96,0,9,,,,,2,,,81,92
25696,note_off,,,,,64,0,10,,,,,3,,,67,100
25696,note_off,,,,,64,0,14,,,,,6,,,52,100
25696,note_off,,,,,64,0,9,,,,,2,,,81,100
25696,note_off,,,,,64,0,12,,,,,5,,,40,100
25696,note_off,,,,,64,0,11,,,,,4,,,52,100
25696,note_off,,,,,64,0,16,,,,,7,,,52,100
25728,note_on,,,,,32,0,14,,,,,6,,,54,100
25728,note_on,,,,,32,0,9,,,,,2,,,78,93
25728,note_on,,,,,32,0,10,,,,,3,,,69,93
25728,note_on,,,,,32,0,12,,,,,5,,,42,93
25728,note_on,,,,,32,0,11,,,,,4,,,54,93
25728,note_off,,,,,192,0,8,,,,,1,,,72,100
25728,note_on,,,,,32,0,16,,,,,7,,,54,100
25728,note_off,,,,,192,0,13,,,,,6,,,66,100
25728,note_off,,,,,0,0,13,,,,,6,,,69,100
25728,note_on,,,,,0,0,13,,,,,6,,,62,100
25792,note_off,,,,,64,0,10,,,,,3,,,69,100
25792,note_off,,,,,64,0,16,,,,,7,,,54,100
25792,note_off,,,,,64,0,11,,,,,4,,,54,100
25792,note_off,,,,,64,0,14,,,,,6,,,54,100
25792,note_off,,,,,64,0,13,,,,,6,,,72,100
25792,note_off,,,,,256,0,15,,,,,7,,,72,100
25792,note_off,,,,,64,0,12,,,,,5,,,42,100
25804,note_off,,,,,0,0,15,,,,,7,,,69,100
25804,note_off,,,,,12,0,15,,,,,7,,,66,100
25824,note_on,,,,,32,0,10,,,,,3,,,66,94
25824,note_on,,,,,32,0,11,,,,,4,,,50,94
25824,note_on,,,,,32,0,16,,,,,7,,,50,100
25824,note_on,,,,,96,0,8,,,,,1,,,74,94
25824,note_on,,,,,32,0,12,,,,,5,,,38,94
25824,note_on,,,,,32,0,14,,,,,6,,,50,100
25828,note_off,,,,,100,0,9,,,,,2,,,78,100
25856,note_off,,,,,64,0,13,,,,,6,,,62,100
25888,note_off,,,,,64,0,14,,,,,6,,,50,100
25888,note_off,,,,,64,0,11,,,,,4,,,50,100
25888,note_off,,,,,64,0,8,,,,,1,,,74,100
25888,note_off,,,,,64,0,10,,,,,3,,,66,100
25888,note_off,,,,,64,0,16,,,,,7,,,50,100
25888,note_off,,,,,64,0,12,,,,,5,,,38,100
25920,note_on,,,,,32,0,12,,,,,5,,,43,95
25920,note_on,,,,,32,0,8,,,,,1,,,71,95
25920,note_on,,,,,32,0,10,,,,,3,,,62,95
25920,note_on,,,,,116,0,15,,,,,7,,,67,100
25920,note_on,,,,,92,0,9,,,,,2,,,79,95
25920,note_on,,,,,0,0,15,,,,,7,,,71,100
25920,note_on,,,,,32,0,11,,,,,4,,,55,95
25920,note_on,,,,,32,0,16,,,,,7,,,55,100
25920,note_on,,,,,64,0,13,,,,,6,,,71,100
25920,note_on,,,,,0,0,13,,,,,6,,,67,100
25920,note_on,,,,,32,0,14,,,,,6,,,55,100
25984,note_off,,,,,64,0,8,,,,,1,,,71,100
26016,note_on,,,,,32,0,8,,,,,1,,,83,97
26020,note_off,,,,,100,0,14,,,,,6,,,55,100
26020,note_off,,,,,100,0,16,,,,,7,,,55,100
26020,note_off,,,,,100,0,12,,,,,5,,,43,100
26020,note_off,,,,,100,0,10,,,,,3,,,62,100
26020,note_off,,,,,100,0,11,,,,,4,,,55,100
26080,note_off,,,,,64,0,8,,,,,1,,,83,100
26112,note_on,,,,,192,0,13,,,,,6,,,74,100
26112,note_on,,,,,92,0,16,,,,,7,,,52,100
26112,note_on,,,,,92,0,10,,,,,3,,,67,98
26112,note_on,,,,,92,0,11,,,,,4,,,52,98
26112,note_on,,,,,32,0,8,,,,,1,,,74,98
26112,note_on,,,,,92,0,12,,,,,5,,,40,98
26112,note_on,,,,,92,0,14,,,,,6,,,52,100
26112,note_off,,,,,192,0,9,,,,,2,,,79,100
26176,note_off,,,,,64,0,12,,,,,5,,,40,100
26176,note_off,,,,,64,0,14,,,,,6,,,52,100
26176,note_off,,,,,64,0,16,,,,,7,,,52,100
26176,note_off,,,,,64,0,11,,,,,4,,,52,100
26176,note_off,,,,,64,0,10,,,,,3,,,67,100
26208,note_on,,,,,32,0,10,,,,,3,,,69,99
26208,note_on,,,,,96,0,9,,,,,2,,,83,99
26208,note_on,,,,,32,0,12,,,,,5,,,42,99
26208,note_on,,,,,32,0,11,,,,,4,,,54,99
26208,note_on,,,,,32,0,16,,,,,7,,,54,100
26208,note_on,,,,,32,0,14,,,,,6,,,54,100
26272,note_off,,,,,64,0,10,,,,,3,,,69,100
26272,note_off,,,,,64,0,11,,,,,4,,,54,100
26272,note_off,,,,,64,0,9,,,,,2,,,83,100
26272,note_off,,,,,64,0,16,,,,,7,,,54,100
26272,note_off,,,,,64,0,12,,,,,5,,,42,100
26272,note_off,,,,,64,0,14,,,,,6,,,54,100
26304,note_on,,,,,0,0,13,,,,,6,,,64,100
26304,note_off,,,,,0,0,13,,,,,6,,,67,100
26304,note_on,,,,,32,0,12,,,,,5,,,44,100
26304,note_on,,,,,32,0,9,,,,,2,,,80,100
26304,note_on,,,,,32,0,10,,,,,3,,,71,100
26304,note_off,,,,,192,0,8,,,,,1,,,74,100
26304,note_on,,,,,32,0,14,,,,,6,,,56,100
26304,note_off,,,,,192,0,13,,,,,6,,,71,100
26304,note_on,,,,,32,0,16,,,,,7,,,56,100
26304,note_on,,,,,32,0,11,,,,,4,,,56,100
26368,note_off,,,,,64,0,16,,,,,7,,,56,100
26368,note_off,,,,,64,0,11,,,,,4,,,56,100
26368,note_off,,,,,64,0,10,,,,,3,,,71,100
26368,note_off,,,,,64,0,12,,,,,5,,,44,100
26368,note_off,,,,,64,0,14,,,,,6,,,56,100
26368,note_off,,,,,64,0,13,,,,,6,,,74,100
26380,note_off,,,,,0,0,15,,,,,7,,,71,100
26380,note_off,,,,,460,0,15,,,,,7,,,67,100
26400,note_on,,,,,32,0,14,,,,,6,,,52,100
26400,note_on,,,,,96,0,8,,,,,1,,,76,101
26400,note_on,,,,,32,0,16,,,,,7,,,52,100
26400,note_on,,,,,32,0,12,,,,,5,,,40,101
26400,note_on,,,,,32,0,11,,,,,4,,,52,101
26400,note_on,,,,,32,0,10,,,,,3,,,68,101
26404,note_off,,,,,100,0,9,,,,,2,,,80,100
26432,note_off,,,,,64,0,13,,,,,6,,,64,100
26464,note_off,,,,,64,0,8,,,,,1,,,76,100
26464,note_off,,,,,64,0,10,,,,,3,,,68,100
26464,note_off,,,,,64,0,14,,,,,6,,,52,100
26464,note_off,,,,,64,0,16,,,,,7,,,52,100
26464,note_off,,,,,64,0,11,,,,,4,,,52,100
26464,note_off,,,,,64,0,12,,,,,5,,,40,100
26496,note_on,,,,,92,0,9,,,,,2,,,81,102
26496,note_on,,,,,116,0,15,,,,,7,,,69,100
26496,note_on,,,,,0,0,15,,,,,7,,,73,100
26496,note_on,,,,,32,0,16,,,,,7,,,57,100
26496,note_on,,,,,32,0,10,,,,,3,,,64,102
26496,note_on,,,,,32,0,8,,,,,1,,,73,102
26496,note_on,,,,,0,0,13,,,,,6,,,69,100
26496,note_on,,,,,32,0,14,,,,,6,,,57,100
26496,note_on,,,,,32,0,12,,,,,5,,,45,102
26496,note_on,,,,,64,0,13,,,,,6,,,73,100
26496,note_on,,,,,32,0,11,,,,,4,,,57,102
26560,note_off,,,,,64,0,8,,,,,1,,,73,100
26592,note_on,,,,,32,0,8,,,,,1,,,85,104
26596,note_off,,,,,100,0,10,,,,,3,,,64,100
26596,note_off,,,,,100,0,14,,,,,6,,,57,100
26596,note_off,,,,,100,0,11,,,,,4,,,57,100
26596,note_off,,,,,100,0,12,,,,,5,,,45,100
26596,note_off,,,,,100,0,16,,,,,7,,,57,100
26656,note_off,,,,,64,0,8,,,,,1,,,85,100
26688,note_on,,,,,92,0,10,,,,,3,,,69,105
26688,note_off,,,,,192,0,9,,,,,2,,,81,100
26688,note_on,,,,,92,0,14,,,,,6,,,54,100
26688,note_on,,,,,92,0,12,,,,,5,,,42,105
26688,note_on,,,,,92,0,16,,,,,7,,,54,100
26688,note_on,,,,,192,0,13,,,,,6,,,76,100
26688,note_on,,,,,92,0,11,,,,,4,,,54,105
26688,note_on,,,,,32,0,8,,,,,1,,,76,105
26752,note_off,,,,,64,0,12,,,,,5,,,42,100
26752,note_off,,,,,64,0,10,,,,,3,,,69,100
26752,note_off,,,,,64,0,14,,,,,6,,,54,100
26752,note_off,,,,,64,0,11,,,,,4,,,54,100
26752,note_off,,,,,64,0,16,,,,,7,,,54,100
26784,note_on,,,,,96,0,9,,,,,2,,,85,106
26784,note_on,,,,,32,0,10,,,,,3,,,71,106
26784,note_on,,,,,32,0,14,,,,,6,,,56,100
26784,note_on,,,,,32,0,12,,,,,5,,,44,106
26784,note_on,,,,,32,0,16,,,,,7,,,56,100
26784,note_on,,,,,32,0,11,,,,,4,,,56,106
26848,note_off,,,,,64,0,14,,,,,6,,,56,100
26848,note_off,,,,,64,0,12,,,,,5,,,44,100
26848,note_off,,,,,64,0,9,,,,,2,,,85,100
26848,note_off,,,,,64,0,10,,,,,3,,,71,100
26848,note_off,,,,,64,0,16,,,,,7,,,56,100
26848,note_off,,,,,64,0,11,,,,,4,,,56,100
26880,note_off,,,,,192,0,13,,,,,6,,,73,100
26880,note_on,,,,,384,0,15,,,,,7,,,66,100
26880,note_on,,,,,32,0,9,,,,,2,,,82,107
26880,note_on,,,,,32,0,11,,,,,4,,,58,107
26880,note_off,,,,,192,0,8,,,,,1,,,76,100
26880,note_on,,,,,32,0,10,,,,,3,,,73,107
26880,note_off,,,,,0,0,13,,,,,6,,,69,100
26880,note_on,,,,,0,0,13,,,,,6,,,66,100
26880,note_on,,,,,32,0,16,,,,,7,,,58,100
26880,note_on,,,,,32,0,14,,,,,6,,,58,100
26880,note_on,,,,,32,0,12,,,,,5,,,46,107
26944,note_off,,,,,64,0,13,,,,,6,,,76,100
26944,note_off,,,,,64,0,14,,,,,6,,,58,100
26944,note_off,,,,,64,0,12,,,,,5,,,46,100
26944,note_off,,,,,64,0,16,,,,,7,,,58,100
26944,note_off,,,,,64,0,11,,,,,4,,,58,100
26944,note_off,,,,,64,0,10,,,,,3,,,73,100
26956,note_off,,,,,76,0,15,,,,,7,,,69,100
26956,note_off,,,,,0,0,15,,,,,7,,,73,100
26976,note_on,,,,,96,0,8,,,,,1,,,78,108
26976,note_on,,,,,32,0,10,,,,,3,,,70,108
26976,note_on,,,,,32,0,11,,,,,4,,,54,108
26976,note_on,,,,,32,0,14,,,,,6,,,54,100
26976,note_on,,,,,32,0,12,,,,,5,,,42,108
26976,note_on,,,,,32,0,16,,,,,7,,,54,100
26980,note_off,,,,,100,0,9,,,,,2,,,82,100
27008,note_off,,,,,64,0,13,,,,,6,,,66,100
27008,note_off,,,,,52,0,15,,,,,7,,,66,100
27040,note_off,,,,,64,0,10,,,,,3,,,70,100
27040,note_off,,,,,64,0,11,,,,,4,,,54,100
27040,note_off,,,,,64,0,14,,,,,6,,,54,100
27040,note_off,,,,,64,0,12,,,,,5,,,42,100
27040,note_off,,,,,64,0,8,,,,,1,,,78,100
27040,note_off,,,,,64,0,16,,,,,7,,,54,100
27072,note_on,,,,,32,0,10,,,,,3,,,66,109
27072,note_on,,,,,32,0,16,,,,,7,,,59,100
27072,note_on,,,,,92,0,9,,,,,2,,,83,109
27072,note_on,,,,,0,0,13,,,,,6,,,71,100
27072,note_on,,,,,0,0,13,,,,,6,,,74,100
27072,note_on,,,,,27072,0,7,,,,,0,,,74,100
27072,note_on,,,,,32,0,12,,,,,5,,,47,109
27072,note_on,,,,,32,0,14,,,,,6,,,59,100
27072,note_on,,,,,32,0,11,,,,,4,,,59,109
27072,note_on,,,,,64,0,13,,,,,6,,,66,100
27072,note_on,,,,,64,0,15,,,,,7,,,66,100
27072,note_on,,,,,32,0,8,,,,,1,,,74,109
27072,note_on,,,,,0,0,15,,,,,7,,,71,100
27072,note_on,,,,,0,0,15,,,,,7,,,74,100
27164,note_off,,,,,92,0,7,,,,,0,,,74,100
27168,note_on,,,,,4,0,7,,,,,0,,,78,100
27172,note_off,,,,,100,0,12,,,,,5,,,47,100
27172,note_off,,,,,100,0,14,,,,,6,,,59,100
27172,note_off,,,,,100,0,11,,,,,4,,,59,100
27232,note_off,,,,,64,0,7,,,,,0,,,78,100
27264,note_on,,,,,92,0,14,,,,,6,,,50,100
27264,note_on,,,,,92,0,12,,,,,5,,,38,95
27264,note_on,,,,,32,0,7,,,,,0,,,78,101
27264,note_on,,,,,92,0,11,,,,,4,,,50,95
27328,note_off,,,,,256,0,16,,,,,7,,,59,100
27328,note_off,,,,,0,0,13,,,,,6,,,71,100
27328,note_off,,,,,0,0,13,,,,,6,,,74,100
27328,note_off,,,,,256,0,15,,,,,7,,,66,100
27328,note_off,,,,,0,0,15,,,,,7,,,74,100
27328,note_off,,,,,256,0,13,,,,,6,,,66,100
27328,note_off,,,,,0,0,15,,,,,7,,,71,100
27328,note_off,,,,,256,0,9,,,,,2,,,83,100
27328,note_off,,,,,256,0,10,,,,,3,,,66,100
27328,note_off,,,,,256,0,8,,,,,1,,,74,100
27356,note_off,,,,,92,0,7,,,,,0,,,78,100
27360,note_on,,,,,4,0,7,,,,,0,,,83,102
27364,note_off,,,,,100,0,14,,,,,6,,,50,100
27364,note_off,,,,,100,0,11,,,,,4,,,50,100
27364,note_off,,,,,100,0,12,,,,,5,,,38,100
27424,note_off,,,,,64,0,7,,,,,0,,,83,100
27456,program_change,,,,,128,0,9,,,,,2,40,,,
27456,note_on,,,,,92,0,11,,,,,4,,,47,88
27456,note_on,,,,,92,0,12,,,,,5,,,35,88
27456,program_change,,,,,128,0,8,,,,,1,40,,,
27456,note_on,,,,,92,0,14,,,,,6,,,47,100
27456,note_on,,,,,32,0,7,,,,,0,,,83,103
27548,note_off,,,,,92,0,7,,,,,0,,,83,100
27552,note_on,,,,,4,0,7,,,,,0,,,86,104
27556,note_off,,,,,100,0,12,,,,,5,,,35,100
27556,note_off,,,,,100,0,11,,,,,4,,,47,100
27556,note_off,,,,,100,0,14,,,,,6,,,47,100
27616,note_off,,,,,64,0,7,,,,,0,,,86,100
27648,note_on,,,,,320,0,13,,,,,6,,,62,100
27648,note_on,,,,,0,0,13,,,,,6,,,66,100
27648,note_on,,,,,92,0,11,,,,,4,,,47,80
27648,note_on,,,,,92,0,14,,,,,6,,,47,100
27648,note_on,,,,,192,0,9,,,,,2,,,78,92
27648,note_on,,,,,32,0,7,,,,,0,,,86,105
27648,note_on,,,,,92,0,12,,,,,5,,,35,80
27740,note_off,,,,,92,0,7,,,,,0,,,86,100
27744,note_on,,,,,4,0,7,,,,,0,,,83,104
27748,note_off,,,,,100,0,12,,,,,5,,,35,100
27748,note_off,,,,,100,0,11,,,,,4,,,47,100
27748,note_off,,,,,100,0,14,,,,,6,,,47,100
27748,note_off,,,,,100,0,9,,,,,2,,,78,100
27748,note_off,,,,,0,0,13,,,,,6,,,66,100
27748,note_off,,,,,100,0,13,,,,,6,,,62,100
27808,note_off,,,,,64,0,7,,,,,0,,,83,100
27840,note_on,,,,,92,0,14,,,,,6,,,47,100
27840,note_on,,,,,92,0,9,,,,,2,,,74,92
27840,note_on,,,,,0,0,13,,,,,6,,,66,100
27840,note_on,,,,,92,0,11,,,,,4,,,47,80
27840,note_on,,,,,92,0,13,,,,,6,,,62,100
27840,note_on,,,,,92,0,12,,,,,5,,,35,80
27840,note_on,,,,,32,0,7,,,,,0,,,83,103
27932,note_off,,,,,92,0,7,,,,,0,,,83,100
27936,note_on,,,,,4,0,7,,,,,0,,,78,102
27940,note_off,,,,,100,0,11,,,,,4,,,47,100
27940,note_off,,,,,0,0,13,,,,,6,,,66,100
27940,note_off,,,,,100,0,9,,,,,2,,,74,100
27940,note_off,,,,,100,0,13,,,,,6,,,62,100
27940,note_off,,,,,100,0,14,,,,,6,,,47,100
27940,note_off,,,,,100,0,12,,,,,5,,,35,100
28000,note_off,,,,,64,0,7,,,,,0,,,78,100
28032,note_on,,,,,92,0,11,,,,,4,,,47,80
28032,note_on,,,,,92,0,14,,,,,6,,,47,100
28032,note_on,,,,,92,0,12,,,,,5,,,35,80
28032,note_on,,,,,92,0,9,,,,,2,,,71,92
28032,note_on,,,,,32,0,7,,,,,0,,,78,101
28032,note_on,,,,,92,0,13,,,,,6,,,62,100
28032,note_on,,,,,0,0,13,,,,,6,,,66,100
28124,note_off,,,,,92,0,7,,,,,0,,,78,100
28128,note_on,,,,,4,0,7,,,,,0,,,79,100
28132,note_off,,,,,100,0,14,,,,,6,,,47,100
28132,note_off,,,,,0,0,13,,,,,6,,,66,100
28132,note_off,,,,,100,0,13,,,,,6,,,62,100
28132,note_off,,,,,100,0,11,,,,,4,,,47,100
28132,note_off,,,,,100,0,12,,,,,5,,,35,100
28132,note_off,,,,,100,0,9,,,,,2,,,71,100
28192,note_off,,,,,64,0,7,,,,,0,,,79,100
28224,note_on,,,,,92,0,13,,,,,6,,,67,100
28224,note_on,,,,,92,0,11,,,,,4,,,52,80
28224,note_on,,,,,0,0,13,,,,,6,,,71,100
28224,note_on,,,,,92,0,12,,,,,5,,,40,80
28224,note_on,,,,,768,0,8,,,,,1,,,83,92
28224,note_on,,,,,32,0,7,,,,,0,,,79,99
28224,note_on,,,,,92,0,9,,,,,2,,,67,92
28224,note_on,,,,,92,0,14,,,,,6,,,52,100
28316,note_off,,,,,92,0,7,,,,,0,,,79,100
28320,note_on,,,,,4,0,7,,,,,0,,,76,96
28324,note_off,,,,,100,0,13,,,,,6,,,67,100
28324,note_off,,,,,100,0,8,,,,,1,,,83,100
28324,note_off,,,,,100,0,12,,,,,5,,,40,100
28324,note_off,,,,,0,0,13,,,,,6,,,71,100
28324,note_off,,,,,100,0,11,,,,,4,,,52,100
28324,note_off,,,,,100,0,14,,,,,6,,,52,100
28384,note_off,,,,,64,0,7,,,,,0,,,76,100
28416,note_on,,,,,92,0,11,,,,,4,,,52,80
28416,note_on,,,,,92,0,14,,,,,6,,,52,100
28416,note_on,,,,,32,0,7,,,,,0,,,76,98
28416,note_on,,,,,92,0,13,,,,,6,,,67,100
28416,note_on,,,,,0,0,13,,,,,6,,,71,100
28416,note_on,,,,,92,0,12,,,,,5,,,40,80
28416,note_on,,,,,92,0,8,,,,,1,,,79,92
28480,note_off,,,,,256,0,9,,,,,2,,,67,100
28508,note_off,,,,,92,0,7,,,,,0,,,76,100
28512,note_on,,,,,4,0,7,,,,,0,,,79,99
28516,note_off,,,,,100,0,11,,,,,4,,,52,100
28516,note_off,,,,,100,0,12,,,,,5,,,40,100
28516,note_off,,,,,100,0,8,,,,,1,,,79,100
28516,note_off,,,,,0,0,13,,,,,6,,,71,100
28516,note_off,,,,,100,0,14,,,,,6,,,52,100
28516,note_off,,,,,100,0,13,,,,,6,,,67,100
28576,note_off,,,,,64,0,7,,,,,0,,,79,100
28608,note_on,,,,,92,0,13,,,,,6,,,67,100
28608,note_on,,,,,92,0,11,,,,,4,,,52,80
28608,note_on,,,,,0,0,13,,,,,6,,,71,100
28608,note_on,,,,,92,0,14,,,,,6,,,52,100
28608,note_on,,,,,92,0,12,,,,,5,,,40,80
28608,note_on,,,,,92,0,8,,,,,1,,,76,92
28608,note_on,,,,,32,0,7,,,,,0,,,79,101
28700,note_off,,,,,92,0,7,,,,,0,,,79,100
28704,note_on,,,,,4,0,7,,,,,0,,,85,103
28708,note_off,,,,,100,0,11,,,,,4,,,52,100
28708,note_off,,,,,100,0,8,,,,,1,,,76,100
28708,note_off,,,,,0,0,13,,,,,6,,,71,100
28708,note_off,,,,,100,0,13,,,,,6,,,67,100
28708,note_off,,,,,100,0,14,,,,,6,,,52,100
28708,note_off,,,,,100,0,12,,,,,5,,,40,100
28768,note_off,,,,,64,0,7,,,,,0,,,85,100
28800,note_on,,,,,92,0,14,,,,,6,,,57,100
28800,note_on,,,,,92,0,12,,,,,5,,,45,80
28800,note_on,,,,,92,0,8,,,,,1,,,73,92
28800,note_on,,,,,32,0,7,,,,,0,,,85,105
28800,note_on,,,,,320,0,9,,,,,2,,,76,92
28800,note_on,,,,,92,0,11,,,,,4,,,57,80
28800,note_on,,,,,0,0,13,,,,,6,,,73,100
28800,note_on,,,,,92,0,13,,,,,6,,,64,100
28892,note_off,,,,,92,0,7,,,,,0,,,85,100
28896,note_on,,,,,4,0,7,,,,,0,,,81,104
28900,note_off,,,,,0,0,13,,,,,6,,,73,100
28900,note_off,,,,,100,0,11,,,,,4,,,57,100
28900,note_off,,,,,100,0,14,,,,,6,,,57,100
28900,note_off,,,,,100,0,13,,,,,6,,,64,100
28900,note_off,,,,,100,0,9,,,,,2,,,76,100
28900,note_off,,,,,100,0,12,,,,,5,,,45,100
28960,note_off,,,,,64,0,7,,,,,0,,,81,100
28992,note_on,,,,,92,0,13,,,,,6,,,64,100
28992,note_on,,,,,92,0,11,,,,,4,,,57,80
28992,note_on,,,,,92,0,14,,,,,6,,,57,100
28992,note_on,,,,,92,0,9,,,,,2,,,73,92
28992,note_on,,,,,32,0,7,,,,,0,,,81,103
28992,note_on,,,,,0,0,13,,,,,6,,,73,100
28992,note_on,,,,,92,0,12,,,,,5,,,45,80
29056,note_off,,,,,256,0,8,,,,,1,,,73,100
29084,note_off,,,,,92,0,7,,,,,0,,,81,100
29088,note_on,,,,,4,0,7,,,,,0,,,76,102
29092,note_off,,,,,0,0,13,,,,,6,,,73,100
29092,note_off,,,,,100,0,12,,,,,5,,,45,100
29092,note_off,,,,,100,0,11,,,,,4,,,57,100
29092,note_off,,,,,100,0,14,,,,,6,,,57,100
29092,note_off,,,,,100,0,9,,,,,2,,,73,100
29092,note_off,,,,,100,0,13,,,,,6,,,64,100
29152,note_off,,,,,64,0,7,,,,,0,,,76,100
29184,note_on,,,,,92,0,9,,,,,2,,,69,92
29184,note_on,,,,,32,0,7,,,,,0,,,76,101
29184,note_on,,,,,92,0,11,,,,,4,,,57,80
29184,note_on,,,,,92,0,14,,,,,6,,,57,100
29184,note_on,,,,,0,0,13,,,,,6,,,73,100
29184,note_on,,,,,92,0,13,,,,,6,,,64,100
29184,note_on,,,,,92,0,12,,,,,5,,,45,80
29276,note_off,,,,,92,0,7,,,,,0,,,76,100
29280,note_on,,,,,4,0,7,,,,,0,,,78,100
29284,note_off,,,,,0,0,13,,,,,6,,,73,100
29284,note_off,,,,,100,0,13,,,,,6,,,64,100
29284,note_off,,,,,100,0,11,,,,,4,,,57,100
29284,note_off,,,,,100,0,12,,,,,5,,,45,100
29284,note_off,,,,,100,0,14,,,,,6,,,57,100
29284,note_off,,,,,100,0,9,,,,,2,,,69,100
29344,note_off,,,,,64,0,7,,,,,0,,,78,100
29376,note_on,,,,,0,0,13,,,,,6,,,69,100
29376,note_on,,,,,92,0,11,,,,,4,,,50,80
29376,note_on,,,,,320,0,8,,,,,1,,,81,92
29376,note_on,,,,,92,0,9,,,,,2,,,66,92
29376,note_on,,,,,92,0,12,,,,,5,,,38,80
29376,note_on,,,,,92,0,14,,,,,6,,,50,100
29376,note_on,,,,,32,0,7,,,,,0,,,78,99
29376,note_on,,,,,92,0,13,,,,,6,,,66,100
29468,note_off,,,,,92,0,7,,,,,0,,,78,100
29472,note_on,,,,,4,0,7,,,,,0,,,74,96
29476,note_off,,,,,100,0,11,,,,,4,,,50,100
29476,note_off,,,,,100,0,14,,,,,6,,,50,100
29476,note_off,,,,,100,0,8,,,,,1,,,81,100
29476,note_off,,,,,100,0,12,,,,,5,,,38,100
29476,note_off,,,,,0,0,13,,,,,6,,,69,100
29476,note_off,,,,,100,0,13,,,,,6,,,66,100
29536,note_off,,,,,64,0,7,,,,,0,,,74,100
29568,note_on,,,,,92,0,12,,,,,5,,,38,80
29568,note_on,,,,,92,0,11,,,,,4,,,50,80
29568,note_on,,,,,32,0,7,,,,,0,,,74,98
29568,note_on,,,,,92,0,14,,,,,6,,,50,100
29568,note_on,,,,,92,0,8,,,,,1,,,78,92
29568,note_on,,,,,0,0,13,,,,,6,,,69,100
29568,note_on,,,,,92,0,13,,,,,6,,,66,100
29632,note_off,,,,,256,0,9,,,,,2,,,66,100
29660,note_off,,,,,92,0,7,,,,,0,,,74,100
29664,note_on,,,,,4,0,7,,,,,0,,,78,99
29668,note_off,,,,,0,0,13,,,,,6,,,69,100
29668,note_off,,,,,100,0,12,,,,,5,,,38,100
29668,note_off,,,,,100,0,14,,,,,6,,,50,100
29668,note_off,,,,,100,0,11,,,,,4,,,50,100
29668,note_off,,,,,100,0,13,,,,,6,,,66,100
29668,note_off,,,,,100,0,8,,,,,1,,,78,100
29728,note_off,,,,,64,0,7,,,,,0,,,78,100
29760,note_on,,,,,92,0,11,,,,,4,,,50,80
29760,note_on,,,,,32,0,7,,,,,0,,,78,101
29760,note_on,,,,,0,0,13,,,,,6,,,69,100
29760,note_on,,,,,92,0,13,,,,,6,,,66,100
29760,note_on,,,,,92,0,8,,,,,1,,,74,92
29760,note_on,,,,,92,0,12,,,,,5,,,38,80
29760,note_on,,,,,92,0,14,,,,,6,,,50,100
29852,note_off,,,,,92,0,7,,,,,0,,,78,100
29856,note_on,,,,,4,0,7,,,,,0,,,83,103
29860,note_off,,,,,100,0,8,,,,,1,,,74,100
29860,note_off,,,,,100,0,12,,,,,5,,,38,100
29860,note_off,,,,,100,0,14,,,,,6,,,50,100
29860,note_off,,,,,100,0,13,,,,,6,,,66,100
29860,note_off,,,,,0,0,13,,,,,6,,,69,100
29860,note_off,,,,,100,0,11,,,,,4,,,50,100
29920,note_off,,,,,64,0,7,,,,,0,,,83,100
29952,note_on,,,,,92,0,13,,,,,6,,,62,100
29952,note_on,,,,,0,0,13,,,,,6,,,71,100
29952,note_on,,,,,92,0,14,,,,,6,,,55,100
29952,note_on,,,,,32,0,7,,,,,0,,,83,105
29952,note_on,,,,,92,0,8,,,,,1,,,71,92
29952,note_on,,,,,92,0,12,,,,,5,,,43,80
29952,note_on,,,,,320,0,9,,,,,2,,,74,92
29952,note_on,,,,,92,0,11,,,,,4,,,55,80
30044,note_off,,,,,92,0,7,,,,,0,,,83,100
30048,note_on,,,,,4,0,7,,,,,0,,,79,104
30052,note_off,,,,,0,0,13,,,,,6,,,71,100
30052,note_off,,,,,100,0,9,,,,,2,,,74,100
30052,note_off,,,,,100,0,13,,,,,6,,,62,100
30052,note_off,,,,,100,0,14,,,,,6,,,55,100
30052,note_off,,,,,100,0,12,,,,,5,,,43,100
30052,note_off,,,,,100,0,11,,,,,4,,,55,100
30112,note_off,,,,,64,0,7,,,,,0,,,79,100
30144,note_on,,,,,92,0,12,,,,,5,,,43,80
30144,note_on,,,,,92,0,9,,,,,2,,,71,92
30144,note_on,,,,,92,0,11,,,,,4,,,55,80
30144,note_on,,,,,0,0,13,,,,,6,,,71,100
30144,note_on,,,,,32,0,7,,,,,0,,,79,103
30144,note_on,,,,,92,0,13,,,,,6,,,62,100
30144,note_on,,,,,92,0,14,,,,,6,,,55,100
30208,note_off,,,,,256,0,8,,,,,1,,,71,100
30236,note_off,,,,,92,0,7,,,,,0,,,79,100
30240,note_on,,,,,4,0,7,,,,,0,,,74,102
30244,note_off,,,,,100,0,14,,,,,6,,,55,100
30244,note_off,,,,,100,0,11,,,,,4,,,55,100
30244,note_off,,,,,100,0,12,,,,,5,,,43,100
30244,note_off,,,,,100,0,9,,,,,2,,,71,100
30244,note_off,,,,,0,0,13,,,,,6,,,71,100
30244,note_off,,,,,100,0,13,,,,,6,,,62,100
30304,note_off,,,,,64,0,7,,,,,0,,,74,100
30336,note_on,,,,,92,0,9,,,,,2,,,67,92
30336,note_on,,,,,0,0,13,,,,,6,,,71,100
30336,note_on,,,,,92,0,11,,,,,4,,,55,80
30336,note_on,,,,,92,0,13,,,,,6,,,62,100
30336,note_on,,,,,92,0,12,,,,,5,,,43,80
30336,note_on,,,,,92,0,14,,,,,6,,,55,100
30336,note_on,,,,,32,0,7,,,,,0,,,74,101
30428,note_off,,,,,92,0,7,,,,,0,,,74,100
30432,note_on,,,,,4,0,7,,,,,0,,,76,100
30436,note_off,,,,,100,0,11,,,,,4,,,55,100
30436,note_off,,,,,0,0,13,,,,,6,,,71,100
30436,note_off,,,,,100,0,9,,,,,2,,,67,100
30436,note_off,,,,,100,0,14,,,,,6,,,55,100
30436,note_off,,,,,100,0,12,,,,,5,,,43,100
30436,note_off,,,,,100,0,13,,,,,6,,,62,100
30496,note_off,,,,,64,0,7,,,,,0,,,76,100
30528,note_on,,,,,92,0,9,,,,,2,,,64,92
30528,note_on,,,,,32,0,7,,,,,0,,,76,99
30528,note_on,,,,,92,0,14,,,,,6,,,49,100
30528,note_on,,,,,320,0,8,,,,,1,,,76,92
30528,note_on,,,,,0,0,13,,,,,6,,,64,100
30528,note_on,,,,,92,0,13,,,,,6,,,70,100
30528,note_on,,,,,92,0,12,,,,,5,,,37,80
30528,note_on,,,,,92,0,11,,,,,4,,,49,80
30620,note_off,,,,,92,0,7,,,,,0,,,76,100
30624,note_on,,,,,4,0,7,,,,,0,,,73,96
30628,note_off,,,,,100,0,11,,,,,4,,,49,100
30628,note_off,,,,,100,0,14,,,,,6,,,49,100
30628,note_off,,,,,0,0,13,,,,,6,,,64,100
30628,note_off,,,,,100,0,13,,,,,6,,,70,100
30628,note_off,,,,,100,0,12,,,,,5,,,37,100
30628,note_off,,,,,100,0,8,,,,,1,,,76,100
30688,note_off,,,,,64,0,7,,,,,0,,,73,100
30720,note_on,,,,,92,0,12,,,,,5,,,37,80
30720,note_on,,,,,92,0,13,,,,,6,,,70,100
30720,note_on,,,,,92,0,14,,,,,6,,,49,100
30720,note_on,,,,,92,0,8,,,,,1,,,73,92
30720,note_on,,,,,92,0,11,,,,,4,,,49,80
30720,note_on,,,,,32,0,7,,,,,0,,,73,97
30720,note_on,,,,,0,0,13,,,,,6,,,64,100
30784,note_off,,,,,256,0,9,,,,,2,,,64,100
30812,note_off,,,,,92,0,7,,,,,0,,,73,100
30816,note_on,,,,,4,0,7,,,,,0,,,76,99
30820,note_off,,,,,100,0,13,,,,,6,,,70,100
30820,note_off,,,,,0,0,13,,,,,6,,,64,100
30820,note_off,,,,,100,0,12,,,,,5,,,37,100
30820,note_off,,,,,100,0,11,,,,,4,,,49,100
30820,note_off,,,,,100,0,14,,,,,6,,,49,100
30820,note_off,,,,,100,0,8,,,,,1,,,73,100
30880,note_off,,,,,64,0,7,,,,,0,,,76,100
30912,note_on,,,,,92,0,13,,,,,6,,,70,100
30912,note_on,,,,,0,0,13,,,,,6,,,64,100
30912,note_on,,,,,92,0,11,,,,,4,,,49,80
30912,note_on,,,,,92,0,14,,,,,6,,,49,100
30912,note_on,,,,,92,0,8,,,,,1,,,70,92
30912,note_on,,,,,92,0,12,,,,,5,,,37,80
30912,note_on,,,,,32,0,7,,,,,0,,,76,101
31004,note_off,,,,,92,0,7,,,,,0,,,76,100
31008,note_on,,,,,4,0,7,,,,,0,,,82,103
31012,note_off,,,,,100,0,12,,,,,5,,,37,100
31012,note_off,,,,,0,0,13,,,,,6,,,64,100
31012,note_off,,,,,100,0,13,,,,,6,,,70,100
31012,note_off,,,,,100,0,14,,,,,6,,,49,100
31012,note_off,,,,,100,0,11,,,,,4,,,49,100
31012,note_off,,,,,100,0,8,,,,,1,,,70,100
31072,note_off,,,,,64,0,7,,,,,0,,,82,100
31104,note_on,,,,,92,0,12,,,,,5,,,42,80
31104,note_on,,,,,92,0,11,,,,,4,,,54,80
31104,note_on,,,,,92,0,8,,,,,1,,,66,92
31104,note_on,,,,,0,0,13,,,,,6,,,70,100
31104,note_on,,,,,92,0,14,,,,,6,,,54,100
31104,note_on,,,,,320,0,9,,,,,2,,,76,92
31104,note_on,,,,,32,0,7,,,,,0,,,82,105
31104,note_on,,,,,92,0,13,,,,,6,,,61,100
31196,note_off,,,,,92,0,7,,,,,0,,,82,100
31200,note_on,,,,,4,0,7,,,,,0,,,78,104
31204,note_off,,,,,100,0,13,,,,,6,,,61,100
31204,note_off,,,,,100,0,9,,,,,2,,,76,100
31204,note_off,,,,,0,0,13,,,,,6,,,70,100
31204,note_off,,,,,100,0,11,,,,,4,,,54,100
31204,note_off,,,,,100,0,14,,,,,6,,,54,100
31204,note_off,,,,,100,0,12,,,,,5,,,42,100
31264,note_off,,,,,64,0,7,,,,,0,,,78,100
31296,note_on,,,,,32,0,7,,,,,0,,,78,103
31296,note_on,,,,,92,0,14,,,,,6,,,54,100
31296,note_on,,,,,92,0,9,,,,,2,,,73,92
31296,note_on,,,,,0,0,13,,,,,6,,,70,100
31296,note_on,,,,,92,0,13,,,,,6,,,61,100
31296,note_on,,,,,92,0,11,,,,,4,,,54,80
31296,note_on,,,,,92,0,12,,,,,5,,,42,80
31360,note_off,,,,,256,0,8,,,,,1,,,66,100
31388,note_off,,,,,92,0,7,,,,,0,,,78,100
31392,note_on,,,,,4,0,7,,,,,0,,,73,101
31396,note_off,,,,,100,0,14,,,,,6,,,54,100
31396,note_off,,,,,0,0,13,,,,,6,,,70,100
31396,note_off,,,,,100,0,9,,,,,2,,,73,100
31396,note_off,,,,,100,0,12,,,,,5,,,42,100
31396,note_off,,,,,100,0,11,,,,,4,,,54,100
31396,note_off,,,,,100,0,13,,,,,6,,,61,100
31456,note_off,,,,,64,0,7,,,,,0,,,73,100
31488,note_on,,,,,92,0,9,,,,,2,,,70,92
31488,note_on,,,,,92,0,12,,,,,5,,,42,80
31488,note_on,,,,,92,0,11,,,,,4,,,54,80
31488,note_on,,,,,0,0,13,,,,,6,,,70,100
31488,note_on,,,,,32,0,7,,,,,0,,,73,100
31488,note_on,,,,,92,0,14,,,,,6,,,54,100
31488,note_on,,,,,92,0,13,,,,,6,,,61,100
31580,note_off,,,,,92,0,7,,,,,0,,,73,100
31584,note_on,,,,,4,0,7,,,,,0,,,74,98
31588,note_off,,,,,100,0,9,,,,,2,,,70,100
31588,note_off,,,,,0,0,13,,,,,6,,,70,100
31588,note_off,,,,,100,0,14,,,,,6,,,54,100
31588,note_off,,,,,100,0,12,,,,,5,,,42,100
31588,note_off,,,,,100,0,11,,,,,4,,,54,100
31588,note_off,,,,,100,0,13,,,,,6,,,61,100
31648,note_off,,,,,64,0,7,,,,,0,,,74,100
31680,note_on,,,,,92,0,13,,,,,6,,,62,100
31680,note_on,,,,,0,0,13,,,,,6,,,66,100
31680,note_on,,,,,0,0,13,,,,,6,,,71,100
31680,note_on,,,,,92,0,11,,,,,4,,,59,80
31680,note_on,,,,,32,0,7,,,,,0,,,74,97
31680,note_on,,,,,92,0,14,,,,,6,,,59,100
31680,note_on,,,,,92,0,12,,,,,5,,,47,80
31680,note_on,,,,,92,0,9,,,,,2,,,66,92
31744,note_off,,,,,64,0,7,,,,,0,,,74,100
31776,note_on,,,,,32,0,7,,,,,0,,,71,92
31868,note_off,,,,,92,0,7,,,,,0,,,71,100
31872,note_on,,,,,4,0,7,,,,,0,,,73,93
31936,note_off,,,,,256,0,11,,,,,4,,,59,100
31936,note_off,,,,,256,0,12,,,,,5,,,47,100
31936,note_off,,,,,256,0,9,,,,,2,,,66,100
31936,note_off,,,,,256,0,14,,,,,6,,,59,100
31936,note_off,,,,,0,0,13,,,,,6,,,71,100
31936,note_off,,,,,0,0,13,,,,,6,,,66,100
31936,note_off,,,,,256,0,13,,,,,6,,,62,100
31964,note_off,,,,,92,0,7,,,,,0,,,73,100
31968,note_on,,,,,4,0,7,,,,,0,,,74,93
32060,note_off,,,,,92,0,7,,,,,0,,,74,100
32064,note_on,,,,,4,0,7,,,,,0,,,73,94
32156,note_off,,,,,92,0,7,,,,,0,,,73,100
32160,note_on,,,,,4,0,7,,,,,0,,,71,94
32224,note_off,,,,,64,0,7,,,,,0,,,71,100
32256,note_on,,,,,320,0,11,,,,,4,,,55,83
32256,note_on,,,,,0,0,13,,,,,6,,,67,100
32256,program_change,,,,,896,0,8,,,,,1,48,,,
32256,note_on,,,,,320,0,12,,,,,5,,,43,83
32256,note_on,,,,,0,0,13,,,,,6,,,64,100
32256,note_on,,,,,320,0,14,,,,,6,,,55,100
32256,note_on,,,,,320,0,13,,,,,6,,,71,100
32256,program_change,,,,,320,0,9,,,,,2,48,,,
32256,note_on,,,,,32,0,7,,,,,0,,,76,98
32320,note_off,,,,,64,0,7,,,,,0,,,76,100
32352,note_on,,,,,32,0,7,,,,,0,,,71,95
32444,note_off,,,,,92,0,7,,,,,0,,,71,100
32448,note_on,,,,,4,0,7,,,,,0,,,73,96
32512,note_off,,,,,256,0,13,,,,,6,,,71,100
32512,note_off,,,,,0,0,13,,,,,6,,,64,100
32512,note_off,,,,,0,0,13,,,,,6,,,67,100
32512,note_off,,,,,256,0,12,,,,,5,,,43,100
32512,note_off,,,,,256,0,11,,,,,4,,,55,100
32512,note_off,,,,,256,0,14,,,,,6,,,55,100
32540,note_off,,,,,92,0,7,,,,,0,,,73,100
32544,note_on,,,,,4,0,7,,,,,0,,,74,96
32636,note_off,,,,,92,0,7,,,,,0,,,74,100
32640,note_on,,,,,4,0,7,,,,,0,,,73,97
32732,note_off,,,,,92,0,7,,,,,0,,,73,100
32736,note_on,,,,,4,0,7,,,,,0,,,71,97
32800,note_off,,,,,64,0,7,,,,,0,,,71,100
32832,note_on,,,,,32,0,7,,,,,0,,,78,101
32832,note_on,,,,,320,0,12,,,,,5,,,38,87
32832,note_on,,,,,320,0,11,,,,,4,,,50,87
32832,note_on,,,,,0,0,13,,,,,6,,,71,100
32832,note_on,,,,,0,0,13,,,,,6,,,66,100
32832,note_on,,,,,320,0,14,,,,,6,,,50,100
32832,note_on,,,,,320,0,13,,,,,6,,,59,100
32896,note_off,,,,,64,0,7,,,,,0,,,78,100
32928,note_on,,,,,32,0,7,,,,,0,,,71,99
33020,note_off,,,,,92,0,7,,,,,0,,,71,100
33024,note_on,,,,,4,0,7,,,,,0,,,73,99
33088,note_off,,,,,256,0,12,,,,,5,,,38,100
33088,note_off,,,,,256,0,14,,,,,6,,,50,100
33088,note_off,,,,,256,0,13,,,,,6,,,59,100
33088,note_off,,,,,0,0,13,,,,,6,,,71,100
33088,note_off,,,,,0,0,13,,,,,6,,,66,100
33088,note_off,,,,,256,0,11,,,,,4,,,50,100
33116,note_off,,,,,92,0,7,,,,,0,,,73,100
33120,note_on,,,,,4,0,7,,,,,0,,,74,100
33212,note_off,,,,,92,0,7,,,,,0,,,74,100
33216,note_on,,,,,4,0,7,,,,,0,,,73,100
33308,note_off,,,,,92,0,7,,,,,0,,,73,100
33312,note_on,,,,,4,0,7,,,,,0,,,71,101
33376,note_off,,,,,64,0,7,,,,,0,,,71,100
33408,note_on,,,,,0,0,13,,,,,6,,,64,100
33408,note_on,,,,,320,0,14,,,,,6,,,52,100
33408,note_on,,,,,0,0,13,,,,,6,,,67,100
33408,note_on,,,,,320,0,13,,,,,6,,,59,100
33408,note_on,,,,,320,0,12,,,,,5,,,40,91
33408,note_on,,,,,32,0,7,,,,,0,,,79,104
33408,note_on,,,,,320,0,11,,,,,4,,,52,91
33472,note_off,,,,,64,0,7,,,,,0,,,79,100
33504,set_tempo,,,,,11616,1,0,,526315,,,,,,,
33504,note_on,,,,,32,0,7,,,,,0,,,71,102
33552,set_tempo,,,,,48,1,0,,528634,,,,,,,
33596,note_off,,,,,92,0,7,,,,,0,,,71,100
33600,note_on,,,,,4,0,7,,,,,0,,,73,102
33600,set_tempo,,,,,48,1,0,,530973,,,,,,,
33648,set_tempo,,,,,48,1,0,,533333,,,,,,,
33664,note_off,,,,,256,0,11,,,,,4,,,52,100
33664,note_off,,,,,256,0,12,,,,,5,,,40,100
33664,note_off,,,,,256,0,13,,,,,6,,,59,100
33664,note_off,,,,,0,0,13,,,,,6,,,64,100
33664,note_off,,,,,0,0,13,,,,,6,,,67,100
33664,note_off,,,,,256,0,14,,,,,6,,,52,100
33692,note_off,,,,,92,0,7,,,,,0,,,73,100
33696,set_tempo,,,,,48,1,0,,535714,,,,,,,
33696,note_on,,,,,4,0,7,,,,,0,,,74,103
33744,set_tempo,,,,,48,1,0,,538116,,,,,,,
33788,note_off,,,,,92,0,7,,,,,0,,,74,100
33792,set_tempo,,,,,48,1,0,,540540,,,,,,,
33792,note_on,,,,,4,0,7,,,,,0,,,73,103
33840,set_tempo,,,,,48,1,0,,542986,,,,,,,
33884,note_off,,,,,92,0,7,,,,,0,,,73,100
33888,set_tempo,,,,,48,1,0,,612244,,,,,,,
33888,note_on,,,,,4,0,7,,,,,0,,,71,104
33952,note_off,,,,,64,0,7,,,,,0,,,71,100
33984,note_on,,,,,320,0,12,,,,,5,,,42,94
33984,note_on,,,,,32,0,7,,,,,0,,,82,104
33984,note_on,,,,,320,0,14,,,,,6,,,54,100
33984,note_on,,,,,320,0,11,,,,,4,,,54,94
33984,note_on,,,,,320,0,13,,,,,6,,,73,100
33984,note_on,,,,,0,0,13,,,,,6,,,70,100
34176,note_off,,,,,192,0,12,,,,,5,,,42,100
34176,note_off,,,,,0,0,13,,,,,6,,,70,100
34176,note_off,,,,,192,0,11,,,,,4,,,54,100
34176,note_off,,,,,192,0,7,,,,,0,,,82,100
34176,set_tempo,,,,,288,1,0,,526315,,,,,,,
34176,note_off,,,,,192,0,13,,,,,6,,,73,100
34176,note_off,,,,,192,0,14,,,,,6,,,54,100
34272,note_on,,,,,96,0,14,,,,,6,,,52,100
34272,note_on,,,,,96,0,12,,,,,5,,,40,91
34272,note_on,,,,,96,0,7,,,,,0,,,78,103
34272,note_on,,,,,96,0,11,,,,,4,,,52,91
34272,note_on,,,,,96,0,13,,,,,6,,,70,100
34336,note_off,,,,,64,0,11,,,,,4,,,52,100
34336,note_off,,,,,64,0,13,,,,,6,,,70,100
34336,note_off,,,,,64,0,7,,,,,0,,,78,100
34336,note_off,,,,,64,0,14,,,,,6,,,52,100
34336,note_off,,,,,64,0,12,,,,,5,,,40,100
34368,note_on,,,,,32,0,11,,,,,4,,,50,90
34368,note_on,,,,,32,0,13,,,,,6,,,71,100
34368,note_on,,,,,0,0,13,,,,,6,,,66,100
34368,note_on,,,,,32,0,14,,,,,6,,,50,100
34368,note_on,,,,,32,0,7,,,,,0,,,83,101
34368,note_on,,,,,32,0,12,,,,,5,,,38,90
34432,note_off,,,,,64,0,7,,,,,0,,,83,100
34464,note_on,,,,,32,0,7,,,,,0,,,74,99
34468,note_off,,,,,100,0,12,,,,,5,,,38,100
34468,note_off,,,,,100,0,14,,,,,6,,,50,100
34468,note_off,,,,,100,0,11,,,,,4,,,50,100
34468,note_off,,,,,100,0,13,,,,,6,,,71,100
34468,note_off,,,,,0,0,13,,,,,6,,,66,100
34528,note_off,,,,,64,0,7,,,,,0,,,74,100
34560,note_on,,,,,92,0,12,,,,,5,,,40,87
34560,note_on,,,,,92,0,13,,,,,6,,,61,100
34560,note_on,,,,,92,0,14,,,,,6,,,52,100
34560,note_on,,,,,0,0,13,,,,,6,,,71,100
34560,note_on,,,,,32,0,7,,,,,0,,,73,102
34560,note_on,,,,,92,0,11,,,,,4,,,52,87
34624,note_off,,,,,64,0,7,,,,,0,,,73,100
34656,note_on,,,,,32,0,7,,,,,0,,,83,102
34660,note_off,,,,,0,0,13,,,,,6,,,71,100
34660,note_off,,,,,100,0,13,,,,,6,,,61,100
34660,note_off,,,,,100,0,12,,,,,5,,,40,100
34660,note_off,,,,,100,0,11,,,,,4,,,52,100
34660,note_off,,,,,100,0,14,,,,,6,,,52,100
34720,note_off,,,,,64,0,7,,,,,0,,,83,100
34752,note_on,,,,,92,0,12,,,,,5,,,42,84
34752,note_on,,,,,0,0,13,,,,,6,,,71,100
34752,note_on,,,,,92,0,14,,,,,6,,,54,100
34752,note_on,,,,,92,0,11,,,,,4,,,54,84
34752,note_on,,,,,32,0,7,,,,,0,,,73,103
34752,note_on,,,,,92,0,13,,,,,6,,,61,100
34816,note_off,,,,,64,0,7,,,,,0,,,73,100
34848,note_on,,,,,32,0,7,,,,,0,,,83,103
34852,note_off,,,,,100,0,14,,,,,6,,,54,100
34852,note_off,,,,,100,0,11,,,,,4,,,54,100
34852,note_off,,,,,0,0,13,,,,,6,,,71,100
34852,note_off,,,,,100,0,13,,,,,6,,,61,100
34852,note_off,,,,,100,0,12,,,,,5,,,42,100
34912,note_off,,,,,64,0,7,,,,,0,,,83,100
34944,note_on,,,,,92,0,11,,,,,4,,,42,86
34944,note_on,,,,,92,0,14,,,,,6,,,42,100
34944,note_on,,,,,92,0,13,,,,,6,,,61,100
34944,note_on,,,,,0,0,13,,,,,6,,,70,100
34944,note_on,,,,,32,0,7,,,,,0,,,73,104
34944,note_on,,,,,92,0,12,,,,,5,,,42,86
35008,note_off,,,,,64,0,7,,,,,0,,,73,100
35040,note_on,,,,,32,0,7,,,,,0,,,82,104
35044,note_off,,,,,100,0,12,,,,,5,,,42,100
35044,note_off,,,,,0,0,13,,,,,6,,,70,100
35044,note_off,,,,,100,0,14,,,,,6,,,42,100
35044,note_off,,,,,100,0,13,,,,,6,,,61,100
35044,note_off,,,,,100,0,11,,,,,4,,,42,100
35104,note_off,,,,,64,0,7,,,,,0,,,82,100
35136,note_on,,,,,92,0,13,,,,,6,,,63,100
35136,note_on,,,,,0,0,15,,,,,7,,,66,100
35136,note_on,,,,,32,0,7,,,,,0,,,83,104
35136,note_on,,,,,2880,0,9,,,,,2,,,75,95
35136,note_on,,,,,7808,0,15,,,,,7,,,63,100
35136,note_on,,,,,7808,0,16,,,,,7,,,47,100
35136,note_on,,,,,0,0,15,,,,,7,,,71,100
35136,note_on,,,,,0,0,13,,,,,6,,,71,100
35136,note_on,,,,,92,0,14,,,,,6,,,47,100
35136,note_on,,,,,0,0,13,,,,,6,,,66,100
35136,note_on,,,,,92,0,12,,,,,5,,,35,90
35136,note_on,,,,,7808,0,10,,,,,3,,,66,95
35136,note_on,,,,,92,0,11,,,,,4,,,47,90
35136,note_on,,,,,2880,0,8,,,,,1,,,83,95
35200,note_off,,,,,64,0,8,,,,,1,,,83,100
35232,note_on,,,,,32,0,8,,,,,1,,,78,95
35236,note_off,,,,,100,0,7,,,,,0,,,83,100
35296,note_off,,,,,64,0,8,,,,,1,,,78,100
35324,note_off,,,,,188,0,9,,,,,2,,,75,100
35328,note_on,,,,,32,0,8,,,,,1,,,78,94
35328,note_on,,,,,4,0,9,,,,,2,,,71,94
35392,note_off,,,,,64,0,8,,,,,1,,,78,100
35424,note_on,,,,,32,0,8,,,,,1,,,75,93
35428,note_off,,,,,100,0,9,,,,,2,,,71,100
35488,note_off,,,,,64,0,8,,,,,1,,,75,100
35520,note_on,,,,,32,0,8,,,,,1,,,75,92
35520,note_on,,,,,92,0,9,,,,,2,,,66,92
35584,note_off,,,,,64,0,8,,,,,1,,,75,100
35616,note_on,,,,,32,0,8,,,,,1,,,71,91
35620,note_off,,,,,100,0,9,,,,,2,,,66,100
35680,note_off,,,,,64,0,8,,,,,1,,,71,100
35712,note_on,,,,,92,0,9,,,,,2,,,63,90
35712,note_on,,,,,32,0,8,,,,,1,,,71,89
35776,note_off,,,,,64,0,8,,,,,1,,,71,100
35808,note_on,,,,,32,0,8,,,,,1,,,75,89
35872,note_off,,,,,64,0,8,,,,,1,,,75,100
35900,note_off,,,,,188,0,9,,,,,2,,,63,100
35904,note_on,,,,,4,0,9,,,,,2,,,59,100
35904,note_on,,,,,32,0,8,,,,,1,,,75,90
35968,note_off,,,,,64,0,8,,,,,1,,,75,100
36000,note_on,,,,,32,0,8,,,,,1,,,83,91
36004,note_off,,,,,100,0,9,,,,,2,,,59,100
36016,note_off,,,,,880,0,10,,,,,3,,,66,100
36064,note_off,,,,,64,0,8,,,,,1,,,83,100
36096,note_on,,,,,32,0,8,,,,,1,,,83,92
36096,note_on,,,,,80,0,10,,,,,3,,,63,100
36096,note_on,,,,,92,0,9,,,,,2,,,75,100
36160,note_off,,,,,64,0,8,,,,,1,,,83,100
36172,note_off,,,,,1036,0,12,,,,,5,,,35,100
36172,note_off,,,,,0,0,13,,,,,6,,,71,100
36172,note_off,,,,,0,0,13,,,,,6,,,66,100
36172,note_off,,,,,1036,0,13,,,,,6,,,63,100
36172,note_off,,,,,0,0,15,,,,,7,,,71,100
36172,note_off,,,,,1036,0,11,,,,,4,,,47,100
36172,note_off,,,,,1036,0,15,,,,,7,,,63,100
36172,note_off,,,,,1036,0,16,,,,,7,,,47,100
36172,note_off,,,,,1036,0,14,,,,,6,,,47,100
36172,note_off,,,,,0,0,15,,,,,7,,,66,100
36192,note_on,,,,,32,0,8,,,,,1,,,81,93
36196,note_off,,,,,100,0,10,,,,,3,,,63,100
36196,note_off,,,,,100,0,9,,,,,2,,,75,100
36256,note_off,,,,,64,0,8,,,,,1,,,81,100
36288,note_on,,,,,0,0,13,,,,,6,,,68,100
36288,note_on,,,,,0,0,13,,,,,6,,,71,100
36288,note_on,,,,,116,0,13,,,,,6,,,64,100
36288,note_on,,,,,0,0,15,,,,,7,,,68,100
36288,note_on,,,,,116,0,15,,,,,7,,,64,100
36288,note_on,,,,,92,0,10,,,,,3,,,59,100
36288,note_on,,,,,32,0,8,,,,,1,,,80,94
36288,note_on,,,,,116,0,12,,,,,5,,,40,95
36288,note_on,,,,,0,0,15,,,,,7,,,71,100
36288,note_on,,,,,116,0,11,,,,,4,,,52,95
36288,note_on,,,,,92,0,9,,,,,2,,,76,100
36288,note_on,,,,,116,0,14,,,,,6,,,52,100
36288,note_on,,,,,116,0,16,,,,,7,,,52,100
36352,note_off,,,,,64,0,9,,,,,2,,,76,100
36384,note_on,,,,,32,0,9,,,,,2,,,71,100
36448,note_off,,,,,64,0,9,,,,,2,,,71,100
36476,note_off,,,,,188,0,8,,,,,1,,,80,100
36480,note_on,,,,,4,0,8,,,,,1,,,76,94
36480,note_on,,,,,32,0,9,,,,,2,,,71,100
36544,note_off,,,,,64,0,9,,,,,2,,,71,100
36576,note_on,,,,,32,0,9,,,,,2,,,68,100
36580,note_off,,,,,100,0,8,,,,,1,,,76,100
36640,note_off,,,,,64,0,9,,,,,2,,,68,100
36672,note_on,,,,,92,0,8,,,,,1,,,71,92
36672,note_on,,,,,32,0,9,,,,,2,,,68,100
36736,note_off,,,,,64,0,9,,,,,2,,,68,100
36768,note_on,,,,,32,0,9,,,,,2,,,64,100
36772,note_off,,,,,100,0,8,,,,,1,,,71,100
36832,note_off,,,,,64,0,9,,,,,2,,,64,100
36864,note_on,,,,,92,0,8,,,,,1,,,68,89
36864,note_on,,,,,32,0,9,,,,,2,,,64,89
36928,note_off,,,,,64,0,9,,,,,2,,,64,100
36960,note_on,,,,,32,0,9,,,,,2,,,68,89
37024,note_off,,,,,64,0,9,,,,,2,,,68,100
37052,note_off,,,,,188,0,8,,,,,1,,,68,100
37056,note_on,,,,,4,0,8,,,,,1,,,64,90
37056,note_on,,,,,32,0,9,,,,,2,,,68,90
37120,note_off,,,,,64,0,9,,,,,2,,,68,100
37152,note_on,,,,,32,0,9,,,,,2,,,76,91
37156,note_off,,,,,100,0,8,,,,,1,,,64,100
37168,note_off,,,,,880,0,10,,,,,3,,,59,100
37216,note_off,,,,,64,0,9,,,,,2,,,76,100
37248,note_on,,,,,92,0,8,,,,,1,,,80,92
37248,note_on,,,,,80,0,10,,,,,3,,,64,92
37248,note_on,,,,,32,0,9,,,,,2,,,76,92
37312,note_off,,,,,64,0,9,,,,,2,,,76,100
37324,note_off,,,,,1036,0,15,,,,,7,,,64,100
37324,note_off,,,,,1036,0,13,,,,,6,,,64,100
37324,note_off,,,,,0,0,13,,,,,6,,,68,100
37324,note_off,,,,,1036,0,11,,,,,4,,,52,100
37324,note_off,,,,,0,0,15,,,,,7,,,68,100
37324,note_off,,,,,0,0,13,,,,,6,,,71,100
37324,note_off,,,,,1036,0,16,,,,,7,,,52,100
37324,note_off,,,,,1036,0,14,,,,,6,,,52,100
37324,note_off,,,,,1036,0,12,,,,,5,,,40,100
37324,note_off,,,,,0,0,15,,,,,7,,,71,100
37344,note_on,,,,,32,0,9,,,,,2,,,74,93
37348,note_off,,,,,100,0,8,,,,,1,,,80,100
37348,note_off,,,,,100,0,10,,,,,3,,,64,100
37408,note_off,,,,,64,0,9,,,,,2,,,74,100
37440,note_on,,,,,32,0,9,,,,,2,,,73,95
37440,note_on,,,,,116,0,12,,,,,5,,,33,90
37440,note_on,,,,,92,0,8,,,,,1,,,81,95
37440,note_on,,,,,0,0,15,,,,,7,,,69,100
37440,note_on,,,,,116,0,15,,,,,7,,,61,100
37440,note_on,,,,,116,0,13,,,,,6,,,61,100
37440,note_on,,,,,0,0,13,,,,,6,,,64,100
37440,note_on,,,,,0,0,13,,,,,6,,,69,100
37440,note_on,,,,,116,0,14,,,,,6,,,45,100
37440,note_on,,,,,116,0,16,,,,,7,,,45,100
37440,note_on,,,,,116,0,11,,,,,4,,,45,90
37440,note_on,,,,,0,0,15,,,,,7,,,64,100
37440,note_on,,,,,92,0,10,,,,,3,,,64,95
37504,note_off,,,,,64,0,8,,,,,1,,,81,100
37536,note_on,,,,,32,0,8,,,,,1,,,76,94
37600,note_off,,,,,64,0,8,,,,,1,,,76,100
37628,note_off,,,,,188,0,9,,,,,2,,,73,100
37632,note_on,,,,,32,0,8,,,,,1,,,76,93
37632,note_on,,,,,4,0,9,,,,,2,,,69,93
37696,note_off,,,,,64,0,8,,,,,1,,,76,100
37728,note_on,,,,,32,0,8,,,,,1,,,73,92
37732,note_off,,,,,100,0,9,,,,,2,,,69,100
37792,note_off,,,,,64,0,8,,,,,1,,,73,100
37824,note_on,,,,,92,0,9,,,,,2,,,64,91
37824,note_on,,,,,32,0,8,,,,,1,,,73,91
37888,note_off,,,,,64,0,8,,,,,1,,,73,100
37920,note_on,,,,,32,0,8,,,,,1,,,69,90
37924,note_off,,,,,100,0,9,,,,,2,,,64,100
37984,note_off,,,,,64,0,8,,,,,1,,,69,100
38016,note_on,,,,,92,0,9,,,,,2,,,61,88
38016,note_on,,,,,32,0,8,,,,,1,,,69,88
38080,note_off,,,,,64,0,8,,,,,1,,,69,100
38112,note_on,,,,,32,0,8,,,,,1,,,73,88
38176,note_off,,,,,64,0,8,,,,,1,,,73,100
38204,note_off,,,,,188,0,9,,,,,2,,,61,100
38208,note_on,,,,,4,0,9,,,,,2,,,57,89
38208,note_on,,,,,32,0,8,,,,,1,,,73,89
38272,note_off,,,,,64,0,8,,,,,1,,,73,100
38304,note_on,,,,,32,0,8,,,,,1,,,81,90
38308,note_off,,,,,100,0,9,,,,,2,,,57,100
38320,note_off,,,,,880,0,10,,,,,3,,,64,100
38368,note_off,,,,,64,0,8,,,,,1,,,81,100
38400,note_on,,,,,32,0,8,,,,,1,,,81,91
38400,note_on,,,,,80,0,10,,,,,3,,,61,91
38400,note_on,,,,,92,0,9,,,,,2,,,73,91
38464,note_off,,,,,64,0,8,,,,,1,,,81,100
38476,note_off,,,,,1036,0,11,,,,,4,,,45,100
38476,note_off,,,,,1036,0,16,,,,,7,,,45,100
38476,note_off,,,,,0,0,13,,,,,6,,,69,100
38476,note_off,,,,,1036,0,12,,,,,5,,,33,100
38476,note_off,,,,,0,0,15,,,,,7,,,69,100
38476,note_off,,,,,0,0,13,,,,,6,,,64,100
38476,note_off,,,,,1036,0,15,,,,,7,,,61,100
38476,note_off,,,,,1036,0,13,,,,,6,,,61,100
38476,note_off,,,,,0,0,15,,,,,7,,,64,100
38476,note_off,,,,,1036,0,14,,,,,6,,,45,100
38496,note_on,,,,,32,0,8,,,,,1,,,79,92
38500,note_off,,,,,100,0,10,,,,,3,,,61,100
38500,note_off,,,,,100,0,9,,,,,2,,,73,100
38560,note_off,,,,,64,0,8,,,,,1,,,79,100
38592,note_on,,,,,116,0,12,,,,,5,,,38,95
38592,note_on,,,,,92,0,10,,,,,3,,,57,95
38592,note_on,,,,,116,0,11,,,,,4,,,50,95
38592,note_on,,,,,0,0,15,,,,,7,,,69,100
38592,note_on,,,,,0,0,13,,,,,6,,,69,100
38592,note_on,,,,,116,0,16,,,,,7,,,50,100
38592,note_on,,,,,116,0,14,,,,,6,,,50,100
38592,note_on,,,,,0,0,15,,,,,7,,,66,100
38592,note_on,,,,,116,0,13,,,,,6,,,62,100
38592,note_on,,,,,32,0,8,,,,,1,,,78,95
38592,note_on,,,,,116,0,15,,,,,7,,,62,100
38592,note_on,,,,,92,0,9,,,,,2,,,74,95
38592,note_on,,,,,0,0,13,,,,,6,,,66,100
38656,note_off,,,,,64,0,9,,,,,2,,,74,100
38688,note_on,,,,,32,0,9,,,,,2,,,69,94
38752,note_off,,,,,64,0,9,,,,,2,,,69,100
38780,note_off,,,,,188,0,8,,,,,1,,,78,100
38784,note_on,,,,,4,0,8,,,,,1,,,74,93
38784,note_on,,,,,32,0,9,,,,,2,,,69,93
38848,note_off,,,,,64,0,9,,,,,2,,,69,100
38880,note_on,,,,,32,0,9,,,,,2,,,66,92
38884,note_off,,,,,100,0,8,,,,,1,,,74,100
38944,note_off,,,,,64,0,9,,,,,2,,,66,100
38976,note_on,,,,,32,0,9,,,,,2,,,66,91
38976,note_on,,,,,92,0,8,,,,,1,,,69,91
39040,note_off,,,,,64,0,9,,,,,2,,,66,100
39072,note_on,,,,,32,0,9,,,,,2,,,62,90
39076,note_off,,,,,100,0,8,,,,,1,,,69,100
39136,note_off,,,,,64,0,9,,,,,2,,,62,100
39168,note_on,,,,,32,0,9,,,,,2,,,62,88
39168,note_on,,,,,92,0,8,,,,,1,,,66,88
39232,note_off,,,,,64,0,9,,,,,2,,,62,100
39264,note_on,,,,,32,0,9,,,,,2,,,66,90
39328,note_off,,,,,64,0,9,,,,,2,,,66,100
39356,note_off,,,,,188,0,8,,,,,1,,,66,100
39360,note_on,,,,,4,0,8,,,,,1,,,62,92
39360,note_on,,,,,32,0,9,,,,,2,,,66,92
39424,note_off,,,,,64,0,9,,,,,2,,,66,100
39456,note_on,,,,,32,0,9,,,,,2,,,74,94
39460,note_off,,,,,100,0,8,,,,,1,,,62,100
39520,note_off,,,,,64,0,9,,,,,2,,,74,100
39552,note_on,,,,,32,0,9,,,,,2,,,74,97
39552,note_on,,,,,92,0,8,,,,,1,,,78,97
39616,note_off,,,,,64,0,9,,,,,2,,,74,100
39628,note_off,,,,,0,0,15,,,,,7,,,69,100
39628,note_off,,,,,1036,0,14,,,,,6,,,50,100
39628,note_off,,,,,0,0,15,,,,,7,,,66,100
39628,note_off,,,,,1036,0,15,,,,,7,,,62,100
39628,note_off,,,,,1036,0,13,,,,,6,,,62,100
39628,note_off,,,,,0,0,13,,,,,6,,,69,100
39628,note_off,,,,,0,0,13,,,,,6,,,66,100
39628,note_off,,,,,1036,0,11,,,,,4,,,50,100
39628,note_off,,,,,1036,0,16,,,,,7,,,50,100
39628,note_off,,,,,1036,0,10,,,,,3,,,57,100
39628,note_off,,,,,1036,0,12,,,,,5,,,38,100
39648,note_on,,,,,32,0,9,,,,,2,,,72,99
39652,note_off,,,,,100,0,8,,,,,1,,,78,100
39712,note_off,,,,,64,0,9,,,,,2,,,72,100
39744,note_on,,,,,32,0,9,,,,,2,,,71,101
39744,note_on,,,,,0,0,15,,,,,7,,,67,100
39744,note_on,,,,,0,0,15,,,,,7,,,62,100
39744,note_on,,,,,116,0,16,,,,,7,,,43,100
39744,note_on,,,,,116,0,14,,,,,6,,,43,100
39744,note_on,,,,,116,0,15,,,,,7,,,59,100
39744,note_on,,,,,92,0,8,,,,,1,,,79,101
39744,note_on,,,,,116,0,10,,,,,3,,,62,101
39744,note_on,,,,,116,0,11,,,,,4,,,43,101
39744,note_on,,,,,116,0,12,,,,,5,,,31,101
39744,note_on,,,,,116,0,13,,,,,6,,,59,100
39744,note_on,,,,,0,0,13,,,,,6,,,67,100
39744,note_on,,,,,0,0,13,,,,,6,,,62,100
39808,note_off,,,,,64,0,9,,,,,2,,,71,100
39840,note_on,,,,,32,0,9,,,,,2,,,71,100
39844,note_off,,,,,0,0,13,,,,,6,,,67,100
39844,note_off,,,,,100,0,11,,,,,4,,,43,100
39844,note_off,,,,,100,0,10,,,,,3,,,62,100
39844,note_off,,,,,100,0,14,,,,,6,,,43,100
39844,note_off,,,,,100,0,13,,,,,6,,,59,100
39844,note_off,,,,,0,0,13,,,,,6,,,62,100
39844,note_off,,,,,100,0,12,,,,,5,,,31,100
39844,note_off,,,,,100,0,15,,,,,7,,,59,100
39844,note_off,,,,,0,0,15,,,,,7,,,62,100
39844,note_off,,,,,0,0,15,,,,,7,,,67,100
39844,note_off,,,,,100,0,16,,,,,7,,,43,100
39844,note_off,,,,,100,0,8,,,,,1,,,79,100
39904,note_off,,,,,64,0,9,,,,,2,,,71,100
39936,note_on,,,,,92,0,10,,,,,3,,,67,100
39936,note_on,,,,,32,0,9,,,,,2,,,72,100
39936,note_on,,,,,92,0,15,,,,,7,,,67,100
39936,note_on,,,,,0,0,15,,,,,7,,,71,100
39936,note_on,,,,,92,0,8,,,,,1,,,71,100
39936,note_on,,,,,0,0,13,,,,,6,,,71,100
39936,note_on,,,,,92,0,13,,,,,6,,,67,100
39936,note_on,,,,,92,0,12,,,,,5,,,38,100
39936,note_on,,,,,92,0,11,,,,,4,,,50,100
39936,note_on,,,,,92,0,16,,,,,7,,,50,100
39936,note_on,,,,,92,0,14,,,,,6,,,50,100
40000,note_off,,,,,64,0,9,,,,,2,,,72,100
40032,note_on,,,,,32,0,9,,,,,2,,,74,100
40036,note_off,,,,,0,0,15,,,,,7,,,71,100
40036,note_off,,,,,100,0,15,,,,,7,,,67,100
40036,note_off,,,,,100,0,16,,,,,7,,,50,100
40036,note_off,,,,,100,0,8,,,,,1,,,71,100
40036,note_off,,,,,100,0,14,,,,,6,,,50,100
40036,note_off,,,,,0,0,13,,,,,6,,,71,100
40036,note_off,,,,,100,0,13,,,,,6,,,67,100
40036,note_off,,,,,100,0,10,,,,,3,,,67,100
40036,note_off,,,,,100,0,11,,,,,4,,,50,100
40036,note_off,,,,,100,0,12,,,,,5,,,38,100
40096,note_off,,,,,64,0,9,,,,,2,,,74,100
40128,note_on,,,,,92,0,11,,,,,4,,,38,100
40128,note_on,,,,,32,0,9,,,,,2,,,76,100
40128,note_on,,,,,92,0,16,,,,,7,,,38,100
40128,note_on,,,,,92,0,8,,,,,1,,,69,100
40128,note_on,,,,,92,0,12,,,,,5,,,38,100
40128,note_on,,,,,92,0,15,,,,,7,,,66,100
40128,note_on,,,,,0,0,15,,,,,7,,,69,100
40128,note_on,,,,,92,0,10,,,,,3,,,62,100
40128,note_on,,,,,92,0,14,,,,,6,,,38,100
40128,note_on,,,,,92,0,13,,,,,6,,,66,100
40128,note_on,,,,,0,0,13,,,,,6,,,69,100
40192,note_off,,,,,64,0,9,,,,,2,,,76,100
40224,note_on,,,,,32,0,9,,,,,2,,,78,99
40228,note_off,,,,,100,0,10,,,,,3,,,62,100
40228,note_off,,,,,100,0,12,,,,,5,,,38,100
40228,note_off,,,,,100,0,13,,,,,6,,,66,100
40228,note_off,,,,,100,0,16,,,,,7,,,38,100
40228,note_off,,,,,100,0,15,,,,,7,,,66,100
40228,note_off,,,,,100,0,11,,,,,4,,,38,100
40228,note_off,,,,,0,0,13,,,,,6,,,69,100
40228,note_off,,,,,100,0,8,,,,,1,,,69,100
40228,note_off,,,,,0,0,15,,,,,7,,,69,100
40228,note_off,,,,,100,0,14,,,,,6,,,38,100
40288,note_off,,,,,64,0,9,,,,,2,,,78,100
40320,note_on,,,,,0,0,15,,,,,7,,,67,100
40320,note_on,,,,,0,0,15,,,,,7,,,74,100
40320,note_on,,,,,92,0,15,,,,,7,,,71,100
40320,note_on,,,,,92,0,16,,,,,7,,,55,100
40320,note_on,,,,,92,0,10,,,,,3,,,59,100
40320,note_on,,,,,0,0,13,,,,,6,,,67,100
40320,note_on,,,,,32,0,9,,,,,2,,,79,100
40320,note_on,,,,,92,0,14,,,,,6,,,55,100
40320,note_on,,,,,92,0,8,,,,,1,,,67,100
40320,note_on,,,,,92,0,13,,,,,6,,,71,100
40320,note_on,,,,,0,0,13,,,,,6,,,74,100
40320,note_on,,,,,92,0,12,,,,,5,,,43,100
40320,note_on,,,,,92,0,11,,,,,4,,,55,100
40384,note_off,,,,,64,0,8,,,,,1,,,67,100
40416,note_on,,,,,32,0,8,,,,,1,,,71,99
40420,note_off,,,,,100,0,10,,,,,3,,,59,100
40420,note_off,,,,,100,0,14,,,,,6,,,55,100
40420,note_off,,,,,0,0,15,,,,,7,,,74,100
40420,note_off,,,,,0,0,15,,,,,7,,,67,100
40420,note_off,,,,,100,0,11,,,,,4,,,55,100
40420,note_off,,,,,0,0,13,,,,,6,,,67,100
40420,note_off,,,,,0,0,13,,,,,6,,,74,100
40420,note_off,,,,,100,0,13,,,,,6,,,71,100
40420,note_off,,,,,100,0,9,,,,,2,,,79,100
40420,note_off,,,,,100,0,12,,,,,5,,,43,100
40420,note_off,,,,,100,0,15,,,,,7,,,71,100
40420,note_off,,,,,100,0,16,,,,,7,,,55,100
40480,note_off,,,,,64,0,8,,,,,1,,,71,100
40512,note_on,,,,,92,0,11,,,,,4,,,62,98
40512,note_on,,,,,92,0,10,,,,,3,,,67,98
40512,note_on,,,,,92,0,15,,,,,7,,,67,100
40512,note_on,,,,,92,0,9,,,,,2,,,71,98
40512,note_on,,,,,0,0,15,,,,,7,,,71,100
40512,note_on,,,,,92,0,12,,,,,5,,,50,98
40512,note_on,,,,,92,0,16,,,,,7,,,62,100
40512,note_on,,,,,92,0,13,,,,,6,,,67,100
40512,note_on,,,,,0,0,13,,,,,6,,,71,100
40512,note_on,,,,,92,0,14,,,,,6,,,62,100
40512,note_on,,,,,32,0,8,,,,,1,,,72,98
40576,note_off,,,,,64,0,8,,,,,1,,,72,100
40608,note_on,,,,,32,0,8,,,,,1,,,74,97
40612,note_off,,,,,100,0,16,,,,,7,,,62,100
40612,note_off,,,,,100,0,9,,,,,2,,,71,100
40612,note_off,,,,,100,0,10,,,,,3,,,67,100
40612,note_off,,,,,100,0,12,,,,,5,,,50,100
40612,note_off,,,,,100,0,13,,,,,6,,,67,100
40612,note_off,,,,,0,0,13,,,,,6,,,71,100
40612,note_off,,,,,100,0,14,,,,,6,,,62,100
40612,note_off,,,,,0,0,15,,,,,7,,,71,100
40612,note_off,,,,,100,0,15,,,,,7,,,67,100
40612,note_off,,,,,100,0,11,,,,,4,,,62,100
40672,note_off,,,,,64,0,8,,,,,1,,,74,100
40704,note_on,,,,,0,0,13,,,,,6,,,69,100
40704,note_on,,,,,92,0,14,,,,,6,,,50,100
40704,note_on,,,,,0,0,15,,,,,7,,,69,100
40704,note_on,,,,,92,0,15,,,,,7,,,66,100
40704,note_on,,,,,92,0,12,,,,,5,,,38,96
40704,note_on,,,,,92,0,10,,,,,3,,,62,96
40704,note_on,,,,,32,0,8,,,,,1,,,76,96
40704,note_on,,,,,92,0,9,,,,,2,,,69,96
40704,note_on,,,,,92,0,16,,,,,7,,,50,100
40704,note_on,,,,,92,0,13,,,,,6,,,66,100
40704,note_on,,,,,92,0,11,,,,,4,,,50,96
40768,note_off,,,,,64,0,8,,,,,1,,,76,100
40800,note_on,,,,,32,0,8,,,,,1,,,78,94
40804,note_off,,,,,0,0,13,,,,,6,,,69,100
40804,note_off,,,,,100,0,15,,,,,7,,,66,100
40804,note_off,,,,,0,0,15,,,,,7,,,69,100
40804,note_off,,,,,100,0,10,,,,,3,,,62,100
40804,note_off,,,,,100,0,16,,,,,7,,,50,100
40804,note_off,,,,,100,0,14,,,,,6,,,50,100
40804,note_off,,,,,100,0,9,,,,,2,,,69,100
40804,note_off,,,,,100,0,11,,,,,4,,,50,100
40804,note_off,,,,,100,0,13,,,,,6,,,66,100
40804,note_off,,,,,100,0,12,,,,,5,,,38,100
40864,note_off,,,,,64,0,8,,,,,1,,,78,100
40896,note_on,,,,,0,0,15,,,,,7,,,67,100
40896,note_on,,,,,92,0,9,,,,,2,,,67,93
40896,note_on,,,,,92,0,13,,,,,6,,,59,100
40896,note_on,,,,,0,0,13,,,,,6,,,62,100
40896,note_on,,,,,0,0,13,,,,,6,,,67,100
40896,note_on,,,,,0,0,15,,,,,7,,,62,100
40896,note_on,,,,,92,0,15,,,,,7,,,59,100
40896,note_on,,,,,92,0,12,,,,,5,,,31,93
40896,note_on,,,,,92,0,10,,,,,3,,,59,93
40896,note_on,,,,,32,0,8,,,,,1,,,79,93
40896,note_on,,,,,92,0,16,,,,,7,,,43,100
40896,note_on,,,,,92,0,11,,,,,4,,,43,93
40896,note_on,,,,,92,0,14,,,,,6,,,43,100
40960,note_off,,,,,64,0,9,,,,,2,,,67,100
40992,note_on,,,,,32,0,9,,,,,2,,,71,92
40996,note_off,,,,,100,0,14,,,,,6,,,43,100
40996,note_off,,,,,100,0,15,,,,,7,,,59,100
40996,note_off,,,,,100,0,8,,,,,1,,,79,100
40996,note_off,,,,,100,0,11,,,,,4,,,43,100
40996,note_off,,,,,100,0,12,,,,,5,,,31,100
40996,note_off,,,,,0,0,15,,,,,7,,,62,100
40996,note_off,,,,,0,0,15,,,,,7,,,67,100
40996,note_off,,,,,100,0,16,,,,,7,,,43,100
40996,note_off,,,,,100,0,13,,,,,6,,,59,100
40996,note_off,,,,,0,0,13,,,,,6,,,62,100
40996,note_off,,,,,0,0,13,,,,,6,,,67,100
40996,note_off,,,,,100,0,10,,,,,3,,,59,100
41056,note_off,,,,,64,0,9,,,,,2,,,71,100
41088,note_on,,,,,92,0,16,,,,,7,,,50,100
41088,note_on,,,,,92,0,12,,,,,5,,,38,91
41088,note_on,,,,,32,0,9,,,,,2,,,72,91
41088,note_on,,,,,92,0,13,,,,,6,,,67,100
41088,note_on,,,,,92,0,14,,,,,6,,,50,100
41088,note_on,,,,,0,0,13,,,,,6,,,71,100
41088,note_on,,,,,92,0,8,,,,,1,,,71,91
41088,note_on,,,,,92,0,10,,,,,3,,,67,91
41088,note_on,,,,,92,0,11,,,,,4,,,50,91
41088,note_on,,,,,0,0,15,,,,,7,,,71,100
41088,note_on,,,,,92,0,15,,,,,7,,,67,100
41152,note_off,,,,,64,0,9,,,,,2,,,72,100
41184,note_on,,,,,32,0,9,,,,,2,,,74,89
41188,note_off,,,,,100,0,16,,,,,7,,,50,100
41188,note_off,,,,,0,0,13,,,,,6,,,71,100
41188,note_off,,,,,100,0,14,,,,,6,,,50,100
41188,note_off,,,,,0,0,15,,,,,7,,,71,100
41188,note_off,,,,,100,0,15,,,,,7,,,67,100
41188,note_off,,,,,100,0,10,,,,,3,,,67,100
41188,note_off,,,,,100,0,8,,,,,1,,,71,100
41188,note_off,,,,,100,0,12,,,,,5,,,38,100
41188,note_off,,,,,100,0,11,,,,,4,,,50,100
41188,note_off,,,,,100,0,13,,,,,6,,,67,100
41248,note_off,,,,,64,0,9,,,,,2,,,74,100
41280,note_on,,,,,92,0,8,,,,,1,,,69,88
41280,note_on,,,,,92,0,16,,,,,7,,,38,100
41280,note_on,,,,,92,0,11,,,,,4,,,38,88
41280,note_on,,,,,92,0,15,,,,,7,,,66,100
41280,note_on,,,,,0,0,15,,,,,7,,,69,100
41280,note_on,,,,,32,0,9,,,,,2,,,76,88
41280,note_on,,,,,92,0,12,,,,,5,,,38,88
41280,note_on,,,,,92,0,14,,,,,6,,,38,100
41280,note_on,,,,,92,0,13,,,,,6,,,66,100
41280,note_on,,,,,92,0,10,,,,,3,,,62,88
41280,note_on,,,,,0,0,13,,,,,6,,,69,100
41344,note_off,,,,,64,0,9,,,,,2,,,76,100
41376,note_on,,,,,32,0,9,,,,,2,,,78,87
41380,note_off,,,,,100,0,14,,,,,6,,,38,100
41380,note_off,,,,,100,0,15,,,,,7,,,66,100
41380,note_off,,,,,0,0,15,,,,,7,,,69,100
41380,note_off,,,,,0,0,13,,,,,6,,,69,100
41380,note_off,,,,,100,0,12,,,,,5,,,38,100
41380,note_off,,,,,100,0,16,,,,,7,,,38,100
41380,note_off,,,,,100,0,11,,,,,4,,,38,100
41380,note_off,,,,,100,0,8,,,,,1,,,69,100
41380,note_off,,,,,100,0,10,,,,,3,,,62,100
41380,note_off,,,,,100,0,13,,,,,6,,,66,100
41440,note_off,,,,,64,0,9,,,,,2,,,78,100
41472,note_on,,,,,92,0,12,,,,,5,,,43,86
41472,note_on,,,,,92,0,11,,,,,4,,,55,86
41472,note_on,,,,,0,0,15,,,,,7,,,67,100
41472,note_on,,,,,0,0,15,,,,,7,,,74,100
41472,note_on,,,,,92,0,15,,,,,7,,,71,100
41472,note_on,,,,,92,0,10,,,,,3,,,59,86
41472,note_on,,,,,92,0,16,,,,,7,,,55,100
41472,note_on,,,,,32,0,9,,,,,2,,,79,86
41472,note_on,,,,,92,0,8,,,,,1,,,67,86
41472,note_on,,,,,92,0,14,,,,,6,,,55,100
41472,note_on,,,,,0,0,13,,,,,6,,,67,100
41472,note_on,,,,,0,0,13,,,,,6,,,74,100
41472,note_on,,,,,92,0,13,,,,,6,,,71,100
41536,note_off,,,,,64,0,8,,,,,1,,,67,100
41568,note_on,,,,,32,0,8,,,,,1,,,71,85
41572,note_off,,,,,100,0,9,,,,,2,,,79,100
41572,note_off,,,,,100,0,12,,,,,5,,,43,100
41572,note_off,,,,,100,0,16,,,,,7,,,55,100
41572,note_off,,,,,100,0,14,,,,,6,,,55,100
41572,note_off,,,,,100,0,10,,,,,3,,,59,100
41572,note_off,,,,,100,0,13,,,,,6,,,71,100
41572,note_off,,,,,0,0,15,,,,,7,,,74,100
41572,note_off,,,,,100,0,15,,,,,7,,,71,100
41572,note_off,,,,,0,0,13,,,,,6,,,74,100
41572,note_off,,,,,0,0,13,,,,,6,,,67,100
41572,note_off,,,,,100,0,11,,,,,4,,,55,100
41572,note_off,,,,,0,0,15,,,,,7,,,67,100
41632,note_off,,,,,64,0,8,,,,,1,,,71,100
41664,note_on,,,,,92,0,12,,,,,5,,,50,85
41664,note_on,,,,,0,0,13,,,,,6,,,71,100
41664,note_on,,,,,92,0,15,,,,,7,,,67,100
41664,note_on,,,,,92,0,13,,,,,6,,,67,100
41664,note_on,,,,,92,0,10,,,,,3,,,67,85
41664,note_on,,,,,92,0,14,,,,,6,,,62,100
41664,note_on,,,,,92,0,9,,,,,2,,,71,85
41664,note_on,,,,,32,0,8,,,,,1,,,72,85
41664,note_on,,,,,0,0,15,,,,,7,,,71,100
41664,note_on,,,,,92,0,11,,,,,4,,,62,85
41664,note_on,,,,,92,0,16,,,,,7,,,62,100
41728,note_off,,,,,64,0,8,,,,,1,,,72,100
41760,note_on,,,,,32,0,8,,,,,1,,,74,85
41764,note_off,,,,,0,0,15,,,,,7,,,71,100
41764,note_off,,,,,100,0,14,,,,,6,,,62,100
41764,note_off,,,,,100,0,16,,,,,7,,,62,100
41764,note_off,,,,,100,0,13,,,,,6,,,67,100
41764,note_off,,,,,0,0,13,,,,,6,,,71,100
41764,note_off,,,,,100,0,9,,,,,2,,,71,100
41764,note_off,,,,,100,0,12,,,,,5,,,50,100
41764,note_off,,,,,100,0,15,,,,,7,,,67,100
41764,note_off,,,,,100,0,10,,,,,3,,,67,100
41764,note_off,,,,,100,0,11,,,,,4,,,62,100
41824,note_off,,,,,64,0,8,,,,,1,,,74,100
41856,note_on,,,,,0,0,15,,,,,7,,,69,100
41856,note_on,,,,,92,0,9,,,,,2,,,69,85
41856,note_on,,,,,92,0,11,,,,,4,,,50,85
41856,note_on,,,,,92,0,10,,,,,3,,,62,85
41856,note_on,,,,,92,0,16,,,,,7,,,50,100
41856,note_on,,,,,32,0,8,,,,,1,,,76,85
41856,note_on,,,,,92,0,12,,,,,5,,,38,85
41856,note_on,,,,,92,0,13,,,,,6,,,66,100
41856,note_on,,,,,92,0,14,,,,,6,,,50,100
41856,note_on,,,,,92,0,15,,,,,7,,,66,100
41856,note_on,,,,,0,0,13,,,,,6,,,69,100
41920,note_off,,,,,64,0,8,,,,,1,,,76,100
41952,note_on,,,,,32,0,8,,,,,1,,,78,85
41956,note_off,,,,,100,0,11,,,,,4,,,50,100
41956,note_off,,,,,100,0,10,,,,,3,,,62,100
41956,note_off,,,,,0,0,13,,,,,6,,,69,100
41956,note_off,,,,,100,0,13,,,,,6,,,66,100
41956,note_off,,,,,100,0,9,,,,,2,,,69,100
41956,note_off,,,,,100,0,14,,,,,6,,,50,100
41956,note_off,,,,,100,0,16,,,,,7,,,50,100
41956,note_off,,,,,100,0,12,,,,,5,,,38,100
41956,note_off,,,,,0,0,15,,,,,7,,,69,100
41956,note_off,,,,,100,0,15,,,,,7,,,66,100
42016,note_off,,,,,64,0,8,,,,,1,,,78,100
42048,note_on,,,,,92,0,10,,,,,3,,,59,85
42048,note_on,,,,,32,0,8,,,,,1,,,79,85
42048,note_on,,,,,92,0,11,,,,,4,,,43,85
42048,note_on,,,,,92,0,12,,,,,5,,,31,85
42048,note_on,,,,,0,0,13,,,,,6,,,62,100
42048,note_on,,,,,92,0,15,,,,,7,,,59,100
42048,note_on,,,,,0,0,15,,,,,7,,,67,100
42048,note_on,,,,,0,0,15,,,,,7,,,62,100
42048,note_on,,,,,92,0,13,,,,,6,,,59,100
42048,note_on,,,,,6812,0,7,,,,,0,,,79,93
42048,note_on,,,,,0,0,13,,,,,6,,,67,100
42048,note_on,,,,,92,0,14,,,,,6,,,43,100
42048,note_on,,,,,92,0,16,,,,,7,,,43,100
42048,note_on,,,,,92,0,9,,,,,2,,,67,85
42140,note_off,,,,,92,0,7,,,,,0,,,79,100
42144,note_on,,,,,4,0,7,,,,,0,,,74,93
42148,note_off,,,,,100,0,13,,,,,6,,,59,100
42148,note_off,,,,,0,0,13,,,,,6,,,62,100
42148,note_off,,,,,100,0,11,,,,,4,,,43,100
42148,note_off,,,,,0,0,13,,,,,6,,,67,100
42148,note_off,,,,,100,0,14,,,,,6,,,43,100
42236,note_off,,,,,92,0,7,,,,,0,,,74,100
42240,note_on,,,,,0,0,13,,,,,6,,,71,100
42240,note_on,,,,,92,0,11,,,,,4,,,55,80
42240,note_on,,,,,92,0,13,,,,,6,,,62,100
42240,note_on,,,,,92,0,14,,,,,6,,,55,100
42240,note_on,,,,,4,0,7,,,,,0,,,72,93
42304,note_off,,,,,256,0,12,,,,,5,,,31,100
42304,note_off,,,,,256,0,8,,,,,1,,,79,100
42304,note_off,,,,,256,0,9,,,,,2,,,67,100
42304,note_off,,,,,0,0,15,,,,,7,,,67,100
42304,note_off,,,,,0,0,15,,,,,7,,,62,100
42304,note_off,,,,,256,0,10,,,,,3,,,59,100
42304,note_off,,,,,256,0,15,,,,,7,,,59,100
42304,note_off,,,,,256,0,16,,,,,7,,,43,100
42332,note_off,,,,,92,0,7,,,,,0,,,72,100
42336,note_on,,,,,4,0,7,,,,,0,,,71,93
42340,note_off,,,,,0,0,13,,,,,6,,,71,100
42340,note_off,,,,,100,0,14,,,,,6,,,55,100
42340,note_off,,,,,100,0,11,,,,,4,,,55,100
42340,note_off,,,,,100,0,13,,,,,6,,,62,100
42428,note_off,,,,,92,0,7,,,,,0,,,71,100
42432,note_on,,,,,0,0,13,,,,,6,,,59,100
42432,note_on,,,,,92,0,13,,,,,6,,,62,100
42432,note_on,,,,,92,0,11,,,,,4,,,43,80
42432,note_on,,,,,4,0,7,,,,,0,,,72,93
42432,note_on,,,,,92,0,14,,,,,6,,,43,100
42524,note_off,,,,,92,0,7,,,,,0,,,72,100
42528,note_on,,,,,4,0,7,,,,,0,,,74,93
42532,note_off,,,,,100,0,13,,,,,6,,,62,100
42532,note_off,,,,,100,0,14,,,,,6,,,43,100
42532,note_off,,,,,0,0,13,,,,,6,,,59,100
42532,note_off,,,,,100,0,11,,,,,4,,,43,100
42592,note_off,,,,,64,0,7,,,,,0,,,74,100
42624,note_on,,,,,32,0,7,,,,,0,,,79,93
42716,note_off,,,,,92,0,7,,,,,0,,,79,100
42720,note_on,,,,,4,0,7,,,,,0,,,74,93
42812,note_off,,,,,92,0,7,,,,,0,,,74,100
42816,note_on,,,,,284,0,11,,,,,4,,,55,80
42816,note_on,,,,,4,0,7,,,,,0,,,72,93
42816,note_on,,,,,0,0,13,,,,,6,,,71,100
42816,note_on,,,,,284,0,14,,,,,6,,,55,100
42816,note_on,,,,,284,0,13,,,,,6,,,62,100
42908,note_off,,,,,92,0,7,,,,,0,,,72,100
42912,note_on,,,,,4,0,7,,,,,0,,,71,92
42916,note_off,,,,,100,0,13,,,,,6,,,62,100
42916,note_off,,,,,100,0,11,,,,,4,,,55,100
42916,note_off,,,,,0,0,13,,,,,6,,,71,100
42916,note_off,,,,,100,0,14,,,,,6,,,55,100
43004,note_off,,,,,92,0,7,,,,,0,,,71,100
43008,note_on,,,,,4,0,7,,,,,0,,,72,91
43008,note_on,,,,,0,0,13,,,,,6,,,59,100
43008,note_on,,,,,92,0,13,,,,,6,,,62,100
43008,note_on,,,,,92,0,14,,,,,6,,,43,100
43008,note_on,,,,,92,0,11,,,,,4,,,43,80
43100,note_off,,,,,92,0,7,,,,,0,,,72,100
43104,note_on,,,,,4,0,7,,,,,0,,,74,90
43108,note_off,,,,,100,0,11,,,,,4,,,43,100
43108,note_off,,,,,0,0,13,,,,,6,,,59,100
43108,note_off,,,,,100,0,14,,,,,6,,,43,100
43108,note_off,,,,,100,0,13,,,,,6,,,62,100
43168,note_off,,,,,64,0,7,,,,,0,,,74,100
43200,note_on,,,,,32,0,7,,,,,0,,,72,89
43292,note_off,,,,,92,0,7,,,,,0,,,72,100
43296,note_on,,,,,4,0,7,,,,,0,,,67,89
43388,note_off,,,,,92,0,7,,,,,0,,,67,100
43392,note_on,,,,,284,0,13,,,,,6,,,72,100
43392,note_on,,,,,284,0,14,,,,,6,,,60,100
43392,note_on,,,,,284,0,11,,,,,4,,,60,80
43392,note_on,,,,,0,0,13,,,,,6,,,64,100
43392,note_on,,,,,4,0,7,,,,,0,,,66,89
43484,note_off,,,,,92,0,7,,,,,0,,,66,100
43488,note_on,,,,,4,0,7,,,,,0,,,64,89
43492,note_off,,,,,100,0,14,,,,,6,,,60,100
43492,note_off,,,,,100,0,13,,,,,6,,,72,100
43492,note_off,,,,,0,0,13,,,,,6,,,64,100
43492,note_off,,,,,100,0,11,,,,,4,,,60,100
43580,note_off,,,,,92,0,7,,,,,0,,,64,100
43584,note_on,,,,,92,0,11,,,,,4,,,48,80
43584,note_on,,,,,4,0,7,,,,,0,,,66,89
43584,note_on,,,,,92,0,14,,,,,6,,,48,100
43584,note_on,,,,,0,0,13,,,,,6,,,64,100
43584,note_on,,,,,92,0,13,,,,,6,,,72,100
43676,note_off,,,,,92,0,7,,,,,0,,,66,100
43680,note_on,,,,,4,0,7,,,,,0,,,67,89
43684,note_off,,,,,0,0,13,,,,,6,,,64,100
43684,note_off,,,,,100,0,11,,,,,4,,,48,100
43684,note_off,,,,,100,0,14,,,,,6,,,48,100
43684,note_off,,,,,100,0,13,,,,,6,,,72,100
43744,note_off,,,,,64,0,7,,,,,0,,,67,100
43776,note_on,,,,,32,0,7,,,,,0,,,72,89
43868,note_off,,,,,92,0,7,,,,,0,,,72,100
43872,note_on,,,,,4,0,7,,,,,0,,,67,89
43964,note_off,,,,,92,0,7,,,,,0,,,67,100
43968,note_on,,,,,284,0,11,,,,,4,,,60,80
43968,note_on,,,,,284,0,13,,,,,6,,,72,100
43968,note_on,,,,,0,0,13,,,,,6,,,64,100
43968,note_on,,,,,4,0,7,,,,,0,,,66,89
43968,note_on,,,,,284,0,14,,,,,6,,,60,100
44060,note_off,,,,,92,0,7,,,,,0,,,66,100
44064,note_on,,,,,4,0,7,,,,,0,,,64,89
44068,note_off,,,,,0,0,13,,,,,6,,,64,100
44068,note_off,,,,,100,0,14,,,,,6,,,60,100
44068,note_off,,,,,100,0,11,,,,,4,,,60,100
44068,note_off,,,,,100,0,13,,,,,6,,,72,100
44156,note_off,,,,,92,0,7,,,,,0,,,64,100
44160,note_on,,,,,92,0,11,,,,,4,,,48,80
44160,note_on,,,,,92,0,13,,,,,6,,,72,100
44160,note_on,,,,,0,0,13,,,,,6,,,64,100
44160,note_on,,,,,4,0,7,,,,,0,,,66,89
44160,note_on,,,,,92,0,14,,,,,6,,,48,100
44252,note_off,,,,,92,0,7,,,,,0,,,66,100
44256,note_on,,,,,4,0,7,,,,,0,,,67,89
44260,note_off,,,,,100,0,14,,,,,6,,,48,100
44260,note_off,,,,,100,0,11,,,,,4,,,48,100
44260,note_off,,,,,0,0,13,,,,,6,,,64,100
44260,note_off,,,,,100,0,13,,,,,6,,,72,100
44320,note_off,,,,,64,0,7,,,,,0,,,67,100
44352,note_on,,,,,32,0,7,,,,,0,,,81,96
44444,note_off,,,,,92,0,7,,,,,0,,,81,100
44448,note_on,,,,,4,0,7,,,,,0,,,76,96
44540,note_off,,,,,92,0,7,,,,,0,,,76,100
44544,note_on,,,,,284,0,13,,,,,6,,,73,100
44544,note_on,,,,,4,0,7,,,,,0,,,74,96
44544,note_on,,,,,284,0,14,,,,,6,,,57,100
44544,note_on,,,,,284,0,11,,,,,4,,,57,80
44544,note_on,,,,,0,0,13,,,,,6,,,64,100
44636,note_off,,,,,92,0,7,,,,,0,,,74,100
44640,note_on,,,,,4,0,7,,,,,0,,,73,96
44644,note_off,,,,,0,0,13,,,,,6,,,64,100
44644,note_off,,,,,100,0,13,,,,,6,,,73,100
44644,note_off,,,,,100,0,11,,,,,4,,,57,100
44644,note_off,,,,,100,0,14,,,,,6,,,57,100
44732,note_off,,,,,92,0,7,,,,,0,,,73,100
44736,note_on,,,,,4,0,7,,,,,0,,,74,96
44736,note_on,,,,,0,0,13,,,,,6,,,64,100
44736,note_on,,,,,92,0,13,,,,,6,,,73,100
44736,note_on,,,,,92,0,11,,,,,4,,,45,80
44736,note_on,,,,,92,0,14,,,,,6,,,45,100
44828,note_off,,,,,92,0,7,,,,,0,,,74,100
44832,note_on,,,,,4,0,7,,,,,0,,,76,96
44836,note_off,,,,,100,0,14,,,,,6,,,45,100
44836,note_off,,,,,0,0,13,,,,,6,,,64,100
44836,note_off,,,,,100,0,13,,,,,6,,,73,100
44836,note_off,,,,,100,0,11,,,,,4,,,45,100
44896,note_off,,,,,64,0,7,,,,,0,,,76,100
44928,note_on,,,,,32,0,7,,,,,0,,,81,96
45020,note_off,,,,,92,0,7,,,,,0,,,81,100
45024,note_on,,,,,4,0,7,,,,,0,,,76,96
45116,note_off,,,,,92,0,7,,,,,0,,,76,100
45120,note_on,,,,,284,0,11,,,,,4,,,57,80
45120,note_on,,,,,4,0,7,,,,,0,,,74,95
45120,note_on,,,,,284,0,14,,,,,6,,,57,100
45120,note_on,,,,,284,0,13,,,,,6,,,73,100
45120,note_on,,,,,0,0,13,,,,,6,,,64,100
45212,note_off,,,,,92,0,7,,,,,0,,,74,100
45216,note_on,,,,,4,0,7,,,,,0,,,73,94
45220,note_off,,,,,100,0,14,,,,,6,,,57,100
45220,note_off,,,,,100,0,11,,,,,4,,,57,100
45220,note_off,,,,,0,0,13,,,,,6,,,64,100
45220,note_off,,,,,100,0,13,,,,,6,,,73,100
45308,note_off,,,,,92,0,7,,,,,0,,,73,100
45312,note_on,,,,,4,0,7,,,,,0,,,74,93
45312,note_on,,,,,92,0,14,,,,,6,,,45,100
45312,note_on,,,,,92,0,11,,,,,4,,,45,80
45312,note_on,,,,,92,0,13,,,,,6,,,73,100
45312,note_on,,,,,0,0,13,,,,,6,,,64,100
45404,note_off,,,,,92,0,7,,,,,0,,,74,100
45408,note_on,,,,,4,0,7,,,,,0,,,76,92
45412,note_off,,,,,0,0,13,,,,,6,,,64,100
45412,note_off,,,,,100,0,13,,,,,6,,,73,100
45412,note_off,,,,,100,0,11,,,,,4,,,45,100
45412,note_off,,,,,100,0,14,,,,,6,,,45,100
45472,note_off,,,,,64,0,7,,,,,0,,,76,100
45504,note_on,,,,,32,0,7,,,,,0,,,74,91
45596,note_off,,,,,92,0,7,,,,,0,,,74,100
45600,note_on,,,,,4,0,7,,,,,0,,,69,91
45692,note_off,,,,,92,0,7,,,,,0,,,69,100
45696,note_on,,,,,0,0,13,,,,,6,,,66,100
45696,note_on,,,,,284,0,13,,,,,6,,,74,100
45696,note_on,,,,,4,0,7,,,,,0,,,67,91
45696,note_on,,,,,284,0,11,,,,,4,,,62,80
45696,note_on,,,,,284,0,14,,,,,6,,,62,100
45788,note_off,,,,,92,0,7,,,,,0,,,67,100
45792,note_on,,,,,4,0,7,,,,,0,,,66,91
45796,note_off,,,,,100,0,14,,,,,6,,,62,100
45796,note_off,,,,,100,0,11,,,,,4,,,62,100
45796,note_off,,,,,0,0,13,,,,,6,,,66,100
45796,note_off,,,,,100,0,13,,,,,6,,,74,100
45884,note_off,,,,,92,0,7,,,,,0,,,66,100
45888,note_on,,,,,92,0,14,,,,,6,,,50,100
45888,note_on,,,,,92,0,11,,,,,4,,,50,80
45888,note_on,,,,,92,0,13,,,,,6,,,74,100
45888,note_on,,,,,0,0,13,,,,,6,,,66,100
45888,note_on,,,,,4,0,7,,,,,0,,,67,91
45980,note_off,,,,,92,0,7,,,,,0,,,67,100
45984,note_on,,,,,4,0,7,,,,,0,,,69,91
45988,note_off,,,,,100,0,14,,,,,6,,,50,100
45988,note_off,,,,,100,0,13,,,,,6,,,74,100
45988,note_off,,,,,0,0,13,,,,,6,,,66,100
45988,note_off,,,,,100,0,11,,,,,4,,,50,100
46048,note_off,,,,,64,0,7,,,,,0,,,69,100
46080,note_on,,,,,32,0,7,,,,,0,,,74,91
46172,note_off,,,,,92,0,7,,,,,0,,,74,100
46176,note_on,,,,,4,0,7,,,,,0,,,69,91
46268,note_off,,,,,92,0,7,,,,,0,,,69,100
46272,note_on,,,,,284,0,11,,,,,4,,,62,80
46272,note_on,,,,,284,0,13,,,,,6,,,74,100
46272,note_on,,,,,284,0,14,,,,,6,,,62,100
46272,note_on,,,,,0,0,13,,,,,6,,,66,100
46272,note_on,,,,,4,0,7,,,,,0,,,67,91
46364,note_off,,,,,92,0,7,,,,,0,,,67,100
46368,note_on,,,,,4,0,7,,,,,0,,,66,91
46372,note_off,,,,,100,0,13,,,,,6,,,74,100
46372,note_off,,,,,100,0,11,,,,,4,,,62,100
46372,note_off,,,,,100,0,14,,,,,6,,,62,100
46372,note_off,,,,,0,0,13,,,,,6,,,66,100
46460,note_off,,,,,92,0,7,,,,,0,,,66,100
46464,note_on,,,,,92,0,14,,,,,6,,,50,100
46464,note_on,,,,,92,0,13,,,,,6,,,74,100
46464,note_on,,,,,4,0,7,,,,,0,,,67,91
46464,note_on,,,,,92,0,11,,,,,4,,,50,80
46464,note_on,,,,,0,0,13,,,,,6,,,66,100
46556,note_off,,,,,92,0,7,,,,,0,,,67,100
46560,note_on,,,,,4,0,7,,,,,0,,,69,91
46564,note_off,,,,,100,0,13,,,,,6,,,74,100
46564,note_off,,,,,0,0,13,,,,,6,,,66,100
46564,note_off,,,,,100,0,14,,,,,6,,,50,100
46564,note_off,,,,,100,0,11,,,,,4,,,50,100
46624,note_off,,,,,64,0,7,,,,,0,,,69,100
46656,note_on,,,,,32,0,7,,,,,0,,,83,99
46748,note_off,,,,,92,0,7,,,,,0,,,83,100
46752,note_on,,,,,4,0,7,,,,,0,,,78,99
46844,note_off,,,,,92,0,7,,,,,0,,,78,100
46848,note_on,,,,,0,0,13,,,,,6,,,66,100
46848,note_on,,,,,284,0,14,,,,,6,,,59,100
46848,note_on,,,,,4,0,7,,,,,0,,,76,99
46848,note_on,,,,,284,0,11,,,,,4,,,59,80
46848,note_on,,,,,284,0,13,,,,,6,,,75,100
46940,note_off,,,,,92,0,7,,,,,0,,,76,100
46944,note_on,,,,,4,0,7,,,,,0,,,75,99
46948,note_off,,,,,100,0,11,,,,,4,,,59,100
46948,note_off,,,,,100,0,13,,,,,6,,,75,100
46948,note_off,,,,,0,0,13,,,,,6,,,66,100
46948,note_off,,,,,100,0,14,,,,,6,,,59,100
47036,note_off,,,,,92,0,7,,,,,0,,,75,100
47040,note_on,,,,,92,0,13,,,,,6,,,75,100
47040,note_on,,,,,0,0,13,,,,,6,,,66,100
47040,note_on,,,,,92,0,14,,,,,6,,,47,100
47040,note_on,,,,,92,0,11,,,,,4,,,47,80
47040,note_on,,,,,4,0,7,,,,,0,,,76,99
47132,note_off,,,,,92,0,7,,,,,0,,,76,100
47136,note_on,,,,,4,0,7,,,,,0,,,78,99
47140,note_off,,,,,100,0,13,,,,,6,,,75,100
47140,note_off,,,,,0,0,13,,,,,6,,,66,100
47140,note_off,,,,,100,0,11,,,,,4,,,47,100
47140,note_off,,,,,100,0,14,,,,,6,,,47,100
47200,note_off,,,,,64,0,7,,,,,0,,,78,100
47232,note_on,,,,,32,0,7,,,,,0,,,83,99
47324,note_off,,,,,92,0,7,,,,,0,,,83,100
47328,note_on,,,,,4,0,7,,,,,0,,,78,99
47420,note_off,,,,,92,0,7,,,,,0,,,78,100
47424,note_on,,,,,284,0,13,,,,,6,,,75,100
47424,note_on,,,,,4,0,7,,,,,0,,,76,98
47424,note_on,,,,,284,0,14,,,,,6,,,59,100
47424,note_on,,,,,284,0,11,,,,,4,,,59,80
47424,note_on,,,,,0,0,13,,,,,6,,,66,100
47516,note_off,,,,,92,0,7,,,,,0,,,76,100
47520,note_on,,,,,4,0,7,,,,,0,,,75,97
47524,note_off,,,,,100,0,14,,,,,6,,,59,100
47524,note_off,,,,,0,0,13,,,,,6,,,66,100
47524,note_off,,,,,100,0,13,,,,,6,,,75,100
47524,note_off,,,,,100,0,11,,,,,4,,,59,100
47612,note_off,,,,,92,0,7,,,,,0,,,75,100
47616,note_on,,,,,92,0,13,,,,,6,,,75,100
47616,note_on,,,,,0,0,13,,,,,6,,,66,100
47616,note_on,,,,,92,0,14,,,,,6,,,47,100
47616,note_on,,,,,4,0,7,,,,,0,,,76,96
47616,note_on,,,,,92,0,11,,,,,4,,,47,80
47708,note_off,,,,,92,0,7,,,,,0,,,76,100
47712,note_on,,,,,4,0,7,,,,,0,,,78,95
47716,note_off,,,,,100,0,14,,,,,6,,,47,100
47716,note_off,,,,,100,0,11,,,,,4,,,47,100
47716,note_off,,,,,100,0,13,,,,,6,,,75,100
47716,note_off,,,,,0,0,13,,,,,6,,,66,100
47776,note_off,,,,,64,0,7,,,,,0,,,78,100
47808,note_on,,,,,32,0,7,,,,,0,,,76,94
47900,note_off,,,,,92,0,7,,,,,0,,,76,100
47904,note_on,,,,,4,0,7,,,,,0,,,71,94
47996,note_off,,,,,92,0,7,,,,,0,,,71,100
48000,note_on,,,,,4,0,7,,,,,0,,,69,94
48000,note_on,,,,,284,0,13,,,,,6,,,67,100
48000,note_on,,,,,0,0,13,,,,,6,,,76,100
48000,note_on,,,,,284,0,14,,,,,6,,,64,100
48000,note_on,,,,,284,0,11,,,,,4,,,64,80
48092,note_off,,,,,92,0,7,,,,,0,,,69,100
48096,note_on,,,,,4,0,7,,,,,0,,,67,94
48100,note_off,,,,,0,0,13,,,,,6,,,76,100
48100,note_off,,,,,100,0,13,,,,,6,,,67,100
48100,note_off,,,,,100,0,11,,,,,4,,,64,100
48100,note_off,,,,,100,0,14,,,,,6,,,64,100
48188,note_off,,,,,92,0,7,,,,,0,,,67,100
48192,note_on,,,,,92,0,11,,,,,4,,,52,80
48192,note_on,,,,,4,0,7,,,,,0,,,69,94
48192,note_on,,,,,92,0,14,,,,,6,,,52,100
48192,note_on,,,,,0,0,13,,,,,6,,,76,100
48192,note_on,,,,,92,0,13,,,,,6,,,67,100
48284,note_off,,,,,92,0,7,,,,,0,,,69,100
48288,note_on,,,,,4,0,7,,,,,0,,,71,94
48292,note_off,,,,,100,0,11,,,,,4,,,52,100
48292,note_off,,,,,0,0,13,,,,,6,,,76,100
48292,note_off,,,,,100,0,13,,,,,6,,,67,100
48292,note_off,,,,,100,0,14,,,,,6,,,52,100
48352,note_off,,,,,64,0,7,,,,,0,,,71,100
48384,note_on,,,,,32,0,7,,,,,0,,,76,94
48476,note_off,,,,,92,0,7,,,,,0,,,76,100
48480,note_on,,,,,4,0,7,,,,,0,,,71,94
48572,note_off,,,,,92,0,7,,,,,0,,,71,100
48576,note_on,,,,,284,0,14,,,,,6,,,64,100
48576,note_on,,,,,284,0,11,,,,,4,,,64,80
48576,note_on,,,,,284,0,13,,,,,6,,,67,100
48576,note_on,,,,,0,0,13,,,,,6,,,76,100
48576,note_on,,,,,4,0,7,,,,,0,,,69,94
48668,note_off,,,,,92,0,7,,,,,0,,,69,100
48672,note_on,,,,,4,0,7,,,,,0,,,67,94
48676,note_off,,,,,0,0,13,,,,,6,,,76,100
48676,note_off,,,,,100,0,14,,,,,6,,,64,100
48676,note_off,,,,,100,0,11,,,,,4,,,64,100
48676,note_off,,,,,100,0,13,,,,,6,,,67,100
48764,note_off,,,,,92,0,7,,,,,0,,,67,100
48768,note_on,,,,,92,0,11,,,,,4,,,52,80
48768,note_on,,,,,92,0,13,,,,,6,,,67,100
48768,note_on,,,,,0,0,13,,,,,6,,,76,100
48768,note_on,,,,,4,0,7,,,,,0,,,69,94
48768,note_on,,,,,92,0,14,,,,,6,,,52,100
48860,note_off,,,,,92,0,7,,,,,0,,,69,100
48864,note_on,,,,,4,0,7,,,,,0,,,71,94
48868,note_off,,,,,0,0,13,,,,,6,,,76,100
48868,note_off,,,,,100,0,13,,,,,6,,,67,100
48868,note_off,,,,,100,0,11,,,,,4,,,52,100
48868,note_off,,,,,100,0,14,,,,,6,,,52,100
48928,note_off,,,,,64,0,7,,,,,0,,,71,100
48960,note_on,,,,,32,0,7,,,,,0,,,76,99
49052,note_off,,,,,92,0,7,,,,,0,,,76,100
49056,note_on,,,,,4,0,7,,,,,0,,,79,99
49148,note_off,,,,,92,0,7,,,,,0,,,79,100
49152,note_on,,,,,284,0,11,,,,,4,,,60,80
49152,note_on,,,,,4,0,7,,,,,0,,,78,100
49152,note_on,,,,,284,0,13,,,,,6,,,67,100
49152,note_on,,,,,0,0,13,,,,,6,,,76,100
49152,note_on,,,,,284,0,14,,,,,6,,,60,100
49244,note_off,,,,,92,0,7,,,,,0,,,78,100
49248,note_on,,,,,4,0,7,,,,,0,,,76,101
49252,note_off,,,,,100,0,11,,,,,4,,,60,100
49252,note_off,,,,,100,0,13,,,,,6,,,67,100
49252,note_off,,,,,100,0,14,,,,,6,,,60,100
49252,note_off,,,,,0,0,13,,,,,6,,,76,100
49340,note_off,,,,,92,0,7,,,,,0,,,76,100
49344,note_on,,,,,0,0,13,,,,,6,,,67,100
49344,note_on,,,,,4,0,7,,,,,0,,,79,102
49344,note_on,,,,,92,0,14,,,,,6,,,48,100
49344,note_on,,,,,92,0,13,,,,,6,,,64,100
49344,note_on,,,,,92,0,11,,,,,4,,,48,80
49436,note_off,,,,,92,0,7,,,,,0,,,79,100
49440,note_on,,,,,4,0,7,,,,,0,,,83,103
49444,note_off,,,,,100,0,14,,,,,6,,,48,100
49444,note_off,,,,,0,0,13,,,,,6,,,67,100
49444,note_off,,,,,100,0,11,,,,,4,,,48,100
49444,note_off,,,,,100,0,13,,,,,6,,,64,100
49504,note_off,,,,,64,0,7,,,,,0,,,83,100
49536,note_on,,,,,32,0,7,,,,,0,,,84,105
49724,note_off,,,,,188,0,7,,,,,0,,,84,100
49728,note_on,,,,,284,0,14,,,,,6,,,60,100
49728,note_on,,,,,4,0,7,,,,,0,,,88,103
49728,note_on,,,,,284,0,11,,,,,4,,,60,80
49728,note_on,,,,,284,0,13,,,,,6,,,67,100
49728,note_on,,,,,0,0,13,,,,,6,,,76,100
49828,note_off,,,,,100,0,13,,,,,6,,,67,100
49828,note_off,,,,,100,0,11,,,,,4,,,60,100
49828,note_off,,,,,0,0,13,,,,,6,,,76,100
49828,note_off,,,,,100,0,14,,,,,6,,,60,100
49916,note_off,,,,,188,0,7,,,,,0,,,88,100
49920,note_on,,,,,4,0,7,,,,,0,,,84,101
49920,note_on,,,,,92,0,11,,,,,4,,,48,80
49920,note_on,,,,,0,0,13,,,,,6,,,67,100
49920,note_on,,,,,92,0,14,,,,,6,,,48,100
49920,note_on,,,,,92,0,13,,,,,6,,,64,100
50020,note_off,,,,,100,0,11,,,,,4,,,48,100
50020,note_off,,,,,100,0,14,,,,,6,,,48,100
50020,note_off,,,,,100,0,7,,,,,0,,,84,100
50020,note_off,,,,,100,0,13,,,,,6,,,64,100
50020,note_off,,,,,0,0,13,,,,,6,,,67,100
50112,note_on,,,,,92,0,13,,,,,6,,,69,100
50112,note_on,,,,,92,0,14,,,,,6,,,48,100
50112,note_on,,,,,0,0,13,,,,,6,,,64,100
50112,note_on,,,,,92,0,11,,,,,4,,,48,80
50112,note_on,,,,,92,0,7,,,,,0,,,81,105
50212,note_off,,,,,100,0,13,,,,,6,,,69,100
50212,note_off,,,,,0,0,13,,,,,6,,,64,100
50212,note_off,,,,,100,0,11,,,,,4,,,48,100
50212,note_off,,,,,100,0,14,,,,,6,,,48,100
50300,note_off,,,,,188,0,7,,,,,0,,,81,100
50304,note_on,,,,,4,0,7,,,,,0,,,84,103
50304,note_on,,,,,92,0,14,,,,,6,,,52,100
50304,note_on,,,,,92,0,11,,,,,4,,,52,80
50304,note_on,,,,,0,0,13,,,,,6,,,72,100
50304,note_on,,,,,92,0,13,,,,,6,,,69,100
50404,note_off,,,,,100,0,11,,,,,4,,,52,100
50404,note_off,,,,,100,0,14,,,,,6,,,52,100
50404,note_off,,,,,100,0,13,,,,,6,,,69,100
50404,note_off,,,,,0,0,13,,,,,6,,,72,100
50492,note_off,,,,,188,0,7,,,,,0,,,84,100
50496,note_on,,,,,92,0,13,,,,,6,,,64,100
50496,note_on,,,,,0,0,13,,,,,6,,,67,100
50496,note_on,,,,,92,0,11,,,,,4,,,48,80
50496,note_on,,,,,0,0,13,,,,,6,,,69,100
50496,note_on,,,,,4,0,7,,,,,0,,,79,101
50496,note_on,,,,,92,0,14,,,,,6,,,48,100
50596,note_off,,,,,100,0,7,,,,,0,,,79,100
50596,note_off,,,,,100,0,11,,,,,4,,,48,100
50596,note_off,,,,,0,0,13,,,,,6,,,67,100
50596,note_off,,,,,100,0,13,,,,,6,,,64,100
50596,note_off,,,,,100,0,14,,,,,6,,,48,100
50596,note_off,,,,,0,0,13,,,,,6,,,69,100
50688,note_on,,,,,0,0,13,,,,,6,,,66,100
50688,note_on,,,,,92,0,14,,,,,6,,,50,100
50688,note_on,,,,,92,0,13,,,,,6,,,69,100
50688,note_on,,,,,92,0,11,,,,,4,,,50,80
50688,note_on,,,,,92,0,7,,,,,0,,,78,105
50688,note_on,,,,,0,0,13,,,,,6,,,62,100
50732,note_off,,,,,44,0,7,,,,,0,,,78,100
50736,note_on,,,,,4,0,7,,,,,0,,,79,105
50780,note_off,,,,,44,0,7,,,,,0,,,79,100
50784,note_on,,,,,4,0,7,,,,,0,,,78,104
50788,note_off,,,,,100,0,11,,,,,4,,,50,100
50788,note_off,,,,,100,0,14,,,,,6,,,50,100
50788,note_off,,,,,100,0,13,,,,,6,,,69,100
50788,note_off,,,,,0,0,13,,,,,6,,,62,100
50788,note_off,,,,,0,0,13,,,,,6,,,66,100
50828,note_off,,,,,44,0,7,,,,,0,,,78,100
50832,note_on,,,,,4,0,7,,,,,0,,,79,103
50876,note_off,,,,,44,0,7,,,,,0,,,79,100
50880,note_on,,,,,92,0,11,,,,,4,,,50,80
50880,note_on,,,,,4,0,7,,,,,0,,,78,102
50880,note_on,,,,,92,0,13,,,,,6,,,62,100
50880,note_on,,,,,0,0,13,,,,,6,,,66,100
50880,note_on,,,,,92,0,14,,,,,6,,,50,100
50944,note_off,,,,,64,0,7,,,,,0,,,78,100
50976,note_on,,,,,32,0,7,,,,,0,,,76,100
51040,note_off,,,,,64,0,7,,,,,0,,,76,100
51072,note_on,,,,,32,0,7,,,,,0,,,74,98
51072,note_off,,,,,192,0,14,,,,,6,,,50,100
51072,note_off,,,,,0,0,13,,,,,6,,,66,100
51072,note_off,,,,,192,0,13,,,,,6,,,62,100
51072,note_off,,,,,192,0,11,,,,,4,,,50,100
51168,note_on,,,,,96,0,13,,,,,6,,,60,100
51168,note_on,,,,,0,0,13,,,,,6,,,64,100
51168,note_on,,,,,96,0,11,,,,,4,,,48,80
51168,note_on,,,,,96,0,14,,,,,6,,,48,100
51172,note_off,,,,,100,0,7,,,,,0,,,74,100
51216,note_off,,,,,0,0,13,,,,,6,,,64,100
51216,note_off,,,,,48,0,13,,,,,6,,,60,100
51232,note_off,,,,,64,0,14,,,,,6,,,48,100
51232,note_off,,,,,64,0,11,,,,,4,,,48,100
51264,note_on,,,,,0,0,13,,,,,6,,,62,100
51264,note_on,,,,,32,0,14,,,,,6,,,47,100
51264,note_on,,,,,32,0,11,,,,,4,,,47,80
51264,note_on,,,,,92,0,7,,,,,0,,,79,100
51264,note_on,,,,,48,0,13,,,,,6,,,55,100
51356,note_off,,,,,92,0,7,,,,,0,,,79,100
51360,note_on,,,,,4,0,7,,,,,0,,,74,100
51364,note_off,,,,,100,0,14,,,,,6,,,47,100
51364,note_off,,,,,100,0,11,,,,,4,,,47,100
51364,note_off,,,,,100,0,13,,,,,6,,,55,100
51364,note_off,,,,,0,0,13,,,,,6,,,62,100
51452,note_off,,,,,92,0,7,,,,,0,,,74,100
51456,note_on,,,,,92,0,11,,,,,4,,,55,80
51456,note_on,,,,,0,0,13,,,,,6,,,62,100
51456,note_on,,,,,4,0,7,,,,,0,,,72,100
51456,note_on,,,,,92,0,14,,,,,6,,,55,100
51456,note_on,,,,,92,0,13,,,,,6,,,71,100
51548,note_off,,,,,92,0,7,,,,,0,,,72,100
51552,note_on,,,,,4,0,7,,,,,0,,,71,100
51556,note_off,,,,,100,0,13,,,,,6,,,71,100
51556,note_off,,,,,0,0,13,,,,,6,,,62,100
51556,note_off,,,,,100,0,14,,,,,6,,,55,100
51556,note_off,,,,,100,0,11,,,,,4,,,55,100
51644,note_off,,,,,92,0,7,,,,,0,,,71,100
51648,note_on,,,,,92,0,11,,,,,4,,,43,80
51648,note_on,,,,,4,0,7,,,,,0,,,72,100
51648,note_on,,,,,92,0,14,,,,,6,,,43,100
51648,note_on,,,,,92,0,13,,,,,6,,,59,100
51648,note_on,,,,,0,0,13,,,,,6,,,62,100
51740,note_off,,,,,92,0,7,,,,,0,,,72,100
51744,note_on,,,,,4,0,7,,,,,0,,,74,100
51748,note_off,,,,,100,0,14,,,,,6,,,43,100
51748,note_off,,,,,100,0,13,,,,,6,,,59,100
51748,note_off,,,,,100,0,11,,,,,4,,,43,100
51748,note_off,,,,,0,0,13,,,,,6,,,62,100
51808,note_off,,,,,64,0,7,,,,,0,,,74,100
51840,note_on,,,,,32,0,7,,,,,0,,,79,100
51932,note_off,,,,,92,0,7,,,,,0,,,79,100
51936,note_on,,,,,4,0,7,,,,,0,,,74,100
52028,note_off,,,,,92,0,7,,,,,0,,,74,100
52032,note_on,,,,,0,0,13,,,,,6,,,62,100
52032,note_on,,,,,4,0,7,,,,,0,,,72,100
52032,note_on,,,,,284,0,13,,,,,6,,,71,100
52032,note_on,,,,,284,0,14,,,,,6,,,55,100
52032,note_on,,,,,284,0,11,,,,,4,,,55,80
52124,note_off,,,,,92,0,7,,,,,0,,,72,100
52128,note_on,,,,,4,0,7,,,,,0,,,71,100
52132,note_off,,,,,0,0,13,,,,,6,,,62,100
52132,note_off,,,,,100,0,14,,,,,6,,,55,100
52132,note_off,,,,,100,0,13,,,,,6,,,71,100
52132,note_off,,,,,100,0,11,,,,,4,,,55,100
52220,note_off,,,,,92,0,7,,,,,0,,,71,100
52224,note_on,,,,,92,0,14,,,,,6,,,43,100
52224,note_on,,,,,92,0,13,,,,,6,,,59,100
52224,note_on,,,,,92,0,11,,,,,4,,,43,80
52224,note_on,,,,,4,0,7,,,,,0,,,72,100
52224,note_on,,,,,0,0,13,,,,,6,,,62,100
52316,note_off,,,,,92,0,7,,,,,0,,,72,100
52320,note_on,,,,,4,0,7,,,,,0,,,74,100
52324,note_off,,,,,0,0,13,,,,,6,,,62,100
52324,note_off,,,,,100,0,11,,,,,4,,,43,100
52324,note_off,,,,,100,0,14,,,,,6,,,43,100
52324,note_off,,,,,100,0,13,,,,,6,,,59,100
52384,note_off,,,,,64,0,7,,,,,0,,,74,100
52416,note_on,,,,,32,0,7,,,,,0,,,79,100
52508,note_off,,,,,92,0,7,,,,,0,,,79,100
52512,note_on,,,,,4,0,7,,,,,0,,,74,100
52604,note_off,,,,,92,0,7,,,,,0,,,74,100
52608,note_on,,,,,4,0,7,,,,,0,,,72,99
52608,note_on,,,,,284,0,14,,,,,6,,,55,100
52608,note_on,,,,,284,0,11,,,,,4,,,55,80
52608,note_on,,,,,0,0,13,,,,,6,,,62,100
52608,note_on,,,,,284,0,13,,,,,6,,,70,100
52700,note_off,,,,,92,0,7,,,,,0,,,72,100
52704,note_on,,,,,4,0,7,,,,,0,,,70,98
52708,note_off,,,,,100,0,13,,,,,6,,,70,100
52708,note_off,,,,,0,0,13,,,,,6,,,62,100
52708,note_off,,,,,100,0,14,,,,,6,,,55,100
52708,note_off,,,,,100,0,11,,,,,4,,,55,100
52796,note_off,,,,,92,0,7,,,,,0,,,70,100
52800,note_on,,,,,92,0,14,,,,,6,,,43,100
52800,note_on,,,,,4,0,7,,,,,0,,,72,97
52800,note_on,,,,,92,0,11,,,,,4,,,43,80
52800,note_on,,,,,0,0,13,,,,,6,,,62,100
52800,note_on,,,,,92,0,13,,,,,6,,,58,100
52892,note_off,,,,,92,0,7,,,,,0,,,72,100
52896,note_on,,,,,4,0,7,,,,,0,,,74,96
52900,note_off,,,,,100,0,14,,,,,6,,,43,100
52900,note_off,,,,,100,0,11,,,,,4,,,43,100
52900,note_off,,,,,100,0,13,,,,,6,,,58,100
52900,note_off,,,,,0,0,13,,,,,6,,,62,100
52960,note_off,,,,,64,0,7,,,,,0,,,74,100
52992,note_on,,,,,32,0,7,,,,,0,,,79,95
53084,note_off,,,,,92,0,7,,,,,0,,,79,100
53088,note_on,,,,,4,0,7,,,,,0,,,74,94
53180,note_off,,,,,92,0,7,,,,,0,,,74,100
53184,note_on,,,,,4,0,7,,,,,0,,,72,93
53184,note_on,,,,,284,0,14,,,,,6,,,55,100
53184,note_on,,,,,284,0,11,,,,,4,,,55,80
53184,note_on,,,,,0,0,13,,,,,6,,,62,100
53184,note_on,,,,,284,0,13,,,,,6,,,70,100
53276,note_off,,,,,92,0,7,,,,,0,,,72,100
53280,note_on,,,,,4,0,7,,,,,0,,,70,92
53284,note_off,,,,,100,0,13,,,,,6,,,70,100
53284,note_off,,,,,100,0,11,,,,,4,,,55,100
53284,note_off,,,,,0,0,13,,,,,6,,,62,100
53284,note_off,,,,,100,0,14,,,,,6,,,55,100
53372,note_off,,,,,92,0,7,,,,,0,,,70,100
53376,note_on,,,,,0,0,13,,,,,6,,,62,100
53376,note_on,,,,,92,0,13,,,,,6,,,67,100
53376,note_on,,,,,4,0,7,,,,,0,,,72,91
53376,note_on,,,,,92,0,14,,,,,6,,,46,100
53376,note_on,,,,,92,0,11,,,,,4,,,46,80
53468,note_off,,,,,92,0,7,,,,,0,,,72,100
53472,note_on,,,,,4,0,7,,,,,0,,,74,91
53476,note_off,,,,,100,0,14,,,,,6,,,46,100
53476,note_off,,,,,100,0,13,,,,,6,,,67,100
53476,note_off,,,,,100,0,11,,,,,4,,,46,100
53476,note_off,,,,,0,0,13,,,,,6,,,62,100
53536,note_off,,,,,64,0,7,,,,,0,,,74,100
53568,note_on,,,,,0,0,13,,,,,6,,,63,100
53568,note_on,,,,,32,0,7,,,,,0,,,79,90
53568,note_on,,,,,92,0,14,,,,,6,,,48,100
53568,note_on,,,,,92,0,11,,,,,4,,,48,80
53568,note_on,,,,,92,0,13,,,,,6,,,67,100
53660,note_off,,,,,92,0,7,,,,,0,,,79,100
53664,note_on,,,,,4,0,7,,,,,0,,,75,90
53668,note_off,,,,,100,0,14,,,,,6,,,48,100
53668,note_off,,,,,100,0,13,,,,,6,,,67,100
53668,note_off,,,,,0,0,13,,,,,6,,,63,100
53668,note_off,,,,,100,0,11,,,,,4,,,48,100
53756,note_off,,,,,92,0,7,,,,,0,,,75,100
53760,note_on,,,,,4,0,7,,,,,0,,,74,90
53760,note_on,,,,,92,0,11,,,,,4,,,48,80
53760,note_on,,,,,0,0,13,,,,,6,,,63,100
53760,note_on,,,,,92,0,13,,,,,6,,,67,100
53760,note_on,,,,,92,0,14,,,,,6,,,48,100
53852,note_off,,,,,92,0,7,,,,,0,,,74,100
53856,note_on,,,,,4,0,7,,,,,0,,,72,91
53860,note_off,,,,,100,0,13,,,,,6,,,67,100
53860,note_off,,,,,100,0,11,,,,,4,,,48,100
53860,note_off,,,,,100,0,14,,,,,6,,,48,100
53860,note_off,,,,,0,0,13,,,,,6,,,63,100
53948,note_off,,,,,92,0,7,,,,,0,,,72,100
53952,note_on,,,,,0,0,13,,,,,6,,,63,100
53952,note_on,,,,,92,0,14,,,,,6,,,48,100
53952,note_on,,,,,92,0,13,,,,,6,,,67,100
53952,note_on,,,,,4,0,7,,,,,0,,,74,91
53952,note_on,,,,,92,0,11,,,,,4,,,48,80
54044,note_off,,,,,92,0,7,,,,,0,,,74,100
54048,note_on,,,,,4,0,7,,,,,0,,,75,92
54052,note_off,,,,,0,0,13,,,,,6,,,63,100
54052,note_off,,,,,100,0,13,,,,,6,,,67,100
54052,note_off,,,,,100,0,14,,,,,6,,,48,100
54052,note_off,,,,,100,0,11,,,,,4,,,48,100
54112,note_off,,,,,64,0,7,,,,,0,,,75,100
54144,note_on,,,,,32,0,7,,,,,0,,,79,92
54144,note_on,,,,,92,0,13,,,,,6,,,67,100
54144,note_on,,,,,0,0,13,,,,,6,,,63,100
54144,note_on,,,,,92,0,11,,,,,4,,,48,80
54144,note_on,,,,,92,0,14,,,,,6,,,48,100
54236,note_off,,,,,92,0,7,,,,,0,,,79,100
54240,note_on,,,,,4,0,7,,,,,0,,,75,93
54244,note_off,,,,,100,0,14,,,,,6,,,48,100
54244,note_off,,,,,0,0,13,,,,,6,,,63,100
54244,note_off,,,,,100,0,13,,,,,6,,,67,100
54244,note_off,,,,,100,0,11,,,,,4,,,48,100
54332,note_off,,,,,92,0,7,,,,,0,,,75,100
54336,note_on,,,,,92,0,11,,,,,4,,,48,80
54336,note_on,,,,,4,0,7,,,,,0,,,74,93
54336,note_on,,,,,0,0,13,,,,,6,,,63,100
54336,note_on,,,,,92,0,13,,,,,6,,,67,100
54336,note_on,,,,,92,0,14,,,,,6,,,48,100
54428,note_off,,,,,92,0,7,,,,,0,,,74,100
54432,note_on,,,,,4,0,7,,,,,0,,,72,94
54436,note_off,,,,,100,0,13,,,,,6,,,67,100
54436,note_off,,,,,0,0,13,,,,,6,,,63,100
54436,note_off,,,,,100,0,14,,,,,6,,,48,100
54436,note_off,,,,,100,0,11,,,,,4,,,48,100
54524,note_off,,,,,92,0,7,,,,,0,,,72,100
54528,note_on,,,,,4,0,7,,,,,0,,,74,94
54528,note_on,,,,,92,0,11,,,,,4,,,48,80
54528,note_on,,,,,0,0,13,,,,,6,,,63,100
54528,note_on,,,,,92,0,13,,,,,6,,,67,100
54528,note_on,,,,,92,0,14,,,,,6,,,48,100
54620,note_off,,,,,92,0,7,,,,,0,,,74,100
54624,note_on,,,,,4,0,7,,,,,0,,,75,95
54628,note_off,,,,,100,0,14,,,,,6,,,48,100
54628,note_off,,,,,100,0,11,,,,,4,,,48,100
54628,note_off,,,,,100,0,13,,,,,6,,,67,100
54628,note_off,,,,,0,0,13,,,,,6,,,63,100
54688,note_off,,,,,64,0,7,,,,,0,,,75,100
54720,note_on,,,,,92,0,11,,,,,4,,,48,80
54720,note_on,,,,,92,0,13,,,,,6,,,66,100
54720,note_on,,,,,32,0,7,,,,,0,,,78,95
54720,note_on,,,,,92,0,14,,,,,6,,,48,100
54720,note_on,,,,,0,0,13,,,,,6,,,69,100
54812,note_off,,,,,92,0,7,,,,,0,,,78,100
54816,note_on,,,,,4,0,7,,,,,0,,,75,96
54820,note_off,,,,,100,0,14,,,,,6,,,48,100
54820,note_off,,,,,100,0,13,,,,,6,,,66,100
54820,note_off,,,,,0,0,13,,,,,6,,,69,100
54820,note_off,,,,,100,0,11,,,,,4,,,48,100
54908,note_off,,,,,92,0,7,,,,,0,,,75,100
54912,note_on,,,,,4,0,7,,,,,0,,,74,96
54912,note_on,,,,,0,0,13,,,,,6,,,69,100
54912,note_on,,,,,92,0,13,,,,,6,,,66,100
54912,note_on,,,,,92,0,11,,,,,4,,,48,80
54912,note_on,,,,,92,0,14,,,,,6,,,48,100
55004,note_off,,,,,92,0,7,,,,,0,,,74,100
55008,note_on,,,,,4,0,7,,,,,0,,,72,97
55012,note_off,,,,,100,0,11,,,,,4,,,48,100
55012,note_off,,,,,100,0,14,,,,,6,,,48,100
55012,note_off,,,,,100,0,13,,,,,6,,,66,100
55012,note_off,,,,,0,0,13,,,,,6,,,69,100
55100,note_off,,,,,92,0,7,,,,,0,,,72,100
55104,note_on,,,,,92,0,13,,,,,6,,,66,100
55104,note_on,,,,,92,0,11,,,,,4,,,48,80
55104,note_on,,,,,0,0,13,,,,,6,,,69,100
55104,note_on,,,,,4,0,7,,,,,0,,,74,97
55104,note_on,,,,,92,0,14,,,,,6,,,48,100
55196,note_off,,,,,92,0,7,,,,,0,,,74,100
55200,note_on,,,,,4,0,7,,,,,0,,,75,98
55204,note_off,,,,,100,0,14,,,,,6,,,48,100
55204,note_off,,,,,100,0,13,,,,,6,,,66,100
55204,note_off,,,,,0,0,13,,,,,6,,,69,100
55204,note_off,,,,,100,0,11,,,,,4,,,48,100
55264,note_off,,,,,64,0,7,,,,,0,,,75,100
55296,note_on,,,,,92,0,14,,,,,6,,,48,100
55296,note_on,,,,,92,0,13,,,,,6,,,66,100
55296,note_on,,,,,0,0,13,,,,,6,,,69,100
55296,note_on,,,,,92,0,11,,,,,4,,,48,80
55296,note_on,,,,,32,0,7,,,,,0,,,78,98
55388,note_off,,,,,92,0,7,,,,,0,,,78,100
55392,note_on,,,,,4,0,7,,,,,0,,,75,99
55396,note_off,,,,,100,0,11,,,,,4,,,48,100
55396,note_off,,,,,100,0,13,,,,,6,,,66,100
55396,note_off,,,,,100,0,14,,,,,6,,,48,100
55396,note_off,,,,,0,0,13,,,,,6,,,69,100
55484,note_off,,,,,92,0,7,,,,,0,,,75,100
55488,note_on,,,,,4,0,7,,,,,0,,,74,99
55488,note_on,,,,,92,0,14,,,,,6,,,48,100
55488,note_on,,,,,92,0,13,,,,,6,,,66,100
55488,note_on,,,,,0,0,13,,,,,6,,,69,100
55488,note_on,,,,,92,0,11,,,,,4,,,48,80
55580,note_off,,,,,92,0,7,,,,,0,,,74,100
55584,note_on,,,,,4,0,7,,,,,0,,,72,100
55588,note_off,,,,,100,0,13,,,,,6,,,66,100
55588,note_off,,,,,0,0,13,,,,,6,,,69,100
55588,note_off,,,,,100,0,11,,,,,4,,,48,100
55588,note_off,,,,,100,0,14,,,,,6,,,48,100
55676,note_off,,,,,92,0,7,,,,,0,,,72,100
55680,note_on,,,,,92,0,14,,,,,6,,,48,100
55680,note_on,,,,,92,0,11,,,,,4,,,48,80
55680,note_on,,,,,4,0,7,,,,,0,,,74,100
55680,note_on,,,,,92,0,13,,,,,6,,,66,100
55680,note_on,,,,,0,0,13,,,,,6,,,69,100
55772,note_off,,,,,92,0,7,,,,,0,,,74,100
55776,note_on,,,,,4,0,7,,,,,0,,,75,101
55780,note_off,,,,,100,0,13,,,,,6,,,66,100
55780,note_off,,,,,0,0,13,,,,,6,,,69,100
55780,note_off,,,,,100,0,14,,,,,6,,,48,100
55780,note_off,,,,,100,0,11,,,,,4,,,48,100
55840,note_off,,,,,64,0,7,,,,,0,,,75,100
55872,note_on,,,,,92,0,13,,,,,6,,,63,100
55872,note_on,,,,,0,0,13,,,,,6,,,68,100
55872,note_on,,,,,92,0,14,,,,,6,,,48,100
55872,note_on,,,,,92,0,11,,,,,4,,,48,80
55872,note_on,,,,,32,0,7,,,,,0,,,68,101
55964,note_off,,,,,92,0,7,,,,,0,,,68,100
55968,note_on,,,,,4,0,7,,,,,0,,,72,100
55972,note_off,,,,,100,0,14,,,,,6,,,48,100
55972,note_off,,,,,100,0,13,,,,,6,,,63,100
55972,note_off,,,,,0,0,13,,,,,6,,,68,100
55972,note_off,,,,,100,0,11,,,,,4,,,48,100
56060,note_off,,,,,92,0,7,,,,,0,,,72,100
56064,note_on,,,,,92,0,14,,,,,6,,,48,100
56064,note_on,,,,,4,0,7,,,,,0,,,74,100
56064,note_on,,,,,92,0,13,,,,,6,,,63,100
56064,note_on,,,,,0,0,13,,,,,6,,,68,100
56064,note_on,,,,,92,0,11,,,,,4,,,48,80
56156,note_off,,,,,92,0,7,,,,,0,,,74,100
56160,note_on,,,,,4,0,7,,,,,0,,,75,100
56164,note_off,,,,,0,0,13,,,,,6,,,68,100
56164,note_off,,,,,100,0,13,,,,,6,,,63,100
56164,note_off,,,,,100,0,11,,,,,4,,,48,100
56164,note_off,,,,,100,0,14,,,,,6,,,48,100
56252,note_off,,,,,92,0,7,,,,,0,,,75,100
56256,note_on,,,,,0,0,13,,,,,6,,,68,100
56256,note_on,,,,,92,0,14,,,,,6,,,48,100
56256,note_on,,,,,92,0,11,,,,,4,,,48,80
56256,note_on,,,,,92,0,13,,,,,6,,,63,100
56256,note_on,,,,,4,0,7,,,,,0,,,74,100
56348,note_off,,,,,92,0,7,,,,,0,,,74,100
56352,note_on,,,,,4,0,7,,,,,0,,,72,100
56356,note_off,,,,,100,0,14,,,,,6,,,48,100
56356,note_off,,,,,0,0,13,,,,,6,,,68,100
56356,note_off,,,,,100,0,13,,,,,6,,,63,100
56356,note_off,,,,,100,0,11,,,,,4,,,48,100
56416,note_off,,,,,64,0,7,,,,,0,,,72,100
56448,note_on,,,,,32,0,7,,,,,0,,,68,100
56448,note_on,,,,,0,0,13,,,,,6,,,68,100
56448,note_on,,,,,92,0,14,,,,,6,,,48,100
56448,note_on,,,,,92,0,11,,,,,4,,,48,80
56448,note_on,,,,,92,0,13,,,,,6,,,63,100
56540,note_off,,,,,92,0,7,,,,,0,,,68,100
56544,note_on,,,,,4,0,7,,,,,0,,,72,100
56548,note_off,,,,,100,0,11,,,,,4,,,48,100
56548,note_off,,,,,100,0,14,,,,,6,,,48,100
56548,note_off,,,,,0,0,13,,,,,6,,,68,100
56548,note_off,,,,,100,0,13,,,,,6,,,63,100
56636,note_off,,,,,92,0,7,,,,,0,,,72,100
56640,note_on,,,,,0,0,13,,,,,6,,,68,100
56640,note_on,,,,,92,0,13,,,,,6,,,63,100
56640,note_on,,,,,92,0,11,,,,,4,,,48,80
56640,note_on,,,,,4,0,7,,,,,0,,,74,100
56640,note_on,,,,,92,0,14,,,,,6,,,48,100
56732,note_off,,,,,92,0,7,,,,,0,,,74,100
56736,note_on,,,,,4,0,7,,,,,0,,,75,100
56740,note_off,,,,,100,0,11,,,,,4,,,48,100
56740,note_off,,,,,100,0,13,,,,,6,,,63,100
56740,note_off,,,,,100,0,14,,,,,6,,,48,100
56740,note_off,,,,,0,0,13,,,,,6,,,68,100
56828,note_off,,,,,92,0,7,,,,,0,,,75,100
56832,note_on,,,,,92,0,13,,,,,6,,,63,100
56832,note_on,,,,,0,0,13,,,,,6,,,68,100
56832,note_on,,,,,4,0,7,,,,,0,,,74,100
56832,note_on,,,,,92,0,11,,,,,4,,,48,80
56832,note_on,,,,,92,0,14,,,,,6,,,48,100
56924,note_off,,,,,92,0,7,,,,,0,,,74,100
56928,note_on,,,,,4,0,7,,,,,0,,,72,100
56932,note_off,,,,,100,0,14,,,,,6,,,48,100
56932,note_off,,,,,100,0,11,,,,,4,,,48,100
56932,note_off,,,,,0,0,13,,,,,6,,,68,100
56932,note_off,,,,,100,0,13,,,,,6,,,63,100
56992,note_off,,,,,64,0,7,,,,,0,,,72,100
57024,note_on,,,,,32,0,7,,,,,0,,,67,100
57024,note_on,,,,,92,0,14,,,,,6,,,48,100
57024,note_on,,,,,92,0,13,,,,,6,,,63,100
57024,note_on,,,,,92,0,11,,,,,4,,,48,80
57024,note_on,,,,,0,0,13,,,,,6,,,67,100
57116,note_off,,,,,92,0,7,,,,,0,,,67,100
57120,note_on,,,,,4,0,7,,,,,0,,,72,100
57124,note_off,,,,,0,0,13,,,,,6,,,67,100
57124,note_off,,,,,100,0,14,,,,,6,,,48,100
57124,note_off,,,,,100,0,13,,,,,6,,,63,100
57124,note_off,,,,,100,0,11,,,,,4,,,48,100
57212,note_off,,,,,92,0,7,,,,,0,,,72,100
57216,note_on,,,,,4,0,7,,,,,0,,,74,100
57216,note_on,,,,,92,0,11,,,,,4,,,48,80
57216,note_on,,,,,92,0,14,,,,,6,,,48,100
57216,note_on,,,,,92,0,13,,,,,6,,,63,100
57216,note_on,,,,,0,0,13,,,,,6,,,67,100
57308,note_off,,,,,92,0,7,,,,,0,,,74,100
57312,note_on,,,,,4,0,7,,,,,0,,,75,101
57316,note_off,,,,,100,0,13,,,,,6,,,63,100
57316,note_off,,,,,100,0,14,,,,,6,,,48,100
57316,note_off,,,,,100,0,11,,,,,4,,,48,100
57316,note_off,,,,,0,0,13,,,,,6,,,67,100
57404,note_off,,,,,92,0,7,,,,,0,,,75,100
57408,note_on,,,,,4,0,7,,,,,0,,,74,101
57408,note_on,,,,,92,0,11,,,,,4,,,48,80
57408,note_on,,,,,92,0,14,,,,,6,,,48,100
57408,note_on,,,,,92,0,13,,,,,6,,,63,100
57408,note_on,,,,,0,0,13,,,,,6,,,67,100
57500,note_off,,,,,92,0,7,,,,,0,,,74,100
57504,note_on,,,,,4,0,7,,,,,0,,,72,102
57508,note_off,,,,,100,0,14,,,,,6,,,48,100
57508,note_off,,,,,0,0,13,,,,,6,,,67,100
57508,note_off,,,,,100,0,11,,,,,4,,,48,100
57508,note_off,,,,,100,0,13,,,,,6,,,63,100
57568,note_off,,,,,64,0,7,,,,,0,,,72,100
57600,note_on,,,,,92,0,14,,,,,6,,,48,100
57600,note_on,,,,,32,0,7,,,,,0,,,67,102
57600,note_on,,,,,92,0,11,,,,,4,,,48,80
57600,note_on,,,,,0,0,13,,,,,6,,,67,100
57600,note_on,,,,,92,0,13,,,,,6,,,63,100
57692,note_off,,,,,92,0,7,,,,,0,,,67,100
57696,note_on,,,,,4,0,7,,,,,0,,,72,102
57700,note_off,,,,,100,0,14,,,,,6,,,48,100
57700,note_off,,,,,100,0,11,,,,,4,,,48,100
57700,note_off,,,,,0,0,13,,,,,6,,,67,100
57700,note_off,,,,,100,0,13,,,,,6,,,63,100
57788,note_off,,,,,92,0,7,,,,,0,,,72,100
57792,note_on,,,,,92,0,11,,,,,4,,,48,80
57792,note_on,,,,,0,0,13,,,,,6,,,67,100
57792,note_on,,,,,92,0,13,,,,,6,,,63,100
57792,note_on,,,,,92,0,14,,,,,6,,,48,100
57792,note_on,,,,,4,0,7,,,,,0,,,74,103
57884,note_off,,,,,92,0,7,,,,,0,,,74,100
57888,note_on,,,,,4,0,7,,,,,0,,,75,103
57892,note_off,,,,,100,0,13,,,,,6,,,63,100
57892,note_off,,,,,0,0,13,,,,,6,,,67,100
57892,note_off,,,,,100,0,11,,,,,4,,,48,100
57892,note_off,,,,,100,0,14,,,,,6,,,48,100
57980,note_off,,,,,92,0,7,,,,,0,,,75,100
57984,note_on,,,,,4,0,7,,,,,0,,,74,104
57984,note_on,,,,,92,0,11,,,,,4,,,48,80
57984,note_on,,,,,0,0,13,,,,,6,,,67,100
57984,note_on,,,,,92,0,13,,,,,6,,,63,100
57984,note_on,,,,,92,0,14,,,,,6,,,48,100
58076,note_off,,,,,92,0,7,,,,,0,,,74,100
58080,note_on,,,,,4,0,7,,,,,0,,,72,104
58084,note_off,,,,,100,0,14,,,,,6,,,48,100
58084,note_off,,,,,100,0,13,,,,,6,,,63,100
58084,note_off,,,,,100,0,11,,,,,4,,,48,100
58084,note_off,,,,,0,0,13,,,,,6,,,67,100
58144,note_off,,,,,64,0,7,,,,,0,,,72,100
58176,note_on,,,,,92,0,14,,,,,6,,,50,100
58176,note_on,,,,,32,0,7,,,,,0,,,66,105
58176,note_on,,,,,92,0,13,,,,,6,,,66,100
58176,note_on,,,,,0,0,13,,,,,6,,,72,100
58176,note_on,,,,,92,0,11,,,,,4,,,50,80
58268,note_off,,,,,92,0,7,,,,,0,,,66,100
58272,note_on,,,,,4,0,7,,,,,0,,,72,105
58276,note_off,,,,,100,0,11,,,,,4,,,50,100
58276,note_off,,,,,100,0,13,,,,,6,,,66,100
58276,note_off,,,,,0,0,13,,,,,6,,,72,100
58276,note_off,,,,,100,0,14,,,,,6,,,50,100
58364,note_off,,,,,92,0,7,,,,,0,,,72,100
58368,note_on,,,,,0,0,13,,,,,6,,,72,100
58368,note_on,,,,,92,0,14,,,,,6,,,50,100
58368,note_on,,,,,92,0,11,,,,,4,,,50,80
58368,note_on,,,,,4,0,7,,,,,0,,,74,104
58368,note_on,,,,,92,0,13,,,,,6,,,66,100
58460,note_off,,,,,92,0,7,,,,,0,,,74,100
58464,note_on,,,,,4,0,7,,,,,0,,,75,103
58468,note_off,,,,,100,0,13,,,,,6,,,66,100
58468,note_off,,,,,0,0,13,,,,,6,,,72,100
58468,note_off,,,,,100,0,11,,,,,4,,,50,100
58468,note_off,,,,,100,0,14,,,,,6,,,50,100
58556,note_off,,,,,92,0,7,,,,,0,,,75,100
58560,note_on,,,,,92,0,11,,,,,4,,,50,80
58560,note_on,,,,,92,0,14,,,,,6,,,50,100
58560,note_on,,,,,92,0,13,,,,,6,,,66,100
58560,note_on,,,,,0,0,13,,,,,6,,,72,100
58560,note_on,,,,,4,0,7,,,,,0,,,74,102
58652,note_off,,,,,92,0,7,,,,,0,,,74,100
58656,note_on,,,,,4,0,7,,,,,0,,,72,101
58660,note_off,,,,,100,0,14,,,,,6,,,50,100
58660,note_off,,,,,100,0,13,,,,,6,,,66,100
58660,note_off,,,,,0,0,13,,,,,6,,,72,100
58660,note_off,,,,,100,0,11,,,,,4,,,50,100
58720,note_off,,,,,64,0,7,,,,,0,,,72,100
58752,note_on,,,,,32,0,7,,,,,0,,,66,97
58752,note_on,,,,,92,0,11,,,,,4,,,50,80
58752,note_on,,,,,92,0,14,,,,,6,,,50,100
58752,note_on,,,,,92,0,13,,,,,6,,,66,100
58752,note_on,,,,,0,0,13,,,,,6,,,72,100
58844,note_off,,,,,92,0,7,,,,,0,,,66,100
58848,note_on,,,,,4,0,7,,,,,0,,,72,96
58852,note_off,,,,,100,0,14,,,,,6,,,50,100
58852,note_off,,,,,100,0,13,,,,,6,,,66,100
58852,note_off,,,,,0,0,13,,,,,6,,,72,100
58852,note_off,,,,,100,0,11,,,,,4,,,50,100
58940,note_off,,,,,92,0,7,,,,,0,,,72,100
58944,note_on,,,,,92,0,14,,,,,6,,,50,100
58944,note_on,,,,,92,0,13,,,,,6,,,66,100
58944,note_on,,,,,4,0,7,,,,,0,,,74,95
58944,note_on,,,,,92,0,11,,,,,4,,,50,80
58944,note_on,,,,,0,0,13,,,,,6,,,72,100
59036,note_off,,,,,92,0,7,,,,,0,,,74,100
59040,note_on,,,,,4,0,7,,,,,0,,,75,95
59044,note_off,,,,,100,0,13,,,,,6,,,66,100
59044,note_off,,,,,100,0,11,,,,,4,,,50,100
59044,note_off,,,,,0,0,13,,,,,6,,,72,100
59044,note_off,,,,,100,0,14,,,,,6,,,50,100
59132,note_off,,,,,92,0,7,,,,,0,,,75,100
59136,note_on,,,,,92,0,14,,,,,6,,,50,100
59136,note_on,,,,,92,0,13,,,,,6,,,66,100
59136,note_on,,,,,4,0,7,,,,,0,,,74,94
59136,note_on,,,,,92,0,11,,,,,4,,,50,80
59136,note_on,,,,,0,0,13,,,,,6,,,72,100
59228,note_off,,,,,92,0,7,,,,,0,,,74,100
59232,note_on,,,,,4,0,7,,,,,0,,,72,93
59236,note_off,,,,,100,0,14,,,,,6,,,50,100
59236,note_off,,,,,100,0,13,,,,,6,,,66,100
59236,note_off,,,,,100,0,11,,,,,4,,,50,100
59236,note_off,,,,,0,0,13,,,,,6,,,72,100
59296,note_off,,,,,64,0,7,,,,,0,,,72,100
59328,note_on,,,,,92,0,11,,,,,4,,,55,80
59328,note_on,,,,,0,0,13,,,,,6,,,71,100
59328,note_on,,,,,92,0,13,,,,,6,,,65,100
59328,note_on,,,,,92,0,14,,,,,6,,,55,100
59328,note_on,,,,,32,0,7,,,,,0,,,71,92
59420,note_off,,,,,92,0,7,,,,,0,,,71,100
59424,note_on,,,,,4,0,7,,,,,0,,,68,92
59428,note_off,,,,,0,0,13,,,,,6,,,71,100
59428,note_off,,,,,100,0,13,,,,,6,,,65,100
59428,note_off,,,,,100,0,14,,,,,6,,,55,100
59428,note_off,,,,,100,0,11,,,,,4,,,55,100
59516,note_off,,,,,92,0,7,,,,,0,,,68,100
59520,note_on,,,,,92,0,11,,,,,4,,,55,80
59520,note_on,,,,,0,0,13,,,,,6,,,71,100
59520,note_on,,,,,92,0,13,,,,,6,,,65,100
59520,note_on,,,,,92,0,14,,,,,6,,,55,100
59520,note_on,,,,,4,0,7,,,,,0,,,67,92
59612,note_off,,,,,92,0,7,,,,,0,,,67,100
59616,note_on,,,,,4,0,7,,,,,0,,,65,92
59620,note_off,,,,,100,0,14,,,,,6,,,55,100
59620,note_off,,,,,100,0,11,,,,,4,,,55,100
59620,note_off,,,,,100,0,13,,,,,6,,,65,100
59620,note_off,,,,,0,0,13,,,,,6,,,71,100
59708,note_off,,,,,92,0,7,,,,,0,,,65,100
59712,note_on,,,,,4,0,7,,,,,0,,,67,93
59712,note_on,,,,,92,0,13,,,,,6,,,65,100
59712,note_on,,,,,0,0,13,,,,,6,,,71,100
59712,note_on,,,,,92,0,14,,,,,6,,,55,100
59712,note_on,,,,,92,0,11,,,,,4,,,55,80
59804,note_off,,,,,92,0,7,,,,,0,,,67,100
59808,note_on,,,,,4,0,7,,,,,0,,,68,93
59812,note_off,,,,,0,0,13,,,,,6,,,71,100
59812,note_off,,,,,100,0,13,,,,,6,,,65,100
59812,note_off,,,,,100,0,14,,,,,6,,,55,100
59812,note_off,,,,,100,0,11,,,,,4,,,55,100
59872,note_off,,,,,64,0,7,,,,,0,,,68,100
59904,note_on,,,,,92,0,11,,,,,4,,,55,80
59904,note_on,,,,,92,0,13,,,,,6,,,65,100
59904,note_on,,,,,32,0,7,,,,,0,,,71,93
59904,note_on,,,,,92,0,14,,,,,6,,,55,100
59904,note_on,,,,,0,0,13,,,,,6,,,71,100
59996,note_off,,,,,92,0,7,,,,,0,,,71,100
60000,note_on,,,,,4,0,7,,,,,0,,,68,93
60004,note_off,,,,,0,0,13,,,,,6,,,71,100
60004,note_off,,,,,100,0,14,,,,,6,,,55,100
60004,note_off,,,,,100,0,11,,,,,4,,,55,100
60004,note_off,,,,,100,0,13,,,,,6,,,65,100
60092,note_off,,,,,92,0,7,,,,,0,,,68,100
60096,note_on,,,,,92,0,13,,,,,6,,,65,100
60096,note_on,,,,,0,0,13,,,,,6,,,71,100
60096,note_on,,,,,92,0,14,,,,,6,,,55,100
60096,note_on,,,,,92,0,11,,,,,4,,,55,80
60096,note_on,,,,,4,0,7,,,,,0,,,67,94
60188,note_off,,,,,92,0,7,,,,,0,,,67,100
60192,note_on,,,,,4,0,7,,,,,0,,,65,94
60196,note_off,,,,,100,0,11,,,,,4,,,55,100
60196,note_off,,,,,100,0,14,,,,,6,,,55,100
60196,note_off,,,,,100,0,13,,,,,6,,,65,100
60196,note_off,,,,,0,0,13,,,,,6,,,71,100
60284,note_off,,,,,92,0,7,,,,,0,,,65,100
60288,note_on,,,,,92,0,11,,,,,4,,,55,80
60288,note_on,,,,,4,0,7,,,,,0,,,67,94
60288,note_on,,,,,92,0,14,,,,,6,,,55,100
60288,note_on,,,,,0,0,13,,,,,6,,,71,100
60288,note_on,,,,,92,0,13,,,,,6,,,65,100
60380,note_off,,,,,92,0,7,,,,,0,,,67,100
60384,note_on,,,,,4,0,7,,,,,0,,,68,94
60388,note_off,,,,,100,0,13,,,,,6,,,65,100
60388,note_off,,,,,100,0,14,,,,,6,,,55,100
60388,note_off,,,,,100,0,11,,,,,4,,,55,100
60388,note_off,,,,,0,0,13,,,,,6,,,71,100
60448,note_off,,,,,64,0,7,,,,,0,,,68,100
60480,note_on,,,,,92,0,13,,,,,6,,,67,100
60480,note_on,,,,,0,0,13,,,,,6,,,72,100
60480,note_on,,,,,32,0,7,,,,,0,,,72,95
60480,note_on,,,,,92,0,14,,,,,6,,,51,100
60480,note_on,,,,,92,0,11,,,,,4,,,51,80
60572,note_off,,,,,92,0,7,,,,,0,,,72,100
60576,note_on,,,,,4,0,7,,,,,0,,,67,95
60580,note_off,,,,,100,0,13,,,,,6,,,67,100
60580,note_off,,,,,0,0,13,,,,,6,,,72,100
60580,note_off,,,,,100,0,14,,,,,6,,,51,100
60580,note_off,,,,,100,0,11,,,,,4,,,51,100
60668,note_off,,,,,92,0,7,,,,,0,,,67,100
60672,note_on,,,,,92,0,11,,,,,4,,,51,80
60672,note_on,,,,,92,0,14,,,,,6,,,51,100
60672,note_on,,,,,92,0,13,,,,,6,,,67,100
60672,note_on,,,,,4,0,7,,,,,0,,,65,96
60672,note_on,,,,,0,0,13,,,,,6,,,72,100
60764,note_off,,,,,92,0,7,,,,,0,,,65,100
60768,note_on,,,,,4,0,7,,,,,0,,,63,96
60772,note_off,,,,,100,0,11,,,,,4,,,51,100
60772,note_off,,,,,100,0,14,,,,,6,,,51,100
60772,note_off,,,,,0,0,13,,,,,6,,,72,100
60772,note_off,,,,,100,0,13,,,,,6,,,67,100
60860,note_off,,,,,92,0,7,,,,,0,,,63,100
60864,note_on,,,,,92,0,13,,,,,6,,,67,100
60864,note_on,,,,,4,0,7,,,,,0,,,65,97
60864,note_on,,,,,92,0,14,,,,,6,,,51,100
60864,note_on,,,,,0,0,13,,,,,6,,,72,100
60864,note_on,,,,,92,0,11,,,,,4,,,51,80
60956,note_off,,,,,92,0,7,,,,,0,,,65,100
60960,note_on,,,,,4,0,7,,,,,0,,,67,97
60964,note_off,,,,,100,0,11,,,,,4,,,51,100
60964,note_off,,,,,100,0,13,,,,,6,,,67,100
60964,note_off,,,,,0,0,13,,,,,6,,,72,100
60964,note_off,,,,,100,0,14,,,,,6,,,51,100
61024,note_off,,,,,64,0,7,,,,,0,,,67,100
61056,note_on,,,,,92,0,14,,,,,6,,,51,100
61056,note_on,,,,,92,0,11,,,,,4,,,51,80
61056,note_on,,,,,32,0,7,,,,,0,,,72,98
61056,note_on,,,,,92,0,13,,,,,6,,,67,100
61056,note_on,,,,,0,0,13,,,,,6,,,72,100
61148,note_off,,,,,92,0,7,,,,,0,,,72,100
61152,note_on,,,,,4,0,7,,,,,0,,,67,99
61156,note_off,,,,,100,0,14,,,,,6,,,51,100
61156,note_off,,,,,100,0,11,,,,,4,,,51,100
61156,note_off,,,,,100,0,13,,,,,6,,,67,100
61156,note_off,,,,,0,0,13,,,,,6,,,72,100
61244,note_off,,,,,92,0,7,,,,,0,,,67,100
61248,note_on,,,,,92,0,14,,,,,6,,,51,100
61248,note_on,,,,,92,0,11,,,,,4,,,51,80
61248,note_on,,,,,92,0,13,,,,,6,,,67,100
61248,note_on,,,,,0,0,13,,,,,6,,,72,100
61248,note_on,,,,,4,0,7,,,,,0,,,65,99
61340,note_off,,,,,92,0,7,,,,,0,,,65,100
61344,note_on,,,,,4,0,7,,,,,0,,,63,100
61348,note_off,,,,,100,0,11,,,,,4,,,51,100
61348,note_off,,,,,0,0,13,,,,,6,,,72,100
61348,note_off,,,,,100,0,14,,,,,6,,,51,100
61348,note_off,,,,,100,0,13,,,,,6,,,67,100
61436,note_off,,,,,92,0,7,,,,,0,,,63,100
61440,note_on,,,,,0,0,13,,,,,6,,,72,100
61440,note_on,,,,,92,0,14,,,,,6,,,51,100
61440,note_on,,,,,4,0,7,,,,,0,,,65,100
61440,note_on,,,,,92,0,13,,,,,6,,,67,100
61440,note_on,,,,,92,0,11,,,,,4,,,51,80
61532,note_off,,,,,92,0,7,,,,,0,,,65,100
61536,note_on,,,,,4,0,7,,,,,0,,,67,101
61540,note_off,,,,,100,0,13,,,,,6,,,67,100
61540,note_off,,,,,100,0,11,,,,,4,,,51,100
61540,note_off,,,,,100,0,14,,,,,6,,,51,100
61540,note_off,,,,,0,0,13,,,,,6,,,72,100
61600,note_off,,,,,64,0,7,,,,,0,,,67,100
61632,note_on,,,,,92,0,13,,,,,6,,,73,100
61632,note_on,,,,,32,0,7,,,,,0,,,73,101
61632,note_on,,,,,0,0,13,,,,,6,,,67,100
61632,note_on,,,,,92,0,11,,,,,4,,,45,80
61632,note_on,,,,,92,0,14,,,,,6,,,45,100
61724,note_off,,,,,92,0,7,,,,,0,,,73,100
61728,note_on,,,,,4,0,7,,,,,0,,,67,100
61732,note_off,,,,,100,0,13,,,,,6,,,73,100
61732,note_off,,,,,100,0,11,,,,,4,,,45,100
61732,note_off,,,,,100,0,14,,,,,6,,,45,100
61732,note_off,,,,,0,0,13,,,,,6,,,67,100
61820,note_off,,,,,92,0,7,,,,,0,,,67,100
61824,note_on,,,,,92,0,14,,,,,6,,,45,100
61824,note_on,,,,,0,0,13,,,,,6,,,67,100
61824,note_on,,,,,92,0,11,,,,,4,,,45,80
61824,note_on,,,,,92,0,13,,,,,6,,,73,100
61824,note_on,,,,,4,0,7,,,,,0,,,66,100
61916,note_off,,,,,92,0,7,,,,,0,,,66,100
61920,note_on,,,,,4,0,7,,,,,0,,,64,100
61924,note_off,,,,,100,0,13,,,,,6,,,73,100
61924,note_off,,,,,0,0,13,,,,,6,,,67,100
61924,note_off,,,,,100,0,11,,,,,4,,,45,100
61924,note_off,,,,,100,0,14,,,,,6,,,45,100
62012,note_off,,,,,92,0,7,,,,,0,,,64,100
62016,note_on,,,,,4,0,7,,,,,0,,,66,100
62016,note_on,,,,,92,0,13,,,,,6,,,73,100
62016,note_on,,,,,92,0,11,,,,,4,,,45,80
62016,note_on,,,,,0,0,13,,,,,6,,,67,100
62016,note_on,,,,,92,0,14,,,,,6,,,45,100
62108,note_off,,,,,92,0,7,,,,,0,,,66,100
62112,note_on,,,,,4,0,7,,,,,0,,,67,100
62116,note_off,,,,,100,0,11,,,,,4,,,45,100
62116,note_off,,,,,100,0,13,,,,,6,,,73,100
62116,note_off,,,,,0,0,13,,,,,6,,,67,100
62116,note_off,,,,,100,0,14,,,,,6,,,45,100
62176,note_off,,,,,64,0,7,,,,,0,,,67,100
62208,note_on,,,,,32,0,7,,,,,0,,,73,100
62208,note_on,,,,,0,0,13,,,,,6,,,67,100
62208,note_on,,,,,92,0,14,,,,,6,,,45,100
62208,note_on,,,,,92,0,13,,,,,6,,,73,100
62208,note_on,,,,,92,0,11,,,,,4,,,45,80
62300,note_off,,,,,92,0,7,,,,,0,,,73,100
62304,note_on,,,,,4,0,7,,,,,0,,,67,100
62308,note_off,,,,,100,0,13,,,,,6,,,73,100
62308,note_off,,,,,100,0,11,,,,,4,,,45,100
62308,note_off,,,,,0,0,13,,,,,6,,,67,100
62308,note_off,,,,,100,0,14,,,,,6,,,45,100
62396,note_off,,,,,92,0,7,,,,,0,,,67,100
62400,note_on,,,,,92,0,13,,,,,6,,,73,100
62400,note_on,,,,,92,0,11,,,,,4,,,45,80
62400,note_on,,,,,4,0,7,,,,,0,,,66,100
62400,note_on,,,,,0,0,13,,,,,6,,,67,100
62400,note_on,,,,,92,0,14,,,,,6,,,45,100
62492,note_off,,,,,92,0,7,,,,,0,,,66,100
62496,note_on,,,,,4,0,7,,,,,0,,,64,100
62500,note_off,,,,,100,0,13,,,,,6,,,73,100
62500,note_off,,,,,0,0,13,,,,,6,,,67,100
62500,note_off,,,,,100,0,11,,,,,4,,,45,100
62500,note_off,,,,,100,0,14,,,,,6,,,45,100
62588,note_off,,,,,92,0,7,,,,,0,,,64,100
62592,note_on,,,,,0,0,13,,,,,6,,,67,100
62592,note_on,,,,,92,0,11,,,,,4,,,45,80
62592,note_on,,,,,92,0,14,,,,,6,,,45,100
62592,note_on,,,,,92,0,13,,,,,6,,,73,100
62592,note_on,,,,,4,0,7,,,,,0,,,66,100
62684,note_off,,,,,92,0,7,,,,,0,,,66,100
62688,note_on,,,,,4,0,7,,,,,0,,,67,100
62692,note_off,,,,,0,0,13,,,,,6,,,67,100
62692,note_off,,,,,100,0,13,,,,,6,,,73,100
62692,note_off,,,,,100,0,11,,,,,4,,,45,100
62692,note_off,,,,,100,0,14,,,,,6,,,45,100
62752,note_off,,,,,64,0,7,,,,,0,,,67,100
62784,note_on,,,,,92,0,13,,,,,6,,,74,100
62784,note_on,,,,,32,0,7,,,,,0,,,66,97
62784,note_on,,,,,0,0,13,,,,,6,,,66,100
62784,note_on,,,,,92,0,11,,,,,4,,,50,80
62784,note_on,,,,,92,0,14,,,,,6,,,50,100
62876,note_off,,,,,92,0,7,,,,,0,,,66,100
62880,note_on,,,,,4,0,7,,,,,0,,,64,97
62884,note_off,,,,,0,0,13,,,,,6,,,66,100
62884,note_off,,,,,100,0,13,,,,,6,,,74,100
62884,note_off,,,,,100,0,11,,,,,4,,,50,100
62884,note_off,,,,,100,0,14,,,,,6,,,50,100
62972,note_off,,,,,92,0,7,,,,,0,,,64,100
62976,note_on,,,,,0,0,13,,,,,6,,,66,100
62976,note_on,,,,,4,0,7,,,,,0,,,62,96
62976,note_on,,,,,92,0,14,,,,,6,,,50,100
62976,note_on,,,,,92,0,11,,,,,4,,,50,80
62976,note_on,,,,,92,0,13,,,,,6,,,74,100
63068,note_off,,,,,92,0,7,,,,,0,,,62,100
63072,note_on,,,,,4,0,7,,,,,0,,,66,95
63076,note_off,,,,,100,0,14,,,,,6,,,50,100
63076,note_off,,,,,100,0,13,,,,,6,,,74,100
63076,note_off,,,,,0,0,13,,,,,6,,,66,100
63076,note_off,,,,,100,0,11,,,,,4,,,50,100
63164,note_off,,,,,92,0,7,,,,,0,,,66,100
63168,note_on,,,,,92,0,13,,,,,6,,,74,100
63168,note_on,,,,,0,0,13,,,,,6,,,66,100
63168,note_on,,,,,4,0,7,,,,,0,,,69,94
63168,note_on,,,,,92,0,14,,,,,6,,,50,100
63168,note_on,,,,,92,0,11,,,,,4,,,50,80
63260,note_off,,,,,92,0,7,,,,,0,,,69,100
63264,note_on,,,,,4,0,7,,,,,0,,,71,93
63268,note_off,,,,,100,0,13,,,,,6,,,74,100
63268,note_off,,,,,100,0,14,,,,,6,,,50,100
63268,note_off,,,,,100,0,11,,,,,4,,,50,100
63268,note_off,,,,,0,0,13,,,,,6,,,66,100
63328,note_off,,,,,64,0,7,,,,,0,,,71,100
63360,note_on,,,,,92,0,14,,,,,6,,,50,100
63360,note_on,,,,,0,0,13,,,,,6,,,74,100
63360,note_on,,,,,0,0,13,,,,,6,,,66,100
63360,note_on,,,,,92,0,11,,,,,4,,,50,80
63360,note_on,,,,,32,0,7,,,,,0,,,72,92
63360,note_on,,,,,92,0,13,,,,,6,,,72,100
63452,note_off,,,,,92,0,7,,,,,0,,,72,100
63456,note_on,,,,,4,0,7,,,,,0,,,71,94
63460,note_off,,,,,100,0,14,,,,,6,,,50,100
63460,note_off,,,,,100,0,13,,,,,6,,,72,100
63460,note_off,,,,,0,0,13,,,,,6,,,74,100
63460,note_off,,,,,0,0,13,,,,,6,,,66,100
63460,note_off,,,,,100,0,11,,,,,4,,,50,100
63548,note_off,,,,,92,0,7,,,,,0,,,71,100
63552,note_on,,,,,4,0,7,,,,,0,,,69,96
63552,note_on,,,,,92,0,14,,,,,6,,,50,100
63552,note_on,,,,,92,0,13,,,,,6,,,72,100
63552,note_on,,,,,0,0,13,,,,,6,,,74,100
63552,note_on,,,,,0,0,13,,,,,6,,,66,100
63552,note_on,,,,,92,0,11,,,,,4,,,50,80
63644,note_off,,,,,92,0,7,,,,,0,,,69,100
63648,note_on,,,,,4,0,7,,,,,0,,,72,98
63652,note_off,,,,,100,0,11,,,,,4,,,50,100
63652,note_off,,,,,0,0,13,,,,,6,,,74,100
63652,note_off,,,,,100,0,13,,,,,6,,,72,100
63652,note_off,,,,,0,0,13,,,,,6,,,66,100
63652,note_off,,,,,100,0,14,,,,,6,,,50,100
63740,note_off,,,,,92,0,7,,,,,0,,,72,100
63744,note_on,,,,,0,0,13,,,,,6,,,66,100
63744,note_on,,,,,0,0,13,,,,,6,,,74,100
63744,note_on,,,,,92,0,13,,,,,6,,,72,100
63744,note_on,,,,,4,0,7,,,,,0,,,76,100
63744,note_on,,,,,92,0,11,,,,,4,,,50,80
63744,note_on,,,,,92,0,14,,,,,6,,,50,100
63836,note_off,,,,,92,0,7,,,,,0,,,76,100
63840,note_on,,,,,4,0,7,,,,,0,,,78,102
63844,note_off,,,,,0,0,13,,,,,6,,,66,100
63844,note_off,,,,,100,0,14,,,,,6,,,50,100
63844,note_off,,,,,100,0,13,,,,,6,,,72,100
63844,note_off,,,,,100,0,11,,,,,4,,,50,100
63844,note_off,,,,,0,0,13,,,,,6,,,74,100
63904,note_off,,,,,64,0,7,,,,,0,,,78,100
63936,note_on,,,,,92,0,14,,,,,6,,,43,100
63936,note_on,,,,,92,0,13,,,,,6,,,74,100
63936,note_on,,,,,0,0,13,,,,,6,,,71,100
63936,note_on,,,,,0,0,13,,,,,6,,,67,100
63936,note_on,,,,,92,0,11,,,,,4,,,43,80
63936,note_on,,,,,32,0,7,,,,,0,,,79,104
64036,note_off,,,,,100,0,14,,,,,6,,,43,100
64036,note_off,,,,,100,0,11,,,,,4,,,43,100
64036,note_off,,,,,100,0,7,,,,,0,,,79,100
64036,note_off,,,,,100,0,13,,,,,6,,,74,100
64036,note_off,,,,,0,0,13,,,,,6,,,71,100
64036,note_off,,,,,0,0,13,,,,,6,,,67,100
64128,note_on,,,,,92,0,13,,,,,6,,,72,100
64128,note_on,,,,,92,0,11,,,,,4,,,50,80
64128,note_on,,,,,92,0,7,,,,,0,,,78,100
64128,note_on,,,,,92,0,14,,,,,6,,,50,100
64128,note_on,,,,,0,0,13,,,,,6,,,78,100
64220,note_off,,,,,92,0,7,,,,,0,,,78,100
64224,note_on,,,,,4,0,7,,,,,0,,,79,100
64228,note_off,,,,,100,0,14,,,,,6,,,50,100
64228,note_off,,,,,100,0,11,,,,,4,,,50,100
64316,note_off,,,,,188,0,13,,,,,6,,,78,100
64316,note_off,,,,,92,0,7,,,,,0,,,79,100
64320,note_on,,,,,4,0,7,,,,,0,,,81,100
64320,note_on,,,,,92,0,14,,,,,6,,,54,100
64320,note_on,,,,,92,0,11,,,,,4,,,54,80
64320,note_on,,,,,4,0,13,,,,,6,,,74,100
64384,note_off,,,,,64,0,13,,,,,6,,,72,100
64420,note_off,,,,,36,0,13,,,,,6,,,74,100
64420,note_off,,,,,100,0,14,,,,,6,,,54,100
64420,note_off,,,,,100,0,7,,,,,0,,,81,100
64420,note_off,,,,,100,0,11,,,,,4,,,54,100
64512,note_on,,,,,92,0,13,,,,,6,,,72,100
64512,note_on,,,,,0,0,13,,,,,6,,,81,100
64512,note_on,,,,,92,0,7,,,,,0,,,72,104
64512,note_on,,,,,92,0,14,,,,,6,,,57,100
64512,note_on,,,,,92,0,11,,,,,4,,,57,80
64612,note_off,,,,,100,0,14,,,,,6,,,57,100
64612,note_off,,,,,100,0,11,,,,,4,,,57,100
64700,note_off,,,,,0,0,13,,,,,6,,,81,100
64700,note_off,,,,,188,0,7,,,,,0,,,72,100
64700,note_off,,,,,188,0,13,,,,,6,,,72,100
64704,note_on,,,,,0,0,13,,,,,6,,,78,100
64704,note_on,,,,,4,0,13,,,,,6,,,69,100
64704,note_on,,,,,92,0,14,,,,,6,,,54,100
64704,note_on,,,,,92,0,11,,,,,4,,,54,80
64704,note_on,,,,,4,0,7,,,,,0,,,81,100
64804,note_off,,,,,100,0,11,,,,,4,,,54,100
64804,note_off,,,,,100,0,14,,,,,6,,,54,100
64804,note_off,,,,,100,0,7,,,,,0,,,81,100
64892,note_off,,,,,188,0,13,,,,,6,,,69,100
64896,note_on,,,,,92,0,14,,,,,6,,,50,100
64896,note_on,,,,,4,0,13,,,,,6,,,72,100
64896,note_on,,,,,92,0,11,,,,,4,,,50,80
64896,note_on,,,,,92,0,7,,,,,0,,,72,100
64960,note_off,,,,,64,0,13,,,,,6,,,78,100
64996,note_off,,,,,100,0,11,,,,,4,,,50,100
64996,note_off,,,,,100,0,7,,,,,0,,,72,100
64996,note_off,,,,,100,0,14,,,,,6,,,50,100
64996,note_off,,,,,36,0,13,,,,,6,,,72,100
65088,note_on,,,,,92,0,14,,,,,6,,,55,100
65088,note_on,,,,,92,0,7,,,,,0,,,71,100
65088,note_on,,,,,92,0,13,,,,,6,,,79,100
65088,note_on,,,,,0,0,13,,,,,6,,,71,100
65088,note_on,,,,,92,0,11,,,,,4,,,55,80
65188,note_off,,,,,100,0,11,,,,,4,,,55,100
65188,note_off,,,,,100,0,14,,,,,6,,,55,100
65276,note_off,,,,,188,0,7,,,,,0,,,71,100
65276,note_off,,,,,188,0,13,,,,,6,,,71,100
65280,note_on,,,,,92,0,14,,,,,6,,,47,100
65280,note_on,,,,,4,0,13,,,,,6,,,74,100
65280,note_on,,,,,4,0,7,,,,,0,,,74,100
65280,note_on,,,,,92,0,11,,,,,4,,,47,80
65380,note_off,,,,,100,0,14,,,,,6,,,47,100
65380,note_off,,,,,100,0,7,,,,,0,,,74,100
65380,note_off,,,,,100,0,11,,,,,4,,,47,100
65468,note_off,,,,,188,0,13,,,,,6,,,74,100
65472,note_on,,,,,92,0,7,,,,,0,,,79,100
65472,note_on,,,,,0,0,13,,,,,6,,,71,100
65472,note_on,,,,,92,0,14,,,,,6,,,43,100
65472,note_on,,,,,92,0,11,,,,,4,,,43,80
65472,note_off,,,,,4,0,13,,,,,6,,,79,100
65572,note_off,,,,,100,0,13,,,,,6,,,71,100
65572,note_off,,,,,100,0,7,,,,,0,,,79,100
65572,note_off,,,,,100,0,11,,,,,4,,,43,100
65572,note_off,,,,,100,0,14,,,,,6,,,43,100
65664,note_on,,,,,92,0,7,,,,,0,,,71,105
65664,note_on,,,,,92,0,11,,,,,4,,,48,80
65664,note_on,,,,,92,0,14,,,,,6,,,48,100
65664,note_on,,,,,0,0,13,,,,,6,,,71,100
65664,note_on,,,,,92,0,13,,,,,6,,,79,100
65764,note_off,,,,,100,0,13,,,,,6,,,79,100
65764,note_off,,,,,100,0,11,,,,,4,,,48,100
65764,note_off,,,,,0,0,13,,,,,6,,,71,100
65764,note_off,,,,,100,0,7,,,,,0,,,71,100
65764,note_off,,,,,100,0,14,,,,,6,,,48,100
65856,note_on,,,,,92,0,14,,,,,6,,,50,100
65856,note_on,,,,,92,0,11,,,,,4,,,50,80
65856,note_on,,,,,92,0,13,,,,,6,,,69,100
65856,note_on,,,,,0,0,13,,,,,6,,,78,100
65856,note_on,,,,,92,0,7,,,,,0,,,69,104
65900,note_off,,,,,44,0,7,,,,,0,,,69,100
65904,note_on,,,,,4,0,7,,,,,0,,,71,103
65948,note_off,,,,,44,0,7,,,,,0,,,71,100
65952,note_on,,,,,4,0,7,,,,,0,,,69,103
65956,note_off,,,,,100,0,11,,,,,4,,,50,100
65956,note_off,,,,,100,0,14,,,,,6,,,50,100
65956,note_off,,,,,100,0,13,,,,,6,,,69,100
65956,note_off,,,,,0,0,13,,,,,6,,,78,100
65996,note_off,,,,,44,0,7,,,,,0,,,69,100
66000,note_on,,,,,4,0,7,,,,,0,,,71,103
66044,note_off,,,,,44,0,7,,,,,0,,,71,100
66048,note_on,,,,,0,0,13,,,,,6,,,78,100
66048,note_on,,,,,4,0,7,,,,,0,,,69,102
66048,note_on,,,,,92,0,13,,,,,6,,,69,100
66048,note_on,,,,,92,0,14,,,,,6,,,38,100
66048,note_on,,,,,92,0,11,,,,,4,,,38,80
66112,note_off,,,,,64,0,7,,,,,0,,,69,100
66144,note_on,,,,,32,0,7,,,,,0,,,67,101
66148,note_off,,,,,100,0,14,,,,,6,,,38,100
66148,note_off,,,,,100,0,11,,,,,4,,,38,100
66148,note_off,,,,,0,0,13,,,,,6,,,78,100
66148,note_off,,,,,100,0,13,,,,,6,,,69,100
66208,note_off,,,,,64,0,7,,,,,0,,,67,100
66240,note_on,,,,,23936,0,10,,,,,3,,,59,100
66240,note_on,,,,,23936,0,8,,,,,1,,,67,100
66240,note_on,,,,,32,0,7,,,,,0,,,67,101
66240,note_on,,,,,92,0,11,,,,,4,,,55,100
66240,note_on,,,,,0,0,13,,,,,6,,,79,100
66240,note_on,,,,,92,0,14,,,,,6,,,55,100
66240,note_on,,,,,92,0,13,,,,,6,,,67,100
66240,note_on,,,,,23936,0,15,,,,,7,,,74,100
66240,note_on,,,,,0,0,15,,,,,7,,,71,100
66240,note_on,,,,,0,0,15,,,,,7,,,67,100
66240,note_on,,,,,0,0,13,,,,,6,,,71,100
66240,note_on,,,,,23936,0,9,,,,,2,,,79,100
66240,note_on,,,,,23936,0,16,,,,,7,,,55,100
66240,note_on,,,,,23936,0,12,,,,,5,,,43,100
66304,note_off,,,,,64,0,8,,,,,1,,,67,100
66336,note_on,,,,,32,0,8,,,,,1,,,71,100
66340,note_off,,,,,0,0,15,,,,,7,,,71,100
66340,note_off,,,,,100,0,11,,,,,4,,,55,100
66340,note_off,,,,,100,0,7,,,,,0,,,67,100
66340,note_off,,,,,0,0,13,,,,,6,,,71,100
66340,note_off,,,,,100,0,12,,,,,5,,,43,100
66340,note_off,,,,,100,0,13,,,,,6,,,67,100
66340,note_off,,,,,100,0,9,,,,,2,,,79,100
66340,note_off,,,,,100,0,16,,,,,7,,,55,100
66340,note_off,,,,,100,0,14,,,,,6,,,55,100
66340,note_off,,,,,100,0,10,,,,,3,,,59,100
66340,note_off,,,,,100,0,15,,,,,7,,,74,100
66340,note_off,,,,,0,0,13,,,,,6,,,79,100
66340,note_off,,,,,0,0,15,,,,,7,,,67,100
66400,note_off,,,,,64,0,8,,,,,1,,,71,100
66432,note_on,,,,,92,0,11,,,,,4,,,62,100
66432,note_on,,,,,92,0,15,,,,,7,,,67,100
66432,note_on,,,,,0,0,15,,,,,7,,,71,100
66432,note_on,,,,,0,0,13,,,,,6,,,71,100
66432,note_on,,,,,92,0,16,,,,,7,,,62,100
66432,note_on,,,,,92,0,12,,,,,5,,,50,100
66432,note_on,,,,,32,0,8,,,,,1,,,72,100
66432,note_on,,,,,92,0,10,,,,,3,,,67,100
66432,note_on,,,,,92,0,9,,,,,2,,,71,100
66432,note_on,,,,,92,0,13,,,,,6,,,67,100
66432,note_on,,,,,92,0,14,,,,,6,,,62,100
66496,note_off,,,,,64,0,8,,,,,1,,,72,100
66528,note_on,,,,,32,0,8,,,,,1,,,74,100
66532,note_off,,,,,100,0,14,,,,,6,,,62,100
66532,note_off,,,,,100,0,16,,,,,7,,,62,100
66532,note_off,,,,,0,0,13,,,,,6,,,71,100
66532,note_off,,,,,100,0,13,,,,,6,,,67,100
66532,note_off,,,,,100,0,9,,,,,2,,,71,100
66532,note_off,,,,,0,0,15,,,,,7,,,71,100
66532,note_off,,,,,100,0,15,,,,,7,,,67,100
66532,note_off,,,,,100,0,10,,,,,3,,,67,100
66532,note_off,,,,,100,0,12,,,,,5,,,50,100
66532,note_off,,,,,100,0,11,,,,,4,,,62,100
66592,note_off,,,,,64,0,8,,,,,1,,,74,100
66624,note_on,,,,,92,0,9,,,,,2,,,69,100
66624,note_on,,,,,92,0,16,,,,,7,,,50,100
66624,note_on,,,,,92,0,14,,,,,6,,,50,100
66624,note_on,,,,,0,0,13,,,,,6,,,69,100
66624,note_on,,,,,92,0,12,,,,,5,,,38,100
66624,note_on,,,,,92,0,11,,,,,4,,,50,100
66624,note_on,,,,,32,0,8,,,,,1,,,76,100
66624,note_on,,,,,92,0,15,,,,,7,,,66,100
66624,note_on,,,,,0,0,15,,,,,7,,,69,100
66624,note_on,,,,,92,0,10,,,,,3,,,62,100
66624,note_on,,,,,92,0,13,,,,,6,,,66,100
66688,note_off,,,,,64,0,8,,,,,1,,,76,100
66720,note_on,,,,,32,0,8,,,,,1,,,78,100
66724,note_off,,,,,100,0,12,,,,,5,,,38,100
66724,note_off,,,,,100,0,11,,,,,4,,,50,100
66724,note_off,,,,,100,0,9,,,,,2,,,69,100
66724,note_off,,,,,100,0,13,,,,,6,,,66,100
66724,note_off,,,,,0,0,13,,,,,6,,,69,100
66724,note_off,,,,,100,0,16,,,,,7,,,50,100
66724,note_off,,,,,0,0,15,,,,,7,,,69,100
66724,note_off,,,,,100,0,10,,,,,3,,,62,100
66724,note_off,,,,,100,0,14,,,,,6,,,50,100
66724,note_off,,,,,100,0,15,,,,,7,,,66,100
66784,note_off,,,,,64,0,8,,,,,1,,,78,100
66816,note_on,,,,,92,0,9,,,,,2,,,67,100
66816,note_on,,,,,92,0,12,,,,,5,,,31,100
66816,note_on,,,,,92,0,11,,,,,4,,,43,100
66816,note_on,,,,,92,0,10,,,,,3,,,59,100
66816,note_on,,,,,92,0,13,,,,,6,,,59,100
66816,note_on,,,,,92,0,14,,,,,6,,,43,100
66816,note_on,,,,,92,0,16,,,,,7,,,43,100
66816,note_on,,,,,0,0,13,,,,,6,,,62,100
66816,note_on,,,,,0,0,13,,,,,6,,,67,100
66816,note_on,,,,,32,0,8,,,,,1,,,79,100
66816,note_on,,,,,0,0,15,,,,,7,,,67,100
66816,note_on,,,,,0,0,15,,,,,7,,,62,100
66816,note_on,,,,,92,0,15,,,,,7,,,59,100
66880,note_off,,,,,64,0,9,,,,,2,,,67,100
66912,note_on,,,,,32,0,9,,,,,2,,,71,100
66916,note_off,,,,,100,0,15,,,,,7,,,59,100
66916,note_off,,,,,100,0,8,,,,,1,,,79,100
66916,note_off,,,,,0,0,13,,,,,6,,,62,100
66916,note_off,,,,,100,0,13,,,,,6,,,59,100
66916,note_off,,,,,0,0,15,,,,,7,,,62,100
66916,note_off,,,,,0,0,15,,,,,7,,,67,100
66916,note_off,,,,,100,0,10,,,,,3,,,59,100
66916,note_off,,,,,100,0,16,,,,,7,,,43,100
66916,note_off,,,,,100,0,11,,,,,4,,,43,100
66916,note_off,,,,,0,0,13,,,,,6,,,67,100
66916,note_off,,,,,100,0,14,,,,,6,,,43,100
66916,note_off,,,,,100,0,12,,,,,5,,,31,100
66976,note_off,,,,,64,0,9,,,,,2,,,71,100
67008,note_on,,,,,92,0,10,,,,,3,,,67,100
67008,note_on,,,,,0,0,13,,,,,6,,,71,100
67008,note_on,,,,,92,0,13,,,,,6,,,67,100
67008,note_on,,,,,92,0,14,,,,,6,,,50,100
67008,note_on,,,,,92,0,12,,,,,5,,,38,100
67008,note_on,,,,,32,0,9,,,,,2,,,72,100
67008,note_on,,,,,92,0,15,,,,,7,,,67,100
67008,note_on,,,,,92,0,8,,,,,1,,,71,100
67008,note_on,,,,,92,0,16,,,,,7,,,50,100
67008,note_on,,,,,92,0,11,,,,,4,,,50,100
67008,note_on,,,,,0,0,15,,,,,7,,,71,100
67072,note_off,,,,,64,0,9,,,,,2,,,72,100
67104,note_on,,,,,32,0,9,,,,,2,,,74,100
67108,note_off,,,,,100,0,15,,,,,7,,,67,100
67108,note_off,,,,,0,0,15,,,,,7,,,71,100
67108,note_off,,,,,100,0,13,,,,,6,,,67,100
67108,note_off,,,,,0,0,13,,,,,6,,,71,100
67108,note_off,,,,,100,0,10,,,,,3,,,67,100
67108,note_off,,,,,100,0,14,,,,,6,,,50,100
67108,note_off,,,,,100,0,11,,,,,4,,,50,100
67108,note_off,,,,,100,0,12,,,,,5,,,38,100
67108,note_off,,,,,100,0,16,,,,,7,,,50,100
67108,note_off,,,,,100,0,8,,,,,1,,,71,100
67168,note_off,,,,,64,0,9,,,,,2,,,74,100
67200,note_on,,,,,92,0,13,,,,,6,,,66,100
67200,note_on,,,,,92,0,10,,,,,3,,,62,100
67200,note_on,,,,,0,0,15,,,,,7,,,69,100
67200,note_on,,,,,92,0,15,,,,,7,,,66,100
67200,note_on,,,,,92,0,16,,,,,7,,,38,100
67200,note_on,,,,,32,0,9,,,,,2,,,76,100
67200,note_on,,,,,92,0,8,,,,,1,,,69,100
67200,note_on,,,,,0,0,13,,,,,6,,,69,100
67200,note_on,,,,,92,0,14,,,,,6,,,38,100
67200,note_on,,,,,92,0,11,,,,,4,,,38,100
67200,note_on,,,,,92,0,12,,,,,5,,,38,100
67264,note_off,,,,,64,0,9,,,,,2,,,76,100
67296,note_on,,,,,32,0,9,,,,,2,,,78,93
67300,note_off,,,,,100,0,10,,,,,3,,,62,100
67300,note_off,,,,,100,0,8,,,,,1,,,69,100
67300,note_off,,,,,100,0,13,,,,,6,,,66,100
67300,note_off,,,,,0,0,13,,,,,6,,,69,100
67300,note_off,,,,,100,0,11,,,,,4,,,38,100
67300,note_off,,,,,100,0,15,,,,,7,,,66,100
67300,note_off,,,,,100,0,12,,,,,5,,,38,100
67300,note_off,,,,,100,0,14,,,,,6,,,38,100
67300,note_off,,,,,100,0,16,,,,,7,,,38,100
67300,note_off,,,,,0,0,15,,,,,7,,,69,100
67360,note_off,,,,,64,0,9,,,,,2,,,78,100
67392,note_on,,,,,92,0,10,,,,,3,,,59,85
67392,note_on,,,,,32,0,9,,,,,2,,,79,85
67392,note_on,,,,,0,0,15,,,,,7,,,67,100
67392,note_on,,,,,0,0,15,,,,,7,,,71,100
67392,note_on,,,,,92,0,15,,,,,7,,,74,100
67392,note_on,,,,,92,0,11,,,,,4,,,55,85
67392,note_on,,,,,92,0,8,,,,,1,,,67,85
67392,note_on,,,,,0,0,13,,,,,6,,,67,100
67392,note_on,,,,,0,0,13,,,,,6,,,74,100
67392,note_on,,,,,92,0,16,,,,,7,,,55,100
67392,note_on,,,,,92,0,12,,,,,5,,,43,85
67392,note_on,,,,,92,0,13,,,,,6,,,71,100
67392,note_on,,,,,92,0,14,,,,,6,,,55,100
67456,note_off,,,,,64,0,8,,,,,1,,,67,100
67488,note_on,,,,,32,0,8,,,,,1,,,71,85
67492,note_off,,,,,100,0,14,,,,,6,,,55,100
67492,note_off,,,,,100,0,10,,,,,3,,,59,100
67492,note_off,,,,,100,0,11,,,,,4,,,55,100
67492,note_off,,,,,100,0,12,,,,,5,,,43,100
67492,note_off,,,,,100,0,15,,,,,7,,,74,100
67492,note_off,,,,,100,0,9,,,,,2,,,79,100
67492,note_off,,,,,100,0,16,,,,,7,,,55,100
67492,note_off,,,,,0,0,15,,,,,7,,,67,100
67492,note_off,,,,,0,0,13,,,,,6,,,67,100
67492,note_off,,,,,0,0,13,,,,,6,,,74,100
67492,note_off,,,,,100,0,13,,,,,6,,,71,100
67492,note_off,,,,,0,0,15,,,,,7,,,71,100
67552,note_off,,,,,64,0,8,,,,,1,,,71,100
67584,note_on,,,,,92,0,12,,,,,5,,,50,85
67584,note_on,,,,,92,0,13,,,,,6,,,67,100
67584,note_on,,,,,0,0,13,,,,,6,,,71,100
67584,note_on,,,,,92,0,10,,,,,3,,,67,85
67584,note_on,,,,,92,0,9,,,,,2,,,71,85
67584,note_on,,,,,92,0,14,,,,,6,,,62,100
67584,note_on,,,,,0,0,15,,,,,7,,,71,100
67584,note_on,,,,,92,0,15,,,,,7,,,67,100
67584,note_on,,,,,92,0,11,,,,,4,,,62,85
67584,note_on,,,,,92,0,16,,,,,7,,,62,100
67584,note_on,,,,,32,0,8,,,,,1,,,72,85
67648,note_off,,,,,64,0,8,,,,,1,,,72,100
67680,note_on,,,,,32,0,8,,,,,1,,,74,85
67684,note_off,,,,,100,0,14,,,,,6,,,62,100
67684,note_off,,,,,100,0,9,,,,,2,,,71,100
67684,note_off,,,,,100,0,12,,,,,5,,,50,100
67684,note_off,,,,,100,0,16,,,,,7,,,62,100
67684,note_off,,,,,100,0,13,,,,,6,,,67,100
67684,note_off,,,,,0,0,13,,,,,6,,,71,100
67684,note_off,,,,,100,0,11,,,,,4,,,62,100
67684,note_off,,,,,100,0,15,,,,,7,,,67,100
67684,note_off,,,,,0,0,15,,,,,7,,,71,100
67684,note_off,,,,,100,0,10,,,,,3,,,67,100
67744,note_off,,,,,64,0,8,,,,,1,,,74,100
67776,note_on,,,,,0,0,13,,,,,6,,,69,100
67776,note_on,,,,,92,0,11,,,,,4,,,50,85
67776,note_on,,,,,92,0,16,,,,,7,,,50,100
67776,note_on,,,,,92,0,12,,,,,5,,,38,85
67776,note_on,,,,,92,0,14,,,,,6,,,50,100
67776,note_on,,,,,32,0,8,,,,,1,,,76,85
67776,note_on,,,,,92,0,13,,,,,6,,,66,100
67776,note_on,,,,,92,0,10,,,,,3,,,62,85
67776,note_on,,,,,0,0,15,,,,,7,,,69,100
67776,note_on,,,,,92,0,15,,,,,7,,,66,100
67776,note_on,,,,,92,0,9,,,,,2,,,69,85
67840,note_off,,,,,64,0,8,,,,,1,,,76,100
67872,note_on,,,,,32,0,8,,,,,1,,,78,87
67876,note_off,,,,,100,0,11,,,,,4,,,50,100
67876,note_off,,,,,100,0,10,,,,,3,,,62,100
67876,note_off,,,,,0,0,13,,,,,6,,,69,100
67876,note_off,,,,,100,0,13,,,,,6,,,66,100
67876,note_off,,,,,0,0,15,,,,,7,,,69,100
67876,note_off,,,,,100,0,16,,,,,7,,,50,100
67876,note_off,,,,,100,0,15,,,,,7,,,66,100
67876,note_off,,,,,100,0,12,,,,,5,,,38,100
67876,note_off,,,,,100,0,14,,,,,6,,,50,100
67876,note_off,,,,,100,0,9,,,,,2,,,69,100
67936,note_off,,,,,64,0,8,,,,,1,,,78,100
67968,note_on,,,,,92,0,9,,,,,2,,,67,89
67968,note_on,,,,,92,0,11,,,,,4,,,43,89
67968,note_on,,,,,0,0,13,,,,,6,,,62,100
67968,note_on,,,,,0,0,13,,,,,6,,,67,100
67968,note_on,,,,,0,0,15,,,,,7,,,67,100
67968,note_on,,,,,92,0,13,,,,,6,,,59,100
67968,note_on,,,,,92,0,16,,,,,7,,,43,100
67968,note_on,,,,,92,0,14,,,,,6,,,43,100
67968,note_on,,,,,92,0,10,,,,,3,,,59,89
67968,note_on,,,,,92,0,12,,,,,5,,,31,89
67968,note_on,,,,,32,0,8,,,,,1,,,79,89
67968,note_on,,,,,92,0,15,,,,,7,,,59,100
67968,note_on,,,,,0,0,15,,,,,7,,,62,100
68032,note_off,,,,,64,0,8,,,,,1,,,79,100
68032,note_off,,,,,64,0,9,,,,,2,,,67,100
68064,note_on,,,,,32,0,8,,,,,1,,,74,92
68064,note_on,,,,,32,0,9,,,,,2,,,71,92
68068,note_off,,,,,0,0,15,,,,,7,,,62,100
68068,note_off,,,,,100,0,12,,,,,5,,,31,100
68068,note_off,,,,,100,0,16,,,,,7,,,43,100
68068,note_off,,,,,100,0,14,,,,,6,,,43,100
68068,note_off,,,,,0,0,15,,,,,7,,,67,100
68068,note_off,,,,,100,0,10,,,,,3,,,59,100
68068,note_off,,,,,100,0,11,,,,,4,,,43,100
68068,note_off,,,,,0,0,13,,,,,6,,,67,100
68068,note_off,,,,,0,0,13,,,,,6,,,62,100
68068,note_off,,,,,100,0,13,,,,,6,,,59,100
68068,note_off,,,,,100,0,15,,,,,7,,,59,100
68128,note_off,,,,,64,0,9,,,,,2,,,71,100
68128,note_off,,,,,64,0,8,,,,,1,,,74,100
68160,note_on,,,,,32,0,8,,,,,1,,,76,94
68160,note_on,,,,,92,0,15,,,,,7,,,67,100
68160,note_on,,,,,0,0,15,,,,,7,,,71,100
68160,note_on,,,,,92,0,14,,,,,6,,,50,100
68160,note_on,,,,,92,0,10,,,,,3,,,67,94
68160,note_on,,,,,92,0,11,,,,,4,,,50,94
68160,note_on,,,,,92,0,13,,,,,6,,,67,100
68160,note_on,,,,,92,0,12,,,,,5,,,38,94
68160,note_on,,,,,92,0,16,,,,,7,,,50,100
68160,note_on,,,,,32,0,9,,,,,2,,,72,94
68160,note_on,,,,,0,0,13,,,,,6,,,71,100
68224,note_off,,,,,64,0,8,,,,,1,,,76,100
68224,note_off,,,,,64,0,9,,,,,2,,,72,100
68256,note_on,,,,,32,0,8,,,,,1,,,78,97
68256,note_on,,,,,32,0,9,,,,,2,,,74,97
68260,note_off,,,,,100,0,12,,,,,5,,,38,100
68260,note_off,,,,,100,0,16,,,,,7,,,50,100
68260,note_off,,,,,100,0,13,,,,,6,,,67,100
68260,note_off,,,,,0,0,13,,,,,6,,,71,100
68260,note_off,,,,,100,0,15,,,,,7,,,67,100
68260,note_off,,,,,0,0,15,,,,,7,,,71,100
68260,note_off,,,,,100,0,11,,,,,4,,,50,100
68260,note_off,,,,,100,0,14,,,,,6,,,50,100
68260,note_off,,,,,100,0,10,,,,,3,,,67,100
68320,note_off,,,,,64,0,8,,,,,1,,,78,100
68320,note_off,,,,,64,0,9,,,,,2,,,74,100
68352,note_on,,,,,92,0,10,,,,,3,,,62,99
68352,note_on,,,,,32,0,8,,,,,1,,,79,99
68352,note_on,,,,,92,0,11,,,,,4,,,38,99
68352,note_on,,,,,92,0,12,,,,,5,,,38,99
68352,note_on,,,,,92,0,16,,,,,7,,,38,100
68352,note_on,,,,,32,0,9,,,,,2,,,76,99
68352,note_on,,,,,92,0,13,,,,,6,,,66,100
68352,note_on,,,,,92,0,15,,,,,7,,,66,100
68352,note_on,,,,,0,0,15,,,,,7,,,69,100
68352,note_on,,,,,0,0,13,,,,,6,,,69,100
68352,note_on,,,,,92,0,14,,,,,6,,,38,100
68416,note_off,,,,,64,0,8,,,,,1,,,79,100
68416,note_off,,,,,64,0,9,,,,,2,,,76,100
68448,note_on,,,,,32,0,8,,,,,1,,,81,102
68448,note_on,,,,,32,0,9,,,,,2,,,78,102
68452,note_off,,,,,100,0,13,,,,,6,,,66,100
68452,note_off,,,,,100,0,14,,,,,6,,,38,100
68452,note_off,,,,,100,0,10,,,,,3,,,62,100
68452,note_off,,,,,100,0,12,,,,,5,,,38,100
68452,note_off,,,,,0,0,13,,,,,6,,,69,100
68452,note_off,,,,,100,0,16,,,,,7,,,38,100
68452,note_off,,,,,0,0,15,,,,,7,,,69,100
68452,note_off,,,,,100,0,11,,,,,4,,,38,100
68452,note_off,,,,,100,0,15,,,,,7,,,66,100
68512,note_off,,,,,64,0,9,,,,,2,,,78,100
68512,note_off,,,,,64,0,8,,,,,1,,,81,100
68544,note_on,,,,,92,0,13,,,,,6,,,70,100
68544,note_on,,,,,0,0,13,,,,,6,,,67,100
68544,note_on,,,,,0,0,13,,,,,6,,,62,100
68544,note_on,,,,,92,0,16,,,,,7,,,43,100
68544,note_on,,,,,92,0,14,,,,,6,,,43,100
68544,note_on,,,,,32,0,8,,,,,1,,,82,105
68544,note_on,,,,,92,0,11,,,,,4,,,43,105
68544,note_on,,,,,92,0,10,,,,,3,,,62,105
68544,note_on,,,,,92,0,12,,,,,5,,,31,105
68544,note_on,,,,,0,0,15,,,,,7,,,79,100
68544,note_on,,,,,0,0,15,,,,,7,,,70,100
68544,note_on,,,,,92,0,15,,,,,7,,,67,100
68544,note_on,,,,,32,0,9,,,,,2,,,79,105
68644,note_off,,,,,100,0,14,,,,,6,,,43,100
68644,note_off,,,,,100,0,11,,,,,4,,,43,100
68644,note_off,,,,,100,0,16,,,,,7,,,43,100
68644,note_off,,,,,100,0,12,,,,,5,,,31,100
68672,note_off,,,,,128,0,15,,,,,7,,,67,100
68672,note_off,,,,,0,0,15,,,,,7,,,70,100
68732,note_off,,,,,60,0,15,,,,,7,,,79,100
68732,note_off,,,,,188,0,8,,,,,1,,,82,100
68732,note_off,,,,,188,0,13,,,,,6,,,70,100
68736,note_on,,,,,92,0,14,,,,,6,,,55,100
68736,note_on,,,,,92,0,11,,,,,4,,,55,103
68736,note_on,,,,,92,0,16,,,,,7,,,55,100
68736,note_on,,,,,4,0,8,,,,,1,,,81,103
68736,note_on,,,,,92,0,12,,,,,5,,,43,103
68736,note_on,,,,,4,0,15,,,,,7,,,81,100
68736,note_on,,,,,4,0,13,,,,,6,,,69,100
68800,note_off,,,,,256,0,9,,,,,2,,,79,100
68836,note_off,,,,,100,0,14,,,,,6,,,55,100
68836,note_off,,,,,100,0,16,,,,,7,,,55,100
68836,note_off,,,,,100,0,11,,,,,4,,,55,100
68836,note_off,,,,,100,0,12,,,,,5,,,43,100
68924,note_off,,,,,188,0,15,,,,,7,,,81,100
68924,note_off,,,,,188,0,13,,,,,6,,,69,100
68924,note_off,,,,,188,0,8,,,,,1,,,81,100
68928,note_on,,,,,0,0,13,,,,,6,,,70,100
68928,note_off,,,,,384,0,10,,,,,3,,,62,100
68928,note_on,,,,,4,0,8,,,,,1,,,79,100
68928,note_on,,,,,92,0,11,,,,,4,,,43,100
68928,note_on,,,,,92,0,12,,,,,5,,,31,100
68928,note_off,,,,,4,0,13,,,,,6,,,62,100
68928,note_off,,,,,0,0,13,,,,,6,,,67,100
68928,note_on,,,,,0,0,15,,,,,7,,,82,100
68928,note_on,,,,,92,0,16,,,,,7,,,43,100
68928,note_on,,,,,4,0,15,,,,,7,,,79,100
68928,note_on,,,,,92,0,14,,,,,6,,,43,100
69028,note_off,,,,,100,0,16,,,,,7,,,43,100
69028,note_off,,,,,100,0,11,,,,,4,,,43,100
69028,note_off,,,,,100,0,14,,,,,6,,,43,100
69028,note_off,,,,,100,0,12,,,,,5,,,31,100
69056,note_off,,,,,0,0,15,,,,,7,,,82,100
69056,note_off,,,,,128,0,15,,,,,7,,,79,100
69056,note_off,,,,,128,0,13,,,,,6,,,70,100
69056,note_off,,,,,128,0,8,,,,,1,,,79,100
69120,note_on,,,,,92,0,12,,,,,5,,,31,105
69120,note_on,,,,,0,0,13,,,,,6,,,67,100
69120,note_on,,,,,64,0,13,,,,,6,,,70,100
69120,note_on,,,,,92,0,14,,,,,6,,,43,100
69120,note_on,,,,,0,0,13,,,,,6,,,62,100
69120,note_on,,,,,320,0,9,,,,,2,,,82,105
69120,note_on,,,,,0,0,15,,,,,7,,,79,100
69120,note_on,,,,,92,0,11,,,,,4,,,43,105
69120,note_on,,,,,92,0,16,,,,,7,,,43,100
69120,note_on,,,,,192,0,10,,,,,3,,,62,105
69120,note_on,,,,,64,0,8,,,,,1,,,79,105
69120,note_on,,,,,64,0,15,,,,,7,,,82,100
69220,note_off,,,,,100,0,11,,,,,4,,,43,100
69220,note_off,,,,,100,0,16,,,,,7,,,43,100
69220,note_off,,,,,100,0,12,,,,,5,,,31,100
69220,note_off,,,,,100,0,14,,,,,6,,,43,100
69308,note_off,,,,,188,0,13,,,,,6,,,70,100
69308,note_off,,,,,0,0,15,,,,,7,,,79,100
69308,note_off,,,,,188,0,15,,,,,7,,,82,100
69308,note_off,,,,,188,0,9,,,,,2,,,82,100
69308,note_off,,,,,188,0,8,,,,,1,,,79,100
69312,note_on,,,,,92,0,12,,,,,5,,,43,104
69312,note_on,,,,,4,0,8,,,,,1,,,77,104
69312,note_on,,,,,92,0,16,,,,,7,,,55,100
69312,note_on,,,,,4,0,13,,,,,6,,,69,100
69312,note_on,,,,,92,0,14,,,,,6,,,55,100
69312,note_on,,,,,92,0,11,,,,,4,,,55,104
69312,note_on,,,,,4,0,9,,,,,2,,,81,104
69312,note_on,,,,,0,0,15,,,,,7,,,81,100
69312,note_on,,,,,4,0,15,,,,,7,,,77,100
69376,note_off,,,,,256,0,10,,,,,3,,,62,100
69412,note_off,,,,,100,0,14,,,,,6,,,55,100
69412,note_off,,,,,100,0,11,,,,,4,,,55,100
69412,note_off,,,,,100,0,16,,,,,7,,,55,100
69412,note_off,,,,,100,0,12,,,,,5,,,43,100
69500,note_off,,,,,0,0,13,,,,,6,,,69,100
69500,note_off,,,,,188,0,8,,,,,1,,,77,100
69500,note_off,,,,,188,0,9,,,,,2,,,81,100
69500,note_off,,,,,188,0,13,,,,,6,,,62,100
69500,note_off,,,,,0,0,15,,,,,7,,,81,100
69500,note_off,,,,,188,0,15,,,,,7,,,77,100
69504,note_on,,,,,4,0,9,,,,,2,,,79,102
69504,note_on,,,,,4,0,8,,,,,1,,,75,102
69504,note_on,,,,,92,0,12,,,,,5,,,31,102
69504,note_on,,,,,128,0,10,,,,,3,,,70,102
69504,note_on,,,,,92,0,14,,,,,6,,,43,100
69504,note_on,,,,,4,0,15,,,,,7,,,75,100
69504,note_on,,,,,92,0,11,,,,,4,,,43,102
69504,note_on,,,,,92,0,16,,,,,7,,,43,100
69504,note_on,,,,,0,0,15,,,,,7,,,79,100
69504,note_on,,,,,4,0,13,,,,,6,,,67,100
69504,note_on,,,,,0,0,13,,,,,6,,,63,100
69580,note_off,,,,,76,0,13,,,,,6,,,67,100
69604,note_off,,,,,100,0,11,,,,,4,,,43,100
69604,note_off,,,,,24,0,13,,,,,6,,,63,100
69604,note_off,,,,,100,0,14,,,,,6,,,43,100
69604,note_off,,,,,100,0,16,,,,,7,,,43,100
69604,note_off,,,,,100,0,12,,,,,5,,,31,100
69632,note_off,,,,,28,0,13,,,,,6,,,67,100
69632,note_off,,,,,128,0,10,,,,,3,,,70,100
69632,note_off,,,,,128,0,8,,,,,1,,,75,100
69632,note_off,,,,,128,0,9,,,,,2,,,79,100
69696,note_on,,,,,64,0,8,,,,,1,,,75,100
69696,note_on,,,,,64,0,10,,,,,3,,,70,100
69696,note_on,,,,,0,0,13,,,,,6,,,67,100
69696,note_on,,,,,92,0,14,,,,,6,,,43,100
69696,note_on,,,,,0,0,13,,,,,6,,,63,100
69696,note_on,,,,,64,0,13,,,,,6,,,70,100
69696,note_on,,,,,64,0,9,,,,,2,,,79,100
69696,note_on,,,,,92,0,16,,,,,7,,,43,100
69696,note_on,,,,,92,0,12,,,,,5,,,31,100
69696,note_on,,,,,92,0,11,,,,,4,,,43,100
69796,note_off,,,,,100,0,12,,,,,5,,,31,100
69796,note_off,,,,,0,0,13,,,,,6,,,63,100
69796,note_off,,,,,100,0,11,,,,,4,,,43,100
69796,note_off,,,,,100,0,16,,,,,7,,,43,100
69796,note_off,,,,,0,0,13,,,,,6,,,67,100
69796,note_off,,,,,100,0,13,,,,,6,,,70,100
69796,note_off,,,,,100,0,14,,,,,6,,,43,100
69884,note_off,,,,,0,0,15,,,,,7,,,79,100
69884,note_off,,,,,380,0,15,,,,,7,,,75,100
69884,note_off,,,,,188,0,9,,,,,2,,,79,100
69884,note_off,,,,,188,0,8,,,,,1,,,75,100
69884,note_off,,,,,188,0,10,,,,,3,,,70,100
69888,note_on,,,,,4,0,15,,,,,7,,,71,100
69888,note_on,,,,,4,0,8,,,,,1,,,74,98
69888,note_on,,,,,0,0,15,,,,,7,,,77,100
69888,note_on,,,,,4,0,10,,,,,3,,,71,98
69888,note_on,,,,,92,0,14,,,,,6,,,56,100
69888,note_on,,,,,92,0,16,,,,,7,,,56,100
69888,note_on,,,,,92,0,12,,,,,5,,,44,98
69888,note_on,,,,,4,0,9,,,,,2,,,77,98
69888,note_on,,,,,0,0,13,,,,,6,,,74,100
69888,note_on,,,,,92,0,13,,,,,6,,,71,100
69888,note_on,,,,,0,0,13,,,,,6,,,65,100
69888,note_on,,,,,92,0,11,,,,,4,,,56,98
69988,note_off,,,,,100,0,16,,,,,7,,,56,100
69988,note_off,,,,,0,0,13,,,,,6,,,74,100
69988,note_off,,,,,0,0,13,,,,,6,,,65,100
69988,note_off,,,,,100,0,13,,,,,6,,,71,100
69988,note_off,,,,,100,0,14,,,,,6,,,56,100
69988,note_off,,,,,100,0,12,,,,,5,,,44,100
69988,note_off,,,,,100,0,11,,,,,4,,,56,100
70076,note_off,,,,,188,0,10,,,,,3,,,71,100
70076,note_off,,,,,188,0,8,,,,,1,,,74,100
70076,note_off,,,,,188,0,9,,,,,2,,,77,100
70076,note_off,,,,,188,0,15,,,,,7,,,71,100
70076,note_off,,,,,0,0,15,,,,,7,,,77,100
70080,note_on,,,,,0,0,13,,,,,6,,,73,100
70080,note_on,,,,,92,0,16,,,,,7,,,57,100
70080,note_on,,,,,92,0,13,,,,,6,,,64,100
70080,note_on,,,,,0,0,15,,,,,7,,,76,100
70080,note_on,,,,,4,0,15,,,,,7,,,73,100
70080,note_on,,,,,92,0,11,,,,,4,,,57,96
70080,note_on,,,,,92,0,12,,,,,5,,,45,96
70080,note_on,,,,,4,0,9,,,,,2,,,76,96
70080,note_on,,,,,4,0,10,,,,,3,,,73,96
70080,note_on,,,,,92,0,14,,,,,6,,,57,100
70080,note_on,,,,,4,0,8,,,,,1,,,73,96
70180,note_off,,,,,100,0,13,,,,,6,,,64,100
70180,note_off,,,,,100,0,12,,,,,5,,,45,100
70180,note_off,,,,,0,0,13,,,,,6,,,73,100
70180,note_off,,,,,100,0,16,,,,,7,,,57,100
70180,note_off,,,,,100,0,14,,,,,6,,,57,100
70180,note_off,,,,,100,0,11,,,,,4,,,57,100
70208,note_off,,,,,128,0,10,,,,,3,,,73,100
70208,note_off,,,,,128,0,9,,,,,2,,,76,100
70208,note_off,,,,,128,0,8,,,,,1,,,73,100
70268,note_off,,,,,188,0,15,,,,,7,,,73,100
70268,note_off,,,,,0,0,15,,,,,7,,,76,100
70272,note_on,,,,,92,0,16,,,,,7,,,50,100
70272,note_on,,,,,92,0,12,,,,,5,,,38,94
70272,note_on,,,,,0,0,13,,,,,6,,,74,100
70272,note_on,,,,,92,0,13,,,,,6,,,66,100
70272,note_on,,,,,4,0,15,,,,,7,,,74,100
70272,note_on,,,,,0,0,15,,,,,7,,,78,100
70272,note_on,,,,,64,0,10,,,,,3,,,69,94
70272,note_on,,,,,64,0,9,,,,,2,,,78,94
70272,note_on,,,,,92,0,14,,,,,6,,,50,100
70272,note_on,,,,,64,0,8,,,,,1,,,74,94
70272,note_on,,,,,92,0,11,,,,,4,,,50,94
70372,note_off,,,,,100,0,13,,,,,6,,,74,100
70460,note_off,,,,,188,0,11,,,,,4,,,50,100
70460,note_off,,,,,188,0,14,,,,,6,,,50,100
70460,note_off,,,,,88,0,13,,,,,6,,,66,100
70460,note_off,,,,,188,0,15,,,,,7,,,78,100
70460,note_off,,,,,188,0,16,,,,,7,,,50,100
70460,note_off,,,,,188,0,10,,,,,3,,,69,100
70460,note_off,,,,,188,0,12,,,,,5,,,38,100
70464,note_on,,,,,4,0,11,,,,,4,,,52,92
70464,note_on,,,,,4,0,13,,,,,6,,,67,100
70464,note_on,,,,,4,0,15,,,,,7,,,79,100
70464,note_on,,,,,4,0,12,,,,,5,,,40,92
70464,note_on,,,,,4,0,10,,,,,3,,,67,92
70464,note_on,,,,,4,0,16,,,,,7,,,52,100
70464,note_on,,,,,4,0,14,,,,,6,,,52,100
70652,note_off,,,,,188,0,14,,,,,6,,,52,100
70652,note_off,,,,,188,0,10,,,,,3,,,67,100
70652,note_off,,,,,188,0,13,,,,,6,,,67,100
70652,note_off,,,,,188,0,15,,,,,7,,,79,100
70652,note_off,,,,,188,0,16,,,,,7,,,52,100
70652,note_off,,,,,188,0,11,,,,,4,,,52,100
70652,note_off,,,,,188,0,12,,,,,5,,,40,100
70656,note_on,,,,,4,0,14,,,,,6,,,54,100
70656,note_on,,,,,4,0,13,,,,,6,,,69,100
70656,note_off,,,,,384,0,9,,,,,2,,,78,100
70656,note_on,,,,,4,0,11,,,,,4,,,54,91
70656,note_on,,,,,4,0,16,,,,,7,,,54,100
70656,note_on,,,,,4,0,15,,,,,7,,,81,100
70656,note_on,,,,,4,0,10,,,,,3,,,69,91
70656,note_on,,,,,4,0,12,,,,,5,,,42,91
70656,note_off,,,,,384,0,8,,,,,1,,,74,100
70756,note_off,,,,,100,0,11,,,,,4,,,54,100
70756,note_off,,,,,100,0,12,,,,,5,,,42,100
70756,note_off,,,,,100,0,14,,,,,6,,,54,100
70756,note_off,,,,,100,0,13,,,,,6,,,69,100
70756,note_off,,,,,100,0,16,,,,,7,,,54,100
70784,note_off,,,,,128,0,10,,,,,3,,,69,100
70844,note_off,,,,,188,0,15,,,,,7,,,81,100
70848,note_on,,,,,92,0,13,,,,,6,,,71,100
70848,note_on,,,,,192,0,9,,,,,2,,,71,92
70848,note_on,,,,,4,0,15,,,,,7,,,83,100
70848,note_on,,,,,92,0,14,,,,,6,,,43,100
70848,note_on,,,,,92,0,11,,,,,4,,,43,92
70848,note_on,,,,,92,0,12,,,,,5,,,31,92
70848,note_on,,,,,192,0,8,,,,,1,,,74,92
70848,note_on,,,,,0,0,13,,,,,6,,,62,100
70848,note_on,,,,,92,0,16,,,,,7,,,43,100
70848,note_on,,,,,64,0,10,,,,,3,,,62,92
70848,note_on,,,,,0,0,13,,,,,6,,,67,100
70948,note_off,,,,,100,0,16,,,,,7,,,43,100
70948,note_off,,,,,100,0,12,,,,,5,,,31,100
70948,note_off,,,,,100,0,14,,,,,6,,,43,100
70948,note_off,,,,,100,0,11,,,,,4,,,43,100
71036,note_off,,,,,0,0,15,,,,,7,,,83,100
71036,note_off,,,,,188,0,15,,,,,7,,,74,100
71036,note_off,,,,,188,0,13,,,,,6,,,71,100
71036,note_off,,,,,188,0,9,,,,,2,,,71,100
71036,note_off,,,,,188,0,8,,,,,1,,,74,100
71040,note_on,,,,,0,0,15,,,,,7,,,81,100
71040,note_on,,,,,4,0,15,,,,,7,,,72,100
71040,note_on,,,,,92,0,12,,,,,5,,,43,90
71040,note_on,,,,,4,0,13,,,,,6,,,69,100
71040,note_on,,,,,4,0,8,,,,,1,,,72,90
71040,note_on,,,,,92,0,14,,,,,6,,,55,100
71040,note_on,,,,,4,0,9,,,,,2,,,69,90
71040,note_on,,,,,92,0,16,,,,,7,,,55,100
71040,note_on,,,,,92,0,11,,,,,4,,,55,90
71140,note_off,,,,,100,0,11,,,,,4,,,55,100
71140,note_off,,,,,100,0,16,,,,,7,,,55,100
71140,note_off,,,,,100,0,14,,,,,6,,,55,100
71140,note_off,,,,,100,0,12,,,,,5,,,43,100
71228,note_off,,,,,188,0,13,,,,,6,,,69,100
71228,note_off,,,,,188,0,8,,,,,1,,,72,100
71228,note_off,,,,,188,0,15,,,,,7,,,72,100
71228,note_off,,,,,0,0,15,,,,,7,,,81,100
71228,note_off,,,,,188,0,9,,,,,2,,,69,100
71232,note_on,,,,,0,0,15,,,,,7,,,71,100
71232,note_on,,,,,92,0,14,,,,,6,,,43,100
71232,note_on,,,,,4,0,9,,,,,2,,,67,88
71232,note_off,,,,,0,0,13,,,,,6,,,67,100
71232,note_on,,,,,4,0,8,,,,,1,,,71,88
71232,note_on,,,,,0,0,13,,,,,6,,,67,100
71232,note_on,,,,,92,0,16,,,,,7,,,43,100
71232,note_off,,,,,4,0,13,,,,,6,,,62,100
71232,note_off,,,,,384,0,10,,,,,3,,,62,100
71232,note_on,,,,,92,0,11,,,,,4,,,43,88
71232,note_on,,,,,4,0,15,,,,,7,,,79,100
71232,note_on,,,,,92,0,12,,,,,5,,,31,88
71332,note_off,,,,,100,0,9,,,,,2,,,67,100
71332,note_off,,,,,100,0,8,,,,,1,,,71,100
71332,note_off,,,,,100,0,16,,,,,7,,,43,100
71332,note_off,,,,,100,0,14,,,,,6,,,43,100
71332,note_off,,,,,100,0,12,,,,,5,,,31,100
71332,note_off,,,,,100,0,11,,,,,4,,,43,100
71420,note_off,,,,,188,0,15,,,,,7,,,71,100
71424,note_on,,,,,92,0,14,,,,,6,,,43,100
71424,note_on,,,,,192,0,13,,,,,6,,,70,100
71424,note_on,,,,,0,0,13,,,,,6,,,62,100
71424,note_on,,,,,0,0,13,,,,,6,,,67,100
71424,note_on,,,,,92,0,9,,,,,2,,,74,92
71424,note_on,,,,,92,0,11,,,,,4,,,43,92
71424,note_on,,,,,92,0,8,,,,,1,,,70,92
71424,note_on,,,,,192,0,10,,,,,3,,,62,92
71424,note_on,,,,,4,0,15,,,,,7,,,70,100
71424,note_on,,,,,92,0,16,,,,,7,,,43,100
71424,note_on,,,,,92,0,12,,,,,5,,,31,92
71460,note_off,,,,,36,0,13,,,,,6,,,67,100
71524,note_off,,,,,100,0,14,,,,,6,,,43,100
71524,note_off,,,,,100,0,11,,,,,4,,,43,100
71524,note_off,,,,,100,0,16,,,,,7,,,43,100
71524,note_off,,,,,100,0,12,,,,,5,,,31,100
71612,note_off,,,,,188,0,9,,,,,2,,,74,100
71612,note_off,,,,,188,0,8,,,,,1,,,70,100
71616,note_on,,,,,4,0,8,,,,,1,,,69,90
71616,note_on,,,,,92,0,12,,,,,5,,,43,90
71616,note_on,,,,,4,0,9,,,,,2,,,72,90
71616,note_on,,,,,92,0,11,,,,,4,,,55,90
71616,note_on,,,,,92,0,14,,,,,6,,,55,100
71616,note_on,,,,,92,0,16,,,,,7,,,55,100
71680,note_off,,,,,256,0,10,,,,,3,,,62,100
71680,note_off,,,,,0,0,13,,,,,6,,,67,100
71680,note_off,,,,,0,0,13,,,,,6,,,62,100
71680,note_off,,,,,220,0,13,,,,,6,,,70,100
71716,note_off,,,,,100,0,12,,,,,5,,,43,100
71716,note_off,,,,,100,0,16,,,,,7,,,55,100
71716,note_off,,,,,100,0,11,,,,,4,,,55,100
71716,note_off,,,,,100,0,14,,,,,6,,,55,100
71804,note_off,,,,,188,0,8,,,,,1,,,69,100
71804,note_off,,,,,188,0,9,,,,,2,,,72,100
71804,note_off,,,,,380,0,15,,,,,7,,,79,100
71808,note_on,,,,,92,0,14,,,,,6,,,49,100
71808,note_on,,,,,4,0,9,,,,,2,,,70,88
71808,note_on,,,,,92,0,11,,,,,4,,,49,88
71808,note_on,,,,,92,0,12,,,,,5,,,37,88
71808,note_on,,,,,92,0,16,,,,,7,,,49,100
71808,note_on,,,,,4,0,8,,,,,1,,,67,88
71808,note_on,,,,,0,0,13,,,,,6,,,70,100
71808,note_on,,,,,0,0,13,,,,,6,,,67,100
71808,note_on,,,,,128,0,13,,,,,6,,,64,100
71808,note_on,,,,,4,0,15,,,,,7,,,76,100
71808,note_on,,,,,128,0,10,,,,,3,,,64,88
71884,note_off,,,,,76,0,15,,,,,7,,,70,100
71908,note_off,,,,,100,0,12,,,,,5,,,37,100
71908,note_off,,,,,0,0,13,,,,,6,,,70,100
71908,note_off,,,,,0,0,13,,,,,6,,,67,100
71908,note_off,,,,,100,0,13,,,,,6,,,64,100
71908,note_off,,,,,100,0,10,,,,,3,,,64,100
71908,note_off,,,,,100,0,8,,,,,1,,,67,100
71908,note_off,,,,,100,0,9,,,,,2,,,70,100
71908,note_off,,,,,100,0,16,,,,,7,,,49,100
71908,note_off,,,,,100,0,11,,,,,4,,,49,100
71908,note_off,,,,,100,0,14,,,,,6,,,49,100
71936,note_off,,,,,52,0,15,,,,,7,,,76,100
72000,note_on,,,,,92,0,10,,,,,3,,,57,92
72000,note_on,,,,,92,0,8,,,,,1,,,66,92
72000,note_on,,,,,92,0,11,,,,,4,,,50,92
72000,note_on,,,,,92,0,14,,,,,6,,,50,100
72000,note_on,,,,,92,0,9,,,,,2,,,69,92
72000,note_on,,,,,64,0,15,,,,,7,,,69,100
72000,note_on,,,,,92,0,16,,,,,7,,,50,100
72000,note_on,,,,,92,0,13,,,,,6,,,62,100
72000,note_on,,,,,0,0,13,,,,,6,,,66,100
72000,note_on,,,,,0,0,13,,,,,6,,,69,100
72000,note_on,,,,,92,0,12,,,,,5,,,38,92
72000,note_on,,,,,0,0,15,,,,,7,,,78,100
72064,note_off,,,,,64,0,8,,,,,1,,,66,100
72064,note_off,,,,,64,0,9,,,,,2,,,69,100
72096,note_on,,,,,32,0,8,,,,,1,,,62,91
72096,note_on,,,,,32,0,9,,,,,2,,,66,91
72128,note_off,,,,,32,0,9,,,,,2,,,66,100
72128,note_off,,,,,32,0,8,,,,,1,,,62,100
72144,note_on,,,,,16,0,9,,,,,2,,,67,91
72144,note_on,,,,,16,0,8,,,,,1,,,64,91
72176,note_off,,,,,32,0,9,,,,,2,,,67,100
72176,note_off,,,,,32,0,8,,,,,1,,,64,100
72192,note_on,,,,,16,0,8,,,,,1,,,66,91
72192,note_on,,,,,16,0,9,,,,,2,,,69,91
72200,note_off,,,,,0,0,13,,,,,6,,,69,100
72200,note_off,,,,,0,0,13,,,,,6,,,66,100
72200,note_off,,,,,200,0,11,,,,,4,,,50,100
72200,note_off,,,,,200,0,12,,,,,5,,,38,100
72200,note_off,,,,,200,0,13,,,,,6,,,62,100
72200,note_off,,,,,200,0,16,,,,,7,,,50,100
72200,note_off,,,,,0,0,15,,,,,7,,,78,100
72200,note_off,,,,,200,0,15,,,,,7,,,69,100
72200,note_off,,,,,200,0,14,,,,,6,,,50,100
72200,note_off,,,,,200,0,10,,,,,3,,,57,100
72256,note_off,,,,,64,0,9,,,,,2,,,69,100
72256,note_off,,,,,64,0,8,,,,,1,,,66,100
72288,note_on,,,,,32,0,9,,,,,2,,,71,92
72288,note_on,,,,,32,0,8,,,,,1,,,67,92
72352,note_off,,,,,64,0,8,,,,,1,,,67,100
72352,note_off,,,,,64,0,9,,,,,2,,,71,100
72384,note_on,,,,,32,0,9,,,,,2,,,72,93
72384,note_on,,,,,32,0,8,,,,,1,,,69,93
72448,note_off,,,,,64,0,8,,,,,1,,,69,100
72448,note_off,,,,,64,0,9,,,,,2,,,72,100
72480,note_on,,,,,32,0,9,,,,,2,,,74,94
72480,note_on,,,,,32,0,8,,,,,1,,,71,94
72544,note_off,,,,,64,0,8,,,,,1,,,71,100
72544,note_off,,,,,64,0,9,,,,,2,,,74,100
72576,note_on,,,,,0,0,13,,,,,6,,,69,100
72576,note_on,,,,,376,0,11,,,,,4,,,50,95
72576,note_on,,,,,0,0,15,,,,,7,,,69,100
72576,note_on,,,,,32,0,8,,,,,1,,,72,95
72576,note_on,,,,,376,0,15,,,,,7,,,66,100
72576,note_on,,,,,376,0,12,,,,,5,,,38,95
72576,note_on,,,,,376,0,10,,,,,3,,,57,95
72576,note_on,,,,,376,0,13,,,,,6,,,66,100
72576,note_on,,,,,376,0,14,,,,,6,,,50,100
72576,note_on,,,,,32,0,9,,,,,2,,,66,95
72576,note_on,,,,,376,0,16,,,,,7,,,50,100
72676,note_off,,,,,100,0,11,,,,,4,,,50,100
72676,note_off,,,,,100,0,9,,,,,2,,,66,100
72676,note_off,,,,,100,0,15,,,,,7,,,66,100
72676,note_off,,,,,100,0,8,,,,,1,,,72,100
72676,note_off,,,,,100,0,10,,,,,3,,,57,100
72676,note_off,,,,,0,0,13,,,,,6,,,69,100
72676,note_off,,,,,100,0,13,,,,,6,,,66,100
72676,note_off,,,,,0,0,15,,,,,7,,,69,100
72676,note_off,,,,,100,0,12,,,,,5,,,38,100
72676,note_off,,,,,100,0,16,,,,,7,,,50,100
72676,note_off,,,,,100,0,14,,,,,6,,,50,100
72864,note_on,,,,,188,0,12,,,,,5,,,38,93
72864,note_on,,,,,188,0,11,,,,,4,,,50,93
72864,note_on,,,,,188,0,13,,,,,6,,,66,100
72864,note_on,,,,,0,0,13,,,,,6,,,74,100
72864,note_on,,,,,188,0,8,,,,,1,,,69,93
72864,note_on,,,,,188,0,14,,,,,6,,,50,100
72864,note_on,,,,,0,0,15,,,,,7,,,74,100
72864,note_on,,,,,188,0,9,,,,,2,,,66,93
72864,note_on,,,,,188,0,15,,,,,7,,,66,100
72864,note_on,,,,,188,0,10,,,,,3,,,62,93
72864,note_on,,,,,188,0,16,,,,,7,,,50,100
72928,note_off,,,,,64,0,15,,,,,7,,,66,100
72928,note_off,,,,,64,0,11,,,,,4,,,50,100
72928,note_off,,,,,64,0,9,,,,,2,,,66,99
72928,note_off,,,,,64,0,8,,,,,1,,,69,100
72928,note_off,,,,,64,0,14,,,,,6,,,50,100
72928,note_off,,,,,64,0,13,,,,,6,,,66,100
72928,note_off,,,,,64,0,12,,,,,5,,,38,100
72928,note_off,,,,,64,0,10,,,,,3,,,62,100
72928,note_off,,,,,0,0,13,,,,,6,,,74,100
72928,note_off,,,,,64,0,16,,,,,7,,,50,100
72928,note_off,,,,,0,0,15,,,,,7,,,74,100
72960,note_on,,,,,32,0,10,,,,,3,,,62,93
72960,note_on,,,,,32,0,12,,,,,5,,,31,93
72960,note_on,,,,,32,0,15,,,,,7,,,67,100
72960,note_on,,,,,32,0,9,,,,,2,,,67,93
72960,note_on,,,,,32,0,14,,,,,6,,,43,100
72960,note_on,,,,,32,0,8,,,,,1,,,71,93
72960,note_on,,,,,0,0,15,,,,,7,,,71,100
72960,note_on,,,,,32,0,13,,,,,6,,,67,100
72960,note_on,,,,,0,0,13,,,,,6,,,71,100
72960,note_on,,,,,32,0,11,,,,,4,,,43,93
72960,note_on,,,,,32,0,16,,,,,7,,,43,100
73060,note_off,,,,,100,0,14,,,,,6,,,43,100
73060,note_off,,,,,100,0,15,,,,,7,,,67,100
73060,note_off,,,,,100,0,13,,,,,6,,,67,100
73060,note_off,,,,,100,0,12,,,,,5,,,31,100
73060,note_off,,,,,0,0,13,,,,,6,,,71,100
73060,note_off,,,,,100,0,8,,,,,1,,,71,100
73060,note_off,,,,,0,0,15,,,,,7,,,71,100
73060,note_off,,,,,100,0,9,,,,,2,,,67,100
73060,note_off,,,,,100,0,10,,,,,3,,,62,100
73060,note_off,,,,,100,0,16,,,,,7,,,43,100
73060,note_off,,,,,100,0,11,,,,,4,,,43,100
73248,note_on,,,,,188,0,12,,,,,5,,,36,91
73248,note_on,,,,,188,0,8,,,,,1,,,72,91
73248,note_on,,,,,188,0,14,,,,,6,,,48,100
73248,note_on,,,,,0,0,13,,,,,6,,,69,100
73248,note_on,,,,,188,0,11,,,,,4,,,48,91
73248,note_on,,,,,188,0,9,,,,,2,,,69,91
73248,note_on,,,,,188,0,16,,,,,7,,,48,100
73248,note_on,,,,,188,0,15,,,,,7,,,64,100
73248,note_on,,,,,188,0,10,,,,,3,,,64,91
73248,note_on,,,,,0,0,15,,,,,7,,,69,100
73248,note_on,,,,,188,0,13,,,,,6,,,64,100
73312,note_off,,,,,0,0,13,,,,,6,,,69,100
73312,note_off,,,,,64,0,16,,,,,7,,,48,100
73312,note_off,,,,,64,0,11,,,,,4,,,48,100
73312,note_off,,,,,64,0,9,,,,,2,,,69,100
73312,note_off,,,,,0,0,15,,,,,7,,,69,100
73312,note_off,,,,,64,0,10,,,,,3,,,64,100
73312,note_off,,,,,64,0,14,,,,,6,,,48,100
73312,note_off,,,,,64,0,12,,,,,5,,,36,100
73312,note_off,,,,,64,0,8,,,,,1,,,72,100
73312,note_off,,,,,64,0,13,,,,,6,,,64,100
73312,note_off,,,,,64,0,15,,,,,7,,,64,100
73344,note_on,,,,,32,0,12,,,,,5,,,38,95
73344,note_on,,,,,32,0,13,,,,,6,,,62,100
73344,note_on,,,,,32,0,9,,,,,2,,,67,95
73344,note_on,,,,,0,0,13,,,,,6,,,66,100
73344,note_on,,,,,32,0,10,,,,,3,,,57,95
73344,note_on,,,,,32,0,14,,,,,6,,,50,100
73344,note_on,,,,,32,0,16,,,,,7,,,50,100
73344,note_on,,,,,32,0,11,,,,,4,,,50,95
73344,note_on,,,,,32,0,8,,,,,1,,,71,95
73344,note_on,,,,,32,0,15,,,,,7,,,62,100
73344,note_on,,,,,0,0,15,,,,,7,,,66,100
73388,note_off,,,,,44,0,8,,,,,1,,,71,100
73392,note_on,,,,,4,0,8,,,,,1,,,69,95
73404,note_off,,,,,60,0,9,,,,,2,,,67,100
73408,note_on,,,,,4,0,9,,,,,2,,,66,95
73436,note_off,,,,,44,0,8,,,,,1,,,69,100
73440,note_on,,,,,4,0,8,,,,,1,,,71,94
73444,note_off,,,,,100,0,12,,,,,5,,,38,100
73444,note_off,,,,,100,0,16,,,,,7,,,50,100
73444,note_off,,,,,100,0,14,,,,,6,,,50,100
73444,note_off,,,,,100,0,11,,,,,4,,,50,100
73468,note_off,,,,,60,0,9,,,,,2,,,66,100
73472,note_on,,,,,4,0,9,,,,,2,,,67,94
73484,note_off,,,,,44,0,8,,,,,1,,,71,100
73488,note_on,,,,,4,0,8,,,,,1,,,69,93
73532,note_off,,,,,44,0,8,,,,,1,,,69,100
73532,note_off,,,,,60,0,9,,,,,2,,,67,100
73536,note_on,,,,,4,0,8,,,,,1,,,69,93
73536,note_off,,,,,192,0,10,,,,,3,,,57,100
73536,note_on,,,,,92,0,14,,,,,6,,,38,100
73536,note_on,,,,,92,0,12,,,,,5,,,38,93
73536,note_on,,,,,92,0,16,,,,,7,,,38,100
73536,note_on,,,,,4,0,9,,,,,2,,,66,93
73536,note_on,,,,,92,0,11,,,,,4,,,38,93
73600,note_off,,,,,256,0,13,,,,,6,,,62,100
73600,note_off,,,,,0,0,13,,,,,6,,,66,100
73600,note_off,,,,,256,0,15,,,,,7,,,62,100
73600,note_off,,,,,0,0,15,,,,,7,,,66,100
73600,note_off,,,,,64,0,9,,,,,2,,,66,100
73600,note_off,,,,,64,0,8,,,,,1,,,69,100
73632,note_on,,,,,32,0,8,,,,,1,,,67,94
73632,note_on,,,,,32,0,9,,,,,2,,,67,94
73632,note_on,,,,,96,0,10,,,,,3,,,62,94
73636,note_off,,,,,100,0,14,,,,,6,,,38,100
73636,note_off,,,,,100,0,12,,,,,5,,,38,100
73636,note_off,,,,,100,0,16,,,,,7,,,38,100
73636,note_off,,,,,100,0,11,,,,,4,,,38,100
73696,note_off,,,,,64,0,8,,,,,1,,,67,100
73696,note_off,,,,,64,0,9,,,,,2,,,67,100
73696,note_off,,,,,64,0,10,,,,,3,,,62,100
73728,note_on,,,,,92,0,14,,,,,6,,,55,100
73728,note_on,,,,,32,0,8,,,,,1,,,67,95
73728,note_on,,,,,32,0,10,,,,,3,,,59,95
73728,note_on,,,,,0,0,13,,,,,6,,,67,100
73728,note_on,,,,,92,0,11,,,,,4,,,55,95
73728,note_on,,,,,128,0,13,,,,,6,,,71,100
73728,note_on,,,,,0,0,13,,,,,6,,,74,100
73728,note_on,,,,,0,0,15,,,,,7,,,74,100
73728,note_on,,,,,0,0,15,,,,,7,,,67,100
73728,note_on,,,,,32,0,9,,,,,2,,,67,95
73728,note_on,,,,,92,0,16,,,,,7,,,55,100
73728,note_on,,,,,92,0,12,,,,,5,,,43,95
73728,note_on,,,,,128,0,15,,,,,7,,,71,100
73792,note_off,,,,,64,0,8,,,,,1,,,67,100
73824,note_on,,,,,32,0,8,,,,,1,,,71,95
73828,note_off,,,,,100,0,16,,,,,7,,,55,100
73828,note_off,,,,,100,0,10,,,,,3,,,59,100
73828,note_off,,,,,100,0,9,,,,,2,,,67,100
73828,note_off,,,,,0,0,13,,,,,6,,,67,100
73828,note_off,,,,,100,0,15,,,,,7,,,71,100
73828,note_off,,,,,0,0,15,,,,,7,,,74,100
73828,note_off,,,,,0,0,15,,,,,7,,,67,100
73828,note_off,,,,,100,0,11,,,,,4,,,55,100
73828,note_off,,,,,100,0,12,,,,,5,,,43,100
73828,note_off,,,,,100,0,13,,,,,6,,,71,100
73828,note_off,,,,,0,0,13,,,,,6,,,74,100
73828,note_off,,,,,100,0,14,,,,,6,,,55,100
73888,note_off,,,,,64,0,8,,,,,1,,,71,100
73920,note_on,,,,,92,0,11,,,,,4,,,62,96
73920,note_on,,,,,92,0,15,,,,,7,,,67,100
73920,note_on,,,,,0,0,15,,,,,7,,,71,100
73920,note_on,,,,,92,0,9,,,,,2,,,71,96
73920,note_on,,,,,32,0,8,,,,,1,,,72,96
73920,note_on,,,,,92,0,16,,,,,7,,,62,100
73920,note_on,,,,,0,0,13,,,,,6,,,71,100
73920,note_on,,,,,92,0,13,,,,,6,,,67,100
73920,note_on,,,,,92,0,12,,,,,5,,,50,96
73920,note_on,,,,,92,0,14,,,,,6,,,62,100
73920,note_on,,,,,92,0,10,,,,,3,,,67,96
73984,note_off,,,,,64,0,8,,,,,1,,,72,100
74016,note_on,,,,,32,0,8,,,,,1,,,74,97
74020,note_off,,,,,100,0,12,,,,,5,,,50,100
74020,note_off,,,,,0,0,15,,,,,7,,,71,100
74020,note_off,,,,,100,0,9,,,,,2,,,71,100
74020,note_off,,,,,100,0,16,,,,,7,,,62,100
74020,note_off,,,,,100,0,11,,,,,4,,,62,100
74020,note_off,,,,,100,0,10,,,,,3,,,67,100
74020,note_off,,,,,100,0,15,,,,,7,,,67,100
74020,note_off,,,,,0,0,13,,,,,6,,,71,100
74020,note_off,,,,,100,0,14,,,,,6,,,62,100
74020,note_off,,,,,100,0,13,,,,,6,,,67,100
74080,note_off,,,,,64,0,8,,,,,1,,,74,100
74112,note_on,,,,,92,0,15,,,,,7,,,66,100
74112,note_on,,,,,0,0,15,,,,,7,,,69,100
74112,note_on,,,,,0,0,13,,,,,6,,,69,100
74112,note_on,,,,,92,0,9,,,,,2,,,69,98
74112,note_on,,,,,92,0,13,,,,,6,,,66,100
74112,note_on,,,,,92,0,16,,,,,7,,,50,100
74112,note_on,,,,,32,0,8,,,,,1,,,76,98
74112,note_on,,,,,92,0,14,,,,,6,,,50,100
74112,note_on,,,,,92,0,10,,,,,3,,,62,98
74112,note_on,,,,,92,0,12,,,,,5,,,38,98
74112,note_on,,,,,92,0,11,,,,,4,,,50,98
74176,note_off,,,,,64,0,8,,,,,1,,,76,100
74208,note_on,,,,,32,0,8,,,,,1,,,78,99
74212,note_off,,,,,0,0,15,,,,,7,,,69,100
74212,note_off,,,,,100,0,15,,,,,7,,,66,100
74212,note_off,,,,,100,0,12,,,,,5,,,38,100
74212,note_off,,,,,100,0,10,,,,,3,,,62,100
74212,note_off,,,,,100,0,16,,,,,7,,,50,100
74212,note_off,,,,,100,0,14,,,,,6,,,50,100
74212,note_off,,,,,100,0,13,,,,,6,,,66,100
74212,note_off,,,,,0,0,13,,,,,6,,,69,100
74212,note_off,,,,,100,0,11,,,,,4,,,50,100
74212,note_off,,,,,100,0,9,,,,,2,,,69,100
74272,note_off,,,,,64,0,8,,,,,1,,,78,100
74304,note_on,,,,,92,0,11,,,,,4,,,43,99
74304,note_on,,,,,92,0,10,,,,,3,,,59,99
74304,note_on,,,,,32,0,8,,,,,1,,,79,99
74304,note_on,,,,,92,0,12,,,,,5,,,31,99
74304,note_on,,,,,0,0,15,,,,,7,,,67,100
74304,note_on,,,,,0,0,15,,,,,7,,,62,100
74304,note_on,,,,,92,0,15,,,,,7,,,59,100
74304,note_on,,,,,92,0,13,,,,,6,,,59,100
74304,note_on,,,,,0,0,13,,,,,6,,,62,100
74304,note_on,,,,,0,0,13,,,,,6,,,67,100
74304,note_on,,,,,92,0,16,,,,,7,,,43,100
74304,note_on,,,,,92,0,14,,,,,6,,,43,100
74304,note_on,,,,,92,0,9,,,,,2,,,67,99
74368,note_off,,,,,64,0,9,,,,,2,,,67,100
74400,note_on,,,,,32,0,9,,,,,2,,,71,100
74404,note_off,,,,,100,0,10,,,,,3,,,59,100
74404,note_off,,,,,100,0,12,,,,,5,,,31,100
74404,note_off,,,,,100,0,13,,,,,6,,,59,100
74404,note_off,,,,,100,0,8,,,,,1,,,79,100
74404,note_off,,,,,0,0,13,,,,,6,,,62,100
74404,note_off,,,,,0,0,13,,,,,6,,,67,100
74404,note_off,,,,,100,0,11,,,,,4,,,43,100
74404,note_off,,,,,0,0,15,,,,,7,,,67,100
74404,note_off,,,,,0,0,15,,,,,7,,,62,100
74404,note_off,,,,,100,0,15,,,,,7,,,59,100
74404,note_off,,,,,100,0,16,,,,,7,,,43,100
74404,note_off,,,,,100,0,14,,,,,6,,,43,100
74464,note_off,,,,,64,0,9,,,,,2,,,71,100
74496,note_on,,,,,92,0,11,,,,,4,,,50,100
74496,note_on,,,,,92,0,10,,,,,3,,,67,100
74496,note_on,,,,,32,0,9,,,,,2,,,72,100
74496,note_on,,,,,0,0,13,,,,,6,,,71,100
74496,note_on,,,,,92,0,13,,,,,6,,,67,100
74496,note_on,,,,,0,0,15,,,,,7,,,71,100
74496,note_on,,,,,92,0,12,,,,,5,,,38,100
74496,note_on,,,,,92,0,8,,,,,1,,,71,100
74496,note_on,,,,,92,0,16,,,,,7,,,50,100
74496,note_on,,,,,92,0,15,,,,,7,,,67,100
74496,note_on,,,,,92,0,14,,,,,6,,,50,100
74560,note_off,,,,,64,0,9,,,,,2,,,72,100
74592,note_on,,,,,32,0,9,,,,,2,,,74,100
74596,note_off,,,,,100,0,10,,,,,3,,,67,100
74596,note_off,,,,,100,0,8,,,,,1,,,71,100
74596,note_off,,,,,0,0,13,,,,,6,,,71,100
74596,note_off,,,,,100,0,11,,,,,4,,,50,100
74596,note_off,,,,,100,0,14,,,,,6,,,50,100
74596,note_off,,,,,100,0,13,,,,,6,,,67,100
74596,note_off,,,,,100,0,12,,,,,5,,,38,100
74596,note_off,,,,,100,0,16,,,,,7,,,50,100
74596,note_off,,,,,100,0,15,,,,,7,,,67,100
74596,note_off,,,,,0,0,15,,,,,7,,,71,100
74656,note_off,,,,,64,0,9,,,,,2,,,74,100
74688,note_on,,,,,92,0,10,,,,,3,,,62,100
74688,note_on,,,,,92,0,16,,,,,7,,,38,100
74688,note_on,,,,,92,0,14,,,,,6,,,38,100
74688,note_on,,,,,92,0,15,,,,,7,,,66,100
74688,note_on,,,,,0,0,15,,,,,7,,,69,100
74688,note_on,,,,,92,0,12,,,,,5,,,38,100
74688,note_on,,,,,92,0,8,,,,,1,,,69,100
74688,note_on,,,,,0,0,13,,,,,6,,,69,100
74688,note_on,,,,,32,0,9,,,,,2,,,76,100
74688,note_on,,,,,92,0,13,,,,,6,,,66,100
74688,note_on,,,,,92,0,11,,,,,4,,,38,100
74752,note_off,,,,,64,0,9,,,,,2,,,76,100
74784,note_on,,,,,32,0,9,,,,,2,,,78,100
74788,note_off,,,,,100,0,13,,,,,6,,,66,100
74788,note_off,,,,,100,0,15,,,,,7,,,66,100
74788,note_off,,,,,0,0,15,,,,,7,,,69,100
74788,note_off,,,,,100,0,12,,,,,5,,,38,100
74788,note_off,,,,,100,0,14,,,,,6,,,38,100
74788,note_off,,,,,100,0,16,,,,,7,,,38,100
74788,note_off,,,,,100,0,8,,,,,1,,,69,100
74788,note_off,,,,,100,0,10,,,,,3,,,62,100
74788,note_off,,,,,0,0,13,,,,,6,,,69,100
74788,note_off,,,,,100,0,11,,,,,4,,,38,100
74848,note_off,,,,,64,0,9,,,,,2,,,78,100
74880,note_on,,,,,92,0,11,,,,,4,,,55,100
74880,note_on,,,,,92,0,10,,,,,3,,,59,100
74880,note_on,,,,,92,0,16,,,,,7,,,55,100
74880,note_on,,,,,0,0,13,,,,,6,,,67,100
74880,note_on,,,,,92,0,13,,,,,6,,,71,100
74880,note_on,,,,,0,0,13,,,,,6,,,74,100
74880,note_on,,,,,92,0,12,,,,,5,,,43,100
74880,note_on,,,,,92,0,15,,,,,7,,,71,100
74880,note_on,,,,,0,0,15,,,,,7,,,74,100
74880,note_on,,,,,0,0,15,,,,,7,,,67,100
74880,note_on,,,,,92,0,8,,,,,1,,,67,100
74880,note_on,,,,,32,0,9,,,,,2,,,79,100
74880,note_on,,,,,92,0,14,,,,,6,,,55,100
74944,note_off,,,,,64,0,8,,,,,1,,,67,100
74976,note_on,,,,,32,0,8,,,,,1,,,71,100
74980,note_off,,,,,100,0,13,,,,,6,,,71,100
74980,note_off,,,,,0,0,13,,,,,6,,,74,100
74980,note_off,,,,,100,0,16,,,,,7,,,55,100
74980,note_off,,,,,100,0,10,,,,,3,,,59,100
74980,note_off,,,,,100,0,14,,,,,6,,,55,100
74980,note_off,,,,,0,0,15,,,,,7,,,67,100
74980,note_off,,,,,0,0,15,,,,,7,,,74,100
74980,note_off,,,,,100,0,11,,,,,4,,,55,100
74980,note_off,,,,,100,0,9,,,,,2,,,79,100
74980,note_off,,,,,100,0,12,,,,,5,,,43,100
74980,note_off,,,,,0,0,13,,,,,6,,,67,100
74980,note_off,,,,,100,0,15,,,,,7,,,71,100
75040,note_off,,,,,64,0,8,,,,,1,,,71,100
75072,note_on,,,,,0,0,15,,,,,7,,,71,100
75072,note_on,,,,,92,0,14,,,,,6,,,62,100
75072,note_on,,,,,92,0,16,,,,,7,,,62,100
75072,note_on,,,,,92,0,11,,,,,4,,,62,99
75072,note_on,,,,,92,0,9,,,,,2,,,71,99
75072,note_on,,,,,92,0,12,,,,,5,,,50,99
75072,note_on,,,,,92,0,15,,,,,7,,,67,100
75072,note_on,,,,,0,0,13,,,,,6,,,71,100
75072,note_on,,,,,92,0,13,,,,,6,,,67,100
75072,note_on,,,,,92,0,10,,,,,3,,,67,99
75072,note_on,,,,,32,0,8,,,,,1,,,72,99
75136,note_off,,,,,64,0,8,,,,,1,,,72,100
75168,note_on,,,,,32,0,8,,,,,1,,,74,99
75172,note_off,,,,,100,0,16,,,,,7,,,62,100
75172,note_off,,,,,100,0,11,,,,,4,,,62,100
75172,note_off,,,,,100,0,9,,,,,2,,,71,100
75172,note_off,,,,,100,0,15,,,,,7,,,67,100
75172,note_off,,,,,0,0,15,,,,,7,,,71,100
75172,note_off,,,,,100,0,14,,,,,6,,,62,100
75172,note_off,,,,,100,0,12,,,,,5,,,50,100
75172,note_off,,,,,100,0,13,,,,,6,,,67,100
75172,note_off,,,,,100,0,10,,,,,3,,,67,100
75172,note_off,,,,,0,0,13,,,,,6,,,71,100
75232,note_off,,,,,64,0,8,,,,,1,,,74,100
75264,note_on,,,,,92,0,10,,,,,3,,,62,98
75264,note_on,,,,,92,0,11,,,,,4,,,50,98
75264,note_on,,,,,92,0,13,,,,,6,,,66,100
75264,note_on,,,,,92,0,12,,,,,5,,,38,98
75264,note_on,,,,,32,0,8,,,,,1,,,76,98
75264,note_on,,,,,92,0,9,,,,,2,,,69,98
75264,note_on,,,,,92,0,15,,,,,7,,,66,100
75264,note_on,,,,,0,0,15,,,,,7,,,69,100
75264,note_on,,,,,0,0,13,,,,,6,,,69,100
75264,note_on,,,,,92,0,16,,,,,7,,,50,100
75264,note_on,,,,,92,0,14,,,,,6,,,50,100
75328,note_off,,,,,64,0,8,,,,,1,,,76,100
75360,note_on,,,,,32,0,8,,,,,1,,,78,97
75364,note_off,,,,,100,0,11,,,,,4,,,50,100
75364,note_off,,,,,100,0,12,,,,,5,,,38,100
75364,note_off,,,,,100,0,9,,,,,2,,,69,100
75364,note_off,,,,,100,0,14,,,,,6,,,50,100
75364,note_off,,,,,100,0,15,,,,,7,,,66,100
75364,note_off,,,,,0,0,15,,,,,7,,,69,100
75364,note_off,,,,,100,0,13,,,,,6,,,66,100
75364,note_off,,,,,0,0,13,,,,,6,,,69,100
75364,note_off,,,,,100,0,16,,,,,7,,,50,100
75364,note_off,,,,,100,0,10,,,,,3,,,62,100
75424,note_off,,,,,64,0,8,,,,,1,,,78,100
75456,note_on,,,,,92,0,16,,,,,7,,,43,100
75456,note_on,,,,,92,0,9,,,,,2,,,67,97
75456,note_on,,,,,92,0,11,,,,,4,,,43,97
75456,note_on,,,,,92,0,12,,,,,5,,,31,97
75456,note_on,,,,,0,0,13,,,,,6,,,62,100
75456,note_on,,,,,92,0,10,,,,,3,,,59,97
75456,note_on,,,,,0,0,13,,,,,6,,,67,100
75456,note_on,,,,,0,0,15,,,,,7,,,67,100
75456,note_on,,,,,92,0,14,,,,,6,,,43,100
75456,note_on,,,,,0,0,15,,,,,7,,,62,100
75456,note_on,,,,,32,0,8,,,,,1,,,79,97
75456,note_on,,,,,92,0,13,,,,,6,,,59,100
75456,note_on,,,,,92,0,15,,,,,7,,,59,100
75520,note_off,,,,,64,0,9,,,,,2,,,67,100
75552,note_on,,,,,32,0,9,,,,,2,,,71,96
75556,note_off,,,,,0,0,15,,,,,7,,,67,100
75556,note_off,,,,,100,0,12,,,,,5,,,31,100
75556,note_off,,,,,0,0,15,,,,,7,,,62,100
75556,note_off,,,,,100,0,16,,,,,7,,,43,100
75556,note_off,,,,,100,0,15,,,,,7,,,59,100
75556,note_off,,,,,0,0,13,,,,,6,,,62,100
75556,note_off,,,,,100,0,13,,,,,6,,,59,100
75556,note_off,,,,,100,0,8,,,,,1,,,79,100
75556,note_off,,,,,100,0,14,,,,,6,,,43,100
75556,note_off,,,,,100,0,11,,,,,4,,,43,100
75556,note_off,,,,,100,0,10,,,,,3,,,59,100
75556,note_off,,,,,0,0,13,,,,,6,,,67,100
75616,note_off,,,,,64,0,9,,,,,2,,,71,100
75648,note_on,,,,,32,0,9,,,,,2,,,72,95
75648,note_on,,,,,92,0,14,,,,,6,,,50,100
75648,note_on,,,,,92,0,16,,,,,7,,,50,100
75648,note_on,,,,,0,0,13,,,,,6,,,71,100
75648,note_on,,,,,92,0,13,,,,,6,,,67,100
75648,note_on,,,,,92,0,10,,,,,3,,,67,95
75648,note_on,,,,,92,0,12,,,,,5,,,38,95
75648,note_on,,,,,92,0,15,,,,,7,,,67,100
75648,note_on,,,,,92,0,11,,,,,4,,,50,95
75648,note_on,,,,,92,0,8,,,,,1,,,71,95
75648,note_on,,,,,0,0,15,,,,,7,,,71,100
75712,note_off,,,,,64,0,9,,,,,2,,,72,100
75744,note_on,,,,,32,0,9,,,,,2,,,74,95
75748,note_off,,,,,100,0,15,,,,,7,,,67,100
75748,note_off,,,,,100,0,14,,,,,6,,,50,100
75748,note_off,,,,,100,0,13,,,,,6,,,67,100
75748,note_off,,,,,100,0,11,,,,,4,,,50,100
75748,note_off,,,,,100,0,12,,,,,5,,,38,100
75748,note_off,,,,,0,0,13,,,,,6,,,71,100
75748,note_off,,,,,100,0,8,,,,,1,,,71,100
75748,note_off,,,,,100,0,16,,,,,7,,,50,100
75748,note_off,,,,,0,0,15,,,,,7,,,71,100
75748,note_off,,,,,100,0,10,,,,,3,,,67,100
75808,note_off,,,,,64,0,9,,,,,2,,,74,100
75840,note_on,,,,,0,0,13,,,,,6,,,69,100
75840,note_on,,,,,92,0,14,,,,,6,,,38,100
75840,note_on,,,,,92,0,16,,,,,7,,,38,100
75840,note_on,,,,,92,0,12,,,,,5,,,38,94
75840,note_on,,,,,92,0,11,,,,,4,,,38,94
75840,note_on,,,,,92,0,10,,,,,3,,,62,94
75840,note_on,,,,,92,0,15,,,,,7,,,66,100
75840,note_on,,,,,0,0,15,,,,,7,,,69,100
75840,note_on,,,,,92,0,13,,,,,6,,,66,100
75840,note_on,,,,,92,0,8,,,,,1,,,69,94
75840,note_on,,,,,32,0,9,,,,,2,,,76,94
75904,note_off,,,,,64,0,9,,,,,2,,,76,100
75936,note_on,,,,,32,0,9,,,,,2,,,78,93
75940,note_off,,,,,100,0,13,,,,,6,,,66,100
75940,note_off,,,,,100,0,8,,,,,1,,,69,100
75940,note_off,,,,,0,0,13,,,,,6,,,69,100
75940,note_off,,,,,100,0,12,,,,,5,,,38,100
75940,note_off,,,,,100,0,11,,,,,4,,,38,100
75940,note_off,,,,,100,0,16,,,,,7,,,38,100
75940,note_off,,,,,100,0,10,,,,,3,,,62,100
75940,note_off,,,,,100,0,15,,,,,7,,,66,100
75940,note_off,,,,,0,0,15,,,,,7,,,69,100
75940,note_off,,,,,100,0,14,,,,,6,,,38,100
76000,note_off,,,,,64,0,9,,,,,2,,,78,100
76032,note_on,,,,,92,0,13,,,,,6,,,59,100
76032,note_on,,,,,92,0,16,,,,,7,,,43,100
76032,note_on,,,,,92,0,8,,,,,1,,,67,93
76032,note_on,,,,,92,0,11,,,,,4,,,43,93
76032,note_on,,,,,0,0,15,,,,,7,,,67,100
76032,note_on,,,,,0,0,13,,,,,6,,,62,100
76032,note_on,,,,,92,0,14,,,,,6,,,43,100
76032,note_on,,,,,92,0,10,,,,,3,,,59,93
76032,note_on,,,,,32,0,9,,,,,2,,,79,93
76032,note_on,,,,,92,0,15,,,,,7,,,59,100
76032,note_on,,,,,0,0,15,,,,,7,,,62,100
76032,note_on,,,,,92,0,12,,,,,5,,,31,93
76032,note_on,,,,,0,0,13,,,,,6,,,67,100
76416,note_off,,,,,384,0,16,,,,,7,,,43,100
76416,note_off,,,,,384,0,8,,,,,1,,,67,100
76416,note_off,,,,,384,0,9,,,,,2,,,79,100
76416,note_off,,,,,0,0,13,,,,,6,,,62,100
76416,note_off,,,,,0,0,13,,,,,6,,,67,100
76416,set_tempo,,,,,42240,1,0,,701754,,,,,,,
76416,note_off,,,,,384,0,15,,,,,7,,,59,100
76416,note_off,,,,,0,0,15,,,,,7,,,62,100
76416,note_off,,,,,384,0,11,,,,,4,,,43,100
76416,note_off,,,,,384,0,14,,,,,6,,,43,100
76416,note_off,,,,,384,0,10,,,,,3,,,59,100
76416,note_off,,,,,0,0,15,,,,,7,,,67,100
76416,note_off,,,,,384,0,13,,,,,6,,,59,100
76416,note_off,,,,,384,0,12,,,,,5,,,31,100
76608,set_tempo,,,,,192,1,0,,526315,,,,,,,
76608,note_on,,,,,192,0,11,,,,,4,,,50,100
76608,note_on,,,,,192,0,14,,,,,6,,,50,100
76608,note_on,,,,,192,0,10,,,,,3,,,66,100
76608,note_on,,,,,0,0,15,,,,,7,,,74,100
76608,note_on,,,,,192,0,15,,,,,7,,,66,100
76608,note_on,,,,,0,0,15,,,,,7,,,69,100
76608,note_on,,,,,192,0,16,,,,,7,,,50,100
76608,note_on,,,,,192,0,13,,,,,6,,,66,100
76608,note_on,,,,,0,0,13,,,,,6,,,69,100
76608,note_on,,,,,0,0,13,,,,,6,,,74,100
76608,note_on,,,,,192,0,8,,,,,1,,,74,100
76608,note_on,,,,,192,0,12,,,,,5,,,38,100
76708,note_off,,,,,100,0,10,,,,,3,,,66,100
76708,note_off,,,,,0,0,15,,,,,7,,,69,100
76708,note_off,,,,,0,0,15,,,,,7,,,74,100
76708,note_off,,,,,100,0,14,,,,,6,,,50,100
76708,note_off,,,,,100,0,11,,,,,4,,,50,100
76708,note_off,,,,,0,0,13,,,,,6,,,74,100
76708,note_off,,,,,0,0,13,,,,,6,,,69,100
76708,note_off,,,,,100,0,12,,,,,5,,,38,100
76708,note_off,,,,,100,0,15,,,,,7,,,66,100
76708,note_off,,,,,100,0,8,,,,,1,,,74,100
76708,note_off,,,,,100,0,13,,,,,6,,,66,100
76708,note_off,,,,,100,0,16,,,,,7,,,50,100
76800,note_on,,,,,0,0,13,,,,,6,,,66,100
76800,note_on,,,,,0,0,15,,,,,7,,,66,100
76800,note_on,,,,,92,0,16,,,,,7,,,57,100
76800,note_on,,,,,92,0,12,,,,,5,,,45,100
76800,note_on,,,,,92,0,14,,,,,6,,,57,100
76800,note_on,,,,,92,0,8,,,,,1,,,66,100
76800,note_on,,,,,92,0,11,,,,,4,,,57,100
76800,note_on,,,,,92,0,13,,,,,6,,,62,100
76800,note_on,,,,,92,0,15,,,,,7,,,62,100
76800,note_on,,,,,92,0,10,,,,,3,,,62,100
76900,note_off,,,,,100,0,14,,,,,6,,,57,100
76900,note_off,,,,,100,0,11,,,,,4,,,57,100
76900,note_off,,,,,100,0,13,,,,,6,,,62,100
76900,note_off,,,,,0,0,13,,,,,6,,,66,100
76900,note_off,,,,,0,0,15,,,,,7,,,66,100
76900,note_off,,,,,100,0,8,,,,,1,,,66,100
76900,note_off,,,,,100,0,16,,,,,7,,,57,100
76900,note_off,,,,,100,0,12,,,,,5,,,45,100
76900,note_off,,,,,100,0,10,,,,,3,,,62,100
76900,note_off,,,,,100,0,15,,,,,7,,,62,100
76992,note_on,,,,,92,0,11,,,,,4,,,45,100
76992,note_on,,,,,92,0,15,,,,,7,,,61,100
76992,note_on,,,,,0,0,13,,,,,6,,,64,100
76992,note_on,,,,,92,0,14,,,,,6,,,45,100
76992,note_on,,,,,0,0,15,,,,,7,,,64,100
76992,note_on,,,,,92,0,10,,,,,3,,,61,100
76992,note_on,,,,,92,0,16,,,,,7,,,45,100
76992,note_on,,,,,92,0,8,,,,,1,,,64,100
76992,note_on,,,,,92,0,12,,,,,5,,,33,100
76992,note_on,,,,,92,0,13,,,,,6,,,61,100
77092,note_off,,,,,100,0,16,,,,,7,,,45,100
77092,note_off,,,,,100,0,15,,,,,7,,,61,100
77092,note_off,,,,,100,0,12,,,,,5,,,33,100
77092,note_off,,,,,0,0,13,,,,,6,,,64,100
77092,note_off,,,,,100,0,13,,,,,6,,,61,100
77092,note_off,,,,,100,0,11,,,,,4,,,45,100
77092,note_off,,,,,100,0,8,,,,,1,,,64,100
77092,note_off,,,,,100,0,14,,,,,6,,,45,100
77092,note_off,,,,,100,0,10,,,,,3,,,61,100
77092,note_off,,,,,0,0,15,,,,,7,,,64,100
77184,note_on,,,,,0,0,13,,,,,6,,,74,100
77184,note_on,,,,,0,0,13,,,,,6,,,69,100
77184,note_on,,,,,92,0,13,,,,,6,,,66,100
77184,note_on,,,,,92,0,8,,,,,1,,,62,100
77184,note_on,,,,,768,0,9,,,,,2,,,74,100
77184,note_on,,,,,92,0,11,,,,,4,,,50,100
77184,note_on,,,,,92,0,12,,,,,5,,,38,100
77184,note_on,,,,,92,0,16,,,,,7,,,50,100
77184,note_on,,,,,92,0,14,,,,,6,,,50,100
77184,note_on,,,,,92,0,15,,,,,7,,,66,100
77184,note_on,,,,,0,0,15,,,,,7,,,69,100
77184,note_on,,,,,0,0,15,,,,,7,,,74,100
77184,note_on,,,,,92,0,10,,,,,3,,,57,100
77248,note_off,,,,,64,0,8,,,,,1,,,62,100
77280,note_on,,,,,32,0,8,,,,,1,,,66,100
77284,note_off,,,,,100,0,11,,,,,4,,,50,100
77284,note_off,,,,,100,0,16,,,,,7,,,50,100
77284,note_off,,,,,100,0,15,,,,,7,,,66,100
77284,note_off,,,,,0,0,15,,,,,7,,,69,100
77284,note_off,,,,,0,0,15,,,,,7,,,74,100
77284,note_off,,,,,100,0,9,,,,,2,,,74,100
77284,note_off,,,,,100,0,10,,,,,3,,,57,100
77284,note_off,,,,,0,0,13,,,,,6,,,74,100
77284,note_off,,,,,0,0,13,,,,,6,,,69,100
77284,note_off,,,,,100,0,13,,,,,6,,,66,100
77284,note_off,,,,,100,0,14,,,,,6,,,50,100
77284,note_off,,,,,100,0,12,,,,,5,,,38,100
77344,note_off,,,,,64,0,8,,,,,1,,,66,100
77376,note_on,,,,,92,0,9,,,,,2,,,66,100
77376,note_on,,,,,0,0,13,,,,,6,,,66,100
77376,note_on,,,,,92,0,13,,,,,6,,,62,100
77376,note_on,,,,,32,0,8,,,,,1,,,67,100
77376,note_on,,,,,92,0,14,,,,,6,,,57,100
77376,note_on,,,,,92,0,12,,,,,5,,,45,100
77376,note_on,,,,,92,0,16,,,,,7,,,57,100
77376,note_on,,,,,92,0,10,,,,,3,,,62,100
77376,note_on,,,,,0,0,15,,,,,7,,,66,100
77376,note_on,,,,,92,0,11,,,,,4,,,57,100
77376,note_on,,,,,92,0,15,,,,,7,,,62,100
77440,note_off,,,,,64,0,8,,,,,1,,,67,100
77472,note_on,,,,,32,0,8,,,,,1,,,69,100
77476,note_off,,,,,100,0,10,,,,,3,,,62,100
77476,note_off,,,,,0,0,15,,,,,7,,,66,100
77476,note_off,,,,,100,0,16,,,,,7,,,57,100
77476,note_off,,,,,0,0,13,,,,,6,,,66,100
77476,note_off,,,,,100,0,13,,,,,6,,,62,100
77476,note_off,,,,,100,0,14,,,,,6,,,57,100
77476,note_off,,,,,100,0,12,,,,,5,,,45,100
77476,note_off,,,,,100,0,11,,,,,4,,,57,100
77476,note_off,,,,,100,0,15,,,,,7,,,62,100
77476,note_off,,,,,100,0,9,,,,,2,,,66,100
77536,note_off,,,,,64,0,8,,,,,1,,,69,100
77568,note_on,,,,,32,0,8,,,,,1,,,71,100
77568,note_on,,,,,92,0,9,,,,,2,,,64,100
77568,note_on,,,,,92,0,10,,,,,3,,,57,100
77568,note_on,,,,,92,0,16,,,,,7,,,45,100
77568,note_on,,,,,92,0,13,,,,,6,,,61,100
77568,note_on,,,,,92,0,14,,,,,6,,,45,100
77568,note_on,,,,,92,0,11,,,,,4,,,45,100
77568,note_on,,,,,92,0,12,,,,,5,,,33,100
77568,note_on,,,,,0,0,13,,,,,6,,,64,100
77568,note_on,,,,,0,0,15,,,,,7,,,64,100
77568,note_on,,,,,92,0,15,,,,,7,,,61,100
77632,note_off,,,,,64,0,8,,,,,1,,,71,100
77664,note_on,,,,,32,0,8,,,,,1,,,73,100
77668,note_off,,,,,100,0,14,,,,,6,,,45,100
77668,note_off,,,,,100,0,16,,,,,7,,,45,100
77668,note_off,,,,,100,0,13,,,,,6,,,61,100
77668,note_off,,,,,100,0,9,,,,,2,,,64,100
77668,note_off,,,,,100,0,15,,,,,7,,,61,100
77668,note_off,,,,,0,0,15,,,,,7,,,64,100
77668,note_off,,,,,100,0,11,,,,,4,,,45,100
77668,note_off,,,,,0,0,13,,,,,6,,,64,100
77668,note_off,,,,,100,0,12,,,,,5,,,33,100
77668,note_off,,,,,100,0,10,,,,,3,,,57,100
77728,note_off,,,,,64,0,8,,,,,1,,,73,100
77760,note_on,,,,,92,0,13,,,,,6,,,69,100
77760,note_on,,,,,0,0,13,,,,,6,,,66,100
77760,note_on,,,,,92,0,10,,,,,3,,,54,100
77760,note_on,,,,,92,0,12,,,,,5,,,38,100
77760,note_on,,,,,92,0,15,,,,,7,,,69,100
77760,note_on,,,,,92,0,9,,,,,2,,,62,100
77760,note_on,,,,,32,0,8,,,,,1,,,74,100
77760,note_on,,,,,92,0,16,,,,,7,,,50,100
77760,note_on,,,,,0,0,15,,,,,7,,,66,100
77760,note_on,,,,,0,0,13,,,,,6,,,62,100
77760,note_on,,,,,92,0,14,,,,,6,,,50,100
77760,note_on,,,,,0,0,15,,,,,7,,,62,100
77760,note_on,,,,,92,0,11,,,,,4,,,50,100
77824,note_off,,,,,64,0,8,,,,,1,,,74,100
77856,note_on,,,,,32,0,8,,,,,1,,,69,100
77860,note_off,,,,,100,0,9,,,,,2,,,62,100
77920,note_off,,,,,64,0,8,,,,,1,,,69,100
77952,note_off,,,,,192,0,10,,,,,3,,,54,100
77952,note_on,,,,,92,0,9,,,,,2,,,81,100
77952,note_on,,,,,32,0,8,,,,,1,,,74,100
78016,note_off,,,,,0,0,15,,,,,7,,,66,100
78016,note_off,,,,,256,0,15,,,,,7,,,69,100
78016,note_off,,,,,0,0,15,,,,,7,,,62,100
78016,note_off,,,,,256,0,14,,,,,6,,,50,100
78016,note_off,,,,,256,0,16,,,,,7,,,50,100
78016,note_off,,,,,0,0,13,,,,,6,,,62,100
78016,note_off,,,,,0,0,13,,,,,6,,,66,100
78016,note_off,,,,,256,0,13,,,,,6,,,69,100
78016,note_off,,,,,256,0,12,,,,,5,,,38,100
78016,note_off,,,,,256,0,11,,,,,4,,,50,100
78016,note_off,,,,,64,0,8,,,,,1,,,74,100
78048,note_on,,,,,32,0,8,,,,,1,,,78,100
78048,note_on,,,,,96,0,10,,,,,3,,,62,100
78052,note_off,,,,,100,0,9,,,,,2,,,81,100
78112,note_off,,,,,64,0,8,,,,,1,,,78,100
78112,note_off,,,,,64,0,10,,,,,3,,,62,100
78144,note_on,,,,,32,0,8,,,,,1,,,79,100
78144,note_on,,,,,32,0,10,,,,,3,,,64,100
78144,note_on,,,,,92,0,9,,,,,2,,,69,100
78208,note_off,,,,,64,0,8,,,,,1,,,79,100
78208,note_off,,,,,64,0,10,,,,,3,,,64,100
78240,note_on,,,,,32,0,10,,,,,3,,,62,100
78240,note_on,,,,,32,0,8,,,,,1,,,78,100
78244,note_off,,,,,100,0,9,,,,,2,,,69,100
78304,note_off,,,,,64,0,10,,,,,3,,,62,100
78304,note_off,,,,,64,0,8,,,,,1,,,78,100
78336,note_on,,,,,32,0,8,,,,,1,,,76,100
78336,note_on,,,,,320,0,15,,,,,7,,,69,100
78336,note_on,,,,,0,0,15,,,,,7,,,61,100
78336,note_on,,,,,0,0,15,,,,,7,,,64,100
78336,note_on,,,,,320,0,11,,,,,4,,,45,100
78336,note_on,,,,,320,0,13,,,,,6,,,69,100
78336,note_on,,,,,0,0,13,,,,,6,,,61,100
78336,note_on,,,,,0,0,13,,,,,6,,,64,100
78336,note_on,,,,,320,0,12,,,,,5,,,33,100
78336,note_on,,,,,32,0,10,,,,,3,,,61,100
78336,note_on,,,,,92,0,9,,,,,2,,,69,100
78336,note_on,,,,,320,0,16,,,,,7,,,45,100
78336,note_on,,,,,320,0,14,,,,,6,,,45,100
78400,note_off,,,,,64,0,8,,,,,1,,,76,100
78432,note_on,,,,,32,0,8,,,,,1,,,69,100
78436,note_off,,,,,100,0,9,,,,,2,,,69,100
78496,note_off,,,,,64,0,8,,,,,1,,,69,100
78528,note_off,,,,,192,0,10,,,,,3,,,61,100
78528,note_on,,,,,32,0,8,,,,,1,,,73,100
78528,note_on,,,,,92,0,9,,,,,2,,,81,100
78592,note_off,,,,,0,0,15,,,,,7,,,64,100
78592,note_off,,,,,256,0,11,,,,,4,,,45,100
78592,note_off,,,,,256,0,14,,,,,6,,,45,100
78592,note_off,,,,,256,0,15,,,,,7,,,69,100
78592,note_off,,,,,0,0,15,,,,,7,,,61,100
78592,note_off,,,,,256,0,13,,,,,6,,,69,100
78592,note_off,,,,,256,0,12,,,,,5,,,33,100
78592,note_off,,,,,64,0,8,,,,,1,,,73,100
78592,note_off,,,,,0,0,13,,,,,6,,,61,100
78592,note_off,,,,,0,0,13,,,,,6,,,64,100
78592,note_off,,,,,256,0,16,,,,,7,,,45,100
78624,note_on,,,,,32,0,8,,,,,1,,,76,100
78624,note_on,,,,,96,0,10,,,,,3,,,61,100
78628,note_off,,,,,100,0,9,,,,,2,,,81,100
78688,note_off,,,,,64,0,10,,,,,3,,,61,100
78688,note_off,,,,,64,0,8,,,,,1,,,76,100
78720,note_on,,,,,32,0,8,,,,,1,,,81,100
78720,note_on,,,,,92,0,9,,,,,2,,,69,100
78720,note_on,,,,,32,0,10,,,,,3,,,64,100
78784,note_off,,,,,64,0,10,,,,,3,,,64,100
78784,note_off,,,,,64,0,8,,,,,1,,,81,100
78816,note_on,,,,,32,0,10,,,,,3,,,61,93
78816,note_on,,,,,32,0,8,,,,,1,,,79,93
78820,note_off,,,,,100,0,9,,,,,2,,,69,100
78880,note_off,,,,,64,0,10,,,,,3,,,61,100
78880,note_off,,,,,64,0,8,,,,,1,,,79,100
78912,note_on,,,,,0,0,15,,,,,7,,,66,100
78912,note_on,,,,,32,0,10,,,,,3,,,62,86
78912,note_on,,,,,0,0,15,,,,,7,,,62,100
78912,note_on,,,,,320,0,12,,,,,5,,,38,86
78912,note_on,,,,,92,0,9,,,,,2,,,69,86
78912,note_on,,,,,320,0,15,,,,,7,,,69,100
78912,note_on,,,,,0,0,13,,,,,6,,,66,100
78912,note_on,,,,,320,0,14,,,,,6,,,50,100
78912,note_on,,,,,0,0,13,,,,,6,,,62,100
78912,note_on,,,,,32,0,8,,,,,1,,,78,86
78912,note_on,,,,,320,0,16,,,,,7,,,50,100
78912,note_on,,,,,320,0,13,,,,,6,,,69,100
78912,note_on,,,,,320,0,11,,,,,4,,,50,86
78976,note_off,,,,,64,0,8,,,,,1,,,78,100
79008,note_on,,,,,32,0,8,,,,,1,,,69,85
79012,note_off,,,,,100,0,9,,,,,2,,,69,100
79072,note_off,,,,,64,0,8,,,,,1,,,69,100
79104,note_off,,,,,192,0,10,,,,,3,,,62,100
79104,note_on,,,,,92,0,9,,,,,2,,,81,85
79104,note_on,,,,,32,0,8,,,,,1,,,74,85
79168,note_off,,,,,0,0,15,,,,,7,,,62,100
79168,note_off,,,,,0,0,13,,,,,6,,,62,100
79168,note_off,,,,,256,0,15,,,,,7,,,69,100
79168,note_off,,,,,0,0,13,,,,,6,,,66,100
79168,note_off,,,,,256,0,14,,,,,6,,,50,100
79168,note_off,,,,,0,0,15,,,,,7,,,66,100
79168,note_off,,,,,256,0,11,,,,,4,,,50,100
79168,note_off,,,,,256,0,13,,,,,6,,,69,100
79168,note_off,,,,,256,0,12,,,,,5,,,38,100
79168,note_off,,,,,64,0,8,,,,,1,,,74,100
79168,note_off,,,,,256,0,16,,,,,7,,,50,100
79200,note_on,,,,,32,0,8,,,,,1,,,78,85
79200,note_on,,,,,96,0,10,,,,,3,,,62,85
79204,note_off,,,,,100,0,9,,,,,2,,,81,100
79264,note_off,,,,,64,0,8,,,,,1,,,78,100
79264,note_off,,,,,64,0,10,,,,,3,,,62,100
79296,note_on,,,,,92,0,9,,,,,2,,,69,85
79296,note_on,,,,,32,0,10,,,,,3,,,64,85
79296,note_on,,,,,32,0,8,,,,,1,,,79,85
79360,note_off,,,,,64,0,10,,,,,3,,,64,100
79360,note_off,,,,,64,0,8,,,,,1,,,79,100
79392,note_on,,,,,32,0,10,,,,,3,,,62,85
79392,note_on,,,,,32,0,8,,,,,1,,,78,85
79396,note_off,,,,,100,0,9,,,,,2,,,69,100
79456,note_off,,,,,64,0,8,,,,,1,,,78,100
79456,note_off,,,,,64,0,10,,,,,3,,,62,100
79488,note_on,,,,,320,0,14,,,,,6,,,45,100
79488,note_on,,,,,32,0,10,,,,,3,,,61,85
79488,note_on,,,,,0,0,13,,,,,6,,,64,100
79488,note_on,,,,,0,0,13,,,,,6,,,61,100
79488,note_on,,,,,320,0,16,,,,,7,,,45,100
79488,note_on,,,,,320,0,11,,,,,4,,,45,85
79488,note_on,,,,,32,0,8,,,,,1,,,76,85
79488,note_on,,,,,320,0,15,,,,,7,,,69,100
79488,note_on,,,,,0,0,15,,,,,7,,,61,100
79488,note_on,,,,,320,0,12,,,,,5,,,33,85
79488,note_on,,,,,0,0,15,,,,,7,,,64,100
79488,note_on,,,,,320,0,13,,,,,6,,,69,100
79488,note_on,,,,,92,0,9,,,,,2,,,69,85
79552,note_off,,,,,64,0,8,,,,,1,,,76,100
79584,note_on,,,,,32,0,8,,,,,1,,,69,85
79588,note_off,,,,,100,0,9,,,,,2,,,69,100
79648,note_off,,,,,64,0,8,,,,,1,,,69,100
79680,note_on,,,,,92,0,9,,,,,2,,,81,85
79680,note_on,,,,,32,0,8,,,,,1,,,73,85
79680,note_off,,,,,192,0,10,,,,,3,,,61,100
79744,note_off,,,,,256,0,16,,,,,7,,,45,100
79744,note_off,,,,,256,0,15,,,,,7,,,69,100
79744,note_off,,,,,0,0,13,,,,,6,,,64,100
79744,note_off,,,,,256,0,12,,,,,5,,,33,100
79744,note_off,,,,,0,0,15,,,,,7,,,64,100
79744,note_off,,,,,256,0,14,,,,,6,,,45,100
79744,note_off,,,,,256,0,13,,,,,6,,,69,100
79744,note_off,,,,,0,0,13,,,,,6,,,61,100
79744,note_off,,,,,0,0,15,,,,,7,,,61,100
79744,note_off,,,,,256,0,11,,,,,4,,,45,100
79744,note_off,,,,,64,0,8,,,,,1,,,73,100
79776,note_on,,,,,96,0,10,,,,,3,,,61,85
79776,note_on,,,,,32,0,8,,,,,1,,,76,85
79780,note_off,,,,,100,0,9,,,,,2,,,81,100
79840,note_off,,,,,64,0,8,,,,,1,,,76,100
79840,note_off,,,,,64,0,10,,,,,3,,,61,100
79872,note_on,,,,,92,0,9,,,,,2,,,69,85
79872,note_on,,,,,32,0,10,,,,,3,,,64,85
79872,note_on,,,,,32,0,8,,,,,1,,,81,85
79936,note_off,,,,,64,0,10,,,,,3,,,64,100
79936,note_off,,,,,64,0,8,,,,,1,,,81,100
79968,note_on,,,,,32,0,8,,,,,1,,,79,89
79968,note_on,,,,,32,0,10,,,,,3,,,61,89
79972,note_off,,,,,100,0,9,,,,,2,,,69,100
80032,note_off,,,,,64,0,8,,,,,1,,,79,100
80032,note_off,,,,,64,0,10,,,,,3,,,61,100
80064,note_on,,,,,0,0,15,,,,,7,,,69,100
80064,note_on,,,,,0,0,15,,,,,7,,,66,100
80064,note_on,,,,,320,0,15,,,,,7,,,74,100
80064,note_on,,,,,320,0,12,,,,,5,,,38,94
80064,note_on,,,,,320,0,14,,,,,6,,,50,100
80064,note_on,,,,,92,0,9,,,,,2,,,69,94
80064,note_on,,,,,320,0,13,,,,,6,,,66,100
80064,note_on,,,,,0,0,13,,,,,6,,,69,100
80064,note_on,,,,,0,0,13,,,,,6,,,74,100
80064,note_on,,,,,32,0,10,,,,,3,,,62,94
80064,note_on,,,,,320,0,11,,,,,4,,,50,94
80064,note_on,,,,,320,0,16,,,,,7,,,50,100
80064,note_on,,,,,32,0,8,,,,,1,,,78,94
80128,note_off,,,,,64,0,8,,,,,1,,,78,100
80160,note_on,,,,,32,0,8,,,,,1,,,81,90
80164,note_off,,,,,100,0,16,,,,,7,,,50,100
80164,note_off,,,,,100,0,11,,,,,4,,,50,100
80164,note_off,,,,,100,0,10,,,,,3,,,62,100
80164,note_off,,,,,100,0,14,,,,,6,,,50,100
80164,note_off,,,,,100,0,12,,,,,5,,,38,100
80224,note_off,,,,,64,0,8,,,,,1,,,81,100
80252,note_off,,,,,188,0,13,,,,,6,,,74,100
80252,note_off,,,,,188,0,15,,,,,7,,,74,100
80256,note_on,,,,,4,0,15,,,,,7,,,72,100
80256,note_on,,,,,92,0,11,,,,,4,,,50,91
80256,note_on,,,,,32,0,8,,,,,1,,,72,91
80256,note_on,,,,,4,0,13,,,,,6,,,72,100
80256,note_on,,,,,92,0,14,,,,,6,,,50,100
80256,note_off,,,,,192,0,9,,,,,2,,,69,100
80256,note_on,,,,,92,0,10,,,,,3,,,66,91
80256,note_on,,,,,92,0,16,,,,,7,,,50,100
80256,note_on,,,,,92,0,12,,,,,5,,,38,91
80320,note_off,,,,,64,0,16,,,,,7,,,50,100
80320,note_off,,,,,64,0,14,,,,,6,,,50,100
80320,note_off,,,,,64,0,11,,,,,4,,,50,100
80320,note_off,,,,,64,0,10,,,,,3,,,66,100
80320,note_off,,,,,64,0,12,,,,,5,,,38,100
80352,note_on,,,,,96,0,9,,,,,2,,,81,92
80352,note_on,,,,,32,0,16,,,,,7,,,52,100
80352,note_on,,,,,32,0,10,,,,,3,,,67,92
80352,note_on,,,,,32,0,14,,,,,6,,,52,100
80352,note_on,,,,,32,0,11,,,,,4,,,52,92
80352,note_on,,,,,32,0,12,,,,,5,,,40,92
80416,note_off,,,,,64,0,14,,,,,6,,,52,100
80416,note_off,,,,,64,0,10,,,,,3,,,67,100
80416,note_off,,,,,64,0,9,,,,,2,,,81,100
80416,note_off,,,,,64,0,11,,,,,4,,,52,100
80416,note_off,,,,,64,0,16,,,,,7,,,52,100
80416,note_off,,,,,64,0,12,,,,,5,,,40,100
80448,note_on,,,,,32,0,14,,,,,6,,,54,100
80448,note_on,,,,,32,0,11,,,,,4,,,54,93
80448,note_on,,,,,32,0,12,,,,,5,,,42,93
80448,note_on,,,,,0,0,13,,,,,6,,,62,100
80448,note_off,,,,,192,0,13,,,,,6,,,66,100
80448,note_on,,,,,32,0,9,,,,,2,,,78,93
80448,note_off,,,,,192,0,8,,,,,1,,,72,100
80448,note_off,,,,,0,0,13,,,,,6,,,69,100
80448,note_on,,,,,32,0,10,,,,,3,,,69,93
80448,note_on,,,,,32,0,16,,,,,7,,,54,100
80512,note_off,,,,,64,0,16,,,,,7,,,54,100
80512,note_off,,,,,64,0,14,,,,,6,,,54,100
80512,note_off,,,,,64,0,11,,,,,4,,,54,100
80512,note_off,,,,,64,0,10,,,,,3,,,69,100
80512,note_off,,,,,64,0,12,,,,,5,,,42,100
80512,note_off,,,,,256,0,15,,,,,7,,,72,100
80512,note_off,,,,,64,0,13,,,,,6,,,72,100
80524,note_off,,,,,12,0,15,,,,,7,,,66,100
80524,note_off,,,,,0,0,15,,,,,7,,,69,100
80544,note_on,,,,,32,0,14,,,,,6,,,50,100
80544,note_on,,,,,32,0,16,,,,,7,,,50,100
80544,note_on,,,,,32,0,12,,,,,5,,,38,94
80544,note_on,,,,,32,0,10,,,,,3,,,66,94
80544,note_on,,,,,32,0,11,,,,,4,,,50,94
80544,note_on,,,,,96,0,8,,,,,1,,,74,94
80548,note_off,,,,,100,0,9,,,,,2,,,78,100
80576,note_off,,,,,64,0,13,,,,,6,,,62,100
80608,note_off,,,,,64,0,10,,,,,3,,,66,100
80608,note_off,,,,,64,0,11,,,,,4,,,50,100
80608,note_off,,,,,64,0,8,,,,,1,,,74,100
80608,note_off,,,,,64,0,12,,,,,5,,,38,100
80608,note_off,,,,,64,0,16,,,,,7,,,50,100
80608,note_off,,,,,64,0,14,,,,,6,,,50,100
80640,note_on,,,,,32,0,16,,,,,7,,,55,100
80640,note_on,,,,,32,0,8,,,,,1,,,71,95
80640,note_on,,,,,0,0,13,,,,,6,,,67,100
80640,note_on,,,,,32,0,14,,,,,6,,,55,100
80640,note_on,,,,,32,0,10,,,,,3,,,62,95
80640,note_on,,,,,64,0,13,,,,,6,,,71,100
80640,note_on,,,,,0,0,15,,,,,7,,,71,100
80640,note_on,,,,,32,0,12,,,,,5,,,43,95
80640,note_on,,,,,32,0,11,,,,,4,,,55,95
80640,note_on,,,,,116,0,15,,,,,7,,,67,100
80640,note_on,,,,,92,0,9,,,,,2,,,79,95
80704,note_off,,,,,64,0,8,,,,,1,,,71,100
80736,note_on,,,,,32,0,8,,,,,1,,,83,97
80740,note_off,,,,,100,0,11,,,,,4,,,55,100
80740,note_off,,,,,100,0,12,,,,,5,,,43,100
80740,note_off,,,,,100,0,10,,,,,3,,,62,100
80740,note_off,,,,,100,0,16,,,,,7,,,55,100
80740,note_off,,,,,100,0,14,,,,,6,,,55,100
80800,note_off,,,,,64,0,8,,,,,1,,,83,100
80832,note_off,,,,,192,0,9,,,,,2,,,79,100
80832,note_on,,,,,92,0,10,,,,,3,,,67,98
80832,note_on,,,,,92,0,16,,,,,7,,,52,100
80832,note_on,,,,,92,0,11,,,,,4,,,52,98
80832,note_on,,,,,32,0,8,,,,,1,,,74,98
80832,note_on,,,,,92,0,14,,,,,6,,,52,100
80832,note_on,,,,,92,0,12,,,,,5,,,40,98
80832,note_on,,,,,192,0,13,,,,,6,,,74,100
80896,note_off,,,,,64,0,16,,,,,7,,,52,100
80896,note_off,,,,,64,0,12,,,,,5,,,40,100
80896,note_off,,,,,64,0,14,,,,,6,,,52,100
80896,note_off,,,,,64,0,11,,,,,4,,,52,100
80896,note_off,,,,,64,0,10,,,,,3,,,67,100
80928,note_on,,,,,96,0,9,,,,,2,,,83,99
80928,note_on,,,,,32,0,14,,,,,6,,,54,100
80928,note_on,,,,,32,0,16,,,,,7,,,54,100
80928,note_on,,,,,32,0,10,,,,,3,,,69,99
80928,note_on,,,,,32,0,11,,,,,4,,,54,99
80928,note_on,,,,,32,0,12,,,,,5,,,42,99
80992,note_off,,,,,64,0,16,,,,,7,,,54,100
80992,note_off,,,,,64,0,14,,,,,6,,,54,100
80992,note_off,,,,,64,0,12,,,,,5,,,42,100
80992,note_off,,,,,64,0,9,,,,,2,,,83,100
80992,note_off,,,,,64,0,11,,,,,4,,,54,100
80992,note_off,,,,,64,0,10,,,,,3,,,69,100
81024,note_on,,,,,32,0,12,,,,,5,,,44,100
81024,note_off,,,,,0,0,13,,,,,6,,,67,100
81024,note_on,,,,,0,0,13,,,,,6,,,64,100
81024,note_on,,,,,32,0,11,,,,,4,,,56,100
81024,note_on,,,,,32,0,16,,,,,7,,,56,100
81024,note_off,,,,,192,0,8,,,,,1,,,74,100
81024,note_on,,,,,32,0,14,,,,,6,,,56,100
81024,note_on,,,,,32,0,10,,,,,3,,,71,100
81024,note_on,,,,,32,0,9,,,,,2,,,80,100
81024,note_off,,,,,192,0,13,,,,,6,,,71,100
81088,note_off,,,,,64,0,13,,,,,6,,,74,100
81088,note_off,,,,,64,0,16,,,,,7,,,56,100
81088,note_off,,,,,64,0,11,,,,,4,,,56,100
81088,note_off,,,,,64,0,10,,,,,3,,,71,100
81088,note_off,,,,,64,0,14,,,,,6,,,56,100
81088,note_off,,,,,64,0,12,,,,,5,,,44,100
81100,note_off,,,,,0,0,15,,,,,7,,,71,100
81100,note_off,,,,,460,0,15,,,,,7,,,67,100
81120,note_on,,,,,96,0,8,,,,,1,,,76,101
81120,note_on,,,,,32,0,12,,,,,5,,,40,101
81120,note_on,,,,,32,0,10,,,,,3,,,68,101
81120,note_on,,,,,32,0,14,,,,,6,,,52,100
81120,note_on,,,,,32,0,11,,,,,4,,,52,101
81120,note_on,,,,,32,0,16,,,,,7,,,52,100
81124,note_off,,,,,100,0,9,,,,,2,,,80,100
81152,note_off,,,,,64,0,13,,,,,6,,,64,100
81184,note_off,,,,,64,0,8,,,,,1,,,76,100
81184,note_off,,,,,64,0,10,,,,,3,,,68,100
81184,note_off,,,,,64,0,12,,,,,5,,,40,100
81184,note_off,,,,,64,0,14,,,,,6,,,52,100
81184,note_off,,,,,64,0,16,,,,,7,,,52,100
81184,note_off,,,,,64,0,11,,,,,4,,,52,100
81216,note_on,,,,,116,0,15,,,,,7,,,69,100
81216,note_on,,,,,32,0,16,,,,,7,,,57,100
81216,note_on,,,,,32,0,10,,,,,3,,,64,102
81216,note_on,,,,,0,0,13,,,,,6,,,69,100
81216,note_on,,,,,64,0,13,,,,,6,,,73,100
81216,note_on,,,,,92,0,9,,,,,2,,,81,102
81216,note_on,,,,,32,0,12,,,,,5,,,45,102
81216,note_on,,,,,0,0,15,,,,,7,,,73,100
81216,note_on,,,,,32,0,14,,,,,6,,,57,100
81216,note_on,,,,,32,0,8,,,,,1,,,73,102
81216,note_on,,,,,32,0,11,,,,,4,,,57,102
81280,note_off,,,,,64,0,8,,,,,1,,,73,100
81312,note_on,,,,,32,0,8,,,,,1,,,85,104
81316,note_off,,,,,100,0,14,,,,,6,,,57,100
81316,note_off,,,,,100,0,12,,,,,5,,,45,100
81316,note_off,,,,,100,0,16,,,,,7,,,57,100
81316,note_off,,,,,100,0,11,,,,,4,,,57,100
81316,note_off,,,,,100,0,10,,,,,3,,,64,100
81376,note_off,,,,,64,0,8,,,,,1,,,85,100
81408,note_on,,,,,192,0,13,,,,,6,,,76,100
81408,note_off,,,,,192,0,9,,,,,2,,,81,100
81408,note_on,,,,,92,0,16,,,,,7,,,54,100
81408,note_on,,,,,92,0,12,,,,,5,,,42,105
81408,note_on,,,,,32,0,8,,,,,1,,,76,105
81408,note_on,,,,,92,0,14,,,,,6,,,54,100
81408,note_on,,,,,92,0,10,,,,,3,,,69,105
81408,note_on,,,,,92,0,11,,,,,4,,,54,105
81472,note_off,,,,,64,0,12,,,,,5,,,42,100
81472,note_off,,,,,64,0,11,,,,,4,,,54,100
81472,note_off,,,,,64,0,16,,,,,7,,,54,100
81472,note_off,,,,,64,0,14,,,,,6,,,54,100
81472,note_off,,,,,64,0,10,,,,,3,,,69,100
81504,note_on,,,,,32,0,16,,,,,7,,,56,100
81504,note_on,,,,,32,0,12,,,,,5,,,44,106
81504,note_on,,,,,32,0,10,,,,,3,,,71,106
81504,note_on,,,,,32,0,11,,,,,4,,,56,106
81504,note_on,,,,,96,0,9,,,,,2,,,85,106
81504,note_on,,,,,32,0,14,,,,,6,,,56,100
81568,note_off,,,,,64,0,12,,,,,5,,,44,100
81568,note_off,,,,,64,0,14,,,,,6,,,56,100
81568,note_off,,,,,64,0,11,,,,,4,,,56,100
81568,note_off,,,,,64,0,16,,,,,7,,,56,100
81568,note_off,,,,,64,0,9,,,,,2,,,85,100
81568,note_off,,,,,64,0,10,,,,,3,,,71,100
81600,note_off,,,,,192,0,8,,,,,1,,,76,100
81600,note_on,,,,,32,0,16,,,,,7,,,58,100
81600,note_on,,,,,32,0,10,,,,,3,,,73,107
81600,note_off,,,,,192,0,13,,,,,6,,,73,100
81600,note_on,,,,,32,0,14,,,,,6,,,58,100
81600,note_on,,,,,0,0,13,,,,,6,,,66,100
81600,note_on,,,,,384,0,15,,,,,7,,,66,100
81600,note_on,,,,,32,0,11,,,,,4,,,58,107
81600,note_on,,,,,32,0,9,,,,,2,,,82,107
81600,note_on,,,,,32,0,12,,,,,5,,,46,107
81600,note_off,,,,,0,0,13,,,,,6,,,69,100
81664,note_off,,,,,64,0,13,,,,,6,,,76,100
81664,note_off,,,,,64,0,12,,,,,5,,,46,100
81664,note_off,,,,,64,0,11,,,,,4,,,58,100
81664,note_off,,,,,64,0,16,,,,,7,,,58,100
81664,note_off,,,,,64,0,10,,,,,3,,,73,100
81664,note_off,,,,,64,0,14,,,,,6,,,58,100
81676,note_off,,,,,76,0,15,,,,,7,,,69,100
81676,note_off,,,,,0,0,15,,,,,7,,,73,100
81696,note_on,,,,,32,0,16,,,,,7,,,54,100
81696,note_on,,,,,32,0,10,,,,,3,,,70,108
81696,note_on,,,,,32,0,12,,,,,5,,,42,108
81696,note_on,,,,,32,0,11,,,,,4,,,54,108
81696,note_on,,,,,96,0,8,,,,,1,,,78,108
81696,note_on,,,,,32,0,14,,,,,6,,,54,100
81700,note_off,,,,,100,0,9,,,,,2,,,82,100
81728,note_off,,,,,52,0,15,,,,,7,,,66,100
81728,note_off,,,,,64,0,13,,,,,6,,,66,100
81760,note_off,,,,,64,0,14,,,,,6,,,54,100
81760,note_off,,,,,64,0,11,,,,,4,,,54,100
81760,note_off,,,,,64,0,8,,,,,1,,,78,100
81760,note_off,,,,,64,0,16,,,,,7,,,54,100
81760,note_off,,,,,64,0,10,,,,,3,,,70,100
81760,note_off,,,,,64,0,12,,,,,5,,,42,100
81792,note_on,,,,,32,0,8,,,,,1,,,74,109
81792,note_on,,,,,92,0,9,,,,,2,,,83,109
81792,note_on,,,,,0,0,15,,,,,7,,,74,100
81792,note_on,,,,,15452,0,7,,,,,0,,,74,100
81792,note_on,,,,,32,0,16,,,,,7,,,59,100
81792,note_on,,,,,0,0,13,,,,,6,,,74,100
81792,note_on,,,,,32,0,14,,,,,6,,,59,100
81792,note_on,,,,,64,0,15,,,,,7,,,66,100
81792,note_on,,,,,32,0,10,,,,,3,,,66,109
81792,note_on,,,,,64,0,13,,,,,6,,,66,100
81792,note_on,,,,,0,0,13,,,,,6,,,71,100
81792,note_on,,,,,32,0,11,,,,,4,,,59,109
81792,note_on,,,,,32,0,12,,,,,5,,,47,109
81792,note_on,,,,,0,0,15,,,,,7,,,71,100
81884,note_off,,,,,92,0,7,,,,,0,,,74,100
81888,note_on,,,,,4,0,7,,,,,0,,,78,100
81892,note_off,,,,,100,0,14,,,,,6,,,59,100
81892,note_off,,,,,100,0,11,,,,,4,,,59,100
81892,note_off,,,,,100,0,12,,,,,5,,,47,100
81952,note_off,,,,,64,0,7,,,,,0,,,78,100
81984,note_on,,,,,32,0,7,,,,,0,,,78,101
81984,note_on,,,,,92,0,14,,,,,6,,,50,100
81984,note_on,,,,,92,0,12,,,,,5,,,38,95
81984,note_on,,,,,92,0,11,,,,,4,,,50,95
82048,note_off,,,,,0,0,13,,,,,6,,,74,100
82048,note_off,,,,,256,0,10,,,,,3,,,66,100
82048,note_off,,,,,256,0,15,,,,,7,,,66,100
82048,note_off,,,,,0,0,13,,,,,6,,,71,100
82048,note_off,,,,,0,0,15,,,,,7,,,74,100
82048,note_off,,,,,0,0,15,,,,,7,,,71,100
82048,note_off,,,,,256,0,13,,,,,6,,,66,100
82048,note_off,,,,,256,0,9,,,,,2,,,83,100
82048,note_off,,,,,256,0,16,,,,,7,,,59,100
82048,note_off,,,,,256,0,8,,,,,1,,,74,100
82076,note_off,,,,,92,0,7,,,,,0,,,78,100
82080,note_on,,,,,4,0,7,,,,,0,,,83,102
82084,note_off,,,,,100,0,14,,,,,6,,,50,100
82084,note_off,,,,,100,0,12,,,,,5,,,38,100
82084,note_off,,,,,100,0,11,,,,,4,,,50,100
82144,note_off,,,,,64,0,7,,,,,0,,,83,100
82176,note_on,,,,,92,0,12,,,,,5,,,35,88
82176,note_on,,,,,92,0,11,,,,,4,,,47,88
82176,note_on,,,,,92,0,14,,,,,6,,,47,100
82176,note_on,,,,,32,0,7,,,,,0,,,83,103
82176,program_change,,,,,128,0,9,,,,,2,40,,,
82176,program_change,,,,,128,0,8,,,,,1,40,,,
82268,note_off,,,,,92,0,7,,,,,0,,,83,100
82272,note_on,,,,,4,0,7,,,,,0,,,86,104
82276,note_off,,,,,100,0,14,,,,,6,,,47,100
82276,note_off,,,,,100,0,11,,,,,4,,,47,100
82276,note_off,,,,,100,0,12,,,,,5,,,35,100
82336,note_off,,,,,64,0,7,,,,,0,,,86,100
82368,note_on,,,,,92,0,14,,,,,6,,,47,100
82368,note_on,,,,,92,0,12,,,,,5,,,35,80
82368,note_on,,,,,0,0,13,,,,,6,,,66,100
82368,note_on,,,,,92,0,11,,,,,4,,,47,80
82368,note_on,,,,,32,0,7,,,,,0,,,86,105
82368,note_on,,,,,192,0,9,,,,,2,,,78,92
82368,note_on,,,,,320,0,13,,,,,6,,,62,100
82460,note_off,,,,,92,0,7,,,,,0,,,86,100
82464,note_on,,,,,4,0,7,,,,,0,,,83,104
82468,note_off,,,,,100,0,9,,,,,2,,,78,100
82468,note_off,,,,,100,0,12,,,,,5,,,35,100
82468,note_off,,,,,0,0,13,,,,,6,,,66,100
82468,note_off,,,,,100,0,14,,,,,6,,,47,100
82468,note_off,,,,,100,0,11,,,,,4,,,47,100
82468,note_off,,,,,100,0,13,,,,,6,,,62,100
82528,note_off,,,,,64,0,7,,,,,0,,,83,100
82560,note_on,,,,,92,0,9,,,,,2,,,74,92
82560,note_on,,,,,92,0,13,,,,,6,,,62,100
82560,note_on,,,,,92,0,11,,,,,4,,,47,80
82560,note_on,,,,,92,0,14,,,,,6,,,47,100
82560,note_on,,,,,32,0,7,,,,,0,,,83,103
82560,note_on,,,,,92,0,12,,,,,5,,,35,80
82560,note_on,,,,,0,0,13,,,,,6,,,66,100
82652,note_off,,,,,92,0,7,,,,,0,,,83,100
82656,note_on,,,,,4,0,7,,,,,0,,,78,102
82660,note_off,,,,,100,0,13,,,,,6,,,62,100
82660,note_off,,,,,0,0,13,,,,,6,,,66,100
82660,note_off,,,,,100,0,14,,,,,6,,,47,100
82660,note_off,,,,,100,0,9,,,,,2,,,74,100
82660,note_off,,,,,100,0,12,,,,,5,,,35,100
82660,note_off,,,,,100,0,11,,,,,4,,,47,100
82720,note_off,,,,,64,0,7,,,,,0,,,78,100
82752,note_on,,,,,92,0,14,,,,,6,,,47,100
82752,note_on,,,,,92,0,11,,,,,4,,,47,80
82752,note_on,,,,,0,0,13,,,,,6,,,66,100
82752,note_on,,,,,92,0,12,,,,,5,,,35,80
82752,note_on,,,,,32,0,7,,,,,0,,,78,101
82752,note_on,,,,,92,0,9,,,,,2,,,71,92
82752,note_on,,,,,92,0,13,,,,,6,,,62,100
82844,note_off,,,,,92,0,7,,,,,0,,,78,100
82848,note_on,,,,,4,0,7,,,,,0,,,79,100
82852,note_off,,,,,0,0,13,,,,,6,,,66,100
82852,note_off,,,,,100,0,12,,,,,5,,,35,100
82852,note_off,,,,,100,0,11,,,,,4,,,47,100
82852,note_off,,,,,100,0,9,,,,,2,,,71,100
82852,note_off,,,,,100,0,14,,,,,6,,,47,100
82852,note_off,,,,,100,0,13,,,,,6,,,62,100
82912,note_off,,,,,64,0,7,,,,,0,,,79,100
82944,note_on,,,,,0,0,13,,,,,6,,,71,100
82944,note_on,,,,,32,0,7,,,,,0,,,79,99
82944,note_on,,,,,92,0,11,,,,,4,,,52,80
82944,note_on,,,,,92,0,12,,,,,5,,,40,80
82944,note_on,,,,,768,0,8,,,,,1,,,83,92
82944,note_on,,,,,92,0,14,,,,,6,,,52,100
82944,note_on,,,,,92,0,13,,,,,6,,,67,100
82944,note_on,,,,,92,0,9,,,,,2,,,67,92
83036,note_off,,,,,92,0,7,,,,,0,,,79,100
83040,note_on,,,,,4,0,7,,,,,0,,,76,96
83044,note_off,,,,,100,0,12,,,,,5,,,40,100
83044,note_off,,,,,100,0,13,,,,,6,,,67,100
83044,note_off,,,,,0,0,13,,,,,6,,,71,100
83044,note_off,,,,,100,0,11,,,,,4,,,52,100
83044,note_off,,,,,100,0,8,,,,,1,,,83,100
83044,note_off,,,,,100,0,14,,,,,6,,,52,100
83104,note_off,,,,,64,0,7,,,,,0,,,76,100
83136,note_on,,,,,92,0,12,,,,,5,,,40,80
83136,note_on,,,,,92,0,11,,,,,4,,,52,80
83136,note_on,,,,,32,0,7,,,,,0,,,76,98
83136,note_on,,,,,92,0,8,,,,,1,,,79,92
83136,note_on,,,,,92,0,14,,,,,6,,,52,100
83136,note_on,,,,,0,0,13,,,,,6,,,71,100
83136,note_on,,,,,92,0,13,,,,,6,,,67,100
83200,note_off,,,,,256,0,9,,,,,2,,,67,100
83228,note_off,,,,,92,0,7,,,,,0,,,76,100
83232,note_on,,,,,4,0,7,,,,,0,,,79,99
83236,note_off,,,,,100,0,8,,,,,1,,,79,100
83236,note_off,,,,,0,0,13,,,,,6,,,71,100
83236,note_off,,,,,100,0,12,,,,,5,,,40,100
83236,note_off,,,,,100,0,14,,,,,6,,,52,100
83236,note_off,,,,,100,0,11,,,,,4,,,52,100
83236,note_off,,,,,100,0,13,,,,,6,,,67,100
83296,note_off,,,,,64,0,7,,,,,0,,,79,100
83328,note_on,,,,,92,0,12,,,,,5,,,40,80
83328,note_on,,,,,92,0,11,,,,,4,,,52,80
83328,note_on,,,,,92,0,8,,,,,1,,,76,92
83328,note_on,,,,,92,0,14,,,,,6,,,52,100
83328,note_on,,,,,0,0,13,,,,,6,,,71,100
83328,note_on,,,,,32,0,7,,,,,0,,,79,101
83328,note_on,,,,,92,0,13,,,,,6,,,67,100
83420,note_off,,,,,92,0,7,,,,,0,,,79,100
83424,note_on,,,,,4,0,7,,,,,0,,,85,103
83428,note_off,,,,,100,0,11,,,,,4,,,52,100
83428,note_off,,,,,100,0,12,,,,,5,,,40,100
83428,note_off,,,,,100,0,14,,,,,6,,,52,100
83428,note_off,,,,,100,0,13,,,,,6,,,67,100
83428,note_off,,,,,0,0,13,,,,,6,,,71,100
83428,note_off,,,,,100,0,8,,,,,1,,,76,100
83488,note_off,,,,,64,0,7,,,,,0,,,85,100
83520,note_on,,,,,92,0,13,,,,,6,,,64,100
83520,note_on,,,,,320,0,9,,,,,2,,,76,92
83520,note_on,,,,,92,0,12,,,,,5,,,45,80
83520,note_on,,,,,92,0,11,,,,,4,,,57,80
83520,note_on,,,,,92,0,14,,,,,6,,,57,100
83520,note_on,,,,,32,0,7,,,,,0,,,85,105
83520,note_on,,,,,0,0,13,,,,,6,,,73,100
83520,note_on,,,,,92,0,8,,,,,1,,,73,92
83612,note_off,,,,,92,0,7,,,,,0,,,85,100
83616,note_on,,,,,4,0,7,,,,,0,,,81,104
83620,note_off,,,,,100,0,13,,,,,6,,,64,100
83620,note_off,,,,,0,0,13,,,,,6,,,73,100
83620,note_off,,,,,100,0,11,,,,,4,,,57,100
83620,note_off,,,,,100,0,12,,,,,5,,,45,100
83620,note_off,,,,,100,0,14,,,,,6,,,57,100
83620,note_off,,,,,100,0,9,,,,,2,,,76,100
83680,note_off,,,,,64,0,7,,,,,0,,,81,100
83712,note_on,,,,,92,0,12,,,,,5,,,45,80
83712,note_on,,,,,92,0,14,,,,,6,,,57,100
83712,note_on,,,,,92,0,11,,,,,4,,,57,80
83712,note_on,,,,,92,0,9,,,,,2,,,73,92
83712,note_on,,,,,92,0,13,,,,,6,,,64,100
83712,note_on,,,,,32,0,7,,,,,0,,,81,103
83712,note_on,,,,,0,0,13,,,,,6,,,73,100
83776,note_off,,,,,256,0,8,,,,,1,,,73,100
83804,note_off,,,,,92,0,7,,,,,0,,,81,100
83808,note_on,,,,,4,0,7,,,,,0,,,76,102
83812,note_off,,,,,100,0,11,,,,,4,,,57,100
83812,note_off,,,,,100,0,9,,,,,2,,,73,100
83812,note_off,,,,,100,0,12,,,,,5,,,45,100
83812,note_off,,,,,100,0,14,,,,,6,,,57,100
83812,note_off,,,,,0,0,13,,,,,6,,,73,100
83812,note_off,,,,,100,0,13,,,,,6,,,64,100
83872,note_off,,,,,64,0,7,,,,,0,,,76,100
83904,note_on,,,,,92,0,12,,,,,5,,,45,80
83904,note_on,,,,,92,0,14,,,,,6,,,57,100
83904,note_on,,,,,92,0,11,,,,,4,,,57,80
83904,note_on,,,,,92,0,13,,,,,6,,,64,100
83904,note_on,,,,,32,0,7,,,,,0,,,76,101
83904,note_on,,,,,92,0,9,,,,,2,,,69,92
83904,note_on,,,,,0,0,13,,,,,6,,,73,100
83996,note_off,,,,,92,0,7,,,,,0,,,76,100
84000,note_on,,,,,4,0,7,,,,,0,,,78,100
84004,note_off,,,,,100,0,11,,,,,4,,,57,100
84004,note_off,,,,,0,0,13,,,,,6,,,73,100
84004,note_off,,,,,100,0,13,,,,,6,,,64,100
84004,note_off,,,,,100,0,14,,,,,6,,,57,100
84004,note_off,,,,,100,0,9,,,,,2,,,69,100
84004,note_off,,,,,100,0,12,,,,,5,,,45,100
84064,note_off,,,,,64,0,7,,,,,0,,,78,100
84096,note_on,,,,,0,0,13,,,,,6,,,69,100
84096,note_on,,,,,92,0,12,,,,,5,,,38,80
84096,note_on,,,,,92,0,13,,,,,6,,,66,100
84096,note_on,,,,,32,0,7,,,,,0,,,78,99
84096,note_on,,,,,92,0,9,,,,,2,,,66,92
84096,note_on,,,,,320,0,8,,,,,1,,,81,92
84096,note_on,,,,,92,0,11,,,,,4,,,50,80
84096,note_on,,,,,92,0,14,,,,,6,,,50,100
84188,note_off,,,,,92,0,7,,,,,0,,,78,100
84192,note_on,,,,,4,0,7,,,,,0,,,74,96
84196,note_off,,,,,100,0,11,,,,,4,,,50,100
84196,note_off,,,,,100,0,8,,,,,1,,,81,100
84196,note_off,,,,,100,0,14,,,,,6,,,50,100
84196,note_off,,,,,100,0,13,,,,,6,,,66,100
84196,note_off,,,,,0,0,13,,,,,6,,,69,100
84196,note_off,,,,,100,0,12,,,,,5,,,38,100
84256,note_off,,,,,64,0,7,,,,,0,,,74,100
84288,note_on,,,,,92,0,14,,,,,6,,,50,100
84288,note_on,,,,,0,0,13,,,,,6,,,69,100
84288,note_on,,,,,92,0,13,,,,,6,,,66,100
84288,note_on,,,,,92,0,12,,,,,5,,,38,80
84288,note_on,,,,,92,0,11,,,,,4,,,50,80
84288,note_on,,,,,32,0,7,,,,,0,,,74,98
84288,note_on,,,,,92,0,8,,,,,1,,,78,92
84352,note_off,,,,,256,0,9,,,,,2,,,66,100
84380,note_off,,,,,92,0,7,,,,,0,,,74,100
84384,note_on,,,,,4,0,7,,,,,0,,,78,99
84388,note_off,,,,,100,0,8,,,,,1,,,78,100
84388,note_off,,,,,100,0,12,,,,,5,,,38,100
84388,note_off,,,,,100,0,13,,,,,6,,,66,100
84388,note_off,,,,,100,0,11,,,,,4,,,50,100
84388,note_off,,,,,0,0,13,,,,,6,,,69,100
84388,note_off,,,,,100,0,14,,,,,6,,,50,100
84448,note_off,,,,,64,0,7,,,,,0,,,78,100
84480,note_on,,,,,0,0,13,,,,,6,,,69,100
84480,note_on,,,,,92,0,14,,,,,6,,,50,100
84480,note_on,,,,,92,0,8,,,,,1,,,74,92
84480,note_on,,,,,32,0,7,,,,,0,,,78,101
84480,note_on,,,,,92,0,11,,,,,4,,,50,80
84480,note_on,,,,,92,0,12,,,,,5,,,38,80
84480,note_on,,,,,92,0,13,,,,,6,,,66,100
84572,note_off,,,,,92,0,7,,,,,0,,,78,100
84576,note_on,,,,,4,0,7,,,,,0,,,83,103
84580,note_off,,,,,0,0,13,,,,,6,,,69,100
84580,note_off,,,,,100,0,13,,,,,6,,,66,100
84580,note_off,,,,,100,0,14,,,,,6,,,50,100
84580,note_off,,,,,100,0,8,,,,,1,,,74,100
84580,note_off,,,,,100,0,11,,,,,4,,,50,100
84580,note_off,,,,,100,0,12,,,,,5,,,38,100
84640,note_off,,,,,64,0,7,,,,,0,,,83,100
84672,note_on,,,,,92,0,14,,,,,6,,,55,100
84672,note_on,,,,,32,0,7,,,,,0,,,83,105
84672,note_on,,,,,92,0,12,,,,,5,,,43,80
84672,note_on,,,,,320,0,9,,,,,2,,,74,92
84672,note_on,,,,,92,0,11,,,,,4,,,55,80
84672,note_on,,,,,92,0,8,,,,,1,,,71,92
84672,note_on,,,,,0,0,13,,,,,6,,,71,100
84672,note_on,,,,,92,0,13,,,,,6,,,62,100
84764,note_off,,,,,92,0,7,,,,,0,,,83,100
84768,note_on,,,,,4,0,7,,,,,0,,,79,104
84772,note_off,,,,,0,0,13,,,,,6,,,71,100
84772,note_off,,,,,100,0,14,,,,,6,,,55,100
84772,note_off,,,,,100,0,12,,,,,5,,,43,100
84772,note_off,,,,,100,0,13,,,,,6,,,62,100
84772,note_off,,,,,100,0,11,,,,,4,,,55,100
84772,note_off,,,,,100,0,9,,,,,2,,,74,100
84832,note_off,,,,,64,0,7,,,,,0,,,79,100
84864,note_on,,,,,32,0,7,,,,,0,,,79,103
84864,note_on,,,,,0,0,13,,,,,6,,,71,100
84864,note_on,,,,,92,0,12,,,,,5,,,43,80
84864,note_on,,,,,92,0,14,,,,,6,,,55,100
84864,note_on,,,,,92,0,13,,,,,6,,,62,100
84864,note_on,,,,,92,0,9,,,,,2,,,71,92
84864,note_on,,,,,92,0,11,,,,,4,,,55,80
84928,note_off,,,,,256,0,8,,,,,1,,,71,100
84956,note_off,,,,,92,0,7,,,,,0,,,79,100
84960,note_on,,,,,4,0,7,,,,,0,,,74,102
84964,note_off,,,,,0,0,13,,,,,6,,,71,100
84964,note_off,,,,,100,0,9,,,,,2,,,71,100
84964,note_off,,,,,100,0,13,,,,,6,,,62,100
84964,note_off,,,,,100,0,12,,,,,5,,,43,100
84964,note_off,,,,,100,0,11,,,,,4,,,55,100
84964,note_off,,,,,100,0,14,,,,,6,,,55,100
85024,note_off,,,,,64,0,7,,,,,0,,,74,100
85056,note_on,,,,,92,0,9,,,,,2,,,67,92
85056,note_on,,,,,92,0,13,,,,,6,,,62,100
85056,note_on,,,,,0,0,13,,,,,6,,,71,100
85056,note_on,,,,,92,0,14,,,,,6,,,55,100
85056,note_on,,,,,92,0,12,,,,,5,,,43,80
85056,note_on,,,,,92,0,11,,,,,4,,,55,80
85056,note_on,,,,,32,0,7,,,,,0,,,74,101
85148,note_off,,,,,92,0,7,,,,,0,,,74,100
85152,note_on,,,,,4,0,7,,,,,0,,,76,100
85156,note_off,,,,,100,0,9,,,,,2,,,67,100
85156,note_off,,,,,100,0,12,,,,,5,,,43,100
85156,note_off,,,,,100,0,14,,,,,6,,,55,100
85156,note_off,,,,,100,0,11,,,,,4,,,55,100
85156,note_off,,,,,100,0,13,,,,,6,,,62,100
85156,note_off,,,,,0,0,13,,,,,6,,,71,100
85216,note_off,,,,,64,0,7,,,,,0,,,76,100
85248,note_on,,,,,92,0,9,,,,,2,,,64,92
85248,note_on,,,,,32,0,7,,,,,0,,,76,99
85248,note_on,,,,,92,0,13,,,,,6,,,70,100
85248,note_on,,,,,0,0,13,,,,,6,,,64,100
85248,note_on,,,,,320,0,8,,,,,1,,,76,92
85248,note_on,,,,,92,0,11,,,,,4,,,49,80
85248,note_on,,,,,92,0,12,,,,,5,,,37,80
85248,note_on,,,,,92,0,14,,,,,6,,,49,100
85340,note_off,,,,,92,0,7,,,,,0,,,76,100
85344,note_on,,,,,4,0,7,,,,,0,,,73,96
85348,note_off,,,,,100,0,8,,,,,1,,,76,100
85348,note_off,,,,,100,0,11,,,,,4,,,49,100
85348,note_off,,,,,0,0,13,,,,,6,,,64,100
85348,note_off,,,,,100,0,13,,,,,6,,,70,100
85348,note_off,,,,,100,0,14,,,,,6,,,49,100
85348,note_off,,,,,100,0,12,,,,,5,,,37,100
85408,note_off,,,,,64,0,7,,,,,0,,,73,100
85440,note_on,,,,,32,0,7,,,,,0,,,73,97
85440,note_on,,,,,92,0,11,,,,,4,,,49,80
85440,note_on,,,,,92,0,14,,,,,6,,,49,100
85440,note_on,,,,,92,0,12,,,,,5,,,37,80
85440,note_on,,,,,92,0,13,,,,,6,,,70,100
85440,note_on,,,,,0,0,13,,,,,6,,,64,100
85440,note_on,,,,,92,0,8,,,,,1,,,73,92
85504,note_off,,,,,256,0,9,,,,,2,,,64,100
85532,note_off,,,,,92,0,7,,,,,0,,,73,100
85536,note_on,,,,,4,0,7,,,,,0,,,76,99
85540,note_off,,,,,100,0,14,,,,,6,,,49,100
85540,note_off,,,,,0,0,13,,,,,6,,,64,100
85540,note_off,,,,,100,0,12,,,,,5,,,37,100
85540,note_off,,,,,100,0,13,,,,,6,,,70,100
85540,note_off,,,,,100,0,11,,,,,4,,,49,100
85540,note_off,,,,,100,0,8,,,,,1,,,73,100
85600,note_off,,,,,64,0,7,,,,,0,,,76,100
85632,note_on,,,,,92,0,11,,,,,4,,,49,80
85632,note_on,,,,,92,0,14,,,,,6,,,49,100
85632,note_on,,,,,0,0,13,,,,,6,,,64,100
85632,note_on,,,,,32,0,7,,,,,0,,,76,101
85632,note_on,,,,,92,0,13,,,,,6,,,70,100
85632,note_on,,,,,92,0,12,,,,,5,,,37,80
85632,note_on,,,,,92,0,8,,,,,1,,,70,92
85724,note_off,,,,,92,0,7,,,,,0,,,76,100
85728,note_on,,,,,4,0,7,,,,,0,,,82,103
85732,note_off,,,,,100,0,13,,,,,6,,,70,100
85732,note_off,,,,,0,0,13,,,,,6,,,64,100
85732,note_off,,,,,100,0,12,,,,,5,,,37,100
85732,note_off,,,,,100,0,14,,,,,6,,,49,100
85732,note_off,,,,,100,0,11,,,,,4,,,49,100
85732,note_off,,,,,100,0,8,,,,,1,,,70,100
85792,note_off,,,,,64,0,7,,,,,0,,,82,100
85824,note_on,,,,,92,0,11,,,,,4,,,54,80
85824,note_on,,,,,32,0,7,,,,,0,,,82,105
85824,note_on,,,,,92,0,8,,,,,1,,,66,92
85824,note_on,,,,,92,0,14,,,,,6,,,54,100
85824,note_on,,,,,0,0,13,,,,,6,,,70,100
85824,note_on,,,,,92,0,13,,,,,6,,,61,100
85824,note_on,,,,,320,0,9,,,,,2,,,76,92
85824,note_on,,,,,92,0,12,,,,,5,,,42,80
85916,note_off,,,,,92,0,7,,,,,0,,,82,100
85920,note_on,,,,,4,0,7,,,,,0,,,78,104
85924,note_off,,,,,0,0,13,,,,,6,,,70,100
85924,note_off,,,,,100,0,14,,,,,6,,,54,100
85924,note_off,,,,,100,0,12,,,,,5,,,42,100
85924,note_off,,,,,100,0,9,,,,,2,,,76,100
85924,note_off,,,,,100,0,13,,,,,6,,,61,100
85924,note_off,,,,,100,0,11,,,,,4,,,54,100
85984,note_off,,,,,64,0,7,,,,,0,,,78,100
86016,note_on,,,,,92,0,14,,,,,6,,,54,100
86016,note_on,,,,,32,0,7,,,,,0,,,78,103
86016,note_on,,,,,92,0,13,,,,,6,,,61,100
86016,note_on,,,,,92,0,12,,,,,5,,,42,80
86016,note_on,,,,,92,0,9,,,,,2,,,73,92
86016,note_on,,,,,92,0,11,,,,,4,,,54,80
86016,note_on,,,,,0,0,13,,,,,6,,,70,100
86080,note_off,,,,,256,0,8,,,,,1,,,66,100
86108,note_off,,,,,92,0,7,,,,,0,,,78,100
86112,note_on,,,,,4,0,7,,,,,0,,,73,101
86116,note_off,,,,,0,0,13,,,,,6,,,70,100
86116,note_off,,,,,100,0,11,,,,,4,,,54,100
86116,note_off,,,,,100,0,14,,,,,6,,,54,100
86116,note_off,,,,,100,0,9,,,,,2,,,73,100
86116,note_off,,,,,100,0,12,,,,,5,,,42,100
86116,note_off,,,,,100,0,13,,,,,6,,,61,100
86176,note_off,,,,,64,0,7,,,,,0,,,73,100
86208,note_on,,,,,92,0,9,,,,,2,,,70,92
86208,note_on,,,,,92,0,12,,,,,5,,,42,80
86208,note_on,,,,,92,0,11,,,,,4,,,54,80
86208,note_on,,,,,92,0,14,,,,,6,,,54,100
86208,note_on,,,,,0,0,13,,,,,6,,,70,100
86208,note_on,,,,,92,0,13,,,,,6,,,61,100
86208,note_on,,,,,32,0,7,,,,,0,,,73,100
86300,note_off,,,,,92,0,7,,,,,0,,,73,100
86304,note_on,,,,,4,0,7,,,,,0,,,74,98
86308,note_off,,,,,100,0,14,,,,,6,,,54,100
86308,note_off,,,,,100,0,13,,,,,6,,,61,100
86308,note_off,,,,,100,0,11,,,,,4,,,54,100
86308,note_off,,,,,0,0,13,,,,,6,,,70,100
86308,note_off,,,,,100,0,12,,,,,5,,,42,100
86308,note_off,,,,,100,0,9,,,,,2,,,70,100
86368,note_off,,,,,64,0,7,,,,,0,,,74,100
86400,note_on,,,,,92,0,12,,,,,5,,,47,80
86400,note_on,,,,,92,0,9,,,,,2,,,66,92
86400,note_on,,,,,0,0,13,,,,,6,,,71,100
86400,note_on,,,,,92,0,13,,,,,6,,,62,100
86400,note_on,,,,,92,0,11,,,,,4,,,59,80
86400,note_on,,,,,0,0,13,,,,,6,,,66,100
86400,note_on,,,,,92,0,14,,,,,6,,,59,100
86400,note_on,,,,,32,0,7,,,,,0,,,74,97
86464,note_off,,,,,64,0,7,,,,,0,,,74,100
86496,note_on,,,,,32,0,7,,,,,0,,,71,92
86588,note_off,,,,,92,0,7,,,,,0,,,71,100
86592,note_on,,,,,4,0,7,,,,,0,,,73,93
86656,note_off,,,,,256,0,11,,,,,4,,,59,100
86656,note_off,,,,,256,0,13,,,,,6,,,62,100
86656,note_off,,,,,0,0,13,,,,,6,,,66,100
86656,note_off,,,,,256,0,14,,,,,6,,,59,100
86656,note_off,,,,,0,0,13,,,,,6,,,71,100
86656,note_off,,,,,256,0,9,,,,,2,,,66,100
86656,note_off,,,,,256,0,12,,,,,5,,,47,100
86684,note_off,,,,,92,0,7,,,,,0,,,73,100
86688,note_on,,,,,4,0,7,,,,,0,,,74,93
86780,note_off,,,,,92,0,7,,,,,0,,,74,100
86784,note_on,,,,,4,0,7,,,,,0,,,73,94
86876,note_off,,,,,92,0,7,,,,,0,,,73,100
86880,note_on,,,,,4,0,7,,,,,0,,,71,94
86944,note_off,,,,,64,0,7,,,,,0,,,71,100
86976,note_on,,,,,320,0,12,,,,,5,,,43,83
86976,note_on,,,,,320,0,11,,,,,4,,,55,83
86976,note_on,,,,,0,0,13,,,,,6,,,67,100
86976,program_change,,,,,896,0,8,,,,,1,48,,,
86976,program_change,,,,,320,0,9,,,,,2,48,,,
86976,note_on,,,,,320,0,14,,,,,6,,,55,100
86976,note_on,,,,,320,0,13,,,,,6,,,71,100
86976,note_on,,,,,32,0,7,,,,,0,,,76,98
86976,note_on,,,,,0,0,13,,,,,6,,,64,100
87040,note_off,,,,,64,0,7,,,,,0,,,76,100
87072,note_on,,,,,32,0,7,,,,,0,,,71,95
87164,note_off,,,,,92,0,7,,,,,0,,,71,100
87168,note_on,,,,,4,0,7,,,,,0,,,73,96
87232,note_off,,,,,256,0,12,,,,,5,,,43,100
87232,note_off,,,,,256,0,11,,,,,4,,,55,100
87232,note_off,,,,,256,0,14,,,,,6,,,55,100
87232,note_off,,,,,0,0,13,,,,,6,,,64,100
87232,note_off,,,,,0,0,13,,,,,6,,,67,100
87232,note_off,,,,,256,0,13,,,,,6,,,71,100
87260,note_off,,,,,92,0,7,,,,,0,,,73,100
87264,note_on,,,,,4,0,7,,,,,0,,,74,96
87356,note_off,,,,,92,0,7,,,,,0,,,74,100
87360,note_on,,,,,4,0,7,,,,,0,,,73,97
87452,note_off,,,,,92,0,7,,,,,0,,,73,100
87456,note_on,,,,,4,0,7,,,,,0,,,71,97
87520,note_off,,,,,64,0,7,,,,,0,,,71,100
87552,note_on,,,,,32,0,7,,,,,0,,,78,101
87552,note_on,,,,,320,0,13,,,,,6,,,59,100
87552,note_on,,,,,0,0,13,,,,,6,,,71,100
87552,note_on,,,,,320,0,14,,,,,6,,,50,100
87552,note_on,,,,,0,0,13,,,,,6,,,66,100
87552,note_on,,,,,320,0,11,,,,,4,,,50,87
87552,note_on,,,,,320,0,12,,,,,5,,,38,87
87616,note_off,,,,,64,0,7,,,,,0,,,78,100
87648,note_on,,,,,32,0,7,,,,,0,,,71,99
87740,note_off,,,,,92,0,7,,,,,0,,,71,100
87744,note_on,,,,,4,0,7,,,,,0,,,73,99
87808,note_off,,,,,256,0,13,,,,,6,,,59,100
87808,note_off,,,,,0,0,13,,,,,6,,,71,100
87808,note_off,,,,,256,0,14,,,,,6,,,50,100
87808,note_off,,,,,256,0,12,,,,,5,,,38,100
87808,note_off,,,,,256,0,11,,,,,4,,,50,100
87808,note_off,,,,,0,0,13,,,,,6,,,66,100
87836,note_off,,,,,92,0,7,,,,,0,,,73,100
87840,note_on,,,,,4,0,7,,,,,0,,,74,100
87932,note_off,,,,,92,0,7,,,,,0,,,74,100
87936,note_on,,,,,4,0,7,,,,,0,,,73,100
88028,note_off,,,,,92,0,7,,,,,0,,,73,100
88032,note_on,,,,,4,0,7,,,,,0,,,71,101
88096,note_off,,,,,64,0,7,,,,,0,,,71,100
88128,note_on,,,,,320,0,11,,,,,4,,,52,91
88128,note_on,,,,,32,0,7,,,,,0,,,79,104
88128,note_on,,,,,320,0,12,,,,,5,,,40,91
88128,note_on,,,,,320,0,13,,,,,6,,,59,100
88128,note_on,,,,,320,0,14,,,,,6,,,52,100
88128,note_on,,,,,0,0,13,,,,,6,,,67,100
88128,note_on,,,,,0,0,13,,,,,6,,,64,100
88192,note_off,,,,,64,0,7,,,,,0,,,79,100
88224,note_on,,,,,32,0,7,,,,,0,,,71,102
88224,set_tempo,,,,,11616,1,0,,526315,,,,,,,
88272,set_tempo,,,,,48,1,0,,528634,,,,,,,
88316,note_off,,,,,92,0,7,,,,,0,,,71,100
88320,set_tempo,,,,,48,1,0,,530973,,,,,,,
88320,note_on,,,,,4,0,7,,,,,0,,,73,102
88368,set_tempo,,,,,48,1,0,,533333,,,,,,,
88384,note_off,,,,,256,0,14,,,,,6,,,52,100
88384,note_off,,,,,256,0,12,,,,,5,,,40,100
88384,note_off,,,,,0,0,13,,,,,6,,,64,100
88384,note_off,,,,,256,0,13,,,,,6,,,59,100
88384,note_off,,,,,0,0,13,,,,,6,,,67,100
88384,note_off,,,,,256,0,11,,,,,4,,,52,100
88412,note_off,,,,,92,0,7,,,,,0,,,73,100
88416,note_on,,,,,4,0,7,,,,,0,,,74,103
88416,set_tempo,,,,,48,1,0,,535714,,,,,,,
88464,set_tempo,,,,,48,1,0,,538116,,,,,,,
88508,note_off,,,,,92,0,7,,,,,0,,,74,100
88512,set_tempo,,,,,48,1,0,,540540,,,,,,,
88512,note_on,,,,,4,0,7,,,,,0,,,73,103
88560,set_tempo,,,,,48,1,0,,542986,,,,,,,
88604,note_off,,,,,92,0,7,,,,,0,,,73,100
88608,note_on,,,,,4,0,7,,,,,0,,,71,104
88608,set_tempo,,,,,48,1,0,,612244,,,,,,,
88672,note_off,,,,,64,0,7,,,,,0,,,71,100
88704,note_on,,,,,320,0,12,,,,,5,,,42,94
88704,note_on,,,,,320,0,14,,,,,6,,,54,100
88704,note_on,,,,,320,0,11,,,,,4,,,54,94
88704,note_on,,,,,320,0,13,,,,,6,,,73,100
88704,note_on,,,,,0,0,13,,,,,6,,,70,100
88704,note_on,,,,,32,0,7,,,,,0,,,82,104
88896,note_off,,,,,192,0,14,,,,,6,,,54,100
88896,note_off,,,,,192,0,13,,,,,6,,,73,100
88896,note_off,,,,,0,0,13,,,,,6,,,70,100
88896,set_tempo,,,,,288,1,0,,526315,,,,,,,
88896,note_off,,,,,192,0,11,,,,,4,,,54,100
88896,note_off,,,,,192,0,12,,,,,5,,,42,100
88896,note_off,,,,,192,0,7,,,,,0,,,82,100
88992,note_on,,,,,96,0,13,,,,,6,,,70,100
88992,note_on,,,,,96,0,12,,,,,5,,,40,91
88992,note_on,,,,,96,0,7,,,,,0,,,78,103
88992,note_on,,,,,96,0,11,,,,,4,,,52,91
88992,note_on,,,,,96,0,14,,,,,6,,,52,100
89056,note_off,,,,,64,0,11,,,,,4,,,52,100
89056,note_off,,,,,64,0,13,,,,,6,,,70,100
89056,note_off,,,,,64,0,14,,,,,6,,,52,100
89056,note_off,,,,,64,0,12,,,,,5,,,40,100
89056,note_off,,,,,64,0,7,,,,,0,,,78,100
89088,note_on,,,,,32,0,13,,,,,6,,,71,100
89088,note_on,,,,,32,0,7,,,,,0,,,83,101
89088,note_on,,,,,32,0,11,,,,,4,,,50,90
89088,note_on,,,,,0,0,13,,,,,6,,,66,100
89088,note_on,,,,,32,0,14,,,,,6,,,50,100
89088,note_on,,,,,32,0,12,,,,,5,,,38,90
89152,note_off,,,,,64,0,7,,,,,0,,,83,100
89184,note_on,,,,,32,0,7,,,,,0,,,74,99
89188,note_off,,,,,100,0,11,,,,,4,,,50,100
89188,note_off,,,,,100,0,12,,,,,5,,,38,100
89188,note_off,,,,,100,0,14,,,,,6,,,50,100
89188,note_off,,,,,0,0,13,,,,,6,,,66,100
89188,note_off,,,,,100,0,13,,,,,6,,,71,100
89248,note_off,,,,,64,0,7,,,,,0,,,74,100
89280,note_on,,,,,32,0,7,,,,,0,,,73,102
89280,note_on,,,,,92,0,14,,,,,6,,,52,100
89280,note_on,,,,,92,0,11,,,,,4,,,52,87
89280,note_on,,,,,0,0,13,,,,,6,,,71,100
89280,note_on,,,,,92,0,13,,,,,6,,,61,100
89280,note_on,,,,,92,0,12,,,,,5,,,40,87
89344,note_off,,,,,64,0,7,,,,,0,,,73,100
89376,note_on,,,,,32,0,7,,,,,0,,,83,102
89380,note_off,,,,,100,0,14,,,,,6,,,52,100
89380,note_off,,,,,0,0,13,,,,,6,,,71,100
89380,note_off,,,,,100,0,11,,,,,4,,,52,100
89380,note_off,,,,,100,0,12,,,,,5,,,40,100
89380,note_off,,,,,100,0,13,,,,,6,,,61,100
89440,note_off,,,,,64,0,7,,,,,0,,,83,100
89472,note_on,,,,,92,0,13,,,,,6,,,61,100
89472,note_on,,,,,32,0,7,,,,,0,,,73,103
89472,note_on,,,,,92,0,12,,,,,5,,,42,84
89472,note_on,,,,,92,0,11,,,,,4,,,54,84
89472,note_on,,,,,92,0,14,,,,,6,,,54,100
89472,note_on,,,,,0,0,13,,,,,6,,,71,100
89536,note_off,,,,,64,0,7,,,,,0,,,73,100
89568,note_on,,,,,32,0,7,,,,,0,,,83,103
89572,note_off,,,,,0,0,13,,,,,6,,,71,100
89572,note_off,,,,,100,0,11,,,,,4,,,54,100
89572,note_off,,,,,100,0,14,,,,,6,,,54,100
89572,note_off,,,,,100,0,13,,,,,6,,,61,100
89572,note_off,,,,,100,0,12,,,,,5,,,42,100
89632,note_off,,,,,64,0,7,,,,,0,,,83,100
89664,note_on,,,,,92,0,13,,,,,6,,,61,100
89664,note_on,,,,,0,0,13,,,,,6,,,70,100
89664,note_on,,,,,32,0,7,,,,,0,,,73,104
89664,note_on,,,,,92,0,14,,,,,6,,,42,100
89664,note_on,,,,,92,0,11,,,,,4,,,42,86
89664,note_on,,,,,92,0,12,,,,,5,,,42,86
89728,note_off,,,,,64,0,7,,,,,0,,,73,100
89760,note_on,,,,,32,0,7,,,,,0,,,82,104
89764,note_off,,,,,100,0,11,,,,,4,,,42,100
89764,note_off,,,,,100,0,14,,,,,6,,,42,100
89764,note_off,,,,,100,0,12,,,,,5,,,42,100
89764,note_off,,,,,0,0,13,,,,,6,,,70,100
89764,note_off,,,,,100,0,13,,,,,6,,,61,100
89824,note_off,,,,,64,0,7,,,,,0,,,82,100
89856,note_on,,,,,92,0,13,,,,,6,,,63,100
89856,note_on,,,,,0,0,13,,,,,6,,,66,100
89856,note_on,,,,,7808,0,15,,,,,7,,,63,100
89856,note_on,,,,,92,0,12,,,,,5,,,35,90
89856,note_on,,,,,0,0,13,,,,,6,,,71,100
89856,note_on,,,,,7808,0,10,,,,,3,,,66,95
89856,note_on,,,,,2880,0,9,,,,,2,,,75,95
89856,note_on,,,,,92,0,14,,,,,6,,,47,100
89856,note_on,,,,,0,0,15,,,,,7,,,71,100
89856,note_on,,,,,0,0,15,,,,,7,,,66,100
89856,note_on,,,,,32,0,7,,,,,0,,,83,104
89856,note_on,,,,,7808,0,16,,,,,7,,,47,100
89856,note_on,,,,,92,0,11,,,,,4,,,47,90
89856,note_on,,,,,2880,0,8,,,,,1,,,83,95
89920,note_off,,,,,64,0,8,,,,,1,,,83,100
89952,note_on,,,,,32,0,8,,,,,1,,,78,95
89956,note_off,,,,,100,0,7,,,,,0,,,83,100
90016,note_off,,,,,64,0,8,,,,,1,,,78,100
90044,note_off,,,,,188,0,9,,,,,2,,,75,100
90048,note_on,,,,,32,0,8,,,,,1,,,78,94
90048,note_on,,,,,4,0,9,,,,,2,,,71,94
90112,note_off,,,,,64,0,8,,,,,1,,,78,100
90144,note_on,,,,,32,0,8,,,,,1,,,75,93
90148,note_off,,,,,100,0,9,,,,,2,,,71,100
90208,note_off,,,,,64,0,8,,,,,1,,,75,100
90240,note_on,,,,,32,0,8,,,,,1,,,75,92
90240,note_on,,,,,92,0,9,,,,,2,,,66,92
90304,note_off,,,,,64,0,8,,,,,1,,,75,100
90336,note_on,,,,,32,0,8,,,,,1,,,71,91
90340,note_off,,,,,100,0,9,,,,,2,,,66,100
90400,note_off,,,,,64,0,8,,,,,1,,,71,100
90432,note_on,,,,,92,0,9,,,,,2,,,63,90
90432,note_on,,,,,32,0,8,,,,,1,,,71,89
90496,note_off,,,,,64,0,8,,,,,1,,,71,100
90528,note_on,,,,,32,0,8,,,,,1,,,75,89
90592,note_off,,,,,64,0,8,,,,,1,,,75,100
90620,note_off,,,,,188,0,9,,,,,2,,,63,100
90624,note_on,,,,,4,0,9,,,,,2,,,59,100
90624,note_on,,,,,32,0,8,,,,,1,,,75,90
90688,note_off,,,,,64,0,8,,,,,1,,,75,100
90720,note_on,,,,,32,0,8,,,,,1,,,83,91
90724,note_off,,,,,100,0,9,,,,,2,,,59,100
90736,note_off,,,,,880,0,10,,,,,3,,,66,100
90784,note_off,,,,,64,0,8,,,,,1,,,83,100
90816,note_on,,,,,80,0,10,,,,,3,,,63,100
90816,note_on,,,,,32,0,8,,,,,1,,,83,92
90816,note_on,,,,,92,0,9,,,,,2,,,75,100
90880,note_off,,,,,64,0,8,,,,,1,,,83,100
90892,note_off,,,,,1036,0,12,,,,,5,,,35,100
90892,note_off,,,,,1036,0,16,,,,,7,,,47,100
90892,note_off,,,,,0,0,15,,,,,7,,,71,100
90892,note_off,,,,,1036,0,14,,,,,6,,,47,100
90892,note_off,,,,,0,0,15,,,,,7,,,66,100
90892,note_off,,,,,1036,0,11,,,,,4,,,47,100
90892,note_off,,,,,1036,0,15,,,,,7,,,63,100
90892,note_off,,,,,0,0,13,,,,,6,,,71,100
90892,note_off,,,,,0,0,13,,,,,6,,,66,100
90892,note_off,,,,,1036,0,13,,,,,6,,,63,100
90912,note_on,,,,,32,0,8,,,,,1,,,81,93
90916,note_off,,,,,100,0,9,,,,,2,,,75,100
90916,note_off,,,,,100,0,10,,,,,3,,,63,100
90976,note_off,,,,,64,0,8,,,,,1,,,81,100
91008,note_on,,,,,116,0,13,,,,,6,,,64,100
91008,note_on,,,,,0,0,13,,,,,6,,,71,100
91008,note_on,,,,,92,0,10,,,,,3,,,59,100
91008,note_on,,,,,92,0,9,,,,,2,,,76,100
91008,note_on,,,,,116,0,16,,,,,7,,,52,100
91008,note_on,,,,,116,0,15,,,,,7,,,64,100
91008,note_on,,,,,116,0,11,,,,,4,,,52,95
91008,note_on,,,,,0,0,15,,,,,7,,,68,100
91008,note_on,,,,,116,0,12,,,,,5,,,40,95
91008,note_on,,,,,116,0,14,,,,,6,,,52,100
91008,note_on,,,,,0,0,13,,,,,6,,,68,100
91008,note_on,,,,,0,0,15,,,,,7,,,71,100
91008,note_on,,,,,32,0,8,,,,,1,,,80,94
91072,note_off,,,,,64,0,9,,,,,2,,,76,100
91104,note_on,,,,,32,0,9,,,,,2,,,71,100
91168,note_off,,,,,64,0,9,,,,,2,,,71,100
91196,note_off,,,,,188,0,8,,,,,1,,,80,100
91200,note_on,,,,,32,0,9,,,,,2,,,71,100
91200,note_on,,,,,4,0,8,,,,,1,,,76,94
91264,note_off,,,,,64,0,9,,,,,2,,,71,100
91296,note_on,,,,,32,0,9,,,,,2,,,68,100
91300,note_off,,,,,100,0,8,,,,,1,,,76,100
91360,note_off,,,,,64,0,9,,,,,2,,,68,100
91392,note_on,,,,,32,0,9,,,,,2,,,68,100
91392,note_on,,,,,92,0,8,,,,,1,,,71,92
91456,note_off,,,,,64,0,9,,,,,2,,,68,100
91488,note_on,,,,,32,0,9,,,,,2,,,64,100
91492,note_off,,,,,100,0,8,,,,,1,,,71,100
91552,note_off,,,,,64,0,9,,,,,2,,,64,100
91584,note_on,,,,,92,0,8,,,,,1,,,68,89
91584,note_on,,,,,32,0,9,,,,,2,,,64,89
91648,note_off,,,,,64,0,9,,,,,2,,,64,100
91680,note_on,,,,,32,0,9,,,,,2,,,68,89
91744,note_off,,,,,64,0,9,,,,,2,,,68,100
91772,note_off,,,,,188,0,8,,,,,1,,,68,100
91776,note_on,,,,,4,0,8,,,,,1,,,64,90
91776,note_on,,,,,32,0,9,,,,,2,,,68,90
91840,note_off,,,,,64,0,9,,,,,2,,,68,100
91872,note_on,,,,,32,0,9,,,,,2,,,76,91
91876,note_off,,,,,100,0,8,,,,,1,,,64,100
91888,note_off,,,,,880,0,10,,,,,3,,,59,100
91936,note_off,,,,,64,0,9,,,,,2,,,76,100
91968,note_on,,,,,80,0,10,,,,,3,,,64,92
91968,note_on,,,,,92,0,8,,,,,1,,,80,92
91968,note_on,,,,,32,0,9,,,,,2,,,76,92
92032,note_off,,,,,64,0,9,,,,,2,,,76,100
92044,note_off,,,,,1036,0,11,,,,,4,,,52,100
92044,note_off,,,,,1036,0,15,,,,,7,,,64,100
92044,note_off,,,,,0,0,15,,,,,7,,,68,100
92044,note_off,,,,,1036,0,16,,,,,7,,,52,100
92044,note_off,,,,,0,0,13,,,,,6,,,71,100
92044,note_off,,,,,0,0,13,,,,,6,,,68,100
92044,note_off,,,,,1036,0,13,,,,,6,,,64,100
92044,note_off,,,,,1036,0,12,,,,,5,,,40,100
92044,note_off,,,,,0,0,15,,,,,7,,,71,100
92044,note_off,,,,,1036,0,14,,,,,6,,,52,100
92064,note_on,,,,,32,0,9,,,,,2,,,74,93
92068,note_off,,,,,100,0,10,,,,,3,,,64,100
92068,note_off,,,,,100,0,8,,,,,1,,,80,100
92128,note_off,,,,,64,0,9,,,,,2,,,74,100
92160,note_on,,,,,92,0,8,,,,,1,,,81,95
92160,note_on,,,,,116,0,16,,,,,7,,,45,100
92160,note_on,,,,,116,0,13,,,,,6,,,61,100
92160,note_on,,,,,0,0,13,,,,,6,,,64,100
92160,note_on,,,,,0,0,13,,,,,6,,,69,100
92160,note_on,,,,,116,0,14,,,,,6,,,45,100
92160,note_on,,,,,116,0,12,,,,,5,,,33,90
92160,note_on,,,,,116,0,11,,,,,4,,,45,90
92160,note_on,,,,,0,0,15,,,,,7,,,64,100
92160,note_on,,,,,32,0,9,,,,,2,,,73,95
92160,note_on,,,,,92,0,10,,,,,3,,,64,95
92160,note_on,,,,,116,0,15,,,,,7,,,61,100
92160,note_on,,,,,0,0,15,,,,,7,,,69,100
92224,note_off,,,,,64,0,8,,,,,1,,,81,100
92256,note_on,,,,,32,0,8,,,,,1,,,76,94
92320,note_off,,,,,64,0,8,,,,,1,,,76,100
92348,note_off,,,,,188,0,9,,,,,2,,,73,100
92352,note_on,,,,,4,0,9,,,,,2,,,69,93
92352,note_on,,,,,32,0,8,,,,,1,,,76,93
92416,note_off,,,,,64,0,8,,,,,1,,,76,100
92448,note_on,,,,,32,0,8,,,,,1,,,73,92
92452,note_off,,,,,100,0,9,,,,,2,,,69,100
92512,note_off,,,,,64,0,8,,,,,1,,,73,100
92544,note_on,,,,,92,0,9,,,,,2,,,64,91
92544,note_on,,,,,32,0,8,,,,,1,,,73,91
92608,note_off,,,,,64,0,8,,,,,1,,,73,100
92640,note_on,,,,,32,0,8,,,,,1,,,69,90
92644,note_off,,,,,100,0,9,,,,,2,,,64,100
92704,note_off,,,,,64,0,8,,,,,1,,,69,100
92736,note_on,,,,,92,0,9,,,,,2,,,61,88
92736,note_on,,,,,32,0,8,,,,,1,,,69,88
92800,note_off,,,,,64,0,8,,,,,1,,,69,100
92832,note_on,,,,,32,0,8,,,,,1,,,73,88
92896,note_off,,,,,64,0,8,,,,,1,,,73,100
92924,note_off,,,,,188,0,9,,,,,2,,,61,100
92928,note_on,,,,,32,0,8,,,,,1,,,73,89
92928,note_on,,,,,4,0,9,,,,,2,,,57,89
92992,note_off,,,,,64,0,8,,,,,1,,,73,100
93024,note_on,,,,,32,0,8,,,,,1,,,81,90
93028,note_off,,,,,100,0,9,,,,,2,,,57,100
93040,note_off,,,,,880,0,10,,,,,3,,,64,100
93088,note_off,,,,,64,0,8,,,,,1,,,81,100
93120,note_on,,,,,92,0,9,,,,,2,,,73,91
93120,note_on,,,,,80,0,10,,,,,3,,,61,91
93120,note_on,,,,,32,0,8,,,,,1,,,81,91
93184,note_off,,,,,64,0,8,,,,,1,,,81,100
93196,note_off,,,,,1036,0,13,,,,,6,,,61,100
93196,note_off,,,,,0,0,13,,,,,6,,,64,100
93196,note_off,,,,,1036,0,11,,,,,4,,,45,100
93196,note_off,,,,,1036,0,14,,,,,6,,,45,100
93196,note_off,,,,,0,0,13,,,,,6,,,69,100
93196,note_off,,,,,1036,0,12,,,,,5,,,33,100
93196,note_off,,,,,0,0,15,,,,,7,,,69,100
93196,note_off,,,,,1036,0,16,,,,,7,,,45,100
93196,note_off,,,,,1036,0,15,,,,,7,,,61,100
93196,note_off,,,,,0,0,15,,,,,7,,,64,100
93216,note_on,,,,,32,0,8,,,,,1,,,79,92
93220,note_off,,,,,100,0,10,,,,,3,,,61,100
93220,note_off,,,,,100,0,9,,,,,2,,,73,100
93280,note_off,,,,,64,0,8,,,,,1,,,79,100
93312,note_on,,,,,0,0,15,,,,,7,,,69,100
93312,note_on,,,,,116,0,13,,,,,6,,,62,100
93312,note_on,,,,,92,0,9,,,,,2,,,74,95
93312,note_on,,,,,0,0,13,,,,,6,,,66,100
93312,note_on,,,,,0,0,15,,,,,7,,,66,100
93312,note_on,,,,,0,0,13,,,,,6,,,69,100
93312,note_on,,,,,116,0,14,,,,,6,,,50,100
93312,note_on,,,,,116,0,16,,,,,7,,,50,100
93312,note_on,,,,,32,0,8,,,,,1,,,78,95
93312,note_on,,,,,92,0,10,,,,,3,,,57,95
93312,note_on,,,,,116,0,11,,,,,4,,,50,95
93312,note_on,,,,,116,0,12,,,,,5,,,38,95
93312,note_on,,,,,116,0,15,,,,,7,,,62,100
93376,note_off,,,,,64,0,9,,,,,2,,,74,100
93408,note_on,,,,,32,0,9,,,,,2,,,69,94
93472,note_off,,,,,64,0,9,,,,,2,,,69,100
93500,note_off,,,,,188,0,8,,,,,1,,,78,100
93504,note_on,,,,,4,0,8,,,,,1,,,74,93
93504,note_on,,,,,32,0,9,,,,,2,,,69,93
93568,note_off,,,,,64,0,9,,,,,2,,,69,100
93600,note_on,,,,,32,0,9,,,,,2,,,66,92
93604,note_off,,,,,100,0,8,,,,,1,,,74,100
93664,note_off,,,,,64,0,9,,,,,2,,,66,100
93696,note_on,,,,,92,0,8,,,,,1,,,69,91
93696,note_on,,,,,32,0,9,,,,,2,,,66,91
93760,note_off,,,,,64,0,9,,,,,2,,,66,100
93792,note_on,,,,,32,0,9,,,,,2,,,62,90
93796,note_off,,,,,100,0,8,,,,,1,,,69,100
93856,note_off,,,,,64,0,9,,,,,2,,,62,100
93888,note_on,,,,,92,0,8,,,,,1,,,66,88
93888,note_on,,,,,32,0,9,,,,,2,,,62,88
93952,note_off,,,,,64,0,9,,,,,2,,,62,100
93984,note_on,,,,,32,0,9,,,,,2,,,66,90
94048,note_off,,,,,64,0,9,,,,,2,,,66,100
94076,note_off,,,,,188,0,8,,,,,1,,,66,100
94080,note_on,,,,,4,0,8,,,,,1,,,62,92
94080,note_on,,,,,32,0,9,,,,,2,,,66,92
94144,note_off,,,,,64,0,9,,,,,2,,,66,100
94176,note_on,,,,,32,0,9,,,,,2,,,74,94
94180,note_off,,,,,100,0,8,,,,,1,,,62,100
94240,note_off,,,,,64,0,9,,,,,2,,,74,100
94272,note_on,,,,,92,0,8,,,,,1,,,78,97
94272,note_on,,,,,32,0,9,,,,,2,,,74,97
94336,note_off,,,,,64,0,9,,,,,2,,,74,100
94348,note_off,,,,,1036,0,10,,,,,3,,,57,100
94348,note_off,,,,,1036,0,11,,,,,4,,,50,100
94348,note_off,,,,,0,0,13,,,,,6,,,69,100
94348,note_off,,,,,0,0,13,,,,,6,,,66,100
94348,note_off,,,,,1036,0,13,,,,,6,,,62,100
94348,note_off,,,,,1036,0,15,,,,,7,,,62,100
94348,note_off,,,,,1036,0,16,,,,,7,,,50,100
94348,note_off,,,,,1036,0,14,,,,,6,,,50,100
94348,note_off,,,,,1036,0,12,,,,,5,,,38,100
94348,note_off,,,,,0,0,15,,,,,7,,,66,100
94348,note_off,,,,,0,0,15,,,,,7,,,69,100
94368,note_on,,,,,32,0,9,,,,,2,,,72,99
94372,note_off,,,,,100,0,8,,,,,1,,,78,100
94432,note_off,,,,,64,0,9,,,,,2,,,72,100
94464,note_on,,,,,0,0,15,,,,,7,,,67,100
94464,note_on,,,,,116,0,14,,,,,6,,,43,100
94464,note_on,,,,,32,0,9,,,,,2,,,71,101
94464,note_on,,,,,116,0,11,,,,,4,,,43,101
94464,note_on,,,,,116,0,12,,,,,5,,,31,101
94464,note_on,,,,,0,0,15,,,,,7,,,62,100
94464,note_on,,,,,116,0,16,,,,,7,,,43,100
94464,note_on,,,,,116,0,10,,,,,3,,,62,101
94464,note_on,,,,,116,0,15,,,,,7,,,59,100
94464,note_on,,,,,0,0,13,,,,,6,,,67,100
94464,note_on,,,,,0,0,13,,,,,6,,,62,100
94464,note_on,,,,,116,0,13,,,,,6,,,59,100
94464,note_on,,,,,92,0,8,,,,,1,,,79,101
94528,note_off,,,,,64,0,9,,,,,2,,,71,100
94560,note_on,,,,,32,0,9,,,,,2,,,71,100
94564,note_off,,,,,100,0,8,,,,,1,,,79,100
94564,note_off,,,,,100,0,13,,,,,6,,,59,100
94564,note_off,,,,,100,0,15,,,,,7,,,59,100
94564,note_off,,,,,0,0,13,,,,,6,,,62,100
94564,note_off,,,,,100,0,11,,,,,4,,,43,100
94564,note_off,,,,,0,0,13,,,,,6,,,67,100
94564,note_off,,,,,100,0,14,,,,,6,,,43,100
94564,note_off,,,,,0,0,15,,,,,7,,,67,100
94564,note_off,,,,,100,0,16,,,,,7,,,43,100
94564,note_off,,,,,100,0,12,,,,,5,,,31,100
94564,note_off,,,,,0,0,15,,,,,7,,,62,100
94564,note_off,,,,,100,0,10,,,,,3,,,62,100
94624,note_off,,,,,64,0,9,,,,,2,,,71,100
94656,note_on,,,,,92,0,10,,,,,3,,,67,100
94656,note_on,,,,,92,0,8,,,,,1,,,71,100
94656,note_on,,,,,92,0,12,,,,,5,,,38,100
94656,note_on,,,,,0,0,13,,,,,6,,,71,100
94656,note_on,,,,,92,0,14,,,,,6,,,50,100
94656,note_on,,,,,92,0,11,,,,,4,,,50,100
94656,note_on,,,,,92,0,16,,,,,7,,,50,100
94656,note_on,,,,,32,0,9,,,,,2,,,72,100
94656,note_on,,,,,92,0,13,,,,,6,,,67,100
94656,note_on,,,,,0,0,15,,,,,7,,,71,100
94656,note_on,,,,,92,0,15,,,,,7,,,67,100
94720,note_off,,,,,64,0,9,,,,,2,,,72,100
94752,note_on,,,,,32,0,9,,,,,2,,,74,100
94756,note_off,,,,,100,0,13,,,,,6,,,67,100
94756,note_off,,,,,100,0,10,,,,,3,,,67,100
94756,note_off,,,,,0,0,13,,,,,6,,,71,100
94756,note_off,,,,,100,0,8,,,,,1,,,71,100
94756,note_off,,,,,100,0,15,,,,,7,,,67,100
94756,note_off,,,,,100,0,11,,,,,4,,,50,100
94756,note_off,,,,,100,0,14,,,,,6,,,50,100
94756,note_off,,,,,100,0,16,,,,,7,,,50,100
94756,note_off,,,,,0,0,15,,,,,7,,,71,100
94756,note_off,,,,,100,0,12,,,,,5,,,38,100
94816,note_off,,,,,64,0,9,,,,,2,,,74,100
94848,note_on,,,,,92,0,8,,,,,1,,,69,100
94848,note_on,,,,,0,0,13,,,,,6,,,69,100
94848,note_on,,,,,92,0,13,,,,,6,,,66,100
94848,note_on,,,,,92,0,16,,,,,7,,,38,100
94848,note_on,,,,,92,0,15,,,,,7,,,66,100
94848,note_on,,,,,0,0,15,,,,,7,,,69,100
94848,note_on,,,,,92,0,11,,,,,4,,,38,100
94848,note_on,,,,,92,0,10,,,,,3,,,62,100
94848,note_on,,,,,92,0,12,,,,,5,,,38,100
94848,note_on,,,,,32,0,9,,,,,2,,,76,100
94848,note_on,,,,,92,0,14,,,,,6,,,38,100
94912,note_off,,,,,64,0,9,,,,,2,,,76,100
94944,note_on,,,,,32,0,9,,,,,2,,,78,99
94948,note_off,,,,,0,0,15,,,,,7,,,69,100
94948,note_off,,,,,100,0,11,,,,,4,,,38,100
94948,note_off,,,,,100,0,8,,,,,1,,,69,100
94948,note_off,,,,,100,0,15,,,,,7,,,66,100
94948,note_off,,,,,100,0,16,,,,,7,,,38,100
94948,note_off,,,,,100,0,12,,,,,5,,,38,100
94948,note_off,,,,,100,0,14,,,,,6,,,38,100
94948,note_off,,,,,100,0,10,,,,,3,,,62,100
94948,note_off,,,,,100,0,13,,,,,6,,,66,100
94948,note_off,,,,,0,0,13,,,,,6,,,69,100
95008,note_off,,,,,64,0,9,,,,,2,,,78,100
95040,note_on,,,,,0,0,15,,,,,7,,,74,100
95040,note_on,,,,,92,0,16,,,,,7,,,55,100
95040,note_on,,,,,92,0,11,,,,,4,,,55,100
95040,note_on,,,,,0,0,13,,,,,6,,,67,100
95040,note_on,,,,,92,0,15,,,,,7,,,71,100
95040,note_on,,,,,92,0,12,,,,,5,,,43,100
95040,note_on,,,,,32,0,9,,,,,2,,,79,100
95040,note_on,,,,,0,0,15,,,,,7,,,67,100
95040,note_on,,,,,92,0,8,,,,,1,,,67,100
95040,note_on,,,,,92,0,14,,,,,6,,,55,100
95040,note_on,,,,,92,0,13,,,,,6,,,71,100
95040,note_on,,,,,92,0,10,,,,,3,,,59,100
95040,note_on,,,,,0,0,13,,,,,6,,,74,100
95104,note_off,,,,,64,0,8,,,,,1,,,67,100
95136,note_on,,,,,32,0,8,,,,,1,,,71,99
95140,note_off,,,,,0,0,13,,,,,6,,,67,100
95140,note_off,,,,,0,0,13,,,,,6,,,74,100
95140,note_off,,,,,100,0,13,,,,,6,,,71,100
95140,note_off,,,,,100,0,9,,,,,2,,,79,100
95140,note_off,,,,,100,0,10,,,,,3,,,59,100
95140,note_off,,,,,100,0,11,,,,,4,,,55,100
95140,note_off,,,,,0,0,15,,,,,7,,,67,100
95140,note_off,,,,,100,0,16,,,,,7,,,55,100
95140,note_off,,,,,0,0,15,,,,,7,,,74,100
95140,note_off,,,,,100,0,15,,,,,7,,,71,100
95140,note_off,,,,,100,0,12,,,,,5,,,43,100
95140,note_off,,,,,100,0,14,,,,,6,,,55,100
95200,note_off,,,,,64,0,8,,,,,1,,,71,100
95232,note_on,,,,,0,0,15,,,,,7,,,71,100
95232,note_on,,,,,92,0,15,,,,,7,,,67,100
95232,note_on,,,,,92,0,11,,,,,4,,,62,98
95232,note_on,,,,,92,0,13,,,,,6,,,67,100
95232,note_on,,,,,92,0,10,,,,,3,,,67,98
95232,note_on,,,,,92,0,16,,,,,7,,,62,100
95232,note_on,,,,,32,0,8,,,,,1,,,72,98
95232,note_on,,,,,92,0,12,,,,,5,,,50,98
95232,note_on,,,,,0,0,13,,,,,6,,,71,100
95232,note_on,,,,,92,0,14,,,,,6,,,62,100
95232,note_on,,,,,92,0,9,,,,,2,,,71,98
95296,note_off,,,,,64,0,8,,,,,1,,,72,100
95328,note_on,,,,,32,0,8,,,,,1,,,74,97
95332,note_off,,,,,0,0,13,,,,,6,,,71,100
95332,note_off,,,,,100,0,9,,,,,2,,,71,100
95332,note_off,,,,,100,0,16,,,,,7,,,62,100
95332,note_off,,,,,100,0,11,,,,,4,,,62,100
95332,note_off,,,,,100,0,10,,,,,3,,,67,100
95332,note_off,,,,,100,0,15,,,,,7,,,67,100
95332,note_off,,,,,100,0,14,,,,,6,,,62,100
95332,note_off,,,,,100,0,13,,,,,6,,,67,100
95332,note_off,,,,,0,0,15,,,,,7,,,71,100
95332,note_off,,,,,100,0,12,,,,,5,,,50,100
95392,note_off,,,,,64,0,8,,,,,1,,,74,100
95424,note_on,,,,,32,0,8,,,,,1,,,76,96
95424,note_on,,,,,92,0,13,,,,,6,,,66,100
95424,note_on,,,,,0,0,13,,,,,6,,,69,100
95424,note_on,,,,,92,0,11,,,,,4,,,50,96
95424,note_on,,,,,92,0,10,,,,,3,,,62,96
95424,note_on,,,,,92,0,15,,,,,7,,,66,100
95424,note_on,,,,,92,0,12,,,,,5,,,38,96
95424,note_on,,,,,0,0,15,,,,,7,,,69,100
95424,note_on,,,,,92,0,14,,,,,6,,,50,100
95424,note_on,,,,,92,0,9,,,,,2,,,69,96
95424,note_on,,,,,92,0,16,,,,,7,,,50,100
95488,note_off,,,,,64,0,8,,,,,1,,,76,100
95520,note_on,,,,,32,0,8,,,,,1,,,78,94
95524,note_off,,,,,100,0,9,,,,,2,,,69,100
95524,note_off,,,,,100,0,16,,,,,7,,,50,100
95524,note_off,,,,,100,0,13,,,,,6,,,66,100
95524,note_off,,,,,100,0,11,,,,,4,,,50,100
95524,note_off,,,,,0,0,15,,,,,7,,,69,100
95524,note_off,,,,,100,0,15,,,,,7,,,66,100
95524,note_off,,,,,0,0,13,,,,,6,,,69,100
95524,note_off,,,,,100,0,14,,,,,6,,,50,100
95524,note_off,,,,,100,0,10,,,,,3,,,62,100
95524,note_off,,,,,100,0,12,,,,,5,,,38,100
95584,note_off,,,,,64,0,8,,,,,1,,,78,100
95616,note_on,,,,,92,0,16,,,,,7,,,43,100
95616,note_on,,,,,92,0,9,,,,,2,,,67,93
95616,note_on,,,,,32,0,8,,,,,1,,,79,93
95616,note_on,,,,,0,0,13,,,,,6,,,67,100
95616,note_on,,,,,0,0,13,,,,,6,,,62,100
95616,note_on,,,,,92,0,13,,,,,6,,,59,100
95616,note_on,,,,,92,0,12,,,,,5,,,31,93
95616,note_on,,,,,92,0,10,,,,,3,,,59,93
95616,note_on,,,,,0,0,15,,,,,7,,,67,100
95616,note_on,,,,,0,0,15,,,,,7,,,62,100
95616,note_on,,,,,92,0,11,,,,,4,,,43,93
95616,note_on,,,,,92,0,15,,,,,7,,,59,100
95616,note_on,,,,,92,0,14,,,,,6,,,43,100
95680,note_off,,,,,64,0,9,,,,,2,,,67,100
95712,note_on,,,,,32,0,9,,,,,2,,,71,92
95716,note_off,,,,,0,0,15,,,,,7,,,67,100
95716,note_off,,,,,0,0,15,,,,,7,,,62,100
95716,note_off,,,,,100,0,15,,,,,7,,,59,100
95716,note_off,,,,,100,0,14,,,,,6,,,43,100
95716,note_off,,,,,100,0,8,,,,,1,,,79,100
95716,note_off,,,,,0,0,13,,,,,6,,,62,100
95716,note_off,,,,,100,0,10,,,,,3,,,59,100
95716,note_off,,,,,100,0,13,,,,,6,,,59,100
95716,note_off,,,,,100,0,11,,,,,4,,,43,100
95716,note_off,,,,,0,0,13,,,,,6,,,67,100
95716,note_off,,,,,100,0,12,,,,,5,,,31,100
95716,note_off,,,,,100,0,16,,,,,7,,,43,100
95776,note_off,,,,,64,0,9,,,,,2,,,71,100
95808,note_on,,,,,92,0,13,,,,,6,,,67,100
95808,note_on,,,,,92,0,16,,,,,7,,,50,100
95808,note_on,,,,,92,0,14,,,,,6,,,50,100
95808,note_on,,,,,92,0,12,,,,,5,,,38,91
95808,note_on,,,,,92,0,15,,,,,7,,,67,100
95808,note_on,,,,,32,0,9,,,,,2,,,72,91
95808,note_on,,,,,92,0,10,,,,,3,,,67,91
95808,note_on,,,,,92,0,8,,,,,1,,,71,91
95808,note_on,,,,,92,0,11,,,,,4,,,50,91
95808,note_on,,,,,0,0,13,,,,,6,,,71,100
95808,note_on,,,,,0,0,15,,,,,7,,,71,100
95872,note_off,,,,,64,0,9,,,,,2,,,72,100
95904,note_on,,,,,32,0,9,,,,,2,,,74,89
95908,note_off,,,,,100,0,13,,,,,6,,,67,100
95908,note_off,,,,,0,0,13,,,,,6,,,71,100
95908,note_off,,,,,100,0,10,,,,,3,,,67,100
95908,note_off,,,,,100,0,8,,,,,1,,,71,100
95908,note_off,,,,,0,0,15,,,,,7,,,71,100
95908,note_off,,,,,100,0,12,,,,,5,,,38,100
95908,note_off,,,,,100,0,15,,,,,7,,,67,100
95908,note_off,,,,,100,0,11,,,,,4,,,50,100
95908,note_off,,,,,100,0,16,,,,,7,,,50,100
95908,note_off,,,,,100,0,14,,,,,6,,,50,100
95968,note_off,,,,,64,0,9,,,,,2,,,74,100
96000,note_on,,,,,92,0,12,,,,,5,,,38,88
96000,note_on,,,,,92,0,10,,,,,3,,,62,88
96000,note_on,,,,,92,0,8,,,,,1,,,69,88
96000,note_on,,,,,92,0,11,,,,,4,,,38,88
96000,note_on,,,,,92,0,16,,,,,7,,,38,100
96000,note_on,,,,,32,0,9,,,,,2,,,76,88
96000,note_on,,,,,92,0,13,,,,,6,,,66,100
96000,note_on,,,,,0,0,13,,,,,6,,,69,100
96000,note_on,,,,,92,0,14,,,,,6,,,38,100
96000,note_on,,,,,92,0,15,,,,,7,,,66,100
96000,note_on,,,,,0,0,15,,,,,7,,,69,100
96064,note_off,,,,,64,0,9,,,,,2,,,76,100
96096,note_on,,,,,32,0,9,,,,,2,,,78,87
96100,note_off,,,,,0,0,13,,,,,6,,,69,100
96100,note_off,,,,,100,0,12,,,,,5,,,38,100
96100,note_off,,,,,100,0,8,,,,,1,,,69,100
96100,note_off,,,,,100,0,14,,,,,6,,,38,100
96100,note_off,,,,,100,0,13,,,,,6,,,66,100
96100,note_off,,,,,100,0,15,,,,,7,,,66,100
96100,note_off,,,,,100,0,16,,,,,7,,,38,100
96100,note_off,,,,,100,0,10,,,,,3,,,62,100
96100,note_off,,,,,100,0,11,,,,,4,,,38,100
96100,note_off,,,,,0,0,15,,,,,7,,,69,100
96160,note_off,,,,,64,0,9,,,,,2,,,78,100
96192,note_on,,,,,92,0,14,,,,,6,,,55,100
96192,note_on,,,,,92,0,10,,,,,3,,,59,86
96192,note_on,,,,,92,0,12,,,,,5,,,43,86
96192,note_on,,,,,92,0,15,,,,,7,,,71,100
96192,note_on,,,,,92,0,8,,,,,1,,,67,86
96192,note_on,,,,,92,0,16,,,,,7,,,55,100
96192,note_on,,,,,92,0,11,,,,,4,,,55,86
96192,note_on,,,,,0,0,15,,,,,7,,,74,100
96192,note_on,,,,,0,0,15,,,,,7,,,67,100
96192,note_on,,,,,32,0,9,,,,,2,,,79,86
96192,note_on,,,,,0,0,13,,,,,6,,,67,100
96192,note_on,,,,,0,0,13,,,,,6,,,74,100
96192,note_on,,,,,92,0,13,,,,,6,,,71,100
96256,note_off,,,,,64,0,8,,,,,1,,,67,100
96288,note_on,,,,,32,0,8,,,,,1,,,71,85
96292,note_off,,,,,0,0,13,,,,,6,,,67,100
96292,note_off,,,,,0,0,13,,,,,6,,,74,100
96292,note_off,,,,,100,0,13,,,,,6,,,71,100
96292,note_off,,,,,100,0,14,,,,,6,,,55,100
96292,note_off,,,,,100,0,16,,,,,7,,,55,100
96292,note_off,,,,,100,0,9,,,,,2,,,79,100
96292,note_off,,,,,100,0,11,,,,,4,,,55,100
96292,note_off,,,,,100,0,10,,,,,3,,,59,100
96292,note_off,,,,,100,0,12,,,,,5,,,43,100
96292,note_off,,,,,0,0,15,,,,,7,,,67,100
96292,note_off,,,,,0,0,15,,,,,7,,,74,100
96292,note_off,,,,,100,0,15,,,,,7,,,71,100
96352,note_off,,,,,64,0,8,,,,,1,,,71,100
96384,note_on,,,,,92,0,12,,,,,5,,,50,85
96384,note_on,,,,,92,0,9,,,,,2,,,71,85
96384,note_on,,,,,92,0,16,,,,,7,,,62,100
96384,note_on,,,,,0,0,15,,,,,7,,,71,100
96384,note_on,,,,,92,0,15,,,,,7,,,67,100
96384,note_on,,,,,32,0,8,,,,,1,,,72,85
96384,note_on,,,,,92,0,13,,,,,6,,,67,100
96384,note_on,,,,,0,0,13,,,,,6,,,71,100
96384,note_on,,,,,92,0,11,,,,,4,,,62,85
96384,note_on,,,,,92,0,14,,,,,6,,,62,100
96384,note_on,,,,,92,0,10,,,,,3,,,67,85
96448,note_off,,,,,64,0,8,,,,,1,,,72,100
96480,note_on,,,,,32,0,8,,,,,1,,,74,85
96484,note_off,,,,,100,0,15,,,,,7,,,67,100
96484,note_off,,,,,100,0,16,,,,,7,,,62,100
96484,note_off,,,,,100,0,14,,,,,6,,,62,100
96484,note_off,,,,,100,0,9,,,,,2,,,71,100
96484,note_off,,,,,0,0,13,,,,,6,,,71,100
96484,note_off,,,,,0,0,15,,,,,7,,,71,100
96484,note_off,,,,,100,0,13,,,,,6,,,67,100
96484,note_off,,,,,100,0,12,,,,,5,,,50,100
96484,note_off,,,,,100,0,11,,,,,4,,,62,100
96484,note_off,,,,,100,0,10,,,,,3,,,67,100
96544,note_off,,,,,64,0,8,,,,,1,,,74,100
96576,note_on,,,,,0,0,15,,,,,7,,,69,100
96576,note_on,,,,,32,0,8,,,,,1,,,76,85
96576,note_on,,,,,92,0,11,,,,,4,,,50,85
96576,note_on,,,,,92,0,9,,,,,2,,,69,85
96576,note_on,,,,,92,0,14,,,,,6,,,50,100
96576,note_on,,,,,0,0,13,,,,,6,,,69,100
96576,note_on,,,,,92,0,13,,,,,6,,,66,100
96576,note_on,,,,,92,0,16,,,,,7,,,50,100
96576,note_on,,,,,92,0,10,,,,,3,,,62,85
96576,note_on,,,,,92,0,12,,,,,5,,,38,85
96576,note_on,,,,,92,0,15,,,,,7,,,66,100
96640,note_off,,,,,64,0,8,,,,,1,,,76,100
96672,note_on,,,,,32,0,8,,,,,1,,,78,85
96676,note_off,,,,,100,0,13,,,,,6,,,66,100
96676,note_off,,,,,100,0,15,,,,,7,,,66,100
96676,note_off,,,,,0,0,13,,,,,6,,,69,100
96676,note_off,,,,,0,0,15,,,,,7,,,69,100
96676,note_off,,,,,100,0,16,,,,,7,,,50,100
96676,note_off,,,,,100,0,14,,,,,6,,,50,100
96676,note_off,,,,,100,0,12,,,,,5,,,38,100
96676,note_off,,,,,100,0,9,,,,,2,,,69,100
96676,note_off,,,,,100,0,10,,,,,3,,,62,100
96676,note_off,,,,,100,0,11,,,,,4,,,50,100
96736,note_off,,,,,64,0,8,,,,,1,,,78,100
96768,note_on,,,,,0,0,15,,,,,7,,,62,100
96768,note_on,,,,,92,0,12,,,,,5,,,31,85
96768,note_on,,,,,0,0,13,,,,,6,,,67,100
96768,note_on,,,,,92,0,10,,,,,3,,,59,85
96768,note_on,,,,,92,0,14,,,,,6,,,43,100
96768,note_on,,,,,0,0,15,,,,,7,,,67,100
96768,note_on,,,,,92,0,11,,,,,4,,,43,85
96768,note_on,,,,,92,0,13,,,,,6,,,59,100
96768,note_on,,,,,32,0,8,,,,,1,,,79,85
96768,note_on,,,,,92,0,16,,,,,7,,,43,100
96768,note_on,,,,,92,0,9,,,,,2,,,67,85
96768,note_on,,,,,6812,0,7,,,,,0,,,79,93
96768,note_on,,,,,92,0,15,,,,,7,,,59,100
96768,note_on,,,,,0,0,13,,,,,6,,,62,100
96860,note_off,,,,,92,0,7,,,,,0,,,79,100
96864,note_on,,,,,4,0,7,,,,,0,,,74,93
96868,note_off,,,,,100,0,13,,,,,6,,,59,100
96868,note_off,,,,,100,0,14,,,,,6,,,43,100
96868,note_off,,,,,100,0,11,,,,,4,,,43,100
96868,note_off,,,,,0,0,13,,,,,6,,,62,100
96868,note_off,,,,,0,0,13,,,,,6,,,67,100
96956,note_off,,,,,92,0,7,,,,,0,,,74,100
96960,note_on,,,,,4,0,7,,,,,0,,,72,93
96960,note_on,,,,,0,0,13,,,,,6,,,71,100
96960,note_on,,,,,92,0,13,,,,,6,,,62,100
96960,note_on,,,,,92,0,11,,,,,4,,,55,80
96960,note_on,,,,,92,0,14,,,,,6,,,55,100
97024,note_off,,,,,256,0,15,,,,,7,,,59,100
97024,note_off,,,,,0,0,15,,,,,7,,,62,100
97024,note_off,,,,,0,0,15,,,,,7,,,67,100
97024,note_off,,,,,256,0,16,,,,,7,,,43,100
97024,note_off,,,,,256,0,12,,,,,5,,,31,100
97024,note_off,,,,,256,0,8,,,,,1,,,79,100
97024,note_off,,,,,256,0,9,,,,,2,,,67,100
97024,note_off,,,,,256,0,10,,,,,3,,,59,100
97052,note_off,,,,,92,0,7,,,,,0,,,72,100
97056,note_on,,,,,4,0,7,,,,,0,,,71,93
97060,note_off,,,,,100,0,11,,,,,4,,,55,100
97060,note_off,,,,,100,0,13,,,,,6,,,62,100
97060,note_off,,,,,0,0,13,,,,,6,,,71,100
97060,note_off,,,,,100,0,14,,,,,6,,,55,100
97148,note_off,,,,,92,0,7,,,,,0,,,71,100
97152,note_on,,,,,4,0,7,,,,,0,,,72,93
97152,note_on,,,,,0,0,13,,,,,6,,,59,100
97152,note_on,,,,,92,0,13,,,,,6,,,62,100
97152,note_on,,,,,92,0,11,,,,,4,,,43,80
97152,note_on,,,,,92,0,14,,,,,6,,,43,100
97244,note_off,,,,,92,0,7,,,,,0,,,72,100
97248,note_on,,,,,4,0,7,,,,,0,,,74,93
97252,note_off,,,,,0,0,13,,,,,6,,,59,100
97252,note_off,,,,,100,0,13,,,,,6,,,62,100
97252,note_off,,,,,100,0,14,,,,,6,,,43,100
97252,note_off,,,,,100,0,11,,,,,4,,,43,100
97312,note_off,,,,,64,0,7,,,,,0,,,74,100
97344,note_on,,,,,32,0,7,,,,,0,,,79,93
97436,note_off,,,,,92,0,7,,,,,0,,,79,100
97440,note_on,,,,,4,0,7,,,,,0,,,74,93
97532,note_off,,,,,92,0,7,,,,,0,,,74,100
97536,note_on,,,,,284,0,14,,,,,6,,,55,100
97536,note_on,,,,,0,0,13,,,,,6,,,71,100
97536,note_on,,,,,4,0,7,,,,,0,,,72,93
97536,note_on,,,,,284,0,13,,,,,6,,,62,100
97536,note_on,,,,,284,0,11,,,,,4,,,55,80
97628,note_off,,,,,92,0,7,,,,,0,,,72,100
97632,note_on,,,,,4,0,7,,,,,0,,,71,92
97636,note_off,,,,,100,0,11,,,,,4,,,55,100
97636,note_off,,,,,100,0,14,,,,,6,,,55,100
97636,note_off,,,,,0,0,13,,,,,6,,,71,100
97636,note_off,,,,,100,0,13,,,,,6,,,62,100
97724,note_off,,,,,92,0,7,,,,,0,,,71,100
97728,note_on,,,,,92,0,11,,,,,4,,,43,80
97728,note_on,,,,,0,0,13,,,,,6,,,59,100
97728,note_on,,,,,92,0,14,,,,,6,,,43,100
97728,note_on,,,,,92,0,13,,,,,6,,,62,100
97728,note_on,,,,,4,0,7,,,,,0,,,72,91
97820,note_off,,,,,92,0,7,,,,,0,,,72,100
97824,note_on,,,,,4,0,7,,,,,0,,,74,90
97828,note_off,,,,,100,0,14,,,,,6,,,43,100
97828,note_off,,,,,0,0,13,,,,,6,,,59,100
97828,note_off,,,,,100,0,13,,,,,6,,,62,100
97828,note_off,,,,,100,0,11,,,,,4,,,43,100
97888,note_off,,,,,64,0,7,,,,,0,,,74,100
97920,note_on,,,,,32,0,7,,,,,0,,,72,89
98012,note_off,,,,,92,0,7,,,,,0,,,72,100
98016,note_on,,,,,4,0,7,,,,,0,,,67,89
98108,note_off,,,,,92,0,7,,,,,0,,,67,100
98112,note_on,,,,,4,0,7,,,,,0,,,66,89
98112,note_on,,,,,0,0,13,,,,,6,,,64,100
98112,note_on,,,,,284,0,13,,,,,6,,,72,100
98112,note_on,,,,,284,0,11,,,,,4,,,60,80
98112,note_on,,,,,284,0,14,,,,,6,,,60,100
98204,note_off,,,,,92,0,7,,,,,0,,,66,100
98208,note_on,,,,,4,0,7,,,,,0,,,64,89
98212,note_off,,,,,0,0,13,,,,,6,,,64,100
98212,note_off,,,,,100,0,13,,,,,6,,,72,100
98212,note_off,,,,,100,0,11,,,,,4,,,60,100
98212,note_off,,,,,100,0,14,,,,,6,,,60,100
98300,note_off,,,,,92,0,7,,,,,0,,,64,100
98304,note_on,,,,,0,0,13,,,,,6,,,64,100
98304,note_on,,,,,92,0,11,,,,,4,,,48,80
98304,note_on,,,,,4,0,7,,,,,0,,,66,89
98304,note_on,,,,,92,0,13,,,,,6,,,72,100
98304,note_on,,,,,92,0,14,,,,,6,,,48,100
98396,note_off,,,,,92,0,7,,,,,0,,,66,100
98400,note_on,,,,,4,0,7,,,,,0,,,67,89
98404,note_off,,,,,0,0,13,,,,,6,,,64,100
98404,note_off,,,,,100,0,13,,,,,6,,,72,100
98404,note_off,,,,,100,0,14,,,,,6,,,48,100
98404,note_off,,,,,100,0,11,,,,,4,,,48,100
98464,note_off,,,,,64,0,7,,,,,0,,,67,100
98496,note_on,,,,,32,0,7,,,,,0,,,72,89
98588,note_off,,,,,92,0,7,,,,,0,,,72,100
98592,note_on,,,,,4,0,7,,,,,0,,,67,89
98684,note_off,,,,,92,0,7,,,,,0,,,67,100
98688,note_on,,,,,284,0,11,,,,,4,,,60,80
98688,note_on,,,,,284,0,14,,,,,6,,,60,100
98688,note_on,,,,,0,0,13,,,,,6,,,64,100
98688,note_on,,,,,284,0,13,,,,,6,,,72,100
98688,note_on,,,,,4,0,7,,,,,0,,,66,89
98780,note_off,,,,,92,0,7,,,,,0,,,66,100
98784,note_on,,,,,4,0,7,,,,,0,,,64,89
98788,note_off,,,,,100,0,14,,,,,6,,,60,100
98788,note_off,,,,,100,0,11,,,,,4,,,60,100
98788,note_off,,,,,0,0,13,,,,,6,,,64,100
98788,note_off,,,,,100,0,13,,,,,6,,,72,100
98876,note_off,,,,,92,0,7,,,,,0,,,64,100
98880,note_on,,,,,92,0,14,,,,,6,,,48,100
98880,note_on,,,,,92,0,11,,,,,4,,,48,80
98880,note_on,,,,,92,0,13,,,,,6,,,72,100
98880,note_on,,,,,0,0,13,,,,,6,,,64,100
98880,note_on,,,,,4,0,7,,,,,0,,,66,89
98972,note_off,,,,,92,0,7,,,,,0,,,66,100
98976,note_on,,,,,4,0,7,,,,,0,,,67,89
98980,note_off,,,,,100,0,14,,,,,6,,,48,100
98980,note_off,,,,,100,0,11,,,,,4,,,48,100
98980,note_off,,,,,0,0,13,,,,,6,,,64,100
98980,note_off,,,,,100,0,13,,,,,6,,,72,100
99040,note_off,,,,,64,0,7,,,,,0,,,67,100
99072,note_on,,,,,32,0,7,,,,,0,,,81,96
99164,note_off,,,,,92,0,7,,,,,0,,,81,100
99168,note_on,,,,,4,0,7,,,,,0,,,76,96
99260,note_off,,,,,92,0,7,,,,,0,,,76,100
99264,note_on,,,,,284,0,14,,,,,6,,,57,100
99264,note_on,,,,,4,0,7,,,,,0,,,74,96
99264,note_on,,,,,0,0,13,,,,,6,,,64,100
99264,note_on,,,,,284,0,13,,,,,6,,,73,100
99264,note_on,,,,,284,0,11,,,,,4,,,57,80
99356,note_off,,,,,92,0,7,,,,,0,,,74,100
99360,note_on,,,,,4,0,7,,,,,0,,,73,96
99364,note_off,,,,,0,0,13,,,,,6,,,64,100
99364,note_off,,,,,100,0,13,,,,,6,,,73,100
99364,note_off,,,,,100,0,11,,,,,4,,,57,100
99364,note_off,,,,,100,0,14,,,,,6,,,57,100
99452,note_off,,,,,92,0,7,,,,,0,,,73,100
99456,note_on,,,,,92,0,11,,,,,4,,,45,80
99456,note_on,,,,,0,0,13,,,,,6,,,64,100
99456,note_on,,,,,4,0,7,,,,,0,,,74,96
99456,note_on,,,,,92,0,14,,,,,6,,,45,100
99456,note_on,,,,,92,0,13,,,,,6,,,73,100
99548,note_off,,,,,92,0,7,,,,,0,,,74,100
99552,note_on,,,,,4,0,7,,,,,0,,,76,96
99556,note_off,,,,,100,0,14,,,,,6,,,45,100
99556,note_off,,,,,100,0,11,,,,,4,,,45,100
99556,note_off,,,,,100,0,13,,,,,6,,,73,100
99556,note_off,,,,,0,0,13,,,,,6,,,64,100
99616,note_off,,,,,64,0,7,,,,,0,,,76,100
99648,note_on,,,,,32,0,7,,,,,0,,,81,96
99740,note_off,,,,,92,0,7,,,,,0,,,81,100
99744,note_on,,,,,4,0,7,,,,,0,,,76,96
99836,note_off,,,,,92,0,7,,,,,0,,,76,100
99840,note_on,,,,,0,0,13,,,,,6,,,64,100
99840,note_on,,,,,284,0,13,,,,,6,,,73,100
99840,note_on,,,,,4,0,7,,,,,0,,,74,95
99840,note_on,,,,,284,0,11,,,,,4,,,57,80
99840,note_on,,,,,284,0,14,,,,,6,,,57,100
99932,note_off,,,,,92,0,7,,,,,0,,,74,100
99936,note_on,,,,,4,0,7,,,,,0,,,73,94
99940,note_off,,,,,100,0,11,,,,,4,,,57,100
99940,note_off,,,,,100,0,14,,,,,6,,,57,100
99940,note_off,,,,,100,0,13,,,,,6,,,73,100
99940,note_off,,,,,0,0,13,,,,,6,,,64,100
100028,note_off,,,,,92,0,7,,,,,0,,,73,100
100032,note_on,,,,,92,0,11,,,,,4,,,45,80
100032,note_on,,,,,92,0,14,,,,,6,,,45,100
100032,note_on,,,,,4,0,7,,,,,0,,,74,93
100032,note_on,,,,,92,0,13,,,,,6,,,73,100
100032,note_on,,,,,0,0,13,,,,,6,,,64,100
100124,note_off,,,,,92,0,7,,,,,0,,,74,100
100128,note_on,,,,,4,0,7,,,,,0,,,76,92
100132,note_off,,,,,0,0,13,,,,,6,,,64,100
100132,note_off,,,,,100,0,14,,,,,6,,,45,100
100132,note_off,,,,,100,0,11,,,,,4,,,45,100
100132,note_off,,,,,100,0,13,,,,,6,,,73,100
100192,note_off,,,,,64,0,7,,,,,0,,,76,100
100224,note_on,,,,,32,0,7,,,,,0,,,74,91
100316,note_off,,,,,92,0,7,,,,,0,,,74,100
100320,note_on,,,,,4,0,7,,,,,0,,,69,91
100412,note_off,,,,,92,0,7,,,,,0,,,69,100
100416,note_on,,,,,284,0,14,,,,,6,,,62,100
100416,note_on,,,,,284,0,11,,,,,4,,,62,80
100416,note_on,,,,,0,0,13,,,,,6,,,66,100
100416,note_on,,,,,4,0,7,,,,,0,,,67,91
100416,note_on,,,,,284,0,13,,,,,6,,,74,100
100508,note_off,,,,,92,0,7,,,,,0,,,67,100
100512,note_on,,,,,4,0,7,,,,,0,,,66,91
100516,note_off,,,,,100,0,11,,,,,4,,,62,100
100516,note_off,,,,,0,0,13,,,,,6,,,66,100
100516,note_off,,,,,100,0,14,,,,,6,,,62,100
100516,note_off,,,,,100,0,13,,,,,6,,,74,100
100604,note_off,,,,,92,0,7,,,,,0,,,66,100
100608,note_on,,,,,4,0,7,,,,,0,,,67,91
100608,note_on,,,,,0,0,13,,,,,6,,,66,100
100608,note_on,,,,,92,0,13,,,,,6,,,74,100
100608,note_on,,,,,92,0,11,,,,,4,,,50,80
100608,note_on,,,,,92,0,14,,,,,6,,,50,100
100700,note_off,,,,,92,0,7,,,,,0,,,67,100
100704,note_on,,,,,4,0,7,,,,,0,,,69,91
100708,note_off,,,,,100,0,13,,,,,6,,,74,100
100708,note_off,,,,,100,0,14,,,,,6,,,50,100
100708,note_off,,,,,100,0,11,,,,,4,,,50,100
100708,note_off,,,,,0,0,13,,,,,6,,,66,100
100768,note_off,,,,,64,0,7,,,,,0,,,69,100
100800,note_on,,,,,32,0,7,,,,,0,,,74,91
100892,note_off,,,,,92,0,7,,,,,0,,,74,100
100896,note_on,,,,,4,0,7,,,,,0,,,69,91
100988,note_off,,,,,92,0,7,,,,,0,,,69,100
100992,note_on,,,,,4,0,7,,,,,0,,,67,91
100992,note_on,,,,,284,0,14,,,,,6,,,62,100
100992,note_on,,,,,284,0,11,,,,,4,,,62,80
100992,note_on,,,,,0,0,13,,,,,6,,,66,100
100992,note_on,,,,,284,0,13,,,,,6,,,74,100
101084,note_off,,,,,92,0,7,,,,,0,,,67,100
101088,note_on,,,,,4,0,7,,,,,0,,,66,91
101092,note_off,,,,,0,0,13,,,,,6,,,66,100
101092,note_off,,,,,100,0,14,,,,,6,,,62,100
101092,note_off,,,,,100,0,13,,,,,6,,,74,100
101092,note_off,,,,,100,0,11,,,,,4,,,62,100
101180,note_off,,,,,92,0,7,,,,,0,,,66,100
101184,note_on,,,,,92,0,13,,,,,6,,,74,100
101184,note_on,,,,,0,0,13,,,,,6,,,66,100
101184,note_on,,,,,92,0,11,,,,,4,,,50,80
101184,note_on,,,,,4,0,7,,,,,0,,,67,91
101184,note_on,,,,,92,0,14,,,,,6,,,50,100
101276,note_off,,,,,92,0,7,,,,,0,,,67,100
101280,note_on,,,,,4,0,7,,,,,0,,,69,91
101284,note_off,,,,,100,0,11,,,,,4,,,50,100
101284,note_off,,,,,100,0,13,,,,,6,,,74,100
101284,note_off,,,,,0,0,13,,,,,6,,,66,100
101284,note_off,,,,,100,0,14,,,,,6,,,50,100
101344,note_off,,,,,64,0,7,,,,,0,,,69,100
101376,note_on,,,,,32,0,7,,,,,0,,,83,99
101468,note_off,,,,,92,0,7,,,,,0,,,83,100
101472,note_on,,,,,4,0,7,,,,,0,,,78,99
101564,note_off,,,,,92,0,7,,,,,0,,,78,100
101568,note_on,,,,,4,0,7,,,,,0,,,76,99
101568,note_on,,,,,284,0,14,,,,,6,,,59,100
101568,note_on,,,,,0,0,13,,,,,6,,,66,100
101568,note_on,,,,,284,0,13,,,,,6,,,75,100
101568,note_on,,,,,284,0,11,,,,,4,,,59,80
101660,note_off,,,,,92,0,7,,,,,0,,,76,100
101664,note_on,,,,,4,0,7,,,,,0,,,75,99
101668,note_off,,,,,100,0,11,,,,,4,,,59,100
101668,note_off,,,,,100,0,13,,,,,6,,,75,100
101668,note_off,,,,,0,0,13,,,,,6,,,66,100
101668,note_off,,,,,100,0,14,,,,,6,,,59,100
101756,note_off,,,,,92,0,7,,,,,0,,,75,100
101760,note_on,,,,,0,0,13,,,,,6,,,66,100
101760,note_on,,,,,92,0,13,,,,,6,,,75,100
101760,note_on,,,,,4,0,7,,,,,0,,,76,99
101760,note_on,,,,,92,0,14,,,,,6,,,47,100
101760,note_on,,,,,92,0,11,,,,,4,,,47,80
101852,note_off,,,,,92,0,7,,,,,0,,,76,100
101856,note_on,,,,,4,0,7,,,,,0,,,78,99
101860,note_off,,,,,100,0,14,,,,,6,,,47,100
101860,note_off,,,,,100,0,11,,,,,4,,,47,100
101860,note_off,,,,,0,0,13,,,,,6,,,66,100
101860,note_off,,,,,100,0,13,,,,,6,,,75,100
101920,note_off,,,,,64,0,7,,,,,0,,,78,100
101952,note_on,,,,,32,0,7,,,,,0,,,83,99
102044,note_off,,,,,92,0,7,,,,,0,,,83,100
102048,note_on,,,,,4,0,7,,,,,0,,,78,99
102140,note_off,,,,,92,0,7,,,,,0,,,78,100
102144,note_on,,,,,0,0,13,,,,,6,,,66,100
102144,note_on,,,,,4,0,7,,,,,0,,,76,98
102144,note_on,,,,,284,0,14,,,,,6,,,59,100
102144,note_on,,,,,284,0,13,,,,,6,,,75,100
102144,note_on,,,,,284,0,11,,,,,4,,,59,80
102236,note_off,,,,,92,0,7,,,,,0,,,76,100
102240,note_on,,,,,4,0,7,,,,,0,,,75,97
102244,note_off,,,,,100,0,14,,,,,6,,,59,100
102244,note_off,,,,,0,0,13,,,,,6,,,66,100
102244,note_off,,,,,100,0,13,,,,,6,,,75,100
102244,note_off,,,,,100,0,11,,,,,4,,,59,100
102332,note_off,,,,,92,0,7,,,,,0,,,75,100
102336,note_on,,,,,0,0,13,,,,,6,,,66,100
102336,note_on,,,,,92,0,13,,,,,6,,,75,100
102336,note_on,,,,,92,0,11,,,,,4,,,47,80
102336,note_on,,,,,4,0,7,,,,,0,,,76,96
102336,note_on,,,,,92,0,14,,,,,6,,,47,100
102428,note_off,,,,,92,0,7,,,,,0,,,76,100
102432,note_on,,,,,4,0,7,,,,,0,,,78,95
102436,note_off,,,,,0,0,13,,,,,6,,,66,100
102436,note_off,,,,,100,0,11,,,,,4,,,47,100
102436,note_off,,,,,100,0,13,,,,,6,,,75,100
102436,note_off,,,,,100,0,14,,,,,6,,,47,100
102496,note_off,,,,,64,0,7,,,,,0,,,78,100
102528,note_on,,,,,32,0,7,,,,,0,,,76,94
102620,note_off,,,,,92,0,7,,,,,0,,,76,100
102624,note_on,,,,,4,0,7,,,,,0,,,71,94
102716,note_off,,,,,92,0,7,,,,,0,,,71,100
102720,note_on,,,,,4,0,7,,,,,0,,,69,94
102720,note_on,,,,,284,0,14,,,,,6,,,64,100
102720,note_on,,,,,284,0,11,,,,,4,,,64,80
102720,note_on,,,,,0,0,13,,,,,6,,,76,100
102720,note_on,,,,,284,0,13,,,,,6,,,67,100
102812,note_off,,,,,92,0,7,,,,,0,,,69,100
102816,note_on,,,,,4,0,7,,,,,0,,,67,94
102820,note_off,,,,,100,0,14,,,,,6,,,64,100
102820,note_off,,,,,0,0,13,,,,,6,,,76,100
102820,note_off,,,,,100,0,13,,,,,6,,,67,100
102820,note_off,,,,,100,0,11,,,,,4,,,64,100
102908,note_off,,,,,92,0,7,,,,,0,,,67,100
102912,note_on,,,,,0,0,13,,,,,6,,,76,100
102912,note_on,,,,,92,0,13,,,,,6,,,67,100
102912,note_on,,,,,4,0,7,,,,,0,,,69,94
102912,note_on,,,,,92,0,14,,,,,6,,,52,100
102912,note_on,,,,,92,0,11,,,,,4,,,52,80
103004,note_off,,,,,92,0,7,,,,,0,,,69,100
103008,note_on,,,,,4,0,7,,,,,0,,,71,94
103012,note_off,,,,,100,0,14,,,,,6,,,52,100
103012,note_off,,,,,100,0,13,,,,,6,,,67,100
103012,note_off,,,,,0,0,13,,,,,6,,,76,100
103012,note_off,,,,,100,0,11,,,,,4,,,52,100
103072,note_off,,,,,64,0,7,,,,,0,,,71,100
103104,note_on,,,,,32,0,7,,,,,0,,,76,94
103196,note_off,,,,,92,0,7,,,,,0,,,76,100
103200,note_on,,,,,4,0,7,,,,,0,,,71,94
103292,note_off,,,,,92,0,7,,,,,0,,,71,100
103296,note_on,,,,,284,0,11,,,,,4,,,64,80
103296,note_on,,,,,284,0,13,,,,,6,,,67,100
103296,note_on,,,,,284,0,14,,,,,6,,,64,100
103296,note_on,,,,,0,0,13,,,,,6,,,76,100
103296,note_on,,,,,4,0,7,,,,,0,,,69,94
103388,note_off,,,,,92,0,7,,,,,0,,,69,100
103392,note_on,,,,,4,0,7,,,,,0,,,67,94
103396,note_off,,,,,100,0,13,,,,,6,,,67,100
103396,note_off,,,,,100,0,11,,,,,4,,,64,100
103396,note_off,,,,,0,0,13,,,,,6,,,76,100
103396,note_off,,,,,100,0,14,,,,,6,,,64,100
103484,note_off,,,,,92,0,7,,,,,0,,,67,100
103488,note_on,,,,,4,0,7,,,,,0,,,69,94
103488,note_on,,,,,92,0,11,,,,,4,,,52,80
103488,note_on,,,,,0,0,13,,,,,6,,,76,100
103488,note_on,,,,,92,0,13,,,,,6,,,67,100
103488,note_on,,,,,92,0,14,,,,,6,,,52,100
103580,note_off,,,,,92,0,7,,,,,0,,,69,100
103584,note_on,,,,,4,0,7,,,,,0,,,71,94
103588,note_off,,,,,100,0,11,,,,,4,,,52,100
103588,note_off,,,,,100,0,14,,,,,6,,,52,100
103588,note_off,,,,,0,0,13,,,,,6,,,76,100
103588,note_off,,,,,100,0,13,,,,,6,,,67,100
103648,note_off,,,,,64,0,7,,,,,0,,,71,100
103680,note_on,,,,,32,0,7,,,,,0,,,76,99
103772,note_off,,,,,92,0,7,,,,,0,,,76,100
103776,note_on,,,,,4,0,7,,,,,0,,,79,99
103868,note_off,,,,,92,0,7,,,,,0,,,79,100
103872,note_on,,,,,0,0,13,,,,,6,,,76,100
103872,note_on,,,,,284,0,13,,,,,6,,,67,100
103872,note_on,,,,,284,0,14,,,,,6,,,60,100
103872,note_on,,,,,284,0,11,,,,,4,,,60,80
103872,note_on,,,,,4,0,7,,,,,0,,,78,100
103964,note_off,,,,,92,0,7,,,,,0,,,78,100
103968,note_on,,,,,4,0,7,,,,,0,,,76,101
103972,note_off,,,,,100,0,13,,,,,6,,,67,100
103972,note_off,,,,,0,0,13,,,,,6,,,76,100
103972,note_off,,,,,100,0,14,,,,,6,,,60,100
103972,note_off,,,,,100,0,11,,,,,4,,,60,100
104060,note_off,,,,,92,0,7,,,,,0,,,76,100
104064,note_on,,,,,4,0,7,,,,,0,,,79,102
104064,note_on,,,,,92,0,11,,,,,4,,,48,80
104064,note_on,,,,,92,0,13,,,,,6,,,64,100
104064,note_on,,,,,0,0,13,,,,,6,,,67,100
104064,note_on,,,,,92,0,14,,,,,6,,,48,100
104156,note_off,,,,,92,0,7,,,,,0,,,79,100
104160,note_on,,,,,4,0,7,,,,,0,,,83,103
104164,note_off,,,,,100,0,11,,,,,4,,,48,100
104164,note_off,,,,,100,0,14,,,,,6,,,48,100
104164,note_off,,,,,100,0,13,,,,,6,,,64,100
104164,note_off,,,,,0,0,13,,,,,6,,,67,100
104224,note_off,,,,,64,0,7,,,,,0,,,83,100
104256,note_on,,,,,32,0,7,,,,,0,,,84,105
104444,note_off,,,,,188,0,7,,,,,0,,,84,100
104448,note_on,,,,,284,0,13,,,,,6,,,67,100
104448,note_on,,,,,0,0,13,,,,,6,,,76,100
104448,note_on,,,,,284,0,11,,,,,4,,,60,80
104448,note_on,,,,,4,0,7,,,,,0,,,88,103
104448,note_on,,,,,284,0,14,,,,,6,,,60,100
104548,note_off,,,,,100,0,13,,,,,6,,,67,100
104548,note_off,,,,,100,0,11,,,,,4,,,60,100
104548,note_off,,,,,100,0,14,,,,,6,,,60,100
104548,note_off,,,,,0,0,13,,,,,6,,,76,100
104636,note_off,,,,,188,0,7,,,,,0,,,88,100
104640,note_on,,,,,0,0,13,,,,,6,,,67,100
104640,note_on,,,,,92,0,13,,,,,6,,,64,100
104640,note_on,,,,,92,0,14,,,,,6,,,48,100
104640,note_on,,,,,4,0,7,,,,,0,,,84,101
104640,note_on,,,,,92,0,11,,,,,4,,,48,80
104740,note_off,,,,,100,0,13,,,,,6,,,64,100
104740,note_off,,,,,0,0,13,,,,,6,,,67,100
104740,note_off,,,,,100,0,7,,,,,0,,,84,100
104740,note_off,,,,,100,0,11,,,,,4,,,48,100
104740,note_off,,,,,100,0,14,,,,,6,,,48,100
104832,note_on,,,,,92,0,11,,,,,4,,,48,80
104832,note_on,,,,,92,0,7,,,,,0,,,81,105
104832,note_on,,,,,0,0,13,,,,,6,,,64,100
104832,note_on,,,,,92,0,13,,,,,6,,,69,100
104832,note_on,,,,,92,0,14,,,,,6,,,48,100
104932,note_off,,,,,100,0,14,,,,,6,,,48,100
104932,note_off,,,,,100,0,13,,,,,6,,,69,100
104932,note_off,,,,,0,0,13,,,,,6,,,64,100
104932,note_off,,,,,100,0,11,,,,,4,,,48,100
105020,note_off,,,,,188,0,7,,,,,0,,,81,100
105024,note_on,,,,,92,0,14,,,,,6,,,52,100
105024,note_on,,,,,92,0,13,,,,,6,,,69,100
105024,note_on,,,,,0,0,13,,,,,6,,,72,100
105024,note_on,,,,,4,0,7,,,,,0,,,84,103
105024,note_on,,,,,92,0,11,,,,,4,,,52,80
105124,note_off,,,,,100,0,13,,,,,6,,,69,100
105124,note_off,,,,,0,0,13,,,,,6,,,72,100
105124,note_off,,,,,100,0,14,,,,,6,,,52,100
105124,note_off,,,,,100,0,11,,,,,4,,,52,100
105212,note_off,,,,,188,0,7,,,,,0,,,84,100
105216,note_on,,,,,92,0,11,,,,,4,,,48,80
105216,note_on,,,,,4,0,7,,,,,0,,,79,101
105216,note_on,,,,,92,0,14,,,,,6,,,48,100
105216,note_on,,,,,0,0,13,,,,,6,,,69,100
105216,note_on,,,,,0,0,13,,,,,6,,,67,100
105216,note_on,,,,,92,0,13,,,,,6,,,64,100
105316,note_off,,,,,100,0,14,,,,,6,,,48,100
105316,note_off,,,,,100,0,11,,,,,4,,,48,100
105316,note_off,,,,,100,0,7,,,,,0,,,79,100
105316,note_off,,,,,100,0,13,,,,,6,,,64,100
105316,note_off,,,,,0,0,13,,,,,6,,,69,100
105316,note_off,,,,,0,0,13,,,,,6,,,67,100
105408,note_on,,,,,0,0,13,,,,,6,,,62,100
105408,note_on,,,,,92,0,11,,,,,4,,,50,80
105408,note_on,,,,,92,0,14,,,,,6,,,50,100
105408,note_on,,,,,92,0,7,,,,,0,,,78,105
105408,note_on,,,,,0,0,13,,,,,6,,,66,100
105408,note_on,,,,,92,0,13,,,,,6,,,69,100
105452,note_off,,,,,44,0,7,,,,,0,,,78,100
105456,note_on,,,,,4,0,7,,,,,0,,,79,105
105500,note_off,,,,,44,0,7,,,,,0,,,79,100
105504,note_on,,,,,4,0,7,,,,,0,,,78,104
105508,note_off,,,,,100,0,13,,,,,6,,,69,100
105508,note_off,,,,,100,0,14,,,,,6,,,50,100
105508,note_off,,,,,0,0,13,,,,,6,,,62,100
105508,note_off,,,,,100,0,11,,,,,4,,,50,100
105508,note_off,,,,,0,0,13,,,,,6,,,66,100
105548,note_off,,,,,44,0,7,,,,,0,,,78,100
105552,note_on,,,,,4,0,7,,,,,0,,,79,103
105596,note_off,,,,,44,0,7,,,,,0,,,79,100
105600,note_on,,,,,92,0,13,,,,,6,,,62,100
105600,note_on,,,,,0,0,13,,,,,6,,,66,100
105600,note_on,,,,,4,0,7,,,,,0,,,78,102
105600,note_on,,,,,92,0,14,,,,,6,,,50,100
105600,note_on,,,,,92,0,11,,,,,4,,,50,80
105664,note_off,,,,,64,0,7,,,,,0,,,78,100
105696,note_on,,,,,32,0,7,,,,,0,,,76,100
105760,note_off,,,,,64,0,7,,,,,0,,,76,100
105792,note_off,,,,,0,0,13,,,,,6,,,66,100
105792,note_off,,,,,192,0,11,,,,,4,,,50,100
105792,note_off,,,,,192,0,14,,,,,6,,,50,100
105792,note_off,,,,,192,0,13,,,,,6,,,62,100
105792,note_on,,,,,32,0,7,,,,,0,,,74,98
105888,note_on,,,,,96,0,11,,,,,4,,,48,80
105888,note_on,,,,,0,0,13,,,,,6,,,64,100
105888,note_on,,,,,96,0,13,,,,,6,,,60,100
105888,note_on,,,,,96,0,14,,,,,6,,,48,100
105892,note_off,,,,,100,0,7,,,,,0,,,74,100
105936,note_off,,,,,0,0,13,,,,,6,,,64,100
105936,note_off,,,,,48,0,13,,,,,6,,,60,100
105952,note_off,,,,,64,0,11,,,,,4,,,48,100
105952,note_off,,,,,64,0,14,,,,,6,,,48,100
105984,note_on,,,,,0,0,13,,,,,6,,,62,100
105984,note_on,,,,,48,0,13,,,,,6,,,55,100
105984,note_on,,,,,32,0,14,,,,,6,,,47,100
105984,note_on,,,,,92,0,7,,,,,0,,,79,100
105984,note_on,,,,,32,0,11,,,,,4,,,47,80
106076,note_off,,,,,92,0,7,,,,,0,,,79,100
106080,note_on,,,,,4,0,7,,,,,0,,,74,100
106084,note_off,,,,,0,0,13,,,,,6,,,62,100
106084,note_off,,,,,100,0,14,,,,,6,,,47,100
106084,note_off,,,,,100,0,11,,,,,4,,,47,100
106084,note_off,,,,,100,0,13,,,,,6,,,55,100
106172,note_off,,,,,92,0,7,,,,,0,,,74,100
106176,note_on,,,,,92,0,13,,,,,6,,,71,100
106176,note_on,,,,,92,0,11,,,,,4,,,55,80
106176,note_on,,,,,4,0,7,,,,,0,,,72,100
106176,note_on,,,,,92,0,14,,,,,6,,,55,100
106176,note_on,,,,,0,0,13,,,,,6,,,62,100
106268,note_off,,,,,92,0,7,,,,,0,,,72,100
106272,note_on,,,,,4,0,7,,,,,0,,,71,100
106276,note_off,,,,,100,0,11,,,,,4,,,55,100
106276,note_off,,,,,0,0,13,,,,,6,,,62,100
106276,note_off,,,,,100,0,13,,,,,6,,,71,100
106276,note_off,,,,,100,0,14,,,,,6,,,55,100
106364,note_off,,,,,92,0,7,,,,,0,,,71,100
106368,note_on,,,,,0,0,13,,,,,6,,,62,100
106368,note_on,,,,,4,0,7,,,,,0,,,72,100
106368,note_on,,,,,92,0,13,,,,,6,,,59,100
106368,note_on,,,,,92,0,11,,,,,4,,,43,80
106368,note_on,,,,,92,0,14,,,,,6,,,43,100
106460,note_off,,,,,92,0,7,,,,,0,,,72,100
106464,note_on,,,,,4,0,7,,,,,0,,,74,100
106468,note_off,,,,,0,0,13,,,,,6,,,62,100
106468,note_off,,,,,100,0,14,,,,,6,,,43,100
106468,note_off,,,,,100,0,11,,,,,4,,,43,100
106468,note_off,,,,,100,0,13,,,,,6,,,59,100
106528,note_off,,,,,64,0,7,,,,,0,,,74,100
106560,note_on,,,,,32,0,7,,,,,0,,,79,100
106652,note_off,,,,,92,0,7,,,,,0,,,79,100
106656,note_on,,,,,4,0,7,,,,,0,,,74,100
106748,note_off,,,,,92,0,7,,,,,0,,,74,100
106752,note_on,,,,,284,0,13,,,,,6,,,71,100
106752,note_on,,,,,0,0,13,,,,,6,,,62,100
106752,note_on,,,,,284,0,14,,,,,6,,,55,100
106752,note_on,,,,,4,0,7,,,,,0,,,72,100
106752,note_on,,,,,284,0,11,,,,,4,,,55,80
106844,note_off,,,,,92,0,7,,,,,0,,,72,100
106848,note_on,,,,,4,0,7,,,,,0,,,71,100
106852,note_off,,,,,100,0,11,,,,,4,,,55,100
106852,note_off,,,,,100,0,13,,,,,6,,,71,100
106852,note_off,,,,,0,0,13,,,,,6,,,62,100
106852,note_off,,,,,100,0,14,,,,,6,,,55,100
106940,note_off,,,,,92,0,7,,,,,0,,,71,100
106944,note_on,,,,,92,0,14,,,,,6,,,43,100
106944,note_on,,,,,0,0,13,,,,,6,,,62,100
106944,note_on,,,,,92,0,13,,,,,6,,,59,100
106944,note_on,,,,,92,0,11,,,,,4,,,43,80
106944,note_on,,,,,4,0,7,,,,,0,,,72,100
107036,note_off,,,,,92,0,7,,,,,0,,,72,100
107040,note_on,,,,,4,0,7,,,,,0,,,74,100
107044,note_off,,,,,100,0,11,,,,,4,,,43,100
107044,note_off,,,,,0,0,13,,,,,6,,,62,100
107044,note_off,,,,,100,0,13,,,,,6,,,59,100
107044,note_off,,,,,100,0,14,,,,,6,,,43,100
107104,note_off,,,,,64,0,7,,,,,0,,,74,100
107136,note_on,,,,,32,0,7,,,,,0,,,79,100
107228,note_off,,,,,92,0,7,,,,,0,,,79,100
107232,note_on,,,,,4,0,7,,,,,0,,,74,100
107324,note_off,,,,,92,0,7,,,,,0,,,74,100
107328,note_on,,,,,4,0,7,,,,,0,,,72,99
107328,note_on,,,,,284,0,11,,,,,4,,,55,80
107328,note_on,,,,,284,0,14,,,,,6,,,55,100
107328,note_on,,,,,0,0,13,,,,,6,,,62,100
107328,note_on,,,,,284,0,13,,,,,6,,,70,100
107420,note_off,,,,,92,0,7,,,,,0,,,72,100
107424,note_on,,,,,4,0,7,,,,,0,,,70,98
107428,note_off,,,,,0,0,13,,,,,6,,,62,100
107428,note_off,,,,,100,0,14,,,,,6,,,55,100
107428,note_off,,,,,100,0,11,,,,,4,,,55,100
107428,note_off,,,,,100,0,13,,,,,6,,,70,100
107516,note_off,,,,,92,0,7,,,,,0,,,70,100
107520,note_on,,,,,92,0,13,,,,,6,,,58,100
107520,note_on,,,,,0,0,13,,,,,6,,,62,100
107520,note_on,,,,,92,0,11,,,,,4,,,43,80
107520,note_on,,,,,92,0,14,,,,,6,,,43,100
107520,note_on,,,,,4,0,7,,,,,0,,,72,97
107612,note_off,,,,,92,0,7,,,,,0,,,72,100
107616,note_on,,,,,4,0,7,,,,,0,,,74,96
107620,note_off,,,,,100,0,11,,,,,4,,,43,100
107620,note_off,,,,,0,0,13,,,,,6,,,62,100
107620,note_off,,,,,100,0,13,,,,,6,,,58,100
107620,note_off,,,,,100,0,14,,,,,6,,,43,100
107680,note_off,,,,,64,0,7,,,,,0,,,74,100
107712,note_on,,,,,32,0,7,,,,,0,,,79,95
107804,note_off,,,,,92,0,7,,,,,0,,,79,100
107808,note_on,,,,,4,0,7,,,,,0,,,74,94
107900,note_off,,,,,92,0,7,,,,,0,,,74,100
107904,note_on,,,,,284,0,11,,,,,4,,,55,80
107904,note_on,,,,,4,0,7,,,,,0,,,72,93
107904,note_on,,,,,284,0,14,,,,,6,,,55,100
107904,note_on,,,,,284,0,13,,,,,6,,,70,100
107904,note_on,,,,,0,0,13,,,,,6,,,62,100
107996,note_off,,,,,92,0,7,,,,,0,,,72,100
108000,note_on,,,,,4,0,7,,,,,0,,,70,92
108004,note_off,,,,,100,0,11,,,,,4,,,55,100
108004,note_off,,,,,0,0,13,,,,,6,,,62,100
108004,note_off,,,,,100,0,13,,,,,6,,,70,100
108004,note_off,,,,,100,0,14,,,,,6,,,55,100
108092,note_off,,,,,92,0,7,,,,,0,,,70,100
108096,note_on,,,,,92,0,13,,,,,6,,,67,100
108096,note_on,,,,,4,0,7,,,,,0,,,72,91
108096,note_on,,,,,0,0,13,,,,,6,,,62,100
108096,note_on,,,,,92,0,11,,,,,4,,,46,80
108096,note_on,,,,,92,0,14,,,,,6,,,46,100
108188,note_off,,,,,92,0,7,,,,,0,,,72,100
108192,note_on,,,,,4,0,7,,,,,0,,,74,91
108196,note_off,,,,,100,0,14,,,,,6,,,46,100
108196,note_off,,,,,0,0,13,,,,,6,,,62,100
108196,note_off,,,,,100,0,13,,,,,6,,,67,100
108196,note_off,,,,,100,0,11,,,,,4,,,46,100
108256,note_off,,,,,64,0,7,,,,,0,,,74,100
108288,note_on,,,,,32,0,7,,,,,0,,,79,90
108288,note_on,,,,,92,0,13,,,,,6,,,67,100
108288,note_on,,,,,0,0,13,,,,,6,,,63,100
108288,note_on,,,,,92,0,11,,,,,4,,,48,80
108288,note_on,,,,,92,0,14,,,,,6,,,48,100
108380,note_off,,,,,92,0,7,,,,,0,,,79,100
108384,note_on,,,,,4,0,7,,,,,0,,,75,90
108388,note_off,,,,,100,0,11,,,,,4,,,48,100
108388,note_off,,,,,100,0,14,,,,,6,,,48,100
108388,note_off,,,,,100,0,13,,,,,6,,,67,100
108388,note_off,,,,,0,0,13,,,,,6,,,63,100
108476,note_off,,,,,92,0,7,,,,,0,,,75,100
108480,note_on,,,,,92,0,11,,,,,4,,,48,80
108480,note_on,,,,,92,0,14,,,,,6,,,48,100
108480,note_on,,,,,92,0,13,,,,,6,,,67,100
108480,note_on,,,,,0,0,13,,,,,6,,,63,100
108480,note_on,,,,,4,0,7,,,,,0,,,74,90
108572,note_off,,,,,92,0,7,,,,,0,,,74,100
108576,note_on,,,,,4,0,7,,,,,0,,,72,91
108580,note_off,,,,,0,0,13,,,,,6,,,63,100
108580,note_off,,,,,100,0,14,,,,,6,,,48,100
108580,note_off,,,,,100,0,11,,,,,4,,,48,100
108580,note_off,,,,,100,0,13,,,,,6,,,67,100
108668,note_off,,,,,92,0,7,,,,,0,,,72,100
108672,note_on,,,,,92,0,11,,,,,4,,,48,80
108672,note_on,,,,,92,0,14,,,,,6,,,48,100
108672,note_on,,,,,4,0,7,,,,,0,,,74,91
108672,note_on,,,,,0,0,13,,,,,6,,,63,100
108672,note_on,,,,,92,0,13,,,,,6,,,67,100
108764,note_off,,,,,92,0,7,,,,,0,,,74,100
108768,note_on,,,,,4,0,7,,,,,0,,,75,92
108772,note_off,,,,,100,0,11,,,,,4,,,48,100
108772,note_off,,,,,100,0,14,,,,,6,,,48,100
108772,note_off,,,,,100,0,13,,,,,6,,,67,100
108772,note_off,,,,,0,0,13,,,,,6,,,63,100
108832,note_off,,,,,64,0,7,,,,,0,,,75,100
108864,note_on,,,,,32,0,7,,,,,0,,,79,92
108864,note_on,,,,,92,0,14,,,,,6,,,48,100
108864,note_on,,,,,0,0,13,,,,,6,,,63,100
108864,note_on,,,,,92,0,13,,,,,6,,,67,100
108864,note_on,,,,,92,0,11,,,,,4,,,48,80
108956,note_off,,,,,92,0,7,,,,,0,,,79,100
108960,note_on,,,,,4,0,7,,,,,0,,,75,93
108964,note_off,,,,,100,0,11,,,,,4,,,48,100
108964,note_off,,,,,100,0,14,,,,,6,,,48,100
108964,note_off,,,,,0,0,13,,,,,6,,,63,100
108964,note_off,,,,,100,0,13,,,,,6,,,67,100
109052,note_off,,,,,92,0,7,,,,,0,,,75,100
109056,note_on,,,,,0,0,13,,,,,6,,,63,100
109056,note_on,,,,,92,0,13,,,,,6,,,67,100
109056,note_on,,,,,4,0,7,,,,,0,,,74,93
109056,note_on,,,,,92,0,14,,,,,6,,,48,100
109056,note_on,,,,,92,0,11,,,,,4,,,48,80
109148,note_off,,,,,92,0,7,,,,,0,,,74,100
109152,note_on,,,,,4,0,7,,,,,0,,,72,94
109156,note_off,,,,,100,0,13,,,,,6,,,67,100
109156,note_off,,,,,100,0,14,,,,,6,,,48,100
109156,note_off,,,,,100,0,11,,,,,4,,,48,100
109156,note_off,,,,,0,0,13,,,,,6,,,63,100
109244,note_off,,,,,92,0,7,,,,,0,,,72,100
109248,note_on,,,,,4,0,7,,,,,0,,,74,94
109248,note_on,,,,,0,0,13,,,,,6,,,63,100
109248,note_on,,,,,92,0,14,,,,,6,,,48,100
109248,note_on,,,,,92,0,13,,,,,6,,,67,100
109248,note_on,,,,,92,0,11,,,,,4,,,48,80
109340,note_off,,,,,92,0,7,,,,,0,,,74,100
109344,note_on,,,,,4,0,7,,,,,0,,,75,95
109348,note_off,,,,,100,0,13,,,,,6,,,67,100
109348,note_off,,,,,0,0,13,,,,,6,,,63,100
109348,note_off,,,,,100,0,11,,,,,4,,,48,100
109348,note_off,,,,,100,0,14,,,,,6,,,48,100
109408,note_off,,,,,64,0,7,,,,,0,,,75,100
109440,note_on,,,,,0,0,13,,,,,6,,,69,100
109440,note_on,,,,,92,0,13,,,,,6,,,66,100
109440,note_on,,,,,32,0,7,,,,,0,,,78,95
109440,note_on,,,,,92,0,11,,,,,4,,,48,80
109440,note_on,,,,,92,0,14,,,,,6,,,48,100
109532,note_off,,,,,92,0,7,,,,,0,,,78,100
109536,note_on,,,,,4,0,7,,,,,0,,,75,96
109540,note_off,,,,,0,0,13,,,,,6,,,69,100
109540,note_off,,,,,100,0,14,,,,,6,,,48,100
109540,note_off,,,,,100,0,13,,,,,6,,,66,100
109540,note_off,,,,,100,0,11,,,,,4,,,48,100
109628,note_off,,,,,92,0,7,,,,,0,,,75,100
109632,note_on,,,,,92,0,14,,,,,6,,,48,100
109632,note_on,,,,,92,0,11,,,,,4,,,48,80
109632,note_on,,,,,4,0,7,,,,,0,,,74,96
109632,note_on,,,,,0,0,13,,,,,6,,,69,100
109632,note_on,,,,,92,0,13,,,,,6,,,66,100
109724,note_off,,,,,92,0,7,,,,,0,,,74,100
109728,note_on,,,,,4,0,7,,,,,0,,,72,97
109732,note_off,,,,,100,0,13,,,,,6,,,66,100
109732,note_off,,,,,0,0,13,,,,,6,,,69,100
109732,note_off,,,,,100,0,14,,,,,6,,,48,100
109732,note_off,,,,,100,0,11,,,,,4,,,48,100
109820,note_off,,,,,92,0,7,,,,,0,,,72,100
109824,note_on,,,,,92,0,14,,,,,6,,,48,100
109824,note_on,,,,,92,0,13,,,,,6,,,66,100
109824,note_on,,,,,4,0,7,,,,,0,,,74,97
109824,note_on,,,,,0,0,13,,,,,6,,,69,100
109824,note_on,,,,,92,0,11,,,,,4,,,48,80
109916,note_off,,,,,92,0,7,,,,,0,,,74,100
109920,note_on,,,,,4,0,7,,,,,0,,,75,98
109924,note_off,,,,,0,0,13,,,,,6,,,69,100
109924,note_off,,,,,100,0,13,,,,,6,,,66,100
109924,note_off,,,,,100,0,11,,,,,4,,,48,100
109924,note_off,,,,,100,0,14,,,,,6,,,48,100
109984,note_off,,,,,64,0,7,,,,,0,,,75,100
110016,note_on,,,,,92,0,11,,,,,4,,,48,80
110016,note_on,,,,,92,0,14,,,,,6,,,48,100
110016,note_on,,,,,32,0,7,,,,,0,,,78,98
110016,note_on,,,,,0,0,13,,,,,6,,,69,100
110016,note_on,,,,,92,0,13,,,,,6,,,66,100
110108,note_off,,,,,92,0,7,,,,,0,,,78,100
110112,note_on,,,,,4,0,7,,,,,0,,,75,99
110116,note_off,,,,,0,0,13,,,,,6,,,69,100
110116,note_off,,,,,100,0,11,,,,,4,,,48,100
110116,note_off,,,,,100,0,13,,,,,6,,,66,100
110116,note_off,,,,,100,0,14,,,,,6,,,48,100
110204,note_off,,,,,92,0,7,,,,,0,,,75,100
110208,note_on,,,,,92,0,13,,,,,6,,,66,100
110208,note_on,,,,,0,0,13,,,,,6,,,69,100
110208,note_on,,,,,92,0,11,,,,,4,,,48,80
110208,note_on,,,,,92,0,14,,,,,6,,,48,100
110208,note_on,,,,,4,0,7,,,,,0,,,74,99
110300,note_off,,,,,92,0,7,,,,,0,,,74,100
110304,note_on,,,,,4,0,7,,,,,0,,,72,100
110308,note_off,,,,,100,0,14,,,,,6,,,48,100
110308,note_off,,,,,100,0,13,,,,,6,,,66,100
110308,note_off,,,,,100,0,11,,,,,4,,,48,100
110308,note_off,,,,,0,0,13,,,,,6,,,69,100
110396,note_off,,,,,92,0,7,,,,,0,,,72,100
110400,note_on,,,,,92,0,14,,,,,6,,,48,100
110400,note_on,,,,,92,0,11,,,,,4,,,48,80
110400,note_on,,,,,0,0,13,,,,,6,,,69,100
110400,note_on,,,,,4,0,7,,,,,0,,,74,100
110400,note_on,,,,,92,0,13,,,,,6,,,66,100
110492,note_off,,,,,92,0,7,,,,,0,,,74,100
110496,note_on,,,,,4,0,7,,,,,0,,,75,101
110500,note_off,,,,,0,0,13,,,,,6,,,69,100
110500,note_off,,,,,100,0,14,,,,,6,,,48,100
110500,note_off,,,,,100,0,13,,,,,6,,,66,100
110500,note_off,,,,,100,0,11,,,,,4,,,48,100
110560,note_off,,,,,64,0,7,,,,,0,,,75,100
110592,note_on,,,,,32,0,7,,,,,0,,,68,101
110592,note_on,,,,,92,0,11,,,,,4,,,48,80
110592,note_on,,,,,0,0,13,,,,,6,,,68,100
110592,note_on,,,,,92,0,13,,,,,6,,,63,100
110592,note_on,,,,,92,0,14,,,,,6,,,48,100
110684,note_off,,,,,92,0,7,,,,,0,,,68,100
110688,note_on,,,,,4,0,7,,,,,0,,,72,100
110692,note_off,,,,,100,0,11,,,,,4,,,48,100
110692,note_off,,,,,0,0,13,,,,,6,,,68,100
110692,note_off,,,,,100,0,13,,,,,6,,,63,100
110692,note_off,,,,,100,0,14,,,,,6,,,48,100
110780,note_off,,,,,92,0,7,,,,,0,,,72,100
110784,note_on,,,,,92,0,13,,,,,6,,,63,100
110784,note_on,,,,,0,0,13,,,,,6,,,68,100
110784,note_on,,,,,92,0,14,,,,,6,,,48,100
110784,note_on,,,,,4,0,7,,,,,0,,,74,100
110784,note_on,,,,,92,0,11,,,,,4,,,48,80
110876,note_off,,,,,92,0,7,,,,,0,,,74,100
110880,note_on,,,,,4,0,7,,,,,0,,,75,100
110884,note_off,,,,,100,0,13,,,,,6,,,63,100
110884,note_off,,,,,0,0,13,,,,,6,,,68,100
110884,note_off,,,,,100,0,11,,,,,4,,,48,100
110884,note_off,,,,,100,0,14,,,,,6,,,48,100
110972,note_off,,,,,92,0,7,,,,,0,,,75,100
110976,note_on,,,,,92,0,11,,,,,4,,,48,80
110976,note_on,,,,,92,0,13,,,,,6,,,63,100
110976,note_on,,,,,0,0,13,,,,,6,,,68,100
110976,note_on,,,,,92,0,14,,,,,6,,,48,100
110976,note_on,,,,,4,0,7,,,,,0,,,74,100
111068,note_off,,,,,92,0,7,,,,,0,,,74,100
111072,note_on,,,,,4,0,7,,,,,0,,,72,100
111076,note_off,,,,,100,0,14,,,,,6,,,48,100
111076,note_off,,,,,100,0,13,,,,,6,,,63,100
111076,note_off,,,,,0,0,13,,,,,6,,,68,100
111076,note_off,,,,,100,0,11,,,,,4,,,48,100
111136,note_off,,,,,64,0,7,,,,,0,,,72,100
111168,note_on,,,,,32,0,7,,,,,0,,,68,100
111168,note_on,,,,,92,0,14,,,,,6,,,48,100
111168,note_on,,,,,92,0,13,,,,,6,,,63,100
111168,note_on,,,,,0,0,13,,,,,6,,,68,100
111168,note_on,,,,,92,0,11,,,,,4,,,48,80
111260,note_off,,,,,92,0,7,,,,,0,,,68,100
111264,note_on,,,,,4,0,7,,,,,0,,,72,100
111268,note_off,,,,,0,0,13,,,,,6,,,68,100
111268,note_off,,,,,100,0,13,,,,,6,,,63,100
111268,note_off,,,,,100,0,11,,,,,4,,,48,100
111268,note_off,,,,,100,0,14,,,,,6,,,48,100
111356,note_off,,,,,92,0,7,,,,,0,,,72,100
111360,note_on,,,,,92,0,14,,,,,6,,,48,100
111360,note_on,,,,,0,0,13,,,,,6,,,68,100
111360,note_on,,,,,92,0,13,,,,,6,,,63,100
111360,note_on,,,,,4,0,7,,,,,0,,,74,100
111360,note_on,,,,,92,0,11,,,,,4,,,48,80
111452,note_off,,,,,92,0,7,,,,,0,,,74,100
111456,note_on,,,,,4,0,7,,,,,0,,,75,100
111460,note_off,,,,,100,0,11,,,,,4,,,48,100
111460,note_off,,,,,100,0,14,,,,,6,,,48,100
111460,note_off,,,,,0,0,13,,,,,6,,,68,100
111460,note_off,,,,,100,0,13,,,,,6,,,63,100
111548,note_off,,,,,92,0,7,,,,,0,,,75,100
111552,note_on,,,,,92,0,13,,,,,6,,,63,100
111552,note_on,,,,,0,0,13,,,,,6,,,68,100
111552,note_on,,,,,92,0,11,,,,,4,,,48,80
111552,note_on,,,,,4,0,7,,,,,0,,,74,100
111552,note_on,,,,,92,0,14,,,,,6,,,48,100
111644,note_off,,,,,92,0,7,,,,,0,,,74,100
111648,note_on,,,,,4,0,7,,,,,0,,,72,100
111652,note_off,,,,,0,0,13,,,,,6,,,68,100
111652,note_off,,,,,100,0,14,,,,,6,,,48,100
111652,note_off,,,,,100,0,13,,,,,6,,,63,100
111652,note_off,,,,,100,0,11,,,,,4,,,48,100
111712,note_off,,,,,64,0,7,,,,,0,,,72,100
111744,note_on,,,,,0,0,13,,,,,6,,,67,100
111744,note_on,,,,,92,0,14,,,,,6,,,48,100
111744,note_on,,,,,92,0,11,,,,,4,,,48,80
111744,note_on,,,,,92,0,13,,,,,6,,,63,100
111744,note_on,,,,,32,0,7,,,,,0,,,67,100
111836,note_off,,,,,92,0,7,,,,,0,,,67,100
111840,note_on,,,,,4,0,7,,,,,0,,,72,100
111844,note_off,,,,,0,0,13,,,,,6,,,67,100
111844,note_off,,,,,100,0,14,,,,,6,,,48,100
111844,note_off,,,,,100,0,13,,,,,6,,,63,100
111844,note_off,,,,,100,0,11,,,,,4,,,48,100
111932,note_off,,,,,92,0,7,,,,,0,,,72,100
111936,note_on,,,,,92,0,13,,,,,6,,,63,100
111936,note_on,,,,,92,0,14,,,,,6,,,48,100
111936,note_on,,,,,4,0,7,,,,,0,,,74,100
111936,note_on,,,,,0,0,13,,,,,6,,,67,100
111936,note_on,,,,,92,0,11,,,,,4,,,48,80
112028,note_off,,,,,92,0,7,,,,,0,,,74,100
112032,note_on,,,,,4,0,7,,,,,0,,,75,101
112036,note_off,,,,,100,0,11,,,,,4,,,48,100
112036,note_off,,,,,100,0,13,,,,,6,,,63,100
112036,note_off,,,,,100,0,14,,,,,6,,,48,100
112036,note_off,,,,,0,0,13,,,,,6,,,67,100
112124,note_off,,,,,92,0,7,,,,,0,,,75,100
112128,note_on,,,,,4,0,7,,,,,0,,,74,101
112128,note_on,,,,,92,0,13,,,,,6,,,63,100
112128,note_on,,,,,0,0,13,,,,,6,,,67,100
112128,note_on,,,,,92,0,14,,,,,6,,,48,100
112128,note_on,,,,,92,0,11,,,,,4,,,48,80
112220,note_off,,,,,92,0,7,,,,,0,,,74,100
112224,note_on,,,,,4,0,7,,,,,0,,,72,102
112228,note_off,,,,,100,0,14,,,,,6,,,48,100
112228,note_off,,,,,100,0,11,,,,,4,,,48,100
112228,note_off,,,,,100,0,13,,,,,6,,,63,100
112228,note_off,,,,,0,0,13,,,,,6,,,67,100
112288,note_off,,,,,64,0,7,,,,,0,,,72,100
112320,note_on,,,,,92,0,13,,,,,6,,,63,100
112320,note_on,,,,,0,0,13,,,,,6,,,67,100
112320,note_on,,,,,32,0,7,,,,,0,,,67,102
112320,note_on,,,,,92,0,11,,,,,4,,,48,80
112320,note_on,,,,,92,0,14,,,,,6,,,48,100
112412,note_off,,,,,92,0,7,,,,,0,,,67,100
112416,note_on,,,,,4,0,7,,,,,0,,,72,102
112420,note_off,,,,,100,0,11,,,,,4,,,48,100
112420,note_off,,,,,0,0,13,,,,,6,,,67,100
112420,note_off,,,,,100,0,13,,,,,6,,,63,100
112420,note_off,,,,,100,0,14,,,,,6,,,48,100
112508,note_off,,,,,92,0,7,,,,,0,,,72,100
112512,note_on,,,,,92,0,14,,,,,6,,,48,100
112512,note_on,,,,,0,0,13,,,,,6,,,67,100
112512,note_on,,,,,92,0,11,,,,,4,,,48,80
112512,note_on,,,,,92,0,13,,,,,6,,,63,100
112512,note_on,,,,,4,0,7,,,,,0,,,74,103
112604,note_off,,,,,92,0,7,,,,,0,,,74,100
112608,note_on,,,,,4,0,7,,,,,0,,,75,103
112612,note_off,,,,,100,0,14,,,,,6,,,48,100
112612,note_off,,,,,100,0,13,,,,,6,,,63,100
112612,note_off,,,,,100,0,11,,,,,4,,,48,100
112612,note_off,,,,,0,0,13,,,,,6,,,67,100
112700,note_off,,,,,92,0,7,,,,,0,,,75,100
112704,note_on,,,,,4,0,7,,,,,0,,,74,104
112704,note_on,,,,,92,0,11,,,,,4,,,48,80
112704,note_on,,,,,0,0,13,,,,,6,,,67,100
112704,note_on,,,,,92,0,13,,,,,6,,,63,100
112704,note_on,,,,,92,0,14,,,,,6,,,48,100
112796,note_off,,,,,92,0,7,,,,,0,,,74,100
112800,note_on,,,,,4,0,7,,,,,0,,,72,104
112804,note_off,,,,,100,0,11,,,,,4,,,48,100
112804,note_off,,,,,100,0,13,,,,,6,,,63,100
112804,note_off,,,,,100,0,14,,,,,6,,,48,100
112804,note_off,,,,,0,0,13,,,,,6,,,67,100
112864,note_off,,,,,64,0,7,,,,,0,,,72,100
112896,note_on,,,,,92,0,13,,,,,6,,,66,100
112896,note_on,,,,,32,0,7,,,,,0,,,66,105
112896,note_on,,,,,92,0,11,,,,,4,,,50,80
112896,note_on,,,,,92,0,14,,,,,6,,,50,100
112896,note_on,,,,,0,0,13,,,,,6,,,72,100
112988,note_off,,,,,92,0,7,,,,,0,,,66,100
112992,note_on,,,,,4,0,7,,,,,0,,,72,105
112996,note_off,,,,,100,0,11,,,,,4,,,50,100
112996,note_off,,,,,0,0,13,,,,,6,,,72,100
112996,note_off,,,,,100,0,14,,,,,6,,,50,100
112996,note_off,,,,,100,0,13,,,,,6,,,66,100
113084,note_off,,,,,92,0,7,,,,,0,,,72,100
113088,note_on,,,,,92,0,13,,,,,6,,,66,100
113088,note_on,,,,,0,0,13,,,,,6,,,72,100
113088,note_on,,,,,4,0,7,,,,,0,,,74,104
113088,note_on,,,,,92,0,14,,,,,6,,,50,100
113088,note_on,,,,,92,0,11,,,,,4,,,50,80
113180,note_off,,,,,92,0,7,,,,,0,,,74,100
113184,note_on,,,,,4,0,7,,,,,0,,,75,103
113188,note_off,,,,,100,0,13,,,,,6,,,66,100
113188,note_off,,,,,0,0,13,,,,,6,,,72,100
113188,note_off,,,,,100,0,14,,,,,6,,,50,100
113188,note_off,,,,,100,0,11,,,,,4,,,50,100
113276,note_off,,,,,92,0,7,,,,,0,,,75,100
113280,note_on,,,,,4,0,7,,,,,0,,,74,102
113280,note_on,,,,,92,0,14,,,,,6,,,50,100
113280,note_on,,,,,0,0,13,,,,,6,,,72,100
113280,note_on,,,,,92,0,13,,,,,6,,,66,100
113280,note_on,,,,,92,0,11,,,,,4,,,50,80
113372,note_off,,,,,92,0,7,,,,,0,,,74,100
113376,note_on,,,,,4,0,7,,,,,0,,,72,101
113380,note_off,,,,,100,0,11,,,,,4,,,50,100
113380,note_off,,,,,100,0,14,,,,,6,,,50,100
113380,note_off,,,,,100,0,13,,,,,6,,,66,100
113380,note_off,,,,,0,0,13,,,,,6,,,72,100
113440,note_off,,,,,64,0,7,,,,,0,,,72,100
113472,note_on,,,,,32,0,7,,,,,0,,,66,97
113472,note_on,,,,,92,0,14,,,,,6,,,50,100
113472,note_on,,,,,92,0,13,,,,,6,,,66,100
113472,note_on,,,,,0,0,13,,,,,6,,,72,100
113472,note_on,,,,,92,0,11,,,,,4,,,50,80
113564,note_off,,,,,92,0,7,,,,,0,,,66,100
113568,note_on,,,,,4,0,7,,,,,0,,,72,96
113572,note_off,,,,,100,0,11,,,,,4,,,50,100
113572,note_off,,,,,100,0,13,,,,,6,,,66,100
113572,note_off,,,,,0,0,13,,,,,6,,,72,100
113572,note_off,,,,,100,0,14,,,,,6,,,50,100
113660,note_off,,,,,92,0,7,,,,,0,,,72,100
113664,note_on,,,,,92,0,13,,,,,6,,,66,100
113664,note_on,,,,,92,0,11,,,,,4,,,50,80
113664,note_on,,,,,0,0,13,,,,,6,,,72,100
113664,note_on,,,,,4,0,7,,,,,0,,,74,95
113664,note_on,,,,,92,0,14,,,,,6,,,50,100
113756,note_off,,,,,92,0,7,,,,,0,,,74,100
113760,note_on,,,,,4,0,7,,,,,0,,,75,95
113764,note_off,,,,,100,0,11,,,,,4,,,50,100
113764,note_off,,,,,100,0,14,,,,,6,,,50,100
113764,note_off,,,,,100,0,13,,,,,6,,,66,100
113764,note_off,,,,,0,0,13,,,,,6,,,72,100
113852,note_off,,,,,92,0,7,,,,,0,,,75,100
113856,note_on,,,,,92,0,11,,,,,4,,,50,80
113856,note_on,,,,,92,0,14,,,,,6,,,50,100
113856,note_on,,,,,0,0,13,,,,,6,,,72,100
113856,note_on,,,,,92,0,13,,,,,6,,,66,100
113856,note_on,,,,,4,0,7,,,,,0,,,74,94
113948,note_off,,,,,92,0,7,,,,,0,,,74,100
113952,note_on,,,,,4,0,7,,,,,0,,,72,93
113956,note_off,,,,,100,0,14,,,,,6,,,50,100
113956,note_off,,,,,100,0,11,,,,,4,,,50,100
113956,note_off,,,,,100,0,13,,,,,6,,,66,100
113956,note_off,,,,,0,0,13,,,,,6,,,72,100
114016,note_off,,,,,64,0,7,,,,,0,,,72,100
114048,note_on,,,,,32,0,7,,,,,0,,,71,92
114048,note_on,,,,,92,0,14,,,,,6,,,55,100
114048,note_on,,,,,0,0,13,,,,,6,,,71,100
114048,note_on,,,,,92,0,11,,,,,4,,,55,80
114048,note_on,,,,,92,0,13,,,,,6,,,65,100
114140,note_off,,,,,92,0,7,,,,,0,,,71,100
114144,note_on,,,,,4,0,7,,,,,0,,,68,92
114148,note_off,,,,,100,0,13,,,,,6,,,65,100
114148,note_off,,,,,0,0,13,,,,,6,,,71,100
114148,note_off,,,,,100,0,11,,,,,4,,,55,100
114148,note_off,,,,,100,0,14,,,,,6,,,55,100
114236,note_off,,,,,92,0,7,,,,,0,,,68,100
114240,note_on,,,,,92,0,13,,,,,6,,,65,100
114240,note_on,,,,,4,0,7,,,,,0,,,67,92
114240,note_on,,,,,92,0,11,,,,,4,,,55,80
114240,note_on,,,,,92,0,14,,,,,6,,,55,100
114240,note_on,,,,,0,0,13,,,,,6,,,71,100
114332,note_off,,,,,92,0,7,,,,,0,,,67,100
114336,note_on,,,,,4,0,7,,,,,0,,,65,92
114340,note_off,,,,,100,0,13,,,,,6,,,65,100
114340,note_off,,,,,0,0,13,,,,,6,,,71,100
114340,note_off,,,,,100,0,14,,,,,6,,,55,100
114340,note_off,,,,,100,0,11,,,,,4,,,55,100
114428,note_off,,,,,92,0,7,,,,,0,,,65,100
114432,note_on,,,,,4,0,7,,,,,0,,,67,93
114432,note_on,,,,,0,0,13,,,,,6,,,71,100
114432,note_on,,,,,92,0,13,,,,,6,,,65,100
114432,note_on,,,,,92,0,14,,,,,6,,,55,100
114432,note_on,,,,,92,0,11,,,,,4,,,55,80
114524,note_off,,,,,92,0,7,,,,,0,,,67,100
114528,note_on,,,,,4,0,7,,,,,0,,,68,93
114532,note_off,,,,,0,0,13,,,,,6,,,71,100
114532,note_off,,,,,100,0,13,,,,,6,,,65,100
114532,note_off,,,,,100,0,11,,,,,4,,,55,100
114532,note_off,,,,,100,0,14,,,,,6,,,55,100
114592,note_off,,,,,64,0,7,,,,,0,,,68,100
114624,note_on,,,,,32,0,7,,,,,0,,,71,93
114624,note_on,,,,,0,0,13,,,,,6,,,71,100
114624,note_on,,,,,92,0,13,,,,,6,,,65,100
114624,note_on,,,,,92,0,11,,,,,4,,,55,80
114624,note_on,,,,,92,0,14,,,,,6,,,55,100
114716,note_off,,,,,92,0,7,,,,,0,,,71,100
114720,note_on,,,,,4,0,7,,,,,0,,,68,93
114724,note_off,,,,,100,0,11,,,,,4,,,55,100
114724,note_off,,,,,0,0,13,,,,,6,,,71,100
114724,note_off,,,,,100,0,13,,,,,6,,,65,100
114724,note_off,,,,,100,0,14,,,,,6,,,55,100
114812,note_off,,,,,92,0,7,,,,,0,,,68,100
114816,note_on,,,,,4,0,7,,,,,0,,,67,94
114816,note_on,,,,,92,0,14,,,,,6,,,55,100
114816,note_on,,,,,92,0,13,,,,,6,,,65,100
114816,note_on,,,,,92,0,11,,,,,4,,,55,80
114816,note_on,,,,,0,0,13,,,,,6,,,71,100
114908,note_off,,,,,92,0,7,,,,,0,,,67,100
114912,note_on,,,,,4,0,7,,,,,0,,,65,94
114916,note_off,,,,,100,0,11,,,,,4,,,55,100
114916,note_off,,,,,100,0,13,,,,,6,,,65,100
114916,note_off,,,,,0,0,13,,,,,6,,,71,100
114916,note_off,,,,,100,0,14,,,,,6,,,55,100
115004,note_off,,,,,92,0,7,,,,,0,,,65,100
115008,note_on,,,,,92,0,13,,,,,6,,,65,100
115008,note_on,,,,,92,0,11,,,,,4,,,55,80
115008,note_on,,,,,0,0,13,,,,,6,,,71,100
115008,note_on,,,,,92,0,14,,,,,6,,,55,100
115008,note_on,,,,,4,0,7,,,,,0,,,67,94
115100,note_off,,,,,92,0,7,,,,,0,,,67,100
115104,note_on,,,,,4,0,7,,,,,0,,,68,94
115108,note_off,,,,,100,0,14,,,,,6,,,55,100
115108,note_off,,,,,100,0,11,,,,,4,,,55,100
115108,note_off,,,,,100,0,13,,,,,6,,,65,100
115108,note_off,,,,,0,0,13,,,,,6,,,71,100
115168,note_off,,,,,64,0,7,,,,,0,,,68,100
115200,note_on,,,,,0,0,13,,,,,6,,,72,100
115200,note_on,,,,,92,0,14,,,,,6,,,51,100
115200,note_on,,,,,32,0,7,,,,,0,,,72,95
115200,note_on,,,,,92,0,13,,,,,6,,,67,100
115200,note_on,,,,,92,0,11,,,,,4,,,51,80
115292,note_off,,,,,92,0,7,,,,,0,,,72,100
115296,note_on,,,,,4,0,7,,,,,0,,,67,95
115300,note_off,,,,,100,0,11,,,,,4,,,51,100
115300,note_off,,,,,100,0,14,,,,,6,,,51,100
115300,note_off,,,,,0,0,13,,,,,6,,,72,100
115300,note_off,,,,,100,0,13,,,,,6,,,67,100
115388,note_off,,,,,92,0,7,,,,,0,,,67,100
115392,note_on,,,,,92,0,14,,,,,6,,,51,100
115392,note_on,,,,,92,0,11,,,,,4,,,51,80
115392,note_on,,,,,0,0,13,,,,,6,,,72,100
115392,note_on,,,,,92,0,13,,,,,6,,,67,100
115392,note_on,,,,,4,0,7,,,,,0,,,65,96
115484,note_off,,,,,92,0,7,,,,,0,,,65,100
115488,note_on,,,,,4,0,7,,,,,0,,,63,96
115492,note_off,,,,,100,0,11,,,,,4,,,51,100
115492,note_off,,,,,100,0,14,,,,,6,,,51,100
115492,note_off,,,,,0,0,13,,,,,6,,,72,100
115492,note_off,,,,,100,0,13,,,,,6,,,67,100
115580,note_off,,,,,92,0,7,,,,,0,,,63,100
115584,note_on,,,,,92,0,14,,,,,6,,,51,100
115584,note_on,,,,,0,0,13,,,,,6,,,72,100
115584,note_on,,,,,92,0,13,,,,,6,,,67,100
115584,note_on,,,,,92,0,11,,,,,4,,,51,80
115584,note_on,,,,,4,0,7,,,,,0,,,65,97
115676,note_off,,,,,92,0,7,,,,,0,,,65,100
115680,note_on,,,,,4,0,7,,,,,0,,,67,97
115684,note_off,,,,,0,0,13,,,,,6,,,72,100
115684,note_off,,,,,100,0,13,,,,,6,,,67,100
115684,note_off,,,,,100,0,11,,,,,4,,,51,100
115684,note_off,,,,,100,0,14,,,,,6,,,51,100
115744,note_off,,,,,64,0,7,,,,,0,,,67,100
115776,note_on,,,,,0,0,13,,,,,6,,,72,100
115776,note_on,,,,,92,0,13,,,,,6,,,67,100
115776,note_on,,,,,92,0,11,,,,,4,,,51,80
115776,note_on,,,,,92,0,14,,,,,6,,,51,100
115776,note_on,,,,,32,0,7,,,,,0,,,72,98
115868,note_off,,,,,92,0,7,,,,,0,,,72,100
115872,note_on,,,,,4,0,7,,,,,0,,,67,99
115876,note_off,,,,,100,0,11,,,,,4,,,51,100
115876,note_off,,,,,100,0,14,,,,,6,,,51,100
115876,note_off,,,,,0,0,13,,,,,6,,,72,100
115876,note_off,,,,,100,0,13,,,,,6,,,67,100
115964,note_off,,,,,92,0,7,,,,,0,,,67,100
115968,note_on,,,,,4,0,7,,,,,0,,,65,99
115968,note_on,,,,,92,0,14,,,,,6,,,51,100
115968,note_on,,,,,0,0,13,,,,,6,,,72,100
115968,note_on,,,,,92,0,13,,,,,6,,,67,100
115968,note_on,,,,,92,0,11,,,,,4,,,51,80
116060,note_off,,,,,92,0,7,,,,,0,,,65,100
116064,note_on,,,,,4,0,7,,,,,0,,,63,100
116068,note_off,,,,,100,0,11,,,,,4,,,51,100
116068,note_off,,,,,100,0,13,,,,,6,,,67,100
116068,note_off,,,,,100,0,14,,,,,6,,,51,100
116068,note_off,,,,,0,0,13,,,,,6,,,72,100
116156,note_off,,,,,92,0,7,,,,,0,,,63,100
116160,note_on,,,,,4,0,7,,,,,0,,,65,100
116160,note_on,,,,,92,0,14,,,,,6,,,51,100
116160,note_on,,,,,92,0,13,,,,,6,,,67,100
116160,note_on,,,,,92,0,11,,,,,4,,,51,80
116160,note_on,,,,,0,0,13,,,,,6,,,72,100
116252,note_off,,,,,92,0,7,,,,,0,,,65,100
116256,note_on,,,,,4,0,7,,,,,0,,,67,101
116260,note_off,,,,,100,0,13,,,,,6,,,67,100
116260,note_off,,,,,100,0,11,,,,,4,,,51,100
116260,note_off,,,,,100,0,14,,,,,6,,,51,100
116260,note_off,,,,,0,0,13,,,,,6,,,72,100
116320,note_off,,,,,64,0,7,,,,,0,,,67,100
116352,note_on,,,,,32,0,7,,,,,0,,,73,101
116352,note_on,,,,,92,0,13,,,,,6,,,73,100
116352,note_on,,,,,0,0,13,,,,,6,,,67,100
116352,note_on,,,,,92,0,14,,,,,6,,,45,100
116352,note_on,,,,,92,0,11,,,,,4,,,45,80
116444,note_off,,,,,92,0,7,,,,,0,,,73,100
116448,note_on,,,,,4,0,7,,,,,0,,,67,100
116452,note_off,,,,,100,0,14,,,,,6,,,45,100
116452,note_off,,,,,100,0,11,,,,,4,,,45,100
116452,note_off,,,,,0,0,13,,,,,6,,,67,100
116452,note_off,,,,,100,0,13,,,,,6,,,73,100
116540,note_off,,,,,92,0,7,,,,,0,,,67,100
116544,note_on,,,,,92,0,11,,,,,4,,,45,80
116544,note_on,,,,,92,0,14,,,,,6,,,45,100
116544,note_on,,,,,0,0,13,,,,,6,,,67,100
116544,note_on,,,,,92,0,13,,,,,6,,,73,100
116544,note_on,,,,,4,0,7,,,,,0,,,66,100
116636,note_off,,,,,92,0,7,,,,,0,,,66,100
116640,note_on,,,,,4,0,7,,,,,0,,,64,100
116644,note_off,,,,,100,0,11,,,,,4,,,45,100
116644,note_off,,,,,100,0,13,,,,,6,,,73,100
116644,note_off,,,,,0,0,13,,,,,6,,,67,100
116644,note_off,,,,,100,0,14,,,,,6,,,45,100
116732,note_off,,,,,92,0,7,,,,,0,,,64,100
116736,note_on,,,,,92,0,14,,,,,6,,,45,100
116736,note_on,,,,,0,0,13,,,,,6,,,67,100
116736,note_on,,,,,4,0,7,,,,,0,,,66,100
116736,note_on,,,,,92,0,11,,,,,4,,,45,80
116736,note_on,,,,,92,0,13,,,,,6,,,73,100
116828,note_off,,,,,92,0,7,,,,,0,,,66,100
116832,note_on,,,,,4,0,7,,,,,0,,,67,100
116836,note_off,,,,,100,0,13,,,,,6,,,73,100
116836,note_off,,,,,100,0,14,,,,,6,,,45,100
116836,note_off,,,,,0,0,13,,,,,6,,,67,100
116836,note_off,,,,,100,0,11,,,,,4,,,45,100
116896,note_off,,,,,64,0,7,,,,,0,,,67,100
116928,note_on,,,,,0,0,13,,,,,6,,,67,100
116928,note_on,,,,,92,0,13,,,,,6,,,73,100
116928,note_on,,,,,92,0,14,,,,,6,,,45,100
116928,note_on,,,,,92,0,11,,,,,4,,,45,80
116928,note_on,,,,,32,0,7,,,,,0,,,73,100
117020,note_off,,,,,92,0,7,,,,,0,,,73,100
117024,note_on,,,,,4,0,7,,,,,0,,,67,100
117028,note_off,,,,,0,0,13,,,,,6,,,67,100
117028,note_off,,,,,100,0,13,,,,,6,,,73,100
117028,note_off,,,,,100,0,14,,,,,6,,,45,100
117028,note_off,,,,,100,0,11,,,,,4,,,45,100
117116,note_off,,,,,92,0,7,,,,,0,,,67,100
117120,note_on,,,,,4,0,7,,,,,0,,,66,100
117120,note_on,,,,,92,0,14,,,,,6,,,45,100
117120,note_on,,,,,92,0,11,,,,,4,,,45,80
117120,note_on,,,,,0,0,13,,,,,6,,,67,100
117120,note_on,,,,,92,0,13,,,,,6,,,73,100
117212,note_off,,,,,92,0,7,,,,,0,,,66,100
117216,note_on,,,,,4,0,7,,,,,0,,,64,100
117220,note_off,,,,,100,0,13,,,,,6,,,73,100
117220,note_off,,,,,0,0,13,,,,,6,,,67,100
117220,note_off,,,,,100,0,11,,,,,4,,,45,100
117220,note_off,,,,,100,0,14,,,,,6,,,45,100
117308,note_off,,,,,92,0,7,,,,,0,,,64,100
117312,note_on,,,,,92,0,11,,,,,4,,,45,80
117312,note_on,,,,,92,0,13,,,,,6,,,73,100
117312,note_on,,,,,0,0,13,,,,,6,,,67,100
117312,note_on,,,,,92,0,14,,,,,6,,,45,100
117312,note_on,,,,,4,0,7,,,,,0,,,66,100
117404,note_off,,,,,92,0,7,,,,,0,,,66,100
117408,note_on,,,,,4,0,7,,,,,0,,,67,100
117412,note_off,,,,,100,0,13,,,,,6,,,73,100
117412,note_off,,,,,0,0,13,,,,,6,,,67,100
117412,note_off,,,,,100,0,14,,,,,6,,,45,100
117412,note_off,,,,,100,0,11,,,,,4,,,45,100
117472,note_off,,,,,64,0,7,,,,,0,,,67,100
117504,note_on,,,,,92,0,13,,,,,6,,,74,100
117504,note_on,,,,,0,0,13,,,,,6,,,66,100
117504,note_on,,,,,92,0,11,,,,,4,,,50,80
117504,note_on,,,,,92,0,14,,,,,6,,,50,100
117504,note_on,,,,,32,0,7,,,,,0,,,66,97
117596,note_off,,,,,92,0,7,,,,,0,,,66,100
117600,note_on,,,,,4,0,7,,,,,0,,,64,97
117604,note_off,,,,,0,0,13,,,,,6,,,66,100
117604,note_off,,,,,100,0,13,,,,,6,,,74,100
117604,note_off,,,,,100,0,14,,,,,6,,,50,100
117604,note_off,,,,,100,0,11,,,,,4,,,50,100
117692,note_off,,,,,92,0,7,,,,,0,,,64,100
117696,note_on,,,,,92,0,13,,,,,6,,,74,100
117696,note_on,,,,,4,0,7,,,,,0,,,62,96
117696,note_on,,,,,92,0,14,,,,,6,,,50,100
117696,note_on,,,,,92,0,11,,,,,4,,,50,80
117696,note_on,,,,,0,0,13,,,,,6,,,66,100
117788,note_off,,,,,92,0,7,,,,,0,,,62,100
117792,note_on,,,,,4,0,7,,,,,0,,,66,95
117796,note_off,,,,,100,0,11,,,,,4,,,50,100
117796,note_off,,,,,0,0,13,,,,,6,,,66,100
117796,note_off,,,,,100,0,13,,,,,6,,,74,100
117796,note_off,,,,,100,0,14,,,,,6,,,50,100
117884,note_off,,,,,92,0,7,,,,,0,,,66,100
117888,note_on,,,,,92,0,13,,,,,6,,,74,100
117888,note_on,,,,,92,0,14,,,,,6,,,50,100
117888,note_on,,,,,4,0,7,,,,,0,,,69,94
117888,note_on,,,,,92,0,11,,,,,4,,,50,80
117888,note_on,,,,,0,0,13,,,,,6,,,66,100
117980,note_off,,,,,92,0,7,,,,,0,,,69,100
117984,note_on,,,,,4,0,7,,,,,0,,,71,93
117988,note_off,,,,,100,0,13,,,,,6,,,74,100
117988,note_off,,,,,100,0,11,,,,,4,,,50,100
117988,note_off,,,,,0,0,13,,,,,6,,,66,100
117988,note_off,,,,,100,0,14,,,,,6,,,50,100
118048,note_off,,,,,64,0,7,,,,,0,,,71,100
118080,note_on,,,,,92,0,11,,,,,4,,,50,80
118080,note_on,,,,,92,0,13,,,,,6,,,72,100
118080,note_on,,,,,0,0,13,,,,,6,,,74,100
118080,note_on,,,,,32,0,7,,,,,0,,,72,92
118080,note_on,,,,,0,0,13,,,,,6,,,66,100
118080,note_on,,,,,92,0,14,,,,,6,,,50,100
118172,note_off,,,,,92,0,7,,,,,0,,,72,100
118176,note_on,,,,,4,0,7,,,,,0,,,71,94
118180,note_off,,,,,100,0,14,,,,,6,,,50,100
118180,note_off,,,,,0,0,13,,,,,6,,,74,100
118180,note_off,,,,,0,0,13,,,,,6,,,66,100
118180,note_off,,,,,100,0,13,,,,,6,,,72,100
118180,note_off,,,,,100,0,11,,,,,4,,,50,100
118268,note_off,,,,,92,0,7,,,,,0,,,71,100
118272,note_on,,,,,92,0,13,,,,,6,,,72,100
118272,note_on,,,,,0,0,13,,,,,6,,,74,100
118272,note_on,,,,,4,0,7,,,,,0,,,69,96
118272,note_on,,,,,92,0,14,,,,,6,,,50,100
118272,note_on,,,,,92,0,11,,,,,4,,,50,80
118272,note_on,,,,,0,0,13,,,,,6,,,66,100
118364,note_off,,,,,92,0,7,,,,,0,,,69,100
118368,note_on,,,,,4,0,7,,,,,0,,,72,98
118372,note_off,,,,,100,0,13,,,,,6,,,72,100
118372,note_off,,,,,0,0,13,,,,,6,,,74,100
118372,note_off,,,,,0,0,13,,,,,6,,,66,100
118372,note_off,,,,,100,0,11,,,,,4,,,50,100
118372,note_off,,,,,100,0,14,,,,,6,,,50,100
118460,note_off,,,,,92,0,7,,,,,0,,,72,100
118464,note_on,,,,,4,0,7,,,,,0,,,76,100
118464,note_on,,,,,0,0,13,,,,,6,,,66,100
118464,note_on,,,,,0,0,13,,,,,6,,,74,100
118464,note_on,,,,,92,0,13,,,,,6,,,72,100
118464,note_on,,,,,92,0,14,,,,,6,,,50,100
118464,note_on,,,,,92,0,11,,,,,4,,,50,80
118556,note_off,,,,,92,0,7,,,,,0,,,76,100
118560,note_on,,,,,4,0,7,,,,,0,,,78,102
118564,note_off,,,,,100,0,11,,,,,4,,,50,100
118564,note_off,,,,,100,0,14,,,,,6,,,50,100
118564,note_off,,,,,0,0,13,,,,,6,,,74,100
118564,note_off,,,,,100,0,13,,,,,6,,,72,100
118564,note_off,,,,,0,0,13,,,,,6,,,66,100
118624,note_off,,,,,64,0,7,,,,,0,,,78,100
118656,note_on,,,,,92,0,13,,,,,6,,,74,100
118656,note_on,,,,,0,0,13,,,,,6,,,71,100
118656,note_on,,,,,32,0,7,,,,,0,,,79,104
118656,note_on,,,,,92,0,14,,,,,6,,,43,100
118656,note_on,,,,,92,0,11,,,,,4,,,43,80
118656,note_on,,,,,0,0,13,,,,,6,,,67,100
118756,note_off,,,,,100,0,7,,,,,0,,,79,100
118756,note_off,,,,,100,0,14,,,,,6,,,43,100
118756,note_off,,,,,100,0,13,,,,,6,,,74,100
118756,note_off,,,,,0,0,13,,,,,6,,,71,100
118756,note_off,,,,,0,0,13,,,,,6,,,67,100
118756,note_off,,,,,100,0,11,,,,,4,,,43,100
118848,note_on,,,,,92,0,11,,,,,4,,,50,80
118848,note_on,,,,,92,0,14,,,,,6,,,50,100
118848,note_on,,,,,92,0,13,,,,,6,,,72,100
118848,note_on,,,,,92,0,7,,,,,0,,,78,100
118848,note_on,,,,,0,0,13,,,,,6,,,78,100
118940,note_off,,,,,92,0,7,,,,,0,,,78,100
118944,note_on,,,,,4,0,7,,,,,0,,,79,100
118948,note_off,,,,,100,0,14,,,,,6,,,50,100
118948,note_off,,,,,100,0,11,,,,,4,,,50,100
119036,note_off,,,,,92,0,7,,,,,0,,,79,100
119036,note_off,,,,,188,0,13,,,,,6,,,78,100
119040,note_on,,,,,4,0,13,,,,,6,,,74,100
119040,note_on,,,,,92,0,14,,,,,6,,,54,100
119040,note_on,,,,,4,0,7,,,,,0,,,81,100
119040,note_on,,,,,92,0,11,,,,,4,,,54,80
119104,note_off,,,,,64,0,13,,,,,6,,,72,100
119140,note_off,,,,,100,0,14,,,,,6,,,54,100
119140,note_off,,,,,100,0,11,,,,,4,,,54,100
119140,note_off,,,,,100,0,7,,,,,0,,,81,100
119140,note_off,,,,,36,0,13,,,,,6,,,74,100
119232,note_on,,,,,92,0,14,,,,,6,,,57,100
119232,note_on,,,,,92,0,7,,,,,0,,,72,104
119232,note_on,,,,,92,0,13,,,,,6,,,72,100
119232,note_on,,,,,92,0,11,,,,,4,,,57,80
119232,note_on,,,,,0,0,13,,,,,6,,,81,100
119332,note_off,,,,,100,0,11,,,,,4,,,57,100
119332,note_off,,,,,100,0,14,,,,,6,,,57,100
119420,note_off,,,,,188,0,7,,,,,0,,,72,100
119420,note_off,,,,,0,0,13,,,,,6,,,81,100
119420,note_off,,,,,188,0,13,,,,,6,,,72,100
119424,note_on,,,,,92,0,11,,,,,4,,,54,80
119424,note_on,,,,,0,0,13,,,,,6,,,78,100
119424,note_on,,,,,4,0,7,,,,,0,,,81,100
119424,note_on,,,,,4,0,13,,,,,6,,,69,100
119424,note_on,,,,,92,0,14,,,,,6,,,54,100
119524,note_off,,,,,100,0,7,,,,,0,,,81,100
119524,note_off,,,,,100,0,11,,,,,4,,,54,100
119524,note_off,,,,,100,0,14,,,,,6,,,54,100
119612,note_off,,,,,188,0,13,,,,,6,,,69,100
119616,note_on,,,,,92,0,7,,,,,0,,,72,100
119616,note_on,,,,,4,0,13,,,,,6,,,72,100
119616,note_on,,,,,92,0,11,,,,,4,,,50,80
119616,note_on,,,,,92,0,14,,,,,6,,,50,100
119680,note_off,,,,,64,0,13,,,,,6,,,78,100
119716,note_off,,,,,100,0,7,,,,,0,,,72,100
119716,note_off,,,,,100,0,11,,,,,4,,,50,100
119716,note_off,,,,,36,0,13,,,,,6,,,72,100
119716,note_off,,,,,100,0,14,,,,,6,,,50,100
119808,note_on,,,,,0,0,13,,,,,6,,,71,100
119808,note_on,,,,,92,0,7,,,,,0,,,71,100
119808,note_on,,,,,92,0,13,,,,,6,,,79,100
119808,note_on,,,,,92,0,11,,,,,4,,,55,80
119808,note_on,,,,,92,0,14,,,,,6,,,55,100
119908,note_off,,,,,100,0,14,,,,,6,,,55,100
119908,note_off,,,,,100,0,11,,,,,4,,,55,100
119996,note_off,,,,,188,0,7,,,,,0,,,71,100
119996,note_off,,,,,188,0,13,,,,,6,,,71,100
120000,note_on,,,,,92,0,11,,,,,4,,,47,80
120000,note_on,,,,,92,0,14,,,,,6,,,47,100
120000,note_on,,,,,4,0,13,,,,,6,,,74,100
120000,note_on,,,,,4,0,7,,,,,0,,,74,100
120100,note_off,,,,,100,0,14,,,,,6,,,47,100
120100,note_off,,,,,100,0,11,,,,,4,,,47,100
120100,note_off,,,,,100,0,7,,,,,0,,,74,100
120188,note_off,,,,,188,0,13,,,,,6,,,74,100
120192,note_on,,,,,92,0,14,,,,,6,,,43,100
120192,note_on,,,,,0,0,13,,,,,6,,,71,100
120192,note_on,,,,,92,0,11,,,,,4,,,43,80
120192,note_off,,,,,4,0,13,,,,,6,,,79,100
120192,note_on,,,,,92,0,7,,,,,0,,,79,100
120292,note_off,,,,,100,0,13,,,,,6,,,71,100
120292,note_off,,,,,100,0,7,,,,,0,,,79,100
120292,note_off,,,,,100,0,14,,,,,6,,,43,100
120292,note_off,,,,,100,0,11,,,,,4,,,43,100
120384,note_on,,,,,92,0,13,,,,,6,,,79,100
120384,note_on,,,,,0,0,13,,,,,6,,,71,100
120384,note_on,,,,,92,0,14,,,,,6,,,48,100
120384,note_on,,,,,92,0,7,,,,,0,,,71,105
120384,note_on,,,,,92,0,11,,,,,4,,,48,80
120484,note_off,,,,,0,0,13,,,,,6,,,71,100
120484,note_off,,,,,100,0,13,,,,,6,,,79,100
120484,note_off,,,,,100,0,14,,,,,6,,,48,100
120484,note_off,,,,,100,0,7,,,,,0,,,71,100
120484,note_off,,,,,100,0,11,,,,,4,,,48,100
120576,note_on,,,,,92,0,11,,,,,4,,,50,80
120576,note_on,,,,,92,0,14,,,,,6,,,50,100
120576,note_on,,,,,92,0,13,,,,,6,,,69,100
120576,note_on,,,,,0,0,13,,,,,6,,,78,100
120576,note_on,,,,,92,0,7,,,,,0,,,69,104
120620,note_off,,,,,44,0,7,,,,,0,,,69,100
120624,note_on,,,,,4,0,7,,,,,0,,,71,103
120668,note_off,,,,,44,0,7,,,,,0,,,71,100
120672,note_on,,,,,4,0,7,,,,,0,,,69,103
120676,note_off,,,,,100,0,14,,,,,6,,,50,100
120676,note_off,,,,,0,0,13,,,,,6,,,78,100
120676,note_off,,,,,100,0,11,,,,,4,,,50,100
120676,note_off,,,,,100,0,13,,,,,6,,,69,100
120716,note_off,,,,,44,0,7,,,,,0,,,69,100
120720,note_on,,,,,4,0,7,,,,,0,,,71,103
120764,note_off,,,,,44,0,7,,,,,0,,,71,100
120768,note_on,,,,,0,0,13,,,,,6,,,78,100
120768,note_on,,,,,92,0,13,,,,,6,,,69,100
120768,note_on,,,,,4,0,7,,,,,0,,,69,102
120768,note_on,,,,,92,0,14,,,,,6,,,38,100
120768,note_on,,,,,92,0,11,,,,,4,,,38,80
120832,note_off,,,,,64,0,7,,,,,0,,,69,100
120864,note_on,,,,,32,0,7,,,,,0,,,67,101
120868,note_off,,,,,100,0,13,,,,,6,,,69,100
120868,note_off,,,,,0,0,13,,,,,6,,,78,100
120868,note_off,,,,,100,0,11,,,,,4,,,38,100
120868,note_off,,,,,100,0,14,,,,,6,,,38,100
120928,note_off,,,,,64,0,7,,,,,0,,,67,100
120960,note_on,,,,,0,0,13,,,,,6,,,71,100
120960,note_on,,,,,92,0,11,,,,,4,,,55,100
120960,note_on,,,,,92,0,14,,,,,6,,,55,100
120960,note_on,,,,,0,0,15,,,,,7,,,71,100
120960,note_on,,,,,23936,0,15,,,,,7,,,74,100
120960,note_on,,,,,23936,0,10,,,,,3,,,59,100
120960,note_on,,,,,32,0,7,,,,,0,,,67,101
120960,note_on,,,,,0,0,13,,,,,6,,,79,100
120960,note_on,,,,,0,0,15,,,,,7,,,67,100
120960,note_on,,,,,92,0,13,,,,,6,,,67,100
120960,note_on,,,,,23936,0,9,,,,,2,,,79,100
120960,note_on,,,,,23936,0,8,,,,,1,,,67,100
120960,note_on,,,,,23936,0,16,,,,,7,,,55,100
120960,note_on,,,,,23936,0,12,,,,,5,,,43,100
121024,note_off,,,,,64,0,8,,,,,1,,,67,100
121056,note_on,,,,,32,0,8,,,,,1,,,71,100
121060,note_off,,,,,0,0,15,,,,,7,,,67,100
121060,note_off,,,,,0,0,15,,,,,7,,,71,100
121060,note_off,,,,,100,0,15,,,,,7,,,74,100
121060,note_off,,,,,100,0,10,,,,,3,,,59,100
121060,end_of_track,,,,,0,1,7,,,,,,,,,
121060,note_off,,,,,100,0,7,,,,,0,,,67,100
121060,note_off,,,,,100,0,9,,,,,2,,,79,100
121060,note_off,,,,,100,0,14,,,,,6,,,55,100
121060,note_off,,,,,0,0,13,,,,,6,,,79,100
121060,note_off,,,,,0,0,13,,,,,6,,,71,100
121060,note_off,,,,,100,0,13,,,,,6,,,67,100
121060,note_off,,,,,100,0,16,,,,,7,,,55,100
121060,note_off,,,,,100,0,11,,,,,4,,,55,100
121060,note_off,,,,,100,0,12,,,,,5,,,43,100
121120,note_off,,,,,64,0,8,,,,,1,,,71,100
121152,note_on,,,,,92,0,15,,,,,7,,,67,100
121152,note_on,,,,,92,0,12,,,,,5,,,50,100
121152,note_on,,,,,92,0,10,,,,,3,,,67,100
121152,note_on,,,,,92,0,16,,,,,7,,,62,100
121152,note_on,,,,,92,0,11,,,,,4,,,62,100
121152,note_on,,,,,92,0,14,,,,,6,,,62,100
121152,note_on,,,,,0,0,15,,,,,7,,,71,100
121152,note_on,,,,,32,0,8,,,,,1,,,72,100
121152,note_on,,,,,92,0,9,,,,,2,,,71,100
121152,note_on,,,,,92,0,13,,,,,6,,,67,100
121152,note_on,,,,,0,0,13,,,,,6,,,71,100
121216,note_off,,,,,64,0,8,,,,,1,,,72,100
121248,note_on,,,,,32,0,8,,,,,1,,,74,100
121252,note_off,,,,,100,0,9,,,,,2,,,71,100
121252,note_off,,,,,100,0,16,,,,,7,,,62,100
121252,note_off,,,,,100,0,13,,,,,6,,,67,100
121252,note_off,,,,,100,0,14,,,,,6,,,62,100
121252,note_off,,,,,0,0,13,,,,,6,,,71,100
121252,note_off,,,,,100,0,10,,,,,3,,,67,100
121252,note_off,,,,,100,0,12,,,,,5,,,50,100
121252,note_off,,,,,100,0,11,,,,,4,,,62,100
121252,note_off,,,,,0,0,15,,,,,7,,,71,100
121252,note_off,,,,,100,0,15,,,,,7,,,67,100
121312,note_off,,,,,64,0,8,,,,,1,,,74,100
121344,note_on,,,,,92,0,12,,,,,5,,,38,100
121344,note_on,,,,,92,0,16,,,,,7,,,50,100
121344,note_on,,,,,92,0,9,,,,,2,,,69,100
121344,note_on,,,,,0,0,15,,,,,7,,,69,100
121344,note_on,,,,,92,0,15,,,,,7,,,66,100
121344,note_on,,,,,92,0,13,,,,,6,,,66,100
121344,note_on,,,,,92,0,14,,,,,6,,,50,100
121344,note_on,,,,,92,0,11,,,,,4,,,50,100
121344,note_on,,,,,32,0,8,,,,,1,,,76,100
121344,note_on,,,,,92,0,10,,,,,3,,,62,100
121344,note_on,,,,,0,0,13,,,,,6,,,69,100
121408,note_off,,,,,64,0,8,,,,,1,,,76,100
121440,note_on,,,,,32,0,8,,,,,1,,,78,100
121444,note_off,,,,,0,0,13,,,,,6,,,69,100
121444,note_off,,,,,100,0,11,,,,,4,,,50,100
121444,note_off,,,,,0,0,15,,,,,7,,,69,100
121444,note_off,,,,,100,0,16,,,,,7,,,50,100
121444,note_off,,,,,100,0,9,,,,,2,,,69,100
121444,note_off,,,,,100,0,10,,,,,3,,,62,100
121444,note_off,,,,,100,0,12,,,,,5,,,38,100
121444,note_off,,,,,100,0,14,,,,,6,,,50,100
121444,note_off,,,,,100,0,13,,,,,6,,,66,100
121444,note_off,,,,,100,0,15,,,,,7,,,66,100
121504,note_off,,,,,64,0,8,,,,,1,,,78,100
121536,note_on,,,,,0,0,15,,,,,7,,,67,100
121536,note_on,,,,,0,0,15,,,,,7,,,62,100
121536,note_on,,,,,92,0,16,,,,,7,,,43,100
121536,note_on,,,,,92,0,15,,,,,7,,,59,100
121536,note_on,,,,,0,0,13,,,,,6,,,67,100
121536,note_on,,,,,92,0,12,,,,,5,,,31,100
121536,note_on,,,,,92,0,10,,,,,3,,,59,100
121536,note_on,,,,,92,0,14,,,,,6,,,43,100
121536,note_on,,,,,32,0,8,,,,,1,,,79,100
121536,note_on,,,,,92,0,9,,,,,2,,,67,100
121536,note_on,,,,,92,0,11,,,,,4,,,43,100
121536,note_on,,,,,0,0,13,,,,,6,,,62,100
121536,note_on,,,,,92,0,13,,,,,6,,,59,100
121600,note_off,,,,,64,0,9,,,,,2,,,67,100
121632,note_on,,,,,32,0,9,,,,,2,,,71,100
121636,note_off,,,,,100,0,10,,,,,3,,,59,100
121636,note_off,,,,,0,0,15,,,,,7,,,67,100
121636,note_off,,,,,100,0,16,,,,,7,,,43,100
121636,note_off,,,,,0,0,15,,,,,7,,,62,100
121636,note_off,,,,,100,0,14,,,,,6,,,43,100
121636,note_off,,,,,100,0,12,,,,,5,,,31,100
121636,note_off,,,,,0,0,13,,,,,6,,,67,100
121636,note_off,,,,,0,0,13,,,,,6,,,62,100
121636,note_off,,,,,100,0,15,,,,,7,,,59,100
121636,note_off,,,,,100,0,8,,,,,1,,,79,100
121636,note_off,,,,,100,0,13,,,,,6,,,59,100
121636,note_off,,,,,100,0,11,,,,,4,,,43,100
121696,note_off,,,,,64,0,9,,,,,2,,,71,100
121728,note_on,,,,,92,0,8,,,,,1,,,71,100
121728,note_on,,,,,92,0,15,,,,,7,,,67,100
121728,note_on,,,,,0,0,15,,,,,7,,,71,100
121728,note_on,,,,,0,0,13,,,,,6,,,71,100
121728,note_on,,,,,92,0,12,,,,,5,,,38,100
121728,note_on,,,,,92,0,10,,,,,3,,,67,100
121728,note_on,,,,,92,0,16,,,,,7,,,50,100
121728,note_on,,,,,92,0,13,,,,,6,,,67,100
121728,note_on,,,,,32,0,9,,,,,2,,,72,100
121728,note_on,,,,,92,0,14,,,,,6,,,50,100
121728,note_on,,,,,92,0,11,,,,,4,,,50,100
121792,note_off,,,,,64,0,9,,,,,2,,,72,100
121824,note_on,,,,,32,0,9,,,,,2,,,74,100
121828,note_off,,,,,100,0,10,,,,,3,,,67,100
121828,note_off,,,,,100,0,14,,,,,6,,,50,100
121828,note_off,,,,,100,0,15,,,,,7,,,67,100
121828,note_off,,,,,0,0,15,,,,,7,,,71,100
121828,note_off,,,,,100,0,13,,,,,6,,,67,100
121828,note_off,,,,,0,0,13,,,,,6,,,71,100
121828,note_off,,,,,100,0,16,,,,,7,,,50,100
121828,note_off,,,,,100,0,12,,,,,5,,,38,100
121828,note_off,,,,,100,0,8,,,,,1,,,71,100
121828,note_off,,,,,100,0,11,,,,,4,,,50,100
121888,note_off,,,,,64,0,9,,,,,2,,,74,100
121920,note_on,,,,,92,0,13,,,,,6,,,66,100
121920,note_on,,,,,92,0,10,,,,,3,,,62,100
121920,note_on,,,,,92,0,15,,,,,7,,,66,100
121920,note_on,,,,,0,0,15,,,,,7,,,69,100
121920,note_on,,,,,92,0,16,,,,,7,,,38,100
121920,note_on,,,,,92,0,12,,,,,5,,,38,100
121920,note_on,,,,,92,0,14,,,,,6,,,38,100
121920,note_on,,,,,92,0,8,,,,,1,,,69,100
121920,note_on,,,,,92,0,11,,,,,4,,,38,100
121920,note_on,,,,,0,0,13,,,,,6,,,69,100
121920,note_on,,,,,32,0,9,,,,,2,,,76,100
121984,note_off,,,,,64,0,9,,,,,2,,,76,100
122016,note_on,,,,,32,0,9,,,,,2,,,78,93
122020,note_off,,,,,100,0,8,,,,,1,,,69,100
122020,note_off,,,,,100,0,15,,,,,7,,,66,100
122020,note_off,,,,,0,0,15,,,,,7,,,69,100
122020,note_off,,,,,100,0,14,,,,,6,,,38,100
122020,note_off,,,,,0,0,13,,,,,6,,,69,100
122020,note_off,,,,,100,0,16,,,,,7,,,38,100
122020,note_off,,,,,100,0,13,,,,,6,,,66,100
122020,note_off,,,,,100,0,12,,,,,5,,,38,100
122020,note_off,,,,,100,0,10,,,,,3,,,62,100
122020,note_off,,,,,100,0,11,,,,,4,,,38,100
122080,note_off,,,,,64,0,9,,,,,2,,,78,100
122112,note_on,,,,,0,0,15,,,,,7,,,67,100
122112,note_on,,,,,92,0,14,,,,,6,,,55,100
122112,note_on,,,,,92,0,12,,,,,5,,,43,85
122112,note_on,,,,,92,0,16,,,,,7,,,55,100
122112,note_on,,,,,92,0,15,,,,,7,,,74,100
122112,note_on,,,,,92,0,10,,,,,3,,,59,85
122112,note_on,,,,,0,0,15,,,,,7,,,71,100
122112,note_on,,,,,92,0,8,,,,,1,,,67,85
122112,note_on,,,,,0,0,13,,,,,6,,,67,100
122112,note_on,,,,,92,0,11,,,,,4,,,55,85
122112,note_on,,,,,32,0,9,,,,,2,,,79,85
122112,note_on,,,,,0,0,13,,,,,6,,,74,100
122112,note_on,,,,,92,0,13,,,,,6,,,71,100
122176,note_off,,,,,64,0,8,,,,,1,,,67,100
122208,note_on,,,,,32,0,8,,,,,1,,,71,85
122212,note_off,,,,,0,0,13,,,,,6,,,74,100
122212,note_off,,,,,100,0,10,,,,,3,,,59,100
122212,note_off,,,,,0,0,15,,,,,7,,,71,100
122212,note_off,,,,,0,0,15,,,,,7,,,67,100
122212,note_off,,,,,100,0,16,,,,,7,,,55,100
122212,note_off,,,,,100,0,11,,,,,4,,,55,100
122212,note_off,,,,,100,0,9,,,,,2,,,79,100
122212,note_off,,,,,100,0,15,,,,,7,,,74,100
122212,note_off,,,,,100,0,14,,,,,6,,,55,100
122212,note_off,,,,,100,0,12,,,,,5,,,43,100
122212,note_off,,,,,0,0,13,,,,,6,,,67,100
122212,note_off,,,,,100,0,13,,,,,6,,,71,100
122272,note_off,,,,,64,0,8,,,,,1,,,71,100
122304,note_on,,,,,92,0,14,,,,,6,,,62,100
122304,note_on,,,,,32,0,8,,,,,1,,,72,85
122304,note_on,,,,,92,0,11,,,,,4,,,62,85
122304,note_on,,,,,0,0,15,,,,,7,,,71,100
122304,note_on,,,,,92,0,15,,,,,7,,,67,100
122304,note_on,,,,,92,0,16,,,,,7,,,62,100
122304,note_on,,,,,92,0,9,,,,,2,,,71,85
122304,note_on,,,,,92,0,12,,,,,5,,,50,85
122304,note_on,,,,,92,0,10,,,,,3,,,67,85
122304,note_on,,,,,92,0,13,,,,,6,,,67,100
122304,note_on,,,,,0,0,13,,,,,6,,,71,100
122368,note_off,,,,,64,0,8,,,,,1,,,72,100
122400,note_on,,,,,32,0,8,,,,,1,,,74,85
122404,note_off,,,,,100,0,14,,,,,6,,,62,100
122404,note_off,,,,,100,0,10,,,,,3,,,67,100
122404,note_off,,,,,100,0,11,,,,,4,,,62,100
122404,note_off,,,,,100,0,16,,,,,7,,,62,100
122404,note_off,,,,,0,0,13,,,,,6,,,71,100
122404,note_off,,,,,100,0,13,,,,,6,,,67,100
122404,note_off,,,,,100,0,12,,,,,5,,,50,100
122404,note_off,,,,,100,0,9,,,,,2,,,71,100
122404,note_off,,,,,100,0,15,,,,,7,,,67,100
122404,note_off,,,,,0,0,15,,,,,7,,,71,100
122464,note_off,,,,,64,0,8,,,,,1,,,74,100
122496,note_on,,,,,0,0,13,,,,,6,,,69,100
122496,note_on,,,,,32,0,8,,,,,1,,,76,85
122496,note_on,,,,,92,0,14,,,,,6,,,50,100
122496,note_on,,,,,92,0,16,,,,,7,,,50,100
122496,note_on,,,,,92,0,13,,,,,6,,,66,100
122496,note_on,,,,,0,0,15,,,,,7,,,69,100
122496,note_on,,,,,92,0,15,,,,,7,,,66,100
122496,note_on,,,,,92,0,9,,,,,2,,,69,85
122496,note_on,,,,,92,0,12,,,,,5,,,38,85
122496,note_on,,,,,92,0,10,,,,,3,,,62,85
122496,note_on,,,,,92,0,11,,,,,4,,,50,85
122560,note_off,,,,,64,0,8,,,,,1,,,76,100
122592,note_on,,,,,32,0,8,,,,,1,,,78,87
122596,note_off,,,,,100,0,11,,,,,4,,,50,100
122596,note_off,,,,,100,0,9,,,,,2,,,69,100
122596,note_off,,,,,100,0,16,,,,,7,,,50,100
122596,note_off,,,,,100,0,14,,,,,6,,,50,100
122596,note_off,,,,,100,0,10,,,,,3,,,62,100
122596,note_off,,,,,0,0,13,,,,,6,,,69,100
122596,note_off,,,,,0,0,15,,,,,7,,,69,100
122596,note_off,,,,,100,0,13,,,,,6,,,66,100
122596,note_off,,,,,100,0,15,,,,,7,,,66,100
122596,note_off,,,,,100,0,12,,,,,5,,,38,100
122656,note_off,,,,,64,0,8,,,,,1,,,78,100
122688,note_on,,,,,92,0,10,,,,,3,,,59,89
122688,note_on,,,,,92,0,12,,,,,5,,,31,89
122688,note_on,,,,,0,0,13,,,,,6,,,67,100
122688,note_on,,,,,0,0,13,,,,,6,,,62,100
122688,note_on,,,,,92,0,11,,,,,4,,,43,89
122688,note_on,,,,,0,0,15,,,,,7,,,62,100
122688,note_on,,,,,0,0,15,,,,,7,,,67,100
122688,note_on,,,,,92,0,16,,,,,7,,,43,100
122688,note_on,,,,,92,0,13,,,,,6,,,59,100
122688,note_on,,,,,92,0,14,,,,,6,,,43,100
122688,note_on,,,,,92,0,9,,,,,2,,,67,89
122688,note_on,,,,,92,0,15,,,,,7,,,59,100
122688,note_on,,,,,32,0,8,,,,,1,,,79,89
122752,note_off,,,,,64,0,9,,,,,2,,,67,100
122752,note_off,,,,,64,0,8,,,,,1,,,79,100
122784,note_on,,,,,32,0,8,,,,,1,,,74,92
122784,note_on,,,,,32,0,9,,,,,2,,,71,92
122788,note_off,,,,,100,0,12,,,,,5,,,31,100
122788,note_off,,,,,100,0,14,,,,,6,,,43,100
122788,note_off,,,,,0,0,15,,,,,7,,,67,100
122788,note_off,,,,,100,0,11,,,,,4,,,43,100
122788,note_off,,,,,100,0,13,,,,,6,,,59,100
122788,note_off,,,,,0,0,13,,,,,6,,,62,100
122788,note_off,,,,,0,0,13,,,,,6,,,67,100
122788,note_off,,,,,100,0,16,,,,,7,,,43,100
122788,note_off,,,,,100,0,15,,,,,7,,,59,100
122788,note_off,,,,,0,0,15,,,,,7,,,62,100
122788,note_off,,,,,100,0,10,,,,,3,,,59,100
122848,note_off,,,,,64,0,9,,,,,2,,,71,100
122848,note_off,,,,,64,0,8,,,,,1,,,74,100
122880,note_on,,,,,92,0,14,,,,,6,,,50,100
122880,note_on,,,,,92,0,10,,,,,3,,,67,94
122880,note_on,,,,,32,0,8,,,,,1,,,76,94
122880,note_on,,,,,92,0,11,,,,,4,,,50,94
122880,note_on,,,,,32,0,9,,,,,2,,,72,94
122880,note_on,,,,,0,0,15,,,,,7,,,71,100
122880,note_on,,,,,92,0,13,,,,,6,,,67,100
122880,note_on,,,,,92,0,12,,,,,5,,,38,94
122880,note_on,,,,,92,0,15,,,,,7,,,67,100
122880,note_on,,,,,0,0,13,,,,,6,,,71,100
122880,note_on,,,,,92,0,16,,,,,7,,,50,100
122944,note_off,,,,,64,0,9,,,,,2,,,72,100
122944,note_off,,,,,64,0,8,,,,,1,,,76,100
122976,note_on,,,,,32,0,8,,,,,1,,,78,97
122976,note_on,,,,,32,0,9,,,,,2,,,74,97
122980,note_off,,,,,0,0,15,,,,,7,,,71,100
122980,note_off,,,,,100,0,11,,,,,4,,,50,100
122980,note_off,,,,,100,0,13,,,,,6,,,67,100
122980,note_off,,,,,0,0,13,,,,,6,,,71,100
122980,note_off,,,,,100,0,10,,,,,3,,,67,100
122980,note_off,,,,,100,0,16,,,,,7,,,50,100
122980,note_off,,,,,100,0,15,,,,,7,,,67,100
122980,note_off,,,,,100,0,14,,,,,6,,,50,100
122980,note_off,,,,,100,0,12,,,,,5,,,38,100
123040,note_off,,,,,64,0,9,,,,,2,,,74,100
123040,note_off,,,,,64,0,8,,,,,1,,,78,100
123072,note_on,,,,,92,0,14,,,,,6,,,38,100
123072,note_on,,,,,0,0,15,,,,,7,,,69,100
123072,note_on,,,,,92,0,15,,,,,7,,,66,100
123072,note_on,,,,,92,0,10,,,,,3,,,62,99
123072,note_on,,,,,92,0,12,,,,,5,,,38,99
123072,note_on,,,,,92,0,11,,,,,4,,,38,99
123072,note_on,,,,,32,0,8,,,,,1,,,79,99
123072,note_on,,,,,92,0,16,,,,,7,,,38,100
123072,note_on,,,,,32,0,9,,,,,2,,,76,99
123072,note_on,,,,,92,0,13,,,,,6,,,66,100
123072,note_on,,,,,0,0,13,,,,,6,,,69,100
123136,note_off,,,,,64,0,8,,,,,1,,,79,100
123136,note_off,,,,,64,0,9,,,,,2,,,76,100
123168,note_on,,,,,32,0,9,,,,,2,,,78,102
123168,note_on,,,,,32,0,8,,,,,1,,,81,102
123172,note_off,,,,,100,0,16,,,,,7,,,38,100
123172,note_off,,,,,100,0,10,,,,,3,,,62,100
123172,note_off,,,,,0,0,13,,,,,6,,,69,100
123172,note_off,,,,,100,0,13,,,,,6,,,66,100
123172,note_off,,,,,0,0,15,,,,,7,,,69,100
123172,note_off,,,,,100,0,14,,,,,6,,,38,100
123172,note_off,,,,,100,0,15,,,,,7,,,66,100
123172,note_off,,,,,100,0,12,,,,,5,,,38,100
123172,note_off,,,,,100,0,11,,,,,4,,,38,100
123232,note_off,,,,,64,0,9,,,,,2,,,78,100
123232,note_off,,,,,64,0,8,,,,,1,,,81,100
123264,note_on,,,,,92,0,12,,,,,5,,,31,105
123264,note_on,,,,,92,0,16,,,,,7,,,43,100
123264,note_on,,,,,92,0,13,,,,,6,,,70,100
123264,note_on,,,,,92,0,14,,,,,6,,,43,100
123264,note_on,,,,,92,0,15,,,,,7,,,67,100
123264,note_on,,,,,0,0,13,,,,,6,,,67,100
123264,note_on,,,,,32,0,8,,,,,1,,,82,105
123264,note_on,,,,,0,0,15,,,,,7,,,79,100
123264,note_on,,,,,0,0,15,,,,,7,,,70,100
123264,note_on,,,,,92,0,10,,,,,3,,,62,105
123264,note_on,,,,,32,0,9,,,,,2,,,79,105
123264,note_on,,,,,92,0,11,,,,,4,,,43,105
123264,note_on,,,,,0,0,13,,,,,6,,,62,100
123364,note_off,,,,,100,0,12,,,,,5,,,31,100
123364,note_off,,,,,100,0,16,,,,,7,,,43,100
123364,note_off,,,,,100,0,14,,,,,6,,,43,100
123364,note_off,,,,,100,0,11,,,,,4,,,43,100
123392,note_off,,,,,0,0,15,,,,,7,,,70,100
123392,note_off,,,,,128,0,15,,,,,7,,,67,100
123452,note_off,,,,,60,0,15,,,,,7,,,79,100
123452,note_off,,,,,188,0,13,,,,,6,,,70,100
123452,note_off,,,,,188,0,8,,,,,1,,,82,100
123456,note_on,,,,,4,0,15,,,,,7,,,81,100
123456,note_on,,,,,92,0,16,,,,,7,,,55,100
123456,note_on,,,,,92,0,12,,,,,5,,,43,103
123456,note_on,,,,,92,0,11,,,,,4,,,55,103
123456,note_on,,,,,4,0,13,,,,,6,,,69,100
123456,note_on,,,,,4,0,8,,,,,1,,,81,103
123456,note_on,,,,,92,0,14,,,,,6,,,55,100
123520,note_off,,,,,256,0,9,,,,,2,,,79,100
123556,note_off,,,,,100,0,11,,,,,4,,,55,100
123556,note_off,,,,,100,0,14,,,,,6,,,55,100
123556,note_off,,,,,100,0,12,,,,,5,,,43,100
123556,note_off,,,,,100,0,16,,,,,7,,,55,100
123644,note_off,,,,,188,0,15,,,,,7,,,81,100
123644,note_off,,,,,188,0,13,,,,,6,,,69,100
123644,note_off,,,,,188,0,8,,,,,1,,,81,100
123648,note_off,,,,,384,0,10,,,,,3,,,62,100
123648,note_off,,,,,4,0,13,,,,,6,,,62,100
123648,note_off,,,,,0,0,13,,,,,6,,,67,100
123648,note_on,,,,,0,0,13,,,,,6,,,70,100
123648,note_on,,,,,92,0,16,,,,,7,,,43,100
123648,note_on,,,,,92,0,12,,,,,5,,,31,100
123648,note_on,,,,,92,0,14,,,,,6,,,43,100
123648,note_on,,,,,0,0,15,,,,,7,,,82,100
123648,note_on,,,,,4,0,8,,,,,1,,,79,100
123648,note_on,,,,,4,0,15,,,,,7,,,79,100
123648,note_on,,,,,92,0,11,,,,,4,,,43,100
123748,note_off,,,,,100,0,16,,,,,7,,,43,100
123748,note_off,,,,,100,0,11,,,,,4,,,43,100
123748,note_off,,,,,100,0,12,,,,,5,,,31,100
123748,note_off,,,,,100,0,14,,,,,6,,,43,100
123776,note_off,,,,,128,0,13,,,,,6,,,70,100
123776,note_off,,,,,0,0,15,,,,,7,,,82,100
123776,note_off,,,,,128,0,15,,,,,7,,,79,100
123776,note_off,,,,,128,0,8,,,,,1,,,79,100
123840,note_on,,,,,0,0,15,,,,,7,,,79,100
123840,note_on,,,,,64,0,13,,,,,6,,,70,100
123840,note_on,,,,,0,0,13,,,,,6,,,67,100
123840,note_on,,,,,0,0,13,,,,,6,,,62,100
123840,note_on,,,,,92,0,16,,,,,7,,,43,100
123840,note_on,,,,,92,0,14,,,,,6,,,43,100
123840,note_on,,,,,320,0,9,,,,,2,,,82,105
123840,note_on,,,,,92,0,12,,,,,5,,,31,105
123840,note_on,,,,,64,0,8,,,,,1,,,79,105
123840,note_on,,,,,64,0,15,,,,,7,,,82,100
123840,note_on,,,,,92,0,11,,,,,4,,,43,105
123840,note_on,,,,,192,0,10,,,,,3,,,62,105
123940,note_off,,,,,100,0,12,,,,,5,,,31,100
123940,note_off,,,,,100,0,11,,,,,4,,,43,100
123940,note_off,,,,,100,0,16,,,,,7,,,43,100
123940,note_off,,,,,100,0,14,,,,,6,,,43,100
124028,note_off,,,,,188,0,8,,,,,1,,,79,100
124028,note_off,,,,,188,0,13,,,,,6,,,70,100
124028,note_off,,,,,0,0,15,,,,,7,,,79,100
124028,note_off,,,,,188,0,9,,,,,2,,,82,100
124028,note_off,,,,,188,0,15,,,,,7,,,82,100
124032,note_on,,,,,4,0,15,,,,,7,,,77,100
124032,note_on,,,,,4,0,9,,,,,2,,,81,104
124032,note_on,,,,,4,0,13,,,,,6,,,69,100
124032,note_on,,,,,92,0,11,,,,,4,,,55,104
124032,note_on,,,,,0,0,15,,,,,7,,,81,100
124032,note_on,,,,,4,0,8,,,,,1,,,77,104
124032,note_on,,,,,92,0,12,,,,,5,,,43,104
124032,note_on,,,,,92,0,14,,,,,6,,,55,100
124032,note_on,,,,,92,0,16,,,,,7,,,55,100
124096,note_off,,,,,256,0,10,,,,,3,,,62,100
124132,note_off,,,,,100,0,16,,,,,7,,,55,100
124132,note_off,,,,,100,0,11,,,,,4,,,55,100
124132,note_off,,,,,100,0,12,,,,,5,,,43,100
124132,note_off,,,,,100,0,14,,,,,6,,,55,100
124220,note_off,,,,,188,0,15,,,,,7,,,77,100
124220,note_off,,,,,0,0,13,,,,,6,,,69,100
124220,note_off,,,,,188,0,13,,,,,6,,,62,100
124220,note_off,,,,,188,0,8,,,,,1,,,77,100
124220,note_off,,,,,188,0,9,,,,,2,,,81,100
124220,note_off,,,,,0,0,15,,,,,7,,,81,100
124224,note_on,,,,,92,0,12,,,,,5,,,31,102
124224,note_on,,,,,0,0,13,,,,,6,,,63,100
124224,note_on,,,,,4,0,13,,,,,6,,,67,100
124224,note_on,,,,,128,0,10,,,,,3,,,70,102
124224,note_on,,,,,92,0,11,,,,,4,,,43,102
124224,note_on,,,,,0,0,15,,,,,7,,,79,100
124224,note_on,,,,,4,0,15,,,,,7,,,75,100
124224,note_on,,,,,92,0,16,,,,,7,,,43,100
124224,note_on,,,,,4,0,9,,,,,2,,,79,102
124224,note_on,,,,,4,0,8,,,,,1,,,75,102
124224,note_on,,,,,92,0,14,,,,,6,,,43,100
124300,note_off,,,,,76,0,13,,,,,6,,,67,100
124324,note_off,,,,,100,0,16,,,,,7,,,43,100
124324,note_off,,,,,100,0,12,,,,,5,,,31,100
124324,note_off,,,,,24,0,13,,,,,6,,,63,100
124324,note_off,,,,,100,0,14,,,,,6,,,43,100
124324,note_off,,,,,100,0,11,,,,,4,,,43,100
124352,note_off,,,,,128,0,8,,,,,1,,,75,100
124352,note_off,,,,,128,0,10,,,,,3,,,70,100
124352,note_off,,,,,28,0,13,,,,,6,,,67,100
124352,note_off,,,,,128,0,9,,,,,2,,,79,100
124416,note_on,,,,,92,0,16,,,,,7,,,43,100
124416,note_on,,,,,0,0,13,,,,,6,,,67,100
124416,note_on,,,,,64,0,13,,,,,6,,,70,100
124416,note_on,,,,,92,0,12,,,,,5,,,31,100
124416,note_on,,,,,92,0,11,,,,,4,,,43,100
124416,note_on,,,,,0,0,13,,,,,6,,,63,100
124416,note_on,,,,,64,0,9,,,,,2,,,79,100
124416,note_on,,,,,64,0,8,,,,,1,,,75,100
124416,note_on,,,,,92,0,14,,,,,6,,,43,100
124416,note_on,,,,,64,0,10,,,,,3,,,70,100
124516,note_off,,,,,100,0,13,,,,,6,,,70,100
124516,note_off,,,,,0,0,13,,,,,6,,,67,100
124516,note_off,,,,,100,0,16,,,,,7,,,43,100
124516,note_off,,,,,100,0,12,,,,,5,,,31,100
124516,note_off,,,,,100,0,14,,,,,6,,,43,100
124516,note_off,,,,,0,0,13,,,,,6,,,63,100
124516,note_off,,,,,100,0,11,,,,,4,,,43,100
124604,note_off,,,,,188,0,10,,,,,3,,,70,100
124604,note_off,,,,,188,0,9,,,,,2,,,79,100
124604,note_off,,,,,0,0,15,,,,,7,,,79,100
124604,note_off,,,,,188,0,8,,,,,1,,,75,100
124604,note_off,,,,,380,0,15,,,,,7,,,75,100
124608,note_on,,,,,92,0,14,,,,,6,,,56,100
124608,note_on,,,,,92,0,13,,,,,6,,,71,100
124608,note_on,,,,,0,0,13,,,,,6,,,74,100
124608,note_on,,,,,0,0,13,,,,,6,,,65,100
124608,note_on,,,,,4,0,8,,,,,1,,,74,98
124608,note_on,,,,,92,0,16,,,,,7,,,56,100
124608,note_on,,,,,4,0,15,,,,,7,,,71,100
124608,note_on,,,,,4,0,9,,,,,2,,,77,98
124608,note_on,,,,,4,0,10,,,,,3,,,71,98
124608,note_on,,,,,0,0,15,,,,,7,,,77,100
124608,note_on,,,,,92,0,11,,,,,4,,,56,98
124608,note_on,,,,,92,0,12,,,,,5,,,44,98
124708,note_off,,,,,100,0,11,,,,,4,,,56,100
124708,note_off,,,,,0,0,13,,,,,6,,,65,100
124708,note_off,,,,,0,0,13,,,,,6,,,74,100
124708,note_off,,,,,100,0,16,,,,,7,,,56,100
124708,note_off,,,,,100,0,13,,,,,6,,,71,100
124708,note_off,,,,,100,0,14,,,,,6,,,56,100
124708,note_off,,,,,100,0,12,,,,,5,,,44,100
124796,note_off,,,,,0,0,15,,,,,7,,,77,100
124796,note_off,,,,,188,0,15,,,,,7,,,71,100
124796,note_off,,,,,188,0,10,,,,,3,,,71,100
124796,note_off,,,,,188,0,9,,,,,2,,,77,100
124796,note_off,,,,,188,0,8,,,,,1,,,74,100
124800,note_on,,,,,92,0,12,,,,,5,,,45,96
124800,note_on,,,,,4,0,15,,,,,7,,,73,100
124800,note_on,,,,,0,0,13,,,,,6,,,73,100
124800,note_on,,,,,92,0,13,,,,,6,,,64,100
124800,note_on,,,,,0,0,15,,,,,7,,,76,100
124800,note_on,,,,,4,0,10,,,,,3,,,73,96
124800,note_on,,,,,4,0,8,,,,,1,,,73,96
124800,note_on,,,,,92,0,16,,,,,7,,,57,100
124800,note_on,,,,,92,0,14,,,,,6,,,57,100
124800,note_on,,,,,92,0,11,,,,,4,,,57,96
124800,note_on,,,,,4,0,9,,,,,2,,,76,96
124900,note_off,,,,,100,0,12,,,,,5,,,45,100
124900,note_off,,,,,100,0,16,,,,,7,,,57,100
124900,note_off,,,,,100,0,13,,,,,6,,,64,100
124900,note_off,,,,,0,0,13,,,,,6,,,73,100
124900,note_off,,,,,100,0,14,,,,,6,,,57,100
124900,note_off,,,,,100,0,11,,,,,4,,,57,100
124928,note_off,,,,,128,0,10,,,,,3,,,73,100
124928,note_off,,,,,128,0,9,,,,,2,,,76,100
124928,note_off,,,,,128,0,8,,,,,1,,,73,100
124988,note_off,,,,,188,0,15,,,,,7,,,73,100
124988,note_off,,,,,0,0,15,,,,,7,,,76,100
124992,note_on,,,,,92,0,16,,,,,7,,,50,100
124992,note_on,,,,,92,0,14,,,,,6,,,50,100
124992,note_on,,,,,92,0,12,,,,,5,,,38,94
124992,note_on,,,,,64,0,10,,,,,3,,,69,94
124992,note_on,,,,,64,0,9,,,,,2,,,78,94
124992,note_on,,,,,92,0,13,,,,,6,,,66,100
124992,note_on,,,,,92,0,11,,,,,4,,,50,94
124992,note_on,,,,,64,0,8,,,,,1,,,74,94
124992,note_on,,,,,4,0,15,,,,,7,,,74,100
124992,note_on,,,,,0,0,15,,,,,7,,,78,100
124992,note_on,,,,,0,0,13,,,,,6,,,74,100
125092,note_off,,,,,100,0,13,,,,,6,,,74,100
125180,note_off,,,,,188,0,12,,,,,5,,,38,100
125180,note_off,,,,,188,0,10,,,,,3,,,69,100
125180,note_off,,,,,188,0,15,,,,,7,,,78,100
125180,note_off,,,,,188,0,16,,,,,7,,,50,100
125180,note_off,,,,,188,0,11,,,,,4,,,50,100
125180,note_off,,,,,88,0,13,,,,,6,,,66,100
125180,note_off,,,,,188,0,14,,,,,6,,,50,100
125184,note_on,,,,,4,0,15,,,,,7,,,79,100
125184,note_on,,,,,4,0,14,,,,,6,,,52,100
125184,note_on,,,,,4,0,11,,,,,4,,,52,92
125184,note_on,,,,,4,0,13,,,,,6,,,67,100
125184,note_on,,,,,4,0,12,,,,,5,,,40,92
125184,note_on,,,,,4,0,16,,,,,7,,,52,100
125184,note_on,,,,,4,0,10,,,,,3,,,67,92
125372,note_off,,,,,188,0,10,,,,,3,,,67,100
125372,note_off,,,,,188,0,13,,,,,6,,,67,100
125372,note_off,,,,,188,0,15,,,,,7,,,79,100
125372,note_off,,,,,188,0,16,,,,,7,,,52,100
125372,note_off,,,,,188,0,11,,,,,4,,,52,100
125372,note_off,,,,,188,0,12,,,,,5,,,40,100
125372,note_off,,,,,188,0,14,,,,,6,,,52,100
125376,note_on,,,,,4,0,16,,,,,7,,,54,100
125376,note_on,,,,,4,0,10,,,,,3,,,69,91
125376,note_on,,,,,4,0,14,,,,,6,,,54,100
125376,note_on,,,,,4,0,11,,,,,4,,,54,91
125376,note_on,,,,,4,0,15,,,,,7,,,81,100
125376,note_on,,,,,4,0,13,,,,,6,,,69,100
125376,note_off,,,,,384,0,8,,,,,1,,,74,100
125376,note_on,,,,,4,0,12,,,,,5,,,42,91
125376,note_off,,,,,384,0,9,,,,,2,,,78,100
125476,note_off,,,,,100,0,11,,,,,4,,,54,100
125476,note_off,,,,,100,0,12,,,,,5,,,42,100
125476,note_off,,,,,100,0,14,,,,,6,,,54,100
125476,note_off,,,,,100,0,13,,,,,6,,,69,100
125476,note_off,,,,,100,0,16,,,,,7,,,54,100
125504,note_off,,,,,128,0,10,,,,,3,,,69,100
125564,note_off,,,,,188,0,15,,,,,7,,,81,100
125568,note_on,,,,,4,0,15,,,,,7,,,83,100
125568,note_on,,,,,192,0,8,,,,,1,,,74,92
125568,note_on,,,,,92,0,14,,,,,6,,,43,100
125568,note_on,,,,,92,0,16,,,,,7,,,43,100
125568,note_on,,,,,64,0,10,,,,,3,,,62,92
125568,note_on,,,,,0,0,13,,,,,6,,,67,100
125568,note_on,,,,,0,0,13,,,,,6,,,62,100
125568,note_on,,,,,92,0,13,,,,,6,,,71,100
125568,note_on,,,,,192,0,9,,,,,2,,,71,92
125568,note_on,,,,,92,0,11,,,,,4,,,43,92
125568,note_on,,,,,92,0,12,,,,,5,,,31,92
125668,note_off,,,,,100,0,11,,,,,4,,,43,100
125668,note_off,,,,,100,0,12,,,,,5,,,31,100
125668,note_off,,,,,100,0,14,,,,,6,,,43,100
125668,note_off,,,,,100,0,16,,,,,7,,,43,100
125756,note_off,,,,,188,0,8,,,,,1,,,74,100
125756,note_off,,,,,188,0,13,,,,,6,,,71,100
125756,note_off,,,,,188,0,15,,,,,7,,,74,100
125756,note_off,,,,,188,0,9,,,,,2,,,71,100
125756,note_off,,,,,0,0,15,,,,,7,,,83,100
125760,note_on,,,,,92,0,16,,,,,7,,,55,100
125760,note_on,,,,,92,0,14,,,,,6,,,55,100
125760,note_on,,,,,92,0,11,,,,,4,,,55,90
125760,note_on,,,,,92,0,12,,,,,5,,,43,90
125760,note_on,,,,,4,0,8,,,,,1,,,72,90
125760,note_on,,,,,4,0,9,,,,,2,,,69,90
125760,note_on,,,,,0,0,15,,,,,7,,,81,100
125760,note_on,,,,,4,0,15,,,,,7,,,72,100
125760,note_on,,,,,4,0,13,,,,,6,,,69,100
125860,note_off,,,,,100,0,14,,,,,6,,,55,100
125860,note_off,,,,,100,0,16,,,,,7,,,55,100
125860,note_off,,,,,100,0,11,,,,,4,,,55,100
125860,note_off,,,,,100,0,12,,,,,5,,,43,100
125948,note_off,,,,,188,0,9,,,,,2,,,69,100
125948,note_off,,,,,188,0,13,,,,,6,,,69,100
125948,note_off,,,,,188,0,8,,,,,1,,,72,100
125948,note_off,,,,,188,0,15,,,,,7,,,72,100
125948,note_off,,,,,0,0,15,,,,,7,,,81,100
125952,note_on,,,,,92,0,12,,,,,5,,,31,88
125952,note_on,,,,,4,0,15,,,,,7,,,79,100
125952,note_on,,,,,0,0,15,,,,,7,,,71,100
125952,note_off,,,,,4,0,13,,,,,6,,,62,100
125952,note_on,,,,,92,0,16,,,,,7,,,43,100
125952,note_off,,,,,0,0,13,,,,,6,,,67,100
125952,note_on,,,,,4,0,8,,,,,1,,,71,88
125952,note_on,,,,,0,0,13,,,,,6,,,67,100
125952,note_off,,,,,384,0,10,,,,,3,,,62,100
125952,note_on,,,,,4,0,9,,,,,2,,,67,88
125952,note_on,,,,,92,0,14,,,,,6,,,43,100
125952,note_on,,,,,92,0,11,,,,,4,,,43,88
126052,note_off,,,,,100,0,16,,,,,7,,,43,100
126052,note_off,,,,,100,0,14,,,,,6,,,43,100
126052,note_off,,,,,100,0,12,,,,,5,,,31,100
126052,note_off,,,,,100,0,9,,,,,2,,,67,100
126052,note_off,,,,,100,0,8,,,,,1,,,71,100
126052,note_off,,,,,100,0,11,,,,,4,,,43,100
126140,note_off,,,,,188,0,15,,,,,7,,,71,100
126144,note_on,,,,,192,0,10,,,,,3,,,62,92
126144,note_on,,,,,192,0,13,,,,,6,,,70,100
126144,note_on,,,,,0,0,13,,,,,6,,,67,100
126144,note_on,,,,,92,0,11,,,,,4,,,43,92
126144,note_on,,,,,92,0,9,,,,,2,,,74,92
126144,note_on,,,,,92,0,12,,,,,5,,,31,92
126144,note_on,,,,,92,0,16,,,,,7,,,43,100
126144,note_on,,,,,92,0,14,,,,,6,,,43,100
126144,note_on,,,,,4,0,15,,,,,7,,,70,100
126144,note_on,,,,,0,0,13,,,,,6,,,62,100
126144,note_on,,,,,92,0,8,,,,,1,,,70,92
126180,note_off,,,,,36,0,13,,,,,6,,,67,100
126244,note_off,,,,,100,0,14,,,,,6,,,43,100
126244,note_off,,,,,100,0,16,,,,,7,,,43,100
126244,note_off,,,,,100,0,11,,,,,4,,,43,100
126244,note_off,,,,,100,0,12,,,,,5,,,31,100
126332,note_off,,,,,188,0,8,,,,,1,,,70,100
126332,note_off,,,,,188,0,9,,,,,2,,,74,100
126336,note_on,,,,,92,0,12,,,,,5,,,43,90
126336,note_on,,,,,92,0,11,,,,,4,,,55,90
126336,note_on,,,,,92,0,14,,,,,6,,,55,100
126336,note_on,,,,,92,0,16,,,,,7,,,55,100
126336,note_on,,,,,4,0,8,,,,,1,,,69,90
126336,note_on,,,,,4,0,9,,,,,2,,,72,90
126400,note_off,,,,,256,0,10,,,,,3,,,62,100
126400,note_off,,,,,220,0,13,,,,,6,,,70,100
126400,note_off,,,,,0,0,13,,,,,6,,,62,100
126400,note_off,,,,,0,0,13,,,,,6,,,67,100
126436,note_off,,,,,100,0,11,,,,,4,,,55,100
126436,note_off,,,,,100,0,16,,,,,7,,,55,100
126436,note_off,,,,,100,0,12,,,,,5,,,43,100
126436,note_off,,,,,100,0,14,,,,,6,,,55,100
126524,note_off,,,,,380,0,15,,,,,7,,,79,100
126524,note_off,,,,,188,0,9,,,,,2,,,72,100
126524,note_off,,,,,188,0,8,,,,,1,,,69,100
126528,note_on,,,,,4,0,15,,,,,7,,,76,100
126528,note_on,,,,,92,0,12,,,,,5,,,37,88
126528,note_on,,,,,4,0,8,,,,,1,,,67,88
126528,note_on,,,,,4,0,9,,,,,2,,,70,88
126528,note_on,,,,,128,0,13,,,,,6,,,64,100
126528,note_on,,,,,92,0,14,,,,,6,,,49,100
126528,note_on,,,,,0,0,13,,,,,6,,,67,100
126528,note_on,,,,,92,0,16,,,,,7,,,49,100
126528,note_on,,,,,0,0,13,,,,,6,,,70,100
126528,note_on,,,,,128,0,10,,,,,3,,,64,88
126528,note_on,,,,,92,0,11,,,,,4,,,49,88
126604,note_off,,,,,76,0,15,,,,,7,,,70,100
126628,note_off,,,,,100,0,10,,,,,3,,,64,100
126628,note_off,,,,,0,0,13,,,,,6,,,67,100
126628,note_off,,,,,0,0,13,,,,,6,,,70,100
126628,note_off,,,,,100,0,12,,,,,5,,,37,100
126628,note_off,,,,,100,0,13,,,,,6,,,64,100
126628,note_off,,,,,100,0,8,,,,,1,,,67,100
126628,note_off,,,,,100,0,11,,,,,4,,,49,100
126628,note_off,,,,,100,0,16,,,,,7,,,49,100
126628,note_off,,,,,100,0,14,,,,,6,,,49,100
126628,note_off,,,,,100,0,9,,,,,2,,,70,100
126656,note_off,,,,,52,0,15,,,,,7,,,76,100
126720,note_on,,,,,0,0,13,,,,,6,,,66,100
126720,note_on,,,,,64,0,15,,,,,7,,,69,100
126720,note_on,,,,,0,0,15,,,,,7,,,78,100
126720,note_on,,,,,92,0,12,,,,,5,,,38,92
126720,note_on,,,,,0,0,13,,,,,6,,,69,100
126720,note_on,,,,,92,0,13,,,,,6,,,62,100
126720,note_on,,,,,92,0,11,,,,,4,,,50,92
126720,note_on,,,,,92,0,14,,,,,6,,,50,100
126720,note_on,,,,,92,0,9,,,,,2,,,69,92
126720,note_on,,,,,92,0,10,,,,,3,,,57,92
126720,note_on,,,,,92,0,8,,,,,1,,,66,92
126720,note_on,,,,,92,0,16,,,,,7,,,50,100
126784,note_off,,,,,64,0,8,,,,,1,,,66,100
126784,note_off,,,,,64,0,9,,,,,2,,,69,100
126816,note_on,,,,,32,0,8,,,,,1,,,62,91
126816,note_on,,,,,32,0,9,,,,,2,,,66,91
126848,note_off,,,,,32,0,9,,,,,2,,,66,100
126848,note_off,,,,,32,0,8,,,,,1,,,62,100
126864,note_on,,,,,16,0,8,,,,,1,,,64,91
126864,note_on,,,,,16,0,9,,,,,2,,,67,91
126896,note_off,,,,,32,0,8,,,,,1,,,64,100
126896,note_off,,,,,32,0,9,,,,,2,,,67,100
126912,note_on,,,,,16,0,9,,,,,2,,,69,91
126912,note_on,,,,,16,0,8,,,,,1,,,66,91
126920,note_off,,,,,200,0,12,,,,,5,,,38,100
126920,note_off,,,,,200,0,14,,,,,6,,,50,100
126920,note_off,,,,,0,0,13,,,,,6,,,69,100
126920,note_off,,,,,0,0,13,,,,,6,,,66,100
126920,note_off,,,,,200,0,13,,,,,6,,,62,100
126920,note_off,,,,,200,0,16,,,,,7,,,50,100
126920,note_off,,,,,200,0,10,,,,,3,,,57,100
126920,note_off,,,,,200,0,11,,,,,4,,,50,100
126920,note_off,,,,,200,0,15,,,,,7,,,69,100
126920,note_off,,,,,0,0,15,,,,,7,,,78,100
126976,note_off,,,,,64,0,9,,,,,2,,,69,100
126976,note_off,,,,,64,0,8,,,,,1,,,66,100
127008,note_on,,,,,32,0,8,,,,,1,,,67,92
127008,note_on,,,,,32,0,9,,,,,2,,,71,92
127072,note_off,,,,,64,0,8,,,,,1,,,67,100
127072,note_off,,,,,64,0,9,,,,,2,,,71,100
127104,note_on,,,,,32,0,9,,,,,2,,,72,93
127104,note_on,,,,,32,0,8,,,,,1,,,69,93
127168,note_off,,,,,64,0,9,,,,,2,,,72,100
127168,note_off,,,,,64,0,8,,,,,1,,,69,100
127200,note_on,,,,,32,0,9,,,,,2,,,74,94
127200,note_on,,,,,32,0,8,,,,,1,,,71,94
127264,note_off,,,,,64,0,8,,,,,1,,,71,100
127264,note_off,,,,,64,0,9,,,,,2,,,74,100
127296,note_on,,,,,376,0,11,,,,,4,,,50,95
127296,note_on,,,,,32,0,9,,,,,2,,,66,95
127296,note_on,,,,,376,0,10,,,,,3,,,57,95
127296,note_on,,,,,376,0,16,,,,,7,,,50,100
127296,note_on,,,,,0,0,15,,,,,7,,,69,100
127296,note_on,,,,,32,0,8,,,,,1,,,72,95
127296,note_on,,,,,376,0,12,,,,,5,,,38,95
127296,note_on,,,,,376,0,13,,,,,6,,,66,100
127296,note_on,,,,,0,0,13,,,,,6,,,69,100
127296,note_on,,,,,376,0,14,,,,,6,,,50,100
127296,note_on,,,,,376,0,15,,,,,7,,,66,100
127396,note_off,,,,,100,0,10,,,,,3,,,57,100
127396,note_off,,,,,100,0,16,,,,,7,,,50,100
127396,note_off,,,,,100,0,9,,,,,2,,,66,100
127396,note_off,,,,,100,0,11,,,,,4,,,50,100
127396,note_off,,,,,100,0,15,,,,,7,,,66,100
127396,note_off,,,,,100,0,14,,,,,6,,,50,100
127396,note_off,,,,,100,0,13,,,,,6,,,66,100
127396,note_off,,,,,0,0,13,,,,,6,,,69,100
127396,note_off,,,,,0,0,15,,,,,7,,,69,100
127396,note_off,,,,,100,0,8,,,,,1,,,72,100
127396,note_off,,,,,100,0,12,,,,,5,,,38,100
127584,note_on,,,,,188,0,15,,,,,7,,,66,100
127584,note_on,,,,,0,0,15,,,,,7,,,74,100
127584,note_on,,,,,188,0,9,,,,,2,,,66,93
127584,note_on,,,,,188,0,14,,,,,6,,,50,100
127584,note_on,,,,,188,0,13,,,,,6,,,66,100
127584,note_on,,,,,188,0,16,,,,,7,,,50,100
127584,note_on,,,,,188,0,8,,,,,1,,,69,93
127584,note_on,,,,,188,0,12,,,,,5,,,38,93
127584,note_on,,,,,0,0,13,,,,,6,,,74,100
127584,note_on,,,,,188,0,10,,,,,3,,,62,93
127584,note_on,,,,,188,0,11,,,,,4,,,50,93
127648,note_off,,,,,64,0,13,,,,,6,,,66,100
127648,note_off,,,,,0,0,15,,,,,7,,,74,100
127648,note_off,,,,,64,0,11,,,,,4,,,50,100
127648,note_off,,,,,64,0,14,,,,,6,,,50,100
127648,note_off,,,,,64,0,10,,,,,3,,,62,100
127648,note_off,,,,,64,0,8,,,,,1,,,69,100
127648,note_off,,,,,64,0,12,,,,,5,,,38,100
127648,note_off,,,,,64,0,9,,,,,2,,,66,99
127648,note_off,,,,,0,0,13,,,,,6,,,74,100
127648,note_off,,,,,64,0,15,,,,,7,,,66,100
127648,note_off,,,,,64,0,16,,,,,7,,,50,100
127680,note_on,,,,,0,0,15,,,,,7,,,71,100
127680,note_on,,,,,32,0,8,,,,,1,,,71,93
127680,note_on,,,,,32,0,13,,,,,6,,,67,100
127680,note_on,,,,,32,0,15,,,,,7,,,67,100
127680,note_on,,,,,32,0,12,,,,,5,,,31,93
127680,note_on,,,,,32,0,16,,,,,7,,,43,100
127680,note_on,,,,,32,0,11,,,,,4,,,43,93
127680,note_on,,,,,32,0,14,,,,,6,,,43,100
127680,note_on,,,,,32,0,10,,,,,3,,,62,93
127680,note_on,,,,,32,0,9,,,,,2,,,67,93
127680,note_on,,,,,0,0,13,,,,,6,,,71,100
127780,note_off,,,,,0,0,15,,,,,7,,,71,100
127780,note_off,,,,,100,0,14,,,,,6,,,43,100
127780,note_off,,,,,100,0,9,,,,,2,,,67,100
127780,note_off,,,,,100,0,11,,,,,4,,,43,100
127780,note_off,,,,,100,0,16,,,,,7,,,43,100
127780,note_off,,,,,100,0,15,,,,,7,,,67,100
127780,note_off,,,,,0,0,13,,,,,6,,,71,100
127780,note_off,,,,,100,0,10,,,,,3,,,62,100
127780,note_off,,,,,100,0,13,,,,,6,,,67,100
127780,note_off,,,,,100,0,8,,,,,1,,,71,100
127780,note_off,,,,,100,0,12,,,,,5,,,31,100
127968,note_on,,,,,0,0,13,,,,,6,,,69,100
127968,note_on,,,,,188,0,16,,,,,7,,,48,100
127968,note_on,,,,,188,0,14,,,,,6,,,48,100
127968,note_on,,,,,188,0,8,,,,,1,,,72,91
127968,note_on,,,,,188,0,12,,,,,5,,,36,91
127968,note_on,,,,,188,0,11,,,,,4,,,48,91
127968,note_on,,,,,188,0,10,,,,,3,,,64,91
127968,note_on,,,,,188,0,15,,,,,7,,,64,100
127968,note_on,,,,,0,0,15,,,,,7,,,69,100
127968,note_on,,,,,188,0,9,,,,,2,,,69,91
127968,note_on,,,,,188,0,13,,,,,6,,,64,100
128032,note_off,,,,,64,0,13,,,,,6,,,64,100
128032,note_off,,,,,64,0,9,,,,,2,,,69,100
128032,note_off,,,,,64,0,10,,,,,3,,,64,100
128032,note_off,,,,,0,0,13,,,,,6,,,69,100
128032,note_off,,,,,64,0,16,,,,,7,,,48,100
128032,note_off,,,,,64,0,8,,,,,1,,,72,100
128032,note_off,,,,,64,0,12,,,,,5,,,36,100
128032,note_off,,,,,64,0,15,,,,,7,,,64,100
128032,note_off,,,,,0,0,15,,,,,7,,,69,100
128032,note_off,,,,,64,0,11,,,,,4,,,48,100
128032,note_off,,,,,64,0,14,,,,,6,,,48,100
128064,note_on,,,,,32,0,9,,,,,2,,,67,95
128064,note_on,,,,,32,0,8,,,,,1,,,71,95
128064,note_on,,,,,0,0,15,,,,,7,,,66,100
128064,note_on,,,,,32,0,13,,,,,6,,,62,100
128064,note_on,,,,,32,0,12,,,,,5,,,38,95
128064,note_on,,,,,0,0,13,,,,,6,,,66,100
128064,note_on,,,,,32,0,16,,,,,7,,,50,100
128064,note_on,,,,,32,0,11,,,,,4,,,50,95
128064,note_on,,,,,32,0,15,,,,,7,,,62,100
128064,note_on,,,,,32,0,14,,,,,6,,,50,100
128064,note_on,,,,,32,0,10,,,,,3,,,57,95
128108,note_off,,,,,44,0,8,,,,,1,,,71,100
128112,note_on,,,,,4,0,8,,,,,1,,,69,95
128124,note_off,,,,,60,0,9,,,,,2,,,67,100
128128,note_on,,,,,4,0,9,,,,,2,,,66,95
128156,note_off,,,,,44,0,8,,,,,1,,,69,100
128160,note_on,,,,,4,0,8,,,,,1,,,71,94
128164,note_off,,,,,100,0,14,,,,,6,,,50,100
128164,note_off,,,,,100,0,11,,,,,4,,,50,100
128164,note_off,,,,,100,0,12,,,,,5,,,38,100
128164,note_off,,,,,100,0,16,,,,,7,,,50,100
128188,note_off,,,,,60,0,9,,,,,2,,,66,100
128192,note_on,,,,,4,0,9,,,,,2,,,67,94
128204,note_off,,,,,44,0,8,,,,,1,,,71,100
128208,note_on,,,,,4,0,8,,,,,1,,,69,93
128252,note_off,,,,,60,0,9,,,,,2,,,67,100
128252,note_off,,,,,44,0,8,,,,,1,,,69,100
128256,note_off,,,,,192,0,10,,,,,3,,,57,100
128256,note_on,,,,,92,0,14,,,,,6,,,38,100
128256,note_on,,,,,4,0,9,,,,,2,,,66,93
128256,note_on,,,,,92,0,12,,,,,5,,,38,93
128256,note_on,,,,,92,0,11,,,,,4,,,38,93
128256,note_on,,,,,4,0,8,,,,,1,,,69,93
128256,note_on,,,,,92,0,16,,,,,7,,,38,100
128320,note_off,,,,,0,0,13,,,,,6,,,66,100
128320,note_off,,,,,256,0,13,,,,,6,,,62,100
128320,note_off,,,,,64,0,8,,,,,1,,,69,100
128320,note_off,,,,,256,0,15,,,,,7,,,62,100
128320,note_off,,,,,64,0,9,,,,,2,,,66,100
128320,note_off,,,,,0,0,15,,,,,7,,,66,100
128352,note_on,,,,,96,0,10,,,,,3,,,62,94
128352,note_on,,,,,32,0,9,,,,,2,,,67,94
128352,note_on,,,,,32,0,8,,,,,1,,,67,94
128356,note_off,,,,,100,0,12,,,,,5,,,38,100
128356,note_off,,,,,100,0,11,,,,,4,,,38,100
128356,note_off,,,,,100,0,14,,,,,6,,,38,100
128356,note_off,,,,,100,0,16,,,,,7,,,38,100
128416,note_off,,,,,64,0,8,,,,,1,,,67,100
128416,note_off,,,,,64,0,10,,,,,3,,,62,100
128416,note_off,,,,,64,0,9,,,,,2,,,67,100
128448,note_on,,,,,0,0,15,,,,,7,,,67,100
128448,note_on,,,,,32,0,9,,,,,2,,,67,95
128448,note_on,,,,,92,0,11,,,,,4,,,55,95
128448,note_on,,,,,92,0,16,,,,,7,,,55,100
128448,note_on,,,,,32,0,8,,,,,1,,,67,95
128448,note_on,,,,,32,0,10,,,,,3,,,59,95
128448,note_on,,,,,92,0,14,,,,,6,,,55,100
128448,note_on,,,,,92,0,12,,,,,5,,,43,95
128448,note_on,,,,,0,0,13,,,,,6,,,74,100
128448,note_on,,,,,128,0,13,,,,,6,,,71,100
128448,note_on,,,,,128,0,15,,,,,7,,,71,100
128448,note_on,,,,,0,0,15,,,,,7,,,74,100
128448,note_on,,,,,0,0,13,,,,,6,,,67,100
128512,note_off,,,,,64,0,8,,,,,1,,,67,100
128544,note_on,,,,,32,0,8,,,,,1,,,71,95
128548,note_off,,,,,100,0,12,,,,,5,,,43,100
128548,note_off,,,,,100,0,11,,,,,4,,,55,100
128548,note_off,,,,,100,0,16,,,,,7,,,55,100
128548,note_off,,,,,100,0,10,,,,,3,,,59,100
128548,note_off,,,,,0,0,15,,,,,7,,,67,100
128548,note_off,,,,,100,0,9,,,,,2,,,67,100
128548,note_off,,,,,0,0,13,,,,,6,,,67,100
128548,note_off,,,,,0,0,13,,,,,6,,,74,100
128548,note_off,,,,,100,0,13,,,,,6,,,71,100
128548,note_off,,,,,100,0,14,,,,,6,,,55,100
128548,note_off,,,,,100,0,15,,,,,7,,,71,100
128548,note_off,,,,,0,0,15,,,,,7,,,74,100
128608,note_off,,,,,64,0,8,,,,,1,,,71,100
128640,note_on,,,,,0,0,13,,,,,6,,,71,100
128640,note_on,,,,,92,0,13,,,,,6,,,67,100
128640,note_on,,,,,92,0,11,,,,,4,,,62,96
128640,note_on,,,,,92,0,14,,,,,6,,,62,100
128640,note_on,,,,,92,0,15,,,,,7,,,67,100
128640,note_on,,,,,92,0,16,,,,,7,,,62,100
128640,note_on,,,,,32,0,8,,,,,1,,,72,96
128640,note_on,,,,,0,0,15,,,,,7,,,71,100
128640,note_on,,,,,92,0,12,,,,,5,,,50,96
128640,note_on,,,,,92,0,10,,,,,3,,,67,96
128640,note_on,,,,,92,0,9,,,,,2,,,71,96
128704,note_off,,,,,64,0,8,,,,,1,,,72,100
128736,note_on,,,,,32,0,8,,,,,1,,,74,97
128740,note_off,,,,,100,0,15,,,,,7,,,67,100
128740,note_off,,,,,0,0,15,,,,,7,,,71,100
128740,note_off,,,,,100,0,12,,,,,5,,,50,100
128740,note_off,,,,,100,0,10,,,,,3,,,67,100
128740,note_off,,,,,100,0,13,,,,,6,,,67,100
128740,note_off,,,,,0,0,13,,,,,6,,,71,100
128740,note_off,,,,,100,0,16,,,,,7,,,62,100
128740,note_off,,,,,100,0,9,,,,,2,,,71,100
128740,note_off,,,,,100,0,11,,,,,4,,,62,100
128740,note_off,,,,,100,0,14,,,,,6,,,62,100
128800,note_off,,,,,64,0,8,,,,,1,,,74,100
128832,note_on,,,,,0,0,13,,,,,6,,,69,100
128832,note_on,,,,,92,0,9,,,,,2,,,69,98
128832,note_on,,,,,92,0,10,,,,,3,,,62,98
128832,note_on,,,,,92,0,12,,,,,5,,,38,98
128832,note_on,,,,,0,0,15,,,,,7,,,69,100
128832,note_on,,,,,92,0,16,,,,,7,,,50,100
128832,note_on,,,,,92,0,15,,,,,7,,,66,100
128832,note_on,,,,,92,0,14,,,,,6,,,50,100
128832,note_on,,,,,92,0,11,,,,,4,,,50,98
128832,note_on,,,,,32,0,8,,,,,1,,,76,98
128832,note_on,,,,,92,0,13,,,,,6,,,66,100
128896,note_off,,,,,64,0,8,,,,,1,,,76,100
128928,note_on,,,,,32,0,8,,,,,1,,,78,99
128932,note_off,,,,,100,0,14,,,,,6,,,50,100
128932,note_off,,,,,100,0,15,,,,,7,,,66,100
128932,note_off,,,,,100,0,9,,,,,2,,,69,100
128932,note_off,,,,,100,0,12,,,,,5,,,38,100
128932,note_off,,,,,100,0,10,,,,,3,,,62,100
128932,note_off,,,,,100,0,11,,,,,4,,,50,100
128932,note_off,,,,,0,0,13,,,,,6,,,69,100
128932,note_off,,,,,100,0,13,,,,,6,,,66,100
128932,note_off,,,,,100,0,16,,,,,7,,,50,100
128932,note_off,,,,,0,0,15,,,,,7,,,69,100
128992,note_off,,,,,64,0,8,,,,,1,,,78,100
129024,note_on,,,,,92,0,13,,,,,6,,,59,100
129024,note_on,,,,,0,0,13,,,,,6,,,67,100
129024,note_on,,,,,0,0,13,,,,,6,,,62,100
129024,note_on,,,,,92,0,11,,,,,4,,,43,99
129024,note_on,,,,,92,0,9,,,,,2,,,67,99
129024,note_on,,,,,92,0,10,,,,,3,,,59,99
129024,note_on,,,,,92,0,12,,,,,5,,,31,99
129024,note_on,,,,,92,0,14,,,,,6,,,43,100
129024,note_on,,,,,0,0,15,,,,,7,,,67,100
129024,note_on,,,,,0,0,15,,,,,7,,,62,100
129024,note_on,,,,,92,0,15,,,,,7,,,59,100
129024,note_on,,,,,32,0,8,,,,,1,,,79,99
129024,note_on,,,,,92,0,16,,,,,7,,,43,100
129088,note_off,,,,,64,0,9,,,,,2,,,67,100
129120,note_on,,,,,32,0,9,,,,,2,,,71,100
129124,note_off,,,,,0,0,15,,,,,7,,,67,100
129124,note_off,,,,,0,0,13,,,,,6,,,62,100
129124,note_off,,,,,0,0,13,,,,,6,,,67,100
129124,note_off,,,,,100,0,11,,,,,4,,,43,100
129124,note_off,,,,,100,0,10,,,,,3,,,59,100
129124,note_off,,,,,100,0,8,,,,,1,,,79,100
129124,note_off,,,,,100,0,16,,,,,7,,,43,100
129124,note_off,,,,,100,0,12,,,,,5,,,31,100
129124,note_off,,,,,100,0,14,,,,,6,,,43,100
129124,note_off,,,,,0,0,15,,,,,7,,,62,100
129124,note_off,,,,,100,0,15,,,,,7,,,59,100
129124,note_off,,,,,100,0,13,,,,,6,,,59,100
129184,note_off,,,,,64,0,9,,,,,2,,,71,100
129216,note_on,,,,,92,0,8,,,,,1,,,71,100
129216,note_on,,,,,92,0,16,,,,,7,,,50,100
129216,note_on,,,,,92,0,13,,,,,6,,,67,100
129216,note_on,,,,,0,0,15,,,,,7,,,71,100
129216,note_on,,,,,92,0,15,,,,,7,,,67,100
129216,note_on,,,,,0,0,13,,,,,6,,,71,100
129216,note_on,,,,,92,0,12,,,,,5,,,38,100
129216,note_on,,,,,32,0,9,,,,,2,,,72,100
129216,note_on,,,,,92,0,14,,,,,6,,,50,100
129216,note_on,,,,,92,0,11,,,,,4,,,50,100
129216,note_on,,,,,92,0,10,,,,,3,,,67,100
129280,note_off,,,,,64,0,9,,,,,2,,,72,100
129312,note_on,,,,,32,0,9,,,,,2,,,74,100
129316,note_off,,,,,100,0,16,,,,,7,,,50,100
129316,note_off,,,,,100,0,13,,,,,6,,,67,100
129316,note_off,,,,,0,0,13,,,,,6,,,71,100
129316,note_off,,,,,100,0,14,,,,,6,,,50,100
129316,note_off,,,,,100,0,8,,,,,1,,,71,100
129316,note_off,,,,,100,0,11,,,,,4,,,50,100
129316,note_off,,,,,100,0,12,,,,,5,,,38,100
129316,note_off,,,,,100,0,15,,,,,7,,,67,100
129316,note_off,,,,,100,0,10,,,,,3,,,67,100
129316,note_off,,,,,0,0,15,,,,,7,,,71,100
129376,note_off,,,,,64,0,9,,,,,2,,,74,100
129408,note_on,,,,,92,0,14,,,,,6,,,38,100
129408,note_on,,,,,32,0,9,,,,,2,,,76,100
129408,note_on,,,,,92,0,12,,,,,5,,,38,100
129408,note_on,,,,,92,0,13,,,,,6,,,66,100
129408,note_on,,,,,0,0,13,,,,,6,,,69,100
129408,note_on,,,,,92,0,11,,,,,4,,,38,100
129408,note_on,,,,,92,0,15,,,,,7,,,66,100
129408,note_on,,,,,0,0,15,,,,,7,,,69,100
129408,note_on,,,,,92,0,8,,,,,1,,,69,100
129408,note_on,,,,,92,0,10,,,,,3,,,62,100
129408,note_on,,,,,92,0,16,,,,,7,,,38,100
129472,note_off,,,,,64,0,9,,,,,2,,,76,100
129504,note_on,,,,,32,0,9,,,,,2,,,78,100
129508,note_off,,,,,100,0,15,,,,,7,,,66,100
129508,note_off,,,,,100,0,14,,,,,6,,,38,100
129508,note_off,,,,,100,0,12,,,,,5,,,38,100
129508,note_off,,,,,100,0,10,,,,,3,,,62,100
129508,note_off,,,,,0,0,15,,,,,7,,,69,100
129508,note_off,,,,,100,0,13,,,,,6,,,66,100
129508,note_off,,,,,0,0,13,,,,,6,,,69,100
129508,note_off,,,,,100,0,8,,,,,1,,,69,100
129508,note_off,,,,,100,0,11,,,,,4,,,38,100
129508,note_off,,,,,100,0,16,,,,,7,,,38,100
129568,note_off,,,,,64,0,9,,,,,2,,,78,100
129600,note_on,,,,,32,0,9,,,,,2,,,79,100
129600,note_on,,,,,0,0,13,,,,,6,,,74,100
129600,note_on,,,,,92,0,14,,,,,6,,,55,100
129600,set_tempo,,,,,40704,1,0,,526315,,,,,,,
129600,note_on,,,,,92,0,10,,,,,3,,,59,100
129600,note_on,,,,,92,0,8,,,,,1,,,67,100
129600,note_on,,,,,92,0,15,,,,,7,,,71,100
129600,note_on,,,,,92,0,12,,,,,5,,,43,100
129600,note_on,,,,,0,0,15,,,,,7,,,74,100
129600,note_on,,,,,0,0,15,,,,,7,,,67,100
129600,note_on,,,,,0,0,13,,,,,6,,,67,100
129600,note_on,,,,,92,0,11,,,,,4,,,55,100
129600,note_on,,,,,92,0,13,,,,,6,,,71,100
129600,note_on,,,,,92,0,16,,,,,7,,,55,100
129638,set_tempo,,,,,38,1,0,,528634,,,,,,,
129664,note_off,,,,,64,0,8,,,,,1,,,67,100
129676,set_tempo,,,,,38,1,0,,530973,,,,,,,
129696,note_on,,,,,32,0,8,,,,,1,,,71,100
129700,note_off,,,,,100,0,13,,,,,6,,,71,100
129700,note_off,,,,,100,0,16,,,,,7,,,55,100
129700,note_off,,,,,0,0,15,,,,,7,,,67,100
129700,note_off,,,,,100,0,12,,,,,5,,,43,100
129700,note_off,,,,,100,0,14,,,,,6,,,55,100
129700,note_off,,,,,0,0,15,,,,,7,,,74,100
129700,note_off,,,,,100,0,15,,,,,7,,,71,100
129700,note_off,,,,,100,0,9,,,,,2,,,79,100
129700,note_off,,,,,100,0,11,,,,,4,,,55,100
129700,note_off,,,,,0,0,13,,,,,6,,,74,100
129700,note_off,,,,,100,0,10,,,,,3,,,59,100
129700,note_off,,,,,0,0,13,,,,,6,,,67,100
129714,set_tempo,,,,,38,1,0,,533333,,,,,,,
129752,set_tempo,,,,,38,1,0,,535714,,,,,,,
129760,note_off,,,,,64,0,8,,,,,1,,,71,100
129792,note_on,,,,,92,0,15,,,,,7,,,67,100
129792,note_on,,,,,0,0,15,,,,,7,,,71,100
129792,note_on,,,,,0,0,13,,,,,6,,,71,100
129792,note_on,,,,,92,0,12,,,,,5,,,50,101
129792,set_tempo,,,,,40,1,0,,538116,,,,,,,
129792,note_on,,,,,92,0,14,,,,,6,,,62,100
129792,note_on,,,,,92,0,9,,,,,2,,,71,101
129792,note_on,,,,,92,0,10,,,,,3,,,67,101
129792,note_on,,,,,32,0,8,,,,,1,,,72,101
129792,note_on,,,,,92,0,13,,,,,6,,,67,100
129792,note_on,,,,,92,0,11,,,,,4,,,62,101
129792,note_on,,,,,92,0,16,,,,,7,,,62,100
129830,set_tempo,,,,,38,1,0,,540540,,,,,,,
129856,note_off,,,,,64,0,8,,,,,1,,,72,100
129868,set_tempo,,,,,38,1,0,,542986,,,,,,,
129888,note_on,,,,,32,0,8,,,,,1,,,74,102
129892,note_off,,,,,100,0,9,,,,,2,,,71,100
129892,note_off,,,,,100,0,11,,,,,4,,,62,100
129892,note_off,,,,,0,0,15,,,,,7,,,71,100
129892,note_off,,,,,100,0,10,,,,,3,,,67,100
129892,note_off,,,,,100,0,13,,,,,6,,,67,100
129892,note_off,,,,,100,0,14,,,,,6,,,62,100
129892,note_off,,,,,100,0,12,,,,,5,,,50,100
129892,note_off,,,,,0,0,13,,,,,6,,,71,100
129892,note_off,,,,,100,0,15,,,,,7,,,67,100
129892,note_off,,,,,100,0,16,,,,,7,,,62,100
129906,set_tempo,,,,,38,1,0,,545454,,,,,,,
129944,set_tempo,,,,,38,1,0,,547945,,,,,,,
129952,note_off,,,,,64,0,8,,,,,1,,,74,100
129984,set_tempo,,,,,40,1,0,,550458,,,,,,,
129984,note_on,,,,,0,0,15,,,,,7,,,69,100
129984,note_on,,,,,92,0,9,,,,,2,,,69,103
129984,note_on,,,,,32,0,8,,,,,1,,,76,103
129984,note_on,,,,,92,0,10,,,,,3,,,62,103
129984,note_on,,,,,92,0,15,,,,,7,,,66,100
129984,note_on,,,,,92,0,14,,,,,6,,,50,100
129984,note_on,,,,,92,0,12,,,,,5,,,38,103
129984,note_on,,,,,92,0,11,,,,,4,,,50,103
129984,note_on,,,,,92,0,16,,,,,7,,,50,100
129984,note_on,,,,,92,0,13,,,,,6,,,66,100
129984,note_on,,,,,0,0,13,,,,,6,,,69,100
130022,set_tempo,,,,,38,1,0,,552995,,,,,,,
130048,note_off,,,,,64,0,8,,,,,1,,,76,100
130060,set_tempo,,,,,38,1,0,,555555,,,,,,,
130080,note_on,,,,,32,0,8,,,,,1,,,78,104
130084,note_off,,,,,0,0,15,,,,,7,,,69,100
130084,note_off,,,,,100,0,16,,,,,7,,,50,100
130084,note_off,,,,,100,0,11,,,,,4,,,50,100
130084,note_off,,,,,100,0,14,,,,,6,,,50,100
130084,note_off,,,,,100,0,13,,,,,6,,,66,100
130084,note_off,,,,,100,0,12,,,,,5,,,38,100
130084,note_off,,,,,0,0,13,,,,,6,,,69,100
130084,note_off,,,,,100,0,15,,,,,7,,,66,100
130084,note_off,,,,,100,0,9,,,,,2,,,69,100
130084,note_off,,,,,100,0,10,,,,,3,,,62,100
130098,set_tempo,,,,,38,1,0,,558139,,,,,,,
130136,set_tempo,,,,,38,1,0,,560747,,,,,,,
130144,note_off,,,,,64,0,8,,,,,1,,,78,100
130176,note_on,,,,,32,0,8,,,,,1,,,79,105
130176,note_on,,,,,92,0,9,,,,,2,,,67,105
130176,note_on,,,,,92,0,14,,,,,6,,,43,100
130176,note_on,,,,,92,0,13,,,,,6,,,59,100
130176,note_on,,,,,0,0,13,,,,,6,,,62,100
130176,note_on,,,,,0,0,13,,,,,6,,,67,100
130176,note_on,,,,,92,0,16,,,,,7,,,43,100
130176,note_on,,,,,92,0,12,,,,,5,,,31,105
130176,note_on,,,,,92,0,11,,,,,4,,,43,105
130176,note_on,,,,,92,0,10,,,,,3,,,59,105
130176,set_tempo,,,,,40,1,0,,563380,,,,,,,
130176,note_on,,,,,92,0,15,,,,,7,,,59,100
130176,note_on,,,,,0,0,15,,,,,7,,,67,100
130176,note_on,,,,,0,0,15,,,,,7,,,62,100
130194,set_tempo,,,,,18,1,0,,566037,,,,,,,
130214,set_tempo,,,,,20,1,0,,568720,,,,,,,
130232,set_tempo,,,,,18,1,0,,571428,,,,,,,
130240,note_off,,,,,64,0,9,,,,,2,,,67,100
130252,set_tempo,,,,,20,1,0,,574162,,,,,,,
130272,note_on,,,,,32,0,9,,,,,2,,,71,106
130272,set_tempo,,,,,20,1,0,,576923,,,,,,,
130276,note_off,,,,,0,0,15,,,,,7,,,62,100
130276,note_off,,,,,100,0,13,,,,,6,,,59,100
130276,note_off,,,,,0,0,13,,,,,6,,,62,100
130276,note_off,,,,,0,0,13,,,,,6,,,67,100
130276,note_off,,,,,100,0,15,,,,,7,,,59,100
130276,note_off,,,,,100,0,11,,,,,4,,,43,100
130276,note_off,,,,,100,0,12,,,,,5,,,31,100
130276,note_off,,,,,100,0,14,,,,,6,,,43,100
130276,note_off,,,,,100,0,16,,,,,7,,,43,100
130276,note_off,,,,,0,0,15,,,,,7,,,67,100
130276,note_off,,,,,100,0,10,,,,,3,,,59,100
130276,note_off,,,,,100,0,8,,,,,1,,,79,100
130290,set_tempo,,,,,18,1,0,,579710,,,,,,,
130310,set_tempo,,,,,20,1,0,,582524,,,,,,,
130328,set_tempo,,,,,18,1,0,,585365,,,,,,,
130336,note_off,,,,,64,0,9,,,,,2,,,71,100
130348,set_tempo,,,,,20,1,0,,588235,,,,,,,
130368,note_on,,,,,32,0,9,,,,,2,,,72,107
130368,note_on,,,,,92,0,8,,,,,1,,,71,107
130368,note_on,,,,,92,0,12,,,,,5,,,38,107
130368,note_on,,,,,92,0,16,,,,,7,,,50,100
130368,note_on,,,,,92,0,13,,,,,6,,,67,100
130368,note_on,,,,,0,0,13,,,,,6,,,71,100
130368,note_on,,,,,92,0,10,,,,,3,,,67,107
130368,note_on,,,,,0,0,15,,,,,7,,,71,100
130368,note_on,,,,,92,0,14,,,,,6,,,50,100
130368,set_tempo,,,,,20,1,0,,591133,,,,,,,
130368,note_on,,,,,92,0,11,,,,,4,,,50,107
130368,note_on,,,,,92,0,15,,,,,7,,,67,100
130376,set_tempo,,,,,8,1,0,,594059,,,,,,,
130386,set_tempo,,,,,10,1,0,,597014,,,,,,,
130396,set_tempo,,,,,10,1,0,,600000,,,,,,,
130406,set_tempo,,,,,10,1,0,,603015,,,,,,,
130416,set_tempo,,,,,10,1,0,,606060,,,,,,,
130424,set_tempo,,,,,8,1,0,,609137,,,,,,,
130432,note_off,,,,,64,0,9,,,,,2,,,72,100
130434,set_tempo,,,,,10,1,0,,612244,,,,,,,
130444,set_tempo,,,,,10,1,0,,615384,,,,,,,
130454,set_tempo,,,,,10,1,0,,618556,,,,,,,
130464,set_tempo,,,,,10,1,0,,621761,,,,,,,
130464,note_on,,,,,32,0,9,,,,,2,,,74,108
130468,note_off,,,,,100,0,10,,,,,3,,,67,100
130468,note_off,,,,,100,0,13,,,,,6,,,67,100
130468,note_off,,,,,0,0,13,,,,,6,,,71,100
130468,note_off,,,,,100,0,11,,,,,4,,,50,100
130468,note_off,,,,,100,0,15,,,,,7,,,67,100
130468,note_off,,,,,0,0,15,,,,,7,,,71,100
130468,note_off,,,,,100,0,14,,,,,6,,,50,100
130468,note_off,,,,,100,0,12,,,,,5,,,38,100
130468,note_off,,,,,100,0,8,,,,,1,,,71,100
130468,note_off,,,,,100,0,16,,,,,7,,,50,100
130472,set_tempo,,,,,8,1,0,,625000,,,,,,,
130482,set_tempo,,,,,10,1,0,,628272,,,,,,,
130492,set_tempo,,,,,10,1,0,,631578,,,,,,,
130502,set_tempo,,,,,10,1,0,,634920,,,,,,,
130512,set_tempo,,,,,10,1,0,,638297,,,,,,,
130520,set_tempo,,,,,8,1,0,,641711,,,,,,,
130528,note_off,,,,,64,0,9,,,,,2,,,74,100
130530,set_tempo,,,,,10,1,0,,645161,,,,,,,
130540,set_tempo,,,,,10,1,0,,648648,,,,,,,
130550,set_tempo,,,,,10,1,0,,652173,,,,,,,
130560,note_on,,,,,92,0,8,,,,,1,,,69,109
130560,note_on,,,,,92,0,10,,,,,3,,,62,109
130560,set_tempo,,,,,10,1,0,,655737,,,,,,,
130560,note_on,,,,,32,0,9,,,,,2,,,76,109
130560,note_on,,,,,92,0,16,,,,,7,,,38,100
130560,note_on,,,,,92,0,12,,,,,5,,,38,109
130560,note_on,,,,,92,0,11,,,,,4,,,38,109
130560,note_on,,,,,92,0,15,,,,,7,,,66,100
130560,note_on,,,,,0,0,15,,,,,7,,,69,100
130560,note_on,,,,,92,0,14,,,,,6,,,38,100
130560,note_on,,,,,0,0,13,,,,,6,,,69,100
130560,note_on,,,,,92,0,13,,,,,6,,,66,100
130564,set_tempo,,,,,4,1,0,,659340,,,,,,,
130568,set_tempo,,,,,4,1,0,,662983,,,,,,,
130574,set_tempo,,,,,6,1,0,,666666,,,,,,,
130578,set_tempo,,,,,4,1,0,,670391,,,,,,,
130584,set_tempo,,,,,6,1,0,,674157,,,,,,,
130588,set_tempo,,,,,4,1,0,,677966,,,,,,,
130592,set_tempo,,,,,4,1,0,,681818,,,,,,,
130598,set_tempo,,,,,6,1,0,,685714,,,,,,,
130602,set_tempo,,,,,4,1,0,,689655,,,,,,,
130608,set_tempo,,,,,6,1,0,,693641,,,,,,,
130612,set_tempo,,,,,4,1,0,,697674,,,,,,,
130616,set_tempo,,,,,4,1,0,,701754,,,,,,,
130622,set_tempo,,,,,6,1,0,,705882,,,,,,,
130624,note_off,,,,,64,0,9,,,,,2,,,76,100
130626,set_tempo,,,,,4,1,0,,710059,,,,,,,
130632,set_tempo,,,,,6,1,0,,714285,,,,,,,
130636,set_tempo,,,,,4,1,0,,718562,,,,,,,
130640,set_tempo,,,,,4,1,0,,722891,,,,,,,
130646,set_tempo,,,,,6,1,0,,727272,,,,,,,
130650,set_tempo,,,,,4,1,0,,731707,,,,,,,
130656,note_on,,,,,32,0,9,,,,,2,,,78,109
130656,set_tempo,,,,,6,1,0,,736196,,,,,,,
130658,set_tempo,,,,,2,1,0,,740740,,,,,,,
130660,note_off,,,,,100,0,10,,,,,3,,,62,100
130660,note_off,,,,,100,0,14,,,,,6,,,38,100
130660,note_off,,,,,0,0,15,,,,,7,,,69,100
130660,note_off,,,,,100,0,15,,,,,7,,,66,100
130660,note_off,,,,,100,0,12,,,,,5,,,38,100
130660,note_off,,,,,100,0,16,,,,,7,,,38,100
130660,note_off,,,,,100,0,11,,,,,4,,,38,100
130660,set_tempo,,,,,2,1,0,,745341,,,,,,,
130660,note_off,,,,,0,0,13,,,,,6,,,69,100
130660,note_off,,,,,100,0,13,,,,,6,,,66,100
130660,note_off,,,,,100,0,8,,,,,1,,,69,100
130662,set_tempo,,,,,2,1,0,,750000,,,,,,,
130664,set_tempo,,,,,2,1,0,,754716,,,,,,,
130668,set_tempo,,,,,4,1,0,,759493,,,,,,,
130670,set_tempo,,,,,2,1,0,,764331,,,,,,,
130672,set_tempo,,,,,2,1,0,,769230,,,,,,,
130674,set_tempo,,,,,2,1,0,,774193,,,,,,,
130676,set_tempo,,,,,2,1,0,,779220,,,,,,,
130680,set_tempo,,,,,4,1,0,,784313,,,,,,,
130682,set_tempo,,,,,2,1,0,,789473,,,,,,,
130684,set_tempo,,,,,2,1,0,,794701,,,,,,,
130686,set_tempo,,,,,2,1,0,,800000,,,,,,,
130688,set_tempo,,,,,2,1,0,,805369,,,,,,,
130692,set_tempo,,,,,4,1,0,,810810,,,,,,,
130694,set_tempo,,,,,2,1,0,,816326,,,,,,,
130696,set_tempo,,,,,2,1,0,,821917,,,,,,,
130698,set_tempo,,,,,2,1,0,,827586,,,,,,,
130700,set_tempo,,,,,2,1,0,,833333,,,,,,,
130704,set_tempo,,,,,4,1,0,,839160,,,,,,,
130706,set_tempo,,,,,2,1,0,,1666666,,,,,,,
130720,note_off,,,,,64,0,9,,,,,2,,,78,100
130752,note_on,,,,,0,0,15,,,,,7,,,67,100
130752,note_on,,,,,92,0,13,,,,,6,,,59,100
130752,note_on,,,,,0,0,13,,,,,6,,,62,100
130752,note_on,,,,,0,0,13,,,,,6,,,67,100
130752,note_on,,,,,92,0,11,,,,,4,,,43,103
130752,note_on,,,,,0,0,15,,,,,7,,,62,100
130752,note_on,,,,,92,0,10,,,,,3,,,59,103
130752,note_on,,,,,32,0,9,,,,,2,,,79,103
130752,note_on,,,,,92,0,8,,,,,1,,,67,103
130752,note_on,,,,,92,0,16,,,,,7,,,43,100
130752,note_on,,,,,92,0,12,,,,,5,,,31,103
130752,note_on,,,,,92,0,14,,,,,6,,,43,100
130752,note_on,,,,,92,0,15,,,,,7,,,59,100
130752,end_of_track,,,,,0,1,0,,,,,,,,,
130752,set_tempo,,,,,46,1,0,,2105263,,,,,,,
131136,end_of_track,,,,,0,1,16,,,,,,,,,
131136,note_off,,,,,0,0,15,,,,,7,,,67,100
131136,note_off,,,,,384,0,8,,,,,1,,,67,100
131136,note_off,,,,,384,0,9,,,,,2,,,79,100
131136,end_of_track,,,,,0,1,9,,,,,,,,,
131136,note_off,,,,,384,0,10,,,,,3,,,59,100
131136,end_of_track,,,,,0,1,10,,,,,,,,,
131136,note_off,,,,,384,0,11,,,,,4,,,43,100
131136,end_of_track,,,,,0,1,11,,,,,,,,,
131136,note_off,,,,,384,0,16,,,,,7,,,43,100
131136,note_off,,,,,384,0,12,,,,,5,,,31,100
131136,end_of_track,,,,,0,1,12,,,,,,,,,
131136,note_off,,,,,384,0,13,,,,,6,,,59,100
131136,note_off,,,,,0,0,13,,,,,6,,,62,100
131136,note_off,,,,,0,0,13,,,,,6,,,67,100
131136,end_of_track,,,,,0,1,13,,,,,,,,,
131136,note_off,,,,,384,0,14,,,,,6,,,43,100
131136,end_of_track,,,,,0,1,14,,,,,,,,,
131136,note_off,,,,,384,0,15,,,,,7,,,59,100
131136,note_off,,,,,0,0,15,,,,,7,,,62,100
131136,end_of_track,,,,,0,1,15,,,,,,,,,
131904,end_of_track,,,,,0,1,8,,,,,,,,,
131904,program_change,,,,,768,0,8,,,,,1,48,,,
