tick,type,numerator,denominator,clocks_per_click,notated_32nd_notes_per_beat,time,meta,track,data,tempo,key,control,value,channel,program,note,velocity
0,time_signature,12,8,96,8,0,1,0,,,,,,,,,
0,control_change,,,,,0,0,7,,,,0,0,0,,,
0,program_change,,,,,0,0,7,,,,,,0,40,,
0,control_change,,,,,0,0,7,,,,7,100,0,,,
0,control_change,,,,,0,0,7,,,,91,107,0,,,
0,key_signature,,,,,0,1,7,,,Bm,,,,,,
0,track_name,,,,,0,1,13,,,,,,,,,
0,track_name,,,,,0,1,7,,,,,,,,,
0,control_change,,,,,0,0,13,,,,0,0,6,,,
0,control_change,,,,,0,0,13,,,,7,45,6,,,
0,control_change,,,,,0,0,13,,,,10,77,6,,,
0,control_change,,,,,0,0,13,,,,91,107,6,,,
0,key_signature,,,,,0,1,13,,,Bm,,,,,,
0,note_on,,,,,0,0,13,,,,,,6,,62,100
0,note_on,,,,,0,0,13,,,,,,6,,66,100
0,program_change,,,,,0,0,13,,,,,,6,6,,
0,end_of_track,,,,,0,1,6,,,,,,,,,
0,key_signature,,,,,0,1,6,,,Bm,,,,,,
0,control_change,,,,,0,0,6,,,,91,107,0,,,
0,control_change,,,,,0,0,4,,,,7,100,0,,,
0,control_change,,,,,0,0,4,,,,91,107,0,,,
0,key_signature,,,,,0,1,4,,,Bm,,,,,,
0,end_of_track,,,,,0,1,4,,,,,,,,,
0,track_name,,,,,0,1,5,,,,,,,,,
0,control_change,,,,,0,0,5,,,,0,0,0,,,
0,program_change,,,,,0,0,5,,,,,,0,40,,
0,control_change,,,,,0,0,5,,,,7,100,0,,,
0,control_change,,,,,0,0,5,,,,91,107,0,,,
0,key_signature,,,,,0,1,5,,,Bm,,,,,,
0,end_of_track,,,,,0,1,5,,,,,,,,,
0,track_name,,,,,0,1,6,,,,,,,,,
0,control_change,,,,,0,0,6,,,,0,0,0,,,
0,program_change,,,,,0,0,6,,,,,,0,40,,
0,control_change,,,,,0,0,6,,,,7,100,0,,,
0,track_name,,,,,0,1,8,,,,,,,,,
0,note_on,,,,,0,0,16,,,,,,7,,47,100
0,key_signature,,,,,0,1,16,,,Bm,,,,,,
0,control_change,,,,,0,0,16,,,,91,105,7,,,
0,control_change,,,,,0,0,14,,,,91,107,6,,,
0,key_signature,,,,,0,1,14,,,Bm,,,,,,
0,note_on,,,,,0,0,14,,,,,,6,,47,100
0,key_signature,,,,,0,1,15,,,Bm,,,,,,
0,control_change,,,,,0,0,15,,,,91,105,7,,,
0,control_change,,,,,0,0,15,,,,7,45,7,,,
0,program_change,,,,,0,0,15,,,,,,7,19,,
0,control_change,,,,,0,0,15,,,,0,0,7,,,
0,note_on,,,,,0,0,8,,,,,,1,,74,70
0,key_signature,,,,,0,1,8,,,Bm,,,,,,
0,control_change,,,,,0,0,8,,,,91,107,1,,,
0,control_change,,,,,0,0,8,,,,10,49,1,,,
0,control_change,,,,,0,0,8,,,,7,100,1,,,
0,program_change,,,,,0,0,8,,,,,,1,48,,
0,control_change,,,,,0,0,8,,,,0,0,1,,,
0,control_change,,,,,0,0,14,,,,10,77,6,,,
0,program_change,,,,,0,0,4,,,,,,0,40,,
0,control_change,,,,,0,0,14,,,,7,45,6,,,
0,control_change,,,,,0,0,14,,,,0,0,6,,,
0,control_change,,,,,0,0,16,,,,7,45,7,,,
0,program_change,,,,,0,0,16,,,,,,7,19,,
0,control_change,,,,,0,0,16,,,,0,0,7,,,
0,track_name,,,,,0,1,16,,,,,,,,,
0,note_on,,,,,0,0,15,,,,,,7,,71,100
0,note_on,,,,,0,0,15,,,,,,7,,62,100
0,note_on,,,,,0,0,9,,,,,,2,,71,70
0,key_signature,,,,,0,1,9,,,Bm,,,,,,
0,control_change,,,,,0,0,9,,,,91,108,2,,,
0,control_change,,,,,0,0,9,,,,10,36,2,,,
0,control_change,,,,,0,0,9,,,,7,96,2,,,
0,program_change,,,,,0,0,9,,,,,,2,48,,
0,control_change,,,,,0,0,9,,,,0,0,2,,,
0,track_name,,,,,0,1,9,,,,,,,,,
0,track_name,,,,,0,1,14,,,,,,,,,
0,program_change,,,,,0,0,14,,,,,,6,6,,
0,control_change,,,,,0,0,4,,,,0,0,0,,,
0,track_name,,,,,0,1,15,,,,,,,,,
0,end_of_track,,,,,0,1,3,,,,,,,,,
0,set_tempo,,,,,0,1,0,,1250000,,,,,,,
0,note_on,,,,,0,0,12,,,,,,5,,35,70
0,key_signature,,,,,0,1,12,,,Bm,,,,,,
0,track_name,,,,,0,1,4,,,,,,,,,
0,note_on,,,,,0,0,11,,,,,,4,,47,70
0,key_signature,,,,,0,1,11,,,Bm,,,,,,
0,control_change,,,,,0,0,11,,,,91,107,4,,,
0,sequencer_specific,,,,,0,1,0,"(0, 0, 119, 14, 1)",,,,,,,,
0,control_change,,,,,0,0,11,,,,10,79,4,,,
0,program_change,,,,,0,0,11,,,,,,4,48,,
0,control_change,,,,,0,0,11,,,,0,0,4,,,
0,track_name,,,,,0,1,11,,,,,,,,,
0,track_name,,,,,0,1,12,,,,,,,,,
0,control_change,,,,,0,0,12,,,,0,0,5,,,
0,program_change,,,,,0,0,12,,,,,,5,48,,
0,control_change,,,,,0,0,12,,,,7,72,5,,,
0,control_change,,,,,0,0,11,,,,7,82,4,,,
0,control_change,,,,,0,0,12,,,,10,90,5,,,
0,sequencer_specific,,,,,0,1,0,"(0, 0, 65)",,,,,,,,
0,key_signature,,,,,0,1,10,,,Bm,,,,,,
0,key_signature,,,,,0,1,3,,,Bm,,,,,,
0,program_change,,,,,0,0,3,,,,,,0,40,,
0,control_change,,,,,0,0,3,,,,91,107,0,,,
0,control_change,,,,,0,0,3,,,,7,100,0,,,
0,control_change,,,,,0,0,3,,,,0,0,0,,,
0,track_name,,,,,0,1,3,,,,,,,,,
0,end_of_track,,,,,0,1,2,,,,,,,,,
0,key_signature,,,,,0,1,2,,,C,,,,,,
0,note_on,,,,,0,0,10,,,,,,3,,66,70
0,track_name,,,,,0,1,2,,,,,,,,,
0,key_signature,,,,,0,1,1,,,C,,,,,,
0,track_name,,,,,0,1,1,,,,,,,,,
0,track_name,,,,,0,1,10,,,,,,,,,
0,control_change,,,,,0,0,10,,,,0,0,3,,,
0,program_change,,,,,0,0,10,,,,,,3,48,,
0,control_change,,,,,0,0,10,,,,7,92,3,,,
0,control_change,,,,,0,0,10,,,,91,108,3,,,
0,end_of_track,,,,,0,1,1,,,,,,,,,
0,control_change,,,,,0,0,12,,,,91,108,5,,,
228,note_off,,,,,228,0,9,,,,,,2,,71,0
228,note_off,,,,,228,0,8,,,,,,1,,74,0
288,note_on,,,,,60,0,9,,,,,,2,,73,72
288,note_on,,,,,60,0,8,,,,,,1,,76,72
304,note_off,,,,,304,0,14,,,,,,6,,47,0
304,note_off,,,,,304,0,11,,,,,,4,,47,0
304,note_off,,,,,304,0,12,,,,,,5,,35,0
304,note_off,,,,,304,0,13,,,,,,6,,62,0
304,note_off,,,,,304,0,16,,,,,,7,,47,0
304,note_off,,,,,304,0,10,,,,,,3,,66,0
304,note_off,,,,,0,0,13,,,,,,6,,66,0
352,note_off,,,,,64,0,8,,,,,,1,,76,0
352,note_off,,,,,64,0,9,,,,,,2,,73,0
384,note_on,,,,,80,0,11,,,,,,4,,47,73
384,note_on,,,,,32,0,8,,,,,,1,,74,73
384,note_on,,,,,80,0,14,,,,,,6,,47,100
384,note_on,,,,,80,0,16,,,,,,7,,47,100
384,note_on,,,,,80,0,10,,,,,,3,,66,73
384,note_on,,,,,32,0,9,,,,,,2,,71,73
384,note_on,,,,,80,0,12,,,,,,5,,35,73
384,note_on,,,,,0,0,13,,,,,,6,,66,100
384,note_on,,,,,80,0,13,,,,,,6,,62,100
512,note_off,,,,,0,0,13,,,,,,6,,66,0
512,note_off,,,,,128,0,13,,,,,,6,,62,0
512,note_off,,,,,128,0,14,,,,,,6,,47,0
512,note_off,,,,,128,0,12,,,,,,5,,35,0
512,note_off,,,,,128,0,9,,,,,,2,,71,0
512,note_off,,,,,128,0,8,,,,,,1,,74,0
512,note_off,,,,,128,0,16,,,,,,7,,47,0
512,note_off,,,,,128,0,11,,,,,,4,,47,0
512,note_off,,,,,128,0,10,,,,,,3,,66,0
576,note_on,,,,,0,0,13,,,,,,6,,66,100
576,note_on,,,,,64,0,9,,,,,,2,,71,74
576,note_on,,,,,64,0,13,,,,,,6,,62,100
576,note_on,,,,,64,0,8,,,,,,1,,74,74
576,note_on,,,,,64,0,16,,,,,,7,,47,100
576,note_on,,,,,64,0,10,,,,,,3,,66,74
576,note_on,,,,,64,0,14,,,,,,6,,47,100
576,note_on,,,,,64,0,12,,,,,,5,,35,74
576,note_on,,,,,64,0,11,,,,,,4,,47,74
880,note_off,,,,,304,0,8,,,,,,1,,74,0
880,note_off,,,,,304,0,9,,,,,,2,,71,0
880,note_off,,,,,304,0,10,,,,,,3,,66,0
880,note_off,,,,,304,0,11,,,,,,4,,47,0
880,note_off,,,,,304,0,13,,,,,,6,,62,0
880,note_off,,,,,304,0,14,,,,,,6,,47,0
880,note_off,,,,,304,0,12,,,,,,5,,35,0
880,note_off,,,,,0,0,13,,,,,,6,,66,0
880,note_off,,,,,304,0,16,,,,,,7,,47,0
960,note_on,,,,,80,0,10,,,,,,3,,66,78
960,note_on,,,,,80,0,14,,,,,,6,,47,100
960,note_on,,,,,80,0,11,,,,,,4,,47,78
960,note_on,,,,,80,0,9,,,,,,2,,71,78
960,note_on,,,,,80,0,8,,,,,,1,,74,78
960,note_on,,,,,80,0,16,,,,,,7,,47,100
960,note_on,,,,,80,0,13,,,,,,6,,62,100
960,note_on,,,,,0,0,13,,,,,,6,,66,100
960,note_on,,,,,80,0,12,,,,,,5,,35,78
1088,note_off,,,,,0,0,13,,,,,,6,,66,0
1088,note_off,,,,,128,0,10,,,,,,3,,66,0
1088,note_off,,,,,128,0,12,,,,,,5,,35,0
1088,note_off,,,,,128,0,16,,,,,,7,,47,0
1088,note_off,,,,,128,0,13,,,,,,6,,62,0
1088,note_off,,,,,128,0,14,,,,,,6,,47,0
1088,note_off,,,,,128,0,11,,,,,,4,,47,0
1112,note_off,,,,,152,0,9,,,,,,2,,71,0
1112,note_off,,,,,152,0,8,,,,,,1,,74,0
1152,note_on,,,,,40,0,8,,,,,,1,,76,82
1152,note_on,,,,,64,0,16,,,,,,7,,54,100
1152,note_on,,,,,64,0,11,,,,,,4,,54,82
1152,note_on,,,,,64,0,13,,,,,,6,,62,100
1152,note_on,,,,,64,0,10,,,,,,3,,66,82
1152,note_on,,,,,0,0,13,,,,,,6,,71,100
1152,note_on,,,,,64,0,14,,,,,,6,,54,100
1152,note_on,,,,,40,0,9,,,,,,2,,73,82
1152,note_on,,,,,64,0,12,,,,,,5,,42,82
1196,note_off,,,,,44,0,9,,,,,,2,,73,0
1196,note_off,,,,,44,0,8,,,,,,1,,76,0
1200,note_on,,,,,4,0,8,,,,,,1,,74,82
1200,note_on,,,,,4,0,9,,,,,,2,,71,82
1220,note_off,,,,,20,0,8,,,,,,1,,74,0
1220,note_off,,,,,20,0,9,,,,,,2,,71,0
1224,note_on,,,,,4,0,8,,,,,,1,,76,82
1224,note_on,,,,,4,0,9,,,,,,2,,73,82
1244,note_off,,,,,20,0,8,,,,,,1,,76,0
1244,note_off,,,,,20,0,9,,,,,,2,,73,0
1248,note_on,,,,,4,0,8,,,,,,1,,74,81
1248,note_on,,,,,4,0,9,,,,,,2,,71,81
1268,note_off,,,,,20,0,8,,,,,,1,,74,0
1268,note_off,,,,,20,0,9,,,,,,2,,71,0
1272,note_on,,,,,4,0,8,,,,,,1,,76,81
1272,note_on,,,,,4,0,9,,,,,,2,,73,81
1292,note_off,,,,,20,0,8,,,,,,1,,76,0
1292,note_off,,,,,20,0,9,,,,,,2,,73,0
1296,note_on,,,,,4,0,9,,,,,,2,,71,81
1296,note_on,,,,,4,0,8,,,,,,1,,74,81
1316,note_off,,,,,20,0,8,,,,,,1,,74,0
1316,note_off,,,,,20,0,9,,,,,,2,,71,0
1320,note_on,,,,,4,0,8,,,,,,1,,76,80
1320,note_on,,,,,4,0,9,,,,,,2,,73,80
1340,note_off,,,,,20,0,9,,,,,,2,,73,0
1340,note_off,,,,,20,0,8,,,,,,1,,76,0
1344,note_on,,,,,4,0,9,,,,,,2,,71,80
1344,note_on,,,,,4,0,8,,,,,,1,,74,80
1456,note_off,,,,,304,0,16,,,,,,7,,54,0
1456,note_off,,,,,304,0,13,,,,,,6,,62,0
1456,note_off,,,,,304,0,10,,,,,,3,,66,0
1456,note_off,,,,,304,0,14,,,,,,6,,54,0
1456,note_off,,,,,0,0,13,,,,,,6,,71,0
1456,note_off,,,,,304,0,11,,,,,,4,,54,0
1456,note_off,,,,,304,0,12,,,,,,5,,42,0
1532,note_off,,,,,188,0,9,,,,,,2,,71,0
1532,note_off,,,,,1532,0,15,,,,,,7,,62,0
1532,note_off,,,,,0,0,15,,,,,,7,,71,0
1532,note_off,,,,,188,0,8,,,,,,1,,74,0
1536,note_on,,,,,4,0,8,,,,,,1,,73,78
1536,note_on,,,,,80,0,16,,,,,,7,,54,100
1536,note_on,,,,,80,0,13,,,,,,6,,70,100
1536,note_on,,,,,0,0,13,,,,,,6,,61,100
1536,note_on,,,,,80,0,11,,,,,,4,,54,78
1536,note_on,,,,,80,0,10,,,,,,3,,66,78
1536,note_on,,,,,0,0,15,,,,,,7,,70,100
1536,note_on,,,,,4,0,15,,,,,,7,,61,100
1536,note_on,,,,,4,0,9,,,,,,2,,70,78
1536,note_on,,,,,80,0,14,,,,,,6,,54,100
1536,note_on,,,,,80,0,12,,,,,,5,,42,78
1664,note_off,,,,,128,0,11,,,,,,4,,54,0
1664,note_off,,,,,128,0,12,,,,,,5,,42,0
1664,note_off,,,,,128,0,13,,,,,,6,,70,0
1664,note_off,,,,,0,0,13,,,,,,6,,61,0
1664,note_off,,,,,128,0,9,,,,,,2,,70,0
1664,note_off,,,,,0,0,15,,,,,,7,,70,0
1664,note_off,,,,,128,0,15,,,,,,7,,61,0
1664,note_off,,,,,128,0,8,,,,,,1,,73,0
1664,note_off,,,,,128,0,10,,,,,,3,,66,0
1664,note_off,,,,,128,0,16,,,,,,7,,54,0
1664,note_off,,,,,128,0,14,,,,,,6,,54,0
1728,note_on,,,,,64,0,13,,,,,,6,,70,100
1728,note_on,,,,,64,0,15,,,,,,7,,61,100
1728,note_on,,,,,0,0,15,,,,,,7,,70,100
1728,note_on,,,,,64,0,10,,,,,,3,,66,76
1728,note_on,,,,,64,0,16,,,,,,7,,54,100
1728,note_on,,,,,0,0,13,,,,,,6,,61,100
1728,note_on,,,,,64,0,8,,,,,,1,,73,76
1728,note_on,,,,,64,0,12,,,,,,5,,42,76
1728,note_on,,,,,64,0,14,,,,,,6,,54,100
1728,note_on,,,,,64,0,9,,,,,,2,,70,76
1728,note_on,,,,,64,0,11,,,,,,4,,54,76
2032,note_off,,,,,0,0,13,,,,,,6,,61,0
2032,note_off,,,,,304,0,13,,,,,,6,,70,0
2032,note_off,,,,,304,0,12,,,,,,5,,42,0
2032,note_off,,,,,304,0,14,,,,,,6,,54,0
2032,note_off,,,,,304,0,11,,,,,,4,,54,0
2032,note_off,,,,,304,0,10,,,,,,3,,66,0
2032,note_off,,,,,304,0,16,,,,,,7,,54,0
2112,note_on,,,,,80,0,14,,,,,,6,,54,100
2112,note_on,,,,,80,0,10,,,,,,3,,66,71
2112,note_on,,,,,0,0,13,,,,,,6,,61,100
2112,note_on,,,,,80,0,16,,,,,,7,,54,100
2112,note_on,,,,,80,0,12,,,,,,5,,42,71
2112,note_on,,,,,80,0,13,,,,,,6,,70,100
2112,note_on,,,,,80,0,11,,,,,,4,,54,71
2188,note_off,,,,,460,0,8,,,,,,1,,73,0
2188,note_off,,,,,460,0,9,,,,,,2,,70,0
2240,note_off,,,,,128,0,12,,,,,,5,,42,0
2240,note_off,,,,,128,0,11,,,,,,4,,54,0
2240,note_off,,,,,128,0,14,,,,,,6,,54,0
2240,note_off,,,,,128,0,16,,,,,,7,,54,0
2240,note_off,,,,,128,0,10,,,,,,3,,66,0
2240,note_off,,,,,0,0,13,,,,,,6,,61,0
2240,note_off,,,,,128,0,13,,,,,,6,,70,0
2244,note_off,,,,,516,0,15,,,,,,7,,61,0
2244,note_off,,,,,0,0,15,,,,,,7,,70,0
2270,note_on,,,,,30,0,13,,,,,,6,,61,100
2286,note_on,,,,,16,0,13,,,,,,6,,64,100
2304,note_on,,,,,18,0,13,,,,,,6,,66,100
2304,note_on,,,,,64,0,10,,,,,,3,,66,75
2304,note_on,,,,,64,0,14,,,,,,6,,46,100
2304,note_on,,,,,64,0,12,,,,,,5,,34,75
2304,note_on,,,,,60,0,15,,,,,,7,,64,100
2304,note_on,,,,,0,0,15,,,,,,7,,73,100
2304,note_on,,,,,116,0,9,,,,,,2,,73,75
2304,note_on,,,,,116,0,8,,,,,,1,,76,75
2304,note_on,,,,,64,0,16,,,,,,7,,46,100
2304,note_on,,,,,64,0,11,,,,,,4,,46,75
2304,set_tempo,,,,,2304,1,0,,1250000,,,,,,,
2318,note_on,,,,,14,0,13,,,,,,6,,73,100
2532,note_off,,,,,228,0,9,,,,,,2,,73,0
2532,note_off,,,,,228,0,8,,,,,,1,,76,0
2574,note_off,,,,,256,0,13,,,,,,6,,61,0
2590,note_off,,,,,16,0,13,,,,,,6,,64,0
2592,note_on,,,,,60,0,9,,,,,,2,,74,77
2592,note_on,,,,,60,0,8,,,,,,1,,78,77
2606,note_off,,,,,16,0,13,,,,,,6,,73,0
2608,note_off,,,,,304,0,10,,,,,,3,,66,0
2608,note_off,,,,,304,0,11,,,,,,4,,46,0
2608,note_off,,,,,304,0,16,,,,,,7,,46,0
2608,note_off,,,,,2,0,13,,,,,,6,,66,0
2608,note_off,,,,,304,0,12,,,,,,5,,34,0
2608,note_off,,,,,304,0,14,,,,,,6,,46,0
2656,note_off,,,,,64,0,8,,,,,,1,,78,0
2656,note_off,,,,,64,0,9,,,,,,2,,74,0
2688,note_on,,,,,80,0,16,,,,,,7,,46,100
2688,note_on,,,,,32,0,9,,,,,,2,,73,78
2688,note_on,,,,,80,0,12,,,,,,5,,34,78
2688,note_on,,,,,80,0,10,,,,,,3,,66,78
2688,note_on,,,,,32,0,8,,,,,,1,,76,78
2688,note_on,,,,,0,0,13,,,,,,6,,64,100
2688,note_on,,,,,0,0,13,,,,,,6,,73,100
2688,note_on,,,,,80,0,13,,,,,,6,,66,100
2688,note_on,,,,,80,0,14,,,,,,6,,46,100
2688,note_on,,,,,80,0,11,,,,,,4,,46,78
2816,note_off,,,,,0,0,13,,,,,,6,,64,0
2816,note_off,,,,,0,0,13,,,,,,6,,73,0
2816,note_off,,,,,128,0,16,,,,,,7,,46,0
2816,note_off,,,,,128,0,10,,,,,,3,,66,0
2816,note_off,,,,,128,0,12,,,,,,5,,34,0
2816,note_off,,,,,128,0,9,,,,,,2,,73,0
2816,note_off,,,,,128,0,14,,,,,,6,,46,0
2816,note_off,,,,,128,0,11,,,,,,4,,46,0
2816,note_off,,,,,128,0,13,,,,,,6,,66,0
2816,note_off,,,,,128,0,8,,,,,,1,,76,0
2880,note_on,,,,,64,0,10,,,,,,3,,66,79
2880,note_on,,,,,64,0,14,,,,,,6,,46,100
2880,note_on,,,,,64,0,12,,,,,,5,,34,79
2880,note_on,,,,,64,0,11,,,,,,4,,46,79
2880,note_on,,,,,64,0,9,,,,,,2,,73,79
2880,note_on,,,,,64,0,16,,,,,,7,,46,100
2880,note_on,,,,,64,0,13,,,,,,6,,66,100
2880,note_on,,,,,0,0,13,,,,,,6,,64,100
2880,note_on,,,,,0,0,13,,,,,,6,,73,100
2880,note_on,,,,,64,0,8,,,,,,1,,76,79
3184,note_off,,,,,304,0,8,,,,,,1,,76,0
3184,note_off,,,,,304,0,10,,,,,,3,,66,0
3184,note_off,,,,,304,0,12,,,,,,5,,34,0
3184,note_off,,,,,304,0,16,,,,,,7,,46,0
3184,note_off,,,,,304,0,11,,,,,,4,,46,0
3184,note_off,,,,,304,0,14,,,,,,6,,46,0
3184,note_off,,,,,304,0,13,,,,,,6,,66,0
3184,note_off,,,,,0,0,13,,,,,,6,,64,0
3184,note_off,,,,,0,0,13,,,,,,6,,73,0
3184,note_off,,,,,304,0,9,,,,,,2,,73,0
3264,note_on,,,,,80,0,9,,,,,,2,,73,83
3264,note_on,,,,,80,0,13,,,,,,6,,66,100
3264,note_on,,,,,80,0,10,,,,,,3,,66,83
3264,note_on,,,,,80,0,16,,,,,,7,,46,100
3264,note_on,,,,,0,0,13,,,,,,6,,64,100
3264,note_on,,,,,0,0,13,,,,,,6,,73,100
3264,note_on,,,,,80,0,14,,,,,,6,,46,100
3264,note_on,,,,,80,0,12,,,,,,5,,34,83
3264,note_on,,,,,80,0,11,,,,,,4,,46,83
3264,note_on,,,,,80,0,8,,,,,,1,,76,83
3392,note_off,,,,,128,0,11,,,,,,4,,46,0
3392,note_off,,,,,128,0,14,,,,,,6,,46,0
3392,note_off,,,,,0,0,13,,,,,,6,,73,0
3392,note_off,,,,,0,0,13,,,,,,6,,64,0
3392,note_off,,,,,128,0,13,,,,,,6,,66,0
3392,note_off,,,,,128,0,16,,,,,,7,,46,0
3392,note_off,,,,,128,0,12,,,,,,5,,34,0
3392,note_off,,,,,128,0,10,,,,,,3,,66,0
3416,note_off,,,,,152,0,8,,,,,,1,,76,0
3416,note_off,,,,,152,0,9,,,,,,2,,73,0
3456,note_on,,,,,40,0,8,,,,,,1,,78,84
3456,note_on,,,,,64,0,11,,,,,,4,,47,84
3456,note_on,,,,,40,0,9,,,,,,2,,74,84
3456,note_on,,,,,64,0,12,,,,,,5,,35,84
3456,note_on,,,,,64,0,10,,,,,,3,,66,84
3456,note_on,,,,,64,0,16,,,,,,7,,47,100
3456,note_on,,,,,0,0,13,,,,,,6,,73,100
3456,note_on,,,,,64,0,13,,,,,,6,,64,100
3456,note_on,,,,,64,0,14,,,,,,6,,47,100
3500,note_off,,,,,44,0,8,,,,,,1,,78,0
3500,note_off,,,,,44,0,9,,,,,,2,,74,0
3504,note_on,,,,,4,0,9,,,,,,2,,73,85
3504,note_on,,,,,4,0,8,,,,,,1,,76,85
3524,note_off,,,,,20,0,8,,,,,,1,,76,0
3524,note_off,,,,,20,0,9,,,,,,2,,73,0
3528,note_on,,,,,4,0,8,,,,,,1,,78,84
3528,note_on,,,,,4,0,9,,,,,,2,,74,84
3548,note_off,,,,,20,0,9,,,,,,2,,74,0
3548,note_off,,,,,20,0,8,,,,,,1,,78,0
3552,note_on,,,,,4,0,8,,,,,,1,,76,84
3552,note_on,,,,,4,0,9,,,,,,2,,73,84
3572,note_off,,,,,20,0,9,,,,,,2,,73,0
3572,note_off,,,,,20,0,8,,,,,,1,,76,0
3576,note_on,,,,,4,0,9,,,,,,2,,74,84
3576,note_on,,,,,4,0,8,,,,,,1,,78,84
3596,note_off,,,,,20,0,8,,,,,,1,,78,0
3596,note_off,,,,,20,0,9,,,,,,2,,74,0
3600,note_on,,,,,4,0,8,,,,,,1,,76,83
3600,note_on,,,,,4,0,9,,,,,,2,,73,83
3620,note_off,,,,,20,0,8,,,,,,1,,76,0
3620,note_off,,,,,20,0,9,,,,,,2,,73,0
3624,note_on,,,,,4,0,8,,,,,,1,,78,83
3624,note_on,,,,,4,0,9,,,,,,2,,74,83
3644,note_off,,,,,20,0,8,,,,,,1,,78,0
3644,note_off,,,,,20,0,9,,,,,,2,,74,0
3648,note_on,,,,,4,0,8,,,,,,1,,76,83
3648,note_on,,,,,4,0,9,,,,,,2,,73,83
3760,note_off,,,,,304,0,16,,,,,,7,,47,0
3760,note_off,,,,,304,0,14,,,,,,6,,47,0
3760,note_off,,,,,304,0,13,,,,,,6,,64,0
3760,note_off,,,,,0,0,13,,,,,,6,,73,0
3760,note_off,,,,,304,0,10,,,,,,3,,66,0
3760,note_off,,,,,304,0,12,,,,,,5,,35,0
3760,note_off,,,,,304,0,11,,,,,,4,,47,0
3836,note_off,,,,,188,0,9,,,,,,2,,73,0
3836,note_off,,,,,188,0,8,,,,,,1,,76,0
3836,note_off,,,,,1532,0,15,,,,,,7,,64,0
3836,note_off,,,,,0,0,15,,,,,,7,,73,0
3840,note_on,,,,,0,0,13,,,,,,6,,71,100
3840,note_on,,,,,80,0,13,,,,,,6,,62,100
3840,note_on,,,,,80,0,16,,,,,,7,,47,100
3840,note_on,,,,,4,0,15,,,,,,7,,62,100
3840,note_on,,,,,4,0,8,,,,,,1,,74,80
3840,note_on,,,,,80,0,14,,,,,,6,,47,100
3840,note_on,,,,,4,0,9,,,,,,2,,71,80
3840,note_on,,,,,80,0,10,,,,,,3,,66,80
3840,note_on,,,,,0,0,15,,,,,,7,,71,100
3840,note_on,,,,,80,0,11,,,,,,4,,47,80
3840,note_on,,,,,80,0,12,,,,,,5,,35,80
3968,note_off,,,,,128,0,16,,,,,,7,,47,0
3968,note_off,,,,,128,0,9,,,,,,2,,71,0
3968,note_off,,,,,128,0,13,,,,,,6,,62,0
3968,note_off,,,,,0,0,13,,,,,,6,,71,0
3968,note_off,,,,,128,0,8,,,,,,1,,74,0
3968,note_off,,,,,128,0,12,,,,,,5,,35,0
3968,note_off,,,,,128,0,14,,,,,,6,,47,0
3968,note_off,,,,,128,0,15,,,,,,7,,62,0
3968,note_off,,,,,0,0,15,,,,,,7,,71,0
3968,note_off,,,,,128,0,11,,,,,,4,,47,0
3968,note_off,,,,,128,0,10,,,,,,3,,66,0
4032,note_on,,,,,0,0,15,,,,,,7,,71,100
4032,note_on,,,,,64,0,16,,,,,,7,,47,100
4032,note_on,,,,,64,0,9,,,,,,2,,71,77
4032,note_on,,,,,0,0,13,,,,,,6,,71,100
4032,note_on,,,,,64,0,15,,,,,,7,,62,100
4032,note_on,,,,,64,0,8,,,,,,1,,74,77
4032,note_on,,,,,64,0,14,,,,,,6,,47,100
4032,note_on,,,,,64,0,13,,,,,,6,,62,100
4032,note_on,,,,,64,0,11,,,,,,4,,47,77
4032,note_on,,,,,64,0,12,,,,,,5,,35,77
4032,note_on,,,,,64,0,10,,,,,,3,,66,77
4336,note_off,,,,,304,0,14,,,,,,6,,47,0
4336,note_off,,,,,304,0,13,,,,,,6,,62,0
4336,note_off,,,,,304,0,16,,,,,,7,,47,0
4336,note_off,,,,,304,0,11,,,,,,4,,47,0
4336,note_off,,,,,0,0,13,,,,,,6,,71,0
4336,note_off,,,,,304,0,12,,,,,,5,,35,0
4336,note_off,,,,,304,0,10,,,,,,3,,66,0
4416,note_on,,,,,80,0,12,,,,,,5,,35,71
4416,note_on,,,,,80,0,13,,,,,,6,,62,100
4416,note_on,,,,,0,0,13,,,,,,6,,71,100
4416,note_on,,,,,80,0,14,,,,,,6,,47,100
4416,note_on,,,,,80,0,10,,,,,,3,,66,71
4416,note_on,,,,,80,0,16,,,,,,7,,47,100
4416,note_on,,,,,80,0,11,,,,,,4,,47,71
4492,note_off,,,,,460,0,8,,,,,,1,,74,0
4492,note_off,,,,,460,0,9,,,,,,2,,71,0
4544,note_off,,,,,128,0,12,,,,,,5,,35,0
4544,note_off,,,,,128,0,14,,,,,,6,,47,0
4544,note_off,,,,,128,0,13,,,,,,6,,62,0
4544,note_off,,,,,0,0,13,,,,,,6,,71,0
4544,note_off,,,,,128,0,11,,,,,,4,,47,0
4544,note_off,,,,,128,0,16,,,,,,7,,47,0
4544,note_off,,,,,128,0,10,,,,,,3,,66,0
4548,note_off,,,,,0,0,15,,,,,,7,,71,0
4548,note_off,,,,,516,0,15,,,,,,7,,62,0
4574,note_on,,,,,30,0,13,,,,,,6,,59,100
4590,note_on,,,,,16,0,13,,,,,,6,,62,100
4608,note_on,,,,,18,0,13,,,,,,6,,67,100
4608,note_on,,,,,116,0,9,,,,,,2,,71,80
4608,note_on,,,,,60,0,15,,,,,,7,,67,100
4608,note_on,,,,,64,0,12,,,,,,5,,35,80
4608,note_on,,,,,64,0,11,,,,,,4,,47,80
4608,note_on,,,,,64,0,10,,,,,,3,,62,80
4608,note_on,,,,,64,0,14,,,,,,6,,47,100
4608,note_on,,,,,64,0,16,,,,,,7,,47,100
4608,note_on,,,,,116,0,8,,,,,,1,,79,80
4608,note_on,,,,,0,0,15,,,,,,7,,74,100
4836,note_off,,,,,228,0,8,,,,,,1,,79,0
4836,note_off,,,,,228,0,9,,,,,,2,,71,0
4878,note_off,,,,,270,0,13,,,,,,6,,59,0
4894,note_off,,,,,16,0,13,,,,,,6,,62,0
4896,note_on,,,,,60,0,8,,,,,,1,,81,82
4896,note_on,,,,,60,0,9,,,,,,2,,73,82
4912,note_off,,,,,304,0,10,,,,,,3,,62,0
4912,note_off,,,,,304,0,14,,,,,,6,,47,0
4912,note_off,,,,,304,0,16,,,,,,7,,47,0
4912,note_off,,,,,304,0,11,,,,,,4,,47,0
4912,note_off,,,,,18,0,13,,,,,,6,,67,0
4912,note_off,,,,,304,0,12,,,,,,5,,35,0
4960,note_off,,,,,64,0,9,,,,,,2,,73,0
4960,note_off,,,,,64,0,8,,,,,,1,,81,0
4992,note_on,,,,,80,0,12,,,,,,5,,35,83
4992,note_on,,,,,80,0,11,,,,,,4,,47,83
4992,note_on,,,,,80,0,16,,,,,,7,,47,100
4992,note_on,,,,,32,0,8,,,,,,1,,79,83
4992,note_on,,,,,0,0,13,,,,,,6,,62,100
4992,note_on,,,,,80,0,14,,,,,,6,,47,100
4992,note_on,,,,,80,0,10,,,,,,3,,62,83
4992,note_on,,,,,32,0,9,,,,,,2,,71,83
4992,note_on,,,,,80,0,13,,,,,,6,,67,100
5120,note_off,,,,,128,0,9,,,,,,2,,71,0
5120,note_off,,,,,128,0,13,,,,,,6,,67,0
5120,note_off,,,,,128,0,12,,,,,,5,,35,0
5120,note_off,,,,,128,0,16,,,,,,7,,47,0
5120,note_off,,,,,128,0,8,,,,,,1,,79,0
5120,note_off,,,,,128,0,11,,,,,,4,,47,0
5120,note_off,,,,,128,0,10,,,,,,3,,62,0
5120,note_off,,,,,0,0,13,,,,,,6,,62,0
5120,note_off,,,,,128,0,14,,,,,,6,,47,0
5184,note_on,,,,,64,0,8,,,,,,1,,79,84
5184,note_on,,,,,64,0,14,,,,,,6,,47,100
5184,note_on,,,,,64,0,13,,,,,,6,,67,100
5184,note_on,,,,,0,0,13,,,,,,6,,62,100
5184,note_on,,,,,64,0,12,,,,,,5,,35,84
5184,note_on,,,,,64,0,16,,,,,,7,,47,100
5184,note_on,,,,,64,0,9,,,,,,2,,83,84
5184,note_on,,,,,64,0,10,,,,,,3,,74,84
5184,note_on,,,,,64,0,11,,,,,,4,,47,84
5488,note_off,,,,,304,0,10,,,,,,3,,74,0
5488,note_off,,,,,304,0,12,,,,,,5,,35,0
5488,note_off,,,,,304,0,13,,,,,,6,,67,0
5488,note_off,,,,,0,0,13,,,,,,6,,62,0
5488,note_off,,,,,304,0,8,,,,,,1,,79,0
5488,note_off,,,,,304,0,16,,,,,,7,,47,0
5488,note_off,,,,,304,0,9,,,,,,2,,83,0
5488,note_off,,,,,304,0,14,,,,,,6,,47,0
5488,note_off,,,,,304,0,11,,,,,,4,,47,0
5568,note_on,,,,,80,0,9,,,,,,2,,81,88
5568,note_on,,,,,80,0,8,,,,,,1,,78,88
5568,note_on,,,,,80,0,14,,,,,,6,,47,100
5568,note_on,,,,,80,0,10,,,,,,3,,71,88
5568,note_on,,,,,80,0,11,,,,,,4,,47,88
5568,note_on,,,,,80,0,12,,,,,,5,,35,88
5568,note_on,,,,,80,0,16,,,,,,7,,47,100
5568,note_on,,,,,0,0,13,,,,,,6,,62,100
5568,note_on,,,,,80,0,13,,,,,,6,,67,100
5644,note_off,,,,,1036,0,15,,,,,,7,,67,0
5644,note_off,,,,,0,0,15,,,,,,7,,74,0
5696,note_off,,,,,128,0,12,,,,,,5,,35,0
5696,note_off,,,,,128,0,16,,,,,,7,,47,0
5696,note_off,,,,,0,0,13,,,,,,6,,62,0
5696,note_off,,,,,128,0,10,,,,,,3,,71,0
5696,note_off,,,,,128,0,8,,,,,,1,,78,0
5696,note_off,,,,,128,0,9,,,,,,2,,81,0
5696,note_off,,,,,128,0,14,,,,,,6,,47,0
5696,note_off,,,,,128,0,11,,,,,,4,,47,0
5696,note_off,,,,,128,0,13,,,,,,6,,67,0
5760,note_on,,,,,64,0,13,,,,,,6,,68,100
5760,note_on,,,,,0,0,13,,,,,,6,,65,100
5760,note_on,,,,,64,0,9,,,,,,2,,80,90
5760,note_on,,,,,64,0,16,,,,,,7,,47,100
5760,note_on,,,,,64,0,11,,,,,,4,,47,90
5760,note_on,,,,,64,0,8,,,,,,1,,77,90
5760,note_on,,,,,0,0,15,,,,,,7,,68,100
5760,note_on,,,,,64,0,12,,,,,,5,,35,90
5760,note_on,,,,,64,0,14,,,,,,6,,47,100
5760,note_on,,,,,64,0,10,,,,,,3,,73,90
5760,note_on,,,,,116,0,15,,,,,,7,,73,100
6064,note_off,,,,,304,0,13,,,,,,6,,68,0
6064,note_off,,,,,0,0,13,,,,,,6,,65,0
6064,note_off,,,,,304,0,12,,,,,,5,,35,0
6064,note_off,,,,,304,0,8,,,,,,1,,77,0
6064,note_off,,,,,304,0,10,,,,,,3,,73,0
6064,note_off,,,,,304,0,11,,,,,,4,,47,0
6064,note_off,,,,,304,0,9,,,,,,2,,80,0
6064,note_off,,,,,304,0,16,,,,,,7,,47,0
6064,note_off,,,,,304,0,14,,,,,,6,,47,0
6140,note_off,,,,,380,0,15,,,,,,7,,73,0
6144,note_on,,,,,80,0,11,,,,,,4,,47,86
6144,note_on,,,,,4,0,15,,,,,,7,,71,100
6144,note_on,,,,,80,0,14,,,,,,6,,47,100
6144,note_on,,,,,80,0,10,,,,,,3,,73,86
6144,note_on,,,,,0,0,13,,,,,,6,,65,100
6144,note_on,,,,,80,0,13,,,,,,6,,68,100
6144,note_on,,,,,80,0,16,,,,,,7,,47,100
6144,note_on,,,,,80,0,9,,,,,,2,,80,86
6144,note_on,,,,,80,0,12,,,,,,5,,35,86
6144,note_on,,,,,80,0,8,,,,,,1,,83,86
6272,note_off,,,,,128,0,9,,,,,,2,,80,0
6272,note_off,,,,,128,0,10,,,,,,3,,73,0
6272,note_off,,,,,128,0,12,,,,,,5,,35,0
6272,note_off,,,,,128,0,14,,,,,,6,,47,0
6272,note_off,,,,,128,0,16,,,,,,7,,47,0
6272,note_off,,,,,128,0,8,,,,,,1,,83,0
6272,note_off,,,,,128,0,13,,,,,,6,,68,0
6272,note_off,,,,,0,0,13,,,,,,6,,65,0
6272,note_off,,,,,128,0,11,,,,,,4,,47,0
6332,note_off,,,,,188,0,15,,,,,,7,,68,0
6332,note_off,,,,,0,0,15,,,,,,7,,71,0
6336,note_on,,,,,64,0,10,,,,,,3,,63,90
6336,note_on,,,,,64,0,11,,,,,,4,,48,90
6336,note_on,,,,,64,0,16,,,,,,7,,48,100
6336,note_on,,,,,0,0,13,,,,,,6,,66,100
6336,note_on,,,,,64,0,9,,,,,,2,,78,90
6336,note_on,,,,,64,0,8,,,,,,1,,81,90
6336,note_on,,,,,64,0,12,,,,,,5,,36,90
6336,note_on,,,,,0,0,15,,,,,,7,,69,100
6336,note_on,,,,,4,0,15,,,,,,7,,66,100
6336,note_on,,,,,64,0,14,,,,,,6,,48,100
6336,note_on,,,,,64,0,13,,,,,,6,,69,100
6640,note_off,,,,,304,0,14,,,,,,6,,48,0
6640,note_off,,,,,304,0,12,,,,,,5,,36,0
6640,note_off,,,,,304,0,8,,,,,,1,,81,0
6640,note_off,,,,,304,0,9,,,,,,2,,78,0
6640,note_off,,,,,304,0,16,,,,,,7,,48,0
6640,note_off,,,,,0,0,13,,,,,,6,,66,0
6640,note_off,,,,,304,0,13,,,,,,6,,69,0
6640,note_off,,,,,304,0,10,,,,,,3,,63,0
6640,note_off,,,,,304,0,11,,,,,,4,,48,0
6716,note_off,,,,,0,0,15,,,,,,7,,69,0
6716,note_off,,,,,380,0,15,,,,,,7,,66,0
6720,note_on,,,,,80,0,11,,,,,,4,,48,86
6720,note_on,,,,,80,0,12,,,,,,5,,36,86
6720,note_on,,,,,80,0,10,,,,,,3,,68,86
6720,note_on,,,,,80,0,9,,,,,,2,,77,86
6720,note_on,,,,,80,0,8,,,,,,1,,80,86
6720,note_on,,,,,80,0,14,,,,,,6,,48,100
6720,note_on,,,,,0,0,13,,,,,,6,,65,100
6720,note_on,,,,,80,0,13,,,,,,6,,68,100
6720,note_on,,,,,0,0,15,,,,,,7,,68,100
6720,note_on,,,,,4,0,15,,,,,,7,,65,100
6720,note_on,,,,,80,0,16,,,,,,7,,48,100
6848,note_off,,,,,128,0,14,,,,,,6,,48,0
6848,note_off,,,,,128,0,9,,,,,,2,,77,0
6848,note_off,,,,,128,0,10,,,,,,3,,68,0
6848,note_off,,,,,0,0,15,,,,,,7,,68,0
6848,note_off,,,,,128,0,11,,,,,,4,,48,0
6848,note_off,,,,,0,0,13,,,,,,6,,65,0
6848,note_off,,,,,128,0,13,,,,,,6,,68,0
6848,note_off,,,,,128,0,15,,,,,,7,,65,0
6848,note_off,,,,,128,0,8,,,,,,1,,80,0
6848,note_off,,,,,128,0,16,,,,,,7,,48,0
6848,note_off,,,,,128,0,12,,,,,,5,,36,0
6912,note_on,,,,,64,0,16,,,,,,7,,48,100
6912,note_on,,,,,64,0,11,,,,,,4,,48,89
6912,note_on,,,,,64,0,8,,,,,,1,,81,89
6912,note_on,,,,,64,0,10,,,,,,3,,63,89
6912,note_on,,,,,64,0,14,,,,,,6,,48,100
6912,note_on,,,,,0,0,13,,,,,,6,,66,100
6912,note_on,,,,,64,0,12,,,,,,5,,36,89
6912,note_on,,,,,64,0,13,,,,,,6,,69,100
6912,set_tempo,,,,,4608,1,0,,1276595,,,,,,,
6912,note_on,,,,,64,0,15,,,,,,7,,66,100
6912,note_on,,,,,0,0,15,,,,,,7,,69,100
6912,note_on,,,,,64,0,9,,,,,,2,,78,89
7104,set_tempo,,,,,192,1,0,,1276595,,,,,,,
7140,note_off,,,,,228,0,9,,,,,,2,,78,0
7140,note_off,,,,,228,0,8,,,,,,1,,81,0
7200,note_on,,,,,60,0,9,,,,,,2,,80,86
7200,note_on,,,,,60,0,8,,,,,,1,,83,86
7216,note_off,,,,,304,0,12,,,,,,5,,36,0
7216,note_off,,,,,304,0,10,,,,,,3,,63,0
7216,note_off,,,,,304,0,11,,,,,,4,,48,0
7216,note_off,,,,,304,0,16,,,,,,7,,48,0
7216,note_off,,,,,0,0,13,,,,,,6,,66,0
7216,note_off,,,,,304,0,13,,,,,,6,,69,0
7216,note_off,,,,,304,0,14,,,,,,6,,48,0
7264,note_off,,,,,64,0,8,,,,,,1,,83,0
7264,note_off,,,,,64,0,9,,,,,,2,,80,0
7296,note_on,,,,,80,0,12,,,,,,5,,36,84
7296,note_on,,,,,80,0,16,,,,,,7,,48,100
7296,set_tempo,,,,,192,1,0,,1276595,,,,,,,
7296,note_on,,,,,80,0,11,,,,,,4,,48,84
7296,note_on,,,,,80,0,13,,,,,,6,,69,100
7296,note_on,,,,,32,0,8,,,,,,1,,81,84
7296,note_on,,,,,0,0,13,,,,,,6,,66,100
7296,note_on,,,,,32,0,9,,,,,,2,,78,84
7296,note_on,,,,,80,0,14,,,,,,6,,48,100
7296,note_on,,,,,80,0,10,,,,,,3,,63,84
7424,note_off,,,,,128,0,16,,,,,,7,,48,0
7424,note_off,,,,,128,0,9,,,,,,2,,78,0
7424,note_off,,,,,128,0,8,,,,,,1,,81,0
7424,note_off,,,,,128,0,12,,,,,,5,,36,0
7424,note_off,,,,,0,0,13,,,,,,6,,66,0
7424,note_off,,,,,128,0,13,,,,,,6,,69,0
7424,note_off,,,,,128,0,11,,,,,,4,,48,0
7424,note_off,,,,,128,0,10,,,,,,3,,63,0
7424,note_off,,,,,128,0,14,,,,,,6,,48,0
7488,note_on,,,,,64,0,13,,,,,,6,,69,100
7488,note_on,,,,,64,0,14,,,,,,6,,49,100
7488,note_on,,,,,64,0,16,,,,,,7,,49,100
7488,set_tempo,,,,,192,1,0,,1276595,,,,,,,
7488,note_on,,,,,64,0,9,,,,,,2,,78,84
7488,note_on,,,,,0,0,13,,,,,,6,,66,100
7488,note_on,,,,,64,0,11,,,,,,4,,49,84
7488,note_on,,,,,64,0,8,,,,,,1,,81,84
7488,note_on,,,,,64,0,10,,,,,,3,,61,84
7488,note_on,,,,,64,0,12,,,,,,5,,37,84
7584,set_tempo,,,,,96,1,0,,1304347,,,,,,,
7680,set_tempo,,,,,96,1,0,,1304347,,,,,,,
7744,set_tempo,,,,,64,1,0,,1304347,,,,,,,
7792,note_off,,,,,304,0,13,,,,,,6,,69,0
7792,note_off,,,,,304,0,10,,,,,,3,,61,0
7792,note_off,,,,,304,0,12,,,,,,5,,37,0
7792,note_off,,,,,304,0,8,,,,,,1,,81,0
7792,note_off,,,,,304,0,16,,,,,,7,,49,0
7792,note_off,,,,,304,0,9,,,,,,2,,78,0
7792,note_off,,,,,304,0,11,,,,,,4,,49,0
7792,note_off,,,,,304,0,14,,,,,,6,,49,0
7792,note_off,,,,,0,0,13,,,,,,6,,66,0
7832,note_off,,,,,920,0,15,,,,,,7,,66,0
7832,note_off,,,,,0,0,15,,,,,,7,,69,0
7840,set_tempo,,,,,96,1,0,,1333333,,,,,,,
7872,note_on,,,,,80,0,9,,,,,,2,,77,74
7872,note_on,,,,,0,0,13,,,,,,6,,65,100
7872,note_on,,,,,80,0,10,,,,,,3,,61,74
7872,note_on,,,,,80,0,13,,,,,,6,,68,100
7872,note_on,,,,,80,0,8,,,,,,1,,80,74
7872,note_on,,,,,80,0,12,,,,,,5,,37,74
7872,note_on,,,,,80,0,16,,,,,,7,,49,100
7872,note_on,,,,,80,0,14,,,,,,6,,49,100
7872,note_on,,,,,40,0,15,,,,,,7,,65,100
7872,note_on,,,,,0,0,15,,,,,,7,,68,100
7872,note_on,,,,,80,0,11,,,,,,4,,49,74
7904,set_tempo,,,,,64,1,0,,1333333,,,,,,,
8000,note_off,,,,,128,0,15,,,,,,7,,65,0
8000,set_tempo,,,,,96,1,0,,1333333,,,,,,,
8000,note_off,,,,,128,0,10,,,,,,3,,61,0
8000,note_off,,,,,128,0,14,,,,,,6,,49,0
8000,note_off,,,,,128,0,8,,,,,,1,,80,0
8000,note_off,,,,,128,0,13,,,,,,6,,68,0
8000,note_off,,,,,0,0,13,,,,,,6,,65,0
8000,note_off,,,,,128,0,11,,,,,,4,,49,0
8000,note_off,,,,,128,0,16,,,,,,7,,49,0
8000,note_off,,,,,128,0,9,,,,,,2,,77,0
8000,note_off,,,,,0,0,15,,,,,,7,,68,0
8000,note_off,,,,,128,0,12,,,,,,5,,37,0
8064,set_tempo,,,,,64,1,0,,1363636,,,,,,,
8064,note_on,,,,,0,0,8,,,,,,1,,78,72
8064,note_on,,,,,0,0,9,,,,,,2,,78,72
8064,note_on,,,,,0,0,10,,,,,,3,,57,72
8064,control_change,,,,,64,0,10,,,,7,91,3,,,
8064,note_on,,,,,0,0,12,,,,,,5,,42,72
8064,control_change,,,,,64,0,12,,,,7,71,5,,,
8064,note_on,,,,,64,0,15,,,,,,7,,66,100
8064,control_change,,,,,64,0,9,,,,7,95,2,,,
8064,control_change,,,,,64,0,8,,,,7,99,1,,,
8064,note_on,,,,,64,0,14,,,,,,6,,42,100
8064,note_on,,,,,0,0,11,,,,,,4,,42,72
8064,control_change,,,,,64,0,11,,,,7,81,4,,,
8064,note_on,,,,,64,0,16,,,,,,7,,42,100
8094,note_on,,,,,94,0,13,,,,,,6,,57,100
8126,note_on,,,,,32,0,13,,,,,,6,,61,100
8158,note_on,,,,,32,0,13,,,,,,6,,66,100
8160,control_change,,,,,96,0,8,,,,7,97,1,,,
8160,control_change,,,,,96,0,11,,,,7,79,4,,,
8160,control_change,,,,,96,0,12,,,,7,69,5,,,
8160,control_change,,,,,96,0,9,,,,7,93,2,,,
8160,control_change,,,,,96,0,10,,,,7,89,3,,,
8256,control_change,,,,,96,0,9,,,,7,91,2,,,
8256,control_change,,,,,96,0,11,,,,7,77,4,,,
8256,control_change,,,,,96,0,8,,,,7,95,1,,,
8256,control_change,,,,,96,0,10,,,,7,87,3,,,
8256,control_change,,,,,96,0,12,,,,7,67,5,,,
8352,control_change,,,,,96,0,9,,,,7,89,2,,,
8352,control_change,,,,,96,0,8,,,,7,93,1,,,
8352,control_change,,,,,96,0,10,,,,7,85,3,,,
8352,control_change,,,,,96,0,12,,,,7,65,5,,,
8352,control_change,,,,,96,0,11,,,,7,75,4,,,
8448,control_change,,,,,96,0,8,,,,7,91,1,,,
8448,control_change,,,,,96,0,12,,,,7,63,5,,,
8448,control_change,,,,,96,0,10,,,,7,83,3,,,
8448,control_change,,,,,96,0,11,,,,7,73,4,,,
8448,control_change,,,,,96,0,9,,,,7,87,2,,,
8544,control_change,,,,,96,0,11,,,,7,71,4,,,
8544,control_change,,,,,96,0,12,,,,7,61,5,,,
8544,control_change,,,,,96,0,10,,,,7,81,3,,,
8544,control_change,,,,,96,0,8,,,,7,89,1,,,
8544,control_change,,,,,96,0,9,,,,7,85,2,,,
8640,control_change,,,,,96,0,12,,,,7,59,5,,,
8640,control_change,,,,,96,0,11,,,,7,69,4,,,
8640,control_change,,,,,96,0,10,,,,7,79,3,,,
8640,control_change,,,,,96,0,9,,,,7,83,2,,,
8640,control_change,,,,,96,0,8,,,,7,87,1,,,
8736,control_change,,,,,96,0,12,,,,7,57,5,,,
8736,control_change,,,,,96,0,9,,,,7,81,2,,,
8736,control_change,,,,,96,0,10,,,,7,77,3,,,
8736,control_change,,,,,96,0,11,,,,7,67,4,,,
8736,control_change,,,,,96,0,8,,,,7,85,1,,,
8832,control_change,,,,,96,0,8,,,,7,83,1,,,
8832,control_change,,,,,96,0,9,,,,7,79,2,,,
8832,control_change,,,,,96,0,12,,,,7,55,5,,,
8832,control_change,,,,,96,0,10,,,,7,75,3,,,
8832,control_change,,,,,96,0,11,,,,7,65,4,,,
8928,control_change,,,,,96,0,12,,,,7,53,5,,,
8928,control_change,,,,,96,0,11,,,,7,63,4,,,
8928,control_change,,,,,96,0,10,,,,7,73,3,,,
8928,control_change,,,,,96,0,9,,,,7,77,2,,,
8928,control_change,,,,,96,0,8,,,,7,81,1,,,
8982,note_off,,,,,0,0,13,,,,,,6,,66,0
8982,note_off,,,,,0,0,13,,,,,,6,,61,0
8982,note_off,,,,,824,0,13,,,,,,6,,57,0
8984,note_off,,,,,56,0,8,,,,,,1,,78,0
8984,note_off,,,,,56,0,10,,,,,,3,,57,0
8984,note_off,,,,,920,0,16,,,,,,7,,42,0
8984,note_off,,,,,56,0,11,,,,,,4,,42,0
8984,note_off,,,,,920,0,14,,,,,,6,,42,0
8984,note_off,,,,,920,0,15,,,,,,7,,66,0
8984,note_off,,,,,56,0,9,,,,,,2,,78,0
8984,note_off,,,,,56,0,12,,,,,,5,,42,0
9216,control_change,,,,,232,0,8,,,,7,100,1,,,
9216,note_on,,,,,0,0,8,,,,,,1,,74,45
9216,control_change,,,,,232,0,9,,,,7,96,2,,,
9216,note_on,,,,,9216,0,7,,,,,,0,,71,80
9216,note_on,,,,,0,0,9,,,,,,2,,66,45
9216,control_change,,,,,232,0,11,,,,7,82,4,,,
9216,note_on,,,,,0,0,10,,,,,,3,,59,45
9216,control_change,,,,,232,0,10,,,,7,92,3,,,
9216,control_change,,,,,232,0,12,,,,7,72,5,,,
9216,set_tempo,,,,,1152,1,0,,1276595,,,,,,,
9308,note_off,,,,,92,0,7,,,,,,0,,71,0
9312,note_on,,,,,4,0,7,,,,,,0,,74,80
9404,note_off,,,,,92,0,7,,,,,,0,,74,0
9408,note_on,,,,,4,0,7,,,,,,0,,73,81
9500,note_off,,,,,92,0,7,,,,,,0,,73,0
9504,note_on,,,,,4,0,7,,,,,,0,,71,82
9520,note_off,,,,,304,0,10,,,,,,3,,59,0
9520,note_off,,,,,304,0,8,,,,,,1,,74,0
9520,note_off,,,,,304,0,9,,,,,,2,,66,0
9596,note_off,,,,,92,0,7,,,,,,0,,71,0
9600,note_on,,,,,80,0,9,,,,,,2,,66,45
9600,note_on,,,,,80,0,10,,,,,,3,,59,45
9600,note_on,,,,,80,0,8,,,,,,1,,74,45
9600,note_on,,,,,4,0,7,,,,,,0,,74,83
9692,note_off,,,,,92,0,7,,,,,,0,,74,0
9696,note_on,,,,,4,0,7,,,,,,0,,78,84
9728,note_off,,,,,128,0,8,,,,,,1,,74,0
9728,note_off,,,,,128,0,10,,,,,,3,,59,0
9728,note_off,,,,,128,0,9,,,,,,2,,66,0
9760,note_off,,,,,64,0,7,,,,,,0,,78,0
9792,note_on,,,,,64,0,9,,,,,,2,,66,45
9792,note_on,,,,,64,0,8,,,,,,1,,74,45
9792,note_on,,,,,64,0,10,,,,,,3,,59,45
9792,note_on,,,,,32,0,7,,,,,,0,,83,85
10020,note_off,,,,,228,0,7,,,,,,0,,83,0
10080,note_on,,,,,60,0,7,,,,,,0,,86,82
10096,note_off,,,,,304,0,8,,,,,,1,,74,0
10096,note_off,,,,,304,0,10,,,,,,3,,59,0
10096,note_off,,,,,304,0,9,,,,,,2,,66,0
10144,note_off,,,,,64,0,7,,,,,,0,,86,0
10176,note_on,,,,,32,0,7,,,,,,0,,83,81
10176,note_on,,,,,80,0,8,,,,,,1,,74,45
10176,note_on,,,,,80,0,9,,,,,,2,,66,45
10176,note_on,,,,,80,0,10,,,,,,3,,59,45
10304,note_off,,,,,128,0,8,,,,,,1,,74,0
10304,note_off,,,,,128,0,10,,,,,,3,,59,0
10304,note_off,,,,,128,0,7,,,,,,0,,83,0
10304,note_off,,,,,128,0,9,,,,,,2,,66,0
10368,note_on,,,,,64,0,9,,,,,,2,,66,45
10368,note_on,,,,,64,0,10,,,,,,3,,66,45
10368,note_on,,,,,64,0,8,,,,,,1,,74,45
10368,note_on,,,,,64,0,7,,,,,,0,,85,85
10412,note_off,,,,,44,0,7,,,,,,0,,85,0
10416,note_on,,,,,4,0,7,,,,,,0,,83,85
10436,note_off,,,,,20,0,7,,,,,,0,,83,0
10440,note_on,,,,,4,0,7,,,,,,0,,85,85
10460,note_off,,,,,20,0,7,,,,,,0,,85,0
10464,note_on,,,,,4,0,7,,,,,,0,,83,84
10484,note_off,,,,,20,0,7,,,,,,0,,83,0
10488,note_on,,,,,4,0,7,,,,,,0,,85,84
10508,note_off,,,,,20,0,7,,,,,,0,,85,0
10512,note_on,,,,,4,0,7,,,,,,0,,83,84
10532,note_off,,,,,20,0,7,,,,,,0,,83,0
10536,note_on,,,,,4,0,7,,,,,,0,,85,83
10556,note_off,,,,,20,0,7,,,,,,0,,85,0
10560,note_on,,,,,4,0,7,,,,,,0,,83,83
10672,note_off,,,,,304,0,10,,,,,,3,,66,0
10672,note_off,,,,,304,0,8,,,,,,1,,74,0
10672,note_off,,,,,304,0,9,,,,,,2,,66,0
10748,note_off,,,,,188,0,7,,,,,,0,,83,0
10752,note_on,,,,,4,0,7,,,,,,0,,82,80
10752,note_on,,,,,80,0,8,,,,,,1,,73,45
10752,note_on,,,,,80,0,9,,,,,,2,,66,45
10752,note_on,,,,,80,0,10,,,,,,3,,66,45
10880,note_off,,,,,128,0,8,,,,,,1,,73,0
10880,note_off,,,,,128,0,9,,,,,,2,,66,0
10880,note_off,,,,,128,0,10,,,,,,3,,66,0
10880,note_off,,,,,128,0,7,,,,,,0,,82,0
10944,note_on,,,,,64,0,8,,,,,,1,,73,45
10944,note_on,,,,,64,0,7,,,,,,0,,82,78
10944,note_on,,,,,64,0,9,,,,,,2,,66,45
10944,note_on,,,,,64,0,10,,,,,,3,,66,45
11248,note_off,,,,,304,0,8,,,,,,1,,73,0
11248,note_off,,,,,304,0,10,,,,,,3,,66,0
11248,note_off,,,,,304,0,9,,,,,,2,,66,0
11328,note_on,,,,,80,0,9,,,,,,2,,70,45
11328,note_on,,,,,80,0,10,,,,,,3,,66,45
11328,note_on,,,,,80,0,8,,,,,,1,,73,45
11404,note_off,,,,,460,0,7,,,,,,0,,82,0
11456,note_off,,,,,128,0,8,,,,,,1,,73,0
11456,note_off,,,,,128,0,9,,,,,,2,,70,0
11456,note_off,,,,,128,0,10,,,,,,3,,66,0
11520,note_on,,,,,64,0,10,,,,,,3,,66,45
11520,note_on,,,,,116,0,7,,,,,,0,,82,80
11520,note_on,,,,,64,0,9,,,,,,2,,70,45
11520,note_on,,,,,64,0,8,,,,,,1,,76,45
11612,note_off,,,,,92,0,7,,,,,,0,,82,0
11616,note_on,,,,,4,0,7,,,,,,0,,83,80
11708,note_off,,,,,92,0,7,,,,,,0,,83,0
11712,note_on,,,,,4,0,7,,,,,,0,,85,79
11804,note_off,,,,,92,0,7,,,,,,0,,85,0
11808,note_on,,,,,4,0,7,,,,,,0,,82,78
11824,note_off,,,,,304,0,9,,,,,,2,,70,0
11824,note_off,,,,,304,0,10,,,,,,3,,66,0
11824,note_off,,,,,304,0,8,,,,,,1,,76,0
11900,note_off,,,,,92,0,7,,,,,,0,,82,0
11904,note_on,,,,,4,0,7,,,,,,0,,79,77
11904,note_on,,,,,80,0,9,,,,,,2,,70,45
11904,note_on,,,,,80,0,10,,,,,,3,,66,45
11904,note_on,,,,,80,0,8,,,,,,1,,76,45
11996,note_off,,,,,92,0,7,,,,,,0,,79,0
12000,note_on,,,,,4,0,7,,,,,,0,,78,76
12032,note_off,,,,,128,0,10,,,,,,3,,66,0
12032,note_off,,,,,128,0,9,,,,,,2,,70,0
12032,note_off,,,,,128,0,8,,,,,,1,,76,0
12064,note_off,,,,,64,0,7,,,,,,0,,78,0
12096,note_on,,,,,64,0,10,,,,,,3,,66,45
12096,note_on,,,,,64,0,9,,,,,,2,,70,45
12096,note_on,,,,,64,0,8,,,,,,1,,76,45
12096,note_on,,,,,32,0,7,,,,,,0,,76,75
12188,note_off,,,,,92,0,7,,,,,,0,,76,0
12192,note_on,,,,,4,0,7,,,,,,0,,82,76
12284,note_off,,,,,92,0,7,,,,,,0,,82,0
12288,note_on,,,,,4,0,7,,,,,,0,,85,78
12380,note_off,,,,,92,0,7,,,,,,0,,85,0
12384,note_on,,,,,4,0,7,,,,,,0,,82,79
12400,note_off,,,,,304,0,8,,,,,,1,,76,0
12400,note_off,,,,,304,0,9,,,,,,2,,70,0
12400,note_off,,,,,304,0,10,,,,,,3,,66,0
12476,note_off,,,,,92,0,7,,,,,,0,,82,0
12480,note_on,,,,,80,0,8,,,,,,1,,76,45
12480,note_on,,,,,80,0,9,,,,,,2,,70,45
12480,note_on,,,,,4,0,7,,,,,,0,,83,81
12480,note_on,,,,,80,0,10,,,,,,3,,66,45
12572,note_off,,,,,92,0,7,,,,,,0,,83,0
12576,note_on,,,,,4,0,7,,,,,,0,,85,83
12608,note_off,,,,,128,0,10,,,,,,3,,66,0
12608,note_off,,,,,128,0,8,,,,,,1,,76,0
12608,note_off,,,,,128,0,9,,,,,,2,,70,0
12640,note_off,,,,,64,0,7,,,,,,0,,85,0
12672,note_on,,,,,64,0,8,,,,,,1,,74,45
12672,note_on,,,,,64,0,10,,,,,,3,,59,45
12672,note_on,,,,,32,0,7,,,,,,0,,86,85
12672,note_on,,,,,64,0,9,,,,,,2,,66,45
12764,note_off,,,,,92,0,7,,,,,,0,,86,0
12768,note_on,,,,,4,0,7,,,,,,0,,83,85
12860,note_off,,,,,92,0,7,,,,,,0,,83,0
12864,note_on,,,,,4,0,7,,,,,,0,,85,84
12956,note_off,,,,,92,0,7,,,,,,0,,85,0
12960,note_on,,,,,4,0,7,,,,,,0,,82,83
12976,note_off,,,,,304,0,10,,,,,,3,,59,0
12976,note_off,,,,,304,0,8,,,,,,1,,74,0
12976,note_off,,,,,304,0,9,,,,,,2,,66,0
13052,note_off,,,,,92,0,7,,,,,,0,,82,0
13056,note_on,,,,,80,0,10,,,,,,3,,59,45
13056,note_on,,,,,4,0,7,,,,,,0,,83,82
13056,note_on,,,,,80,0,9,,,,,,2,,66,45
13056,note_on,,,,,80,0,8,,,,,,1,,74,45
13184,note_off,,,,,128,0,7,,,,,,0,,83,0
13184,note_off,,,,,128,0,8,,,,,,1,,74,0
13184,note_off,,,,,128,0,9,,,,,,2,,66,0
13184,note_off,,,,,128,0,10,,,,,,3,,59,0
13248,note_on,,,,,64,0,10,,,,,,3,,59,45
13248,note_on,,,,,64,0,8,,,,,,1,,74,45
13248,note_on,,,,,64,0,9,,,,,,2,,66,45
13248,note_on,,,,,64,0,7,,,,,,0,,83,81
13552,note_off,,,,,304,0,9,,,,,,2,,66,0
13552,note_off,,,,,304,0,10,,,,,,3,,59,0
13552,note_off,,,,,304,0,8,,,,,,1,,74,0
13632,note_on,,,,,80,0,9,,,,,,2,,66,45
13632,note_on,,,,,80,0,10,,,,,,3,,59,45
13632,note_on,,,,,80,0,8,,,,,,1,,74,45
13708,note_off,,,,,460,0,7,,,,,,0,,83,0
13760,note_off,,,,,128,0,8,,,,,,1,,74,0
13760,note_off,,,,,128,0,9,,,,,,2,,66,0
13760,note_off,,,,,128,0,10,,,,,,3,,59,0
13824,note_on,,,,,116,0,7,,,,,,0,,83,85
13824,note_on,,,,,64,0,10,,,,,,3,,59,45
13824,note_on,,,,,64,0,9,,,,,,2,,66,45
13824,note_on,,,,,64,0,8,,,,,,1,,74,45
13916,note_off,,,,,92,0,7,,,,,,0,,83,0
13920,note_on,,,,,4,0,7,,,,,,0,,85,85
14012,note_off,,,,,92,0,7,,,,,,0,,85,0
14016,note_on,,,,,4,0,7,,,,,,0,,86,85
14108,note_off,,,,,92,0,7,,,,,,0,,86,0
14112,note_on,,,,,4,0,7,,,,,,0,,83,84
14128,note_off,,,,,304,0,8,,,,,,1,,74,0
14128,note_off,,,,,304,0,9,,,,,,2,,66,0
14128,note_off,,,,,304,0,10,,,,,,3,,59,0
14204,note_off,,,,,92,0,7,,,,,,0,,83,0
14208,note_on,,,,,80,0,8,,,,,,1,,74,45
14208,note_on,,,,,80,0,10,,,,,,3,,59,45
14208,note_on,,,,,4,0,7,,,,,,0,,79,84
14208,note_on,,,,,80,0,9,,,,,,2,,71,45
14300,note_off,,,,,92,0,7,,,,,,0,,79,0
14304,note_on,,,,,4,0,7,,,,,,0,,78,83
14336,note_off,,,,,128,0,8,,,,,,1,,74,0
14336,note_off,,,,,128,0,10,,,,,,3,,59,0
14336,note_off,,,,,128,0,9,,,,,,2,,71,0
14368,note_off,,,,,64,0,7,,,,,,0,,78,0
14400,note_on,,,,,64,0,8,,,,,,1,,74,45
14400,note_on,,,,,64,0,10,,,,,,3,,64,45
14400,note_on,,,,,64,0,9,,,,,,2,,71,45
14400,note_on,,,,,32,0,7,,,,,,0,,79,83
14628,note_off,,,,,228,0,7,,,,,,0,,79,0
14688,note_on,,,,,60,0,7,,,,,,0,,81,81
14704,note_off,,,,,304,0,10,,,,,,3,,64,0
14704,note_off,,,,,304,0,8,,,,,,1,,74,0
14704,note_off,,,,,304,0,9,,,,,,2,,71,0
14752,note_off,,,,,64,0,7,,,,,,0,,81,0
14784,note_on,,,,,80,0,9,,,,,,2,,64,45
14784,note_on,,,,,80,0,8,,,,,,1,,74,45
14784,note_on,,,,,32,0,7,,,,,,0,,79,81
14784,note_on,,,,,80,0,10,,,,,,3,,64,45
14912,note_off,,,,,128,0,10,,,,,,3,,64,0
14912,note_off,,,,,128,0,9,,,,,,2,,64,0
14912,note_off,,,,,128,0,7,,,,,,0,,79,0
14912,note_off,,,,,128,0,8,,,,,,1,,74,0
14976,note_on,,,,,64,0,8,,,,,,1,,73,45
14976,note_on,,,,,64,0,9,,,,,,2,,64,45
14976,note_on,,,,,64,0,10,,,,,,3,,57,45
14976,note_on,,,,,64,0,7,,,,,,0,,81,85
15068,note_off,,,,,92,0,7,,,,,,0,,81,0
15072,note_on,,,,,4,0,7,,,,,,0,,83,85
15164,note_off,,,,,92,0,7,,,,,,0,,83,0
15168,note_on,,,,,4,0,7,,,,,,0,,85,85
15260,note_off,,,,,92,0,7,,,,,,0,,85,0
15264,note_on,,,,,4,0,7,,,,,,0,,81,84
15280,note_off,,,,,304,0,10,,,,,,3,,57,0
15280,note_off,,,,,304,0,9,,,,,,2,,64,0
15280,note_off,,,,,304,0,8,,,,,,1,,73,0
15356,note_off,,,,,92,0,7,,,,,,0,,81,0
15360,note_on,,,,,80,0,10,,,,,,3,,57,45
15360,note_on,,,,,80,0,8,,,,,,1,,73,45
15360,note_on,,,,,4,0,7,,,,,,0,,78,84
15360,note_on,,,,,80,0,9,,,,,,2,,69,45
15452,note_off,,,,,92,0,7,,,,,,0,,78,0
15456,note_on,,,,,4,0,7,,,,,,0,,77,83
15488,note_off,,,,,128,0,10,,,,,,3,,57,0
15488,note_off,,,,,128,0,8,,,,,,1,,73,0
15488,note_off,,,,,128,0,9,,,,,,2,,69,0
15520,note_off,,,,,64,0,7,,,,,,0,,77,0
15552,note_on,,,,,64,0,9,,,,,,2,,69,45
15552,note_on,,,,,64,0,10,,,,,,3,,62,45
15552,note_on,,,,,32,0,7,,,,,,0,,78,83
15552,note_on,,,,,64,0,8,,,,,,1,,73,45
15780,note_off,,,,,228,0,7,,,,,,0,,78,0
15840,note_on,,,,,60,0,7,,,,,,0,,79,81
15856,note_off,,,,,304,0,8,,,,,,1,,73,0
15856,note_off,,,,,304,0,9,,,,,,2,,69,0
15856,note_off,,,,,304,0,10,,,,,,3,,62,0
15904,note_off,,,,,64,0,7,,,,,,0,,79,0
15936,note_on,,,,,80,0,9,,,,,,2,,62,45
15936,note_on,,,,,32,0,7,,,,,,0,,78,81
15936,note_on,,,,,80,0,8,,,,,,1,,73,45
15936,note_on,,,,,80,0,10,,,,,,3,,62,45
16064,note_off,,,,,128,0,10,,,,,,3,,62,0
16064,note_off,,,,,128,0,7,,,,,,0,,78,0
16064,note_off,,,,,128,0,9,,,,,,2,,62,0
16064,note_off,,,,,128,0,8,,,,,,1,,73,0
16128,note_on,,,,,64,0,10,,,,,,3,,55,45
16128,note_on,,,,,64,0,9,,,,,,2,,62,45
16128,note_on,,,,,64,0,8,,,,,,1,,71,45
16128,note_on,,,,,64,0,7,,,,,,0,,79,82
16220,note_off,,,,,92,0,7,,,,,,0,,79,0
16224,note_on,,,,,4,0,7,,,,,,0,,81,82
16316,note_off,,,,,92,0,7,,,,,,0,,81,0
16320,note_on,,,,,4,0,7,,,,,,0,,83,82
16412,note_off,,,,,92,0,7,,,,,,0,,83,0
16416,note_on,,,,,4,0,7,,,,,,0,,79,81
16432,note_off,,,,,304,0,10,,,,,,3,,55,0
16432,note_off,,,,,304,0,8,,,,,,1,,71,0
16432,note_off,,,,,304,0,9,,,,,,2,,62,0
16508,note_off,,,,,92,0,7,,,,,,0,,79,0
16512,note_on,,,,,80,0,8,,,,,,1,,71,45
16512,note_on,,,,,80,0,10,,,,,,3,,55,45
16512,note_on,,,,,4,0,7,,,,,,0,,76,81
16512,note_on,,,,,80,0,9,,,,,,2,,71,45
16604,note_off,,,,,92,0,7,,,,,,0,,76,0
16608,note_on,,,,,4,0,7,,,,,,0,,75,80
16640,note_off,,,,,128,0,9,,,,,,2,,71,0
16640,note_off,,,,,128,0,10,,,,,,3,,55,0
16640,note_off,,,,,128,0,8,,,,,,1,,71,0
16672,note_off,,,,,64,0,7,,,,,,0,,75,0
16704,note_on,,,,,32,0,7,,,,,,0,,76,80
16704,note_on,,,,,64,0,9,,,,,,2,,76,45
16704,note_on,,,,,64,0,10,,,,,,3,,67,45
16704,note_on,,,,,64,0,8,,,,,,1,,71,45
16932,note_off,,,,,228,0,7,,,,,,0,,76,0
16992,note_on,,,,,60,0,7,,,,,,0,,78,78
17008,note_off,,,,,304,0,9,,,,,,2,,76,0
17008,note_off,,,,,304,0,8,,,,,,1,,71,0
17008,note_off,,,,,304,0,10,,,,,,3,,67,0
17056,note_off,,,,,64,0,7,,,,,,0,,78,0
17088,note_on,,,,,80,0,8,,,,,,1,,71,45
17088,note_on,,,,,32,0,7,,,,,,0,,76,78
17088,note_on,,,,,80,0,10,,,,,,3,,67,45
17088,note_on,,,,,80,0,9,,,,,,2,,71,45
17216,note_off,,,,,128,0,8,,,,,,1,,71,0
17216,note_off,,,,,128,0,7,,,,,,0,,76,0
17216,note_off,,,,,128,0,9,,,,,,2,,71,0
17216,note_off,,,,,128,0,10,,,,,,3,,67,0
17280,note_on,,,,,64,0,10,,,,,,3,,66,45
17280,note_on,,,,,64,0,8,,,,,,1,,73,45
17280,note_on,,,,,64,0,7,,,,,,0,,82,85
17280,note_on,,,,,64,0,9,,,,,,2,,70,45
17372,note_off,,,,,92,0,7,,,,,,0,,82,0
17376,note_on,,,,,4,0,7,,,,,,0,,83,85
17468,note_off,,,,,92,0,7,,,,,,0,,83,0
17472,note_on,,,,,4,0,7,,,,,,0,,85,85
17564,note_off,,,,,92,0,7,,,,,,0,,85,0
17568,note_on,,,,,4,0,7,,,,,,0,,82,85
17584,note_off,,,,,304,0,10,,,,,,3,,66,0
17584,note_off,,,,,304,0,9,,,,,,2,,70,0
17584,note_off,,,,,304,0,8,,,,,,1,,73,0
17660,note_off,,,,,92,0,7,,,,,,0,,82,0
17664,note_on,,,,,4,0,7,,,,,,0,,78,85
17664,note_on,,,,,80,0,9,,,,,,2,,70,45
17664,note_on,,,,,80,0,10,,,,,,3,,66,45
17664,note_on,,,,,80,0,8,,,,,,1,,73,45
17756,note_off,,,,,92,0,7,,,,,,0,,78,0
17760,note_on,,,,,4,0,7,,,,,,0,,76,85
17792,note_off,,,,,128,0,8,,,,,,1,,73,0
17792,note_off,,,,,128,0,10,,,,,,3,,66,0
17792,note_off,,,,,128,0,9,,,,,,2,,70,0
17824,note_off,,,,,64,0,7,,,,,,0,,76,0
17856,note_on,,,,,64,0,8,,,,,,1,,74,45
17856,note_on,,,,,64,0,10,,,,,,3,,59,45
17856,note_on,,,,,64,0,9,,,,,,2,,66,45
17856,note_on,,,,,32,0,7,,,,,,0,,74,85
17948,note_off,,,,,92,0,7,,,,,,0,,74,0
17952,note_on,,,,,4,0,7,,,,,,0,,86,90
18044,note_off,,,,,92,0,7,,,,,,0,,86,0
18048,note_on,,,,,4,0,7,,,,,,0,,83,90
18140,note_off,,,,,92,0,7,,,,,,0,,83,0
18144,note_on,,,,,4,0,7,,,,,,0,,81,89
18160,note_off,,,,,304,0,9,,,,,,2,,66,0
18160,note_off,,,,,304,0,8,,,,,,1,,74,0
18160,note_off,,,,,304,0,10,,,,,,3,,59,0
18236,note_off,,,,,92,0,7,,,,,,0,,81,0
18240,note_on,,,,,80,0,9,,,,,,2,,71,45
18240,note_on,,,,,4,0,7,,,,,,0,,80,88
18240,note_on,,,,,80,0,8,,,,,,1,,74,45
18240,note_on,,,,,80,0,10,,,,,,3,,59,45
18332,note_off,,,,,92,0,7,,,,,,0,,80,0
18336,note_on,,,,,4,0,7,,,,,,0,,78,87
18368,note_off,,,,,128,0,10,,,,,,3,,59,0
18368,note_off,,,,,128,0,9,,,,,,2,,71,0
18368,note_off,,,,,128,0,8,,,,,,1,,74,0
18400,note_off,,,,,64,0,7,,,,,,0,,78,0
18432,note_on,,,,,64,0,8,,,,,,1,,68,45
18432,note_on,,,,,32,0,7,,,,,,0,,77,90
18432,note_on,,,,,64,0,10,,,,,,3,,61,45
18432,note_on,,,,,64,0,9,,,,,,2,,71,45
18736,note_off,,,,,304,0,8,,,,,,1,,68,0
18736,note_off,,,,,304,0,10,,,,,,3,,61,0
18736,note_off,,,,,304,0,9,,,,,,2,,71,0
18812,note_off,,,,,380,0,7,,,,,,0,,77,0
18816,note_on,,,,,80,0,8,,,,,,1,,73,45
18816,note_on,,,,,4,0,7,,,,,,0,,78,86
18816,note_on,,,,,80,0,10,,,,,,3,,54,45
18816,note_on,,,,,80,0,9,,,,,,2,,69,45
18944,note_off,,,,,128,0,9,,,,,,2,,69,0
18944,note_off,,,,,128,0,10,,,,,,3,,54,0
18944,note_off,,,,,128,0,7,,,,,,0,,78,0
18944,note_off,,,,,128,0,8,,,,,,1,,73,0
19008,note_on,,,,,64,0,9,,,,,,2,,68,45
19008,note_on,,,,,64,0,10,,,,,,3,,61,45
19008,note_on,,,,,64,0,8,,,,,,1,,65,45
19008,note_on,,,,,64,0,7,,,,,,0,,83,87
19100,note_off,,,,,92,0,7,,,,,,0,,83,0
19104,note_on,,,,,4,0,7,,,,,,0,,81,86
19196,note_off,,,,,92,0,7,,,,,,0,,81,0
19200,note_on,,,,,4,0,7,,,,,,0,,80,85
19292,note_off,,,,,92,0,7,,,,,,0,,80,0
19296,note_on,,,,,4,0,7,,,,,,0,,78,84
19312,note_off,,,,,304,0,9,,,,,,2,,68,0
19312,note_off,,,,,304,0,8,,,,,,1,,65,0
19312,note_off,,,,,304,0,10,,,,,,3,,61,0
19388,note_off,,,,,92,0,7,,,,,,0,,78,0
19392,note_on,,,,,80,0,8,,,,,,1,,73,45
19392,note_on,,,,,80,0,9,,,,,,2,,68,45
19392,note_on,,,,,4,0,7,,,,,,0,,77,83
19392,note_on,,,,,80,0,10,,,,,,3,,61,45
19484,note_off,,,,,92,0,7,,,,,,0,,77,0
19488,note_on,,,,,4,0,7,,,,,,0,,78,82
19520,note_off,,,,,128,0,10,,,,,,3,,61,0
19520,note_off,,,,,128,0,8,,,,,,1,,73,0
19520,note_off,,,,,128,0,9,,,,,,2,,68,0
19552,note_off,,,,,64,0,7,,,,,,0,,78,0
19584,note_on,,,,,64,0,10,,,,,,3,,66,45
19584,note_on,,,,,32,0,7,,,,,,0,,78,81
19584,note_on,,,,,64,0,8,,,,,,1,,73,45
19584,note_on,,,,,64,0,9,,,,,,2,,69,45
19888,note_off,,,,,304,0,8,,,,,,1,,73,0
19888,note_off,,,,,304,0,10,,,,,,3,,66,0
19888,note_off,,,,,304,0,9,,,,,,2,,69,0
19968,note_on,,,,,80,0,8,,,,,,1,,69,47
19968,note_on,,,,,80,0,9,,,,,,2,,66,47
19968,note_on,,,,,80,0,10,,,,,,3,,66,47
20096,note_off,,,,,128,0,8,,,,,,1,,69,0
20096,note_off,,,,,128,0,9,,,,,,2,,66,0
20096,note_off,,,,,128,0,10,,,,,,3,,66,0
20160,note_on,,,,,64,0,8,,,,,,1,,70,49
20160,note_on,,,,,64,0,9,,,,,,2,,66,49
20160,note_on,,,,,64,0,10,,,,,,3,,64,49
20464,note_off,,,,,304,0,10,,,,,,3,,64,0
20464,note_off,,,,,304,0,8,,,,,,1,,70,0
20464,note_off,,,,,304,0,9,,,,,,2,,66,0
20504,note_off,,,,,920,0,7,,,,,,0,,78,0
20544,note_on,,,,,80,0,10,,,,,,3,,64,48
20544,note_on,,,,,80,0,8,,,,,,1,,70,48
20544,note_on,,,,,80,0,9,,,,,,2,,66,48
20672,note_off,,,,,128,0,9,,,,,,2,,66,0
20672,note_off,,,,,128,0,8,,,,,,1,,70,0
20672,note_off,,,,,128,0,10,,,,,,3,,64,0
20736,note_on,,,,,232,0,7,,,,,,0,,78,85
20736,note_on,,,,,64,0,8,,,,,,1,,71,45
20736,note_on,,,,,64,0,9,,,,,,2,,66,45
20736,note_on,,,,,64,0,10,,,,,,3,,63,45
20964,note_off,,,,,228,0,7,,,,,,0,,78,0
21024,note_on,,,,,60,0,7,,,,,,0,,79,85
21040,note_off,,,,,304,0,9,,,,,,2,,66,0
21040,note_off,,,,,304,0,10,,,,,,3,,63,0
21040,note_off,,,,,304,0,8,,,,,,1,,71,0
21088,note_off,,,,,64,0,7,,,,,,0,,79,0
21120,note_on,,,,,80,0,9,,,,,,2,,66,45
21120,note_on,,,,,80,0,8,,,,,,1,,71,45
21120,note_on,,,,,32,0,7,,,,,,0,,78,85
21120,note_on,,,,,80,0,10,,,,,,3,,63,45
21248,note_off,,,,,128,0,8,,,,,,1,,71,0
21248,note_off,,,,,128,0,10,,,,,,3,,63,0
21248,note_off,,,,,128,0,9,,,,,,2,,66,0
21248,note_off,,,,,128,0,7,,,,,,0,,78,0
21312,note_on,,,,,64,0,9,,,,,,2,,66,45
21312,note_on,,,,,64,0,8,,,,,,1,,71,45
21312,note_on,,,,,64,0,10,,,,,,3,,63,45
21312,note_on,,,,,64,0,7,,,,,,0,,71,85
21404,note_off,,,,,92,0,7,,,,,,0,,71,0
21408,note_on,,,,,4,0,7,,,,,,0,,75,85
21500,note_off,,,,,92,0,7,,,,,,0,,75,0
21504,note_on,,,,,4,0,7,,,,,,0,,78,84
21596,note_off,,,,,92,0,7,,,,,,0,,78,0
21600,note_on,,,,,4,0,7,,,,,,0,,79,83
21616,note_off,,,,,304,0,8,,,,,,1,,71,0
21616,note_off,,,,,304,0,9,,,,,,2,,66,0
21616,note_off,,,,,304,0,10,,,,,,3,,63,0
21692,note_off,,,,,92,0,7,,,,,,0,,79,0
21696,note_on,,,,,80,0,9,,,,,,2,,66,45
21696,note_on,,,,,80,0,10,,,,,,3,,63,45
21696,note_on,,,,,80,0,8,,,,,,1,,71,45
21696,note_on,,,,,4,0,7,,,,,,0,,81,82
21788,note_off,,,,,92,0,7,,,,,,0,,81,0
21792,note_on,,,,,4,0,7,,,,,,0,,83,81
21824,note_off,,,,,128,0,10,,,,,,3,,63,0
21824,note_off,,,,,128,0,9,,,,,,2,,66,0
21824,note_off,,,,,128,0,8,,,,,,1,,71,0
21856,note_off,,,,,64,0,7,,,,,,0,,83,0
21888,note_on,,,,,64,0,10,,,,,,3,,64,45
21888,note_on,,,,,32,0,7,,,,,,0,,79,85
21888,note_on,,,,,64,0,8,,,,,,1,,71,45
21888,note_on,,,,,64,0,9,,,,,,2,,67,45
22116,note_off,,,,,228,0,7,,,,,,0,,79,0
22176,note_on,,,,,60,0,7,,,,,,0,,81,85
22192,note_off,,,,,304,0,8,,,,,,1,,71,0
22192,note_off,,,,,304,0,10,,,,,,3,,64,0
22192,note_off,,,,,304,0,9,,,,,,2,,67,0
22240,note_off,,,,,64,0,7,,,,,,0,,81,0
22272,note_on,,,,,80,0,10,,,,,,3,,64,45
22272,note_on,,,,,32,0,7,,,,,,0,,79,85
22272,note_on,,,,,80,0,8,,,,,,1,,71,45
22272,note_on,,,,,80,0,9,,,,,,2,,67,45
22400,note_off,,,,,128,0,10,,,,,,3,,64,0
22400,note_off,,,,,128,0,9,,,,,,2,,67,0
22400,note_off,,,,,128,0,8,,,,,,1,,71,0
22400,note_off,,,,,128,0,7,,,,,,0,,79,0
22464,note_on,,,,,64,0,8,,,,,,1,,71,45
22464,note_on,,,,,64,0,10,,,,,,3,,64,45
22464,note_on,,,,,64,0,7,,,,,,0,,64,85
22464,note_on,,,,,64,0,9,,,,,,2,,67,45
22556,note_off,,,,,92,0,7,,,,,,0,,64,0
22560,note_on,,,,,4,0,7,,,,,,0,,67,85
22652,note_off,,,,,92,0,7,,,,,,0,,67,0
22656,note_on,,,,,4,0,7,,,,,,0,,71,84
22748,note_off,,,,,92,0,7,,,,,,0,,71,0
22752,note_on,,,,,4,0,7,,,,,,0,,76,83
22768,note_off,,,,,304,0,8,,,,,,1,,71,0
22768,note_off,,,,,304,0,9,,,,,,2,,67,0
22768,note_off,,,,,304,0,10,,,,,,3,,64,0
22844,note_off,,,,,92,0,7,,,,,,0,,76,0
22848,note_on,,,,,80,0,9,,,,,,2,,67,45
22848,note_on,,,,,80,0,10,,,,,,3,,64,45
22848,note_on,,,,,4,0,7,,,,,,0,,79,82
22848,note_on,,,,,80,0,8,,,,,,1,,71,45
22940,note_off,,,,,92,0,7,,,,,,0,,79,0
22944,note_on,,,,,4,0,7,,,,,,0,,83,81
22976,note_off,,,,,128,0,9,,,,,,2,,67,0
22976,note_off,,,,,128,0,8,,,,,,1,,71,0
22976,note_off,,,,,128,0,10,,,,,,3,,64,0
23008,note_off,,,,,64,0,7,,,,,,0,,83,0
23040,note_on,,,,,64,0,9,,,,,,2,,64,45
23040,note_on,,,,,32,0,7,,,,,,0,,73,85
23040,note_on,,,,,64,0,8,,,,,,1,,73,45
23040,note_on,,,,,64,0,10,,,,,,3,,57,45
23268,note_off,,,,,228,0,7,,,,,,0,,73,0
23328,note_on,,,,,60,0,7,,,,,,0,,74,85
23344,note_off,,,,,304,0,10,,,,,,3,,57,0
23344,note_off,,,,,304,0,9,,,,,,2,,64,0
23344,note_off,,,,,304,0,8,,,,,,1,,73,0
23392,note_off,,,,,64,0,7,,,,,,0,,74,0
23424,note_on,,,,,80,0,9,,,,,,2,,64,45
23424,note_on,,,,,80,0,10,,,,,,3,,57,45
23424,note_on,,,,,32,0,7,,,,,,0,,73,85
23424,note_on,,,,,80,0,8,,,,,,1,,73,45
23552,note_off,,,,,128,0,7,,,,,,0,,73,0
23552,note_off,,,,,128,0,10,,,,,,3,,57,0
23552,note_off,,,,,128,0,8,,,,,,1,,73,0
23552,note_off,,,,,128,0,9,,,,,,2,,64,0
23616,note_on,,,,,64,0,10,,,,,,3,,57,45
23616,note_on,,,,,64,0,8,,,,,,1,,73,45
23616,note_on,,,,,64,0,9,,,,,,2,,64,45
23616,note_on,,,,,64,0,7,,,,,,0,,69,85
23708,note_off,,,,,92,0,7,,,,,,0,,69,0
23712,note_on,,,,,4,0,7,,,,,,0,,73,85
23804,note_off,,,,,92,0,7,,,,,,0,,73,0
23808,note_on,,,,,4,0,7,,,,,,0,,76,84
23900,note_off,,,,,92,0,7,,,,,,0,,76,0
23904,note_on,,,,,4,0,7,,,,,,0,,78,83
23920,note_off,,,,,304,0,8,,,,,,1,,73,0
23920,note_off,,,,,304,0,9,,,,,,2,,64,0
23920,note_off,,,,,304,0,10,,,,,,3,,57,0
23996,note_off,,,,,92,0,7,,,,,,0,,78,0
24000,note_on,,,,,80,0,8,,,,,,1,,73,45
24000,note_on,,,,,4,0,7,,,,,,0,,79,82
24000,note_on,,,,,80,0,9,,,,,,2,,64,45
24000,note_on,,,,,80,0,10,,,,,,3,,57,45
24092,note_off,,,,,92,0,7,,,,,,0,,79,0
24096,note_on,,,,,4,0,7,,,,,,0,,81,81
24128,note_off,,,,,128,0,8,,,,,,1,,73,0
24128,note_off,,,,,128,0,9,,,,,,2,,64,0
24128,note_off,,,,,128,0,10,,,,,,3,,57,0
24160,note_off,,,,,64,0,7,,,,,,0,,81,0
24192,note_on,,,,,64,0,9,,,,,,2,,66,45
24192,note_on,,,,,64,0,8,,,,,,1,,69,45
24192,note_on,,,,,32,0,7,,,,,,0,,78,85
24192,note_on,,,,,64,0,10,,,,,,3,,62,45
24420,note_off,,,,,228,0,7,,,,,,0,,78,0
24480,note_on,,,,,60,0,7,,,,,,0,,79,83
24496,note_off,,,,,304,0,10,,,,,,3,,62,0
24496,note_off,,,,,304,0,8,,,,,,1,,69,0
24496,note_off,,,,,304,0,9,,,,,,2,,66,0
24544,note_off,,,,,64,0,7,,,,,,0,,79,0
24576,note_on,,,,,80,0,9,,,,,,2,,66,45
24576,note_on,,,,,80,0,10,,,,,,3,,62,45
24576,note_on,,,,,32,0,7,,,,,,0,,78,82
24576,note_on,,,,,80,0,8,,,,,,1,,69,45
24704,note_off,,,,,128,0,9,,,,,,2,,66,0
24704,note_off,,,,,128,0,7,,,,,,0,,78,0
24704,note_off,,,,,128,0,10,,,,,,3,,62,0
24704,note_off,,,,,128,0,8,,,,,,1,,69,0
24768,note_on,,,,,64,0,8,,,,,,1,,71,45
24768,note_on,,,,,64,0,10,,,,,,3,,62,45
24768,note_on,,,,,64,0,9,,,,,,2,,66,45
24768,note_on,,,,,64,0,7,,,,,,0,,78,81
24896,note_off,,,,,128,0,7,,,,,,0,,78,0
24960,note_on,,,,,64,0,7,,,,,,0,,76,82
25052,note_off,,,,,92,0,7,,,,,,0,,76,0
25056,note_on,,,,,4,0,7,,,,,,0,,74,83
25072,note_off,,,,,304,0,8,,,,,,1,,71,0
25072,note_off,,,,,304,0,10,,,,,,3,,62,0
25072,note_off,,,,,304,0,9,,,,,,2,,66,0
25120,note_off,,,,,64,0,7,,,,,,0,,74,0
25152,note_on,,,,,80,0,8,,,,,,1,,71,45
25152,note_on,,,,,80,0,9,,,,,,2,,66,45
25152,note_on,,,,,32,0,7,,,,,,0,,73,84
25152,note_on,,,,,80,0,10,,,,,,3,,62,45
25244,note_off,,,,,92,0,7,,,,,,0,,73,0
25248,note_on,,,,,4,0,7,,,,,,0,,71,84
25280,note_off,,,,,128,0,10,,,,,,3,,62,0
25280,note_off,,,,,128,0,9,,,,,,2,,66,0
25280,note_off,,,,,128,0,8,,,,,,1,,71,0
25312,note_off,,,,,64,0,7,,,,,,0,,71,0
25344,note_on,,,,,64,0,9,,,,,,2,,64,45
25344,note_on,,,,,64,0,8,,,,,,1,,67,45
25344,note_on,,,,,32,0,7,,,,,,0,,71,89
25344,note_on,,,,,64,0,10,,,,,,3,,64,45
25532,note_off,,,,,188,0,7,,,,,,0,,71,0
25536,note_on,,,,,4,0,7,,,,,,0,,72,83
25648,note_off,,,,,304,0,8,,,,,,1,,67,0
25648,note_off,,,,,304,0,9,,,,,,2,,64,0
25648,note_off,,,,,304,0,10,,,,,,3,,64,0
25664,note_off,,,,,128,0,7,,,,,,0,,72,0
25728,note_on,,,,,80,0,8,,,,,,1,,71,45
25728,note_on,,,,,80,0,9,,,,,,2,,66,45
25728,note_on,,,,,80,0,10,,,,,,3,,62,45
25728,note_on,,,,,64,0,7,,,,,,0,,71,81
25856,note_off,,,,,128,0,7,,,,,,0,,71,0
25856,note_off,,,,,128,0,8,,,,,,1,,71,0
25856,note_off,,,,,128,0,9,,,,,,2,,66,0
25856,note_off,,,,,128,0,10,,,,,,3,,62,0
25920,note_on,,,,,64,0,8,,,,,,1,,74,45
25920,note_on,,,,,64,0,9,,,,,,2,,71,45
25920,note_on,,,,,64,0,10,,,,,,3,,59,45
25920,note_on,,,,,64,0,7,,,,,,0,,78,80
26048,note_off,,,,,128,0,7,,,,,,0,,78,0
26112,note_on,,,,,64,0,7,,,,,,0,,76,81
26204,note_off,,,,,92,0,7,,,,,,0,,76,0
26208,note_on,,,,,4,0,7,,,,,,0,,74,82
26224,note_off,,,,,304,0,9,,,,,,2,,71,0
26224,note_off,,,,,304,0,8,,,,,,1,,74,0
26224,note_off,,,,,304,0,10,,,,,,3,,59,0
26272,note_off,,,,,64,0,7,,,,,,0,,74,0
26304,note_on,,,,,32,0,7,,,,,,0,,73,83
26304,note_on,,,,,80,0,9,,,,,,2,,74,45
26304,note_on,,,,,80,0,10,,,,,,3,,59,45
26304,note_on,,,,,80,0,8,,,,,,1,,78,45
26396,note_off,,,,,92,0,7,,,,,,0,,73,0
26400,note_on,,,,,4,0,7,,,,,,0,,71,84
26432,note_off,,,,,128,0,8,,,,,,1,,78,0
26432,note_off,,,,,128,0,9,,,,,,2,,74,0
26432,note_off,,,,,128,0,10,,,,,,3,,59,0
26464,note_off,,,,,64,0,7,,,,,,0,,71,0
26496,note_on,,,,,32,0,7,,,,,,0,,71,87
26496,note_on,,,,,64,0,10,,,,,,3,,64,45
26496,note_on,,,,,64,0,9,,,,,,2,,71,45
26496,note_on,,,,,64,0,8,,,,,,1,,76,45
26684,note_off,,,,,188,0,7,,,,,,0,,71,0
26688,note_on,,,,,4,0,7,,,,,,0,,79,83
26800,note_off,,,,,304,0,10,,,,,,3,,64,0
26800,note_off,,,,,304,0,8,,,,,,1,,76,0
26800,note_off,,,,,304,0,9,,,,,,2,,71,0
26816,note_off,,,,,128,0,7,,,,,,0,,79,0
26880,note_on,,,,,80,0,8,,,,,,1,,74,45
26880,note_on,,,,,80,0,9,,,,,,2,,71,45
26880,note_on,,,,,64,0,7,,,,,,0,,78,81
26880,note_on,,,,,80,0,10,,,,,,3,,59,45
27008,note_off,,,,,128,0,8,,,,,,1,,74,0
27008,note_off,,,,,128,0,9,,,,,,2,,71,0
27008,note_off,,,,,128,0,7,,,,,,0,,78,0
27008,note_off,,,,,128,0,10,,,,,,3,,59,0
27072,note_on,,,,,64,0,9,,,,,,2,,71,45
27072,note_on,,,,,64,0,7,,,,,,0,,83,85
27072,note_on,,,,,64,0,10,,,,,,3,,67,45
27072,note_on,,,,,64,0,8,,,,,,1,,76,45
27200,note_off,,,,,128,0,7,,,,,,0,,83,0
27264,note_on,,,,,64,0,7,,,,,,0,,81,84
27356,note_off,,,,,92,0,7,,,,,,0,,81,0
27360,note_on,,,,,4,0,7,,,,,,0,,79,83
27376,note_off,,,,,304,0,10,,,,,,3,,67,0
27376,note_off,,,,,304,0,8,,,,,,1,,76,0
27376,note_off,,,,,304,0,9,,,,,,2,,71,0
27424,note_off,,,,,64,0,7,,,,,,0,,79,0
27456,note_on,,,,,80,0,8,,,,,,1,,76,45
27456,note_on,,,,,32,0,7,,,,,,0,,78,82
27456,note_on,,,,,80,0,9,,,,,,2,,71,45
27456,note_on,,,,,80,0,10,,,,,,3,,67,45
27548,note_off,,,,,92,0,7,,,,,,0,,78,0
27552,note_on,,,,,4,0,7,,,,,,0,,76,81
27584,note_off,,,,,128,0,8,,,,,,1,,76,0
27584,note_off,,,,,128,0,9,,,,,,2,,71,0
27584,note_off,,,,,128,0,10,,,,,,3,,67,0
27616,note_off,,,,,64,0,7,,,,,,0,,76,0
27648,note_on,,,,,64,0,8,,,,,,1,,76,45
27648,note_on,,,,,32,0,7,,,,,,0,,85,88
27648,note_on,,,,,64,0,10,,,,,,3,,58,45
27648,note_on,,,,,64,0,9,,,,,,2,,66,45
27776,note_off,,,,,128,0,7,,,,,,0,,85,0
27840,note_on,,,,,64,0,7,,,,,,0,,83,86
27932,note_off,,,,,92,0,7,,,,,,0,,83,0
27936,note_on,,,,,4,0,7,,,,,,0,,82,85
27952,note_off,,,,,304,0,10,,,,,,3,,58,0
27952,note_off,,,,,304,0,9,,,,,,2,,66,0
27952,note_off,,,,,304,0,8,,,,,,1,,76,0
28000,note_off,,,,,64,0,7,,,,,,0,,82,0
28032,note_on,,,,,32,0,7,,,,,,0,,79,84
28032,note_on,,,,,80,0,10,,,,,,3,,58,45
28032,note_on,,,,,80,0,8,,,,,,1,,76,45
28032,note_on,,,,,80,0,9,,,,,,2,,66,45
28124,note_off,,,,,92,0,7,,,,,,0,,79,0
28128,note_on,,,,,4,0,7,,,,,,0,,78,83
28160,note_off,,,,,128,0,8,,,,,,1,,76,0
28160,note_off,,,,,128,0,10,,,,,,3,,58,0
28160,note_off,,,,,128,0,9,,,,,,2,,66,0
28192,note_off,,,,,64,0,7,,,,,,0,,78,0
28224,note_on,,,,,64,0,10,,,,,,3,,59,45
28224,note_on,,,,,64,0,9,,,,,,2,,66,45
28224,note_on,,,,,64,0,8,,,,,,1,,74,45
28224,note_on,,,,,32,0,7,,,,,,0,,86,90
28352,note_off,,,,,128,0,7,,,,,,0,,86,0
28416,note_on,,,,,64,0,7,,,,,,0,,85,89
28508,note_off,,,,,92,0,7,,,,,,0,,85,0
28512,note_on,,,,,4,0,7,,,,,,0,,83,88
28528,note_off,,,,,304,0,9,,,,,,2,,66,0
28528,note_off,,,,,304,0,10,,,,,,3,,59,0
28528,note_off,,,,,304,0,8,,,,,,1,,74,0
28576,note_off,,,,,64,0,7,,,,,,0,,83,0
28608,note_on,,,,,80,0,8,,,,,,1,,74,45
28608,note_on,,,,,32,0,7,,,,,,0,,82,87
28608,note_on,,,,,80,0,10,,,,,,3,,59,45
28608,note_on,,,,,80,0,9,,,,,,2,,66,45
28700,note_off,,,,,92,0,7,,,,,,0,,82,0
28704,note_on,,,,,4,0,7,,,,,,0,,80,86
28736,note_off,,,,,128,0,8,,,,,,1,,74,0
28736,note_off,,,,,128,0,9,,,,,,2,,66,0
28736,note_off,,,,,128,0,10,,,,,,3,,59,0
28768,note_off,,,,,64,0,7,,,,,,0,,80,0
28800,note_on,,,,,64,0,9,,,,,,2,,66,45
28800,note_on,,,,,64,0,8,,,,,,1,,74,45
28800,note_on,,,,,32,0,7,,,,,,0,,78,86
28800,note_on,,,,,64,0,10,,,,,,3,,59,45
29056,note_off,,,,,256,0,7,,,,,,0,,78,0
29104,note_off,,,,,304,0,8,,,,,,1,,74,0
29104,note_off,,,,,304,0,9,,,,,,2,,66,0
29104,note_off,,,,,304,0,10,,,,,,3,,59,0
29184,note_on,,,,,80,0,8,,,,,,1,,74,45
29184,note_on,,,,,80,0,9,,,,,,2,,66,45
29184,note_on,,,,,80,0,10,,,,,,3,,62,45
29184,note_on,,,,,128,0,7,,,,,,0,,83,88
29312,note_off,,,,,128,0,7,,,,,,0,,83,0
29312,note_off,,,,,128,0,10,,,,,,3,,62,0
29312,note_off,,,,,128,0,8,,,,,,1,,74,0
29312,note_off,,,,,128,0,9,,,,,,2,,66,0
29376,note_on,,,,,64,0,9,,,,,,2,,67,45
29376,note_on,,,,,64,0,7,,,,,,0,,84,88
29376,note_on,,,,,64,0,8,,,,,,1,,72,45
29376,note_on,,,,,64,0,10,,,,,,3,,64,45
29564,note_off,,,,,188,0,7,,,,,,0,,84,0
29568,note_on,,,,,4,0,7,,,,,,0,,83,87
29680,note_off,,,,,304,0,10,,,,,,3,,64,0
29680,note_off,,,,,304,0,9,,,,,,2,,67,0
29680,note_off,,,,,304,0,8,,,,,,1,,72,0
29756,note_off,,,,,188,0,7,,,,,,0,,83,0
29760,note_on,,,,,80,0,8,,,,,,1,,73,45
29760,note_on,,,,,80,0,9,,,,,,2,,66,45
29760,note_on,,,,,4,0,7,,,,,,0,,82,85
29760,note_on,,,,,80,0,10,,,,,,3,,66,45
29888,note_off,,,,,128,0,8,,,,,,1,,73,0
29888,note_off,,,,,128,0,9,,,,,,2,,66,0
29888,note_off,,,,,128,0,10,,,,,,3,,66,0
29948,note_off,,,,,188,0,7,,,,,,0,,82,0
29952,note_on,,,,,64,0,8,,,,,,1,,74,45
29952,note_on,,,,,64,0,9,,,,,,2,,66,45
29952,note_on,,,,,64,0,10,,,,,,3,,59,45
29952,note_on,,,,,4,0,7,,,,,,0,,83,84
30256,note_off,,,,,304,0,8,,,,,,1,,74,0
30256,note_off,,,,,304,0,10,,,,,,3,,59,0
30256,note_off,,,,,304,0,9,,,,,,2,,66,0
30336,note_on,,,,,80,0,9,,,,,,2,,66,45
30336,note_on,,,,,80,0,8,,,,,,1,,74,45
30336,note_on,,,,,80,0,10,,,,,,3,,59,45
30464,note_off,,,,,128,0,8,,,,,,1,,74,0
30464,note_off,,,,,128,0,9,,,,,,2,,66,0
30464,note_off,,,,,128,0,10,,,,,,3,,59,0
30528,note_on,,,,,64,0,8,,,,,,1,,74,45
30528,note_on,,,,,64,0,9,,,,,,2,,66,45
30528,note_on,,,,,64,0,10,,,,,,3,,59,45
30832,note_off,,,,,304,0,10,,,,,,3,,59,0
30832,note_off,,,,,304,0,9,,,,,,2,,66,0
30832,note_off,,,,,304,0,8,,,,,,1,,74,0
30872,note_off,,,,,920,0,7,,,,,,0,,83,0
30912,note_on,,,,,80,0,9,,,,,,2,,66,45
30912,note_on,,,,,80,0,8,,,,,,1,,74,45
30912,note_on,,,,,80,0,10,,,,,,3,,59,45
31040,note_off,,,,,128,0,9,,,,,,2,,66,0
31040,note_off,,,,,128,0,8,,,,,,1,,74,0
31040,note_off,,,,,128,0,10,,,,,,3,,59,0
31104,note_on,,,,,64,0,9,,,,,,2,,67,45
31104,note_on,,,,,232,0,7,,,,,,0,,83,85
31104,note_on,,,,,64,0,8,,,,,,1,,71,45
31104,note_on,,,,,64,0,10,,,,,,3,,64,45
31196,note_off,,,,,92,0,7,,,,,,0,,83,0
31200,note_on,,,,,4,0,7,,,,,,0,,76,85
31292,note_off,,,,,92,0,7,,,,,,0,,76,0
31296,note_on,,,,,4,0,7,,,,,,0,,75,84
31388,note_off,,,,,92,0,7,,,,,,0,,75,0
31392,note_on,,,,,0,0,7,,,,,,0,,76,83
31392,note_on,,,,,4,0,7,,,,,,0,,76,83
31408,note_off,,,,,304,0,9,,,,,,2,,67,0
31408,note_off,,,,,304,0,10,,,,,,3,,64,0
31408,note_off,,,,,304,0,8,,,,,,1,,71,0
31456,note_off,,,,,64,0,7,,,,,,0,,76,0
31484,note_off,,,,,28,0,7,,,,,,0,,76,0
31488,note_on,,,,,4,0,7,,,,,,0,,83,83
31488,note_on,,,,,80,0,9,,,,,,2,,67,45
31488,note_on,,,,,80,0,10,,,,,,3,,64,45
31488,note_on,,,,,80,0,8,,,,,,1,,71,45
31616,note_off,,,,,128,0,9,,,,,,2,,67,0
31616,note_off,,,,,128,0,10,,,,,,3,,64,0
31616,note_off,,,,,128,0,8,,,,,,1,,71,0
31616,note_off,,,,,128,0,7,,,,,,0,,83,0
31680,note_on,,,,,64,0,8,,,,,,1,,71,45
31680,note_on,,,,,64,0,7,,,,,,0,,83,80
31680,note_on,,,,,64,0,10,,,,,,3,,64,45
31680,note_on,,,,,64,0,9,,,,,,2,,67,45
31772,note_off,,,,,92,0,7,,,,,,0,,83,0
31776,note_on,,,,,4,0,7,,,,,,0,,76,80
31868,note_off,,,,,92,0,7,,,,,,0,,76,0
31872,note_on,,,,,4,0,7,,,,,,0,,75,81
31964,note_off,,,,,92,0,7,,,,,,0,,75,0
31968,note_on,,,,,4,0,7,,,,,,0,,76,81
31968,note_on,,,,,0,0,7,,,,,,0,,76,81
31984,note_off,,,,,304,0,9,,,,,,2,,67,0
31984,note_off,,,,,304,0,10,,,,,,3,,64,0
31984,note_off,,,,,304,0,8,,,,,,1,,71,0
32032,note_off,,,,,64,0,7,,,,,,0,,76,0
32060,note_off,,,,,28,0,7,,,,,,0,,76,0
32064,note_on,,,,,4,0,7,,,,,,0,,84,82
32064,note_on,,,,,80,0,9,,,,,,2,,67,45
32064,note_on,,,,,80,0,8,,,,,,1,,76,45
32064,note_on,,,,,80,0,10,,,,,,3,,64,45
32192,note_off,,,,,128,0,7,,,,,,0,,84,0
32192,note_off,,,,,128,0,9,,,,,,2,,67,0
32192,note_off,,,,,128,0,10,,,,,,3,,64,0
32192,note_off,,,,,128,0,8,,,,,,1,,76,0
32256,note_on,,,,,64,0,9,,,,,,2,,67,45
32256,note_on,,,,,64,0,8,,,,,,1,,72,45
32256,note_on,,,,,64,0,7,,,,,,0,,84,83
32256,note_on,,,,,64,0,10,,,,,,3,,64,45
32348,note_off,,,,,92,0,7,,,,,,0,,84,0
32352,note_on,,,,,4,0,7,,,,,,0,,76,84
32444,note_off,,,,,92,0,7,,,,,,0,,76,0
32448,note_on,,,,,4,0,7,,,,,,0,,75,84
32540,note_off,,,,,92,0,7,,,,,,0,,75,0
32544,note_on,,,,,4,0,7,,,,,,0,,76,85
32544,note_on,,,,,0,0,7,,,,,,0,,76,85
32560,note_off,,,,,304,0,9,,,,,,2,,67,0
32560,note_off,,,,,304,0,10,,,,,,3,,64,0
32560,note_off,,,,,304,0,8,,,,,,1,,72,0
32608,note_off,,,,,64,0,7,,,,,,0,,76,0
32636,note_off,,,,,28,0,7,,,,,,0,,76,0
32640,note_on,,,,,4,0,7,,,,,,0,,84,86
32640,note_on,,,,,80,0,8,,,,,,1,,72,45
32640,note_on,,,,,80,0,10,,,,,,3,,64,45
32640,note_on,,,,,80,0,9,,,,,,2,,67,45
32768,note_off,,,,,128,0,9,,,,,,2,,67,0
32768,note_off,,,,,128,0,8,,,,,,1,,72,0
32768,note_off,,,,,128,0,7,,,,,,0,,84,0
32768,note_off,,,,,128,0,10,,,,,,3,,64,0
32832,note_on,,,,,64,0,9,,,,,,2,,67,45
32832,note_on,,,,,64,0,10,,,,,,3,,64,45
32832,note_on,,,,,64,0,7,,,,,,0,,84,87
32832,note_on,,,,,64,0,8,,,,,,1,,72,45
32924,note_off,,,,,92,0,7,,,,,,0,,84,0
32928,note_on,,,,,4,0,7,,,,,,0,,76,88
33020,note_off,,,,,92,0,7,,,,,,0,,76,0
33024,note_on,,,,,4,0,7,,,,,,0,,75,88
33116,note_off,,,,,92,0,7,,,,,,0,,75,0
33120,note_on,,,,,4,0,7,,,,,,0,,76,89
33120,note_on,,,,,0,0,7,,,,,,0,,76,89
33136,note_off,,,,,304,0,8,,,,,,1,,72,0
33136,note_off,,,,,304,0,10,,,,,,3,,64,0
33136,note_off,,,,,304,0,9,,,,,,2,,67,0
33184,note_off,,,,,64,0,7,,,,,,0,,76,0
33212,note_off,,,,,28,0,7,,,,,,0,,76,0
33216,note_on,,,,,4,0,7,,,,,,0,,84,89
33216,note_on,,,,,80,0,8,,,,,,1,,72,45
33216,note_on,,,,,80,0,9,,,,,,2,,67,45
33216,note_on,,,,,80,0,10,,,,,,3,,64,45
33344,note_off,,,,,128,0,8,,,,,,1,,72,0
33344,note_off,,,,,128,0,10,,,,,,3,,64,0
33344,note_off,,,,,128,0,7,,,,,,0,,84,0
33344,note_off,,,,,128,0,9,,,,,,2,,67,0
33408,note_on,,,,,64,0,9,,,,,,2,,70,45
33408,note_on,,,,,64,0,8,,,,,,1,,73,45
33408,note_on,,,,,64,0,10,,,,,,3,,66,45
33408,note_on,,,,,64,0,7,,,,,,0,,88,91
33712,note_off,,,,,304,0,9,,,,,,2,,70,0
33712,note_off,,,,,304,0,8,,,,,,1,,73,0
33712,note_off,,,,,304,0,10,,,,,,3,,66,0
33792,note_on,,,,,80,0,10,,,,,,3,,66,45
33792,note_on,,,,,80,0,8,,,,,,1,,73,45
33792,note_on,,,,,80,0,9,,,,,,2,,70,45
33920,note_off,,,,,128,0,8,,,,,,1,,73,0
33920,note_off,,,,,128,0,9,,,,,,2,,70,0
33920,note_off,,,,,128,0,10,,,,,,3,,66,0
33984,note_on,,,,,64,0,10,,,,,,3,,66,45
33984,note_on,,,,,64,0,8,,,,,,1,,73,45
33984,note_on,,,,,64,0,9,,,,,,2,,70,45
34020,note_off,,,,,612,0,7,,,,,,0,,88,0
34080,note_on,,,,,60,0,7,,,,,,0,,86,87
34172,note_off,,,,,92,0,7,,,,,,0,,86,0
34176,note_on,,,,,4,0,7,,,,,,0,,85,86
34268,note_off,,,,,92,0,7,,,,,,0,,85,0
34272,note_on,,,,,4,0,7,,,,,,0,,83,85
34288,note_off,,,,,304,0,9,,,,,,2,,70,0
34288,note_off,,,,,304,0,8,,,,,,1,,73,0
34288,note_off,,,,,304,0,10,,,,,,3,,66,0
34364,note_off,,,,,92,0,7,,,,,,0,,83,0
34368,note_on,,,,,80,0,9,,,,,,2,,70,45
34368,note_on,,,,,80,0,8,,,,,,1,,73,45
34368,note_on,,,,,4,0,7,,,,,,0,,82,84
34368,note_on,,,,,80,0,10,,,,,,3,,66,45
34460,note_off,,,,,92,0,7,,,,,,0,,82,0
34464,note_on,,,,,4,0,7,,,,,,0,,80,83
34496,note_off,,,,,128,0,9,,,,,,2,,70,0
34496,note_off,,,,,128,0,8,,,,,,1,,73,0
34496,note_off,,,,,128,0,10,,,,,,3,,66,0
34528,note_off,,,,,64,0,7,,,,,,0,,80,0
34560,note_on,,,,,64,0,8,,,,,,1,,73,45
34560,note_on,,,,,64,0,10,,,,,,3,,66,45
34560,note_on,,,,,64,0,9,,,,,,2,,70,45
34560,note_on,,,,,32,0,7,,,,,,0,,78,85
34652,note_off,,,,,92,0,7,,,,,,0,,78,0
34656,note_on,,,,,4,0,7,,,,,,0,,79,84
34748,note_off,,,,,92,0,7,,,,,,0,,79,0
34752,note_on,,,,,4,0,7,,,,,,0,,76,82
34844,note_off,,,,,92,0,7,,,,,,0,,76,0
34848,note_on,,,,,4,0,7,,,,,,0,,74,81
34864,note_off,,,,,304,0,10,,,,,,3,,66,0
34864,note_off,,,,,304,0,9,,,,,,2,,70,0
34864,note_off,,,,,304,0,8,,,,,,1,,73,0
34940,note_off,,,,,92,0,7,,,,,,0,,74,0
34944,note_on,,,,,80,0,9,,,,,,2,,70,45
34944,note_on,,,,,4,0,7,,,,,,0,,73,79
34944,note_on,,,,,80,0,8,,,,,,1,,73,45
34944,note_on,,,,,80,0,10,,,,,,3,,66,45
35036,note_off,,,,,92,0,7,,,,,,0,,73,0
35040,note_on,,,,,4,0,7,,,,,,0,,71,78
35072,note_off,,,,,128,0,10,,,,,,3,,66,0
35072,note_off,,,,,128,0,9,,,,,,2,,70,0
35072,note_off,,,,,128,0,8,,,,,,1,,73,0
35104,note_off,,,,,64,0,7,,,,,,0,,71,0
35136,note_on,,,,,64,0,10,,,,,,3,,66,45
35136,note_on,,,,,64,0,8,,,,,,1,,73,45
35136,note_on,,,,,32,0,7,,,,,,0,,66,80
35136,note_on,,,,,64,0,9,,,,,,2,,70,45
35228,note_off,,,,,92,0,7,,,,,,0,,66,0
35232,note_on,,,,,4,0,7,,,,,,0,,70,80
35324,note_off,,,,,92,0,7,,,,,,0,,70,0
35328,note_on,,,,,4,0,7,,,,,,0,,76,79
35420,note_off,,,,,92,0,7,,,,,,0,,76,0
35424,note_on,,,,,4,0,7,,,,,,0,,79,78
35440,note_off,,,,,304,0,9,,,,,,2,,70,0
35440,note_off,,,,,304,0,8,,,,,,1,,73,0
35440,note_off,,,,,304,0,10,,,,,,3,,66,0
35516,note_off,,,,,92,0,7,,,,,,0,,79,0
35520,note_on,,,,,80,0,8,,,,,,1,,73,45
35520,note_on,,,,,4,0,7,,,,,,0,,78,77
35520,note_on,,,,,80,0,10,,,,,,3,,66,45
35520,note_on,,,,,80,0,9,,,,,,2,,70,45
35612,note_off,,,,,92,0,7,,,,,,0,,78,0
35616,note_on,,,,,4,0,7,,,,,,0,,76,76
35648,note_off,,,,,128,0,10,,,,,,3,,66,0
35648,note_off,,,,,128,0,9,,,,,,2,,70,0
35648,note_off,,,,,128,0,8,,,,,,1,,73,0
35680,note_off,,,,,64,0,7,,,,,,0,,76,0
35712,note_on,,,,,64,0,8,,,,,,1,,74,45
35712,note_on,,,,,64,0,10,,,,,,3,,59,45
35712,note_on,,,,,32,0,7,,,,,,0,,74,75
35712,note_on,,,,,64,0,9,,,,,,2,,66,45
36016,note_off,,,,,304,0,9,,,,,,2,,66,0
36016,note_off,,,,,304,0,7,,,,,,0,,74,0
36016,note_off,,,,,304,0,10,,,,,,3,,59,0
36016,note_off,,,,,304,0,8,,,,,,1,,74,0
36096,set_tempo,,,,,26880,1,0,,1276595,,,,,,,
36096,note_on,,,,,80,0,10,,,,,,3,,59,45
36096,note_on,,,,,80,0,9,,,,,,2,,66,45
36096,note_on,,,,,80,0,8,,,,,,1,,74,45
36096,note_on,,,,,80,0,7,,,,,,0,,83,81
36224,note_off,,,,,128,0,9,,,,,,2,,66,0
36224,note_off,,,,,128,0,8,,,,,,1,,74,0
36224,note_off,,,,,128,0,10,,,,,,3,,59,0
36224,note_off,,,,,128,0,7,,,,,,0,,83,0
36288,note_on,,,,,64,0,10,,,,,,3,,66,45
36288,note_on,,,,,64,0,7,,,,,,0,,76,85
36288,note_on,,,,,64,0,9,,,,,,2,,66,45
36288,note_on,,,,,64,0,8,,,,,,1,,71,45
36288,set_tempo,,,,,192,1,0,,1276595,,,,,,,
36352,set_tempo,,,,,64,1,0,,1276595,,,,,,,
36380,note_off,,,,,92,0,7,,,,,,0,,76,0
36384,note_on,,,,,4,0,7,,,,,,0,,74,83
36404,note_off,,,,,20,0,7,,,,,,0,,74,0
36408,note_on,,,,,4,0,7,,,,,,0,,76,83
36416,set_tempo,,,,,64,1,0,,1276595,,,,,,,
36428,note_off,,,,,20,0,7,,,,,,0,,76,0
36432,note_on,,,,,4,0,7,,,,,,0,,74,82
36452,note_off,,,,,20,0,7,,,,,,0,,74,0
36456,note_on,,,,,4,0,7,,,,,,0,,76,82
36476,note_off,,,,,20,0,7,,,,,,0,,76,0
36480,set_tempo,,,,,64,1,0,,1276595,,,,,,,
36480,note_on,,,,,4,0,7,,,,,,0,,74,81
36544,set_tempo,,,,,64,1,0,,1304347,,,,,,,
36544,note_off,,,,,64,0,7,,,,,,0,,74,0
36576,note_on,,,,,32,0,7,,,,,,0,,76,79
36592,note_off,,,,,304,0,10,,,,,,3,,66,0
36592,note_off,,,,,304,0,8,,,,,,1,,71,0
36592,note_off,,,,,304,0,9,,,,,,2,,66,0
36608,set_tempo,,,,,64,1,0,,1304347,,,,,,,
36640,note_off,,,,,64,0,7,,,,,,0,,76,0
36672,note_on,,,,,80,0,9,,,,,,2,,73,45
36672,note_on,,,,,32,0,7,,,,,,0,,73,77
36672,note_on,,,,,80,0,8,,,,,,1,,70,45
36672,set_tempo,,,,,64,1,0,,1304347,,,,,,,
36672,note_on,,,,,80,0,10,,,,,,3,,66,45
36704,set_tempo,,,,,32,1,0,,1333333,,,,,,,
36736,set_tempo,,,,,32,1,0,,1333333,,,,,,,
36768,set_tempo,,,,,32,1,0,,1333333,,,,,,,
36800,set_tempo,,,,,32,1,0,,1363636,,,,,,,
36800,note_off,,,,,128,0,7,,,,,,0,,73,0
36800,note_off,,,,,128,0,8,,,,,,1,,70,0
36800,note_off,,,,,128,0,10,,,,,,3,,66,0
36800,note_off,,,,,128,0,9,,,,,,2,,73,0
36832,set_tempo,,,,,32,1,0,,1363636,,,,,,,
36864,set_tempo,,,,,32,1,0,,1363636,,,,,,,
36864,note_on,,,,,0,0,13,,,,,,6,,71,100
36864,note_on,,,,,64,0,10,,,,,,3,,66,75
36864,note_on,,,,,27882,0,13,,,,,,6,,62,100
36864,note_on,,,,,64,0,7,,,,,,0,,71,73
36864,note_on,,,,,27648,0,11,,,,,,4,,47,75
36864,note_on,,,,,64,0,8,,,,,,1,,71,75
36864,note_on,,,,,27880,0,15,,,,,,7,,62,100
36864,note_on,,,,,27880,0,14,,,,,,6,,47,100
36864,note_on,,,,,0,0,15,,,,,,7,,71,100
36864,note_on,,,,,27648,0,12,,,,,,5,,35,75
36864,note_on,,,,,64,0,9,,,,,,2,,71,75
36864,note_on,,,,,27880,0,16,,,,,,7,,47,100
37056,set_tempo,,,,,192,1,0,,1363636,,,,,,,
37088,set_tempo,,,,,32,1,0,,1276595,,,,,,,
37092,note_off,,,,,228,0,9,,,,,,2,,71,0
37092,note_off,,,,,228,0,8,,,,,,1,,71,0
37120,end_of_track,,,,,0,1,7,,,,,,,,,
37120,note_off,,,,,256,0,7,,,,,,0,,71,0
37152,note_on,,,,,60,0,9,,,,,,2,,73,76
37152,note_on,,,,,60,0,8,,,,,,1,,73,76
37168,note_off,,,,,304,0,10,,,,,,3,,66,0
37168,note_off,,,,,304,0,14,,,,,,6,,47,0
37168,note_off,,,,,304,0,11,,,,,,4,,47,0
37168,note_off,,,,,304,0,13,,,,,,6,,62,0
37168,note_off,,,,,304,0,12,,,,,,5,,35,0
37168,note_off,,,,,304,0,16,,,,,,7,,47,0
37168,note_off,,,,,0,0,13,,,,,,6,,71,0
37216,note_off,,,,,64,0,8,,,,,,1,,73,0
37216,note_off,,,,,64,0,9,,,,,,2,,73,0
37248,note_on,,,,,0,0,13,,,,,,6,,71,100
37248,note_on,,,,,80,0,16,,,,,,7,,47,100
37248,note_on,,,,,80,0,10,,,,,,3,,66,77
37248,note_on,,,,,80,0,12,,,,,,5,,35,77
37248,note_on,,,,,80,0,14,,,,,,6,,47,100
37248,note_on,,,,,32,0,8,,,,,,1,,71,77
37248,note_on,,,,,80,0,11,,,,,,4,,47,77
37248,note_on,,,,,32,0,9,,,,,,2,,71,77
37248,note_on,,,,,80,0,13,,,,,,6,,62,100
37376,note_off,,,,,0,0,13,,,,,,6,,71,0
37376,note_off,,,,,128,0,10,,,,,,3,,66,0
37376,note_off,,,,,128,0,9,,,,,,2,,71,0
37376,note_off,,,,,128,0,14,,,,,,6,,47,0
37376,note_off,,,,,128,0,16,,,,,,7,,47,0
37376,note_off,,,,,128,0,13,,,,,,6,,62,0
37376,note_off,,,,,128,0,11,,,,,,4,,47,0
37376,note_off,,,,,128,0,12,,,,,,5,,35,0
37376,note_off,,,,,128,0,8,,,,,,1,,71,0
37436,note_off,,,,,572,0,15,,,,,,7,,62,0
37440,note_on,,,,,64,0,16,,,,,,7,,50,100
37440,note_on,,,,,64,0,11,,,,,,4,,50,78
37440,note_on,,,,,4,0,15,,,,,,7,,66,100
37440,note_on,,,,,64,0,8,,,,,,1,,71,78
37440,note_on,,,,,64,0,10,,,,,,3,,66,78
37440,note_on,,,,,64,0,9,,,,,,2,,71,78
37440,note_on,,,,,64,0,12,,,,,,5,,38,78
37440,note_on,,,,,64,0,14,,,,,,6,,50,100
37440,note_on,,,,,64,0,13,,,,,,6,,66,100
37440,note_on,,,,,0,0,13,,,,,,6,,71,100
37744,note_off,,,,,304,0,13,,,,,,6,,66,0
37744,note_off,,,,,304,0,10,,,,,,3,,66,0
37744,note_off,,,,,304,0,8,,,,,,1,,71,0
37744,note_off,,,,,304,0,12,,,,,,5,,38,0
37744,note_off,,,,,304,0,11,,,,,,4,,50,0
37744,note_off,,,,,304,0,14,,,,,,6,,50,0
37744,note_off,,,,,304,0,16,,,,,,7,,50,0
37744,note_off,,,,,304,0,9,,,,,,2,,71,0
37744,note_off,,,,,0,0,13,,,,,,6,,71,0
37824,note_on,,,,,80,0,14,,,,,,6,,50,100
37824,note_on,,,,,80,0,16,,,,,,7,,50,100
37824,note_on,,,,,0,0,13,,,,,,6,,71,100
37824,note_on,,,,,80,0,13,,,,,,6,,66,100
37824,note_on,,,,,80,0,8,,,,,,1,,71,81
37824,note_on,,,,,80,0,9,,,,,,2,,71,81
37824,note_on,,,,,80,0,12,,,,,,5,,38,81
37824,note_on,,,,,80,0,11,,,,,,4,,50,81
37824,note_on,,,,,80,0,10,,,,,,3,,66,81
37952,note_off,,,,,128,0,14,,,,,,6,,50,0
37952,note_off,,,,,128,0,13,,,,,,6,,66,0
37952,note_off,,,,,128,0,9,,,,,,2,,71,0
37952,note_off,,,,,128,0,8,,,,,,1,,71,0
37952,note_off,,,,,128,0,11,,,,,,4,,50,0
37952,note_off,,,,,128,0,10,,,,,,3,,66,0
37952,note_off,,,,,128,0,12,,,,,,5,,38,0
37952,note_off,,,,,0,0,13,,,,,,6,,71,0
37952,note_off,,,,,128,0,16,,,,,,7,,50,0
38012,note_off,,,,,572,0,15,,,,,,7,,66,0
38016,note_on,,,,,0,0,13,,,,,,6,,73,100
38016,note_on,,,,,64,0,14,,,,,,6,,52,100
38016,note_on,,,,,64,0,8,,,,,,1,,73,82
38016,note_on,,,,,64,0,9,,,,,,2,,71,82
38016,note_on,,,,,64,0,16,,,,,,7,,52,100
38016,note_on,,,,,64,0,13,,,,,,6,,71,100
38016,note_on,,,,,64,0,12,,,,,,5,,40,82
38016,note_on,,,,,4,0,15,,,,,,7,,61,100
38016,note_on,,,,,64,0,11,,,,,,4,,52,82
38016,note_on,,,,,64,0,10,,,,,,3,,67,82
38244,note_off,,,,,228,0,8,,,,,,1,,73,0
38304,note_on,,,,,60,0,8,,,,,,1,,74,84
38320,note_off,,,,,304,0,10,,,,,,3,,67,0
38320,note_off,,,,,304,0,13,,,,,,6,,71,0
38320,note_off,,,,,0,0,13,,,,,,6,,73,0
38320,note_off,,,,,304,0,14,,,,,,6,,52,0
38320,note_off,,,,,304,0,11,,,,,,4,,52,0
38320,note_off,,,,,304,0,12,,,,,,5,,40,0
38320,note_off,,,,,304,0,16,,,,,,7,,52,0
38368,note_off,,,,,64,0,8,,,,,,1,,74,0
38400,note_on,,,,,80,0,11,,,,,,4,,52,84
38400,note_on,,,,,32,0,8,,,,,,1,,73,84
38400,note_on,,,,,80,0,16,,,,,,7,,52,100
38400,note_on,,,,,80,0,13,,,,,,6,,71,100
38400,note_on,,,,,0,0,13,,,,,,6,,73,100
38400,note_on,,,,,80,0,14,,,,,,6,,52,100
38400,note_on,,,,,80,0,12,,,,,,5,,40,84
38400,note_on,,,,,80,0,10,,,,,,3,,67,84
38528,note_off,,,,,128,0,10,,,,,,3,,67,0
38528,note_off,,,,,128,0,11,,,,,,4,,52,0
38528,note_off,,,,,128,0,13,,,,,,6,,71,0
38528,note_off,,,,,128,0,12,,,,,,5,,40,0
38528,note_off,,,,,128,0,14,,,,,,6,,52,0
38528,note_off,,,,,128,0,16,,,,,,7,,52,0
38528,note_off,,,,,128,0,8,,,,,,1,,73,0
38528,note_off,,,,,0,0,13,,,,,,6,,73,0
38592,note_on,,,,,64,0,14,,,,,,6,,52,100
38592,note_on,,,,,64,0,8,,,,,,1,,73,86
38592,note_on,,,,,64,0,12,,,,,,5,,40,86
38592,note_on,,,,,64,0,13,,,,,,6,,71,100
38592,note_on,,,,,64,0,16,,,,,,7,,52,100
38592,note_on,,,,,64,0,10,,,,,,3,,67,86
38592,note_on,,,,,64,0,11,,,,,,4,,52,86
38592,note_on,,,,,0,0,13,,,,,,6,,73,100
38896,note_off,,,,,304,0,13,,,,,,6,,71,0
38896,note_off,,,,,304,0,16,,,,,,7,,52,0
38896,note_off,,,,,304,0,14,,,,,,6,,52,0
38896,note_off,,,,,304,0,12,,,,,,5,,40,0
38896,note_off,,,,,304,0,10,,,,,,3,,67,0
38896,note_off,,,,,304,0,8,,,,,,1,,73,0
38896,note_off,,,,,304,0,11,,,,,,4,,52,0
38896,note_off,,,,,0,0,13,,,,,,6,,73,0
38976,note_on,,,,,0,0,13,,,,,,6,,73,100
38976,note_on,,,,,80,0,16,,,,,,7,,52,100
38976,note_on,,,,,80,0,13,,,,,,6,,71,100
38976,note_on,,,,,80,0,14,,,,,,6,,52,100
38976,note_on,,,,,80,0,10,,,,,,3,,67,88
38976,note_on,,,,,80,0,12,,,,,,5,,40,88
38976,note_on,,,,,80,0,11,,,,,,4,,52,88
38976,note_on,,,,,80,0,8,,,,,,1,,73,88
39104,note_off,,,,,1088,0,9,,,,,,2,,71,0
39104,note_off,,,,,0,0,13,,,,,,6,,73,0
39104,note_off,,,,,128,0,13,,,,,,6,,71,0
39104,note_off,,,,,128,0,10,,,,,,3,,67,0
39104,note_off,,,,,128,0,12,,,,,,5,,40,0
39104,note_off,,,,,128,0,16,,,,,,7,,52,0
39104,note_off,,,,,128,0,14,,,,,,6,,52,0
39104,note_off,,,,,128,0,11,,,,,,4,,52,0
39104,note_off,,,,,128,0,8,,,,,,1,,73,0
39164,note_off,,,,,1148,0,15,,,,,,7,,61,0
39168,note_on,,,,,64,0,14,,,,,,6,,53,100
39168,note_on,,,,,64,0,9,,,,,,2,,71,90
39168,note_on,,,,,64,0,12,,,,,,5,,41,90
39168,note_on,,,,,4,0,15,,,,,,7,,62,100
39168,note_on,,,,,64,0,10,,,,,,3,,68,90
39168,note_on,,,,,64,0,11,,,,,,4,,53,90
39168,note_on,,,,,64,0,16,,,,,,7,,53,100
39168,note_on,,,,,64,0,8,,,,,,1,,74,90
39168,note_on,,,,,64,0,13,,,,,,6,,71,100
39168,note_on,,,,,0,0,13,,,,,,6,,74,100
39396,note_off,,,,,228,0,9,,,,,,2,,71,0
39396,note_off,,,,,228,0,8,,,,,,1,,74,0
39456,note_on,,,,,60,0,9,,,,,,2,,73,88
39456,note_on,,,,,60,0,8,,,,,,1,,76,88
39472,note_off,,,,,0,0,13,,,,,,6,,74,0
39472,note_off,,,,,304,0,16,,,,,,7,,53,0
39472,note_off,,,,,304,0,13,,,,,,6,,71,0
39472,note_off,,,,,304,0,11,,,,,,4,,53,0
39472,note_off,,,,,304,0,10,,,,,,3,,68,0
39472,note_off,,,,,304,0,12,,,,,,5,,41,0
39472,note_off,,,,,304,0,14,,,,,,6,,53,0
39520,note_off,,,,,64,0,8,,,,,,1,,76,0
39520,note_off,,,,,64,0,9,,,,,,2,,73,0
39552,note_on,,,,,32,0,8,,,,,,1,,74,87
39552,note_on,,,,,32,0,9,,,,,,2,,71,87
39552,note_on,,,,,0,0,13,,,,,,6,,74,100
39552,note_on,,,,,80,0,13,,,,,,6,,71,100
39552,note_on,,,,,80,0,12,,,,,,5,,41,87
39552,note_on,,,,,80,0,14,,,,,,6,,53,100
39552,note_on,,,,,80,0,10,,,,,,3,,68,87
39552,note_on,,,,,80,0,11,,,,,,4,,53,87
39552,note_on,,,,,80,0,16,,,,,,7,,53,100
39680,note_off,,,,,128,0,8,,,,,,1,,74,0
39680,note_off,,,,,128,0,10,,,,,,3,,68,0
39680,note_off,,,,,128,0,14,,,,,,6,,53,0
39680,note_off,,,,,128,0,11,,,,,,4,,53,0
39680,note_off,,,,,0,0,13,,,,,,6,,74,0
39680,note_off,,,,,128,0,12,,,,,,5,,41,0
39680,note_off,,,,,128,0,16,,,,,,7,,53,0
39680,note_off,,,,,128,0,9,,,,,,2,,71,0
39680,note_off,,,,,128,0,13,,,,,,6,,71,0
39744,note_on,,,,,64,0,12,,,,,,5,,41,86
39744,note_on,,,,,64,0,8,,,,,,1,,74,86
39744,note_on,,,,,64,0,10,,,,,,3,,68,86
39744,note_on,,,,,64,0,11,,,,,,4,,53,86
39744,note_on,,,,,0,0,13,,,,,,6,,74,100
39744,note_on,,,,,64,0,13,,,,,,6,,71,100
39744,note_on,,,,,64,0,16,,,,,,7,,53,100
39744,note_on,,,,,64,0,9,,,,,,2,,71,86
39744,note_on,,,,,64,0,14,,,,,,6,,53,100
40048,note_off,,,,,304,0,11,,,,,,4,,53,0
40048,note_off,,,,,304,0,8,,,,,,1,,74,0
40048,note_off,,,,,304,0,13,,,,,,6,,71,0
40048,note_off,,,,,304,0,10,,,,,,3,,68,0
40048,note_off,,,,,304,0,9,,,,,,2,,71,0
40048,note_off,,,,,0,0,13,,,,,,6,,74,0
40048,note_off,,,,,304,0,14,,,,,,6,,53,0
40048,note_off,,,,,304,0,12,,,,,,5,,41,0
40048,note_off,,,,,304,0,16,,,,,,7,,53,0
40128,note_on,,,,,80,0,14,,,,,,6,,53,100
40128,note_on,,,,,80,0,12,,,,,,5,,41,82
40128,note_on,,,,,80,0,8,,,,,,1,,74,82
40128,note_on,,,,,80,0,11,,,,,,4,,53,82
40128,note_on,,,,,80,0,13,,,,,,6,,71,100
40128,note_on,,,,,0,0,13,,,,,,6,,74,100
40128,note_on,,,,,80,0,9,,,,,,2,,71,82
40128,note_on,,,,,80,0,10,,,,,,3,,68,82
40128,note_on,,,,,80,0,16,,,,,,7,,53,100
40256,note_off,,,,,128,0,11,,,,,,4,,53,0
40256,note_off,,,,,128,0,10,,,,,,3,,68,0
40256,note_off,,,,,128,0,14,,,,,,6,,53,0
40256,note_off,,,,,0,0,13,,,,,,6,,74,0
40256,note_off,,,,,128,0,13,,,,,,6,,71,0
40256,note_off,,,,,128,0,12,,,,,,5,,41,0
40256,note_off,,,,,128,0,8,,,,,,1,,74,0
40256,note_off,,,,,128,0,9,,,,,,2,,71,0
40256,note_off,,,,,128,0,16,,,,,,7,,53,0
40316,note_off,,,,,1148,0,15,,,,,,7,,62,0
40320,note_on,,,,,64,0,8,,,,,,1,,73,81
40320,set_tempo,,,,,3232,1,0,,1276595,,,,,,,
40320,note_on,,,,,64,0,10,,,,,,3,,66,81
40320,note_on,,,,,0,0,13,,,,,,6,,71,100
40320,note_on,,,,,64,0,13,,,,,,6,,73,100
40320,note_on,,,,,4,0,15,,,,,,7,,61,100
40320,note_on,,,,,64,0,11,,,,,,4,,54,81
40320,note_on,,,,,64,0,16,,,,,,7,,54,100
40320,note_on,,,,,64,0,14,,,,,,6,,54,100
40320,note_on,,,,,64,0,12,,,,,,5,,42,81
40320,note_on,,,,,64,0,9,,,,,,2,,71,81
40416,set_tempo,,,,,96,1,0,,1276595,,,,,,,
40512,set_tempo,,,,,96,1,0,,1276595,,,,,,,
40548,note_off,,,,,228,0,8,,,,,,1,,73,0
40608,note_on,,,,,60,0,8,,,,,,1,,74,78
40608,set_tempo,,,,,96,1,0,,1276595,,,,,,,
40624,note_off,,,,,0,0,13,,,,,,6,,71,0
40624,note_off,,,,,304,0,13,,,,,,6,,73,0
40624,note_off,,,,,304,0,14,,,,,,6,,54,0
40624,note_off,,,,,304,0,9,,,,,,2,,71,0
40624,note_off,,,,,304,0,11,,,,,,4,,54,0
40624,note_off,,,,,304,0,16,,,,,,7,,54,0
40624,note_off,,,,,304,0,10,,,,,,3,,66,0
40624,note_off,,,,,304,0,12,,,,,,5,,42,0
40672,note_off,,,,,64,0,8,,,,,,1,,74,0
40704,note_on,,,,,80,0,11,,,,,,4,,54,77
40704,note_on,,,,,80,0,10,,,,,,3,,66,77
40704,note_on,,,,,32,0,8,,,,,,1,,73,77
40704,note_on,,,,,80,0,9,,,,,,2,,71,77
40704,note_on,,,,,80,0,16,,,,,,7,,54,100
40704,set_tempo,,,,,96,1,0,,1304347,,,,,,,
40704,note_on,,,,,80,0,14,,,,,,6,,54,100
40704,note_on,,,,,80,0,12,,,,,,5,,42,77
40704,note_on,,,,,80,0,13,,,,,,6,,73,100
40704,note_on,,,,,0,0,13,,,,,,6,,71,100
40800,set_tempo,,,,,96,1,0,,1304347,,,,,,,
40832,note_off,,,,,128,0,13,,,,,,6,,73,0
40832,note_off,,,,,128,0,12,,,,,,5,,42,0
40832,note_off,,,,,128,0,16,,,,,,7,,54,0
40832,note_off,,,,,128,0,11,,,,,,4,,54,0
40832,note_off,,,,,128,0,10,,,,,,3,,66,0
40832,note_off,,,,,0,0,13,,,,,,6,,71,0
40832,note_off,,,,,128,0,14,,,,,,6,,54,0
40832,note_off,,,,,128,0,8,,,,,,1,,73,0
40832,note_off,,,,,128,0,9,,,,,,2,,71,0
40892,note_off,,,,,572,0,15,,,,,,7,,71,0
40896,note_on,,,,,0,0,13,,,,,,6,,73,100
40896,note_on,,,,,64,0,13,,,,,,6,,70,100
40896,note_on,,,,,64,0,10,,,,,,3,,66,76
40896,note_on,,,,,64,0,9,,,,,,2,,70,76
40896,note_on,,,,,64,0,14,,,,,,6,,42,100
40896,note_on,,,,,64,0,16,,,,,,7,,42,100
40896,note_on,,,,,64,0,11,,,,,,4,,42,76
40896,set_tempo,,,,,96,1,0,,1304347,,,,,,,
40896,note_on,,,,,64,0,12,,,,,,5,,42,76
40896,note_on,,,,,64,0,8,,,,,,1,,73,76
40896,note_on,,,,,4,0,15,,,,,,7,,70,100
40960,set_tempo,,,,,64,1,0,,1333333,,,,,,,
40992,set_tempo,,,,,32,1,0,,1333333,,,,,,,
41024,set_tempo,,,,,32,1,0,,1333333,,,,,,,
41056,set_tempo,,,,,32,1,0,,1363636,,,,,,,
41088,set_tempo,,,,,32,1,0,,1363636,,,,,,,
41120,set_tempo,,,,,32,1,0,,1363636,,,,,,,
41152,set_tempo,,,,,32,1,0,,1363636,,,,,,,
41184,set_tempo,,,,,32,1,0,,1395348,,,,,,,
41200,note_off,,,,,304,0,9,,,,,,2,,70,0
41200,note_off,,,,,304,0,13,,,,,,6,,70,0
41200,note_off,,,,,304,0,10,,,,,,3,,66,0
41200,note_off,,,,,304,0,16,,,,,,7,,42,0
41200,note_off,,,,,304,0,14,,,,,,6,,42,0
41200,note_off,,,,,304,0,12,,,,,,5,,42,0
41200,note_off,,,,,304,0,11,,,,,,4,,42,0
41200,note_off,,,,,304,0,15,,,,,,7,,70,0
41200,note_off,,,,,304,0,8,,,,,,1,,73,0
41200,note_off,,,,,0,0,13,,,,,,6,,73,0
41216,set_tempo,,,,,32,1,0,,1395348,,,,,,,
41248,set_tempo,,,,,32,1,0,,1395348,,,,,,,
41280,note_on,,,,,80,0,9,,,,,,2,,70,72
41280,note_on,,,,,80,0,16,,,,,,7,,42,100
41280,note_on,,,,,80,0,11,,,,,,4,,42,72
41280,note_on,,,,,80,0,15,,,,,,7,,61,100
41280,note_on,,,,,0,0,15,,,,,,7,,70,100
41280,note_on,,,,,80,0,13,,,,,,6,,70,100
41280,note_on,,,,,80,0,10,,,,,,3,,66,72
41280,note_on,,,,,80,0,14,,,,,,6,,42,100
41280,set_tempo,,,,,32,1,0,,1428571,,,,,,,
41280,note_on,,,,,80,0,12,,,,,,5,,42,72
41280,note_on,,,,,0,0,13,,,,,,6,,73,100
41280,note_on,,,,,80,0,8,,,,,,1,,73,72
41312,set_tempo,,,,,32,1,0,,1428571,,,,,,,
41344,set_tempo,,,,,32,1,0,,1463414,,,,,,,
41376,set_tempo,,,,,32,1,0,,1500000,,,,,,,
41408,note_off,,,,,128,0,14,,,,,,6,,42,0
41408,note_off,,,,,128,0,10,,,,,,3,,66,0
41408,note_off,,,,,128,0,8,,,,,,1,,73,0
41408,note_off,,,,,128,0,12,,,,,,5,,42,0
41408,note_off,,,,,128,0,9,,,,,,2,,70,0
41408,note_off,,,,,128,0,16,,,,,,7,,42,0
41408,note_off,,,,,128,0,11,,,,,,4,,42,0
41408,note_off,,,,,128,0,13,,,,,,6,,70,0
41408,note_off,,,,,128,0,15,,,,,,7,,61,0
41408,note_off,,,,,0,0,13,,,,,,6,,73,0
41408,note_off,,,,,0,0,15,,,,,,7,,70,0
41408,set_tempo,,,,,32,1,0,,1538461,,,,,,,
41440,set_tempo,,,,,32,1,0,,1578947,,,,,,,
41468,note_off,,,,,60,0,15,,,,,,7,,61,0
41472,note_on,,,,,64,0,10,,,,,,3,,66,71
41472,note_on,,,,,64,0,14,,,,,,6,,47,100
41472,set_tempo,,,,,32,1,0,,3529411,,,,,,,
41472,note_on,,,,,64,0,9,,,,,,2,,71,71
41472,note_on,,,,,64,0,8,,,,,,1,,74,71
41472,note_on,,,,,0,0,15,,,,,,7,,71,100
41472,note_on,,,,,4,0,15,,,,,,7,,62,100
41472,note_on,,,,,64,0,12,,,,,,5,,35,71
41472,note_on,,,,,64,0,16,,,,,,7,,47,100
41472,note_on,,,,,64,0,11,,,,,,4,,47,71
41486,note_on,,,,,78,0,13,,,,,,6,,66,100
41502,note_on,,,,,16,0,13,,,,,,6,,71,100
41518,note_on,,,,,16,0,13,,,,,,6,,74,100
41664,set_tempo,,,,,192,1,0,,3529411,,,,,,,
41696,end_of_track,,,,,0,1,0,,,,,,,,,
41696,set_tempo,,,,,32,1,0,,937500,,,,,,,
43008,end_of_track,,,,,0,1,13,,,,,,,,,
43008,note_off,,,,,0,0,13,,,,,,6,,74,0
43008,note_off,,,,,0,0,13,,,,,,6,,71,0
43008,note_off,,,,,1490,0,13,,,,,,6,,66,0
43012,note_off,,,,,1540,0,10,,,,,,3,,66,0
43012,note_off,,,,,0,0,15,,,,,,7,,71,0
43012,note_off,,,,,1540,0,11,,,,,,4,,47,0
43012,end_of_track,,,,,0,1,11,,,,,,,,,
43012,end_of_track,,,,,0,1,9,,,,,,,,,
43012,note_off,,,,,1540,0,9,,,,,,2,,71,0
43012,note_off,,,,,1540,0,12,,,,,,5,,35,0
43012,end_of_track,,,,,0,1,12,,,,,,,,,
43012,end_of_track,,,,,0,1,15,,,,,,,,,
43012,note_off,,,,,1540,0,16,,,,,,7,,47,0
43012,note_off,,,,,1540,0,8,,,,,,1,,74,0
43012,end_of_track,,,,,0,1,10,,,,,,,,,
43012,note_off,,,,,1540,0,14,,,,,,6,,47,0
43012,end_of_track,,,,,0,1,14,,,,,,,,,
43012,note_off,,,,,1540,0,15,,,,,,7,,62,0
43012,end_of_track,,,,,0,1,16,,,,,,,,,
44928,program_change,,,,,1916,0,8,,,,,,1,48,,
44928,end_of_track,,,,,0,1,8,,,,,,,,,
